<!-- by TradingView --><svg width="18" height="18" viewBox="0 0 18 18" xmlns="http://www.w3.org/2000/svg"><path fill="#F0F3FA" d="M0 0h18v18H0z"/><path d="M10 7.85c.74.49 1.46 1.07 1.73 1.77.07.18.06.2-.05.02-.31-.51-1-.9-1.6-1.19-.05-.02-.08 0-.08.04v5.14c0 .08-.02.12-.1.14l-.5.16c-.06.01-.1-.01-.1-.08v-.66c0-.03 0-.04-.03-.04h-.5c-.03 0-.04.01-.04.04v.65c0 .07-.04.1-.11.08l-.5-.14c-.08-.02-.12-.07-.12-.16v-5.2c0-.04-.03-.06-.07-.04-2.48 1.03-2.93 4.05-.76 5.58.07.04.07.05-.01.02a3.35 3.35 0 0 1-1.6-4.99 3.87 3.87 0 0 1 2.38-1.48c.06-.02.06-.1.06-.16v-2.1c0-.04-.02-.05-.05-.02l-.59.25c-.04.03-.07.02-.07-.03v-.54c0-.04.03-.07.06-.1l2.6-1.8a.04.04 0 0 1 .06.01v.02L10 7.84ZM8.82 6.03a.17.17 0 0 0-.1.16v.45c0 .02.02.03.04.03h.51c.02 0 .03-.02.03-.04V5.8c0-.08-.03-.1-.1-.06l-.38.3Zm.48 1.25a.05.05 0 0 0-.01-.03.05.05 0 0 0-.04-.02h-.47a.05.05 0 0 0-.04.01.05.05 0 0 0-.01.04v.62a.05.05 0 0 0 .01.03.05.05 0 0 0 .04.01h.47a.05.05 0 0 0 .04 0v-.02l.01-.02v-.62Zm0 .84V8.1a.04.04 0 0 0-.03-.02h-.5a.04.04 0 0 0-.03.01.04.04 0 0 0-.01.03v.65a.04.04 0 0 0 .03.03h.51a.04.04 0 0 0 .02-.02.04.04 0 0 0 .01-.02v-.64Zm0 1.26a.04.04 0 0 0-.01-.03.04.04 0 0 0-.03-.01h-.49a.04.04 0 0 0-.03 0 .04.04 0 0 0 0 .04l-.01.63a.04.04 0 0 0 .01.03h.02l.01.01h.49a.04.04 0 0 0 .04-.03v-.64Zm0 .84-.01-.03-.03-.02h-.49s-.02 0-.03.02l-.01.03v.67h.56l.01-.03v-.64Zm0 2.12a.03.03 0 0 0 0-.02l-.02-.01h-.51a.04.04 0 0 0-.04.02v.66a.04.04 0 0 0 .02.04h.51a.04.04 0 0 0 .03-.01L9.3 13v-.66Z" fill="#1E4D75"/><path d="M8 6.57v.78a4.06 4.06 0 0 0-2.76 1.5c-.11.16-.13.15-.05-.02A4.29 4.29 0 0 1 8 6.57ZM10 7.85V6.62c1.91.65 3 2.43 3 4a3.8 3.8 0 0 1-2.19 3.3c-.12.07-.13.06-.02-.03a3.64 3.64 0 0 0 .78-4.84c-.34-.56-1-.95-1.57-1.2Z" fill="#23B4E8"/><path d="m6.94 13.34-.21-.32v-2.79a.04.04 0 0 1 0-.03l.8-.54a.04.04 0 0 1 .05.02v3.99l-.02.02h-.04l-.21-.2-.01-.02V12.3c0-.01 0-.02-.02-.03l-.07-.01h-.17l-.02.01-.01.03v1l-.01.03-.02.01a.04.04 0 0 1-.04-.01Zm.13-2.75a.14.14 0 0 0-.06.12v.55c0 .03.01.04.04.04h.15c.03 0 .1-.01.1-.04v-.7c0-.06-.03-.07-.08-.04l-.15.07Zm.23.87c0-.02 0-.03-.02-.04l-.09-.02h-.13c-.02 0-.03 0-.04.02a.05.05 0 0 0-.01.04v.59l.01.04.04.01h.17c.02 0 .06-.04.06-.05v-.6ZM11.1 13.34l.2-.32V10.2l-.8-.54a.04.04 0 0 0-.03 0l-.02.02v3.97a.04.04 0 0 0 .02.04h.04l.21-.2a.04.04 0 0 0 .01-.04v-1.14c0-.01 0-.02.02-.03l.07-.01H11l.02.01.01.03v1a.04.04 0 0 0 .03.04.04.04 0 0 0 .04-.01Zm-.14-2.75c.02.02.04.03.05.06l.01.06v.55c0 .03-.01.04-.04.04h-.15c-.03 0-.1-.01-.1-.04v-.7c0-.06.03-.07.08-.04l.15.07Zm-.23.87c0-.02 0-.03.02-.04l.08-.02h.14c.01 0 .03 0 .04.02l.01.04v.59l-.01.04-.04.01h-.18l-.06-.05v-.6Z" fill="#1E4D75"/></svg>