<!-- by TradingView --><svg width="18" height="18" viewBox="0 0 18 18" xmlns="http://www.w3.org/2000/svg"><path fill="#F0F3FA" d="M0 0h18v18H0z"/><path d="M5 5.12V14h8V4L9.3 5.02V4L5 5.12Z" fill="#ED1D24"/><path d="m8.74 7.28.23-.78.2.67.83-.2-.67.57.23.67-.59-.3-.63.59.25-.79L8 7.47l.74-.2Z" fill="#FFF200"/><path d="M6 8.57c0-.39.78-.78 1.16-.93-.8.53-.93.75-.93.9 0 .13.23.32.89.32s1.93-.2 2.48-.29A7.9 7.9 0 0 1 7.12 9C6.3 9 6 8.77 6 8.57ZM12 6.33c0 .3-.69.64-1.01.76.67-.41.82-.62.82-.73 0-.1-.2-.25-.75-.25-.56 0-1 .02-1.46.1.42-.17.77-.21 1.46-.21s.94.18.94.33Z" fill="#fff"/><path d="M10.28 10.86c.41 0 .72.45.72.97 0 .72-.47 1.17-1 1.17-.52 0-1-.43-1-1.14 0-.23.06-.51.17-.73L10 10h.97l-.76.86h.07ZM10 12c.12 0 .2-.13.2-.28 0-.14-.08-.27-.2-.27-.12 0-.2.13-.2.27 0 .15.08.28.2.28ZM8.57 11.46c.24.1.43.37.43.68 0 .59-.55.86-.97.86C7.49 13 7 12.67 7 12h.8c0 .14.07.22.2.22.1 0 .18-.08.18-.2 0-.16-.17-.22-.28-.22h-.15v-.6h.15c.13 0 .26-.1.26-.26 0-.1-.06-.2-.15-.2-.15 0-.27.12-.27.26H7a1 1 0 0 1 1.03-1c.4 0 .89.27.89.8 0 .28-.14.54-.35.66Z" fill="#FFF200"/></svg>