<!-- by TradingView --><svg width="18" height="18" viewBox="0 0 18 18" xmlns="http://www.w3.org/2000/svg"><path d="M0 9a9 9 0 1 1 18 0A9 9 0 0 1 0 9Z" fill="#F0F3FA"/><path d="M9.55 4.36s.24 1.68-1.18 2.43c-1.41.76 4.25-.21 4.25-.21s.17-.89-.7-1.5c-.86-.62-2.37-.72-2.37-.72Zm2.6 5.1s.66.54-.56 1.66c-1.21 1.12-3.38 2.33-3.38 2.33l2.93-.4 1.34-.84.6-.7.46-1.9-1.4-.15Zm-6.51 3.32c-.03-.03-.03-.05-.03-.05l-.1-.56 1.23-1.78 4.02-.86s-2.78 2.59-3.94 3.1c-.85.39-1.1.22-1.18.15Z" fill="url(#atq5ztwrg)"/><path d="M8.9 4c1.16 0 2.23.35 3.1 1.01.2.23.3.42.3.42S11.8 5 9.52 5C7.23 5 4.33 7.47 4.23 7.44c-.03 0-.04-.04-.05-.08A5.03 5.03 0 0 1 8.9 4Zm4.45 2.55c.42.72.65 1.56.65 2.45a5.05 5.05 0 0 1-6.56 4.77c-.04-.05-.07-.1-.07-.13l.01-.05c.1-.18 2.14-.66 3.03-.74.9-.09 2.56-.77 2.59-1.94 0-.91-1.43-.9-1.6-.91-.9 0-5.78 1.87-5.76 2.79A5.1 5.1 0 0 1 4 9.99c-.05-.7.34-1.15.87-1.48.53-.34 3.29-2.32 5.92-2.32 1.44 0 2.18.2 2.56.36Z" fill="url(#btq5ztwrg)"/><path d="M8.9 4c1.16 0 2.23.35 3.1 1.01.2.23.3.42.3.42S11.8 5 9.52 5C7.23 5 4.33 7.47 4.23 7.44c-.03 0-.04-.04-.05-.08A5.03 5.03 0 0 1 8.9 4Zm4.45 2.55c.42.72.65 1.56.65 2.45a5.05 5.05 0 0 1-6.56 4.77c-.04-.05-.07-.1-.07-.13l.01-.05c.1-.18 2.14-.66 3.03-.74C11.31 12.76 13 12 13 11s-1.3-1-1.6-1c-.9 0-5.78 1.87-5.76 2.79A5.1 5.1 0 0 1 4 9.99c-.05-.7.34-1.15.87-1.48.53-.34 3.29-2.32 5.92-2.32 1.44 0 2.18.2 2.56.36Z" fill="url(#ctq5ztwrg)"/><defs><linearGradient id="atq5ztwrg" x1="11.39" y1="4.36" x2="5.59" y2="12.98" gradientUnits="userSpaceOnUse"><stop offset=".04" stop-color="#7A3425"/><stop offset=".14" stop-color="#B53926"/><stop offset=".23" stop-color="#9F2A11"/><stop offset=".45" stop-color="#74371B"/><stop offset=".72" stop-color="#E15A14"/><stop offset="1" stop-color="#7E321B"/></linearGradient><linearGradient id="btq5ztwrg" x1="13.04" y1="6.09" x2="4.04" y2="10.73" gradientUnits="userSpaceOnUse"><stop offset=".1" stop-color="#E5561D"/><stop offset=".45" stop-color="#F6EA8C"/><stop offset=".68" stop-color="#ECA95E"/><stop offset=".9" stop-color="#DD4216"/></linearGradient><linearGradient id="ctq5ztwrg" x1="8.35" y1="3.47" x2="11.36" y2="14.02" gradientUnits="userSpaceOnUse"><stop stop-color="#F38519" stop-opacity="0"/><stop offset=".24" stop-color="#F6820E"/><stop offset=".36" stop-color="#F48A15"/><stop offset=".64" stop-color="#F6EA8C" stop-opacity="0"/><stop offset=".92" stop-color="#E6681C"/></linearGradient></defs></svg>