<!-- by TradingView --><svg width="18" height="18" viewBox="0 0 18 18" xmlns="http://www.w3.org/2000/svg"><path fill="#F0F3FA" d="M0 0h18v18H0z"/><path d="M9.08 4a5.03 5.03 0 0 1 3.26 1.3.09.09 0 0 1 0 .07.1.1 0 0 1-.02.03l-.94.9c-.05.05-.1.05-.14.02C9.8 5.24 8.35 5.23 6.9 6.3c-.05.03-.1.03-.14-.01l-.95-.92a.1.1 0 0 1-.02-.07.09.09 0 0 1 .03-.07A5.27 5.27 0 0 1 9.08 4Z" fill="#0046BE"/><path d="M9.05 14C6.95 14 5.4 12.5 5 10.54v-.36h1.41c.1 0 .17.06.18.16.25 2.22 2.93 2.9 4.36 1.35 1.52-1.64.16-3.66-1.82-3.96a.05.05 0 0 1-.03-.03.05.05 0 0 1 0-.05l1.16-1.08a.16.16 0 0 1 .18-.03C14.5 8.22 13.52 14 9.05 14Z"/></svg>