<!-- by TradingView --><svg width="18" height="18" viewBox="0 0 18 18" xmlns="http://www.w3.org/2000/svg"><path fill="#F0F3FA" d="M0 0h18v18H0z"/><path d="M12.08 4.11a1.5 1.5 0 1 0 .8.81 1.48 1.48 0 0 0-.8-.8ZM16 9.01c.06.5-.3 1.16-1.02 1.4-.31.1-.65.12-.96.03-.32-.08-.6-.26-.8-.5l-.3-.31a1.64 1.64 0 0 0-1.15-.49 1.72 1.72 0 0 0-1.17.43c-.12.1-.23.22-.33.34a1.65 1.65 0 0 1-2.5 0 1.9 1.9 0 0 0-1-.7c-.78-.2-1.4.05-1.88.63-.13.18-.3.33-.5.44a1.64 1.64 0 0 1-1.78-.11A1.48 1.48 0 0 1 2 9.2c-.1-.85.51-1.6 1.37-1.69.26-.03.53 0 .78.1.25.09.46.24.63.44.26.28.53.56.91.68.73.23 1.36.06 1.89-.47.13-.16.28-.3.44-.44a1.65 1.65 0 0 1 2.18.2c.12.15.26.29.41.41A1.75 1.75 0 0 0 13 8.3c.13-.16.28-.31.44-.45A1.62 1.62 0 0 1 15 7.6c.26.1.48.25.66.45.17.2.29.44.34.7V9ZM6.51 11a1.5 1.5 0 1 1-.02 3 1.5 1.5 0 0 1 .02-3Z" fill="#00B5EF"/></svg>