<!-- by TradingView --><svg width="18" height="18" viewBox="0 0 18 18" xmlns="http://www.w3.org/2000/svg"><path fill="#797054" d="M0 0h18v18H0z"/><path d="M9.19 4c-1.34 0-2 .38-2.06.55.54-.05 1.01.26 1.16.42 1.02 1.06 3.08 3.02 3.45 3.42.46.5.92 1.01 1.23 1.01.7 0 1.03-.92 1.03-1.2C14 5.81 11 4 9.19 4Z" fill="#fff"/><path d="M5.55 9.2 8.7 5.96C8.33 5.5 7.39 4.6 6.76 4.6 5.2 4.6 4 7.8 4 8.15c0 .1.01.2.03.28.04.17.16.3.28.43l.34.35c.25.26.65.25.9 0ZM8 10h2v2H8z" fill="#fff"/><path d="M6 9.7V13c-1.9-1.25-2-2.85-2-3.28 0-.36.07-.7.11-.81l.2.4c.1.25.36.39.64.39H6ZM12 9.7V13c1.9-1.25 2-2.85 2-3.28 0-.36-.07-.7-.11-.81l-.2.4a.7.7 0 0 1-.64.39H12Z" fill="#fff"/></svg>