<!-- by TradingView --><svg width="18" height="18" viewBox="0 0 18 18" xmlns="http://www.w3.org/2000/svg"><path fill="#F0F3FA" d="M0 0h18v18H0z"/><path d="M4.77 4.85 9 3l4.23 1.85L15 9.09l-1.77 4.19L9 15l-4.23-1.72L3 9.09l1.77-4.24Z" fill="url(#a)"/><path d="M13.3 5H4.7l.07-.15L9 3l4.23 1.85.06.15Z" fill="url(#b)"/><path d="m5 4.75-.23.1L3 9.09l1.77 4.19.23.1V4.74Z" fill="#639512"/><path d="m4.97 13.36-.15-.06V4.83l.21-.1 1.25 2.33-1.31 6.3Z" fill="url(#c)"/><path d="m5.29 13.49-.32-.13 1.31-6.3 4.85-.9-5.84 7.33Z" fill="url(#d)"/><path d="M13.24 4.86 15 9.1l-1.77 4.19L9 15h-.02l2.69-2.7.72-1.36.85-6.08Z" fill="url(#e)"/><path d="m8.98 15-.18-.08.33-.87 1.43-5.01 2.56-4.24.11.05v.01l-.85 6.08-.71 1.36L8.98 15Z" fill="#497D09"/><path d="m9 15-.1-.04-1.98-3.48 3.72-5.04-4.33.67L4.74 5h8.55L9 15Z" fill="#fff"/><path d="m4.86 13.31-.1-.03-.72-1.74L14.96 9l.04.09-1.4 3.32-8.74.9Z" fill="url(#f)"/><path fill-rule="evenodd" d="m6.06 11.42-.1 1.38h.27l.05-.69.31.65.36-.06-.24-.5a.58.58 0 0 0 .29-.6c-.05-.43-.51-.32-.94-.18Zm.26.28v.25c.13.01.38-.01.37-.19-.01-.18-.25-.12-.37-.06ZM7.64 12.64c.35.09.73-.22.85-.69.11-.47-.08-.92-.43-1-.35-.1-.73.21-.85.68-.11.47.08.92.43 1Zm.08-.4c.17.04.36-.13.42-.37.06-.25-.03-.49-.2-.53-.17-.05-.36.12-.43.37-.06.25.03.48.2.52Z" fill="#fff"/><path d="m8.57 12.46.64-1.74.47-.1.52 1.66-.49.07-.1-.33-.48.08-.12.31-.44.05Zm.69-.7.26-.05-.1-.38-.16.42Z" fill="#fff"/><path fill-rule="evenodd" d="m10.62 10.39-.05 1.86 1.04-.14c.32-.08.92-.45.8-1.26-.13-.98-1.04-.7-1.7-.49l-.1.03Zm.53.32v1c.24 0 .73-.14.71-.68-.02-.55-.48-.44-.71-.32Z" fill="#fff"/><defs><linearGradient id="a" x1="5.58" y1="13.3" x2="8.57" y2="14.99" gradientUnits="userSpaceOnUse"><stop stop-color="#316800"/><stop offset="1" stop-color="#89B430"/></linearGradient><linearGradient id="b" x1="4.71" y1="4" x2="13.29" y2="4" gradientUnits="userSpaceOnUse"><stop stop-color="#5A8E13"/><stop offset="1" stop-color="#75A424"/></linearGradient><linearGradient id="c" x1="5.55" y1="4.73" x2="5.55" y2="13.36" gradientUnits="userSpaceOnUse"><stop stop-color="#87B334"/><stop offset="1" stop-color="#50860C"/></linearGradient><linearGradient id="d" x1="9.87" y1="6.75" x2="5.24" y2="12.89" gradientUnits="userSpaceOnUse"><stop stop-color="#2D6300"/><stop offset="1" stop-color="#84B133"/></linearGradient><linearGradient id="e" x1="11.99" y1="4.86" x2="11.99" y2="15" gradientUnits="userSpaceOnUse"><stop stop-color="#336C00"/><stop offset="1" stop-color="#84B133"/></linearGradient><linearGradient id="f" x1="13.39" y1="10.75" x2="4.68" y2="12.44" gradientUnits="userSpaceOnUse"><stop stop-color="#2C6100"/><stop offset="1" stop-color="#A8C81D"/></linearGradient></defs></svg>