<!-- by TradingView --><svg width="18" height="18" viewBox="0 0 18 18" xmlns="http://www.w3.org/2000/svg"><path fill="#F0F3FA" d="M0 0h18v18H0z"/><path d="M10.18 6.08a1.43 1.43 0 0 1 .47-1.9 1.27 1.27 0 0 1 1.79.51l3.38 6.23c.37.66.15 1.51-.47 1.9-.63.38-1.43.15-1.79-.51l-3.38-6.23ZM7 8.1l-2.42 4.2c-.38.67-1.23.9-1.89.51a1.39 1.39 0 0 1-.5-1.9L5.77 4.7C6.03 4.24 6.5 4 7 4c.49-.01.97.24 1.23.7l3.58 6.22a1.38 1.38 0 1 1-2.4 1.39L7.01 8.09Z" fill="#28786B"/><circle cx="7" cy="12" r="1" fill="#28786B"/></svg>