<!-- by TradingView --><svg width="18" height="18" viewBox="0 0 18 18" xmlns="http://www.w3.org/2000/svg"><path fill="#F0F3FA" d="M0 0h18v18H0z"/><path d="M15.6 9.7c.14-.28.2-.58.2-.88 0-.96-.7-1.87-1.94-2.55a10.27 10.27 0 0 0-4.83-1.09c-1.9 0-3.6.42-4.83 1.1-1.23.67-2 1.58-2 2.54 0 .29.06.57.2.84h-.23A2.17 2.17 0 0 1 2 8.82C2 6.71 5.18 5 9.03 5S16 6.71 16 8.82c0 .34-.08.68-.24 1l-.15-.12Z" fill="#01529B"/><path fill="#EF3023" d="M8.68 6h.64v.31h-.64zM8.36 10.7h1.28v.3H8.36v-.3ZM8.3 6.5l-.3 4h2l-.3-4H8.3Z"/><path d="M15.71 10.14a4.9 4.9 0 0 1-2.48 2.05c-1.2.51-2.64.8-4.13.81-1.49.01-2.95-.25-4.16-.74a5.14 5.14 0 0 1-2.59-2.01l1-.19c.4.69 1.17 1.29 2.2 1.7 1.03.43 2.27.65 3.54.64a9.15 9.15 0 0 0 3.5-.7 4.16 4.16 0 0 0 2.1-1.73l1.02.17Z" fill="#01529B" fill-opacity=".5"/></svg>