<!-- by TradingView --><svg width="18" height="18" viewBox="0 0 18 18" xmlns="http://www.w3.org/2000/svg"><path fill="#F0F3FA" d="M0 0h18v18H0z"/><path fill-rule="evenodd" d="M10.29 8.34c.13-.35 1.06-1.32 1.6-1.86A3.86 3.86 0 0 0 5 8.78c0 1.36.73 2.55 1.83 3.22 1.43-.38 2.4-2.38 2.4-2.68 0-.25-.14-.5-.22-.59-.06-.16-.1-.5.23-.5s.7.53.83.79c.01-.07.07-.3.22-.68ZM9.5 7a.5.5 0 1 0 0-1 .5.5 0 0 0 0 1Z" fill="#3EE8F8"/><path d="M10.4 11.04h-.3V9.28c0-.7-.7-.89-.93-.9.14.14.28.44.28.79 0 1.33-1.45 2.4-2.31 2.81a.16.16 0 0 1-.2-.05.16.16 0 0 1 .06-.24 3.38 3.38 0 0 0 1.93-2.52c0-.3-.06-.48-.37-.48-.24 0-.51.11-.61.17-.04 0-.12-.04-.12-.13 0-.19.46-.75.7-1l-.08-.09-.19.18a.08.08 0 0 1-.12 0l-.24-.28a.08.08 0 0 1 .02-.12c.16-.09.43-.2.6-.2.27 0 .45.11.45.25 0 .11-.03.32-.04.41.45 0 .9.34 1.07.5.87-1.58 1.58-2.06 1.77-2.13.18.19.23.33.23.37a3.96 3.96 0 0 0-1.6 2.4v2.02Z" fill="#040999"/><path d="M4.68 11.52a5 5 0 0 0 1.4 1.54l.44-.6a4.26 4.26 0 1 1 5.65-6.3l.55-.5a5 5 0 0 0-8.04 5.86Zm9.23-1.56a5 5 0 0 0-.13-2.43l-.71.22a4.26 4.26 0 0 1-4.46 5.49l-.07.74a5 5 0 0 0 5.37-4.02Z" fill="#2B2B2A" fill-opacity=".4"/></svg>