<!-- by TradingView --><svg width="18" height="18" viewBox="0 0 18 18" xmlns="http://www.w3.org/2000/svg"><path fill="#F0F3FA" d="M0 0h18v18H0z"/><path d="M8.26 6.3c.07.08.1.07.1-.05V5.9c-.02-.68.03-1.17.13-1.49a.38.38 0 0 1 .23-.25c.1-.04.22-.02.32.04.15.1.22.26.21.47a168.32 168.32 0 0 0-.07 2.23.53.53 0 0 1-.25.03l-1.16-.1c-.12 0-.3-.2-.55-.58a6.24 6.24 0 0 1-.68-1.27c-.13-.37-.07-.67.18-.9.11-.1.21-.1.32.01.08.09.14.17.18.26l.82 1.62c.06.12.14.24.22.34ZM10.63 7.7c-.14.36-.33.62-.57.79-.06.03-.1.02-.11-.05a2.87 2.87 0 0 1-.04-1l.05-.18.03-.07c.04-.15.14-.23.29-.24a.4.4 0 0 1 .36.13c.1.13.1.34 0 .63Z" fill="#FF790B"/><path fill-rule="evenodd" d="M7.56 10.14a.26.26 0 0 0-.2.07c.08.18.17.35.29.5l.03.02c.33.11.59.18.8.2.28.01.6-.05.95-.18.23-.1.42-.25.54-.48a.77.77 0 0 0 .05-.72 1.32 1.32 0 0 0-.32-.46.92.92 0 0 0-.5-.24c-.1-.02-.1-.06-.02-.12l.3-.23c.32-.26.4-.59.23-1-.07-.16-.16-.26-.28-.3-.23-.06-.46-.1-.7-.09-.6 0-1.14.06-1.61.15-.27.05-.4.17-.4.34l.04.38a6.01 6.01 0 0 1 .72 1.43c.03-.07.06-.12.1-.13.3-.13.68-.21 1.12-.24.32-.02.6.03.85.14.33.16.48.4.45.72-.03.32-.2.55-.52.7-.25.12-.54.17-.89.16-.3-.01-.53-.08-.68-.2-.13-.11-.25-.25-.35-.42ZM8.8 7.38c-.38.05-.74.13-1.07.25-.3.1-.43.25-.41.44l.09.7c.01.06.05.1.11.1.85.05 1.52-.16 1.99-.64.12-.12.15-.3.1-.55-.06-.26-.33-.37-.8-.3Z" fill="#FBBC04"/><path d="M6.76 7.98a6.01 6.01 0 0 1 .72 1.43l.17.65c.01.02 0 .04-.02.04-.04 0-.06.02-.07.04a.26.26 0 0 0-.2.07c-.13-.09-.25-.2-.35-.33H7l.71 1.27a.1.1 0 0 1 0 .1c-.08.21-.24.32-.47.32l-.04-.01A6.78 6.78 0 0 1 5.98 9.9a.77.77 0 0 1-.1-.4c0-.15.04-.27.14-.36.1-.1.23-.11.36-.05.03.02.04.01.02-.02a3.56 3.56 0 0 1-.4-.72c-.14-.33-.07-.54.21-.64.22-.08.4.01.55.27Z" fill="#FF790B"/><path fill-rule="evenodd" d="M4 10.42c.1-.04.16 0 .15.12-.03.3-.06.55-.1.74-.04.16-.12.26-.24.3-.13.05-.25.02-.37-.1-.08-.08-.1-.23-.05-.44 0-.05 0-.08-.05-.1l-.2-.12c-.02-.02-.05-.01-.06.02-.08.23-.1.44-.06.62.05.2.17.36.36.46.19.1.37.1.55.03.18-.07.32-.2.41-.4.1-.2.15-.51.17-.94v-.08c0-.04.02-.05.05-.05.33.04.61.18.85.41.08.07.16.09.25.04a.37.37 0 0 0 .16-.15v-.05a92.52 92.52 0 0 1-.8-2.62c-.01-.04-.03-.05-.06-.04-.03 0-.06 0-.1.02a.7.7 0 0 0-.25.07.49.49 0 0 0-.2.3 8.58 8.58 0 0 0-.23 1.32c-.02.13-.07.2-.16.21-.19.03-.32.1-.4.2-.13.17-.2.36-.24.57 0 .08.02.13.1.15.05.02.12.02.18 0 .07-.02.1-.1.12-.23.01-.13.08-.22.2-.26H4Zm1.14-.32-.37-1.18c0-.03-.03-.04-.05-.01a3.4 3.4 0 0 0-.15 1c0 .04.02.07.06.08l.41.15c.03.01.06.02.08 0 .02 0 .02-.01.02-.04Z" fill="#FF2D34"/><path d="M10.72 8.8c0 .02-.02.02-.03 0l-.07-.08c-.04-.05-.08-.06-.13-.02l-.14.13c-.02.02-.02.04 0 .07l.27.31c.03.03.04.07.03.12-.05.24-.06.49 0 .75.05.3.16.52.32.66.01.02.02.04 0 .06l-.05.09c-.02.02-.01.04 0 .06l.17.1c.03.02.06.02.08 0 .14-.17.3-.17.49 0l.07.09c.04.06.08.1.11.12.18.12.37.13.56.03.02 0 .02-.02.02-.04a.32.32 0 0 0-.05-.18c-.04-.07-.09-.1-.15-.08-.11.03-.21-.03-.29-.16v-.05l.02-.01c.13-.16.23-.28.27-.37a1.75 1.75 0 0 0 .17-1.22 1.28 1.28 0 0 1 0-.57c.06-.2.03-.35-.1-.48a.74.74 0 0 0-.45-.21.76.76 0 0 0-.65.2 2.7 2.7 0 0 0-.47.68Zm.28.17c.09-.23.2-.42.35-.57.19-.2.37-.27.55-.2.17.08.23.2.19.39a.62.62 0 0 1-.43.46c-.2.08-.42.08-.65.03-.03-.01-.04-.03-.03-.07l.02-.04Zm1.02 1.18a.58.58 0 0 1-.58.43c-.14 0-.25-.06-.35-.2a.78.78 0 0 1-.16-.39 2.77 2.77 0 0 1 0-.55c0-.03 0-.03.02-.03.47.1.82.04 1.05-.18.03-.02.04-.01.05.02.08.32.07.62-.03.9Z" fill="#4185F4"/><path d="M13.18 8.68c-.03.03-.05.02-.05-.02a.38.38 0 0 0-.05-.11c-.03-.04-.07-.06-.11-.04l-.18.07c-.03.01-.04.04-.02.07.05.13.11.25.17.36.03.06.03.1 0 .15-.12.23-.2.47-.22.73-.03.29.02.53.14.73v.05l-.08.07c-.03.02-.03.05 0 .08l.11.14c.03.04.06.04.1.02a.27.27 0 0 1 .33 0c.1.07.16.17.2.3a.5.5 0 0 0 .26.3c.12.06.24.09.37.07l.03-.03a.27.27 0 0 0 0-.2c-.03-.07-.07-.1-.13-.12-.13-.02-.2-.1-.25-.26 0-.02 0-.03.02-.04.56-.26.87-.77.94-1.54a1.08 1.08 0 0 1 .2-.45.36.36 0 0 0 .03-.28.54.54 0 0 0-.12-.25.96.96 0 0 0-.58-.33.85.85 0 0 0-.64.16c-.16.11-.32.23-.47.37Zm1.45.23c-.1.23-.3.35-.58.35-.23 0-.46-.08-.69-.22V9c.14-.2.32-.35.54-.47a.64.64 0 0 1 .41-.1c.15.02.26.1.33.26.03.07.03.14 0 .22Zm-1.41.44.02.01c.24.12.42.19.54.22a1 1 0 0 0 .56-.03c.02 0 .03 0 .03.02 0 .23-.06.46-.17.68-.14.27-.3.41-.5.42-.26 0-.45-.07-.56-.23-.16-.24-.14-.6.05-1.08 0-.01.01-.02.03-.01Z" fill="#33A853"/></svg>