<!-- by TradingView --><svg width="18" height="18" viewBox="0 0 18 18" xmlns="http://www.w3.org/2000/svg"><path fill="#F0F3FA" d="M0 0h18v18H0z"/><path d="m8.78 5.95-.01.03c0 .02 0 .03-.02.04a63.04 63.04 0 0 1-.93 1.54 7.7 7.7 0 0 0-1.47-.53V7L6.28 7v-.02l1.8-2.97L8.1 4h1.13l.02.01.06.1a1954.43 1954.43 0 0 1 3.86 6.72h-.01a3.92 3.92 0 0 0-1.24-1.18l-.08-.06a9.29 9.29 0 0 0-1.37-.75.27.27 0 0 1-.14-.13 3461.71 3461.71 0 0 0-1.55-2.76ZM4.67 7.23l-.15-.02c-.02 0-.02 0-.02-.02l.03-.01.4-.03a4.06 4.06 0 0 1 1.4.08c.43.11.83.25 1.2.4 1.1.47 2.08 1.11 2.98 1.93a11.57 11.57 0 0 1 2.76 3.9l-.22-.6a8.92 8.92 0 0 0-2.06-3.08A11.44 11.44 0 0 0 9.76 8.7a37.58 37.58 0 0 1 1.23.62c.29.15.57.34.85.54.48.36.87.78 1.16 1.27.3.5.54 1.1.7 1.81a14 14 0 0 1 .29 2.05 9.28 9.28 0 0 1-.37-.36c-.44-.43-1.1-1.02-2-1.78l-.25-.2a12.9 12.9 0 0 1-.77-.73c-.46-.46-.8-.98-1.04-1.58a8.45 8.45 0 0 0-.53-1 3.8 3.8 0 0 0-.71-.84c-.39-.33-.8-.58-1.27-.77a7.11 7.11 0 0 0-1.77-.43l-.2-.01a7.51 7.51 0 0 0-.5-.04 1.91 1.91 0 0 0 .09-.02Zm1.26.34L4 11h1.92c.1-.03.78-1.4.98-1.79l.05-.1a151.83 151.83 0 0 1 .55-.93c0-.02-.02-.04-.04-.05h-.01v-.01l-.01-.02a5.62 5.62 0 0 0-1.5-.53Z" fill="url(#aowb2poty)"/><defs><linearGradient id="aowb2poty" x1="9" y1="4" x2="9" y2="15" gradientUnits="userSpaceOnUse"><stop stop-color="#52DB31"/><stop offset=".75" stop-color="#1F650E"/></linearGradient></defs></svg>