<!-- by TradingView --><svg width="18" height="18" viewBox="0 0 18 18" xmlns="http://www.w3.org/2000/svg"><path fill="#F0F3FA" d="M0 0h18v18H0z"/><path fill-rule="evenodd" d="M9 12c3.87 0 7-.67 7-1.5S12.87 9 9 9s-7 .67-7 1.5S5.13 12 9 12Zm0-.1c3 0 5.48-.62 5.48-1.4 0-.78-2.48-1.4-5.48-1.4-3 0-5.48.62-5.48 1.4 0 .78 2.48 1.4 5.48 1.4Z" fill="#FBBA39"/><path d="M12.86 7h-.14l-.22.4c-.1-.14-.4-.4-.88-.4C10.6 7 10 8.2 10 9.05c0 .85.53 1.95 1.67 1.95.92 0 1.27-1.05 1.33-1.54h-.2c-.08.4-.43 1.29-1.13 1.29-.86 0-1.07-1.05-1.07-1.7 0-.66.17-1.85 1.02-1.85.68 0 1.02.9 1.1 1.34h.2L12.86 7ZM6.09 7h.01l.15.41 1.35 3.4H8V11h-.86L6 8.27 4.84 11H4v-.2h.39l1.35-3.4.15-.4h.2Z" fill="#EC3F48"/><path fill-rule="evenodd" d="M8.46 7.13 8 7V11h1.71a.9.9 0 0 0 .81-.96c0-.7-.56-1.03-.85-1.1.29-.1.73-.4.73-.96 0-.63-.51-.83-.76-.85H8.46Zm.17.12v1.64h.69c.18-.06.56-.32.56-.88s-.35-.74-.52-.76h-.73Zm0 1.76v1.86h.8c.18-.03.46-.23.46-.86 0-.64-.3-.93-.5-1h-.76Z" fill="#EC3F48"/></svg>