<!-- by TradingView --><svg width="18" height="18" viewBox="0 0 18 18" xmlns="http://www.w3.org/2000/svg"><path fill="#F0F3FA" d="M0 0h18v18H0z"/><path d="M15 8.72C15 9.77 13.7 10 12.84 10c-.39 0-.78-.05-1.16-.1-.33-.04-.68-.24-.68-.6 0-.22.15-.41.36-.5a.67.67 0 0 1 .27-.04c.19 0 .37.03.56.04l.64.07.63.02c.1 0 .18-.06.18-.16s-.08-.17-.18-.17a17.33 17.33 0 0 1-1.2-.08c-.7-.07-1.14-.52-1.14-1.19 0-1 1.15-1.29 2-1.29.34 0 .66.04.98.09.32.05.7.22.7.58 0 .31-.25.58-.58.58l-.3-.02c-.42-.05-.84-.09-1.26-.09-.1 0-.18.06-.18.16s.09.16.18.17a35.29 35.29 0 0 1 1.2.08c.7.06 1.14.48 1.14 1.17ZM7 9.45c0 .32-.27.55-.57.55a.57.57 0 0 1-.53-.33 4.99 4.99 0 0 1-.1-.2l-.02-.07H4.22l-.03.06-.1.2c-.1.22-.29.34-.52.34-.3 0-.57-.23-.57-.55 0-.08.02-.16.05-.23l1.24-2.8c.14-.28.4-.42.7-.42.3 0 .58.14.72.42l1.23 2.8c.04.06.06.14.06.23ZM5.34 8.42 5 7.56l-.33.86h.67Z"/><path d="M3 11.5c0-.28.2-.5.46-.5h11.08c.25 0 .46.22.46.5s-.2.5-.46.5H3.46c-.25 0-.46-.22-.46-.5Z" fill="url(#a)"/><path d="M11 8.81c0-.48-.26-.88-.67-1.07A1.05 1.05 0 0 0 9.54 6H7.61a.61.61 0 0 0-.61.6v2.8c0 .35.3.6.61.6h2.2c.6 0 1.19-.5 1.19-1.19ZM9.16 7c.14 0 .2.06.2.18 0 .13-.08.18-.2.18h-.53v.2c0 .54.41 1.08.91 1.08.1 0 .21.05.21.18s-.1.18-.2.18H8.21V7h.94Z"/><defs><linearGradient id="a" x1="39" y1="11.5" x2="3" y2="11.5" gradientUnits="userSpaceOnUse"><stop offset=".55" stop-color="#594D7F"/><stop offset="1" stop-color="#9F3B5D"/></linearGradient></defs></svg>