<!-- by TradingView --><svg width="18" height="18" viewBox="0 0 18 18" xmlns="http://www.w3.org/2000/svg"><path fill="#F0F3FA" d="M0 0h18v18H0z"/><path d="M9.77 5.41c-.1.02-.2.2-.23.24-.96 1.6-2.2 3.87-3.98 6.82a1.1 1.1 0 0 1-.89.52c-.33 0-.67-.14-.67-.47 0-.09.02-.19.04-.28.14-.5.51-.99.77-1.45C6 8.76 7.27 6.67 8.66 4.52c.15-.25.46-.54.8-.52.46.02 1 .81 1 .81s1.2 1.99 1.94 3.14c.07.1.1.24.1.37 0 .3-.34.67-.67.68h-1.4c-.2 0-.43.07-.43.27 0 .14.1.35.26.35h1.94c1.4-.01 1.81.6 1.8 1.73 0 .35-.02.69-.14 1.02-.15.45-.66.63-1.15.63h-6c-.4 0-.71-.16-.71-.53 0-.52.52-.47 1.05-.47H12c.27 0 .4-.48.39-.69-.01-.24-.15-.31-.45-.31h-2.6C8.47 10.98 8 10 8 9.34c0-.9.85-1.71 1.84-1.73l.86-.01c.12 0 .32-.01.3-.14a.5.5 0 0 0-.06-.17c-.48-.87-.9-1.6-1.03-1.8-.03-.04-.08-.09-.14-.08Z" fill="#333D46"/></svg>