<!-- by TradingView --><svg width="18" height="18" viewBox="0 0 18 18" xmlns="http://www.w3.org/2000/svg"><path fill="#162A4F" d="M0 0h18v18H0z"/><path fill-rule="evenodd" d="m14 10.35.06-.1c.24-.4.65-.82.65-1.25 0-.43-.4-.85-.65-1.25l-.06-.1V6h-1.4l-.07-.04c-.96-.5-2.19-.63-3.53-.63-1.34 0-2.57.13-3.53.63L5.4 6H4v1.68l-.06.1c-.23.4-.65.8-.65 1.22 0 .42.42.83.65 1.22l.06.1V12h1.36l.07.04c.97.5 2.21.63 3.57.63 1.36 0 2.6-.12 3.57-.63l.07-.04H14v-1.65Zm.29.13c.27-.46.71-.96.71-1.48s-.44-1.02-.71-1.48V5.67h-1.61A8.07 8.07 0 0 0 9 5c-1.39 0-2.66.14-3.68.67h-1.6v1.88C3.44 8 3 8.49 3 9s.45 1 .71 1.45v1.88h1.57C6.3 12.87 7.6 13 9 13c1.4 0 2.7-.13 3.72-.67h1.57v-1.85Z" fill="#FEFEFE"/><path d="M7.36 12H6l2.03-6h1.94L12 12h-1.38L9 7.16 7.36 12Zm-.1-2h3.26l.1 1H7.36l-.1-1Z" fill="#FEFEFE"/></svg>