<!-- by TradingView --><svg width="18" height="18" viewBox="0 0 18 18" xmlns="http://www.w3.org/2000/svg"><path fill="#F0F3FA" d="M0 0h18v18H0z"/><path d="M8.75 8.71c-3.27.39-4.69-.96-4.99-1.68.33.28 1.33.54 1.57.1.38-.7-.66-1.42-1.25-1.8A4.91 4.91 0 0 1 8.75 8.7Z" fill="#ECC60C"/><path d="M9 8.75C5.96 7.45 5.4 5.57 5.5 4.8c.14.4.88 1.13 1.31.87.68-.41.14-1.56-.18-2.19A4.93 4.93 0 0 1 9 8.75Z" fill="#E8AA0D"/><path d="M9 8.46C7.03 5.8 7.54 4.2 8 3.57 7.93 4 8.21 5 8.71 5c.78-.02.9-1.29.93-1.99A4.47 4.47 0 0 1 9 8.46Z" fill="#DF8F11"/><path d="M9.12 8.7c-.39-3.29 1.12-4.47 1.74-4.89-.28.33-.54 1.33-.1 1.57.69.39 1.42-.66 1.8-1.25-.2 3-2.34 4.24-3.44 4.56Z" fill="#E8AA0D"/><path d="M9.25 8.75c1.4-2.98 3.3-3.47 4.07-3.35-.41.13-1.17.84-.92 1.28.38.7 1.55.2 2.19-.1a4.9 4.9 0 0 1-5.34 2.17Z" fill="url(#ao35y33mp)"/><path d="M9.45 8.94c2.64-1.97 4.36-1.4 4.98-.92-.42-.08-1.42.2-1.41.7.01.8 1.28.9 1.98.94a4.6 4.6 0 0 1-5.55-.72Z" fill="url(#bo35y33mp)"/><path d="M9.45 9.26c3.27-.39 4.47.98 4.77 1.7-.32-.28-1.32-.54-1.57-.1-.38.7.66 1.42 1.25 1.8a4.62 4.62 0 0 1-4.45-3.4Z" fill="#6DB25C"/><path d="M9.17 9.32c3.03 1.3 3.39 3.1 3.29 3.87-.14-.4-.88-1.13-1.31-.87-.68.4-.14 1.56.18 2.19a4.63 4.63 0 0 1-2.16-5.19Z" fill="#45ABAB"/><path d="M9 9.43c1.96 2.65 1.39 4.37.91 5C10 14 9.71 13 9.21 13c-.78.02-.9 1.29-.93 1.99A4.64 4.64 0 0 1 9 9.43Z" fill="#4AB6E3"/><path d="M8.67 9.18c.38 3.28-.97 4.8-1.69 5.1.28-.32.54-1.33.1-1.57-.69-.38-1.42.66-1.8 1.25a5.09 5.09 0 0 1 3.39-4.78Z" fill="#389D9E"/><path d="M8.55 9.02c-2.64 1.97-4.36 1.39-4.98.91.42.09 1.42-.19 1.41-.7-.01-.78-1.28-.9-1.98-.93a4.6 4.6 0 0 1 5.55.72Z" fill="#C2D988"/><path d="M8.45 9.2c-1.3 3.03-3.15 3.42-3.92 3.32.4-.14 1.13-.88.87-1.31-.41-.68-1.56-.14-2.19.18A4.72 4.72 0 0 1 8.45 9.2Z" fill="#2D831C"/><path d="m8.64 7.93.31.3.27-.34.12.42.4-.16-.1.42.43.07-.3.31.34.27-.42.12.16.4-.42-.1-.07.43-.31-.3-.27.34-.12-.42-.4.16.1-.42-.43-.07.3-.31-.34-.27.42-.12-.16-.4.42.1.07-.43Z" fill="url(#co35y33mp)"/><defs><linearGradient id="ao35y33mp" x1="12.9" y1="6.26" x2="10.56" y2="7.95" gradientUnits="userSpaceOnUse"><stop stop-color="#C6A410"/><stop offset="1" stop-color="#EAC60F"/></linearGradient><linearGradient id="bo35y33mp" x1="13.48" y1="8.68" x2="10.92" y2="8.92" gradientUnits="userSpaceOnUse"><stop stop-color="#BCC100"/><stop offset="1" stop-color="#DAD700"/></linearGradient><linearGradient id="co35y33mp" x1="7.89" y1="8.25" x2="9" y2="10.11" gradientUnits="userSpaceOnUse"><stop stop-color="#DFE4EA"/><stop offset="1" stop-color="#4D647A"/></linearGradient></defs></svg>