<!-- by TradingView --><svg width="18" height="18" viewBox="0 0 18 18" xmlns="http://www.w3.org/2000/svg"><path fill="#F0F3FA" d="M0 0h18v18H0z"/><path d="M10.96 8.74 9 6.01h.8l1.57 2.2L13 6h.8l-2 2.73L15 13h-.8l-2.82-3.74L9.8 11H9l1.96-2.26Z" fill="#3AB0E6"/><path d="M3.86 11a2.92 2.92 0 0 1 2.07-5c.8 0 1.54.33 2.07.86L6.48 8.38a1.46 1.46 0 0 0-2.5 1.04c0 .4.16.77.43 1.03l-.55.55Z" fill="#1E3760"/><path d="M8.14 7a2.92 2.92 0 0 1-2.07 5c-.8 0-1.54-.33-2.07-.86l1.52-1.52a1.46 1.46 0 0 0 2.5-1.04c0-.4-.16-.77-.43-1.03L8.14 7Z" fill="#35B6E7"/></svg>