<!-- by TradingView --><svg width="18" height="18" viewBox="0 0 18 18" xmlns="http://www.w3.org/2000/svg"><path fill="#F0F3FA" d="M0 0h18v18H0z"/><path d="M11.96 6.27c-.13.19-.56.13-.96-.12-.4-.25-.62-.61-.5-.8.14-.2.57-.14.97.11s.62.61.5.8Z" fill="#97B150"/><path d="M8.51 6.28c-.28.11-.73.07-1.15-.13-.54-.26-.81-.68-.6-.95.2-.26.8-.27 1.34 0 .47.22.74.57.66.83l.63.38c.28-.12.73-.08 1.15.12.53.26.8.66.62.93l1 .6c.35-.13.94.07 1.38.46.48.42.6.92.28 1.1-.32.2-.97 0-1.45-.42-.35-.31-.5-.66-.45-.9l-1.09-.64c-.28.06-.67 0-1.03-.17-.48-.22-.74-.58-.66-.84l-.63-.37Z" fill="#71A552"/><ellipse cx="8.08" cy="9.36" rx="1.39" ry="1.34" fill="#449856"/><path d="M12.9 13.9c-.7.33-1.66-.22-2.17-1.22-.5-1-.35-2.07.34-2.4.7-.32 1.66.23 2.17 1.23.5 1 .35 2.07-.34 2.4Z" fill="#97B150"/><path d="M6.8 6.5c.1.64-.69 1.27-1.74 1.4-1.05.13-1.97-.29-2.05-.93-.09-.64.7-1.27 1.74-1.4 1.05-.13 1.97.29 2.06.93Z" fill="#449856"/></svg>