<!-- by TradingView --><svg width="18" height="18" fill="none" xmlns="http://www.w3.org/2000/svg"><path fill="#F0F3FA" d="M0 0h18v18H0z"/><path fill-rule="evenodd" clip-rule="evenodd" d="M8.048 3h2.33c.702.854 1.874 1 1.874 2.509C12.252 6 12.148 6.53 12 7c.239.328.356.58.508 1.102l.019.067-.04.058a1.102 1.102 0 0 1-.237.259c-.212.163-.307.252-.392.558-.205.74.546 1.405.632 2.126.039.33.024.72-.09 1.21l-.026.118c-.298-.01-.97-.271-1.257-.176-.051.017-.05.05-.117.112.11.118.194.208.358.283.416.19.915.247 1.289.523a.798.798 0 0 1 .34.602L13 14h-.5c-.36-.444-.74-.516-1.236-.738-.655-.294-.936-.803-1.13-1.277-.15-.365-.254-.85-.582-1.101C9.134 10.593 8.365 10 8.7 10c.107 0 .327.053.706.205.303.121.602.279.822.607.473.706.973.868 1.773 1.173 0-.485.008-.438 0-.601a2.011 2.011 0 0 0-.103-.524c-.129-.396-.519-.765-.609-1.174-.09-.41-.076-.71.06-.992.115-.24.396-.437.652-.694-1.196-1.43.283-1.593-.5-3.138-.275-.544-1.087-.89-1.5-1.324C8.511 3.436 6.72 3.195 6 6c0 .542-.004.689 0 1.5l.72.163c-.053.206-.24.477-.233.693.009.308.554.837.673 1.092.086.186.281.284.442.4.032.39.045.808-.123 1.172-.126.27-.322.432-.547.548-.441.228-.944.3-1.36.586.071.308.292.564.428.846v-.5c.532.447 1.342.654 1.156 1.5h-.307l-.44-.59L6 14c-.56-.405-.525-1.13-1-1.58v-.44c.553-.43 1.375-.518 1.87-.952a.453.453 0 0 0 .113-.161c.065-.144.112-.372.142-.763-.16-.049-.257-.098-.333-.258-.2-.42-.59-.801-.74-1.242A.954.954 0 0 1 6 8.32C5.992 8.059 6 8 6 8c-.08-.058-.316-.27-.358-.37-.334-.798-.272-1.932.13-2.87.403-.94 1.169-1.725 2.272-1.76h.004Z" fill="#234C2D"/></svg>