<!-- by TradingView --><svg width="18" height="18" viewBox="0 0 18 18" xmlns="http://www.w3.org/2000/svg"><path fill="#F0F3FA" d="M0 0h18v18H0z"/><path d="M9.19 6c-.08.02-.11.06-.1.09a833.43 833.43 0 0 1 2.5 4.3.05.05 0 0 0 .08-.02c.47-1 .44-2.1-.19-3.01A3.88 3.88 0 0 0 9.78 6h6.16c.06 0 .08.04.04.1l-3.42 5.84c-.02.03-.03.03-.05 0l-.85-1.47c-.02-.03-.04-.03-.06 0-.35.56-.81.98-1.39 1.25a3.1 3.1 0 0 1-1.08.24c-.57.05-1.43.04-2.06.04l1.68-.07a.09.09 0 0 0 .07-.04.09.09 0 0 0 0-.09L7.1 9.28a.05.05 0 0 0-.1.03v2.62c0 .02.01.03.03.04l.04.03H2.05c-.05 0-.06-.04-.04-.08l3.43-5.86a.04.04 0 0 1 .03-.02.04.04 0 0 1 .04.02l1.48 3.02.01-.04V6.06c0-.03.03-.06.06-.06H9.2Z" fill="#F39800"/><path d="M9.19 6h.58c.75.32 1.32.78 1.71 1.36a2.97 2.97 0 0 1 .17 3.03.05.05 0 0 1-.05 0c-.01 0-.02 0-.02-.02A836.4 836.4 0 0 0 9.1 6.1c-.02-.03 0-.07.09-.09ZM7.12 12h-.06c-.05-.02-.06-.05-.06-.07V9.25l.04-.02h.04c.02 0 .03.01.03.02l1.82 2.72-.18.01-1.63.02Z" fill="#F08200"/></svg>