<!-- by TradingView --><svg width="18" height="18" viewBox="0 0 18 18" xmlns="http://www.w3.org/2000/svg"><path fill="#F0F3FA" d="M0 0h18v18H0z"/><path d="M14.04 6.8c-.03.04-.08.06-.16.07h-.03c-.02.01-.02.02-.02.03.02.02.02.04 0 .06-.05.04-.05.09-.02.14l-.01.03c-.05 0-.1 0-.14.02-.04 0-.04.02 0 .02l.24.02-.57.01h-.03c-.02.01-.03.02-.02.03v.05c-.1.1-.13.3-.1.61 0 .04 0 .09-.02.13l-.04.22c0 .04 0 .07.02.1.06.1.17.15.33.16l.16.01c-.18.03-.29.14-.31.34a298.09 298.09 0 0 0-1.11 0c-.1 0-.2.02-.29.03a.5.5 0 0 1-.17-.01.45.45 0 0 0-.18-.01c-.12.02-.25.02-.36 0a4.71 4.71 0 0 0-.9-.01c-.07.06-.19.07-.36.02h-.01a1.68 1.68 0 0 0-.45-.03h-.15l-.44.02c-.16.01-.32 0-.49-.01.12.03.18 0 .2-.09a.7.7 0 0 0-.04-.31l.01-.07c.02-.02.01-.05-.01-.06-.03-.03-.08-.04-.15-.03h-.03c.16-.02.34-.01.54.04.04.01.04.03.02.06a.05.05 0 0 0 0 .05c0 .03.02.04.04.05l.2.04c.11.02.19-.03.23-.16.02-.07 0-.15-.09-.24a.62.62 0 0 1-.1-.15 14.44 14.44 0 0 0-.43-.77l-.12-.02c0-.04 0-.06-.02-.06-.05-.02-.05-.03 0-.06.06-.04.1-.12.08-.23 0-.02 0-.03.03-.03a1.6 1.6 0 0 0 .32 0 2.3 2.3 0 0 0-.28-.02c0-.02 0-.02-.02-.02h-.01l-.02.01c0-.03 0-.06.03-.1l.13-.13c.02-.02.03-.02.05 0l.24.25a1.34 1.34 0 0 0 .3 0c.07.01.12 0 .16-.02 0 .03.01.04.06.02h.43l.34.01c.02 0 .03 0 .02-.03L8.97 4.14c-.02-.03-.03-.03-.05 0l-.22.35-1.42 2.3c-.02.01-.01.02.01.02h.22v.07c.02.02.02.04 0 .06a.08.08 0 0 0 0 .05c0 .02 0 .03.02.04l.07.04c.02 0 .03.02.01.05v.03c0 .02 0 .04.03.04h.27a.1.1 0 0 1 .1.07c.02.04.01.07 0 .11-.16.28-.3.57-.46.89a.8.8 0 0 0-.07.29v.3l-.55.01-.04-.01-.02-.01a8.6 8.6 0 0 0-.73.02v-.07a.07.07 0 0 0-.04-.05c-.02 0-.03-.02-.03-.04-.01-.13-.07-.19-.17-.17a.3.3 0 0 1-.15-.02c.13 0 .25-.03.37-.07.15-.04.25-.12.3-.22.08-.12.1-.27.1-.43a.4.4 0 0 0-.12-.3v-.02l-.01-.02-.01-.05a.87.87 0 0 0-.44-.22c-.06-.06-.15-.08-.28-.06V7.1c-.02-.01-.02-.02 0-.03.03 0 .04 0 .05-.03.02-.03.01-.05-.02-.06l-.13-.02a.05.05 0 0 1-.04-.04.2.2 0 0 1-.01-.11h1.65c.02 0 .03-.01.03-.03l1.6-2.71A.13.13 0 0 1 8.9 4c.05 0 .09.02.12.07l1.57 2.69a.1.1 0 0 0 .09.05h3.36Z" fill="#1D1E22"/><path d="M10.16 6.8a.77.77 0 0 0-.2-.26H9.9l-.14.14a.08.08 0 0 0-.02.05v.07c-.05.02-.08.01-.07-.02a.68.68 0 0 0-.2-.22c-.02-.02-.03-.02-.05 0a.8.8 0 0 0-.21.24l-.24-.25c-.02-.02-.03-.02-.05 0l-.13.14-.03-.01v-.05l.14-.17c.02-.02.02-.04 0-.06a.85.85 0 0 0-.2-.2c-.04 0-.05-.02-.03-.05.02-.03.05-.03.08 0l.16.16c.03.03.06.03.09 0l.14-.15c.03-.03.03-.07 0-.1l-.15-.17c-.02-.02-.04-.02-.06 0l-.08.07h-.03V5.9l.07-.09a.04.04 0 0 0 .01-.05.46.46 0 0 0-.24-.23s0-.02-.02-.03l.05-.05h.02l.2.2c.03.03.05.03.08 0l.15-.16c.03-.03.03-.06 0-.09l-.11-.1v-.05l.04-.01.08.08c.02.03.04.03.06.01a.34.34 0 0 0 .1-.09.07.07 0 0 0 0-.08l-.13-.23c0-.02-.01-.05-.06-.09l-.13-.24c-.01-.02-.03-.03-.05-.02-.03 0-.06.04-.08.09a1.5 1.5 0 0 1-.05-.04.14.14 0 0 1-.04-.05.62.62 0 0 0-.06-.09l.2-.35c.03-.03.05-.03.06 0l1.55 2.64c.01.02 0 .03-.02.03h-.34Z" fill="#D3D3D6"/><path d="m8.7 4.5.07.08c0 .03.02.04.04.05l.05.04-.08.15.01.04.12.12h.05l.15-.14c.05.04.07.07.07.09a.56.56 0 0 0-.18.16c-.02.01-.02.03 0 .05l.06.1h-.03v.05c-.05-.06-.1-.07-.13-.03a142.28 142.28 0 0 1-.22.2.43.43 0 0 0-.16-.17c-.02 0-.03 0-.05.02l-.1.22a.05.05 0 0 0 0 .06c.03.03.06.05.1.05l.05-.01.12-.13c.02.01.02.02.02.03l-.15.2c-.02.03-.02.05 0 .07l.15.16c.01.01.03.02.04.01a.21.21 0 0 0 .11-.07v.05l.04.01c-.08.07-.11.13-.1.19-.03-.03-.06-.03-.09 0a.4.4 0 0 0-.2-.25h-.04l-.16.18c-.02.02-.02.04 0 .06l.17.17c.01.02.03.02.05.01.07-.04.13-.1.18-.17-.01.03 0 .04.03.04l-.2.21c-.02.02-.02.04 0 .06l.18.18c.02.02.03.02.05.01l.04-.02v.05h.03a.14.14 0 0 0-.03.1c-.02.03-.05.04-.07.03-.02 0-.03-.01-.03-.03a.1.1 0 0 0-.03-.08l-.15-.15c-.02-.02-.04-.02-.05 0l-.15.15a.13.13 0 0 0-.04.07c-.02.09-.04.09-.07 0a.16.16 0 0 0-.08-.1c-.03-.06-.07-.1-.12-.12-.02 0-.03 0-.05.02l-.11.14c-.06.06-.16.1-.3.1H7.3c-.02 0-.03 0-.01-.03L8.7 4.5Z" fill="#A4A3A3"/><path d="m9.12 4.84-.15.14h-.05l-.13-.12c-.01-.01-.02-.03 0-.04l.07-.15c.02-.05.05-.08.08-.09.02 0 .04 0 .05.02l.13.24ZM8.9 5.13l-.19.22c-.01.02-.02.02-.04 0l-.11-.12v-.04l.14-.26c.01-.02.03-.02.04 0l.16.16c.02.02.02.03 0 .04Z" fill="#525251"/><path d="m9.18 4.93.13.23v.08a.34.34 0 0 1-.1.1c-.02 0-.04 0-.06-.02l-.08-.08-.07-.1v-.05a.56.56 0 0 1 .18-.16ZM9.03 5.3l.11.1c.03.03.03.06 0 .09L9 5.65c-.03.03-.05.03-.08 0l-.2-.2.2-.2c.03-.03.07-.02.12.04ZM8.68 5.46l-.04.04-.12.13a.06.06 0 0 1-.05.01.13.13 0 0 1-.1-.05.05.05 0 0 1 0-.06l.1-.22c.02-.02.03-.03.05-.02.07.04.12.1.16.17Z" fill="#38383A"/><path d="M9.48 5.67a.04.04 0 0 0-.04 0H9.4l-.19-.2v-.03l.14-.15h.02a9.91 9.91 0 0 1 .35.66c0 .02-.02.02-.03.03-.02 0-.04 0-.06-.02l-.16-.16a.05.05 0 0 1-.01-.06l.01-.02c.02-.02.01-.03 0-.05Z" fill="#525251"/><path d="M8.66 5.53c.1.05.19.13.24.23v.05l-.09.1a.21.21 0 0 1-.1.06l-.05-.01-.15-.16c-.02-.02-.02-.05 0-.07l.15-.2Z" fill="#38383A"/><path d="m9.16 5.56-.18.18a.05.05 0 0 0 0 .07l.17.18c.02.02.05.02.07 0l.17-.18a.05.05 0 0 0 0-.07l-.17-.18a.04.04 0 0 0-.06 0Z" fill="#525251"/><path d="M8.13 6.01 8.1 6l.18-.3c.01-.03.03-.03.06-.01a.2.2 0 0 1 .06.08c0 .03 0 .05-.02.06-.09.05-.16.1-.24.13-.02.01-.02.03-.01.06ZM8.75 6.15c-.01-.06.02-.12.1-.19l.08-.07c.02-.02.04-.02.06 0l.15.16c.03.04.03.08 0 .11L9 6.31c-.03.03-.06.03-.1 0l-.15-.16ZM9.65 6.08l-.19-.2a.03.03 0 0 0-.05 0l-.18.2a.04.04 0 0 0 0 .05l.2.2h.04l.18-.2a.04.04 0 0 0 0-.05Z" fill="#38383A"/><path d="M8.66 6.15a.65.65 0 0 1-.18.17h-.05l-.17-.18c-.02-.02-.02-.04 0-.06l.16-.18h.04c.1.05.17.14.2.25ZM8.1 6l.03.01.04.07v.05c-.06.07-.12.14-.2.2a.12.12 0 0 0-.03.04l-.03.06-.02-.04.2-.4Z" fill="#525251"/><path d="m9.97 6.33-.01.02a1.75 1.75 0 0 0-.18-.17c-.05-.03-.06-.08-.05-.13 0-.02.02-.03.04-.03s.04 0 .05.02l.15.29ZM8.7 6.2c.08.05.15.12.2.2.02.02.02.04 0 .06l-.14.17-.04.02h-.05l-.17-.19c-.02-.02-.02-.04 0-.06l.2-.2ZM9.16 6.22l-.18.18a.05.05 0 0 0 0 .06l.17.19h.06l.18-.18a.05.05 0 0 0 0-.07l-.17-.18a.04.04 0 0 0-.06 0ZM9.87 6.37l-.16-.16a.06.06 0 0 0-.08 0l-.15.16a.06.06 0 0 0 0 .1l.16.15c.02.03.06.03.08 0l.15-.16a.06.06 0 0 0 0-.09Z" fill="#38383A"/><path d="M8.17 6.22 8 6.4a.05.05 0 0 0 0 .08l.17.18c.02.02.05.02.07 0l.16-.17a.05.05 0 0 0 0-.08l-.16-.17a.05.05 0 0 0-.07 0Z" fill="#525251"/><path d="M8.76 6.78h.02c0-.01.01-.02.02-.01v.02h.01a2.3 2.3 0 0 1 .28.01c-.1.02-.21.02-.32 0-.02 0-.03.02-.03.04.02.11-.01.19-.09.23-.04.03-.03.04.01.06.02 0 .03.02.02.06H8.5a.05.05 0 0 0-.04.03l-.6 1.1c-.04.08-.02.13.05.15.1.04.2.05.31.02.06 0 .1-.05.12-.1 0-.03.03-.06.06-.1h.03c.07-.01.12 0 .15.03.02.01.03.04.01.06a.08.08 0 0 0 0 .07.7.7 0 0 1 .03.31c-.02.1-.08.12-.2.09h-.94v-.3c.01-.1.04-.2.08-.29.15-.32.3-.61.46-.89a.12.12 0 0 0 0-.11.1.1 0 0 0-.1-.06l-.27-.01c-.03 0-.04-.02-.03-.04v-.03c.02-.03.01-.04 0-.05l-.08-.04a.04.04 0 0 1-.03-.04c0-.02 0-.04.02-.05a.05.05 0 0 0 0-.06.09.09 0 0 1 0-.07c.13 0 .23-.04.3-.1.02.01.04 0 .07-.03a.07.07 0 0 1 .05-.02c.04 0 .1 0 .16.02.03.02.06.05.07.1.03.08.05.08.07 0 0-.03.02-.06.04-.08l.15-.15c.02-.02.03-.02.05 0l.16.15a.1.1 0 0 1 .02.08c0 .02.01.03.03.03.03 0 .05 0 .07-.03ZM10.16 6.8h-.43v-.07c0-.02.01-.04.03-.05l.14-.14h.05c.1.07.16.16.21.26Z" fill="#38383A"/><path d="M8.1 6.68a.43.43 0 0 0-.16-.02.07.07 0 0 0-.05.02c-.03.03-.06.04-.08.03l.11-.14c.02-.02.03-.02.05-.02.04.02.08.06.12.13Z" fill="#161616"/><path d="M9.67 6.78a.28.28 0 0 1-.17.03h-.29a.8.8 0 0 1 .2-.25c.03-.02.04-.02.06 0 .08.06.15.13.2.22ZM5.5 6.8c0 .05 0 .09.02.12 0 .02.02.03.04.04l.13.02c.03.01.04.03.02.06a.06.06 0 0 1-.05.03c-.02 0-.02.02 0 .03v.01c.13-.01.22 0 .28.07h-.69c-.1 0-.16.06-.16.17v1.06c0 .05.03.08.08.08l.58.02c.05.02.1.02.15.02.1-.02.16.04.17.17 0 .02.01.03.03.04.02.01.03.03.03.05l.01.06c-.7.02-1.4.01-2.1-.01-.12 0-.26 0-.43.04-.1.01-.3 0-.6-.06L3 6.83c0-.01 0-.02.03-.02H5.5ZM14.05 6.8l.84.01v2.02c0 .03-.02.05-.05.05l-1.52-.03c.02-.2.13-.3.3-.34.2 0 .4 0 .6-.02a.3.3 0 0 0 .16-.06c.04-.03.07-.09.08-.17a1.06 1.06 0 0 0-.05-.59h.01c.02 0 .03 0 .03-.02.03-.21-.02-.35-.13-.41a.95.95 0 0 0-.42-.05l-.23-.02c-.05 0-.05-.01 0-.02a.55.55 0 0 1 .13-.02c.02 0 .02-.01 0-.03-.02-.05-.02-.1.03-.14.02-.02.02-.04 0-.06 0-.01 0-.02.02-.03h.03c.08 0 .13-.03.17-.06Z" fill="#38383A"/><path d="m14.9 6.81.08.09.02.05v2c0 .03-.01.04-.03.04h-3.05c-.02 0-.02 0-.01.03l1.74 2.96c.02.04 0 .1-.03.18-.02 0-.04-.02-.05-.08 0-.02-.02-.03-.04-.03a9.05 9.05 0 0 0-1.1-.05c-.05 0-.06-.02-.03-.05a.08.08 0 0 0 .02-.08.12.12 0 0 0-.03-.05c-.03-.03-.03-.05-.02-.08l.13-.19c.01-.02.03-.03.05-.02a.1.1 0 0 0 .09-.02c.06-.04.11-.02.15.05l.03.03a.2.2 0 0 0 .13.01c.01 0 .02 0 .02-.02.01-.07 0-.11-.06-.14a.04.04 0 0 1-.02-.04c0-.02-.01-.04-.03-.05l-.05.01a.05.05 0 0 1-.04.02c-.05 0-.1 0-.14.02-.02 0-.03 0-.03-.03s.01-.06.04-.07l.04-.01c.08 0 .11-.04.1-.13-.02-.08-.06-.11-.13-.1-.04 0-.08-.01-.1-.05-.06-.06-.07-.11-.03-.15a.06.06 0 0 0 .03-.05.15.15 0 0 0-.03-.07.06.06 0 0 0-.05-.03h-.18c-.01 0-.03 0-.04-.02a.05.05 0 0 0-.06-.02c-.03 0-.03 0 0-.02a.06.06 0 0 1 .05-.01c.06-.02.1-.06.13-.12a.1.1 0 0 0-.01-.1.1.1 0 0 0-.1-.05c-.04 0-.08 0-.12-.03a.05.05 0 0 0-.05 0l-.03.02c-.03.01-.04 0-.03-.03.04-.1.1-.14.18-.1.03.01.05 0 .05-.04 0-.06-.02-.08-.07-.08-.02 0-.03 0-.01-.02a.2.2 0 0 0 .03-.17.06.06 0 0 0-.02-.04c-.04-.02-.05-.06-.03-.1v-.05c-.02-.04-.04-.05-.07-.04-.02 0-.02 0-.01-.02a.19.19 0 0 0 .02-.2 1.54 1.54 0 0 0-.22-.36.1.1 0 0 1-.02-.06v-.03c0-.02-.01-.03-.04-.03a19.55 19.55 0 0 0-.82 0 .3.3 0 0 0-.15-.01 1.01 1.01 0 0 1-.36.03c-.04-.03-.08-.03-.15-.01-.02 0-.02.02-.01.04l.01.01c.03.01.03.03.02.05l-.05.07a.3.3 0 0 0-.04-.14.04.04 0 0 0-.04-.02A.5.5 0 0 1 10 9h-.12c-.04.02-.04.03 0 .05.03.02.04.04.03.06l-.01.02h-.03c-.16-.08-.3-.12-.4-.12H8.45c-.09 0-.2.03-.36.08L8 9.11l.01-.04c.03-.01.04-.02.05-.04.02-.01.02-.02 0-.03a.22.22 0 0 0-.18.01L6.06 9H6a.05.05 0 0 0-.05.03l-.62 1.07c-.15.22-.27.42-.34.62a.44.44 0 0 1-.12.18.1.1 0 0 0-.03.05.6.6 0 0 1-.03.08c-.05.09-.04.1.04.04.06-.05.12-.1.18-.13a.05.05 0 0 1 .05-.01c.03.01.05.03.04.07 0 .02 0 .04-.02.05a.31.31 0 0 0-.06.1v.05c0 .06 0 .1-.05.14a289.92 289.92 0 0 0-.22.44l.04.06.02.04c0 .03.01.04.04.04a.4.4 0 0 1 .07.09c0 .01.02.03.04.03.03 0 .06.02.08.05.02 0 .02.03.02.05 0 .02-.01.03-.03.05a.1.1 0 0 1-.08.02.9.9 0 0 0-.47.05.18.18 0 0 1-.11.01.47.47 0 0 1-.1-.03l-.13-.14a.06.06 0 0 1-.02-.05c0-.05.02-.1.05-.14L5.9 9.03c0-.03 0-.04-.02-.04H3.12c-.09 0-.13-.06-.12-.17.3.05.51.07.6.06.18-.03.32-.05.44-.04a38.29 38.29 0 0 0 2.85 0c.01.02.03.02.04.02h.54l.95-.01c.16.02.32.02.48.01a18.68 18.68 0 0 1 .59-.02c.21 0 .36 0 .45.02l.02.01c.16.05.28.04.35-.02a4.71 4.71 0 0 1 .9.02c.12.01.24.01.36-.01h.18c.06.02.11.02.17.02l.29-.04.28-.01.83.02 1.52.03c.03 0 .04-.02.04-.05l.01-2.02Z" fill="#161616"/><path d="M5.94 7.18c.16.03.3.1.44.22l.01.05v.02l.01.02a.4.4 0 0 1 .13.3c0 .16-.03.3-.1.43-.06.1-.16.18-.31.22-.12.04-.24.06-.37.07l-.58-.02c-.05 0-.08-.03-.08-.08V7.35c0-.1.05-.17.16-.17h.69ZM10.32 7.58c.02 0 .04 0 .05.03.02.05.05.09.1.11.02.01.03 0 .03-.02v-.27l.01-.06a.14.14 0 0 0 0-.12c-.01-.04 0-.06.04-.07h.26c.09.01.15.02.2.01h1.01l.4-.01c.15-.02.28-.01.4.02.1.03.14.1.09.21l-.01.05a11.25 11.25 0 0 1-.02.84l-.02.04v.02c.02.06.01.11-.01.17l-.03.02-.08-.01c-.02 0-.02-.02 0-.03v-.02h-.01a.56.56 0 0 0-.28.02c-.03 0-.05 0-.05-.04l-.01-.74c0-.05-.02-.07-.06-.07l-.35-.02c-.05 0-.08.03-.08.09v.7c0 .03-.01.05-.05.05l-.31.03c-.06.01-.1-.02-.1-.08a7.49 7.49 0 0 1-.04-.8h-.44a20.16 20.16 0 0 0-.02.64c0 .08 0 .15-.03.21 0 .02-.02.03-.03.03-.17.04-.33-.05-.47-.27a.22.22 0 0 0-.06-.07.1.1 0 0 1-.04-.06c0-.02-.02-.03-.04-.03h-.14c-.02 0-.04-.02-.05-.03a.13.13 0 0 1-.03-.05c-.02-.03-.03-.03-.04 0-.01.09-.03.17-.06.25v.05l.03.12c.03.08 0 .12-.08.12h-.22c-.08 0-.13-.05-.14-.14l-.03-.22a3.6 3.6 0 0 1 .01-.8c.01-.11.07-.16.18-.16l.05-.02c.04-.04.09-.04.14 0a5.9 5.9 0 0 1 .43.38ZM13.9 7.19c.21 0 .35 0 .42.05.12.06.16.2.13.4 0 .02-.01.03-.02.02l-.02.01v.02c.07.15.08.34.05.57 0 .08-.03.14-.08.17a.3.3 0 0 1-.16.06 4.92 4.92 0 0 1-.74 0c-.17 0-.28-.05-.34-.15a.16.16 0 0 1-.02-.1c0-.08.02-.15.04-.22a.34.34 0 0 0 .01-.13c-.02-.3.01-.51.1-.61.02-.02.02-.03.01-.05 0 0 0-.02.03-.02h.02l.57-.02ZM4.4 8.27c0 .02-.01.03-.03.03a33.51 33.51 0 0 0-.46.04.05.05 0 0 0-.02.06v.03a.13.13 0 0 0-.06.04.07.07 0 0 1-.06.03.89.89 0 0 0-.26-.01c-.06 0-.1-.03-.08-.1a.77.77 0 0 1 .12-.31 4.87 4.87 0 0 0 .44-.85.06.06 0 0 1 .06-.04h.32c.02 0 .04.02.05.04l.06.15a11.25 11.25 0 0 1 .47.85.3.3 0 0 1 .03.22c0 .02-.02.04-.04.04H4.9c-.2.01-.32-.01-.38-.06a.35.35 0 0 1-.08-.13.78.78 0 0 0-.02-.04c-.01-.02-.02-.02-.03 0ZM8.68 7.19l.12.02.04.03c.13.23.26.48.38.74l.11.15c.09.09.11.17.09.24-.04.13-.12.18-.23.16L9 8.49a.07.07 0 0 1-.05-.05V8.4c.03-.03.03-.05 0-.06-.21-.05-.4-.06-.55-.04a.32.32 0 0 0-.06.1.15.15 0 0 1-.12.1.55.55 0 0 1-.31-.02c-.07-.02-.09-.07-.05-.14l.6-1.1a.05.05 0 0 1 .04-.03l.2-.01Z" fill="#010102"/><path d="M4.47 8.1h-.53a.1.1 0 0 0-.09.05l-.06.13a.07.07 0 0 1-.06.04h-.16c-.03.01-.04 0-.02-.03l.5-.93c.03-.07.08-.1.16-.1.07 0 .12.03.16.1l.51.94c.01.03 0 .04-.02.04l-.2-.02a.06.06 0 0 1-.06-.03l-.07-.16a.06.06 0 0 0-.06-.03ZM5.2 7.31c0-.02.01-.03.03-.03h.7c.14 0 .25.04.35.14.1.09.14.2.14.33v.1c0 .13-.05.25-.14.34-.1.09-.21.13-.34.13h-.7c-.03 0-.04 0-.04-.03V7.3ZM7.25 7.99c.02.02.03.02.04 0l.35-.7h.02l.22-.02c.01 0 .02 0 .01.02l-.51.97a.13.13 0 0 1-.12.07.13.13 0 0 1-.12-.07l-.52-.94c-.01-.03 0-.05.03-.05l.17.01c.04 0 .06.02.08.05l.35.66ZM8.9 8.1h-.54a.06.06 0 0 0-.06.03l-.1.17a.05.05 0 0 1-.04.03h-.18c-.02 0-.02 0-.01-.03l.53-.97c.02-.04.06-.06.14-.06a.7.7 0 0 0 .03 0c.06 0 .1.02.12.07l.52.96c.01.02 0 .03-.02.03l-.2-.01a.06.06 0 0 1-.05-.04l-.07-.14a.07.07 0 0 0-.07-.04ZM10.6 7.94V7.3c0-.01 0-.02.02-.02h.18c.01 0 .02 0 .02.02v1c0 .02-.02.03-.04.04a.26.26 0 0 1-.2-.07 76 76 0 0 1-.7-.63c-.02-.02-.03-.01-.03.01v.65c0 .02 0 .03-.02.03h-.17c-.01 0-.02-.01-.02-.03v-.98c0-.02 0-.03.03-.04a.2.2 0 0 1 .2.05l.7.63c.02.02.03.01.03-.02ZM11.79 7.5v.8c0 .01 0 .02-.03.02l-.18.01c-.02 0-.03 0-.03-.03v-.8c0-.02 0-.03-.02-.03h-.42c-.02 0-.02-.01-.02-.03V7.3c0-.02.01-.02.03-.02h1.1c.03 0 .04 0 .03.03v.14c0 .02-.01.02-.03.02h-.4c-.02 0-.03 0-.03.03ZM12.74 7.28h-.2a.02.02 0 0 0-.02.02v1.01l.02.02h.2c.01 0 .02 0 .02-.02V7.3l-.02-.02ZM14.14 7.9l-.7-.01c-.1 0-.15-.05-.16-.15 0-.13 0-.24.02-.35 0-.07.05-.1.12-.11h.73c.13 0 .2.07.2.21 0 .02-.02.04-.04.05l-.14.04c-.03.01-.05 0-.04-.04V7.5c0-.02-.01-.03-.04-.03h-.59c-.01 0-.02 0-.02.02v.17l.02.02h.65c.16 0 .22.14.2.42v.04c0 .12-.07.18-.2.18h-.71c-.15 0-.21-.08-.2-.25 0-.02 0-.04.03-.04l.14-.02c.02 0 .03.01.03.04v.03c0 .03.01.04.04.04h.65l.02-.01v-.2l-.01-.02Z" fill="#D3D3D6"/><path d="M5.45 7.48s0-.02.02-.02h.4a.3.3 0 0 1 .22.1.3.3 0 0 1 .1.23v.02a.3.3 0 0 1-.1.22.3.3 0 0 1-.22.1l-.4-.01c-.02 0-.03 0-.02-.02v-.62ZM4 7.87l.18-.35c.01-.03.02-.03.03 0l.18.36c0 .02 0 .03-.02.03h-.36c-.02-.01-.03-.02-.02-.04ZM8.44 7.88l.18-.37c.01-.02.02-.02.03 0l.18.37c0 .02 0 .03-.02.03h-.36c-.02 0-.02-.01-.01-.03Z" fill="#010102"/><path d="M5.55 7.7c0-.04.02-.07.07-.07h.2c.14 0 .21.03.21.1v.2c0 .08-.06.12-.2.12h-.2c-.05 0-.07-.02-.07-.07V7.7Z" fill="#38383A"/><path d="M13.62 12.16c-.01.09-.06.13-.14.13h-2.05c-.03 0-.04-.01-.05-.04a.1.1 0 0 1 0-.05c0-.03.01-.04.04-.03.07.03.15.04.23.02h1.8c.03 0 .05-.01.07-.05 0 0 0-.02.02-.03v-.04c0-.01-.01-.02-.03-.02h-1.97l-.09-.01-.02-.05c.05-.4.02-.8-.08-1.19.05-.05.11-.07.18-.05.01 0 .03 0 .04-.02a.04.04 0 0 0 0-.04.54.54 0 0 0-.12-.14.06.06 0 0 0-.07-.01.1.1 0 0 1-.03 0c-.03.01-.05 0-.05-.04v-.14c0-.02 0-.04-.02-.05l-.14-.14a.14.14 0 0 1-.03-.05.6.6 0 0 0-.17-.25 1.17 1.17 0 0 1-.18-.24l-.01-.02.04-.01c.02-.01.03-.03.01-.05l-.08-.12c-.02-.03-.02-.05.01-.06.05-.01.07-.05.07-.1 0-.03-.02-.04-.04-.03h-.03c-.02.01-.03.03-.03.05v.03c0 .03 0 .04-.03.02-.14-.11-.2-.22-.18-.33h.06c.13 0 .23 0 .3-.03a.3.3 0 0 1 .15 0l.11.03.71-.02c.03 0 .04 0 .04.03v.03c0 .02 0 .04.02.06.1.12.17.24.22.36.03.07.03.14-.02.2-.01.02-.01.02.01.02.03-.01.05 0 .07.04v.05c-.02.04 0 .08.03.1l.02.04a.2.2 0 0 1-.03.17c-.01.01-.01.02.01.02.05 0 .07.02.07.08 0 .04-.01.05-.05.04-.08-.04-.14 0-.18.1 0 .03 0 .04.03.03l.03-.02h.06c.03.03.07.04.12.03a.1.1 0 0 1 .1.05.1.1 0 0 1 0 .1.22.22 0 0 1-.13.12h-.05c-.03.03-.03.03 0 .03s.05 0 .06.02c.01.02.03.02.04.02h.18c.02 0 .04.01.05.03l.03.07c0 .02 0 .04-.03.05-.04.04-.03.09.03.15.03.04.06.05.1.05.07-.01.11.02.13.1.01.1-.02.14-.1.13h-.04c-.03.02-.04.05-.04.08s.01.03.03.03a.28.28 0 0 1 .14-.02c.02 0 .03 0 .04-.02.02-.02.03-.02.05 0 .02 0 .03.02.03.04s0 .03.02.04c.05.03.07.07.06.13 0 .02 0 .03-.02.03a.2.2 0 0 1-.13-.01.07.07 0 0 1-.03-.03c-.04-.07-.09-.09-.15-.05a.1.1 0 0 1-.09.02c-.02 0-.04 0-.05.02l-.13.19c-.01.03 0 .05.02.08l.03.05c0 .03 0 .05-.02.08s-.02.05.02.05c.38 0 .75 0 1.12.05.01 0 .03 0 .03.03.02.06.03.09.05.08ZM6.05 9 7.88 9c.05.06.09.08.13.06L8 9.1l-.37.2-.04-.02c-.03 0-.05 0-.06-.02a.07.07 0 0 0-.05-.04c-.02 0-.03 0-.05.02a.7.7 0 0 0-.12.23c0 .02-.01.03-.03.04-.12.07-.16.13-.13.2-.39.42-.62.92-.7 1.5-.03-.03-.06 0-.08.07a.77.77 0 0 0-.01.18v.11c0 .03-.02.04-.05.03l-.1-.04c-.02 0-.03 0-.03.02v.04l.13.08c.02.01.03.03.03.05l.07.37c0 .02 0 .03-.02.04h-.06a.22.22 0 0 1-.06-.06 11.14 11.14 0 0 0-.4-.12c-.1-.03-.16-.12-.16-.27 0-.02.02-.04.04-.03.05.02.09 0 .1-.07.02-.04.01-.07-.02-.1-.05-.03-.1-.03-.15 0a.14.14 0 0 0-.06.06c-.03.07-.1.1-.18.07a.07.07 0 0 1-.05-.05l-.03-.12c0-.04.01-.05.04-.04.09.01.16 0 .22-.04s.06-.09 0-.13c-.08-.07-.17-.08-.25-.03a.18.18 0 0 1-.03.02c-.12.03-.18.02-.2-.02-.03-.05-.01-.1.03-.12a.5.5 0 0 1 .18-.08.2.2 0 0 1 .14.02h.06l.02-.02c.02-.02.01-.04-.02-.05-.08-.02-.14-.09-.18-.2-.01-.04 0-.06.04-.06h.14c.02 0 .03 0 .05-.02.03-.04.08-.06.14-.04h.02v-.02l-.01-.02h-.06c-.02 0-.04 0-.04-.04 0-.05-.03-.08-.08-.08-.02 0-.03-.02-.02-.05l.04-.07c.01-.02.03-.02.05-.02.1.02.18.01.25-.02.1-.04.1-.07 0-.1a.53.53 0 0 1-.16-.05.05.05 0 0 1-.02-.04l.01-.05a.06.06 0 0 1 .06-.05l.3.01c.14.03.16 0 .05-.1a.85.85 0 0 0-.11-.08c-.03-.02-.05-.01-.07.02a.14.14 0 0 1-.07.07c-.02.01-.04 0-.04-.02v-.13c0-.03.02-.05.04-.06.02 0 .04-.02.05-.04a.26.26 0 0 0 0-.13v-.1c.03-.18 0-.19-.1-.03l-.17.2.4-.68ZM10 9a.5.5 0 0 0 .23.01c.02 0 .03 0 .04.02a.3.3 0 0 1 .04.14c-.02.07-.06.12-.1.12a1.47 1.47 0 0 0-.18-.1c-.06-.04-.07-.1-.03-.2Z" fill="#525251"/><path d="M10.5 9c-.03.12.03.23.17.34.02.02.04.01.03-.02v-.03c0-.02.01-.04.03-.04l.03-.01c.02-.01.04 0 .04.03 0 .05-.02.09-.07.1-.03.01-.03.03-.01.06l.08.12c.02.02.01.04-.01.05l-.05.01a.12.12 0 0 0-.1-.09c-.04 0-.04-.01-.03-.04l.01-.05v-.06l-.15-.14c-.03-.03-.07-.03-.1 0a.32.32 0 0 0-.09.11l-.07-.04c.04-.01.08-.06.1-.13l.05-.07c.01-.02 0-.04-.02-.05h-.01c-.01-.03 0-.05.01-.05.06-.02.11-.02.15 0ZM8.97 9.23v.09h-.02c-.01 0-.02 0-.02-.02l-.01-.05c-.01-.04-.03-.04-.04 0 0 .04-.03.05-.07.04-.04 0-.05-.03-.04-.06a.28.28 0 0 1 .2 0Z" fill="#A4A3A3"/><path d="M9.1 9.22c.04.02.05.05.02.07a.92.92 0 0 1-.1.08.1.1 0 0 0-.04.05l.01.05c.05.04.05.08.03.13l-.04.03c-.1.02-.18 0-.24-.04a.07.07 0 0 0-.05-.02l-.05.02c-.02.02-.03.02-.05.01a1.22 1.22 0 0 1-.08-.05c-.1-.06-.19-.09-.26-.07a.6.6 0 0 1-.3 0c-.04-.01-.04-.02 0-.04.34-.16.61-.23.82-.2-.01.02 0 .04.03.05.05.01.07 0 .08-.04.01-.04.02-.04.04 0v.05c0 .02.01.03.03.03h.01l.01-.02v-.08a.28.28 0 0 1 .13-.01Z" fill="#23419B"/><path d="M9.1 9.22c.17-.01.32.04.45.15-.06.03-.07.08-.04.13-.03.02-.07.01-.1-.02-.02-.02-.05-.02-.07 0-.02.02-.03.02-.05 0-.03-.03-.06-.02-.1.02-.05-.05-.09-.06-.1-.04l-.07-.1.1-.07c.03-.02.02-.05-.02-.07Z" fill="#A4A3A3"/><path d="M10.75 9.61v.02c.08.12.14.2.19.24a.6.6 0 0 1 .17.25c0 .02.01.04.03.05l.13.14c.02.01.03.03.03.05v.14c0 .03.01.05.05.05a.1.1 0 0 0 .03-.01c.03-.01.05 0 .07 0l.12.15v.04c-.01.02-.03.02-.04.02a.17.17 0 0 0-.18.05 2.66 2.66 0 0 0-1.06-1.46.32.32 0 0 1 .08-.11c.03-.03.07-.03.1 0l.14.14c.02.02.02.04.02.06l-.02.05c-.01.03 0 .04.02.04.06 0 .1.04.12.1ZM7.63 9.32a2 2 0 0 0-.48.4c-.03-.07.02-.13.13-.2.02 0 .03-.02.04-.04a.7.7 0 0 1 .11-.23c.02-.02.04-.02.06-.02.02 0 .03.02.04.04.02.02.03.03.06.02.02 0 .04 0 .04.03Z" fill="#38383A"/><path d="M10.94 9.34h-.07c-.02 0-.03-.02-.02-.04.02-.07.06-.09.11-.04.05.03.09.09.11.15v.02h-.03a.35.35 0 0 0-.04-.06.07.07 0 0 0-.06-.03Z" fill="#161616"/><path d="M11.49 9.44c-.04-.05-.1-.06-.16-.03-.03.02-.04.01-.04-.03 0-.07.04-.12.11-.15.03-.01.05 0 .06.02l.09.14c.01.03 0 .04-.01.06h-.03l-.02-.01Z" fill="#38383A"/><path d="m8.59 9.43-.1-.02c-.03-.01-.03-.02-.01-.04.1-.09.2-.09.28.01.02.02.03.02.05 0v-.01c0-.02 0-.03.02-.03h.05c.02.01.02.03 0 .05v.01c-.02.03-.02.05-.01.08 0 .02 0 .04-.03.06a.08.08 0 0 1-.05 0 .61.61 0 0 0-.22 0c-.02.01-.03 0-.03-.03s.01-.05.05-.06c.02 0 .02-.01 0-.02Z" fill="#EFE7F8"/><path d="m10.55 10 .09.12c-.04.01-.05.04-.03.07.03.06.08.08.15.05h.05c.13.17.22.36.26.56a.45.45 0 0 1-.12-.21c0-.07-.02-.07-.04 0-.04.1 0 .19.1.25.02 0 .03.02.03.04V11.02c0 .02 0 .03-.02.04a.28.28 0 0 0-.04.24c0 .02.02.04.04.04l.06-.03.02-.1.01-.06c.01-.03.03-.03.04 0 .03.04.05.1.05.18a.46.46 0 0 0-.18.07.08.08 0 0 0-.04.05c-.02.09-.05.16-.09.24a.72.72 0 0 0-.07.31c0 .14.03.25.09.33 0 .02.03.02.04 0a.33.33 0 0 1 .18-.05c-.28.9-.86 1.45-1.72 1.68-.07.01-.1-.01-.05-.08l.04-.05a.32.32 0 0 1 .06-.04c.17-.09.3-.2.4-.35a.6.6 0 0 1 .13-.11.42.42 0 0 0 .15-.16c.04-.11.1-.21.16-.3.03-.05.02-.08-.03-.1a1.4 1.4 0 0 0-.33-.09c-.02 0-.03-.01-.04-.03a.24.24 0 0 0-.17-.2v-.03l.02-.02c.16-.45.1-.87-.17-1.26a.38.38 0 0 1-.06-.2v-.01h.01l.02-.01v-.05l.11-.05c.04-.03.03-.04 0-.03h-.04c-.03.01-.05 0-.06-.02a.15.15 0 0 1-.01-.07c0-.02-.01-.03-.03-.04a.08.08 0 0 0-.04-.02c-.03 0-.04 0-.01-.02.04-.03.08-.04.12 0h.06l.17-.05c.03 0 .04-.02.03-.05a.25.25 0 0 0-.1-.14.1.1 0 0 1-.03-.05l-.06-.2c0-.03-.02-.03-.03 0 0 .05-.03.07-.07.08-.02 0-.03 0-.03-.03a.24.24 0 0 0-.18-.23c-.02 0-.03 0-.04.03l-.05.17v.1c0 .03 0 .04-.03.05-.07.02-.1.07-.08.16 0 .02 0 .03-.02.03h-.01c-.03 0-.04 0-.05-.04v-.09a.07.07 0 0 0-.04-.05l-.2-.14c-.08-.05-.09-.11-.03-.18a.54.54 0 0 1 .29-.18c.03.09.07.12.13.1.02-.01.03-.03.02-.05-.03-.06-.08-.09-.14-.07a.3.3 0 0 1 .12-.05c.07-.02.1-.05.11-.1 0-.03.01-.04.03-.05l.06.01.13.15c.01.02 0 .03-.01.04l-.19.06v.02c.09 0 .15.04.19.12.01.02.03.03.05.02a.14.14 0 0 0 .08-.07V9.9a.2.2 0 0 1-.07-.06c-.02-.02-.01-.03.02-.02l.07.05c.02.02.03.02.05.01h.02c.02-.01.02-.02.01-.04l-.26-.34c-.04-.05-.02-.1.04-.13a.14.14 0 0 1 .12-.03c.03 0 .04.02.05.04.01.05.04.08.1.08l.07.04c.06.06.1.14.1.24 0 .02.01.04.03.04h.02v.03c-.04.02-.05.05-.04.09.02.12.07.23.15.31.04.04.06.04.07-.02.02-.15.13-.22.33-.2Z" fill="#23419B"/><path d="M6.45 11.21c-.05.36-.03.7.06 1.04.01.03 0 .04-.02.04H4.38c-.04 0-.07-.02-.09-.06l.1.03h.11a.9.9 0 0 1 .48-.06.1.1 0 0 0 .08-.02.08.08 0 0 0 .03-.05c0-.02 0-.04-.02-.05a.19.19 0 0 0-.08-.05.07.07 0 0 1-.04-.03.4.4 0 0 0-.07-.09c-.03 0-.04 0-.04-.04 0-.02 0-.03-.02-.04a.16.16 0 0 1-.04-.06v-.05a292.48 292.48 0 0 1 .22-.39c.04-.03.06-.08.04-.14l.01-.06a.31.31 0 0 1 .06-.09.08.08 0 0 0 .02-.05c0-.04 0-.06-.04-.07h-.05l-.18.14c-.08.06-.1.05-.04-.04a.61.61 0 0 0 .03-.08.1.1 0 0 1 .03-.05c.05-.04.09-.1.12-.18.07-.2.19-.4.34-.62.02.03.05.03.07 0l.25-.41.17-.21c.1-.16.13-.14.1.04v.22l-.05.04c-.02.01-.04.03-.04.06v.13c0 .02.02.03.04.02a.14.14 0 0 0 .08-.07c.01-.03.03-.04.06-.02l.1.08c.12.1.1.13-.04.1-.1-.01-.2-.02-.3 0a.06.06 0 0 0-.06.04v.05c0 .01 0 .03.02.04l.15.06c.1.02.1.05 0 .1a.42.42 0 0 1-.25.01c-.02 0-.04 0-.05.02l-.04.07c-.01.03 0 .04.02.05.05 0 .08.03.08.09 0 .02.02.03.04.03h.06c.01 0 .02 0 .01.02v.01c0 .01-.01.02-.02.01-.06-.02-.11 0-.14.04a.06.06 0 0 1-.05.02h-.14c-.04 0-.05.02-.04.06.04.11.1.18.18.2.03.01.04.03.02.05l-.02.01c-.01.02-.04.02-.06.01a.2.2 0 0 0-.14-.02.5.5 0 0 0-.18.08c-.04.03-.06.07-.03.12.02.04.08.05.2.02l.03-.02c.08-.05.17-.04.26.03.06.04.05.09 0 .13a.27.27 0 0 1-.23.04c-.03-.01-.04 0-.03.04l.02.12c0 .03.02.05.05.05.09.02.15 0 .18-.07a.14.14 0 0 1 .06-.07c.06-.02.1-.02.15.01.03.03.04.06.03.1-.02.06-.06.09-.1.07-.03 0-.05 0-.05.03 0 .15.06.24.17.27a10.87 10.87 0 0 1 .4.12c0 .02.03.04.05.05.02.02.04.02.06.01.02 0 .02-.02.02-.04l-.07-.37a.09.09 0 0 0-.03-.05.44.44 0 0 0-.13-.08v-.04c0-.02.01-.02.03-.02l.1.04c.03.01.04 0 .04-.03v-.11l.02-.18c.02-.07.05-.1.08-.08Z" fill="#38383A"/><path d="m9.2 9.5.06.08v.04l-.06.04c-.03.02-.05.01-.06-.01a.61.61 0 0 1-.06-.19c.02-.02.06 0 .12.04Z" fill="#23419B"/><path d="m11.07 9.7.02.01v.01c-.02.04-.05.05-.09.03-.05-.02-.05-.04 0-.07.05-.04.1-.08.12-.14.02-.02.03-.02.05 0l.1.11c.03.03.02.05-.02.05h-.17c-.01 0-.01 0 0 0ZM6.59 9.7V9.7c.03-.06.07-.1.11-.11.04-.02.07-.01.1.02l.1.1c.03.03.02.06-.03.06l-.22.02c-.02 0-.03 0-.04-.02a.17.17 0 0 1-.02-.05Z" fill="#38383A"/><path d="m9.09 9.81.01-.02c.06-.02.1 0 .14.07 0 .02 0 .04-.02.04-.06.03-.1 0-.13-.09Z" fill="#D3D3D6"/><path d="M10.8 10.24h-.04l-.12-.12-.09-.13a.6.6 0 0 0-.08-.12v-.02h.02c.12.11.23.24.32.39Z" fill="#161616"/><path d="m6.43 9.96.05-.07c.02-.03.04-.03.06 0l.1.15-.01.02-.02.01H6.6c-.04-.07-.09-.07-.15-.02-.04.03-.05.02-.06-.02 0-.03.01-.04.03-.06h.02Z" fill="#1D1E22"/><path d="M8.9 12.39c.04.04.05.05.04.02.04.1.04.17 0 .21-.08.08-.11.16-.1.25 0 .02 0 .04.02.06.05.05.09.12.13.18a.48.48 0 0 0 .2.17c.02 0 .03.02.03.05 0 .14-.02.28-.04.42l.01.19c.01.03 0 .05-.03.05-.5.04-.95-.06-1.36-.3a2.44 2.44 0 0 1-1.14-2.29c.04-.5.22-.95.54-1.36.03-.03.04-.02.05.01v.05c0 .02 0 .03.02.03l.03-.02a.3.3 0 0 1 .2-.14c.08-.02.13.02.15.12l.05.45a.1.1 0 0 1-.01.06c-.15.32-.15.58-.01.76l.02.06c.01.11.05.21.12.3.02.03.02.03.02 0a.68.68 0 0 0-.06-.15 1.52 1.52 0 0 1-.03-.07c-.04-.11-.03-.12.04-.02.1.15.18.3.23.46 0 .02.02.04.03.05.08.05.16.09.24.1.1.02.17.06.25.11.06.04.13.1.2.18.06.05.1.05.16.01Z" fill="#235AAB"/><path d="m10.64 10.12.12.12c-.07.03-.11.01-.14-.05-.02-.03-.02-.06.02-.07Z" fill="#EFE7F8"/><path d="M11.57 10.26c.01-.05.03-.07.07-.07.03 0 .05.02.07.04l.07.09c.02.02.02.03 0 .05h-.03c-.06-.05-.14-.04-.24.04-.03.02-.05 0-.04-.03a.1.1 0 0 1 .06-.08c.02 0 .04-.02.04-.04Z" fill="#38383A"/><path d="M9.78 10.73h-.03v-.02a.26.26 0 0 1 .06-.08h.04l.06.1c.02.03 0 .04-.02.04a.22.22 0 0 1-.08-.03h-.03Z" fill="#fff"/><path d="M9.54 10.87c.01.02.02.03.01.05l-.02.01h-.01c0 .08.02.15.06.21a1.34 1.34 0 0 1 .16 1.28v.04a.72.72 0 0 1-.15-.07.64.64 0 0 0-.13-.07c-.2-.06-.34-.06-.41 0a.7.7 0 0 0-.11.1l-.04-.03-.12-.05c-.03 0-.04-.02-.04-.05v-.13c.01-.02 0-.04-.02-.04a.16.16 0 0 0-.07-.02c-.08 0-.1-.02-.05-.1a.2.2 0 0 0 .04-.1c0-.03-.02-.04-.04-.03a.15.15 0 0 0-.1.1c-.01.01-.02.03-.04.03-.17.04-.23-.08-.17-.36.02-.07.07-.11.14-.11.03 0 .08 0 .14-.02.17-.04.27.02.28.18l.01.01.04.01.01-.02-.03-.2c0-.02 0-.04.02-.05l.04-.04a.7.7 0 0 0 .15-.17c.08-.15.18-.27.31-.36.04-.03.08-.03.14 0Z" fill="#2368B4"/><path d="M12.01 11.38a.24.24 0 0 0-.16-.02c-.05 0-.06-.01-.04-.06a.15.15 0 0 1 .1-.09c.03 0 .05 0 .07.04l.06.1c.02.04.01.05-.03.03Z" fill="#38383A"/><path d="m9.25 11.97-.48-.18h-.02v.04l.49.18h.02v-.04Z" fill="#fff"/></svg>