<!-- by TradingView --><svg width="18" height="18" viewBox="0 0 18 18" xmlns="http://www.w3.org/2000/svg"><path fill="#F0F3FA" d="M0 0h18v18H0z"/><path d="M8.8 4a5 5 0 0 0-4.2 7.37l.2-.35a4.65 4.65 0 0 1 3.8-6.67L8.8 4Zm4.4 7.03A4.65 4.65 0 0 0 9.4 4.35L9.19 4a5 5 0 0 1 4.2 7.37l-.19-.34ZM6.6 13a4.64 4.64 0 0 0 4.8 0h.6a4.98 4.98 0 0 1-6 0h.6Z" fill="#3970C2"/><path d="m13.83 12.67.16.33H9v-.33h4.83Zm-.18-.35L13.5 12H9v.32h4.65Zm-5.65 0V12H4.5l-.16.32H8Zm-3.84.35L4 13h4v-.33H4.16Zm.52-1.03H8v-1.12H5.24l-.56 1.12Zm.74-1.47H8V9h1.54c.69 0 1.27.5 1.42 1.17h1.62L11.99 9H6l-.57 1.17Zm.76-1.53h5.64L9 3 6.18 8.64Zm6.58 1.88h-1.77c0 .45-.2.85-.5 1.12h2.82l-.55-1.12Z" fill="#3C6EC3"/></svg>