<!-- by TradingView --><svg width="18" height="18" viewBox="0 0 18 18" xmlns="http://www.w3.org/2000/svg"><path fill="#F0F3FA" d="M0 0h18v18H0z"/><path d="m9 3 5 3v1h-1v-.5L9 4 5 6.5v4.3l-.72 1.37L4 12V6l5-3Z" fill="#00AEEF"/><path d="M4.63 12.38 9 15l5-3V8h-1v3.5L9 14l-3.93-2.46-.44.84Z" fill="#59595C"/><path d="m6 8-1.6 2.4-.1 1.68 2.05-3.36L7 10h.87L6.69 8H6Z" fill="#00AEEF"/><path d="M11 8h2.69v.63H11V8Z" fill="#59595C"/><path d="M12 10V8h.63v2H12Z" fill="#59595C"/><path d="M11 8.24a.64.64 0 0 0-.52-.24H8.59c-.33 0-.59.2-.59.44v1.12c0 .24.26.44.59.44h1.89c.22 0 .42-.1.52-.24l-.66-.4c-.01.08-.1.14-.2.14H8.87c-.11 0-.2-.07-.2-.15v-.7c0-.08.09-.15.2-.15h1.27c.1 0 .19.06.2.13l.66-.4Z" fill="#00AEEF"/></svg>