<!-- by TradingView --><svg width="18" height="18" viewBox="0 0 18 18" xmlns="http://www.w3.org/2000/svg"><path fill="#F0F3FA" d="M0 0h18v18H0z"/><path d="M5.23 15c1.87-.7 3.56-2.87 5.07-5.11 1.23.62 2.67 1.12 4.7 1.27v-.09c-1.81-.33-3.15-1-4.36-1.7 1.53-2.3 2.95-4.6 4.36-5.27V4c-3.07.48-4.91 2.17-7.02 3.8A11.72 11.72 0 0 0 3 6.33v.08c1.92.35 3.26 1.05 4.47 1.78A14.77 14.77 0 0 1 3 10.63v.1a14.9 14.9 0 0 0 4.9-2.27c.6.37 1.2.76 1.83 1.12C8.3 11.89 6.84 14.23 5.06 15h.17Zm4.84-5.96c-.54-.33-1.07-.66-1.62-.97l1.13-.85c.96-.74 2.35-1.73 3.34-2.14-.95.92-1.89 2.4-2.85 3.96Z" fill="#E20025"/></svg>