<!-- by TradingView --><svg width="18" height="18" viewBox="0 0 18 18" xmlns="http://www.w3.org/2000/svg"><path fill="url(#a)" d="M0 0h18v18H0z"/><path d="M10 7.08A7.93 7.93 0 0 0 2 11c2.35-2.82 5.4-3.44 6.62-3.4L10 7.08ZM12.27 8l-.27.42A9.75 9.75 0 0 1 16 11a6.98 6.98 0 0 0-3.73-3Z" fill="#fff"/><path d="M12 7c-1.3.39-3.94 1.16-4 1.16l1.9.68.16 2.16L12 7Z" fill="#FF7A00"/><defs><linearGradient id="a" x1="9" y1="3.21" x2="9" y2="18" gradientUnits="userSpaceOnUse"><stop stop-color="#2FB2DC"/><stop offset=".36" stop-color="#067FC5"/></linearGradient></defs></svg>