<!-- by TradingView --><svg width="18" height="18" viewBox="0 0 18 18" fill="none" xmlns="http://www.w3.org/2000/svg">
<rect width="18" height="18" fill="#F0F3FA"/>
<path fill-rule="evenodd" clip-rule="evenodd" d="M13 13.7C12.6901 13.8147 12.4386 13.914 12.1429 14C11.5788 12.8036 10.2817 11.9 9 11.9C7.71945 11.9 6.40514 12.7913 5.85714 14C5.56137 13.914 5.30986 13.8147 5 13.7C5.71052 12.0725 7.28854 11 9 11C10.6664 11 12.3337 12.0721 13 13.7Z" fill="#1994A4"/>
<path d="M10.25 15C10.5335 14.9426 10.6919 14.8662 11 14.7706C10.612 13.5667 9.82858 13 9 13C8.1499 13 7.40818 13.5745 7 14.7706C7.3081 14.8853 7.45423 14.9426 7.75 15C7.99542 14.4289 8.58776 14 9 14C9.48403 14 9.91629 14.4823 10.25 15Z" fill="#1994A4"/>
<path d="M11 6C10.8112 5.67727 10.6051 5.35453 10.3991 5.04583L10.3991 5.04583C9.95278 5.01776 9.50643 4.9897 9.02575 5.00373C8.54506 5.00373 8.06438 5.01776 7.60086 5.05986C7.39485 5.36856 7.20601 5.67727 7 6C7.65236 5.90178 8.33906 5.85968 9.02575 5.85968C9.69528 5.85968 10.3648 5.91581 11 6Z" fill="#1994A4"/>
<path d="M10 4C9.6699 3.64285 9.3301 3.30953 9 3C8.68932 3.30953 8.34951 3.65476 8 4C8.3301 3.9881 8.65049 3.96165 9 3.96165C9.3301 3.96165 9.6699 3.9881 10 4Z" fill="#1994A4"/>
<path d="M12 9C11.8723 8.52206 11.7556 8.14461 11.6024 7.66667C10.8109 7.26838 9.93192 7 9.01277 7C8.09362 7 7.22736 7.25245 6.4231 7.66667C6.28267 8.16054 6.12766 8.52206 6 9C6.89362 8.34681 7.91489 8 9.01277 8C10.0979 8 11.1191 8.37868 12 9Z" fill="#1994A4"/>
<path d="M13 12C12.9155 11.5125 12.8551 11.0162 12.7143 10.5C11.8571 9.6 10.4286 9 9.01409 9C7.57143 9 6.14286 9.6 5.28571 10.5C5.14487 11.0305 5.07042 11.4982 5 12C6.00168 10.7537 7.47771 10 9.01409 10C10.5352 10 11.9465 10.7934 13 12Z" fill="#1994A4"/>
</svg>
