<!-- by TradingView --><svg width="18" height="18" viewBox="0 0 18 18" xmlns="http://www.w3.org/2000/svg"><path fill="#F0F3FA" d="M0 0h18v18H0z"/><path d="M4.05 9c.07-.16.26-.5.37-.6.07.1.33.47.36.6h-.73ZM10 7.44c.28.12.1.44 1 .16-.05.1-.87.9-1 .96V7.44Zm-1 2.84c.22-.03.82-.3 1-.41v-.65c.35.03.66.29.76.57.29.78-.6 1.22-1.26 1.21-.91-.01-1.53-.9-1.5-1.94.04-1.32.56-1.5 1-2.44-1.2-.18-1.93.56-2.56 1.46-.4-.43-.62-1.03-1-1.48-.15.05-.27.32-.44.4-.2-.33-.56-.61-1.12-.53-.36.06-.9.3-1 .7.28-.08.5-.18.71.06.1.1.4.54.42.63C4 8 3.18 9.27 3.03 9.52c-.3.52-.61 1.04-1.03 1.48h.72c.31 0 .32.33.53.45.17-.21.34-.45.54-.64.17-.16.5-.42.57-.6L4.23 10l-.28.17a1.6 1.6 0 0 1-.37-.33c.09-.3.3-.2.83-.2.94 0 .65-.2 1.34.87.18.27.24.32.25.43v.54c.24-.1.36-.39.59-.5A3.1 3.1 0 0 0 8.96 12c1.54 0 3.67-1.35 3.18-3.17-.1-.32-.28-.52-.48-.76 1.1-.98 2.11.82 3.26-.12.16-.13.65-.59.67-.85-1.46.14-1.6-.48-2.37-.37-.4.06-.73.29-.96.5-.23.2-.55.52-.7.77l-.3-.1c.15-.51.73-.65.98-1.07l-.43-.52c-.17.15-.17.4-.51.39-.3 0-.3-.4-.3-.7-.89.5-1.49.81-2 1.14v3.14Z" fill="#E32219"/><path d="M12.52 9.03c.1.2.86.86.95 1.08-.19.07-.42.03-.6.07-.5.1-1.03.47-1.21.96.22-.1.32-.14.45-.14.1 0 .2.03.4.12.28.14.48.3.76.08.4-.31.86-.62 1.24-.95.36-.3.49-.5.49-.69 0-.16-.05-.32-.4-.56-.26-.19-1.05-.75-1.37-.81-.2.3-.54.53-.7.84ZM14.35 8.57c.1.2.6.53.91.57.18.03.4-.1.52-.2.15-.13.23-.33.22-.62-.6.2-.46.22-.85-.07-.18-.13-.64.2-.8.32Z" fill="#E32219"/></svg>