<!-- by TradingView --><svg width="18" height="18" viewBox="0 0 18 18" xmlns="http://www.w3.org/2000/svg"><path fill="#F0F3FA" d="M0 0h18v18H0z"/><path d="M14 9.1c0 1.23-.43 2.36-1.14 3.24H5.14A5.14 5.14 0 0 1 4 9.1C4 6.28 6.24 4 9 4s5 2.28 5 5.1Z" fill="url(#aomwtfhbs)"/><path fill="#4598C9" d="M4 12h10v1H4z"/><path d="M9.59 12v-.02a5.3 5.3 0 0 1-.62-1.1L7.31 7H7.3l-1.78 3.86c-.23.48-.44.86-.64 1.12V12h1.07l-.01-.16c0-.21.08-.49.23-.84l.24-.55h1.67l.22.54c.14.35.22.63.22.85 0 .07 0 .12-.02.16H9.6ZM6.65 9.89l.63-1.44.57 1.44h-1.2Zm5.69-.17c.32-.29.48-.67.48-1.15 0-.46-.16-.84-.5-1.13-.33-.3-.8-.44-1.4-.44H9.82s.19.31.19.63v3.75c0 .57-.2.62-.2.62h1.18l-.02-.06a3.5 3.5 0 0 1-.2-1.2v-.6h.28c.54 0 .98-.14 1.3-.42Zm-.6-1.93c.22.2.33.47.33.8 0 .33-.11.61-.35.84-.23.23-.56.37-.96.41v-2.4c.4.02.75.14.97.35Z" fill="#223570"/><defs><linearGradient id="aomwtfhbs" x1="8.71" y1="4" x2="8.71" y2="12.01" gradientUnits="userSpaceOnUse"><stop stop-color="#E91D37"/><stop offset=".19" stop-color="#EB3C3E"/><stop offset=".43" stop-color="#F3856A"/><stop offset=".68" stop-color="#FBD2C3"/><stop offset="1" stop-color="#fff" stop-opacity="0"/></linearGradient></defs></svg>