<!-- by TradingView --><svg width="18" height="18" viewBox="0 0 18 18" xmlns="http://www.w3.org/2000/svg"><path fill="#F0F3FA" d="M0 0h18v18H0z"/><path d="M3.97 7.52 2.5 11h1.15l1.08-2.7L5.8 11H7L5.53 7.52a.85.85 0 0 0-1.56 0ZM6.27 7h3.56a1 1 0 0 1 .98 1.06c0 .46-.39.75-.59.84.26.04.76.29.76 1 0 .9-.93 1.1-1.47 1.1h-1.6l-.37-.86h1.94c.16 0 .5-.13.5-.48s-.4-.54-.6-.59L8.04 8.6H9.5c.18 0 .32-.15.32-.34 0-.18-.14-.4-.32-.4H7.8A2.02 2.02 0 0 1 6.27 7Zm1.19.52c.07 0 .13-.07.13-.15a.14.14 0 0 0-.13-.14.14.14 0 0 0-.14.14c0 .08.06.15.14.15ZM11.5 11V7h.95l1.54 2.12V7H15v4h-.88l-1.6-2.22V11H11.5Z" fill="url(#a)"/><defs><linearGradient id="a" x1="3" y1="9" x2="15" y2="9" gradientUnits="userSpaceOnUse"><stop stop-color="#429DC8"/><stop offset="1" stop-color="#83BD46"/></linearGradient></defs></svg>