<!-- by TradingView --><svg width="18" height="18" viewBox="0 0 18 18" xmlns="http://www.w3.org/2000/svg"><path fill="#F0F3FA" d="M0 0h18v18H0z"/><path d="M10.31 6.8a.16.16 0 0 0-.09.1 3.53 3.53 0 0 0-2.1-.7c-.05 0-.07.02-.07.06v1.08a.09.09 0 0 0 .12.08.1.1 0 0 1 .1.01c.02.03.02.04-.02.04h-.16c-.05 0-.07.02-.05.07.05.18.04.35-.04.52a.1.1 0 0 0 .02.1c.04.06.04.11 0 .17a.11.11 0 0 0 0 .1c.04.09.05.17.04.24L8 8.7a.1.1 0 0 1-.06-.1.1.1 0 0 1 0-.03c.04-.1.06-.2.05-.3a.07.07 0 0 0-.1-.06.3.3 0 0 0-.2.2c-.01.08-.04.08-.09.02l-.06-.1a.1.1 0 0 1 .02-.13.1.1 0 0 1 .03-.03c.14-.05.21-.14.22-.28 0-.03 0-.04.03-.05.1-.06.16-.15.18-.28 0-.03 0-.05-.03-.07a.06.06 0 0 1-.03-.04V7.4c.05-.18.05-.37.02-.55a3.07 3.07 0 0 1-.08-.64l-.03-.01c-.46 0-.9.1-1.31.27-1.43.48-2.27 1.9-2.38 3.34a.13.13 0 0 0 .08.13h.06c.14 0 .27 0 .4.04.14.04.26 0 .42 0 .01-.01.02 0 .03.01v.04a.4.4 0 0 1-.24 0 .18.18 0 0 0-.1 0c-.18.05-.36.07-.55.04a.1.1 0 0 0-.07.03.09.09 0 0 0-.03.06 3.75 3.75 0 0 0 1.65 3.02l.55.3c.45.23.94.33 1.46.3.03 0 .05-.01.05-.05v-.97a.09.09 0 0 1 .04-.08c.06-.04.1-.02.13.03l-.01 1.02a.11.11 0 0 0 .12.11 3.6 3.6 0 0 0 2.56-1.12l.38-.44a3.51 3.51 0 0 0 .7-2.21.05.05 0 0 0-.03-.02l-.54.05-.03-.05c-.02-.03-.02-.05 0-.08l.07-.05.46.05a.1.1 0 0 0 .1-.1 4.9 4.9 0 0 0-.2-1.17 2.62 2.62 0 0 0-.33-.6l-.16-.28.13-.08c.06.22.16.37.32.45.03.15.06.32.11.5.01.05.05.06.11.03l-.02.1a4.1 4.1 0 0 1-.68 3.65A3.98 3.98 0 1 1 5.2 7.2 4.06 4.06 0 0 1 8 6c.8 0 1.61.28 2.31.8Z" fill="#52592F"/><path d="M8.06 8.67c.07 0 .12.04.16.1-.04.08-.1.11-.2.1a.09.09 0 0 0-.08.04.2.2 0 0 0 0 .25c.02.04.05.04.08 0l.48-.52.28.06-.12.04c-.04.01-.05.04-.05.07 0 .02 0 .04.02.07l-.03.16-.74.62a.13.13 0 0 1-.1.03c-.18-.02-.4-.04-.52.14a.1.1 0 0 1-.05.05c-.1.05-.2.11-.3.2-.08.07-.12.05-.1-.06.02-.1.08-.16.18-.17.04 0 .07-.03.08-.07.04-.2.18-.31.42-.32.13 0 .29-.06.27-.22a.04.04 0 0 0-.05-.04l-.02.01-.1.1a.12.12 0 0 1-.1.04L7.1 9.3c-.25-.03-.26-.12-.05-.25a.65.65 0 0 0 .18-.15.17.17 0 0 0 .03-.1c0-.07.02-.13.06-.17a.08.08 0 0 0 0-.12c-.1-.09-.27.01-.35.09-.1.09-.15.1-.27.11-.1-.02-.13-.16-.12-.41 0-.05.03-.07.07-.08l.29-.06A.08.08 0 0 0 7 8.11v-.04a.04.04 0 0 0 0-.04.05.05 0 0 0-.04-.01c-.17.01-.34.03-.52.07-.24.04-.44-.04-.67-.02-.04 0-.06-.02-.07-.05-.02-.07 0-.13.06-.17a.64.64 0 0 1 .22-.1c.2-.04.22-.11.03-.2l-.15-.09c-.05-.03-.06-.07-.05-.13.01-.04.04-.06.08-.06l.4.02c.16 0 .2-.07.12-.2l-.1-.18a.23.23 0 0 1-.03-.1v-.14c0-.04.02-.06.06-.08a.69.69 0 0 0 .2-.12 3.37 3.37 0 0 1 1.35-.26l.02.03c0 .22.01.37.06.61.03.18.03.37-.01.55v.06c0 .02 0 .03.02.04a.1.1 0 0 1 .03.07.34.34 0 0 1-.18.28.05.05 0 0 0-.03.05c0 .14-.08.23-.22.28a.1.1 0 0 0-.06.1l.01.05.07.1c.04.07.07.07.09 0a.3.3 0 0 1 .2-.21.07.07 0 0 1 .1.06c0 .1-.02.2-.06.3a.1.1 0 0 0 .03.1.1.1 0 0 0 .03.03l.06-.04Z" fill="#FCE89A"/><path d="M10.22 6.9c.37.23.68.54.93.92l.16.28-1.11.45-.28.2c-.2.06-.34.13-.44.21-.09.02-.25.07-.48.17-.11.05-.21.02-.3-.1-.02-.01-.04-.02-.07 0a.12.12 0 0 0-.03.01l.03-.16c.13.01.24 0 .32-.06a.06.06 0 0 0-.03-.11.36.36 0 0 0-.14 0l-.28-.07c.07-.06.1-.12.09-.2 0-.03-.02-.03-.05 0l-.32.33a.21.21 0 0 0-.16-.1.44.44 0 0 0-.04-.24.11.11 0 0 1 0-.1c.04-.06.03-.11 0-.16A.1.1 0 0 1 8 8.06a.75.75 0 0 0 .04-.52c-.02-.05 0-.07.05-.07h.16c.04 0 .04-.01.01-.04a.1.1 0 0 0-.1-.01.09.09 0 0 1-.1-.08l-.01-1.08c0-.04.02-.06.06-.06.78 0 1.48.24 2.11.7Z" fill="#CCDCA7"/><path d="M6.56 6.47a.69.69 0 0 1-.21.12.08.08 0 0 0-.06.08v.14c0 .03.01.07.03.1l.1.18c.08.13.04.2-.12.2l-.4-.02c-.04 0-.07.02-.08.06-.01.06 0 .1.05.13l.14.08c.2.1.19.17-.02.22a.64.64 0 0 0-.22.1c-.06.03-.08.09-.06.16 0 .03.03.05.07.05.23-.02.43.06.67.02A4.93 4.93 0 0 1 7 8.03a.05.05 0 0 1 0 .04v.04a.08.08 0 0 1-.06.05l-.3.06c-.03 0-.06.03-.06.08-.01.25.03.39.12.41-.03.02-.08.01-.13 0a.08.08 0 0 0-.1 0l-1.04 1a.35.35 0 0 0-.07.41c.28.57.47 1.17.92 1.67.11.13.13.27.05.42a.07.07 0 0 1-.08.04.4.4 0 0 0-.3.07c-.06.05-.1.13-.1.27l-.03.58a3.65 3.65 0 0 1-1.45-1.89 3.17 3.17 0 0 1-.2-1.16.09.09 0 0 1 .1-.05c.19.03.37.01.55-.03h.1a.4.4 0 0 0 .23 0l.01-.02V10l-.03-.02c-.16.02-.28.05-.43 0a1.07 1.07 0 0 0-.4-.02.12.12 0 0 1-.12-.08l-.01-.06c.11-1.44.95-2.86 2.38-3.34Z" fill="#90BF5F"/><path d="M11.6 8.19c-.16-.08-.26-.23-.32-.45a.36.36 0 0 1 .22-.02c.04.01.06.04.06.07l.04.4Z" fill="#fff"/><path d="M13.4 7.85a.46.46 0 0 1-.22 0c-.06-.01-.08-.05-.05-.1a.26.26 0 0 0 .04-.2c-.01-.05-.04-.07-.08-.06l-.23.02a.25.25 0 0 1-.26-.15 3.05 3.05 0 0 1-.2-.65c-.03-.13-.1-.22-.17-.32l-.07-.1a.16.16 0 0 1-.03-.1l.02-.23c0-.03 0-.07-.02-.1-.24-.37-.22-.3-.2-.75 0-.04-.02-.06-.05-.07l-.04-.01a.08.08 0 0 1-.06-.07c-.06-.33 0-.62.2-.89l.02-.05C12 4 11.98 4 11.93 4a.27.27 0 0 0-.21.18c-.21.51-.3 1.05-.31 1.19 0 .14-.03.28-.08.42-.11.34-.04.76.02 1.1 0 .04 0 .07-.03.09-.33.23-.71.02-1-.18a.16.16 0 0 0-.1.1c.37.23.68.54.93.92l.13-.08a.36.36 0 0 1 .22-.02c.04.01.06.04.06.07l.04.4c.03.15.06.32.11.5.01.05.05.06.11.03a.48.48 0 0 0 .05-.27c-.08-.37-.02-.74.26-.99a.07.07 0 0 1 .08-.01.07.07 0 0 1 .04.05c.02.12-.06.25-.14.38-.1.17-.2.33-.12.47.3.58.78.85 1.43.82a.63.63 0 0 0 .3-.3.07.07 0 0 1 .07-.05l.07-.01c.05 0 .07-.03.07-.07a1 1 0 0 0-.03-.25.16.16 0 0 0-.08-.1.08.08 0 0 1-.03-.02c-.03-.05-.02-.08.04-.08.04 0 .08-.02.12-.04.07-.05.07-.09-.02-.12a.84.84 0 0 0-.28-.04c-.13 0-.15-.05-.06-.14a.15.15 0 0 0 .03-.05c.02-.05 0-.08-.05-.08s-.1 0-.17.03Z" fill="#005719"/><path d="M11.3 8.1c.18.26.3.46.34.6a4.89 4.89 0 0 1 .2 1.21.1.1 0 0 1-.1.06l-.46-.05.07-.56a.1.1 0 0 0-.04-.1c-.11-.1-.13-.23-.05-.4a.06.06 0 0 0-.01-.08l-.02-.01a3.1 3.1 0 0 0-1.03-.22l1.1-.45Z" fill="#9CC24F"/><path d="m8.5 8.64-.48.53c-.03.03-.06.03-.08 0a.2.2 0 0 1 0-.26.09.09 0 0 1 .08-.04c.1.01.16-.02.2-.1l.32-.34c.03-.02.04-.02.05.02.01.07-.02.13-.09.19Z" fill="#90BF5F"/><path d="m8.6 9.04.03-.02c.03 0 .05 0 .07.02.09.1.19.14.3.1.23-.1.4-.16.48-.18-.32.28-.6.57-.86.87-.1.12-.19.25-.25.4-.1.22-.26.34-.38.54-.06.12-.18.2-.26.31a3 3 0 0 1-.96.95.16.16 0 0 0-.08.16c.02.16.14.22.34.19-.27.33-.49.7-.65 1.1l-.55-.3c0-.21.02-.4.03-.6 0-.13.04-.21.1-.26a.4.4 0 0 1 .3-.07c.04 0 .07 0 .08-.04a.34.34 0 0 0-.05-.42c-.45-.5-.64-1.1-.92-1.67a.35.35 0 0 1 .07-.41l1.05-1a.08.08 0 0 1 .09 0c.05.01.1.02.13 0 .12-.02.17-.02.27-.11.08-.08.24-.18.35-.1a.08.08 0 0 1 0 .13.23.23 0 0 0-.06.16c0 .04 0 .08-.03.11a.58.58 0 0 1-.18.15c-.21.13-.2.22.05.25l.35.05c.04 0 .08 0 .1-.03l.11-.1a.04.04 0 0 1 .07.02c.02.16-.14.21-.27.22-.24.01-.38.12-.42.32-.01.04-.04.06-.08.07-.1.01-.17.07-.18.17-.02.11.02.13.1.06.1-.09.2-.15.3-.2a.1.1 0 0 0 .05-.05c.12-.18.34-.16.52-.14.04 0 .07 0 .1-.03l.74-.62Z" fill="#4A9E56"/><path d="M10.2 8.55a3.06 3.06 0 0 1 1.05.23.07.07 0 0 1 .02.05l-.01.03c-.08.17-.06.3.05.4a.1.1 0 0 1 .04.1l-.07.56-.06.05c-.03.03-.04.05-.01.08l.03.05c.1.46-.1.8-.36 1.17-.18.25-.17.5-.24.77a.11.11 0 0 0 .13.14c.17-.01.28.02.34.1l-.38.44c-.1 0-.16-.04-.18-.12a.88.88 0 0 0-.1-.24.15.15 0 0 0-.06-.05l-.38-.18c-.14-.07-.15-.16-.05-.27.21-.25.34-.56.33-.89 0-.14.03-.28.12-.4a.1.1 0 0 0 0-.13.37.37 0 0 1-.11-.37c0-.02.02-.03.04-.04h.02c.06-.02.07-.04.02-.08-.16-.1-.28-.06-.41.07a1.3 1.3 0 0 1-.27.22c-.1-.06-.06-.13.15-.23a.09.09 0 0 0 .05-.07c0-.04 0-.07-.04-.09a.08.08 0 0 0-.06 0 .5.5 0 0 0-.17.06c-.02 0-.06-.03-.1-.11.2-.05.31-.13.34-.23.01-.04 0-.06-.03-.08a.05.05 0 0 0-.05 0 .13.13 0 0 0-.05.04c-.06.08-.13.12-.21.1-.01-.2.1-.3.34-.29a.1.1 0 0 0 .1-.05c.07-.12.17-.2.3-.23.2-.05.2-.12.03-.21a.87.87 0 0 0-.38-.1l.28-.2Z" fill="#FDDA65"/><path d="M8.63 8.88a.15.15 0 0 1-.02-.07c0-.03.01-.06.05-.07l.12-.04.15.01a.06.06 0 0 1 .04.08l-.02.03a.45.45 0 0 1-.32.06Z" fill="#90BF5F"/><path d="M9.92 8.75a.8.8 0 0 1 .38.1c.17.1.16.16-.03.2a.44.44 0 0 0-.3.24.1.1 0 0 1-.1.06c-.24-.02-.35.07-.34.27v.18c.05.08.08.12.1.1a1.38 1.38 0 0 1 .2-.06l.03.01c.03.02.05.05.04.09 0 .03-.02.05-.05.07-.2.1-.26.17-.15.23.11 1.13-1.21 1.74-2.15 1.75a.47.47 0 0 0-.44.01.1.1 0 0 0-.05.08l-.03.3c-.2.03-.32-.03-.34-.19a.16.16 0 0 1 .08-.16c.41-.26.73-.58.97-.95.07-.11.19-.19.25-.3.12-.21.29-.33.38-.56.06-.14.14-.27.25-.4.26-.3.54-.58.86-.86.1-.08.25-.15.44-.21Z" fill="#017228"/><path d="M9.53 9.8v-.18c.08.03.15 0 .2-.1a.13.13 0 0 1 .06-.04h.05c.03.03.04.05.03.09-.03.1-.14.18-.34.23Zm1.2 2.92a3.6 3.6 0 0 1-2.6 1.11.11.11 0 0 1-.08-.1l.01-1.02.25-.07c.04 0 .07 0 .1.02.04.02.09.03.14.03.04 0 .05-.02.03-.06-.1-.14-.39-.17-.54-.18a.06.06 0 0 1-.06-.04l-.07-.23a.05.05 0 0 0-.03-.04h-.03a.12.12 0 0 1-.1.02.39.39 0 0 1-.2-.17c.94-.01 2.26-.62 2.15-1.75.1-.06.2-.13.27-.22.13-.13.25-.18.4-.07.06.04.05.06 0 .08h-.03a.05.05 0 0 0-.04.04c-.04.15 0 .27.1.38a.1.1 0 0 1 .01.12.63.63 0 0 0-.12.4c0 .33-.12.64-.33.89-.1.11-.09.2.05.27l.38.18c.03 0 .05.03.06.05.05.08.08.16.1.24.02.08.08.12.18.12Z" fill="#59A33F"/><path d="M11.11 12.28c-.05-.08-.17-.11-.34-.1a.11.11 0 0 1-.13-.14c.07-.27.06-.52.24-.77.25-.36.46-.71.36-1.17l.54-.05a.05.05 0 0 1 .04.02l.01.02v.02c0 .82-.24 1.54-.72 2.17Z" fill="#9CC24F"/><path d="M7.54 12c.06.08.13.13.21.16.04.01.07 0 .1-.01h.03l.03.03.07.23a.06.06 0 0 0 .06.04c.15 0 .45.04.54.18.02.04.01.06-.03.06a.27.27 0 0 1-.14-.03.13.13 0 0 0-.1-.01l-.25.06c-.02-.05-.07-.07-.13-.03a.09.09 0 0 0-.04.08v.97c0 .04-.02.05-.05.06-.52.02-1-.08-1.46-.31.16-.4.38-.77.65-1.1l.03-.3a.1.1 0 0 1 .05-.08.47.47 0 0 1 .43 0Z" fill="#FDDA65"/><path d="M11.9 6.7c-.1-.2-.16-.15-.34-.23a.08.08 0 0 1 0-.14c.19-.1.45-.15.6.05.09.11.1.22.02.33-.1.15-.2.15-.28-.01Z" fill="#fff"/></svg>