<!-- by TradingView --><svg width="18" height="18" viewBox="0 0 18 18" xmlns="http://www.w3.org/2000/svg"><path fill="#F0F3FA" d="M0 0h18v18H0z"/><circle cx="8" cy="11" r="1" fill="#E32028"/><circle cx="7.74" cy="10.71" fill="#FFD4D1" r=".42"/><circle cx="12" cy="5" r="1" fill="#E32028"/><circle cx="11.74" cy="4.71" fill="#FFD4D1" r=".42"/><path d="M11 7a1 1 0 1 1 2 0v4.34l-.85.66-1.15-.66V7Z" fill="url(#a44fmayxt)"/><path d="M5.88 12.4a.99.99 0 0 1-1.25.54.9.9 0 0 1-.57-1.18l2.2-5.64 1.06-.08.83.59-2.27 5.77Z" fill="url(#b44fmayxt)"/><path d="M7.88 5.06c-1.13 0-1.63.93-1.74 1.4.06-.08.3-.26.6-.26.46 0 .76.43.86.65l2.24 4.53c.26.53.78 1.5 1.82 1.5 1.1 0 1.34-1.08 1.33-1.61-.11.12-.38.37-.58.37-.2 0-.38-.25-.45-.37-.75-1.55-2.3-4.72-2.49-5.07-.23-.44-.67-1.14-1.59-1.14Z" fill="url(#c44fmayxt)"/><defs><linearGradient id="a44fmayxt" x1="12" y1="6.12" x2="12" y2="12" gradientUnits="userSpaceOnUse"><stop stop-color="#00A1ED"/><stop offset="1" stop-color="#06446D"/></linearGradient><linearGradient id="b44fmayxt" x1="7.27" y1="6.29" x2="4.77" y2="13.09" gradientUnits="userSpaceOnUse"><stop stop-color="#00426D"/><stop offset="1" stop-color="#009EFE"/></linearGradient><linearGradient id="c44fmayxt" x1="6.7" y1="5.37" x2="11.85" y2="13.44" gradientUnits="userSpaceOnUse"><stop offset=".14" stop-color="#C9E6F6"/><stop offset=".47" stop-color="#21B7F1"/><stop offset=".91" stop-color="#014E76"/></linearGradient></defs></svg>