<!-- by TradingView --><svg width="18" height="18" viewBox="0 0 18 18" xmlns="http://www.w3.org/2000/svg"><path fill="#F0F3FA" d="M0 0h18v18H0z"/><path fill-rule="evenodd" d="M3 9.02c0-.81.16-1.59.45-2.3l.86.54a4.93 4.93 0 0 0-.14 3.04 6.19 6.19 0 0 0 3.49-6.06c-1.03.3-1.92.9-2.56 1.72l-.92-.53a5.98 5.98 0 0 1 9.64 0l-.92.54a4.95 4.95 0 0 0-2.65-1.75 6.19 6.19 0 0 0 3.57 6.13 4.95 4.95 0 0 0-.13-3.09l.86-.53c.29.7.45 1.48.45 2.3 0 3.06-2.04 5.6-5 5.97v-1.12a4.3 4.3 0 0 0 2.64-1.54 6.06 6.06 0 0 0-7.16.13A4.22 4.22 0 0 0 8 13.89V15c-2.87-.35-5-3.17-5-5.98Zm4.76.58c.5-.6.9-1.3 1.2-2.05.28.75.68 1.44 1.18 2.05a7.24 7.24 0 0 0-2.38 0Z" fill="#FDAB2A"/></svg>