<!-- by TradingView --><svg xmlns="http://www.w3.org/2000/svg" width="18" height="18"><path fill="#F0F3FA" d="M0 0h18v18H0z"/><path d="M10.18 6.24a2.85 2.85 0 011.54.04 2.85 2.85 0 00-.97-1.4A4.1 4.1 0 009 5.33c.45.23.85.54 1.18.91z" fill="#F8A058"/><path d="M7.18 10.82c.17.34.38.66.64.94.39-.1.75-.28 1.06-.52a4.1 4.1 0 01-1.7-.42z" fill="#E55E31"/><path d="M10.18 11.76c-.33.37-.73.68-1.18.9a4.1 4.1 0 001.75.46c.45-.35.8-.84.97-1.4a2.84 2.84 0 01-1.54.04z" fill="#F8A056"/><path d="M7.82 6.24c-.26.28-.47.6-.64.94a4.1 4.1 0 011.7-.42c-.31-.24-.67-.42-1.06-.52z" fill="#E06032"/><path d="M15 9c0-1.62-.94-3.03-2.3-3.7.27.55.42 1.17.42 1.82v.13a2.83 2.83 0 010 3.5v.13a4.1 4.1 0 01-.42 1.82A4.12 4.12 0 0015 9z" fill="#FDC990"/><path d="M8.16 8.16c-.51.16-.96.45-1.3.84.34.39.79.68 1.3.84a2.84 2.84 0 010-1.68z" fill="#E35F2F"/><path d="M9.84 8.16a2.85 2.85 0 010 1.68c.51-.16.96-.45 1.3-.84a2.85 2.85 0 00-1.3-.84z" fill="#EC7B2A"/><path d="M7.82 6.24c.33-.37.73-.68 1.18-.9a4.1 4.1 0 00-1.75-.46c-.45.35-.8.84-.97 1.4a2.84 2.84 0 011.54-.04z" fill="#F8A057"/><path d="M10.82 7.18a4.14 4.14 0 00-.64-.94c-.39.1-.75.28-1.06.52.61.02 1.19.17 1.7.42z" fill="#EC7B2B"/><path d="M7.82 11.76a2.83 2.83 0 01-1.54-.04c.17.56.52 1.05.97 1.4A4.1 4.1 0 009 12.67a4.13 4.13 0 01-1.18-.91z" fill="#F8A058"/><path d="M10.18 11.76c.26-.28.47-.6.64-.94a4.1 4.1 0 01-1.7.42c.31.24.67.42 1.06.52z" fill="#F2A752"/><path d="M4.88 10.75a2.83 2.83 0 010-3.5v-.13c0-.65.15-1.27.42-1.82a4.12 4.12 0 000 7.4 4.1 4.1 0 01-.42-1.82v-.13z" fill="#FCC992"/><path d="M10.82 10.82c.34-.17.66-.38.94-.64-.1-.39-.28-.75-.52-1.06a4.1 4.1 0 01-.42 1.7z" fill="#EC7B2B"/><path d="M7.25 4.88a2.83 2.83 0 013.5 0h.13c.65 0 1.27.15 1.82.42a4.12 4.12 0 00-7.4 0 4.1 4.1 0 011.82-.42h.13z" fill="#F5C29C"/><path d="M8.16 9.84c.16.5.45.96.84 1.3.39-.34.68-.8.84-1.3a2.85 2.85 0 01-1.68 0z" fill="#EC7B2B"/><path d="M6.24 10.18c.28.26.6.47.94.64a4.1 4.1 0 01-.42-1.7c-.24.31-.42.67-.52 1.06z" fill="#E6632F"/><path d="M11.72 6.28a2.85 2.85 0 01.04 1.54c.37.33.68.73.9 1.18a4.1 4.1 0 00.46-1.75c-.35-.45-.84-.8-1.4-.97z" fill="#FBB77D"/><path d="M6.24 7.82a2.87 2.87 0 01.04-1.54c-.56.17-1.05.52-1.4.97.02.63.18 1.22.45 1.75.23-.45.54-.85.9-1.18z" fill="#F8A058"/><path d="M9 11.14a2.85 2.85 0 01-.84-1.3A2.85 2.85 0 016.86 9l-.1.12c.02.61.17 1.19.42 1.7.51.25 1.09.4 1.7.42l.12-.1z" fill="#E73E27"/><path d="M10.75 4.88c.45.35.8.84.97 1.4.56.17 1.05.52 1.4.97v-.13a4.1 4.1 0 00-.42-1.82 4.1 4.1 0 00-1.82-.42h-.13z" fill="#F09A4D"/><path d="M11.14 9c-.34.39-.79.68-1.3.84-.16.5-.45.96-.84 1.3l.12.1a4.1 4.1 0 001.7-.42c.25-.51.4-1.09.42-1.7a3.3 3.3 0 00-.1-.12z" fill="#EA6927"/><path d="M4.88 7.25c.35-.45.84-.8 1.4-.97.17-.56.52-1.05.97-1.4h-.13a4.1 4.1 0 00-1.82.42 4.1 4.1 0 00-.42 1.82v.13z" fill="#F68736"/><path d="M9.12 11.24a2.39 2.39 0 01-.12-.1l-.12.1c-.31.24-.67.42-1.06.52.33.37.73.68 1.18.9.45-.22.85-.53 1.18-.9-.39-.1-.75-.28-1.06-.52z" fill="#E75424"/><path d="M9.84 8.16C9.7 7.65 9.4 7.2 9 6.86c-.39.34-.68.79-.84 1.3a2.84 2.84 0 011.68 0z" fill="#EC7B2B"/><path d="M11.76 10.18a2.86 2.86 0 01-.04 1.54 2.85 2.85 0 001.4-.97A4.1 4.1 0 0012.67 9a4.2 4.2 0 01-.9 1.18z" fill="#F6B982"/><path d="M6.24 10.18A4.14 4.14 0 015.34 9a4.1 4.1 0 00-.46 1.75c.35.45.84.8 1.4.97a2.85 2.85 0 01-.04-1.54z" fill="#F6A057"/><path d="M11.24 8.88c.24-.31.42-.67.52-1.06-.28-.26-.6-.47-.94-.64.25.51.4 1.09.42 1.7z" fill="#EC7B2B"/><path d="M10.75 13.12a2.83 2.83 0 01-3.5 0h-.13a4.1 4.1 0 01-1.82-.42 4.12 4.12 0 007.4 0 4.1 4.1 0 01-1.82.42h-.13z" fill="#F3C39E"/><path d="M7.18 7.18c-.34.17-.66.38-.94.64.1.39.28.75.52 1.06.02-.61.17-1.19.42-1.7z" fill="#ED5E31"/><path d="M6.86 9c.34-.39.79-.68 1.3-.84.16-.5.45-.96.84-1.3a2.9 2.9 0 00-.12-.1 4.1 4.1 0 00-1.7.42 4.1 4.1 0 00-.42 1.7l.1.12z" fill="#E73E27"/><path d="M13.12 10.75c-.35.45-.84.8-1.4.97a2.85 2.85 0 01-.97 1.4h.13a4.1 4.1 0 001.82-.42 4.1 4.1 0 00.42-1.82v-.13z" fill="#F09A4F"/><path d="M7.25 13.12c-.45-.35-.8-.84-.97-1.4a2.85 2.85 0 01-1.4-.97v.13c0 .65.15 1.27.42 1.82a4.1 4.1 0 001.82.42h.13z" fill="#F68736"/><path d="M9 6.86c.39.34.69.8.84 1.3.51.16.96.45 1.3.84l.1-.12a4.1 4.1 0 00-.42-1.7 4.1 4.1 0 00-1.7-.42l-.12.1z" fill="#EA6927"/><path d="M9 5.33c-.45.23-.85.54-1.18.91A2.83 2.83 0 019 6.86l.12-.1c.31-.24.67-.42 1.06-.52A4.14 4.14 0 009 5.34z" fill="#EB5324"/><path d="M6.76 8.88c-.24-.31-.42-.67-.52-1.06-.37.33-.68.73-.9 1.18.22.45.53.85.9 1.18A2.84 2.84 0 016.86 9a2.87 2.87 0 01-.1-.12z" fill="#E73E27"/><path d="M11.76 7.82A2.84 2.84 0 0111.14 9l.1.12c.24.31.42.67.52 1.06.37-.33.68-.73.9-1.18a4.14 4.14 0 00-.9-1.18z" fill="#EA6927"/></svg>