<!-- by TradingView --><svg width="18" height="18" viewBox="0 0 18 18" xmlns="http://www.w3.org/2000/svg"><path fill="#F0F3FA" d="M0 0h18v18H0z"/><path d="M6.9 7h1.5c-.29 0-.48.44-.54.67L6.96 11H5.52c.29 0 .48-.44.54-.67l.72-2.66-2.16 2.44c-.43.53-.72.89-.9.89H3c.46 0 2.13-2.14 2.81-3.02l.25-.31C6.35 7.3 6.6 7 6.9 7Zm3.44 0h1.06c-.14 0-.3.3-.35.44l-.71 2.67c-.29.71-.36.89-.89.89H7.5c0-.36.37-.36.55-.36h.35c.43 0 .75-.68.87-.97l.53-1.78c.18-.67.42-.89.54-.89ZM15 7h-1.07c-.12 0-.43.27-.71 1.33l-.36 1.34c-.06.3-.28.97-.71.97h-.54c-.18 0-.46-.3-.18-1.2l.54-2c.06-.14.21-.44.36-.44h-.54c-.06 0-.21.13-.36.67l-.53 2c-.18.66-.18 1.33.53 1.33h1.6c.54 0 .61-.27.9-1.33l.54-1.78c.05-.3.24-.89.53-.89Z" fill="#023B8F"/></svg>