<!-- by TradingView --><svg width="18" height="18" viewBox="0 0 18 18" xmlns="http://www.w3.org/2000/svg"><path fill="url(#aaslgzaw3)" d="M0 0h18v18H0z"/><path fill-rule="evenodd" d="M11 11.4c1.34 0 2.4-1.06 2.4-2.4 0-1.34-1.06-2.4-2.4-2.4A2.38 2.38 0 0 0 8.6 9c0 1.34 1.06 2.4 2.4 2.4Zm0 1.6a4 4 0 1 0 0-8 4 4 0 0 0 0 8Z" fill="#fff"/><path d="M6.4 9c0 1.34-1.06 2.4-2.4 2.4V13a4 4 0 0 0 0-8v1.6c1.34 0 2.4 1.06 2.4 2.4Z" fill="#fff"/><circle cx="11.5" cy="8.5" r="1" fill="#fff"/><defs><linearGradient id="aaslgzaw3" x1="3.35" y1="3.12" x2="21.9" y2="24.43" gradientUnits="userSpaceOnUse"><stop stop-color="#1A1E21"/><stop offset="1" stop-color="#06060A"/></linearGradient></defs></svg>