<!-- by TradingView --><svg width="18" height="18" viewBox="0 0 18 18" xmlns="http://www.w3.org/2000/svg"><path fill="#F0F3FA" d="M0 0h18v18H0z"/><path d="m12.6 10.27-1.03-1.95v3.25c-.06.4-.41.8-.86.8-.66.02-1.14-.53-.88-1.22.43-1.1.75-2.15 1.17-3.26L10.58 7c-.74 1.23-1.51 2.39-2.22 3.63a2.42 2.42 0 1 0 4.23-.36h.01Z" fill="#E31837"/><path d="m5.4 7.71 1.03 1.97V6.16c0-.5.43-.8.86-.8.66 0 1.14.8.87 1.46C7.71 7.92 7.43 8.9 7 10l.5 1c.73-1.22 1.42-2.4 2.13-3.64A2.4 2.4 0 0 0 5.6 4.79a2.4 2.4 0 0 0-.21 2.92h.01Z" fill="#F78F1D"/></svg>