<!-- by TradingView --><svg xmlns="http://www.w3.org/2000/svg" width="18" height="18" viewBox="0 0 18 18"><path fill="#241CF8" d="M0 0h18v18H0z"/><path fill-rule="evenodd" d="M10.76 5l-1.51-.92a.5.5 0 0 0-.52 0L7.23 5a.5.5 0 0 0-.23.42v1.63l.63-.35.63-.35c.45-.26 1-.26 1.46 0l1.28.7V5.43a.5.5 0 0 0-.24-.43zm-.7 7.29l1.2-.66c.47-.27.76-.77.76-1.32V8.75l1.24.68a.5.5 0 0 1 .26.44l-.01 1.78a.5.5 0 0 1-.26.44l-1.53.85a.5.5 0 0 1-.48 0l-1.18-.65zm-1.02.57l1.71.96c.45.25 1 .25 1.46 0l1.53-.86c.47-.26.76-.76.76-1.3V9.88c0-.55-.28-1.06-.76-1.32L12 7.6V5.43c0-.53-.27-1.01-.72-1.28l-1.5-.93a1.5 1.5 0 0 0-1.58 0l-1.49.93A1.5 1.5 0 0 0 6 5.42V7.6l-1.7.94c-.49.26-.8.77-.8 1.32v1.8c0 .53.33 1.02.8 1.29l1.56.87c.46.25 1.01.25 1.47 0l1.7-.96zm-.92-5.28l.65-.36a.5.5 0 0 1 .48 0l1.51.86c.12.07.2.19.24.32v1.85a.5.5 0 0 1-.25.44l-1.52.86a.5.5 0 0 1-.5 0l-1.48-.85a.5.5 0 0 1-.25-.44V8.42a.5.5 0 0 1 .25-.35l.87-.5zM6 8.75v1.54c0 .54.3 1.04.77 1.31l1.25.7-1.17.64a.5.5 0 0 1-.49 0l-1.56-.87a.5.5 0 0 1-.26-.43l-.01-1.78c0-.19.1-.36.26-.45l1.21-.66z" fill="#fff"/></svg>