<!-- by TradingView --><svg xmlns="http://www.w3.org/2000/svg" width="18" height="18"><path fill="#F0F3FA" d="M0 0h18v18H0z"/><path d="M4.64 6.4l-.35-.3a4.4 4.4 0 012.9-1.68c-.4.2-1.3.8-1.8 1.62l.37.28a4.1 4.1 0 00-1 2.67c0 2.37 2.06 4.3 4.6 4.3.29 0 .57-.03.84-.08l.01.03A4.8 4.8 0 017.6 14C5.06 14 3 12.07 3 9.7c0-1.33.64-2.5 1.64-3.3z" fill="#0000FE"/><circle cx="7.5" cy="5.5" fill="#0000FE" r=".5"/><path d="M13.82 8A4.4 4.4 0 009 4.01a4.88 4.88 0 014.02 4.45H14c.1 2.7-1.52 4.38-2.5 4.82 3.15-.86 3.63-3.92 3.47-5.28h-1.15z" fill="#B3B3B3"/></svg>