<!-- by TradingView --><svg width="18" height="18" viewBox="0 0 18 18" xmlns="http://www.w3.org/2000/svg"><path fill="#F0F3FA" d="M0 0h18v18H0z"/><circle cx="8.5" cy="4.5" r="1.5" fill="url(#aovoupxp0)"/><path d="M9.23 10.44c-.96 0-1.34-.82-1.32-.85-.27.3-.76 1-.55 1.43.21.43 1.23.73 1.71.83l1.86-1.44c-.25 0-.93.03-1.7.03Z" fill="url(#bovoupxp0)"/><path d="M9.9 6.17c.61-.51.73-1 .7-1.17.02 0 .2.16.88.86.7.68.18 1.54-.16 1.88-.54.4-1.82 1.36-2.69 2.03a1.4 1.4 0 0 0-.42 1.88C7.48 11.4 6 10.66 6 9.77c0-1.12 3.12-2.97 3.9-3.6Z" fill="url(#covoupxp0)"/><path d="M8.17 15c.12-.7 1.8-1.93 3.2-3.02 1.1-.85.51-1.87.05-2.3a15.7 15.7 0 0 0-2.29 1.44C8.42 11.7 7 13.02 7 13.65c0 .64.78 1.17 1.18 1.35Z" fill="url(#dovoupxp0)"/><defs><linearGradient id="aovoupxp0" x1="6.85" y1="3.6" x2="10" y2="5.26" gradientUnits="userSpaceOnUse"><stop offset=".38" stop-color="#FFC720"/><stop offset="1" stop-color="#BA921F"/></linearGradient><linearGradient id="bovoupxp0" x1="7.87" y1="10.9" x2="9.91" y2="11.14" gradientUnits="userSpaceOnUse"><stop offset=".17" stop-color="#775A27"/><stop offset=".39" stop-color="#B69529"/></linearGradient><linearGradient id="dovoupxp0" x1="12.31" y1="10.04" x2="7.95" y2="14.67" gradientUnits="userSpaceOnUse"><stop offset=".11" stop-color="#947529"/><stop offset=".24" stop-color="#BB9929"/><stop offset=".43" stop-color="#FBC626"/><stop offset=".79" stop-color="#FEE19A"/><stop offset="1" stop-color="#E5B82B"/></linearGradient><radialGradient id="covoupxp0" cx="0" cy="0" r="1" gradientUnits="userSpaceOnUse" gradientTransform="matrix(5.39956 -5.49958 4.22768 4.15079 6.3 11.07)"><stop offset=".08" stop-color="#EEBE28"/><stop offset=".21" stop-color="#FFDF93"/><stop offset=".84" stop-color="#B89729"/><stop offset="1" stop-color="#977829"/></radialGradient></defs></svg>