<!-- by TradingView --><svg width="18" height="18" viewBox="0 0 18 18" xmlns="http://www.w3.org/2000/svg"><path fill="#F0F3FA" d="M0 0h18v18H0z"/><path d="M8.23 4h1.54C11.54 4 13 5.36 13 7.03v5.2c0 .42-.37.77-.82.77H5.82c-.45 0-.82-.35-.82-.77v-5.2C5 5.36 6.46 4 8.23 4Zm3.75 7.91c-.46-.22-.37-.41-.64-.83-.2-.3-.45-.48-.75-.64A4.17 4.17 0 0 0 9 10.2c-.6 0-1.2.07-1.57.22-.4.16-.67.43-.9.82-.54.9-.59.8-.32 1.04.38.28 2.4.17 3.04.17 1.77 0 2.58.25 2.73-.53ZM5.77 7.22c-.28.67-.43 2.39.45 2.4.17 0 .39.02.65-.13.1-.05 1.38-1.76 1.28-2.38C7.87 7.02 7.44 6.98 7 7c-.45.02-.9.09-1.23.22Zm5.48 2.4h.8c.48-.23.4-.42.39-1.1-.01-.52.05-.97-.16-1.32-.24-.13-.68-.2-1.13-.2-.49 0-1 .07-1.29.23 0 .57 1 2.17 1.4 2.4Zm-2.32-1.8c-.34.2-.36.41-.68.8-.25.33-.36.42-.27.9.28.08.67.1 1.04.1.4 0 .79-.02 1.03-.16.06-.56-.64-1.5-1.12-1.64Zm.41-3.1c0 .26-.03.8-.03 1.21 0 .53-.07.7.41.76 1.12.14.87-.89.79-1.72a1.4 1.4 0 0 0-1.17-.26Zm-1.75.16c-.06.26-.13.56-.13.85 0 .53.19.98.76.91.4-.04.48-.49.47-.95 0-.37-.05-.75-.13-.96-.38-.1-.66 0-.97.15ZM5.74 6.35c.39.43.61.4 1.1.06l.01-1.02c-.59-.04-1.03.46-1.11.96Zm5.41.18h.71c.44-.02.5-.3.1-.78-.57-.7-.8-.14-.8.78ZM6.21 10.2c-.77-.01-.72.62-.45.75.44.2.47-.47.45-.75Zm5.95.8.3-.23-.23-.54-.44.11c-.04.49-.1.48.37.65Z" fill="#181B1E"/></svg>