<!-- by TradingView --><svg width="18" height="18" viewBox="0 0 18 18" xmlns="http://www.w3.org/2000/svg"><path fill="#F0F3FA" d="M0 0h18v18H0z"/><path d="M9 3a1.08 1.08 0 0 1 2.55 2.74c.1.37-.02.75-.3 1.01a33.36 33.36 0 0 0-.45.43c.02-.1-.01-.2-.1-.27a184.28 184.28 0 0 1-1.72-1.68L7.3 6.9a.28.28 0 0 0-.09.28c0 .03 0 .03-.02 0a34.8 34.8 0 0 0-.44-.43 1.05 1.05 0 0 1 0-1.52A1150.16 1150.16 0 0 1 9 3Z" fill="#1A1919"/><path d="M9 13.1a.9.9 0 0 1 .17-.46 1343.7 1343.7 0 0 0 3.63-3.66l-.03-.03a138.98 138.98 0 0 1-1.65-1.67l1.1-1.08h.01a1.35 1.35 0 0 1 1.87 3.76l-5.07 5.03L9 15l-.03-.01L3.9 9.96A1.35 1.35 0 0 1 3.92 8 3855.59 3855.59 0 0 1 5.8 6.2l1.09 1.08v.02A139.41 139.41 0 0 1 5.2 9l.05.06a1348.86 1348.86 0 0 0 3.59 3.58.9.9 0 0 1 .17.47Z" fill="#1A1919"/><path d="M9 11.27c1.27 0 2.3-1.02 2.3-2.27A2.28 2.28 0 0 0 9 6.73 2.28 2.28 0 0 0 6.7 9 2.28 2.28 0 0 0 9 11.27Z" fill="#FCD020"/></svg>