<!-- by TradingView --><svg width="18" height="18" viewBox="0 0 18 18" xmlns="http://www.w3.org/2000/svg"><path fill="#F0F3FA" d="M0 0h18v18H0z"/><path d="M13.56 7.48s.19-.18.19-.53C13.75 6.6 12.76 5 9 5 5.23 5 4.35 6.7 4.35 6.96c0 .27.19.52.19.52C2.98 7.68 3 9.38 3 9.5c0 .12-.06 1.9 1.5 2.1 0 0-.15.34-.15.6 0 .27.88 1.8 4.65 1.8 3.76 0 4.64-1.53 4.64-1.8 0-.26-.06-.54-.06-.54 1.48-.18 1.4-1.99 1.42-2.16 0-.17.09-1.83-1.44-2.02Z" fill="#E50621"/><path fill-rule="evenodd" d="M13.5 12.03c-.07 1.36-3.87 1.69-4.51 1.69-.65 0-4.4-.32-4.49-1.67 0 0 0-.37.16-.65-.1.03-1.31-.18-1.36-1.85v-.1c.05-1.67 1.25-1.88 1.36-1.85-.16-.28-.16-.63-.16-.63C4.58 5.6 8.28 5.3 9 5.28c.7-.02 4.44.33 4.52 1.69 0 0 0 .35-.16.63.1-.03 1.3.18 1.36 1.85v.1c-.05 1.67-1.26 1.88-1.36 1.85.15.28.16.63.16.63Zm-.3-.23c0 1.04-3.32 1.3-4.16 1.36-.85-.07-4.24-.37-4.24-1.41 0 0-.01-.22.26-.5.06-.05.08-.09.08-.1 0-.02-.01-.03-.04-.03l-.18.03c-.07.02-.14.04-.19.04-.13 0-.83-.3-.83-1.73s.7-1.74.83-1.74l.2.04c.15.04.32.09.13-.1-.27-.27-.26-.55-.26-.55 0-.98 3-1.18 4.06-1.25l.18-.02.16.02c1.05.07 4 .27 4 1.25 0 0 .02.28-.25.55-.19.19-.03.14.14.1l.18-.04c.14 0 .84.3.84 1.74 0 1.43-.7 1.73-.84 1.73l-.17-.04c-.17-.04-.34-.08-.15.1.27.28.26.55.26.55Z" fill="#F0F3FA"/><path d="M7.94 7s.28 1-.41 1C6.83 8 6 7.5 6 8s.26 1.14.9 1.14c.53 0 .75-.14.84-.14.02 0 .04.01.05.05.06.17-.1.8-.48.8-.37 0-.65-.31-.8-.11a.12.12 0 0 0-.01.07c0 .27.47.97.47 1.6 0 .45-.12.6-.3.59-.1 0-.22-.07-.34-.1-.34-.05-.8.15-.94.09-.16-.06.2-.46.2-1.16S5 8.43 5 7.82c0-.6.4-.82.68-.82s1.6.33 2.26 0ZM10.99 7.07C10.4 7.13 9.24 7 9.24 7c-.23.08-.21.15-.17.3.03.09.07.21.06.4l.01.77.01.95c0 .8 0 1.63-.1 1.87-.16.45.07.67.35.56.16-.06.44 0 .7.07.18.04.36.08.49.08.32 0 .15-.35.15-.35-.45-.57-.63-1.44-.3-1.44.25 0 .62.65.87 1.07l.17.28c.13.19.82.43 1.23.44.25 0 .39-.06.2-.25-.47-.48-1.3-1.64-1.3-1.9 0-.08.14-.24.32-.43.33-.36.8-.88.8-1.44 0-.86-1.16-.98-1.74-.91ZM10 9.25c0-.57.1-1.05.1-1.05.17-.14.35-.2.52-.2.49 0 .94.2.94.65 0 .6-.86 1.35-1.35 1.35-.2 0-.2-.41-.21-.75Z" fill="#F0F3FA"/></svg>