<!-- by TradingView --><svg width="18" height="18" viewBox="0 0 18 18" xmlns="http://www.w3.org/2000/svg"><path fill="#162E53" d="M0 0h18v18H0z"/><path d="M8.57 3.18a.61.61 0 0 1 .86 0l2.93 2.93-1.59 2.64C9.92 10.22 8.81 11 8.07 11c-.72 0-.8-.47-.8-1.15 0-1.7.96-3.32 2.07-3.32.88 0 1.25 1.18 1.31 1.92l.82-1.53C11.01 5.9 10.25 5.5 9.46 5.5 7.13 5.5 6 8.5 6 9.92c0 1.4.86 2.08 2.26 2.08a4.01 4.01 0 0 0 3.37-2.08l1.64-2.9 1.55 1.55c.24.24.24.62 0 .86l-2.1 2.1c-.3-.32-.66-.92-.66-1.82l-.86 1.18c.08.27.38.86.99 1.18l-2.76 2.75a.61.61 0 0 1-.86 0l-5.4-5.39a.61.61 0 0 1 0-.86l5.4-5.4Z" fill="#fff"/></svg>