<!-- by TradingView --><svg width="18" height="18" viewBox="0 0 18 18" xmlns="http://www.w3.org/2000/svg"><path fill="#F0F3FA" d="M0 0h18v18H0z"/><path d="M14.95 11c-.24.27-.53.66-.92.67-.34 0-.67-.31-.83-.59-1.06-1.78-1.45-3.85-3.15-5.25A3.61 3.61 0 0 0 7.72 5c-2.18.02-3.6 2.36-3.71 4.38L4 9.63c0 2.1 1.65 3.35 3.56 3.37 1.42.01 2.43-.72 3.3-1.86.1-.14.14-.33.14-.5a.92.92 0 0 0-.13-.45c-.5-.92-.73-2.02-1.37-2.86.33.54.34 1.4.32 2.04-.02.86-.54 1.29-1.1 1.87-.42.43-.98.78-1.59.76-1.08-.03-1.14-1.32-1.13-2.17.02-1.14.16-2.48.96-3.32.29-.3.6-.5.98-.51.44-.01.82.23 1.14.51 1.33 1.22 2.07 3.47 2.93 5.03.36.64.73 1.46 1.6 1.46.74 0 1.27-.68 1.36-1.4.02-.18.02-.4.03-.57l-.05-.03" fill="#3F8096"/><path d="m13.16 9-.03-.06c-.33-.64-.7-1.26-1.05-1.88a.67.67 0 0 1-.03-.58c.33-.85.88-1.96 1.95-2.48a7.86 7.86 0 0 0-1 3.83c0 .4.05.8.15 1.17" fill="#333"/></svg>