<!-- by TradingView --><svg width="18" height="18" viewBox="0 0 18 18" xmlns="http://www.w3.org/2000/svg"><path fill="#F0F3FA" d="M0 0h18v18H0z"/><path d="M13.18 5.42A2.23 2.23 0 0 0 11.94 5c-1.21 0-2.2.76-2.2 2 0 1.02.91 1.74 1.78 2.12.81.36 1.48.68 1.48 1.73 0 .76-.44 1.15-1.17 1.15-.77 0-1.29-.58-1.46-1.29l-.85.25c.25 1.08 1.15 2.04 2.3 2.04 1.22 0 2.18-.94 2.18-2.15 0-1.28-.86-2.07-1.97-2.54-.59-.25-1.32-.58-1.32-1.32 0-.62.5-.99 1.23-.99.51 0 .96.3 1.24.72l.74-.58c-.15-.22-.4-.5-.74-.72ZM9.52 13 6.25 5 3 13h1.03l2.22-5.49L8.48 13h1.04Z" fill="#38818B"/></svg>