<!-- by TradingView --><svg width="18" height="18" viewBox="0 0 18 18" xmlns="http://www.w3.org/2000/svg"><path fill="#F0F3FA" d="M0 0h18v18H0z"/><path d="M3.13 7.54a8.26 8.26 0 0 0 0 2.97c.15.57.71 1.73 1 2.09l.19.22.67-.34c.37-.18.85-.46 1.08-.61A6.86 6.86 0 0 0 7.6 10.3L7.8 10l-.33.22c-.75.5-1.5.93-2.47 1.24V9.94c.57-.25 1.37-.9 2.07-1.6.38-.38.69-.74.69-.79 0-.05-.23.04-.51.19-.57.31-1.63.5-2.25.65V6.87c1.31-.46 3.27-1.28 4.1-2.4.66 1.18 2.67 1.93 3.9 2.4V8.4c-.66-.11-1.95-.32-2.45-.78-.17-.17-.22-.18-.22-.06 0 1 1.86 2.1 2.67 2.58v1.41c-.82-.4-1.48-.67-2.2-1.25a2 2 0 0 0-.4-.27c-.17 0-.01.24.51.8a7.4 7.4 0 0 0 2.17 1.6l.61.33.2-.24c.32-.4.9-1.73 1.03-2.37.17-.89.07-2.22-.23-3.07a6.22 6.22 0 0 0-4.2-3.9 6.16 6.16 0 0 0-7.36 4.36Zm4.1 5.25a6.9 6.9 0 0 1-1.13.89c-.24.13-.44.26-.44.3C5.66 14.15 7.62 15 8 15v-2.86c-.03 0-.4.3-.78.65Zm2.77.79V15c.26 0 1.26-.4 1.81-.68.54-.27.56-.3.38-.42A31.48 31.48 0 0 1 10 12.23v1.35Z" fill="#005138"/></svg>