<!-- by TradingView --><svg width="18" height="18" viewBox="0 0 18 18" xmlns="http://www.w3.org/2000/svg"><path fill="#F0F3FA" d="M0 0h18v18H0z"/><path d="M7.67 5H8.8a7.37 7.37 0 0 1-.64 2.33c-.16-.3-.5-1-.5-2.33ZM9 5.9a6.27 6.27 0 0 0 6 5.1v1a7.1 7.1 0 0 1-6.67-4.22l.11-.25A8 8 0 0 0 9 5.89Z" fill="url(#a02dzsook)"/><path d="M3 12v-1a5.96 5.96 0 0 0 5-2.85c.17.3.59.96.79 1.27A7.24 7.24 0 0 1 3 12Z" fill="#474A59"/><path d="M3 10.67V9.33c3.58 0 4.23-3.15 4.33-3.91 0 .87.4 2.05.55 2.42A5.91 5.91 0 0 1 3 10.67ZM15 9.33v1.34c-4.16 0-5.76-3.86-6-5.67h1.67c.24 3.57 3 4.38 4.33 4.33Z" fill="#474A59"/><defs><linearGradient id="a02dzsook" x1="7.47" y1="5.09" x2="15.12" y2="12.17" gradientUnits="userSpaceOnUse"><stop stop-color="#F6D724"/><stop offset="1" stop-color="#3B2720"/></linearGradient></defs></svg>