<!-- by TradingView --><svg width="18" height="18" viewBox="0 0 18 18" xmlns="http://www.w3.org/2000/svg"><path fill="#F0F3FA" d="M0 0h18v18H0z"/><path d="M12.15 13H9.57c-.7-.27-.94-.62-.63-1.46.89-2.43 1.53-4.28 1.63-4.54.04-.11 0-.17-.1-.18-1.66-.15-3.37.24-4.14 1.9-.42.9-.37 2.25.71 2.43.24.04.53.07.88.07l.73-.03.06.01c.02.02.04.03.05.06a.14.14 0 0 1-.01.14L7.65 13H6.8A3.15 3.15 0 0 1 4 10.47V9.16A5.2 5.2 0 0 1 6.58 5.6a7.64 7.64 0 0 1 3.63-.6 113.68 113.68 0 0 0 3.76.04l.02.04a.1.1 0 0 1-.01.1c-1.31 1.4-1.94 3.77-2.64 5.87a.13.13 0 0 0 .01.11.1.1 0 0 0 .04.04.1.1 0 0 0 .05.01h1.16c.12 0 .16.06.11.19L12.15 13Z" fill="#FE7700"/></svg>