<!-- by TradingView --><svg width="18" height="18" xmlns="http://www.w3.org/2000/svg"><path fill="#1B69BC" d="M0 0h18v18H0z"/><path d="M9.653 4c-1.877 0-3.347.472-3.918.764l.449 1.611s1.442-.528 2.857-.528c1.21 0 1.96.347 1.96 1.57V8H9.04C5.925 8 5 9.57 5 11.18 5 13.32 6.633 14 8.116 14c1.365 0 2.297-.46 2.688-.652.104-.052.17-.084.196-.084.019 0 .047.015.091.04.182.098.642.349 1.909.349V6.847C13 4.806 11.762 4 9.653 4zM11 11.764c-.465.18-1.592.542-2.423.542C7.676 12.306 7 12 7 11.027c0-.847.465-1.333 1.704-1.375L11 9.57v2.194z" fill="#fff"/></svg>