<!-- by TradingView --><svg width="18" height="18" viewBox="0 0 18 18" fill="none" xmlns="http://www.w3.org/2000/svg">
<rect width="18" height="18" fill="#F0F3FA"/>
<path fill-rule="evenodd" clip-rule="evenodd" d="M4.49966 11.4454C4.95603 8.96241 6.04639 6.84674 7.77076 5.09842C7.8454 5.02245 7.83123 4.99046 7.72824 5.00245C4.81146 5.35332 0.925259 8.2352 4.32108 11.5084C4.41557 11.5984 4.47509 11.5774 4.49966 11.4454ZM10.2636 5.07589C11.9445 6.97415 13.0656 8.86941 13.5503 11.4994C13.5617 11.5604 13.5914 11.5729 13.6396 11.5369C15.1745 10.3688 15.5402 8.16019 14.062 6.74174C13.0415 5.76312 11.7849 5.18734 10.292 5.01441C10.2306 5.00741 10.2211 5.02791 10.2636 5.07589Z" fill="url(#paint0_linear_229_12785)"/>
<path d="M12.0442 10.5489C9.95798 9.90711 7.9922 9.88912 5.97399 10.5803C5.96642 10.5828 5.95834 10.583 5.95068 10.5809C5.94302 10.5787 5.93607 10.5744 5.93062 10.5683C5.92517 10.5622 5.92143 10.5547 5.91982 10.5465C5.91822 10.5383 5.91882 10.5297 5.92155 10.5219C6.56783 8.61361 7.58922 6.96725 8.98572 5.58279C8.99669 5.57134 9.01154 5.56494 9.02713 5.56494C9.04273 5.56494 9.05786 5.57134 9.06934 5.58279C10.4469 6.95926 11.4594 8.59112 12.1066 10.4784C12.1293 10.5454 12.1085 10.5689 12.0442 10.5489Z" fill="#004F2F"/>
<path d="M5.45354 12.2089C7.64959 11.196 10.2981 11.2346 12.5243 12.1918C12.6267 12.2356 12.6258 12.2775 12.5214 12.3175C10.163 13.2327 7.80805 13.2275 5.45641 12.3018C5.38269 12.2732 5.38173 12.2422 5.45354 12.2089Z" fill="url(#paint1_linear_229_12785)"/>
<ellipse opacity="0.7" cx="9.00005" cy="8.28513" rx="1.61431" ry="1.70786" fill="#18765C"/>
<ellipse opacity="0.7" cx="9.00048" cy="8.28509" rx="1.03759" ry="1.09771" fill="#38846A"/>
<ellipse opacity="0.7" cx="9.00033" cy="8.28509" rx="0.427089" ry="0.451838" fill="#58937D"/>
<defs>
<linearGradient id="paint0_linear_229_12785" x1="3" y1="8.71097" x2="15.0002" y2="8.85433" gradientUnits="userSpaceOnUse">
<stop stop-color="#D49E0A"/>
<stop offset="0.494058" stop-color="#DFB24F"/>
<stop offset="1" stop-color="#D49E0B"/>
</linearGradient>
<linearGradient id="paint1_linear_229_12785" x1="5.73997" y1="12.5059" x2="12.6003" y2="12.2278" gradientUnits="userSpaceOnUse">
<stop stop-color="#DBAF43"/>
<stop offset="0.556932" stop-color="#E6C171"/>
<stop offset="1" stop-color="#DBAF43"/>
</linearGradient>
</defs>
</svg>
