<!-- by TradingView --><svg width="18" height="18" viewBox="0 0 18 18" xmlns="http://www.w3.org/2000/svg"><path fill="#103152" d="M0 0h18v18H0z"/><path d="M2 11.7v.3h2.07v-.3h-.83l.52-1.7H5.3l-.15-.3h-1.3l.93-3 1.73 5h-.96v.3h7.47c.38 0 1.98-.25 1.98-1.67 0-1.13-.95-1.51-1.42-1.56.39-.02 1.17-.31 1.17-1.36 0-1.04-1-1.37-1.5-1.41h-2.82l.1.3H11v1.88l1 2.53V9h.84c.4-.04 1.27.05 1.27 1.19 0 1.13-.76 1.48-1.1 1.51H10.1c.26-.14.78-.6.78-1.37 0-1.16-.9-1.52-1.35-1.56.37-.1 1.05-.52 1.05-1.36 0-1.13-1-1.41-1.52-1.41H6.4l.1.3H7v1.88s.7 1.52 1 2.29V9h.93c.32 0 1.05.15 1.05 1.19 0 1.16-.7 1.5-1 1.51h-1.5L5.49 6h-.98l.09.24-1.7 5.46H2Zm6-3V6.3h.84c.28.01.84.28.84 1.24 0 1.2-.84 1.16-.84 1.16H8Zm4 0V6.3h.98c.28.01.84.28.84 1.24 0 1.2-.84 1.16-.84 1.16H12Z" fill="#FFFFFC"/></svg>