<!-- by TradingView --><svg width="18" height="18" viewBox="0 0 18 18" xmlns="http://www.w3.org/2000/svg"><path fill="#F0F3FA" d="M0 0h18v18H0z"/><path fill-rule="evenodd" d="M2 12h.7l.5-1.5H4.9l.46 1.5h.74L4.08 6 2 12Zm2.68-2.25-.6-1.96-.64 1.96h1.24Z" fill="#0082C2"/><path d="M8.83 12h-.65L9.2 6l1.46 4.26L12.13 6l1.02 6h-.64l-.53-3.65L10.67 12 9.35 8.35 8.83 12Z" fill="#0082C2"/><path fill-rule="evenodd" d="M6 12V6h1.4c.34 0 1.03.31 1.03 1.54 0 .83-.4 1.17-.6 1.24.26.06.77.44.77 1.51 0 1.34-.62 1.7-1.37 1.7H6Zm.63-5.26h.47c.4 0 .72.4.72.87v.05c0 .48-.32.87-.72.87h-.47V6.74Zm0 2.46h.53c.43 0 .79.43.79.97v.05c0 .53-.36.97-.8.97h-.52v-2Z" fill="#8CADD6"/><path d="M16 11.37c-.36.3-.8.47-1.26.47-1.28 0-2.32-1.3-2.32-2.91 0-1.6 1.04-2.91 2.32-2.91.46 0 .9.17 1.26.47v.97c-.31-.42-.75-.68-1.24-.68-.93 0-1.7.96-1.7 2.15 0 1.18.77 2.15 1.7 2.15.5 0 .93-.27 1.24-.68v.97Z" fill="#8CADD6"/></svg>