<!-- by TradingView --><svg width="18" height="18" viewBox="0 0 18 18" xmlns="http://www.w3.org/2000/svg"><path fill="#F0F3FA" d="M0 0h18v18H0z"/><path d="M9.4 14.82s-.66-.71-.43-2.17c0 0-.8.63-.48 2.35 0 0-.92-1.02-.46-2.67 0 0-.63.33-.56 1.48 0 0-.62-1.22-.1-2.36 0 0-1 .58-.9 2.28 0 0-.87-1.23.12-3.14 0 0-.96.35-.83 1.91 0 0-.75-1.65.3-3.06 0 0-.9.33-.88 1.44 0 0-.7-2.49.66-4.44 0 0 .34-.44.77-.44.1 0 .23.04.35.13.59.45 1.12 1.74 1.73.93 0 0-.23.44.03.5l-.69.47c-.26.18-.58.39-.36.76.27.43.65.34.88 1.56.23 1.23.66.78.74.5.09-.3.09-.67.24-.9 0 0-.01.66.24 1 .25.35 1.78 1.71.27 3.3 0 0 .39-1.93-.54-2.48 0 0 .37 1.26.05 1.8-.31.55-.15 1.25-.15 1.25Z" fill="#0C3F5D"/><path d="M10.24 8.76s-1.2.7-.39 1.85c.8 1.15 1.28.76 1.47 3.2 0 0 .85-1.84-.2-3.06 0 0 .97.3 1.14 1.78 0 0 .8-1.69-1.06-2.62 0 0-1-.28-.96-1.15" fill="#0C3F5D"/><path d="M12.63 11.73s.67-2.62-1.82-3.27c0 0-.56.08-.32.66.24.58 1.08.9 1.08.9s.86.46 1.06 1.71Z" fill="#0C3F5D"/><path d="M10.71 8.49s.74-.59 1.7-.2c.95.4.46 1.66.46 1.66s-.25-1.56-2.16-1.46Zm2-.53s-.4-.92-1.12-.63c-.73.28-.58.83-.58.83s.79-.8 1.7-.2Z" fill="#0C3F5D"/><path d="M11.34 7.27s.2-.58-.05-.95c0 0 .37-.47.81-.1 0 0-.34-.08-.4.2 0 0 .58 0 .73.7 0 0-.5-.3-1.09.15m-5.2-1.34s.48-.4.86-.09c.38.31.87 1.06 1.43 1.13 0 0-.54-.6-.64-1-.1-.4-.66-.97-1.12-.72-.13.08-.25.18-.34.3-.09.11-.15.24-.19.38" fill="#0C3F5D"/><path d="M7 4.82s.8-.8 1.04-.41c.24.4.3 1.15.3 1.15s.02.87.37 1.12c0 0-.64-.4-.75-1.1-.1-.7-.96-.76-.96-.76m4.86 1.11s-.48-.4-.86-.09c-.38.31-.87 1.06-1.43 1.13 0 0 .54-.6.64-1 .1-.4.66-.97 1.12-.72.13.08.25.18.34.3.09.11.15.24.19.38Z" fill="#0C3F5D"/><path d="M11 4.82s-.8-.8-1.04-.41c-.24.4-.3 1.15-.3 1.15s-.02.87-.37 1.12c0 0 .64-.4.75-1.1.1-.7.96-.76.96-.76m-1.14-.68s-.49.32-.5 1.07C9.32 5.97 9 6.68 9 6.68s-.34-.71-.35-1.47c-.02-.75-.5-1.07-.5-1.07S8.44 4 9 4s.86.14.86.14m.28 4.49c-.06 0-.17.16-.2.2-.18.18-.32.4-.43.62a3.1 3.1 0 0 0-.29.9c-.02.12-.01.25-.06.36a.2.2 0 0 1-.13.12c-.1.03-.14-.04-.17-.12-.12-.32-.15-.66-.27-.98-.1-.3-.26-.6-.51-.78 0 0-.46-.38-.05-.58.29-.15.56-.32.83-.5a1597.1 1597.1 0 0 1 .1 2.56c.04.13.15.17.16.01.04-.39.02-.78.16-1.15a.98.98 0 0 1 .86-.65" fill="#0C3F5D"/><path d="M9.57 8.3c0 .16-.06.3-.14.3-.08 0-.14-.14-.14-.3 0-.17.06-.3.14-.3.08 0 .14.13.14.3Zm2.06-2.25s-.4-.4-.98.39c-.59.79-.67 1.17-1.46.6 0 0 .42.52.17.64 0 0 .27.35.36.04.02-.05.71.57.96.47.42-.16.47-1 .4-1.24-.05-.13-.2-.3-.16-.44a.6.6 0 0 1 .25-.3c.15-.09.3-.14.46-.16Z" fill="#0C3F5D"/><path d="M10.5 8a.67.67 0 0 1-.48-.24.07.07 0 0 1 0-.1.08.08 0 0 1 .1-.01l.02.01c0 .02.26.31.56.13.3-.18.06-.68.05-.68a.07.07 0 0 1 .02-.08.08.08 0 0 1 .08-.03.08.08 0 0 1 .04.04c.01.03.3.62-.11.88a.53.53 0 0 1-.28.08m-3 0c-.1 0-.2-.03-.28-.08-.41-.26-.12-.85-.11-.88A.08.08 0 0 1 7.15 7a.08.08 0 0 1 .08.03.07.07 0 0 1 .02.08s-.24.5.05.68c.3.18.55-.11.56-.12a.08.08 0 0 1 .06-.03.08.08 0 0 1 .07.04.07.07 0 0 1 0 .08.66.66 0 0 1-.49.24" fill="#B9A350"/></svg>