<!-- by TradingView --><svg width="18" height="18" viewBox="0 0 18 18" xmlns="http://www.w3.org/2000/svg"><path fill="#F0F3FA" d="M0 0h18v18H0z"/><path d="M9.77 3h.1c.47.13.82.48 1.05 1.07.24.63.59 1.19 1.03 1.67.52.57 1.07.9 1.64.97.06.01.11.04.15.09a1 1 0 0 1 .13 1.17c-.24.47-.4.98-.46 1.51-.01.07-.04.1-.1.1h-.23c-.07 0-.1-.03-.09-.1a3.4 3.4 0 0 0-.86-2.73c-.91-1.05-1.89-1.5-2.93-1.36-1.35.18-2.42.8-3.22 1.87-.42.56-.64 1.3-.66 2.21 0 .07-.03.1-.1.1h-.78c-.06 0-.1-.02-.11-.08a6.04 6.04 0 0 0-1-2.17 1.4 1.4 0 0 1-.32-1 1 1 0 0 1 .58-.82c.22-.11.55-.14 1-.09l.31.03c1.9.11 3.36-.62 4.4-2.19.08-.13.24-.22.47-.25Z" fill="#27436C"/><path d="m9 10.03-.27.02c-.08 0-.11-.03-.11-.1l.02-.48c0-.06-.02-.08-.07-.08h-.8a.11.11 0 0 0-.1.07l-.26.5a.23.23 0 0 1-.2.14l-1.38.04c-.12 0-.14-.05-.08-.15L7.8 6.56a.12.12 0 0 1 .11-.06l1.87.15c.09 0 .14.06.14.15l.08 2.41c0 .05.03.08.08.08l2.33-.02c.02 0 .03 0 .02.03l-.16.56c0 .03-.03.05-.06.05l-1.44.05c-.23 0-.38.12-.45.36l-.3 1.09c-.06.24.03.34.27.32l.45-.04c.07 0 .11-.04.13-.1l.1-.34c.02-.09-.02-.12-.1-.11l-.1.01c-.05 0-.07-.01-.05-.07l.13-.48c.01-.07.06-.1.13-.11l1-.04c.09 0 .12.04.1.12l-.43 1.51a.2.2 0 0 1-.19.17l-2.27.24c-.2.03-.37-.02-.48-.15-.11-.12-.14-.3-.09-.5l.45-1.71c.02-.07 0-.1-.08-.1Zm-.91-1.4c-.02.02 0 .04.03.04h.43c.06 0 .1-.03.1-.09l.06-1.01c0-.09-.02-.1-.06-.02-.2.35-.4.7-.56 1.07Z" fill="#1A5285"/><path d="M9.72 14.98a.41.41 0 0 1-.27 0 .47.47 0 0 1-.22-.13c-.9-.91-2.2-1.21-3.85-.89-.58.11-1.02-.05-1.31-.48-.16-.22-.17-.48-.04-.76.42-.92.55-1.84.39-2.77 0-.03 0-.04.03-.04h.84c.02 0 .03 0 .03.03.14 1.68.87 2.8 2.2 3.37.93.4 1.88.42 2.85.09a4.25 4.25 0 0 0 2.59-3.37c0-.08.05-.12.13-.12h.19c.07 0 .1.03.1.1-.05.43-.01.84.12 1.23.07.22.06.43-.04.64a.79.79 0 0 1-.46.43 4.55 4.55 0 0 0-2.36 1.92c-.31.49-.62.74-.92.75Z" fill="url(#a0ynczce0)"/><defs><linearGradient id="a0ynczce0" x1="4.9" y1="13.74" x2="12.91" y2="13.42" gradientUnits="userSpaceOnUse"><stop stop-color="#D82600"/><stop offset="1" stop-color="#B80B00"/></linearGradient></defs></svg>