<!-- by TradingView --><svg width="18" height="18" viewBox="0 0 18 18" xmlns="http://www.w3.org/2000/svg"><path fill="#F0F3FA" d="M0 0h18v18H0z"/><path d="M3.74 8C3.34 8 3 7.55 3 7s.33-1 .74-1H8v2H3.74Z" fill="#006140"/><path d="M4.8 12c-.44 0-.8-.45-.8-1s.36-1 .8-1H8v2H4.8Z" fill="#56BA48"/><path d="M8 14.26c0 .4-.45.74-1 .74s-1-.33-1-.74V10h2v4.26ZM14.26 10c.4 0 .74.45.74 1s-.33 1-.74 1H10v-2h4.26ZM10 3.74c0-.4.45-.74 1-.74s1 .33 1 .74V8h-2V3.74Z" fill="#006140"/><path d="M12 13.18c0 .45-.45.82-1 .82s-1-.37-1-.82V10h2v3.18ZM13.18 6c.45 0 .82.45.82 1s-.37 1-.82 1H10V6h3.18Z" fill="#56BA48"/><path d="M6 4.8c0-.44.45-.8 1-.8s1 .36 1 .8V8H6V4.8Z" fill="#57B94A"/></svg>