<!-- by TradingView --><svg width="18" height="18" viewBox="0 0 18 18" xmlns="http://www.w3.org/2000/svg"><path fill="#F0F3FA" d="M0 0h18v18H0z"/><path fill-rule="evenodd" d="M14.95 5.24c-1.8 2.18-2.64 4.27-2.53 6.26 0 .18-.07.25-.22.22A21.83 21.83 0 0 0 2.1 12c-.03 0-.06 0-.08-.03a.09.09 0 0 1-.01-.1c.04-.1.09-.17.13-.22A18.15 18.15 0 0 1 8.1 7.2 25.71 25.71 0 0 1 14.9 5c.05 0 .08.01.1.07.02.06 0 .12-.04.17Zm-1.41.92a10.53 10.53 0 0 0-1.7 4.6c-.02.17-.11.24-.27.21a23.74 23.74 0 0 0-7.51-.03H3.9c-.06-.02-.08-.06-.05-.12a.6.6 0 0 1 .12-.18c.18-.18.39-.35.6-.53.78-.63 1.59-1.18 2.44-1.66a24.29 24.29 0 0 1 6.39-2.5c.04-.02.08 0 .11.02.07.06.07.12.03.19Zm-1.4 1.34c-.36.77-.63 1.63-.8 2.6-.03.13-.1.19-.23.17l-1.3-.14a32.74 32.74 0 0 0-4-.06c-.03-.01-.03-.04-.01-.07.05-.07.1-.13.17-.17 1.3-.9 2.67-1.62 4.1-2.18.65-.26 1.34-.5 2.09-.73.06-.01.1 0 .15.02.04.03.04.09.01.16l-.18.4ZM8.82 8.87a21.2 21.2 0 0 1 2.28-.95c.09-.03.14 0 .16.09l-.01.13c-.15.42-.26.82-.35 1.22-.04.17-.14.25-.29.23-.76-.08-1.58-.13-2.45-.17-.08 0-.1-.04-.07-.12a.18.18 0 0 1 .08-.08c.2-.13.42-.24.65-.35Z" fill="#004275"/></svg>