<!-- by TradingView --><svg width="18" height="18" viewBox="0 0 18 18" xmlns="http://www.w3.org/2000/svg"><path fill="url(#alkphn4q0)" d="M0 0h18v18H0z"/><path d="M2 5.66c0-.37.31-.66.7-.66h12.6c.39 0 .7.3.7.66v6.67c0 .37-.31.67-.7.67H2.7c-.39 0-.7-.3-.7-.67V5.66Z" fill="#103D6D"/><path fill-rule="evenodd" d="M3.33 6c-.18 0-.33.13-.33.3v3.9c0 .17.15.3.33.3h11.34c.18 0 .33-.13.33-.3V6.3c0-.17-.15-.3-.33-.3H3.33Zm1.25.5L3.36 10h1.1l.12-.44h1.09l.1.44h1.1l-1.2-3.5H4.58Zm.53 1.17L4.8 8.73h.64l-.33-1.06ZM7 6.5V10h1V7.95L8.6 10h.84L10 7.95V10h1V6.5H9.63l-.62 2.03-.63-2.03H7Zm6.02 3.6c.92.01 1.5-.57 1.67-1.36h-1.08c-.1.3-.31.5-.6.5-.44 0-.69-.44-.69-.98s.24-.99.68-.98c.3 0 .5.2.61.5h1.08a1.62 1.62 0 0 0-1.67-1.37c-1.12 0-1.72.82-1.72 1.85 0 1.02.62 1.84 1.72 1.85Z" fill="#FDE100"/><path fill="#EAEAEA" d="M3 11h12v1H3z"/><defs><linearGradient id="alkphn4q0" x1="14.45" y1="2" x2="3.3" y2="16.41" gradientUnits="userSpaceOnUse"><stop stop-color="#C3A300"/><stop offset="1" stop-color="#FFDB00"/></linearGradient></defs></svg>