<!-- by TradingView --><svg width="18" height="18" viewBox="0 0 18 18" xmlns="http://www.w3.org/2000/svg"><path fill="#F0F3FA" d="M0 0h18v18H0z"/><path fill-rule="evenodd" d="M9 15A6 6 0 1 0 9 3a6 6 0 0 0 0 12Zm0-.35a5.65 5.65 0 1 0 0-11.3 5.65 5.65 0 0 0 0 11.3Z" fill="#00A054"/><circle cx="9" cy="9" r="2" fill="#00A054"/><path d="m4.94 8.3.2.7h.68l-.54.38.2.68-.54-.42-.54.42.2-.68L4.06 9h.67l.21-.7ZM13.41 8.3l.21.7h.67l-.54.38.2.68-.54-.42-.54.42.2-.68-.54-.38h.67l.21-.7ZM13.33 10.45c.18.13.3.26.38.41.08.15.1.3.08.45a.95.95 0 0 1-1.1.75 1.3 1.3 0 0 1-.53-.23c-.18-.12-.3-.26-.38-.4a.76.76 0 0 1 .12-.88.94.94 0 0 1 .9-.33c.17.03.35.1.53.23Zm-.23.27a1 1 0 0 0-.36-.16.6.6 0 0 0-.32 0 .54.54 0 0 0-.37.44c-.01.1.01.19.07.28.06.1.15.2.27.28.13.09.25.14.36.17.12.02.23.02.33-.01a.54.54 0 0 0 .36-.43c.01-.1-.01-.2-.07-.29a.92.92 0 0 0-.27-.28ZM8 14v-2h1.5v.31H8.43v.5h1v.31h-1v.57h1.1V14H8ZM7.91 12.64l-.36-.15a.4.4 0 0 0-.03-.32.44.44 0 0 0-.1-.12.62.62 0 0 0-.16-.1.6.6 0 0 0-.62.08.9.9 0 0 0-.25.32.85.85 0 0 0-.1.38c0 .1.02.2.08.29a.68.68 0 0 0 .42.24h.17a.48.48 0 0 0 .3-.18l.35.15a.9.9 0 0 1-.8.35 1.12 1.12 0 0 1-.75-.39.79.79 0 0 1-.16-.45c-.01-.17.03-.35.13-.54.1-.2.22-.34.37-.44.15-.1.31-.17.48-.18a1.1 1.1 0 0 1 .8.26.8.8 0 0 1 .2.22c.04.09.07.18.07.28.01.1 0 .2-.04.3ZM11.74 11.89l-.35.18a.48.48 0 0 0-.3-.17l-.17.01a.64.64 0 0 0-.18.06.54.54 0 0 0-.23.2.49.49 0 0 0-.06.3c.01.12.06.24.14.37.08.13.17.23.27.3.1.07.2.1.3.1.11.01.22-.01.32-.06l.15-.1a.46.46 0 0 0 .1-.13.38.38 0 0 0 .01-.32l.35-.17a.71.71 0 0 1 0 .55.8.8 0 0 1-.16.25c-.07.07-.17.14-.28.2-.17.08-.34.12-.51.12a.99.99 0 0 1-.5-.15c-.15-.09-.29-.23-.4-.41a1.08 1.08 0 0 1-.18-.54c0-.17.04-.32.13-.46a.95.95 0 0 1 .38-.33c.1-.05.2-.09.32-.1a.84.84 0 0 1 .85.3ZM4.23 11.37 4 11.08l2.09-.53.26.34-1.26 1.6-.23-.3 1.02-1.24-.01-.02-1.64.44Zm.66-.4.62.8-.25.15-.61-.8.24-.15ZM11.06 5.83l-.24-.15 1.28-.84.28.17-.42 1.39-.24-.15.35-1.1h-.01l-1 .68Zm.34-.43.65.4-.13.17-.65-.4.13-.17ZM7.66 5.57l-.37-1.34.27-.06.31 1.12.78-.17.06.22-1.05.23ZM5.29 5.6l-.15-.16.95-.75.15.16-.37.3.85.88-.21.17-.85-.89-.37.3ZM9.3 4.2l.03-.2 1.26.15-.03.2-.49-.05-.16 1.17-.28-.03.16-1.17-.49-.06ZM5.34 7.89 4 7.28l.3-.54c.05-.1.11-.17.18-.23a.42.42 0 0 1 .2-.1c.07 0 .14 0 .2.04.06.02.1.05.13.1.03.03.04.08.05.12 0 .05 0 .1-.02.15h.01a.39.39 0 0 1 .12-.12c.06-.03.11-.05.18-.06.06 0 .13 0 .2.04.07.03.12.08.15.14.04.06.05.13.05.21 0 .09-.04.18-.1.29l-.31.57Zm-.06-.35.14-.27c.05-.1.07-.17.06-.22a.16.16 0 0 0-.1-.12.22.22 0 0 0-.12-.02.26.26 0 0 0-.12.05.37.37 0 0 0-.1.12l-.16.28.4.18Zm-.57-.26.14-.25a.33.33 0 0 0 .04-.13.2.2 0 0 0-.02-.1.17.17 0 0 0-.09-.08.2.2 0 0 0-.16 0 .3.3 0 0 0-.14.14l-.14.26.37.16ZM13.72 7.13a.35.35 0 0 1-.07.1l.14.2c.06-.03.1-.08.14-.14a.48.48 0 0 0 .06-.37.65.65 0 0 0-.5-.49.76.76 0 0 0-.28 0 1 1 0 0 0-.3.1.87.87 0 0 0-.32.25c-.07.1-.1.2-.1.31 0 .11.03.22.1.33a.66.66 0 0 0 .27.25l-.09.04.13.2.7-.36-.3-.47-.2.1.18.26a.4.4 0 0 1-.18.05.33.33 0 0 1-.17-.05.4.4 0 0 1-.13-.13.34.34 0 0 1-.06-.2c0-.07.03-.13.08-.2a.68.68 0 0 1 .22-.17c.1-.05.19-.08.27-.08.09-.01.16 0 .23.03.06.03.12.08.16.14l.04.1v.1c0 .04 0 .07-.02.1Z" fill="#00A054"/></svg>