<!-- by TradingView --><svg width="18" height="18" viewBox="0 0 18 18" xmlns="http://www.w3.org/2000/svg"><path fill="#F0F3FA" d="M0 0h18v18H0z"/><path d="M6.72 6.15c-.1-.57.03-1.08.4-1.51.3-.35.69-.56 1.14-.63.43-.04.84.02 1.23.2.52.23.95.58 1.28 1.04a6.11 6.11 0 0 1 1.04 4.14.1.1 0 0 0 .05.03c.8.25 1.64.75 2.01 1.52.1.2.15.45.13.75-.04.52-.42 1-.9 1.22-.8.37-1.6-.29-2.02-.9a.04.04 0 0 0-.04-.01c-.02 0-.03 0-.04.02A4 4 0 0 1 7.54 14 2.51 2.51 0 0 1 5 11.44c.01-.55.21-1.1.61-1.56.7-.78 1.58-1.04 2.67-.78a4.97 4.97 0 0 1 2.9 2.28c.02 0 .03 0 .03-.02.2-.63.26-1.27.14-1.91a.18.18 0 0 0-.15-.16 9.37 9.37 0 0 1-2.6-.8c-.51-.25-.94-.59-1.3-1.03-.3-.4-.5-.83-.58-1.3Z" fill="url(#a)"/><circle cx="8.2" cy="5.2" r=".8" fill="#5593CE"/><circle cx="7" cy="11" r="1" fill="#5593CE"/><circle cx="12.5" cy="10.5" r=".5" fill="#5593CE"/><defs><linearGradient id="a" x1="5.75" y1="5.82" x2="13.61" y2="12.26" gradientUnits="userSpaceOnUse"><stop stop-color="#006FB6"/><stop offset="1" stop-color="#0360A4"/></linearGradient></defs></svg>