<!-- by TradingView --><svg width="18" height="18" viewBox="0 0 18 18" xmlns="http://www.w3.org/2000/svg"><path fill="#F0F3FA" d="M0 0h18v18H0z"/><path d="M3 12.99 8.88 3h.01L15 13H15V13H3a.01.01 0 0 1 0-.01Z" fill="#E90002"/><path d="M9.84 5.3v.02L9 5.68l-.85-.36c-.02 0-.02-.02 0-.02h.01l.8-.35h.05l.83.35Z" fill="#fff"/><path d="M8.16 5.3h-.01c-.02 0-.02.01 0 .02l.86.35V6a16 16 0 0 0-.01.48l-.73-.3-.15-.07-.02-.02v-.74c0-.04.02-.06.06-.06Z" fill="#124389"/><path d="M9.84 5.3c.03-.01.06 0 .06.03v.75l-.03.02-.23.1-.64.27v-.8a62.97 62.97 0 0 1 .84-.37Z" fill="#0C6CA8"/><path d="m8.27 6.18.72.3.65-.27.54.17-1.17.49c-.4-.14-.79-.32-1.18-.48 0 0-.02 0-.03.03v-.03l.02-.02.45-.2Z" fill="#fff"/><path d="M10.11 6.36c.03 0 .05 0 .08.02l.01.02v1.06c-.01.02-.04.04-.08.05a.35.35 0 0 0-.08.02l-.08.04c-.3.14-.65.28-.96.4-.14-.19 0-.87 0-1.1l1.14-.48v-.02l-.03-.01Z" fill="#0C6CA8"/><path d="M9 6.86v1.07l1.2.52v1.02c0 .05.02.07.04.06l.18.09.05.02c.29.12.57.23.85.36l.07.05h.01v1l.03.06 1.16.48c-.03 0-.03 0 0 .03l.01.02a517.86 517.86 0 0 1 0 1.02l.03.01c-.02.01-.03.02-.05 0l-1.2-.48a216.96 216.96 0 0 1 0-1.06l-.04-.01.01-.01v-.01c-.4-.15-.77-.33-1.16-.48a74.7 74.7 0 0 1-.03-1.09L9 9.05V8.02L8.97 8h-.05c-.01.02-.03.02-.05.02h-.02c-.25.21-.73.33-1.02.44-.02 0-.04.02-.04.05v1l.03.03h.01L9 10l.01.02v.03a43.53 43.53 0 0 1 0 1.05h.03l1.15.48a33.28 33.28 0 0 0 0 1.09l-1.2-.5v-1.04h-.01a.02.02 0 0 0-.03 0 .2.2 0 0 1-.07.02l-.02.01-.01.01-.02.02a70.39 70.39 0 0 1-.94.38c-.05 0-.1.02-.09.09v1.02l-1.2-.5-.01-1.02c0-.03-.01-.04-.04-.03a11.57 11.57 0 0 1-1.08.43l1.08-.45v-.02l-1.15-.5V9.54c.02-.01.03-.02.04 0a.3.3 0 0 0 .1.06.4.4 0 0 1 .09.03l.08.04a9.88 9.88 0 0 1 .85.35c.05.02.09 0 .12-.02a50.97 50.97 0 0 1 .8-.3h-.01a34.5 34.5 0 0 1-.86.36v.96c0 .06 0 .09.02.1l1.16.48h.02l1.13-.47c.02 0 .02-.02 0-.03l-1.08-.44-.06-.05V9.58l-.02-.03-.02-.03-1.15-.47H6.6l-.04.02v-.02l.03-.01L6.6 9V7.99c0-.03 0-.04.03-.04l1.16.5h.02l1.1-.47c.05-.02.05-.03 0-.05a.64.64 0 0 1-.11-.05 34.93 34.93 0 0 1-1-.42V6.42l.03-.03c.4.16.77.33 1.17.47Z" fill="#124389"/><path d="m10.2 7.46 1.16.5-1.16.49-1.17-.5 1.17-.5ZM7.8 7.46l.22.1a35.06 35.06 0 0 0 .89.37c.05.02.05.03 0 .05l-1.1.46H7.8l-1.16-.49a.3.3 0 0 1 .06-.03.4.4 0 0 0 .06-.03.33.33 0 0 1 .07-.03l.06-.02.92-.38Z" fill="#fff"/><path d="M11.36 7.96c0-.02.01-.02.03 0l.01.03v1.06l-1.16.48c-.02 0-.04-.01-.04-.06V8.45l1.16-.49ZM9 9.05l-1.16.49h-.01L7.8 9.5v-1c0-.03.02-.04.04-.05l1.1-.48.04.02.01.01.01.01v1.03Z" fill="#0C6CA8"/><path d="m11.4 9.05 1.16.47a115.15 115.15 0 0 0-1.17.5l-.07-.02c-.28-.13-.56-.24-.85-.36l-.05-.02a.63.63 0 0 1-.18-.09l1.16-.48ZM7.76 9.52l-.27.14h-.03l-.78.33c-.03.01-.07.04-.12.02a.91.91 0 0 1-.08-.04 9.88 9.88 0 0 0-.93-.38.3.3 0 0 1-.11-.07l1.1-.45.05-.02h.02l1.15.47ZM9 9.05l1.16.48-1.17.5-1.15-.5L9 9.06Z" fill="#fff"/><path d="m7.76 9.52.02.03.02.03v1.02s0 .01 0 0l.06.05-.08-.02-1.15.48c-.01-.01-.03-.04-.03-.1v-.96l.02-.02A.8.8 0 0 1 6.7 10l.09-.02a34.5 34.5 0 0 0 .7-.32l.27-.14ZM10.16 9.53c.02 0 .04.02.04.07v1.02l-1.16.5-.02-.01-.02-.02V10l1.16-.48ZM12.56 9.52c.03 0 .04.02.04.05v1.03l-.01.03-1.16.48a.08.08 0 0 1-.03-.06v-.98l-.01-.01-.07-.06.07.02h.03a114.83 114.83 0 0 1 1.14-.5Z" fill="#0C6CA8"/><path d="M12.6 10.6c.39.2.75.33 1.17.5a125.1 125.1 0 0 1-1.18.5l-1.16-.49a109.97 109.97 0 0 1 1.17-.51ZM5.4 10.6l1.15.5v.01l-1.08.46-.06.01h-.03l-.05-.02-1.13-.44 1.2-.51ZM10.2 10.62c.38.15.76.33 1.15.48v.01l-1.16.48-1.15-.48 1.15-.5ZM7.86 10.65l1.08.44c.02.01.02.02 0 .03l-1.13.47H7.8l-1.16-.48 1.15-.48.08.02Z" fill="#fff"/><path d="m13.77 11.1.02.01.01.03v1.02c0 .02 0 .03-.02.03l-1.15.48h-.02v-.02l-.01-1v-.03c-.04-.02-.04-.03-.01-.03a126.37 126.37 0 0 0 1.18-.5Z" fill="#0C6CA8"/><path d="M5.33 11.56c0 .03.02.05.05.05.02 0 .03 0 .03.03v1.03h.01v.01h-.03l-1.17-.49c-.01 0-.02 0-.02-.02v-1.05h.07l1.06.44Z" fill="#124389"/><path d="m11.34 11.12.04.01.02.04v1.02l-1.18.49h-.01l-.01-.02V11.6l1.14-.47ZM9 12.19l-1.2.5v-1.02c0-.07.04-.1.1-.09h.02l.1-.05a70.23 70.23 0 0 0 .97-.39l.01.02v1.03ZM6.6 12.18l-1.18.5-.02-.02v-1.02c0-.03 0-.04-.02-.03-.03 0-.05-.02-.05-.05l.05.02h.09l.4-.14a137.68 137.68 0 0 1 .68-.3c.03 0 .05 0 .05.03v1.01Z" fill="#0C6CA8"/></svg>