<!-- by TradingView --><svg width="18" height="18" viewBox="0 0 18 18" xmlns="http://www.w3.org/2000/svg"><path fill="#F0F3FA" d="M0 0h18v18H0z"/><path d="M8.09 10.53c-1.38 0-3.01.52-3.66.78L7.6 8.32l2.65 2.6c-.28-.13-1.1-.4-2.15-.4Z" fill="url(#a)"/><path d="M15 13c-3.4-.35-6.39-3.3-7.41-4.68C8.58 7.2 9.69 4 10.75 4c.76 0 1.1 1.64 1.65 4.43A8.82 8.82 0 0 0 15 13Z" fill="url(#b)"/><path d="M6.64 6.77c.2.4.68 1.16.95 1.55a10.45 10.45 0 0 1-2.75 2.72c-.8.58-1.84.76-1.84-.15s.73-2.6 1.19-3.51c.45-.93.8-1.49 1.37-1.49.57 0 .85.37 1.08.88Z" fill="url(#c)"/><defs><linearGradient id="a" x1="5.69" y1="10.68" x2="9.4" y2="10.68" gradientUnits="userSpaceOnUse"><stop stop-color="#274A87"/><stop offset="1" stop-color="#2F5DA3"/></linearGradient><linearGradient id="b" x1="11.34" y1="4" x2="11.49" y2="10.71" gradientUnits="userSpaceOnUse"><stop stop-color="#D3E176"/><stop offset="1" stop-color="#05AE8B"/></linearGradient><linearGradient id="c" x1="7.4" y1="7.47" x2="4.06" y2="11.67" gradientUnits="userSpaceOnUse"><stop stop-color="#21489A"/><stop offset="1" stop-color="#54BD89"/></linearGradient></defs></svg>