<!-- by TradingView --><svg width="18" height="18" viewBox="0 0 18 18" xmlns="http://www.w3.org/2000/svg"><path fill="#748235" d="M0 0h18v18H0z"/><path d="M7.09 9.98a5.12 5.12 0 0 1 1.27 1.47 2.2 2.2 0 0 1 .25.88A14.34 14.34 0 0 1 8.67 14l-.24-.01a4.98 4.98 0 0 1-3.31-1.75 5.28 5.28 0 0 1-1.07-3c.41.25.88.17 1.25-.1-.34-.28-.83-.45-1.27-.24a.01.01 0 0 1-.01 0A8.18 8.18 0 0 0 4 8.15c.02-.68.17-1.38.5-2a3.75 3.75 0 0 1 1.95-1.72 6.4 6.4 0 0 1 2.22-.43h.73a6 6 0 0 1 2.27.48c.85.39 1.47.96 1.86 1.73.3.58.43 1.24.45 1.88a26.43 26.43 0 0 0 0 .6 1.07 1.07 0 0 0-1.08.16 1.07 1.07 0 0 0 1.07.3v.01c-.03.76-.2 1.47-.48 2.16a4.14 4.14 0 0 1-3.16 2.57 6.26 6.26 0 0 1-.82.1 13.2 13.2 0 0 1 .12-2.06c.06-.24.18-.48.32-.7a5.08 5.08 0 0 1 1.15-1.28l-.3-.23h-.01c-.26.34-.58.64-.96.85-.14.07-.29.12-.44.14H9c-.24 0-.46-.04-.66-.16a3.02 3.02 0 0 1-.95-.83h-.01l-.29.24v.01Zm1.4-5.15c-.43.04-.8.21-.94.58a.84.84 0 0 0-.06.4l.02.01c.64-.03.95-.47.98-.99Zm1.45 0h-.02c.04.52.35.96 1 1V5.8a.84.84 0 0 0-.05-.4c-.15-.37-.5-.54-.93-.58ZM6.65 6.52h.01c.38-.4.5-.9.05-1.31H6.7c-.12.1-.21.2-.27.33-.18.35-.05.69.23.98Zm2.06.07h.02c.51-.25.84-.68.59-1.2H9.3c-.16.05-.29.12-.4.21-.3.28-.32.64-.19.99Zm2.4 0v.01c.6-.04 1.1-.32 1.12-.88 0-.01 0-.02-.02-.02-.16 0-.32.02-.46.06-.41.14-.6.46-.64.83Zm-2.84.62h.01c-.05-.52-.37-.95-1.01-.97l-.02.01c0 .15.02.28.07.4.16.36.53.53.95.56Zm1.25-.02v.01c.6-.07 1.08-.37 1.06-.93 0-.01 0-.02-.02-.02-.16 0-.31.03-.45.08-.4.16-.57.49-.6.86Zm-3.35.77h.01c.37-.4.5-.9.05-1.3h-.02c-.12.1-.21.2-.27.32-.18.36-.05.7.23.98Zm5.32-.34.01.01c.6-.04 1.1-.32 1.11-.88l-.01-.02c-.17 0-.32.01-.46.06-.42.14-.6.46-.65.83Zm2.1.67v-.01c.14-.5 0-1-.6-1.2l-.02.01a.84.84 0 0 0-.09.4c.03.39.31.64.7.8Zm-2.84.1h.01c.37-.39.5-.9.05-1.3h-.02c-.12.1-.22.2-.28.33-.17.35-.04.7.24.98Zm-6.52-.32v.01c.6-.04 1.1-.32 1.11-.88l-.01-.01c-.17-.01-.32 0-.46.06-.41.13-.6.45-.64.82Zm3.51.23h.02c.05-.52-.18-1-.81-1.11h-.02a.83.83 0 0 0-.01.41c.08.38.41.6.82.7Zm.53-.68v.01c.43.35 1 .5 1.5.14v-.02c-.1-.11-.23-.2-.36-.26-.4-.18-.8-.09-1.14.13Zm4.73.73v-.01c-.44-.34-1.01-.48-1.5-.1v.02c.11.1.23.2.37.25.4.17.79.07 1.13-.16Zm-2.54.82h.01c.05-.51-.17-1-.8-1.1h-.02a.83.83 0 0 0-.02.41c.09.38.42.6.83.7ZM7.72 9.1h.01c.59-.07 1.07-.37 1.06-.93l-.02-.02c-.17 0-.32.03-.46.09-.4.15-.57.48-.59.86Zm-2.39-.94v.01c.03.51.33.96.98.99l.01-.01a.84.84 0 0 0-.05-.4c-.15-.37-.5-.54-.94-.59ZM6.7 9.7c.39-.16.68-.41.7-.8a.85.85 0 0 0-.09-.4H7.3c-.61.19-.75.7-.62 1.2h.02Zm5.12.3h.01c.14-.5 0-1-.61-1.2-.01 0-.02 0-.02.02a.84.84 0 0 0-.08.4c.02.38.3.64.7.79Zm-2.66.12h.02c.27-.46.28-.98-.25-1.3l-.02.01a.9.9 0 0 0-.2.37c-.09.38.12.69.45.92Zm3.12-1h-.02c.04.52.35.97 1 1v-.02a.84.84 0 0 0-.05-.4c-.15-.36-.5-.53-.93-.58Zm-6.28.3c-.43.04-.8.21-.94.57a.84.84 0 0 0-.05.4l.01.02c.65-.03.95-.48.99-.99h-.01Z" fill="#fff"/></svg>