<!-- by TradingView --><svg width="18" height="18" viewBox="0 0 18 18" xmlns="http://www.w3.org/2000/svg"><path fill="#F0F3FA" d="M0 0h18v18H0z"/><path d="M6.56 7c-.32-.19-.65-.3-1-.33.07-.73.37-1.23.92-1.5 1-.5 1.71.18 2.33.92a.1.1 0 0 1 0 .14l-.52.56a.1.1 0 0 1-.13 0c-.16-.14-.3-.29-.43-.43-.16-.19-.3-.3-.42-.33-.58-.14-.9.38-.75.97ZM12.45 6.66c-.35.04-.7.16-1.02.36.1-.27.09-.5-.04-.7-.24-.37-.66-.41-.97-.11-.16.15-.36.36-.6.64a.23.23 0 0 0 0 .31l.55.58c.05.06.05.11 0 .17l-.52.56c-.04.05-.09.05-.13 0L9.2 7.9a.24.24 0 0 0-.18-.07.24.24 0 0 0-.17.07l-.73.77-.66.72-.91.97a2.16 2.16 0 0 1-.68-.72l.9-.99.68-.69c1.11-1.2 1.86-2 2.26-2.4 1.06-1.1 2.63-.44 2.75 1.1Z" fill="#19B4EE"/><path d="M5.57 6.67c.34.03.67.14 1 .33l.87.96-.67.7a39.2 39.2 0 0 0-.7-.72.91.91 0 0 0-.27-.22.61.61 0 0 0-.76.27c-.18.3-.13.6.14.9.23.24.45.49.67.75.18.3.4.53.69.72l2.42 2.57c.03.03.06.03.08 0l.84-.89a.04.04 0 0 0 0-.03.05.05 0 0 0 0-.03l-.7-.74a.25.25 0 0 0-.18-.08.25.25 0 0 0-.18.08l-.51.55c-.06.06-.13.06-.19 0l-.48-.51c-.06-.07-.06-.14 0-.2l.53-.56a.26.26 0 0 0 0-.35l-.72-.78.66-.72 2.42 2.6a.04.04 0 0 0 .03 0 .04.04 0 0 0 .03 0l.87-.95.69-.69.7-.78c.21-.22.26-.47.15-.75-.12-.32-.37-.46-.73-.4a5.25 5.25 0 0 0-.99.93h-.03l-.03.02-.65.72-.7.76c-.06.06-.11.06-.17 0l-.49-.52c-.06-.07-.06-.14 0-.21l2.22-2.38c.33-.2.67-.32 1.02-.36.76.09 1.25.48 1.47 1.18.2.62.03 1.26-.4 1.72-.7.77-1.96 2.1-3.76 4.01-.19.2-.34.32-.47.37-.58.22-.9-.2-1.28-.6l-3.2-3.42c-.36-.38-.58-.69-.67-.91a1.72 1.72 0 0 1-.04-1.26c.24-.68.73-1.04 1.47-1.08Z" fill="#08318E"/><path d="m11.28 8.64.01.05.02.04c.26.31.53.61.84.9l-.69.7-.9-.96.66-.72.03-.01h.03Z" fill="#19B4EE"/></svg>