<!-- by TradingView --><svg width="18" height="18" viewBox="0 0 18 18" xmlns="http://www.w3.org/2000/svg"><path fill="#F0F3FA" d="M0 0h18v18H0z"/><path d="M9.05 14.98A.08.08 0 0 1 9 15a.08.08 0 0 1-.05-.02L3.02 9.05a.08.08 0 0 1 0-.1l5.93-5.93a.08.08 0 0 1 .1 0l5.93 5.93A.08.08 0 0 1 15 9a.08.08 0 0 1-.02.05l-5.93 5.93Z" fill="#DA251D"/><path d="M10 6a1 1 0 1 1-2 0 1 1 0 0 1 2 0Zm-.98 4.34h-.04c-.29-.31-.42-.67-.4-1.09l-.02-.04a.06.06 0 0 0-.04-.03L7.4 8.91a.02.02 0 0 0-.02 0 .02.02 0 0 0 0 .02 2.75 2.75 0 0 0 .35 1.78v.02l-.02.01H7.7A1.45 1.45 0 0 1 6.56 9.4c-.04-.55.18-1 .68-1.36a.06.06 0 0 0 .01-.08l-.57-.92A.08.08 0 0 0 6.63 7a.08.08 0 0 0-.06.01 2.73 2.73 0 0 0-.1 4.5c.7.5 1.52.62 2.46.34l.07-.01h.07c.94.3 1.75.18 2.45-.33a2.73 2.73 0 0 0-.11-4.5.08.08 0 0 0-.08.03l-.58.92v.05c0 .01 0 .02.02.03.49.35.71.8.67 1.36a1.45 1.45 0 0 1-1.15 1.34l-.02-.01a.03.03 0 0 1 0-.04 2.76 2.76 0 0 0 .35-1.78.02.02 0 0 0-.02 0l-1.12.27a.06.06 0 0 0-.04.03v.04c0 .42-.13.78-.42 1.09Z" fill="#FFF500"/></svg>