<!-- by TradingView --><svg width="18" height="18" viewBox="0 0 18 18" xmlns="http://www.w3.org/2000/svg"><path fill="#F0F3FA" d="M0 0h18v18H0z"/><path fill="#319088" d="M13.5 7H15v5h-1.5zM11.44 7H13v5h-1.56L9.56 9.25V12H8V7h1.56l1.88 2.75V7Z"/><path fill-rule="evenodd" d="M5.15 6.12C5.09 6.07 4.83 6 4.33 6c-.69 0-1.03.72-1.03 1.37 0 .54.3 1.73 1.4 2.81l.19.27c-.54-.3-.86-.65-1.02-.9L3 12h1.39l.56-1.59a7.54 7.54 0 0 0 2.85 1.5l.12.06L8 12v-.01L6.22 7H4.77L4.3 8.28a2.9 2.9 0 0 1-.1-.75c0-.37.12-.91.73-1.04-.32-.01-.96.18-.96 1.04 0 .3.05.7.2 1.12l-.03.09c-.18-.4-.31-.84-.31-1.27 0-.93.7-1.16 1.05-1.16-.42-.04-1.25.14-1.25 1.16 0 .53.2 1.03.45 1.44l-.04.12a3.22 3.22 0 0 1-.53-1.72c0-.6.35-1.36 1.63-1.2Zm-.11 4.05c.28.26.58.49.89.7a5.91 5.91 0 0 1-.86-.78l-.03.08Zm.11-.34c.34.42.75.79 1.15 1.1l-.8-2.07-.35.97Z" fill="#319088"/></svg>