<!-- by TradingView --><svg width="18" height="18" viewBox="0 0 18 18" xmlns="http://www.w3.org/2000/svg"><path fill="#F0F3FA" d="M0 0h18v18H0z"/><path fill-rule="evenodd" d="M7.12 10.04c.02-.08 0-.09-.05-.04a4.63 4.63 0 0 0-1.4 2.22c-.01.06-.03.07-.06 0l-.2-.5v-.02a.04.04 0 0 0-.06 0l-.02.01-.37.53-.02.02a.04.04 0 0 1-.02 0l-.02-.02v-.02l-.17-.88v-.02a.04.04 0 0 0-.02-.01h-.02l-.02.01-1.37 1.64c-.05.06-.07.05-.06-.03l.37-2.37a.05.05 0 0 0 0-.03l-.01-.01-.02-.01h-.02l-.49.1c-.08.03-.1 0-.03-.06L6.08 6.9a.04.04 0 0 1 .02-.01h.03v.02l.53 1.5.01.03a.04.04 0 0 0 .03 0h.02l.02-.01L9.85 4h.02a.03.03 0 0 1 .03 0v.01l2.32 5.95.01.01a.03.03 0 0 0 .02 0h.03l.95-1.15a.05.05 0 0 1 .03-.01.04.04 0 0 1 .03 0l.02.02 1.68 3.1c.02.04.01.07-.01.1l-.14.17c-.03.03-.06.03-.07 0l-1.45-3.05c-.04-.07-.06-.07-.09 0l-.4 1.37v.05l.72 1.18v.04l-.36.43h-.02l-.52-.96c-.03-.05-.05-.05-.05.01-.03.27-.06.55-.07.83 0 .14-.04.28-.1.4v.01l-.01.01a.06.06 0 0 1-.02.01.05.05 0 0 1-.05 0A3.67 3.67 0 0 1 11.1 11l-.68-1.5c-.04-.09-.07-.08-.09 0l-.22 1.19c0 .03-.02.04-.04.05h-.05l-.03-.06a2.37 2.37 0 0 1-.06-.31c-.01-.08-.04-.1-.08-.02L9 11.73c-.06.1-.1.09-.1-.03a2.02 2.02 0 0 1-.02-.34c.01-.16-.02-.18-.1-.04l-.6 1.05a.53.53 0 0 1-.17.2c-.06.02-.08 0-.06-.06a14.74 14.74 0 0 1 .57-1.58H8.5c-.25.3-.42.51-.51.64-.1.14-.23.2-.37.2h-.03a.07.07 0 0 0-.03.02l-.12.19c-.08.11-.15.24-.24.3a6.85 6.85 0 0 1-.86.42.05.05 0 0 1-.03-.02l-.01-.02-.01-.03c-.02-.24.03-.37.12-.62l.04-.1.68-1.87Zm3.26-1.21-.01-.01a.02.02 0 0 0-.02 0 .02.02 0 0 0-.01 0l-.6 1a.03.03 0 0 1-.01 0 .03.03 0 0 1-.04 0l-.3-.31a.1.1 0 0 1-.02-.1l.2-1.31a.18.18 0 0 0-.02-.13l-.61-.92a.12.12 0 0 1-.02-.04v-.05a14.54 14.54 0 0 1 .95-2.6h.02l.02.03 2.23 5.8a.6.6 0 0 1 .04.2l.1 1.68c0 .15-.03.16-.1.04-.47-.78-.92-1.64-1.36-2.45l-.44-.83Zm-3.83.65-.15-.57c-.03-.1-.03-.16-.01-.2l.14-.17a.08.08 0 0 0 .02-.04v-.05l-.43-1.09c0-.02-.01-.02-.03-.01a1 1 0 0 0-.45.75c-.02.16-.05.3-.08.41a2312.54 2312.54 0 0 1-.14.5c-.01.03 0 .05 0 .07l.42.5.04.07v.1l-.07.52c-.01.1 0 .1.06.03.18-.26.4-.5.66-.76a.06.06 0 0 0 .02-.06Z"/></svg>