<!-- by TradingView --><svg width="18" height="18" viewBox="0 0 18 18" xmlns="http://www.w3.org/2000/svg"><path fill="#12C35A" d="M0 0h18v18H0z"/><path fill-rule="evenodd" d="M7.6 9.48c-.38.33-.85.52-1.36.52C5 10 4 8.88 4 7.5S5 5 6.24 5c.5 0 .98.2 1.36.52a.71.71 0 0 1 1.4.2v3.57a.71.71 0 0 1-1.4.2ZM7.57 7.5a1.07 1.07 0 1 1-2.14 0 1.07 1.07 0 0 1 2.14 0ZM11.5 10a2.5 2.5 0 1 0 0-5 2.5 2.5 0 0 0 0 5Zm0-1.39a1.07 1.07 0 1 0 0-2.14 1.07 1.07 0 0 0 0 2.14ZM4.75 10h.94c.13 0 .24.1.27.22.22.9 1.04 2.39 3.02 2.39a3.12 3.12 0 0 0 3.09-2.4.28.28 0 0 1 .27-.21h.9c.16 0 .28.12.26.27A4.38 4.38 0 0 1 8.98 14a4.35 4.35 0 0 1-4.48-3.75c-.01-.14.1-.25.25-.25Z" fill="#fff"/></svg>