<!-- by TradingView --><svg width="18" height="18" viewBox="0 0 18 18" xmlns="http://www.w3.org/2000/svg"><path fill="#F0F3FA" d="M0 0h18v18H0z"/><path d="M6.44 12.83c.99 1.34 3.76 1.77 6-.02 2.24-1.8 3.2-4.7 2.12-6.48-.9-1.49-2.92-1.73-4.87-.72 1.95-.67 3.84-.14 4.43 1.38.13.32.17.66.17 1.01 0 1.54-1.16 3.27-2.97 4.22a3.56 3.56 0 0 1-5.14-1.88c-.24.7-.05 1.97.26 2.49Z" fill="#499FE3"/><path d="M5.46 12.7c1.1 1.74 3.87 1.73 6.19-.03 2.3-1.76 3.29-4.61 2.18-6.36-.93-1.47-3.01-1.7-5.03-.7 2.02-.67 3.96-.15 4.58 1.34.7 1.7-.6 4-2.89 5.15-2.3 1.14-4.73.7-5.43-1L5 10.94c-.01.64.13 1.24.46 1.75Z" fill="#AFD9ED"/><path d="m8 11.93 3.34-3.7H9.76c-.49 0-.84.09-1.04.26-.13.1-.23.29-.3.54H8.2L8.37 8h4.47v.07l-3.3 3.7h1.8c.5 0 .85-.08 1.08-.25.14-.1.27-.3.38-.58h.2L12.8 12H8v-.07Z" fill="#D32D26"/><path d="M7.37 7.71 6.2 5.26 5.04 7.7h2.33ZM3 10v-.16a.85.85 0 0 0 .58-.26c.14-.15.36-.55.68-1.2L6.36 4h.2L9.1 9.05c.17.34.3.55.4.63.1.08.27.13.51.16V10H7.42v-.16c.3-.02.5-.05.58-.08.08-.04.13-.12.13-.25a2.31 2.31 0 0 0-.19-.58l-.42-.86H4.87l-.48 1.07a.9.9 0 0 0-.07.3c0 .16.07.26.2.32.09.04.25.06.49.08V10H3Z" fill="#D32D26"/></svg>