<!-- by TradingView --><svg width="18" height="18" viewBox="0 0 18 18" xmlns="http://www.w3.org/2000/svg"><path fill="#F0F3FA" d="M0 0h18v18H0z"/><path d="M10.5 7a.5.5 0 1 0-.48-.35 8.76 8.76 0 0 1-4.75 1.73c-1.8 0-2.05-.84-1.83-1.28A1.3 1.3 0 0 0 3 8c0 .53.66 1 1.98 1 1.21 0 3.85-.79 5.2-2.12.08.07.2.12.32.12Z" fill="#1A1A1A"/><path d="M12.24 4.66a1.3 1.3 0 0 1 1 .17c.44.3.45 1.16-.32 2.2-.7.95-3.03 3.18-4.94 3.6a.5.5 0 1 1-.01-.3 12.9 12.9 0 0 0 4.27-3.42c1.05-1.43.5-2.17 0-2.25Z" fill="#869B46"/><path d="M11.5 10a.5.5 0 1 0-.47-.33c-.92.8-3.18 2.69-5.15 2.69-1.79 0-2.03-.87-1.81-1.33-.15.12-.44.49-.44.93 0 .55.4 1.04 1.71 1.04 1.25 0 3.74-.99 5.82-3.13.09.08.2.13.34.13Z" fill="#1A1A1A"/><path d="M10.31 4.14A4.83 4.83 0 0 0 4.8 8.87a4.83 4.83 0 0 0 4.88 4.77c.99 0 1.9-.29 2.67-.77A5.16 5.16 0 0 1 9.1 14 5.06 5.06 0 0 1 4 9a5.06 5.06 0 0 1 6.31-4.86Z" fill="#1A1A1A"/><path d="M7 5.34a5.4 5.4 0 0 1 2.06-.4 4.2 4.2 0 0 1 4.31 4.09A4.18 4.18 0 0 1 10 13.06c2.25-.17 4-2 4-4.2a4.3 4.3 0 0 0-4.37-4.23c-.9 0-1.93.26-2.63.71Z" fill="#869B46"/></svg>