<!-- by TradingView --><svg width="18" height="18" viewBox="0 0 18 18" xmlns="http://www.w3.org/2000/svg"><path fill="#F0F3FA" d="M0 0h18v18H0z"/><path d="M9 13c2.24 0 4-1.76 4-4s-1.76-4-4-4-4 1.76-4 4 1.76 4 4 4Zm0 1A5 5 0 1 0 9 4a5 5 0 0 0 0 10Z"/><circle cx="9" cy="9" r="4" fill="#F9B661"/><path d="M6.26 8.5c.03-.05.07-.1.13-.12h.04c.03.02.08.02.12 0 .01 0 .02-.01.01-.03l-.01-.04a.02.02 0 0 1 0-.02.02.02 0 0 1 .03 0c.03.03.06.03.09 0l.04.01c.01.01.03.02.05 0a.05.05 0 0 1 .06.02l.06.08a.09.09 0 0 0 .09.03.09.09 0 0 0 .06-.06.42.42 0 0 1 .1-.18.04.04 0 0 0 .01-.05c-.02-.06 0-.1.07-.13a.02.02 0 0 0 .02 0 .02.02 0 0 0 0-.02l-.03-.02c-.03-.03-.02-.04.02-.04h.03c.02 0 .03-.01.02-.03-.02-.05 0-.09.05-.11h.05l.02.02a.04.04 0 0 0 .04 0c.04-.02.05-.05.04-.09-.01-.02 0-.02.02-.02l.03.03c0 .03.02.03.03.01l.09-.07.03-.01c.05 0 .1-.03.12-.09l.03-.02c.06 0 .1-.02.13-.06 0-.02.02-.02.04-.02.07.02.11.06.13.12a.03.03 0 0 0 .03.02.03.03 0 0 0 .02-.01l.05-.08c.01-.02.03-.02.04 0 .05.03.08.02.1-.03 0-.02.02-.02.03 0 .04.04.08.06.14.07.01 0 .03 0 .04-.02a6.36 6.36 0 0 1 2.66-1.34c.31-.08.37.3.3.5-.16.37-.58.5-.94.5a5.52 5.52 0 0 0-1.94.47.04.04 0 0 0 .02.04c.04.04.06.09.04.14 0 .03 0 .04.03.03.61-.2 2.45-.86 2.96-.4.22.2.1.53-.14.64-.21.1-.44.15-.68.15a.04.04 0 0 0-.04.02v.05c.5.45.78 1.01.84 1.69.06.6-.21 1.05-.63 1.46H11c-.27-.2-.5-.42-.69-.69-.25-.34-.47-.89-.72-1.33a.06.06 0 0 0-.03-.02.21.21 0 0 1-.13-.1.04.04 0 0 0-.04-.03c-.1 0-.2.02-.29.05h-.04a1.93 1.93 0 0 0-.47 0 .04.04 0 0 0-.02.02v.02c.11.25.04.4.05.64.02.36-.2.4-.43.59h-.02l-.02-.01v-.02l.14-.12a.05.05 0 0 0 .02-.04c.01-.16.05-.31.12-.46v-.05a1.2 1.2 0 0 1-.06-.4.07.07 0 0 0-.04-.06.07.07 0 0 0-.07 0 .26.26 0 0 1-.22 0A.03.03 0 0 0 8 9.5v.02l.02.35a.07.07 0 0 1-.03.05.07.07 0 0 1-.06.02c-.1-.02-.26-.05-.25.11 0 .02 0 .03.02.04.08.13.12.26.11.4 0 .03.01.04.03.05h.06v.01a.01.01 0 0 1 0 .02l-.06.01a.06.06 0 0 0-.04.05.06.06 0 0 0 .02.05c.07.05.09.1.1.19.02.03.04.06.09.06.02 0 .02.01 0 .03-.24.17-.37-.2-.4-.38l-.01-.02-.02-.01c-.28-.13-.27-.35-.34-.6 0-.01-.02-.02-.04-.01-.17.05-.5.06-.52.3a.03.03 0 0 1-.04.02l-.02-.01a1.49 1.49 0 0 1-.3-.8.03.03 0 0 0-.03-.04l-.2-.02c-.02 0-.03.01-.04.03l-.03.21a.01.01 0 0 1-.01.01.01.01 0 0 1-.02-.01l.03-.2a.04.04 0 0 0-.03-.04.04.04 0 0 0-.05 0l-.67.78c-.02.01-.02.01-.02-.01 0-.05.02-.08.04-.1.16-.16.3-.32.42-.5.09-.13.2-.22.33-.28.02 0 .03-.02.03-.04.02-.07.06-.1.14-.09a.05.05 0 0 0 .04 0c.04-.03.05-.06.03-.1-.02-.05-.08-.08-.13-.1a.02.02 0 0 1 0-.02.02.02 0 0 1 0-.02c.05-.05.05-.1 0-.13a.02.02 0 0 1-.01-.03v-.01l.1-.07v-.04a.31.31 0 0 1-.07-.12c0-.03 0-.04.03-.02l.04.02h.02Zm2.93.09a.03.03 0 0 0 .05 0h.01l.15-.4a.03.03 0 0 0-.02-.03h-.36a.03.03 0 0 0-.04.02v.02l.2.39Zm-3.04.72.14-.01a.01.01 0 0 0 .01-.01v-.05l-.02-.02h-.02l-.03-.01H6.2a.07.07 0 0 0-.04.03.05.05 0 0 0-.01.04v.02a.01.01 0 0 0 0 .01.01.01 0 0 0 .01 0Zm1.52.18c0-.06-.04-.08-.1-.08a.08.08 0 0 0-.08.07c-.02.15-.1.25-.1.39-.01.16.03.32.1.46a.03.03 0 0 0 .07-.02c-.01-.14-.1-.41.08-.47.17-.04.24-.15.21-.33a.03.03 0 0 0-.01-.02.03.03 0 0 0-.03 0l-.1.02a.03.03 0 0 1-.03 0 .03.03 0 0 1 0-.02Z"/></svg>