<!-- by TradingView --><svg xmlns="http://www.w3.org/2000/svg" width="18" height="18" viewBox="0 0 18 18"><path fill="#F0F3FA" d="M0 0h18v18H0z"/><path d="m10.56 12.33-.76-.54c.8-1.86 1-3.18 1-3.66S10.56 4.88 9 4.88c-1.24 0-1.57 1.62-1.58 2.44l-.67.06C6.75 5.46 7.85 3 9.33 3s2.89 2.46 2.89 4.87a7.9 7.9 0 0 1-1.66 4.46Z" fill="url(#ap30rkg1x)"/><path d="M6.42 9.41 7.25 9a10.4 10.4 0 0 0 2.56 2.72c.4.24 2.83 1.42 3.61.02.62-1.11-.63-2.33-1.3-2.74l.07-.7c1.61.97 3.38 3.34 2.64 4.67-.74 1.33-3.5 1.36-5.52.16A7.7 7.7 0 0 1 6.42 9.4Z" fill="url(#bp30rkg1x)"/><path d="M5.02 7.88c1.7-1.01 4.96-.4 5.75-.22l.03.47-.03.46c-1.87.12-3.58.44-3.96.68-1.1.66-2.5 1.58-1.87 2.9.5 1.05 3.37 1.1 4.05.76l.78.42c-1.6.82-5.93.59-6.52-.66-.6-1.25-.17-3.64 1.77-4.8Z" fill="url(#cp30rkg1x)"/><defs><linearGradient id="ap30rkg1x" x1="12.46" y1="4.56" x2="9.14" y2="5.63" gradientUnits="userSpaceOnUse"><stop stop-color="#4688C4"/><stop offset=".68" stop-color="#0E1D34"/><stop offset="1" stop-color="#224184"/></linearGradient><linearGradient id="bp30rkg1x" x1="11.06" y1="14" x2="6.76" y2="9.82" gradientUnits="userSpaceOnUse"><stop stop-color="#4681B9"/><stop offset=".22" stop-color="#65A8CC"/><stop offset=".62" stop-color="#68AACC"/><stop offset=".69" stop-color="#204379"/><stop offset=".79" stop-color="#5093BD"/><stop offset="1" stop-color="#63A7CC"/></linearGradient><linearGradient id="cp30rkg1x" x1="8.68" y1="13.21" x2="5.52" y2="8.88" gradientUnits="userSpaceOnUse"><stop offset=".28" stop-color="#4688C4"/><stop offset=".71" stop-color="#08101D"/><stop offset=".84" stop-color="#143868"/><stop offset="1" stop-color="#224184"/></linearGradient></defs></svg>