<!-- by TradingView --><svg xmlns="http://www.w3.org/2000/svg" width="18" height="18"><path fill="#F0F3FA" d="M0 0h18v18H0z"/><path d="M6.13 14.26c-.12 0-.39.16-.51.24-.35.23.32.24.77.2.45-.03.74.19 1.31.28.58.1 2.38-.15 2.88-.1.49.06.93-.38 1.74-.38.81 0 .57-.26.53-.39-.03-.1-.37-.07-.53-.05l-1.06.05-.24-.11-.25.11a4.3 4.3 0 01-.34-.09c-.13-.04-1.31-.02-1.89 0l-1.41.07-.36.15-.64.02z" fill="url(#adexp2t0g)"/><path d="M8.14 9.26l-.76.18-.1-.11.13-.13.03-.18c0-.1 0-.31.06-.38.03-.03.4.27.5.31l.24-.16-.09-.28c0-.05-.48-.09-.53-.15-.05-.05-.18.03-.24.07.06-.19.18-.6.24-.66.05-.08.17-.03.23 0l.5-.08.59-.15.03.15.06.24.08.34-.17.63-.42.63-.4.82-.18 1.04.1.3.28.31h.09c.06-.05.23-.15.36-.15.13 0 .24.1.28.15v-.48l.26.05v.7c.48-.09.74-.25.64-.42l.1-.46c.01-.06.1-.16.27-.13.2.04.32.2.33.35.01.1-.07.25-.11.3l-.27.2.34.64.08.21-.15.8c-.05.1-.18.32-.36.36-.18.04-.63.02-.84 0l-.76.08-.18-.08-.46.16-.57-.08L7 14l-.2-.4-.17-.64.25-.7.4-.49.17-.45.4-1.42.4-.57-.1-.07z" fill="url(#bdexp2t0g)"/><path d="M7.62 2.12c.14-.06.48-.17.79-.1.29.08.46.34.6.56.15.24.28.44.5.52.08.03.12.12.1.2a.15.15 0 01-.2.1.84.84 0 01-.35-.26c-.1-.1-.17-.22-.25-.33a2.36 2.36 0 00-.23-.32.5.5 0 00-.24-.16.72.72 0 00-.2-.01c.15.13.26.3.35.45a3.33 3.33 0 01.17.38l.02.04c0 .03.02.04.02.05a.3.3 0 00.13.1l.15.08c.2.1.41.2.59.4.05.06.05.16 0 .22a.15.15 0 01-.23 0c-.13-.16-.3-.24-.48-.33a6.87 6.87 0 01-.17-.08.6.6 0 01-.25-.23l-.08-.16a11.32 11.32 0 00-.2-.4c-.14-.23-.3-.4-.5-.42l-.08-.01-.03-.26.07-.03zM9.4 4.74c.01 0 .06-.01.1.02.02 0 .03.02.04.04v-.01c.05-.08.15-.1.22-.05.2.12.53.34.9.53.36.19.74.35 1.04.39.08 0 .14.08.14.15l.07-.03-1.88 6.35-.43-.48-.01-.01c-.28-.51-.58-1.87.23-3.43.4-.77.77-1.3 1.08-1.67.27-.31.49-.5.64-.6-.33-.06-.7-.22-1.03-.4a10.8 10.8 0 01-.96-.59.45.45 0 01-.06.1 8.33 8.33 0 01-.66.58l-.04.03-.6.48a8.09 8.09 0 01-.57.38h-.05a.1.1 0 01-.1-.13l.02-.04a8.26 8.26 0 01.88-.76l.1-.07.13-.1.12-.12.02-.01a17.9 17.9 0 01.6-.52l.06-.03zM7.07 6.6l-.17-.28-.08.07a3.62 3.62 0 00-1.3 3.06 7.5 7.5 0 00.61 2.74l.02.05.72.36.12-.3-.62-.32a7.57 7.57 0 01-.55-2.56 3.28 3.28 0 011.17-2.76l.08-.06zm2.82 4.92l1.49-5.03a8.67 8.67 0 00-1.29 1.88c-.75 1.44-.47 2.67-.25 3.1l.05.05z"/><path d="M9.64 5.87l3.21-.44.15.23-.07.16-6.36.87v-.4l2.68-.36.15-2.81h.23l.21.04-.2 2.71z" fill="#97371E"/><defs><linearGradient id="adexp2t0g" x1="9.22" y1="14" x2="9.22" y2="15" gradientUnits="userSpaceOnUse"><stop stop-color="#456977"/><stop offset=".67" stop-color="#4FB7CA"/></linearGradient><linearGradient id="bdexp2t0g" x1="7.79" y1="11.42" x2="9.65" y2="13.62" gradientUnits="userSpaceOnUse"><stop stop-color="#97371E"/><stop offset="1" stop-color="#923D29"/></linearGradient></defs></svg>