<!-- by TradingView --><svg width="18" height="18" viewBox="0 0 18 18" xmlns="http://www.w3.org/2000/svg"><path fill="#F0F3FA" d="M0 0h18v18H0z"/><path d="m8.3 8-1.87 6h1.4l.85-2.5h2.05l.27-1H8.98L9.55 9h2.6l.35-1H8.3Z" fill="#F9CD04"/><path d="M7.9 7 6 13h1.41l.86-2.5h2.04l.23-1H8.53L9.02 8h2.65L12 7H7.9Z" fill="#0E3A79"/><path d="M13 3s-1.24.72-2.84.72C8.02 3.72 6.64 4.7 6 6c0 0 .85-.67 1.45-.94 1.24-.55 2.1-.36 3.44-.36C12.14 4.7 13 3 13 3Z" fill="#143169"/><path d="M6 6s.43-.26 1.15-.31c1.37-.1 1.9 0 3.1 0C12.15 5.69 13 4 13 4s-.87.64-2.13.64H9.04C7.61 4.64 6.8 5.18 6 6Z" fill="#D8080F"/></svg>