<!-- by TradingView --><svg width="18" height="18" viewBox="0 0 18 18" xmlns="http://www.w3.org/2000/svg"><path fill="#F0F3FA" d="M0 0h18v18H0z"/><path d="M8.1 14.02c.02.2.33.56.62.85.2.2.53.17.65-.06.27-.53.41-1.23.46-1.59 0-.27.2-.91 1.13-1.33.92-.42 1.07-.8 1.03-.95-.03-.14-.17-.4-.52-.33-.44.1-.82.05-.87-.1-.02-.07.08-.15.24-.28.17-.14.42-.34.63-.65.39-.57.24-1.02.15-1.17-.1-.14-.18-.21-.66 0-.48.22-.71-.1-.76-.37-.02-.14.14-.41.31-.69.17-.27.33-.54.33-.7 0-.31-.04-.56-.33-.81-.15-.13-.35.01-.56.16-.2.13-.4.27-.55.19-.26-.14-.23-.3-.17-.58l.04-.22c.07-.43.06-1.33-.25-1.33-.17 0-.25.1-.33.2-.08.1-.16.2-.3.2-.23.02-.24-.1-.23-.17.17-.72-.24-1.55-.54-1.21-.3.34-.24 1.8.64 3.1a7.91 7.91 0 0 1 .97 5.38c-.2 1.4-.65 1.86-.92 2.13-.13.12-.21.2-.2.33Zm-.22-2.76c.48.3.9.23 1.05.16 0-.33 0-.6-.4-.9-.42-.33-.92-.33-1.1-.07-.19.26-.15.44.45.8Zm1.16-1.84c-.13.12-.55.34-1.17.2-.78-.19-.9-.38-.81-.72.08-.34.59-.52 1.16-.32.56.2.67.48.82.84ZM7.29 7.73c.63.15 1.04-.07 1.17-.2-.14-.35-.26-.64-.82-.83-.57-.2-1.08-.02-1.16.32-.08.34.04.53.81.71Zm.46-1.93c-.12.1-.48.3-1.02.17-.68-.16-.78-.32-.71-.62.07-.3.52-.46 1.01-.29.5.17.6.43.72.74Z" fill="#094"/></svg>