<!-- by TradingView --><svg width="18" height="18" fill="none" xmlns="http://www.w3.org/2000/svg"><path fill="#F0F3FA" d="M0 0h18v18H0z"/><path d="M13.255 12c1.082-1.098.752-2.664.45-3.426 0 1.83-1.803 2.969-2.705 3.426h2.255Z" fill="#95CF30"/><path d="M9 15c-3.218 0-6-2.48-6-5.511C3 6.457 5.609 4 8.827 4c1.988 0 3.743.938 4.795 2.369-.752-1.106-3.166-1.912-4.795-1.912C6.414 4.457 4 6.553 4 8.574s1.928 3.66 4.342 3.66c.164 0 .499.014.658 0V15Z" fill="#06ABED"/><path fill-rule="evenodd" clip-rule="evenodd" d="M9 11.319c2.21 0 4-1.23 4-2.745 0-1.516-1.79-2.744-4-2.744S5 7.058 5 8.574c0 1.516 1.79 2.745 4 2.745Zm-.5-.458c1.657 0 3-1.024 3-2.287s-1.343-2.287-3-2.287-3 1.024-3 2.287 1.343 2.287 3 2.287Z" fill="#09579C"/></svg>