<!-- by TradingView --><svg width="18" height="18" viewBox="0 0 18 18" xmlns="http://www.w3.org/2000/svg"><path fill="#F0F3FA" d="M0 0h18v18H0z"/><path d="M12 6.2 4 5v8l8-.95V6.21Z" fill="#FDCF84"/><path d="M13 5.37 5 4.5v9l8-.58V5.37Z" fill="#FEC659"/><path d="M14 5.5 6 4v10l8-1.18V5.5Z" fill="#F5B11E"/><path d="M9.29 6h1.9l1.32 5.16c.02.1.05.18.08.25.03.05.1.1.2.13a.5.5 0 0 1 .16.1c.03.03.05.08.05.13 0 .15-.12.23-.37.23h-2.36a.38.38 0 0 1-.23-.06.2.2 0 0 1-.08-.17c0-.06.01-.1.04-.13a.6.6 0 0 1 .17-.11c.06-.03.1-.07.13-.1a.22.22 0 0 0 .04-.13c0-.05 0-.1-.02-.14l-.15-.64H8.85l.13-.52h1.06l-.87-3.57.12-.43Zm-.33 1.12.24.9-.84 2.85a.78.78 0 0 0-.04.22c0 .19.1.32.28.4l.17.07c.1.04.16.12.16.22 0 .15-.12.22-.35.22h-1.2a.52.52 0 0 1-.28-.07.22.22 0 0 1-.1-.18c0-.09.07-.16.2-.22.14-.05.23-.1.3-.14.06-.04.12-.1.17-.17.09-.12.16-.28.22-.48l1.07-3.62Z" fill="#29ABE0"/></svg>