<!-- by TradingView --><svg width="18" height="18" viewBox="0 0 18 18" xmlns="http://www.w3.org/2000/svg"><path fill="#F0F3FA" d="M0 0h18v18H0z"/><path d="M15 11.97v.02H3L3 11.97V6L3.03 6H15l.01.03v5.94Z" fill="#00AEEF"/><path d="M14.54 11.5v.04l-.03.02H3.48l-.02-.02-.01-.03V6.46l.03-.02h11.03s.02 0 .02.02l.01.03v5.02Z" fill="#FFDE2F"/><path d="M10.35 9.92c.1-.5-.08-.8-.53-.9-.1-.01-.1-.04 0-.08l.26-.11a.2.2 0 0 0 .08-.07c.36-.45.23-1.04-.25-1.28a.87.87 0 0 0-.67-.05.1.1 0 0 0-.04.03.1.1 0 0 0-.02.1c0 .02.02.04.03.05.13.1.2.2.21.39.02.24.01.47-.02.71 0 .06-.02.1-.06.14a.37.37 0 0 1-.13.09c-.06.02-.07.06-.03.11l.2.25c.03.04.04.08.04.13v.45c0 .48.23.76.72.73.29-.02.47-.2.54-.5a.09.09 0 0 0-.03-.09l-.03-.01a.14.14 0 0 0-.1.01c-.15.1-.2.06-.17-.1Zm-1.15.48a.36.36 0 0 0-.15-.13c-.05-.02-.05-.04-.05-.1V7.46c0-.05-.05-.07-.1-.07H7.9c-.03 0-.04.01-.05.04l-.03.07c-.01.03 0 .05.02.07.13.09.17.17.17.26v2.34c0 .05 0 .1-.04.13a.29.29 0 0 1-.09.06c-.05.01-.07.05-.08.1 0 .03.01.07.04.1a.1.1 0 0 0 .03.04.1.1 0 0 0 .05 0h1.2l.06-.01a.13.13 0 0 0 .04-.05.14.14 0 0 0 0-.14Zm-2.95-.88H5.9c-.03 0-.05.02-.08.03a.14.14 0 0 0-.04.07l-.03.08c-.03.06 0 .1.06.1h.43c.06 0 .1.02.12.07.09.17.06.36-.08.6a.1.1 0 0 0 0 .1l.02.03h1.2a.1.1 0 0 0 .05 0 .11.11 0 0 0 .04-.06.13.13 0 0 0 0-.12.96.96 0 0 1-.17-.32c-.13-.52-.31-1.37-.56-2.54-.02-.11-.1-.17-.2-.17h-.6c-.14 0-.19.07-.16.2l.37 1.85a.08.08 0 0 1-.01.06l-.02.02Zm-.73.64a.18.18 0 0 1 0-.1l.37-1.52a.35.35 0 0 0 0-.21l-.07-.18c-.03-.08-.05-.07-.07 0l-.2.82c-.07.3-.15.6-.21.91-.05.21-.13.35-.25.41-.29.15-.27.25.04.31.06.02.26 0 .57-.02.06 0 .08-.04.07-.1-.01-.06-.08-.14-.2-.24a.17.17 0 0 1-.05-.08Zm7.38-2.72-.03.06c-.03.05-.07.07-.13.05l-.31-.11c-.31-.03-.34.06-.07.26.24.2.41.48.5.86.02.07.07.1.15.1a.1.1 0 0 0 .07-.03l.02-.03a.1.1 0 0 0 0-.04V7.5c0-.02 0-.05-.02-.07a.11.11 0 0 0-.06-.04.1.1 0 0 0-.07 0 .11.11 0 0 0-.05.05Zm-1.03.4.23-.28c.04-.06.03-.1-.04-.14-.08-.03-.18-.02-.3.03-.57.25-.9.68-.97 1.28-.11.85.24 1.84 1.21 1.86.06 0 .1-.02.1-.08.02-.03.01-.06 0-.1 0-.02-.04-.06-.1-.1a.35.35 0 0 1-.16-.3v-2c0-.09.02-.14.03-.16Zm.94 2.48c-.14.14-.29.23-.46.29a.12.12 0 0 1-.13-.05c-.04-.06-.04-.11 0-.16a.29.29 0 0 1 .1-.07c.17-.07.27-.13.33-.19.05-.06.12-.16.18-.33a.3.3 0 0 1 .08-.12c.05-.03.1-.03.15.02.02.01.03.03.04.06v.07c-.05.18-.15.34-.29.48Z" fill="#00AEEF"/></svg>