<!-- by TradingView --><svg width="18" height="18" viewBox="0 0 18 18" xmlns="http://www.w3.org/2000/svg"><path fill="#F0F3FA" d="M0 0h18v18H0z"/><path d="M6.68 12.21c-.9-.09-1.79-.19-2.66-.3a1.82 1.82 0 0 1-.44-.12c-.27-.18-.44-.4-.53-.68a2.08 2.08 0 0 1 0-.8c.2-1.34.43-2.7.48-4.06.03 0 .05-.04.05-.1.02-.56.3-.93.83-1.12.14-.05.45-.04.93.02l3.27.4c.05 0 .07.02.07.06v1.75c0 .03-.02.05-.05.06A3.1 3.1 0 0 0 6.31 9.1c-.47 1.09-.27 2.13.37 3.11Z" fill="#126BA7"/><path d="M14.41 6.17a69.32 69.32 0 0 0-4.77-.54l.02-.18c0-.05.04-.07.09-.08.96-.11 2.12-.22 3.08-.34.37-.05.77-.06 1.08.15.33.22.5.55.5 1Z" fill="#ED2025"/><path d="m14.41 6.17.31.34c.2.2.3.45.26.75-.16 1.54-.37 2.95-.54 4.5-.01.19-.05.35-.1.47a1.1 1.1 0 0 1-.71.72c-.19.06-.5.06-.95 0l-1.4-.15c-.03 0-.04-.02-.02-.04.36-.4.61-.65.8-1.02.46-.92.46-2-.03-2.89-.43-.8-1.35-1.33-2.34-1.57a.08.08 0 0 1-.04-.03.07.07 0 0 1-.02-.05V5.63c1.54.12 3.27.3 4.78.54Z" fill="#126BA7"/><path d="M3.53 6.25a16.1 16.1 0 0 1-.26 2.57c-.1-.4-.2-.86-.25-1.22-.04-.28-.01-.56.08-.82.08-.21.22-.39.43-.53ZM14.79 9.29l.2 1.3c.06.47-.12.86-.55 1.17l.27-2.4c0-.03.01-.05.04-.06l.04-.01ZM6.71 10.81c.71.47 1.5.83 2.4 1.1.68.2 1.36.29 2.05.27.12 0 .13.03.05.1-1 .87-2.47.95-3.56.26a2.29 2.29 0 0 1-1.09-1.76.03.03 0 0 1 .05-.03.4.4 0 0 1 .1.06ZM6.68 12.21l.45.47v.02a.03.03 0 0 1 0 .03H7.1l-1.73.22c-.46.07-.8.06-1.03-.02-.47-.15-.73-.53-.77-1.14.17.06.31.1.44.12.87.11 1.76.21 2.66.3Z" fill="#ED2025"/></svg>