<!-- by TradingView --><svg width="18" height="18" viewBox="0 0 18 18" xmlns="http://www.w3.org/2000/svg"><path fill="#F0F3FA" d="M0 0h18v18H0z"/><path d="M5 9.96C5 7.74 7.65 5.06 9 4c1.32 1.06 4 3.74 4 5.96 0 .59-.12 1.1-.35 1.54-.62 1.22-1.96-.18-3.57-.17-1.97.02-2.38-1.24-4.02-.54A5.18 5.18 0 0 1 5 9.96Z" fill="url(#auzxqc41j)"/><path d="M8.85 14c2.78 0 3.93-1.88 4.15-2.82-.15.17-.7.52-1.68.52-.56 0-1.19-.46-1.87-.95l-.15-.12c-.77-.56-1.6-1.18-2.5-1.18-.55 0-1.2.68-1.57 1.22l-.9-1.1-.33.25.89 1.39c.31-.11.78-.24 1.17-.24.25 0 .66.26 1.15.57.72.47 1.64 1.05 2.58 1.14-.79.36-1.9-.28-2.71-.75-.41-.24-.75-.44-.95-.45-.3-.02-.7.07-1.04.17A3.82 3.82 0 0 0 8.85 14Z" fill="url(#buzxqc41j)"/><defs><linearGradient id="auzxqc41j" x1="9" y1="4" x2="9" y2="12" gradientUnits="userSpaceOnUse"><stop offset=".1" stop-color="#080808"/><stop offset=".3" stop-color="#5D6164"/><stop offset=".56" stop-color="#275360"/><stop offset=".79" stop-color="#308AB7"/></linearGradient><linearGradient id="buzxqc41j" x1="13" y1="11.73" x2="4" y2="11.73" gradientUnits="userSpaceOnUse"><stop stop-color="#99CB52"/><stop offset="1" stop-color="#29A25D"/></linearGradient></defs></svg>