<!-- by TradingView --><svg width="18" height="18" viewBox="0 0 18 18" fill="none" xmlns="http://www.w3.org/2000/svg">
<rect width="18" height="18" fill="#F0F3FA"/>
<path d="M15 9.03039C15 11.2227 13.6569 13 12 13C10.3431 13 9 11.2227 9 9.03039C9 6.83803 10.3431 5 12 5C13.6569 5 15 6.83803 15 9.03039Z" fill="#D40044"/>
<path fill-rule="evenodd" clip-rule="evenodd" d="M13.4643 11.0594C13.1307 11.5956 12.6233 12 12 12C11.3767 12 10.8693 11.5956 10.5357 11.0594C10.198 10.5168 10 9.78791 10 9C10 8.21209 10.198 7.48321 10.5357 6.94059C10.8693 6.40436 11.3767 6 12 6C12.6233 6 13.1307 6.40436 13.4643 6.94059C13.802 7.48321 14 8.21209 14 9C14 9.78791 13.802 10.5168 13.4643 11.0594ZM12 11.6786C12.9205 11.6786 13.6667 10.4793 13.6667 9C13.6667 7.52067 12.9205 6.32143 12 6.32143C11.0795 6.32143 10.3333 7.52067 10.3333 9C10.3333 10.4793 11.0795 11.6786 12 11.6786Z" fill="#F0F3FA"/>
<path d="M9 9.03691C9 11.2257 7.65685 13 6 13C4.34315 13 3 11.2257 3 9.03691C3 6.84816 4.34315 5 6 5C7.65685 5 9 6.84816 9 9.03691Z" fill="#375F9F"/>
<path fill-rule="evenodd" clip-rule="evenodd" d="M7.46434 11.0594C7.13069 11.5956 6.62332 12 6 12C5.37668 12 4.86931 11.5956 4.53566 11.0594C4.19803 10.5168 4 9.78791 4 9C4 8.21209 4.19803 7.48321 4.53566 6.94059C4.86931 6.40436 5.37668 6 6 6C6.62332 6 7.13069 6.40436 7.46434 6.94059C7.80198 7.48321 8 8.21209 8 9C8 9.78791 7.80198 10.5168 7.46434 11.0594ZM6 11.6786C6.92047 11.6786 7.66667 10.4793 7.66667 9C7.66667 7.52067 6.92047 6.32143 6 6.32143C5.07953 6.32143 4.33333 7.52067 4.33333 9C4.33333 10.4793 5.07953 11.6786 6 11.6786Z" fill="#F0F3FA"/>
</svg>
