<!-- by TradingView --><svg width="18" height="18" viewBox="0 0 18 18" fill="none" xmlns="http://www.w3.org/2000/svg">
<rect width="18" height="18" fill="#F0F3FA"/>
<path fill-rule="evenodd" clip-rule="evenodd" d="M8.99992 11.165L9.99993 12.5827L10.9999 14H9.99993H8.99992H7.99991H7L7.99991 12.5827L8.99992 11.165Z" fill="#7550D8"/>
<path fill-rule="evenodd" clip-rule="evenodd" d="M8.99995 3L9.99996 4.41742L8.99995 5.83494L7.99994 4.41742L8.99995 3ZM6.02466 12.9442L7.00003 11.5048L8.00004 10.0874L9.00005 8.66987L8.015 7.27376L8.00004 7.25245L7.00003 8.66987L6.00002 10.0874L5.00001 11.5048L6.02466 12.9442ZM8.99995 5.83494L7.99994 4.41742L6.99993 5.83494L5.99992 7.25236L4.99991 8.66978L4 10.0873L5.00001 11.5048L6.00002 10.0874L8.99995 5.83494ZM9.00005 8.66987L9.99996 10.0873L11 11.5047L12 10.0873L13 11.5047L14 10.0873L13 8.66978L12 7.25236L11 5.83494L9.99996 4.41742L8.99995 5.83494L8.00004 7.25245L9.00005 8.66987ZM11 11.5047L12 10.0873L13 11.5047L11.946 12.8464L11 11.5047Z" fill="#3F548B"/>
<path fill-rule="evenodd" clip-rule="evenodd" d="M11.9419 7.18822V10.1323L11 8.66999L11.9419 7.18822Z" fill="#84A1D3"/>
<path fill-rule="evenodd" clip-rule="evenodd" d="M10 4.41736V7.2522L9 5.83478L10 4.41736Z" fill="#84A1D3"/>
<path fill-rule="evenodd" clip-rule="evenodd" d="M11.0579 5.91274V8.68165L10 7.25238L11.0579 5.91274Z" fill="#84A1D3"/>
<path fill-rule="evenodd" clip-rule="evenodd" d="M12.9999 8.6698V11.5047L11.9424 10.0824L12.9999 8.6698Z" fill="#84A1D3"/>
<path fill-rule="evenodd" clip-rule="evenodd" d="M10 7.25232V10.0874L9 8.66984L10 7.25232Z" fill="#84A1D3"/>
<path fill-rule="evenodd" clip-rule="evenodd" d="M11.0589 8.5658V11.5914L10 10.0875L11.0589 8.5658Z" fill="#84A1D3"/>
<path fill-rule="evenodd" clip-rule="evenodd" d="M11.9412 10.0908V12.8489L11 11.5047L11.9412 10.0908Z" fill="#84A1D3"/>
<path fill-rule="evenodd" clip-rule="evenodd" d="M9 5.83494V3L10 4.41752L9 5.83494Z" fill="#3D4BAD"/>
<path fill-rule="evenodd" clip-rule="evenodd" d="M10 7.2522V4.41736L11.0614 5.9183L10 7.2522Z" fill="#3D4BAD"/>
<path fill-rule="evenodd" clip-rule="evenodd" d="M11.0581 8.65278L11.0581 5.91565L12.0001 7.25227L11.0581 8.65278Z" fill="#3D4BAD"/>
<path fill-rule="evenodd" clip-rule="evenodd" d="M11.9415 10.1705L11.9414 7.17004L12.9999 8.66986L11.9415 10.1705Z" fill="#3D4BAD"/>
<path fill-rule="evenodd" clip-rule="evenodd" d="M13 11.5047V8.6698L14 10.0873L13 11.5047Z" fill="#3D4BAD"/>
<path fill-rule="evenodd" clip-rule="evenodd" d="M9 8.66977V5.83484L10 7.25226L9 8.66977Z" fill="#3D4BAD"/>
<path fill-rule="evenodd" clip-rule="evenodd" d="M10 10.0874V7.25232L11.0609 8.6412L10 10.0874Z" fill="#3D4BAD"/>
<path fill-rule="evenodd" clip-rule="evenodd" d="M11.0586 11.5986V8.64294L11.9997 10.0874L11.0586 11.5986Z" fill="#3D4BAD"/>
<path fill-rule="evenodd" clip-rule="evenodd" d="M11.9414 12.8505L11.9414 10.0603L13.0001 11.5049L11.9414 12.8505Z" fill="#3D4BAD"/>
<path fill-rule="evenodd" clip-rule="evenodd" d="M9.00001 8.66977V5.83484L8 7.25226L9.00001 8.66977Z" fill="#3D4BAD"/>
<path fill-rule="evenodd" clip-rule="evenodd" d="M9.00001 5.83494V3L8 4.41752L9.00001 5.83494Z" fill="#3D4BAD"/>
<path fill-rule="evenodd" clip-rule="evenodd" d="M7.99991 7.2522V4.41736L7 5.83478L7.99991 7.2522Z" fill="#3D4BAD"/>
<path fill-rule="evenodd" clip-rule="evenodd" d="M6.94011 8.64276V5.91821L6 7.25237L6.94011 8.64276Z" fill="#6E9BDB"/>
<path fill-rule="evenodd" clip-rule="evenodd" d="M6.05881 10.1716V7.16138L5 8.66994L6.05881 10.1716Z" fill="#6E9BDB"/>
<path fill-rule="evenodd" clip-rule="evenodd" d="M4.99991 11.5047V8.6698L4 10.0873L4.99991 11.5047Z" fill="#6E9BDB"/>
<path fill-rule="evenodd" clip-rule="evenodd" d="M8.00002 10.1269L8.00002 7.25232L6.97656 8.66598L8.00002 10.1269Z" fill="#6E9BDB"/>
<path fill-rule="evenodd" clip-rule="evenodd" d="M6.94115 11.6008V8.70972L6 10.0875L6.94115 11.6008Z" fill="#6E9BDB"/>
<path fill-rule="evenodd" clip-rule="evenodd" d="M6.05881 12.996V10.0038L5 11.5049L6.05881 12.996Z" fill="#6E9BDB"/>
<path fill-rule="evenodd" clip-rule="evenodd" d="M8 4.41736V7.2522L9.00001 5.83478L8 4.41736Z" fill="#92CBEA"/>
<path fill-rule="evenodd" clip-rule="evenodd" d="M6.94141 5.90735V8.74949L8.00017 7.2523L6.94141 5.90735Z" fill="#92CBEA"/>
<path fill-rule="evenodd" clip-rule="evenodd" d="M6.05859 7.16138V10.0322L6.9998 8.66996L6.05859 7.16138Z" fill="#92CBEA"/>
<path fill-rule="evenodd" clip-rule="evenodd" d="M5 8.6698V11.5047L6.06506 10.0166L5 8.6698Z" fill="#92CBEA"/>
<path fill-rule="evenodd" clip-rule="evenodd" d="M8 7.25232V10.1365L9.00001 8.66984L8 7.25232Z" fill="#92CBEA"/>
<path fill-rule="evenodd" clip-rule="evenodd" d="M6.94141 8.58203V11.6752L8.0073 10.1249L6.94141 8.58203Z" fill="#92CBEA"/>
<path fill-rule="evenodd" clip-rule="evenodd" d="M6.05859 10.0038L6.05859 12.996L6.99623 11.5933L6.05859 10.0038Z" fill="#92CBEA"/>
<path fill-rule="evenodd" clip-rule="evenodd" d="M9 14V11.165L10 12.5827L9 14Z" fill="#9D46F9"/>
<path fill-rule="evenodd" clip-rule="evenodd" d="M9.00001 14V11.165L8 12.5827L9.00001 14Z" fill="#9D46F9"/>
<path fill-rule="evenodd" clip-rule="evenodd" d="M7.99991 14.0001H8.99992L7.99991 12.5828L7 14.0001H7.99991Z" fill="#7550D8"/>
</svg>
