<!-- by TradingView --><svg width="18" height="18" viewBox="0 0 18 18" xmlns="http://www.w3.org/2000/svg"><path fill="#181B1E" d="M0 0h18v18H0z"/><path d="M12 7v.29h-1.2V11h-.6V7.29H9V7h3ZM7.46 9.23 9 11h-.65L6.98 9.29H6.6V11H6V7h1.17c.66 0 1.23.29 1.23 1.07 0 .55-.37 1.1-.94 1.16Zm-.86-.3c.17.05.24.07.37.07.56 0 .99-.34.99-.9s-.4-.8-.96-.81c-.15 0-.4.03-.4.03v1.61ZM3.96 7h.14L6 11h-.67a37.15 37.15 0 0 0-.5-1.16l-.13-.27H3.07s-.03.04-.13.28l-.31.73-.18.42H2l.9-1.82L3.96 7Zm-.07.8L3.21 9.3h1.36L3.89 7.8ZM13.96 7h.14l1.9 4h-.67a37.58 37.58 0 0 0-.5-1.16l-.13-.27h-1.63s-.03.04-.13.28l-.31.73-.18.42H12l.9-1.82L13.96 7Zm-.07.8-.68 1.49h1.36l-.68-1.48Z" fill="#fff"/></svg>