<!-- by TradingView --><svg width="18" height="18" viewBox="0 0 18 18" xmlns="http://www.w3.org/2000/svg"><path fill="#F0F3FA" d="M0 0h18v18H0z"/><path d="M4.74 4.03v.71h-.7v-.7h.7Z" fill="#F8981D"/><path d="M6.16 4.03v.71h-.71v-.7h.71Z" fill="#7F3493"/><path d="M6.87 4.03v.71h-.71v-.7h.71Z" fill="#2D84BA"/><path d="M8.29 4.03a148.7 148.7 0 0 0 0 .7h-.71v-.7h.7Z" fill="#34A249"/><path d="M9.71 4.03v.71H9v-.7h.71Z" fill="#2D84BA"/><path d="M13.26 4.03v.71h-.71v-.7h.7Z" fill="#fff"/><path d="M13.97 4.74h-.02a442.28 442.28 0 0 1-.7.02v.69h-.7v-.02a111.9 111.9 0 0 1 0-.69h.7v-.7h.72v.7Z" fill="#E32227"/><path d="M4.74 4.03h.7v.7l-.7.01v-.7Z" fill="#fff"/><path d="M6.87 4.03h.7l.01.7v.01h-.03a386.9 386.9 0 0 0-.68 0v-.7Z" fill="#F6EC12"/><path d="M8.29 4.03h.7v.71h-.7v-.71ZM9.7 4.03h.72a71.97 71.97 0 0 0 0 .71 550.59 550.59 0 0 1-.71 0v-.7Z" fill="#F8981D"/><path d="M10.42 4.03h.7v.71h-.7v-.7Z" fill="#F6EC12"/><path d="M11.84 4.03v.71h-.71v-.7h.71Z" fill="#2D84BA"/><path d="M11.84 4.03h.7v.71h-.7v-.71Z" fill="#34A249"/><path d="m9.7 4.73.01.01h.7v.7l-.7.01V4.73Z" fill="#7F3493"/><path d="M8.29 4.74v.02a264.44 264.44 0 0 0 0 .69h-.71v-.71h.7Z"/><path d="M13.97 4.74v.71h-.71v-.7l.01-.01a442.14 442.14 0 0 0 .7 0Z" fill="#2D84BA"/><path d="M4.74 4.74v.01a815.43 815.43 0 0 0 0 .7h-.71a75.55 75.55 0 0 1 0-.71h.7Z" fill="#7F3493"/><path d="M5.45 4.74v.7h-.02a321.21 321.21 0 0 0-.7 0 815.41 815.41 0 0 1 .01-.7h.7Z" fill="#34A249"/><path d="M6.15 4.74h.01v.72-.01h-.04a219.2 219.2 0 0 0-.67 0v-.7l.7-.01ZM7.58 4.74v.7l-.71.01v-.71a386.91 386.91 0 0 1 .7 0Z" fill="#F8981D"/><path d="M9 4.74v.71h-.7l-.01-.01a264.44 264.44 0 0 1 0-.7H9Z" fill="#E32227"/><path d="M9 4.74h.7v.68l.01.02v.01H9v-.71Z"/><path d="M11.13 4.74h.7v.71h-.7v-.01a231.82 231.82 0 0 1 0-.7Z" fill="#F8981D"/><path d="M11.84 4.74h.7v.05a122.17 122.17 0 0 0 0 .66h-.7v-.71Z" fill="#7F3493"/><path d="M10.42 4.74h.7s.01 0 0 0a231.82 231.82 0 0 0 .02.71h.7v.7l.7.01.01.7h-.7l-.01.01v.7l-.71.01v-.7l.7-.01v-.71h-.7v-.71h-.71v-.71Z"/><path d="M5.45 5.44a245.84 245.84 0 0 1 0 .72h-.08a315.5 315.5 0 0 1-.63 0v-.71a313.91 313.91 0 0 1 .7 0Z" fill="#E32227"/><path d="M6.16 5.46v.7h-.71a245.84 245.84 0 0 0 .01-.71h.02a219.2 219.2 0 0 1 .68 0ZM7.58 5.45v.71h-.71v-.7l.7-.01Z" fill="#F6EC12"/><path d="M4.03 5.45h.71v.7l-.7.01v-.71Z" fill="#F8981D"/><path d="M8.3 5.45H9v.7l-.03.01a105.84 105.84 0 0 1-.68 0h-.71v-.7l.71-.01ZM10.42 5.45v.7h.7l.01.01v.04a66.92 66.92 0 0 0 0 .67h-.7l-.01-.02a88.48 88.48 0 0 0-.02-.69 131.34 131.34 0 0 0-.69 0v-.71h.7Z" fill="#2D84BA"/><path d="M12.56 5.45h.7v.71h-.03a151.1 151.1 0 0 0-.69 0v-.04a241.47 241.47 0 0 0 0-.66l.02-.01Z" fill="#34A249"/><path d="M13.97 5.45v.72l-.02-.01h-.7v-.71h.72Z" fill="#F8981D"/><path d="M6.16 5.45h.7v.71h-.7v.7h-.71v-.01a139.32 139.32 0 0 0 0-.69h.7v-.71Z"/><path d="M9 5.45h.71v.7H9v-.7Z" fill="#F8981D"/><path d="M10.42 5.45h.7v.7h-.7v-.7Z" fill="#fff"/><path d="M12.55 5.45v.01a241.47 241.47 0 0 1 0 .7h-.71v-.71h.71Z" fill="#F6EC12"/><path d="M9.7 6.15h.01l.03.01a131.32 131.32 0 0 1 .68.02 83.56 83.56 0 0 1 0 .7l-.03-.01a260.8 260.8 0 0 0-.68 0v-.72ZM9 6.15v.72a1816.7 1816.7 0 0 1-.71 0v.71h-.07a76.41 76.41 0 0 0-.64 0v-.71a167.59 167.59 0 0 0 .7-.01v-.7h.1a105.83 105.83 0 0 0 .62 0Z" fill="#34A249"/><path d="M4.74 6.16v.7h-.7v-.7h.7Z" fill="#fff"/><path d="M5.45 6.16v.02a138.01 138.01 0 0 1 0 .69h-.7v-.7a315.52 315.52 0 0 0 .7 0Z" fill="#2D84BA"/><path d="M6.87 6.16v.7l-.7.01h-.01v.7h-.71v-.7h.71v-.71h.7Z" fill="#F6EC12"/><path d="M7.58 6.16v.02a124.83 124.83 0 0 0 0 .69h-.71v-.71h.7Z"/><path d="M8.29 6.16v.7h-.04a167.59 167.59 0 0 1-.67 0 124.82 124.82 0 0 1 0-.7h.7Z" fill="#E32227"/><path d="M11.13 6.87a73.61 73.61 0 0 1 0-.7l.7-.01v.7l-.7.01Z" fill="#34A249"/><path d="M13.25 6.16v.02a128.2 128.2 0 0 1 0 .69h-.7v-.7a7.23 7.23 0 0 1 .7 0Z" fill="#2D84BA"/><path d="M13.97 6.17v.7h-.01a576.69 576.69 0 0 1-.7-.02 124.5 124.5 0 0 0 0-.69h.7l.01.01ZM4.74 6.86v.71h.7l.01.01v.71h-.01a1563.86 1563.86 0 0 1-.7 0v-.71h-.7v-.71a347.45 347.45 0 0 1 .7 0Z" fill="#E32227"/><path d="M9 6.87v.71h-.71v-.71a1816.66 1816.66 0 0 0 .71 0Z" fill="#F6EC12"/><path d="M13.26 6.87v.7h-.71v-.7h.7Z" fill="#7F3493"/><path d="M5.45 6.87v.7h.71v-.13.85h-.7v-.71h-.71v-.71h.7Z" fill="#F8981D"/><path d="M6.87 6.87v.71h-.01a183.02 183.02 0 0 0-.7 0V6.88h.7ZM9.7 6.87h.01v.7H9L9 6.88h.7Z" fill="#E32227"/><path d="M10.42 6.88v.7H9.7v-.7l.1-.01a260.8 260.8 0 0 1 .6 0Z" fill="#2D84BA"/><path d="M11.12 6.87v.71h-.7v.7H9.7a969.6 969.6 0 0 0-.71 0v-.7h1.41v-.71h.72ZM12.55 6.87v.7h-.71v-.7h.7Z" fill="#F8981D"/><path d="M4.03 7.58h.71v.7h-.7v-.7Z" fill="#34A249"/><path d="M7.58 7.58a76.41 76.41 0 0 1 .7 0v.03a160.95 160.95 0 0 0 0 .68h-.7a54.1 54.1 0 0 1 0-.71ZM6.87 7.58v.7h-.71v-.7h.02a180.81 180.81 0 0 1 .69 0Z" fill="#2D84BA"/><path d="M6.87 7.58h.71v.02a54.1 54.1 0 0 0 0 .69h-.71v-.71Z" fill="#7F3493"/><path d="M9 7.58v.7h-.71v-.04a157.12 157.12 0 0 1 0-.66h.7Z" fill="#E32227"/><path d="M11.12 7.58v.7h-.7v-.7h.7Z" fill="#2D84BA"/><path d="M11.84 7.58v.7h-.71a410.9 410.9 0 0 0 0-.7h.7Z" fill="#E32227"/><path d="M11.84 7.58h.7v.7h-.7v-.7Z"/><path d="M12.55 7.58h1.42v.7h-.7v.01h-.72v-.71Z" fill="#34A249"/><path d="M6.16 8.29h.71V9h-.7v1.4l-.01.02h-.71v-.74a76.09 76.09 0 0 0 0-.68h.71v-.71Z"/><path d="M4.03 8.29h.71V9h-.7v-.7ZM11.84 8.29v.7h-.71v-.7h.7Z" fill="#F8981D"/><path d="M13.97 8.29v.7h-.71v-.7h.71ZM5.45 8.3V9h-.7v-.71a1563.86 1563.86 0 0 0 .7 0Z" fill="#2D84BA"/><path d="M7.58 8.29V9.7h-.71v-.04a496.2 496.2 0 0 1 0-.67v-.71h.71Z" fill="#F8981D"/><path d="M7.58 8.29H9v.7H7.58v-.7Z"/><path d="M9.7 8.29V9H9v-.71a847.9 847.9 0 0 1 .7 0Z" fill="#34A249"/><path d="M10.42 8.29h.7v.7h1.43v1.42h-.71a180.44 180.44 0 0 0 0-.7 1101.68 1101.68 0 0 0-.71 0V9H9.7v-.71h.7Z"/><path d="M12.55 8.29a783.62 783.62 0 0 0 0 .7h-.71v-.7h.7Z" fill="#2D84BA"/><path d="M13.26 9v.7h.7v.72h-.71v-.02a81.34 81.34 0 0 1 0-.7h-.7V9h.7Z" fill="#E32227"/><path d="M4.74 9v.7h-.71a69.46 69.46 0 0 0 0-.7h.7Z" fill="#34A249"/><path d="M5.45 9V9a76.48 76.48 0 0 1 0 .7h-.7V9h.7Z" fill="#E32227"/><path d="M8.29 9v.06a187.8 187.8 0 0 1-.01.65h-.7V9h.7Z" fill="#7F3493"/><path d="M9 9v.7h-.7l-.01.01v.7h-.71v-.7h.7a187.8 187.8 0 0 0 0-.7H9Z" fill="#F8981D"/><path d="M9.7 9v.7H9V9h.7Z" fill="#7F3493"/><path d="M11.13 9.7a282.24 282.24 0 0 1-.71 0V9h.7v.7ZM13.97 9v.7h-.71V9h.71Z" fill="#F6EC12"/><path d="M6.87 9v.02a496.2 496.2 0 0 0 0 .69h-.71V9h.7Z" fill="#2D84BA"/><path d="M9.7 9h.72v1.42a91.88 91.88 0 0 0-.71 0V9Z" fill="#E32227"/><path d="M12.55 9.7h.7v.11a81.34 81.34 0 0 0 0 .6h-.7v-.7Z" fill="#2D84BA"/><path d="M5.45 9.7v.72h-.7l-.01-.02a1421.23 1421.23 0 0 1 0-.7h.71ZM6.16 9.7h.7l.01.7v.02a201.83 201.83 0 0 1-.7-.01v-.7ZM9.7 9.7v.72H9V9.7h.7Z" fill="#F6EC12"/><path d="M7.58 9.7v.72h.71v.03a158.65 158.65 0 0 0 0 .68 197.31 197.31 0 0 1-.71 0v-.71h-.7l-.01-.01v-.7h.7Z" fill="#E32227"/><path d="M11.84 10.42h-.04a112.28 112.28 0 0 0-.67.01v.7h-.71v-.71h.7v-.7l.02-.01h.01a1028.35 1028.35 0 0 1 .69 0 202.95 202.95 0 0 1 0 .7Z" fill="#7F3493"/><path d="M6.16 10.4v.02h.01a201.83 201.83 0 0 0 .7 0 220 220 0 0 0 0 .7h.71v.71h-.7l-.01.01v.71a406.63 406.63 0 0 1-.7 0v-.71h.7v-.01a197.77 197.77 0 0 0 0-.7h-.7l-.01-.71v-.01Z" fill="#F8981D"/><path d="M13.97 10.42v.7h-.02a534.84 534.84 0 0 1-.7 0v-.7h.72Z" fill="#F6EC12"/><path d="M4.74 10.41h.71v.71h-.02a391.2 391.2 0 0 0-.69.01v.7h-.7v-.7a203.73 203.73 0 0 1 .7-.01 266.9 266.9 0 0 0 0-.7Z" fill="#F8981D"/><path d="M4.03 10.42h.71v.02a266.9 266.9 0 0 1 0 .69h-.07a203.72 203.72 0 0 0-.64-.02v-.7Z" fill="#7F3493"/><path d="M6.16 10.42v.7h-.71v-.7h.71ZM9 10.42h.71v.71a797.6 797.6 0 0 0-1.42 0v-.07a158.64 158.64 0 0 1 0-.64H9Z" fill="#2D84BA"/><path d="M9.7 10.42h.02a96.08 96.08 0 0 1 .7 0 408.01 408.01 0 0 0 0 .7H9.7a830.67 830.67 0 0 1 0-.7Z" fill="#34A249"/><path d="M11.84 10.42v1.41h-.01a521.8 521.8 0 0 1-.7 0v-1.4l.01-.01a121.71 121.71 0 0 1 .7 0Z" fill="#2D84BA"/><path d="M11.84 10.42h.7l.01.7h-.71v-.7Z" fill="#E32227"/><path d="M12.55 10.42h.7a162.15 162.15 0 0 1 0 .7l-.7.01v-.71Z" fill="#F8981D"/><path d="M5.45 11.12h.71v1.42a325.3 325.3 0 0 0 .7.01l.01.7h-.71v-.7h-.71v-1.42Z"/><path d="m8.3 11.13-.01.7h-.7v-.7h.7Z" fill="#34A249"/><path d="M8.29 11.12h.07a82.71 82.71 0 0 0 .64 0v.71h-.02a719.61 719.61 0 0 1-.7.01v.7h-.7v-.7a809.24 809.24 0 0 0 .7 0v-.71c.01 0 .01 0 0 0Z" fill="#7F3493"/><path d="M11.84 11.13h.71v.7h-.71v-.7Z"/><path d="M13.97 11.12v.04a31.48 31.48 0 0 0 0 .68h-.71v.7h-.71v-.7h.7v-.71a534.74 534.74 0 0 0 .72 0Z" fill="#34A249"/><path d="M5.45 11.13v.7h-.71v-.7a260.74 260.74 0 0 1 .7 0Z" fill="#fff"/><path d="M6.16 11.13h.7a197.77 197.77 0 0 1 0 .7h-.7v-.7Z" fill="#34A249"/><path d="m9.7 11.13.01.7H9v-.7h.71Z" fill="#F8981D"/><path d="M10.41 11.13a1530.7 1530.7 0 0 1 0 .7h-.7v-.7h.7Z" fill="#F6EC12"/><path d="M11.13 11.13v.7h-.72s.01 0 0 0V11.13h.72Z" fill="#F8981D"/><path d="M13.26 11.13v.7h-.71v-.7h.7Z" fill="#2D84BA"/><path d="M9 11.83v.71h-.71v-.7h.04a719.63 719.63 0 0 0 .67 0Z" fill="#E32227"/><path d="M4.74 11.84v.7h-.71v-.7h.71Z" fill="#F6EC12"/><path d="M5.45 11.84v.7h-.71v-.7h.7Z" fill="#34A249"/><path d="M7.58 11.84v.7h-.71v-.7h.7Z" fill="#E32227"/><path d="M11.84 11.83a57.76 57.76 0 0 0-.02.72h-.69v-.7l.01-.01a521.8 521.8 0 0 0 .7 0Z" fill="#34A249"/><path d="M9.71 11.84h.72l-.01.03v.68H9.7v-.71Z" fill="#E32227"/><path d="M11.13 11.84v.7h-.71a97.29 97.29 0 0 0 0-.7h.7Z" fill="#7F3493"/><path d="M11.84 11.84h.7v.7h-.7v-.7Z" fill="#F8981D"/><path d="M13.96 11.84v.7h-.7v.73l-.02-.01h-1.4v-.71h1.4l.02-.01v-.7h.7Z"/><path d="M4.03 12.55a160.07 160.07 0 0 1 .71.01 805.75 805.75 0 0 1 0 .7h-.05a118.33 118.33 0 0 1-.66 0v-.71Z" fill="#7F3493"/><path d="M11.13 12.54v.71H9.7v-.7h.7a808.06 808.06 0 0 0 .72 0ZM7.58 12.54H9v.72H7.57v-.71Z"/><path d="M11.84 12.54v.72h-.71v-.71a.57.57 0 0 0 .09 0 615.45 615.45 0 0 1 .62 0Z" fill="#F6EC12"/><path d="M5.45 12.55h.71v.7H4.74v-.01a805.7 805.7 0 0 0 0-.7h.71Z" fill="#E32227"/><path d="M6.87 12.55h.7v.7h-.7v-.7Z" fill="#F6EC12"/><path d="M9.7 12.55v.7H9v.71h-.71v-.7h.7v-.01l.01-.7h.7Z" fill="#34A249"/><path d="M4.74 13.25v.72h-.7v-.71h.03a118.33 118.33 0 0 0 .67 0ZM6.16 13.26v.71h-.71a97.62 97.62 0 0 1 0-.71h.7Z" fill="#2D84BA"/><path d="M6.87 13.26v.71h-.7a73.26 73.26 0 0 0-.01-.71 89.32 89.32 0 0 1 .7 0Z" fill="#34A249"/><path d="M7.58 13.26v.7l-.71.01v-.71h.7Z" fill="#7F3493"/><path d="M9.71 13.25v.72H9v-.71h.71Z" fill="#F6EC12"/><path d="M10.41 13.26v.01a507.9 507.9 0 0 1 0 .7h-.7v-.71h.7Z" fill="#E32227"/><path d="M11.12 13.26v.71h-.7V13.26h.7Z" fill="#F8981D"/><path d="M11.12 13.26h.72v.7h-.71a99.2 99.2 0 0 0 0-.7Z" fill="#7F3493"/><path d="M12.55 13.26v.7h-.71v-.7h.7Z" fill="#2D84BA"/><path d="M13.26 13.27v.7h-.71v-.71a132.76 132.76 0 0 1 .7.01Z" fill="#E32227"/><path d="M13.26 13.26h.71v.71h-.71v-.71Z" fill="#34A249"/></svg>