<!-- by TradingView --><svg width="18" height="18" viewBox="0 0 18 18" xmlns="http://www.w3.org/2000/svg"><path fill="#F0F3FA" d="M0 0h18v18H0z"/><path d="m13.96 12.38.04 1.54c-.38.06-.77.08-1.16.08-1.14 0-1.9-.63-2.01-1.62C10.25 13.47 9.25 14 7.49 14 5.72 14 4 13.14 4 11.27c0-2.06 1.89-2.63 3.53-2.92l3.47-.6c0-1.47-.82-2.38-2.29-2.38-1.8 0-2.53.61-2.53 2.07L4.35 7.2c.04-1.15.48-1.99 1.29-2.49A6.18 6.18 0 0 1 8.8 4C11.43 4 13 5.09 13 7.17v4.56c0 .75.2.83.96.65ZM11 9.02l-3.18.63c-1.1.23-1.82.51-1.82 1.6 0 .9.76 1.4 1.78 1.4 2.26 0 3.22-1.1 3.22-2.47V9.02Z" fill="#FF4A00"/></svg>