<!-- by TradingView --><svg width="18" height="18" viewBox="0 0 18 18" xmlns="http://www.w3.org/2000/svg"><path fill="#F0F3FA" d="M0 0h18v18H0z"/><path d="M4 5h2.05l.66 1.47S6.5 7.03 6.5 8s1.03 1.55 1.95 2c-.03 1.1-.13 2 .55 4H7v-4L4 5Z" fill="#670303"/><path d="M7.35 6s1.6.48 1.6 2.16c-.01.35-.02.77-.2 1.24-1.03-.16-2.4-1.77-1.4-3.4ZM8.63 4s2.44.92.8 3c-1.04-.28-2.16-1.79-.8-3ZM14 8.23S13.57 9.9 11.39 10c-.4.01-.86-.03-1.39-.14.09-.98 1.91-2.42 4-1.63Z" fill="#670303"/><path d="M14 6s0 2-3 2c-.1-1.07.76-2.04 3-2Z" fill="#670303"/><path d="M12.8 3s.2.4.2.96c0 .68-.24 1.4-1.7 2.04-.61-.77-.36-2.55 1.5-3Z" fill="#FFC436"/><path d="M11 7s-1.34 1.81-1.34 4c0 2.2 1.34 4 1.34 4-.9-.06-2-2.29-2-4 0-1.95 1.06-3.57 2-4Z" fill="#670303"/></svg>