<!-- by TradingView --><svg width="18" height="18" viewBox="0 0 18 18" xmlns="http://www.w3.org/2000/svg"><path fill="#F0F3FA" d="M0 0h18v18H0z"/><path d="M13.21 7.69a4.42 4.42 0 0 0-8.4 0c-.3.24-.54.3-.7.3A5.01 5.01 0 0 1 9.01 4c2.4 0 4.4 1.7 4.88 3.95-.29-.02-.51-.13-.68-.26Z" fill="#22BDEF"/><path d="M8.12 14a5.16 5.16 0 0 1-3.17-2.01c-1.2-1.64-.95-3.39-.89-3.8l.01-.05c.16.02.49.18.5.62v.06c.02.63.06 2.4 1.91 2.5.31.02 1-.13 1.28-.9 0-.05.36-.75.54-1.1.03-.05.16-.18.4-.08.1.06.16.16.08.61L8.12 14Zm-2.19-2.93C4.68 10.7 4.67 9.14 4.81 8.4c.44.18.5.52.5.72.06 1.02.44 1.72.62 1.95Zm.31.08c-.7-.75-.78-2-.73-2.53.4.11.47.44.46.6.03.87.57 1.64.83 1.91a1.5 1.5 0 0 1-.52.03h-.04Zm-.07-2.42c-.07.43-.01 1.5.86 2.34 0-.02.02-.03.06-.04.07-.04.2-.1.3-.25-.23-.2-.68-.75-.74-1.4-.01-.2-.13-.58-.48-.65ZM9.88 14c.63-.08 2.15-.6 3.17-2.01 1.2-1.64.95-3.39.89-3.8l-.01-.05c-.16.02-.49.18-.5.62v.06c-.02.63-.06 2.4-1.91 2.5-.31.02-1-.13-1.28-.9 0-.05-.36-.75-.54-1.1-.03-.05-.16-.18-.4-.08-.1.06-.16.16-.08.61L9.88 14Zm2.19-2.93c1.25-.36 1.26-1.93 1.12-2.67a.72.72 0 0 0-.5.72 3.73 3.73 0 0 1-.62 1.95Zm-.31.08c.7-.75.78-2 .73-2.53a.59.59 0 0 0-.46.6 3.21 3.21 0 0 1-.83 1.91c.16.06.43.04.52.03h.04Zm.07-2.42c.07.43.01 1.5-.86 2.34 0-.02-.02-.03-.06-.04-.07-.04-.2-.1-.3-.25.23-.2.68-.75.74-1.4.01-.2.13-.58.48-.65Z" fill="#644F43"/><path d="M8.87 5.4v1.34h.25V5.4h-.25Zm-1.17.26.47 1.27.24-.08-.48-1.28-.23.1Zm2.35-.08-.43 1.27.24.08.43-1.27-.24-.08Zm1.1.54-.86 1.1.2.15.86-1.1-.2-.15Zm-4.48.15.81 1.1.2-.15-.8-1.1-.2.15Zm5.32.77-1.18.69.13.21 1.17-.69-.12-.21Zm-6.08.21 1.16.7.13-.22-1.16-.7-.13.22Zm-.38 1.09 1.38.26.05-.25-1.38-.26-.05.25Zm6.9-.25-1.38.26.05.25 1.38-.26-.05-.25ZM9 7.13c.98 0 1.78.78 1.8 1.76h.39V9H6.8v-.1h.4a1.8 1.8 0 0 1 1.8-1.77Z" fill="#E42027"/></svg>