<!-- by TradingView --><svg width="18" height="18" viewBox="0 0 18 18" xmlns="http://www.w3.org/2000/svg"><path fill="#F0F3FA" d="M0 0h18v18H0z"/><path d="M4.54 9.99a4.6 4.6 0 0 0 1.64 1.24l.04-.01c.06-.04.07-.1.02-.16a3.4 3.4 0 0 1-.6-2.93c.48-1.94 2.63-3.25 4.52-2.44 1.82.77 2.55 2.16 2.2 4.18-.05.28-.22.63-.38.9-.07.1-.1.34-.12.71a2.47 2.47 0 0 1-.6 1.61l-.38.43c-.1.15-.08.18.09.1a5.05 5.05 0 0 0 2.4-7.09A4.93 4.93 0 0 0 9.9 4.08 4.94 4.94 0 0 0 4.43 6.9c-.25.5-.4 1.05-.42 1.67-.02.49.16.95.53 1.4Zm3.71 1.99c-.7-.84.5-2.01 1.44-1.4.28.18.43.43.45.76.06.76-.48 1.14-1.2 1.12a3.08 3.08 0 0 1-1.8-.51l-.43-.3c-.13-.1-.3-.17-.52-.23a3.08 3.08 0 0 1-2.06-1.64 1.68 1.68 0 0 0-.09-.03.06.06 0 0 0-.04.07c.57 2.25 2.2 3.95 4.52 4.16.9.09 1.63-.12 2.17-.6.54-.5.84-1.1.89-1.8a2.3 2.3 0 0 0-.31-1.5c-1.38-2-4.05-1.38-4.68.86a.29.29 0 0 0 .09.3c.45.4.95.7 1.5.86.15.04.18 0 .07-.12Z" fill="#CC0F28"/></svg>