<!-- by TradingView --><svg width="18" height="18" viewBox="0 0 18 18" xmlns="http://www.w3.org/2000/svg"><path fill="#F0F3FA" d="M0 0h18v18H0z"/><path d="M9.3 6.62c.43.03.83.12 1.21.26l.36-1.06.61.22-.58 1.01a4 4 0 0 1 .94.66l1.98-1.99.53.6-2.21 1.7c.23.29.43.6.57.93l1.25-.5.22.59-1.33.27c.1.33.15.68.15 1.04v1.15h3v.5H5v-.5h7.4v-1.15c0-1.76-1.52-3.2-3.4-3.2-1.9 0-3.4 1.44-3.4 3.2v.15H12v.5H2v-.5h3v-.15c0-.36.05-.7.15-1.03l-1.13-.38.3-.55.98.54c.15-.36.37-.69.63-.98L3.8 6.3l.56-.57L6.2 7.67c.31-.28.67-.52 1.07-.7l-.54-.93.61-.22.34 1c.38-.13.8-.2 1.22-.21L8.73 4h.76L9.3 6.62Z" fill="#9A0000"/></svg>