<!-- by TradingView --><svg width="18" height="18" viewBox="0 0 18 18" xmlns="http://www.w3.org/2000/svg"><path fill="#F0F3FA" d="M0 0h18v18H0z"/><path d="M13.24 9.88 9.81 4l2.31 7.06 1.12-1.18ZM8.51 4.35l-.2.06-4.49 7.72.1.33 1.6 1 3-9.11ZM9.32 4.17l-.28.18-1.14 9 2.36-.99-.94-8.19Z" fill="#9C9C8F"/><path d="M3.71 11.84c1.1 1.91 4.25 1.92 7.03.03 2.78-1.9 4.14-4.99 3.03-6.9-.2-.36-.48-.65-.82-.87.75.25 1.35.72 1.7 1.39 1.1 2.06-.47 5.26-3.5 7.16-3.02 1.9-6.36 1.78-7.45-.28a3.15 3.15 0 0 1-.34-1.61c.05.38.16.75.35 1.08Z" fill="#9C9C8F"/><path d="M8.66 7.64A6.1 6.1 0 0 0 3 11c1.8-1.86 3.35-2 4.34-2 1 0 2.06.36 3.7.36a4.9 4.9 0 0 0 3.61-1.84c.18-.23.55-.7.21-.45-.42.33-1.4.93-2.93.93-1.53 0-1.3-.36-3.27-.36Z" fill="#BF2920"/></svg>