<!-- by TradingView --><svg width="18" height="18" viewBox="0 0 18 18" xmlns="http://www.w3.org/2000/svg"><path fill="#F0F3FA" d="M0 0h18v18H0z"/><path d="M9.06 10H11c0-1.09-.64-2-2-2-.73 0-1.5.18-1.96.33 0 0-.27-.06-.35-.33-.08-.27-.08-.57.43-.73A6.1 6.1 0 0 1 9 7c1.68 0 3 1 3 2.8V14H8.75C7.32 14 6 13.67 6 12c0-1.9 1.81-2 3.06-2Zm-.64 3H11v-2H8.72C7.9 11 7 11.07 7 12c0 .73.85 1 1.42 1Z" fill="#47536C"/><path d="M7.16 6c-1.96 0-3.13-.7-3.13-.7s1.76-.08 2.72-.21c2.75-.38 3.97-1 6.25-2.06A6.8 6.8 0 0 1 7.16 6Z" fill="#DB274A"/></svg>