<!-- by TradingView --><svg width="18" height="18" viewBox="0 0 18 18" xmlns="http://www.w3.org/2000/svg"><path fill="#F0F3FA" d="M0 0h18v18H0z"/><path fill-rule="evenodd" d="M9 14.81A5.81 5.81 0 1 0 9 3.2 5.81 5.81 0 0 0 9 14.8ZM9 15A6 6 0 1 0 9 3a6 6 0 0 0 0 12Z" fill="#FA931D"/><path d="M3 9h12A6 6 0 1 0 3 9Z" fill="#FA931D"/><path fill="#124064" fill-opacity=".6" d="M7 9h4v2H7z"/><path d="M12.03 11.92a4.3 4.3 0 0 1-3.23 1.44 4.1 4.1 0 0 1-3.16-1.45 5.48 5.48 0 0 1-1.2-2.37l.74-.15c.1.53.43 1.35 1.02 2.03.58.67 1.42 1.2 2.6 1.2 1.18 0 2.05-.53 2.68-1.2.63-.69 1-1.51 1.13-2.05l.73.19a5.8 5.8 0 0 1-1.31 2.36Z" fill="#124064" fill-opacity=".6"/><path d="M4.7 12.73a6.86 6.86 0 0 1-1.43-3.2l.67-.1c.11.76.5 1.92 1.29 2.87.78.95 1.95 1.7 3.65 1.7 1.71 0 2.96-.74 3.8-1.69.86-.95 1.3-2.1 1.4-2.86l.66.07c-.1.91-.6 2.19-1.55 3.24a5.64 5.64 0 0 1-4.3 1.92 5.21 5.21 0 0 1-4.18-1.95Z" fill="#124064" fill-opacity=".6"/><path d="M9.76 5.6v.31c.03-.09.08-.18.13-.27.5-.9 1.2-1.46 1.56-1.26.36.2.26 1.09-.23 1.98l-.06.1c.09-.09.18-.17.28-.24.8-.65 1.65-.9 1.91-.58.26.32-.16 1.1-.95 1.74.95.03 1.7.36 1.7.75 0 .42-.82.76-1.85.76-1.02 0-1.85-.34-1.85-.76 0-.06.02-.12.06-.18-.1-.15-.07-.39.06-.66-.33.3-.65.45-.86.33-.14-.08-.21-.26-.22-.51-.12.2-.27.33-.43.33-.17 0-.32-.13-.44-.35 0 .26-.08.45-.22.53-.21.12-.53-.02-.86-.33.13.27.16.5.06.66.03.06.05.12.05.18 0 .42-.82.76-1.85.76-1.02 0-1.85-.34-1.85-.76 0-.4.75-.72 1.7-.75-.78-.64-1.2-1.42-.94-1.74.26-.32 1.11-.07 1.9.58.1.07.2.15.28.24a4.63 4.63 0 0 1-.05-.1c-.5-.89-.6-1.78-.23-1.98.37-.2 1.06.36 1.55 1.26l.16.3-.02-.35c0-1.02.34-1.85.76-1.85s.75.83.75 1.85Z" fill="#A34A2A"/></svg>