<!-- by TradingView --><svg width="18" height="18" viewBox="0 0 18 18" xmlns="http://www.w3.org/2000/svg"><path fill="#F0F3FA" d="M0 0h18v18H0z"/><path fill-rule="evenodd" d="M9.05 6.36h.97c.1 0 .13.05.1.13l-2.41 7.45a.09.09 0 0 1-.09.06H5.06c-.05 0-.07-.03-.06-.07l2.43-7.47c.01-.06.06-.1.13-.1h.83c.05 0 .08-.02.06-.06a8.88 8.88 0 0 0-.19-.1c-.72-.3-.88-.92-.55-1.53.13-.24.3-.5.5-.8.16-.22.13-.55.08-.79v-.04l.04-.03a.1.1 0 0 1 .1 0c1.03.56 1.48 1.32 1.34 2.3-.05.39-.3.7-.75.96-.12.07-.11.1.03.1Zm-.3-2.55v-.2c-.03-.16.02-.19.16-.06.68.61.83 1.3.44 2.07a.57.57 0 0 1-.34.3c-.74.26-1.23-.19-1.17-.83.03-.37.21-.75.53-1.13.1-.12.18-.15.27-.1.06.02.1 0 .1-.05Z" fill="#2C35E1"/><path d="m10.59 6.55 2.4 7.38v.05l-.03.01-.02.01h-2.5c-.08 0-.14-.04-.16-.1l-1.05-3.24a.32.32 0 0 1 0-.2l1.26-3.9c0-.02.01-.03.02-.03l.03-.01h.03l.02.03Z" fill="#2C35E1"/></svg>