<!-- by TradingView --><svg width="18" height="18" viewBox="0 0 18 18" xmlns="http://www.w3.org/2000/svg"><path fill="#F0F3FA" d="M0 0h18v18H0z"/><path fill="#B4B2AD" d="M4 5h10v.57H4zM4 12.43h10V13H4z"/><path d="M10.51 6.87c-.05 0-.08-.03-.08-.1 0-.05.03-.1.07-.1.13-.05.26-.08.4-.1.34-.08.69.1.93.34.38.36.77 1.06 1.39.66a.63.63 0 0 0 .24-.67c-.1-.46-.64-.52-1.02-.44-.2.05-.46.2-.67.14-.19-.04-.41-.2-.3-.45a.08.08 0 0 1 .12-.03l.19.15c.02.02.05.03.08.03s.06 0 .08-.02c.47-.33 1.14-.4 1.6-.03.33.27.5.66.45 1.12-.07.58-.37.93-.86 1.15-.34.15-.71.23-.9.6a.12.12 0 0 1-.05.06c-.17.09-.52-.17-.64-.27-.08-.07-.1-.15-.05-.25.13-.3.14-.61.03-.92-.17-.48-.52-.83-1-.87Z" fill="#53707B"/><path d="M10.7 7.25c.22.01.4.14.5.38.18.35.24.73.07 1.1-.1.22-.4.3-.61.25a1.6 1.6 0 0 1-.99-.66.65.65 0 0 1-.11-.36c0-.13.04-.26.12-.38.15-.22.51-.43.79-.37l.23.04Z" fill="#53707B"/><path d="M5.57 9.62h.02c.02.02.05.01.07-.01.1-.11.21-.26.32-.44a4.66 4.66 0 0 1 1.88-1.5c.37-.15.8-.21 1.23-.17a.2.2 0 0 1 .15.08.11.11 0 0 1 .02.09c0 .73.8 1.32 1.43 1.43.2.04.38-.02.56-.1a.16.16 0 0 1 .1 0c.04 0 .08.03.1.06.55.8.75 1.82.44 2.78a.2.2 0 0 1-.18.14h-.84c-.05 0-.08-.04-.08-.1 0-.1 0-.2-.02-.3-.07-.54-.67-.93-1.13-1.08a3.7 3.7 0 0 0-2.37.02c-.77.31-1.37.78-1.97 1.35-.1.09-.2.13-.34.13h-.85c-.07 0-.11-.02-.11-.05a9.5 9.5 0 0 0 1.39-1.91c.05-.1.02-.17 0-.27a.64.64 0 0 1 .5-.82c.16-.02.18.03.06.15-.15.15-.28.31-.39.48-.01.02 0 .03.01.04Z" fill="#53707B"/><path d="M10.25 11.67c-.13.16-.34.33-.56.33h-.9c-.04 0-.07-.06-.04-.1.22-.32.42-.65.6-.98.22-.39.78.25.92.46.07.1.06.2-.02.29ZM6.86 10.83c.1-.07.2-.03.28.1l.54.98c.02.03 0 .09-.04.09h-.76c-.21 0-.74-.24-.77-.5-.01-.09.1-.18.14-.22.21-.18.41-.33.6-.45Z" fill="#53707B"/></svg>