<!-- by TradingView --><svg width="18" height="18" viewBox="0 0 18 18" xmlns="http://www.w3.org/2000/svg"><path fill="#F0F3FA" d="M0 0h18v18H0z"/><path fill-rule="evenodd" d="M4.9 8.96h-.03c-.65-.08-1.78-.06-1.86.93-.08.91.7 1.24 1.37 1.07a2.1 2.1 0 0 0 .64-.29h.01l.01.01.01.02c.8 2.02 2.5 3.33 4.5 3.3a4.14 4.14 0 0 0 2.96-1.25c1.77-1.76 2-4.9.47-6.93-2.4-3.17-6.88-2-7.81 1.96l-.02.02h-.02a2.67 2.67 0 0 0-1.77.12V8.62l.01.02a.04.04 0 0 0 .04 0c.4-.22 1.37-.47 1.5.27a.05.05 0 0 1 0 .04h-.02Zm5.35-.33v-.67c0-.03 0-.05.03-.06a2.7 2.7 0 0 1 1.44-.16c.2.05.33.08.38.11.68.37.65 1.03.62 1.73-.02.38-.04.77.06 1.13l.01.03h.06l.02-.03c.8-2.34-.12-4.89-2.22-5.84a3.64 3.64 0 0 0-3.6.35A4.4 4.4 0 0 0 5.31 7.9l.02.02c.26.17.42.43.47.78.05.32.1.58.16.79.19.63.72.88 1.3.78.37-.05.28-.4 0-.5a13.1 13.1 0 0 1-.71-.27c-.25-.1-.39-.3-.42-.6-.09-.67.36-1.09.91-1.16.4-.06.82-.02 1.25.13.02 0 .03.03.03.06l-.06.66v.02l-.02.02a.04.04 0 0 1-.05 0 1.39 1.39 0 0 0-.87-.18c-.1 0-.31.08-.27.25 0 .06.04.1.1.13.12.06.39.15.78.28.22.07.38.21.48.42.14.3.1.81-.1 1.08-.43.54-1.39.42-1.97.32h-.01l-.01.01v.04a3.54 3.54 0 0 0 4.3 1.91 3.8 3.8 0 0 0 2.12-1.92l-.01-.02H11.9c-.02 0-.03-.02-.04-.04l-.03-.35c0-.07-.03-.08-.06-.02-.26.43-.7.54-1.14.45-.52-.12-.8-.52-.74-1.14.08-.9 1.18-.96 1.78-.89.13.02.16-.04.1-.16l-.05-.1a.48.48 0 0 0-.14-.16.43.43 0 0 0-.2-.08 1.68 1.68 0 0 0-1.11.2h-.02l-.01-.02Zm-5.36.9h-.01l-.14-.01c-.33-.01-.77-.03-.83.38-.01.1.02.18.1.25.17.15.35.17.55.05.22-.13.33-.34.35-.64a.04.04 0 0 0-.01-.03h-.01Zm6.74 0c-.33-.02-.78-.04-.83.37-.01.1.02.18.1.25.16.15.35.17.55.05.21-.12.33-.34.35-.64v-.01a.03.03 0 0 0-.02-.02H11.63ZM9.19 7.54c.28 0 .5-.25.5-.55 0-.3-.22-.55-.5-.55-.27 0-.5.25-.5.55 0 .3.23.55.5.55Zm.44.23h-.89c-.02 0-.05.02-.05.05v3.05c0 .03.03.05.05.05h.9c.02 0 .04-.02.04-.05V7.83c0-.03-.02-.05-.05-.05Z" fill="#5AB125"/></svg>