<!-- by TradingView --><svg width="18" height="18" viewBox="0 0 18 18" xmlns="http://www.w3.org/2000/svg"><path fill="#F0F3FA" d="M0 0h18v18H0z"/><ellipse cx="9" cy="9.15" rx="4" ry="4.15" fill="url(#agoxxs2rc)"/><path d="M3.92 8h.1l.65 2h-.45l-.1-.4h-.57l-.1.4H3l.64-2h.28Zm-.26 1.2H4l-.17-.64-.17.64Zm1.93.26v-.09a.17.17 0 0 0-.05-.07.38.38 0 0 0-.1-.06 1.09 1.09 0 0 0-.15-.07 2.12 2.12 0 0 1-.21-.1.94.94 0 0 1-.19-.12.52.52 0 0 1-.18-.4.51.51 0 0 1 .2-.4.62.62 0 0 1 .2-.11.83.83 0 0 1 .59.03c.1.05.17.12.22.21.05.1.08.2.08.32h-.4c0-.04-.01-.09-.03-.13a.2.2 0 0 0-.08-.08.25.25 0 0 0-.13-.04c-.05 0-.1.01-.13.03a.19.19 0 0 0-.1.17c0 .03 0 .06.02.08l.06.07a1.5 1.5 0 0 0 .23.11l.23.11c.07.04.13.09.18.14.05.05.09.1.11.17a.6.6 0 0 1 .04.22c0 .09-.01.17-.04.24a.47.47 0 0 1-.13.17.56.56 0 0 1-.2.1.9.9 0 0 1-.51 0 .71.71 0 0 1-.23-.12.59.59 0 0 1-.16-.2.68.68 0 0 1-.06-.3h.4c0 .06.01.1.03.15 0 .04.03.07.05.1l.1.04a.5.5 0 0 0 .13.02c.05 0 .09-.01.12-.03a.17.17 0 0 0 .07-.07.21.21 0 0 0 .02-.1Zm1.08.54V8h-.34v2h.34Zm1.36-2h-.39L7 10h.45l.1-.4h.56l.1.4h.46l-.64-2ZM8 9.2h-.34l.17-.64.17.64Zm1.67.12H10c.14 0 .25-.03.35-.08.1-.05.17-.13.23-.22a.7.7 0 0 0 .08-.34.75.75 0 0 0-.08-.35.59.59 0 0 0-.23-.24.67.67 0 0 0-.35-.09h-.68v2h.34v-.68Zm0-.37v-.58H10c.06 0 .1.02.14.05.04.02.06.06.08.1a.44.44 0 0 1 0 .3.2.2 0 0 1-.08.1.26.26 0 0 1-.14.03h-.34Zm2.8.01v.08c0 .15-.01.28-.05.4a.88.88 0 0 1-.17.3.76.76 0 0 1-.6.26.77.77 0 0 1-.6-.26.9.9 0 0 1-.18-.3 1.24 1.24 0 0 1-.06-.4v-.08c0-.15.02-.28.06-.4.04-.12.1-.22.17-.3a.74.74 0 0 1 .27-.2c.1-.04.21-.06.33-.06.13 0 .24.02.34.07.1.04.19.1.26.19.08.08.14.18.18.3.04.12.06.25.06.4Zm-.46.08v-.08c0-.1 0-.18-.02-.26a.57.57 0 0 0-.07-.18.31.31 0 0 0-.28-.15.3.3 0 0 0-.27.15.59.59 0 0 0-.07.18 1.3 1.3 0 0 0-.02.26v.08c0 .1 0 .18.02.25a.6.6 0 0 0 .07.19c.03.05.07.09.12.11.04.03.1.04.16.04s.1 0 .15-.04a.32.32 0 0 0 .12-.11.59.59 0 0 0 .07-.19l.02-.25Zm1.66.96v-.4H13V8h-.33v2h1Zm.5-1.46L13.82 8h-.49l.67.95V10h.33V8.95L15 8h-.49l-.34.54Z" fill="#ED1C24"/><path d="M3 11h12v2H3v-2Z" fill="#009BDF"/><path d="M11.72 13.23a5.15 5.15 0 0 1-5.44 0h1.16a4.66 4.66 0 0 0 3.12 0h1.16Zm2.25-5.38A5.08 5.08 0 0 0 9 4a5.08 5.08 0 0 0-4.97 3.85h.53A4.58 4.58 0 0 1 9 4.5a4.58 4.58 0 0 1 4.44 3.35h.53Z" fill="#ED1C24"/><defs><linearGradient id="agoxxs2rc" x1="9" y1="5" x2="9" y2="13.29" gradientUnits="userSpaceOnUse"><stop stop-color="#009BDF"/><stop offset=".38" stop-color="#C4C4C4" stop-opacity="0"/></linearGradient></defs></svg>