<!-- by TradingView --><svg width="18" height="18" viewBox="0 0 18 18" xmlns="http://www.w3.org/2000/svg"><path fill="#F0F3FA" d="M0 0h18v18H0z"/><path d="M8 3h2v1h1.5v3H13v3h-1.5V9H10V7.67H8V9H6.5v1H5V6h1.5V4.5H8V3Z" fill="#00B4E5"/><path d="M5 11.5V10h1.5v1H8v1h2v-1h1.5v-1H13v1.77l-1.5 1.72v.02L10 15H8l-1.5-1.75v-.05L5 11.5Z" fill="#054F7D"/><path d="m6.64 7.82 1.45-1.94V9H6.64V7.82ZM5 10l1.45-1.94V10H5ZM11.55 10H13l-1.45-1.94V10ZM9.9 5.88l1.46 1.94V9H9.91V5.88ZM9.73 5.64v2.03H8.27V5.64L9 4.67l.73.97Z" fill="#6DC6EB"/></svg>