<!-- by TradingView --><svg width="18" height="18" viewBox="0 0 18 18" xmlns="http://www.w3.org/2000/svg"><path fill="#F0F3FA" d="M0 0h18v18H0z"/><path fill-rule="evenodd" d="M6 6.33V3h4.17l1.27 3.33H10.3l-.25-.66H7.33v.66H6ZM7.44 4h1.92c.06 0 .1.04.13.1l.11.4a.13.13 0 0 1-.12.17H7.44a.13.13 0 0 1-.13-.14v-.4c0-.07.06-.13.13-.13ZM6 6.67h5.53l.4 1H7.44c-.07 0-.13.03-.13.1v.14c0 .07.06.09.13.09h4.64l.79 2H6v-.67h4.99c.07 0 .13-.03.13-.1V9.1c0-.07-.06-.1-.13-.1H6V6.67Zm0 3.66V14h1.33v-.93l1.46-.76L11.83 14H14l-4.02-2.31 2.6-1.36h-2.42l-2.83 1.52v-1.52H6Z" fill="#B3281B"/></svg>