<!-- by TradingView --><svg width="18" height="18" viewBox="0 0 18 18" xmlns="http://www.w3.org/2000/svg"><path fill="#F0F3FA" d="M0 0h18v18H0z"/><path d="M12.28 12.68c-.87.27-2.02.44-3.28.44a11.5 11.5 0 0 1-3.3-.44l.16-.64c.63.3 1.8.49 3.14.49 1.33 0 2.49-.2 3.13-.49l.15.64Z" fill="#E60025"/><path d="M10.08 4.78c-.33-1.04-1.83-1.04-2.16 0L5 14h1.61L9 6.45 11.39 14H13l-2.92-9.22Z" fill="#01A369"/><path d="M5.93 11.06c-.43.16-.68.35-.68.57 0 .15.13.29.37.4l-.18.56C4.55 12.28 4 11.84 4 11.35c0-.97 2.24-1.76 5-1.76s5 .79 5 1.76c0 .49-.55.93-1.45 1.24l-.17-.55c.24-.12.37-.26.37-.41 0-.22-.26-.41-.69-.58l-.01-.05h-.14A9.96 9.96 0 0 0 9 10.62c-1.15 0-2.22.15-2.91.38h-.14l-.02.06Z" fill="#E60025"/></svg>