<!-- by TradingView --><svg width="18" height="18" viewBox="0 0 18 18" xmlns="http://www.w3.org/2000/svg"><path fill="url(#a)" d="M0 0h18v18H0z"/><path d="M14 9.04c0-.63-1.38-1.16-3.31-1.36L8.95 4 7.2 7.69C5.33 7.89 4 8.42 4 9.04c0 .47.8.9 2.03 1.16L4.9 12.56l-.52.06V13h1.5l.97-2.66a16.12 16.12 0 0 0 4.18.01L12 13h1.53v-.38l-.51-.05-1.12-2.36C13.17 9.95 14 9.52 14 9.04Zm-3.33.27c-.19-.19-.45-.32-.75-.37-.34-.06-.69-.09-1.03-.09-.27 0-.53-.03-.78-.1-.31-.1-.46-.27-.42-.42.15-.5 1.77-.48 2.18-.3.12.05.23.11.31.19a.7.7 0 0 1 .2.27l.29.82ZM7.5 8.56c.02.3.83.47 1.37.48.34 0 .68.04 1.02.1.74.2.6.57.25.79-.36.2-1.56.3-2.32-.03-.47-.2-.58-.44-.6-.58l.28-.76ZM8.9 4.78c.01-.04.12-.04.15 0l1.02 2.85a16.43 16.43 0 0 0-2.21 0l1.04-2.85ZM4.74 9.04c0-.46.94-.85 2.32-1.04l-.9 1.9c-.87-.2-1.42-.52-1.42-.86Zm7.01.88L10.84 8c1.42.19 2.4.58 2.4 1.05 0 .35-.57.67-1.49.88Z" fill="#fff"/><defs><linearGradient id="a" x1="3.35" y1="3.12" x2="21.9" y2="24.43" gradientUnits="userSpaceOnUse"><stop stop-color="#1A1E21"/><stop offset="1" stop-color="#06060A"/></linearGradient></defs></svg>