<!-- by TradingView --><svg width="18" height="18" viewBox="0 0 18 18" xmlns="http://www.w3.org/2000/svg"><path fill="#F0F3FA" d="M0 0h18v18H0z"/><path d="m10.6 7.59 1.37-2.8.03-.03a.08.08 0 0 1 .1 0l.02.05L15 12.9a.08.08 0 0 1-.04.1H10.1c-.02 0-.04 0-.06-.02-.01-.02-.04-.04-.04-.06v-1.34c0-.02.03-.04.04-.06a.08.08 0 0 1 .06-.02h1.76a.08.08 0 0 0 .07-.04.08.08 0 0 0 .01-.07L10.6 7.65a.08.08 0 0 1 0-.06Z" fill="#052A53"/><path d="M9.5 4.4c-.02.04-.05.07-.08.08a19.1 19.1 0 0 0-1.77.84.17.17 0 0 1-.15-.08.16.16 0 0 1-.02-.08V4.2c0-.13.07-.19.2-.19h.22c.13 0 .2.06.2.19.01.2.07.4.32.44.48.1.77-.07.89-.48.02-.08.07-.12.15-.11h.78c.18.01.19.05.02.11-.07.03-.27.07-.58.13a.25.25 0 0 0-.17.11Z" fill="url(#a)"/><path d="M10.05 5.24c-.4 0-.61.2-.63.6.01.27.2.46.57.58.07.02.09.07.06.14l-2.1 4.23c-.1.2-.16.2-.2-.03l-.2-1.1v-.12a.22.22 0 0 1 .08-.1c.19-.14.28-.32.28-.53 0-.03 0-.06-.02-.09a.23.23 0 0 0-.06-.08l-.35-.28a.36.36 0 0 1-.14-.21c-.2-1.02-.04-1.8.47-2.32a4.71 4.71 0 0 1 3.05-1.36.1.1 0 0 1 .04.04.1.1 0 0 1 .01.1l-.3.62c-.03.07-.09.1-.17.07a.54.54 0 0 1-.16-.09.37.37 0 0 0-.23-.07Zm-.8 2.03a.53.53 0 0 0-.17-.38.56.56 0 0 0-.78 0 .53.53 0 0 0 0 .77.56.56 0 0 0 .78 0c.1-.1.17-.24.17-.39Z" fill="url(#b)"/><path d="m7.03 4.72-.79 1.54.01.01c.07.03.17-.01.29-.13.12-.11.24-.28.34-.48l.04-.08a2.28 2.28 0 0 0 .19-.55.56.56 0 0 0 0-.2c-.01-.05-.04-.09-.07-.1h-.01Z" fill="url(#c)"/><path fill-rule="evenodd" d="M5.5 7.78c-.35.44-.42.86-.2 1.23a5.1 5.1 0 0 0-1.45 2.1.23.23 0 0 0 .03.23c.16.23.39.35.67.34.22 0 .37.02.44.07.14.1.22.25.24.47.01.08.05.13.13.17l1.25.58a.28.28 0 0 0 .28-.02.27.27 0 0 0 .1-.12c.01-.04.02-.09 0-.14a.85.85 0 0 0-.1-.33.4.4 0 0 1-.02-.45c.04-.07.1-.13.18-.18a.49.49 0 0 1 .24-.06c.06 0 .13-.01.21-.05.09-.03.13-.1.12-.18a6.21 6.21 0 0 0-.76-2.3 7.9 7.9 0 0 0 .08-2.7c-.01-.11-.07-.14-.16-.07l-.42.28c-.08.05-.09.11-.02.18.18.18.3.4.17.67-.17.38-.45.33-.8.21-.08-.03-.16 0-.22.07Zm1.06 2.67a.52.52 0 0 0-.16-.37.55.55 0 0 0-.76 0 .52.52 0 0 0 .17.86.55.55 0 0 0 .6-.12.53.53 0 0 0 .15-.37Z" fill="url(#d)"/><path d="M5.14 12.62c-.37.05-.62.05-.75-.01a.33.33 0 0 1-.2-.3c-.03-.36-.14-.53-.46-.67-.08-.04-.15-.02-.19.06l-.53 1.07a.13.13 0 0 0-.01.07c0 .04.08.16.13.16h2.4c.03 0 .12-.07.07-.12l-.23-.19a.3.3 0 0 0-.23-.07Z" fill="url(#e)"/><defs><linearGradient id="a" x1="6.96" y1="4" x2="6.96" y2="13" gradientUnits="userSpaceOnUse"><stop stop-color="#5BABC6"/><stop offset=".49" stop-color="#0277BA"/></linearGradient><linearGradient id="b" x1="6.96" y1="4" x2="6.96" y2="13" gradientUnits="userSpaceOnUse"><stop stop-color="#5BABC6"/><stop offset=".49" stop-color="#0277BA"/><stop offset=".97" stop-color="#003D80"/></linearGradient><linearGradient id="c" x1="6.96" y1="4" x2="6.96" y2="13" gradientUnits="userSpaceOnUse"><stop stop-color="#5BABC6"/><stop offset=".49" stop-color="#0277BA"/></linearGradient><linearGradient id="d" x1="6.96" y1="4" x2="6.96" y2="13" gradientUnits="userSpaceOnUse"><stop stop-color="#5BABC6"/><stop offset=".49" stop-color="#0277BA"/><stop offset=".97" stop-color="#003D80"/></linearGradient><linearGradient id="e" x1="6.96" y1="4" x2="6.96" y2="13" gradientUnits="userSpaceOnUse"><stop offset=".49" stop-color="#0277BA"/><stop offset=".97" stop-color="#003D80"/></linearGradient></defs></svg>