<!-- by TradingView --><svg width="18" height="18" viewBox="0 0 18 18" xmlns="http://www.w3.org/2000/svg"><path fill="#482C77" d="M0 0h18v18H0z"/><path d="M10.86 8.96a2.2 2.2 0 0 1-1.56-.62 1.9 1.9 0 0 1-.25-.3c.07-.1.27-.4.36-.85.09.35.25.64.46.85.27.26.62.41.99.41.79 0 1.43-.66 1.43-1.47 0-.81-.64-1.47-1.43-1.47-.54 0-1.28.16-1.5 1.47l-.01.03c-.07.37-.19.68-.35.95-.4.64-1.04 1-1.86 1C5.96 8.96 5 8.07 5 6.98 5 5.88 5.96 5 7.14 5a2.21 2.21 0 0 1 1.78.89c-.08.12-.25.42-.33.86v.02a1.87 1.87 0 0 0-.48-.87 1.4 1.4 0 0 0-.97-.4c-.79 0-1.43.67-1.43 1.48 0 .81.64 1.47 1.43 1.47 1.09 0 1.41-1 1.5-1.47v-.03c.07-.39.18-.71.34-.98.36-.65 1-.97 1.88-.97C12.04 5 13 5.89 13 6.98c0 1.1-.96 1.98-2.14 1.98ZM9 11.07V13h-.67v-1.87c0-.23 0-.42-.05-.6-.18-.54-.8-.78-1.26-.78-.46 0-1.11.2-1.3.78-.07.19-.07.4-.07.6V13H5v-1.94c0-.2 0-.43.08-.64.24-.7 1.07-1.15 1.94-1.15.87 0 1.66.47 1.89 1.14.07.21.09.43.09.66Zm.14.07A1.9 1.9 0 0 0 11.07 13c.49 0 .94-.18 1.28-.47V13H13v-1.87a1.9 1.9 0 0 0-1.93-1.86 1.9 1.9 0 0 0-1.93 1.87Zm.64 0c0-.76.6-1.4 1.29-1.4.7 0 1.28.64 1.28 1.4 0 .74-.59 1.38-1.28 1.38-.7 0-1.29-.63-1.29-1.39Z" fill="#fff"/></svg>