<!-- by TradingView --><svg width="18" height="18" viewBox="0 0 18 18" xmlns="http://www.w3.org/2000/svg"><path fill="#F0F3FA" d="M0 0h18v18H0z"/><path d="m8.97 13-.12-2.02a4.26 4.26 0 0 0-6.85.6c0-.44.02-1.4.2-1.8.23-.52 1.52-1.53 3.32-1.53 1.44 0 2.63.92 3.04 1.37-.42-.65-1.64-1.96-3.18-1.96-1.54 0-2.24.52-2.4.78.21-.37.98-1.12 2.4-1.12S8.21 8.7 8.74 9.38c-.42-.83-1.64-2.49-3.17-2.49-.16 0-.6.03-.98.23.07-.16.37-.5 1.06-.5.86 0 2.38.73 3.13 2.34v-.52c.06-.09.12-.33.12-.6 0-.28-.23-.6-.34-.72.15-.19.44-.67.44-1.11V6c0 .45.3.93.44 1.12-.11.13-.34.44-.34.72 0 .27.06.51.12.6v.52c.75-1.61 2.27-2.33 3.13-2.33.7 0 1 .33 1.06.5-.38-.21-.82-.25-.98-.24-1.53 0-2.75 1.66-3.17 2.49.53-.69 1.94-2.06 3.36-2.06s2.19.75 2.4 1.12c-.16-.26-.86-.78-2.4-.78S9.86 8.97 9.44 9.62a4.47 4.47 0 0 1 3.04-1.37c1.8 0 3.09 1.01 3.32 1.52.18.4.2 1.37.2 1.8a4.26 4.26 0 0 0-6.85-.6L9.03 13h-.06ZM9 7.31c.03-.01.1-.06.1-.17 0-.11-.07-.17-.1-.19-.03.02-.1.08-.1.19 0 .1.07.16.1.17Z" fill="#031F8A"/></svg>