<!-- by TradingView --><svg width="18" height="18" viewBox="0 0 18 18" xmlns="http://www.w3.org/2000/svg"><path fill="#F0F3FA" d="M0 0h18v18H0z"/><path d="m8.52 8.34-.01-.05c0-.02.01-.02.03 0h.01c.02.02.03.02.03 0v-.1a.1.1 0 0 0-.02-.07c-.06-.07-.08-.17-.16-.25a2.19 2.19 0 0 0-.97-.6 3.88 3.88 0 0 0-.79-.04c-.28.01-.53.07-.75.17A3.37 3.37 0 0 0 4.55 8.5h-.03a.04.04 0 0 1-.04-.02V8.4c.06-.14.1-.27.14-.4 0-.03 0-.04-.03-.03a.1.1 0 0 1-.04 0c0-.04.03-.08.08-.14.26-.3.57-.56.94-.78.26-.15.54-.25.82-.3A2.15 2.15 0 0 1 8.92 8.2c.04.13.07.28.07.44a16.05 16.05 0 0 0 0 .47V9.1a1.8 1.8 0 0 0-.47-.76Z" fill="#9DD0E6"/><path d="M7.83 7.43c-.17-.09-.3-.14-.4-.16a3.88 3.88 0 0 0-.79-.04c-.27.01-.53.07-.75.17A3.37 3.37 0 0 0 4.55 8.5h-.03a.04.04 0 0 1-.03-.02V8.4c.05-.14.1-.27.13-.4 0-.03 0-.04-.03-.03a.1.1 0 0 1-.04 0c-.32.45-.5.92-.53 1.4l.3.72c.63 1.1 1.06 1.18 2.07 1.1-.57-.91-.36-2.48.77-2.96.2-.1.38-.14.54-.14.28-.01.56.07.82.24l-.01-.05c0-.02.01-.02.03 0h.01c.02.02.03.02.03 0v-.1a.1.1 0 0 0-.02-.07.6.6 0 0 1-.07-.11c-.02-.05-.05-.1-.09-.14a2.19 2.19 0 0 0-.57-.44Z" fill="url(#a)"/><path d="M11.35 13a5.11 5.11 0 0 1-5.33.45c-.53-.3-.97-.71-1.31-1.24A4.35 4.35 0 0 1 4 9.39l.31.71a.9.9 0 0 0 .04.76c.19.38.44.73.74 1.06.11.12.23.2.37.3l.1.08a3.84 3.84 0 0 0 2.8.63 4.62 4.62 0 0 0 4.02-4.02c.12-1-.07-1.88-.59-2.65a3.38 3.38 0 0 0-1.01-1 3.7 3.7 0 0 0-2.61-.5 4.3 4.3 0 0 0-1.36.38c-.37.19-.64.3-.82.37.5-.45 1.04-.8 1.63-1.06 2.9-1.25 5.98.19 6.35 3.33a5.95 5.95 0 0 1-2.62 5.2Z" fill="url(#b)"/><path d="M12.29 9.43a4.62 4.62 0 0 1-3.92 3.5 3.84 3.84 0 0 1-2.8-.63l-.1-.08a2.3 2.3 0 0 1-.37-.3c-.3-.33-.55-.68-.74-1.06a.9.9 0 0 1-.04-.76c.7 1.24 3.76 1.98 5.14-.95.05-.12.1-.25.13-.37.25-.82.14-1.72-.41-2.39a2.46 2.46 0 0 0-2.4-.8c-.55.1-1.02.32-1.41.64-.16.14-.18.13-.05-.04.18-.23.4-.46.68-.68.18-.06.45-.18.82-.37.34-.18.8-.3 1.36-.38a3.64 3.64 0 0 1 3.62 1.5 3.76 3.76 0 0 1 .49 3.17Z" fill="url(#c)"/><defs><linearGradient id="a" x1="4.57" y1="8.82" x2="6.22" y2="11.18" gradientUnits="userSpaceOnUse"><stop stop-color="#5196C4"/><stop offset="1" stop-color="#A7CFE4"/></linearGradient><linearGradient id="b" x1="13.67" y1="9.25" x2="4.46" y2="8.98" gradientUnits="userSpaceOnUse"><stop stop-color="#0F335C"/><stop offset="1" stop-color="#1266A0"/></linearGradient><linearGradient id="c" x1="8.34" y1="4.7" x2="6.65" y2="12.67" gradientUnits="userSpaceOnUse"><stop stop-color="#52B3DB"/><stop offset="1" stop-color="#173D6D"/></linearGradient></defs></svg>