<!-- by TradingView --><svg xmlns="http://www.w3.org/2000/svg" width="18" height="18"><path fill="#F0F3FA" d="M0 0h18v18H0z"/><path d="M3.65 13c-.22 0-.33-.28-.18-.44l1.65-1.53c.06-.07 0-.2-.1-.19l-.64.09a.25.25 0 01-.26-.35l2.35-6.06a.54.54 0 01.5-.35c.22 0 .42.13.5.34l1.15 2.7a.7.7 0 010 .5L6.64 13H3.65z" fill="url(#azff25fj3)"/><path d="M4.83 10.66c-.3.18-.83.24-.7-.08l2.34-6.06a.54.54 0 01.5-.35c.22 0 .42.13.5.34l1.15 2.7a.7.7 0 010 .5l-.29.79-3.5 2.16z" fill="url(#bzff25fj3)"/><path d="M7.53 4.04A.12.12 0 017.62 4h2.87a.9.9 0 01.82.56l3.27 8.02c.08.2-.06.42-.27.42h-2.64a.6.6 0 01-.56-.38l-.46-1.13a.23.23 0 01.05-.25l1.97-2.11c.05-.05.02-.13-.05-.13H9.83a.29.29 0 01-.26-.18L7.79 4.47a.74.74 0 00-.22-.29c-.07-.05-.1-.08-.04-.14z" fill="url(#czff25fj3)"/><path d="M7.62 4c-.07 0-.16.08-.1.15l.08.06c.06.05.13.12.19.26l1.42 3.5 2.85-1.55-.75-1.86a.9.9 0 00-.82-.56H7.62z" fill="url(#dzff25fj3)"/><defs><linearGradient id="azff25fj3" x1="7.62" y1="9.3" x2="5.93" y2="12.95" gradientUnits="userSpaceOnUse"><stop stop-color="#D76E69"/><stop offset="1" stop-color="#E93223"/></linearGradient><linearGradient id="bzff25fj3" x1="6.39" y1="4.17" x2="4.33" y2="10.5" gradientUnits="userSpaceOnUse"><stop stop-color="#B22619"/><stop offset="1" stop-color="#E03323"/></linearGradient><linearGradient id="czff25fj3" x1="11.73" y1="7.09" x2="12.74" y2="12.99" gradientUnits="userSpaceOnUse"><stop stop-color="#CBC6BE"/><stop offset="1" stop-color="#877D6D"/></linearGradient><linearGradient id="dzff25fj3" x1="9.78" y1="4" x2="9.78" y2="7.96" gradientUnits="userSpaceOnUse"><stop stop-color="#C1BAAE"/><stop offset="1" stop-color="#ADA699"/></linearGradient></defs></svg>