<!-- by TradingView --><svg width="18" height="18" viewBox="0 0 18 18" xmlns="http://www.w3.org/2000/svg"><path fill="#F0F3FA" d="M0 0h18v18H0z"/><path d="M11.72 5.9c.06-.03.1.01.13.1-.11.04-.2 0-.28-.09a.11.11 0 0 1-.03-.1c0-.06 0-.13-.02-.2-.02-.03-.04-.05-.09-.05a.72.72 0 0 1-.4-.18c-.04-.03-.07-.03-.09 0-.03.06-.04.11-.01.15.06.09.04.18-.07.27a.1.1 0 0 0-.03.12c.01.04.05.07.1.08a.1.1 0 0 1 .03.02c.05.04.04.06-.03.07-.1 0-.16.04-.16.12a.33.33 0 0 1-.12-.07c.06 0 .08-.04.05-.15-.02-.07-.05-.07-.1-.03a.07.07 0 0 1-.04.02.1.1 0 0 1-.08-.04.2.2 0 0 0-.14-.07c-.04 0-.06.02-.06.06v.04c-.01-.06-.03-.1-.05-.11l.1-.07a.15.15 0 0 0 .05-.06l.16-.4c.01-.04 0-.07-.03-.08l-.37-.16c-.07-.04-.08-.08-.03-.14.18-.2.3-.44.36-.72.1-.12.15-.25.13-.37.03-.14-.02-.24-.13-.28a.12.12 0 0 1-.07-.07.15.15 0 0 1 0-.11c.03-.08.07-.09.13-.02l.45.54.04.1a.6.6 0 0 0 .16.31c.03.03.04.03.03-.02-.04-.17.03-.35.2-.53.04-.03.04-.07.02-.1s-.05-.05-.1-.04a.24.24 0 0 0-.19.17c0 .01 0 .02-.02.01h-.03l.1-.21a.14.14 0 0 1 .08-.08.9.9 0 0 0 .54-.48.1.1 0 0 1 .04-.05h.03c.03 0 .04.02.03.05l-.01.06a.46.46 0 0 0-.02.2c.04.25.08.5.1.75 0 .04 0 .06-.04.08a.17.17 0 0 1-.1.01c-.04 0-.05-.02-.02-.05.06-.04.07-.1.04-.17-.07-.17-.08-.39-.03-.66 0-.04-.01-.05-.05-.02a.17.17 0 0 0-.05.06 4.85 4.85 0 0 1 0 .34c0 .03 0 .07-.04.1a.34.34 0 0 0-.1.15c-.02.03 0 .06.03.07l.03.01c.03.01.03.03.02.06l-.27.4a.16.16 0 0 0-.03.1c.01.18-.06.32-.21.41-.04.03-.04.05 0 .06l.06.02a.1.1 0 0 0 .11-.02c.14-.13.21-.29.2-.46 0-.12.06-.2.17-.24.27-.1.57-.14.89-.11.17.01.19.07.05.17l-.33.2c-.03.01-.04 0-.04-.03v-.03c0-.02 0-.02-.02-.01-.23.1-.4.25-.5.44a.2.2 0 0 0-.03.1c0 .13-.03.28-.09.46a.38.38 0 0 0 .1.4Z" fill="#949394"/><path d="M10.6 3.86c.02.12-.02.25-.13.37l-.07-.45c0-.04.01-.05.05-.04.05.02.07.07.06.15l.01.04.03.02c.02 0 .03 0 .04-.02l.01-.07Z" fill="#ACACB0"/><path d="M10.78 4.29a.16.16 0 0 1-.05-.12c0-.05.02-.1.06-.13.04-.04.07-.03.1.02l.1.26c.02.04.02.08 0 .12l-.16.36c-.02.04-.05.05-.1.04h-.02c-.03-.01-.04-.03-.03-.06l.13-.37a.11.11 0 0 0-.03-.12Z" fill="#fff"/><path d="M7.83 8.27c0 .03-.03.06-.08.08-.39-.3-.68-.67-.88-1.12a.8.8 0 0 1-.05-.35c0-.04-.03-.06-.07-.06h-.02v-.06c.04-.08.07-.2.12-.37.07-.26.14-.45.21-.58.16-.28.39-.52.69-.72a.16.16 0 0 1 .12-.03c.12.03.24.03.36.03h.14c.05 0 .1 0 .12-.04a.12.12 0 0 1 .12-.03c.04.01.08 0 .1-.02.07-.07.05-.1-.05-.1l-.86.02c-.17 0-.3-.16-.4-.49v-.02c-.01-.02 0-.04.02-.04h.03c.02 0 .04 0 .04.02.04.17.12.3.23.41a.1.1 0 0 0 .08.03c.05 0 .07-.03.05-.07a.17.17 0 0 0-.08-.08c-.03-.01-.04-.03-.04-.06l.02-.05c.03-.03.05-.03.07 0a.1.1 0 0 0 .07.07c.03 0 .04 0 .05-.03v-.04c0-.02 0-.04-.03-.05-.06 0-.08-.03-.09-.05 0-.04.02-.05.06-.04l.68.16c.03 0 .05 0 .07-.03l.02-.03c.52-.61.53-.6.04.02l-.1.12c0 .02-.03.03-.05.03l-.43-.1c-.04-.01-.05 0-.05.04s-.01.05-.05.05-.06.02-.07.05v.03H8l.18-.03a.3.3 0 0 1 .14.01c.21.07.4.02.57-.15.01-.02.02-.04 0-.06a.42.42 0 0 0-.2-.15.07.07 0 0 1-.03-.03c-.02-.04 0-.07.07-.07.03 0 .05 0 .06.02l.1.09c.14.14.26.23.35.27.06.03.1.08.14.15a3.52 3.52 0 0 1 .24.29c.07.1.06.1-.03.03a.81.81 0 0 1-.25-.27c-.04-.07-.14-.15-.3-.23L9 4.63h-.05l-.02.01.01.04.33.25c.04.03.03.05-.01.08-.05.02-.07.01-.09-.02a.08.08 0 0 0-.07-.05.23.23 0 0 0-.19.07c-.03.02-.02.05.01.07l.05.03c.02.01.04 0 .06-.02a.12.12 0 0 1 .1-.06c.06 0 .07.01.02.05l-.13.13a.1.1 0 0 1-.1.02.2.2 0 0 1-.1-.08c-.03-.05-.06-.05-.09 0a.16.16 0 0 0-.01.11c.01.06 0 .07-.06.05a.11.11 0 0 1-.07-.1c0-.08-.04-.1-.11-.09-.17.04-.33.05-.5.03-.1-.02-.17.02-.2.12a.33.33 0 0 1-.1.14.53.53 0 0 0-.07.08c-.21.34-.33.68-.36 1.03-.02.26.03.5.16.7.14.23.3.45.47.65.07.08.06.15-.01.23a.15.15 0 0 0-.05.09.2.2 0 0 0 .01.08Z" fill="#8F7E74"/><path d="M11.73 4.6c0 .03-.02.05-.06.06-.06 0-.08-.02-.06-.08.07-.13.17-.2.32-.2.05 0 .05.02.02.06a.19.19 0 0 1-.12.05c-.07.01-.1.04-.1.1Z" fill="#C7C2BF"/><path d="M11.84 6c-.02-.09-.06-.13-.12-.1a1.54 1.54 0 0 1 1.19-1.4c.03-.01.05 0 .07.03l.01.04c.02.05 0 .08-.05.1-.61.29-.98.73-1.1 1.34Z" fill="#ACACB0"/><path d="M9.62 5.38c-.08-.05-.17-.1-.27-.14-.06-.03-.1-.01-.15.03l-.16.18a.1.1 0 0 0-.02.11l.02.04c.04.05.03.06-.02.03a.98.98 0 0 1-.24-.2c-.04-.04-.03-.06.03-.06.2 0 .36-.1.47-.28.02-.04.04-.03.06 0 .06.11.14.16.25.14l.1.01c.06.03.09.07.09.12 0 .05-.03.07-.09.08-.04 0-.07-.02-.07-.06Z" fill="#8F7E74"/><path d="M7.17 7.12c0-.01 0-.03.02-.05.01-.03.03-.03.06 0l.02.04c0 .03-.02.06-.06.07a.05.05 0 0 0-.04.04.14.14 0 0 0 .01.1c.08.17.2.36.33.57.03.05.08.08.14.1a.1.1 0 0 1 .06.06v.09c0 .04-.03.05-.07.02-.2-.16-.36-.36-.5-.6a1.45 1.45 0 0 1-.21-.82c.04-.6.28-1.1.74-1.53h.03l.02.02c.02.02.02.05 0 .07-.37.38-.58.85-.62 1.4l.01.15c.01.1.01.17-.01.22-.02.03-.01.06.01.08.04.03.06.03.06-.03Z" fill="#fff"/><path d="m9.58 5.53-.1.05c-.05.02-.08 0-.08-.05l.02-.05a.06.06 0 0 1 .04-.02h.1c.08.01.08.04.02.07Z" fill="#949394"/><path d="M7.62 6.14c-.04-.01-.07 0-.09.03-.03.04-.03.08 0 .11l.03.09-.05.67c0 .02-.01.03-.03.03h-.03c-.02 0-.02-.01-.02-.03V6.3a.2.2 0 0 1 .04-.13c.04-.04.06-.1.07-.15 0-.04.03-.06.06-.08.14-.09.27-.22.38-.39.04-.06.07-.05.08.01.01.05 0 .1-.04.13L8 5.69a.78.78 0 0 0-.24.37c-.02.08-.07.1-.14.08Z" fill="#C5AA99"/><path d="M9.68 5.72a.2.2 0 0 1-.14.04c-.07 0-.07-.03-.01-.06.12-.07.22-.1.32-.12.05 0 .06 0 .01.04a.72.72 0 0 1-.09.05.71.71 0 0 0-.09.05Z" fill="#8F7E74"/><path d="M11.06 5.64c-.02 0-.03-.02-.03-.03 0-.04.02-.05.05-.03l.32.12c.02.01.02.02.01.04v.03c-.02.03-.05.04-.08.03a.99.99 0 0 1-.13-.08.6.6 0 0 0-.14-.08Z" fill="#ACACB0"/><path d="m9.3 5.69.02.03c.01.03 0 .04-.03.04a.2.2 0 0 1-.11-.04c-.04-.03-.04-.06 0-.09l.02-.02c.02-.02.03-.02.05 0l.02.04c0 .02 0 .03.02.04ZM10.23 5.86c.02.01.04.05.05.11.02.03.04.05.06.05.12 0 .22.04.3.12.05.04.1.06.13.07.02.05.05.08.09.1.02 0 .05 0 .07-.02.04-.05.07-.1.08-.16.01-.04.04-.06.08-.05.05 0 .1.01.14.03.06.02.06.04 0 .06a.22.22 0 0 0-.15.19c0 .05-.04.08-.09.1a.13.13 0 0 1-.13-.03c-.19-.15-.33-.23-.45-.23-.16 0-.24-.09-.25-.27 0-.02.01-.04.04-.06l.03-.01Z" fill="#8F7E74"/><path d="M10.64 6.14a.41.41 0 0 0-.3-.12c-.02 0-.04-.02-.06-.05v-.04c0-.04.01-.06.06-.06.06 0 .1.03.14.07a.1.1 0 0 0 .08.04c.02 0 .03 0 .04-.02.05-.04.08-.04.1.03.02.1 0 .16-.06.15Z" fill="#fff"/><path d="M8.26 6.19a.1.1 0 0 0-.1.04.04.04 0 0 0 0 .04c0 .01 0 .03-.02.04l-.03.01c-.09-.02-.1-.07-.06-.16.03-.06.08-.08.15-.06.26.08.52.09.8.04.06 0 .06-.02 0-.04a.9.9 0 0 0-.34-.03h-.01v-.04l.01-.02c.2-.03.37-.03.54 0 .12 0 .23 0 .34-.02.16-.03.31-.02.48.01l.02.02v.03l-.04.02a.4.4 0 0 0-.21.04.54.54 0 0 1-.18.06c-.35.05-.69.1-1.03.12-.13 0-.21-.01-.25-.06a.1.1 0 0 0-.07-.04Z" fill="#C5AA99"/><path d="M10.73 6.58v-.03l.02-.01.07-.01.16.1c.04 0 .08 0 .1-.04a.75.75 0 0 0 .06-.1.55.55 0 0 1 .1-.15l.21-.17c.02-.02.04-.01.05 0l.02.03c.02.02.02.05 0 .07-.17.14-.29.3-.37.46-.02.05-.06.06-.1.03l-.32-.18Z" fill="#5E5C5A"/><path d="M10.82 6.53h-.07l-.02.02v.03a.6.6 0 0 0-.18-.07c-.04 0-.07.01-.08.05v.04a.55.55 0 0 1-.06.16c-.25.38-.44.8-.58 1.23a.1.1 0 0 0 .02.1c.27.33.38.75.32 1.28-.04.41-.31.8-.82 1.14h-.03l-.02-.03c-.02-.02-.01-.04 0-.06.2-.14.36-.31.5-.5.15-.19.23-.39.24-.6.05-.55-.04-.92-.26-1.12a.15.15 0 0 1-.05-.07L9.69 8c.06 0 .09-.04.08-.12 0-.04 0-.08.03-.1a.5.5 0 0 0 .14-.27c.01-.11.06-.2.13-.29a.24.24 0 0 0 .06-.1l.1-.35c.03-.08 0-.13-.07-.15a.42.42 0 0 0-.18-.02c0-.08.02-.16.08-.24.03-.04.02-.07-.03-.08l-.1-.02c-.06-.01-.06-.03 0-.06a.13.13 0 0 1 .07 0c.3.04.57.15.82.33Z" fill="#8F7E74"/><path d="m9.38 8.94-.04-.13c0-.03 0-.05.04-.07.06-.01.09-.06.1-.12.14.17.17.4.07.69-.01.04 0 .07.05.07h.04c.05.01.07 0 .08-.06.03-.19.03-.37.02-.54a.07.07 0 0 0-.05-.06.12.12 0 0 1-.06-.07.6.6 0 0 0-.24-.31.9.9 0 0 1-.2-.21.87.87 0 0 0-.2-.2c-.44-.3-.8-.67-1.1-1.13-.09-.15-.16-.31-.22-.48 0-.02 0-.03.02-.03l.04-.02c.1.15.18.29.24.43a.7.7 0 0 0 .24.3l.65.45c.05.03.08.07.1.12.02.03.04.06.08.07.08.04.18.11.3.23.13.12.23.2.32.23.04.01.05.04.04.07v.04a.06.06 0 0 0 0 .06c.15.24.23.44.23.61 0 .18 0 .36.03.55 0 .03 0 .06-.02.09l-.25.45a.07.07 0 0 1-.05.03c-.05.01-.07 0-.06-.03 0-.05 0-.05-.04-.01l-.13.12a.16.16 0 0 0-.05.09.38.38 0 0 1-.11.2.14.14 0 0 1-.1.03c-.17 0-.29.07-.35.2a.14.14 0 0 1-.13.08c-.07 0-.1-.01-.1-.06 0-.03.02-.06.05-.08.44-.34.72-.71.84-1.1a.53.53 0 0 0 .02-.2c-.01-.1 0-.2.05-.3.02-.04 0-.07-.03-.1-.1-.1-.14-.07-.12.1Z" fill="#C5AA99"/><path d="M7.34 10.16v.04l-.01.02-.02.01a2.61 2.61 0 0 1-.97-.74 1.88 1.88 0 0 1-.28-1.58c0-.04.02-.07.05-.1.13-.1.19-.22.18-.33-.04-.38.07-.74.33-1.07a.08.08 0 0 1 .08-.03l.05.01c.05 0 .05.03.02.06-.3.3-.42.66-.38 1.09.02.16-.03.28-.16.36a.15.15 0 0 0-.06.08l-.03.1c-.07.2-.1.36-.07.47.1.64.36 1.07.77 1.3l.5.31Z" fill="#8F7E74"/><path d="M9.82 6.52c-.43.02-.85.07-1.28.15a.2.2 0 0 1-.17-.03l-.03-.03c-.05-.04-.05-.07.01-.09.22-.08.61-.1 1.17-.08h.28c.02 0 .03.02.03.03v.03l-.01.02Z" fill="#C7C2BF"/><path d="M11.44 6.73c-.01-.1.02-.17.09-.22.07-.05.15-.04.24 0 .12.07.1.12-.02.14-.16.04-.26.14-.28.32-.01.03-.03.05-.07.05-.04 0-.1 0-.17-.03a.83.83 0 0 0-.1-.02.04.04 0 0 1-.03-.03c-.03-.05-.01-.07.04-.04.1.04.2.01.27-.1a.1.1 0 0 0 .03-.07Z" fill="#ACACB0"/><path d="m9.7 8-.32-.27.04-.05.03-.01.02-.02.51-1.05c.07-.01.13 0 .18.02.08.02.1.07.08.15l-.11.36a.24.24 0 0 1-.05.1.56.56 0 0 0-.14.28.5.5 0 0 1-.14.26.13.13 0 0 0-.03.1c.01.09-.02.13-.08.13Z" fill="#5E5C5A"/><path d="M10.04 8.13c-.06-.01-.09-.05-.08-.11 0-.04.01-.08.04-.1.12-.19.2-.39.24-.6 0-.03.02-.06.05-.08a.62.62 0 0 0 .25-.49c0-.06.04-.09.1-.06l.15.06c.06.02.07.06.03.1-.14.2-.24.4-.3.62l-.15.3c-.09.16-.14.29-.16.38 0 .05-.04.07-.1.06-.02 0-.03-.02-.03-.04 0-.03 0-.04-.04-.04Z" fill="#C7C2BF"/><path d="m9.42 7.68-.04.05a.89.89 0 0 1-.42-.3.6.6 0 0 0-.23-.16.59.59 0 0 1-.18-.11c-.1-.1-.23-.2-.38-.28a.1.1 0 0 1-.05-.07c-.01-.05 0-.06.04-.03l1.26.9ZM6.4 8.21h.07c.11.14.23.28.35.4.07.08.18.17.34.27l.28.21c.05.05.07.04.07-.02a.43.43 0 0 0-.13-.26c-.02-.02-.03-.02-.04 0 0 .03-.01.03-.03.02a1.56 1.56 0 0 1-.58-.5v-.01l.02-.02.05.01c.04.06.1.11.15.15.05.03.06.02.03-.02a.73.73 0 0 0-.26-.25.12.12 0 0 1-.06-.07 2.08 2.08 0 0 1-.04-1.18c0-.03.02-.05.05-.07.04-.03.06-.02.05.02-.02.3-.02.6 0 .92 0 .08.03.16.08.23.2.34.47.6.77.77.05.02.07.06.07.1v.3c0 .06-.04.08-.1.05A2.4 2.4 0 0 1 6.42 8.2Z" fill="#C5AA99"/><path d="M7.36 7.3a1.43 1.43 0 0 0 .43.6l-.02.03c-.03.02-.05.02-.08 0a1.87 1.87 0 0 1-.41-.62l.01-.03h.03l.04.01Z" fill="#fff"/><path d="M6.47 8.21H6.4c-.06.41-.02.75.14 1.02.09.14.27.29.54.43l.46.27c.02.09.01.13-.02.13a.37.37 0 0 0-.24-.2 24.31 24.31 0 0 0-.46-.22c-.24-.11-.4-.35-.5-.7-.07-.3-.08-.6-.02-.88 0-.04.02-.06.05-.09l.03-.03c.04-.03.07-.03.09.02.02.08.02.16-.01.25Z" fill="#8F7E74"/><path d="M7.76 8.35c.04-.02.07-.05.07-.08.07.03.11.08.14.16.02.05.04.05.07 0 .03-.07.03-.14-.02-.2-.07-.1-.05-.13.07-.1.06.01.1.06.11.12 0 .03 0 .06-.02.09a.86.86 0 0 0-.1.2c-.06.16-.1.17-.17 0a.54.54 0 0 0-.15-.2Z" fill="#C7C2BF"/><path d="M9.48 8.62c-.01.06-.04.1-.1.12-.03.02-.04.04-.04.07l.04.13-.24.05c-.04 0-.07 0-.1-.03a.1.1 0 0 0-.12-.02c-.07.03-.09.01-.04-.06.07-.11.14-.23.19-.37.02-.05.06-.08.12-.07.2.02.3.08.3.18Z" fill="#8F7E74"/><path d="M6.58 8.95a.96.96 0 0 0-.05-.2c-.07-.17-.04-.18.07-.05.05.06.07.15.07.28 0 .04-.02.05-.05.02a.08.08 0 0 1-.04-.05Z" fill="#C5AA99"/><path d="m10.06 10.12.16-.31c.06-.12.08-.3.08-.54v-.2c0-.04-.01-.07-.03-.11a.23.23 0 0 1 0-.15c.01-.04.03-.04.05 0 .18.27.19.64.03 1.11-.07.21-.22.42-.43.63-.3.29-.55.48-.75.57-.47.2-.77.46-.9.78-.01.04-.04.05-.07.03h-.03c-.02-.01-.02-.02-.02-.03a4.3 4.3 0 0 0 .23-.5.8.8 0 0 1 .4-.39c.22-.1.56-.31 1.03-.63a.8.8 0 0 0 .25-.26Z" fill="#C7C2BF"/><path d="m8.53 10.87-.08.01c-.04 0-.06.02-.07.06-.01.05 0 .09.03.12l-.05.08-.06-.01c-.05-.01-.09 0-.12.04a1 1 0 0 0-.17.27 9.33 9.33 0 0 1-.4.76.26.26 0 0 0-.08.1c-.03.06-.04.05-.03 0v-.04c0-.03 0-.06.02-.08l.17-.36a.1.1 0 0 0-.01-.1.38.38 0 0 1-.06-.2l.17-.29c.04-.08.02-.1-.07-.06-.44.2-.75.53-.92 1h-.06a.13.13 0 0 1-.02-.09c.12-.4.43-.72.94-.98a.24.24 0 0 1 .1-.03c.06 0 .1-.03.13-.1l.64-1.33c.02-.03.05-.05.09-.05a.3.3 0 0 1 .2.09c.07.07.13.06.18-.03a4.83 4.83 0 0 0 .25-.49 7.6 7.6 0 0 1-.69 1.33.71.71 0 0 0-.1.16c-.03.05-.04.09-.02.12a.3.3 0 0 0 .1.1Z" fill="#8F7E74"/><path d="m8.55 10.98-.02-.1a.94.94 0 0 0 .44-.25c.02-.02.03-.02.05 0l.02.02c.02.03.02.05 0 .07-.15.12-.31.2-.5.26Z" fill="#8F7E74"/><path d="m8.53 10.87.02.1c-.02.05-.06.08-.14.09-.03-.03-.04-.07-.03-.12 0-.04.03-.06.07-.06h.08Z" fill="#010101"/><path d="m8.36 11.14-.93 1.98c-.01.03 0 .06.02.09.33.32.64.5.93.52.26.02.56-.01.92-.11.06-.02.09 0 .06.07a.3.3 0 0 1-.08.12c-.02.02-.02.03 0 .04l.05-.01a26.16 26.16 0 0 1 .61-.24c.03-.02.05 0 .06.02 0 .03-.01.06-.05.07-.29.08-.48.22-.59.42-.01.1-.08.11-.2.07a.12.12 0 0 0-.1 0c-.2.1-.27.05-.21-.13 0-.02.03-.02.06-.02.04 0 .06-.02.04-.05-.02-.05-.07-.07-.15-.06.02-.04.02-.06 0-.06a.2.2 0 0 0-.22.02.1.1 0 0 1-.09.02l-.37-.1c-.05-.01-.07 0-.08.05l-.01.21a.87.87 0 0 0-.32-.11c-.06-.01-.07 0-.02.04.1.07.21.12.33.14.01 0 .02 0 .02-.02v-.04h.03c.06.06.1.15.09.24-.38-.1-.69-.25-.92-.46-.06-.06-.11-.05-.15.02l-.32.68c-.04.02-.06 0-.07-.04a.18.18 0 0 0 0-.11c0-.04-.03-.05-.07-.05a.35.35 0 0 1-.3-.11c-.02-.03-.02-.06 0-.09.18-.29.32-.6.43-.95.01-.03.04-.05.07-.04h.03c.02 0 .03 0 .03-.02.19-.36.3-.7.34-1.04.01-.06.03-.06.06-.02l.03.01.01-.01c.02-.22.12-.4.3-.55 0 .06.01.13.05.2a.1.1 0 0 1 0 .09c-.04.12-.1.24-.16.36a.14.14 0 0 0-.01.08v.03c-.02.06 0 .07.02.01a.26.26 0 0 1 .09-.1 9.33 9.33 0 0 0 .4-.76 1 1 0 0 1 .17-.27.12.12 0 0 1 .1-.04h.07Z" fill="#949394"/><path d="m9.71 11.42-.39.03a.8.8 0 0 0-.3.08.18.18 0 0 0-.07.07c-.05.09-.14.14-.26.15.02-.03-.03-.05-.17-.07.29-.32.68-.4 1.2-.26Z" fill="#8F7E74"/><path d="M9.71 11.42c.1.02.18.05.26.1.06.05.06.07-.01.08-.05 0-.1.02-.13.06a.15.15 0 0 1-.1.04h-.5a.19.19 0 0 0-.12.03.23.23 0 0 1-.14.04c-.05 0-.05-.02-.02-.05.13-.12.37-.17.71-.15h.05c.02 0 .03 0 .04-.03v-.03l-.01-.01-.41-.05.38-.03Z" fill="#C5AA99"/><path d="M10.74 12.34c-.04.19-.04.37 0 .53l-.02.12c0 .07-.02.12-.03.15-.22.47-.57.8-1.04 1.01-.45.2-.95.25-1.49.16a.33.33 0 0 0-.09-.25l.63.06c.08.01.1-.02.07-.08l-.04-.1c-.1-.25-.09-.26.05-.02v.02c0 .03.03.06.07.1-.06.19.01.23.21.14a.12.12 0 0 1 .1 0c.12.04.2.02.2-.07.28-.05.5-.16.7-.34l.09-.08c.22-.2.36-.36.4-.48.05-.1.08-.19.08-.25 0-.13 0-.39-.04-.77l-.53-.57c-.03-.02-.02-.03.02-.02a.1.1 0 0 1 .05.02c.1.12.22.21.34.3.09.05.18.2.27.42Z" fill="#7B5050"/><path d="M8.52 11.68c.14.02.2.04.17.07l-.12.19c-.02.24.02.47.11.7l.06.05v.04c0 .02 0 .03-.03.03-.15-.03-.23-.18-.24-.45v-.08a.1.1 0 0 0-.09-.1.08.08 0 0 1-.06-.06v-.04l.2-.35Z" fill="#010101"/><path d="M10.59 12.2c.03.37.05.63.04.76 0 .06-.03.15-.08.25-.04.12-.18.27-.4.48l-.1.08a1.3 1.3 0 0 1-.69.34c.1-.2.3-.34.59-.42.04-.01.05-.04.04-.07 0-.03-.02-.04-.05-.02H9.9v-.04c0-.02 0-.03-.02-.04a.23.23 0 0 0-.05-.02l.4-.36v-.06a.06.06 0 0 1-.02-.04c.04 0 .06 0 .1-.02a.11.11 0 0 0 .05-.07c.06-.21.06-.44 0-.67 0-.02-.01-.03-.03-.03h-.03l-.02.02c0 .04 0 .07-.02.1-.03.05-.05.05-.05-.01 0-.26-.1-.46-.3-.6-.02 0-.02-.02-.01-.05.02-.03.06-.03.13 0a.1.1 0 0 1 .05.05c.06.12.14.2.25.24.04.02.06.04.07.07.05.1.11.13.2.12Z" fill="#C5AA99"/><path d="M9.85 11.88c.07 0 .1.05.09.12-.01.07-.05.09-.11.06-.24-.08-.43-.06-.58.05a.58.58 0 0 0-.09.09c-.03.03-.06.04-.1.02-.06-.02-.1 0-.1.05-.02.03-.04.04-.07.04h-.05c-.03 0-.04-.02-.04-.05.06-.26.23-.4.53-.46l.12.01c.07.03.14.03.2 0h.03c.07-.02.11-.01.12.03 0 .02.03.03.05.04Z" fill="#C7C2BF"/><path d="M9.42 12.45c-.14.17-.32.26-.52.24a.54.54 0 0 0-.16-.12c-.02 0-.04.02-.06.08-.1-.24-.13-.47-.1-.71.03.04.1.03.2-.04h.04v.04c-.16.16-.17.32-.02.49.11.11.31.12.62.02Z" fill="#8F7E74"/><path d="m8.31 12.03.01.04c0 .04.03.06.06.07a.1.1 0 0 1 .08.09v.08c.03.27.1.42.25.45.02 0 .04 0 .04-.03v-.04c.1.05.16.05.15 0 .2.02.38-.07.52-.24-.05.1-.02.14.08.12a.1.1 0 0 1 .1.02l.06.04a.82.82 0 0 1-.84.33.16.16 0 0 1-.1-.05c-.09-.1-.15-.12-.18-.06-.27-.24-.35-.52-.23-.82Z" fill="#C5AA99"/><path d="M6.72 12.08c0 .03 0 .06.02.08 0 .01.03.02.06.01l-.06.66c0 .04 0 .07.02.1a.9.9 0 0 1 .05.1c.02.05 0 .06-.05.02a2.88 2.88 0 0 1-.1-.08.1.1 0 0 1-.05-.07 1.9 1.9 0 0 1 .11-.82Z" fill="#ACACB0"/><path d="m7.76 12.75.13-.27c.06-.15.12-.26.17-.33.06-.08.09-.08.08.03 0 .33-.1.65-.29.95a.07.07 0 0 0 0 .07l.02.03c.01.03.01.05 0 .07-.03.02-.05.02-.07.01a.65.65 0 0 1-.21-.13c-.04-.03-.04-.07-.02-.1l.19-.33ZM10.74 12.34c.26.26.34.58.23.96l-.1.35a1.1 1.1 0 0 1-.24.4l-.17.23c-.02.04-.05.05-.09.04l-.07.01a2.85 2.85 0 0 1-2.23.18c-.01-.02-.02-.04 0-.05l.04-.02c.48.01.83 0 1.06-.03.17-.02.35-.08.55-.16a.7.7 0 0 0 .24-.17.42.42 0 0 1 .21-.14c.03 0 .06-.02.08-.04.33-.32.51-.61.57-.88v-.08c-.03-.06-.06-.09-.1-.07a1.37 1.37 0 0 1 .02-.53Z" fill="#C7C2BF"/><path d="M8.9 12.7c0 .05-.05.04-.16-.01l-.06-.04c.02-.06.04-.09.06-.08.06.03.12.07.16.12Z" fill="#fff"/><path d="m9.24 13.05-.33.01c-.12 0-.25-.08-.37-.21.03-.06.1-.03.19.06.02.03.05.04.1.05.34.06.62-.05.83-.33a.32.32 0 0 1 .07-.05c.05-.02.05 0 .02.05-.13.2-.3.34-.51.42Z" fill="#5E5C5A"/><path d="M8.91 13.06h.33c-.1 0-.13.03-.08.1h.05c.21-.04.36-.13.43-.26.06-.1.15-.14.26-.14.13 0 .16.06.1.16-.12.19-.28.33-.5.43-.34.16-.54.07-.59-.29Z" fill="#C7C2BF"/><path d="M10.2 13.04c0 .02 0 .03.02.04v.06l-.4.36c-.1.06-.2.09-.3.08-.07 0-.08-.01-.02-.04.33-.15.53-.33.6-.54.01-.02.03-.03.05-.02.02 0 .03.03.05.06Z" fill="#7B5050"/><path d="M7.36 13.33c.17.06.31.16.43.3v.02l-.03.02c-.02.02-.03.02-.05 0a1.17 1.17 0 0 0-.4-.3v-.02c.02-.02.03-.03.05-.02Z" fill="#C7C2BF"/><path d="M7.29 13.67a.24.24 0 0 1-.08-.1c-.02-.04 0-.05.03-.01.1.08.19.17.28.27.03.04.03.05-.03.04a.24.24 0 0 1-.15-.13.19.19 0 0 0-.05-.07Z" fill="#fff"/><path d="m8.8 13.92-.01.02-.01-.02c-.14-.24-.15-.23-.05.02l.04.1c.03.06 0 .09-.07.08l-.63-.06-.02.01h-.02l.01-.22c0-.05.03-.06.08-.05l.37.1a.1.1 0 0 0 .1-.02.2.2 0 0 1 .22-.02v.06Z" fill="#010101"/><path d="M6.89 13.85c.03.04.04.08.03.12l-.05.06c-.04.03-.06.02-.06-.03s0-.1.02-.15c.02-.03.03-.03.06 0Z" fill="#C7C2BF"/><path d="M8.8 13.92c.08 0 .13.01.15.06.02.03 0 .05-.04.05-.03 0-.05 0-.06.02-.04-.05-.06-.08-.06-.1.01-.02.02-.02.01-.03Z" fill="#fff"/><path d="M6.7 14.51c.01.05.04.06.07.04a.25.25 0 0 0-.01.16l.02.01h.04c.03 0 .04 0 .03-.03a.11.11 0 0 1 .02-.12 539.9 539.9 0 0 1 .32-.62c.02-.05.04-.05.05 0 .03.07.08.13.16.17.02.01.02.03 0 .05a.9.9 0 0 0-.16.38.97.97 0 0 1-.11.31.3.3 0 0 1-.27.14.3.3 0 0 1-.27-.14.9.9 0 0 0-.46-.35c-.03-.01-.05-.04-.06-.08 0-.02.02-.03.05-.03a.52.52 0 0 1 .39.17c.03.02.06.02.1.01a.28.28 0 0 0 .1-.07Z" fill="#C7C2BF"/><path d="m8.03 14.06.02.01v.04c0 .01-.01.02-.03.02a.73.73 0 0 1-.33-.14c-.05-.04-.04-.05.02-.04.1.01.21.05.32.11Z" fill="#fff"/></svg>