<!-- by TradingView --><svg width="18" height="18" viewBox="0 0 18 18" xmlns="http://www.w3.org/2000/svg"><path fill="#F0F3FA" d="M0 0h18v18H0z"/><path d="M13.38 9.56c.38-.49-.21-.92-.83-.75-.54.16-1.04.29-1.1.29-.06 0-.07-.34-.08-2.43-.01-2.42-.01-2.44-.1-2.68-.28-.77-.72-1.09-1.34-.96-.52.1-1 .53-1.44 1.27-.3.5-1.65 3.49-2.07 4.57l-.3.77-.65-.03c-.36-.01-.81-.05-1-.07-.4-.05-.47-.03-.47.18 0 .3.26.46 1.19.73l.54.16-.19.58c-.42 1.22-.98 3.31-.98 3.65 0 .07.02.12.06.13.33.1 1.14-.21 1.34-.5.05-.09.25-.62.43-1.19l.58-1.72.25-.69h1.02c.56.01 1.15 0 1.3-.02l.3-.04v.63c0 1.74.17 2.46.72 3.02.3.3.82.54 1.18.54.1 0 .1-.05-.04-.4a8.47 8.47 0 0 1-.33-3.22l.02-.86.3-.08a13.61 13.61 0 0 0 1.17-.4c.22-.14.39-.3.52-.48Zm-3.66-.14-.74.1c-1.1.11-1.25.12-1.25.06 0-.1.59-1.5 1.03-2.48.43-.94.99-2.05 1.1-2.2.17-.2.17-.09.06 2.69l-.06 1.8-.14.03Z" fill="#C10E2D"/></svg>