<!-- by TradingView --><svg width="18" height="18" viewBox="0 0 18 18" xmlns="http://www.w3.org/2000/svg"><path fill="#F0F3FA" d="M0 0h18v18H0z"/><path d="M14 7.5V13H4v-3h.8l1.72-2.73 1.62 2.19 1.7-2 1.73 1.91 1.86-1.87H14Z" fill="url(#a)"/><path d="M14 4H4v6h.8l1.72-2.73 1.62 2.19 1.7-2 1.73 1.91 1.86-1.87H14V4Z" fill="url(#b)"/><path d="M6.09 7.2a.5.5 0 0 1 .8 0l1.3 1.75 1.3-1.74a.5.5 0 0 1 .8 0l1.31 1.75 1.33-1.46H14l-2.01 2.3a.49.49 0 0 1-.79 0L9.9 8.12 8.57 9.8a.5.5 0 0 1-.79 0L6.5 8.12 5.07 10H4l2.09-2.8Z" fill="url(#c)"/><path fill="url(#d)" d="M6 9h1v1H6z"/><defs><linearGradient id="a" x1="14" y1="13" x2="12.07" y2="11.23" gradientUnits="userSpaceOnUse"><stop stop-color="#FFC3AD"/><stop offset=".72" stop-color="#FE513B"/></linearGradient><linearGradient id="b" x1="4" y1="4" x2="7.97" y2="7.79" gradientUnits="userSpaceOnUse"><stop stop-color="#FFF7E5"/><stop offset=".39" stop-color="#FFB52C"/></linearGradient><linearGradient id="c" x1="9" y1="7" x2="9" y2="10" gradientUnits="userSpaceOnUse"><stop stop-color="#978D91"/><stop offset=".17" stop-color="#16171C"/></linearGradient><linearGradient id="d" x1="6" y1="9" x2="7" y2="10" gradientUnits="userSpaceOnUse"><stop offset=".08" stop-color="#90868A"/><stop offset=".5" stop-color="#16171C"/></linearGradient></defs></svg>