<!-- by TradingView --><svg width="18" height="18" viewBox="0 0 18 18" xmlns="http://www.w3.org/2000/svg"><path fill="#F0F3FA" d="M0 0h18v18H0z"/><path d="M9 7c-.47 0-5-.38-5-.38.43-.03 3.75-.3 3.75-1.21 0-.85-.15-2.01.23-2.35.47-.43 1.56 1.61 2.1 2.77C10.31 6.33 9.47 7 9 7ZM4.64 13.72c-.19.35.23.29.46.22.94-.64 1.94-.94 1.94-1.28 0-.43-.9-.33-1.6-.11-.57.17-.5.32-.8 1.17ZM9.38 12.23c0-.17.16-.21.23-.21.63.28 1.92.8 2.1.64.24-.22-1.4-2.78-1.4-3.2 0-.43 3.28-1.7 3.28-2.14 0-.3-2.1 0-2.57-.2-.38-.18-.16-.5 0-.65 1.24-.14 3.78-.25 3.97.43.23.85-3.27 2.13-3.74 2.77-.47.64 2.34 3.84 1.87 4.27-.47.43-3.74-1.5-3.74-1.7Z" fill="#5698D2"/><path d="M7.93 7.31A.5.5 0 0 1 8.4 7h.22c.2 0 .38.12.46.31l1.82 4.41a.2.2 0 0 1-.19.28h-.58a.2.2 0 0 1-.18-.11L9.5 11H7.44l-.39.88a.2.2 0 0 1-.18.12H6.3a.2.2 0 0 1-.19-.28l1.82-4.41ZM9.23 10 8.5 8l-.74 2h1.48Z" fill="#004282"/></svg>