<!-- by TradingView --><svg width="18" height="18" viewBox="0 0 18 18" xmlns="http://www.w3.org/2000/svg"><path fill="#612F86" d="M0 0h18v18H0z"/><path d="M9 14A5 5 0 1 0 9 4a5 5 0 0 0 0 10ZM6.48 9.39l.67-1.6.67 1.6H6.48Zm-.26.61-.32.76a.37.37 0 0 1-.34.24c-.26 0-.34-.24-.2-.53L6.72 7.3a.5.5 0 0 1 .45-.3c.2 0 .38.12.46.3l1.3 3.14c.11.26.1.56-.17.56-.19 0-.3-.1-.36-.24L8.08 10H6.22ZM9 9.64V7.31c0-.18.09-.31.33-.31.25 0 .32.12.32.3v2.37c0 .49.3.71.85.71.54 0 .83-.22.83-.71V7.3c0-.2.11-.31.34-.31.22 0 .33.1.33.3v2.34c0 .75-.5 1.36-1.33 1.36h-.34C9.5 11 9 10.4 9 9.64Z" fill="#F56819"/></svg>