<!-- by TradingView --><svg width="18" height="18" viewBox="0 0 18 18" xmlns="http://www.w3.org/2000/svg"><path fill="#F0F3FA" d="M0 0h18v18H0z"/><path fill-rule="evenodd" d="M3 11h1.07l.29-1H5.6l.29 1H7L5.62 7H4.38L3 11Zm2.32-2-.34-1.14L4.65 9h.67Z"/><path d="M8.5 8h-1v1.88C7.5 10.44 8 11 9 11c.6 0 .88-.38 1-.5.19.19.69.5 1 .5v-1c-.27 0-.5 0-.5-.35V8h-1v1.57c0 .13-.13.53-.58.53-.45 0-.42-.4-.42-.53V8Z"/><path fill-rule="evenodd" d="M13.07 10.14H13a1.14 1.14 0 1 1 .87-.4l-.22-.24H12.5l.57.64Zm.65.72A2 2 0 0 1 11 9a2 2 0 1 1 3.45 1.38L15 11h-1.15l-.13-.14Z"/></svg>