<!-- by TradingView --><svg width="18" height="18" viewBox="0 0 18 18" xmlns="http://www.w3.org/2000/svg"><path fill="#F0F3FA" d="M0 0h18v18H0z"/><path d="M10.2 6H4.77L3 12h5.43l1.77-6Z" fill="#20419A"/><path d="M15 6h-4.8l-1.77 6h4.8L15 6Z" fill="#F58220"/><path d="M13.18 7h-1.01a.65.65 0 0 0-.32.07c-.1.06-.44.23-.83.37-.32.12-.57.23-.7.26-.15.04-.24.09-.28.25l-.15.45c-.04.14-.02.24.17.24.2 0 .56-.12.68-.15.24-.09.52-.21.56-.21.04 0 .02.03.02.09l-.81 2.46c-.02.09.04.17.15.17h1.21c.11 0 .24-.07.28-.17l1.2-3.67c0-.09-.07-.16-.17-.16ZM8.5 11 7.48 7h-.8L4 11h.79L6.9 7.84 7.23 9h-.77l-.43.67H7.4L7.73 11h.77Z" fill="#fff"/></svg>