<!-- by TradingView --><svg width="18" height="18" viewBox="0 0 18 18" xmlns="http://www.w3.org/2000/svg"><path fill="#F0F3FA" d="M0 0h18v18H0z"/><path d="M10 10.49c1.4.1 2.75.48 4.06 1.25a4.3 4.3 0 0 0 .51-4.58 5.22 5.22 0 0 0-1.92-2.12 7.03 7.03 0 0 0-6.14-.58A5.78 5.78 0 0 0 3.8 6.5c-.55.8-.84 1.72-.8 2.66.02.93.35 1.84.96 2.62a9.43 9.43 0 0 1 4.68-1.4c.04 0 .09 0 .12-.03a.26.26 0 0 0 .1-.1l.68-1.34c.09-.16.24-.27.41-.27.79.01 1.54-.06 1.9-.58.32-.44-.05-.98-.46-1.02a6.36 6.36 0 0 0-1.28.02.33.33 0 0 0-.16.06.38.38 0 0 0-.12.14l-1 2.12c-.08.16-.28.34-.45.33H7.01c-1.63.04-2.4-2.25-.88-3.32.39-.27 1.06-.23 1.6-.2l.3.01.06-.01a.15.15 0 0 0 .06-.05.18.18 0 0 0 .02-.14c-.12-.46-.58-.52-1.37-.38-.2.03-.25-.05-.15-.24l.23-.45c.1-.18.24-.28.43-.31.7-.1 1.25.22 1.63.97.16.3.16.5.02.76a9.4 9.4 0 0 1-.47.77c-.03.05-.07.1-.13.1H6.82c-.38 0-.56.3-.55.74a.1.1 0 0 1 0 .02.6.6 0 0 0 .54.66h1.1c.22 0 .37-.08.48-.27l.19-.4c.18-.41.47-1.06.87-1.79.03-.05.07-.1.12-.13A.32.32 0 0 1 9.74 6h1.5c1.13.03 1.94 1.25 1.44 2.43-.42 1-1.25 1.31-2.19 1.27-.1 0-.21.03-.3.08a.62.62 0 0 0-.23.25l-.1.18c-.09.17-.04.27.14.28Zm3.29 2.07.28-.27a6.63 6.63 0 0 0-3.28-1.45 7.3 7.3 0 0 0-5.72 1.38.17.17 0 0 0 0 .14c.01.03.03.04.05.06.97.71 2.03 1.2 3.17 1.44.84.18 1.67.19 2.48 0a8.79 8.79 0 0 0 3.02-1.3Z" fill="#E31A20"/></svg>