<!-- by TradingView --><svg width="18" height="18" viewBox="0 0 18 18" xmlns="http://www.w3.org/2000/svg"><path fill="#F0F3FA" d="M0 0h18v18H0z"/><ellipse cx="9.01" cy="9.09" rx="5.59" ry="5.63" fill="#71CEDF"/><ellipse cx="9.01" cy="9.09" rx="5.16" ry="5.21" fill="#87D3E1"/><ellipse cx="9.01" cy="9.09" rx="4.69" ry="4.72" fill="#A3DBE8"/><ellipse cx="9.01" cy="9.09" rx="3.95" ry="3.98" fill="#B8E2EF"/><ellipse cx="9.01" cy="9.09" rx="2.76" ry="2.78" fill="#D9F0F6"/><ellipse cx="9.01" cy="9.09" rx="1.92" ry="1.93" fill="#FCFEFD"/><path d="M4.1 11.64a5.47 5.47 0 0 1-.91-2.28l.08 1.27 1.01 1.89 1.32 1.15 2.76.21 4.35-4.97c-.84-.59-1.76-.1-2.15.23-.3.27-.7.82-.85 1.06-.33.51-1.05 1.63-1.35 2.01a2.4 2.4 0 0 1-1.89.88c-.85 0-1.6-.38-2.37-1.45Z" fill="url(#a2v4xbvke)"/><path d="M11.52 14.07c1.87-1.1 2.46-3.3 1.72-4.6-.46-.8-1.3-.97-1.93-.6-.63.36-1 .73-1.75 2-.76 1.27-1.08 1.72-1.82 2.15-.75.43-2.56.76-3.84-1.47a5.66 5.66 0 0 1-.5-4.4A5.69 5.69 0 0 0 3.74 12c1.85 3.24 5.44 3.43 7.78 2.07Z" fill="url(#b2v4xbvke)"/><path d="M11.52 14.07c1.87-1.1 2.46-3.3 1.72-4.6-.46-.8-1.3-.98-1.93-.6-.63.36-1 .73-1.75 2-.76 1.26-1.08 1.72-1.82 2.15-.75.43-2.56.76-3.84-1.47a5.66 5.66 0 0 1-.5-4.4A5.69 5.69 0 0 0 3.74 12c1.85 3.24 5.44 3.43 7.78 2.07Z" fill="url(#c2v4xbvke)"/><path d="M8.27 10.97c0 .83-.62 1.3-.93 1.44L5.37 8.1l.44-3.53c.67-.47 2.33-1.42 3.64-1.38 1.3.03 1.97.4 2.14.58a5.4 5.4 0 0 0-1.55-.29c-2.17 0-2.88.89-3.11 1.31-.24.43-.39.8-.39 1.46 0 .65.92 2.32 1.07 2.62.15.31.66 1.07.66 2.11Z" fill="url(#d2v4xbvke)"/><path d="M3.52 8.76c0 2.19 1.61 3.8 3.09 3.8.92 0 1.49-.64 1.49-1.38 0-.73-.14-1.23-.85-2.53-.7-1.3-.94-1.8-.94-2.67 0-.86.64-2.61 3.19-2.61a5.55 5.55 0 0 1 4.02 1.76A5.58 5.58 0 0 0 9.2 3C5.48 3 3.52 6.04 3.52 8.76Z" fill="url(#e2v4xbvke)"/><path d="M3.52 8.76c0 2.19 1.61 3.8 3.09 3.8.92 0 1.49-.64 1.49-1.38 0-.73-.14-1.23-.85-2.53-.7-1.3-.94-1.8-.94-2.67 0-.86.64-2.61 3.19-2.61a5.55 5.55 0 0 1 4.02 1.76A5.58 5.58 0 0 0 9.2 3C5.48 3 3.52 6.04 3.52 8.76Z" fill="url(#f2v4xbvke)"/><path d="M8.84 7.81c-1.3-.22-1.71-1.06-1.76-1.45.7-.1 2.15-.28 2.43-.27.35 0 3.96.85 4.46 1.2.4.28.59 1.48.63 2.04-.07.8-.32 2.58-.8 3.29a4.41 4.41 0 0 1-1.4 1.3c.78-.7 1.7-2.1 1.7-3.23s-.56-2.15-1.58-2.48c-1.02-.33-2.04-.13-3.68-.4Z" fill="url(#g2v4xbvke)"/><path d="M12.08 4.45c-1.87-1.09-4.07-.5-4.8.8-.47.8-.2 1.61.43 1.98.64.37 1.13.5 2.6.54 1.47.03 2.02.08 2.76.5.75.44 1.93 1.87.66 4.1A5.57 5.57 0 0 1 10.2 15a5.6 5.6 0 0 0 4-2.72 5.66 5.66 0 0 0-2.12-7.83Z" fill="url(#h2v4xbvke)"/><path d="M12.08 4.45c-1.87-1.09-4.07-.5-4.8.8-.47.8-.2 1.61.43 1.98.64.37 1.13.5 2.6.54 1.47.03 2.02.08 2.76.5.75.44 1.93 1.87.66 4.1A5.57 5.57 0 0 1 10.2 15a5.6 5.6 0 0 0 4-2.72 5.66 5.66 0 0 0-2.12-7.83Z" fill="url(#i2v4xbvke)"/><defs><linearGradient id="a2v4xbvke" x1="3.3" y1="11.76" x2="11.88" y2="11.76" gradientUnits="userSpaceOnUse"><stop offset=".08" stop-color="#0E080E"/><stop offset=".66" stop-color="#F6FBFD"/></linearGradient><linearGradient id="b2v4xbvke" x1="3.71" y1="12.29" x2="7.99" y2="9.13" gradientUnits="userSpaceOnUse"><stop stop-color="#0E753D"/><stop offset=".86" stop-color="#7EAF3C"/></linearGradient><linearGradient id="c2v4xbvke" x1="12.96" y1="13.15" x2="9.88" y2="10.92" gradientUnits="userSpaceOnUse"><stop stop-color="#167A3D"/><stop offset="1" stop-color="#167A3D" stop-opacity="0"/></linearGradient><linearGradient id="d2v4xbvke" x1="12.13" y1="3.85" x2="8.24" y2="12.2" gradientUnits="userSpaceOnUse"><stop offset=".04" stop-color="#E6E6E6"/><stop offset=".29" stop-color="#050608"/><stop offset=".53" stop-color="#050608"/><stop offset="1" stop-color="#4C4B49"/></linearGradient><linearGradient id="e2v4xbvke" x1="3.52" y1="10.02" x2="7.63" y2="7.67" gradientUnits="userSpaceOnUse"><stop offset=".16" stop-color="#818181"/><stop offset="1" stop-color="#CBC7C6"/></linearGradient><linearGradient id="f2v4xbvke" x1="7.12" y1="3.44" x2="8.54" y2="7.51" gradientUnits="userSpaceOnUse"><stop offset=".09" stop-color="#818181"/><stop offset="1" stop-color="#818181" stop-opacity="0"/></linearGradient><linearGradient id="g2v4xbvke" x1="7.95" y1="7.43" x2="13.61" y2="12.23" gradientUnits="userSpaceOnUse"><stop stop-color="#1F1F1F"/><stop offset=".45" stop-color="#FCFCFC"/><stop offset=".84" stop-color="#5C5B59"/></linearGradient><linearGradient id="h2v4xbvke" x1="11.02" y1="4.59" x2="11.18" y2="9.19" gradientUnits="userSpaceOnUse"><stop stop-color="#211F60"/><stop offset="1" stop-color="#63769E"/></linearGradient><linearGradient id="i2v4xbvke" x1="15.13" y1="8.87" x2="12.41" y2="9.84" gradientUnits="userSpaceOnUse"><stop stop-color="#211F61"/><stop offset="1" stop-color="#211F61" stop-opacity="0"/></linearGradient></defs></svg>