<!-- by TradingView --><svg width="18" height="18" viewBox="0 0 18 18" xmlns="http://www.w3.org/2000/svg"><path fill="#F0F3FA" d="M0 0h18v18H0z"/><path fill-rule="evenodd" d="M11.37 5H9.16v.12h.38c.3 0 .25.28.19.42l-.65.9L8.18 5H6.26v.26c.87 0 1.33.42 1.45.63l.82 1.31-.75 1.03-2-3.23H3.84v.26c.87 0 1.33.42 1.45.63l1.93 3.1-2.33 3.22c-.35.47-.76.62-.92.64H3.5V13h2.28v-.15h-.44c-.29 0-.12-.33 0-.5l2.15-2.93.87 1.4-1 1.39c-.36.47-.77.62-.93.64h-.47V13h2.27v-.15H7.8c-.28 0-.12-.33 0-.5l.82-1.11L9.71 13h1.88v-.14h-.4c-.45 0-.82-.44-.96-.65l-1.06-1.73.75-1.03 2.2 3.55H14v-.14h-.4c-.45 0-.82-.44-.95-.65L10.47 8.7l2.36-3.22c.26-.3.56-.37.68-.36h.31V5h-2.2v.12H12c.3 0 .25.28.18.42l-1.97 2.73-.86-1.39 1.02-1.4c.26-.3.56-.37.68-.36h.32V5ZM9.66 9.03l-.87-1.39-.75 1.03.87 1.4.75-1.04Z"/></svg>