<!-- by TradingView --><svg width="18" height="18" viewBox="0 0 18 18" xmlns="http://www.w3.org/2000/svg"><path fill="#BE212C" d="M0 0h18v18H0z"/><path d="m4.63 10 2.5-5.4c.05-.1.21-.3.46-.3.2 0 .32.2.4.35l.07.1c.05-.04.1-.12.18-.21.18-.23.42-.54.6-.54.2 0 .45.4.64.68l.14.22c.1-.2.38-.6.63-.6s.52.25.63.45l2.65 5.37c.29.28.47.66.47 1.08 0 .83-.7 1.5-1.56 1.5-.87 0-1.56-.67-1.56-1.5 0-.1 0-.2.03-.3h-.06l.03.3c0 1-.84 1.8-1.88 1.8a1.84 1.84 0 0 1-1.85-2.1H7.1c.02.1.04.2.04.3 0 .83-.7 1.5-1.57 1.5-.86 0-1.56-.67-1.56-1.5 0-.5.25-.93.63-1.2Z" fill="#F0F3FA"/><path fill-rule="evenodd" d="M9 12.85c.95 0 1.72-.74 1.72-1.65 0-.91-.77-1.65-1.72-1.65s-1.72.74-1.72 1.65c0 .91.77 1.65 1.72 1.65ZM9 13c1.04 0 1.88-.8 1.88-1.8S10.04 9.4 9 9.4s-1.88.8-1.88 1.8S7.96 13 9 13Zm-2.03-1.8c0 .75-.63 1.35-1.4 1.35-.78 0-1.41-.6-1.41-1.35 0-.75.63-1.35 1.4-1.35.78 0 1.4.6 1.4 1.35Zm.16 0c0 .83-.7 1.5-1.57 1.5-.86 0-1.56-.67-1.56-1.5s.7-1.5 1.56-1.5c.87 0 1.57.67 1.57 1.5Zm-.47 0c0 .58-.5 1.05-1.1 1.05-.6 0-1.1-.47-1.1-1.05 0-.58.5-1.05 1.1-1.05.6 0 1.1.47 1.1 1.05Zm.15 0c0 .66-.56 1.2-1.25 1.2s-1.25-.54-1.25-1.2c0-.66.56-1.2 1.25-1.2.7 0 1.25.54 1.25 1.2Zm5.63 1.35c.77 0 1.4-.6 1.4-1.35 0-.75-.63-1.35-1.4-1.35-.78 0-1.4.6-1.4 1.35 0 .75.62 1.35 1.4 1.35Zm0 .15c.86 0 1.56-.67 1.56-1.5s-.7-1.5-1.56-1.5c-.87 0-1.56.67-1.56 1.5s.7 1.5 1.56 1.5Zm1.1-1.5c0 .58-.5 1.05-1.1 1.05-.6 0-1.1-.47-1.1-1.05 0-.58.5-1.05 1.1-1.05.6 0 1.1.47 1.1 1.05Zm.15 0c0 .66-.56 1.2-1.25 1.2-.7 0-1.25-.54-1.25-1.2 0-.66.56-1.2 1.25-1.2s1.25.54 1.25 1.2Zm-3.28 0c0 .75-.63 1.35-1.41 1.35-.78 0-1.4-.6-1.4-1.35 0-.75.62-1.35 1.4-1.35.78 0 1.4.6 1.4 1.35Zm.15 0c0 .83-.7 1.5-1.56 1.5-.86 0-1.56-.67-1.56-1.5S8.14 9.7 9 9.7c.86 0 1.56.67 1.56 1.5Z"/><path fill-rule="evenodd" d="m4.31 10.6 2.5-6c.05-.15.25-.45.63-.45.37 0 .57.3.62.45.05-.2.28-.6.78-.6s.73.4.79.6c.05-.15.24-.45.62-.45s.57.3.63.45l2.96 6c-.15-.3-.8-.75-1.56-.75-.94 0-1.25.75-1.4 1.35a1.97 1.97 0 0 0-.37-.95l.05.05c-.15-1.4-.65-4.35-.78-4.35-.12 0 .16 2.6.31 3.9h.01c-.27-.18-.63-.3-1.1-.3-1.25 0-1.82 1-1.88 1.65-.05-.5-.59-1.35-1.71-1.35-.26 0-.85.27-1.1.75Zm7.03-.6c.1-.05.41-.18.79-.3l-1.57-4.95c-.05-.2-.19-.57-.31-.45-.13.12-.05.35 0 .45l1.1 5.25Zm-2.66-.47c.27-.03.61-.06.79.02l-.31-4.8c0-.15-.07-.45-.32-.45s-.3.3-.3.45l-.16 4.8.3-.02Zm-3.12.17.78.3 1.1-5.1c.05-.15.12-.45 0-.45-.13 0-.26.3-.32.45L5.56 9.7Zm-.15 0h-.32l1.1-2.85L5.4 9.7Zm-.79.3.79-1.95-.63 1.8-.16.15Zm2.2.45-.32-.3.94-4.2-.63 4.5Zm.3 0 .32-.3.15-3.9-.46 4.2Zm.94-.75-.31.15c.05-1.3.19-4.2.31-4.2.13 0 .05 2.8 0 4.05Zm1.4-4.05.48 4.05-.31-.15-.16-3.9Zm1.73 4.5-.31.3-.79-4.5 1.1 4.2Zm1.56-.45h-.31l-.78-2.55 1.09 2.55Zm.16 0 .3.15-1.24-2.55.94 2.4Z"/></svg>