<!-- by TradingView --><svg width="18" height="18" viewBox="0 0 18 18" xmlns="http://www.w3.org/2000/svg"><path fill="#F0F3FA" d="M0 0h18v18H0z"/><circle cx="9" cy="9" r="6" fill="url(#avcj0ezaq)"/><path fill-rule="evenodd" d="M9 14A5 5 0 1 0 9 4a5 5 0 0 0 0 10Zm4-5h-1.55a2.5 2.5 0 0 0-4.9 0H5a4 4 0 0 1 8 0Zm-.12 1a4 4 0 0 1-7.75 0h7.75Zm-5.3-1h2.83A1.5 1.5 0 0 0 7.6 9Z" fill="#A4DFFF"/><defs><linearGradient id="avcj0ezaq" x1="9" y1="3" x2="9" y2="15" gradientUnits="userSpaceOnUse"><stop stop-color="#FCE800"/><stop offset="1" stop-color="#AD1426"/></linearGradient></defs></svg>