<!-- by TradingView --><svg width="18" height="18" viewBox="0 0 18 18" xmlns="http://www.w3.org/2000/svg"><path fill="#F0F3FA" d="M0 0h18v18H0z"/><path fill-rule="evenodd" d="M14.65 9a5.65 5.65 0 1 1-11.3 0 5.65 5.65 0 0 1 11.3 0ZM15 9A6 6 0 1 1 3 9a6 6 0 0 1 12 0ZM5.67 6H5v6h2.33c.75 0 1.5-.57 1.65-1.46.07.1.15.18.25.24a.63.63 0 0 0-.23.51c0 .27.11.46.26.57.14.1.3.14.4.14.34 0 .63-.22.85-.45.18-.2.33-.43.42-.6h.35l.39 1.05H13l-2.33-6-1.74 3.69c-.14-.45-.43-.65-.6-.69.54 0 .67-.82.67-1.24A1.65 1.65 0 0 0 7.33 6H5.67Zm.33.35v2.47h1c.33 0 1-.2 1-1.06 0-1.05-.67-1.4-1.17-1.4H6Zm0 2.83v2.47h1.17c.27 0 .83-.25.83-1.24s-.67-1.23-1-1.23H6Zm5.14 1.4-.39-1.05H9.37l-.2.4v.13c0 .2.1.33.23.41a.9.9 0 0 0 .43.12v.35c-.09 0-.23.02-.33.09-.1.05-.17.13-.17.26 0 .16.06.24.12.28.07.06.16.08.22.08.2 0 .4-.14.6-.35.19-.2.34-.45.41-.61l.05-.1h.41Zm-.97-2.64-.63 1.24h1.08l-.45-1.24Z" fill="#008F3C"/></svg>