<!-- by TradingView --><svg width="18" height="18" viewBox="0 0 18 18" xmlns="http://www.w3.org/2000/svg"><path fill="#F0F3FA" d="M0 0h18v18H0z"/><path d="m5.1 9.4.46-2.53-.47-.95A5.83 5.83 0 0 1 8.87 4.4c2.25 0 3.21.62 4.12 1.6.73.8.98 2.17 1 2.76.02.37-.05 1.3-.45 2.01-.5.9-1.95 2.62-3.47 2.62a6.54 6.54 0 0 1-2.82-.81c-.8-.64-2.34-2.17-2.16-3.18Z" fill="url(#a1k30nqlz)"/><path d="M8.97 4.41a5 5 0 0 0-3.9 1.66l.8.47c.2-.21 1.01-.68 2.62-.92 1.6-.24 3.4-.13 4.1-.05-.32-.38-1.47-1.16-3.62-1.16Z" fill="url(#b1k30nqlz)"/><path d="M10.14 6.92c-1.61 0-4.04.91-5.06 1.37-.24.16-.74.5-.8.56-.09.06-.16.26-.17.34 0 .08.3.45.6.5.25.03 1.78-.6 2.52-.9 1.82-.06 4.17.19 5.1.32l1.09-1.72c-.43-.15-1.67-.47-3.28-.47Z" fill="url(#c1k30nqlz)"/><path d="M10.89 10.72c-1.6 0-2.62.24-2.94.36-.37.17-1.19.53-1.41.66-.28.15-.82.59-.94.75-.12.16.15.56.55.79.4.22 3.33-1.38 4.5-1.28.95.08.99.93.89 1.34l1.3-1.08c.01-.51-.36-1.54-1.95-1.54Z" fill="url(#d1k30nqlz)"/><path d="M8.6 4.99c-.18.89-.98 2.69-3.32 3.36-.34.1-1.03.41-1.06.9-.03.59 2.08-.41 2.7-.9l.17-.12c.74-.57 2.4-1.84 2.4-3a1.2 1.2 0 0 0-1.24-.93c-.57 0-.8.25-1.03.48-.18.19-.35.36-.69.36C5.8 5.14 7.2 4 8.9 4c1.7 0 2.42 1 2.42 2.03 0 1.26-3.03 5.17-5.94 5.17-.29.02-.94-.17-1.22-1.06-.35-1.11-.05-1.5.46-1.7h.02C5.2 8.2 7.81 7.21 8.6 4.98Zm3.7.35c.13.17.42.65.42 1.21 0 .71-.66 2.58-2.79 4.2-2.12 1.62-4.08 2.4-4.12 1.83-.02-.34.55-.6 1.34-.95.52-.23 1.14-.5 1.73-.88 1.49-.92 3.14-2.5 2.94-5.33 0 .92-.46 3.08-2.29 4.39-.9.64-1.73 1.07-2.39 1.4-1 .52-1.64.85-1.64 1.48 0 1.05 1.9 1.2 2.77.92.88-.28 5.44-2.46 5.44-5.79 0-1.37-.95-2.18-1.42-2.48Zm1.42 3.6c-.69 2.81-3.39 4.2-4.65 4.54.78 0 1.44-.24 3.09-1.5a3.9 3.9 0 0 0 1.56-3.04ZM9.42 14c1.34 0 4.14-.95 4.57-4.69A6.21 6.21 0 0 1 9.42 14Z" fill="url(#e1k30nqlz)"/><path d="M5.7 6.02c-.37 0-.49-.15-.5-.22-.55.7-.59 1.65-.53 2.05 1.9-.27 2.05-1.08 2.05-1.52 0-.44-.16-.53-.33-.53s-.25.22-.7.22Z" fill="url(#f1k30nqlz)"/><defs><linearGradient id="a1k30nqlz" x1="7.79" y1="8.06" x2="13.64" y2="8.44" gradientUnits="userSpaceOnUse"><stop stop-color="#0B1B34"/><stop offset="1" stop-color="#294284"/></linearGradient><linearGradient id="b1k30nqlz" x1="6.61" y1="5.69" x2="11.6" y2="5.92" gradientUnits="userSpaceOnUse"><stop stop-color="#0C203B"/><stop offset="1" stop-color="#1D76A2"/></linearGradient><linearGradient id="c1k30nqlz" x1="4.68" y1="9.08" x2="9.81" y2="9.07" gradientUnits="userSpaceOnUse"><stop stop-color="#0E162D"/><stop offset="1" stop-color="#177EA9"/></linearGradient><linearGradient id="d1k30nqlz" x1="6.4" y1="12.4" x2="11.9" y2="12.8" gradientUnits="userSpaceOnUse"><stop stop-color="#0C2039"/><stop offset="1" stop-color="#1C73A0"/></linearGradient><linearGradient id="e1k30nqlz" x1="13.6" y1="7.43" x2="4.73" y2="9.8" gradientUnits="userSpaceOnUse"><stop offset=".22" stop-color="#FDDA04"/><stop offset=".63" stop-color="#177DA5"/><stop offset=".94" stop-color="#144B6F"/></linearGradient><linearGradient id="f1k30nqlz" x1="4.65" y1="6.82" x2="7.02" y2="6.45" gradientUnits="userSpaceOnUse"><stop stop-color="#104060"/><stop offset=".5" stop-color="#144B6F"/><stop offset="1" stop-color="#FDDA04"/></linearGradient></defs></svg>