<!-- by TradingView --><svg width="18" height="18" viewBox="0 0 18 18" xmlns="http://www.w3.org/2000/svg"><path fill="#F0F3FA" d="M0 0h18v18H0z"/><path d="M11.61 7h.94c.75.06 1.45.42 1.45 1.3v.11c0 .04 0 .07-.02.1l-.02.08-.68 2.5C12.64 13 11.48 13 10.46 13H4c.96-.94 3.41-1.25 4.58-1.25h.2c.85 0 1.04-.15 1.23-.66l.02-.07.02-.08.53-1.76c.15-.55.11-.77-.52-.77H8.69l-.75 2.44c-.8.04-2.92.38-3.94 2.04l.32-1.08.32-1.1c.43-1.47 3.18-2.15 3.89-2.3H5.25l.7-2.65C6.33 4.4 8.25 4 9.18 4h.6l-.84 3h2.67Z" fill="#172B75"/></svg>