<!-- by TradingView --><svg width="18" height="18" viewBox="0 0 18 18" xmlns="http://www.w3.org/2000/svg"><path fill="#EBAE2F" d="M0 0h18v18H0z"/><path fill-rule="evenodd" d="M2 6h2.95c.78 0 1.4.68 1.4 1.53 0 .53-.24 1-.62 1.27.46.28.77.85.77 1.5 0 .94-.65 1.7-1.46 1.7H2V6Zm1.38 1.5h1c.21 0 .39.17.39.38 0 .2-.18.37-.4.37h-.99V7.5Zm0 2.25h1c.21 0 .39.17.39.38 0 .2-.18.37-.4.37h-.99v-.75ZM7 12V8.59C7 7.16 7.9 6 9 6s2 1.16 2 2.59V12H9.77v-2H8.23v2H7Zm1.23-3.5h1.54v-.13c0-.53-.38-.87-.8-.87-.4 0-.74.34-.74.87v.13ZM16 6h-.92c-2.99 0-3.75 1.34-3.75 3s1.36 3 2.8 3H16V8.25h-2V9.6c.29 0 .67.26.67.6v.52c-.59.07-1.67-.18-1.67-1.8 0-1.6 2-1.58 3-1.37V6Z" fill="#3D3883"/></svg>