<!-- by TradingView --><svg width="18" height="18" viewBox="0 0 18 18" xmlns="http://www.w3.org/2000/svg"><path d="M0 9a9 9 0 1 1 18 0A9 9 0 0 1 0 9Z" fill="#F0F3FA"/><path d="M13 6.14h-.17c-.69 0-1.42.38-1.86.65-.43.26-.98.72-.8 1.5.17.77.5 1.96.5 1.96s.77 1.63 3.1 1.32l.06-.74c-.06.06-.46.38-.96.38-1.2 0-1.64-1.16-1.64-1.16s-.35-.94-.56-1.8c-.22-.84.32-1.14.32-1.14l.97-.46s.25-.14.7-.15H13v-.36Z" fill="url(#auscwajc1)"/><path d="m13.74 11.59.1-.77v-.01s.5-.84.5-1.8c0-.87-.43-2.27-1.34-2.51v-.36c.2.03.52.17.7.26.64.76.97 1.6.97 2.6 0 .96-.4 1.94-1 2.68l.07-.1Z" fill="url(#buscwajc1)"/><path d="m6.19 4.83 1.5 1.15s1.06.74.79 2.29l-.47 2.59s-.18 1.12-1.25 1.78l-.88.55-1.04-.72 2.38-1.02.84-3.79-.94-1.24L4.9 5.36l1.29-.53Z" fill="url(#cuscwajc1)"/><path d="m11.81 4.83-1.47 1.15s-1.06.74-.8 2.29l.48 2.59s.18 1.11 1.25 1.78l.88.55 1.03-.71-2.38-1.02-.83-3.8.94-1.24 2.22-1.07-1.32-.52Z" fill="url(#duscwajc1)"/><path d="m4.44 11.61-.24-.8s-.49-.86-.49-1.82c0-.87.43-2.22 1.34-2.46v-.4c-.2.03-.62-.03-.8.06a4.86 4.86 0 0 0-1.1 2.92c0 .97.55 2 1.2 2.56l.1-.06Z" fill="url(#euscwajc1)"/><path d="m5.85 5.15 1.68 1.12s.99.72.74 2.02-.52 2.35-.52 2.35-.26 1.05-.97 1.4l-1.25.63a5.6 5.6 0 0 1-1.36-1.25c.36.38 2.7.03 2.98-1.15 0 0 .36-1.23.54-1.99.18-.76-.21-1.22-.65-1.5a3.87 3.87 0 0 0-1.86-.64c-.27 0-.63.08-.85.22.4-.47.95-.9 1.52-1.2Z" fill="url(#fuscwajc1)"/><path d="m12.18 5.16-1.68 1.1S9.5 7 9.76 8.3c.25 1.3.5 2.35.5 2.35s.27 1.05.98 1.4l1.2.64c.7-.26 1.07-.85 1.4-1.26-.37.45-2.7.02-2.98-1.16 0 0-.35-1.23-.54-2-.18-.75.22-1.21.65-1.48a3.89 3.89 0 0 1 1.87-.64c.27 0 .6.11.83.25-.4-.46-.92-.92-1.5-1.23Z" fill="url(#guscwajc1)"/><path fill-rule="evenodd" d="M9 4c3.31 0 6 2.23 6 5s-2.69 5-6 5-6-2.23-6-5 2.69-5 6-5Zm0 .36c3.08 0 5.67 2.08 5.67 4.64 0 2.56-2.59 4.64-5.67 4.64S3.33 11.56 3.33 9c0-2.56 2.59-4.64 5.67-4.64Z" fill="url(#huscwajc1)"/><path d="M3.02 9.38c.03-.13.08-.25.14-.36.13-.35.13-.7.27-1.17.03-.1.1-.14.15-.2-.16.42-.25.88-.25 1.36 0 2.37 2.23 4.31 5 4.58l-.62.27C5.17 13.42 3.22 11.6 3 9.38Z" fill="url(#iuscwajc1)"/><path d="M5.67 12.73c.07.04.56.09.66.11a6.16 6.16 0 0 0 5.32.01c.26-.05.45-.05.68-.11-.93.59-2.06.9-3.33.9-1.25 0-2.4-.33-3.33-.91Z" fill="url(#juscwajc1)"/><path d="M11.5 5.07h.5a5.71 5.71 0 0 0-3-.71c-1.13 0-2.12.24-3 .71h.5A5.92 5.92 0 0 1 9 4.6c.92 0 1.74.14 2.5.48Z" fill="url(#kuscwajc1)"/><path d="M5.05 6.15h.15c.69 0 1.43.37 1.86.64.44.26.82.72.65 1.49-.17.77-.55 2-.55 2s-.47 1.69-2.8 1.38l-.17-.83c.07.06.47.38.97.38 1.2 0 1.63-1.16 1.63-1.16s.36-.94.57-1.8c.21-.84-.32-1.14-.32-1.14l-.97-.46s-.25-.16-.7-.17c-.12 0-.22.01-.33.05l.01-.38Z" fill="url(#luscwajc1)"/><defs><linearGradient id="auscwajc1" x1="12.06" y1="6.11" x2="12.5" y2="11.72" gradientUnits="userSpaceOnUse"><stop offset=".1" stop-color="#010101"/><stop offset=".24" stop-color="#7B7B7B"/><stop offset=".82" stop-color="#7D7C81"/><stop offset=".92" stop-color="#010101"/></linearGradient><linearGradient id="buscwajc1" x1="13.79" y1="6.13" x2="10.21" y2="10.72" gradientUnits="userSpaceOnUse"><stop offset=".32" stop-color="#010101"/><stop offset=".41" stop-color="#F6F6F6"/></linearGradient><linearGradient id="cuscwajc1" x1="7.04" y1="4.84" x2="5.75" y2="13.16" gradientUnits="userSpaceOnUse"><stop stop-color="#ACACAE"/><stop offset=".37" stop-color="#111"/><stop offset=".7" stop-color="#010101"/><stop offset="1" stop-color="#B0AFB4"/></linearGradient><linearGradient id="duscwajc1" x1="9.55" y1="5.25" x2="11.79" y2="13.2" gradientUnits="userSpaceOnUse"><stop stop-color="#E9E9EB"/><stop offset=".26" stop-color="#919191"/><stop offset=".72" stop-color="#0E0E0E"/><stop offset="1" stop-color="#7E7D82"/></linearGradient><linearGradient id="euscwajc1" x1="4.25" y1="6.13" x2="4.25" y2="11.61" gradientUnits="userSpaceOnUse"><stop stop-color="#020202"/><stop offset=".9" stop-color="#828282"/></linearGradient><linearGradient id="fuscwajc1" x1="6.24" y1="4.89" x2="6.24" y2="13.13" gradientUnits="userSpaceOnUse"><stop stop-color="#FEFEFE"/><stop offset="1" stop-color="#6E6E6E"/></linearGradient><linearGradient id="guscwajc1" x1="12" y1="4.94" x2="12.68" y2="13.28" gradientUnits="userSpaceOnUse"><stop offset=".17" stop-color="#F9F9F9"/><stop offset="1" stop-color="#5E5E5E"/></linearGradient><linearGradient id="huscwajc1" x1="5.02" y1="4.78" x2="13.23" y2="12.89" gradientUnits="userSpaceOnUse"><stop stop-color="#FAFAFA"/><stop offset="1" stop-color="#111"/></linearGradient><linearGradient id="iuscwajc1" x1="3.53" y1="7.29" x2="6.76" y2="13.5" gradientUnits="userSpaceOnUse"><stop offset=".09" stop-color="#0C0B0E"/><stop offset=".94" stop-color="#656565"/></linearGradient><linearGradient id="juscwajc1" x1="12.78" y1="12.66" x2="5.26" y2="12.66" gradientUnits="userSpaceOnUse"><stop stop-color="#E4E4E4"/><stop offset="1" stop-color="#818084"/></linearGradient><linearGradient id="kuscwajc1" x1="12.34" y1="5.15" x2="5.79" y2="5.15" gradientUnits="userSpaceOnUse"><stop stop-color="#696969"/><stop offset="1" stop-color="#030303"/></linearGradient><linearGradient id="luscwajc1" x1="5.97" y1="6.11" x2="5.14" y2="11.81" gradientUnits="userSpaceOnUse"><stop offset=".1" stop-color="#030303"/><stop offset=".21" stop-color="#E7E7E7"/><stop offset=".34" stop-color="#C0C0C2"/><stop offset=".67" stop-color="#C1C0C5"/><stop offset=".77" stop-color="#F0F0F0"/><stop offset=".86" stop-color="#444"/></linearGradient></defs></svg>