<!-- by TradingView --><svg width="18" height="18" viewBox="0 0 18 18" xmlns="http://www.w3.org/2000/svg"><path fill="#F0F3FA" d="M0 0h18v18H0z"/><path d="M2 11V7h1.54c.68 0 1.25.35 1.25 1.04 0 .41-.21.74-.65.85v.04c.54.03.86.51.86.98C5 10.64 4.35 11 3.63 11H2Zm.78-.6h.73c.37 0 .63-.2.63-.6 0-.38-.21-.6-.6-.6h-.76v1.2Zm0-1.6h.67c.36 0 .7-.25.7-.6s-.34-.6-.69-.6h-.68v1.2ZM6.06 11 5 7h.73l.68 2.6.76-2.6h.66l.76 2.6.68-2.6H10l-1.06 4h-.67L7.5 8.4 6.73 11h-.67ZM10 7.7V7h3v.7h-1.15V11h-.7V7.7H10ZM13.73 7l.77 1.46.77-1.46h.71l-1.06 2L16 11h-.72l-.78-1.46-.78 1.46H13l1.09-2L13 7h.72Z"/></svg>