<!-- by TradingView --><svg width="18" height="18" fill="none" xmlns="http://www.w3.org/2000/svg"><path fill="#F0F3FA" d="M0 0h18v18H0z"/><circle cx="9" cy="9" fill="url(#a)" r="5"/><path fill-rule="evenodd" clip-rule="evenodd" d="M8 11v2.903c1.41.272 3.612.052 5.06-1.982-.201-.465-1.003-1.007-1.338-1.177.847-.155.973-.993 1.003-1.38 0-1.237-.879-1.317-1.393-1.364H8v2.728h1.112v.273H8Zm1.25-1.5v.169H10v.831h.695c.34 0 .615-.224.615-.5s-.275-.5-.615-.5H9.25Zm-.046 3.29V13h1.568c.357 0 .646-.28.646-.625a.636.636 0 0 0-.646-.625H10v1.04h-.796Z" fill="url(#b)"/><path d="M8 10.4c-1.397-.677-1.916-3.382-2-4.65.267.317 1.444 2.73 2 3.896v.753ZM8 11c-1.71 0-2.713.229-3 .344.53-.014 1.712-.008 2.212.118.5.127.734.132.788.12V11Z" fill="#B1D680"/><defs><linearGradient id="a" x1="5.753" y1="5.044" x2="11.925" y2="12.782" gradientUnits="userSpaceOnUse"><stop stop-color="#79C151"/><stop offset="1" stop-color="#1C3B1C"/></linearGradient><linearGradient id="b" x1="10.784" y1="8.5" x2="10.784" y2="13.995" gradientUnits="userSpaceOnUse"><stop stop-color="#FEFEFE"/><stop offset="1" stop-color="#8A8C8F"/></linearGradient></defs></svg>