<!-- by TradingView --><svg width="18" height="18" viewBox="0 0 18 18" xmlns="http://www.w3.org/2000/svg"><path fill="#F0F3FA" d="M0 0h18v18H0z"/><path d="M6.12 11V7.68a1.54 1.54 0 0 0-.3-.68H7v.64c.17-.28.52-.64 1.03-.64.76 0 1.02.43 1.14.66.13-.22.6-.66 1.4-.66C11.58 7 12 7.8 12 8.36V11h-1V8.62a.7.7 0 0 0-.77-.7c-.67 0-.77.71-.77.84v2.23h-.95V8.56c0-.18-.11-.64-.74-.64-.4 0-.65.36-.77.64V11h-.88Z" fill="#004489"/><path d="M14.28 11.86a6 6 0 1 1 .4-.9l-.85-.65a5.01 5.01 0 1 0-.39 1l.84.55Z" fill="#1F9BDE"/></svg>