<!-- by TradingView --><svg xmlns="http://www.w3.org/2000/svg" width="18" height="18" viewBox="0 0 18 18"><path fill="#F0F3FA" d="M0 0h18v18H0z"/><path d="M13.17 6.44c.35.34.7.73.96 1.02.17-.66.09-1.23-.27-1.72-.48-.66-1.48-.8-2.37-.64h-.05l.18.12c.56.35 1.07.76 1.55 1.22Zm-1.2 6.5a2 2 0 0 1-.26.12l.47.02c1.38 0 2.55-.38 2.73-1.78.02-.2 0-.42-.06-.62-.05-.15-.11-.3-.18-.43l-.3.52a7.54 7.54 0 0 1-2.4 2.16ZM3.19 8.05a3.36 3.36 0 0 0 .84 3.42l.29.29-.03-.01c-.41-.15-.8-.35-1.16-.6-1.49-1.1-1.44-2.25-.17-3.23.13-.1.26-.2.4-.28l-.17.4Z" fill="#E60000"/><path d="M10.94 5.22c-.4.1-1.74.45-3.1.86l-.99.29c-.9.26-2 .58-2.4.73-.38.15-.75.33-1.1.55.46-.9 1.34-1.47 2.39-2.04 1.27-.7 2.46-1.29 4.05-1.06.58.07 1.14.26 1.65.55a8.74 8.74 0 0 0-.5.12Zm3.99 4.49c.22-.73-.08-1.43-.63-2.06l-.17-.19-.05.17c-.08.23-.12.46-.12.7 0 .64.3 1.18.61 1.73l.1.2.04-.08.22-.47Zm-6.9 2.73c-.28-.05-.61-.1-.97-.14-.7-.1-1.47-.2-2.15-.36-.2-.05-.4-.1-.6-.17l.53.5c.75.6 1.64.98 2.58 1.12a9.32 9.32 0 0 0 4.3-.33l-.3-.02h-.07c-.84-.1-1.7-.27-2.41-.42l-.9-.18Z" fill="#FFBF00"/><path d="M14.57 10.06c-.3-.55-.6-1.1-.61-1.73 0-.24.04-.47.12-.7a2 2 0 0 0 .05-.17c-.26-.3-.6-.68-.96-1.02a9.67 9.67 0 0 0-1.73-1.33l-.39.09c-.05 0-1.63.4-3.2.88-.77.23-2.83.8-3.4 1.03-.38.14-.75.33-1.1.54l-.17.4a3.36 3.36 0 0 0 .84 3.43l.28.29c.2.07.4.12.6.17 1.03.24 2.3.36 3.13.5.8.13 2.09.47 3.32.6l.37.02a7.64 7.64 0 0 0 2.66-2.3c.11-.16.22-.33.3-.5l-.1-.2Z" fill="#FF5C00"/><path d="M6.5 9.3H6v.95h.5c.41 0 .84-.04.84-.47 0-.44-.45-.48-.84-.48Zm.32 1.7H5V7h2c.79 0 1.39.33 1.39 1.01a.85.85 0 0 1-.19.6 1 1 0 0 1-.57.35c.58.1.87.4.87.88 0 .96-.9 1.16-1.68 1.16ZM6.5 7.75H6v.83h.48c.38 0 .77-.06.77-.42 0-.37-.37-.4-.75-.4ZM10.48 7H9v4h1V8.62L11.57 11H13V7h-1v2.34L10.48 7Z" fill="#fff"/></svg>