<!-- by TradingView --><svg width="18" height="18" viewBox="0 0 18 18" xmlns="http://www.w3.org/2000/svg"><path fill="#F0F3FA" d="M0 0h18v18H0z"/><path d="M13.38 7.57c1.51 0 2.47 2.29 2.62 3.43a2.2 2.2 0 0 0-1.46-.57H4.63C3.1 10.43 2.15 8.14 2 7c.3.43.73.57 1.17.57h10.2Z" fill="#ED1B24"/><path fill-rule="evenodd" d="M15.08 8.93c-.44-.7-1.03-1.22-1.7-1.22H3.16a1.6 1.6 0 0 1-.94-.27c.13.5.36 1.1.7 1.63.43.7 1.02 1.22 1.7 1.22h9.91c.33 0 .82.09 1.25.36a5.86 5.86 0 0 0-.71-1.72Zm.88 1.85c-.23-1.2-1.16-3.2-2.59-3.2H3.18c-.36 0-.71-.1-.99-.36A1.32 1.32 0 0 1 2 7l.05.29c.25 1.2 1.18 3.14 2.58 3.14h9.91A2.26 2.26 0 0 1 16 11c0-.07-.02-.15-.04-.22Z"/><path d="M4 8.5h10v1H4v-1Z" fill="#D9D9D9"/></svg>