<!-- by TradingView --><svg width="18" height="18" viewBox="0 0 18 18" xmlns="http://www.w3.org/2000/svg"><path fill="#F0F3FA" d="M0 0h18v18H0z"/><path d="M12.5 8c0 1.1-2.35 2-5.25 2S2 9.1 2 8s2.35-2 5.25-2 5.25.9 5.25 2Z" fill="#9BC7F4"/><path d="M13.67 8.67c0 1.1-2.35 2-5.25 2s-5.25-.9-5.25-2 2.35-2 5.25-2 5.25.9 5.25 2Z" fill="#02A4E4"/><path d="M14.83 9.33c0 1.1-2.35 2-5.25 2s-5.25-.9-5.25-2S6.68 7.5 9.58 7.5s5.25.73 5.25 1.83Z" fill="#0085CE"/><ellipse cx="11" cy="10" rx="5" ry="2" fill="#2C3681"/><path fill="#F0F3FA" fill-opacity=".5" d="M8 9h6v2H8z"/></svg>