<!-- by TradingView --><svg width="18" height="18" viewBox="0 0 18 18" xmlns="http://www.w3.org/2000/svg"><path fill="#F0F3FA" d="M0 0h18v18H0z"/><path fill-rule="evenodd" d="M14 4H4v10h10V4Zm-2.52 1H5v8h6.48c.57 0 1.52-.41 1.52-1.77s-.95-1.73-1.52-1.73h-.98v1.56c.25 0 .58-.35.83-.61l.15-.15v.94c-.32.26-1.22.76-2.29.76C7.86 12 6 11.08 6 9s1.67-3 3.19-3c1.22 0 2.03.64 2.29.89L11.5 8c-.54-.67-1.36-1-2.31-1C8.43 7 7 7.42 7 9c0 1.5 1.5 2.06 2.19 2.06h.31V9.73c0-.3-.18-.37-.31-.37h-.22c-.19 0-.47 0-.47-.36 0-.3.37-.4.5-.4h2.57C12 8.62 13 8.64 13 6.9 13 5.38 11.98 5 11.48 5Zm-.98 3a.5.5 0 1 1-1 0 .5.5 0 0 1 1 0Z" fill="#0D56A9"/></svg>