<!-- by TradingView --><svg width="18" height="18" viewBox="0 0 18 18" xmlns="http://www.w3.org/2000/svg"><path fill="#F0F3FA" d="M0 0h18v18H0z"/><path d="M6.13 5.76A3.52 3.52 0 0 1 8.37 5C10.47 5 12 6.07 12 8.45v2.06c0 1.31-.52 2.52-1.67 3.1-.53.26-1.18.39-1.96.39a3.4 3.4 0 0 1-2.32-.9A3.46 3.46 0 0 1 5 10.5V8.46c0-1.23.44-2.12 1.13-2.7Z" fill="#543847"/><path fill-rule="evenodd" d="M11.65 4.07c.97.2 1.76 1.2 2.2 2.63.1.29.15.59.15.89A4.49 4.49 0 0 1 9.4 12c-.66 0-1.3-.16-1.78-.56S7 10.6 7 10.08c0-.29.04-.6.09-.94l.08-.73c.1-1.26.47-2.15 1.08-2.93.7-.9 1.63-1.48 2.69-1.48.23 0 .47.02.7.07ZM9.02 5.69a2.7 2.7 0 0 1 2.78-1.03c.79.16 1.26.96 1.63 2.12a3.2 3.2 0 0 1-1.63 3.74c-.56.28-1.27.48-1.93.48-.51 0-1-.17-1.36-.48-.38-.31-.51-.66-.51-1.05 0-.25.03-.51.07-.8l.07-.6a4.2 4.2 0 0 1 .88-2.38Z" fill="#D4552E"/></svg>