<!-- by TradingView --><svg width="18" height="18" viewBox="0 0 18 18" xmlns="http://www.w3.org/2000/svg"><path fill="#F0F3FA" d="M0 0h18v18H0z"/><path fill-rule="evenodd" d="M12.57 4.5h-7.2c-.46 0-.87.4-.87.87v7.28c0 .47.4.83.87.83h7.2c.46 0 .93-.36.93-.83V5.37c0-.47-.47-.87-.93-.87ZM5.18 4C4.53 4 4 4.51 4 5.14v7.72c0 .63.53 1.14 1.18 1.14h7.64c.65 0 1.18-.51 1.18-1.14V5.14C14 4.51 13.47 4 12.82 4H5.18Z" fill="#017FC6"/><path d="M9.53 5.88a.5.5 0 1 1-.81-.38 1.85 1.85 0 0 0-.08 3.62.48.48 0 0 0-.17.5 1.96 1.96 0 0 0-2.64-.36 1.78 1.78 0 0 0-.66 2.26.5.5 0 0 1 .22-.37c.24-.15.55-.11.71.1.16.22.1.52-.13.68a.55.55 0 0 1-.43.08c.64.59 1.67.66 2.45.13.78-.53 1.04-1.5.64-2.27.1.08.23.13.37.13.14 0 .27-.05.37-.13-.4.77-.14 1.74.64 2.27s1.81.46 2.45-.13c-.14.03-.3 0-.43-.08-.23-.16-.3-.46-.13-.68.16-.21.47-.25.7-.1.14.1.21.23.23.37.38-.77.12-1.73-.66-2.26a1.96 1.96 0 0 0-2.64.35l.02-.11a.48.48 0 0 0-.18-.36 1.85 1.85 0 0 0-.02-3.64c.11.1.18.23.18.38Z" fill="#017FC6"/></svg>