<!-- by TradingView --><svg width="18" height="18" viewBox="0 0 18 18" xmlns="http://www.w3.org/2000/svg"><path fill="#292E32" d="M0 0h18v18H0z"/><path d="M13.92 5.75c0 .14-.01.27-.03.4-.02.1-.11.17-.21.18-.3-.02-.19-.53-.52-.65a.63.63 0 0 0-.28-.03L11 5.63v2.45h2.03c.2-.02.3-.05.35-.11a.3.3 0 0 1 .21-.14.19.19 0 0 1 .14.06l.04.06v.08c0 .03 0 .07-.02.1l-.06.39c-.02.16-.03.48-.03.56 0 .22-.11.3-.22.3a.2.2 0 0 1-.14-.06.18.18 0 0 1-.05-.14v-.05c0-.09-.02-.18-.05-.26-.03-.1-.17-.16-.38-.2l-1.3-.01H11c0 .85-.01 2.17.03 2.5.03.25.14.33.3.35a4.2 4.2 0 0 0 .48.05.2.2 0 0 1 .11.1l.02.08c0 .04 0 .26-.28.26H9.57a.26.26 0 0 1-.28-.26.18.18 0 0 1 .06-.14.2.2 0 0 1 .14-.05l.16-.02.1-.02c.08-.02.16-.08.2-.33v-.03c.05-.61.07-1.23.05-1.85V7.78c0-1.34.02-1.72 0-2-.02-.26-.14-.35-.35-.37-.1-.02-.2-.02-.3-.02a.22.22 0 0 1-.14-.06.2.2 0 0 1-.06-.14c0-.07.03-.19.27-.19h4.4c.33.02.1.54.1.75ZM9.25 9.91a1.87 1.87 0 0 1-.61 1.4c-.51.44-1.18.72-1.86.69H4.4c-.25 0-.27-.2-.27-.26a.17.17 0 0 1 .06-.13.18.18 0 0 1 .14-.04l.42-.01.1-.02c.08-.01.04-.1.08-.33.05-.61.08-1.28.06-1.9V7.79c0-1.34-.01-1.77-.03-2.04-.02-.27-.01-.35-.21-.37-.1-.02-.45-.02-.56-.02a.2.2 0 0 1-.14-.05.18.18 0 0 1-.06-.13c0-.07.04-.17.28-.17H6.7c1.65 0 1.84.94 1.84 1.44 0 .67-.42 1.3-.83 1.64.78.28 1.53.94 1.53 1.83ZM6 7.94c.17.03.45.04.62.04.69 0 .92-.6.9-1.22 0-.63-.12-1.27-.94-1.27-.15 0-.43.03-.58.06v2.4Zm2.13 2.26c0-.3-.09-.58-.23-.83-.41-.72-1.14-.86-1.9-.84v2.26c.03.44.4.65.88.63.83-.02 1.25-.42 1.25-1.22Z" fill="#fff"/><path d="M13.98 13H4.02v.01l-.01.03a.47.47 0 0 0-.01.09v.74c0 .07 0 .13.02.13h9.96l.01-.04.01-.09v-.84c0-.02-.01-.03-.02-.03Z" fill="#00B170"/></svg>