<!-- by TradingView --><svg width="18" height="18" viewBox="0 0 18 18" fill="none" xmlns="http://www.w3.org/2000/svg">
<rect width="18" height="18" fill="#232074"/>
<path fill-rule="evenodd" clip-rule="evenodd" d="M9 15C12.3137 15 15 12.3137 15 9C15 5.68629 12.3137 3 9 3C5.68629 3 3 5.68629 3 9C3 12.3137 5.68629 15 9 15ZM5 11.4522V6.5625L5.48 6H6.6L9 8.69533L11.4 6H12.52L13 6.5625V11.4522L12.52 12H11.542L11 11.4522V9.26125L9.4794 11H8.61895L7 9.26125V11.4522L6.5 12H5.48L5 11.4522Z" fill="white"/>
</svg>
