<!-- by TradingView --><svg width="18" height="18" viewBox="0 0 18 18" xmlns="http://www.w3.org/2000/svg"><path fill="#F0F3FA" d="M0 0h18v18H0z"/><path d="M13 3H5v9h8V3Zm-2.38 1.14.07-.07a.57.57 0 0 1 .07-.07l.04.1a13.56 13.56 0 0 0 .13.4l-.05-.02-.04-.04v.04l.03.18.08.57c.02.2.03.68.01.8a.3.3 0 0 1-.04.1c-.04.07-.12.07-.2.02l-.07-.04-.09.04c-.36.15-.66.22-1.06.22-.38 0-.63-.06-.93-.2l-.14-.07-.07.09c-.12.15-.24.2-.31.14a.54.54 0 0 1-.12-.24l-.02-.06-.02.04c-.08.12-.37.25-.7.32-.33.07-.56-.01-.63-.22a.65.65 0 0 1-.03-.25c0-.15 0-.19.03-.26.03-.09.1-.18.1-.15v.1c-.05.18-.02.35.06.43.13.15.58.1 1-.1.12-.06.13-.07.15-.16a8.56 8.56 0 0 0-.02-1.52.9.9 0 0 0 .04-.09.23.23 0 0 1 .04-.06l.04.71c.02.64.04.95.07 1.06.03.11.08.2.13.2.05.02.16-.06.23-.18l.07-.1.09.06c.22.14.4.2.64.24.42.08.93-.01 1.37-.24l.11-.06.04.04c.05.06.11.08.14.06.03-.02.03-.03 0-.3a178.09 178.09 0 0 1-.16-1.3h-.02c-.03.03-.03.03-.04-.07l-.02-.09Zm.52.1c0-.05 0-.06.06-.13.04-.04.07-.07.08-.06.01.02.14.45.13.46 0 0-.02 0-.04-.03l-.04-.04.01.04.09.52.06.75c0 .16-.03.35-.06.42-.04.06-.06.07-.05 0 .01-.05 0-.36-.03-.56l-.13-1.01c-.03-.25-.04-.3-.06-.29-.01 0-.02-.01-.02-.06Zm-.86.03.11-.06c.04-.03.07 0 .06.06-.01.05-.07.08-.34.2l-.19.1c-.16.07-.93.38-.96.38l-.07.07c-.05.08-.07.09-.09.04-.04-.11.03-.2.22-.27a57.82 57.82 0 0 0 1.26-.52Zm-3.07 1c0-.07.05-.2.15-.34.09-.12.1-.14.14-.14.05 0 .06.02.02.11a.23.23 0 0 1-.08.1l-.05.05c0 .02.07.04.13.04h.05v.13c0 .1-.01.13-.05.19a.48.48 0 0 1-.1.12c-.06.04-.09.05-.19.06h-.11l.11-.08c.13-.1.2-.15.2-.17 0 0-.03-.01-.07 0-.09 0-.14-.02-.15-.08Zm1.12-.03.06-.1.07-.08c.01 0 .13.15.13.17 0 .02-.1.18-.12.18l-.08-.08-.06-.09Zm2.14 1.35.06-.1a.4.4 0 0 1 .07-.09c.02 0 .14.15.14.17l-.06.11-.06.1-.03-.04a2.77 2.77 0 0 1-.08-.09l-.04-.06Zm1.25.77c0-.09 0-.1.07-.18.04-.04.07-.08.08-.07l.02.06.03.12a8.95 8.95 0 0 0 .08.3l-.04-.02-.03-.01.02.24.03.6c.02.64-.02 1.06-.11 1.17a13.31 13.31 0 0 0 0-1.26c-.04-.43-.1-.89-.11-.87-.03.03-.04.01-.04-.08Zm-.42-.01c0-.12 0-.12.06-.17a.33.33 0 0 1 .07-.05c.02 0 .09.25.13.44 0 .05 0 .06-.05.02-.03-.04-.05-.03-.04.02.03.2.09.74.1.95.02.4 0 .62-.07.7-.05.05-.13.05-.2 0a.51.51 0 0 1-.16-.25l-.01-.06-.05.04a.59.59 0 0 1-.22.1c-.04.01-.05.02-.05.05 0 .07-.07.3-.12.36-.06.09-.28.24-.4.28-.18.06-.44.1-.7.1l-.2-.02.26-.1c.7-.21.88-.29 1-.43.03-.03.05-.07.05-.1 0-.06-.03-.08-.14-.07-.17.03-.27-.04-.3-.17 0-.13.08-.39.16-.46.1-.08.17-.03.28.18.05.12.07.14.1.14.15.01.26-.03.37-.15a.39.39 0 0 1 .08-.08c.02 0 .02.05 0 .1s0 .15.06.22c.05.06.1.08.14.07.03-.01.03-.02.03-.1 0-.06 0-.17-.02-.26 0-.1-.03-.26-.04-.37l-.04-.39-.02-.26c-.02-.17-.02-.2-.04-.18-.02 0-.02-.01-.02-.1Zm-1.87.33.06-.11.06-.1.04.05.08.1.03.04-.07.1-.07.1-.06-.08a.42.42 0 0 1-.07-.1Zm1.55.35c0-.03.01-.06.07-.14a.24.24 0 0 1 .04-.06l.08.09.07.09-.06.09a.36.36 0 0 1-.08.09l-.07-.08c-.03-.04-.05-.06-.05-.08Zm-.29.01.06-.11a.39.39 0 0 1 .06-.08l.08.09.07.09-.07.1-.07.1-.07-.1c-.04-.04-.05-.06-.06-.09Zm-1 .31c-.02-.08-.02-.08.04-.16l.05-.07.07.09a5.9 5.9 0 0 0 .13.18l-.04.02-.05.02.04.12c.08.23.1.47.04.55-.04.07-.27.1-.34.05-.03-.03-.04-.02-.1.02-.08.06-.14.05-.19 0l-.03-.06-.06.05c-.07.06-.16.1-.21.08a.26.26 0 0 1-.09-.08c-.04-.06-.05-.07-.07-.05-.07.03-.2.08-.32.1-.15.05-.5.05-.64 0a1.1 1.1 0 0 1-.45-.24c-.1-.12-.18-.14-.3-.08-.13.05-.18.1-.17.15v.02c.01.02.04.03.2.06.12.03.25.1.28.16.06.1.02.23-.11.39a.79.79 0 0 1-.6.27.97.97 0 0 1-.48-.08.41.41 0 0 1-.19-.15c-.07-.1-.08-.12-.1-.2-.01-.11 0-.28.06-.45l.04-.14c.02-.09.02-.05 0 .06a.87.87 0 0 0 .02.39c.03.08.13.17.23.2.13.06.46.05.68 0 .2-.05.26-.07.26-.1s-.05-.06-.19-.09a1.79 1.79 0 0 1-.2-.06l-.06-.02v-.1c0-.18.08-.36.23-.48.12-.1.27-.15.36-.1l.1.1c.15.23.44.32.84.27.25-.02.5-.09.6-.15.05-.04.06-.04.06-.01 0 .06.01.13.04.14.04.01.12-.02.22-.1.07-.04.08-.05.1-.03.01.06.06.1.1.1.02 0 .04-.02.07-.07l.04-.07.04.05c.02.03.05.06.08.06.07.02.16 0 .16-.03l-.09-.34c-.04-.13-.05-.15-.06-.13-.02.04-.03.04-.04-.06Zm.83.55c.08.01.08-.02 0-.08-.08-.08-.12-.08-.12 0 0 .05.01.06.12.08ZM7.8 9.8l.06-.1a.81.81 0 0 1 .06-.09l.02.02.07.09c.04.05.05.06.03.1a.6.6 0 0 1-.06.1l-.05.07-.07-.08a.4.4 0 0 1-.06-.1Zm-.25-.05.07-.1c.01-.02.02-.01.08.06.04.04.07.08.07.1l-.06.1c-.03.05-.04.08-.06.08-.02 0-.04-.03-.1-.1l-.05-.06.05-.08Z" fill="#004388"/><path d="M5 12h8v3H5v-3Z" fill="#011A45"/><path opacity=".6" fill="#fff" d="M6 13h6v1H6z"/></svg>