<!-- by TradingView --><svg width="18" height="18" viewBox="0 0 18 18" xmlns="http://www.w3.org/2000/svg"><path fill="#F0F3FA" d="M0 0h18v18H0z"/><path d="m4.53 10.14-.35.57v.1c.81-.52 2.45-1.54 2.52-1.57.08-.04 3.15-.76 3.21-.77.06-.01 2.64.64 3.92.96l.1-3.32-.36-.1-4.52.25-3.38 2.46-1.14 1.42Z" fill="#F1B700"/><path fill-rule="evenodd" d="M14 11H4.33v2.49H14V11Zm-9.33 2.21v-1.93h1.38c.6 0 .78.32.78.5 0 .25-.21.38-.34.4.38.08.5.33.5.45 0 .44-.5.57-.76.58H4.67Zm.66-1.1v-.56h.6c.08.01.24.08.24.26 0 .23-.24.3-.37.3h-.47Zm0 .27v.56h.73c.09-.01.27-.08.27-.26 0-.23-.28-.3-.43-.3h-.57Zm2.34-.83v-.27h2.66v.27h-1v1.66h-.66v-1.66h-1Zm5.66 0v-.27H11v1.2c0 .4.4.73.9.73h1.43v-.27h-1.2c-.28 0-.46-.16-.46-.4v-.88c0-.05.06-.1.13-.1h1.53Zm-.33.56h-1.33v.27H13v-.27Z" fill="#C1022C"/><path d="M4 4h10v10H4V4Zm8.17.5h-3l.37.3-.48.61-.6-.49.33-.42h-.84l.44.35-.48.62-.6-.49.37-.48H4.95l1.9.85c-.51.49-1.61 1.9-2.35 4.02v.68a11.53 11.53 0 0 1 7.67-5.55ZM4.5 10.29v.2a10.53 10.53 0 0 1 7.04-2.83c.48 0 1.4.08 1.96.35V6.58a7.6 7.6 0 0 0-1.7-.18c-1.25 0-4.28.21-7.3 3.88Zm9-.1c-.68-.5-2-1.15-3.67-1.15-2.12 0-4.22.98-5.33 1.59v2.87h9v-3.31Zm-4.51-.73-.48.62.6.49.48-.62-.6-.49Z" fill="#08266E"/></svg>