<!-- by TradingView --><svg width="18" height="18" viewBox="0 0 18 18" xmlns="http://www.w3.org/2000/svg"><path fill="#F0F3FA" d="M0 0h18v18H0z"/><path fill-rule="evenodd" d="M11.34 12.14c-1.67 1.7-3.86 2.35-5.36 1.47a2.8 2.8 0 0 1-1.2-1.47H3V12h11.44v.14h-3.1Zm-.23 0c-1.57 1.53-3.6 2.1-5 1.28-.5-.3-.87-.74-1.1-1.28h6.1ZM4.74 11h9.7v.14H3V11h1.74Zm7.3-6.6c1.37.8 1.77 2.65 1.19 4.6h-.18c.57-1.87.18-3.64-1.13-4.42-1.74-1.03-4.46.12-6.06 2.55A7.2 7.2 0 0 0 4.97 9H4.8c.2-.65.5-1.3.92-1.94 1.68-2.55 4.51-3.74 6.33-2.67ZM6.48 6.74c.4.08 1.35.35 1.92.8.44.37.54.7.61.92.04.13.07.22.15.24l-.05.22.3-.04.04-.18c.03-.01.12-.08.31-.28l.07-.06c.2-.2.32-.33.58-.75.29-.46.7-1.08 2.02-1.68-.41-.09-1.36-.12-1.89.45-.41.45-.42.9-.43 1.19 0 .16 0 .27-.08.3-.22.04-.46-.15-.37-.72l.04-.21c.1-.48.17-.9-.1-1.38-.02.22-.08.67-.2.82-.14.18-.2.77.08 1.23.28.46.17.9-.07.9-.25 0-.26-.3-.19-.5s.14-.47-.39-.91c-.53-.45-1.8-.57-2.35-.36Z" fill="#1F7D4F"/><path opacity=".7" d="M3.3 9 3 11h11.5l.5-2H3.3Z" fill="#1F7D4F"/><path opacity=".3" fill="#1F7D4F" d="M3 11h11.5v1H3z"/></svg>