<!-- by TradingView --><svg xmlns="http://www.w3.org/2000/svg" width="18" height="18"><path fill="url(#aqzs2wcnt)" d="M0 0h18v18H0z"/><path fill-rule="evenodd" d="M4.84 6H3v6h2a1 1 0 001-1V9.68a1 1 0 00-.44-.83 1 1 0 00.28-.7V7a1 1 0 00-1-1zm-.03.75H4v1.81h.81V6.75zm.08 2.52H4v1.98h.89V9.27zM7.32 6l-1.16 6h.99l.17-.96H8.4l.17.96h1l-1.1-6H7.32zm.09 4.36h.88l-.44-2.65-.44 2.65zm5.08-3.52V8h-.99v-.96c0-.1-.09-.29-.39-.29-.3 0-.4.19-.4.29v.76c-.02.25.14.42.22.48l1.02.8c.44.34.55.82.54 1.01v1.04c0 .3-.28.87-1.4.87-1.11 0-1.37-.58-1.37-.87V10h1v.99c0 .1.1.26.4.26.28 0 .38-.14.38-.26v-.86c0-.2-.16-.4-.25-.47l-.98-.8c-.45-.33-.54-.68-.55-.9V6.83c0-.14.1-.84 1.45-.84 1.09 0 1.34.56 1.32.84zM13.53 6H15v.75h-1v1.87h.64v.75H14v1.88h1V12h-2V6h.53z" fill="#fff"/><defs><linearGradient id="aqzs2wcnt" x1="3.35" y1="3.12" x2="21.9" y2="24.43" gradientUnits="userSpaceOnUse"><stop stop-color="#1A1E21"/><stop offset="1" stop-color="#06060A"/></linearGradient></defs></svg>