<!-- by TradingView --><svg width="18" height="18" viewBox="0 0 18 18" xmlns="http://www.w3.org/2000/svg"><path fill="#F0F3FA" d="M0 0h18v18H0z"/><path d="M13.9 10a5 5 0 0 1-9.85-.3c.37-.24.97-.4 1.76-.4 2.2 0 4.2 1.46 6.34 1.46.78 0 1.38-.45 1.75-.77Z" fill="#A6CE39"/><path d="M14 8.98A2.72 2.72 0 0 1 11.97 10C9.82 10 7.9 8.41 5.74 8.41c-.82 0-1.4.3-1.74.59 0-.7.13-1.35.41-1.99.41-.46.96-.65 1.47-.65C8.26 6.36 9.8 9 12.15 9c.86 0 1.46-.66 1.72-1.14.08.36.13.74.13 1.12Z" fill="#71972A"/><path d="M5.96 5.47c-.23 0-.46.1-.66.17a4.99 4.99 0 0 1 8.39 1.61c-.5.67-1.01.75-1.5.75-1.21 0-2.29-.6-3.32-1.25-.97-.63-1.91-1.28-2.91-1.28Z" fill="#416F1F"/></svg>