<!-- by TradingView --><svg width="18" height="18" viewBox="0 0 18 18" xmlns="http://www.w3.org/2000/svg"><path fill="url(#a4kz3xeth)" d="M0 0h18v18H0z"/><path d="M9.98 13c-.96 0-1.53-.32-1.98-.97V13H6V4h2l.04 3.94A2.12 2.12 0 0 1 9.92 7C11.91 7 13 8.33 13 10c0 1.68-1 3-3.02 3Zm-.42-1.29c1.15 0 1.44-.82 1.44-1.71 0-.92-.34-1.57-1.5-1.57C8.4 8.43 8 8.9 8 10c0 .97.4 1.71 1.56 1.71Z" fill="#F0F3FA"/><defs><linearGradient id="a4kz3xeth" x1="9" y1="0" x2="9" y2="18" gradientUnits="userSpaceOnUse"><stop stop-color="#2D3029"/><stop offset=".33" stop-color="#393B2D"/><stop offset="1" stop-color="#2E3221"/></linearGradient></defs></svg>