<!-- by TradingView --><svg width="18" height="18" viewBox="0 0 18 18" xmlns="http://www.w3.org/2000/svg"><path fill="#F0F3FA" d="M0 0h18v18H0z"/><path d="M14 11.83c0-2.86-6.33-3.33-9.33-3.16L5.5 13c1.44 0 4.77.17 6.5.17 1.73 0 2-.84 2-1.34Z" fill="#ED6D22"/><path d="m12.67 12-2.34.83.34.17h2v-1Z" fill="#F9FFFF"/><path d="M5.67 14 4 12.67V7.33A3.32 3.32 0 0 1 6.67 4h3c-1.74 0-2.84 1.78-3 2.67V14h-1Z" fill="url(#acnjh3nqz)"/><circle cx="9.67" cy="7" r="3" fill="url(#bcnjh3nqz)"/><circle cx="9.67" cy="7" r=".67" fill="#070103"/><path d="M12.67 13h-6v1H13c.67 0 1-1.33 1-2.17-.17.84-1.11 1.17-1.33 1.17Z" fill="url(#ccnjh3nqz)"/><path d="m10.33 10.17-2 .83 1.67.83V13l2.67-1-2.34-1.83Z" fill="url(#dcnjh3nqz)"/><path d="m7.67 12.83-1-.83v1.5l.5.5h.5v-1.17Z" fill="url(#ecnjh3nqz)"/><path d="m10 13-1.17-.83 1.17-.34V13Z" fill="#F9FFFF"/><path d="M6.67 11v1l1 .83 2.33-1-1.83-1.5-1.5.67Z" fill="url(#fcnjh3nqz)"/><defs><linearGradient id="acnjh3nqz" x1="3.83" y1="8.5" x2="6.67" y2="8.5" gradientUnits="userSpaceOnUse"><stop stop-color="#7B627F"/><stop offset="1" stop-color="#F0EBE5"/></linearGradient><linearGradient id="bcnjh3nqz" x1="9.5" y1="10" x2="9.5" y2="4.33" gradientUnits="userSpaceOnUse"><stop stop-color="#8A748D"/><stop offset="1" stop-color="#EDE7E2"/></linearGradient><linearGradient id="ccnjh3nqz" x1="6.5" y1="13.67" x2="13.67" y2="13.67" gradientUnits="userSpaceOnUse"><stop stop-color="#635070"/><stop offset="1" stop-color="#FEFFFF"/></linearGradient><linearGradient id="dcnjh3nqz" x1="8.67" y1="11" x2="12" y2="12" gradientUnits="userSpaceOnUse"><stop stop-color="#867087"/><stop offset="1" stop-color="#FEFFFF"/></linearGradient><linearGradient id="ecnjh3nqz" x1="6.64" y1="13.6" x2="7.62" y2="13.6" gradientUnits="userSpaceOnUse"><stop stop-color="#635070"/><stop offset="1" stop-color="#FEFFFF"/></linearGradient><linearGradient id="fcnjh3nqz" x1="6.59" y1="12.33" x2="9.85" y2="12.33" gradientUnits="userSpaceOnUse"><stop stop-color="#635070"/><stop offset="1" stop-color="#FEFFFF"/></linearGradient></defs></svg>