<!-- by TradingView --><svg xmlns="http://www.w3.org/2000/svg" width="18" height="18" viewBox="0 0 18 18"><path fill="#41352D" d="M0 0h18v18H0z"/><path fill-rule="evenodd" d="M8.73 3h.6l.79.8-.53.53-.42-.43a.2.2 0 0 0-.28 0L7.3 5.49a.2.2 0 0 0 0 .28L8.9 7.36c.07.07.2.07.28 0l1.57-1.6a.2.2 0 0 0 0-.27l-.44-.45.52-.53.83.83v.57L9.29 8.3h-.52L6.35 5.86V5.4L8.73 3ZM5.97 6.35h-.6L3 8.75v.46l2.41 2.44h.52L8.3 9.27V8.7L5.97 6.35Zm-.44.9L3.96 8.84a.2.2 0 0 0 0 .28l1.57 1.59c.08.08.2.08.28 0L7.4 9.12a.2.2 0 0 0 0-.28L5.8 7.25a.2.2 0 0 0-.28 0Zm3.2 2.46h.6l2.32 2.34v.57L9.29 15h-.52l-2.42-2.43v-.47l2.38-2.4ZM7.3 12.19 8.9 10.6a.2.2 0 0 1 .28 0l1.57 1.6a.2.2 0 0 1 0 .27l-1.57 1.6a.2.2 0 0 1-.28 0l-1.58-1.6a.2.2 0 0 1 0-.28Zm4.77-5.84h.6l.8.8-.53.54-.43-.44a.2.2 0 0 0-.28 0l-1.57 1.59a.2.2 0 0 0 0 .28l1.57 1.59c.08.08.2.08.28 0l1.57-1.59a.2.2 0 0 0 0-.28l-.43-.44.52-.53.82.83v.57l-2.36 2.38h-.52L9.7 9.2v-.46l2.37-2.4Z" fill="#fff"/></svg>