<!-- by TradingView --><svg width="18" height="18" viewBox="0 0 18 18" xmlns="http://www.w3.org/2000/svg"><path fill="#F0F3FA" d="M0 0h18v18H0z"/><path opacity=".7" d="M8.8 15C6.67 14.82 5 12.2 5 9c0-3.31 1.8-6 4-6s4 2.69 4 6-1.8 6-4 6H8.79Zm3.13-4.92c.04-.35.07-.7.07-1.08 0-1.49-.4-2.79-1-3.69C10.4 4.41 9.67 4 9 4c-.67 0-1.4.4-2 1.31-.6.9-1 2.2-1 3.69 0 .36.02.7.07 1.04A5.03 5.03 0 0 1 9.19 9c1.33 0 2.33.68 2.74 1.08Z" fill="#92062A"/><path opacity=".6" d="M8 6.84C8 6.38 8.45 6 9 6s1 .38 1 .84V8c.55 0 1 .38 1 .84v1.32c0 .46-.45.84-1 .84s-1-.38-1-.84c0 .46-.45.84-1 .84s-1-.38-1-.84V8.84C7 8.38 7.45 8 8 8V6.84Z" fill="#92062A"/></svg>