<!-- by TradingView --><svg width="18" height="18" viewBox="0 0 18 18" xmlns="http://www.w3.org/2000/svg"><path fill="#F0F3FA" d="M0 0h18v18H0z"/><path d="M9.16 5.11a6.52 6.52 0 0 0-2.72 1.5c-.61.55-1.27 1.48-1.3 2.38a.03.03 0 0 1-.02.02.03.03 0 0 1-.03 0c-.1-.12-.17-.25-.2-.38-.59-1.9.05-4.5 1.7-5.6v-.02h-.02c-.7.4-1.27.95-1.71 1.65-1.34 2.16-1.22 5.1 1.15 6.44l.13.13.02.01c.04.04.07.09.08.14.32.97.88 1.68 1.66 2.13a3.38 3.38 0 0 0 4.52-.96c-1.05.74-2.1 1.12-3.33.61a2.89 2.89 0 0 1-1.5-1.4l.01-.02.02-.02h1.12a6.76 6.76 0 0 0 2.87-.97 5.19 5.19 0 0 0 2.06-2.15c.92-1.79-.2-3.35-1.93-3.65a5.47 5.47 0 0 0-2.58.16ZM8 6.29c.4-.19.82-.32 1.25-.39a3.7 3.7 0 0 1 2.18.22 2.04 2.04 0 0 1 1.27 1.9s0 .02-.02.02a.05.05 0 0 1-.05-.01l-.15-.15a.15.15 0 0 1-.11.02c.17.19.26.35.26.5a3.43 3.43 0 0 1-1.53 1.91 4.69 4.69 0 0 1-3.59.66c-.13-.03-.2-.08-.23-.17l-.06-.03c-.03.03-.06.03-.1.02a2.57 2.57 0 0 1-1.08-.9 2.2 2.2 0 0 1 .3-2.25c.44-.6 1-1.05 1.66-1.35Z" fill="url(#a)"/><path d="M12.48 7.88a.15.15 0 0 1-.11.02c-2.24-2.4-5.12.12-5.15 2.87-.03.03-.06.03-.1.02a2.57 2.57 0 0 1-1.08-.9c.12-.63.25-1.1.4-1.38a3.69 3.69 0 0 1 1.9-1.82 3.45 3.45 0 0 1 4.14 1.2Z" fill="#A8CBE9"/><path d="M12.63 8.4c0-.15-.09-.31-.26-.5-2.26-2.43-5.16.12-5.17 2.88.02.08.18.16.31.19.3.06.62.1.94.1a3.09 3.09 0 0 1 .09-1.77c.6-1.38 1.9-1.93 3.26-1.42.13.04.4.22.83.52Z" fill="url(#b)"/><path d="M8.75 11.73a2.4 2.4 0 0 0 2.12 1.2c.69 0 1.29-.28 1.8-.82.03-.03.03-.03.03.01a.64.64 0 0 1-.28.43c-1.07.75-2.11 1.16-3.3.66a3.02 3.02 0 0 1-1.52-1.44v-.03l.02-.02h1.12Z" fill="#A8CBE9"/><defs><linearGradient id="a" x1="12.73" y1="5.66" x2="5.79" y2="10.15" gradientUnits="userSpaceOnUse"><stop stop-color="#8EB6DA"/><stop offset="1" stop-color="#00428D"/></linearGradient><linearGradient id="b" x1="9.93" y1="7.01" x2="7.97" y2="10.64" gradientUnits="userSpaceOnUse"><stop stop-color="#003F8B"/><stop offset="1" stop-color="#5586BB"/></linearGradient></defs></svg>