<!-- by TradingView --><svg width="18" height="18" viewBox="0 0 18 18" xmlns="http://www.w3.org/2000/svg"><path fill="#F0F3FA" d="M0 0h18v18H0z"/><path d="M4.01 5.15V7.9L4 11.1l.37-.35a6.34 6.34 0 0 1 3.46-1.56l.46-.06-.17-.31c-.13-.27-.15-.38-.16-.86 0-.3-.03-.66-.06-.8-.1-.54.1-1.16.53-1.56.25-.23.25-.23.28.1.05.6.11.68.33.42.2-.22.32-.63.33-1.06.01-.43 0-.43.34-.09.73.73.87 1.69.36 2.44l-.18.22s.03.28.03.49c0 .44-.02.54-.15.78-.14.27-.14.27.05.27.94 0 2.78.67 3.74 1.36l.44.32-.01-3.07c-.01-1.22.02-2 0-2.5-.06-1.04-.57-1.24-1.55-1.28H5c-.65.05-.95.56-.99 1.15Zm5.5.13c-.05.51-.2.78-.67 1.22-.76.69-.97 1.6-.55 2.34.06.1.1.21.17.27h.35v-.12c0-.38.16-.67.65-1.13.93-.9 1.03-1.86.26-2.71-.19-.21-.19-.21-.22.13Zm-.53 3.53c0 .08-.02.18-.04.22l-.02.09.16-.01s0-.2-.05-.34c-.04-.09-.05-.09-.05.04Z" fill="#234220"/><path d="M8.09 7.3c-.08-.14-.2-.54-.03-.97.17-.44.4-.66.5-.71-.01.14.02.5.17.79a1.8 1.8 0 0 0-.64.9Zm.95 1.11c.06.14.17.48.18.7h.2c.12-.14.37-.52.37-.87 0-.36-.03-.5-.05-.52l-.7.7ZM14 14H4c.49-3.3 3.5-4.33 5.85-4.33A6.97 6.97 0 0 1 14 11.23V14Z" fill="#39B54A"/><path opacity=".7" fill="#F0F3FA" d="M6 11h7v2H6z"/></svg>