<!-- by TradingView --><svg width="18" height="18" viewBox="0 0 18 18" xmlns="http://www.w3.org/2000/svg"><path fill="#F0F3FA" d="M0 0h18v18H0z"/><path fill-rule="evenodd" d="M14.54 11.32A6 6 0 1 0 3.46 6.68a6 6 0 0 0 11.08 4.64ZM7 14.42a5.75 5.75 0 0 0 6.25-1.51 5.72 5.72 0 0 0 1-6.35 5.73 5.73 0 0 0-3.27-2.99A5.75 5.75 0 0 0 4.74 5.1a5.72 5.72 0 0 0-.99 6.34 5.73 5.73 0 0 0 3.26 3Zm2-9.07h.67c.01 0 .02 0 .02-.02v-.8c0-.02.01-.03.04-.03h.64c.02 0 .03.01.03.03v2.44c0 .02 0 .03-.03.03h-.64c-.02 0-.03 0-.03-.03v-.95L9.69 6a95.84 95.84 0 0 1-1.4.02v.95c0 .02 0 .03-.03.03h-.64c-.02 0-.03-.01-.03-.03V4.53c0-.02.01-.03.03-.03h.65c.02 0 .02.01.02.03v.8l.04.02H9ZM4.3 7.7h9.82c.02 0 .03 0 .03.02v.26c0 .01-.01.02-.03.02H4.31c-.02 0-.03 0-.03-.02v-.26c0-.01.01-.02.03-.02Zm2.93 2.23c-.01 0-.02 0-.01-.02l.66-1.59c0-.02 0-.03-.02-.03h-.63a.05.05 0 0 0-.06.04 293.3 293.3 0 0 1-1.7 3.97c-.02.08 0 .14.09.18a.5.5 0 0 0 .22.04H8.2c.23 0 .45 0 .45-.29V10.3c0-.23-.16-.34-.4-.34l-1.01-.02Zm-.3.51-.52 1.37v.01H7.7c.15 0 .23-.08.24-.23v-.96c0-.13-.07-.21-.2-.22h-.76a.04.04 0 0 0-.04.03Zm3.79-.5c.01 0 .02 0 .01-.02l-.68-1.61.01-.02h.66c.03 0 .04.02.06.04.77 1.8 1.35 3.08 1.7 3.87.06.12.04.21-.05.27a.38.38 0 0 1-.2.05H9.67c-.17 0-.27-.05-.3-.17l-.01-.3v-1.8c0-.13.04-.22.13-.26a.85.85 0 0 1 .31-.04h.05l.88-.01Zm.82 1.88h-1.22c-.13 0-.24-.05-.27-.15v-1.04c0-.14.08-.22.23-.22h.74c.02 0 .03.01.04.04l.5 1.33c.01.02 0 .04-.02.04Z" fill="#0059FF"/></svg>