<!-- by TradingView --><svg width="18" height="18" viewBox="0 0 18 18" xmlns="http://www.w3.org/2000/svg"><path fill="#F0F3FA" d="M0 0h18v18H0z"/><path d="M8.89 4c1.24.65 1.42 1.68.56 3.09a.84.84 0 0 1-.53.41c-.52.12-.93-.07-1.21-.58a2.92 2.92 0 0 1-.35-1.4c-.02-.68.23-1.19.72-1.52h.8Z" fill="#A8D069"/><path d="M11.02 7.36c-.2-.56-.11-1.2.25-1.92.4-.8.95-1.06 1.65-.79.45.18.77.46.95.84.2.4.17.8-.08 1.2-.4.6-1.04.99-1.94 1.13-.43.06-.71-.1-.83-.46Z" fill="#AECFED"/><path d="M4.92 6.55c.4-.14.73-.08.95.2.42.5.64 1.06.66 1.64 0 .17-.06.32-.2.45-.13.12-.3.19-.49.2a1.9 1.9 0 0 1-1.71-1 .95.95 0 0 1-.06-.82c.13-.3.42-.52.85-.67Z" fill="#FDD000"/><path d="M8.04 14h-.58c-1.4-.76-1.9-1.85-1.49-3.26a4.83 4.83 0 0 1 2.66-2.85 1.86 1.86 0 0 1 1.65.13c.72.38 1.3.89 1.75 1.52.5.71.68 1.41.54 2.1-.17.9-.75 1.3-1.75 1.19l-.32-.04c-.3-.04-.53-.05-.67-.03a1.6 1.6 0 0 0-.7.38c-.35.3-.72.59-1.1.86Z" fill="#F6AB00"/></svg>