<!-- by TradingView --><svg width="18" height="18" viewBox="0 0 18 18" xmlns="http://www.w3.org/2000/svg"><path fill="#F0F3FA" d="M0 0h18v18H0z"/><path d="M3 9.74v-1.5A6.04 6.04 0 0 1 13.82 5.4 6.02 6.02 0 1 1 3 9.74Zm11.63-.6a5.61 5.61 0 0 0-5.51-5.77 5.66 5.66 0 0 0-5.78 5.48 5.61 5.61 0 0 0 5.5 5.76 5.66 5.66 0 0 0 5.79-5.48Z" fill="#231815"/><path d="M11.47 5.46c-1.05-1.44-3.28-1.5-4.69-.6-.86.56-1.36.9-1.73 1.98v.01c-.07.16-.15.21-.23.15-.02-.02-.03-.04-.03-.08-.01-.27 0-.43.02-.48a4.8 4.8 0 0 1 2.61-2.22c1.95-.76 4.07-.07 5.52 1.38.13.14.1.2-.08.2h-.7a.8.8 0 0 1-.69-.34Z" fill="#447C49"/><path d="M6.18 6A.77.77 0 0 1 5.8 6c.08-.16.17-.25.27-.27.07-.01.12.02.13.09 0 .05 0 .11-.02.2Z" fill="#447C49"/><path d="m12.27 10.57.04.56a1.88 1.88 0 0 1-2.06 1c-.41-.07-.7-.14-.85-.22a.16.16 0 0 1-.1-.13l-.12-1.15c0-.06.02-.1.09-.1h.06c.04 0 .06.02.08.06.07.2.16.41.27.61.39.69 1.35 1.02 1.92.34.4-.49-.13-1.21-.56-1.4-.68-.3-1.13-.51-1.33-.64-.06-.03-.1-.01-.13.04-.7 1.26-1.91.96-3.1.98-.28-.03-.47 0-.57.06-.08-.03-.12-.1-.13-.22a.8.8 0 0 0 .51-.1c.16-.06.12-.33.12-.73L6.38 7c0-.43.02-.87-.32-.74a.53.53 0 0 0-.43 0c0-.13.06-.22.17-.27.11.03.24.04.38.01.84-.1 2.72-.39 3.09.71.13.4 0 .73-.38.96a2.5 2.5 0 0 0-.26.18c-.08.06-.07.1.03.12.16.03.3.1.45.21.05.04.1.03.13-.03.54-.98 1.61-1.05 2.61-.7.06.02.1.06.1.12l.1.9c0 .06-.02.08-.07.08h-.06a.14.14 0 0 1-.14-.1c-.16-.41-.42-.7-.78-.85-1.1-.47-1.62 1-.56 1.43.7.3 1.6.53 1.83 1.54ZM7.02 6.3v1.47a.17.17 0 0 0 .1.15l.07.01h.58c.25-.01.49-.1.66-.28.18-.17.27-.4.27-.63v-.06a.84.84 0 0 0-.29-.62.95.95 0 0 0-.67-.25l-.58.01a.17.17 0 0 0-.12.05c-.03.04-.02.1-.02.15ZM8 10.33c1.26-.17 1.4-1.82.12-2.15a6.33 6.33 0 0 0-1.01 0c-.06 0-.1.03-.1.1v1.65c0 .08.03.14.09.2.2.19.5.26.9.2Z" fill="#231815"/><path d="M12.5 6.25a.43.43 0 0 1-.03-.11c.01-.03.02-.06.05-.08A.22.22 0 0 1 12.6 6a.34.34 0 0 1 .11-.02c.05 0 .09 0 .13.02.56.18.8.5.72.96-.01.05-.04.07-.1.05-.47-.18-.74-.3-.83-.35a.3.3 0 0 1-.15-.3v-.11Zm.54.27a.03.03 0 0 0 .04-.02v-.04c-.08-.09-.2-.14-.37-.16h-.03l-.02.03a.04.04 0 0 0 .03.05l.35.14ZM6.06 6.26a1.5 1.5 0 0 1-.42.42c-.05.04-.09.02-.1-.04a.42.42 0 0 1 .09-.38.54.54 0 0 1 .43 0ZM12.25 6.87a.06.06 0 0 1-.05.04h-.02l-.05-.02a.26.26 0 0 1-.15-.14.3.3 0 0 1 0-.22l.02-.08a.3.3 0 0 1 .14-.17.27.27 0 0 1 .2-.02l.05.02a.06.06 0 0 1 .03.03.06.06 0 0 1 0 .04l-.17.52ZM6.38 7c.05.22.04.4-.04.55a.75.75 0 0 1-.28.26c-.06.03-.1 0-.11-.06-.09-.37-.23-.83.07-1.02.05-.04.1-.03.14.02l.22.25ZM6.3 10.26a.8.8 0 0 1-.52.1c-.89-1.02-1.66-1.9-1.5-3.37.01-.06.04-.08.1-.05.04.03.07.08.09.15.32 1.35 1 2.13 1.82 3.17Z" fill="#447C49"/><path d="m5.35 8.16-.02.14c0 .1-.05.11-.11.03-.29-.38-.29-.8 0-1.25a.1.1 0 0 1 .1-.05.1.1 0 0 1 .08.05c.18.3.27.64.29 1.05 0 .1-.03.12-.1.06l-.1-.08c-.08-.06-.13-.04-.14.05ZM3.88 7.76c.23.28.16.5.3.78.17.33.08.42-.25.27-.37-.17-.48-.5-.34-.98a.18.18 0 0 1 .13-.12.17.17 0 0 1 .16.05ZM6.4 7.92v1.61c-.1-.04-.14-.16-.14-.35 0-.04-.01-.07-.05-.08a.1.1 0 0 0-.07 0 .1.1 0 0 0-.07.1v.09c0 .05-.03.07-.08.05-.14-.05-.22-.13-.24-.24-.06-.47.15-.87.64-1.18ZM4.32 9.56c.04.14.09.2.14.2.35 0 .37.06.04.17-.42.14-.74-.03-.95-.5-.06-.13-.02-.22.13-.26.33-.09.86-.15.98.27.03.1-.01.14-.11.1l-.15-.06c-.08-.03-.1 0-.08.08ZM9.52 14.03c-.2-.03-.4-.03-.6 0l-1.06-.08c-.1-.01-.17-.07-.24-.18a.15.15 0 0 1-.02-.13.1.1 0 0 1 .1-.07c.4.02.91.03 1.54.02 1.7-.03 2.72-.85 3.07-2.46l-.04-.56c.03-.25.13-.4.31-.46.06-.02.1 0 .1.07.36 2.16-1.01 3.78-3.16 3.85ZM5.4 10.6c-.38-.06-.61.02-.85.38l-.02.02H4.5a.05.05 0 0 1-.04-.03c-.27-.86.57-.97 1-.5.11.1.09.15-.06.13ZM13.48 10.17a.06.06 0 0 1 .08 0l.02.04a.4.4 0 0 1 .09.26c0 .04-.02.09-.04.13a.3.3 0 0 1-.2.16.32.32 0 0 1-.13 0 .39.39 0 0 1-.23-.14l-.03-.03a.06.06 0 0 1 .01-.08l.43-.34ZM6.48 10.52c.42.88.46 1.8.12 2.75-.02.06-.06.07-.12.04a.65.65 0 0 1-.24-.25.35.35 0 0 1-.04-.24c.16-.8.06-1.55-.3-2.24.11-.07.3-.09.58-.06ZM5.51 11.84c-.09-.22-.13-.2-.14.04l.04.37c.02.15-.02.17-.14.07-.3-.27-.48-.56-.52-.87-.05-.33.08-.51.41-.55l.17-.02c.3-.03.46.1.49.42l.1 1.36v.01l-.07.1a.09.09 0 0 1-.1.04.08.08 0 0 1-.05-.08c-.04-.37-.1-.67-.19-.9ZM13.06 11.78l-.07.02c-.08.03-.12 0-.1-.09.12-.46.41-.7.89-.72a.06.06 0 0 1 .05.03.06.06 0 0 1 0 .05 3.91 3.91 0 0 1-1.26 1.69c-.01.01-.02 0-.02-.01l-.01-.1v-.02l.58-.76c.08-.1.06-.13-.06-.1Z" fill="#447C49"/></svg>