<!-- by TradingView --><svg xmlns="http://www.w3.org/2000/svg" width="18" height="18"><path fill="#84754E" d="M0 0h18v18H0z"/><path d="M8.9 4.48c-.4.23-.74.43-.86.7a1.17 1.17 0 00-.12.64c.02.17.03.38-.03.5-.06.11-.16.2-.05.46.12.26.62.82.89 1.2.26.39.7.92.88 1.25.2.34.82 1.37 1.28 1.96.46.58 1.6 1.52 1.94 1.8.34.27 1.3 1 1.15 1.01-.15 0-.56-.3-.7-.34a4.71 4.71 0 01-1.06-.65c-.42-.33-.75-.52-.9-.5-.16.02-.18.1-.05.31.14.2.32.67.38.85.06.18.08.37-.1.1-.18-.26-.34-.58-.43-.67l-.3-.33s-.15.12-.18.18c-.02.06.07.18.03.2-.04.03-.13-.03-.2-.06-.09.13.01.34-.06.4-.08.05-.11-.02-.19-.4-.07-.38-.12-.61-.37-.82-.26-.2-.28-.3-.61-.38-.15-.03-.31-.15-.4-.19-.1-.04-.21-.1-.3-.07a3.73 3.73 0 01-.4.13c-.14.03-.34-.07-.42.06-.09.13-.23.45-.45.82-.22.37-.43.54-.48.62-.05.08-.05.16.04.2.1.04.17.04.17.12 0 .07-.1 0-.18.05-.08.04-.25.02-.37.04-.13 0-.3-.08-.43-.04-.13.05-.45.07-.56.1-.1.03-.2-.1.08-.15.28-.06.45-.1.62-.17.17-.07.39.04.52-.2a7.55 7.55 0 00.4-.82c.07-.2.14-.35.14-.5 0-.13-.1-.22-.11-.38-.02-.17.05-.35-.08-.47-.13-.13-.27-.23-.36-.33-.09-.1-.2-.32-.26-.35-.06-.03-.27-.27-.44-.43-.18-.16-.8-.4-.87-1.36-.07-1.11.2-1.88.27-2.06.08-.17-.02-.17-.08-.11-.06.06-.2.13-.26.2s-.04-.1.1-.45.42-.96.84-1.47c.42-.5.67-.54.87-.6.21-.08.52-.08.6-.08.08 0 .13.15.26.13.13-.02.55-.1.86-.06.3.04.57.12.59.22 0 .1-.07.09-.25.19" fill="#fff"/></svg>