<!-- by TradingView --><svg width="18" height="18" viewBox="0 0 18 18" xmlns="http://www.w3.org/2000/svg"><path fill="url(#aslbo4pxl)" d="M0 0h18v18H0z"/><path fill-rule="evenodd" d="M12.5 9c.5-.5 1-1.13 1-2 0-2-1-3-2.7-3H5v10h5.5c3 0 3.5-1.86 3.5-3s-1-2-1.5-2ZM10 8c.71 0 1.49-.2 1.5-1 0-.93-.77-.99-1.5-1H7v2h3Zm0 2H7v2h3c.89 0 1.99-.01 2-1 0-.91-1.24-.99-2-1Z" fill="#fff"/><defs><linearGradient id="aslbo4pxl" x1="2.89" y1="3.21" x2="14.3" y2="15.43" gradientUnits="userSpaceOnUse"><stop stop-color="#0081B9"/><stop offset="1" stop-color="#009DE0"/></linearGradient></defs></svg>