<!-- by TradingView --><svg width="18" height="18" viewBox="0 0 18 18" xmlns="http://www.w3.org/2000/svg"><path fill="#F0F3FA" d="M0 0h18v18H0z"/><path d="M7.88 7h2.17c-.23.35-.74 1.03-1.04 1.35-.3.32-1.03.31-1.34.32H5.95c-.82 0-1.59.78-1.87 1h3.6a2.58 2.58 0 0 0 1.88-.91l.23.1L7.96 11H3.78C2.44 11 2 10.2 2 9.95c0-.36.28-.84 2.42-1.91C6.1 7.21 7.12 7 7.88 7Z" fill="url(#ah3yf0c5l)"/><path d="M13.05 7h-2.86c.2.4.13.76 0 .97l-.98 1.34A6.98 6.98 0 0 1 7.18 11h1.77c1.28 0 2.37-1.46 2.65-1.99h.8L11.2 11h1.2a2.1 2.1 0 0 0 1.48-.7L16 7h-2.12l-.72 1h-.76l.65-1Z" fill="url(#bh3yf0c5l)"/><defs><linearGradient id="ah3yf0c5l" x1="7.14" y1="9" x2="8.5" y2="10.57" gradientUnits="userSpaceOnUse"><stop stop-color="#E60012"/><stop offset="1" stop-color="#B6171E"/></linearGradient><linearGradient id="bh3yf0c5l" x1="11.59" y1="7" x2="11.59" y2="11" gradientUnits="userSpaceOnUse"><stop stop-color="#A3A4A4"/><stop offset=".17" stop-color="#D9D9DA"/><stop offset=".58" stop-color="#9C9D9D"/><stop offset="1" stop-color="#4C4949"/></linearGradient></defs></svg>