<!-- by TradingView --><svg width="18" height="18" viewBox="0 0 18 18" xmlns="http://www.w3.org/2000/svg"><path fill="#F0F3FA" d="M0 0h18v18H0z"/><path d="m7.38 3 4.18 4.22-1.54 1.56-4.18-4.22L7.38 3ZM5.07 6.18 3.4 7.85l.98 1 1.66-1.68-.98-1ZM3 10.68l4.18-4.21 1.55 1.55-4.19 4.22L3 10.7Zm8.85-5.6-1.66-1.67-.98.99 1.66 1.67.98-.99ZM15 7.31l-4.18 4.22-1.55-1.55 4.19-4.22L15 7.3Zm-2.07 4.51 1.66-1.67-.98-1-1.66 1.68.98 1ZM10.63 15l-4.2-4.22 1.55-1.56 4.18 4.22L10.62 15Zm-4.48-2.08 1.66 1.67.98-.99-1.66-1.67-.98.99Z" fill="#B8282E"/></svg>