<!-- by TradingView --><svg width="18" height="18" viewBox="0 0 18 18" xmlns="http://www.w3.org/2000/svg"><path fill="#F0F3FA" d="M0 0h18v18H0z"/><path d="M14 8.87c0 .45-.06.88-.18 1.3a4.18 4.18 0 0 1-3.47 2.58c-.87 0-1.97-.43-1.97-1.34 0-.8.38-.93 1.88-1.38l.64-.2a6.05 6.05 0 0 0 2.97-2.06c.09.35.13.72.13 1.1Z" fill="#15368E"/><path d="M4 8.87c0 1.74.94 3.27 2.36 4.13-.39-.35-.8-.9-.8-1.6 0-3.3 3.26-5.42 6.25-5.4.63 0 1.1.2 1.44.3A5.03 5.03 0 0 0 9 4C6.24 4 4 6.18 4 8.87Z" fill="#15368E"/><path d="M11.48 6.76c.17.08.33.24.33.52 0 .55-.57 2.34-2.75 2.74-.37.06-.37-.1-.37-.25 0-.14.83-2.42 2.25-3 .17-.06.37-.08.54 0Z" fill="#15368E"/></svg>