<!-- by TradingView --><svg width="18" height="18" viewBox="0 0 18 18" xmlns="http://www.w3.org/2000/svg"><path fill="#F0F3FA" d="M0 0h18v18H0z"/><path d="M6.53 14.45c-.02.02-.03.03-.02.01a6 6 0 0 1 4.94-10.94v.02h-.01c-.6-.18-1-.29-1.2-.33a5.02 5.02 0 0 0-1.63-.05 3.44 3.44 0 0 0-2.56 2.96 3.56 3.56 0 0 0 .68 2.4A3.35 3.35 0 0 0 8.78 9.8c.4.09.72.24.96.47.26.24.43.57.52.98.01.03 0 .05-.03.05-.13.04-.28.07-.44.09l-.46.01a4.02 4.02 0 0 1-2.73-.99 4.12 4.12 0 0 1-1.46-3.68A4.15 4.15 0 0 1 7.3 3.52l-.01-.01h-.01A4.22 4.22 0 0 0 5.46 5.2a4.58 4.58 0 0 0-.58 3.01 4.5 4.5 0 0 0 5.36 3.63v.03a1.9 1.9 0 0 1-.7 1.07 1.64 1.64 0 0 1-1.21.3 4.94 4.94 0 0 1-2.91-1.53 5.11 5.11 0 0 1-.9-5.83 5.16 5.16 0 0 1 2.09-2.22l-.01-.01a5.38 5.38 0 0 0-1.8 7.97c.05.08.11.15.18.2l.1.11.05.06c.52.6 1.13 1.05 1.83 1.35.02 0 .02.02.01.04l-.45.96c-.02.04-.02.08 0 .1Z" fill="#81B203"/><path d="M6.51 14.46c0 .02 0 .01.01-.01.43.15.82.26 1.19.34.42.08.82.12 1.2.1.3 0 .64-.08 1-.24a3.43 3.43 0 0 0 1.98-3.8 3.47 3.47 0 0 0-2.76-2.7c-.75-.15-1.22-.63-1.4-1.44 0-.02 0-.03.03-.04a4.26 4.26 0 0 1 4.17 1.41 4.18 4.18 0 0 1 .36 4.84 4.07 4.07 0 0 1-2.03 1.74l.01.01A4.34 4.34 0 0 0 13 11.75a4.38 4.38 0 0 0-1.64-4.84 4.4 4.4 0 0 0-3.55-.76l-.04-.01a.04.04 0 0 1-.01-.04 1.73 1.73 0 0 1 2.08-1.32 5.08 5.08 0 0 1 4.11 4.32 5.06 5.06 0 0 1-.55 3.15 5.02 5.02 0 0 1-2.34 2.24h.02a5.38 5.38 0 0 0 0-9.83c-.04-.02-.05-.05-.03-.08l.47-1c0-.03.02-.03.04-.02a5.96 5.96 0 0 1 3.4 6.16 5.99 5.99 0 0 1-5.33 5.23c-.59.06-1.06.07-1.41.02a9.6 9.6 0 0 1-.81-.17 4.29 4.29 0 0 1-.89-.34Z" fill="#161B62"/></svg>