<!-- by TradingView --><svg width="18" height="18" viewBox="0 0 18 18" xmlns="http://www.w3.org/2000/svg"><path fill="#F0F3FA" d="M0 0h18v18H0z"/><path d="m8.55 4 .07.8c.01.08-.04.16-.14.26-.06.05-.16.08-.3.08h-.04c-.32 0-.55.02-.68.07a.84.84 0 0 0-.18.12c-.1.09-.2.14-.3.16l.16-.21.72-.39.16-.1c.03-.03.06-.02.08 0 .07.1.17.14.32.12.04 0 .07-.02.07-.06.03-.13 0-.23-.1-.3l-1.13-.47L8.55 4Z" fill="#533218"/><path d="m9.1 4.16-.01.05c-.09.06-.14.12-.15.16-.04.16-.05.39-.01.67 0 .03.03.06.07.07.17.03.3-.03.37-.2.1-.17.34-.22.7-.15a.9.9 0 0 1 .35.17c.34.25.72.47 1.16.65.04.02.04.04 0 .06l-1.03.6c-.05-.12-.16-.18-.32-.2a3.4 3.4 0 0 0-1.13.09c-.12.11-.18.1-.18-.05l-.02-.72c0-.1-.06-.11-.2-.07l-.02.01c-.1.04-.15.1-.15.17l-.02.42c.02.08 0 .14-.06.2-.44-.17-.9-.27-1.38-.3l-.54-.09c-.05 0-.06-.03-.02-.06.12-.1.28-.15.48-.15.1-.02.2-.07.3-.16.06-.05.12-.1.17-.12a1.74 1.74 0 0 1 .72-.07c.14 0 .24-.03.3-.08.1-.1.15-.18.14-.27L8.55 4c.09.02.16.06.21.1a.6.6 0 0 0 .14.1c.07.01.13 0 .2-.04Z" fill="#BB7534"/><path d="m10.55 6.4-.03-.01c-.04-.02-.05-.04-.03-.06l.06-.1 1.03-.6c.04-.01.04-.03 0-.05a5.5 5.5 0 0 1-1.16-.65.9.9 0 0 0-.35-.17c-.36-.07-.6-.02-.7.16v-.6c0-.08-.06-.12-.17-.12l-.12.01.01-.05c.09-.1.16-.14.23-.15 1.21-.06 2.31.1 3.3.52.34.14.45.33.34.57-.1.2-.3.37-.59.5-.4.19-.88.38-1.46.58a.93.93 0 0 0-.21.13l-.15.1Z" fill="#533218"/><path d="m7.26 4.08 1.13.46v.01c.1.07.13.17.1.3 0 .04-.03.06-.07.06-.15.02-.25-.02-.32-.11-.02-.03-.05-.04-.08-.01l-.16.1-.23-.57c-.02-.05-.07-.08-.13-.1a.2.2 0 0 0-.17.04c-.3.22-.51.4-.64.54-.14.16-.19.31-.14.47 0 .03 0 .05-.03.08l-.04.04c0 .04 0 .07.05.09.03.02.07.02.11 0l.5-.2-.15.21c-.2 0-.36.05-.48.15-.04.03-.03.05.03.06l.53.09.32.55c.07.12.08.2.02.24-.02.01-.04.02-.05.01a2.96 2.96 0 0 0-.13-.32c-.23-.2-.43-.32-.57-.36-.5-.12-.93-.28-1.3-.48a.79.79 0 0 1-.33-.37c-.05-.1-.03-.22.07-.35a.7.7 0 0 1 .32-.24c.5-.18 1.11-.3 1.84-.4ZM9.09 4.21h.11c.11-.01.17.03.17.11v.6c-.08.16-.2.22-.37.19-.04-.01-.07-.04-.07-.07-.04-.28-.03-.5.01-.67.01-.05.06-.1.15-.16Z" fill="#351A0B"/><path d="m7.86 4.9-.72.38-.5.2a.12.12 0 0 1-.11 0c-.04-.02-.06-.05-.05-.09l.04-.04c.03-.03.04-.05.03-.08-.05-.16 0-.31.14-.47.13-.14.34-.32.64-.54a.2.2 0 0 1 .17-.03c.06 0 .1.04.12.09l.24.57Z" fill="#1F1612"/><path d="m10.93 5.53-1.5-.01c0-.3.19-.46.56-.47.2 0 .38.04.54.14.16.09.3.2.4.34Z" fill="#D48E53"/><path d="m10.55 6.23-.06.1c-.02.02 0 .04.03.06l.03.01-.47 1.4a.19.19 0 0 0-.04.15c-.23.09-.42.2-.6.33-.17.13-.33.13-.48-.01-.06-.06-.05-.1.03-.13a.98.98 0 0 0 .34-.21.32.32 0 0 0 .1-.08c.04-.03.02-.05-.03-.05a.7.7 0 0 1-.38-.13c-.04-.02-.06-.05-.06-.08l-.02-.62a.44.44 0 0 1 0-.31c0-.04 0-.06-.04-.08l-.21-.11c.14-.2.08-.38-.18-.58l.02-.42c0-.07.05-.13.16-.17h.01c.14-.05.2-.03.2.06l.02.72c0 .15.06.16.18.05.02-.02.08-.04.2-.06.37-.05.68-.06.93-.03.16.02.27.08.32.2Z" fill="#E4AF7D"/><path d="m10.93 5.53.24.12c.03.01.04.03.03.05 0 .03-.02.04-.05.05a9.4 9.4 0 0 1-1.64.14c-.05 0-.07-.01-.07-.05v-.32h1.49Z" fill="#E4AF7D"/><path d="M8.45 6.08c-.13.03-.25.04-.36.03-.08-.01-.13.02-.16.07l-.01.04c-.03.06 0 .1.08.11l.69.14.2.1c.04.03.06.05.04.09-.03.1-.03.2 0 .31l-.05.47c0 .03-.03.06-.08.07a.45.45 0 0 1-.25-.05c0-.2.04-.4.13-.58.02-.03 0-.05-.03-.07l-.23-.1c-.01-.13-.14-.16-.38-.1-.04.02-.06.03-.06.06 0 .04.02.05.07.05h.37c.01.04-.04.07-.15.08-.1-.02-.17.01-.2.1a.16.16 0 0 1-.08.08c-.13.06-.18.15-.16.25.05.18.07.34.06.48 0 .03.02.06.05.09.27.21.55.45.84.71.14.13.14.23 0 .3l-.71-.48a1.6 1.6 0 0 1-.34-.6l-.15-.43a.25.25 0 0 0-.06-.09.92.92 0 0 1-.29-.94 2.96 2.96 0 0 1 .13.32l.05-.01c.06-.04.05-.12-.02-.24l-.32-.55c.48.03.94.13 1.38.3Z" fill="#B66A2F"/><path d="M8.69 6.47 8 6.33c-.08-.01-.11-.05-.09-.1l.02-.05c.03-.05.08-.08.16-.07.11 0 .23 0 .36-.03a.19.19 0 0 0 .06-.19c.26.2.32.39.18.58Z" fill="#D48E53"/><path d="m8.42 6.71-.37.01c-.05 0-.07-.02-.07-.05 0-.03.02-.04.06-.05.24-.07.37-.04.38.1ZM9.47 6.71v-.05c.01-.04.04-.06.1-.06h.24c.06 0 .06.02.01.05a.88.88 0 0 1-.3.1c-.04 0-.06 0-.05-.04Z" fill="#533218"/><path d="M9.19 6.67c0 .06.05.16.15.3l-.01.04h-.04a.64.64 0 0 1-.22-.34c-.01-.04.01-.06.07-.05.03.01.05.03.05.05Z" fill="#D48E53"/><path d="M8.55 7.46c-.3.1-.49 0-.56-.26-.01-.04 0-.08.05-.12.05-.03.1-.04.16-.02.11.03.21.04.3.03l.02-.03c0-.01 0-.02-.03-.03a.55.55 0 0 0-.24 0 .12.12 0 0 1-.11-.02C8.1 7 8.1 6.96 8.1 6.93c.03-.05.08-.1.16-.13.1 0 .16-.04.15-.09l.23.1c.04.02.05.04.03.07-.09.18-.13.37-.13.58Z" fill="#E4AF7D"/><path d="M8.27 6.8c-.08.03-.13.08-.16.13-.01.03 0 .06.03.08.03.03.07.03.1.02a.55.55 0 0 1 .25 0c.02 0 .03.02.03.03l-.03.03a.7.7 0 0 1-.29-.03.19.19 0 0 0-.16.02c-.05.04-.06.08-.05.12.07.27.26.35.56.26.1.05.18.06.25.05.05-.01.07-.04.08-.07l.06-.47.02.62c0 .03.02.06.06.08a.7.7 0 0 0 .38.13c.05 0 .07.02.03.05a.32.32 0 0 1-.1.08.07.07 0 0 0-.04-.04c-.22-.07-.46-.1-.7-.07-.05 0-.05.01 0 .03.22.07.47.1.74.08a.98.98 0 0 1-.34.2c-.08.04-.1.08-.03.14.15.14.31.14.48.01.18-.13.37-.24.6-.33-.1.36-.33.65-.7.86-.04.02-.04.04-.02.06l.04.02-.03.04c-.22-.02-.4-.06-.55-.12.14-.07.14-.17 0-.3-.29-.26-.57-.5-.84-.71a.11.11 0 0 1-.05-.1c0-.13-.02-.29-.06-.47-.02-.1.03-.19.16-.25a.16.16 0 0 0 .07-.08c.04-.09.1-.12.21-.1Z" fill="#D48E53"/><path d="M8.07 8.33c-.15.15-.3.22-.44.23l-.84-.31c.3-.14.58-.25.84-.34.06-.02.1-.04.1-.07v-.12c.08.25.2.45.34.6Z" fill="#858998"/><path d="M9.33 7.93c-.27.02-.52-.01-.75-.08-.04-.02-.04-.03 0-.03.25-.02.49 0 .71.07.02 0 .03.02.04.04Z" fill="#B66A2F"/><path d="M10.08 7.8v.08c0 .04.02.06.07.07.7.1 1.31.3 1.85.61.11.06.2.15.3.26l.02.1-.08.37h-.36l-.6-.02-1.42.06c-.08 0-.13-.03-.13-.1 0-.15-.13-.26-.37-.34a.16.16 0 0 1-.04-.02c-.02-.02-.02-.04.01-.06.38-.21.61-.5.7-.86 0-.05.01-.1.05-.15ZM6.79 8.25l.84.31.08.05c.22.12.39.23.5.34.17.18.38.32.63.42a.98.98 0 0 1 .38.18c.14.12.26.2.33.23.13.05.26.06.39.03.1-.03.2-.03.3.01.07.05.1.1.08.16-.01.03-.05.07-.12.11l-.32.25c-.1.08-.11.17-.03.25l-.33.18c-.23.13-.43.2-.6.22a3.9 3.9 0 0 0-.49-.18.73.73 0 0 1-.46-.42.32.32 0 0 0 .14-.1c.02-.04.01-.06-.02-.08l-.62-.32a.27.27 0 0 0-.13-.04l-.57.02h-.16c-.27.02-.44-.02-.5-.12l-.26-.34a.15.15 0 0 1-.03-.1.7.7 0 0 0-.24-.55c.29-.25.7-.42 1.2-.51Z" fill="#E4E4EC"/><path d="m8.07 8.33.71.48c.15.06.33.1.55.12.11.03.16.14.14.32 0 .04-.03.07-.07.1a.18.18 0 0 1-.14 0 .6.6 0 0 1-.34-.3c-.01-.02-.03-.03-.06-.03s-.06 0-.07.03c-.09.09-.07.2.05.32-.25-.1-.46-.24-.64-.42a2.15 2.15 0 0 0-.57-.39c.15 0 .3-.08.44-.23ZM5.58 8.76a.7.7 0 0 1 .24.56c0 .03 0 .06.03.1l.26.33c-.1.07-.18.09-.24.06a.6.6 0 0 1-.27-.08.2.2 0 0 1-.08-.12.38.38 0 0 0-.08-.13l.14-.72Z" fill="#CBC5C8"/><path d="M9.36 8.9c.24.07.36.18.37.34 0 .06.05.09.13.09l1.41-.06c-.05.14-.03.27.07.37.06.05.13.08.21.09.1 0 .17-.02.23-.06.09-.07.12-.2.1-.38h.36c.1.01.16.03.2.06.04.02.06.05.05.08l-.12.58c0-.11-.08-.18-.21-.2-.05-.02-.09 0-.12.02-.17.13-.21.3-.13.5-.03-.09-.1-.15-.23-.18-.49-.16-.83-.26-1.02-.3a2.6 2.6 0 0 1-.39-.16 2.3 2.3 0 0 0-.44-.17.15.15 0 0 0-.12.03.24.24 0 0 1-.09.03l-.17-.01a1.76 1.76 0 0 0-.26-.04.98.98 0 0 0-.35-.16c-.12-.13-.14-.23-.05-.32.01-.02.04-.03.07-.03.03 0 .05.01.06.04.09.15.2.24.34.29.04.02.1.01.14 0 .04-.03.07-.06.07-.1.02-.18-.03-.29-.14-.32l.03-.04Z" fill="#1D2A65"/><path d="M6.35 9.36c.15.14.3.24.33.22.02-.01-.09-.14-.24-.28-.16-.14-.31-.24-.34-.23-.02.02.09.15.25.29Z" fill="#CBC5C8"/><path d="M11.88 9.29c.02.19-.01.31-.1.38a.34.34 0 0 1-.23.06.32.32 0 0 1-.2-.1c-.1-.1-.13-.22-.08-.36l.61.02Z" fill="#1F1612"/><path d="m5.44 9.48.08.13c.01.06.04.1.08.12a.6.6 0 0 0 .28.08c.09.08.14.2.14.35-.16.07-.14.15.06.24a.5.5 0 0 0 .48-.02c.12-.07.2-.23.21-.48a.7.7 0 0 0 0-.03l.57-.02c.04 0 .09.01.13.04l.62.32c.03.02.04.04.02.08a.32.32 0 0 1-.14.1.33.33 0 0 0-.1.04c.03-.06 0-.1-.09-.14-.37-.1-.67-.04-.88.2a.14.14 0 0 0-.04.1c0 .11-.04.23-.12.34-.1.02-.25.03-.43 0a2.34 2.34 0 0 0-.62-.2c-.12-.03-.19-.1-.18-.2 0-.25-.07-.5-.23-.76-.04-.07-.06-.13-.04-.17.02-.07.09-.11.2-.12Z" fill="#1D2A65"/><path d="M11.91 10.33a.22.22 0 0 1-.12.05 1.5 1.5 0 0 1-.62-.18.15.15 0 0 0-.12-.01l-.23.06-.15-.25a.2.2 0 0 0-.09-.07 1.1 1.1 0 0 0-.34-.1.47.47 0 0 0-.3-.02.54.54 0 0 1-.39-.03 1.88 1.88 0 0 1-.36-.25c.09 0 .17.02.26.04.07.01.13.02.17.01l.09-.03a.15.15 0 0 1 .12-.03c.1.03.25.08.44.17.17.08.3.13.39.15l1.02.3c.13.04.2.1.23.19Z" fill="#858998"/><path d="M6.1 9.75c.07.1.24.14.51.11-.04.05-.05.12-.05.2 0 .1-.04.16-.13.22a.25.25 0 0 1-.28 0 .5.5 0 0 1-.13-.12c0-.15-.05-.27-.14-.35.05.03.12 0 .23-.06Z" fill="#197567"/><path d="m12.37 10.01-.02.22c0 .04-.03.07-.07.08a.71.71 0 0 1-.37.01c-.08-.2-.04-.36.13-.5a.14.14 0 0 1 .12-.02c.13.03.2.1.21.21Z" fill="#351A0B"/><path d="M10.82 10.25a.38.38 0 0 1-.24.2c.06.03.07.01.05-.05-.01-.03-.04-.04-.08-.03l-.7.22c-.08-.08-.07-.17.03-.25.1-.1.2-.17.32-.25.07-.04.1-.08.12-.11.01-.06-.01-.11-.08-.16.13.02.24.06.34.1a.2.2 0 0 1 .09.08l.15.25Z" fill="#CBC5C8"/><path d="M6.77 9.87v.03c-.02.25-.09.4-.2.48a.5.5 0 0 1-.49.02c-.2-.1-.22-.17-.06-.24a.5.5 0 0 0 .13.12c.1.06.2.06.28 0 .1-.06.13-.13.13-.21 0-.1.01-.16.05-.2h.16Z" fill="#1F1612"/><path d="M11.8 10.38c-.08.35-.21.65-.4.89a.92.92 0 0 1-.5.34c-.41.04-.65-.05-.73-.29.23-.17.36-.46.41-.86.12-.04.2-.1.24-.2l.23-.07c.04-.02.08-.01.12 0 .2.12.4.18.62.2Z" fill="#E4E4EC"/><path d="m7.87 10.43-.24.26-.24.1c-.17.09-.34.13-.5.14h-.15c.08-.11.12-.23.12-.35 0-.03.01-.06.04-.1.21-.23.5-.3.88-.19.09.03.12.08.1.14Z" fill="#1F1612"/><path d="M10.58 10.46c-.05.4-.18.69-.4.86l-.53-.27-.02-.02c-.03-.04-.03-.06.02-.06s.07-.02.05-.05a.44.44 0 0 0-.18-.15l.33-.18.7-.22c.04-.01.07 0 .08.03.02.06 0 .08-.05.06Z" fill="#D48E53"/><path d="M7.97 10.39c.09.2.24.35.46.42.24.08.4.13.49.18a.82.82 0 0 0-.24.05c-.23-.14-.44-.19-.63-.15-.17-.19-.25-.22-.23-.09a.3.3 0 0 0-.19-.11l.24-.26a.33.33 0 0 1 .1-.04Z" fill="#858998"/><path d="M8.82 10.38c.02-.02.03-.02.05 0l.23.14c.12.08.16.14.12.17l-.03.03c-.04.04-.12.01-.24-.06l-.23-.16c-.01 0-.02-.02 0-.03l.1-.1Z" fill="#BC9F8A"/><path d="M7.63 10.69a.3.3 0 0 1 .19.11c0 .15-.03.31-.1.47a1.5 1.5 0 0 0-.2-.05c-.2-.03-.3-.1-.34-.22-.02-.03-.05-.06-.1-.07a.47.47 0 0 0-.19 0c.16 0 .33-.05.5-.14l.24-.1Z" fill="#D48E53"/><path d="M8.05 10.9c.1.17.3.21.63.14a.82.82 0 0 1 .24-.05c.17-.02.37-.1.6-.22.09.05.15.1.18.15.02.03 0 .05-.05.05s-.05.02-.02.06c0 .01 0 .02.02.02l.52.27c.08.24.32.33.72.29-.13.06-.2.13-.24.2h-.2a.2.2 0 0 0 .06-.05c.03-.04.01-.06-.05-.06a13 13 0 0 1-1.2 0c-.38-.01-.76.06-1.16.22h-.41l.04-.65c.07-.16.1-.32.09-.47-.02-.13.06-.1.23.1Z" fill="#B66A2F"/><path d="M8.68 11.04c-.33.07-.54.03-.63-.15.19-.04.4.01.63.15ZM6.9 10.93l-.18.1c-.1.06-.11.12-.06.2l.58.92-.02.01a.68.68 0 0 1-.33-.25 6.2 6.2 0 0 1-.58-.97c.18.02.32.01.43-.01h.15Z" fill="#CBC5C8"/><path d="m7.73 11.27-.04.65c-.11.1-.26.17-.45.23l-.58-.92c-.05-.08-.03-.14.06-.2l.17-.1a.47.47 0 0 1 .2 0c.04.01.07.04.09.07.03.12.15.19.34.22l.2.05Z" fill="#E4E4EC"/><path d="m10.45 11.8-.36.22c-.05.03-.08.02-.1-.01l-.08-.11c-.03-.04-.07-.05-.12-.05-.25.03-.53.03-.83 0-.24-.01-.44.03-.6.12l-.26-.05c.4-.16.78-.23 1.16-.22.52.02.92.02 1.2 0 .06 0 .07.02.05.06a.2.2 0 0 1-.06.05Z" fill="#533218"/><path d="M10.45 11.8c.06.02.13.02.2.01l-.79 1.87c-.04 0-.07-.02-.08-.03-.02-.02-.01-.04 0-.06a.38.38 0 0 1 .07-.06c.03-.03.02-.05-.01-.07a.21.21 0 0 0-.1-.02.21.21 0 0 0-.11.04.33.33 0 0 1-.13.05c-.11-.07-.17-.14-.16-.23 0-.04-.02-.06-.07-.06H9.2a.22.22 0 0 1-.13-.04.6.6 0 0 0-.23-.08c-.05-.01-.09 0-.1.04-.04.1-.16.13-.37.07-.29-.09-.45-.17-.49-.25-.02-.05-.02-.09 0-.11a.53.53 0 0 1 .12-.17c.03-.04.04-.07.02-.1l-.17-.28c-.01-.03 0-.06.02-.09a.48.48 0 0 1 .22-.1c.36.03.68.14.96.33.03.02.06.02.09.02.03-.01.05-.03.06-.05.06-.14.2-.22.41-.23.03 0 .06-.02.1-.04l.07-.07c-.06-.1-.16-.12-.28-.08-.38.14-.75.13-1.13-.04.16-.1.36-.13.6-.12.3.03.58.03.83 0 .05 0 .1.01.12.05l.08.1c.02.04.05.05.1.02l.36-.21Z" fill="#BC9F8A"/><path d="M7.68 11.92h.36c-.02.06-.01.13.04.21a.47.47 0 0 0-.22.1c-.03.03-.04.06-.02.09l.17.28c.02.03.01.06-.02.1-.05.04-.1.1-.13.17-.01.02 0 .06.01.1.04.09.2.17.5.26.2.06.32.04.36-.07.01-.04.05-.05.1-.04.11.02.19.04.23.08.04.02.08.04.13.04h.08c.05 0 .07.02.07.06 0 .09.05.16.16.23a.44.44 0 0 0-.1.32.2.2 0 0 1 0 .1.57.57 0 0 0-.04.32c-.05.05-.07.1-.05.15.09.2.03.36-.16.48l.02-1.3c0-.04.02-.07.06-.1l.03-.02c.02-.01.03-.03.03-.05-.01-.02-.03-.03-.05-.03a.68.68 0 0 0-.55.14.22.22 0 0 0-.11-.08 2.9 2.9 0 0 1-.14-.05c-.1-.04-.16-.05-.2-.02l-.07.03c-.05.02-.05.04-.03.07.02.03.07.06.13.08h-.04l-.02.01c0 .03 0 .04.03.06H8.2c-.03.01-.05.02-.05.04l-.02.05-.31-.7a1.76 1.76 0 0 0-.29-.44 3.5 3.5 0 0 1-.31-.43c.04-.02.05-.02.02 0 .19-.07.34-.15.44-.24Z" fill="#6F553E"/><path d="m8.1 11.92.26.05c.38.17.75.18 1.13.04.12-.04.21-.02.28.08l-.07.07a.21.21 0 0 1-.1.04c-.21.01-.35.09-.4.23l-.07.05c-.03 0-.06 0-.09-.02-.28-.19-.6-.3-.96-.33-.05-.08-.06-.15-.04-.2h.06Z" fill="#1F1612"/><path d="M9.76 13.36c.12-.05.2-.13.17-.16-.03-.04-.15-.03-.27.02-.13.05-.2.13-.17.16.03.04.15.03.27-.02Z" fill="#E4E4EC"/><path d="M8.7 13.54c-.2.03-.34-.02-.46-.15.04-.03.1-.03.2.02l.14.05c.05.02.1.05.11.08Z" fill="#BC9F8A"/><path d="M9.16 14.9c-.05.17-.22.13-.49-.13a2.4 2.4 0 0 1-.54-1.04l.02-.05c0-.02.02-.03.05-.03h.04c.13.08.25.11.35.09.05-.01.05-.02.01-.04l-.33-.13c-.06-.02-.1-.05-.13-.08-.02-.03-.02-.05.03-.07l.07-.03c.12.13.27.18.46.15a.68.68 0 0 1 .54-.14c.02 0 .04.01.05.03 0 .02 0 .04-.02.05l-.04.03c-.04.02-.06.05-.06.08l-.01 1.3Z" fill="#533218"/><path d="m9.86 13.68-.14.41c-.02.08-.07.09-.12.01-.03-.03-.07-.04-.12-.04-.05 0-.07.03-.08.06 0 .06-.01.1-.04.15-.02-.1 0-.21.03-.32a.2.2 0 0 0 .01-.1.44.44 0 0 1 .1-.32c.04 0 .08-.02.13-.05a.21.21 0 0 1 .1-.04c.04 0 .08 0 .1.02.04.02.05.04.02.07a.38.38 0 0 0-.06.06c-.02.02-.03.04-.01.06.01.01.04.03.08.03Z" fill="#CBC5C8"/><path d="m8.27 13.57.33.13c.04.02.04.03 0 .04-.11.02-.23-.01-.36-.1-.02-.02-.03-.03-.03-.06l.02-.02h.04Z" fill="#858998"/><path d="m8.43 13.9-.08-.01c-.05 0-.07-.02-.06-.05l.03-.03h.03l.36.08c.08.02.08.04 0 .07a.22.22 0 0 1-.2-.03.21.21 0 0 0-.08-.03Z" fill="#6F553E"/></svg>