<!-- by TradingView --><svg width="18" height="18" viewBox="0 0 18 18" xmlns="http://www.w3.org/2000/svg"><path fill="url(#a)" d="M0 0h18v18H0z"/><path fill-rule="evenodd" d="M12.33 5.06a.91.91 0 0 0-.18-.04c-.29-.02-.59.04-.9.19a136.16 136.16 0 0 1-.87.37h-.02a7 7 0 0 1 .17-.85c.04-.18 0-.32-.14-.43a1.5 1.5 0 0 0-.7-.29.82.82 0 0 0-.38.03c-.15.04-.22.13-.22.25 0 .07.01.14.04.2l.15.32a2.9 2.9 0 0 1 .16 1.07l-1 .24a8.38 8.38 0 0 0-.82.24.4.4 0 0 0-.15.11c-.05.06-.04.11 0 .16.08.07.19.11.34.13.22.04.45.04.68.01a8.7 8.7 0 0 0 .94-.16 23.22 23.22 0 0 1-.1.98l-.23.1h-.02a.98.98 0 0 0-.5-.05c-.11.02-.19.06-.23.14a.3.3 0 0 0 .01.3c.12.15.19.29.22.42l.13.64.38 2.17v.03l.07.23c.06.13.14.23.25.32.1.07.19.08.29.02.1-.06.16-.17.2-.33l.02-.01 1.9-.49h.03l.29.2c.05.03.12.06.18.07.06.02.13 0 .2-.03a.42.42 0 0 0 .15-.14c.07-.1.1-.2.09-.31a11.8 11.8 0 0 0-.23-1.51 10.4 10.4 0 0 1-.18-1.4 11.6 11.6 0 0 0 .07-.66c0-.1-.03-.17-.08-.22a.59.59 0 0 0-.15-.12 1.34 1.34 0 0 0-.68-.16.88.88 0 0 0-.25.05 19.1 19.1 0 0 0-1.02.37 16.5 16.5 0 0 1 .05-.83 35.25 35.25 0 0 0 1.87-.52l.26-.1a.25.25 0 0 0 .1-.09.38.38 0 0 0 .07-.27.48.48 0 0 0-.1-.25.32.32 0 0 0-.16-.1Zm-1.12 4.72c.03.05.01.1-.04.14a.54.54 0 0 1-.19.1 1580.38 1580.38 0 0 1-1.25.39l.1.6h.02a78.12 78.12 0 0 1 1.49-.5c.1-.02.2-.03.3-.02l.01-.02c-.04-.37-.1-.73-.16-1.1a62.84 62.84 0 0 0-.33-1.59.24.24 0 0 0-.14-.1.35.35 0 0 0-.15 0c-.07 0-.12.02-.16.03a20.2 20.2 0 0 0-1.4.46l.1.48s0 .01 0 0a323.52 323.52 0 0 1 .81-.27c.12-.03.24-.04.35-.05.1 0 .18.01.25.04.09.04.15.09.2.16.03.06.02.12-.03.18a.34.34 0 0 1-.17.1 231.21 231.21 0 0 1-1.31.38l.1.6.02.01a9.55 9.55 0 0 1 1.03-.28.6.6 0 0 1 .33.04c.1.05.18.12.22.22ZM6.8 9.4c.2 1.38.37 2.77.53 4.16.01.1 0 .2-.03.27a.26.26 0 0 1-.21.16.35.35 0 0 1-.2-.02.62.62 0 0 1-.16-.12 3.51 3.51 0 0 1-.25-.28 1.18 1.18 0 0 1-.27-.63l-.01-.3c-.06-1.09-.1-1.72-.1-1.92a9.83 9.83 0 0 0-.32-1.85 26.03 26.03 0 0 1-1 1.26c-.14.15-.3.26-.46.35a.57.57 0 0 1-.18.05c-.09.01-.13-.01-.13-.07 0-.06.02-.12.05-.19l.13-.26.5-.87a11.88 11.88 0 0 0 .62-1.26c.2-.49.34-.98.44-1.48a4.29 4.29 0 0 0 .07-1.27c0-.12.05-.2.16-.25.1-.03.2-.03.33-.01.2.03.36.08.51.17.28.17.4.38.33.65a1.18 1.18 0 0 1-.1.26A3001.67 3001.67 0 0 0 6.26 8c.13.1.23.21.3.31.04.05.06.11.08.2.04.16.08.43.14.78l.02.11Zm1.96 2.99h-.01l-.38-2.55a.7.7 0 0 0-.13-.31.57.57 0 0 0-.27-.2.93.93 0 0 0-.64-.02c-.11.04-.18.1-.2.21 0 .04 0 .06.02.09l.04.08.01.01.17.23c.08.1.13.16.15.21.05.1.08.18.08.24a20.3 20.3 0 0 1 .21 2.09c0 .11-.01.21-.03.3a.6.6 0 0 0-.03.15c0 .07.02.13.04.16.08.16.25.27.5.32.05 0 .11 0 .19-.02l.25-.08a34.03 34.03 0 0 1 2.28-.7 35.28 35.28 0 0 1 3.74-.57.4.4 0 0 0 .2-.13.28.28 0 0 0 .06-.22c-.03-.17-.14-.3-.34-.4a1.2 1.2 0 0 0-.9-.1l-.17.06-4.84 1.15Z" fill="#fff"/><defs><linearGradient id="a" x1="9" y1="0" x2="9" y2="18" gradientUnits="userSpaceOnUse"><stop stop-color="#F44433"/><stop offset="1" stop-color="#E82B29"/></linearGradient></defs></svg>