<!-- by TradingView --><svg width="18" height="18" viewBox="0 0 18 18" xmlns="http://www.w3.org/2000/svg"><path fill="#F0F3FA" d="M0 0h18v18H0z"/><path d="M14 4H4v10h10V4Z" fill="#36A7E9"/><path fill-rule="evenodd" d="m5 5 .7 1h4.62s1.4-.09 1.4.65v4.77s0 .58-.58.58H6.97s-.68.05-.8-.68a30 30 0 0 1 0-3.27l.83-.2V11s0 .32.46.32h2.87s.6 0 .7-.53c.11-.63 0-1.47 0-1.47l-.7-.25.67-.37V7.23S10.94 7 10.02 7h-4.2S5 7.1 5 7.74v4S5.29 13 6.33 13h5.05S13 13 13 11.84V6.26S12.85 5 11.2 5H5Zm2.86 2.8v.73H10V7.8H7.86Zm0 2.53V9.6H10v.73H7.86Z" fill="#F0F3FA"/></svg>