<!-- by TradingView --><svg width="18" height="18" viewBox="0 0 18 18" xmlns="http://www.w3.org/2000/svg"><path fill="#F0F3FA" d="M0 0h18v18H0z"/><path d="M5 10.85V8.5h1.9c1.16 0 2.1 1 2.1 2.25v.1C9 12.04 8.1 13 7 13s-2-.96-2-2.15Z" fill="#C22E20"/><path d="M6.29 7.5H5V6.29C5 5.58 5.56 5 6.25 5h.04c.67 0 1.21.56 1.21 1.25S6.96 7.5 6.29 7.5Z" fill="#D87733"/><path d="M13 8.5V5H9.9C8.85 5 8 5.78 8 6.75S8.85 8.5 9.9 8.5H13Z" fill="#1C7ED6"/><path d="M10 13V9.5h1.3c.93 0 1.7.78 1.7 1.75S12.23 13 11.3 13H10Z" fill="#413483"/></svg>