<!-- by TradingView --><svg width="18" height="18" viewBox="0 0 18 18" xmlns="http://www.w3.org/2000/svg"><path fill="#F0F3FA" d="M0 0h18v18H0z"/><path fill-rule="evenodd" d="M14 9A5 5 0 1 1 4 9a5 5 0 0 1 10 0Zm1 0A6 6 0 1 1 3 9a6 6 0 0 1 12 0ZM7 6.87c0-.41.32-1.16 2.1-1.16 1.81 0 2.56.77 2.56.77l.34-.44S11.06 5 9.02 5C7.28 5 6 5.95 6 6.88c0 1.36 1.64 1.8 2.6 1.85v.67H8v.6h.6v1.54c0 .14-.1.23-.25.23-.7 0-1.6-.75-1.95-1.18A2.52 2.52 0 0 0 8.8 13h.4c1.2 0 2.37-1 2.4-2.4-.4.5-1.31 1.22-1.9 1.22-.15 0-.3-.1-.3-.29V10h.6v-.6h-.6v-.67A4.7 4.7 0 0 0 12 7.58l-.32-.41C10.95 7.78 10 8 9.02 8 8.14 8 7 7.8 7 6.87Zm1.28-.4c0 .18.09.22.27.22l1.02-.02c.3 0 .43.15.43.41s-.1.52-.95.52C8.47 7.6 8 7.57 8 7.15h.25c.02.2.09.24.79.24.6 0 .74-.07.74-.3 0-.12-.06-.2-.26-.2H8.48c-.3-.01-.45-.13-.45-.44C8.03 6.1 8.5 6 9 6s.99.1.99.48h-.26c-.02-.25-.33-.26-.72-.26-.43 0-.73.02-.73.26Z" fill="#012158"/></svg>