<!-- by TradingView --><svg width="18" height="18" viewBox="0 0 18 18" xmlns="http://www.w3.org/2000/svg"><path fill="#F0F3FA" d="M0 0h18v18H0z"/><path fill-rule="evenodd" d="M14.54 11.3A6 6 0 1 0 3.46 6.7a6 6 0 0 0 11.08 4.6Zm-1.52-.63a4.35 4.35 0 1 0-8.04-3.33 4.35 4.35 0 0 0 8.04 3.33Z" fill="#018ED4"/><path fill-rule="evenodd" d="M13.25 9a4.25 4.25 0 1 1-8.5 0 4.25 4.25 0 0 1 8.5 0Zm-.34-.19.18.12c.02.01.02.03.02.04a3.75 3.75 0 0 1-.17 1.17l-.02.02a.08.08 0 0 0-.03.05v.14c-.01.1-.02.2-.1.33a8 8 0 0 0-.3.49 8.84 8.84 0 0 1-1.68.38l-.3.03c-.29.04-.52.07-.78.07a10.62 10.62 0 0 0-.6.02h.21c.31.02.55.02.84 0 .76-.07 1.5-.17 2.2-.39.04-.01.05 0 .02.03a4.12 4.12 0 0 1-6.93-.2c-.02-.03-.02-.04.02-.02.73.26 1.54.37 2.3.43.26 0 .51.02.77.05.05.01.1 0 .14 0 .02-.01.02-.02 0-.02l-.58-.06a13 13 0 0 1-2.73-.54 3.83 3.83 0 0 1-.37-.87c0-.02 0-.02.03-.01l.34.2c.04.02.06 0 .06-.04v-.03a.11.11 0 0 0-.06-.1c-.11-.06-.42-.24-.45-.41v-.01a1.44 1.44 0 0 1-.03-.62l-.01-.05a.06.06 0 0 1-.02-.04.04.04 0 0 1 .02-.03c.76-.5 1.7-.7 2.62-.8l.3-.02a.06.06 0 0 1 .06.04l.03.06c.01.03 0 .04-.03.05a8.1 8.1 0 0 0-1.52.28c-.31.1-.59.2-.82.34a.38.38 0 0 0-.1.1c.19-.12.38-.21.6-.29a7.17 7.17 0 0 1 1.92-.35l.02.03v.06l-.03.02h-.02c-.4.07-.72.19-.99.38-.14.1-.24.3-.12.47.06.08.15.15.27.23.07.05.18.07.32.06h.7c.07 0 .18 0 .35.02a.4.4 0 0 0 .12-.01l-.7-.18c-.2-.05-.54-.2-.54-.42-.01-.2.34-.34.53-.42l.05-.02a.02.02 0 0 0 .01-.03V8.5c.05-.04.08-.03.11 0 .25.34.58.5 1 .5a1.1 1.1 0 0 0 1.01-.62.05.05 0 0 1 .04-.02c.7.09 1.37.22 1.94.48.16.06.3.16.46.29.2.17.26.38.18.62v.05l.1.14h.05c.32-.29.23-.63-.06-.9a2.06 2.06 0 0 0-.68-.36v.02c.3.1.53.29.7.55.04.06.05.15.03.29h-.02c.02-.28-.23-.5-.43-.62a5.8 5.8 0 0 0-2.24-.63c-.02 0-.03-.02-.03-.04l.03-.09c0-.02.02-.03.05-.03.79.05 1.56.2 2.3.47.11.04.26.12.44.22Zm-2.72-.75c.95.08 1.92.28 2.74.73l.14.09c.04.02.05 0 .05-.03a4.13 4.13 0 0 0-8.24-.06c0 .02 0 .02.03.01a6.64 6.64 0 0 1 2.55-.72l.36-.04a.03.03 0 0 0 .02-.01.03.03 0 0 0 0-.02c-.03-.16-.02-.33.02-.5.05-.2.13-.42.24-.62a124.38 124.38 0 0 1 .91-1.48.03.03 0 0 1 .02.01l.8 1.34c.22.4.4.8.32 1.24 0 .04 0 .05.04.06Z" fill="#1188BF"/><path d="M9.35 6.98a.4.4 0 0 1-.72-.06.48.48 0 0 1 .04-.36A22.93 22.93 0 0 1 9 6.02l.31.52a.5.5 0 0 1 .03.44Z" fill="#fff"/><path d="M8.63 6.92a.4.4 0 0 0 .72.06c.57.11.65.53.8 1.02 0 .04 0 .05.04.06.95.08 1.92.28 2.74.73l-.02.02c-.18-.1-.33-.18-.44-.22a8.38 8.38 0 0 0-2.3-.47c-.03 0-.05 0-.05.03l-.03.09c0 .02 0 .03.03.04.74.08 1.6.25 2.24.63.2.12.45.34.43.61v.02l.02-.01c.02-.14 0-.23-.03-.29-.17-.26-.4-.45-.7-.55v-.02c.3.1.52.22.68.37.3.26.38.6.06.89h-.04l-.1-.14a.05.05 0 0 1-.01-.05c.08-.24.02-.45-.18-.62-.15-.13-.3-.23-.46-.3a7.03 7.03 0 0 0-1.96-.47l-.02.02c-.22.4-.55.6-1 .61-.43.02-.76-.15-1-.48-.04-.04-.07-.05-.12 0v.04a.02.02 0 0 1-.01.03c-.17.07-.59.21-.58.44 0 .23.35.37.54.42a200.32 200.32 0 0 1 .7.18.4.4 0 0 1-.12 0 3.8 3.8 0 0 0-.35 0c-.26 0-.51-.02-.7-.01a.54.54 0 0 1-.32-.06.93.93 0 0 1-.27-.23c-.12-.17-.02-.37.12-.47a2.27 2.27 0 0 1 1.01-.38l.02-.02.01-.02v-.04a.07.07 0 0 0-.02-.03c-.01-.01-.02-.02-.03-.01-.67.04-1.3.16-1.9.36a2.56 2.56 0 0 0-.6.29.38.38 0 0 1 .11-.1c.23-.14.5-.25.81-.34a8.1 8.1 0 0 1 1.53-.28c.03 0 .04-.02.03-.05l-.03-.06a.06.06 0 0 0-.05-.04l-.32.03c0-.04-.02-.07-.05-.07l.36-.04a.03.03 0 0 0 .02-.03c-.03-.16-.02-.33.02-.5V8h.04l.02-.23c0-.07.03-.13.09-.2.17-.25.38-.46.62-.64Z" fill="#04A9E3"/><path d="M8.73 8.71c.5 0 .96-.21 1.17-.68h.02v.01c-.09.35-.27.58-.63.68-.18.06-.37.06-.56.02-.01 0-.02 0-.02-.02h.02Z" fill="#EEFEFD"/><path d="M10.15 8.67h-.01l.22.05c.2.02 1.03.22.7.58a.4.4 0 0 1-.16.11c-.05.02-.05 0-.02-.02.1-.1.13-.2.07-.34-.08-.18-.48-.3-.67-.32a.28.28 0 0 1-.13-.06Z" fill="#018ED4"/><path d="M5.45 9.62v.11c0 .07-.03.07-.06.01-.25-.47.25-.81.64-.96h.01v.02a.96.96 0 0 0-.3.24c-.16.16-.18.34-.1.53a.03.03 0 0 1-.03.04L5.5 9.6a.03.03 0 0 0-.04.03Z" fill="#04A9E3"/><path d="M10.68 9.27c0-.13-.03-.21-.16-.29a.84.84 0 0 0-.5-.12v-.01c.26-.05.5-.01.75.12.07.03.1.08.12.14v.05a.29.29 0 0 1-.18.14c-.02 0-.03 0-.03-.03Z" fill="#018ED4"/><path d="M8.87 9.22a3.53 3.53 0 0 0 .9-.05v.01a2.7 2.7 0 0 1-1.57-.03c.25.04.47.06.67.07Z" fill="#04A9E3"/><path d="M7.28 10.21v.2a.03.03 0 0 1-.03.03h-.3a.03.03 0 0 0-.03.03v.16a.03.03 0 0 0 .04.03h.3a.03.03 0 0 1 .04.03v.18a.03.03 0 0 1-.03.03h-.58a.03.03 0 0 1-.03-.03v-1.1a.03.03 0 0 1 .03-.04h.58a.03.03 0 0 1 .03.03v.2a.03.03 0 0 1-.03.03h-.31a.03.03 0 0 0-.03.04V10.17l.03.01h.3a.03.03 0 0 1 .02.03ZM8.19 9.73l.09.01c.01 0 .03.02.03.04l.14.66c.01.07.03.07.05 0l.13-.68c0-.02.02-.03.04-.03h.24c.02 0 .02 0 .02.03l-.3 1.11c0 .02-.01.03-.04.03H8.4c-.02 0-.03 0-.04-.03a48.39 48.39 0 0 1-.17-.7l-.02.01-.16.7-.04.02h-.2c-.02 0-.03 0-.03-.03l-.3-1.11c0-.02 0-.03.03-.03h.23c.02 0 .03 0 .04.03l.14.68c.01.07.03.07.04 0l.14-.66c0-.02.02-.03.04-.04a.28.28 0 0 1 .09-.01ZM10.49 10.32c0 .36.42.5.6.17a.03.03 0 0 1 .03-.02l.27.02v.01c-.1.25-.25.39-.47.42-.38.05-.73-.22-.72-.6 0-.4.35-.65.73-.6.22.05.38.19.47.43v.01h-.01l-.26.02a.03.03 0 0 1-.03-.02c-.18-.34-.6-.2-.61.16ZM12.59 10.75a.61.61 0 1 0-.86-.86.61.61 0 0 0 .86.86Zm-.43-.07c-.18 0-.33-.15-.33-.35 0-.2.13-.36.32-.36.18-.01.33.15.33.34 0 .2-.13.36-.32.37Z" fill="#018ED4"/><path fill-rule="evenodd" d="M9.63 9.74a.4.4 0 0 0-.18 0 .06.06 0 0 0-.04.03l-.43 1.09c-.01.03 0 .04.03.04h.22c.03 0 .05-.01.06-.04l.03-.1.04-.02a2.99 2.99 0 0 1 .4.02l.03.1c0 .03.03.04.06.04h.21c.04 0 .05-.01.03-.04l-.42-1.09a.06.06 0 0 0-.04-.03Zm-.1.39-.11.35a.02.02 0 0 0 .01.03h.22a.02.02 0 0 0 .02-.02v-.01l-.1-.35a.02.02 0 0 0-.02-.01.02.02 0 0 0-.03.01ZM6.3 10.3c.14.06.19.18.15.33-.04.17-.15.26-.34.27h-.47c-.02 0-.03 0-.03-.02V9.76a.03.03 0 0 1 .03-.03h.12c.2 0 .39 0 .52.08.17.11.16.32.01.46-.02.01-.01.02 0 .03Zm-.42-.28a.03.03 0 0 1 .03-.02h.16a.1.1 0 0 1 .03.02l.02.02v.06c0 .02 0 .04-.02.06a.1.1 0 0 1-.06.02H5.9a.04.04 0 0 1-.01 0 .03.03 0 0 1-.02-.02v-.14Zm.01.42-.01.03v.14a.04.04 0 0 0 .01.03.04.04 0 0 0 .03.02h.14l.09-.03a.09.09 0 0 0 .04-.07v-.03l-.01-.04a.1.1 0 0 0-.03-.03.13.13 0 0 0-.04-.02l-.05-.01h-.14l-.03.01Z" fill="#018ED4"/><path d="M11.83 11.07a12.91 12.91 0 0 1-4 .22 11.85 11.85 0 0 0-.56-.06v-.02h.37c.6.06 1.22.05 1.82.05l.97-.04c.36-.02.75-.08 1.14-.12l.16-.04a.34.34 0 0 1 .17 0c.04 0 .04 0 0 .01h-.07Z" fill="#1188BF"/><path fill-rule="evenodd" d="M8.98 13.81a4.81 4.81 0 1 0 0-9.62 4.81 4.81 0 0 0 0 9.62Zm0 .5a5.31 5.31 0 1 0 0-10.62 5.31 5.31 0 0 0 0 10.62Z" fill="#F0F3FA"/></svg>