<!-- by TradingView --><svg width="18" height="18" viewBox="0 0 18 18" xmlns="http://www.w3.org/2000/svg"><path fill="#F0F3FA" d="M0 0h18v18H0z"/><path fill-rule="evenodd" d="M9 14c3.87 0 7-2.24 7-5s-3.13-5-7-5-7 2.24-7 5 3.13 5 7 5Zm5.61-2.73A3.5 3.5 0 0 0 15.5 9a3.5 3.5 0 0 0-.9-2.28c-.16 1.13-2.04 2.04-4.48 2.25 2.48.21 4.37 1.16 4.5 2.3Zm-10.97.28C4.81 12.73 6.78 13.5 9 13.5c2.33 0 4.37-.85 5.51-2.12 0-.28-.13-.57-.4-.85a3.63 3.63 0 0 0-1.15-.76 9.9 9.9 0 0 0-3.9-.71 9.9 9.9 0 0 0-3.88.7c-.5.23-.89.49-1.16.77-.27.28-.4.57-.4.86 0 .05 0 .1.02.16Zm-.12-.13v-.03c0-1.2 1.93-2.2 4.5-2.42-2.55-.21-4.48-1.2-4.5-2.39A3.56 3.56 0 0 0 2.5 9c0 .9.37 1.72 1.02 2.42ZM9 4.5c-2.23 0-4.2.78-5.37 1.97v.09c0 .28.12.58.4.86.26.28.65.54 1.15.76a9.9 9.9 0 0 0 3.89.7 9.9 9.9 0 0 0 3.89-.7c.5-.22.89-.48 1.15-.76.25-.27.39-.54.4-.8C13.36 5.33 11.32 4.5 9 4.5Z" fill="#3E4095"/><path d="m8.54 13-3.6-8 3.54 5h.78L13 5.26 9.26 13h-.72Z" fill="#ED3237"/><path d="m9 5.67.35 1.1h1.15l-.93.67.36 1.1L9 7.86l-.93.68.36-1.1-.93-.68h1.15L9 5.66Z" fill="#FFF212"/></svg>