<!-- by TradingView --><svg width="18" height="18" viewBox="0 0 18 18" xmlns="http://www.w3.org/2000/svg"><path fill="#F0F3FA" d="M0 0h18v18H0z"/><path d="M12.52 11a4 4 0 0 1-7.04 0h1.49a2.73 2.73 0 0 0 4.06 0h1.49ZM12.42 9c.34 0 .63-.28.57-.62a4.05 4.05 0 0 0-7.98 0c-.06.34.23.62.57.62.34 0 .62-.27.7-.6.28-1.26 1.4-2.2 2.72-2.2 1.33 0 2.44.94 2.73 2.2.07.33.35.6.69.6Z" fill="#F31426"/><path d="M4 11.47h3.89L7.15 10H6.5l-.4.58h-.32L5.4 10h-.65L4 11.47ZM10.11 11.47H14L13.26 10h-.65l-.4.58h-.32L11.5 10h-.65l-.74 1.47ZM8 4.83C7.98 4.38 8.43 4 9 4c.57 0 1.02.38 1 .83l-.41 8.71c-.01.26-.27.46-.59.46-.32 0-.58-.2-.59-.46l-.4-8.7Z" fill="#F31426"/></svg>