<!-- by TradingView --><svg width="18" height="18" viewBox="0 0 18 18" xmlns="http://www.w3.org/2000/svg"><path fill="#F0F3FA" d="M0 0h18v18H0z"/><path fill-rule="evenodd" d="M8.91 10.88a3.5 3.5 0 1 1 2.56-3.84 2.5 2.5 0 1 1-2.56 3.84Zm-.35-.85A2.6 2.6 0 0 1 5.4 7.5a2.59 2.59 0 0 1 5.14-.46 2.5 2.5 0 0 0-2 2.99Zm1.24.47A1.56 1.56 0 1 0 11.46 8a3.5 3.5 0 0 1-1.66 2.5Zm.74-2.5a2.59 2.59 0 0 1-1.1 1.65V9.5c0-.7.46-1.3 1.1-1.5Zm-4.67 6H4.54l.65-2h1.35l-.67 2Zm4.25 1h1.33l.67-2h-1.35l-.65 2Z" fill="#F7723E"/></svg>