<!-- by TradingView --><svg width="18" height="18" viewBox="0 0 18 18" xmlns="http://www.w3.org/2000/svg"><path fill="url(#a)" d="M0 0h18v18H0z"/><path fill="#231560" d="m9 3 6 6-6 6-6-6z"/><path fill="#FEFEFE" d="M9 3.37 14.63 9 9 14.64 3.36 9z"/><path opacity=".6" d="M6 10V6h3.5l-2 4H6Z" fill="url(#b)"/><path opacity=".6" d="M9.5 6H11l-2 4H7.5l2-4Z" fill="url(#c)"/><path d="M11 6h1v4h-1v-.52h-.87l-.26.52H9l2-4Zm-.44 2.62H11v-.87l-.44.87Z" fill="#DF2124"/><path fill="#DF2124" fill-opacity=".5" d="M6 11h6v1H6z"/><defs><linearGradient id="a" x1="9" y1="0" x2="9" y2="18" gradientUnits="userSpaceOnUse"><stop stop-color="#145DA2"/><stop offset="1" stop-color="#803D60"/></linearGradient><linearGradient id="b" x1="7.75" y1="6" x2="7.75" y2="10" gradientUnits="userSpaceOnUse"><stop stop-color="#241661" stop-opacity=".5"/><stop offset="1" stop-color="#241661"/></linearGradient><linearGradient id="c" x1="9.25" y1="6" x2="9.25" y2="10" gradientUnits="userSpaceOnUse"><stop stop-color="#241661"/><stop offset="1" stop-color="#241661" stop-opacity=".5"/></linearGradient></defs></svg>