<!-- by TradingView --><svg width="18" height="18" viewBox="0 0 18 18" xmlns="http://www.w3.org/2000/svg"><path fill="#F0F3FA" d="M0 0h18v18H0z"/><path fill-rule="evenodd" d="M9.23 3.79c-.11.1-.19.2-.23.27a3.14 3.14 0 0 0-.24-.27 1.59 1.59 0 0 0-1.17-.44c-1.06 0-1.57.77-1.59 1.23V6H4.9c-.34 0-1.55.24-1.55 1.51 0 .67.23 1.06.47 1.28.12.12.24.18.33.22l-.04.02c-.1.05-.2.11-.3.2-.24.2-.46.53-.46 1.2 0 1.01.85 1.53 1.27 1.57H6v1.55c0 .59.66 1.1 1.65 1.1.5 0 .88-.16 1.12-.33.12-.08.2-.17.26-.24.05.08.14.17.25.25.24.17.6.32 1.15.32 1 0 1.55-.69 1.57-1.1V12h1.4c.43 0 1.25-.47 1.25-1.57 0-.58-.24-.97-.48-1.2a1.1 1.1 0 0 0-.33-.22c.13-.06.24-.14.34-.22.39-.36.48-.89.47-1.16 0-1.17-.83-1.63-1.24-1.63H12V4.58c0-.43-.57-1.23-1.59-1.23-.55 0-.94.23-1.18.44ZM9 3.53A1.98 1.98 0 0 0 7.6 3c-.9 0-1.9.62-1.94 1.56v1.09H4.9C3.89 5.65 3 6.43 3 7.5c0 .74.25 1.2.53 1.5-.4.36-.53.9-.53 1.42 0 .9.68 1.85 1.58 1.94h1.08v1.18c0 .98 1.12 1.45 1.99 1.45.61 0 1.08-.2 1.37-.42.3.23.76.42 1.4.42 1.22 0 1.96-.85 1.98-1.44v-1.2h1c.97 0 1.6-1.02 1.6-1.93 0-.66-.26-1.13-.55-1.42A1.9 1.9 0 0 0 15 7.63c0-1.72-.98-2.06-2.65-1.98V4.58c0-.62-.73-1.58-1.94-1.58A2.1 2.1 0 0 0 9 3.53Z" fill="#0253FB"/><path fill-rule="evenodd" d="M6.53 6.18V4.7c0-.55.47-1 1.06-1 .58 0 1.06.45 1.06 1v1.47H6.53Zm.47-.5V4.8c0-.33.27-.6.59-.6a.6.6 0 0 1 .58.6v.89H7Zm2.35.5V4.7c0-.55.48-1 1.06-1 .59 0 1.06.45 1.06 1v1.47H9.35Zm.48-.5V4.8c0-.33.26-.6.58-.6a.6.6 0 0 1 .59.6v.89H9.83Zm-3.3 7.6v-1.46h2.12v1.47c0 .55-.48 1-1.06 1-.59 0-1.06-.45-1.06-1Zm.35-.06v-1.04H8.3v1.04c0 .4-.31.72-.7.72a.71.71 0 0 1-.7-.72Zm2.47-1.4v1.47c0 .55.48 1 1.06 1 .59 0 1.06-.45 1.06-1v-1.47H9.35Zm.36.36v1.04c0 .4.31.72.7.72.4 0 .7-.32.7-.72v-1.04h-1.4Zm3.58-2.83h-1.47v2.12h1.47c.55 0 1-.47 1-1.06 0-.58-.45-1.06-1-1.06Zm-.07.36h-1.04v1.38h1.04a.7.7 0 0 0 .72-.7.7.7 0 0 0-.72-.68ZM6.18 6.53H4.7c-.55 0-1 .47-1 1.06 0 .58.45 1.06 1 1.06h1.47V6.53Zm-.36.35H4.78c-.4 0-.72.32-.72.7 0 .4.32.71.72.71h1.04V6.9Zm-1.1 2.47h1.46v2.12H4.7c-.55 0-1-.47-1-1.06 0-.58.45-1.06 1-1.06Zm.06.36h1.04v1.4H4.78a.71.71 0 0 1-.72-.7c0-.39.32-.7.72-.7Zm1.75-1.06V6.53h2.12v2.12H6.53Zm.35-1.77H8.3V8.3H6.9V6.9Zm-.35 2.47v2.12h2.12V9.35H6.53Zm1.76.36H6.9v1.4h1.4v-1.4Zm1.06-1.06V6.53h2.12v2.12H9.35Zm.36-1.77h1.4V8.3h-1.4V6.9Zm-.36 2.47v2.12h2.12V9.35H9.35Zm1.77.36H9.7v1.4h1.4v-1.4Zm.7-3.18h1.47c.55 0 1 .47 1 1.06 0 .58-.45 1.06-1 1.06h-1.47V6.53Zm.5.47h.88c.33 0 .6.27.6.59a.6.6 0 0 1-.6.58h-.89V7Z" fill="#51FF00"/><circle cx="9" cy="9" fill="#0055FA" r=".71"/></svg>