<!-- by TradingView --><svg width="18" height="18" viewBox="0 0 18 18" xmlns="http://www.w3.org/2000/svg"><path fill="#F0F3FA" d="M0 0h18v18H0z"/><path d="M13.58 5.63 9.2 4.03a.5.5 0 0 0-.37 0l-4.4 1.55c-.1.04-.1.14 0 .19L8.9 7.72a.2.2 0 0 0 .17 0l4.52-1.9c.1-.05.1-.15 0-.19Zm-2.02.1c-.03.14-.15.26-.37.38a.1.1 0 0 1-.09 0l-.27-.1-.23-.1c-.1-.03-.1-.1-.03-.16a.42.42 0 0 0 .05-.05.19.19 0 0 0 .05-.1c.02-.1-.08-.16-.18-.21-.21-.12-.51-.2-.84-.23a3.9 3.9 0 0 0-1.2.11c-.27.07-.65.2-.89.39-.13.1-.18.2-.16.27.04.1.18.2.4.29.23.09.48.13.74.13a3.17 3.17 0 0 0 .94-.15.1.1 0 0 1 .08 0l.23.1.23.09c.12.04.11.15 0 .19a4.28 4.28 0 0 1-1.3.19c-.43 0-1.24-.06-1.83-.45-.2-.13-.31-.27-.33-.41-.02-.12.03-.25.14-.37.13-.15.28-.24.47-.33a5.53 5.53 0 0 1 2.99-.34c.33.06.6.14.86.26.16.07.31.15.44.3.09.1.12.2.1.3Zm2.3.32L9.26 7.98c-.09.04-.12.09-.12.18v2.36l.01 3.37c0 .1.07.14.16.09l1.38-.73 2.73-1.44c.19-.1.26-.22.27-.42l.3-5.25c0-.1-.05-.13-.15-.1Zm-.9 4.61a2.25 2.25 0 0 1-1.21 1.38l-1.21.62-.1.05-.28.14c-.09.05-.15 0-.15-.1l.06-3.52v-.86c.01-.05.03-.07.07-.1l1.57-.67.05-.02.03-.01c.13-.06.26-.11.4-.15.25-.05.45-.02.59.11.24.22.2.73.15.99a1.74 1.74 0 0 1-.42.82c.08 0 .14.02.2.04.15.07.25.22.29.45.05.25.03.56-.05.83ZM12.1 10c.06 0 .1 0 .15.05.07.08.1.25.07.47a.99.99 0 0 1-.3.62c-.13.14-.3.22-.48.3h-.01a5.7 5.7 0 0 0-.13.07l-.5.25c-.09.04-.15 0-.15-.1l.02-1.03c0-.04.02-.06.06-.08a1039.81 1039.81 0 0 0 .74-.36l.32-.15a.53.53 0 0 1 .2-.04Zm-.57-.45c.17-.07.33-.14.45-.27a.9.9 0 0 0 .26-.57c.03-.27-.02-.38-.06-.43-.03-.03-.08-.05-.13-.04a.54.54 0 0 0-.19.04l-.28.13h-.02l-.03.02-.1.05-.55.24c-.04.02-.06.04-.06.09l-.03 1.07v.01l.62-.28.1-.05h.02ZM4.14 6 8.7 7.98c.09.04.12.09.12.18l.01 3.24v2.49c0 .1-.06.13-.15.09L4.5 11.75c-.19-.1-.26-.22-.27-.42L4 6.1c0-.1.05-.14.15-.1Zm3.26 6.36c.13 0 .23-.03.33-.1.27-.2.29-.55.27-.83a1.88 1.88 0 0 0-.56-1.29l-.02-.01.07-.03c.19-.1.3-.27.33-.54a1.79 1.79 0 0 0-1.19-1.9l-1.2-.52-.35-.16c-.09-.04-.15 0-.14.1l.03 1.05.11 3.12c0 .04.02.06.06.08l.78.42.25.13.56.3a1.74 1.74 0 0 0 .67.18Zm-.5-1.97a7.56 7.56 0 0 0-.48-.27l-.14-.07-.37-.18c-.1-.05-.16 0-.15.1l.01.6.01.3c0 .05.02.07.06.1a904.9 904.9 0 0 1 1.07.53c.05.02.12.03.17.01.16-.05.17-.33.13-.55a.9.9 0 0 0-.31-.57Zm-.14-.83a1121.94 1121.94 0 0 0-.98-.46c-.04-.02-.05-.04-.05-.08v-.2L5.7 8.2c0-.1.06-.14.15-.1l.4.19.07.02a20.15 20.15 0 0 1 .44.23.7.7 0 0 1 .28.5c.04.3 0 .46-.12.5-.05.03-.09.03-.16.01Z" fill="#008AAB"/></svg>