<!-- by TradingView --><svg width="18" height="18" viewBox="0 0 18 18" xmlns="http://www.w3.org/2000/svg"><path fill="#002868" d="M0 0h18v18H0z"/><path d="M3 12V6h2.54c1.08 0 2.19.48 2.19 1.58 0 .74-.52 1.12-1.17 1.26v.06A1.5 1.5 0 0 1 8 10.39C8 11.55 6.79 12 5.66 12H3Zm1.5-1.13h1.06c.63 0 1-.06 1-.74 0-.67-.29-.83-.97-.83H4.5v1.57Zm0-2.27h.95c.62 0 1.06-.11 1.06-.72 0-.62-.43-.75-1.03-.75H4.5V8.6ZM10 12V6h2.58C13.9 6 15 6.73 15 7.99s-1.1 2.13-2.44 2.13h-1.7V9h1.53c.75 0 1.36-.3 1.36-1.01 0-.72-.62-.87-1.36-.87h-.89V12H10Z" fill="#fff"/></svg>