<!-- by TradingView --><svg width="18" height="18" viewBox="0 0 18 18" fill="none" xmlns="http://www.w3.org/2000/svg">
<rect width="18" height="18" fill="#F0F3FA"/>
<path d="M4 4H8.44444C11.5127 4 14 6.48731 14 9.55556V14H4V4Z" fill="#006E4C"/>
<path d="M11 4H14V7C13.4333 5.54343 12.462 4.67319 11 4Z" fill="#E14E1E"/>
<path d="M7 7H8.95294C9.79169 7 10.5 7.47713 10.5 8.38V8.62C10.5 8.89619 10.2995 9.40907 10 9.5C10.6131 9.5 11 10.4547 11 11.0629V11.5771C11 12.04 10.8314 12.3943 10.4941 12.64C10.1647 12.88 9.67843 13 9.03529 13H7V7ZM8.8 9C9.5 9 9.57647 8.91799 9.57647 8.67188V8.38C9.57647 8.10938 9.5 8 8.91765 8.00286H8V9H8.8ZM9 12C10 12 9.99494 11.7472 9.99494 11.2188V10.7109C9.99494 10.318 9.5 10 9 10H8V12H9Z" fill="white"/>
</svg>
