<!-- by TradingView --><svg width="18" height="18" viewBox="0 0 18 18" xmlns="http://www.w3.org/2000/svg"><path fill="#F0F3FA" d="M0 0h18v18H0z"/><path d="m14.86 7.5-2.54-2.22c-.27-.22-.34-.28-.48-.28h-.1a.14.14 0 0 1 .1.05.15.15 0 0 1 .04.1c0 .05 0 .09-.03.11L3 13h6.34l5.52-4.9a.39.39 0 0 0 .14-.3s0-.16-.14-.3Z" fill="#FCC200"/><path d="M11.74 5.01a.14.14 0 0 1 .11.05.15.15 0 0 1 .04.1c0 .05 0 .08-.03.11L9 7.77l-2.84-2.5a.16.16 0 0 1-.04-.11.16.16 0 0 1 .05-.11.15.15 0 0 1 .1-.05h5.46v.01Z" fill="#EB6625"/></svg>