<!-- by TradingView --><svg width="18" height="18" viewBox="0 0 18 18" xmlns="http://www.w3.org/2000/svg"><path fill="#F0F3FA" d="M0 0h18v18H0z"/><path d="m3.07 11.84-.07.15h7l.1-.15c-.3-.02-.34-.29-.32-.42l.75-2.15h1.21l-.72 2.17c-.08.23-.33.38-.45.43l-.05.13H13l.07-.16c-.35-.15-.35-.4-.31-.5l1.58-4.8c.08-.21.43-.36.6-.41l.06-.1h-2.45l-.01.12c.11.03.15.2.15.29l-.77 2.29h-1.2l.78-2.19c.11-.3.43-.43.57-.46V6H8.24l-.08.14H9.3c.79 0 1 .72.89 1.05l-.23.74-.17.55c-.11.33-.55.53-.76.58.35.08.37.46.34.64l-.58 1.72c-.1.3-.33.43-.43.44H5.41L6.25 10h-.69l.78-1.23h-.67L7.15 6H5.02l-.08.14c.3.1.3.45.27.62-.47 1.4-1.44 4.26-1.57 4.6a.73.73 0 0 1-.57.48ZM7.6 9.27l-.68 1.91h.3c.26 0 .41-.21.46-.32.1-.3.35-.95.43-1.23.08-.29-.3-.36-.51-.36Zm.17-.54.7-2.05c.21 0 .61.08.53.38-.08.3-.33 1-.45 1.32-.04.12-.2.35-.47.35h-.31Z" fill="#E2272D"/></svg>