<!-- by TradingView --><svg width="18" height="18" viewBox="0 0 18 18" xmlns="http://www.w3.org/2000/svg"><path fill="#F0F3FA" d="M0 0h18v18H0z"/><path d="M5.55 7H8.1c.3 0 .9.15.9.75V8c0 .33-.24 1-1.2 1 .4.04 1.2.3 1.2 1v.25c0 .25-.18.75-.9.75H3V7h2.55Zm.15.25v1h.6c.1 0 .3-.05.3-.25v-.5c0-.08-.06-.25-.3-.25h-.6Zm0 2v1h.6c.1 0 .3-.05.3-.25v-.5c0-.08-.06-.25-.3-.25h-.6Z" fill="red"/><path d="M15 7v.25h-3c-.2 0-.6.1-.6.5s.4.5.6.5h3v.5H9.9c-.72 0-.9-.25-.9-.5v-.5c0-.6.4-.75.6-.75H15ZM15 9.25v.25h-3c-.2 0-.6.1-.6.5s.4.5.6.5h3v.5H9.9c-.72 0-.9-.25-.9-.5V10c0-.6.4-.75.6-.75H15ZM4.8 7.25v1h-.3c-.24 0-.3-.17-.3-.25v-.5c0-.2.2-.25.3-.25h.3ZM4.8 9.25v1h-.3c-.24 0-.3-.17-.3-.25v-.5c0-.2.2-.25.3-.25h.3Z" fill="#CF6768"/></svg>