<!-- by TradingView --><svg width="18" height="18" viewBox="0 0 18 18" xmlns="http://www.w3.org/2000/svg"><path fill="#F0F3FA" d="M0 0h18v18H0z"/><path d="M8.12 10.82c.22.09.58.18 1.08.18.28 0 .59-.03.9-.09.64-.12.9-.38.9-.84 0-.05 0-.11-.02-.18-.07-.43-.38-.56-.68-.6-.65.31-1.3.54-1.75.67l-.43.86Zm1.56.83h.01-.02Z" fill="#E60012"/><path d="M9 4a5 5 0 0 0-4.48 2.8l2.42-.44c1.54-.27 3.01-.45 3.3-.5.27-.05.56-.1.87-.1.88 0 1.4.3 1.52 1.02.14.78-.37 1.51-1.53 2.18.61.08 1.14.48 1.14 1.15 0 .95-1.07 1.35-1.8 1.48-.22.04-.47.06-.73.06a6.7 6.7 0 0 1-1.89-.3l-.62 1.27-1.2.2 2.4-5.04 1.45-.26-.94 1.8c1.09-.47 2.71-1.33 2.56-2.21-.04-.2-.13-.37-.58-.37-.13 0-.3.02-.48.05-.84.15-5.45 1.47-6.37 1.73h-.02A5 5 0 1 0 9 4Z" fill="#E60012"/></svg>