<!-- by TradingView --><svg width="18" height="18" viewBox="0 0 18 18" xmlns="http://www.w3.org/2000/svg"><path fill="#F0F3FA" d="M0 0h18v18H0z"/><path d="M3 5.24 12.63 3 15 12.75 5.37 15z"/><path fill="#FF0" d="m8.33 5.18.76-.17.55 2.25-.76.18zM6.84 5.51l.12.48.08-.02a.2.2 0 0 1 .25.15.2.2 0 0 1-.16.24l-.08.02.02.06.1.43.1-.02c.12-.03.25.05.28.17a.23.23 0 0 1-.18.28l-.09.02.1.43.45-.1c.37-.09.6-.45.51-.82a.68.68 0 0 0-.48-.49c.1-.13.14-.3.1-.48a.6.6 0 0 0-.73-.44l-.39.09Zm-.18.06-.76.18L6.45 8l.76-.17-.55-2.26ZM9.79 6.03c.21.9 1.06.9 1.27.9h.05l-.14-.6c-.1-.01-.33-.14-.43-.47-.1-.34 0-.63.06-.74l-.14-.55-.06.04c-.25.15-.84.5-.61 1.42Zm1.35.33.12.5c.17-.03.38-.25.47-.36l.17.22.33-.08-.31-1.29-1.08.25.11.46.42-.1c-.02.25-.16.37-.23.4Zm-.46-1.82.12.48c.1 0 .3.06.36.24l.7-.17c-.1-.23-.45-.68-1.18-.55ZM10.6 7.8l.2.36.05-.22.26.53.33-.08-.61-1.08-.22.05v.44Zm-.6-.27.61 1.1.31-.07-.61-1.1-.31.07Zm1.35.57-.24-.42-.02-.42.28-.06-.02.9ZM9.5 7.66c.16 0 .49.12.58.5a.6.6 0 0 1-.29.68l-.06-.25a.69.69 0 0 0 .04-.36.66.66 0 0 0-.2-.3l-.07-.27Zm.18 1.21a.65.65 0 0 1-.58-.5.6.6 0 0 1 .29-.69l.06.25a.69.69 0 0 0-.04.36c.03.13.15.26.2.3l.07.28Zm-2.12-.7-.33.08.28 1.16.34-.08-.29-1.16Zm.66.77-.33.08.07.29.33-.08-.07-.29Zm-2.24.14-.21-.22.05-.28.25-.06-.1.56Zm-.5-.41-.33.07.47.56.14.54.33-.08-.15-.6-.47-.5Zm1.23-.3.33-.08.07.29-.33.08-.07-.3Zm-.45.1.33-.07.29 1.16-.34.08-.28-1.17Zm1 .7-.34.08.07.28.33-.07-.07-.3Zm-.45-.4.22-.04.07.28-.22.06-.07-.3Zm1.31-.73.33-.08.29 1.17-.33.07-.29-1.16Zm.66.77.34-.08.07.3-.34.07-.07-.29ZM5.75 10.85c.08.36.58.43.81.43l-.17-.57c-.04.02-.12.02-.14-.06-.02-.08.05-.12.1-.13l-.12-.45c-.27.1-.6.33-.48.78Zm.71-.4-.1-.4c.48-.1.72.2.78.38l-.53.12c-.05-.09-.12-.1-.15-.1Zm.08.26c.24-.01.76.07.86.44.11.48-.23.71-.52.83l-.11-.48c.04 0 .11-.05.1-.14-.03-.08-.11-.08-.15-.06l-.18-.6Zm.1.86.1.42c-.5.12-.82-.29-.88-.46l.55-.13c.06.09.2.18.23.17ZM8.1 9.63l.62-.14.1.44-.61.14-.1-.44Zm-.76.18L8 9.65l.47 1.93-.66.15-.47-1.92Zm1.74 1.16-.62.14.1.44.63-.14-.1-.44Zm-.8-.63.43-.1.1.43-.43.1-.1-.43Zm2.13-1.25.66-.15.47 1.92-.66.15-.47-1.92Zm.77-.18.62-.14.1.44-.62.14-.1-.44Zm.6.6-.43.1.1.45.44-.1-.1-.44ZM9 9.43l.66-.15.46 1.92-.66.15L9 9.42Zm1.12 1.3.54-.12.11.44-.54.13-.11-.44ZM11.86 12.26l-.27-1.11.35-.08.27 1.11-.35.08Zm.18-.94-.06-.26.35-.08.07.26-.36.08Zm.15.59.06.26.35-.08-.06-.27-.35.09Zm-.04-.16-.07-.27.27-.06.07.26-.27.07Zm-1.6.83-.58-1.05.28-.06.59 1.05-.29.06Zm-.35.1-.23.04.01-.94.35.62-.12.03v.24Zm-1.12.3-.28-1.16.3-.07.28 1.16-.3.07Zm.1-1.23.06.23c.05 0 .14 0 .16.09.02.07-.06.14-.1.16l.06.24.23.38.3-.07-.3-.44c.04-.05.12-.19.08-.36-.06-.2-.2-.3-.49-.23Zm-1.28.9c.1.42.42.49.57.47l-.06-.25a.41.41 0 0 1-.26-.29.41.41 0 0 1 .06-.34l-.07-.25c-.12.04-.35.22-.24.65Zm.9-.22c.11.43-.14.63-.28.68l-.07-.26a.4.4 0 0 0 .1-.36.42.42 0 0 0-.23-.28l-.06-.25c.13-.02.44.04.55.47Zm-1.7.16-.08-.33.64-.15.08.33-.64.15Zm.36.78-.18-.77.3-.07.2.77-.32.07Zm-.79-.23c-.14 0-.43-.04-.49-.25-.06-.27.13-.4.3-.47l.06.27c-.02 0-.07.03-.05.08 0 .05.06.04.08.04l.1.33Zm-.12-.73.06.24c.02 0 .06 0 .09.06l.32-.08c-.04-.1-.18-.28-.47-.22Zm.62.66c-.06-.23-.37-.27-.52-.27l.11.35c.03 0 .08 0 .09.04.01.05-.03.08-.06.09l.07.28c.17-.07.38-.21.3-.5Zm-.4.5-.05-.25c-.02 0-.1-.05-.14-.1l-.33.07c.04.1.23.35.53.28Zm4.31-2-.07-.28c-.08.02-.37.16-.25.67.1.4.4.47.52.46l-.05-.25c-.04.01-.14-.02-.2-.24-.05-.22.01-.33.05-.35Zm.05-.05-.06-.23c.32-.02.46.2.5.31l-.25.06c-.04-.09-.14-.13-.19-.14Zm.1.52-.06-.27.42-.1.15.64-.18.04-.03-.12a.52.52 0 0 1-.15.16l-.06-.23a.17.17 0 0 0 .07-.15l-.15.03Z"/><path d="m12.9 12.04-1.34-4.97.78-.15 1.28 4.93-.71.19ZM5.06 8.42l-.6-2.37 1-.21.57 2.33-.97.25Z" fill="#F11"/></svg>