<!-- by TradingView --><svg width="18" height="18" fill="none" xmlns="http://www.w3.org/2000/svg"><path fill="#FB2213" d="M0 0h18v18H0z"/><path fill-rule="evenodd" clip-rule="evenodd" d="M8.5 6.5a1 1 0 1 0 0-2 1 1 0 0 0 0 2ZM3 7v5h2.5c1 0 1.5-.719 1.5-1.5s-.8-1-1-1c0 0 .5-.5.5-1C6.5 7.68 5.853 7 5 7H3Zm1 2V8h1c.222 0 .5.125.5.5S5.222 9 5 9H4Zm0 1v1h1.5c.229 0 .5-.203.5-.5s-.271-.5-.5-.5H4Zm10.163-1.59.697-.769C14.629 7.427 13.838 7 12.834 7 11.578 7 10 7.833 10 9.5s1.271 2.5 2.667 2.5c1.116 0 2.054-.513 2.333-.77V9h-2v1h1v.594c0 .128-.552.406-1.333.406C11.69 11 11 10.648 11 9.5 11 8.352 12 8 12.833 8c.76 0 1.19.282 1.33.41ZM8 7h1v5H8V7Z" fill="#fff"/></svg>