<!-- by TradingView --><svg xmlns="http://www.w3.org/2000/svg" width="18" height="18"><path fill="#212666" d="M0 0h18v18H0z"/><path d="M9 5H3v1.5h6V5z" fill="#FF9800"/><path d="M5.5 8.3H4v1.4h1.5V8.3z" fill="#46C7E5"/><path d="M7.5 11.5H6V13h1.5v-1.5z" fill="#E91E63"/><path d="M14 9c.46-.4.8-1 .8-1.66 0-.65-.26-1.29-.68-1.7A2.16 2.16 0 0012.54 5H10.5v1.5h1.62c.6 0 1.38.02 1.38.9s-.8.9-1.38.9H10.5V6.5H9v1.8H7v1.4h2V13h3.76c.64 0 1.17-.15 1.61-.58.44-.43.63-.93.63-1.6 0-.96-.28-1.32-1-1.82zm-1.4 2.5h-2.1V9.7h2.04c.5 0 1.09.3 1.09.88 0 .6-.5.92-1.02.92z" fill="#fff"/></svg>