<!-- by TradingView --><svg width="18" height="18" viewBox="0 0 18 18" xmlns="http://www.w3.org/2000/svg"><path fill="#F0F3FA" d="M0 0h18v18H0z"/><path d="M4 4.77c0-.26.14-.77.71-.77h6.78c.13 0 .2.17.1.27L7.42 8.44c-.3.3-.3.82 0 1.12l4.17 4.17c.1.1.03.27-.1.27H4.71a.71.71 0 0 1-.71-.77V4.77ZM14 4v1.15l-3.63 3.26a.8.8 0 0 0 0 1.18L14 12.85V14L9.27 9.58a.8.8 0 0 1 0-1.16L14 4Z" fill="url(#a)"/><defs><linearGradient id="a" x1="9.1" y1="8.33" x2="14" y2="8.29" gradientUnits="userSpaceOnUse"><stop stop-color="#152591"/><stop offset="1" stop-color="#159CCF"/></linearGradient></defs></svg>