<!-- by TradingView --><svg width="18" height="18" viewBox="0 0 18 18" xmlns="http://www.w3.org/2000/svg"><path d="M0 9a9 9 0 1 1 18 0A9 9 0 1 1 0 9Z" fill="#F0F3FA"/><path d="M9 5c-.48 0-.86.4-.86.89s.38.89.86.89.86-.4.86-.9C9.86 5.4 9.48 5 9 5Zm-2.95.6a.79.79 0 0 0-.78.8c0 .45.35.8.78.8.43 0 .78-.35.78-.8 0-.44-.35-.8-.78-.8Zm5.9 0a.79.79 0 0 0-.78.8c0 .45.35.8.78.8.43 0 .78-.35.78-.8 0-.44-.35-.8-.78-.8ZM3.7 6.82a.7.7 0 0 0-.69.71c0 .4.3.71.7.71a.7.7 0 0 0 .68-.7.7.7 0 0 0-.69-.72Zm10.62 0a.7.7 0 0 0-.7.71c0 .4.32.71.7.71a.7.7 0 0 0 .69-.7.7.7 0 0 0-.69-.72Zm-.54 3.48c-.3-.52-.3-1.2.05-1.72a.1.1 0 0 0 .01-.07.09.09 0 0 0-.1-.06.09.09 0 0 0-.06.04c-.25.53-.85.76-1.38.53a1.12 1.12 0 0 1-.6-1.39c.02-.02.02-.05 0-.07a.08.08 0 0 0-.11-.04.09.09 0 0 0-.04.05c-.2.57-.77.93-1.37.85-.6-.09-1.05-.6-1.08-1.2A.09.09 0 0 0 9 7.13a.09.09 0 0 0-.09.09c-.03.6-.48 1.11-1.08 1.2-.6.08-1.17-.28-1.37-.85a.09.09 0 0 0-.16-.01.09.09 0 0 0 0 .07c.2.55-.06 1.16-.59 1.4-.53.22-1.13-.02-1.38-.54a.09.09 0 0 0-.06-.04.09.09 0 0 0-.1.06l.01.07c.34.52.35 1.2.05 1.72a.1.1 0 0 0 0 .1c.03.03.06.04.1.03.57-.13 1.29.88 1.85 1.83l.25-.14c-.52-.98-1.05-1.98-.41-2.27.64-.28.98.8 1.31 1.86l.36-.1c-.26-1.08-.53-2.2.23-2.3.75-.12.8 1.03.84 2.14a5.57 5.57 0 0 1 .48 0c.04-1.11.1-2.26.84-2.15.76.11.49 1.23.23 2.3l.36.11c.33-1.05.67-2.14 1.31-1.86.64.29.1 1.29-.4 2.26l.24.14c.56-.94 1.28-1.95 1.86-1.82.03.01.06 0 .08-.03a.09.09 0 0 0 0-.1ZM6.62 13l-.21-.36A4.75 4.75 0 0 1 9 12c.95 0 1.84.16 2.6.64l-.22.36H6.62Z" fill="#50B030"/></svg>