<!-- by TradingView --><svg width="18" height="18" viewBox="0 0 18 18" xmlns="http://www.w3.org/2000/svg"><path fill="#F0F3FA" d="M0 0h18v18H0z"/><path d="m9 10.96 1.4-1.89c.03-.04.05-.04.07 0l.03.05a.1.1 0 0 1 0 .12l-1.24 1.68a.04.04 0 0 0 0 .05 614.42 614.42 0 0 0 5.48 0c.12-.02.2-.1.26-.24v-.05a21242.52 21242.52 0 0 1-4.11-5.58.17.17 0 0 0-.09-.06c-.23-.08-.4-.04-.5.11A52556.76 52556.76 0 0 0 6 10.98l.02.01h2.9c.03 0 .05 0 .07-.03ZM7.48 5.03 7.3 5h-.01a.7.7 0 0 0-.14.06.41.41 0 0 0-.11.11l-3.96 5.37a.33.33 0 0 0-.08.24c0 .08.06.14.14.17.1.03.17.05.22.05h2.41c.03 0 .05-.01.06-.03l3.04-4.11V6.8L7.68 5.21c-.08-.1-.15-.16-.2-.18Z" fill="#00F"/></svg>