<!-- by TradingView --><svg xmlns="http://www.w3.org/2000/svg" width="18" height="18" viewBox="0 0 18 18"><path fill="#F0F3FA" d="M0 0h18v18H0z"/><path fill-rule="evenodd" d="M9 15A6 6 0 1 0 9 3a6 6 0 0 0 0 12zm0-1A5 5 0 1 0 9 4a5 5 0 0 0 0 10z" fill="#F62334"/><path fill-rule="evenodd" d="M5.12 11.45c.2-.42.47-.9.81-1.4a6.8 6.8 0 0 1-.56-3.58c.76.01 2.54.22 3.57.94a8.4 8.4 0 0 1 3.6-.94c.18.82.19 2.24-.49 3.64.32.42.62.88.83 1.33-.23.37-.5.7-.83.99a9.8 9.8 0 0 0-.65-1.28 6.72 6.72 0 0 1-2.46 1.92 5.95 5.95 0 0 1-2.38-1.95c-.23.38-.45.8-.65 1.27-.3-.28-.57-.6-.8-.94zm3.81.43a5.16 5.16 0 0 1-1.72-1.7 6.08 6.08 0 0 1 1.67-1.53 5.3 5.3 0 0 1 1.88 1.57c-.4.6-1 1.18-1.83 1.66zm2.66-4.26c-.01.47-.1 1-.3 1.57-.43-.48-.85-.88-1.17-1.16.4-.15.92-.31 1.47-.4zM6.69 9.1c.38-.4.81-.77 1.29-1.03a5.39 5.39 0 0 0-1.57-.44c.03.54.13 1.03.28 1.47z" fill="#F62334"/></svg>