<!-- by TradingView --><svg width="18" height="18" viewBox="0 0 18 18" xmlns="http://www.w3.org/2000/svg"><path fill="#F0F3FA" d="M0 0h18v18H0z"/><path d="M8.03 5.2a.5.5 0 0 1 .67-.12l5.96 4.02c.22.15.27.44.12.65L13.16 12H3.14l4.89-6.8Z" fill="url(#a)"/><path d="M9.86 7.14c.22.08.41.2.57.37a1.37 1.37 0 0 1 .39.96v.12h-.86c0-.08 0-.17-.02-.25a.59.59 0 0 0-.37-.48 1.32 1.32 0 0 0-.64-.08c-.25.01-.56.12-.63.41-.03.16-.01.36.1.48.05.06.11.1.19.14a1.65 1.65 0 0 0 .18.08c.06 0 .14.02.23.05l.93.27.25.08c.3.14.52.36.65.67.12.26.13.55.08.84a1.3 1.3 0 0 1-.57.88c-.13.09-.27.15-.4.2-.2.07-.4.1-.61.12h-.37c-.35-.02-.71-.1-1-.3a1.5 1.5 0 0 1-.7-1.16 2.13 2.13 0 0 1 0-.31h.86c0 .34.09.64.35.82.27.18.63.21.95.17.28-.03.57-.18.64-.5.02-.1.02-.19 0-.3-.06-.31-.33-.38-.6-.46l-.77-.21c-.17-.05-.34-.11-.5-.18-.38-.17-.67-.44-.75-.88a1.58 1.58 0 0 1 0-.57c.07-.32.25-.59.5-.77a2 2 0 0 1 1.5-.32c.14.02.29.05.42.1Z" fill="#F7941D"/><path d="M7 7H6v5h1V7ZM15.57 7h.42v.01l.01.3V12L15 12V8.77c0-.02 0-.02 0 0l-1 2.88-.12.34-.01.01h-.74L12 8.76c0-.01 0-.01 0 0V12h-1V7h1.25l1.27 3.73 1.13-3.4.1-.33h.02l.8-.01Z" fill="#6D6E72"/><path d="M2 12V7h2.26c.26 0 .55.07.79.22.37.24.51.65.5 1.11-.02.44-.2.76-.56.96v.01c.57.24.81.85.74 1.5-.03.29-.14.53-.33.73-.36.4-.89.47-1.37.47H2Zm1-2.86H4.1c.27 0 .5-.23.57-.54.02-.11.02-.23 0-.35-.03-.19-.09-.42-.26-.48a.8.8 0 0 0-.27-.05H3v1.42Zm1.56 2.07c.27-.13.34-.54.31-.84-.03-.34-.3-.51-.6-.51H3L3 11.3h1.23c.12 0 .23-.03.33-.08Z" fill="#F7941D"/><defs><linearGradient id="a" x1="10.43" y1="7.32" x2="7.56" y2="11.81" gradientUnits="userSpaceOnUse"><stop stop-color="#B2B3B7"/><stop offset="1" stop-color="#fff"/></linearGradient></defs></svg>