<!-- by TradingView --><svg width="18" height="18" viewBox="0 0 18 18" xmlns="http://www.w3.org/2000/svg"><path fill="#F0F3FA" d="M0 0h18v18H0z"/><path d="M9 6a1 1 0 1 0 0-2 1 1 0 0 0 0 2ZM5.86 4.1a.33.33 0 0 1 .48 0L8.05 5.9c.14.14.14.36 0 .5a.33.33 0 0 1-.47 0L5.86 4.6a.36.36 0 0 1 0-.5Zm6.28 0a.33.33 0 0 0-.48 0L9.95 5.9a.36.36 0 0 0 0 .5c.13.14.34.14.47 0l1.72-1.79a.36.36 0 0 0 0-.5ZM8 7.37a.37.37 0 0 1 .75 0v7.26c0 .2-.17.37-.38.37a.37.37 0 0 1-.37-.37V7.37Zm1.25 0a.37.37 0 0 1 .75 0v7.26c0 .2-.17.37-.38.37a.37.37 0 0 1-.37-.37V7.37Zm3.17-2.61a.33.33 0 0 1 .48 0c.13.13.13.36 0 .5l-1.72 1.78a.33.33 0 0 1-.48 0 .36.36 0 0 1 0-.5l1.72-1.78Zm-6.84 0a.33.33 0 0 0-.48 0 .36.36 0 0 0 0 .5l1.72 1.78c.13.14.34.14.48 0a.36.36 0 0 0 0-.5L5.58 4.76Z" fill="#F10011"/></svg>