<!-- by TradingView --><svg xmlns="http://www.w3.org/2000/svg" width="18" height="18" viewBox="0 0 18 18"><path fill="#F0F3FA" d="M0 0h18v18H0z"/><path d="M13.63 6.9A4.32 4.32 0 0 0 9.9 4.78a4.25 4.25 0 0 0-4.3 4.2c0 .84.24 1.61.67 2.26a4.23 4.23 0 0 1-1.2-2.95c0-2.38 1.96-4.3 4.4-4.3a4.4 4.4 0 0 1 4.16 2.9z" fill="#97BD1B"/><path d="M7.2 7.36a3.99 3.99 0 0 0 0 4.09 4.22 4.22 0 0 0 7.3-.15c-.3.98-.97 1.86-1.95 2.41a4.32 4.32 0 0 1-5.83-1.52 4.1 4.1 0 0 1 .48-4.83z" fill="#028436"/><path d="M9.26 3A5.95 5.95 0 0 0 4.8 7.2a5.86 5.86 0 0 0 4.25 7.19c1.22.32 2.46.25 3.57-.14a6.25 6.25 0 0 1-4.56.54A6 6 0 0 1 3.7 7.44 6.12 6.12 0 0 1 9.26 3z" fill="#36A8DF"/><path fill-rule="evenodd" d="M7.43 6.92h1.43c.57 0 1.03.45 1.03 1.01v.04a1 1 0 0 1-.7.95c.5.08.87.5.87 1v.14c0 .55-.46 1-1.03 1h-1.6V6.92zm.31.22h1.09a.8.8 0 0 1 0 1.62H7.74V7.14zm0 2.01h1.22c.44 0 .8.35.8.78v.11c0 .43-.36.78-.8.78H7.73V9.15z" fill="#42889F"/><path d="M10.85 7.82a.2.2 0 0 0 .2-.2.2.2 0 0 0-.2-.2.2.2 0 0 0-.2.2c0 .1.08.2.2.2zM11 8h-.3v3h.3V8z" fill="#42889F"/><path fill-rule="evenodd" d="M13.18 11c.7 0 1.27-.67 1.27-1.5S13.9 8 13.18 8c-.7 0-1.27.67-1.27 1.5s.57 1.5 1.27 1.5zm0-.3c.54 0 .98-.54.98-1.2 0-.66-.44-1.2-.98-1.2-.53 0-.97.54-.97 1.2 0 .66.44 1.2.97 1.2z" fill="#42889F"/></svg>