<!-- by TradingView --><svg width="18" height="18" viewBox="0 0 18 18" xmlns="http://www.w3.org/2000/svg"><path fill="#C9000E" d="M0 0h18v18H0z"/><path fill-rule="evenodd" d="M6 7.5H3V7h5v.5H5V8h2.05a1 1 0 0 1 .76.3.7.7 0 0 1 .19.45v1.5c0 .33-.27.53-.53.63-.26.1-.54.12-.73.12h-2.8a1 1 0 0 1-.75-.3.7.7 0 0 1-.19-.45V8.5c0-.27.3-.4.45-.44.17-.05.37-.06.5-.06H6v-.5Zm3.5 0V8h.87v-.5H9.5Zm.87 1H9.5v.75h.87V8.5Zm0 1.25v.5c0 .18-.16.25-.32.25v.5c.44 0 .95-.25.95-.75V7.5c0-.33-.34-.5-.63-.5H9.5c-.29 0-.5.17-.5.5v2.75c0 .18-.3.25-.45.25v.5c.44 0 .95-.25.95-.75v-.5h.87Zm1.79-2V7h.63v.5H13V7h.63v.5H15V8h-1.37v1H15v.5h-1.37v1H15v.5h-3.5v-.5H13v-1h-1.5V9H13V8h-.26c-.1.24-.74.5-1.24.5V8c.15 0 .66-.07.66-.25Zm-8.53.8v.7h3.74v-.5a.27.27 0 0 0-.07-.17c-.03-.04-.1-.08-.25-.08h-3.1c-.09 0-.2.01-.29.04h-.03Zm3.74 1.2H3.63v.5c0 .04.02.11.07.17.03.04.1.08.25.08h2.79c.12 0 .31-.02.45-.08.14-.05.18-.1.18-.17v-.5Z" fill="#342F60"/></svg>