<!-- by TradingView --><svg width="18" height="18" xmlns="http://www.w3.org/2000/svg"><path fill="#0056A5" d="M0 0h18v18H0z"/><path d="M13.078 6.167h1.23a.7.7 0 01.692.687v5.484c0 .365-.31.662-.691.662H3.691C3.31 13 3 12.703 3 12.338V6.854a.7.7 0 01.692-.687h2.225l6.24-1.155c.36-.067.706.16.77.505.066.344.15.65.15.65z" fill="#fff"/><path d="M4.403 7h9.242c.192 0 .355.146.355.322V10H4V7.322C4 7.146 4.211 7 4.403 7zM14 11v.664c0 .176-.163.338-.355.338H4.403c-.192 0-.403-.162-.403-.338V11h10z" fill="#0056A5"/><path d="M13.273 9.117l-7.954 1.48a.33.33 0 01-.388-.255l-.607-3.229a.329.329 0 01.27-.377l7.625-1.419a.33.33 0 01.389.255l.665 3.545z" fill="#ED1C29"/><path d="M6.228 8.515a.512.512 0 01.145.38.78.78 0 01-.786.772l-.709-.002c-.16 0-.257-.11-.257-.288 0-.012 0-.03.003-.045l.198-1.682a.343.343 0 01.33-.317l.51.002c.39 0 .644.231.643.581 0 .09-.018.184-.055.268a.485.485 0 01-.191.233.48.48 0 01.17.098zm-1 .569h.354c.112 0 .206-.038.206-.145 0-.106-.064-.148-.152-.149l-.357.002-.051.292zm.107-.875h.197c.112 0 .203-.063.203-.161 0-.097-.066-.131-.153-.132h-.2l-.047.293zm1.572 1.458c-.146 0-.257-.139-.257-.307l.14-1.141a.326.326 0 01.322-.302c.14 0 .257.138.257.306l-.14 1.144a.33.33 0 01-.322.3zm2.31-.583c.125 0 .249.136.248.287 0 .146-.152.296-.312.296l-1.316-.003c-.158 0-.267-.1-.266-.253a.38.38 0 01.085-.223l1.061-1.271h-.674c-.124 0-.243-.138-.243-.29 0-.145.148-.294.305-.293l1.198.002c.154 0 .266.108.266.257a.379.379 0 01-.104.232l-1.07 1.259h.822zm.823.583c-.146 0-.258-.139-.257-.307l.14-1.141a.326.326 0 01.322-.302c.14 0 .257.138.257.306l-.14 1.144a.33.33 0 01-.322.3zm1.233-.279c-.04.16-.17.27-.322.27a.248.248 0 01-.25-.252c0-.039.003-.075.012-.11l.467-1.633a.44.44 0 01.418-.33c.185 0 .31.112.342.293l.17 1.03.418-1.028c.073-.182.224-.292.403-.292.202 0 .336.133.348.331l.072 1.635c0 .21-.138.362-.322.361-.158 0-.26-.108-.263-.272l-.01-1.113-.472 1.153c-.064.163-.152.236-.282.236-.151 0-.227-.073-.254-.237l-.194-1.155-.281 1.113zM7.402 7.599c0 .15-.115.27-.258.269a.265.265 0 01-.258-.27c0-.15.117-.27.26-.27a.264.264 0 01.256.27zm3.141 0c0 .15-.115.27-.257.269a.263.263 0 01-.259-.27c0-.15.116-.27.26-.27a.264.264 0 01.256.27z" fill="#fff"/></svg>