<!-- by TradingView --><svg width="18" height="18" viewBox="0 0 18 18" fill="none" xmlns="http://www.w3.org/2000/svg">
<rect width="18" height="18" fill="#F0F3FA"/>
<path d="M12.3239 11.6938C12.7905 11.9043 13.3185 12 13.8303 12C14.8912 12 16 11.3326 16 10.158C16 8.20123 13 8.76988 13 7.56543C13 7.2642 13.5167 7 14 7C14.4216 7 14.7881 7.1206 15.1377 7.24405C15.2959 7.29705 15.3961 7.32982 15.4592 7.33333C15.4843 7.33473 15.5035 7.3315 15.5181 7.32306C15.6251 7.27168 15.7616 6.80062 15.7883 6.69094C15.8191 6.55761 15.8294 6.50329 15.7986 6.46872C15.5431 6.18249 14.521 6.00392 14.1697 6C12.8946 6 12 6.68148 12 7.65926C12 9.53818 15 9.33333 15 10.2667C15.0307 10.7535 14.3941 11 14 11C13.5173 11.0273 12.7898 10.6667 12.3907 10.6667C12.2413 10.7189 12.094 11.1826 12.0463 11.3086C11.9692 11.5358 11.9794 11.5457 12.3239 11.6938Z" fill="#FE0074"/>
<path d="M10.8791 6H10.0815C10.0283 6 9.9799 6.02538 9.94605 6.06599L8.07254 8.75127C8.05803 8.77157 8.02902 8.77157 8.00967 8.75635C8 8.74619 7.99516 8.73604 7.99516 8.72081V6.12183C7.99516 6.05584 7.94197 6 7.8791 6L7.11606 6C7.0532 6 7 6.05584 7 6.12183V11.8782C7 11.9442 7.04836 12 7.11123 12C7.11123 12 7.11123 12 7.11606 12H7.88394C7.9468 12 8 11.9442 8 11.8782V9.27411C8 9.24873 8.01934 9.22843 8.04352 9.22843C8.05803 9.22843 8.0677 9.2335 8.07737 9.24365L9.94605 11.9289C9.9799 11.9695 10.0283 11.9949 10.0815 11.9949H10.8791C10.942 11.9949 11 11.9391 11 11.8731C11 11.8426 10.9903 11.8173 10.971 11.7919L9.02892 9.07614C9.0107 9.05462 9.00106 9.02748 9 9C8.99881 8.96914 9.00845 8.93787 9.02892 8.91371L10.971 6.19797C10.9878 6.17586 10.9964 6.14895 10.9968 6.12183C10.9972 6.08667 10.9838 6.05117 10.9565 6.02538C10.9323 6.01015 10.9081 6 10.8791 6Z" fill="#FE0074"/>
<path d="M5.08826 8.87276C5.08826 8.87276 4.86768 8.85318 5.08336 8.79935C5.08336 8.79935 5.81372 8.49592 5.81372 7.53181C5.81372 6.66558 5.15688 6 3.82852 6C2.74524 6 2.39722 6.03915 2.22075 6.07341C2.09331 6.0832 1.99527 6.19576 2.00018 6.323V11.633C2.00018 11.6721 1.99527 11.8825 2.22075 11.9315C2.46094 11.9804 2.67171 12 3.72068 12C5.2059 12 5.99998 11.3834 5.99998 10.2088C6.00488 8.96574 5.08826 8.87276 5.08826 8.87276ZM4.87749 10.2333C4.87749 10.7129 4.49025 11 4.00498 11H3.30391C3.13725 11 3 10.8679 3 10.7015C3 10.7015 3 10.7015 3 10.6966V7.26917C3 7.12235 3.11764 7 3.26959 7H3.95596C4.32849 7 4.66667 7.26264 4.66667 7.63458V7.75693C4.66667 8.07015 4.41182 8.33932 4.10792 8.40783C3.88244 8.43719 3.71578 8.62806 3.71578 8.85318V8.85808C3.71578 9.0783 3.88734 9.26427 4.10792 9.27896C4.54907 9.3279 4.88729 9.69984 4.88729 10.1452L4.87749 10.2333Z" fill="#FE0074"/>
</svg>
