<!-- by TradingView --><svg width="18" height="18" viewBox="0 0 18 18" xmlns="http://www.w3.org/2000/svg"><path fill="#F0F3FA" d="M0 0h18v18H0z"/><path d="M4 5h2v2.84c.35-.4.81-.84 1.62-.84 1.39 0 2.4.94 2.38 2.4 0 1.7-1.32 2.6-2.65 2.6-.92 0-1.35-.33-1.51-.77h-.02l-.06.77H4V5Zm1.84 4.89c0 .1 0 .18.04.27.13.38.54.7 1.06.7.76 0 1.24-.52 1.24-1.38 0-.85-.41-1.16-1.24-1.16-.83 0-.93.3-1.06.72-.02.09-.04.17-.04.27v.58Z" fill="#111921"/><path d="M10.28 10.6c.3.16.93.34 1.41.34.49 0 .71-.15.71-.38 0-.24-.17-.37-.76-.56-1.1-.33-1.53-.87-1.51-1.42 0-.9.84-1.58 2.16-1.58 1.32 0 1.15.13 1.49.29L13.5 8.3a2.9 2.9 0 0 0-1.16-.27c-.44 0-.63.15-.63.39 0 .23.2.35.86.55 1 .32 1.41.77 1.43 1.48 0 .89-.76 1.54-2.29 1.54-1.52 0-1.3-.15-1.71-.34l.3-1.05-.02-.02Z" fill="#A61E30"/></svg>