<!-- by TradingView --><svg width="18" height="18" viewBox="0 0 18 18" xmlns="http://www.w3.org/2000/svg"><path fill="#F0F3FA" d="M0 0h18v18H0z"/><path fill-rule="evenodd" d="M6.78 7.35a5.15 5.15 0 0 0-.55-.06l.01-.01c.17-.02.31-.03.42-.06.44-.08.9-.24 1.18-.63.13-.16.2-.36.25-.58.04-.24.03-.48-.01-.72a1.35 1.35 0 0 0-.6-.87c-.16-.1-.34-.2-.54-.25A6.18 6.18 0 0 0 5.58 4 4099.62 4099.62 0 0 1 3 4v.1h.23a.9.9 0 0 1 .32.06c.27.1.45.33.45.6v4.95h1V7.37h.9c.4 0 .84.11 1.07.49.08.13.14.28.17.44a4.97 4.97 0 0 1 .05 1.4v.01-.02l1.13.02V9.7a2.29 2.29 0 0 0 0-1.15 1.53 1.53 0 0 0-.92-1.02c-.2-.08-.4-.14-.62-.17ZM6.7 4.57a.91.91 0 0 0-.47-.37c-.1-.04-.2-.06-.32-.08A118.59 118.59 0 0 0 5 4.1v3.11h.59a2.2 2.2 0 0 0 .51-.05.97.97 0 0 0 .6-.38c.12-.19.18-.4.21-.62.03-.26.04-.52.02-.78a1.78 1.78 0 0 0-.23-.81Z" fill="#3B3937"/><path d="M10 7.67V9.7H9v-2c0-.23-.08-.49-.27-.62a.6.6 0 0 0-.22-.1c-.14-.03-.27-.03-.41-.03v-.1h2.8v.1c-.18 0-.32 0-.48.04-.29.09-.42.37-.42.67ZM12.78 7.1c-.2-.15-.45-.14-.67-.14v-.1H15v.1h-.3c-.38.02-.7.3-.7.7v2.05h-1V7.7c0-.23-.05-.46-.22-.6ZM8.77 13.73a.83.83 0 0 0 .23-.6V11.5h1v1.66c0 .24.07.48.26.61.07.05.15.09.23.1.12.02.26.03.4.02v.1H8.1s0 .01 0 0v-.1l.35-.01a.6.6 0 0 0 .33-.15ZM12.93 13.56c.04-.11.07-.23.07-.37v-1.7h1v1.68c0 .2.14.42.27.54a.6.6 0 0 0 .3.16 1.8 1.8 0 0 0 .43.03v.1h-2.9v-.1c.15 0 .32 0 .46-.04.15-.03.3-.14.37-.3Z" fill="#3B3937"/><path fill="#967F71" fill-opacity=".8" d="M4 10h10v1H4z"/></svg>