<!-- by TradingView --><svg width="18" height="18" viewBox="0 0 18 18" xmlns="http://www.w3.org/2000/svg"><path fill="#F0F3FA" d="M0 0h18v18H0z"/><path d="m15 8-1.07-2h-2.98l-1-2.53L8.05 3l.02.04-.01-.02L7.08 6H4.07L3 7.88h.04-.02L5.8 9.77l-.93 2.77L6.1 14l.01-.04v.02L9 11.88l2.87 2.1v-.02l.02.04 1.22-1.47-.92-2.75L15 8Zm-4.33 2.99L9 9.8l-1.68 1.18.65-1.9L6.29 8h2.07L9 6.01 9.63 8h2.08l-1.68 1.09.64 1.9Z" fill="#0070FF"/><path d="M6.3 8 4.06 6h3l1.3 2H6.28Z" fill="url(#a)"/><path d="M9.95 3.47 9 6l.64 1.84 1.31-1.55-1-2.83Z" fill="url(#b)"/><path d="M15 8h-3.3l-1.67 1.09 2.15.69L14.99 8Z" fill="url(#c)"/><path d="M9 9.8v2.09L11.88 14l-1.2-3.01L9 9.8Z" fill="url(#d)"/><path d="m7.33 10.99-2.46 1.54.93-2.76 2.17-.68-.64 1.9Z" fill="url(#e)"/><defs><linearGradient id="a" x1="4.07" y1="7" x2="8.36" y2="7" gradientUnits="userSpaceOnUse"><stop offset=".07" stop-color="#0034DD"/><stop offset=".45" stop-color="#0054EF"/><stop offset=".78" stop-color="#0068FA"/><stop offset="1" stop-color="#0070FF"/></linearGradient><linearGradient id="b" x1="9.09" y1="3.77" x2="12.02" y2="5.31" gradientUnits="userSpaceOnUse"><stop stop-color="#002EDA"/><stop offset=".6" stop-color="#005CF4"/><stop offset=".91" stop-color="#0070FF"/></linearGradient><linearGradient id="c" x1="10.11" y1="9.21" x2="12.28" y2="6.26" gradientUnits="userSpaceOnUse"><stop stop-color="#0070FF"/><stop offset="1" stop-color="#002EDA"/></linearGradient><linearGradient id="d" x1="9.52" y1="11.23" x2="12.1" y2="12.1" gradientUnits="userSpaceOnUse"><stop stop-color="#0070FF"/><stop offset=".2" stop-color="#005AF3"/><stop offset=".5" stop-color="#0042E5"/><stop offset=".78" stop-color="#0033DC"/><stop offset="1" stop-color="#002EDA"/></linearGradient><linearGradient id="e" x1="6.17" y1="11.32" x2="7.56" y2="8.67" gradientUnits="userSpaceOnUse"><stop stop-color="#002EDA"/><stop offset=".06" stop-color="#0036DE"/><stop offset=".27" stop-color="#004FEC"/><stop offset=".49" stop-color="#0061F7"/><stop offset=".73" stop-color="#006CFD"/><stop offset="1" stop-color="#0070FF"/></linearGradient></defs></svg>