<!-- by TradingView --><svg width="18" height="18" viewBox="0 0 18 18" xmlns="http://www.w3.org/2000/svg"><path fill="#F0F3FA" d="M0 0h18v18H0z"/><path d="M7.55 4h1.5l-1.32 7.58L7.36 13H6l1.55-9Zm4.42 5.65-.01.13c-.05.38-.13.77-.26 1.16-.13.38-.3.73-.53 1.05-.23.31-.5.56-.84.75-.33.18-.72.27-1.17.26a1.73 1.73 0 0 1-1.61-1.05c-.15-.3-.25-.64-.3-1-.05-.35-.07-.7-.06-1.03l.04-.33c.06-.35.17-.71.31-1.08.14-.36.33-.7.56-1 .23-.32.5-.56.82-.75.33-.18.7-.27 1.1-.26.44.01.8.11 1.07.3.27.2.47.45.61.76.15.3.24.65.27 1.01.04.37.04.73 0 1.08Zm-1.51.12.01-.12c.02-.19.04-.39.04-.61 0-.22-.03-.43-.08-.62a.99.99 0 0 0-.28-.5c-.13-.13-.32-.2-.58-.2a1.3 1.3 0 0 0-.63.11c-.19.09-.35.2-.49.35-.13.15-.24.33-.33.52-.09.2-.15.4-.2.6l-.13.91c-.01.25 0 .5.06.74.07.23.18.43.34.59a1 1 0 0 0 .69.24c.28.01.51-.04.7-.16.2-.13.34-.29.46-.49s.21-.42.28-.66c.07-.24.11-.47.14-.7Z" fill="#333B66"/></svg>