<!-- by TradingView --><svg width="18" height="18" viewBox="0 0 18 18" xmlns="http://www.w3.org/2000/svg"><path fill="#F0F3FA" d="M0 0h18v18H0z"/><path d="M8.54 7.62H8v.92h.54a.46.46 0 0 0 0-.92ZM8.77 9.46H8v.92h.77a.46.46 0 1 0 0-.92Z" fill="#012D74"/><path d="M9 14a5.29 5.29 0 0 0 5-3.52c-.26.34-.96.52-1.5.52-.83 0-1.5-.44-1.5-1.17V11h-1V6h1v2h1.13v1.99c0 .18.16.33.37.33.2 0 .38-.15.38-.33V8H14a5.11 5.11 0 0 0-5-4 5 5 0 0 0 0 10Zm1-4.1c0 .6-.5 1.1-1.1 1.1H7V7h1.5a1.1 1.1 0 0 1 .8 1.87c.41.16.7.56.7 1.03Z" fill="#012D74"/><path d="M7.15 11.25C4.9 9.87 4.59 8.12 4.77 7.36v-.02c-.1.7.23 2.46 2.43 3.82 2.77 1.7 5.03 1.56 5.92.44-.94 1.18-3.18 1.37-5.97-.35Z" fill="#0B9FDB"/><path d="M6.73 12.12C4.6 10.69 4.35 8.64 4.49 7.78h.07c-.13.8.22 2.8 2.28 4.17a4.96 4.96 0 0 0 6.3-.38c-1 1.47-3.76 2.33-6.41.55Z" fill="#0B9FDB"/><path d="M9.59 4.34c.7 0 1.24.17 1.42.26a4.77 4.77 0 0 0-1.42-.18c-3.22.3-4.45 3.76-4.45 5.13 0 1.36.52 2.26.8 2.82A4 4 0 0 1 5 9.74c0-4.2 3.33-5.4 4.59-5.4Z" fill="#0B9FDB"/><path d="M5.78 10.67c0 .99.47 1.77.7 2.04-.75-.35-1.48-2.73-.06-5.28 1.41-2.56 3.24-2.95 3.86-2.95.62 0 .87.11.97.28-1.3-.52-2.56.24-3.57 1.23a6.5 6.5 0 0 0-1.9 4.68Z" fill="#67A632"/><path d="M10.98 4.57a4.85 4.85 0 0 0-1.74-.32A4.7 4.7 0 0 0 4.48 8.9a4.7 4.7 0 0 0 4.76 4.65 4.8 4.8 0 0 0 3.27-1.27 4.77 4.77 0 0 1-8.17-3.34 4.76 4.76 0 0 1 6.64-4.37Z" fill="#F5FCFF"/></svg>