<!-- by TradingView --><svg width="18" height="18" viewBox="0 0 18 18" xmlns="http://www.w3.org/2000/svg"><path fill="#181B1E" d="M0 0h18v18H0z"/><path fill-rule="evenodd" d="M8.69 8.78c.07-.14.14-.28.2-.44.6-1.47 1.18-2.98 1.71-4.26.02-.04-.01-.08-.05-.08a27.7 27.7 0 0 1-1.97.07c-.04.03-.05.06-.05.1 0 .03.03.06.07.06l.66.01c.08 0 .13.09.1.16l-3.11 7.33c-.27.63-.44 1.28.15 1.81.31.28.68.43 1.1.45 1.26.08 2.37-.6 3.24-1.54.83-.9 1.44-1.93 1.21-3.15A1.6 1.6 0 0 0 10.37 8c-.32 0-.66.07-.96.25-.2.13-.37.3-.54.48l-.07.07c-.03.03-.15.05-.11-.02Zm.68 4.04c.44-.58.83-1.3 1.18-2.16.23-.58.73-1.96-.04-2.34a.69.69 0 0 0-.31-.06c-.4 0-.87.27-1.1.52a8.52 8.52 0 0 0-1.75 3.17c-.17.43-.28.81-.34 1.13-.07.36.07.58.4.67.71.19 1.51-.34 1.96-.93Z" fill="#FEFEFE"/></svg>