<!-- by TradingView --><svg width="18" height="18" viewBox="0 0 18 18" xmlns="http://www.w3.org/2000/svg"><path fill="#FF7E00" d="M0 0h18v18H0z"/><path d="M11.1 13c-.46 0-.84-.09-1.14-.27-.31-.19-.54-.46-.7-.8A3.54 3.54 0 0 1 9 10.61l1.19-.24c.01.3.05.57.1.8.07.23.16.41.27.54.13.12.3.18.5.18.22 0 .38-.07.47-.2.1-.14.14-.32.14-.53 0-.34-.08-.62-.22-.84a3.57 3.57 0 0 0-.6-.66l-.96-.86c-.27-.24-.48-.5-.65-.8-.15-.29-.23-.65-.23-1.08 0-.62.17-1.1.52-1.43.35-.33.83-.5 1.44-.5.35 0 .65.06.89.17.23.11.42.27.56.47.14.2.25.42.32.68.07.25.11.52.13.8l-1.18.21a3.88 3.88 0 0 0-.09-.65.87.87 0 0 0-.21-.46c-.1-.1-.25-.16-.45-.16s-.37.07-.48.21a.8.8 0 0 0-.16.51c0 .27.06.49.16.66.1.17.26.34.46.52l.95.86c.3.27.57.58.8.95.22.36.33.8.33 1.31a2 2 0 0 1-.24 1c-.16.28-.38.51-.67.68-.28.16-.61.24-1 .24Z"/><path d="M5 13V5h1.71c1.26 0 2 .73 2 2.15 0 .74-.17 1.4-.9 1.55C8.7 8.86 9 9.77 9 10.65 9 12.02 8.35 13 7.02 13H5Zm1.14-1.23h.62c.7 0 1.05-.5 1.05-1.17 0-.7-.34-1.27-1.07-1.27h-.6v2.44Zm0-3.7h.58c.67 0 .85-.25.85-.92 0-.66-.33-.92-.94-.92h-.49v1.85Z" fill="#fff"/></svg>