<!-- by TradingView --><svg width="18" height="18" viewBox="0 0 18 18" xmlns="http://www.w3.org/2000/svg"><path fill="#F0F3FA" d="M0 0h18v18H0z"/><path fill-rule="evenodd" d="M2 9c0 2.2 3.13 4 7 4s7-1.8 7-4-3.13-4-7-4-7 1.8-7 4Zm1-2h1.95c.48 0 .87.52.87 1.16 0 .33-.1.63-.26.84.16.21.26.5.26.84 0 .64-.39 1.16-.87 1.16H3V7Zm.7.75h1.05c.2 0 .37.22.37.5s-.16.5-.37.5H3.71v-1Zm0 1.5h1.05c.2 0 .37.22.37.5s-.16.5-.37.5H3.71v-1ZM6.95 7C6.42 7 6 7.54 6 8.2v1.6c0 .66.42 1.2.94 1.2h1.12c.52 0 .94-.54.94-1.2V8.2C9 7.54 8.58 7 8.06 7H6.94Zm.25.75c-.17 0-.3.18-.3.4v1.7c0 .22.13.4.3.4h.62c.17 0 .3-.18.3-.4v-1.7c0-.22-.13-.4-.3-.4h-.62ZM11.74 7h-1.49c-.54 0-.99.54-.99 1.2v1.6c0 .66.45 1.2 1 1.2h1.48v-.75h-1.27c-.18 0-.32-.18-.32-.4v-.47h1.59v-.8h-1.6v-.42c0-.23.15-.41.33-.41h1.27V7Zm2.33 0H12v4h.94V9.25h.13L14.1 11h.9l-.94-1.75h.01c.52 0 .93-.5.93-1.13C15 7.5 14.59 7 14.07 7Zm-.3.75h-.83v.75h.83c.16 0 .3-.17.3-.37 0-.21-.14-.38-.3-.38Z" fill="#004387"/></svg>