<!-- by TradingView --><svg width="18" height="18" viewBox="0 0 18 18" xmlns="http://www.w3.org/2000/svg"><path fill="#F0F3FA" d="M0 0h18v18H0z"/><path d="M5.09 5.83c.08-.48.53-.83 1.05-.83h7.1c.46 0 .82.38.75.8l-1.08 6.37c-.08.48-.53.83-1.05.83h-7.1c-.46 0-.82-.38-.75-.8l1.08-6.37Z" fill="#1C4792"/><path d="M6.83 13C7.36 12.3 8 11.27 8 10.61c0-1.04-1.12-1.28-1.92-1.28-.63 0-1.33.11-1.61.17l-.13.75c.85-.12 1.95-.26 2.28-.26.55 0 .77.29.77.5 0 .66-1.02 1.9-1.62 2.51h1.06ZM13.65 7.84l-.13.76c-.5.06-1.23.11-1.95.11-1.23 0-1.63-.44-1.63-1.22 0-.6.54-1.85.88-2.49h1.39c-1 .65-1.65 1.98-1.65 2.49 0 .54.37.65 1.01.65.71 0 1.57-.19 2.08-.3Z" fill="#1E413E"/><path d="M11.54 13h-1.37c.4-.29 1-.9 1-1.8 0-.74-.28-1.2-.53-1.49-.12-.14-.1-.35.07-.44.1-.05.2-.05.28 0 .41.31 1.01 1.08 1.01 2.14 0 .7-.23 1.22-.46 1.59ZM13.65 7.84l-.13.75c-.49.05-1.29.12-2.07.12-1.24 0-1.7-.44-1.7-1.22 0-.6.6-1.85.95-2.49h1.38c-.99.65-1.71 1.98-1.71 2.49 0 .54.43.65 1.08.65.78 0 1.72-.19 2.2-.3Z" fill="#398163"/><path d="M9.92 5A4.84 4.84 0 0 0 9 7.25c0 .64.38 1.35.69 2.04.3.64.56 1.26.56 1.77A3.5 3.5 0 0 1 9.59 13H7.73c.48-.45 1.11-1.28 1.11-2.1 0-.66-.12-1.27-.29-1.83a4.95 4.95 0 0 1-.27-1.32c0-.75.43-2.05.87-2.75h.77ZM7.1 5h1.23a4.43 4.43 0 0 0-.9 2.1c0 .45.07.87.16 1.15.05.16.03.33-.12.42-.14.09-.3.02-.37-.12a4.5 4.5 0 0 1-.47-2.04c0-.63.28-1.22.47-1.51ZM4.47 9.47c.33-.06.94-.18 1.49-.18.8 0 1.9.28 1.9 1.32 0 .66-.63 1.7-1.15 2.39H5.64c.6-.6 1.74-1.85 1.74-2.5 0-.22-.34-.5-.88-.5-.32 0-1.32.12-2.16.24l.13-.77Z" fill="#398163"/></svg>