<!-- by TradingView --><svg width="18" height="18" viewBox="0 0 18 18" xmlns="http://www.w3.org/2000/svg"><path fill="#F0F3FA" d="M0 0h18v18H0z"/><path d="M11.72 7.5c-.12.1-.24.18-.37.25l.37-.24ZM8.23 4.47l.16-.1-.16.1Zm5.69 5.4c-.19-.51-.45-.97-.86-1.28a4.55 4.55 0 0 0-1.75-.79 5.07 5.07 0 0 0 2.1-1.59c.18-.24.13-.6-.06-.89a2.87 2.87 0 0 0-1.57-1.03 5.26 5.26 0 0 0-2.85-.13c-.84.3-1.8.61-2.19 1.4l1-.61c1.37-.3 3.37.07 4.28 1.21.28.36.2.75-.03 1.07-.83.26-2.14.24-3 .33l-.13-.01-.06.03h-.04l-.06.04c-.27.14-.52.31-.76.5l-.4.25h.03l-.01.01h.17c1.23.1 2.99.3 4.04 1 .39.53.9 1.05.94 1.77a3.9 3.9 0 0 1-1.03 1.67c-1.87.66-2.82-.54-4.64-.97-1.32-.31-2.43.7-3.47 1.43-.24.2-.44.44-.57.73l1.32-.83c.08-.17.2-.33.32-.47 1.17-.33 2.33.41 3.44.75.75.23.51.43 1.32.4 1.05-.04 1.89-.6 2.7-1.2l.05-.04-.03.02.63-.47c.7-.5 1.51-1.37 1.17-2.3ZM6.02 6.9c.01 1.37-.15 2.73-.13 4.1l1.65-1.67c0-1.38.15-2.74.15-4.1L6.03 6.9Z" fill="#A76F3E"/></svg>