<!-- by TradingView --><svg width="18" height="18" viewBox="0 0 18 18" xmlns="http://www.w3.org/2000/svg"><path fill="#F0F3FA" d="M0 0h18v18H0z"/><path fill-rule="evenodd" d="M9 4c-1.94 0-3.34.45-4.4.8l-.6.18c0 2.95.69 7.66 5 10.02 4.7-2.36 5-7.07 5-10.02l-.74-.22C12.2 4.42 10.87 4 9 4Zm0 .34c-1.56 0-3.8.59-4.67.98l.47-.13c.9-.25 2.39-.67 4.2-.67 2.18 0 3.75.7 4.33 1.03-.39 4.86-1.5 6.7-4.33 8.72v.39c4.08-2.73 4.47-6.17 4.67-9.29l-.54-.19c-.95-.35-2.27-.84-4.13-.84ZM9.9 7H6.72c.19.2.29.33.29.6v2.8c0 .32-.07.38-.19.5l-.1.1h3.2c.36 0 1.09-.28 1.09-1.08S10.45 9 10.45 9s.55-.12.55-.92S10.27 7 9.9 7ZM8 8.57V8h1.5c.22 0 .5.02.5.29 0 .26-.29.28-.5.28H8ZM8 10v-.57h1.5c.17 0 .5.02.5.28 0 .27-.33.29-.5.29H8Z" fill="#003F85"/></svg>