<!-- by TradingView --><svg width="18" height="18" viewBox="0 0 18 18" xmlns="http://www.w3.org/2000/svg"><path fill="#F0F3FA" d="M0 0h18v18H0z"/><path d="M6 8H4.63c-1.36.98-1.65 2.06-1.63 2.48 0 1.3 1.5 1.55 2.26 1.52 2.22 0 4.9-1.1 5.74-1.6V8H9v1.2l-1 .68V8H7v1.2l-1 .68V8Z" fill="#00B4F6"/><path d="M7 7H5.63c.7-.67 4-2 6.44-2 1.95 0 2.41.93 2.4 1.39 0 1.5-1.38 2.85-2.47 3.46V7H9.67L9 8V7H7.67L7 8V7Z" fill="#245EA9"/><path d="M11.13 10.92a9.52 9.52 0 0 1-6.8 1.49c1.35 1.02 4.07.73 7.08-.9a8.69 8.69 0 0 0 3.25-2.85c.27-.44.34-.96.34-1.48V7c-.21.76-.53 1.67-3.87 3.92Z" fill="#245EA9"/></svg>