<!-- by TradingView --><svg width="18" height="18" viewBox="0 0 18 18" xmlns="http://www.w3.org/2000/svg"><path fill="#F0F3FA" d="M0 0h18v18H0z"/><path fill-rule="evenodd" d="M2 7h2.08a1.16 1.16 0 0 1 .8 2 1.15 1.15 0 0 1-.8 2H2V7Zm1 .79h.85a.44.44 0 1 1 0 .88H3v-.88Zm0 1.54h.87a.42.42 0 1 1 0 .84H3v-.84ZM7.37 11c1.07 0 1.94-.9 1.94-2s-.87-2-1.94-2c-1.07 0-1.94.9-1.94 2s.87 2 1.94 2Zm0-1c.54 0 .97-.45.97-1s-.43-1-.97-1a.99.99 0 0 0-.97 1c0 .55.43 1 .97 1Z" fill="#004EA1"/><path d="M12.5 7h-3v1h1v3h1V8h1V7ZM13 7h1v1.33h1V7h1v4h-1V9.33h-1V11h-1V7Z" fill="#004EA1"/></svg>