<!-- by TradingView --><svg width="18" height="18" viewBox="0 0 18 18" xmlns="http://www.w3.org/2000/svg"><path fill="#F0F3FA" d="M0 0h18v18H0z"/><path d="M4 9c0-.34.03-.68.1-1H9v-.5h4.77A5 5 0 0 1 14 9H4Zm8.57-3.5A5 5 0 0 1 13.58 7H4.42A5 5 0 0 1 5 6h4v-.5h3.57ZM9 4c1.13 0 2.16.37 3 1H6c.84-.63 1.87-1 3-1Zm0 5.5h4.98a4.97 4.97 0 0 1-.4 1.5h-.67a1.5 1.5 0 0 0-2.82 0H4.42a4.96 4.96 0 0 1-.32-1H9v-.5Zm1 2H9v.5H5a5 5 0 0 0 7.25.8A1.5 1.5 0 0 1 10 11.5Zm2.8.75c.2-.23.38-.48.53-.75H13c0 .27-.07.53-.2.75Z" fill="#052136"/></svg>