<!-- by TradingView --><svg width="18" height="18" viewBox="0 0 18 18" xmlns="http://www.w3.org/2000/svg"><path fill="#284D56" d="M0 0h18v18H0z"/><path fill-rule="evenodd" d="M6.03 14H9.96a.04.04 0 0 0 .04-.04V5a2.02 2.02 0 0 0-1.23-1.86c-.24-.1-.5-.15-.76-.15h-.02A1.98 1.98 0 0 0 6 5v8.96a.04.04 0 0 0 .01.03h.02Zm.65-.66.04.01h2.56l.04-.01a.06.06 0 0 0 .01-.04V5.06c0-.37-.14-.73-.39-1A1.29 1.29 0 0 0 8 3.65c-.36 0-.7.15-.94.41-.25.27-.4.63-.4 1v8.24l.02.04ZM11.99 8.12a.02.02 0 0 0 0 .03c2.27.92 2.72 3.64.83 5.1a3.65 3.65 0 0 1-2.48.74V5c0-.03.01-.05.05-.05 1.24-.09 2.25.61 2.3 1.74.02.54-.22 1.01-.7 1.43ZM12 6.74c0 .58-.4 1.03-.96 1.18a.03.03 0 0 1-.03 0 .03.03 0 0 1-.01-.03V6.74a625.25 625.25 0 0 1 .03-1.19h.01c.56.16.96.6.96 1.19Zm-.94 6.66c1.3-.24 2.27-1.19 2.27-2.46 0-1.26-.96-2.22-2.27-2.45a.05.05 0 0 0-.04 0l-.01.02v.02a924.97 924.97 0 0 1 0 4.86h.05Z" fill="#C6D4D8"/></svg>