<!-- by TradingView --><svg width="18" height="18" viewBox="0 0 18 18" xmlns="http://www.w3.org/2000/svg"><path d="M0 9a9 9 0 1 1 18 0A9 9 0 1 1 0 9Z" fill="#F0F3FA"/><path fill-rule="evenodd" d="M14 13H4V5h10v8Zm-1.15-4.27c.06.03.12.1.14.16.03.07 0 .13-.03.17l-.01.02a.3.3 0 0 1-.1.09c-.08.05-.19.09-.33.13-.21.07-.8.19-1.26.28a72.77 72.77 0 0 0-2.85.63c.17.35.47 1 .53 1.22.09.3-.34.46-.44.25a43.83 43.83 0 0 1-.61-1.34c-.8.22-1.13.36-1.33.48-.2.1-.3.21-.48.42-.22.23-.7.14-.5-.28.16-.34.58-.55.68-.6h.02c1.1-.57 3.72-1.01 4.64-1.16l.17-.03.53-.09c.45-.07.75-.12.7-.15a18.2 18.2 0 0 0-2.2-.28l-1.9-.15c-.35-.03-.48-.32-.22-.45l.8-.37a14 14 0 0 0 .71-.33c.14-.08.1-.12-.03-.13-1.33-.16-2.6.02-2.6.02l.22.38.12.23.83 1.57-.5.11c-.09-.2-1.46-2.78-1.59-3.02v-.02c-.08-.13-.07-.22.02-.26.1-.02.2.03.29.1a3.6 3.6 0 0 0 .4.53c.02.02.12 0 .3-.01.56-.05 1.79-.17 3.12.13.37.08.15.3-.08.45-.46.3-1.17.6-1.49.73a81.66 81.66 0 0 0 1.7.13c.98.09 2.25.23 2.63.44Z" fill="#38424B"/></svg>