<!-- by TradingView --><svg xmlns="http://www.w3.org/2000/svg" width="18" height="18"><path fill="#002E5F" d="M0 0h18v18H0z"/><path fill-rule="evenodd" d="M7.13 3h.75v1.02A.5.5 0 018 4h1.62c.28 0 .5.22.5.5v.68l1.76-1.75.53.53-.69.68a.5.5 0 01.13.1l1.18 1.17c.2.2.2.52 0 .71l-.5.5H15v.75h-1.02A.5.5 0 0114 8v1.62a.5.5 0 01-.5.5h-.62l1.76 1.77-.53.53-.68-.69a.5.5 0 01-.1.13l-1.17 1.18a.5.5 0 01-.7 0l-.57-.56V15h-.75v-1.02a.5.5 0 01-.12.02H8.39a.5.5 0 01-.5-.5v-.81l-1.8 1.8-.53-.53.69-.68a.5.5 0 01-.13-.1L4.94 12a.5.5 0 010-.7l.43-.43H3v-.75h1.02A.5.5 0 014 9.99V8.37c0-.28.22-.5.5-.5h.66L3.37 6.08l.54-.53.67.68a.5.5 0 01.09-.12l1.18-1.18c.2-.2.51-.2.7 0l.58.57V3zm-.47 7.05c.05.03.1.06.13.1l1.18 1.18a.5.5 0 01.1.12.5.5 0 01.32-.12h1.63a.5.5 0 01.17.03.5.5 0 01.11-.17L11.48 10l.01-.02a.5.5 0 01-.16-.37V8c0-.04 0-.08.02-.12a.5.5 0 01-.17-.1L10 6.58a.5.5 0 01-.05-.05.5.5 0 01-.33.13H8a.5.5 0 01-.19-.04.5.5 0 01-.1.15L6.52 7.96 6.5 8c.1.1.17.23.17.38V10a.5.5 0 010 .06zM9.6 4.67H7.89V6h1.7V4.67zm-1.18 8.66h1.7V12h-1.7v1.33zM4.67 10.1V8.4H6v1.7H4.67zm8.66-.5V7.89H12v1.7h1.33zM5.04 6.64l1.18-1.18.94.94-1.18 1.18-.94-.94zm6.73 5.93L13 11.34l-.94-.95-1.24 1.24.95.94zm-.44-7.46l1.24 1.23-.94.95-1.24-1.24.94-.94zm-5.9 6.48l1.24 1.23.94-.94-1.24-1.23-.94.94z" fill="#fff"/></svg>