<!-- by TradingView --><svg width="18" height="18" viewBox="0 0 18 18" xmlns="http://www.w3.org/2000/svg"><path fill="#F0F3FA" d="M0 0h18v18H0z"/><path d="M13 8.25 9 10.7v1.87l4-2.46V8.25Zm0 4.2L9 14.9v-1.87l4-2.46v1.87Zm2-1.26V7.01l-1.76 1.03v4.19L15 11.19Z" fill="#1A1D16"/><path d="M8.45 3 3 6.34l1.76 1.03 5.36-3.35L8.45 3ZM15 7l-1.76 1.03-2.75-1.73-3.5 2.28L5 7.55l5.5-3.3L15 7Zm-3.61.32L7.36 9.77l1.64.94 4-2.45-1.6-.94h-.01Z" fill="#F47920"/><path d="M7 8.57 5 7.55v2.92l2 1.02V8.57Zm-2.24 1.65L3 9.2V6.34l1.76 1.02v2.86ZM8.65 15v-1.86L3 9.66v1.86L8.65 15Z" fill="#A29A8B"/></svg>