<!-- by TradingView --><svg width="18" height="18" viewBox="0 0 18 18" xmlns="http://www.w3.org/2000/svg"><path fill="url(#a0etfhqau)" d="M0 0h18v18H0z"/><path fill-rule="evenodd" d="m2.53 11 .45-2.79L4.18 7h1.89c.3 0 .89.23.89 1.06 0 .35-.3.65-.45.76.15.12.45.5.45 1.1 0 .77-.51 1.08-1.17 1.08H2.53ZM4.2 8.67l.25-1.34h1.01c.16.01.48.14.48.55 0 .44-.43.7-.64.79h-1.1Zm-.42 2L4.12 9h1.02c.16.01.47.17.47.69 0 .54-.42.88-.64.98h-1.2Z" fill="#fff"/><path d="m2 8 .38-2H4L2 8Z" fill="#C01F25"/><path fill-rule="evenodd" d="m7.6 11 .75-4h2.45c.39-.03 1.17.14 1.17 1.09 0 1.18-.96 1.58-1.75 1.58H9.05L8.8 11H7.6Zm1.5-1.67.42-2h.75c.2.02.6.19.6.79 0 .74-.84 1.21-1.17 1.21h-.6Z" fill="#fff"/><path d="M15.25 11h-3.3v-.33h2.1c.27 0 .4-.38.19-.57l-1.56-1.42c-.62-.57-.26-1.68.55-1.68H16v.33h-2.13c-.26 0-.39.41-.2.6l1.97 1.97c.39.39.13 1.1-.4 1.1Z" fill="#fff"/><defs><linearGradient id="a0etfhqau" x1="3.35" y1="3.12" x2="21.9" y2="24.43" gradientUnits="userSpaceOnUse"><stop stop-color="#1A1E21"/><stop offset="1" stop-color="#06060A"/></linearGradient></defs></svg>