<!-- by TradingView --><svg width="18" height="18" viewBox="0 0 18 18" xmlns="http://www.w3.org/2000/svg"><path fill="#F0F3FA" d="M0 0h18v18H0z"/><path d="M7.5 7.8c-.12.1-.22.2-.3.33L5 7.17v-1.3L7.5 7.8ZM5.1 5l2.6 2.65c.1-.07.23-.13.36-.17L6.8 5H5.1Zm2.36 0 .85 2.42a1.72 1.72 0 0 1 .5 0L8.52 5H7.46ZM9.2 5l-.05 2.5c.1.03.2.07.3.13h.03L10.24 5H9.2Zm1.56 0-.97 2.9.14.15 2.05-2.72c-.34-.2-.75-.32-1.22-.33Zm1.72.76-2.43 2.48c.05.08.08.16.11.24l2.78-1.43v-.04c0-.47-.16-.9-.46-1.25Zm.34 1.84-2.6 1.12.03.26 1.59-.12c.34-.3.77-.74.98-1.26Zm-.92 1.59h-1.66c-.01.1-.03.19-.06.28l2.64.73c-.23-.45-.6-.8-.92-1.01Zm1.07 1.45-2.8-1.03-.19.33 2.71 2.13a1.88 1.88 0 0 0 .28-1.43Zm-.64 1.84-2.47-2.44c-.08.09-.18.17-.28.25L11.15 13h.03c.3-.05.76-.2 1.14-.52Zm-1.68.52L9.4 10.4c-.11.06-.23.1-.35.14L9.4 13h1.25Zm-1.89 0v-2.4a1.72 1.72 0 0 1-.37-.01L7.6 13h1.15Zm-1.71 0 1.1-2.46a1.68 1.68 0 0 1-.46-.2L5.23 13h1.8ZM5 12.24l2.49-2.04a1.62 1.62 0 0 1-.34-.4L5 10.93v1.31Zm0-1.97 2.05-.67c-.06-.15-.1-.31-.11-.48L5 9.22v1.05Zm0-1.44V7.7l2.08.64c-.07.15-.12.31-.14.49H5Z" fill="#EC1D23"/></svg>