<!-- by TradingView --><svg width="18" height="18" viewBox="0 0 18 18" xmlns="http://www.w3.org/2000/svg"><path fill="#F0F3FA" d="M0 0h18v18H0z"/><path d="M8.68 8.6c0-.17.13-.23.25-.23.13 0 .26.06.26.24v.12h.19c.64-1.5 4.4-3.73 4.84-3.73.45 0 .64.78.7 1.02.06.24.2.96-.13.96-.32 0-.38.3-.44.6-.05.25-.28.87-.32 1.15-.38.78-.83.6-.96.72-.1.1.32.18.58.48.44 1.26-.26 1.92-.45 2.22-.19.3-.95.9-1.72.85-.61-.05-1.9-1.43-2.3-2.1v1.25c0 .18-.1.24-.25.24s-.25-.06-.25-.24V10.9c-.74.7-1.46 2.05-1.97 2.05-.32 0-1.4-.06-2.04-.79-.64-.72-.7-1.38-.58-1.92.13-.54.32-.54.58-.78.25-.24-.58-.36-.9-.6-.31-.24-.12-.84-.18-1.26-.07-.43.19-.43-.13-.6-.32-.19-.32-.19-.45-.97-.1-.62.47-.86.77-.9 2.5.53 4.18 2.63 4.7 3.6h.2v-.11Z"/><path d="M8.85 8.49 7.4 5.84l1.36 2.77h.33l1.23-2.77L9.02 8.5h-.17Z"/><path d="M5.19 6c-.1.05-.22.14-.26.18-.02-.04-.1-.12-.25-.12-.2 0-.07.18-.13.3-.07.12-.32 0-.51 0-.2 0-.13.18-.06.36.06.18-.2.06-.26.18s.26.3.38.24c.13-.06.07-.36.2-.3.12.06.25 0 .44 0 .2 0 .2-.24.32-.24.13 0 .38.12.5.06.13-.06.2-.06.2-.18s.13-.12.25-.12c.13 0-.06-.24-.19-.36s-.19.06-.32.12c-.12.06-.19-.18-.31-.12ZM12.99 6c.1.05.21.14.25.18.02-.04.1-.12.26-.12.19 0 .06.18.13.3.06.12.31 0 .5 0 .2 0 .13.18.07.36-.07.18.19.06.25.18.07.12-.25.3-.38.24s-.06-.36-.19-.3-.26 0-.45 0-.19-.24-.31-.24c-.13 0-.39.12-.51.06-.13-.06-.2-.06-.2-.18s-.12-.12-.25-.12.06-.24.2-.36c.12-.12.18.06.31.12s.2-.18.32-.12Z" fill="#fff"/><path fill-rule="evenodd" d="M8.68 9.69v1.2l-1.6 1.5c-.25.25-.5.43-.7.3-.09-.05-.18-.16-.28-.27-.1-.1-.19-.2-.29-.27-.1-.06-.18-.02-.25 0-.07.04-.13.06-.2 0-.12-.12-.31-.3-.25-.54.03-.1-.03-.1-.12-.07-.1.02-.22.06-.26-.1-.05-.25-.02-.3.03-.37l.04-.06c.03-.06-.04-.07-.13-.1-.08 0-.16-.02-.2-.08-.06-.12 0-.36.2-.42.13-.04.08-.11.03-.17l-.03-.07-.01-.06c-.02-.13-.08-.42.14-.42.18 0 .26-.06.34-.12a.66.66 0 0 1 .1-.06c.13-.06 1.34-.06 1.34.06 0 .05-.04.08-.07.12-.06.05-.11.1 0 .18.2.12.32-.24.32-.3 0-.05 1.23-.02 1.85 0v.12Zm-2.61.48c-.15-.05-.02-.22.06-.3.13 0 .13.06.13.12s0 .24-.2.18Zm.13 1.02c-.05-.19.27-.32.44-.36.1 0 .12.07.15.15l.04.1c.07.11-.12.35-.32.35-.19 0-.25 0-.31-.24Zm-.2-.84c-.12 0-.36.02-.31.12.06.12.12.18.31.18a.7.7 0 0 1 .2.03c.08.03.15.05.19-.03.05-.1-.24-.24-.39-.3ZM9.19 9.67v1.2l1.6 1.5c.25.24.5.42.7.3.09-.06.18-.16.28-.27.1-.1.19-.2.28-.27.1-.06.19-.02.26 0 .07.04.13.06.19 0 .13-.12.32-.3.26-.54-.03-.1.03-.1.11-.07.1.02.23.06.27-.1.05-.25.02-.3-.03-.37a.72.72 0 0 1-.04-.06c-.03-.06.04-.08.13-.1.07 0 .16-.02.2-.08.06-.12 0-.36-.2-.42-.13-.04-.08-.11-.04-.17l.04-.07v-.06c.03-.13.08-.42-.13-.42a.52.52 0 0 1-.34-.12l-.1-.06c-.13-.06-1.34-.06-1.34.06 0 .04.04.08.07.12.06.05.11.1 0 .18-.2.12-.32-.24-.32-.3 0-.05-1.24-.02-1.85 0v.12Zm2.61.48c.15-.05.02-.22-.06-.3-.13 0-.13.06-.13.12s0 .24.19.18Zm-.13 1.02c.05-.2-.27-.32-.44-.36-.1 0-.12.07-.15.15a.87.87 0 0 1-.04.1c-.07.11.12.35.31.35.2 0 .26 0 .32-.24Zm.2-.84c.12 0 .36.02.31.12-.06.12-.13.18-.32.18-.07 0-.13.02-.19.03-.09.03-.15.04-.19-.03-.05-.1.23-.24.38-.3Z" fill="#DF751B"/><path d="M4.92 7.65c-.15.14-.32.1-.38.06-.08 0-.27.03-.32.18-.06.18.45.06.45.3s-.13.18-.26.18c-.12 0-.38-.18-.32.36.06.43.7.58 1.02.6h.9c.31 0 .5-.3 1.14-.3.64 0 .83.24 1.15.3.32.06.19-.06.19-.3S7.2 7.53 7.09 7.4c-.13-.12-.38 0-.7-.12-.32-.12-.45.18-.58.25-.12.06-.25-.13-.38-.25s-.32.18-.5.37ZM12.9 7.67c.16.15.33.1.39.06.08 0 .27.04.32.18.06.18-.45.06-.45.3s.13.18.26.18c.12 0 .38-.18.32.37-.06.43-.7.58-1.02.6h-.9c-.31 0-.5-.3-1.14-.3-.64 0-.83.24-1.15.3-.32.06-.19-.06-.19-.3s1.28-1.5 1.4-1.63c.13-.12.38 0 .7-.12.32-.12.45.18.58.24.12.06.25-.12.38-.24s.32.18.5.36Z" fill="#DF751B"/></svg>