<!-- by TradingView --><svg width="18" height="18" viewBox="0 0 18 18" xmlns="http://www.w3.org/2000/svg"><path fill="#F0F3FA" d="M0 0h18v18H0z"/><path d="M12 7h-1v4h1V9.57L13.5 11H15l-2.1-1.86L14.7 7h-1.2L12 8.67V7ZM7 7.92v1.85c.6-1.08 1.4-1.91 2.3-1.91.78 0 1 .37 1.2.52V7.31C10.2 7.2 9.68 7 8.85 7c-.9 0-1.55.62-1.85.92Z" fill="#877055"/><path d="M9.15 10.14c-.75 0-1.35-.78-1.35-1.3L7 10c.45.62 1.31 1 2.15 1 .84 0 1.25-.2 1.35-.3V9.45c-.3.3-.6.68-1.35.68Z" fill="#877055"/><path fill-rule="evenodd" d="M3.6 7H3v4h2.4c.45 0 1.2-.29 1.2-1.14 0-.69-.5-1.1-.75-1.15.15 0 .45-.17.45-.85 0-.69-.8-.86-1.2-.86H3.6Zm.4.57v1.14h.5c.2 0 .6-.11.6-.57 0-.45-.4-.57-.6-.57H4ZM4 9.3v1.14h.8c.2 0 .6-.23.6-.57 0-.35-.4-.57-.6-.57H4Z" fill="#877055"/></svg>