<!-- by TradingView --><svg width="18" height="18" viewBox="0 0 18 18" xmlns="http://www.w3.org/2000/svg"><path fill="#F0F3FA" d="M0 0h18v18H0z"/><path d="M4.47 4c.66.48.57 2.74.85 5.64a3.16 3.16 0 0 0 1.16 1.92 3.34 3.34 0 0 0 2.08.72h.97c1.7 0 3.13-1.22 3.31-2.84.23-2.42.16-4.53.68-5.44-3-1.09-5.84-1.16-9.05 0Z" fill="#12437D"/><path d="M4.45 3.86a12.44 12.44 0 0 1 9.07 0c.05.01.08.05.1.1.02.05.02.1 0 .15-.12.2-.21.5-.29.87-.08.37-.13.8-.18 1.3-.06.54-.1 1.14-.15 1.77l-.13 1.59c-.19 1.7-1.64 3-3.36 3h-.93a3.35 3.35 0 0 1-3.3-2.8l-.14-1.65c-.06-.8-.12-1.53-.2-2.16a8.48 8.48 0 0 0-.23-1.26c-.1-.33-.2-.52-.31-.6a.18.18 0 0 1 .05-.31Zm.37.24c.1.16.18.35.24.57.1.36.18.8.24 1.32.08.63.13 1.37.2 2.18l.14 1.63a2.95 2.95 0 0 0 1 1.77l.04.03a2.98 2.98 0 0 0 1.9.68h.93a3.02 3.02 0 0 0 3-2.68c.05-.53.1-1.06.13-1.57l.15-1.8c.05-.49.1-.94.19-1.32.06-.3.13-.57.23-.79a12.04 12.04 0 0 0-8.4-.02Z" fill="#030802"/><path d="m6.73 4.9-.25-.14-.25.14.05-.3-.2-.2.28-.04.13-.26.12.26.28.05-.2.2.04.3ZM11.82 5l-.31-.17-.31.16.06-.36-.25-.26.35-.04.16-.33.15.33.35.06-.26.25.06.36Zm-.31-.2.29.17-.05-.34.23-.23-.32-.06-.14-.3-.15.3-.33.05.24.24-.06.33.29-.15Z" fill="#FFEC00"/><path d="m11.76 4.9-.25-.14-.25.14.05-.3-.2-.2.28-.04.13-.26.12.26.28.05-.2.2.04.3ZM7.76 12.02l-.23.72c-.73-.18-1.23-.45-1.23-.45l-.24.53-.04-.03A6.71 6.71 0 0 1 4 10.69l1.17.18.4-.73a2.9 2.9 0 0 0 .93 1.25c.31.25.73.49 1.26.63ZM14 10.7a6.72 6.72 0 0 1-2.06 2.12l-.24-.53s-.52.22-1.25.4l-.21-.67c1.74-.46 2.18-1.88 2.18-1.88l.41.73L14 10.7Z" fill="#FFEC00"/><path d="m7.8 12.02-.3.98-1.52-1 1.82.02ZM10.24 12.02h1.78s-.5.48-1.51.98l-.27-.98Z" fill="#877E23"/><path d="M13.02 13.8S11.88 14.97 9 15c-2.88.03-4.02-1.16-4.02-1.16l.7-1.27c-.01-.01.02.01 0 0L6 12c.75.4 1.5 1 3 1 1.8 0 2.25-.64 3.1-1l.3.58c-.01.01 0 0 0 0l.62 1.22Z" fill="#12437D"/><path d="M7 7.32a6.46 6.46 0 0 1 4 0v3.45a8.92 8.92 0 0 1-4 0V7.32ZM8.7 5.15a.39.39 0 0 0-.12.27h-.15c0-.14.07-.27.17-.37.1-.1.24-.17.38-.17s.28.07.38.17c.1.1.17.23.17.37h-.14c0-.1-.05-.2-.13-.27a.41.41 0 0 0-.28-.13c-.1 0-.2.05-.28.13Z" fill="#FFEC00"/><path d="M8.05 4.92c-.22.2-.35.48-.35.73v1.61h-.14V5.65c0-.3.15-.6.38-.83.24-.23.58-.4.96-.4.47 0 .8.16 1.03.39.22.22.32.5.32.76v1.7h-.15v-1.7a.97.97 0 0 0-.28-.67c-.19-.2-.49-.34-.92-.34-.34 0-.64.15-.85.36Z" fill="#FFEC00"/><path fill="#FFEC00" d="M8.9 4.49h.16v.46H8.9z"/></svg>