<!-- by TradingView --><svg width="18" height="18" viewBox="0 0 18 18" xmlns="http://www.w3.org/2000/svg"><path fill="#F0F3FA" d="M0 0h18v18H0z"/><path d="M10.19 12.65c-1.9.34-3.04-.65-3.38-1.19-2.37 0-3.21.51-3.21.76 0 .26.68.68 2.53.77 1.49.07 3.32-.2 4.06-.34Z" fill="#D0AA5F"/><path fill-rule="evenodd" d="M4.44 5c-.28 0-.69.26-.08 1.28a17.87 17.87 0 0 0 5.74 5.69c-2.28-.96-6.89-3.43-7.1-5.6-.05-.49.16-1.43 1.44-1.37Zm-1.01.6c.14.56.76 2.05 2.11 3.48-.76-.5-1.97-1.94-2.11-2.55-.13-.6-.06-.88 0-.93Z" fill="#D0AA5F"/><path d="M12.8 12.56c.34-.54-.02-1.3-.25-1.61.2-.4.37-1.08.42-1.36 1.22 1.16 1.35 2.07 1.27 2.38.2-.27.25-.51.25-.6 0-.67-1.01-1.7-1.52-2.12v-.68c.68.51 2.03 1.8 2.03 2.89s-1.46 1.19-2.2 1.1Z" fill="#D0AA5F"/><path d="m8.24 5.85-2.1-.6 1.51.86.6-.26ZM10.35 5.77a7.64 7.64 0 0 0-1.26-.09c0 .26.59.09 1.01.17.34.07.09.17-.08.22.05.01.2.03.33 0 .17-.05.26.12.34.3.09.16.17.08.5.16.35.09.35.51.52.94.16.42.42.42.67.5.25.1.09-.16.25-.25.17-.08-.08-.34-.33-.5a3.45 3.45 0 0 1-.76-.86c-.07-.13-.31-.05-.43 0-.08-.08-.25-.29-.25-.42 0-.17-.17-.09-.5-.17ZM6.9 6.87c-.2 0-.43.51-.51.77.17-.26.33-.17.42-.09.08.09 0 .26 0 .6v.68c0 .25.42.6.59.68.17.08-.25-.34-.34-.51-.08-.17.42.34.68.6.25.25.25.16.84.08.6-.09.26.08.6.25.33.17.33 0 .42.09.08.08-.09.25 0 .5.08.26.25.43.84.6.6.17.25.42.25.93s.26.34.43.43c.16.08-.09-.34 0-.51.08-.17.33-.34.33-.51 0-.17.43-.68.6-1.27.16-.6-.09-.68-.17-.77-.09-.08-.17 0-.34 0s-.26.09-.42-.08c-.17-.17-.17 0-.34.08-.17.09-.34-.17-.5-.08-.18.08-.35.08-.6.17-.25.08-.08.25-.25.25-.17 0-.26 0-.43-.17-.16-.17-.33-.08-.42-.25-.08-.17-.17.17-.34.17-.16 0-.25-.17-.25-.43 0-.25.25-.25.5-.25h.35c.16 0-.09-.26 0-.68.08-.43.08-.34.25-.43.17-.08.08-.34-.09-.34-.16 0 .09-.17.17-.34.09-.17 0-.08-.33-.17-.34-.08-.26.09-.43.09-.17 0 0 .25 0 .34 0 .08 0 .17-.17.08-.16-.08-.25-.08-.42-.17-.17-.08.09-.25.09-.42 0-.17-.17-.17-.34-.09-.17.09.08.09.08.17 0 .09-.5 0-.76 0Z" fill="#0F1F41"/><path d="M8.5 6.02c-.2 0-.31.23-.34.34.14 0 .46.02.6.09.16.08.24.25.41.08.17-.17-.42-.5-.67-.5ZM7.99 6.53c.23 0 .64.05.5.26-.13.2-.39-.09-.5-.26Z" fill="#1E5478"/></svg>