<!-- by TradingView --><svg width="18" height="18" viewBox="0 0 18 18" xmlns="http://www.w3.org/2000/svg"><path fill="url(#ai52uusoy)" d="M0 0h18v18H0z"/><path d="M7 8.21A2.84 2.84 0 0 1 9.67 6.5c2.08 0 3.33 1.78 3.33 3.74C13 12.18 11.75 14 9.67 14c-1.2 0-2.18-.6-2.67-1.71V14H6V4h1v4.21Zm5 2.03c0-1.54-.87-2.94-2.51-2.94C7.86 7.3 7 8.75 7 10.24c0 1.52.87 2.94 2.49 2.94 1.65 0 2.51-1.4 2.51-2.94Z" fill="#F8F8F8"/><defs><linearGradient id="ai52uusoy" x1="3.35" y1="3.12" x2="21.9" y2="24.43" gradientUnits="userSpaceOnUse"><stop stop-color="#1A1E21"/><stop offset="1" stop-color="#06060A"/></linearGradient></defs></svg>