<!-- by TradingView --><svg width="18" height="18" viewBox="0 0 18 18" xmlns="http://www.w3.org/2000/svg"><path fill="url(#ai2doot4s)" d="M0 0h18v18H0z"/><path fill-rule="evenodd" d="M8.27 7.81a1.5 1.5 0 0 1-.6-.6l-1.15.27a.71.71 0 0 1-.21.62l.64 1.34a1.23 1.23 0 0 1 .67-.07l.65-1.56Zm-2.34.48.65 1.38c-.1.09-.17.19-.24.3L3.67 8.92l1.57-.94a.7.7 0 0 0 .69.3ZM3.55 9.33l2.65 1.04a1.24 1.24 0 0 0 .17.89l-1.41 1.46-1.4-3.4Zm1.7 3.7 1.42-1.46a1.23 1.23 0 0 0 .86.25l1.07 2.6-3.35-1.39Zm3.71 1.14L7.95 11.7c.36-.17.63-.52.68-.94h1.52c.05.08.11.15.18.2l-1.37 3.21Zm1.1-3.76c0-.16.05-.3.14-.43l-.83-2.02a1.5 1.5 0 0 1-.7 0l-.65 1.55c.33.19.56.52.61.9h1.43ZM7.5 6.5l.03-.3-2.24-.96.52 1.64h.01c.2 0 .37.08.5.2l1.2-.28a1.5 1.5 0 0 1-.02-.3Zm-2-1.63 2.17.93a1.5 1.5 0 0 1 1.15-.79V3.5L5.5 4.87Zm4.85.97a1.5 1.5 0 0 0-1.1-.82v-1.5l3.33 1.38-2.23.94Zm.15.66c0-.08 0-.17-.02-.25l2.23-.94-.76 1.98a.88.88 0 0 0-.93.2l-.66-.37c.1-.19.14-.4.14-.62Zm-.74 1.3c.14-.09.27-.2.37-.32l.67.38a.88.88 0 0 0 .46 1.05l-.37.8a.7.7 0 0 0-.33.03l-.8-1.95Zm.97 3.32-1.42 3.34 3.41-1.42-1.87-1.93a.72.72 0 0 1-.12 0Zm.53-.2 1.77 1.83 1.42-3.43-3 1.23a.7.7 0 0 1-.2.37Zm.14-.81L14.08 9l-1.66-.47a.88.88 0 0 1-.73.46l-.42.92c.05.05.1.12.13.19Zm1.13-1.98 1.92.54-1.33-3.21-.81 2.08c.14.15.22.35.22.58Zm-7.41-.58a.7.7 0 0 1 .29-.53l-.51-1.6-1.25 3 1.47-.87ZM9 3l4.24 1.76L15 9l-1.76 4.24L9 15l-4.24-1.76L3 9l1.76-4.24L9 3Z" fill="#fff"/><defs><linearGradient id="ai2doot4s" x1="15.05" y1="2.49" x2="2.55" y2="15.18" gradientUnits="userSpaceOnUse"><stop stop-color="#361C5B"/><stop offset="1" stop-color="#E7285B"/></linearGradient></defs></svg>