<!-- by TradingView --><svg width="18" height="18" viewBox="0 0 18 18" xmlns="http://www.w3.org/2000/svg"><path fill="#F0F3FA" d="M0 0h18v18H0z"/><path d="M13.84 8.59c.07.02.1.08.1.13.06.33.06.78.06.96-.1 2.49-2.45 4.34-4.84 4.32-.98 0-2-.4-2.67-1.1-.05-.05-.06-.15-.13-.2.09 0 .27-.1.27-.19.15.01.25.1.36.16.45.25 1.05.33 1.54.33 2.25 0 4.35-1.6 4.47-3.82v-1c0-.02.02-.03.05-.04.35 0 .51.3.8.45Z" fill="#DC291E"/><path d="M9.13 4c.77 0 1.53.31 2.2.69-.02.01-.18.48-.18.48-.53 0-1.03-.29-1.56-.29a4.51 4.51 0 0 0-4.7 4.59c0 .03-.01.06-.04.1-.11.12-.9-.3-.85-.58v-.44C4.25 6.2 6.17 4.1 8.57 4h.56Z" fill="#0039A5"/><path d="m7.15 11.87-.15-.7c-.01-.03.01-.05.05-.03.09.02.18.04.25.08.37.21.98.26 1.4.27 1.67 0 2.74-1.42 2.95-2.97 0-.05.08-.11.14-.1.14 0 .74.47.74.58-.03 1.01-.43 2.21-1.32 2.79-.66.44-1.33.74-2.14.74-.7 0-1.4-.2-1.92-.66Z" fill="#DC291E"/><path d="M6.5 9c-.02-.05-.74-.3-.8-.32-.04 0-.06-.05-.07-.09l-.01-.22c.02-1.67 1.6-2.9 3.22-2.9.71 0 1.37.27 2 .7l.13.1c-.13.05.04.2.03.29 0 .05-.07.09-.27.09a2.76 2.76 0 0 0-1.04-.3C8 6.31 6.5 7.22 6.5 9Z" fill="#0039A5"/><path d="M10 7.96c0 .06-.42.04-.48.04-.4 0-.73.2-1.02.5-.49.49-.5.94-.5 1.09-.25-.12-.88-.31-1-.59 0-.86.99-1.76 1.87-1.76.18 0 .83-.04.83.28.02.13.32.35.3.44Z" fill="#0039A5"/><path d="M8 10c.45 0 1.15-.21 1.5-.5.3-.25.46-.62.5-1.04 0-.03.01-.07.06-.03.2.09.94.2.94.5.06.92-.97 1.94-1.9 1.95-.22 0-.48-.06-.68-.13-.21-.08-.39-.55-.42-.75Z" fill="#DC291E"/></svg>