<!-- by TradingView --><svg width="18" height="18" viewBox="0 0 18 18" xmlns="http://www.w3.org/2000/svg"><path fill="#F0F3FA" d="M0 0h18v18H0z"/><path d="M13 11.83V4h-2v7.92c.66-.07 1.33-.1 2-.09Z" fill="#D9A901"/><path d="M10 12.08V7H8v5.39c.69-.14 1.35-.24 2-.31Z" fill="url(#ahsyixlfr)"/><path d="M6.41 12.93 7 12.8V6H5v7.33h.02c.45-.14.91-.28 1.39-.4Z" fill="#D9A901"/><path d="M7.42 12.77c-1.16.28-2.3.63-3.42 1.06V14c1.96-.43 3.96-.68 5.97-.75 1.04-.04 2.06-.04 3.03 0V12c-1.88.05-3.75.3-5.58.77Z" fill="#3B558E"/><defs><linearGradient id="ahsyixlfr" x1="9" y1="7" x2="9" y2="12.39" gradientUnits="userSpaceOnUse"><stop offset=".33" stop-color="#D8A800"/><stop offset="1" stop-color="#D8A800" stop-opacity="0"/></linearGradient></defs></svg>