<!-- by TradingView --><svg width="18" height="18" viewBox="0 0 18 18" fill="none" xmlns="http://www.w3.org/2000/svg"><path fill="#F0F3FA" d="M0 0h18v18H0z"/><path d="M7.7 9.51c.03.38-.93 1.08-1.41 1.38l.7.2c.6-.56.96-1 1.06-1.38.08-.33.02-.5.17-.77.26-.44.83-.87 1.34-1 .32-.07.73-.13 1.04-.51.4-.46.57-1.24.72-1.7l-.13-.02-.16.02a4.48 4.48 0 0 1-.61 1.43c-.28.38-.7.41-1.11.51-.4.1-.7.3-1 .57-.4.37-.66.8-.61 1.27Z" fill="#CD181E"/><path d="M14.19 7.63c.32-.83.4-1.61.2-2.24-.65-2.04-3.47-1.44-4.9-.67-1.73.93-3.03 2.66-3.95 4.38 1.08-1.84 3.35-3.6 5.53-3.9.78-.11 1.42.03 1.8.47.5.58.43 1.55-.1 2.62l1.42-.66Z" fill="#CD181E"/><path d="M3.81 10.37c-.32.83-.4 1.61-.2 2.24.65 2.04 3.47 1.44 4.9.67 1.73-.93 3.03-2.66 3.95-4.38-1.09 1.84-3.35 3.6-5.53 3.9-.78.11-1.42-.03-1.8-.47-.5-.58-.43-1.55.1-2.62l-1.42.66Z" fill="#034EA1"/><path d="M12.14 6.15c.82.92.07 2.92-1.68 4.49-1.75 1.56-3.83 2.09-4.65 1.18-.82-.92-.07-2.93 1.68-4.5 1.75-1.55 3.83-2.08 4.65-1.17Z" stroke="#000" stroke-width=".1"/><path d="M7.54 11.32h1.8M6.74 8.1v4.13M11.91 8.92V5.95" stroke="#000" stroke-width=".15"/><path d="M12 6.05H9.45L10 5.9h1.8l.2.15Z" fill="#000"/><path d="M7.83 9.87c-.03.7-.6 1.12-.88 1.25l.54.25c.86-.5.48-1.11.68-1.86.25-.53.9-.54 1.16-.8.22-.14.54-.4.86-.58.74-.15.9-.71.88-.97.51.03 1.04-.52 1.23-.8l-.14-.16-.11-.1c-.3.6-.8.83-1 .87-.18.55-.65.78-.86.82-.52.23-.75.63-1.34.86-.59.23-.97.36-1.02 1.22Z" fill="#034EA1"/><path d="M10.55 10.47c.23-.18.43-.37.62-.56-.2.25-.43.48-.68.71-1.74 1.6-3.83 2.16-4.66 1.26a1.2 1.2 0 0 1-.14-.18.76.76 0 0 1-.17-.45c-.11-.56.05-1.29.46-2.03-.25.6-.39 1.23-.32 1.73.24-.18.72-.16 1.28.04.42.14.76.37.93.61.8-.07 1.73-.34 2.68-1.13Z" fill="#000"/><path d="M10.19 5.8v5.07M8.47 6.57v5.32M5.81 9.51h5.7M7.08 7.7h5.29" stroke="#000" stroke-width=".15"/></svg>