<!-- by TradingView --><svg width="18" height="18" viewBox="0 0 18 18" xmlns="http://www.w3.org/2000/svg"><path fill="#F0F3FA" d="M0 0h18v18H0z"/><path fill-rule="evenodd" d="M15 9A6 6 0 1 1 3 9a6 6 0 0 1 12 0Zm-1 0A5 5 0 1 1 4 9a5 5 0 0 1 10 0Zm-6.64 2.3a.9.9 0 0 1-.11-.5c.97-.23 1.22-.74 1.22-1.25 0-.4-.22-.74-.34-.81l1.02-1.67c.02-.04.06-.07.1-.07h1.2c.04 0 .09.04.1.1l.38 1.42c.04.1.17.12.22.02l1.33-2.38c.1-.18.18-.15.22-.12l.5.8c.12.22.14.47.14.57l-1.66 2.95c-.02.04-.06.05-.1.05h-1.36c-.05 0-.1-.02-.12-.07l-.38-1.08a.12.12 0 0 0-.22-.02l-1.37 2.45a1.64 1.64 0 0 0-.37-.18c-.17-.06-.34-.13-.4-.21Zm-2.6-3.88V7.2c0-.11.09-.2.19-.2h2.6c.24.01.72.24.72 1.03 0 .32-.29.58-.43.67.14.09.43.4.43.96 0 .7-.78.94-1.2.94H4.94c-.1 0-.18-.09-.18-.2v-.21c0-.11.09-.19.19-.19h.17c.1 0 .17 0 .17-.1V7.83c0-.11-.1-.23-.2-.23h-.14c-.1 0-.19-.07-.19-.18ZM6 7.74v.72c0 .08.06.14.13.14h.82c.26 0 .46-.22.46-.5s-.2-.5-.46-.5h-.82c-.07 0-.13.06-.13.14Zm0 1.4v.72c0 .08.06.14.13.14h.82c.25 0 .45-.22.45-.5S7.2 9 6.95 9h-.82c-.07 0-.13.06-.13.14Z" fill="#0653A3"/></svg>