<!-- by TradingView --><svg width="18" height="18" viewBox="0 0 18 18" xmlns="http://www.w3.org/2000/svg"><path fill="#F0F3FA" d="M0 0h18v18H0z"/><path d="m4 8.87 1 .52V6.77L9 4.6V3.5L4 6.27v2.6Zm2.33 1.2-1-.5V7L9 5.03V6L6.33 7.5v2.59Zm.34-2.36L9 6.4v1.17l-1.33.73v1.48l1.33.74v.95l-2.33-1.21V7.71ZM4 9.3 9 12v2.49l-5-2.74V9.3Z" fill="#008CB4"/><path d="m14 8.87-1 .52V6.77L9 4.6V3.5l5 2.77v2.6Zm-2.33 1.2 1-.5V7L9 5.03V6l2.67 1.5v2.59Zm-.34-2.36L9 6.4v1.17l1.33.73v1.48L9 10.51v.95l2.33-1.21V7.71ZM14 9.3 9 12v2.49l5-2.74V9.3Z" fill="#373435"/></svg>