<!-- by TradingView --><svg width="18" height="18" viewBox="0 0 18 18" xmlns="http://www.w3.org/2000/svg"><path fill="#F0F3FA" d="M0 0h18v18H0z"/><path d="m10.53 13.13 2.3-3.91c-.23.29-.71.96-1.76.96-.84 0-1.73-.98-2.08-1.48L7.45 5.94A1.86 1.86 0 0 0 5.82 5H5.8c-.6 0-1.16.3-1.49.78-.38.55-.4 1.27-.06 1.85l3.22 5.5c.32.54.9.87 1.54.87.63 0 1.21-.33 1.53-.87Z" fill="url(#a)"/><path d="m7.47 13.13-2.3-3.91c.23.29.71.96 1.76.96.84 0 1.73-.98 2.08-1.48l1.54-2.76c.33-.58.95-.94 1.63-.94h.03c.6 0 1.16.3 1.49.78.38.55.4 1.27.06 1.85l-3.22 5.5c-.32.54-.9.87-1.54.87-.63 0-1.21-.33-1.53-.87Z" fill="url(#b)"/><defs><linearGradient id="a" x1="4.82" y1="5.76" x2="6.72" y2="10.62" gradientUnits="userSpaceOnUse"><stop stop-color="#03AE5F"/><stop offset="1" stop-color="#2084B8"/></linearGradient><linearGradient id="b" x1="13.65" y1="8.49" x2="9.54" y2="13.71" gradientUnits="userSpaceOnUse"><stop stop-color="#2D70E2"/><stop offset="1" stop-color="#03AF5D"/></linearGradient></defs></svg>