<!-- by TradingView --><svg width="18" height="18" viewBox="0 0 18 18" xmlns="http://www.w3.org/2000/svg"><path fill="url(#agtbt2yqv)" d="M0 0h18v18H0z"/><path d="M10 11.74c1.1-.73 2.35-1.38 2.61-2.8.04-.18.05-.44.05-.78v-1c0-.6-.44-1.16-1.04-1.16H10V5h1.5c1.45 0 2.25.8 2.25 2.43v.6c0 .47-.02.84-.06 1.08-.25 1.49-1.36 2.15-2.55 2.89H14v1h-4v-1.26ZM6.38 13C4.85 13 4 12.19 4 10.57V7.43C4 5.79 4.86 5 6.38 5H8v1H6.25C5.65 6 5 6.54 5 7.16v3.68c0 .62.65 1.16 1.25 1.16H8v1H6.38Z" fill="#E2E2E2"/><defs><linearGradient id="agtbt2yqv" x1="3.35" y1="3.12" x2="21.9" y2="24.43" gradientUnits="userSpaceOnUse"><stop stop-color="#1A1E21"/><stop offset="1" stop-color="#06060A"/></linearGradient></defs></svg>