<!-- by TradingView --><svg width="18" height="18" viewBox="0 0 18 18" xmlns="http://www.w3.org/2000/svg"><path fill="#F0F3FA" d="M0 0h18v18H0z"/><path d="M9 11.62c-2.78-.1-5-1.99-5-4.3C4 4.92 6.34 3 9.22 3c1.77 0 3.32.72 4.27 1.82l-1.5 1.3A3.78 3.78 0 0 0 9.2 5C7.31 5 5.9 6.12 5.9 7.5 5.9 8.84 7.23 9.93 9 10v1.62Z" fill="#404041"/><path d="M9 6.38c-2.79.13-5 2-5 4.3C4 13.08 6.37 15 9.3 15c1.7 0 3.2-.65 4.17-1.65L11.87 12c-.6.6-1.58.99-2.67.99-1.86 0-3.3-1.12-3.3-2.5C5.9 9.17 7.24 8.08 9 8V6.38Z" fill="#98CA3C"/><path d="M9.5 11.62c2.26-.18 4-1.28 4-2.62s-1.74-2.44-4-2.62V8c1.45.05 2.58.48 2.58.99s-1.13.94-2.58 1v1.62Z" fill="#269DA9"/></svg>