<!-- by TradingView --><svg width="18" height="18" viewBox="0 0 18 18" xmlns="http://www.w3.org/2000/svg"><path fill="#FFC02E" d="M0 0h18v18H0z"/><path d="M9.17 12.5c0 .02 0 .04.02.04a4.3 4.3 0 0 0 3.53-.33c.11-.06.2-.03.26.09a.15.15 0 0 1-.03.17c-.42.41-.84.82-1.27 1.21a.95.95 0 0 1-.65.3c-.8.05-1.55-.01-2.24-.18a4.6 4.6 0 0 1-3.19-2.5A5.47 5.47 0 0 1 5 9.05c-.01-.51 0-1.03.07-1.56.16-1.24.74-2.82 1.99-3.34.27-.12.63-.17 1.08-.14.57.03.99.4 1.24.87.03.05.1.06.14.02l.79-.78a.45.45 0 0 1 .48-.08c.36.15.74.34 1.15.5.15.06.27.05.38-.02a4.3 4.3 0 0 0 .52-.4c.07-.02.13.02.15.08l.01.06c0 .05-.02.1-.05.15l-.7.95c-.1.14-.2.22-.29.26a.6.6 0 0 1-.44.01c-.2-.07-.55-.25-1.05-.47-.31-.14-.6-.1-.84.11-.28.25-.65.64-.57 1.02l.22.6 1.3 3.18c.08.17.05.36-.08.56-.29.42-.69.96-1.21 1.63a1.2 1.2 0 0 0-.12.24Zm-1.1-5.09c-.17-.36-.32-.62-.06-.9L9.04 5.4a.22.22 0 0 0 .04-.23c-.28-.68-.95-1.1-1.69-.69C6.1 5.2 6 6.71 6 8.02a4.56 4.56 0 0 0 2.69 4.33c.03 0 .06-.01.08-.03.6-.61.83-1.38.58-2.17-.1-.3-.18-.57-.34-.86a36.3 36.3 0 0 1-.94-1.88Z" fill="#222221"/></svg>