<!-- by TradingView --><svg width="18" height="18" viewBox="0 0 18 18" xmlns="http://www.w3.org/2000/svg"><path fill="#F0F3FA" d="M0 0h18v18H0z"/><path d="M8 7.97a1.8 1.8 0 0 1-1.5 1.8c-.54.12-1.41.44-1.41 1.23H8v1H4v-1.01c0-1.25.98-2.01 2-2.22.4-.1 1-.3 1-.8 0-.63-.73-.99-1.17-.96-.42.01-.83.25-1.11.63L4 7.01c.47-.63 1.14-1 1.83-1C6.9 5.93 7.97 6.7 8 7.96ZM9.01 9.58c-.15.18-.24.43-.24.67 0 .35.36.82.9.75H12v1h1v-1h1v-1h-1V6.85c-.01-.5-.4-.84-.9-.85-.34 0-.68.16-.9.44L9 9.58ZM12 7.1V10h-2l2-2.9Z"/></svg>