<!-- by TradingView --><svg width="18" height="18" viewBox="0 0 18 18" xmlns="http://www.w3.org/2000/svg"><path fill="#F0F3FA" d="M0 0h18v18H0z"/><path fill-rule="evenodd" d="M13 5H5v8h8V5Zm-5.8 6.87c.12.1.37.12.58.13h.32c1.1 0 1.98-.87 1.98-1.9 0-.7-.77-.93-1.47-.12-.3.34-.6.87-.49.87.04 0 .18-.2.32-.44.32-.54.8-.87 1.2-.83.23.02.23.22.22.35v.05c0 .63-.79 1.77-1.66 1.77-.22 0-.44 0-.66-.13-.23-.13-.23-.25-.23-.38 0-.38.12-.8.5-1.48l.34-.61.58-.15a5.5 5.5 0 0 0 2.85-1.7c.45-.53.53-.86.28-1.12-.35-.36-1.62-.17-2.54.54a20.6 20.6 0 0 0-1.76 1.96l-.17.2c-.1.12-.33.09-.59-.1a1.32 1.32 0 0 1-.46-.96c0-.35.26-.78.6-.99a2.16 2.16 0 0 1 1.58-.1c.3.12.4.02.1-.1-.91-.4-2.13 0-2.53.83a.98.98 0 0 0-.03.77c.15.43.4.67.9.81l.27.09L7 9.7c-.42 1.01-.38 1.72.2 2.16Zm3.3-5.37c-.68.25-1 .57-1.7 1.64l-.26.4c-.14.2-.24.35-.26.4-.13.19 1.72-.55 2.22-.94.88-.7 1.22-1.06 1.22-1.38 0-.44-.56-.35-1.22-.12Z" fill="#103257"/><path fill-rule="evenodd" d="M13.5 4.5h-9v9h9v-9ZM4 4v10h10V4H4Z" fill="#103257"/></svg>