<!-- by TradingView --><svg width="18" height="18" viewBox="0 0 18 18" xmlns="http://www.w3.org/2000/svg"><path fill="#F0F3FA" d="M0 0h18v18H0z"/><path d="M9 4.69C6.12 4.69 3.8 6.63 3.8 9c0 2.37 2.32 4.31 5.2 4.31 2.88 0 5.2-1.94 5.2-4.31 0-2.37-2.35-4.31-5.2-4.31Zm3.33 6.25c-.12-.13-.27-.13-.48.03-.77.5-1.63.81-2.52.87a4.3 4.3 0 0 1-3.12-.9 2.46 2.46 0 0 1-.63-3.1c.6-1.12 2.14-1.71 3.54-1.68.89.03 1.78.22 2.61.6.12.02.24 0 .3-.1l.12.06-.65 1.06-.18-.1c.12-.15.03-.4-.78-.65a5.62 5.62 0 0 0-2.49-.1c-.68.16-1.87.63-1.93 1.98-.06 1.34 1.13 2.28 2.76 2.28s2.35-.66 2.53-.82c.09-.09.11-.25.06-.37l.08-.06c.18.22.87.93.87.93l-.1.07Z" fill="#455560"/><path d="M8.81 5.29c-1.96 0-3.65.87-4.45 2.25.68-1.6 2.52-2.72 4.7-2.72 2.72 0 4.95 1.84 4.95 4.12 0 .66-.18 1.28-.5 1.81.2-.43.3-.9.3-1.4 0-2.28-2.23-4.06-5-4.06Z" fill="#7B8B96"/><path d="M4.78 12.56A4.6 4.6 0 0 1 3 9a4.6 4.6 0 0 1 1.78-3.56A6.55 6.55 0 0 1 9 4c1.51-.03 3 .5 4.22 1.44A4.56 4.56 0 0 1 15 9a4.6 4.6 0 0 1-1.78 3.56A6.55 6.55 0 0 1 9 14c-1.51.03-3-.5-4.22-1.44Zm.24-6.8A4.3 4.3 0 0 0 3.39 9a4.21 4.21 0 0 0 1.63 3.25A6.32 6.32 0 0 0 9 13.62a6.26 6.26 0 0 0 3.98-1.37A4.23 4.23 0 0 0 14.58 9a4.21 4.21 0 0 0-1.63-3.25A6.09 6.09 0 0 0 9 4.41a6.11 6.11 0 0 0-3.98 1.34Z" fill="#455560"/></svg>