<!-- by TradingView --><svg width="18" height="18" viewBox="0 0 18 18" xmlns="http://www.w3.org/2000/svg"><path fill="#F0F3FA" d="M0 0h18v18H0z"/><path d="M9.44 9.3a.41.41 0 0 1 0-.6l3.4-3.33a.43.43 0 0 1 .61 0l.42.42c.17.16.17.42 0 .59l-3.4 3.33a.43.43 0 0 1-.6 0l-.43-.41Z" fill="#1292BA"/><path d="M9.86 8.3a.43.43 0 0 1 .6 0l3.41 3.32c.17.17.17.43 0 .6l-.42.4a.43.43 0 0 1-.6 0L9.44 9.3a.41.41 0 0 1 0-.6l.42-.4Z" fill="#61C6E0"/><path d="m11.2 9-.73.7a.43.43 0 0 1-.6.01l-.43-.41a.41.41 0 0 1 0-.6l.42-.41a.43.43 0 0 1 .6 0l.73.71Z" fill="#008BAE"/><path d="M8.7 8.56c.17.17.43.17.6 0l3.33-3.4a.43.43 0 0 0 0-.61l-.42-.42a.41.41 0 0 0-.59 0L8.3 7.53a.43.43 0 0 0 0 .6l.41.43Z" fill="#B7D378"/><path d="M9.7 8.14a.43.43 0 0 0 0-.6L6.39 4.12a.41.41 0 0 0-.6 0l-.4.42a.43.43 0 0 0 0 .6L8.7 8.56c.17.17.43.17.6 0l.4-.42Z" fill="#6C972E"/><path d="m9.71 8.14-.41.42a.41.41 0 0 1-.6 0l-.4-.42a.43.43 0 0 1 0-.6L9 6.8l.7.72c.17.17.17.44.01.6Z" fill="#4E9033"/><path d="M9.3 9.44a.41.41 0 0 0-.6 0l-3.33 3.4a.43.43 0 0 0 0 .61l.42.42c.16.17.42.17.59 0l3.33-3.4a.43.43 0 0 0 0-.6l-.41-.43Z" fill="#F58057"/><path d="M8.3 9.86a.43.43 0 0 0 0 .6l3.32 3.41c.17.17.43.17.6 0l.4-.42a.43.43 0 0 0 0-.6L9.3 9.44a.41.41 0 0 0-.6 0l-.4.42Z" fill="#EF5518"/><path d="M9 9.31c.1 0 .21.04.3.13l.4.42c.17.17.17.44 0 .6l-.7.73-.7-.72a.43.43 0 0 1 0-.6l.4-.43A.41.41 0 0 1 9 9.3Z" fill="#EA3518"/><path d="M8.56 8.7c.17.17.17.43 0 .6l-3.4 3.33a.43.43 0 0 1-.61 0l-.42-.42a.41.41 0 0 1 0-.59l3.4-3.33a.43.43 0 0 1 .6 0l.43.41Z" fill="#DD2A54"/><path d="M8.14 9.7a.43.43 0 0 1-.6 0L4.12 6.39a.41.41 0 0 1 0-.6l.42-.4a.43.43 0 0 1 .6 0L8.56 8.7c.17.17.17.43 0 .6l-.42.4Z" fill="#EA6B93"/><path d="m6.81 9 .72-.7a.43.43 0 0 1 .6 0l.43.4c.17.17.17.43 0 .6l-.42.41a.43.43 0 0 1-.6 0L6.8 9Z" fill="#DC104A"/></svg>