<!-- by TradingView --><svg width="18" height="18" viewBox="0 0 18 18" xmlns="http://www.w3.org/2000/svg"><path fill="#F0F3FA" d="M0 0h18v18H0z"/><path d="M9.94 6.84a976.07 976.07 0 0 0 6.05 2.17L9 12c-.02 0-.03 0-.03-.02l-.05-.4c-.01-.08-.06-.13-.13-.16a1681.5 1681.5 0 0 1-4.7-1.67 1534.61 1534.61 0 0 1-2.08-.76L9 6c.02 0 .03 0 .03.02l.05.4c.01.08.06.13.13.16l.73.26Z" fill="#0061A5"/><path d="M9.02 6.69c.01.04.05.07.11.09a1955.76 1955.76 0 0 1 5.39 1.87h-.01L8.83 7a.05.05 0 0 1-.03-.02c-.03-.06-.04-.15 0-.27a2.5 2.5 0 0 1 .12-.36c.03-.05.04-.05.04 0 0 .13.02.24.06.34Z" fill="#F0F3FA"/><path fill-rule="evenodd" d="M8.05 6.62c-.08-.03-.18-.01-.31.04l-.02.01a.96.96 0 0 0-.2.1c-.08.06-.1.11-.05.17.05.08.09.12.12.13.07.03.18.02.31-.04h.02l.2-.11c.07-.06.09-.11.05-.17-.05-.07-.1-.12-.12-.13Zm-.42.21.07.1c.04.04.07.06.1.06.09 0 .16-.04.2-.1v-.03a1 1 0 0 0-.07-.1c-.03-.04-.07-.06-.1-.05-.08 0-.15.03-.2.09v.03Z" fill="#F0F3FA"/><path d="m6.91 7.2.2-.1c.02 0 .03-.02.01-.03L7.06 7c-.02-.02-.01-.03.01-.04l.11-.05c.03-.02.05-.01.07.01l.2.27c.02 0 .02.02 0 .02l-.14.07-.03-.01-.08-.1c-.01-.02-.03-.03-.06-.02l-.2.09c-.02.01-.02.03 0 .04l.07.08c.02.02.02.04 0 .05l-.13.05-.05-.01-.2-.26c-.02-.02-.02-.03 0-.04l.13-.06.04.01.06.08c0 .02.03.02.05.01ZM6.33 7.34c-.01 0-.02.02 0 .03l.18.22-.01.04-.14.05h-.04l-.18-.23c-.01-.02-.02-.02-.04-.01l-.18.08c-.02 0-.03 0-.03-.02v-.04l.58-.24h.03v.02c.02.01.01.02 0 .03l-.17.07ZM5.41 7.83c.06 0 .11.02.17.04.02 0 .02 0 0-.01l-.17-.19v-.01l.17-.07h.02l.23.29-.01.03-.12.05h-.13a14.54 14.54 0 0 0-.35-.07l.18.18v.02l-.17.07H5.2l-.23-.29.01-.03.12-.05c.03-.02.07-.02.13 0l.17.04Z" fill="#F0F3FA"/><path fill-rule="evenodd" d="M4.58 8.36c0-.02 0-.03.02-.03l.18-.09h.04l.06.04h.06l.14-.06V8.2L4.65 8h-.04l-.2.1c-.02 0-.02.01-.02.02v.37c.01.02.02.02.04.02l.15-.07.02-.03-.02-.05Zm-.01-.1h.02l.11-.04c.02-.01.02-.02 0-.03l-.13-.08h-.02l.02.14Z" fill="#F0F3FA"/><path d="M4.07 8.55h-.01V8.5l.15-.06.04.01c.02.06-.01.12-.11.17a.8.8 0 0 1-.39.13c-.04 0-.09-.03-.13-.08a.44.44 0 0 1-.08-.12v-.04c.04-.06.12-.12.25-.17.13-.06.23-.07.3-.06.06.02.06.04 0 .07L4 8.4h-.04c-.06-.04-.13-.02-.21.06-.02.01-.02.03 0 .05l.1.12.03.02c.08.01.14-.01.2-.06v-.04Z" fill="#F0F3FA"/><path fill-rule="evenodd" d="M10.42 9c0 .16.05.3.15.4.09.1.2.17.33.2.23.05.43-.01.6-.18l.04-.02h.44l.01.01v.02c-.18.32-.42.5-.72.55-.23.04-.45.02-.66-.07a.98.98 0 0 1-.42-.34.95.95 0 0 1 0-1.15.98.98 0 0 1 .42-.33c.22-.09.44-.11.67-.07.3.06.54.24.72.56v.02h-.46l-.03-.01a.63.63 0 0 0-.6-.19.61.61 0 0 0-.34.19.58.58 0 0 0-.15.4Zm-3.2-.47c0-.06-.03-.1-.08-.14a.46.46 0 0 0-.38-.03c-.07.02-.1.06-.13.1-.05.12-.01.2.12.26.08.03.14.05.18.05.3.04.53.1.67.2.2.14.27.33.18.6a.54.54 0 0 1-.26.28 1.1 1.1 0 0 1-.4.13c-.28.04-.52.02-.73-.08A.62.62 0 0 1 6 9.38l.01-.01h.5l.02.01c0 .16.1.25.3.28.07 0 .15 0 .23-.02.09-.03.15-.07.18-.13.04-.09.03-.16-.02-.22a.43.43 0 0 0-.23-.12c-.02 0-.06 0-.1-.02a2.26 2.26 0 0 1-.54-.17c-.18-.1-.26-.23-.25-.4 0-.15.06-.27.17-.37.1-.09.23-.15.4-.18.25-.05.48-.04.68.04.23.08.36.24.4.47 0 .01 0 .02-.02.02h-.47c-.02 0-.04-.01-.04-.03ZM8 8.02 8.01 8h.93c.26 0 .49.1.67.28.2.18.28.41.28.68v.07c0 .27-.09.5-.27.68a.91.91 0 0 1-.67.29h-.93L8 9.98 8 8.02Zm.47.34.03-.01h.38c.16 0 .3.06.4.18a.6.6 0 0 1 .17.42v.12a.6.6 0 0 1-.17.42.53.53 0 0 1-.4.17H8.5l-.02-.01V8.36ZM14.41 9.26c-.07-.03-.18-.02-.31.04h-.02a.95.95 0 0 0-.2.11c-.08.05-.1.1-.06.17l.12.13c.08.03.18.02.32-.04l.02-.01.2-.1c.07-.06.09-.11.05-.17-.05-.07-.09-.12-.12-.13Zm-.07.2c-.05-.07-.09-.1-.12-.12-.03 0-.1.01-.17.05-.04.02-.06.03-.06.05l.02.06c.05.08.1.12.13.12.03.01.09 0 .17-.04l.06-.05c0-.01 0-.03-.03-.06Z" fill="#F0F3FA"/><path d="M9.05 11.34c-.01-.04-.05-.07-.12-.09A1827.11 1827.11 0 0 1 3.6 9.4h.01l5.63 1.63c.02 0 .03.02.03.03.04.05.04.14 0 .27a2.42 2.42 0 0 1-.12.35c-.02.05-.03.05-.03 0 0-.13-.03-.24-.06-.34ZM13.43 9.6l.14-.06h.03l.22.28v.03l-.15.07-.03-.01-.1-.12h-.02l-.22.1c-.01 0-.02 0 0 .02l.08.1v.03l-.15.07-.03-.01-.23-.28.01-.03.15-.06h.02l.08.1h.03l.22-.09c.01 0 .02-.01 0-.03l-.06-.08V9.6ZM12.86 10.26l-.15.07h-.02l-.2-.26h-.02l-.2.09-.02-.01v-.04l.58-.26h.02l.02.03v.02l-.19.08V10l.19.24v.02ZM11.77 10.46l.17.05c.02 0 .02 0 0-.01l-.17-.19v-.01l.17-.07h.02l.23.28-.01.03a2.2 2.2 0 0 0-.12.06h-.13a113.4 113.4 0 0 0-.35-.07l.18.18v.02l-.17.07h-.02l-.23-.29.01-.03.12-.05c.03-.02.07-.02.13 0l.17.03Z" fill="#F0F3FA"/><path fill-rule="evenodd" d="m10.77 11.15.17-.07v-.1l.02-.02.19-.08h.01l.1.05h.02l.16-.07v-.02l-.44-.2H11l-.23.1v.4h.01Zm.16-.26c0 .01 0 .02.02.01l.11-.04c.02-.01.02-.02 0-.03l-.13-.08h-.02l.02.14Z" fill="#F0F3FA"/><path d="M10.43 11.23v-.05c-.02-.02-.02-.03 0-.03l.14-.06c.02-.01.03 0 .04.01.02.06-.01.12-.11.17a.81.81 0 0 1-.38.12c-.05 0-.1-.02-.14-.07a.43.43 0 0 1-.08-.13v-.03c.04-.07.12-.12.25-.18.13-.05.23-.07.3-.05.06.02.07.04 0 .07l-.1.04h-.04c-.06-.04-.13-.02-.2.05-.03.02-.03.04-.01.05l.1.13.04.02c.07 0 .14-.01.19-.06Z" fill="#F0F3FA"/></svg>