<!-- by TradingView --><svg width="18" height="18" viewBox="0 0 18 18" xmlns="http://www.w3.org/2000/svg"><path fill="#F0F3FA" d="M0 0h18v18H0z"/><path fill-rule="evenodd" d="M9 14c3.87 0 7-2.24 7-5s-3.13-5-7-5-7 2.24-7 5 3.13 5 7 5ZM6.61 6.87a2.24 2.24 0 0 0-.72-1.04.94.94 0 0 1 1.14.23c.16-.24.77-.73 1.9-.73 1.43 0 2.95.7 2.95 1.74 0 .84-.93 1.44-1.4 1.64 1.33.4 1.76 1.25 1.8 1.63-.42.17-.89.25-1.07.27.16-1.1-1.17-1.57-1.82-1.61l-.34-.5h.43c.92 0 1.62-.7 1.62-1.27 0-.58-.83-1.57-2.17-1.57-1.07 0-1.44.65-1.5.97-.26.03-.65.18-.82.24Zm.35 2.17c0-.83-.12-1.36-.18-1.51.25-.16.46-.23.55-.25v1.06c0 .18.21.2.29.2h.73l.3.46H7.33c0 2.12.9 3.17 2.19 3.17 1.02 0 1.5-.69 1.61-1.05a9.2 9.2 0 0 0 1.14-.28c-.34 1.45-1.61 1.83-2.53 1.83a3.7 3.7 0 0 1-1.54-.37v.17l-.2.1c-.1-.14-.31-.4-.68-.4a.73.73 0 0 0-.56.26l-.04.04-.07.08c-.05.06-.1.12-.18.12-.1 0-.16-.1-.17-.14.7-.85.69-2.07.67-3.06v-.43ZM4 9.03c0-.77 1.97-2.44 4.97-2.44.47.01 1.5.06 1.9.22.1.08.14.3.15.4a7.21 7.21 0 0 0-1.9-.26c-1.85 0-3.53.88-3.53 1.94 0 .85.86 1.43 1.3 1.61 0 .12-.03.31-.05.43l-.02.11C6.02 11.04 4 9.66 4 9.03Zm5.1 1.94c-.66 0-1.21-.18-1.41-.26.01.1.07.33.2.53a9.33 9.33 0 0 0 5.53-1.03.73.73 0 0 0-.02.2c0 .18.11.37.34.37.18 0 .24-.13.24-.19 0-.08-.06-.24-.35-.2 0-.07.01-.24.12-.37l.25-.18-.27-.2c-.72.91-3.79 1.33-4.62 1.33Zm4.62-3.08.22.14-.25.18a4.1 4.1 0 0 0-1.76-.79c.03-.16.03-.3.02-.36.47.13 1.04.41 1.47.66a.72.72 0 0 1-.02-.18c0-.19.11-.38.34-.38.18 0 .24.13.24.2 0 .08-.06.24-.35.2 0 .06.01.2.09.33ZM8 10.34l-.2.21.18.12.12-.17.2.21.2-.16-.17-.27V9.1H8v1.24Zm0-1.86V7.8l-.25-.23.12-.25c.04.03.13.1.23.1.08 0 .13-.07.18-.12l.03-.03.22.15-.14.25c.47.65 1.28 1.96 1.28 1.96v-.51c.02 0 .15.01.33.06v1.44l-.2.1L8.34 8.4v.08H8Zm2-.13c-.1.05-.27.07-.33.08v-.65c0-.2-.17-.37-.26-.44l.15-.15c.03.05.12.15.24.15.13 0 .23-.09.26-.13l.13.13-.19.2v.81Z" fill="#A03225"/></svg>