<!-- by TradingView --><svg width="18" height="18" viewBox="0 0 18 18" xmlns="http://www.w3.org/2000/svg"><path fill="#F0F3FA" d="M0 0h18v18H0z"/><path d="M11 5.88A4.5 4.5 0 0 0 8.31 5C5.94 5 4 6.8 4 9.01 4 11.21 5.94 13 8.3 13c1.02 0 1.96-.33 2.7-.87v-1.77a4.24 4.24 0 0 1-2.7 1.07c-1.44 0-2.62-1.09-2.62-2.43s1.18-2.44 2.63-2.44c.9 0 2 .43 2.69 1.08V5.88Z" fill="#6D6E71"/><path d="M15 8.68c-1.13 0-4.27.03-4.8-.08a8.3 8.3 0 0 1-.79-.22C8.86 8.2 8.64 8 8.08 8 7.22 8 7 8.43 7 9.03c0 .6.26.97 1.08.97.5 0 .9-.2 1.64-.4 1.07-.26 1.97-.2 3.07-.22H15v-.7Z" fill="#E08253"/></svg>