<!-- by TradingView --><svg width="18" height="18" viewBox="0 0 18 18" xmlns="http://www.w3.org/2000/svg"><path fill="#F0F3FA" d="M0 0h18v18H0z"/><path d="M9.5 14.98a6 6 0 1 1-1-11.96 6 6 0 0 1 1 11.96Z" fill="#FDEF00"/><ellipse cx="8.98" cy="9.06" rx="5.69" ry="5.68" fill="#008AE8"/><path d="M9.22 4.2h.41a.02.02 0 0 1 .01.03l-.33.23a.02.02 0 0 0 0 .02l.12.4a.02.02 0 0 1-.03.01l-.33-.24a.02.02 0 0 0-.02 0l-.33.24a.02.02 0 0 1-.03-.02l.13-.39a.02.02 0 0 0 0-.02l-.34-.24a.02.02 0 0 1 .01-.03h.41a.02.02 0 0 0 .02-.01l.13-.39a.02.02 0 0 1 .02-.01.02.02 0 0 1 .01.01l.13.39a.02.02 0 0 0 .01.01Z" fill="#FDEF00"/><path d="M9.4 13.02A3.94 3.94 0 0 1 5.49 11a4.03 4.03 0 0 1 .36-4.43 3.95 3.95 0 0 1 7.05 2.04 4.01 4.01 0 0 1-3.48 4.42Z" fill="#FDEF00"/><path d="M11.13 5.81h.03a3.75 3.75 0 0 1 1.61 2.46l.07.54c0 .05-.02.08-.07.08H9.1c-.03 0-.04-.01-.02-.04l2.03-2.98v-.03l-.01-.01h-.01a163.26 163.26 0 0 0-2.12 3.04l-2.12-3.1c-.02-.03-.02-.06.02-.08a4.17 4.17 0 0 1 1.97-.56c.24 0 .44-.01.7.03.54.1 1.04.29 1.5.57l.05.07.03.01ZM6.46 5.99l.3-.21h.05L8.9 8.87a.02.02 0 0 1 0 .02.02.02 0 0 1-.01 0H5.1a.05.05 0 0 1-.05-.04c.01-.17.03-.4.08-.58L5.17 8a3.6 3.6 0 0 1 .98-1.73L6.46 6Z" fill="#F90000"/><path d="M5.34 9.88a.28.28 0 0 0-.15 0c-.05 0-.08-.03-.08-.09-.02-.28-.1-.56-.05-.81 0-.02.01-.03.03-.03h5.97c.57 0 1.17.04 1.76.04h.01v.02c.02.29 0 .57-.06.85 0 .02-.02.02-.03.02h-2.8v-.01a.95.95 0 0 0-.09-.28c-.07-.16-.22-.1-.36-.14a.34.34 0 0 0-.17-.01.51.51 0 0 0-.38.36.03.03 0 0 1-.04 0 .18.18 0 0 1-.04-.1.19.19 0 0 0-.14-.17 2.1 2.1 0 0 1-.27-.09c-.21-.08-.48.13-.56.3a.67.67 0 0 1-.1.13.06.06 0 0 1-.04.02l-2.4-.01Z" fill="#008AE8"/><path d="M8.7 9.6c.03 0 .07.02.1.07.07.15.12.46-.02.57a.1.1 0 0 1-.1.02.1.1 0 0 1-.06-.06c-.04-.12-.07-.25-.19-.33-.1-.08-.21-.02-.24.1-.05.25-.05.96.4.86.07-.01.11-.1.18-.14.02 0 .03 0 .04.02.05.24-.04.42-.25.53-.32.16-.57-.05-.7-.35a1.28 1.28 0 0 1-.01-.96.7.7 0 0 1 .38-.43c.05-.02.1-.03.15-.02.11.01.18.1.27.12h.05ZM9 10.53l.02-.01c0 .13.05.25.14.37.06.08.23.16.3.04.04-.06.04-.12-.02-.17-.14-.13-.36-.2-.42-.4a.81.81 0 0 1 .02-.63c.1-.23.29-.3.54-.2l.13.01h.03l.01.03c.08.1.18.33.09.46a.07.07 0 0 1-.06.03.08.08 0 0 1-.06-.03l-.17-.2a.11.11 0 0 0-.17.02c-.07.12.02.19.12.25.17.1.28.16.34.33.13.37-.03.95-.54.86-.17-.03-.31-.08-.33-.26a2.43 2.43 0 0 0-.04-.27c-.02-.08.03-.14.07-.19l.01-.03v-.01Z" fill="#F90000"/><path d="M5.34 9.88h.29c.07 0 .1.04.1.12v.5c0 .14.04.17.18.18a4.44 4.44 0 0 0 .68 0 .07.07 0 0 1 .05.07v.58c0 .02 0 .03.03.03h.02l1.53.02.06.03-1.03.01c-.02 0-.03.01-.03.03v.64c.01.02.02.03.04.03h.47c.06 0 .09.03.09.09v.53a.06.06 0 0 1-.08.06 3.96 3.96 0 0 1-2.58-2.83c0-.04 0-.07.03-.1h.15Z" fill="#CBF1FE"/><path d="m7.75 9.96-.06.65v.01H5.8a.02.02 0 0 1-.02-.01v-.65a.02.02 0 0 1 .02-.02h1.92a.02.02 0 0 1 .01 0 .02.02 0 0 1 0 .02ZM9.02 10.52h-.01c-.03 0-.06 0-.08.02-.05.05-.07.09-.13.08l-.46.01c-.02 0-.04 0-.04-.03-.07-.16-.1-.35-.07-.55.01-.1.07-.14.17-.11.04 0 .06.03.08.06a43.74 43.74 0 0 1 .16.31c.06.02.13.02.19 0l.02-.04c0-.03 0-.04.02-.05v-.01h.02a.02.02 0 0 1 .02.01l.11.3ZM10 10.66h1.1v-.03H10a.04.04 0 0 1-.04-.03c-.05-.12-.05-.32-.21-.41a.61.61 0 0 1-.14-.11.1.1 0 0 0-.05-.02.2.2 0 0 1-.12-.08c-.02-.02-.01-.03 0-.04.1-.03.16 0 .2.1.01.04.06.07.14.1h.04c.04-.01.08-.07.11-.16 0-.02.02-.03.04-.03h2.11l.01.02v.62c0 .02-.01.02-.03.02a4.72 4.72 0 0 0-.9-.02c-.01 0-.02.01-.02.04v.65c0 .04-.03.07-.07.07l-1.47.03c-.08 0-.08-.02-.01-.06a.68.68 0 0 0 .3-.34c.04-.07.05-.18.06-.27 0-.03.02-.05.05-.05Z" fill="#008AE8"/><path d="m11.82 11.73-.48.44c-.1.09-.21.16-.33.23a39.38 39.38 0 0 0-.47.25 15.63 15.63 0 0 0-.53.19.05.05 0 0 1-.02-.05v-.6a.04.04 0 0 1 .04-.04h.52l.05-.03a.07.07 0 0 0 .02-.05v-.64a.05.05 0 0 1 .05-.04h.46a.07.07 0 0 0 .07-.08v-.59a.06.06 0 0 1 .06-.06h.82a.08.08 0 0 0 .08-.08V10a.05.05 0 0 1 .01-.03.05.05 0 0 1 .04-.02h.48a.05.05 0 0 1 .05.07 6.25 6.25 0 0 1-.38.95.83.83 0 0 0-.07.12.46.46 0 0 1-.06.12c-.07.08-.14.17-.2.27-.06.09-.13.17-.21.25Z" fill="#CBF1FE"/><path d="M8.66 10.66c0 .03 0 .06-.03.08a.19.19 0 0 1-.1.04H8.5c-.04 0-.08 0-.11-.02s-.05-.04-.05-.07v-.01l.3-.02ZM8.22 11.38l-1.53-.03v-.64a.04.04 0 0 1 .04-.04H7.68c.03-.02.04 0 .05.02.08.28.21.54.49.66l.01.02v.01ZM9.45 10.85v.01a.11.11 0 0 1-.04.04.14.14 0 0 1-.06.01H9.3a.2.2 0 0 1-.06-.03l-.01-.01a.2.2 0 0 1-.08-.1.12.12 0 0 1 .02-.11h.01l.28.19ZM8.92 11.07c0 .1.16.22.24.25.12.04.11.06-.02.06a12.15 12.15 0 0 0-.65-.02c-.02 0-.02-.02 0-.03.18-.06.3-.18.37-.34.01-.02.03-.02.04 0a.2.2 0 0 1 .02.08ZM7.22 12.05v-.6c0-.02.01-.03.03-.03l1.03-.01 2.24-.01h.02l.01.03v.6a.03.03 0 0 1-.02.03h-3.3ZM9.87 12.13H7.9a.05.05 0 0 0-.05.05v.63c0 .02.03.04.06.04h1.96c.03 0 .05-.02.05-.05v-.62a.05.05 0 0 0-.05-.05Z" fill="#008AE8"/><path d="M5.14 6.82a4.44 4.44 0 0 0 3.79 6.72 4.43 4.43 0 0 0 3.94-6.45l.62-.32a5.14 5.14 0 0 1-4.56 7.47 5.13 5.13 0 0 1-4.39-7.78l.6.36Z" fill="#FDEF00"/></svg>