<!-- by TradingView --><svg width="18" height="18" viewBox="0 0 18 18" xmlns="http://www.w3.org/2000/svg"><path fill="#F0F3FA" d="M0 0h18v18H0z"/><path fill-rule="evenodd" d="M9 5 6.3 9 9 13l2.7-4L9 5Zm0 .63L6.72 9 9 12.37 11.28 9 9 5.63Z" fill="#D9231F"/><path d="M10.65 10.53 12.31 13 15 9l-2.69-4-1.66 2.47.21.32 1.45-2.16L14.58 9l-2.27 3.37-1.45-2.16-.21.32ZM3 9l2.69-4 1.65 2.46-.21.31-1.44-2.14L3.42 9l2.27 3.37 1.44-2.14.2.31L5.7 13 3 9Z" fill="#D9231F"/><path fill="#D9231F" fill-opacity=".5" d="M5 8h1v2H5zM8 8h2v2H8zM12 8h1v2h-1z"/></svg>