<!-- by TradingView --><svg width="18" height="18" viewBox="0 0 18 18" xmlns="http://www.w3.org/2000/svg"><path fill="#003D35" d="M0 0h18v18H0z"/><path d="M12.95 6.21c-.01-.21.05-1.1-.04-1.28-.09-.18-.3.17-.63.03-.28-.13-.45-.26-1.16-.6A4.14 4.14 0 0 0 6.13 5.6c-1.85 2.27-1.41 7.19 1.21 8.11 2.62.93 4.85-.7 4.98-.79.23-.16.56-2.65.02-1.65-.87 1.64-1.56 2.23-3.12 2.3C6.79 13.66 6 11.02 6 9c0-2.37 1.05-4.47 3.26-4.55a3.5 3.5 0 0 1 3.3 2.24c.15.41.24.66.33.66.08 0 .11-.2.11-.2l-.05-.94Z" fill="#fff"/></svg>