<!-- by TradingView --><svg width="18" height="18" viewBox="0 0 18 18" xmlns="http://www.w3.org/2000/svg"><path fill="#F0F3FA" d="M0 0h18v18H0z"/><path d="M10 4.78c0-.87-.58-1.55-.87-1.78.16.17.46.65.46 1.16 0 .64-.56 1.76-1.62 2.7C6.9 7.82 6 9.06 6 10.3c0 1 .96 1.55 1.44 1.7-.23-.12-.64-.56-.64-1.3 0-.94.48-1.94 1.29-2.84.8-.9 1.91-2 1.91-3.08ZM8 13.22c0 .87.58 1.55.87 1.78a1.95 1.95 0 0 1-.46-1.16c0-.64.56-1.76 1.62-2.7C11.1 10.18 12 8.94 12 7.7c0-1-.96-1.55-1.44-1.7.23.12.64.56.64 1.3 0 .94-.48 1.94-1.29 2.84-.8.9-1.91 2-1.91 3.08Z" fill="#92C045"/><path d="M9 3.79A.88.88 0 0 0 8.5 3c.06.12.13.36.13.57 0 .27-.24 1-1.1 1.7C6.67 6 6 6.93 6 7.35c0 .35.23.58.35.66a1.1 1.1 0 0 1-.08-.41c0-.37.35-.96 1.42-1.88C8.76 4.8 9 4.36 9 3.8ZM9 14.21c0 .46.33.72.5.79a1.51 1.51 0 0 1-.13-.57c0-.27.24-1 1.1-1.7.86-.72 1.53-1.65 1.53-2.07a.82.82 0 0 0-.35-.66c.03.06.08.23.08.41 0 .37-.35.96-1.42 1.88C9.24 13.2 9 13.64 9 14.2Z" fill="#2B5092"/></svg>