<!-- by TradingView --><svg width="18" height="18" viewBox="0 0 18 18" xmlns="http://www.w3.org/2000/svg"><path fill="#F0F3FA" d="M0 0h18v18H0z"/><path d="M4 4.77A.8.8 0 0 1 4.81 4h8.38a.8.8 0 0 1 .81.77v8.46a.8.8 0 0 1-.81.77H4.8a.8.8 0 0 1-.81-.77V4.77Z" fill="#EF4923"/><path d="M10.67 4c-.42 1.45-1.29 4.02-2.05 5.02-1.02 1.33-3.15 3.6-4.62 4v.2c0 .43.36.78.81.78h1.01c1.95-.4 5.04-1.38 6.26-3.14.6-.86 1.28-1.8 1.92-2.69v-3.4a.8.8 0 0 0-.81-.77h-2.52Z" fill="#A6CE39"/><path d="M10.97 4A12 12 0 0 1 4 13.12v-.21C8.43 10.68 9.9 6.18 10.12 4h.85ZM6.46 14h-1.2C7.6 13.62 12 11.92 14 7.47v1.81c-1.02 1.46-3.85 4.26-7.54 4.72Z" fill="#27A44A"/></svg>