<!-- by TradingView --><svg xmlns="http://www.w3.org/2000/svg" width="18" height="18"><path fill="#F0F3FA" d="M0 0h18v18H0z"/><path d="M15.31 9.65c.78-1.08.25-2.27-1.36-3.23 1.97.8 3.06 1.98 2.46 3.1-.92 1.77-5.5 3.28-10.02 2.98-2.32-.15-4.11-1-5.29-1.7.89.35 1.78.64 2.84.83 4.15.74 10-.08 11.37-1.98zM10.6 5.07h.04l.47.1-.32-.13a.69.69 0 01.3 0c.3.04.5.11.89.29l.77.37-.05-.01.23.11.05.02.03.01.28.15.09.04c.13.07.28.15.32.22l-.01.03c-.09.03-.5-.1-.8-.18 0 0-1.86-.6-2.06-.69-.2-.08-.31-.13-.38-.2-.05-.07 0-.14.15-.13zm2.4.72l-.07-.03-.23-.1.05.01a1.8 1.8 0 001.01.03.9.9 0 01.32-.03c.11.01.33.08.33.08l-.65.36c-.2-.13-.47-.22-.73-.31h-.02z" fill="#ED1B2D"/><path d="M8.32 10.24c-1.3 0-1.76-.57-1.11-1.42.64-.84 1.72-1.16 3.06-1.16.75 0 1.43.2 1.74.51l.83-1.09c-.52-.37-1.31-.41-1.93-.41-.78 0-1.54.1-2.27.33-1.41.42-2.39.95-3.06 1.83-.36.48-.52.9-.49 1.25.06.71.86 1.14 2.29 1.14.9 0 1.73-.14 2.8-.47l.83-1.09c-.87.29-1.76.58-2.69.58z" fill="#050000"/></svg>