<!-- by TradingView --><svg width="18" height="18" viewBox="0 0 18 18" xmlns="http://www.w3.org/2000/svg"><path fill="#009FE3" d="M0 0h18v18H0z"/><path d="M4.73 6.87c.06.13.16.23.27.3a.59.59 0 0 0 .72-.1c.1-.1.17-.23.2-.36a.8.8 0 0 0-.01-.42.72.72 0 0 0-.22-.34.6.6 0 0 0-.72-.05.72.72 0 0 0-.3.43.8.8 0 0 0 .06.54Z" fill="url(#aecta0lfw)"/><path d="M11.59 10.91h-.09l.08-.04a.98.98 0 0 0 .3-.26 1.08 1.08 0 0 0 .2-.78 1.1 1.1 0 0 0-.12-.4 1.02 1.02 0 0 0-.25-.3.88.88 0 0 0-1.08-.05c-.03 0-.05.03-.08.05l.06-.08c.11-.24.14-.52.07-.78a1.03 1.03 0 0 0-.44-.61.89.89 0 0 0-.7-.11.96.96 0 0 0-.59.45l-.03.1V8a1.09 1.09 0 0 0-.3-.71.91.91 0 0 0-.66-.29c-.24 0-.48.1-.66.29-.18.19-.28.44-.3.7v.1L6.98 8a.96.96 0 0 0-.58-.43.89.89 0 0 0-.7.11c-.2.13-.36.35-.43.6-.07.26-.05.54.07.77l.05.08-.07-.05a.9.9 0 0 0-.73-.1.93.93 0 0 0-.33.17c-.1.08-.19.19-.25.3v1.05c.08.16.2.3.35.39l.08.04h-.1a.85.85 0 0 0-.33.06v1.94a.87.87 0 0 0 .94-.16c.16-.15.28-.35.33-.58.05-.23.02-.48-.07-.69a1 1 0 0 0-.45-.48c.17.01.35-.03.51-.12a1 1 0 0 0 .38-.4 1.11 1.11 0 0 0-.04-1.1.89.89 0 0 0 1.03.05A1 1 0 0 0 7 9.02c.09-.17.12-.37.1-.57.08.18.2.33.35.43a.89.89 0 0 0 1.02 0c.15-.1.28-.25.35-.43-.01.2.02.4.1.57a1 1 0 0 0 .37.42.89.89 0 0 0 1.02-.05 1.1 1.1 0 0 0-.03 1.1 1 1 0 0 0 .38.4c.15.09.33.13.51.11a1 1 0 0 0-.46.54c-.09.24-.1.5-.02.74s.23.44.44.56c.2.12.44.16.67.1.23-.05.43-.2.56-.4a1.1 1.1 0 0 0-.15-1.38.9.9 0 0 0-.63-.26v.01Z" fill="url(#becta0lfw)"/><path d="M13.3 8.68a.68.68 0 0 0-.28-.29.6.6 0 0 0-.71.1.8.8 0 0 0-.19.77c.04.15.12.26.22.35.1.09.23.14.35.15a.6.6 0 0 0 .37-.1c.15-.1.26-.25.3-.43a.8.8 0 0 0-.06-.55Z" fill="url(#cecta0lfw)"/><path d="M7.96 10c-.63 0-1.23.23-1.67.64-.45.41-.7.97-.7 1.55a2 2 0 0 0 .18.81h4.39a2.03 2.03 0 0 0-.24-2.04c-.21-.3-.5-.54-.85-.7a2.52 2.52 0 0 0-1.1-.26Z" fill="url(#decta0lfw)"/><path d="M4.35 7.93c.06-.06.1-.14.1-.23a.45.45 0 0 0-.04-.26.38.38 0 0 0-.18-.17.32.32 0 0 0-.23-.01v.78c.06.02.13.02.19 0a.35.35 0 0 0 .16-.1Z" fill="url(#eecta0lfw)"/><path d="M12.75 10.57c.01.07.05.13.1.18.04.05.1.08.17.09a.3.3 0 0 0 .18-.04c.06-.03.1-.08.14-.14a.4.4 0 0 0-.03-.4.33.33 0 0 0-.15-.12.3.3 0 0 0-.19 0 .3.3 0 0 0-.1.05.35.35 0 0 0-.1.11.39.39 0 0 0-.02.27Z" fill="url(#fecta0lfw)"/><path d="M13.38 11.25a.6.6 0 0 0-.36.12c-.1.08-.19.2-.24.32a.8.8 0 0 0-.03.42c.02.14.08.27.17.37.1.1.21.17.34.2.12.02.25 0 .37-.05a.67.67 0 0 0 .29-.26.78.78 0 0 0-.08-.91.62.62 0 0 0-.46-.21Z" fill="url(#gecta0lfw)"/><path d="M14.68 12.28c.18 0 .32-.16.32-.36 0-.2-.14-.36-.32-.36s-.33.16-.33.36c0 .2.15.36.33.36Z" fill="url(#hecta0lfw)"/><path d="M13.54 7.65a.34.34 0 0 0-.1.1.38.38 0 0 0-.05.26c0 .04.01.09.04.13.02.04.05.08.08.1.03.03.07.06.11.07a.3.3 0 0 0 .25-.04.36.36 0 0 0 .15-.22.4.4 0 0 0-.03-.27.35.35 0 0 0-.09-.1.31.31 0 0 0-.11-.07.3.3 0 0 0-.25.04Z" fill="url(#iecta0lfw)"/><path d="M10.47 7.14a.6.6 0 0 0 .72-.05c.1-.09.18-.2.22-.34a.8.8 0 0 0 0-.42.74.74 0 0 0-.19-.35.59.59 0 0 0-.71-.1.68.68 0 0 0-.28.28.78.78 0 0 0-.06.55c.02.09.06.17.11.25.05.07.12.14.2.18Z" fill="url(#jecta0lfw)"/><path d="M11.76 7.96c.18 0 .33-.16.33-.36 0-.2-.15-.36-.33-.36-.17 0-.32.16-.32.36 0 .2.15.36.32.36Z" fill="url(#kecta0lfw)"/><path d="M11.28 5.75a.3.3 0 0 0 .25.04.31.31 0 0 0 .1-.06.35.35 0 0 0 .1-.11.39.39 0 0 0 .02-.27.38.38 0 0 0-.05-.13.34.34 0 0 0-.1-.1.3.3 0 0 0-.24-.03.33.33 0 0 0-.2.17.4.4 0 0 0-.03.27c.02.1.08.17.15.22Z" fill="url(#lecta0lfw)"/><path d="M4.81 5.75c.06-.03.1-.09.13-.15a.4.4 0 0 0-.05-.4.32.32 0 0 0-.16-.1.3.3 0 0 0-.19 0 .33.33 0 0 0-.15.12.4.4 0 0 0-.02.4c.04.08.11.14.2.17a.3.3 0 0 0 .24-.04Z" fill="url(#mecta0lfw)"/><path d="M9.41 6.15a.3.3 0 0 0 .19 0 .32.32 0 0 0 .15-.13.4.4 0 0 0 .03-.4.34.34 0 0 0-.14-.14.3.3 0 0 0-.19-.04.31.31 0 0 0-.17.1.37.37 0 0 0-.1.18.39.39 0 0 0 .04.26c.02.04.05.08.08.1a.3.3 0 0 0 .11.07Z" fill="url(#necta0lfw)"/><path d="M7.88 4.72a.3.3 0 0 0 .18-.06c.06-.04.1-.1.12-.16a.4.4 0 0 0 .02-.21.37.37 0 0 0-.1-.19.31.31 0 0 0-.16-.1.3.3 0 0 0-.19.03.34.34 0 0 0-.14.14.4.4 0 0 0 .05.45c.06.06.14.1.22.1Z" fill="url(#oecta0lfw)"/><path d="M6.64 6.37a.36.36 0 0 0 .19-.12.46.46 0 0 0 .06-.46.4.4 0 0 0-.15-.18.34.34 0 0 0-.42.03.42.42 0 0 0-.12.2.47.47 0 0 0 0 .24c.02.1.08.2.17.25.08.05.18.07.27.04Z" fill="url(#pecta0lfw)"/><path d="M7.88 6.52a.6.6 0 0 0 .36-.12.7.7 0 0 0 .24-.32.8.8 0 0 0 .04-.42.75.75 0 0 0-.18-.37.63.63 0 0 0-.33-.2.59.59 0 0 0-.38.05.67.67 0 0 0-.29.26.78.78 0 0 0 .08.91c.13.13.29.21.46.21Z" fill="url(#qecta0lfw)"/><defs><linearGradient id="aecta0lfw" x1="3.98" y1="6.52" x2="15.8" y2="6.52" gradientUnits="userSpaceOnUse"><stop stop-color="#F39200"/><stop offset="1" stop-color="#FCEA10"/></linearGradient><linearGradient id="becta0lfw" x1="4.01" y1="9.98" x2="15" y2="9.98" gradientUnits="userSpaceOnUse"><stop stop-color="#F39200"/><stop offset="1" stop-color="#FCEA10"/></linearGradient><linearGradient id="cecta0lfw" x1="3.38" y1="9.03" x2="15.21" y2="9.03" gradientUnits="userSpaceOnUse"><stop stop-color="#F39200"/><stop offset="1" stop-color="#FCEA10"/></linearGradient><linearGradient id="decta0lfw" x1="4.01" y1="11.5" x2="15" y2="11.5" gradientUnits="userSpaceOnUse"><stop stop-color="#F39200"/><stop offset="1" stop-color="#FCEA10"/></linearGradient><linearGradient id="eecta0lfw" x1="4.01" y1="7.65" x2="15" y2="7.65" gradientUnits="userSpaceOnUse"><stop stop-color="#F39200"/><stop offset="1" stop-color="#FCEA10"/></linearGradient><linearGradient id="fecta0lfw" x1="4.78" y1="10.48" x2="14.63" y2="10.48" gradientUnits="userSpaceOnUse"><stop stop-color="#F39200"/><stop offset="1" stop-color="#FCEA10"/></linearGradient><linearGradient id="gecta0lfw" x1="3.23" y1="11.97" x2="15.06" y2="11.97" gradientUnits="userSpaceOnUse"><stop stop-color="#F39200"/><stop offset="1" stop-color="#FCEA10"/></linearGradient><linearGradient id="hecta0lfw" x1="3.14" y1="11.92" x2="15" y2="11.92" gradientUnits="userSpaceOnUse"><stop stop-color="#F39200"/><stop offset="1" stop-color="#FCEA10"/></linearGradient><linearGradient id="iecta0lfw" x1="3.16" y1="7.96" x2="15.03" y2="7.96" gradientUnits="userSpaceOnUse"><stop stop-color="#F39200"/><stop offset="1" stop-color="#FCEA10"/></linearGradient><linearGradient id="jecta0lfw" x1="3.57" y1="6.52" x2="15.44" y2="6.52" gradientUnits="userSpaceOnUse"><stop stop-color="#F39200"/><stop offset="1" stop-color="#FCEA10"/></linearGradient><linearGradient id="kecta0lfw" x1="4.75" y1="7.6" x2="14.61" y2="7.6" gradientUnits="userSpaceOnUse"><stop stop-color="#F39200"/><stop offset="1" stop-color="#FCEA10"/></linearGradient><linearGradient id="lecta0lfw" x1="3.59" y1="5.44" x2="15.44" y2="5.44" gradientUnits="userSpaceOnUse"><stop stop-color="#F39200"/><stop offset="1" stop-color="#FCEA10"/></linearGradient><linearGradient id="mecta0lfw" x1="4.06" y1="5.44" x2="15.92" y2="5.44" gradientUnits="userSpaceOnUse"><stop stop-color="#F39200"/><stop offset="1" stop-color="#FCEA10"/></linearGradient><linearGradient id="necta0lfw" x1="4.81" y1="5.81" x2="14.39" y2="5.81" gradientUnits="userSpaceOnUse"><stop stop-color="#F39200"/><stop offset="1" stop-color="#FCEA10"/></linearGradient><linearGradient id="oecta0lfw" x1="3.69" y1="4.36" x2="15.48" y2="4.36" gradientUnits="userSpaceOnUse"><stop stop-color="#F39200"/><stop offset="1" stop-color="#FCEA10"/></linearGradient><linearGradient id="pecta0lfw" x1="4.01" y1="5.98" x2="15" y2="5.98" gradientUnits="userSpaceOnUse"><stop stop-color="#F39200"/><stop offset="1" stop-color="#FCEA10"/></linearGradient><linearGradient id="qecta0lfw" x1="3.63" y1="5.8" x2="15.45" y2="5.8" gradientUnits="userSpaceOnUse"><stop stop-color="#F39200"/><stop offset="1" stop-color="#FCEA10"/></linearGradient></defs></svg>