<!-- by TradingView --><svg width="18" height="18" viewBox="0 0 18 18" xmlns="http://www.w3.org/2000/svg"><path fill="#F0F3FA" d="M0 0h18v18H0z"/><path d="M9.39 5.01c-.46.19-.83.5-1.12.87-.42.5-.82 1-1.52 1.17h-.01v-.01c.46-.32.71-.69 1-1.21.02-.05.08-.11.16-.2a2.4 2.4 0 0 1 1.5-.62h-.01Z" fill="url(#acw1rhtzh)"/><path d="M9.08 5.74c-.13.07-.26.13-.38.21a7.11 7.11 0 0 0-.69.54c.56-1.1 1.68-1.75 3-1.26-.7 0-1.34.18-1.93.51Z" fill="url(#bcw1rhtzh)"/><path d="M8.36 6.51c.98-.83 2-1.4 3.4-.98a3.55 3.55 0 0 0-2.17.75l-.54.36a3.17 3.17 0 0 1-1.9.47c.25-.05.5-.14.74-.3.25-.14.4-.24.47-.3Z" fill="url(#ccw1rhtzh)"/><path d="M6.54 6.4a2.57 2.57 0 0 1 1.3-.95c-.27.18-.48.41-.64.7-.29.52-.55.97-1.25 1.1l-.01-.01v-.01l.04-.02a42.33 42.33 0 0 1 .56-.8Z" fill="url(#dcw1rhtzh)"/><path d="M10.56 6.45c-.47.29-1.1.57-1.68.45.3-.08.55-.2.79-.38.21-.17.44-.37.67-.48.25-.12.54-.2.85-.24.5-.06 1.33-.03 1.71.34v.01a2.95 2.95 0 0 0-2.34.3Z" fill="url(#ecw1rhtzh)"/><path d="M9.76 7.02V7h.01c.33.06.83-.11 1.12-.25l.44-.22c.9-.38 2.07-.29 2.66.5v.02A3.72 3.72 0 0 0 12 7.05c-.23.06-.53.17-.76.21-.51.1-1.04.04-1.49-.24Z" fill="url(#fcw1rhtzh)"/><path d="M8.61 7.42a2.97 2.97 0 0 0-1.09.03c.61-.31 1.32-.47 2-.3.13.03.32.1.55.21.54.26 1.08.58 1.67.64.02 0 .02 0 0 0-.8.09-1.45-.04-2.19-.3-.31-.1-.63-.24-.94-.28Z" fill="url(#gcw1rhtzh)"/><path d="M6.91 7.5h.01v.03l-.2.07a.05.05 0 0 0-.02.02.06.06 0 0 1-.06.02h-.03c-.27.14-.56.23-.86.3-.02 0-.03 0-.02-.03l.2-.3v-.04l-.07-.11a.01.01 0 0 1 0-.02c.36-.07.71-.06 1.05.05Z" fill="url(#hcw1rhtzh)"/><path d="M4.48 8.11h.4v.02l-.34.47v.03a.96.96 0 0 0 .85.38v-.02l.15-.54.02-.01a4.16 4.16 0 0 0 1.6.06c1.05.94.45 2.11-.22 3.03-.55.75-.76 1.7.13 2.33a3.27 3.27 0 0 0 .22.14c-.44-.13-.8-.34-1.08-.64-.55-.58-.42-1.36-.03-2 .21-.35.44-.62.68-.92a2 2 0 0 0 .35-.71l-.01-.01-1.47-.25H5.7a2.23 2.23 0 0 1-.9.29l-.01-.01c-.2-.26-.32-.54-.37-.84-.01-.05-.03-.1-.06-.14a2.55 2.55 0 0 1-.36-.7l.01-.03a5.01 5.01 0 0 1 1.35-.53l-.9.57c-.02.02-.02.03.02.03Z" fill="url(#icw1rhtzh)"/><defs><linearGradient id="acw1rhtzh" x1="8.98" y1="5" x2="7.22" y2="6.93" gradientUnits="userSpaceOnUse"><stop stop-color="#BE9234"/><stop offset=".29" stop-color="#EFCE61"/><stop offset=".46" stop-color="#F7E9A9"/><stop offset=".73" stop-color="#ECC54D"/><stop offset="1" stop-color="#C39430"/></linearGradient><linearGradient id="bcw1rhtzh" x1="10.68" y1="5.24" x2="8.52" y2="6.21" gradientUnits="userSpaceOnUse"><stop stop-color="#BF9234"/><stop offset=".5" stop-color="#EED581"/><stop offset="1" stop-color="#C09333"/></linearGradient><linearGradient id="ccw1rhtzh" x1="7.94" y1="7.12" x2="11.17" y2="5.72" gradientUnits="userSpaceOnUse"><stop stop-color="#C09334"/><stop offset=".33" stop-color="#EBC957"/><stop offset=".53" stop-color="#FAF4C1"/><stop offset=".69" stop-color="#EABF35"/><stop offset="1" stop-color="#C2922C"/></linearGradient><linearGradient id="dcw1rhtzh" x1="7.6" y1="5.44" x2="6.35" y2="7.23" gradientUnits="userSpaceOnUse"><stop stop-color="#BE9136"/><stop offset=".26" stop-color="#EDC954"/><stop offset=".46" stop-color="#F7EBAF"/><stop offset=".73" stop-color="#EDC74E"/><stop offset="1" stop-color="#C3932F"/></linearGradient><linearGradient id="ecw1rhtzh" x1="9.59" y1="6.93" x2="12.46" y2="6.06" gradientUnits="userSpaceOnUse"><stop stop-color="#BD9338"/><stop offset=".32" stop-color="#ECC959"/><stop offset=".53" stop-color="#F5E6A5"/><stop offset=".69" stop-color="#EABD29"/><stop offset="1" stop-color="#B58E3C"/></linearGradient><linearGradient id="fcw1rhtzh" x1="10.14" y1="6.82" x2="13.62" y2="6.5" gradientUnits="userSpaceOnUse"><stop stop-color="#C2922D"/><stop offset=".31" stop-color="#EBBE2F"/><stop offset=".52" stop-color="#F8EFB6"/><stop offset=".71" stop-color="#EBC95B"/><stop offset="1" stop-color="#C3932D"/></linearGradient><linearGradient id="gcw1rhtzh" x1="7.87" y1="7.44" x2="10.79" y2="8.5" gradientUnits="userSpaceOnUse"><stop stop-color="#BF922D"/><stop offset=".35" stop-color="#E7B820"/><stop offset=".52" stop-color="#F8F5BF"/><stop offset=".69" stop-color="#F1DB92"/><stop offset="1" stop-color="#C5972F"/></linearGradient><linearGradient id="hcw1rhtzh" x1="5.73" y1="7.67" x2="6.62" y2="7.67" gradientUnits="userSpaceOnUse"><stop stop-color="#BE9334"/><stop offset=".59" stop-color="#F3E09C"/><stop offset="1" stop-color="#BD9132"/></linearGradient><linearGradient id="icw1rhtzh" x1="5.87" y1="7.5" x2="5.87" y2="14" gradientUnits="userSpaceOnUse"><stop stop-color="#C3932F"/><stop offset=".32" stop-color="#ECC64D"/><stop offset=".6" stop-color="#EFDB92"/><stop offset=".82" stop-color="#EBC139"/><stop offset="1" stop-color="#C0932D"/></linearGradient></defs></svg>