<!-- by TradingView --><svg width="18" height="18" viewBox="0 0 18 18" xmlns="http://www.w3.org/2000/svg"><path fill="#FA353C" d="M0 0h18v18H0z"/><path d="M10.1 13.81a2.59 2.59 0 0 1-.03-1.26l.03-.02c1.3-.67 2.1-2 2.07-3.36 0-.2-.05-.39-.06-.59 0-.05 0-.05.04-.01a3.23 3.23 0 1 1-5.6 2.15c.02-.63.23-1.25.27-1.88.1-1.69-.77-3.4-1.8-4.79C4.98 4 5 4 5.06 4.01c1.68.59 3.14 1.83 3.56 3.44.05.2.09.42.12.66.02.13.05.13.11.01.3-.6.4-1.24.29-1.93-.01-.07.01-.08.07-.03.64.52 1.3 1.28 1.34 2.06.07 1.15-.86 2.02-1.43 2.95-.1.16-.16.32-.19.49-.16.93.28 1.66 1.07 2.21.1.07.13.05.1-.06Z" fill="#fff"/></svg>