<!-- by TradingView --><svg xmlns="http://www.w3.org/2000/svg" width="18" height="18"><path fill="#F26B32" d="M0 0h18v18H0z"/><path d="M6.76 4C5.82 4.05 4 4.88 4 7.87c0 2.44 1.56 3.74 2.3 3.75.18-.43.55-1.54.58-2.52-.03-.25-.14-.73-.22-1.09l-.07-.32A8.13 8.13 0 016.76 4zm.54 5.32A5.99 5.99 0 019.74 7.4c-.06-.87-.54-2.71-2.27-3.28-.21.19-.49.9-.6 2.2-.02.33.03.94.23 1.5.12.35.2 1.17.2 1.5zm5.04 3.7c1.6-1.08 1.78-3.08 1.6-3.97-.11-.1-.3-.04-.37 0l-4.3 2.98.52.88-.96.65-.56-.88-.82.6c1.25.86 2.82 1.15 4.9-.26zm1.11-4.74a3.8 3.8 0 00-4.16-.14C7.2 9.5 6.8 11.1 7.04 12.63l.9-.57-.5-.9.95-.61.5.89 4.4-2.8c.08-.06.21-.2.16-.36z" fill="#fff"/></svg>