<!-- by TradingView --><svg width="18" height="18" viewBox="0 0 18 18" xmlns="http://www.w3.org/2000/svg"><path fill="#F0F3FA" d="M0 0h18v18H0z"/><path d="M13 7h1.52c.56 0 1.22.23 1.22.9 0 .54-.5.88-.98.99.58.06 1.24.34 1.24 1.01 0 .78-.67 1.1-1.36 1.1H13v-.11c.32-.03.33-.18.33-.49V7.6c0-.3 0-.48-.33-.49V7Zm1.46.11c-.3 0-.46.3-.46.56v2.8c0 .28.18.4.5.4.54 0 .83-.58.83-1.04 0-.48-.53-.86-.97-.86h-.42v-.09h.43c.49 0 .63-.49.63-.88 0-.56-.2-.89-.54-.89ZM10.85 7a1.17 1.17 0 0 1 .73.21l.1.06a.2.2 0 0 0 .07.02c.04 0 .06-.02.07-.06.02-.04.03-.15.04-.23h.12v1.33h-.14a2.24 2.24 0 0 0-.12-.59 1.1 1.1 0 0 0-.29-.44.62.62 0 0 0-.45-.17c-.33 0-.57.23-.57.54 0 .49.52.77.89 1.04.44.31.85.67.85 1.23 0 .66-.58 1.06-1.25 1.06a1.54 1.54 0 0 1-.8-.2c-.08-.05-.13-.08-.17-.08-.04 0-.06.02-.08.06l-.04.22H9.7V9.5h.13c.03.4.1.86.4 1.17.13.13.3.19.52.19.37 0 .7-.18.7-.53 0-.46-.47-.84-.83-1.1-.45-.32-.9-.65-.9-1.23 0-.62.5-1 1.13-1ZM3.75 7c.22 0 .4.04.54.1.14.08.26.16.37.25.07.06.12.06.15.03.04-.05.06-.22.08-.38H5v1.33h-.13c-.04-.35-.09-.68-.37-.92a.77.77 0 0 0-.3-.2.91.91 0 0 0-.33-.07c-.7 0-1.2.86-1.2 1.86s.5 1.87 1.22 1.87c.1 0 .21-.02.32-.07a.8.8 0 0 0 .29-.2c.3-.25.35-.56.39-.93H5V11h-.11a1.1 1.1 0 0 0-.07-.37c-.03-.04-.08-.03-.16.02-.12.1-.25.17-.39.25-.13.07-.3.1-.52.1C2.62 11 2 10.1 2 9.03 2 8 2.63 7 3.75 7ZM7.75 7c.22 0 .4.04.54.1.14.08.26.16.37.25.07.06.12.06.15.03.04-.05.06-.22.08-.38H9v1.33h-.13c-.04-.35-.09-.68-.37-.92a.77.77 0 0 0-.3-.2.91.91 0 0 0-.33-.07c-.7 0-1.2.86-1.2 1.86s.5 1.87 1.22 1.87c.1 0 .21-.02.32-.07a.8.8 0 0 0 .29-.2c.3-.25.35-.56.39-.93H9V11h-.11a1.1 1.1 0 0 0-.07-.37c-.03-.04-.08-.03-.16.02-.12.1-.25.17-.39.25-.13.07-.3.1-.52.1C6.62 11 6 10.1 6 9.03 6 8 6.63 7 7.75 7Z" fill="#03017D"/></svg>