<!-- by TradingView --><svg width="18" height="18" fill="none" xmlns="http://www.w3.org/2000/svg"><path fill="#F0F3FA" d="M0 0h18v18H0z"/><path fill-rule="evenodd" clip-rule="evenodd" d="M9 4c-.571 0-.714.588-1.26.588s-1-.2-1.418-.088c-.418.125-.697.85-1.01 1.025-.314.188-1.092.162-1.313.575-.22.413-.197 1.013-.325 1.45C3.546 7.988 3 8.275 3 8.887c0 .613.511.938.662 1.525.151.588.035 1.013.244 1.338.21.325 1.034.35 1.382.7.349.35.488.813.953 1 .465.188 1.01-.125 1.475-.037.465.087.883.575 1.22.587h.128c.337-.012.767-.488 1.22-.588.453-.1.999.225 1.475.038.465-.188.616-.65.952-1 .349-.35 1.174-.375 1.383-.7.209-.325.093-.75.244-1.338.15-.587.662-.912.662-1.525 0-.612-.546-.887-.674-1.337-.128-.45-.104-1.037-.325-1.45-.22-.412-.987-.387-1.313-.575-.313-.188-.592-.913-1.01-1.025-.419-.125-.872.088-1.418.088C9.962 4.588 9.571 4 9 4Z" fill="#FE6B04"/><path fill-rule="evenodd" clip-rule="evenodd" d="M8 7v1.23h-.333s-.211-.922-.795-.922C6.264 7.308 6 8.19 6 8.73v.69c0 .314.202 1.229.798 1.229.595 0 .82-.403.869-.88H8V11h-.333s.035-.175-.163-.175S7.22 11 6.698 11C6.178 11 5 10.473 5 9.132 5 7.79 5.756 7 6.736 7c.421 0 .546.238.72.226.173-.013.21-.226.21-.226H8ZM10.846 7l-1.538 3.692H9V11h1.5v-.308h-.73l.318-.923h1.276l.276.923h-.627L11 11h2v-.308h-.397L11.46 7h-.615Zm.462 2.461L10.846 8l-.615 1.461h1.077Z" fill="#F0F3FA"/></svg>