<!-- by TradingView --><svg width="18" height="18" viewBox="0 0 18 18" xmlns="http://www.w3.org/2000/svg"><path fill="#F0F3FA" d="M0 0h18v18H0z"/><path d="M3.5 9.28 2 11.2c.77-.82 1.44-1.25 2.13-1.25.7 0 1.82.5 3.06 1.05 1.28.57 2.07 1 3.36 1a3.2 3.2 0 0 0 2.17-.9L14 9.38a3.6 3.6 0 0 1-2.49.97c-2.01 0-4.54-2.1-5.92-2.1-1.1 0-1.85.68-2.09 1.03Z" fill="#043C6F"/><path d="M4.92 7.03 3.33 8.95c.82-.82 1.52-1.25 2.25-1.25s1.92.5 3.23 1.05c1.36.57 2.2 1 3.54 1 1.12 0 1.98-.6 2.3-.9L16 7.13c-.32.32-1.3.97-2.62.97-2.13 0-4.8-2.1-6.25-2.1-1.17 0-1.96.68-2.21 1.03Z" fill="#043C6F"/></svg>