<!-- by TradingView --><svg xmlns="http://www.w3.org/2000/svg" width="18" height="18"><path fill="#2193F4" d="M0 0h18v18H0z"/><path d="M8.69 14V4A4.9 4.9 0 004 8.69a4.93 4.93 0 004.68 5.3zM10 4.1a4.45 4.45 0 00-.69-.1v4.54l3.9-2.32a4.53 4.53 0 00-.42-.5l-2.3 1.35 1.3-2.26-.07-.04c-.16-.11-.33-.22-.51-.29L10 6.62V4.09zM9.31 14c.2 0 .4-.05.6-.09l.09-.01v-2.48l1.2 2.1c.19-.07.35-.18.51-.29l.07-.04-1.27-2.2 2.28 1.3c.17-.19.28-.32.41-.5L9.31 9.45V14zm4.13-7.33L9.58 9l3.86 2.34c.1-.19.22-.4.3-.62l-2.27-1.38H14c.01-.25.02-.5 0-.73h-2.52l2.27-1.3a2.98 2.98 0 00-.3-.64z" fill="#fff"/></svg>