<!-- by TradingView --><svg width="18" height="18" viewBox="0 0 18 18" xmlns="http://www.w3.org/2000/svg"><path fill="#F0F3FA" d="M0 0h18v18H0z"/><path d="M4 7.9c.02 1.43 1.93 1.86 2.88 1.9l.63-2.1c-.7-.19-1.14-.52-1.12-.73.03-.21.49-1.25 1.83-1.41 1.07-.13 1.9.16 2.17.33l-.36-.85c-.22-.59-2.2-.5-3.15-.38C5.9 5.14 3.98 6.34 4 7.9Z" fill="url(#aump4gzva)"/><path d="M9.12 4a5.64 5.64 0 0 0-4.6 2.48 4.73 4.73 0 0 1 3.65-1.54c1.37-.02 2.49 1.54 2.9 2l.02.02c.41.48 1.14 1.3 2.01.55.88-.75-.78-3.58-3.98-3.5Z" fill="#372B5C"/><path d="M14 10.1c-.02-1.43-1.93-1.86-2.88-1.9l-.63 2.1c.7.19 1.14.52 1.12.73-.03.21-.49 1.25-1.83 1.41a3.73 3.73 0 0 1-2.17-.33l.36.85c.22.59 2.2.5 3.15.38.97-.48 2.9-1.68 2.88-3.23Z" fill="url(#bump4gzva)"/><path d="M8.88 14a5.64 5.64 0 0 0 4.6-2.48 4.73 4.73 0 0 1-3.65 1.54c-1.37.02-2.49-1.54-2.9-2l-.02-.02c-.41-.48-1.14-1.3-2.01-.55-.88.75.78 3.58 3.98 3.5Z" fill="#372B5C"/><ellipse cx="9.08" cy="9.13" rx="2.7" ry="2.61" fill="#372B5C"/><defs><linearGradient id="aump4gzva" x1="4.76" y1="6.45" x2="7.7" y2="8.79" gradientUnits="userSpaceOnUse"><stop stop-color="#488BBE"/><stop offset="1" stop-color="#C1D0E2"/></linearGradient><linearGradient id="bump4gzva" x1="13.24" y1="11.55" x2="10.3" y2="9.21" gradientUnits="userSpaceOnUse"><stop stop-color="#488BBE"/><stop offset="1" stop-color="#C1D0E2"/></linearGradient></defs></svg>