<!-- by TradingView --><svg width="18" height="18" viewBox="0 0 18 18" xmlns="http://www.w3.org/2000/svg"><path fill="#F0F3FA" d="M0 0h18v18H0z"/><path d="M9.07 4H4v10h3.95l-.07-.12a6.9 6.9 0 0 1-1.04-2.06c-.13-.7.01-1.8.17-2.2-1.27-1.05-1.06-2.65-.85-3.29l.36.76c0-.47.28-1.2.44-1.54h-.32C6.96 5.05 7.92 4 9.07 4ZM14 5.55h-.54c-1.36 0-5.39 1.63-5.77 3.16-.43-1.18-.21-3.55 3.73-3.79A3.55 3.55 0 0 0 9.07 4H14v1.55Zm0 1.2c-.99.33-2.39.95-3.66 1.96-1.48 1.17-1.23 2.89-.78 3.97-.16-.49-.2-1.07-.01-1.33-.12.63.47 1.52.8 1.91l-.12-.16c-.18-.26-.5-.7-.5-1.28 0-.62.64-1.8 1.01-2.23-.1.39-.17 1.41-.17 2.23 0 .83.67 1.79 1.04 2.18H14V6.76Z" fill="#942335"/></svg>