<!-- by TradingView --><svg width="18" height="18" viewBox="0 0 18 18" xmlns="http://www.w3.org/2000/svg"><path fill="#F0F3FA" d="M0 0h18v18H0z"/><path d="M4.58 9H2l6.96-5L16 9h-2.55L9 6 4.58 9Z" fill="#FA0101"/><path d="M6.3 8.33v4.34H7V11.3c0-.12.03-.26.1-.4a.47.47 0 0 1 .42-.24h2.96c.17 0 .32.09.4.22.1.13.12.28.12.42v1.36h.7V8.33H11v1.4c0 .14-.03.3-.13.42a.5.5 0 0 1-.4.18H7.53a.46.46 0 0 1-.4-.2.74.74 0 0 1-.12-.4v-1.4h-.7ZM6 8h1.31v1.72c0 .17.06.28.2.28h2.97c.14 0 .23-.11.23-.28V8H12v5h-1.3v-1.69c0-.16-.08-.31-.22-.31H7.52c-.15 0-.2.15-.2.31V13H6V8Z" fill="#8F8E13"/><path opacity=".5" d="M10 8H8v2h2V8Zm0 3H8v2h2v-2Z"/></svg>