<!-- by TradingView --><svg xmlns="http://www.w3.org/2000/svg" width="18" height="18"><path fill="url(#ap51t42ub)" d="M0 0h18v18H0z"/><path d="M10.58 10.77a17.16 17.16 0 00.36.65l.02.04.16.28.19.3.03.05.16.24.06.1.13.18a11.35 11.35 0 01-.72-3.7c-.02-.67.05-1.3.22-1.79.08-.28.23-.53.43-.74.16-.16.35-.28.56-.35.43-.15.93-.1 1.42.05.5.17.97.41 1.4.72a6.38 6.38 0 00-.72-.78 9.65 9.65 0 00-1.99-1.41c-.34-.18-.7-.33-1.06-.45-.3-.1-.63-.16-.96-.16-.26 0-.53.08-.75.23a1.23 1.23 0 00-.43.65 4.79 4.79 0 00.04 2.05 16.59 16.59 0 001.45 3.84zm-3.17.96c-.5-.43-.92-.89-1.17-1.34a1.91 1.91 0 01-.26-.82 1.55 1.55 0 01.11-.69l.01-.02a6.46 6.46 0 01-.62-1.11 7.26 7.26 0 00-1.4.66c-.28.17-.53.39-.75.64-.18.2-.3.46-.33.73l.01.25c.03.18.1.36.2.51.16.26.37.5.6.69a10.16 10.16 0 002.08 1.18 16.66 16.66 0 002.79.87l.2.05.27.06a14.78 14.78 0 01.44.08 14.22 14.22 0 001.02.13 10.64 10.64 0 01-3.2-1.87zm.95-3.63c.04.52.22 1.12.5 1.72a11.08 11.08 0 002.1 3.1c-.1-.05-.2-.11-.29-.18l-.19-.12-.1-.07a11.06 11.06 0 01-.57-.4l-.2-.16a47.17 47.17 0 00-.38-.3A17.07 17.07 0 017.2 9.77c-.29-.32-.55-.66-.8-1.01a6.3 6.3 0 01-.57-.97 2.82 2.82 0 01-.27-.9c-.02-.18 0-.36.05-.54.02-.08.06-.15.1-.23.14-.23.36-.4.6-.51.3-.13.62-.22.95-.25a6.3 6.3 0 011.43.01l-.01.44c.01.32.05.64.1.95-.13.14-.23.3-.3.49-.1.27-.14.56-.12.85z" fill="#fff"/><defs><linearGradient id="ap51t42ub" x1="1.61" y1="4.34" x2="15.75" y2="14.46" gradientUnits="userSpaceOnUse"><stop stop-color="#490BBF"/><stop offset="1" stop-color="#0D79EA"/></linearGradient></defs></svg>