<!-- by TradingView --><svg width="18" height="18" viewBox="0 0 18 18" xmlns="http://www.w3.org/2000/svg"><path fill="#F0F3FA" d="M0 0h18v18H0z"/><path d="M12.17 6.17a5.3 5.3 0 0 0-1.1-.08c-.26.02-.6.1-1.04.24H5.7c-.38 0-.63-.12-.75-.36-.23-.46.06-.97.59-.97h6.14c.68 0 .95.67.48 1.17Zm-4.12 5.5h4.11l.4.01a.66.66 0 0 1-.09 1.32h-6.1c-.68 0-.93-.68-.46-1.19.48.15.98.16 1.5.03l.64-.17Z" fill="#37556E"/><path d="M13.9 7.78a2.4 2.4 0 0 1-1.2 2.82c-.98.55-2 .53-3.02-.06.3-.32.65-.6 1.04-.84l.37.02c.86.06 1.59-.53 1.52-1.34-.07-.83-1.04-1.38-1.87-1.07-.2.08-.47.25-.8.53l-2.58 2.1c-.74.58-1.65-.33-.94-.93a59.83 59.83 0 0 1 .78-.65V8.3h.06l.04-.02.84-.66c.06-.05.1-.11.1-.19.03.05.07.05.11.02.8-.67 1.52-1.37 2.66-1.46 1.28-.1 2.52.62 2.88 1.79Z" fill="#5EA8B4"/><path d="M8.24 7.43c0 .08-.04.14-.1.19a30.71 30.71 0 0 0-.88.67H7.2a3.21 3.21 0 0 0-.68 0c-1.45.3-1.55 2.04-.14 2.44.49.14.96.02 1.41-.34l2.82-2.3c.75-.6 1.67.3.99.88l-.9.73c-.38.24-.72.52-1.03.84-.73.56-1.34 1.19-2.26 1.4-.53.12-1.03.11-1.5-.02-1.03-.36-1.65-.97-1.85-1.85-.3-1.22.4-2.41 1.7-2.88.68-.25 1.84-.26 2.47.24Z" fill="#6FA44C"/></svg>