<!-- by TradingView --><svg width="18" height="18" viewBox="0 0 18 18" xmlns="http://www.w3.org/2000/svg"><path fill="#F0F3FA" d="M0 0h18v18H0z"/><path fill-rule="evenodd" d="M4 4v10h10V4H4Zm4.53 1.85c.36-.62.89-1 1.57-1.16.24-.06.23-.1 0-.13-2.95-.36-5.26.99-5.59 4.13-.05.54 0 1.08.15 1.63.2.74 1.06.4 1.34-.09a316.7 316.7 0 0 1 2.53-4.38Zm4.1.59c-1.18-.4-1.74.61-2.2 1.43l-.23.4a.13.13 0 0 1-.11.06H8.48l-.01-.01a.03.03 0 0 1 0-.03c.37-.64.78-1.3 1.22-1.97.34-.5.79-.79 1.36-.88.63-.11 1.19.19 1.65.9.07.1.04.14-.08.1Zm-.2 1.04c-.29.15-.52.39-.7.72l-.62 1.11-.14.23c-.05.09-.02.13.07.13h2.29a.2.2 0 0 0 .19-.16c.08-.48.05-.96-.06-1.43-.09-.42-.62-.83-1.04-.6ZM9.5 9.73a41.45 41.45 0 0 1-1.39 2.4c-.37.59-1.38.95-1.99.46-.26-.21-.5-.44-.7-.68-.09-.1-.07-.13.06-.11 1.02.17 1.53-.75 1.97-1.54.12-.2.22-.4.34-.56l.02-.02.04-.01h1.6c.06 0 .07.02.05.06Zm.76 1.05c-.47 1.1-1 2.22-2.15 2.6-.14.05-.14.09.01.1 2.3.3 3.97-.59 5.02-2.67.03-.08-.02-.14-.09-.14h-2.61c-.04 0-.08 0-.1.02a.2.2 0 0 0-.08.09Z" fill="#006F68"/></svg>