<!-- by TradingView --><svg width="18" height="18" viewBox="0 0 18 18" xmlns="http://www.w3.org/2000/svg"><path fill="#F0F3FA" d="M0 0h18v18H0z"/><path d="M8.97 5h.01l.2.38c.09.12.18.22.28.3a2.46 2.46 0 0 0 .4.27v.01c-.14.08-.26.15-.36.23a1.3 1.3 0 0 0-.3.31 3.34 3.34 0 0 0-.23.4c-.09-.17-.16-.3-.23-.4a1.3 1.3 0 0 0-.3-.31 3.08 3.08 0 0 0-.37-.24l.01-.01c.15-.08.28-.16.4-.26.1-.08.2-.18.27-.3A3.51 3.51 0 0 0 8.97 5Z" fill="#CEAC53"/><path d="m4.52 6.89-.06-.06a.44.44 0 0 0-.62 0l-.05.06a.45.45 0 0 0 0 .64l.07.06c.17.17.45.16.62-.02l.06-.05a.45.45 0 0 0-.02-.63ZM14.2 6.88l-.06-.06a.44.44 0 0 0-.63.02l-.05.06a.45.45 0 0 0 .01.63l.06.06c.18.17.46.16.63-.02l.05-.05a.45.45 0 0 0-.01-.64Z" fill="#D6D7DC"/><path d="M9.96 7.87a1.36 1.36 0 0 0-.32-.02.72.72 0 0 0-.3.1c-.2.1-.36.25-.5.43a5.2 5.2 0 0 0-.64.98c-.09.16-.2.37-.3.6-.07.16-.17.33-.3.53a1.05 1.05 0 0 1-1 .5 2.15 2.15 0 0 0-.16-.02 1.36 1.36 0 0 1-.65-.22c-.22-.14-.41-.32-.58-.55 0-.01 0-.02.01-.01.43.1.81.09 1.13-.05.28-.13.52-.35.73-.66.17-.27.32-.55.44-.86.08-.19.18-.37.3-.54.17-.26.4-.46.69-.59.13-.06.25-.1.36-.1.11 0 .24 0 .38.02a.3.3 0 0 1 .13.05l.04.01c.04 0 .08.02.1.05a.1.1 0 0 0 .04.02l.1.04.01.02c.01.02.03.04.06.04 0 0 .02.01.02.03.01.02.04.04.07.05.01 0 .02 0 .03.02 0 .02.03.04.06.06l.06.06v.01Z" fill="#CEAC53"/><path d="M9.87 9.67a.37.37 0 0 1-.02-.06 14.77 14.77 0 0 0-.4-.9.52.52 0 0 0-.42-.3C9 8.42 9 8.42 9 8.4c.18-.21.4-.35.66-.43h.2c.03 0 .06.01.1.04l.06.03a.3.3 0 0 1 .09.06c.06.06.12.14.17.24l.12.21.1.23c.1.22.2.43.33.63.26.42.56.69.89.78a1.92 1.92 0 0 0 .92.03.2.2 0 0 1 .1 0c.02.01.02.02 0 .02a.05.05 0 0 0-.02.04l-.02.03a2.16 2.16 0 0 1-.93.58.32.32 0 0 0-.09.03.4.4 0 0 1-.1.03c-.24.04-.49.04-.73.01a.5.5 0 0 1-.14-.04.73.73 0 0 0-.14-.04.04.04 0 0 1-.03-.02.1.1 0 0 0-.05-.05 3.75 3.75 0 0 1-.23-.23 3.25 3.25 0 0 1-.35-.8.91.91 0 0 0-.05-.1ZM3.55 9.97l-.13.2c-.12.2-.27.35-.46.48-.06.03-.15.07-.27.1l-.08.02a.47.47 0 0 1-.25-.02.5.5 0 0 1-.2-.11c-.15-.13-.2-.31-.14-.53.03-.1.08-.18.17-.23.2-.11.33-.2.4-.25.08-.05.13-.1.17-.16l.25-.4c.09-.15.2-.3.36-.42.25-.23.56-.33.92-.3.16 0 .26.02.32.03.34.1.62.3.84.61.15.22.27.4.36.51.14.18.3.34.48.47v.02a.93.93 0 0 1-.26.1 1.26 1.26 0 0 1-.96-.17 4.5 4.5 0 0 1-.34-.26.75.75 0 0 0-.44-.16.65.65 0 0 0-.46.14 1.67 1.67 0 0 0-.28.33Z" fill="#CEAC53"/><path d="M14.32 9.8a1.66 1.66 0 0 0-.15-.16.65.65 0 0 0-.45-.14.75.75 0 0 0-.44.16 18.31 18.31 0 0 1-.34.26c-.1.06-.2.1-.29.14-.23.07-.45.08-.68.03a.92.92 0 0 1-.25-.1v-.02c.18-.13.34-.29.47-.46l.37-.51c.21-.31.49-.52.83-.62l.32-.04c.36-.02.67.09.92.3.15.14.27.28.36.43l.25.4c.04.06.1.1.16.15l.41.26c.09.05.14.13.17.23.05.21 0 .39-.13.52a.5.5 0 0 1-.21.12.46.46 0 0 1-.33 0 1 1 0 0 1-.27-.1 1.51 1.51 0 0 1-.45-.47 355.62 355.62 0 0 1-.27-.38Z" fill="#CEAC53"/></svg>