<!-- by TradingView --><svg width="18" height="18" viewBox="0 0 18 18" xmlns="http://www.w3.org/2000/svg"><path fill="#F0F3FA" d="M0 0h18v18H0z"/><path d="M4 5.89v4.83c.52-.34 2.24-1.02 4.94-1.02s4.5.68 5.06 1.02V5.89C14 4.85 13.16 4 12.13 4H5.87C4.84 4 4 4.85 4 5.89Z" fill="url(#ambagbf4g)"/><path d="M9.03 10.66c-2.73 0-4.49.55-5.03.83v.66C4 13.17 4.8 14 5.8 14h6.4c1 0 1.8-.83 1.8-1.85v-.66c-.52-.28-2.24-.83-4.97-.83Z" fill="#00AD42"/><defs><linearGradient id="ambagbf4g" x1="9" y1="4" x2="9" y2="10.72" gradientUnits="userSpaceOnUse"><stop stop-color="#00ADED"/><stop offset="1" stop-color="#0023BC"/></linearGradient></defs></svg>