<!-- by TradingView --><svg width="18" height="18" viewBox="0 0 18 18" xmlns="http://www.w3.org/2000/svg"><path fill="#F0F3FA" d="M0 0h18v18H0z"/><path fill="url(#a)" d="M5 5h8v7.98H5z"/><path d="M6 10.58c0 1.38 1.25 2.19 1.87 2.42H9.4c-.5-.35-1.53-1.28-1.53-2.25S11.73 7 13.66 5.73h-.34l.68-.35-1.02.18L14 4.69h-.34l.2-.34c-.96.27-1.22.52-1.4.69l.52-.87-.51.18.34-.35c-1.77.7-2.67 1.21-2.9 1.38l.69-1.2C7.7 6.6 6 8.84 6 10.57Z" fill="url(#b)"/><defs><linearGradient id="a" x1="5.83" y1="6" x2="12.65" y2="12.33" gradientUnits="userSpaceOnUse"><stop stop-color="#DF0513"/><stop offset="1" stop-color="#AB030A"/></linearGradient><linearGradient id="b" x1="12.3" y1="4.17" x2="7.93" y2="12.94" gradientUnits="userSpaceOnUse"><stop stop-color="#F49831"/><stop offset="1" stop-color="#F8D86F"/></linearGradient></defs></svg>