<!-- by TradingView --><svg width="18" height="18" viewBox="0 0 18 18" xmlns="http://www.w3.org/2000/svg"><path fill="#F0F3FA" d="M0 0h18v18H0z"/><path d="M8.36 5h1.28v.62a3.7 3.7 0 0 1 2.86 2.14l-.94.08a2.84 2.84 0 0 0-1.92-1.35v1.37H8.36V6.49c-.84.18-1.54.68-1.92 1.35a29.5 29.5 0 0 1-.94-.08 3.7 3.7 0 0 1 2.86-2.14V5Zm0 5.14h1.28v1.37a2.84 2.84 0 0 0 1.9-1.34l.94.1a3.7 3.7 0 0 1-2.84 2.1V13H8.36v-.62a3.7 3.7 0 0 1-2.85-2.1c.3-.04.61-.08.94-.1a2.84 2.84 0 0 0 1.91 1.33v-1.37Z" fill="#B92D2B"/><path d="M16 7.74c-1.82.2-4.28.31-7 .31a69.2 69.2 0 0 1-7-.3v2.5c1.69-.24 4.18-.39 7-.39 2.8 0 5.31.15 7 .4V7.73Z" fill="#B92D2B" fill-opacity=".5"/></svg>