<!-- by TradingView --><svg width="18" height="18" viewBox="0 0 18 18" xmlns="http://www.w3.org/2000/svg"><path fill="#F0F3FA" d="M0 0h18v18H0z"/><path d="M4.04 5C3.46 5 3 5.49 3 6.09v5.82c0 .6.46 1.09 1.04 1.09h9.92c.58 0 1.04-.49 1.04-1.09V6.1c0-.6-.46-1.09-1.04-1.09H4.04Zm2.43 1.16V6h2.21v.16H8v2.3a9.27 9.27 0 0 1 2-.02V6.16h-.68V6h2.2v.16H11v2.45a6.2 6.2 0 0 1 3.34 1.86c.25.3.34.7.34 1.09v.1c0 .18-.14.32-.31.34H9.32v-.6H10V8.78a5.42 5.42 0 0 0-2 .03v2.59h.68v.6H3.63v-.02a.43.43 0 0 1-.31-.41c0-.4.1-.8.37-1.09A6.64 6.64 0 0 1 7 8.64V6.16h-.53ZM11 11.4V9.05a7.02 7.02 0 0 1 2.8 1.91c.04.05.06.11.06.18 0 .12-.08.22-.18.26H11Zm-6.65-.53c.45-.5 1.4-1.3 2.65-1.78v2.31H4.5a.34.34 0 0 1-.23-.32c0-.08.03-.15.08-.21Z" fill="#AF2633"/></svg>