<!-- by TradingView --><svg width="18" height="18" viewBox="0 0 18 18" xmlns="http://www.w3.org/2000/svg"><path fill="#F0F3FA" d="M0 0h18v18H0z"/><path d="M5 4.98C5 4.44 5.47 4 6.05 4h5.9c.58 0 1.05.44 1.05.98v8.04c0 .54-.47.98-1.05.98h-5.9C5.47 14 5 13.56 5 13.02V4.98Z" fill="#DA251C"/><path fill-rule="evenodd" d="M6.38 4.31c-.58 0-1.05.45-1.05 1v7.37c0 .56.47 1 1.05 1h5.24c.58 0 1.05-.44 1.05-1V5.32c0-.56-.47-1-1.05-1H6.38Zm.07.07c-.58 0-1.05.45-1.05 1v7.24c0 .55.47 1 1.05 1h5.1c.58 0 1.05-.45 1.05-1V5.38c0-.55-.47-1-1.05-1h-5.1Z" fill="#fff"/><path fill-rule="evenodd" d="m8 5.22.08-.17c0-.02.03-.03.05-.04.21-.04.3.02.43.1l.05.03c.09.05.07.16-.04.17-.17 0-.34 0-.51-.02-.05 0-.07-.03-.05-.07ZM11.54 5c.23-.02.63.25.4.68l-.04.08c-.09.17-.17.33-.35.17-.04-.03-.03-.11-.03-.18a1 1 0 0 0 0-.05c0-.13-.07-.24-.15-.24-.06 0-.11.04-.17.08-.05.04-.1.07-.16.07-.02 0-.04-.05-.03-.08.08-.17.17-.3.27-.4a.44.44 0 0 1 .26-.13Zm-4.2 5.61a2.4 2.4 0 0 0-.1.05c-.02.01-.04 0-.04-.02-.03-.2.21-.37.4-.5l.07-.05c.02-.01.03-.03.02-.05 0-.1-.06-.15-.18-.16-.07 0-.07-.03-.02-.07l.45-.28c.03-.02.04-.05.03-.09-.06-.15-.22-.14-.38-.13h-.11c-.02 0-.04 0-.04-.03v-.04c-.01-.08-.02-.16-.12-.2l-.06-.03c-.07-.02-.1 0-.1.05l-.03.42a.1.1 0 0 1-.03.06.13.13 0 0 1-.08.03.8.8 0 0 1-.32-.02c-.14-.04-.18 0-.12.11.06.12.19.2.37.21.02 0 .03.03.02.05l-.27.27c-.1.1-.06.16-.02.23.02.04.05.08.04.14 0 .02 0 .03-.02.04l-.48.37a.28.28 0 0 1-.08.03c-.05.02-.1.03-.11.07-.04.1-.02.2.05.3.01.02.06.02.1.03.08 0 .16.02.13.07l-.09.19c-.03.08.03.2.14.23.03 0 .04.03.03.05-.01.07 0 .08.06.04.16-.1.3-.22.39-.38.08-.15.15-.31.2-.47.02-.02.03-.04.06-.05l.63-.25c.12-.05.3-.16.28-.27-.03-.15-.14-.23-.32-.22-.02 0-.03.01-.04.03-.04.1-.18.18-.31.24Zm.81-2.3c-.04.1-.07.1-.09 0l.01-.2c.09-.37.23-.8.42-1.28.06-.13.05-.34-.17-.34a.87.87 0 0 0-.63.23c-.2.18-.4.2-.65.18-.02 0-.03 0-.03.03.02.17.1.3.24.4.1.05.2.06.28.01.13-.06.26-.13.4-.22.02-.02.07 0 .07.04a14.94 14.94 0 0 0-.16 1.43c-.01.1.02.18.1.25l.06.02c.4 0 .67-.15.82-.44.03-.06.04-.06.05 0 .01.16.04.32.08.49.01.06.07.1.14.09.04 0 .06-.02.06-.05l.1-1.07.1-.97c.01-.2 0-.4-.03-.61 0-.02 0-.04.02-.05l.34-.2a.07.07 0 0 1 .07 0c.1.05.13.13.1.23v.05c-.06.24-.11.47-.32.64a.21.21 0 0 0-.08.22c0 .04.06.08.11.07.1-.01.23-.17.33-.3l.09-.1c.02-.03.05.02.04.04l-.28.65c-.05.1-.13.2-.23.29-.03.03-.02.08.03.09.36.08.72-.31.87-.55a.47.47 0 0 0 .08-.2c0-.06.03-.07.08-.03l.04.04c.04.04.05.08.04.13a6.7 6.7 0 0 1-.22.66c-.02.04-.05.06-.1.06-.1-.01-.13.02-.08.1.14.2.38.18.51-.01.11-.15.2-.3.25-.45 0-.02.03-.02.05 0l.59.51c.01.02.03.02.06.02l.06-.02c.09-.03.19-.06.22-.12.07-.11-.06-.27-.15-.34a37.5 37.5 0 0 1-.55-.43.53.53 0 0 1-.13-.15c-.03-.05-.03-.15-.03-.26 0-.2 0-.42-.22-.4a.09.09 0 0 0-.06.03l-.12.16h-.05l-.28-.4c-.04-.06 0-.14.01-.2l.01-.02c.08-.21-.14-.34-.34-.39a.12.12 0 0 1-.07-.04L9.7 5.2c-.14-.19-.25-.24-.47-.2-.08.02-.01.1.02.13l.01.02c.02.02.02.05 0 .07l-.07.08c-.12.14-.3.33-.3.47.06.4.1.8.1 1.19v1.35c0 .02-.01.02-.03.02-.01 0-.02 0-.02-.02-.05-.19-.07-.4-.07-.64 0-.11.02-.21.04-.31.03-.13.06-.26.04-.4 0-.04-.05-.06-.1-.04a.3.3 0 0 0-.12.13c-.2.42-.4.84-.58 1.26Zm1.16-3c-.07.16-.13.33-.17.53-.02.1.05.2.12.27.02.03.04.03.06.02l.28-.19c.06-.04.08-.09.06-.15-.07-.2-.17-.36-.28-.48-.02-.02-.05-.02-.07 0Zm-.86 6.5c-.02 0-.05.03-.05.06 0 .15-.04 1.08-.19 1.13-.1.03-.11-.36-.12-.47v-.02l-.03-.32a3.91 3.91 0 0 1-.02-.71l.04-.64c0-.04-.02-.07-.04-.1S8 10.67 8 10.63l.02-.09.06-.3.05-.81c0-.13.03-.26.06-.4 0-.01.02-.03.04-.03.05-.01.07.07.07.12 0 .04 0 .76.1.67l.08-.07c.12-.11.24-.23.4-.1.05.03.06.07.05.13-.04.26-.1.5-.15.73v.1l.2.68c.07.25-.03.49-.28.54-.08.01-.17.02-.26.01Zm.25-1.44c0 .07 0 .13.02.2.09.23.2.55.19.81-.01.15-.09.22-.22.23h-.1c-.13.01-.19-.05-.18-.19.04-.37.05-.75.03-1.14l.01-.23c.02-.15.17-.3.27-.38l.04-.01c.04 0 .07.03.07.08l-.13.63Z" fill="#201D1D"/></svg>