<!-- by TradingView --><svg width="18" height="18" viewBox="0 0 18 18" xmlns="http://www.w3.org/2000/svg"><path fill="#F0F3FA" d="M0 0h18v18H0z"/><path d="M8.94 4.01c2 .22 2.26 2.3 2 3.37H9.13c.6-.94.87-2.74-.19-2.8C7.34 4.5 6.22 6.83 5.86 8H3.65c.84-1.43 3.08-4.22 5.3-3.99ZM3.3 13a5.68 5.68 0 0 1-.18-3H5.6a4.3 4.3 0 0 0 .87 3H3.3ZM8.89 10H7.65l-1.03 2.95L8.9 10ZM12 10h-1.16l-1.19 2.95L12 10ZM15.08 10h-1.16l-1.16 2.95L15.08 10Z" fill="#008EDA"/><path d="M9.94 8.17h.44v.42h-.44v-.42Zm-4.19.73H3.41v-.4h2.34v.4Zm3.75 0H7.6v-.4H9.9v.33h.67V8.5h2.39v.33h.82V8.5H16v.4h-1.8v.28h1.3v.4h-1.42v.28h-2v-.28h-1.09v.28H8.97v-.28H7.78v-.4h1.6v.28h1.2v-.23H9.5V8.9Zm1.5.28h1.5v.28h1.16v-.23h-1.1V8.9h-1.57v.28Zm-5.25.4H3.1v-.4h2.66v.4Zm7.7-1.4h-.43v.41h.43v-.42Z" fill="#E22325"/></svg>