<!-- by TradingView --><svg width="18" height="18" viewBox="0 0 18 18" xmlns="http://www.w3.org/2000/svg"><path fill="#F0F3FA" d="M0 0h18v18H0z"/><path d="m10.68 5.76-1.18.57a2.7 2.7 0 0 0-1.65-.53c-1.24 0-1.95.47-2.47.72A2.98 2.98 0 0 1 7.92 5c1.41 0 2.42.5 2.75.76Z" fill="url(#a)"/><path d="M4.79 9.19c0-2.44 2.1-3.8 3.14-4.19A3.96 3.96 0 0 0 4 9.19C4 12.24 7.14 13 7.93 13c.63 0 1.05-.13 1.18-.2-.98 0-4.32-.56-4.32-3.61Z" fill="url(#b)"/><path d="M13.04 5.19c-4.56 1.07-6.1 3.37-6.29 4.38.94-2.28 4.58-3.5 6.29-3.8v-.58Z" fill="url(#c)"/><path d="M13.82 5.76c-.85.2-3.06.88-5.1 2.1-2.05 1.22-2.17 2.8-1.97 3.43 1.1-2.6 5.17-3.75 7.07-4V5.76Z" fill="#957F66"/><path d="m15 7.48-.79 1.71c-2.35 0-5.89.95-6.48 2.1-.47.91.33 1.01.79.95.94 0 1.96-1.27 2.35-1.9l1.58-.39c-.79 2.1-2.56 2.67-3.34 2.67-.79 0-1.57 0-1.97-.76-.39-.76-.2-1.53 1.77-2.67 1.57-.91 4.71-1.52 6.09-1.71Z" fill="#E39714"/><defs><linearGradient id="a" x1="6.55" y1="5.57" x2="10.28" y2="5.98" gradientUnits="userSpaceOnUse"><stop stop-color="#CF241C"/><stop offset="1" stop-color="#83292A"/></linearGradient><linearGradient id="b" x1="7.93" y1="13" x2="3.87" y2="7.5" gradientUnits="userSpaceOnUse"><stop stop-color="#CF241C"/><stop offset="1" stop-color="#83292A"/></linearGradient><linearGradient id="c" x1="6.75" y1="9" x2="12.74" y2="5.4" gradientUnits="userSpaceOnUse"><stop stop-color="#CF241C"/><stop offset="1" stop-color="#83292A"/></linearGradient></defs></svg>