<!-- by TradingView --><svg width="18" height="18" viewBox="0 0 18 18" xmlns="http://www.w3.org/2000/svg"><path fill="#F0F3FA" d="M0 0h18v18H0z"/><path d="m4.67 5.92-.67.6v4.54l3.4-1.73c.53-.27 1.27-1.04 1.27-1.72V4L8 4.54v3c0 .43-.7 1.07-1.14 1.3l-.2.06V5.04l-.66.5v3.6l-1.33.68v-3.9Z" fill="#0080CA"/><path d="m13.98 7.3-.14-.9L9.34 4v3.37c0 .51.4 1.41 1.07 1.77L14 11.06l-.13-.78-2.98-1.6A2.24 2.24 0 0 1 10 7.2v-.13l3.94 2.05-.1-.88-3.84-2v-1l3.98 2.07Z" fill="#6FB82C"/><path d="m8.01 13.67 1.02.33L14 11.89l-3.59-1.63a3.64 3.64 0 0 0-2.45-.08L4 11.86l.96.24 3.32-1.43c.16-.07.38-.1.63-.1.5 0 .97.2 1.28.33l.14.06-4.23 1.8.99.36 4.12-1.76 1.07.5-4.27 1.81Z" fill="#F19500"/></svg>