<!-- by TradingView --><svg width="18" height="18" viewBox="0 0 18 18" xmlns="http://www.w3.org/2000/svg"><path fill="#F0F3FA" d="M0 0h18v18H0z"/><path d="M9 9.56c-.37 0-.67.22-.67.49v2.45l-2.76-1.35a.68.68 0 0 0-.3-.07c-.62 0-.84.7-.3.97l4 1.95L13 12.05c.53-.26.32-.97-.3-.97-.1 0-.2.03-.3.07l-2.72 1.33v-2.43c0-.27-.3-.5-.67-.5Z" fill="#FEF200"/><path d="M8.43 8.5c.15-.25.06-.56-.2-.7L5.8 6.46l2.62-1.42c.32-.17.28-.53.08-.78-.18-.23-.5-.36-.8-.2L4 6.1v4.06c0 .35.22.51.5.52.29 0 .5-.17.5-.5V7.3l2.68 1.38c.27.14.6.06.75-.18Z" fill="#71BF45"/><path d="M9.57 8.5c-.15-.25-.06-.56.2-.7l2.42-1.33-2.62-1.42c-.32-.17-.28-.53-.08-.78.18-.23.5-.36.8-.2L14 6.1v4.06c0 .35-.22.51-.5.52-.29 0-.5-.17-.5-.5V7.3l-2.68 1.38a.57.57 0 0 1-.75-.18Z" fill="#EE2D24"/></svg>