<!-- by TradingView --><svg width="18" height="18" viewBox="0 0 18 18" xmlns="http://www.w3.org/2000/svg"><path fill="#F0F3FA" d="M0 0h18v18H0z"/><path d="M8 6.55V5c-2.74 0-4 .74-4 1.13 0 .4.92.87 1.94.87.8 0 1.71-.3 2.06-.45Z" fill="#46549F"/><path d="M4.88 8.48 4 7.08c.6.46 1.58.72 2.23.72.66 0 1.44-.2 2.44-.52C10.33 6.74 12.13 6 12.77 6c.65 0 1.23.46 1.23 1a2.4 2.4 0 0 1-.4 1.37c.02-.3-.42-.76-1.03-.76-.6 0-1.68.33-2.36.6-.68.25-2.1.79-3.4.79a3.27 3.27 0 0 1-1.93-.52Z" fill="#58B648"/><path d="M7.8 13.82 7 12.5c.06.1.35.29.96.29.76 0 2.14-.78 2.44-.78.3 0 .6.23.6.5 0 .44-.3 1-.46 1.24-.01-.11-.12-.33-.44-.33-.4 0-1.34.59-1.72.59a.9.9 0 0 1-.58-.18Z" fill="#2F98CF"/><path d="M5.68 10.13c.07.1.96.37 1.58.37.88 0 3.58-1.5 4.26-1.5.55 0 .8.38.8.84 0 .78-.14 1.13-.3 1.39a.73.73 0 0 0-.72-.56c-.93 0-2.63 1.33-3.9 1.33-.44 0-.83-.34-.9-.4l-.82-1.47Z" fill="#25B7AA"/></svg>