<!-- by TradingView --><svg width="18" height="18" viewBox="0 0 18 18" xmlns="http://www.w3.org/2000/svg"><path fill="#F0F3FA" d="M0 0h18v18H0z"/><path d="M8.22 10.87a5.83 5.83 0 0 1-1.9-.58L7.8 6.45l1.72-.62c.16-.06.32.07.28.22L9.2 7.93h.72l.8-2.33a.2.2 0 0 1 .15-.14l1.83-.45c.16-.04.3.1.25.24l-1.78 5.04c-.85.46-1.76.58-2.12.58L9.5 9h-.64l-.63 1.87Z" fill="#D7000F"/><path d="M5.27 9.08c-.17-1.41 1.2-2.42 1.9-2.75C4.8 6.65 4.07 8.3 4 9.08 4 11.82 6.75 13 8.65 13a5.4 5.4 0 0 0 2.97-.78h-.85l2.75-1.18-2.75.59L15 9.47c-1.48.65-4.82 1.96-6.35 1.96-1.9 0-3.17-.59-3.38-2.35Z" fill="#2B568D"/></svg>