<!-- by TradingView --><svg width="18" height="18" viewBox="0 0 18 18" xmlns="http://www.w3.org/2000/svg"><path fill="#F0F3FA" d="M0 0h18v18H0z"/><path fill-rule="evenodd" d="M14.54 11.3A6 6 0 1 0 3.46 6.7a6 6 0 0 0 11.08 4.6Zm-2 1.24a5 5 0 0 0 0-7.08h-.01a.36.36 0 0 1-.17.28L9.54 7.5a.07.07 0 0 0-.02.03v.09a.12.12 0 0 0 .07.1.12.12 0 0 0 .11-.01l2.61-1.66c.12-.08.2-.06.22.08v.08c0 .07-.01.13-.04.19a.35.35 0 0 1-.13.14l-2.14 1.36a.1.1 0 0 0-.04.15l.04.04.08.04h.05l1.96-1.23c.12-.08.2-.05.22.1v.1a.46.46 0 0 1-.22.32l-1.5.94c-.05.03-.05.06 0 .09l.13.08c.03.02.06.02.09 0l1.27-.8c.15-.1.23-.05.23.13v.3a.43.43 0 0 1-.2.37l-.54.33c-.1.07-.1.13 0 .2l.69.47c.04.02.05.1.05.16v.2c-.06.07-.18.06-.25.01L9.13 7.92a.22.22 0 0 0-.26 0l-3.12 2c-.08.06-.16.05-.23-.01a.14.14 0 0 1-.04-.12c.01-.16.06-.27.15-.33l6.65-4.21.02-.01a5 5 0 0 0-6.83 7.3v-.22c0-.1 0-.14.03-.2a.38.38 0 0 1 .14-.17l1.48-.94c.59-.37 1.18-.74 1.76-1.13L9 9.86c.05 0 .09 0 .11.02l2.02 1.3 1.22.77c.07.04.12.1.15.17.03.06.03.12.03.2v.22Zm-.21.2-.03-.02c-.52-.34-1.04-.66-1.55-.97L9.07 10.7 9 10.66l-.07.04c-.49.32-1.03.66-1.6 1L5.7 12.72l-.02.01a5 5 0 0 0 6.65 0Zm-3.43-4L9 8.74c.05 0 .1 0 .11.02 1.16.74 2.24 1.43 3.18 2.06.12.08.2.05.23-.1v-.11c0-.07 0-.11-.03-.16a.3.3 0 0 0-.1-.13c-1.1-.72-2.2-1.43-3.31-2.12h-.16c-1.1.7-2.23 1.4-3.33 2.12a.29.29 0 0 0-.1.13c-.03.05-.03.08-.03.16v.1c.02.14.12.17.24.09l2.8-1.8.39-.24Zm.11.83c-.05 0-.09 0-.11.02l-1.04.65c-.77.5-1.51.96-2.17 1.4-.12.07-.2.04-.22-.1v-.1c0-.08 0-.11.03-.16a.3.3 0 0 1 .1-.13c1.1-.72 2.23-1.43 3.33-2.12h.16c1.1.7 2.2 1.4 3.3 2.12.05.03.09.08.1.13.03.05.04.08.04.15v.1c0 .12-.1.18-.23.1L9.12 9.6a.23.23 0 0 0-.11-.02Z" fill="#015AA8"/></svg>