<!-- by TradingView --><svg width="18" height="18" viewBox="0 0 18 18" xmlns="http://www.w3.org/2000/svg"><path fill="#F0F3FA" d="M0 0h18v18H0z"/><path d="M8.5 4.5V4h1v.5h2.05c.8 0 1.45.58 1.45 1.5v8h-1V6c0-.32-.12-.5-.54-.5H9.5V6h.66c.6 0 1.34.66 1.34 1.34v3.16h-2v.5h2v3H7.55c-.6 0-1.05-.51-1.05-1.2V11h2v-.5h-2v-1h2V9h-2V8h2V7h-2V6h2v-.5H6.6c-.42 0-.6.02-.6.5v8H5V6c0-.92.65-1.5 1.45-1.5H8.5Zm1 2.5v1h1v-.66c0-.24-.13-.34-.34-.34H9.5Zm1 2h-1v.5h1V9Zm-3 3v.71c0 .16.14.29.26.29h2.74v-1h-3Z" fill="#E70012"/></svg>