<!-- by TradingView --><svg width="18" height="18" viewBox="0 0 18 18" xmlns="http://www.w3.org/2000/svg"><path fill="#F0F3FA" d="M0 0h18v18H0z"/><path d="M4.02 4H4c.2 4.2 3.41 5.08 5 5L4.02 4Z" fill="url(#a2vo32agk)"/><path d="M8.98 9H9c-.2-4.2-3.41-5.08-5-5l4.98 5Z" fill="url(#b2vo32agk)"/><path d="M13.98 14H14c-.2-4.2-3.41-5.08-5-5l4.98 5Z" fill="url(#c2vo32agk)"/><path d="M9.02 9H9c.2 4.2 3.41 5.08 5 5L9.02 9Z" fill="url(#d2vo32agk)"/><path d="M9 9h.02c1.6.07 4.78-.83 4.98-5h-.02c-1.6-.07-4.78.83-4.98 5Z" fill="url(#e2vo32agk)"/><path d="M9 9h-.02c-1.6-.07-4.78.83-4.98 5h.02c1.6.07 4.78-.83 4.98-5Z" fill="url(#f2vo32agk)"/><defs><linearGradient id="a2vo32agk" x1="4.75" y1="4.48" x2="9.02" y2="8.99" gradientUnits="userSpaceOnUse"><stop stop-color="#82A941"/><stop offset=".4" stop-color="#AACE7E"/><stop offset=".8" stop-color="#DDF1CA"/><stop offset="1" stop-color="#EDF6EA"/></linearGradient><linearGradient id="b2vo32agk" x1="8.75" y1="9.02" x2="3.98" y2="4.01" gradientUnits="userSpaceOnUse"><stop stop-color="#D4E2C1"/><stop offset=".23" stop-color="#93BB5F"/><stop offset=".4" stop-color="#A0C975"/><stop offset=".8" stop-color="#ACD177"/><stop offset="1" stop-color="#B9D898"/></linearGradient><linearGradient id="c2vo32agk" x1="13.25" y1="13.52" x2="8.98" y2="9.01" gradientUnits="userSpaceOnUse"><stop stop-color="#82A941"/><stop offset=".4" stop-color="#AACE7E"/><stop offset=".8" stop-color="#DDF1CA"/><stop offset="1" stop-color="#EDF6EA"/></linearGradient><linearGradient id="d2vo32agk" x1="9.25" y1="8.98" x2="14.02" y2="13.99" gradientUnits="userSpaceOnUse"><stop stop-color="#D4E2C1"/><stop offset=".23" stop-color="#93BB5F"/><stop offset=".4" stop-color="#A0C975"/><stop offset=".8" stop-color="#ACD177"/><stop offset="1" stop-color="#B9D898"/></linearGradient><linearGradient id="e2vo32agk" x1="9.24" y1="9.02" x2="14.02" y2="4.01" gradientUnits="userSpaceOnUse"><stop stop-color="#CDE4FF"/><stop offset=".23" stop-color="#7EC9F5"/><stop offset=".4" stop-color="#1D9FD7"/><stop offset=".8" stop-color="#18A5DC"/><stop offset="1" stop-color="#17B1E1"/></linearGradient><linearGradient id="f2vo32agk" x1="8.76" y1="8.98" x2="3.98" y2="13.99" gradientUnits="userSpaceOnUse"><stop stop-color="#CDE4FF"/><stop offset=".23" stop-color="#7EC9F5"/><stop offset=".4" stop-color="#1D9FD7"/><stop offset=".8" stop-color="#18A5DC"/><stop offset="1" stop-color="#17B1E1"/></linearGradient></defs></svg>