<!-- by TradingView --><svg width="18" height="18" viewBox="0 0 18 18" xmlns="http://www.w3.org/2000/svg"><path fill="#F0F3FA" d="M0 0h18v18H0z"/><path d="M10.72 4.26c-.26.04-.63.04-1.12 0a3.38 3.38 0 0 0-1.63.3c-.45.19-.88.5-1.3.94a5.96 5.96 0 0 0-1.21 1.9 3.94 3.94 0 0 0-.2.95c-.01.1-.09.28-.23.51l-.74.9c-.07.07-.1.06-.13-.04a4.58 4.58 0 0 1 .33-2.6 5.15 5.15 0 0 1 2.74-2.75 5.03 5.03 0 0 1 3.5-.1Z" fill="#396CAF"/><path d="M10.72 4.26c.44.12.86.33 1.25.62.35.25.66.53.94.84.03.02.03.05.03.08a.1.1 0 0 1-.06.07l-.22.11c-.12-.11-.29-.3-.5-.57a2.84 2.84 0 0 0-1.12-.85 5.16 5.16 0 0 0-1.55-.22c-.21 0-.4.05-.57.12-.7.34-1.28.82-1.74 1.45-.17.23-.34.57-.51 1.01a2.92 2.92 0 0 1-.41.72c-.13.13-.2.22-.23.26l-1 .96a1.64 1.64 0 0 0 .23-.53c.06-.43.12-.73.2-.92.3-.74.7-1.37 1.21-1.9.42-.44.85-.76 1.3-.95.55-.24 1.1-.34 1.63-.3.5.04.86.04 1.12 0Z" fill="#6080BB"/><path d="M11.04 4.56h-.16c-.3-.09-.62-.13-.93-.14-.23-.01-.44.03-.64.12-.72.3-1.26.82-1.63 1.55l-.34.73L6.03 7.9c.02-.04.1-.13.23-.26a2.92 2.92 0 0 0 .41-.72c.17-.44.34-.78.51-1.01a4.47 4.47 0 0 1 1.74-1.45c.17-.07.36-.11.57-.12.53 0 1.05.07 1.55.22Z" fill="#7A90C4"/><path d="m10.88 4.55-.6-.04c-.2-.01-.39.02-.56.09-.36.14-.66.36-.9.64l-.33.48a4.1 4.1 0 0 1-.82.85l-.33.25.34-.73c.37-.73.91-1.24 1.63-1.55.2-.1.41-.13.64-.12.31 0 .62.05.93.13Z" fill="#97A5D0"/><path d="M10.88 4.55c.06.02.11.02.16 0 0 .02.01.02.02.03l.4.3c-.46-.25-.94-.3-1.42-.12a.12.12 0 0 0-.07.05c-.23.38-.38.73-.43 1.05-.07.38-.02.75.15 1.1.1.2.3.45.59.76.02.02.02.04 0 .07-.2.26-.43.45-.7.58-.03.01-.05 0-.07-.02l-.25-.46a5.7 5.7 0 0 0-1.04-1.4c-.08-.08-.17-.12-.25-.1a.71.71 0 0 0-.23.13 2.37 2.37 0 0 1-.07.05c.4-.33.68-.62.82-.85.15-.23.26-.4.33-.48.24-.28.54-.5.9-.64.17-.07.36-.1.57-.1l.59.05Z" fill="#B1BCDE"/><path d="m12.66 5.98-.08.1-.34.05c-.03 0-.05-.01-.06-.04-.1-.5-.33-.9-.71-1.2l-.41-.31c.45.2.82.47 1.1.83.21.26.38.46.5.57Z" fill="#97A5D0"/><path d="M11.47 4.89c.38.3.62.7.71 1.2 0 .03.03.04.06.04l.34-.06-.59.4c-.15.1-.28.22-.4.34-.05.07-.16.15-.3.25-.14.09-.24.16-.3.23l-.31.32c-.1.12-.22.22-.32.3l-.53.47c-.13.1-.23.12-.32.05-.06-.05-.13-.2-.21-.42a3.2 3.2 0 0 0-.04-.12l.25.46c.02.02.04.03.06.02.28-.13.51-.32.71-.58.02-.03.02-.05 0-.07-.3-.3-.49-.56-.59-.75a1.74 1.74 0 0 1-.15-1.11c.05-.32.2-.67.43-1.05a.12.12 0 0 1 .07-.05c.48-.18.96-.13 1.43.13Z" fill="#CCD3EA"/><path d="M10.08 5.5c.1-.45.38-.69.83-.71a.4.4 0 0 1 .17.02c.19.08.33.2.43.35a.4.4 0 0 1 .07.27l-.02.3c-.03.35-.2.6-.5.74a.73.73 0 0 1-.57.02.63.63 0 0 1-.4-.4 1.02 1.02 0 0 1-.01-.58Z" fill="#EDF0F8"/><path d="M5.63 10.3c.4.39.82.74 1.27 1.06 1 .72 2.06.99 3.2.81a3.72 3.72 0 0 0 2.1-1.02c.55-.53.94-1.22 1.16-2.06.09-.33.16-.67.23-1.02.03-.18.03-.36-.01-.55a7.8 7.8 0 0 0-.37-1.28l1.2-1.03a.05.05 0 0 1 .06 0l.02.01v.02c-.21.25-.43.51-.64.8-.12.17-.19.36-.2.57-.02.12.02.31.1.56.02.02.02.05.04.09a4.93 4.93 0 0 1-1.23 5.36A4.8 4.8 0 0 1 9.18 14a4.76 4.76 0 0 1-3.33-1.22 2.28 2.28 0 0 0-.54-.38.94.94 0 0 0-.92.12l-.19.15c-.23.29-.26.27-.09-.06.4-.77.91-1.54 1.52-2.31Z" fill="#396CAF"/><path d="m5.63 10.3.85-1 .06.04c.41.23.7.41.87.55.56.43 1.1.8 1.63 1.13.07.04.14.06.2.05.5-.1.96-.23 1.38-.37.93-.32 1.6-.88 1.98-1.68.3-.64.46-1.52.46-2.63l.15-.15c.16.42.28.84.37 1.28.04.19.04.37 0 .55-.06.35-.13.69-.22 1.02-.22.84-.6 1.53-1.15 2.06-.57.56-1.27.9-2.1 1.02a4.24 4.24 0 0 1-3.2-.8c-.46-.33-.88-.68-1.28-1.07Z" fill="#6080BB"/><path d="M13.06 6.4c0 1.1-.16 1.98-.46 2.62a3.25 3.25 0 0 1-1.98 1.68c-.42.14-.88.27-1.38.37-.06 0-.13 0-.2-.05a17.1 17.1 0 0 1-1.63-1.13 7.43 7.43 0 0 0-.93-.58l.48-.51c.3-.04.55.03.75.21.34.32.72.74 1.16 1.25.06.07.13.18.2.33a4.33 4.33 0 0 0 .16.3c.02.01.05 0 .06-.02l.19-.3.3-.34a3.6 3.6 0 0 0 2.5-2.02c.21-.39.4-.9.58-1.56l.05-.07c.06-.06.1-.12.12-.18 0 .02 0 .02.03 0Z" fill="#7A90C4"/><path d="M13.03 6.4a.37.37 0 0 1-.12.18.14.14 0 0 0-.05.07 7.34 7.34 0 0 1-.58 1.56c-.28.5-.65.92-1.1 1.24a7 7 0 0 1-1.4.78l-.3.34a.36.36 0 0 1 .1-.17l.6-.71a.23.23 0 0 0 .04-.07.4.4 0 0 1 .22-.24l.02-.03.02-.02a3.37 3.37 0 0 0 1.73-2.15l.82-.78Z" fill="#97A5D0"/><path d="M12.21 7.19c-.14.43-.36.82-.66 1.16a7.37 7.37 0 0 1-1.07.98l-.02.02c0 .02-.01.02-.02.03a.4.4 0 0 0-.22.24.23.23 0 0 1-.04.07l-.6.71c.03-.1.07-.18.14-.25a2.94 2.94 0 0 0 .32-.42 20.3 20.3 0 0 1 2.17-2.54Z" fill="#B1BCDE"/><path d="M9.16 10.75a4.33 4.33 0 0 1-.08-.16 1.79 1.79 0 0 0-.2-.33c-.45-.51-.83-.93-1.17-1.25a.86.86 0 0 0-.75-.21l.85-.72c.08-.07.14-.05.2.04l.73 1.5c.14.29.28.66.42 1.13Z" fill="#97A5D0"/></svg>