<!-- by TradingView --><svg xmlns="http://www.w3.org/2000/svg" width="18" height="18"><path fill="#F0F3FA" d="M0 0h18v18H0z"/><path d="M8.88 4A4.97 4.97 0 004 9a4.97 4.97 0 004.88 5v-3.24l-.06-.12v-.02c-.1-.2-.25-.44-.4-.7-.35-.57-.73-1.2-.68-1.7.05-.54.49-.97.89-1.3.1-.09.19-.17.25-.28V4z" fill="url(#ao0upwk3t)"/><path d="M9.12 14v-1.56l3.37.16A4.9 4.9 0 019.12 14z" fill="url(#bo0upwk3t)"/><path d="M9.12 11.78v-.42c.06-.1.15-.2.25-.27.25-.2.5-.45.68-.73l3.7.23a5 5 0 01-.49 1.04l-4.14.15z" fill="url(#co0upwk3t)"/><path d="M10.27 9.66c-.01-.42-.3-.94-.6-1.42l4.3.15a5.11 5.11 0 01.01 1.05l-3.71.22z" fill="url(#do0upwk3t)"/><path d="M9.3 7.6a3.9 3.9 0 01-.11-.22l-.01-.02-.06-.12v-1.1l4.12.2a5 5 0 01.48 1L9.3 7.6z" fill="url(#eo0upwk3t)"/><path d="M9.12 4.48V4a5 5 0 013.32 1.36l-3.32.2V4.48z" fill="url(#fo0upwk3t)"/><defs><linearGradient id="ao0upwk3t" x1="6.47" y1="4" x2="6.47" y2="14" gradientUnits="userSpaceOnUse"><stop offset=".1" stop-color="#FFD203"/><stop offset=".53" stop-color="#E40011"/><stop offset="1" stop-color="#CA000B"/></linearGradient><linearGradient id="bo0upwk3t" x1="10.75" y1="12.44" x2="10.75" y2="14.18" gradientUnits="userSpaceOnUse"><stop stop-color="#00A9E3"/><stop offset=".52" stop-color="#0071BB"/></linearGradient><linearGradient id="co0upwk3t" x1="11.36" y1="10.36" x2="11.36" y2="11.94" gradientUnits="userSpaceOnUse"><stop stop-color="#00A9E3"/><stop offset=".52" stop-color="#0071BB"/></linearGradient><linearGradient id="do0upwk3t" x1="11.77" y1="8.24" x2="11.77" y2="9.83" gradientUnits="userSpaceOnUse"><stop stop-color="#00A9E3"/><stop offset=".52" stop-color="#0071BB"/></linearGradient><linearGradient id="eo0upwk3t" x1="11.35" y1="6.13" x2="11.35" y2="7.76" gradientUnits="userSpaceOnUse"><stop stop-color="#00A9E3"/><stop offset=".52" stop-color="#0071BB"/></linearGradient><linearGradient id="fo0upwk3t" x1="10.73" y1="4" x2="10.73" y2="5.74" gradientUnits="userSpaceOnUse"><stop stop-color="#00A9E3"/><stop offset=".52" stop-color="#0071BB"/></linearGradient></defs></svg>