<!-- by TradingView --><svg width="18" height="18" viewBox="0 0 18 18" xmlns="http://www.w3.org/2000/svg"><path fill="#F0F3FA" d="M0 0h18v18H0z"/><path fill-rule="evenodd" d="m6 8.12.18-.6a2.81 2.81 0 0 0-.64-.06c-.45 0-1.11.07-2.24 1.12-1.12 1.06-1.06 1.65-.4 1.65.53 0 8.38-.08 12.24-.15l.1-.31H4.98l.72-1.65H6Zm.38-.5-.56 2h.98l.22-.59.73.59h.75l.18-.28h-.56l-.3-.3h.86l.34-1.33-2.64-.1Zm.81.45-.13.44h.86l.1-.39-.83-.05Zm4.85 1.55H8.73l.54-1.92 3.22.17-.15.44-2.06-.1-.24.88h2.12l-.12.53Zm.22 0h2.97l.12-.46h-1.91l.23-.82 1.86.1.1-.4-2.9-.12-.47 1.7Z" fill="#E80C18"/><path fill-rule="evenodd" d="M9.01 13C12.87 13 16 11.2 16 9s-3.08-3.97-6.9-4H8.8C5.01 5.06 2 6.83 2 9s3.02 3.94 6.8 4H9ZM7.63 5.76c.37-.37.8-.6 1.27-.62v.72c-.5 0-.92-.05-1.27-.1Zm1.46-.62v.72c.46 0 .89-.06 1.26-.13-.36-.36-.8-.57-1.26-.6Zm-1.57.74c.4.06.87.11 1.38.12v1.18c-.78 0-1.48-.03-2.1-.06.18-.5.42-.91.72-1.24ZM9.09 6v1.18c.8 0 1.5-.03 2.12-.07a3.8 3.8 0 0 0-.73-1.25c-.4.08-.87.14-1.39.14ZM6.74 7.28c.66.05 1.39.08 2.16.08v.23l.2.01v-.24c.78 0 1.51-.03 2.17-.1l.12.45.24.01a5.12 5.12 0 0 0-.13-.47c.58-.06 1.1-.13 1.53-.2.18.23.32.49.42.76h.18c-.1-.27-.25-.54-.43-.8.6-.1 1.07-.22 1.35-.3.82.64 1.3 1.43 1.3 2.29 0 .77-.4 1.5-1.07 2.1-.3-.08-.81-.17-1.48-.27.13-.2.24-.41.32-.63h-.17c-.08.21-.2.42-.32.6l-1.6-.16c.05-.13.08-.27.11-.41h-.24a5.2 5.2 0 0 1-.1.4c-.67-.05-1.41-.08-2.2-.09v-.27h-.2v.27c-.8 0-1.52.04-2.18.1l-.09-.33h-.24l.1.35c-.65.07-1.21.15-1.68.24a3.56 3.56 0 0 1-.32-.55h-.17c.08.2.2.4.32.58-.57.11-1 .22-1.26.31-.77-.63-1.23-1.4-1.23-2.24 0-.8.43-1.55 1.15-2.18.29.07.74.16 1.34.24-.15.23-.28.47-.38.72l.22-.1c.1-.2.2-.4.34-.6.48.07 1.05.14 1.69.18l-.07.22.24.01.06-.2Zm.03 3.53c.62-.05 1.33-.07 2.13-.08v1.22c-.52 0-.99.07-1.4.16-.3-.34-.55-.79-.73-1.3Zm2.32-.08v1.22c.54 0 1.03.06 1.44.13.3-.34.54-.78.71-1.29-.63-.03-1.34-.05-2.15-.06Zm-1.46 1.51c.38-.08.81-.13 1.27-.14v.76c-.46-.03-.9-.25-1.27-.62Zm1.46-.14v.76a2 2 0 0 0 1.33-.66c-.37-.05-.81-.1-1.33-.1Zm.82.68c.47-.08.92-.21 1.33-.4a5.6 5.6 0 0 0-.6-.14c-.23.23-.47.41-.73.54Zm.4.06c.4-.1.77-.23 1.13-.4.13.05.24.1.31.15-.46.11-.94.2-1.45.25Zm1.32-.5.4.17a7.2 7.2 0 0 0 2.59-1.27 9.7 9.7 0 0 0-1.4-.27 4.5 4.5 0 0 1-1.6 1.38Zm1.48-5.46a6.36 6.36 0 0 0 1.25-.32 7.71 7.71 0 0 0-2.58-1.14c-.08.05-.19.1-.32.15.67.32 1.23.78 1.65 1.31Zm-1.83-1.24a4.5 4.5 0 0 1 1.65 1.27c-.41.07-.9.13-1.49.18-.19-.5-.45-.94-.76-1.28.23-.05.43-.11.6-.17Zm-.2-.1-.52.15c-.2-.2-.42-.36-.65-.47.4.06.8.18 1.16.33Zm.2-.06c-.31-.13-.64-.24-.98-.32.44.04.86.12 1.26.2l-.29.12Zm-3.87.25c.23-.24.49-.42.76-.54-.5.06-.98.2-1.42.38l.66.16Zm-.85-.07c.2.06.45.12.75.18a4 4 0 0 0-.74 1.26c-.65-.04-1.2-.09-1.66-.15.41-.53.98-.98 1.65-1.3Zm0-.16c.28-.13.58-.23.9-.31-.4.05-.77.12-1.14.2.06.04.14.07.24.11Zm-.51-.03.31.12c-.66.34-1.22.8-1.62 1.34a9.14 9.14 0 0 1-1.27-.24 7.37 7.37 0 0 1 2.58-1.22Zm5.38 6.82a4.4 4.4 0 0 0 1.6-1.34c-.43-.05-.95-.1-1.55-.14-.18.5-.43.96-.74 1.31.27.05.5.11.7.17Zm-6.7-1.22c-.57.11-.95.23-1.15.32.68.5 1.58.91 2.6 1.18l.26-.12a4.6 4.6 0 0 1-1.7-1.38Zm2.73 1.74c-.36-.04-.71-.1-1.05-.18l.22-.1c.27.12.54.21.83.28Zm.71 0a5.5 5.5 0 0 1-1.34-.35c.17-.06.37-.12.6-.17.22.22.47.4.74.52Zm-1.63-1.98c.19.52.45.97.76 1.33-.26.06-.49.14-.68.21a4.5 4.5 0 0 1-1.71-1.33c.44-.08.98-.16 1.63-.21Z" fill="#0365FF"/></svg>