<!-- by TradingView --><svg width="18" height="18" viewBox="0 0 18 18" xmlns="http://www.w3.org/2000/svg"><path fill="#F0F3FA" d="M0 0h18v18H0z"/><path fill-rule="evenodd" d="M9 3a6 6 0 0 0 0 12v-.7A5.3 5.3 0 0 1 9 3.7V3Zm1.06 11.19a5.3 5.3 0 0 0 0-10.38V3.1a6 6 0 0 1 0 11.82v-.72ZM9 14A5 5 0 1 0 9 4a5 5 0 0 0 0 10Zm0-.36a4.64 4.64 0 1 0 0-9.28 4.64 4.64 0 0 0 0 9.28ZM6 6h6.02v2.02L11 7 9 9l2 2 1.02-1.02v2.04H6V6Z" fill="url(#a)"/><defs><linearGradient id="a" x1="9" y1="3" x2="9" y2="15" gradientUnits="userSpaceOnUse"><stop stop-color="#D74114"/><stop offset="1" stop-color="#9F3423"/></linearGradient></defs></svg>