<!-- by TradingView --><svg width="18" height="18" viewBox="0 0 18 18" xmlns="http://www.w3.org/2000/svg"><path fill="#F0F3FA" d="M0 0h18v18H0z"/><path fill-rule="evenodd" d="M5 6a3 3 0 0 0 0 6h8a3 3 0 1 0 0-6H5Zm.02.33a2.67 2.67 0 1 0 0 5.34h7.96a2.67 2.67 0 0 0 0-5.34H5.02Z" fill="#BECFD7"/><path d="M5.68 7c.48 0 .57.24.58.36-.37-.2-1.61-.01-1.61 1.62 0 1.11.57 1.5.9 1.66h1.1C6.29 10.32 6 9.8 6 8.98 6 7.5 7.02 7 7.63 7c.48 0 .62.24.63.36-.37-.2-1.61-.01-1.61 1.62 0 1.11.52 1.5.85 1.66h1.2c-.36-.32-.7-.84-.7-1.66C8 7.5 9.07 7 9.68 7c.48 0 .57.24.58.36-.35-.18-1.47-.03-1.61 1.32h1.2c.14 0 .26.13.26.3 0 .16-.12.29-.26.29h-1.2c.07.9.6 1.22.9 1.37h4.3c.08 0 .15.09.15.18 0 .1-.07.18-.15.18H5.4C5.08 11 4 10.44 4 8.98 4 7.5 5.07 7 5.68 7Z" fill="#C7F748"/><path d="M13.6 10.63c-.34 0-.46-.34-.46-.61 0-.36.18-.61.46-.61.23 0 .38.18.4.4h-.18c-.03-.12-.1-.2-.22-.2-.21 0-.24.25-.24.4 0 .16.02.42.24.42.12 0 .2-.1.22-.2H14c-.02.21-.17.4-.4.4ZM12.08 9.91v.72h-.22V9.4h.21v.2h.01c.05-.12.14-.2.28-.2.26 0 .35.24.35.45v.77h-.21v-.74c0-.18-.07-.28-.2-.28-.17 0-.22.16-.22.3ZM11.1 9.2a.1.1 0 0 1-.07-.02.1.1 0 0 1-.03-.08.1.1 0 0 1 .03-.07.1.1 0 0 1 .08-.03.1.1 0 0 1 .07.03.1.1 0 0 1 .04.07.1.1 0 0 1-.04.08.1.1 0 0 1-.07.03ZM11 9.4v1.23h.21V9.4H11Z" fill="#42669A"/></svg>