<!-- by TradingView --><svg width="18" height="18" viewBox="0 0 18 18" xmlns="http://www.w3.org/2000/svg"><path fill="#F0F3FA" d="M0 0h18v18H0z"/><path d="M11.19 8.49c0-.33-.07-.64-.19-.93v-3.5c1.77.8 3 2.62 3 4.75A5.1 5.1 0 0 1 9 14a5.1 5.1 0 0 1-5-5.19 5.2 5.2 0 0 1 3-4.76v3.52c-.12.28-.19.59-.19.92 0 1.25.98 2.27 2.2 2.27 1.2 0 2.18-1.02 2.18-2.27Z" fill="url(#ahk3lo2kl)"/><path d="M11.19 8.43c0-.33-.07-.64-.19-.92V4.06a4.56 4.56 0 0 1 2.38 4.04c0 2.51-1.96 4.54-4.38 4.54A4.46 4.46 0 0 1 4.62 8.1c0-1.76.97-3.28 2.38-4.04v3.45c-.12.28-.19.59-.19.92 0 1.25.98 2.27 2.19 2.27 1.2 0 2.19-1.02 2.19-2.27Z" fill="url(#bhk3lo2kl)"/><path d="M10.5 5.5a1.5 1.5 0 1 1-3 0 1.5 1.5 0 0 1 3 0Z" fill="url(#chk3lo2kl)"/><path d="M9 5a.5.5 0 1 1-1 0 .5.5 0 0 1 1 0Z" fill="#F0F3FA" fill-opacity=".5"/><defs><linearGradient id="ahk3lo2kl" x1="9" y1="4" x2="9" y2="14" gradientUnits="userSpaceOnUse"><stop stop-color="#52ADD9"/><stop offset=".4" stop-color="#018AD3"/><stop offset="1" stop-color="#086187"/></linearGradient><linearGradient id="bhk3lo2kl" x1="9" y1="4" x2="9" y2="12.64" gradientUnits="userSpaceOnUse"><stop stop-color="#12648F"/><stop offset=".53" stop-color="#178EB6"/><stop offset="1" stop-color="#7ED1F7"/></linearGradient><linearGradient id="chk3lo2kl" x1="8.75" y1="4.3" x2="10.1" y2="6.7" gradientUnits="userSpaceOnUse"><stop stop-color="#FDA96E"/><stop offset="1" stop-color="#F42D22"/></linearGradient></defs></svg>