<!-- by TradingView --><svg width="18" height="18" viewBox="0 0 18 18" xmlns="http://www.w3.org/2000/svg"><path fill="#F0F3FA" d="M0 0h18v18H0z"/><path fill-rule="evenodd" d="M4 4.35c0-.2.16-.35.35-.35h9.3c.2 0 .35.16.35.35v4.14c0 .14-.11.25-.25.25h-.1a.26.26 0 0 1-.25-.24 4.3 4.3 0 0 0-4.3-3.79A4.35 4.35 0 0 0 4.71 9c0 2.39 2 4.29 4.4 4.29a4.3 4.3 0 0 0 4.29-3.8.26.26 0 0 1 .25-.23h.1c.14 0 .25.11.25.25v4.14c0 .2-.16.35-.35.35h-9.3a.35.35 0 0 1-.35-.35v-9.3Zm5.1 8.68a4.03 4.03 0 1 0 0-8.06 4.03 4.03 0 0 0 0 8.06ZM12.7 9a3.6 3.6 0 0 1-5.58 3h3.25l.63-.58V9.4l-.44-.4.44-.4V6.55L10.4 6H7.11a3.6 3.6 0 0 1 5.58 3ZM7 6.08a3.59 3.59 0 0 0 0 5.84V6.08ZM9.5 7h-1v1h1V7Zm0 3h-1v1h1v-1Z" fill="#FE0000"/></svg>