<!-- by TradingView --><svg width="18" height="18" viewBox="0 0 18 18" xmlns="http://www.w3.org/2000/svg"><path fill="#F0F3FA" d="M0 0h18v18H0z"/><path d="M8.91 4A4.96 4.96 0 0 0 4 9c0 2.76 2.2 5 4.91 5h2.28c.45 0 .81-.37.81-.82a.81.81 0 0 0-.8-.82H9.36A3.39 3.39 0 0 1 6 9a3.39 3.39 0 0 1 3.37-3.36h1.82c.45 0 .81-.37.81-.82a.81.81 0 0 0-.8-.82H8.9Z" fill="#EE001F"/><path d="M9.74 6C8.23 6 6.5 7.34 6.5 9s1.73 3 3.24 3h1.48c.43 0 .78-.53.78-1s-.35-1-.78-1h-2C8.55 10 8 9.71 8 9s.56-1 1.21-1h2.01c.43 0 .78-.53.78-1s-.35-1-.78-1H9.74Z" fill="#EE001F"/></svg>