<!-- by TradingView --><svg width="18" height="18" viewBox="0 0 18 18" xmlns="http://www.w3.org/2000/svg"><path fill="#F0F3FA" d="M0 0h18v18H0z"/><path d="m14.98 6.28-5.7 2.37a.03.03 0 0 1-.04-.02L6.82 3.04a.03.03 0 0 1 0-.03.03.03 0 0 1 .04 0l8.12 3.2.01.02a.03.03 0 0 1 0 .05Z" fill="#110658"/><path d="m6.34 3.25 2.42 5.6v.01l-.01.02-5.7 2.38H3a.03.03 0 0 1 0-.04l3.28-7.97v-.02a.03.03 0 0 1 .05.02Z" fill="#866D32"/><path d="m12.4 12.55-1.16-2.69a.03.03 0 0 1 0-.03h.01L14 8.67a.03.03 0 0 1 .03 0 .03.03 0 0 1 .01.04l-1.57 3.83-.01.01a.03.03 0 0 1-.03 0l-.02-.01Z" fill="#88181B"/><path d="m3.25 11.72 5.7-2.37h.03l.01.01 2.42 5.6v.02a.03.03 0 0 1-.04.02l-8.12-3.22-.01-.01a.03.03 0 0 1 0-.04h.01Z" fill="#110658"/></svg>