<!-- by TradingView --><svg width="18" height="18" viewBox="0 0 18 18" xmlns="http://www.w3.org/2000/svg"><path fill="#F0F3FA" d="M0 0h18v18H0z"/><path fill-rule="evenodd" d="M9.1 10.97c3.22 0 5.83-1.04 5.83-2.33 0-1.3-2.61-2.34-5.83-2.34S3.26 7.35 3.26 8.64c0 1.29 2.62 2.33 5.84 2.33Zm0-.23c2.86 0 5.18-.96 5.18-2.15 0-1.2-2.32-2.16-5.18-2.16-2.87 0-5.19.96-5.19 2.16 0 1.19 2.32 2.15 5.19 2.15Z" fill="#0095D9"/><path fill-rule="evenodd" d="M9.05 10.18c2.41 0 4.37-.85 4.37-1.91s-1.96-1.91-4.37-1.91c-2.42 0-4.38.85-4.38 1.9 0 1.07 1.96 1.92 4.38 1.92Zm0-.18c2.15 0 3.89-.8 3.89-1.77 0-.98-1.74-1.77-3.9-1.77-2.14 0-3.88.8-3.88 1.77S6.9 10 9.05 10Z" fill="#00A6E4"/><path fill-rule="evenodd" d="M8.98 9.48c1.78 0 3.21-.66 3.21-1.47 0-.81-1.43-1.47-3.2-1.47-1.78 0-3.21.66-3.21 1.47 0 .81 1.43 1.47 3.2 1.47Zm0-.14c1.58 0 2.86-.61 2.86-1.36 0-.75-1.28-1.36-2.86-1.36-1.57 0-2.85.6-2.85 1.36 0 .75 1.28 1.36 2.85 1.36Z" fill="#15C0F2"/><path fill-rule="evenodd" d="M9 8.83c1.29 0 2.33-.47 2.33-1.05 0-.58-1.04-1.05-2.33-1.05s-2.33.47-2.33 1.05c0 .58 1.04 1.05 2.33 1.05Zm0-.1c1.14 0 2.07-.44 2.07-.97 0-.54-.93-.97-2.07-.97-1.15 0-2.07.43-2.07.97 0 .53.92.97 2.07.97Z" fill="#6BCFF6"/><path d="M7.3 9.6c0 .4.75.96 1.13 1.2.8-.02 2.45-.08 2.7-.22-1.18-.1-2.26-.77-2.26-1.26 0-.5 1.3-1.12 1.3-1.82 0-.46-.87-.95-1.3-1.14h-.44c.26.14 1.08.6 1.08 1.1 0 .5-.94.98-1.13 1.08-.2.09-1.09.56-1.09 1.06Z" fill="#0095D9"/><path fill-rule="evenodd" d="M9 12c3.87 0 7-1.34 7-3s-3.13-3-7-3-7 1.34-7 3 3.13 3 7 3Zm0-.1c3.63 0 6.57-1.3 6.57-2.9 0-1.6-2.94-2.9-6.57-2.9-3.63 0-6.57 1.3-6.57 2.9 0 1.6 2.94 2.9 6.57 2.9Z" fill="#7FA8BC"/></svg>