<!-- by TradingView --><svg width="18" height="18" viewBox="0 0 18 18" xmlns="http://www.w3.org/2000/svg"><path fill="#F0F3FA" d="M0 0h18v18H0z"/><path d="M6.93 12h1.85c.01 0 .02 0 .02-.02l1.87-5.94c.01-.03 0-.04-.02-.04H8.8c-.01 0-.02 0-.03.02L6.9 11.96c0 .03 0 .04.03.04Zm6.93-4.99c.03-.07.01-.13-.03-.17-.22-.19-.47-.18-.77.02-.07.05-.14.17-.21.37l-1.28 3.74c-.03.08-.01.15.04.2.1.1.21.15.37.13a.83.83 0 0 0 .39-.15c.09-.06.16-.19.22-.37l.09-.25.26-.74c.01-.02.03-.04.05-.04h1.68c.03 0 .04.02.03.05-.18.55-.25.7-.3.79-.2.37-.45.65-.75.86-.5.33-.98.51-1.43.53-.35.02-.68.02-1 .01-.3-.01-.58-.1-.82-.27-.29-.2-.45-.48-.47-.83-.01-.16.04-.4.15-.73l.86-2.5c.18-.53.53-.94 1.06-1.24.46-.26.94-.4 1.47-.42.44 0 .77 0 1 .06.35.07.63.24.84.5.22.29.25.67.08 1.16a43.77 43.77 0 0 0-.3.87c-.02.03-.03.04-.06.04h-1.7V8.6l.53-1.6Zm-7.92 0c.02-.07 0-.13-.04-.17-.21-.19-.47-.18-.76.02-.08.05-.15.17-.22.37a2447 2447 0 0 0-1.27 3.74c-.03.08-.02.15.03.2.1.1.22.15.37.13a.84.84 0 0 0 .4-.15c.08-.06.15-.19.21-.37l.12-.35.23-.64c0-.03.02-.04.04-.04h1.68c.03 0 .04.02.03.05-.17.55-.24.7-.28.79-.2.37-.46.65-.76.86-.5.33-.98.51-1.43.53-.35.02-.68.02-.99.01-.3-.01-.58-.1-.82-.27-.3-.2-.45-.48-.48-.82-.01-.17.04-.41.15-.74l.86-2.5c.18-.53.54-.94 1.07-1.24.45-.26.94-.4 1.46-.42.44 0 .78 0 1 .06.35.07.63.24.84.5.23.29.25.67.09 1.16l-.2.56-.1.3c-.02.03-.03.04-.06.04h-1.7c-.01 0-.02 0-.01-.02l.54-1.59Z" fill="#EA5413"/></svg>