<!-- by TradingView --><svg width="18" height="18" viewBox="0 0 18 18" xmlns="http://www.w3.org/2000/svg"><path fill="#F0F3FA" d="M0 0h18v18H0z"/><path d="M4 10v.7h2.2c-.16-.21-.3-.45-.4-.7H4Zm0-.3h1.69a3 3 0 0 1-.12-.7H4v.7Zm0-1h1.57a3 3 0 0 1 .11-.7H4v.7Zm0-1h1.79c.1-.25.23-.48.4-.7H4v.7Zm0-1h2.44c.17-.17.36-.33.56-.46v-.28H4v.74Zm0-1.06h3V5H4v.64Zm4 0h2V5H8v.64Zm3 .6v-.28h3v.74h-2.44a3.39 3.39 0 0 0-.56-.46ZM14 7h-2.19c.17.22.3.45.4.7H14V7Zm0 1h-1.68a3 3 0 0 1 .11.7H14V8Zm0 1h-1.57a3 3 0 0 1-.12.7H14V9Zm0 1h-1.8c-.1.25-.24.48-.4.7H14V10Zm-.04 1h-2.42c-.28.29-.62.52-1 .7h3.19c.1-.21.19-.44.23-.7Zm-.42 1h-4a3.71 3.71 0 0 1-1.08 0h-4c.4.55 1.11 1 2.35 1 1.23 0 2.02-.47 2.27-.7.18.23.86.7 2.15.7 1 0 1.82-.36 2.3-1Zm-9.26-.3h3.18a3.44 3.44 0 0 1-1-.7H4.05c.04.22.11.46.23.7ZM14 5.64h-3V5h3v.64Z" fill="#002EB6"/><path fill-rule="evenodd" d="M9 11.72a2.93 2.93 0 0 0 2.97-2.88c0-1.6-1.33-2.88-2.97-2.88a2.93 2.93 0 0 0-2.97 2.88c0 1.6 1.33 2.88 2.97 2.88Zm0-.16a2.7 2.7 0 0 0 2.68-2.72A2.7 2.7 0 0 0 9 6.12a2.7 2.7 0 0 0-2.68 2.72A2.7 2.7 0 0 0 9 11.56Z" fill="#002EB6"/><path d="M8.06 6.47c-.62.26-1.12.77-1.38 1.41h1.38V6.47ZM6.62 8.04a2.61 2.61 0 0 0 0 1.6h1.44v-1.6H6.62Zm.06 1.76c.26.64.76 1.15 1.38 1.41V9.8H6.68Zm1.54 1.47a2.44 2.44 0 0 0 1.56 0V9.8H8.22v1.47Zm1.72-.06a2.54 2.54 0 0 0 1.38-1.41H9.94v1.41Zm1.44-1.57a2.61 2.61 0 0 0 0-1.6H9.94v1.6h1.44Zm-.06-1.76a2.54 2.54 0 0 0-1.38-1.41v1.41h1.38ZM9.78 6.41v1.47H8.22V6.41a2.44 2.44 0 0 1 1.56 0ZM8.22 9.64v-1.6h1.56v1.6H8.22Z" fill="#E2C136"/></svg>