<!-- by TradingView --><svg width="18" height="18" viewBox="0 0 18 18" xmlns="http://www.w3.org/2000/svg"><path fill="#F0F3FA" d="M0 0h18v18H0z"/><path d="M9.27 4h.3a5.85 5.85 0 0 1 3.36 1.2c.12.09.24.18.32.3.33.33.5.78.5 1.23-.02.5-.27 1-.7 1.33a2.07 2.07 0 0 1-2.36.13 1.83 1.83 0 0 1-.78-.98 1.68 1.68 0 0 1 .43-1.74c-.6.08-1.17.29-1.66.61-.58.38-1.03.9-1.3 1.51-.24.56-.32 1.2-.23 1.8.12.76.53 1.49 1.15 2.01.13.11.26.23.4.33.2.15.4.3.52.5a.6.6 0 0 1-.1.71l.19.18c.21-.17.39-.4.47-.65a2.56 2.56 0 0 0-.23-1.9c-.1-.2-.22-.4-.34-.58-.11-.2-.24-.39-.33-.59l-.14-.31a2.4 2.4 0 0 1-.05-1.62c.15-.5.49-.95.93-1.27a2.32 2.32 0 0 0-.4 2.92c.15.26.3.53.49.78.2.28.37.58.49.9.17.48.2 1 .09 1.5.08-.02.14-.1.2-.14a3 3 0 0 0 .91-1.23c.22-.55.28-1.15.28-1.74L14 11.67c-.6.88-1.5 1.57-2.53 1.96A5.9 5.9 0 0 1 9.6 14h-.33a5.83 5.83 0 0 1-3.56-1.36A4.98 4.98 0 0 1 4 9.14v-.27a4.7 4.7 0 0 1 .41-1.79 5.15 5.15 0 0 1 2.12-2.31A5.75 5.75 0 0 1 9.27 4Z" fill="#006436"/></svg>