<!-- by TradingView --><svg xmlns="http://www.w3.org/2000/svg" width="18" height="18" viewBox="0 0 18 18"><path fill="#F0F3FA" d="M0 0h18v18H0z"/><path fill-rule="evenodd" d="M9 6H3v6h6V6zm-.98 2.3l.4-1.3H5.87c-.7 0-1.3.47-1.5 1.15l-.4 1.5a.81.81 0 0 0-.05.3c0 .57.46 1.05 1.04 1.05h2.48l.32-1.3H5.3l.43-1.4h2.3z" fill="#047442"/><path d="M9 6h6v6H9V6z" fill="#F7C339"/><path fill-rule="evenodd" d="M9.4 6.4h5.2v5.2H9.4V6.4zM9 6H15V12H9V6zm5 2V7h-2.53c-.3 0-.83.2-1.06.43-.34.34-.41.67-.41 1.01v1.12c0 .33.16.9.41 1.13.3.25.75.31 1.14.31H14v-1h-2.19c-.56 0-.81-.19-.81-1s.25-1 .81-1H14z"/></svg>