<!-- by TradingView --><svg width="18" height="18" viewBox="0 0 18 18" xmlns="http://www.w3.org/2000/svg"><path fill="#F0F3FA" d="M0 0h18v18H0z"/><path fill="url(#amkaryrko)" d="M4 5h10v8H4z"/><path d="M6.4 7.84c-.06-.04-.1-.05-.13-.05-.04 0-.06.03-.06.08 0 .03-.02.04-.04.05h-.02c-.01 0-.02 0-.02-.02v-.35c.02-.18.02-.44-.02-.76a.31.31 0 0 0-.09-.2.07.07 0 0 1-.02-.05c0-.02.01-.04.03-.05l.38-.25c.07-.05.1-.11.1-.18 0-.06.01-.08.05-.04.03.02.06.03.1.03a.7.7 0 0 1 .53.19c.02.01.03.04.02.07-.02.06-.06.12-.12.12-.11 0-.19.07-.3.09-.08 0-.18.03-.25.1-.05.05-.04.07.03.05l.26-.05c.14-.01.24-.1.38-.02a.1.1 0 0 1 .04.12l-.13.52c-.03.13-.14.22-.25.2a.7.7 0 0 1-.29-.17c-.02-.02-.03-.05-.02-.08 0-.02.01-.02.02-.02.09.02.22.06.28-.04a.66.66 0 0 0 .07-.2c.02-.1-.05-.13-.13-.12a.98.98 0 0 1-.16.02c-.06 0-.12-.02-.17-.05-.01 0-.02 0-.02.02-.02.14-.01.3 0 .46.01.14 0 .27-.04.4h.02c.26-.06.53-.11.8-.14.28-.03.59-.17.74.23.04.09.04.16 0 .24-.06.14-.1.28-.13.43-.04.21-.2.54-.41.57-.2.02-.48.02-.6-.11a.08.08 0 0 1-.03-.04c0-.06-.04-.1-.08-.1-.02-.01-.02-.05 0-.05.1.03.17.04.24.03.11-.01.24-.06.39-.15a.22.22 0 0 0 .09-.1c.06-.14.09-.32.12-.47a.31.31 0 0 0-.03-.17c0-.02-.01-.02-.02-.02a2.4 2.4 0 0 1-.33-.04c-.1-.02-.15.05-.22.1a.14.14 0 0 1-.09.04c-.17.02-.33.01-.5 0-.03-.01 0-.05.02-.05s.02-.01 0-.02ZM12.13 8.26c.12-.01.24-.06.36-.07a.4.4 0 0 0 .23-.08h.04c.13.02.26.13.24.3-.05.3-.3.2-.47.21-.2 0-.36 0-.54.1a.4.4 0 0 1-.16.06c-.13 0-.26.03-.4.07-.07.02-.13.09-.2.14a.07.07 0 0 1-.1 0 .23.23 0 0 1-.07-.17c-.01-.07-.02-.14-.05-.22-.03-.1 0-.19.01-.3l.03-.03c.12 0 .25.03.37.1.04.01.08 0 .1-.05.05-.17.22-.18.27-.33a.95.95 0 0 1 .11-.22v-.04c-.05-.1-.12-.2-.23-.19-.14.01-.27 0-.36-.14-.02-.04 0-.08.03-.1l.36-.14.22-.1a.62.62 0 0 1 .38-.05c.03 0 .05.03.05.06l-.02.15c0 .02 0 .03-.02.04l-.13.06c-.04.01-.05.06-.03.1.15.22.05.39.01.62-.01.07-.04.13-.06.2 0 .01 0 .02.03.02ZM9.27 8c-.06-.1-.17-.16-.2-.27a.72.72 0 0 0-.07-.2c-.01-.02.03-.04.06-.03h.02c.08.05.17.1.28.1.18-.03.38 0 .6.08.03 0 .04.02.04.03.01.13-.03.24-.14.35a.15.15 0 0 1-.12.04l-.34-.04c-.06-.01-.1-.03-.13-.07ZM10.2 8.37a.4.4 0 0 0-.04.22l-.01.03c-.06.14-.18.19-.29.28a.38.38 0 0 1-.15.1c-.21.05-.31-.19-.37-.36-.01-.01 0-.02.01-.02.04 0 .08-.02.11-.04.18-.12.35-.21.53-.29a.4.4 0 0 0 .17-.15.07.07 0 0 1 .05-.03h.1c.02-.01.03 0 .02.02a.54.54 0 0 0-.05.22.04.04 0 0 1-.03.04l-.03-.01c0-.02-.01-.02-.02 0Z" fill="#1C1513"/><path d="M6.99 8v.12c-.03.14-.05.32-.17.33-.1 0-.2-.02-.3 0l-.34.07c-.15.02-.47.07-.6.2-.11.12-.22.2-.32.26-.09.06-.17-.02-.19-.16a1.99 1.99 0 0 0-.06-.3.22.22 0 0 1 .02-.19c.08-.13.29.01.4-.04a.97.97 0 0 1 .35-.08c.2 0 .36-.13.55-.15L6.99 8ZM10.13 7.6c-.1-.02-.1-.06-.02-.13a.15.15 0 0 0 .04-.05v-.05L10 7.1c0-.01 0-.04.02-.04.14-.04.3-.06.44-.06.12 0 .18.07.2.2.02.12 0 .26-.1.31-.17.07-.31.1-.43.09Z" fill="#1C1513"/><path d="M14 11.46V13H4v-1.64a3.8 3.8 0 0 1 2.2-.65c1.12 0 1.82.4 2.51.8.7.42 1.4.87 2.56.87 1.12 0 2.28-.62 2.73-.92Z" fill="url(#bmkaryrko)"/><path d="M4 11.52c.4-.3 1.14-.67 2.17-.67.8 0 1.49.4 2.22.83a5.54 5.54 0 0 0 2.88 1.01c1.06 0 2.22-.36 2.73-.65V13H4v-1.48Z" fill="url(#cmkaryrko)"/><path d="M4 11.91a3.8 3.8 0 0 1 2.2-.65c.8 0 1.48.37 2.21.77a5.8 5.8 0 0 0 2.88.93c1.11 0 2.25-.44 2.71-.73V13H4v-1.09Z" fill="#900000"/><defs><linearGradient id="amkaryrko" x1="9" y1="5" x2="8.99" y2="11.99" gradientUnits="userSpaceOnUse"><stop stop-color="#CF8B09"/><stop offset=".46" stop-color="#FEF2CD"/><stop offset=".6" stop-color="#F7E2B9"/><stop offset="1" stop-color="#BD651C"/></linearGradient><linearGradient id="bmkaryrko" x1="3.79" y1="11.98" x2="14.65" y2="11.98" gradientUnits="userSpaceOnUse"><stop stop-color="#C56A1A"/><stop offset=".47" stop-color="#FEF8FC"/><stop offset="1" stop-color="#C9601B"/></linearGradient><linearGradient id="cmkaryrko" x1="4" y1="11.92" x2="14" y2="11.92" gradientUnits="userSpaceOnUse"><stop offset=".22" stop-color="#812C30"/><stop offset=".42" stop-color="#F8D7B5"/><stop offset=".73" stop-color="#A10000"/></linearGradient></defs></svg>