<!-- by TradingView --><svg width="18" height="18" viewBox="0 0 18 18" xmlns="http://www.w3.org/2000/svg"><path fill="#F0F3FA" d="M0 0h18v18H0z"/><path d="M15 7.86c0 1.32-1.35 1.84-2.48 1.84h-1.14V12H10V6h2.52C13.67 6 15 6.52 15 7.86Zm-2.53.86c.76 0 1.12-.32 1.12-.86 0-.59-.38-.88-1.12-.88h-1.1v1.74h1.1ZM3 9c0-1.73 1.4-3 3.11-3C7.38 6 8.57 6.77 9 8H7.58c-.28-.56-.8-.94-1.47-.94-1.12 0-1.84.87-1.84 1.94 0 1.09.72 1.95 1.84 1.95.67 0 1.2-.4 1.47-.95H9a3.02 3.02 0 0 1-2.89 2A3.01 3.01 0 0 1 3 9Z"/></svg>