<!-- by TradingView --><svg width="18" height="18" viewBox="0 0 18 18" xmlns="http://www.w3.org/2000/svg"><path fill="#F0F3FA" d="M0 0h18v18H0z"/><path d="m9 7 .47 1.67H11l-1.24.8.48 1.53L9 10.06 7.76 11l.48-1.53L7 8.67h1.53L9 7Z" fill="#323091"/><path d="M8 4h2v.67h.99c.46 0 1.33.36 1.63 1.62l1.28 4.16c.33.92-.18 1.83-1.23 2.05l-1.67.38V14l-1.9-.65L7 14v-1.08l-1.9-.43c-.96-.25-1.24-1.23-1.04-2.03.3-1.2.97-3.28 1.28-4.17.16-.66.8-1.62 1.63-1.62H8V4Zm.36.33V5H6.97c-.65 0-1.16.87-1.28 1.37v.01c-.3.9-.99 2.96-1.28 4.16-.15.62.02 1.43.79 1.63l3.9.81 3.49-.8c.85-.18 1.23-.9.96-1.63l-1.28-4.18C11.99 5.23 11.25 5 10.99 5H9.64v-.67H8.36Z" fill="#323091"/></svg>