<!-- by TradingView --><svg width="18" height="18" viewBox="0 0 18 18" xmlns="http://www.w3.org/2000/svg"><path fill="#F0F3FA" d="M0 0h18v18H0z"/><path d="M7.58 9.06a.09.09 0 0 0 0-.12L4 5.07V5L4.05 5h2.32c.25 0 .46.1.63.3l3.34 3.63c.04.04.04.1 0 .14L7 12.7a.94.94 0 0 1-.67.3H4.09c-.1 0-.1-.03-.04-.1l3.53-3.84Z" fill="#004495"/><path d="m13.98 5.1-3.04 3.31a.06.06 0 0 1-.04.02.06.06 0 0 1-.05-.02L9.55 7a.07.07 0 0 1 0-.09l1.74-1.89a.06.06 0 0 1 .05-.02h2.6l.03.01.02.03a.07.07 0 0 1 0 .07ZM11.29 12.98l-1.74-1.9a.06.06 0 0 1-.02-.04l.02-.04 1.3-1.4a.06.06 0 0 1 .05-.02.06.06 0 0 1 .04.01l3.04 3.3a.06.06 0 0 1 0 .1l-.04.01h-2.6a.06.06 0 0 1-.05-.02Z" fill="#06A3E0"/></svg>