<!-- by TradingView --><svg width="18" height="18" viewBox="0 0 18 18" xmlns="http://www.w3.org/2000/svg"><path fill="#F0F3FA" d="M0 0h18v18H0z"/><path fill-rule="evenodd" d="m2 9 7 3.3V5.7L2 9Zm.39 0 6.45 3.04V5.96L2.4 9ZM16 9l-7 3.3V5.7L16 9Zm-.39 0-6.45 3.04V5.96L15.6 9Z" fill="#FE000A"/><path d="M9 5.78 5.5 7.41C5.5 7.22 5.5 4 9 4c2.81 0 3.53 2.27 3.53 3.4L9 5.79Zm0 6.44-3.5-1.63c0 .19 0 3.41 3.5 3.41 2.81 0 3.53-2.27 3.53-3.4L9 12.21Zm1.83-3.39a.9.9 0 0 0 .87-.91.9.9 0 0 0-.87-.92.9.9 0 0 0-.88.92c0 .5.4.91.88.91Zm0 2a.9.9 0 0 0 .87-.91.9.9 0 0 0-.87-.92.9.9 0 0 0-.88.92c0 .5.4.91.88.91Zm-2.18-1.5a1.61 1.61 0 0 1-1.56 1.34c-.88 0-1.59-.75-1.59-1.67 0-.92.71-1.67 1.6-1.67.76 0 1.4.58 1.55 1.34H9v.66h-.35Z" fill="#FE000A"/></svg>