<!-- by TradingView --><svg width="18" height="18" viewBox="0 0 18 18" xmlns="http://www.w3.org/2000/svg"><path fill="#F0F3FA" d="M0 0h18v18H0z"/><path d="M6.25 6c.02 0 .04.04.05.06.07.1.11.22.14.33a50.45 50.45 0 0 1 .52 2.5h.08a.19.19 0 0 0 .05-.1c.16-.77.33-1.65.5-2.42.03-.08.08-.2.17-.37h1.72l.4 2.82c.02.12-.04.18-.17.18h-1.3c-.03 0-.04.01-.04.03l.24 2.49c0 .06.04.08.1.08h1.4c.09 0 .13-.04.12-.13l-.31-2.31c-.02-.1.03-.16.15-.16h.2l.04-.01.02-.04c.03-.25.06-.6.1-.81a2.8 2.8 0 0 1 .77-1.43c.48-.47 1.1-.65 1.76-.65.35 0 .76.06 1.1.16.06.02.08.05.08.1v1.93l-.04.02h-.03c-.02 0-.03 0-.04-.02-.2-.22-.73-.56-1.07-.49-.59.13-.8.75-.85 1.24h-1.7l-.02.02-.01.01a.04.04 0 0 0-.02.03c.03.73.3 1.38.83 1.92.66.66 1.52.87 2.6.62.13-.03.35-.12.35-.25V9.54c-.03-.06-.07-.06-.12-.01-.12.1-.2.22-.34.3-.86.48-1.5-.1-1.57-.83H15v3H3V9h1c.1 0 .14.05.13.14l-.33 2.4c-.01.04.02.06.06.06h1.47c.05 0 .1-.03.1-.07l.23-2.43.02-.04a.08.08 0 0 1 .05-.03c.04 0 .08 0 .12.04a.2.2 0 0 1 .04.1c.17.75.36 1.41.57 2.32.02.08.07.11.16.11h.85c.05 0 .09-.02.1-.07.18-.82.37-1.47.56-2.27.03-.15.08-.3.15-.3h.04l.01-.02v-.02l-.05-.23c-.02-.06-.04-.06-.07-.01a.3.3 0 0 0-.04.15c0 .1-.07.17-.18.17H6.27c-.14 0-.26-.02-.35-.05-.04 0-.06-.03-.06-.06l-.06-.23c-.03-.05-.05-.05-.06 0l-.07.29c0 .03-.03.05-.06.05H4.27c-.02 0-.03 0-.05-.02a.12.12 0 0 1-.04-.02.1.1 0 0 1-.03-.04.1.1 0 0 1 0-.05L4.55 6h1.7Z" fill="#0B3063"/></svg>