<!-- by TradingView --><svg width="18" height="18" viewBox="0 0 18 18" xmlns="http://www.w3.org/2000/svg"><path fill="#F0F3FA" d="M0 0h18v18H0z"/><path d="M5.37 13.9A4.95 4.95 0 0 1 4 10.46C4 7.36 9 3 9 3s1.51 1.4 2.87 3.13l-.22.3a23.58 23.58 0 0 0-2.12-2.41c-.22-.23-.4-.4-.54-.53a25.11 25.11 0 0 0-2.22 2.3c-.61.74-1.22 1.55-1.68 2.37a5 5 0 0 0-.73 2.3c0 1.09.37 2.08.99 2.86l1.02-1.01a3.2 3.2 0 0 1 4.32-4.56l-.22.28a2.85 2.85 0 0 0-3.66 4.27l-1.44 1.6Z" fill="#0979E9"/><path d="m12.53 14-.52-.01a4.6 4.6 0 0 0 1.63-3.52 4.8 4.8 0 0 0-.73-2.2 11 11 0 0 0-.2-.35l-.94.93a3.2 3.2 0 0 1-4.34 4.41l.2-.3a2.85 2.85 0 0 0 3.65-4.2l1.5-1.37c.7 1.07 1.22 2.16 1.22 3.08 0 1.38-.56 2.63-1.47 3.53Z" fill="#EF031F"/><path fill-rule="evenodd" d="M9 12.58c.79 0 1.43-.63 1.43-1.42 0-.16-.08-.42-.24-.76a9.2 9.2 0 0 0-.6-1A17.5 17.5 0 0 0 9 8.54l-.6.84c-.21.33-.43.69-.58 1.01-.17.34-.25.6-.25.76 0 .79.64 1.42 1.43 1.42Zm-.22-4.32c-.48.63-1.57 2.14-1.57 2.9 0 .98.8 1.78 1.8 1.78.98 0 1.78-.8 1.78-1.78 0-.76-1.08-2.27-1.56-2.9L9 7.96l-.22.3Z" fill="url(#awvtnlaxy)"/><path d="M8.02 10.73c.11-.06.26-.1.44-.1.26 0 .44.12.6.23.15.12.3.22.47.12l.46-.22a1.07 1.07 0 0 1-1 1.47 1.07 1.07 0 0 1-.97-1.5Z" fill="#0C0C0C"/><defs><linearGradient id="awvtnlaxy" x1="9" y1="7.97" x2="9" y2="12.94" gradientUnits="userSpaceOnUse"><stop stop-color="#E90832"/><stop offset="1" stop-color="#1B80E8"/></linearGradient></defs></svg>