<!-- by TradingView --><svg width="18" height="18" viewBox="0 0 18 18" xmlns="http://www.w3.org/2000/svg"><path fill="#F0F3FA" d="M0 0h18v18H0z"/><path d="M3 5.71V13h2.44a7.15 7.15 0 0 0 1.99-.43c.6-.31 2.5-.36 3.34 0 .68.28 1.49.4 1.8.43H15V5.71h-1.91a6.8 6.8 0 0 1-2.32-.42c-1-.42-2.37-.35-3.34 0-.78.29-1.78.4-2.18.42H3Z" fill="#DC0020"/><path fill-rule="evenodd" d="M4.64 8h1.29l-.08.6h-.84c-.05 0-.09.04-.09.09l-.03.51h1l-.05.6h-.98l-.03.49c0 .05.04.11.09.11h1.2l-.06.6H4.53a.51.51 0 0 1-.53-.53l.1-2A.52.52 0 0 1 4.65 8Zm1.52 0h2.51l-.05.6h-.86L7.64 11h-.78L7 8.6h-.9l.06-.6Zm2.57 3 .14-3h1.7c.89.04.75 1.97-.14 1.96h-.88L9.5 11h-.77Zm.93-2.46c.24-.05.72-.07.72.21 0 .36-.02.58-.27.62h-.53l.08-.83Zm4.33.35c-.01-.79-.82-.92-1.22-.89-1.21-.04-1.43.68-1.46 1.56-.02.87.1 1.41 1.37 1.44 1.36.03 1.34-1.07 1.31-2.03v-.08Zm-.87.25c-.01-.47-.29-.55-.42-.53-.42-.03-.5.4-.5.93-.01.52.02.84.46.85.47.02.46-.63.46-1.2v-.05Z" fill="#F0F3FA"/><path fill="#fff" fill-opacity=".7" d="M7 6h4v1H7z"/></svg>