<!-- by TradingView --><svg width="18" height="18" viewBox="0 0 18 18" xmlns="http://www.w3.org/2000/svg"><path fill="#F0F3FA" d="M0 0h18v18H0z"/><path d="M7 8.82v1.42c.01.5.07.83.17 1.01.16.28.39.48.67.62.18.09.47.13.87.13h4.21l.06.02.02.06v1.85c0 .05-.03.07-.08.07H7a3.03 3.03 0 0 1-2.8-1.97c-.12-.32-.19-.8-.2-1.45a163.23 163.23 0 0 1 0-3.16c.01-.65.08-1.14.2-1.45A3.03 3.03 0 0 1 7 4.01L12.93 4c.05 0 .07.02.07.07v1.87a.07.07 0 0 1-.02.05l-.03.01H8.71c-.4 0-.7.05-.87.14-.28.14-.5.34-.67.62-.1.18-.16.52-.17 1.01v1.05Z" fill="#C82125"/></svg>