<!-- by TradingView --><svg width="18" height="18" viewBox="0 0 18 18" xmlns="http://www.w3.org/2000/svg"><path fill="url(#a)" d="M0 0h18v18H0z"/><path d="M7 13.35v-1.7c.29.32.62.6 1 .81V14a2.32 2.32 0 0 1-.68-.42L7 13.35ZM8 9v3.46a4 4 0 1 0 0-6.93V4c-.18.03-.38.1-.6.19l-.4.13v2.03a3.98 3.98 0 0 0 0 5.3v-5.3c.29-.32.62-.6 1-.81V9Zm0 0a2 2 0 1 1 4 0 2 2 0 0 1-4 0Zm-4-.16c0-1.23.38-2.35 1-3.16V12c-.62-.82-1-1.93-1-3.16Z" fill="#3587EB"/><defs><linearGradient id="a" x1="3.35" y1="3.12" x2="21.9" y2="24.43" gradientUnits="userSpaceOnUse"><stop stop-color="#1A1E21"/><stop offset="1" stop-color="#06060A"/></linearGradient></defs></svg>