<!-- by TradingView --><svg width="18" height="18" viewBox="0 0 18 18" xmlns="http://www.w3.org/2000/svg"><path fill="#F0F3FA" d="M0 0h18v18H0z"/><path d="M9.08 4H5.44c.4.44 1.23 1.51 1.23 2.32 0 1.24-1.11 2.9-1.67 3.57h.3c.69 0 1.36-.25 1.9-.72l1.3-1.13c1.22 1.67 3.72 5.08 3.95 5.37.3.37.66.59 1.06.59.32 0 .46-.17.49-.25-.95-1.51-3.68-7.13-4.92-9.75Z" fill="#D3232D"/><path d="M9.5 10.25 8.47 9c-.85 1.28-2.57 3.95-2.57 4.37 0 .52.62.63.73.63.08 0 .18-.02.22-.03l2.65-3.72Z" fill="#D3232D"/></svg>