<!-- by TradingView --><svg width="18" height="18" viewBox="0 0 18 18" xmlns="http://www.w3.org/2000/svg"><path fill="#F0F3FA" d="M0 0h18v18H0z"/><path d="M12.69 12.35c.86-1.18-5.43-1.43-5.27.87.46-1.68 2.3-.41 3.4-.28.67.08.84 0 .88-.09.1-.2.99-.5.99-.5Zm.53-6.14c-2.07-2.1-7.14.03-7.14 1.2 1.12-1.23 3.15-.99 4.58-.67.62.13 1.21.39 1.73.75h.57c.12-.35.25-.89.26-1.28Zm.78 2.6c.03.57-.17 1.44-.32 1.73-.14.28-.02.04-.03.07a4.7 4.7 0 0 0-2.39-1.05c-1.57-.25-3.8-.3-4.94 1.12.53-1.7 5.74-3.9 7.68-1.87Z" fill="url(#axsjhkxuy)"/><path d="M13.35 11.43c-1-.02-2-.19-2.96-.49C7.06 9.91 4.93 7.56 5.6 5.71c.28-.77 1-1.33 1.98-1.65l.2-.06c-.55.2-.95.53-1.14.95-.53 1.24 1.09 2.9 3.48 3.66 1.42.45 2.84.5 3.87.2v.12c0 .88-.23 1.74-.65 2.5Zm-3.13 2.41.21-.06c-2.64.32-5.13-.63-6.23-3.26a5.07 5.07 0 0 0 5.23 3.46c.27-.03.53-.07.79-.14ZM4.09 10.1l-.02-.05.02.05Zm-.03-.12-.01-.05v.05Zm7.14 3.5a5.04 5.04 0 0 0 1.5-1.15 8.9 8.9 0 0 1-2.46-.13c-2.16-.38-4.08-1.42-5.11-2.73-1.03-1.3-.85-2.86.27-4.11A4.74 4.74 0 0 0 4 8.3c-.03.78.29 1.57.85 2.3 1.07 1.36 2.92 2.33 5.15 2.73.4.07.8.12 1.2.15Zm2.68-5.64a5.07 5.07 0 0 0-.68-1.64 4.7 4.7 0 0 1-2.85-.31c-1.01-.42-1.58-1.03-1.44-1.48a.8.8 0 0 1 .33-.4c-.26.06-.5.18-.72.34-.86.69-.03 1.93 1.86 2.77 1.16.52 2.47.77 3.5.71ZM11.4 4.42a3.57 3.57 0 0 0-.36-.13c.38.17.54.37.35.45-.19.09-.65.02-1.04-.15-.38-.17-.54-.37-.35-.46l.05-.01V4.1a.75.75 0 0 0-.24.05c-.3.13-.07.45.52.72.58.27 1.3.38 1.6.26.3-.12.06-.45-.53-.72Z" fill="url(#bxsjhkxuy)"/><defs><linearGradient id="axsjhkxuy" x1="6.62" y1="8.14" x2="12.43" y2="10.38" gradientUnits="userSpaceOnUse"><stop stop-color="#B46F00"/><stop offset=".37" stop-color="#B57E00"/><stop offset=".63" stop-color="#F7E28F"/><stop offset=".68" stop-color="#F7E28F"/><stop offset=".85" stop-color="#B57E00"/><stop offset="1" stop-color="#B46F00"/></linearGradient><linearGradient id="bxsjhkxuy" x1="5.2" y1="7.56" x2="11.97" y2="9.96" gradientUnits="userSpaceOnUse"><stop stop-color="#325A5D"/><stop offset=".2" stop-color="#3B9DA5"/><stop offset=".38" stop-color="#B1DDE2"/><stop offset=".68" stop-color="#69B4A8"/><stop offset="1" stop-color="#003876"/></linearGradient></defs></svg>