<!-- by TradingView --><svg width="18" height="18" viewBox="0 0 18 18" fill="none" xmlns="http://www.w3.org/2000/svg">
<rect width="18" height="18" fill="url(#paint0_linear_5057_138917)"/>
<path d="M5 5.37299V13.1498L9.07115 15L13 13.1498V5.37299L14 4H4L5 5.37299ZM5.5 12.802V5.15972L5 4.5H13L12.5 5.15972V12.802L9.07115 14.4016L5.5 12.802Z" fill="white"/>
<path fill-rule="evenodd" clip-rule="evenodd" d="M6 5.48892L5.811 5H12.189L12 5.44315V12.5039L9.00373 13.9217L6 12.4916V5.48892ZM9.49472 5.5873C9.50075 5.55022 9.53449 5.52196 9.56967 5.52196C9.6536 5.52196 9.72708 5.61853 9.79215 5.70405C9.82204 5.74334 9.85016 5.78029 9.87671 5.80449C9.88822 5.80308 9.89987 5.8053 9.91023 5.81086C9.94077 5.82725 9.94971 5.86638 9.94579 5.90264V7.18909C9.94466 7.21813 9.94311 7.24589 9.9253 7.26783C10.3238 7.31323 10.7501 7.47681 11.0629 7.74506L11.1226 7.8119C11.2197 7.86633 11.3098 7.93405 11.3907 8.01333C11.6881 8.29278 11.8172 8.69437 11.7866 9.22067V9.23258C11.5295 10.4029 10.8885 10.9777 9.82766 11H9.75819L9.37051 12H10.103C10.5184 12.0322 10.9143 11.7604 11.2812 11.0169C11.3217 10.9736 11.3914 10.9354 11.4383 10.9946L11.737 11.2327C11.7395 11.2356 11.742 11.2385 11.7445 11.2414C11.7798 11.2822 11.8081 11.315 11.7858 11.3784L11.3801 12.675C11.3801 12.7219 11.3253 12.7327 11.2897 12.7293H8.18461C8.0846 12.7264 7.97605 12.622 7.88681 12.5362C7.85834 12.5088 7.83183 12.4833 7.80819 12.4636C7.7564 12.4004 7.71828 12.2745 7.83317 12.2629C8.161 12.1959 8.35006 12.1053 8.39865 11.9833L8.75571 11H7.31094C7.23605 11.0025 7.12691 10.9054 7.03151 10.8205C6.97886 10.7736 6.93039 10.7304 6.89417 10.7098C6.82208 10.6589 6.87181 10.5182 6.95388 10.521C7.0664 10.5158 7.17684 10.4868 7.27887 10.4358C7.38091 10.3848 7.47252 10.3127 7.54846 10.2236L7.79638 9.52613C7.47099 9.48532 7.03618 9.33962 6.8348 9.03572C6.76403 9.00017 6.69775 8.95519 6.63752 8.90185L6.62776 8.89142C6.08521 8.37647 5.91582 7.76282 6.11446 7.05797C6.11446 7.0525 6.11446 7.04954 6.11541 7.04693C6.11653 7.04386 6.11895 7.04127 6.12422 7.03563C6.342 6.45117 6.75496 5.9742 7.28291 5.69736C7.58403 5.53386 7.91664 5.44778 8.25429 5.44597C8.59194 5.44416 8.92534 5.52666 9.22798 5.68692C9.27628 5.70658 9.32952 5.70736 9.37831 5.68914C9.42711 5.67092 9.46833 5.63485 9.49472 5.5873ZM9.82529 7.23634L9.55718 7.01329C9.51487 7.0123 9.48038 6.95982 9.48223 6.91733C9.47966 6.65502 9.3923 6.40176 9.23499 6.20059C9.03561 6.10506 8.8174 6.06324 8.59943 6.07879C8.38147 6.09433 8.16062 6.17867 7.97484 6.30167C7.34125 6.74886 7.05363 7.40811 7.13285 8.26879C7.17317 8.44917 7.25108 8.61745 7.36076 8.76103C7.48614 8.81944 7.62018 8.85366 7.75669 8.86212H7.76507C7.85766 8.87483 7.95159 8.8708 8.04294 8.85021L8.42928 7.78498C8.45244 7.61252 8.23568 7.47305 8.11377 7.4266C8.09293 7.41808 8.07535 7.40236 8.06381 7.38192C8.042 7.31333 8.07791 7.23183 8.15727 7.23634H9.72674C9.75999 7.23395 9.79337 7.23798 9.82529 7.24824V7.23634ZM9.37678 8.16951C9.50517 8.25484 9.77952 8.43719 9.66001 8.56033L9.65727 8.55886C9.61767 8.60013 9.57533 8.64609 9.53165 8.69351C9.43286 8.80075 9.32723 8.91543 9.23089 9H10.388L10.4866 9.01832L10.7533 9.23093C10.8923 8.65995 10.8423 8.2362 10.6144 7.95657C10.6046 7.95095 10.5929 7.94566 10.5812 7.94039C10.5682 7.93449 10.5552 7.92861 10.5449 7.92232C10.1841 7.8385 9.81513 7.80107 9.44596 7.8108C9.39311 7.86737 9.36749 7.95566 9.34333 8.03891C9.33469 8.06871 9.32623 8.09786 9.31678 8.12467C9.32155 8.12467 9.32398 8.12467 9.32523 8.12589C9.32653 8.12717 9.32653 8.12977 9.32653 8.13511C9.33726 8.14325 9.3549 8.15497 9.37678 8.16951ZM9.24064 9.55359C9.24274 9.52347 9.23943 9.4932 9.23089 9.46441C9.11843 9.39991 9.02684 9.3342 8.92376 9.24576L8.51671 10.4361H8.93351L9.24064 9.55359ZM10.3215 9.60247C10.2226 9.68795 10.1495 9.80284 10.1115 9.93266C10.0735 10.0625 9.99348 10.2806 9.99348 10.2806C10.2908 10.0834 10.5257 9.7947 10.6673 9.45233C10.5407 9.46476 10.4204 9.517 10.3215 9.60247Z" fill="#E7A723"/>
<path d="M8.85446 9.06213C9.21155 9.16175 9.37957 9.34176 9.32961 9.57653L8.49327 12.0344C8.44331 12.1906 8.22653 12.3022 7.8602 12.3705H10.9633L11.369 11.0739C10.9633 11.8665 10.5725 12.1921 10.0922 12.1921H9.15115C8.90391 12.1921 8.81494 12.1029 8.88441 11.9571L9.68601 9.63312C9.75548 9.32089 9.99297 9.13062 10.3891 9.0636L8.85446 9.06213Z" fill="white"/>
<path d="M9.71578 7.36728C9.27078 7.36728 8.72508 7.36728 8.15141 7.36728C8.43766 7.48712 8.55709 7.66251 8.51825 7.84014L7.63742 10.2385C7.46304 10.4375 7.22302 10.5611 6.965 10.5848H9.46563C10.4854 10.5631 11.1092 10.0073 11.3565 8.93608C11.4162 8.00353 10.8647 7.464 9.71578 7.36728ZM9.11299 7.47085C9.49515 7.45645 9.87718 7.49994 10.2505 7.58624C10.8743 7.83516 11.0618 8.41051 10.8339 9.28973C10.5172 10.1254 10.0003 10.527 9.31968 10.5053H8.16116C8.03198 10.5169 7.97295 10.4721 8.00272 10.3437L8.99322 7.57913C9.00375 7.55267 9.02004 7.52911 9.04083 7.51032C9.06161 7.49153 9.08632 7.47802 9.11299 7.47085Z" fill="white"/>
<path d="M9.11283 5.93216C9.25665 6.04602 9.37353 6.19437 9.45412 6.3653C9.5347 6.53623 9.61483 6.725 9.61494 6.91646V5.63184C9.5829 5.70823 9.48651 5.76847 9.41405 5.80005C9.34159 5.83163 9.26055 5.83212 9.18777 5.80141C8.90048 5.64158 8.58145 5.55814 8.25767 5.55814C7.93388 5.55814 7.61485 5.64158 7.32756 5.80141C6.81918 6.06563 6.4222 6.52476 6.21541 7.08768C6.1208 7.39209 6.11618 7.72031 6.20218 8.02763C6.28819 8.33495 6.46064 8.60641 6.69603 8.80502C7.26973 9.26283 7.90332 9.26283 8.60637 8.80502C8.83996 8.62752 9.0586 8.4285 9.2598 8.21023C8.66523 8.77975 8.16082 9.03851 7.74556 8.97002C7.2107 8.93577 6.86474 8.62501 6.7063 8.02143C6.62708 7.10581 6.92445 6.40078 7.59602 5.93088C8.13134 5.60675 8.6366 5.60675 9.1118 5.93088" fill="white"/>
<defs>
<linearGradient id="paint0_linear_5057_138917" x1="3.34858" y1="3.12159" x2="21.9042" y2="24.4339" gradientUnits="userSpaceOnUse">
<stop stop-color="#1A1E21"/>
<stop offset="1" stop-color="#06060A"/>
</linearGradient>
</defs>
</svg>
