<!-- by TradingView --><svg width="18" height="18" viewBox="0 0 18 18" xmlns="http://www.w3.org/2000/svg"><path fill="#181B1E" d="M0 0h18v18H0z"/><path d="M8.9 13.3c.43-.09.68-.11 1.06.14.04.02.07.03.1.02.04 0 .06-.02.08-.05a.13.13 0 0 1 .06-.05c.23-.12.43-.17.58-.16l.05.01a.1.1 0 0 1 .04.04.1.1 0 0 1 0 .09.45.45 0 0 1-.2.18.14.14 0 0 0-.05.05.37.37 0 0 0-.04.2c0 .03-.02.05-.04.05-.07 0-.1-.02-.1-.07-.02-.12-.07-.18-.17-.18a.1.1 0 0 0-.04.01.1.1 0 0 0-.03.02.8.8 0 0 0-.18.3c0 .04-.03.06-.05.08a.14.14 0 0 1-.08.02l-.87-.05c-.38 0-.8-.11-1.12-.23-.65-.25-1.2-.45-1.8-.83-.22-.14-.4-.29-.55-.45-.46-.5-.7-1.09-1.1-1.63-.1-.15-.17-.28-.2-.38A7.5 7.5 0 0 1 4 8.72c0-.26.07-.5.11-.78A5.89 5.89 0 0 1 5.2 6.03c.1-.11.2-.21.34-.3.82-.51-.15-.2.92-.74.1-.05.15-.16.24-.2.24-.13.46-.23.66-.31.12-.05.21-.04.36-.04h.04l.03-.03c.06-.09.1-.16.22-.2.21-.05.39-.1.53-.12.1-.01.17-.07.25-.09.03 0 .05 0 .07.02.16.14.41.1.68.09a.07.07 0 0 1 .05.01l.01.02v.02c0 .09-.02.17-.1.25a.1.1 0 0 1-.03.03.11.11 0 0 1-.12-.02c-.15-.14-.3-.04-.46.03-.1.04-.26.03-.36.04-.14 0-.29.11-.4.17-.18.07-.46.05-.58.12-.26.16-.66.4-.93.68-.16.17-.35.3-.57.4-.23.1-.06.27-.15.42-.52.8-.67 1.67-.79 2.56-.03.2 0 .42.1.65.03.09.02.18-.04.28a.07.07 0 0 0 0 .07c.04.09.1.16.18.2.03.03.06.05.07.08v.1c-.04.1-.05.17.02.28.08.13.16.32.24.56.08.25.5.44.79.6.22.12.1.3.17.47.02.03.04.05.08.07l1.23.57c.03.02.03.13.04.16.03.1.08.11.15.04a.6.6 0 0 1 .13-.08.11.11 0 0 1 .08-.01l.5.11c.02 0 .03.02.03.04 0 .05-.02.11-.05.17a.06.06 0 0 0 .01.07l.03.02h.04ZM10.1 4.44c-.12-.07-.18-.1-.28-.11-.03 0-.05-.02-.05-.04-.01-.05 0-.1.02-.12.02-.03.05-.04.1-.04.25-.03.5-.1.65.18a.09.09 0 0 1 0 .09.1.1 0 0 1-.03.03.11.11 0 0 1-.05.01l-.29.02c-.02 0-.05 0-.07-.02ZM11.47 4.65c.04-.01.09-.05.15-.13l.03-.02a.07.07 0 0 1 .08.03l.2.3a.08.08 0 0 1 0 .08l-.04.03a.1.1 0 0 1-.04.02c-.2.01-.24-.03-.4-.16a.62.62 0 0 0-.27-.14c-.12-.03-.2-.02-.26.01a.06.06 0 0 1-.07 0 .32.32 0 0 1-.14-.31c.02-.15.15-.17.27-.09.19.14.33.26.42.37.02.02.04.02.07.01ZM14 10.95a1.8 1.8 0 0 1-.06.31l-.06.1c-.06.1-.05.13.02.13l-.2.15c-.15.1-.17.18-.19.33 0 .03 0 .05-.02.07a.17.17 0 0 1-.05.05.19.19 0 0 1-.15.03 1.15 1.15 0 0 0-.32-.03c-.1.01-.12-.02-.05-.1.17-.19.3-.4.49-.52a.9.9 0 0 0 .2-.18c.05-.05.13-.1.23-.16.08-.05.11-.11.16-.18ZM12.19 12.66c.07-.05.1-.14.16-.2.03-.03.07-.04.12-.01l.36.2c.01 0 .02 0 .03.02v.06l-.02.02a.58.58 0 0 0-.28.32l-.01.02-.03.02a.07.07 0 0 1-.06-.01 1.9 1.9 0 0 0-.36-.22c-.16-.07-.15-.13.02-.17l.07-.05ZM11.63 13.14c-.15-.02-.16-.18-.05-.25.22-.13.42.1.58.28l.02.03v.04l-.02.03a.08.08 0 0 1-.04.01l-.1.02a.23.23 0 0 1-.19-.04.51.51 0 0 0-.2-.12ZM11.14 13a.07.07 0 0 1 .09 0l.16.18c.02.03.04.07.03.1 0 .04-.02.07-.05.1h-.01a.15.15 0 0 1-.11.03.16.16 0 0 1-.1-.05l-.16-.18a.06.06 0 0 1 .01-.08l.14-.1Z" fill="#5086C4"/><path d="M9.95 10.6c.53 0 .98-.17 1.42-.5.33-.26.4-.47.54-.47.05 0 .09.05.09.12 0 .11-.12.31-.37.54-.53.46-1.23.71-2 .71C8.05 11 7 10.05 7 8.6 7 7.23 8.09 6 9.72 6c.56 0 1.12.36 1.62.36.18 0 .2-.26.32-.26.18 0 .13.17.18.51.05.4.16.66.16.8 0 .09-.05.14-.13.14-.11 0-.14-.12-.23-.26a2.36 2.36 0 0 0-2.02-1.04C8.6 6.25 8 7.03 8 8.23c0 1.41.74 2.37 1.95 2.37Z" fill="#fff"/></svg>