<!-- by TradingView --><svg width="18" height="18" viewBox="0 0 18 18" fill="none" xmlns="http://www.w3.org/2000/svg">
<rect width="18" height="18" fill="#F0F3FA"/>
<path d="M9.35352 4.05267C11.776 4.29834 13.7019 6.22445 13.9472 8.64706H14.9998C14.748 5.64499 12.3554 3.25219 9.35352 3L9.35352 4.05267Z" fill="#9B9078"/>
<path d="M4.0528 8.64706C4.29816 6.22444 6.22426 4.29833 8.64706 4.05266V3C5.64475 3.25219 3.25187 5.64499 3 8.64706H4.0528Z" fill="#9B9078"/>
<path d="M8.64693 13.9472C6.22461 13.7016 4.29878 11.7759 4.05279 9.3537H3C3.25252 12.3555 5.6451 14.7478 8.64693 15V13.9472Z" fill="#9B9078"/>
<path d="M13.9471 9.35443C13.7011 11.7764 11.7755 13.7017 9.35352 13.9474V15C12.355 14.7479 14.7472 12.3558 14.9997 9.35443L13.9471 9.35443Z" fill="#9B9078"/>
<path d="M12.005 9.5128H9.88798C9.71154 9.80913 9.38804 10.0086 9.017 10.0086C8.45766 10.0086 8.00421 9.55704 8.00421 9.00002C8.00421 8.443 8.45766 7.99147 9.017 7.99147C9.42722 7.99147 9.88798 8.27947 9.88798 8.63636H11.0046C10.8705 7.5729 9.96004 6.97979 9.017 6.97979C7.89656 6.97979 6.98824 7.88428 6.98824 9.00002C6.98824 10.1158 7.89656 11.0202 9.017 11.0202C9.52586 11.0202 10.1528 10.8042 10.3431 10.4545H11.6354C11.1095 11.3505 10.1344 12.0196 9.017 12.0196C7.34223 12.0196 5.98452 10.6677 5.98452 9.00002C5.98452 7.33233 7.34223 5.9804 9.017 5.9804C10.5166 5.9804 11.8463 7.12794 12.005 8.63636H13C12.8489 6.6341 11.0614 5 9.017 5C6.7985 5 5 6.79086 5 9.00002C5 11.2092 6.7985 13 9.017 13C11.0609 13 12.747 11.4796 13 9.5128H12.005Z" fill="#747F88"/>
</svg>
