<!-- by TradingView --><svg width="18" height="18" viewBox="0 0 18 18" xmlns="http://www.w3.org/2000/svg"><path fill="#F0F3FA" d="M0 0h18v18H0z"/><path d="M6.05 11h-.01A3.02 3.02 0 0 1 3 8c0-1.66 1.36-3 3.04-3C7.48 5 8.69 6 9 7.33c-.27-.09-.53-.14-.76-.18a2.36 2.36 0 0 0-2.2-1.48A2.35 2.35 0 0 0 3.67 8c0 1.21.94 2.21 2.14 2.32.06.3.15.52.24.68Zm4.1.95a1.7 1.7 0 0 1-.19-.76l.02-.68.02-.84c0-.55-.27-2.26-3-2.42l.05.14c.06.16.1.26.1.41l-.05.7c-.04.38-.08.8-.08.97 0 .28.09 1.77 2.25 2.7a3.48 3.48 0 0 1-.5-1.73l-.21.18-.2.17a4.2 4.2 0 0 0-.47-2.9c.26.2.63.67.8 1.83l.57-.34c-.1.2-.27.57-.26 1.06a3.63 3.63 0 0 0 .48 1.58A2.86 2.86 0 0 0 12.16 14 2.92 2.92 0 0 0 15 11c0-1.66-1.27-3-2.84-3-.72 0-1.37.28-1.87.74.03.11.05.29.08.54a32.03 32.03 0 0 0 .02.31c.4-.56 1.05-.92 1.77-.92a2.27 2.27 0 0 1 2.2 2.33c0 1.29-.98 2.33-2.2 2.33a2.2 2.2 0 0 1-2.02-1.38ZM6 9c.15.02.51.12.74.39 0 .15 0 2.14 1.85 2.61-.37 0-2.12-.1-2.45-1.84a1.95 1.95 0 0 1 0-.42v-.3c0-.24-.1-.4-.14-.44Z" fill="url(#ab25zghzq)"/><defs><linearGradient id="ab25zghzq" x1="3.83" y1="5.57" x2="14.77" y2="12.18" gradientUnits="userSpaceOnUse"><stop stop-color="#35BCCD"/><stop offset=".52" stop-color="#6FD38D"/><stop offset="1" stop-color="#BFE937"/></linearGradient></defs></svg>