<!-- by TradingView --><svg width="18" height="18" viewBox="0 0 18 18" xmlns="http://www.w3.org/2000/svg"><path fill="#F0F3FA" d="M0 0h18v18H0z"/><path d="M12.62 8.55a9.38 9.38 0 0 0-1.8-2 4.99 4.99 0 0 0-2.75-1.16 5.26 5.26 0 0 0-2.59.46c-.17.09-.35.17-.53.24a9.4 9.4 0 0 1 1.79-1.44c.35-.2.7-.35 1.04-.46a3.7 3.7 0 0 1 2.59.1c.37.15.73.35 1.08.6.53.39 1.05.85 1.54 1.38A27.94 27.94 0 0 1 15 8.76l-.01.02-.43.39a7.14 7.14 0 0 1-2.26 1.33 6.5 6.5 0 0 1-3.18.3c-.07-.03-.07-.05 0-.07l.11-.03c.65-.23 1.27-.52 1.87-.88a7.25 7.25 0 0 0 1.52-1.23v-.04ZM8.5 6.16a5.72 5.72 0 0 1 1.4.67c-.18-.08-.37-.12-.56-.16l-.14-.04a4.9 4.9 0 0 0-.99-.14c-.8-.06-1.59.04-2.35.29-.53.17-1.08.43-1.63.78a11.62 11.62 0 0 1-.55.38l-.05.04-.06.05c-.05.02-.06 0-.02-.04.33-.41.71-.79 1.14-1.13a4.38 4.38 0 0 1 2.14-.88c.56-.05 1.14.02 1.67.18Zm-2.16 6.8c.34.27.7.49 1.07.66.91.43 1.88.5 2.82.19a7.6 7.6 0 0 0 2.85-1.9c.02-.03.02-.04-.02-.02a7.54 7.54 0 0 1-1.79.65c-.29.04-.6.1-.87.1-1.06 0-2.03-.31-2.92-.95a8.63 8.63 0 0 1-2.1-2.27l.01-.04a6.7 6.7 0 0 1 1.67-1.3c.57-.32 1.18-.6 1.83-.83.06-.01.06-.03 0-.06a6.21 6.21 0 0 0-2.9.2c-1.1.34-2.08.97-2.95 1.8-.03.02-.06.06-.02.1.43.58.88 1.15 1.35 1.72.58.7 1.25 1.4 1.97 1.95ZM9 10a1 1 0 1 0 0-2 1 1 0 0 0 0 2Zm-.91 1.2.2.13c.07.02.13.05.19.09l.17.09.54.22c.3.11.63.2 1.02.27.99.15 2-.1 2.83-.68.52-.36.98-.78 1.39-1.28.09-.12.08-.13-.04-.04a8.1 8.1 0 0 1-2.54 1.3 6.45 6.45 0 0 1-3.45-.04.64.64 0 0 0-.12-.03.52.52 0 0 1-.17-.05H8.1v.01Z" fill="#DA3130"/></svg>