<!-- by TradingView --><svg width="18" height="18" viewBox="0 0 18 18" xmlns="http://www.w3.org/2000/svg"><path fill="#F0F3FA" d="M0 0h18v18H0z"/><path d="M2 8.98C2 10.31 2.9 11 4 11h2v-1H4c-.1 0-1-.1-1-1 0-.55.56-1 .99-1H6V7H3.99C2.92 7 2 7.8 2 8.98ZM7.79 7H7v4h1V8c.24.01.5.32.5.58V11h1V8.58c0-.86-1.04-1.56-1.71-1.58Z" fill="#E8380D"/><path d="M9.55 7H9c.35.26.6.65.7 1.1.22.07.3.23.3.48V11h1V8.58C11 7.7 10.35 7 9.55 7ZM14.2 8.74l-.03-.07c0-.03.03-.07.03-.07L15.96 7h-1.3l-1.5 1.26c-.13.14-.16.03-.16.03V7h-1v4h1V9.13c0-.19.05-.2.09-.16L14.67 11H16l-1.8-2.26Z" fill="#E8380D"/></svg>