<!-- by TradingView --><svg width="18" height="18" viewBox="0 0 18 18" xmlns="http://www.w3.org/2000/svg"><path fill="#F0F3FA" d="M0 0h18v18H0z"/><path d="M7 5.87c-.4.15-2.5 1.09-4 2.35a8.72 8.72 0 0 1 4-2.89c1.14-.4 3-.54 4.97.2-1.8-.2-3.47-.2-4.97.34ZM8.78 14c-3 .01-5.14-1.34-5.78-2.16 1.78 1.31 4.67 1.68 5.78 1.68 4.09-.39 5.55-2.65 5.78-3.85H15c-.22 1.92-2.44 4.31-6.22 4.33ZM6.59 8.43C6.6 8.3 6.37 8 5.47 8 4.35 8 3 8.86 3 10.36s.9 1.5 1.35 1.5c.45 0 1.8-.43 1.57-.64-.13-.12-.32-.04-.55.05-.18.08-.38.16-.57.16-.45 0-.9 0-.68-1.07.23-1.07.68-1.93 1.35-1.93.15 0 .45.09.45.43 0 .43.45.43.67.22l.23-.27c.15-.19.3-.38.45-.38.32 0-.06 1.08-.36 1.95-.17.48-.32.9-.32 1.05 0 .43.23.43.45.43.23 0 .45 0 .67-.43.05-.09.1-.27.18-.5.27-.88.77-2.5 1.84-2.5.66 0 .24 1.02-.12 1.91-.14.33-.26.64-.32.88-.08.21-.05.64.67.64.72 0 1.35-.71 1.57-1.07 0 .36.14 1.07.67 1.07.68 0 1.35-.64 1.13-.64-.06 0-.12 0-.2.02-.21.04-.48.09-.48-.24 0-.21.34-1.28.68-2.35.33-1.07.67-2.14.67-2.36 0-.43-.45-.85-1.12-.85-.68 0-.23.42 0 .64.22.21-1.12 3.85-1.35 4.28l-.03.06c-.21.4-.41.8-1.1.8-.31 0-.18-.24.05-.65.26-.46.63-1.13.63-1.92 0-.29-.18-.86-.9-.86-.9 0-1.8.86-1.8.86S8.62 8 7.95 8c-.76 0-1.04.2-1.24.36l-.1.07Z" fill="#D4635F"/></svg>