<!-- by TradingView --><svg width="18" height="18" viewBox="0 0 18 18" xmlns="http://www.w3.org/2000/svg"><path fill="#F0F3FA" d="M0 0h18v18H0z"/><path d="M4 5.8C4 4.8 4.79 4 5.76 4H6.9c.2 0 .37.14.42.33h3.36c.05-.19.22-.33.42-.33h1.14C13.2 4 14 4.8 14 5.8v6.4c0 1-.79 1.8-1.76 1.8H11.1a.43.43 0 0 1-.42-.33H7.32a.43.43 0 0 1-.42.33H5.76C4.8 14 4 13.2 4 12.2V5.8ZM9 13a4 4 0 1 0 0-8 4 4 0 0 0 0 8Zm0-1.33a2.67 2.67 0 1 0 0-5.34 2.67 2.67 0 0 0 0 5.34ZM8.5 11V9H7V8h4v1H9.5v2h-1Z" fill="#E5222A"/></svg>