<!-- by TradingView --><svg width="18" height="18" viewBox="0 0 18 18" xmlns="http://www.w3.org/2000/svg"><path fill="#F0F3FA" d="M0 0h18v18H0z"/><path d="M6.38 7.67V7H4.35C3.73 7 3 7.58 3 8.28v1.44c0 .7.73 1.28 1.35 1.28h2.03v-.67H4.43c-.23 0-.5-.27-.5-.54V8.2c0-.26.27-.52.5-.52h1.95ZM7 7v4h1.06V8.47l1.51 2.31c.1.14.27.22.44.22h.9V7H10v2.64L8.24 7.22A.55.55 0 0 0 7.8 7H7ZM11.3 11V7h2.47c.62 0 1.23.48 1.23 1.15v.33c0 .67-.6 1.19-1.23 1.19h-1.55V11h-.92Zm2.32-3.33h-1.4V9h1.4c.25 0 .45-.26.45-.59v-.16c0-.32-.2-.58-.45-.58Z" fill="#1C2D5C"/><path d="M11 7V5h.62v1.42L11 7Z" fill="#E94D1A"/><path d="M11 11v2h.62v-1.42L11 11Z" fill="#1C2D5C"/></svg>