<!-- by TradingView --><svg width="18" height="18" viewBox="0 0 18 18" xmlns="http://www.w3.org/2000/svg"><path fill="#F0F3FA" d="M0 0h18v18H0z"/><path d="m4 8 4.69 4.98V15L4 10.02V8ZM14 8l-4.69 4.98V15L14 10.02V8ZM13.69 7.7 9 3 4.31 7.7l.99.98L9 4.98l3.7 3.7.99-.98Z" fill="#DB2129"/><path d="M7 7h4v1.63c-.44-.76-.95-1.2-1.85-1.2-.96 0-1.4.59-1.4 1.14 0 .44.18.68.27.75-.13-.4.15-1.27 1.21-1.27.77 0 1.45.67 1.77 1.1V11H7V9.38c.44.75.95 1.2 1.85 1.2.96 0 1.4-.6 1.4-1.15 0-.44-.18-.68-.27-.75.13.4-.15 1.27-1.21 1.27-.77 0-1.45-.67-1.77-1.1V7Zm2.31 1.68H8.7v.64h.62v-.64Z" fill="#DB2129"/></svg>