<!-- by TradingView --><svg width="18" height="18" viewBox="0 0 18 18" xmlns="http://www.w3.org/2000/svg"><path fill="#F0F3FA" d="M0 0h18v18H0z"/><path d="M11.4 5c3.7 0 4.61 1.08 4.6 1.62C16 10.2 11.25 13 8.35 13 5.45 13 2 10.78 2 8.2 2 5.6 6.78 5 11.4 5Z" fill="#008238"/><path d="M8.24 11.54c1.93 0 3.46-.87 4.2-1.46.14-.11.36-.1.48.02.11.12.1.3-.02.4A6.44 6.44 0 0 1 8.46 12a6.34 6.34 0 0 1-4.44-1.62c-.03-.04-.03-.1.02-.13a.12.12 0 0 1 .15.01c.49.47 1.86 1.28 4.05 1.28Z" fill="#BEA352"/><path fill="#EFE800" fill-opacity=".5" d="M4 6h10v3H4z"/><path fill="#F0F3FA" fill-opacity=".5" d="M6 10h5v1H6z"/></svg>