<!-- by TradingView --><svg width="18" height="18" viewBox="0 0 18 18" xmlns="http://www.w3.org/2000/svg"><path fill="#F0F3FA" d="M0 0h18v18H0z"/><path d="M11.63 5.22a14.24 14.24 0 0 0-6.17 5.17L4 9.78c.77-1.3 3.2-4.23 6.9-5.78l.73 1.22Z" fill="#3B5496"/><path d="M10.54 9.26c-1.2 1-1.27 1.13-2.7 2.9l-1.47-.61c.6-1 1.76-2.2 3.01-3.26a16.66 16.66 0 0 1 3.89-2.52L14 7c-.98.4-2.26 1.26-3.46 2.26Z" fill="#C0C200"/><path d="M11.54 6.71c-2.81 1.86-4.45 3.68-5.17 5.21l-1.46-.6v-.02c.55-1.37 2.28-3.8 5.72-5.72l.9 1.13Z" fill="#45BFD4"/><path d="M13.72 8.8c-3.08 1.71-4.45 4-5.17 5.2l-1.46-.61v-.01c.55-1.17 2.72-4.4 5.72-5.77l.9 1.18Z" fill="#EFB919"/></svg>