<!-- by TradingView --><svg xmlns="http://www.w3.org/2000/svg" width="18" height="18" viewBox="0 0 18 18"><path fill="#004282" d="M0 0h18v18H0z"/><path d="M14.78 8c.15 0 .25-.1.21-.3a5.67 5.67 0 0 0-.82-2.18c-.24-.35-.55-.5-.89-.51L12.9 5h-.37c-.04 0-.05.05-.03.08A5.44 5.44 0 0 1 13.65 8h1.13Zm-5.86 4.92A6.92 6.92 0 0 1 7.86 9c0-1.67.45-3.07 1.06-3.92.02-.03 0-.07-.03-.07a13.82 13.82 0 0 0-.8 0c-.32.03-.6.17-.8.55A7.3 7.3 0 0 0 6.47 9c0 1.27.29 2.49.8 3.44.21.38.5.52.8.55a4.85 4.85 0 0 0 .8 0c.04 0 .06-.04.04-.07ZM6.12 9c0 1.66.48 3.06 1.15 3.91.03.03.02.08-.03.08l-.39.01-.36-.01a1.05 1.05 0 0 1-.88-.55A6.76 6.76 0 0 1 4.74 9c0-1.27.3-2.49.87-3.44.23-.38.54-.53.88-.55L6.85 5h.4c.04 0 .05.06.02.09A6.47 6.47 0 0 0 6.12 9ZM4.38 9c0 1.66.52 3.06 1.2 3.91.02.03 0 .08-.04.08L5.2 13h-.02l-.38-.01a1.06 1.06 0 0 1-.89-.55A6.68 6.68 0 0 1 3 9c0-1.28.33-2.49.91-3.44.23-.38.54-.53.89-.55L5.18 5h.36c.04 0 .06.06.03.09A6.4 6.4 0 0 0 4.38 9Zm6.93-1c.15 0 .24-.1.21-.3a6.08 6.08 0 0 0-.73-2.18.95.95 0 0 0-.8-.51 5.1 5.1 0 0 0-.8 0c-.03 0-.06.04-.04.06.52.67.92 1.7 1.03 2.93h1.13Zm1.95-.3c.03.2-.07.3-.22.3h-1.12a5.44 5.44 0 0 0-1.12-2.92c-.02-.03 0-.07.03-.07l.4-.01h.35c.34.03.65.17.88.52.4.63.68 1.38.8 2.19Zm-1.74 2.6c.03-.2-.06-.3-.21-.3h-1.13a5.78 5.78 0 0 1-1.03 2.93c-.02.02 0 .06.04.06a14.62 14.62 0 0 0 .8 0c.31-.02.6-.16.8-.51.37-.63.62-1.38.73-2.19Zm1.52-.3c.15 0 .25.1.22.3-.12.8-.4 1.55-.8 2.18-.23.35-.54.5-.88.51l-.36.01h-.39c-.04 0-.05-.05-.03-.08.56-.67 1-1.7 1.12-2.92h1.12Zm1.95.3c.04-.2-.06-.3-.21-.3h-1.13a5.44 5.44 0 0 1-1.15 2.92c-.02.03 0 .07.03.07l.35.01h.4c.34-.03.65-.17.89-.52.4-.63.7-1.38.82-2.19Z" fill="#fff"/></svg>