<!-- by TradingView --><svg width="18" height="18" viewBox="0 0 18 18" xmlns="http://www.w3.org/2000/svg"><path fill="#F0F3FA" d="M0 0h18v18H0z"/><path d="M14 7.04c.02-.5-.08-.73-.13-.8-.05-.1-.2-.27-.65-.52L9.45 3.6c-.13-.05-.28-.1-.45-.1-.18 0-.33.05-.45.1-.15.1-4 2.27-4.15 2.34a.9.9 0 0 0-.28.3c-.02.02-.05.07-.07.17a3.4 3.4 0 0 0-.05.63v4.28c0 .15.05.3.12.44.08.15.2.27.33.32l4.15 2.35c.07.05.15.05.22.07h.35a.4.4 0 0 0 .23-.07l4.15-2.35c.12-.07.22-.2.32-.32.08-.14.13-.3.13-.44V7.04Zm-5.08-.9h.18c.02 0 .05 0 .05.02l2.27 1.3L9 8.8 6.6 7.44l2.27-1.3c.03.02.03 0 .05 0Zm2.75 4.11c0 .03 0 .03 0 0 0 .1-.04.2-.12.25-.1.05-1.5.9-2.38 1.38v-2.7l2.5-1.47v2.54Zm-5.34-.01V7.77l1.2.64 1.3.74v2.73c-.62-.36-2.21-1.25-2.36-1.32-.13-.1-.14-.24-.14-.32Zm2.4-6.32c.14-.08.4-.08.54 0 .15.07 3.7 2.07 3.8 2.12.2.1.33.2.4.25l-1.52.85-.18.1-2.45-1.4a.6.6 0 0 0-.3-.07.54.54 0 0 0-.3.08L6.25 7.24l-.18-.1-1.52-.85.05-.05 4.12-2.32Zm.04 10.19-4.12-2.35a.75.75 0 0 1-.2-.2c-.05-.1-.12-.19-.12-.26V7.02c0-.22.04-.37.07-.46l.45.24L6 7.48v3.15c0 .06.1.13.17.17l2.66 1.43v1.9s-.06 0-.06-.02Zm4.9-7.07-.02 4.28c0 .08-.03.17-.08.27a.38.38 0 0 1-.2.2 522.57 522.57 0 0 1-4.2 2.34v-1.9c.42-.25 2.38-1.32 2.53-1.42a.6.6 0 0 0 .3-.44V7.54l.1-.05 1.55-.89c0 .08.04.22.02.44Z"/></svg>