<!-- by TradingView --><svg width="18" height="18" viewBox="0 0 18 18" xmlns="http://www.w3.org/2000/svg"><path fill="url(#a)" d="M0 0h18v18H0z"/><path d="M13.6 7H7c0-.75.87-1 1.4-1H15c-.28.8-1.04 1-1.4 1Z" fill="#FCC800"/><path d="M7.22 9.5H3l.49-1c.32-.75.8-1 1.13-1H9l-.65 1.25c-.26.6-.86.75-1.13.75Z" fill="#98679F"/><path d="M4.86 12c-.91 0-.92-.56-.81-.83L4.53 10H12l-.49 1.17c-.26.66-.86.83-1.13.83H4.86Z" fill="#C1C0BE"/><defs><linearGradient id="a" x1="3.35" y1="3.12" x2="21.9" y2="24.43" gradientUnits="userSpaceOnUse"><stop stop-color="#1A1E21"/><stop offset="1" stop-color="#06060A"/></linearGradient></defs></svg>