<!-- by TradingView --><svg width="18" height="18" viewBox="0 0 18 18" xmlns="http://www.w3.org/2000/svg"><path fill="#F0F3FA" d="M0 0h18v18H0z"/><path d="M14 9A5 5 0 1 1 4 9h4.5s.5 1 2 1 2-1 2-1H14ZM13 6a5 5 0 0 1 .33.5H13s-1.22-.1-2-.1h-.5c-.98 0-2.5.1-2.5.1H4.67A5 5 0 0 1 5 6h3s1.52.19 2.5.2h.5c.6-.02 1.5-.2 1.5-.2h.5ZM4.23 7.5c.05-.17.11-.34.19-.5H7.5l3 .2h.5c.78-.02 2-.2 2-.2h.58l.2.5H13s-1.22-.1-2-.1h-.5c-1.17 0-3 .1-3 .1H4.23ZM4.1 8l-.08.5H8s1.52-.1 2.5-.1a25.63 25.63 0 0 1 2.5.1h.98a5.01 5.01 0 0 0-.08-.5H13s-1.22.18-2 .2h-.5c-1.17-.01-3-.2-3-.2H4.1ZM12.57 5.5a4.99 4.99 0 0 0-7.14 0H8.5s.5-.5 2-.5c1 0 1.5.5 1.5.5h.57Z" fill="#6F6F6F"/></svg>