<!-- by TradingView --><svg width="18" height="18" viewBox="0 0 18 18" xmlns="http://www.w3.org/2000/svg"><path fill="#F0F3FA" d="M0 0h18v18H0z"/><path fill-rule="evenodd" d="M13 3H5v12h8V3Zm-.2.17H5.2v11.66h7.6V3.17Zm-.6.73c0-.13-.12-.23-.27-.23H6.07c-.15 0-.27.1-.27.23v10.2c0 .13.12.23.27.23h5.86c.15 0 .27-.1.27-.23V3.9Zm-.2.21c0-.13-.11-.28-.26-.28H6.26c-.15 0-.26.15-.26.28v9.78c0 .13.11.28.26.28h5.48c.15 0 .27-.15.27-.28V4.11Zm-3.92 6.08C7.38 9.95 6.3 9.04 7 7.14c-.2-.16-.4-.44-.4-.89 0-.93 1.23-1.81 2.2-1.81H9A2.72 2.72 0 0 1 10.4 4c.8 0 1 .5 1 .94 0 .44-.65 2.38-3.61 2.41-.27.57-.57 1.77.21 2.25.1-1.03 1.03-2.4 2.44-2.4 1.5 0 .14 2.43-1.65 2.93.05.12.22.34.55.34.32 0 .96-.47 1.24-.71.1-.1.34-.31.52-.31.23 0 .14.34-.03.6-.09.13-.29.64-.48 1.14.22.09.49.23.59.43.17.33.25.93-.1.93-.29 0-.2-.24-.15-.4a.7.7 0 0 0 .04-.11c.01-.12-.08-.38-.5-.52l-.17.45c-.25.7-1.01 2.08-2.08 2.08-1.34 0-1.12-1.34-.67-1.98.44-.64 1.31-1.02 2.3-1.02l.17-.45c-.1.1-.36.3-.68.3-.36-.02-1.02-.2-1.26-.7Zm.44-5.39A5.53 5.53 0 0 0 7.14 6.8a.67.67 0 0 1-.28-.54c0-.59.73-1.33 1.57-1.43l.09-.02Zm-.61 2.25c.17-.54.58-1.58 1.33-2.22.29.05.46.17.59.25.1.07.16.17.21.25.08.11.13.2.23.17.17-.05.12-.21 0-.35l-.04-.05c-.1-.12-.3-.36-.67-.52 1.4-.9 1.92.32.88 1.4-.76.78-1.33.99-2.53 1.07Zm.84 2.7c.02-.59.37-1.85 1.6-2.2.11 0 .32.04.32.29 0 .3-.42 1.66-1.92 1.9Zm1 1.64c-.4.04-1.32.24-1.73.72-.51.6-.63 1.53.06 1.53.7 0 1.49-1.08 1.67-2.25Z" fill="#D82027"/></svg>