<!-- by TradingView --><svg width="18" height="18" viewBox="0 0 18 18" xmlns="http://www.w3.org/2000/svg"><path fill="#F0F3FA" d="M0 0h18v18H0z"/><path d="M9.36 4H5v.67h4.36V4Zm-1.45.67H5c0 .37.3.66.67.66H6v7.95c-.07.16-.23.37-.48.4-.3.03-.34.22-.32.32H7V5.33h.24c.37 0 .67-.3.67-.66ZM9.36 4H13v.67H9.36V4Zm.73.67H13c0 .37-.3.66-.67.66H12v7.87c.05.16.2.45.49.48.3.03.33.22.3.32H11V5.33h-.24a.67.67 0 0 1-.67-.66ZM7.5 6.5c0-.5.35-.92.84-1.13v1.13H7.5Zm1.18-1.23v1.23h.66V5.28a1.79 1.79 0 0 0-.66 0ZM7.5 6.8h.83v1.33H7.5V6.79Zm1.17 0v1.33h.66V6.79h-.66ZM7.5 8.4h.83v1.33H7.5V8.4Zm1.17 0v1.33h.66V8.4h-.66ZM7.5 10.01h.83v1.33H7.5v-1.33Zm1.17 0v1.33h.66v-1.33h-.66ZM7.5 11.62h.83V14H7.5v-2.38Zm1.17 0V14h.66v-2.38h-.66ZM10.5 14h-.83v-2.38h.83V14Zm0-2.66h-.83v-1.33h.83v1.33Zm0-1.61h-.83V8.4h.83v1.33Zm0-1.61h-.83V6.79h.83v1.33Zm0-1.61h-.83V5.38c.5.2.83.64.83 1.13Z" fill="#999"/></svg>