<!-- by TradingView --><svg width="18" height="18" viewBox="0 0 18 18" xmlns="http://www.w3.org/2000/svg"><path fill="#F0F3FA" d="M0 0h18v18H0z"/><ellipse cx="12" cy="9" rx="3" ry="2" fill="url(#aav3iltvb)"/><path d="M9.54 6.28v1.14A5.33 5.33 0 0 0 7.47 7C5.65 7 5 8.07 5 9.04S6.24 11 7.41 11c.94 0 1.85-.24 2.19-.36l.4.83c-.38.18-1.46.53-2.74.53C5.66 12 3 11.4 3 9.04 3 6.7 5.8 6 7.26 6c1.15 0 2 .19 2.28.28Z" fill="#004EA2"/><defs><linearGradient id="aav3iltvb" x1="15" y1="9" x2="9" y2="9" gradientUnits="userSpaceOnUse"><stop stop-color="gray"/><stop offset=".5" stop-color="#FBFBFB"/><stop offset="1" stop-color="#949494"/></linearGradient></defs></svg>