<!-- by TradingView --><svg width="18" height="18" viewBox="0 0 18 18" xmlns="http://www.w3.org/2000/svg"><path fill="#F0F3FA" d="M0 0h18v18H0z"/><path d="M8 11.74a4.1 4.1 0 0 1-1.43.26C4.63 12 4 10.63 4 9.17 4 7.31 4.92 6 6.78 6c.4 0 .86.05 1.22.16l-.12.87a4.03 4.03 0 0 0-1.16-.17C5.7 6.86 5 7.84 5 8.98c0 1.28.68 2.16 1.8 2.16.34 0 .79-.1 1.08-.24l.12.84ZM13 11.74a4.1 4.1 0 0 1-1.43.26C9.63 12 9 10.63 9 9.17 9 7.31 9.92 6 11.78 6c.4 0 .86.05 1.22.16l-.12.87a4.03 4.03 0 0 0-1.16-.17c-1.03 0-1.72.98-1.72 2.12 0 1.28.68 2.16 1.8 2.16.34 0 .79-.1 1.08-.24l.12.84Z" fill="#0070C0"/></svg>