<!-- by TradingView --><svg width="18" height="18" viewBox="0 0 18 18" xmlns="http://www.w3.org/2000/svg"><path fill="#16243E" d="M0 0h18v18H0z"/><path d="M5.33 6.58 5.61 6C7 6.45 8.5 7.58 8.5 8.92V13h-.91V9.1c0-1.2-1.01-2.11-2.26-2.52Z" fill="url(#awqphp1pf)"/><path d="M3 6.58 3.15 6c1.29.43 4.44 1.57 4.44 3.1V13H6.5V9.35c0-1.34-2.4-2.4-3.5-2.77Z" fill="url(#bwqphp1pf)"/><path d="M12.67 6.58 12.39 6C11 6.45 9.5 7.56 9.5 8.9V13h1V9.1c0-1.2.92-2.11 2.17-2.52Z" fill="url(#cwqphp1pf)"/><path d="M15 6.58 14.85 6c-1.29.43-4.35 1.57-4.35 3.1V13h1V9.35c0-1.34 2.4-2.4 3.5-2.77Z" fill="url(#dwqphp1pf)"/><path d="M8.5 6v7h1V6h-1Z" fill="url(#ewqphp1pf)"/><defs><linearGradient id="awqphp1pf" x1="9" y1="6" x2="9" y2="14.05" gradientUnits="userSpaceOnUse"><stop stop-color="#C39627"/><stop offset="1" stop-color="#A64E3F"/></linearGradient><linearGradient id="bwqphp1pf" x1="9" y1="6" x2="9" y2="14.05" gradientUnits="userSpaceOnUse"><stop stop-color="#C39627"/><stop offset="1" stop-color="#A64E3F"/></linearGradient><linearGradient id="cwqphp1pf" x1="9" y1="6" x2="9" y2="14.05" gradientUnits="userSpaceOnUse"><stop stop-color="#C39627"/><stop offset="1" stop-color="#A64E3F"/></linearGradient><linearGradient id="dwqphp1pf" x1="9" y1="6" x2="9" y2="14.05" gradientUnits="userSpaceOnUse"><stop stop-color="#C39627"/><stop offset="1" stop-color="#A64E3F"/></linearGradient><linearGradient id="ewqphp1pf" x1="9" y1="6" x2="9" y2="14.05" gradientUnits="userSpaceOnUse"><stop stop-color="#C39627"/><stop offset="1" stop-color="#A64E3F"/></linearGradient></defs></svg>