<!-- by TradingView --><svg width="18" height="18" viewBox="0 0 18 18" xmlns="http://www.w3.org/2000/svg"><path fill="#F0F3FA" d="M0 0h18v18H0z"/><path d="M14.25 11c-.97 0-1.75-.89-1.75-2 0-1.11.78-2 1.75-2S16 7.89 16 9c0 1.11-.77 2-1.75 2Zm0-.7c.65 0 1.05-.6 1.05-1.3 0-.7-.4-1.3-1.05-1.3-.64 0-1.05.59-1.05 1.3 0 .71.4 1.3 1.05 1.3ZM12 11h-.67L9.67 8.26V11H9V7h.67l1.66 2.75V7H12v4ZM6.7 7c.99 0 1.8.77 1.8 2 0 1.24-.82 2-1.8 2H5.5V7h1.2Zm-.03 3.32c.67 0 1.16-.5 1.16-1.32 0-.81-.49-1.32-1.16-1.32h-.5v2.64h.5ZM3.57 7C2.64 7 2 7.93 2 9c0 1.07.64 2 1.57 2 .34 0 .65-.11.9-.33.25-.21.42-.5.53-.87h-.72a.88.88 0 0 1-.28.36.73.73 0 0 1-.44.14c-.6 0-.89-.64-.89-1.3s.29-1.3.9-1.3c.16 0 .3.05.43.15.12.08.21.2.28.35H5c-.1-.36-.28-.65-.53-.86a1.34 1.34 0 0 0-.9-.34Z"/></svg>