<!-- by TradingView --><svg width="18" height="18" viewBox="0 0 18 18" xmlns="http://www.w3.org/2000/svg"><path fill="#F0F3FA" d="M0 0h18v18H0z"/><path d="M5 4.72c0-.4.28-.72.63-.72H13v1H6v8h7v1H5.63c-.35 0-.63-.32-.63-.72V4.72Z" fill="url(#a)"/><path d="M13 5.5v1H7.5v5H13v1H7.1c-.31 0-.6-.28-.6-.62V6.12c0-.34.25-.62.56-.62H13Z" fill="url(#b)"/><path d="M8 7.72c0-.4.26-.72.58-.72H13v1H9v2h4v1H8.58c-.32 0-.58-.32-.58-.72V7.72Z" fill="url(#c)"/><path d="M5 13.47c2.1 0 8.2-1.25 11-1.88A49.53 49.53 0 0 1 4.83 14h-.81v-.99c0 .29.49.46.97.46Z" fill="url(#d)"/><path d="M11.67 8 8.96 9.81l.17-.63c-1.8.92-5.1 2.85-5.1 3.82v1C3.7 13.96 3 13.75 3 13.24c0-.62 1-2.4 5.84-4.25l-.6-.2L11.67 8Z" fill="url(#e)"/><defs><linearGradient id="a" x1="9" y1="4" x2="9" y2="14" gradientUnits="userSpaceOnUse"><stop stop-color="#272767"/><stop offset=".5" stop-color="#169FFD"/><stop offset="1" stop-color="#242464"/></linearGradient><linearGradient id="b" x1="9.77" y1="5.67" x2="9.77" y2="12.33" gradientUnits="userSpaceOnUse"><stop stop-color="#272767"/><stop offset=".5" stop-color="#169FFD"/><stop offset="1" stop-color="#242464"/></linearGradient><linearGradient id="c" x1="10.5" y1="7" x2="10.5" y2="11" gradientUnits="userSpaceOnUse"><stop stop-color="#272767"/><stop offset=".5" stop-color="#169FFD"/><stop offset="1" stop-color="#242464"/></linearGradient><linearGradient id="d" x1="3.86" y1="13.57" x2="16.01" y2="12.95" gradientUnits="userSpaceOnUse"><stop stop-color="#086938"/><stop offset=".61" stop-color="#5EAB29"/><stop offset="1" stop-color="#286931"/></linearGradient><linearGradient id="e" x1="11.29" y1="8.18" x2="2.63" y2="12.28" gradientUnits="userSpaceOnUse"><stop stop-color="#5B9D3D"/><stop offset=".34" stop-color="#89CB36"/><stop offset="1" stop-color="#036637"/></linearGradient></defs></svg>