<!-- by TradingView --><svg width="18" height="18" viewBox="0 0 18 18" xmlns="http://www.w3.org/2000/svg"><path fill="#F0F3FA" d="M0 0h18v18H0z"/><path d="M10.61 7.91a.04.04 0 0 0 .03.03.05.05 0 0 0 .04 0l2.14-.87a.37.37 0 0 1 .26 0l1.35.42a.1.1 0 0 1 .07.08.09.09 0 0 1-.05.09l-3.66 1.63a.34.34 0 0 0-.2.3c-.01.91.17 1.72-1.04 1.87-.2.02-.29.13-.28.33 0 .29 0 .55-.03.77-.06.57-.19.59-.38.06a2 2 0 0 1-.02-.72.38.38 0 0 0-.27-.4c-.33-.1-.63-.29-.88-.57a.16.16 0 0 0-.09-.05l-.1.01-2.66 1.2a.22.22 0 0 1-.18 0c-.7-.32-1.31-.56-1.86-.72-.4-.12-.4-.25-.02-.4l4.74-1.93a.24.24 0 0 0 .15-.23l.01-1.72c.01-.35.16-.47.47-.52a.21.21 0 0 0 .16-.1.2.2 0 0 0 0-.2c-.17-.3-.21-.62-.14-.95a.4.4 0 0 1 .18-.26c.09-.05.2-.07.3-.05l1.13.23c.1.02.18.06.26.12l.67.6c.25.22.27.46.06.71-.22.28-.28.7-.16 1.24Z" fill="#19579D"/></svg>