<!-- by TradingView --><svg width="18" height="18" viewBox="0 0 18 18" xmlns="http://www.w3.org/2000/svg"><path fill="#F5BE0B" d="M0 0h18v18H0z"/><path d="M8.65 10.46a.1.1 0 0 1 .05.08.3.3 0 0 1-.05.12 1.4 1.4 0 0 1-.13.2c-.55.8-1.59 1.14-2.55 1.14C4.18 12 3 10.6 3 8.97 3 7.37 4.17 6 5.93 6c.9 0 1.66.24 2.07.83V6.1c-.01-.07.04-.1.12-.1h.46c.08 0 .12.03.12.1v1.8c0 .06-.04.1-.12.1h-.46C8.05 8 8 7.96 8 7.9v-.08c0-.8-1.41-1.22-2.07-1.22-1.33 0-2.3 1.24-2.3 2.4 0 1.2.98 2.4 2.34 2.4.85 0 1.7-.41 2.15-1.12.05-.09.1-.1.17-.05l.36.23Z" fill="#6A6056"/><path d="M14.56 10.46a.1.1 0 0 1 .04.08.3.3 0 0 1-.04.12 1.4 1.4 0 0 1-.13.2c-.55.8-1.57 1.14-2.51 1.14C10.16 12 9 10.6 9 8.97 9 7.37 10.15 6 11.88 6c.88 0 1.72.3 2.12.88V6.1c-.01-.07.01-.1.1-.1h.39c.07 0 .11.03.11.1v1.8c0 .06-.04.1-.11.1h-.46c-.06 0-.03-.08-.03-.15v-.07c0-.67-1.58-1.18-2.12-1.18-1.31 0-2.2 1.24-2.2 2.4 0 1.2.9 2.4 2.24 2.4a2.5 2.5 0 0 0 2.11-1.12c.05-.09.1-.1.17-.05l.36.23Z" fill="#FEFEFD"/></svg>