<!-- by TradingView --><svg width="18" height="18" viewBox="0 0 18 18" xmlns="http://www.w3.org/2000/svg"><path fill="#F0F3FA" d="M0 0h18v18H0z"/><path d="M12.67 12.19c.04-.06.03-.2-.2-.19H7.84c-.34 0-.37-.14-.41-.18L6.18 9.55a.46.46 0 0 1-.07-.2c0-.2.15-.35.39-.35h1.76c.18 0 .27-.07.3-.11l.97-1.66c.15-.27-.17-.23-.2-.23H7.29c-.01 0-.3-.02-.4.15l-2.22 3.71c-.02.05-.17.2-.05.43L6 13.76c.1.14.24.24.53.24h4.79c.07 0 .28-.01.41-.21l.93-1.6Z" fill="#214194"/><path d="M9.77 4a.11.11 0 0 0-.12.12c0 .04.02.09.06.15l2.19 3.87c.08.13.1.22.1.29 0 .08-.04.12-.04.15l-1.52 2.21c-.08.14-.2.2-.31.21-.12 0-.24-.07-.33-.2l-.9-1.28c-.08-.16-.19-.2-.24-.2H6.6c-.13 0-.17.04-.17.1 0 .07.06.16.07.17l1.04 1.63c0 .02.13.28.33.28h4.5c.15 0 .3 0 .4-.16l1.17-2.4A.5.5 0 0 0 14 8.7c0-.1-.03-.21-.11-.35l-2.18-4.1c-.04-.07-.15-.25-.39-.26H9.77Z" fill="#214194"/><path d="M3.99 10.82c.03.06.16.12.26-.1L6.54 6.8c.17-.32.3-.27.37-.29h2.7c.25 0 .4.15.38.35a.5.5 0 0 1-.06.22l-.85 1.47a.46.46 0 0 0-.08.22c0 .05 0 .09.02.11l.97 1.52c.05.08.1.11.14.11.09 0 .15-.15.16-.16l1.04-1.64c0-.02.18-.27.08-.44L9.12 4.27c-.03-.04-.08-.25-.34-.27h-2.8c-.18.02-.33.1-.48.35L3.08 8.66c-.03.07-.14.26-.03.48l.94 1.68Z" fill="#214194"/></svg>