<!-- by TradingView --><svg width="18" height="18" viewBox="0 0 18 18" xmlns="http://www.w3.org/2000/svg"><path fill="#F0F3FA" d="M0 0h18v18H0z"/><path d="M2 10.65h14V11H2zM16 8.35h-.85l-.94-1.33-5.88-1.64v.72l1.2 1.55h4.32l.48.35H2v-.35h4.8L8 6.1V5l6.8 1.55 1.2 1.8Zm-8.72-.7h1.77v-.21l-.88-1.17-.89 1.17v.2ZM15.18 8.53H16l-.83.97.75.8h-.7l-.38-.42-.35.41h-.82l.74-.86-.7-.74h.7l.33.35.44-.51ZM4.33 8.53h1.5c.26 0 .5.22.5.5 0 .26-.23.48-.47.5.22.2.34.41.47.76h-.65l-.52-.77H5v.77h-.67V8.53Zm.67.7h.45c.12 0 .22-.07.22-.2s-.1-.24-.22-.24H5v.45ZM9.4 8.53h-.73v1.76h.66V9.27l.93 1.02H11V8.53h-.67v1.03l-.92-1.03ZM11.67 8.53h-.34v1.76h2v-.35H12V9.6h1.33v-.35H12v-.36h1.33v-.35H11.67ZM4 9.69c-.13.35-.52.6-.97.6-.57 0-1.03-.4-1.03-.88 0-.49.46-.88 1.03-.88.44 0 .82.24.96.59h-.66c-.07-.16-.16-.24-.3-.24-.23 0-.36.22-.36.53 0 .31.13.53.36.53.15 0 .24-.08.31-.25H4ZM7.17 8.53H7.83l.84 1.76H8l-.13-.35h-.74L7 10.3h-.67l.84-1.76Zm.08 1.06h.5l-.25-.72-.25.72Z"/></svg>