<!-- by TradingView --><svg width="18" height="18" viewBox="0 0 18 18" xmlns="http://www.w3.org/2000/svg"><path fill="#F0F3FA" d="M0 0h18v18H0z"/><path d="M13.02 10.84c-1.04-.4-1.6-1.91-.98-2.83.75-1.14 1.82-1.06 3.07-.96l.22.02c.03 0 .07.02.1.04l.05.07.31.85c.01.02 0 .04-.02.05l-.05.02h-.02c-.74-1.53-2.77-1.27-3.14.3-.22.95.26 2.12 1.39 2.36 1 .2 1.46-.3 1.97-1 .02-.02.04-.03.06 0 .02.02.02.04.02.05-.47.93-1.27 1.31-2.4 1.15l-.58-.12Zm-.53-2.93a.61.61 0 0 1 .17-.23.62.62 0 0 0 .12-.13c.07-.11.05-.13-.07-.06-.27.17-.49.4-.64.72-.38.78-.03 2.2.89 2.48.27.08.3.03.08-.13-.87-.67-1.05-1.55-.55-2.65Zm-9.25 2.93c-1.04-.4-1.6-1.91-.99-2.83.76-1.14 1.83-1.06 3.08-.96l.22.02c.03 0 .06.02.09.04s.05.04.06.07l.3.85c.02.02.01.04-.02.05l-.05.02h-.02c-.73-1.53-2.77-1.27-3.13.3-.23.95.26 2.12 1.38 2.36 1 .2 1.46-.3 1.98-1 .02-.02.04-.03.05 0 .02.02.03.04.02.05-.47.93-1.26 1.31-2.39 1.15-.05 0-.52-.1-.58-.12ZM2.7 7.9c.05-.13.11-.18.17-.23A.62.62 0 0 0 3 7.55c.06-.11.04-.13-.07-.06-.28.17-.5.4-.65.72-.38.78-.02 2.2.9 2.48.26.08.29.03.07-.13C2.38 9.89 2.2 9 2.71 7.9Zm7.26.99c-.13.01-.45.02-.97.02s-.84 0-.97-.02c-.08-.01-.12-.05-.13-.13v-.09c-.06-.6-.13-1.4.55-1.58.04-.01.05-.03.02-.07L8.42 7h-1.7c-.1 0-.11.02-.03.06.35.18.52.4.5.67a51.26 51.26 0 0 0 0 2.54c.02.26-.15.49-.5.67-.08.04-.08.06.02.06h1.71l.05-.03c.03-.04.02-.06-.02-.07-.68-.18-.6-.97-.55-1.58v-.1c.01-.07.05-.11.13-.12.13-.01.45-.02.97-.02s.84 0 .97.02c.08.01.12.05.13.13v.08c.06.61.13 1.4-.55 1.6-.04 0-.05.02-.02.06.02.02.03.03.05.03h1.7c.1 0 .11-.02.03-.06-.35-.18-.52-.4-.5-.67a76.95 76.95 0 0 0 0-2.54c-.02-.26.15-.49.5-.67.08-.04.08-.06-.02-.06H9.58l-.05.03c-.03.04-.02.06.02.07.68.18.6.97.55 1.58v.1c0 .07-.05.11-.13.12Zm-2.7 1.87c.04-1.13.04-2.18.03-3.16 0-.17-.03-.2-.11-.32-.06-.09-.04-.14.07-.16a.89.89 0 0 1 .43.04c.1.03.12.08.07.16l-.07.1a.12.12 0 0 0-.02.06v3.3c0 .02-.02.04-.05.04h-.29c-.04 0-.05-.02-.05-.06Zm2.9 0c.03-1.13.04-2.19.03-3.17 0-.17-.03-.2-.12-.32-.06-.09-.04-.14.07-.16a.88.88 0 0 1 .43.04c.1.03.13.08.07.16l-.06.1a.12.12 0 0 0-.03.06v3.3c0 .04-.02.05-.04.05h-.3c-.03 0-.05-.02-.05-.05Z"/></svg>