<!-- by TradingView --><svg width="18" height="18" viewBox="0 0 18 18" xmlns="http://www.w3.org/2000/svg"><path fill="#F0F3FA" d="M0 0h18v18H0z"/><path d="M9.5 4c.13.17.17.4.23.61.25.8.48 1.6.71 2.4l1.04 3.49c.11.37.24.73.34 1.1.14.5.44.76.87.84.43.08.4.56 0 .56h-2.56c-.28 0-.34-.44-.08-.5.1-.03.2-.03.29-.05l.19-.05c.14-.06.17-.11.13-.29l-.2-.68-.54-1.86L8.9 6.1l-.06-.16-.15.43-.93 3.06-.69 2.25-.1.4c-.04.18.02.28.17.32l.46.1c.27.06.24.51-.04.51H5.23c-.14 0-.21-.08-.23-.22-.02-.14.07-.28.18-.3l.4-.1c.15-.03.3-.1.42-.22.12-.1.22-.25.29-.41.11-.24.2-.49.3-.74l.97-3.16 1-3.2c.08-.3.25-.5.48-.65h.46Z"/></svg>