<!-- by TradingView --><svg width="18" height="18" viewBox="0 0 18 18" xmlns="http://www.w3.org/2000/svg"><path fill="#F0F3FA" d="M0 0h18v18H0z"/><path d="M13.04 6.02a7.9 7.9 0 0 1 2.47.46c.16.06.42.2.48.4.18.67-1.87.83-2.32.8a3.98 3.98 0 0 1-2.3-1.03.7.7 0 0 0-.4-.17 3.3 3.3 0 0 0-.9.12c-1.22.3-3.34 1.27-3.4 2.94-.03.75.56 1.22 1.18 1.38.62.15 1.25.16 1.87.16a7.6 7.6 0 0 0 3.55-.83c.37-.2.78-.34 1.18-.19.07.02.09.11.05.17-.06.08-.16.13-.22.17-2.22 1.44-4.95 1.66-7.46 1.59-1.12-.03-4.7-.23-4.82-2.19-.11-1.97 3.24-2.83 4.37-3.1 1.44-.36 2.95-.64 4.42-.67.84-.02 1.53-.05 2.25-.01Z" fill="#2F5CD2"/><path d="M10.15 8c.24.02.48.06.7.16.06.02.13.06.15.13.05.23-.54.28-.67.27-.25-.01-.45-.16-.65-.34a.19.19 0 0 0-.12-.06c-.07 0-.15.01-.26.04-.34.1-.93.42-.95.98 0 .25.14.4.32.46a1.93 1.93 0 0 0 .78.03c.26-.04.53-.1.77-.25.1-.07.22-.12.34-.07.02.01.02.04.01.06-.01.03-.05.04-.06.06-.3.23-.69.38-1.04.45-.36.07-.73.09-1.1.08-.31-.01-1.34-.08-1.37-.73-.03-.66.93-.95 1.25-1.04.41-.12.84-.21 1.26-.22.24 0 .44-.02.64 0ZM11 9h4v1h-4z" fill="#E84B4E"/></svg>