<!-- by TradingView --><svg width="18" height="18" fill="none" xmlns="http://www.w3.org/2000/svg"><path fill="#F0F3FA" d="M0 0h18v18H0z"/><path fill-rule="evenodd" clip-rule="evenodd" d="M11 4a1 1 0 1 1-.001 2.001A1 1 0 0 1 11 4ZM7 4a1 1 0 1 1-.001 2.001A1 1 0 0 1 7 4ZM11 12a1 1 0 1 1-.001 2.001A1 1 0 0 1 11 12ZM7 12a1 1 0 1 1-.001 2.001A1 1 0 0 1 7 12ZM13 6a1 1 0 1 1-.001 2.001A1 1 0 0 1 13 6ZM13 10a1 1 0 1 1-.001 2.001A1 1 0 0 1 13 10ZM5 6a1 1 0 1 1-.001 2.001A1 1 0 0 1 5 6ZM5 10a1 1 0 1 1-.001 2.001A1 1 0 0 1 5 10Z" fill="#82B729"/><path d="M7.026 4.696 9.03 6.67l2.002-1.973.286.32L9 7.279 6.74 5.016l.286-.32ZM13.314 7.056 11.426 9l1.888 1.944-.286.32L10.796 9l2.232-2.234.286.29ZM6.74 12.937 9 10.615l2.346 2.322-.315.319-2.002-2.031-1.974 2.03-.315-.318ZM4.846 10.944 6.934 9 4.846 7.056l.286-.32L7.564 9l-2.432 2.263-.286-.319Z" fill="#82B729"/><path fill-rule="evenodd" clip-rule="evenodd" d="M9 6c.564 0 1 .436 1 1 0 .564-.436 1-1 1-.564 0-1-.436-1-1 0-.564.462-1 1-1ZM11 8c.564 0 1 .436 1 1 0 .564-.436 1-1 1-.564 0-1-.436-1-1 0-.564.436-1 1-1ZM7 8c.564 0 1 .436 1 1 0 .564-.436 1-1 1-.564 0-1-.436-1-1 0-.564.436-1 1-1ZM9 10c.564 0 1 .436 1 1 0 .564-.436 1-1 1-.564 0-1-.436-1-1 0-.564.462-1 1-1Z" fill="#2D3063"/></svg>