<!-- by TradingView --><svg width="18" height="18" viewBox="0 0 18 18" xmlns="http://www.w3.org/2000/svg"><path fill="#F0F3FA" d="M0 0h18v18H0z"/><path fill="#191F29" d="M2 8h14v3H2z"/><path d="M9 8c1.1 0 2-.64 2-1.43-.57 0-1.08.17-1.44.44 0-.37-.18-.73-.56-1.01-.38.28-.56.64-.56 1A2.44 2.44 0 0 0 7 6.58C7 7.36 7.9 8 9 8" fill="url(#a)"/><path fill="url(#b)" fill-opacity=".5" d="M3 9h12v1H3z"/><defs><linearGradient id="a" x1="6.88" y1="6.71" x2="10.05" y2="8.85" gradientUnits="userSpaceOnUse"><stop offset=".05" stop-color="#AC8247"/><stop offset=".19" stop-color="#F4EEE2"/><stop offset=".39" stop-color="#AF8C26"/><stop offset=".71" stop-color="#F7EBC7"/><stop offset=".78" stop-color="#BD9E1E"/></linearGradient><linearGradient id="b" x1="3.19" y1="8.99" x2="13.9" y2="12.76" gradientUnits="userSpaceOnUse"><stop stop-color="#D09620"/><stop offset=".14" stop-color="#A0691B"/><stop offset=".34" stop-color="#F1EBD6"/><stop offset=".54" stop-color="#AB871C"/><stop offset=".77" stop-color="#F5E8C2"/><stop offset=".87" stop-color="#AD9221"/><stop offset="1" stop-color="#95641B"/></linearGradient></defs></svg>