<!-- by TradingView --><svg width="18" height="18" viewBox="0 0 18 18" xmlns="http://www.w3.org/2000/svg"><path fill="#F0F3FA" d="M0 0h18v18H0z"/><path fill-rule="evenodd" d="M4.83 9.73c-.1-.22-.14-.46-.14-.73 0-.26.05-.5.14-.72.2-.47.53-.74 1.02-.8.26-.02.5.02.72.14.22.12.39.3.5.53 0 .03.04.05.08.05h1.73c.02 0 .04-.01.05-.03a.05.05 0 0 0 .01-.05A2.79 2.79 0 0 0 7.21 6.2 3.2 3.2 0 0 0 5.96 6 2.9 2.9 0 0 0 3 9a2.9 2.9 0 0 0 2.97 3c.5 0 .91-.06 1.25-.2.9-.36 1.47-1 1.72-1.93v-.05a.06.06 0 0 0-.05-.02H7.15a.09.09 0 0 0-.09.05c-.1.23-.26.4-.48.53-.22.12-.46.16-.72.13a1.2 1.2 0 0 1-1.03-.78ZM11.96 6h.82c.06 0 .1.03.12.09l2.1 5.86c0 .03 0 .05-.04.05h-1.62c-.06 0-.1-.03-.11-.08l-.23-.77c-.02-.05-.05-.15-.09-.15H11c-.04 0-.07.1-.08.14l-.24.78c-.01.05-.05.08-.1.08H8.94c-.03 0-.05-.02-.03-.05l2.1-5.86c.01-.06.05-.09.1-.09h.84Zm-.58 3.69.55-1.76c0-.02.01-.03.03-.03.01 0 .03.01.03.03l.54 1.76c.01.03 0 .04-.03.04h-1.08c-.03 0-.05-.01-.04-.04Z" fill="#FE363D"/></svg>