<!-- by TradingView --><svg width="18" height="18" viewBox="0 0 18 18" xmlns="http://www.w3.org/2000/svg"><path fill="#F0F3FA" d="M0 0h18v18H0z"/><path d="M7 8.64c.1-.28.27-.5.54-.7.17-.13.44-.2.6-.2h.19c.1 0 .45.03.45.42v.48H7Zm-.08.5c0-.1.01-.19.03-.28h1.83v.27H6.92Zm0 .48v-.26h1.86v.26H6.9Zm.03.5a3.5 3.5 0 0 1-.03-.27h1.86v.26H6.95Zm.12.48a2.73 2.73 0 0 1-.08-.26h1.79v.26h-1.7Zm1.7.72v.73a2.04 2.04 0 0 1-1.01-.46c-.1-.08-.2-.17-.28-.27h1.3Zm-1.46-.22-.15-.27h1.62v.27H7.3Zm4.15.33c0 .66-.23 1.1-.88 1.1h-.89c-.29 0-.5.09-.6.32l-.14.32c-.2-.47-.5-.64-.78-.71a2.8 2.8 0 0 1-1.94-2.72v-.52c0-.62.36-1.49 1.17-1.86.74-.33.87-.55.88-.81.01-.1-.02-.16-.05-.21a.44.44 0 0 0-.28-.16c-.18-.03-.26.01-.34-.08 0 0-.18.05-.28.04-.03 0-.08 0-.08.03s-.06.05-.07-.03c0-.08.05-.24.27-.31.18-.05.2-.07.21-.09a.34.34 0 0 1 .13-.08l.12-.02c0-.04.03-.09.05-.12.04-.08.06-.12.12-.2.04-.07.12-.19.39-.25.3-.07.72-.04 1.02.06.26.09.63.28.78.75l.11.3c.07.19.14.37.27.58l.28.33c.23.25.46.6.53.95h-.85l.3.67H9.74l.3-.67H9c-.06-.37-.37-.53-.67-.53h-.2c-.22 0-.53.1-.73.25-.48.35-.72.83-.72 1.46v.37c0 1.18.5 1.83.93 2.17.51.4 1.03.52 1.28.52H9V8.26h.68l-.3.67h1.87l-.28-.67h.5v3.17ZM11.92 4H6.08L5 5.12v7.91l1.08.97h5.84l1.08-.97V5.12L11.92 4Z" fill="#111"/><path d="M10.23 10.63v-.79l.5 1.11-.5-.32Zm-.97.89.98-.64.97.64-.97-2.21-.98 2.21ZM8.94 5.84c.12 0 .22-.09.22-.2 0-.12-.1-.2-.22-.2s-.21.08-.21.2c0 .11.1.2.21.2Z" fill="#111"/></svg>