<!-- by TradingView --><svg width="18" height="18" viewBox="0 0 18 18" xmlns="http://www.w3.org/2000/svg"><path fill="#F0F3FA" d="M0 0h18v18H0z"/><path d="M7.25 11.63c-1.8 0-2.8-.43-3.08-.63.42.34 1.2 1 3.53 1 5.1 0 6.32-3.26 6.54-4.07.18-.64.58-1.05.76-1.18l-2.3.88c.08 2.64-3.2 4-5.45 4Z" fill="#114C9A"/><path d="m10.58 8.56 1.94-.81c-.15.13-.52.54-.79 1.18C11.03 10.45 9.15 11 7.7 11c-1.16 0-1.8-.33-1.99-.5.3.1.64.25 1.6.25 2.27 0 3.4-1.28 3.27-2.2Z" fill="#B1CB36"/><path d="m7.65 9.44-1.94.81c.16-.13.53-.54.8-1.18C7.2 7.55 9.09 7 10.54 7c1.16 0 1.8.33 1.98.5-.3-.1-.64-.25-1.6-.25-2.27 0-3.4 1.28-3.27 2.2Z" fill="#114C9A"/><path d="M10.84 6c2.28 0 3.72.5 4.16.75a8.4 8.4 0 0 0-3.13-.5c-4.4 0-6.44 2.5-6.22 4.16-1.4.73-3.12 1.09-3.65 1.09 2.07-.38 2.08-.97 2.48-2.03C5.17 7.43 7.99 6 10.84 6Z" fill="#B1CB36"/></svg>