<!-- by TradingView --><svg width="18" height="18" viewBox="0 0 18 18" xmlns="http://www.w3.org/2000/svg"><path fill="#F0F3FA" d="M0 0h18v18H0z"/><path d="M7 8v7h4V8H7ZM4.84 5c-.28.01-.84.26-.84 1.16.02.28.2.84.84.84.8 0 .64-1 .43-1-.21 0-.52 0-.52.42-.08-.03-.25-.15-.25-.42 0-.33.14-.54.54-.54.39 0 .96 1.02 1.1 1.54h5.71c.15-.52.72-1.5 1.11-1.5.4 0 .56.17.56.5 0 .27-.19.39-.27.42 0-.42-.3-.42-.52-.42-.2 0-.37 1 .43 1 .63 0 .82-.56.84-.84 0-.9-.56-1.15-.84-1.16H4.84Z" fill="#B5BCC4"/><path fill="#202020" d="M4 4h10v.5H4zM6 7h6v1H6zM6.5 9h5v.7h-5z"/><path opacity=".5" d="M7 10h4v5H7v-5Z" fill="#202020"/></svg>