<!-- by TradingView --><svg width="18" height="18" viewBox="0 0 18 18" xmlns="http://www.w3.org/2000/svg"><path fill="#181B1E" d="M0 0h18v18H0z"/><path d="M8.92 8.29c0 .36.24.88.36 1.1-.52.06-1.2-1.28-1.47-1.96 1.08-.73 3.6-1.83 5-.35 1.4 1.49 1.28 2.55 1.04 2.9a4.32 4.32 0 0 0-3.35-2.64c-.87 0-1.58.49-1.58.95Z" fill="url(#a)"/><path d="M8.6 8.2c0 .67.58 1.04.87 1.14l-1.35.84-.94-2.24L9.8 5.5c.16-.08.73-.18 1.76.1a1.6 1.6 0 0 1 1.26 1.52 3.97 3.97 0 0 0-1.89-.46c-1.14 0-2.34.73-2.34 1.55Z" fill="url(#b)"/><path d="M8.16 8.11c0 .92 1 1.18 1.51 1.2-.05.12-.18.36-.33.42-.18.09-2.37-.22-2.31-2.23.05-1.6 2.1-2.4 2.1-2.4s1.06-.3 1.91-.19c.46.06.87.44.87.44S8.16 6.97 8.16 8.1Z" fill="url(#c)"/><path d="M12.1 10.05c0-1.33-1.26-1.89-1.9-2 .16.28.47.9.48 1.14.01.24-1.95 1.94-2.93 2.76.12.68.37 2.05.43 2.05 2.61-.27 3.92-2.29 3.92-3.95Z" fill="url(#d)"/><path d="M10.23 8.05c-.38 0-.67.24-.74.33l.74.18.23.84-4.33 1.13-1.19 1.2a5.1 5.1 0 0 0 2.52.7c2.76 0 3.93-1.86 3.93-2.81s-.7-1.57-1.16-1.57Z" fill="url(#e)"/><path d="M7.88 11.2c2.03 0 2.81-1.22 2.95-1.83-.38.12-1.32.4-2.07.55-.76.15-2.42-1.25-3.16-1.97l-1.6.6c.08.92 1.33 2.65 3.88 2.65Z" fill="url(#f)"/><path d="m5.67 5.36 1.37.9.7 2.96 2.14.47c.15-.2.5-.67.74-.88.62 1-.37 1.8-2.25 1.8-1.71 0-3.32-2.08-3.32-3.43 0-1.07.4-1.66.62-1.82Z" fill="url(#g)"/><path d="M10 8.96c0-.33-.35-.52-.52-.58.21 0 1.15-.05 1.15.65 0 .7-.73 1.06-1.5 1.06-.78 0-2.64-.36-2.64-2.55C6.5 5.79 7.86 4.45 8.55 4l.93 1.02c-.62.38-1.86 1.42-1.86 2.63 0 1.5 1.22 1.72 1.5 1.72.3 0 .88 0 .88-.41Z" fill="url(#h)"/><defs><linearGradient id="a" x1="14" y1="9.39" x2="8.37" y2="8.33" gradientUnits="userSpaceOnUse"><stop stop-color="#0B162E"/><stop offset="1" stop-color="#0E1F3F"/></linearGradient><linearGradient id="b" x1="12.33" y1="6.12" x2="8.53" y2="8.75" gradientUnits="userSpaceOnUse"><stop stop-color="#314C80"/><stop offset="1" stop-color="#2789AE"/></linearGradient><linearGradient id="c" x1="11.67" y1="4.88" x2="8.47" y2="9.13" gradientUnits="userSpaceOnUse"><stop stop-color="#495585"/><stop offset="1" stop-color="#52D2D1"/></linearGradient><linearGradient id="d" x1="10.7" y1="8.18" x2="8.95" y2="14.01" gradientUnits="userSpaceOnUse"><stop stop-color="#0F5A7B"/><stop offset="1" stop-color="#05171E"/></linearGradient><linearGradient id="e" x1="5.15" y1="11.9" x2="11.55" y2="8.52" gradientUnits="userSpaceOnUse"><stop stop-color="#1D4A46"/><stop offset="1" stop-color="#4BD4D7"/></linearGradient><linearGradient id="f" x1="4.16" y1="8.54" x2="10.69" y2="10.7" gradientUnits="userSpaceOnUse"><stop stop-color="#2B5D5D"/><stop offset="1" stop-color="#6BFFE9"/></linearGradient><linearGradient id="g" x1="5.8" y1="5.36" x2="6.96" y2="9.45" gradientUnits="userSpaceOnUse"><stop stop-color="#3D8781"/><stop offset="1" stop-color="#6BFFE9"/></linearGradient><linearGradient id="h" x1="8.56" y1="4" x2="9.91" y2="9.67" gradientUnits="userSpaceOnUse"><stop stop-color="#466076"/><stop offset=".74" stop-color="#6AFFE8"/></linearGradient></defs></svg>