<!-- by TradingView --><svg width="18" height="18" viewBox="0 0 18 18" xmlns="http://www.w3.org/2000/svg"><path fill="#F0F3FA" d="M0 0h18v18H0z"/><path d="M4.07 8.73c-.4.13-1.23.6-1.23 1.4 0 1.02.96 1.3 1.62 1.3.67 0 .8-.06 2.3-3.09 1.1-2.19.82-1.92.75-1.85l-.02.01-.37-.16a.18.18 0 0 1-.11-.16c0-.1.08-.18.19-.18h1.36l.35 2.8.97-2.8h1.49c.04 0 .08.02.1.05.05.06.03.14-.04.18l-.43.22v4.05l.41.25c.04.03.07.07.07.12 0 .08-.07.14-.15.14H9.66a.14.14 0 0 1-.15-.14c0-.05.03-.1.07-.12l.42-.25V7.05l-1.4 3.96h-.3l-.51-3.96L7 8.98c-.08.18-.15.39-.22.6C6.43 10.67 5.97 12 3.94 12 3.29 12 2 11.63 2 10.24c.1-.6.66-1.75 2.07-1.51ZM14.2 6.16c.03-.04.11-.12.2-.12.09 0 .14.12.16.17l.33.94c.03.08 0 .16-.09.2a.2.2 0 0 1-.23-.05c-.27-.33-.76-.82-1.1-.82-.47 0-.92.5-.92 2.01 0 1.51.53 1.97.93 1.97.35 0 .75-.22 1-.89a.29.29 0 0 1 .36-.17c.12.05.19.16.15.28-.17.53-.68 1.32-1.68 1.32-1.43 0-1.81-1.5-1.81-2.5 0-1.15.72-2.5 1.8-2.5.16 0 .56.03.9.16Z" fill="#721415"/></svg>