<!-- by TradingView --><svg width="18" height="18" viewBox="0 0 18 18" xmlns="http://www.w3.org/2000/svg"><path fill="#F0F3FA" d="M0 0h18v18H0z"/><path fill-rule="evenodd" d="M9 14.65a5.65 5.65 0 1 0 0-11.3 5.65 5.65 0 0 0 0 11.3ZM9 15A6 6 0 1 0 9 3a6 6 0 0 0 0 12Z" fill="#008F4D"/><path d="M8.51 7.5c-1.4-.84-1.58-2.02-1.5-2.5 0 .62.74.9 2.25 1.66 1.24.63 1.57 2.29 1.74 2.91A9.04 9.04 0 0 0 8.51 7.5Z" fill="#008F4D"/><path d="M8.51 9.2c-1.4-.82-1.58-2-1.5-2.49 0 .63.74.91 2.25 1.67 1.24.62 1.57 2.28 1.74 2.9a9.04 9.04 0 0 0-2.49-2.07Z" fill="#008F4D"/><path d="M8.51 10.92c-1.4-.83-1.58-2-1.5-2.5 0 .63.74.91 2.25 1.67 1.24.62 1.57 2.29 1.74 2.91a9.04 9.04 0 0 0-2.49-2.08Z" fill="#008F4D"/></svg>