<!-- by TradingView --><svg width="18" height="18" fill="none" xmlns="http://www.w3.org/2000/svg"><path fill="#F0F3FA" d="M0 0h18v18H0z"/><path fill-rule="evenodd" clip-rule="evenodd" d="M7.69 7.449c-2.797.518-4.825 1.615-4.683 2.611.07.49.652.874 1.564 1.115l.274-.328c-.685-.208-1.116-.514-1.172-.894C3.554 9.15 5.14 8.27 7.397 7.799l.293-.35Zm5.404.3.086-.37c1.054.236 1.737.643 1.813 1.176.103.72-.927 1.492-2.56 2.06l.082-.355c1.18-.465 1.893-1.05 1.812-1.597-.058-.392-.513-.705-1.233-.913Z" fill="#134E92"/><path d="m9.357 10.422.586.683-.45.922 2.036-1.302-2.172-.303Z" fill="#134E92"/><path fill-rule="evenodd" clip-rule="evenodd" d="M4.569 11.174 3.116 13h8.74l.606-2.395c-.22.078-.45.151-.691.22L9.12 12.522l.615-1.258c-.148.022-.297.042-.447.061-.956.12-1.87.158-2.691.125l-.606 1h-.587l.659-1.033a8.73 8.73 0 0 1-1.494-.243Zm.261-.329c.386.148.853.264 1.38.34L10.155 5h-.674l-4.65 5.845Zm1.891.4a11.941 11.941 0 0 0 3.01-.127l-.809-.943 2.861.399c.274-.103.532-.213.77-.33l.67-2.65-.005-.001.048-.193.007.001L13.88 5h-3.373l-3.786 6.245Z" fill="#EC9D27"/></svg>