<!-- by TradingView --><svg width="18" height="18" viewBox="0 0 18 18" xmlns="http://www.w3.org/2000/svg"><path fill="#F0F3FA" d="M0 0h18v18H0z"/><path d="M12.87 4.42a6 6 0 0 1-3.61 10.57H8.17c-.12 0-.2.01-.29-.03-.25-.13-.29-.43-.11-.64.1-.1.22-.12.36-.12h.83a5.2 5.2 0 0 0 3.93-1.77 5.16 5.16 0 0 0-3.02-8.56 5.12 5.12 0 0 0-4.54 1.46A5.24 5.24 0 0 0 3.8 9.11v.82a.4.4 0 0 1-.17.34.4.4 0 0 1-.6-.18.87.87 0 0 1-.03-.26v-.82a6.02 6.02 0 0 1 8.68-5.38c.15.07.35.19.49.27l.19.12c.19.13.36.26.51.4Z" fill="#2B6743"/><path d="M7.97 10H5.38c-.06 0-.15 0-.21-.02-.1-.03-.17-.11-.17-.25V8.3c0-.1.02-.16.04-.2.03-.07.09-.09.19-.09h2.74v-.02A.03.03 0 0 0 8 7.96H8V5.31c0-.1 0-.17.02-.21.04-.09.12-.11.24-.11H9.8c.22 0 .2.13.2.3v2.65c0 .02.05.05.07.05h2.85c0 .02-.02.03-.05.04-2.52.25-3.5 1-4.33 3.56-.16.37-.12.72-.42 1a.19.19 0 0 1-.1.04.03.03 0 0 1-.03-.01l.01-.01v-2.6L7.98 10h-.01Z" fill="#E73A34"/><path d="M10.92 9.75c-.42.2-.77.59-.97 1.01-.1.2-.17.44-.26.67a2.13 2.13 0 0 1-.54.84 2.84 2.84 0 0 1-1.54.7v-.01a.02.02 0 0 1 0-.02c0-.05.1-.1.19-.16.44-.32.74-.8.95-1.3.1-.26.2-.57.32-.82a4.19 4.19 0 0 1 3.81-2.48c-.07.06-.19.14-.26.22-.12.13-.22.27-.3.41-.21.38-.38.78-.48 1.2-.06.22-.09.43-.14.73-.02.15-.08.36-.17.63-.16.49-.44.96-.82 1.3-.51.44-1.16.6-1.82.52-.03 0-.06 0-.08-.02a.02.02 0 0 1-.01-.02v-.01c.52-.4.96-.94 1.16-1.58.07-.22.15-.52.24-.74.14-.37.32-.68.59-.94a1.06 1.06 0 0 1 .14-.12Z" fill="#2B6743"/></svg>