<!-- by TradingView --><svg width="18" height="18" fill="none" xmlns="http://www.w3.org/2000/svg"><path fill="#F0F3FA" d="M0 0h18v18H0z"/><path d="M5.392 6H3l1.792 3.014L3 12h2.392l.832-1.552V7.593L5.392 6ZM8 10h1v2H8v-2ZM8 6h1v2H8V6Z" fill="#0873B8"/><path d="M11.938 6H14v4h2v2h-4.062V6Z" fill="#0673BA"/><path fill-rule="evenodd" clip-rule="evenodd" d="M8.014 10h1.992v2H12V6h-1.994v2H8.014V6H6.009L6 12h2.014v-2Zm-.299 1.7v-2h2.589v2h1.394V6.3h-1.394v2H7.715v-2H6.321v5.4h1.394Z" fill="#000"/></svg>