<!-- by TradingView --><svg width="18" height="18" viewBox="0 0 18 18" xmlns="http://www.w3.org/2000/svg"><path fill="#F0F3FA" d="M0 0h18v18H0z"/><path d="M5.33 5.69 4 7.07l1.33 2.07c-.05-.17-.16-.48-.16-1.04 0-.69.66-1.55 1.5-1.55.83 0 1.66.52 1.66 1.38 0 .86-.33 1.2-.66 1.2a.73.73 0 0 1-.5-.16v-.7c.05.06.2.18.33.18s.17-.35.17-.52c0-.41-.34-.52-.5-.52-.67 0-.84.92-.84 1.38 0 1.9 1.84 2.59 2.34 2.59.4 0 .6-.12.66-.17v1.55c-.53 0-1.27-.4-1.5-.52L9 13.62l.67-.86V7.4c.27-.34 1-.86 1.66-.86.84 0 1.17.17 1.5.52.5.92-.55 1.9-1.33 2.24l.5.52 2-2.76-1.33-1.38h-2v.69H9.33v3.96c0 .28-.44.46-.66.52V6.38h-1.5v-.69H5.33Z"/><path d="M10.67 9.83v1.72l.83-1.03a.88.88 0 0 0-.83-.7ZM11.67 7.41c-.27-.13-.78.18-1 .35v1.03c1.33-.51 1.33-1.2 1-1.38Z"/><path d="M5.05 5h8.05L15 7.03 9 15 3 7.03 5.05 5Zm.12.31L3.4 7.06 9 14.5l5.6-7.44-1.62-1.75H5.17Z"/></svg>