<!-- by TradingView --><svg width="18" height="18" viewBox="0 0 18 18" xmlns="http://www.w3.org/2000/svg"><path fill="#F0F3FA" d="M0 0h18v18H0z"/><path d="m12.54 4 .23 3.25h-.23a4.07 4.07 0 0 0-1.3-2.1 3.27 3.27 0 0 0-2.04-.64 3.4 3.4 0 0 0-1.8.48c-.53.32-.95.84-1.26 1.54-.3.7-.46 1.58-.46 2.63 0 .87.15 1.62.44 2.25.29.64.72 1.12 1.3 1.46.58.34 1.25.5 2 .5.65 0 1.22-.12 1.72-.39a5.6 5.6 0 0 0 1.63-1.58l.23.14a5.1 5.1 0 0 1-1.75 1.87c-.67.4-1.47.59-2.39.59a4.58 4.58 0 0 1-3.84-1.76A4.9 4.9 0 0 1 4 9.14c0-.95.22-1.82.67-2.62a4.72 4.72 0 0 1 1.84-1.86 5.16 5.16 0 0 1 4.71-.15c.21.1.36.15.45.15a.5.5 0 0 0 .34-.13c.13-.13.22-.3.28-.53h.25Z"/></svg>