<!-- by TradingView --><svg width="18" height="18" viewBox="0 0 18 18" xmlns="http://www.w3.org/2000/svg"><path fill="#F0F3FA" d="M0 0h18v18H0z"/><path d="M6.25 8.37h.85c-.04-.22-.11-.41-.22-.58a1.52 1.52 0 0 0-.43-.43c-.18-.12-.38-.2-.6-.27a2.73 2.73 0 0 0-1.81.15A1.83 1.83 0 0 0 3 9c0 .42.1.78.28 1.08.18.3.43.52.76.68.32.16.68.24 1.09.24.28 0 .53-.03.76-.1a2 2 0 0 0 .59-.3c.17-.12.3-.26.41-.42.1-.16.18-.34.2-.52h-.84a.77.77 0 0 1-.14.3.9.9 0 0 1-.25.22c-.1.06-.2.11-.33.14a1.6 1.6 0 0 1-1.06-.1c-.2-.11-.35-.26-.46-.47-.1-.2-.16-.45-.16-.75s.05-.54.16-.74c.11-.2.27-.36.46-.47a1.53 1.53 0 0 1 1.07-.11c.12.03.24.08.33.15.1.06.18.14.24.23.07.09.11.19.14.3ZM9.44 11H8V7h1.47c1.24 0 2.03.83 2.03 2 0 1.18-.8 2-2.06 2Zm-.74-.67h.7c.89 0 1.4-.52 1.4-1.33 0-.8-.5-1.33-1.38-1.33H8.7v2.66Zm3-2.66V7H15v.67h-1.3V11H13V7.67h-1.3Z"/></svg>