<!-- by TradingView --><svg width="18" height="18" viewBox="0 0 18 18" xmlns="http://www.w3.org/2000/svg"><path fill="#F0F3FA" d="M0 0h18v18H0z"/><path d="M9.18 6.1c.49-.13.98-.18 1.48-.16 1.14.05 2.29.62 2.83 1.67a3.84 3.84 0 0 0-2.39-.87c-.79-.01-1.54.12-2.27.42-.63.25-1.64.97-1.17 1.76.1.16.27.3.52.4.14.06.36.13.65.17a43.1 43.1 0 0 0-4.36.9l.93-5.37L9.9 5c.75 0 1.27.03 1.56.1 1.03.2 1.96.8 2.54 1.71a4.08 4.08 0 0 0-2.72-1.07 5.2 5.2 0 0 0-2.1.36Z" fill="#FCA129"/><path d="M11.66 7c.88.26 1.66.88 1.76 1.86a.05.05 0 0 1-.01.04.06.06 0 0 1-.04.02L11 9.17c.4-.18.81-.4 1.07-.77.26-.38.27-.75.01-1.08-.09-.12-.29-.23-.42-.32Z" fill="#FCA129"/><path d="M6.79 10.7c.08.25.2.46.37.65.53.6 1.28.9 2.06 1 1.06.15 2.1-.04 3.11-.58a5.2 5.2 0 0 1-2.08 1.1c-.33.09-.9.13-1.74.13-2.93 0-4.44-.03-4.51-.03l.38-2.25c0-.03.02-.05.05-.06l.32-.1c2.7-.57 5.54-.94 8.45-1.14a2.87 2.87 0 0 1-.93 1.51 4.31 4.31 0 0 1-4.4.7c-.45-.2-.82-.5-1.08-.93Z" fill="#00519F"/></svg>