<!-- by TradingView --><svg width="18" height="18" viewBox="0 0 18 18" xmlns="http://www.w3.org/2000/svg"><path fill="#F0F3FA" d="M0 0h18v18H0z"/><path d="M14.64 8.48v-.05c.04-.19.06-.31.06-.38-.06-1.72-1.62-2.89-3.23-3.37-2.35-.7-5.3-.46-7.17 1.22a2.9 2.9 0 0 0-1.03 2.3c0 .08.03.12.1.12v.05h-.41l.02-.03a3.24 3.24 0 0 1 1-2.63c1.86-1.8 5.16-2.03 7.53-1.38 1.6.44 3.05 1.4 3.45 3 .05.2.07.56.05 1.09 0 .04-.02.06-.06.06-.1.02-.2.02-.31 0Z" fill="#060505"/><path d="m14.63 8.43-1.02.02c-.02 0-.04 0-.05.02a.12.12 0 0 0-.04.03l-.5.65-.03.03h-.04s-.02 0-.03-.02l-.02-.03c-.05-.2-.12-.37-.18-.53-.1-.2-.23-.22-.47-.22a18.66 18.66 0 0 0-1.28.04l-.1-.02c.33-2.14-3.93-2.08-3.75-.23 0 .06-.01.12-.05.16a.23.23 0 0 1-.15.08c-.08.01-.14.06-.16.15l-.07.35.01.07.04.03.28.04a.11.11 0 0 1 .08.05.1.1 0 0 1 0 .09.28.28 0 0 0 .03.24L7 10.3a.1.1 0 0 1-.04.06.1.1 0 0 1-.07.02.7.7 0 0 0-.36.07.1.1 0 0 0-.07.09l-.02.28c-.04.03-.02.06.05.11l.47.34a.2.2 0 0 0 .11.04l.33.02v.3c0 .04-.01.06-.05.06H4.39a.14.14 0 0 1-.1-.04.67.67 0 0 1-.17-.33h1.12c.54 0 .75-.15.98-.56.28-.55.4-1.34 0-1.86-.18-.23-.42-.4-.72-.5a.32.32 0 0 0-.17-.06c-.65-.03-1.3-.04-1.96-.02-.07 0-.1-.04-.1-.13A2.9 2.9 0 0 1 4.3 5.9c1.88-1.67 4.82-1.91 7.17-1.2 1.61.47 3.17 1.64 3.23 3.36 0 .07-.02.19-.07.38Z" fill="#E8B22B"/><path d="M10.86 8.4v.08c-.05.12-.08.25-.1.4 0 .09.03.14.08.16l.01.07-.1 1.3-.22.05c.02 0 .02 0-.03-.02l.1-1.2c0-.23-.02-.4-.1-.5-.5-.68-1.64-.7-2.39-.47a.7.7 0 0 0-.2.13.16.16 0 0 1-.1.04h-.83c-.12 0-.2.05-.21.17l-.03.17c-.02.12.04.2.17.2l.25.03c.04 0 .06.03.05.07l-.08.35a.28.28 0 0 1-.02-.24.1.1 0 0 0-.01-.1.11.11 0 0 0-.08-.05l-.28-.03-.04-.03a.15.15 0 0 1-.01-.07c0-.04.02-.16.07-.35.02-.09.08-.14.16-.15.06 0 .11-.03.15-.08.04-.04.06-.1.05-.16-.18-1.85 4.08-1.9 3.74.23Z" fill="#060505"/><path d="M7.58 8.28a.78.78 0 0 1-.12.06.06.06 0 0 1-.05 0l-.02-.01V8.3c-.12-.73.41-1.09 1.13-1.22.6-.1 1.18 0 1.7.31.22.13.35.32.39.56l.05.34c.03.2-.03.24-.19.1-.77-.7-2.03-.65-2.9-.11Z" fill="#848489"/><path d="m2.99 8.34-.03.04c-.22 0-.5-.05-.57.21-.02.06-.03.06-.03 0 0-.1.03-.18.07-.23a.12.12 0 0 1 .05-.04h.06l.45.02Z" fill="#0D4B94"/><path d="M5.5 8.4s0 .02-.02.03a.86.86 0 0 0-.33-.05H3.38l-.01-.06c.65-.02 1.3-.01 1.96.02.07 0 .13.02.17.06Z" fill="#848489"/><path d="M5.5 8.4c.3.1.54.27.71.5.41.52.3 1.31 0 1.86-.22.41-.43.57-.97.56H4.12c-.14 0-.22.03-.25.08 0-.03-.03-.05-.07-.05-.04 0-.07.01-.08.05-.06-.07-.14-.1-.25-.07l-.7-.02a.2.2 0 0 1-.1-.03l-.62-.43a.11.11 0 0 1-.05-.1.8.8 0 0 1 .1-.38c.04-.07.1-.09.18-.07.04.01.05.03 0 .05-.15.07-.22.16-.22.28 0 .05.02.08.05.11.03.03.07.05.11.05l2.5.01c.3 0 .54-.05.7-.14.45-.27.62-1.21.53-1.67-.04-.22-.2-.4-.47-.56a.11.11 0 0 0 .02-.03ZM10.5 10.44c.05.02.05.03.03.02l-.08.3a.16.16 0 0 1-.06.08c-.13.1-.2.26-.32.34-.17.1-.38.15-.62.15-.47-.02-1.09-.02-1.84-.01l-.2.01-.34-.02a.2.2 0 0 1-.1-.04l-.48-.34c-.07-.05-.09-.08-.05-.1.87.02 1.75.03 2.62.03.36 0 .66-.08.87-.36.22-.28.18-.57-.1-.87-.04-.03-.03-.06 0-.1.34-.24.37-.63.05-.9-.12-.1-.33-.16-.62-.15a32.61 32.61 0 0 1-1.11-.04c0-.01 0-.02.03-.02.68-.02 1.17-.01 1.46.02.7.1 1.13 1 .56 1.46-.03.02-.04.05-.02.1l.25.46c.03.01.05 0 .07-.02Z" fill="#0D4B94"/><path d="M14.63 8.43v.05l-.92.02a.22.22 0 0 0-.18.08l-.56.74c-.02.03-.04.03-.05 0l-.25-.66c-.05-.15-.16-.22-.32-.22l-1.49.04a.11.11 0 0 0 0-.08l.1.02h.12l1.17-.04c.24 0 .38.01.47.22a4.5 4.5 0 0 1 .2.56l.03.02H13l.03-.03.5-.65a.12.12 0 0 1 .04-.03l.05-.02 1.02-.02Z" fill="#848489"/><path d="m15.63 8.87-.01-.3c0-.07.01-.08.06-.02l.28.34c.03.04.05.09.04.13l-.05.27c0 .06-.04.08-.1.07-.21-.03-.33.03-.35.17l-.16.92c-.01.04-.04.06-.08.06l-.32-.05c-.04 0-.06-.03-.05-.07l.2-1.24a.13.13 0 0 1 .07-.1.15.15 0 0 1 .11-.01c.1.02.19.02.25 0s.1-.07.1-.17Z" fill="#0D4B94"/><path d="M2.34 10.5c.27.02.42-.06.47-.34l.18-1.22c0-.04 0-.09-.03-.13a.19.19 0 0 0-.11-.07l-.23-.06c-.06-.02-.07-.04-.03-.09l.02-.02a51.44 51.44 0 0 0 2.42 0c.5-.01.77.17.76.66-.01.67-.15 1.44-1.06 1.42-.84-.03-1.64-.03-2.42-.01-.03 0-.04-.01-.04-.04l.02-.06s0-.02.02-.02l.03-.01ZM9.54 9.48c-.14 0-.15.05-.03.12.3.18.5.45.3.79-.13.2-.33.29-.6.3a178.63 178.63 0 0 1-2.57-.02l-.01-.02a.07.07 0 0 1 .06-.08l.29-.05c.06-.01.1-.04.15-.08a.26.26 0 0 0 .07-.14l.18-1.07c.05-.28-.04-.43-.36-.4a.06.06 0 0 1-.04-.02.06.06 0 0 1-.02-.04v-.1c0-.04.02-.06.06-.06l2.53.01c.06 0 .13.04.21.1.24.22.2.52-.04.72a.2.2 0 0 1-.12.04h-.06ZM12.92 9.67l.7-.93a.19.19 0 0 1 .15-.07h1.6c.07 0 .1.04.1.1l-.02.06a.08.08 0 0 1-.03.05.08.08 0 0 1-.06 0c-.27-.05-.4.07-.45.32-.08.42-.15.81-.2 1.2-.01.03 0 .07.02.1.07.1.2.14.35.12.03 0 .05.01.05.04v.04c0 .02-.01.03-.03.03h-1.67l-.01-.02-.02-.05c0-.01 0-.02.02-.02.25-.04.4-.17.43-.4a10.66 10.66 0 0 1 .13-.9.06.06 0 0 0-.04-.02.15.15 0 0 0-.12.06 47.62 47.62 0 0 0-1.05 1.35.2.2 0 0 1-.09.02c-.1 0-.16-.04-.2-.14A67.7 67.7 0 0 0 12 9.29c-.03-.02-.05-.03-.08-.02a.06.06 0 0 0-.03.02l-.01.03-.17 1.03c-.01.04 0 .08.02.11.06.08.18.1.22.16.01.02.02.04.01.06 0 .03-.02.05-.06.05h-1.18c-.04 0-.06-.02-.04-.06l.01-.05.03-.04h.04c.21-.01.33-.1.36-.26l.2-1.23c.03-.15-.07-.24-.28-.26H11a.08.08 0 0 1-.03-.04v-.08l.04-.05a.1.1 0 0 1 .08-.04h1.3l.06.03a.1.1 0 0 1 .04.05l.36.96v.01l.03.01a.04.04 0 0 0 .04-.01Z" fill="#CE1D20"/><path d="m3.6 10.36.27-1.56c0-.04.03-.06.07-.06h.81c.07 0 .13.02.18.07.05.04.08.1.09.16.04.5-.04.93-.22 1.33-.13.27-.74.23-1.05.22l-.06-.01a.15.15 0 0 1-.08-.1v-.05ZM8.21 8.95a.13.13 0 0 1 .05-.1.14.14 0 0 1 .1-.04h.45c.1 0 .2.04.27.1a.3.3 0 0 1 .1.23v.02c0 .04 0 .08-.02.12a.32.32 0 0 1-.09.1.4.4 0 0 1-.12.07.44.44 0 0 1-.15.03h-.45a.15.15 0 0 1-.1-.05.13.13 0 0 1-.04-.1v-.38Z" fill="#fff"/><path d="M4.82 9.34a.4.4 0 0 0-.26 0 .1.1 0 0 0-.06.09l-.15.93h-.5c-.04-.01-.06-.03-.05-.07l.22-1.32c.01-.05.04-.07.09-.07h.61a.1.1 0 0 1 .1.05c.06.13.07.26 0 .39ZM8.84 9.2c-.15.1-.27.14-.36.13a.11.11 0 0 1-.08-.03.1.1 0 0 1-.02-.08l.03-.16c.01-.07.05-.1.13-.1.07.02.17.02.3.02.05 0 .1 0 .12.02.05.03.06.08.05.13-.01.04-.04.05-.08.06h-.05l-.04.01Z" fill="#0D4B94"/><path d="M11.14 9.15a.27.27 0 0 0-.29-.04v-.07c.05-.07.14-.07.26-.01.07.03.08.07.03.12Z" fill="#848489"/><path d="m11.14 9.15-.2 1.12c-.02.1-.08.14-.18.13l.1-1.29c.1-.04.2-.03.28.04ZM4.82 9.34c.03.57-.13.91-.47 1.02l.15-.93a.1.1 0 0 1 .06-.09.4.4 0 0 1 .26 0Z" fill="#E8B22B"/><path d="M8.2 9.67h.39c.4-.02.56.3.34.62-.12.17-.33.24-.62.2h-.1c-.08 0-.14-.02-.17-.07-.02-.03-.02-.08-.01-.14.03-.19.07-.38.13-.57 0-.02.02-.04.05-.04Z" fill="#fff"/><path d="M14.5 11.35c-.04-.02-.12-.02-.22.01-.05-.07-.1-.07-.18 0a.67.67 0 0 0-.36 0c-.1-.1-.21-.18-.33-.24-.04-.02-.07-.01-.09.03-.07.15-.19.2-.36.18-.22-.05-.39-.24-.55-.32-.05-.03-.06-.01-.05.04l.03.2c.01.04 0 .06-.06.06H11a.18.18 0 0 1-.1-.03l-.28-.2c-.03-.12-.08-.16-.16-.13a.2.2 0 0 1 0-.03c0-.02.02-.03.04-.03h1.52a.09.09 0 0 0 .08-.05c.12-.23.07-.37-.13-.42-.05 0-.07-.03-.07-.08.02-.23.04-.4.07-.5.02-.08.04-.08.07 0l.32.85c.02.06.06.1.1.15a.35.35 0 0 0 .36.04c.06-.02.1-.06.14-.1l.73-.96c.08-.1.1-.1.07.03l-.12.5a.1.1 0 0 1-.03.05.1.1 0 0 1-.04.03l-.2.07a.15.15 0 0 0-.07.03.13.13 0 0 0-.03.06l-.06.2c-.01.06.01.1.08.1h1.87c.04-.01.07-.03.1-.06.05-.07.08-.13.08-.18 0-.17.05-.18.15-.03l.16.21c.13.16.07.25.03.46 0 .03-.03.05-.07.05h-1.1ZM8.62 10.12l-.03.14c0 .02-.01.03-.03.05a.1.1 0 0 1-.05.02h-.23c-.05 0-.07-.02-.06-.07l.06-.35c0-.04.04-.07.08-.07h.35c.05.01.09.04.11.08l.03.07c.01.04 0 .07-.05.08h-.1c-.05-.01-.07 0-.08.05Z" fill="#0D4B94"/><path d="m10.61 11.09-.07.48v.03l.01.02.03.02h3l.04-.04c.06-.08.1-.16.12-.24a.67.67 0 0 1 .36 0c-.23.32-.32.68-.26 1.05 0 .05.02.05.03 0l.4-1.05c.11-.03.19-.03.24-.01l-.63 1.6-.02.02-.04.03h-3.37c-.04 0-.06-.03-.06-.07-.12-.65-.1-1.32.06-1.98.08-.03.13.01.16.14Z" fill="#060505"/><path d="M13.74 11.36a.57.57 0 0 1-.12.24.12.12 0 0 1-.04.03.13.13 0 0 1-.06.01h-2.94l-.03-.02a.06.06 0 0 1-.01-.05l.07-.48.27.19c.03.02.07.03.11.03h1.34c.05 0 .07-.02.06-.07l-.03-.2c-.01-.04 0-.06.05-.03.16.08.33.27.55.32.17.03.29-.03.36-.18.02-.04.05-.05.09-.03.12.06.23.14.33.24Z" fill="#E8B22B"/><path d="m3.72 11.4.33.92c.06.18.1.17.12-.01a1.4 1.4 0 0 0-.3-.91c.03-.05.11-.08.25-.08.03.14.09.25.17.33.02.02.06.04.1.04h2.96c.04 0 .06-.02.06-.06v-.3l.2-.01.06.38c.02.14.03.26.02.39l-.08.86c0 .03-.02.05-.06.05H4.2a.1.1 0 0 1-.1-.06 8.84 8.84 0 0 1-.63-1.61c.1-.02.2 0 .25.07Z" fill="#060505"/><path d="m14.28 11.36-.4 1.05c-.02.05-.04.05-.04 0-.06-.37.03-.73.26-1.05.07-.07.13-.07.18 0ZM3.87 11.4c.22.32.32.62.3.9-.02.2-.06.2-.12.02l-.33-.92c.01-.04.04-.05.08-.05s.07.02.07.05ZM7.35 11.93H4.43a.07.07 0 0 0-.07.06v.66c0 .04.03.07.07.07h2.91c.04 0 .07-.02.07-.06V12a.07.07 0 0 0-.06-.07ZM10.57 12.65l-.02-.65v-.03l.02-.02a.07.07 0 0 1 .04-.01h2.96l.04.01c.02.01.02.03.02.05v.65c0 .02 0 .03-.02.04a.07.07 0 0 1-.04.02h-2.93c-.02 0-.03 0-.05-.02a.06.06 0 0 1-.02-.04Z" fill="#848489"/></svg>