<!-- by TradingView --><svg width="18" height="18" viewBox="0 0 18 18" xmlns="http://www.w3.org/2000/svg"><path fill="#F0F3FA" d="M0 0h18v18H0z"/><path d="M9.35 4.1v.55h.11a4.57 4.57 0 0 1 3.21 1.84l-.65.38H12a3.8 3.8 0 0 0-6.08.04l-.66-.37a4.57 4.57 0 0 1 3.38-1.89v-.54H8.58a5.04 5.04 0 0 0-3.8 2.15l-.75-.42v-.01a6 6 0 0 1 4.6-2.59h.01V2h.71v1.24a5.96 5.96 0 0 1 4.56 2.55l-.74.42h-.01a5.09 5.09 0 0 0-3.8-2.11ZM9 5.85a3.15 3.15 0 0 1 3.2 2.92H5.79a3.15 3.15 0 0 1 3.19-2.92Zm1.45 1.19A2.4 2.4 0 0 0 9 6.57h-.03c-.54 0-1 .15-1.44.47h2.91Zm-3.59.77c-.06.09-.1.14-.14.27H11.27c-.06-.14-.1-.2-.16-.3l-.04-.05H6.91l-.06.08Zm6.78 3.42-.49-.27a4.41 4.41 0 0 0-.02-3.73l-.66.38a3.7 3.7 0 0 1-3.1 5.22v.75a4.57 4.57 0 0 0 3.35-1.88l.48.27v.01a5.13 5.13 0 0 1-3.83 2.16v.85a6 6 0 0 0 4.59-2.59l.61.36.44-.74-.61-.35v-.01a5.8 5.8 0 0 0-.03-5.13l-.76.42a4.95 4.95 0 0 1 .03 4.28Zm-8.82.8a5.13 5.13 0 0 0 3.69 2.1l.14.01V15a5.97 5.97 0 0 1-4.6-2.55l-.6.35h-.01L3 12.07l.61-.36a5.8 5.8 0 0 1-.02-5.13l.75.42a4.95 4.95 0 0 0-.46 1.97v.38a4.95 4.95 0 0 0 .5 1.93l.47-.27a4.4 4.4 0 0 1-.02-3.72l.66.37a3.7 3.7 0 0 0 2.97 5.15 8.08 8.08 0 0 0 .19.03v.74a4.7 4.7 0 0 1-3.36-1.83l-.48.27Zm7.37-2.57H5.79a3.16 3.16 0 0 0 3.2 2.93c.57 0 1.14-.16 1.63-.45a3.16 3.16 0 0 0 1.56-2.48Zm-1.05.97-.05.07h-4.2l-.02-.05c-.07-.1-.1-.15-.16-.3h4.58c-.06.13-.09.19-.15.28Zm-2.16 1.23a2.4 2.4 0 0 1-1.44-.47h2.91c-.43.32-.9.47-1.44.47h-.03Z" fill="#0063A7"/></svg>