<!-- by TradingView --><svg width="18" height="18" viewBox="0 0 18 18" xmlns="http://www.w3.org/2000/svg"><path fill="#F0F3FA" d="M0 0h18v18H0z"/><path d="m9.35 3 .01 7.87c0 .03-.02.07-.05.1a.18.18 0 0 1-.1.03h-.43a.18.18 0 0 1-.11-.04.13.13 0 0 1-.05-.1L8.63 3h.72Z" fill="#DF2426"/><path d="m7.47 13.85-.01.05c0 .02-.02.04-.03.05a.13.13 0 0 1-.04.04.11.11 0 0 1-.05.01h-2.3c-.02 0-.04-.02-.04-.05v-.13c0-.08.04-.1.1-.1.26.07.5.07.74.01.08-.02.16-.13.16-.34V5.61c0-.2-.09-.32-.17-.34a1.48 1.48 0 0 0-.73 0c-.07.02-.1 0-.1-.09v-.12c0-.04.02-.06.05-.06h2.29l.05.01.04.04.03.05v8.75ZM12 13.4c0 .2.08.31.15.33.24.06.48.06.74 0 .07-.02.1.01.1.1v.12c0 .03-.01.05-.04.05h-2.3l-.06-.01a.13.13 0 0 1-.04-.03.16.16 0 0 1-.03-.05 1416.54 1416.54 0 0 0 0-8.81l.03-.06a.13.13 0 0 1 .05-.03l.05-.01h2.3c.03 0 .05.02.05.06v.12c0 .08-.03.11-.1.1a1.5 1.5 0 0 0-.74 0c-.08.01-.16.13-.16.33v7.79Z" fill="#232021"/></svg>