<!-- by TradingView --><svg width="18" height="18" viewBox="0 0 18 18" xmlns="http://www.w3.org/2000/svg"><path fill="#F0F3FA" d="M0 0h18v18H0z"/><path d="m9.13 3 4.8 3.52.04.06a.16.16 0 0 1 0 .13.13.13 0 0 1-.05.05L11.01 8.9c-.11.08-.11.15 0 .23l2.93 2.08c.02.01.04.03.04.05a.15.15 0 0 1 0 .13.14.14 0 0 1-.04.05l-4.77 3.5a.3.3 0 0 1-.36 0L4 11.41v-.2l2.92-2.1c.12-.08.12-.16 0-.24L4 6.76v-.18L8.85 3h.28Zm1.3 3.58c0-.05-.02-.08-.05-.1L9.15 5.6a.26.26 0 0 0-.3-.01c-.33.19-.74.46-1.23.83-.09.06-.13.12-.13.16 0 .05.05.1.13.16.5.36.9.64 1.25.82.1.06.2.05.29-.01.4-.28.8-.58 1.22-.9.03-.02.05-.04.05-.07Zm-2.94 2.4c0 .03.02.05.05.07L8.8 10c.1.07.2.07.3.02.36-.2.79-.48 1.3-.85.1-.07.15-.12.15-.17 0-.04-.05-.1-.14-.17-.51-.38-.94-.68-1.29-.88a.26.26 0 0 0-.3.01l-1.29.92c-.03.02-.05.05-.05.1Zm.07 2.42c0 .04.01.08.05.1l1.22.9c.1.06.2.07.3.01.33-.19.74-.46 1.23-.82.1-.07.14-.12.14-.16 0-.05-.05-.1-.14-.17-.48-.36-.9-.64-1.23-.83a.25.25 0 0 0-.3.01l-1.22.89c-.04.02-.05.04-.05.07Z" fill="#003876"/></svg>