<!-- by TradingView --><svg width="18" height="18" viewBox="0 0 18 18" xmlns="http://www.w3.org/2000/svg"><path fill="#F8AB50" d="M0 0h18v18H0z"/><ellipse cx="9" cy="9" rx="7" ry="5" fill="#2C79BC"/><path d="m2.97 10.93-.53-1.18c-.1-.4-.13-.83-.08-1.25.06-.51.24-1.01.54-1.49a4.5 4.5 0 0 1 1.05-1.17 6 6 0 0 1 1.72-1 8.2 8.2 0 0 1 2.95-.59 9.48 9.48 0 0 1 3.75.67c.46.2.89.42 1.27.69.6.4 1.08.9 1.43 1.43.3.44.49.91.57 1.4a3.36 3.36 0 0 1-.36 2.25c-.34.64-.86 1.2-1.55 1.68a8.08 8.08 0 0 1-3.09 1.2 9.3 9.3 0 0 1-5.57-.81 5.97 5.97 0 0 1-2.1-1.83Zm6.6-6.2-.14-.1a.1.1 0 0 0-.14.03.1.1 0 0 0-.01.05c0 .1.02.2.05.29 0 .03.03.04.05.04a10.44 10.44 0 0 0 .8-.1c.02-.03.02-.06 0-.1a.08.08 0 0 0-.06-.03l-.5-.06-.04-.02Zm-.62.23V4.7a.06.06 0 0 0-.03-.04.06.06 0 0 0-.04-.02h-.01a4.44 4.44 0 0 0-.66.08.9.9 0 0 0-.2.07c-.05.02-.07.05-.07.07 0 .02.03.05.07.07a2.76 2.76 0 0 0 .87.08h.01A.06.06 0 0 0 8.93 5a.06.06 0 0 0 .02-.04Zm-4.32.87.85.35a.21.21 0 0 0 .24-.05l.67-.76c.11-.14.28-.22.4-.32.26-.22.22-.28-.1-.18-.15.04-.33.1-.47.16-.45.2-.88.3-1.32.61-.1.06-.19.08-.27.11l-.02.02a.04.04 0 0 0 0 .05l.02.01Zm8.78.18c.06-.02.06-.06 0-.12a.1.1 0 0 0-.02-.02c-.45-.26-.86-.53-1.3-.66-.28-.09-.5-.2-.81-.29-.1-.03-.12 0-.04.07.15.14.35.24.48.39.3.34.55.64.7.9l.07.06h.09c.34-.17.62-.28.83-.33Zm-7.25.03c-.05.06-.14.11-.17.2a.1.1 0 0 0 .02.1l.03.02a8.36 8.36 0 0 0 1.81.42 18.3 18.3 0 0 1 .96.1.13.13 0 0 0 .08-.08l.01-.06V5.51a.12.12 0 0 0-.03-.08.11.11 0 0 0-.07-.04 65.2 65.2 0 0 0-.38-.05c-.25-.03-.52-.14-.81-.24-.2-.06-.29-.03-.45.08-.46.3-.8.6-1 .86Zm5.3-.43c-.2-.17-.56-.55-.85-.45-.34.13-.68.2-1.04.2-.21.02-.32.12-.32.33a28.94 28.94 0 0 0 .02 1.14.1.1 0 0 0 .06.05 19.83 19.83 0 0 0 1.69-.14c.3-.04.64-.2.98-.18a.06.06 0 0 0 .05-.02c.06-.08.06-.16 0-.22a7.03 7.03 0 0 1-.29-.37 2.05 2.05 0 0 0-.3-.34Zm-7.01.46c-.26-.05-.38.11-.59.32-.2.2-.35.37-.45.5a3.45 3.45 0 0 0-.72 1.75.08.08 0 0 0 .03.05.07.07 0 0 0 .05.01c.2-.02.37-.03.5-.02l1.47.05c.04 0 .07-.01.1-.03a.13.13 0 0 0 .03-.1c.06-.69.24-1.32.54-1.9a.13.13 0 0 0 0-.1.13.13 0 0 0-.05-.07 3.79 3.79 0 0 0-.64-.31c-.09-.04-.2-.13-.27-.15Zm10.8 2.07c-.14-.4-.3-.73-.55-1.05-.2-.26-.79-.96-1.01-.86l-.86.36c-.12.05-.15.14-.1.27.18.37.3.88.37 1.15.03.1.04.2.05.33.02.17 0 .48.19.5.24.03.53.03.88.02.35-.02.7.03 1.07.02.02 0 .04 0 .05-.02a.07.07 0 0 0 .02-.04c0-.22-.04-.45-.12-.68Zm-9.99.04c-.05.14-.08.3-.09.46a5.33 5.33 0 0 0 .5 2.33c.04.1.1.12.2.1.26-.08.46-.16.77-.2.17-.01 2.01-.37 2.18-.4 0 .1-.84.6-.84.6a13.87 13.87 0 0 0-2 .39.1.1 0 0 0-.03.08l.02.04c.42.53.74.91 1.3 1.2.04.03.1.03.16 0 .32-.12.68-.22 1.07-.28.13-.02.19 0 .28.03a.07.07 0 0 0 .06-.01.07.07 0 0 0 .03-.06v-1.28a.1.1 0 0 0-.03-.06.1.1 0 0 0-.06-.03l-.8-.02c.37-.57 1.39-.4 2-.4.17 0 .4.03.68.11.24.06.51.07.73.13a4.17 4.17 0 0 1 .89.3c.01 0 .03 0 .04-.02a.09.09 0 0 0 .04-.06c.2-.54.33-.8.46-1.18a.4.4 0 0 0 0-.3c.1-.24.13-.5.08-.8a79.25 79.25 0 0 1-.16-1.06 9.72 9.72 0 0 1-.31-.85c-.04-.12-1.48.1-1.65.22-.6.08-1.17.13-1.7.13-.18 0-.41-.03-.7-.08-.52-.1-.94-.01-1.43-.02l.43-.04V7.1h-.02c-.44 0-1.02-.25-1.44-.38a.17.17 0 0 0-.13.01.18.18 0 0 0-.08.1l-.37.95c-.04.12-.07.25-.08.4Zm-1.6.86c-.27-.02-.62.02-.94 0a.06.06 0 0 0-.05.02.06.06 0 0 0-.01.06c.06.23.1.42.12.57.02.15.07.3.14.44.26.5.46.82.6.97.04.05.22.23.55.52.1.09.19.11.3.05a4.32 4.32 0 0 1 .94-.4.14.14 0 0 0 .05-.12c0-.02 0-.04-.02-.06a6.15 6.15 0 0 1-.47-1.89c-.01-.08-.07-.13-.18-.13l-1.04-.03Zm9.18 2.34c.25.11.46.2.68.34.23.13.45.08.65-.14.2-.22.4-.44.56-.65.33-.4.67-1.14.62-1.68 0-.03-.02-.05-.06-.05a18.2 18.2 0 0 0-1.9.01c-.07 0-.12.02-.13.04-.12.15-.1.6-.16.83-.12.44-.23.81-.34 1.11-.03.1 0 .16.08.2Zm-1.77 1.3c.5-.43.81-.72.93-.86.04-.04.07-.1.08-.2v-.07a.12.12 0 0 0-.07-.06c-.49-.21-.94-.25-1.66-.37a4.32 4.32 0 0 0-1.15-.01.08.08 0 0 0-.02.05v1.24c0 .03 0 .06.03.09.02.02.05.03.08.03.43.02.83.1 1.22.25.25.1.36.08.56-.09Zm-5.2-.71a2.13 2.13 0 0 1-.25-.31.11.11 0 0 0-.06-.05.33.33 0 0 0-.25.02 5.66 5.66 0 0 1-.7.3.08.08 0 0 0-.01.08l.03.03c.27.17.59.35.93.54.08.05.24.1.47.17.26.07.52.22.78.28.05.01.08 0 .1-.02a.06.06 0 0 0 .01-.05.06.06 0 0 0-.03-.04c-.17-.07-.34-.2-.53-.36-.2-.16-.33-.42-.5-.59Zm5.87.58c-.13.14-.26.25-.37.31-.2.11-.18.17.04.18l.23-.07a9.3 9.3 0 0 0 1.79-.86l.02-.03a.09.09 0 0 0-.02-.08.08.08 0 0 0-.04-.03l-.84-.3a.08.08 0 0 0-.09.03 7.7 7.7 0 0 1-.72.85Zm-3.21.69c.07 0 .17.07.23.1a.05.05 0 0 0 .07-.01l.01-.02a.81.81 0 0 0-.02-.4c0-.02-.02-.03-.05-.02-.15.04-.37.06-.66.06a.5.5 0 0 0-.3.1l-.01.02a.05.05 0 0 0 .01.05l.02.01c.17.05.4.08.7.1Zm.63-.21v.18a.08.08 0 0 0 .03.06.08.08 0 0 0 .05.02h.01c.27-.01.52-.04.7-.08.2-.04.3-.1.3-.14 0-.04-.12-.08-.3-.1a4.4 4.4 0 0 0-.71-.02h-.01a.07.07 0 0 0-.05.02.08.08 0 0 0-.02.06Z" fill="#EEF9F7"/><path d="M8.95 4.96a.06.06 0 0 1-.02.04.06.06 0 0 1-.04.02h-.01A4.44 4.44 0 0 1 8.22 5a.9.9 0 0 1-.2-.05c-.05-.02-.08-.05-.08-.07 0-.02.02-.05.07-.07a2.76 2.76 0 0 1 .86-.14h.01a.06.06 0 0 1 .04 0 .06.06 0 0 1 .02.05v.25ZM5.48 6.18l-.85-.35-.02-.01a.04.04 0 0 1 0-.05l.02-.02c.08-.03.18-.05.27-.1.44-.32.87-.43 1.32-.62.14-.07.32-.12.47-.16.32-.1.36-.04.1.18-.12.1-.29.18-.4.32l-.67.76a.21.21 0 0 1-.24.06Z" fill="#1291D8"/><path d="M13.4 6c-.2.06-.48.17-.82.33a.11.11 0 0 1-.15-.04c-.16-.27-.4-.57-.7-.91-.14-.15-.34-.25-.49-.39-.08-.07-.07-.1.04-.07.3.1.53.2.82.29.43.13.84.4 1.29.66l.02.02c.06.06.06.1 0 .12ZM6.16 6.04c.2-.26.54-.55 1-.86.16-.1.25-.14.45-.08.3.1.56.2.81.24l.38.05c.03 0 .06.01.07.04.02.02.03.05.03.08v1.23a.14.14 0 0 1-.04.1.13.13 0 0 1-.1.04 18.3 18.3 0 0 0-.9-.1 8.36 8.36 0 0 1-1.84-.44.1.1 0 0 1-.04-.07.1.1 0 0 1 .01-.03c.03-.09.12-.14.17-.2ZM10.61 5.16c.3-.1.64.28.85.45.08.06.19.18.3.34l.3.37c.05.06.05.14 0 .22a.07.07 0 0 1-.06.02c-.34-.02-.67.14-.98.18a19.83 19.83 0 0 1-1.7.14.1.1 0 0 1-.05-.05 28.92 28.92 0 0 1-.03-1.14c.01-.2.12-.31.33-.32.36-.01.7-.08 1.04-.2ZM4.45 6.07c.07.02.18.11.27.15.2.07.42.18.64.3.03.03.05.05.06.09l-.01.1c-.3.57-.48 1.2-.54 1.9 0 .03-.02.06-.04.09a.12.12 0 0 1-.09.03l-1.47-.05a3.86 3.86 0 0 0-.53.02.07.07 0 0 1-.04-.04l-.01-.02c0-.06 0-.14.02-.23.1-.57.34-1.07.7-1.52.1-.13.25-.3.45-.5.21-.2.33-.37.59-.32Z" fill="#2096EF"/><rect x="5.17" y="7.16" width="7.75" height="3.59" rx="1.8" fill="#FEF896"/><path d="M15.24 8.14c.08.23.12.46.12.68l-.02.04a.06.06 0 0 1-.05.02c-.37.01-.72-.04-1.08-.02-.34.01-.63 0-.87-.02-.19-.02-.17-.33-.19-.5A1.85 1.85 0 0 0 13.1 8c-.08-.27-.19-.78-.37-1.15-.06-.13-.02-.22.1-.27l.86-.36c.22-.1.8.6 1 .86.26.32.42.65.55 1.05Z" fill="#2096EF"/><path d="m12.84 8.41-.2-.32a1.2 1.2 0 0 0-.2-.31 2.13 2.13 0 0 0-.5-.37 2 2 0 0 0-.58-.16 36.7 36.7 0 0 0-.58-.1c.17-.1 1.61-.33 1.65-.21.06.22.17.5.3.85.09.2.12.4.11.62Z" fill="#1291D8"/><path d="M6.64 8.6c.06-.15.03-.4.03-.67 0-.03 0-.05.02-.07a.1.1 0 0 1 .07-.03 10 10 0 0 1 1.34 0c.08.01.26.08.53.2.2.08.33.2.42.35.13.23.16.5.1.8-.12.54-.44.8-.97.82a17.2 17.2 0 0 1-1.5-.04.08.08 0 0 1-.02-.05v-.76c0-.02 0-.04-.02-.06a.1.1 0 0 0-.05-.04l-.32-.12a.08.08 0 0 1-.03-.02.08.08 0 0 1-.02-.06l.01-.04c.08-.11.17-.12.3-.13.05 0 .09-.03.1-.08Zm.88-.3c-.09.01-.18-.02-.27 0-.06 0-.1.05-.1.11-.03.28-.03 1 .04 1.14 0 .02.02.03.03.04a5.2 5.2 0 0 0 .76.01c.27-.01.52-.06.6-.33.07-.18.08-.36.04-.54-.06-.27-.13-.46-.43-.45-.37 0-.6.01-.67.02ZM10.28 8.29c-.01 0-.03 0-.04.02a27.91 27.91 0 0 0-.04 1.11c0 .17.08.24.24.23.3-.04.62-.03.96 0 .05.01.07-.1.08-.36 0-.11.05-.15.15-.11l.15.05c.1.04.15.1.17.21.06.4-.07.63-.39.67-.31.05-.55.06-.71.03a7.43 7.43 0 0 0-.66-.07.88.88 0 0 1-.33-.1.14.14 0 0 1-.06-.05c-.03-.04-.05-.16-.06-.36a8 8 0 0 1 .04-1.49c0-.03.02-.06.04-.08a.14.14 0 0 1 .08-.04c.63-.1 1.26-.08 1.88.06.09.01.13.06.15.13.03.15.03.37-.04.52-.02.04-.05.06-.1.07-.12.01-.21 0-.27-.06a.07.07 0 0 1-.02-.03l-.07-.27a.11.11 0 0 0-.03-.06.1.1 0 0 0-.07-.02h-1.05Z" fill="#B92501"/><path d="m3.65 9.04 1.04.03c.1 0 .17.05.18.13a6.15 6.15 0 0 0 .49 1.95.15.15 0 0 1-.05.11 4.32 4.32 0 0 0-.94.4c-.11.07-.2.05-.3-.04l-.56-.52a6.22 6.22 0 0 1-.6-.97 1.22 1.22 0 0 1-.13-.44 3.62 3.62 0 0 0-.13-.6s0-.02.02-.03l.02-.02h.03c.32.02.67-.02.93 0ZM12.84 11.38c-.08-.03-.1-.1-.08-.19.11-.3.22-.67.34-1.1.06-.24.04-.7.16-.84.01-.02.06-.04.13-.04a18.2 18.2 0 0 1 1.9-.01c.04 0 .05.02.06.05.05.54-.3 1.29-.62 1.68-.17.21-.35.43-.56.65-.2.22-.42.27-.65.14a6.69 6.69 0 0 0-.68-.34Z" fill="#2096EF"/><path d="m7.15 10.82-.51.06c-.31.03-.5.1-.77.19-.1.02-.16 0-.2-.1-.2-.43-.34-.9-.43-1.43.08.11.16.22.22.33.08.13.16.23.25.3.19.16.33.26.44.32.17.1.38.16.62.16.52.01.65.07.38.17ZM10.66 10.78l1-.08c.03 0 .05 0 .06-.02l.52-.34c.17-.12.28-.22.4-.41.05-.1.1-.18.18-.28a.4.4 0 0 1 0 .3l-.09.25c-.07.27-.35.68-.37.93l-.01.04-.03.02a.08.08 0 0 1-.08 0 4.17 4.17 0 0 0-.85-.28c-.22-.06-.49-.07-.73-.13Z" fill="#1291D8"/><path d="M2.97 10.93a3.87 3.87 0 0 1-.53-1.18l.53 1.18ZM8.08 11.06l.7.03a.1.1 0 0 1 .06.03.1.1 0 0 1 .03.06v1.28a.08.08 0 0 1-.03.06.07.07 0 0 1-.06 0c-.09-.02-.15-.04-.28-.02-.39.06-.75.16-1.07.28a.2.2 0 0 1-.17 0 3.84 3.84 0 0 1-1.3-1.24.1.1 0 0 1 .02-.08 4.9 4.9 0 0 1 1.2-.29l.9-.11ZM11.07 12.68c-.2.17-.31.18-.56.09a3.64 3.64 0 0 0-1.22-.25.11.11 0 0 1-.08-.03.12.12 0 0 1-.03-.09v-1.24c0-.02 0-.04.02-.05a4.32 4.32 0 0 1 1.16.01c.7.12 1.16.16 1.65.37.03.01.05.03.06.06.01.02.02.05.01.08a.41.41 0 0 1-.08.19c-.12.14-.43.43-.93.86Z" fill="#2096EF"/><path d="M11.74 12.55a7.7 7.7 0 0 0 .76-.88h.05l.84.3c.02 0 .03.02.04.03a.09.09 0 0 1 0 .11 9.3 9.3 0 0 1-2.02.92c-.22 0-.23-.06-.04-.17.11-.06.24-.17.37-.3ZM8.53 13.24a4.05 4.05 0 0 1-.72-.12l-.01-.02a.05.05 0 0 1 .01-.05.5.5 0 0 1 .3-.1c.3 0 .51-.02.66-.06.03-.01.05 0 .05.03.04.1.05.24.02.39v.02l-.03.02h-.05c-.06-.04-.16-.1-.23-.11ZM9.16 13.03a.08.08 0 0 1 .02-.06.08.08 0 0 1 .05-.02h.01c.26-.02.52 0 .7.02.2.02.3.06.3.1 0 .05-.1.1-.28.14-.19.04-.44.07-.7.08h-.02a.07.07 0 0 1-.05-.02.08.08 0 0 1-.03-.05v-.2Z" fill="#1291D8"/></svg>