<!-- by TradingView --><svg width="18" height="18" viewBox="0 0 18 18" xmlns="http://www.w3.org/2000/svg"><path fill="#F0F3FA" d="M0 0h18v18H0z"/><path d="M13.96 4c.02.03.04.07.04.1v9.82a.08.08 0 0 1-.08.08H4.08a.08.08 0 0 1-.08-.08V4.1c0-.05.02-.08.07-.1h9.89Z" fill="#E60012"/><path d="m11.27 6.57 1.2-2.22c0-.01.01-.02.03-.02H13.34c.06.03.07.07.05.11a1779.42 1779.42 0 0 0-1.73 2.98 5.48 5.48 0 0 1 .07 2.95l1.93 3.19a.08.08 0 0 1 0 .07.07.07 0 0 1-.07.04h-1.05a.03.03 0 0 1-.03-.02l-1.17-2.28a.02.02 0 0 0-.03-.01c-.32.5-.7 1.01-1.17 1.39a3.91 3.91 0 0 1-2.28.89c-.16.02-.34.03-.55.03h-2.9l-.06-.03a.07.07 0 0 1-.02-.05V4.43a.1.1 0 0 1 .1-.1h2.9a4.5 4.5 0 0 1 3.92 2.24h.01Z" fill="#F0F3FA"/><path d="M9 12.6V9.01L9.04 9h1.1c.01 0 .02 0 .03.02l1 1.98v.07c-.25.45-.56.86-.93 1.22-.38.37-.82.63-1.33.79a5.84 5.84 0 0 1-1.98.25l-.9-.01H6V4.67h1.48a3.78 3.78 0 0 1 3.1 1.5 5.53 5.53 0 0 1 .5.77l-.02.04-.87 1.65-.02.02H9.01L9 8.63V5.41c0-.05-.03-.08-.08-.08h-.88a.07.07 0 0 0-.04.05v7.22c0 .01 0 .03.02.04.01.02.03.03.05.03h.87l.04-.02A.07.07 0 0 0 9 12.6Z" fill="#E60012"/><path d="M11.45 7.87c.19.64.2 1.33.1 2-.01.03-.03.04-.05 0l-.62-1.02a.07.07 0 0 1 0-.07l.53-.92a.02.02 0 0 1 .02 0h.02Z" fill="#E60012"/></svg>