<!-- by TradingView --><svg width="18" height="18" viewBox="0 0 18 18" xmlns="http://www.w3.org/2000/svg"><path fill="#F0F3FA" d="M0 0h18v18H0z"/><path fill-rule="evenodd" d="m7.38 5-.01.01-2.86 7.92c-.02.04 0 .06.04.06l3.42.01c1.92 0 3.29-.84 4.1-2.54.31-.67.56-1.29.74-1.85.37-1.18.28-2.86-.96-3.43A4.65 4.65 0 0 0 10.2 5H7.38Zm-.7 6.66h1.26c.52 0 .9-.06 1.13-.17 1.24-.6 1.89-2.16 2.2-3.57.14-.67 0-1.4-.75-1.55-.19-.04-.84-.06-1.94-.04-.04 0-.07.04-.09.08l-1.83 5.2a.05.05 0 0 0 0 .04l.02.01Z" fill="#0075C2"/></svg>