<!-- by TradingView --><svg width="18" height="18" viewBox="0 0 18 18" xmlns="http://www.w3.org/2000/svg"><path fill="#F0F3FA" d="M0 0h18v18H0z"/><path d="M4 11.7V8.07c0-.12.05-.24.14-.33l1.72-1.62A.5.5 0 0 1 6.2 6h3.65c.18 0 .4.14.4.3v1.97c0 .25-.3.46-.56.46H7v2.66c0 .34-.34.61-.7.61h-.24c-.17 0-.34-.14-.34-.3V9.27l1.8-1.62h1.95V7H5.95c-.36 0-.7.38-.7.71v3.68c0 .34-.23.61-.59.61h-.34a.31.31 0 0 1-.32-.3Zm10-5.4v3.62c0 .12-.05.24-.14.33l-1.72 1.62a.5.5 0 0 1-.34.13H8.15c-.18 0-.4-.14-.4-.3V9.72c0-.25.3-.43.56-.43H11V6.61c0-.34.34-.61.7-.61h.24c.17 0 .32.14.32.3v2.43l-1.78 1.62H8.53V11h3.52c.36 0 .7-.38.7-.71V6.6c0-.34.23-.61.59-.61h.34c.18 0 .32.14.32.3Z" fill="#008F38"/></svg>