<!-- by TradingView --><svg width="18" height="18" viewBox="0 0 18 18" xmlns="http://www.w3.org/2000/svg"><path fill="#F0F3FA" d="M0 0h18v18H0z"/><path d="M5.47 11.44c-.27.3-.62.48-1 .53a2.16 2.16 0 0 1-2.41-1.72c-.17-.83.03-1.55.6-2.15.32-.35.74-.55 1.25-.6.6-.07 1.14.09 1.56.47.02.03.04.02.04-.01V5.05L5.52 5 5.56 5h1.41A.03.03 0 0 1 7 5a.03.03 0 0 1 .01.03v6.92c0 .03-.02.05-.05.05h-1.4c-.03 0-.04-.02-.04-.05v-.5c0-.03-.01-.03-.04 0Zm-.93-.74a1 1 0 0 0 .7-.28.95.95 0 0 0 .01-1.36 1 1 0 0 0-1.4 0 .95.95 0 0 0 0 1.35 1 1 0 0 0 .7.3Z" fill="#231815"/><path d="M9.05 7.58c1.07-.34 1.99-.16 2.74.53.4.37.64.86.69 1.45.03.28.06.46.11.56.32.64 1.27.76 1.76.2.81-.95-.61-2.2-1.6-1.26-.03.02-.04.02-.05-.02a2.47 2.47 0 0 0-.67-1.1c-.02-.02-.02-.04 0-.06a2.62 2.62 0 0 1 2.87-.09 2.2 2.2 0 0 1 .3 3.61c-.85.72-2.1.8-3.05.2a2.28 2.28 0 0 1-1.04-1.45c-.06-.24 0-.6-.13-.83a1.08 1.08 0 0 0-1.57-.4.87.87 0 0 0-.41.66c-.04.4.1.7.41.91.46.3 1 .23 1.39-.14.03-.03.05-.02.06.02.11.4.33.77.65 1.1.04.03.04.06 0 .08a2.7 2.7 0 0 1-2.46.27c-.04-.02-.06 0-.05.03a.2.2 0 0 1 0 .1c0 .02-.02.05-.06.05H7.5c-.03 0-.04-.03-.04-.06V5.05c0-.03.02-.05.06-.05h1.43c.04 0 .05.02.05.05v2.5c0 .03.02.04.05.03Z" fill="#E94B50"/></svg>