<!-- by TradingView --><svg width="18" height="18" viewBox="0 0 18 18" xmlns="http://www.w3.org/2000/svg"><path fill="#F0F3FA" d="M0 0h18v18H0z"/><path d="M6.73 6.41a7.44 7.44 0 0 1-.54 6.89.14.14 0 0 0 .03.1l.04.03c1.08.55 2.18.7 3.32.45a5.58 5.58 0 0 0 3.2-1.94 5.11 5.11 0 0 0 .85-5.19A4.38 4.38 0 0 0 9.3 4c-1.14.05-2.16.41-3.08 1.1a.2.2 0 0 0-.05.25l.05.07c.16.28.37.63.5 1Zm-.85 6.67.06-.38a30.64 30.64 0 0 0-.1-7.16.08.08 0 0 0-.03-.03.08.08 0 0 0-.08.02 5.35 5.35 0 0 0-1.49 5.43 4.36 4.36 0 0 0 1.57 2.17.06.06 0 0 0 .05-.02l.02-.03Z" fill="#00AF98"/></svg>