<!-- by TradingView --><svg width="18" height="18" viewBox="0 0 18 18" fill="none" xmlns="http://www.w3.org/2000/svg"><path fill="#F0F3FA" d="M0 0h18v18H0z"/><g opacity=".6" stroke="#C3C3C3" clip-path="url(#a)"><circle cx="9" cy="9" r="8.88" stroke-width=".25"/><rect x="3.05" y="5.05" width="11.9" height="7.9" rx=".95" stroke-width=".1"/><rect x="2.05" y="6.05" width="13.9" height="5.9" rx=".95" stroke-width=".1"/><rect x="4.05" y="4.05" width="9.9" height="9.9" rx=".95" stroke-width=".1"/><rect x="5.05" y="3.05" width="7.9" height="11.9" rx=".95" stroke-width=".1"/><rect x="6.05" y="2.05" width="5.9" height="13.9" rx=".95" stroke-width=".1"/></g><circle cx="9" cy="9" r="4.48" fill="#101010"/><path fill-rule="evenodd" d="M9 15A6 6 0 1 0 9 3a6 6 0 0 0 0 12Zm0-.13A5.87 5.87 0 1 0 9 3.13a5.87 5.87 0 0 0 0 11.74Z" fill="#101010"/><path d="M10.86 5.12v.27c0 .05-.01.08-.03.1l-.04.03-.54-.29h-.06a.3.3 0 0 1-.12.12.06.06 0 0 1-.05 0 .35.35 0 0 1-.07-.02c-.06-.05-.08-.04-.05.03.03.06.08.1.17.11.17.15.36.21.57.2l.06.01.06.06c.1.1.24.26.24.35.2 0 .4.07.6.18l-.35.4a.09.09 0 0 0-.03.06c0 .11 0 .28-.14.3-.3.02-.48-.08-.66-.27-.03-.03-.05-.03-.07 0-.04.07-.08.1-.12.07a.71.71 0 0 0-.38-.06c-.02 0-.03.01-.04.03l-.01.15a.05.05 0 0 1-.06.03l-.34-.1a.16.16 0 0 1-.1-.09l-.15-.3a.07.07 0 0 0-.06-.04c-.12 0-.13.1-.07.18.04.1.1.15.17.17l.07.1v.05a.57.57 0 0 1-.08.17.07.07 0 0 1-.05.03c-.12.01-.3.01-.56 0-.25-.01-.35.1-.54.22a.07.07 0 0 1-.05 0l-.35-.06a.1.1 0 0 1-.05-.03l-.35-.33h-.04l-.07-.04h-.04v.03l-.01.05a.15.15 0 0 1-.05.04L6.88 7a1.2 1.2 0 0 1-.2-.09c-.1-.05-.12-.03-.06.07.04.07.04.17.01.3a.37.37 0 0 0-.24-.06c-.13-.06-.24-.06-.33 0a.3.3 0 0 1 0-.16c.11-.01.18-.04.21-.1h.06c.01 0 .02-.01.01-.02l-.11-.2c-.02-.03-.05-.04-.08-.02l-.19.09-.02.04.04.2a.07.07 0 0 1-.04.08H5.9C5.77 7.1 5.72 7 5.56 7c-.14 0-.28 0-.41.02L5.18 7c0-.13.07-.19.13-.29a6.75 6.75 0 0 1 .72-.88c.1-.07.19-.19.3-.27.28-.2.59-.38.92-.53a4.45 4.45 0 0 1 3.55.02c.04.02.06.04.06.07Z" fill="#00733B"/><path d="M11.8 12.25a3.3 3.3 0 0 0-1.5-1.19c.08-.4 0-.77-.23-1.1a.07.07 0 0 1-.01-.06c.02-.09.02-.18.01-.28 0-.01 0-.03.02-.05l.18-.2h.05l-.01.02c0 .01 0 .02.02.01.22-.13.46-.4.52-.66 0-.03 0-.04-.03 0a.5.5 0 0 0-.07.13.1.1 0 0 0-.04-.04c.3-.34.4-.73.33-1.16 0-.03-.02-.04-.06-.04h-.1c-.04 0-.05.02-.05.05l-.01.34c-.08.3-.26.5-.55.58-.1.02-.16 0-.18-.1-.07-.27-.3-.2-.53-.14h-.05a.48.48 0 0 0-.26-.04c-.27.02-.32.38-.26.6v.01l-.03.02c-.21.04-.41.1-.62.19-.3.12-.44.33-.6.6a.08.08 0 0 1-.05.04c-.24.07-.3.1-.15.09.03.05.07.07.15.06.06.05.09.12.08.21l-.09.78c-.01.1-.03.2-.14.24a.93.93 0 0 1-.2.06L7.37 10v-.04c0-.02-.02-.04-.04-.03h-.06c-.03 0-.03 0-.01-.03V9.9H7.38v-.05c0-.56.02-1.13.04-1.7 0-.12.02-.24.07-.36l.12-.4c.1 0 .22.02.35.07h.06c.17-.1.34-.26.55-.23.25.03.46.03.63 0 .02 0 .03-.02.03-.04a.7.7 0 0 1 .13-.22c.02-.02.04-.03.06-.02l.33.14a.07.07 0 0 0 .1-.06l.03-.17c0-.02.02-.02.04-.02l.34.08h.01c.04 0 .07-.02.1-.05.02-.02.04-.02.06 0 .23.18.36.26.64.24.2 0 .2-.17.22-.32l.02-.06c.02-.04.1-.12.23-.24.06-.06.09-.13.06-.2a1.17 1.17 0 0 0-.59-.19 1.62 1.62 0 0 1-.12-.17.59.59 0 0 1-.05-.1c-.02-.05-.04-.08-.07-.08l-.06-.06a.07.07 0 0 0-.06-.02.8.8 0 0 1-.57-.19l.13-.13a.07.07 0 0 1 .08-.01l.47.26a.1.1 0 0 0 .13-.03c.05-.09.05-.14-.01-.17l-.01-.27c.05-.01.12 0 .2.05a4.3 4.3 0 0 1 .73 7.08Z" fill="#93AE37"/><path d="M10.87 5.39c.06.03.06.08 0 .17a.1.1 0 0 1-.12.03l-.46-.26a.07.07 0 0 0-.09 0l-.13.14c-.09-.01-.14-.05-.17-.11-.03-.07-.01-.08.05-.03l.07.02h.05a.3.3 0 0 0 .12-.12h.06l.54.3.04-.04c.02-.02.03-.05.04-.1ZM7.6 7.38l-.39-.41.02-.02.35.33a.1.1 0 0 0 .05.03l.35.06h.05c.19-.12.29-.23.54-.22.26.01.44.01.56 0 .02 0 .03-.01.05-.03.03-.05.06-.1.08-.17V6.9c-.04-.06-.17-.1-.24-.27-.06-.08-.05-.19.07-.18a.07.07 0 0 1 .06.03l.15.31a.16.16 0 0 0 .1.09l.34.1a.05.05 0 0 0 .06-.03l.01-.15c0-.02.02-.03.04-.03.14-.02.26 0 .38.06.04.02.08 0 .12-.06.02-.04.04-.04.07-.01.18.19.37.3.66.26.13-.01.14-.18.14-.29 0-.02.01-.04.03-.05l.34-.4c.03.07 0 .14-.06.2-.13.12-.2.2-.23.24a.14.14 0 0 0-.02.06c-.01.15-.02.31-.22.32-.28.02-.41-.06-.64-.24-.02-.02-.04-.02-.05 0a.15.15 0 0 1-.1.05h-.02l-.34-.08c-.02 0-.03 0-.04.02l-.03.17a.07.07 0 0 1-.1.06l-.33-.14c-.02 0-.04 0-.06.02a.7.7 0 0 0-.13.22c0 .02-.01.03-.03.04-.17.03-.38.03-.63 0-.2-.03-.38.14-.55.22a.07.07 0 0 1-.06 0 .95.95 0 0 0-.35-.06ZM6.27 6.97c-.04.15-.28-.03-.21.26a.72.72 0 0 1-.41-.14.1.1 0 0 0-.05-.02h-.5l.04-.04.42-.02c.16 0 .2.1.34.13a.06.06 0 0 0 .08-.05v-.03l-.04-.2c0-.02 0-.03.02-.04l.2-.1c.02-.01.05 0 .07.03l.11.2-.01.02h-.06ZM7.02 7.03v.03a.3.3 0 0 1-.14-.05l.14.02Z" fill="#FFFFFE"/><path d="M5.1 7.07h.5a.1.1 0 0 1 .05.02.72.72 0 0 0 .41.14c-.02.1 0 .18.09.22.02.01.02.02.01.04a.33.33 0 0 0 0 .2v2.16c-.01.09 0 .16.03.21h-.02c-.02 0-.04.02-.04.04v2.1a4.2 4.2 0 0 1-1.45-2.9c-.06-.8.08-1.54.42-2.23ZM6.52 7.35c-.07.16-.17.22-.29.18l.3-.18Z" fill="#93AE37"/><path d="M7.11 8.63v.05c.04.06.07.05.07-.02l.01-.25.01.35.03.35-.02.89-.02.62v-.03c0-.02-.02-.03-.04-.03-.1.01-.29.04-.36-.04-.2-.21-.4-.44-.64-.67V7.7l.08-.17c.12.04.22-.02.3-.18.07.15.1.31.11.49 0 .1.06.15.17.14.03 0 .06 0 .11.02.02 0 .03.02.03.03l.06 1.26a1.37 1.37 0 0 0 .08.33h.02c0-.06 0-.2-.03-.44-.02-.18.03-.36.03-.55Z" fill="#D82B29"/><path d="m7.2 8.41-.02.25c0 .07-.03.08-.08.02l.01-.05.04-.47a.03.03 0 0 1 .04-.03h.02l.01.02-.03.26Z" fill="#93AE37"/><path d="M10.32 9.36c.19-.13.33-.29.43-.49a.5.5 0 0 1 .07-.14c.03-.03.04-.02.03.01-.06.27-.3.54-.52.66-.02 0-.03 0-.02-.01l.01-.03Z" fill="#0D1413"/><path d="M10.75 8.87c-.1.2-.24.36-.43.5h-.05c.07-.15.13-.24.2-.27.11-.07.2-.16.24-.27a.1.1 0 0 1 .04.04Z" fill="#FFFFFE"/><path d="M9 8.97c-.54.14-.95.27-1.2.76-.06.1-.14.14-.25.14-.15.01-.1-.02.14-.1.02 0 .03-.01.04-.03.17-.27.31-.48.61-.6.2-.09.41-.15.62-.19 0 0 .02 0 .02-.02L9 8.91v.06Z" fill="#1A1919"/><path d="M9 8.97c.07.24.11.34.32.47l.02.04c0 .01-.01.03-.04.05a.02.02 0 0 0 0 .02.02.02 0 0 0 .02.02l.05-.03a.06.06 0 0 1 .05-.02l.19.06c.01 0 .02.02.01.03a.7.7 0 0 0-.02.06c0 .03 0 .03.02.02l.04-.04v-.02h.05l.01.02c.2.32.06.52-.11.78-.15.22-.22.5-.2.8a.05.05 0 0 1-.03.05c-.02.01-.06.02-.1 0-.08-.01-.11-.04-.11-.09l.04-.77c0-.03-.01-.04-.04-.03a.06.06 0 0 0-.03.02c-.06 0-.1 0-.13.02a.15.15 0 0 0-.1.05c0-.04-.05-.03-.14.02l-.19.06v.02h.04a.16.16 0 0 1 .04-.02h.03c.01 0 .02 0 .03.02l.2.25a.03.03 0 0 1 .01.03.03.03 0 0 1-.02.02c-.17.04-.35-.1-.44-.23 0-.01-.02-.02-.04-.01a.68.68 0 0 0-.42.44.1.1 0 0 1-.1.08h-.15c-.06.01-.08-.02-.07-.08.09-.56.13-.9.12-1.01 0-.14-.04-.19-.12-.14-.08 0-.12-.01-.15-.06.12 0 .2-.04.26-.14.25-.49.66-.62 1.2-.76ZM6.15 9.85c.24.23.45.46.64.67.07.08.26.05.36.04.02 0 .03.01.04.03v.03l-.01.03c-.15.43-.6.5-.8.07-.03-.07-.03-.12 0-.16 0-.01.02-.02.04-.01.08.03.13.04.15.03.04-.02.05-.04.02-.08l-.4-.44a.36.36 0 0 1-.04-.21Z" fill="#FFFFFE"/><path d="M8.77 10.5c.05.11.12.21.21.3a.09.09 0 0 0 .09.02.1.1 0 0 0 .07-.06.56.56 0 0 0 0-.35l.03-.02c.03-.01.04 0 .04.03l-.04.77c0 .05.03.08.1.1v.03l-.1-.04c-.02-.01-.04 0-.04.03v.16c.01.03.02.04.04.03.07-.02.12 0 .14.06.01.02.03.03.05.02.04 0 .06-.03.07-.07.01-.04 0-.08-.02-.12l.06-.08.13.13a.13.13 0 0 0 .18 0c.03-.03.03-.05 0-.08l-.31-.2c.03 0 .05-.02.06-.08l.48.3c.05.03.17.07.25.08.2 0 .38.05.53.12.1.06.1.1-.03.12h-.18c-.02 0-.04 0-.05.02-.02.03-.02.07-.01.12a.05.05 0 0 0 .02.03.04.04 0 0 0 .03.01c.17-.04.32-.1.46-.2.03-.02.03-.05 0-.07-.16-.12-.3-.22-.5-.31a34 34 0 0 1-.31-.15.16.16 0 0 0 .08-.09 3.3 3.3 0 0 1 1.5 1.19.39.39 0 0 1-.1.1c-.02-.04-.04-.03-.09 0l-.5.2a.05.05 0 0 0-.03.05c0 .02 0 .06.02.1-.02 0-.05 0-.07.03l-.1-.1a.05.05 0 0 0-.04-.02c-.25.05-.53.09-.66.21a.07.07 0 0 0-.03.06v.22l-.07.02-.07-.31c0-.02-.02-.03-.04-.03l-.85.03c-.02 0-.03.01-.03.03v.45c-.01 0-.02.01-.02.03 0 0 0 .02.02.03H9c0-.03 0-.05.03-.06l-.01-.46L9 12.8l-.02-.01-.47-.06a.17.17 0 0 0-.19.13l-.03.16c-.01.04-.02.04-.04 0a.65.65 0 0 1-.05-.33c0-.03-.01-.05-.04-.05l-.06-.01c-.03 0-.05 0-.05.03l-.1.5a.22.22 0 0 0-.1-.07l.09-.49c0-.01 0-.03-.02-.03l-.67-.28-.04.01-.3.43c-.04-.01-.06-.04-.06-.08l.26-.44a.02.02 0 0 0 0-.01.02.02 0 0 0 0-.02l-.45-.25a.02.02 0 0 0-.02 0l-.33.37c-.04 0-.06-.04-.06-.1.25-.35.57-.64.93-.88.05.01.1-.02.15-.1a.93.93 0 0 0 .2-.07c.11-.05.13-.13.14-.24l.09-.78c.01-.09-.02-.16-.08-.21.08-.05.12 0 .12.14 0 .1-.03.45-.12 1.01-.01.06.01.1.07.09h.14a.1.1 0 0 0 .1-.09c.07-.2.21-.35.43-.44l.04.01c.1.14.27.27.44.23a.03.03 0 0 0 .02-.02.03.03 0 0 0 0-.03l-.21-.25a.06.06 0 0 0-.06-.02.16.16 0 0 0-.04.02h-.04v-.02l.19-.06Z" fill="#01843B"/><path d="M7.01 7.06a.3.3 0 0 1-.13-.05 1.2 1.2 0 0 1-.2-.09c-.1-.05-.12-.03-.06.07.04.07.04.17.01.3-.06.01-.14-.01-.24-.06-.13-.06-.24-.06-.33 0-.02.1 0 .18.09.22.02.01.02.02.01.04a.33.33 0 0 0 0 .2l.07-.16.3-.18c.07.15.1.31.11.49 0 .1.06.15.17.13l.11.03c.02 0 .03.02.03.03l.06 1.26a1.37 1.37 0 0 0 .08.33h.02l-.03-.44c-.01-.1 0-.2.01-.31l.02-.24.03-.47a.03.03 0 0 1 .05-.03h.02v.02l-.02.26.01.35.03.35-.02.89-.02.62-.01.03c.07.18.04.5.01.68.05.01.1-.02.15-.1L7.37 10c.02-.07.02-.58.03-1.08v-.78c.01-.12.03-.24.08-.36l.12-.4-.39-.41-.02-.02-.07-.04h-.04v.03l-.01.05a.15.15 0 0 1-.05.04v.03Z" fill="#0D1413"/><path d="m6.2 10.06.39.44c.03.04.02.06-.02.08-.02 0-.07 0-.15-.03l-.04.01c-.03.04-.03.1 0 .16.2.43.65.36.8-.07.07.18.04.5.01.68a3.4 3.4 0 0 0-.93.88c0 .06-.05.05-.12-.01v-2.1c0-.02 0-.04.03-.04h.02Z" fill="#D82B29"/><path d="M9.14 10.41c.03.13.03.25 0 .35a.1.1 0 0 1-.15.04.98.98 0 0 1-.22-.3c.14-.08.28-.1.37-.09Z" fill="#93AE37"/><path d="m10.22 11.15.31.15c.2.1.34.2.5.31.03.02.03.05 0 .07a1.24 1.24 0 0 1-.48.2.05.05 0 0 1-.03-.04c-.01-.05 0-.09.01-.12a.05.05 0 0 1 .05-.02h.18c.13-.03.13-.06.03-.12a1.34 1.34 0 0 0-.53-.12.61.61 0 0 1-.25-.08 8.8 8.8 0 0 0-.48-.3c-.06-.02-.07-.06-.03-.12 0-.01.02-.02.03-.01l.69.2ZM9.47 11.17l.3.2c.04.02.04.04.01.07a.13.13 0 0 1-.18 0l-.13-.13c-.02-.05-.02-.1 0-.14ZM9.27 11.32c.06.01.1.04.14.07.02.04.03.08.02.12 0 .04-.03.07-.07.07-.02 0-.04 0-.05-.02-.02-.06-.07-.08-.14-.06-.02 0-.03 0-.03-.03v-.16c0-.03 0-.04.03-.03l.1.04ZM6.86 12.66c0 .04-.03.04-.1 0-.15-.08-.3-.19-.43-.3-.03-.03-.03-.04-.01-.05l.33-.37h.02l.45.26a.02.02 0 0 1 0 .03l-.26.43ZM7.87 13.1c0 .02-.01.03-.03.03-.31-.08-.62-.2-.92-.39l.3-.43c0-.01.02-.02.04-.01l.67.28c.02 0 .02.02.02.03l-.08.49ZM11.61 12.36c.01 0 .03 0 .04.02l-.44.3c-.04.02-.08.03-.1.02a.17.17 0 0 1-.03-.1c0-.03.02-.04.04-.05l.5-.2ZM11.03 12.73c.01.03 0 .05-.04.07a4.38 4.38 0 0 1-.78.3v-.22c0-.02 0-.04.02-.06.13-.12.42-.16.66-.2h.04l.1.1ZM9.03 13.29c-.37 0-.73-.03-1.07-.13l.1-.49c0-.02.02-.04.05-.03h.06c.03.01.04.03.04.05-.02.11 0 .22.05.34.02.04.03.04.04 0l.03-.16a.17.17 0 0 1 .2-.13l.46.06H9v.03l.02.46ZM10.13 13.12l-.04.02c-.3.1-.62.14-.96.15l.01-.45c0-.02.01-.02.03-.03l.85-.03c.02 0 .04 0 .04.03l.07.31Z" fill="#EAD534"/><path d="M9.9 8.5h-.02v.03c.18.15.4.15.59.04.3-.18.44-.47.42-.87 0-.02.01-.03.03-.03h.02l.04.02.02.04c.06.48-.1.87-.45 1.16-.02.02-.03.02-.03-.01a.4.4 0 0 1 .06-.2v-.01h-.02a2.78 2.78 0 0 1-.54.47l.03.02h.02l.35-.28c.04-.02.05-.02.03.03-.11.27-.26.5-.45.67-.02.02-.02.04 0 .06l.02.02a.05.05 0 0 1 .01.03l-.03.22c0 .02 0 .04.02.06.16.24.25.51.26.82 0 .08 0 .14-.02.18a.1.1 0 0 1-.1.05.1.1 0 0 1-.07-.07 1.57 1.57 0 0 0-.3-.62.06.06 0 0 1 0-.05c.05-.19.12-.31.05-.51a3.3 3.3 0 0 0-.07-.16c-.03-.07-.01-.13 0-.19v-.05a.89.89 0 0 1-.07-.5l-.03.01a.03.03 0 0 0-.02.03c-.03.15-.01.3.06.46l-.02.14c0 .02-.01.03-.03.03-.23-.05-.48-.19-.56-.43-.06-.18-.13-.39-.06-.56.05-.13.15-.2.29-.2.07 0 .12.04.19.06a.1.1 0 0 0 .06 0c.2-.07.4-.14.48.14 0 .02 0 .03-.02.03a.48.48 0 0 1-.15-.08Z" fill="#FFFFFE"/><path d="m9.97 10.94-.41-.09a.05.05 0 0 1-.04-.03.05.05 0 0 1 0-.04c.04-.15.1-.28.18-.39.02-.03.05-.03.07 0 .11.16.2.33.24.51 0 .03 0 .05-.04.04ZM8.42 10.7l.06.08c.07.06.06.09-.03.07a.37.37 0 0 0-.26.08c-.02.01-.02.01-.02-.01.01-.04.03-.07.06-.09a2.27 2.27 0 0 1 .18-.14h.01Z" fill="#93AE37"/><path d="m8.78 10.96-.57.29a.92.92 0 0 0-.23.16.06.06 0 0 1-.1 0c-.05-.07-.12-.08-.18-.04a.05.05 0 0 1-.05 0 .28.28 0 0 1-.06-.04.05.05 0 0 1 .03-.1h.34l.05-.04.08-.14a.06.06 0 0 1 .05-.03c.17 0 .3-.03.42-.07a.37.37 0 0 1 .23.01ZM8.74 11.9c-.06-.2.01-.3.05-.47.04-.15.1-.2.18-.28a.02.02 0 0 1 .02 0H9l.04.76a.05.05 0 0 1-.02.04.05.05 0 0 1-.05.02l-.19-.05h-.02l-.02-.03ZM7.31 11.67c0 .06.08.1.12.11a.04.04 0 0 1 .04.03.04.04 0 0 1-.01.04l-.2.21c-.04.04-.08.04-.13.02l-.3-.18c-.06-.04-.07-.07-.02-.12.17-.16.36-.3.58-.42h.05l.17.13c.09.07.08.1-.04.08a.68.68 0 0 0-.14 0c-.08 0-.12.04-.12.1ZM10.68 11.97c.17-.05.32-.12.44-.22.03-.02.05-.02.07 0l.44.44v.01a.04.04 0 0 1 0 .04l-.02.01-.58.2a.03.03 0 0 1-.04 0l-.32-.45.01-.03ZM7.7 11.89c.04.21.14.34.3.37.05.01.07.04.05.09l-.03.07a.06.06 0 0 1-.08.03l-.6-.24c-.03-.02-.04-.04 0-.07l.27-.28c.05-.05.08-.04.09.03ZM8.75 12.3c.02.02.08.03.19.02a.05.05 0 0 1 .03 0 .05.05 0 0 1 .02.04v.25c.01.04 0 .06-.05.06a1 1 0 0 1-.33-.06c-.14-.08-.14-.24-.34-.27a.07.07 0 0 1-.06-.07v-.03c.05-.11.13-.2.23-.25h.03l.25.03c.03 0 .04.01.03.03l-.02.2c0 .01 0 .03.02.05ZM10.36 12.6l-.24-.17c-.14-.1-.1-.32.08-.34.09-.02.16-.03.23-.06.06-.02.12 0 .16.05l.24.34c.04.06.03.1-.04.1l-.4.08h-.03ZM9.64 12.27l.08-.07.02-.01h.01l.01.01a1.18 1.18 0 0 1 .24.43.05.05 0 0 1-.03.03l-.02.01-.46.02c-.02 0-.04 0-.05-.02a.42.42 0 0 1-.1-.4.06.06 0 0 1 .03-.04.05.05 0 0 1 .04 0l.18.05h.05Z" fill="#EAD534"/><path d="M9.97 8.93a.03.03 0 0 1-.04 0v-.01a.23.23 0 0 1-.04-.05.16.16 0 0 1-.01-.04V8.8l.01-.02h.01c.01-.02.04-.02.06-.01a.2.2 0 0 1 .08.05l.01.01v.04l-.08.07Z" fill="#0D1413"/><path d="M3.37 7.96a5.72 5.72 0 0 1 11.27.1l-.69.25a5 5 0 0 0-9.9-.07c-.2-.09-.45-.2-.68-.28Z" fill="#FF0D14" fill-opacity=".5"/><path d="M14.72 9.02a5.72 5.72 0 0 1-11.44.04c.23.03.5.05.72.03a5 5 0 0 0 10-.07h.72Z" fill="#1E2D68" fill-opacity=".5"/><defs><clipPath id="a"><rect width="18" height="18" rx="9"/></clipPath></defs></svg>