<!-- by TradingView --><svg width="18" height="18" fill="none" xmlns="http://www.w3.org/2000/svg"><path fill="#F0F3FA" d="M0 0h18v18H0z"/><path d="M8.322 3.323c-.338.43-.068.92.204 1.307.382.544.407.635.242.868-.217.337-.624.414-.84.142-.14-.168-.14-.323 0-.919.08-.337.15-.755-.077-1.062-.127-.194-.318-.285-.598-.285-.51 0-.675.117-.84.531-.153.415.19 1.075.674 1.308.395.168.497.427.331.764-.152.285-.662.324-.865.078-.09-.104-.115-.376-.064-.648.09-.57-.203-.997-.687-.997-.357 0-.802.428-.802.777 0 .324.433.777.751.777.127 0 .445.233.7.518L6.909 7h4.277l.28-.388c.165-.208.56-.518.89-.674.485-.233.612-.375.637-.66.09-.751-.725-1.14-1.26-.596-.204.207-.242.363-.178.751.09.557-.127.842-.598.764-.535-.078-.446-.57.203-1.191.624-.583.713-.88.382-1.347-.243-.353-.844-.385-1.219-.096-.375.29-.316.811-.155 1.262.165.479.165.556-.026.777-.356.4-.942.22-.942-.285 0-.65.874-1.06.733-1.774a.79.79 0 0 1 0-.01c-.188-.567-1.196-.75-1.611-.21Z" fill="#000"/><path d="M7 10h3v3H7v-3Z" fill="#AD9265"/><path fill="#000" d="M7 8h6v1H7z"/><path fill="#000" d="M11 8h1v5h-1zM7 14h6v1H7zM5 8h1v7H5z"/></svg>