<!-- by TradingView --><svg width="18" height="18" viewBox="0 0 18 18" xmlns="http://www.w3.org/2000/svg"><path fill="#F0F3FA" d="M0 0h18v18H0z"/><path d="M3.3 10.72h.08c.33 1.02.87 1.9 1.64 2.62a5.67 5.67 0 0 0 2.72 1.44A5.92 5.92 0 1 0 7.1 3.4a5.83 5.83 0 0 0-3.43 3.13l-.06.06c-.01.03-.03.03-.05.01l-.03-.03a6.33 6.33 0 0 1 2.22-2.6 5.96 5.96 0 0 1 7.79 1.07c.7.8 1.16 1.75 1.39 2.85a10.96 10.96 0 0 1 .05 1.78 5.86 5.86 0 0 1-1.81 3.7 6.02 6.02 0 0 1-8.3-.04 6.15 6.15 0 0 1-1.5-2.39c0-.01 0-.03.02-.03v-.05a.3.3 0 0 1-.08-.14Z" fill="#030303"/><path d="M3.39 10.71c-.4-1.42-.31-2.82.28-4.18a5.83 5.83 0 0 1 5.96-3.42 5.96 5.96 0 0 1 4.55 8.77 5.92 5.92 0 0 1-9.16 1.46 6.02 6.02 0 0 1-1.63-2.63Z" fill="#F0F3FA"/><path d="M3.34 9.62h.09a5.77 5.77 0 0 0 4.35 4.89 5.45 5.45 0 0 0 4.41-.84 5.77 5.77 0 0 0 2.18-2.85 5.6 5.6 0 0 0-.26-4.23c-.02-.02-.04-.03-.07-.01a.54.54 0 0 0-.2.16h-.05V6.7l.16-.17a.07.07 0 0 1 .07-.02h.03c.04.01.05 0 .03-.03a5.72 5.72 0 0 0-2.07-2.28 5.46 5.46 0 0 0-3.26-.84 5.46 5.46 0 0 0-3.16 1.16c-.04.04-.04.06 0 .08.07.03.16.05.25.06.01 0 .02 0 .02.02l.03.07c.02.04.01.05-.02.03l-.31-.17a.07.07 0 0 0-.08 0l-.3.25a5.78 5.78 0 0 0-1.57 2.6c-.03-.01-.05-.04-.07-.1A5.7 5.7 0 0 1 8.5 3.3a5.65 5.65 0 0 1 4.92 2.03 5.68 5.68 0 0 1 1.32 4.05 5.6 5.6 0 0 1-2.82 4.57 5.68 5.68 0 0 1-6.88-.84 5.65 5.65 0 0 1-1.7-3.5Z" fill="#030303"/><path d="M3.43 9.63a5.78 5.78 0 0 1 2.05-5 .07.07 0 0 1 .08-.01l.3.17c.04.02.05 0 .04-.03l-.03-.07a.03.03 0 0 0-.03-.02.73.73 0 0 1-.24-.06c-.05-.02-.05-.04-.01-.08a5.46 5.46 0 0 1 3.16-1.16A5.46 5.46 0 0 1 12 4.2a5.72 5.72 0 0 1 2.07 2.28c.02.03 0 .04-.03.04h-.03c-.03-.01-.05 0-.07.01l-.16.17v.02l.03.01h.02a.54.54 0 0 1 .2-.16c.03-.02.05-.01.07.01a5.6 5.6 0 0 1-1.92 7.07 5.64 5.64 0 0 1-4.4.85 5.77 5.77 0 0 1-4.35-4.89Z" fill="#FFF302"/><path d="m9.25 3.7.02.35-.02.01h-.13v-.01l.03-.34c0-.02 0-.03-.02-.03h-.16v-.03L9 3.63a.89.89 0 0 1 .4 0c.03 0 .04 0 .05.02v.04c-.02.02-.04.02-.06 0a.2.2 0 0 0-.09-.02c-.03 0-.04 0-.04.04ZM8.66 3.93l-.05-.05c-.02-.02-.02-.03.02-.03h.15c.02 0 .03.01.02.04l-.02.1c0 .02-.02.04-.04.05a.35.35 0 0 1-.34.01.1.1 0 0 1-.05-.06.4.4 0 0 1-.01-.24c.02-.09.09-.13.19-.13.05 0 .05 0 0 .03-.12.06-.14.17-.06.33.03.06.08.08.15.07.03 0 .05-.02.06-.05 0-.03 0-.05-.02-.07Z" fill="#030303"/><path d="M8.59 3.64v-.02l.14.01c.02.01.03.02.02.04v.04h-.02a.33.33 0 0 1-.14-.07ZM9.67 3.8a.1.1 0 0 1-.06.02c-.03 0-.03-.01-.02-.03l.06-.11a.06.06 0 0 1 .05-.03h.05c.02 0 .03 0 .03.03 0 .16.03.3.1.4 0 .03 0 .05-.03.04h-.1c-.03-.01-.04-.03-.03-.06l.01-.05c-.01-.06-.06-.08-.12-.06-.07.03-.1.06-.1.1.01.03 0 .04-.02.03l-.06-.01c-.04-.01-.04-.02 0-.03l.03-.01c.02 0 .03-.02.03-.04.02-.08.08-.12.17-.1.03 0 .05-.01.05-.05v-.03c0-.03-.01-.04-.04-.02ZM7.78 3.79c-.03-.02-.02-.03.01-.04l.07-.02h.05l.22.15c.07.06.11.11.12.17.01.05 0 .07-.05.03l-.42-.3ZM10.46 3.95c0 .07-.03.13-.08.17a.23.23 0 0 1-.17.08.23.23 0 0 1-.17-.08.23.23 0 0 1-.07-.17c0-.06.03-.12.07-.17.05-.04.1-.07.17-.07s.13.03.17.07c.05.05.08.1.08.17Z" fill="#030303"/><path d="M10.3 4.06c-.04.07-.1.1-.16.08a.06.06 0 0 1-.05-.06.36.36 0 0 1 .1-.3c.03-.04.06-.04.1-.01.07.06.07.12.01.2v.02c0 .01 0 .02.02.02h.01a.2.2 0 0 1 .04-.02c.03-.01.04 0 .02.02l-.04.02a.07.07 0 0 0-.05.03Z" fill="#FFF302"/><path d="M7.4 4.23a.6.6 0 0 1-.02-.32c0-.03.03-.06.07-.06.03 0 .06 0 .08.04.08.12.16.21.24.27.02.02.02.03 0 .04a.36.36 0 0 0-.12.04c-.03.02-.04 0-.04-.02 0-.06-.04-.1-.1-.13-.03 0-.03-.02-.01-.04.02-.02.02-.03.01-.04-.06-.07-.09-.06-.09.02v.22c0 .02.01.03.03.03h.02v.02a.05.05 0 0 1-.06.03c-.02 0-.03-.02-.02-.04l.01-.03v-.03ZM6.98 4.13c.07 0 .15 0 .24.04.03 0 .04.03.04.06s-.01.05-.04.04l-.27-.02a.12.12 0 0 1-.1-.07.1.1 0 0 1 .02-.12c.06-.07.16-.1.27-.09.02 0 .02 0 .03.02v.03c0 .02 0 .03-.02.02-.09-.03-.15-.03-.2 0-.1.06-.1.09.03.09ZM11.1 4.33c-.02.02-.02.06 0 .12 0 .03 0 .04-.03.03a.28.28 0 0 1-.13-.06c-.03-.02-.02-.04 0-.06l.05-.03a.06.06 0 0 0 .04-.05c0-.06.02-.12.06-.17a.04.04 0 0 0 .01-.04v-.03c0-.03 0-.04.03-.02l.23.12c.02.01.04.03.04.06a.3.3 0 0 1 0 .1c-.01.03-.03.05-.06.05-.05 0-.1 0-.16-.03a.07.07 0 0 0-.08.01ZM10.6 4.16c-.02-.02-.02-.03 0-.04l.06-.01h.06c.03 0 .05.01.06.04.01.03 0 .05-.02.05-.06.01-.1 0-.16-.04Z" fill="#030303"/><path d="M11.28 4.26c.04-.03.06-.08.04-.11-.02-.04-.07-.04-.12-.02-.04.03-.06.08-.04.12.02.03.07.04.12.01Z" fill="#FFF302"/><path d="M4.3 9.48c0-.1.02-.13.06-.1.04.63.22 1.23.51 1.79a4.89 4.89 0 0 0 2.8 2.35 4.69 4.69 0 0 0 4.7-7.83A4.58 4.58 0 0 0 8.58 4.3 4.55 4.55 0 0 0 5.5 5.9a4.97 4.97 0 0 0-.95 1.61L4.5 7.5l-.01-.05c.3-.85.79-1.55 1.43-2.1a4.72 4.72 0 0 1 6.73.53 4.75 4.75 0 0 1 .66 5.25c-.01.02 0 .04.03.04h.04v.02a.19.19 0 0 1-.07.02.07.07 0 0 0-.06.04 4.83 4.83 0 0 1-5.1 2.47 4.56 4.56 0 0 1-2.94-1.85 5.24 5.24 0 0 1-.88-1.95l-.05-.44Z" fill="#030303"/><path d="M11.33 4.6a.78.78 0 0 0 .22-.34c0-.03.03-.04.06-.02l.07.04v.04l-.23.36c-.01.01-.03.02-.04 0l-.07-.04c-.02-.01-.02-.02-.01-.03Z" fill="#030303"/><path d="M4.36 9.38a5.6 5.6 0 0 1 .21-1.87 4.97 4.97 0 0 1 2.32-2.7 4.55 4.55 0 0 1 3.54-.31c.72.21 1.36.61 1.94 1.2a4.59 4.59 0 0 1 1.3 4.06 4.69 4.69 0 0 1-9.31-.38Z" fill="#F0F3FA"/><path d="M6.05 4.54h-.02C6 4.57 6 4.58 6 4.6v.02c0 .03 0 .04-.03.03a.1.1 0 0 1-.04-.04c-.02-.03-.01-.05.01-.06l.26-.17a.05.05 0 0 1 .07 0 .2.2 0 0 1 .06.07c.02.02.01.03-.02.02-.06-.03-.1-.03-.14 0-.02.02-.02.04 0 .06l.07.08c.02.01.03.04.04.06 0 .06.04.1.1.11.04 0 .04.02.02.04a.34.34 0 0 1-.13.04c-.03.01-.04 0-.05-.03a.78.78 0 0 0-.14-.27.04.04 0 0 0-.04-.01ZM11.56 4.72c.11-.1.19-.2.22-.31.01-.04.03-.04.06-.02l.06.04c.02.01.02.03.01.04l-.24.33h-.04l-.06-.05c-.02 0-.02-.02 0-.03ZM6.63 4.5c.05-.02.09-.06.08-.08 0-.02-.06-.03-.1 0-.06.01-.1.04-.09.07 0 .02.06.02.11 0Z" fill="#030303"/><path d="M7.92 6.04c0 .04-.03.06-.06.06-.27 0-.5.04-.65.13-.15.09-.26.08-.33-.03a.06.06 0 0 1 0-.06 13.46 13.46 0 0 1 .93-1.52c.35-.1.72-.16 1.1-.16.04 0 .05.01.05.05v.37c0 .03 0 .04-.03.05-.59.14-.92.5-1 1.11ZM10.24 6.07c-.08-.67-.45-1.05-1.12-1.15-.01 0-.02-.01-.02-.03v-.4c0-.02.01-.03.03-.03.37 0 .75.06 1.16.17.05.01.1.05.12.12l.03.07c.3.45.56.9.79 1.34 0 .02 0 .03-.02.05l-.12.07a.07.07 0 0 1-.08 0 1.5 1.5 0 0 0-.74-.19c-.02 0-.03 0-.03-.02Z" fill="#ACD204"/><path d="m12.06 4.92-.03-.05c-.02-.04-.01-.05.02-.05h.1v-.03l-.03-.04a.04.04 0 0 0-.04-.02c-.05.01-.11.06-.19.16-.04.04-.08.04-.12 0l-.04-.04c-.03-.03-.03-.03.01-.01l.07.02a.1.1 0 0 0 .05-.03l.29-.2a.06.06 0 0 1 .07 0c.02.02.03.04.02.07l-.1.42c0 .02-.01.02-.03.01l-.08-.08c-.04-.02-.04-.05 0-.07l.02-.02c.02 0 .02-.02.01-.04Z" fill="#030303"/><path d="M6 5.68c-.03-.02-.03-.04 0-.06.43-.4.93-.7 1.47-.9.06-.01.07 0 .04.05l-.74 1.29c-.02.03-.05.04-.08.02l-.7-.4ZM12.07 5.68l-.68.39c-.03.02-.06 0-.08-.02l-.72-1.26c-.03-.05-.01-.07.04-.05.53.2 1.01.5 1.44.88.03.03.02.04 0 .06Z" fill="#ACD204"/><path d="M5.78 4.98c.03.08.08.12.15.1.02 0 .04 0 .05-.03l.05-.1c.01-.02.03-.02.04 0l.03.03v.03l-.25.19-.03.02-.25-.32c-.03-.05-.04-.07-.02-.08l.1-.05c.03-.02.05-.01.03.03v.05c.02.05.05.06.09.04.05-.02.1-.02.14.01.05.03.05.04 0 .04h-.1c-.03 0-.04.01-.03.04ZM12.3 5.21l.24-.24c.03-.03.06-.03.1 0a.4.4 0 0 0 .13.11v.02l-.02.02h-.01l-.13-.06c-.02-.02-.04-.01-.05.01a.8.8 0 0 1-.17.25h-.06l-.03-.04c-.02-.02-.02-.04 0-.07ZM5.3 5.1c.02-.06.05-.09.1-.1.04-.01.06 0 .05.04l-.02.04-.03.03a.35.35 0 0 1-.1.02c-.02 0-.02 0-.01-.01l.01-.02Z" fill="#030303"/><path d="m10.61 8.27-.02-.02v-.68c0-.03 0-.05.03-.06a.35.35 0 0 1 .11-.04c.06 0 .06-.02.01-.05l-1.62-.87a.14.14 0 0 0-.14 0l-1.6.85c-.08.04-.08.07 0 .1h.06c.02 0 .03.02.03.05l.01.72a1.09 1.09 0 0 1-.7-.6.98.98 0 0 1 .01-.82c.2-.46.6-.67 1.2-.63.03 0 .05-.01.05-.05a1.12 1.12 0 0 1 .56-1 .96.96 0 0 1 1.12.12c.26.2.39.5.38.87 0 .05.03.08.08.07.32-.03.59.04.81.21.2.16.33.36.39.61.05.26.02.5-.1.72-.14.24-.36.4-.67.5Z" fill="#079543"/><path d="M5.53 5.23c.06.02.13.03.2.03.04 0 .04 0 .01.03-.1.09-.21.08-.35-.02-.02-.01-.02-.04 0-.08.02-.02.04-.02.06-.01 0 0 .02 0 .03.02l.05.03ZM5.53 5.45v.03l-.06.06h-.04l-.28-.27c-.02 0-.02-.02 0-.03l.05-.06c.02-.02.04-.02.06 0 .05.1.14.2.27.27ZM12.96 5.41c.02.02.03.03.05.02.04-.01.06 0 .08.03.03.06.07.1.12.13v.05l-.1.04c-.03.01-.04 0-.02-.03.02-.04.02-.07 0-.1-.02-.02-.04-.02-.06 0l-.2.2a.04.04 0 0 0 0 .04s0 .02.02.03h-.05a1.56 1.56 0 0 1-.08-.1c-.02-.02-.02-.04 0-.05l.2-.14c.09-.08.07-.13-.06-.13h-.04c-.03 0-.04 0 0-.03a.42.42 0 0 1 .12-.07c.02 0 .03 0 .04.02v.04c-.02.01-.03.03-.02.05ZM4.8 5.86c.09.07.17.12.24.15.03.01.03.03 0 .05-.05.05-.09.1-.12.17a.07.07 0 0 1-.06.04.3.3 0 0 1-.16-.03.32.32 0 0 0-.18-.04c-.03 0-.04 0-.05-.03a.37.37 0 0 0-.02-.03c-.07-.05-.06-.07.02-.06.14.02.27.04.4.08.04 0 .08-.01.1-.06.01-.03 0-.05-.02-.06a.73.73 0 0 1-.2-.18.05.05 0 0 0-.05-.01h-.03c-.02 0-.03 0-.02-.03l.04-.07a.07.07 0 0 1 .06-.04l.28-.02c.04 0 .05-.02.02-.05a.27.27 0 0 0-.17-.07c-.03 0-.04-.02-.02-.04 0-.03.03-.03.07-.03.03 0 .06.02.07.05.07.08.14.15.23.2v.02l-.01.02-.41.03c-.04 0-.05.02-.01.04ZM12.93 5.93a.76.76 0 0 0 .33-.21c.02-.03.04-.03.06 0l.04.07v.04l-.36.22-.04-.01-.04-.08v-.03Z" fill="#030303"/><path d="M6.04 7.53a.09.09 0 0 0-.09 0 .09.09 0 0 0-.04.09c.02.43-.04.86-.17 1.28 0 .02-.02.04-.05.04H4.55c-.03 0-.05-.02-.05-.05.04-1.2.48-2.24 1.32-3.1.03-.03.06-.03.1-.01l.72.42c.03.01.04.04.03.06l-.48 1.3c0 .01-.02.02-.04 0l-.11-.03ZM12.1 7.52a.25.25 0 0 0-.11.04.07.07 0 0 1-.06 0 .07.07 0 0 1-.05-.05 7.68 7.68 0 0 0-.47-1.28l.7-.45c.05-.03.1-.03.14.02a4.6 4.6 0 0 1 1.31 3.09c0 .03-.02.05-.05.05h-1.09c-.04 0-.06-.02-.08-.06a4.23 4.23 0 0 1-.17-1.29c0-.04-.02-.07-.07-.07Z" fill="#ACD204"/><path d="M13.13 6.22h-.03c-.03-.02-.03-.04 0-.07a.8.8 0 0 1 .33-.24h.03l.01.04-.02.1c0 .02-.02.03-.05.03h-.08a.1.1 0 0 0-.08.04.1.1 0 0 0-.02.09.2.2 0 0 1 0 .1c0 .02-.02.02-.04 0a.1.1 0 0 1-.02-.05.04.04 0 0 0-.03-.04ZM13.42 6.27l.13-.1c.02-.02.04-.02.05 0l.05.06c.02.03.01.05-.02.06a.8.8 0 0 0-.17.08c-.05.03-.1.07-.14.12h-.05l-.05-.07c-.02-.03-.01-.05.02-.06a.64.64 0 0 0 .18-.09ZM4.61 6.37l-.06-.06c-.04-.04-.03-.06.02-.06h.05c.03 0 .04.02.04.05 0 .07.03.13.12.18v.03l-.03.01h-.02a.3.3 0 0 1-.11-.14l-.01-.01Z" fill="#030303"/><path d="M7.44 8.38v.56H6.31c-.05 0-.07-.02-.06-.07.1-.42.12-.75.06-.97-.03-.12-.04-.2-.02-.25l.48-1.28c0-.03.02-.04.05-.03.03 0 .06.02.08.04.03.02.03.04.01.06-.3.36-.4.74-.3 1.12.11.39.38.66.83.82ZM10.62 8.95v-.57c.37-.1.62-.29.76-.56.26-.5.2-.97-.2-1.38-.02-.03-.02-.06.01-.08.04-.02.08-.03.11 0a9.58 9.58 0 0 1 .46 1.2.6.6 0 0 1 .02.37.93.93 0 0 0-.04.33l.12.63c0 .03 0 .05-.04.05h-1.2Z" fill="#ACD204"/><path d="M13.79 6.53a.74.74 0 0 0-.35.17c-.02.03-.04.02-.06 0l-.03-.08c-.01-.02 0-.03.01-.03l.36-.18c.02 0 .03 0 .04.02l.04.07-.01.03ZM4.25 6.53c-.05.02-.06.05-.04.1.11.18.24.23.38.15.04-.02.05-.01.02.03-.06.08-.15.12-.25.1a.26.26 0 0 1-.2-.2.19.19 0 0 1 .06-.2c.13-.13.26-.11.4.06l.05.1-.01.02h-.02c-.18-.13-.31-.19-.4-.16Z" fill="#030303"/><path d="M3.67 6.53a6.03 6.03 0 0 0-.28 4.18.15.15 0 0 1-.08.01.52.52 0 0 0-.06-.17.12.12 0 0 1-.02-.06c0-.06-.02-.15-.05-.27A5.76 5.76 0 0 1 3 8.73l.05-.45c.07-.6.22-1.17.47-1.7l.03.02c.02.02.04.02.05 0 .02-.04.04-.06.06-.07Z" fill="#3F3E3B"/><path d="m10.61 8.27-.03.02c-.01.01-.02.03 0 .05 0 .02.02.03.05.04l-.01.57-.01.12a.11.11 0 0 1-.08.03l-.03-1.54c0-.05-.03-.08-.09-.08H7.66c-.06 0-.1.03-.1.09v1.47a.1.1 0 0 1 0 .05l-.02.03c0 .02.01.03.04.03H9.55c.02.03.06.03.13 0h.84c.05-.02.08-.02.1 0 .01.03 0 .05-.02.06-.12.03-.24.05-.37.05a16.98 16.98 0 0 0-1.28 0h-1.4c-.07 0-.1-.03-.1-.1a.3.3 0 0 0 0-.1.15.15 0 0 0 0-.12l-.01-.56c.05-.06.06-.1.04-.1l-.01-.73c0-.03-.01-.04-.03-.05h-.05c-.09-.03-.09-.06-.02-.1l1.6-.85c.06-.03.1-.03.15 0l1.62.87c.05.03.05.04 0 .05a.35.35 0 0 0-.12.04.06.06 0 0 0-.03.06v.68l.02.02Z" fill="#D60C19"/><path d="m13.57 6.88.02.02c0 .02 0 .03-.02.03-.04 0-.06-.01-.08-.04-.02-.02-.02-.04 0-.06l.14-.15c.03-.03.06-.04.1 0v.01l-.01.02a.19.19 0 0 0-.15.11v.06Z" fill="#030303"/><path d="M9.34 6.8h-.61l-.02.01v.03c0 .02 0 .03.03.03l.65-.01c.05 0 .1.02.16.05 0 .02-.02.04-.04.05L8.43 7c.05.02.05 0-.01-.04.1-.04.24-.12.44-.23.16-.1.32-.07.48.07Z" fill="#FFF302"/><path d="M13.86 7.07c.04-.07.02-.1-.05-.06a.9.9 0 0 0-.2.1c-.01.02-.02.01-.03 0l-.01-.02.01-.03.33-.14c.1-.05.14-.02.09.08l-.16.35c0 .02-.03.03-.07.04h-.06a.03.03 0 0 1 0-.05l.15-.27ZM4.16 7.02a.1.1 0 0 0-.07 0l-.05.02C4 7.05 3.99 7.04 4 7c.01-.03.03-.05.07-.07.12-.05.23 0 .33.15.01.01.02.03.01.05v.02h-.03a.77.77 0 0 0-.22-.14Z" fill="#030303"/><path d="M8.42 6.96c.06.05.06.06 0 .04l1.11.02.02-.01v-.02a.1.1 0 0 0-.04-.03.13.13 0 0 0 .04-.05l.86.46c.04.02.04.03 0 .03l-.1-.01a.17.17 0 0 0-.07-.01H7.73c-.05 0-.05-.01-.01-.04l.7-.38Z" fill="#ACD204"/><path d="m4.15 7.22.18.06c.03 0 .04.02.03.05l-.04.07c-.01.02-.03.03-.05.01a.99.99 0 0 0-.33-.15c-.04 0-.05-.02-.03-.05l.04-.07c0-.02.03-.02.05 0l.15.08ZM13.93 7.29c.08-.01.13-.04.15-.07.03-.06.06-.06.07.02 0 .01-.02.03-.05.04a.41.41 0 0 1-.07.02h-.1c-.02 0-.02-.01 0-.01Z" fill="#030303"/><path d="M3.54 7.37c.02.06.04.09.07.1a6.08 6.08 0 0 0-.18 2.16.23.23 0 0 0-.09-.01v.02l-.01-.2c-.06-.7.02-1.4.21-2.07ZM4.5 7.45l.01.05c0 .01.02.02.04.01h.02a5.6 5.6 0 0 0-.21 1.87c-.04-.03-.06 0-.07.1l-.02-.04c-.08-.7 0-1.36.23-2Z" fill="#3F3E3B"/><path d="M10.53 9.1v.05h-.85v-1.2c0-.04-.02-.07-.06-.07H8.46c-.06 0-.09.03-.08.1v1.17h-.8c-.03 0-.04 0-.04-.03l.01-.03a.1.1 0 0 0 .02-.05V7.57c0-.06.03-.1.09-.1h2.75c.06 0 .1.04.1.1l.02 1.53Z" fill="#F0F3FA"/><path d="M10.7 12.33c.07-.45.03-.9-.12-1.35.14-.43.32-.79.54-1.08.1-.12.13-.1.1.05-.01.1-.06.25-.15.43a1.73 1.73 0 0 0-.2.74c0 .29.07.3.22.07.1-.16.26-.4.48-.7.2-.29.33-.5.37-.66.08-.26.1-.51.07-.76l-.12-.67c-.04-.22-.04-.4.01-.51.14-.31.2-.3.15.03l.04.35.16.82c.06.26.08.56.07.92a2.72 2.72 0 0 1-.75 1.87c-.25.26-.54.41-.88.45ZM7.54 11.02c-.2.4-.24.84-.15 1.32-.46-.09-.81-.31-1.07-.67a3.08 3.08 0 0 1-.55-2.21 5.58 5.58 0 0 0 .26-1.7c0-.04.01-.05.04-.05.04 0 .07.02.09.06.09.24.07.63-.05 1.17-.08.34-.04.7.12 1.08.05.11.15.27.3.46.08.1.23.34.47.7l.15.18h.03c.02 0 .02 0 .02-.02.03-.26 0-.52-.1-.77l-.17-.46a.73.73 0 0 1-.04-.19c0-.1.03-.1.09-.02a4 4 0 0 1 .56 1.12Z" fill="#079543"/><path d="M9.68 9.15c-.07.03-.11.03-.13 0v-1.1c0-.03-.01-.04-.04-.04h-.96c-.02 0-.03 0-.03.03v1.1a.25.25 0 0 0-.13.01l-.01-1.18c0-.06.02-.09.08-.09h1.16c.04 0 .07.03.07.07l-.01 1.2Z" fill="#E07852"/><path d="M9.55 9.15H8.51V8.04c0-.02.02-.03.04-.03h.96c.03 0 .04 0 .04.04v1.1Z" fill="#F0F3FA"/><path d="m3.62 9.37.1.07c.02.02.02.03-.02.02-.07 0-.11-.04-.14-.1a.2.2 0 0 1 .01-.18.24.24 0 0 1 .13-.1.24.24 0 0 1 .16-.02c.06.02.11.06.14.12.01.03 0 .03-.02.02a.4.4 0 0 0-.26-.02.16.16 0 0 0-.12.08c-.02.05-.01.09.02.11Z" fill="#030303"/><path d="M4.5 9.12c0-.04.02-.06.06-.06h1.1c.04 0 .05.02.04.06-.22 1.04 0 1.97.65 2.79v.03l-.47.3h-.02A4.53 4.53 0 0 1 4.5 9.13ZM7.44 9.07a.3.3 0 0 1 .02.1c0 .06.02.09.08.09h1.41c0 .03 0 .06.02.1h-1.6c-.05 0-.07.01-.07.06v.1c0 .04.02.06.06.06h1.6v.58c-.38.02-.7.13-.95.34l-.39.39c-.2-.6-.43-1-.69-1.2a.1.1 0 0 0-.1-.02.1.1 0 0 0-.06.08c-.02.17 0 .32.05.46l.1.22c.08.2.13.37.14.5.02.09 0 .1-.06.01a7.6 7.6 0 0 0-.24-.34c-.21-.29-.35-.5-.42-.66a1.59 1.59 0 0 1-.14-.83c0-.03.02-.05.06-.05h1.18ZM10.61 9.07h1.22c.04 0 .05.01.06.05.03.28 0 .55-.1.82-.06.12-.2.33-.41.62a8.15 8.15 0 0 0-.34.43c-.03-.11.03-.33.18-.65l.02-.03c.09-.2.12-.39.08-.57a.1.1 0 0 0-.06-.07.1.1 0 0 0-.1.01l-.14.16c-.25.34-.43.7-.55 1.1a1.74 1.74 0 0 0-1.36-.79v-.57h1.6c.04 0 .07-.02.07-.07v-.08c0-.05-.03-.08-.08-.08H9.14l-.01-.09a17 17 0 0 1 1.1 0c.13 0 .25-.02.37-.05.02-.01.03-.03.02-.05-.02-.03-.05-.03-.1-.01V9.1c.04 0 .07-.01.1-.03ZM13.57 9.13a4.51 4.51 0 0 1-1.37 3.11l-.46-.3c-.02 0-.02-.02 0-.04.64-.8.86-1.73.64-2.77-.01-.04 0-.06.04-.06h1.1c.04 0 .06.02.05.06Z" fill="#ACD204"/><path d="m14.46 9.2.04.07v.01l-.2-.07a.05.05 0 0 1-.03-.04c0-.02 0-.03.03-.04.05-.03.1-.04.18-.02.04 0 .04.02 0 .04l-.01.01c-.02.01-.03.03-.01.05ZM14.2 9.5c-.16-.04-.22-.15-.18-.33l.05-.05c.05-.01.08 0 .11.02.04.02.03.03 0 .03h-.07a.06.06 0 0 0-.06.04c-.04.08-.01.13.08.17.1.04.18.06.22.04.18-.06.19-.04.04.07-.07.06-.19.1-.36.15-.03 0-.04 0-.04-.04v-.02c.02-.03.03-.04.06-.03.07.01.13 0 .16-.01.04-.02.03-.04 0-.04ZM4 9.3c.05 0 .07.02.05.06l-.01.02c0 .02-.01.03-.02.03a.1.1 0 0 1-.08.01c-.03 0-.04-.03-.03-.06.02-.03.05-.05.1-.05Z" fill="#030303"/><path d="M8.97 9.35h1.73c.05 0 .08.03.08.08v.08c0 .05-.03.07-.07.07H7.36c-.04 0-.06-.02-.06-.07v-.1c0-.04.02-.06.06-.06h1.61Z" fill="#D60C19"/><path d="M4.11 9.74c0 .02-.03.05-.07.12a.24.24 0 0 1-.2.1.26.26 0 0 1-.2-.08l-.01-.04c0-.03 0-.04.03-.02.1.06.2.06.3 0 .08-.05.1-.1.07-.16-.01-.02-.04-.03-.1-.04-.12 0-.21.03-.27.11-.02.02-.02.02-.03 0l-.01-.06.01-.04c.13-.14.26-.15.4-.04a.1.1 0 0 1 .02.05c.01.03.03.05.06.06.02 0 .04 0 .05-.03a.09.09 0 0 1 .05-.05c.04 0 .06 0 .04.05l-.08.03a.1.1 0 0 0-.06.04Z" fill="#030303"/><path d="M9.11 9.58v.57a.25.25 0 0 1-.15 0v-.57h.15Z" fill="#F0F3FA"/><path d="m14.15 9.94.06.02h.02a.4.4 0 0 1 .15-.03c.03 0 .04.02.03.05-.01.02-.03.03-.06.02a3.7 3.7 0 0 1-.41-.08v-.03l.44-.28a.05.05 0 0 1 .05 0l.04.02-.01.03c-.09.09-.2.16-.32.22-.01 0-.02.01-.02.03 0 .02.01.03.03.03ZM3.9 10.45c-.01.02-.03.03-.06.02l-.04-.01c-.04-.01-.04-.03-.02-.06l.2-.27.02-.04c0-.05.04-.08.11-.08.03 0 .03.02.02.04l-.23.4ZM13.88 10.2l-.07-.04c-.02-.01-.02-.03 0-.04l.02-.02h.02c.03.02.05.05.05.08 0 .02 0 .02-.02.02ZM14.03 10.3c0 .02.01.03.03.05.04.02.1.03.18.04.03 0 .05.03.05.07v.03c0 .03-.01.04-.05.03a.72.72 0 0 1-.24-.17.1.1 0 0 0-.06-.04 2.85 2.85 0 0 0-.23-.04c-.01-.01 0-.02.01-.03l.61-.1c.03 0 .05 0 .04.03 0 .02-.02.04-.05.06a.33.33 0 0 1-.23.04c-.03 0-.05 0-.06.04Z" fill="#030303"/><path d="M9.1 10.15c.6.05 1.05.32 1.37.79.03.03.06.05.1.04.16.45.2.9.12 1.35a.14.14 0 0 0-.04.14l-.1.17-.13.22c-.2.28-.49.49-.83.62-.34.12-.69.13-1.04.04-.5-.2-.85-.52-1.05-.95a.5.5 0 0 0-.06-.1c0-.03-.01-.08-.05-.13-.1-.48-.04-.92.15-1.32.05 0 .08-.05.08-.13.2-.2.33-.34.4-.39.24-.2.56-.32.94-.34h.15Z" fill="#71C5EE"/><path d="M4.25 10.72c.01-.05 0-.1-.04-.12a.11.11 0 0 0-.13-.02l-.22.12c-.02.01-.04 0-.03-.02.02-.1.08-.17.18-.2.1-.02.18 0 .25.09a.1.1 0 0 1 .02.07c0 .06.02.11.04.15.02.03.01.04-.02.04h-.04c-.02 0-.04-.01-.03-.04l.02-.07Z" fill="#030303"/><path d="m8.5 10.6-.01-.02v-.03c0-.03.18-.04.55-.04h.02c.37 0 .55.01.55.04v.03l-.01.02H8.5Z" fill="#F0F3FA"/><path d="M14.01 10.7c.08-.03.08-.06 0-.09a.9.9 0 0 0-.2-.06c-.02 0-.03-.01-.02-.02v-.03c.01-.01.02-.02.03-.01l.34.13c.1.05.1.09 0 .13l-.36.12c-.02.01-.04 0-.08-.02h-.02a.03.03 0 0 1-.01-.04c0-.02 0-.03.02-.03l.3-.09Z" fill="#030303"/><path d="m8.25 10.77-.01-.01c0-.03.05-.05.14-.06a2 2 0 0 1 .34-.03h.65a2 2 0 0 1 .34.03c.1.01.15.03.15.06H8.25Z" fill="#F0F3FA"/><path d="M3.92 10.85a.4.4 0 0 0 .13-.05c.03-.01.05 0 .07.02v.03c.03.04.02.06-.02.08-.11.04-.18.02-.2-.04 0-.02 0-.04.02-.04Z" fill="#030303"/><path d="M9.56 10.94H9l-.93-.01c-.03 0-.04-.02-.03-.05l.01-.02.03-.01h1.91l.03.01.03.05c0 .01 0 .02-.02.02l-.47.01Z" fill="#F0F3FA"/><path d="M9.56 10.94V11c0-.02-.02-.01-.03.03v.02l.18.28.03.06c0 .03.01.05.03.07l.07.1c.13.24.3.5.48.76.02-.01.03.02.01.08l-.8.01a6.39 6.39 0 0 1-.5-.77.3.3 0 0 0-.3-.16c-.03 0-.04 0-.05-.02v-.05c.1-.16.23-.23.4-.2.1.02.17.1.22.21l.5.83.1.08c.02 0 .02 0 0-.02a135 135 0 0 1-.6-.96c-.05-.09-.11-.14-.19-.17a.6.6 0 0 0-.27 0v-.06l.11-.08c.03 0 .04-.04.04-.1h.57Z" fill="#005B9E"/><path d="M9.56 11h.53a.1.1 0 0 1 .05.02l.04.02c.02.01.02.02.02.04s-.02.03-.03.03h-.48c-.02 0-.03 0-.02.02l.03.04.02.01h.5a.1.1 0 0 1 .08.05v.02c.03.04.02.05-.02.05H9.8v.01l-.02.02.01.03.54.03h.02l.02.04v.03l-.02.01h-.43l-.01.01v.03h.01l.42.03c.04 0 .06.02.07.06v.03c.01.05 0 .07-.06.07H10.06l-.01.04c0 .01.01.02.03.02h.29c.03 0 .04.01.05.04.02.22-.01.4-.1.52a6.98 6.98 0 0 1-.6-.99l-.19-.28v-.02c.02-.04.02-.05.03-.03ZM8.95 11.04l-.1.08-.95-.02c-.01 0-.02 0-.02-.02v-.02c0-.03.01-.04.03-.04a88.8 88.8 0 0 0 1.02 0l.02.02Z" fill="#F0F3FA"/><path d="M4.34 11.05c-.02 0-.02-.02 0-.02.05-.02.08 0 .1.02.05.04.04.06-.03.06a.27.27 0 0 1-.07-.06ZM4.54 11.7h.07c.07-.07.13-.07.18-.01.03.02.02.03-.01.03a.68.68 0 0 0-.42.07c-.02.01-.04 0-.05-.01-.02-.02-.01-.04 0-.06.09-.07.16-.16.23-.28a.06.06 0 0 0 0-.06l-.06-.08c-.02-.04-.05-.04-.08-.03l-.27.15-.03-.01-.02-.03c-.01-.03 0-.06.02-.07l.32-.17c.04-.02.07-.01.08.04.04.1.09.2.16.29.03.03.01.05-.04.07-.04.01-.07.05-.1.12 0 .02 0 .04.02.04Z" fill="#030303"/><path d="m9.54 12.41.02.04v.04l-.03.01c-.03-.04-.06-.06-.11-.05v-.05c.02-.03.02-.05-.02-.07a43.91 43.91 0 0 0-.4-.65c-.08-.14-.2-.19-.36-.15a.08.08 0 0 0-.05.05l-.22.31-.03.07c0 .03.03.04.06.06a.14.14 0 0 0-.04.02l-.18-.22c.05-.07.12-.1.22-.09.02 0 .02 0 .01-.01l-.01-.02h-.7c-.03 0-.04-.01-.05-.03a.05.05 0 0 1 0-.06l.02-.03a.05.05 0 0 1 .04-.03l.83-.02.02-.01v-.02c.02-.02.01-.02 0-.02h-.84l-.03-.02v-.03l.02-.03.01-.02.91-.02.01-.01.02-.03c0-.02 0-.03-.02-.03h-.85c-.01 0-.02 0-.02-.03v-.04c0-.02 0-.03.03-.03l1.04-.02a.6.6 0 0 1 .27.01c.08.03.14.08.2.17a137.03 137.03 0 0 0 .58.98.21.21 0 0 1-.08-.08 34 34 0 0 1-.5-.83c-.06-.12-.14-.19-.23-.2-.17-.04-.3.03-.4.2v.04l.04.02a.3.3 0 0 1 .3.16c.17.29.34.54.52.77Z" fill="#F0F3FA"/><path d="M13.59 11.35c.12.02.2.08.26.18v.06c-.02.03-.03.03-.05 0l-.21-.24ZM13.43 11.6h-.06c-.04.02-.05 0-.03-.03.01-.03.04-.05.08-.06.13-.03.24.04.32.22v.05l-.01.02h-.03a.82.82 0 0 0-.2-.18.1.1 0 0 0-.07-.02Z" fill="#030303"/><path d="m9.41 12.4-.62-.01-.03.01v.02c.1 0 .16.05.16.13H7.84l-.02-.03.01-.03.05-.03c0-.01.02-.02.04-.01l.34.02.41-.04c.03 0 .04-.02.04-.05v-.03c0-.03.01-.05.03-.06a.3.3 0 0 0 .1-.14l.08-.07c.02-.02.04-.02.06 0H9c.02.01.02.02.01.03a.4.4 0 0 1-.12.11c-.02.01-.02.02-.01.04l.01.02c.09 0 .14-.03.14-.11a.2.2 0 0 1 .05-.11c.03-.03.02-.04-.01-.05-.11 0-.19.05-.23.14l-.18.16c-.02.03-.05.02-.07 0L8.4 12c-.03 0-.05-.02-.06-.05 0-.02 0-.04.03-.07.08-.1.16-.2.22-.31a.08.08 0 0 1 .05-.05c.16-.04.28.01.36.15a43.9 43.9 0 0 1 .41.72Z" fill="#005B9E"/><path d="M13.65 11.88v.03l-.04.07c0 .01-.02.02-.04 0l-.34-.2c-.02 0-.02-.01-.01-.03l.04-.06c.02-.03.04-.04.06-.01.07.09.18.15.33.2Z" fill="#030303"/><path d="M8.07 11.84a.57.57 0 0 0-.14.22c-.01.02 0 .04.02.06l.13.1c.05.05.07.1.05.14v.02c-.2-.26-.31-.3-.35-.1-.1-.05-.15-.2-.14-.46 0-.03.01-.05.04-.05.24-.05.37-.02.4.07Z" fill="#F0F3FA"/><path d="m8.19 11.82.17.22c.04.09.1.17.18.25.02.01.02.03.01.05 0 .03-.02.04-.04.04l-.28.03-.1-.05c.02-.05 0-.1-.05-.14a2.2 2.2 0 0 0-.13-.1c-.02-.02-.03-.04-.02-.06a.57.57 0 0 1 .14-.22c.02-.02.06-.03.12-.02Z" fill="#005B9E"/><path d="m4.68 12.24.01.04.1.06c.13.05.12.06 0 .04a.2.2 0 0 1-.18-.15.2.2 0 0 1 .07-.22c.15-.13.28-.13.37.02.02.03.01.03-.01.02-.17-.07-.3-.01-.36.2Z" fill="#030303"/><path d="M8.84 12.15c.04-.1.12-.14.23-.13.03 0 .04 0 .02.04a.2.2 0 0 0-.06.1c0 .09-.05.13-.14.12l-.01-.02.01-.04a.4.4 0 0 0 .12-.1v-.03l-.03-.02h-.06l-.08.08Z" fill="#E07852"/><path d="M13.03 12h.02l.01.02c.25.16.36.25.35.27l-.04.06c-.01.01-.14-.06-.38-.23h-.01v-.03l.05-.08Z" fill="#030303"/><path d="m8.4 12.02.2.28c.01.03.04.04.06.01l.18-.16a.3.3 0 0 1-.1.14.07.07 0 0 0-.03.06v.03c0 .03-.01.05-.04.05l-.4.04c-.02 0-.03 0-.04-.02-.01-.01-.02-.03 0-.04l.28-.03c.02 0 .04-.01.04-.04.01-.02 0-.04-.01-.05a.63.63 0 0 1-.18-.25l.04-.02Z" fill="#E07852"/><path d="M7.44 12.47a.5.5 0 0 1 .06.1c.2.43.55.75 1.05.95a4.28 4.28 0 0 1-2.57-1.16c-.02-.01-.01-.02 0-.03l.47-.3h.03c.26.25.58.4.96.44ZM9.59 13.48c.34-.13.62-.34.83-.62.04-.04.08-.11.13-.22l.1-.17c.36-.03.68-.18.96-.45h.03l.45.32v.02a4.6 4.6 0 0 1-2.07 1.09c-.15.04-.3.05-.43.03Z" fill="#ACD204"/><path d="M5.08 12.13c.01 0 .02 0 .02.02v.04c0 .02-.02.03-.04.03a.1.1 0 0 1-.04 0c-.04-.02-.04-.04-.01-.08h.07Z" fill="#030303"/><path d="m8.13 12.38-.34.02c-.03 0-.05-.01-.05-.04s.01-.06.05-.08c.03-.2.14-.16.34.1Z" fill="#005B9E"/><path d="M12.81 12.32v-.03l.04-.07c.02-.01.03-.02.04 0l.33.24c.01 0 .02.02 0 .03l-.04.07c-.02.03-.04.02-.06 0a.74.74 0 0 0-.31-.24ZM5.31 12.48a.07.07 0 0 0 0-.08.07.07 0 0 0-.07-.04c-.17.02-.26.1-.27.27 0 .03 0 .03-.02 0-.04-.08-.05-.14-.04-.18a.2.2 0 0 1 .09-.13c.05-.03.1-.04.16-.03.14 0 .21.08.2.21 0 .11-.07.2-.21.25h-.07l-.05-.03c-.03-.02-.03-.04 0-.04.12-.03.21-.1.28-.2ZM5.44 12.32h.04l.02.01-.01.02h-.05c-.02-.01-.02-.02 0-.03Z" fill="#030303"/><path d="M9.42 12.4v.05c-.18-.02-.28 0-.3.07-.04.07-.1.08-.2.03 0-.08-.06-.12-.16-.12v-.03l.03-.01.63.01Z" fill="#E07852"/><path d="m12.44 12.78-.02.04v.02a.05.05 0 0 1-.04.01.1.1 0 0 1-.04-.02c-.02-.01-.02-.03 0-.04l.35-.36c.03-.03.06-.03.08 0l.27.26c.02.02.02.03 0 .05l-.04.04h-.03l-.23-.23c-.02-.02-.04-.02-.05 0l-.16.1v.02l.29.29-.01.03a.23.23 0 0 1-.1.03c-.03 0-.05 0-.06-.04a.43.43 0 0 0-.16-.2c-.01-.02-.03-.02-.05 0Z" fill="#030303"/><path d="M9.42 12.45c.04 0 .08 0 .1.05l-.01.03c-.15 0-.26.02-.36.04l-.03-.05c.01-.07.11-.1.3-.07Z" fill="#005B9E"/><path d="M8.92 12.55c.1.05.16.04.2-.03l.03.05c-.18.04-.38.06-.6.06a.94.94 0 0 1-.47-.08h.84Z" fill="#F0F3FA"/><path d="M5.56 12.7a.07.07 0 0 1-.01-.03c0-.02 0-.02.02-.01.07.03.12.06.16.11.02.02.02.04-.01.04h-.04c-.02-.02-.04-.02-.05 0l-.2.25c-.02.03-.05.03-.09.01h-.02c-.03-.02-.03-.05 0-.07l.23-.24c.02-.02.02-.04 0-.06Z" fill="#030303"/><path d="M8.63 12.91c.2 0 .36-.02.36-.05 0-.03-.16-.05-.36-.05-.2 0-.36.03-.36.05 0 .03.16.05.36.05Z" fill="#F0F3FA"/><path d="M5.66 12.96a.25.25 0 0 0 .1-.1h.04l.05.05v.02a.25.25 0 0 1-.2.11c-.05 0-.06-.02-.03-.07l.04-.01Z" fill="#030303"/><path d="M11.95 12.92c0 .03 0 .06.02.06.01 0 .03-.02.03-.05l-.01-.07c-.02 0-.03.03-.04.06Z" fill="#3F3E3B"/><path d="M5.66 13.28c.1-.1.18-.2.21-.31.01-.04.03-.04.06-.02l.06.04v.04l-.23.32h-.04l-.06-.05v-.02Z" fill="#030303"/><path d="M9.29 13.1c.19 0 .34-.02.34-.05 0-.04-.15-.07-.34-.07-.2 0-.35.03-.35.06 0 .04.15.07.35.07Z" fill="#F0F3FA"/><path d="M12.23 13.18a.42.42 0 0 0-.17-.14c-.04-.02-.04-.03 0-.04.15-.03.25.04.32.21 0 .03 0 .06-.05.07-.02.01-.04 0-.06-.01l-.02-.04a.27.27 0 0 0-.02-.05ZM6.33 13.52c.1-.02.1-.05.01-.07-.05-.01-.08.01-.1.08l-.02.02-.1.07c-.02 0-.03 0-.04-.02l-.01-.02a.07.07 0 0 0-.03-.03l-.16-.06c-.03 0-.04-.03 0-.05.07-.05.1-.1.1-.14 0-.03 0-.05.03-.06.05-.03.07-.06.08-.1 0-.02.02-.03.05-.02l.1.03c.04.02.04.04-.01.05l-.04.01a.08.08 0 0 0-.05.05.69.69 0 0 1-.12.2c-.02.02-.02.04 0 .06.04.04.08.05.12.02.13-.11.24-.2.31-.24.03-.02.03-.04.02-.06 0-.01 0-.02-.02-.03v-.02c0-.01.01-.02.02-.01l.09.05c.02.02.02.04-.01.04-.04.01-.07.04-.1.1-.02.02-.01.03 0 .04l.02.01c.02.01.02.03.01.04a.56.56 0 0 0-.04.3c0 .03-.01.04-.04.03a.3.3 0 0 1-.1-.05c-.03-.02-.03-.04 0-.06l.04-.02c.03-.02.03-.04 0-.06l-.05-.03c-.03-.02-.03-.03.01-.04l.03-.01ZM12.24 13.38a.28.28 0 0 1 .05-.03c.05-.02.05-.01.02.02-.09.1-.18.11-.27.06a.31.31 0 0 1-.16-.24c0-.02 0-.03.02-.04l.04-.02c.02 0 .03 0 .04.02.02.12.08.2.19.24.02.01.05 0 .07 0ZM11.62 13.65l-.18-.22v-.03l.18-.1a.2.2 0 0 1 .16-.02c.06.02.1.05.13.1.03.07.04.14.02.22-.01.04-.07.1-.18.15l-.05.03c-.04.02-.06.01-.06-.03v-.03a.1.1 0 0 0-.02-.07Z" fill="#030303"/><path d="m11.8 13.45.06.1c.02.05 0 .1-.07.12-.04.01-.07 0-.08-.05a.3.3 0 0 0-.04-.08.3.3 0 0 0-.06-.07c-.04-.03-.04-.06 0-.09.04-.05.08-.06.12-.02l.07.1Z" fill="#FFF302"/><path d="M6.7 13.65a.47.47 0 0 1-.07.08h-.02v-.05c0-.02 0-.04.02-.04.06-.02.07-.06.04-.12-.01-.04 0-.05.03-.05.07.01.11.05.12.13l.03.18c0 .03.02.04.05.02l.02-.03c.02-.03.03-.03.03 0v.05l-.08.17c0 .02-.02.02-.04 0-.04-.04-.07-.11-.07-.23l-.02-.1c-.01-.03-.02-.03-.04-.01ZM10.93 13.74a.32.32 0 0 1 .25-.2c.05-.01.1.01.13.07.02.04.01.05-.02.03l-.07-.03a.11.11 0 0 0-.07-.02c-.06.01-.1.04-.11.08-.02.05-.02.1.01.15.06.1.11.16.17.18.03.02.03.03 0 .04-.03.01-.07 0-.11-.02-.1-.04-.16-.12-.17-.21 0-.03-.03-.04-.06-.04-.04.02-.09 0-.14-.03-.03-.03-.03-.04.01-.03.04 0 .08.02.13.04.02.02.04.01.05-.01Z" fill="#030303"/><path d="M7.05 13.66a6.61 6.61 0 0 0-.13.05v-.01a.11.11 0 0 1 .06-.07.1.1 0 0 1 .08 0h.01c0 .02 0 .03-.02.03ZM7.48 14a.28.28 0 0 0-.1.12c-.04.09-.06.08-.07-.01 0-.06-.03-.18-.09-.37 0-.03 0-.04.03-.02l.13.04c.04.02.04.04.02.07-.04.04-.06.08-.05.1.02.02.04.04.06.04.03 0 .06 0 .07-.02.1-.1.16-.15.22-.12.03.02.03.04 0 .07l-.04.04a.07.07 0 0 0-.02.06c0 .04-.01.08-.04.1a.06.06 0 0 0-.02.06l.01.08c0 .04 0 .05-.04.04l-.08-.02c-.02 0-.03-.02-.01-.04.02-.04.05-.1.06-.19.01-.04 0-.05-.04-.02ZM10.47 14.1c-.01.13-.07.2-.19.24-.11.03-.2-.02-.26-.14a.2.2 0 0 1-.02-.14c.01-.05.04-.08.08-.1.02 0 .03-.03.04-.08a.1.1 0 0 1 .04-.06c.04-.04.1-.06.15-.08l.02.01.01.02v.03a.4.4 0 0 0-.22.19.07.07 0 0 0 0 .07c.02.04.03.1.04.17 0 .06.04.08.1.07h.02c.06-.01.09-.05.08-.1l-.03-.15a.09.09 0 0 0-.04-.06.07.07 0 0 1-.03-.05c0-.03 0-.05.04-.04.04 0 .08.04.11.1.01.03.03.04.05.04l.03-.01c.05-.04.06-.03.03.02l-.03.02a.04.04 0 0 0-.02.03ZM11.34 13.9l-.1-.06c-.02-.02-.02-.03 0-.06.03-.03.05-.05.07-.05.05.01.08.03.1.08a.1.1 0 0 1-.02.12l-.04.06h-.04c-.02.02-.02.01 0 0l.04-.04c.03-.02.02-.04 0-.06ZM10.46 13.88c-.03-.02-.03-.03 0-.04l.07-.03h.04l.23.12c.07.04.12.09.14.14.01.05 0 .07-.05.04l-.43-.23ZM8.04 13.95c-.1-.03-.15 0-.17.08l-.05.16c-.02.07 0 .11.07.13h.03c.06.02.1 0 .11-.07a.6.6 0 0 0 0-.3c.06 0 .1.03.12.09v.1c-.01.03 0 .04.02.04l.07.01c.01.02.03.02.04 0 .01-.04.01-.1-.01-.15-.01-.03 0-.05.03-.06l.1.01.02.04c0 .01 0 .03-.02.03-.05.03-.06.06-.03.1.02.01.03.04 0 .06-.04.06-.04.1 0 .15.02.02.02.04-.01.05a.26.26 0 0 1-.13 0c-.04-.01-.05-.03-.02-.05a.11.11 0 0 0 .05-.08c0-.03 0-.04-.04-.05l-.04-.01c-.02 0-.04 0-.06.03-.05.12-.17.14-.34.05a.09.09 0 0 1-.04-.06c-.05-.15 0-.27.14-.34a.1.1 0 0 1 .09-.01.2.2 0 0 1 .07.05Z" fill="#030303"/><path d="M8.04 13.95c.02.1.02.2 0 .3-.02.06-.06.09-.12.07h-.03c-.07-.02-.1-.06-.07-.13l.05-.16c.02-.08.08-.1.17-.08Z" fill="#FFF302"/><path d="m9.54 14.07-.03-.01c-.02-.02-.02-.03 0-.05a.15.15 0 0 1 .13-.03c.02 0 .03.02.02.05-.03.1-.02.2.03.29.03.03.06.05.1.06.03 0 .07-.01.1-.04a.05.05 0 0 0 .02-.06.53.53 0 0 1-.02-.18c0-.04.02-.04.04-.02.03.03.03.07 0 .12a.1.1 0 0 0 0 .07l.01.02c.02.02.02.04 0 .06-.12.1-.23.1-.35.01a.07.07 0 0 1-.03-.06v-.2c0-.02 0-.03-.02-.03ZM9.2 14.35l.04.08c.02.03.01.04-.02.04h-.11c-.03-.01-.04-.02-.02-.04l.02-.02v-.02c0-.1 0-.18.03-.27 0-.03 0-.04-.04-.03a.1.1 0 0 0-.04.02c-.02.02-.04.02-.05 0a.1.1 0 0 0-.1-.04c-.03 0-.04.02-.04.05v.33h-.13c-.02 0-.03 0-.02-.02l.07-.28c0-.04 0-.06-.04-.07-.03-.02-.07-.01-.12.02-.03.01-.04 0-.02-.02.02-.05.05-.07.1-.07.2.03.4.03.58 0 .03 0 .05 0 .07.02.1.05.1.12.01.2-.02.02-.02.04 0 .06l.12.12c.02.01.02.03 0 .04h-.1a.06.06 0 0 1-.05-.05c-.02-.07-.06-.1-.11-.11-.05 0-.07.02-.04.06Z" fill="#030303"/><path d="M9.19 14.14c0 .05.03.08.07.09.04 0 .07-.04.07-.08 0-.05-.02-.09-.06-.09-.04 0-.08.03-.08.08Z" fill="#FFF302"/><path d="m10.63 14.1.05.05c.01.02.01.05-.01.07a.11.11 0 0 1-.06.02c-.03 0-.04 0-.03-.03l.02-.09c0-.01.01-.02.03-.01Z" fill="#030303"/></svg>