<!-- by TradingView --><svg width="18" height="18" viewBox="0 0 18 18" xmlns="http://www.w3.org/2000/svg"><path fill="#F0F3FA" d="M0 0h18v18H0z"/><path d="M6.09 6.48a6.45 6.45 0 0 1 2.34-2.45l.4-.03c-.5.42-1.26 1.29-1.26 2.27 0 .34.03.4.58.4h.27c.97-.03 3.77-.1 5.31.66.05.14.1.28.13.43-.5-.14-1.45-.3-2.82-.3-2.27 0-3.32.2-3.32.42 0 .16.46 2.82 2.38 4.47.89.72 1.93 1.1 2.52 1.24a4.32 4.32 0 0 1-1.61-.16c-2.56-.75-4.12-3.34-4.63-4.75-.7.73-.87 2.72-.87 3.76-.1-.1-.21-.2-.3-.32-.13-1.46.1-2.9.22-3.72.04-.28.08-.48.08-.59 0-.3-.75-.37-1.28-.36l.05-.15a10.7 10.7 0 0 1 1.8-.82Z" fill="url(#ap1wg1i0r)"/><path d="M5.51 6.07c.25-.32.97-1.24 2.07-1.87a5 5 0 0 0-2.95 2.33c.27-.18.64-.39.85-.42l.03-.04Z" fill="url(#bp1wg1i0r)"/><path d="M9.21 4c-.1.28-.26.83-.37 1.63 2.52 0 3.98.5 4.5.84A5.01 5.01 0 0 0 9.2 4Z" fill="url(#cp1wg1i0r)"/><path d="m4.08 8 .66.4c-.04.17-.14.66-.14 1.33 0 .83.17 1.6.3 2A4.85 4.85 0 0 1 4.07 8Z" fill="url(#dp1wg1i0r)"/><path d="m4.6 11.27.15-.11.14.56c-.1-.14-.2-.3-.28-.45Z" fill="#4E81BA"/><path d="m11.32 6.74-1.23.74.95-.01c1.37 0 2.31.15 2.82.29a4.82 4.82 0 0 0-.13-.43 7.46 7.46 0 0 0-2.4-.59Z" fill="url(#ep1wg1i0r)"/><path d="m7.95 8.87-1.13.79c.75 1.4 2.15 3.17 4.19 3.77l.03-.01c.5.14 1.03.22 1.58.17a6.92 6.92 0 0 1-2.52-1.24 7.57 7.57 0 0 1-2.15-3.48Z" fill="url(#fp1wg1i0r)"/><path d="M5.68 10.48c-.13.7-.17 1.45-.17 1.96-.1-.1-.21-.2-.3-.32-.04-.43-.05-.86-.04-1.27l.5-.37Z" fill="url(#gp1wg1i0r)"/><path d="m12.03 12.84.02-.02c.34.18.7.31 1.08.36a8.41 8.41 0 0 1-.74-.64 4.87 4.87 0 0 0 1.59-4.1 16.5 16.5 0 0 0-2.01-.22c-.87 0-2.34.07-2.82.41a5.77 5.77 0 0 0 2.88 4.2Z" fill="#112D91"/><path d="M8.22 12.89A9.28 9.28 0 0 1 6.38 11c-.2.63-.35 1.34-.47 1.8.63.47 1.37.82 2.19.96a9 9 0 0 0 3.15.17 5.92 5.92 0 0 1-3.03-1.04Z" fill="url(#hp1wg1i0r)"/><defs><linearGradient id="ap1wg1i0r" x1="4" y1="7.24" x2="9.37" y2="7.19" gradientUnits="userSpaceOnUse"><stop stop-color="#84A9D3"/><stop offset=".37" stop-color="#B0DEEE"/><stop offset="1" stop-color="#5967AE"/></linearGradient><linearGradient id="bp1wg1i0r" x1="4" y1="7.24" x2="9.37" y2="7.19" gradientUnits="userSpaceOnUse"><stop stop-color="#84A9D3"/><stop offset=".37" stop-color="#B0DEEE"/><stop offset="1" stop-color="#5967AE"/></linearGradient><linearGradient id="cp1wg1i0r" x1="4" y1="7.24" x2="9.37" y2="7.19" gradientUnits="userSpaceOnUse"><stop offset=".37" stop-color="#B0DEEE"/><stop offset="1" stop-color="#5967AE"/></linearGradient><linearGradient id="dp1wg1i0r" x1="4" y1="7.24" x2="9.37" y2="7.19" gradientUnits="userSpaceOnUse"><stop stop-color="#84A9D3"/><stop offset=".37" stop-color="#B0DEEE"/></linearGradient><linearGradient id="ep1wg1i0r" x1="7.05" y1="9.23" x2="11.85" y2="13.31" gradientUnits="userSpaceOnUse"><stop stop-color="#4E81BA"/><stop offset=".25" stop-color="#112D91"/></linearGradient><linearGradient id="fp1wg1i0r" x1="7.05" y1="9.23" x2="11.85" y2="13.31" gradientUnits="userSpaceOnUse"><stop stop-color="#4E81BA"/><stop offset=".25" stop-color="#112D91"/></linearGradient><linearGradient id="gp1wg1i0r" x1="7.05" y1="9.23" x2="11.85" y2="13.31" gradientUnits="userSpaceOnUse"><stop stop-color="#4E81BA"/><stop offset=".25" stop-color="#112D91"/></linearGradient><linearGradient id="hp1wg1i0r" x1="7.05" y1="9.23" x2="11.85" y2="13.31" gradientUnits="userSpaceOnUse"><stop stop-color="#4E81BA"/><stop offset=".25" stop-color="#112D91"/></linearGradient></defs></svg>