<!-- by TradingView --><svg width="18" height="18" viewBox="0 0 18 18" xmlns="http://www.w3.org/2000/svg"><path fill="#F0F3FA" d="M0 0h18v18H0z"/><path fill-rule="evenodd" d="M9.6 11.75c.41-.08.76.11 1.03.57.17.29.4.48.68.58a1 1 0 0 0 .84-.06c.48-.26.86-.49 1.13-.68.4-.3.73-.6.95-.94.48-.7.74-1.45.77-2.26a3.98 3.98 0 0 0-.5-2.1 3.55 3.55 0 0 0-1.46-1.47 3.32 3.32 0 0 0-2.14-.34c-.26.04-.53.13-.81.28-.18.08-.43.23-.76.44-.26.17-.46.29-.6.36-.3.17-.56.19-.8.06a2.2 2.2 0 0 1-.57-.53 4.89 4.89 0 0 0-.31-.34c-.12-.11-.24-.2-.35-.25-.3-.13-.64-.08-1.02.15-.44.26-.77.47-1.01.64-.35.25-.6.48-.76.68a4.13 4.13 0 0 0-.67 3.98c.19.56.47 1.03.84 1.43.36.38.78.66 1.26.84.47.18.96.25 1.46.2a3.31 3.31 0 0 0 1.7-.69l.54-.34c.2-.11.39-.18.55-.21Zm-.77-2.33c.32.08.57.28.77.6.3.47.68.67 1.1.58.18-.03.37-.11.58-.24a7.3 7.3 0 0 0 .76-.53c.3-.2.47-.5.52-.86.05-.38-.05-.7-.3-.97-.27-.3-.56-.41-.88-.35-.2.04-.48.19-.85.45a2.9 2.9 0 0 1-.88.45c-.53.11-.95-.08-1.25-.56-.18-.3-.4-.49-.62-.59a.9.9 0 0 0-.81.07l-.05.03c-.56.31-.95.58-1.17.81-.37.4-.45.84-.24 1.32.24.53.58.76 1.01.69.17-.03.37-.1.59-.22a7.82 7.82 0 0 0 .81-.51c.3-.2.6-.25.91-.17Z" fill="#069285"/></svg>