<!-- by TradingView --><svg width="18" height="18" viewBox="0 0 18 18" xmlns="http://www.w3.org/2000/svg"><path fill="#F0F3FA" d="M0 0h18v18H0z"/><circle cx="9" cy="9" r="6" fill="url(#a)"/><path fill-rule="evenodd" d="M9 15A6 6 0 1 0 9 3a6 6 0 0 0 0 12Zm0-.11A5.89 5.89 0 1 0 9 3.1 5.89 5.89 0 0 0 9 14.9Z"/><path fill-rule="evenodd" d="M9 12.88a3.88 3.88 0 1 0 0-7.76 3.88 3.88 0 0 0 0 7.76Zm0-.17A3.71 3.71 0 1 0 9 5.3a3.71 3.71 0 0 0 0 7.42Z"/><path d="M8.44 7.26a8.52 8.52 0 0 0-.5-.73.95.95 0 0 0-.14-.14l-.05-.04c-.04-.04-.03-.05.02-.04.1.03.27.21.5.54l.04.03c.02.02.04.02.04 0v-.01c-.16-.38-.31-.72-.47-1a.5.5 0 0 0-.12-.14c0-.02.02-.02.02-.03.02-.01.04 0 .05.01l.07.1.07.1.39.71c.05.1.1.22.12.34v.06l-.03.02v.02l.17.31c.01.02 0 .03-.01.04l-.03.01c-.02.01-.03 0-.04-.02a.36.36 0 0 0-.1-.14ZM8.66 6.85c.08.09.1.07.06-.03-.06-.2-.15-.42-.25-.63-.02-.04-.01-.05.03-.03l.06.06c.12.22.22.44.3.68.01.03 0 .06-.02.09a.32.32 0 0 0-.05.1c0 .02-.02.03-.03.03l-.03-.01-.32-.43v-.04l.04-.04c0-.02.02-.02.03 0 .05.1.11.18.18.25ZM9.15 6.25l.01-.05c.02-.03.03-.03.03 0 0 .13-.02.24-.06.33-.02.05-.03.05-.03 0 0-.08.01-.15.05-.22v-.06Z" fill="#C3DE6A"/><path d="M9.42 6.54c-.01-.04-.03-.05-.04-.03-.12.15-.22.3-.3.45l-.27.44c-.17.29-.3.6-.4.96-.01.04 0 .05.04.03a.18.18 0 0 0 .08-.1.2.2 0 0 1 .05-.08l.46-.5c.03-.03.02-.05 0-.06a.33.33 0 0 1-.16-.21l.01-.1a.29.29 0 0 1 .04-.04c.02-.02.04-.02.05.01l.05.15c.01.03.02.03.04 0a.35.35 0 0 0 .03-.1c0-.03.02-.05.04-.06.03-.03.05-.02.06.02.02.08-.02.15-.1.19-.02.01-.02.03-.02.05l.01.04c.01.03.02.03.05.02l.12-.08a.07.07 0 0 0 .03-.06c.01-.06 0-.12-.04-.18a.91.91 0 0 1-.06-.18A1.2 1.2 0 0 0 9.14 7l.01-.03.03-.02.03.03a36.32 36.32 0 0 1 .21.43l.03-.01.1-.19c.02-.04.04-.04.06 0 .03.09.01.15-.06.2l-.28.2a5.24 5.24 0 0 0-.97 1.22l-.2.38c-.04.09-.09.09-.13 0a1.77 1.77 0 0 0-.39-.55.84.84 0 0 0-.6-.22c-.1 0-.2.02-.27.07a1 1 0 0 0-.18.17l-.05.06a.4.4 0 0 0-.1.16c-.13.47-.15.94-.07 1.43-.04 0-.07 0-.08-.02a3.32 3.32 0 0 1-.05-.97c.04-.42.17-.7.38-.85.26-.18.52-.21.78-.11.22.09.43.27.6.53.01.07.04.12.07.17.02.02.03.02.04 0l.27-.5a.13.13 0 0 0 0-.14.05.05 0 0 1 0-.06.2.2 0 0 0 .05-.13c0-.06.03-.2.1-.4a4.46 4.46 0 0 1 .72-1.2c.07-.1.16-.2.28-.27.02-.01.03 0 .01.02l-.06.14Z" fill="#C3DE6A"/><path d="M7.74 7.16a8.57 8.57 0 0 0 .15.5c.02.02.05.03.09.03.02 0 .04-.01.05-.04l.03-.17c.01-.03 0-.05-.01-.07l-.24-.26v-.06c0-.02.02-.03.04 0l.07.05c.04.03.05.03.04-.03a1.07 1.07 0 0 0-.1-.2v-.04l.02-.03c.02-.03.04-.02.06 0l.18.37c.01.03.03.03.04 0a.22.22 0 0 0 .04-.12c0-.02.01-.03.02-.03l.04.01c.02.05.02.1-.01.15a.34.34 0 0 0-.03.26c.02.1.06.17.12.24.07.06.08.12.04.16a.1.1 0 0 0-.03.07v.07c-.02.1-.05.1-.08 0a3.45 3.45 0 0 1-.1-.37c-.02-.04-.03-.04-.05 0a.38.38 0 0 0-.04.2l.03.06c.06.06.1.12.12.18.05.09.05.16 0 .21l-.14-.25c-.03-.06-.05-.05-.06.01l-.06.53c-.06-.05-.09-.14-.07-.26.01-.07-.01-.11-.06-.13a.1.1 0 0 1-.05-.05l-.06-.1a.85.85 0 0 0 0-.34l-.06-.3a5.03 5.03 0 0 0-.19-.95h.04l.22.7ZM11.1 6.71a.7.7 0 0 0-.24.18c-.35.22-.6.5-.75.87l-.2.51c-.02.03-.01.05.01.06h.02c.01.02.02.01.03 0l.21-.39.26-.16a.52.52 0 0 1-.15.19c-.04 0-.07.03-.08.07a.63.63 0 0 1-.07.15c-.07.1-.13.25-.19.43-.03.1 0 .11.07.04l.25-.22a6.48 6.48 0 0 1 .54-.15.6.6 0 0 1 .46.12c.02.02.03.04.03.07 0 .05 0 .07-.03.06a.17.17 0 0 1-.04-.02c-.2-.14-.36-.2-.5-.17-.25.04-.5.18-.72.42-.05 0-.09.04-.12.1 0 .03-.03.03-.05.02-.02-.01-.03-.04-.03-.07l-.01-.06-.13-.24a.03.03 0 0 0-.02-.02c-.02 0-.02 0-.03.02a.24.24 0 0 0-.02.12c0 .02-.01.03-.04.03h-.02c-.02 0-.03 0-.03-.02l-.08-.74c0-.04-.02-.05-.05-.01l-.03.05a.16.16 0 0 0-.04.1.4.4 0 0 1-.05.21c-.01.03 0 .04.02.04h.02c.03-.02.05-.02.07 0 .02.01.03.04.02.06 0 .02-.01.04-.03.05-.12.08-.19.17-.21.26l-.09.02c-.02 0-.03 0-.04-.03v-.03l.13-.2a.23.23 0 0 0 .02-.21l-.12-.32a.06.06 0 0 1 .01-.06.06.06 0 0 1 .06-.02c.05.01.07.05.06.11 0 .06.01.07.05.02l.01-.02a.07.07 0 0 1 .05-.04c.06-.02.1-.05.14-.1 0-.02.02-.03.04-.02.02 0 .03 0 .03.02.05.13.06.26.05.4-.01.07.02.12.08.16l.16.14h.02l.02-.02a.07.07 0 0 0 .02-.07c-.03-.1-.03-.2 0-.26l.22-.52c.2-.3.32-.49.38-.55.12-.12.35-.28.7-.47.08 0 .14-.03.2-.07a.1.1 0 0 1 .07-.03 2.36 2.36 0 0 1 .2.03l.02.02c0 .01 0 .02-.02.03-.04 0-.08 0-.12-.02h-.07l-.32.15ZM10.1 6.61l-.3.4c-.02.02-.04.01-.06-.03.08-.17.2-.3.36-.41h.02l.01.02c0 .02 0 .03-.02.02ZM10.32 6.65a.69.69 0 0 0-.23.32.7.7 0 0 1-.15.24h-.06c-.02 0-.03-.02-.01-.05l.28-.46.14-.09c.02 0 .03 0 .03.02v.02Z" fill="#C3DE6A"/><path d="m11.1 6.71-.6.87.01.03h.03c.38-.27.71-.43 1.02-.47.01 0 .03 0 .04.02.02.01.02.02 0 .03h-.07c-.4.13-.77.32-1.1.59l-.25.16.68-1.05a.7.7 0 0 1 .25-.18Z" fill="#7A9B3C"/><path d="M10.06 7.3c-.29.13-.55.3-.77.5-.03.03-.05.02-.07 0v-.02l-.01-.03a13.77 13.77 0 0 0 .76-.5l.26-.14h.03c.02 0 .03-.02.04-.04a.53.53 0 0 1 .23-.27c.05-.04.06-.03.03.03-.12.2-.29.36-.5.47ZM9.68 6.98a.8.8 0 0 0 .11.26v.02l-.04.02-.02-.01-.18-.44c.02-.02.04-.04.06-.03l.03.04.04.14Z" fill="#C3DE6A"/><path d="M6.59 6.89c.16.08.31.17.46.27l.03.04.04.05c.25.2.46.47.6.8l.07.1a.1.1 0 0 0 .05.05c.05.02.07.06.06.13-.02.12 0 .21.07.26.02.04.03.1.02.17-.06 0-.12-.05-.18-.17a1.2 1.2 0 0 0-.36-.77c-.2-.34-.45-.6-.76-.81a.64.64 0 0 0-.28-.1H6.4l-.02-.04v-.02l.2.04Z" fill="#7A9B3C"/><path d="m10.04 7.58-.3.68-.04.02-.03-.01a.16.16 0 0 1-.05-.1 2.56 2.56 0 0 1-.01-.38.08.08 0 0 0-.03-.06l-.02-.03c0-.02.02-.04.04-.05a.31.31 0 0 0 .16-.1c.01-.02.03-.03.06-.02l.02.01c.01 0 .02.02 0 .04a.48.48 0 0 0-.07.18c0 .02 0 .03.02.03h.03l.26-.45.07-.04h.03v.05a.88.88 0 0 0-.13.23Z" fill="#C3DE6A"/><path d="m11.55 7.36.03.01c.01.01.02.02.01.03 0 .02 0 .03-.02.03-.23.09-.45.2-.66.36a.13.13 0 0 0-.04.06h-.22c.28-.2.57-.36.9-.49Z" fill="#7A9B3C"/><path d="M8.93 7.65c.01 0 .02 0 .02.02 0 .08-.04.1-.12.07h-.02l-.01.03c0 .04 0 .07-.03.1-.02.03-.04.03-.06 0-.03-.1 0-.16.06-.2l.02-.03.01-.12c0-.01.01-.02.03-.02l.03.01.04.1c0 .02.01.03.03.04ZM7.45 7.82c.22.24.34.5.36.77a5.92 5.92 0 0 0-.32-.54.87.87 0 0 0-.3-.26c-.14-.08-.26-.05-.33.07-.08.13-.15.28-.2.46l-.03.04c-.03.02-.05.02-.06 0v-.02l.12-.37c.07-.15.13-.25.19-.28.14-.06.26-.06.37.02.1.06.16.1.2.1ZM10.87 7.85l.12.04.1.04c.37.2.46.55.29 1.05A2.78 2.78 0 0 1 10 10.37l-.02-.02v-.02c.27-.12.52-.3.75-.57.22-.24.4-.5.53-.78a1 1 0 0 0 .07-.3l.04-.19v-.07c-.14-.38-.39-.52-.75-.43-.17.02-.27.08-.32.18-.05.13-.08.12-.08-.02 0-.04.03-.08.1-.13.09-.08.2-.13.32-.16l.22-.01Z" fill="#C3DE6A"/><path d="m10.29 7.97.04.05c-.07.05-.1.1-.1.13 0 .14.03.15.08.02.05-.1.15-.16.32-.18-.16.15-.28.3-.36.45l-.25.22c-.07.07-.1.06-.07-.04.06-.18.12-.32.19-.43l.07-.15c0-.04.04-.06.08-.07Z" fill="#7D7B6D"/><path d="M8.67 8.76c-.01-.03-.03-.05-.05-.05a.22.22 0 0 1-.04-.16c0-.02.01-.03.03-.03h.05c.06-.2.17-.36.32-.5C8.99 8 9 8 9 8.01l.02.02v.04c-.16.2-.28.43-.36.68Z" fill="#C3DE6A"/><path d="M8.93 8.65c.02.02.02.05.02.08s-.02.04-.05.04l-.03-.01-.02-.03v-.2c0-.03.02-.04.04-.04h.02v.02l.01.06.01.08Z" fill="#958696"/><path d="M9.03 8.63v.03c0 .03.01.04.03.03l.09-.02c-.16.25-.23.46-.2.64V9.76l.01.15a5.43 5.43 0 0 1-.01.45l-.02.03a.12.12 0 0 0 0 .09c.03.09.04.18.02.28-.03.1-.04.2-.03.3a29.8 29.8 0 0 0 .03.33H9c.03-.01.04 0 .05.02l.06.18c.02.07.04.07.07 0a.24.24 0 0 0 0-.14c0-.03-.02-.04-.05-.04a.09.09 0 0 1-.05-.03.05.05 0 0 1-.02-.04L9.09 10c0-.07.03-.08.07-.02a.3.3 0 0 1 .04.25.78.78 0 0 0-.03.23c.01.24 0 .47-.02.68 0 .07.02.14.08.19.02.02.04.02.06 0a.07.07 0 0 1 .05-.02c.03 0 .04.01.04.04 0 .07.02.12.04.17.08.02.11-.03.12-.15.06.05.12.06.18.06h.02v.02h-.01c-.14.05-.21.15-.23.3.02.03.01.05-.02.08a.16.16 0 0 0-.03-.07c-.02-.02-.03-.02-.04 0a.24.24 0 0 0 0 .16l-.01.06-.17.17c-.02.01-.02.03 0 .05.02.01.04.02.07 0v.04l-.11.08a2.28 2.28 0 0 0-.56-.03c-.04 0-.06 0-.08-.04l-.03-.02-.02.01a.11.11 0 0 1-.09.02c-.19-.02-.37-.06-.55-.1-.06 0-.07-.02-.01-.05h.04c.11-.02.21 0 .3.04h.05l.01-.02v-.04a.85.85 0 0 0-.71-.17c-.02 0-.02 0-.02-.02l.02-.04c0-.01 0-.02.02-.02a.74.74 0 0 1 .67.11c.03.02.04.02.05-.01a.08.08 0 0 0 0-.07c-.02-.03 0-.06.03-.1a.7.7 0 0 0 .11.22c.03.03.03.06 0 .08-.03.02-.03.05 0 .08.05.05.08.04.08-.03s.02-.13.07-.19c.02-.02.04-.02.06 0l.08.1.01.06v.06l.01.01h.01c.01-.04.03-.06.05-.07l.02.01c.02 0 .03 0 .03-.02a.47.47 0 0 0 .02-.29c-.02-.07 0-.1.08-.09.02 0 .04 0 .06-.02a.08.08 0 0 0 .02-.06.08.08 0 0 0-.03-.06c-.12-.09-.17-.2-.14-.34a.65.65 0 0 0 .02-.2c-.01-.18 0-.35.01-.52l-.01-.25a16 16 0 0 0-.02-1.06c0-.1.05-.29.18-.55Z" fill="#7D7B6D"/><path d="M8.62 8.7c.02.01.04.03.05.06.04.12.05.25.03.38V9.6c-.01.1 0 .2.04.32l-.01.08a.25.25 0 0 0 .02.25c.02.02.02.04.02.07 0 .27 0 .54.03.83l-.01.21c-.02.08 0 .14.05.2.02.02.02.04 0 .06l-.03.03a.08.08 0 0 0-.03.05l-.01.27-.28-.3-.18-2.35c.05-.03.05-.08 0-.16l.02-.33-.03-.01c.04-.03.05-.06.05-.07.06.04.07.1.05.17 0 .03 0 .05.02.07.02.02.03.04.02.06l-.01.06a14.44 14.44 0 0 1 .08 1.25l.03.26c0 .19 0 .37.02.55 0 .08 0 .16-.02.23-.01.1 0 .18.08.26.01.02.03.03.05.03.03 0 .04-.01.05-.05v-.03a1 1 0 0 1-.03-.28v-.18c-.03-.3-.05-.58-.04-.85 0-.16 0-.33-.02-.51a3.13 3.13 0 0 1-.01-.53c0-.06-.01-.1-.03-.16a.13.13 0 0 1-.01-.07l.04-.32Z" fill="#958696"/><path d="M6.56 9.44c-.02 0-.04-.03-.05-.09a.93.93 0 0 1-.03-.22v-.05c0-.09.01-.16.03-.22.01-.07.03-.1.05-.1v.68ZM8 9.45c.01.02.02.04 0 .06L8 9.54c-.02.02-.03.02-.04 0-.21-.26-.48-.47-.8-.61-.02 0-.02-.02-.01-.04v-.02c.01-.01.02-.02.03-.01.33.13.6.33.83.6Z" fill="#7A9B3C"/><path d="M11.1 10.33a2.8 2.8 0 0 1-.46.58v-.02c.44-.5.71-1.1.83-1.76-.02-.1 0-.16.03-.2.02-.02.03-.01.04.02a2 2 0 0 1-.2.92l-.25.46Z" fill="#C3DE6A"/><path d="M9.85 9.02c-.03.12-.03.21 0 .28-.03.02-.05.09-.04.19a.83.83 0 0 0-.07.43l-.01.08a.33.33 0 0 0-.03.19v.16a24.6 24.6 0 0 0-.16 1.01c0 .12-.04.17-.12.15a36.43 36.43 0 0 1 .3-2.12.12.12 0 0 1-.02-.08l.05-.3c.01-.02.03-.03.05-.02.02 0 .04.01.05.03ZM9.18 9.06a.06.06 0 0 0-.07.05l-.03.74c0 .03.03.06.06.06.04 0 .06-.02.06-.05l.03-.74a.06.06 0 0 0-.05-.06Z" fill="#958696"/><path d="M8.31 9.16c.05.08.05.13 0 .16a.55.55 0 0 0-.15.18c-.01.03-.03.03-.05.02h-.02c-.02-.02-.03-.04-.01-.06l.23-.3Z" fill="#7D7B6D"/><path d="M8.33 11.3c-.07 0-.1-.05-.11-.18L8.05 9.7c0-.03 0-.04.03-.03l.03.01.02.02.2 1.6Z" fill="#958696"/><path d="M6.23 10.31c.01.02.04.02.08.02l.24.75c-.2-.22-.3-.47-.32-.77Z" fill="#C3DE6A"/><path d="M8.22 11.12c0 .13.04.18.11.18.02.08.04.16.04.25l.02.09c.03.06.06.07.1.04l.28.3c.03.02.03.05.02.1-.02 0-.04.03-.05.07h-.02v-.07l-.01-.05-.08-.1c-.02-.03-.04-.03-.06 0a.29.29 0 0 0-.07.18c0 .07-.03.08-.08.03-.03-.03-.03-.06 0-.08.03-.02.03-.05 0-.08a.7.7 0 0 1-.1-.22 1.92 1.92 0 0 0-.63-.56v-.03h.02c.15.07.3.16.42.26.03.02.06.03.09.02h.02c.04 0 .04-.02.02-.05-.06-.05-.07-.14-.04-.28ZM9.6 11.85c.13-.15.28-.25.46-.32h.02l.02.02v.02l-.01.03c-.17.07-.32.18-.45.31h-.02c-.03-.03-.03-.04-.01-.06Z" fill="#7A9B3C"/><path d="M9.3 11.78c.02.02.02.03.02.05 0 0-.01.02-.03.02l-.02-.01a.12.12 0 0 1-.03-.13c.01-.02.02-.02.04 0l.01.04.01.03ZM9.02 11.85c.01.05.05.08.09.07.04 0 .06-.05.05-.1 0-.04-.05-.07-.08-.06-.04 0-.07.05-.06.1Z" fill="#958696"/><path d="M9.54 11.97h.04c.02 0 .02.01.01.03l-.08.13c-.03.03-.02.04.02.03l.06-.05a.1.1 0 0 1 .05-.04 1.43 1.43 0 0 1 .8-.05v.02c0 .01 0 .02-.02.02a1.45 1.45 0 0 0-.92.18c-.06.06-.13.05-.2-.01v-.03l.24-.23Z" fill="#7A9B3C"/><path opacity=".5" d="M3.5 9.3v-.16a5.51 5.51 0 1 1 11.02.15h-1v-.15a4.52 4.52 0 1 0-9.03.15h-1Z"/><path opacity=".3" d="M5.83 13.07a7.3 7.3 0 0 1-1.65-1.83l.6-.36c.26.43.79 1.09 1.49 1.64.7.55 1.55.96 2.47.96 2.39 0 3.8-1.73 4.3-2.6l.61.35a5.79 5.79 0 0 1-4.91 2.96 4.77 4.77 0 0 1-2.9-1.12Z"/><defs><linearGradient id="a" x1="3.6" y1="9.58" x2="14.75" y2="9.58" gradientUnits="userSpaceOnUse"><stop stop-color="#0499AE"/><stop offset="1" stop-color="#78D65A"/></linearGradient></defs></svg>