<!-- by TradingView --><svg width="18" height="18" viewBox="0 0 18 18" fill="none" xmlns="http://www.w3.org/2000/svg">
<rect width="18" height="18" fill="#F0F3FA"/>
<path d="M3.21698 10.2695C2.61188 10.2695 2.21343 9.97516 2.08984 9.82799L2.60892 9.69718L2.12692 9.10034C2.35927 9.23933 2.89219 9.51731 3.16507 9.51731C3.9511 9.51731 4.55175 9.10034 5.25621 9.10034C5.81978 9.10034 6.26717 9.26931 6.42042 9.35379L6.52424 10.1223C6.34627 10.0242 5.8702 9.82799 5.38968 9.82799C4.78904 9.82799 3.97335 10.2695 3.21698 10.2695Z" fill="#186A22"/>
<path fill-rule="evenodd" clip-rule="evenodd" d="M4.25819 9.24987C4.58325 9.14906 4.90684 9.04871 5.25602 9.04871C5.82698 9.04871 6.28156 9.2196 6.44124 9.30763L6.46309 9.31967L6.58381 10.2133L6.50304 10.1688C6.32925 10.073 5.86049 9.87994 5.3895 9.87994C5.11293 9.87994 4.78787 9.97624 4.4354 10.0807C4.41493 10.0867 4.39436 10.0928 4.3737 10.0989C4.00085 10.2091 3.60207 10.3214 3.21679 10.3214C2.59858 10.3214 2.18765 10.0211 2.05519 9.86333L2 9.79762L2.52082 9.66636L2.09165 9.13494L2.14913 9.05497C2.264 9.12369 2.45367 9.22703 2.6481 9.31304C2.8447 9.4 3.0385 9.46567 3.16488 9.46567C3.55064 9.46567 3.89157 9.36345 4.22833 9.25912C4.23829 9.25604 4.24824 9.25295 4.25819 9.24987ZM4.25375 9.35884C3.91757 9.46299 3.56515 9.56925 3.16488 9.56925C3.01838 9.56925 2.80928 9.49594 2.61312 9.40917C2.51327 9.365 2.41478 9.31642 2.3266 9.2701L2.69664 9.72831L2.18671 9.85681C2.34895 10.0034 2.70626 10.2179 3.21679 10.2179C3.58788 10.2179 3.97513 10.1095 4.34938 9.99887C4.37165 9.99229 4.39388 9.9857 4.41607 9.97912C4.76343 9.87614 5.09998 9.77636 5.3895 9.77636C5.81929 9.77636 6.24396 9.92973 6.46477 10.0352L6.37744 9.38874C6.21221 9.30452 5.78696 9.15229 5.25602 9.15229C4.92002 9.15229 4.60752 9.24917 4.27899 9.35102C4.27058 9.35362 4.26217 9.35623 4.25375 9.35884Z" fill="black"/>
<path d="M14.783 10.2695C15.3881 10.2695 15.7866 9.97516 15.9102 9.82799L15.3911 9.69718L15.8731 9.10034C15.6407 9.23933 15.1078 9.51731 14.8349 9.51731C14.0489 9.51731 13.4483 9.10034 12.7438 9.10034C12.1802 9.10034 11.7328 9.26931 11.5796 9.35379L11.4758 10.1223C11.6537 10.0242 12.1298 9.82799 12.6103 9.82799C13.211 9.82799 14.0267 10.2695 14.783 10.2695Z" fill="#186A22"/>
<path fill-rule="evenodd" clip-rule="evenodd" d="M13.7418 9.24987C13.4167 9.14906 13.0932 9.04871 12.744 9.04871C12.173 9.04871 11.7184 9.2196 11.5588 9.30763L11.5369 9.31967L11.4162 10.2133L11.497 10.1688C11.6707 10.073 12.1395 9.87994 12.6105 9.87994C12.8871 9.87994 13.2121 9.97624 13.5646 10.0807C13.5851 10.0867 13.6056 10.0928 13.6263 10.0989C13.9991 10.2091 14.3979 10.3214 14.7832 10.3214C15.4014 10.3214 15.8124 10.0211 15.9448 9.86333L16 9.79762L15.4792 9.66636L15.9083 9.13494L15.8509 9.05497C15.736 9.12369 15.5463 9.22703 15.3519 9.31304C15.1553 9.4 14.9615 9.46567 14.8351 9.46567C14.4494 9.46567 14.1084 9.36345 13.7717 9.25912C13.7617 9.25604 13.7518 9.25295 13.7418 9.24987ZM13.7463 9.35884C14.0824 9.46299 14.4348 9.56925 14.8351 9.56925C14.9816 9.56925 15.1907 9.49594 15.3869 9.40917C15.4867 9.365 15.5852 9.31642 15.6734 9.2701L15.3034 9.72831L15.8133 9.85681C15.651 10.0034 15.2937 10.2179 14.7832 10.2179C14.4121 10.2179 14.0249 10.1095 13.6506 9.99887C13.6284 9.99229 13.6061 9.9857 13.5839 9.97912C13.2366 9.87614 12.9 9.77636 12.6105 9.77636C12.1807 9.77636 11.756 9.92973 11.5352 10.0352L11.6226 9.38874C11.7878 9.30452 12.213 9.15229 12.744 9.15229C13.08 9.15229 13.3925 9.24917 13.721 9.35102C13.7294 9.35362 13.7378 9.35623 13.7463 9.35884Z" fill="black"/>
<rect x="5" y="6" width="8" height="6" fill="black"/>
<path fill-rule="evenodd" clip-rule="evenodd" d="M5 11L8.98502 5L13 11H5ZM6.82936 10.0745L8.95738 6.82513L11.1014 10.0745H6.82936Z" fill="#186A22"/>
</svg>
