<!-- by TradingView --><svg width="18" height="18" viewBox="0 0 18 18" xmlns="http://www.w3.org/2000/svg"><path fill="#F0F3FA" d="M0 0h18v18H0z"/><path d="M16 9.15v-.8c0-.17-.02-.34-.06-.5a1.06 1.06 0 0 0-.25-.45 1.38 1.38 0 0 0-.94-.4h-2.54c-.18 0-.34.13-.42.3a.52.52 0 0 0 .06.52v.01c0 .01.02.06.02.13v.72a1.37 1.37 0 0 0-.81 0v-.56c0-.16-.03-.31-.09-.46a.99.99 0 0 0-.28-.39c-.25-.21-.6-.27-.91-.27H7.25c-.08 0-.15.04-.22.08C6.97 7.04 6.9 7 6.81 7H5.24c-.2 0-.37.16-.44.35l-.16.45-.15-.45c-.07-.2-.25-.35-.44-.35H2.47c-.18 0-.34.14-.42.31a.51.51 0 0 0 .06.52v.01c0 .02.02.06.02.14v2.07a.5.5 0 0 1-.02.14.51.51 0 0 0-.07.53c.08.17.25.28.43.28h.76c.13 0 .24-.05.33-.14.08.09.2.14.33.14h.82c.13 0 .25-.06.34-.15.08.09.2.15.33.15h1.43c.08 0 .15-.03.21-.06.07.03.14.06.22.06h1.43c.15 0 .3-.1.38-.23.09.14.23.23.4.23h1.34c.1 0 .2-.05.28-.11a.83.83 0 0 0 .82-.03c.09.08.2.14.32.14h2.53c1.2 0 1.26-.98 1.26-1.85Z" fill="#231F20"/><path d="M15.83 9.4V8.36c0-.17-.02-.32-.06-.46a.87.87 0 0 0-.2-.37 1 1 0 0 0-.37-.25 1.2 1.2 0 0 0-.45-.09H12.2a.3.3 0 0 0-.26.19c-.05.1-.04.23.03.32.03.04.06.11.06.26v.99a1.21 1.21 0 0 0-1.16 0v-.82c0-.15-.02-.28-.07-.4a.81.81 0 0 0-.58-.5 2.14 2.14 0 0 0-.46-.03H7.24a.29.29 0 0 0-.21.1.28.28 0 0 0-.22-.1H5.23a.3.3 0 0 0-.27.2l-.33.93-.31-.92a.3.3 0 0 0-.28-.2H2.47a.3.3 0 0 0-.27.18c-.05.1-.03.24.04.33.02.03.06.1.06.25v2.08c0 .15-.04.22-.06.25a.33.33 0 0 0-.04.33c.05.11.15.18.26.18h.77c.11 0 .27-.08.32-.2.04.13.21.2.33.2h.83c.12 0 .3-.07.34-.2.05.12.22.2.33.2h1.43c.08 0 .16-.04.21-.1.06.06.13.1.22.1h1.42a.3.3 0 0 0 .27-.19c.01-.02.04-.08.07-.08h.11c.03 0 .06.08.06.08a.3.3 0 0 0 .27.18h1.35c.1 0 .2-.06.25-.15a.66.66 0 0 0 .89-.05v.02c.06.11.16.18.27.18h2.54c.15 0 .3-.03.45-.09.53-.21.64-.78.64-1.31Z" fill="#FFF200"/><path d="m4.7 9.22.6-1.77h1.58a.78.78 0 0 0-.12.45v2.2c0 .2.04.35.12.45H5.45c.08-.1.13-.25.13-.46V8.2l-.8 2.36h-.82L3.17 8.2v1.9c0 .21.05.36.13.47h-.76a.8.8 0 0 0 .13-.46V7.9a.8.8 0 0 0-.13-.46h1.58l.58 1.77ZM8.86 9.22h-.37v.87c0 .2.06.36.14.46H7.2c.08-.1.12-.26.13-.45V7.9a.8.8 0 0 0-.13-.45h2.53c.17 0 .3 0 .4.03a.5.5 0 0 1 .22.12c.13.1.2.27.2.49v.67c0 .14-.02.24-.06.3-.06.12-.17.17-.32.17h-.08l.42.9.24.43H9.4l-.54-1.34Zm-.37-.44h.66c.2 0 .2-.14.2-.33v-.16c0-.24.01-.4-.23-.4h-.63v.89ZM12.25 10.56c.08-.11.12-.27.13-.46V7.9c0-.19-.05-.34-.12-.45h2.5c.12 0 .23.02.34.06.1.05.2.1.26.19.12.12.17.33.17.63v1.33c0 .3-.06.51-.17.64a.68.68 0 0 1-.26.18.88.88 0 0 1-.34.07h-2.5Zm1.28-.45h.55c.24 0 .3-.24.3-.43V8.32c0-.2-.06-.43-.3-.43h-.54v2.22ZM11.86 10.07c0 .23-.18.42-.4.42a.41.41 0 0 1-.4-.42c0-.23.18-.42.4-.42.22 0 .4.19.4.42" fill="#ED1C24"/><path d="M11.8 9.46v-.29c0-.2-.3-.15-.41-.15-.17 0-.2.1-.2.26v.79c0 .27.6.25.6 0v-.6" fill="#939598"/><path d="M11.85 10.13c-.05.22-.4.25-.56.18-.16-.07-.17-.15-.17-.31v-.64c0-.1-.02-.27.06-.34.12-.1.31-.06.46-.06.12 0 .21.09.21.22V10.13Zm-.06-.67v-.29c0-.2-.3-.15-.4-.15-.17 0-.2.1-.2.26v.79c0 .27.6.25.6 0v-.6" fill="#231F20"/><path d="M11.94 8.92c-.15.08-.32.1-.48.1-.15 0-.3-.02-.43-.08-.09-.03-.2-.09-.23-.18a.15.15 0 0 0-.02.08c0 .13.15.2.25.25.14.05.28.07.43.07.16 0 .33-.02.48-.1.09-.04.2-.1.2-.22a.2.2 0 0 0-.01-.07c-.04.07-.12.12-.2.15" fill="#BCBEC0"/><path d="m11.85 8.83-.22-.15.14-.05c.02 0 .02-.03 0-.03-.03-.01-.1-.04-.14-.03l-.17.05-.16-.05c-.04-.01-.11.02-.15.03-.02 0-.01.02 0 .03l.14.05-.21.15v.03c.04.02.1.07.14.05l.24-.09.08.03.15.06c.05.02.1-.03.15-.05.02 0 .01-.02 0-.03m-.54-.23.15.05v.14a.35.35 0 0 0-.1.04v-.15l-.01-.01-.13-.06a.21.21 0 0 1 .09 0m-.1.27-.08-.04.2-.13v.13l-.05.02-.07.02m.28-.09v-.14l.14-.05.1.01-.13.05V8.84a.37.37 0 0 0-.11-.04Zm.2.08-.07-.03v-.13l.2.13-.07.03c-.03.01-.03 0-.07 0" fill="#231F20"/><path d="m11.67 8.87-.06-.03v-.13l.2.13-.07.03c-.03.01-.03 0-.07 0M11.3 8.6l.15.05v.14a.35.35 0 0 0-.1.04v-.15l-.01-.01-.13-.06c.03 0 .07-.02.09 0" fill="#939598"/><path d="m11.2 8.88-.08-.04.2-.13v.13l-.05.02-.07.02M11.48 8.8v-.15l.14-.05.1.01-.13.05V8.84a.37.37 0 0 0-.11-.04Z" fill="#BCBEC0"/><path d="M11.18 9.64c-.1 0-.16.06-.16.13 0 .08.08.14.17.14h.05c.12 0 .46-.03.67-.32l.01-.05-.01-.03a.08.08 0 0 0-.06-.02l-.07.06c-.05.03-.39.15-.6.09" fill="#231F20"/><path d="M11.84 9.57c-.18.26-.5.28-.6.28h-.04c-.06 0-.1-.03-.1-.08 0-.04.04-.07.1-.07h.03c.09.03.34.02.6-.15.02 0 .01.02.01.02" fill="#BCBEC0"/><path d="M11.18 9.96c-.1 0-.16.06-.16.14 0 .08.08.14.17.14h.05c.12 0 .46-.03.67-.32l.01-.05-.01-.04a.08.08 0 0 0-.06-.01l-.07.05c-.05.03-.38.16-.6.1" fill="#231F20"/><path d="M11.84 9.9c-.19.25-.5.28-.6.28h-.04c-.06 0-.1-.04-.1-.08s.04-.08.1-.08l.03.01c.09.03.34.01.6-.16.02 0 .01.02.01.02" fill="#BCBEC0"/><path d="M11.18 9.31c-.1 0-.16.06-.16.14 0 .08.08.14.17.14h.05c.12 0 .46-.03.67-.32l.01-.05-.01-.04a.08.08 0 0 0-.06-.01l-.07.05c-.05.03-.39.16-.6.1" fill="#231F20"/><path d="M11.84 9.24c-.18.26-.5.29-.6.29h-.04c-.06 0-.1-.04-.1-.08s.04-.08.1-.08l.03.01c.09.03.34.01.6-.15.02-.01.01.01.01.01" fill="#BCBEC0"/><path d="M11.46 9.25c-.18 0-.39-.03-.55-.13-.09-.06-.2-.15-.19-.27.02-.34.52-.4.74-.4.23 0 .74.06.74.4 0 .33-.51.4-.74.4m.44-.66a1.18 1.18 0 0 0-.44-.08c-.16 0-.33.02-.48.1-.08.04-.2.11-.2.23 0 .13.14.2.25.25.14.05.28.07.43.07.16 0 .33-.02.48-.1.09-.04.2-.1.2-.22 0-.13-.14-.21-.25-.25" fill="#231F20"/></svg>