<!-- by TradingView --><svg width="18" height="18" viewBox="0 0 18 18" xmlns="http://www.w3.org/2000/svg"><path fill="#F0F3FA" d="M0 0h18v18H0z"/><path d="M5 4.6V4.6c0-.02.02-.03.03-.03a18.93 18.93 0 0 0 5.48-1 .1.1 0 0 1 .07.06v.02a46.06 46.06 0 0 0 0 .32A35.12 35.12 0 0 1 12.91 3a.1.1 0 0 1 .08.1v.03l-.4.87a.25.25 0 0 1-.1.12 7.2 7.2 0 0 0-5.28 2.77 2.77 2.77 0 0 0-.59.97 1.97 1.97 0 0 0-.1.69c-.04.05-.1.06-.14.02l-.03-.04a2.07 2.07 0 0 1 .06-1.62 3.25 3.25 0 0 1 1-1.23 9.28 9.28 0 0 1 1.07-.7A18.99 18.99 0 0 1 5 4.6Z" fill="#C70019"/><path d="M8.69 9.55a3.16 3.16 0 0 0 .27-.04.66.66 0 0 0 .34-.21c.04-.05.07-.1.08-.14.05-.2-.1-.35-.27-.39a2.73 2.73 0 0 0-.1-.03.5.5 0 0 1 .35-.15h.12c.2.04.36.15.46.32a.73.73 0 0 1-.05.77l-.15.16c-.23.2-.53.33-.83.35-.17.02-.34.02-.52 0a1.67 1.67 0 0 1-.6-.17c-.37-.2-.69-.5-.85-.88a1.53 1.53 0 0 1-.05-1.07 2.5 2.5 0 0 1 .9-1.32 9.04 9.04 0 0 1 1.99-1.27 19 19 0 0 1 2.34-.9c.02-.02.05-.03.07-.02.06 0 .1.04.1.1a.1.1 0 0 1 0 .07l-.02.02a523.64 523.64 0 0 0-.38.84.17.17 0 0 1-.08.05 19.24 19.24 0 0 0-2.08.82c-.44.22-.86.47-1.26.76a2.9 2.9 0 0 0-.86 1c-.04.1-.06.2-.07.3-.04.23.03.46.17.65.05.07.1.13.16.18.1.08.24.13.37.16a1.68 1.68 0 0 0 .45.04Z" fill="#C70019"/><path d="M10.03 7.42a1.3 1.3 0 0 1 .86.22c.13.1.25.22.33.37.1.17.16.35.2.54.01.02-.02.04-.04.02a3.92 3.92 0 0 0-.56-.62 1.6 1.6 0 0 0-.37-.24 2.24 2.24 0 0 0-.46-.18.07.07 0 0 1 .04-.11ZM9.59 7.8a1.94 1.94 0 0 1 1.3.68 1.54 1.54 0 0 1 .32 1.38c-.14.5-.4.94-.8 1.27a9.27 9.27 0 0 1-2.74 1.67 18.78 18.78 0 0 1-1.8.64.12.12 0 0 1-.07-.17v-.02a526.51 526.51 0 0 0 .39-.84.22.22 0 0 1 .1-.06 18.4 18.4 0 0 0 2.09-.83 8.34 8.34 0 0 0 1.5-.97c.09-.08.17-.16.24-.25.15-.18.26-.38.32-.6a1.13 1.13 0 0 0 .01-.58.86.86 0 0 0-.32-.44c-.13-.1-.27-.17-.43-.22a1.07 1.07 0 0 0-.5-.05.59.59 0 0 0-.36.21c-.06.07-.11.18-.09.27.02.08.06.15.12.2a.48.48 0 0 0 .25.08v.01a.43.43 0 0 1-.4.17.77.77 0 0 1-.48-.26.7.7 0 0 1 .06-.9c.22-.25.54-.38.87-.4.14 0 .28 0 .42.02Z" fill="#C70019"/><path d="M9.49 12.2a7.19 7.19 0 0 0 1.39-1.12c.2-.21.36-.46.49-.74a1.98 1.98 0 0 0 .19-.88c.02-.06.1-.07.14-.02l.02.05a2.07 2.07 0 0 1-.03 1.54c-.24.52-.58.96-1.03 1.3a8.86 8.86 0 0 1-1.05.67 34.66 34.66 0 0 1-4.45 2 .1.1 0 0 1-.07-.13l.4-.88a.23.23 0 0 1 .07-.1 18.92 18.92 0 0 0 3.92-1.7ZM6.81 9.63c.18.2.37.37.58.53a1.92 1.92 0 0 0 .91.35c.04.03.04.09 0 .11a1.3 1.3 0 0 1-1.02-.2c-.26-.17-.4-.47-.5-.76-.02-.03.01-.05.03-.03Z" fill="#C70019"/></svg>