<!-- by TradingView --><svg width="18" height="18" viewBox="0 0 18 18" xmlns="http://www.w3.org/2000/svg"><path fill="#005DB8" d="M0 0h18v18H0z"/><path d="M11.28 10H9.92C9 10 8.47 9.96 8.7 9.02c.25-1.1.99-1.02 2-1.02h.81l.17-1h-1.29c-.87 0-1.5.19-1.94.48-.48.32-.88.86-1.04 1.56-.16.72.05 1.3.51 1.63.38.26.9.33 1.47.33h1.7M15.65 10h-1.4c-.92 0-1.45-.04-1.23-.98.25-1.1.99-1.02 2-1.02h.81L16 7h-1.29c-.87 0-1.5.19-1.94.48-.48.32-.88.86-1.04 1.56-.16.72.05 1.3.52 1.63.37.26.9.33 1.46.33h1.75M6.41 7.33C6.04 7.07 5.51 7 4.94 7H2v.2l1.05.8h1.5c.92 0 1.3.04 1.09.98-.25 1.1-.98 1.02-1.95 1.02l.43-1.57H2.94L2.34 11h1.6c.88 0 1.52-.19 1.95-.48.48-.32.88-.86 1.04-1.56.16-.72-.06-1.3-.52-1.63Z" fill="#fff"/></svg>