<!-- by TradingView --><svg width="18" height="18" viewBox="0 0 18 18" xmlns="http://www.w3.org/2000/svg"><path fill="#F0F3FA" d="M0 0h18v18H0z"/><path d="M11.74 6.2v.01a9614 9614 0 0 0-2.6 2.5.5.5 0 0 0-.08.19.45.45 0 0 0 0 .21c.03.1.08.18.16.27l.27.28.62.6a136.1 136.1 0 0 0 1.62 1.54l-.1.09-2.04 1.96a.54.54 0 0 1-.78-.03A3397.9 3397.9 0 0 1 4.1 9.28a.48.48 0 0 1 .01-.57l.1-.11a16649.95 16649.95 0 0 1 4.72-4.51.52.52 0 0 1 .3-.09c.11 0 .21.03.3.1a6427.96 6427.96 0 0 0 2.22 2.11Z" fill="#1C63AE"/><path d="M11.74 11.8a.41.41 0 0 0-.05-.06 137.83 137.83 0 0 1-2.47-2.36.66.66 0 0 1-.16-.27.45.45 0 0 1 0-.21.5.5 0 0 1 .09-.2l.1-.1a9779.1 9779.1 0 0 1 2.49-2.39h.01v2.56h-.55v.1l.05.02c.06.03.09.09.08.17 0 .06-.03.13-.06.2a1.63 1.63 0 0 1-.13.2v-.01l-.01-.02a8.66 8.66 0 0 1-.37-.59l.14-.08.2-.15a.4.4 0 0 0 .1-.2.28.28 0 0 0-.09-.27.43.43 0 0 0-.12-.08.5.5 0 0 0-.14-.04.7.7 0 0 0-.2 0 .6.6 0 0 0-.18.05.43.43 0 0 0-.24.28.54.54 0 0 0 0 .25c.02.1.05.21.1.32-.15.08-.28.18-.38.29a.61.61 0 0 0-.18.4.44.44 0 0 0 .16.35l.17.1a.9.9 0 0 0 .87-.19.75.75 0 0 0 .56.23c.08 0 .15-.03.21-.06h.02v1.75h-.02Z" fill="#5DB14F"/><path d="m12.2 8.4.1-.4H14l-.09.4v.01h-.57L12.98 10h-.54l.35-1.58h-.58V8.4Z" fill="#1C63AE"/><path d="M10.96 8.48a.61.61 0 0 1-.26.24h-.01c-.04-.1-.08-.18-.1-.28a.32.32 0 0 1 .01-.18c.02-.06.07-.1.14-.1.05-.01.09 0 .13.01a.2.2 0 0 1 .08.08c.02.03.03.07.03.11 0 .04 0 .08-.02.12Z" fill="#5DB14F"/><path fill-rule="evenodd" d="M7.18 9.33a1.1 1.1 0 0 1-.23.36.91.91 0 0 1-.5.27c-.14.03-.32.04-.53.04a269.06 269.06 0 0 0-.78 0l.45-2h.62a4.1 4.1 0 0 1 .57.05c.14.05.26.13.35.25.09.12.14.28.14.46.01.2-.02.39-.09.57Zm-.45-.37c-.02.13-.06.25-.12.35a.52.52 0 0 1-.28.24.78.78 0 0 1-.24.04 24.1 24.1 0 0 1-.31 0l.26-1.17a10.39 10.39 0 0 1 .47.03c.14.03.21.12.23.27l-.01.24Zm2.07.2.08-.39h-.84v-.01l.07-.36h.93l.1-.4H7.66l-.45 2h1.52l.09-.4h-.98l.1-.44h.84Z" fill="#fff"/><path d="M11.26 9.54a2.33 2.33 0 0 0 .12-.18 29.3 29.3 0 0 1 .25-.4.33.33 0 0 1 .12-.07v.93l-.03.01a.45.45 0 0 1-.26-.08.93.93 0 0 1-.2-.18c-.01 0-.01 0 0 0v-.03ZM10.56 9.86a.4.4 0 0 1-.16-.05.48.48 0 0 1-.23-.25.36.36 0 0 1 .05-.37c.04-.06.1-.1.17-.14h.01a5.14 5.14 0 0 0 .46.7.38.38 0 0 1-.3.11Z" fill="#5DB14F"/></svg>