<!-- by TradingView --><svg width="18" height="18" viewBox="0 0 18 18" xmlns="http://www.w3.org/2000/svg"><path fill="#F0F3FA" d="M0 0h18v18H0z"/><path d="M11.37 10.32A1.92 1.92 0 0 0 13 9.24c.15-.32.21-.65.18-.99a1.78 1.78 0 0 0-.4-.98 1.83 1.83 0 0 0-.94-.63c-.36-.1-.74-.1-1.13.01a2.51 2.51 0 0 0-.65.33c-.07.04-.19.09-.38.14a2.06 2.06 0 0 1-1.95-.39c-.4-.34-.62-.76-.69-1.26a2.24 2.24 0 0 1 .88-2.04c.48-.37 1.01-.5 1.58-.4.55.1.97.41 1.27.94.01.02 0 .03-.01.04l-.23.1h-.02a1.42 1.42 0 0 0-.76-.7c-.5-.19-1-.15-1.47.13-.4.24-.68.57-.85 1a1.7 1.7 0 0 0 0 1.26c.15.41.43.72.82.92.26.13.53.2.83.2.28 0 .55-.07.83-.2l.44-.24a2.22 2.22 0 0 1 2.58.5 2.16 2.16 0 0 1-.01 2.9c-.4.46-.92.7-1.55.74-.02 0-.03-.01-.03-.03v-.24c0-.02.01-.03.03-.03Zm.05-5.48-.02.04c0 .02-.01.02-.03.02h-.24c-.02 0-.03-.01-.03-.03.03-.18.11-.3.26-.36.16-.05.3-.02.43.1.07.08.12.17.13.29 0 .1-.01.21-.06.32a.62.62 0 0 1-.4.35.64.64 0 0 1-.53-.08.7.7 0 0 1-.33-.48.92.92 0 0 1 .47-.97c.16-.09.33-.11.52-.09.2.03.38.12.53.27.23.22.34.5.32.84a1.19 1.19 0 0 1-.39.81 1.1 1.1 0 0 1-.75.28 1.1 1.1 0 0 1-.65-.22c-.2-.14-.33-.33-.42-.56-.05-.1-.07-.27-.08-.5-.01-.16-.02-.27-.04-.35a.74.74 0 0 0-.14-.31 1.1 1.1 0 0 0-1.25-.35 1.44 1.44 0 0 0-.91 1.28 1.23 1.23 0 0 0 .74 1.17c.28.12.57.14.87.07.28-.06.53-.21.77-.45h.03l.19.2v.01c-.32.3-.63.48-.95.54a1.58 1.58 0 0 1-1.85-1c-.1-.3-.12-.62-.03-.94a1.72 1.72 0 0 1 1.2-1.2c.52-.13.97 0 1.34.39.17.18.27.4.3.64l.03.4c0 .16.04.29.08.38.1.18.23.32.4.4a.82.82 0 0 0 .96-.14.87.87 0 0 0 .23-.86.75.75 0 0 0-.3-.4.59.59 0 0 0-.5-.1.57.57 0 0 0-.39.33.58.58 0 0 0-.06.29c0 .1.04.2.1.27.1.12.2.17.35.16.14-.01.24-.1.29-.25.04-.11.02-.2-.07-.25a.08.08 0 0 0-.07 0 .08.08 0 0 0-.05.04ZM9.09 4.8c.05 0 .08.03.07.08a.1.1 0 0 1-.02.04.57.57 0 0 0-.03.04V5l.12.2c.01.02.03.03.05.01.1-.08.16-.17.17-.28a.38.38 0 0 0-.25-.42.42.42 0 0 0-.37.06.68.68 0 0 0-.25.3.6.6 0 0 0-.02.47.6.6 0 0 0 .32.35.6.6 0 0 0 .51 0 .9.9 0 0 0 .4-.33.88.88 0 0 0-.07-1.1.9.9 0 0 0-1.04-.16c-.2.1-.38.26-.5.49a1.14 1.14 0 0 0-.03 1.07c.13.25.33.43.6.52.26.08.53.08.8-.03.23-.08.44-.25.64-.5l-.22-.17h-.02c-.12.15-.26.27-.41.35-.2.1-.4.14-.62.08a.75.75 0 0 1-.5-.37.76.76 0 0 1-.07-.61c.06-.21.18-.38.37-.51a.64.64 0 0 1 .64-.06c.1.05.18.12.24.21.05.1.07.22.06.35a.64.64 0 0 1-.36.5.35.35 0 0 1-.26.01.3.3 0 0 1-.2-.17c-.05-.13-.03-.26.09-.4.04-.04.1-.07.16-.06Zm-1.06 6.19c.08.02.14 0 .2-.08.1-.15.12-.3.04-.44a.33.33 0 0 0-.2-.16c-.21-.06-.4.03-.54.27-.06.1-.09.22-.08.34 0 .22.09.4.26.5.17.12.36.15.57.07.18-.06.34-.2.45-.42a.89.89 0 0 0-.39-1.24.85.85 0 0 0-.53-.06.97.97 0 0 0-.48.25c-.16.15-.28.33-.35.53-.07.21-.08.42-.04.64.08.35.29.61.62.77.22.11.46.14.72.08.25-.05.46-.17.64-.36.2-.2.33-.43.4-.69a1.42 1.42 0 0 0-.34-1.37 1.41 1.41 0 0 0-1.15-.39c-.22.03-.42.1-.61.22-.23.14-.42.34-.57.58a1.76 1.76 0 0 0-.06 1.73 1.58 1.58 0 0 0 1.47.84c.38 0 .72-.13 1.02-.37.3-.23.53-.53.66-.9.21-.56.2-1.12-.07-1.66a1.9 1.9 0 0 1-.16-1.54 2 2 0 0 1 1.15-1.22 1.7 1.7 0 0 1 1.63.2 1.63 1.63 0 0 1 .62 1.76 1.66 1.66 0 0 1-1.55 1.24c-.02 0-.02 0-.02-.02v-.25c0-.01 0-.02.02-.02.42-.02.77-.2 1.04-.56.19-.25.28-.54.27-.86 0-.32-.11-.6-.32-.84a1.44 1.44 0 0 0-1.7-.32c-.35.17-.61.43-.78.78-.16.35-.2.72-.11 1.1.02.07.07.2.16.38.31.66.34 1.32.08 1.99-.14.36-.36.66-.64.9-.29.25-.62.4-.98.48a1.9 1.9 0 0 1-1.83-.65 1.92 1.92 0 0 1-.44-1.48 2.11 2.11 0 0 1 1.4-1.74 1.74 1.74 0 0 1 1.41.2 1.69 1.69 0 0 1 .72 1.72c-.07.4-.26.73-.56 1.02-.21.2-.46.34-.74.4a1.4 1.4 0 0 1-1.32-.4c-.14-.15-.24-.3-.3-.5-.07-.17-.1-.36-.1-.56a1.54 1.54 0 0 1 .6-1.16c.21-.16.44-.24.69-.26a1.1 1.1 0 0 1 .9.35 1.2 1.2 0 0 1 .17 1.42c-.08.16-.2.29-.32.39a.98.98 0 0 1-.45.2.9.9 0 0 1-.51-.06.86.86 0 0 1-.4-.35.98.98 0 0 1-.01-.98.91.91 0 0 1 .36-.37.62.62 0 0 1 .37-.07c.14.02.25.07.35.15.17.14.25.31.24.53 0 .21-.1.39-.26.53a.4.4 0 0 1-.4.08.38.38 0 0 1-.25-.26c-.05-.14-.02-.28.1-.42.03-.04.06-.04.08 0l.12.15c.02.03.02.06 0 .09-.03.03-.03.07 0 .12 0 .02.02.02.03.03Zm3.84.44c-.02-.01-.04 0-.05.03a4.38 4.38 0 0 1-1.5 2.37 3.8 3.8 0 0 1-3.58.7 3.54 3.54 0 0 1-2.34-2.56 3.94 3.94 0 0 1 1.7-4.2c.43-.28.9-.46 1.44-.54.01 0 .02 0 .02-.02l-.04-.26c0-.01 0-.02-.02-.02a3.9 3.9 0 0 0-1.48.54 4.24 4.24 0 0 0-1.86 4.75 3.93 3.93 0 0 0 1.36 2 3.82 3.82 0 0 0 2.53.79 4.09 4.09 0 0 0 2.48-.97 4.69 4.69 0 0 0 1.57-2.5c0-.03 0-.05-.03-.06l-.2-.05ZM11.3 9.3c.22.02.42-.06.59-.22a.85.85 0 0 0 .26-.57.81.81 0 0 0-.22-.64.83.83 0 0 0-.65-.28c-.25 0-.47.1-.66.28a1.11 1.11 0 0 0-.28 1.32 2.97 2.97 0 0 1-1.03 3.88 2.56 2.56 0 0 1-1.71.34 2.38 2.38 0 0 1-1.5-.9 2.57 2.57 0 0 1-.29-2.63 2.68 2.68 0 0 1 1.37-1.33 2.19 2.19 0 0 1 1.79.05l.3.15c.02 0 .03.03.02.05l-.1.2c0 .03-.02.04-.05.03a2.6 2.6 0 0 0-.7-.3 2.01 2.01 0 0 0-1.68.4c-.39.3-.65.7-.8 1.16a2.25 2.25 0 0 0 .43 2.13 2.07 2.07 0 0 0 1.37.7 2.32 2.32 0 0 0 1.8-.6 2.66 2.66 0 0 0 .55-3.16c-.06-.11-.1-.2-.12-.27a1.42 1.42 0 0 1 .71-1.64 1.18 1.18 0 0 1 1.64.5 1.18 1.18 0 0 1-.5 1.52 1 1 0 0 1-.66.12c-.01 0-.02-.01-.02-.03l.03-.24c0-.02.01-.03.03-.03l.08.01Zm-6.44 2.18c-.12-.97.12-1.84.74-2.6A3.05 3.05 0 0 1 7.56 7.7a2.8 2.8 0 0 1 1.83.33l.13-.24v-.02a3.12 3.12 0 0 0-2.5-.25c-.51.16-.98.45-1.39.86a3.79 3.79 0 0 0-1.1 2.63 3.52 3.52 0 0 0 .94 2.4 3.46 3.46 0 0 0 2.85 1.04c.6-.06 1.16-.27 1.67-.62a4.07 4.07 0 0 0 1.59-2.23l-.26-.08h-.01c-.26.83-.71 1.49-1.37 1.98a3.25 3.25 0 0 1-3.48.3c-.4-.21-.73-.5-1-.87a3.02 3.02 0 0 1-.6-1.46Zm9-3.77c.19.54.18 1.08 0 1.61a2.87 2.87 0 0 1-2.48 1.93c-.02 0-.03 0-.03-.02l-.03-.24c0-.02 0-.03.02-.04.1 0 .25-.04.45-.08.35-.08.66-.23.93-.45.4-.33.7-.72.85-1.16.17-.47.18-.95.03-1.44 0-.02 0-.03.02-.04l.2-.09c.02-.01.04 0 .05.02ZM11.3 8.75a.1.1 0 0 1-.02-.08.1.1 0 0 1 .04-.06c.01-.02.02-.04 0-.06l-.08-.2c-.01-.03-.03-.04-.05-.02-.18.13-.25.3-.19.48.04.13.13.22.27.26.13.04.26.01.4-.09a.67.67 0 0 0 .27-.44.61.61 0 0 0-.13-.5.62.62 0 0 0-.5-.25c-.2 0-.38.08-.54.23a.85.85 0 0 0-.26.8c.01.09.06.22.15.39l.09.18a3.1 3.1 0 0 1-.15 2.63c-.28.5-.64.9-1.1 1.2a2.8 2.8 0 0 1-2.58.22 2.57 2.57 0 0 1-1.4-1.46A2.9 2.9 0 0 1 7 8.37a2.42 2.42 0 0 1 2.16.03c.04.02.06 0 .08-.03l.07-.16c.02-.04 0-.07-.03-.09a2.73 2.73 0 0 0-2.36-.04 3.1 3.1 0 0 0-1.51 1.43 3.1 3.1 0 0 0 .04 3.01 2.88 2.88 0 0 0 2.5 1.44c.67 0 1.3-.2 1.85-.6a3.49 3.49 0 0 0 1.1-4.32 1.07 1.07 0 0 1-.12-.33c-.02-.25.09-.44.32-.57a.37.37 0 0 1 .27-.04c.08.02.15.06.2.13.06.08.08.15.07.24 0 .1-.05.18-.13.25a.2.2 0 0 1-.16.06.09.09 0 0 1-.06-.03Z" fill="#0097FF"/></svg>