<!-- by TradingView --><svg width="18" height="18" viewBox="0 0 18 18" xmlns="http://www.w3.org/2000/svg"><path fill="#F0F3FA" d="M0 0h18v18H0z"/><path d="M11.11 4h.21v7.78l.16.02V4.12h.21v7.72l.1.01V4.24H12v7.65c1.64.3 2.63.8 3 1.11-.53-.3-2.47-.9-5.95-.9-3.49 0-5.49.6-6.05.9.3-.23.96-.58 2-.87V8.28c.3-.26.9-.76.93-.74.03.02.02 2.84 0 4.38l.18-.04V7.54h.21v4.3l.16-.02V7.66h.21v4.13l.1-.01v-4H7v3.97l.5-.05V6.53c.3-.25.9-.75.93-.73.03.02.01 4.26 0 5.85h.18V5.8h.21v5.84h.16V5.92h.21v5.72h.1v-5.6h.21v5.6l.5.02V4.73c.3-.25.9-.75.93-.73.03.02.01 6.18 0 7.73l.18.03V4Z" fill="#F4B12F"/></svg>