<!-- by TradingView --><svg width="18" height="18" viewBox="0 0 18 18" xmlns="http://www.w3.org/2000/svg"><path fill="#F0F3FA" d="M0 0h18v18H0z"/><path d="M8.35 6.7c-.04.06-.03.07.03.04a7.42 7.42 0 0 1 2.9-.78c.34-.02.7.01 1.05.1.58.15 1 .48 1.28 1v.03h-.02a1.96 1.96 0 0 0-.92-.66 3.24 3.24 0 0 0-1.44-.17A5.53 5.53 0 0 0 7.4 8.3c-.02 0-.03 0-.04-.02l-.73-1.2a.54.54 0 0 0-.4-.27l-.17-.03c-.16-.02-.2.04-.11.18l2.73 4.52c.02.04.02.08-.02.1a3.5 3.5 0 0 1-1.44.61c-.5.09-.98.04-1.44-.14a3.28 3.28 0 0 1-1.2-.83c-.13-.13-.2-.24-.25-.34a5.51 5.51 0 0 1 .3-4.37 4.87 4.87 0 0 1 2.71-2.25 4.92 4.92 0 0 1 4.02.36 5.7 5.7 0 0 1 1.7 1.51l-.01.01h-.01c-.2-.19-.41-.32-.67-.39a4.13 4.13 0 0 0-2 .09 6.9 6.9 0 0 0-2.02.87Z" fill="#F07F2F"/><path d="M10.25 13.77a4.2 4.2 0 0 0 2.05-3.22c.08-.84-.1-1.56-.53-2.15a2.67 2.67 0 0 0-1.95-1.07c-.02 0-.04-.01-.05-.03v-.02c0-.02 0-.04.03-.05a6.06 6.06 0 0 1 1.65-.4c.2-.03.4-.02.64 0 .8.08 1.37.48 1.7 1.2.16.37.23.77.2 1.21a4.96 4.96 0 0 1-3.71 4.6c-.2.06-.21.04-.03-.07Z" fill="#DAB778"/><path d="M4.76 11.66c.46.54 1.05.84 1.76.9a4.5 4.5 0 0 0 2.12-.33 5.27 5.27 0 0 0 1.78-1.18c.54-.54.87-1.13.98-1.79l.03-.03c.02 0 .04 0 .05.02.17.24.26.56.27.96a5.43 5.43 0 0 1-.77 2.58c-.18.3-.38.54-.61.74-.28.24-.56.38-.84.42a5.1 5.1 0 0 1-4.82-2.28l.02-.01h.03Z" fill="#196692"/></svg>