<!-- by TradingView --><svg width="18" height="18" viewBox="0 0 18 18" xmlns="http://www.w3.org/2000/svg"><path fill="#13446F" d="M0 0h18v18H0z"/><path d="M6.58 4.06c-.24.07-.3.1-.37.18a.47.47 0 0 0-.1.46.5.5 0 0 1 .02.11l-.94.25c-.97.26-1.16.3-1.18.33-.02.02-.01.93.01 1.2.08.9.21 1.79.42 2.75a6.03 6.03 0 0 0 1.75 3.59c.5.52 1.06.97 1.8 1.45.3.2.99.62 1.01.62l.4-.23a11 11 0 0 0 2.41-1.85 5.93 5.93 0 0 0 1.67-3.22c.25-1.08.4-2.05.49-3.01.03-.35.04-1.28.02-1.3a80.3 80.3 0 0 0-4.51-1.13c-.03 0-.34.63-1.3 2.58a219.9 219.9 0 0 0-1.26 2.6l1.06-.17c.57-.1 1.05-.17 1.06-.16l-.39 1.79a80.39 80.39 0 0 0-.36 1.78 1630.1 1630.1 0 0 0 3-5.1c0-.01-.49.03-1.08.09l-1.08.1 1.04-2.62c0-.02 1.15.27 2.43.6l.7.18v.18a20.58 20.58 0 0 1-.58 3.79c-.15.6-.28.95-.53 1.39-.58 1.01-1.53 1.88-3.05 2.8l-.14.09-.32-.2a9.69 9.69 0 0 1-1.94-1.5 5.29 5.29 0 0 1-1.47-2.66A20.2 20.2 0 0 1 4.7 6.1v-.17l.77-.2.8-.2c.02 0 .05.05.07.15.05.17.1.25.2.3.12.07.18.06.46 0 .15-.05.27-.08.27-.1l-.05-.2c-.04-.15-.05-.21-.04-.22l.28-.07c.14-.04.26-.08.28-.1.04-.03.04-.1 0-.2s-.07-.1-.38-.02c-.19.05-.27.06-.28.05A5.23 5.23 0 0 1 7 4.78l.26-.08c.14-.04.28-.08.3-.1.04-.02.04-.03.03-.13 0-.1-.05-.16-.13-.16l-.28.06-.26.06-.04-.15C6.82 4.02 6.81 4 6.8 4l-.22.06Z" fill="#CFE54E"/></svg>