<!-- by TradingView --><svg width="18" height="18" viewBox="0 0 18 18" xmlns="http://www.w3.org/2000/svg"><path fill="#F0F3FA" d="M0 0h18v18H0z"/><path fill-rule="evenodd" d="M13.55 11.38 9.72 4.73a.82.82 0 0 0-1.44 0l-3.83 6.65a.9.9 0 0 0 0 .9c.16.26.42.42.72.42h7.66c.3 0 .56-.16.72-.42a.9.9 0 0 0 0-.9ZM10 4.58a1.17 1.17 0 0 0-2.02 0l-3.83 6.66c-.45.78.11 1.76 1.01 1.76h7.66c.9 0 1.46-.98 1.01-1.76L10 4.59Z" fill="#147E4D"/><path d="M7 11.75c0-.14.11-.25.25-.25h3.5a.25.25 0 1 1 0 .5h-3.5a.25.25 0 0 1-.25-.25Zm2.75-5a.75.75 0 1 1-1.5 0 .75.75 0 0 1 1.5 0Z" fill="#147E4D"/><circle cx="8.5" cy="9.5" r=".5" fill="#147E4D"/><path d="M7 9.5c0 .6.58 1.05.87 1.2-.17-.3-.35-.75-.35-1.2 0-.45.35-.9.87-.9s.7.6 1.04.6c.35 0 .35-.15.53-.3.17-.15.34.3.34.6s-.34.75-.52.9c-.14.12-.15.1-.27-.05.35-.45.17-.6 0-.6s-.87.45-.87.75.8.5 1.32.5c.41 0 .87-.1 1.04-.15-.35 0-.7-.15-.7-.3s.35-.45.35-1.05c0-.6-.52-1.5-1.74-1.5C7.7 8 7 8.75 7 9.5Z" fill="#147E4D"/></svg>