<!-- by TradingView --><svg width="18" height="18" viewBox="0 0 18 18" xmlns="http://www.w3.org/2000/svg"><path d="M0 9a9 9 0 1 1 18 0A9 9 0 0 1 0 9Z" fill="#F0F3FA"/><path d="M6.08 7h.12c.24.02.48.08.64.2.67.44-.93 1-1.56.72-.3-.13-.35-.4-.2-.59.17-.22.61-.33 1-.33ZM6.6 10.01c.4.13.58.73.16.94-.32.16-.79-.07-.76-.45a.5.5 0 0 1 .14-.3.57.57 0 0 1 .27-.19.42.42 0 0 1 .2 0ZM9.7 12.42c-.13 0-.2-.04-.2-.2v-2.8a17.12 17.12 0 0 0-.3-3.59c-.03-.18.09-.24.24-.25 1.75 0 3.56 1.54 3.56 3.16 0 1.61-1.57 3.7-3.3 3.68ZM8.7 4c-.25 0-.5.02-1 .17-.2.07-.2.32-.2.48 0 .3 0 .93.34.93.25 0 .28 0 .34.25.29 1.1.17 2.1.2 3.25 0 .43-.16 3.08-.29 3.34h-.55c-.29 0-.5.07-.54.54 0 .08.09.6.25.8.25.24.66.24 1.05.24 2.92 0 5.7-2.1 5.7-5.26.02-2.68-2.5-4.72-5.3-4.74Z" fill="#181B1E"/></svg>