<!-- by TradingView --><svg width="18" height="18" viewBox="0 0 18 18" xmlns="http://www.w3.org/2000/svg"><path fill="#F0F3FA" d="M0 0h18v18H0z"/><path d="M7.59 5.94a14.21 14.21 0 0 1 4.2-1.4A4.79 4.79 0 0 0 9.51 4h-3.4a.94.94 0 0 0-.57.22.89.89 0 0 0-.3.53L4.61 9l-.03.24.01-.07c.26-1.16 1.27-2.3 2.99-3.23Z" fill="#F39800"/><path d="M14 8.12c-1.77-.06-3.5.26-4.86.88-1.28.58-2.1 1.34-2.35 2.14-.24.72 0 1.43.66 2 .17.15.35.28.54.4a7.58 7.58 0 0 1-2.16-1.28c-.92-.8-1.37-1.75-1.28-2.74l-.54 3.73a.62.62 0 0 0 .15.53.66.66 0 0 0 .52.22h3.39a5.72 5.72 0 0 0 1-.09A6.08 6.08 0 0 0 13.94 9c.04-.3.06-.59.05-.88Z" fill="#004FA3"/></svg>