<!-- by TradingView --><svg xmlns="http://www.w3.org/2000/svg" width="18" height="18"><path fill="url(#asgihw13x)" d="M0 0h18v18H0z"/><path fill-rule="evenodd" d="M3 6h.6a1.5 1.5 0 010 3H3V6zm.6.67h.07a.83.83 0 110 1.66H3.6V6.67zM18 10H0v1h18v-1zM6 6.67v.5h1.2v.66H6v.5h1.2V9H5.4V6h1.8v.67H6zm7.8.5v-.5H15V6h-1.8v3H15v-.67h-1.2v-.5H15v-.66h-1.2zM8.4 6h-.6v3h.6V7.34L9.3 9h.6V6h-.6v1.7L8.4 6zm4.2 1.5c0 .83-.47 1.5-1.05 1.5-.58 0-1.05-.67-1.05-1.5S10.97 6 11.55 6c.46 0 .85.42 1 1h-.64c-.08-.2-.21-.33-.36-.33-.25 0-.45.37-.45.83 0 .46.2.83.45.83.15 0 .28-.13.36-.33h-.36v-.67h1.05v.17z" fill="#fff"/><path opacity=".4" d="M3 12h12v1H3v-1z" fill="#fff"/><defs><linearGradient id="asgihw13x" x1="9" y1="10.76" x2="9" y2="10.89" gradientUnits="userSpaceOnUse"><stop stop-color="#01407B"/><stop offset="1" stop-color="#958E7E"/></linearGradient></defs></svg>