<!-- by TradingView --><svg width="18" height="18" viewBox="0 0 18 18" xmlns="http://www.w3.org/2000/svg"><path fill="#F0F3FA" d="M0 0h18v18H0z"/><path d="M8.82 14H8v-.65c-.2-.03-.42-.09-.66-.17l-.33.52-.65-.36.28-.44a4.1 4.1 0 0 1-.54-.33l-.41.4-.54-.5.4-.4c-.1-.11-.2-.24-.3-.39l-.54.28-.36-.62.58-.3c-.05-.14-.1-.28-.12-.44l-.71.09-.1-.7.72-.1a4.57 4.57 0 0 1 0-.33L4 9.48l.08-.7.74.07c.03-.12.07-.25.12-.36l-.57-.32.39-.6.52.28c.11-.15.24-.3.37-.42l-.38-.33.51-.52.44.38c.17-.12.35-.22.53-.31L6.5 6.2l.66-.33.28.48.56-.18V3h.82v11Zm.36 0H10v-.65c.2-.03.42-.09.66-.17l.33.52.65-.36-.28-.44c.18-.1.36-.2.54-.33l.41.4.54-.5-.4-.4c.1-.11.2-.24.3-.39l.54.28.36-.62-.58-.3c.05-.14.1-.28.12-.44l.71.09.1-.7-.72-.1a4.53 4.53 0 0 0 0-.33l.72-.08-.08-.7-.74.07a3.06 3.06 0 0 0-.12-.36l.57-.32-.39-.6-.52.28c-.11-.15-.24-.3-.37-.42l.38-.33-.51-.52-.44.38a4.9 4.9 0 0 0-.53-.31l.25-.45-.66-.33-.28.48a7.7 7.7 0 0 0-.56-.18V3h-.82v11Z" fill="#231F20"/><path d="M8 6.72v6.15c-1-.25-3-1.2-3-3.01C5 7.8 7 6.9 8 6.72Z" fill="#ED1B24"/><path d="M10 6.72v6.15c1-.25 3-1.2 3-3.01 0-2.05-2-2.95-3-3.14Z" fill="#00A654"/></svg>