<!-- by TradingView --><svg width="18" height="18" viewBox="0 0 18 18" xmlns="http://www.w3.org/2000/svg"><path fill="#F0F3FA" d="M0 0h18v18H0z"/><path d="M3.6 12h.42c-.19-.14-.55-.55-.55-1.04 0-.6.37-.98.71-1.31.35-.34 1-.86 2.32-2 1.06-.93.8-1.71.53-2 .48.87-.45 1.7-.53 1.77L5 8.66c-.66.55-2 1.54-2 2.3 0 .52.4.91.6 1.04Z" fill="#97BF38"/><path fill-rule="evenodd" d="M4.52 12h4.54c-.45-.27-1.38-.97-1.5-1.58-.15-.77-.07-1.26.4-2.06.48-.8.88-1.58.08-2.63-.18-.27-.5-.6-.64-.73h-.92c.34.14 1.02.6 1.02 1.36 0 .95-1.2 1.85-1.72 2.22l-.09.07c-.56.4-1.73 1.24-1.73 2.26 0 .5.37.93.56 1.09ZM7.3 5.19h-.24c.29.29.53.58.6.7h.24c-.22-.39-.5-.63-.6-.7Zm0 2.4h.5c.15-.18.41-.71.3-1.37h-.3c.02.28-.06.96-.5 1.37Zm-2.13 3.45h1.09c-.07-.32-.13-1.07.13-1.51.26-.45.68-.88.85-1.03H6.6a3.2 3.2 0 0 0-1.41 2.54Z" fill="url(#a)"/><path d="M8.82 7.07c0-.92-.5-1.5-.75-1.67.99 1.19.5 2.47.13 3.05-.37.59-.64 1.54-.17 2.34A3.3 3.3 0 0 0 9.6 12h.45c-.53-.24-1.67-.95-1.96-1.85-.37-1.13.73-1.9.73-3.07Z" fill="#97BF38"/><path d="M11.72 5H7.76A2.73 2.73 0 0 1 9.1 7h2c.93 0 1.68.57 1.68 1.5S12.04 10 11.1 10H8.34c.22.95 1.41 1.61 1.98 1.73V12h1.4A3.3 3.3 0 0 0 15 8.69v-.38A3.3 3.3 0 0 0 11.72 5Z" fill="#97BF38"/><defs><linearGradient id="a" x1="6.51" y1="5" x2="6.51" y2="11.99" gradientUnits="userSpaceOnUse"><stop stop-color="#A2C34E"/><stop offset="1" stop-color="#729322"/></linearGradient></defs></svg>