<!-- by TradingView --><svg width="18" height="18" viewBox="0 0 18 18" xmlns="http://www.w3.org/2000/svg"><path fill="url(#a)" d="M0 0h18v18H0z"/><path d="M10.87 11.24c.1-.07.21-.18.36-.33.03-.03.05-.03.07.01l.07.21a.1.1 0 0 1 0 .08c-.16.3-.33.54-.5.72-.1.1-.19.2-.25.3l-.2.22a8.22 8.22 0 0 0-.47.52.74.74 0 0 1-.19.15.67.67 0 0 0-.14.14 2.81 2.81 0 0 1-1.27.73c-.17.04-.33-.04-.49-.24-.02-.03-.02-.06 0-.09.13-.14.2-.3.2-.47 0-.03.02-.06.04-.08l.37-.37a.21.21 0 0 1 .09-.05 5.95 5.95 0 0 0 1.38-1.35c.06-.08.12-.2.2-.34.06-.13.11-.23.16-.3l.12-.28c.03-.1.08-.2.13-.28a.16.16 0 0 0 .03-.09V9.87c.1-.27.2-.6.33-1 .04-.1.06-.22.07-.34v-.45c0-.33-.09-.64-.25-.93a2.21 2.21 0 0 0-.65-.73c-.41-.3-.89-.52-1.42-.66L7.55 5.5c-.03-.01-.05 0-.05.03v.5l-.01.5c0 .1 0 .25.03.45l.03.33c.02.62.04 1.03.07 1.22.07.47.12.9.15 1.3.01.07 0 .16-.06.24-.01.03 0 .06.01.08.06.05.09.09.09.11 0 .3.02.58.04.84.01.09 0 .16-.01.23a.3.3 0 0 0 .01.17l.02.13.01.13c.01.2 0 .33-.04.42a.87.87 0 0 0-.03.32c0 .03 0 .06-.03.09a.88.88 0 0 0-.2.5c-.01.03-.03.05-.06.05h-.15a.08.08 0 0 1-.08-.06l-.14-.4a.15.15 0 0 1 0-.1c.02-.05.01-.1-.02-.14a2424.56 2424.56 0 0 0-.23-.93c0-.01 0-.1-.03-.29a.82.82 0 0 0-.04-.18.9.9 0 0 1-.06-.19c-.14-1-.21-1.57-.24-1.7a.64.64 0 0 1 .01-.28.12.12 0 0 0-.01-.1c-.06-.09-.1-.28-.12-.55a5.21 5.21 0 0 0-.1-.57 5.64 5.64 0 0 1-.11-1.31c0-.04 0-.07.03-.1.16-.17.26-.35.31-.55.01-.03.03-.05.06-.07l.16-.1c.15-.09.14-.13-.04-.14a3.9 3.9 0 0 0-.44 0 .94.94 0 0 1-.43-.06 4.27 4.27 0 0 0-.67-.17c-.04 0-.06-.03-.06-.06L5 4.23c0-.04.01-.06.06-.05.1.03.17.02.21-.04a.11.11 0 0 1 .09-.05l.35-.02c.05 0 .12-.02.23-.05a.38.38 0 0 1 .25 0l.19.05c.05 0 .1-.02.15-.04a18.78 18.78 0 0 1 1.28.08 6.49 6.49 0 0 1 3 1.12l.27.2c.07.02.13.06.16.1.27.27.44.6.53.96 0 .03.02.06.05.09.02.03.04.05.04.08a4.06 4.06 0 0 1 .07 1.71c-.02.36-.09.63-.18.8-.07.14-.13.28-.18.44a6.15 6.15 0 0 1-.74 1.6c-.04.06-.03.08.04.03Z" fill="#FFFFFE"/><defs><linearGradient id="a" x1="3.35" y1="3.12" x2="21.9" y2="24.43" gradientUnits="userSpaceOnUse"><stop stop-color="#1A1E21"/><stop offset="1" stop-color="#06060A"/></linearGradient></defs></svg>