<!-- by TradingView --><svg width="18" height="18" viewBox="0 0 18 18" xmlns="http://www.w3.org/2000/svg"><path fill="#F0F3FA" d="M0 0h18v18H0z"/><path fill="#37A535" d="M4 5h10v.29H4zM4 12.71h10V13H4zM4 6h1v.04L5.01 6h1.33c.42.02 1.42.26 2 1l-.46 1C7.64 7.64 7 7 6.4 7H5v4h1.39C7 11 7.75 10.13 8 9.75c.23-.42.6-1.19.82-1.64l.13-.27c.2-.4 1.14-1.84 2.8-1.84.96 0 1.9.58 2.25.87l-.7.7c-.13-.23-.62-.57-1.55-.57-1.15 0-1.74.98-2.25 2-.38.77-.91 1.66-1.15 1.96A2.97 2.97 0 0 1 6.33 12H4V6Z"/><path d="M12 9h2v3h-1v-.51a2.2 2.2 0 0 1-1.39.51c-.89 0-1.89-.75-2.28-1.13l.65-.92c.25.36.96 1.05 1.7 1.05.58 0 1.05-.24 1.32-.45V10h-1V9Z" fill="#37A535"/></svg>