<!-- by TradingView --><svg width="18" height="18" viewBox="0 0 18 18" xmlns="http://www.w3.org/2000/svg"><path fill="#F0F3FA" d="M0 0h18v18H0z"/><path fill-rule="evenodd" d="M9 12V6h4c.54.03 1.62.4 1.62 1.65 0 .61-.38 1.04-.56 1.18.3.16.9.69.9 1.5 0 1-1.13 1.67-1.97 1.67H9Zm2-4.5h1.07c.24 0 .43.22.43.5s-.2.5-.43.5H11v-1Zm0 2h1.43c.31 0 .57.22.57.5s-.26.5-.57.5H11v-1Z" fill="#B1C2DC"/><path fill-rule="evenodd" d="M14.21 8.69c.19-.2.41-.57.41-1.04 0-1.26-1.08-1.62-1.63-1.65H9v6h4c.83 0 2-.66 2-1.67 0-.67-.45-1.15-.77-1.39a1.44 1.44 0 0 0-.17-.11l.15-.14ZM9.2 11.8H13c.36 0 .81-.15 1.17-.42.35-.26.6-.63.6-1.05 0-.7-.54-1.18-.81-1.33l-.28-.15.26-.18c.15-.11.48-.49.48-1.02 0-.56-.24-.91-.53-1.13-.3-.22-.66-.3-.9-.32H9.2v5.6Zm1.6-4.5h1.27c.38 0 .63.34.63.7 0 .36-.25.7-.63.7H10.8V7.3Zm0 2h1.63c.4 0 .77.29.77.7s-.37.7-.77.7H10.8V9.3Zm.2-1.8h1.07c.24 0 .43.22.43.5s-.2.5-.43.5H11v-1Zm0 2h1.43c.31 0 .57.22.57.5s-.26.5-.57.5H11v-1Z"/><path fill-rule="evenodd" d="M3 12V6h3.76C7.51 6.17 9 7 9 8.94A3.18 3.18 0 0 1 6.68 12H3Zm2-1.5v-3h1.25c.25.08.75.5.75 1.47 0 .98-.52 1.43-.77 1.53H5Z" fill="#0E3091"/></svg>