<!-- by TradingView --><svg width="18" height="18" viewBox="0 0 18 18" xmlns="http://www.w3.org/2000/svg"><path fill="#F0F3FA" d="M0 0h18v18H0z"/><path d="M8.38 12H3l1.6-2.77h4.88v-.92c0-.2 0-.42-.18-.42-.14 0-.23.28-.26.42H5.11L6.3 6.46h5.08l.07-.11c0-.02.05.07.08.11h.17l.25-1.17c.08-.42.38-.8.52-.94.09-.12.28-.35.42-.35.17 0 .13.16.2.3.07.12.06.16.03.28v.01c-.04.13.04.16.16.3.12.15.1.48.1.65 0 .16.17.24.17.51s-.3.37-.34.48a.53.53 0 0 0-.03.24c0-.01.03-.06.13-.12.13-.08.17.01.38.1.2.1.25.28.34.47.09.18.23.42.28.46l.2.19-.48.18c-.14.06-.44.17-.55.15-.13-.03-.4-.26-.6-.42a1.76 1.76 0 0 0-.42-.24c.18.3.2.85.19 1.1 0 2.4-2.85 3.24-4.27 3.36Z"/><path d="m12.84 4 .04.05.01.02v.02a.14.14 0 0 1-.1.07l-.01.02c0 .02 0 .04.03.05.05.02.08.06.09.1 0 .07.03.14.06.2.02.04.01.07-.01.1h-.05l-.04-.02a.05.05 0 0 0-.03-.03.08.08 0 0 1-.03-.03.69.69 0 0 0-.26-.27.72.72 0 0 1 .3-.28Z" fill="#7E3313"/><path d="M13.18 6.26a.43.43 0 0 0-.06.04 2.43 2.43 0 0 1-.37.14.33.33 0 0 0-.1.05l-.16.15c-.04.04-.05.1-.04.16v-.12a.1.1 0 0 1 .04-.06.52.52 0 0 0 .05-.05v-.04l-.01-.02c0-.04.01-.06.05-.08h.02V6.4l-.17.01h-.02c-.02-.02-.04-.06-.05-.13-.01-.05-.02-.1-.01-.14 0-.03.01-.06.04-.11l.02-.01h.05L12.5 6v-.04a.44.44 0 0 0-.12-.07.04.04 0 0 1-.02-.03c0-.03 0-.07.02-.11 0-.04.03-.09.1-.14a.39.39 0 0 0 .07-.08.18.18 0 0 0 .02-.06c.01-.08.03-.16.08-.25a.1.1 0 0 0 0-.09.41.41 0 0 0-.05-.07.62.62 0 0 1-.1-.26.28.28 0 0 1 .02-.2l.02-.01c.01 0 .02 0 .03.02l.06.17c.02 0 .02.02.03.03l.01.03c.03 0 .05.05.06.12 0 .03.02.07.06.11.01.02.04.03.08.05.05.02.07.06.06.14a1 1 0 0 0 0 .08l.01.1.07.2c.01.07.02.12.01.16v.05l.02.04c.03.13.08.26.15.37Z" fill="#E72723"/><path d="m12.89 4.75.02-.02c.04-.02.08-.02.1 0l.03.07a.5.5 0 0 1-.01.08c-.01.03-.04.06-.07.07-.04 0-.06 0-.08-.04a.17.17 0 0 1 0-.16Z" fill="#726260"/><path d="M12.27 5.22a2.55 2.55 0 0 1-.1-.09v-.09a10.6 10.6 0 0 0 .1-.16h.02v.03l.03.03.12.14.04.12v.08l-.02.08c0 .03-.02.04-.03.01a.42.42 0 0 0-.16-.15Z" fill="#F6E53C"/><path d="M12.98 5.1c0 .05.03.1.08.1.04 0 .07-.05.07-.1 0-.06-.03-.11-.07-.11-.05 0-.08.05-.08.1Z" fill="#815222"/><path d="M11.58 6.46h-.06a.2.2 0 0 1-.04-.05.36.36 0 0 0-.01-.03h-.02c-.02 0-.02.02-.03.03l-.01.02a.14.14 0 0 1-.18.01h.1a.1.1 0 0 0 .07-.05.28.28 0 0 0 .03-.14c0-.2-.02-.35-.05-.46l-.07-.28a1.46 1.46 0 0 0-.08-.27v-.05l.02-.03.03.01a4.24 4.24 0 0 1 .12.36l.05.13a3.68 3.68 0 0 1 .04.69l.02.07a.1.1 0 0 0 .07.04Z" fill="#B59B87"/><path d="M12.3 5.53c-.2-.04-.33 0-.4.12V5.6a.2.2 0 0 0 .03-.05v-.03a.1.1 0 0 1 0-.04.07.07 0 0 1 .07-.04c.04 0 .1 0 .18.02.04 0 .08.03.12.07Z" fill="#7E3313"/><path d="M12.3 5.53v.27l.02.06v.05c-.04.02-.1.04-.17.04a2.6 2.6 0 0 0-.05.02c-.01.03-.03.05-.05.05-.02 0-.04 0-.07-.02a.62.62 0 0 1-.1-.1v-.03l.02-.22c.07-.12.2-.16.4-.12Z" fill="#E72723"/><path d="M13.18 5.53a.06.06 0 0 0-.06.07v.09c.01.03.04.05.07.05h.01c.03 0 .06-.03.06-.07l-.01-.09a.06.06 0 0 0-.07-.05Z" fill="#726260"/><path d="m13.18 6.26.04.07c0 .02-.02.04-.03.05a5.64 5.64 0 0 0-.19.21.36.36 0 0 0-.1.07h-.03a.58.58 0 0 0-.15.04l-.26.15a.13.13 0 0 1 0-.05c-.02-.07 0-.12.03-.16a9.61 9.61 0 0 1 .16-.16.34.34 0 0 1 .1-.04 2.42 2.42 0 0 0 .37-.14.43.43 0 0 1 .06-.04Z" fill="#F6E53C"/><path d="M13.32 6.4a.36.36 0 0 0-.1.15c-.02 0-.03.02-.05.05v-.08h-.06l-.05.08a.08.08 0 0 0-.03.03v.06c.01.05-.02.14-.07.26l-.02.01a.68.68 0 0 1-.38.05v.01c.04.04.07.05.09.06.09 0 .2-.01.3-.06a.28.28 0 0 1-.17.1h-.03a.22.22 0 0 1-.15.07l-.04.01-.03.04c0 .04.02.07.07.08h.26c.06 0 .12-.01.16-.03a.15.15 0 0 1 .08 0h.08c.04 0 .06-.02.06-.05l.03.05.02.04c0 .02 0 .04-.02.05l-.06.02-.02.02.01.02.1-.01h.03s.02 0 .02.02c.04.1.04.2.01.32a.5.5 0 0 0-.14-.15.29.29 0 0 0-.1-.03 2.3 2.3 0 0 0-.25 0 .1.1 0 0 0-.03.04V7.6a.13.13 0 0 1 .09-.05c.03 0 .05-.02.06-.05v-.03c0-.03 0-.04-.03-.03a.52.52 0 0 0-.16.06l-.01.02c-.02.04-.06.05-.1.03a.24.24 0 0 1-.07-.05.18.18 0 0 1-.04-.07.85.85 0 0 0-.11-.23.25.25 0 0 1-.03-.23l.02-.02c.02 0 .02-.01.01-.02a.09.09 0 0 1 0-.08l.25-.15a.58.58 0 0 1 .15-.03l.02-.01a.36.36 0 0 1 .11-.07s.02 0 .02-.02a5.65 5.65 0 0 1 .2-.24v.05l.01.01h.09Z" fill="#C13223"/><path d="m13.22 6.55-.04.14v.03c.02.01.04 0 .05-.01a.87.87 0 0 1 .07-.09h.19c.07.02.15.05.23.06.03 0 .06.02.08.05l.17.2.08.1c.03.06.05.1.05.13 0 .06.02.1.03.14a2 2 0 0 0 .1.18.3.3 0 0 1 .05.11 1.48 1.48 0 0 0 .01.06l.13.1a4.23 4.23 0 0 1 .38.13c.1.03.16.06.2.1V8c0 .03-.01.05-.04.06h-.02a.82.82 0 0 1-.11-.06.53.53 0 0 0-.12-.06.98.98 0 0 0-.27-.06l.03-.01.01-.02v-.02a2.06 2.06 0 0 0-.13-.07.23.23 0 0 1-.11-.1 4.55 4.55 0 0 0-.04-.08.7.7 0 0 0-.12-.14.2.2 0 0 1-.07-.09l-.02-.11a.77.77 0 0 0-.08-.21c-.03-.04-.06-.06-.1-.06-.05 0-.08-.05-.11-.12a.3.3 0 0 0-.1-.05c-.05-.02-.08-.06-.08-.12l-.01-.02a.36.36 0 0 0-.15-.03l-.05.01-.01.06c0 .03 0 .05-.02.07l-.07.06-.02.01c-.03 0-.05 0-.06-.02v-.04l.04-.18c.02-.03.03-.05.05-.05Z" fill="#E4B43A"/><path d="m9.85 6.58.08-.01c.05 0 .08.01.1.06 0 .05.02.09.04.13a.5.5 0 0 1 .05.1V7l-.01.02h-.03a.34.34 0 0 1-.1-.1.73.73 0 0 0-.11-.12.26.26 0 0 1-.07-.12c-.02-.05 0-.08.05-.1Z" fill="#F6E53C"/><path d="M8.93 6.56c.12.03.11.1 0 .2l-.1.07-.03.01h-.3a76.85 76.85 0 0 1-2.1 0c-.05 0-.12 0-.2.02h-.03c-.01-.02 0-.04 0-.07l.08-.1a.19.19 0 0 1 .09-.07.4.4 0 0 1 .15-.02h.14a29.74 29.74 0 0 1 1.51.01h.17l.47-.02c.03 0 .08 0 .15-.03Z" fill="#E2CACD"/><path d="M10.9 7.83c-.02.03-.03.07-.02.1a1.71 1.71 0 0 1-.22-.2.6.6 0 0 0-.1-.07 1.59 1.59 0 0 1-.08-.07v-.02l.11-.2v-.02l-.02-.01-.13-.01h-.02v.03c0 .03.01.05.03.06.02 0 .02.03 0 .05-.05.07-.1.09-.17.04a2.5 2.5 0 0 1-.16-.14.19.19 0 0 0-.03-.1c0-.01-.01-.02-.02-.01 0 0-.02 0-.03.02l-.06.03c-.04 0-.07-.02-.09-.06a1.16 1.16 0 0 0-.06-.14l-.03-.02a.35.35 0 0 1-.13-.1.27.27 0 0 1-.04-.06.53.53 0 0 0-.03-.07l-.07-.03-.03-.03v-.03c0-.01 0-.02.03-.02h.06l.02.01.1.08.08.1c.06.08.14.15.25.2a.2.2 0 0 0 .1 0 6.19 6.19 0 0 0 .42-.08c0-.02 0-.03-.03-.04a1.48 1.48 0 0 1-.18-.06c-.02-.04-.03-.1-.04-.18 0-.07.02-.12.07-.14a.49.49 0 0 1 .2-.02h.04l.02-.03.02-.01h.06l.05.03c.07.06.1.15.1.27-.01.06-.04.1-.08.13l-.06.05a.2.2 0 0 0-.05.12c0 .02 0 .03.02.05l.05.02a4.4 4.4 0 0 1 .27.02l.1.05c.02 0 .03.02.03.04 0 .04-.01.08-.04.1l-.04.06a.15.15 0 0 0-.04.06.26.26 0 0 1-.06.09l-.01.02v.01c-.02 0-.02.02-.03.02a.38.38 0 0 1-.08.1h.06Z" fill="#E72723"/><path d="M8.92 6.77c0 .06 0 .13.02.2 0 .03.02.04.04.05l.12.05c.04.02.06.05.06.1.1.02.17.04.21.07l-.23-.05-.02-.06a.6.6 0 0 0-.33-.1 131.12 131.12 0 0 0-2.53 0c-.04 0-.06-.03-.08-.08l.01-.02a.29.29 0 0 1 .2-.07 27.38 27.38 0 0 0 2.1-.02H8.84l.1-.07Z" fill="#726260"/><path d="M6.18 6.79c-.02.03-.02.05-.01.06 0 .01 0 .02.02.02a.81.81 0 0 1 .21-.03 3.16 3.16 0 0 0 .43 0 76.72 76.72 0 0 0 1.05.02c-.54.01-1.04.02-1.49 0a.29.29 0 0 0-.2.07v.02c0 .05.03.07.07.08a.8.8 0 0 0 .2.01 18.13 18.13 0 0 1 1.94-.01h.4a.6.6 0 0 1 .32.1.74.74 0 0 0-.2-.02l-.42.04c-.61 0-1.22 0-1.84.02l-.46-.01c-.11 0-.2.02-.28.08h-.01a3.01 3.01 0 0 1 .2-.36.3.3 0 0 1 .07-.1Z" fill="#9B908F"/><path d="M12.25 7.58c.02.04.01.1 0 .16l-.02.02-.02-.01h-.01a243.77 243.77 0 0 0-.26-.43.48.48 0 0 0-.08-.08 2.19 2.19 0 0 1-.03-.03.26.26 0 0 1-.06-.08.33.33 0 0 0-.06-.08v-.02c0-.02 0-.04-.02-.07a.27.27 0 0 1 0-.13c0-.04.02-.04.04-.01l.05.12.01.02c.08.07.12.11.13.14.02.08.05.13.07.16a21.55 21.55 0 0 0 .21.26c.03.02.05.04.05.06Z" fill="#3D6262"/><path d="M13.27 6.95a.23.23 0 0 1 .06-.08c.02-.02.04-.02.06 0 .08.06.11.14.1.24l-.03.03c-.04 0-.07.02-.08.04l-.02.02-.02-.01a.8.8 0 0 1-.08-.15.1.1 0 0 1 .01-.09Z" fill="#5B8BB2"/><path d="M13.9 7.03c-.05-.03-.1-.05-.14-.04l-.01.02.01.03.01.01c.02.04.06.08.1.12l.01.02.02.13.04.13.01.02c.06.04.1.07.12.1.03.04.04.09.03.14 0 .01 0 .02-.02.02h-.02c-.08.03-.13.03-.17 0a.2.2 0 0 0 .18-.06c.02-.03.02-.05 0-.08-.03-.04-.06-.05-.1-.04-.03 0-.05.03-.06.06a.29.29 0 0 0-.02.13v-.12l-.02-.03a.25.25 0 0 1-.04-.09v-.03a1 1 0 0 0-.03-.15.3.3 0 0 0-.08-.13l-.02-.07v-.19a.4.4 0 0 0 0-.08c.03.07.06.11.11.12.04 0 .07.02.1.06Z" fill="#815222"/><path d="M13.24 7.24c0 .03-.02.05-.06.05h-.16a.38.38 0 0 1-.16.02l-.13.01h-.13c-.05-.01-.07-.04-.07-.08l.03-.04.04-.01c.06 0 .11-.02.15-.06l.03-.01c.07-.01.13-.04.17-.1.05-.02.07-.06.09-.11v-.02l.02.01.03.05c.09.11.14.2.15.29Z" fill="#F6E53C"/><path d="M9.5 7.2c.03.03.08.04.11.02s.03-.07 0-.11c-.02-.04-.07-.05-.1-.02-.03.02-.04.07 0 .1Z" fill="#5B8BB2"/><path d="m9.12 7.13.02.06c0 .02.01.03.03.04.05.03.04.05-.01.05a3.81 3.81 0 0 1-.26.02 203.33 203.33 0 0 1-.02-.01l.13-.01a7.98 7.98 0 0 1 .14-.03l-.05-.08a.06.06 0 0 0-.06-.04.06.06 0 0 0-.05.04l-.03.05-.02.01a21.68 21.68 0 0 0-1.04-.01 20.47 20.47 0 0 0-1.98.02.39.39 0 0 1 .28-.08h.46l1.84-.01.42-.04.2.02Z" fill="#E2CACD"/><path d="M6.94 7.3a50.4 50.4 0 0 1-1.06-.01l.03-.05h.01l.2-.01a346.3 346.3 0 0 1 2.28 0 21.68 21.68 0 0 1 .56 0l.03-.06a.06.06 0 0 1 .05-.04c.03 0 .05.01.06.04l.05.08v.02a7.98 7.98 0 0 0-.27.02 44.32 44.32 0 0 0-.88 0l-1.06.01Z" fill="#F3E7DA"/><path d="M9.37 7.24c.04.03.08.06.1.1v.03c0 .08.02.12.05.14.03.02.06.03.1.02h.05l.04.05v.03l.21.13.09.06.07.06.11.07.11.08.06.06c.03.04.06.07.11.1a3.78 3.78 0 0 0-.5-.04h-.33c-.03 0-.04.02-.04.04v.04c0 .03 0 .04.03.03l.25-.01h.25a2 2 0 0 1 .31.02c.17.03.38.02.62-.03a.8.8 0 0 1-.17.06 2.4 2.4 0 0 1-.57 0h-.3c-.2.02-.35.02-.45 0 0-.1 0-.2-.02-.3 0-.06-.02-.1-.06-.13a.47.47 0 0 0-.1-.08h-.03l-.1-.01a3.9 3.9 0 0 0 .54.03c.06 0 .07 0 .03-.04a2 2 0 0 0-.12-.1.25.25 0 0 0-.09-.05.5.5 0 0 0-.1-.02 3.42 3.42 0 0 0-.48.01 36.29 36.29 0 0 1-1.8.03 191.4 191.4 0 0 0-1.42.03 12.26 12.26 0 0 1-.2 0v.02H5.6a.4.4 0 0 1 .13-.2l.05-.03a.1.1 0 0 0 .06-.07c0-.04.02-.07.04-.08.02.02.05.03.1.03l.1-.01h.86a203.01 203.01 0 0 0 2.22-.03c.05 0 .06-.02.01-.05-.02 0-.03-.02-.03-.04l.23.05Z" fill="#83736A"/><path d="M13.46 7.32c-.03-.04-.03-.07-.01-.12l.02-.02c.03 0 .06 0 .08.04l.04.1.01.1.05.16c0 .02 0 .04-.03.04h-.01c-.03.02-.04 0-.05-.02 0-.05-.02-.1-.04-.12a.27.27 0 0 1-.06-.14v-.02Z" fill="#5B8BB2"/><path d="M11.17 7.83c-.07.07-.14.12-.2.16-.03.02-.05 0-.07-.02l-.02-.04c-.01-.03 0-.07.03-.1a2 2 0 0 0 .06-.07l.14-.13a.25.25 0 0 0 .07-.06.16.16 0 0 1 .07-.06.29.29 0 0 1 .18-.02l.02.02v.1l-.07.08-.21.14Z" fill="#F6E53C"/><path d="M13.9 7.74V7.6c.02-.03.04-.05.07-.06.04-.01.07 0 .1.04.02.03.02.05 0 .08a.2.2 0 0 1-.18.07Z" fill="#E4B43A"/><path d="M9.26 7.76a.12.12 0 0 1-.07.03.45.45 0 0 1-.18.04c-.2-.02-.4-.03-.6-.02a63.7 63.7 0 0 1-1.56.05 70.9 70.9 0 0 0-1.35.07l.02.02c.01.03.04.04.06.03a11 11 0 0 1 1.22 0h.54a18.86 18.86 0 0 0 1.55 0c.06-.01.1 0 .15.05l-.03.16a.46.46 0 0 1-.2.03 5.17 5.17 0 0 0-.4-.02H7.2a19.4 19.4 0 0 0-1.91.02l-.02-.01v-.02l.23-.4v.06h.03c.16-.06.3-.09.4-.09h3.02c.04 0 .1 0 .19-.03l.01-.02c0-.02 0-.02-.02-.02a2854.77 2854.77 0 0 0-3.24-.02h-.29l.02-.02.02-.01a12.26 12.26 0 0 0 .34.01 191.4 191.4 0 0 1 3.63-.05c.03 0 .06.02.09.04l.12.1c.04.05.03.06-.03.05h-.06l-.48-.03Z" fill="#B59B87"/><path d="M11.49 7.98c-.04 0-.07.04-.08.1a.33.33 0 0 0-.13-.17h-.02l-.15-.02h-.02l-.11.12-.02.01c-.04 0-.05-.01-.06-.05.02.03.04.04.06.02.07-.04.14-.1.2-.16v.01l.03.02.03-.01c.06-.06.13-.1.21-.13l.02-.02c.02-.07.06-.1.12-.13.05-.01.08 0 .1.05.02.02.02.04 0 .06a.28.28 0 0 1-.13.1l-.02.02v.08a.2.2 0 0 1-.08.07v.01l.01.02h.04Z" fill="#E72723"/><path d="M13.36 7.77a.4.4 0 0 1 .02.24c0 .01 0 .02-.01.01a.62.62 0 0 1-.23-.14L13 7.75l-.16-.12a.1.1 0 0 1 .03-.05h.24l.11.04a.5.5 0 0 1 .14.15Z" fill="#F6E53C"/><path d="m5.51 7.8.09-.13h.01a2.41 2.41 0 0 1 .4 0 37.84 37.84 0 0 1 .82.02 2890.22 2890.22 0 0 1 2.33.02l-.01.02a.84.84 0 0 1-.2.03h-3c-.12 0-.25.03-.4.1l-.03-.01c-.02-.01-.02-.03 0-.06Z" fill="#F3E7DA"/><path d="M11.88 7.78a.47.47 0 0 1-.1.36.33.33 0 0 0-.05.08l-.04.09c0 .01-.01.02-.03.02l-.03-.01-.06-.08c-.01 0-.02 0-.03-.02a.34.34 0 0 1-.1-.09.66.66 0 0 1-.03-.05c0-.06.04-.1.08-.1.05-.01.1-.03.14-.07a.22.22 0 0 0 .05-.1.3.3 0 0 1 .03-.06c.02-.03.04-.04.07-.03a.3.3 0 0 1 .1.06Z" fill="#F6E53C"/><path d="M12.41 8c.06.05.08.1.08.16a4.56 4.56 0 0 0 .01.48c.01.07-.02.11-.09.13a1.13 1.13 0 0 1-.04-.2.4.4 0 0 0-.04-.13 2 2 0 0 0-.11-.2.43.43 0 0 1-.06-.1 1.64 1.64 0 0 0-.04-.13c-.06-.05-.07-.1-.04-.18l.02-.01.02.01.05.13.02.01a.2.2 0 0 0 .1 0l.01-.01-.01-.13c-.02-.05 0-.08.04-.1l.02.01c.05.08.07.16.06.26Z" fill="#B59B87"/><path d="M13.54 7.76h.12c.02 0 .03.02.04.03.02.01.02.03.02.05v.03c0 .03-.01.05-.04.07l-.1.04a.07.07 0 0 1-.07 0 .07.07 0 0 1-.03-.05l-.01-.1c0-.01 0-.03.02-.05a.07.07 0 0 1 .05-.02ZM12 7.97l-.03-.02-.02-.01h-.01c-.01 0-.02 0-.01.02v.06L11.9 8l-.01.01-.01.14v.03l.07.06h.02v-.08l.12.47.05.05v.01h-.01a.31.31 0 0 0-.06-.03l-.03-.06A.05.05 0 0 0 12 8.6h-.04c-.03.03-.06.03-.1.01a.18.18 0 0 1-.06-.07 8.39 8.39 0 0 0-.1-.13.5.5 0 0 0-.1-.07l-.01-.02-.02-.07.06.08.03.01c.02 0 .03 0 .03-.02l.04-.09a.33.33 0 0 1 .04-.08c.1-.12.13-.24.11-.36a.2.2 0 0 1 .04.09v.01l.08.09Z" fill="#C13223"/><path d="M9.19 7.8c-.1.03-.14.11-.15.23a.2.2 0 0 0-.15-.06L8.61 8a18.87 18.87 0 0 1-1.8-.02h-.55a11 11 0 0 0-.68.01.07.07 0 0 1-.06-.03l-.02-.02V7.9h.02a4.07 4.07 0 0 0 .9-.03 71.72 71.72 0 0 1 2.6-.04c.04 0 .1-.01.17-.04Z" fill="#83736A"/><path d="m13.86 8.08-.08.01a.13.13 0 0 1-.01-.1c.01-.03.03-.05.06-.04.05 0 .1 0 .12-.02l.13-.08.04-.03a.08.08 0 0 1 .05-.02c.03 0 .04 0 .06.02v.06l-.06.04a.33.33 0 0 0-.1.06A.19.19 0 0 1 14 8a.43.43 0 0 0-.15.08Z" fill="#815222"/><path d="M12 7.97c.02.08.04.14.06.16a3.75 3.75 0 0 1 .18.37l.06.2c-.04.04-.1.02-.21-.06l-.11-.47-.05-.15v-.06l.01-.02h.03l.03.03Z" fill="#F6E53C"/><path d="m11.28 8.03.03.07v.05l-.04.03-.05.02h-.05a.06.06 0 0 1-.03-.04l-.01-.06.01-.06.03-.03a.06.06 0 0 1 .06-.02c.02 0 .04.02.05.04Z" fill="#5B8BB2"/><path d="M12.36 9.64v-.07l-.01-.02-.26.01h-.16a.2.2 0 0 0-.04.08c0-.04 0-.09-.02-.15v-.1l.05-.08.06-.02H12l.06-.07c.05-.05.06-.1.02-.15l-.04-.03c-.03-.03-.05-.04-.05-.06a.14.14 0 0 1 .01-.11.63.63 0 0 1 .08-.11l.01-.02a.1.1 0 0 0-.02-.07l.06.03c.01 0 .01 0 0 0a.21.21 0 0 1-.04-.06c.1.08.17.1.2.06.04.07.03.12-.02.16l-.02.02a.3.3 0 0 1-.06.1.05.05 0 0 0-.01.04c0 .03.01.05.04.07h.05l.18-.09V8.88a1.07 1.07 0 0 1-.04-.11c.07-.02.1-.06.1-.13l-.03-.1v-.38c.01-.06-.01-.11-.07-.16.06.03.1.07.1.12a.3.3 0 0 1 0 .12.35.35 0 0 0-.02.11l.02.16c0 .03 0 .07.02.1.02.04.01.08 0 .12l-.01.03c.02.07.02.15 0 .22v.1c0 .05 0 .09-.03.12a.44.44 0 0 0-.03.13c0 .03-.01.07-.04.12a1 1 0 0 0-.06.2Z" fill="#6C4E36"/><path d="m11.07 8.2-.01.02c-.24.05-.45.06-.62.03a2 2 0 0 0-.3-.02h-.26l-.25.01c-.02 0-.03 0-.03-.03v-.04c0-.02.01-.03.04-.03l.32-.01h.26l.25.04c.12.02.2.03.26.01.1-.02.2-.06.28-.12h.04l.02.04v.1Z" fill="#F3E7DA"/><path d="M11.07 8.2a.6.6 0 0 0 0 .07c0 .03 0 .05.02.07l.06.1.05.15.06.12a7.27 7.27 0 0 1 .1.29c.01 0 .03 0 .05-.02l.01-.02a.4.4 0 0 1 0-.02l.02-.02h.02l.01.02c0 .07.03.11.1.14v.02l.02.1v.03a.95.95 0 0 1 .08.08.1.1 0 0 1 .03.08v.11l.05.06a10.31 10.31 0 0 0-1.09.03 29.01 29.01 0 0 1-1.1 0h-.4a18.95 18.95 0 0 1-1.01.07 66.07 66.07 0 0 0-1.83.02 303.58 303.58 0 0 1-1.84 0 .56.56 0 0 0 .06-.14l.03-.03c.03-.03.08-.04.16-.03a2.56 2.56 0 0 0 .5 0 28.22 28.22 0 0 1 1.73 0 3396.61 3396.61 0 0 1 2.34-.02c.08 0 .15-.01.2-.03.05-.02.08-.06.09-.13.51.03 1.08.03 1.69 0 .1 0 .18-.03.24-.06l.02-.02c.02-.06 0-.11-.04-.14a.2.2 0 0 0-.13-.02c-.22.02-.43.03-.64.02h-.54a9.63 9.63 0 0 1-.58 0l-.02.07v-.42a.2.2 0 0 0 .01.11l.02.02a9.97 9.97 0 0 0 1 0 3.47 3.47 0 0 0 .5-.05c.03 0 .05 0 .06.04 0 .03.02.05.04.07.02.02.04.03.07.01v-.02a.96.96 0 0 0-.05-.23 8.77 8.77 0 0 1-.17-.26.25.25 0 0 0-.06.1c-.01.04-.03.05-.07.05a55.67 55.67 0 0 1-.95.02h-.4l-.02-.32c.1.03.25.03.44.02h.31c.25.01.44.01.57-.01a.8.8 0 0 0 .17-.06V8.2Z" fill="#896C4B"/><path d="M11.5 8.49a.14.14 0 0 1-.13-.05.3.3 0 0 1-.06-.13V8.3a.2.2 0 0 1 .06-.07h.02c.08.03.12.08.12.15 0 .03.02.04.05.06l.06.06a.2.2 0 0 1 .03.07c.01.05.05.09.11.1l.07.03c.04.03.06.07.03.12-.01.03-.04.05-.07.04-.03 0-.04-.02-.06-.04v-.1l-.02-.01c-.11.01-.17-.03-.17-.11l-.02-.1h-.03Z" fill="#5B8BB2"/><path d="M9.6 8.74h.09l.34-.02h.87l.2-.03c.01 0 .02-.01.01-.02-.02-.04-.04-.05-.08-.05L9.74 8.6a.5.5 0 0 0-.16.03V8.6a5.41 5.41 0 0 0 .82-.03h.54c.04 0 .06-.01.07-.05 0-.03.03-.06.06-.1h.03l.14.26c.02.03.03.1.06.23l-.01.02c-.03.02-.05.01-.07-.01a.19.19 0 0 1-.04-.07c-.01-.03-.03-.04-.06-.04l-.18.03-.31.01h-.32a9.96 9.96 0 0 1-.7 0 .2.2 0 0 1-.02-.11Z" fill="#B29766"/><path d="M11.9 9.13c-.05-.03-.08-.05-.12-.03-.04.01-.06.05-.05.1 0 .02.01.04.03.04h.04a.23.23 0 0 0 .09-.06.2.2 0 0 1-.03.08.26.26 0 0 1-.04.06.2.2 0 0 1-.09.02l-.02.01-.02.15v-.1a.1.1 0 0 0-.02-.09 1.51 1.51 0 0 1-.08-.1l-.01-.11-.02-.02c-.06-.03-.09-.07-.09-.14l-.01-.02h-.02l-.01.02-.01.02-.01.02-.05.02-.02-.02a7.68 7.68 0 0 0-.14-.39.38.38 0 0 1-.05-.14l.12.17h.02c.04-.01.07 0 .1.02.07.11.14.18.2.22a.7.7 0 0 1 .12.11.5.5 0 0 0 .08.07c.05.04.09.07.1.1Z" fill="#494038"/><path d="m9.6 8.74-.01-.01-.01-.1a.5.5 0 0 1 .16-.03l1.3.02c.03 0 .05.01.07.05v.01a.97.97 0 0 1-.21.04h-.87c-.12 0-.23 0-.34.02h-.1Z" fill="#E2CACD"/><path d="M9.59 9.3v-.15l.02-.06.02-.02a11.5 11.5 0 0 1 1.1.01c.2 0 .42 0 .64-.02.06 0 .1 0 .13.02.05.03.06.08.04.14l-.02.02a.58.58 0 0 1-.24.06c-.61.03-1.18.03-1.69 0Z" fill="#EBCF92"/><path d="m12.5 9.14-.03.1c0 .02-.02.03-.03.04a.06.06 0 0 1-.06 0h-.04c-.03-.02-.05-.04-.05-.07v-.05c0-.03.01-.05.04-.07l.07-.03c.03-.01.05 0 .07 0 .02.03.03.05.02.08Z" fill="#F3E7DA"/><path d="m11.9 9.13-.01.05a.23.23 0 0 1-.09.07h-.04a.05.05 0 0 1-.03-.04c0-.06 0-.1.05-.11.04-.02.07 0 .12.03Z" fill="#E4B677"/><path d="m12.36 9.64-.07.13h-.38l-.02-.01v-.12a.2.2 0 0 1 .04-.08H12.36v.08Z" fill="#EBCF92"/><path d="m11.75 9.56.03.18-.02.03-.03.01a17.14 17.14 0 0 1-1.22 0 179.2 179.2 0 0 1-4.63.02 15.28 15.28 0 0 0-.9.05 7.14 7.14 0 0 1-.39 0h-.2a.36.36 0 0 1 .1-.17.12.12 0 0 1 .07-.01h.09a303.44 303.44 0 0 0 3.5 0 2.11 2.11 0 0 0 .34-.03 18.96 18.96 0 0 0 1.07-.06h.53a29.1 29.1 0 0 0 1.66-.02Z" fill="#E4B677"/><path d="m11.88 9.72.01.04h.02l.38.01a.68.68 0 0 0-.06.1.55.55 0 0 1-.07.12l-.1.13-.1.14c-.1.1-.19.2-.29.28a.9.9 0 0 0-.15.02l-.16.03a9.1 9.1 0 0 0-5.56.03l-.66.01a12.58 12.58 0 0 1-1.2 0l.16-.3c0 .03.01.05.03.05a33.36 33.36 0 0 0 2.9-.11 113.9 113.9 0 0 1 2.34 0 214.74 214.74 0 0 0 1.5-.01 54.03 54.03 0 0 0 .84.02c.04 0 .07-.01.08-.05a.3.3 0 0 0 0-.07l.02.07c.01.04.03.04.05 0v-.02c.03-.08.04-.13.04-.17l-.02-.04a.2.2 0 0 1-.02-.1c0-.07 0-.13.02-.18Z" fill="#815B31"/><path d="M11.78 10.11a.39.39 0 0 0-.22-.06 18.25 18.25 0 0 0-.5.03 133.43 133.43 0 0 1-4.6.02 14.11 14.11 0 0 0-1.13.03 54.54 54.54 0 0 0-1.12 0l.18-.28h.35a7.17 7.17 0 0 0 1.14-.05 33.3 33.3 0 0 0 1.21 0 31.26 31.26 0 0 0 1.62 0h.42a179.2 179.2 0 0 0 2.63-.03l.02-.03c.04.1.04.2 0 .3v.07Z" fill="#815B31"/><path d="M11.78 10.11v.05a.3.3 0 0 1 0 .07c0 .04-.03.05-.07.05a9.19 9.19 0 0 0-5.2.01c-.9.06-1.69.1-2.38.1-.02 0-.03-.03-.03-.06a.56.56 0 0 1 .1-.2l.25.02a54.93 54.93 0 0 1 1.41-.03l.6-.02h1.2a133.46 133.46 0 0 0 3.9-.05c.07 0 .14.02.22.06Z" fill="#E4B677"/><path d="M11.67 10.54a.66.66 0 0 1-.17.16l-.25.03a106.81 106.81 0 0 0-2.33.05 15.86 15.86 0 0 1-1.26.04 47.4 47.4 0 0 1-1.58.02 116.66 116.66 0 0 0-2.25.04c-.01 0-.02-.01-.01-.05a.52.52 0 0 1 .11-.2c.1.02.17.03.2.02a25.86 25.86 0 0 1 1-.02h.67a7.27 7.27 0 0 0 .72-.01 6.06 6.06 0 0 0 .53-.01 155.13 155.13 0 0 0 4.47-.05.9.9 0 0 1 .15-.02Z" fill="#E89D4B"/><path d="M11.5 10.7a11.2 11.2 0 0 0-.18.16.58.58 0 0 0-.14.08.07.07 0 0 1-.07.01.2.2 0 0 0-.09-.01v.01l.01.02.04.02c.02.01.02.03 0 .05l-.11.09a.38.38 0 0 0-.2-.05 75.21 75.21 0 0 1-2.74.03H6.55l-.46.01c-.36 0-.65.01-.89.03l-.53.03a18.82 18.82 0 0 0-1.05.04l.2-.39.01.05a2.58 2.58 0 0 1 .44 0 27.12 27.12 0 0 0 1.06-.03 124.44 124.44 0 0 1 1.8-.02 48.8 48.8 0 0 0 2.61-.09h1.5c.07 0 .15-.02.26-.04Z" fill="#815222"/><path d="M10.96 11.13a.6.6 0 0 1-.38.2 12.6 12.6 0 0 0-.83 0 47.87 47.87 0 0 0-1.8 0h-.53a8.37 8.37 0 0 1-.8.02 4.08 4.08 0 0 1-.46 0 11.2 11.2 0 0 1-.97 0l-1.04.01h-.27l-.31.03c-.01 0-.02 0-.02-.02v-.02l.07-.13.14-.02c.38-.02.69-.03.91-.02l.53-.03c.24-.02.53-.03.89-.03a14.4 14.4 0 0 0 .79 0h.32c.1-.02.24-.02.41-.01h.41l.8-.01c.63 0 1.28 0 1.94-.02.07 0 .14.01.2.05Z" fill="#E89D4B"/><path d="M10.58 11.32a.31.31 0 0 1-.15.02h-.04a.06.06 0 0 0-.03.05.12.12 0 0 1-.08.09l-.13.03a.35.35 0 0 0-.12.05l-.11.07a.38.38 0 0 1-.12.05.57.57 0 0 0-.11.04c-.1.04-.22.07-.33.08a12.97 12.97 0 0 0-.47.06c-.19.06-.32.08-.4.08a97.16 97.16 0 0 0-2.05-.03H6.4a1.83 1.83 0 0 1 .31-.01l.05-.01a20.26 20.26 0 0 0 1.56-.05h.62a6.64 6.64 0 0 0 .85-.2c.04-.02.04-.03 0-.04a1.3 1.3 0 0 0-.37-.02l-.23.04c-.24.04-.41.06-.52.06a12.92 12.92 0 0 0-.96 0 36.28 36.28 0 0 1-.9 0 20.43 20.43 0 0 1-1 .01 3.37 3.37 0 0 1-.61 0h-.21a72.52 72.52 0 0 1-1.35.02 108.48 108.48 0 0 0-.4.03c.05-.09.1-.16.16-.23l.04-.03.04-.02a.2.2 0 0 0 .05-.07l.01-.04.01.02c0 .01 0 .02.02.02l.3-.03h.28a28.43 28.43 0 0 1 2.01-.02h.04a5.64 5.64 0 0 1 .42 0h.8c.17-.02.35-.02.53-.01h.82a47.86 47.86 0 0 1 1.8 0Z" fill="#815222"/><path d="M6.4 11.91h-.34c-.06 0-.06 0 0 0h.06v.01a211.78 211.78 0 0 1-3 0l.13-.18a.12.12 0 0 1 .1-.02h.08a60.77 60.77 0 0 1 .6-.03 72.52 72.52 0 0 0 2.78-.01 7.15 7.15 0 0 1 .9 0 13.92 13.92 0 0 0 1.71-.1c.13 0 .25 0 .36.02.05 0 .05.02 0 .04a6.64 6.64 0 0 1-.85.19 6.87 6.87 0 0 1-.9.02 42.14 42.14 0 0 1-.56.02 20.02 20.02 0 0 1-1.07.04Z" fill="#E89D4B"/></svg>