<!-- by TradingView --><svg xmlns="http://www.w3.org/2000/svg" width="18" height="18"><path fill="#79036F" d="M0 0h18v18H0z"/><path d="M9.67 3.74a.45.45 0 00-.38-.4v-.3s-.08-.09-.17 0v.28s-.34.1-.39.43l.03-.01a.66.66 0 01.2-.06.88.88 0 00-.28.36c-.13.26-.15.3-.24.41l-.1.13c-.17.25.05.32.1.3 0 0 .04-.01.07-.04.07-.04.16-.1.22-.12.04 0 .1.03.15.08.08.06.17.14.28.14.14.01.23-.07.3-.13l.1-.07c.05-.03.15.03.23.1l.11.06c.07.01.19-.15-.05-.4a.49.49 0 01-.17-.38c0-.06 0-.13-.04-.22a.42.42 0 00-.2-.22c.1.01.17.04.23.06zm-1.32 5.1c0-.03-.02-.05-.03-.08-.16-.42-.4-1.02.02-1.76l.01-.03.14-.25c.06-.14-.07-.53-.14-.65l-.02.02v.01l-.07.32-.02.08-.04.2-.03.1-.05.19a2.7 2.7 0 01-.96.74c-.29.1-.47.04-.64-.02l-.16-.04-.14-.02c-.15-.02-.26-.04-.2-.1.05-.09.37-.32.7-.16 0 0 .18.19.35.16.14-.01.57-.6.7-.78l.04-.1.03-.1.03-.21.02-.07.01-.08c-.3-.09-.45-.17-.5-.21a2 2 0 01-.64-.9l-.07-.18V4.9c0-.03-.03-.09-.01-.14.05-.18.28-.3.33-.24 0 0 .1.1.07.24-.04.13-.09.33-.01.44a2.85 2.85 0 00.92.62c.05-.18.1-.36.15-.41.2-.25.82-.38 1.38-.33H9.5c.34.03.85.26.85.26l-.03.08-.68 1.29.17.28c.41.74.18 1.34.02 1.76 0 .03-.02.05-.03.08v.04c-.1.32-.15.63-.16.93 0 .65.17 1.25.35 1.7l-.02.03.02.02v.01c-.09.13-.16.29-.2.48l-.01.12-.7-1.34-.02.01v-.01l-.7 1.38-.01-.16a1.2 1.2 0 00-.2-.48c.3-.65.4-1.79.2-2.72zm.14 3.6l.59-1.14.56 1.13s.48 1.12-.56 1.12c-1.03 0-.59-1.1-.59-1.1zM9.07 15l.53-.65s.4-.63-.53-.63c-.95 0-.5.64-.5.64l.5.64zm.89-2.92c.17-.88 1.12-.83 1.12-.83-.16.1-.18.41-.21.77-.03.37-.06.79-.26 1.04-.25.3-.8.37-.8.37.2-.34.18-.53.15-.77a2.29 2.29 0 010-.58zm-2.9-.83s.94-.05 1.1.83c.04.25.02.42 0 .58-.02.24-.04.43.15.77 0 0-.54-.06-.79-.38-.2-.24-.23-.66-.26-1.04-.03-.35-.05-.66-.2-.76zm3.44 2.63c-.3-.34-.8-.23-.8-.23s.07 0 .42.54.98.28.98.28a.71.71 0 01-.39-.31l-.21-.28zm-2.03-.23s-.5-.1-.8.23c-.1.12-.17.2-.22.28-.1.14-.17.23-.39.31 0 0 .63.26.99-.28.35-.54.42-.54.42-.54zm3.02-8.88c-.05-.17-.28-.3-.32-.23 0 0-.11.1-.08.23.04.14.09.34.01.44-.06.1-.4.37-.6.47l-.06.03-.3.54-.03.07.05.11.02.06v.01l.1.32.03.22c.05.17.17.36.29.53.1.16.2.3.22.42.03.22.08.5.17.57.09.06.18-.3.2-.42 0-.06.03-.04.06-.03.03.01.06.03.07-.02v-.01c.01-.04-.03-.08-.1-.13a.99.99 0 01-.34-.53c-.08-.34-.25-.91-.29-1.06l-.01-.06-.03-.1-.01-.08h.02a.7.7 0 00.21-.11 2 2 0 00.64-.9l.07-.18v-.01a.3.3 0 00.01-.15zm-4.16-.7a.34.34 0 11-.68 0 .34.34 0 01.68 0zm3.83.35a.34.34 0 100-.68.34.34 0 000 .68z" fill="#fff"/></svg>