<!-- by TradingView --><svg width="18" height="18" viewBox="0 0 18 18" xmlns="http://www.w3.org/2000/svg"><path fill="#F0F3FA" d="M0 0h18v18H0z"/><path d="M7.71 12.71h-.16V9.64L6.49 9.1l-1 .53v3.26H8V9.57L6.73 8.9V7.73l1.38-.68 1.37.68v.22l-1.37-.68v.16l1.37.67v.18l-1.37-.63v.2l1.37.62v.21L8.11 8.1v.18l1.37.57v4.05h.16V8.53l.33.22v.42l.35.16v3.57h.13V12h.44c.98 0 1.77-.72 1.77-1.6V7.66c0-.88-.8-1.66-1.77-1.66H7V5h4.04C12.67 5 14 6.19 14 7.65v2.7c0 1.46-1.33 2.65-2.96 2.65H5.29V9.57l1.2-.66 1.22.66v3.14Z" fill="url(#a)"/><path d="M5.3 5H4v1h1.3V5Zm0 2H4v6h1.3V7Z" fill="url(#b)"/><path d="M6.5 9.57h-.4v.4h.4v-.4Zm0 .47h-.4v.39h.4v-.4Z" fill="url(#c)"/><path d="M7.06 9.57h-.4v.4h.4v-.4Zm0 .47h-.4v.39h.4v-.4Z" fill="url(#d)"/><defs><linearGradient id="a" x1="14" y1="9.22" x2="5.39" y2="9.22" gradientUnits="userSpaceOnUse"><stop stop-color="#DDB44B"/><stop offset=".22" stop-color="#936027"/><stop offset=".38" stop-color="#DEB253"/><stop offset=".57" stop-color="#F7F3B5"/><stop offset=".72" stop-color="#CC9842"/><stop offset=".82" stop-color="#B47F31"/><stop offset="1" stop-color="#E8BD54"/></linearGradient><linearGradient id="b" x1="4" y1="5.78" x2="5.29" y2="5.78" gradientUnits="userSpaceOnUse"><stop offset=".1" stop-color="#959394"/><stop offset=".27" stop-color="#EFEFEF"/><stop offset=".75" stop-color="#C4C4C4"/><stop offset=".88" stop-color="#636363"/></linearGradient><linearGradient id="c" x1="6.06" y1="9.79" x2="6.51" y2="9.79" gradientUnits="userSpaceOnUse"><stop offset=".25" stop-color="#B37A33"/><stop offset="1" stop-color="#A3752A"/></linearGradient><linearGradient id="d" x1="6.62" y1="9.79" x2="7.06" y2="9.79" gradientUnits="userSpaceOnUse"><stop offset=".54" stop-color="#F8E299"/><stop offset="1" stop-color="#A3752A"/></linearGradient></defs></svg>