<!-- by TradingView --><svg width="18" height="18" viewBox="0 0 18 18" xmlns="http://www.w3.org/2000/svg"><path fill="#F0F3FA" d="M0 0h18v18H0z"/><path d="m9 4 5 5-5 5-5-5 5-5Z" fill="url(#ajinz1ee4)"/><path d="M6.55 8.58c0-1-.9-1.58-1.99-1.58H2.8L2 11h1.77c1.35 0 2.5-.83 2.74-2 .03-.14.04-.27.04-.42ZM5.25 9a1.35 1.35 0 0 1-1.38 1.08h-.43l.41-2.16h.43c.55 0 .99.32.99.83 0 .09-.01.17-.03.25Zm6.2-2-.8 4H9.37l.32-1.54H8.15L7.83 11H6.55l.81-4h1.27l-.3 1.54h1.54L10.19 7h1.27Zm.04 2c.23-1.14 1.32-2 2.65-2 1 0 1.82.62 1.86 1.54h-1.4c-.1-.3-.33-.62-.7-.62-.64 0-1.03.56-1.14 1.08l-.02.25c0 .42.31.83.81.83.38 0 .67-.34.88-.62l1.4-.03a2.8 2.8 0 0 1-2.5 1.57c-1.07 0-1.88-.61-1.88-1.57 0-.15.01-.3.04-.43Z" fill="#566FAB"/><defs><linearGradient id="ajinz1ee4" x1="9" y1="4" x2="9" y2="14" gradientUnits="userSpaceOnUse"><stop stop-color="#DADADA"/><stop offset=".53" stop-color="#F3F4FB"/><stop offset="1" stop-color="#C4C6C8"/></linearGradient></defs></svg>