<!-- by TradingView --><svg width="18" height="18" viewBox="0 0 18 18" xmlns="http://www.w3.org/2000/svg"><path fill="#F0F3FA" d="M0 0h18v18H0z"/><path d="m7.45 8.04.01.03h.01c.22-.65.48-1.28.78-1.91.24-.5.5-.94.77-1.3.2-.25.44-.5.72-.63.23-.12.45-.1.65.05.33.25.32.85.25 1.23a16.38 16.38 0 0 0-.2 1.94c0 .01 0 .01 0 0 .43-.97.9-1.91 1.51-2.7.24-.31.57-.64.95-.74.35-.08.55.3.6.6.1.67-.12 1.29-.25 1.93-.14.7-.28 1.44-.41 2.25-.05.27-.06.5-.05.74 0 .07.02.14.05.22.06.15.2.06.26-.02.1-.1.17-.22.24-.35a874.7 874.7 0 0 0 .88-1.58.06.06 0 0 0-.02-.05h-.03c-.2-.03-.33.05-.52.1-.02.01-.02 0 0 0a2.42 2.42 0 0 0 .71-1.83c0-.23-.02-.45-.06-.67-.02-.07 0-.08.04-.03.47.56.66 1.18.66 1.94 0 .48-.1.93-.3 1.35-.03.07-.04.06-.03 0a1.16 1.16 0 0 0-.12-.61.02.02 0 0 0-.02 0c-.38.88-.71 1.63-1.22 2.38-.32.49-.96 1.28-1.58 1.17-.23-.04-.33-.58-.35-.79-.03-.3-.04-.65-.02-1a26.2 26.2 0 0 1 .33-2.63c.04-.2.07-.52-.03-.7a.08.08 0 0 0-.04-.03h-.06a.33.33 0 0 0-.13.1c-.16.2-.3.42-.43.65-.25.46-.47.99-.67 1.58-.3.9-.53 1.8-.7 2.72a3.97 3.97 0 0 1-.88 1.62c-.14.13-.52.46-.76.46-.12 0-.2-.09-.2-.34a1.31 1.31 0 0 1 .02-.32c.26-1.4.47-2.33.84-4.14a9.07 9.07 0 0 0 .17-1.46c0-.15 0-.3-.05-.44-.07-.17-.27.08-.32.14-.29.45-.5 1-.68 1.5-.32.87-.62 1.78-.91 2.73-.22.74-.2 1.55-.46 2.3-.09.27-.2.53-.4.73-.19.21-.97 1.08-1.22.66-.1-.17-.09-.49-.06-.67l.3-1.62c0-.05 0-.09-.02-.11A4.77 4.77 0 0 1 4 9.7c-.03-.77.06-1.51.27-2.24.36-1.22 1.04-3.07 2.41-3.26.37-.06.66.27.79.62.16.44.19.93.18 1.42a9.9 9.9 0 0 1-.2 1.8Zm-2.37 3.7v.02h.02c.3-1.23.54-2.5.75-3.8.06-.37.12-.67.15-1.04v-.14c0-.2-.02-.4-.1-.57-.06-.13-.15-.21-.27-.21-.04 0-.1.01-.15.04-.72.41-.9 1.6-1 2.38a5.32 5.32 0 0 0 .6 3.33Z" fill="#F20C2C"/></svg>