<!-- by TradingView --><svg width="18" height="18" viewBox="0 0 18 18" xmlns="http://www.w3.org/2000/svg"><path fill="#F0F3FA" d="M0 0h18v18H0z"/><path d="M12.87 6h-1.4v1.24c0 .52.35.76.7.76h.4c.3 0 .67.56.67 1 0 .35-.44.97-.6 1l1.66.05c.14-.45.7-.55.7-1.05 0-1.5-1.35-3-2.13-3Z" fill="url(#a)"/><path d="M5.13 12h1.4v-1.24c0-.52-.35-.76-.7-.76h-.4c-.3 0-.67-.56-.67-1 0-.35.44-.97.6-1L3.7 7.95C3.56 8.4 3 8.5 3 9c0 1.5 1.35 3 2.13 3Z" fill="url(#b)"/><path d="M6 5.13v1.4h1.24c.52 0 .76-.35.76-.7v-.4c0-.3.56-.67 1-.67.35 0 .97.44 1 .6l.05-1.66C9.6 3.56 9.5 3 9 3 7.5 3 6 4.35 6 5.13Z" fill="url(#c)"/><path d="M12 12.87v-1.4h-1.24c-.52 0-.76.35-.76.7v.4c0 .3-.56.67-1 .67-.35 0-.97-.44-1-.6l-.05 1.66c.45.14.55.7 1.05.7 1.5 0 3-1.35 3-2.13Z" fill="url(#d)"/><path d="M11.43 8h1.07a1.9 1.9 0 0 1-.5-1.48V5.07C12 3.6 9.94 3 9.04 3c-.73 0-1.45.3-1.62.45 1.72-.09 2.58.99 2.58 1.8V6.8c0 .66.77 1.19 1.43 1.19Z" fill="url(#e)"/><path d="M6.57 10H5.5c.5.5.51 1.13.5 1.48v1.45C6 14.4 8.06 15 8.96 15c.73 0 1.45-.3 1.62-.45-1.72.09-2.58-.99-2.58-1.8V11.2C8 10.53 7.23 10 6.57 10Z" fill="url(#f)"/><path d="M8 6.57V5.5c-.5.5-1.13.51-1.48.5H5.07C3.6 6 3 8.06 3 8.96c0 .73.3 1.45.45 1.62C3.36 8.86 4.44 8 5.25 8H6.8C7.47 8 8 7.23 8 6.57Z" fill="url(#g)"/><path d="M10 11.43v1.07a1.9 1.9 0 0 1 1.48-.5h1.45C14.4 12 15 9.94 15 9.04c0-.73-.3-1.45-.45-1.62.09 1.72-.99 2.58-1.8 2.58H11.2c-.66 0-1.19.77-1.19 1.43Z" fill="url(#h)"/><defs><linearGradient id="a" x1="12.98" y1="9.76" x2="12.98" y2="6.6" gradientUnits="userSpaceOnUse"><stop stop-color="#005B5D"/><stop offset="1" stop-color="#548184"/></linearGradient><linearGradient id="b" x1="5.02" y1="8.24" x2="5.02" y2="11.4" gradientUnits="userSpaceOnUse"><stop stop-color="#005B5D"/><stop offset="1" stop-color="#548184"/></linearGradient><linearGradient id="c" x1="9.76" y1="5.02" x2="6.6" y2="5.02" gradientUnits="userSpaceOnUse"><stop stop-color="#005B5D"/><stop offset="1" stop-color="#548184"/></linearGradient><linearGradient id="d" x1="8.24" y1="12.98" x2="11.4" y2="12.98" gradientUnits="userSpaceOnUse"><stop stop-color="#005B5D"/><stop offset="1" stop-color="#548184"/></linearGradient><linearGradient id="e" x1="12.26" y1="5.71" x2="7.6" y2="5.71" gradientUnits="userSpaceOnUse"><stop stop-color="#71C8BB"/><stop offset="1" stop-color="#34BAA8"/></linearGradient><linearGradient id="f" x1="5.74" y1="12.29" x2="10.4" y2="12.29" gradientUnits="userSpaceOnUse"><stop stop-color="#71C8BB"/><stop offset="1" stop-color="#34BAA8"/></linearGradient><linearGradient id="g" x1="5.71" y1="5.74" x2="5.71" y2="10.4" gradientUnits="userSpaceOnUse"><stop stop-color="#71C8BB"/><stop offset="1" stop-color="#34BAA8"/></linearGradient><linearGradient id="h" x1="12.29" y1="12.26" x2="12.29" y2="7.6" gradientUnits="userSpaceOnUse"><stop stop-color="#71C8BB"/><stop offset="1" stop-color="#34BAA8"/></linearGradient></defs></svg>