<!-- by TradingView --><svg width="18" height="18" viewBox="0 0 18 18" xmlns="http://www.w3.org/2000/svg"><path fill="#F0F3FA" d="M0 0h18v18H0z"/><path d="m10.74 7.32-1.11-1.8a.14.14 0 0 0-.06-.05.12.12 0 0 0-.09 0c-.32.1-.58.01-.77-.25-.37-.5 0-1.29.61-1.21.33.03.53.24.6.62.02.12 0 .27-.05.47-.01.05 0 .1.03.15.34.53.7 1.11 1.07 1.74.05.1.12.16.22.16.33 0 .56.14.69.45.27.65-.37 1.27-.93.98-.11-.06-.2-.17-.3-.23a.09.09 0 0 0-.09 0l-.57.23c-.15.05-.23.14-.28.3a.49.49 0 0 1-.53.34c-.55-.07-.63-.94-.09-1.13.22-.07.38.03.57.16.02.01.05.02.07 0l.72-.27a.17.17 0 0 0 .07-.05.2.2 0 0 0 .04-.08 1.86 1.86 0 0 1 .18-.5v-.03Z" fill="#FE903F"/><path d="M13.6 10.5c.19.17-.03.36-.13.47a.13.13 0 0 0-.04.1l.03.24c.07.36-.04.63-.38.75l-.62.17a.22.22 0 0 0-.1.04.25.25 0 0 0-.06.1l-.48 1.54a.16.16 0 0 1-.05.07.14.14 0 0 1-.08.02h-1.38a.24.24 0 0 1-.2-.1c-.29-.36-.65-1.12-1.09-1.27l-.01-.01v-.05c.1-.11.17-.24.21-.39.05-.2-.03-.38.02-.56.06-.2.16-.5.36-.61.11-.06.22-.13.31-.22a.28.28 0 0 1 .18-.07c.2 0 .47-.04.66.08.12.09.26.2.4.23.24.05.45 0 .62-.17.29-.3.36-.62.2-.98-.24-.59-.84-.61-1.25-.21a.15.15 0 0 1-.09.04c-.22.02-.43.02-.63 0a.16.16 0 0 1-.08-.05l-.17-.16a.08.08 0 0 0-.05-.03.1.1 0 0 1-.06-.03c-.02-.02-.02-.04 0-.06.13-.1.23-.25.31-.43a.15.15 0 0 1 .06-.07c.16-.1.33-.15.5-.19.03 0 .06 0 .08.02.12.06.24.16.36.2.44.11.8-.03 1.07-.42.17-.25.22-.54.14-.88-.12-.51-.46-.7-.9-.8a.26.26 0 0 1-.16-.12l-.9-1.46c-.1-.15-.06-.35-.02-.5 0-.05.03-.07.07-.06 1.14.1 1.96.7 2.44 1.81.14.3.24.72.31 1.25.02.1.06.2.13.3l.82 1.03c.2.25-.22.55-.37.66a.11.11 0 0 0-.03.04.12.12 0 0 0-.02.1l.02.04c.07.09.12.18.14.28a.1.1 0 0 1 0 .07l-.1.18c-.02.03-.01.06.01.08ZM6.5 6a.5.5 0 1 0 0-1 .5.5 0 0 0 0 1Z" fill="#FE903F"/><path d="M7.89 7.6c-.09-.1-.17-.17-.24-.3-.3-.53-.14-1.18.38-1.43.82-.37 1.53.55 1.14 1.4a.86.86 0 0 1-.8.48.14.14 0 0 0-.08.03.16.16 0 0 0-.05.07l-.3.83a.08.08 0 0 0 0 .06l.06.09c.1.12.13.3.13.47 0 .03.01.06.03.08.01.03.03.05.05.06l.7.42a.1.1 0 0 0 .11 0c.3-.24.56-.24.8.11.01.02.02.03.04.03a7.61 7.61 0 0 0 .92.02c.15 0 .21-.2.34-.26.3-.15.6.02.67.38.02.14 0 .27-.08.39-.14.2-.43.29-.62.14a1.26 1.26 0 0 1-.2-.2.11.11 0 0 0-.04-.03 7.6 7.6 0 0 0-1 .01.08.08 0 0 0-.02.03c-.12.18-.26.28-.44.3a.1.1 0 0 0-.05.02.11.11 0 0 0-.04.05l-.33.8a.15.15 0 0 0 0 .12c.12.3 0 .6-.28.69-.51.14-.75-.61-.31-.88a.76.76 0 0 1 .2-.09.1.1 0 0 0 .04-.02 121.96 121.96 0 0 1 .34-.76c.1-.2-.08-.42-.23-.5a33.06 33.06 0 0 1-.76-.45h-.03l-.14.07c-.81.43-1.33-1.04-.26-1.26a.1.1 0 0 0 .05-.03.12.12 0 0 0 .03-.04l.29-.78a.1.1 0 0 0-.02-.11Z" fill="#FE903F"/><path d="M9.3 5.8h.15c.02.02.05.04.06.07l.83 1.33a.4.4 0 0 1-.15.55c-.14.07-.28.13-.43.17l-.08-.01a1.3 1.3 0 0 0-.46-.14c-.03 0-.04-.02-.02-.05.09-.13.18-.26.24-.4.2-.5.15-.97-.18-1.41-.04-.07-.03-.1.04-.11ZM4.5 7a.5.5 0 1 0 0-1 .5.5 0 0 0 0 1ZM6.5 8a.5.5 0 1 0 0-1 .5.5 0 0 0 0 1ZM4.49 9l-.1.01A.44.44 0 0 0 4 9.5l.02.11c.02.24.25.41.5.39l.08-.01A.44.44 0 0 0 5 9.5l-.02-.11a.45.45 0 0 0-.5-.39ZM6 11a.5.5 0 1 0 0-1 .5.5 0 0 0 0 1ZM6.5 13a.5.5 0 1 0 0-1 .5.5 0 0 0 0 1ZM8.5 14a.5.5 0 1 0 0-1 .5.5 0 0 0 0 1Z" fill="#FE903F"/></svg>