<!-- by TradingView --><svg width="18" height="18" viewBox="0 0 18 18" xmlns="http://www.w3.org/2000/svg"><path fill="#F0F3FA" d="M0 0h18v18H0z"/><path d="M3.67 6.18a3.89 3.89 0 0 1 2.3-1.15c.88-.11 1.65.07 2.15.52.64.57.93 1.52.87 2.88-.04 1-.35 2.2-.79 3.04a3.5 3.5 0 0 1-1.13 1.33c-.57.32-1.1.25-1.65-.2a.58.58 0 0 0-.16-.12l-.05.2-.03.32h-.67c-.52 0-.67-.14-.67-.16a582.04 582.04 0 0 1 1.35-7.08c0-.06-.31.14-.53.33-.1.1-.25.25-.31.34-.15.2-.35.64-.4.88-.1.46-.1 1.04 0 1.3l.05.12H3.9c-.4 0-.74-.21-.83-.52a1.83 1.83 0 0 1-.02-.85c.1-.44.3-.8.63-1.18Zm4.02 1.74c.07-1.28-.16-2-.72-2.29-.1-.05-.22-.1-.28-.1l-.1-.02L6 8.67c-.45 2.32-.61 3.17-.6 3.2.04.07.24.17.38.2.48.08.92-.29 1.28-1.08.35-.76.59-1.88.64-3.07Zm3.08-2.48a4.14 4.14 0 0 1 2.82-.32c.33.1.56.23.78.46.32.33.44.63.44 1.08 0 .28-.04.49-.15.73a2 2 0 0 1-.66.8.63.63 0 0 0-.15.11c0 .02.04.03.1.04l.29.12c.63.33.88 1.11.7 2.18-.17 1.06-.59 1.78-1.21 2.11-.25.13-.42.18-.73.22-.5.06-.86-.06-1.37-.42-.1-.08-.2-.14-.21-.14l-.04.2-.04.39h-1.5l.04-.25 1.45-6.97c0-.06-.07-.04-.31.13-.54.35-.88.83-1.02 1.43-.08.31-.09.97-.02 1.15.05.12.08.18.06.2-.02.02-.07.02-.18 0-.4-.02-.67-.19-.8-.47-.05-.13-.06-.18-.06-.49 0-.32 0-.36.08-.58a3.5 3.5 0 0 1 1.69-1.72Zm3.02 1.08a.97.97 0 0 0-.53-.86c-.2-.12-.4-.17-.41-.12l-.56 2.71c0 .03.05.03.18.02.7-.05 1.38-.95 1.32-1.75Zm-.23 3.12c-.09-.4-.26-.66-.54-.78-.12-.06-.49-.09-.74-.06l-.11.01-.3 1.48-.32 1.5c0 .02.08.09.18.14.17.1.19.1.44.1.42 0 .7-.13.98-.43.15-.15.31-.47.38-.72.06-.26.08-.96.03-1.24Z" fill="red"/></svg>