<!-- by TradingView --><svg width="18" height="18" viewBox="0 0 18 18" xmlns="http://www.w3.org/2000/svg"><path fill="#F0F3FA" d="M0 0h18v18H0z"/><path fill-rule="evenodd" d="M9.9 13.7a5.6 5.6 0 0 0 2.92-2.08 6.7 6.7 0 0 0 .99-1.78c.24-.74.25-1.47.03-2.2a4.84 4.84 0 0 0-3.59-3.32 8.9 8.9 0 0 0-4.93.06c-.07.02-.11.07-.13.15-.1.4-.15.9-.17 1.5-.09 2.35.12 4.71.63 7.08.08.42.33.66.73.74 1.23.24 2.4.19 3.52-.16Zm1.33-2.37a.12.12 0 0 1-.02-.12c.59-1.68.37-3.1-.65-4.26A4.7 4.7 0 0 0 7.6 5.6a.21.21 0 0 1-.16-.11.26.26 0 0 1-.02-.2c.06-.23.1-.4.09-.48-.02-.3-.07-.3-.15-.02a14.9 14.9 0 0 0-.6 3.25c-.1 1.87-.04 3.7.16 5.47 0 .02.01.04.04.05l.07.05c.02.02.04.01.04-.02v-1.13c0-.2.08-.29.26-.27a8.91 8.91 0 0 0 5.77-1.31l-.01-.06h-.03l-1.72.55c-.04.02-.08 0-.1-.03Z" fill="#56A2AA"/></svg>