<!-- by TradingView --><svg width="18" height="18" fill="none" xmlns="http://www.w3.org/2000/svg"><path fill="#F0F3FA" d="M0 0h18v18H0z"/><path d="M9.579 4.093c-.497.153-.886.397-1.998 1.282-.572.452-1.382 1.02-1.814 1.265-.421.243-.756.46-.734.478.022.018.561-.09 1.21-.235 3.055-.695 4.837-.776 6.489-.28 1.112.335 1.025.344.853-.063-.454-1.075-1.36-2.077-2.17-2.384-.476-.18-1.329-.208-1.836-.063ZM9.037 7.454c-.472.09-1.326.261-1.912.4-.578.131-1.35.278-1.709.336-.358.049-.732.147-.821.204-.244.155-.497.728-.562 1.26-.057.408-.049.433.09.392 1.814-.532 2.912-.67 4.588-.605 1.595.073 3.605.4 5.11.842.179.049.179.04.179-.712v-.76l-.44-.425c-1.033-1.014-2.448-1.3-4.523-.932ZM7.368 10.646c-.916.114-1.922.373-2.54.65-.545.235-.545.243-.495.503.025.146.156.471.28.715l.223.447 4.247.024c4.924.025 4.371.138 4.742-.999.19-.577.215-.715.124-.772-.123-.073-1.534-.349-2.515-.487-.825-.122-3.357-.17-4.066-.081Z" fill="#494138"/></svg>