<!-- by TradingView --><svg width="18" height="18" viewBox="0 0 18 18" xmlns="http://www.w3.org/2000/svg"><path fill="#F0F3FA" d="M0 0h18v18H0z"/><path d="m13.86 7 .93 2c.5 1.08.06 2.37-.99 2.88-1.05.51-2.16.06-2.66-1.02l-.94-2L13.86 7ZM9.35 3.59l2.05-.22c1.1-.11 2.07.72 2.18 1.87a2.06 2.06 0 0 1-1.79 2.27l-2.04.22-.4-4.14ZM4.48 6.9l.44-2.19a2.06 2.06 0 0 1 2.45-1.66 2.17 2.17 0 0 1 1.58 2.57L8.51 7.8l-4.03-.9ZM6.14 12.9l-2-1.08a2.1 2.1 0 0 1-.86-2.92 2.26 2.26 0 0 1 3.01-.83l2 1.07-2.15 3.75ZM12.18 12.85l-1.66 1.56c-.89.84-2.26.77-3.07-.14-.8-.91-.75-2.33.14-3.16l1.65-1.56 2.94 3.3Z" fill="#ED1B24"/></svg>