<!-- by TradingView --><svg width="18" height="18" viewBox="0 0 18 18" xmlns="http://www.w3.org/2000/svg"><path fill="#F0F3FA" d="M0 0h18v18H0z"/><path d="m6 9.6.78.02c.73.01 1-.08 1-.64 0-.22-.03-.44-.09-.68H6v-.97h.98c.74.01 1-.12 1-.71 0-.16-.01-.38-.05-.62H4v5.11c0 .8.08.89 1.11.89h1.92c.72 0 .97-.12.97-.72 0-.19 0-.38-.06-.61L6 10.68V9.61Z" fill="#579626"/><path d="M8.5 12H10V8.23h.3l.76 2.73c.15.77.4 1.04 1.31 1.04a7.8 7.8 0 0 0 1.63-.18V6h-1.57v3.73h-.14L11.1 6H8.5v6Z" fill="#0055A3"/></svg>