<!-- by TradingView --><svg width="18" height="18" fill="none" xmlns="http://www.w3.org/2000/svg"><path fill="url(#a)" d="M0 0h18v18H0z"/><path fill-rule="evenodd" clip-rule="evenodd" d="M12 7.333V9c0 2.338-1.178 3-3 3-1.788 0-3-.69-3-3V5h2v4c0 .734.423 1 1 1 .565 0 1-.292 1-1V7.333C10 7 9.5 7 9 7V5h2c.864 0 1 .864 1 2.333ZM14.839 11c-1.299 1.406-4.188 2-5.815 2-1.628 0-4.586-.409-5.885-1.814-.011-.013-.042-.038-.066-.021-.013.01-.018.023-.025.042a.983.983 0 0 0-.045.293.9.9 0 0 0 .02.293.436.436 0 0 0 .076.166c.03.038.111.121.132.143l.005.005C4.663 13.559 7.279 14 9.024 14c1.744 0 4.313-.44 5.74-1.893.009-.009.103-.105.137-.148a.45.45 0 0 0 .075-.165.9.9 0 0 0 .021-.294 4.895 4.895 0 0 0-.158-.5Z" fill="#F0F3FA"/><defs><linearGradient id="a" x1="0" y1="9" x2="18" y2="9" gradientUnits="userSpaceOnUse"><stop stop-color="#23A76D"/><stop offset="1" stop-color="#45C25E"/></linearGradient></defs></svg>