<!-- by TradingView --><svg xmlns="http://www.w3.org/2000/svg" width="18" height="18"><path fill="#005193" d="M0 0h18v18H0z"/><path d="M8.46 3l.01.01c-.23.61-.34 1.33-.28 2.09a3.54 3.54 0 001.4 2.6l.4.36c.38.4.66.9.67 1.72 0 .81-.32 1.4-.7 1.81-.38.41-.9.76-1.66.76-.78 0-1.44-.4-1.84-.84a2.83 2.83 0 01-.77-2c.34.82.82 1.53 1.62 1.89.26.11.58.2.92.2.56 0 .94-.21 1.23-.51.26-.28.5-.73.5-1.3 0-.53-.2-.95-.46-1.25-.08-.09-.17-.16-.26-.24l-.18-.17a6.1 6.1 0 01-1.1-1.42 3 3 0 01-.44-1.63c-.15.4-.29.8-.28 1.3 0 1.09.61 1.78 1.16 2.4l.17.2.01.02c.2.22.41.48.5.77.05.19.04.4-.03.57-.01.03-.02 0-.03-.02L9 10.29c-.1-.14-.25-.26-.39-.37l-.17-.14a6.74 6.74 0 01-.97-1.07 3.64 3.64 0 01-.26-4.19c.34-.58.77-1.05 1.24-1.5L8.47 3zM6.38 5.55c-.13.55-.2 1.15-.2 1.8 0 1.83 1.19 2.6 2.26 3.29l.03.01.05.03c.02.01.05.03.05.05a2.58 2.58 0 01-2.65-1.66 3.32 3.32 0 01-.22-1.92c.11-.63.37-1.16.68-1.6zm5.81 6.6c.85-.41 1.75-.73 2.81-.86-.34-.39-1.18-.6-1.9-.46l.12.13.02.02.04.04c.05.03.09.07.09.11a13.87 13.87 0 00-2.9.98c-.5.22-.99.44-1.51.59-.4.11-.86.18-1.31.16a4.06 4.06 0 01-1.22-.26 7.9 7.9 0 01-1.93-1.1c.12.2.28.35.44.5.16.15.33.3.5.43.52.4 1.1.8 1.78.99a5.03 5.03 0 003.25-.49l.46-.2c.33-.13.65-.29.97-.44l.3-.14z" fill="#fff"/></svg>