<!-- by TradingView --><svg width="18" height="18" viewBox="0 0 18 18" xmlns="http://www.w3.org/2000/svg"><path fill="#F0F3FA" d="M0 0h18v18H0z"/><path d="m4.85 11.55-.45-.01c-.02 0-.03-.01-.03-.03V7.09a.1.1 0 0 1 .03-.06.1.1 0 0 1 .06-.03L5 6.99c1.23-.03 2.51-.06 2.92.8l.01.01h.04v-.02c.14-.52.37-1 .69-1.43a.08.08 0 0 0-.02-.11c-.8-.69-1.7-.88-2.72-.88H3.04l-.03.01-.01.04v7.51c0 .03.01.08.04.08h2.41c.6 0 1.06-.07 1.34-.13 1.86-.38 3.09-1.99 3.08-3.94-.02-2.52 2.86-3.25 4.36-1.51.02.02.04.02.06 0l1-.94a.08.08 0 0 0 0-.1c-2.23-2.56-6.61-1.4-6.91 2.19l-.02.36c-.02.34-.04.69-.15 1-.3.8-.92 1.3-1.71 1.52-.43.12-1.09.1-1.65.1Zm9.5-1.51c-.6 1.96-3.24 1.95-4.17.3-.02-.04-.04-.04-.05 0a4.51 4.51 0 0 1-.73 1.46c0 .01 0 .03.02.04 2.24 2.2 6.03 1.21 6.52-2.04.06-.35.07-.79.05-1.22 0-.02-.01-.04-.03-.04h-3.93c-.03 0-.03.02-.03.05v1.34c0 .03.03.07.03.07h2.26c.03 0 .06.01.05.04Z" fill="url(#a0qwfh5m2)"/><defs><linearGradient id="a0qwfh5m2" x1="9.5" y1="5" x2="9.5" y2="13.02" gradientUnits="userSpaceOnUse"><stop stop-color="#DBAE1A"/><stop offset="1" stop-color="#D18910"/></linearGradient></defs></svg>