<!-- by TradingView --><svg width="18" height="18" viewBox="0 0 18 18" xmlns="http://www.w3.org/2000/svg"><path fill="#F0F3FA" d="M0 0h18v18H0z"/><path d="M4.04 9.14a5.43 5.43 0 0 1 3.35-5.68c.5-.22 1.03-.36 1.58-.41.6-.07 1.16-.06 1.66 0 .59.09 1.12.16 1.32.72.13.34 0 .86-.36 1.07a.98.98 0 0 1-.72.12 9.3 9.3 0 0 0-.88-.17 5.06 5.06 0 0 0-1.73.07 4.84 4.84 0 0 0-3.2 2.3c-.4.67-.6 1.38-.62 2.12 0 .54.05 1.12.25 1.72a5.01 5.01 0 0 1-.65-1.86Z" fill="#5D8EB0"/><path d="M7.31 12a3.64 3.64 0 0 1-1.75-1.43C4.2 8.4 5.4 5.8 7.97 5.05c.43-.12.75-.01.95.33.1.17.1.34 0 .5a.78.78 0 0 1-.47.36c-2.9.8-3.53 4.06-1.14 5.76Z" fill="#22769D"/><path d="M9.6 10.96c2.28.23 3.74-2.02 2.6-3.96.42.45.7.96.77 1.56.26 2-1.38 3.6-3.4 3.43-.34-.03-.53-.2-.57-.52a.38.38 0 0 1 .16-.37c.14-.1.29-.15.45-.14ZM7.41 8.95c-.19.34-.25.7-.4 1.05-.03-.7.1-1.32.42-1.85.74-1.2 2.06-1.49 3.12-.73.23.17.55.45.42.81-.14.35-.33.43-.57.24a5.11 5.11 0 0 0-.55-.4c-.89-.48-1.9-.08-2.44.88Z" fill="#006790"/><path d="M13.98 9c.11 1.63-.29 3.02-1.24 4.16a4.87 4.87 0 0 1-7.23.42c-.29-.27-.45-.52-.49-.73a.92.92 0 0 1 .4-.97c.3-.22.6-.2.92.07.35.3.78.74 1.23.98 1.3.67 2.6.68 3.9.02 1.64-.83 2.03-2.26 2.51-3.95Z" fill="#22769D"/></svg>