<!-- by TradingView --><svg xmlns="http://www.w3.org/2000/svg" width="18" height="18" viewBox="0 0 18 18"><path fill="#F0F3FA" d="M0 0h18v18H0z"/><path d="M4.11 12.17L9.04 15l4.73-3.02-4.5-2.56a.45.45 0 0 0-.45 0l-4.7 2.75z" fill="#384DE8"/><path d="M6.74 8.38c-1.08 0-1.22-.59-1.15-.91L4.42 8.66c-.41.47-.86 1.45.61 1.66 1.85.27 4.05-.44 6.01-.54 1.57-.08 2.62 1.4 2.95 2.16V8.7c-.11-1.02-2.84-.82-4.24-.7-1.84.18-1.65.37-3 .37z" fill="url(#awwom1wmj)"/><path d="M4 9.73c0-.96 2.02-2.05 3.03-2.47a32.4 32.4 0 0 0-2.85-1.57c-.1.03-.19.08-.18.12v3.92z" fill="#36F"/><path d="M14 8.68a.5.5 0 0 1 0 .08v3.18c-.77.96-3.66 2.44-5 3.06l-2.5-1.48c.79-.3 2.89-1.2 4.98-2.31 1.96-1.05 2.49-2.02 2.52-2.45v-.08z" fill="url(#bwwom1wmj)"/><path d="M4.02 5.77L9 8.6l5-2.83L9.36 3.1a.73.73 0 0 0-.73 0L4.02 5.77z" fill="#508EF1"/><defs><linearGradient id="awwom1wmj" x1="4.67" y1="8.94" x2="12.67" y2="10.1" gradientUnits="userSpaceOnUse"><stop stop-color="#1C5FC8"/><stop offset="1" stop-color="#2037AB"/></linearGradient><linearGradient id="bwwom1wmj" x1="14" y1="10.22" x2="8.84" y2="13.56" gradientUnits="userSpaceOnUse"><stop stop-color="#2A2AD6"/><stop offset="1" stop-color="#2A2AD8"/></linearGradient></defs></svg>