<!-- by TradingView --><svg width="18" height="18" viewBox="0 0 18 18" xmlns="http://www.w3.org/2000/svg"><path fill="#F0F3FA" d="M0 0h18v18H0z"/><path d="M5.45 7c.59.13.92.5 1 1.1.18 1.29-.45 2.64-1.81 2.9H2v-.05l.75-2.58s0-.02.02-.03H4.1c.04 0 .06.01.04.06l-.43 1.45c-.04.13.01.19.15.19 1.05-.05 1.53-1 1.37-1.92-.01-.1-.07-.12-.16-.12H2.55l-.02-.02a.03.03 0 0 1 0-.04L3.1 7h2.34ZM8.74 7l.76.76.03.01h.02l.93-.77h1.4l-1.07 4H9.39L10 8.73c.02-.05 0-.06-.04-.02l-.82.67a.07.07 0 0 1-.1 0l-.7-.7c-.02-.03-.04-.02-.05.02L7.64 11h-1.3l1.08-4h1.32ZM16 7v.05l-.24.89c0 .04-.04.06-.08.06h-2.12a.2.2 0 0 0-.14.06c-.04.03-.06.06-.06.12 0 .13.09.15.2.15h1.04c.43 0 .7.18.83.6.25.87-.06 1.8-1.03 2.07h-3.13l.28-1h2.1c.2 0 .31-.19.31-.38v-.06a.22.22 0 0 0-.06-.15.23.23 0 0 0-.15-.08h-1.17c-.46 0-.61-.3-.62-.71 0-.76.44-1.45 1.21-1.62H16Z" fill="#06429A"/></svg>