<!-- by TradingView --><svg width="18" height="18" viewBox="0 0 18 18" xmlns="http://www.w3.org/2000/svg"><path fill="#F0F3FA" d="M0 0h18v18H0z"/><path d="M4 4.02a7.04 7.04 0 0 0 6.9 1.8c1.03-.29 1.95-.8 2.76-1.51.03-.03.04-.02.02.02a8.61 8.61 0 0 1-2.56 3.18 11.11 11.11 0 0 1-2.48 1.48c-.83.4-1.6.92-2.33 1.53A8.85 8.85 0 0 0 4 13.51V4.02Z" fill="#1652A2"/><path d="M14 13.98a7.02 7.02 0 0 0-6.88-1.8c-1.03.28-1.95.79-2.76 1.5A8.58 8.58 0 0 1 6.9 10.5a11.09 11.09 0 0 1 2.47-1.47c.83-.4 1.6-.91 2.32-1.53A8.82 8.82 0 0 0 14 4.52v9.46Z" fill="#009471"/></svg>