<!-- by TradingView --><svg width="18" height="18" viewBox="0 0 18 18" xmlns="http://www.w3.org/2000/svg"><path fill="#F0F3FA" d="M0 0h18v18H0z"/><path d="M15 9c0 1.64-1 3.2-2.55 4.1a6.9 6.9 0 0 1-2.61.85c-2.74.33-5.79-1.04-6.62-3.6-.87-2.7.92-5.21 3.8-6.06.66-.2 1.33-.3 2-.29C12.12 4 15 6.17 15 9ZM8.58 4.52a4.46 4.46 0 0 0-2 .66v.02h.02c.65.2 1.34.3 2 .33.04 0 .05-.02.05-.06v-.9c0-.04-.03-.06-.07-.05Zm.86 0c-.04 0-.09.01-.09.05v.92c0 .04.02.05.06.05a7.84 7.84 0 0 0 2.05-.33v-.02l-.02-.01a4.44 4.44 0 0 0-2-.66ZM6.02 5.58a.1.1 0 0 0-.1.03 5.17 5.17 0 0 0-.93 1.1v.01l.03.01c1.2.2 2.4.3 3.56.32.04 0 .07-.01.07-.05v-.9c0-.03-.03-.04-.06-.04a9.75 9.75 0 0 1-2.57-.48Zm5.94.01a9.7 9.7 0 0 1-2.58.47c-.04 0-.03.02-.03.05V7c0 .03 0 .05.04.05a23.73 23.73 0 0 0 3.6-.33.04.04 0 0 0 0-.04A5.18 5.18 0 0 0 12 5.6a.1.1 0 0 0-.05 0ZM8.65 8.61v-.9c0-.05-.02-.07-.06-.07a24.64 24.64 0 0 1-3.84-.35c-.03 0-.06 0-.08.02a.1.1 0 0 0-.05.05l-.34 1.22v.03l.01.03.03.02H8.59c.04 0 .06-.01.06-.05Zm.7 0c0 .04.02.06.07.06h4.2l.04-.01.03-.02.01-.03v-.03l-.34-1.22a.1.1 0 0 0-.05-.05.12.12 0 0 0-.08-.02c-1.28.22-2.56.34-3.81.35-.05 0-.07.02-.07.06v.9Zm-.7.67c0-.04-.02-.06-.07-.06H4.34l-.03.01a.08.08 0 0 0-.03.02l-.02.03v.03l.35 1.22c0 .03.02.05.05.06.02.01.05.02.08.01 1.29-.22 2.59-.34 3.84-.35.05 0 .07-.02.07-.06v-.91Zm.7.02v.9c0 .05.02.07.06.07 1.26.01 2.55.12 3.84.34l.08-.01a.1.1 0 0 0 .05-.06l.34-1.22a.06.06 0 0 0-.02-.06l-.02-.02-.04-.01-4.23.01c-.04 0-.06.02-.06.06Zm-3.33 3.04a9.82 9.82 0 0 1 2.59-.48c.03 0 .04-.02.04-.06v-.9c0-.03-.02-.05-.06-.05a23.93 23.93 0 0 0-3.61.37.04.04 0 0 0 0 .04 5.21 5.21 0 0 0 .99 1.09.1.1 0 0 0 .05 0Zm5.98 0a.1.1 0 0 0 .1-.03 5.22 5.22 0 0 0 .94-1.1l-.02-.01-.02-.01c-1.2-.2-2.39-.32-3.55-.33-.04 0-.1 0-.1.05v.9c0 .03.05.05.09.05.85.04 1.71.2 2.56.48ZM8.6 13.4c.03 0 .05 0 .05-.05v-.94c0-.03-.01-.05-.05-.05a8.03 8.03 0 0 0-2.1.38l.01.02h.01c.56.36 1.27.57 2.07.64Zm.81 0a4.52 4.52 0 0 0 2.07-.65l-.01-.02-.02-.01a7.9 7.9 0 0 0-2.04-.36c-.04 0-.06.02-.06.06v.93c0 .04.02.06.06.05Z" fill="#0065BD"/></svg>