<!-- by TradingView --><svg width="18" height="18" viewBox="0 0 18 18" xmlns="http://www.w3.org/2000/svg"><path fill="#F0F3FA" d="M0 0h18v18H0z"/><path d="M9.16 4.13C7.86 4.95 7.3 5.8 7.3 7.37v6.59c0 .03.02.04 0 .04H5.07c-.03 0-.05-.02-.05-.06C5 10.46 4.99 8.04 5 6.7c0-.27.09-.55.26-.86.4-.7.94-1.2 1.65-1.5.68-.3 1.41-.4 2.22-.29.09.02.1.04.02.1Z" fill="#009049"/><path d="M10.51 6.15c.37-.17.5-.45.42-.85-.05-.24-.2-.56-.44-.94-.03-.04-.02-.05.02-.04 1.35.46 2.14 1.17 2.38 2.12.16.66.15 1.26-.04 1.8-.2.62-.6 1.05-1.2 1.3-.53.21-1.05.26-1.57.12a1.68 1.68 0 0 1-1.2-1.01c-.1-.24-.14-.52-.12-.85.01-.37.1-.64.26-.82.12-.14.29-.27.5-.39a6.66 6.66 0 0 1 1-.44Z" fill="#EB3D00"/><path d="M8.63 13.8c.39-.22.73-.48 1.03-.76.4-.37.54-.88.56-1.5a32 32 0 0 0 0-1.53c0-.05.11-.07.16-.06.59.1 1.1 0 1.54-.27a3.9 3.9 0 0 0 .82-.8c.05-.07.08-.06.08.02.01 1.15.02 1.97.01 2.47 0 .8-.59 1.5-1.75 2.12a5.1 5.1 0 0 1-2.44.37c-.06 0-.06-.02-.01-.06Z" fill="#009049"/></svg>