<!-- by TradingView --><svg width="18" height="18" viewBox="0 0 18 18" xmlns="http://www.w3.org/2000/svg"><path fill="#F0F3FA" d="M0 0h18v18H0z"/><path d="M12.79 8.68H14A4.92 4.92 0 0 0 9.15 4v1.19a3.75 3.75 0 0 1 3.64 3.49ZM12.75 9.4a3.8 3.8 0 0 1-3.6 3.26V14a5 5 0 0 0 4.84-4.6h-1.24Z" fill="#494041"/><path d="M3.4 8.98c0 .4-.31.72-.7.72a.7.7 0 0 1-.7-.72c0-.4.32-.72.7-.72.38 0 .7.32.7.72Z" fill="#452E76"/><path d="M4.74 8.98c0 .4-.3.72-.7.72a.7.7 0 0 1-.7-.72c0-.4.33-.72.7-.72.4 0 .7.32.7.72ZM9.43 8.98c0 .4-.3.72-.7.72a.7.7 0 0 1-.7-.72c0-.4.33-.72.7-.72.4 0 .7.32.7.72ZM4.8 8.88c-.04.32.17.62.48.68.3.05.6-.17.66-.48a.59.59 0 0 0-.47-.68c-.33-.04-.62.17-.66.48ZM6.1 9.05a.41.41 0 0 1 .34-.48c.22-.05.43.12.47.34.04.24-.11.44-.34.48a.4.4 0 0 1-.47-.34ZM7.17 9.03a.3.3 0 0 1 .23-.33c.15-.02.3.09.33.24a.3.3 0 0 1-.23.33c-.15.03-.3-.08-.33-.24Z" fill="#452E76"/><path d="M4.18 10.6c0 .31.25.57.56.57.31 0 .57-.26.57-.58a.58.58 0 0 0-.57-.58c-.3-.01-.56.25-.56.58Z" fill="#0C4A9F"/><path d="M5.08 11.89c0 .28.21.5.48.5s.48-.22.48-.5-.21-.5-.48-.5a.49.49 0 0 0-.48.5Z" fill="#4DBA31"/><path d="M6.25 12.7c0 .24.19.43.41.43.23 0 .42-.2.42-.43a.42.42 0 0 0-.42-.42c-.22 0-.41.19-.41.42Z" fill="#8C2085"/><path d="M7.36 13.16c0 .2.16.36.35.36.19 0 .35-.17.35-.36 0-.2-.16-.36-.35-.36a.36.36 0 0 0-.35.36Z" fill="#E7584E"/><path d="M8.44 13.45c0 .16.13.3.3.3a.3.3 0 0 0 .29-.3.3.3 0 0 0-.3-.3.3.3 0 0 0-.3.3Z" fill="#EDA44A"/><path d="M5.43 10.17c-.04.27.13.52.4.56.27.04.51-.14.55-.41a.49.49 0 0 0-.4-.57c-.26-.04-.5.15-.55.42Z" fill="#0C4A9F"/><path d="M6.1 11.09c-.04.23.1.44.34.48.22.04.43-.1.47-.34a.42.42 0 0 0-.34-.49c-.23-.02-.44.13-.47.35Z" fill="#4DBA31"/><path d="M6.92 11.65c-.03.2.1.38.28.42.19.03.38-.1.4-.3.03-.18-.09-.38-.28-.4a.33.33 0 0 0-.4.29Z" fill="#8C2085"/><path d="M6.49 9.83c-.03.2.1.39.28.42.19.03.38-.1.4-.3.03-.18-.09-.38-.28-.4-.19-.05-.36.08-.4.28Z" fill="#0C4A9F"/><path d="M6.92 10.51a.3.3 0 0 0 .23.33c.15.03.3-.08.32-.23a.3.3 0 0 0-.23-.33c-.15-.03-.3.08-.32.23Z" fill="#4DBA31"/><path d="M7.46 9.64c-.02.13.06.25.18.26.13.02.25-.07.26-.19.01-.12-.07-.25-.19-.26-.12-.02-.24.07-.25.2Z" fill="#0C4A9F"/><path d="M7.98 10.11c-.01.1.05.2.15.2.1.02.19-.05.2-.14.01-.1-.05-.2-.15-.21-.1-.02-.19.04-.2.15ZM7.48 10.88c-.02.13.07.25.2.26.11.02.23-.06.25-.19a.22.22 0 0 0-.2-.26.24.24 0 0 0-.25.2Z" fill="#8C2085"/><path d="M8.1 11.08c-.01.1.06.19.15.2.1.02.19-.05.2-.15.02-.1-.05-.2-.15-.2a.18.18 0 0 0-.2.15Z" fill="#E7584E"/><path d="M8.59 11.13c-.02.08.04.15.12.17.08.01.14-.04.16-.13a.14.14 0 0 0-.12-.16c-.07-.02-.15.04-.16.12Z" fill="#EDA44A"/><path d="M7.74 11.94a.3.3 0 0 0 .24.35.3.3 0 0 0 .34-.25.3.3 0 0 0-.25-.34.3.3 0 0 0-.33.24Z" fill="#E7584E"/><path d="M8.53 12.23c-.03.14.07.27.2.3.14.02.26-.07.27-.21a.25.25 0 0 0-.2-.3c-.12-.02-.24.08-.27.21Z" fill="#EDA44A"/><path d="M4.06 7.2c0-.32.25-.58.56-.58.3 0 .56.26.56.58 0 .32-.25.58-.56.58-.3.01-.56-.25-.56-.58Z" fill="#0C4A9F"/><path d="M4.97 5.9c0-.27.21-.5.48-.5s.49.23.49.5c0 .28-.22.5-.49.5a.49.49 0 0 1-.48-.5Z" fill="#4DBA31"/><path d="M6.13 5.09c0-.23.18-.43.4-.43.23 0 .42.2.42.43 0 .23-.2.43-.42.43-.22 0-.4-.2-.4-.43Z" fill="#8C2085"/><path d="M7.24 4.63c0-.19.16-.35.35-.35.19 0 .35.16.35.35 0 .2-.16.36-.35.36a.36.36 0 0 1-.35-.36Z" fill="#E7584E"/><path d="M8.32 4.5c0-.17.13-.3.3-.3a.3.3 0 0 1 0 .6.3.3 0 0 1-.3-.3Z" fill="#EDA44A"/><path d="M5.32 7.63a.49.49 0 0 1 .4-.57c.27-.04.51.14.55.42a.49.49 0 0 1-.4.56.48.48 0 0 1-.55-.41Z" fill="#0C4A9F"/><path d="M5.98 6.7a.41.41 0 0 1 .33-.48c.23-.04.43.12.47.35a.42.42 0 0 1-.33.48c-.23.04-.43-.13-.47-.35Z" fill="#4DBA31"/><path d="M6.8 6.15c-.03-.2.1-.37.28-.41.19-.03.38.1.4.29.03.2-.1.38-.28.41-.2.03-.38-.1-.4-.29Z" fill="#8C2085"/><path d="M6.38 7.97c-.03-.2.1-.38.28-.41.2-.03.38.1.4.29.03.2-.09.38-.28.41-.2.03-.37-.1-.4-.29Z" fill="#0C4A9F"/><path d="M6.8 7.28a.3.3 0 0 1 .23-.33c.14-.03.3.08.32.24a.3.3 0 0 1-.23.33c-.15.02-.3-.09-.32-.24Z" fill="#4DBA31"/><path d="M7.34 8.15a.22.22 0 0 1 .18-.26c.12-.03.25.07.26.2a.22.22 0 0 1-.19.25c-.12.02-.24-.06-.25-.19Z" fill="#0C4A9F"/><path d="M7.86 7.68c-.01-.1.05-.19.15-.2.1-.02.19.05.2.15.01.1-.05.2-.15.2-.1.03-.19-.04-.2-.15ZM7.38 6.91a.22.22 0 0 1 .18-.26c.12-.02.25.07.26.2a.22.22 0 0 1-.19.25c-.12.03-.24-.07-.25-.19Z" fill="#8C2085"/><path d="M7.98 6.72c-.01-.1.05-.2.15-.21.1-.01.19.06.2.15.01.1-.05.2-.15.2a.18.18 0 0 1-.2-.14Z" fill="#E7584E"/><path d="M8.48 6.66a.14.14 0 0 1 .12-.16c.08-.02.15.04.16.12a.14.14 0 0 1-.12.17c-.08.01-.16-.05-.16-.13Z" fill="#EDA44A"/><path d="M7.62 5.85a.3.3 0 0 1 .24-.35.3.3 0 0 1 .34.25.3.3 0 0 1-.25.35c-.14.02-.3-.09-.33-.25Z" fill="#E7584E"/><path d="M8.44 5.63a.25.25 0 0 1 .2-.3c.13-.02.25.08.28.21a.25.25 0 0 1-.2.3c-.15 0-.27-.09-.28-.21Z" fill="#EDA44A"/></svg>