<!-- by TradingView --><svg width="18" height="18" viewBox="0 0 18 18" xmlns="http://www.w3.org/2000/svg"><path fill="#F0F3FA" d="M0 0h18v18H0z"/><circle cx="14" cy="10" r="2" fill="url(#axytqi32g)"/><path d="M4.57 12H3V6h1.64C6.24 6 7 7.43 7 8.99 7 10.6 6.2 12 4.57 12Zm-.95-.64h.91c1.3 0 1.87-1.1 1.87-2.37 0-1.22-.54-2.35-1.8-2.35h-.98v4.72ZM8 12V6h4v1H9v2h2.71v1H9v2H8Z"/><defs><linearGradient id="axytqi32g" x1="14" y1="8" x2="14" y2="12" gradientUnits="userSpaceOnUse"><stop stop-color="#F4AF18"/><stop offset="1" stop-color="#EA7725"/></linearGradient></defs></svg>