<!-- by TradingView --><svg xmlns="http://www.w3.org/2000/svg" width="18" height="18" viewBox="0 0 18 18"><path fill="#39644B" d="M0 0h18v18H0z"/><path d="M8.5 6.85C8.5 5.59 7.9 5 6.28 5H4v8h2.28c1.28 0 2.22-.3 2.22-1.85v-4.3ZM7 11.03c0 .67-.2.97-.97.97H5.5V6h.53c.66 0 .97.24.97.85v4.18Zm4-.53v.4c0 .7.24 1.1.7 1.1.45 0 .73-.28.73-.78s-.1-.7-.85-1.4l-.75-.8c-.94-1-1.33-1.65-1.33-2.34 0-1.02.95-1.68 2.3-1.68.46 0 .92.1 1.29.3.36.2.6.5.69.83.06.24.08.5.08.87h-1.52v-.15l-.01-.22c-.05-.31-.2-.63-.64-.63s-.69.3-.69.68c0 .38.11.56 1.12 1.64l.77.79c.7.73 1.11 1.28 1.11 1.94 0 1.2-.8 1.95-2.2 1.95-.83 0-1.4-.19-1.82-.6-.36-.34-.48-.67-.48-1.35v-.55H11Z" fill="#fff"/></svg>