<!-- by TradingView --><svg width="18" height="18" viewBox="0 0 18 18" xmlns="http://www.w3.org/2000/svg"><path fill="url(#a)" d="M0 0h18v18H0z"/><path d="M11.95 7.46a3.04 3.04 0 0 0-2.85-.05h-.08a.4.4 0 0 1-.14-.03 3.21 3.21 0 0 0-1.86-.26c-.33.05-.61.17-.85.35-.02.02-.04.02-.07 0l-.02-.02a2.97 2.97 0 0 1 3.36-3.42c.98.13 1.72.65 2.23 1.55.31.57.4 1.2.28 1.88Z" fill="#FAEA23"/><path d="M9.1 7.41c-.02 0-.04.04-.04.12-.03-.03-.06-.03-.1-.01a3.1 3.1 0 0 0-1.4 1.99 2.87 2.87 0 0 1-1.49-1.99c-.02.02-.02 0 0-.07l.03.02c.03.02.05.02.07 0 .24-.18.52-.3.85-.35.62-.1 1.23-.01 1.86.26a.4.4 0 0 0 .14.03h.08Z" fill="#F3931E"/><path d="M11.95 7.46c.02.03.02.06.02.1l-.26.61c-.26.6-.68 1.04-1.25 1.35a3.09 3.09 0 0 0-1.4-1.99c0-.08.02-.12.04-.12a3.04 3.04 0 0 1 2.85.05Z" fill="#95C12B"/><path d="M9.06 7.53c.73.46 1.2 1.12 1.4 1.99a3 3 0 0 1-1.37 3.06c-.02.03-.07.04-.12.03a3 3 0 0 1-1.42-3.1 3.1 3.1 0 0 1 1.41-2c.04-.01.07 0 .1.02Z" fill="#FEFEFE"/><path d="M6.07 7.52c.21.9.7 1.57 1.48 1.99a3 3 0 0 0 1.42 3.1c-.63.53-2.04.47-2.74.14a2.95 2.95 0 0 1-1.36-1.32 2.74 2.74 0 0 1-.07-2.6c.25-.54.62-.96 1.11-1.26a.3.3 0 0 1 .11-.04h.05Z" fill="#E31E27"/><path d="M9.1 12.58a3 3 0 0 0 1.36-3.06c.57-.3.99-.76 1.25-1.35l.26-.6c.07 0 .12 0 .16.03.47.29.8.66 1.02 1.1a2.86 2.86 0 0 1-.48 3.4c-.22.24-.52.46-.9.64-.6.3-2.2.42-2.68-.16Z" fill="#313F8A"/><defs><linearGradient id="a" x1="3.35" y1="3.12" x2="21.9" y2="24.43" gradientUnits="userSpaceOnUse"><stop stop-color="#1A1E21"/><stop offset="1" stop-color="#06060A"/></linearGradient></defs></svg>