<!-- by TradingView --><svg width="18" height="18" viewBox="0 0 18 18" xmlns="http://www.w3.org/2000/svg"><path fill="#F0F3FA" d="M0 0h18v18H0z"/><path fill-rule="evenodd" d="M13.49 7.91V7.9c.2-.73.3-1.4.16-2.12a2.1 2.1 0 0 0-1.63-1.7 4.95 4.95 0 0 0-3.38.73 9.76 9.76 0 0 0-4.41 5.3c-.48 1.5-.28 3.25 1.24 3.75.87.28 1.86.1 2.72-.25a9.89 9.89 0 0 0 4.88-4.67c.08-.14.16-.27.26-.36.21-.23.43-.49.64-.78.05-.08.04-.1-.04-.07l-.42.2h-.02V7.9Zm-.4.17c-1.45.52-2.9.71-4.37.57a5.41 5.41 0 0 1-1.83-.55.07.07 0 0 1 0-.06 7.4 7.4 0 0 1 3.8-2.94c.95-.28 2.22-.16 2.55 1.16a3.4 3.4 0 0 1-.13 1.79l-.03.03ZM6.3 7.74l.51.34.01.02.01.01a.05.05 0 0 1 0 .04 7.2 7.2 0 0 0-.62 1.13c-.03.06-.04.06-.06-.01a3.13 3.13 0 0 1 .13-1.53h.02Zm6.76 1.1a.58.58 0 0 0 .15-.22l.23-.58c.02-.07 0-.09-.05-.07l-.22.09a.14.14 0 0 0-.08.09c-.11.34-.26.68-.45 1.02-.04.08-.03.09.03.03l.39-.35Zm-.6.66a8.17 8.17 0 0 1-3.16 2.97c-1.01.52-2.85.91-3.38-.68a3.6 3.6 0 0 1 .23-2.36c.02-.03.03-.03.04 0 .33 1.06 1.26 1.49 2.17 1.51a6.47 6.47 0 0 0 4.12-1.58c.05-.04.06-.03.03.04l-.05.1Z" fill="#1D1D1B"/></svg>