<!-- by TradingView --><svg width="18" height="18" viewBox="0 0 18 18" xmlns="http://www.w3.org/2000/svg"><path fill="#F0F3FA" d="M0 0h18v18H0z"/><path d="M6.1 13.4c.46 0 1.34-.48 1.98-.87.3-.18.49-.5.48-.85 0-.48-.04-1.3-.14-2.54-.2-2.52-3.54-4.21-3.6-4.26-.07-.04-.32-.13-.32.2 0 .26.08.35.11.36.31.31 1.75 1.56 1.75 2.94 0 1.39-1 2.44-1 3.85 0 .37-.02 1.16.73 1.16Z" fill="url(#anophusaw)"/><path d="M5.27 4.94a6.97 6.97 0 0 0-.45-.37C5.08 4.37 6.1 4 8.1 4c2.52 0 3.68 1.04 3.96 1.58.23.43.2 1.18.16 1.5-1.39-1.49-3.11-2.4-4.57-2.4-1.16 0-2.07.17-2.38.26Z" fill="url(#bnophusaw)"/><path d="M12.3 5.35c1.15 3.93-3.68 7.8-5.79 8.4.21.09.79.25 1.38.25.74 0 6.11-.98 6.11-5.76a4.24 4.24 0 0 0-1.7-2.89Z" fill="url(#cnophusaw)"/><defs><linearGradient id="anophusaw" x1="6.53" y1="4.84" x2="6.53" y2="13.39" gradientUnits="userSpaceOnUse"><stop offset=".2" stop-color="#252552"/><stop offset=".75" stop-color="#6498BF"/></linearGradient><linearGradient id="bnophusaw" x1="5.89" y1="6.02" x2="12.12" y2="5.12" gradientUnits="userSpaceOnUse"><stop stop-color="#6498BF"/><stop offset="1" stop-color="#2D2A55"/></linearGradient><linearGradient id="cnophusaw" x1="13.8" y1="7.05" x2="9.42" y2="12.93" gradientUnits="userSpaceOnUse"><stop offset=".2" stop-color="#6498BF"/><stop offset=".88" stop-color="#2D2A55"/></linearGradient></defs></svg>