<!-- by TradingView --><svg width="18" height="18" viewBox="0 0 18 18" xmlns="http://www.w3.org/2000/svg"><path fill="#F0F3FA" d="M0 0h18v18H0z"/><path d="M7 11.41 15 8l-3.45 5L13 10 7 11.4ZM5.17 12.3c.1.07.17.1.23.1.25.02.28.03.3.04.13.02.21.08.23.24.01.1.02.2 0 .28V13L5.9 13H3.06l-.03-.01-.01-.04c-.01-.15 0-.35.11-.45.04-.04.1-.06.2-.07.21-.02.5.02.63-.29a.79.79 0 0 0 .04-.3v-5.7c0-.1-.02-.2-.07-.32-.07-.19-.2-.29-.39-.3h-.31c-.05 0-.12-.03-.15-.09a.64.64 0 0 1-.07-.42L3.02 5H5.9c.07 0 .1.04.1.13l-.02.22c0 .1-.05.15-.13.15l-.48.01c-.35.03-.37.34-.37.71v5.62c0 .19.02.37.17.47ZM9.6 7.42c0 .04 0 .07-.03.08l-.8.5h-.05l-.02-.02-.02-.03a5.53 5.53 0 0 0-.29-1.13c-.28-.72-.73-1.16-1.35-1.31-.2-.05-.42-.08-.69-.08-.04 0-.06-.03-.05-.08l.05-.28c0-.05.03-.07.07-.07h.6c.28 0 .56.04.82.12.67.2 1.17.68 1.49 1.44.08.21.17.5.27.86Z" fill="#C01B28"/><path d="m6.33 12.92-.03-.27a.06.06 0 0 1 .01-.05h.02l.02-.01h.23c.6 0 1.1-.28 1.45-.82a3.63 3.63 0 0 0 .28-.5.14.14 0 0 1 .06-.04l.9-.23s.02 0 .02.02c.02.06.01.11-.01.17a2.74 2.74 0 0 1-1.17 1.46c-.37.21-.76.33-1.18.35l-.54-.01c-.04 0-.06-.02-.06-.07ZM12.13 5.54c0 .3.19.54.42.54.24 0 .42-.24.43-.54 0-.3-.2-.54-.43-.54-.23 0-.42.24-.42.54ZM13.75 7.67c.08.11.25.11.36.06a.9.9 0 0 0 .54-.68c0-.01 0-.02.02-.03l.02-.02a.58.58 0 0 1 .26-.01c.03 0 .04.02.05.05l-.01.12a1.6 1.6 0 0 1-.35.66c-.3.33-.73.46-1.12.25-.3-.17-.38-.53-.38-.87 0-.83.54-1.6 1.33-1.68.1 0 .22.02.37.1.12.05.14.13.06.25l-.02.03c-.08.11-.18.13-.3.07-.23-.14-.45-.07-.67.2-.07.1-.15.25-.23.44-.08.22-.1.47-.05.76.03.13.07.23.12.3ZM12.78 8.52l-.47.14c-.05.02-.1-.01-.1-.06v-2c0-.02.01-.05.04-.06l.47-.2c.05-.02.1.01.1.06v2.06c0 .03-.01.05-.04.06ZM8.2 9.42c.01.02.02.01.02 0v-.9c0-.07.02-.11.08-.13l.1-.04c.05-.02.08 0 .08.07v1.94c0 .04-.02.08-.06.1-.1.04-.28-.09-.35-.2l-.45-.72c-.06-.07-.07-.07-.07.03v1.06c0 .07-.04.12-.1.14l-.1.02c-.08.02-.11 0-.1-.09V9.41c0-.06 0-.19.02-.36.03-.35.4-.47.6-.16.15.26.26.43.33.53ZM6.6 10.16c.02.02.04.02.04 0l.28-1.06c.01-.07.05-.1.11-.1h.14c.06 0 .08.03.06.1l-.8 2.8c-.02.07-.06.1-.13.1H6.3c-.07 0-.09-.04-.07-.1.1-.37.16-.62.18-.75a.66.66 0 0 0-.02-.3A82.7 82.7 0 0 0 6 9.52c0-.04.03-.07.07-.08l.21-.05c.05-.02.08 0 .1.06l.23.7ZM10.02 9.57l-.4-1.56c-.04-.19-.2-.27-.35-.19-.19.1-.27.41-.3.64-.02.16-.14.72-.33 1.67-.02.1 0 .13.1.11h.03c.08-.02.13-.08.14-.17L9 9.6c.01-.06.04-.13.1-.15.15-.05.26-.08.34-.08l.05.01.02.05.07.34c0 .02.02.04.05.04.17 0 .3-.06.4-.16a.3.3 0 0 0 0-.09Zm-.77-1.05.15.5-.01.03-.27.07c-.02 0-.03-.02-.03-.04l.11-.56.02-.02c.01 0 .02 0 .03.02Z" fill="#C01B28"/><path d="M10 9.46c0 .08.06.15.14.13.03 0 .07-.02.1-.04.07-.02.07-.14.07-.24V8.05c0-.02 0-.02.01 0 .09.14.12.3.17.47a24.32 24.32 0 0 0 .26.8c0 .02.02.03.04.04h.06c.09-.05.15-.14.17-.27l.22-.91c.04-.11.06-.25.08-.36.03-.14.05-.14.05 0v1.2c0 .04.05.07.08.05l.38-.19a.07.07 0 0 0 .03-.06V7.15c0-.21-.07-.48-.3-.48-.24 0-.38.17-.43.37-.08.26-.14.56-.2.9-.02.05-.03.05-.05 0a9.67 9.67 0 0 0-.15-.43c-.07-.17-.18-.26-.33-.27a.22.22 0 0 0-.16.04c-.16.13-.24.32-.24.57v1.6Z" fill="#C01B28"/></svg>