<!-- by TradingView --><svg width="18" height="18" viewBox="0 0 18 18" xmlns="http://www.w3.org/2000/svg"><path fill="#F0F3FA" d="M0 0h18v18H0z"/><circle cx="9" cy="9" r="5" fill="#FFC10F"/><path fill-rule="evenodd" d="M9 13.38a4.38 4.38 0 1 0 0-8.76 4.38 4.38 0 0 0 0 8.75ZM9 14A5 5 0 1 0 9 4a5 5 0 0 0 0 10Z" fill="#262120"/><circle cx="14" cy="9" r="1" fill="#262120"/><path d="M8.04 9h.81c.81.05 2.43-.19 2.43-1.56 0-.32-.3-.94-1.46-.94-1.45 0-3.07 1.25-3.07 2.81s1.3 1.88 2.1 1.88c.81 0 1.62-.31 2.43-.94.1-.1.16-.31 0-.47-.13-.12-.4-.09-.65.16-.32.31-.8.62-1.78.62-.97 0-1.13-.78-.8-1.56Zm.17-.63c.27-.41.97-1.24 1.61-1.24.22 0 .65.09.65.46 0 .47-.16.79-2.26.79Z" fill="#231F20"/></svg>