<!-- by TradingView --><svg width="18" height="18" viewBox="0 0 18 18" xmlns="http://www.w3.org/2000/svg"><path fill="#F0F3FA" d="M0 0h18v18H0z"/><path d="m12.3 4.15.6 1.48.02.03.9 1.05a.1.1 0 0 0 .11.03.1.1 0 0 0 .05-.04.1.1 0 0 0 .02-.06V4.1a.1.1 0 0 0-.03-.07.1.1 0 0 0-.07-.03h-1.51c-.02 0-.03 0-.05.02a.1.1 0 0 0-.05.08.1.1 0 0 0 0 .05Zm-4.85 4.3a.03.03 0 0 0 .03 0 .03.03 0 0 0 0-.03 24.63 24.63 0 0 1-1.63-4.33C5.8 4.03 5.83 4 5.89 4h6.23a.04.04 0 0 1 .04.04v.01c-.45 1.47-.95 3-1.62 4.32-.04.07-.02.1.06.08.68-.2 1.37-.5 2.05-.88.06-.04.07-.02.04.03-.43.7-.92 1.29-1.49 1.75a.51.51 0 0 0-.16.25 31.4 31.4 0 0 1-1.69 4.33.1.1 0 0 1-.1.06h-.49a.1.1 0 0 1-.1-.06 30.65 30.65 0 0 1-1.7-4.33.61.61 0 0 0-.2-.29 6.8 6.8 0 0 1-1.44-1.7c-.04-.06-.02-.08.04-.04.64.38 1.34.67 2.1.89ZM4 6.69V4.09c0-.02 0-.05.03-.06A.09.09 0 0 1 4.09 4h1.54l.04.01a.09.09 0 0 1 .05.07.1.1 0 0 1 0 .05l-.61 1.5-.02.02-.94 1.09a.09.09 0 0 1-.1.02.09.09 0 0 1-.03-.03.1.1 0 0 1-.02-.05Zm.06 1.99a46.64 46.64 0 0 0 4.35 5.28v.02l-.02.02-.02.01H4.06c-.04 0-.06-.02-.06-.06V8.7c0-.07.02-.08.06-.02Zm9.89.03c-.1.11-.18.24-.27.36a48.65 48.65 0 0 1-4.08 4.88.05.05 0 0 0 .02.05l.02.01h4.3c.01 0 .03 0 .04-.02a.07.07 0 0 0 .02-.05V8.72c0-.06-.02-.07-.05-.02Z"/></svg>