<!-- by TradingView --><svg width="18" height="18" viewBox="0 0 18 18" xmlns="http://www.w3.org/2000/svg"><path fill="#542A74" d="M0 0h18v18H0z"/><path d="M7.54 11.5c.45-.33.73-.82.86-1.45V10h-.96c-.09.38-.26.7-.53.89-.27.18-.61.28-1.02.28-.32 0-.6-.05-.84-.16A1.6 1.6 0 0 1 4.13 10a2.2 2.2 0 0 1-.1-.72H8.5c.01-.34-.02-.71-.1-1.1a3.12 3.12 0 0 0-.44-1.06c-.21-.32-.5-.6-.84-.8A2.52 2.52 0 0 0 5.8 6a2.64 2.64 0 0 0-2.6 1.8c-.13.36-.2.75-.2 1.18.02.44.08.84.2 1.21a2.5 2.5 0 0 0 1.42 1.58c.35.15.76.23 1.24.23.67 0 1.23-.17 1.68-.5ZM7.3 7.82c.1.2.14.41.16.63H4.04c.01-.22.06-.43.15-.63a1.59 1.59 0 0 1 .87-.86c.2-.08.43-.13.68-.13a1.75 1.75 0 0 1 1.2.47c.16.15.28.32.36.52Zm6.74 3.68c.45-.33.73-.86.86-1.5h-.96c-.09.38-.26.7-.53.89-.27.18-.61.28-1.02.28-.32 0-.6-.05-.84-.16-.24-.1-.43-.24-.59-.41a1.6 1.6 0 0 1-.33-.6 2.2 2.2 0 0 1-.1-.72H15c.01-.34-.02-.71-.1-1.1a3.12 3.12 0 0 0-.44-1.06c-.21-.32-.5-.6-.84-.8A2.52 2.52 0 0 0 12.3 6a2.64 2.64 0 0 0-2.6 1.8c-.13.36-.2.75-.2 1.18.02.44.08.84.2 1.21a2.5 2.5 0 0 0 1.42 1.58c.35.15.76.23 1.24.23.67 0 1.24-.17 1.68-.5Zm-.24-3.68c.1.2.14.41.16.63h-3.42c.01-.22.06-.43.15-.63a1.59 1.59 0 0 1 .87-.86c.2-.08.43-.13.68-.13a1.75 1.75 0 0 1 1.2.47c.16.15.28.32.36.52Z" fill="#fff"/></svg>