<!-- by TradingView --><svg xmlns="http://www.w3.org/2000/svg" width="18" height="18"><path fill="#F0F3FA" d="M0 0h18v18H0z"/><path d="M7.05 3.93l.01.04c.28.26.57.5.89.7A3.85 3.85 0 0110 3.61a4.91 4.91 0 00-2.95.3l-.01.02zm3.67-.1c-.21.39-.52 1.03-.9 1.84-.54-.22-1.05-.49-1.55-.78.89-.86 1.77-1.28 2.45-1.07zm.77 5.08a11 11 0 01-2.27-.55l.84-2.05c.58.24 1.19.43 1.8.55-.05.7-.18 1.39-.37 2.05zM6.66 7.1c.65.42 1.32.77 2.03 1.07.32-.74.63-1.42.91-2.03-.57-.26-1.13-.56-1.66-.9-.48.58-.91 1.2-1.28 1.86zm3.58-1.24c.31-.84.55-1.5.69-1.94.64.34.96 1.24.95 2.46-.56-.13-1.1-.3-1.64-.52zm-3.98.96c.38-.65.83-1.25 1.33-1.8-.35-.24-.68-.5-.99-.8a.14.14 0 00-.08-.02h-.05a5.18 5.18 0 00-1.48 1.36v.04c.37.47.8.88 1.27 1.22zm7.25-.2a8.7 8.7 0 01-1.25-.15 3.7 3.7 0 00-.72-2.25 5.06 5.06 0 012.02 2.36.06.06 0 01-.05.04zm.4 2.27c-.63.11-1.28.14-1.92.08.17-.66.26-1.34.27-2.02a8.74 8.74 0 001.49.16l.02.03c.12.46.18.94.18 1.42v.28a.07.07 0 01-.04.05z" fill="#0086CD"/><path d="M6.02 7.24A11.42 11.42 0 004.94 10c-.4-.26-.7-.64-.88-1.09l-.02-.06A1.92 1.92 0 014 8.36c.04-.8.26-1.6.65-2.3a.08.08 0 01.05-.02 6.82 6.82 0 001.33 1.2zM7.5 10.9a6.35 6.35 0 01-2.1-.63 13.15 13.15 0 011.03-2.74c.65.43 1.34.8 2.06 1.09l-.21.49-.4.93-.38.86zm7.9-1.86V9c0-.01 0-.02-.02-.03l-.03-.02c-.56.24-1.16.4-1.77.46a9.1 9.1 0 01-.95.04c-.25 0-.5 0-.76-.02-.13.46-.3.92-.49 1.36 2.08-.35 3.38-1.11 4.02-1.76zM9.03 8.8c.75.28 1.53.47 2.32.57-.13.4-.29.81-.46 1.23l-.12.28a14.47 14.47 0 01-2.66.08l.56-1.31.14-.33.22-.52z" fill="#E60012"/><path fill="#E60012" fill-opacity=".6" d="M4 12h10v2H4z"/></svg>