<!-- by TradingView --><svg width="18" height="18" viewBox="0 0 18 18" xmlns="http://www.w3.org/2000/svg"><path fill="#F0F3FA" d="M0 0h18v18H0z"/><path d="M7.94 4.11a4.9 4.9 0 0 1 4.39 1.14 4.75 4.75 0 0 1 1.4 2.06c.04.13 0 .15-.1.06a4.14 4.14 0 0 0-1.51-.85l-1.96-.63A3.92 3.92 0 0 1 7.9 4.21c-.04-.05-.03-.08.04-.1Z" fill="#B1BB77"/><path d="M4.95 6.04a5.07 5.07 0 0 1 2.22-1.7c.05-.02.09-.01.12.03.66.89 1.34 1.46 2.03 1.7 1.07.38 1.87.7 2.42.93.79.34 1.49.7 2.1 1.1.1.07.16.18.16.31v1.22a.1.1 0 0 1-.05.09.1.1 0 0 1-.11 0l-2.8-1.53c-.2-.11-.38-.24-.52-.38-.52-.49-.92-.83-1.22-1.04-.47-.31-.94-.5-1.4-.55-.93-.1-1.9-.14-2.92-.11-.05 0-.06-.02-.03-.07Z" fill="#83936E"/><path d="M6.97 7.43a6.44 6.44 0 0 0-1.31.06l-.5.06c-.33.04-.65.12-.95.26-.05.02-.07 0-.06-.05.12-.51.32-.98.6-1.4a.14.14 0 0 1 .13-.07c.76.01 1.54.05 2.35.1.69.05 1.28.26 1.77.63l1.5 1.11c.44.33.88.57 1.31.71.38.13 1.06.5 2.04 1.13.04.03.06.07.05.12-.15.6-.35 1.1-.63 1.54-.02.05-.06.05-.1.02l-1.17-.9a24.35 24.35 0 0 0-2.87-1.81c-.2-.12-.67-.54-1.43-1.26-.13-.13-.38-.21-.73-.25Z" fill="#838766"/><path d="M6.86 9.33c-.7-.14-1.21-.13-1.52.01-.13.06-.27.2-.42.42l-.6.8c-.04.05-.07.05-.09-.01a5.5 5.5 0 0 1-.2-2.13c0-.05.02-.1.07-.12.29-.17.54-.27.76-.28.77-.03 1.39-.03 1.83 0 .36.03.67.13.94.29a5.24 5.24 0 0 1 .9.73c.14.12.33.25.59.38.92.48 1.8 1 2.62 1.54.45.29.85.65 1.2 1.07v.08c-.32.39-.68.73-1.1 1.01a.11.11 0 0 1-.13 0 10.9 10.9 0 0 1-1.23-.87c-1.1-1.15-2.04-2-2.8-2.56-.26-.18-.53-.3-.82-.36Z" fill="#FBCA00"/><path d="M4.45 10.9c.5-.62.96-.99 1.4-1.1.71-.17 1.52.17 2.43 1.01 1.09 1 2.1 1.84 3.07 2.51.02.02.03.04.03.07 0 .04-.02.06-.05.07l-.76.3a.21.21 0 0 1-.22-.03 3.07 3.07 0 0 1-.33-.31c-.17-.18-.3-.3-.4-.37-.98-.61-1.8-1.05-2.45-1.3a3.47 3.47 0 0 0-2.27.01c-.06.02-.1 0-.12-.05l-.35-.64a.15.15 0 0 1 .02-.17Z" fill="#83936E"/><path d="M9.94 13.93a5.04 5.04 0 0 1-4.76-1.67c-.04-.05-.03-.08.02-.1a.88.88 0 0 1 .67-.11c1.14.3 2.05.61 2.74.92.5.23.95.51 1.36.85.02.01.02.03.02.06-.01.03-.03.04-.05.05Z" fill="#B1BB77"/></svg>