<!-- by TradingView --><svg width="18" height="18" viewBox="0 0 18 18" xmlns="http://www.w3.org/2000/svg"><path fill="#004EA2" d="M0 0h18v18H0z"/><path d="m7.39 4 1.3 3.33c.03.07.02.14-.04.19l-.34.3c-.06.06-.1.05-.14-.02L5.68 4h1.7Zm4.02 0-.97 2.9c-.03.07-.07.1-.15.1-.27-.02-.54 0-.8.08-.08.02-.12 0-.12-.09L9.4 4h2Zm2.58 2.98V4h-.82l-2.14 3.03c-.04.05-.04.1.01.14.38.32.54.7.48 1.11a2 2 0 0 1-.61 1.07 7.13 7.13 0 0 1-2.17 1.59c-.53.22-.58.54-.18.94l.08.08c.4.38.86.49 1.39.32.7-.23 1.26-.58 1.69-1.05a11.9 11.9 0 0 0 2.06-3.16c.14-.32.21-.68.21-1.09ZM4 7.51V5.22l3.73 3.02c.07.05.08.11.04.18l-.2.34c-.03.06-.08.07-.14.05L4 7.5Zm6.51 1.1c.15-.56.07-.93-.24-1.12-.32-.2-.69-.1-1.1.3-.38.35-.65.82-.82 1.42a4.86 4.86 0 0 0-.13 1.67c.01.01.03.02.04.01a4.9 4.9 0 0 0 1.38-.9 3 3 0 0 0 .87-1.38ZM14 14H4.15a1.95 1.95 0 0 0-.02-.06l3-2.3c.06-.04.1-.03.14.03.72 1.16 1.72 1.46 3.01.9 1.47-.63 2.68-2.1 3.66-4.4.04-.1.05-.1.05 0V14ZM4 9.5v2.74l3.08-1.06c.07-.03.1-.08.09-.15-.07-.46-.06-.92.05-1.37.02-.08 0-.12-.08-.12L4 9.5Z" fill="#fff"/></svg>