<!-- by TradingView --><svg width="18" height="18" viewBox="0 0 18 18" xmlns="http://www.w3.org/2000/svg"><path fill="#F0F3FA" d="M0 0h18v18H0z"/><path d="M8.5 3 3 9l5.5 6v-3.04a3 3 0 0 1 0-5.92V3Zm1 12v-3.04a3 3 0 0 0 0-5.92V3L15 9l-5.5 6Z" fill="#30A7BF"/><path fill-rule="evenodd" d="M8.37 7.34c0 .24.13.46.31.57v.1h-.71l.23.33h.48v1.38c-.06.14-.35.4-.75.4-.5 0-.5-.25-.5-.47V9h-.96v1h.47c.24.36.98 1.25 1.95 1.43l.11.23V8.34v3.32l.11-.23c.97-.18 1.7-1.07 1.95-1.43h.47V9h-.95v.65c0 .22 0 .48-.51.48-.4 0-.7-.27-.75-.4v-1.4h.42l.2-.33h-.62v-.09a.67.67 0 0 0 .31-.57.65.65 0 0 0-.63-.67c-.35 0-.63.3-.63.67Zm.31 0c0 .18.14.33.31.33h.02c.17 0 .3-.15.3-.33A.32.32 0 0 0 9 7a.32.32 0 0 0-.32.33Z"/></svg>