<!-- by TradingView --><svg width="18" height="18" viewBox="0 0 18 18" fill="none" xmlns="http://www.w3.org/2000/svg">
<rect width="18" height="18" fill="#F0F3FA"/>
<path d="M4.41826 5H13.3863C13.3863 5 13.2643 5.10171 13.2382 5.12229C12.8087 5.45905 12.3881 5.81371 11.9766 6.18629C11.5869 6.53829 11.3855 5.46171 11.3099 5.14743C11.3056 5.12838 11.2963 5.11164 11.2834 5.09984C11.2706 5.08805 11.255 5.08187 11.2391 5.08229L10.6768 5.09257C10.6509 5.09331 10.6262 5.10504 10.6069 5.12571L9.33689 6.53829C9.0211 6.36762 8.68729 6.26286 8.33544 6.224C8.28571 6.21867 8.28136 6.23352 8.32239 6.26857L9.01799 6.86743L8.6991 7.21714C8.6884 7.22876 8.67444 7.2348 8.66029 7.23394C8.64614 7.23308 8.63294 7.2254 8.62357 7.21257L8.33544 6.81829C8.30052 6.7702 8.25308 6.73837 8.20111 6.72817C8.14914 6.71797 8.09581 6.73002 8.05012 6.76229C7.80768 6.93143 7.47946 7.28457 7.23703 7.29486C6.69248 7.31657 6.37452 6.17143 5.88312 5.91771C5.04113 5.48229 4.67095 8.50629 4.17769 6.37829C4.17542 6.36763 4.17048 6.35812 4.16356 6.35109C4.15664 6.34406 4.1481 6.33988 4.13914 6.33912C4.13017 6.33836 4.12124 6.34107 4.11361 6.34687C4.10597 6.35267 4.10001 6.36126 4.09657 6.37143C3.82118 7.14248 3.49669 7.89067 3.1231 8.616C3.0112 8.83429 3 8.95096 3 9.21628L3 6.53829C3 5.63436 3.77158 5 4.41826 5Z" fill="#BAB3D6"/>
<path d="M13.3819 5C14.5053 5 15 5.65429 15 6.43085V11.5989C15 12.4149 14.3246 13 13.5165 13H4.38374C3.78636 13 3 12.6125 3 11.7589L3 9.17257C3 8.9249 3.01119 8.83428 3.12308 8.616C3.49668 7.89066 3.82117 7.14247 4.09655 6.37143C4.09999 6.36125 4.10595 6.35266 4.11359 6.34687C4.12123 6.34107 4.13016 6.33836 4.13912 6.33912C4.14809 6.33987 4.15663 6.34406 4.16355 6.35109C4.17046 6.35812 4.1754 6.36763 4.17767 6.37828C4.67093 8.50628 5.04111 5.48228 5.88311 5.91771C6.37451 6.17143 6.69247 7.31657 7.23701 7.29485C7.47945 7.28457 7.80767 6.93143 8.0501 6.76228C8.0958 6.73002 8.14912 6.71797 8.20109 6.72817C8.25306 6.73837 8.3005 6.77019 8.33543 6.81828L8.62355 7.21257C8.63292 7.2254 8.64612 7.23308 8.66028 7.23394C8.67443 7.23479 8.68838 7.22875 8.69908 7.21714L9.01798 6.86743C9.16157 7.00838 9.26942 7.17181 9.34153 7.35771C9.35583 7.39276 9.35366 7.42666 9.33501 7.45943C8.81097 8.38171 8.31958 9.08114 7.5671 9.87657C7.00079 10.4747 6.45936 11.133 5.94278 11.8514C5.90793 11.9004 5.89022 11.9641 5.89354 12.0288C5.89686 12.0935 5.92094 12.1538 5.9605 12.1966L6.21692 12.4754C6.2269 12.4864 6.23953 12.493 6.25296 12.4945C6.26639 12.4959 6.27991 12.492 6.29152 12.4834C7.35264 11.6903 8.00814 10.1989 8.93033 9.15885C9.22933 8.82133 9.54045 8.47543 9.8637 8.12114C9.87642 8.10751 9.89293 8.10047 9.90968 8.10154C9.92643 8.10261 9.94207 8.1117 9.95321 8.12685L10.5313 8.93257C10.5392 8.94335 10.5487 8.95205 10.5594 8.95815C10.5701 8.96425 10.5817 8.96762 10.5935 8.96805C10.6052 8.96848 10.617 8.96596 10.6279 8.96064C10.6389 8.95533 10.6489 8.94733 10.6572 8.93714L11.0404 8.47428C11.0622 8.44762 11.0638 8.41904 11.0451 8.38857C10.895 8.14514 10.6973 7.95885 10.5574 7.72457C10.2454 7.20571 9.83852 6.81028 9.33687 6.53828L10.6069 5.12571C10.6261 5.10504 10.6509 5.09331 10.6768 5.09257L11.2391 5.08228C11.255 5.08187 11.2706 5.08805 11.2834 5.09984C11.2963 5.11163 11.3056 5.12837 11.3099 5.14743C11.3854 5.46171 11.5869 6.53828 11.9766 6.18628C12.3881 5.81371 12.9523 5.33676 13.3819 5Z" fill="#391A7A"/>
<path d="M9.33728 6.53827C9.83893 6.81027 10.2458 7.2057 10.5578 7.72456C10.6977 7.95884 10.8954 8.14513 11.0455 8.38856C11.0642 8.41904 11.0626 8.44761 11.0408 8.47427L10.6576 8.93713C10.6493 8.94732 10.6393 8.95532 10.6283 8.96063C10.6174 8.96595 10.6057 8.96847 10.5939 8.96804C10.5821 8.96761 10.5705 8.96424 10.5598 8.95814C10.5491 8.95204 10.5396 8.94334 10.5317 8.93256L9.95362 8.12685C9.94247 8.11169 9.92683 8.1026 9.91009 8.10153C9.89334 8.10046 9.87682 8.1075 9.86411 8.12113C9.54086 8.47542 9.22974 8.82132 8.93073 9.15884C8.00855 10.1988 7.35304 11.6903 6.29192 12.4834C6.28031 12.492 6.2668 12.4959 6.25337 12.4945C6.23994 12.493 6.22731 12.4864 6.21733 12.4754L5.96091 12.1966C5.92134 12.1538 5.89727 12.0935 5.89395 12.0288C5.89063 11.9641 5.90833 11.9003 5.94319 11.8514C6.45976 11.1329 7.0012 10.4747 7.5675 9.87656C8.31998 9.08113 8.81138 8.3817 9.33541 7.45942C9.35406 7.42665 9.35624 7.39275 9.34194 7.3577C9.26983 7.1718 9.16198 7.00837 9.01838 6.86742L8.32278 6.26856C8.28175 6.23351 8.28611 6.21865 8.33584 6.22399C8.68768 6.26284 9.02149 6.36761 9.33728 6.53827Z" fill="#DA251D"/>
</svg>
