<!-- by TradingView --><svg width="18" height="18" viewBox="0 0 18 18" xmlns="http://www.w3.org/2000/svg"><path fill="#F0F3FA" d="M0 0h18v18H0z"/><path d="M6.74 8h-1l3.34-3.43h.3L6.75 8Z" fill="#6B5526"/><path d="M6.49 8h-1l3.34-3.43h.3L6.5 8Z" fill="#CA9B27"/><path d="M10.68 4.57 7.51 8.85l-.31-.86 3.17-3.42h.31Z" fill="#6B5526"/><path d="M10.51 4.57 7.45 8.7 7.2 8h-.33l3.34-3.43h.3Z" fill="url(#apytgqson)"/><path d="M11.14 5.57 7.72 9.3l.37.97 3.22-4.46-.17-.25Z" fill="#6B5526"/><path d="m11.04 5.43-3.38 3.7.36.98 3.2-4.43-.18-.25Z" fill="url(#bpytgqson)"/><path d="m11.87 6.9-.17-.21-3.42 3.95.37 1.07 3.22-4.8Z" fill="#6B5526"/><path d="m11.78 6.8-.17-.23-3.4 3.89.38 1.07 3.2-4.74Z" fill="url(#cpytgqson)"/><path d="M13 8h-.38l-3.74 4.17.38.97L13 8Z" fill="#6B5526"/><path d="M12.8 8h-.37l-3.65 3.96.4.97L12.8 8Z" fill="url(#dpytgqson)"/><path d="M11.88 11v-.5l-2.46 3.13.13.37h.57l1.76-3Z" fill="#6B5526"/><path d="M11.88 10.8v-.51l-2.54 3.13.14.37h.62l1.78-3Z" fill="url(#epytgqson)"/><path d="m6.76 4-2.6 2.77.55.53L7.03 4h-.27Z" fill="#6B5526"/><path d="M6.54 4 4 6.63l.56.52L6.82 4h-.28Z" fill="#C59135"/><path d="M8.08 4 4.92 7.48l.56.52L8.4 4h-.32Z" fill="#6B5526"/><path d="M7.83 4 4.76 7.34l.56.52L8.15 4h-.32Z" fill="#C29032"/><defs><linearGradient id="apytgqson" x1="10.51" y1="4.57" x2="6.98" y2="8.44" gradientUnits="userSpaceOnUse"><stop stop-color="#D0A324"/><stop offset=".48" stop-color="#DDB322"/><stop offset="1" stop-color="#D7A528"/></linearGradient><linearGradient id="bpytgqson" x1="10.96" y1="5.58" x2="7.68" y2="9.82" gradientUnits="userSpaceOnUse"><stop stop-color="#DEAB29"/><stop offset=".47" stop-color="#EFCD5B"/><stop offset="1" stop-color="#E0B128"/></linearGradient><linearGradient id="cpytgqson" x1="11.68" y1="6.68" x2="7.96" y2="11.04" gradientUnits="userSpaceOnUse"><stop stop-color="#EFC659"/><stop offset=".38" stop-color="#F5E199"/><stop offset="1" stop-color="#D9A82A"/></linearGradient><linearGradient id="dpytgqson" x1="12.69" y1="8.11" x2="9.09" y2="12.89" gradientUnits="userSpaceOnUse"><stop stop-color="#EFC659"/><stop offset=".38" stop-color="#F5E199"/><stop offset="1" stop-color="#D9A82A"/></linearGradient><linearGradient id="epytgqson" x1="11.8" y1="10.36" x2="9.17" y2="13.46" gradientUnits="userSpaceOnUse"><stop offset=".01" stop-color="#ECD376"/><stop offset="1" stop-color="#C79429"/></linearGradient></defs></svg>