<!-- by TradingView --><svg width="18" height="18" viewBox="0 0 18 18" xmlns="http://www.w3.org/2000/svg"><path fill="#F0F3FA" d="M0 0h18v18H0z"/><path d="M13.92 9.9a5.02 5.02 0 0 0 .02-1.64A4 4 0 0 0 12.33 8c-1.35 0-2.18.7-3.05 1.53-.86.83-1.8 1.66-3.06 1.66-.62 0-1.34-.24-1.92-.47.17.45.4.88.69 1.26.37.14.96.32 1.43.32.71 0 1.59-.4 2.58-1.54a4.18 4.18 0 0 1 3.09-1.37c.62 0 1.3.25 1.83.5Z" fill="#23355C"/><path d="M13.6 7.03c-.4-.12-.86-.22-1.38-.22-.9 0-2.23.14-3.45 1.43C7.55 9.52 6.77 10 5.84 10c-.6 0-1.33-.18-1.8-.35a5.05 5.05 0 0 1 .05-1.61c.62.25 1.42.52 1.96.52.97 0 1.98-.5 2.53-1.14 1.1-1.28 2.08-1.71 2.96-1.71.46 0 1.03.15 1.47.3a5 5 0 0 1 .59 1.02Z" fill="#8A0C02"/><path d="M11.6 4.73a5.78 5.78 0 0 0-.53-.03c-.5 0-1.82.4-2.8 1.42C7.3 7.14 6.74 7.44 5.8 7.44c-.51 0-1.05-.09-1.44-.27a5 5 0 0 1 7.25-2.44Z" fill="#23355C"/><path d="M13.7 10.74a5 5 0 0 1-7.3 2.53c.23.02.5.03.7.03.5 0 1.48-.4 2.45-1.42.98-1.02 1.63-1.45 2.58-1.45.53 0 1.15.14 1.56.3Z" fill="#8A0C02"/></svg>