<!-- by TradingView --><svg width="18" height="18" viewBox="0 0 18 18" xmlns="http://www.w3.org/2000/svg"><path fill="url(#ax3pd45qa)" d="M0 0h18v18H0z"/><path d="M12 12V6h1.29C14.54 6 15 6.7 15 7.9v2.17c0 1.19-.44 1.93-1.7 1.93H12Zm1-.75h.3c.5 0 .7-.54.7-.97V7.67c0-.43-.22-.92-.71-.92H13v4.5ZM8.53 12C7.37 12 7 11.09 7 10.06v-2.1C7 6.91 7.36 6 8.53 6 9.57 6 10 6.72 10 7.69V8H9v-.4c0-.27-.13-.85-.5-.85-.38 0-.5.6-.5.88v2.74c0 .28.13.88.5.88s.5-.6.5-.88v-.36h1v.25c0 .97-.42 1.74-1.47 1.74ZM3 12V6h2.49l.01.75H4l-.01 1.88h1.22v.74H4v1.88H5.5V12H3Z" fill="#F0F3FA"/><circle cx="6.5" cy="11.5" r=".5" fill="#F0F3FA"/><circle cx="10.5" cy="11.5" r=".5" fill="#F0F3FA"/><circle cx="15.5" cy="11.5" r=".5" fill="#F0F3FA"/><defs><linearGradient id="ax3pd45qa" x1="3.35" y1="3.12" x2="21.9" y2="24.43" gradientUnits="userSpaceOnUse"><stop stop-color="#1A1E21"/><stop offset="1" stop-color="#06060A"/></linearGradient></defs></svg>