<!-- by TradingView --><svg xmlns="http://www.w3.org/2000/svg" width="18" height="18" viewBox="0 0 18 18"><path fill="#263544" d="M0 0h18v18H0z"/><path d="M13.06 13.44a12.48 12.48 0 0 1-3.69-3.3h-.05a37.07 37.07 0 0 0-.33 0h-.28a12.58 12.58 0 0 1-3.65 3.29 9.88 9.88 0 0 1 6.03-.63l.1.03a9.75 9.75 0 0 1 1.9.64l-.03-.03Z" fill="#D5D5D6"/><path d="M12.75 13.21a12.7 12.7 0 0 1-2.8-3.05h-.11l-.17-.01-.17-.01h-.14a12.92 12.92 0 0 0 3.7 3.3l-.31-.23ZM8.65 10.14h-.17l-.18.01-.17.02h-.01a12.67 12.67 0 0 1-3.17 3.3l.11-.04a12.33 12.33 0 0 0 3.66-3.3h-.07Z" fill="#8F9092"/><path d="M8.12 10.17c.24-.38.47-.77.68-1.16A13.05 13.05 0 0 1 7.84 4a10.43 10.43 0 0 1-4.11 7.35l-.03.03.2.36.83 1.47.14.25.02.04.06-.02a12.43 12.43 0 0 0 3.17-3.31Z" fill="#6294BC"/><path d="m8.8 9 .23-.47A13 13 0 0 1 7.84 4c-.02 1.76.33 3.45.96 5Z" fill="#00639C"/><path d="M14.28 11.33A10.43 10.43 0 0 1 10.23 4H7.83a13 13 0 0 0 2.1 6.16 12.92 12.92 0 0 0 3.12 3.28l.04.03.06-.09.94-1.69.2-.35h-.01Z" fill="#5DCAE6"/></svg>