<!-- by TradingView --><svg width="18" height="18" viewBox="0 0 18 18" xmlns="http://www.w3.org/2000/svg"><path fill="#F0F3FA" d="M0 0h18v18H0z"/><path d="m9 3 .04.03c.11.07.27.21.41.4.14.17.25.4.25.63 0 .3-.14.5-.3.61a.88.88 0 0 1-.22.13.55.55 0 0 1-.18.04.5.5 0 0 1-.17-.05.95.95 0 0 1-.22-.14.75.75 0 0 1-.3-.59c0-.22.12-.44.25-.62.14-.18.3-.33.4-.41L9 3Zm0 .15c-.1.08-.23.21-.34.36a.97.97 0 0 0-.22.55c0 .23.11.4.24.5.07.05.14.1.2.12L9 4.7c.03 0 .07 0 .13-.03a.76.76 0 0 0 .2-.1c.13-.1.25-.27.25-.52 0-.2-.1-.4-.23-.56a1.84 1.84 0 0 0-.34-.35ZM7.87 6.08c-.22 0-.43-.15-.6-.31-.16-.17-.3-.37-.36-.5l-.02-.04.02-.03c.1-.16.44-.47.92-.47.3 0 .51.1.65.26.13.15.2.33.2.49 0 .16-.08.31-.22.42a.94.94 0 0 1-.59.18Zm-.04-1.23c-.4 0-.68.25-.8.39.07.12.2.3.33.44.16.16.34.27.51.27.24 0 .4-.06.52-.15a.4.4 0 0 0 .16-.32.62.62 0 0 0-.16-.4.73.73 0 0 0-.56-.23Zm.04 1.45c-.22 0-.43.14-.6.3-.16.18-.3.38-.36.51l-.02.03.02.03c.1.16.44.48.92.48.3 0 .51-.11.65-.26.13-.15.2-.34.2-.5a.53.53 0 0 0-.22-.41.94.94 0 0 0-.59-.18Zm-.04 1.22c-.4 0-.68-.24-.8-.39.07-.12.2-.29.33-.43.16-.16.34-.28.51-.28.24 0 .4.06.52.15.1.09.16.2.16.33 0 .12-.05.28-.16.4a.73.73 0 0 1-.56.22Zm2.96-.91c-.16-.17-.37-.31-.6-.31a.94.94 0 0 0-.59.18.53.53 0 0 0-.2.42c0 .15.05.34.19.49.14.15.35.26.65.26.48 0 .8-.32.92-.48l.02-.03-.02-.03c-.07-.13-.2-.33-.37-.5Zm.24.52c-.11.15-.4.4-.79.4a.73.73 0 0 1-.56-.23.62.62 0 0 1-.16-.4.4.4 0 0 1 .16-.33.82.82 0 0 1 .52-.15c.17 0 .35.12.5.28.15.14.26.31.33.43Zm-.83-1.05c.22 0 .43-.15.6-.31.16-.17.29-.37.36-.5l.02-.04-.02-.03c-.11-.16-.44-.47-.92-.47-.3 0-.51.1-.65.26a.74.74 0 0 0-.2.49c0 .16.07.31.21.42.14.1.34.18.6.18Zm.04-1.23c.4 0 .68.25.8.39-.08.12-.2.3-.34.44-.15.16-.33.27-.5.27a.82.82 0 0 1-.52-.15.4.4 0 0 1-.16-.32c0-.13.05-.28.16-.4.11-.13.3-.23.56-.23Zm-1.3.25v3.3h.13V5.1h-.12Zm.37 3.3v-.6h.12v.6H9.3Zm-.73-.6v.6h.13v-.6h-.13Zm-.3.6v-.45h.13v.45h-.12Zm1.33-.48v.48h.12v-.48H9.6Z"/><path d="M9.06 14.1a.45.45 0 1 1-.12 0V8.7h.12v5.4Zm-.79-5.4v.89c0 .99-.23 1.58-.57 1.96-.3.32-.66.48-.93.58a.45.45 0 1 0 .08.1c.27-.1.63-.27.94-.6.36-.4.61-1.03.61-2.04V8.7h-.13Zm.3 1.17V8.7h.13v1.17a8.25 8.25 0 0 1-.23 1.75 7 7 0 0 1-.66 1.7.45.45 0 0 1-.31.78.45.45 0 1 1 .2-.85c.3-.52.5-1.11.65-1.66.18-.7.22-1.35.23-1.72ZM9.74 8.7v.89c0 .99.23 1.58.57 1.96.3.32.66.48.93.58a.45.45 0 0 1 .77.32.45.45 0 1 1-.85-.22c-.27-.1-.63-.27-.94-.6-.36-.4-.61-1.03-.61-2.04V8.7h.13Zm-.3 1.17V8.7H9.3v1.17c.01.39.05 1.04.23 1.75a7 7 0 0 0 .66 1.7.45.45 0 0 0 .31.78.45.45 0 1 0-.2-.85 6.9 6.9 0 0 1-.65-1.66 8.12 8.12 0 0 1-.23-1.72Z" fill="#78A3B8"/></svg>