<!-- by TradingView --><svg width="18" height="18" viewBox="0 0 18 18" xmlns="http://www.w3.org/2000/svg"><path fill="#181B1E" d="M0 0h18v18H0z"/><path d="M6 6H3V12h3v-.53H3.53V9.1H6v-.53H3.53V6.53H6V6ZM12 7.33C12 6.6 12.46 6 13.03 6h.94c.57 0 1.03.6 1.03 1.33v.54h-.41v-.54c0-.44-.28-.8-.62-.8h-.94c-.34 0-.62.36-.62.8v.31c0 .35.18.66.44.77l1.42.57c.43.17.73.68.73 1.27v.42c0 .73-.46 1.33-1.03 1.33h-.94c-.57 0-1.03-.6-1.03-1.33v-.54h.41v.54c0 .44.28.8.62.8h.91c.35 0 .63-.38.62-.83v-.34c-.02-.34-.2-.63-.45-.73l-1.44-.55c-.4-.15-.67-.62-.67-1.15v-.54ZM11 12V6h-.56v4.91L7.53 6H7v6h.56V7.15L10.44 12H11Z" fill="#fff"/></svg>