<!-- by TradingView --><svg width="18" height="18" viewBox="0 0 18 18" xmlns="http://www.w3.org/2000/svg"><path fill="#F0F3FA" d="M0 0h18v18H0z"/><path d="M6.54 4c-.5.46-1.51 1.39-1.54 1.4 2.15 1.22 4.16 2.18 4.68 2.18.53 0 .72-.17 1.02-.53.3-.37.9-.98 1.45-.98.43 0 .8.15.94.23l1.91 1c0-2.16-.82-2.77-1.54-2.77-.9 0-1.5 1.48-2.45 1.48-.75 0-1.05-.24-1.85-.7L6.54 4ZM11.46 14c.5-.46 1.51-1.39 1.54-1.4-2.15-1.22-4.16-2.18-4.68-2.18-.53 0-.72.17-1.02.53-.3.37-.9.98-1.45.98-.43 0-.8-.15-.94-.23L3 10.7c0 2.16.82 2.77 1.54 2.77.9 0 1.5-1.48 2.45-1.48.75 0 1.05.24 1.85.7L11.46 14Z" fill="#DB111C"/><path d="M3.91 7c-.46.54-.8 1.33-.91 1.66l2.2 1.12c.65.34 1.33.7 1.8.7s.95-.36 1.33-.8c.39-.44.75-.7 1.37-.7.5 0 .99.24 1.17.36L14.1 11 15 9.26c-.43-.23-1.46-.78-2.1-1.08-.8-.38-1.46-.74-1.95-.74-.5 0-.97.36-1.14.58-.33.42-.8.88-1.37.88-.87 0-1.5-.3-1.7-.46L3.91 7Z" fill="#DB111C"/></svg>