<!-- by TradingView --><svg width="18" height="18" viewBox="0 0 18 18" xmlns="http://www.w3.org/2000/svg"><path fill="#F0F3FA" d="M0 0h18v18H0z"/><path d="m12.07 9.96-1.3 1.1c-.1.1-.29.25-.44.21-.16-.03-.22-.2-.19-.35l.06-.27c0-.04 0-.08-.02-.11 0-.02-.02-.02-.03-.01l-.32.2c-.4.26-.82.52-1.28.58-.3.05-.48-.1-.5-.42-.07-.65.15-1.26.54-1.77a5.55 5.55 0 0 1 3.18-2.01c.05-.01.1-.04.14-.09a16.48 16.48 0 0 0 .45-.02c.11 0 .22.07.27.15v.05c0 .05-.03.1-.08.14-.38.33-.74.64-1 1.09-.05.07-.18.1-.29.14l-.08.02a.22.22 0 0 1-.16 0c-.2-.08-.08-.33.01-.46.16-.22.39-.41.6-.6l.06-.04v-.04l-.01-.02h-.04c-1.12.26-2.1.91-2.64 1.96-.19.36-.25.73-.18 1.1.05.3.22.37.5.23a6.97 6.97 0 0 0 1.53-1.05A2.5 2.5 0 0 1 12.5 9a.72.72 0 0 0 .31-.07c.2-.07.38-.15.6-.04v.02l.01.02v.01c-.34.49-.65.95-.84 1.5-.01.03 0 .04.02.03l.74-.48c.25-.15.44-.34.57-.56.19-.32.47-.38.82-.32a.02.02 0 0 1 .01.04l-.4.52c-.02.03-.01.03.02.02.14-.05.27-.12.4-.2.25-.18.5-.32.75-.43.2-.08.35-.03.45.15.06.1.05.24-.03.4-.52.95-1.24 1.7-2.39 1.66-.11 0-.18.08-.22.18-.2.42-.35.82-.49 1.2-.1.28-.3.4-.6.35h-.01a.02.02 0 0 1-.01-.02c.15-.57.35-1.11.6-1.63a35.05 35.05 0 0 1 .52-1.08c-.43.25-.82.57-1.2.9l-.07.05c-.13.1-.3.05-.3-.13.02-.22.06-.42.15-.62l.19-.48c.02-.04 0-.05-.03-.02Zm-.36-.55c-.37.15-.74.53-.82.96-.01.07.01.13.07.17l.03.01.03-.01 1.38-1.1c.02 0 .02-.02 0-.02a.85.85 0 0 0-.69-.01ZM13.58 11c.72 0 1.45-.5 1.57-1.22.02-.12-.08-.22-.18-.18a4.18 4.18 0 0 0-1.4 1.37c-.01.02 0 .03.01.03ZM4.04 8.53c-.02.03-.02.04.02.04l1.53-.1c.1-.01.14.03.14.13v.01c0 .03 0 .06-.03.08a.11.11 0 0 1-.07.04l-1.66.13a.41.41 0 0 0-.3.2 7.43 7.43 0 0 0-.84 1.58l2.05-.6c.09-.03.15 0 .2.08l.01.04c.03.1-.01.17-.1.2l-.25.03-.23.04c-.7.18-1.45.45-2.11.8-.18.1-.3.05-.38-.13-.03-.08-.03-.17.02-.29a8.66 8.66 0 0 1 1.96-3c.09-.09.2-.18.34-.26.02-.02.02-.03 0-.04-.1-.12-.2-.09-.31-.06l-.12.03c-.1.02-.16-.02-.18-.12v-.05c.02-.08.07-.12.15-.13.12 0 .23-.02.32-.04a1.19 1.19 0 0 1 .26-.03c.12-.01.23-.02.35-.1h2.43c.08 0 .1.03.07.1l-.02.04a.19.19 0 0 1-.18.11l-1.55.02c-.3 0-.53.15-.73.38-.24.3-.5.58-.79.87Zm1.98 1.85-.18.09c-.01 0-.02 0-.01-.02A7.8 7.8 0 0 1 6.7 8.9a21.92 21.92 0 0 1 1.35-1.64c-.34-.07-.61.06-.85.3a11.1 11.1 0 0 0-1.44 1.8c-.37.56-.6 1.1-.7 1.64-.02.08-.03.2.06.25.07.04.14.04.2-.02l1.08-.83c.15-.11.3-.22.47-.32l.27-.17c.02-.02.02-.03 0-.05a.17.17 0 0 1-.03-.06c0-.02-.01-.02-.03-.02-.14.04-.26.1-.37.16l-.7.44Z" fill="#2B3990"/></svg>