<!-- by TradingView --><svg width="18" height="18" viewBox="0 0 18 18" xmlns="http://www.w3.org/2000/svg"><path fill="#F0F3FA" d="M0 0h18v18H0z"/><path d="M4 7H3v4h1v-1l.5-.5.93 1.5H7L5.14 8.77 6.71 7H5.14L4 8.14V7ZM8.5 7h1v4h-1V7Z" fill="#EE1F3F"/><path fill-rule="evenodd" d="M12.5 7H12v4h1v-1h1c.71 0 1-.9 1-1.5 0-.9-.56-1.5-1-1.5h-1.5Zm.5 1v1h.5c.22 0 .5-.14.5-.5s-.28-.5-.5-.5H13Z" fill="#EE1F3F"/><path d="M9.9 9.14c.3-.14.45-.43.6-.71.15.28.3.57.6.71-.3.15-.45.43-.6.72-.15-.29-.3-.57-.6-.72ZM6.6 9.14c.3-.14.45-.43.6-.71.15.28.3.57.6.71-.3.15-.45.43-.6.72-.15-.29-.3-.57-.6-.72Z" fill="#6C6E70"/></svg>