<!-- by TradingView --><svg width="18" height="18" viewBox="0 0 18 18" xmlns="http://www.w3.org/2000/svg"><path fill="#F0F3FA" d="M0 0h18v18H0z"/><path d="M9.02 6.48a7.47 7.47 0 0 0-.04 0C7.52 6.46 4.15 6.93 2 9c.55-1 2.7-2.99 6.98-3h.04c4.28.01 6.43 2 6.98 3-2.15-2.07-5.52-2.54-6.98-2.52Z" fill="#0D3894"/><path d="M9 7.32C7.75 7.3 4.84 7.62 3 9c.47-.66 2.35-2.19 6.01-2.2 3.67.01 5.52 1.54 5.99 2.2-1.84-1.38-4.75-1.7-6-1.68Z" fill="#0D3894"/><path d="M9 8c-1.05 0-3.47.31-5 1 .39-.33 1.94-1.5 5-1.5 3.05 0 4.61 1.17 5 1.5-1.53-.69-3.96-1-5-1ZM13 9l-.08.68a.5.5 0 0 0-.22-.07l-.28-.03h-1.08c-.16 0-.21 0-.28.06-.08.05-.1.08-.15.25l-.33 1.17-.02.08v.08c0 .14.12.2.43.2h1.04l.16-.01c.09-.01.15-.02.26-.07l-.28.66h-2.12c-.26 0-.45-.02-.58-.07a.71.71 0 0 1-.47-.64c0-.1.01-.17.06-.34L9.4 9.7a.9.9 0 0 1 .41-.57.83.83 0 0 1 .27-.1l.28-.03H13Z" fill="#0D3894"/><path d="m9 9.75-.03.3-.19.74H6.46l-.07.28a.93.93 0 0 0-.03.16c0 .11.08.18.22.18H8.1c.25 0 .36 0 .5-.05l-.25.64H5.88c-.19 0-.37-.04-.49-.1a.76.76 0 0 1-.39-.66l.03-.24.32-1.32c.11-.46.4-.68.9-.68h1.77c.29 0 .45.02.58.08.24.1.4.37.4.67Zm-1.36-.02c0-.1-.07-.15-.2-.15H7c-.21 0-.25.04-.31.29l-.1.34h.95l.08-.34.02-.14Z" fill="#0D3894"/></svg>