<!-- by TradingView --><svg width="18" height="18" viewBox="0 0 18 18" xmlns="http://www.w3.org/2000/svg"><path fill="#F0F3FA" d="M0 0h18v18H0z"/><path d="m8.66 4.51-.06.05c-.63-.28-1.26-.55-1.9-.8a27.22 27.22 0 0 0-1.65-.6c-.04-.02-.06-.05-.04-.1 0-.04.04-.06.09-.06 1.01.1 1.95.27 2.8.5a4.06 4.06 0 0 1 1.54.77h-.01a1.84 1.84 0 0 0-.2-.07.1.1 0 0 0-.06 0c-.18.06-.35.17-.51.31Z" fill="#38A1B8"/><path d="M8.6 4.56a2.6 2.6 0 0 1 .37-.2.65.65 0 0 1 .25-.06l.17-.01c.04 0 .1 0 .16.03.63.22 1.25.55 1.88.99.4.29.76.63 1.05 1.03.1.14.18.3.23.51.04.14.05.33.04.58-.01.58 0 1.18.02 1.8.01.25-.04.55-.15.93-.04.14-.19.46-.44.97a.11.11 0 0 1-.06.06h-.04c-.06.02-.07 0-.06-.06l.17-.55.1-.51a9.75 9.75 0 0 0 .06-1.52 2.79 2.79 0 0 0-.19-.8c-.16-.41-.37-.8-.61-1.13-.1-.13-.23-.26-.39-.37a46.33 46.33 0 0 0-2.56-1.7ZM8.93 11.72a3.38 3.38 0 0 0-.13-.08c-.3-.15-.58-.35-.82-.6L6.83 9.78a3.6 3.6 0 0 1-.56-.87c-.23-.5-.45-.98-.65-1.46a2.41 2.41 0 0 1-.19-.8c0-.25.07-.49.24-.73.15-.22.33-.39.55-.51.13-.08.34-.14.63-.19.3-.05.51-.07.65-.08.34-.03.6-.01.78.05a.8.8 0 0 1 .23.1c.12.09.1.14-.06.14-.34.02-.71.07-1.12.15a1.3 1.3 0 0 0-.66.37c-.2.21-.32.45-.34.71-.01.18 0 .39.06.64a6.4 6.4 0 0 0 .77 1.8c.42.69.84 1.3 1.28 1.86.09.11.17.24.25.37.04.08.13.2.26.35v.03h-.02ZM12.86 7.29v-.01h.01c.03 0 .06.08.09.25.02.17.04.37.04.61v.03c0 .24 0 .44-.03.61-.02.17-.05.25-.08.26l-.02-.01-.01-1.74Z" fill="#759EAA"/><path d="M12.12 8.86v.21c-.2.66-.44 1.37-.71 2.12-.22.6-.43 1.07-.63 1.42-.27.46-.58.83-.94 1.1-.19.15-.38.23-.59.25-.35.05-.66.05-.95.01a1.08 1.08 0 0 1-.5-.19c-.22-.16-.4-.32-.51-.48-.13-.17-.28-.37-.43-.6a3.9 3.9 0 0 1-.35-.64l-.41-.94a1.82 1.82 0 0 1-.15-.48l.01-.06c.04-.07.07-.07.1-.01.26.5.56.98.9 1.45.38.52.76.85 1.12.98.66.25 1.25.14 1.76-.31.4-.35.7-.74.9-1.18.68-1.5 1.1-2.4 1.25-2.7.04-.1.09-.08.13.02v.03Z" fill="#759EAA"/></svg>