<!-- by TradingView --><svg width="18" height="18" viewBox="0 0 18 18" xmlns="http://www.w3.org/2000/svg"><path fill="#F0F3FA" d="M0 0h18v18H0z"/><path d="M13.55 5v.02c-.22.74-.44 1.53-.64 2.27H7.8l-.1.28h5.11l-1.41 4.97-.02.01H4l2.39-7.54V5h7.16Z" fill="#E60012"/><path d="m13.55 5 .45.48v.01l-2.18 7.5V13H4.44L4 12.54h7.4l.01-.01.65-2.3.08-.27.7-2.45.07-.27v-.03c.22-.73.42-1.46.63-2.2l.01-.02Z" fill="#231815"/><path d="m12.17 9.86-.08.28h-5.1v-.01l.08-.26v-.01h5.1Z" fill="#fff"/><path d="M6.03 8.31h6.02l-.27 1H5.74l.29-1Z" fill="#EFEFEF"/></svg>