<!-- by TradingView --><svg width="18" height="18" viewBox="0 0 18 18" xmlns="http://www.w3.org/2000/svg"><path fill="#F0F3FA" d="M0 0h18v18H0z"/><path d="m6.35 5.32.08-.04A14.94 14.94 0 0 0 9.73 3a.1.1 0 0 1 .03 0c.03 0 .05 0 .07.02a1.61 1.61 0 0 1 .63.76.9.9 0 0 1-.1.9c-.2.29-.43.55-.7.78C9 6 8.27 6.46 7.48 6.8a18.6 18.6 0 0 0-1.43.68.12.12 0 0 1-.15-.09l-.14-.3a1.4 1.4 0 0 1 .6-1.78Zm5.85 7.18a.93.93 0 0 1-.46.74c-.34.22-.7.41-1.07.57a8.4 8.4 0 0 0-2 1.19.09.09 0 0 1-.06-.03.96.96 0 0 1-.03-1.43c.15-.14.31-.26.5-.35.36-.2.74-.38 1.13-.53.28-.11.55-.25.8-.4.23-.13.4-.34.47-.59a.54.54 0 0 0-.1-.59c-.03-.03 0-.07.02-.07h.03a1.48 1.48 0 0 1 .77 1.49Zm-.16-2.98c-.68.44-1.4.82-2.15 1.15a17.18 17.18 0 0 0-4 2.4.18.18 0 0 1-.21-.04 1.96 1.96 0 0 1-.07-2.9c.3-.29.64-.53 1-.73.75-.4 1.53-.77 2.32-1.08.57-.23 1.11-.5 1.63-.82.45-.26.79-.68.95-1.17a1.25 1.25 0 0 0-.22-1.2.08.08 0 0 1-.02-.1.08.08 0 0 1 .08-.05A3 3 0 0 1 12.98 8a2.1 2.1 0 0 1-.94 1.52Z" fill="url(#aazcrbc5w)"/><defs><linearGradient id="aazcrbc5w" x1="10.94" y1="3.71" x2="6.96" y2="14.64" gradientUnits="userSpaceOnUse"><stop offset=".41" stop-color="#0891B4"/><stop offset=".45" stop-color="#168EB0"/><stop offset=".52" stop-color="#3D87A6"/><stop offset=".6" stop-color="#6D7D9A"/><stop offset=".63" stop-color="#787B95"/><stop offset=".68" stop-color="#957488"/><stop offset=".74" stop-color="#C46A73"/><stop offset=".78" stop-color="#E46365"/><stop offset=".81" stop-color="#E66365"/><stop offset=".97" stop-color="#EC6464"/></linearGradient></defs></svg>