<!-- by TradingView --><svg width="18" height="18" viewBox="0 0 18 18" xmlns="http://www.w3.org/2000/svg"><path fill="#F0F3FA" d="M0 0h18v18H0z"/><path fill-rule="evenodd" d="M9 15A6 6 0 1 0 9 3a6 6 0 0 0 0 12Zm0-.35a5.65 5.65 0 1 0 0-11.3 5.65 5.65 0 0 0 0 11.3Z" fill="#787D7F"/><path fill-rule="evenodd" d="M14.3 9A5.3 5.3 0 1 1 3.7 9a5.3 5.3 0 0 1 10.6 0Zm-3.21-1h1.52l-.87 4h-1.52l.87-4ZM13 6h-1.51l-.35 1.5h1.51L13 6ZM6.22 6h4.35l-.26 1.5H5.35L6.22 6Zm3.53 3L10 8H5.7l-.65 2.43c-.21.78.3 1.57 1 1.57h3.2l.21-1H7.08l.42-2h2.25Z" fill="url(#a)"/><defs><linearGradient id="a" x1="6.35" y1="4.76" x2="12.35" y2="12.71" gradientUnits="userSpaceOnUse"><stop offset=".43" stop-color="#00A6EC"/><stop offset=".67" stop-color="#0092D7"/></linearGradient></defs></svg>