<!-- by TradingView --><svg width="18" height="18" viewBox="0 0 18 18" xmlns="http://www.w3.org/2000/svg"><path fill="#F0F3FA" d="M0 0h18v18H0z"/><path d="M5.49 8.75v-.03c0-.92.29-1.44.8-1.44.28 0 .47.13.6.39.12.25.16.5.16 1v.08H5.5Zm2.38 2.28c-.41.44-.85.67-1.31.67-.7 0-1.1-.6-1.1-1.62v-.05h3v-.4c0-1.4-.21-2.3-.69-2.93-.33-.44-.9-.7-1.5-.7-.68 0-1.2.29-1.62.9C4.19 7.55 4 8.35 4 9.54c0 2.1.96 3.46 2.45 3.46.72 0 1.35-.3 1.95-.93l-.53-1.04Z" fill="#ED1C29"/><path d="M9 4.4V13h1.53V4L9 4.4ZM11.84 7l-1.3 2.63 1.5 3.37h1.49l-1.38-3.37L13.53 7h-1.7Z" fill="#024CA3"/></svg>