<!-- by TradingView --><svg width="18" height="18" viewBox="0 0 18 18" xmlns="http://www.w3.org/2000/svg"><path fill="#F0F3FA" d="M0 0h18v18H0z"/><path d="m4.05 8.29-.01-.56c.14-1.1 1.04-2.28 2.5-2.96A3.95 3.95 0 0 1 8 4.37c-.29.29-.73.4-1.06.6a5.45 5.45 0 0 0-2.14 2.5l.58-.12c-.08.36-.16.62-.23.85-.17.56-.28.92-.25 1.99.03.5.29 1.38.66 1.57l.13-.9c.24.27.72 1.9 2.35 2.05l-.4-1.18c.24.07.37.16.5.24.21.14.39.25 1 .23.46-.01.74-.12 1-.23.17-.07.33-.14.53-.17l1.1-.41c0 .03-.02.04-.03.05l-.01.03-.15.14-.4.3c-1.47 1.14-3.08 2.4-4.81.6-.13-.13-.19-.21-.23-.28-.05-.09-.08-.14-.29-.25l-.14.52c-.12-.1-.22-.22-.36-.3-.06-.25-.24-.47-.34-.71a4.22 4.22 0 0 1-.3-2.36c.07-.38.15-.7.24-1.03l.13-.48c-.26.02-.4.12-.6.2.06-.79.98-2.03 1.58-2.5l.26-.2c-.81.4-1.92 1.74-2.08 2.86l.34.15-.06.22c-.23.76-.39 1.3-.2 2.26.15.8.65 1.48 1.17 2.03.16.17.12.12.3.2l.15-.35c.23.08.42.25.6.43.17.14.33.29.52.38 1.07.55 2.02.36 3-.26.29-.18.53-.4.76-.62.29-.28.57-.54.93-.72h.02c.11-.06.23-.12.35-.15.24-.07.26-.07.41-.04l.14.03-.03.49c-.34.81-1.78 1.58-2.71 1.83-1.12.3-2.9.1-3.54-.68-.1-.12-.14-.16-.18-.18-.03-.02-.08-.02-.2-.04l-.02.35c-.39.1-1.4-1.31-1.59-1.68-.48-.95-.43-1.48-.35-2.38l.05-.62.15-.16a.5.5 0 0 1-.04-.1v-.01c-.01.01-.05 0-.16-.07Z" fill="#BB1F20"/><path d="m6.1 10.16.07-.66c.25.27.5 1 1.06 1.57.5.52.98.87 1.77.87l-.22-.13c-.1-.05-.18-.07-.28-.1a4.72 4.72 0 0 1-2.22-2.97c-.45.2-.1.26-.3.14-.14-1.24.39-1.84.8-2.88-1.3.88-1.37 3.9-.68 4.16Z" fill="#BB1F20"/><path d="m11.05 5.86-1.02-.39c0-.02 0-.05-.02-.07-.16-.58-.4-1.38-.95-1.47-.11.22-.12.38-.13.52-.01.12-.02.24-.1.37-.02-.18-.25-1.65-.02-1.78.05-.03.12-.07.22 0 .07.22.1.23.27.43.3.35.51.74.7 1.08.23.44.43.8.72.92.99.41 1 .54 1.01.76.01.15.02.34.3.67l.41.43.24.25c.25.29.32.46.56.77.14.18.28.26.42.34.1.07.21.13.32.24.04.43.02 1.16-.2 1.37-.23.16-.54-.01-.84-.18-.27-.16-.54-.32-.75-.2.07.04.1.1.16.16.06.1.14.2.3.32l-.04.05-.09-.03c-.07-.01-.13-.05-.2-.08a5.6 5.6 0 0 1-.31-.13c-.1.02-.12 0-.13-.02 0 .01 0 .04-.03.1.27.36.54.45 1.04.59a.5.5 0 0 0-.01.08l-.05.05c-.13 0-.22-.02-.31-.04a2.5 2.5 0 0 0-.17-.02c-.15-.15-.23-.15-.3-.15-.08 0-.12 0-.27-.32-.34-.79-1.62-.89-2.07-.8-.16.83 1.35 1.1 2.18 1.25l.24.04c.09.07.29.17.38.2a.14.14 0 0 0-.02.03c-.03.03-.06.06-.3.04h-1.13c-.4.02-1.15.05-1.51-.17-.68-.4-.92-.89-1.1-1.65-.06-.24-.1-.46-.16-.53-.44.44-.34.95-.24 1.48.04.2.07.41.08.61a3.4 3.4 0 0 1-.8-2.2c-.03-1.38.46-2.93 1.9-3.26l-.07-.3.04-.47c.02.58.56 1 1.07 1.05.1.02.78.27.78.06Zm.93 3.55.45-.04c.17.48.68.7 1.21.78.15-.5.01-.96-.5-.98l-.08.32c-.33-.1-.32-.17-.26-.45l.04-.22h.38l.05.04c.09.08.15.12.2.15.1.08.13.1.28.41.06-.08.1 0 .1 0 .02 0 0-.05-.03-.24-.02-.17-.34-.34-.5-.4-.07-.1-.14-.18-.22-.25-.28-.27-.47-.6-.72-.89a3.4 3.4 0 0 0-.13-.13c-.25-.26-.7-.73-.65-1.02l-.26-.04-.13.27-.18-.06c-.38-.04-.42-.04-.4.4.04.07.92 1.12 1.04 1.22 0 .1.03.12-.07.12a12.88 12.88 0 0 0-1.51-1.47c-.7-.54-1.12-.3-1.73.01-.1 1.62 1.15 2.05 2.2 2.42.5.17.95.33 1.19.6l.23-.55Z" fill="#BB1F20"/><path d="M10.27 4.04c-.3.07-.14-.04-.27.17.16.13-.04.05.28.08.65.17-.17.63.97 1.1.53.24.84.5 1.08 1.02-.03-.87-.94-1.1-1.14-1.67.12-.2.2-.18.33-.3 0-.02-.03-.06-.03-.05 0 0-.17-.24-.45-.33-.3-.1-.47-.05-.77-.02Z" fill="#BB1F20"/></svg>