<!-- by TradingView --><svg width="18" height="18" viewBox="0 0 18 18" xmlns="http://www.w3.org/2000/svg"><path fill="#F0F3FA" d="M0 0h18v18H0z"/><path d="M10.23 10.84c-2.09 1.96-4.32 2.73-4.99 1.71-.67-1.02.49-3.43 2.58-5.39 2.09-1.96 4.32-2.73 5-1.71.66 1.02-.5 3.43-2.59 5.39Z" fill="#969697"/><path d="M10 10.53c-2.04 1.92-4.18 2.73-4.79 1.8-.6-.92.56-3.23 2.6-5.15 2.04-1.91 4.18-2.72 4.78-1.8.6.93-.56 3.23-2.6 5.15Z" fill="#C9CACC"/><path d="M9.55 10.73c-1.84 1.77-3.78 2.49-4.34 1.6-.57-.87.47-3.01 2.3-4.78 1.84-1.76 3.78-2.48 4.34-1.6.57.88-.47 3.02-2.3 4.78Z" fill="#F0F3FA"/><path d="M8.3 7c-.17 0-.3.19-.3.42V8h.95c.58 0 1.05.29 1.05.65 0 .23-.2.43-.49.54L10 10h-.54l-.43-.71H8.4V10H8v.58c0 .23.13.42.3.42h1.4c.17 0 .3-.19.3-.42V7.42c0-.23-.13-.42-.3-.42H8.3Zm.1 1.29V9H9c.35 0 .6-.13.6-.35 0-.23-.25-.36-.6-.36h-.6Z" fill="url(#ate2frvhs)"/><path d="M3 8.5h1v1H3v-1ZM5 8.5h1v1H5v-1ZM7 8.5h1v1H7v-1ZM10 8.5h1v1h-1v-1ZM12 8.5h1v1h-1v-1ZM14 8.5h1v1h-1v-1Z" fill="#72BE74"/><defs><linearGradient id="ate2frvhs" x1="10.32" y1="8.69" x2="7.97" y2="8.69" gradientUnits="userSpaceOnUse"><stop offset=".15" stop-color="#058047"/><stop offset=".49" stop-color="#72BE74"/><stop offset=".82" stop-color="#008045"/></linearGradient></defs></svg>