<!-- by TradingView --><svg xmlns="http://www.w3.org/2000/svg" width="18" height="18"><path fill="#F0F3FA" d="M0 0h18v18H0z"/><path d="M6.65 12.99c.34-1.33 1.95-1.78 2.7-1.84A2.42 2.42 0 007.84 13c-.08.44-.31 1.01-.81 1.01s-.45-.71-.38-1.01z" fill="#00C8FF"/><path d="M11.42 13.14c-1-.96-.6-2.54-.28-3.2a2.38 2.38 0 00.87 2.2c.36.27.74.76.5 1.18-.26.43-.86.02-1.1-.18z" fill="#008CFF"/><path d="M4.35 9.23c1.25-.34 2.35.7 2.75 1.26a2.33 2.33 0 00-2.2-.33c-.4.14-.98.22-1.2-.17-.24-.39.37-.68.65-.76z" fill="#42A6FE"/><path d="M4.91 7.64c.04 1.01 1.15 1.6 1.7 1.75a1.77 1.77 0 01-.82-1.56c.01-.33-.07-.78-.43-.86-.37-.08-.45.45-.45.67z" fill="#594CBE"/><path d="M8.41 4.95c-.84.59-.73 1.8-.56 2.34 0-.86.6-1.37.88-1.53.3-.16.63-.48.5-.82-.14-.35-.63-.12-.82.01z" fill="#72006E"/><path d="M12.23 6.45c-.94-.42-1.97.27-2.37.68a1.87 1.87 0 011.8 0c.3.16.74.3.98.01.24-.28-.2-.58-.41-.69z" fill="#000096"/><path d="M12.92 10.55c-.12-1.06-1.28-1.57-1.84-1.7.77.45.95 1.24.94 1.58.01.35.13.82.5.87.38.05.42-.51.4-.75z" fill="#0061E4"/><path d="M9.92 13.2c.84-.7.61-1.92.4-2.44.06.87-.5 1.46-.8 1.65-.3.2-.62.56-.45.89.17.33.66.04.85-.1z" fill="#00ADFF"/><path d="M5.74 11.69c1 .42 2.02-.32 2.4-.75-.76.45-1.56.22-1.86.04-.32-.16-.8-.29-1.02.01-.23.3.25.6.48.7z" fill="#2AE2FF"/><path d="M6.8 5.22c.92 1 .43 2.5.07 3.13a2.33 2.33 0 00-.72-2.2c-.33-.3-.68-.8-.4-1.18.26-.4.83.04 1.04.25z" fill="#6B0197"/><path d="M11.37 5.02c-.34 1.3-1.9 1.72-2.63 1.77a2.37 2.37 0 001.48-1.78c.08-.44.31-1 .8-.99.48 0 .42.7.35 1z" fill="#000076"/><path d="M13.6 9c-1.33.36-2.5-.73-2.91-1.32.9.68 1.93.51 2.33.34.42-.15 1.03-.24 1.28.17.24.41-.41.72-.7.8z" fill="#0031BF"/></svg>