<!-- by TradingView --><svg width="18" height="18" viewBox="0 0 18 18" xmlns="http://www.w3.org/2000/svg"><path fill="#F0F3FA" d="M0 0h18v18H0z"/><path d="M9.69 8.68a8.61 8.61 0 0 1-2.52-.2 1.23 1.23 0 0 1-.92-.96 1.87 1.87 0 0 1 .26-1.35 4.61 4.61 0 0 1 2.73-1.85 8.13 8.13 0 0 1 3.33-.26c.28.03.42.2.43.47v.82a.3.3 0 0 1-.2.29c-.66.3-1.24.6-1.75.94-.15.1-.17.07-.06-.07.17-.24.4-.45.67-.62.14-.1.13-.16-.04-.2a4.13 4.13 0 0 0-2.21.23c-.75.25-1.41.61-2 1.08-.12.1-.2.23-.25.38a.28.28 0 0 0 .02.22c.03.08.09.12.17.15.4.12.8.19 1.23.2.79.02 1.6.03 2.44.03.2 0 .4.04.58.12.07.03.1.08.08.16-.03.24-.13.45-.3.63a.98.98 0 0 1-.6.32 7.22 7.22 0 0 0-4.18 1.86c-.2.2-.35.44-.43.72a.3.3 0 0 0 .02.24c.14.28.38.44.72.48.9.11 1.81-.02 2.73-.4.82-.35 1.61-.87 2.37-1.58a.05.05 0 0 1 .06 0c.02 0 .03.01.03.04a2.52 2.52 0 0 1-1.43 2.46c-.92.5-1.96.82-3.12.94-.62.07-1.17 0-1.63-.2a1.42 1.42 0 0 1-.91-1.24c-.08-.87.38-1.66 1.37-2.35a8.18 8.18 0 0 1 2.6-1.14l.69-.16a.16.16 0 0 0 .1-.07l.01-.04c0-.06-.04-.09-.1-.09Z" fill="#F79633"/></svg>