<!-- by TradingView --><svg width="18" height="18" viewBox="0 0 18 18" xmlns="http://www.w3.org/2000/svg"><path fill="#F0F3FA" d="M0 0h18v18H0z"/><path d="M10.19 14H8.44A4.86 4.86 0 0 1 4.5 9.97V8.2c1.4-6.4 9.46-5.17 8.98 1.56-.01.14-.09.24-.22.24h-5.9c-.16 0-.22.04-.18.2.54 2.1 2.97 1.9 4.25.69.09-.09.17-.08.26 0l1.27 1.32.03.06c0 .02 0 .04-.02.05A5.14 5.14 0 0 1 10.19 14ZM7.24 8.45h3.53c.03 0 .05-.01.06-.03a.09.09 0 0 0 .03-.06V8.3c0-.96-.82-2.08-1.83-2.08h-.06c-1.01 0-1.82 1.1-1.82 2.1v.05l.03.06.06.02Z" fill="#00B2EF"/></svg>