<!-- by TradingView --><svg width="18" height="18" viewBox="0 0 18 18" xmlns="http://www.w3.org/2000/svg"><path fill="#F0F3FA" d="M0 0h18v18H0z"/><path d="M9 3a62.64 62.64 0 0 0 .66.01.1.1 0 0 1 .03.03l.02.04v.05l-.13.53v.05c0 .02.02.04.03.05a.1.1 0 0 0 .04.03.1.1 0 0 0 .06 0l.5-.14c.1-.03.15.01.15.13v1.35l-.04.04a.1.1 0 0 1-.1.02l-.52-.15h-.05a.09.09 0 0 0-.04.03.1.1 0 0 0-.02.1l.15.6a.06.06 0 0 1-.01.05l-.01.02H9.7c-.14.04-.2.11-.2.22-.01.05.01.07.06.07.28-.05.47-.1.56-.17.31-.23.53-.37.64-.4.73-.22 1.31-.01 1.75.62.02.03.05.05.1.04.96-.11 1.67.24 2.13 1.04.55.97.17 1.92-.56 2.58A105.79 105.79 0 0 1 13 10.88v.06c.09.35-.01.62-.29.79-.04.02-.05.06-.04.1.05.23.02.43-.09.62-.02.04-.02.07.01.1.44.5.3.87-.27 1.04-.76.23-1.55.36-2.36.4a24.21 24.21 0 0 1-1.94 0c-.8-.04-1.6-.17-2.37-.4-.56-.17-.7-.53-.26-1.03.03-.04.03-.07 0-.11a.84.84 0 0 1-.08-.62c.01-.04 0-.08-.04-.1-.28-.18-.38-.44-.3-.8v-.06a96.54 96.54 0 0 1-1.16-1.04c-.73-.65-1.11-1.6-.56-2.57.46-.8 1.17-1.15 2.14-1.04a.1.1 0 0 0 .1-.04c.43-.63 1.01-.84 1.74-.62.11.03.33.17.64.4.1.06.28.12.56.17.05 0 .07-.02.07-.07 0-.1-.07-.18-.2-.21l-.03-.01v-.02a.06.06 0 0 1-.02-.04l.15-.62a.1.1 0 0 0-.02-.1.09.09 0 0 0-.04-.02H8.3l-.52.15a.1.1 0 0 1-.1-.02.12.12 0 0 1-.03-.04.13.13 0 0 1-.01-.05v-1.3c0-.12.05-.16.16-.13l.5.14a.1.1 0 0 0 .05 0 .1.1 0 0 0 .04-.03.11.11 0 0 0 .03-.05v-.05l-.13-.53a.12.12 0 0 1 .02-.09.1.1 0 0 1 .03-.03L8.38 3H9Zm0 .26h.28c.05.01.08.03.1.05a.1.1 0 0 1 .01.06v.02l.02.02a.04.04 0 0 0 .05 0 .18.18 0 0 0 .06-.19c-.01-.04-.04-.06-.08-.06a14.71 14.71 0 0 0-.87.01c-.04 0-.07.02-.08.06-.01.07 0 .13.07.18l.02.01h.02l.01-.02.01-.02.01-.06c.02-.03.05-.04.1-.05H9Zm1.1 1.15v.31c0 .06-.02.1-.04.1a.08.08 0 0 1-.05.02h-.02l-.02.03a.05.05 0 0 0 0 .04c.05.07.1.1.17.07.04 0 .05-.04.06-.09a21.86 21.86 0 0 0 0-.96c-.01-.05-.03-.08-.06-.08-.07-.02-.12 0-.17.07v.04l.01.02H10l.06.02c.02.02.03.05.04.1v.31Zm-2.2 0v-.3c0-.05.02-.08.04-.1A.08.08 0 0 1 8 4l.02-.01.01-.02a.05.05 0 0 0 0-.04c-.05-.07-.1-.09-.17-.07-.03 0-.05.03-.05.08a16.28 16.28 0 0 0 0 .95c0 .05.01.08.05.08.06.02.12 0 .16-.06l.01-.02v-.03L8 4.84H8c-.02 0-.04 0-.05-.02-.02-.01-.04-.05-.04-.1v-.3ZM9 5.58h-.27c-.05-.01-.08-.03-.1-.05a.1.1 0 0 1 0-.06l-.01-.02-.02-.02a.04.04 0 0 0-.04 0 .17.17 0 0 0-.07.19c.01.03.04.05.08.06a17.6 17.6 0 0 0 .86 0c.05 0 .08-.02.08-.06a.18.18 0 0 0-.06-.18l-.02-.01h-.02l-.02.02v.02a.1.1 0 0 1-.02.06c-.01.03-.04.04-.09.05H9ZM5.38 8.75h.38c.05 0 .06-.02.03-.06-.23-.4-.39-.82-.47-1.27 0-.05-.03-.07-.07-.06-.63.06-.9.88-.63 1.43.11.23.39.38.58.15l.1-.13a.1.1 0 0 1 .08-.06Zm7.24 0a.1.1 0 0 1 .09.06l.1.13c.18.23.46.08.57-.16.27-.55 0-1.36-.62-1.42-.05 0-.07.01-.08.06-.08.45-.24.88-.47 1.27-.03.04-.02.06.03.06h.38Zm-2.45-.11c.28.21.46.31.69-.04a2 2 0 0 0 .28-.82l-.01-.02-.03-.02h-.02c-.36.1-.73.1-1.1.04-.05 0-.07.01-.08.06l-.1.78c0 .04.02.06.06.05l.19-.06c.04 0 .08 0 .12.03Zm-2.33 0a.13.13 0 0 1 .12-.03l.18.06c.04 0 .06 0 .06-.05l-.1-.78c0-.04-.03-.06-.07-.06a2.65 2.65 0 0 1-1.13-.03l-.02.01-.02.03v.03c.05.3.14.57.29.78.22.35.4.25.69.04ZM9 10.59c.27 0 .57-.05.9-.16a.15.15 0 0 1 .12 0c.44.2.9.27 1.36.19.04 0 .08 0 .11.03.27.2.56.27.87.21l.03-.01.03-.03c.02-.05.02-.09 0-.12-.02-.02-.06-.04-.11-.04-.24-.02-.58-.02-.73-.26-.03-.03-.06-.05-.1-.04-.54.14-1.03.07-1.49-.2a.09.09 0 0 0-.1 0c-.27.18-.56.2-.89.2-.32 0-.61-.02-.89-.2a.09.09 0 0 0-.1 0c-.45.27-.95.34-1.48.2-.04 0-.07 0-.1.04-.16.24-.49.24-.73.26-.05 0-.09.02-.1.04-.03.04-.03.08-.01.12l.02.03.04.02c.3.05.6-.02.87-.22a.14.14 0 0 1 .1-.03c.47.08.93.02 1.37-.18a.15.15 0 0 1 .11-.01c.34.1.64.16.9.16Zm0 .36a12.63 12.63 0 0 1 3.5.46l.02-.01.02-.03v-.03c0-.03-.02-.05-.05-.07a8.2 8.2 0 0 0-1.93-.4 15.94 15.94 0 0 0-3.12 0c-.74.08-1.38.21-1.93.4-.03.02-.05.04-.05.07v.03l.02.03a.06.06 0 0 0 .06.01c1.08-.3 2.24-.46 3.46-.46Zm0 1.63a9.68 9.68 0 0 1 3.35.52l.03-.01.02-.03V12.97l-.02-.01a7.88 7.88 0 0 0-2.11-.49c-.61-.05-1.04-.08-1.27-.08-.23 0-.65.03-1.26.08A7.92 7.92 0 0 0 5.6 13v.07l.02.03h.06A9.71 9.71 0 0 1 9 12.6Zm-2.83.66v.01l.01.01c.91.27 1.83.4 2.77.39h.11a8.92 8.92 0 0 0 2.78-.41l-.02-.01c-.9-.28-1.83-.4-2.76-.39h-.11a8.94 8.94 0 0 0-2.78.4Z" fill="#D7B072"/></svg>