<!-- by TradingView --><svg width="18" height="18" viewBox="0 0 18 18" xmlns="http://www.w3.org/2000/svg"><path fill="url(#akgsoynbj)" d="M0 0h18v18H0z"/><path d="M9.46 5.1c1.25-.15 2.53-.13 3.78.03.08 0 .17.02.24.05.04.02.07.05.08.1.01.06 0 .13-.02.2-.05.17-.1.33-.17.48-.03.06-.07.13-.14.16-.1.03-.2 0-.3-.01a14.12 14.12 0 0 0-2.38-.08L8.33 12.1c-.04.09-.06.18-.13.25a.3.3 0 0 1-.2.08h-.85c-.06 0-.13-.02-.17-.06-.04-.05-.03-.12-.01-.17l2.22-6.04c-.2.01-.4.05-.6.08a13.22 13.22 0 0 0-1.57.42c-.06.01-.13.03-.19 0-.05-.04-.06-.1-.06-.16a3.79 3.79 0 0 1-.01-.5c0-.08 0-.16.06-.23a.29.29 0 0 1 .14-.1c.8-.26 1.65-.45 2.5-.55Z" fill="#fff"/><path d="M11.42 6.75c.09-.05.2-.05.29-.04.19 0 .38.02.56.03.08.01.17.03.21.1.05.05.03.12 0 .18l-.87 2.4a4.19 4.19 0 0 1 1.29-.76c.21-.08.44-.12.67-.11.17 0 .34.04.48.12.12.07.23.18.3.3.09.16.13.34.14.51.02.17 0 .35-.02.52a3.77 3.77 0 0 1-1.34 2.3 3.2 3.2 0 0 1-1.86.7c-.33.01-.68-.02-1-.13a1.23 1.23 0 0 1-.48-.32.99.99 0 0 1-.25-.65c0-.17.03-.35.1-.51l1.64-4.46a.31.31 0 0 1 .14-.18Zm1.29 2.8c-.12.02-.23.06-.34.11-.25.12-.46.3-.65.48-.35.36-.63.77-.82 1.22-.04.1-.1.22-.1.34 0 .1.02.2.1.29.08.1.21.15.35.15.17 0 .34-.03.5-.1.17-.06.32-.16.45-.28.2-.19.36-.4.49-.64.14-.26.26-.54.33-.83.04-.15.07-.3.07-.46 0-.09-.02-.18-.1-.24-.08-.05-.19-.04-.28-.03ZM5.15 7.28c.33-.1.69-.14 1.04-.12.3.03.6.12.82.32a1 1 0 0 1 .3.55 1.32 1.32 0 0 1-.4 1.23 2.76 2.76 0 0 1-.85.5 4.13 4.13 0 0 1-1.8.19.89.89 0 0 0 .04.54c.06.13.16.24.29.32.16.09.35.12.53.12a3.03 3.03 0 0 0 1.33-.32.28.28 0 0 1 .13-.05c.04 0 .08.02.1.05.02.05 0 .1-.01.16-.05.15-.1.3-.17.45a.45.45 0 0 1-.14.21c-.26.17-.56.3-.87.36-.26.06-.52.08-.79.08-.34 0-.69-.05-.98-.21a1.27 1.27 0 0 1-.53-.55 2.1 2.1 0 0 1-.19-.97 3.3 3.3 0 0 1 1.27-2.41c.26-.2.56-.35.88-.45Zm.43.66a.97.97 0 0 0-.4.21 2.43 2.43 0 0 0-.7 1.04 2.38 2.38 0 0 0 1.15-.18.93.93 0 0 0 .37-.27c.1-.13.13-.28.12-.43a.41.41 0 0 0-.2-.33.5.5 0 0 0-.34-.04Z" fill="#fff"/><defs><linearGradient id="akgsoynbj" x1="9" y1="0" x2="9" y2="18" gradientUnits="userSpaceOnUse"><stop stop-color="#1D62A6"/><stop offset="1" stop-color="#0180C5"/></linearGradient></defs></svg>