<!-- by TradingView --><svg width="18" height="18" viewBox="0 0 18 18" xmlns="http://www.w3.org/2000/svg"><path fill="#F0F3FA" d="M0 0h18v18H0z"/><path d="M5.8 9A4.36 4.36 0 0 0 2 11c.54-.17 1.84-.5 2.7-.5 1.1 0 5.42 2.5 7.05 2.5 1.3 0 1.99-.33 2.17-.5C12.12 11.33 7.96 9 5.79 9Z" fill="#61AE46"/><path d="M7.96 7.5c-1.3 0-2.71.67-3.25 1 2.7-.5 6.5 2 8.12 2 1.3 0 1.63-.33 1.63-.5-1.63-.83-5.2-2.5-6.5-2.5Z" fill="#0F5BA7"/><path d="M10.67 6c-1.3 0-2.71.67-3.25 1 3.79-.5 4.33 1 5.96 1 1.3 0 1.62-.33 1.62-.5C14.1 7 11.97 6 10.67 6Z" fill="#9EA6B3"/></svg>