<!-- by TradingView --><svg width="18" height="18" viewBox="0 0 18 18" xmlns="http://www.w3.org/2000/svg"><path fill="#004451" d="M0 0h18v18H0z"/><path d="M3.6 8.72V7.56h2.31L6 7H3.26a.27.27 0 0 0-.26.27v3.46c0 .15.12.27.26.27h2.11l.1-.55H3.6V9.27h2.04l.02-.1.07-.45H3.6ZM15.5 7l-1.1 3.32a.8.8 0 0 1-.03.06v.04l-.18.41a.28.28 0 0 1-.26.17h-.75a.28.28 0 0 1-.27-.18l-.14-.4a1.2 1.2 0 0 1-.03-.1L11.64 7h.64l1.04 3.17c.05.14.12.21.25.21.12 0 .2-.07.24-.2L14.84 7h.66Zm-3.9 4h-.65l-.46-3.27c-.02-.09-.04-.14-.1-.14-.07 0-.1.04-.12.12l-.87 2.8c-.07.24-.27.36-.5.36-.23 0-.44-.12-.51-.34L7.53 7.7c-.03-.08-.06-.11-.11-.11-.06 0-.1.04-.12.13L6.78 11h-.65l.58-3.42.01-.06.05-.3A.28.28 0 0 1 7.05 7h.63c.13 0 .24.08.28.2l.07.24.04.14.77 2.6c.01.05.02.07.06.07.03 0 .04-.02.06-.07l.8-2.72v-.02l.08-.25c.03-.11.14-.19.27-.19h.63c.14 0 .26.1.28.23l.04.31v.04l.54 3.41Z" fill="#F3F9F9"/></svg>