<!-- by TradingView --><svg width="18" height="18" viewBox="0 0 18 18" xmlns="http://www.w3.org/2000/svg"><path fill="#0B53A7" d="M0 0h18v18H0z"/><path d="M9.8 4v1.4c.3-.02.6 0 .88.1 1.22.4 1.67 1.8 1.02 3.11-.07.15-.15.3-.25.42a2.4 2.4 0 0 1-.07 2.19A3.16 3.16 0 0 1 8.78 13v1H12l2-10H9.8Zm-.3 0v1.44c-.9.18-1.75.82-2.2 1.73a2.44 2.44 0 0 0-.08 2.19c-.09.13-.17.27-.24.42-.66 1.32-.2 2.72 1.02 3.11.16.05.31.09.48.1V14H4L6 4h3.5Zm1.55 5.01c-.68.84-1.77 1.24-2.63.96a1.6 1.6 0 0 1-.8-.6c.69-.83 1.78-1.23 2.64-.95.33.11.6.32.8.6Zm.2-.28c-.21-.28-.52-.5-.9-.62-.97-.32-2.13.1-2.9.95-.19-.49-.17-1.1.14-1.74.6-1.2 1.96-1.84 2.98-1.5.98.32 1.42 1.46.83 2.65l-.14.26Zm-.03.6c-.76.86-1.92 1.28-2.9.96a1.87 1.87 0 0 1-.9-.62l-.15.26c-.58 1.19-.14 2.33.83 2.65 1.03.33 2.4-.3 2.98-1.5.32-.64.34-1.26.14-1.75Z" fill="#F8FCFF"/></svg>