<!-- by TradingView --><svg width="18" height="18" viewBox="0 0 18 18" xmlns="http://www.w3.org/2000/svg"><path fill="#F0F3FA" d="M0 0h18v18H0z"/><path d="M10.41 5.64a2.12 2.12 0 0 0-1.06-.35v7.42c1.42 0 2.48-1.12 2.83-1.71h-1.77V5.64ZM6.53 8.3H5.46c.15-2.13 2.18-2.9 3.19-3.01v1.24c-1.28.14-1.95 1.23-2.12 1.76ZM6.53 9.53H5.29c.28 2.26 2.35 3.06 3.36 3.18v-1.24c-1.28 0-1.95-1.3-2.12-1.94Z" fill="#E70000"/><path d="M3 8.65A6.01 6.01 0 0 1 8.65 3v.35a5.66 5.66 0 0 0-5.3 5.3H3Zm1.06 0a4.95 4.95 0 0 1 4.59-4.59v1.42A3.54 3.54 0 0 0 5.54 8.3h2.05v1.42H5.54a3.54 3.54 0 0 0 3.1 2.8V13.95a4.95 4.95 0 0 1-4.58-4.59h.36a4.6 4.6 0 0 0 3.87 4.2v-.73a3.9 3.9 0 0 1-3.16-3.47h2.1v-.7h-2.1a3.9 3.9 0 0 1 3.16-3.47v-.72a4.6 4.6 0 0 0-3.87 4.19h-.36Zm5.3-4.59V5.5c1.66.16 3 1.49 3.16 3.16h.35a3.9 3.9 0 0 0-3.16-3.47v-.72a4.6 4.6 0 0 1 3.87 4.19h.36a4.95 4.95 0 0 0-4.59-4.59Zm0 8.46c1.66-.17 3-1.5 3.16-3.17h.35a3.9 3.9 0 0 1-3.16 3.47v.72a4.6 4.6 0 0 0 3.87-4.19h.36a4.95 4.95 0 0 1-4.59 4.59V12.5Zm0 2.13a5.66 5.66 0 0 0 5.29-5.3H15A6.01 6.01 0 0 1 9.35 15v-.35ZM9.35 3A6.01 6.01 0 0 1 15 8.65h-.35a5.66 5.66 0 0 0-5.3-5.3V3Zm-.71 11.65V15A6.01 6.01 0 0 1 3 9.35h.35a5.66 5.66 0 0 0 5.3 5.3Z" fill="#040404"/></svg>