<!-- by TradingView --><svg width="18" height="18" viewBox="0 0 18 18" xmlns="http://www.w3.org/2000/svg"><path fill="#F0F3FA" d="M0 0h18v18H0z"/><path fill-rule="evenodd" d="M13.7 8.65H4.28c-.18 0-.31-.14-.29-.31C4.18 7.23 5.17 4 8.96 4c3.38 0 4.71 2.67 5.03 4.3a.3.3 0 0 1-.3.35ZM13.37 8H4.62c0-.41.99-3.34 4.44-3.34 2.76 0 4 2.14 4.31 3.34ZM4 9.73C4.25 11.37 5.87 14 8.92 14c1.56 0 4.51-.79 5.08-4.27a.25.25 0 0 0-.25-.28c-.12 0-.23.1-.25.21a4.6 4.6 0 0 1-4.58 3.8c-2.87 0-4.08-2.4-4.39-3.78a.28.28 0 0 0-.27-.23.25.25 0 0 0-.26.28Z" fill="#FF1313"/></svg>