<!-- by TradingView --><svg xmlns="http://www.w3.org/2000/svg" width="18" height="18"><path fill="#0AF" d="M0 0h18v18H0z"/><path d="M12.66 11.88c-2.92.63-6.27-.04-6.27-2.11 0-1.56 1.45-2.2 2.6-2.29 1.2-.1 2.13.16 2.61.66.3.3.35.86-.35.86H8.83c-.48.02-.88.15-.88.5 0 .27.33.5.88.5h3.82c.66 0 .99-.37.99-1.13 0-1.2-1.1-2.8-4.3-2.8-2.9 0-4.99 1.45-4.99 3.8 0 3.36 4.93 4.38 8.54 3.14.34-.12.65-.37.55-.75-.09-.34-.36-.47-.78-.38zM14 5.5c-1.34-1.25-3.09-2-5-2s-3.66.75-5 2c1.33-.62 2.89-1 5-1s3.67.38 5 1z" fill="#fff"/></svg>