<!-- by TradingView --><svg width="18" height="18" viewBox="0 0 18 18" xmlns="http://www.w3.org/2000/svg"><path fill="#F0F3FA" d="M0 0h18v18H0z"/><path fill-rule="evenodd" d="m8.14 4 1.42.82L10.87 7v4.3h.37l.65-.61 1.39.64L14 13H5.54L4 12.06l3.45-6.64.7-1.42Zm-.7 2.1-3 5.78h3v-.57H5.18l.77-1.4h1.49v-.57h-1l.58-1.4h.42V6.1Zm0 2.12h-.2l-.35.84h.55v-.84Zm0 1.97h-1.3l-.46.82h1.76v-.82Zm.25 1.97H4.7l.92.56H8.3l-.61-.56Zm1.05.56h4.47l-1.03-.56H8.12l.62.56Zm3.62-.8 1.1.6-.43-.98-.88-.4.21.78Zm-.52-.77.19.72H8.69V5.58l.62 1.35v4.66h2.05l.48-.44ZM9.63 7.06v4.25h.93V7.17l-.94-.1Zm.78-.2-.85-.09-.45-.97.85.3.45.77Zm-.67-1.15-.4-.7-.8-.45.4.88.8.27ZM8.16 4.66l-.33.75h.5l-.17-.75Zm.21 1.03h-.62v6.18h.63V5.7Z" fill="#06A1DE"/></svg>