<!-- by TradingView --><svg width="18" height="18" viewBox="0 0 18 18" fill="none" xmlns="http://www.w3.org/2000/svg">
<rect width="18" height="18" fill="#D2232A"/>
<path fill-rule="evenodd" clip-rule="evenodd" d="M5.00033 13L6.00033 12.117C5.9866 11.0409 4.02267 11.2282 3.52737 10.4178C3.41478 10.2456 3.32342 10.0503 3.26426 9.85397C3.26426 9.85397 3.22646 9.73591 3.22349 9.67074C3.22041 9.61115 3.21578 9.41961 3.30621 9.4929C3.92142 9.99153 4.33277 9.64393 3.1523 8.62898C3.07694 8.46183 3.02169 8.26876 3.00903 8.08597C3.00903 8.08597 2.998 8.09113 3.00037 7.92182C3.00037 7.92182 3.00351 7.71205 3.07756 7.64411C3.07756 7.64411 3.09537 7.62042 3.12731 7.61851C3.14932 7.61719 3.17805 7.6262 3.21228 7.66044C3.92142 8.00624 4.04442 7.82611 3.38759 6.65279C3.38759 6.65279 3.38207 6.46946 3.38207 6.19026C3.38207 6.19026 3.39429 5.93445 3.44903 5.83011C3.44903 5.83011 3.48003 5.74975 3.53771 5.74412C3.55696 5.74224 3.57919 5.74868 3.60422 5.76921C3.60422 5.76921 3.65542 5.80746 3.71688 5.94372C3.99447 6.50704 4.29115 6.9721 4.78916 7.35081L5.12592 7.58418C5.48525 7.81019 5.94876 8.00914 6.29903 8.24722C6.55437 8.41259 6.81071 8.51711 7.00033 8.75774C7.40937 9.40906 7.22569 8.34788 7.2706 7.60561C7.31905 6.80486 7.77292 6.00442 8.55494 5.72085C8.95121 5.54071 9.46615 5.59706 9.63141 5.44127C9.65959 5.40355 9.65922 5.3401 9.70151 5.29574C9.73389 5.25383 10.0003 4.99998 10.1708 5C10.2287 5.07044 10.2435 5.1621 10.2449 5.24968C10.2487 5.34717 10.2258 5.49768 10.1635 5.5792C10.3858 5.78321 10.6955 5.95614 11.0003 6C11.0003 6 11.1146 6.17264 11.1512 6.39597C11.1512 6.39597 11.259 6.79606 11.9102 6.94795C11.978 6.96372 11.9998 7.11888 12.0003 7.26177C12.0007 7.36722 11.9895 7.46598 11.9766 7.49712C11.9766 7.49712 11.8966 7.72331 11.6387 7.82611C11.6363 7.82707 11.3074 7.36684 11.0177 7.24363C11.0177 7.24363 11.2539 7.49154 11.4347 7.94822C11.4431 7.96915 11.0003 8 11.0003 8C11.0023 7.95517 11.0003 7.61861 11.0003 7.61861C10.6281 7.46121 10.5408 7.74173 10.2063 7.67548C10.2063 7.67548 10.0765 7.65152 10.0003 7.62126C10.0003 7.62126 10.0372 7.88711 10.0813 8.00889C10.258 8.65123 10.6716 9.24785 11.266 9.58802C11.4937 9.68596 11.7249 10.2262 11.8149 10.4374C11.8149 10.4374 11.825 10.4402 11.8425 10.4318C12.3458 10.2787 12.7912 10.0454 13.2247 9.75469C13.3156 9.68698 13.3484 9.63657 13.4642 9.64393C13.7793 9.63334 13.946 9.79495 14.0042 10.0904L14.9247 11.2264C15.0199 11.3703 14.9995 11.7065 14.9964 11.8728C14.9933 12.0095 14.9964 12.117 14.9964 12.2864C14.2698 12.2188 14.4416 10.7789 13.4642 10.2427C13.2191 10.3704 13.0684 10.5583 12.8736 10.752C12.8882 10.7749 13.0906 10.695 13.1274 10.6882C13.1435 10.6891 13.1613 10.7001 13.1735 10.7097C13.3773 10.8109 13.4584 11.0101 13.4584 11.2189C13.4678 11.4107 13.3315 11.5797 13.2574 11.7378C13.0898 12.1362 13.0338 12.5695 12.8734 12.9644C12.8734 12.9644 12.8161 13.1106 12.7907 13.1522C12.7907 13.1522 12.7218 13.2722 12.6776 13.3165C12.4071 13.6274 12.0017 13.8183 11.6339 13.9911L11.6265 13.9915L11.6221 13.9874C11.6221 13.9874 11.5333 13.7959 11.5358 13.5454C11.5371 13.4205 12.1986 12.5326 12.2322 12.4783C12.3824 12.2525 12.5072 11.9825 12.6069 11.7174C12.6069 11.7174 12.6853 11.5483 12.6894 11.3673C12.6894 11.3673 12.552 11.374 12.2512 11.4564C11.7352 11.6069 11.3142 12.0533 10.7668 12.117L10.0003 13C10.0003 13 5.81837 13 5.00033 13Z" fill="#F0F3FA"/>
</svg>
