<!-- by TradingView --><svg width="18" height="18" viewBox="0 0 18 18" xmlns="http://www.w3.org/2000/svg"><path fill="#F0F3FA" d="M0 0h18v18H0z"/><path opacity=".7" d="M16 8.5H2V9h14v-.5Zm-5 1H7v.5h4v-.5Z" fill="#21A5CB"/><path d="m4.9 7.16-.52-.19-.4.86.5.17h1.69a3 3 0 0 1 5.66 0h1.56l.58-.21L13.7 7l-.57.2a4.5 4.5 0 0 0-.65-1.06l.49-.57-1.42-1.03-.42.49A4.47 4.47 0 0 0 10 4.6V4H8v.61c-.45.1-.87.27-1.26.5l-.47-.56-1.43 1.03.59.68c-.21.28-.4.58-.54.9ZM13.38 10h-1.56a3 3 0 0 1-5.66 0H4.61l.03.12-.6.21.32.89.6-.22c.14.26.3.5.47.74l-.59.68 1.43 1.03.47-.56c.39.23.81.4 1.26.5V14h2v-.61c.4-.1.78-.24 1.13-.43l.42.49 1.42-1.03-.49-.57c.22-.27.41-.57.57-.89l.58.2.37-.74-.66-.23.05-.19Z" fill="#00146A"/></svg>