<!-- by TradingView --><svg width="18" height="18" viewBox="0 0 18 18" xmlns="http://www.w3.org/2000/svg"><path fill="#0B2C4F" d="M0 0h18v18H0z"/><path d="M4.47 9.08A2.1 2.1 0 0 0 4 10.6c.22-.34.66-.57.85-.6h4.8c1.36 0 2.1-1.3 2.29-2H6.49a3 3 0 0 0-2.02 1.08Z" fill="#5FAF43"/><path d="M10.13 12c1.14 0 1.39 1.31 1.37 2H7.49c-1.83 0-2.62-1.6-2.8-2.4.26.27.76.4.98.4h4.46Z" fill="#FEFEFE"/><path d="M9.82 4H14c-.42 1.62-1.53 1.95-2.03 2H7.19c-.85 0-1.31.37-1.44.47 1.26-2.14 3.24-2.54 4.07-2.46Z" fill="#3CC4EA"/></svg>