<!-- by TradingView --><svg width="18" height="18" viewBox="0 0 18 18" xmlns="http://www.w3.org/2000/svg"><path fill="#F0F3FA" d="M0 0h18v18H0z"/><path d="M9 6a9.56 9.56 0 0 0-7 2.97c.9 1 3.55 3.03 7 3.03 3.43 0 6.1-2.02 7-3.03A9.62 9.62 0 0 0 9 6Z" fill="#00A551"/><path fill-rule="evenodd" d="M5 11V7h3.14v.8H5.86v.8h2.2l-.45.8H5.86v.8h2.28v.8H5Zm3.43-4v4h.86V9.4H11V11h.86v-.88c0-.4-.27-.72-.6-.72.32 0 .57-.26.57-.62V7.65c0-.36-.25-.65-.57-.65H8.43Zm2.25.8h-1.4v.8h1.4c.17 0 .32-.18.32-.4 0-.22-.15-.4-.32-.4ZM13 7h-.86v4H13V7Z" fill="#F0F3FA"/><path d="M8.03 9.37H7.5l.4-.75h.52l-.4.75ZM11.96 9.37h-.53l.4-.75h.52l-.39.75Z"/></svg>