<!-- by TradingView --><svg width="18" height="18" viewBox="0 0 18 18" xmlns="http://www.w3.org/2000/svg"><path fill="#A5000A" d="M0 0h18v18H0z"/><path d="m8.22 5.57-.07.4c-.03.12.02.15.14.1.12-.07.18-.18.19-.34 0-.1-.09-.16-.26-.16.05-.22.26-.33.62-.33.13 0 .18.06.15.18-.05.21 0 .36.17.43.1.05.15.02.18-.08.13-.6.39-.94.78-1.03.47-.11.48-.27.02-.46A.64.64 0 0 1 10 4.1a.26.26 0 0 1-.01-.28c.1-.2.13-.36.09-.5-.06-.18 0-.28.19-.29l.61-.03c.22 0 .38.07.46.23.17.3.08.68-.25 1.1a.07.07 0 0 0 0 .08c0 .01 0 .02.02.03l.03.02c.54.11 1 .36 1.4.73.08.08.09.15.02.24-.15.2-.16.43-.02.69.08.15.12.25.12.32 0 .1-.05.18-.12.24a.26.26 0 0 1-.28.03l-.41-.17a.15.15 0 0 0-.16.02.14.14 0 0 0-.05.15l.99 3.29a.13.13 0 0 1-.01.1.13.13 0 0 1-.08.06l-.3.09c-.11.03-.17.11-.15.23l.14.96c.02.13.1.2.23.2.35-.02.75.07 1.2.24a.53.53 0 0 1 .33.64.53.53 0 0 1-.13.22c-.18.18-.45.29-.8.33-.3.03-.32.13-.1.3.24.17.27.33.1.46-.45.37-1 .52-1.63.45-.1 0-.2.01-.3.07a4.19 4.19 0 0 1-3.96.29.51.51 0 0 0-.3-.03c-.7.16-1.2-.03-1.53-.56a.31.31 0 0 0-.25-.15 1.57 1.57 0 0 1-.95-.4.35.35 0 0 1-.12-.26c0-.23.08-.44.27-.64.07-.08.08-.16.03-.26a.94.94 0 0 0-.23-.24c-.1-.07-.1-.15-.03-.24.18-.23.24-.43.2-.61a.39.39 0 0 1 .02-.28l.77-1.67c.04-.1.03-.2-.04-.27l-.1-.12c-.08-.1-.07-.18.04-.25.3-.2.57-.55.8-1.05.08-.17.3-.32.64-.46.1-.04.13-.1.09-.2-.05-.1-.16-.17-.33-.19-.13-.02-.18-.09-.14-.2.16-.5.43-.85.82-1.08a.33.33 0 0 0 .16-.23c.06-.29.05-.82.36-1.1.29-.26.57-.35.85-.27.26.09.37.26.34.52-.06.43-.27.66-.64.69a.2.2 0 0 0-.1.04.18.18 0 0 0-.05.08.17.17 0 0 0 .03.18c.13.14.28.2.45.18ZM8.1 6.9h-.35c-.05 0-.07.02-.07.07v.14c0 .04.02.06.07.06h.45c.16 0 .3.06.42.17l1.05 1.02a.07.07 0 0 0 .07.02l.03-.02.02-.03.13-.43a.22.22 0 0 0-.05-.21l-1.12-1.3c-.08-.07-.14-.07-.2.02l-.2.35a.28.28 0 0 1-.25.14Zm2 .46c.06-.04.1-.12.1-.22 0-.11-.03-.24-.1-.36a.78.78 0 0 0-.24-.28c-.09-.06-.18-.07-.24-.04-.07.03-.1.11-.1.22-.01.1.03.23.09.35.06.12.15.22.24.28.1.06.18.08.25.05Zm1.01 4.28c0-.55-.22-1.08-.63-1.47a2.2 2.2 0 0 0-3.05 0 2.06 2.06 0 0 0 0 2.95 2.2 2.2 0 0 0 3.05 0c.4-.4.63-.92.63-1.48Z" fill="#fff"/><path d="m9.12 11.41 1.33-.74a.12.12 0 0 1 .09-.01.12.12 0 0 1 .07.05l.06.1c.02.03.01.05-.02.07l-1.6.9a.09.09 0 0 1-.1 0l-1.66-.93c-.09-.05-.09-.1 0-.15l.12-.07a.08.08 0 0 1 .09 0l1.39.78c.07.05.15.05.23 0Z" fill="#fff"/></svg>