<!-- by TradingView --><svg width="18" height="18" viewBox="0 0 18 18" xmlns="http://www.w3.org/2000/svg"><path fill="url(#a)" d="M0 0h18v18H0z"/><circle cx="9" cy="9" r="5" fill="url(#b)"/><path d="M9.92 4.09a5 5 0 0 1 3.74 3.09c-.14.18-.29.4-.29.57 0 .16-.03.23-.07.31a.6.6 0 0 0-.08.31c0 .32 0 .47-.16.63-.15.16-.31.16-.31-.16 0-.3-.16-.46-.31-.62-.16-.16-.47-.16-.47 0 0 .15 0 .47-.16.47-.06 0-.1 0-.12.02-.03.02-.03.1-.03.29 0 .15 0 .19-.02.23l-.03.05c-.02.03-.06.08-.11.19-.16.31-.31.47-.31.31 0-.15 0-.47.15-.62.16-.16.16-.47 0-.32a.87.87 0 0 0-.12.17c-.06.09-.1.15-.19.15a.48.48 0 0 0-.12.02c-.1.03-.2.05-.2-.18 0-.18.06-.26.1-.32.04-.05.06-.08.06-.15 0-.15-.15-.15-.3-.15h-.63c-.31 0-.47-.16-.63-.32l-.13-.1c-.09-.07-.13-.1-.02-.21.07-.16.07-.27.07-.35 0-.08 0-.12.08-.12.16 0 0-.16-.15-.16-.16 0-.32 0-.32.16s0 .47-.15.47c-.16 0-.31 0-.31-.16 0-.06.02-.1.04-.12.03-.06.05-.1-.04-.19-.08-.08-.12-.08-.18-.08s-.14 0-.3-.08c-.13-.06-.24-.2-.33-.3-.12-.14-.2-.25-.29-.16-.1.1-.07.2-.03.3.01.06.03.11.03.17 0 .15.16.3.31.46.16.16.32.16.47.16.16 0 .47.16.31.31-.07.08-.11.04-.17-.02-.06-.06-.14-.13-.3-.13a.68.68 0 0 0-.3.08c-.13.06-.22.1-.32-.08-.08-.16-.08-.24-.08-.3s0-.1-.08-.17c-.05-.06-.14-.12-.2-.17-.12-.09-.2-.14-.1-.14.07 0 .07-.12.07-.24s0-.23.08-.23c.16 0 .47-.16.47-.32 0-.04 0-.08.02-.12.03-.1.05-.19-.18-.19-.18 0-.31.05-.42.1-.07.03-.14.06-.2.06h-.54v.04c.03.04.07.11.07.27 0 .18 0 .26-.03.32-.02.04-.06.08-.13.15-.05 0-.16-.03-.16-.16 0-.05.04-.12.07-.19.07-.14.14-.28-.07-.28-.3 0-.93 0-.93-.15 0-.16.31-.63.78-.63.25 0 .32 0 .38-.02l.08-.04.16-.1c.14-.06.28-.1.4-.14.16-.04.3-.08.38-.17.08-.07.16-.07.26-.07s.21 0 .37-.08a.73.73 0 0 1 .17-.08c.03 0 .06 0 .3-.08l.3-.1c.04-.03.07-.04.1-.04l.22-.01.16-.01V4.6c0-.02 0-.06.16-.14l.76-.38Zm-.6 4.75c.04.06.12.2 0 .32-.16.15-.16.46 0 .3.07-.07.07-.1.07-.15 0-.04 0-.08.08-.15.15-.16 0-.47-.16-.32ZM9 9.78c0-.15.47-.15.63-.15.15 0-.16.15-.32.15H9Zm.94 0c0 .05.06.16.31.16a.7.7 0 0 0 .47-.16l-.47-.15c-.1-.06-.31-.1-.31.15Zm.31 1.1c0-.13.42-.47.63-.63.05 0 .12-.03 0-.16-.1-.1-.3.1-.53.3-.14.13-.29.27-.41.33l-.26.12c-.26.11-.52.23-.52.35 0 .15 1.09-.16 1.09-.31Zm-1.09-.03c.05-.03.09-.06.15-.13l.31-.31c-.05.05-.21.12-.46 0-.32-.16-.47-.16-.63 0a.7.7 0 0 1-.21.12c-.12.06-.2.1-.1.19.07.07.04.14.02.2s-.04.11.13.11c.16 0 .2-.04.24-.08.04-.04.08-.07.23-.07.18 0 .26 0 .32-.03Zm-2.04.8c-.1.06-.14.05-.18.03l-.13-.02c-.08 0-.08.04-.08.07 0 .04 0 .08-.07.08-.08 0-.08-.04-.08-.08 0-.03 0-.07-.08-.07s-.12 0-.14-.02c-.02-.02-.02-.06-.02-.14v-.07l.02.01c.02.02.06.06.14.06.13 0 .16-.1.16-.16.15-.05.46-.18.46-.3 0-.16.16 0 .32.15.09.09.12.03.17-.04.03-.06.07-.12.14-.12h.06l-.02.02a.71.71 0 0 0-.2.14.5.5 0 0 0-.15.31l-.32.16Zm.79 1.72a.5.5 0 0 1-.32-.15c-.07-.08-.2-.16-.3-.24-.13-.07-.24-.15-.32-.23l-.07-.08.01-.02c.02-.02.06-.06.06-.21 0-.13-.03-.24-.05-.31-.03-.1-.04-.16.05-.16.08 0 .08-.08.08-.14 0-.06 0-.1.08-.02.08.1.12.13.17.15h.14l.13-.01c.02-.02.02-.06.02-.14 0-.08 0-.11.02-.13.02-.02.06-.02.14-.02.13 0 .36.1.47.15.05-.1.19-.28.31-.15.08.07.12.07.16.07.04 0 .08 0 .15.08.16.16.32.16.47.16a.5.5 0 0 0 .17-.04c.09-.04.14-.06.14.04 0 .05.02.1.04.15.03.1.07.21-.04.32-.07.07-.04.14-.02.2s.04.11-.13.11h-.63c-.13 0-.2-.03-.26-.05-.08-.03-.11-.04-.2.05-.08.08-.08.12-.08.14 0 .02-.03.02-.08.02-.16 0-.31 0-.31.15 0 .06.02.1.04.13.03.05.05.09-.04.19Z" fill="url(#c)"/><defs><linearGradient id="a" x1="3.35" y1="3.12" x2="21.9" y2="24.43" gradientUnits="userSpaceOnUse"><stop stop-color="#1A1E21"/><stop offset="1" stop-color="#06060A"/></linearGradient><linearGradient id="b" x1="11.81" y1="5.09" x2="5.56" y2="12.59" gradientUnits="userSpaceOnUse"><stop stop-color="#8DC44D"/><stop offset="1" stop-color="#6BADC6"/></linearGradient><linearGradient id="c" x1="9.3" y1="4.09" x2="9.3" y2="13.38" gradientUnits="userSpaceOnUse"><stop stop-color="#DAEEC4"/><stop offset="1" stop-color="#CDE7DC"/></linearGradient></defs></svg>