<!-- by TradingView --><svg width="18" height="18" fill="none" xmlns="http://www.w3.org/2000/svg"><path fill="#F0F3FA" d="M0 0h18v18H0z"/><path fill-rule="evenodd" clip-rule="evenodd" d="M5 9s6-.816 6-3.333C11 4.603 10.287 4 9.238 4 8.075 4 5.45 5.88 5 9Z" fill="#20B0E5"/><path fill-rule="evenodd" clip-rule="evenodd" d="M12 4s.484.856.5 1.912c.024 1.617-1.234 3.8-7.5 4.588 0 0 .26 3.5 2.682 3.5.82 0 1.977-.46 3.318-1.5l.5 1S14 11.349 14 8.412c-.037-1.376-.51-2.925-2-4.412Z" fill="#20B0E5"/></svg>