<!-- by TradingView --><svg width="18" height="18" viewBox="0 0 18 18" xmlns="http://www.w3.org/2000/svg"><path fill="#F0F3FA" d="M0 0h18v18H0z"/><path d="M7.79 6c-.16 0-.24.16-.31.29-.31.56-.61 1.4-.9 1.92a.4.4 0 0 1-.37.23H4.03l-.02-.02a.06.06 0 0 1 0-.05c.05-.16.11-.3.19-.44L6.23 4.2c.07-.13.17-.2.3-.2h5.06c.22 0 .33.15.43.34l.98 1.6v.04c-.01.05-.04.02-.07.02H7.79Zm0 6c-.16 0-.24-.16-.31-.28-.31-.56-.61-1.4-.9-1.93a.4.4 0 0 0-.37-.23H4.03l-.02.02a.06.06 0 0 0 0 .05c.05.16.11.3.19.44a555.1 555.1 0 0 1 2.03 3.73c.07.13.17.2.3.2h5.06c.22 0 .33-.15.43-.34l.98-1.6v-.03c-.01-.05-.04-.03-.07-.03H7.79Z" fill="#1D37D3"/><path fill-rule="evenodd" d="M11.98 9.92a2.38 2.38 0 0 0-1.32-3.14A2.47 2.47 0 0 0 8 7.3a2.4 2.4 0 0 0 .79 3.92 2.47 2.47 0 0 0 3.19-1.3ZM9.54 8.74c0 .04-.03.08-.07.07H7.94c-.21 0-.28.1-.28.2 0 .07.08.17.14.18h1.7c.03 0 .05 0 .05.04v1.3c0 .13 0 .34.05.4.02.07.08.12.17.1.14-.03.15-.28.15-.4V9.28a.1.1 0 0 1 .03-.07.1.1 0 0 1 .04-.02.1.1 0 0 1 .04 0h1.61c.04 0 .07-.02.1-.04.03-.03.05-.1.06-.13V9c-.02-.1-.09-.18-.2-.19H10a.09.09 0 0 1-.06-.02l-.02-.03V7.4a.92.92 0 0 0-.1-.37.11.11 0 0 0-.16-.05.1.1 0 0 0-.03.04c0 .02-.02.04-.04.06-.02.05-.05.09-.05.14v1.52Z" fill="#1D37D3"/></svg>