<!-- by TradingView --><svg width="18" height="18" viewBox="0 0 18 18" xmlns="http://www.w3.org/2000/svg"><path fill="#F0F3FA" d="M0 0h18v18H0z"/><path d="m9 5.18 4 1.5v6.73l-4-1.5V5.17Z" fill="url(#a)"/><path d="M6.86 6.2 5 5.48V14l3.57-1.32L6 12V9.92L8.14 9 6 8.5V6.56l.86-.35Z" fill="#F58323"/><path d="M5 5.47 9 4l4 1.47v1.47L9 5.42l-2.14.79L5 5.47Z" fill="url(#b)"/><path d="m6 8.5 3-1.26 4 1.5v1.44L9 8.7 8.14 9 6 8.5Z" fill="url(#c)"/><path d="m6 12 3-1.24 4 1.56V14l-4-1.48-.43.16L6 12Z" fill="url(#d)"/><path d="m11 6.2 2-.73v1.47l-2-.73Z" fill="url(#e)"/><path d="m11 9.44 2-.73v1.47l-2-.74Z" fill="url(#f)"/><path d="m11 13.26 2-.88V14l-2-.74Z" fill="url(#g)"/><defs><linearGradient id="a" x1="13" y1="9.29" x2="9" y2="9.29" gradientUnits="userSpaceOnUse"><stop stop-color="#7B6445"/><stop offset="1" stop-color="#977D5C"/></linearGradient><linearGradient id="b" x1="13" y1="5.47" x2="5" y2="5.47" gradientUnits="userSpaceOnUse"><stop offset=".36" stop-color="#F48121"/><stop offset="1" stop-color="#C36B23"/></linearGradient><linearGradient id="c" x1="13" y1="8.71" x2="6.43" y2="8.71" gradientUnits="userSpaceOnUse"><stop offset=".36" stop-color="#F48121"/><stop offset="1" stop-color="#C36B23"/></linearGradient><linearGradient id="d" x1="13" y1="12.38" x2="6.43" y2="12.38" gradientUnits="userSpaceOnUse"><stop offset=".36" stop-color="#F48121"/><stop offset="1" stop-color="#C36B23"/></linearGradient><linearGradient id="e" x1="13" y1="6.21" x2="11" y2="6.21" gradientUnits="userSpaceOnUse"><stop stop-color="#D6561B"/><stop offset="1" stop-color="#DD6A17"/></linearGradient><linearGradient id="f" x1="13" y1="9.44" x2="11" y2="9.44" gradientUnits="userSpaceOnUse"><stop stop-color="#D6561B"/><stop offset="1" stop-color="#DD6A17"/></linearGradient><linearGradient id="g" x1="13" y1="13.12" x2="11" y2="13.12" gradientUnits="userSpaceOnUse"><stop stop-color="#D6561B"/><stop offset="1" stop-color="#DD6A17"/></linearGradient></defs></svg>