<!-- by TradingView --><svg width="18" height="18" viewBox="0 0 18 18" xmlns="http://www.w3.org/2000/svg"><path fill="#F0F3FA" d="M0 0h18v18H0z"/><path fill-rule="evenodd" d="m13.27 8.02.98.98-1.32 1.32c.55-.75.72-1.61.35-2.29v-.01Zm-.6-.6-2-2a4.63 4.63 0 0 1 .18 1.72 4 4 0 0 1 .52-.03c.5 0 .95.1 1.3.3Zm-2.75-3.5L9 3 3 9l6 6 6-6-5.08-5.08Zm-.35.4a4.29 4.29 0 0 1 .76 2.72 1.52 1.52 0 0 0-.03-.07c-.34-.62-1.06-.96-1.9-.97a4.37 4.37 0 0 0-2.78 1.12L9 3.75l.57.56Zm-4.25 3.1L3.75 9l1.03 1.04a1.5 1.5 0 0 1-.03-.06c-.41-.76-.15-1.75.57-2.56Zm-.01 3.14 2.05 2.05a4.67 4.67 0 0 1-.18-1.74c-.17.02-.35.03-.52.02-.52 0-.99-.1-1.35-.33Zm3.2 3.2.49.5 3.12-3.12c-.17.12-.35.24-.55.35-1.53.83-3.25.63-3.83-.45a1.53 1.53 0 0 1-.04-.07l-.02.3c0 1.2.56 2.17.83 2.5ZM8.2 10.8l-.07-.15.46-.21c1-.55 1.84-1.6 2.15-2.75.22-.03.43-.05.63-.05.53 0 1.17.15 1.45.65.19.35.19.82-.07 1.34a3.38 3.38 0 0 1-1.43 1.4 3.4 3.4 0 0 1-1.96.44c-.58-.07-.97-.32-1.16-.67Zm1.56-2.23c.12-.22.18-.44.2-.64l-.26.13c-.68.37-1.18.9-1.43 1.4a1.9 1.9 0 0 0-.2.64l.27-.12a3.38 3.38 0 0 0 1.42-1.41Zm-.31-.97a4 4 0 0 1 .45-.21l-.06-.15c-.2-.35-.6-.62-1.17-.69A3.42 3.42 0 0 0 6.71 7c-.68.37-1.17.9-1.43 1.4-.25.53-.26 1-.07 1.34.28.5.92.64 1.45.64.2 0 .42-.01.63-.05A4.64 4.64 0 0 1 9.45 7.6Z" fill="#005BAC"/></svg>