<!-- by TradingView --><svg width="18" height="18" viewBox="0 0 18 18" xmlns="http://www.w3.org/2000/svg"><path fill="#F0F3FA" d="M0 0h18v18H0z"/><path d="M13.97 6.33h-.06a.04.04 0 0 0-.04.03.37.37 0 0 1-.09.1c-.07.08-.15.14-.25.2a4.4 4.4 0 0 1-2.08.48 2.62 2.62 0 0 0-.59.12.56.56 0 0 0-.16.1l-.02.01c-.02.02-.03.02-.03-.01 0-.04.01-.07.03-.1.07-.32.2-.57.41-.78.08-.07.17-.14.28-.2l.05-.01a.05.05 0 0 1 .04-.02c.15 0 .25-.03.33-.1l.35-.02v-.01l.01-.01.06.02.44.01c.08.03.15.03.2 0 .17.05.32.05.45.02.32 0 .63-.07.93-.23.01 0 .02 0 .01.02a.24.24 0 0 1-.06.1.93.93 0 0 0-.21.28Z" fill="#76BE46"/><path d="m11.12 6.18.18.06c.01 0 .02.01.02.03 0 .03-.01.04-.04.04-.16.02-.33 0-.49-.03a.72.72 0 0 0-.1-.02h-.1a7.15 7.15 0 0 0-2.05-.08c-.22.02-.48.05-.77.1a5.86 5.86 0 0 0-1.75.52l-.14.05a.65.65 0 0 0-.14.09 3.5 3.5 0 0 0-.87.63c-.07.06-.12.13-.17.2l-.14.21a.13.13 0 0 0-.03.07c0 .02 0 .04-.02.05a.07.07 0 0 0-.04.04.43.43 0 0 1-.1.16v.03l-.04.14v.03h.04c.04-.02.1-.03.14-.03.12 0 .23-.04.34-.11a.67.67 0 0 1 .13-.07l.08-.04.04-.03.04-.04c.02-.03.03-.02.04.01v.12A155.7 155.7 0 0 0 4.6 10c-.03.1 0 .19.05.24l.07.06a.7.7 0 0 0 .11.1c.04.03.1.04.15.05a5.66 5.66 0 0 0 .93 0v.02h-.14l-.83.01a.17.17 0 0 1-.14-.07l-.02-.01c-.02-.01-.02-.01 0 0l.02.04v.01c-.02 0-.02 0-.01.02.05.05.12.1.2.14l.14.1c0 .02.02.03.03.03.04.01.08.04.12.08 0 0 .01 0 0 0v-.02c0-.01 0-.02.02-.01l.72.36h.05l.14.05c.04.03.08.04.13.05.05 0 .1.02.13.05.03.02.06.02.1.02l.1.03.09.03.31.06c.11.03.22.04.32.05l.32.03.45.02h.28a6.25 6.25 0 0 0 1.13-.03.96.96 0 0 1 .23-.01l.02-.01a7.03 7.03 0 0 0 .6-.07c.06.02.12.01.17-.02l.14-.06a28 28 0 0 0 .89-.25c.04-.05.1-.08.16-.1.05 0 .1-.01.15-.04a23.8 23.8 0 0 0 .63-.36.48.48 0 0 1 .1-.06.8.8 0 0 0 .11-.07.87.87 0 0 1-.31.27.91.91 0 0 0-.2.14.37.37 0 0 1-.1.06l-.1.05a.12.12 0 0 1-.06.02.18.18 0 0 0-.1.05.1.1 0 0 1-.06.03 2.03 2.03 0 0 0-.27.08h-.04a.72.72 0 0 1-.2.1 30.99 30.99 0 0 1-.62.16c-.2.07-.4.1-.6.1l-.3.02c-.1.01-.2.02-.3.01a.1.1 0 0 0-.06.01.19.19 0 0 1-.11.02H9.3c0 .02-.01.03-.02.02h-.36c-.1.02-.24.02-.43 0a4.26 4.26 0 0 0-.41-.01 1.88 1.88 0 0 1-.54-.05 9.12 9.12 0 0 1-.53-.06.62.62 0 0 0-.16-.03.66.66 0 0 1-.23-.06.84.84 0 0 0-.18-.05.45.45 0 0 1-.12-.05.47.47 0 0 0-.14-.04.9.9 0 0 1-.32-.13.16.16 0 0 0-.05-.02.21.21 0 0 1-.05-.01c0-.01-.01 0 0 0v.02a6.17 6.17 0 0 0-.17-.08.97.97 0 0 1-.15-.1.6.6 0 0 0-.18-.1c-.03-.01-.03 0-.01.02l.11.09v.01a.1.1 0 0 0-.09-.04 4.9 4.9 0 0 0-.69-.54.82.82 0 0 0-.09-.17.22.22 0 0 0-.04-.05.18.18 0 0 1-.06-.07.15.15 0 0 0-.07-.07.07.07 0 0 1-.03-.04 2.24 2.24 0 0 0-.1-.22.17.17 0 0 0-.03-.05.06.06 0 0 1-.02-.05.05.05 0 0 0-.03-.04c-.05-.02-.07-.07-.07-.13a.1.1 0 0 0 0-.05.68.68 0 0 1-.03-.24.4.4 0 0 0-.03-.17l-.02-.01h-.01c-.02 0-.03 0-.03.02a1.86 1.86 0 0 0 .05.6v.06c.1.28.24.53.43.74a4.28 4.28 0 0 0 .66.6 4.91 4.91 0 0 0 1.37.62.1.1 0 0 1-.05-.03c.1.04.18.07.27.07.04 0 .08.02.12.04.01 0 .01 0 0 0l-.16-.02c-.03 0-.03 0 0 .02l.06.03a41.06 41.06 0 0 1 .37.06c.1 0 .23.03.36.06.2.06.42.08.65.06.4.04.8.06 1.2.04h.32c.02 0 .04 0 .05-.03a3.48 3.48 0 0 0 .83-.1c.05 0 .13 0 .24-.05.05-.01.05-.02 0-.02h-.12a.34.34 0 0 0-.12.04.4.4 0 0 1-.23.02.33.33 0 0 1 .13 0l.04-.02.03-.01a6.46 6.46 0 0 0 2.9-1.18 1 1 0 0 0 .24-.2 45.3 45.3 0 0 0 .33-.44.34.34 0 0 0 .09-.14c0-.02.01-.03.03-.04V9.8c.12-.18.2-.37.24-.55.05-.1.06-.2.05-.3a9.71 9.71 0 0 1-.07-.45l-.03-.02v-.04c.04-.08.03-.14-.01-.2a.09.09 0 0 1-.02-.05.62.62 0 0 0-.1-.28l-.1-.13a.78.78 0 0 0-.16-.2.55.55 0 0 1-.21-.27c.32.26.55.55.68.88.13.44.14.86.03 1.25l-.12.37a.6.6 0 0 1-.1.2 4.1 4.1 0 0 1-1.74 1.4.1.1 0 0 0-.04.03.08.08 0 0 1-.07.04 8.3 8.3 0 0 1-2.34.61l-.29.02a9.15 9.15 0 0 1-3.02-.26 7.69 7.69 0 0 0-.34-.1l-.23-.08a.08.08 0 0 1-.04-.02.1.1 0 0 0-.07-.04h-.04l-.11-.05a.14.14 0 0 1-.05-.04.11.11 0 0 0-.06-.02l-.05-.01a6.9 6.9 0 0 0-.42-.23.44.44 0 0 0-.11-.06.28.28 0 0 1-.1-.06 1.23 1.23 0 0 0-.23-.17 1.4 1.4 0 0 1-.22-.17 3.4 3.4 0 0 1-.35-.38 1.28 1.28 0 0 1-.15-.23 2.02 2.02 0 0 1-.17-.35 1.8 1.8 0 0 1-.01-1.25c.11-.33.32-.64.62-.94a4.14 4.14 0 0 1 1.6-1.01l.16-.06c.24-.12.52-.22.84-.3.71-.17 1.42-.27 2.13-.3.23 0 .5 0 .8.04l.83.1c.12 0 .21.03.3.06Z" fill="#D82B26"/><path d="m11.12 6.18.22.04c.02 0 .03.01.03.03v.04c-.11.05-.2.12-.28.19-.2.2-.34.46-.41.77L10.7 7c0-.02 0-.03-.02-.03a1.93 1.93 0 0 0-.48.06v.01l-.03.02a11.04 11.04 0 0 0-1.47.09l-.26.03-.27.03-.41.07-.46.09c-.15.02-.3.06-.45.1l-.47.13a.9.9 0 0 0-.2.08.69.69 0 0 1-.22.08.08.08 0 0 0-.04.02.16.16 0 0 1-.06.03l-.05.01-.07.02c-.08.04-.1.05-.05.05a.47.47 0 0 1-.15.01c-.11-.02-.12-.06-.02-.11l.23-.15a1.36 1.36 0 0 1 .37-.17l.07-.03a1.73 1.73 0 0 1 .9-.27l.3-.08.2-.05.52-.1c.14 0 .27-.03.4-.06a.65.65 0 0 0 .4-.26h.04a.3.3 0 0 0 .07-.14v-.05l-.05-.13c0-.02-.02-.03-.03-.03a2.54 2.54 0 0 1-.13-.02H8.4c-.07.02-.15.02-.22.02l-.22.03-.4.06c-.06 0-.15.02-.27.05l-.27.04c.24-.07.5-.13.75-.16.3-.05.55-.08.77-.1a7.15 7.15 0 0 1 2.26.1c.15.04.32.05.48.03.03 0 .04-.01.04-.04 0-.02 0-.03-.02-.03l-.18-.06Z" fill="#F36826"/><path d="M5.7 7.88c.24.02.47.02.7 0a5.26 5.26 0 0 1 .6 0v.04a.14.14 0 0 0-.02.06c0 .03.01.04.03.04h.12-.14c-.02 0-.03 0-.03-.03v-.1h-.04a188.56 188.56 0 0 0-1.73.05.06.06 0 0 0-.05.03.06.06 0 0 0 0 .06c0 .03.02.05.04.07.02 0 .02.02.03.04 0 .04 0 .08-.02.12.01-.1-.02-.15-.1-.17-.02 0-.04 0-.05-.02-.03 0-.05 0-.06.03-.01.01-.02.02-.04.01l-.18-.02a.04.04 0 0 1-.04-.02c-.01-.03-.02-.03-.04-.02-.02.02-.02.01-.01 0v-.03c0-.02 0-.03.02-.04a.14.14 0 0 0 .05-.1l.03-.03c.02-.01.03-.03.03-.06l.01-.04a3.79 3.79 0 0 0 .26-.25.22.22 0 0 0 .07-.07 3.06 3.06 0 0 1 .6-.46c.15-.07.3-.14.43-.23l.23-.1a.93.93 0 0 1 .22-.08c.14-.03.27-.07.4-.12.1 0 .18-.02.27-.04l.27-.05.4-.06.22-.03.22-.01a2.04 2.04 0 0 1 .41 0l.13.01.03.03.05.13v.05a.3.3 0 0 1-.07.13h-.02l-.01.01a.65.65 0 0 1-.42.26l-.39.07a5.02 5.02 0 0 0-1.03.21c-.1.02-.2.04-.3.08a14.77 14.77 0 0 1-.72.24c-.12.05-.22.1-.3.16l-.24.15c-.1.05-.1.1.02.11h.16Z" fill="#F88E43"/><path d="M6.13 7.3a.11.11 0 0 1-.06.02l-.03.01a.1.1 0 0 1-.06.04 1.53 1.53 0 0 0-.5.27.4.4 0 0 1-.32.05.05.05 0 0 1-.04-.03V7.6c.05-.1.1-.2.17-.25a2.85 2.85 0 0 1 .84-.55c.1-.05.2-.1.3-.13l.38-.12a4.02 4.02 0 0 1 .7-.12l.02-.01.03-.01.22-.02c.05 0 .1 0 .14.02a.6.6 0 0 0 .11.02l.1.01.08.04c.04.04.05.1.02.18l-.03.03-.17.08a.55.55 0 0 1-.12.04.49.49 0 0 0-.1.02 56.1 56.1 0 0 0-1.27.32.77.77 0 0 0-.25.08.54.54 0 0 1-.12.04l-.04.02Z" fill="#FDB57A"/><path d="m6.63 6.69.01-.01a1.15 1.15 0 0 1 .6-.03c.02.01.02.05 0 .1-.01.03-.03.04-.05.05a2.34 2.34 0 0 1-.56.18 2.88 2.88 0 0 0-.5.17.04.04 0 0 1-.04.02h-.05a.53.53 0 0 1-.12.06l-.02.02-.01.02-.02.02-.29.13c-.05.03-.07.01-.08-.04 0-.06.02-.12.09-.18a.62.62 0 0 1 .17-.12c.02 0 .03-.01.04-.03 0-.02.02-.03.04-.04l.56-.25a.61.61 0 0 1 .15-.05l.07-.01.01-.01Z" fill="#FFDCB4"/><path d="M6.17 6.74c-.14.09-.28.16-.42.23a3.06 3.06 0 0 0-.61.46.22.22 0 0 1-.07.07 3.8 3.8 0 0 1-.26.25.05.05 0 0 0-.02.04c.01.03 0 .05-.02.06a.04.04 0 0 0-.03.03c0 .04-.02.08-.05.1a.03.03 0 0 0-.02.04v.03c-.01.01-.01.02 0 0 .02 0 .04 0 .05.02l.03.02.19.02.04-.01c.01-.03.03-.04.06-.03l.05.02c.08.02.11.07.1.16l-.01.06v-.12c0-.03-.02-.04-.04-.01l-.04.04a.12.12 0 0 1-.04.03l-.08.04a.67.67 0 0 0-.13.07.56.56 0 0 1-.34.1c-.05 0-.1.02-.14.05h-.03c-.01-.01-.02-.02-.01-.04l.03-.14c0-.01 0-.02.02-.03l.1-.16c0-.02.01-.03.03-.04a.06.06 0 0 0 .02-.05l.03-.07.14-.21c.05-.07.1-.14.17-.2a3.5 3.5 0 0 1 1.3-.83Z" fill="#F36826"/><path d="M10.68 7.25a.2.2 0 0 0-.03.11c0 .03.01.03.03.01l.02-.01a.56.56 0 0 1 .16-.1l.09-.04-.1.35.01.02h.03c.2-.13.44-.2.72-.21l.82-.07c.17-.02.45-.09.84-.2h.1l.09.06.02.02c.06.04.1.08.13.12.04.1.1.2.21.27.04.02.1.09.16.2l.1.13c.05.1.1.2.1.28 0 .02 0 .03.02.04.04.07.05.13 0 .2l.01.05.03.02.02.03.05.43c.01.1 0 .2-.05.29v-.5c0-.03-.01-.04-.03-.06a.08.08 0 0 1-.03-.06l-.01-.03h-.03a.47.47 0 0 0-.22.26l-.07.15-.08.15-.1.24a12.26 12.26 0 0 1-.41.64 2.19 2.19 0 0 1-.72.56l-.18.12a23.54 23.54 0 0 1-.6.29.26.26 0 0 0-.16.09.05.05 0 0 1-.05.02c-.03-.01-.05 0-.07.02a28.42 28.42 0 0 1-.9.27.23.23 0 0 1-.2.02h-.03a.23.23 0 0 1-.1.02 7.01 7.01 0 0 1-.45.05H9.8v.01h-.23a3.14 3.14 0 0 1-.6.04 6.26 6.26 0 0 1-.8 0c-.2 0-.36 0-.46-.02-.1-.02-.22-.03-.32-.03s-.21-.02-.32-.05l-.31-.06a.35.35 0 0 1-.1-.03.24.24 0 0 0-.1-.03c-.03 0-.06 0-.09-.02a.34.34 0 0 0-.13-.05.42.42 0 0 1-.13-.05.41.41 0 0 0-.14-.04l-.05-.01-.72-.36h-.02v.02c.01.02 0 .02 0 0a.24.24 0 0 0-.12-.07.07.07 0 0 1-.03-.02.51.51 0 0 0-.14-.1.76.76 0 0 1-.2-.15v-.03a.9.9 0 0 1-.02-.03c0-.02 0-.02.01-.01l.02.01c.03.05.08.07.14.07a874.82 874.82 0 0 0 .97-.01v-.02h-.08c.16 0 .3-.02.44-.07a.43.43 0 0 0 .18-.14.67.67 0 0 0 .1-.2 206.22 206.22 0 0 1 .14-.45l-.03-.01a.12.12 0 0 0-.1.07c0 .02-.02.03-.04.03s-.03-.01-.03-.03v-.02l.05-.17c0-.01 0-.03-.02-.03h-.01a.07.07 0 0 0-.06.03.38.38 0 0 1-.28.16c-.15.02-.28.02-.4 0l.04-.17c0-.03.02-.04.05-.04l.77-.03c.03 0 .05-.02.08-.03a.15.15 0 0 0 .05-.08l.1-.33v-.03l-.03-.02h-.09l-.03-.03v-.06l.01-.03c0-.02-.01-.03-.03-.03h-.5c-.09 0-.1-.03-.02-.08a.36.36 0 0 1 .16-.04l.53-.04c.04 0 .08-.02.1-.07.08-.15.13-.32.16-.5h-.1c-.03 0-.04-.01-.04-.03 0-.03 0-.05.02-.07v-.04a5.26 5.26 0 0 0-.6 0c-.23.02-.47.02-.7 0-.06 0-.04-.01.04-.05l.07-.02h.05l.05-.04a.08.08 0 0 1 .05-.02.69.69 0 0 0 .21-.08.9.9 0 0 1 .2-.08 96.64 96.64 0 0 0 .93-.23 15.42 15.42 0 0 0 .87-.16 7.37 7.37 0 0 0 .53-.06l.5-.04a11.04 11.04 0 0 1 1-.08c.15-.04.31-.06.48-.06.01 0 .02.01.02.03l-.02.26Z" fill="#EB2228"/><path d="m11.96 7.65-.52.42a.85.85 0 0 1-.41.2 2.5 2.5 0 0 1-.24.02.45.45 0 0 0-.12.03.36.36 0 0 0-.18.22 49.36 49.36 0 0 0-.45 1.33c0 .02.02.03.05.06l.03.04a.1.1 0 0 1 .01.06c0 .02-.01.04-.04.04l-.8.02a.3.3 0 0 1-.1-.05.05.05 0 0 1-.02-.04c0-.07.02-.15.04-.23.24-.66.45-1.25.63-1.8.02-.05 0-.1-.05-.13a.11.11 0 0 1-.04-.03v-.04c0-.02.02-.03.03-.03l.08-.02a13.07 13.07 0 0 1 .83 0l.03.04c.01.07 0 .13-.03.2l.01.01a.76.76 0 0 1 .3-.28c.1-.05.23-.09.4-.1a74 74 0 0 1 .68-.09c.06 0 .07.01.02.05l-.14.1Z" fill="#FFFFFE"/><path d="M11.96 7.65c.07.02.15.04.24.03.02 0 .03.01.04.03l.01.02c0 .02.02.03.04.03l.52-.02c-.07.02-.2.03-.4.03l-.32.04a.91.91 0 0 0-.3.1c-.2.13-.34.3-.44.52 0-.03-.02-.04-.08-.02a6.08 6.08 0 0 1-.3.03l-.14.04c-.1.04-.16.12-.2.25-.17.42-.31.83-.45 1.23-.02.07 0 .12.06.14l.03.03-.01.07a37.64 37.64 0 0 0-.83.03.14.14 0 0 1-.1-.04.15.15 0 0 1-.05-.1l.81-.02c.03 0 .04-.02.04-.04a.1.1 0 0 0 0-.06.25.25 0 0 0-.04-.04.23.23 0 0 1-.05-.06 49.44 49.44 0 0 1 .44-1.33c.05-.1.1-.18.19-.22a.46.46 0 0 1 .12-.03 2.04 2.04 0 0 1 .24-.02.85.85 0 0 0 .41-.2l.52-.42Z" fill="#D9A572"/><path d="m12.8 7.74.42.04c.1.04.16.1.2.19a.5.5 0 0 1 .05.23c0 .09-.01.17-.03.23a6.9 6.9 0 0 1-.42 1.12.77.77 0 0 1-.13.17 2.8 2.8 0 0 0-.18.2.2.2 0 0 0-.08.06.2.2 0 0 1-.08.06c-.17.08-.34.11-.5.1l-.07.02a4.02 4.02 0 0 1-.87 0c-.18-.12-.25-.29-.2-.51.08-.4.23-.8.44-1.22.1-.22.24-.4.44-.51a.91.91 0 0 1 .3-.1c.16-.04.27-.05.32-.05.2 0 .32-.01.4-.03Z" fill="#FFFFFE"/><path d="M13.22 7.78c.07 0 .12 0 .15.05a29.44 29.44 0 0 0 .24.32c.02.14.01.28-.02.41a5.26 5.26 0 0 1-.6 1.4.77.77 0 0 1-.24.22c-.13.07-.26.11-.4.13-.4.06-.74.06-1.04 0-.09-.02-.15-.07-.2-.16a4.02 4.02 0 0 0 .93 0c.17 0 .34-.03.51-.11a.2.2 0 0 0 .08-.06.2.2 0 0 1 .08-.06 2.72 2.72 0 0 1 .18-.2c.06-.05.1-.11.13-.17a4.48 4.48 0 0 0 .45-1.35.5.5 0 0 0-.05-.23.43.43 0 0 0-.2-.2Z" fill="#D9A572"/><path d="M9.44 7.87a3.32 3.32 0 0 0-.11.36 337 337 0 0 0-.58 1.7c0 .06.03.1.08.12l.02.02a.06.06 0 0 1-.01.07l-.04.01-.81.03h-.04c-.08-.01-.1-.05-.09-.12l.04-.14c0-.03 0-.03-.02 0a.6.6 0 0 0-.06.07.42.42 0 0 1-.1.11c-.12.1-.24.14-.33.14-.18 0-.37 0-.55.03-.14-.13-.2-.25-.15-.38a34 34 0 0 1 .59-1.7c.03-.1.02-.18-.05-.2a.05.05 0 0 1-.03-.05c0-.04.02-.05.04-.06l.42-.02.33-.01h.08c.06 0 .1.03.1.1-.14.49-.3.97-.48 1.44a.45.45 0 0 0-.03.17c0 .01 0 .03.02.04.02.02.06.04.11.03.14.01.24-.06.3-.22l.46-1.34c.03-.06 0-.11-.06-.14a.05.05 0 0 1-.03-.03v-.05l.04-.03c.36-.02.64-.03.86-.02.04 0 .07.02.08.07Z" fill="#FFFFFE"/><path d="M9.44 7.87c.02.05.04.07.08.09a.1.1 0 0 1 .06.05.1.1 0 0 1 0 .08 159.91 159.91 0 0 1-.7 2.03l.02.04.07.06c.02.02.02.03.02.05-.01.02-.02.03-.04.03-.26 0-.54.02-.83.04a.1.1 0 0 1-.07-.03.1.1 0 0 1-.03-.06.29.29 0 0 0-.03-.07l.81-.03.04-.01.01-.03v-.04a.05.05 0 0 0-.02-.02c-.05-.03-.08-.06-.08-.11l.03-.14.01-.03a335.8 335.8 0 0 1 .65-1.9ZM6.96 7.95v.04c0 .02.01.03.03.03h.13c-.03.18-.08.35-.16.5a.12.12 0 0 1-.1.07c-.17 0-.35.02-.53.04a.36.36 0 0 0-.16.04c-.08.05-.07.08.02.08h.27c-.19.04-.38.05-.56.03-.04 0-.05-.02-.04-.05.07-.17.19-.26.37-.27a7.5 7.5 0 0 0 .56-.07.58.58 0 0 0 .07-.14 2 2 0 0 0 .05-.15l.05-.15ZM8.18 7.96l.1.07c.02 0 .03.02.03.04.01.05 0 .1 0 .14l-.52 1.42a.16.16 0 0 1-.11-.03.05.05 0 0 1-.02-.04c0-.06 0-.11.03-.17.17-.47.34-.95.49-1.43Z" fill="#D9A572"/><path d="M14.29 8.2c.25.53.23 1.07-.09 1.61l.12-.37c.11-.4.1-.8-.03-1.25Z" fill="#6E0C0A"/><path d="M12.59 8.5c-.14-.07-.25 0-.34.19-.12.26-.23.57-.32.94-.03 0-.07 0-.1-.04-.04-.04-.05-.1-.04-.16.08-.3.18-.59.3-.88.07-.18.2-.26.4-.25.04 0 .07.02.1.05.02.04.02.09 0 .15Z" fill="#D9A572"/><path d="m12.59 8.5-.3.9a.36.36 0 0 1-.36.23c.1-.37.2-.68.32-.94.09-.2.2-.26.34-.2Z" fill="#D82B26"/><path d="M14.26 9.25a2.1 2.1 0 0 1-.27.61.34.34 0 0 1-.1.14.1.1 0 0 0-.02.04 45.3 45.3 0 0 1-.3.4 1 1 0 0 1-.23.2c-.1.06-.19.12-.27.2l-.28.18a6.45 6.45 0 0 1-1.75.71.5.5 0 0 1 .2-.1c.05 0 .11-.02.17-.04a.3.3 0 0 1 .1-.04l.1-.03a.3.3 0 0 1 .07-.03.3.3 0 0 0 .1-.04h.04a.1.1 0 0 0 .08-.03.08.08 0 0 1 .05-.02.1.1 0 0 0 .08-.05c.02-.02.01-.03-.01-.04h-.07a.48.48 0 0 1-.12.05 2.4 2.4 0 0 0-.33.1 3.85 3.85 0 0 0-1.51.35.45.45 0 0 1-.16 0H8.1c-.12 0-.24 0-.35-.03a1.39 1.39 0 0 0-.34-.03l-.04-.01a.17.17 0 0 0-.11-.03.1.1 0 0 1-.05 0 .14.14 0 0 0-.05-.02.67.67 0 0 1-.24-.04.7.7 0 0 0-.12-.03 8.5 8.5 0 0 1-1.15-.45l-.15-.09-.22-.16a.1.1 0 0 1 .08.04h.01v-.01a.8.8 0 0 1-.11-.1c-.02-.01-.02-.02 0-.01.07.02.13.05.2.1l.14.1a6.17 6.17 0 0 1 .16.06h.01l.05.01.05.02c.1.06.21.1.32.13.05 0 .1.02.14.04.04.03.08.04.12.05.06 0 .12.03.18.05.08.03.15.05.23.06.05 0 .1 0 .16.03.05.01.1.03.16.03a9.3 9.3 0 0 0 .55.06 1.88 1.88 0 0 0 .49.02l.28.01c.19.02.33.02.43 0h.36l.02-.01c0-.01.02-.02.03-.01.04 0 .08 0 .11-.02a.1.1 0 0 1 .06-.01h.3c.1-.02.2-.02.3-.02.2 0 .4-.04.6-.11a.2.2 0 0 1 .07 0l.06-.02.48-.14a.72.72 0 0 0 .2-.1h.05a.1.1 0 0 0 .05-.01l.05-.02.17-.05a.1.1 0 0 0 .05-.03.18.18 0 0 1 .11-.05c.02 0 .04 0 .05-.02l.11-.05a.37.37 0 0 0 .1-.06.9.9 0 0 1 .2-.14.87.87 0 0 0 .31-.27c.2-.11.36-.26.5-.43a.33.33 0 0 0 .07-.1c0-.02.02-.04.05-.07a12.09 12.09 0 0 0 .4-.7l.08-.16.07-.15c.04-.12.12-.2.22-.26h.03l.01.03c0 .03.01.05.03.06.02.02.03.03.03.05v.5Z" fill="#A21A1D"/><path d="m6.7 8.81.01.06c0 .02.02.03.03.03h.09c.01 0 .02 0 .03.02v.03l-.1.33-.05.08a.14.14 0 0 1-.08.03l-.77.03c-.03 0-.04.01-.05.04l-.04.17a.2.2 0 0 1-.1-.06c-.03-.03-.04-.07-.04-.12l.02-.12c.02-.04.05-.07.1-.07a37.84 37.84 0 0 0 .8-.05c.02 0 .03-.01.04-.03l.12-.37Z" fill="#D9A572"/><path d="m5.28 10.92.22.16a.38.38 0 0 1-.17-.07c-.1-.09-.1-.09-.01 0 .06.08.18.13.34.16.06.02.12.05.18.1l.18.08.19.06a8.42 8.42 0 0 0 .7.24c.09.03.17.04.25.04.01 0 .03 0 .05.02a.1.1 0 0 0 .05 0c.04 0 .08 0 .1.03l.06.01c.1 0 .2 0 .33.03.11.03.23.04.35.04a107.57 107.57 0 0 1 1.89-.02l.15-.03c.13-.04.26-.06.4-.08a4.52 4.52 0 0 0 1.06-.26l.23-.07a.48.48 0 0 0 .12-.04.09.09 0 0 1 .07-.01c.02 0 .03.02.02.04a.1.1 0 0 1-.08.05c-.02 0-.04 0-.06.02a.1.1 0 0 1-.08.03h-.03a.3.3 0 0 1-.1.04.3.3 0 0 0-.09.03.26.26 0 0 1-.08.03.3.3 0 0 0-.11.04.47.47 0 0 1-.18.05.5.5 0 0 0-.2.1 5.7 5.7 0 0 1-.6.08.73.73 0 0 1-.02.01.09.09 0 0 1-.05.01l-.13.01a.9.9 0 0 0-.26.02c-.08.02-.16.04-.25.04l-.04.02-.05.03-.36.03a7.92 7.92 0 0 1-1.99-.17v-.01l-.3-.07h-.02v-.01a18.7 18.7 0 0 1-.44-.11l-.3-.07a.15.15 0 0 1-.05-.02.1.1 0 0 0-.07-.02c-.02 0-.02 0 0 .02l.3.1.04.03c.02 0 .02 0 0 0h-.02c-.1-.04-.21-.08-.32-.1a.54.54 0 0 1-.13-.06.51.51 0 0 0-.12-.05 4.91 4.91 0 0 1-1.13-.68c-.1-.1-.21-.21-.3-.33a2.24 2.24 0 0 1-.44-.8v-.06a1.86 1.86 0 0 1-.05-.54c0-.02.01-.02.03-.03h.01l.02.02a.4.4 0 0 1 .03.17c0 .09 0 .17.03.25a.1.1 0 0 1 0 .04c0 .06.02.1.07.13l.03.04c0 .02 0 .04.02.05l.04.05.1.22c0 .02 0 .03.02.04.04.02.06.04.07.07.01.03.03.05.06.07l.05.05.08.17c0 .02.02.03.03.04l.15.12.11.06c.06.02.1.05.13.07.02.04.05.06.08.09a5 5 0 0 1 .2.16Z" fill="#6E0C0A"/><path d="M7.95 10.18h-.02l-.02.02a.5.5 0 0 1-.25.15c-.34.1-.61.07-.82-.08.18-.03.37-.03.55-.03.1 0 .2-.04.34-.14a.42.42 0 0 0 .09-.1.6.6 0 0 1 .06-.09c.02-.02.02-.02.02.01l-.04.14c-.02.07.01.1.09.12Z" fill="#D9A572"/><path d="M7.48 11.43a1.6 1.6 0 0 0-.25-.01c-.07 0-.14 0-.2-.03-.1-.03-.21-.04-.33-.04-.02 0-.04 0-.06-.02l-.02-.03a.1.1 0 0 0-.05-.02 1.99 1.99 0 0 1-.51-.15.37.37 0 0 1-.08-.05c-.03-.02-.02-.02 0-.01.04 0 .06.02.09.03l.08.04.09.03a.8.8 0 0 0 .2.04c.07 0 .13.02.2.05.07.04.14.06.23.07l.31.06.17.02c.06 0 .12 0 .17.02l.24.02h.03l.13.01.13.02a13.24 13.24 0 0 0 2-.08l.18-.05.4-.1c.15-.01.28-.03.41-.06.03 0 .03 0 0 .02a.09.09 0 0 1-.08.02c-.02-.01-.04 0-.05.01-.01.01-.02.02-.04.01h-.03c-.16.05-.33.08-.5.1a.3.3 0 0 0-.08.03.08.08 0 0 1-.05.01c-.04 0-.09 0-.16.02a.62.62 0 0 1-.11.03l-.12.01a1.23 1.23 0 0 1-.76.04h-.01a14.78 14.78 0 0 0-1.1.01c-.02.01-.05 0-.08-.01a.2.2 0 0 0-.1-.02l-.27-.01-.02-.02v-.01Z" fill="#D82B26"/><path fill-rule="evenodd" d="M12.85 6.14c.17.05.32.05.45.02a6.41 6.41 0 0 0-1.55-.56 3.63 3.63 0 0 1-.47-.14 7.57 7.57 0 0 0-4.64-.18 5.27 5.27 0 0 0-1.67.85c-.55.43-.92.93-1.11 1.5a.69.69 0 0 1-.13.23c-.32.4-.54.8-.65 1.24-.12.48-.1.94.06 1.37.2.53.58.98 1.12 1.36.44.31.97.55 1.58.73.7.2 1.48.3 2.32.29.14 0 .3.01.46.04 1.17.2 2.29.13 3.36-.2a5 5 0 0 0 1.27-.6c.41-.28.75-.6 1.01-.96.33-.45.51-.95.55-1.5 0-.09.02-.18.05-.26a2.3 2.3 0 0 0-.36-2.23 2.63 2.63 0 0 0-.43-.46l-.02-.02a2.35 2.35 0 0 0 .4-.46c.03-.06.02-.06-.03-.04-.11.08-.26.13-.45.17h-.06a.04.04 0 0 0-.04.03.37.37 0 0 1-.09.1c-.07.08-.16.14-.25.2a4.4 4.4 0 0 1-2.08.48c-.07-.01-.24.02-.5.08l-.1.35.01.02h.03c.2-.13.44-.2.72-.21l.82-.07c.17-.02.45-.09.84-.2h.1l.09.06.03.02.12.12c.32.26.55.55.68.88.25.54.23 1.08-.09 1.62a.6.6 0 0 1-.1.2 4.09 4.09 0 0 1-1.74 1.4.1.1 0 0 0-.04.03.08.08 0 0 1-.07.04h-.05a8.3 8.3 0 0 1-2.58.63 9.16 9.16 0 0 1-3.29-.33c-.03 0-.06-.01-.07-.03l-.23-.08a.08.08 0 0 1-.04-.02.1.1 0 0 0-.07-.04h-.04l-.11-.05a.14.14 0 0 1-.05-.03.11.11 0 0 0-.06-.03l-.05-.01a7.22 7.22 0 0 0-.42-.23.44.44 0 0 0-.11-.06.28.28 0 0 1-.1-.06 1.23 1.23 0 0 0-.22-.17 1.4 1.4 0 0 1-.23-.17 3.4 3.4 0 0 1-.35-.38 1.28 1.28 0 0 1-.15-.23 2 2 0 0 1-.17-.35 1.8 1.8 0 0 1-.01-1.25c.11-.33.32-.64.62-.94a4.14 4.14 0 0 1 1.6-1.01l.16-.06c.24-.12.52-.22.84-.3.72-.17 1.43-.27 2.13-.3.23 0 .5 0 .8.04l.83.1c.12 0 .21.03.3.06l.21.04c.02 0 .03.01.03.03v.04l.05-.02a.05.05 0 0 1 .04-.02c.14 0 .25-.03.33-.1a8.1 8.1 0 0 0-3.3-.3 8.25 8.25 0 0 0-3.41 1.09c-.1.05-.17.11-.24.18a.44.44 0 0 1-.1.07.85.85 0 0 0-.08.04.51.51 0 0 1 .03-.04 7.73 7.73 0 0 1 2.5-1.3c.84-.25 1.72-.38 2.66-.39.28 0 .57.03.84.1a7.57 7.57 0 0 1 1.51.53l.45.01-.27-.18-.03-.03h.04l.46.21Zm-3.5-.73V5.4c-.9-.06-1.78.03-2.64.27-.5.14-.95.33-1.35.58-.45.28-.82.6-1.1.98-.1.15-.08.16.05.05a7.24 7.24 0 0 1 2.37-1.34 9.46 9.46 0 0 1 2.67-.51V5.4Zm4.33 1.55c.42.41.74.89.94 1.42.01.04.02.04.03 0l-.01-.15c-.1-.54-.37-1-.78-1.4a.03.03 0 0 0-.04 0 .4.4 0 0 0-.14.1v.03Zm-5.95 5.73c.03.05 0 .06-.1.04a6.61 6.61 0 0 1-2.32-.54 4.25 4.25 0 0 1-1.21-.81 2.51 2.51 0 0 1-.74-1.41 2.62 2.62 0 0 1 .3-1.58c.02-.01.03-.02.05 0h.01c-.23.57-.23 1.1 0 1.63.15.32.36.62.66.89.26.24.57.45.91.62.13.06.27.14.41.24.63.42 1.3.73 2.03.92Zm6.06-1.42a3.2 3.2 0 0 0 .88-1.4c.02-.08.01-.09-.03-.02-.42.7-1.04 1.3-1.87 1.79a8.44 8.44 0 0 1-2.4.94l.02.01a7 7 0 0 0 2.37-.62c.4-.2.74-.43 1.03-.7Zm-6.12.96.42.05c.42.04.83.04 1.25.01l.3-.02.46-.05a7.52 7.52 0 0 0 2.92-.95v.01c-.8.58-1.78 1-2.96 1.27-.21.05-.43.07-.65.06a8.05 8.05 0 0 1-2.56-.5v-.02l.82.14Z" fill="#CFA96C"/><path d="M8.06 11.95c-.23.02-.45 0-.65-.06a2.38 2.38 0 0 0-.4-.08h-.03a47.78 47.78 0 0 0-.37-.07c-.02-.02-.02-.03.01-.02a1.17 1.17 0 0 1 .17.02.24.24 0 0 0-.13-.04.64.64 0 0 1-.27-.07l-.29-.1c-.02-.01-.02-.02 0-.02a.1.1 0 0 1 .07.02l.05.02.3.07c.01 0 .02 0 .03.02h.01a19.36 19.36 0 0 0 .41.1l.3.07h.01v.02h.02c.26.03.5.06.76.12Z" fill="#A21A1D"/><path d="M6.26 11.75a7.69 7.69 0 0 1 .69.2 31.67 31.67 0 0 0 .1.04 4.97 4.97 0 0 0-.35-.07 1.23 1.23 0 0 1-.38-.13l.01-.01c-.03 0-.05-.01-.07-.03Z" fill="#F88E43"/></svg>