<!-- by TradingView --><svg width="18" height="18" viewBox="0 0 18 18" xmlns="http://www.w3.org/2000/svg"><path fill="#F0F3FA" d="M0 0h18v18H0z"/><path fill-rule="evenodd" d="M5.04 7H2v.51h3.04V7ZM5 8.5H2V9h3v-.5Zm-3 2h3.04c0 .28-.16.5-.36.5H2.36c-.2 0-.36-.22-.36-.5Zm6.7-2.81H7.69L7.42 7h-.77l.27.69H5.65v.5H8.7v-.5Zm-2.38.64h.73L6.38 11h-.79l.73-2.67Zm1.03 0h.74L8.82 11h-.79l-.68-2.67Zm5-1.33h-3.2v.5h1.04l-.22 1.27h-.6v.32h.54l-.24 1.43h-.45v.2c0 .15.12.28.26.28h2.68c.14 0 .26-.13.26-.28v-.2h-.2V8.77H10.7l.21-1.27h1.44V7Zm-1.88 3.52.23-1.43h.86v1.43h-1.09Zm3.1-2.95v.16h.44l.12.48.13-.48h.43l.15.52.14-.52h.41L15.04 9l.35 1.27H15l-.15-.52-.15.52h-.43l-.13-.48-.12.48h-.44V11h-.33c-.13 0-.24-.15-.24-.33V7h3v3.67c0 .18-.1.33-.24.33h-.62v-.36h.29V7.57h-1.86ZM13.91 9l-.34 1.23V7.77L13.91 9Zm.42 0 .13.55.16-.55-.16-.55-.13.55Z" fill="#EB6D00"/></svg>