<!-- by TradingView --><svg xmlns="http://www.w3.org/2000/svg" width="18" height="18"><path fill="#F0F3FA" d="M0 0h18v18H0z"/><path d="M11.33 8.84c.5.01 1.06 0 1.67-.05a5.3 5.3 0 00-1.09-2.93 4.7 4.7 0 01-.58 2.98zm-.21.33a5.08 5.08 0 01-4.57 2.15c-.44.66-.73 1.39-1.05 2.08 3.14 1.6 7.2-.09 7.5-4.2-.7-.05-1.32-.06-1.88-.03z"/><path d="M5.5 4.6c.87 1.89 1.53 4.1 5.83 4.24a4.67 4.67 0 00.58-2.98A5.15 5.15 0 005.5 4.6z" fill="url(#a1lvmfe2o)"/><path d="M11.12 9.17c-2.6.12-3.8 1.03-4.57 2.15l.37.02c1.75 0 3.3-.87 4.2-2.17z" fill="url(#b1lvmfe2o)"/><defs><linearGradient id="a1lvmfe2o" x1="12.76" y1="9.23" x2="5.36" y2="3.87" gradientUnits="userSpaceOnUse"><stop offset=".17" stop-color="#ECECEC"/><stop offset=".21" stop-color="#D6D6D6"/><stop offset=".35" stop-color="#969696"/><stop offset=".49" stop-color="#606060"/><stop offset=".61" stop-color="#373737"/><stop offset=".72" stop-color="#191919"/><stop offset=".82" stop-color="#060606"/><stop offset=".89"/></linearGradient><linearGradient id="b1lvmfe2o" x1="9.52" y1="11.34" x2="8.17" y2="8.64" gradientUnits="userSpaceOnUse"><stop offset=".27" stop-color="#C2C2C2"/><stop offset=".39" stop-color="#909090"/><stop offset=".55" stop-color="#4C4C4C"/></linearGradient></defs></svg>