<!-- by TradingView --><svg xmlns="http://www.w3.org/2000/svg" width="18" height="18"><path fill="#F0F3FA" d="M0 0h18v18H0z"/><path fill-rule="evenodd" d="M9 13c3.31 0 6-1.8 6-4s-2.69-4-6-4-6 1.8-6 4 2.69 4 6 4zm-.63-.64c1.65.1 3.63-.52 3.7-1.8.06-1.28-2.36-2.96-4.18-3.07-2.03-.18-2.53.94-2.6 2.22-.07 1.28 1.08 2.54 3.08 2.65z" fill="url(#atnosqmse)"/><path fill-rule="evenodd" d="M8.47 12.2c1.27.07 3.41-.49 3.4-1.65 0-1.16-1.93-2.45-3.86-2.85-1.74-.36-2.52.83-2.58 2.03-.07 1.2 1.32 2.37 3.04 2.46zm-.65-.27c.98.26 3 0 3.24-.9.14-.48-.4-.86-1.03-1.3l-.2-.15c-.19-.14-.38-.3-.57-.46a5.28 5.28 0 00-.98-.72c-1.23-.61-1.9.3-2.13 1.22-.23.93.36 1.96 1.67 2.31z" fill="#DAA32E"/><defs><linearGradient id="atnosqmse" x1="9" y1="5" x2="9" y2="13" gradientUnits="userSpaceOnUse"><stop stop-color="#6F3E2F"/><stop offset=".33" stop-color="#A6442B"/><stop offset=".64" stop-color="#BC7130"/><stop offset="1" stop-color="#6F3E2F"/></linearGradient></defs></svg>