<!-- by TradingView --><svg width="18" height="18" viewBox="0 0 18 18" xmlns="http://www.w3.org/2000/svg"><path fill="#F0F3FA" d="M0 0h18v18H0z"/><path d="M11.15 4a7.98 7.98 0 0 0-4.7 1.61 5.74 5.74 0 0 0-2.41 4.02 3.66 3.66 0 0 0 .99 3.17c.79.8 1.87 1.2 3.2 1.2.84 0 1.76-.16 2.68-.46.46-.2 1.3-.66 1.65-1.6l.26-.72-.12.04c-1 .37-2.16.75-3.22.75-.9 0-1.6-.27-2.13-.83a2.26 2.26 0 0 1-.53-.92c2.06-.13 3.66-.5 4.9-1.13 1.92-.97 2.5-2.45 2.21-3.5C13.66 4.61 12.63 4 11.15 4ZM9.98 7.9a11 11 0 0 1-3.2.85c.4-1.45 2.02-3.04 3.7-3.04.27 0 .5.1.66.25.12.12.17.29.15.47-.1.77-.95 1.28-1.3 1.46Z" fill="#E1251B"/></svg>