<!-- by TradingView --><svg width="18" height="18" viewBox="0 0 18 18" xmlns="http://www.w3.org/2000/svg"><path fill="#F0F3FA" d="M0 0h18v18H0z"/><circle cx="9" cy="9" r="5" fill="#090005"/><path d="M9.16 6.12c.12.15.18.33.16.52l-.05.47c-.02.2-.08.21-.18.04-.18-.31-.35-.58-.52-.8a2.2 2.2 0 0 1-.45-1.9.09.09 0 0 1 .08-.07l.38-.07c.02 0 .03 0 .03.03.01.71.05 1.13.55 1.78ZM9.82 6.23c-.1.31-.19.3-.25-.01a1.06 1.06 0 0 0-.22-.44 1.64 1.64 0 0 1-.36-1.38c0-.06.04-.08.1-.08l.46.02c.02 0 .04 0 .06.02l.05.05c.31.6.36 1.2.16 1.82Z" fill="#4F8350"/><path d="M9.9 6.81c.43-.67.5-1.41.19-2.22-.05-.12-.01-.16.12-.12l.4.12c.12.04.19.12.2.23.18 1.31-.29 2.1-1.11 3.01a.62.62 0 0 1-.11.1c-.03.02-.08 0-.07-.04.06-.4.19-.76.38-1.08ZM7.74 4.56c-.06.82.1 1.46.62 2.06.27.31.45.69.51 1.09.02.13-.02.14-.1.05-.35-.35-.76-.6-1.04-1-.36-.54-.5-1.21-.42-2.02a.2.2 0 0 1 .13-.17l.2-.08c.05-.02.1.02.1.07Z" fill="#4F8350"/><path d="M7.2 6.48c.22.6.67.9 1.08 1.32.19.18.34.42.45.71.02.04 0 .07-.04.07-.47.06-.53-.34-.8-.59-.33-.32-.72-.65-1.15-.98-.48-.37-.61-1-.64-1.6a.21.21 0 0 1 .1-.2l.66-.4c.07-.04.1-.02.1.05-.03.58.05 1.12.24 1.62ZM10.98 6.53c.22-.52.28-1.05.17-1.58-.02-.11.02-.14.11-.07l.64.42c.08.06.12.14.11.24-.07 1.04-.73 1.84-1.5 2.5-.15.12-.28.26-.41.4a.47.47 0 0 1-.34.15h-.18c-.17.01-.2-.05-.07-.17.6-.61 1.1-1.06 1.47-1.9Z" fill="#4F8350"/><path d="M5.8 5.68c0 1.11.61 1.58 1.48 2.14.11.07.21.16.3.26.04.06.03.08-.04.07-1.11-.1-1.9-.33-2.4-1.43a.42.42 0 0 1 .04-.45c.16-.22.34-.43.54-.62.03-.04.09-.01.08.03ZM12.31 5.87c.03-.12.09-.13.17-.03l.5.66c.08.1.1.22.03.33-.43.87-1.05 1.5-2.12 1.38-.08-.01-.1-.04-.04-.1l.73-.74c.31-.32.56-.82.73-1.5Z" fill="#4F8350"/><path d="M4.32 8.57c.07-.56.22-1.11.47-1.62.02-.03.07-.03.09 0 .33.75.9 1.2 1.73 1.35.29.05.88.07 1.1.26.03.02.02.07-.02.07a10.9 10.9 0 0 1-3.27.06c-.07 0-.1-.05-.1-.12ZM13.62 8.72c-.84.14-2 .28-2.86.02a.14.14 0 0 1-.1-.1.07.07 0 0 1 .07-.09c1.2.1 1.93-.39 2.48-1.4.02-.04.07-.04.09 0a4.37 4.37 0 0 1 .36 1.54.07.07 0 0 1-.04.03ZM4.72 10.93a4.72 4.72 0 0 1-.4-1.85c0-.04.02-.07.06-.06 1.16.08 2.38.05 3.67-.1.02 0 .05 0 .07.02a.1.1 0 0 1 .05.06c.13.56.15 1.17.05 1.82 0 .05-.03.07-.08.07-1.16-.04-2.26 0-3.3.12-.06 0-.1-.02-.12-.08Z" fill="#4F8350"/><path d="M8.65 10.94h-.02v-.03l-.01-.02c-.04-.51-.05-1-.04-1.37 0-.36.04-.57.09-.58h.13c.02 0 .05.04.08.14s.06.23.08.41a11.79 11.79 0 0 1 .15 1.37v.04a.03.03 0 0 1-.02.01l-.44.03ZM10.2 10.93v.03c-.22.01-.43 0-.64-.02a6.09 6.09 0 0 1-.3-1.87c0-.07.04-.1.1-.1l.34-.02c.06 0 .09.03.08.08-.05.58.09 1.21.43 1.9Z" fill="#835836"/><path d="M10.45 10.69a3.28 3.28 0 0 1-.36-1.4c0-.22.1-.31.34-.28.83.1 1.5.12 2.03.06.37-.05.74-.09 1.12-.12.06 0 .1.04.1.1a4.35 4.35 0 0 1-.37 1.74 12.33 12.33 0 0 1-2.56.2c-.22-.01-.22-.15-.3-.3Z" fill="#4F8350"/><path d="M12.93 11.21c.18-.02.21.04.11.18l-.55.77a.45.45 0 0 1-.43.2 67.45 67.45 0 0 1-4.37-.46c-.87-.13-1.68-.22-2.43-.3a.33.33 0 0 1-.24-.13L5 11.44c-.06-.08-.04-.12.06-.13 1.82-.14 3.6-.08 5.4.03.7.03 1.51 0 2.47-.13ZM11.81 12.75a4.67 4.67 0 0 1-6.34-.66c-.07-.1-.05-.13.06-.11 1.57.2 3.16.44 4.75.58.52.05 1.03.1 1.52.13.05 0 .06.02.01.06Z" fill="#0075F7"/></svg>