<!-- by TradingView --><svg width="18" height="18" viewBox="0 0 18 18" xmlns="http://www.w3.org/2000/svg"><path fill="#F0F3FA" d="M0 0h18v18H0z"/><path d="M14.05 10.44a.4.4 0 0 0 .36-.22.55.55 0 0 0 .06-.25H15c0 .2-.05.37-.13.53a1 1 0 0 1-.34.37.86.86 0 0 1-.48.13.93.93 0 0 1-.46-.11.96.96 0 0 1-.33-.32 1.53 1.53 0 0 1-.2-.46 2.41 2.41 0 0 1-.06-.57v-.08c0-.2.02-.4.06-.57.05-.18.11-.33.2-.46.09-.14.2-.24.33-.32a.92.92 0 0 1 .46-.11.88.88 0 0 1 .82.52c.09.17.13.36.13.59h-.53c0-.1-.02-.2-.06-.28a.49.49 0 0 0-.14-.2.35.35 0 0 0-.23-.07c-.1 0-.17.02-.24.07a.5.5 0 0 0-.14.2 1.2 1.2 0 0 0-.08.3l-.02.33v.08l.02.34c.02.1.04.2.08.29a.5.5 0 0 0 .14.2c.07.05.15.07.25.07ZM11.6 11a.96.96 0 0 1-.8-.4c-.1-.13-.17-.28-.23-.45a1.97 1.97 0 0 1-.07-.55v-.1c0-.23.02-.43.07-.61.05-.19.12-.35.22-.48.09-.13.2-.23.32-.3.13-.07.27-.11.42-.11a.83.83 0 0 1 .72.4c.09.12.15.27.19.44.04.18.06.37.06.58v.3h-1.75v-.5h1.21v-.05c0-.1-.02-.21-.05-.3a.49.49 0 0 0-.14-.23.35.35 0 0 0-.24-.08.34.34 0 0 0-.22.07.5.5 0 0 0-.14.19c-.04.08-.07.18-.1.3l-.02.37v.1c0 .13.01.24.04.35.02.1.06.19.11.27a.6.6 0 0 0 .18.17.58.58 0 0 0 .55-.02c.1-.06.18-.15.25-.26l.27.37a1.1 1.1 0 0 1-.19.25.93.93 0 0 1-.28.2.94.94 0 0 1-.39.08ZM7.24 7h.47l.79 3.01L9.29 7h.47L8.7 11H8.3L7.24 7ZM7 7h.46l.09 2.77V11H7V7Zm2.54 0H10v4h-.55V9.77L9.54 7ZM3.59 7v4H3V7h.59Zm1.25 1.73v.6h-1.4v-.6h1.4ZM5 7v.6H3.43V7H5Z" fill="#588006"/></svg>