<!-- by TradingView --><svg width="18" height="18" viewBox="0 0 18 18" xmlns="http://www.w3.org/2000/svg"><path fill="#F0F3FA" d="M0 0h18v18H0z"/><path d="m8.15 12.66-.78-.68c1.76-.68 2.73-2.55 2.73-3.06 0-.5-.39-.5-.39-.84 0-.34 5.08-2.72 5.28-2.55.2.17-2.35 1.36-2.35 1.53 0 .13 1.18-.29 1.76-.51-.32.17-.97.54-.97.68 0 .13.39.05.58 0-.39.22-1.13.71-.98.85.13.1.33.08.48.04-.68.24-1.8.68-1.65.8.16.14.72-.05.98-.16-.98.62-2.93 1.96-2.93 2.37 0 .51 1.17.51 1.17.68 0 .17-.78 0-.98 0-.2 0 0 .34.2.51.2.17-.2.34-.4.34-.19 0-.38-.85-.58-.85-.2 0 0 1.19-.39 1.19s0-1.02-.2-1.19c-.15-.13-.45.51-.58.85Z" fill="#003CD5"/><path d="M7.76 8.76c0-.41.52-.63.78-.68C8.07 7.94 4.77 6.08 3 5c-.2.85 2.6 1.89 2.4 2.06-.2.17-2.15-1.2-2.34-1.02-.2.17 2.15 1.19 1.95 1.36-.2.17-.98-.34-.98-.17 0 .13.92.62 1.37.85h-.39c.4.34 1.96.84 1.76 1.01-.2.17-1.37-.5-1.37-.33 0 .16 1.37.67 1.57.67.2 0 .39.17.2.34-.17.14-.46-.05-.6-.17l.79 2.04c1.17-.5 1.76-1.7 1.76-2.2 0-.52-.4-.52-.6-.52-.15 0-.19.34-.19.51-.13 0-.39-.06-.39-.34 0-.33.2-.17.2-.33 0-.14-.26-.06-.4 0Z" fill="#676765"/></svg>