<!-- by TradingView --><svg width="18" height="18" viewBox="0 0 18 18" xmlns="http://www.w3.org/2000/svg"><path fill="#F0F3FA" d="M0 0h18v18H0z"/><path d="M14 9c0 1.5-.67 2.86-1.72 3.78h-.02c-.6-.2-1.63-.54-1.63-1.71 0-.67.2-.93.3-1.07-.34.2-.93.67-.93 1.74 0 .78.29 1.48.58 2a5 5 0 0 1-3.17 0c.08-3.75 1.82-4.43 2.86-4.43 1.04 0 1.42.32 1.42.62 0 .21-.1.37-.15.45v.03c.19-.14.62-.55.62-1.14 0-.56-.26-1-.4-1.22a.57.57 0 0 1-.07-.17.3.3 0 0 1 .07-.17l.24-.33c-.36-.61-1.36-1.82-2.91-1.82-1.56 0-2.96.88-3.59 1.44.47-.2 1.35-.39 2.16-.39 1.4 0 2.3.77 2.6 1.14-.12.13-.35.31-.46.31a.95.95 0 0 0 0-.43c-.08.13-.3.43-.6.43-.36 0-.51-.41-.51-.58 0-.14.03-.28.07-.36A5.07 5.07 0 0 0 4 9.25L4 9a5 5 0 0 1 10 0Z" fill="#EB1C24"/><path d="M7 11a4.4 4.4 0 0 1 1.07-3c-.02.65.36.78.53.78.16 0 .2-.01.4-.05A3.31 3.31 0 0 0 7 11Z" fill="#EB1C24"/></svg>