<!-- by TradingView --><svg width="18" height="18" viewBox="0 0 18 18" xmlns="http://www.w3.org/2000/svg"><path fill="#F0F3FA" d="M0 0h18v18H0z"/><path d="M5.05 4h7.9c.58 0 1.05.48 1.05 1.06v7.88c0 .58-.47 1.06-1.05 1.06h-7.9C4.47 14 4 13.52 4 12.94V5.06C4 4.48 4.47 4 5.05 4Z" fill="url(#amn514w1i)"/><path d="M7 11H6v2H5v-2H4v-1h1V5.87c0-.48.3-.87.78-.87h6.36c.47 0 .86.4.86.87v6.26c0 .48-.39.87-.86.87H7.67a.67.67 0 0 1-.67-.68V11Zm3-1V8H8v2h2Zm1-2.31v2.6a.7.7 0 0 1-.65.7L8 11v1h4V6H6v4h1V7.54c.05-.33.34-.54.67-.54h2.65c.4 0 .65.3.68.69Z" fill="#F0F3FA"/><path d="M7 11h1l-1 .5V11ZM6 11H5v1l1-.42V11Z" fill="#C5C4C4"/><defs><linearGradient id="amn514w1i" x1="14" y1="8.67" x2="4.17" y2="8.67" gradientUnits="userSpaceOnUse"><stop stop-color="#DDC380"/><stop offset="1" stop-color="#CAA852"/></linearGradient></defs></svg>