<!-- by TradingView --><svg width="18" height="18" fill="none" xmlns="http://www.w3.org/2000/svg"><path fill="#F0F3FA" d="M0 0h18v18H0z"/><path fill-rule="evenodd" clip-rule="evenodd" d="M9 6c.547 0 1 .453 1 1 0 .547-.453 1-1 1-.547 0-1-.453-1-1 0-.547.453-1 1-1ZM12 10c.547 0 1 .453 1 1 0 .547-.453 1-1 1-.547 0-1-.453-1-1 0-.547.453-1 1-1Z" fill="#E00012"/><path fill-rule="evenodd" clip-rule="evenodd" d="M13 8h-2.043C9.325 8 8 9.05 8 11s1.185 3 2.957 3H13v-1.5h-2.043c-.686 0-1.457-.6-1.457-1.5s.771-1.5 1.457-1.5H13V8Z" fill="#00377E"/><path fill-rule="evenodd" clip-rule="evenodd" d="M5 14h1.5V7.333C6.5 6.47 7.168 5.5 8 5.5h2c.815 0 1.45.654 1.5 1.5H13c0-1.745-1.364-3-3.23-3H8.23C6.502 4 5 5.467 5 7.279V14Z" fill="#00377E"/></svg>