<!-- by TradingView --><svg width="18" height="18" viewBox="0 0 18 18" xmlns="http://www.w3.org/2000/svg"><path d="M0 9a9 9 0 1 1 18 0A9 9 0 1 1 0 9Z" fill="#F0F3FA"/><path d="M9 4.33c.5 0 .67.46.67.67H11c0-1.04-.9-2-2-2s-2 .84-2 1.88v4.1s1.33-.02 1.33-1.5V5c0-.2.17-.67.67-.67Zm0 9.33c-.5 0-.67-.46-.67-.67H7C7 14.03 7.9 15 9 15s2-.84 2-1.88V9s-1.33.02-1.33 1.51V13c0 .21-.17.67-.67.67ZM5 8.33c-.2 0-.66.17-.66.67s.46.67.67.67h2.48C8.98 9.67 9 11 9 11H4.88C3.84 11 3 10.1 3 9s.97-2 2-2v1.33Zm8.66.67c0 .5-.46.67-.67.67V11c1.04 0 2.01-.9 2.01-2s-.84-2-1.88-2H9s.02 1.33 1.51 1.33H13c.21 0 .67.17.67.67ZM9 6.67h3.67s-.02-1.34-1.51-1.34H9v1.34ZM6.67 5.33V9H5.33V6.84c0-1.49 1.34-1.5 1.34-1.5ZM11.33 9v3.67s1.34-.02 1.34-1.5V9h-1.34Zm-6 2.33H9v1.34H6.84a1.38 1.38 0 0 1-1.5-1.34Z" fill="#BE2E1E"/></svg>