<!-- by TradingView --><svg width="18" height="18" viewBox="0 0 18 18" xmlns="http://www.w3.org/2000/svg"><path fill="#F0F3FA" d="M0 0h18v18H0z"/><path fill-rule="evenodd" d="M4.15 9.3c-.08-.03-.21-.14-.12-.38l1.2-2.62a.37.37 0 0 1 .15-.16l3.4-2.1c.11-.06.24-.06.35 0l3.36 2c.06.03.1.08.14.15l1.3 2.55c.07.12.15.37-.08.47-.22.1-.37-.08-.42-.19l-1.12-2.5-3.35-1.94L5.7 6.52c-.32.68-1 2.13-1.18 2.47-.17.33-.32.35-.37.31ZM5 10.4V13h8V9.1L11.92 6.8 8.95 5 6.07 6.81 5 9.1v1.3ZM8 8V7h2v1H8Zm1.05 2.41L7.85 9h2.36l-1.16 1.41Zm0 .18L7.85 12h2.36l-1.16-1.41ZM7.5 11.82l1.3-1.34-1.3-1.3v2.64Zm1.73-1.34 1.27 1.34V9.17l-1.27 1.31Z"/></svg>