<!-- by TradingView --><svg width="18" height="18" viewBox="0 0 18 18" xmlns="http://www.w3.org/2000/svg"><path fill="#F0F3FA" d="M0 0h18v18H0z"/><path d="M6.5 7H3v.67h.5v2.66H3V11h2v-.67h-.5v-1h1.13v-.66H4.5v-1H6v1h.5V7ZM8.5 7h.68c.6 0 1.82.4 1.82 2s-1.21 2-1.82 2H7v-.67h.5V7.67H7V7h1.5Zm0 .67v2.66H9c.36 0 1-.53 1-1.33s-.64-1.33-1-1.33h-.5ZM11 7.67V7h1.54v.67h-.3v1.16l1.1-1.16h-.19V7h1.54v.67h-.3L13.14 9l1.54 1.33H15V11h-1.83v-.67h.3l-1.24-1.16v1.16h.3V11H11v-.67h.3V7.67H11Z" fill="#E41C30"/></svg>