<!-- by TradingView --><svg width="18" height="18" fill="none" xmlns="http://www.w3.org/2000/svg"><path fill="#F0F3FA" d="M0 0h18v18H0z"/><path d="M7.421 6.32 6.355 8.68H7.54c.593 0 1.017-.158 1.303-.68H9l-.842 1.84H8c.254-.514-.061-.84-.618-.84H6.197l-.908 1.92c-.331.672-.133.92.553.92l-.079.16H3l.079-.16c.689 0 1.05-.214 1.342-.88l1.776-3.88c.332-.672.134-.92-.552-.92L5.724 6H10l-.553 1.5H9.29c.116-.82-.24-1.18-.986-1.18H7.42ZM14.337 7.5h-.175c.17-.58.379-1.14-.31-1.14H13l-1.817 4.6c-.112.289-.179.5-.183.614-.007.196.296.266.445.266h.21l-.07.16H9l.07-.16h.21c.243 0 .453-.08.627-.24.105-.08.21-.32.349-.64l.88-2.3.864-2.3h-.593c-.739 0-.908.489-1.233 1.14H10l.728-1.5H15l-.663 1.5Z" fill="#0937A8"/></svg>