<!-- by TradingView --><svg width="18" height="18" viewBox="0 0 18 18" xmlns="http://www.w3.org/2000/svg"><path fill="#F0F3FA" d="M0 0h18v18H0z"/><path d="M7.4 5h1.3v2H7.56c-.57.03-1.03.5-1.03 1.02s.46.95 1.03.98h1.16v1.86c-1.12.2-1.97 1.08-1.97 2.14H4v-.14L7.4 5Z" fill="#124C7A"/><path d="M6.98 5 4 12.16V7.82C4 6.28 5.33 5.03 6.98 5ZM9.3 5h1.54C12.6 5 14 6.26 14 7.82a2.7 2.7 0 0 1-1.1 2.13l1.1 2.99V13h-2.74c0-1.06-.84-1.94-1.97-2.14V9h1.1c.6 0 1.1-.44 1.1-.98 0-.53-.5-1.02-1.1-1.02H9.3V5Z" fill="#192E59"/></svg>