<!-- by TradingView --><svg width="18" height="18" viewBox="0 0 18 18" xmlns="http://www.w3.org/2000/svg"><path fill="#F0F3FA" d="M0 0h18v18H0z"/><path d="M8 11.84c.7-.08.64-.52.64-1.23V6.92c0-.61-.06-.72-.62-.75V6h1.62l1.86 4.88L13.52 6H15v.17c-.53.04-.7.24-.7.81v4.04c0 .59.16.76.7.82V12h-2.14v-.16c.6-.06.74-.29.74-.93V6.84L11.34 12h-.11L9 6.69v3.92c0 .68 0 1.23.5 1.23V12H8v-.16ZM3.5 11.84c.56-.08.5-.3.5-.93V6.98c0-.39-.05-.77-.5-.81V6H7v1.3h-.2c-.06-.41-.15-.68-.3-.79-.14-.1-.41-.16-.83-.16H4.9c-.1 0-.16.02-.2.06-.02.04-.03.12-.03.24v2h.67c.57 0 .73-.27.82-.88h.17v2.1h-.17c-.1-.6-.25-.87-.82-.87h-.67v2.02c0 .58.16.77.67.82V12H3.5v-.16Z"/></svg>