<!-- by TradingView --><svg width="18" height="18" viewBox="0 0 18 18" xmlns="http://www.w3.org/2000/svg"><path fill="#F0F3FA" d="M0 0h18v18H0z"/><path d="M13.45 5.38c.02.12.03.23.02.35-.05 1.26-1.55 2.04-2.67 1.29a1.6 1.6 0 0 1-.75-1.3A1.69 1.69 0 0 1 11.75 4c.83 0 1.56.5 1.7 1.38Zm-1.05.26a.62.62 0 0 0-.2-.44.65.65 0 0 0-.9 0 .62.62 0 0 0 0 .88.65.65 0 0 0 .9 0 .62.62 0 0 0 .2-.44Z" fill="#EB6300"/><path d="M4.37 13H3V8.95c.27-.71.76-.95 1.56-.95l3.3.01c.1 0 .14.04.14.13v.72c0 .1-.05.14-.15.14H4.58a.23.23 0 0 0-.16.07.21.21 0 0 0-.06.15v1.1c0 .12.06.18.18.18h3.02a.1.1 0 0 1 .07.03l.03.06v.83c0 .06-.03.09-.1.09h-3.1c-.06 0-.09.03-.09.09V13ZM15 13h-1.32v-2.76l-.03-.01a.05.05 0 0 0-.05.02l-.74 1.26c-.3.57-.79.95-1.41.67-.53-.22-1.02-1.34-1.37-1.94-.05-.09-.08-.08-.08.02V13H8.68V8.62c0-.1.1-.24.27-.43.24-.25.87-.19 1.11-.17.11.01.2.06.25.15l1.48 2.51c.03.06.07.06.1 0l1.45-2.46a.4.4 0 0 1 .14-.14.42.42 0 0 1 .19-.06c.72-.05 1.33 0 1.33.87V13Z" fill="#132B84"/></svg>