<!-- by TradingView --><svg width="18" height="18" viewBox="0 0 18 18" xmlns="http://www.w3.org/2000/svg"><path fill="#F0F3FA" d="M0 0h18v18H0z"/><path fill-rule="evenodd" d="M9 13.86a4.86 4.86 0 1 0 0-9.72 4.86 4.86 0 0 0 0 9.72ZM9 14A5 5 0 1 0 9 4a5 5 0 0 0 0 10Z" fill="#91695D"/><path fill-rule="evenodd" d="M9 12.6a3.6 3.6 0 1 0 0-7.2 3.6 3.6 0 0 0 0 7.2Zm0 .15a3.75 3.75 0 1 0 0-7.5 3.75 3.75 0 0 0 0 7.5Z" fill="#91695D"/><path d="M6.68 8.45v.39c0 .17.1.36.15.53 0-.14.02-.29.04-.43.01-.07.03-.43.2-.43s.18.26.2.35c0 .08-.02.23.06.28.06 0 .09-.17.1-.2.02-.07.04-.24.16-.24.1 0 .17.13.21.18.06.1.11.21.14.29l-.08.02a2.13 2.13 0 0 0-.14-.27c-.02-.04-.07-.13-.13-.15-.05.03-.06.14-.07.18-.03.08-.05.27-.2.27-.15 0-.14-.27-.15-.35 0-.04-.01-.28-.1-.29-.1.05-.1.3-.1.37-.04.22-.05.49-.06.67h-.09c-.08-.23-.17-.46-.22-.7a.54.54 0 0 0-.1.2 1.1 1.1 0 0 0-.04.31l-.1.01-.08-.46.1-.02.02.18c.03-.12.08-.25.2-.32v-.37h.08Zm.65.7Zm-1.18.44-.13-.61.1-.02.12.61-.09.02Z"/><path fill-rule="evenodd" d="M7.95 8.9c-.04-.07-.03-.16-.01-.22.02-.08.06-.2.17-.22-.03.12-.05.33-.16.43Zm.2-.27c-.02.1-.05.23-.14.31a.1.1 0 0 1-.06.03.1.1 0 0 1-.08-.04c-.05-.08-.04-.18-.02-.26.03-.14.12-.3.31-.3h.05c0 .11.02.22.06.32.02.04.06.15.13.15.06 0 .09-.12.1-.16l.03-.3h.1l-.04.32c-.03.08-.07.22-.2.22-.12 0-.17-.13-.2-.2a.97.97 0 0 1-.03-.1Z"/><path d="M11.85 7h.08c.05.41.17 1.14.34 1.9.18.75.42 1.53.73 2.06l-.07.04a8.17 8.17 0 0 1-.73-2.09c-.1-.42-.18-.83-.24-1.18 0 .62-.02 1.28-.03 1.62 0 .12-.1.23-.2.23-.07 0-.11-.05-.14-.1l-.05.4v.1a3.2 3.2 0 0 1-.07.4l-.03.04a.06.06 0 0 1-.04.02c-.03 0-.06-.02-.08-.04a.41.41 0 0 1-.05-.08 5.99 5.99 0 0 1-.25-.73L11 9.6a.94.94 0 0 1-.1.06l-.04.12a.27.27 0 0 1-.05.08.13.13 0 0 1-.09.03.19.19 0 0 1-.14-.07l-.01-.02-.15.24a.84.84 0 0 1-.12.14c-.04.04-.1.07-.14.07a.18.18 0 0 1-.14-.07.68.68 0 0 1-.09-.13c-.02-.05-.04-.09-.07-.11-.02-.03-.04-.05-.07-.05-.02 0-.05.02-.08.07a.73.73 0 0 0-.08.2c-.05.15-.07.34-.07.5h-.08C9.21 9.78 9.05 8.2 9 7.53h.08c.04.62.18 2 .42 2.9 0-.1.03-.2.05-.3a.8.8 0 0 1 .1-.2c.03-.06.07-.1.14-.1.06 0 .1.03.13.06l.08.13a.6.6 0 0 0 .08.12c.02.03.05.04.08.04.02 0 .05-.01.09-.05a.77.77 0 0 0 .11-.13c.07-.1.14-.23.17-.31l.05-.19a.3.3 0 0 1 .05-.08.12.12 0 0 1 .1-.05c.07 0 .12.06.14.12a.4.4 0 0 1 .03.09.77.77 0 0 0 .1-.07v-.02a.42.42 0 0 0 0-.03 4.54 4.54 0 0 0-.06-.37l-.11-.62.08-.01a73.54 73.54 0 0 1 .17 1.02v.01a6.13 6.13 0 0 0 .26.8.34.34 0 0 0 .05.07l.03-.09a3.1 3.1 0 0 0 .04-.4c.02-.2.04-.44.08-.6a.67.67 0 0 1 .07-.19c.02-.04.06-.08.12-.08.04 0 .07.02.1.04 0 .02.02.03.03.05.02-.55.04-1.47-.01-2.08Zm-.23 2.28c0 .06.02.12.04.16.02.05.05.06.07.06.05 0 .12-.06.12-.16a.48.48 0 0 0-.04-.17.22.22 0 0 0-.04-.07l-.04-.02c-.02 0-.03 0-.06.04a.6.6 0 0 0-.05.16Zm-.97.25a.68.68 0 0 0-.04.17v.03l.03.05c.02.03.05.04.08.04l.04-.01a.2.2 0 0 0 .03-.05c.03-.05.04-.1.04-.12 0-.02 0-.07-.03-.12-.02-.04-.04-.07-.08-.07 0 0-.02 0-.03.02a.22.22 0 0 0-.04.06ZM6.04 7c.15 0 .24.14.3.26.06.13.1.29.12.4l-.1.01c-.01-.1-.05-.25-.11-.37-.04-.08-.1-.2-.2-.2-.16 0-.17.43-.17.53-.03.25-.03.53-.03.73.4-.19.83-.37 1.11-.49l.04.1c-.39.15-.77.32-1.15.5a22.22 22.22 0 0 0 .55 2.75c.1.32.18.59.26.73l-.1.05a4.42 4.42 0 0 1-.25-.76 22.32 22.32 0 0 1-.55-2.73c-.23.1-.5.2-.7.37L5 8.81c.2-.19.5-.3.76-.41 0-.2 0-.5.02-.78.01-.17.02-.62.26-.62ZM13.44 8.53l-.03.6-.06.02a4.43 4.43 0 0 1-.13-.92h.07c0 .13.02.39.06.62a8.66 8.66 0 0 1 .08-.74l.02-.04.04-.02c.02 0 .04.02.04.03l.03.05.04.14.05.25a23.52 23.52 0 0 0 .15.6l.07.16.06.09-.04.08a.37.37 0 0 1-.08-.12 5.19 5.19 0 0 1-.19-.62l-.03-.16a9.55 9.55 0 0 0-.1-.39l-.02.08a3 3 0 0 0-.03.3Zm.04-.39Zm-.31 1.09L13 8.48l.07-.03.16.75-.06.03Z"/><path d="M14.44 7.88a.96.96 0 0 1-.03-.13V7.6a.2.2 0 0 1 .08-.12c.04-.03.09-.04.16-.04v.09c-.06 0-.1.01-.13.03a.1.1 0 0 0-.04.07v.1l.02.13.18.3a10.78 10.78 0 0 1 .26-.58l.06.05a21.16 21.16 0 0 0-.28.6l.04.07.03.14a.2.2 0 0 1-.03.13.1.1 0 0 1-.08.03.09.09 0 0 1-.08-.04.24.24 0 0 1-.02-.15v-.03a1.45 1.45 0 0 1 .06-.13l-.16-.28c-.09.22-.17.45-.24.68l.09.29c.15.5.27 1.06.27 1.53 0 .26-.04.5-.1.7-.06.18-.16.33-.29.33-.12 0-.22-.14-.29-.34-.06-.2-.1-.47-.1-.77 0-.3.07-.72.18-1.17.05-.18.1-.38.17-.57l-.27-.72a1.5 1.5 0 0 1-.07.4l-.02.05-.02.02h-.06a.1.1 0 0 1-.05-.05.58.58 0 0 1-.03-.23.58.58 0 0 1 .18-.42l.04-.03.01.04c.09.2.2.49.32.82.07-.22.15-.44.24-.65Zm-.24.9-.13.47c-.11.45-.18.85-.18 1.14 0 .3.04.55.1.74.06.18.14.28.22.28.08 0 .16-.1.22-.28.06-.18.1-.42.1-.66a5.68 5.68 0 0 0-.33-1.7Zm.49-.46a1.18 1.18 0 0 0-.05.12l.01.06.03.01.03-.01.01-.06-.02-.1-.01-.02Zm-.91-.42a.46.46 0 0 0-.06.22c0 .11.01.16.02.18l.01.01c.01 0 .02 0 .02-.02a1.42 1.42 0 0 0 .06-.47.53.53 0 0 0-.05.08Z"/></svg>