<!-- by TradingView --><svg width="18" height="18" viewBox="0 0 18 18" fill="none" xmlns="http://www.w3.org/2000/svg">
<rect width="18" height="18" fill="#F0F3FA"/>
<rect x="5" y="4" width="8" height="10" fill="#00555C"/>
<path d="M5 12.2105V8.98723C5.31685 8.00065 6.34814 5.77297 7.93847 4.75487C7.29112 5.41082 5.82516 7.68896 5.1401 11.554C6.09328 9.41721 8.26571 5.04474 9.33001 4.64882C8.64912 5.93932 7.76834 7.69216 7.06444 8.98271C8.34541 6.98017 10.1411 4.82271 11.6085 4.75487C10.0742 6.3535 6.79159 9.92783 5.93526 11.4361L6.38593 11.243C7.39517 9.89578 10.3209 6.46335 13 4.88908V5.88609C12.0468 6.326 9.50127 8.0024 6.94451 11.1887L7.58676 11.118C8.48387 9.94747 10.8225 7.40145 13 6.58131V7.14692C12.1335 7.6379 10.2369 9.06157 8.26729 11.0035L9.16528 10.9877C10.1439 10.1196 11.9235 8.67346 13 8.15498V8.85021V9.3472C12.1539 9.73536 11.2107 10.3649 10.3054 11.0813L11.1416 11.243L13 10.4236V11.0813V11.7552V12.2105C11.7094 11.6139 8.30257 10.7788 5 12.2105Z" fill="#67B33D"/>
</svg>
