<!-- by TradingView --><svg width="18" height="18" viewBox="0 0 18 18" xmlns="http://www.w3.org/2000/svg"><path fill="#F0F3FA" d="M0 0h18v18H0z"/><path d="M9 12c2.2 0 4-2.3 4-4.96A5.7 5.7 0 0 0 12.5 5 5.6 5.6 0 0 1 14 8.67C14 11.61 11.76 14 9 14s-5-2.39-5-5.33A5.6 5.6 0 0 1 5.5 5 5.7 5.7 0 0 0 5 7.04C5 9.7 6.8 12 9 12Z" fill="url(#axbkm05li)"/><path d="m7 6 2 1.2V10H7V6Z" fill="url(#bxbkm05li)"/><path d="M11 6 9 7.2V10h2V6Z" fill="url(#cxbkm05li)"/><defs><linearGradient id="axbkm05li" x1="9" y1="4.6" x2="9" y2="14" gradientUnits="userSpaceOnUse"><stop stop-color="#DBDBDB"/><stop offset=".61" stop-color="#D3D3D3"/><stop offset="1" stop-color="#848484"/></linearGradient><linearGradient id="bxbkm05li" x1="8.08" y1="6" x2="8.08" y2="10" gradientUnits="userSpaceOnUse"><stop stop-color="#AB7E30"/><stop offset="1" stop-color="#EFB21F"/></linearGradient><linearGradient id="cxbkm05li" x1="9.92" y1="6" x2="9.92" y2="10" gradientUnits="userSpaceOnUse"><stop stop-color="#AB7E30"/><stop offset="1" stop-color="#EFB21F"/></linearGradient></defs></svg>