<!-- by TradingView --><svg width="18" height="18" viewBox="0 0 18 18" xmlns="http://www.w3.org/2000/svg"><path fill="#F0F3FA" d="M0 0h18v18H0z"/><path d="M8.1 12.74c.4.68.33 1.79.25 2.26 0-1.58-1-2.5-1.86-3.32-.25-.23-.48-.44-.68-.67.2-.16.41-.3.63-.45.2.48.59.92.96 1.33.27.29.52.57.7.85Zm-2.82-2.53c.1.26.27.5.48.75.2-.16.43-.32.65-.47-.07-.18-.1-.37-.1-.57 0-.19.01-.42.07-.67-.44.26-.8.58-1.11.92v.04Zm-.04-.12c.32-.35.7-.67 1.16-.94.3-1.23 1.4-2.9 4.5-2.9.83 0 1.5-.1 2.04-.27V5c-.38.08-.8.13-1.27.13-2.3 0-3.83.28-5.11 1.97-.09-.56-.56-1.69-1.8-1.69.26.19.78.68.78 1.13 0 .16-.07.42-.15.73a5.37 5.37 0 0 0-.15 2.82Zm8.04-5.17v.93l.35-.16v-.88c-.11.04-.23.08-.35.1Zm.69-.24v.8a3 3 0 0 0 .34-.27v-.7l-.34.17Zm.69-.39v.53c.21-.3.31-.6.34-.82-.08.08-.19.19-.34.3Z" fill="#006F2D"/><path d="M9.02 8.46c-3.6.23-4.84 2.99-5.02 4.34a8.47 8.47 0 0 1 2.9-2.6c1.6-.87 3.98-.58 5.3-.87 1.05-.24 1.85-1.45 2.11-2.03-.26.29-1.69.93-5.29 1.16Z" fill="#FE0002"/></svg>