<!-- by TradingView --><svg width="18" height="18" viewBox="0 0 18 18" xmlns="http://www.w3.org/2000/svg"><path fill="#0B2A89" d="M0 0h18v18H0z"/><path d="m16 5-4 2h1.6a4.69 4.69 0 0 0 .45 5c-.48-2.62.7-5.15 1.95-7Z" fill="#DA291C"/><path d="M9 7h1.38c.79 0 1.21.41 1.21 1.02 0 .5-.27.8-.57.89v.01c.39.1.68.4.68.92 0 .73-.5 1.16-1.29 1.16H9V7Zm1.27 1.54c.37 0 .53-.16.53-.46 0-.28-.17-.46-.52-.46H10v.92h.27Zm.02 1.84c.36 0 .51-.26.51-.61 0-.36-.14-.62-.5-.62H10v1.23h.3ZM6.43 7h.93l1.39 4h-.9l-.33-1H6.18l-.32 1H5l1.43-4Zm.95 2.46-.32-.99c-.07-.24-.15-.47-.19-.65h-.01l-.2.65-.33 1h1.05ZM3 7h2.4v.62H4v.92h1.1v.61H4V11H3V7Z" fill="#fff"/></svg>