<!-- by TradingView --><svg width="18" height="18" viewBox="0 0 18 18" xmlns="http://www.w3.org/2000/svg"><path fill="#F0F3FA" d="M0 0h18v18H0z"/><path d="M5.75 7.46H5C5.01 6.66 6.6 6 8.55 6c1.55 0 2.86.41 3.35.98-.5-.44-1.62-.76-2.95-.76-1.75 0-3.18.55-3.2 1.24Z" fill="#87C964"/><circle cx="10" cy="5" r="1" fill="#273368"/><path d="m7.65 5-.36 1.28c.35.49 1.06 1.97 1.06 3.93 0 2.9-1.8 4.2-2.35 4.79a6.5 6.5 0 0 0 3-5.62C9 7.67 8.1 5.75 7.65 5Z" fill="#53B74F"/><path d="M13.53 5.22 14 4c-3.9 1.54-5 4.74-5 6.29A8 8 0 0 0 9.48 13c-.1-.5-.26-1.72-.18-2.57.27-2.79 2.93-4.64 4.23-5.21Z" fill="#273368"/><path d="M9.5 12c2.49 0 4.5-.82 4.5-1.83 0-1.02-2.01-1.84-4.5-1.84 2.1 0 3.8.7 3.8 1.57 0 .87-1.7 1.57-3.81 1.57-2.1 0-3.82-.7-3.82-1.57 0-.85 1.65-1.54 3.7-1.57C6.95 8.36 5 9.17 5 10.17S7.01 12 9.5 12Z" fill="#BEE398"/><path d="M9 11c2.2 0 4-.82 4-1.83 0-.28-.14-.55-.39-.79.15.17.22.36.22.55 0 .88-1.6 1.52-3.58 1.52s-3.57-.64-3.57-1.52c0-.86 1.53-1.57 3.45-1.6H9c-2.2 0-4 .82-4 1.84 0 1 1.8 1.83 4 1.83Z" fill="#99D877"/><path d="M5 7.46C5 8.31 6.59 9 8.55 9c1.48 0 2.76-.4 3.29-.96-.52.44-1.62.74-2.89.74-1.76 0-3.2-.58-3.2-1.3v-.02H5Z" fill="#87C964"/></svg>