<!-- by TradingView --><svg width="18" height="18" viewBox="0 0 18 18" fill="none" xmlns="http://www.w3.org/2000/svg">
<rect width="18" height="18" fill="#F0F3FA"/>
<path fill-rule="evenodd" clip-rule="evenodd" d="M9 14C11.7614 14 14 11.7614 14 9C14 6.23858 11.7614 4 9 4C6.23858 4 4 6.23858 4 9C4 11.7614 6.23858 14 9 14ZM9 12C10.6569 12 12 10.6569 12 9C12 7.34315 10.6569 6 9 6C7.34315 6 6 7.34315 6 9C6 10.6569 7.34315 12 9 12Z" fill="url(#paint0_linear_5071_140153)"/>
<path fill-rule="evenodd" clip-rule="evenodd" d="M14 9.00001C14 11.7614 11.7614 14 8.99998 14C7.001 14 5.276 12.8269 4.47583 11.1316C6.07037 12.7616 8.09584 12.4186 9.13447 11.997C10.7289 11.9267 12 10.6118 12 9.00001C12 7.35919 10.6827 6.02603 9.04798 6.00038C11.4497 5.58568 12.8584 6.07654 13.4387 6.69602C13.7973 7.38551 14 8.16909 14 9.00001Z" fill="url(#paint1_linear_5071_140153)"/>
<defs>
<linearGradient id="paint0_linear_5071_140153" x1="10.9131" y1="4.62892" x2="9" y2="14" gradientUnits="userSpaceOnUse">
<stop offset="0.0178396" stop-color="#F0B700"/>
<stop offset="0.154715" stop-color="#EF9922"/>
<stop offset="0.327672" stop-color="#FB7737"/>
<stop offset="0.523499" stop-color="#E75F2D"/>
<stop offset="0.702608" stop-color="#F26515"/>
<stop offset="0.876159" stop-color="#FF8230"/>
<stop offset="1" stop-color="#D9D9D9" stop-opacity="0"/>
</linearGradient>
<linearGradient id="paint1_linear_5071_140153" x1="9.23791" y1="5.84689" x2="5.7603" y2="13.0377" gradientUnits="userSpaceOnUse">
<stop stop-color="#FF7734"/>
<stop offset="0.220112" stop-color="#ED582D"/>
<stop offset="0.546669" stop-color="#EC6140"/>
<stop offset="0.801228" stop-color="#EC822C"/>
<stop offset="1" stop-color="#EBC403"/>
</linearGradient>
</defs>
</svg>
