<!-- by TradingView --><svg width="18" height="18" viewBox="0 0 18 18" xmlns="http://www.w3.org/2000/svg"><path fill="#0066EC" d="M0 0h18v18H0z"/><path d="M8.76 11.98c-1.31-.06-2.52-1.1-2.62-2.3-.06-.63.17-1.42.6-1.88.4-.43.9-.7 1.5-.8H11.62a2.83 2.83 0 0 0 .63-.07 1.86 1.86 0 0 0 1.35-1.09c.07-.15.14-.24.2-.33.06-.07.11-.14.16-.23.05-.1.07-.19-.03-.25a.35.35 0 0 0-.17-.03H9.1c-.28 0-.5 0-.64.02A4.88 4.88 0 0 0 4.45 7.6a4.2 4.2 0 0 0 .15 4.06A4.93 4.93 0 0 0 8.66 14c.26 0 .45-.01.59-.05.74-.24 1.02-.96.55-1.54-.16-.2-.38-.33-.66-.4a2.83 2.83 0 0 0-.38-.03Zm-.2-3.93c-1.1.44-1.1 2.46 0 2.9.1.03.27.05.52.05h.74c.3 0 .51-.01.64-.04.48-.1.87-.42 1.17-.94.09-.14.19-.39.3-.73.08-.22.2-.53.33-.93.05-.11.06-.24-.02-.31-.04-.03-.09-.05-.16-.05H8.97c-.19 0-.32.02-.42.05Z" fill="#fff"/></svg>