<!-- by TradingView --><svg width="18" height="18" viewBox="0 0 18 18" xmlns="http://www.w3.org/2000/svg"><path fill="#F0F3FA" d="M0 0h18v18H0z"/><path d="M11.78 9.45c-1.32-.95-2.25.17-2.58.82h.99c.32 0 .9-.96 1.59-.82Z" fill="#FBA827"/><path d="M9.32 10.2h.87l.1-.04.14-.1c.06-.04.11-.1.18-.14V9.9l.2-.15c.2-.17.44-.34.71-.38-.24-.13-.46-.2-.66-.21-.26-.02-.5.05-.7.16-.38.2-.66.57-.84.87ZM10.87 9c.3.02.62.14.95.38l-.06.13c-.3-.06-.59.12-.86.34l-.18.15-.02.02a5.27 5.27 0 0 1-.34.26.37.37 0 0 1-.17.05H9.08l.05-.1c.17-.34.5-.8.95-1.05.23-.12.5-.2.8-.18Z" fill="#027447"/><path d="M9.3 8c-1.84-.76-3.16 1.2-3.59 2.27.05.03.25.1.66.1.5 0 1.29-1.06 1.82-1.7.42-.5.92-.65 1.11-.67Z" fill="#FBA827"/><path d="M5.8 10.23a2.25 2.25 0 0 0 .56.07c.11 0 .24-.06.39-.16.15-.1.3-.26.47-.43.23-.25.47-.54.68-.8l.23-.28c.3-.37.65-.56.9-.64-.78-.23-1.46.04-2 .51-.58.5-1 1.2-1.22 1.73Zm1.13-1.84c.63-.54 1.45-.85 2.4-.45l-.02.14a1.7 1.7 0 0 0-1.06.64L8.02 9c-.22.26-.46.56-.7.81-.16.18-.33.33-.48.45a.85.85 0 0 1-.47.19c-.2 0-.36-.02-.48-.05a.65.65 0 0 1-.22-.07l-.05-.04.02-.05c.22-.54.66-1.31 1.29-1.85Z" fill="#027447"/><path d="M5.74 7.08C3.5 7.1 2.38 9.25 2.1 10.3h.55c.91 0 1.7-1.7 3.09-3.22Z" fill="#FBA827"/><path d="m5.9 7-.1.13c-.49.53-.9 1.07-1.26 1.56l-.47.62c-.24.3-.47.57-.7.76-.23.19-.46.3-.72.3H2l.03-.09c.14-.53.5-1.34 1.1-2.02A3.49 3.49 0 0 1 5.73 7h.18Zm-3.7 3.23h.45c.2 0 .4-.1.63-.27.21-.18.43-.44.67-.74l.46-.6c.34-.46.72-.97 1.16-1.46-1 .06-1.77.57-2.32 1.2-.56.62-.9 1.35-1.05 1.87Z" fill="#027447"/><path d="M7.7 7.44c-2.06-.46-3.23 1.68-3.56 2.79h.49c.12 0 .5-.1 1.41-1.38.78-1.09 1.48-1.38 1.67-1.41Z" fill="#FBA827"/><path d="M4.25 10.16h.38c.03 0 .14-.02.36-.2.22-.18.54-.52.99-1.15a4.1 4.1 0 0 1 1.45-1.35c-.88-.1-1.58.29-2.1.84-.55.57-.91 1.32-1.08 1.86Zm.97-1.96a2.57 2.57 0 0 1 2.5-.83v.14c-.16.03-.85.3-1.62 1.38-.46.64-.78 1-1.01 1.18-.23.2-.38.23-.46.23h-.58l.02-.1c.17-.55.55-1.38 1.15-2Z" fill="#027447"/><path d="M10.39 8.64c-1.32-.74-2.35.75-2.7 1.59.23.1.85.12 1.46-.67.6-.8 1.08-.94 1.24-.92Z" fill="#FBA827"/><path d="M7.78 10.19c.25.06.78.02 1.31-.68.3-.4.58-.64.8-.78.1-.06.18-.1.26-.12-.24-.1-.47-.11-.68-.08-.27.05-.52.19-.75.37-.43.36-.75.88-.94 1.29Zm1.67-1.8c.3-.05.63 0 .98.19l-.05.13c-.06 0-.2.02-.4.15-.2.12-.47.35-.77.74-.62.82-1.28.82-1.56.7l-.06-.03.02-.07c.18-.42.54-1.02 1.02-1.41.24-.2.51-.35.82-.4Z" fill="#027447"/><path d="M11.07 10.4c.53-.8 1.37-.56 1.87.04-.38.62-1.44.67-1.87-.03Z" fill="#FBA827"/><path d="M11.16 10.4c.2.3.53.45.86.45.33 0 .65-.14.83-.4a1.37 1.37 0 0 0-.84-.48c-.3-.03-.6.08-.85.44Zm.86-.58c.37.04.72.27.98.58l.03.04-.02.04c-.21.34-.6.51-.99.52-.38 0-.78-.18-1.01-.56l-.03-.03.03-.04c.28-.43.64-.59 1.01-.55Z" fill="#027447"/><path opacity=".7" d="M13.02 10.43C12.54 9.8 9.05 7.5 5.87 7H7.4c4.8.08 7.88 2.48 8.61 3.43h-2.98Z" fill="#027447"/></svg>