<!-- by TradingView --><svg width="18" height="18" viewBox="0 0 18 18" xmlns="http://www.w3.org/2000/svg"><path fill="#4784E8" d="M0 0h18v18H0z"/><path d="M5.95 4.75c.23.32.25.67.08 1.05-.14.28-.3.52-.5.73A7.53 7.53 0 0 1 4 7.71H4V5c0-.33.04-.54.09-.66.1-.23.32-.35.65-.35h8.4c.24 0 .4.02.5.06.18.07.3.22.33.43.02.1.03.34.03.72v8.1c0 .3-.12.5-.35.61-.1.05-.3.08-.6.08h-8.1c-.28 0-.47-.03-.58-.08a.6.6 0 0 1-.3-.33 1.2 1.2 0 0 1-.07-.43v-1.62c0-.05.04-.12.12-.2a5.4 5.4 0 0 1 2.55-1.46A10 10 0 0 1 8.4 9.5c.64-.07 1.76.05 1.79.93 0 .21-.02.4-.09.58-.01.05 0 .05.04.02.3-.26.54-.55.7-.86.12-.22.18-.42.18-.6 0-.48-.4-.87-.8-1.1a3.88 3.88 0 0 0-1.4-.46 6.86 6.86 0 0 0-3.18.42 8.64 8.64 0 0 0-1.63.8L4 9.23V7.9c0-.03.02-.04.04-.05.93-.39 1.91-.65 2.95-.8.62-.1 1.2-.11 1.73-.06a4.8 4.8 0 0 1 1.88.56c.52.3.92.72 1.2 1.27a2 2 0 0 1 .1 1.56 2.74 2.74 0 0 1-1.03 1.42c-.6.43-1.29.75-2.05.94a23.92 23.92 0 0 1-1.1.23l-.01-.02v-.01l.51-2.63c0-.04 0-.05-.04-.05l-1.84.29a.05.05 0 0 0-.04.04l-.85 3.17c0 .02 0 .04.03.04a19.95 19.95 0 0 0 3.4-.29c.13-.02.43-.1.9-.22a7.54 7.54 0 0 0 1.62-.64 4.66 4.66 0 0 0 1.81-1.7c.3-.5.48-1 .53-1.48.08-.8-.13-1.52-.6-2.18a5.57 5.57 0 0 0-2.42-1.81 9.09 9.09 0 0 0-1.62-.5 13.6 13.6 0 0 0-3.12-.28c-.04 0-.05.02-.03.05Zm-.67.68v-.01l-.1-.44a.03.03 0 0 0-.05 0l-.25.36-.01.01-.44.1a.03.03 0 0 0 0 .04l.36.25.01.02.1.43a.03.03 0 0 0 .03.02h.01l.25-.38h.02l.43-.1a.03.03 0 0 0 .01-.05l-.37-.25Z" fill="#F9F9F9"/></svg>