<!-- by TradingView --><svg width="18" height="18" viewBox="0 0 18 18" xmlns="http://www.w3.org/2000/svg"><path fill="#F0F3FA" d="M0 0h18v18H0z"/><path d="M15 8.25V11H3V8.25A8.93 8.93 0 0 1 8.88 6 8.55 8.55 0 0 1 15 8.25Z" fill="#016342"/><path fill-rule="evenodd" d="M14.75 8.35a8.37 8.37 0 0 0-5.87-2.1 8.8 8.8 0 0 0-5.63 2.1v2.4h11.5v-2.4Zm.25-.1A8.55 8.55 0 0 0 8.87 6c-3.1.1-5.2 1.54-5.87 2.25V11h12V8.25Z" fill="#FFE600"/><path fill-rule="evenodd" d="M14.88 8.3a8.46 8.46 0 0 0-6-2.17A8.87 8.87 0 0 0 3.12 8.3v2.57h11.75V8.3Zm.12-.05A8.55 8.55 0 0 0 8.87 6c-3.1.1-5.2 1.54-5.87 2.25V11h12V8.25Z" fill="#BD0013"/><path d="M5.06 7.69c-.08.14-.14.46.24.54.25.06.47-.03.7-.14.22-.09.45-.19.73-.19.34 0 .49.1.62.2.1.07.18.13.34.13.36 0 .36-.22.24-.33-.08.11-.26.29-.36.11l-.1-.16c-.07-.1-.1-.16-.02-.16h.24c-.04-.08-.2-.22-.48-.22 0-.07-.05-.22-.24-.22s-.24.07-.24.1c.08 0 .24.03.24.12 0 .1 0 .22-.12.22-.06 0-.09-.06-.12-.11-.03-.06-.06-.11-.12-.11-.04 0-.1.03-.17.06-.1.06-.23.12-.3.05-.12-.11 0-.33.12-.33-.2 0-.63.07-.72.33-.12.32-.24.54-.36.43-.1-.08-.12-.25-.12-.32Zm1.08.54c.08-.07.26-.22.35-.22.06 0 .1.03.12.06.03.03.06.05.12.05.05 0 .08-.01.1-.03.04-.02.07-.03.14.03.1.1.2.11.24.11H6.13ZM12.94 7.69c.08.14.14.46-.24.54-.25.06-.47-.03-.7-.14a1.8 1.8 0 0 0-.73-.19c-.34 0-.49.1-.62.2-.1.07-.18.13-.34.13-.36 0-.36-.22-.24-.33.08.11.26.29.36.11l.1-.16c.07-.1.1-.16.02-.16h-.24c.04-.08.2-.22.48-.22 0-.07.05-.22.24-.22s.24.07.24.1c-.08 0-.24.03-.24.12 0 .1 0 .22.12.22.06 0 .09-.06.12-.11.03-.06.06-.11.12-.11.04 0 .1.03.17.06.1.06.23.12.3.05.12-.11 0-.33-.12-.33.2 0 .63.07.72.33.12.32.24.54.36.43.1-.08.12-.25.12-.32Zm-1.08.54c-.08-.07-.26-.22-.35-.22-.06 0-.1.03-.12.06-.03.03-.06.05-.12.05a.18.18 0 0 1-.1-.03c-.04-.02-.07-.03-.14.03a.4.4 0 0 1-.24.11h1.08Z" fill="#FFE600"/><path d="M9 6.88c-.86 0-1.81.24-2.17.36l-.16-.48c.4-.13 1.4-.38 2.33-.38a7.9 7.9 0 0 1 2.36.4l-.22.44A7.4 7.4 0 0 0 9 6.87Z" fill="#FFE600" fill-opacity=".6"/><path fill="#D9D9D9" d="M4 8.5h10v2H4z"/></svg>