<!-- by TradingView --><svg width="18" height="18" viewBox="0 0 18 18" xmlns="http://www.w3.org/2000/svg"><path fill="#181B1E" d="M0 0h18v18H0z"/><path d="M14 9v2.65c-.41.12-1.33.35-2.2.35C9.68 12 9 10.8 9 8.9 9 7.2 9.6 6 11.75 6c1.46 0 2.1.6 2.17 1.28h-1.17c-.04-.31-.3-.87-1.14-.87-1.4 0-1.61 1.45-1.61 2.57 0 1.42.49 2.61 2.01 2.61.38 0 .72-.06.99-.14V10.1c0-.78-.15-.76-1-.91V9h2ZM5 12V7.21c0-.88-.24-.88-1-1.01V6h4v1.32h-.23c0-.71-.36-.9-.9-.9h-.35c-.41 0-.52.03-.52.46v1.7h.7c.59 0 .64-.29.69-.58h.23v1.5h-.23c0-.48-.19-.5-.68-.5H6v3H5Z" fill="#A6324B"/></svg>