<!-- by TradingView --><svg width="18" height="18" viewBox="0 0 18 18" xmlns="http://www.w3.org/2000/svg"><path fill="#F0F3FA" d="M0 0h18v18H0z"/><path d="M9.46 9.62a1.22 1.22 0 0 0-1.23-1.18c-1.63.03-3.28 2.1-4.04 3.58a.34.34 0 0 1-.1.12.05.05 0 0 1-.05 0l-.02-.02L4 12.1c-.04-.21.05-.5.1-.7.15-.45.33-.88.56-1.3.3-.55.62-1.06.99-1.54.95-1.24 2.05-2.3 3.3-3.17.5-.36 1.03-.66 1.57-.9a5.5 5.5 0 0 1 1.4-.45c.46-.07.93-.06 1.35.16.46.23.7.74.72 1.3 0 .3-.02.6-.1.9-.1.42-.24.83-.43 1.22-.17.36-.34.69-.52.98a13.98 13.98 0 0 1-4 4.17.74.74 0 0 1-.54.1c-.25-.07-.36-.34-.32-.62.04-.23.13-.44.26-.62.45-.62 1.13-1.15 1.11-2.01Z" fill="#58194E"/><path d="M5.58 13.67c.45-.44.55-1.14.23-1.57-.32-.43-.94-.43-1.39.01-.45.44-.55 1.14-.23 1.57.32.43.94.43 1.39-.01Z" fill="#58194E"/></svg>