<!-- by TradingView --><svg width="18" height="18" viewBox="0 0 18 18" xmlns="http://www.w3.org/2000/svg"><path fill="#F0F3FA" d="M0 0h18v18H0z"/><path fill-rule="evenodd" d="M6.45 3C5.65 3 5 3.64 5 4.43V9h8V4.43C13 3.64 12.35 3 11.55 3h-5.1Zm4.27 3H7V5h4.72c.19 0 .28-.08.28-.24v-.52c0-.16-.1-.24-.28-.24H6.28C6.1 4 6 4.08 6 4.24v3.52c0 .16.1.24.28.24h.44c.19 0 .28-.08.28-.24V7h3.72c.19 0 .28-.28.28-.44v-.25c0-.16-.1-.31-.28-.31Z" fill="#D32633"/><path d="M6.45 15C5.65 15 5 14.36 5 13.57V9h8v4.57c0 .79-.65 1.43-1.45 1.43h-5.1Zm-.46-2.99c0 1.3.8 1.99 2.06 1.99h.98c.8 0 1.51-.15 2-.83h.02v.59c0 .16.08.24.25.24h.45c.17 0 .25-.08.25-.24v-1.88c0-.16-.08-.24-.25-.24h-2.5c-.17 0-.25.08-.25.24v.25c0 .16.08.24.25.24H11v.14c-.5.49-1.97.49-2.79.49C7.35 13 7 12.84 7 12s.35-1 1.21-1h3.54c.17 0 .25-.08.25-.24v-.52c0-.16-.08-.24-.25-.24h-3.7C6.8 10 6 10.74 6 12.01Z" fill="#211E1F"/></svg>