<!-- by TradingView --><svg width="18" height="18" viewBox="0 0 18 18" xmlns="http://www.w3.org/2000/svg"><path fill="#F0F3FA" d="M0 0h18v18H0z"/><path d="M8.4 11.62v.04a1.4 1.4 0 0 1-.09.34c-.01.02-.05.03-.06 0a6.5 6.5 0 0 1-.16-.33c-.13-.29-.17-.6-.12-.91 0-.02.05-.02.06 0l.04.22c0 .02.02.02.03 0 .03-.03.03-.1.02-.17-.04-.22-.09-.44-.16-.67 0-.02-.02-.03-.04-.03l-.02.02a.34.34 0 0 0-.07.24c0 .1.03.2.01.33-.02.2-.02.33 0 .39.15.63.2 1.22.24 1.87 0 .01 0 .02-.03.03h-.03v-.01c-.03-.45-.02-.93-.13-1.37a6.46 6.46 0 0 0-.11-.36c-.1-.28-.16-.56-.18-.84 0-.03-.04-.05-.07-.03-.02 0-.03.03-.04.06 0 .1 0 .21.03.32.1.49.26 1 .27 1.5l.01.54c0 .02-.03.02-.04 0l-.02-.3c0-.4-.06-.86-.32-1.17-.1-.13 0-.62-.38-.5-.02.01-.03.02-.01.04.4.59.68 1.07.6 1.74l-.05.42c-.01.1-.1.18-.09.1.02-.06.05-.1.05-.17 0-.1 0-.19.02-.28 0-.04-.04-.08-.09-.07l-.45.06c-.42.02-.68.34-1.01.54a1.9 1.9 0 0 0-.36.28.11.11 0 0 1-.06.03h-.07c-.13-.06-.2-.27-.3-.46-.1-.25-.25-.4-.22-.69.04-.31.1-.6.26-.87a7.53 7.53 0 0 0 .65-1.79c0-.13.03-.26.08-.4.1-.34.23-.6.62-.6a.3.3 0 0 1 .17.05c.03.02.08.02.13-.01.23-.15.43-.33.66-.48.02-.01.08.02.05.04l-.55.43a.36.36 0 0 0-.1.13c-.04.11.48.05.53.05.03 0 .05-.02.04-.05-.05-.22-.02-.21.2-.33a.05.05 0 0 0 .02-.03l.04-.22c0-.01 0-.02.02-.03l.17-.14a.04.04 0 0 0 0-.07l-.43-.24H7.5c-.28.12-.3.38-.29.65a.02.02 0 0 1-.03.02.16.16 0 0 1-.08-.12.7.7 0 0 1 .26-.62v-.03c-.1-.13-.16-.26-.2-.38l-.12-.45c-.01-.03 0-.06.04-.07.13-.04.27.16.4.3.07.08.14.14.23.2h.02c.14-.22.24-.47.28-.73.05-.27.63-.7.84-.89a.09.09 0 0 0 .03-.09c-.04-.11-.09-.2-.03-.32.1-.21.25-.38.45-.5a.06.06 0 0 0 .02-.08.4.4 0 0 1 0-.31c.13-.27.22-.53.27-.78a.17.17 0 0 1 .16-.13c.32-.01.6-.05.86-.13.3-.08.58-.33.89-.35.23 0 .45.02.67.1.14.04.21.04.34-.02a.04.04 0 0 1 .03 0 .03.03 0 0 1 .01.04c-.01.14.02.35-.02.5l-.09.22c-.1.22-.09.43-.05.66.02.15-.01.4-.09.57-.07.15-.1.35-.2.5-.16.2-.3.36-.37.6-.02.06-.03.3-.04.7 0 .07-.04.14-.1.23-.1.13-.15.24-.18.31a4.43 4.43 0 0 1-.12.34c0 .01.01.02.03.02.18-.04.35.07.54 0 .02 0 .05.02.05.04 0 .07 0 .15-.03.24 0 .01 0 .02.02.02.17-.01.23.04.36.13l.04.01c.15 0 .27-.08.42.05.2.18.36.6.21.87l-.17.33c-.04.08 0 .24-.1.35a1.7 1.7 0 0 1-.28.24v.02a.5.5 0 0 1 0 .24l-.02.03a.34.34 0 0 1-.24-.02c-.04-.02-.07 0-.1.02-.03.04-.05.1-.1.15a22.69 22.69 0 0 1-.48.4v.04c.01.1.06.2.02.27a.85.85 0 0 1-.08.14c-.25.32-.55.57-.85.84-.09.08-.27.18-.38.21-.3.09-.53.42-.75.63-.27.27-.7.9-1.08.97a.23.23 0 0 1-.2-.04c-.15-.11-.14-.43-.11-.6 0-.05.08-.07.12-.02.05.06.2.21.3.14.11-.07.25-.18.4-.32a.13.13 0 0 0 .04-.08.9.9 0 0 1 .33-.6l.4-.3c.03-.01.13-.1.08-.14-.11-.1-.3-.1-.42-.22a6.83 6.83 0 0 1-.52-.6.26.26 0 0 0-.17-.11c-.05 0-.09.03-.08.07.01.22.1.5.1.72.02.2 0 .43-.07.67-.03.14-.08.3-.16.5-.02.05.02.09.05.14.02.06 0 .07-.04.03-.09-.05-.1-.12-.07-.21.12-.33.19-.67.2-1.02 0-.11 0-.23-.05-.36 0-.03-.02-.03-.05-.02ZM9 5.75c-.28.22-.8.52-.89.88a4.64 4.64 0 0 1-.25.77l.02.02c.2.08.39.1.6.05.24-.06.46-.1.68-.14.53-.07 1.04.02 1.5.28.14.07.26.15.36.22.03.02.07 0 .08-.03.04-.18.1-.34.18-.48l.24-.45c.11-.21.07-.4.03-.66 0-.05 0-.1.02-.17.1-.26.37-.44.46-.69.04-.13.05-.27.12-.41.06-.13.09-.21.09-.25 0-.25.01-.5.05-.75.02-.22.24-.57-.07-.68a3.4 3.4 0 0 0-.28-.08c-.53-.14-.99.2-1.47.34-.12.03-.74-.04-.75.13-.02.2-.07.37-.17.54a.71.71 0 0 0-.12.34l.01.3a.1.1 0 0 1-.07.1.63.63 0 0 0-.38.34c-.07.14 0 .27.04.4.01.03 0 .06-.03.08Zm.72 2.3c.26.25.29.7.25 1.03 0 .03-.06 0-.06-.02L9.9 8.8c0-.03-.08-.1-.09-.04-.02.14.02.38-.17.4l-.04.02-.01.04v.6c0 .03.04.05.07.03l.33-.28c.15-.14.34-.23.55-.28.12-.03.14.07.32-.05.14-.1.3-.18.34-.28a.7.7 0 0 0-.05-.67 1.5 1.5 0 0 0-.43-.5 2.7 2.7 0 0 0-.83-.35 1.53 1.53 0 0 0-.65.01c-.1.02-.14.06-.13.14 0 .04.05.07.08.1.02.02 0 .05-.02.05-.15 0-.3.03-.38.14-.01.02 0 .06.03.06l.27.03c.06 0 .22.05.19.13 0 .03-.04.04-.06.03-.1-.04-.15-.07-.18-.07-.18-.05-.3.02-.36.2 0 0 0 .02.02.02a3 3 0 0 0 .3-.02c.25-.02.39.28.43.46.02.05.05.07.1.07h.02c.04 0 .06-.03.05-.07l-.03-.16c0-.02 0-.03.02-.03h.17c.04 0 .08-.03.07-.07a.84.84 0 0 0-.19-.38c-.03-.05.05-.05.08-.03Zm2.45.21a31.7 31.7 0 0 1-.16-.08.34.34 0 0 0-.19.07c-.1.08-.21.2-.36.36-.1.11-.18.38-.02.5.35.25.52.52.82.8h.05a.6.6 0 0 0 .35-.48c0-.05.02-.1.06-.14.23-.31.2-.57-.02-.87-.1-.15-.27-.12-.41-.12a.23.23 0 0 1-.12-.04Zm-5.91 1.97.12-.2a.04.04 0 0 0-.02-.05c-.11-.06-.15-.14-.1-.27.08-.15.12-.3.13-.42.02-.13.11-.2.22-.3.04-.04.03-.06-.01-.09h-.02a.1.1 0 0 0-.11 0c-.18.14-.33.26-.37.45l-.1.58c-.06 1.4-.89 1.53-.9 2.34-.02.32.1.49.22.76.06.12.13.3.23.37a.08.08 0 0 0 .09 0c.08-.07.14-.16.22-.2.33-.19.71-.66 1.11-.68l.56-.03c.02 0 .04-.01.04-.03-.03-.43-.15-.81-.36-1.16a15.26 15.26 0 0 0-.27-.41 1.36 1.36 0 0 1-.63-.13c-.07-.05-.03-.13.02-.17l.18-.12c.07-.05.06-.08.08-.17.01-.05.05-.1.13-.15.03-.02.04-.04.03-.07a.03.03 0 0 0-.03-.02c-.08 0-.13 0-.15.02-.12.1-.21.15-.27.19-.07.04-.08.02-.04-.04Zm2.67.01a.62.62 0 0 0-.15-.32.06.06 0 0 0-.04-.02c-.1-.02-.22-.03-.33-.03-.02 0-.12.05-.07.07l.28.16a1.84 1.84 0 0 1 .32.38c.02.01.06 0 .07-.02.11-.18.17-.09.32-.2a.41.41 0 0 0 .15-.25v-.04a.45.45 0 0 1-.08-.2c0-.15 0-.25-.02-.3-.04-.18-.24-.17-.38-.1-.1.05-.17.02-.25-.02-.02 0-.03.03-.03.04l.01.01c.19.1.56.72.27.88-.04.02-.06 0-.07-.04Zm.99.45c.07-.05.21-.08.3-.14.3-.22.49 0 .85 0a.1.1 0 0 1 .06.01.1.1 0 0 1 .04.05l.03.13c.01.03.03.04.06.02l.01-.01c.03-.02.04-.04.02-.07a2.12 2.12 0 0 0-.25-.38.74.74 0 0 0-.6-.26c-.22 0-.51.21-.66.38a.91.91 0 0 0-.14.37c0 .02 0 .03.02.04.1.11.12.24.29.29.07.02.1 0 .09-.08l-.02-.03c-.07-.08-.15-.18-.13-.29l.03-.03Zm1.51-.02c.07-.04.17-.11.28-.21.04-.04.06-.09.05-.13a.07.07 0 0 0-.02-.04.08.08 0 0 0-.04-.02l-.5-.08c-.05 0-.06 0-.03.05.05.06.18.48.26.43Zm-2.03.13c0-.07-.03-.08-.08-.04l-.07.04c-.07.04-.1.1-.08.17.03.22.11.39.24.5l.02.01c.1.02.07-.16.06-.2-.06-.16-.08-.3-.09-.48Z" fill="#181717"/></svg>