<!-- by TradingView --><svg width="18" height="18" viewBox="0 0 18 18" fill="none" xmlns="http://www.w3.org/2000/svg">
<rect width="18" height="18" fill="#F0F3FA"/>
<path d="M6.63857 4.79453C3.82648 6.52256 3.41719 9.57209 4.68047 11.7084C6.07151 14.0607 8.92867 14.6937 11.394 13.1788C13.7849 11.7095 14.816 8.8833 13.2618 6.25507C11.8282 3.83074 8.91802 3.39379 6.65098 4.78689L6.63857 4.79453ZM6.69408 5.43124C8.26742 4.46438 10.2995 5.13003 11.7686 7.61444C13.1241 9.90667 12.6709 11.7395 11.3577 12.5465C10.8895 12.8342 10.3901 13.0014 9.88539 13C8.53416 12.9963 7.14433 11.9905 6.20909 10.409C5.6829 9.51915 5.44477 8.67414 5.42857 7.92803C5.40458 6.82256 5.87557 5.93419 6.68181 5.43875L6.69408 5.43124Z" fill="#005598"/>
<path fill-rule="evenodd" clip-rule="evenodd" d="M6.06177 5.19312L6.42509 5.61878C6.50646 5.55413 6.5921 5.4939 6.68188 5.43875L6.69421 5.43124C7.15479 5.14819 7.65466 5.00505 8.16823 5.00648C9.40902 5.00995 10.7297 5.85736 11.7688 7.61444C12.3675 8.62693 12.5967 9.56631 12.5714 10.3507C12.5488 11.0509 12.3268 11.6242 11.9303 12.069L12.2987 12.5007C14.0192 10.937 14.6028 8.5225 13.262 6.25507C11.8283 3.83074 8.91815 3.39379 6.65111 4.78689L6.63864 4.79453C6.4335 4.92056 6.24161 5.05387 6.06177 5.19312Z" fill="#5FC0EB"/>
</svg>
