<!-- by TradingView --><svg xmlns="http://www.w3.org/2000/svg" width="18" height="18" viewBox="0 0 18 18"><path d="M18 0H0v18h18V0Z" fill="#64C400"/><path d="M5.28 12H4.04V7.37c0-1.15 1.04-2.3 2.19-2.3 1.4 0 2.24 1.1 2.24 2.3h-1.1c0-.7-.53-1.15-1.05-1.15-.6 0-1.04.51-1.04 1.15v1.16h1.73V9.7H5.28V12Zm7.06-3.84-.2.22L9.01 12h4.95v-1h-2.48c.15-.19.38-.44.63-.71.79-.87 1.85-2.04 1.84-2.92-.01-1.73-1.43-2.3-2.47-2.3-1.5 0-2.47.88-2.47 2.3h1.23c.03-.84.55-1.15 1.24-1.15s1.24.27 1.24 1.15c0 .36-.17.55-.38.79Z" fill="#FEFEFE"/></svg>