<!-- by TradingView --><svg width="18" height="18" viewBox="0 0 18 18" xmlns="http://www.w3.org/2000/svg"><path fill="#F0F3FA" d="M0 0h18v18H0z"/><path d="M15.93 9.21c.1-.12.1-.3 0-.42l-2.77-3.25c-.06-.08-.16-.03-.16.07v1.17c0 .12-.1.22-.22.22H8v4h4.78c.12 0 .22.1.22.22v1.17c0 .1.1.15.16.07l2.77-3.25ZM6 11h-.81c-.11 0-.19.1-.19.22v1.17c0 .1-.13.15-.2.07L2.08 9.21a.34.34 0 0 1 0-.42l2.74-3.25c.06-.08.19-.03.19.07v1.17c0 .12.08.22.19.22H6v4Z" fill="#18428C"/><path fill="#ADADAD" d="M6 7h2v4H6z"/></svg>