<!-- by TradingView --><svg xmlns="http://www.w3.org/2000/svg" width="18" height="18"><path fill="#113D62" d="M0 0h18v18H0z"/><path d="M13.48 10.92c.56-.23 1.67-.9 1.68-1.7 0-1.01-1.44-1.95-3.59-2.8 1.38.25 4.2 1.08 4.4 2.48l.02-.08L16 9c0 1.65-3.13 3-7 3-.47 0-.92-.02-1.36-.06.71-.13 1.5-.52 1.63-1.23.06-.33-.2-.93-1.8-1.61-2.01-.85-2.65-1.26-2.85-2.04-.57.21-1.87.87-1.94 1.87-.07 1.17 2.27 2.26 3.65 2.84C3.79 11.32 2 10.25 2 9c0-1.52 2.62-2.78 6.03-2.98.7-.03 1.58 0 1.98.18-.66.2-2.08.77-2.08 1.06-.01.29.9.35 1.36.34-.2.07-.57.25-.57.38 0 .1.2.16.49.26l.36.13c1.2.47 3.6 1.61 3.91 2.56zm-1.57-.22c0-.47-1.88-1.26-2.75-1.56.95.77 1.54 1.3 1.56 1.64.01.2-.16.42-.24.5 1.1-.06 1.43-.42 1.43-.58z" fill="#fff"/></svg>