<!-- by TradingView --><svg xmlns="http://www.w3.org/2000/svg" width="18" height="18" viewBox="0 0 18 18"><path fill="#F0F3FA" d="M0 0h18v18H0z"/><path d="M4 7a1 1 0 0 1 1-1h3.21l-.36 1.25H5.71v1h1.87l-.47 1.5H5.7V12H4V7z" fill="#175C9D"/><path fill-rule="evenodd" d="M11.5 12a3 3 0 1 0 0-6 3 3 0 0 0 0 6zm.1-.38a2.76 2.76 0 1 0 0-5.52 2.76 2.76 0 0 0 0 5.52z" fill="#FE0000"/><ellipse cx="11.6" cy="8.87" rx="2.46" ry="2.46" fill="url(#aqehrc0ot)"/><defs><linearGradient id="aqehrc0ot" x1="12.49" y1="7.85" x2="9.99" y2="10.68" gradientUnits="userSpaceOnUse"><stop stop-color="#FE0000" stop-opacity=".2"/><stop offset="1" stop-color="#FE0000"/></linearGradient></defs></svg>