<!-- by TradingView --><svg width="18" height="18" viewBox="0 0 18 18" xmlns="http://www.w3.org/2000/svg"><path fill="#F0F3FA" d="M0 0h18v18H0z"/><path d="M7 7c-.3-.83-2.2-.95-2.77-1L3 11h1.08l.44-2H6.8L7 8H4.71L5 7h2Z" fill="#2F539F"/><path d="M7 7c-.75-.7-2.35-.82-2.8-1 1.88 0 2.88.14 3.3.35L7 7Z" fill="url(#a)"/><path d="m7 11 .9-5h1.68C10.1 6 11 6.15 11 7.47 11 8.53 10.23 9 9.84 9H9.5L9 8h.65c.17 0 .5-.15.5-.5S9.98 7 9.81 7H8.66l-.76 4H7Z" fill="#2F539F"/><path d="m8.5 10.5 1-1.5c.27.47.96 1.68 1.5 2.06.54.38 2.29.78 3.1.94H12c-1.47 0-3.1-.92-3.5-1.5Z" fill="url(#b)"/><path d="M15 7.67h-1.08c0-.34-.42-.67-.77-.67-.42 0-.61.18-.61.47 0 .24.68.43.92.53.97.5.97 1.24.97 1.53 0 .3-.2 1.47-1.72 1.47C11.2 11 11 9.83 11 9.33h1.08c0 .3.2.67.63.67s.75-.03.75-.47c0-.35-.5-.69-.75-.74-.91-.35-1.14-.78-1.14-1.32S11.86 6 13.14 6C14.41 6 14.9 7.23 15 7.67Z" fill="#2F539F"/><defs><linearGradient id="a" x1="4.95" y1="6" x2="7.11" y2="6.76" gradientUnits="userSpaceOnUse"><stop stop-color="#9CC5EC"/><stop offset="1" stop-color="#CCE0F5"/></linearGradient><linearGradient id="b" x1="9.38" y1="9.49" x2="13.41" y2="11.48" gradientUnits="userSpaceOnUse"><stop stop-color="#C5DAF2"/><stop offset="1" stop-color="#4377C5"/></linearGradient></defs></svg>