<!-- by TradingView --><svg width="18" height="18" viewBox="0 0 18 18" xmlns="http://www.w3.org/2000/svg"><path fill="#F0F3FA" d="M0 0h18v18H0z"/><path d="M4.72 11.41c.09-.1.14-.23.17-.38.03-.13.04-.26.03-.4a.8.8 0 0 0-.1-.33c-.04-.1-.11-.19-.2-.27-.1-.1-.22-.2-.35-.29a38.8 38.8 0 0 1-.9-.55 3.97 3.97 0 0 1-.5-.36c-.24-.2-.4-.42-.5-.66A1.68 1.68 0 0 1 3.4 6.15a2.43 2.43 0 0 1 1.79.04 2.63 2.63 0 0 0 .56.12l.02.29a14.22 14.22 0 0 0 .08 1.08.32.32 0 0 1-.27 0c-.01 0-.03-.02-.03-.04-.1-.39-.25-.7-.44-.92-.17-.2-.36-.32-.6-.37a1.17 1.17 0 0 0-.35-.02.87.87 0 0 0-.35.1.72.72 0 0 0-.3.34c-.07.14-.1.3-.1.48s.08.36.21.52c.1.1.2.2.34.3l.37.24.6.36c.2.11.37.24.53.38.23.2.4.42.48.67.06.16.08.35.07.58-.02.26-.08.5-.18.71-.1.22-.25.4-.43.55-.3.25-.69.4-1.15.43a5.52 5.52 0 0 1-.64 0 7.23 7.23 0 0 1-1.53-.4 140.8 140.8 0 0 0-.07-1.5c.01-.02.02-.03.04-.03a.33.33 0 0 1 .19-.03c.05.01.08.04.1.08.08.29.2.55.35.78.17.26.38.46.62.6.24.14.5.2.78.19.3-.02.5-.1.64-.27Zm7.35.17a142.84 142.84 0 0 0-.05-1.51.32.32 0 0 1 .2-.04c.06.01.1.04.1.08.1.36.26.68.47.94.22.27.48.46.77.56.23.07.46.09.7.05.18-.03.32-.1.43-.2.14-.16.22-.39.23-.7 0-.1 0-.19-.02-.26a.88.88 0 0 0-.14-.31c-.08-.11-.18-.21-.29-.3-.15-.12-.3-.23-.48-.33a64.31 64.31 0 0 1-.95-.58 2.4 2.4 0 0 1-.4-.37 1.33 1.33 0 0 1-.33-.85 1.82 1.82 0 0 1 .26-.95c.2-.3.46-.51.8-.65a2.38 2.38 0 0 1 1.79.02 2.7 2.7 0 0 0 .58.13 31.05 31.05 0 0 0 .1 1.37.31.31 0 0 1-.27 0c-.02 0-.03-.02-.03-.04a2.36 2.36 0 0 0-.39-.86 1.14 1.14 0 0 0-.45-.36c-.16-.07-.34-.1-.54-.09a.86.86 0 0 0-.33.09.7.7 0 0 0-.31.31c-.07.13-.11.29-.12.47 0 .16.04.3.12.44.07.1.15.2.25.28.14.12.3.24.47.34l.6.36c.2.12.38.24.55.38.13.1.25.23.36.37a1.33 1.33 0 0 1 .25.81c-.01.6-.22 1.06-.62 1.4a2.32 2.32 0 0 1-1.27.42h-.22c-.29 0-.63-.05-1.02-.15a6.95 6.95 0 0 1-.8-.27Zm-4.43-2.5a3.09 3.09 0 0 1 .07.08c-.26.1-.47.22-.65.36-.22.18-.38.4-.47.63-.1.24-.11.48-.06.74.04.25.15.46.31.64a1.32 1.32 0 0 0 1.2.45c.21-.03.42-.1.6-.21.2-.12.38-.3.55-.56h.02c.1.16.22.3.35.42.22.22.47.34.75.37.33.02.63-.08.9-.31.08-.07.16-.16.23-.26.02-.03.02-.07 0-.12a.25.25 0 0 0-.06-.1.08.08 0 0 0-.05-.02h-.01c-.11.14-.22.23-.34.25a.58.58 0 0 1-.52-.15 8.36 8.36 0 0 1-.65-.77l.8-1.21c.14-.21.3-.35.49-.42.1-.04.22-.07.33-.09.02 0 .04-.01.05-.04a.26.26 0 0 0 0-.22l-.03-.02c-.12 0-.23 0-.35.02a5.07 5.07 0 0 1-1.33-.01h-.14c-.01 0-.03 0-.03.02a.3.3 0 0 0 0 .23l.03.02c.1 0 .2.02.3.05.05 0 .1.03.15.06.1.05.14.14.13.28-.01.1-.04.2-.09.3-.05.12-.13.26-.23.41a25.27 25.27 0 0 1-.26.37l-.98-1.32.34-.27c.11-.1.2-.21.28-.33a.9.9 0 0 0 .15-.44.85.85 0 0 0-.35-.74.82.82 0 0 0-.3-.14 1.14 1.14 0 0 0-1.19.45 1.32 1.32 0 0 0 .06 1.6Zm.87-.35h-.02l-.18-.28a1.12 1.12 0 0 1-.15-.42.89.89 0 0 1 .03-.38.49.49 0 0 1 .21-.29c.1-.06.21-.06.32-.02.07.03.13.09.18.17.04.07.06.16.07.26a.97.97 0 0 1-.11.55c-.09.16-.2.3-.35.4Zm.53 2.25c-.07.09-.14.16-.21.22a.9.9 0 0 1-.64.22.74.74 0 0 1-.56-.28c-.14-.17-.22-.4-.24-.66-.02-.3.05-.55.2-.79a1.48 1.48 0 0 1 .27-.31l1.18 1.6Z"/></svg>