<!-- by TradingView --><svg width="18" height="18" viewBox="0 0 18 18" xmlns="http://www.w3.org/2000/svg"><path fill="#F0F3FA" d="M0 0h18v18H0z"/><path fill-rule="evenodd" d="M4 6.85C4 5.83 4.84 5 5.88 5H14v6.15c0 1.02-.84 1.85-1.88 1.85H4V6.85Zm4.45 2.74c-.25-.03-.74-.05-1.47-.05-.57 0-1.07.14-1.5.45l-.03-.04v-.06c.38-.43.82-.63 1.4-.62a27.94 27.94 0 0 0 1.72-.05.1.1 0 0 0 .03-.02.1.1 0 0 0 .03-.08V9.1c0-.04-.03-.06-.06-.06-.62.03-1.3.05-2.05.05-.25 0-.51.1-.78.27-.1.06-.12.05-.04-.05.35-.44.78-.65 1.28-.62.6.03 1.16.04 1.66.02a.1.1 0 0 0 .09-.05l.02-.03a.07.07 0 0 0 .01-.07.06.06 0 0 0-.02-.02l-.02-.01-1.55-.05a2.4 2.4 0 0 0-1.28.3c-.04.01-.05 0-.04-.04.25-.91.41-1.46.49-1.65.15-.42.45-.7.89-.87.05-.02.06-.01.02.04a3.83 3.83 0 0 0-.89 2.08h.04l.21-.08a.14.14 0 0 0 .09-.1V8.1c.2-.8.36-1.55 1.12-1.92.05-.02.06-.01.02.04-.4.53-.65 1.16-.77 1.87 0 .06.01.09.07.09h.11c.06 0 .09-.03.1-.1.09-.78.42-1.6 1.12-1.91.24-.11.65-.16 1.22-.16.05 0 .05.01.02.04l-.28.25a.16.16 0 0 1-.11.04c-.18 0-.33 0-.45.03-.77.12-1.01.9-1.17 1.68-.01.08.02.12.1.12h.89c.1 0 .17-.05.2-.16.21-.87.44-1.53 1.2-1.9.12-.06.14-.04.04.06-.4.43-.6.8-.76 1.44-.25.97-.47 1.89-.67 2.75-.16.7-.57 1.38-1.24 1.55-.17.04-.18 0-.04-.1.68-.5.82-1.07 1.06-2.1l.01-.04c.01-.04 0-.07-.04-.08Zm3.69-1.45h-1.49c-.04 0-.06-.02-.05-.07.17-1.1.67-2.1 1.84-1.67.38.14.2.9 0 1.2-.06.06-.1.12-.13.18-.04.06-.03.08.03.05.84-.38.96-1.72-.14-1.82a1.58 1.58 0 0 0-1.42.53c-.16.2-.31.57-.46 1.13a78.78 78.78 0 0 0-.64 2.63c-.13.63-.4 1.13-.82 1.52-.13.12-.11.14.04.08.6-.24.95-.71 1.11-1.4l.2-.84c.01-.05.04-.07.08-.07.54-.02.84-.03.9-.02.45.03.8-.07 1.05-.31.13-.13.12-.17-.06-.11-.14.04-.3.1-.43.09h-1.32c-.04 0-.06-.02-.06-.06v-.06a.06.06 0 0 1 .04-.04h.02c.58.01 1 0 1.26-.02.33-.03.6-.17.81-.4.09-.1.07-.12-.05-.08-.27.11-.6.15-.95.13h-.96c-.04 0-.06-.02-.06-.07v-.08a.1.1 0 0 1 0-.03l.03-.03a.08.08 0 0 1 .06-.03c.6.06 1.07.06 1.43.01.27-.04.51-.18.71-.44l.01-.02V8l-.02-.01h-.02a1.3 1.3 0 0 1-.54.15Zm-2.46.9-.12.5c-.24 1.07-.44 1.95-1.32 2.35-.09.04-.1.03-.03-.05.32-.31.53-.64.64-.97a38.36 38.36 0 0 0 .62-2.44c.24-1.06.44-1.94 1.32-2.34.09-.04.1-.03.03.04-.31.32-.53.65-.64.98-.07.24-.24.88-.5 1.94Zm-3.92 2.9h.32l.02-.03.52-2a.05.05 0 0 0-.01-.04l-.02-.01h-.33l-.02.03-.52 2a.05.05 0 0 0 0 .04l.02.01h.02Zm.63-.03-.02-.02v-.03l.55-2.04.04-.02.09.02.11.04a.41.41 0 0 1 .08.03.1.1 0 0 1 .02.02v.02l-.54 2.04-.02.03h-.02l-.29-.1Zm-.57-1.85c-.46.2-.72 1.31-.82 1.85a.03.03 0 0 0 0 .02l.02.01h.35l.02-.04.47-1.8v-.02l-.01-.01-.01-.01h-.02Z" fill="#0069B7"/></svg>