<!-- by TradingView --><svg width="18" height="18" viewBox="0 0 18 18" xmlns="http://www.w3.org/2000/svg"><path fill="#F0F3FA" d="M0 0h18v18H0z"/><path d="M12.9 6H16v6h-3.1zM2 6h2.96v6H2z"/><path fill="#5090BA" d="M12.8 6.11h3.1v5.72h-3.1z"/><path d="M7.76 6h2.22v.12H7.76z"/><path d="M4.86 6.12H2.11v5.7h2.75v-5.7Z" fill="#5090BA"/><path d="M2.92 6.6c.21.01.3.2.32.3 0 .1-.04.06-.07.02a.33.33 0 0 0-.25-.23c-.17.04-.26.15-.27.33-.02.17.14.24.2.24.08 0 .23-.03.24-.18 0-.14-.09-.2-.15-.2s-.14 0-.14.14c0 .13.12.06.12 0 0-.07.09-.07.08 0 0 .06-.05.17-.13.17s-.14-.08-.14-.15c0-.07 0-.24.19-.24.18 0 .23.16.23.26s-.06.31-.28.3c-.2 0-.32-.18-.33-.34 0-.17.12-.45.38-.42Z" fill="#F0F3FA"/><path d="M4.78 6.14H2.72a.93.93 0 0 0-.45.78c0 .53.37.74.58.75.17.02.28-.04.32-.06v.44c-.08.01-.22.09-.2.25.02.15.12.2.17.19l-.1 3.34h.16l.1-3.37c.25-.08.91-.2 1.58-.08v-.19c-.29-.05-1.01-.1-1.58.06V8.2c.25-.06.9-.17 1.58-.07v-.18c-.23-.05-.88-.1-1.58.05v-.53c.1-.08.27-.35.14-.76.3.1 1 .23 1.42 0v-.15c-.24.1-.9.2-1.66-.13-.08-.03-.22-.04-.1.16.08.02.24.13.22.4-.02.34-.2.53-.47.52-.26 0-.44-.32-.42-.58 0-.26.12-.5.37-.64h1.98v-.14Zm-.65 2.37a.1.1 0 0 0-.09.09v3.23h.19V8.6a.1.1 0 0 0-.1-.1Zm-.49.1a.1.1 0 0 0-.09.1v3.11h.18V8.71a.1.1 0 0 0-.09-.1Zm.9.1a.1.1 0 1 1 .18 0v3.12h-.19V8.7Z" fill="#F0F3FA"/><path d="M7.82 6H4.64c.24.22.31.97.32 1.32v2.83A9.6 9.6 0 0 1 4.72 12h1.95v-.2l-.85-.09V9h1.44l.17.75h.1V8h-.1l-.17.67H5.82V6.33h1.72l.28 1h.08L7.82 6Z"/><path fill="#F0F3FA" d="M5.05 6.14h.25v5.68h-.25z"/><path d="m8.2 11.94-.09-1.42h.08l.31 1c.27.14.69.2.86.22 1.18-.05 1.24-.97 1.23-1.14 0-.17.1-.55-.99-1.28-1.09-.74-1.31-1.29-1.33-1.7-.01-.41.06-1.13.8-1.45.58-.26 1.6-.17 2.04-.09l.04 1.32h-.09l-.23-.91c-.1-.09-.39-.26-.8-.28-.51-.02-1.15.3-1.16.88-.02.58.21.83 1.35 1.61.9.62 1.08 1.41 1.05 1.73-.11 1.88-2.22 1.57-2.49 1.51a1.7 1.7 0 0 0-.59 0Z"/><path d="M9.45 11.88v-.07c1.13-.06 1.26-.84 1.26-1.28 0-.44-.19-.77-1.3-1.53-.9-.6-1.06-1.28-1.03-1.54.1-1.16 1.09-1.39 1.58-1.35v.05c-.9.01-1.39.6-1.38 1.2 0 .61.44 1.16 1.44 1.75.8.48.96 1.14.93 1.42-.05 1.13-1.02 1.37-1.5 1.35Z" fill="#F0F3FA"/><path d="M14.4 6h-3.3v.1l1.13.18c.2 2.56.08 4.7 0 5.46l-.85.17V12h2.72v-.09l-.93-.17c-.12-.96-.05-4 0-5.39.6-.12 1.79 0 1.8 1.44.02 1.44-1.14 1.6-1.72 1.5v.08c1.26.32 2.48-.23 2.51-1.7A1.6 1.6 0 0 0 14.4 6Z"/><path d="M15.36 7.7c-.06-1.33-1.08-1.58-1.59-1.54v.1c.42 0 1.27.3 1.35 1.44.07 1.14-.73 1.54-1.13 1.6v.07c.06-.02 1.43-.02 1.37-1.67ZM12.45 6.23h.25v5.53h-.25z" fill="#F0F3FA"/></svg>