<!-- by TradingView --><svg width="18" height="18" viewBox="0 0 18 18" xmlns="http://www.w3.org/2000/svg"><path fill="#F0F3FA" d="M0 0h18v18H0z"/><path d="M5 10.33c0 1.83.88 3.1 1.32 3.5a8.84 8.84 0 0 1-.81-3.5c.02-2.57 2.92-4.76 4.37-5.53.45.59 1.37 2.24 1.37 4.14 0 2.35-3.03 4.3-3.7 4.73h-.01c-.5.33-.45 1.02-.36 1.33C10.54 13.57 13 11.78 13 8.76 13 6.34 11.48 3.9 10.71 3c-.33.22-1.27.84-2.38 1.51C6.93 5.35 5 8.04 5 10.33Z" fill="#243A78"/><path d="M10.14 8.5c0-.87-.28-1.68-.43-1.97-.52.54-1.58 1.66-1.66 1.77-.1.12-1.57 2.56-1.52 3.36.04.64.32 1.32.46 1.58-.03-.14.15-.62 1.15-1.39 1.26-.97 2-2.27 2-3.35Z" fill="#F09421"/><path d="M6.15 10.87c0 1.25.58 2.16.87 2.46-.1-.24-.29-.91-.29-1.65 0-.91.97-2.33 1.87-2.94.9-.61 1.29-1.25 1.29-1.77 0-.42-.18-.72-.27-.81-1.98 1.1-3.47 3.14-3.47 4.7Z" fill="#FECF09"/></svg>