<!-- by TradingView --><svg xmlns="http://www.w3.org/2000/svg" width="18" height="18"><path fill="#F0F3FA" d="M0 0h18v18H0z"/><path d="M13.93 8.54c.48-.44 1.21-1.37 1.05-2.1-.17-.71-1.04-.89-1.64-.93-1.63-.11-4.24.58-6.81 2.1 1.34-.63 2.85-1.2 4.36-1.4.94-.12 2.3-.2 3.07.36.5.37.62.99-.03 1.97zm-9.86.92c-.48.44-1.21 1.37-1.05 2.1.17.71 1.05.89 1.64.93 1.63.11 4.24-.58 6.81-2.1-1.34.63-2.85 1.2-4.36 1.4-.94.12-2.3.2-3.07-.36-.5-.37-.62-.99.03-1.97z" fill="#005B8A"/><path opacity=".5" d="M5 8h8v2H5V8z" fill="#767676"/></svg>