<!-- by TradingView --><svg width="18" height="18" viewBox="0 0 18 18" xmlns="http://www.w3.org/2000/svg"><path fill="#F0F3FA" d="M0 0h18v18H0z"/><path d="M14.99 9.92c-.11.98-.78 2.01-1.73 1.62-.03-.01-.02-.05 0-.05.65.04 1.22-.46 1.32-1.21.12-.84-.36-1.68-1.1-1.9-.72-.25-1.77.19-3.77 2.18-1.17 1.18-2.87 1.98-4.92 1-.05-.02-.03-.1.02-.1.59 0 1.2-.13 1.71-.33.53-.2 1.26-.55 2.51-2.07a5.61 5.61 0 0 1 2.44-1.75c.88-.3 1.92-.18 2.65.43.73.62.93 1.58.87 2.18Z" fill="#2B449C"/><path d="M12.81 6.49c.05 0 .06-.09.02-.1a5.64 5.64 0 0 0-6.34 1.6c-2.44 2.62-4.26 2-4.45 1.97-.05 0-.05.1-.02.1.01.01 3.55 1.55 5.63-.72 1.67-1.82 2.86-3.2 5.16-2.85Z" fill="#74B843"/></svg>