<!-- by TradingView --><svg width="18" height="18" viewBox="0 0 18 18" xmlns="http://www.w3.org/2000/svg"><path fill="#F0F3FA" d="M0 0h18v18H0z"/><path d="M3 7.5c0-.28.26-.5.57-.5h2.86c.31 0 .57.22.57.5s-.26.5-.57.5H3.57C3.26 8 3 7.78 3 7.5ZM3 9c0-.28.26-.5.57-.5h2.86c.31 0 .57.22.57.5s-.26.5-.57.5H3.57C3.26 9.5 3 9.28 3 9ZM12 11a.5.5 0 0 1-.5-.5v-3a.5.5 0 0 1 1 0v3a.5.5 0 0 1-.5.5ZM3 10.5c0-.28.3-.5.67-.5h.66c.37 0 .67.22.67.5s-.3.5-.67.5h-.66c-.37 0-.67-.22-.67-.5ZM13 10.5c0-.28.26-.5.57-.5h.86c.31 0 .57.22.57.5s-.26.5-.57.5h-.86c-.31 0-.57-.22-.57-.5ZM8.92 7h1.62c.25 0 .46.22.46.5s-.2.5-.46.5H9.2a.2.2 0 0 0-.2.2v1.55c0 .2.04.25.23.25h1.3c.26 0 .47.22.47.5s-.2.5-.46.5H9.15C8.43 11 8 10.44 8 9.75V8c0-.52.38-1 .92-1Z" fill="#02315B"/></svg>