<!-- by TradingView --><svg width="18" height="18" viewBox="0 0 18 18" xmlns="http://www.w3.org/2000/svg"><path fill="#F0F3FA" d="M0 0h18v18H0z"/><path d="M11.35 6v.17c-.22 0-.37.01-.45.04-.15.05-.22.14-.22.28 0 .07.03.18.08.3.05.14.14.36.28.66l1.38 3.1 1.25-3.35a5.25 5.25 0 0 0 .17-.63c0-.17-.07-.28-.22-.34a1.35 1.35 0 0 0-.42-.06V6H15v.15a.81.81 0 0 0-.41.15c-.14.12-.27.35-.4.69L12.23 12h-.13L9.93 7.1a2.67 2.67 0 0 0-.45-.77.76.76 0 0 0-.48-.18V6h2.35ZM3.5 11.84c.55-.08.5-.3.5-.93V6.98c0-.57-.01-.77-.5-.81V6h4v1.33h-.2c-.06-.41-.15-.7-.3-.82-.14-.1-.49-.16-.9-.16h-.87c-.1 0-.16.02-.19.06-.03.04-.04.12-.04.24v2.02h1c.32 0 .53-.06.61-.18.1-.11.16-.34.22-.7H7v2.1h-.17a1.68 1.68 0 0 0-.22-.7c-.09-.1-.29-.16-.6-.16H5v1.99c0 .6.17.77.67.82V12H3.5v-.16Z"/></svg>