<!-- by TradingView --><svg width="18" height="18" viewBox="0 0 18 18" xmlns="http://www.w3.org/2000/svg"><path fill="#F0F3FA" d="M0 0h18v18H0z"/><path d="M11.03 4.04a2.5 2.5 0 0 0-4.06 0A2.51 2.51 0 0 0 4 6.5c0 .31.06.61.16.89A2.5 2.5 0 0 0 4 11.5a2.5 2.5 0 0 0 2.97 2.46 2.5 2.5 0 0 0 4.06 0A2.51 2.51 0 0 0 14 11.5a2.5 2.5 0 0 0-.16-4.11 2.5 2.5 0 0 0-2.8-3.35Z" fill="#E97205"/><path d="M6 5.5V7c-.17-.33-.6-.9-1-.5S5.5 7.67 6 8v4c0 .8.67 1 1 1h4c.8 0 1-.67 1-1V8c.5-.33 1.4-1.1 1-1.5-.4-.4-.83.17-1 .5V5.5c0-.17-.1-.5-.5-.5s-.5.33-.5.5V7H7V5.5c0-.17-.1-.5-.5-.5s-.5.33-.5.5Z" fill="#F5CD08"/><path d="M8 9a.5.5 0 1 1-1 0 .5.5 0 0 1 1 0ZM11 9a.5.5 0 1 1-1 0 .5.5 0 0 1 1 0Z" fill="#7E4100"/><path d="m8.5 10 .5.5.5-.5c0-.4-.33-.5-.5-.5-.17 0-.5.1-.5.5Z" fill="#4F4000"/><path d="M9 11.57c-.86 0-1.46-.36-1.68-.58l.36-.35c.12.12.59.43 1.32.43.74 0 1.2-.31 1.32-.43l.36.35c-.22.22-.81.58-1.68.58Z" fill="#674800"/></svg>