<!-- by TradingView --><svg width="18" height="18" viewBox="0 0 18 18" fill="none" xmlns="http://www.w3.org/2000/svg">
<rect width="18" height="18" fill="#F0F3FA"/>
<path d="M8.92233 5.3328H6.31771C6.74326 5.52098 6.96332 5.96611 7 6.16515V12.7515C7.02935 13.4608 6.04257 13.8794 5.56567 14H8.92233C8.21798 13.7684 8.01834 13.1315 8 12.842V11H12V12.842C12 13.4934 11.3374 13.8854 11.0134 14H14C13.0462 13.7395 13 13.1931 13 12.6912V6.02039C13.0147 5.6006 13.572 5.38709 14 5.3328H11.0134C11.6737 5.41965 11.9511 5.82738 12 6.02039V10.0043H8V6.16515C7.97065 5.70193 8.59828 5.41724 8.92233 5.3328Z" fill="#8A8A8D"/>
<path d="M10.6667 4H4C5.05553 4 4.98652 4.74261 4.99999 5.11392V11.9875C5.03083 12.5171 4.34053 12.8832 4 13H6.89616C6.44898 12.8131 6.03052 12.312 5.99999 12.0848V9H8.84294C9.25928 9 9.58182 9.29806 9.69105 9.62259L9.99945 7.61699L9.24772 8H5.99999V5H9.43942C10.3088 5 10.6198 5.29091 10.6667 5.62512V4Z" fill="#B71B2B"/>
</svg>
