<!-- by TradingView --><svg width="18" height="18" viewBox="0 0 18 18" xmlns="http://www.w3.org/2000/svg"><path fill="#213A34" d="M0 0h18v18H0z"/><path d="M6.7 6.47c-.17.06-.4.12-.66.16-.04 0-.04 0 0-.03.13-.1.21-.2.26-.29.03-.06.01-.07-.04-.04-.2.13-.44.25-.72.35-.22.08-.46.08-.7.08h-.28c-.19.01-.32.11-.4.3-.01.02-.03.03-.05.02l-.4-.1a1.7 1.7 0 0 0-.66-.04c-.03 0-.04.02-.05.05-.02.23.07.41.22.56.07.07.13.15.18.25.03.05.05.04.06-.01l.03-.08c0-.02.02-.03.06-.02l.14.02c.12.01.27.03.36.09.1.07.2.17.26.3a.09.09 0 0 1-.02.1.06.06 0 0 1-.02.01.55.55 0 0 1-.4-.05l-.32-.17c-.1-.04-.14 0-.13.14 0 .03.01.1.04.19.03.12.1.19.2.22.13.03.34.1.63.22.4.17.69.46.84.88.01.03.03.04.04.01l.03-.03c.03-.03.05-.03.06 0l.26.47c.02.03.05.04.1.05.03 0 .04.02.05.04l.12.2a.08.08 0 0 0 .01.02h.01l.03.02h.05c.08 0 .13 0 .2.05a2.87 2.87 0 0 1 .96 1.76c0 .04.01.04.03.02l.27-.33a.2.2 0 0 0 .04-.19l-.1-.43c0-.03 0-.05.02-.06l.04-.05.01-.04-.01-.04-.2-.29.01-.06.01-.01c.02-.02.02-.04 0-.06a3.03 3.03 0 0 0-.38-.54.09.09 0 0 1 0-.04l.02-.1a.07.07 0 0 0-.01-.06l-.3-.34c-.14-.19-.11-.27.1-.26l.5.02h.03l.02-.02a.07.07 0 0 0 0-.04v-.01l-.02-.1c0-.04 0-.06.03-.05.3.1.59.11.85.03.07-.03.07-.05 0-.07-.04-.01-.06-.05-.05-.1l.01-.05.04-.03c.28-.12.56-.2.82-.23.02 0 .03-.02.03-.05v-.13c0-.03 0-.04-.03-.04-.05 0-.1-.01-.13-.03-.04-.04-.04-.06.01-.09a.66.66 0 0 1 .56.04c.03 0 .04 0 .04-.03v-.03a.05.05 0 0 1 0-.05l.02-.01h.02l.28.09c.02 0 .04 0 .05-.03.03-.08.11-.09.25-.03a.05.05 0 0 0 .05 0l.02-.02a.09.09 0 0 0 0-.01V8.2c.02-.12.1-.17.23-.14.1.02.25.07.45.15.04.01.1 0 .14-.02.03-.02.03-.03 0-.05-.06-.03-.08-.06-.07-.1l.02-.02.01-.01.34-.07c.03 0 .04-.03.03-.07-.03-.11-.02-.18.05-.19l.28-.04c.06 0 .08-.05.07-.12-.03-.11 0-.18.08-.18.08-.01.17 0 .28.04 1 .32 1.95.3 2.9-.03.2-.07.2-.05.01.06-.6.35-1.26.49-1.96.41a6.51 6.51 0 0 1-.43-.06c-.4-.07-.64-.05-.93.3-.13.17-.2.3-.22.38-.07.55-.35.94-.74 1.2-.14.1-.25.2-.32.28-.2.28-.35.52-.45.71a.23.23 0 0 1-.1.1 4.65 4.65 0 0 0-2.24 2.08c-.03.08-.02.1.05.06.18-.1.4-.21.6-.11l.14.06.14.07c.53.28 1.16 0 1.54-.5.02-.03.02-.04-.02-.03-.58.2-1.11.35-1.68.07a.08.08 0 0 1-.03-.02.1.1 0 0 1-.01-.04.12.12 0 0 1 .01-.1c.38-.56.92-.9 1.48-1.22a.8.8 0 0 0 .26-.24c.34-.5.73-.93 1.15-1.31.15-.13.25-.25.32-.36.17-.28.2-.5.25-.79l.01-.04c.03-.17.08-.24.2-.29a.8.8 0 0 1 .4-.04c.08 0 .2.07.36.19.2.13.35.2.5.24h.02l.02-.03v-.1c0-.03.01-.04.04-.03.32.14.62.2.9.2.07 0 .14-.04.2-.08l.16-.07c.12-.02.37-.1.47-.22l.04-.06c.04-.05.07-.1.15-.14a.76.76 0 0 0 .34-.33l.15-.24.14-.22c.16-.32.25-.68.27-1.05 0-.05-.01-.05-.04-.02-.83 1.12-1.9 1.57-3.2 1.34-.43-.07-.8-.17-1.12-.3-.43-.18-.78-.3-1.04-.36a1.9 1.9 0 0 0-1.51.32c-.1.07-.21.12-.34.15a3.5 3.5 0 0 1-1.91-.08.56.56 0 0 0-.3 0c-.2.1-.42.16-.66.16v-.01l-.01-.03v-.02h.01c.38-.11.66-.23.87-.66.03-.07.01-.09-.04-.06Zm-1.79.97c0 .05-.07.09-.15.08-.08 0-.15-.06-.14-.11 0-.06.07-.1.15-.09.08 0 .15.06.14.12Z" fill="#fff"/><path d="m9.67 9.06.07.03c.03.01.03.04 0 .06a.07.07 0 0 1-.04.03c-.14.02-.23.1-.26.24 0 .02-.02.04-.04.04a.49.49 0 0 0-.17.06c-.03.02-.05.05-.06.08 0 .03 0 .05.03.05a.4.4 0 0 1 .1.04c.02.02.01.03 0 .05-.14.1-.21.2-.23.33-.03.22.03.36.18.42.06.03.11.02.16 0l.06-.02c.03 0 .05.01.06.04l-.01.17c-.01.04-.04.07-.1.1a5.36 5.36 0 0 0-2.24 2.1c-.02.03-.04.04-.06.03a1.3 1.3 0 0 0-.49.02c-.04.01-.05 0-.02-.04l.1-.2a.12.12 0 0 1 .1-.06l.13-.02.04-.04a4.42 4.42 0 0 1 1.76-1.83.05.05 0 0 0-.01-.04.97.97 0 0 1-.2-.78c.02-.2.13-.4.3-.63.33-.42.8-.66 1.26-.82.08-.03.09-.02.02.04-.1.1-.18.2-.25.34a.12.12 0 0 1-.05.05l-.14.07h-.01V9a.05.05 0 0 0 0 .05l.01.02ZM7.72 9.4l-.14.07c-.03.02-.04 0-.05-.02v-.03c-.01-.03-.03-.04-.05-.03a.64.64 0 0 0-.36.18c-.2.21-.14.59.06.8v.01h.02a.03.03 0 0 0 .01-.02c.08-.45.3-.6.68-.47h.06A.1.1 0 0 0 8 9.83c.16-.47.46-.6.84-.79V9a1.3 1.3 0 0 0-.7.4l-.02.02-.03-.01a.06.06 0 0 1-.02-.05c0-.04-.01-.06-.04-.05-.02 0-.05.04-.08.11a.1.1 0 0 1-.03.03.07.07 0 0 1-.07 0 .09.09 0 0 1-.04-.01l-.03-.04c-.02-.02-.04-.03-.06-.02Z" fill="#fff"/></svg>