<!-- by TradingView --><svg width="18" height="18" viewBox="0 0 18 18" xmlns="http://www.w3.org/2000/svg"><path fill="#F0F3FA" d="M0 0h18v18H0z"/><path d="M9.37 15h.32a6.35 6.35 0 0 0 5.19-4.86 5.95 5.95 0 0 0-7.62-6.86 5.9 5.9 0 0 0-3.9 3.74C1.96 11.05 4.86 14.3 8.4 15h.27v-1.05c0-.08-.03-.13-.11-.15-2.15-.35-3.59-1.52-4.2-3.52a4.67 4.67 0 0 1 .6-3.97 5.21 5.21 0 0 1 3.29-2.15.3.3 0 0 1 .2.16c.03.04.04.09.04.13v.08c0 .2-.1.33-.29.37-1.74.35-2.86 1.54-3.34 3.46-.05.2.02.29.21.29h.64c.14-.01.26-.09.3-.23a3.23 3.23 0 0 1 2.32-2.43.18.18 0 0 1 .13.1l.02.07V8.5c0 .1.05.15.15.15h.89a.1.1 0 0 0 .03-.03l.02-.04a.1.1 0 0 0 .01-.04V6.16c0-.03 0-.06.02-.08a.18.18 0 0 1 .05-.06.17.17 0 0 1 .15-.03c.15.04.29.1.42.15a3.29 3.29 0 0 1 1.85 2.3c.06.14.17.2.32.2h.6a.22.22 0 0 0 .22-.18v-.1c-.5-1.91-1.61-3.11-3.37-3.47-.2-.04-.27-.13-.27-.39a.35.35 0 0 0 0-.04c0-.17.02-.3.22-.3a.41.41 0 0 1 .16.02l.28.08a4.95 4.95 0 0 1 3.53 3.54 4.91 4.91 0 0 1-4.24 5.98c-.1.01-.14.07-.14.17V15ZM9 12.05c1.58 0 2.72-1 3.05-2.51.02-.11.09-.19.2-.19h.78c.12 0 .17.09.15.2a4.22 4.22 0 0 1-8.34-.02c-.02-.12.03-.18.14-.18h.79c.1 0 .17.06.2.17A3.01 3.01 0 0 0 9 12.05Zm2.27-2.69H6.75v.06c0 .25.05.5.17.73.1.24.28.45.48.63a2.58 2.58 0 0 0 1.6.56h.05c.6 0 1.16-.2 1.58-.57.42-.36.66-.85.66-1.36V9.4l-.01-.03Z"/></svg>