<!-- by TradingView --><svg width="18" height="18" viewBox="0 0 18 18" xmlns="http://www.w3.org/2000/svg"><path fill="#F0F3FA" d="M0 0h18v18H0z"/><path d="M5.57 5.42 4 7.11c1.57-.64 3.2.24 3.93.63C8.7 8.16 10.48 9 10.88 9c.3 0 .52-.14.58-.21L15 5.42c-.65.21-2.2.63-3.14.63C10.68 6.05 8.13 5 7.14 5c-.78 0-1.37.28-1.57.42Z" fill="#0072BB"/><path d="M7.71 9.1c-.62-.18-1.04-.08-1.17 0L3 12.57c.59-.22 2.08-.65 3.34-.65 1.57 0 3.93 1.08 4.71 1.08.63 0 1.38-.22 1.77-.65L14 10.83c-2.75 0-5.5-1.52-6.29-1.73Z" fill="#008B88"/></svg>