<!-- by TradingView --><svg width="18" height="18" viewBox="0 0 18 18" xmlns="http://www.w3.org/2000/svg"><path fill="#F0F3FA" d="M0 0h18v18H0z"/><path d="m2.52 11 1.22-5h7.78l-.24.77H5.35l-.17.7h1.79l-.22.93h-1.8L4.33 11h-1.8Z"/><path d="M8.84 7.5H7.46l-.63 2.67c-.1.41.15.83.5.83h2.42l.82-3.5h-1.1l-.59 2.58h-.37c-.14 0-.24-.16-.2-.33l.53-2.25Z"/><path d="m10.95 10.24.63-2.8h1.49l-.63 2.94c-.2.92-.9 1.56-1.72 1.56H9.47l.26-.95h.38c.4 0 .75-.31.84-.75ZM15.07 7.5h-1.51l-.69 3.5h1.57l.63-3.5ZM13.26 6.75h-1.5l.2-.75h1.48l-.18.75ZM15.25 6.75h-1.5l.2-.75h1.48l-.18.75Z"/><path d="M2 12v-.75h7.33l-.16.75H2ZM16 12h-4c.36-.2.54-.58.6-.75H16V12Z" fill="#E50012"/></svg>