<!-- by TradingView --><svg width="18" height="18" viewBox="0 0 18 18" xmlns="http://www.w3.org/2000/svg"><path fill="#F0F3FA" d="M0 0h18v18H0z"/><path d="M8.63 4A5 5 0 0 0 4 8.68v.02c0 .17.14.31.3.31H8.7a.3.3 0 0 0 .3-.3L9 4.3a.3.3 0 0 0-.3-.3h-.07Z" fill="#8D4689"/><path d="M13.7 4h-.06a4.93 4.93 0 0 0-4.47 4.67v.02c0 .17.13.31.3.31H13.7a.3.3 0 0 0 .3-.3V4.3a.3.3 0 0 0-.3-.3Z" fill="#712B7D"/><path d="M8.68 9.4H4.31c-.17 0-.3.12-.3.28v4.04c0 .16.13.28.3.28h.06c2.49-.17 4.47-2 4.63-4.3v-.02c0-.16-.14-.29-.3-.29h-.02Z" fill="#8D4689"/><path d="M9.17 9.68v.01a4.73 4.73 0 0 0 4.47 4.3l.06.01c.16 0 .3-.12.3-.27V9.67a.29.29 0 0 0-.3-.28H9.47c-.17 0-.3.12-.3.28Z" fill="#712B7D"/></svg>