<!-- by TradingView --><svg width="18" height="18" viewBox="0 0 18 18" xmlns="http://www.w3.org/2000/svg"><path fill="#F0F3FA" d="M0 0h18v18H0z"/><path d="M7 7.1v1.74c0 .08.07.15.16.16h5.55c.2 0 .28.1.29.29v1.41c.01.17-.13.3-.3.3H7.23c-.22 0-.22.1-.22.3v2.51c0 .11-.1.19-.2.18L5.15 14c-.06 0-.14-.14-.14-.2L5 5.1c0-.06.03-.1.09-.1h8.7c.14 0 .21.06.21.2v1.59c0 .14-.08.21-.24.21H7.15c-.08 0-.15.04-.15.1Z" fill="url(#ad2t2skne)"/><defs><linearGradient id="ad2t2skne" x1="5.58" y1="5" x2="11.54" y2="14.39" gradientUnits="userSpaceOnUse"><stop offset=".22" stop-color="#A0991E"/><stop offset=".42" stop-color="#D4CD40"/><stop offset="1" stop-color="#B2A63F"/></linearGradient></defs></svg>