<!-- by TradingView --><svg width="18" height="18" viewBox="0 0 18 18" xmlns="http://www.w3.org/2000/svg"><path fill="#F0F3FA" d="M0 0h18v18H0z"/><path d="M12.08 8.25c-.1 0-.26.1-.5.28-.63.52-1.25 1.14-2.1 1.13a2.1 2.1 0 0 1-1.18-.39c-.2-.14-.3-.35-.3-.62 0-.16.27-.23.38-.23.48-.02.92-.07 1.19-.16.93-.3 1.52-1.24 2.54-1.26 1.1-.02 1.9.98 1.89 2.06A5.24 5.24 0 0 1 9.01 14 5.13 5.13 0 0 1 4 8.86 4.83 4.83 0 0 1 8.73 4c.96 0 1.89.27 2.64.88.23.18.63.62.58.95 0 .04-.02.08-.04.1a.23.23 0 0 1-.3.07l-.58-.31c-.49-.27-1-.43-1.52-.44A3.5 3.5 0 0 0 6 8.86c0 1.92 1.34 3.28 3.13 3.28a3.8 3.8 0 0 0 3.5-2.6c.07-.23.12-.43.12-.6 0-.37-.28-.7-.67-.69Z" fill="#005CA2"/></svg>