<!-- by TradingView --><svg width="18" height="18" viewBox="0 0 18 18" xmlns="http://www.w3.org/2000/svg"><path fill="#F0F3FA" d="M0 0h18v18H0z"/><path d="M4.41 4a.41.41 0 0 0-.41.41v9.18c0 .22.19.41.41.41h9.18c.22 0 .41-.19.41-.41v-4.1a.49.49 0 0 0-.49-.49H11.5v1H13v3H5V5h8v2h1V4.41a.41.41 0 0 0-.41-.41H4.4Z" fill="#318CDB"/><path d="M6.39 6a.39.39 0 0 0-.39.39v5.22c0 .22.17.39.39.39h5.22c.22 0 .39-.17.39-.39V9.23c0-.13-.1-.23-.23-.23H9.23C9.1 9 9 9.1 9 9.23v.54c0 .13.1.23.23.23H11v1H7V7h4v.8c0 .11.09.2.2.2h.6a.2.2 0 0 0 .2-.2V6.4a.39.39 0 0 0-.39-.39H6.39Z" fill="#94D40B"/></svg>