<!-- by TradingView --><svg xmlns="http://www.w3.org/2000/svg" width="18" height="18"><path fill="#F0F3FA" d="M0 0h18v18H0z"/><path d="M14.98 5.57a6.6 6.6 0 01-3.39 3.81c-.79.38-1.7.67-2.58.62a3.7 3.7 0 00-1.27.16 3.57 3.57 0 00-2.53 2.41 7.59 7.59 0 006.92-.98 6.77 6.77 0 002.85-6.02z" fill="#9D9D9F"/><path d="M10.26 5a7.5 7.5 0 00-4.4 1.4 6.75 6.75 0 00-2.84 6.02 6.63 6.63 0 014.01-4.08C7.66 8.13 8.33 7.96 9 8c.45.02.87-.01 1.27-.13a3.62 3.62 0 002.53-2.44A7.6 7.6 0 0010.26 5z" fill="#FF0036"/></svg>