<!-- by TradingView --><svg width="18" height="18" viewBox="0 0 18 18" xmlns="http://www.w3.org/2000/svg"><path fill="#F0F3FA" d="M0 0h18v18H0z"/><path d="M3.94 6.68c.37-.19.73-.3 1.15-.32-.1-.5.07-.93.25-1.38-.15-.04-.3-.02-.41-.15-.13-.23-.11-.41.07-.55a.37.37 0 0 1 .49.05c.15.16.13.36-.07.59.02.06.08.06.13.08a3 3 0 0 1 .63.3c.15.11.3.23.39.41.18-.12.3-.28.48-.36l.55-.26c0 .36-.02.69 0 1.05-1.04.19-2.04.62-2.9 1.25-.24-.26-.5-.5-.78-.72a.42.42 0 0 1-.46.16c-.23-.14-.3-.3-.22-.48a.38.38 0 0 1 .45-.23c.2.05.29.23.25.56Z" fill="#EED646"/><path d="M6.08 6.77c.2-.12.42-.18.63-.25.29-.1.59-.17.9-.24.05.2.04.41.15.63-1.03.02-1.93.3-2.65 1.06l-.15-.23c-.04-.08-.1-.15-.14-.21a.13.13 0 0 1 .07-.1 14.2 14.2 0 0 1 1.2-.67c-.04.06-.09.1-.09.19a.25.25 0 0 0 .13.15c.07.01.14.01.2-.07a.23.23 0 0 0-.03-.25.24.24 0 0 0-.22-.01Zm-.69.83c0-.17-.03-.24-.13-.26a.18.18 0 0 0-.2.13c-.04.11.02.18.18.25a.27.27 0 0 0 .15-.12Zm2.15-.94a.23.23 0 0 0-.08-.16c-.09-.02-.17-.03-.25.05a.23.23 0 0 0-.02.17.21.21 0 0 0 .18.13c.1-.02.15-.09.17-.19ZM7.7 5.06a.36.36 0 0 1-.34-.24.37.37 0 0 1 .22-.47c.04-.02.09-.03.14-.02.2 0 .37.16.37.35 0 .23-.16.39-.4.38Z" fill="#EED646"/><path d="M5.4 7.6c-.04.06-.1.1-.16.12-.16-.07-.22-.14-.19-.25a.18.18 0 0 1 .2-.13c.1.02.14.1.14.26ZM6.08 6.77a.24.24 0 0 1 .22 0 .23.23 0 0 1 .04.26c-.07.08-.14.08-.21.07A.25.25 0 0 1 6 6.95c0-.08.05-.13.09-.19ZM7.54 6.66c-.02.1-.07.17-.17.19a.21.21 0 0 1-.18-.13.23.23 0 0 1 .03-.17c.07-.08.15-.07.24-.05a.23.23 0 0 1 .08.16Z"/><path d="M3.96 6.96c-.43.18-.75.1-.9-.23a.6.6 0 0 1 .24-.77c.33-.18.63-.05.88.37.2-.08.42-.14.65-.17 0-.34.08-.67.2-.99-.39-.3-.49-.56-.33-.85a.59.59 0 0 1 .7-.3c.32.12.44.39.36.83.31.13.6.29.86.53.18-.14.38-.26.6-.36-.1-.2-.14-.4-.02-.6a.58.58 0 0 1 1.06.06c.13.33-.02.6-.44.81a3 3 0 0 0 .23 1.76c.12.03.2-.07.29-.13.17-.02.27.08.33.22.11.25.16.53.12.8-.01.08-.04.16-.03.23.03.06.12.06.15.16-.03.23-.03.5-.1.76-.05.13-.13.22-.26.24a.31.31 0 0 1-.34-.15c-.1-.18-.22-.36-.28-.55-.1-.32-.31-.6-.6-.78a.35.35 0 0 1-.33-.1c-.18.06-.37.07-.55.02a.65.65 0 0 1-.26.32.6.6 0 0 0-.26.34c-.02.08-.08.15-.12.22-.02.22-.03.44.01.66.03.18.02.36-.04.53-.08.3-.1.59.03.87.04.1.05.2.04.29-.04.18.02.32.14.45l.16.19c.09.08.16.18.21.29.16.02.3.07.46.1.36.08.84-.2.95-.58.07-.2.17-.38.22-.58.01-.05.07-.07.08-.13-.04-.07-.12-.08-.18-.11a.94.94 0 0 1-.27-.15c-.24-.2-.2-.54.07-.7a.6.6 0 0 1 .17-.06c.15-.03.3-.07.43-.13.1-.05.22-.05.32-.02l.26.06.24.07c.4.13.48.43.23.76-.05.05-.11.03-.16.06l-.16.16c-.02.3-.07.6-.12.9-.02.16-.02.32.01.48.03.15.03.3.02.45-.03.25-.18.4-.4.4a.34.34 0 0 1-.3-.15l-.15-.25c-.16.14-.37.17-.52.3a.33.33 0 0 1-.22.05h-.82c-.34-.14-.7-.25-.95-.52a1.1 1.1 0 0 1-.32-.5c-.03-.12-.07-.25-.2-.32.04-.17 0-.3-.08-.45a.73.73 0 0 1-.09-.51c.03-.1 0-.2-.03-.29-.07-.2-.08-.4-.05-.6.05-.29.06-.57.09-.85 0-.1.02-.2.05-.29.1-.3 0-.54-.17-.77-.12-.16-.25-.3-.4-.44l-.41-.36Zm2.13-.2c-.03 0-.05 0-.08.02a14.2 14.2 0 0 0-1.17.69.13.13 0 0 0-.02.06l.15.2.15.24A3.48 3.48 0 0 1 7.76 6.9c-.11-.22-.1-.43-.15-.63-.31.07-.61.14-.9.24-.21.07-.43.13-.63.25h.01Zm-2.15-.08c.04-.33-.05-.51-.25-.56a.38.38 0 0 0-.45.23c-.08.18 0 .34.22.48a.42.42 0 0 0 .46-.16c.28.22.54.46.78.72a7.11 7.11 0 0 1 2.9-1.25c-.02-.36 0-.7 0-1.05l-.55.26c-.18.08-.3.24-.48.36-.1-.18-.24-.3-.4-.4A3 3 0 0 0 5.56 5c-.05-.02-.11-.02-.13-.08.2-.23.22-.43.07-.6A.37.37 0 0 0 5 4.29c-.18.14-.2.32-.07.55.11.13.26.11.4.15-.17.45-.34.88-.24 1.38a2.8 2.8 0 0 0-1.15.32ZM7.7 5.06c.24 0 .4-.15.4-.38 0-.19-.17-.35-.37-.35a.36.36 0 0 0-.35.21.37.37 0 0 0 .32.52ZM11.37 10.47c0 .5-.11.98 0 1.45.15.12.34.1.5.2.02.08.07.16.13.22.1.09.1.21.02.33l-.13.18a.4.4 0 0 1-.24.06h-.51c-.27 0-.54.02-.8.07-.25.06-.4 0-.48-.17a.52.52 0 0 1 .15-.62c.1-.06.2-.12.31-.15l.18-.07a.74.74 0 0 1 .03-.4.31.31 0 0 0 0-.2 1.1 1.1 0 0 1-.05-.57 3.1 3.1 0 0 0-.01-.89c.07-.2 0-.38-.04-.57a.85.85 0 0 1 .06-.56.6.6 0 0 1-.14-.43.54.54 0 0 0-.16-.37c-.13-.15-.26-.3-.45-.39-.08-.03-.13-.1-.11-.18.04-.15.07-.31.21-.41a.3.3 0 0 1 .27-.05l.41.1a.74.74 0 0 1 .47 0l.25-.08c.15.08.31.07.48.05.26-.03.52 0 .77.1l.6.2c.23.07.4.25.53.44.06.1.12.2.21.28.12.1.15.25.16.4.02.24 0 .5-.05.73a.98.98 0 0 1-.17.34.59.59 0 0 0-.09.13c-.07.2-.23.3-.4.4-.3.2-.63.37-1 .4-.07 0-.14.02-.2 0-.24-.1-.47-.06-.7.03Zm-.2-2.38c.07.18.24.34.1.54.08.17.07.33-.1.45l.28.41h.48c.16 0 .31-.02.47-.04.04 0 .08-.02.11-.05.08-.09.18-.1.3-.11.14-.01.21-.1.25-.23.13-.5-.2-1.07-.7-1.17a2.82 2.82 0 0 0-1.07.04c-.05.05-.09.09-.11.16Z"/></svg>