<!-- by TradingView --><svg width="18" height="18" viewBox="0 0 18 18" xmlns="http://www.w3.org/2000/svg"><path fill="#F0F3FA" d="M0 0h18v18H0z"/><path d="M8.32 12.73a4.54 4.54 0 0 1-.3-4.08c.23-.48.48-.96.76-1.45.15-.27.28-.56.4-.9.41-1.13.05-2.25-.53-3.14-.11-.19-.1-.2.06-.07.47.42.87.9 1.18 1.42 1.14 1.9-.06 3.74-.9 5.28-.55 1-.94 2.15-.43 3.32v.03c-.02.01-.03 0-.04-.01a6.77 6.77 0 0 0-.2-.4ZM10.53 8.22c-.04-.06-.03-.07.02-.03.08.07.16.15.24.25 1.2 1.57-.76 2.51-.37 4.11.1.38.06.4-.09.05-.35-.76-.48-1.62-.1-2.4.32-.64.76-1.17.3-1.98Z" fill="#1EA839"/><path d="M6.21 10.8 5.9 9.54c0-.05 0-.08.05-.1h.08c.04-.02.07 0 .08.06.51 2.71 2.1 4.51 4.27 4.82.4.06.81.02 1.23-.13 1.33-.48 1.4-2.49.05-2.95-.15-.05-.28 0-.38.15a.25.25 0 0 0-.03.17l.03.27c0 .08-.01.1-.07.06-.16-.1-.4-.3-.38-.56.02-.27.16-.43.42-.5.77-.19 1.41.49 1.68 1.38.24.83-.06 1.66-.62 2.13-.37.3-.77.5-1.19.57-2.82.54-5.38-1.43-6.1-4.94-.02-.05 0-.1.04-.11l.06-.02h.05l.01.03.01.02c.09.44.21.86.38 1.26.01.04.03.04.05 0l.04-.05a.1.1 0 0 0 .01-.04V11a5.03 5.03 0 0 1-.34-1.26l.01-.01h.02l.03-.01c.04 0 .06.02.08.06l.28.99c0 .01 0 .03.02.04h.09c.04-.01.05-.04.03-.08a6.22 6.22 0 0 1-.27-1.04c-.01-.05 0-.09.05-.1l.04-.01c.05-.02.08 0 .09.07a4.03 4.03 0 0 0 .37 1.22l.03-.01c.02-.01.03-.03.02-.06Zm.03.93c.1.03.16.1.19.23 0 .02.01.03.03.02h.03v-.02a2.05 2.05 0 0 0-.28-.82.23.23 0 0 0-.12-.09c-.14-.05-.23-.03-.28.07-.14.33.15.8.37 1 .01.01.02.02.03.01l.02-.02v-.05a.3.3 0 0 1-.08-.26c0-.07.03-.09.09-.07Zm.5.65.05-.02a.16.16 0 0 0 .04-.06l.01-.08a.45.45 0 0 0 0-.18.3.3 0 0 0-.04-.07.15.15 0 0 0-.04-.04.07.07 0 0 0-.05-.02.07.07 0 0 0-.04.03.16.16 0 0 0-.03.05l-.02.08a.45.45 0 0 0 .01.18l.03.07.04.05h.05Zm.23-.02c-.05.06-.06.15-.04.27l.02.04c.01.02.02.03.04.03h.04c.01 0 .03 0 .04-.02.07-.07.08-.16.03-.3a.1.1 0 0 0-.02-.03.07.07 0 0 0-.04-.02H7a.08.08 0 0 0-.03.03Zm-.4.17c0-.04 0-.08-.03-.12a.2.2 0 0 0-.11-.07h-.07a.16.16 0 0 0-.06.02.14.14 0 0 0-.07.1.2.2 0 0 0 .21.2c.03 0 .05-.02.07-.03a.14.14 0 0 0 .06-.1Zm.62.23c-.04.1-.04.2.02.27l.03.02a.06.06 0 0 0 .07 0l.02-.04c.06-.12.04-.22-.04-.29-.04-.03-.08-.02-.1.04Zm-.3.2-.01-.06a.15.15 0 0 0-.04-.05.2.2 0 0 0-.18-.06.16.16 0 0 0-.05.02.13.13 0 0 0-.04.03.12.12 0 0 0-.02.06l.01.05c0 .02.02.04.03.05a.19.19 0 0 0 .11.06h.07c.02 0 .04 0 .05-.02a.13.13 0 0 0 .04-.04.12.12 0 0 0 .02-.05Zm.64.33c.03-.01.05-.04.06-.08a.26.26 0 0 0-.05-.23.1.1 0 0 0-.04-.03h-.04c-.03.01-.05.04-.06.08a.26.26 0 0 0 .05.23.1.1 0 0 0 .04.03h.04Zm-.39 0c0-.04 0-.07-.03-.1a.19.19 0 0 0-.1-.06.16.16 0 0 0-.1 0 .1.1 0 0 0-.06.08c0 .03 0 .06.03.1l.1.05h.1a.1.1 0 0 0 .06-.08Zm.68.27c.02-.01.04-.04.04-.08a.3.3 0 0 0-.07-.24.1.1 0 0 0-.04-.02H7.7c-.02.02-.04.05-.04.09a.3.3 0 0 0 .07.23.1.1 0 0 0 .04.02h.04Zm-.63-.14a.1.1 0 0 0-.04.02.13.13 0 0 0-.04.05c-.02.06.02.12.14.18h.06a.1.1 0 0 0 .05-.03.15.15 0 0 0 .03-.07v-.07c-.02-.08-.08-.11-.2-.08Zm.26.28a.08.08 0 0 0-.03.03.11.11 0 0 0 0 .09l.01.03c.06.06.12.06.19 0 .03-.02.04-.06 0-.1-.04-.08-.1-.1-.17-.05Z" fill="#FE972F"/></svg>