<!-- by TradingView --><svg width="18" height="18" viewBox="0 0 18 18" xmlns="http://www.w3.org/2000/svg"><path fill="#F0F3FA" d="M0 0h18v18H0z"/><path d="M12.3 4.86a358.6 358.6 0 0 0-3.12-1.41c-.13-.06-.2-.1-.37-.02A328.44 328.44 0 0 1 4.52 5.4a.18.18 0 0 0-.04.08l-1.06 4.4a.14.14 0 0 0 .03.14l1.15 1.33h.01a.02.02 0 0 0 .02 0l.63-.63c.12-.11.23-.24.34-.37.13-.15.25-.3.39-.41.14-.13.13-.27.08-.4a3.86 3.86 0 0 1-.21-.83l-.03-.02-1.43-.02c-.16 0-.17-.04-.04-.12l.9-.56.02-.01a.05.05 0 0 0 0-.06.61.61 0 0 0-.16-.1l-.14-.08a1.7 1.7 0 0 0-.26-.21c-.1-.07-.21-.18-.28-.26l-.02-.02c-.05-.06-.04-.09.04-.07l1.18.21a.07.07 0 0 0 .06-.01l.02-.02v-.03a2.37 2.37 0 0 1 0-.55v-.13c0-.06-.02-.1-.04-.12-.2-.2-.86-.96-.42-1.2a2.18 2.18 0 0 1 1.25-.09v.02c-.44.3-.68.73-.7 1.26a.12.12 0 0 0 .04.1l.78.73a.11.11 0 0 0 .12.02c.21-.09.43-.15.65-.18.03 0 .05-.01.07-.03a.16.16 0 0 0 .06-.05c.4-.77 1.08-.84 1.82-.45l.38.2c.13.09.12.11-.03.1a5.2 5.2 0 0 0-2 .11c-.06.02-.13.03-.16.1-.06.19-.11.4-.16.63 0 .02 0 .04.03.05.12.06.23.1.32.12.19.05.3.1.48.18l.11.05c.22.1.39.09.62.08h.04c.53-.02 1.03.09 1.52.33.5.26.8.67.89 1.23 0 .02 0 .02-.03 0l-.86-.6a11.98 11.98 0 0 0-1.97-.9h-.06l-.8.17c-.07.02-.08.05-.05.11.03.05.06.08.1.11l.1.13.32.54c.1.18.2.22.37.3l.03.01c.66.3 1.12.9 1.34 1.54.22.65.06 1.38-.52 1.82-.05.03-.08.02-.08-.04 0-.24-.03-.47-.07-.67-.14-.62-.33-1.23-.59-1.83l-.34-.8a.33.33 0 0 0-.16-.16 41.72 41.72 0 0 1-1.25-.6h-.02l-.56.74a.15.15 0 0 0-.04.1c.05.95-.06 1.8-.74 2.53l-.02.03.01.03 1.03 1.19c.01.02.03.02.05.02l4.58-.01h.33l.06-.03 3.08-3.62v-.04l-1.08-4.3v-.1c0-.05 0-.1-.1-.14-.38-.19-.76-.36-1.15-.51Z" fill="url(#a)"/><path d="M6.33 7.32c-.08-.09-.16-.17-.25-.2-.1-.04-.15-.01-.17.08l-.03.14c-.02.07 0 .11.08.13a.9.9 0 0 0 .48 0v-.03l-.11-.12Z" fill="url(#b)"/><path d="m7.23 7.75.02-.03.03-.23a.05.05 0 0 0-.02-.04.06.06 0 0 0-.04-.02h-.01c-.1-.01-.21 0-.29.02-.08.02-.13.06-.13.1 0 .03 0 .05.02.07.02.02.04.05.08.07a.9.9 0 0 0 .28.08h.01c.02 0 .03 0 .05-.02Z" fill="url(#c)"/><path d="M5.62 7.53c.1 0 .13.06.1.16-.02.1-.1.16-.25.18-.02 0-.04 0-.05-.02l-.32-.29v-.02c-.02-.06.01-.08.09-.07.07 0 .14.02.2.03.08 0 .15.02.23.03Z" fill="url(#d)"/><path d="M6.07 8.3c.05.03.09.04.13.09.12.13.26.12.42.1h.08c.1 0 .18-.02.25-.04.02 0 .03-.02.04-.03l.07-.2v-.06a.6.6 0 0 0-.41-.37l-.1-.03c-.11-.04-.23-.07-.33-.05-.08.02-.17.05-.27.1-.02 0-.03.02-.03.04-.01.15 0 .28.05.4l.05.04.05.02Z" fill="url(#e)"/><path d="m7.92 8.2-.6-.24a.27.27 0 0 0 0 .23.3.3 0 0 0 .06.1l.1.07h.02c.07.03.16.03.24 0a.3.3 0 0 0 .18-.15Z" fill="url(#f)"/><path d="M5.17 8.48a.07.07 0 0 1-.04-.02.06.06 0 0 1-.01-.05.33.33 0 0 1 .14-.23.35.35 0 0 1 .25-.06.35.35 0 0 1 .23.13.32.32 0 0 1 .06.25v.03l-.02.02a.07.07 0 0 1-.05 0l-.56-.07Z" fill="url(#g)"/><path d="m6.98 8.85.04.03.41.11h.06l.04-.05a.3.3 0 0 0-.02-.23.26.26 0 0 0-.16-.13h-.02a.27.27 0 0 0-.1-.01.31.31 0 0 0-.25.22v.06Z" fill="url(#h)"/><path d="M6.44 9.2h.01l.24-.3a.02.02 0 0 0 0-.02l-.08-.06c-.11-.08-.23-.14-.33-.16-.1-.03-.18-.02-.21.02l-.01.01c-.02.02-.02.05-.02.08 0 .04.02.08.05.12l.1.13.15.12.08.06h.02Z" fill="url(#i)"/><path d="M14.99 10.04a.04.04 0 0 0 0-.04l-1.13-4.73a.25.25 0 0 0-.06-.1.28.28 0 0 0-.1-.08c-.27-.1-.5-.2-.73-.3-.77-.37-1.65-.77-2.82-1.3l-.95-.42c-.2-.09-.27-.1-.46 0a13.17 13.17 0 0 1-.85.42L4.27 5.1a.25.25 0 0 0-.15.18A257.8 257.8 0 0 1 3 10.06l.03.06 3.27 3.8.09.06.1.02h5.03c.23 0 .3-.1.38-.23l.1-.14c.18-.2.35-.44.52-.65L15 10.04Zm-2.49 2.79c-.28.32-.55.63-.8.95a.1.1 0 0 1-.05.03.58.58 0 0 1-.1.02H6.5a.17.17 0 0 1-.14-.06l-3.15-3.66a.12.12 0 0 1-.03-.08c0-.09 0-.18.03-.27a414.52 414.52 0 0 0 1.02-4.37c.01-.06.05-.11.1-.14.08-.05.2-.1.33-.16l1.45-.65 1.31-.6a41.54 41.54 0 0 0 1.25-.57c.13-.07.23-.12.37-.09.18.05.46.18.68.3l.26.11 2.17.95.36.16c.17.07.32.13.52.23.15.07.34.14.56.21a.2.2 0 0 1 .15.16 55.7 55.7 0 0 0 1.04 4.38l.05.17a.4.4 0 0 1-.01.2s-1.65 2-2.33 2.78Z" fill="url(#j)"/><defs><linearGradient id="a" x1="3.54" y1="9.51" x2="14.72" y2="9.92" gradientUnits="userSpaceOnUse"><stop stop-color="#CE3A20"/><stop offset="1" stop-color="#E1851E"/></linearGradient><linearGradient id="b" x1="3.54" y1="9.51" x2="14.72" y2="9.92" gradientUnits="userSpaceOnUse"><stop stop-color="#CE3A20"/><stop offset="1" stop-color="#E1851E"/></linearGradient><linearGradient id="c" x1="3.54" y1="9.51" x2="14.72" y2="9.92" gradientUnits="userSpaceOnUse"><stop stop-color="#CE3A20"/><stop offset="1" stop-color="#E1851E"/></linearGradient><linearGradient id="d" x1="3.54" y1="9.51" x2="14.72" y2="9.92" gradientUnits="userSpaceOnUse"><stop stop-color="#CE3A20"/><stop offset="1" stop-color="#E1851E"/></linearGradient><linearGradient id="e" x1="3.54" y1="9.51" x2="14.72" y2="9.92" gradientUnits="userSpaceOnUse"><stop stop-color="#CE3A20"/><stop offset="1" stop-color="#E1851E"/></linearGradient><linearGradient id="f" x1="3.54" y1="9.51" x2="14.72" y2="9.92" gradientUnits="userSpaceOnUse"><stop stop-color="#CE3A20"/><stop offset="1" stop-color="#E1851E"/></linearGradient><linearGradient id="g" x1="3.54" y1="9.51" x2="14.72" y2="9.92" gradientUnits="userSpaceOnUse"><stop stop-color="#CE3A20"/><stop offset="1" stop-color="#E1851E"/></linearGradient><linearGradient id="h" x1="3.54" y1="9.51" x2="14.72" y2="9.92" gradientUnits="userSpaceOnUse"><stop stop-color="#CE3A20"/><stop offset="1" stop-color="#E1851E"/></linearGradient><linearGradient id="i" x1="3.54" y1="9.51" x2="14.72" y2="9.92" gradientUnits="userSpaceOnUse"><stop stop-color="#CE3A20"/><stop offset="1" stop-color="#E1851E"/></linearGradient><linearGradient id="j" x1="3.54" y1="9.51" x2="14.72" y2="9.92" gradientUnits="userSpaceOnUse"><stop stop-color="#CE3A20"/><stop offset="1" stop-color="#E1851E"/></linearGradient></defs></svg>