<!-- by TradingView --><svg width="18" height="18" viewBox="0 0 18 18" xmlns="http://www.w3.org/2000/svg"><path fill="#F0F3FA" d="M0 0h18v18H0z"/><path d="M6.45 10.02c1.67-1.71 2.79-2.8 3.13-3.17a.08.08 0 0 1 .06-.02.07.07 0 0 1 .05.02l.9.92v.03l-4.91 5.02c-.12.12-.21.18-.28.18H5V8.25a4.57 4.57 0 0 1 2.44-3.83 3.5 3.5 0 0 1 1.37-.4c.5-.03 1-.03 1.48.02.34.04.62.1.83.2A5.55 5.55 0 0 1 12.7 5.4a.06.06 0 0 1-.02.04l-1 1.03a.04.04 0 0 1-.03.01.04.04 0 0 1-.03-.01c-.5-.74-1.2-1.1-2.1-1.12a2.93 2.93 0 0 0-3.07 2.97v1.7Z" fill="#2C4383"/><path d="M11.5 9.66c0-.08-.02-.1-.07-.04l-1.16 1.21a.08.08 0 0 1-.06.03.08.08 0 0 1-.06-.03l-.8-.8c-.04-.05-.04-.1 0-.14l3.68-3.77c.04-.05.09-.05.13 0l.83.85.01.02V7l-1 1.02c-.03.04 0 .08 0 .13v4.7c0 .04-.04.07-.05.08a.17.17 0 0 1-.05.04.1.1 0 0 1-.05.02H6.41c-.07 0-.08-.03-.03-.08L7.7 11.6a.18.18 0 0 1 .06-.04c.02 0 .04-.05.06-.05h3.6c.05 0 .09-.03.08-.08V9.66Z" fill="#5EB461"/></svg>