<!-- by TradingView --><svg width="18" height="18" viewBox="0 0 18 18" xmlns="http://www.w3.org/2000/svg"><path fill="#F0F3FA" d="M0 0h18v18H0z"/><path d="m13.98 10.81.02.01a5 5 0 0 1-2.14 2.47c-.79.46-1.71.7-2.65.71a5.19 5.19 0 0 1-4.96-3.48 4.78 4.78 0 0 1 .01-3.1 4.94 4.94 0 0 1 2.02-2.57 5.27 5.27 0 0 1 6.04.18 5.64 5.64 0 0 1 .68.61l-.02-.02a4.77 4.77 0 0 0-6.62.2 4.4 4.4 0 0 0 1.3 7.03 4.8 4.8 0 0 0 4.15.06 4.55 4.55 0 0 0 2.17-2.1Z" fill="#213870"/><path d="M12.83 11.6a4.33 4.33 0 0 1-3.44 1.07 4.27 4.27 0 0 1-2.22-.96 3.8 3.8 0 0 1-1.05-1.4 3.53 3.53 0 0 1 .54-3.73 4.26 4.26 0 0 1 2.69-1.49 4.37 4.37 0 0 1 3.8 1.34c.02.02.02.03 0 .03h-.17c-.02 0-.04 0-.05-.02a3.85 3.85 0 0 0-2.66-.88 3.87 3.87 0 0 0-2.55 1.1 3.33 3.33 0 0 0-1 2.44c.04.73.28 1.38.74 1.95.57.7 1.42 1.19 2.37 1.32a3.97 3.97 0 0 0 3-.78Z" fill="#367BB8"/></svg>