<!-- by TradingView --><svg width="18" height="18" viewBox="0 0 18 18" xmlns="http://www.w3.org/2000/svg"><path fill="#F0F3FA" d="M0 0h18v18H0z"/><path d="M5.57 11.28a4.89 4.89 0 0 0 6.32 2.3c.05-.02.09-.06.09-.11a453.38 453.38 0 0 0-.01-2.93c-.48.32-.98.4-1.5.26a4.47 4.47 0 0 1-.96-.39v1.23a.03.03 0 0 1 0 .02c-.03.02-.06.03-.1.02a1.77 1.77 0 0 1-.72-.3c-.8-.57-1.08-1.58-1.05-2.56.04-1.48 1-2.7 2.47-2.62A2.39 2.39 0 0 1 12 7.37V4.52c0-.02 0-.05-.02-.07a.11.11 0 0 0-.05-.04 4.98 4.98 0 0 0-6.36 6.87Zm4.15-1.47c.36.17.72.35 1.1.39a1.46 1.46 0 0 0 1.16-.35V7.68c-.18.24-.36.43-.63.53-.28.1-.55.03-.82-.07l-.62-.25a2.7 2.7 0 0 0-1.07-.26c-.3.01-.65.11-.87.33v2.01c.18-.21.41-.4.67-.46.17-.03.37 0 .52.06.19.07.37.16.56.24Z" fill="#E40521"/></svg>