<!-- by TradingView --><svg width="18" height="18" viewBox="0 0 18 18" xmlns="http://www.w3.org/2000/svg"><path fill="#F0F3FA" d="M0 0h18v18H0z"/><path fill-rule="evenodd" d="M3 6.92v4.17c.08.36.26.6.53.74.21.1.54.16.98.16h9.12c.6 0 1-.17 1.2-.5.11-.18.17-.47.17-.87V7.37c0-.4-.06-.69-.18-.88-.2-.31-.5-.47-.9-.47C12.48 6 9.29 6 4.37 6c-.76 0-1.22.3-1.37.9Zm2.84.25.19-.31c.04-.07.1-.11.18-.12a.24.24 0 0 1 .22.09c.18.18.33.28.47.3.24.03.7.07 1.4.1.07 0 .12.04.15.1.03.05.03.11 0 .17l-.03.05c-.03.05-.08.07-.14.06a11.14 11.14 0 0 0-2.77 0c-.67.1-1.1.14-1.32.12-.11-.01-.14-.07-.08-.17l.1-.15a.24.24 0 0 1 .21-.12h1.2c.1 0 .17-.04.22-.12Zm4.88-.2-.82-.12a.18.18 0 0 0-.2.14L9.68 7c-.02.1.05.18.15.2l.82.13c.1.01.19-.05.2-.14v-.02a.17.17 0 0 0-.14-.2Zm1.26 2.65c.1.61-.22 1.11-.94 1.5-.1.05-.18.04-.24-.04l-.03-.03c-.06-.09-.05-.16.03-.22.47-.3.74-.67.83-1.12.01-.07-.02-.1-.09-.12a.35.35 0 0 1-.21-.1.2.2 0 0 0-.17-.07c-.24.01-.44 0-.59-.05-.09-.03-.13 0-.13.1v1.51c0 .13-.07.2-.2.2h-.07a.22.22 0 0 1-.2-.07.27.27 0 0 1-.06-.2l.11-1.42a.08.08 0 0 0-.04-.08.1.1 0 0 0-.1 0c-.26.15-.42.2-.5.17-.38-.2-.37-.35.03-.47s.73-.43 1.03-.9c.04-.07.03-.12-.01-.18a.15.15 0 0 0-.17-.06l-.69.16c-.08.02-.14 0-.17-.08a.16.16 0 0 1-.02-.07c0-.12.06-.2.18-.25a2.2 2.2 0 0 1 1.16-.08c.1.02.18.07.24.15.06.08.08.17.07.26-.03.2-.15.41-.35.67-.06.07-.05.12 0 .17l.43.33c.02.02.04.01.04-.03l.08-2.1c0-.06.04-.1.1-.1.2.01.56 0 1.07-.04.45-.04.79.09 1.03.38a.2.2 0 0 1 .04.13V9a.3.3 0 0 1-.05.17.98.98 0 0 1-.51.36c-.06.02-.09.05-.1.1l-.15.95c-.01.08.01.13.08.16.21.1.44.13.69.1.1-.01.14-.06.14-.16v-.4c0-.07.03-.12.1-.13.05-.02.11-.01.18.02.07.03.12.08.14.13.09.27.1.54.02.8a.15.15 0 0 1-.13.1c-.54.08-1.06.03-1.55-.15a.2.2 0 0 1-.13-.13c-.1-.3-.05-.72.18-1.29.03-.07 0-.1-.08-.1h-.23c-.07 0-.1.02-.09.09Zm-.25-1.06c0-.06.03-.1.1-.1h1c.06 0 .09-.03.08-.08 0-.06 0-.15.02-.27.02-.22 0-.38-.05-.47-.17-.25-.44-.32-.81-.2-.3.1-.46.23-.48.39-.04.41-.04.8 0 1.17.01.09.06.14.15.15.36.05.69.03 1-.04.07-.02.12-.07.15-.15l.04-.09c.02-.06 0-.09-.07-.09h-1.02c-.07 0-.11-.03-.11-.1v-.12Zm.16-.66.78-.05c.09 0 .17.06.18.15V8c0 .1-.07.17-.16.17l-.78.05a.16.16 0 0 1-.18-.15v-.01c0-.09.07-.17.16-.17ZM5 7.94c-.17 0-.25.1-.24.25l.03.59c0 .16.1.24.27.23l2.2-.1a.78.78 0 0 0 .46-.18c.13-.1.2-.23.18-.37V8.3c0-.14-.08-.26-.22-.35a.77.77 0 0 0-.49-.13l-2.19.1Zm.18.62.02.02 2.17-.06c.01 0 .02 0 .02-.02v-.01c0-.1-.06-.18-.17-.24a.74.74 0 0 0-.4-.1l-1.1.04a.73.73 0 0 0-.38.1c-.1.08-.16.16-.16.26Zm-.7 2.55.11-1c0-.06.03-.1.08-.15.36-.3.8-.45 1.3-.46l.2-.01c.53-.03.92-.02 1.18.03.46.07.7.25.73.54l-.02 1.03c-.01.11.04.16.15.16h.13c.13 0 .2-.06.19-.18-.02-.84-.1-1.35-.23-1.54a.6.6 0 0 0-.45-.29 8.4 8.4 0 0 0-2.36.02c-.34.06-.65.06-.96 0-.1-.01-.17.03-.2.12-.2.53-.26 1.13-.2 1.78 0 .05.03.07.08.07h.12c.1 0 .14-.04.15-.12Zm.6-.36c0 .17.08.25.26.25h1.97c.18 0 .26-.09.26-.25v-.3a.6.6 0 0 0-.24-.47.86.86 0 0 0-.56-.2l-.9.01a.85.85 0 0 0-.56.2.6.6 0 0 0-.24.47v.3Zm.67-.6 1.13-.05c.13 0 .23.1.23.21v.02c.01.12-.09.22-.21.22l-1.13.04a.22.22 0 0 1-.23-.2v-.02c-.01-.12.09-.22.21-.23Z" fill="#E00821"/></svg>