<!-- by TradingView --><svg width="18" height="18" fill="none" xmlns="http://www.w3.org/2000/svg"><path fill="#31594B" d="M0 0h18v18H0z"/><path fill-rule="evenodd" clip-rule="evenodd" d="M13.075 11.887c-.438.613-1 1.125-1.662 1.488L4.65 6.525a5.155 5.155 0 0 1 1.513-1.65l6.912 7.012Z" fill="#A1C79E"/><path fill-rule="evenodd" clip-rule="evenodd" d="M9 4a4.999 4.999 0 0 1 4.35 7.463L6.6 4.613A4.86 4.86 0 0 1 9 4Z" fill="#BDE2B2"/><path fill-rule="evenodd" clip-rule="evenodd" d="M10.9 13.625A4.92 4.92 0 0 1 9.025 14L4 8.912c.013-.662.15-1.3.4-1.875l6.5 6.588Z" fill="#85AC89"/><path fill-rule="evenodd" clip-rule="evenodd" d="M7.937 13.887A5 5 0 0 1 4.1 10l3.837 3.887Z" fill="#678D73"/></svg>