<!-- by TradingView --><svg width="18" height="18" viewBox="0 0 18 18" xmlns="http://www.w3.org/2000/svg"><path fill="#F0F3FA" d="M0 0h18v18H0z"/><path d="M11.74 7.75a2.57 2.57 0 0 0-.94.2c-.42.17-.85.4-1.24.62l-.4.24h-.01v-.02a3.45 3.45 0 0 1 .56-1.3 3.8 3.8 0 0 1 2.08-1.37A7.49 7.49 0 0 1 13.36 6h1.58v.02c.02.14 0 .29-.04.42-.1.32-.3.65-.56.83a1.67 1.67 0 0 1-1.01.32h-.41a6.56 6.56 0 0 0-1.04.1.59.59 0 0 0-.14.06Z" fill="#063744"/><path d="M3.06 6s.02 0 0 0S3 6 3 6.02a3.92 3.92 0 0 0 .04.3c.06.23.15.54.3.74.23.36.54.7.93.84l.15.04c.18.04.36.06.54.06h2.28c-.01 0 .02 0 0 0l.05.01a2 2 0 0 1 .36.07c.18.05.34.13.5.24.07.05.14.11.2.19.14.16.23.17.27.38l.03.22.5-.3v-.02c.05-.31.16-.6.3-.88 0-.04-.02-.08-.04-.14-.07-.26-.17-.5-.31-.72C8.56 6.2 7.6 6 6.7 6H3.07Z" fill="url(#a)"/><path d="m8.62 8.9.03.2a8.96 8.96 0 0 1-2.58 1.18c-.3.07-.6.11-.9.12l-.6-1.22H7.2a.63.63 0 0 0 .2-.08c.2-.1.3-.22.31-.45 0-.1 0-.2-.02-.3A.57.57 0 0 0 7.5 8a.8.8 0 0 0-.2-.1 2 2 0 0 1 .36.07c.19.05.35.12.5.23.07.05.14.12.21.2.14.15.22.28.26.5Z" fill="#063744"/><path d="m12.21 7.9.12.03a1.68 1.68 0 0 1 .9.58 2.04 2.04 0 0 1 .4.99 1.06 1.06 0 0 0-.48-.2 2.58 2.58 0 0 0-.75.04 9.6 9.6 0 0 0-1.63.6 20.95 20.95 0 0 0-2.28 1.24 7.95 7.95 0 0 1-1.57.67c-.3.07-.6.11-.92.1-.17-.01-.34-.04-.5-.1a1.84 1.84 0 0 1-.92-.64 2.43 2.43 0 0 1-.42-.89 3.4 3.4 0 0 0 1.37.14c.34-.03.68-.1 1.02-.21a6.88 6.88 0 0 0 1.48-.66c.33-.18.66-.37.98-.57l.55-.33a26.58 26.58 0 0 1 .9-.49 4.62 4.62 0 0 1 .8-.3c.13-.02.25-.04.37-.04.2-.01.4 0 .58.04Z" fill="#063744"/><path d="M9.86 9.21a.6.6 0 0 0-.12.07 25.17 25.17 0 0 0-.1-.17c-.02 0-.05.03-.07.01l-.01-.01.01-.02a8.38 8.38 0 0 1 .28-.13l.01.02-.05.03c-.02.02-.02.04 0 .07l.05.13Z" fill="#E9D688"/><path d="m8.99 9.6-.1.04c0-.07.02-.14.06-.19a.77.77 0 0 1 .34-.24 6.32 6.32 0 0 0 .2-.06l.09.24c0 .01 0 .02-.02.02h-.01a.25.25 0 0 0-.32-.1.4.4 0 0 0-.24.29Z" fill="#DBBE45"/><path d="m9.86 9.21.21.48a.4.4 0 0 1-.11.07l-.22-.48a.6.6 0 0 1 .12-.07Z" fill="#FEFAE6"/><path d="m10 9.85.13-.08c.04.03.08.03.11.02.1-.03.15-.12.15-.22 0-.01.01-.03.03-.02l.07.18a3.45 3.45 0 0 0-.5.26h-.02v-.02c.04-.03.04-.07.03-.12Z" fill="#DBBE45"/><path d="M8.99 9.6v.15a.54.54 0 0 0-.1.06v-.17l.1-.04Z" fill="#EBDFBC"/><path d="m10.07 9.7.06.07-.13.08-.04-.09a.4.4 0 0 0 .11-.07Z" fill="#E9D688"/><path d="m8.67 9.84-.13.08c-.04-.08-.12-.14-.2-.12a.2.2 0 0 0-.1.05h-.01l.02.06-.12.07a.56.56 0 0 0-.02-.04c-.02-.04-.05-.02-.08-.01-.02 0-.03 0-.04-.02V9.9a33.25 33.25 0 0 0 .4-.19c.08-.02.14 0 .2.04.03.02.06.05.08.09Z" fill="#DBBE45"/><path d="M8.99 9.75c.03.14.1.26.22.34l-.14.09a.52.52 0 0 1-.14-.2.61.61 0 0 1-.05-.17.54.54 0 0 1 .1-.06Z" fill="#FEFAE6"/><path d="M8.54 9.92c.03.04.05.09.05.14.01.05 0 .1-.04.13a.63.63 0 0 1-.14.06l-.1-.2-.06-.14-.02-.05a.2.2 0 0 1 .1-.06c.09-.02.17.04.21.12Z" fill="#063744"/><path d="m9.26 10.27.18-.1c.08 0 .16-.03.23-.08.06-.04.09-.1.1-.17a1.29 1.29 0 0 0 0-.1h.03a.4.4 0 0 1 .05.2v.02l-.02.01-.26.17c-.1.05-.2.07-.31.05Z" fill="#DBBE45"/><path d="m8.67 9.84.02.12a.6.6 0 0 1-.03.21l.19.1-.13.08c-.04-.02-.1-.06-.15-.06a.3.3 0 0 0-.12.04v.02l.06.14-.12.07-.2-.44a.46.46 0 0 1 .12-.08l.1.21c.05-.01.1-.03.14-.06.04-.03.05-.08.04-.13 0-.05-.02-.1-.05-.14l.13-.08Z" fill="#FEFAE6"/><path d="m8.25 9.91.06.13a.46.46 0 0 0-.12.08l-.06-.14.12-.07Z" fill="#E9D688"/><path d="M7.34 10.5a.37.37 0 0 0-.12.05c0-.07.02-.14.06-.2a.53.53 0 0 1 .13-.16.8.8 0 0 1 .22-.13 4.15 4.15 0 0 1 .23-.07c.03.05.04.1.06.16l.01.06v.01H7.9a.23.23 0 0 0-.12-.1c-.12-.03-.25.04-.33.13a.41.41 0 0 0-.11.24Z" fill="#DBBE45"/><path d="m9.44 10.17-.18.1a.43.43 0 0 1-.2-.1l.15-.08c.07.05.14.07.23.08Z" fill="#E9D688"/><path d="M8.85 10.28c.05.03.1.06.17.08a4.24 4.24 0 0 1-.15.08l-.15-.09.13-.07Z" fill="#EBDFBC"/><path d="M8.87 10.44a4.74 4.74 0 0 0 .15-.08c.06.02.14.04.2 0l.01.01a.3.3 0 0 1-.1.1.23.23 0 0 1-.12.01.34.34 0 0 1-.14-.04Z" fill="#DBBE45"/><path d="M8.2 10.78a.55.55 0 0 1-.07.05.1.1 0 0 1-.04.02 14.96 14.96 0 0 0-.15-.3H7.9a.25.25 0 0 1-.06 0v-.03a4.89 4.89 0 0 1 .29-.11.32.32 0 0 0-.03.03l-.02.04a16.7 16.7 0 0 1 .13.3Z" fill="#FEFAE6"/><path d="M7.34 10.5c0 .08 0 .15.04.23a.62.62 0 0 0-.1.07.52.52 0 0 1-.06-.25.37.37 0 0 1 .12-.06Z" fill="#E9D688"/><path d="m8.51 10.5.06.1-.13.07-.05-.11.12-.07Z" fill="#EBDFBC"/><path d="m8.57 10.6.03.05h.02l.05-.02a.04.04 0 0 1 .03 0v.03a4.43 4.43 0 0 1-.3.12l.03-.03c.03-.03.02-.05 0-.08l.14-.06Z" fill="#DBBE45"/><path d="m9.53 10.68.02.13a3.54 3.54 0 0 0 .1.57l-.13-.2a57.23 57.23 0 0 0-.19-.4l.05-.02.15-.08Z" fill="#051822"/><path d="m7.38 10.73.04.06c.08.1.18.18.31.2a.16.16 0 0 1-.04.04 1.8 1.8 0 0 0-.1.06.53.53 0 0 1-.32-.29.62.62 0 0 1 .11-.07Z" fill="#FEFAE6"/><path d="m7.6 11.1.09-.07a.16.16 0 0 0 .04-.03h.07a.45.45 0 0 0 .25-.1l.04-.05a.1.1 0 0 0 .04-.02.55.55 0 0 0 .08-.05l.01.04v.01a.42.42 0 0 1-.13.14c-.07.05-.15.09-.23.12a.4.4 0 0 1-.26 0Z" fill="#E9D688"/><path d="m10.9 10.2-.07-.2-.03.01c-.43.21-.85.43-1.27.67l.02.13a3.55 3.55 0 0 0 .1.57l-.13-.2a2.66 2.66 0 0 0 .93 1.07 3.9 3.9 0 0 0 2.31.74c.17 0 .35 0 .55-.02h.03a5.16 5.16 0 0 0 .45-.06l.35-.13a1.61 1.61 0 0 0 .66-.67c.1-.22.17-.44.2-.68v-.02h-2.77a1.35 1.35 0 0 1-.61-.24 1.89 1.89 0 0 1-.72-.97Z" fill="url(#b)"/><path d="m7.7 11.67.65 1.3h-.01c-.6.09-1.14-.03-1.65-.36a2.9 2.9 0 0 1-.65-.58 3.14 3.14 0 0 0 1.18-.18l.49-.18Z" fill="#051822"/><path fill-rule="evenodd" d="M12.24 7.8a2.57 2.57 0 0 0-1.43.16c-.43.16-.86.39-1.25.61l-.4.24-.5.3-.65.37a8.96 8.96 0 0 1-1.94.8c-.3.07-.6.11-.9.12h-.2a3.53 3.53 0 0 1-.9-.16c.08.39.25.76.5 1.05a1.9 1.9 0 0 0 1.47.74 3.14 3.14 0 0 0 1.18-.18 5.82 5.82 0 0 0 1.3-.59 38.65 38.65 0 0 0 .82-.47l.04-.03.15-.08c.42-.24.84-.46 1.27-.67l.03-.01a11.34 11.34 0 0 1 1.37-.54c.13-.04.26-.07.4-.09.18-.03.36-.04.54-.02.15.03.3.08.42.17a12.23 12.23 0 0 1 .11.07v-.17c-.03-.27-.1-.51-.21-.75a1.64 1.64 0 0 0-.67-.69c-.17-.09-.36-.15-.55-.19Zm-5.32 4.05a5.4 5.4 0 0 0 1.57-.67 42.15 42.15 0 0 0 .88-.52 20.92 20.92 0 0 1 1.42-.74 9.6 9.6 0 0 1 1.61-.59 2.58 2.58 0 0 1 .75-.04h.02a1.06 1.06 0 0 1 .47.2c0-.06-.02-.12-.03-.17-.07-.3-.2-.57-.38-.81a1.68 1.68 0 0 0-1.02-.61 2.59 2.59 0 0 0-.94 0 3.28 3.28 0 0 0-.82.3 10.2 10.2 0 0 0-.9.5l-.54.32a25.03 25.03 0 0 1-1.72.94c-.24.11-.49.2-.74.29a4.67 4.67 0 0 1-1.57.22 3.4 3.4 0 0 1-.83-.14c.08.33.23.62.43.88a1.84 1.84 0 0 0 1.42.74c.31.01.62-.03.92-.1Z" fill="#B4946B"/><defs><linearGradient id="a" x1="3.28" y1="6.8" x2="8.95" y2="8.18" gradientUnits="userSpaceOnUse"><stop stop-color="#063845"/><stop offset="1" stop-color="#051D27"/></linearGradient><linearGradient id="b" x1="9.86" y1="10.74" x2="14.35" y2="12.08" gradientUnits="userSpaceOnUse"><stop stop-color="#063845"/><stop offset="1" stop-color="#05161F"/></linearGradient></defs></svg>