<!-- by TradingView --><svg width="18" height="18" viewBox="0 0 18 18" xmlns="http://www.w3.org/2000/svg"><path fill="#F0F3FA" d="M0 0h18v18H0z"/><path d="M2.6 7.21a.01.01 0 0 1-.02 0l.01-.02c3.58-.06 3.18-.12 6.76-.18.7-.02 1.24 0 1.66.03.42.04.83.11 1.22.22.2.06.52.2.63.38.01.02 0 .03-.02.03h-2.22a220.96 220.96 0 0 1-.18 1.9h-.01v-.02l.02-2.02c0-.02.02-.03.04-.03h1.65c.17.01.17-.01.02-.07a2.15 2.15 0 0 0-.4-.1 23.8 23.8 0 0 1-.65-.11 5.83 5.83 0 0 0-.65-.09c-.4-.02-.9-.03-1.51-.03-3.45.04-2.92.09-6.36.11ZM13.54 8.02c.06 0 .06-.03.01-.06l-.4-.21c-.14-.07-.13-.08.02-.04.22.07.44.16.65.26.08.05.14.1.19.16a.02.02 0 0 1 0 .02l-.01.01H13.79c-.02 0-.03 0-.01.02a6.62 6.62 0 0 1 .48.67 4.68 4.68 0 0 1 1.67.58 19.57 19.57 0 0 1 .05 1.17c-.02-.06-.07-.08-.16-.08h-.01v-.01c.05 0 .09 0 .12-.02.02 0 .03-.02.03-.04l-.14-.87c0-.11-.08-.16-.17-.2-.2-.08-.4-.16-.63-.21a15.2 15.2 0 0 0-.95-.24c-.17-.32-.4-.6-.68-.85-.02-.02-.02-.03.01-.04l.14-.02ZM2.43 8.94v-.7c0-.18.1-.28.29-.28h.78a.7.7 0 0 1 .28.04c.1.05.13.15.11.3 0 .02 0 .06-.03.06h-.19c-.02 0-.03 0-.04-.02l-.02-.12c0-.02 0-.02-.03-.02h-.83c-.03 0-.04 0-.04.03v.76l.02.01h.86c.02 0 .03-.01.03-.03v-.24c0-.02-.04-.02-.06-.02h-.4c-.03 0-.05-.02-.05-.05v-.12c0-.03.02-.05.05-.05h.69l.03.01.02.04v.41c-.02.25-.15.27-.37.27h-.86c-.16 0-.24-.1-.24-.28Z" fill="#205295"/><path d="M4.76 9h.73c.02 0 .03-.02.03-.04v-.21c0-.05.02-.07.06-.06l.16.04c.04 0 .06.03.06.07-.01.18.03.4-.24.42h-.88a.24.24 0 0 1-.16-.06.22.22 0 0 1-.07-.15v-.72c0-.22.03-.32.29-.33h.76c.32 0 .3.2.3.42a.05.05 0 0 1-.02.04.05.05 0 0 1-.03.02h-.2a.04.04 0 0 1-.02 0v-.02l-.01-.01v-.19c0-.02-.01-.02-.03-.02h-.73c-.03 0-.04 0-.04.02v.74c0 .02.01.04.04.04ZM7.91 9a.23.23 0 0 1-.07.16.25.25 0 0 1-.17.07H6.65a.26.26 0 0 1-.18-.07.23.23 0 0 1-.07-.17v-.8a.23.23 0 0 1 .07-.16.26.26 0 0 1 .18-.07h1.02a.26.26 0 0 1 .17.07.23.23 0 0 1 .08.17V9Zm-.27-.78c0-.02 0-.02-.02-.02H6.7l-.03.01v.76a.02.02 0 0 0 .01.02L6.7 9h.92a.03.03 0 0 0 .01 0 .02.02 0 0 0 .01-.02v-.76Z" fill="#205295"/><path d="M9.13 8.68a49.64 49.64 0 0 0-.38-.3v.78c0 .03-.02.05-.06.05h-.14c-.05 0-.07-.02-.07-.06V8.06c0-.02 0-.03.02-.05a.1.1 0 0 1 .05-.04.12.12 0 0 1 .11.02 36.98 36.98 0 0 1 1 .82h.01v-.78c0-.03.02-.05.06-.05h.14c.04 0 .06.02.06.06v1.09a.1.1 0 0 1-.01.05.1.1 0 0 1-.05.04.12.12 0 0 1-.11-.02l-.63-.52Z" fill="#354C6B"/><path d="M11.57 8.1h-.63c-.02 0-.03.01-.03.03v.76c0 .02.01.03.03.03h.63c.02 0 .03-.01.03-.03v-.76c0-.02 0-.03-.03-.03ZM12.67 8.2l-.04 1.36h-.01l-.04-1.45h.3l-.21.08ZM13.42 8.24l.52.7a.04.04 0 0 1-.02.05h-.4a.05.05 0 0 1-.03 0l-.12-.12-.01-.03-.01-.58v-.03l.02-.01h.03s.02 0 .02.02Z" fill="#484848"/><path d="M14.71 9.83c.4-.02.7.18.82.52.05.17.08.33.07.5l-.01.01h-.02c0-.06-.04-.18-.1-.34a.75.75 0 0 0-.52-.48.82.82 0 0 0-.22-.01c-.11 0-.19.01-.23.03a.73.73 0 0 0-.45.54 1.6 1.6 0 0 0-.07.34h-.02c-.03-.17-.03-.34 0-.51.08-.35.36-.58.75-.6ZM7.88 10.93h-.07l-3.56-.04c.04 0 .05 0 .05-.02h5.86c.03 0 .05-.01.05-.04l.04-.23a.1.1 0 0 0 .04 0h2.15v-.03h-.01l-2.14-.1-.01-.01.04-.24.01-.02h.02l3.38.21c.02 0 .03.01.03.03V11h-.02a1293.26 1293.26 0 0 0-3.97 0l-1.89-.06Z" fill="#205295"/><path d="M10.28 10.46v.01c-.02.05-.02.09 0 .13a.1.1 0 0 1-.03 0l-3.13-.07h-.17l-4.15-.05h-.01v-.01l7.49-.01Z" fill="#454A56"/></svg>