<!-- by TradingView --><svg width="18" height="18" viewBox="0 0 18 18" xmlns="http://www.w3.org/2000/svg"><path fill="#181B1E" d="M0 0h18v18H0z"/><path d="M16 9c0 1.34-.67 2-2 2s-2-.66-2-2c0-1.34.67-2 2-2s2 .66 2 2Zm-2 1.14c.82 0 1-.55 1-1.13v-.02c0-.57-.19-1.13-1-1.13s-1 .56-1 1.13v.02c0 .58.18 1.13 1 1.13ZM9.26 9.36l-.51-.06c-.83-.1-1.58-.35-1.58-1.17v-.01C7.17 7.37 7.7 7 8.94 7c.93 0 1.83.24 1.9 1.14h-1c-.05-.35-.55-.4-.9-.4-.5 0-.77.12-.77.36 0 .32.46.39.74.42l.53.06c.81.1 1.56.37 1.56 1.17 0 .84-.65 1.25-1.95 1.25-1.06 0-2-.33-2.05-1.34h1c.05.4.46.6 1.05.6.39 0 .95-.06.95-.47v-.01c0-.3-.45-.38-.74-.42Z" fill="#B49532"/><path d="M4.13 10.29c.55 0 .87-.29.87-.7H4V9h2v2h-.86l-.06-.52c-.2.36-.7.52-1.15.52C2.6 11 2 10.06 2 9c0-1.15.7-2 2.1-2 .97 0 1.86.4 1.9 1.3H5c-.03-.35-.4-.59-.9-.59C3.27 7.71 3 8.4 3 9v.02c0 .62.29 1.28 1.13 1.28Z" fill="#fff"/></svg>