<!-- by TradingView --><svg width="18" height="18" viewBox="0 0 18 18" xmlns="http://www.w3.org/2000/svg"><path fill="#F0F3FA" d="M0 0h18v18H0z"/><path d="m9.3 4.12-3.14 5.89c.12.49.57.9.78 1.06L9.3 6.64 10.27 8h1.34L9.29 4.12ZM12.61 13l-1.41-2.7h1.37L14 13h-1.38Zm-1.96-2.5c-.47.83-1.4 1.4-2.47 1.4-1.55 0-2.8-1.18-2.8-2.63 0-1.1.72-2.05 1.75-2.44l.68-1.28a3.83 3.83 0 0 0-3.6 3.72c0 2.06 1.77 3.73 3.97 3.73 1.24 0 2.35-.54 3.08-1.37l-.6-1.13Zm1.8-.8H8.1l.57-1.05h3.15l.63 1.05Z"/><path d="M9.08 4 5.94 9.89c.13.48.57.9.78 1.05L9.1 6.51 10.06 8h1.34L9.08 4Z" fill="url(#arm0jhwqi)"/><path d="M12.41 12.7 11 10h1.37l1.43 2.7H12.4Z" fill="#CDCDCD"/><path d="M7.98 11.74c1.07 0 2-.57 2.47-1.4l.6 1.13a4.06 4.06 0 0 1-3.07 1.38A3.87 3.87 0 0 1 4 9.09a3.85 3.85 0 0 1 3.6-3.74l-.67 1.29a2.65 2.65 0 0 0-1.75 2.45 2.72 2.72 0 0 0 2.8 2.65Zm-.1-2.19h4.36L11.6 8.5H8.45l-.57 1.05Z" fill="#5F6C81"/><defs><linearGradient id="arm0jhwqi" x1="6.06" y1="9.91" x2="11.04" y2="9.91" gradientUnits="userSpaceOnUse"><stop stop-color="#9C9C9C"/><stop offset=".25" stop-color="#989898"/><stop offset=".34" stop-color="#CCC"/><stop offset=".42" stop-color="#9F9F9F"/><stop offset=".52" stop-color="#CCC"/></linearGradient></defs></svg>