<!-- by TradingView --><svg width="18" height="18" viewBox="0 0 18 18" xmlns="http://www.w3.org/2000/svg"><path fill="#181B1E" d="M0 0h18v18H0z"/><path d="M12 12h-1V6h2.13C14.35 6 15 6.63 15 7.71c0 1.03-.6 1.79-1.96 1.79H12V12Zm0-5v1.5h1.07c.58 0 .93-.13.93-.77 0-.63-.36-.73-.92-.73H12ZM10 12H9V6h1v6ZM5.5 12C4.52 12 3 11.25 3 9c0-2.15 1.32-3 2.6-3C7.42 6 8 7.7 8 7.7l-.98.3s-.4-1-1.46-1C4.83 7 4 7.44 4 9c0 1.5.69 2 1.5 2 .86 0 1.5-.28 1.5-1H6V9h2v3H7v-.63c-.29.42-.65.63-1.5.63Z" fill="#fff"/></svg>