<!-- by TradingView --><svg width="18" height="18" viewBox="0 0 18 18" xmlns="http://www.w3.org/2000/svg"><path fill="#F0F3FA" d="M0 0h18v18H0z"/><path fill-rule="evenodd" d="M8.99 3a6 6 0 1 1 .02 12 6 6 0 0 1-.02-12ZM3.95 9a5.05 5.05 0 1 1 10.1 0 5.05 5.05 0 0 1-10.1 0Zm7.63-3.33c-.15.27-.28.37-.4.28-.1-.08-.05-.23.17-.45a.03.03 0 0 0 0-.05 3.44 3.44 0 0 0-1.04-.42v.03c.2.57.26 1.17.17 1.77 0 .03 0 .05.02.06h.06a3.88 3.88 0 0 1 1.79-.39v-.02a3.4 3.4 0 0 0-.75-.83.03.03 0 0 0-.02.01Zm-4.77.28c.11-.08.06-.23-.16-.45a.03.03 0 0 1 0-.05 3.45 3.45 0 0 1 1.04-.42.03.03 0 0 1 0 .03c-.2.57-.26 1.17-.18 1.77l-.01.06h-.06a3.89 3.89 0 0 0-1.79-.4.03.03 0 0 1 0-.02 3.39 3.39 0 0 1 .75-.82.03.03 0 0 1 .02.01c.15.28.28.37.39.3ZM9 5.16h.02a9.89 9.89 0 0 1 .27-.33l.06.01c.61.35.92.86.92 1.5 0 .7-.31 1.21-.75 1.72-.05.06-.04.1.02.14l.02.02c.05.03.09.02.12-.03.17-.29.35-.54.56-.74.73-.72 1.8-.83 2.56-.1.04.04.04.08.01.12l-.2.26v.02a.04.04 0 0 0 .02.05l.33.1c.05.02.07.06.06.12-.17.72-.58 1.18-1.23 1.36-.6.17-1.23.04-1.78-.21-.07-.03-.1-.02-.13.05v.03c-.03.06 0 .1.06.11.5.12.97.3 1.34.64.62.56.77 1.33.4 2.09a.07.07 0 0 1-.08.03l-.35-.1c-.03-.01-.04 0-.04.02v.36a.07.07 0 0 1-.06.07c-.07.02-.17.03-.28.03-.93-.01-1.58-.67-1.73-1.55a3.34 3.34 0 0 1-.03-1c0-.03 0-.04-.03-.05a.21.21 0 0 0-.17 0c-.02 0-.02.02-.02.05.04.33.03.66-.03 1-.15.88-.8 1.54-1.73 1.55-.12 0-.21-.01-.29-.03a.08.08 0 0 1-.05-.08v-.35c0-.03-.02-.04-.04-.03l-.35.11a.07.07 0 0 1-.09-.03 1.7 1.7 0 0 1 .4-2.1c.38-.34.85-.51 1.35-.63.06-.01.09-.05.07-.11l-.01-.03c-.02-.07-.07-.08-.13-.06-.55.26-1.18.39-1.78.22-.65-.18-1.06-.64-1.23-1.37-.01-.05 0-.09.06-.1l.33-.1a.04.04 0 0 0 .03-.04.04.04 0 0 0-.01-.04l-.2-.26c-.03-.04-.03-.08 0-.12.78-.73 1.84-.62 2.57.1.2.2.4.45.56.73.03.06.07.07.12.04l.02-.02c.06-.04.07-.08.02-.14-.44-.51-.75-1.03-.75-1.71 0-.65.3-1.16.92-1.51a.09.09 0 0 1 .11.02 9.87 9.87 0 0 1 .24.3Zm0 1.47c.04 0 .06.04.06.12l.01 1.07c0 .1.03.1.07.01l.51-.95c.02-.03.04-.04.07-.03h.03c.03.02.04.04.03.07L9.1 8.19c-.01.02 0 .03.02.04a.83.83 0 0 1 .52.38.03.03 0 0 0 .04 0l1-1a.07.07 0 0 1 .08-.01h.03l.01.02v.03l-.01.02-.76.8-.03.03c-.02.05-.01.06.04.05l1.07-.35a.06.06 0 0 1 .07.03l.01.03c.01.03 0 .04-.03.05l-.97.33a.52.52 0 0 0-.15.09l1.15.2c.03 0 .05.02.03.06v.03l-.01.02a.06.06 0 0 1-.06.02l-1.37-.25h-.02l-.02.01-.02.01a.03.03 0 0 0 0 .02.86.86 0 0 1-.19.6.05.05 0 0 0 .02.07l1.24.6c.03.01.04.04.04.07l-.01.03c0 .04-.02.05-.05.03l-.95-.46c-.13-.06-.15-.03-.07.08l.6.81.02.1c0 .03-.01.05-.02.05h-.05l-.67-.9c-.07-.1-.1-.08-.08.03l.15 1.05c0 .03-.01.05-.04.06h-.03c-.04 0-.07-.03-.07-.07l-.2-1.39a.02.02 0 0 0-.01-.02.02.02 0 0 0-.02 0 .86.86 0 0 1-.67 0 .02.02 0 0 0-.02.02L8.44 11c0 .04-.03.06-.07.07a.1.1 0 0 1-.03 0c-.03-.01-.04-.03-.04-.06l.15-1.05c.02-.11 0-.12-.07-.03l-.67.9h-.06l-.02-.05c0-.03.01-.07.03-.1l.59-.8c.08-.12.06-.15-.07-.09l-.95.46c-.03.02-.04 0-.05-.03v-.03c-.01-.03 0-.06.03-.07l1.24-.6a.05.05 0 0 0 .03-.06l-.01-.02a.86.86 0 0 1-.19-.59v-.02l-.01-.01h-.05l-1.37.24a.06.06 0 0 1-.06-.03v-.02L6.78 9c-.01-.04 0-.06.03-.06l1.15-.2a.52.52 0 0 0-.15-.1l-.97-.32c-.03 0-.04-.03-.03-.05v-.03a.06.06 0 0 1 .08-.03l1.08.35c.04.01.05 0 .03-.05l-.02-.02a217.58 217.58 0 0 0-.78-.86l.01-.01.02-.01h.02c.02-.01.05 0 .07.02l1 .99a.03.03 0 0 0 .04 0h.01c.11-.19.28-.31.51-.38.03 0 .03-.02.02-.04l-.67-1.27c-.02-.03-.01-.05.02-.06l.03-.01c.03-.01.06 0 .07.03l.5.95c.05.09.08.08.08-.01l.01-1.07c0-.08.02-.12.06-.12Zm0 2.83a.52.52 0 1 0 0-1.03.52.52 0 0 0-.52.51c0 .29.23.52.52.52Zm-4.03.66c.28-.14.44-.14.49-.01.04.13-.1.22-.4.27h-.01a.03.03 0 0 0-.02.05 3.38 3.38 0 0 0 .6.93.03.03 0 0 0 .01-.02c.18-.58.48-1.09.9-1.53.02-.02.03-.04.02-.06 0-.02-.02-.03-.05-.03A3.85 3.85 0 0 1 4.85 9a.03.03 0 0 0-.01.02 3.36 3.36 0 0 0 .1 1.1.04.04 0 0 0 .03 0Zm7.57 0c-.04.12.1.21.4.26a.03.03 0 0 1 .03.02.03.03 0 0 1 0 .03 3.37 3.37 0 0 1-.59.93h-.01v-.01a3.8 3.8 0 0 0-.92-1.54c-.01-.02-.02-.04-.01-.05 0-.02.02-.03.04-.04A3.85 3.85 0 0 0 13.15 9a.03.03 0 0 1 .02.02 3.36 3.36 0 0 1-.11 1.1h-.03c-.28-.14-.44-.14-.49 0Zm-3.5 1.45c0-.02-.02-.03-.04-.03s-.04.01-.05.03a3.8 3.8 0 0 1-1.2 1.35v.01h.02a3.43 3.43 0 0 0 1.08.24.03.03 0 0 0 .01-.03c-.04-.3 0-.45.14-.45s.18.15.14.45a.03.03 0 0 0 .02.04h.02a3.42 3.42 0 0 0 1.07-.26v-.02h-.01a3.8 3.8 0 0 1-1.2-1.33Z" fill="#48A0DC"/></svg>