<!-- by TradingView --><svg width="18" height="18" viewBox="0 0 18 18" xmlns="http://www.w3.org/2000/svg"><path fill="#F0F3FA" d="M0 0h18v18H0z"/><path d="M11.82 8.48c-.2.07-.4.17-.57.3-.15.12-.23.24-.25.37V11.87l.28-.09c.2-.06.4-.16.57-.3.06-.04.1-.09.15-.14V8.43l-.18.05Z" fill="#6CADB3"/><path d="M6 6h-.05c-.77.04-1.5.34-2.04.86a2.8 2.8 0 0 0-.21 3.94c.61.73 1.44 1.2 2.4 1.2H9v1c.38-.1.71-.4 1-.66V8H6.16c-.68-.03-.77 1 0 1H9v2H6.1c-.75 0-1.7-.83-1.98-1.49-.49-1.08.66-2.46 1.87-2.51h6.9a2.8 2.8 0 0 0 1.6-.57A13.07 13.07 0 0 0 15 6H6Z" fill="#223A68"/><path d="M14.82 9.17c-.2.08-.4.2-.57.34a.67.67 0 0 0-.25.41V13l.27-.1c.21-.08.4-.2.58-.34.06-.05.1-.1.15-.17V9.11l-.18.06Z" fill="#D66B55"/><path d="m13.86 9.02.05-.27.06-.16.05-.02h.07c.02 0 .03-.02.04-.03a.06.06 0 0 0-.02-.05.7.7 0 0 0-.08-.06c.08 0 .15-.04.21 0a.06.06 0 0 0 .06 0c.01 0 .02 0 .03-.02l.01-.03c.02-.05.04-.1.1-.04l.18.1.26.2c.03.01.05.04.07.07l.02.1-.2-.14a.19.19 0 0 0-.25.04v.03l.01.03.14.1c0 .03 0 .08-.02.09a.5.5 0 0 1-.13.05c-.07.02-.1-.02-.1-.08a.45.45 0 0 0-.03-.05c-.02-.04-.04-.05-.07-.02l-.02.01c-.14.05-.18.19-.22.32l-.04.18a.42.42 0 0 1-.05.08l-.03-.07-.02.06h-.02l-.02-.1-.03.01v-.2c0-.02 0-.05-.02-.08v-.05ZM11.97 7.57c-.02.17.04.34.1.5a.4.4 0 0 1-.02.23.42.42 0 0 1-.14.18c-.06.05-.18.08-.1.2.02.02 0 .05-.04.05l-.13.04c-.14.03-.16.15-.23.24-.03.03-.04.07-.1.03a.4.4 0 0 0-.1-.01c-.16-.04-.18-.05-.07-.16.16-.17.17-.38.24-.57.06-.15.1-.3.25-.4a.13.13 0 0 0 .04-.08c.04-.15.12-.24.3-.25Z"/></svg>