<!-- by TradingView --><svg width="18" height="18" viewBox="0 0 18 18" fill="none" xmlns="http://www.w3.org/2000/svg">
<rect width="18" height="18" fill="#F0F3FA"/>
<path d="M5.20576 8.08229C5.19164 7.97509 5.16717 7.87904 5.13235 7.79413C5.09848 7.70816 5.0533 7.63545 4.99684 7.57602C4.94038 7.51552 4.87215 7.46935 4.79216 7.43751C4.71311 7.40461 4.62136 7.38816 4.5169 7.38816C4.34563 7.38816 4.18 7.43804 4.02002 7.53781C3.86098 7.63758 3.72312 7.78458 3.60643 7.97881C3.49068 8.17304 3.4121 8.41131 3.37069 8.69364C3.32928 8.97596 3.33352 9.21424 3.38339 9.40847C3.43421 9.6027 3.52126 9.7497 3.64454 9.84947C3.76876 9.94924 3.92027 9.99912 4.09907 9.99912C4.2647 9.99912 4.41903 9.95932 4.56207 9.87972C4.70511 9.79906 4.8251 9.68549 4.92203 9.53902C5.01896 9.39149 5.08154 9.21796 5.10977 9.01842L5.2114 9.04389H4.34186L4.39833 8.69364H5.49937L5.4429 9.04389C5.40526 9.31348 5.32151 9.54751 5.19164 9.74599C5.06177 9.94446 4.89991 10.0978 4.70605 10.2061C4.51219 10.3143 4.30046 10.3685 4.07084 10.3685C3.81487 10.3685 3.60031 10.3006 3.42715 10.1647C3.254 10.0288 3.13213 9.83567 3.06155 9.58519C2.99097 9.33471 2.98109 9.03752 3.03191 8.69364C3.06861 8.43573 3.1326 8.20382 3.22388 7.99791C3.31611 7.79094 3.42904 7.61476 3.56267 7.46935C3.69724 7.32394 3.84734 7.2125 4.01296 7.13502C4.17953 7.05754 4.35504 7.0188 4.53949 7.0188C4.69194 7.0188 4.83027 7.0448 4.95449 7.09681C5.07965 7.14776 5.18741 7.22046 5.27775 7.31492C5.36809 7.40832 5.4382 7.5203 5.48807 7.65084C5.53795 7.78033 5.5643 7.92415 5.56712 8.08229H5.20576Z" fill="#ED9804"/>
<path d="M5.59961 10.3749L6.12712 6.95514H7.43999C7.6913 6.95514 7.89766 6.98707 8.05906 7.09002C8.22155 7.19181 8.33529 7.3335 8.40028 7.5151C8.46636 7.69554 8.48152 7.90374 8.44577 8.1397C8.40894 8.37682 8.32879 8.5856 8.2053 8.76605C8.08289 8.94533 7.92366 9.08529 7.72759 9.18592C7.53153 9.28655 7.30513 9.33687 7.04841 9.33687H6.21161L6.30423 8.73482H7.02728C7.16377 8.73482 7.28022 8.70995 7.37662 8.66021C7.47412 8.60932 7.55157 8.53934 7.60898 8.45027C7.66639 8.36005 7.70376 8.25653 7.72109 8.1397C7.73951 8.02057 7.73355 7.91704 7.70322 7.82914C7.67289 7.74123 7.6171 7.67298 7.53586 7.6244C7.4557 7.57467 7.34792 7.5498 7.21252 7.5498H6.73806L6.30317 10.3749H5.59961Z" fill="black"/>
<path fill-rule="evenodd" clip-rule="evenodd" d="M14.6055 5.12317C14.4679 5.03103 14.2958 4.99832 14.1113 5.00007C13.9248 5.00184 13.7122 5.03907 13.4837 5.10156C13.0265 5.22657 12.4879 5.45767 11.9342 5.737C10.964 6.22651 9.9324 6.87205 9.1829 7.3823L9.0371 7.128L8.49808 8.32521L9.5028 7.94026L9.40849 7.77577C10.1443 7.28574 11.1398 6.70711 12.095 6.22514C12.2399 6.15207 12.3694 6.08327 12.4897 6.01942C12.8234 5.84216 13.0856 5.70294 13.4043 5.61581C13.8405 5.49651 14.1712 5.50199 14.32 5.6016C14.7751 5.90621 14.3908 6.40308 14.1278 6.74312C14.102 6.77637 14.0775 6.80811 14.055 6.83803C13.4794 7.60351 12.5482 8.60564 11.4475 9.53033C10.3578 10.4458 8.9971 11.3533 7.74425 11.9417C7.11767 12.236 6.54334 12.4513 6.087 12.5552C5.85857 12.6072 5.66469 12.6302 5.51117 12.6234C5.3536 12.6165 5.25851 12.5789 5.20908 12.5343C5.10836 12.4435 5.06907 12.3386 5.06232 12.2232C5.05499 12.0982 5.08562 11.9464 5.15108 11.777C5.28205 11.4382 5.52671 11.0943 5.71528 10.8815L5.51385 10.6029C5.31019 10.8327 5.03483 11.2144 4.88047 11.6138C4.80328 11.8135 4.74992 12.034 4.76261 12.2506C4.77586 12.4768 4.86057 12.683 5.03314 12.8387C5.15452 12.9482 5.32158 12.9907 5.50059 12.9986C5.68365 13.0067 5.90078 12.9792 6.14089 12.9246C6.62162 12.8151 7.21449 12.5917 7.85 12.2932C9.12132 11.6961 10.5839 10.7887 11.6957 9.8547C12.7965 8.92992 13.8058 7.99497 14.4069 7.19551C14.7043 6.79993 14.9214 6.41262 14.9828 6.05734C15.0145 5.87351 15.0058 5.69079 14.939 5.52298C14.8729 5.35667 14.7577 5.22499 14.6055 5.12317Z" fill="black"/>
<path fill-rule="evenodd" clip-rule="evenodd" d="M13.2151 8.50082C12.7558 8.94303 12.2368 9.40009 11.6957 9.85469C10.5839 10.7887 9.12132 11.696 7.85 12.2932C7.21449 12.5916 6.62162 12.8151 6.14089 12.9245C5.90078 12.9792 5.68365 13.0067 5.50059 12.9986C5.32158 12.9907 5.15452 12.9482 5.03314 12.8387C4.86057 12.683 4.77586 12.4768 4.76261 12.2506C4.74992 12.034 4.80328 11.8135 4.88047 11.6138C5.03483 11.2144 5.31019 10.8327 5.51385 10.6029L5.87687 10.802C5.6883 11.0148 5.44364 11.3586 5.31268 11.6975C5.24722 11.8669 5.21659 12.0186 5.22391 12.1437C5.23067 12.2591 5.26995 12.3639 5.37068 12.4548C5.42011 12.4994 5.51519 12.5369 5.67277 12.5439C5.82628 12.5506 6.02016 12.5277 6.24859 12.4757C6.56043 12.4046 6.82368 12.2692 7.15908 12.0966C7.31449 12.0167 7.4854 11.9287 7.6838 11.8355C8.93666 11.2471 10.3067 10.4055 11.3964 9.49003C11.5908 9.32676 11.7855 9.16547 11.9777 9.00633C12.1847 8.83499 12.3886 8.66613 12.5857 8.5H13.2154C13.2153 8.50027 13.2152 8.50055 13.2151 8.50082Z" fill="#ED9804"/>
</svg>
