<!-- by TradingView --><svg width="18" height="18" viewBox="0 0 18 18" xmlns="http://www.w3.org/2000/svg"><path fill="#F0F3FA" d="M0 0h18v18H0z"/><path d="m9.62 9.6-.08-.06c-.03.06-.02.15 0 .24.02.22.05.5-.5.63-.2.05-.3 0-.3.02l.2.23c.1-.02.67-.27.76-.33.18-.13.1-.46-.01-.64l-.07-.1Zm-4.18-.8c-.03-.07-.05-.13-.22-.19 0 .07.05.2.11.36.2.44.46 1.08-.51 1.08.02.24.48.57.65.63.05-.12.02-.24 0-.37-.04-.2-.08-.39.22-.47h.13l.08-.01a1.97 1.97 0 0 0-.08-.31 1.12 1.12 0 0 1-.09-.47c-.23-.1-.26-.18-.3-.25ZM6.6 6.4l-.01-.17c.27-.06.34.03.43.11.1.1.2.22.67.05.14.1.16.14.18.2.03.05.06.12.2.28l.6-.73c.27-.04.46 0 .67.05l.23.05c.33.06.77-.02 1.25-.1.96-.17 2.05-.37 2.66.48.47-.07.55.02.8.31l.1.12c.11.06.14.03.19-.02a.23.23 0 0 1 .12-.08c.08.26-.06.35-.22.44-.11.07-.23.14-.29.27.1.08.2.12.3.17.22.1.42.18.51.6l-.06.08c-.04.07-.03.1-.02.14v.17a.26.26 0 0 1-.17-.01c-.05-.02-.1-.04-.17 0v.06c-.02.5-.04.83-.34 1.38-.43-.04-.75-.22-1.07-.4a2.5 2.5 0 0 0-1.25-.44c-.65-.02-.83.15-1.03.34l-.17.16a8.52 8.52 0 0 1-3.03 1.4 2.41 2.41 0 0 0-.2-.4c-.19-.31-.38-.65-.21-.94-.34-.23-.3-.28-.16-.48l.16-.25-.05-.04c-.2-.15-.22-.16-.5-.2-.2.61-.12.71 0 .86.1.12.22.28.2.84-.01.31-.29.17-.48.08l-.13-.06c0 .24-.13.32-.32.44a2 2 0 0 0-.4.3c-.13.13-.2.13-.24.14-.06 0-.08 0-.13.4a2.6 2.6 0 0 1 1.24-.21 7 7 0 0 1 1.53.2l-.14.08c-.2.13-.27.16-.73.14-.66-.04-1.12.18-1.59.4-.3.15-.6.3-.98.38l.1-.37c.13-.46.34-1.2.3-1.36-.02-.05-.08-.11-.16-.2-.17-.16-.4-.38-.4-.68l.1-.02c0 .01 0 .04.1.08 0-.3-.08-.51-.15-.72-.1-.3-.19-.59-.08-1.07C4.1 8.37 4 8.3 4 8.21c0-.07.07-.14.17-.34.1-.24.01-.46-.06-.62-.07-.17-.11-.28.17-.26.27.02.73-.12 1.17-.26.52-.16 1.02-.31 1.18-.2a.98.98 0 0 0-.02-.12Zm3.42 2.3c-.18.35-.2 1.06.06 1.37.14-.04.73-.34.73-.67 0-.24-.05-.5-.2-.58a3.3 3.3 0 0 0-.59-.13Zm-2.84 2.95 1.42-.3-.33.4-1.09-.1Z" fill="url(#al2uaxydw)"/><defs><linearGradient id="al2uaxydw" x1="14.94" y1="8.39" x2="3.88" y2="8.39" gradientUnits="userSpaceOnUse"><stop stop-color="#00924E"/><stop offset="1" stop-color="#58B833"/></linearGradient></defs></svg>