<!-- by TradingView --><svg width="18" height="18" viewBox="0 0 18 18" xmlns="http://www.w3.org/2000/svg"><path fill="#F0F3FA" d="M0 0h18v18H0z"/><path d="M9.81 4.04a.1.1 0 0 1 0 .04.11.11 0 0 0-.1.01c-.15.1-.28.24-.39.4-.02.03-.02.05 0 .07.01.02.05.02.1 0l-.09.05a3.6 3.6 0 0 0-.48-.4.12.12 0 0 0-.07-.02l-.05-.04c-.05-.09-.12-.12-.22-.12H8.5v-.01L8.5 4l1.3.04Z" fill="#A8A66F"/><path d="M9.81 4.08a.1.1 0 0 0 0-.04l.57.12c.03 0 .03.02.01.05 0 0-.03.02-.07.02-.04 0-.06.02-.06.05v.04h.02a5.76 5.76 0 0 1 1.05.33l.01-.04V4.6l-.09-.02c-.02-.01-.02-.02 0-.03.03 0 .06 0 .1.02.27.13.49.27.66.43.03.03.04.07.05.1v.07c0 .02 0 .03-.02.01l-.48-.38c-.03-.02-.05-.01-.05.03-.03.15-.08.33-.15.53-.01.02-.03.03-.05 0l-.48-.51c-.3-.33-.63-.58-1.02-.77Z" fill="#D0A44E"/><path d="m8.73 4.15.05.04-.62.76c-.02.02-.04.01-.06-.02a2.67 2.67 0 0 0-.54-.59.22.22 0 0 0-.08-.03.19.19 0 0 1-.06-.03c-.03-.02-.03-.04.01-.06.18-.07.28-.11.32-.11.05 0 .06 0 0 .03a.52.52 0 0 0-.14.1c-.03.03-.03.05.02.04l1.1-.13Z" fill="#71A18D"/><path d="M6.63 4.66c-.09.09-.07.11.04.08.32-.1.64-.16.97-.19.06 0 .07.02.03.07l-.7.92a.04.04 0 0 1-.04.01.03.03 0 0 1-.03-.02l-.42-.83v-.03a5 5 0 0 1 .73-.35 6.78 6.78 0 0 0-.58.34Z" fill="#42959D"/><path d="m10.34 5.8.03.04L9.33 4.6l.1-.04 1.26.21c.07.01.09.05.06.1l-.4.93Z" fill="#D0A44E"/><path d="m6.16 4.9-.49.39a.06.06 0 0 0-.02.04c0 .02 0 .03.02.04h.03c.3-.12.58-.2.84-.25.08-.02.1 0 .05.08a9.4 9.4 0 0 0-.68.99c-.06.11-.11.1-.15-.02a3.82 3.82 0 0 1-.16-.63.36.36 0 0 1 .14-.35 4.78 4.78 0 0 1 .42-.31.02.02 0 0 1 0 .02Z" fill="#42959D"/><path d="m8.56 5.66-.01-.04v-.05a117.87 117.87 0 0 0-.39-.59v-.03c.03.03.06.04.09.04a9.27 9.27 0 0 1 1.45.1.07.07 0 0 1 .02.1l-.6 1.15c-.01.04-.03.04-.05 0l-.45-.68a.05.05 0 0 0-.04-.02c-.02 0-.02 0-.02.02Z" fill="#A8A66F"/><path d="m12.97 6 .08.45a.04.04 0 0 1-.03.04.04.04 0 0 1-.04-.02 6.86 6.86 0 0 0-.8-1.09c-.1-.11-.1-.13.04-.05.23.15.44.3.63.47.06.05.1.12.12.2Z" fill="#E88F38"/><path d="m12.37 9.3-.92-1.72a.03.03 0 0 1 0-.03.03.03 0 0 1 .03 0l1.33.26c.03 0 .04 0 .02-.03a15.59 15.59 0 0 0-.95-1.62l-.43 1.28c-.02.06-.04.06-.07 0-.3-.55-.64-1.09-1.01-1.6l-.03-.03 1.5.31c.04 0 .04 0 .02-.03l-.46-.6c-.04-.04-.02-.06.04-.05.4.1.74.23 1.04.37.06.03.09.08.08.15a3.97 3.97 0 0 1-.16.93.09.09 0 0 0 .03.06l.03.02c.34.1.63.2.87.32a.17.17 0 0 1 .1.16c-.03.4-.1.77-.21 1.11 0 .03 0 .05.03.05l.6.18a.04.04 0 0 0 .06-.03v-.02a7.9 7.9 0 0 0-.82-2.1c-.04-.05-.02-.06.03-.03.16.1.3.23.46.38.03.02.06.09.08.19.06.26.08.54.07.85 0 .03.01.06.03.08l.08.07a.23.23 0 0 1 .12.17l.04.34c0 .08-.01.16-.05.25l-.1.25c-.04.3-.1.58-.2.86-.02.03-.03.03-.04 0a8.04 8.04 0 0 0-.73-2.16c-.02-.04-.03-.04-.04 0l-.47 1.4Z" fill="#E88F38"/><path d="m8.55 5.62.01.04-.75 1.44-.02.01-.47-.82-.3-.6c-.04-.06-.02-.1.05-.09l1.48.02Z" fill="#71A18D"/><path d="m5.01 6.06.53-.24c.08-.02.1 0 .05.07-.23.31-.44.68-.63 1.1-.02.04-.03.04-.04 0-.09-.27-.1-.53-.03-.79.02-.06.06-.1.12-.14Z" fill="#077192"/><path d="M7.32 6.29a22.2 22.2 0 0 0-.77 1.54c0 .01 0 .03.03.06 0-.03-.01-.02-.03.02l-.7-1.54c-.02-.03 0-.04.02-.04l1.45-.04Z" fill="#42959D"/><path d="m10.24 8.2-.58-.93a.15.15 0 0 0-.04-.05l-.48-.78c-.02-.03 0-.04.03-.04a19.17 19.17 0 0 1 1.7.23v.04l-.63 1.53Z" fill="#D0A44E"/><path d="M4.32 7.54c-.01-.37.1-.68.35-.9.13-.12.15-.1.08.06a6.74 6.74 0 0 0-.42 1.04H4.3l.02-.2Z" fill="#077192"/><path d="m6.12 7.1-.66 1.48a.04.04 0 0 1-.04.02.04.04 0 0 1-.03-.02l-.46-1.42a.04.04 0 0 1 .02-.04h.01l1.13-.07a.04.04 0 0 1 .03.01.04.04 0 0 1 0 .04Z" fill="#228BA0"/><path d="m7.8 7.1 1.82.12.04.05-.77 1.63c-.01.03-.03.03-.04 0L7.79 7.11h.02Z" fill="#A8A66F"/><path d="M4.1 9.4a2.23 2.23 0 0 0-.03.52c-.08-.29-.1-.57-.04-.83.04-.2.02-.38.02-.56 0-.02.01-.03.04-.03l.3.03c.03 0 .04-.01.03-.04l-.1-.57c0-.04.01-.06.05-.07a2.55 2.55 0 0 1 .73 0 .03.03 0 0 1 0 .03c-.18.45-.32.89-.42 1.32-.02.07-.04.07-.07 0a2.75 2.75 0 0 1-.15-.48c-.03-.16-.06-.16-.1 0l-.08.4c-.03.2-.02.39-.05.58 0 .05-.02.05-.03 0l-.07-.3c-.01-.04-.02-.04-.03 0Z" fill="#077192"/><path d="m6.58 7.9 1.7.1a.04.04 0 0 1 .04.05v.02L7.55 9.7a.06.06 0 0 0 .02.07h.03l1.76.19c.04 0 .05.02.04.06l-.75 1.55h-.03l-.52-.83-.04-.06-1.52-2.77c.02-.04.02-.05.03-.02Z" fill="#5E9A92"/><path d="M11.25 10.08a.5.5 0 0 0-.01-.02l-1-1.86 1.63.25a.04.04 0 0 1 .04.04v.02l-.66 1.57Z" fill="#DE9D41"/><path d="m5.48 8.66 1.46.13a.03.03 0 0 1 .02.01.03.03 0 0 1 0 .03l-.6 1.53-.01.02H6.3l-.01-.01-.85-1.66a.03.03 0 0 1 .02-.05h.01Z" fill="#228BA0"/><path d="m10.71 9.18.01.03a20.44 20.44 0 0 1-.77 1.63A416.52 416.52 0 0 0 8.91 9a19.88 19.88 0 0 1 1.8.17Z" fill="#A8A66F"/><path d="M4.95 10.12h.02a.02.02 0 0 0 .01-.01v-.02l-.3-.73c-.03-.06-.01-.07.04-.04l.14.05a10.66 10.66 0 0 0 .92.15.08.08 0 0 1 .04.1l-.37 1.27c-.01.05-.03.05-.06 0l-.35-.68c-.03-.07-.06-.06-.07.01-.08.35-.12.67-.11.98 0 .09-.02.1-.06.02a6.89 6.89 0 0 1-.55-1.3c-.02-.07 0-.08.06-.05.2.11.42.2.64.25Z" fill="#077192"/><path d="m13.05 11.49.03.01a9.26 9.26 0 0 0-.71-2.2c.01.02.03.04.05.04.28.03.6.06.98.08.05 0 .07.03.05.07-.15.52-.31.97-.48 1.37-.01.03 0 .05.03.04.18-.01.35-.05.51-.1.11-.05.16-.13.16-.26a49.09 49.09 0 0 0 0-.34c0-.01 0-.02.02-.03l.13-.05c.05-.02.06 0 .05.04l-.17.58c0 .03-.02.05-.05.07l-.05.04a6.67 6.67 0 0 1-.5.97.5.5 0 0 1-.02.06c-.01.02-.02.02-.02 0l-.01-.4Z" fill="#DE9D41"/><path d="m11.25 10.08 1.39.1c.03 0 .04 0 .03.03-.17.48-.38.93-.63 1.37l-.07.03-.73-1.55.01.02Z" fill="#D0A44E"/><path d="m5.26 11.99-.35-.56c-.04-.07-.03-.08.04-.05a5.05 5.05 0 0 0 .96.45v.05c-.04.2-.08.44-.1.74 0 .04-.02.05-.04.01l-.41-.53c-.03-.03-.05-.03-.05.02 0 .1.03.18.1.26v.02l-.01.03c-.01.02-.02.02-.04 0a4.3 4.3 0 0 1-1.15-2.1c0-.02 0-.03.02 0 .16.13.25.3.28.5l.04.3c.07.37.3.66.69.87.03.02.04.01.02-.01Z" fill="#077192"/><path d="m8.07 10.68.04.06-.63 1.35a.06.06 0 0 0 .02.07h.02l1.6.19.03.06-.6.95a.06.06 0 0 1-.07.02l-.02-.01a12.73 12.73 0 0 1-.45-.48c-.01 0-.03.01-.03.03l-.01-.07a.82.82 0 0 0 0-.03c-.25-.28-.42-.5-.52-.65a667.34 667.34 0 0 0-1.06-1.69v-.01h.02l1.66.21Z" fill="#228BA0"/><path d="m10.04 10.88 1.59.04h.01l.01.01a.03.03 0 0 1 0 .03l-.77 1.4h-.01a.03.03 0 0 1-.03 0h-.01l-.81-1.43v-.04h.02Z" fill="#A8A66F"/><path d="M5.54 11c.24.07.6.15 1.08.25.08.01.14.03.2.06a.09.09 0 0 1 .04.1l-.37 1.09a.02.02 0 0 1-.03.01L6 11.92a6.5 6.5 0 0 1-.5-.88c-.03-.04-.02-.06.03-.05Z" fill="#077192"/><path d="m13.08 11.5-.03-.01-.72 1.07v.03h.05l.16-.1c.05-.02.06-.01.02.03a1.64 1.64 0 0 1-.25.23h-.02v-.03l.01-.07c.01-.03 0-.05 0-.07-.07-.09-.04-.24-.1-.37-.06-.2-.14-.4-.23-.6l.07-.03v.06l.06.01c.3-.03.63-.08.98-.15Z" fill="#A8A66F"/><path d="m8.66 11.57 1.73.13c.03 0 .04.02.02.05l-.74 1.2a.05.05 0 0 0 0 .05l.02.01.02.01c.44 0 .89-.02 1.34-.07.07-.01.08.01.04.07-.21.26-.45.48-.72.67-.03.02-.05.02-.08 0l-.28-.19.01-.01-.87-1.08c0-.03-.02-.05-.04-.06l-.48-.78h.03Z" fill="#42959D"/><path d="m10.92 12.42 1.25-.17a.03.03 0 0 1 .02.02.03.03 0 0 1 0 .03l-.8.97-.01.01a.03.03 0 0 1-.03-.01l-.45-.81a.03.03 0 0 1 0-.03h.02Z" fill="#71A18D"/><path d="M7.97 12.85v.07l-.38.64a.05.05 0 0 1-.03.02.05.05 0 0 1-.04 0c-.38-.3-.71-.63-.98-.98-.03-.04-.02-.05.02-.04l1.4.29ZM6.16 13.07c-.09-.13-.2-.22-.28-.32-.03-.05-.02-.05.03-.03a4.4 4.4 0 0 0 1.04.42.1.1 0 0 1 .03.1l-.08.22c-.03.06-.06.07-.11.04l-.54-.33a.32.32 0 0 1-.1-.1Z" fill="#077192"/><path d="M10.02 13.49v.01a1.73 1.73 0 0 1-.58.43.03.03 0 0 0 0 .03v.01l.05.02h.03c.14-.05.28-.08.42-.08a.64.64 0 0 0 .33-.09v.01l-.14.07a8.1 8.1 0 0 0-.56.1.64.64 0 0 1-.41-.09 5.2 5.2 0 0 1-.5-.34c-.1-.07-.09-.11.04-.1l1.32.02Z" fill="#228BA0"/><path d="M11.1 13.53h.04l-.74.27-.02-.02c-.01-.02 0-.04.02-.05l.7-.2Z" fill="#42959D"/><path d="M7.42 13.77v-.02l.49.13.02-.01v-.06a1.26 1.26 0 0 1-.24-.13c-.06-.04-.05-.05.01-.03.43.1.8.15 1.12.16.15 0 .16.04.03.1-.22.12-.46.12-.73 0a.16.16 0 0 0-.09-.01c-.05 0-.09.02-.15 0l-.46-.13Z" fill="#077192"/></svg>