<!-- by TradingView --><svg width="18" height="18" viewBox="0 0 18 18" xmlns="http://www.w3.org/2000/svg"><path fill="#F0F3FA" d="M0 0h18v18H0z"/><path d="M15 9A6 6 0 1 1 3 9a6 6 0 0 1 12 0Zm-4.67-2.87c-.42.53-.7 1.1-1 1.7a.74.74 0 0 0-.1.35v2.07c0 .08.01.08.06.02l.39-.67a5 5 0 0 0 .28-.72c.27-.78.55-1.5.97-2.17.1-.17.23-.34.37-.49a.92.92 0 0 1 .21-.17.53.53 0 0 1 .25-.05h1.43c.02 0 .1 0 .1-.03v-.02l-.31-.36a5.39 5.39 0 0 0-3.72-1.8 5.14 5.14 0 0 0-3.24.91A5.3 5.3 0 0 0 4 10.81c0 .03.02.05.05.04l.02-.01v-.02c.06-.19.13-.37.22-.54a32.95 32.95 0 0 0 .24-.46.1.1 0 0 1 .12 0c.12.1.26.17.42.2.33.04.67.06 1 .05.22 0 .35-.08.49-.22l.37-.41c.03-.03.03-.06 0-.1-.06-.07-.23-.17-.33-.14a.04.04 0 0 0-.03.03c-.04.14-.11.22-.23.25-.25.07-.51.08-.8.03a.87.87 0 0 1-.45-.25c-.29-.28-.1-.88.07-1.19.17-.3.39-.55.65-.74.62-.45 1.26-.5 1.93-.16l.04-.01c.24-.35.5-.8.82-1.09.06-.06.21-.07.32-.07h1.36l.03.04a.06.06 0 0 1 .02.1Zm-2.18 5.8c.2-.3.48-.6.74-1 .13-.2.19-.31.17-.49a27.44 27.44 0 0 1-.16-1.57.03.03 0 0 0-.03 0 .21.21 0 0 0-.06.1c-.18.6-.42 1.14-.7 1.62a4 4 0 0 1-.68.82c-.18.17-.37.3-.58.39-.25.1-.49.18-.72.23-.24.06-.47.07-.67.04-.25-.03-.46-.1-.65-.22a3.37 3.37 0 0 1-.58-.48h-.01v.02l.15.21a4.94 4.94 0 0 0 1.12 1.38 5.21 5.21 0 0 0 5.28 1.05 5.37 5.37 0 0 0 3.5-4.7 5.23 5.23 0 0 0-.83-3.1.04.04 0 0 0-.03.01 6.61 6.61 0 0 0-1.24 2.2c-.1.26-.23.65-.4 1.17a7.56 7.56 0 0 1-1.45 2.3c-.08.09-.17.1-.26.09h-1.7c-.03 0-.25-.03-.21-.08ZM5.93 8.44c.06-.3.48-.38.73-.4.3-.03.51.14.73.3a.09.09 0 0 0 .13-.05.49.49 0 0 0-.05-.46c-.06-.1-.25-.17-.35-.2-.3-.05-.62-.03-.95.05a1.06 1.06 0 0 0-.78 1.18c.04.28.23.38.5.38a3.44 3.44 0 0 0 .48-.04.04.04 0 0 0 .01-.03v-.02a.13.13 0 0 0-.06-.04c-.32-.11-.45-.34-.39-.67Z" fill="#7D232D"/></svg>