<!-- by TradingView --><svg width="18" height="18" viewBox="0 0 18 18" fill="none" xmlns="http://www.w3.org/2000/svg">
<rect width="18" height="18" fill="#F0F3FA"/>
<path d="M8.86236 4H9.10499C9.20535 4.00789 9.30578 4.01599 9.40628 4.0243C12.1222 4.24817 14.1939 6.6729 13.9858 9.38538C13.8036 11.7617 11.9335 13.6852 9.5607 13.9658C9.50793 13.972 9.37853 13.9834 9.1725 14H8.82203C8.17847 13.9712 7.55698 13.8254 6.95756 13.5626C6.95656 13.5621 6.95578 13.5612 6.95538 13.5602C6.95498 13.5591 6.95498 13.558 6.95538 13.5569C6.95578 13.5559 6.95656 13.555 6.95756 13.5545C6.95856 13.554 6.95972 13.5539 6.9608 13.5542C7.13808 13.6174 7.31845 13.6738 7.50191 13.7232C9.68061 14.3095 11.9419 13.2948 13.0302 11.3566C13.2508 10.9639 13.4136 10.3875 13.0876 9.99957C13.0485 9.95312 13.0809 9.80968 13.0882 9.75118C13.1042 9.62538 13.044 9.57935 12.9409 9.52946C12.8874 9.50351 12.846 9.46244 12.8167 9.40624C12.8129 9.39899 12.8066 9.39335 12.799 9.39038C12.7914 9.38741 12.783 9.38731 12.7753 9.39011C11.7723 9.7537 11.2929 8.39197 12.0478 7.78559C12.0534 7.78115 12.0575 7.77563 12.0601 7.76903C12.1173 7.62237 12.1789 7.47376 12.3124 7.38086C12.3633 7.34559 12.4034 7.36065 12.4587 7.37484C12.5285 7.3929 12.6038 7.32215 12.6661 7.29591C12.7837 7.24688 12.907 7.29398 13.0196 7.25054C13.2387 7.16581 13.1316 7.35075 13.1831 7.44473C13.223 7.51763 13.3341 7.54344 13.4087 7.56344C13.4099 7.56375 13.4112 7.56373 13.4124 7.56336C13.4136 7.563 13.4147 7.56232 13.4155 7.56139C13.4164 7.56046 13.4169 7.55932 13.4172 7.55809C13.4174 7.55686 13.4173 7.55559 13.4169 7.55441L13.1108 6.78774C13.1077 6.78 13.102 6.7772 13.0938 6.77936L12.8458 6.84796C12.8375 6.85025 12.8305 6.8547 12.8251 6.86129C12.7566 6.94315 12.6953 7.02975 12.6411 7.12108C12.549 7.27656 12.3452 7.38108 12.2001 7.21957C12.1628 7.17806 12.2169 6.87269 12.2242 6.80495C12.2251 6.79663 12.2298 6.79276 12.2382 6.79333C12.2904 6.79663 12.3651 6.80487 12.4621 6.81806C12.6679 6.84602 12.5324 6.53785 12.4509 6.50301C12.4486 6.50206 12.4467 6.50046 12.4453 6.4984C12.444 6.49634 12.4433 6.49392 12.4433 6.49147C12.4434 6.48901 12.4442 6.48662 12.4456 6.48461C12.447 6.48261 12.449 6.48108 12.4513 6.48022C12.5708 6.43527 12.7112 6.37634 12.7865 6.26839C12.7934 6.25849 12.7911 6.25563 12.7796 6.25978C12.7358 6.27548 12.458 6.38774 12.4369 6.36021C12.4308 6.35247 12.4315 6.34538 12.4388 6.33892L12.4807 6.30172C12.4866 6.29656 12.4877 6.29047 12.4841 6.28344L12.4587 6.23591C12.4546 6.22846 12.4544 6.22086 12.458 6.21312C12.4745 6.17613 12.4996 6.14609 12.5331 6.12301C12.5353 6.12149 12.5371 6.11946 12.5384 6.1171C12.5397 6.11474 12.5405 6.1121 12.5406 6.10939C12.5407 6.10668 12.5402 6.10397 12.539 6.10148C12.5379 6.099 12.5363 6.0968 12.5341 6.09505C12.471 6.04344 12.4157 5.95462 12.4675 5.87247C12.4703 5.86811 12.4715 5.86298 12.4711 5.8578C12.4708 5.85262 12.4687 5.84767 12.4653 5.84366C12.3889 5.75376 12.311 5.66581 12.2318 5.57978C12.1526 5.49362 12.0586 5.47591 11.9499 5.52667C11.9421 5.53025 11.9345 5.52982 11.927 5.52538L11.827 5.46495C11.8152 5.45778 11.8145 5.44975 11.825 5.44086L11.9406 5.34452C11.9465 5.33964 11.9475 5.33391 11.9436 5.32731C11.8291 5.13763 11.5194 5.21548 11.3799 5.31871C11.2973 5.37978 11.2421 5.3572 11.1649 5.39398C11.0678 5.44043 10.9981 5.55398 10.9483 5.64516C10.8058 5.90559 10.4322 5.43742 10.76 5.17935C10.8079 5.14172 10.8103 5.12194 10.7868 5.06882C10.7432 4.97004 10.6967 4.89097 10.6472 4.83161C10.5703 4.73935 10.399 4.83398 10.3589 4.69892C10.3569 4.69219 10.3586 4.68667 10.3641 4.68237C10.4443 4.62151 10.6089 4.59247 10.7139 4.56968C10.7162 4.56921 10.7183 4.56809 10.7199 4.56645C10.7216 4.5648 10.7227 4.5627 10.7232 4.56041C10.7237 4.55811 10.7235 4.55571 10.7226 4.5535C10.7218 4.55129 10.7203 4.54937 10.7184 4.54796C10.6617 4.50688 10.0675 4.75677 9.97608 4.79806C9.96947 4.80093 9.96264 4.80143 9.95559 4.79957C9.89995 4.78452 9.76106 4.77935 9.73065 4.73935C9.72562 4.73276 9.72576 4.72631 9.73108 4.72L9.74963 4.69849C9.75524 4.69176 9.76127 4.69147 9.76774 4.69763L9.79643 4.72495C9.80362 4.73168 9.81153 4.73283 9.82015 4.72839C9.90124 4.68595 9.95624 4.61821 9.98514 4.52516C9.99571 4.49097 10.0244 4.49591 10.0533 4.49419C10.1964 4.48674 10.3382 4.47039 10.4788 4.44516C10.4894 4.4433 10.4897 4.44057 10.4797 4.43699C9.35934 4.03599 8.2334 4.02165 7.10185 4.39398C7.10028 4.39442 7.09861 4.39427 7.09716 4.39354C7.0957 4.39281 7.09458 4.39156 7.09401 4.39004C7.09344 4.38852 7.09346 4.38685 7.09407 4.38534C7.09469 4.38384 7.09584 4.38262 7.09732 4.38194C7.56949 4.1848 8.04655 4.06624 8.5285 4.02624C8.63965 4.01692 8.75093 4.00817 8.86236 4Z" fill="#013D52"/>
<path d="M3 8.03099C3 8.02775 3 8.0251 3 8.02306L3.01284 8.00283C3.01763 7.99515 3.02456 7.9914 3.03363 7.99157C3.22171 7.99515 3.40944 8.00377 3.59684 8.01742C3.79835 8.03201 3.81067 7.92015 3.87331 7.74405C3.93919 7.55855 4.00791 7.37281 4.07944 7.1868C4.08008 7.18526 4.08119 7.18394 4.08261 7.18303C4.08403 7.18213 4.08569 7.18169 4.08734 7.18177C4.089 7.18186 4.09057 7.18247 4.09182 7.18351C4.09308 7.18455 4.09396 7.18597 4.09433 7.18757C4.1597 7.43569 4.22465 7.685 4.28917 7.93551C4.3044 7.99439 4.34675 8.02314 4.41624 8.02178C4.64744 8.01734 4.87026 8.02493 5.08469 8.04456C5.09014 8.04505 5.0953 8.04717 5.0995 8.05066C5.10371 8.05414 5.10675 8.05882 5.10822 8.06407C5.1097 8.06932 5.10954 8.07489 5.10777 8.08004C5.106 8.0852 5.10269 8.08969 5.0983 8.09293C4.9121 8.23048 4.73592 8.35821 4.56974 8.47612C4.43292 8.57314 4.47707 8.66784 4.51635 8.80376C4.57128 8.99301 4.62271 9.18132 4.67063 9.36869C4.6713 9.37114 4.67121 9.37374 4.67037 9.37615C4.66953 9.37855 4.66797 9.38063 4.66591 9.38213C4.66385 9.38363 4.66138 9.38447 4.65883 9.38454C4.65628 9.38461 4.65377 9.3839 4.65163 9.38251C4.45329 9.26033 4.26846 9.12125 4.09715 8.96528C4.08603 8.95521 4.05805 8.93968 4.01321 8.91869C4.00551 8.91511 3.99781 8.91528 3.99011 8.91921C3.94407 8.94259 3.90625 8.96545 3.87664 8.98781C3.70876 9.11528 3.54438 9.23866 3.38352 9.35794C3.38044 9.36025 3.37672 9.36156 3.37287 9.36169C3.36902 9.36182 3.36523 9.36077 3.362 9.35867C3.35877 9.35657 3.35627 9.35353 3.35484 9.34997C3.35341 9.3464 3.35311 9.34248 3.35399 9.33874C3.40688 9.10137 3.47165 8.87509 3.54832 8.65991C3.58426 8.55906 3.55807 8.52041 3.47593 8.4559C3.3077 8.32433 3.14906 8.1827 3 8.03099Z" fill="#E3B12B"/>
<path d="M7.67584 7.91523C7.59712 8.06447 7.5445 8.24125 7.62085 8.40232C7.6427 8.44318 7.67205 8.47817 7.70885 8.50727C7.71475 8.51186 7.72143 8.51336 7.72891 8.51179C7.7898 8.49854 7.83845 8.4478 7.88473 8.39952C7.93615 8.34589 7.98465 8.2953 8.04379 8.30254C8.05055 8.3034 8.05594 8.30655 8.05996 8.312C8.11852 8.39201 8.0642 8.54528 8.03112 8.63861L8.02503 8.65587C8.02451 8.65734 8.02437 8.65892 8.02463 8.66046C8.02489 8.66199 8.02553 8.66344 8.0265 8.66466C8.02747 8.66588 8.02873 8.66684 8.03017 8.66745C8.03161 8.66806 8.03318 8.66829 8.03473 8.66813C8.09016 8.66275 8.25773 8.65609 8.26097 8.74168C8.26156 8.7578 8.2602 8.78205 8.25859 8.81072C8.25139 8.93892 8.23923 9.15553 8.37441 9.12899C8.42991 9.11809 8.4862 9.11487 8.54328 9.11931C8.55076 9.11989 8.55701 9.11731 8.56204 9.11157C8.64544 9.01709 8.72186 8.95293 8.7913 8.9191C8.84054 8.89519 9.00601 8.96052 9.09607 8.99607C9.11212 9.00241 9.12577 9.0078 9.13594 9.01157C9.14402 9.01376 9.15258 9.01636 9.16144 9.01904C9.2169 9.03585 9.28443 9.05632 9.32422 9.00534C9.38677 8.92534 9.47433 8.77114 9.3928 8.68275C9.38748 8.67688 9.38842 8.67236 9.39561 8.66921C9.49072 8.62706 9.46397 8.81458 9.4506 8.85716C9.39352 9.03924 9.4373 9.18792 9.58195 9.30318C9.62252 9.33538 9.66508 9.34028 9.70871 9.34531C9.73998 9.34891 9.77182 9.35258 9.80387 9.36641C9.91701 9.41528 9.93618 9.50465 9.95442 9.58968C9.96949 9.65991 9.98392 9.72718 10.0502 9.7662C10.1376 9.81767 10.2227 9.87272 10.3055 9.93136C10.3116 9.93566 10.3182 9.93738 10.3256 9.93652C10.4837 9.91867 10.6633 10.0563 10.7634 10.1404C10.8292 10.1957 10.7737 10.441 10.7472 10.4989C10.737 10.5214 10.7202 10.5473 10.7019 10.5755C10.6665 10.6303 10.6253 10.6938 10.6152 10.7582C10.5761 11.0074 10.5448 11.1919 10.5212 11.3116C10.5046 11.3961 10.3438 11.4655 10.2418 11.5095C10.222 11.5181 10.2045 11.5257 10.1906 11.5322C10.1865 11.5342 10.1831 11.5372 10.1807 11.541C10.1783 11.5447 10.1771 11.5491 10.1772 11.5535C10.1787 11.7602 10.1209 11.9346 10.004 12.1264C9.96692 12.1875 9.93241 12.22 9.86706 12.2397C9.86319 12.2409 9.85985 12.2433 9.8576 12.2467C9.85536 12.25 9.85435 12.254 9.85477 12.258C9.87224 12.4169 9.83816 12.4722 9.67878 12.4987C9.67398 12.4994 9.66965 12.502 9.66672 12.5059C9.66378 12.5099 9.66246 12.5148 9.66304 12.5197C9.67066 12.584 9.64643 12.6313 9.59036 12.6617C9.58288 12.6657 9.57835 12.6719 9.57677 12.6802L9.5304 12.9133C9.52896 12.9212 9.53098 12.928 9.53644 12.9337C9.54462 12.9422 9.55305 12.9501 9.56128 12.9578C9.59882 12.9929 9.63194 13.0239 9.61602 13.0901C9.59431 13.18 9.58698 13.2539 9.59402 13.3118C9.59778 13.3442 9.6729 13.402 9.73835 13.4523C9.7744 13.48 9.80752 13.5055 9.82414 13.5232C9.83133 13.5308 9.83047 13.5374 9.82156 13.543C9.66412 13.6449 9.58518 13.589 9.48166 13.4649C9.47691 13.4592 9.47102 13.4552 9.46397 13.4531C9.35937 13.4195 9.3005 13.3645 9.2483 13.2615C9.2033 13.1726 9.15736 13.0842 9.11049 12.9963C9.10718 12.9901 9.10661 12.9837 9.10877 12.9769L9.14349 12.8714C9.14579 12.8642 9.14636 12.8569 9.14521 12.8494C9.13889 12.8094 9.13227 12.7843 9.12537 12.7739C9.00948 12.6009 9.00438 12.5049 8.99243 12.2798C8.99204 12.2724 8.99164 12.2648 8.99123 12.2572C8.98864 12.2085 8.98596 12.1598 8.98327 12.1112C8.97051 11.8798 8.95774 11.6482 8.95542 11.4165C8.95348 11.2249 8.94507 11.1068 8.79108 10.9866C8.66449 10.8877 8.60086 10.8283 8.53034 10.6754C8.45457 10.5106 8.37851 10.3449 8.30216 10.1785C8.27168 9.94347 8.32869 9.73372 8.47319 9.54921C8.52495 9.48275 8.47017 9.32297 8.4389 9.25222C8.43792 9.25009 8.43639 9.24827 8.43446 9.24695C8.43253 9.24563 8.43028 9.24485 8.42796 9.24472C8.42564 9.24459 8.42334 9.2451 8.42131 9.24619C8.41928 9.24729 8.41761 9.24892 8.41647 9.25093C8.34896 9.37028 8.13523 9.20512 8.09102 9.14963C8.07274 9.12668 8.06317 9.09514 8.05339 9.06295C8.04228 9.02638 8.03092 8.98897 8.00626 8.96232C7.96985 8.92274 7.91409 8.90082 7.86139 8.88011C7.84481 8.87359 7.82852 8.86718 7.81324 8.86039C7.76836 8.84048 7.74947 8.81053 7.72611 8.7735C7.72298 8.76854 7.71977 8.76345 7.7164 8.75824C7.71209 8.7515 7.70612 8.7467 7.6985 8.74383C7.65292 8.72634 7.60742 8.72856 7.56198 8.7505C7.55465 8.75408 7.5476 8.75358 7.54085 8.74899L7.31892 8.60297C7.24085 8.56232 7.15478 8.49501 7.14681 8.40039C7.14591 8.38965 7.14519 8.37917 7.14449 8.36889C7.14081 8.31493 7.1375 8.26639 7.11014 8.21437C7.01812 8.03874 6.943 7.85566 6.88477 7.66512C6.88406 7.66271 6.88266 7.66057 6.88075 7.65894C6.87884 7.65731 6.87649 7.65627 6.874 7.65596C6.8715 7.65564 6.86897 7.65605 6.86671 7.65714C6.86445 7.65823 6.86255 7.65996 6.86126 7.66211C6.84206 7.69329 6.83926 7.72985 6.85436 7.76598C6.91144 7.90275 6.94034 8.04548 6.94106 8.19415C6.9412 8.20834 6.93674 8.20992 6.92768 8.19888C6.8082 8.05243 6.75515 7.75415 6.73833 7.58899C6.73761 7.58182 6.73516 7.5753 6.73099 7.56942C6.60375 7.38641 6.54012 7.10189 6.66219 6.8991C6.69781 6.83994 6.72911 6.77916 6.75918 6.72076C6.79994 6.64159 6.83846 6.56681 6.88239 6.50641C6.88757 6.4991 6.89461 6.49558 6.90353 6.49587C6.92165 6.49616 6.93933 6.49343 6.95658 6.4877C6.98376 6.47852 6.98304 6.47358 6.95443 6.47286C6.90741 6.47143 6.8729 6.45164 6.85091 6.41351C6.84688 6.40634 6.84609 6.39881 6.84853 6.39093C6.88951 6.25874 6.8862 6.12677 6.83861 5.99501C6.83358 5.98125 6.83761 5.97766 6.85069 5.98426L6.91108 6.01437C6.91248 6.01511 6.91408 6.01539 6.91566 6.01517C6.91723 6.01496 6.91869 6.01425 6.91984 6.01315C6.92099 6.01206 6.92176 6.01063 6.92205 6.00907C6.92233 6.00751 6.92212 6.0059 6.92143 6.00447C6.90058 5.95989 6.86766 5.92677 6.82265 5.90512C6.81503 5.90139 6.81338 5.89587 6.81769 5.88856L6.82352 5.87845C6.82783 5.871 6.83387 5.86913 6.84163 5.87286L6.88563 5.89329C6.90863 5.90404 6.91208 5.8996 6.89598 5.87996C6.80152 5.7644 6.67837 5.70605 6.52654 5.7049C6.32942 5.7034 6.20648 5.78447 6.0704 5.91028C6.0645 5.91573 6.0576 5.91759 6.04969 5.91587C5.97198 5.89882 5.88871 5.93324 5.80745 5.96683C5.76265 5.98535 5.71846 6.00361 5.67615 6.01286C5.67142 6.01394 5.66646 6.01329 5.66217 6.01103C5.65788 6.00877 5.65455 6.00505 5.65277 6.00055C5.651 5.99605 5.6509 5.99106 5.6525 5.98649C5.6541 5.98192 5.65729 5.97808 5.66148 5.97566L5.87608 5.85071C5.87834 5.84937 5.88023 5.84748 5.88156 5.84522C5.88289 5.84296 5.88362 5.84039 5.88368 5.83777C5.88375 5.83515 5.88314 5.83255 5.88193 5.83023C5.88071 5.8279 5.87892 5.82592 5.87672 5.82447L5.84049 5.80017C5.83359 5.79558 5.83115 5.78921 5.83316 5.78103C5.88046 5.59082 5.94039 5.56769 6.05733 5.52256C6.0886 5.51049 6.12394 5.49685 6.16421 5.47802C6.17701 5.472 6.17658 5.4672 6.16292 5.46361C6.16074 5.46303 6.15764 5.46228 6.15385 5.46137C6.1201 5.45323 6.03127 5.4318 6.04387 5.39179C6.04602 5.38476 6.05048 5.37967 6.05724 5.37652C6.10512 5.35386 6.16802 5.33738 6.24595 5.32705C6.31655 5.31774 6.3389 5.27745 6.31302 5.20619C6.31072 5.1996 6.31295 5.19523 6.31971 5.19308C6.5223 5.12885 6.69397 5.08813 6.83473 5.07093C6.97876 5.05314 7.13946 5.08915 7.2946 5.12392C7.33832 5.13372 7.3816 5.14342 7.42394 5.15179C7.48174 5.16318 7.56434 5.16964 7.62128 5.15458C7.88282 5.08548 8.13199 5.11566 8.36879 5.24512C8.37497 5.24856 8.38144 5.24956 8.3882 5.24813C8.43033 5.23953 8.4675 5.24834 8.4997 5.27458C8.50646 5.28003 8.51336 5.28017 8.52041 5.27501C8.62911 5.19362 8.77567 5.22466 8.91287 5.25371C8.93409 5.2582 8.95509 5.26265 8.97569 5.26662C8.98604 5.26863 8.99273 5.26548 8.99575 5.25716C8.99876 5.24956 8.99697 5.24326 8.99035 5.23824C8.96907 5.22232 8.95563 5.20139 8.95002 5.17544C8.94922 5.17155 8.94964 5.16751 8.95122 5.16389C8.95281 5.16027 8.95548 5.15724 8.95887 5.15523L9.19093 5.01802C9.1942 5.01604 9.19809 5.01532 9.20186 5.01599C9.20564 5.01667 9.20903 5.01869 9.21142 5.02168L9.27569 5.10146C9.28057 5.10748 9.28683 5.10985 9.29445 5.10856C9.33859 5.1011 9.37604 5.11566 9.40681 5.15222C9.4232 5.17157 9.41903 5.18999 9.3943 5.20748C9.35074 5.23831 9.35282 5.24139 9.40056 5.21673C9.40622 5.2138 9.41234 5.21048 9.41884 5.20697C9.4576 5.18598 9.50951 5.15787 9.55476 5.16211C9.5621 5.16268 9.56785 5.16598 9.57202 5.172C9.64642 5.27867 9.40185 5.35458 9.33413 5.35308C9.32522 5.35293 9.32205 5.35709 9.32464 5.36555C9.32987 5.38294 9.34777 5.38885 9.36737 5.39531C9.40352 5.40725 9.44547 5.42109 9.4245 5.51243C9.42263 5.52103 9.41738 5.52419 9.40875 5.52189C9.35297 5.50713 9.2961 5.50189 9.23816 5.50619C9.23011 5.50677 9.22651 5.50304 9.22737 5.49501L9.23428 5.43673C9.23586 5.42354 9.23083 5.42017 9.21918 5.42662C9.06188 5.51422 8.90897 5.60799 8.76045 5.70791C8.57969 5.82972 8.81012 5.93602 8.933 5.99271C8.95483 6.00277 8.97326 6.01128 8.98539 6.01802C9.05611 6.05732 9.04034 6.14444 9.02764 6.21458C9.02547 6.22658 9.02338 6.2381 9.02184 6.24878C9.02129 6.2523 9.02172 6.25592 9.0231 6.25921C9.02448 6.26251 9.02674 6.26536 9.02964 6.26745C9.03255 6.26955 9.03597 6.2708 9.03954 6.27107C9.04312 6.27134 9.04669 6.27062 9.04988 6.26899C9.08352 6.25157 9.10336 6.23265 9.11674 6.19437C9.14635 6.11078 9.19402 6.03931 9.25973 5.97996C9.31298 5.93169 9.33803 5.86568 9.36276 5.80052C9.38861 5.73242 9.4141 5.66523 9.47108 5.62017C9.63607 5.48985 9.77518 5.59738 9.80882 5.77458C9.81069 5.78419 9.8158 5.78641 9.82413 5.78125C9.83068 5.77719 9.83929 5.77109 9.84923 5.76403C9.90416 5.72505 10.0001 5.65695 10.018 5.74361C10.0216 5.76109 10.0247 5.78226 10.028 5.80534C10.038 5.87595 10.0507 5.96437 10.0905 6.01931C10.0993 6.03144 10.1122 6.04537 10.1261 6.06031C10.158 6.09463 10.1948 6.13427 10.1981 6.16964C10.1988 6.1768 10.197 6.18318 10.1925 6.18877C10.1052 6.2991 10.1386 6.38211 10.205 6.48878C10.2061 6.49055 10.2069 6.49253 10.2072 6.4946C10.2075 6.49666 10.2075 6.49878 10.207 6.50081C10.2065 6.50285 10.2056 6.50477 10.2044 6.50647C10.2032 6.50817 10.2016 6.50961 10.1998 6.51071C10.1093 6.56791 10.015 6.57429 9.91709 6.52985C9.90185 6.52297 9.8984 6.51229 9.90674 6.49781L9.97446 6.37974C9.97992 6.37028 9.97719 6.36555 9.96626 6.36555H9.67554C9.66461 6.36555 9.65979 6.37093 9.66109 6.38168L9.68373 6.58727C9.68546 6.60261 9.69387 6.61207 9.70897 6.61566L9.81529 6.64082C9.8393 6.64641 9.84204 6.65731 9.82349 6.67351C9.7383 6.74705 9.55714 6.87716 9.46785 6.7391C9.4644 6.73394 9.46044 6.73351 9.45599 6.73781L9.23234 6.95437C9.22658 6.95981 9.21983 6.96275 9.21206 6.96318C9.09487 6.97043 9.00713 7.06815 8.92733 7.15704C8.90771 7.17889 8.88856 7.20022 8.86958 7.21953C8.8644 7.22483 8.86246 7.23114 8.86376 7.23845C8.88988 7.38308 8.79979 7.43918 8.70471 7.49838C8.62476 7.54816 8.54129 7.60014 8.52041 7.70878C8.51316 7.74692 8.51464 7.78674 8.51619 7.82838C8.51859 7.89331 8.52117 7.96265 8.49108 8.03695C8.48997 8.03963 8.48818 8.04198 8.48588 8.04375C8.48357 8.04553 8.48084 8.04667 8.47796 8.04706C8.47508 8.04745 8.47214 8.04708 8.46945 8.04599C8.46675 8.04489 8.4644 8.04311 8.46261 8.04082C8.41306 7.97639 8.39872 7.91559 8.38218 7.84544C8.37741 7.82521 8.37245 7.8042 8.36642 7.78211C8.36441 7.77494 8.35995 7.76992 8.35305 7.76705L8.19 7.69953C8.18339 7.6968 8.17706 7.69723 8.17102 7.70082L8.12163 7.72856C8.11473 7.73243 8.1102 7.73824 8.10805 7.74598C8.08821 7.81544 7.9711 7.78146 7.92128 7.75867C7.91452 7.75566 7.90747 7.7548 7.90014 7.75609C7.79921 7.77437 7.72588 7.8206 7.67584 7.91523Z" fill="url(#paint0_linear_229_5507)"/>
<path d="M3.8591 10.5132L3.40831 10.3003C3.40346 10.298 3.39915 10.2947 3.39566 10.2907C3.39218 10.2867 3.3896 10.282 3.38811 10.2769C3.38112 10.2537 3.3896 10.2392 3.41355 10.2334C3.56756 10.1965 3.72156 10.1595 3.87557 10.1222C3.908 10.1144 3.92613 10.0847 3.92995 10.0331C3.94359 9.8487 3.96072 9.66396 3.98134 9.47889C3.9816 9.47634 3.98267 9.47395 3.98439 9.47206C3.98611 9.47016 3.98839 9.46887 3.99091 9.46837C3.99342 9.46787 3.99603 9.46819 3.99835 9.46927C4.00067 9.47036 4.00258 9.47216 4.00379 9.47441L4.27995 9.96445C4.28681 9.97659 4.29745 9.98618 4.31026 9.99179C4.32308 9.99739 4.33739 9.99871 4.35105 9.99555L4.86645 9.8764C4.86962 9.8757 4.87294 9.87597 4.87596 9.87718C4.87898 9.87838 4.88156 9.88047 4.88335 9.88314C4.88514 9.88582 4.88606 9.88897 4.88598 9.89217C4.8859 9.89536 4.88484 9.89845 4.88292 9.90102C4.78097 10.0398 4.67253 10.1767 4.55761 10.3117C4.52194 10.3538 4.52593 10.3958 4.55113 10.4393C4.64276 10.5989 4.73557 10.7575 4.82953 10.9152C4.83008 10.9161 4.83034 10.9171 4.83028 10.9182C4.83022 10.9193 4.82984 10.9203 4.82919 10.9211C4.82855 10.9219 4.82766 10.9226 4.82665 10.9229C4.82564 10.9232 4.82456 10.9232 4.82354 10.9229C4.64393 10.8672 4.47071 10.7966 4.3039 10.7112C4.27172 10.6948 4.22657 10.7271 4.20412 10.7562C4.10317 10.8861 4.00396 11.0126 3.9065 11.1358C3.90473 11.138 3.90235 11.1396 3.89966 11.1405C3.89697 11.1413 3.8941 11.1413 3.8914 11.1405C3.8887 11.1397 3.8863 11.1381 3.88451 11.136C3.88271 11.1338 3.88159 11.1312 3.88131 11.1284C3.86667 10.9597 3.86925 10.7936 3.88904 10.6301C3.8907 10.6159 3.88638 10.584 3.87607 10.5346C3.8739 10.5247 3.86825 10.5175 3.8591 10.5132Z" fill="#E3B12B"/>
<path d="M4.8373 11.5216L5.21353 11.323C5.2169 11.3212 5.22076 11.3205 5.22456 11.321C5.22836 11.3215 5.23191 11.3232 5.23473 11.3257C5.23754 11.3283 5.23949 11.3317 5.24029 11.3355C5.24109 11.3392 5.2407 11.3431 5.23919 11.3466L5.06288 11.7471C5.06098 11.7515 5.06045 11.7563 5.06137 11.7611C5.06228 11.7658 5.0646 11.7702 5.06801 11.7737L5.38675 12.0956C5.38789 12.0968 5.38867 12.0982 5.38899 12.0998C5.38932 12.1014 5.38917 12.1031 5.38857 12.1046C5.38798 12.1061 5.38696 12.1074 5.38563 12.1084C5.38431 12.1093 5.38274 12.1099 5.38111 12.1099C5.24458 12.113 5.10993 12.098 4.97716 12.0649C4.96351 12.0615 4.94907 12.063 4.93642 12.0692C4.92377 12.0755 4.91374 12.086 4.90813 12.0989L4.74619 12.4736C4.74038 12.4871 4.73516 12.4868 4.73054 12.4728C4.68486 12.3351 4.64953 12.195 4.62455 12.0524C4.62284 12.0431 4.61882 12.0353 4.61249 12.0288C4.55474 11.9705 4.29375 11.9526 4.19597 11.9265C4.19177 11.9254 4.18799 11.9231 4.18512 11.9199C4.18225 11.9167 4.18042 11.9126 4.17986 11.9084C4.17931 11.9041 4.18006 11.8997 4.18202 11.8959C4.18397 11.892 4.18705 11.8889 4.19083 11.8868L4.52831 11.6964C4.53499 11.6927 4.54036 11.687 4.54367 11.6801C4.54697 11.6732 4.54806 11.6655 4.54679 11.658L4.47005 11.2058C4.46952 11.2028 4.46998 11.1997 4.47137 11.1969C4.47277 11.1942 4.47501 11.1919 4.47778 11.1905C4.48055 11.1892 4.48369 11.1887 4.48674 11.1892C4.48978 11.1898 4.49257 11.1913 4.49469 11.1936L4.81138 11.5178C4.81908 11.5255 4.82772 11.5267 4.8373 11.5216Z" fill="#E3B12B"/>
<path d="M5.5107 12.7283L5.72633 12.5183C5.7304 12.5143 5.73562 12.5117 5.74127 12.5108C5.74691 12.5099 5.7527 12.5109 5.75783 12.5134C5.76296 12.516 5.76717 12.5201 5.76988 12.5252C5.77259 12.5302 5.77367 12.536 5.77297 12.5417L5.73361 12.8328C5.73209 12.8443 5.73397 12.856 5.739 12.8664C5.74403 12.8768 5.75199 12.8855 5.76191 12.8914L6.05383 13.0653C6.05568 13.0664 6.05714 13.068 6.05801 13.0699C6.05887 13.0718 6.05909 13.074 6.05864 13.0761C6.05819 13.0781 6.05709 13.08 6.0555 13.0814C6.05391 13.0828 6.05191 13.0837 6.04979 13.0839L5.72741 13.1231C5.716 13.1245 5.70537 13.1296 5.69714 13.1375C5.68892 13.1455 5.68355 13.1559 5.68186 13.1672L5.63765 13.458C5.63704 13.4619 5.63522 13.4655 5.63245 13.4684C5.62967 13.4712 5.62608 13.4731 5.62216 13.4738C5.61825 13.4746 5.61421 13.474 5.61061 13.4723C5.60701 13.4707 5.60403 13.4679 5.60207 13.4644L5.45032 13.1898C5.4449 13.1801 5.43688 13.1721 5.42717 13.1667C5.41745 13.1614 5.40642 13.1588 5.39533 13.1594L5.10449 13.1742C5.10169 13.1743 5.09891 13.1737 5.09641 13.1724C5.09391 13.1711 5.09178 13.1693 5.09021 13.167C5.08865 13.1646 5.0877 13.162 5.08746 13.1592C5.08722 13.1564 5.0877 13.1536 5.08885 13.1511C5.12335 13.0779 5.34061 12.9524 5.30638 12.8785C5.25588 12.7699 5.20458 12.6609 5.15247 12.5514C5.15196 12.5504 5.1518 12.5492 5.15202 12.5481C5.15224 12.547 5.15283 12.546 5.15369 12.5452C5.15456 12.5444 5.15566 12.5439 5.15685 12.5438C5.15803 12.5437 5.15923 12.5439 5.16028 12.5444L5.48266 12.7318C5.4929 12.7377 5.50225 12.7365 5.5107 12.7283Z" fill="#E3B12B"/>
<defs>
<linearGradient id="paint0_linear_229_5507" x1="8.22285" y1="6.15813" x2="9.46869" y2="12.1699" gradientUnits="userSpaceOnUse">
<stop stop-color="#053853"/>
<stop offset="0.468356" stop-color="#258DAF"/>
<stop offset="0.885703" stop-color="#0A374F"/>
</linearGradient>
</defs>
</svg>
