<!-- by TradingView --><svg width="18" height="18" viewBox="0 0 18 18" xmlns="http://www.w3.org/2000/svg"><path fill="#F0F3FA" d="M0 0h18v18H0z"/><path d="M11.3 7.16c.1.1.04.18.18.19l.06-.08c-.02-.05-.05-.08-.08-.12.07-.08.16-.12.2.04.03.18.05.05.13.21.11.01.13-.02.2 0 .06.03 0 .05.1.03.04-.02.01-.04.08-.03.07.01.07.13.05.19-.04.1-.03-.04-.05.22-.15-.1-.3-.01-.3-.01l-.26-.09c-.1-.03-.1-.1-.23-.07-.06.11 0 .08-.03.15-.11.04-.24-.06-.3-.15-.13-.02-.22-.02-.3-.11.03-.1.07-.14 0-.22-.1-.03-.48 0-.58.02-.04 0-.35.17-.43 0 .12-.1.24.02.33-.13.08-.14-.02-.17.2-.24l.03-.14c.16 0 1.1.24.56.43 0 0 .43-.1.45-.09ZM9.44 9.63c1.34-.45.45 0 .52.17h.78l-.06.16c-.07.32.38.51.2.97-.11.25-.1.3-.02.52.15.37-.02.24.13.55.08.16.02.4.13.54.07-.01.07-.03.12-.05.33-.17.44-.36.75-.57l-.01-.17c.18-.13.6-.89.57-1.16-.02-.1-.06-.23-.07-.34.04-.03-.03-.03.06-.01a3.42 3.42 0 0 1-.31-.92c-.1-.42-.1-.64.08-.95.29-.51.62-.87 1.19-.8.23.03.33.1.51.18-.05-.13-.14-.54-.23-.8-.13-.37-.28-.69-.47-1l-.19-.31c-.13-.2-.4-.52-.43-.57-.16.06-.28-.07-.39.07-.13.16-.1-.07-.23-.06 0 .16.05.1.06.19-.05-.05-.13-.05-.16.04-.05.13-.13-.03-.08.13-.2-.07-.13-.11-.18-.18-.04-.04-.03 0-.06-.06.06.02.33.13.32-.02 0-.07-.08-.07-.13-.09-.18-.08-.4-.19-.57-.2-.07 0 0 0-.05-.02-.07-.02-.08.04-.15.05-.19.04-.28.17-.38.34-.06.1-.09.1-.21.11-.04.08-.02.07-.11.1 0 .08.02.19.07.28.1.01.2-.12.27 0 .09.16 1.25-.39-.42.47l-.06.03c-.04 0-.03 0-.07-.02.02-.06.03-.02.04-.1-.3-.06-.13-.43-.37-.45-.03.05-.06.05-.06.11 0 .08.04.05.05.13l-.16.01-.12.05c0 .1-.02.05-.03.17.08.03.17.01.25-.03 0-.06.01-.07-.01-.12.19-.15.18.04.07.17-.03.14.05.1.17.1l.2.01c-.04.07-.09.14-.15.05l-.01.03c-.05.1-.13-.01-.19.07.02.07 0 .01.06.05.12.07.14.14.14.3-.17.01-.37-.06-.51-.01-.01.1.03.08.02.18-.01.13-.13.09-.02.3.12 0 .22-.04.16.14-.05.15-.12.07-.2.16-.1.1-.66.75-.62.86.03.08.04-.01.04.14 0 .29-.08.23-.09.5l.18.13c.1.09.08.08.12.18.03.08.27.2.32.27ZM5.07 8.86c0 .14-.21.86-.4.49-.05-.1-.03-.26-.03-.39.02-.01.17-.22.28-.14.05-.1 0-.1.15-.12h.05c.06 0 .07-.02.1.06h-.1c-.11.02-.02.04-.05.1Zm-.72.92c-.01-.05.2-.16.22-.18 1.5.52.5-.26.5-.74.72.63 1.35.76.49 1.53.1.04-.02.03.09.04-.02.22.3.64.52.76.01 0 .25.04.31.21l.28.8c.02.05.11.2.15.36.17.65.34.45.38.91.06.04.04 0 .1.02-.01.21 0 .15.1.26.06.05.04.06.08.1l.1.07c.1.07.14.09.28.08.08 0 .07-.01.14-.04l.1-.07c-.21 0-.14-.02-.4-.22l.03-.13c.01-.09.02-.05 0-.14-.07-.04-.08-.01-.14-.04-.05-.08-.02-.18 0-.27.05-.48.18-.58.3-1.24-.06-.1-.19-.1 0-.32.06-.08.1-.07.2-.07.05-.01.02-.03.09-.07-.01-.3-.02-.35-.11-.62.04-.12.05-.2.15-.29v-.1c-.6.16-1.18 0-1.5-.55l-.12-.2c-.1.08-.24-.05-.27-.06l-.04-.02-.05-.03c-.2-.15-1.13-.89-1-1.05.1-.13.17-.32.23-.34-.1-.12-.74-.07-.89-.04a.7.7 0 0 0-.43.32c-.26.4-.11 1.24.1 1.37ZM4 8.12c.08-.06.1-.15.32-.31.45-.34.85-.2 1.34 0 .02-.04.17-.2.19-.22.05-.04.02-.02.04-.01.04 0 .02.03.06.03.13-.24.29-.35-.02-.38.04-.06.37-.28.44-.3-.15.29-.2.27.07.24.1-.01.1-.04.07-.16l-.1.02.03-.24c-.1-.04.01-.04-.1-.03.03-.03.04-.02.04-.05h-.16c.04-.13 0-.2-.03-.3-.06.05-.1.15-.17.23l-.07-.04c.03-.08.04-.04.04-.13h-.03c-.1-.04-.05-.08-.25.03-.04.02-.03.1-.05.15-.02.1-.01.02-.06.11.03.1.1.05.02.2-.05.08-.07.07-.12.14-.02.12.02.2-.09.22-.06-.08 0-.12 0-.23-.2.04-.19-.03-.32 0l-.07-.13c.04-.05.05-.1.08-.15.19-.36.49-.37.61-.73.04-.1-.07-.04.1-.13.1-.06.12-.1.21.03-.02.15-.11.18-.2.26a.14.14 0 0 0-.06.1c.04 0 .06-.03.1-.05.1-.03.07.02.12.05l.06.01c.13.01.12-.02.07-.11.06.02.06.04.1-.01.08-.1-.08-.15-.02-.21.04-.05.06 0 .12.02.04-.05.11-.12.13-.17a.52.52 0 0 0-.25-.02c.05-.07.06-.03.1-.1-.06-.02-.12-.02-.19-.06-.08-.06-.1-.08-.2-.05.02.06 0 .16-.04.05v-.01c-.37.18-.12.18-.27.44-.2.35-.1-.47-.36-.18l-.09.11c.07.1.34.17-.07.33-.05.02-.06.05-.11.06-.08 0-.15 0-.19.08l-.02.04c-.07-.05-.06-.03-.17.01 0 0 .03-.02 0-.07-.07 0-.13.03-.16.1-.1.19-.15.4-.22.6-.08.24-.17.65-.2.92Z" fill="#DCDCDC"/><path d="M8.37 4.1c-.1-.1-.18-.08-.34-.04l-.65.3c-.1.07-.18.12-.3.17-.39.15 0-.08-.69.22-.8.36-.47.62-.84.71-.07.01-.07 0-.12.03 0 .04.04.03.06.06l-.02.09c.1-.01.18-.06.26-.09.08-.02.18-.08.2-.16-.13.03-.25.13-.36.14.21-.26.75-.53 1.02-.73l.08-.03-.07.04c.04.07.02 0 .04.07-.66.22-.1.17.13.18.24.38-.13.17 0 .72.02.1 0 .08.06.15h.25c.07-.04.08-.14.12-.2.03-.08.09-.12.11-.21.04-.14.13-.02.35-.3.12-.16.73-.35.4-.4.1-.1.33-.06.04-.17.1-.07.32-.08.31-.26l-.1-.01.12-.06-.1-.03c.1-.1.35-.26.37-.29-.13 0-.24.06-.33.1ZM12.5 8.62c.04.03.2.1.2.16l.03.24c.12.01.06-.02.16-.04.23-.06.47-.28.6-.46 0 0 .18-.13-.03-.23-.1-.05-.06-.07-.1-.13-.05.05-.08.1-.16.11-.08 0-.12-.03-.13-.12-.24.08-.48.23-.58.47Z" fill="#DCDCDC"/><path d="M12.88 9.75c0-.09-.03 0 .03-.08.16-.2.2-.32.26-.6-.07 0-.04.02-.09.03-.04.02-.06.01-.11.02-.1 0-.18.1-.23-.03l-.02-.06c-.03-.1-.24-.13-.27-.23-.07.1 0 .47.04.58.06.15.27.31.4.37ZM13.02 10.77c-.02.08.01.07-.04.13-.16.18-.29.14-.32.25-.05.14.1.11-.04.25-.1.12-.05.1-.05.24 0 .13.15.12.23.05.04-.03.27-.55.28-.62.03-.08.1-.12.04-.22-.02-.04-.06-.06-.1-.08ZM4.71 6.19c.12-.1-.05-.3-.1.1-.01.04 0 .06-.03.11.02.02-.02 0 .03.03h.04c-.07.02-.1.05-.1.15.2-.02.1.06.3-.12.1-.1.1.08.23-.12l.05-.07c-.04-.04-.08-.05-.07-.16.02-.07.04-.14.08-.17-.09-.01-.05 0-.12.08-.07.07-.1.13-.19.14l-.12.03Z" fill="#DCDCDC"/><path d="M8.45 9.83a.93.93 0 0 1-.76.4.95.95 0 0 1-.94-.96c0-.53.42-.95.94-.95.31 0 .59.15.76.4l.54-.65A1.75 1.75 0 0 0 6 9.27a1.75 1.75 0 0 0 3 1.2l-.55-.64Z" fill="#3398CD"/><path d="M14.46 9.82a.93.93 0 0 1-.77.41.95.95 0 0 1-.94-.96c0-.52.42-.95.94-.95.3 0 .58.15.75.39l.55-.65A1.74 1.74 0 0 0 12 9.27a1.74 1.74 0 0 0 3 1.2l-.54-.65ZM6 10.41h-.01a1.7 1.7 0 0 1-1.28.59C3.77 11 3 10.23 3 9.27c0-.95.77-1.72 1.71-1.72.48 0 .92.2 1.23.52l-.51.61a.93.93 0 0 0-.74-.36.95.95 0 0 0-.94.95c0 .53.42.96.94.96.2 0 .4-.07.56-.19v-.2H4.5v-.76H6v1.33ZM9 11l1.34-3.45H11L12.33 11h-.65l-.3-.77H9.95l-.3.77H9Zm1.25-1.53h.83l-.41-1.07-.42 1.07Z" fill="#5C5E5B"/></svg>