<!-- by TradingView --><svg width="18" height="18" viewBox="0 0 18 18" xmlns="http://www.w3.org/2000/svg"><path fill="#F0F3FA" d="M0 0h18v18H0z"/><path d="m12.6 4.2-.52 1.15a4.82 4.82 0 0 0-5.25-.6L6.3 3.64a6.02 6.02 0 0 1 6.29.57Z" fill="url(#a)"/><path d="m6.31 3.63.52 1.13a4.74 4.74 0 0 0-2.59 4.42 4.8 4.8 0 0 0 1.1 2.89c-.33.24-.68.46-1.05.65a5.94 5.94 0 0 1 2.02-9.1Z" fill="url(#b)"/><path d="m12.08 5.35.52-1.15a5.97 5.97 0 0 1 1.57 1.78s0 .02-.02.02l-.97.56-.04.01a4.68 4.68 0 0 0-1.06-1.22Z" fill="url(#c)"/><path d="m8 6.15.65-.78c.13-.17.24-.27.45-.22.06.01.12.06.18.13l.73.85c.12.14.19.24.2.3 0 .12 0 .23-.02.34 0 .02-.02.04-.03.05l-1.04.6a.22.22 0 0 1-.22 0c-.39-.24-.7-.42-.94-.55-.07-.04-.11-.1-.12-.2 0-.23.02-.35.16-.52Z" fill="#9EB196"/><path d="M12.35 7.02c.05.1.09.16.05.26-.1.24-.23.62-.41 1.14-.06.15-.11.25-.17.29-.09.06-.18.11-.28.15h-.06a112.84 112.84 0 0 1-1.15-.66V6.9c0-.01 0-.03.02-.05.08-.06.17-.12.27-.16.06-.04.17-.04.33-.01l1.2.18c.1.02.15.08.2.16Z" fill="#398BBF"/><path d="m6.08 8.6-.45-1.2a.38.38 0 0 1 .29-.51l1.26-.23a.38.38 0 0 1 .45.36l.01.96a.38.38 0 0 1-.19.34l-.83.47a.38.38 0 0 1-.54-.2Z" fill="#F5CE6E"/><path d="M12.35 10.89c-.05.09-.07.14-.18.16l-1.29.24c-.17.03-.22-.02-.37-.1-.08-.04-.13-.1-.13-.16a65.42 65.42 0 0 1 0-1.29c.68-.4 1.05-.6 1.1-.62.05-.03.12-.02.2.03.14.09.2.11.27.27l.45 1.24c.03.1 0 .14-.05.23Z" fill="#EC2C2E"/><path d="M7.66 9.74v.02l.01 1.17c0 .09.01.15-.06.2-.18.14-.3.2-.54.16l-1.27-.2c-.05-.01-.1-.06-.15-.15-.06-.1-.07-.16-.06-.2l.43-1.22c.09-.23.19-.3.4-.4.07-.04.13 0 .2.04a78.77 78.77 0 0 1 1.04.58Z" fill="#F49C59"/><path d="m9.02 10.56.08.01a942.78 942.78 0 0 1 1.07.6l.01.04c.04.13.04.25.02.37 0 .06-.07.16-.2.3l-.77.92c-.03.04-.1.05-.2.05s-.17-.01-.2-.05l-.78-.91a.83.83 0 0 1-.2-.3.93.93 0 0 1 .02-.37.08.08 0 0 1 .04-.06 1038.62 1038.62 0 0 1 1.11-.6Z" fill="#F06F47"/><path d="M12.2 14.07a5.92 5.92 0 0 1-7.9-1.35c.36-.19.7-.4 1.03-.65a4.74 4.74 0 0 0 6.3.97A4.8 4.8 0 0 0 13.81 9l.01-.01h1.12l.04.02.01.03a5.95 5.95 0 0 1-2.8 5.02Z" fill="url(#d)"/><defs><linearGradient id="a" x1="6.31" y1="4.44" x2="12.3" y2="5.05" gradientUnits="userSpaceOnUse"><stop stop-color="#CFC57E"/><stop offset="1" stop-color="#669BAD"/></linearGradient><linearGradient id="b" x1="6.52" y1="4.29" x2="4.91" y2="12.72" gradientUnits="userSpaceOnUse"><stop stop-color="#CFC57E"/><stop offset="1" stop-color="#F49255"/></linearGradient><linearGradient id="c" x1="12.08" y1="4.96" x2="13.82" y2="6.22" gradientUnits="userSpaceOnUse"><stop stop-color="#669BAD"/><stop offset="1" stop-color="#3287BD"/></linearGradient><linearGradient id="d" x1="14.62" y1="12.72" x2="4.91" y2="12.49" gradientUnits="userSpaceOnUse"><stop stop-color="#EB1423"/><stop offset="1" stop-color="#F49255"/></linearGradient></defs></svg>