<!-- by TradingView --><svg width="18" height="18" viewBox="0 0 18 18" xmlns="http://www.w3.org/2000/svg"><path fill="#F0F3FA" d="M0 0h18v18H0z"/><path d="m9.7 4-1.38.06a.11.11 0 0 0-.1.12c0 .07.05.11.11.11l1.39-.05c.06 0 .11-.06.1-.12V4.1A.11.11 0 0 0 9.72 4ZM7.76 4.54l-1.18.61a.06.06 0 0 1-.05 0l-.3-.19a.06.06 0 0 1-.03-.05c0-.02.01-.04.03-.05l1.54-.73c.03-.02.07 0 .08.03v.03l-.06.31c0 .02-.01.04-.03.04ZM11.47 5.02a.6.6 0 0 1-.23-.03.58.58 0 0 0-.54.13l-.36.32a.32.32 0 0 1-.18.08c-.07 0-.13 0-.18-.04l-.48-.3c-.12-.09-.11-.16.01-.23a5.77 5.77 0 0 1 .87-.39c.14-.11.12-.22-.06-.31a.04.04 0 0 1-.03-.05c0-.02.02-.04.04-.03.8.21 1.48.58 2.02 1.1.2.2.17.25-.1.15l-.2-.13c-.2-.15-.38-.1-.44.15a6.44 6.44 0 0 0-.14.71.16.16 0 0 1-.12.07c-.03 0-.05 0-.08-.02-.16-.08-.49-.27-.73-.28-.54-.02-.92.36-1.2.8-.13.21-.38.17-.58.06a7 7 0 0 1-.67-.45.19.19 0 0 1-.03-.27c.14-.16.34-.36.62-.62.14-.13.21-.31.23-.55a.1.1 0 0 0-.04-.09l-.21-.22a.09.09 0 0 1-.03-.04.1.1 0 0 1 0-.04.1.1 0 0 1 .07-.07c.2-.08.55-.09.98-.12.16-.01.3.03.44.11.02.02.03.04.02.07 0 .02-.02.04-.04.05-.26.08-1.04.24-.98.62.02.14.1.25.23.35.31.23.65.29 1 .19.27-.08.47-.4.62-.57a.1.1 0 0 1 .1-.04c.07 0 .17.02.3.08.1.04.16.04.19 0 .11-.15.08-.2-.1-.15Z" fill="#3E4095"/><path d="M7.69 6.31c.05.25.19.44.4.58l.53.35c.15.1.17.25.06.45-.15.27-.3.53-.46.78a.37.37 0 0 1-.48.13 7.6 7.6 0 0 1-.6-.36c-.28-.18-.57-.32-.31-.7.4-.6.88-1.19.36-1.75l-.32-.33a.1.1 0 0 1 .02-.15c.31-.24.65-.45 1-.62a.14.14 0 0 1 .1 0c.22.06.4.16.55.3.07.08.07.14-.01.2l-.57.45a1.3 1.3 0 0 0-.21.31.5.5 0 0 0-.06.36ZM6 5.63l-.88 1.1a.06.06 0 0 1-.05.02c-.01 0-.03 0-.04-.02l-.24-.28a.06.06 0 0 1 0-.08l1.03-1.22a.06.06 0 0 1 .06-.02c.02 0 .03.02.04.04l.1.4a.06.06 0 0 1-.01.06ZM12.42 6.77c-.34-.15-.63-.32-.92-.04-.49.47-.6 1.37-.12 1.91.17.19.47.32.75.46a.32.32 0 0 1 .16.39c-.09.3-.18.57-.29.8-.1.22-.24.41-.5.3a6.2 6.2 0 0 1-.71-.33c-.37-.21-.12-.56 0-.86.24-.53.23-1.04-.17-1.49-.2-.2-.5-.36-.79-.52a.3.3 0 0 1-.11-.41c.1-.2.23-.4.38-.62.17-.25.38-.2.6-.05.29.2.74.31.96-.03.11-.19.09-.48.08-.74 0-.04.03-.08.07-.09h.04c.2.05.34.16.42.34.14.3.22.6.24.91 0 .04-.02.07-.06.07h-.03ZM12.4 5.64c.22.17 1.03 1.48.83 1.45a.63.63 0 0 1-.55-.45c-.1-.28-.2-.61-.29-1Z" fill="#3E4095"/><path d="M12.74 5.76c.39.34.66.76.83 1.24.01.04.02.07 0 .1l-.04.35a53 53 0 0 1 .06 1.42c0 .19-.09.25-.26.2l-.27-.1c-.18-.06-.26-.19-.26-.38l.03-1.06c0-.09.04-.12.12-.1l.34.07c.04.01.06 0 .07-.04.04-.12.05-.26.03-.42-.14-.4-.36-.83-.65-1.28ZM4.76 7.06a.16.16 0 0 0 .14 0c.3-.14.54-.31.7-.53.23-.31.46-.55.68-.7a.16.16 0 0 1 .1-.03c.03 0 .07.01.1.03l.5.36c.06.04.1.1.1.15.01.06 0 .12-.04.17-.3.41-.51.71-.67.9-.1.15-.26.16-.41.05-.31-.21-.59-.49-.96-.17-.41.35-.42.89-.63 1.35a.07.07 0 0 1-.08.04.34.34 0 0 1-.17-.07.13.13 0 0 1-.05-.1c0-.16.03-.34.08-.54.09-.3.2-.63.34-.98.02-.04.05-.05.09-.03l.18.1ZM12.19 8.6l-.68-.33a.25.25 0 0 1-.13-.28l.2-.88c.03-.11.13-.2.25-.2l.1.03.52.27c.08.04.14.13.13.23l-.03.95c0 .13-.11.24-.24.24-.04 0-.08 0-.12-.02Z" fill="#3E4095"/><path d="M12.93 9.43c.22.11.5.2.65-.06.27-.46.16-1.05.07-1.57 0-.03 0-.06.02-.1l.07-.2c.02-.03.03-.02.04.02l.15.68c.06.31.08.6.06.88l-.03.09c-.21.22-.33.4-.37.52-.13.43-.27.84-.42 1.24-.08.19-.21.25-.4.18l-.34-.12c-.2-.07-.25-.2-.18-.4l.35-.97c.04-.12.12-.19.23-.2.03-.02.07-.01.1 0ZM5.25 11.53c.13-.06.2-.14.23-.22.12-.53.11-1-.04-1.42-.15-.44-.44-.6-.73-.87a.28.28 0 0 1-.07-.13.4.4 0 0 1-.01-.16 3 3 0 0 1 .36-1.1.19.19 0 0 1 .27-.06c.14.1.29.2.45.33.14.1.23.3.15.48-.38.79-.46 1.54.29 2.12.15.12.34.25.57.39.05.03.1.08.12.15.02.06.02.13 0 .2l-.22.65a.19.19 0 0 1-.27.1l-.6-.34c-.12-.06-.27 0-.3.13-.07.26.11.53.24.77.01.04 0 .05-.03.03a.88.88 0 0 1-.34-.28c-.28-.37-.51-.7-.7-1a.69.69 0 0 1-.1-.22c-.01-.07 0-.08.04-.01l.14.21.07.07.37.17c.03.02.07.02.1 0Z" fill="#3E4095"/><path d="M8.28 9.28c-.6.1-.8.55-1.05 1.05-.09.17-.23.2-.44.09-.4-.23-.65-.39-.77-.48-.15-.12-.2-.3-.12-.5a4.55 4.55 0 0 1 .43-.9.27.27 0 0 1 .3-.02c.6.36 1.16.72 1.81.32.3-.18.46-.47.66-.83.16-.29.39-.26.65-.12.26.13.5.26.71.39a.33.33 0 0 1 .14.4c-.09.23-.22.5-.4.84-.14.28-.36.26-.62.12-.46-.23-.77-.44-1.3-.36ZM4.13 9.83c.07.45.18.8.24.8.06-.02.05-.39-.02-.84-.07-.44-.18-.8-.24-.79-.06.01-.05.38.02.83ZM4.59 10.73l-.08-1.1a.1.1 0 0 1 .05-.1.1.1 0 0 1 .12 0l.56.42a.1.1 0 0 1 .04.09l-.01 1.08a.1.1 0 0 1-.12.1.1.1 0 0 1-.05-.02l-.47-.4a.1.1 0 0 1-.04-.07ZM13.9 9.63a.11.11 0 0 0-.15.07l-.44 1.4c-.01.06.02.12.08.14.06.02.12-.01.14-.07l.44-1.4a.11.11 0 0 0-.07-.14Z" fill="#3E4095"/><path d="M9.17 11.91c.03.16.16.31.4.47a5.96 5.96 0 0 0 .57.33.11.11 0 0 1-.02.15c-.23.21-.5.39-.8.52-.25.12-.71-.15-.93-.29a.08.08 0 0 1-.04-.05.08.08 0 0 1 .02-.07c.25-.35.77-.66.43-1.22-.2-.32-.6-.52-.98-.73a.31.31 0 0 1-.14-.4c.09-.22.22-.48.4-.78.13-.22.32-.26.57-.13.36.18.64.34.85.47a.33.33 0 0 1 .1.45c-.17.27-.31.53-.42.79-.04.08-.04.24 0 .49Z" fill="#3E4095"/><path d="M10.5 13.68a.8.8 0 0 0 .32-.09c.29-.14.52-.24.73-.5a.2.2 0 0 0 0-.25.19.19 0 0 0-.08-.06l-.36-.15a.14.14 0 0 1-.08-.17c0-.02.01-.04.03-.05l.7-.9a.3.3 0 0 1 .16-.11.29.29 0 0 1 .18 0l.53.2a.11.11 0 0 1 .06.16c-.1.19-.24.4-.38.55-.23.24-.41.5-.55.75a.75.75 0 0 1-.29.3c-.16.09-.4.2-.73.33a1.6 1.6 0 0 1-.38.05.75.75 0 0 0-.37.13.4.4 0 0 1-.18.08c-.05 0-.06-.01-.03-.05l.05-.08a.06.06 0 0 0 0-.04.06.06 0 0 0-.02-.04l-.27-.14a.05.05 0 0 1-.02-.07l.02-.02c.39-.23.63-.32.82-.59.35-.5-.43-.8-.74-.97a.24.24 0 0 1-.12-.25l.03-.1.44-.66c.12-.18.25-.28.4-.3a.1.1 0 0 1 .05 0l.86.4a.25.25 0 0 1 .13.17.26.26 0 0 1-.03.21l-.5.75c-.28.41-.2.8.33.92.04.01.05.04.04.07a.2.2 0 0 1-.09.14 24.96 24.96 0 0 1-.67.38ZM6.35 13.05v.04c.02.03.05.05.08.04.16-.02.21-.26.25-.38.04-.12.12-.15.22-.1.23.1.44.21.65.36.03.02.05.06.05.1 0 .04-.02.08-.06.1a1.73 1.73 0 0 0-.38.32c-.04.15-.1.15-.14 0-.07-.2-.24-.29-.53-.27a.2.2 0 0 1-.19-.12c-.06-.17-.18-.25-.37-.25-.04 0-.07-.02-.08-.06l-.22-.71c-.08-.23-.02-.28.17-.15.37.27.83.47 1.16 0 .1-.13.18-.28.26-.47a.26.26 0 0 1 .16-.14.28.28 0 0 1 .22.02l.9.5a.2.2 0 0 1 .05.3c-.15.17-.26.31-.34.43-.34.5.02.72.4.91a.1.1 0 0 1 .06.08c0 .06-.02.09-.07.1-.27.02-.5.04-.69.07-.1.02-.28-.03-.55-.15-.04-.01-.04-.03 0-.06.12-.1.38-.17.46-.31.07-.13.06-.24-.04-.35a1.37 1.37 0 0 0-.95-.47c-.15-.01-.29.03-.36.18-.06.14-.1.3-.12.44ZM12.54 12.25c-.3.33-.52.63-.48.67.04.03.31-.21.62-.55.3-.33.52-.63.48-.67-.04-.03-.32.21-.62.55ZM8.77 13.97c.45.02.81-.02.81-.08s-.36-.12-.8-.13c-.45-.01-.82.02-.82.08s.36.12.8.13Z" fill="#3E4095"/></svg>