<!-- by TradingView --><svg xmlns="http://www.w3.org/2000/svg" width="18" height="18" viewBox="0 0 18 18"><path fill="#F0F3FA" d="M0 0h18v18H0z"/><path d="m10.8 8.2.12-1.45c.02-.21.21-.36.42-.33.22.04.36.26.3.47l-.44 1.4a.2.2 0 0 1-.4-.08Zm-1.78-.99 1.19 1.32c.06.06.16.08.23.03.08-.05.1-.15.07-.23l-.76-1.6a.45.45 0 0 0-.63-.19.44.44 0 0 0-.1.67Zm2.76 1.59.84-.54c.17-.1.2-.33.06-.48a.32.32 0 0 0-.45-.01l-.73.69a.22.22 0 0 0 0 .3c.07.08.19.1.28.04Zm-.18.8.87.33c.19.07.4-.02.46-.2a.35.35 0 0 0-.32-.48l-.94-.03a.2.2 0 0 0-.07.38Zm-.1 1.44-.38-.87c-.05-.12 0-.23.12-.27.1-.04.22 0 .29.07l.59.7c.12.15.1.37-.04.5a.36.36 0 0 1-.57-.13Zm-.7.6.07-1.34c0-.1-.07-.2-.17-.23a.22.22 0 0 0-.26.14l-.46 1.26c-.09.25.08.52.35.56.25.03.47-.15.48-.4Zm-.72-1.6-1.2 1.16a.42.42 0 0 1-.57.02.41.41 0 0 1 .06-.66l1.45-.86a.22.22 0 0 1 .26.03c.09.08.09.22 0 .3Zm-1.8-1.71 1.54.49a.31.31 0 0 1-.1.6L8.1 9.37a.54.54 0 1 1 .18-1.04Z" fill="#9E9E9F"/><path d="M7.6 5.7c-.48-.47-.58-1.14-.23-1.49.36-.35 1.03-.25 1.5.22.49.47.58 1.14.23 1.5-.35.34-1.03.24-1.5-.23Zm5.76 2.24c.25 0 .45-.25.45-.57 0-.32-.2-.58-.45-.58s-.46.26-.46.58c0 .32.2.57.46.57Zm.03 2.41c.24.07.5-.13.58-.44.09-.3-.04-.6-.28-.67-.24-.06-.5.14-.59.44-.08.3.05.61.29.67Zm-.5 1.88c-.2.29-.54.4-.77.26-.22-.15-.25-.5-.06-.8.2-.3.53-.4.76-.26.23.15.26.5.07.8Zm-3.3 1.68c.3.2.75.05 1-.33s.21-.85-.09-1.05c-.3-.19-.74-.04-1 .34-.25.38-.21.85.09 1.04Zm-2.53-.78c-.59.23-1.2.04-1.38-.4-.17-.45.17-1 .76-1.22.6-.22 1.2-.04 1.38.4.17.46-.17 1-.76 1.22ZM4.01 8.16c-.07.6.53 1.16 1.34 1.25.81.1 1.53-.31 1.6-.91.07-.6-.54-1.16-1.35-1.25-.81-.1-1.52.31-1.6.91Zm7.24-3.58c-.3.16-.37.62-.15 1.02s.64.6.95.44c.3-.16.36-.62.14-1.02-.21-.4-.64-.6-.94-.44Z" fill="url(#a5mf2iuk4)"/><defs><linearGradient id="a5mf2iuk4" x1="4" y1="8.51" x2="14" y2="9.81" gradientUnits="userSpaceOnUse"><stop stop-color="#95C85E"/><stop offset="1" stop-color="#3F9B43"/></linearGradient></defs></svg>