<!-- by TradingView --><svg width="18" height="18" viewBox="0 0 18 18" xmlns="http://www.w3.org/2000/svg"><path fill="#F0F3FA" d="M0 0h18v18H0z"/><path d="M7.32 4.34c-.15.14-.27.3-.37.46a1555 1555 0 0 0-2.96 4.94 1.94 1.94 0 0 0-.18.48.02.02 0 0 1-.02 0c-.17-.1-.33-.22-.47-.35a.93.93 0 0 1-.23-.34c-.06-.15-.09-.3-.09-.41 0-.24.06-.48.18-.7.14-.28.36-.61.48-.82L5.4 4.7c.18-.31.45-.54.8-.63.16-.04.38-.04.57-.05L7 4a3130.42 3130.42 0 0 1 .92.02l-.02.01-.33.12a.95.95 0 0 0-.25.2Z" fill="#36B061"/><path d="m10.75 4.05-.45.12c-.11.03-.24.1-.38.2-.1.08-.2.2-.3.37-.19.27-.4.66-.52.85L7.98 7.44a315.45 315.45 0 0 1-1.75 2.86.82.82 0 0 1-.23.03 74.41 74.41 0 0 1-1.35-.02v-.01A303.19 303.19 0 0 0 7.82 5c.16-.27.34-.52.56-.74a.8.8 0 0 1 .31-.17c.2-.06.48-.1.83-.1a61.62 61.62 0 0 1 1.23.03c.03 0 .03.01 0 .02Z" fill="#33AD6F"/><path d="M8.82 8.58v.01a47.43 47.43 0 0 0 .74.03.03.03 0 0 1 0 .02 73.98 73.98 0 0 1-.96 1.9h-.02v-.04a.53.53 0 0 0 .03-.14c0-.28.03-.6.04-.83A13.05 13.05 0 0 0 8.64 9H7.94c-.05 0-.07-.03-.04-.07a774.7 774.7 0 0 0 1.18-2c.01-.02.03-.03.05-.03a.03.03 0 0 1 .01.01.03.03 0 0 1 0 .02l-.32 1.64Z" fill="#32A986"/><path d="m12.64 4.98 1.5 2.45c.2.32.39.65.57.98.15.26.24.5.28.74.06.42-.13.74-.36 1.1l-.47.75h-.02v-.02l.04-.21a.6.6 0 0 0 .02-.14c0-.3-.12-.62-.28-.89-.36-.58-.7-1.16-1.05-1.75l-.8-1.33-.4-.66c-.21-.37-.43-.73-.65-1.08a1.87 1.87 0 0 0-.38-.45l.01-.01.35-.13c.32-.14.67-.13 1.03.02.19.08.34.2.45.37l.16.26Zm-.94 5.33c.37-.27.74-.52 1.14-.74a6335.13 6335.13 0 0 1-2.61-4.38c-.03-.01-.05 0-.07.02l-.73 1.22a.09.09 0 0 0 0 .1l2.27 3.78Zm1.69.2-.55-.94c-.4.22-.77.47-1.14.74l.59.97a7.18 7.18 0 0 1 .45.73c.15.3.25.52.2.81l-.13.45v.04h.03l.26-.38c.12-.17.24-.37.36-.6.1-.16.17-.35.24-.56a.85.85 0 0 0 .03-.47 3.4 3.4 0 0 0-.34-.78Z" fill="url(#a)"/><path d="M5.18 10.73c-.61.02-1.2.05-1.67-.42a1.33 1.33 0 0 1-.21-.26h-.01l-.02.01v.03l.14.3c.1.2.26.45.47.78.15.22.34.43.57.63a.6.6 0 0 0 .23.14l.35.06h6.94a26.58 26.58 0 0 1-.7-1.2c-.05-.07-.08-.1-.17-.1a843.71 843.71 0 0 1-5.92.03ZM5 12.49a.8.8 0 0 1-.15-.1l-.16-.15c-.03-.03-.05-.02-.04.02l.04.13c.11.28.24.53.4.76.16.25.35.46.57.62.11.08.25.14.42.19.1.03.26.04.46.04h4.43c.21 0 .37-.02.48-.05a1.17 1.17 0 0 0 .83-.83 1.47 1.47 0 0 0 .06-.54.02.02 0 0 0-.02 0c-.26.09-.54.09-.8.09H5.83c-.29 0-.6-.05-.85-.18Z" fill="url(#b)"/><defs><linearGradient id="a" x1="12.21" y1="4.23" x2="12.21" y2="13.32" gradientUnits="userSpaceOnUse"><stop stop-color="#37AC77"/><stop offset="1" stop-color="#26AAA7"/></linearGradient><linearGradient id="b" x1="4.67" y1="10.79" x2="11.35" y2="13.82" gradientUnits="userSpaceOnUse"><stop stop-color="#33AC83"/><stop offset="1" stop-color="#25A9B5"/></linearGradient></defs></svg>