<!-- by TradingView --><svg width="18" height="18" viewBox="0 0 18 18" xmlns="http://www.w3.org/2000/svg"><path fill="#F0F3FA" d="M0 0h18v18H0z"/><path d="M12.28 5.35c-.5.17-.8.45-1.2.7.66-.78.81-.43 1.06-1-.54.17-1.26.74-1.64 1.03-.52.4-.88.9-1.46 1.21-.18-.13-.4-.39-.59-.55C7.78 6.16 7.1 5.2 6.4 5c-.2.38-.4.59-.58 1.07.63.79 1.35 1.76 2.24 2.27-.12.29-1.62 1.77-2 2.16-.84.9-1.53 1.42-.62 2.5.5-.29 3.12-3.24 3.65-3.55l1.31 1.42c.42.36 1.02 1.28 1.6.88.2-.2.12-.27-.06-.7.14.04.4.1.43.08-.51-.68-1.17-1.87-2.17-2.54.2-.8 1.92-1.84 2.7-2.75l-.28.1c.16-.18.48-.3.37-.55-.11-.25-.47-.25-.7-.04Z" fill="#00AEEF"/></svg>