<!-- by TradingView --><svg width="18" height="18" viewBox="0 0 18 18" xmlns="http://www.w3.org/2000/svg"><path fill="#F0F3FA" d="M0 0h18v18H0z"/><path d="M8.02 13.9c2.77 0 5.02-2.19 5.02-4.9 0-2.71-2.25-4.9-5.02-4.9-1.62 0-3.06.74-3.97 1.9h3.28v1h-3.9a4.8 4.8 0 0 0-.33 1h3.97v.65H3.01a4.87 4.87 0 0 0 0 .68h4.06V10H3.1c.08.35.19.68.33 1h3.9v1H4.06a5.05 5.05 0 0 0 3.97 1.9Z" fill="#1F2E60"/><circle cx="10" cy="9" fill="url(#a3w323fzw)" r="5"/><g opacity=".8"><ellipse cx="8.06" cy="6.66" rx="1.02" ry="1.01" fill="#89D4F3"/><ellipse cx="7.91" cy="6.51" rx=".88" ry=".87" fill="#A2D9F2"/><circle cx="7.64" cy="6.24" fill="#B8DEF0" r=".6"/></g><path d="M12 7.62h-.23c0-.48-.5-1.3-1.23-1.3-.74 0-1.94.64-1.94 2.7s1.32 2.62 1.8 2.62c.4 0 .56-.2.6-.3V9.47l-.72-.23V9h2.2v.25l-.48.23v1.85l.25.31c-.47.12-1.5.36-1.8.36-.37 0-2.96-.03-2.96-2.88C7.49 6.28 9.84 6 10.54 6c.56 0 1.22.13 1.46.2v1.42Z" fill="#DBCD4A"/><defs><linearGradient id="a3w323fzw" x1="6.2" y1="6.12" x2="12.13" y2="12.39" gradientUnits="userSpaceOnUse"><stop stop-color="#228DC8"/><stop offset=".14" stop-color="#53B7E5"/><stop offset="1" stop-color="#0976B8"/></linearGradient></defs></svg>