<!-- by TradingView --><svg width="18" height="18" viewBox="0 0 18 18" fill="none" xmlns="http://www.w3.org/2000/svg">
<rect width="18" height="18" fill="#F0F3FA"/>
<path d="M14 4V7.14383L10.895 4H14ZM13.9297 9.08038L14 9.09641V7.85052L10.2713 4H4V14H7.37627C6.57798 13.8258 6.14286 13.1735 6.14286 12.3892C6.14286 11.4694 6.73984 10.7857 7.57855 10.7857C8.55104 10.7857 9 11.4987 9 12.3892V12.5714H6.89785C6.96966 13.0264 7.29426 13.3283 7.76292 13.3283C8.13865 13.3283 8.49064 13.2113 8.80818 12.9822L9 12.8408V13.6255C8.74202 13.7953 8.43631 13.9432 8.12906 14H10.38C9.76322 13.8093 9.71429 13.3703 9.71429 12.804V11.5H9V11.2856L10.4286 9.88178V10.7857H11.5V11.5H10.4286V12.9516C10.4286 13.3193 10.6864 13.3693 10.8451 13.3693C11.1543 13.3693 11.337 13.2383 11.5 13.0567V13.7976C11.4346 13.873 11.3786 13.9573 11.2148 14H12.2895V11.5H12V10.7857H12.2895V10.6506C12.2895 10.1142 12.3532 9.705 12.5851 9.433C12.8221 9.15581 13.1112 9 13.4455 9C13.5833 9 13.7463 9.03748 13.9297 9.08038ZM13.8594 9.76745C13.2717 9.55495 13.0038 10.1532 13.0038 10.6445V10.7805L13.718 10.7857V11.5L13.0038 11.4948V13.9948L14 14V9.8193L13.8594 9.76745ZM7.57855 11.5C7.23286 11.5 7.02026 11.6843 6.92532 12H8.1773C8.11644 11.6798 7.91947 11.5 7.57855 11.5Z" fill="#2E953E"/>
</svg>
