<!-- by TradingView --><svg width="18" height="18" viewBox="0 0 18 18" xmlns="http://www.w3.org/2000/svg"><path fill="#F0F3FA" d="M0 0h18v18H0z"/><path d="M9 15A6 6 0 1 0 9 3a6 6 0 0 0 0 12Zm5-6a5 5 0 0 1-3.77 4.85l-.6-1.36c2.4-.77 2.94-2.6 2.91-3.41L9 11.38l-3.68-2.3c0 2.15 2.03 3.17 3.05 3.4L8 13.85v.06a5 5 0 0 1-3.7-6.63l4.7 3.1 4.75-2.93A5 5 0 0 1 14 9Zm-5 .81-4.5-3a5 5 0 0 1 8.63-.63h-1.74a3.07 3.07 0 0 0-2.33-1.06c-1.69 0-2.74.94-3.06 1.44l3.06 2.06 1.46-1.03H8V7h5.35v.1L9 9.81Z" fill="#D24607"/></svg>