<!-- by TradingView --><svg width="18" height="18" viewBox="0 0 18 18" xmlns="http://www.w3.org/2000/svg"><path fill="#F0F3FA" d="M0 0h18v18H0z"/><path fill-rule="evenodd" d="M14 4H4v10h10V4Zm-3 7v2h2v-.34h-1.47v-.57h1.32v-.34h-1.32v-.41H13V11h-2Zm-3 2v-2h.63L9 12.36 9.37 11H10v2h-.39v-1.57L9.21 13H8.8l-.41-1.57V13H8Zm-2-1v.25h.56v.25a.9.9 0 0 1-.5.17c-.4 0-.62-.31-.62-.7 0-.37.24-.64.62-.64.21 0 .42.1.48.31l.43-.07c-.1-.43-.51-.57-.9-.57-.6 0-1.07.38-1.07 1s.48 1 1.09 1c.3 0 .67-.1.91-.3V12H6Z" fill="#16198A"/></svg>