<!-- by TradingView --><svg width="18" height="18" viewBox="0 0 18 18" xmlns="http://www.w3.org/2000/svg"><path fill="#F0F3FA" d="M0 0h18v18H0z"/><path fill-rule="evenodd" d="M9 13c3.87 0 7-1.8 7-4s-3.13-4-7-4-7 1.8-7 4 3.13 4 7 4Zm0-.5c3.59 0 6.5-1.57 6.5-3.5S12.59 5.5 9 5.5 2.5 7.07 2.5 9s2.91 3.5 6.5 3.5Z" fill="#F18322"/><path fill-rule="evenodd" d="M13.87 10.76C14.58 10.26 15 9.66 15 9c0-1.66-2.69-3-6-3S3 7.34 3 9s2.69 3 6 3c1.78 0 3.37-.39 4.47-1H11v-.2h.35V7.53c0-.15-.05-.33-.19-.33H11V7h1.67v.2h-.25c-.13 0-.18.18-.18.33v3.07c0 .06 0 .12.06.12h.95c.14-.1.46-.6.6-1.32H14l-.13 1.36ZM6.82 8.33H7V7h-.18v.4C6.7 7.28 6.42 7 5.8 7 5 7 4 7.41 4 9.04 4 10.67 5.4 11 5.79 11c.39 0 .89-.11 1.21-.43V9.41h.45V9.2H5.9v.21h.52v1.16c-.06.05-.32.15-.63.15-.39 0-.93-.38-.93-1.68 0-1.3.52-1.78 1-1.78s.87.31.96 1.07Zm3.56-.02h.23V7h-.17v.44C10.34 7.3 9.9 7 9.28 7 8.5 7 7.6 7.57 7.6 9.11c0 1.55 1.11 1.89 1.67 1.89.56 0 .89-.12 1.33-.66v-.5c-.14.28-.56.84-1.18.84-.76 0-.99-.84-.99-1.72 0-.8.3-1.64 1-1.64.68 0 .94.58.94 1Z" fill="#231F20"/></svg>