<!-- by TradingView --><svg width="18" height="18" viewBox="0 0 18 18" xmlns="http://www.w3.org/2000/svg"><path fill="#F0F3FA" d="M0 0h18v18H0z"/><path fill="url(#a)" d="M5 3h8v9H5z"/><circle cx="8" cy="8" r="3" fill="#FEF692"/><path d="M10.02 10.35v-.02l.02-.16c0-.45-.01-.87.02-1.3.02-.19.17-.28.35-.2.07.05.1.1.09.19-.03.13-.04.25-.04.36a170.79 170.79 0 0 1 0 1.08c.04.1-.21.4-.44.05ZM10.67 7.07v.21c-.04.33-.06.69-.09 1.08v.08c-.03.1-.17.1-.26.1-.15 0-.16-.1-.15-.23l.06-1 .08-.6c.02-.11.09-.14.19-.2h.02c.1 0 .26.09.25.2l-.01.03c0 .1-.09.27-.09.33ZM8.75 6.83l.19.1c0 .02.02.03.03.04v.04l-.13.82-.02.04-.04.02-.27.07a.08.08 0 0 1-.07-.01.07.07 0 0 1-.02-.07l.22-1a.07.07 0 0 1 .04-.05.08.08 0 0 1 .07 0ZM8.72 9.86l-.11-.64-.15-.78c-.02-.11 0-.21.08-.31.05-.07.1-.1.16-.1.08.01.1.08.12.14.13.43.22.87.29 1.32.01.12.03.26-.11.31a2.06 2.06 0 0 0-.23.1.05.05 0 0 1-.04-.02l-.01-.02ZM9.72 10.42c-.04.07-.13.08-.22.09-.11.02-.14-.09-.14-.18a83.64 83.64 0 0 0-.03-1.35c0-.07-.05-.22.03-.27.21-.1.4-.03.41.21.03.4.03.8.01 1.22 0 .11-.02.18-.06.28ZM9.22 10.95c-.03.04-.13.04-.22.05-.11 0-.14-.05-.14-.1a25.47 25.47 0 0 0-.03-.75c-.01-.04-.05-.13.03-.15.22-.06.4-.02.42.11.03.23.03.45.01.68 0 .07-.02.1-.07.16Z" fill="#16371E"/><path d="M11.95 3.12a.38.38 0 0 0-.08-.1h-.14L10.47 3c-.86-.01-1.73-.02-2.6 0a4.86 4.86 0 0 0-.1.17 230.13 230.13 0 0 1-1.1 1.08v.02h.01l.02.01c.01 0 .04 0 .06-.03.4-.32.78-.65 1.15-1 .07-.06.2-.13.29-.13a.04.04 0 0 1 .03 0 .04.04 0 0 1 0 .04c0 .06-.03.11-.06.16a19.22 19.22 0 0 0-.84 2.06l-.04.1a.7.7 0 0 0-.05.14c-.18.23.05.16.16-.04.02-.02.02-.06.02-.1l.01-.03a113.38 113.38 0 0 0 .5-1.11 12.4 12.4 0 0 1 .56-1.1c.06-.05.11-.03.15.08.08.24.14.56.01.78a6.4 6.4 0 0 0-.56 1.22l-.17.44-.25.66c0 .03 0 .03.04.02l.02-.01c.46-.78.65-1.2.98-2.11a.1.1 0 0 1 .08-.06h.13c.07-.03.15-.06.19.01.05.1-.01.14-.1.18L9 4.47c-.07.03-.1.05-.15.12-.05.09 0 .3.04.4.01.04 0 .1-.01.15-.04.1-.06.2-.08.3-.01.06-.04.1-.06.16l-.02.04c0 .07-.06.22-.12.36l-.1.28-.27 1.11c-.05.25-.1.5-.17.74a3.03 3.03 0 0 0-.07.54.02.02 0 0 0 .02 0c.03 0 .05-.02.06-.05.07-.14.1-.27.13-.37l.04-.23c.05-.12.07-.25.1-.37.07-.34.2-.67.29-1l.06-.2c.01-.04.02-.04.02 0v.01c.02.09.03.2.13.23.09.02.16 0 .22-.05.02-.02.07.34.07.38.05.51.1.98.12 1.4.01.2.27.16.39.09l.01-.03.02-.1-.07-1.08a3.23 3.23 0 0 0-.1-.63c-.03-.09-.1-.13-.2-.12a.45.45 0 0 0-.22.06v-.02l.02-.12c0-.02.02-.04.05-.04l.15-.04c.23-.06.17-.29.12-.46l-.03-.14v-.1a.5.5 0 0 0-.02-.1.47.47 0 0 1-.02-.22l.06-.4c0-.08 0-.18-.02-.31a.45.45 0 0 1 .07-.29.03.03 0 0 1 .02-.01c.05 0 .08.02.08.07-.01.3.04.63.08.92.1.76.04-.28.14.9l.02.2a15.53 15.53 0 0 1 0 .92c.01.13.02.25 0 .38a.7.7 0 0 0 .01.15c0 .02.02.03.05.03h.01c.03-.01.04-.02.03-.05v-.02l-.02-.09c0-.04-.02-.72.1-.57l.02.66v.02c.02.02.06.02.07 0v-.02c.02-.3.02-.58 0-.87-.02-.17 0-.37-.02-.52-.05-.39.05-.26.07-.5a27.44 27.44 0 0 0 .22-1.63 231.36 231.36 0 0 1 .23.56c.04.07.02.19 0 .28a5.8 5.8 0 0 0-.15.81c-.09.33-.07.51.04.46.06-.03.12-.09.19-.01.04 0 .08-.01.1-.06.03-.06.04-.13.04-.2.01-.1.02-.2.1-.24h.02c.06.04.1.09.12.15l.2.69.1.4c.03.22.07.45.26.92l.07.16.05.23c0 .04.02.08.04.1.03.03.04.03.04-.01 0-.1-.02-.19-.03-.28l-.02-.12a34.66 34.66 0 0 0-.42-1.86 11.6 11.6 0 0 1-.38-1.22.35.35 0 0 1 0-.16c.04-.11.1-.35-.03-.42l-.05-.02c-.07-.04-.14-.08-.17-.13-.02-.04 0-.1.05-.12.05-.02.1-.01.14.02a.06.06 0 0 0 .08 0c.09-.06.13.03.15.1a37.91 37.91 0 0 0 .93 2.05c.04.03.06.02.05-.03a2.73 2.73 0 0 0-.13-.42 99.4 99.4 0 0 1-.42-1.07c-.12-.29-.28-.6-.4-.81-.1-.22-.04-.57.03-.8.02-.07.06-.08.12-.05l.02.02a75.81 75.81 0 0 1 .68 1.38 12.42 12.42 0 0 0 .35.77 8.47 8.47 0 0 1 .18.42c.03.04.05.03.04-.02l-.03-.17a23.64 23.64 0 0 0-.58-1.58 11.81 11.81 0 0 0-.4-.9l.02-.02a.03.03 0 0 1 .02 0c.08 0 .16.04.21.09.42.34.78.66 1.08.95l.1.04a.02.02 0 0 0 .03-.01V4.2a.12.12 0 0 0-.04-.1 22.2 22.2 0 0 0-.68-.65l-.2-.2a2.43 2.43 0 0 1-.08-.07l-.05-.06Zm-2 1.57a5.03 5.03 0 0 1-.04.34 4.5 4.5 0 0 1-.05-.5 14.32 14.32 0 0 0-.08-1c0-.1.02-.2.08-.31.01-.03.03-.04.04-.04.03 0 .06 0 .07.03.06.14.09.29.08.43l-.07.7-.03.35Zm.54-1.37c.02.01.03.04.04.06.11.21.18.41.2.62 0 .05-.01.1-.07.08-.05 0-.06-.03-.07-.06V4a8.94 8.94 0 0 1-.14-.27.56.56 0 0 1-.04-.39.05.05 0 0 1 .04-.03.05.05 0 0 1 .04.01Z" fill="#16371E"/><path fill="#CCD282" d="M5 13h8v2H5z"/><path d="M5.33 13.5h7.34v1H5.33v-1Z" fill="#143D27" fill-opacity=".5"/><path fill="#16371E" fill-opacity=".5" d="M5 12h8v1H5z"/><defs><linearGradient id="a" x1="9" y1="3" x2="9" y2="12" gradientUnits="userSpaceOnUse"><stop offset=".63" stop-color="#5C6D52"/><stop offset=".91" stop-color="#C9CC81"/></linearGradient></defs></svg>