<!-- by TradingView --><svg width="18" height="18" viewBox="0 0 18 18" xmlns="http://www.w3.org/2000/svg"><path fill="#F0F3FA" d="M0 0h18v18H0z"/><path fill-rule="evenodd" d="M4 7a3 3 0 0 0 2.97 3l.48-.77A2.28 2.28 0 0 1 4.73 7a2.27 2.27 0 0 1 4.1-1.35l.54-.5A3 3 0 0 0 4 7Zm4.94.63H6V7h4l-3.5 6-.5-.33 2.94-5.04Zm3.25 3.26-.19.01c-1.1 0-2-.87-2-1.95S10.9 7 12 7s2 .87 2 1.95c0 .49-.18.93-.48 1.27L11.29 13l-.5-.36 1.4-1.75Zm1.18-1.94c0 .74-.61 1.34-1.37 1.34-.76 0-1.37-.6-1.37-1.34 0-.74.61-1.34 1.37-1.34.76 0 1.37.6 1.37 1.34Z" fill="url(#a)"/><defs><linearGradient id="a" x1="9" y1="4" x2="9" y2="13.38" gradientUnits="userSpaceOnUse"><stop stop-color="#E0C278"/><stop offset="1" stop-color="#C3A058"/></linearGradient></defs></svg>