<!-- by TradingView --><svg width="18" height="18" viewBox="0 0 18 18" xmlns="http://www.w3.org/2000/svg"><path fill="#F0F3FA" d="M0 0h18v18H0z"/><path fill-rule="evenodd" d="M9 14A5 5 0 1 0 9 4a5 5 0 0 0 0 10Zm0-1a4 4 0 1 0 0-8 4 4 0 0 0 0 8Z"/><path d="M9 13a4 4 0 0 0 3.64-5.65l-2.16-1L9.2 8.6l-1.68-.93-2.24 2.81A4 4 0 0 0 9 13Z"/><path fill-rule="evenodd" d="M13.68 9a4.68 4.68 0 1 1-9.36 0 4.68 4.68 0 0 1 9.36 0ZM13 9a4 4 0 0 1-4.76 3.93l1.88-3.52-.96-.27 1.44-2.3 2.2.9c.13.4.2.82.2 1.26Zm-.58-2.07L10.56 6 9.2 8.33 8.52 8v-.23L7.31 7.5l-2.1 2.8a4 4 0 0 1 7.21-3.36Zm-6.92 4a4 4 0 0 0 2.7 2L8.55 10l-.98-.33.64-1.34-.46-.17-2.24 2.78Z" fill="url(#abxzk5wcp)"/><defs><linearGradient id="abxzk5wcp" x1="11.92" y1="5.35" x2="6.18" y2="12.78" gradientUnits="userSpaceOnUse"><stop offset=".25" stop-color="#C6913F"/><stop offset=".43" stop-color="#F3ED78"/><stop offset=".6" stop-color="#AB672F"/><stop offset=".85" stop-color="#DEBE5F"/><stop offset="1" stop-color="#C18A3D"/></linearGradient></defs></svg>