<!-- by TradingView --><svg width="18" height="18" viewBox="0 0 18 18" xmlns="http://www.w3.org/2000/svg"><path fill="#F0F3FA" d="M0 0h18v18H0z"/><path d="M10.09 13.56a4.47 4.47 0 0 0 4.12-4.44 4.48 4.48 0 0 0-2.3-3.9c-.1-.03-.25-.03-.46.02h-.03a3.05 3.05 0 0 1-.83.08l.14-.07c.12-.07.22-.12.3-.14.18-.07.38-.07.58 0 .06.01.06 0 0-.02a.58.58 0 0 0-.79-.25h-.12a.37.37 0 0 0-.13.04 2.6 2.6 0 0 1-.42.15 13.4 13.4 0 0 0-.37.07c.1-.11.18-.2.25-.24.1-.06.2-.1.33-.1.08 0 .17.02.26.04.07.03.15.03.24.02.02 0 .02 0 0-.02h-.01s-.02 0-.02-.02a.29.29 0 0 0-.12-.09.94.94 0 0 1-.55-.48 4.23 4.23 0 0 0-.09-.2l.04.02c.22.13.37.24.44.35l.14.22c.02.04.06.08.1.12.06.05.1.07.14.08a4.73 4.73 0 0 1 2.55 1.78l-.02-.06-.13-.32a4.86 4.86 0 0 1-.34-.72 1.18 1.18 0 0 0-.23-.4v-.02h.01c.4.22.6.58.64 1.09 0 .13.03.25.06.34l.04.13c0 .04.02.09.05.13a4.48 4.48 0 0 1 .66 3.2 6.65 6.65 0 0 0 .28-.6c.06-.42.1-.86.13-1.31 0-.14 0-.26-.02-.38 0-.03 0-.03.01 0 .07.11.14.24.2.38.16.42.1.83-.18 1.24l-.02.02-.01.02a2.5 2.5 0 0 0-.2.33l-.17.29a.36.36 0 0 0-.07.12 4.65 4.65 0 0 1-.3.96l.17-.13c.08-.06.17-.16.26-.3.13-.2.3-.42.47-.65a1.48 1.48 0 0 0 .2-.34c.02-.02.02-.01.02 0 .02.15.01.29-.02.42a.96.96 0 0 1-.27.5c-.13.14-.3.24-.49.31a1.12 1.12 0 0 0-.33.21.24.24 0 0 0-.07.09c-.23.47-.53.9-.92 1.27v.01h.01a12.47 12.47 0 0 1 .43-.29c.29-.27.6-.5.93-.71.16-.1.28-.2.38-.31a2.1 2.1 0 0 1-.15.38c-.17.3-.46.5-.85.62l-.3.09a1.4 1.4 0 0 0-.39.2 1.82 1.82 0 0 0-.27.2l-.33.27a4.57 4.57 0 0 1-2.6.82c-.02 0-.03-.01-.03-.03v-.03c0-.02.01-.03.03-.03a.69.69 0 0 0 .33-.04c.16-.06.26-.12.31-.17.09-.07.18-.16.27-.27l.61-.77c.08-.1.14-.2.2-.31.01-.04.02-.03.02 0l-.05.34c-.1.53-.43.88-1 1.06a3.45 3.45 0 0 0-.35.13ZM3.8 9.97v-.02a4.5 4.5 0 0 1 .65-3.22.34.34 0 0 0 .04-.1l.03-.11.05-.17.04-.3c0-.1.03-.2.07-.33.08-.28.26-.5.54-.65.03-.02.03-.01 0 .02a1 1 0 0 0-.17.3c-.11.31-.25.6-.4.86-.03.04-.05.1-.08.2l-.04.1c-.04.11-.03.12.04.02a4.5 4.5 0 0 1 2.5-1.76c.1-.03.18-.1.25-.22.12-.21.25-.37.4-.46a10.42 10.42 0 0 1 .22-.11l-.09.17c-.11.23-.3.4-.53.5a.54.54 0 0 0-.18.12v.01a.6.6 0 0 0 .22 0c.28-.08.5-.06.65.07l.21.21c.02.01.01.02 0 .01h-.04a2.86 2.86 0 0 1-.76-.22 9.34 9.34 0 0 0-.31-.04.58.58 0 0 0-.22.03 9.25 9.25 0 0 0-.55.22v.01h.02a.96.96 0 0 1 .77.06 22.28 22.28 0 0 1 .27.17 5.2 5.2 0 0 0-.52-.04 4.99 4.99 0 0 1-.54-.1.36.36 0 0 0-.24.04 4.48 4.48 0 0 0-1.17 6.88 4.37 4.37 0 0 0 2.98 1.44 6.7 6.7 0 0 0-.34-.12l-.33-.14c-.38-.21-.6-.52-.68-.94a3.95 3.95 0 0 1-.03-.35l.03.07.03.06.14.2a33.55 33.55 0 0 0 .88 1.05 1.2 1.2 0 0 0 .38.18c.05.02.14.03.27.02.01 0 .02 0 .02.02v.05c0 .01 0 .02-.02.02h-.11a4.53 4.53 0 0 1-4.02-2.64l-.16-.11a1 1 0 0 0-.22-.11 1.47 1.47 0 0 1-.15-.07A1.08 1.08 0 0 1 3 9.61c.01-.03.02-.03.03 0 .04.1.1.2.17.3a8.4 8.4 0 0 1 .63.86 1.23 1.23 0 0 0 .28.24c.02.02.03.02.02-.02a4.5 4.5 0 0 1-.33-1.02Z"/><path d="M3.8 9.97a6.75 6.75 0 0 1-.15-.24 3.08 3.08 0 0 0-.23-.37c-.34-.45-.41-.9-.22-1.34a4.13 4.13 0 0 1 .2-.36c-.03.18-.03.37-.01.57l.08.92c.02.17.06.3.1.41l.23.4ZM6.3 4.37c-.13.16-.21.3-.26.41l-.1.33a.7.7 0 0 1-.15.23l-.01.02.1-.1.12-.13c.14-.12.25-.25.3-.4.06-.12.1-.29.1-.48 0-.02-.01-.02-.02 0l-.03.05a.6.6 0 0 1-.05.07ZM12.05 5.06c.02.09.09.2.19.31h-.01a1.23 1.23 0 0 1-.12-.12 1.33 1.33 0 0 0-.15-.16 1.03 1.03 0 0 1-.36-.84 3.45 3.45 0 0 0 .2.25c.1.13.18.31.25.56ZM7.21 4.8a3 3 0 0 1 .92-.11c.16.04.31.06.46.05a5.23 5.23 0 0 1 .3-.02 2.64 2.64 0 0 0-.18-.12c-.16-.1-.37-.1-.61.02a.42.42 0 0 1-.15.03 3.65 3.65 0 0 0-.75.13l.01.01ZM10.04 4.65a4.33 4.33 0 0 1 .76.13v.01a4.03 4.03 0 0 0-.91-.1c-.2.04-.37.06-.52.05H9.1a3.85 3.85 0 0 1 .16-.13c.18-.12.38-.11.62 0 .05.02.1.04.15.04ZM4.65 6.59c.16-.21.3-.35.42-.4.07-.04.14-.08.22-.1a252.23 252.23 0 0 0 1.03-.4 3.78 3.78 0 0 0-.25-.02c-.36-.02-.67.1-.92.35a3.56 3.56 0 0 0-.27.28 1.8 1.8 0 0 0-.23.29ZM12.78 6.11a89.42 89.42 0 0 0-1.12-.41l.23-.02c.41-.04.77.1 1.06.44l.16.17a2.18 2.18 0 0 1 .23.3c-.1-.15-.2-.26-.31-.35a.9.9 0 0 0-.25-.13ZM8.52 8.22a4.36 4.36 0 0 1 .97-1.13l.03.01.05.07v.04a6.18 6.18 0 0 0-1 1.1l-.04-.04c-.02-.01-.02-.03-.01-.05ZM10.67 7.65a1.2 1.2 0 0 0-.24-.5l.01-.03.06-.03.04.01c.07.16.13.33.17.5v.05h-.04Z"/><path fill-rule="evenodd" d="M10.1 9.05c.02-.05 0-.05-.02-.01-.14.17-.29.32-.46.44a.67.67 0 0 1-.43.12.32.32 0 0 1-.18-.06.44.44 0 0 1-.12-.16 1.06 1.06 0 0 1-.1-.56l-.01-.02c-.3 0-.54-.16-.73-.48a1.35 1.35 0 0 1-.08-1.03c.1-.27.29-.49.59-.64a.55.55 0 0 1 .23-.06h.22c.3 0 .57.2.81.58h.03c.3-.2.54-.33.75-.39a.62.62 0 0 1 .35-.01c.12.04.18.12.19.26.02.33-.14.64-.48.95-.26.23-.53.43-.8.57a2.84 2.84 0 0 1-.75.27v.07c-.02.21-.02.37.02.48.01.05.05.1.1.11.02.01.07.02.14.01.13 0 .31-.13.53-.39.16-.18.31-.36.45-.56a1.1 1.1 0 0 1 .16-.17h.03c.02 0 .03.02.02.04a14.04 14.04 0 0 0-.6 1.72c-.05.13-.13.3-.26.52-.32.52-.72.84-1.2.97-.11.03-.28.04-.5.03a.8.8 0 0 1-.59-.29 1.26 1.26 0 0 1-.3-1c.04-.5.3-.86.76-1.07.1-.05.25-.06.47-.05.15.01.29.08.4.2.1.11.18.25.24.42l.03.18c.01.4-.16.71-.52.91a.48.48 0 0 1-.21.07c-.27.01-.46-.03-.58-.15v-.02l.01-.02h.03c.2.09.38.12.57.1a.55.55 0 0 0 .41-.27c.09-.14.14-.27.17-.39.02-.14 0-.3-.06-.46a.45.45 0 0 0-.26-.28.95.95 0 0 0-.4-.04c-.32.03-.6.25-.85.68a.49.49 0 0 0-.06.17 4.2 4.2 0 0 0-.03.24c-.04.43.15.74.57.92.05.02.11.04.18.04h.35c.27-.05.55-.25.82-.61.32-.43.64-1.06.95-1.88ZM8.83 8.5H8.73c-.36-.1-.59-.3-.68-.6a.94.94 0 0 1 .05-.7c.12-.25.27-.4.47-.49.11-.04.28-.06.5-.03.25.02.48.2.7.52l-.01.02c-.17.15-.33.31-.47.48-.11.13-.2.25-.25.37l-.21.43Zm1.28-.64c.02-.01.02-.02.02-.04a1.56 1.56 0 0 0-.2-.49l.01-.02c.17-.15.34-.27.52-.36a.75.75 0 0 1 .47-.1c.1.02.14.09.15.22a.7.7 0 0 1-.14.45c-.48.66-1.06 1-1.75 1l-.01-.02c.1-.37.32-.74.67-1.1h.04c.08.15.15.3.2.45h.02Z"/><path d="M8.3 8.78c.03.01.04.04.03.06l-.08.22c-.01.02-.03.03-.05.02a.04.04 0 0 1-.03-.05l.08-.22c.01-.02.03-.03.05-.03ZM9.05 10.6c.18-.13.33-.3.44-.48a.25.25 0 0 0 .04-.08c0-.02 0-.03-.02-.01-.04.03-.09.07-.14.14l-.14.13c-.12.11-.2.2-.22.3l.01.01h.03ZM9.85 10.77c-.08.37-.18.7-.28 1.01-.15.41-.33.72-.55.92-.08.07-.17.1-.26.06a.47.47 0 0 1-.28-.34c-.02-.1-.03-.26-.02-.46 0-.05.01-.11.04-.18 0-.01 0-.02.02-.03.03 0 .04 0 .03.04-.05.14-.07.29-.06.44 0 .2.07.32.19.37l.1.03.06.01c.06.02.14 0 .23-.1.12-.1.22-.28.32-.52.15-.35.27-.75.37-1.2.03-.1.1-.2.21-.29l.02-.03.04-.22.02-.01h.02a.36.36 0 0 1-.14.4c-.05.04-.07.07-.08.1Z"/><path fill-rule="evenodd" d="M5.99 7.17c.54-.17.84-.5.91-.95L6.94 6c0-.03.02-.06.06-.07l.53-.08a14.07 14.07 0 0 1 3.52.09c.04 0 .06.03.07.07.03.26.08.46.16.6.14.24.4.43.8.57v.01c.01.58 0 1.15-.05 1.7a7.6 7.6 0 0 1-.3 1.59 3.88 3.88 0 0 1-1.18 1.82c-.23.2-.47.38-.74.54l-.75.44a.08.08 0 0 1-.08 0c-.46-.25-.86-.5-1.2-.75a3.95 3.95 0 0 1-1.31-1.66 6.74 6.74 0 0 1-.45-2A16.34 16.34 0 0 1 6 7.16Zm.8-.37c.14-.17.23-.42.26-.74v-.01c.23-.05.51-.1.85-.12a14.11 14.11 0 0 1 3.1.12v.01c.03.3.1.54.24.71.2.23.43.4.71.5a15.33 15.33 0 0 1-.06 1.76c-.04.47-.13.92-.26 1.35-.22.75-.6 1.35-1.14 1.81a9.41 9.41 0 0 1-1.48.97 8.76 8.76 0 0 1-1.46-.98 3.59 3.59 0 0 1-1.06-1.58 6.28 6.28 0 0 1-.27-1.12 14.06 14.06 0 0 1-.12-2.21l.3-.14c.14-.08.27-.2.38-.33Z"/><path d="M13.83 6.63a.75.75 0 0 0-.13-.26c-.03-.04-.02-.05.02-.02l.17.1c.3.2.42.5.35.9l-.03.14c-.03.13-.04.23-.04.3a3.2 3.2 0 0 0 .03.37h-.02a5.12 5.12 0 0 1-.06-.53 6.23 6.23 0 0 1-.29-1ZM3.82 8.05a8 8 0 0 0 0 .1l.04-.34a1.25 1.25 0 0 1 .1-.4l.18-.66c.03-.16.1-.3.17-.4.01-.02 0-.02-.01-.01-.09.04-.17.1-.25.16-.3.24-.37.6-.24 1.07.03.1.03.26 0 .48ZM4.95 6.71a6.35 6.35 0 0 0 .3-.13l-.15.22c-.12.2-.26.36-.41.49a5.76 5.76 0 0 1-.47.39 2.15 2.15 0 0 0-.23.42l-.01-.01c.05-.13.1-.25.17-.35a.96.96 0 0 0 .09-.19c.14-.4.37-.68.7-.84ZM13.69 7.36A1.3 1.3 0 0 0 13 6.7a2.47 2.47 0 0 1-.24-.12 7.54 7.54 0 0 1 .16.27c.16.24.36.45.6.62.13.09.22.16.26.21a1.87 1.87 0 0 1 .24.43c-.04-.13-.1-.25-.17-.36a1.66 1.66 0 0 1-.1-.24l-.06-.14ZM4.51 8c-.37.18-.55.52-.55 1.01a1 1 0 0 1-.02.2 3.31 3.31 0 0 0-.05.44l.06-.37a.72.72 0 0 1 .11-.3c.2-.27.37-.53.54-.79.09-.12.18-.23.29-.3.02-.03.02-.03-.01-.03-.14.04-.26.08-.37.13ZM14.03 9.18a.79.79 0 0 0-.12-.24l-.49-.71a1.34 1.34 0 0 0-.3-.35c-.03-.02-.03-.02 0-.01.43.1.7.3.83.62.06.15.09.28.09.42l.03.38a2.5 2.5 0 0 1 .04.36 3.68 3.68 0 0 0-.08-.47ZM4.14 9.69c.1-.23.27-.42.54-.58.03-.01.04 0 .02.02-.08.1-.14.2-.17.34-.1.3-.18.62-.27.93a.82.82 0 0 0-.04.28 1.77 1.77 0 0 0 .12.5h-.01a1.6 1.6 0 0 1-.13-.43c0-.06-.02-.13-.04-.2a1.24 1.24 0 0 1-.02-.86ZM13.53 9.66l.23.8c.05.18.02.4-.09.7l.01.01a1.56 1.56 0 0 0 .11-.4l.06-.25c.15-.42.1-.78-.13-1.08a1.4 1.4 0 0 0-.39-.32c-.04-.03-.05-.02-.01.02.07.1.14.26.21.52ZM4.98 11.66c0 .1.04.22.12.35a1.17 1.17 0 0 0 .23.3c-.1-.08-.2-.2-.3-.37a1.54 1.54 0 0 0-.12-.19c-.27-.36-.37-.72-.28-1.07.04-.16.12-.31.22-.46.02-.02.02-.02.01.01-.02.1-.02.23 0 .4.06.34.1.68.12 1.03ZM13.14 10.57a9.44 9.44 0 0 0-.1.96c-.01.16-.03.27-.06.34-.07.16-.17.3-.3.42a1.46 1.46 0 0 0 .28-.35l.14-.2.13-.2c.25-.46.22-.9-.08-1.32-.01-.02-.02-.02-.01 0 .02.12.02.24 0 .35ZM3.95 11.91c.17.1.4.2.7.27a8.08 8.08 0 0 1 .45.24 4.86 4.86 0 0 0-.28-.2c-.08-.04-.15-.09-.2-.14-.2-.2-.4-.35-.6-.49l-.42-.28a1.21 1.21 0 0 1-.24-.21 2.77 2.77 0 0 0 .1.28c.1.22.27.4.49.53ZM6.11 12.86a2.4 2.4 0 0 0 .44.32 1.59 1.59 0 0 1-.36-.23l-.22-.16c-.44-.26-.69-.61-.73-1.05l-.02-.33c0-.04 0-.04.02 0l.13.22a7.33 7.33 0 0 1 .65 1.11c.02.04.05.08.1.12ZM12.77 11.62a9.94 9.94 0 0 0 0-.24.95.95 0 0 1-.09.18l-.05.07a8.36 8.36 0 0 0-.67 1.14.77.77 0 0 1-.17.17 2.64 2.64 0 0 1-.33.24c.14-.07.27-.15.39-.26l.2-.14.16-.1c.36-.28.54-.63.56-1.06ZM6.1 13.33a18.8 18.8 0 0 0 .24.07 3.49 3.49 0 0 0-.49-.07 1.94 1.94 0 0 1-1.68-.9 2.11 2.11 0 0 0 .45.22c.43.18.85.38 1.26.59l.22.09ZM11.28 13.46l.6-.1c.1-.02.2-.03.34-.03.52-.02.95-.18 1.27-.5.12-.11.23-.24.34-.39.03-.03.02-.04-.01-.01-.11.08-.27.16-.46.24-.43.18-.85.37-1.28.59a.84.84 0 0 1-.2.07l-.6.12ZM8.12 13.73l-.58.05c-.05 0-.14.03-.28.08-.46.17-.87.18-1.22.05a3.45 3.45 0 0 1-.43-.2c-.05-.02-.05-.03 0-.02l.14.02c.22 0 .44 0 .68-.02.23-.01.54 0 .93.06h.21a4.82 4.82 0 0 1 .55-.02ZM10.25 13.76c.16 0 .32.04.49.1.16.05.31.1.47.12a1.52 1.52 0 0 0 1.01-.18l.2-.1h-.01a4.64 4.64 0 0 0-.2 0h-.64a5.9 5.9 0 0 0-.92.04c-.08.01-.16.02-.24 0a4.93 4.93 0 0 0-.52-.01l.36.03Z"/></svg>