<!-- by TradingView --><svg width="18" height="18" viewBox="0 0 18 18" xmlns="http://www.w3.org/2000/svg"><path fill="url(#adbq1flsu)" d="M0 0h18v18H0z"/><path d="M8.85 5.82c1.02 0 1.96.42 2.1 1.18H13c0-1.18-1.37-3-4.15-3C6.05 4 4 5.93 4 9c0 3.03 2.27 5 5.05 5 1.74 0 2.96-.72 3.95-1.8V8H9v2h2v1.4c-.45.36-1.06.74-1.9.74-1.73 0-2.99-1.33-2.99-3.18 0-1.84 1-3.14 2.74-3.14Z" fill="#fff"/><defs><linearGradient id="adbq1flsu" x1="3.35" y1="3.12" x2="21.9" y2="24.43" gradientUnits="userSpaceOnUse"><stop stop-color="#1A1E21"/><stop offset="1" stop-color="#06060A"/></linearGradient></defs></svg>