<!-- by TradingView --><svg width="18" height="18" viewBox="0 0 18 18" xmlns="http://www.w3.org/2000/svg"><path fill="#F0F3FA" d="M0 0h18v18H0z"/><path d="m5.6 13.05 1.8 1.3h.53L9 15l1.07-.65h.54l1.78-1.3L14 7.22l-2.5-1.95h-.9l.19-1.13L9 3 7.21 4.14l.18 1.13H6.5L4 7.22l1.6 5.83Z" fill="url(#ahoevyko2)"/><path fill-rule="evenodd" d="M10.79 4.14 9 3 7.21 4.14l.18 1.13H6.5L4 7.22l1.6 5.83 1.8 1.3h.53L9 15l1.07-.65h.54l1.78-1.3L14 7.22l-2.5-1.95h-.9l.19-1.13Zm.68 1.2h-.95l.19-1.17L9 3.07l-1.7 1.1.18 1.17h-.95l-2.45 1.9 1.6 5.78 1.74 1.27h.53l1.05.63 1.05-.63h.53l1.75-1.27 1.59-5.78-2.45-1.9Z" fill="#000004"/><path d="M9.36 8.51v-4.7l.89.65-.54 3.73-.35.32Z" fill="#D13610"/><path fill-rule="evenodd" d="m9.36 8.51.35-.32.54-3.73-.9-.65v4.7Zm.07-4.56v4.4l.22-.2.52-3.66-.74-.54Z" fill="#000004"/><path d="m8.64 3.81-.89.49.18 1.46H6.68L4.54 7.38l1.42 5.35 1.61 1.13 1.25-.8V9.8L7.4 9v1.14l.9.48v1.95l-1.43-.81c-.12-.92-.36-2.92-.36-3.57 0-.65.95-1.14 1.43-1.3l.36 1.46.35.33V3.8Z" fill="url(#bhoevyko2)"/><path fill-rule="evenodd" d="m8.29 8.35.35.33V3.8l-.89.49.18 1.46H6.68L4.54 7.38l1.42 5.35 1.61 1.13 1.25-.8V9.8L7.4 9v1.14l.9.48v1.95l-1.43-.81c-.12-.92-.36-2.92-.36-3.57 0-.62.87-1.1 1.36-1.27l.07-.03.36 1.46Zm-.83 1.75.9.48v2.1l-1.57-.88v-.04c-.12-.91-.36-2.92-.36-3.57 0-.35.26-.65.56-.88.3-.23.67-.4.91-.48l.08-.03.37 1.52.22.2v-4.6l-.74.41.18 1.5H6.7L4.6 7.4l1.42 5.3 1.54 1.08 1.18-.76V9.85l-1.29-.73v.98Z" fill="#000004"/><path d="m10.6 5.76-.17 1.13c1 .26 1.13 1.2 1.07 1.62l-.36 3.25-1.43.8v-1.94l.54-.32.18.16-.18.97.36-.97-.18-.32h.18v-.98l-.54.16v-.16l.18-.16c-.14-.13-.06-.6 0-.81-.57.13-.6.92-.54 1.3l-.53.32v3.4l1.25.65 1.6-1.13 1.26-5.35-1.97-1.62h-.71Z" fill="url(#choevyko2)"/><path fill-rule="evenodd" d="m9.71 9.49-.53.32v3.4l1.25.65 1.6-1.13 1.26-5.35-1.97-1.62h-.71l-.18 1.13c1 .26 1.13 1.2 1.07 1.62l-.36 3.25-1.43.8v-1.94l.54-.32.18.16-.18.97.36-.97-.18-.32h.18v-.98l-.54.16v-.16l.18-.16c-.13-.12-.07-.5-.02-.74l.02-.07a.64.64 0 0 0-.08.02c-.5.18-.51.92-.46 1.28Zm.44-1.2c-.17.09-.28.26-.33.47-.07.25-.06.53-.03.72v.04l-.54.33v3.33l1.17.6 1.55-1.09 1.24-5.29-1.92-1.58h-.62l-.16 1.03c.49.14.77.44.92.76.15.33.17.69.14.91l-.36 3.27-1.57.9v-2.1l.62-.38.25.23-.04.19.06-.17-.22-.39h.23v-.82l-.54.16v-.27l.16-.15a.4.4 0 0 1-.05-.13 1.03 1.03 0 0 1 0-.24c0-.11.02-.23.04-.33Z" fill="#141418"/><defs><linearGradient id="ahoevyko2" x1="4.71" y1="9.65" x2="13.46" y2="9.65" gradientUnits="userSpaceOnUse"><stop stop-color="#EAE9EE"/><stop offset=".13" stop-color="#9B91A0"/><stop offset=".3" stop-color="#E9E8ED"/><stop offset=".51" stop-color="#9898A0"/><stop offset=".64" stop-color="#DFDEE3"/><stop offset="1" stop-color="#979692"/></linearGradient><linearGradient id="bhoevyko2" x1="8.64" y1="4.3" x2="6.41" y2="13.01" gradientUnits="userSpaceOnUse"><stop stop-color="#3E3F43"/><stop offset="1" stop-color="#0B0A0E"/></linearGradient><linearGradient id="choevyko2" x1="10.61" y1="6.08" x2="11.2" y2="13.23" gradientUnits="userSpaceOnUse"><stop stop-color="#FFD500"/><stop offset="1" stop-color="#CB6B37"/></linearGradient></defs></svg>