<!-- by TradingView --><svg width="18" height="18" viewBox="0 0 18 18" xmlns="http://www.w3.org/2000/svg"><path fill="#F0F3FA" d="M0 0h18v18H0z"/><path d="M6.35 8.67c-.2.18-.54.4-.92.4-.57 0-.58-.57-.58-.98 0-.42.35-1.17.98-1.17.5 0 .56.25.52.41h1.2C7.57 6.86 7.3 6 6 6 4.36 6 3.62 7.33 3.62 8.74c.02.42.36 1.26 1.5 1.26.6 0 1-.2 1.25-.45V10h.78l.37-2.33H5.83l-.13 1h.65ZM9.15 8H7.7v.67h1.43V8Zm.05-2 .28 4h1.2l.84-2.27.11 2.27h1.19l1.68-4h-1.2l-.94 2.43V6h-1.04l-.9 2.43V6H9.2Z" fill="#DC2618"/><path fill-rule="evenodd" d="M15 5H3v8h12V5Zm-.5.5h-11v5h11v-5Z" fill="#0573C8"/><path opacity=".5" fill="#F0F3FA" d="M4 11h10v1.5H4z"/></svg>