<!-- by TradingView --><svg width="18" height="18" viewBox="0 0 18 18" fill="none" xmlns="http://www.w3.org/2000/svg">
<rect width="18" height="18" fill="#F0F3FA"/>
<path d="M8.83154 9.52886L6.35486 15C5.70363 14.0303 4.5568 11.8073 5.17933 10.6727C5.80186 9.53819 7.87677 9.43795 8.83154 9.52886Z" fill="#0EA6B5"/>
<path d="M9.51716 8.01818L11.7523 3C11.6413 3.16401 11.233 3.52613 10.488 3.66249C9.55666 3.83295 8.6586 4.5026 8.55881 5.89059C8.47898 7.00099 9.16445 7.77165 9.51716 8.01818Z" fill="#75CEDB"/>
<path d="M11.809 5.31098L11.3825 3.8269L8.79704 9.59927C10.7102 9.53061 11.3963 8.85438 11.809 7.98869C12.1419 7.29017 11.9715 5.88771 11.809 5.31098Z" fill="#0098B1"/>
<path d="M11.0147 12.043C11.5862 10.53 10.244 8.72415 9.50829 8.00964L7.1108 13.3039C8.17394 13.5141 10.4431 13.5561 11.0147 12.043Z" fill="#003E51"/>
<path fill-rule="evenodd" clip-rule="evenodd" d="M10.5048 9.27347C10.1815 8.73909 9.79865 8.28933 9.50942 8.00842L8.79078 9.59496C9.52359 9.56864 10.0773 9.4538 10.5048 9.27347Z" fill="#005C74"/>
</svg>
