<!-- by TradingView --><svg xmlns="http://www.w3.org/2000/svg" width="18" height="18" viewBox="0 0 18 18"><path fill="url(#agtaupfig)" d="M0 0h18v18H0z"/><path d="M15 6H3v.5h12V6Zm0 6H3v-.5h12v.5ZM7.63 9c0-.43.14-.83.4-1.11.25-.26.59-.43 1-.43.43 0 .77.17 1.01.43.27.29.41.68.41 1.1 0 .42-.14.82-.4 1.1-.25.27-.6.44-1.01.44-.42 0-.77-.17-1-.43-.27-.28-.4-.68-.4-1.1Zm3.58 1.52h-.97A1.8 1.8 0 0 0 10.97 9c0-.57-.2-1.07-.55-1.43A1.89 1.89 0 0 0 9.04 7c-.56 0-1.04.2-1.38.57-.35.36-.55.86-.55 1.43s.2 1.07.55 1.43c.34.36.83.57 1.38.57h1.73l.44-.48Zm-4.8-3.01a1.7 1.7 0 0 0-.62-.38A2.36 2.36 0 0 0 5.02 7c-.58 0-1.09.21-1.45.57C3.21 7.92 3 8.42 3 9a2 2 0 0 0 .57 1.43c.36.36.86.57 1.45.57a3 3 0 0 0 1.42-.37l.03-.02V8.85h-.94l-.44.48h.87v1a2.37 2.37 0 0 1-.94.21c-.45 0-.81-.17-1.06-.44A1.56 1.56 0 0 1 3.53 9c0-.43.15-.83.43-1.12.25-.26.61-.43 1.06-.43.22 0 .41.04.58.11.18.07.33.17.46.3l.04.05.36-.36-.05-.04Zm7.9-.38c.25.08.46.21.62.38l.06.04-.36.36-.05-.05a1.2 1.2 0 0 0-.45-.3 1.6 1.6 0 0 0-.59-.1c-.44 0-.8.16-1.06.42A1.6 1.6 0 0 0 12.05 9c0 .43.15.82.43 1.1.26.27.62.43 1.06.43.2 0 .4-.02.56-.06.15-.04.29-.08.39-.15v-.99h-.88l.45-.48H15v1.76l-.03.02a3 3 0 0 1-.67.28c-.24.06-.5.09-.76.09-.58 0-1.08-.21-1.44-.57A2 2 0 0 1 11.53 9c0-.58.21-1.08.57-1.43.36-.36.86-.57 1.44-.57.29 0 .55.05.78.13Z" fill="#FEFEFE"/><defs><linearGradient id="agtaupfig" x1="3.35" y1="3.12" x2="21.9" y2="24.43" gradientUnits="userSpaceOnUse"><stop stop-color="#1A1E21"/><stop offset="1" stop-color="#06060A"/></linearGradient></defs></svg>