<!-- by TradingView --><svg width="18" height="18" viewBox="0 0 18 18" xmlns="http://www.w3.org/2000/svg"><path fill="#F0F3FA" d="M0 0h18v18H0z"/><path d="M7 7.44h3.56V8H8v2h1.72v-.69H8.69V8.7h1.87v1.87H7V7.44ZM9 14a5 5 0 0 0 4.5-2.81h-1.15a4 4 0 0 1-6.7 0H4.5A5 5 0 0 0 9 14Zm5-5-.01.31h-1.55V8.7h1.55L14 9Zm-.63 1h.53c-.04.2-.09.38-.15.56H11V7.44h2.75c.06.18.11.37.15.56H12v2h1.37ZM9 5a4 4 0 0 0-3.35 1.81H4.5a5 5 0 0 1 9 0h-1.15A4 4 0 0 0 9 5ZM4.25 7.44h2.57V8h-1.7a4 4 0 0 0 0 2h1.7v.56H4.24a5 5 0 0 1 0-3.12Z" fill="#A32B24"/></svg>