<!-- by TradingView --><svg width="18" height="18" viewBox="0 0 18 18" xmlns="http://www.w3.org/2000/svg"><path fill="#F0F3FA" d="M0 0h18v18H0z"/><path d="M8.95 4.13a.53.53 0 0 0-.7 0l-5.1 4.56a.4.4 0 0 0 0 .62l5.1 4.56c.2.17.5.17.7 0l1.3-1.15c-2.1-.24-3.7-1.82-3.7-3.72 0-1.9 1.6-3.48 3.7-3.72l-1.3-1.15Z" fill="url(#a)"/><path fill-rule="evenodd" d="M10.61 13C13.04 13 15 11.2 15 9s-1.96-4-4.39-4C8.2 5 6.22 6.8 6.22 9s1.97 4 4.4 4Zm0-.5c2.12 0 3.85-1.56 3.85-3.5s-1.73-3.5-3.85-3.5S6.77 7.06 6.77 9s1.72 3.5 3.84 3.5Z" fill="#62271A"/><path d="M9.57 8.27h1.63v1.46H9.57V8.27Z" fill="url(#b)"/><path fill-rule="evenodd" d="M14.78 9c0 2.2-1.97 4-4.4 4C7.97 13 6 11.2 6 9s1.96-4 4.39-4c2.42 0 4.39 1.8 4.39 4Zm-.55 0c0 1.94-1.72 3.5-3.84 3.5S6.54 10.94 6.54 9s1.73-3.5 3.85-3.5 3.84 1.56 3.84 3.5Zm-5.96-.73v.41h-.45l.45-.41Zm4.28.83v-.3c0-.07-.05-.13-.08-.18-.03-.03-.04-.05-.03-.06a.45.45 0 0 1 .14-.02l.07-.01h.57c.03 0 .01.02-.01.05l-.04.07.01.07c.02.13.06.38 0 .38a.24.24 0 0 0-.1.03c-.04.01-.07.03-.06-.03.01-.09.04-.45-.07-.45l-.12-.02c-.06-.02-.1-.03-.12.02v.18c.01.13.02.27-.02.28-.08.03-.14.04-.14 0Zm-2.57 1.43c.14-.02.33.08.4.13 0 .08-.26.09-.4.08-.14-.02-.18-.03-.2-.08-.03-.06.03-.1.2-.13Zm.33.4c-.02-.07-.14-.12-.3-.12-.14 0-.31.1-.31.25s.05.24.1.2c.04-.01.05-.07.06-.12 0-.05.01-.09.03-.1h.08c.04.02.1.03.17.02.14-.02.17-.05.17-.12Zm0 .24c0-.03-.26-.05-.3-.05-.08.14.02.17.1.2.04.01.07.02.07.05l-.04.12c-.02.04-.04.08-.02.09a5 5 0 0 0 .6.03c.06 0 .19-.05.19-.12 0-.03-.05-.05-.1-.07-.06-.02-.1-.04-.09-.08.02-.03.08-.05.14-.08.05-.02.1-.04.11-.06.02-.06-.11-.08-.19-.08-.07 0-.17.02-.2.05l-.05.09a.28.28 0 0 1-.05.1c-.05.05-.17.03-.19 0-.02 0 0-.07.01-.12l.01-.07Zm.55-.09c.07-.03.11-.14.09-.19-.03-.04-.1-.08-.18-.06-.07 0-.24.07-.32.1.05.07.2.2.4.15Zm.09-.49c.02.05-.02.16-.1.2a.44.44 0 0 1-.4-.15l.32-.12c.09 0 .15.03.18.07Zm-.89-4.65c.07.19.17.48.17.6h-.98c-.04.01-.11.08-.06.14l.26.25c.14-.1.44-.26.54-.17.1.08.1.15.08.23v.08c0 .13-.41.63-.8.81v1.04c-.24-.11-.75-.4-.82-.62-.03-.07-.04-.14-.05-.2-.03-.16-.05-.26-.22-.26-.22 0-.22.16-.21.25v.02c0 .08-.6.85-.96.96V9c0-1.6 1.34-2.91 3.05-3.06Zm.44-.01v.67c0 .03.03.01.1-.01.08-.03.22-.1.4-.1.3 0 .33.27.25.31-.05.04-.42 0-.65-.03l-.17-.01c-.08 0-.1.04-.1.27-.02.37-.42.76-.6.88h1.08c-.17-.12-.32-.77-.31-.84v-.05c.02-.06.02-.13.06-.15.04-.02.1.03.13.06 0 .51.48.77.72.83-.02.03-.02.08-.02.11a.1.1 0 0 1 0 .04l.1.02c.1.02.24.05.24.09 0 .03 0 .07.02.11l.01.12c0 .06.07.12.18.16.1.04.08.1.06.18l-.01.04c-.01.06-.1 0-.18-.05l-.08-.05v.77l.12.06c.02 0 .03-.03.04-.06l.05-.1c.03-.02.07-.14.1-.26.04-.1.07-.18.09-.2l.1-.19.08-.14.02-.06c.02-.06.03-.13.08-.17.06-.06.08-.03.09 0l.06-.23c.03-.04.1-.12.17-.16.06-.02.06.07.07.16 0 .05 0 .1.02.13.05.08.5.05.5-.06 0-.03 0-.07-.02-.1-.02-.1-.04-.2.02-.22.09-.03.09.1.09.14 0 .03.05.1.1.15l.06.09.05.02a3.34 3.34 0 0 0-3.12-2.17Zm3.16 2.32h-.25c-.04 0-.05.1-.05.19 0 .06.1.04.18.01l.06-.01.1-.04-.04-.15Zm.07.3a.84.84 0 0 1-.13.02c-.04 0-.02.21 0 .42.02.19.04.37 0 .37-.07 0-.26-.11-.33-.16-.06-.03-.08.04-.1.1l-.01.06c-.03.06.01.21.11.25.1.03.26-.04.33-.08a.31.31 0 0 1 .12-.03 2.83 2.83 0 0 0 0-.94Zm-.06 1.16h-.63c-.14 0-.35.07-.49.12l-.14.04c-.05 0-.07-.08-.07-.16 0-.06.32-.1.48-.1l.02-.3c0-.05-.07-.06-.1-.06l-.1.16-.23.03c-.05 0-.09-.05-.07-.08a.5.5 0 0 1 .12-.11c0-.2-.02-.62-.05-.62-.02 0-.1.13-.16.26l-.12.22c-.06.09-.04.23-.02.34.02.08.03.14.02.18-.03.1-.1.24-.19.24s-.11-.24-.11-.3c0-.04-.03-.04-.1-.04v.56h-1.08v.2c0 .07.3 0 .51-.05l.17-.04c.07 0 .08.18.08.22 0 .02-.05.04-.11.06-.06.02-.11.03-.12.05 0 .02.02.04.04.06l.03.05c0 .03.17 0 .25 0a.7.7 0 0 1 .13.2c0 .03-.35.07-.52.09V12a3.25 3.25 0 0 0 2.56-2.3Zm-2.86 2.34.04-.3c-.01-.09-.42-.07-.55-.06h-.03c-.04 0-.2.03-.25.06-.03.02-.07.18-.09.3a3.73 3.73 0 0 0 .88 0Zm-1.13-.04v-.69c-.03-.03-.08-.08-.08 0s-.22.4-.37.57l.45.12Zm-.71-.22c.43-.28.57-.8.58-1.03v-.26c-.06-.01-.19-.05-.2-.08-.01-.05.1-.17.28-.17.15 0 .49.07.64.1v-.26h-1v-.92a1.44 1.44 0 0 0-.3-.2c-.05 0-.1.05-.13.1l-.03.04c-.03.02-.1.02-.17.01h-.1c-.1 0-.27.13-.27.18 0 .06.18.2.26.23l.19.03c.14.02.31.05.33.07.04.03 0 .16-.03.16l-.33-.02-.42-.03-.3.04h-.1l-.68.2c.3.8.95 1.46 1.78 1.81ZM7.1 9.73c.2-.02.44-.06.47-.1.05-.05.02-.28 0-.38-.04-.06-.15-.17-.2-.17-.04 0-.22.17-.34.3.01.11.04.23.07.35Zm.44-.78.25-.22c.1 0 .29.02.29.15 0 .12-.36.1-.54.07Zm1.1-.1c0 .08-.07.14-.15.14-.08 0-.15-.06-.15-.14 0-.07.07-.13.15-.13.08 0 .15.06.15.13Zm-.84.23c.07.03.18.06.16.13-.03.1-.08.13-.17.12-.08-.01-.35-.26-.03-.26l.04.01Zm5.2-.73c.01-.08-.1-.11-.17-.14a.48.48 0 0 1-.04-.01c-.32 0-.05.25.04.26.09.01.14-.02.16-.11ZM8.01 9.43c.07.02.18.06.16.13-.03.1-.07.13-.16.12-.09-.02-.36-.26-.04-.26l.04.01Z" fill="url(#c)"/><defs><linearGradient id="a" x1="10.27" y1="9.01" x2="3" y2="9.01" gradientUnits="userSpaceOnUse"><stop stop-color="#EF3D1E"/><stop offset=".47" stop-color="#F87C23"/><stop offset="1" stop-color="#C71D28"/></linearGradient><linearGradient id="b" x1="11.32" y1="9" x2="9.68" y2="9" gradientUnits="userSpaceOnUse"><stop offset=".04" stop-color="#F87C23"/><stop offset="1" stop-color="#EF3D1E"/></linearGradient><linearGradient id="c" x1="14.78" y1="9" x2="6" y2="9" gradientUnits="userSpaceOnUse"><stop stop-color="#E6A828"/><stop offset=".23" stop-color="#B87A1F"/><stop offset=".63" stop-color="#FED856"/></linearGradient></defs></svg>