<!-- by TradingView --><svg width="18" height="18" viewBox="0 0 18 18" fill="none" xmlns="http://www.w3.org/2000/svg">
<rect width="18" height="18" fill="url(#paint0_linear_229_12018)"/>
<path d="M11.482 13H4.69439C4.23122 13 3.89805 12.5514 4.02856 12.1035L5.99369 5.41861C6.06599 5.17045 6.29192 5 6.54855 5L7.91302 5C8.34032 5 8.66667 5.06933 8.66667 5.5C8.66667 5.93067 8.52106 6.00391 8.09375 6.00391H7.09632L5.4114 12H10.9936L11.812 9.00282C11.344 9.00282 10.4843 9.00339 10.5724 8.54019L10.5777 8.51202C10.6471 8.14685 10.964 8 11.3329 8H12.4796C12.9437 8 13.277 8.33305 13.1448 8.78141L12.0363 12.5832C11.9634 12.8304 11.7379 13 11.482 13Z" fill="#00BD00"/>
<path d="M9.60742 5.5C9.60742 5.22386 9.89826 5 10.257 5H11.3508C11.7096 5 12.0004 5.22386 12.0004 5.5C12.0004 5.77614 11.7096 6 11.3508 6H10.257C9.89826 6 9.60742 5.77614 9.60742 5.5Z" fill="#70DA70"/>
<circle cx="13.5" cy="5.5" r="0.5" fill="#70DA70"/>
<circle cx="9.5" cy="8.5" r="0.5" fill="#70DA70"/>
<defs>
<linearGradient id="paint0_linear_229_12018" x1="3.34858" y1="3.12159" x2="21.9042" y2="24.4339" gradientUnits="userSpaceOnUse">
<stop stop-color="#1A1E21"/>
<stop offset="1" stop-color="#06060A"/>
</linearGradient>
</defs>
</svg>
