<!-- by TradingView --><svg width="18" height="18" viewBox="0 0 18 18" xmlns="http://www.w3.org/2000/svg"><path fill="#F0F3FA" d="M0 0h18v18H0z"/><path d="M6.59 6.37c0-1.05.6-1.77.94-2.06l-.8.45-.92.98.14 4.48 4.98 1.32c1.48-1.32 2.2-4.17 1.88-5.34-.33-1.17-1.6-1.95-2.2-2.19.42.32 1.39 1.25 1.39 2.41a2.9 2.9 0 0 1-2.84 2.9C7.5 9.31 6.6 7.68 6.6 6.36Z" fill="url(#azxn3ax3v)"/><path d="M7.59 8c.27-.55.64-.77.79-.88-.75 1.86.56 3.13 1.96 3.13s2.21-1.33 2.21-3.2c0-1.85-1.58-2.82-1.97-3.05A5.06 5.06 0 0 1 14 8.7c0 1.92-1.32 5.3-5.05 5.3-4.54 0-5.17-5.02-4.9-6.08a4.55 4.55 0 0 0 1.45 2.87l1.2.08c.66.16 1.87.37 1.4-.08-.6-.57-.66-1.92-.51-2.78Z" fill="url(#bzxn3ax3v)"/><path d="M6.18 6.74c0-.8.26-1.4.38-1.6l-.64.4-.66 2.34.14 2.75 2.88.6c.17-.1.3-.5-.63-1.33a4.07 4.07 0 0 1-1.47-3.16Z" fill="url(#czxn3ax3v)"/><path d="M4.98 9.5c-.52-.37-.83-1.21-.93-1.6-.09 1.08.77 2.42 1.11 3.03.35.6.8 1.15.8 1.15-.04-.55-.46-2.23-.98-2.59Z" fill="url(#dzxn3ax3v)"/><path d="M5.24 6.5A4.2 4.2 0 0 1 7.53 4.3a3.46 3.46 0 0 0-1.69 3.03c0 1.9 1.23 2.97 1.84 3.28l-1.03.35c-.71-.94-1.99-3.14-1.41-4.47Z" fill="url(#ezxn3ax3v)"/><path d="M4.7 8.84c0-1.05.36-2 .54-2.34a3.84 3.84 0 0 0 2.44 4.11c-.1-.28-.33-.7-.33-1.38 0-.44.16-1 .24-1.22-.05.94.4 2.87 2.53 2.87 2.14 0 2.35-2.52 2.44-3.65v.02c.1.37.32 1.21.32 1.6 0 1.91-1.16 4.84-3.68 4.84-3.4 0-4.5-3.53-4.5-4.85Z" fill="url(#fzxn3ax3v)"/><defs><linearGradient id="azxn3ax3v" x1="12.57" y1="6.52" x2="6.43" y2="5.51" gradientUnits="userSpaceOnUse"><stop stop-color="#1F0D0D"/><stop offset=".44" stop-color="#901E1E"/><stop offset=".8" stop-color="#4B2120"/><stop offset="1" stop-color="#AE342F"/></linearGradient><linearGradient id="bzxn3ax3v" x1="14" y1="8.4" x2="3.99" y2="8.4" gradientUnits="userSpaceOnUse"><stop stop-color="#F8CC61"/><stop offset=".49" stop-color="#EC7453"/><stop offset="1" stop-color="#EE7E55"/></linearGradient><linearGradient id="czxn3ax3v" x1="6.83" y1="5.14" x2="6.83" y2="11.24" gradientUnits="userSpaceOnUse"><stop offset=".02" stop-color="#99342F"/><stop offset=".56" stop-color="#190E0F"/></linearGradient><linearGradient id="dzxn3ax3v" x1="4.04" y1="7.91" x2="6.19" y2="11.76" gradientUnits="userSpaceOnUse"><stop stop-color="#8B1513"/><stop offset="1" stop-color="#2A1313"/></linearGradient><linearGradient id="ezxn3ax3v" x1="6.39" y1="4.2" x2="6.39" y2="10.97" gradientUnits="userSpaceOnUse"><stop stop-color="#DFA16D"/><stop offset=".93" stop-color="#E9564D"/></linearGradient><linearGradient id="fzxn3ax3v" x1="12.88" y1="8.71" x2="4.7" y2="8.71" gradientUnits="userSpaceOnUse"><stop stop-color="#F4AD5D"/><stop offset="1" stop-color="#E62644"/></linearGradient></defs></svg>