<!-- by TradingView --><svg width="18" height="18" viewBox="0 0 18 18" xmlns="http://www.w3.org/2000/svg"><path fill="#2393C3" d="M0 0h18v18H0z"/><path fill-rule="evenodd" d="M14 4H4v10h10V4ZM8.82 5.16l-.29-.46-.02.54c0 .13-.02.36-.05.6-.04.23-.1.46-.16.6-.1.2-.16.45-.2.68l-.08.52-.92.4A9.5 9.5 0 0 0 5.28 9.1l-.46.38.6-.1c.13-.02.55-.08 1.12-.11.45-.03.94.16 1.2.3-.1.3-.33.88-.63 1.47-.36.73-.36 1.29-.13 1.66l.31.5v-.59c0-.02.02-.08.08-.2.06-.11.15-.27.3-.47a56 56 0 0 1 1.3-1.66l2.3 2.1-.1-.5c-.06-.27-.17-.72-.3-1.15a4.72 4.72 0 0 0-.44-1.1 2.92 2.92 0 0 1-.38-1.24c.27-.59.65-1 1.04-1.34.18-.15.36-.3.54-.43l.05-.04c.2-.14.38-.29.54-.44l.4-.4-.56.13c-.24.05-.87.24-1.2.38-.27.12-.87.45-1.33.7a3.8 3.8 0 0 0-.26-.9c-.15-.37-.33-.7-.45-.88Zm-.03.72v-.09l.17.37c.15.35.26.73.26 1.04v.28l.24-.14.16-.08c.48-.26 1.1-.6 1.38-.73l.37-.13c-.16.12-.33.25-.5.4-.43.37-.85.82-1.15 1.49l-.01.03v.04c.02.28.12.96.44 1.43.13.2.27.6.4 1.02.07.21.12.42.17.62L8.94 9.79l-.11.14a60.7 60.7 0 0 0-1.67 2.17c0-.23.06-.54.25-.93.36-.7.61-1.39.7-1.64l.04-.12-.11-.07a2.96 2.96 0 0 0-2.02-.37 10.73 10.73 0 0 1 1.2-.63c.29-.11.81-.35 1.04-.45l.08-.04.01-.1c0-.13.03-.34.07-.57.05-.23.1-.45.18-.6.09-.2.15-.46.19-.7Z" fill="#DEEFF6"/></svg>