<!-- by TradingView --><svg width="18" height="18" viewBox="0 0 18 18" xmlns="http://www.w3.org/2000/svg"><path fill="#F0F3FA" d="M0 0h18v18H0z"/><path d="M11.75 6c-1.24 0-2.25.88-2.25 1.97v2.06c0 1.09 1 1.97 2.25 1.97 1.24 0 2.25-.88 2.25-1.97V10h-1.5v.26c0 .42-.34.75-.75.75a.75.75 0 0 1-.75-.75V7.74c0-.42.34-.75.75-.75s.75.33.75.75V8H14v-.03C14 6.88 13 6 11.75 6Zm-5.5 3.65V9H8.5v2.2c-.2.27-.92.8-2.13.8h-.23C4.96 12 4 11.16 4 10.13V7.87C4 6.84 4.96 6 6.14 6h.1c.93 0 2.26.39 2.26 1.61V8H7v-.28C7 7.24 6.78 7 6.24 7s-.74.24-.74.72v2.52c0 .47.2.76.74.76h.35c.34 0 .41-.15.41-.45v-.9h-.75Z" fill="url(#ag2ulkkjw)"/><defs><linearGradient id="ag2ulkkjw" x1="3.6" y1="6" x2="3.6" y2="12" gradientUnits="userSpaceOnUse"><stop offset=".52" stop-color="#65AE2A"/><stop offset=".79" stop-color="#4B801F"/></linearGradient></defs></svg>