<!-- by TradingView --><svg width="18" height="18" viewBox="0 0 18 18" xmlns="http://www.w3.org/2000/svg"><path fill="#051F12" d="M0 0h18v18H0z"/><path d="M11.54 10.69V9.55c-.01-.3.13-.45.43-.45h.13V9H9.17v.1h.14c.3 0 .42.15.42.45l-.01 1.12c0 .23-.03.42-.15.58-.1.16-.25.28-.42.36-.18.08-.36.12-.55.12-.39 0-.7-.12-.96-.37a2.3 2.3 0 0 1-.55-1.05 6.6 6.6 0 0 1-.17-1.62c0-.68.07-1.25.2-1.72.15-.48.37-.84.66-1.1.3-.25.68-.37 1.15-.37.26 0 .52.05.77.16.27.1.5.28.72.55.21.27.38.65.5 1.14H11l.1-1.9c-.18-.08-.4-.16-.7-.22A8.57 8.57 0 0 0 8.5 5a3.8 3.8 0 0 0-1.89.44c-.52.28-.92.7-1.2 1.23A4.2 4.2 0 0 0 5 8.59c0 .76.14 1.42.42 1.96.28.54.68.96 1.19 1.25.5.28 1.1.43 1.8.43a4.72 4.72 0 0 0 1.75-.33c.5 1.02 1.42 2.1 2.84 2.1-.48-.28-1.45-1.32-1.45-3.3l-.01-.01Z" fill="#F0F3FA"/></svg>