<!-- by TradingView --><svg width="18" height="18" viewBox="0 0 18 18" xmlns="http://www.w3.org/2000/svg"><path fill="#F0F3FA" d="M0 0h18v18H0z"/><path fill-rule="evenodd" d="M9 13.13c-.46.63-1.18.99-1.84.84-.8-.19-1.54-.79-1.37-1.77-.97.18-1.57-.56-1.76-1.36-.15-.66.2-1.38.84-1.84-.63-.46-.99-1.18-.84-1.84.19-.8.79-1.54 1.76-1.37-.17-.97.57-1.57 1.37-1.76.66-.15 1.38.2 1.84.84.46-.63 1.18-.99 1.84-.84.8.19 1.54.79 1.37 1.76.97-.17 1.57.57 1.76 1.37.15.66-.2 1.38-.84 1.84.63.46.99 1.18.84 1.84-.19.8-.79 1.54-1.76 1.36.17.98-.57 1.58-1.37 1.77-.66.15-1.38-.2-1.84-.84ZM8.28 5.3c.73.73.6 2.73.45 3.64-1.06 0-2.81-.1-3.18-.46-.45-.45-.9-.9-.45-1.82.36-.72 1.06-.6 1.36-.45-.36-.36-.15-.76 0-.91.3-.3 1.1-.73 1.82 0Zm1.17 3.24c.3-.46.81-1.57.46-2.28-.46-.9.45-1.36.9-1.36.46 0 .92.45.92 1.36.45 0 1.36 0 1.36.91s-.45.91-1.36.91c-.44 0-1.08.17-1.57.3-.32.09-.59.16-.7.16ZM8.1 11.73c-.35-.7.15-1.82.46-2.28-.12 0-.39.07-.7.16-.5.13-1.14.3-1.58.3-.9 0-1.36 0-1.36.9 0 .92.9.92 1.36.92 0 .9.46 1.36.91 1.36.46 0 1.37-.45.91-1.36ZM9 9c-.15.9-.27 2.9.45 3.64.73.72 1.52.3 1.82 0 .15-.16.37-.55 0-.91.3.15 1 .27 1.37-.46.45-.9 0-1.36-.46-1.82C11.82 9.1 10.06 9 9 9Z" fill="#43B130"/></svg>