<!-- by TradingView --><svg width="18" height="18" viewBox="0 0 18 18" xmlns="http://www.w3.org/2000/svg"><path fill="#F0F3FA" d="M0 0h18v18H0z"/><path d="M10.69 6.67c-1.3.07-2.45.85-3.53 1.6-.56.4-1.18.56-1.87.5a9.22 9.22 0 0 1-2.12-.47.06.06 0 0 1 0-.04c.64-2.04 2.96-2.99 4.78-3.2 2.1-.24 4.57.19 6.15 1.82v.03h-.02a18.75 18.75 0 0 0-3.4-.24Z" fill="#5F7834"/><path d="M14.14 7.12c-.64.08-1.33.3-1.94.53-.63.24-1.01.59-1.46 1.18-1.12 1.48-2.25 3.18-4.11 3.62a1.3 1.3 0 0 1-.67 0 5.05 5.05 0 0 1-2-1.1 2.6 2.6 0 0 1-.88-2.6h.01a.04.04 0 0 1 .04 0c.92.4 1.97.7 2.94.64.64-.05 1.31-.56 1.86-.95a7.24 7.24 0 0 1 2.38-1.3c.25-.07.63-.1 1.13-.12h2.17a4.2 4.2 0 0 1 .55.08v.02h-.02Z" fill="#8FC74A"/><path d="M11.67 8.74a5.39 5.39 0 0 1 2.77-1.42l.03.02c.38.55.56 1.15.53 1.8-.08 1.38-1.16 2.42-2.25 2.99a8.5 8.5 0 0 1-5.8.61h.01c2.2-.14 3.14-1.52 4.22-3.31.2-.32.36-.55.49-.7Z" fill="#236041"/></svg>