<!-- by TradingView --><svg width="18" height="18" viewBox="0 0 18 18" xmlns="http://www.w3.org/2000/svg"><path fill="#1CA148" d="M0 0h18v18H0z"/><path fill-rule="evenodd" d="M11.63 5.14a4.81 4.81 0 0 1 1.88 2v-.02a5.16 5.16 0 0 0-2.04-2.41 4.8 4.8 0 0 0-6.02.81 5.19 5.19 0 0 0-1.39 4.45c.13.83.43 1.57.9 2.23a4.94 4.94 0 0 0 2.92 1.98l.02-.04v-.01a4.88 4.88 0 0 1-3.05-3.16 5.1 5.1 0 0 1 1.4-5.26 4.69 4.69 0 0 1 3.07-1.19c.83 0 1.6.2 2.3.62ZM7.35 9.62a9.51 9.51 0 0 0-.06-.7h.01a3.26 3.26 0 0 1 .03 1.61 192.36 192.36 0 0 0 .2.52c.15-.27.23-.57.25-.9a23.02 23.02 0 0 0 .04-.44l.02.27c0 .43-.07.83-.22 1.21a.12.12 0 0 0 0 .1 31.34 31.34 0 0 0 .19.38c.18-.35.3-.75.34-1.2a13.6 13.6 0 0 0 .06-.69c.02.5.02.86-.02 1.1-.04.28-.14.6-.3.97v.05a29.2 29.2 0 0 0 .26.52c.07-.28.17-.54.3-.78a9.93 9.93 0 0 0 .17-1.21 7.68 7.68 0 0 1 .03.9c.17-.25.38-.47.64-.66v-.02c-.18-.35-.43-.7-.74-1.07l-.8-.98a7.28 7.28 0 0 1-1.2-1.96c-.63.92-1 1.82-1.08 2.72-.07.68.02 1.34.26 1.97a5.94 5.94 0 0 0 2.23 2.68c.04-.05.05-.1.05-.16a11.81 11.81 0 0 1 0-.33 3.32 3.32 0 0 1-.8-.53 15.7 15.7 0 0 1-.53-.5h.01c.3.23.56.44.8.6.17.1.33.2.5.28.02.01.03 0 .03-.02 0-.09 0-.18.03-.28 0-.02 0-.03-.02-.04-.4-.15-.75-.34-1.04-.58a8.81 8.81 0 0 1-.6-.58l.8.6c.27.17.55.31.86.4h.02c.01-.07 0-.12-.01-.15-.06-.1-.12-.22-.16-.33a.07.07 0 0 0-.05-.05 3.42 3.42 0 0 1-1.47-.83 23.66 23.66 0 0 1-.44-.42h.01c0-.01 0-.01 0 0l.68.5a3.45 3.45 0 0 0 1.15.54l-.2-.46a44.74 44.74 0 0 1-1.7-1.13h.02l.56.42c.32.23.66.4 1.03.5h.01l-.18-.48a.07.07 0 0 0-.04-.04c-.27-.1-.51-.24-.73-.41a5.35 5.35 0 0 1-.48-.46l.48.38c.21.15.44.27.68.34l.01-.01-.16-.44a2.4 2.4 0 0 0-.08-.23l-.16-.5a.05.05 0 0 0-.03-.02 2.02 2.02 0 0 1-.68-.69c.23.28.44.46.63.56.03.02.04 0 .02-.03a2.15 2.15 0 0 1-.3-.9 2.55 2.55 0 0 0 .21.6h.01c-.06-.21-.1-.43-.12-.64a.4.4 0 0 1 .01-.12c.01-.04.01-.04.01 0 0 .1.02.2.05.31l.11.4c.02.04.03.04.03-.01a2.05 2.05 0 0 0-.13-.8h.02a2.31 2.31 0 0 1 .18.92c0 .1 0 .17.02.22a9.58 9.58 0 0 1 .11.26 2.69 2.69 0 0 0 .03-.92c.03.16.06.3.07.46a1.95 1.95 0 0 1-.05.65l.19.49c0 .02.01.01.02 0 .07-.26.1-.5.1-.73Zm6.03-1.78c.14 0 .26-.12.26-.27a.26.26 0 0 0-.26-.26.26.26 0 0 0-.26.26c0 .15.12.27.26.27Zm-4.9 6.57c-.04.16-.1.3-.15.45-.06.12-.13.16-.22.13-.16-.07-.17-.26-.01-.6a24.64 24.64 0 0 0 .2-.49c-.01-.54.04-1.02.14-1.44a2.7 2.7 0 0 1 1.07-1.59c.35-.25.81-.48 1.38-.68l1.12-.42a7.66 7.66 0 0 0 1.95-1.08c.05.47.05.93.02 1.37a4.27 4.27 0 0 1-2.78 3.86 6.57 6.57 0 0 1-2.72.5Zm3.67-3.32c0 .02 0 .03.01.01a15.79 15.79 0 0 1 .27-.26 2.15 2.15 0 0 1 .67-.81 2.9 2.9 0 0 0-.32.34c-.07.1-.14.22-.19.33 0 .02 0 .03.02 0a3.94 3.94 0 0 0 .5-.5 5.08 5.08 0 0 1-.45.6 2.74 2.74 0 0 0 .48-.44c-.19.28-.43.5-.72.65v.01a1.76 1.76 0 0 0 .84-.14c-.27.14-.58.22-.92.23l-.04.02-.36.33c-.02.02-.01.02 0 .03h.26a3.74 3.74 0 0 0 1.11-.25 2.8 2.8 0 0 1-1.48.37.15.15 0 0 0-.1.04 51.92 51.92 0 0 0-.33.3l.4.06.36-.01a6.2 6.2 0 0 0 .6-.08 3.7 3.7 0 0 1-.75.16c-.23.02-.47.01-.71-.03-.03 0-.05 0-.07.02a149.83 149.83 0 0 1-.38.33c.35.1.71.13 1.08.1a11 11 0 0 0 .76-.1v.01l-.63.15a3.46 3.46 0 0 1-1.4-.03l-.37.3v.01a3.5 3.5 0 0 0 1.28.11 11.31 11.31 0 0 0 .8-.1v.02c-.23.06-.47.12-.71.16a3.6 3.6 0 0 1-1.48-.05.19.19 0 0 0-.17.05c-.12.1-.26.18-.42.26-.02 0-.02.01 0 .02.34.1.68.13 1.02.11a8.64 8.64 0 0 0 1.02-.1l-.07.02c-.58.14-1.02.21-1.3.2-.25 0-.55-.04-.88-.1h-.06l-.35.22c-.02.01-.01.02 0 .03.4.11.84.15 1.32.1a9.91 9.91 0 0 0 .75-.09v.02l-.62.14a3.49 3.49 0 0 1-1.65-.03c-.2.2-.37.53-.53.99-.02.05-.05.08-.1.09-.02 0-.04 0-.05-.04a.24.24 0 0 1-.01-.13c.08-.36.22-.67.44-.94a18.29 18.29 0 0 1 .81-2.3h.01v.04c-.19.4-.31.69-.39.89a3.6 3.6 0 0 0-.22 1.16l.3-.23.06-.38c.06-.41.17-.79.34-1.13a9.58 9.58 0 0 1 .4-.7v.01c-.2.45-.36.82-.45 1.09a3.2 3.2 0 0 0-.16 1l.4-.21V13c.05-.58.18-1.07.38-1.48a9.75 9.75 0 0 1 .41-.73v.01l-.25.58a4.07 4.07 0 0 0-.34 1.52l.49-.34.01-.03c.05-.54.17-1 .37-1.38a10.4 10.4 0 0 1 .35-.6l-.28.62c-.17.4-.26.82-.28 1.23 0 .02 0 .02.02.01l.34-.25a.08.08 0 0 0 .03-.06 3.11 3.11 0 0 1 .58-1.49c-.14.28-.24.5-.3.67-.09.26-.13.5-.14.72h.02a12.64 12.64 0 0 0 .4-.33c.1-.39.27-.73.49-1.02a7.14 7.14 0 0 1 .32-.4v.01a3.27 3.27 0 0 0-.64 1.27c0 .03 0 .03.02.02l.38-.32.03-.04a2.18 2.18 0 0 1 .53-.91l-.19.27c-.1.16-.18.34-.22.53Z" fill="#fff"/></svg>