<!-- by TradingView --><svg width="18" height="18" viewBox="0 0 18 18" xmlns="http://www.w3.org/2000/svg"><path fill="#F0F3FA" d="M0 0h18v18H0z"/><path fill="#E50012" d="M4 4h3v3H4z"/><path d="M4 7.5h3v3H4v-3Z" fill="#1EAA39"/><path d="M7.5 7.5h3v3h-3v-3Z" fill="#DADF00"/><path d="M11 7.5h3v3h-3v-3Z" fill="#FFF000"/><path fill="#BBE1E8" d="M11 11h3v3h-3z"/><path d="M7.5 11h3v3h-3v-3Z" fill="#5FB6E0"/><path d="M11 7V4c2.13.13 2.89 2.06 3 3h-3Z" fill="#F7B52C"/><path d="M7 11H4a3.28 3.28 0 0 0 3 3v-3Z" fill="#8DC221"/><path d="M7.5 4h3v3h-3V4Z" fill="#E95513"/></svg>