<!-- by TradingView --><svg width="18" height="18" viewBox="0 0 18 18" xmlns="http://www.w3.org/2000/svg"><path fill="#009145" d="M0 0h18v18H0z"/><path d="M10.16 10c-.58 0-.77.04-1.13.07l.3-1.63c.42.05.69.06 1.48.06h.9c.59 0 1 0 1.51-.05-.12.35-.2.66-.32 1.26l-.2 1.03c-.11.65-.16.94-.17 1.37-.69.32-1.01.44-1.55.58-.77.2-1.62.31-2.46.31-1.44 0-2.5-.32-3.18-.98-.73-.7-1-1.8-.76-3.06C5.04 6.54 7.14 5 10 5c1.42 0 2.42.36 3.03 1.1.25.28.38.56.48 1l-2.4.43c-.05-.33-.16-.5-.38-.66-.25-.2-.61-.27-1.09-.27-1.45 0-2.45.85-2.74 2.4-.16.85 0 1.5.37 1.9.3.33.83.5 1.54.5.6 0 1.11-.1 1.7-.32l.2-1.08h-.54Z" fill="#fff"/></svg>