<!-- by TradingView --><svg width="18" height="18" viewBox="0 0 18 18" xmlns="http://www.w3.org/2000/svg"><path fill="#F0F3FA" d="M0 0h18v18H0z"/><path d="M12.72 5.66c.69 0 1.14-.74 1.28-1.11 0 .55-.33 2.47-2.67 2.47-2.35 0-2.71-1.2-4.39-1.2-1.67 0-2.65 1.74-2.65 3.1 0 1.34 1.22 2.78 4.72 2.78s4.66-.92 4.66-2c0-.88-.63-1.1-.95-1.09-1.56 0-1.65 2.3-4.65 2.3-2.31 0-2.78-1.73-2.72-2.7 0-.07.06-.12.13-.12s.13.06.13.13c.09.76.94 1.26 2.21.19a4.69 4.69 0 0 1 2.94-1.05c2.6 0 3.24 1.55 3.24 2.33C14 12.11 12.27 14 9.22 14 6.18 14 4 12 4 8.91 4 5.83 5.96 4 8.54 4s3.31 1.66 4.18 1.66Z" fill="url(#afsm3r4xc)"/><path d="M4 8.94v-.03C4 5.83 5.96 4 8.54 4c1.63 0 2.53.66 3.18 1.15.38.28.68.5 1 .5.69 0 1.14-.73 1.28-1.1 0 .55-.33 2.47-2.67 2.47a5.02 5.02 0 0 1-2.6-.68c-.53-.27-1.02-.52-1.79-.52-1.67 0-2.65 1.74-2.65 3.1L4 8.94Z" fill="url(#bfsm3r4xc)"/><path d="M13.88 9.03c.09.25.12.48.12.66C14 12.11 12.27 14 9.22 14 6.18 14 4 12 4 8.91v-.03l.3-.03v.06c0 1.35 1.21 2.8 4.7 2.8 3.5 0 4.67-.93 4.67-2.02 0-.16-.02-.3-.05-.41l.26-.25Z" fill="url(#cfsm3r4xc)"/><defs><linearGradient id="afsm3r4xc" x1="5.34" y1="8.71" x2="14.43" y2="8.71" gradientUnits="userSpaceOnUse"><stop stop-color="#1157A5"/><stop offset=".8" stop-color="#76C5DC"/><stop offset="1" stop-color="#68C2B6"/></linearGradient><linearGradient id="bfsm3r4xc" x1="4.18" y1="8.94" x2="14.13" y2="4.98" gradientUnits="userSpaceOnUse"><stop stop-color="#C9CB40"/><stop offset=".36" stop-color="#FF9A00"/><stop offset="1" stop-color="#FF581B"/></linearGradient><linearGradient id="cfsm3r4xc" x1="3.82" y1="9.85" x2="14.25" y2="9.85" gradientUnits="userSpaceOnUse"><stop stop-color="#C4CA3E"/><stop offset=".21" stop-color="#60B72D"/><stop offset=".72" stop-color="#159C6C"/><stop offset="1" stop-color="#75C8C2"/></linearGradient></defs></svg>