<!-- by TradingView --><svg width="18" height="18" viewBox="0 0 18 18" xmlns="http://www.w3.org/2000/svg"><path fill="#F0F3FA" d="M0 0h18v18H0z"/><path d="m10.9 8.5-.13-.04c-.72-.23-1.2-.4-1.2-1.05 0-.55.4-.95 1.1-.95a1.17 1.17 0 0 1 1.19.7v.04h.16l.3-.75-.03-.02c-.44-.3-.98-.45-1.52-.43-1.35 0-2.22.64-2.22 1.65 0 1 .91 1.43 1.77 1.7l.17.06c.6.2 1.07.38 1.07.97 0 .67-.5 1.16-1.33 1.16a1.65 1.65 0 0 1-1.5-.85v-.03H8.6l-.23.82.04.02c.5.3 1.09.48 1.68.5 1.23 0 2.54-.47 2.54-1.8.01-.96-.83-1.4-1.72-1.7ZM5.96 6.5a2.08 2.08 0 0 1 1.58.76l.03.04h.22L8 6.55l-.05-.04C7.54 6.19 6.8 6 5.95 6 4.17 6 3 7.15 3 8.94c0 2 1 3.06 2.92 3.06a5.53 5.53 0 0 0 1.97-.4l.11-.03V9H7v2.23c-.33.19-.61.27-1 .26-1.31 0-2-.93-2-2.55-.02-1.5.7-2.43 1.96-2.43ZM14 6h-1v6h1V6Z" fill="#0095A2"/></svg>