<!-- by TradingView --><svg width="18" height="18" viewBox="0 0 18 18" xmlns="http://www.w3.org/2000/svg"><path fill="#F0F3FA" d="M0 0h18v18H0z"/><path d="M12 14H9c-1-.55-3-1.94-3-3.16V8.16v.13c.05.47.5 1.43 2.16 2.42A14.37 14.37 0 0 1 12 14Z" fill="url(#a15safl0i)"/><path d="M6 8.31c0 .81.43 1.01.63 1.29.43-.47 1.23-1.05 1.58-1.29.62-.4 1.94-1.28 2.25-1.56.37-.34 1.54-1.25 1.54-2.3 0-.86-.33-1.32-.5-1.45a4.3 4.3 0 0 1-1.16 1.1 86.2 86.2 0 0 1-2.66 1.76C6.53 6.58 6 7.74 6 8.31Z" fill="url(#b15safl0i)"/><path d="M12 10.96a12.75 12.75 0 0 1-3.39-2.51c-.17.2-.51.77-.51 1.48 0 1.2 1.05 2.26 1.57 2.64L12 13.99v-3.03Z" fill="url(#c15safl0i)"/><defs><linearGradient id="a15safl0i" x1="6.11" y1="10.44" x2="10.41" y2="10.94" gradientUnits="userSpaceOnUse"><stop stop-color="#F68121"/><stop offset="1" stop-color="#ED2823"/></linearGradient><linearGradient id="b15safl0i" x1="11.8" y1="4.04" x2="7.36" y2="4.04" gradientUnits="userSpaceOnUse"><stop stop-color="#005DAA"/><stop offset="1" stop-color="#009BDE"/></linearGradient><linearGradient id="c15safl0i" x1="8.2" y1="9.91" x2="11.58" y2="9.91" gradientUnits="userSpaceOnUse"><stop stop-color="#0055A7"/><stop offset="1" stop-color="#00A7E9"/></linearGradient></defs></svg>