<!-- by TradingView --><svg width="18" height="18" viewBox="0 0 18 18" xmlns="http://www.w3.org/2000/svg"><path fill="#F0F3FA" d="M0 0h18v18H0z"/><path d="M13.3 9.67c0 .01 0 .05-.02.04a5.3 5.3 0 0 0-1.68-.92 1 1 0 0 0-.45-.05.17.17 0 0 0-.13.24l1.11 2.47c.1.2.18.42.26.65.05.14.15.22.3.23l1.24.07c.04 0 .07-.03.07-.07-.06-.8-.16-1.5-.3-2.11a2.6 2.6 0 0 1-.07-.75l.02-.28c.03-.47.05-.76-.26-1.08l-.8-.78c-.23-.2-.47-.48-.74-.83-.48-.64-.74-.97-.78-1-.1-.1-.26-.18-.49-.26-.34-.12-.61-.2-.82-.25a3.53 3.53 0 0 1-.8-.31c-.4-.22-1-.44-1.76-.67a.12.12 0 0 0-.12.02 3.45 3.45 0 0 0-.75.82 13.01 13.01 0 0 0-2.26.6.1.1 0 0 0-.05.15c.33.45.63.94.9 1.47a.16.16 0 0 0 .15.09 8 8 0 0 1 1.05.02l1.06.09c.57.02 1.07.01 1.5-.01a.1.1 0 0 0 .1-.13.94.94 0 0 0-.19-.42 8.76 8.76 0 0 0-2.01-1.66C6.55 5.03 6.54 5 6.55 5h.03c1.15.76 1.98 1.32 2.49 1.68a.9.9 0 0 0 .4.16c.04 0 .07-.02.09-.06.2-.44.08-1.12-.08-1.54-.01-.03 0-.04.02-.04h.05c.2.57.4 1.12.62 1.67.04.1.09.18.14.24.15.2.52.16.77.11a3.32 3.32 0 0 0 .8-.25l.03.03-.01.04-.06.04c-.35.2-.68.4-.83.75a.1.1 0 0 0 .02.11l.22.25a973.1 973.1 0 0 1 2.05 1.48Zm-6.78.64-.02-.03v-.03c.65-.49 1.29-1 1.9-1.52.16-.14.28-.29.37-.45a.28.28 0 0 0-.1-.38 3.06 3.06 0 0 0-1.19-.43l-1.36-.2a9.5 9.5 0 0 0-1-.03.21.21 0 0 0-.12.03.23.23 0 0 0-.07.1L4.2 9.28v.04c0 .03.02.06.05.07.72.24 1.44.55 2.16.92.04.02.06.05.07.1.28.78.47 1.52.58 2.19.01.1.07.14.17.11.75-.16 1.45-.27 2.1-.32.07 0 .13.02.18.07.52.5.98 1 1.38 1.5.02.02.05.04.09.04.03 0 .07-.01.09-.04.48-.52.92-1.06 1.31-1.6a.1.1 0 0 0 .01-.11c-.35-.9-.77-1.71-1.24-2.43a1.86 1.86 0 0 0-.61-.6.18.18 0 0 0-.12-.02.18.18 0 0 0-.11.07c-.08.1-.14.22-.18.35a95.07 95.07 0 0 0-.67 2.62l-.03-.01c-.01 0-.02-.01-.01-.02.12-.51.22-1.05.3-1.64.04-.36.03-.78-.02-1.26-.05-.4-.26-.55-.65-.46-.2.04-.37.11-.55.2-.7.36-1.35.78-1.94 1.26-.01.02-.03.02-.04 0Z" fill="#EE001F"/></svg>