<!-- by TradingView --><svg width="18" height="18" viewBox="0 0 18 18" xmlns="http://www.w3.org/2000/svg"><path fill="#F0F3FA" d="M0 0h18v18H0z"/><path d="M8.62 4c.4.1.72.3.95.63.04.04.03.08 0 .1l-1.25.99c-.1.07-.2.1-.33.1a.44.44 0 0 1-.3-.15l-.72-.8c-.04-.04-.03-.08 0-.12.35-.35.74-.6 1.17-.75h.48Z" fill="#F39700"/><path d="M4 7.94V7.5c.09-.33.2-.55.34-.66l2.15-1.72c.02-.02.04-.02.07 0L7.58 6.3c.16.17.37.18.63.03.61-.37 1.16-.28 1.64.27l1.69 1.92c.04.05.04.1-.02.15-.45.4-.93.52-1.43.37a1.85 1.85 0 0 1-.81-.61l-.92-1.07a1.8 1.8 0 0 0-.64-.52c-.35-.13-.73-.05-1.12.27L4.59 8.7c-.04.03-.08.03-.12 0-.23-.2-.39-.46-.47-.77Z" fill="#004099"/><path d="M11.92 9.45a.27.27 0 0 0-.11.22v.08c0 .29-.02.48-.06.59-.18.38-.45.6-.82.67-.7.13-1.62.28-2.77.47-.09.02-.14-.02-.15-.1-.1-.59.02-1.03.37-1.33.2-.17.56-.3 1.08-.39l1.64-.27a.95.95 0 0 0 .79-.65c.06-.18.05-.47-.03-.88-.2-1-.33-1.74-.4-2.22-.01-.04 0-.07.06-.08.6-.13 1.07-.02 1.42.32.2.2.34.53.43 1L13.74 9c0 .04-.01.07-.06.08l-1.55.26a.47.47 0 0 0-.21.1Z" fill="#004099"/><path d="M9.75 14h-.47l-2.66-.93c-.05-.01-.07-.05-.05-.1l.54-1.42c.07-.18.02-.32-.16-.42l-.3-.16a.95.95 0 0 1-.45-.53.96.96 0 0 1-.02-.66c.13-.38.45-1.23.96-2.55.03-.08.09-.1.17-.08.6.2.94.54 1.03 1.03.05.23-.02.58-.2 1.05-.18.47-.3.81-.4 1.03-.17.42-.24.72-.21.9.05.4.28.66.68.8l2.58.9c.05 0 .07.04.06.09-.14.55-.5.9-1.1 1.05Z" fill="#004099"/><path d="m12.58 11.77-.24-1.32c-.08-.44.06-.68.42-.73a14.18 14.18 0 0 0 1-.16c.06-.01.1.01.1.06l.12.61c.07.44-.02.8-.26 1.08-.24.3-.6.46-1.07.51-.04 0-.06-.01-.07-.05ZM6.47 11.81l-.37 1c-.02.05-.05.06-.1.05-.5-.14-.8-.26-.94-.34-.62-.42-.79-1-.48-1.74.02-.05.05-.07.1-.05l1.51.53c.12.04.2.12.26.22.06.11.06.22.02.33Z" fill="#F39700"/></svg>