<!-- by TradingView --><svg width="18" height="18" viewBox="0 0 18 18" xmlns="http://www.w3.org/2000/svg"><path fill="#F0F3FA" d="M0 0h18v18H0z"/><path d="M5 7h-.89L3 11h.89L5 7Zm4 0h-.89L7 11h.89L9 7Zm4 0h-.89L11 11h.89L13 7ZM5.44 7l-.22.7h1.56L7 7H5.44ZM5 8.65l-.22.7h1.55l.23-.7H5ZM13.44 7l-.22.7h1.56L15 7h-1.56ZM13 8.65l-.22.7h1.55l.23-.7H13Zm-.44 1.65-.23.7h1.56l.22-.7h-1.55ZM10.15 7h-.82l-.22.7h.51c.5 0 .56.32.53.48-.09.56-.53.7-.74.7h-.53l-.21.7h.85c.73 0 1.37-.7 1.47-1.64.09-.75-.53-.94-.84-.94Z" fill="#DB0E44"/></svg>