<!-- by TradingView --><svg width="18" height="18" viewBox="0 0 18 18" xmlns="http://www.w3.org/2000/svg"><path fill="#F0F3FA" d="M0 0h18v18H0z"/><path d="M8.06 11h1.97a.1.1 0 0 0 .04-.04.12.12 0 0 0 .01-.1l-2.23-6.7a.12.12 0 0 1 .01-.11A.1.1 0 0 1 7.9 4 .1.1 0 0 1 7.95 4h2.33a.1.1 0 0 1 .06.03l.04.05L13 12.85a.12.12 0 0 1-.02.1.1.1 0 0 1-.04.04.1.1 0 0 1-.05.01H5.11a.1.1 0 0 1-.05-.01.1.1 0 0 1-.04-.04.12.12 0 0 1-.01-.1l1.67-4.76c0-.02.02-.04.04-.05.02-.02.04-.04.06-.04H8.7c.02 0 .03.04.05.04a.1.1 0 0 1 .03.04.12.12 0 0 1 .02.1l-.84 2.68a.12.12 0 0 0 .02.1A.1.1 0 0 0 8 11h.05Z" fill="#F90"/></svg>