<!-- by TradingView --><svg width="18" height="18" viewBox="0 0 18 18" xmlns="http://www.w3.org/2000/svg"><path fill="#F0F3FA" d="M0 0h18v18H0z"/><path d="M5.65 11H2l.64-1h1.83c.41 0 .53-.17.53-.57v-2.7c0-.4.54-.73.95-.73h.72v4a1 1 0 0 1-1.02 1Z" fill="#DA1318"/><path d="M7.5 11V7.54C7.5 6.69 8.17 6 9.06 6h.84c.3 0 .6.08.84.22.2-.14.45-.22.76-.22h1.15c.9 0 1.35.4 1.35 1.25v2.37c0 .35.13.38.5.38h1.2l.3 1h-2.35c-.78 0-1.15-.6-1.15-1.36V7.46c0-.32-.15-.46-.48-.46-.34 0-.52.14-.52.46V11H10V7.46c0-.32-.08-.46-.42-.46-.33 0-.58.14-.58.46V11H7.5Z" fill="#0D4F99"/></svg>