<!-- by TradingView --><svg width="18" height="18" viewBox="0 0 18 18" xmlns="http://www.w3.org/2000/svg"><path fill="#F0F3FA" d="M0 0h18v18H0z"/><path d="M11.25 4.77c.74.08 1.8.28 2.35.6.43.24.77.55 1.02.94.26.4.39.82.38 1.26a3.32 3.32 0 0 1-.44 1.53 6.66 6.66 0 0 1-1.39 1.54 5.4 5.4 0 0 1-1.37.78v-.01l.78-.51c.5-.37.92-.77 1.25-1.22.36-.49.6-1 .72-1.52a2 2 0 0 0-.53-1.93 3 3 0 0 0-1.07-.7 8.08 8.08 0 0 0-1.72-.3l.02-.46Z" fill="#E70112"/><path d="M9.7 4.75h.04c-.03.18 0 .35.06.51 0 .01 0 .02-.02.03a9.7 9.7 0 0 0-2.92 1.17 4.8 4.8 0 0 0-1.78 1.97c-.23.5-.3 1-.2 1.48.1.5.38.93.82 1.28.41.32.91.54 1.5.66.08.02.13 0 .16-.03l.44-.56c.14-.18.28-.37.4-.57.37-.59.77-1.16 1.2-1.72.38-.51.9-1.05 1.53-1.62l.3-.31a.28.28 0 0 0 .06-.2c0-.03-.01-.04-.03-.04a.48.48 0 0 0-.25.07 6.73 6.73 0 0 0-1.16.92.9.9 0 0 1-.76.22c-.08-.02-.2-.06-.34-.13l-.22-.09c-.1-.03-.2-.05-.31-.06a2.6 2.6 0 0 0-.34.03c-.2.02-.33-.04-.38-.17a.28.28 0 0 1 0-.2c.05-.16.22-.27.5-.33A4.09 4.09 0 0 1 8.88 7c.08 0 .26-.05.51-.13 1.56-.53 2.47-.84 2.72-.91.2-.07.35-.1.45-.08.14 0 .25.08.35.23.13.2.09.38-.12.52a24.8 24.8 0 0 0-2.61 2.12c-.4.42-.78.93-1.12 1.51l-.94 1.57c-.22.38-.45.73-.7 1.04-.05.08-.12.12-.2.13-.18 0-.36 0-.56-.03a7.77 7.77 0 0 1-1.76-.45 2.99 2.99 0 0 1-1.47-1.09c-.2-.27-.33-.56-.38-.85a2.7 2.7 0 0 1 .08-1.34c.17-.52.43-1 .78-1.43a7.68 7.68 0 0 1 2.4-1.95c.95-.5 2.3-.92 3.39-1.1Z" fill="#E70112"/><path d="m10.7 4.01.27.27a.1.1 0 0 1 .02.04c.07.23.06.44-.04.62-.12.22-.28.35-.47.39-.4.09-.73 0-.94-.42 0 .01-.02-.06-.04-.07.1-.2.2-.36.31-.5a.94.94 0 0 1 .9-.33Z" fill="#DCDCDD"/><path d="M10.7 4.01c1.27.24.9 2.18-.36 1.97-.58-.1-.89-.64-.83-1.14.22.41.56.58.97.49.2-.04.35-.17.46-.39.1-.18.12-.4.05-.62a.1.1 0 0 0-.02-.04L10.7 4Z" fill="#A8A6A8"/></svg>