<!-- by TradingView --><svg width="18" height="18" viewBox="0 0 18 18" xmlns="http://www.w3.org/2000/svg"><path fill="#F0F3FA" d="M0 0h18v18H0z"/><path d="M10.3 12.75V9.37l2.59 1.88-2.6 1.5Z" fill="#1B95D4"/><path d="M4 12V5.62l1.11.94v6.19L4 12Z" fill="#0F83C6"/><path d="m6.6 5.81-1.49.75v6.19l1.48.94V5.8Z" fill="#7CC3E6"/><path d="M8.81 7.31 6.6 5.81v7.88L8.81 15V7.31Z" fill="#0F83C6"/><path d="m10.3 6.56-1.49.75V15L14 12V6l-1.11.75v4.5l-2.6 1.5V6.56Z" fill="#82C7E8"/><path d="M10.3 6.56v2.82l2.59 1.87v-4.5l-3.7-2.44-1.3.75 2.4 1.5Z" fill="#0F83C6"/><path d="M5.11 6.56 4 5.63 9.19 3 14 6l-1.11.75-3.7-2.44-1.3.75 2.4 1.5-1.48.75-2.22-1.5-1.48.75Z" fill="#AEC81B"/></svg>