<!-- by TradingView --><svg width="18" height="18" viewBox="0 0 18 18" xmlns="http://www.w3.org/2000/svg"><path fill="#F0F3FA" d="M0 0h18v18H0z"/><path d="M9 4c1.14 0 2.06.9 2.06 2-.95.03-1.73.63-2.06 1.51A2.27 2.27 0 0 0 6.94 6c0-1.1.92-2 2.06-2ZM4.98 7.38a1.95 1.95 0 0 0-.07.92 2.37 2.37 0 0 1 2.61.2l-.03.04c.37-.3.84-.5 1.34-.53-.17-.95-1.01-1.68-2.04-1.68-.78 0-1.46.43-1.8 1.05Zm6.23-1.05c-1.03 0-1.87.73-2.04 1.68.5.03.97.23 1.34.53l-.03-.03a2.37 2.37 0 0 1 2.61-.21 1.96 1.96 0 0 0-.07-.92 2.07 2.07 0 0 0-1.81-1.05ZM9 8.33c-1.14 0-2.06.9-2.06 2a2 2 0 0 0 1.77 1.98v.36H6.35v-.36c.35-.05.67-.18.94-.37a2.3 2.3 0 0 1-.64-1.6c0-.64.24-1.2.64-1.61a2.09 2.09 0 0 0-3.01.6c-.18.3-.28.64-.28 1 0 1.01.77 1.84 1.76 1.98v.36H4V13h10v-.33h-1.76v-.36c1-.14 1.76-.97 1.76-1.98a1.96 1.96 0 0 0-.99-1.7 2.1 2.1 0 0 0-2.3.1c.4.41.64.97.64 1.6 0 .64-.24 1.2-.64 1.6.27.2.59.33.94.38v.36H9.29v-.36a2 2 0 0 0 1.76-1.98c0-1.1-.9-1.98-2.02-2H9Z" fill="#44B649"/></svg>