<!-- by TradingView --><svg width="18" height="18" viewBox="0 0 18 18" xmlns="http://www.w3.org/2000/svg"><path fill="#F0F3FA" d="M0 0h18v18H0z"/><path fill-rule="evenodd" d="M12 13a4.98 4.98 0 0 1-6 0h6Zm1.58-2a4.98 4.98 0 0 0 .26-3.27h-.01l-.8.8a6 6 0 0 0-2.33-.08v.96l1.73.24c-.07.19-.22.71-.22 1.35-.52-.22-2.07-.43-3.21-.55V7.61c.63-.28 2.47-.6 4.58-.61a5 5 0 0 0-9.34 3.54c.31-.34.97-1.03 1.45-1.32v.46l1.08-.46v-.66L8 8v2.67H6.77v-.78l-1.08.44v.45c-.3.02-.9.08-1.3.16l.03.06h9.16ZM10 5c-.21.11-.61.44-.54.88L9.32 6c-.14-.07-.6-.18-1.32-.08.32-.17.64-.34 1.17-.22 0-.33.37-.7.83-.7ZM6.5 7.44 6 8.5a14.25 14.25 0 0 1 5.63-1.54c-.08-.13-.3-.5-.54-.96-1.47 0-2.76.43-3.63.86-.06-.43.33-.75.54-.86-.46 0-.83.37-.83.7-.53-.12-.85.05-1.16.21H6a2.99 2.99 0 0 1 1.24.06c-.32.17-.58.34-.74.47Z" fill="url(#aayzbz3hh)"/><defs><linearGradient id="aayzbz3hh" x1="12.85" y1="5.63" x2="4.67" y2="11.57" gradientUnits="userSpaceOnUse"><stop stop-color="#0082BC"/><stop offset=".23" stop-color="#0098DE"/><stop offset=".25" stop-color="#0099DF"/><stop offset=".69" stop-color="#131E60"/></linearGradient></defs></svg>