<!-- by TradingView --><svg width="18" height="18" viewBox="0 0 18 18" xmlns="http://www.w3.org/2000/svg"><path fill="#F0F3FA" d="M0 0h18v18H0z"/><path d="M13.15 6.6 15 12h-1.36a.77.77 0 0 1-.74-.5L11 6h1.25c.4 0 .77.24.89.6Z" fill="#C22222"/><path d="M5 11.06v-3.1c.47-1.01 1.33-1.35 1.79-1.39v3.67c0 .84-.7 1.76-2.18 1.76C3.12 12 3 11.5 3 11.1c0-.38.24-.7.64-.7s.68.18.68.53c0 .35-.2.44-.2.56 0 .13.2.15.26.15.4 0 .63-.38.62-.58Z" fill="#E92320"/><path d="M5 6.5v1.01c.59-.92 1.4-1.17 1.79-1.18V6H5.43c-.3 0-.43.22-.43.5Z" fill="#39343A"/><path d="M7 7.95V6h.65c.37 0 .7.22.81.55l1.38 4.07L9.76 12h-.78a.77.77 0 0 1-.74-.5L7 7.96Z" fill="#C22222"/><path d="M11.06 12H9.5c.17-.16.13-.39.14-.48V6.57c0-.32.37-.57.71-.57h1.85c-.32.04-.63.4-.66.58v4.85c0 .32-.12.57-.47.57Z" fill="#E92320"/></svg>