<!-- by TradingView --><svg width="18" height="18" viewBox="0 0 18 18" xmlns="http://www.w3.org/2000/svg"><path fill="#F0F3FA" d="M0 0h18v18H0z"/><path fill-rule="evenodd" d="M9.04 3.2h-.2v.17h.2v.24h-.29L7 12.95l.18.05 1.07-2.24.8 2.24.73-2.22 1.04 2.17.18-.05L9.52 3.6h-.3v-.24h.21V3.2h-.2V3h-.2v.2Zm0 .6H8.9l-.14.77h.25l.02-.78Zm-.02.95h-.1l.1.09v-.1Zm-.06.28-.24-.2-.09.46.33-.26Zm-.41.74-.11.57h.47l-.36-.57Zm.27.75h-.41l-.08.4.5-.4Zm-.59.94L8 8.72h.82l-.59-1.26ZM8.9 8.9h-.93l-.05.26h.92l.1-.2-.04-.06Zm-.15.44h-.81l.34.94.47-.94Zm-.6 1.17-.31-.9-.46 2.46.78-1.56Zm.8-1.15-.59 1.16.59 1.64v-2.8Zm.19 2.75.52-1.59-.52-1.12v2.71Zm.18-2.77.44.95.4-.95h-.84Zm.9.32-.35.86.72 1.55-.36-2.4Zm-.07-.5-.04-.26h-.93l-.04.07.1.19h.91Zm-.88-.44h.82L9.9 7.46l-.63 1.26Zm.55-1.8-.48-.4h.42l.06.4Zm-.09-.58-.08-.57-.39.57h.47Zm-.54-.23.34-.5H9.2l-.01.5Zm0-.68h.26l-.25-.2v.2Zm.07-.4.32.26-.07-.46-.25.2Zm.06-.28h-.1l-.01.08.1-.08Zm.15-.18H9.2l.02-.78h.12l.12.78ZM9 5.23v.2h-.25l.25-.2Zm-.34.38H9L9 6.12l-.33-.5Zm.32 1.02-.68.54.65 1.39.03-1.93Zm.16 1.9.68-1.36-.65-.54-.03 1.9Z"/><path d="M5 13.94A4.47 4.47 0 0 1 8.87 12c2.22 0 3.68.46 4.13.69l-1.01.66a5.93 5.93 0 0 0-2.97-.66c-1.96 0-2.54.24-4.02 1.25Zm1.83-.4c.24-.33 1.04-.95 2.36-.7 1.31.26 2.16.7 2.42.88l-.62.28a4 4 0 0 0-1.73-.73c-1.16-.22-1.52-.15-2.43.28Z" fill="#A57D47"/></svg>