<!-- by TradingView --><svg xmlns="http://www.w3.org/2000/svg" width="18" height="18"><path fill="#F0F3FA" d="M0 0h18v18H0z"/><path d="M4.12 10.3c1.81-4.06 6.53-5.6 8.07-5.25L9.43 6.53c-2.39.7-3.31 2.37-3.48 3.12-.83.86-1.56.79-1.83.64z" fill="url(#amy5groa3)"/><path d="M4.03 11.3c-.07-.2 0-.8.1-1.01.68.3 1.52-.32 1.83-.66-.3 1.17.2 1.6.51 1.67-.41-.08-1.8-.03-2.44 0z" fill="url(#bmy5groa3)"/><path d="M6.2 13c-.98 0-2.05-.58-2.17-1.73.76-.19 1.89-.2 2.36 0 .65 0 1.45.3 1.71.2a5.3 5.3 0 002.84-1.46l2.04-.74C10.36 12.3 7.44 12.99 6.21 13z" fill="url(#cmy5groa3)"/><path d="M14 6.8a1.97 1.97 0 00-.7-1.37c.06.84-.2 1.26-.33 1.41l-1.29 1.27c.1.81-.6 1.7-.88 1.98l2.17-.8c.37-.52 1.08-1.75 1.03-2.49z" fill="url(#dmy5groa3)"/><path d="M13.3 5.4L8.5 8.73l.89.1c1.02-.96 1.93-.94 2.31-.72 0 0 1.23-.95 1.52-1.64.2-.47.09-1.07.09-1.07z" fill="url(#emy5groa3)"/><path d="M9.46 8.8l-.95-.07.79 1 .16-.93z" fill="#AE8716"/><path d="M10.91 8.66L9.3 9.73l.15-.96c.28-.22.37-.39 1.22-.74.16-.06.38-.03.47-.04v.18l-.22.49z" fill="url(#fmy5groa3)"/><path d="M11.4 9.45l-.82-.3a.37.37 0 000-.27l.34-.25.2-.46V8c.3-.04.5.04.56.09.17.62-.12 1.17-.29 1.36z" fill="url(#gmy5groa3)"/><path d="M9.84 7.5l2.34-2.45-2.75 1.48.4.96z" fill="url(#hmy5groa3)"/><path d="M11.4 9.45l-.82-.3c-.82 1.05-1.78 1.37-2.16 1.4a.8.8 0 00.08.88 4.9 4.9 0 002.9-1.98z" fill="url(#imy5groa3)"/><path d="M7.36 9.11c.49-1.33 1.86-1.64 2.48-1.62l-.4-.97A4.96 4.96 0 006.58 8.4c.1.32.57.61.8.71z" fill="url(#jmy5groa3)"/><path d="M7.55 10.17s-.37-.32-.19-1.06c0 0-.6-.27-.78-.72-.35.43-.51.84-.55.99-.5 1.58 0 2.43 2.5 2.05-.22-.4-.1-.9-.1-.9-.56-.03-.66-.16-.88-.36z" fill="url(#kmy5groa3)"/><defs><linearGradient id="amy5groa3" x1="11.73" y1="5.15" x2="4.73" y2="10.37" gradientUnits="userSpaceOnUse"><stop stop-color="#E5B318"/><stop offset=".6" stop-color="#FED810"/><stop offset="1" stop-color="#F9FE03"/></linearGradient><linearGradient id="bmy5groa3" x1="5.24" y1="9.79" x2="5.24" y2="11.31" gradientUnits="userSpaceOnUse"><stop stop-color="#F9FD03"/><stop offset=".45" stop-color="#FED207"/><stop offset="1" stop-color="#CDA208"/></linearGradient><linearGradient id="cmy5groa3" x1="5.83" y1="11.58" x2="6.13" y2="12.84" gradientUnits="userSpaceOnUse"><stop stop-color="#C59E06"/><stop offset=".44" stop-color="#695300"/></linearGradient><linearGradient id="dmy5groa3" x1="13.5" y1="5.43" x2="12.64" y2="10.1" gradientUnits="userSpaceOnUse"><stop stop-color="#7A5000"/><stop offset=".13" stop-color="#C39B02"/><stop offset=".27" stop-color="#9A7604"/><stop offset=".4" stop-color="#AB830B"/><stop offset=".62" stop-color="#C49A04"/><stop offset="1" stop-color="#C59E06"/></linearGradient><linearGradient id="emy5groa3" x1="10.92" y1="7.12" x2="11.79" y2="8.66" gradientUnits="userSpaceOnUse"><stop stop-color="#F9D811"/><stop offset="1" stop-color="#FEF109"/></linearGradient><linearGradient id="fmy5groa3" x1="11.13" y1="8.27" x2="9.34" y2="9.44" gradientUnits="userSpaceOnUse"><stop stop-color="#695000"/><stop offset=".22" stop-color="#937E20"/><stop offset="1" stop-color="#684C04"/></linearGradient><linearGradient id="gmy5groa3" x1="11.16" y1="7.99" x2="11.16" y2="9.44" gradientUnits="userSpaceOnUse"><stop stop-color="#C59902"/><stop offset=".49" stop-color="#B38E02"/><stop offset="1" stop-color="#E8B400"/></linearGradient><linearGradient id="hmy5groa3" x1="9.43" y1="6.27" x2="10.8" y2="6.75" gradientUnits="userSpaceOnUse"><stop stop-color="#BB8B0A"/><stop offset="1" stop-color="#6D5403"/></linearGradient><linearGradient id="imy5groa3" x1="10.94" y1="9.14" x2="8.5" y2="11.48" gradientUnits="userSpaceOnUse"><stop stop-color="#D4A600"/><stop offset=".13" stop-color="#FAFE09"/><stop offset=".48" stop-color="#FAD608"/><stop offset=".78" stop-color="#F6BA01"/><stop offset="1" stop-color="#AE8203"/></linearGradient><linearGradient id="jmy5groa3" x1="9.46" y1="6.97" x2="7" y2="8.99" gradientUnits="userSpaceOnUse"><stop stop-color="#724D00"/><stop offset=".17" stop-color="#987802"/><stop offset=".39" stop-color="#614F00"/><stop offset=".68" stop-color="#BC910A"/><stop offset="1" stop-color="#9C7C05"/></linearGradient><linearGradient id="kmy5groa3" x1="7.05" y1="8.92" x2="6.75" y2="10.98" gradientUnits="userSpaceOnUse"><stop stop-color="#977708"/><stop offset=".27" stop-color="#A78501"/><stop offset=".5" stop-color="#957407"/><stop offset=".76" stop-color="#C59900"/></linearGradient></defs></svg>