<!-- by TradingView --><svg width="18" height="18" viewBox="0 0 18 18" xmlns="http://www.w3.org/2000/svg"><path fill="#F0F3FA" d="M0 0h18v18H0z"/><path d="m10.15 10.43.97 1a116.56 116.56 0 0 1 1.33 1.35v.01h-.02L9.88 10.8h-.02c-.01.02.04.09.17.21l2.28 2.25v.02a17627.67 17627.67 0 0 1-2.91-2.22h-.02v.01l2.55 2.56v.01l-.01.01a345.62 345.62 0 0 1-2.86-2.18v.02l.59.6.54.54a13.45 13.45 0 0 1 .5.53c-.31.36-.69.62-1.13.76a2.17 2.17 0 0 1-1.94-.4 5.1 5.1 0 0 1-1.66-3.07 7 7 0 0 1-.12-1.68h.03l.66.52h.01l.01-.01a5.5 5.5 0 0 0-.6-.6A192.47 192.47 0 0 0 4 6.75v-.01h.02A682.24 682.24 0 0 0 6.81 8.8a105.29 105.29 0 0 0-2.47-2.5h.01l2.83 2.18h.01l.01-.01v-.02L4.66 5.94v-.01h.01a276.23 276.23 0 0 0 2.86 2.14v-.02c-.77-.78-1.5-1.55-2.22-2.3-.17-.17-.16-.18.03-.03l1.95 1.52c.1.08.27.23.42.31.07.05.08.04.02-.02L5.59 5.36a.02.02 0 0 1 0-.02l.02-.02h.01a1489.35 1489.35 0 0 0 2.53 1.95c.02-.01.02-.02.01-.03l-2.3-2.39v-.01l.01-.01 2.52 2c.14.1.16.11.07.01L6.2 4.5l-.08-.1h.01l2.65 2.07c.1.08.1.07.04-.02a105.57 105.57 0 0 0-1.53-1.62l.02-.04c.2-.22.43-.4.69-.53a2.03 2.03 0 0 1 2.15.1 4.26 4.26 0 0 1 1.55 2.17 7.51 7.51 0 0 1 .4 2.72h-.01a24.01 24.01 0 0 1-.77-.61v.03c.57.56 1.16 1.15 1.75 1.77.25.25.63.62.92.94.01.01.01.01 0 0L11.02 9.1h-.01l-.01.02a17018.23 17018.23 0 0 1 2.43 2.43l-.01.02h-.01a584.99 584.99 0 0 1-2.71-2.07h-.04l.93.93a89.67 89.67 0 0 1 1.53 1.54 664.87 664.87 0 0 1-2.73-2.07c-.03 0-.03.01-.02.03l2.61 2.56a593.7 593.7 0 0 0-2.8-2.08c-.11-.08-.12-.07-.03.03Zm-.36.3-.02-.01c0 .03.01.04.02.03v-.01Z" fill="#05376C"/></svg>