<!-- by TradingView --><svg width="18" height="18" viewBox="0 0 18 18" xmlns="http://www.w3.org/2000/svg"><path fill="#F0F3FA" d="M0 0h18v18H0z"/><path d="m7.51 12 1.02-6h3.97l-.22 1H9.45l-.2 1.5h2.8l-.19 1h-2.8L8.63 12H7.5Zm5.7-6-1.04 6h3.6l.23-1h-2.45l.88-5h-1.21ZM7.14 7l.22-1h-1.4A3.6 3.6 0 0 0 2 9.34c0 .34.03.58.04.66.47.31 1.1.44 1.47.47-.47-.42-.54-1.1-.51-1.38C3.14 7.95 4.22 7 4.85 7h2.29Z" fill="#1279BE"/><path d="M4.39 11a4.14 4.14 0 0 1-2.36-.63c0 .11.61 1.63 2.1 1.63 1.19 0 2.04-.6 2.32-.9l-.15.9h.78l.66-3.5h-2.8l-.21 1h1.5c-.05.37-.5 1.5-1.84 1.5Z" fill="#38A44D"/></svg>