<!-- by TradingView --><svg width="18" height="18" viewBox="0 0 18 18" xmlns="http://www.w3.org/2000/svg"><path fill="#F0F3FA" d="M0 0h18v18H0z"/><path d="M5.74 10.24v.01h-.01c-.32.52-.96.75-1.76.75C2.88 11 2 10.1 2 9s.88-2 1.97-2c.77 0 1.44.46 1.76 1.12l-.71.38c-.17-.49-.58-.83-1.05-.83-.63 0-1.14.6-1.14 1.33 0 .74.51 1.33 1.14 1.33.35 0 .8-.06 1.04-.33v-.33h-.83V9h1.55v1.23ZM7.8 11c.77 0 1.43-.57 1.67-1.36l-.8-.27c-.07.55-.3.96-.91.96-.74 0-.94-.6-.94-1.33 0-.74.19-1.33.94-1.33.51 0 .76.29.87.7l.73-.3A1.74 1.74 0 0 0 7.8 7c-.97 0-1.76.9-1.76 2s.8 2 1.76 2Zm5.71-4h.78v3.33H16V11h-2.49V7Zm-1.97 4c.77 0 1.42-.57 1.66-1.36l-.8-.27c-.06.55-.3.96-.91.96-.74 0-.93-.6-.93-1.33 0-.74.18-1.33.93-1.33.52 0 .77.29.87.7l.73-.3A1.74 1.74 0 0 0 11.54 7c-.98 0-1.76.9-1.76 2s.78 2 1.76 2Z"/></svg>