<!-- by TradingView --><svg width="18" height="18" viewBox="0 0 18 18" xmlns="http://www.w3.org/2000/svg"><path fill="#F0F3FA" d="M0 0h18v18H0z"/><path fill-rule="evenodd" d="M7.25 11h3.5l.9-4h-5.3l.9 4ZM2 11h4.85l-.9-4H2v4Zm14 0h-4.85l.9-4H16v4ZM9.96 8h-.43l-1.21.86V8H8v2h.31v-.86l.08-.06 1.17.92H10L8.62 8.93 9.96 8ZM4.79 9.68c.19-.2.21-.48.2-.75h-.85v.21h.62c0 .36-.37.66-.73.66a.88.88 0 0 1-.58-.24.76.76 0 0 1-.23-.55c0-.21.08-.42.24-.57a.84.84 0 0 1 1.29.12l.16-.14c-.1-.14-.24-.25-.4-.32a1.1 1.1 0 0 0-1.03.06.96.96 0 0 0-.33 1.35c.09.15.22.27.37.36.16.08.34.13.52.13a1.05 1.05 0 0 0 .75-.32ZM13.99 8c.64 0 1.01.23 1.01.62 0 .4-.37.64-1.02.64h-.68V10H13V8h.98Zm-.7 1.06h.68c.47 0 .74-.15.74-.44 0-.28-.27-.42-.74-.42h-.67v.86Z" fill="#475A67"/></svg>