<!-- by TradingView --><svg width="18" height="18" viewBox="0 0 18 18" xmlns="http://www.w3.org/2000/svg"><path fill="#F0F3FA" d="M0 0h18v18H0z"/><path d="M5.07 9.04C5.5 7.44 7.9 5.27 9 4l1 1.03L6.82 8.5c-.32.33-.49.84-.49 1.36 0 1.53 1.2 2.76 2.67 2.76a2.71 2.71 0 0 0 2.67-2.76c0-.63-.2-1.2-.55-1.67L9.5 10H7.67L11 6.24c1.19.72 2 2.1 2 3.62C13 12.15 11.2 14 9 14s-4-1.85-4-4.14c0-.27.03-.54.07-.82Z" fill="#2F6EB5"/><path d="M6.33 5.78c-2.96 3.3-1.7 6.17-.7 7.19C2.1 10.8 2.87 6.79 3.69 5.06a3.71 3.71 0 0 1 2.64.72ZM11.67 5.78c2.96 3.3 1.7 6.17.7 7.19 3.52-2.16 2.76-6.18 1.94-7.91a3.71 3.71 0 0 0-2.64.72Z" fill="#009FE3"/></svg>