<!-- by TradingView --><svg width="18" height="18" viewBox="0 0 18 18" xmlns="http://www.w3.org/2000/svg"><path fill="#F0F3FA" d="M0 0h18v18H0z"/><path d="M2 6h13.11l.89.89V12H2.89L2 11.11V6Zm13 .33H2.35V11H15V6.33Z" fill="#29176E"/><path d="M4.2 10.5h5.9l.26-.26.25.26h3.34c.16 0 .65-.44.65-.84 0-.33-.17-.87-.25-1h.25V7.29l-.74-.61H11.1c-.44 0-.74.44-.74.66h-.1c-.25-.46-.6-.64-.75-.66h-6.3c-.29 0-.51.2-.51.47v1.82c0 .34.93 1.28 1.5 1.54Z" fill="#29176E"/><path fill-rule="evenodd" d="M9.45 7H7v2h2.45c.3 0 .55-.18.55-.4V7.4c0-.22-.25-.4-.55-.4Zm-.76.29h-.56V8.7h.56c.1 0 .19-.08.19-.18V7.47c0-.1-.09-.18-.2-.18Z" fill="#FFF402"/><path d="M5.87 7v.71h-1v-.28h-.72c-.09 0-.15.05-.15.12v1.02h.83V8.3h-.16V8H6v.3h-.17V9H3.8c-.43 0-.79-.27-.8-.6V7.3c0-.17.17-.3.38-.3h2.49ZM11.45 7h2.36v.7h-.76c0-.29-.35-.41-.5-.41-.16 0-.3.06-.3.14 0 .14.24.19.73.3H13c.5.1 1 .28 1 .68s-.48.56-.72.59h-2.1v-.77h.74v.2c0 .1.41.28.62.28.21 0 .34-.14.34-.23 0-.16-.68-.22-.96-.3-.28-.09-.92-.38-.92-.75 0-.3.3-.4.45-.43Z" fill="#FFF402"/></svg>