<!-- by TradingView --><svg width="18" height="18" viewBox="0 0 18 18" xmlns="http://www.w3.org/2000/svg"><path fill="#F0F3FA" d="M0 0h18v18H0z"/><path d="M14 5.8v.67c-.09.52-.37.92-.83 1.2-.49.3-1.04.52-1.65.7-.43.12-1.1.27-2.03.44a3 3 0 0 0-.83.28c-.3.15-.52.34-.67.54-.09.12-.07.27.05.44.1.16.07.2-.1.08-.39-.24-.52-.6-.39-1.07.05-.19.34-.4.85-.6A8.67 8.67 0 0 1 9.95 8c.71-.17 1.23-.33 1.56-.47.56-.24.89-.55.98-.91l-.01-.04h-.05a5 5 0 0 1-1.02.39c-.62.16-1.43.33-2.43.52-.63.12-1.13.33-1.52.64-.46.37-.63.8-.5 1.3v.06c-.03.02-.06.02-.09 0a1.47 1.47 0 0 1-.48-.87c-.04-.33.08-.65.36-.94.35-.37.89-.67 1.6-.92.68-.23 1.49-.46 2.44-.7a4.99 4.99 0 0 0 1.58-.71c.62-.42.88-.86.8-1.31 0-.02 0-.03.02-.04A5.12 5.12 0 0 1 14 5.8Z" fill="#464646"/><path d="M5.29 11.02c.07.11.2.23.36.35.02.01.03.03.02.05l-.04.02c-1-.34-1.55-.96-1.62-1.86-.1-1.12.57-2.02 2-2.7a11.43 11.43 0 0 1 3.8-.92c.04 0 .05 0 .04.03l-.03.03c-.9.22-1.74.53-2.53.94-.56.3-.93.64-1.1 1.01-.2.44-.13.9.22 1.38.21.3.5.56.86.8a10.65 10.65 0 0 0 1.47.8c.61.33 1.1.74 1.43 1.23.36.53.5 1.09.43 1.66-.03.21-.07.21-.12 0-.15-.67-.64-1.29-1.45-1.84a7.02 7.02 0 0 0-2.47-1.05l-.6-.12a1.8 1.8 0 0 0-.57 0 .14.14 0 0 0-.1.08.1.1 0 0 0 0 .11Z" fill="#471D30"/></svg>