<!-- by TradingView --><svg width="18" height="18" viewBox="0 0 18 18" xmlns="http://www.w3.org/2000/svg"><path fill="#22A643" d="M0 0h18v18H0z"/><path d="M14 13.42a.58.58 0 0 1-.58.58H4.58a.58.58 0 0 1-.58-.58V4.58A.58.58 0 0 1 4.58 4h8.84a.58.58 0 0 1 .58.58v8.84Z" fill="#E20A22"/><path d="M5.37 5.67h.59c.03 0 .04.01.04.04v.24L6 6 5.96 6H4.68l-.01-.03v-.54a.6.6 0 0 1 .05-.28c.12-.2.35-.15.58-.14h.02l.01.03v.6l.01.02h.03ZM12.63 5.33h-2.6a.03.03 0 0 0-.03.03v2.93l.01.03.03.01h2.42a.03.03 0 0 1 .01.04l-.07.25c0 .03-.02.05-.05.05H9.79a.63.63 0 0 1-.3-.06c-.1-.06-.16-.16-.16-.3V5.35c0-.23.13-.35.39-.35h3.2c.28 0 .41.13.41.39v2.96c0 .08-.04.15-.12.23-.12.1-.37.09-.51.08a.03.03 0 0 1-.03-.04V5.37c0-.03-.01-.04-.04-.04ZM5.7 7.33l-.03.01V8.3a.04.04 0 0 0 0 .02l.02.01h.28v.02a.04.04 0 0 1 .01.03l-.06.23c0 .04-.03.05-.06.05h-.44a.5.5 0 0 1-.28-.06C5.05 8.54 5 8.44 5 8.3v-.93c0-.02-.01-.04-.04-.04h-.25c-.03 0-.04-.01-.04-.04v-.24c0-.04.01-.05.04-.05h.24C5 7 5 6.98 5 6.95V6.6c0-.05-.02-.07-.06-.07h-.22c-.04 0-.05-.02-.05-.05v-.24c0-.04.02-.06.05-.06h1.23c.03 0 .05.01.05.05v.25c0 .03-.02.05-.04.05h-.22c-.05 0-.08.03-.08.08v.3c0 .05.03.08.08.08h.2c.04 0 .06.02.06.06v.22c0 .04-.02.05-.05.05H5.7Z" fill="#fff"/><path fill-rule="evenodd" d="M10.9 7.14c0-.03.01-.04.04-.04h.7c.02 0 .03.01.03.04v.15c0 .03-.01.04-.04.04h-.47c-.02 0-.04.02-.04.05v.16c0 .03.02.05.04.05h1.07c.02 0 .03-.01.03-.04v-.4l.01-.02c0-.01 0-.02.02-.02l.02-.01h.02a.2.2 0 0 0 .1 0h.01v-.01l.01-.01v-.01l-.25-.46a.04.04 0 0 1 0-.05h.22c.03 0 .05-.03.05-.06V6.3l-.01-.03-.03-.01H11.3c-.04 0-.05-.02-.03-.06l.06-.12c.02-.04.06-.07.1-.07h.9c.02 0 .04 0 .04-.03v-.21c0-.04-.02-.05-.05-.05h-.12l-.01-.01v-.03l.08-.15V5.5h-.4a.05.05 0 0 0-.05.03l-.08.13a.1.1 0 0 1-.09.06h-.04c-.04 0-.05-.02-.03-.05l.1-.18v-.03l-.01-.01H11.08a.08.08 0 0 0-.03.04l-.11.2-.02.02a.06.06 0 0 1-.07 0l-.02-.03-.09-.16c0-.01 0-.02-.02-.02H10.31l-.01.01v.04c.03.05.06.09.07.13 0 .02 0 .04-.03.04H10.22v.25c0 .04 0 .04.04.04h.41c.04 0 .05.04.03.07l-.06.13a.1.1 0 0 1-.04.03.09.09 0 0 1-.04.02h-.37c-.04 0-.06.02-.06.06v.17c0 .05.02.07.06.07h.19l.01.02a.03.03 0 0 1 0 .03l-.25.46v.04h.15c.01 0 .02 0 .03.02l.01.02v.82l.01.03.02.01h1.95a.02.02 0 0 0 .02 0v-.32l-.01-.01h-1.38c-.03 0-.04-.02-.04-.04v-.5Zm.06-.34h.66v-.02a.23.23 0 0 0-.13-.21.23.23 0 0 0-.1-.02h-.2a.23.23 0 0 0-.24.23v.02ZM7.64 7.48c-.02-.1-.04-.1-.06 0l-.11.4c0 .02-.02.03-.05.03h-.38s-.02 0-.03.02v.64c0 .03-.02.05-.06.05-.32.02-.62-.04-.62-.42V6.9c0-.3.22-.4.5-.4a66.62 66.62 0 0 1 .43-.02.1.1 0 0 0 .04-.05l.12-.41.02-.02h.5c.02 0 .03 0 .04-.02A.05.05 0 0 0 8 5.95v-.58l-.01-.03H7.17v.91l-.02.04-.01.02-.03.02h-.27c-.26 0-.37-.1-.38-.38v-.57c0-.13.02-.22.06-.27.05-.08.15-.11.29-.11h1.5c.24 0 .36.13.36.38v.63c0 .1-.06.18-.16.24-.12.08-.34.07-.5.06h-.06c-.04 0-.07.02-.08.06l-.02.07c-.01.04 0 .07.05.07h.62c.29.01.35.23.35.5v1.3c0 .12-.05.22-.16.3-.05.03-.15.06-.3.06h-.37a.02.02 0 0 1-.02-.01.03.03 0 0 1 0-.03l.07-.28c0-.03.02-.04.05-.04h.05c.02 0 .04-.01.04-.04v-.32a.04.04 0 0 0-.04-.04h-.4a.06.06 0 0 1-.06-.05l-.09-.38ZM7 7.5v-.58c0-.03.01-.04.04-.04h.12c.03 0 .04.01.03.04-.08.33-.13.52-.16.59-.02.05-.03.05-.03-.01Zm.72-.41h.34c.02 0 .03 0 .04.02a1.5 1.5 0 0 1 .09.37h.02l.01-.02v-.55c0-.02 0-.03-.03-.03h-.42a.05.05 0 0 0-.05.03l-.03.14a.03.03 0 0 0 0 .03.04.04 0 0 0 .03 0Z" fill="#fff"/><path d="M10.27 10.13h-.71a.02.02 0 0 1-.02-.02l-.25-.74a.03.03 0 0 1 0-.03h.73a.02.02 0 0 1 .02.01l.25.74v.02l-.01.01h-.01ZM11.36 9.67h-.02V12.67h1.97v.01a.03.03 0 0 1 .02.02v.01l-.09.25a.06.06 0 0 1-.06.05h-1.77c-.23 0-.4-.02-.48-.07-.17-.1-.26-.25-.26-.47v-2.42c0-.2.01-.34.05-.42.1-.21.27-.28.51-.29h2.06c.03 0 .04.02.04.05v.25c0 .03-.01.04-.04.04h-1.93ZM10.26 11.2h-.7a.03.03 0 0 1-.03-.02l-.24-.73a.03.03 0 0 1 .03-.04h.7a.03.03 0 0 1 .03.02l.24.73v.02a.03.03 0 0 1-.03.02Z" fill="#fff"/><path fill-rule="evenodd" d="M5.29 10.67h-.6a.03.03 0 0 1 0-.04l.34-.61c.09-.17.17-.33.26-.47.13-.22.33-.22.6-.22H7.6c.14 0 .25.02.31.06a.6.6 0 0 1 .23.23l.28.5a9.03 9.03 0 0 0 .28.54h-.51l-.02.01-.01.03v.71c0 .07-.03.14-.08.19a.25.25 0 0 1-.18.07H6.12a.04.04 0 0 1-.02-.05l.06-.25c0-.03.03-.04.06-.04h1.06c.04 0 .05-.02.05-.06v-.07c0-.04-.02-.06-.05-.06H6.05l-.03.01-.02.03v1.45c0 .02.02.04.04.04h.37a.04.04 0 0 1 .02.02v.02l-.06.24c-.01.03-.03.05-.07.05h-.54c-.23 0-.36-.09-.41-.27a2.71 2.71 0 0 1-.02-.42v-1.6c0-.03-.02-.04-.04-.04Zm1.4-.9a26.01 26.01 0 0 1 .77 0l.02.03.27.48a.03.03 0 0 1 0 .04h-.01l-.01.01h-.69c-.02 0-.04-.01-.04-.04v-.15c0-.03-.02-.05-.05-.05H6.4a.06.06 0 0 0-.04.01.04.04 0 0 0-.02.04v.15c0 .03 0 .04-.03.04h-.66v-.01a.03.03 0 0 1 0-.03l.26-.49s0-.02.02-.02a26.45 26.45 0 0 1 .77-.02Zm-.64.84h1.24c.02 0 .04.02.04.05v.1c0 .02-.02.04-.04.04H6.05a.05.05 0 0 1-.05-.05v-.1c0-.02.02-.04.05-.04Z" fill="#fff"/><path d="M10.02 13H9.3a.02.02 0 0 1-.02-.02v-.01l.4-1.48v-.01h.74a.02.02 0 0 1 .01.02l-.39 1.48V13h-.02ZM7.67 11.9h.63a.02.02 0 0 1 .02.02v.01l-.35.6a.02.02 0 0 0 0 .03l.56.44v.01a.02.02 0 0 1-.01.03h-.68l-1.38-1.1a.02.02 0 0 1 0-.03.02.02 0 0 1 0-.01H7.17l.32.26h.01a.02.02 0 0 0 .02 0l.14-.25a.02.02 0 0 1 .02 0Z" fill="#fff"/></svg>