<!-- by TradingView --><svg xmlns="http://www.w3.org/2000/svg" width="18" height="18"><path fill="#C51E22" d="M0 0h18v18H0z"/><path d="M11.43 5.24c.44-.21.65-.19.66.03 0 .29-.04.67-.07.94-.16 1.5-.43 2.7-.45 4.24a56.3 56.3 0 012.08-4.75c.24-.51.4-.42.6-.5.78-.36.81-.14.7.29-.37 1.59-1.34 6.6-1.49 7.37-.04.23-.28.13-.34.04-.28-.39-.6-.4-.56-.65.17-1.29.8-4.51.97-5.27a61.48 61.48 0 00-2.15 5.1c-.1.27-.26.25-.37.06-.15-.27-.44-.4-.49-.72-.15-1 .17-2.92.22-4.13-.45 1.32-1.22 3.9-1.55 5.05-.14.48-.6.4-.48-.06.51-1.95 1.6-5.4 2.08-6.64.11-.29.4-.28.64-.4zM8.67 5c.13.04.12.2.04.43l-1 2.56a10 10 0 01.4-.04c.35-.04.41.14.31.33-.08.15-.17.05-.5.55-.2.29-.5.36-.67.4-.41 1.1-.85 2.33-1.28 3.63-.06.2-.25.15-.3.07-.2-.28-.35-.29-.5-.52-.02-.03-.06-.09-.04-.18.12-.47.42-1.44.88-2.72l-1.47.32c-.31.84-.62 1.68-.9 2.5-.18.52-.65.42-.49-.07.26-.77.55-1.57.84-2.35-.32-.03-.43-.27-.61-.46-.07-.07-.23-.06-.3-.17-.13-.18-.12-.27.19-.36l1.21-.32c.53-1.37 1-2.53 1.25-3.16.2-.48.7-.43.5.04L5.06 8.46c.48-.11.97-.2 1.45-.3.36-.92.74-1.84 1.13-2.75.02-.06.1-.15.19-.16.26-.05.69-.28.84-.25zm-.9 6.24l.12-.1-.09-.27a4.7 4.7 0 00-.09.12c-.17.24-.07.33.06.25zM8 10.09c.22-.25-.2-.35-.1.02l.01.08.1-.1zm.23.74c.21-.19.42 0 .2.32l-.15.21.07.2c.11.28-.18.35-.27.11l-.02-.06c-.18.15-.38.25-.6.19-.35-.12-.44-.62-.11-1.01.13-.16.23-.27.32-.35a8.35 8.35 0 01-.06-.2c-.05-.16-.08-.35.07-.53.3-.36.97-.04.63.5-.08.13-.18.25-.28.37l.1.34.1-.09z" fill="#fff"/></svg>