<!-- by TradingView --><svg xmlns="http://www.w3.org/2000/svg" width="18" height="18" viewBox="0 0 18 18"><path fill="#F0F3FA" d="M0 0h18v18H0z"/><path d="M12.09 10.53s.02.18-.01.23c-.04.06-.1.06-.16.06-.05 0-.16-.1-.16-.1s-.13.02-.13 0c0 0-.1 0-.16-.03-.06-.04-.13-.05-.12-.06 0 0-.08.05-.14.04-.06 0-.15-.05-.15-.06l-.1-.05-.14-.02-.07-.06-.07.02-.07-.01v-.06l.05-.05H10.75l.01-.1s.06-.08.07-.07h.05l.16.03s.08.02.1 0c.03-.01.08-.06.05-.14a1.4 1.4 0 0 1-.1-.4c0-.11.06-.27.06-.27l.06-.08s-.1-.02-.17.02l-.26.18c-.03.02-.08.13-.11.14h-.05s-.11-.26-.2-.3a1.09 1.09 0 0 0-.33-.11c-.06 0-.02-.1 0-.1.02-.03.15-.08.15-.08H10.45l.07.03.04.05c.02 0 .04.04.04.04s.01.03.03.02l.04-.01.04-.05.04-.05a.35.35 0 0 1 .13-.12l.06-.01-.04-.09-.1-.09-.07-.01-.1-.01h-.05l-.1-.09-.03-.15h-.03v-.01l-.02-.05h-.12l-.13-.06-.06-.08-.07-.01-.04-.08v-.29L9.9 7.9l.06-.13.18-.22.13-.26.1-.13-.01-.08.05-.1.04.02.06.08.01.08v.06l.04.06-.02.14-.07.14-.05.06-.06.06-.08.07-.07.05.06.23h.15v-.07l.06-.07.06-.01v-.09l.15-.05v-.09l.09-.1-.03-.05-.04-.04s-.05-.08-.05-.11.03-.07.03-.08l.11-.1.09-.03.06-.2c.02-.07.16-.16.25-.17h.23l.23.01.07-.09h.17l.03.06.05.05h.2s.07.03.1.08.03.12.03.12v.03s.12.07.13.15c.01.1-.05.18-.05.18s.05.05.04.12l-.09.14s.05.1.03.17c-.03.08-.1.1-.1.1l-.04.01s-.02.12-.05.15c-.03.03-.1.05-.1.05l-.04.02s0 .15-.03.2c-.03.05-.06.06-.06.06s.03 0 .04.05v.1l.14.08c.03.03.03-.03.03-.03s-.05-.1 0-.2c.04-.1.22-.18.22-.18h.03v-.14l.05-.06.05-.02.04.02.04.02.03-.04.03-.04h.1l.04.04.05.1a1.23 1.23 0 0 1 .04.2h.04l.05.05.01.04-.04.11-.03.05-.04.02.07.1.02.09v.06l-.01.06v.02l.07-.03h.05l.04.03c.01 0 .05.04.07.1 0 .06-.02.11-.02.1l-.04.03h-.05l.02.15c0 .05-.03.08-.05.09-.02 0-.08.02-.08 0l-.02-.03-.03-.07s-.01-.02-.04-.02-.07 0-.07.02l-.02.05-.03.05c0 .02-.02.02-.03.03-.01.01.03.22 0 .35-.03.12-.17.27-.23.3-.06.01-.25.1-.25.1s-.04.05-.05.1c0 .03.02.2 0 .23.03 0-.11.07-.11.07z" fill="#FAAA42"/><path d="M10.1 9.27a.48.48 0 0 1 .27.07c.07.04.13.1.18.16l.08.16a.6.6 0 0 1 .02.18c0 .3-.25.56-.55.56a.56.56 0 0 1-.55-.56c0-.32.25-.57.55-.57zM5.9 10.53s-.03.18 0 .23c.04.06.11.06.16.06s.16-.1.16-.1.13.02.13 0c0 0 .1 0 .16-.03.06-.04.13-.05.13-.06 0 0 .08.05.13.04.06 0 .16-.05.15-.06l.1-.05.14-.02.07-.06.07.02.07-.01.03-.02.07.03.04-.03.02-.01.1-.01.12-.02H8.04l.05-.06.02-.08-.03-.08-.08-.03h-.05l-.03-.04-.03-.11.09.03.1.03.1.04h.08l-.02.11.02.06.04.02h.05v.07l.02.03.2-.02h.16l.04-.01.06-.1-.05-.07-.07-.08.03-.01v-.11l-.02-.05-.08-.04-.1-.01-.06-.02-.08.01-.08.02-.12-.1.05-.05h.17l.1-.01.04-.04v-.06l-.02-.07-.06-.05-.05-.03s-.06-.1-.06-.08l-.05-.02.02-.09v-.07l.04-.04-.03-.08V9.1l-.02-.14-.11-.12-.17-.1-.14-.05h-.12l-.12.03-.03-.05h-.07l-.05.01.04-.13.02-.05h.11l.14-.06.06-.08.06-.01.05-.08v-.29l.07-.08L8 7.76l-.18-.21-.13-.26-.1-.13.01-.08-.05-.1-.04.02-.06.07-.02.08v.06l-.04.07.03.13.06.14.06.06.05.06.08.07.07.05-.06.23h-.15v-.07l-.06-.07-.06-.01.01-.1-.15-.05v-.08l-.09-.1.02-.05.05-.05s.04-.07.04-.1l-.02-.08-.12-.1-.08-.03c-.02 0-.04-.14-.07-.2-.02-.07-.15-.16-.24-.17h-.23l-.24.01-.06-.1h-.1s-.07 0-.08.02l-.02.05-.05.05h-.2s-.08.03-.1.08c-.04.05-.03.12-.03.12v.03s-.12.06-.14.15c0 .09.05.18.05.18s-.05.05-.03.11c.02.07.08.15.08.15s-.05.1-.02.17c.02.08.1.1.1.1l.04.01s.01.12.04.15l.1.05.04.02s.01.14.04.2l.05.06s-.03 0-.03.05v.1l-.15.08c-.02.02-.02-.03-.02-.03s.05-.1 0-.2-.23-.19-.23-.18h-.03v-.14l-.04-.06-.06-.02-.04.01a.15.15 0 0 0-.04.03l-.03-.04-.02-.05h-.04l-.06.01-.04.03-.05.1-.03.12v.05l-.01.03-.04.01-.05.04-.02.05.05.1.03.05.03.02-.07.11-.01.08c-.01 0 0 .07 0 .07V8.86l-.07-.03h-.05l-.04.03c0 .01-.05.05-.06.1-.01.07.01.12.02.12 0 0 .03.03.04.02h.04l-.01.15c0 .05.03.08.05.08.01 0 .07.02.08 0 0-.02 0-.02.02-.03l.03-.06c0-.01 0-.02.04-.02l.06.01.02.05.04.06.02.03c.02 0-.02.22 0 .34.03.13.17.28.23.3l.26.1s.04.06.04.1c0 .04-.02.2 0 .24 0 .02.13.08.13.08z" fill="#FAAA42"/><path d="M10.28 7.35c.36-.73.07-1.61-.64-1.97a1.41 1.41 0 0 0-1.92.66c-.35.73-.06 1.6.64 1.97.71.36 1.57.06 1.92-.66z" fill="#FAAA42"/><path d="M9.9 7.62c.5-.51.5-1.34 0-1.85s-1.3-.51-1.8 0-.5 1.34 0 1.85c.5.5 1.3.5 1.8 0z" fill="#BF1F2B"/><path d="M8.54 5.82l.46.27.46-.27.1.2-.56.33-.57-.34.1-.2zm-.37.14l-.1.07v.13l.8.48v.99L9 7.7l.13-.08v-1l.8-.46v-.13l-.12-.07-.81.47-.83-.48zm.05.37l-.12.22.48.28v.57h.23v-.72l-.59-.35zm1.55 0l-.59.35v.72h.24v-.57l.47-.28-.12-.22z" fill="#fff"/><path d="M12.5 12.12v.05c.01.05.25.13.49.21l.1.03c.27.1.59 0 .59 0l.26-.94c.02-.03.09-.16.05-.25-.04-.1-.16-.12-.26-.13h-.07v-.06c.01-.06.2-.24.2-.24s-.27-.04-.34-.02c-.07.01-.08.16-.09.18 0 0-.06.41-.13.48-.15-.06-.31-.16-.46-.24a1.95 1.95 0 0 0-.28-.16c-.16-.05-.2.05-.2.05l-.07.36c-.2-.1-.97-.5-2.04-.64-.9-.13-1.6-.13-2.5 0a6.26 6.26 0 0 0-2.04.64l-.08-.36s-.03-.1-.19-.05c-.06.02-.16.09-.28.16-.15.08-.31.18-.46.24-.07-.07-.13-.48-.13-.48 0-.02-.02-.17-.09-.18-.07-.02-.33.02-.33.02s.18.18.18.24l.01.05h-.07v.01c-.1.01-.22.02-.26.13-.04.1.03.22.05.25l.26.94s.32.1.6 0l.09-.03c.24-.08.48-.16.49-.21v-.05l.1.42c.06.26.15.25.25.19s.87-.35 1.48-.48c.88-.21 2.45-.21 3.34 0 .6.14 1.36.42 1.47.48.1.06.19.07.25-.19l.02-.08.08-.34z" fill="#BF1F2B"/><path fill="#000002" fill-opacity=".6" d="M5 13h8v1H5z"/><path d="M9 3.56c.07 0 .12-.05.12-.12A.13.13 0 0 0 9 3.3a.13.13 0 0 0-.13.13c0 .07.06.12.13.12zm-.7 0c0 .1-.07.17-.17.17a.17.17 0 0 1-.16-.17c0-.09.07-.16.16-.16.1 0 .17.07.17.16zm-.99.6c.14 0 .25-.1.25-.24a.25.25 0 0 0-.25-.25.25.25 0 0 0-.25.25c0 .13.12.25.25.25zm-.4.42c0 .18-.14.33-.32.33a.32.32 0 0 1-.32-.33c0-.18.14-.32.32-.32s.32.14.32.32zm-.27.96c0 .25-.2.46-.45.46a.45.45 0 0 1-.45-.46c0-.25.2-.45.45-.45s.45.2.45.45zM11.8 6a.45.45 0 0 1-.45-.46c0-.25.2-.45.45-.45s.45.2.45.45-.2.46-.45.46zm-.72-1.42c0 .18.15.33.33.33.17 0 .32-.15.32-.33a.32.32 0 0 0-.32-.32.32.32 0 0 0-.33.32zm-.4-.41a.25.25 0 0 1-.24-.25c0-.14.1-.25.24-.25.14 0 .25.1.25.25 0 .13-.1.25-.25.25zm-.98-.6c0 .08.07.16.16.16.1 0 .17-.08.17-.17 0-.09-.08-.16-.17-.16-.09 0-.16.07-.16.16z" fill="#FAAA42"/></svg>