<!-- by TradingView --><svg width="18" height="18" viewBox="0 0 18 18" xmlns="http://www.w3.org/2000/svg"><path fill="#F0F3FA" d="M0 0h18v18H0z"/><path fill-rule="evenodd" d="M11.04 4.55A3.23 3.23 0 0 0 9.23 4h-.17c-.91.04-1.69.4-2.32 1.06-.35.37-.6.8-.76 1.28-.02.05-.03.05-.04 0-.04-.3-.15-.56-.32-.8-.14-.2-.35-.4-.63-.61-.02-.02-.03-.01-.04 0-.15.44-.13.86.04 1.29 0 .01 0 .02-.02.02-.19-.01-.36 0-.52.04l-.02.04c.04.17.1.31.2.44.02.01.01.02 0 .03l-.12.03a.28.28 0 0 0-.16.14.22.22 0 0 0 0 .21c.03.06.1.1.21.14l.24.06c.09 0 .09.04.01.08-.01.01-.04 0-.09-.02-.26-.16-.54-.2-.85-.14-.12.02-.2.08-.25.16-.06.09-.04.18.05.28.02.01.02.03 0 .04l-.17.1c.08.19.21.3.38.38.02 0 .03.01.04.03l.02.06a1 1 0 0 0 .12.2c.06.07.13.11.2.12.1 0 .17-.02.23-.07.04-.03.08-.09.14-.18l.07-.1c.05-.07.14-.14.28-.23l.15-.1c.01-.02.03-.01.05 0l.34.35v.01c-.1 0-.18.02-.25.07a.71.71 0 0 0-.18.2h-.03c-.2-.07-.36-.05-.5.06a.43.43 0 0 0-.18.34c0 .12.04.25.12.37v.05c-.07.15-.08.29-.02.41s.17.21.34.27v.04c-.2.05-.3.19-.3.4 0 .09.02.18.05.27.04.08.1.15.16.21l.1.1c.01 0 .02.01.02.03v.05l.02.2c.02.08.05.15.1.2.02.03.06.06.12.1l.1.08.01.03c.06.3.24.48.54.53l.36-.01c.01 0 .02 0 .03.02.32.72.65 1.11 1.01 1.19h.28c.17-.04.41-.14.72-.31l.24-.13a1.81 1.81 0 0 1 1.7.04l.18.1c.3.17.53.27.7.3h.28a.93.93 0 0 0 .5-.32c.2-.25.37-.54.5-.86.01-.03.03-.04.07-.04.36.07.61-.02.77-.25a.66.66 0 0 0 .06-.14c.03-.1.07-.15.1-.18.18-.13.27-.27.28-.4a10.18 10.18 0 0 0 .03-.24.64.64 0 0 0 .3-.61.39.39 0 0 0-.26-.36c-.04-.02-.04-.04 0-.05a.57.57 0 0 0 .28-.22c.07-.1.1-.22.05-.34l-.03-.12v-.04c.15-.28.15-.5-.02-.67a.47.47 0 0 0-.28-.14.46.46 0 0 0-.3.06c-.08.05-.1.04-.04-.04.1-.15.17-.26.2-.34a.6.6 0 0 0-.01-.4c-.06-.18-.17-.28-.32-.29-.08 0-.22.03-.42.1l-.11.05c-.02 0-.03 0-.03-.02a3.42 3.42 0 0 0-.63-2.3c0-.02.01-.03.02-.03a.65.65 0 0 0 .22-.1c.04-.03.07-.03.1 0 .14.11.28.12.43.03a.95.95 0 0 0 .27-.4.62.62 0 0 0 .04-.42c-.05-.18-.15-.26-.3-.25-.03 0-.06 0-.1.02a.58.58 0 0 1-.17.01.7.7 0 0 0-.4.07h-.03l-.05-.02a.72.72 0 0 0-.2-.08.25.25 0 0 0-.2.08.41.41 0 0 0-.06.07c-.04.06-.08.1-.1.1-.1.04-.21.07-.32.09l-.04-.01ZM5.28 9.16a.41.41 0 0 1-.22.14h-.02v-.03c.02-.09.02-.15 0-.2-.04-.07-.1-.08-.2-.05a.1.1 0 0 0-.07.08c-.02.12.02.21.12.27.01 0 .02 0 .02.02l-.01.02c-.09.07-.11.15-.08.22 0 .01.02.02.03.01a.69.69 0 0 0 .1-.07.68.68 0 0 1 .08-.06c.26-.15.52-.13.77.06a.4.4 0 0 0 .16.04c.02 0 .03 0 .04-.02a.25.25 0 0 1 .14-.08h.15c.07.01.12.02.16.01.05 0 .06-.03.03-.07a3.4 3.4 0 0 1-.47-.9.1.1 0 0 0-.08-.07l-.06-.02c-.04 0-.04 0-.02.04.13.19.14.38.01.56a.23.23 0 0 1-.21.1h-.13c-.1 0-.1-.04-.03-.1.1-.1.14-.17.08-.23a.13.13 0 0 0-.11-.05.18.18 0 0 0-.12.05.06.06 0 0 0-.01.05v.03c0 .14-.02.22-.05.25Zm8.06.14h-.02c-.17-.05-.26-.15-.27-.3 0-.03-.01-.04-.03 0l-.28.43c0 .02 0 .03.02.02l.07-.01c.06-.02.11-.02.14-.02.22-.01.4.07.54.22.01.02.03.02.04 0 .04-.1.02-.17-.08-.24-.02-.01-.02-.02 0-.03a.22.22 0 0 0 .13-.13.2.2 0 0 0-.01-.16c-.03-.05-.06-.07-.1-.08-.05-.01-.1.01-.13.07-.04.05-.05.12-.01.2v.03Zm-.23 1.05c-.02.01-.02.03 0 .04.11.07.14.16.1.27a.3.3 0 0 1-.22.2c-.2.05-.46.04-.77-.04l-.05-.01c-.41-.1-.71-.17-.9-.2a2.8 2.8 0 0 0-.9 0v-.02c.43-.15.8-.38 1.12-.7a7.67 7.67 0 0 1 .24-.18c.3.1.57.08.78-.06.02-.01.02 0 .02.01l-.01.1c0 .01-.01.02-.03.02a.88.88 0 0 0-.36.1c-.11.06-.17.17-.19.31-.01.18.05.31.2.39.15.06.3.06.46 0 .04-.02.05-.04.04-.06h-.02c-.07 0-.12-.03-.15-.08a.17.17 0 0 1-.01-.15c.01-.05.05-.1.1-.12a.24.24 0 0 1 .19-.02l.04-.01c.04-.08.1-.11.16-.12.05 0 .1 0 .16.05a.2.2 0 0 1 .08.13c0 .06-.02.11-.08.15Zm-7.86-.03.1-.28c-.03-.02-.05 0-.08.01a.21.21 0 0 0-.05.1.2.2 0 0 0-.01.11c0 .04.02.06.04.06Zm.73.3c.26 0 .4-.1.45-.28 0-.02 0-.03.03-.03.18-.04.37-.13.56-.25h.04a4.8 4.8 0 0 0 .96.56 3.08 3.08 0 0 0-1.48.11c-.33.09-.56.14-.71.15-.25.03-.44 0-.56-.1-.12-.08-.14-.2-.07-.35 0-.02.02-.02.04-.02s.03 0 .04.02c.04.1.11.16.22.18.07.02.18.02.33.01h.15Zm3.23.8c.2-.33.44-.56.72-.67.03-.01.03-.02 0-.02a.7.7 0 0 0-.14.03l-.08.01c-.43.06-.85.05-1.25-.04-.07-.02-.07 0 0 .02.31.15.55.38.71.67 0 .01 0 .02.02.02l.02-.01Zm-1.11-.36a1.87 1.87 0 0 0-.67-.02 2.85 2.85 0 0 0-.77.23c-.37.16-.64.25-.82.28-.24.04-.4-.04-.5-.26v-.01c.4 0 .79-.07 1.17-.19a2.52 2.52 0 0 1 1.08-.17c.21 0 .38.05.51.12.04.02.04.03 0 .02Zm2.17-.02c-.04.02-.03.03 0 .02.23-.05.45-.06.67-.02a2.85 2.85 0 0 1 .77.23c.37.16.65.26.83.29.24.04.4-.05.5-.26v-.02c-.4 0-.8-.07-1.17-.19a2.54 2.54 0 0 0-1.08-.17c-.22 0-.39.05-.52.12Zm-2.35.34c-.26 0-.47.04-.64.12l-.7.3c-.44.18-.73.21-.87.1-.03-.02-.03-.03.02-.04.24-.03.58-.13 1.01-.3l.46-.17c.21-.07.45-.08.72-.03.03.01.03.01 0 .02Zm3.26.01a1.4 1.4 0 0 0-.72-.03c-.03.01-.03.01 0 .02.26 0 .47.05.64.12.2.1.44.2.7.3.43.17.71.21.85.1.04-.02.03-.03 0-.04a4.83 4.83 0 0 1-1.02-.3l-.45-.17Zm-3.3.36-.65.35H7.2l-.09-.18v-.02c.32-.18.57-.23.77-.17v.02Zm3.3.35h.01l.07-.2c-.2-.09-.37-.15-.51-.18-.15-.04-.22-.05-.24-.02v.01c-.01.03.05.08.18.15a4 4 0 0 0 .48.23Zm-4.42.28c.1-.04.15-.13.12-.2s-.13-.1-.22-.06c-.1.03-.15.12-.12.19s.12.1.22.07Zm5.08-.07c-.03.07-.13.1-.22.06-.1-.03-.15-.12-.12-.2.03-.07.13-.1.22-.05.1.03.15.12.12.2Zm-1.94-.4a2.53 2.53 0 0 0-1.42 0 4.4 4.4 0 0 0-.75.3l-.73.41-.2.08-.04.02c-.02 0-.02.01-.02.02.08.16.17.28.28.36.13.1.27.12.42.09.17-.04.4-.15.7-.32.15-.1.27-.16.35-.2.14-.06.27-.1.39-.13h.62c.13.02.26.07.4.13.08.04.2.1.35.2.29.17.52.28.69.32.15.03.29 0 .42-.1.1-.08.2-.2.28-.35l-.01-.03a4.62 4.62 0 0 0-.25-.1l-.73-.4a4.42 4.42 0 0 0-.75-.3Zm-.73.26H9v-.03c0-.01 0-.02.02-.02l.13-.02c.02 0 .02-.01.03-.02v-.03c0-.02 0-.03-.02-.03h-.18c-.04 0-.06.03-.06.07l.01.3c0 .03.02.05.05.04h.2c.02 0 .03-.02.03-.05v-.02c0-.02-.01-.02-.03-.02h-.12c-.02 0-.03 0-.03-.03v-.03c0-.01 0-.02.02-.02h.11c.02 0 .03-.01.03-.03v-.02c0-.03-.01-.04-.03-.04Zm-.52.24c-.04 0-.06-.03-.08-.08-.02-.07 0-.12.07-.15l.1-.04.01-.01v-.03a.04.04 0 0 0-.03-.02c-.2.02-.3.12-.25.29.01.07.06.12.13.13.07.02.14 0 .2-.04.02 0 .03-.02.04-.04 0-.01 0-.02-.02-.03h-.05a.3.3 0 0 1-.12.02Zm-.56.1.07.15-.01.05a.07.07 0 0 1-.04.02c-.03 0-.06-.02-.07-.05l-.1-.29c0-.03 0-.05.04-.05.08 0 .15.03.22.1h.02v-.02c.01 0 .01 0 0 0l-.05-.1v-.05l.02-.03.03-.02c.02 0 .03.01.04.03a2.38 2.38 0 0 1 .14.34.08.08 0 0 1-.06.04c-.03 0-.05 0-.07-.02l-.16-.11h-.02Zm-.36-.04c.03-.01.06 0 .08.02l.15.27c.01.03 0 .06-.02.08a.06.06 0 0 1-.08-.02l-.15-.27a.06.06 0 0 1 .02-.08Zm-.23.3.1-.01h.05c.1.05.11.1.07.18-.04.06-.1.1-.18.12-.02 0-.03 0-.04-.02v-.03c0-.01 0-.02.02-.03a.5.5 0 0 0 .08-.04c.02-.01.03-.03.02-.04 0-.02 0-.03-.03-.03h-.12a.1.1 0 0 1-.07-.02.1.1 0 0 1-.03-.07c0-.1.06-.16.18-.17l.03.01v.02c.01.03 0 .05-.02.05a.14.14 0 0 0-.08.04c-.03.03-.02.05.02.05Zm2.12-.63.05.06c.01.01.02.03.01.05l-.04.18c0 .02 0 .04.03.04h.02c.02.02.04 0 .04-.02l.08-.31c0-.02 0-.03-.02-.04a.32.32 0 0 0-.17.01c-.02 0-.02.02 0 .03Zm.47.33c-.06-.02-.1-.06-.1-.1-.01-.04 0-.07.03-.1a.16.16 0 0 1 .1-.06c.05 0 .1.02.13.06.07.07.06.15-.01.24-.06.08-.15.1-.28.06-.02-.01-.03-.02-.03-.04l.02-.03h.14v-.03Zm.05-.06c.03 0 .05-.02.05-.05a.05.05 0 0 0-.05-.06.05.05 0 0 0-.06.06c0 .03.03.05.06.05Zm.4.11.02-.01.1.02h.02l.02-.03c0-.02 0-.03-.02-.04-.13-.05-.22-.04-.28.03-.09.09-.1.17-.04.24.03.04.07.06.12.07.04 0 .08-.02.11-.05.04-.03.05-.06.04-.1 0-.04-.03-.08-.09-.1v-.03Zm-.09.2c-.03-.02-.04-.05-.03-.08.01-.04.05-.06.07-.05.03.01.04.05.03.08-.01.03-.04.05-.07.04Zm.24.16c0 .05.02.09.06.11.04.03.08.03.13.01a.22.22 0 0 0 .11-.1c.03-.04.05-.09.04-.14a.14.14 0 0 0-.06-.11.14.14 0 0 0-.13-.01.22.22 0 0 0-.11.1.23.23 0 0 0-.04.14Zm.1.04c-.02-.02-.01-.08.02-.13.04-.06.09-.09.12-.07.02.01.01.07-.02.13-.04.05-.09.09-.12.07Z" fill="#ED1E25"/><path d="M12.52 4.67c0 .02.01.03.02.03h.04a.42.42 0 0 0 .1-.22c0-.07.03-.08.08-.03l.03.03c.04.04.05.08.04.13a.9.9 0 0 1-.21.48c-.04.05-.1.07-.15.06-.06-.01-.09-.06-.1-.13a.5.5 0 0 0 0-.1c-.02-.04-.04-.05-.08-.05-.1.02-.17.08-.24.2-.04.08-.15.12-.3.11-.12 0-.24-.02-.37-.06-.05-.01-.05-.02 0-.04l.1-.01a.6.6 0 0 0 .24-.07c.07-.04.06-.06-.01-.08a4.06 4.06 0 0 0-1.2.2 3.1 3.1 0 0 0-.24.16c-.07.04-.13.06-.2.04-.15-.03-.22-.12-.21-.28 0-.03 0-.04.02-.06a.07.07 0 0 1 .06 0h.03c.1.03.18.03.26 0 .3-.1.6-.18.93-.23l.27-.07.04-.02c.1-.02.16-.08.19-.17 0-.02.02-.04.04-.05a.08.08 0 0 1 .07 0c.1.03.18.08.24.14.01.02.03.02.04 0a.4.4 0 0 1 .37-.13c.05.01.08.03.09.06l.01.1v.06Z" fill="#FFF201"/><path d="m9.85 5.26.04.06c.1.02.1.05 0 .06-.14.02-.28.03-.43.02-.08 0-.15 0-.24.03-.18.07-.32.12-.39.16-.06.02-.09.07-.08.14l-.01.03-.03.02c-.13.04-.24.09-.33.13-.06.02-.1 0-.12-.05l-.04-.08c-.03-.05 0-.09.06-.11l.12-.03.22-.06.84-.33a1.41 1.41 0 0 0 .27-.15h.04c.02 0 .02.01.03.03 0 .04.02.09.05.13ZM5.5 6.13c-.09-.26-.11-.26-.08.02 0 .1.04.23.1.39.02.03 0 .04-.02.02-.18-.14-.31-.33-.39-.57a1.42 1.42 0 0 1-.04-.7c0-.02.01-.02.03 0 .22.16.38.36.5.59.13.25.17.5.14.75 0 .05-.02.06-.04.01-.11-.24-.18-.4-.2-.5Z" fill="#FFF201"/><path d="m10.02 5.75-.25-.11h-.08a.36.36 0 0 1-.14.03.5.5 0 0 0-.28.07l-.1.05a.11.11 0 0 1-.09 0l-.2-.09c-.02 0-.02-.01-.01-.02.02-.03.06-.04.14-.05l.04-.01c.04 0 .08-.03.14-.07a.35.35 0 0 1 .11-.05c.3-.05.59-.03.86.06.04.01.06.05.08.12.05.26.04.52-.04.79a.69.69 0 0 0 0 .31v.13c-.03.1-.04.26-.03.48.01.17-.06.25-.22.24a.64.64 0 0 1-.36-.13.6.6 0 0 1-.12-.1.32.32 0 0 1-.04-.14.72.72 0 0 0-.18-.35 1.36 1.36 0 0 1-.09-.12A1.28 1.28 0 0 0 9 6.6a1.21 1.21 0 0 1-.18-.2.06.06 0 0 0-.05-.04h-.1l-.13-.01a1.19 1.19 0 0 1-.23-.11.09.09 0 0 0-.05-.01l-.4.02c-.02 0-.03-.01-.01-.03a.38.38 0 0 1 .12-.1c.02 0 .02-.02.01-.04l-.06-.12c-.02-.03-.01-.05.02-.07l.21-.11c.02-.01.03 0 .04.01l.01.04.05.13c.03.04.07.06.12.07.2 0 .37.01.52.03.08 0 .24.14.48.41v.01c.04.04.07.04.1 0l.03-.03c.04-.04.04-.09 0-.13l-.11-.14a.06.06 0 0 1-.01-.06c0-.02.02-.03.05-.04.07 0 .11-.03.12-.1.02-.05 0-.1-.05-.16a.05.05 0 0 1-.01-.04c0-.01.01-.03.03-.03.17-.1.31-.07.43.06h.03l.04-.04v-.01Z" fill="#FFF201"/><path d="M11.66 5.83c.18-.02.3.01.37.1.01.03 0 .03-.02.03l-.13-.04c-.02 0-.03 0-.03.02v.02c-.01.02 0 .03.01.03.15.04.22.14.2.31v.01l-.03.02-.01-.01c0-.06-.01-.1-.04-.11-.03-.02-.04 0-.03.02.05.17.02.31-.1.44a.34.34 0 0 0-.07.14c-.02.07 0 .08.05.04l.24-.2c.01 0 .02 0 .02.02v.03a.64.64 0 0 0-.13.37c0 .1.03.1.1.03a.8.8 0 0 1 .16-.14v-.03l-.01-.01h-.03l-.06.04c-.07.04-.1.01-.06-.07.04-.1.07-.2.08-.3 0-.05-.02-.06-.05-.02a.84.84 0 0 1-.2.14V6.7l.14-.22c.04-.05.07-.1.07-.13.02-.06.04-.06.06 0l.04.1a.8.8 0 0 1 .05.21l.04.19c.02.1.04.18.03.23 0 .1-.04.18-.1.26-.01.01-.03.02-.04.01h-.01c-.02-.02-.03-.02-.04 0-.04.03-.05.07-.05.11 0 .02.01.03.03.02.1-.04.17-.09.2-.14.03-.04.04-.03.05 0l-.03.28c-.03.14-.04.24-.03.32 0 0 0 .02-.02.02l-.61.23-.01.04v.01l1.4-.47h.08c.03.01.05.03.06.06.06.12.08.23.06.32a.84.84 0 0 1-.13.25 13.4 13.4 0 0 1-.48.86.54.54 0 0 1-.13.15 1.26 1.26 0 0 1-.17.1.52.52 0 0 1-.23.06 2.32 2.32 0 0 1-.3-.02c-.03 0-.04 0-.05-.02a.05.05 0 0 1 0-.04 1.1 1.1 0 0 1 .14-.25.6.6 0 0 1 .12-.13c.05-.03.1-.04.16-.02h.05c.04-.02.1-.02.19-.01 0 0 .02 0 .03-.02v-.03l.01-.1.08-.06a.74.74 0 0 0 .3-.55V8.3h-.03c-.13.06-.3.2-.48.4l-.15.17c-.04.03-.1.05-.18.03a.4.4 0 0 1-.16-.06l-.18-.16h-.05v.01c-.02.02-.02.03 0 .04l.17.18c.03.03.03.06 0 .09-.23.23-.56.39-.98.46a3.29 3.29 0 0 1-1.12-.02v-.02a.45.45 0 0 0 .04-.34l-.01-.02H9.7v.02c-.03.27-.14.46-.34.57-.2.11-.42.15-.66.14a4.7 4.7 0 0 1-.86-.17.8.8 0 0 0-.6.09l-.6.33a.72.72 0 0 1-.15.04c-.14.03-.24.07-.29.13a.6.6 0 0 1-.3.18c-.11.03-.23.04-.35.04a.1.1 0 0 1-.08-.05.1.1 0 0 1-.01-.08c.06-.18.16-.35.3-.49a.05.05 0 0 1 .04-.01c.03 0 .06 0 .11.02s.1.03.12.02c.04 0 .08-.03.1-.09a.07.07 0 0 1 .09-.03.6.6 0 0 0 .3-.01c.24-.1.45-.22.64-.39a.5.5 0 0 0 .1-.15.4.4 0 0 1 .08-.12c.04-.03.1-.04.16-.03.21.03.45-.05.7-.25.05-.03.1-.13.16-.27a5 5 0 0 1 .03-.07c.02-.04.06-.1.13-.15.07-.06.13-.1.18-.12.21-.09.44-.12.7-.1l.03.03a.3.3 0 0 0 .24.2c.1.02.2 0 .33-.04h.02l.01.02c-.02.25-.07.5-.16.76-.04.13 0 .22.15.25s.3.03.45 0c.2-.04.31-.13.34-.26 0-.04 0-.08-.03-.11a.12.12 0 0 0-.1-.04h-.19a.1.1 0 0 1-.07-.02.1.1 0 0 1-.03-.07c0-.04.02-.09.05-.14l.02-.04c.1-.15.16-.27.2-.35.05-.13.1-.25.1-.36 0-.03 0-.07-.02-.13v-.02c0-.01 0-.03.02-.03.3-.1.5-.3.56-.6.02-.06.02-.16.02-.29v-.11c0-.02 0-.03.02-.04a.55.55 0 0 0 .19-.2v-.02h-.01c-.13.15-.25.22-.36.2-.23-.04-.38 0-.45.12a.1.1 0 0 1-.08.05c-.07 0-.1-.01-.11-.05 0-.02-.02-.02-.03-.02-.06 0-.1-.02-.13-.07a.27.27 0 0 1-.04-.16c0-.05.04-.1.11-.14a1.9 1.9 0 0 0 .39-.34c.09-.11.16-.19.22-.23.02 0 .03-.02.03-.04v-.05c.02-.1.04-.17.08-.2.02-.03.03-.03.04 0l.09.16c0 .02.02.02.04.01a.32.32 0 0 1 .2-.05.94.94 0 0 1 .25.06c.05.01.05.03 0 .04l-.14.05c-.08.04-.08.05 0 .04ZM9.5 5.91v.08c-.01.02-.02.03-.04.03a.34.34 0 0 1-.22-.05l-.02-.02.01-.02c.06-.07.13-.1.2-.11l.04.01.04.08Z" fill="#FFF201"/><path d="M9.92 6.14H9.9l-.02-.03c0-.01 0-.02.02-.03.07-.04.1-.1.09-.2 0-.01 0-.02.01-.01l.03.05c0 .02.02.02.04 0l.01-.02v-.06c0-.03.02-.03.03 0a.2.2 0 0 1 .02.09c0 .02 0 .03-.03.03h-.03l-.03.01-.05.14v.04c.04.1.02.19-.05.26h-.01V6.4a.28.28 0 0 0 .04-.24c0-.02-.02-.03-.04-.02Z" fill="#ED1E25"/><path d="M7.51 6.37a.88.88 0 0 1-.1.08c-.04.03-.08.02-.1-.02l-.08-.11c-.03-.04-.02-.08.02-.1l.5-.27a.07.07 0 0 1 .08 0l.03.06a.3.3 0 0 1-.04.17c-.02.04-.08.08-.17.12a.53.53 0 0 0-.14.07ZM7.16 6.29c.01.06.05.13.12.2l.03.04v.02l-.01.02a112.99 112.99 0 0 0-.25.08l-.77.42c-.16.09-.3.18-.4.29h-.02l-.02-.01-.08-.25c-.01-.03 0-.05.03-.05a.7.7 0 0 0 .18-.06c.33-.18.65-.37.98-.57a.8.8 0 0 0 .17-.14h.02l.02.01ZM5.22 6.74c-.09-.02-.1 0-.03.05.14.12.25.2.33.22.15.06.15.07 0 .05-.34-.06-.61-.25-.83-.58v-.03l.03-.01a.9.9 0 0 1 .8.37c.03.05.02.07-.04.06a.52.52 0 0 1-.2-.09.27.27 0 0 0-.06-.04ZM5.39 7.18c-.1.04-.2.05-.31.04a2.3 2.3 0 0 1-.52-.13c-.04-.02-.04-.05 0-.07a.6.6 0 0 1 .38-.05c.06.01.15.04.27.1l.18.08v.03ZM5.64 7.15c.03.1.06.17.12.22.01.02 0 .02-.01.03a.63.63 0 0 0-.24.08l-.86.6c-.06.03-.11.1-.17.2l-.1.14c-.06.06-.11.06-.16 0l-.04-.05c-.06-.07-.05-.14.02-.19l.1-.08a1.38 1.38 0 0 1 .26-.2c.12-.06.2-.1.23-.15.07-.09.16-.16.27-.23.11-.06.24-.17.4-.31a.37.37 0 0 1 .13-.09c.03 0 .05 0 .05.03ZM9.73 7.77l-.05-.01a.32.32 0 0 1-.14-.06c-.09-.07-.2-.13-.33-.2-.06-.02-.1-.03-.14-.01a.3.3 0 0 0-.1.08.92.92 0 0 1-.06.06.06.06 0 0 1-.04.01.65.65 0 0 1-.3-.07.59.59 0 0 0-.22-.03h-.06c-.02 0-.02 0-.01-.01V7.5s.01-.02.03-.02c.1 0 .15-.06.13-.15 0-.02 0-.03.02-.04a.04.04 0 0 1 .04 0l.24.1c.03 0 .06 0 .08-.03.1-.13.22-.18.4-.14.05.01.12.06.2.15a.7.7 0 0 0 .16.15c.14.07.24.14.3.19h.03a2 2 0 0 1 .54-.04c.24 0 .31.13.22.4-.04.14-.13.32-.27.53a.4.4 0 0 0-.05.1c-.06.18.04.25.3.21.09 0 .12.03.1.1l-.02.04c-.02.08-.07.12-.16.12l-.52.03c-.03 0-.05 0-.07-.03a.1.1 0 0 1-.03-.07.6.6 0 0 1 .04-.13l.03-.12.12-.57a.77.77 0 0 1 .17-.3c.02-.02.01-.02-.01-.01a.3.3 0 0 0-.15.13.1.1 0 0 1-.03.03.58.58 0 0 1-.5.06c-.07-.02-.1-.08-.1-.18 0-.09.03-.16.08-.22a.05.05 0 0 1 .05-.02h.08c.04 0 .04 0 0-.01Z" fill="#FFF201"/><path d="M4.22 7.58c-.01 0-.01 0 0 0v.02c.15.05.27.1.38.18.05.03.05.05-.02.05-.27 0-.52-.08-.75-.22a.05.05 0 0 1-.03-.05c0-.02.01-.04.04-.05a.8.8 0 0 1 .45-.04c.13.02.27.08.43.18l.01.03c0 .02-.02.03-.04.03a9.54 9.54 0 0 1-.47-.13ZM5.41 7.64c.01-.04.05-.04.1-.01.19.1.4.11.63.06l.2-.05c.37-.1.65-.15.83-.15.3-.02.58.04.84.17.22.12.4.3.5.52v.04l-.14.14h-.04c-.16-.1-.39-.14-.68-.14a5.87 5.87 0 0 0-.73.08c-.38.05-.68.05-.9 0-.3-.07-.55-.24-.74-.52-.02-.02-.01-.04.01-.05l.1-.05.02-.04ZM9.32 7.84a.03.03 0 0 0-.03-.03l-.03.01a6.27 6.27 0 0 0-.18.17.26.26 0 0 1-.2.02.07.07 0 0 1-.03-.02 1.67 1.67 0 0 0-.07-.08.39.39 0 0 0-.12-.08.4.4 0 0 1-.1-.05c-.08-.08-.07-.11.04-.1l.27.04a.1.1 0 0 0 .1-.04c.06-.06.12-.1.2-.12h.04c.12.04.24.1.36.2v.02a.36.36 0 0 0-.14.22c0 .01 0 .02-.02 0a.42.42 0 0 1-.1-.16Z" fill="#FFF201"/><path d="M8.18 7.98c0 .04-.01.04-.05 0-.03-.04-.11-.08-.24-.12-.2-.05-.42-.07-.67-.06a7.11 7.11 0 0 0-1.02.14.87.87 0 0 1-.61-.12c-.07-.05-.06-.05.01-.03.14.06.31.07.52.06.12-.01.3-.04.55-.1l.48-.08a1.6 1.6 0 0 1 1.03.3Z" fill="#ED1E25"/><path d="M4.17 7.89c-.1.02-.1.04 0 .04l.14.02c.09.02.1.05.01.09a.53.53 0 0 1-.26.04c-.1-.01-.2-.05-.25-.11a.05.05 0 0 1-.01-.04c0-.02 0-.03.02-.04a.57.57 0 0 1 .4-.05.02.02 0 0 1 .02.03l-.02.01h-.05Z" fill="#FFF201"/><path d="M6.93 8.13c-.23.04-.4.05-.5.05-.35 0-.6-.06-.77-.18-.06-.05-.06-.05.01-.02.17.07.37.11.6.1.17 0 .38-.01.64-.05.23-.04.4-.06.5-.06.35 0 .6.07.77.18.06.05.06.06-.02.03a1.43 1.43 0 0 0-.6-.11c-.16 0-.37.02-.63.06Z" fill="#ED1E25"/></svg>