<!-- by TradingView --><svg width="18" height="18" viewBox="0 0 18 18" xmlns="http://www.w3.org/2000/svg"><path fill="#F0F3FA" d="M0 0h18v18H0z"/><path d="M4.2 8.73a1.86 1.86 0 0 0 .94.24 4.57 4.57 0 0 1 8.3-2.61.03.03 0 0 0 0-.03 5.83 5.83 0 0 0-2.7-2.07l-.03-.01a5.6 5.6 0 0 1-.12-.04c-.09-.03-.18-.06-.26-.07a6.83 6.83 0 0 0-.42-.08l-.12-.02C9.5 4 9.2 4 8.87 4h-.05a2.64 2.64 0 0 0-.32.02l-.07.01-.32.05-.27.06a5.12 5.12 0 0 0-3.88 4.4l.02.03.23.16Zm3.57-.79h-.06l-.01-.09-.02-.08.14-.02v.09l.02.1h-.07Zm-.7.08h-.05v-.04L7 7.84l.11-.01v.02l.02.16-.06.01Zm.4-.05.13-.01v-.09l-.02-.1-.08.02h-.04v.06l.02.12ZM7.33 8h-.07a4.45 4.45 0 0 0-.02-.17l.07-.01h.05v.07l.01.1-.04.01Zm7.51-.27c.05 0 .1 0 .16-.02H15a22.42 22.42 0 0 0-1.06 1.46l-.06.08a.35.35 0 0 1-.04.04l-.08-.32-.03.01-.07.04-.45.28-.13.08a5.67 5.67 0 0 1-.95.5l-.2.1c-1.57.74-3.3 1.27-5.06 1.16-.17-.02-.36-.02-.57-.03-.77-.03-1.73-.06-2.45-.38-.29-.13-.57-.28-.85-.45l.16-.83s.52.67 2.23.97c1.71.3 4.4-.19 5.15-.36.57-.13 1.13-.3 1.67-.52l.1-.03.25-.12a9.4 9.4 0 0 0 1.29-.7c.41-.28 1.1-.93 1.1-.93l.02-.02a3.29 3.29 0 0 0-.25.12l-.07.04-.09.04-.08.05-.1.06-.16.08-.38.18c-.38.2-1.56.72-1.56.72-1.58.54-3.22.87-4.88.98-3 .22-4.19-.94-4.19-.94l.16-.78v-.05l.01-.02.04-.17s-.27 1.9 5.7 1.45c1.19-.09 3.17-.74 4.44-1.2l-.24-.24-.15-.16a1.1 1.1 0 0 1-.1-.11 35.2 35.2 0 0 1 .63.01c.21 0 .42 0 .63-.03l.33-.03.17-.01ZM12 6.19c-.2.02-.4.05-.6.1l-.04-.78-.02-.01-.01-.01-.8 1.06.03.46a.34.34 0 0 1-.03.02l-.22.1L10.24 6h-.02V6l-.8 1.05.02.47-.24.11-.07-1.1-.02-.01-.8 1.05.03.45-1.16.53-.67.3a.1.1 0 0 1 .02-.13 4.8 4.8 0 0 0 .4-.2c.03 0 .04-.02.05-.05l.03-.04c-.37-.01-.4-.03-.37-.24l.32-.04a26.51 26.51 0 0 0-.02-.35l.92-.1.02.13v.08l.02.1c.1-.05.1-.21.02-.42l-.35.05-.03-.14-.02-.08-.7.3a23.45 23.45 0 0 0-.07-.53H6.7l-.11.02.01.14.04.33v.1l-.17.08-.07-.48-.17.02.02.15.05.38-.1.04.01.05.01.14v.02a5.63 5.63 0 0 0 .05.45c0 .02-.02.04-.04.06l-.28.26-.08.08s.1 0 .25.03h.02c.64.06 2.3.2 3.53-.07 1.58-.34 2.35-.7 2.35-.7a.3.3 0 0 1-.15-.26c0-.2.07-.4.17-.57l.2-.36.32-.6.07-.2.05-.11H12ZM8.36 7.57l.58-.79-.46.78h-.12Zm.15 0 .3-.52-.3.59v-.07Zm.02.37-.01-.24.59-1.12.06 1.06-.64.3Zm.94-.89.58-.78-.46.77-.12.01Zm.15.01.3-.52-.3.58v-.06Zm.02.37-.02-.25.59-1.12.07 1.08-.64.3Zm1.05-.94a.33.33 0 0 0-.14.08v-.02l.61-.78-.42.7-.05.02Zm.1-.03.25-.42-.21.4-.04.02Zm.08-.03.45-.87.05.74-.5.13ZM9.2 13.36a4.73 4.73 0 0 0 4.72-2.68 7.31 7.31 0 0 0-.04.11v.02A5.23 5.23 0 0 1 9.22 14h-.14a5.45 5.45 0 0 1-4.49-2.56l-.07-.12a10.06 10.06 0 0 0 1.45.16l.03.04a4.59 4.59 0 0 0 3.2 1.84Z" fill="#F1B41C"/></svg>