<!-- by TradingView --><svg width="18" height="18" viewBox="0 0 18 18" xmlns="http://www.w3.org/2000/svg"><path fill="#181B1E" d="M0 0h18v18H0z"/><path fill-rule="evenodd" d="M8.21 3.52c.06.19.1.37.1.54l.02.28a.04.04 0 0 0 .02.04c.34.2.7.3 1.1.32.17 0 .34-.02.5-.07.26-.06.5-.1.73.1l.03-.01c.16-.18.06-.34-.15-.38-.15-.04-.3-.05-.45-.03l-.59.04h-.04c-.25-.03-.55-.05-.76-.17-.23-.16-.27-.38-.04-.56.14-.1.3-.14.45-.18l.12-.03c.3-.08.61.08.82.28v.02c-.26.12-.71.2-.92 0a.07.07 0 0 0-.04-.02c-.12-.03-.32 0-.35.14-.1.4 1.06.3 1.53.25h.13c.31-.03.62.1.67.45a.6.6 0 0 1-.11.37c-.04.02-.06.05-.05.08.04.18.04.36.02.53-.03.15 0 .25.14.31h.05c.08 0 .14.03.18.1v.04c-.07.21-.11.43-.14.66 0 .01 0 .02.02.02l.19-.03.27-.04.08-.02c.52-.12.91-.22 1.36 0l.32.44h.03l.16-.07c.2-.1.42-.22.62-.23.44.02.47.34.48.66v.11l.03.02 1.14-.36h.02l-.7 1.14c-.02.01-.01.02 0 .03l.45.45.34.33v.03c-.71.24-1.2.4-1.48.48-.04.02-.06 0-.13-.02-.2-.11-.13-.45-.13-.64 0-.02-.01-.02-.03-.02l-.52.27c-.22.1-.5.22-.74.25a496.53 496.53 0 0 1-.02 1.52c0 1.85-2.31 3-3.62 3.95-.3.2-.49.09-.73-.07a6.19 6.19 0 0 0-.07-.05c-1.35-.95-3.56-1.92-3.62-3.7-.02-.49 0-1.14.02-1.62 0-.02-.01-.03-.03-.03-.42-.06-.7-.26-1.08-.49-.01 0-.02 0-.02.02v.1c0 .26.02.61-.39.49A168.63 168.63 0 0 0 2 9.09l.74-.8c.02-.01.02-.03 0-.04l-.3-.5-.4-.59a.01.01 0 0 1 0-.01.01.01 0 0 1 .02 0l1.24.43a.02.02 0 0 0 .01 0 .02.02 0 0 0 0-.01v-.14c0-.32-.01-.68.45-.68.25.06.5.16.74.31l.03-.01c.1-.46.46-.7.92-.61.45.08.9.14 1.36.2.02 0 .03-.03 0-.03-.1-.03-.34-.11-.28-.26.04-.09.12-.1.2-.1.08-.02.16-.03.21-.1.08-.12.06-.34.05-.5v-.04c-.01-.06-.04.07-.04.07l-.01.02a.04.04 0 0 1-.06 0l-.08-.13-.1-.2a1.4 1.4 0 0 1-.07-.61V4.7a.46.46 0 0 1-.04-.39v-.05A.25.25 0 0 1 6.61 4v-.05c-.1-.13.1-.4.18-.49a.08.08 0 0 0 .02-.04c.03-.13.18-.25.3-.32.32-.21.71-.07.91.23l.14.16.04.03Zm-.8-.1c0 .24-.23.25-.43.22l-.04.01-.13.18c-.03.04-.1 0-.07-.05a.45.45 0 0 1 .13-.15c.01-.01 0-.03-.02-.02a.3.3 0 0 0-.18.3c0 .04.05.06.08.03l.13-.13.02-.01c.01 0 .03 0 .04.02 0 .05-.01.1-.03.14-.02.05-.03.1-.02.15l.05.19c.06.21.1.42.31.58.07.05.1.03.12-.04a.3.3 0 0 0 0-.1c0-.03.09-.04.09 0l.01.13c0 .03.04.04.06.03.25-.16.4-.6.36-.88 0-.05.04-.08.09-.06l.1.04c.01 0 .03 0 .02-.02a.26.26 0 0 0-.18-.1c-.05-.01-.06-.03-.04-.07.03-.06.03-.11 0-.16a.03.03 0 0 0-.04 0c-.23.05-.37-.03-.4-.22l.05-.2h.03l.03.22.02.02c.03 0 .04 0 .05-.03h.04a.9.9 0 0 1 .04.08c.02.04.07.05.1.02.05-.05.1-.1.18-.12V3.4c-.3-.43-.76-.41-1.07.02-.01.02 0 .03.02.02a.2.2 0 0 1 .19.06.05.05 0 0 0 .04.02c.05-.01.08-.04.09-.1 0-.03.04-.05.07-.03.05.04.05-.06.04-.1v-.04c0-.02.04-.02.04 0l.01.18Zm3.1 1.28c-.2-.08-.4-.03-.6.02l-.1.02a2.4 2.4 0 0 1-1.43-.25l-.03.01a.75.75 0 0 1-.15.35.07.07 0 0 0-.01.04c0 .19-.06.35-.18.5l-.03-.01a.22.22 0 0 0-.03-.1c-.01-.01-.03 0-.03.01.01.12-.12.46-.23.5a.1.1 0 0 0-.04.02l-.15.17c-.02.02-.03.02-.04-.01l-.06-.25V5.7c-.02 0-.04 0-.05.02 0 .17-.08.05-.06.24.02.11.03.23-.07.33a.48.48 0 0 1-.16.08c-.1.04-.2.08-.2.23 0 .01.01.02.03.02l.03.01c.04-.17.18-.13.04.02h.44l.05-.08c.06-.13.11-.22.28-.28a.5.5 0 0 0 .36-.41c0-.04.02-.04.03 0 .16.45 1.6-.38 1.85-.15a1 1 0 0 0 .44.27l.21.03c.16.01.22.02.2.33a.1.1 0 0 1-.14.08.26.26 0 0 0-.13-.03.06.06 0 0 0-.04.03.17.17 0 0 0-.03.15c0 .02.03.03.05.02l.04-.04c.02 0 .04 0 .03.02l-.02.05c-.01.04.04.07.07.05l.03-.04a.23.23 0 0 1 .1-.12c.02 0 .03.01.02.03l-.05.07c-.01.02 0 .04.01.04.05.02.08 0 .1-.04.03-.03.05-.06.1-.06.01 0 .02 0 0 .02l-.04.04.01.03c.06 0 .11 0 .16-.04a.07.07 0 0 0 .03-.04l.13-.64c0-.02 0-.03-.02-.03a.2.2 0 0 0-.06-.02c-.32-.02-.3-.26-.29-.5.01-.13.02-.27-.03-.37-.02-.04-.02-.07 0-.09.23-.27.26-.61-.12-.75-.2-.07-.56-.03-.82 0h-.1c-.26.03-.96.04-1.08-.17-.33-.57.94-.38 1.15-.34.01 0 .03 0 .01-.01-.2-.2-.43-.24-.7-.17l-.1.03c-.2.05-.37.09-.49.3v.04c.05.46.77.42 1.36.4.24-.02.47-.03.6 0 .23.04.32.18.27.4a.22.22 0 0 1-.12.14.04.04 0 0 1-.03 0l-.17-.1Zm-2.36 0c.02-.1.03-.5-.1-.55-.01 0-.03 0-.02.02 0 .05.02.1.03.14a.1.1 0 0 1 .01.05 1 1 0 0 0 .04.34c.02.06.03.05.04 0Zm-.23.06-.04-.1c-.02-.03-.02-.03-.02 0 .01.17.06.33.13.48.05.08.07.08.08-.02.02-.15 0-.3-.02-.45v-.14c0-.11 0-.26-.04-.3L8 4.24a.97.97 0 0 0 0 .5c0 .02-.02.05-.05.04l-.02-.02Zm.29-.52a.44.44 0 0 0 .04.36c.01.02.02.01.03 0a.7.7 0 0 0-.03-.36c0-.02-.04-.02-.04 0Zm-1.48.37.13-.32h-.04c-.05.01-.12.1-.13.2 0 .02.03.14.04.12Zm.07 0c-.07.15-.2.5-.02.62h.02c.08-.2.09-.41.04-.63H6.8Zm.11.78.01.07c0 .04.02.04.04 0a.6.6 0 0 0 0-.57h-.02l-.04.18-.01.04c-.03.1-.11.35-.04.38 0 0 .02 0 .02-.02 0-.03 0-.06.02-.08 0-.03.02-.03.02 0Zm.84-.5a.77.77 0 0 0 .08.62 10.68 10.68 0 0 1-.05-.6l-.03-.02Zm-.12.04c-.1.2-.09.4.04.6.02.03.06 0 .05-.02a1.47 1.47 0 0 1-.06-.58s-.01-.02-.03-.01Zm.22.02a.35.35 0 0 0 0 .26c.02.02.03.02.04 0a.42.42 0 0 0-.02-.26c0-.03-.02-.03-.02 0Zm-.44.54a.43.43 0 0 1-.24-.38.22.22 0 0 0-.08-.17c-.02-.02-.03-.01-.03.01.03.23.13.37.24.53a2 2 0 0 1 .2.36c0 .01.01.02.02 0 .09-.14.06-.26.02-.4l-.01-.06a.03.03 0 0 0-.03-.02l-.02.01c-.01.03-.03.14-.07.12Zm.1-.22v-.28l-.01-.01-.02.01a.16.16 0 0 0-.03.08v.07c0 .03 0 .14.05.14Zm-.2-.16a.08.08 0 0 1-.04-.06c0-.04-.01-.04-.03 0a.2.2 0 0 0 .07.25c.02.02.03.01.03 0a.4.4 0 0 0 .02-.28L7.35 5h-.01v.07c0 .02-.02.03-.03.02Zm-.2.5.03.05h.03a.1.1 0 0 1 .04-.06l.04.06c.02.03.03.03.02 0a.75.75 0 0 0-.1-.27c-.01-.02-.03-.02-.03 0a.37.37 0 0 0-.02.22Zm-.34.96c.03 0 .24-.24.34-.26l.04-.01c.18-.2.1-.33 0-.5l-.05-.1c-.01-.02-.05-.01-.05.01 0 .11 0 .22-.02.33-.03.21-.14.23-.25.25-.08.01-.16.03-.2.12l.2.16Zm2.82-.37c-.05.18-.24.37-.44.25-.2-.06-.33.21-.2.24.01 0 .02 0 .02-.02 0-.03.01-.06.04-.07.03-.02.04-.01.02.02l-.02.08v.03c.02.02.05.02.07.02.02 0 .03-.01.03-.03.01-.05.03-.08.07-.1v.12c0 .02.01.02.02.02l.02-.01c.01-.06.05-.1.1-.11.02-.01.03 0 .02.02 0 .02-.02.04-.05.06-.02.02 0 .05.02.05.13 0 .23-.05.29-.16a.1.1 0 0 1 .03-.04c.13-.09.28-.16.44-.2a.08.08 0 0 0 .03-.12 1.2 1.2 0 0 0-.12-.11c-.07-.07-.1-.14-.08-.2-.01-.06 0-.1.02-.14.02-.03-.02-.08-.06-.06-.14.08-.28.14-.44.2a.08.08 0 0 0-.04.12l.05.02c.07.02.12.06.16.12Zm.5-.06c.15.11.1.25-.06.32a.65.65 0 0 0-.45.27c-.01.02 0 .03.02.03l.29-.02.57-.03c.02 0 .02-.02.01-.03-.16-.12-.02-.4.21-.29h.03c.03 0 .06-.02.05-.05l-.01-.2a.03.03 0 0 0-.03-.03c-.18 0-.35-.03-.5-.1l-.23-.15c-.02-.01-.04 0-.04.02-.01.12.03.2.14.26Zm-1 .22c.2.12.34.08.44-.11V6.2a.18.18 0 0 0-.12-.08l-.1-.14a.03.03 0 0 0-.04 0c-.36.1-.73.14-1.12.1-.06-.02-.08.02-.1.05l-.02.04c-.09.1-.2.16-.35.2-.06.02-.15.16-.2.26l-.04.06c0 .01 0 .03.02.03.48.05.96.07 1.44.05.01 0 .02-.01 0-.02-.18-.17.03-.35.2-.4Zm-4.4.87v1.12c0 .02.01.02.03.02.14-.03.21-.01.28 0 .78.17 1.66.28 2.4.36 1.85.2 3.65-.13 5.46-.42l.43.05c.01 0 .02 0 .02-.02v-.28c.03-.68.05-1.49-.82-1.48-.16 0-.26 0-.31.02-.65.2-1.38.23-2.1.27l-.27.02h-.15l-.87.04H8.1c-.86-.07-1.71-.18-2.57-.33a1.05 1.05 0 0 0-.42 0 .56.56 0 0 0-.42.63Zm9.88-.07c0-.29-.3-.38-.54-.27a42.76 42.76 0 0 0-.58.3v1.36c0 .24-.16.44-.31.63l-.05.07c-.02.01-.01.02 0 .02.5-.1.94-.64 1.42-.65.02 0 .04 0 .04-.02 0-.48.03-.96.02-1.44Zm-10.1.04c-.3-.17-1-.58-1.01.06v1.37l.04.03c.12 0 .21.02.26.06.31.24.63.45 1.01.56.02 0 .03-.02.02-.03-.24-.23-.26-.47-.25-.82a48.24 48.24 0 0 0-.03-1.2l-.05-.03Zm10.22 1.66c0 .2-.02.4-.24.42-.08.01-.09.14 0 .16l.09-.01.48-.15.69-.23c.02 0 .02-.02 0-.03l-.17-.18-.53-.52v-.04l.54-.87c0-.01 0-.03-.02-.03l-.82.26c-.02.01-.02.02-.02.04v1.18ZM2.93 8.31l-.66.71v.02l1.21.37c.08.03.21-.09.14-.1-.23-.02-.34-.13-.35-.35l.03-.15.02-.15a218.62 218.62 0 0 0-.02-.93l-.87-.3a.02.02 0 0 0-.02 0 .02.02 0 0 0 0 .02l.52.81v.05Zm6.75.59v.02l.26.36.03.01 2.78-.02c.03 0 .05-.02.05-.05v-.75l-.03-.02c-.28.03-.5.1-.78.16-.68.15-1.36.2-2.05.27l-.26.02Zm3.29.23c.14-.13.55-.73-.01-.68-.02 0-.02 0-.02.02v.65c0 .01.02.02.03.01Zm-8.1-.62c-.44-.01-.12.5.03.63l.02-.01v-.58a.04.04 0 0 0-.05-.04Zm3.33.43.52.2h.05l.47-.2c.01-.01.03 0 .03.01l-.03.28c0 .01.01.03.03.03h.34l.02-.03-.02-.29a24.5 24.5 0 0 0-.62-.02c-.41 0-.82.01-1.2-.03a26.33 26.33 0 0 1-2.73-.35v.71c0 .02.01.03.03.03H8.2c.02 0 .03-.01.02-.03l-.05-.29c0-.02.01-.03.03-.02Zm-4.66.22c.07.05.11.03.11-.06v-.24a.07.07 0 0 0-.05-.06c-.26-.06-.23.26-.06.36Zm5.51.74c.1 0 .22 0 .26-.05.03-.06-.09-.17-.17-.24l-.06-.06c-.03-.04 0-.2.02-.3l.01-.08-.02-.02-.33.15c-.05.02-.11-.02-.18-.06-.07-.04-.15-.09-.2-.08-.02 0-.02.01-.02.02l.08.36c.02.05-.05.09-.12.13-.08.06-.17.12-.15.19.02.06.18.07.29.08h.02c.02 0 .07 0 .08.02l.04.08.02.03c.03.06.08.18.13.18.07 0 .1-.1.12-.18.02-.08.04-.15.09-.16h.1Zm-1.13.7c.82 1.33 2.9-.04 1.87-1.33h-.01c-.03.58-.2 1.14-.82 1.34-.32.1-.66.1-1.03-.03-.01 0-.02 0 0 .02Zm1.34-1.25a.1.1 0 0 0-.04.08v.06c.01.03.03.08.07.08.02 0 0-.13 0-.2 0-.02 0-.04-.03-.02Zm.29 0h-.17c-.02 0-.03 0-.03.02-.02.07.02.52.19.47.09-.03.05-.32.04-.44 0-.02 0-.05-.03-.05Zm-.56 5.5a.96.96 0 0 1-.44-.24c-1-.92-3.49-2.25-3.49-3.45-.02-.58 0-1.09 0-1.7 0-.03.01-.04.03-.04h2.54c.02 0 .03.02.03.04l-.01.7c0 .06-.12-.07-.13-.08 0 0-.02-.04-.03-.03l.1.28c.14.32.32.53.46.65.13.11.35.3 1.06.3.32 0 1.05-.5 1.2-.94v-.89c0-.01.01-.02.03-.02h2.37c.03 0 .09 0 .09.04v1.7c-.02 1.24-2.35 2.95-3.8 3.69ZM7.73 9.44c-.02 0-.03.01-.03.03 0 .25 0 .47-.02.73 0 .13.5.42.56.3l-.01-.44c0-.01 0-.02-.02-.02l-.31-.06c.01-.08.06-.1.11-.16.12-.11.27-.2.21-.36a.03.03 0 0 0-.03-.02h-.46Zm1.65.73.09-.16c0-.02 0-.04-.03-.03l-.08.03c-.02 0-.02.02-.02.04l.02.11c0 .03 0 .03.02 0Zm-.14.14a.16.16 0 0 0 .06-.12v-.02c0-.05.02-.16-.03-.15l-.21.03a.04.04 0 0 0-.03.03l-.22.4c0 .02 0 .03.02.03.16-.03.3-.1.41-.2Zm-.53.22a40.18 40.18 0 0 0-.2-.38c-.06-.07-.11-.08-.2-.08-.01 0-.02 0-.02.02v.44c.02.07.22.04.34.01h.08Z" fill="#F9F9F9"/><path d="M6.77 7.22c.22.09.46.17.7.22a7.76 7.76 0 0 0 3.51-.07c.02-.02.02-.04 0-.06-.27-.21.17-.4.21-.18v.02c-.05.04-.06.08-.05.12l.02.02c.09.01.4-.11.45-.14l.04-.02c.08 0 .22-.05.28-.03.25.06-.24.38-.42.4l-.12.09v.01c.14.3-.24.29-.2.17v-.02c.04-.04.04-.08.02-.12l-.03-.01-.33.09a8.25 8.25 0 0 1-3.04.25c-.6-.05-1.13-.2-1.62-.45L6 7.41c-.02-.02-.01-.02.01-.02l.77.1.02-.01L6.32 7h.01l.43.2Zm.26.35c.97.27 2.06.26 3.06.1.12-.02.63-.08.69-.14.04-.03.03-.05-.04-.03a7.42 7.42 0 0 1-4.01-.2c.04.04.24.26.3.27Zm-.7-.07c1.06.5 2.45.52 3.65.3.21-.03.8-.11.87-.2l-.02-.01-.7.11c-.32.06-.75.1-1.29.1-.6.02-1.2-.04-1.78-.2-.23-.05-.47-.07-.72-.1Zm1.02-3.33c.02.07.01.11-.01.13-.02.02-.03.01-.02-.01.01-.06 0-.1-.01-.1h-.02c-.11.06-.22.04-.3-.06v-.04a.55.55 0 0 1 .16-.04c.07-.01.13-.02.13-.04a.35.35 0 0 0-.1-.12c-.03-.02-.02-.03 0-.02.13 0 .16.24.17.3Zm-.03.43a.16.16 0 0 1-.03-.08V4.5h.03c.05.04.09.04.13 0 .03-.01.04 0 .03.03 0 .02-.02.04-.03.05v.01c-.01.02 0 .03.01.03h.1l.02.02-.01.03a.35.35 0 0 1-.25.03c-.02 0-.03-.02-.03-.03l.01-.01c.01 0 .02 0 .03-.02l-.01-.05Z" fill="#F9F9F9"/></svg>