<!-- by TradingView --><svg width="18" height="18" viewBox="0 0 18 18" xmlns="http://www.w3.org/2000/svg"><path fill="#F0F3FA" d="M0 0h18v18H0z"/><path fill-rule="evenodd" d="M14 9a5 5 0 1 1-1.15-3.19 1 1 0 0 0-.03.23c0 .21-.06.44-.25.55l-.4.25c-.28.17-.65.1-.96 0-.1-.03-.22-.05-.34-.05A1.07 1.07 0 0 0 9.8 7.87c0 .23-.06.48-.26.6-.17.11-.39.09-.59.05a.82.82 0 0 0-.16-.02.77.77 0 0 0-.78.75c0 .41.35.75.78.75.43 0 .78-.34.78-.75 0-.15.05-.31.18-.4l.1-.05c.18-.12.4-.09.6 0 .14.05.28.08.43.08.6 0 1.09-.47 1.09-1.05 0-.19.06-.4.23-.5l.47-.28c.27-.17.62-.1.93-.01h.01c.26.6.4 1.27.4 1.96Zm-4-2.16c0 .47-.39.85-.86.85a.87.87 0 0 1-.44-.12c-.12-.07-.26-.1-.37-.02l-.06.03c-.07.04-.1.13-.1.21 0 .34-.28.61-.63.61a.61.61 0 0 1-.62-.6c0-.34.28-.61.62-.61.1 0 .18.02.26.05.1.05.24.07.34.01.1-.06.15-.2.14-.32v-.09c0-.46.38-.84.86-.84.47 0 .86.38.86.84ZM6.92 8.55c0 .25-.2.45-.46.45A.46.46 0 0 1 6 8.55c0-.25.2-.45.46-.45s.46.2.46.45Z" fill="#00A247"/><circle cx="14" cy="6" r="1" fill="#1F7BBC"/></svg>