<!-- by TradingView --><svg width="18" height="18" viewBox="0 0 18 18" xmlns="http://www.w3.org/2000/svg"><path fill="#F0F3FA" d="M0 0h18v18H0z"/><path fill-rule="evenodd" d="M7.62 4H5v10h2.77v-2.17c0-.2.1-.35.26-.48a1.21 1.21 0 0 0 .33-1.3l.5-.25a.6.6 0 0 0 .89 0l.33.28c-.07.08-.08.18-.08.25V14h3V4h-3v3.57a.83.83 0 0 0-.1.13l-.6-.14a.31.31 0 0 0-.3-.23c-.17 0-.3.15-.3.34 0 .18.13.33.3.33a.3.3 0 0 0 .28-.19l.52.12a.9.9 0 0 0 .13.75l-.18.2a.6.6 0 0 0-.44-.21c-.34 0-.62.3-.62.66 0 .1.02.18.05.26l-.49.23a1 1 0 0 0-.85-.49c-.57 0-1.03.5-1.03 1.13a1.16 1.16 0 0 0 .48.95c.14.12.3.24.3.42v1.5H5.62V4.67H7v3c0 .12.03.33.3.33.28 0 .32-.2.32-.33V4Zm2.74 6c.2 0 .27.15.3.26l.01.02V13.33h1.66V4.67h-1.66v2.67c.36.07.64.41.64.83 0 .46-.35.83-.77.83a.73.73 0 0 1-.44-.15l-.22.24a.71.71 0 0 1 0 .5l.47.41Z" fill="url(#a5zq03l2a)"/><defs><linearGradient id="a5zq03l2a" x1="5.46" y1="9.63" x2="12.31" y2="9.63" gradientUnits="userSpaceOnUse"><stop stop-color="#03ACCB"/><stop offset="1" stop-color="#56B94D"/></linearGradient></defs></svg>