<!-- by TradingView --><svg width="18" height="18" viewBox="0 0 18 18" xmlns="http://www.w3.org/2000/svg"><path fill="#BB1A20" d="M0 0h18v18H0z"/><path d="M6.98 6.95c-.14.1-.3.18-.46.25-.28.1-.6.21-.97.31a3.9 3.9 0 0 1-1.56.1V7.6l.58-.05c.45-.07.84-.25 1.17-.55.08-.07.07-.1-.03-.05-.53.21-1.07.35-1.62.4-.4.04-.82 0-1.07-.36-.03-.04-.02-.05.02-.04.44.1.9.12 1.36.03a6.44 6.44 0 0 0 2.1-.79c.26-.15.47-.27.77-.3.4-.05.68.22.87.57l.44.85c.48.9 1.31 1.02 2.17.81.16-.04.28-.1.34-.16.21-.22.3-.62.05-.84a.04.04 0 0 0-.04-.02l-.01.01-.02.02c-.03.04-.05.1-.06.16a.84.84 0 0 1-.08.18.12.12 0 0 1-.06.05c-.14.05-.24-.07-.25-.2V7.3l.01-.01a.03.03 0 0 1 .03 0l.1.05a.07.07 0 0 0 .07 0l.03-.02v-.04c.04-.19.05-.35.02-.47l-.01-.03-.04-.02-.04.03-.01.04c-.07.14-.14.29-.33.32-.19.03-.28-.18-.23-.36l.01-.02.02-.01h.03l.02.02c.17.28.45-.1.31-.25a.6.6 0 0 0-.24-.14 2.68 2.68 0 0 0-.56-.14.02.02 0 0 1 0-.02c.06-.18.15-.34.25-.5a.41.41 0 0 1 .1-.1c.08-.06.18-.03.25-.02l.05.01h.05a.2.2 0 0 0 .07-.1.08.08 0 0 1 .03-.04.07.07 0 0 1 .06 0c.12.04.24.1.35.16.08.04.14.05.18.05a.25.25 0 0 0 .17-.13.12.12 0 0 0-.03-.15 1.52 1.52 0 0 0-.07-.05c-.1-.08-.2-.14-.17-.32.01-.05.03-.05.05 0l.1.16c.03.04.08.07.13.1.07.04.14.09.17.17.04.13.03.23-.04.31-.05.06-.04.1.04.1l.03.01c.07.02.13 0 .17-.07.05-.09.09-.18.1-.28.01-.06.03-.06.05 0 .1.2.07.37-.07.47-.12.09-.23.09-.32 0a.45.45 0 0 1-.13-.14l-.02-.02a.04.04 0 0 0-.03 0c-.14.07-.3.06-.48-.01h-.05v.01l.23.2c.09.07.15.07.24.07l.17.01.02.01V6.2a.12.12 0 0 0-.05.05c-.01.02 0 .03.02.04a31.17 31.17 0 0 0 .23.1l.05-.02c.05-.02.06 0 .04.05-.05.12-.1.11-.19.1l-.06-.02-.05.01a.1.1 0 0 0-.03.04.1.1 0 0 0 0 .11c.1.12.19.2.3.24.24.1.5.1.76 0h.01v.02a.45.45 0 0 0-.12.11l-.02.03a.07.07 0 0 0 0 .05l.02.02c.11.09.32.01.42-.05.07-.04.08-.03.03.04a1 1 0 0 0-.11.22.1.1 0 0 0 0 .07s0 .02.02.03l.03.01c.07.03.15.04.25.02.08-.02.08 0 .01.05-.1.08-.2.18-.18.34a.04.04 0 0 0 .01.03.03.03 0 0 0 .03 0 .4.4 0 0 0 .28-.23l.15-.35c.04-.1.12-.2.25-.33.39-.4.95-.17 1.21.24.23.36.31.81.13 1.2-.04.08-.12.2-.25.35a7.87 7.87 0 0 0-1.05 1.76c-.04.08-.05.07-.03-.01.02-.16.07-.3.15-.43.18-.3.32-.63.42-.97.03-.1.08-.2.17-.25.06-.04.05-.06-.01-.08-.13-.03-.14-.2-.15-.36l-.01-.1c0-.06-.02-.07-.03 0l-.07.37a3.15 3.15 0 0 1-1.27 2.04c-.07.05-.08.04-.02-.03a4.33 4.33 0 0 0 .82-1.5c-.01-.17-.05-.18-.12-.02l-.18.42c-.2.43-.51.76-.93.96h-.02v-.02c.33-.2.56-.51.7-.92a.5.5 0 0 0 .02-.2v-.04L13 9.38h-.03l-.03.01-.42.54h-.01v-.01c.07-.12.2-.33.15-.48-.02-.05-.04-.07-.08-.07l-.03.01v.03a.46.46 0 0 1-.3.37c-.07.03-.08.02-.02-.04.11-.1.15-.24.12-.42 0-.02-.02-.04-.03-.04l-.03-.01c-.02 0-.03.01-.03.03-.04.24-.14.4-.32.5-.12.06-.13.13-.1.26a2.52 2.52 0 0 0 .09.41h-.02c-.07-.15-.19-.28-.35-.14a.1.1 0 0 0-.04.08.12.12 0 0 0 .02.08l.26.32v.01c-.2-.02-.31-.1-.36-.26-.04-.1-.07-.1-.09.01-.02.16 0 .5.17.61v.02h-.01c-.13-.07-.18-.18-.24-.3a1.67 1.67 0 0 0-.09-.18.12.12 0 0 0-.04-.04.11.11 0 0 0-.11 0 .12.12 0 0 0-.04.03c-.1.14-.12.3-.05.47.08.19.2.22.36.26a6.41 6.41 0 0 1 .06.04c-.3.1-.52.04-.65-.2-.04-.07-.06-.06-.07.02-.03.27.1.48.25.7.04.05.03.06-.02.03-.29-.14-.45-.42-.57-.74a.09.09 0 0 0-.03-.04.08.08 0 0 0-.12.01c-.13.17-.08.44.02.61v.06h-.01c-.18-.14-.36-.39-.3-.64l-.01-.01v-.01h-.03a.45.45 0 0 1-.36.03c-.25-.08-.47-.2-.68-.38a10.58 10.58 0 0 0 .58.08c.16.02.32 0 .46-.05.08-.03.07-.05 0-.06a1.35 1.35 0 0 1-.9-.5c-.04-.06-.03-.08.03-.05a40.01 40.01 0 0 0 .9.33c.16.02.17-.01.02-.1l-.6-.33c-.08-.05-.08-.07.02-.07.11 0 .27-.02.33-.15.01-.03.03-.03.04 0 .03.08.08.12.14.12.2 0 .38-.06.54-.18.07-.06.08-.12.01-.2-.03-.03-.03-.05.03-.04.08 0 .16-.01.22-.05.07-.04.08-.1.04-.17l-.09-.17c-.04-.08-.09-.09-.14-.02-.1.1-.2.16-.34.16-.08 0-.09-.01-.02-.05.1-.06.2-.12.27-.2.06-.06.06-.11-.02-.16l-.02-.01a.22.22 0 0 0-.26.02l-.12.09c-.24.18-.4.3-.65.28-.07 0-.07-.02-.01-.04.15-.07.3-.14.42-.22.04-.02.06-.04.05-.06a.1.1 0 0 0-.03-.07.09.09 0 0 0-.07-.02c-.12.02-.23.06-.33.1a.61.61 0 0 1-.32.04 2.16 2.16 0 0 1-.64-.19.02.02 0 0 1 0-.02h.01l.52-.15v-.03a8.62 8.62 0 0 1-.98.02c-.02 0-.02-.02.01-.04l.22-.1.03-.03.01-.04v-.04a.08.08 0 0 0-.03-.03.68.68 0 0 0-.14-.07c-.06-.03-.13-.01-.19 0a.68.68 0 0 1-.09.01c-.07 0-.09-.02-.04-.09l.05-.05c.07-.06.06-.08-.02-.05-.2.06-.4.09-.6.09-.05 0-.07-.02-.04-.06l.01-.01.42-.26L7.5 8a.07.07 0 0 0 0-.07.07.07 0 0 0-.02-.03.37.37 0 0 0-.22-.04c-.18.01-.47.05-.86.12-.16.03-.29.04-.38.03-.19-.02-.19-.05 0-.1.31-.06.6-.17.87-.33.17-.1.17-.12-.02-.06-.69.2-1.34.36-1.95.47a2.94 2.94 0 0 1-.46.03h-.01v-.03c.44-.11.84-.22 1.2-.33.27-.08.53-.17.79-.28.18-.08.47-.22.57-.4.04-.07.03-.08-.03-.03Zm3.35-.93c.04 0 .07-.03.07-.07 0-.04-.03-.07-.07-.07-.03 0-.06.03-.06.07 0 .04.03.07.06.07ZM5.35 10.9c-.09-.1-.08-.1.03-.05l.12.08c.09.06.18.12.27.16a4.3 4.3 0 0 0 1.25.37v-.01c-.53-.2-1-.44-1.39-.75a.96.96 0 0 1-.18-.2.05.05 0 0 1 0-.06l.01-.02.03-.01c.08 0 .14.02.19.06.1.08.2.15.3.2.3.22.65.31 1.01.29l.01-.01v-.02a.03.03 0 0 0 0-.02l-.02-.01c-.33 0-.62-.1-.87-.34-.2-.2-.42-.37-.64-.53a.13.13 0 0 1-.05-.07v-.1c.08-.25.27-.39.56-.41l.05.01.02.04.1.32c.09.26.26.45.52.57.21.1.41.02.64-.06l.11-.04a.6.6 0 0 1 .35 0c.06.02.16.08.3.18a5.18 5.18 0 0 0 .36.22v-.01a2.4 2.4 0 0 1-.38-.4.52.52 0 0 1-.13-.33l.01-.05.03-.03a.07.07 0 0 1 .08 0c.22.15.45.25.68.31.06.02.07 0 .02-.03a.97.97 0 0 1-.07-.05.1.1 0 0 1-.04-.04c0-.04 0-.07.04-.1h.04c.14 0 .27.03.4.09h.01v-.02c-.24-.15-.4-.25-.47-.32a8.86 8.86 0 0 0-1.76-1.26 1.23 1.23 0 0 0-.73-.12 1.67 1.67 0 0 0-.8.3l-.03-.01c-.51-.2-1.1-.1-1.47.37-.3.4-.41.82-.32 1.28.14.69.77 1.19 1.34 1.45.3.14.58.26.87.37.36.14.75.23 1.16.25.07 0 .14 0 .21-.02a1.98 1.98 0 0 1 .13 0h.01l.02.03v.02a.35.35 0 0 1-.1.22h-.04a.55.55 0 0 0-.24-.1c-.13-.03-.2.03-.23.17v.02c-.02.14.03.22.17.25.3.06.5-.06.55-.37a.39.39 0 0 0-.04-.23.03.03 0 0 1 .01-.03h.01c.22 0 .54 0 .73.12l.05.05c.01.03.02.05.01.07v.05c0 .12-.01.28.06.34.08.08.18.1.27.01.14-.15-.08-.38-.2-.45a.08.08 0 0 1-.04-.09l.01-.03c.16-.2.5-.2.7-.14a.04.04 0 0 1 .03.02.05.05 0 0 1 0 .04l-.07.14c-.07.16 0 .3.16.35.16.05.28 0 .36-.14.15-.26 0-.44-.22-.54a1 1 0 0 0-1.07.15.1.1 0 0 1-.1.01 2.47 2.47 0 0 0-.3-.08 46.2 46.2 0 0 1-1.46-.24 1.47 1.47 0 0 1-.4-.14 5.17 5.17 0 0 1-.88-.58c-.12-.1-.1-.13.04-.1l.1.06c.4.28.82.47 1.26.56.23.05.5.1.82.13.07 0 .07 0 0-.04a3.23 3.23 0 0 0-.71-.29 2.27 2.27 0 0 1-1.16-.65Zm2.27.1-.15-.05-.02-.02-.01-.02c-.1-.36.46-.37.5-.02 0 .13-.02.23-.07.3a.62.62 0 0 1-.44.27c-.1.01-.1 0-.01-.04a.4.4 0 0 0 .26-.3.1.1 0 0 0-.01-.07.09.09 0 0 0-.05-.04Zm.65.53-.01.15c0 .02-.02.03-.04.04a.88.88 0 0 1-.4.13H7.8v.01c.1 0 .33 0 .67-.03a.6.6 0 0 0 .3-.1c.14-.1.18-.31.07-.47-.16-.21-.44-.13-.56.09-.02.05-.02.12-.02.18Z" fill="#fff"/></svg>