<!-- by TradingView --><svg width="18" height="18" viewBox="0 0 18 18" xmlns="http://www.w3.org/2000/svg"><path fill="#F0F3FA" d="M0 0h18v18H0z"/><path d="M4 5.33C4 4.6 4.6 4 5.33 4h7.34C13.4 4 14 4.6 14 5.33v7.34c0 .73-.6 1.33-1.33 1.33H5.33C4.6 14 4 13.4 4 12.67V5.33Z" fill="#FFF100"/><path d="M5 6.63c0-.35.22-.63.5-.63s.5.28.5.63v3.75c0 .34-.22.62-.5.62s-.5-.28-.5-.63V6.63ZM12 6.63c0-.35.22-.63.5-.63s.5.28.5.63v3.75c0 .34-.22.62-.5.62s-.5-.28-.5-.63V6.63ZM7.27 8.13c.3-.22.7-.16.93.14a1.13 1.13 0 0 0 .8.4c.18 0 .36-.06.5-.16.17-.1.27-.2.3-.24a.67.67 0 0 1 1.07.8c-.24.32-.92.93-1.87.93-.95 0-1.63-.61-1.87-.93a.67.67 0 0 1 .14-.94Z" fill="#4B4948"/></svg>