<!-- by TradingView --><svg width="18" height="18" viewBox="0 0 18 18" xmlns="http://www.w3.org/2000/svg"><path fill="#F0F3FA" d="M0 0h18v18H0z"/><path d="M13.44 10.55c-4.47 1.58-6.89 1.46-9.57.63.14.1.27.2.43.27 2.48.72 4.29 1.16 8.6-.12l.54-.78Z" fill="#A2664E"/><path d="M13.77 6.58C10.7 4.7 5.77 4 5.77 4l-1.9 2.82c4.86-1.59 7.06-1 9.9-.24Z" fill="url(#af05rchcz)"/><path d="M4.6 7.45c4.46-1.57 6.87-1.46 9.56-.63-.14-.1-.28-.2-.44-.27-2.47-.72-4.28-1.16-8.6.12l-.52.78Z" fill="#A2664E"/><path d="m12.58 8.75.08-.42h2.07L15 8h-3.45l-.19.08-.22 1.17h2.28l-.08.42h-2.28L11 10h3.44l.19-.08.21-1.17h-2.26ZM5.77 8l-.12.67h-1.2L4.57 8H3.34L3 10h1.23l.14-.83h1.2l-.14.83h1.23L7 8H5.77ZM10.78 8H7.46l-.1.04L7 10h1.32l.3-1.67h1.01L9.51 9h-.6l-.34.5c1 0 1.93 0 2.2-.19l.23-1.2-.22-.11Z"/><path d="M4.26 11.42C7.33 13.3 12.25 14 12.25 14l1.9-2.82c-4.85 1.59-7.05 1-9.9.24Z" fill="url(#bf05rchcz)"/><defs><linearGradient id="af05rchcz" x1="871.23" y1="157.71" x2="-245.59" y2="-74.72"><stop offset=".87" stop-color="#C9A191"/></linearGradient><linearGradient id="bf05rchcz" x1="383.63" y1="152.08" x2="899.95" y2="152.08"><stop stop-color="#A2664E"/></linearGradient></defs></svg>