<!-- by TradingView --><svg width="18" height="18" viewBox="0 0 18 18" xmlns="http://www.w3.org/2000/svg"><path fill="#F0F3FA" d="M0 0h18v18H0z"/><path d="M6 11.95V9.38c-.01-.21.05-.26.17-.08l1.8 2.64a.14.14 0 0 0 .12.06h1.79a.25.25 0 0 0 .2-.11c.4-.59.73-1.19.98-1.67l.38-.67c.18-.28.33-.45.43-.5a.3.3 0 0 1 .29 0c.15.08.28.2.39.33a.17.17 0 0 1 0 .2l-.16.26a.08.08 0 0 0-.02.06c0 .03.02.04.04.06l.39.26c.07.04.09.1.06.19a.1.1 0 0 1 0 .02.17.17 0 0 1-.2.02l-.54-.26a.08.08 0 0 0-.09 0 .09.09 0 0 0-.03.03V11.87c0 .08.08.13.16.13h2.74c.07 0 .1-.04.1-.1V6.08c0-.05-.03-.09-.08-.09h-4.2c-.09 0-.15.04-.2.11L9.06 8.34a.05.05 0 0 1-.1 0L7.52 6.1A.25.25 0 0 0 7.3 6H3.02l-.02.01-.01.02v5.93l.01.03.03.01h2.94c.03 0 .02 0 .02-.03v-.02Zm8.02-4.25a.7.7 0 0 1 .27-.01c.1 0 .15-.04.14-.14-.03-.3-.26-.21-.48-.12-.13.05-.26.1-.36.08a.74.74 0 0 1-.45-.32c-.11-.16.17-.45.27-.52s.2-.07.35 0c.06.03.08.07.04.12l-.05.08c-.02.04-.06.05-.11.03a.25.25 0 0 0-.1-.02.16.16 0 0 0-.1.26c.13.13.3.06.48-.01.15-.06.3-.12.43-.06.17.07.49.31.36.54-.14.25-.5.65-.73.2-.04-.06-.02-.1.04-.11Zm-.4.9c.09.04.16.01.22-.08.06-.1.05-.17-.02-.23-.13-.11-.46-.33-.96-.64-.08-.05-.1-.11-.04-.19v-.01c.07-.07.14-.08.21-.03l.84.57c.26.16.32.4.16.66-.17.25-.4.28-.67.12l-.85-.55c-.08-.05-.1-.11-.05-.2v-.01c.05-.08.12-.1.2-.04.48.34.8.55.96.63Zm-1.4-.04.97.66a.1.1 0 0 0 .06.01c.09 0 .16-.07.21-.17a.15.15 0 0 1 .06-.06c.03-.02.06-.02.07 0 .02.03.04.07.04.11 0 .04-.01.09-.03.13l-.2.31c-.05.06-.1.07-.16.03l-1.13-.75a.16.16 0 0 1-.06-.2l.02-.03c.03-.07.08-.08.14-.04Zm-.43.97v.01l.4.22a.02.02 0 0 0 .04 0l.02-.06a.29.29 0 0 0 .03-.2.24.24 0 0 0-.04-.08.22.22 0 0 0-.07-.06l-.01-.01a.22.22 0 0 0-.1-.03l-.09.01a.27.27 0 0 0-.15.13l-.03.05v.02Z" fill="#C5322D"/></svg>