<!-- by TradingView --><svg width="18" height="18" viewBox="0 0 18 18" xmlns="http://www.w3.org/2000/svg"><path fill="#F0F3FA" d="M0 0h18v18H0z"/><path d="M10 6.92a3.03 3.03 0 0 0 .19 2.56c-.93.24-2.84.72-3.08.72-.31 0-2.8-2.26-1.42-4.26 1.39-2 4.31-2.32 4.83-1.57.53.74.04 1.22-.52 2.55Z" fill="#BDD3D9"/><path d="M6.7 9.4a3.2 3.2 0 0 1-1.42-2.9c-2.77 4.73 2.74 7.26 2.74 7.18-1.42-.97-1.47-3.4-1.31-4.28Z" fill="#00536D"/><path d="M5.98 5.99c-.48 0-.7.45-.76.67 0 .6.27 1.96 1.46 2.76-.26-1 .11-1.83.11-2.36 0-.54-.22-1.07-.81-1.07Z" fill="#518EAB"/><path d="M10.28 9.47c-1.05.1-2.87-.05-3.65-.14v1.85c0 1.42.82 2.22 1.24 2.44.28.13 1 .38 1.69.38.85 0 2.54-.34 3.39-1.38-1.78-.59-2.52-2.35-2.67-3.15Z" fill="#4098AE"/><path d="M14 10.63c0-1.06-2.46-1.12-3.76-1.14.12 1.82 1.85 2.86 2.7 3.15.46-.43 1.06-1.15 1.06-2Z" fill="#005C6A"/></svg>