<!-- by TradingView --><svg width="18" height="18" viewBox="0 0 18 18" xmlns="http://www.w3.org/2000/svg"><path fill="#F0F3FA" d="M0 0h18v18H0z"/><path d="M12.16 8.68c.04 0 .07.02.11.04-.4.91-1.3 1.08-2.2 1.05-.4-.02-.82-.05-1.25-.1-.68-.07-1.3.28-1.48.94-.13.48-.01.9.34 1.28l-.08.08a1.63 1.63 0 0 1-.52-1.24c0-.25.07-.5.18-.78.28-.65.7-1.2 1.1-1.77.34-.5.34-1.14-.07-1.58a1.32 1.32 0 0 0-1.21-.42l-.06-.11c.57-.11 1.11 0 1.54.4.35.34.6.8.8 1.23.16.31.3.62.43.93.48 1.08 1.82 1.03 2.37.05Z" fill="#75BB2A"/><path d="M8.92 14c-.39-.02-.75-.12-1.07-.3a1.41 1.41 0 0 1-.32-.28.94.94 0 0 1-.25-.76c.03-.25.13-.48.32-.69l.08-.08c.14-.1.3-.18.45-.21.15-.03.32-.05.51-.05h1.13a7.81 7.81 0 0 0 2.09-.35 3.23 3.23 0 0 0 2.1-2.26.03.03 0 0 1 .02 0l.02.07a4.95 4.95 0 0 1-1.2 3.16A4.97 4.97 0 0 1 8.93 14Z" fill="url(#axwrfy2wo)"/><path d="M4.64 6.54c.2-.34.45-.61.77-.8.13-.08.26-.13.39-.16.3-.08.55-.03.78.13.21.14.36.35.46.61l.03.11c.03.18.02.34-.02.5-.05.14-.11.3-.2.47l-.53 1a7.86 7.86 0 0 0-.68 2.01 3.25 3.25 0 0 0 1 2.93.03.03 0 0 1-.02.02l-.07-.01a4.92 4.92 0 0 1-2.2-2.55 5.02 5.02 0 0 1 .29-4.26Z" fill="url(#bxwrfy2wo)"/><path d="M13.36 6.52c.2.34.29.7.3 1.08-.01.15-.03.29-.08.41-.09.3-.26.5-.51.61-.24.1-.49.13-.76.08l-.11-.03c-.17-.07-.3-.16-.41-.28a2.5 2.5 0 0 1-.3-.41l-.6-.98a7.84 7.84 0 0 0-1.35-1.62 3.22 3.22 0 0 0-3.01-.64.03.03 0 0 1-.01-.03 4.9 4.9 0 0 1 3.35-.64 4.97 4.97 0 0 1 3.5 2.45Z" fill="url(#cxwrfy2wo)"/><defs><linearGradient id="axwrfy2wo" x1="8.86" y1="11.51" x2="10.65" y2="13.99" gradientUnits="userSpaceOnUse"><stop stop-color="#1D2088"/><stop offset="1" stop-color="#005BA6"/></linearGradient><linearGradient id="bxwrfy2wo" x1="6.85" y1="7.65" x2="3.82" y2="8.05" gradientUnits="userSpaceOnUse"><stop stop-color="#1D2088"/><stop offset="1" stop-color="#005BA6"/></linearGradient><linearGradient id="cxwrfy2wo" x1="11.27" y1="7.85" x2="12.49" y2="5.04" gradientUnits="userSpaceOnUse"><stop stop-color="#1D2088"/><stop offset="1" stop-color="#005BA6"/></linearGradient></defs></svg>