<!-- by TradingView --><svg width="18" height="18" viewBox="0 0 18 18" xmlns="http://www.w3.org/2000/svg"><path fill="#F0F3FA" d="M0 0h18v18H0z"/><path d="M3.6 12.08h.64L6.08 10h-.66L3.6 12.08ZM7.18 8h.67l1.47-1.65c.2-.23.7-.68.95-.68.11 0 .23.03.33.04.2.04.36.07.46-.04L11.7 5h-.64c-.05.11-.25.34-.63.34-.2 0-.3-.03-.4-.05-.13-.03-.2-.05-.4.05C9.52 5.4 8.45 6.58 7.19 8Zm-.64 2-2.6 3h.64l2.68-3h-.72Zm2.5-2h-.73a14.98 14.98 0 0 1 1.8-1.83c.22-.08.3-.05.4 0 .1.03.21.08.54 0 .5-.14 1.06-.84 1.27-1.17h.63l-.8.83c-.47.5-1.1.67-1.41.67-.26 0-.74.44-.95.67L9.05 8Zm-1.17 2L5.7 12.38h.8L8.57 10h-.71Zm2.46-2h-.65l.3-.31c.63-.68.75-.7 1.2-.78l.37-.06c.64-.14 1.64-1.3 2.06-1.85h.79l-1.74 1.85c-.16.16-.63.33-1.1.33-.39 0-.8.34-.96.5l-.27.32Z" fill="#0E3192"/><path d="M3.17 8.57 3 10h.83L4 9.43h.67L4.5 10h1.83L7 8.71 7.33 10h1.84l.16-.71.67.71h.67L11 8h-.33c-.27 0-.56.29-.67.43l-.17.28L9.17 8c-.54 0-.67.48-.67.71l-.17 1L7.67 8H7c-.4 0-.67.48-.83.71l-.67 1L5.67 8h-.5c-.4 0-.5.29-.5.43v.43H4L4.17 8c-.67 0-.95.38-1 .57ZM11 10l.14-1.43c0-.46.43-.57.57-.57H12l-.14 1.43h.85l.29-.57c.43-.86.8-.86 1-.86h.43l.57 2h-.86l-.28-1.29-.57 1.29H11Z" fill="#E50000"/></svg>