<!-- by TradingView --><svg width="18" height="18" viewBox="0 0 18 18" xmlns="http://www.w3.org/2000/svg"><path fill="#F0F3FA" d="M0 0h18v18H0z"/><path d="M5.77 6H3.92L3 12h1.7l.29-2h1.38l-.29 2h2L9 6H7l-.27 2H5.5l.27-2ZM14.4 9H12v1.2h.3c-.16.3-.6.6-1.07.6-.47 0-.95-.3-.95-1.2 0-.72.43-1.3.64-1.5-1.43.15-2.22 1.35-2.22 2.1s.63 1.8 2.22 1.8c1.26 0 1.87-.6 2.08-.9v.9h1.08l.32-3Z" fill="#004B88"/><path d="M11.89 7.5a3.51 3.51 0 0 0-3.43 2.7C8 7.35 10.33 6 12.2 6c1.5 0 2.49.6 2.8.9l-.62 1.5c-.5-.72-1.87-.9-2.5-.9Z" fill="url(#a)"/><defs><linearGradient id="a" x1="14.38" y1="7.35" x2="8.79" y2="8.48" gradientUnits="userSpaceOnUse"><stop stop-color="#0076BF"/><stop offset="1" stop-color="#0EBBEF"/></linearGradient></defs></svg>