<!-- by TradingView --><svg width="18" height="18" viewBox="0 0 18 18" xmlns="http://www.w3.org/2000/svg"><path fill="#F0F3FA" d="M0 0h18v18H0z"/><path d="m9 7 2 2-2 2-2-2 2-2Z" fill="#2C4FA1"/><path d="m7 10 1.71 2.15v1.06h.58v-1.06L11 10v4.64c-.24.05-.43.11-.61.17-.34.1-.64.19-1.1.19v-.71H8.7V15c-.46 0-.76-.1-1.1-.2a6.74 6.74 0 0 0-.61-.16V10Z" fill="#2C4FA1"/><path d="M8.65 15a6.01 6.01 0 1 1 .7 0v-.36a5.65 5.65 0 1 0-.7 0V15Z" fill="#2C4FA1"/><path d="M13.09 8.72a.74.74 0 0 1-.07-.17.46.46 0 0 1-.02-.17c0-.06.03-.11.06-.16.04-.05.1-.1.17-.14a.59.59 0 0 1 .2-.07.43.43 0 0 1 .35.1c.05.04.1.1.13.16.04.07.07.14.08.2a.4.4 0 0 1 0 .18.25.25 0 0 1-.08.13l-.12-.2a.15.15 0 0 0 .04-.1.27.27 0 0 0-.04-.14.26.26 0 0 0-.18-.14.34.34 0 0 0-.23.05v.01c.04 0 .07.02.1.04l.1.07a.54.54 0 0 1 .14.3c.01.06 0 .12-.01.18a.24.24 0 0 1-.11.12.25.25 0 0 1-.17.03.4.4 0 0 1-.18-.09.66.66 0 0 1-.16-.19Zm.12-.07a.3.3 0 0 0 .08.1c.03.02.06.04.1.04.03 0 .06 0 .1-.02a.14.14 0 0 0 .05-.07.2.2 0 0 0 .02-.1.3.3 0 0 0-.05-.12.32.32 0 0 0-.06-.07.26.26 0 0 0-.07-.05.2.2 0 0 0-.07-.02l-.07.02a.14.14 0 0 0-.06.07.21.21 0 0 0-.02.1c0 .05.02.09.05.12ZM13.36 7.16a.34.34 0 0 1-.23.09.49.49 0 0 1-.26-.08.93.93 0 0 1-.24-.22.99.99 0 0 1-.16-.3.59.59 0 0 1-.03-.28.38.38 0 0 1 .13-.23c.07-.06.15-.09.23-.09.09 0 .17.03.26.08.08.05.16.13.24.23.08.1.13.19.16.29.04.1.04.2.03.28a.38.38 0 0 1-.13.23Zm-.16-.2c.05-.05.09-.1.1-.15a.33.33 0 0 0 0-.18.55.55 0 0 0-.1-.18.52.52 0 0 0-.16-.14.28.28 0 0 0-.16-.04c-.05 0-.1.03-.15.07a.3.3 0 0 0-.09.33c.02.06.05.12.1.18.04.06.1.1.15.14.05.03.1.04.16.04.05 0 .1-.03.15-.07ZM12.2 5.5l-.2-.16a.18.18 0 0 0 .02-.08c0-.03 0-.06-.02-.09a.4.4 0 0 0-.05-.09.58.58 0 0 0-.25-.18.27.27 0 0 0-.17 0 .27.27 0 0 0-.14.1.3.3 0 0 0-.06.16c0 .06 0 .12.03.17.03.06.07.11.13.16l.1.07c.02.01.05.03.08.03l.09.01c.03 0 .05-.01.07-.03l.19.17a.25.25 0 0 1-.12.05h-.15a.63.63 0 0 1-.17-.06.95.95 0 0 1-.18-.13.91.91 0 0 1-.2-.25.55.55 0 0 1-.08-.27.4.4 0 0 1 .09-.24.36.36 0 0 1 .2-.14.47.47 0 0 1 .27.02c.09.03.18.09.27.16l.15.16c.04.05.07.1.09.16.02.05.03.1.03.16 0 .05 0 .1-.03.14ZM10.46 4.12l-.22.87-.33-.1.22-.87.33.1ZM8.66 4.9l-.47.03-.05-.9.48-.03c.13 0 .25 0 .35.04.1.02.18.07.24.14.05.06.09.14.09.23 0 .1-.02.18-.07.25a.5.5 0 0 1-.22.17c-.1.04-.21.06-.35.07Zm-.23-.13h.2c.1-.01.18-.03.24-.06a.3.3 0 0 0 .14-.1.3.3 0 0 0 .04-.18.29.29 0 0 0-.06-.17.28.28 0 0 0-.14-.1.7.7 0 0 0-.24-.02l-.21.02.03.61ZM7.16 4.36l.43.77-.2.12-.87-.16.29.53-.23.14L6.15 5l.2-.13.87.17h.01l-.3-.54.23-.13ZM5.4 7.2l-.13.24-.5-.88.14-.27.97.02-.13.23L5 6.51v.01l.4.68Zm-.29-.18.35-.64.1.06-.34.64-.1-.06ZM4.94 9 4 8.96l.01-.2h.4l.03-.53-.4-.02.02-.21.94.04-.01.21-.4-.02-.03.54.4.02-.02.21Z" fill="#2C4FA1"/></svg>