<!-- by TradingView --><svg width="18" height="18" viewBox="0 0 18 18" xmlns="http://www.w3.org/2000/svg"><path fill="#F0F3FA" d="M0 0h18v18H0z"/><path fill-rule="evenodd" d="m10.02 4 .46.07c1.58.23 2.64 1.58 2.36 3.36-.01.05 0 .09.02.1a6.2 6.2 0 0 1-.83 1.88l-.29.37a7.15 7.15 0 0 1-1.85 1.58l-1.05.5-1.46.29c-.15-.03-.27-.01-.36.04a1.7 1.7 0 0 0-.45-.09c-1.69-.18-2.85-1.56-2.51-3.47.12-.68.4-1.32.86-1.94A6.34 6.34 0 0 1 9.52 4h.5Zm2.1 3.03a4.04 4.04 0 0 0-3.05-.26c-1.17.36-2.19 1.4-1.95 2.86l-.18.64c-.14.44-.16.88-.09 1.32-.14-.03-.3-.09-.45-.17-1.63-.84-1.91-2.87-.98-4.5a4.46 4.46 0 0 1 4.19-2.35c.6.05 1.14.29 1.6.7.51.46.81 1.04.9 1.76Zm-.33 1.94a3.3 3.3 0 0 0 .32-1.82 7.47 7.47 0 0 1-.42-.13 3.75 3.75 0 0 0-2.35-.06c-.2.06-.42.16-.66.3-.59.36-.93.9-1.02 1.6.9-.92 1.91-1.19 3.01-.78.42.15.8.45 1.12.9Zm-.18.36a4.58 4.58 0 0 1-2.02 1.95c-.3-.14-.6-.3-.86-.48-.55-.38-.9-.94-1.07-1.68.35-.53.82-.86 1.41-1 .92-.2 1.68.08 2.28.85l.08.12c.05.08.1.17.18.24Zm-4.45 2.32c.4.12.83.12 1.3.01-.58-.4-1-.94-1.27-1.64a3.26 3.26 0 0 0-.03 1.63Z" fill="#ED7100"/><path d="M12.12 7.03a.24.24 0 0 0 0 .12 7.47 7.47 0 0 1-.43-.13 3.75 3.75 0 0 0-2.35-.06c-.2.06-.42.16-.66.3-.59.36-.93.9-1.02 1.6l-.54.77c-.24-1.45.78-2.5 1.95-2.86a4.04 4.04 0 0 1 3.05.26ZM12.05 12.22l.25-.96c1.6-.77 1.88-2.36.52-3.64l.04-.08c1.18.9 1.58 2.58.54 3.8-.36.42-.8.71-1.35.88Z" fill="#F7BB82"/><path d="m11.8 8.97-.19.36c-.12-.1-.19-.27-.26-.36-.6-.77-1.36-1.05-2.28-.84-.59.13-1.06.46-1.41.99a2.43 2.43 0 0 0-.47.9 3.26 3.26 0 0 0-.03 1.63l-.3-.06c-.08-.44-.06-.88.08-1.32l.18-.64.54-.76c.9-.93 1.91-1.2 3.01-.8.42.16.8.46 1.12.9Z" fill="#F4A051"/><path d="M9.6 11.28c-.39.2-.76.33-1.14.38-.58-.4-1-.94-1.27-1.64a2.58 2.58 0 0 1 .47-.9c.16.74.52 1.3 1.07 1.68.27.18.55.34.86.48Z" fill="#F7BB82"/><path d="m12.3 11.26-.25.96-.24.34c-.74 1.16-1.99 1.73-3.23 1.3a2.64 2.64 0 0 1-1.53-1.5.39.39 0 0 1-.03-.17c.09-.05.21-.07.36-.04.9 1.53 2.72 1.54 3.78.25.23-.27.4-.58.5-.94.01 0 .03-.03.04-.07.16-.5.18-1.04.04-1.61l.3-.37c.27.58.36 1.2.26 1.85Z" fill="#F4A051"/><path d="M9.9 11.36c.6.18 1.13.14 1.76.1-.1.36-.27.67-.5.94a4 4 0 0 1-2.17-.42.45.45 0 0 1-.15-.11l1.05-.51Z" fill="#F7BB82"/></svg>