<!-- by TradingView --><svg width="18" height="18" viewBox="0 0 18 18" xmlns="http://www.w3.org/2000/svg"><path fill="#F0F3FA" d="M0 0h18v18H0z"/><path d="M14 12.2c0 .53-.06.9-.18 1.13-.2.37-.55.61-1.06.67H5.55c-.63-.02-1.16-.28-1.4-.84-.08-.17-.14-.4-.15-.67V7.65c0-.8.06-1.6.17-2.4.04-.26.09-.45.15-.57.14-.27.41-.64.73-.68h7.78c.16 0 .33.08.5.18.42.24.67.74.67 1.21v6.82ZM8.28 4.68c.2-.07.47 0 .48.25.03.48.03.92.02 1.3 0 .15-.05.39-.14.74a5 5 0 0 0-.18.88c-.06.22-.1.36-.29.47-.28.18-.5.36-.46.74a.1.1 0 0 0 .1.09c.66-.02.97-.07 1.28.03a.03.03 0 0 0 .02 0 .03.03 0 0 0 .01-.03A315 315 0 0 1 9.1 6.5c0-.6.01-1.12.04-1.57.01-.27-.04-.5-.3-.58-.05-.02-.2-.02-.47-.03a21.51 21.51 0 0 0-.71 0 .06.06 0 0 0-.02.04v1.77l.02 1.52c0 .13.02.25.08.35a.1.1 0 0 0 .1.05c.01 0 .03 0 .04-.02a.55.55 0 0 0 .16-.26c.09-.29.14-.6.16-.95.03-.54.03-1.08 0-1.62 0-.14 0-.3.03-.45a.09.09 0 0 1 .06-.07Zm-1.73-.13c.14 0 .2.07.2.21-.09.85-.1 1.56-.04 2.14.03.32.09.59.16.81.05.14.12.25.23.33a.1.1 0 0 0 .13-.02.1.1 0 0 0 .03-.04v-.3c-.01-1-.04-2-.09-2.99 0-.1.02-.2.04-.31a.06.06 0 0 0-.06-.07l-1.57.04c-.11 0-.16.05-.15.16.06.77.13 1.15.09 1.7a.15.15 0 0 0 .07.15c.2.1.42.13.47.4.15.75.11 1.48.11 2.31a.11.11 0 0 0 .1.11 3.73 3.73 0 0 0 1-.07.1.1 0 0 0 .02-.05.42.42 0 0 0-.15-.4c-.18-.16-.52-.26-.63-.55-.07-.17-.12-.4-.17-.72a11.91 11.91 0 0 1-.08-2.6c.04-.15.13-.23.27-.24h.02Zm4.96.1c.1 0 .14.04.15.13.04.42-.08.88.33 1.15.56.37 1.09.79 1.6 1.26.08.08.12.06.12-.05-.03-.56-.04-1.1-.04-1.59 0-.31-.04-.55-.12-.7a.9.9 0 0 0-.58-.49 2.65 2.65 0 0 0-.85.01c-.48.05-1.07.08-1.75.08-.29 0-.99.15-.97.58a20.88 20.88 0 0 1 .02 1.83.05.05 0 0 0 .08.02c.47-.41.95-.77 1.43-1.06.18-.1.29-.22.34-.4.04-.14.07-.35.08-.63 0-.1.06-.15.15-.15h.01ZM4.27 7.57c.02-.15.04-.3.08-.45.1-.4.21-.6.57-.8.14-.08.18-.24.2-.37.05-.48.02-.95-.07-1.42a.1.1 0 0 0-.12-.08c-.33.05-.54.39-.63.66-.03.09-.04.22-.04.38a121.08 121.08 0 0 1 0 2.07h.01Zm6.94-.16a.16.16 0 0 0 .2 0l.77-.59a.16.16 0 0 0 .06-.12.16.16 0 0 0-.06-.13l-.64-.48a.16.16 0 0 0-.18 0l-.75.51a.16.16 0 0 0-.02.25l.62.56Zm-1.12 5.92c-.11 0-.18-.05-.2-.14-.13-.99-.2-2.07.03-3.02.05-.22.15-.52.32-.88A6.57 6.57 0 0 1 11 7.91a.11.11 0 0 0-.02-.13l-.83-.76A.14.14 0 0 0 9.98 7c-.16.1-.32.23-.5.39a.2.2 0 0 0-.07.16c.04 1.78.04 3.64-.02 5.57 0 .1.03.22.1.36a.1.1 0 0 0 .05.05c.3.1.67.16 1.12.17a6612.94 6612.94 0 0 1 2.06-.02l.01-.02v-.02a.85.85 0 0 1-.06-.34c.02-.53.02-.91 0-1.15 0-.18-.05-.56-.13-1.13a6.3 6.3 0 0 0-.8-2.43c-.38-.58-.76.07-.94.4-.4.78-.61 1.6-.63 2.48 0 .53.01 1.08.06 1.66 0 .04 0 .07-.03.1a.32.32 0 0 1-.1.1ZM4.92 8.72h.55a.26.26 0 0 0 .26-.26l.01-.86c0-.07 0-.14-.02-.2a.6.6 0 0 0-.08-.17.38.38 0 0 0-.11-.12.25.25 0 0 0-.13-.04h-.37c-.05 0-.1 0-.14.03a.38.38 0 0 0-.11.12.6.6 0 0 0-.08.17.78.78 0 0 0-.03.2v.86a.26.26 0 0 0 .25.27Zm8.62-1.06a.21.21 0 0 1-.15-.06c-.2-.2-.4-.34-.54-.44-.1-.07-.2-.07-.27-.02a3.4 3.4 0 0 0-.7.6.35.35 0 0 0-.09.16l.01.07c.11.25.34.5.53.7.34.37.52.9.61 1.39.2 1.11.26 2.23.2 3.37 0 .12.04.14.14.06.25-.2.39-.46.4-.79.01-.12-.03-.28-.06-.41a1.35 1.35 0 0 1-.03-.31c0-.49-.05-.99-.03-1.44.03-.9.06-1.42.07-1.56.07-.62.09-1.05.06-1.28 0-.03-.02-.04-.06-.04h-.1Zm-8 1.7-.74.04a.15.15 0 0 0-.15.16l.03.63c0 .14.05.27.14.36.08.09.19.14.3.13h.21c.11-.01.21-.07.29-.17.07-.1.1-.23.1-.37l-.03-.62a.15.15 0 0 0-.16-.15Zm2.76 1.17.13.02c.15.03.24.12.26.27.08.53.07 1.1-.05 1.71-.07.4-.27.7-.6.88-.12.07-.27.07-.4.1-.17.05-.17.07.01.06a10.47 10.47 0 0 0 1.26-.1.13.13 0 0 0 .04-.06c.06-.21.12-.38.11-.59a81.73 81.73 0 0 1 .04-3.15c-.09.01-.19.05-.29.05a6.28 6.28 0 0 0-.91 0c-.1.01-.15.07-.15.17l-.05 1.02c0 .1.04.17.13.2.12.05.22.08.3.08a.07.07 0 0 0 .08-.09l-.1-.36c-.04-.16.02-.23.19-.2Zm-1.5-.02v.42a.15.15 0 0 0 .16.15h.25c.1 0 .15-.05.15-.15V9.85a.15.15 0 0 0-.2-.15 2.93 2.93 0 0 1-.97.12.09.09 0 0 0-.06.09l.05.6c.01.5-.23.78-.73.84-.29.04-.51.05-.67.02-.13-.02-.24-.12-.34-.3a.47.47 0 0 1-.04-.25.9.9 0 0 0-.05-.26c0-.04-.01-.04 0 0 .01.16 0 .34.02.51l.11.93c.06.5.23.92.5 1.24.1.12.21.18.31.19a29.65 29.65 0 0 0 1.82.06.98.98 0 0 1-.56-.56 8.4 8.4 0 0 1-.14-2.19c.01-.2.11-.44.35-.3.03.01.04.04.04.07Zm1.27 1.23-1.02-.07a.17.17 0 0 0-.18.16l-.02.35a.8.8 0 0 0 .14.55c.05.08.12.14.19.19.07.04.15.06.23.07h.13c.08.01.16 0 .24-.03a.63.63 0 0 0 .21-.16.8.8 0 0 0 .15-.23c.04-.1.06-.2.07-.3l.02-.35a.17.17 0 0 0-.16-.18Z" fill="#A32229"/></svg>