<!-- by TradingView --><svg width="18" height="18" viewBox="0 0 18 18" xmlns="http://www.w3.org/2000/svg"><path fill="url(#a)" d="M0 0h18v18H0z"/><path d="M11 9c0 .1 0 .2-.02.29H7.84v-.43H11L11 9Zm1-.14a2.05 2.05 0 0 0 .02.43h3.52a1.56 1.56 0 0 1-2.93.42h-.48A2 2 0 0 0 16 8.86h-3.98Zm.46-.15h-.44l.03-.14h.45l-.04.14Zm3-.28h.46l-.05-.14h-.48c.02.04.05.09.06.14Zm-2.85-.14c-.02.04-.05.09-.06.14h-.47l.05-.14h.48Zm2.7-.15h.5L15.73 8h-.53l.1.14ZM12.8 8l-.1.14h-.5l.07-.14h.53Zm2.27-.14h.57a2.01 2.01 0 0 0-.17-.22h-.7c.11.06.2.14.3.22Zm-1.84-.22c-.11.06-.2.14-.3.22h-.57c.05-.08.1-.15.17-.22h.7Zm1.2-.14a1.56 1.56 0 0 0-.87 0h-.88a2 2 0 0 1 .29-.21h2.06l.3.21h-.9Zm.31-.36a2 2 0 0 0-1.48 0h1.48Zm-5 0a2 2 0 0 0-1.48 0h1.48ZM6 7.14V7h-.43V7.14H6Zm-.43.15H6v.21h-.46l.03-.21Zm-3.14-.15V7H2v.14h.43ZM2 7.3h.43l.03.21H2v-.21Zm0 .35v.22h.57a1.84 1.84 0 0 1-.07-.22H2Zm3.5 0-.07.22H6v-.22h-.5Zm2.03 0a2 2 0 0 0-.17.22h.57c.1-.08.19-.16.3-.22h-.7Zm1.9-.14a1.56 1.56 0 0 0-.87 0h-.88a2 2 0 0 1 .29-.21h2.06l.3.21h-.9Zm.34.14c.11.06.2.14.3.22h.57a2.01 2.01 0 0 0-.17-.22h-.7Zm.96.36h-.53l.1.14h.5L10.74 8Zm.14.29h-.48c.02.04.05.09.06.14h.47l-.05-.14Zm.08.28.03.14h-.44l-.04-.14h.45Zm-3.4-.14c.01-.05.04-.1.06-.14h-.48l-.05.14h.47Zm-.5.14h.45l-.04.14h-.44a2 2 0 0 1 .03-.14ZM6 8.43v-.14h-.83l-.13.14H6Zm-1.13.14H6v.14H4.63c.08-.04.16-.08.24-.14Zm-1.9-.14-.14-.14H2v.14h.96ZM2 8.57h1.13c.08.06.16.1.24.14H2v-.14Zm0 .29V11h.43c0-.92.66-1.66 1.49-1.66h.16c.83 0 1.5.74 1.5 1.66H6V8.86H2Zm5 0V9a2 2 0 0 0 3.87.71h-.48a1.56 1.56 0 0 1-2.95-.85h-.43Zm-5-.72h.73L2.64 8H2v.14ZM5.36 8l-.09.14H6V8h-.64Zm1.9 0a2 2 0 0 0-.07.14h.5L7.8 8h-.53Z" fill="#E6003D"/><defs><linearGradient id="a" x1="3.35" y1="3.12" x2="21.9" y2="24.43" gradientUnits="userSpaceOnUse"><stop stop-color="#1A1E21"/><stop offset="1" stop-color="#06060A"/></linearGradient></defs></svg>