<!-- by TradingView --><svg width="18" height="18" viewBox="0 0 18 18" xmlns="http://www.w3.org/2000/svg"><path fill="#F0F3FA" d="M0 0h18v18H0z"/><path d="M8.41 5 7.36 9.42l-1.22-.3L7.12 5H8.4ZM12.37 5l-.22.92-1.36.34.3-1.26h1.28ZM11.82 7.34l-1.33 5.61c-.01.03-.03.05-.06.05h-1.2c-.04 0-.05-.01-.04-.04l1.26-5.3 1.37-.32Z" fill="#1C63B7"/><path d="m6.14 9.12 1.22.3c.48.11.95.12 1.4.04.35-.06.5-.28.47-.66 0-.03.01-.04.04-.02.16.12.25.27.29.45.23 1.18-1.13 1.48-1.85 1.48a7.7 7.7 0 0 1-1.9-.23 11.34 11.34 0 0 1-2.8-1.13V9.3l.35-1.52.01-.01.01-.01a.03.03 0 0 1 .03 0c.88.55 1.79 1 2.73 1.36Z" fill="#66C53E"/><path d="m7.06 10.68-.55 2.29c0 .02-.01.03-.04.03H5.25l-.02-.01v-.03l.59-2.48c.4.1.81.17 1.24.2Z" fill="#1C63B7"/><path d="m15 5.45-.4 1.52-1.22.13a25 25 0 0 0-1.56.24l-1.37.32c-.5.11-.98.3-1.42.54-.29.16-.54.39-.51.75v.02l-.01.01a.03.03 0 0 1-.03 0 .84.84 0 0 1-.28-.78c.11-.79.97-1.3 1.59-1.56.4-.17.73-.3 1-.38l1.36-.34c.95-.2 1.9-.35 2.85-.47Z" fill="#66C53E"/></svg>