<!-- by TradingView --><svg width="18" height="18" viewBox="0 0 18 18" xmlns="http://www.w3.org/2000/svg"><path fill="#F0F3FA" d="M0 0h18v18H0z"/><path fill-rule="evenodd" d="M9 14.3A5.3 5.3 0 1 0 9 3.7a5.3 5.3 0 0 0 0 10.6Zm0 .7A6 6 0 1 0 9 3a6 6 0 0 0 0 12Z" fill="#003D99"/><path d="M7.24 12H4.77v-.32a1.24 1.24 0 1 1 2.47 0V12Z" fill="#E61A27"/><path d="m5.95 6.07-.74 4.22c2.05-.51 2.44.93 2.38 1.71.37-.3.47-.85.47-1.08-.07-1.01-1.3-1.53-1.91-1.67.24-.14.78-.74.98-1.93.2-1.2-.7-1.33-1.18-1.25Z" fill="#2FA73A"/><path d="M9.75 7.13c0-1.18-1.16-1.22-1.83-1.06 1 .9.2 2.22-.33 2.76 1.8.95 1.12 2.51.55 3.17.22 0 1.48-.7 1.48-1.71 0-.8-.59-1.4-.88-1.6.81-.53 1.01-1.26 1.01-1.56Z" fill="#2FA73A"/><path d="M12.97 6H9.92c.79 1.1.06 2.28-.4 2.74 1.15 1.46.2 2.78-.41 3.26h2.85c2.05-.86 1.25-2.54.6-3.26 1.24-.93.79-2.21.4-2.74Z" fill="#003D99" fill-opacity=".7"/></svg>