<!-- by TradingView --><svg width="18" height="18" fill="none" xmlns="http://www.w3.org/2000/svg"><path fill="#F0F3FA" d="M0 0h18v18H0z"/><path d="M11.5 7.317c.018.795-.603 1.64-.915 1.963C10.316 7.728 9 7.386 8.375 7.41c-2.41-.111-3.772 1.847-4.152 2.84C4.171 10.05 4 9.294 4 8.841c0-.577.268-1.34.424-1.616.156-.277 1.323-2.805 4.286-2.587 2.187.162 2.767 1.686 2.79 2.68Z" fill="#0095DA"/><path d="M9.477 11.678c-.694-.365-1.542-1.28-1.473-2.345 1.101 1.067 2.68.587 3.154-.373 1.263-2.08.177-4.158-.485-4.96.996.254 1.958.699 2.506 1.62.159.267 1.742 2.483.037 4.933-1.26 1.81-2.871 1.58-3.739 1.125Z" fill="#41AD49"/><path d="M6.279 8.36c.697-.386 1.888-.43 2.388-.281-1.23.938-.914 2.222-.54 2.704C9.39 12.739 11.902 12.896 13 12.73c-.149.135-.724.624-1.127.836-.514.27-1.343.416-1.678.423-.335.006-3.243.27-4.723-2.172-1.092-1.802-.064-2.974.807-3.457Z" fill="#FFC20E"/></svg>