<!-- by TradingView --><svg width="18" height="18" viewBox="0 0 18 18" xmlns="http://www.w3.org/2000/svg"><path fill="#039" d="M0 0h18v18H0z"/><path fill-rule="evenodd" d="M12.77 12.73c-.04.47-.27 1.27-.9 1.27-.86 0-1.08-1.85-1.05-2.43.03-.46.21-2.17.3-2.97-.17.05-.57.18-.78.3.04 1.67-.54 5.01-3.16 5.01C3.91 13.91 4 9.42 4 8.84c.01-.59.3-2.9 2.63-3.82C6.85 4.67 7.41 4 8.16 4c.12-.01.5.06.96.47.59.5 1.27.6 1.82.27.2-.12.33-.2.43-.28.15-.1.24-.17.4-.22a.1.1 0 0 1 .12.1c0 .07-.06.12-.12.13-.23.03-.58.23-.83.87-.3.79-.53 2.5-.6 3.26-.01.04 0 .1.2 0s.5-.22.61-.26c.08-.6.37-2.06.91-3 .67-1.18 1.14-1.18 1.39-1.18s.55.38.55.8c0 .43-.48.47-.55.06a2.32 2.32 0 0 1-.03-.3c0-.2-.01-.3-.22-.3-.29 0-.78.68-1.38 3.76a.7.7 0 0 1 .56.2c.12.12.2.2.24.26.02.03.01.08-.02.1-.05.04-.12.03-.16-.02-.12-.14-.34-.33-.62-.3-.13.75-.4 2.51-.4 3.47 0 1.2.04 1.87.53 1.87.37 0 .58-.66.65-1.05a.1.1 0 0 1 .09-.07c.05 0 .09.04.08.09ZM8.88 6.05a1.99 1.99 0 0 0-1.92-1.1c.08-.16.41-.66 1.09-.66.36 0 .76.25 1.15.5.35.2.69.42.95.42.43 0 .66-.14.74-.21-.7.74-1.1 2.9-1.2 3.9h-.25a5.86 5.86 0 0 0-.56-2.85Zm2.02-1.06-.01.01Zm-4.08.2c-.11.15-.33.73-.33 1.87 0 1.43.88 2.05 1.38 2.05.4 0 .75-.36.87-.54a3.69 3.69 0 0 1-.04-.42c-.01-.22.07-.27.17-.27s.14.14.14.33c0 .15-.04.32-.06.38l.28.3c.17-1.25-.08-3.74-2.41-3.7Zm2.55 3.9c.06.02.2.04.28 0-.15 1.54-.88 4.62-2.63 4.62-2.18 0-2.73-2.92-2.73-4.73a4.08 4.08 0 0 1 2.3-3.75c-.1.22-.29.87-.29 1.69 0 1.03.63 2.41 1.59 2.41.48 0 .82-.36.94-.55.05.06.2.19.34.27-.18.76-.81 2.28-1.88 2.28-1.3 0-1.62-1.7-1.48-2.63a.1.1 0 0 0-.08-.11.1.1 0 0 0-.12.08c-.09 1.03.13 2.9 1.68 2.9 1.6 0 2.05-1.65 2.08-2.47Z" fill="#FCFFF4"/></svg>