<!-- by TradingView --><svg width="18" height="18" viewBox="0 0 18 18" xmlns="http://www.w3.org/2000/svg"><path fill="#F0F3FA" d="M0 0h18v18H0z"/><path d="M8.58 13.11c.02.08.05.08.07 0l2.25-7.36a2.71 2.71 0 0 1 2.35-1.73c.15-.02.37-.02.68-.02.1 0 .1.03 0 .06-.22.1-.39.22-.5.39-.08.09-.15.28-.24.56l-1.82 5.97c-.15.5-.29.84-.4 1.03a2.5 2.5 0 0 1-.9.84 3 3 0 0 1-2.1.32 2.76 2.76 0 0 1-1.72-1.2c-.12-.18-.25-.5-.38-.96l-.99-3.23a2.9 2.9 0 0 0-.25-.65 1.2 1.2 0 0 0-.58-.44c-.07-.03-.07-.04 0-.04h.62c.58.03 1.1.2 1.55.53.47.33.78.77.94 1.3l1.42 4.63Z" fill="#1FAB4B"/><path d="M9.9 7.65c-.01.01-.02.02-.03.01a3.19 3.19 0 0 0-2.56.03c-.04.02-.08 0-.1-.04l-.17-.28c-.01-.02 0-.04.02-.05A3.72 3.72 0 0 1 10 7.26l-.1.4ZM8.61 13.57c.7 0 1.34-.2 1.89-.6.55-.4.93-.92 1.13-1.57l.47-1.51c.02-.08.04-.08.06 0a3.37 3.37 0 0 1-.79 2.85A3.54 3.54 0 0 1 8.61 14a3.62 3.62 0 0 1-3.46-2.57 3.38 3.38 0 0 1-.08-1.55c.02-.08.04-.08.06 0l.46 1.52a3.15 3.15 0 0 0 3.02 2.18Z" fill="#1FAB4B"/></svg>