<!-- by TradingView --><svg width="18" height="18" viewBox="0 0 18 18" xmlns="http://www.w3.org/2000/svg"><path fill="url(#a)" d="M0 0h18v18H0z"/><path d="M8 9.11V5.5c0-.03-.05-.05-.1-.05-1.47.05-2.48.7-2.78 1.94-.15.62-.08 1.23.23 1.81.14.26.33.39.58.4.06 0 .08.02.08.07a1 1 0 0 1-.3.62c-.2.2-.42.22-.65.04a2.65 2.65 0 0 1-1.02-1.79c-.1-.7-.01-1.36.28-1.96a3.2 3.2 0 0 1 1.6-1.48c.68-.32 1.57-.5 2.42-.52.2 0 .34.03.43.1.15.11.23.24.23.4.02 1.26.01 2.62 0 4.06 0 .03.01.05.05.05h1.8c.05 0 .07-.02.07-.06l.02-4.16c0-.22.07-.44.2-.66.2-.32.46-.38.8-.2.14.08.45.22.56.44v.05l-.03.04c-.21.12-.47.34-.47.68v7.37c0 .24-.18.34-.46.31l-.2-.02c-.27-.03-.4-.17-.4-.41v-2.51c0-.05-.03-.07-.08-.07H9.08c-.06 0-.08.02-.08.07v2.62c0 .25-.14.33-.42.32l-.2.01c-.27 0-.38-.2-.38-.45v-2.5c0-.04-.06-.07-.11-.07H6.9c-.24 0-.39-.1-.44-.3l-.04-.16c-.06-.22.04-.34.3-.34H7.9c.05 0 .11-.02.11-.07Z" fill="#FFECD6"/><defs><linearGradient id="a" x1="3.35" y1="3.12" x2="21.9" y2="24.43" gradientUnits="userSpaceOnUse"><stop stop-color="#1A1E21"/><stop offset="1" stop-color="#06060A"/></linearGradient></defs></svg>