<!-- by TradingView --><svg width="18" height="18" viewBox="0 0 18 18" xmlns="http://www.w3.org/2000/svg"><path fill="#F0F3FA" d="M0 0h18v18H0z"/><path d="M6.38 13.94 11.21 5h-.7L8.5 8.16a.11.11 0 0 1-.12.05 8.42 8.42 0 0 0-2.3.06c-.07.02-.1-.01-.05-.09l1.29-2.37c.09-.17.06-.31-.1-.4l-.08-.05c-.2-.13-.37-.09-.5.12l-1.69 2.8c-.04.06-.1.1-.17.12L2 8.89v.45c.77.1 1.56.07 2.38-.1.04-.01.07 0 .09.03a.1.1 0 0 1 .01.1l-.7 1.86c-.03.07 0 .11.06.12h.1c.1 0 .16-.02.2-.09.36-.75.81-1.44 1.35-2.08a.26.26 0 0 1 .18-.1c.76-.03 1.52-.14 2.27-.32.03 0 .06 0 .08.03.02.03.02.06 0 .1a17.38 17.38 0 0 0-1.84 4.84c-.03.09-.03.15 0 .21.02.04.06.06.1.06.05 0 .08-.02.1-.06Zm5.4-5.62c.27-.43.56-.86.89-1.31a.1.1 0 0 1 .08-.05 37.9 37.9 0 0 1 2.97.08c.13 0 .22-.02.26-.1.04-.06.02-.1-.04-.14a6.66 6.66 0 0 0-5.33-.43c-.07.02-.11.07-.12.15a.9.9 0 0 0 0 .3c.02.08.08.13.16.13h.8c.04 0 .07.02.1.06.02.04.02.08 0 .12l-.7 1.17c-.04.07-.1.1-.17.1-.25-.03-.41.06-.5.27-.04.1-.01.15.08.18s.16.07.2.11c.06.05.07.11.05.19-.27 1.1.05 1.92.98 2.45.88.5 1.77.53 2.7.08.25-.13.42-.27.51-.4.11-.2.07-.25-.12-.18-.83.31-1.67.36-2.53.16-.6-.15-.87-.76-.77-1.84.01-.17.1-.25.25-.25 1.23 0 2.34-.1 3.32-.27.02 0 .04-.02.05-.05a.2.2 0 0 0 .02-.06c0-.06-.03-.1-.08-.1-.9-.17-1.92-.28-3.04-.35-.02 0-.02 0-.01-.02Z" fill="#008356"/></svg>