<!-- by TradingView --><svg width="18" height="18" viewBox="0 0 18 18" xmlns="http://www.w3.org/2000/svg"><path fill="#F0F3FA" d="M0 0h18v18H0z"/><path d="M9 3 2 13h14L9 3Z" fill="#0E5AFD"/><path d="m14.43 11.39-5.6-8.14-5.7 8.14H7V12H2.7l-.46.66H15.3l-.45-.66H11v-.61h3.43Z" fill="#62D3FD"/><path d="M6 7v3h1V8.67h.49V10H8.5V7H7.49v1.16H7V7H6Z" fill="#fff"/><path fill-rule="evenodd" d="M10 7v3h1.35c.36 0 .65-.32.65-.71V7.7c0-.4-.29-.71-.65-.71H10Zm1.03 2.42c.09 0 .16-.08.16-.18V7.76c0-.1-.07-.18-.16-.18h-.22v1.84h.22Z" fill="#fff"/><path d="M8 8.8c0-.44.25-.8.55-.8h.9c.3 0 .55.36.55.8v.98h-.76v-.84c0-.12-.07-.23-.15-.23h-.14c-.08 0-.15.1-.15.23v2.12c0 .12.07.23.15.23h.14c.08 0 .15-.1.15-.23v-.84H10v.98c0 .44-.25.8-.55.8h-.9c-.3 0-.55-.36-.55-.8V8.8Z" fill="#0E5AFD"/></svg>