<!-- by TradingView --><svg width="18" height="18" viewBox="0 0 18 18" xmlns="http://www.w3.org/2000/svg"><path fill="#F0F3FA" d="M0 0h18v18H0z"/><path d="M7.6 6c.33 0 .62.08.86.21v1.1c-.2-.35-.5-.55-.9-.56-.87-.01-1.25 1-1.25 2.25 0 1.24.38 2.27 1.25 2.25.4-.01.7-.22.9-.56v1.1c-.24.13-.53.2-.85.2-1.4.04-2.02-1.33-2.02-2.99 0-1.66.61-3.02 2.02-3Zm2.12 0H9v6h.72V9.6l.43-.65L11.49 12h.76l-1.72-3.62L12.13 6h-.84L9.72 8.49V6ZM2.67 6H2v6h.67V9.38h1.66V12H5V6h-.67v2.63H2.67V6Zm13.21 0h-.77l-1.44 2.46V6H13v6h.67V9.57l.38-.62L15.3 12h.7l-1.6-3.62L15.89 6Z" fill="#151C54"/></svg>