<!-- by TradingView --><svg width="18" height="18" viewBox="0 0 18 18" xmlns="http://www.w3.org/2000/svg"><path fill="#F0F3FA" d="M0 0h18v18H0z"/><path d="M4.21 4c2.9 1.14 6.38 3.28 9.28 4.72.14.07.25.07.4.08.12.1.14.22.05.35l-3.2 4.78a.26.26 0 0 1-.14-.09l-.17-.24a416.33 416.33 0 0 1-2.87-4.26l-.14-.2a.07.07 0 0 0-.06-.05l-.08-.02c.03-.05.03-.1 0-.15L4.04 4.1C3.99 4.04 4 4 4.1 4h.11Z" fill="#00AD1D"/><path d="M13.89 8.8c-.15 0-.26-.01-.4-.08L4 4h6.62c.02 0 .05 0 .07.02.02 0 .04.02.05.04l3.15 4.74Z" fill="#00E600"/><path d="m7.28 9.07.09.02c.02 0 .04.02.05.04.03.07.1.15.14.2a415.9 415.9 0 0 0 3.04 4.51c.02.04.07.07.14.09-.04.04-.08.07-.14.07H4.07c-.07 0-.09-.03-.05-.08l3.26-4.85Z" fill="#018232"/></svg>