<!-- by TradingView --><svg width="18" height="18" viewBox="0 0 18 18" xmlns="http://www.w3.org/2000/svg"><path fill="#F0F3FA" d="M0 0h18v18H0z"/><path d="M6 7.86V12h2V8h2v4h2V7.86h1.23L9 5 4.94 7.86H6Z" fill="#EA2A05"/><path d="M4.83 12V7.86H5v3.98h1.97l-.01.16H4.83Z" fill="#EA2A05"/><path d="m6.62 5 .64.42.66-.41.74.55-.1.13-.64-.5-3.9 2.64h3.41V8H4v3.84h2V12H3.8V8H2l4.62-3Zm-2.9 2.83L7.1 5.5l-.49-.31-4 2.63h1.1Z" fill="#EA2A05"/><path d="M5.82 12V7.86h-.16v3.98h-.98l.02.16h1.12ZM11.38 5l-.64.42-.66-.41-.74.55.1.13.64-.5 3.9 2.64h-3.41V8H14v3.84h-2V12h2.2V8H16l-4.62-3Zm2.9 2.83L10.9 5.5l.49-.31 4 2.63h-1.1Z" fill="#EA2A05"/><path d="M13.16 12V7.86h-.17v3.98H11l.02.16h2.13Z" fill="#EA2A05"/></svg>