<!-- by TradingView --><svg width="18" height="18" viewBox="0 0 18 18" xmlns="http://www.w3.org/2000/svg"><path fill="#F0F3FA" d="M0 0h18v18H0z"/><path d="M8.18 7.2c.7-.4 1.36.16 1.44.93.11.95-.72 1.75-1.43 2.11-.03.01-.05 0-.07-.01-.1-.12-.22-.3-.35-.51-.52-.83-.44-2.03.41-2.53Z" fill="#306BB1"/><path d="M9.7 10.82a3.12 3.12 0 0 0 1.25-.86v-.02l-.01-.01c-.43-.36-.56-.83-.38-1.42.1-.35.43-.64.75-.42.14.1.21.25.21.46a1.95 1.95 0 0 1-.48 1.36.06.06 0 0 0 0 .05l.03.01c1.08.4 2.22-.32 2.65-1.44a.08.08 0 0 0-.01-.07c-.1-.12-.23-.21-.3-.34-.17-.28-.25-.89.1-1.06.14-.06.26-.02.37.14.3.47-.08.88-.06 1.4.03.7-.2 1.3-.7 1.84-.82.88-2 1.2-3.12 1.05-.4-.05-.72-.2-1.04-.46-.1-.08-.09-.12.04-.11a2.28 2.28 0 0 0 .7-.1Z" fill="url(#ajcw1menh)"/><path d="M4.76 7.1c.4-.21.82-.45 1.17-.76.28-.26.48-.77.27-1.14-.2-.36-.73-.17-.97.07-.4.4-.5 1.26-.5 1.82 0 .02.01.03.03.02Zm2.26 3.65a3.46 3.46 0 0 1-2.35-3.5h-.02c-.35.34-.56.76-.62 1.27-.26 2.1 1.47 2.84 3 2.3v-.02l.01-.02v-.02l-.02-.01Z" fill="url(#bjcw1menh)"/><path d="M13.6 10.53c-1.83 4.57-7.63 4.68-9.43.02-.06-.14-.04-.15.05-.04.68.82 1.79.97 2.7.7a2.3 2.3 0 0 0 1.2-.88c.03-.02.04-.02.06.01.41 1.08 1.2 1.5 2.24 1.55 1.27.04 2.5-.54 3.25-1.71.03-.05.04-.05.03.01l-.1.34Z" fill="url(#cjcw1menh)"/><defs><linearGradient id="ajcw1menh" x1="10.48" y1="8.18" x2="12.54" y2="10.57" gradientUnits="userSpaceOnUse"><stop offset=".03" stop-color="#FCC41F"/><stop offset=".56" stop-color="#FA9C10"/><stop offset="1" stop-color="#F58300"/></linearGradient><linearGradient id="bjcw1menh" x1="5.52" y1="5" x2="5.52" y2="10.98" gradientUnits="userSpaceOnUse"><stop stop-color="#F6D015"/><stop offset=".39" stop-color="#F58B05"/></linearGradient><linearGradient id="cjcw1menh" x1="4.14" y1="11.07" x2="14.72" y2="11.07" gradientUnits="userSpaceOnUse"><stop stop-color="#1B4990"/><stop offset=".36" stop-color="#306CB2"/><stop offset=".99" stop-color="#154790"/></linearGradient></defs></svg>