<!-- by TradingView --><svg width="18" height="18" viewBox="0 0 18 18" xmlns="http://www.w3.org/2000/svg"><path fill="#F0F3FA" d="M0 0h18v18H0z"/><path d="M3.71 6.6a2.73 2.73 0 0 1 2.6.48c.3.24.57.5.8.8.56.72 1.05 1.52 1.48 2.4.18.35.3.66.28 1.03-.1 1.29-2.71.14-3.28-.13a12.97 12.97 0 0 1-2.3-1.35c-.36-.27-.68-.6-.94-.96-.18-.25-.3-.5-.34-.77a.7.7 0 0 1 .22-.67c.14-.12.27-.23.41-.32.34-.21.7-.38 1.07-.52Z" fill="url(#a)"/><path d="M11.32 7.96c-.07-.39-.21-.75-.44-1.07-.21-.32-.49-.56-.82-.73-.2-.1-.39-.15-.56-.16-.2 0-.4.04-.58.13a1.6 1.6 0 0 0-.79.84c-.2.58-.15 1.23.02 1.8a4.97 4.97 0 0 0 1.87 2.47c.58.28 1-.01 1.2-.55a4 4 0 0 0 .22-1.2 6.14 6.14 0 0 0-.12-1.53Z" fill="url(#b)"/><path d="M14.96 10.35c-.08.3-.2.5-.4.7a3.66 3.66 0 0 1-1.1.8c-.24.11-.5.16-.78.15-.47-.02-.75-.25-.86-.68a3.18 3.18 0 0 1-.07-1.13c.03-.48.2-.95.57-1.25.32-.26.8-.57 1.18-.54.17 0 .34.05.52.12.4.17.73.44.87.86.09.26.16.6.07.97Z" fill="url(#c)"/><defs><linearGradient id="a" x1="2" y1="7.55" x2="8.02" y2="12" gradientUnits="userSpaceOnUse"><stop stop-color="#E99313"/><stop offset="1" stop-color="#D71516"/></linearGradient><linearGradient id="b" x1="9.72" y1="6" x2="9.72" y2="11.35" gradientUnits="userSpaceOnUse"><stop stop-color="#89BC27"/><stop offset="1" stop-color="#0A9246"/></linearGradient><linearGradient id="c" x1="14.28" y1="8.94" x2="12.69" y2="11.4" gradientUnits="userSpaceOnUse"><stop stop-color="#1C7FBE"/><stop offset="1" stop-color="#1E2B76"/></linearGradient></defs></svg>