<!-- by TradingView --><svg width="18" height="18" viewBox="0 0 18 18" xmlns="http://www.w3.org/2000/svg"><path fill="#F0F3FA" d="M0 0h18v18H0z"/><path d="M6 4h1.9c.05 0 .1.03.1.08v1.7a2.95 2.95 0 0 0-1.47-.15.24.24 0 0 0-.12.05.11.11 0 0 1-.1.02.09.09 0 0 0-.1.03.28.28 0 0 1-.21.1V4Z"/><path d="M8 5.79v1.8c0 .06.03.07.08.03a3.43 3.43 0 0 1 2.37-.85c.66.01 1.24.18 1.72.49.24.15.43.36.57.65-.04 0-.08.01-.1.04a.2.2 0 0 0-.02.05c0 .03-.01.03-.01 0 0-.06-.01-.06-.02 0a.1.1 0 0 1-.02.03.09.09 0 0 1-.08.04h-1.36c-.25 0-.54-.02-.86-.06a4.97 4.97 0 0 0-.87-.06c-1.13.1-2.26.15-3.4.13V5.84c.08 0 .15-.04.21-.11a.09.09 0 0 1 .1-.03c.04 0 .07 0 .1-.02a.24.24 0 0 1 .12-.05c.55-.07 1-.02 1.47.16Z" fill="#1D0904"/><path d="M12.73 7.87c.22.46.27.79.27 1.52-.04 0-.1 0-.12.03a.1.1 0 0 0-.03.1c.01.06 0 .1-.05.12a.11.11 0 0 1-.12.01c-.26-.14-.53-.27-.81-.4a.64.64 0 0 1-.19-.14.66.66 0 0 0-.3-.2c-.2-.08-.4-.18-.6-.3-.2-.29-.47-.45-.8-.5-.41-.04-.78.01-1.11.17-.5.24-.87.85-.87 1.35v.89c-.63.1-1.1.36-1.56.76v.01c.48-.34.96-.53 1.56-.58v2.2c0 .05-.1.09-.15.09h-.2c0-.04 0-.07-.03-.07H6.26c-.03.01-.05.04-.06.07H6V8.04c1.14.02 2.27-.02 3.4-.12.16-.02.44 0 .87.05.32.04.61.06.86.06h1.36c.04 0 .06-.01.08-.04a.1.1 0 0 0 .02-.04c0-.05.01-.05.02 0v.02c0 .02 0 .02 0 0a.2.2 0 0 1 .03-.06c.02-.03.04-.04.1-.04Z" fill="#370D08"/><path d="M13 9.27v.92c-.06 0-.1 0-.13-.02 0-.02 0-.04-.04-.04A3.78 3.78 0 0 1 11 9.36c0-.43-.08-.49-.3-.87.34.02.47-.07.68 0a.66.66 0 0 1 .3.2c.07.07.13.12.19.15.28.13.55.26.8.4.05.02.09.02.13 0 .04-.04.06-.08.05-.13a.1.1 0 0 1 .03-.1c.03-.03.08.26.12.26Z" fill="#541B0C"/><path d="M11 9.36c.5.39 1.15.64 1.96.77.03 0 .04.02.04.04h-2v-.8Z" fill="#C03922"/><path d="M11 10.17h1.88l.12.02v.24c-.65.08-1.32.09-2 .01v-.27Z" fill="#F1712A"/><path d="M13 10.43v.6l-2 .03v-.62a8.7 8.7 0 0 0 2-.01Z" fill="#FFF4C0"/><path d="M8 10.48v.23c-.56.04-1.1.27-1.54.61l-.03-.03v-.01c.43-.4.99-.7 1.57-.8Z" fill="#E45E23"/><path d="M13 11.03v.17l-1.18.1c-.05 0-.09-.01-.13-.03a.92.92 0 0 0-.47-.07l-.22-.1v-.04l2-.03Z" fill="#F9A144"/><path d="m11 11 .22.1 1.78.76v1.02c0 .08-.04.12-.12.12h-1.8c-.05 0-.08-.03-.08-.08V11Z" fill="#541B0C"/><path d="M11.15 11.1c.18-.06.36.07.51.14l.13.02L13 11.2v.71l-1.85-.82Z" fill="#E45E23"/></svg>