<!-- by TradingView --><svg width="18" height="18" viewBox="0 0 18 18" xmlns="http://www.w3.org/2000/svg"><path fill="#F0F3FA" d="M0 0h18v18H0z"/><path d="m8.2 10.84-2 .4 1.56-3.39 2.03-.46-1.58 3.45Z" fill="#563B6C"/><path d="M7.82 4.44 9.61 4l.9 1.82-1.96.39-.73-1.77Z" fill="#71518C"/><path d="m4.5 11 3.32-6.56.73 1.77-2.36 5.06L4.5 11Z" fill="#8761A8"/><path d="m6.18 11.24 2.03-.4 3.39.54-2.02.51-3.4-.65Z" fill="#118289"/><path d="M10.36 13.7 4 12l.5-1 4.98.7.88 2Z" fill="#46A8B3"/><path d="m8.55 6.2 1.97-.38 3.48 7.6-2.12.58-3.33-7.8Z" fill="#9F1717"/><path d="m7.78 7.87.77-1.66L11.88 14l-1.52-.3-2.58-5.83Z" fill="#C21924"/></svg>