<!-- by TradingView --><svg width="18" height="18" viewBox="0 0 18 18" xmlns="http://www.w3.org/2000/svg"><path fill="#F0F3FA" d="M0 0h18v18H0z"/><path d="M7 11h2.77c.1 0 .35 0 .35.1-.02 2.18-2.8 2.86-4.33 1.65a4.93 4.93 0 0 1-1.47-5.59 4.95 4.95 0 0 1 3.37-3.04c.34-.08.68-.12 1.03-.12.38 0 .73.03 1.03.08.07 0 .13.03.18.06.1.05.1.1-.02.11l-.68.15C7.94 4.73 7 5.7 7 7v4Z" fill="#AC1B2A"/><path d="M11 7H7.99c-.1 0-.16-.02-.16-.13.02-1.26 1.11-2.21 2.34-2.28.73-.04 1.49.2 2.06.66.87.71 1.42 1.6 1.64 2.66.08.35.12.76.13 1.21 0 .18-.01.34-.04.5-.04.23-.04.47-.1.69a5.2 5.2 0 0 1-1.94 2.82c-.23.17-.53.33-.9.49-.15.06-.44.16-.84.28-.18.06-.39.09-.63.1-.37 0-.72 0-1.04-.03-.16-.01-.3-.05-.43-.11-.14-.07-.13-.12.01-.17a2 2 0 0 1 .42-.08c1.21-.1 2.49-1.14 2.49-2.37V7Z" fill="#ACACAC"/></svg>