<!-- by TradingView --><svg width="18" height="18" viewBox="0 0 18 18" xmlns="http://www.w3.org/2000/svg"><path fill="#F0F3FA" d="M0 0h18v18H0z"/><path fill-rule="evenodd" d="M4 13h2.9l3.46-6h.02v-.03l1.16-2L7.64 13h2.31l.2-.77c2.37-.49 4.07-2.17 3.83-3.82-.16-1.07-1.08-1.87-2.35-2.22l.49-1.97c.04-.18-.17-.3-.29-.16L10.13 6c-.35 0-.71.03-1.08.1-2.47.42-4.28 2.15-4.03 3.85.07.46.28.86.6 1.21L4 13Zm2.42-2.77L9.2 7.06a8 8 0 0 0-.03 0c-1.92.3-3.34 1.39-3.15 2.45.04.27.19.52.4.72Zm4.97-3.07-.9 3.64c1.58-.41 2.65-1.37 2.5-2.31-.11-.62-.73-1.1-1.6-1.33Z" fill="#049"/></svg>