<!-- by TradingView --><svg width="18" height="18" viewBox="0 0 18 18" xmlns="http://www.w3.org/2000/svg"><path fill="#F0F3FA" d="M0 0h18v18H0z"/><path fill-rule="evenodd" d="M9 14A5 5 0 1 0 9 4a5 5 0 0 0 0 10Zm2.56-4.84-.04.04-.03.01-.03-.01L9 6.87a4.07 4.07 0 0 0-.61-.51c-.45-.27-.94-.4-1.47-.35a1.5 1.5 0 0 0-.52.14.69.69 0 0 0-.32.25c-.17.3-.02.62.24.8l.18.1c.17.1.38.11.58.11a104.28 104.28 0 0 0 1.54.02l.44.38c.04.03.05.07.04.12a.09.09 0 0 1-.11.06c-.35-.1-.68-.14-1-.1-.15.01-.3.05-.43.13-.16.09-.29.27-.26.44a.5.5 0 0 0 .27.4c.16.09.27.14.33.15.4.06.76.06 1.09 0 .16-.04.38-.13.65-.28.18-.1.3-.13.46.01l2.43 2.14c.05.04.1.08.17.11l.03.01c.1 0 .2-.14.24-.2.07-.1.04-.15-.03-.22a4.32 4.32 0 0 0-.2-.19.6.6 0 0 1-.16-.19.1.1 0 0 1 0-.05.1.1 0 0 1 .02-.04l.18-.24c.03-.04.03-.08-.01-.12l-.26-.2a.12.12 0 0 0-.07-.02.1.1 0 0 0-.07.02l-.19.18c-.05.04-.1.04-.16-.01a.93.93 0 0 1-.03-.03c-.05-.06-.05-.12 0-.18 0-.02.02-.04.03-.05.06-.07.1-.13.1-.2v-.04a.63.63 0 0 0-.25-.23h-.04c-.11.01-.2.1-.26.17Z" fill="#D33934"/><path fill="#F0F3FA" fill-opacity=".5" d="M5 10h6v1H5z"/></svg>