<!-- by TradingView --><svg width="18" height="18" viewBox="0 0 18 18" xmlns="http://www.w3.org/2000/svg"><path fill="#F0F3FA" d="M0 0h18v18H0z"/><path d="M6.47 8C4.42 8.28 3 8.88 3 9.58c0 .58 1 1.1 2.53 1.42v-.33c-.52-.1-2.21-.4-2.21-1.1 0-.88 2.6-1.34 3.15-1.41V8ZM11.53 8.16c.55.07 3.15.53 3.15 1.42 0 .69-1.7.98-2.2 1.1V11C14 10.68 15 10.16 15 9.58c0-.7-1.42-1.3-3.47-1.58v.16Z" fill="#0064A6"/><path d="M9 8.16 8.68 5 6.63 9.58 9 8.16Z" fill="#C62B1F"/><path d="m9.32 8.16 1.1 1.42L12.16 5 9.32 8.16Z" fill="#D3241F"/><path d="M10.97 10.37c.2 0 .56.05.56.31s-.36.32-.56.32h-.39v-.63h.4Zm-.01.5c.2 0 .25-.07.25-.19 0-.11-.06-.18-.25-.18h-.06v.37h.06ZM9.67 10.57c-.03-.04-.1-.06-.18-.06-.15 0-.17.07-.17.17 0 .12.02.19.18.19.12 0 .2-.04.24-.11h-.3v-.11h.5v.14c-.07.16-.3.21-.45.21-.2 0-.49-.07-.49-.32 0-.24.3-.31.49-.31.23 0 .39.08.44.2h-.26ZM8.69 10.37v.12h-.32V11h-.32v-.5h-.31v-.13h.95ZM7.42 10.37V11h-.31v-.26h-.32V11h-.32v-.63h.32v.25h.32v-.25h.31Z" fill="#0064A6"/></svg>