<!-- by TradingView --><svg width="18" height="18" viewBox="0 0 18 18" xmlns="http://www.w3.org/2000/svg"><path fill="#F0F3FA" d="M0 0h18v18H0z"/><path d="M15 9A6 6 0 1 1 3 9a6 6 0 0 1 12 0Z" fill="#005657"/><path d="M14.58 9A5.58 5.58 0 1 1 3.41 9a5.58 5.58 0 0 1 11.17 0Z" fill="#F0F3FA"/><path d="M14 9A5 5 0 1 1 4 9a5 5 0 0 1 10 0Z" fill="#005657"/><path d="M13.03 9a4.03 4.03 0 1 1-8.07 0 4.03 4.03 0 0 1 8.07 0Z" fill="#F0F3FA"/><path d="M12.92 9a3.92 3.92 0 1 1-7.84 0 3.92 3.92 0 0 1 7.84 0Z" fill="#005657"/><path d="m7.66 7.47-.01-.02v-.01a.3.3 0 0 1 .1.05c.02 0 .02 0 .01-.01v-.02c.04.01.07.03.1.06l-.01-.03c.03 0 .08.03.1.05 0 0 .01 0 0 0V7.5c-.01 0-.01-.01 0 0 .03 0 .06.03.1.05l-.01-.02s0-.01 0 0c.08.03.11.06.19.13A600.61 600.61 0 0 1 9 8.4a227.83 227.83 0 0 0-.88-1 .58.58 0 0 1-.05-.17c0-.01 0-.01 0 0a.2.2 0 0 0 .05.01.54.54 0 0 1-.07-.12V7.1l.04.01s.01 0 0 0a.45.45 0 0 1-.07-.12c0-.02 0-.03.01-.01l.04.02A.56.56 0 0 1 8 6.85c0-.01 0-.02.01 0h.02c.03.02.03.02.01 0-.02-.03-.07-.1-.07-.14h.01l.04.02a.35.35 0 0 1-.07-.14 3.44 3.44 0 0 1-.03-.17l.14.13.07.11v-.05c.02 0 .03.02.04.03a.6.6 0 0 1 .06.1c0 .02 0 .02 0 0v-.02c0-.03.01-.03.03-.01l.07.12c0 .02.01.01.01 0V6.8c0-.02 0-.03.01 0l.07.1c0 .02 0 .02 0 0v-.04h.01l.08.12v-.02h.01l.05.09a15293.1 15293.1 0 0 0 .48 1.32l-.32-1.36a.57.57 0 0 1 0-.28l.04.06a.38.38 0 0 1 0-.23h.01l.05.08a.63.63 0 0 1 0-.24c0-.02 0-.02 0 0l.05.07a.72.72 0 0 1 0-.27h.01l.05.07a.66.66 0 0 1 0-.26c0-.02.01-.02.02 0l.04.05a.59.59 0 0 1-.01-.16c0-.03 0-.07.02-.1a3.45 3.45 0 0 0 .07-.2 53.7 53.7 0 0 0 .09.3c0 .07 0 .12-.02.17A.28.28 0 0 0 9.2 6h.01l.01.05v.22c0 .01 0 .01 0 0a.22.22 0 0 0 .04-.05c0-.03.02-.03.02 0v.24c0 .01 0 .01 0 0a.19.19 0 0 0 .04-.05c0-.03.01-.03.02 0v.22c0 .01 0 .01 0 0a.27.27 0 0 0 .04-.07l.03.07-.01.16a.37.37 0 0 0 .04-.05c0-.01 0-.01 0 0l.02.15c0 .04 0 .1-.02.15a204.16 204.16 0 0 0-.34 1.31 26281.99 26281.99 0 0 0 .53-1.39V7a.4.4 0 0 1 .08-.13v.05h.01a.65.65 0 0 1 .08-.12c0-.01 0-.01 0 0v.04h.01a.65.65 0 0 1 .08-.13h.01v.05h.01a.4.4 0 0 1 .09-.13c.01-.02.02-.01.01 0v.03c0 .01 0 .01 0 0 .03-.05.06-.1.1-.13a16.55 16.55 0 0 0 .12-.1c0 .05-.02.1-.03.14a.35.35 0 0 1-.07.16c-.01 0-.01.01 0 0h.02c.02-.02.03-.02.02 0a.48.48 0 0 1-.08.14.2.2 0 0 0 .05-.02v.02a.53.53 0 0 1-.08.12c0 .01 0 .01 0 0l.05-.01s.01 0 0 0a.57.57 0 0 1-.07.13h.03c.02-.02.03-.02.02 0a.6.6 0 0 1-.07.12.18.18 0 0 0 .04-.02.66.66 0 0 1-.05.18 167.6 167.6 0 0 0-.88 1l.85-.78a.34.34 0 0 1 .1-.08c.02 0 .02 0 .01.01v.02c-.01 0 0 0 0 0l.1-.06v.01l-.01.02c0 .01 0 .01 0 0a.4.4 0 0 1 .1-.05l-.01.03c0 .01 0 .01 0 0a.33.33 0 0 1 .1-.05h.01l-.01.03a.34.34 0 0 1 .11-.05s.01 0 0 0a.95.95 0 0 0-.01.04.3.3 0 0 1 .12-.07 14.58 14.58 0 0 1 .11-.02c-.06.07-.1.13-.2.17h.03v.01a.35.35 0 0 1-.1.07h.03c0 .03-.06.06-.09.07v.01h.02s.01 0 0 0a.4.4 0 0 1-.09.07h.02v.02a.48.48 0 0 1-.08.05c-.02 0-.02.01 0 .01h.01l-.12.14a.44.44 0 0 1-.18.1 2070.33 2070.33 0 0 1-.83.32 55.94 55.94 0 0 1 .61-.1l-.01.02h.09v.01l-.02.01s0 .01 0 0h.1v.02h-.02v.01a.4.4 0 0 1 .1 0v.01c-.02.01-.02.02 0 .02a.4.4 0 0 1 .09 0l-.01.01s0 .01 0 0a.23.23 0 0 1 .13.03.21.21 0 0 1-.13.02v.01h.01v.01c-.03.02-.07.01-.1 0v.01l.01.01c.02 0 .02.01 0 .01h-.09v.01h.02v.02h-.1l.01.01h-.05a945.97 945.97 0 0 0-.67-.13l.06.32v.01h-.16l.06-.32v-.01a152.86 152.86 0 0 1-.72.12 1 1 0 0 1-.1 0v-.01l.03-.01a1.25 1.25 0 0 1-.1 0v-.02h.02v-.01h-.1V8.5h.01v-.01c-.05.02-.08 0-.13-.02-.01 0-.01 0 0 0a.25.25 0 0 1 .13-.02v-.01l-.01-.01h.1v-.01c-.02-.01-.02-.02 0-.02h.08l-.01-.02c-.01 0-.01 0 0 0h.09l-.01-.02a.55.55 0 0 1 .1 0v-.01l-.02-.01h.03a23.79 23.79 0 0 1 .58.1v-.01a356.63 356.63 0 0 0-.93-.36c-.08-.05-.14-.12-.2-.2h.02a.43.43 0 0 1-.09-.06V7.8h.02v-.01a.3.3 0 0 1-.1-.06l.01-.01h.02a.4.4 0 0 1-.08-.06c-.02-.01-.02-.02 0-.02h.01s.01 0 0 0a.34.34 0 0 1-.09-.06v-.01h.02v-.01c-.08-.04-.13-.1-.2-.17h.01c.05 0 .1.02.14.03l.09.05ZM6.59 8.67h-.15c-.08-.02-.2-.06-.26-.13-.08-.1-.02-.24.04-.34a.8.8 0 0 1 .37-.33.36.36 0 0 1 .14-.02c.14 0 .23.12.26.24s.04.25.02.4c0 .02 0 .03.03.06a2012.22 2012.22 0 0 1 .3.4h-.53a.02.02 0 0 1-.02-.02l-.19-.25H6.6Z" fill="#F0F3FA"/><path fill-rule="evenodd" d="M8.65 10.64a12.07 12.07 0 0 1-.92.09v.26l.01.01h2.67v-.47c.3-.14.62-.32.84-.58a1.22 1.22 0 0 0 .3-.95h-4.9c-.07.38.1.75.35 1.02l.15.14c.1.1.23.18.37.25a2.47 2.47 0 0 0 1.12.23Zm2-.73a1.23 1.23 0 0 0 .69-.72h-.81c.07.27.03.54-.21.7-.1.07-.2.11-.32.14-.03 0-.03 0 0 0 .22 0 .45-.04.65-.12Z" fill="#F0F3FA"/></svg>