<!-- by TradingView --><svg width="18" height="18" viewBox="0 0 18 18" xmlns="http://www.w3.org/2000/svg"><path fill="#F0F3FA" d="M0 0h18v18H0z"/><circle cx="9" cy="9" r="5" fill="#015EAC"/><ellipse cx="8.56" cy="8.38" rx="3.68" ry="3.75" fill="#0187D0"/><ellipse cx="7.82" cy="7.59" rx="2.65" ry="2.66" fill="#4FB4E6"/><ellipse cx="7.53" cy="7.44" rx="1.76" ry="1.88" fill="#88C9F1"/><ellipse cx="7.09" cy="6.97" rx="1.32" ry="1.41" fill="#CFEBFF"/><path d="M13.72 8c0-1.3-1.38-1.6-1.7-1.6-.31 0-.5.16-.92.16-.43 0-1.1-.23-1.1-.8 0-.59.49-.76 1.1-.76C12.75 5 14 6.72 14 7.25c0 .42-.22.67-.28.75Z" fill="url(#auq2fhhb0)"/><path d="M13.71 8c-.09-1.2-1.38-1.6-1.69-1.6-.14 0-.26.03-.38.07-.15.04-.31.09-.54.09-.43 0-1.1-.23-1.1-.8V5.7c.12.27.43.61 1.1.61.37 0 .5-.04.6-.08a.52.52 0 0 1 .2-.04c.22 0 1.97.39 1.81 1.8Z" fill="url(#buq2fhhb0)"/><path d="M4 9.23c0-.84.2-1.17.37-1.23-.17.61.11 2.2 2.1 2.2 2.29 0 2.28-1.4 3.78-1.4A1.79 1.79 0 0 1 12 10.4c0 .6-.6 2.59-3.16 2.59C5.06 13 4 10.3 4 9.23Z" fill="url(#cuq2fhhb0)"/><path d="M4.04 8.63c.05.67.66 1.87 2.65 1.87 1.35 0 1.85-.4 2.28-.75.34-.27.65-.5 1.3-.5.44 0 1.38.13 1.73 1.09a1.8 1.8 0 0 0-1.75-1.54c-.68 0-1.05.28-1.45.6-.5.38-1.07.79-2.32.79-2 0-2.28-1.58-2.11-2.19-.12.04-.25.23-.33.63Z" fill="url(#duq2fhhb0)"/><defs><linearGradient id="auq2fhhb0" x1="13.89" y1="7.03" x2="11.19" y2="8.4" gradientUnits="userSpaceOnUse"><stop stop-color="#18A024"/><stop offset=".31" stop-color="#C6D82D"/><stop offset=".76" stop-color="#F0F462"/><stop offset="1" stop-color="#ADD165"/></linearGradient><linearGradient id="buq2fhhb0" x1="13.7" y1="7.64" x2="10" y2="7.57" gradientUnits="userSpaceOnUse"><stop offset=".09" stop-color="#F8EA0B"/><stop offset=".56" stop-color="#5DA614"/><stop offset=".94" stop-color="#E4E029"/></linearGradient><linearGradient id="cuq2fhhb0" x1="11.68" y1="9.81" x2="4.9" y2="14.47" gradientUnits="userSpaceOnUse"><stop stop-color="#86BB2A"/><stop offset=".3" stop-color="#D5E278"/><stop offset=".69" stop-color="#0AA85B"/><stop offset=".81" stop-color="#9FCD62"/></linearGradient><linearGradient id="duq2fhhb0" x1="11.68" y1="8.91" x2="4.49" y2="11.38" gradientUnits="userSpaceOnUse"><stop stop-color="#1C636C"/><stop offset=".24" stop-color="#EFEA6C"/><stop offset=".41" stop-color="#FAFAC7"/><stop offset=".78" stop-color="#209345"/><stop offset="1" stop-color="#CED584"/></linearGradient></defs></svg>