<!-- by TradingView --><svg width="18" height="18" viewBox="0 0 18 18" xmlns="http://www.w3.org/2000/svg"><path fill="#F0F3FA" d="M0 0h18v18H0z"/><path d="M5.4 12.77C3.55 11.48 4.08 8.83 4.08 8.7c.68 0 2.72 0 4.04 1.07 1.06.87 1.12 2.92 1.02 3.84-.62.16-2.23.21-3.72-.83Z" fill="#C4DF9B"/><path d="M9.83 9.66c-2.07 1.37-1.49 4.2-1.49 4.34.75 0 3.02 0 4.49-1.14 1.17-.92 1.24-3.1 1.13-4.08a5.7 5.7 0 0 0-4.13.88Z" fill="#8DC63F"/><path d="M6.33 4h2.9C10.77 4 12 5.2 12 6.66A2.72 2.72 0 0 1 9.23 9.3h-.06A2.78 2.78 0 0 1 6.33 6.6V4Zm.34 2.6c0 1.32 1.12 2.4 2.5 2.4h.06a2.4 2.4 0 0 0 2.44-2.34A2.4 2.4 0 0 0 9.23 4.3H6.67V6.6Z" fill="#F36F21"/><path d="M7 6.6V4.64h2.22c1.17 0 2.11.9 2.11 2.03 0 1.12-.94 2.03-2.11 2.03h-.05C7.97 8.69 7 7.76 7 6.6Zm1.96-.41h-.3v.27l-.2.2.2.2v.27h.3l.2.19.21-.2h.3v-.27l.2-.2-.2-.19V6.2h-.3l-.2-.2-.21.2Z" fill="#F36F21"/></svg>