<!-- by TradingView --><svg width="18" height="18" fill="none" xmlns="http://www.w3.org/2000/svg"><path fill="#F0F3FA" d="M0 0h18v18H0z"/><path d="M13 5.639c-.044 1.748-1.896 3.279-3 4.361.713.515 2.028 1.515 2 2.485-.024.822-.767 1.516-1.587 1.515-1.078-.016-1.32-1.03-1.717-1.914.002 0-.619-1.609-.696-2.086-.61.094-1.179.35-1.734.632-.332.17-.798.36-1.19.368-.75 0-1.198-.74-1.047-1.439C4.247 8.56 5.375 7.99 6.317 8c.84.007 1.707.272 2.532.425.035-.514.15-1.995.303-2.959.127-.845 1.014-1.487 1.848-1.465.988.013 2.027.536 2 1.638Z" fill="url(#a)"/><defs><linearGradient id="a" x1="13" y1="7.281" x2="5.785" y2="10.495" gradientUnits="userSpaceOnUse"><stop stop-color="#1F6A96"/><stop offset=".631" stop-color="#71B3E5"/></linearGradient></defs></svg>