<!-- by TradingView --><svg width="18" height="18" viewBox="0 0 18 18" xmlns="http://www.w3.org/2000/svg"><path fill="#F0F3FA" d="M0 0h18v18H0z"/><path d="M4 11.98c0 .01-.01.02-.03.02h-.96L3 11.97V6.02c0-.01.01-.02.03-.02h.94C3.99 6 4 6 4 6.02v5.96ZM7.35 6H6.4c-.02 0-.03.01-.03.02v5.96s.01.02.03.02h.94c.02 0 .03-.01.03-.02V6.02c0-.01-.01-.02-.03-.02ZM10.16 9c0 .02.01.03.03.05.27.27.43.56.47.88.09.66-.18 1.2-.8 1.62-.31.21-.68.35-1.1.42-.31.05-.82.02-1.11.03-.02 0-.03-.01-.03-.03v-.63c0-.02 0-.02.02-.02.28 0 .68.02.95-.04.65-.16 1.03-.48 1.14-.97.11-.54-.21-1.02-.84-1.27L8.86 9l.03-.03c.63-.26.95-.73.84-1.28-.1-.48-.49-.8-1.14-.96-.27-.06-.67-.04-.95-.04-.01 0-.02 0-.02-.02v-.64c0-.01 0-.02.03-.02.3 0 .8-.02 1.11.03.42.06.78.2 1.1.41.62.43.89.97.8 1.63-.04.31-.2.6-.47.87l-.03.05ZM11 11.98c0-1.27 0-2.3.02-3.08 0-.42.14-.87.39-1.35.24-.47.62-.84 1.14-1.13a3.83 3.83 0 0 1 2.07-.41c.22 0 .35.12.38.34v.03c0 .34-.16.55-.38.56l-.62.03c-.97.1-1.4.3-1.77 1.1-.16.36-.24.77-.23 1.2v2.7c0 .02-.03.03-.05.03h-.92c-.02 0-.02 0-.02-.02Z" fill="#0175C1"/><path d="M7.62 6.93v-.02h.54c.33 0 .64.1.87.29a.9.9 0 0 1 .36.7v.02a.9.9 0 0 1-.36.7c-.23.19-.54.3-.87.3h-.51l-.02-.02-.01-.02V6.93ZM4 8.73v-.46h1.52c.16 0 .3.06.41.17l.16.15c.1.1.07.14-.06.14H4ZM12.23 8.7v-.4c0-.02 0-.02.02-.02h1.7c.16 0 .31.05.42.15l.18.15c.1.1.08.15-.07.15h-2.22c-.02 0-.03-.01-.03-.03ZM7.62 9.17v-.02l.01-.01.02-.01h.55c.16 0 .31.02.45.07.15.04.28.12.39.2.11.1.2.2.26.32s.1.25.1.37v.04a.98.98 0 0 1-.34.7c-.12.08-.25.15-.4.2-.14.05-.3.08-.45.08h-.53l-.04-.01-.02-.03v-1.9ZM4 9.73v-.46h2c.15 0 .17.06.06.16l-.14.14c-.1.1-.24.16-.38.16H4ZM12.23 9.3c0-.02.01-.03.03-.03h2.17c.16 0 .18.06.07.16l-.17.15a.62.62 0 0 1-.4.15h-1.68c-.01 0-.02-.01-.02-.03v-.4Z" fill="#00A162"/></svg>