<!-- by TradingView --><svg width="18" height="18" xmlns="http://www.w3.org/2000/svg"><path fill="#F0F3FA" d="M0 0h18v18H0z"/><path d="M6.217 5H7.55v.667h-.333v.5h1v-.5h-.333V5l1.333.001v.666h-.333v1.666h.332V8H7.884v-.667h.333v-.5h-1v.5h.333V8H6.218v-.667h.332V5.667h-.333V5zm3.335 0h1.719c.554 0 .946.445.946 1 0 .513-.364.887-.73.967-.268.059-.937.033-.937.033v.333h.334V8H9.552l-.002-.667h.334V5.667H9.55L9.552 5zm.998.667c.002.2.002.466 0 .666.206.005.417-.002.623 0 .114.012.377-.073.377-.333 0-.172-.132-.34-.377-.333-.199 0-.424-.002-.623 0z" fill="#F83546"/><path d="M7.757 3.129a6.047 6.047 0 012.606.027 5.984 5.984 0 012.33 1.115 6.062 6.062 0 011.518 1.753 5.961 5.961 0 01.774 3.368 6.679 6.679 0 00-2.926.5 4.875 4.875 0 00-1.948 1.478c-.563.718-.844 1.59-1 2.484-.053.282-.079.567-.111.851a6.852 6.852 0 00-.25-1.502 5.25 5.25 0 00-1.318-2.25c-.557-.571-1.265-.984-2.019-1.237a6.634 6.634 0 00-1.575-.32 5.76 5.76 0 00-.829-.012 5.976 5.976 0 011.445-4.3 5.997 5.997 0 013.303-1.955zM3.375 8.177c.328.02.59.053.913.112.825.145 1.63.445 2.32.924a5.356 5.356 0 011.695 1.927c.373.711.636 1.501.697 2.3.167-1.11.459-2.215 1.13-3.126a4.826 4.826 0 011.9-1.546c.831-.385 1.685-.539 2.595-.562-.345-2.498-2.342-4.464-4.86-4.786a6.269 6.269 0 00-1.08-.045c-2.644.133-4.919 2.158-5.31 4.802z" fill="#073C86"/><path d="M14.064 9.636c.299-.03.6-.031.899-.024-.005.196-.046.39-.082.582a6 6 0 01-2.338 3.65c-.312.232-.65.428-1 .596a5.746 5.746 0 01-2.326.56c.04-.896.204-1.796.59-2.61.345-.732.828-1.378 1.5-1.829.813-.553 1.784-.838 2.757-.925zm-2.537 1.808c-.42.23-.733.55-1.032.923-.544.682-.8 1.413-.975 2.261.802-.056 1.427-.274 2.135-.656a5.552 5.552 0 002.619-2.98c-.961-.14-1.884-.024-2.747.452zm-8.5-1.836a6.387 6.387 0 012.713.476 4.627 4.627 0 011.91 1.471c.512.677.815 1.494.966 2.324.066.37.105.744.121 1.118a6.007 6.007 0 01-5.71-5.39zm.709 1.373a5.723 5.723 0 002.282 2.822 5.133 5.133 0 002.387.822c-.043-.572-.146-1.059-.403-1.576a3.143 3.143 0 00-.828-1.021c-.3-.245-.608-.485-.953-.664a3.414 3.414 0 00-1.265-.383 4.667 4.667 0 00-1.22 0z" fill="#073C86"/></svg>