<!-- by TradingView --><svg width="18" height="18" viewBox="0 0 18 18" xmlns="http://www.w3.org/2000/svg"><path fill="#F0F3FA" d="M0 0h18v18H0z"/><path d="M4 8.55a3.67 3.67 0 0 1 2.03-1.72 9.11 9.11 0 0 1 3.16-.5 8.14 8.14 0 0 1 2.72.46 1.69 1.69 0 0 0 .09-.65 7.85 7.85 0 0 0-2.8-.39c-.84 0-1.96.03-2.92.37-.85.3-1.56.82-2.05 1.42-.13.38-.2.73-.23 1Z" fill="url(#a)"/><path d="M4.37 7.17a4.32 4.32 0 0 1 1.81-1.29 9.22 9.22 0 0 1 3.01-.5c.86 0 1.94.14 2.78.48a1.97 1.97 0 0 0-.25-.7 8.82 8.82 0 0 0-2.53-.29c-.84 0-1.9.13-2.86.48-.45.16-.88.36-1.26.6-.3.4-.54.82-.7 1.22Z" fill="url(#b)"/><path d="m5.48 5.49.76-.38a9.04 9.04 0 0 1 5.24-.24c-.5-.53-1.3-.87-2.26-.87-1.72 0-2.93.65-3.74 1.49Z" fill="url(#c)"/><path d="M11.74 7.13c-.19-.07-.5-.16-.86-.25a7.7 7.7 0 0 0-1.69-.26c-.7 0-1.92.13-3 .55-.97.37-1.85.95-2.18 1.95.02.26.07.51.14.74.32-1.1 1.11-1.66 2.04-2.05a8.25 8.25 0 0 1 3.02-.6c.99 0 1.75.21 2.14.36.15-.13.28-.27.4-.44Z" fill="url(#d)"/><path d="M10.96 7.83c-.38.21-.77.31-.98.31h-.16c-.91-.04-4.45-.18-5.2 2.86-.09-.13-.2-.35-.3-.63.16-1.22 1.08-1.82 2.04-2.23a7.7 7.7 0 0 1 4.6-.3Z" fill="url(#e)"/><path d="M14 9.45a3.67 3.67 0 0 1-2.03 1.72c-1.16.45-2.43.5-3.16.5a8.14 8.14 0 0 1-2.72-.46 1.69 1.69 0 0 0-.09.65c.81.34 1.95.39 2.8.39.84 0 1.96-.03 2.92-.37.85-.3 1.56-.82 2.05-1.42.13-.38.2-.73.23-1Z" fill="url(#f)"/><path d="M13.63 10.83a4.32 4.32 0 0 1-1.81 1.29c-1.02.36-2.12.5-3.01.5-.86 0-1.94-.14-2.78-.48.04.26.13.5.25.7.78.25 1.77.28 2.53.28.84 0 1.9-.12 2.86-.47.45-.16.88-.36 1.26-.6.3-.4.54-.82.7-1.22Z" fill="url(#g)"/><path d="m12.52 12.51-.76.38a9.04 9.04 0 0 1-5.24.23c.5.54 1.3.88 2.26.88 1.72 0 2.93-.65 3.74-1.49Z" fill="url(#h)"/><path d="M6.26 10.87c.19.07.5.16.86.25a7.7 7.7 0 0 0 1.69.25c.7 0 1.91-.12 3-.54.97-.37 1.85-.95 2.18-1.95a4.57 4.57 0 0 0-.14-.74c-.32 1.1-1.11 1.66-2.04 2.05-1.08.46-2.28.6-3.02.6-.99 0-1.75-.21-2.14-.36-.15.13-.28.27-.4.44Z" fill="url(#i)"/><path d="M7.04 10.17c.38-.22.77-.31.98-.31h.16c.91.04 4.45.18 5.2-2.86.09.13.2.35.3.63-.16 1.22-1.08 1.82-2.04 2.23a7.7 7.7 0 0 1-4.6.3Z" fill="url(#j)"/><defs><linearGradient id="a" x1="8.42" y1="5.6" x2="11.09" y2="7.36" gradientUnits="userSpaceOnUse"><stop stop-color="#79653B"/><stop offset=".74" stop-color="#D2BB92"/><stop offset="1" stop-color="#D2B98E"/></linearGradient><linearGradient id="b" x1="8.42" y1="5.6" x2="11.09" y2="7.36" gradientUnits="userSpaceOnUse"><stop stop-color="#79653B"/><stop offset=".74" stop-color="#D2BB92"/></linearGradient><linearGradient id="c" x1="8.42" y1="5.6" x2="11.09" y2="7.36" gradientUnits="userSpaceOnUse"><stop stop-color="#79653B"/><stop offset=".74" stop-color="#D2BB92"/></linearGradient><linearGradient id="d" x1="8.42" y1="5.6" x2="11.09" y2="7.36" gradientUnits="userSpaceOnUse"><stop stop-color="#79653B"/><stop offset=".74" stop-color="#D2BB92"/><stop offset="1" stop-color="#D2B98E"/></linearGradient><linearGradient id="e" x1="8.42" y1="5.6" x2="11.09" y2="7.36" gradientUnits="userSpaceOnUse"><stop stop-color="#79653B"/><stop offset=".74" stop-color="#D2BB92"/><stop offset="1" stop-color="#D2B98E"/></linearGradient><linearGradient id="f" x1="9.58" y1="12.4" x2="6.91" y2="10.64" gradientUnits="userSpaceOnUse"><stop stop-color="#79653B"/><stop offset=".74" stop-color="#D2BB92"/><stop offset="1" stop-color="#D2B98E"/></linearGradient><linearGradient id="g" x1="9.58" y1="12.4" x2="6.91" y2="10.64" gradientUnits="userSpaceOnUse"><stop stop-color="#79653B"/><stop offset=".74" stop-color="#D2BB92"/><stop offset="1" stop-color="#D2B98E"/></linearGradient><linearGradient id="h" x1="9.58" y1="12.4" x2="6.91" y2="10.64" gradientUnits="userSpaceOnUse"><stop stop-color="#79653B"/><stop offset=".74" stop-color="#D2BB92"/></linearGradient><linearGradient id="i" x1="9.58" y1="12.4" x2="6.91" y2="10.64" gradientUnits="userSpaceOnUse"><stop stop-color="#79653B"/><stop offset=".74" stop-color="#D2BB92"/></linearGradient><linearGradient id="j" x1="9.58" y1="12.4" x2="6.91" y2="10.64" gradientUnits="userSpaceOnUse"><stop stop-color="#79653B"/><stop offset=".74" stop-color="#D2BB92"/><stop offset="1" stop-color="#D2B98E"/></linearGradient></defs></svg>