<!-- by TradingView --><svg width="18" height="18" viewBox="0 0 18 18" xmlns="http://www.w3.org/2000/svg"><path fill="#F0F3FA" d="M0 0h18v18H0z"/><path d="m9.46 5.04 1.9.86.13-.16c.17-.22.5-.23.68-.01L14 7.85l-1.83-1.46a.4.4 0 0 0-.53.03l-3.2 3.15 2.78-3.49-1.61-.37a.38.38 0 0 0-.43.27L8 10l.67-4H7.31c-.53 0-.5.26-.46.46l.8 4.54-1.13-3.95-1.16.64c-.5.29-.34.47-.2.62L8 12 5.27 9.23l-.53 1.25c-.16.49-.05.69.36.84L8.44 13l-4.2-1.5c-.27-.05-.28-.5-.18-.75l.84-1.9-.52-.53c-.21-.18-.06-.5.17-.66L6.39 6.6l-.15-.54-.01-.04c-.07-.46.65-.46 1.12-.46H8.74l.05-.27c.05-.27.43-.36.67-.26Z" fill="#EC001F"/><path d="M10.1 11.32 11.5 9l1.4 2.32c.13.22.14.52 0 .75a.63.63 0 0 1-.99.18l-.21-.2v.3l.39.65H10.9l.4-.64v-.3l-.22.2a.63.63 0 0 1-1-.2.77.77 0 0 1 .02-.74Z" fill="#EC001F"/></svg>