<!-- by TradingView --><svg width="18" height="18" viewBox="0 0 18 18" xmlns="http://www.w3.org/2000/svg"><path fill="#F0F3FA" d="M0 0h18v18H0z"/><path d="M2.9 6H4.3c.24 0 .42.25.36.5L4.31 8h.78l.22-1H4.9l.32-1H6.6c.24 0 .42.25.36.5L5.94 11h.94l.8-3.5h-.41L7.68 6h1.39c.24 0 .42.25.36.5l-.4 1.73.74-.73h-.25l.3-1.5h1.34c.41 0 .7.14.7.6 0 .36-.19.65-.28.75l-1.8 1.66 1.05 1.5h.4a4.21 4.21 0 0 1-.03-.5C11.2 8.88 12 6 14.16 6c1.73 0 1.93 1.47 1.81 2.25h-1.4c.11-.41-.08-.87-.64-.87-.55 0-1.07.97-1.17 1.55-.1.57-.26 1.79.55 1.79.64 0 .96-.64 1.03-.97h1.36c-.47 1.66-1.42 2.25-2.78 2.25h-2.41c-.37 0-.75-.5-.9-.7L8.7 9.76l-.2.9h.53l-.2.92a.48.48 0 0 1-.46.41H4.8c-.31 0-.54-.3-.46-.62l.42-1.88h-.78L3.62 11h.54l-.11.59a.48.48 0 0 1-.47.41H2.47c-.3 0-.53-.3-.46-.62l1-4.38h-.42l.31-1Z" fill="#0067B7"/><path d="m7.8 7.39-.82 3.53c-.18.73.02.92.2.93H8.2c.35 0 .5-.23.53-.34l.13-.75h-.55s.2-.82.33-1.25l1.14 1.76c.3.43.64.53.77.53h1.47c-.55-.38-.73-.9-.75-1.11h-.54L9.58 9.02l1.78-1.63c.12-.09.35-.37.35-.75 0-.39-.28-.52-.43-.53H9.96L9.68 7.4h.43L9 8.46h-.16L9.3 6.5c.07-.27-.14-.38-.26-.39H7.76L7.4 7.4h.4Z" fill="#89A3D4"/><path d="M9.09 8.63c-2.56 0-4.12.1-4.58.16l3.98.1h6v-.27H9.1ZM9.09 9.38c-2.56 0-4.12.1-4.58.16l3.98.1h6v-.27H9.1Z" fill="#F0F3FA"/></svg>