<!-- by TradingView --><svg width="18" height="18" viewBox="0 0 18 18" xmlns="http://www.w3.org/2000/svg"><path fill="#F0F3FA" d="M0 0h18v18H0z"/><path d="M11.83 6.4a.02.02 0 0 0 0-.03H6.68l.66-1.3a.12.12 0 0 1 .04-.05.12.12 0 0 1 .06-.02h5.06c.41 0 .7.03.85.1.56.23.75.96.6 1.54-.03.14-.12.34-.26.6l-1.7 3.24a.1.1 0 0 1-.04.04.1.1 0 0 1-.05.02H9.56a.03.03 0 0 1-.02-.02.03.03 0 0 1 0-.03l1.5-2.68v-.02l-.01-.02H8.84a.1.1 0 0 0-.05.01.1.1 0 0 0-.04.05C8.15 8.98 7.58 9.89 6.98 11c-.12.23 0 .45.25.45h4.15c.03.01.04.06.03.08a305.52 305.52 0 0 0-.77 1.44.13.13 0 0 1-.07.02H5.14c-.4 0-.71-.15-.92-.45a1.55 1.55 0 0 1-.16-1.21c.04-.17.14-.37.27-.62 1.03-1.93 1.76-3.16 2.04-3.68A.06.06 0 0 1 6.43 7h5l.03-.04.37-.56Z" fill="#C5A870"/></svg>