<!-- by TradingView --><svg width="18" height="18" viewBox="0 0 18 18" xmlns="http://www.w3.org/2000/svg"><path fill="#F0F3FA" d="M0 0h18v18H0z"/><path d="M15 9a5.94 5.94 0 0 1-3.7 5.54 5.94 5.94 0 0 1-4.6 0 5.94 5.94 0 0 1-3.24-3.24 5.94 5.94 0 0 1 1.3-6.54A5.94 5.94 0 0 1 9 3a5.94 5.94 0 0 1 5.54 3.7c.3.74.46 1.5.46 2.3Z" fill="#0B81BE"/><path d="M8.77 3.67v.66c0 .02 0 .02-.02.02H8.5c-.03 0-.04 0-.04-.03v-1c0-.02 0-.03.03-.03h.4c.03 0 .04.01.05.04l.19.53c.01.03.02.03.04 0l.2-.52c0-.02.02-.03.05-.03h.39c.02 0 .03 0 .03.03v1c0 .03-.02.05-.04.05h-.23c-.02 0-.04-.02-.04-.04V3.7c0-.03 0-.03-.02.01l-.24.58-.03.02h-.17a.05.05 0 0 1-.05-.04 21.03 21.03 0 0 0-.25-.6ZM6.54 4.4l-.12-.31a.18.18 0 0 1 0-.15.18.18 0 0 1 .1-.1l.71-.24a.15.15 0 0 1 .12.01c.04.02.06.05.08.09l.06.2c.01.01 0 .03-.02.03L7.3 4c-.02 0-.04 0-.05-.03a.16.16 0 0 0-.05-.06h-.04l-.37.12c-.05.02-.06.05-.05.1a2.3 2.3 0 0 0 .14.36c.02.04.05.05.1.03l.36-.15.02-.03v-.08c-.01-.03 0-.05.02-.06l.18-.07c.02-.01.03 0 .04.01l.08.2c.02.03.02.07 0 .11a.15.15 0 0 1-.08.08l-.68.3a.18.18 0 0 1-.14 0 .18.18 0 0 1-.1-.1l-.13-.32ZM10.9 4.41l-.11.22c-.01.02-.03.03-.06.02l-.17-.09c-.03-.01-.03-.03-.02-.06l.42-.87c.01-.02.02-.02.04-.01l.7.33c.06.03.09.11.08.23 0 .07-.05.18-.14.32-.06.1-.16.14-.3.1a1.48 1.48 0 0 1-.4-.2c-.02-.01-.04 0-.05.01Z" fill="#F0F3FA"/><path d="M11.11 3.95c.01-.02.03-.02.04-.01l.27.13a.1.1 0 0 1 .05.07v.08l-.03.06a.11.11 0 0 1-.07.06.1.1 0 0 1-.08 0l-.27-.14c-.02 0-.02-.02-.01-.04l.1-.21Z" fill="#0B81BE"/><path d="m5.76 4.94.34.34c.02.02.02.04 0 .06l-.14.14c-.02.02-.04.03-.07 0l-.24-.23-.04.02a6.8 6.8 0 0 0-.34.37l.23.24c.03.02.03.04 0 .06l-.13.15c-.03.02-.05.02-.07 0a79.97 79.97 0 0 1-.68-.68c-.02-.02-.02-.04 0-.06l.14-.14c.02-.02.04-.02.07 0l.24.23.04-.01a9.13 9.13 0 0 0 .34-.38l-.23-.24c-.03-.02-.03-.04 0-.06l.13-.14c.03-.03.05-.03.07 0l.34.33Z" fill="#F0F3FA"/><path d="M12.8 6.87c-.17.07-.36.11-.56.12-.14 0-.33-.01-.59-.04-.12-.02-.3-.01-.52.01l-.38.03h-1.7a.77.77 0 0 0-.49.17l-.43-1.15a.08.08 0 0 0-.06-.05l-.72-.19c-.15.12-.29.26-.4.42-.01.03-.05.07-.1.1a.09.09 0 0 0-.05.04l-.18.4a1 1 0 0 1-.67.26c-.23.02-.47-.02-.73-.09a4.42 4.42 0 0 1 3.56-2.23 4.33 4.33 0 0 1 4.03 2.2Z" fill="#B7D3E1"/><path d="m12.6 5.18-.13.14c-.04.03-.03.07 0 .1l.28.28c0 .01.02.02.03.01.04 0 .06-.01.08-.03.02-.02.04-.02.06 0l.13.14c.02.01.02.03 0 .04l-.15.15a.15.15 0 0 1-.1.05.15.15 0 0 1-.11-.05l-.53-.53a.18.18 0 0 1-.05-.13c0-.05.02-.1.06-.13a70.93 70.93 0 0 0 .5-.47.18.18 0 0 1 .14-.05c.05 0 .1.03.13.07l.48.56c.03.03.04.07.04.11 0 .05-.02.08-.05.1l-.16.14c-.02.02-.03.02-.05 0l-.12-.15c-.02-.02-.02-.04 0-.06a.16.16 0 0 0 .04-.07v-.03l-.26-.3c-.03-.04-.07-.04-.11-.01-.03.01-.07.06-.15.12Z" fill="#F0F3FA"/><path d="m8.56 7.16.6 1.53c0 .03.02.03.04.03l.2-.07v.05h.03l-.22.08c-.02 0-.02.01-.02.03l.21.53h.03l.02.06-.02.02v.01a21.77 21.77 0 0 1 .24.57l1.1 2.93c-.13.09-.28.14-.44.17L8.07 6.08a.14.14 0 0 0-.09-.1l-.63-.21.72.2c.03 0 .05.02.06.04l.43 1.15Z" fill="#2C2B63"/><path d="m7.35 5.77.63.22c.05.01.08.05.1.1l2.25 7c-.06.07-.12.09-.18.07L8 6.1a.04.04 0 0 0-.04-.03h-.02c-.02 0-.02 0-.02.02l1.83 7.18c-.47.1-.94.1-1.42 0l-.05-.69a.05.05 0 0 0-.03-.04l-1.18-.42c-.02 0-.03 0-.03.02l-.02.68h-.04c-.32-.17-.6-.37-.86-.62L7.28 6c0-.02 0-.03-.02-.01l-.31.2c.11-.15.24-.3.4-.41Z" fill="#F0F3FA"/><path d="M6.1 12.2a4.38 4.38 0 0 1-1.14-1.69c.02 0 .03-.02.04-.03l-.01-.04h-.04a.13.13 0 0 1-.04-.05h.1l.04-.03.16-.38-.01-.02-.4.01a.11.11 0 0 1-.02-.07h.43c.02 0 .04 0 .05-.03l.19-.43v-.01l-.01-.01v-.06h.03l.02-.02 1.13-2.6.18-.4c.01-.03.03-.04.04-.05.06-.03.1-.07.1-.1l.33-.21c.01-.02.02-.01.01 0L6.11 12.2ZM7.74 6.15l.02.1c0 .04-.01.05-.04.04l-.23-.1c-.01 0-.02-.01-.02-.03l.01-.13.02-.01.2.08c.02 0 .04.02.04.05ZM10.15 13.16l-.4.1L7.9 6.08c0-.02 0-.02.02-.02h.02c.02 0 .03.01.04.03l2.16 7.07Z" fill="#2C2B63"/><path d="m7.03 6.53-.01.01-.13.03c-.03 0-.04 0-.03-.03 0-.05.02-.1.05-.13a.2.2 0 0 1 .13-.05c.02 0 .03.01.03.03a4.68 4.68 0 0 0-.04.14Z" fill="#F0F3FA"/><path d="M6.62 6.74a8856.27 8856.27 0 0 0-1.15 2.62h-.03l-.74.03c-.08-.88.1-1.71.52-2.49.26.07.5.1.73.1a1 1 0 0 0 .67-.26Z" fill="#CADEE9"/><path d="m7.44 6.73.34.1c.02 0 .02.02.02.03l.01.2c0 .01 0 .02-.01.01l-.38-.11-.01-.03.02-.2h.01Z" fill="#2C2B63"/><path d="M12.8 6.87a4.14 4.14 0 0 1 .54 2.16c-.56-.12-1.1-.27-1.62-.45a.09.09 0 0 1-.07-.08l-.02-.34c0-.04.02-.06.06-.06h.15c.13.01.14-.02.04-.1l-.21-.15a.07.07 0 0 1-.03-.05l-.05-.82c0-.02-.01-.03-.03-.03l-.2.01s-.02.01-.02.03l-.06.81c0 .02-.01.04-.04.05l-.54.18a.05.05 0 0 0-.03.04.26.26 0 0 1-.16.18c-.36.15-.73.29-1.11.4l-.2.06c-.02.01-.04 0-.05-.02l-.59-1.53c.14-.1.3-.16.48-.16h1.71c.1 0 .22-.02.38-.04.23-.02.4-.03.52-.01.26.03.45.04.59.04.2 0 .4-.05.57-.12Z" fill="#CADEE9"/><path d="m6.88 7.2-.21.03c-.03 0-.04-.01-.03-.04a.8.8 0 0 1 .07-.18h.01a.76.76 0 0 1 .17-.06c.03 0 .04 0 .04.03l-.04.2v.01Z" fill="#F0F3FA"/><path d="M13.34 9.03c.01 0 .02.02 0 .05l-1.16-.29c-.02 0-.03 0-.04.02v.04c-.01.02-.02.03-.04.03h-.46l-.07-.01h-.04v.02l.01.04c.03.03.07.03.12.02v.32c0 .03 0 .05.03.06.52.17 1.05.3 1.58.38.01.01.01.03-.01.05a7.12 7.12 0 0 1-1.37-.3v.02c.03.02.04.04.03.06 0 .02-.01.03-.04.03l-.18-.01c-.03 0-.05.01-.04.05l.03.25c0 .04.03.07.07.08l1.42.32-.02.05a12.5 12.5 0 0 1-1.42-.32c-.01 0-.02 0-.02.02l.25 2.13c0 .04-.02.05-.04.05l-.06-.34c0-.02-.01-.02-.03-.02l-.29.17c-.02.01-.02.03 0 .04l.34.2c0 .02-.01.03-.05.04l-.31-.18a.1.1 0 0 0-.12 0l-.33.21c-.03.02-.03.04 0 .06l.33.2c-.01.02-.03.03-.05.03l-.32-.2c-.02 0-.03 0-.03.02l-.06.45c-.02.02-.04.03-.06.02l.34-3.03c0-.02 0-.03-.02-.04l-.47-.16a.1.1 0 0 0-.07 0l-1 .34a.17.17 0 0 1-.02-.05l.85-.29c.09-.03.14-.07.15-.13.01-.02.02-.04.04-.04l.5-.15c.11-.04.11-.08 0-.12L10.65 9h-.05l-1.14.4-.02-.05 1.02-.36c.02 0 .04-.02.05-.04a.26.26 0 0 0 .04-.12c0-.02 0-.03.02-.03l.68-.19c.02 0 .02-.01.03-.03v-.06c0-.03 0-.04-.03-.05a74.7 74.7 0 0 1-.44-.18c-.07-.03-.13-.04-.17-.02a10.71 10.71 0 0 1-1.23.43v-.05c.38-.11.75-.25 1.11-.4.08-.03.13-.09.16-.18 0-.02.01-.03.03-.04l.55-.18c.02-.01.03-.03.03-.05l.06-.81c0-.02.01-.03.03-.03h.2c.01 0 .02 0 .02.02l.05.82c0 .02 0 .03.03.05l.2.15c.1.08.1.11-.03.1h-.15c-.04 0-.06.02-.06.06l.02.34c0 .04.03.07.07.08.52.18 1.06.33 1.62.45Z" fill="#0E0B0B"/><path d="M11.4 7.32h.02v.05c-.02.05-.03.05-.04 0l.01-.05ZM11.45 7.52c-.04 0-.05-.03-.04-.07l.02-.01h.06c.02.01.03.03.03.05 0 .02 0 .03-.03.03h-.04Z" fill="#CADEE9"/><path d="m7.35 7.8.02-.33c0-.01 0-.02.02-.02l.46.15.02.02.02.35c0 .01 0 .02-.02.01l-.51-.16-.01-.01Z" fill="#2C2B63"/><path d="M11.53 7.63c.02 0 .03.02.05.03v.04c0 .02-.01.03-.03.03h-.02c-.01 0-.02-.01-.02-.03.01-.05-.02-.08-.08-.1-.01 0-.02 0 0-.02v-.01c.04 0 .06.01.07.03l.03.03Z" fill="#B7D3E1"/><path d="m6.69 7.95-.3.07c-.01 0-.02 0-.02-.02l.1-.3c0-.02.02-.03.04-.04l.26-.06c.03 0 .03 0 .03.02l-.1.31-.01.02Z" fill="#F0F3FA"/><path d="M11.33 7.67c-.01.03 0 .07.02.07.02.01.04-.01.05-.04.01-.04 0-.07-.01-.07-.02-.01-.05 0-.06.04Z" fill="#B7D3E1"/><path d="M11.43 7.82c-.02 0-.03 0-.03-.03l.01-.02c0-.02.02-.03.03-.03.04 0 .06.01.08.06v.02h-.03a.2.2 0 0 0-.06 0Z" fill="#DEEBF1"/><path d="M11.28 7.95V8c0 .02 0 .03-.04.03h-.31c-.06 0-.06 0 0-.02l.31-.1c.04-.02.05 0 .04.03Z" fill="#CADEE9"/><path d="m11.4 7.98.05.01c.04 0 .05 0 .02.04h-.02l-.03-.01a.3.3 0 0 0-.02-.03h-.04c-.02 0-.03 0-.04-.02v-.02c.01-.04.03-.04.05 0l.03.03ZM11.55 8h-.01c-.03-.02-.04-.03-.02-.05l.03-.03h.02c.01 0 .02 0 .02.02v.04c-.01.01-.02.02-.04.01Z" fill="#B7D3E1"/><path d="m11.7 7.94.12.1h-.15c-.03-.02-.04-.03-.03-.06v-.02c.01-.03.03-.04.05-.02ZM11.27 8.14v.23c0 .03-.02.04-.04.03l-.18-.07a1.16 1.16 0 0 1-.3-.15.04.04 0 0 1 0-.05c0-.02.01-.02.04-.02h.45c.02 0 .03 0 .03.03Z" fill="#CADEE9"/><path d="M11.33 8.15c0-.03.01-.03.03-.02.03.02.04.04.03.06 0 .01 0 .02-.02.03h-.02c-.02 0-.03-.01-.03-.03v-.04ZM11.56 8.2a.03.03 0 1 0 0-.06.03.03 0 0 0 0 .07Z" fill="#B7D3E1"/><path d="M11.4 8.35c-.03.04-.06.06-.08.05-.02 0-.02-.02 0-.03.06-.04.09-.08.09-.12 0-.02.01-.03.04-.03s.06.03.09.07v.02l-.02.01h-.08c-.02 0-.03.01-.05.03ZM9.43 9.35H9.4v-.01l-.22-.53c0-.02 0-.03.02-.03l.22-.08c.4-.12.8-.27 1.2-.43.04-.02.1-.01.17.02l.44.18c.02 0 .03.02.03.05v.06c0 .02-.02.03-.03.03l-.68.19a.04.04 0 0 0-.02.03c0 .04-.02.08-.04.12a.08.08 0 0 1-.05.04l-1.02.36Z" fill="#CADEE9"/><path d="m7.29 8.83-.02-.03.03-.41c0-.01.01-.02.02-.01l.61.19c.01 0 .02 0 .02.02l.02.45-.68-.21Z" fill="#2C2B63"/><path d="M11.47 8.5c.04-.02.06-.05.06-.07 0-.02-.05-.03-.09-.02-.04.02-.06.04-.05.06 0 .03.04.03.08.02Z" fill="#CADEE9"/><path d="m6.07 8.88.14-.39.02-.01.36-.05c.01 0 .02 0 .01.01l-.09.39-.01.01-.41.06c-.02 0-.02 0-.02-.02Z" fill="#F0F3FA"/><path d="M11.55 8.52c.03-.01.05 0 .04.03 0 .01 0 .02-.02.03-.03 0-.04 0-.04-.03 0-.02 0-.03.02-.03ZM11.27 8.78v.01h-.02c-.29.05-.43.05-.44.01 0-.03.14-.07.43-.1h.02l.01.08Z" fill="#CADEE9"/><path d="M11.45 8.79v-.02c0-.03 0-.05.03-.04h.02c.02 0 .02 0 0 .01a.16.16 0 0 0-.04.13h-.03v-.02l.01-.03v-.03Z" fill="#B7D3E1"/><path d="m13.35 9.08.01.02a73.36 73.36 0 0 1-.05.6h-.04a9.64 9.64 0 0 1-1.58-.37c-.03-.01-.04-.03-.04-.06v-.39h.45c.02 0 .03-.01.03-.03l.01-.04c0-.02.02-.02.04-.02l1.17.3ZM10.63 8.94l-.01-.02c0-.02 0-.04.02-.05h.03a15.2 15.2 0 0 0 .6.02v.26c0 .02-.02.03-.04.02l-.6-.23Z" fill="#DEEBF1"/><path d="M11.32 8.89c0-.02.02-.03.04-.02l.02.04c0 .02-.02.03-.03.04h-.03v-.06Z" fill="#B7D3E1"/><path d="M9.65 9.95h-.01l-.01-.01a21.77 21.77 0 0 0-.18-.54l1.14-.4h.05l.56.22c.1.04.1.08 0 .12l-.51.15c-.02 0-.03.02-.04.04-.01.06-.06.1-.15.13l-.85.29Z" fill="#DEEBF1"/><path d="M11.39 9.12c-.04.02-.06.01-.07-.02v-.05h.03l.04.04h.1v.02l-.02.06-.02.01h-.01l-.01-.04c-.01-.02-.02-.03-.04-.02Z" fill="#2C2B63"/><path d="M11.62 9.1c0 .02 0 .03-.02.02h-.05l-.02-.03c0-.02 0-.03.02-.03.04-.02.06 0 .07.04Z" fill="#B7D3E1"/><path d="m5.76 9.84.13-.41a.1.1 0 0 1 .09-.08l.38-.08c.04-.01.06 0 .05.05l-.11.45c-.01.04-.03.06-.07.07l-.43.06c-.04 0-.05-.02-.04-.06Z" fill="#F0F3FA"/><path d="M5.44 9.36v.06l-.72.03-.02-.06.74-.03Z" fill="#0E0B0B"/><path d="m7.19 9.93.04-.53c0-.01 0-.02.02-.01l.77.24c.01 0 .02 0 .02.02l.03.54c0 .02 0 .03-.02.02l-.85-.26-.01-.02Z" fill="#2C2B63"/><path d="M11.24 9.38c.03-.02.04 0 .03.03v.06c0 .02 0 .03-.04.03h-.31c-.06 0-.06 0 0-.02l.32-.1Z" fill="#DEEBF1"/><path d="m11.32 9.41.02-.02c.02 0 .02 0 .03.02a.1.1 0 0 1 0 .04c-.01.03-.03.03-.04 0V9.4Z" fill="#B7D3E1"/><path d="M11.8 9.5c0 .02-.05.01-.14-.02a.03.03 0 0 1-.03-.03v-.01l.01-.02h.04c.09.03.13.06.12.08ZM5.43 9.42h.02v.02l-.2.43c0 .02-.02.03-.04.03h-.43l-.06-.46.71-.02Z" fill="#DEEBF1"/><path d="M13.26 9.76h.02l.01.03-.11.47-1.42-.32a.08.08 0 0 1-.07-.08l-.03-.25c-.01-.04 0-.05.04-.05l.18.01c.03 0 .04 0 .04-.03 0-.02 0-.04-.03-.06v-.03h.02c.44.15.89.25 1.35.31ZM11.26 9.58l-.01.16c0 .02-.01.02-.02.02-.19-.04-.34-.1-.46-.17-.05-.02-.04-.04.01-.03l.47.01s.01 0 0 0ZM11.32 9.74c-.01.02-.02.01-.02 0v-.1c.06-.06.1-.05.08.04 0 .02-.02.04-.06.06ZM11.54 9.61c.02-.02.04-.02.05.01l.02.1c0 .02-.01.03-.04.02a.09.09 0 0 1-.04-.05c-.01-.03-.01-.05.01-.08ZM10.89 12.89c0 .04-.04.06-.12.04L9.67 10l1-.34a.1.1 0 0 1 .07 0l.47.16c.02.01.02.02.02.04l-.34 3.03ZM11.47 9.72l.11.1.02.04c0 .02-.01.03-.03.02l-.15-.06c-.03 0-.04-.02-.03-.05.01-.05.04-.07.08-.05ZM11.4 9.91a.13.13 0 0 1-.02-.03c-.01-.02 0-.03.01-.02l.1.07c.03.02.02.03 0 .03-.03 0-.05 0-.07-.02 0 0 0-.02-.02-.03Z" fill="#DEEBF1"/><path d="m4.18 9.95.21-.05.03.01.26.95c0 .01 0 .02-.02.03l-.19.05c-.02 0-.02 0-.03-.02l-.08-.3h-.03l-.75.2c-.02 0-.03 0-.03-.02l-.07-.25c0-.02 0-.02.02-.03l.73-.2c.01 0 .02-.01.01-.03l-.08-.3c0-.02 0-.03.02-.04Z" fill="#F0F3FA"/><path d="m11.31 9.92.07.04c.03.02.03.04.01.06a.48.48 0 0 1-.12.1c-.02.02-.03.01-.02-.02l.04-.16c0-.02 0-.02.02-.02ZM11.64 10.13l-.1-.1c-.03-.03-.03-.05.01-.06l.04-.02c.02 0 .04 0 .04.02.03.06.04.1.03.15 0 .02-.01.02-.02 0ZM4.91 10.39l-.11-.42H5.2l-.16.39-.04.02h-.1ZM13.16 10.31a4.16 4.16 0 0 1-1.19 1.83l-.25-2.13c0-.02 0-.02.02-.02.47.14.94.24 1.42.32ZM11.46 10.06h.02a4.09 4.09 0 0 0 .15.16 4.71 4.71 0 0 0-.18.12 4.13 4.13 0 0 0-.16-.15 3.89 3.89 0 0 0 .17-.13ZM11.33 10.32l.05.04v.04c-.1.06-.15.1-.16.08l.02-.17c0-.02.02-.03.04-.02l.05.03ZM11.68 10.48l-.1-.07c-.04-.01-.04-.03-.02-.06l.07-.06c.03-.03.05-.02.05.02l.03.15c0 .03 0 .03-.03.02Z" fill="#DEEBF1"/><path d="M5.95 11.2 5.4 11l-.02-.04.2-.58.03-.01.55-.08c.02 0 .03 0 .03.03l-.21.87c0 .02-.02.02-.03.02Z" fill="#F0F3FA"/><path d="M11.46 10.42h.02l.17.1.02.03c0 .01 0 .02-.02.03a6 6 0 0 1-.2.1 6.14 6.14 0 0 1-.19-.12c0-.01 0-.02.02-.03a2.76 2.76 0 0 0 .17-.11h.01Z" fill="#DEEBF1"/><path d="m7.1 11.19.05-.66c0-.01.01-.02.03-.01l.94.3.02.01.04.77c0 .02 0 .02-.02.02L7.1 11.2l-.01-.02Z" fill="#2C2B63"/><path d="M11.63 10.8a16.01 16.01 0 0 1-.11-.08 3.97 3.97 0 0 0 .2-.1l.04.21c0 .02 0 .03-.03.02l-.1-.05ZM11.17 10.83l.02-.18c0-.03.01-.03.04-.02l.15.09c.02 0 .02.02 0 .03l-.17.1c-.03.01-.04 0-.04-.02Z" fill="#DEEBF1"/><path d="m13.88 11.55.21.1c.03.01.03.03.02.05l-.08.18c-.01.03-.03.03-.06.02l-.88-.4c-.01-.01-.02-.02-.01-.04l.32-.7c.03-.06.1-.1.23-.1.07.01.18.06.32.14.1.06.14.16.1.3a1.47 1.47 0 0 1-.19.4c-.01.03 0 .04.02.05Z" fill="#F0F3FA"/><path d="M11.46 10.78h.01a2.55 2.55 0 0 1 .24.15v.01a2.5 2.5 0 0 1-.26.14 2.53 2.53 0 0 1-.23-.15v-.02a2.51 2.51 0 0 1 .24-.13Z" fill="#DEEBF1"/><path d="M13.41 11.34c-.02 0-.02-.02-.01-.04l.12-.26a.12.12 0 0 1 .06-.06.09.09 0 0 1 .08 0l.09.04c.02.01.04.03.05.06l-.01.08-.13.27c0 .01-.02.02-.03.01l-.22-.1Z" fill="#0B81BE"/><path d="m11.28 11.05.1.06v.03l-.22.12h-.02l.01-.26c0-.02.01-.02.03-.01l.1.06ZM11.65 11.2l-.13-.07c-.02 0-.02-.02 0-.03a4.38 4.38 0 0 0 .24-.11h.01l.04.26c0 .02 0 .03-.03.02l-.13-.07Z" fill="#DEEBF1"/><path d="m4.66 12.1-.15.42H4.5l-.17-.24v-.03c.07-.2.13-.33.17-.41.02-.06 0-.1-.05-.15a.04.04 0 0 0-.05 0l-.3.17c-.02.01-.03.01-.04-.01l-.13-.21c-.01-.03 0-.04.02-.05l.86-.5h.02l.41.64c.04.06.05.12.04.19a.24.24 0 0 1-.1.16.62.62 0 0 1-.23.12c-.1.02-.17-.02-.25-.11-.02-.02-.03-.02-.04 0Z" fill="#F0F3FA"/><path d="M11.45 11.16h.02l.29.17v.03l-.24.14a.06.06 0 0 1-.07 0l-.27-.16v-.02l.27-.16Z" fill="#DEEBF1"/><path d="M11.42 11.54c-.1.07-.2.12-.3.16-.02.01-.03 0-.03-.01a7.79 7.79 0 0 0 .03-.3 3.83 3.83 0 0 1 .3.15ZM11.82 11.4v.02l.04.25c0 .03 0 .03-.03.02a122.1 122.1 0 0 1-.26-.13c-.02-.02-.02-.03 0-.04a4.39 4.39 0 0 0 .25-.11Z" fill="#F0F3FA"/><path d="m4.77 11.46-.1.07a.04.04 0 0 0-.02.05l.2.32c.01.01.04.02.05 0l.1-.06a.04.04 0 0 0 .02-.05l-.2-.32a.04.04 0 0 0-.05 0Z" fill="#0B81BE"/><path d="m11.45 11.99-.32-.19v-.02l.32-.19a.07.07 0 0 1 .08 0l.28.16v.04l-.34.2h-.02ZM13.27 12.29l.45.02c.01 0 .01 0 0 0l-.18.24h-.02c-.2 0-.36-.02-.45-.03-.05 0-.1.02-.12.09l.01.05.26.23v.05l-.17.18c-.02.02-.03.02-.05 0l-.74-.68v-.02l.49-.58c.04-.05.1-.08.17-.09.06 0 .13 0 .18.05.1.07.16.13.19.18.04.08.02.17-.04.27-.01.03 0 .04.02.04ZM11.93 12.19c0 .03-.01.04-.04.05l-.34-.2c-.02-.01-.02-.03 0-.04l.3-.17s.02 0 .02.02l.06.34ZM11.23 11.93l.15.09c.02 0 .02.02 0 .03a4.53 4.53 0 0 1-.35.2c0-.13.01-.27.03-.4a5.92 5.92 0 0 0 .17.08Z" fill="#F0F3FA"/><path d="m13.02 12.12-.1-.08a.03.03 0 0 0-.04 0l-.25.3a.03.03 0 0 0 0 .04l.1.08h.05l.24-.3a.03.03 0 0 0 0-.04Z" fill="#0B81BE"/><path d="M11.84 12.29a3.58 3.58 0 0 1-.4.29c-.01 0-.02 0-.03-.02l-.33-.19c-.03-.02-.03-.04 0-.06l.33-.21a.1.1 0 0 1 .11 0l.32.19Z" fill="#F0F3FA"/><path d="M8.32 13.26a4.79 4.79 0 0 1-1.31-.45l.02-.68c0-.02.01-.03.03-.02l1.18.42c.02 0 .03.02.03.04l.05.7Z" fill="#2C2B63"/><path d="m5.94 12.5.15.13c.02.02.02.04.01.07l-.4.96c-.02.03-.04.03-.07 0l-.16-.15c-.02-.03-.03-.05-.01-.08l.06-.12-.01-.05a2.47 2.47 0 0 0-.31-.29c-.02-.01-.04-.02-.05 0l-.12.06c-.03.02-.05.01-.08 0l-.17-.16c-.03-.03-.02-.05.01-.06l.93-.47c.03-.01.05 0 .07 0l.15.15ZM11.36 12.6l.01.01v.04l-.42.22.06-.45c0-.02.01-.02.03-.01l.32.19Z" fill="#F0F3FA"/><path d="M5.77 12.67a12.6 12.6 0 0 0-.13.36c0 .02-.02.02-.04 0a2.8 2.8 0 0 1-.18-.16v-.04a11.64 11.64 0 0 0 .35-.16Z" fill="#0B81BE"/><path d="M12.53 13.27c.04.07.05.14.03.21a.28.28 0 0 1-.13.18l-.44.28a.28.28 0 0 1-.22.04.28.28 0 0 1-.18-.13l-.28-.45a.28.28 0 0 1-.03-.22.28.28 0 0 1 .13-.18l.44-.27a.28.28 0 0 1 .22-.04c.08.02.14.06.18.13l.28.45ZM6.53 12.98c.01-.02.03-.03.05-.02l.7.34c.07.04.12.1.15.18.03.08.02.16-.02.24l-.2.4a.32.32 0 0 1-.18.17.29.29 0 0 1-.23 0l-.7-.35c-.02 0-.03-.03-.02-.05l.45-.9Z" fill="#F0F3FA"/><path d="m11.89 13.04-.22.13a.14.14 0 0 0-.04.2l.13.21c.04.07.13.09.2.05l.2-.13a.14.14 0 0 0 .05-.2l-.13-.21a.14.14 0 0 0-.2-.05ZM6.65 13.35c.01-.02.03-.03.05-.02l.33.16c.03.02.06.05.07.1.01.03 0 .07-.01.11l-.1.2a.17.17 0 0 1-.08.08.13.13 0 0 1-.11 0l-.34-.17c-.02 0-.02-.02-.01-.04l.2-.42Z" fill="#0B81BE"/><path d="m10.09 14.1-.1-.33a.18.18 0 0 1 .01-.14.18.18 0 0 1 .12-.09l.72-.19c.04 0 .08 0 .11.02.04.02.06.05.07.1l.06.2c0 .01 0 .03-.03.03l-.18.05c-.03 0-.05 0-.06-.03a.16.16 0 0 0-.04-.06c-.01-.01-.03-.02-.04-.01l-.38.1c-.05 0-.07.04-.06.1a2.54 2.54 0 0 0 .11.36c.02.04.06.06.1.04l.38-.13s.02-.01.02-.03v-.07c0-.03 0-.05.03-.06l.18-.06c.02 0 .04 0 .04.02l.07.2v.11a.15.15 0 0 1-.1.08l-.7.24a.17.17 0 0 1-.14 0 .18.18 0 0 1-.1-.12l-.1-.33ZM7.8 13.74h-.02a.04.04 0 0 1-.01-.04c0-.06.01-.11.04-.18 0-.01.02-.02.03-.01l.4.09c.02 0 .03.02.02.05l-.04.17c0 .02-.02.03-.04.02h-.05c-.01 0-.03 0-.03.02l-.11.48.01.04.05.02c.02.02.02.03.02.05l-.04.17c0 .02-.02.03-.04.03l-.43-.1-.02-.03.05-.18c0-.01.01-.02.03-.02h.06c.02 0 .03-.01.03-.03l.12-.5c0-.03 0-.05-.03-.05ZM9.45 13.62h.25l.02.01v1.03s0 .02-.02.02h-.43l-.02-.01-.4-.69h-.01l-.02.01v.69c0 .01 0 .02-.02.02h-.24s-.02 0-.02-.02v-1.01c0-.02.01-.02.02-.02h.45l.39.68c0 .01.01.02.02.01l.01-.01v-.7l.02-.01Z" fill="#F0F3FA"/></svg>