<!-- by TradingView --><svg width="18" height="18" fill="none" xmlns="http://www.w3.org/2000/svg"><path fill="#F0F3FA" d="M0 0h18v18H0z"/><path d="M3 12V6h1v2.5h2V6h1v6H6V9.5H4V12H3Z" fill="url(#a)"/><path d="M7.5 6.004V7H9v5h1V7h1.164l.398-.996H7.5Z" fill="url(#b)"/><path d="M11.749 6.019 11.344 7h2.53C14.167 7 15 7.115 15 8s-.833 1-1.126 1h-2.378c-.298 0-.496.41-.496.752V12h1v-2h2.225C15.205 10 16 9.178 16 8.054s-.795-2.035-1.775-2.035h-2.476Z" fill="url(#c)"/><path d="M12.653 9.906c.183-.533-.183-.813-.366-.897H14l-1.347.897Z" fill="#FF6803"/><defs><linearGradient id="a" x1="2.838" y1="11.703" x2="7.727" y2="8.716" gradientUnits="userSpaceOnUse"><stop stop-color="#038AE4"/><stop offset="1" stop-color="#084EA3"/></linearGradient><linearGradient id="b" x1="8.239" y1="11.786" x2="11.945" y2="7.18" gradientUnits="userSpaceOnUse"><stop stop-color="#094DA2"/><stop offset="1" stop-color="#0099F0"/></linearGradient><linearGradient id="c" x1="11.77" y1="10.934" x2="16.151" y2="8.331" gradientUnits="userSpaceOnUse"><stop stop-color="#094DA2"/><stop offset="1" stop-color="#0096F4"/></linearGradient></defs></svg>