<!-- by TradingView --><svg width="18" height="18" viewBox="0 0 18 18" xmlns="http://www.w3.org/2000/svg"><path fill="#D92A2C" d="M0 0h18v18H0z"/><path d="M3 7h1v1.54h1V7h1v4H5V9.46H4V11H3V7Z" fill="#fff"/><path fill-rule="evenodd" d="M7 7H8.89a.98.98 0 0 1 .2 1.94A1.04 1.04 0 0 1 8.97 11H7V7Zm1 3h.54a.46.46 0 0 0 0-.92H8V10Zm0-1.46v-.92h.54a.46.46 0 0 1 0 .92H8Z" fill="#fff"/><path d="M15 6a2.8 2.8 0 0 0-1.53-.46c-1.65 0-2.93 1.3-2.93 3.08 0 .94.37 1.79.96 2.38A3.34 3.34 0 0 1 10 8.23C10 6.45 11.33 5 12.98 5c.78 0 1.49.47 2.02 1Z" fill="#fff"/><path d="m14.89 7.84-.79.34a.68.68 0 0 0-.58-.45c-.13 0-.32.11-.32.3 0 .3.38.45.8.6.8.3 1 .65 1 1.08 0 .63-.5 1.29-1.48 1.29-1 0-1.43-.64-1.52-.96l.9-.33c.18.4.39.55.68.55.29 0 .43-.16.43-.36 0-.26-.42-.47-.92-.65-.73-.26-.93-.62-.93-1.1 0-.47.4-1.15 1.36-1.15.78 0 1.24.56 1.37.84Z" fill="#fff"/></svg>