<!-- by TradingView --><svg width="18" height="18" viewBox="0 0 18 18" xmlns="http://www.w3.org/2000/svg"><path fill="#F0F3FA" d="M0 0h18v18H0z"/><path fill-rule="evenodd" d="M9 14.65a5.65 5.65 0 1 0 0-11.3 5.65 5.65 0 0 0 0 11.3ZM9 15A6 6 0 1 0 9 3a6 6 0 0 0 0 12Z" fill="#00457D"/><path fill-rule="evenodd" d="M14.3 9c0 .49-.07.96-.2 1.41H3.9A5.3 5.3 0 1 1 14.3 9ZM7.05 4.59c1.27.85 1.7 4 1.76 5.47 1-2.4.53-5 .18-6-.42.56-1.47.59-1.94.53Zm4.23.35c-.56 0-1.4-.59-1.76-.88.7 1.55 0 4.76-.53 6 1.41-1.13 2.18-3.88 2.3-5.12Zm-2.11 5.12a7.35 7.35 0 0 0 3.35-3.7c-.3-.12-.92-.54-1.06-1.24-.06 1.12-.6 3.67-2.3 4.94Zm4.23-2.3c-.56-.14-.59-.88-.53-1.23-.56 1.55-2.47 3-3.35 3.53 1.7-.14 3.3-1.59 3.88-2.3Zm0 .36c-.12.23-.25.77.18 1.06-.53.3-1.98.88-3.53.88.76-.24 2.5-.95 3.35-1.94Z" fill="#ED1C2E"/><path fill-rule="evenodd" d="M9 14.3a5.3 5.3 0 0 0 5.1-3.89H3.9A5.3 5.3 0 0 0 9 14.3Zm-.35-3.54c.17.77.53 2.48.53 3.18-.3 0-1-.03-1.41-.18.35-.58 1.02-2 .88-3Zm1.59 3a15.93 15.93 0 0 0-1.42-3c.15.43.42 2.3.53 3.18l.89-.18Zm-1.24-3h.18a5.56 5.56 0 0 1 1.76 2.12c-.17.12-.53.43-.53.7-.35-.87-1.13-2.67-1.41-2.82Zm2.47 1.42a3.52 3.52 0 0 0-1.76-1.42h-.36c.43 0 1.42 1.42 1.77 1.95 0-.43.23-.53.35-.53Zm-1.59-1.42ZM11.65 12a5.8 5.8 0 0 0-1.61-1.2c.41.07 1.17.25 1.78.5-.11.05-.31.28-.17.7Z" fill="#00457D"/></svg>