<!-- by TradingView --><svg xmlns="http://www.w3.org/2000/svg" width="18" height="18" viewBox="0 0 18 18"><path fill="#F0F3FA" d="M0 0h18v18H0z"/><path fill-rule="evenodd" d="M9 14.5A5.4 5.4 0 0 0 14.5 9 5.4 5.4 0 0 0 9 3.5 5.4 5.4 0 0 0 3.5 9 5.4 5.4 0 0 0 9 14.5Zm0 .5A6 6 0 1 0 9 3a6 6 0 0 0 0 12Z" fill="#00467F"/><circle cx="9" cy="9" r="5" fill="#ED1B2F"/><path d="M13.9 10H4.1a5 5 0 0 0 9.8 0ZM9.05 4h-.1a5.12 5.12 0 0 1 .1 0Z" fill="#00467F"/><path d="M7 4.83c1.86 1.96 1.73 5.06 1.7 5.15a6.5 6.5 0 0 0 .23-5.64c-.54.64-1.52.6-1.94.49Zm3.87.4c-.68.01-1.3-.56-1.53-.85.29 1.13.6 3.8-.46 5.5a6.84 6.84 0 0 0 2-4.65Zm.17.21c.08.33.42.99 1.12 1.06-.2.65-1.1 2.23-3.07 3.43.74-.87 2.16-2.99 1.95-4.49Zm1.2 1.34c-.4 1.34-1.96 2.61-2.69 3.08.7-.19 2.35-.86 3.34-2.04-.52-.14-.66-.75-.66-1.04ZM9.87 9.95c.49-.19 2.08-.8 2.95-1.89-.05.28-.08.86.23 1-.86.54-2.57.86-3.32.95l.14-.06ZM9.52 10.48c.02-.02.9.03 1.77.43-.07.08-.2.3-.16.52-.24-.2-.89-.68-1.61-.95Zm1.61 1.14a5.9 5.9 0 0 0-1.92-1.13 4.73 4.73 0 0 1 1.6 1.63c.03-.2.23-.42.32-.5ZM8.95 10.5c.4.26 1.34.98 1.77 1.82-.13.1-.42.32-.54.47a5.86 5.86 0 0 0-1.23-2.29Zm-.35 0c.34.6.87 2.09.27 3.21-.08-.11-.44-.32-1.2-.26.4-.49 1.12-1.75.93-2.94Zm.18 0c.26.56.7 1.97.32 3.14 0-.03.5-.35.77-.51l.16-.11-.03-.1a5.41 5.41 0 0 0-1.22-2.41Z" fill="#fff"/></svg>