<!-- by TradingView --><svg width="18" height="18" viewBox="0 0 18 18" xmlns="http://www.w3.org/2000/svg"><path fill="#F0F3FA" d="M0 0h18v18H0z"/><path d="M13.94 9.53a3.7 3.7 0 0 1-.1-.1.55.55 0 0 0-.13-.1 2.95 2.95 0 0 1-.21-.14l-.03-.52a.15.15 0 0 0 .03-.12v-.26a2.01 2.01 0 0 0-.05-.4 2.94 2.94 0 0 0-.17-.36c-.01-.12-.03-.19-.06-.22a.72.72 0 0 1-.13-.2 1 1 0 0 0-.23-.43.73.73 0 0 1-.08-.17 1.61 1.61 0 0 0-.3-.49 5.5 5.5 0 0 0-3.34-1.7c-.19.01-.33.02-.43.01a3 3 0 0 0-1.18.19l-.68.31a3.1 3.1 0 0 0-.69.5c-.15.12-.28.23-.4.35a5.4 5.4 0 0 1-.77.63.77.77 0 0 0-.1.12 2.1 2.1 0 0 1-.28.36c.07-.22.16-.42.27-.6l.08-.16a.91.91 0 0 1 .09-.17c.25-.36.5-.62.74-.8.23-.18.49-.35.78-.53.15-.1.3-.16.4-.19 1.45-.38 3.47-.6 4.81.23l.14.08.16.12.36.34.77.76c.07.07.13.16.17.28a45.58 45.58 0 0 0 .17.43l.1.3c.05.24.1.46.18.68a4.99 4.99 0 0 1 .11 1.97Z" fill="#EAEED2"/><path d="M10.05 4.5c.06.1.12.17.16.22.13.14.1.2-.09.17-.04-.01-.13-.02-.27-.02-.06-.01-.1 0-.15.07-.02.03-.02.06 0 .1l.14.15c.05.06.1.11.18.16l.2.1a1.28 1.28 0 0 1 .59.45v.03l-.02.01a.45.45 0 0 0-.35.2l-.29.28a.79.79 0 0 0-.15.26c-.05.13-.12.25-.21.37a.3.3 0 0 0-.07.25c.01.03 0 .04-.04.03-.23-.12-.56-.12-1 .01a.2.2 0 0 0-.14.17c-.03.16-.04.32-.03.47 0 .03.01.06.04.07a.3.3 0 0 0 .26.06A1 1 0 0 0 9.06 8l.11-.06a.07.07 0 0 1 .08 0c.02.02.03.05.02.08 0 .05 0 .1.02.16.02.05.06.09.1.11.11.06.2.14.27.25l.01.04c.02.16.08.27.2.32.04.03.04.04-.01.05a.38.38 0 0 1-.24-.05 1.3 1.3 0 0 1-.2-.15c-.1-.08-.17-.14-.22-.16a2.95 2.95 0 0 1-.25-.14 3.6 3.6 0 0 0-.55-.2c-.11-.03-.19-.08-.22-.13a5.27 5.27 0 0 0-.8-1.06c-.09-.1-.15-.2-.2-.3a.42.42 0 0 1 .02-.35c.09-.21.13-.41.14-.6V5.4c0-.06-.02-.1-.08-.14a.25.25 0 0 0-.16-.03c.02-.03.06-.05.12-.06.02 0 .04-.02.05-.04.02-.05.06-.09.11-.12.1-.05.2-.12.3-.2l.16-.09c.01 0 .02-.01.02-.03 0-.02 0-.03-.02-.02H7.8a.03.03 0 0 1-.02-.03v-.06c0-.02 0-.03-.02-.03l-.23-.04a3 3 0 0 1 1.18-.19c.1 0 .24 0 .43-.02.33-.02.64.04.9.18Z" fill="#75B54A"/><path d="M12.86 6.68c.01.16.03.31.07.45 0 .04.03.09.06.15a.6.6 0 0 1 .08.18l.05.25c.02.09.06.16.1.22.1.14.15.3.16.48 0 .03 0 .07.02.13l.03.09s0 .02.02.02h.01l.01.02.03.52c-.02.27-.04.5-.08.69-.04.23-.1.45-.17.65-.08.2-.2.46-.35.76a5.27 5.27 0 0 1-1.55 1.62 7.71 7.71 0 0 1-.92.4l-.13.02a.07.07 0 0 0-.04.03.2.2 0 0 1-.17.11 15.23 15.23 0 0 1-1.95-.01c-.13-.02-.2-.09-.19-.2.01-.35 0-.63-.03-.84v-.31l.01-.05a.42.42 0 0 0 .04-.25c0-.03 0-.03.03-.01l.07.1c.12.3.16.6.13.91-.01.08.02.13.1.17l.13.04c.49 0 .94 0 1.36-.05.18.07.31.06.4-.03l.2-.3c.12-.18.25-.3.4-.37.2-.09.42-.25.67-.48l.5-.51a2.9 2.9 0 0 0 .79-1.59l.01-.07c.07-.19.1-.34.12-.48a6.5 6.5 0 0 0 0-.57 2.65 2.65 0 0 0-.25-1.07l-.2-.45a3.83 3.83 0 0 0-1.32-1.67.36.36 0 0 0-.1-.05l-.12-.02a.66.66 0 0 1-.23-.07.64.64 0 0 0-.15-.06.52.52 0 0 1-.15-.07 1.9 1.9 0 0 0-.5-.24c.13 0 .22 0 .26.02.18.03.21-.03.1-.17-.05-.05-.1-.13-.17-.23l.18.01.11.04c.02.02.06.03.1.03l.08.01a5.8 5.8 0 0 0 .33.11l.2.1.14.08.2.13c.43.32.8.66 1.1 1.02.13.17.23.33.29.49.02.07.05.12.08.17Z" fill="#0CB3DC"/><path d="m7.53 4.52.23.04c.02 0 .03 0 .02.03v.06c0 .01 0 .02.02.03h.04c.02 0 .03 0 .02.02 0 .02 0 .03-.02.03a.69.69 0 0 0-.17.1l-.29.2a.28.28 0 0 0-.11.11l-.05.04c-.06.01-.1.03-.12.06l-.08.03a1 1 0 0 0-.26.13.7.7 0 0 1-.11.06 8.27 8.27 0 0 0-.77.75 6.16 6.16 0 0 0-.55 1.04l-.06.17c-.06.18-.1.37-.14.58a6.5 6.5 0 0 0-.04.57c0 .05.01.09.05.12l.1.1a4.36 4.36 0 0 1 .2.42c.04.07.07.12.11.16.13.16.29.29.47.4l.24.15.23.12a3.33 3.33 0 0 1 .65.53 5.79 5.79 0 0 1 .37.5c.03.05.02.06-.03.02a.52.52 0 0 1-.2-.27.36.36 0 0 0-.1-.14.22.22 0 0 0-.13-.08l-.23-.02c-.23-.15-.46-.32-.69-.5-.04-.03-.1-.07-.2-.11a1.55 1.55 0 0 1-.16-.1 3.05 3.05 0 0 0-.67-.34c-.08-.03-.14-.1-.17-.22A1.3 1.3 0 0 1 4.9 9c0-.12-.07-.2-.2-.24-.03-.01-.06 0-.08.04a.54.54 0 0 1-.14.19.95.95 0 0 1 .03-.44c.08-.23.13-.42.14-.59.03-.4.14-.76.34-1.1.07-.11.13-.23.18-.35.04-.1.1-.18.16-.27l.44-.57a3.74 3.74 0 0 1 .44-.38c.26-.23.48-.39.64-.47l.68-.31Z" fill="#17ADB6"/><path d="M9.85 4.87c.2.06.37.14.5.24.06.03.11.06.16.07l.15.06c.05.03.13.06.23.07l.11.02.11.05c.3.2.56.44.78.72.22.29.4.6.55.95l.19.45a2.65 2.65 0 0 1 .26 1.07l-.01.57c-.01.14-.05.3-.12.48l-.01.07c0 .03-.02.05-.03.05a.55.55 0 0 0-.23-.17l-.05-.01a1.37 1.37 0 0 1-.28-.1.5.5 0 0 1-.21-.23c.09 0 .15-.04.19-.15.11-.36.13-.72.06-1.1a3.71 3.71 0 0 0-.5-1.34 4.76 4.76 0 0 0-.15-.3c-.06-.1-.12-.18-.2-.26a.52.52 0 0 1-.07-.11.39.39 0 0 0-.08-.1 1.48 1.48 0 0 0-.09-.08 25.76 25.76 0 0 1-.38-.4.6.6 0 0 0-.16-.13 1.7 1.7 0 0 0-.24-.1 2.34 2.34 0 0 1-.4-.22.1.1 0 0 0-.11 0c-.05.03-.06.07-.04.13l.06.12-.14-.16c-.02-.03-.02-.06 0-.1.04-.05.1-.07.15-.06Z" fill="#6CC5E9"/><path d="M11.95 9.23a.74.74 0 0 0-.35-.28 2.7 2.7 0 0 0-.06-1.58 4.44 4.44 0 0 0-.2-.6c-.05-.12-.1-.21-.16-.3l-.12-.19a.5.5 0 0 0-.24-.2.3.3 0 0 0-.2 0 .93.93 0 0 0-.18.07c.07-.12.19-.19.35-.2l.02-.02V5.9l-.3-.3c-.05-.04-.15-.1-.29-.15a1.7 1.7 0 0 1-.2-.1.64.64 0 0 1-.18-.16 1.5 1.5 0 0 1-.06-.12c-.02-.06-.01-.1.04-.13a.1.1 0 0 1 .1 0 2.34 2.34 0 0 0 .46.23l.19.09a.6.6 0 0 1 .16.13 24.8 24.8 0 0 0 .38.4l.1.08.07.1c.02.04.04.08.08.11l.2.27a4.7 4.7 0 0 1 .26.52c.18.32.3.7.38 1.11.07.38.05.74-.06 1.1-.04.1-.1.16-.2.15Z" fill="#A2D8EE"/><path d="m9.52 5.2.06.3v.12c0 .02-.01.03-.02.03l-.03.01c-.24-.02-.4-.07-.47-.13a.31.31 0 0 1-.08-.3c.14-.09.3-.12.47-.07.03 0 .06.02.07.04Z" fill="#EAEED2"/><path d="M8.98 5.24c-.02.1 0 .2.08.29a.26.26 0 0 1-.12-.11c-.03-.08-.02-.14.04-.18Z" fill="#A7D27D"/><path d="m5.77 5.68-.44.57c-.07.09-.12.18-.16.27-.05.12-.1.24-.18.35-.2.34-.31.7-.34 1.1-.01.17-.06.36-.14.59a.95.95 0 0 0-.03.44c-.05.22-.12.44-.22.66-.01.04-.03.06-.06.05a.05.05 0 0 1-.04-.02A15.33 15.33 0 0 0 4.2 9c.02-.17.01-.34-.02-.5-.02-.33.03-.67.16-1.02.1-.29.2-.52.28-.7.1-.11.2-.23.28-.36a.78.78 0 0 1 .23-.23c.22-.15.43-.32.65-.52ZM12.86 6.68c.1.1.18.25.23.43l.13.2c.03.03.05.1.06.22l.18 1.12h-.01a.03.03 0 0 1-.02-.02 1 1 0 0 0-.03-.1.54.54 0 0 1-.02-.12.8.8 0 0 0-.16-.48.7.7 0 0 1-.1-.22 2.47 2.47 0 0 1-.05-.25.6.6 0 0 0-.08-.18.63.63 0 0 1-.06-.15c-.04-.14-.06-.3-.07-.45Z" fill="#75B54A"/><path d="M13.28 7.53c.1.2.16.31.17.37a2.01 2.01 0 0 1 .05.47v.18c.01.04 0 .08-.03.12-.02-.01-.02-.02 0-.02l-.19-1.12ZM4.48 9a.54.54 0 0 0 .14-.2c.02-.03.05-.04.08-.03.13.04.2.12.2.24 0 .13.01.23.03.3.03.11.09.19.17.22.23.08.45.2.67.35l.17.09.2.11c.22.18.45.35.68.5l.12.15.29.3.16.26c.08.1.13.2.17.27l.18.37v.2l-.05.04-.06-.01a.65.65 0 0 0-.22-.12 1.89 1.89 0 0 1-.66-.33.3.3 0 0 0-.1-.05.32.32 0 0 1-.09-.03c-.15-.1-.3-.19-.47-.23a.7.7 0 0 1-.42-.28.54.54 0 0 0-.41-.26l-.04.01a.05.05 0 0 0-.02.04c0 .04.02.1.05.15a.5.5 0 0 1 .05.11c.04.15.09.27.14.37l.14.21.05.13c0 .05.03.09.06.12.1.09.18.2.22.31v.06a.05.05 0 0 1-.06.02.4.4 0 0 1-.31-.18 1.47 1.47 0 0 0-.29-.3.97.97 0 0 0-.21-.16 2.17 2.17 0 0 1-.68-.58.65.65 0 0 1-.12-.29 2.99 2.99 0 0 1-.04-.42c0-.08-.03-.1-.09-.02-.01.02-.04.02-.08 0a7.36 7.36 0 0 0 .07-.55c-.01-.46.01-.91.06-1.38.04.16.05.33.04.5a33.28 33.28 0 0 0-.04.68l.04.02c.03 0 .05-.01.06-.05.1-.22.17-.44.22-.66Z" fill="#A7D27D"/><path d="M11.6 8.95c.14.05.26.15.35.28.05.1.12.17.2.22.06.04.16.07.3.1l.04.02c.06.02.14.08.23.17a2.9 2.9 0 0 1-.76 1.54l-.5.51c-.25.23-.47.4-.66.48-.16.07-.3.2-.4.37l-.22.3c-.08.1-.2.1-.39.03.14-.35.3-.69.48-1.01.12-.25.21-.46.27-.65.06-.21 0-.38-.2-.5a1.9 1.9 0 0 1-.4-.53.85.85 0 0 1-.13-.52c0-.05.03-.1.07-.16a.96.96 0 0 1 .11-.13c.13-.12.16-.32.11-.59 0-.02 0-.03.02-.05a.7.7 0 0 1 .53-.25c.23 0 .4.04.52.1.14.1.28.18.43.27Z" fill="#75B54A"/><path d="M13.5 9.19c.07.04.14.1.21.13.05.03.09.06.12.1l.11.11-.02.34c0 .11-.03.22-.06.34-.1.32-.19.57-.26.74a4.78 4.78 0 0 1-1.76 2.2c-.48.34-.98.6-1.5.78-.23.08-.48.1-.76.04.22 0 .4-.05.56-.19.03-.03.1-.05.2-.06.02 0 .04-.01.05-.03a.07.07 0 0 0 .02-.04c0-.02 0-.04.02-.05a.54.54 0 0 1 .19-.11l.05-.04.04-.06c.05-.05.09-.1.13-.12.13-.08.26-.18.38-.3a.98.98 0 0 1 .13-.06 7.79 7.79 0 0 0 .63-.47 5.26 5.26 0 0 0 .92-1.15c.15-.3.27-.56.35-.76.07-.2.13-.42.17-.65.04-.19.06-.42.08-.7Z" fill="#A7D27D"/><path d="M7.96 11.45c-.01.07.02.15.1.25.03.04.05.13.06.26l.02.04c.02.02.03.05.04.1l.01.08.04.08c0 .02.01.03.03.04l.05.02h.38c.21 0 .37 0 .48-.02l.53-.07c.08 0 .17-.04.26-.09l.3-.18c-.17.32-.33.66-.47 1.01-.42.04-.87.06-1.36.05a.33.33 0 0 1-.14-.04c-.07-.04-.1-.1-.1-.17.04-.3 0-.6-.12-.9A.35.35 0 0 0 8 11.8c-.03-.02-.03-.02-.03.01.01.1 0 .18-.04.25a.1.1 0 0 0 0 .05l-.01.3-.18-.48-.18-.37-.17-.27-.16-.26c.03-.14-.07-.24-.29-.3l-.12-.15.23.02c.04 0 .09.03.13.08.05.04.08.09.1.14.03.1.1.2.2.27.05.04.06.03.03-.03a5.8 5.8 0 0 0-.37-.5 3.33 3.33 0 0 0-.65-.52c.03-.05.08-.04.17.03a65.21 65.21 0 0 1 .5.44l.16.16c.08.07.13.13.16.18.06.08.12.16.2.24l.28.36Z" fill="#6CC5E9"/><path d="m7.74 11.93.18.49c.03.2.04.49.03.83 0 .12.06.19.19.21l.37.04c.6.01 1.12 0 1.58-.03a.2.2 0 0 0 .17-.1c0-.02.02-.03.04-.04l.12-.03a7.69 7.69 0 0 0 .8-.33 2.5 2.5 0 0 1-.38.3.48.48 0 0 0-.13.12l-.04.06a.12.12 0 0 1-.05.04.54.54 0 0 0-.19.1.07.07 0 0 0-.02.06c0 .02 0 .03-.02.04a.06.06 0 0 1-.04.03c-.1 0-.18.03-.21.06a.74.74 0 0 1-.56.19c-.52.02-1.04.02-1.56 0a.36.36 0 0 1-.17-.05.96.96 0 0 0-.45-.14l-.6-.04a4.4 4.4 0 0 1-.56-.1c-.4-.09-.75-.26-1.04-.51a4.21 4.21 0 0 1-.85-1.02 2.38 2.38 0 0 1-.32-1.66c.04.01.07 0 .08-.01.06-.07.09-.06.1.02v.1c0 .15.02.25.03.32.03.13.06.22.12.29.2.25.42.45.68.58a.96.96 0 0 1 .27.22c.11.1.19.18.23.24a.4.4 0 0 0 .31.18c.03 0 .04 0 .06-.02a.06.06 0 0 0 0-.06.78.78 0 0 0-.22-.31.2.2 0 0 1-.06-.12.35.35 0 0 0-.05-.13 5.25 5.25 0 0 1-.14-.2c-.05-.11-.1-.23-.14-.38a.51.51 0 0 0-.05-.1.34.34 0 0 1-.05-.16c0-.01 0-.03.02-.04a.05.05 0 0 1 .04-.01c.17.02.3.1.4.26a.7.7 0 0 0 .43.28c.16.04.32.12.47.23l.1.03a.3.3 0 0 1 .1.05c.19.15.4.26.65.33.07.02.15.06.22.12.02.01.04.02.06.01.02 0 .04-.02.04-.05a.53.53 0 0 0 0-.2Z" fill="#75B54A"/><path d="M10.34 10.82c.2.11.26.28.2.5-.06.18-.15.4-.28.64l-.3.18a.65.65 0 0 1-.26.1c-.18.01-.36.03-.53.06a3 3 0 0 1-.48.01 4.1 4.1 0 0 0-.43 0 .08.08 0 0 1-.04-.05.64.64 0 0 0-.03-.08.3.3 0 0 1-.01-.08.22.22 0 0 0-.04-.1.08.08 0 0 1-.02-.04c0-.13-.03-.22-.06-.26-.08-.1-.11-.18-.1-.25.38.04.77 0 1.16-.15a3.96 3.96 0 0 1 .46-.15c.05 0 .12-.03.2-.07l.14-.06.16-.02c.04 0 .08-.02.12-.05a.72.72 0 0 0 .09-.08l.05-.05Z" fill="#A2D8EE"/></svg>