<!-- by TradingView --><svg width="18" height="18" viewBox="0 0 18 18" xmlns="http://www.w3.org/2000/svg"><path fill="#F0F3FA" d="M0 0h18v18H0z"/><path d="M4.3 14c-.14 0-.22-.14-.24-.28A9.55 9.55 0 0 1 4 12.57V4.71c0-.19.03-.35.06-.5a.23.23 0 0 1 .17-.17c.1-.02.23-.04.37-.04h8.94c.06 0 .16.03.28.06.14.04.17.17.18.3v8.53c0 .21-.01.44-.05.68-.03.22-.16.4-.4.43H4.29Z" fill="#BB1D26"/><path d="M5.6 5.08c.12-.06.11-.1-.02-.1-.19 0-.3 0-.52.04a.07.07 0 0 0-.04.03.08.08 0 0 0-.02.05v3.7c0 .13-.1.2-.23.2h-.23c-.13 0-.22-.07-.22-.2v-4c-.01-.12.07-.27.1-.38a.08.08 0 0 1 .07-.06c.2-.04.36 0 .5.11a.1.1 0 0 0 .09.02 7 7 0 0 1 2.78-.03c.08.02.16 0 .23-.04.1-.06.17-.1.2-.1a.68.68 0 0 1 .34.03c.04 0 .06.04.06.08v4.4c0 .1-.05.16-.15.16h-.19c-.1 0-.15-.05-.15-.16V5.16c0-.1-.05-.16-.15-.16h-.5l-.01.02v.04c0 .02 0 .03.03.03h.28c.1 0 .15.05.15.16v.06c0 .14-.07.22-.2.22H5.35c-.07 0-.11-.04-.11-.12v-.18c0-.06.05-.12.12-.12.2.01.17 0 .23-.03ZM9.23 4.31h-.15c-.04 0-.08.07-.08.15v1.27c0 .08.04.15.09.14h.14c.05 0 .08-.06.08-.15V4.46c0-.08-.04-.15-.08-.15ZM10.78 4.31h-.12c-.05 0-.1.08-.1.17V5.7c0 .1.05.17.1.17h.12c.05 0 .1-.07.1-.17V4.48c0-.1-.05-.17-.1-.17ZM12.99 7.12l.02.02h.02l.44.03c.1.01.16.07.15.2v.14c0 .13-.07.23-.18.24h-.66c-.02 0-.03.02-.03.04 0 .03.03.05.04.07.02.02.04.03.07.03.17-.01.34 0 .52.05.16.04.26.15.3.33.02.06 0 .27-.03.63 0 .04-.02.09-.05.1h-.38c-.04 0-.06-.05-.06-.1l-.02-.48v-.01h-.02l-.05-.01h-.02l-.01.01-.01.02v.02l-.02.48c0 .05-.03.07-.07.07h-.35c-.05 0-.07-.03-.08-.08l-.01-.36v-.01h-.01a.02.02 0 0 0-.02 0l-.05.02a.06.06 0 0 0-.02.02l-.01.04-.02.3c0 .05-.02.07-.05.07h-.36c-.04 0-.07-.02-.07-.07v-.2c0-.04-.02-.06-.06-.07l-.04.01a.06.06 0 0 0-.02.04.97.97 0 0 0-.03.2c0 .06-.02.09-.07.09h-.36c-.05 0-.08-.03-.08-.08V8.4c.01-.23.01-.34.2-.41.22-.07.44-.14.66-.14.03 0 .04 0 .06-.02a.06.06 0 0 0 0-.04c0-.03 0-.05-.04-.05h-.83c-.06 0-.1-.03-.1-.1v-.3c0-.1.05-.14.13-.14l.88-.05.01-.01v-.08l-.01-.01h-.01l-.8-.05c-.1 0-.15-.06-.15-.17 0-.21-.01-.4-.04-.57-.03-.21.05-.37.26-.4h.5c.04 0 .04-.05.04-.07 0-.03-.02-.04-.04-.04h-.5a.1.1 0 0 1-.04 0 .1.1 0 0 1-.04-.04.13.13 0 0 1-.03-.04v-.06a.97.97 0 0 0 0-.22.87.87 0 0 0-.07-.22.55.55 0 0 1 .08-.61.19.19 0 0 0 .04-.1v-.09c0-.04.03-.07.07-.07h.49c.04 0 .07.02.08.06l.1.2c.02.04.05.06.09.06h.5l.03-.02.03-.03c.09-.16.22-.27.4-.27.05 0 .12.02.18.04.04.01.06.04.07.08.03.19.17.2.18.4.02.2 0 .33-.08.42a.15.15 0 0 0-.03.1v.22c0 .03-.01.05-.03.08a.1.1 0 0 1-.06.04l-.55.1-.01.02v.04c0 .02 0 .03.02.03h.54c.15 0 .23.14.22.31l-.02.53c-.01.17-.09.26-.23.29l-.36.05c-.03 0-.04.02-.03.06ZM9.63 4.44c0-.07.06-.13.13-.13h.28c.05 0 .1.02.15.05.04.03.06.07.06.1v4.38c0 .04-.02.08-.06.11a.25.25 0 0 1-.15.05h-.28c-.07 0-.13-.05-.13-.12V4.44ZM9.23 6.5h-.14c-.05 0-.09.06-.09.14v2.22c0 .08.04.14.09.14h.14c.04 0 .08-.06.08-.14V6.64c0-.08-.04-.14-.08-.14ZM10.78 6.5h-.11c-.06 0-.1.07-.1.15v2.2c0 .08.03.15.09.15h.11c.05 0 .1-.07.1-.15v-2.2c0-.08-.04-.15-.09-.15Z" fill="#fff"/><path d="M7.27 6.5c-.02 0-.03.01-.03.03v.04c0 .01.01.03.03.03h.39c.2.01.33.13.34.34V8.2c-.03.13-.17.2-.32.21h-1.7c-.07 0-.1-.04-.12-.1V6.85c0-.22.07-.29.28-.28.02 0 .03-.01.03-.03 0-.02 0-.07-.04-.07H5.4c-.1 0-.15-.05-.15-.16V6.2c0-.14.06-.21.2-.21h2.33c.11 0 .17.06.17.2v.08c0 .11-.08.2-.18.21l-.5.01Z" fill="#fff"/><path d="M5.9 8.56h1.88c.15 0 .22.08.22.2v.04c-.01.13-.08.2-.2.2H5.46a.2.2 0 0 1-.15-.07.23.23 0 0 1-.06-.15V6.76c0-.13.06-.18.17-.15l.16.03c.1.02.16.1.16.22v1.52c0 .1.08.18.16.18ZM13.69 13.34c0 .17-.14.35-.31.35H9.64a.34.34 0 0 1-.33-.33v-3.7c0-.17.14-.35.31-.35h3.74c.18 0 .33.16.33.33v3.7ZM6.2 12.1V12l-.03-.02H4.45a.14.14 0 0 1-.14-.13V11a.19.19 0 0 1 .18-.2c.13 0 .23 0 .32.03.04.01.06.04.07.09l.1.39c.04.11.11.18.23.18h.94a.04.04 0 0 0 .04-.04v-.05c0-.01-.01-.03-.03-.03l-.9-.03a.1.1 0 0 1-.06-.03.1.1 0 0 1-.03-.05l-.11-.47a.17.17 0 0 0-.17-.13h-.42c-.1 0-.16-.1-.16-.15v-.09c0-.12.09-.18.21-.18h1.15a.03.03 0 0 0 .03-.01.03.03 0 0 0 0-.02v-.13c0-.02 0-.04-.02-.04H4.6c-.16 0-.24-.09-.26-.26v-.37c0-.04.03-.07.07-.08a.65.65 0 0 1 .53.07c.27.17.6.17.98.01.13-.06.3-.06.5 0 .03.01.05.04.06.07l.06.42c0 .03.03.04.05.04h.04v-.02l.07-.47c0-.04.03-.06.06-.07.2-.06.37-.06.51.01.32.16.57.1.94.07.03 0 .07-.01.1-.04.13-.13.32-.15.56-.06a.13.13 0 0 1 .08.12l-.01.32a.22.22 0 0 1-.23.22H7.7c-.01 0-.02 0-.02.02 0 .04 0 .2.06.2h1.03c.08 0 .16.11.16.2v.02c0 .1-.05.15-.15.16-.16 0-.27.02-.33.03-.14.01-.23.05-.27.1a.64.64 0 0 0-.05.42c.01.1-.06.22-.16.22h-.5c-.02 0-.03.01-.03.03v.05c0 .01 0 .02.02.02h.69a.14.14 0 0 0 .12-.1l.08-.44c0-.03.02-.05.03-.06.11-.1.27-.11.47-.05a.1.1 0 0 1 .07.1v.84a.19.19 0 0 1-.19.2h-1.5c-.01 0-.02 0-.02.02v.03l.02.02 1.58.07a.1.1 0 0 1 .1.08c.02.11.02.35 0 .47-.01.04-.03.06-.07.07H7.31c-.04 0-.1.09-.04.11.54 0 1.02.04 1.45.13.22.04.28.19.28.38 0 .08 0 .17-.02.26 0 .04-.02.06-.06.06h-.5a.08.08 0 0 1-.07-.06c-.04-.14-.12-.32-.27-.34a4.48 4.48 0 0 0-.8-.02c-.15 0-.22.1-.2.28 0 .08-.07.14-.14.14h-.55c-.06 0-.09-.03-.1-.09v-.2c0-.05-.03-.08-.07-.08a4.34 4.34 0 0 0-.99.03c-.09.02-.15.05-.18.09l-.07.18a.1.1 0 0 1-.07.07h-.46c-.04-.02-.06-.07-.06-.11a.8.8 0 0 1 .08-.49.14.14 0 0 1 .08-.07c.18-.05.34-.09.49-.1.2-.02.55-.04 1.12-.06.02 0 .03-.01.03-.03v-.05c0-.02-.01-.03-.03-.03H4.52c-.13 0-.2-.06-.2-.2v-.24c-.01-.1.08-.18.19-.19h1.66c.01 0 .02 0 .02-.02Z" fill="#fff"/><path d="M6.76 5.25h-.52a.06.06 0 0 0-.05.06c0 .03.02.06.05.06h.52c.03 0 .05-.03.05-.06a.06.06 0 0 0-.05-.06ZM12.98 5.25H11.9a.08.08 0 0 0-.08.08c0 .05.04.08.08.08h1.1c.04 0 .07-.03.07-.07v-.01a.08.08 0 0 0-.08-.08ZM11.52 6.81h-.01v-.02l-.01-.02c0-.06.02-.11.06-.16.04-.05.09-.08.15-.08l.18-.03h.09a.2.2 0 0 1 .12.1.2.2 0 0 1 .02.09v.01a.04.04 0 0 1 0 .02v.01h-.01l-.59.08ZM13.06 6.81c.17 0 .31-.07.31-.15 0-.09-.13-.16-.3-.16-.18 0-.32.07-.32.16 0 .08.14.15.31.15ZM7.2 6.98c.22 0 .4-.04.4-.08s-.18-.08-.4-.08c-.21 0-.39.04-.39.08s.18.08.4.08ZM7.64 7.75H6.38a.05.05 0 0 0-.06.06v.03c0 .03.03.06.06.06h1.26c.03 0 .05-.03.05-.06v-.03a.05.05 0 0 0-.05-.06ZM13.38 13.02c0 .17-.14.35-.31.36H9.96a.34.34 0 0 1-.33-.33V9.98c0-.17.13-.35.3-.35h3.11c.18 0 .33.15.34.32v3.07ZM7.5 10.56H5.63a.08.08 0 0 0-.08.09c0 .05.04.08.08.08H7.5c.05 0 .09-.03.09-.08a.08.08 0 0 0-.09-.09Z" fill="#BB1D26"/><path d="M12.47 12.6c-.08-.12-.11-.1-.1.03 0 .12 0 .23-.03.3 0 .03 0 .04-.02.05a.08.08 0 0 1-.04.02h-.43c-.03-.01-.05-.04-.05-.07v-.74c0-.01.05-.16.09-.44.02-.17 0-.3-.08-.5-.01-.03-.04-.05-.08-.05h-1.55c-.11 0-.17-.06-.18-.18v-.68c0-.11.04-.2.1-.3a.12.12 0 0 1 .09-.04h1.2c.17 0 .24.07.24.24v.03a.2.2 0 0 1-.09.15.35.35 0 0 1-.2.07l-.46.03c-.03 0-.04.01-.03.04 0 .01 0 .02.02.03l.03.01h.78c.03 0 .07-.03.1-.05a.12.12 0 0 0 .02-.08v-.36c0-.04.02-.07.06-.08.22-.03.37 0 .5.07a.17.17 0 0 0 .2 0c.08-.07.19-.1.33-.07.04 0 .06.02.07.06.02.1.04.2.04.3 0 .05 0 .1-.02.15 0 .04-.03.06-.07.06h-.38c-.02 0-.04.01-.04.04v.04c0 .01 0 .02.02.03h.38c.04 0 .06.03.07.07.02.14.02.25 0 .36l-.03.04a.07.07 0 0 1-.05.02h-.38c-.01 0-.03 0-.04.02a.07.07 0 0 0-.02.05v.03c0 .03 0 .04.03.04h.4c.04 0 .07.01.1.03.02.03.03.06.03.1v.34c0 .05-.02.08-.06.08l-.1.02c-.13.03-.13.06-.01.12.09.04.17.16.17.29 0 .21 0 .37-.03.48 0 .03-.02.06-.04.09a.17.17 0 0 1-.19.04.18.18 0 0 1-.08-.07l-.19-.27Z" fill="#fff"/><path d="M11.5 12.2a.2.2 0 0 1-.05.14.19.19 0 0 1-.14.06H10.2a.19.19 0 0 1-.14-.05.2.2 0 0 1-.06-.14v-.5c0-.06.02-.11.05-.15a.19.19 0 0 1 .14-.06h1.11c.05 0 .1.02.14.05a.2.2 0 0 1 .06.14v.5ZM11.32 12.7h-1.14c-.1 0-.18.06-.18.13v.04c0 .07.08.13.18.13h1.14c.1 0 .18-.06.18-.13v-.04c0-.07-.08-.13-.18-.13Z" fill="#fff"/><path d="M10.72 12.13c.26 0 .47-.08.47-.16 0-.09-.21-.16-.47-.16s-.47.07-.47.16c0 .08.21.15.47.15Z" fill="#BB1D26"/></svg>