<!-- by TradingView --><svg width="18" height="18" viewBox="0 0 18 18" xmlns="http://www.w3.org/2000/svg"><path fill="#F0F3FA" d="M0 0h18v18H0z"/><circle cx="9" cy="9" r="2" fill="#1AA3CB"/><path d="M11.29 3.45A5.98 5.98 0 0 0 3 9a6 6 0 1 0 10.93-3.43l-.36.36a5.5 5.5 0 1 1-2.6-2.07l.32-.4Z" fill="#8A8A8A"/><path d="M5.1 8.1A4.01 4.01 0 0 0 9 13a4 4 0 1 0-1.98-7.48l.37.37a3.5 3.5 0 1 1-1.86 2.64L5.1 8.1Z" fill="#8A8A8A"/><path d="M13.5 4.5a1 1 0 1 1-2 0 1 1 0 0 1 2 0Z" fill="#CE1F46"/><path d="M7 7a1 1 0 1 1-2 0 1 1 0 0 1 2 0Z" fill="#E9BC2B"/></svg>