<!-- by TradingView --><svg width="18" height="18" viewBox="0 0 18 18" xmlns="http://www.w3.org/2000/svg"><path fill="#F0F3FA" d="M0 0h18v18H0z"/><path d="m9.92 6.95-.25-.59a9.28 9.28 0 0 1 2.7-.39c1.6 0 2.63 1.01 2.63 1.7 0 .7-1.13 1.85-2.3 2.56.75-.46 1.77-1.56 1.77-2.26 0-.72-.86-1.34-2.1-1.34-.98 0-2.04.21-2.45.32Z" fill="#F41729"/><path d="m8.67 5.46.27.58c.57-.13 1.96-.4 3.02-.4 1.33 0 2.11.2 2.7.66C14.4 5.4 13.43 5 11.97 5c-1.16 0-2.68.31-3.3.47Z" fill="#F41729"/><path d="m8 4.6.28.62c.58-.13 2.37-.56 3.45-.56 1.36 0 2 .16 2.6.66C14.05 4.34 12.86 4 11.37 4c-1.2 0-2.75.43-3.37.6ZM8.08 11.17l.25.56c-.37.13-1.43.38-2.7.38-1.6 0-2.63-.97-2.63-1.64 0-.66 1.13-1.77 2.3-2.45-.75.44-1.77 1.5-1.77 2.17 0 .7.86 1.28 2.1 1.28.98 0 2.04-.2 2.45-.3Z" fill="#F41729"/><path d="m9.33 12.6-.27-.56c-.57.13-1.96.38-3.02.38-1.33 0-2.11-.19-2.7-.63.27.87 1.24 1.26 2.7 1.26 1.16 0 2.68-.3 3.3-.45Z" fill="#F41729"/><path d="m10 13.42-.28-.6c-.58.14-2.37.55-3.45.55-1.36 0-2-.16-2.6-.63.28.93 1.47 1.26 2.96 1.26 1.2 0 2.75-.41 3.37-.58ZM7.67 7H7v3h.67V8.9a.33.33 0 1 1 .66 0V10H9V8.93A.93.93 0 0 0 8.07 8a.73.73 0 0 0-.4.12V7Z" fill="#F41729"/><path d="M10 10a1 1 0 1 0-1-.95V11h.57V9a.43.43 0 1 1 .29.4V10A1 1 0 0 0 10 10Z" fill="#F41729"/></svg>