<!-- by TradingView --><svg width="18" height="18" viewBox="0 0 18 18" xmlns="http://www.w3.org/2000/svg"><path fill="#F0F3FA" d="M0 0h18v18H0z"/><path d="M9.6 14h-.66a5.3 5.3 0 0 1-2.63-.84 4.9 4.9 0 0 1-2.24-3.4 4.6 4.6 0 0 1 .95-3.74A5.34 5.34 0 0 1 8.4 4.04a2.44 2.44 0 0 1 .65-.02l-.01.01-.46.05a5.14 5.14 0 0 0-2.75 1.51 4.78 4.78 0 0 0-.47 6.1 5.32 5.32 0 0 0 5.61 2.04c-.44.15-.9.24-1.36.27Z" fill="#004B91"/><path d="m7.88 9.55.44 3.7c0 .02 0 .03-.03.02a4.5 4.5 0 0 1-1-8.3c.04-.01.05 0 .05.03l.39 3.26c0 .02.01.03.03.03l1.56-.17c.03 0 .04-.02.04-.05l-.43-3.6c0-.01 0-.02.03-.03A4.52 4.52 0 0 1 14 8.8c0 .03-.01.04-.04.05l-3.23.34c-.02 0-.03.02-.03.04l.46 3.87c0 .01 0 .02-.02.03-.36.14-.73.23-1.1.27-.03 0-.05 0-.05-.04L9.5 9.34c0-.02-.01-.03-.03-.03l-1.55.18c-.04 0-.05.02-.05.06Zm4.85-1.8c.03 0 .04-.01.03-.04a3.28 3.28 0 0 0-2.51-2.2c-.05 0-.07.02-.07.06l.28 2.38c0 .03.03.04.06.04l2.21-.24Z" fill="#004B91"/><path d="M13 12a1 1 0 1 0 0-2 1 1 0 0 0 0 2Z" fill="#E31D1A"/></svg>