<!-- by TradingView --><svg width="18" height="18" viewBox="0 0 18 18" xmlns="http://www.w3.org/2000/svg"><path fill="#F0F3FA" d="M0 0h18v18H0z"/><path d="M9.01 4c.2.06.34.2.4.42.09.67-.13 1.22-.63 1.65-.43.35-.98.7-1.67 1.02a63.6 63.6 0 0 1 1.6-2.93c.03-.04.1-.1.23-.16h.07Z" fill="#00E600"/><path d="m9.42 4.42 1.51 2.71-6.65 1.53L7.11 7.1a7.6 7.6 0 0 0 1.67-1.02c.5-.43.72-.98.64-1.65Z" fill="#06038D"/><path d="m10.93 7.13 2.82 1.55c.23.13.36.34.12.55a.56.56 0 0 1-.25.14l-6.56 1.5-2.88-1.58c-.17-.09-.22-.23-.15-.42.02-.08.1-.14.25-.2l6.65-1.54Z" fill="#00E600"/><path d="M13.62 9.37 11 10.83c-.08.04-.12.08-.13.11-.4.17-.82.4-1.3.72-.43.28-.73.61-.9 1-.09.2-.13.5-.12.9l-1.5-2.7 6.57-1.5Z" fill="#06038D"/><path d="m10.87 10.94-1.5 2.79a.52.52 0 0 1-.28.25c-.12.05-.23.01-.33-.1a.96.96 0 0 1-.2-.32c-.02-.4.02-.7.11-.9.17-.39.47-.72.9-1 .48-.31.9-.55 1.3-.72Z" fill="#00E600"/></svg>