<!-- by TradingView --><svg width="18" height="18" viewBox="0 0 18 18" xmlns="http://www.w3.org/2000/svg"><path fill="#F0F3FA" d="M0 0h18v18H0z"/><path d="M12.64 11.21a.1.1 0 0 0 .1-.1.1.1 0 0 0-.1-.11.1.1 0 0 0-.11.1c0 .07.05.11.1.11Zm-2.25.02a.1.1 0 0 0 .1-.1.1.1 0 0 0-.1-.11.1.1 0 0 0-.1.1c0 .06.04.1.1.1Zm-2.13-.1a.1.1 0 0 1-.1.1.1.1 0 0 1-.1-.1c0-.05.04-.1.1-.1.06 0 .1.05.1.1Zm4.71.2c-.13-.09-.01-.24.1-.17.05.04.11.07.18.1h.13a.53.53 0 0 1 .08 0l.01.01c.08.08.2.16.31.16.23-.01.11.3-.06.13-.07-.06-.14-.11-.24-.1l-.02.01a.34.34 0 0 0-.08.29.08.08 0 0 1-.04.08c-.1.06-.22-.05-.14-.14.1-.1.21-.28.02-.36a.25.25 0 0 0-.19 0l-.06-.01Zm-2.28-.15c-.06.07 0 .2.08.17.1-.03.19-.02.25.04.1.1 0 .22-.07.3-.12.14.1.24.16.1v-.01c-.01-.1 0-.2.07-.28.07-.1.23.02.28.08.08.1.23 0 .15-.12l-.02-.02h-.02a.42.42 0 0 1-.35-.15c-.03-.03-.07-.04-.12-.01h-.02c-.11 0-.2-.06-.29-.11a.08.08 0 0 0-.1.01Zm-2.15.18c-.09.03-.17-.12-.07-.17.05-.03.1 0 .17.04s.15.09.24.05a.08.08 0 0 1 .1.03c.07.09.17.13.3.13.19 0 .09.3-.1.12-.04-.05-.2-.14-.25-.05a.33.33 0 0 0-.06.27.05.05 0 0 1-.02.05c-.07.04-.13.03-.17-.02-.03-.04.01-.1.06-.16.06-.08.13-.17.03-.26-.07-.05-.14-.06-.23-.03Zm4.25-.08c-.2-.01-.11.23-.01.2.11-.04.2-.02.28.06.06.05.18.08.19-.04 0-.1-.07-.1-.15-.1h-.02c-.08.01-.2-.06-.27-.1l-.02-.02Zm-2.25.2c-.13.04-.17-.19-.03-.19.04 0 .08.03.12.06l.03.02c.06.04.13.05.2.05.23-.03.11.29-.05.12-.08-.07-.16-.09-.27-.06Zm-2.3-.17c-.1.05-.03.21.07.18.12-.04.18 0 .23.05.05.03.09.06.14.05.1-.02.08-.18-.03-.17a.32.32 0 0 1-.22-.04l-.01-.01c-.05-.03-.13-.08-.18-.06Zm5.46.67c-.17.03-.18-.22 0-.2l.03.02c.07.06.15.1.24.13H14c.05-.05.11-.15.09-.22a3.33 3.33 0 0 1-.03-.06c0-.11.12-.15.2-.08.09.08.19.12.3.12.2 0 .12.22-.01.19a.25.25 0 0 1-.11-.08c-.05-.04-.1-.1-.2-.07l-.02.01a.46.46 0 0 0-.08.2v.02c.06.14-.1.2-.18.1-.08-.08-.15-.1-.26-.08Zm-.3-.09c-.06.07-.12.14-.04.2.04.04.08.03.12.02h.06c.08 0 .14.05.2.11l.01.02c.17.06.22-.17.07-.17a.4.4 0 0 1-.3-.11.03.03 0 0 1 0-.03.5.5 0 0 1 .1-.2c0-.01 0-.02.02-.02.07.01.14.04.18.1.15.15.28-.08.16-.13h-.09c-.1 0-.2-.06-.27-.12-.09-.07-.2 0-.17.11.02.06.02.11 0 .15a.37.37 0 0 1-.05.07Zm-4.3.08c-.11-.1 0-.25.13-.15.05.04.12.08.19.1a.06.06 0 0 0 .06-.01c.04-.05.07-.1.08-.17v-.02c-.07-.1 0-.2.1-.18l.03.02c.08.07.2.15.32.13.18-.01.12.25-.05.18l-.02-.02a.3.3 0 0 0-.22-.12H9.7a.26.26 0 0 0-.1.22c.02.1 0 .17-.11.15-.03 0-.05-.03-.07-.05l-.02-.02c-.07-.07-.15-.09-.24-.05a.06.06 0 0 1-.06-.01Zm1.97.03c-.01.06.05.13.12.11.12-.03.17.01.22.06.03.03.06.06.11.07.09.01.15-.09.08-.16l-.02-.01h-.06c-.1 0-.2-.05-.27-.11a.02.02 0 0 1 0-.03.45.45 0 0 1 .1-.2c0-.02.01-.02.02-.02.07.01.13.05.2.11.13.14.3-.15.06-.14-.12.01-.2-.06-.3-.13h-.02c-.08-.02-.12.01-.14.08v.03a.2.2 0 0 1-.02.21c0 .02-.02.03-.03.04-.02.02-.05.05-.05.09Zm.66-.09c.05-.04.08-.1.08-.17v-.03c-.07-.1.01-.2.13-.16h.02c.1.1.22.15.36.14h.02c.11.08.03.22-.1.18l-.03-.01c-.06-.07-.15-.15-.25-.13l-.02.01a.34.34 0 0 0-.07.3v.02c-.08.09-.14.04-.21-.02v-.01c-.08-.07-.15-.07-.25-.05-.15.02-.15-.22.03-.2l.02.02c.06.06.13.1.22.12a.06.06 0 0 0 .05 0Zm-2.9.08c-.02.06.04.14.11.11.11-.03.16.01.21.06.03.03.06.06.1.07.1.03.18-.1.09-.16l-.02-.01a.38.38 0 0 1-.31-.1L9 11.93a.39.39 0 0 1 .1-.21h.02c.07 0 .13.02.17.07.17.18.27-.12.13-.12a.43.43 0 0 1-.33-.12l-.02-.01c-.08-.02-.13.01-.14.09v.02c.03.07.03.13 0 .2l-.05.05c-.03.02-.05.05-.06.08Zm.93 0a.1.1 0 0 0 .1-.1.1.1 0 0 0-.1-.11.1.1 0 0 0-.1.1c0 .06.04.1.1.1Zm2.37-.1a.1.1 0 0 1-.1.1.1.1 0 0 1-.12-.1c0-.07.05-.11.11-.11s.1.04.1.1Zm2.18.1a.1.1 0 0 0 .1-.1.1.1 0 0 0-.1-.11.1.1 0 0 0-.11.1c0 .06.05.1.1.1Zm-5.8.4c-.13.15.07.24.14.12v-.02c-.02-.1 0-.2.08-.29h.03c.08 0 .15.04.2.11l.02.01c.16.07.22-.16.05-.16a.37.37 0 0 1-.25-.1c-.12-.1-.24-.03-.19.13.02.06-.03.15-.07.2Zm2.46-.18a.32.32 0 0 0-.08.3v.02c-.07.12-.28.02-.12-.14a.21.21 0 0 0 .05-.22c-.02-.1.02-.17.14-.14h.02c.06.07.13.1.21.13.03.01.05 0 .07 0l.07.01.02.01c.05.06.04.11-.02.16-.05.03-.1-.01-.16-.06-.05-.04-.11-.08-.18-.08l-.02.01Zm2.03.22c-.12.13.08.23.15.1v-.02c-.02-.1 0-.2.08-.29a.03.03 0 0 1 .02 0c.1-.02.16.04.22.1l.02.02.02.01c.13.03.2-.1.1-.17h-.03a.36.36 0 0 1-.3-.1c-.08-.09-.2-.07-.21.04v.03c.06.1 0 .19-.07.28Zm-4.62.2c-.08.11-.25.01-.14-.11.06-.07.11-.14.09-.23-.07-.24.29-.16.14.01-.07.1-.1.2-.08.31v.02Zm2.1-.1c-.12.12.06.23.14.12v-.02c-.02-.13.02-.22.1-.33.12-.19-.2-.2-.17-.04.03.11.01.19-.07.27Zm2.39.14c-.09.1-.25 0-.15-.11.08-.1.12-.15.08-.29-.03-.13.24-.18.2.02h-.01a.4.4 0 0 0-.11.36l-.01.02Zm-3.97-.3a.1.1 0 0 1-.1.1.1.1 0 0 1-.1-.1c0-.05.04-.1.1-.1.05 0 .1.05.1.1Zm2.14.12a.1.1 0 0 0 .1-.1.1.1 0 0 0-.1-.11.1.1 0 0 0-.1.1c0 .06.04.1.1.1Zm2.37-.1a.1.1 0 0 1-.1.11.1.1 0 0 1-.12-.1c0-.06.05-.11.11-.11s.11.05.11.1ZM7.1 7H8v4h-.9V9.5H5.9V11H5V7h.9v1.67h1.2V7Zm2.58.83h1.64V7H9.67c-.6 0-1.17.54-1.17 1.2 0 .66.56 1.22 1.17 1.22h.7c.2 0 .38.15.38.37s-.18.38-.38.38H8.78V11h1.6c.6 0 1.12-.54 1.12-1.2v-.09c0-.6-.48-1.13-1.04-1.13h-.78c-.2 0-.43-.15-.43-.37 0-.23.22-.38.43-.38ZM12 7h3v1h-1v3h-1V8h-1V7Z"/><path d="M4 10.43v1.14L3 11l1-.57Z" fill="#7D3063"/><path d="M3 9.86V11l1-.57-1-.57Z" fill="#134996"/><path d="M4 7.58V6.4l-1 .58 1 .59Z" fill="#1F8CCD"/><path d="M3 8.14V7l1.02.58L3 8.14Z" fill="#14B2E6"/><path d="M4 10.43V7.57l-1 .57v1.72l1 .57Z" fill="#1F8CCD"/><path d="M6.5 6.14 4 7.58V6.42l1.48-.85 1.02.57Z" fill="#5AA148"/><path d="m6.5 6.14-1.02-.57L6.5 5v1.14Z" fill="#1A925C"/><path d="m6.5 6.14 1-.57-1-.57v1.14Z" fill="#266533"/><path d="m7.24 6.61-.74-.47 1-.57.5.3-.76.74Z" fill="#7ABB4E"/><path d="M6.5 11.86 4 10.43v1.14l1.48.84 1.02-.55Z" fill="#D91A5D"/><path d="m6.5 11.86-1.02.55L6.5 13v-1.14Z" fill="#B6255F"/><path d="m6.5 11.86 1 .57-1 .57v-1.14Z" fill="#D91A5D"/><path d="m7.24 11.39-.74.47 1 .57.5-.3-.76-.74Z" fill="#A1223E"/></svg>