<!-- by TradingView --><svg width="18" height="18" viewBox="0 0 18 18" xmlns="http://www.w3.org/2000/svg"><path fill="#F0F3FA" d="M0 0h18v18H0z"/><path d="M4.2 5h1.99l.15.6h-.46l-.13-.3h-.5l.16.7h1.71l.32-.7h.93l.32.7h.62l.31-.7h.92l.34.7h1.71l.16-.7h-.47l-.15.3h-.47l.15-.6h2c-.2.42-.58 1.34-.58 1.78H4.77c0-.37-.27-1.34-.58-1.78Z" fill="url(#a1cspmfdv)"/><path fill-rule="evenodd" d="M4.96 7h8.08c-.07.12-.2.7-.2 1H12v.5h.75v1H12v.5h.85c0 .18.03.85.19 1H10v.22h3.04c.25.55.8 1.63.96 1.78h-1.88l-.46-.74h.3l.32.44h.47l-.31-.7H10v1H8v-1H5.54l-.29.7h.47l.31-.44h.31l-.46.74H4l.03-.04c.32-.56.93-1.6.93-1.74H8V11H4.96c.07-.12.2-.7.2-1H6v-.5h-.75v-1H6V8h-.85c0-.18-.03-.85-.19-1ZM7 8v.5h1.38V8H7Zm2.63 0v.5H11V8H9.62ZM7 10v-.5h1.38v.5H7Zm2.63-.5v.5H11v-.5H9.62Z" fill="url(#b1cspmfdv)"/><defs><linearGradient id="a1cspmfdv" x1="9" y1="5" x2="9" y2="12.82" gradientUnits="userSpaceOnUse"><stop stop-color="#CFB07A"/><stop offset=".19" stop-color="#CEA47E"/></linearGradient><linearGradient id="b1cspmfdv" x1="9" y1="5" x2="9" y2="12.82" gradientUnits="userSpaceOnUse"><stop offset=".19" stop-color="#CEA47E"/><stop offset=".4" stop-color="#C79A79"/><stop offset="1" stop-color="#BA8C6B"/></linearGradient></defs></svg>