<!-- by TradingView --><svg width="18" height="18" viewBox="0 0 18 18" xmlns="http://www.w3.org/2000/svg"><path fill="#F0F3FA" d="M0 0h18v18H0z"/><path d="M7.05 8.14a3.92 3.92 0 0 1 0-3.14l2.44-1.99c-.74 1.45-1 3.85-.27 4.7.73.86 1.02.72 2.47 1.29a1.99 1.99 0 0 1 1.3 2l-1.45 1.57c-.58-1.83-1.88-2.38-2.46-2.43.11-1.83-1.3-2.1-2.03-2Z" fill="#009A4C"/><path d="M10.57 4.5c-.78.23-1.35.94-1.35 1.79 0 1.02.85 1.85 1.89 1.85.8 0 1.48-.49 1.75-1.18L10.57 4.5ZM7.47 11h.01c.92 0 2.82.46 3.05 2.29L8.64 15c.15-.33.35-1.14 0-1.71-.18-.3-.55-.4-1.02-.52-.68-.18-1.55-.42-2.31-1.34A6.15 6.15 0 0 1 4 7.86l1.74-1.72c-.08.78-.09 2.29.35 3.2a1.3 1.3 0 0 1 1.25-.91c.72 0 1.3.57 1.3 1.28A1.3 1.3 0 0 1 7.47 11Z" fill="#009A4C"/></svg>