<!-- by TradingView --><svg width="18" height="18" viewBox="0 0 18 18" xmlns="http://www.w3.org/2000/svg"><path fill="#F0F3FA" d="M0 0h18v18H0z"/><path d="M9.5 6.5c.17-.76-.1-1.36-.77-1.8a3.42 3.42 0 0 0-1.68-.34c1.2-.29 2.15-.56 3.41-.16.24.08.5.21.78.4a2.41 2.41 0 0 1 1.02 1.37 2.03 2.03 0 0 1-.28 1.65 1.72 1.72 0 0 1-1 .72c-.2.05-.41.06-.61.03a1.3 1.3 0 0 1-.59-.26c-.29-.23-.41-.55-.36-.95l.08-.66Z" fill="url(#auwzk3k2r)"/><path d="M9.5 6.5c-.2-.35-.44-.48-.72-.41a.79.79 0 0 0-.36.2 330.78 330.78 0 0 1-2.75 2.67c-.16.16-.29.34-.39.55-.1.2-.16.41-.2.64-.08.6-.03 1.2.17 1.8.03.1.01.11-.05.03-.27-.35-.51-.7-.7-1.06a4.4 4.4 0 0 1-.47-1.66A4.68 4.68 0 0 1 6.62 4.5c.24-.13.52-.18.82-.18.45-.02.88.1 1.29.37.68.44.94 1.04.77 1.8Z" fill="url(#buwzk3k2r)"/><path d="M10.91 13.58a2.16 2.16 0 0 1-1.78-.44c-.54-.4-.75-.92-.64-1.56 0-.03.02-.04.05-.01a.1.1 0 0 1 .03.03c.18.23.39.32.62.28.15-.02.28-.1.4-.21.9-.9 2.35-2.1 3-3.19.21-.35.32-.75.33-1.2 0-.36-.06-.78-.2-1.26-.02-.08 0-.08.05-.02a4.72 4.72 0 0 1 .42 5.87c-.32.46-.74.89-1.25 1.26-.33.24-.67.4-1.03.45Z" fill="url(#cuwzk3k2r)"/><path d="M9.13 13.14c.55.42 1.14.57 1.78.44a4.63 4.63 0 0 1-3.48.14 3 3 0 0 1-.86-.48c-.25-.2-.45-.42-.6-.68a2.06 2.06 0 0 1-.26-.86c-.06-.66.25-1.6.87-1.95.17-.1.35-.17.54-.22a1.24 1.24 0 0 1 .84.1c.13.08.24.17.34.27.1.11.16.24.2.38.07.28.09.55.04.82-.12.61-.08 1.54.59 2.04Z" fill="url(#duwzk3k2r)"/><defs><linearGradient id="auwzk3k2r" x1="7.1" y1="4.39" x2="12.32" y2="4.47" gradientUnits="userSpaceOnUse"><stop offset=".02" stop-color="#E8CE46"/><stop offset=".32" stop-color="#D46F1A"/><stop offset="1" stop-color="#6E3A0D"/></linearGradient><linearGradient id="buwzk3k2r" x1="8.99" y1="5.18" x2="6.07" y2="11.14" gradientUnits="userSpaceOnUse"><stop stop-color="#0C2A54"/><stop offset="1" stop-color="#728EB6"/></linearGradient><linearGradient id="cuwzk3k2r" x1="12.81" y1="7.33" x2="11.3" y2="13.64" gradientUnits="userSpaceOnUse"><stop stop-color="#4B639A"/><stop offset="1" stop-color="#192134"/></linearGradient><linearGradient id="duwzk3k2r" x1="8.53" y1="10.14" x2="6.12" y2="12.25" gradientUnits="userSpaceOnUse"><stop stop-color="#80BC9F"/><stop offset=".59" stop-color="#049955"/><stop offset="1" stop-color="#1B7144"/></linearGradient></defs></svg>