<!-- by TradingView --><svg width="18" height="18" viewBox="0 0 18 18" xmlns="http://www.w3.org/2000/svg"><path fill="#181B1E" d="M0 0h18v18H0z"/><path d="M10 7.73a3.35 3.35 0 0 1-.02-1.04.68.68 0 0 0-.16-.53l-.53-.58c-.24-.25-.28-.54.15-.57.34-.03.66.05.94.25.23.17.4.37.52.6.08.14.14.33.2.56.1.49.2.9.3 1.21a2.4 2.4 0 0 0 .95 1.38 2.37 2.37 0 0 1 .8 2.01l-.04.5a.85.85 0 0 0 0 .38c.06.15.17.23.33.26.45.08.9.1 1.34.07.07-.01.2 0 .22.1a.1.1 0 0 1-.02.07c-.15.24-.69.28-.94.26-.35-.02-.7-.1-1.05-.1-.1 0-.2 0-.32.03l-.4.08a3.42 3.42 0 0 1-1.08.02c-.14.13-.3.25-.49.25-.18 0-.3-.1-.28-.3.03-.14.1-.22.17-.32a.4.4 0 0 0 .06-.14c.03-.12.1-.22.22-.32.12-.09.22-.16.3-.2.1-.06.16-.12.2-.19a.47.47 0 0 0 0-.37c-.19-.55-1.21-1.71-1.47-2.3-.02-.03.1-1.03.1-1.07Zm-.22-2.49a.15.15 0 0 0-.15-.15.15.15 0 0 0-.15.15c0 .08.07.15.15.15.08 0 .15-.07.15-.15Zm-.41.1c-.04-.08 0-.14.03-.2.01-.02 0-.04-.02-.04-.22.07-.16.25-.06.38.1.12.23.26.42.44.13.1.27.28.3.44.04.12.05.21.04.27-.05.48-.03.92.06 1.33.03.16.1.3.19.44a.1.1 0 0 1-.04.13c-.43.23-.45.43.02.26l.15-.02a.06.06 0 0 1 .05.03l.4.86c.19.43.36.85.52 1.27.06.16.09.32.08.48 0 .07.02.07.05.01.21-.38.02-.94-.16-1.32-.2-.42-.44-.82-.71-1.21-.14-.2-.26-.46-.38-.79a1.64 1.64 0 0 1-.08-.41c-.02-.32 0-.55 0-.92.02-.29 0-.61-.2-.85-.1-.13-.3-.3-.58-.5a.28.28 0 0 1-.08-.09Zm3.55 6.91c-.52.22-1.04.26-1.62.25a.4.4 0 0 1-.3-.15c-.07-.07-.14-.09-.2-.05a.67.67 0 0 0-.25.29c-.06.16.02.28.2.23.14-.04.24-.11.4-.21a.15.15 0 0 1 .1-.02c.31.04.66.03 1.03-.03l.52-.11c.16-.03.37-.02.53.01.34.07.68.1 1 .08.17 0 .32-.05.47-.12.03 0 .04-.03.05-.05 0-.02-.01-.04-.03-.04-.4.02-.83 0-1.26-.05a.85.85 0 0 1-.4-.13c-.15-.11-.21-.3-.17-.54.02-.14.05-.39.07-.76.02-.2 0-.38-.06-.57a2.5 2.5 0 0 0-.88-1.3 2.42 2.42 0 0 1-.73-1.03c-.2-.55-.34-1.24-.44-1.7A1.55 1.55 0 0 0 9.9 5.12c-.03 0-.04.05-.01.05.6.22.92.78 1.01 1.4.04.22.04.46.08.67.1.46.27.89.5 1.28a46.2 46.2 0 0 0 .65.75 2.44 2.44 0 0 1 .78 1.76l-.03.35c-.04.27 0 .53.08.78.02.04 0 .08-.04.1Z" fill="#fff"/><circle cx="7.5" cy="9.5" r="3.5" fill="#fff" fill-opacity=".3"/></svg>