<!-- by TradingView --><svg width="18" height="18" viewBox="0 0 18 18" xmlns="http://www.w3.org/2000/svg"><path fill="#F0F3FA" d="M0 0h18v18H0z"/><path d="M9.7 4.34c.54 0 1.05.1 1.52.28-.7-.4-1.5-.62-2.35-.62A4.93 4.93 0 0 0 4 9c0 .58.1 1.14.27 1.66l1.16-.95A4.42 4.42 0 0 1 9.7 4.34Z" fill="#F98D26"/><path d="m6.66 12.03-1.36.37a4.8 4.8 0 0 0 7.38-.3 4.29 4.29 0 0 1-6.02-.07Z" fill="#006EA1"/><path d="M14.96 9.21c.08-.07.03-.21-.06-.21A20.32 20.32 0 0 0 3 13c4.46-2.11 9.68-1.44 10.67-1.29.1-1.11.8-2 1.3-2.5Z" fill="#006EA1"/><path d="M13.9 5A22.01 22.01 0 0 0 7 9a25.2 25.2 0 0 1 6.73-2.66c.02-.27.1-.83.26-1.23.03-.06-.03-.13-.1-.1Z" fill="#F98D26"/><path d="M13.97 7.18c.07-.07.01-.2-.09-.18-4.1.74-7.6 2.96-8.88 4a21.7 21.7 0 0 1 8.1-2.2c-.02-.6.45-1.2.87-1.62Z" fill="#389736"/></svg>