<!-- by TradingView --><svg width="18" height="18" viewBox="0 0 18 18" xmlns="http://www.w3.org/2000/svg"><path fill="#F0F3FA" d="M0 0h18v18H0z"/><path d="M7 8.6v1c0 .22.18.4.4.4h.72v.33c-2.04.13-3.13.76-3.53 1.06A5.07 5.07 0 0 0 9.05 14a4.9 4.9 0 0 0 4.36-2.61c-.4-.3-1.49-.93-3.53-1.06V10h.72a.4.4 0 0 0 .4-.4v-1H7Z" fill="#72C05B"/><path d="M9 4a5 5 0 0 1 4 2c-.4.23-1.47.63-3.32.72V7h.96c.2 0 .36.16.36.36V8H7v-.64c0-.2.16-.36.36-.36h.96v-.28A7.84 7.84 0 0 1 5 5.99C5.94 4.75 7.44 4 9 4Z" fill="#ED4850"/><path d="M4 9c0 .75.17 1.46.46 2.1.34-.19.82-.48 1.15-.79.4-.37.43-1.32.45-2.14 0-.29.01-.56.04-.8.07-.64-.8-.94-1.33-1.03A4.98 4.98 0 0 0 4 9ZM14 9c0 .75-.17 1.46-.46 2.1a6.07 6.07 0 0 1-1.15-.79c-.4-.37-.43-1.32-.45-2.14 0-.29-.01-.56-.04-.8-.07-.64.8-.94 1.33-1.03.49.77.77 1.68.77 2.66Z" fill="#ED4850"/></svg>