<!-- by TradingView --><svg width="18" height="18" viewBox="0 0 18 18" xmlns="http://www.w3.org/2000/svg"><path fill="#F0F3FA" d="M0 0h18v18H0z"/><path d="m5 12 2-8h4l2 8h-2V9.83C11 8.82 10.26 8 9.34 8H9a1 1 0 1 0 0-2 1 1 0 0 0 0 2h-.34C7.74 8 7 8.82 7 9.83V12H5Z" fill="url(#a04zxoyrh)"/><path d="M10 9.5a1 1 0 0 1-.16.54c.38.1.66.37.66.7V13h2.49v1H5v-1h2.5v-2.25c0-.34.28-.62.66-.71A1 1 0 1 1 10 9.5Z" fill="#1F1C24"/><defs><linearGradient id="a04zxoyrh" x1="5.49" y1="8.88" x2="12.86" y2="8.88" gradientUnits="userSpaceOnUse"><stop stop-color="#F11C3A"/><stop offset="1" stop-color="#A8191D"/></linearGradient></defs></svg>