<!-- by TradingView --><svg width="18" height="18" viewBox="0 0 18 18" xmlns="http://www.w3.org/2000/svg"><path fill="#F0F3FA" d="M0 0h18v18H0z"/><path d="M7.84 5.25S6.48 7 7.22 8.53c.53 1.1 1.4 1.8 1.04 2.96-.37 1.15-.87 3.15.36 4.51 0 0-.89-1.9-.17-3.22.87-1.6 1.04-2.45-.52-4.56-.75-1.01-.26-2.74-.09-2.97" fill="#60BB46"/><path d="M9.25 11.87s1.35-1.61.61-3.01c-.53-1-1.43-1.55-1.04-2.72.35-1.06.86-2.9-.37-4.14 0 0 .74 1.75.1 2.95-.81 1.49-.82 2.23.6 4.2.7.95.26 2.5.1 2.72" fill="#9E2D33"/><path d="M10.22 5.56s-.88 1.26-.4 2.35c.33.78.9 1.28.66 2.11-.24.83-.56 2.26.23 3.22 0 0-.57-1.35-.1-2.3.56-1.14.58-1.73-.34-3.26-.44-.74-.16-1.96-.05-2.12" fill="#2F479D"/></svg>