<!-- by TradingView --><svg width="18" height="18" viewBox="0 0 18 18" xmlns="http://www.w3.org/2000/svg"><path fill="#F0F3FA" d="M0 0h18v18H0z"/><path d="M5 5v1.33h2.52c.4 0 .74.41.74.85 0 .43-.35.82-.74.82H5v.2c1.21.2 2.47 2.28 3.62 3.92A4.45 4.45 0 0 0 11.1 14H13c-1.86-.95-2.48-2.35-3.54-3.81a5.08 5.08 0 0 0-2.32-1.84l1.2-.1c.76-.07 1.4-.77 1.4-1.62 0-.9-.7-1.63-1.51-1.63H5Z" fill="#B455A1"/><path d="M10.5 6.67c0 .96-.92 1.5-1.39 1.66 2.15.14 2.55-1.1 2.55-1.87 0-.45-.18-.9-.34-1.19a.52.52 0 0 0-.46-.27h-.08c-.3 0-.55.27-.55.6 0 .15.07.3.14.44.08.15.14.36.14.63Z" fill="#F49AC2"/><path d="M11.04 9c-.96 0-1.53-.25-1.7-.37 1.24 0 1.8-.31 2.14-.72.34-.42.25-1.48.9-1.48.52 0 .63.53.62.8C13 7.98 12.23 9 11.04 9ZM10.33 9.68A1.65 1.65 0 0 1 9.82 9c.45.4.74.43.99.4.25-.03.56-.35.8-.14.2.18.07.4-.02.48-.22.25-.82.34-1.26-.06Z" fill="#F49AC2"/></svg>