<!-- by TradingView --><svg width="18" height="18" viewBox="0 0 18 18" xmlns="http://www.w3.org/2000/svg"><path fill="#F0F3FA" d="M0 0h18v18H0z"/><path d="M9.7 10H7.97l-.02.01-.02.02-.58 2.95v.01H5.77c-.21 0-.36 0-.43-.04-.37-.15-.38-.5-.32-.81l1.32-7.11c0-.02.02-.03.04-.03h1.84c.18 0 .3.03.37.07.15.12.17.29.14.47l-.48 2.44a.02.02 0 0 0 0 .02h1.79l.02-.03.56-2.96h1.77c.17 0 .3.02.39.09.23.17.24.39.18.67l-1.34 7.2A57.53 57.53 0 0 1 9.8 13a.48.48 0 0 1-.3-.13.6.6 0 0 1-.22-.62c.22-1.1.37-1.73.45-2.21 0-.02 0-.04-.03-.04Z" fill="#0B56A7"/></svg>