<!-- by TradingView --><svg width="18" height="18" viewBox="0 0 18 18" xmlns="http://www.w3.org/2000/svg"><path fill="#F0F3FA" d="M0 0h18v18H0z"/><path d="M13.35 7H15l-2.41 1.94 1.4 2.06h-1.16c-.34 0-.66-.16-.85-.43l-.5-.74-1.17.94c-.19.15-.42.23-.66.23H8l2.76-2.22L9.54 7h1.17c.34 0 .66.16.84.43l.32.46.82-.66c.19-.15.42-.23.66-.23Z" fill="#478F46"/><path d="M8.05 7a.9.9 0 0 0-.59.5c-.3.58-.81 1-1.34 1h-.77c.02-.44.35-1.35 1.72-1.5H5.28c-.44 0-.84.27-1 .68L3 11h1a.9.9 0 0 0 .57-.49c.3-.6.78-1.01 1.31-1.01h.77c-.02.44-.31 1.34-1.66 1.5h1.73c.44 0 .84-.27 1-.68L9 7h-.95Zm-.6 0c-.52.12-1.5.5-1.76 1.14 0 .04.08-.02.11-.06.25-.24 1-.8 1.93-1.08h-.27ZM6.35 9.87c-.25.64-1.22 1-1.75 1.13H4.3a5.21 5.21 0 0 0 1.92-1.08c.04-.04.1-.1.1-.05Z" fill="#3B70AC"/></svg>