<!-- by TradingView --><svg width="18" height="18" viewBox="0 0 18 18" xmlns="http://www.w3.org/2000/svg"><path fill="#F0F3FA" d="M0 0h18v18H0z"/><path d="M7.62 5.47c.42 0 .76-.33.76-.73 0-.41-.34-.74-.76-.74a.75.75 0 0 0-.77.74c0 .4.34.73.77.73ZM10.23 6.94a1.2 1.2 0 0 0 1.23-1.18 1.2 1.2 0 0 0-1.23-1.17A1.2 1.2 0 0 0 9 5.76c0 .65.55 1.18 1.23 1.18ZM5.46 6.06c.26 0 .46-.2.46-.44 0-.25-.2-.44-.46-.44-.25 0-.46.2-.46.44s.2.44.46.44ZM11.3 8.7c.43 0 .78-.32.78-.73 0-.4-.35-.73-.77-.73a.75.75 0 0 0-.77.73c0 .4.34.74.77.74Z" fill="#2D86BF"/><path d="M7.92 8.41c.26 0 .46-.2.46-.44s-.2-.44-.46-.44c-.25 0-.46.2-.46.44s.2.44.46.44ZM6.7 10.76c.42 0 .76-.32.76-.73 0-.4-.34-.74-.77-.74a.75.75 0 0 0-.77.74c0 .4.35.73.77.73Z" fill="#79C253"/><path d="M10.38 10.76c.26 0 .47-.2.47-.44s-.21-.44-.47-.44c-.25 0-.46.2-.46.44 0 .25.21.44.46.44Z" fill="#2D86BF"/><path d="M7.77 13.7A1.2 1.2 0 0 0 9 12.54a1.2 1.2 0 0 0-1.23-1.18 1.2 1.2 0 0 0-1.23 1.18c0 .65.55 1.18 1.23 1.18ZM12.54 12.82c.25 0 .46-.2.46-.44s-.2-.44-.46-.44-.46.2-.46.44c0 .25.2.44.46.44ZM10.38 14c.43 0 .77-.33.77-.74 0-.4-.34-.73-.77-.73a.75.75 0 0 0-.76.73c0 .41.34.74.76.74Z" fill="#79C253"/></svg>