<!-- by TradingView --><svg xmlns="http://www.w3.org/2000/svg" width="18" height="18"><path fill="#F0F3FA" d="M0 0h18v18H0z"/><path d="M4.33 8.57c-.31.01-.34.22-.32.32.08.64.59 1.09.83 1.23.92-1.73 3.2-2.07 4.23-2.03 3.26.13 3.78 2.44 3.84 3.07a2.76 2.76 0 01-.23 1.28C13.8 11.6 14.02 9.72 14 8.9A5.09 5.09 0 009.3 4c-1.4-.02-1.58 1.36-1.7 2.03a3.6 3.6 0 01-1.1 1.85c-.95.85-1.79.68-2.18.7z" fill="#22BADE"/><path d="M6.13 10.46a2.28 2.28 0 01-1.28-.37c-.43.55-.02 1.55.24 1.98.52.72 1.94 2.06 3.7 1.92 2.25-.17 2.67-1.68 2.64-3.17-.01-1.2.18-1.74.28-1.87a3.18 3.18 0 00-2.18-.83c-1.35 1.95-2.67 2.32-3.4 2.35z" fill="#095BA4"/><path d="M11.74 6.78c-1.06.03-1.91.9-2.21 1.34 1.05 0 1.88.55 2.18.83.17-.6.65-.84.97-.84.28 0 .87.29.9 1.16.03.7-.47 1.33-.72 1.56.06.27.06.54.06.64.38-.49.95-1.1.98-2.3.03-1.2-.84-2.42-2.16-2.39z" fill="#073A6A"/><path d="M11.45 12.48c-.08-.53.91-1.32 1.42-1.66.05.25.05.53.05.65-.22.18-.73.7-.56.92.14.16.42-.03.56-.15-.3.49-.65.69-.8.72-.2.06-.6.04-.67-.48z" fill="#095BA4"/><path d="M4.85 10.1c-.6-.38-.82-1.01-.85-1.26a5.17 5.17 0 002.36 4.44c-1.7-1.33-1.71-2.67-1.5-3.19z" fill="#073A6A"/></svg>