<!-- by TradingView --><svg width="18" height="18" viewBox="0 0 18 18" xmlns="http://www.w3.org/2000/svg"><path fill="#F0F3FA" d="M0 0h18v18H0z"/><path d="M8.4 5 5.8 9.86c-.03.06-.02.1.03.15l1.03.85c.05.03.1.02.12-.04l.99-1.88a.1.1 0 0 1 .02-.03l.03-.02h.04l.03.02 1.26 1.02c.02.02.03.04.03.07v.08L8.4 11.9c-.03.06-.07.1-.13.1H5v-1.13c.04-.1.04-.15 0-.17V5.2a.53.53 0 0 0 .03-.2H8.4Z" fill="#24B34A"/><path d="M9.98 13h-.35l2.57-4.8a.19.19 0 0 0 .02-.12.17.17 0 0 0-.06-.1l-.98-.8a.06.06 0 0 0-.05-.02.07.07 0 0 0-.04.03l-1.1 1.88-.02.02-.02.01h-.03L9.9 9.1l-1.24-1a.16.16 0 0 1-.03-.06.2.2 0 0 1-.02-.13c0-.02 0-.04.02-.06l1-1.72a.25.25 0 0 1 .09-.09.2.2 0 0 1 .1-.03h3.11c.05 0 .07.03.07.08v6.78c0 .06-.03.1-.08.1L9.98 13Z" fill="#C0D72F"/><path d="M5 10.76v-.17c.04.01.04.07 0 .17Z" fill="#C3C3C4"/></svg>