<!-- by TradingView --><svg width="18" height="18" viewBox="0 0 18 18" xmlns="http://www.w3.org/2000/svg"><path fill="#F0F3FA" d="M0 0h18v18H0z"/><path d="m7.4 3.71-.4-.1c.04-.2.25-.61.72-.61.49 0 .7.38.7.82v1.1c0 .17 0 .33.18.33.22 0 .39-.33.47-.5.2-.36.37-.88.52-1.56H10v1.74C9.96 5.53 9.74 7 9.08 8l-.34-.25c.59-.91.81-2.27.85-2.84v-.27l-.15.32c-.17.33-.44.72-.84.72-.4 0-.6-.36-.6-.76v-1.1c0-.2-.05-.38-.28-.38-.15 0-.28.12-.32.27ZM10.6 14.29l.4.1c-.04.2-.25.61-.72.61-.49 0-.7-.38-.7-.82v-1.1c0-.17 0-.33-.18-.33-.22 0-.39.33-.47.5-.2.36-.37.88-.52 1.56H8v-1.74c.04-.6.26-2.06.92-3.07l.34.25a6.74 6.74 0 0 0-.85 2.84v.27l.15-.32c.17-.33.44-.72.84-.72.4 0 .6.36.6.76v1.1c0 .2.05.38.28.38.15 0 .28-.12.32-.27ZM14.29 7.4l.1-.4c.2.04.61.25.61.72 0 .49-.38.7-.82.7h-1.1c-.17 0-.33.08-.33.25 0 .22.33.32.5.4.36.2.88.37 1.56.52V10h-1.74A7.18 7.18 0 0 1 10 9.08l.25-.34c.91.59 2.27.81 2.84.85h.27l-.32-.15c-.33-.17-.72-.37-.72-.77s.36-.67.76-.67h1.1c.2 0 .38-.05.38-.28 0-.15-.12-.28-.27-.32ZM3.71 10.6l-.1.4c-.2-.04-.61-.25-.61-.72 0-.49.38-.7.82-.7h1.1c.17 0 .33 0 .33-.18 0-.22-.33-.39-.5-.47A6.77 6.77 0 0 0 3.2 8.4V8h1.74c.6.04 2.06.26 3.07.92l-.25.34a6.74 6.74 0 0 0-2.84-.85h-.27l.32.15c.33.17.72.44.72.84 0 .4-.36.6-.76.6h-1.1c-.2 0-.38.05-.38.28 0 .15.12.28.27.32ZM11.61 4.1l-.22-.36c.17-.1.6-.23.94.1.36.36.2.73-.1 1.03l-.77.76c-.11.11-.16.29-.03.41.16.16.5.06.68 0 .4-.1.88-.34 1.46-.7l.3.3-1.2 1.2a6.73 6.73 0 0 1-2.8 1.46l-.07-.42a6.31 6.31 0 0 0 2.58-1.35l.19-.19-.34.12c-.35.1-.82.18-1.1-.11-.3-.3-.25-.74.03-1.03l.76-.75c.13-.14.28-.25.11-.42a.35.35 0 0 0-.42-.04ZM6.39 13.9l.22.36c-.17.1-.6.23-.94-.1-.36-.36-.2-.73.1-1.03l.77-.76c.11-.11.16-.29.03-.41-.16-.16-.5-.06-.68 0-.4.1-.88.34-1.46.7l-.3-.3 1.2-1.2a6.73 6.73 0 0 1 2.8-1.46l.07.42c-1.06.2-2.16.98-2.58 1.35l-.19.19.34-.12c.35-.1.82-.18 1.1.11.3.3.25.74-.03 1.03l-.76.75c-.13.14-.28.25-.11.42.1.1.29.12.42.04ZM4.1 6.39l-.36.22c-.1-.17-.23-.6.1-.94.36-.36.73-.2 1.03.1l.76.77c.11.11.29.16.41.03.16-.16.06-.5 0-.68a6.37 6.37 0 0 0-.7-1.46l.3-.3 1.2 1.2a6.73 6.73 0 0 1 1.46 2.8l-.42.07a6.32 6.32 0 0 0-1.35-2.58l-.19-.19.12.34c.1.35.18.82-.11 1.1-.3.3-.74.25-1.02-.03l-.76-.76c-.14-.13-.25-.28-.42-.11a.35.35 0 0 0-.04.42ZM13.9 11.61l.36-.22c.1.17.23.6-.1.94-.36.36-.73.2-1.03-.1l-.76-.77c-.11-.11-.29-.16-.41-.03-.16.16-.06.5 0 .68.1.4.34.88.69 1.46l-.3.3-1.2-1.2a6.73 6.73 0 0 1-1.45-2.8l.42-.07c.2 1.06.98 2.16 1.35 2.58l.19.19a3.86 3.86 0 0 1-.12-.34c-.1-.35-.18-.82.11-1.1.3-.3.74-.25 1.02.03l.76.76c.14.13.25.28.42.11a.35.35 0 0 0 .04-.42Z" fill="#EA5413"/></svg>