<!-- by TradingView --><svg width="18" height="18" viewBox="0 0 18 18" xmlns="http://www.w3.org/2000/svg"><path fill="#164732" d="M0 0h18v18H0z"/><path d="M7.44 9.56v3.3c0 .04-.02.07-.04.1a.13.13 0 0 1-.1.04H6.14a.13.13 0 0 1-.1-.04.14.14 0 0 1-.03-.1V5.14c0-.03.01-.07.04-.1a.13.13 0 0 1 .1-.03H7.3c.03 0 .07.01.1.04.02.02.03.06.03.1v3.03c0 .03.02.07.04.1.02.02.06.04.1.04h2.82c.03 0 .07-.02.1-.05a.14.14 0 0 0 .03-.1V5.15c0-.04.01-.07.04-.1a.13.13 0 0 1 .1-.04h1.2c.03 0 .07.01.1.04.02.03.03.06.03.1v7.72c0 .04-.01.07-.04.1a.13.13 0 0 1-.1.04H10.7a.13.13 0 0 1-.09-.04.14.14 0 0 1-.04-.1v-3.3a.14.14 0 0 0-.04-.1.13.13 0 0 0-.09-.03H7.57a.13.13 0 0 0-.1.04.14.14 0 0 0-.03.1Z" fill="#EFE3EE"/></svg>