<!-- by TradingView --><svg width="18" height="18" viewBox="0 0 18 18" xmlns="http://www.w3.org/2000/svg"><path fill="#F0F3FA" d="M0 0h18v18H0z"/><path d="M3 12V6h1v6H3Zm5.04 0H5.5V6h2.45c1.14 0 1.8.68 1.8 1.68 0 .64-.42 1.06-.71 1.2.35.16.8.53.8 1.3-.01 1.1-.76 1.82-1.8 1.82Zm-.18-5H6.5v1.4h1.36c.48 0 .75-.25.75-.66 0-.4-.27-.74-.75-.74Zm.07 2.35H6.5V11h1.43c.52 0 .76-.43.76-.81 0-.4-.24-.84-.76-.84ZM13 12c-1.19 0-2-.8-2-2.04V6h1v3.92c0 .67.4 1.06 1 1.06.62 0 1-.4 1-1.06V6h1v3.96c-.01 1.23-.8 2.04-2 2.04Z"/></svg>