<!-- by TradingView --><svg width="18" height="18" viewBox="0 0 18 18" xmlns="http://www.w3.org/2000/svg"><path fill="#F0F3FA" d="M0 0h18v18H0z"/><path d="M5.64 6.26c.59 1.06 1.84 1.23 2.39 1.18A2.85 2.85 0 0 0 6.7 9.92c0 1.76 1.53 3.16 3.39 3.16 1.48 0 2.55-.87 2.9-1.3A5.4 5.4 0 0 1 8.82 14C6.16 14 4 12 4 9.66c0-1.88 1.1-3.05 1.64-3.4Z" fill="url(#a)"/><path d="M7.22 7.38c.32.07.61.08.8.06a2.85 2.85 0 0 0-1.31 2.48C6.7 11.68 8.24 13 10.1 13c.68 0 1.28-.12 1.76-.35a2.8 2.8 0 0 1-1.85.6c-2.07 0-3.87-1.42-3.87-3.35 0-1.3.63-2.14 1.08-2.52Z" fill="url(#b)"/><ellipse cx="8" cy="5.5" rx="2" ry="1.5" fill="url(#c)"/><path d="M14 9.4a2.67 2.67 0 0 1-2.36 1.3C10.2 10.7 9 9.67 9 8.38c0-.51.19-.98.5-1.37C8.6 7.46 8 8.33 8 9.32 8 10.8 9.34 12 11 12c1.63 0 2.95-1.15 3-2.6Z" fill="url(#d)"/><path d="M13.98 9.67c-.33.64-1.26 1.62-3.02 1.62-1.83 0-2.72-1.33-2.72-2.17 0-.41.12-.9.28-1.3.26-.34.58-.62.98-.82-.31.39-.5.86-.5 1.37 0 1.3 1.2 2.34 2.64 2.34 1.04 0 1.93-.53 2.36-1.3l-.02.26Z" fill="url(#e)"/><path d="M9.5 7a2.4 2.4 0 0 0-.77 1.73c0 1.1.88 2.1 2.72 2.1.5 0 .88-.1 1.16-.29-.3.11-.62.17-.97.17C10.2 10.7 9 9.66 9 8.37c0-.5.2-.99.5-1.37Z" fill="url(#f)"/><defs><linearGradient id="a" x1="4.26" y1="8.06" x2="12.58" y2="12.39" gradientUnits="userSpaceOnUse"><stop stop-color="#0099F1"/><stop offset=".31" stop-color="#00B8AC"/><stop offset=".53" stop-color="#0050B8"/></linearGradient><linearGradient id="b" x1="7.06" y1="7.39" x2="12.44" y2="12.28" gradientUnits="userSpaceOnUse"><stop stop-color="#004DB8"/><stop offset="1" stop-color="#009CE7"/></linearGradient><linearGradient id="c" x1="10" y1="5.52" x2="6.03" y2="4.81" gradientUnits="userSpaceOnUse"><stop offset=".24" stop-color="#004FB9"/><stop offset="1" stop-color="#00A8EF"/></linearGradient><linearGradient id="d" x1="14" y1="9.5" x2="8" y2="9.5" gradientUnits="userSpaceOnUse"><stop stop-color="#00A0DF"/><stop offset=".37" stop-color="#00B9AB"/><stop offset=".58" stop-color="#0150B8"/></linearGradient><linearGradient id="e" x1="14" y1="9.15" x2="8.24" y2="9.15" gradientUnits="userSpaceOnUse"><stop stop-color="#019AF0"/><stop offset=".56" stop-color="#00B8AB"/><stop offset="1" stop-color="#004DB8"/></linearGradient><linearGradient id="f" x1="12.34" y1="10.86" x2="9.29" y2="7.38" gradientUnits="userSpaceOnUse"><stop stop-color="#00BEFA"/><stop offset="1" stop-color="#014FB9"/></linearGradient></defs></svg>