<!-- by TradingView --><svg width="18" height="18" viewBox="0 0 18 18" xmlns="http://www.w3.org/2000/svg"><path fill="#F0F3FA" d="M0 0h18v18H0z"/><path d="M15 6v2.47c0 .04-.02.05-.05.06-.3.01-.6.06-.9.13a.54.54 0 0 0-.19.09.08.08 0 0 0-.03.05l.01.08c.03.05.1.1.09.16 0 .07-.04.1-.11.1-.46.02-.89.05-1.28.1-.06 0-.14.02-.24.06-.08.02-.1.06-.07.13.06.12.17.32 0 .38l-.17.04-.9.09-1.7.1c-.14 0-.45.05-.44.23 0 .1.13.18.14.28.01.17-.13.23-.29.23l-.81.04c-.75.03-1.45.09-2.12.16-.4.05-.79.17-1.13.38a.31.31 0 0 1-.16.04 214.13 214.13 0 0 1-1.33 0l-.01-.03V9.04l-.01-.02L3.27 9h-.24C3 9 3 9 3 8.97c.1-.27.15-.55.26-.83a.7.7 0 0 0 .04-.25c0-.55 0-1.34.02-1.89H15Z" fill="#211E55"/><path d="m3.8 6.98.22-.47h.01V6.5h1.05l.01.01-.23.48-.02.01H3.8v-.01ZM5.86 6.97c-.37.16-.57.65-.58 1.04 0 .33.23.73.63.48a.9.9 0 0 0 .3-.33.08.08 0 0 1 .08-.05h.4a.03.03 0 0 1 .02.02.03.03 0 0 1 0 .02c-.1.24-.24.45-.44.62a.95.95 0 0 1-.65.23.78.78 0 0 1-.7-.52c-.25-.61.06-1.52.64-1.86.32-.18.74-.17 1 .1a1.03 1.03 0 0 1 .28.6.04.04 0 0 1-.03.03H6.4l-.02-.03c-.04-.25-.24-.47-.52-.35ZM7.5 7.78a.9.9 0 0 0 .06.58c.1.18.3.26.5.17.16-.08.29-.2.39-.38l.03-.03h.5a.02.02 0 0 1 0 .02c-.18.45-.6.88-1.15.86-.5-.02-.8-.46-.81-.9-.02-.55.17-1 .56-1.35.2-.18.52-.28.8-.24.61.1.81.69.71 1.2l-.01.03H7.53l-.02.02-.01.02ZM10.89 7.32c-.05-.25-.26-.47-.55-.35-.38.16-.6.65-.6 1.04 0 .33.23.73.65.48a.92.92 0 0 0 .32-.33.09.09 0 0 1 .07-.05h.44v.01a.03.03 0 0 1 .01.03c-.1.24-.25.45-.46.62-.17.14-.44.25-.68.23a.82.82 0 0 1-.73-.52c-.26-.61.06-1.52.67-1.86.33-.18.77-.17 1.05.1a1.01 1.01 0 0 1 .28.6.04.04 0 0 1-.02.03H10.9l-.01-.03ZM14 7.75a1.25 1.25 0 1 1-2.5 0 1.25 1.25 0 0 1 2.5 0Z" fill="#F7C147"/><path d="M7.66 7.28c.13-.29.6-.67.87-.29a.54.54 0 0 1 .1.3.03.03 0 0 1-.02.01h-.93c-.02 0-.03 0-.02-.02Z" fill="#211E55"/><path d="M12.75 8.35a.6.6 0 0 0 .62-.6.6.6 0 0 0-.62-.6.6.6 0 0 0-.62.6c0 .33.28.6.62.6Z" fill="#6F2570"/><path d="M3.31 8.98V8.2A.5.5 0 0 1 3.35 8a5.7 5.7 0 0 0 .21-.49l.04-.01h1c.02 0 .03 0 .02.03l-.6 1.45-.04.02h-.64c-.02 0-.03 0-.03-.02Z" fill="#F7C147"/><path d="M15 12H7.66c.35-.24.74-.4 1.16-.47.28-.05.55-.07.81-.08.15 0 .23-.07.26-.18.03-.12-.09-.18-.14-.27-.09-.17.1-.3.26-.3.84-.08 1.54-.14 2.28-.32.13-.03.27-.1.3-.23.05-.15-.07-.23-.08-.35-.02-.1.04-.17.15-.21.15-.06.33-.1.53-.12.18-.02.46-.04.83-.05.07 0 .12-.03.14-.08.07-.13-.24-.28-.02-.43.19-.13.57-.19.81-.21.03 0 .05.01.05.04V12Z" fill="#211E55"/></svg>