<!-- by TradingView --><svg width="18" height="18" viewBox="0 0 18 18" xmlns="http://www.w3.org/2000/svg"><path fill="#0057FF" d="M0 0h18v18H0z"/><path d="M6.06 5h-.92v.93h.92V5Zm2.2.08h-.75v.77h.76v-.77Zm1.58 2.3h.75v.76h-.75v-.76ZM12.9 9.7h-.76v.76h.76V9.7ZM7.4 7.27h.97v.97H7.4v-.97Zm3.3 2.33h-.97v.97h.97V9.6Zm1.34 2.31H13v.97h-.96v-.97ZM10.48 5.2h-.53v.53h.53V5.2Zm1.78 2.3h.52v.52h-.52V7.5Zm.42-2.19h-.3v.3h.3v-.3Zm-7.6 1.92h1.04v1.05H5.08V7.23Zm3.37 2.33H7.4v1.05h1.05V9.56ZM7.33 11.8h1.2V13h-1.2v-1.2ZM6.2 9.48H5v1.2h1.2v-1.2ZM5 11.8h1.2V13H5v-1.2Zm5.74.07H9.69v1.05h1.05v-1.05Z" fill="#fff"/></svg>