<!-- by TradingView --><svg width="18" height="18" viewBox="0 0 18 18" xmlns="http://www.w3.org/2000/svg"><path fill="#F0F3FA" d="M0 0h18v18H0z"/><path d="M16 7.87C16 5.63 13.08 5 11.33 5c-2.46 0-5.15.83-7 2.5 1.76-1.3 4.1-1.91 6.27-1.93 1.48-.02 4.43.37 4.4 2.43-.04 3.14-5.15 4.3-7.67 4.33-2.08.03-3.77-.61-4.33-1.66v.02C3.4 12.16 5.28 13 7.67 13c2.92-.02 8.33-1.57 8.33-5.13Z" fill="#0071B8"/><path d="M7.77 9.21c.6-.04 1.8-.27 1.8-.89 0-.1-.17-.32-.6-.32C8.51 8 7 8.54 7 9.35c0 .31.36.65.87.65a3.9 3.9 0 0 0 1.7-.58l.22.13.21-.6-.73.2.2.16c-.16.11-.66.38-1.25.38-.34 0-.55-.21-.45-.48Zm.03-.15c.12-.29.52-.85.9-.85.12 0 .2.03.2.21 0 .19-.6.57-1.1.64ZM12.23 8.79c-.6.04-1.8.27-1.8.89 0 .1.17.32.6.32.45 0 1.97-.54 1.97-1.35 0-.31-.36-.65-.87-.65a3.9 3.9 0 0 0-1.7.58l-.22-.13-.21.6.73-.2-.2-.16c.16-.11.66-.38 1.25-.38.34 0 .55.21.45.48Zm-.03.15c-.12.29-.52.85-.9.85-.12 0-.2-.03-.2-.21 0-.19.6-.57 1.1-.64Z" fill="#E21470"/><path fill-rule="evenodd" d="m3.33 10 .85-2h1.08c.47-.01 1.4.11 1.4.7 0 .75-.96 1.3-1.92 1.3h-1.4Zm.7-.26.63-1.48h.47c.35-.01.95.08.95.52 0 .55-.7.96-1.42.96h-.64Z" fill="#231661"/><path d="M14.16 7.33H15L13.84 10H13l1.16-2.67ZM3.2 6.79h.99L2.99 10H2l1.2-3.21Z" fill="#1D1917"/><path d="M3.52 6h1l-.3.68h-1l.3-.68Z" fill="#DF2124"/></svg>