<!-- by TradingView --><svg width="18" height="18" viewBox="0 0 18 18" xmlns="http://www.w3.org/2000/svg"><path fill="#F0F3FA" d="M0 0h18v18H0z"/><path fill-rule="evenodd" d="M15 9c0 2.76-2.69 5-6 5s-6-2.24-6-5 2.69-5 6-5 6 2.24 6 5Zm-6 4.67c2.58 0 5-2.1 5-4.67 0-2.58-2.42-4.67-5-4.67S4 6.43 4 9c0 2.58 2.42 4.67 5 4.67Zm0-.17c2.4 0 4.33-1.92 4.33-4.5S11.4 4.5 9 4.5A4.36 4.36 0 0 0 4.67 9c0 2.58 1.94 4.5 4.33 4.5Zm2.33-6.83a.67.67 0 1 1-1.33 0 .67.67 0 0 1 1.33 0Zm-3.66 2L8 8.33V7H6.67l-.34.33v3.34h2.34l.33-.34H6.67v-3h1v1.34ZM7.33 10v-.5l2-1.67 2.67 2.5-.33.34H10v-.34H9v-.66l.33-.34v.34h1v.66h.84L9 8.33l-1.17 1v.5l-.5.17Z" fill="#33359C"/></svg>