<!-- by TradingView --><svg width="18" height="18" viewBox="0 0 18 18" xmlns="http://www.w3.org/2000/svg"><path fill="#F0F3FA" d="M0 0h18v18H0z"/><path fill-rule="evenodd" d="M10.35 6.26c-.03.03-.04.02-.04-.01v-2.2c0-.04-.02-.05-.04-.05H8.05c-.02 0-.03 0-.03.03l.04 2.1c0 .03-.01.04-.03.01L6.47 4.6c-.03-.03-.06-.03-.09 0l-1.52 1.6c-.03.02-.03.05 0 .09l1.36 1.29c.06.05.05.08-.03.08l-2.18.07-.01.03.04 2.29c0 .02.01.03.03.03l2.08-.21c.11-.02.13.02.05.1L4.6 11.54c-.02.02-.02.04 0 .06l1.55 1.62c.02.02.04.02.06 0l1.45-1.52a.05.05 0 0 1 .06-.01c.02 0 .03.02.03.05v2.2c0 .05.03.07.07.06l.23-.03a30.9 30.9 0 0 1 1.95.01c.03 0 .04-.01.04-.04v-2c0-.04.01-.05.05-.02l1.52 1.45c.04.03.07.03.1 0l1.2-1.23c.1-.1.2-.2.33-.3.02 0 .02-.02 0-.04l-1.48-1.48a.04.04 0 0 1 0-.04c0-.02.01-.02.03-.02h2.15c.03 0 .05-.02.05-.06V7.96c0-.03-.01-.04-.04-.04a116.36 116.36 0 0 0-2.08.12c-.03-.01-.03-.03 0-.05l1.5-1.58c.03-.02.03-.05 0-.08L11.9 4.78c-.05-.05-.1-.05-.14 0l-1.41 1.48Zm-.12.28-1 .48a.18.18 0 0 1-.2-.02l-.78-.57a.06.06 0 0 0-.06 0 .06.06 0 0 0-.04.03l-.43 1.08a.08.08 0 0 1-.07.05l-1.08.07c-.01 0-.03 0-.03.02v.05l.58 1c.02.04.02.08 0 .12l-.59.94.01.03a16.7 16.7 0 0 0 1.04.48c.04.03.07.1.08.18l.09.89c0 .03.01.04.04.02l1.1-.52a.08.08 0 0 1 .1.01l.88.65c.02.01.03 0 .04-.01.1-.32.21-.63.34-.95.04-.1.1-.15.2-.17a6.7 6.7 0 0 1 1.05-.17v-.03a5.25 5.25 0 0 1-.57-1.01.1.1 0 0 1 .01-.1 724.51 724.51 0 0 0 .52-.8.7.7 0 0 0 .1-.15c.02-.02.01-.04 0-.05l-.95-.4c-.1-.04-.16-.1-.19-.15a.73.73 0 0 1-.05-.23l-.01-.1-.07-.64c0-.04-.02-.05-.06-.03Z" fill="#DD352D"/></svg>