<!-- by TradingView --><svg width="18" height="18" viewBox="0 0 18 18" xmlns="http://www.w3.org/2000/svg"><path fill="#104094" d="M0 0h18v18H0z"/><path d="M7 11V8.82c.3-.26.52-.35.6-.36V11H7Z" fill="#fff"/><path d="M7 8v.61c.2-.18.5-.48.66-.61H7Z" fill="#E25A32"/><path d="M8 8v3h.67v-1h1.16v-.67H8.67v-.66H10V8H8ZM11.74 9.33V10h.4v.03c-.02.12-.18.3-.62.3-.2 0-.67-.12-.67-.84 0-.4.22-.82.7-.82.36 0 .46.2.54.33h.67c-.14-.7-.66-1-1.24-1-.59 0-1.26.5-1.26 1.49 0 .98.68 1.51 1.26 1.51.46 0 .74-.25.81-.38V11h.45V9.33h-1.04ZM13.31 11V8H14v2.32h1V11h-1.69Z" fill="#fff"/><path opacity=".7" d="M5.23 9.3c0 1.28 1.04 1.92 1.57 2.08l-.09.34a2.6 2.6 0 0 1-.86-.25l-.28.53a2.85 2.85 0 0 1-.7-.56l-.4.38a3.82 3.82 0 0 1-.8-1.41l-.48.15A5.63 5.63 0 0 1 3 9.18C3 7.4 4.51 5 6.8 5a4.03 4.03 0 0 1 3.31 1.63l-.38.34-.3-.34-.35.49-.36-.25-.29.5a2.33 2.33 0 0 0-1.35-.5v.61A1.67 1.67 0 0 0 5.23 9.3Z" fill="#fff"/></svg>