<!-- by TradingView --><svg width="18" height="18" viewBox="0 0 18 18" xmlns="http://www.w3.org/2000/svg"><path fill="#F0F3FA" d="M0 0h18v18H0z"/><path d="M6.02 8H2l4.58-2.66L8.6 6.6 6.02 8Z" fill="url(#aayubssxf)"/><path d="M7.08 13 2 10h4.09l3.46 2.14-2.47.86Z" fill="url(#bayubssxf)"/><path d="M13.96 8.68 7.1 13h4.05l3.98-2.55.25-1.09-1.42-.68Z" fill="url(#cayubssxf)"/><path d="M14.67 9.75c.49.3.42.65.33.78h.01c.41-.28.99-.66.99-1.51 0-.86-.89-1.55-1.33-1.79L11.15 5H7.2l7.48 4.75Z" fill="url(#dayubssxf)"/><defs><linearGradient id="aayubssxf" x1="4.45" y1="7.61" x2="7.42" y2="5.13" gradientUnits="userSpaceOnUse"><stop offset=".24" stop-color="#D11B27"/><stop offset="1" stop-color="#5D0C0B"/></linearGradient><linearGradient id="bayubssxf" x1="3.31" y1="9.95" x2="5.59" y2="13.16" gradientUnits="userSpaceOnUse"><stop stop-color="#056C34"/><stop offset="1" stop-color="#0EA148"/></linearGradient><linearGradient id="cayubssxf" x1="8.98" y1="11.82" x2="12.83" y2="8.12" gradientUnits="userSpaceOnUse"><stop stop-color="#027337"/><stop offset="1" stop-color="#1BAF51"/></linearGradient><linearGradient id="dayubssxf" x1="10.37" y1="6.3" x2="15.63" y2="5.59" gradientUnits="userSpaceOnUse"><stop stop-color="#CE1825"/><stop offset="1" stop-color="#71060C"/></linearGradient></defs></svg>