<!-- by TradingView --><svg xmlns="http://www.w3.org/2000/svg" width="18" height="18"><path fill="#143D8D" d="M0 0h18v18H0z"/><path d="M14 10.17c0-.88-.55-1.63-1.3-1.93.31-.3.48-.68.48-1.16 0-.88-.72-1.59-1.6-1.59-.2 0-.41.04-.58.1a2.05 2.05 0 00-4 0c-.17-.06-.37-.1-.61-.1-.89 0-1.6.71-1.6 1.6 0 .44.2.84.5 1.15C4.56 8.54 4 9.29 4 10.17c0 1.15.96 2.1 2.12 2.1h-.1c.5 0 1.28.04 1.96-.27.14.81.14 1.46-.23 2h2.5c-.34-.54-.37-1.22-.24-2 .65.34 1.43.27 1.9.27h-.1a2.1 2.1 0 002.19-2.1z" fill="#B6B7B9"/><circle cx="9.02" cy="6.33" r=".8" fill="#fff"/><circle cx="11.15" cy="7.92" r=".8" fill="#fff"/><circle cx="9" cy="8.69" r=".8" fill="#fff"/><circle cx="6.85" cy="7.92" r=".8" fill="#fff"/><circle cx="7.65" cy="10.55" r=".8" fill="#fff"/><circle cx="10.35" cy="10.55" r=".8" fill="#fff"/></svg>