<!-- by TradingView --><svg width="18" height="18" viewBox="0 0 18 18" xmlns="http://www.w3.org/2000/svg"><path fill="#0065B3" d="M0 0h18v18H0z"/><path d="M5.69 10.4c.33.25 1.26.4 1.72.33 1.78-.28 4.1-1.4 4.9-3.06.3-.64.11-1.35-.69-1.47-.6-.1-.64-.23-.08-.38 1.26-.36 3.36-.02 3.45 1.5.08 1.22-.63 2.3-1.58 3.13a10.3 10.3 0 0 1-7.44 2.54c-2.05-.1-3.54-1.54-2.76-3.56C4.28 6.68 8.29 4.97 11.19 5h.03l.01.02.01.03v.02l-.08.12a.13.13 0 0 1-.1.06 7.77 7.77 0 0 0-5.1 2.5c-.63.7-1.2 1.95-.27 2.65Z" fill="#F8941D"/></svg>