<!-- by TradingView --><svg width="18" height="18" viewBox="0 0 18 18" xmlns="http://www.w3.org/2000/svg"><path fill="#BE3A32" d="M0 0h18v18H0z"/><path d="M8.42 4.53v-.06c.13-.24.3-.39.54-.47.12-.03.63.2.74.28.16.12.61.6.52.87a.59.59 0 0 1-.18.28c-.28.22-.45.32-.63.58C9 6.59 8.47 7.1 8 7.7c-.33.4-.7.76-1.04 1.15a5.1 5.1 0 0 1-1.04.92c-.44.3-.95.49-1.4.79a.55.55 0 0 1-.35.1c-.08 0-.14-.05-.16-.13-.03-.11 0-.2.06-.26.49-.47 1-.9 1.49-1.37 1.13-1.12 2.36-2.43 2.96-3.92.05-.13-.06-.33-.1-.45ZM10.28 7.91c-.37-.17-.71-.33-.74-.8 0-.03 0-.07.03-.1a.13.13 0 0 1 .08-.05l2.03-.29c.69-.08 1.4.72 1.31 1.46-.04.3-.39.44-.62.52-.28.08-.47-.12-.73-.29-.4-.26-.93-.24-1.36-.45ZM7.5 8.8c.5-.19.98-.65 1.4-.8A.17.17 0 0 1 9 8c.35.11.78.15 1.09.35.24.16.15.48-.06.62-.26.18-.74.18-1.05.28-.37.12-.7.11-1-.02-.2-.09-.21-.32-.47-.38-.06-.01-.06-.03 0-.05ZM8.64 11.07c-.3.17-1.14.7-1.34.25a2.43 2.43 0 0 1-.16-.63c-.03-.22.06-.34.27-.36.13-.01.23.05.33.08h.09c.26-.12.54-.23.82-.33.43-.16 1.57-.12 1.58.54 0 .21-.01.4-.04.58 0 .03-.02.06-.05.07-.67.56-1 1.4-1.6 2.02-.29.29-.76.7-1.2.71-.2 0-.35-.02-.47-.07a.15.15 0 0 1-.1-.11c0-.05.01-.1.05-.14.8-.65 1.67-1.5 1.97-2.5.05-.15 0-.19-.15-.1Z" fill="#fff"/></svg>