<!-- by TradingView --><svg width="18" height="18" viewBox="0 0 18 18" xmlns="http://www.w3.org/2000/svg"><path fill="#F0F3FA" d="M0 0h18v18H0z"/><path d="M11.69 8.13C11.69 5.54 9.99 3 7.42 3A2.91 2.91 0 0 0 4.5 5.95c0 .73.2 1.55.6 2.42l.23-.34-.04-.15c-.04-.2-.1-.41-.1-.61-.09-1.53.82-2.77 2.23-2.77C9.76 4.5 11 6.64 11 9c0 .48-.1 1.04-.19 1.52l.34-.12.18-.07c.2-.64.36-1.33.36-2.2Zm3.81.5c0 2.4-2.1 3.74-4.21 3.74a6.18 6.18 0 0 1-4.66-2.26c0-.06.04-.13.07-.19l.08-.16a5.67 5.67 0 0 0 3.78 1.55c2.05 0 3.44-.85 3.44-2.67 0-1.28-1-2.3-2.04-2.62a3.54 3.54 0 0 0-.14-.28l-.07-.13c1.55 0 3.75 1.14 3.75 3.03ZM8.74 6.26C6.4 6.79 4 9.03 4 11.53 4 13.6 5.43 15 7.14 15a3.5 3.5 0 0 0 3.2-2H9.9c-.53.44-1.37.6-2.02.6-1.48 0-2.44-1.04-2.44-2.35A5.1 5.1 0 0 1 9 6.51c-.08-.1-.17-.18-.26-.26Z" fill="#E32726"/></svg>