<!-- by TradingView --><svg width="18" height="18" viewBox="0 0 18 18" xmlns="http://www.w3.org/2000/svg"><path fill="#F0F3FA" d="M0 0h18v18H0z"/><path d="M7 11.77c.3 0 .48-.06.57-.17.1-.12.13-.3.13-.53l.23-4.22c0-.24-.05-.4-.15-.47-.1-.08-.28-.13-.53-.15V6h1.71l1.52 4.11h.07L12.05 6h1.7v.23c-.25.02-.43.07-.53.16-.1.1-.14.3-.14.65l.24 3.92c.02.23.05.54.14.65.1.1.28.15.54.16V12h-2.38v-.23a1 1 0 0 0 .51-.13c.12-.08.17-.25.17-.52l-.17-4.34h-.06L10.18 12h-.2L8.28 6.88h-.03l-.23 4.02c0 .3.05.51.14.65.1.13.3.21.63.22V12H7v-.23ZM4 11.77c.42 0 1-.1 1-.62v-4.3c0-.53-.58-.6-1-.62V6h3v.23c-.44.01-1 .06-1 .62v4.3c0 .55.56.62 1 .62V12H4v-.23Z" fill="#1E5496"/></svg>