<!-- by TradingView --><svg width="18" height="18" viewBox="0 0 18 18" fill="none" xmlns="http://www.w3.org/2000/svg">
<rect width="18" height="18" fill="#F0F3FA"/>
<path fill-rule="evenodd" clip-rule="evenodd" d="M12.3697 8.23473C12.3609 8.20709 12.3518 8.17869 12.3469 8.149C12.3467 8.14697 12.3472 8.14495 12.3483 8.1433C12.3495 8.14164 12.3512 8.14047 12.3532 8.13998C12.3552 8.13949 12.3573 8.13972 12.3592 8.14062C12.361 8.14153 12.3626 8.14305 12.3635 8.14492C12.6103 8.82253 12.8054 9.51816 13.0005 10.2134C13.0527 10.3998 13.105 10.5862 13.1583 10.7722C13.162 10.785 13.1686 10.7867 13.1782 10.777L13.44 10.5074C13.4482 10.4991 13.4539 10.4886 13.4567 10.4772C13.4595 10.4658 13.4592 10.4538 13.4558 10.4424L12.5268 7.23773C12.5243 7.22956 12.5273 7.2256 12.5356 7.22585C12.583 7.22622 13.6114 9.95744 13.7089 10.2233C13.7121 10.2315 13.7166 10.2325 13.7225 10.2263L13.9745 9.97081C13.9825 9.96259 13.988 9.95223 13.9903 9.94097C13.9927 9.92971 13.9918 9.91803 13.9877 9.90731L12.8203 6.8675C12.8149 6.85389 12.8178 6.84237 12.8291 6.83297L12.8434 6.82108C12.8547 6.81192 12.8649 6.81304 12.874 6.82443C12.9274 6.8935 12.973 6.96764 13.0108 7.04686C13.4245 7.91927 13.8363 8.79304 14.2463 9.66817C14.2531 9.68277 14.2623 9.68451 14.2738 9.67337L14.5247 9.42642C14.5347 9.41652 14.5367 9.40526 14.5306 9.39263C14.3256 8.96732 14.1222 8.54139 13.9204 8.11484C13.9045 8.08118 13.8893 8.04866 13.8746 8.01713C13.7665 7.78498 13.6833 7.60632 13.4978 7.41932C13.352 7.27248 13.2057 7.1259 13.0593 6.97924C12.6319 6.55105 12.2037 6.12218 11.7878 5.68403C11.6799 5.5704 11.5624 5.46742 11.4351 5.37508C11.4331 5.37364 11.4307 5.37282 11.4283 5.37272C11.4258 5.37261 11.4234 5.37321 11.4212 5.37447C11.4191 5.37572 11.4174 5.37756 11.4162 5.37978C11.4151 5.38199 11.4146 5.38448 11.4149 5.38696C11.4514 5.69369 11.5017 5.99769 11.5657 6.29898C11.7422 7.13054 11.9153 7.96284 12.085 8.79588C12.087 8.80529 12.0833 8.81061 12.074 8.81185L12.0637 8.81334C12.0527 8.81482 12.0458 8.81012 12.0431 8.79923C12.0292 8.74178 12.0158 8.68411 12.0024 8.62652C11.9702 8.48791 11.9382 8.34975 11.8989 8.21622C11.7643 7.75625 11.6211 7.299 11.4693 6.84448C11.2817 6.28152 11.181 5.77501 11.1133 5.21354C11.0861 4.98999 11.0055 4.86151 10.8374 4.73228C10.8271 4.72436 8.85287 3 8.85287 3L7.56909 4.30932C7.48155 4.39733 7.47272 4.4534 7.50031 4.57112C7.77077 5.7208 7.84114 6.89127 7.71143 8.08254C7.63198 8.81037 7.42675 9.54525 7.17737 10.2319C7.13554 10.3468 6.9475 10.4228 6.82498 10.4722C6.81176 10.4776 6.7993 10.4826 6.78786 10.4873C6.78469 10.4887 6.7812 10.489 6.77784 10.4883C6.77448 10.4876 6.7714 10.4859 6.769 10.4834C6.76659 10.481 6.76497 10.4778 6.76433 10.4744C6.7637 10.471 6.76408 10.4675 6.76543 10.4643C7.29237 9.24508 7.51784 7.96829 7.44183 6.63393C7.44183 6.63393 7.2835 4.46397 7.17737 4.57112C6.7348 5.01171 6.10286 5.68094 5.41672 6.40758C4.61907 7.25229 3.74817 8.17458 3.01637 8.90543C2.99454 8.92746 2.99454 8.9495 3.01637 8.97153L5.95331 11.9367C5.95597 11.9394 5.95921 11.9415 5.9628 11.9428C5.96639 11.944 5.97022 11.9444 5.97401 11.944C5.9778 11.9435 5.98145 11.9422 5.98468 11.9401C5.98791 11.938 5.99064 11.9352 5.99266 11.9319L6.30309 11.4228C6.30996 11.4111 6.31952 11.4023 6.33178 11.3964L6.76727 11.1836C6.76886 11.1828 6.77068 11.1825 6.77245 11.1828C6.77423 11.183 6.77587 11.1839 6.77714 11.1852C6.77841 11.1864 6.77924 11.1881 6.77952 11.1899C6.77979 11.1917 6.77949 11.1935 6.77867 11.1951C6.61732 11.542 6.43428 11.8768 6.22953 12.1996C6.22775 12.2024 6.22696 12.2056 6.22729 12.209C6.22763 12.2123 6.22906 12.2154 6.23137 12.2178L8.98294 14.994C8.99079 15.0021 8.99875 15.002 9.00685 14.9936C10.2857 13.6816 11.5855 12.3857 12.8832 11.0923C12.9263 11.0489 12.9424 11.0019 12.9313 10.9512C12.7411 10.0711 12.5604 9.18901 12.3892 8.30497C12.3848 8.28191 12.3773 8.2586 12.3697 8.23473ZM14.8105 9.1301L14.9914 8.9578C15.0027 8.94691 15.0028 8.93589 14.9918 8.92475L14.2209 8.1557C14.2052 8.1401 14.2034 8.14159 14.2157 8.16016C14.42 8.47134 14.6077 8.79292 14.7788 9.1249C14.7802 9.12768 14.7822 9.13007 14.7847 9.1319C14.7872 9.13373 14.7901 9.13495 14.7932 9.13545C14.7963 9.13596 14.7994 9.13574 14.8024 9.13481C14.8054 9.13388 14.8082 9.13227 14.8105 9.1301Z" fill="url(#paint0_linear_229_5990)"/>
<path fill-rule="evenodd" clip-rule="evenodd" d="M7.77248 6.73425C8.40364 8.7279 9.63467 12.4602 10.2347 13.7438C10.0193 13.9614 9.80427 14.1794 9.58971 14.3978L7.77261 7.11968C7.77495 6.99096 7.7749 6.86248 7.77248 6.73425ZM7.75662 7.53928C8.07 9.43433 8.66608 13.1185 8.91123 14.9216L8.13123 14.1346C8.0715 12.5413 7.92725 9.84119 7.69847 8.19111C7.70304 8.15485 7.70731 8.1186 7.71126 8.08237C7.73103 7.90086 7.74615 7.71983 7.75662 7.53928ZM7.74564 13.7456C7.86602 12.3357 7.71416 9.96581 7.60473 8.75389C7.54646 9.03802 7.47282 9.32064 7.38867 9.59842C7.36839 10.5197 7.15805 12.0709 7.01199 13.0054L7.74564 13.7456ZM6.90128 12.8937C7.01133 12.1999 7.17581 10.8161 7.27248 9.96032C7.24159 10.0515 7.20978 10.142 7.17721 10.2317C7.16038 10.2779 7.11989 10.3179 7.06953 10.3523L6.7752 11.1836C6.77585 11.184 6.77644 11.1845 6.77697 11.185C6.77824 11.1863 6.77907 11.1879 6.77935 11.1897C6.77962 11.1915 6.77933 11.1934 6.7785 11.195C6.61716 11.5418 6.43411 11.8766 6.22937 12.1994C6.22758 12.2022 6.22679 12.2055 6.22713 12.2088C6.22746 12.2121 6.2289 12.2152 6.23121 12.2176L6.90128 12.8937Z" fill="url(#paint1_linear_229_5990)"/>
<path d="M9.97849 8.35999C9.99022 8.85721 6.7832 10.4756 5.17822 11.2227L5.63992 11.6304C7.17405 11.0089 10.257 9.51129 10.3156 8.49317C10.3742 7.47506 8.61769 7.47978 7.7529 7.60803L7.66157 8.49468C8.42375 8.24311 9.96677 7.86277 9.97849 8.35999Z" fill="url(#paint2_linear_229_5990)"/>
<defs>
<linearGradient id="paint0_linear_229_5990" x1="4.63275" y1="5.74943" x2="9.06849" y2="14.967" gradientUnits="userSpaceOnUse">
<stop stop-color="#E1F5FF"/>
<stop offset="0.457128" stop-color="#45A8E1"/>
<stop offset="1" stop-color="#274A9C"/>
</linearGradient>
<linearGradient id="paint1_linear_229_5990" x1="8.91208" y1="9.98513" x2="6.30787" y2="12.2939" gradientUnits="userSpaceOnUse">
<stop stop-color="#405FAC"/>
<stop offset="1" stop-color="#21337F"/>
</linearGradient>
<linearGradient id="paint2_linear_229_5990" x1="7.95578" y1="8.67074" x2="9.93715" y2="9.20862" gradientUnits="userSpaceOnUse">
<stop stop-color="#4EB9ED"/>
<stop offset="1" stop-color="#4474B2"/>
</linearGradient>
</defs>
</svg>
