<!-- by TradingView --><svg width="18" height="18" viewBox="0 0 18 18" fill="none" xmlns="http://www.w3.org/2000/svg">
<rect width="18" height="18" fill="#F0F3FA"/>
<path fill-rule="evenodd" clip-rule="evenodd" d="M10.7167 11.3746C10.6708 11.7223 10.5792 11.7774 10.35 11.4721C10.65 11.5102 10.6333 11.417 10.7167 11.3746ZM12.1833 7.40989C12.65 7.25724 12.7375 7.28693 12.5708 7.73216C12.3583 8.27067 11.4292 8.87279 10.9542 8.58021C11.6833 8.47845 12.3083 8.22827 12.6 7.5159C12.1958 7.60919 12.025 7.59647 11.6542 7.84664C11.3958 8.02049 11.2458 8.07562 11.1125 8.30035C11.3042 7.68975 11.6042 7.60071 12.1833 7.40989ZM13 7.11731C12.5542 7.08339 10.9833 7.57102 10.7917 8.01201C10.5333 7.49894 10.8292 6.82474 11.1417 6.52368C11.5583 6.12085 11.7958 6.03604 12.325 5.79011C12.4125 5.26007 12.2875 5.25583 12.1292 4.77244C11.975 4.30601 12.1125 4.01343 12.0917 3.9159C12.0833 3.8311 12.0833 3.76749 11.9708 3.67845C11.6458 4.58163 11.7917 4.31873 11.8375 5.30671C11.8417 5.35336 11.7375 5.37032 11.7083 5.4C11.6708 5.43392 11.6417 5.50177 11.6083 5.52721C11.5417 5.57809 11.4333 5.55265 11.375 5.58657C11.2875 5.63322 11.2958 5.68834 11.225 5.73498C11.1542 5.78163 11.0708 5.75618 10.9833 5.81131C10.925 5.84523 10.8958 5.9894 10.8292 6.03604C10.7875 6.08693 10.7 6.05724 10.6292 6.13357C10.5792 6.18869 10.5792 6.27774 10.5292 6.3371C10.4875 6.38799 10.3667 6.45159 10.3292 6.50671C10.2875 6.57032 10.3042 6.71449 10.2833 6.78657C10.2458 6.85018 10.1292 6.89682 10.1 6.95194C10.0583 7.03251 10.0917 7.28269 10.0667 7.35477C9.95418 7.66855 9.91668 7.5159 9.74584 7.77032C9.69168 7.70671 9.64168 7.64311 9.59168 7.57102C9.52918 7.48622 9.54584 7.32933 9.49584 7.24876C9.44584 7.1682 9.32918 7.15972 9.29168 7.08763C9.25001 7.01555 9.27918 6.90954 9.24584 6.8417C9.20834 6.77385 9.11668 6.76113 9.07501 6.68905C9.03751 6.61696 9.03334 6.48127 8.98751 6.40071C8.94168 6.32014 8.80834 6.32014 8.75418 6.23958C8.69584 6.15477 8.70834 6.00212 8.64584 5.9258C8.58334 5.84947 8.45418 5.84947 8.38751 5.79011C8.32501 5.7265 8.31668 5.59081 8.25001 5.53569C8.18334 5.48057 8.06668 5.52297 7.97501 5.4636C7.88334 5.40424 7.80418 5.26007 7.67084 5.20071C7.58334 5.16254 7.42918 5.19647 7.32918 5.16254C7.23751 5.13286 7.18751 5.01837 7.08751 4.99717C6.97084 4.97173 6.82501 4.98445 6.68751 4.96749C6.58334 4.07279 7.01251 4.5689 6.30001 3.11025L6.15834 3C6.21251 3.45795 6.32918 3.69117 6.25001 4.23816C6.19168 4.65795 5.93334 4.90389 6.06251 5.31095C6.31251 5.75194 8.59168 6.00212 8.69584 8.07562C8.53751 7.88057 8.31668 7.62615 8.02084 7.54982L8.71251 8.22403C9.53334 8.02049 9.75834 7.97809 10.6667 8.07986C10.5583 8.39788 10.4333 8.74982 10.3583 9.12721C10.25 9.68693 10.3208 10.1237 10.2375 10.4841C10.1208 10.0728 9.83751 8.19435 9.50001 8.17739C9.29584 8.16466 9.21251 8.7795 9.19168 9.16537L8.65418 8.86855C8.65418 8.89823 8.76668 9 8.75834 9.26714C8.90001 9.42827 8.97084 9.43251 9.16668 9.48339C9.00418 10.4671 9.63751 10.0728 9.84168 11.506C9.99168 11.5951 10.0708 11.4721 10.1583 11.5272C10.0792 11.6163 10.1417 11.629 9.99584 11.6587C9.88751 11.6841 9.85418 11.6587 9.73751 11.6332C9.63751 11.1625 9.80834 11.1329 9.50001 10.73C9.22918 10.3781 9.25001 10.2848 8.88751 10.0813C8.45418 10.4926 7.18751 12.2141 7.58751 13.1936C7.76251 13.6177 7.84168 13.8594 8.01251 14.3597L9.93751 15C10.1083 13.1385 8.52501 12.706 9.28751 11.2389L9.43751 11.93C9.83334 12.0572 10.0875 12.1887 10.5083 12.0233C11.2292 11.7392 10.5 11.4382 10.7833 10.1322C10.9542 9.3477 10.9 9.82685 10.7292 9.653C10.5292 10.6622 10.6417 10.9336 10.4625 11.171C10.3083 10.9124 10.3958 9.56396 10.9042 9.41555L10.9292 8.84735C12.3 8.59293 12.8333 7.99081 13 7.11731ZM10.1167 11.2177C9.87501 11.1413 9.98751 11.3364 9.87501 10.8912C9.65001 10.0219 9.76251 10.3654 9.37918 9.53004C9.82918 9.79293 10.3375 10.8657 10.1167 11.2177Z" fill="#292978"/>
<path fill-rule="evenodd" clip-rule="evenodd" d="M10.0875 14.9619C10.175 14.8389 10.1708 14.9492 10.2458 14.6439L10.2667 13.588C10.1958 12.9477 10.1 12.9774 10.2042 12.2778L9.54999 12.2227C9.61665 13.4905 10.15 12.8417 10.0875 14.9619Z" fill="#292978"/>
<path fill-rule="evenodd" clip-rule="evenodd" d="M8.4875 8.75406C8.20833 7.81696 7.8125 7.57526 6.76666 7.51166C6.91666 7.85512 7.17083 7.94841 7.325 8.05865C7.7375 8.40636 7.87916 8.5166 8.02916 8.57173C8.15 8.62261 8.22916 8.453 8.4875 8.75406Z" fill="#292978"/>
<path fill-rule="evenodd" clip-rule="evenodd" d="M8.2625 7.74065C8.09583 7.52863 7.75833 7.32086 7.44167 7.29966L6.36667 7.23181C6.9625 9.20778 7.12083 8.72439 8.35417 9.04665C8.24583 10.0262 7.7 10.7682 7.225 11.2516L6 12.2311C6 12.6721 6 12.3922 6 13.2869C6.50417 12.8968 7.225 11.9979 7.6125 11.4679C8.13333 10.7597 8.625 10.0262 8.5375 8.84312C7.55 8.95337 6.15833 7.33358 6.8 7.41414L7.6125 7.51167L8.2625 7.74065Z" fill="#292978"/>
</svg>
