<!-- by TradingView --><svg width="18" height="18" viewBox="0 0 18 18" xmlns="http://www.w3.org/2000/svg"><path fill="#2C8BB7" d="M0 0h18v18H0z"/><circle cx="9" cy="9" r="4.38" fill="#4BC1DD" fill-opacity=".5"/><path fill-rule="evenodd" d="M9 13.38a4.38 4.38 0 1 0 0-8.76 4.38 4.38 0 0 0 0 8.75ZM9 14A5 5 0 1 0 9 4a5 5 0 0 0 0 10Z" fill="url(#aln3uzewh)"/><path d="M8.5 7a.5.5 0 1 0 0-1 .5.5 0 0 0 0 1Zm-.5.5h3v1H9V9h2v1H9v2H8V7.5Z" fill="url(#bln3uzewh)"/><defs><linearGradient id="aln3uzewh" x1="13.06" y1="6.81" x2="4.16" y2="10.88" gradientUnits="userSpaceOnUse"><stop stop-color="#7A8386"/><stop offset="1" stop-color="#F3EFEC"/></linearGradient><linearGradient id="bln3uzewh" x1="8.33" y1="6.75" x2="9.29" y2="12.04" gradientUnits="userSpaceOnUse"><stop stop-color="#E9F7F9"/><stop offset=".55" stop-color="#AFAEB3"/><stop offset="1" stop-color="#BBC4C9"/></linearGradient></defs></svg>