<!-- by TradingView --><svg width="18" height="18" viewBox="0 0 18 18" xmlns="http://www.w3.org/2000/svg"><path fill="#F0F3FA" d="M0 0h18v18H0z"/><path d="M9 3c.15 0 .28 0 .4.02.08.01.12.06.13.13.25 2.8 2.46 4.9 5.18 4.6.05-.01.09.02.1.07l.19.84a.13.13 0 0 1-.06.14 5.74 5.74 0 0 1-5.89-3.3h-.1l-.02.02a5.74 5.74 0 0 1-5.87 3.29.13.13 0 0 1-.06-.09v-.05l.19-.85c.01-.05.05-.08.1-.07 2.72.3 4.93-1.8 5.18-4.6 0-.07.05-.12.12-.13L9 3ZM5.89 5.42c-.48.44-.89.99-1.2 1.64-.05.1-.12.14-.21.14h-.81a.1.1 0 0 1-.08-.04.1.1 0 0 1-.02-.1 5.89 5.89 0 0 1 4.2-3.8.1.1 0 0 1 .09.03.1.1 0 0 1 .03.08l-.11.84a.23.23 0 0 1-.16.2A5.1 5.1 0 0 0 5.9 5.41Zm8.53 1.64a5.89 5.89 0 0 0-4.2-3.8.1.1 0 0 0-.08.02.1.1 0 0 0-.03.09l.1.83c.02.1.07.17.16.2a5.14 5.14 0 0 1 2.95 2.66c.04.1.1.14.2.14h.81a.1.1 0 0 0 .08-.04.1.1 0 0 0 .01-.1ZM9.43 8c.07.01.12.07.12.14.26 2.57 2.16 3.96 4.64 4.04h.02a.03.03 0 0 1 .01.03v.01l-.7.95a.1.1 0 0 1-.04.03.1.1 0 0 1-.05 0c-1.97-.33-3.42-1-4.35-2.82-.02-.04-.05-.06-.08-.06s-.06.02-.08.06C8 12.2 6.54 12.87 4.57 13.2a.1.1 0 0 1-.05 0 .1.1 0 0 1-.05-.04l-.68-.94a.03.03 0 0 1 0-.05h.02c2.48-.08 4.38-1.47 4.63-4.04.01-.07.05-.13.13-.14h.86Zm-4.68 3.49c.08-.02.1-.07.07-.15a4.53 4.53 0 0 1-.52-1.87c0-.05-.01-.07-.06-.07H3.3c-.03 0-.05.02-.05.05.03.64.2 1.34.5 2.1a.2.2 0 0 0 .1.1c.03.03.08.03.12.02l.79-.18Zm8.43-.15c.38-.9.55-1.52.5-1.87 0-.04.02-.07.07-.07h.95c.03 0 .05.02.05.05a6.24 6.24 0 0 1-.49 2.1.2.2 0 0 1-.09.1.19.19 0 0 1-.13.03l-.78-.19c-.09-.01-.11-.07-.08-.15Zm-1.7 1.89c-.77.48-1.6.73-2.48.75a4.82 4.82 0 0 1-2.49-.75.12.12 0 0 0-.1-.01l-1.1.4H5.3l-.01.02a.03.03 0 0 0 0 .03 5.8 5.8 0 0 0 7.42-.03.03.03 0 0 0-.02-.03l-1.1-.4a.12.12 0 0 0-.1.02Z" fill="#0071BB"/></svg>