<!-- by TradingView --><svg width="18" height="18" viewBox="0 0 18 18" xmlns="http://www.w3.org/2000/svg"><path fill="#F0F3FA" d="M0 0h18v18H0z"/><path d="M8.71 4.14A14.74 14.74 0 0 0 3.3 7.11c-.48.41-.4.4.33-.05 2.43-1.53 5.19-2.35 7.01-2.09 1.5.22 2.1.72 1.86 1.55-.12.44-.41.67-.93.76-.58.1-.96-.17-.97-.67 0-.3.16-.5.4-.5.23 0 .3.23.17.5-.08.17-.08.2.04.14.2-.07.3-.52.18-.73-.22-.37-1-.25-1.21.19-.23.46-.18.86.14 1.26.37.45.82.6 1.56.54C13.06 7.9 14 7.03 14 6.04c0-.84-.9-1.59-2.29-1.9a7.97 7.97 0 0 0-3 0ZM7.44 6.36c-1.27.25-2.68 1-3.68 1.92-.52.49-.37.45.43-.1 1.2-.84 2.78-1.46 3.7-1.46h.37l-.06.83c-.04.46-.12 1.86-.18 3.11L7.92 13h.96c.06-.07-.15-6.23-.23-6.56-.06-.27-.21-.28-1.2-.08Zm2.12 1.75c0 .15-.06 1.1-.14 2.1-.07 1-.14 2.03-.14 2.3V13h.83l-.02-.5-.2-2.57c-.1-1.16-.2-2.1-.25-2.1-.04 0-.08.12-.08.28Zm1.2.7-.16 2a35.7 35.7 0 0 1-.14 1.85l-.03.34h.46c.44 0 .47-.03.43-.24-.03-.12-.12-1.11-.2-2.2-.17-2.1-.26-2.56-.36-1.76ZM7.53 13.6v.4h4.21v-.69H7.53v.29Z" fill="#004B8D"/></svg>