<!-- by TradingView --><svg width="18" height="18" viewBox="0 0 18 18" xmlns="http://www.w3.org/2000/svg"><path fill="#F0F3FA" d="M0 0h18v18H0z"/><path d="M11.02 11c.78 0 1.65.8 1.98 1.2-.96.31-1.98 1.8-4.27 1.8C6.44 14 5 12.73 5 12.45c.98-.08 2.13.57 3.6.57 1.08 0 1.32-.45 1.32-.77a.51.51 0 0 0-.06-.27c-.22.31-.82.55-1.13.55-.3 0-.5-.02-.82-.47 1 .23 2.13-1.06 3.11-1.06Z" fill="#D54D49"/><path fill-rule="evenodd" d="M5 6.47 9 4l2 1.24V4h1.67v2.27l.33.2v4.02c-.32-.2-.87-.44-1.62-.44-.6 0-1.3.35-2.04.72-.79.4-1.61.8-2.4.8-.85 0-1.53-.35-1.94-.67V6.47ZM7 6h1.67v1H7V6Zm4 0H9.33v1H11V6ZM7 8h1.67v1H7V8Zm4 0H9.33v1H11V8Z" fill="#29689B"/></svg>