<!-- by TradingView --><svg width="18" height="18" viewBox="0 0 18 18" xmlns="http://www.w3.org/2000/svg"><path fill="#F0F3FA" d="M0 0h18v18H0z"/><path d="M8.8 4.02 8.33 5.2a.08.08 0 0 1-.06.05c-.72.12-1.39.38-2 .77-.05.03-.06.02-.05-.03a21.02 21.02 0 0 1 .57-1.41.2.2 0 0 1 .09-.07A5.51 5.51 0 0 1 8.8 4v.02Z" fill="#009ED6"/><path d="M10.14 5a103.38 103.38 0 0 0 .4-.82h.05c.5.14.96.34 1.38.6.03.02.04.04.03.07l-.32.82c0 .02-.01.02-.03.03h-.03c-.5-.24-1-.4-1.51-.47-.02 0-.03-.02-.03-.04a.9.9 0 0 1 .06-.18Z" fill="#61A83C"/><path d="M5.43 5.7a10.76 10.76 0 0 0-.69 5.86c.01.08 0 .09-.05.01a4.96 4.96 0 0 1 .84-6.09l-.1.23Z" fill="#009ED6"/><path d="M12.32 13.04c-.35.25-.68.45-1 .58-.43.18-.8.26-1.15.24-.85-.06-1.35-.51-1.5-1.37a3.6 3.6 0 0 1-.02-.88A24.29 24.29 0 0 1 9.9 5.65h.04a5.3 5.3 0 0 1 1.53.46c.03.01.04.03.03.06-.5 1.46-.86 2.97-1.08 4.54a5.62 5.62 0 0 0-.04 1.3c.03.23.08.43.15.6.16.37.41.57.77.61a1.89 1.89 0 0 0 1.01-.2v.02Z" fill="#61A83C"/><path d="M5.41 9.67a13.8 13.8 0 0 1 .6-2.93c.59-.5 1.28-.83 2.08-1.02.04-.01.05 0 .04.04-.5 1.4-.86 2.85-1.1 4.33a6.6 6.6 0 0 0-.1 1.24 3.6 3.6 0 0 0 1.31 2.64c.03.02.03.04-.02.03a5.42 5.42 0 0 1-2.13-.9.5.5 0 0 1-.13-.14 3.58 3.58 0 0 1-.6-2.05c.01-.54.03-.96.05-1.24ZM11.88 10.33c.13-.68.33-1.4.6-2.16a24.11 24.11 0 0 1 .87-2.11h.02A5.74 5.74 0 0 1 14 7.23c0 .06 0 .12-.03.18a18.1 18.1 0 0 0-1.1 3.76c-.03.22.03.36.19.44.07.04.15.06.24.06.1 0 .18 0 .28-.02h.02v.03a1 1 0 0 1-.28.29c-.26.18-.5.29-.71.33-.3.05-.52-.03-.66-.25a1.1 1.1 0 0 1-.16-.46 2.17 2.17 0 0 1-.01-.5 8 8 0 0 1 .1-.75Z" fill="#009ED6"/></svg>