<!-- by TradingView --><svg width="18" height="18" viewBox="0 0 18 18" xmlns="http://www.w3.org/2000/svg"><path fill="#181B1E" d="M0 0h18v18H0z"/><path d="M9.59 5c2.41 0 3.36.08 3.7.96.57 1.45-1.42 5.54-5.97 6.96l-.63.08c-.09-.02-.19 0-.28 0h-.9c-.22 0-.37-.09-.45-.25A1.2 1.2 0 0 1 5 12.3V5.53c0-.22.07-.36.22-.45A.92.92 0 0 1 5.66 5h3.93Z" fill="#F61C2E"/><path d="M13.49 5.71c.21.34.28.69.2 1.04-.19.82-1.06 1.57-1.73 2.06a6.38 6.38 0 0 1-1.76.91.03.03 0 0 0 .02.03l.26.16.23.18.13.19c.27.35.35.78.26 1.2-.13.56-.65 1.02-1.15 1.35-.56.37-1.14.64-1.73.83a2.7 2.7 0 0 1-1.51-.05c-.2-.1-.36-.23-.47-.4-.05-.08-.02-.16.07-.24.1-.01.19 0 .28.01.22.12.42.18.6.17l.43-.03c.18-.02.32-.09.5-.14a4.98 4.98 0 0 0 2.15-1.41c.19-.24.29-.5.3-.8.01-.19-.07-.33-.23-.46-.42-.22-.9-.3-1.42-.25-.17-.02-.31-.12-.44-.3-.07-.08-.09-.15-.06-.23.01-.03.03-.04.05-.04l.15-.03a6.75 6.75 0 0 0 4.04-2.28c.27-.32.44-.63.5-.96.03-.14-.03-.3-.18-.45a3.32 3.32 0 0 0-1.99-.05c-.94.24-1.8.54-2.6.9-.76.34-1.46.78-2.12 1.32-.35.29-.56.64-.64 1.05 0 .02-.02.04-.04.05l-.06.01a.67.67 0 0 1-.39-.23c-.1-.12-.1-.25-.05-.39.26-.8.94-1.28 1.65-1.71.55-.33 1.07-.6 1.54-.8.36-.16.88-.33 1.31-.52.7-.2 1.45-.39 2.18-.4.32 0 .62.03.92.14.33.12.6.3.8.57Z" fill="#FEFFFF"/><path d="m12.98 5.77-.69.06c-.3.01-.53.03-.68.06-.57.1-1.13.24-1.67.45l-1.16.44c-.2.08-.3.19-.5.24a528.34 528.34 0 0 0-.9.49c-.15.08-.28.18-.39.3-.08 0-.13.02-.16.07-.05.1-.1.15-.12.17-.43.25-.7.62-.8 1.12-.02.05-.05.08-.11.08-.16-.01-.25-.08-.27-.2l.06-.01c.02-.01.04-.02.04-.05.08-.41.3-.76.64-1.05a9.42 9.42 0 0 1 2.11-1.32c.8-.36 1.67-.66 2.61-.9a3.32 3.32 0 0 1 1.99.05ZM13.25 8.19c-.01-.01-.94 1.31-2.77 1.72l-.26-.15-.02-.02v-.02a.03.03 0 0 1 .02-.03c.63-.2 1.2-.5 1.74-.88.67-.49 1.54-1.24 1.73-2.06.08-.35.01-.7-.2-1.04.27.1.44.32.49.68.07.47-.04.9-.34 1.3-.15.21-.29.38-.4.5Z" fill="#A0262D"/><path d="M9.1 7.3c.1.14.13.24.03.4a9.95 9.95 0 0 0-1.54 5.13c0 .12-.1.15-.27.09a.91.91 0 0 1-.24-.25c-.11-.17-.08-.37-.05-.57v-.02L7 12.07a.04.04 0 0 0-.04 0c-.3.16-.58.15-.84-.03-.35-.24-.4-.62-.33-1.04.05-.32.14-.64.26-.96a.14.14 0 0 1 .14-.1c.2.02.45.13.5.34a10.85 10.85 0 0 0-.24 1.27.03.03 0 0 0 .05 0l.39-.25c.14-.08.21-.15.22-.23.24-1.4.74-2.7 1.5-3.89.14-.22.36 0 .48.12Z" fill="#FEFFFF"/><path d="m8.62 9.46-.15.03a.06.06 0 0 0-.05.04c-.03.08-.01.15.06.22l-.2.6a9.94 9.94 0 0 0-.4 2.57c0 .01.01.02.03.02l.2.04c-.17.05-.31.12-.5.14l-.41.03c-.19 0-.4-.05-.61-.17l.73-.06c.18.06.27.03.27-.09.06-1.9.57-3.6 1.54-5.13.1-.16.08-.26-.03-.4.12.05.23.15.32.3.05.09.06.17.02.25-.21.37-.42.73-.6 1.1-.09.15-.13.35-.22.51Z" fill="#A0262D"/><path d="M7 7.82c.15.06.28.17.38.32.03.04.03.08.02.1a8.72 8.72 0 0 0-.55 1.53l-.03.01h-.1c-.17-.08-.48-.27-.41-.5.1-.38.24-.79.4-1.23.03-.02.07-.08.12-.17.03-.05.08-.07.16-.06Z" fill="#FEFFFF"/><path d="m6.72 9.79.1-.01.03-.01.02-.03c.13-.51.3-1.01.53-1.5.01-.02 0-.06-.02-.1.01-.04.03-.06.05-.04.2.15.25.33.15.53l-.1.22c-.1.26-.24.54-.3.8-.02.17-.07.44-.3.3-.1-.04-.14-.1-.16-.16Z" fill="#A0262D"/><path d="M8.92 10.06c-.03 0-.04.03-.03.08 0 .03.02.04.04.06.06.03.12.05.2.05l.6.02.3.05c.1.02.21.02.3 0 .17.12.25.26.24.44-.01.3-.11.57-.3.8-.5.65-1.4 1.15-2.15 1.42l-.21-.04a.07.07 0 0 1-.04-.02 9.95 9.95 0 0 1 .6-3.17c.14.19.28.29.45.3Z" fill="#F61C2E"/><path d="M10.34 10.31c-.1.03-.2.03-.32 0a1.8 1.8 0 0 0-.3-.04c-.2 0-.4 0-.6-.02a.45.45 0 0 1-.2-.05.07.07 0 0 1-.03-.06c-.01-.05 0-.07.03-.08.52-.05 1 .03 1.42.25ZM6.9 11.3l-.39.26a.03.03 0 0 1-.03 0 .03.03 0 0 1-.02-.03v-.12c.06-.38.14-.76.23-1.13.07-.03.13-.01.18.05.08.1.04.32.03.45 0 .03-.04.11-.1.24-.07.15-.04.24.1.28Z" fill="#A0262D"/><path d="M13 8.27v4.05c0 .21-.03.37-.1.46-.1.15-.26.22-.49.22H10c.26-.21.84-.41 1-.6.3-.34.47-.82.4-1.27-.07-.43-.3-.78-.7-1.04l-.22-.18a5.77 5.77 0 0 0 2.45-1.61c.01-.01.06-.04.07-.03Z" fill="#BBB"/><path d="M10.37 12.97c-.28.2-.59.38-.92.55-.28.15-.58.27-.89.36-.36.1-.68.14-.94.11a1.54 1.54 0 0 1-.91-.38c.59.16 1.09.18 1.5.05.6-.19 1.18-.46 1.74-.83.5-.33 1.02-.8 1.15-1.35.1-.42 0-.85-.26-1.2a1.72 1.72 0 0 1-.13-.2c.42.3.76.76.76 1.27 0 .38-.16.74-.4 1.02-.17.19-.44.39-.7.6Z" fill="#A0262D"/></svg>