<!-- by TradingView --><svg width="18" height="18" viewBox="0 0 18 18" xmlns="http://www.w3.org/2000/svg"><path fill="#F0F3FA" d="M0 0h18v18H0z"/><path opacity=".3" d="M5.5 11h7v1h-7z"/><path fill-rule="evenodd" d="M13.38 7.01a3.88 3.88 0 0 0-2.66-2.89 6.16 6.16 0 0 0-1.42-.11L5.88 4c-.58 0-1.03.14-1.26.68-.08.17-.12.48-.12.91v6.85c0 .49 0 .79.27 1.13.3.39.64.43 1.15.43h6.17c.34 0 .58-.04.73-.1.26-.12.45-.31.56-.57.08-.18.12-.47.12-.9V8.56c0-.7-.04-1.22-.12-1.54Zm-.51.05c-.36-1.4-1.57-2.53-3-2.52H5.75c-.17 0-.3.01-.38.05-.33.16-.36.45-.37.83v7.37c0 .27.1.46.3.58.1.07.29.1.55.1h6.45c.28 0 .48-.1.58-.31.06-.12.09-.32.1-.6v-4c0-.7-.05-1.2-.12-1.5Z" fill="#0171AC"/><path d="M12.21 7.3c-.02-.56-.21-1.02-.56-1.38a1.91 1.91 0 0 0-1.32-.59c-.02 0-.04.01-.04.04v.27c0 .03.01.05.04.05.44.04.8.2 1.07.5.27.28.43.65.47 1.1 0 .03.02.04.05.04h.26c.02 0 .04-.01.03-.04Zm-.87-.02a1.1 1.1 0 0 0-.3-.72c-.2-.2-.43-.3-.7-.32-.03 0-.05.01-.05.04v.25c0 .04.01.06.04.06.2.05.35.12.45.23.1.1.18.26.22.47 0 .03.03.04.06.04h.24c.03 0 .04-.02.04-.05ZM10.12 8.82l.03-1.8.01-.01.02-.01h.43l.01.03.05 2.42v.02a.02.02 0 0 0 .03 0l1.26-.65a.02.02 0 0 1 .04 0V11l-.03.01H6.01v-.02H6l.07-3.94a.03.03 0 0 1 .01-.02.03.03 0 0 1 .02 0h.41l.02.01v.02l.05 2.65v.01l.02.01a.02.02 0 0 0 .02 0l1.75-.9a.02.02 0 0 1 .02 0l.01.02-.01.86v.02a.02.02 0 0 0 .03 0l1.69-.87v-.01l.01-.02Z" fill="#0171AC"/><path d="M8.89 7.51c.24.04.3.28.09.42-.1.08-.37.07-.54.07h-.1a16.82 16.82 0 0 1-.46-.02v-.03l.02-.01a.3.3 0 0 0 .14-.04.07.07 0 0 0 .04-.06V7.24c.01-.11-.05-.17-.18-.17-.02 0-.02-.01-.02-.03v-.02L8.63 7c.15 0 .28.04.39.13l.04.05a.15.15 0 0 1 0 .14.16.16 0 0 1-.05.06l-.12.09c-.03.02-.03.04 0 .04Zm-.56-.42v.32a.04.04 0 0 0 .02.03.04.04 0 0 0 .03 0h.21c.06 0 .1-.02.14-.05a.16.16 0 0 0 .06-.12v-.04l-.02-.06a.17.17 0 0 0-.04-.06.2.2 0 0 0-.07-.03.22.22 0 0 0-.07-.01h-.22a.04.04 0 0 0-.03.01v.01Zm.02.44-.02.03v.34s0 .02.02.02l.02.01h.2a.3.3 0 0 0 .1 0 .26.26 0 0 0 .08-.05.2.2 0 0 0 .05-.07.16.16 0 0 0 .02-.07v-.02c0-.06-.02-.1-.07-.14a.28.28 0 0 0-.18-.06h-.22ZM9.66 7h.28c.07 0 .08.02.02.06a.15.15 0 0 1-.07.01.1.1 0 0 0-.07.03.1.1 0 0 0-.03.06 9.22 9.22 0 0 0 0 .66c0 .03.02.05.04.07a.1.1 0 0 0 .07.02c.03 0 .05 0 .06.02.06.03.05.05-.02.05a8.45 8.45 0 0 1-.56 0c-.07 0-.07-.02-.02-.05l.07-.02a.1.1 0 0 0 .07-.02.1.1 0 0 0 .03-.07 10.55 10.55 0 0 0 0-.66.1.1 0 0 0-.03-.06.1.1 0 0 0-.07-.03h-.07c-.05-.05-.05-.07.02-.07h.28Zm-2.45.5v-.34a.1.1 0 0 0-.04-.06.1.1 0 0 0-.07-.03h-.06c-.06-.05-.05-.07.02-.07a12.13 12.13 0 0 1 .56 0c.07 0 .07.02.02.06a.15.15 0 0 1-.07.01.1.1 0 0 0-.07.03.1.1 0 0 0-.03.06 10.55 10.55 0 0 0 0 .66c0 .03.01.05.03.07a.1.1 0 0 0 .07.02c.03 0 .06 0 .07.02.05.03.05.05-.02.05a12.1 12.1 0 0 1-.56 0c-.07 0-.08-.02-.02-.05l.07-.02a.1.1 0 0 0 .07-.02.1.1 0 0 0 .03-.07V7.5Z"/></svg>