<!-- by TradingView --><svg xmlns="http://www.w3.org/2000/svg" width="18" height="18" viewBox="0 0 18 18"><path fill="#F0F3FA" d="M0 0h18v18H0z"/><path d="M6.18 3c-.3 1.17-.52 3.6 2.28 5.42 2.53 1.64 3.32 3.09 3.4 3.6.28-1.9.42-3.6-2.48-5.66C6.93 4.62 6.15 3.5 6.18 3zm0 3.87c-.3 1.18-.57 3.61 2.32 5.32 2.57 1.5 3.23 2.3 3.3 2.81.29-1.9.13-2.96-2.42-4.76-2.45-1.74-3.23-2.88-3.2-3.37z" fill="url(#akzaq5h34)"/><defs><linearGradient id="akzaq5h34" x1="7.17" y1="4.41" x2="10.73" y2="14.55" gradientUnits="userSpaceOnUse"><stop stop-color="#2E88C6"/><stop offset="1" stop-color="#463082"/></linearGradient></defs></svg>