<!-- by TradingView --><svg width="18" height="18" viewBox="0 0 18 18" fill="none" xmlns="http://www.w3.org/2000/svg">
<rect width="18" height="18" fill="#F0F3FA"/>
<path fill-rule="evenodd" clip-rule="evenodd" d="M12 13C14.2091 13 16 11.2091 16 9C16 6.79086 14.2091 5 12 5C9.79086 5 8 6.79086 8 9C8 11.2091 9.79086 13 12 13ZM10.625 11H9.7L11.5033 7H12.5392L14.4 11H13.375L13.0625 10.2969H10.9688L10.625 11ZM11.2422 9.5L12.0157 7.67188L12.7813 9.5H11.2422Z" fill="#234A9C"/>
<path fill-rule="evenodd" clip-rule="evenodd" d="M6 13C8.20914 13 10 11.2091 10 9C10 6.79086 8.20914 5 6 5C3.79086 5 2 6.79086 2 9C2 11.2091 3.79086 13 6 13ZM7.18312 8C7.18312 7.84934 6.97142 7.8 6.74094 7.8H5.26762C4.95774 7.8 4.8 7.91525 4.8 8.2C4.8 8.42373 4.95774 8.6 5.26762 8.6H7.28637C7.54649 8.6 8 8.81243 8 9.4V10.2881C8 10.7401 7.55302 11 7.28637 11H4.95774C4.17188 11 4 10.4283 4 9.8H4.82786C4.82786 9.8 4.81051 10.2 5.07812 10.2H6.74094C7.08469 10.2 7.2 9.98329 7.2 9.84375C7.2 9.62906 7.10032 9.4 6.74094 9.4H4.95774C4.77381 9.4 4.58647 9.35733 4.43194 9.23729C4.23153 9.0816 4 8.87571 4 8.42373V7.91525C4 7.50847 4.52582 7 4.95774 7L7.18312 7C7.53125 7 8 7.22656 8 7.82031V8H7.18312Z" fill="#234A9C"/>
</svg>
