<!-- by TradingView --><svg width="18" height="18" viewBox="0 0 18 18" xmlns="http://www.w3.org/2000/svg"><path fill="#F0F3FA" d="M0 0h18v18H0z"/><path d="M9.06 3.05 9 3a15259.26 15259.26 0 0 1-3.74 7.75l.03.01H7.8c.06 0 .1-.02.14-.06l.99-1.14c.03-.03.05-.05.07-.05.03 0 .05.02.08.05l1 1.13c.03.05.07.07.13.07h2.51c.02 0 .03 0 .03-.02v-.04l-3.7-7.65Zm.13 5.9V4.35l.01-.02.03.01 2.83 5.83v.03h-.03L9.2 8.97l-.01-.03Zm-.38.03L6 10.2h-.03v-.03L8.78 4.4h.03l.01.01V8.98Zm-1.1 1.35.6-.62v-.03c0-.02-.01-.02-.03-.01l-1.43.6c-.01.01-.02.02-.01.03 0 .02 0 .02.02.02l.83.02.02-.01Zm3.52 0-.9-.01c-.01 0-.03 0-.05-.03l-.55-.58c-.04-.04-.03-.05.02-.03a32.83 32.83 0 0 1 1.48.65ZM9 12.46h.02l1.24-1.33a.13.13 0 0 1 .1-.04h2.56c.05 0 .08.03.08.08v.49c0 .04-.02.06-.06.06h-2.26a.26.26 0 0 0-.2.09 1322 1322 0 0 0-1.4 1.49c-.03.03-.06.05-.08.05l-.09-.05a1322 1322 0 0 0-1.39-1.49.26.26 0 0 0-.2-.09H5.06c-.04 0-.06-.02-.06-.06v-.49c0-.05.03-.08.08-.08h2.56c.04 0 .07.01.1.04A144.58 144.58 0 0 1 9 12.46Zm3.99-.3v-.14c0-.04-.02-.05-.05-.05h-2.3l-.02.01-1.58 1.7c-.02.02-.04.02-.07 0l-1.57-1.7-.03-.01H5.05c-.03 0-.05.02-.05.05v.13c0 .03.02.05.05.05H7.3l.03.01 1.65 1.77c.02.03.04.03.07 0l1.64-1.76.04-.02h2.21c.03 0 .05-.01.05-.05Z" fill="#F20403"/></svg>