<!-- by TradingView --><svg width="18" height="18" viewBox="0 0 18 18" xmlns="http://www.w3.org/2000/svg"><path fill="#F0F3FA" d="M0 0h18v18H0z"/><path d="M11.3 4.61V3.3c-.34-.13-.93-.23-1.3-.3v1.22a4.94 4.94 0 0 0-6.03 4.73c0 1.82 1.15 3.4 2.67 4.24v1.47c.35.15 1 .26 1.36.34v-1.37c.45.13.51.2.97.2a5.1 5.1 0 0 0 2.22-.51l.05-.02v-.01a4.83 4.83 0 0 0 .06-8.68ZM5.9 6.57c.19-.22.51-.42.74-.6v5.96A4.06 4.06 0 0 1 5 8.95c-.02-.84.33-1.68.9-2.38ZM8 12.52v-3.8c.46 1.05 1.3 2.54 1.91 3.93-.76.2-1.17.15-1.91-.13Zm2-2.8C9.53 8.64 8.43 6.66 7.83 5.3c.37-.11.76-.17 1.14-.17A3 3 0 0 1 10 5.3v4.4Zm1.3 2.34V5.84c1 .69 1.7 1.83 1.7 3.1 0 1.3-.7 2.43-1.7 3.12Z" fill="#6CC04A"/></svg>