<!-- by TradingView --><svg width="18" height="18" viewBox="0 0 18 18" xmlns="http://www.w3.org/2000/svg"><path fill="#F0F3FA" d="M0 0h18v18H0z"/><path fill-rule="evenodd" d="M4.86 13.36c1.55 1.35 4.65.5 6.94-1.92 2.29-2.4 2.89-5.45 1.34-6.8-1.55-1.35-4.65-.5-6.94 1.92C3.9 8.96 3.3 12 4.86 13.36Zm.59-.84c1.44 1.22 4.26.5 6.31-1.6s2.54-4.8 1.1-6.03c-1.43-1.22-4.26-.5-6.3 1.6-2.06 2.1-2.55 4.8-1.11 6.03Z" fill="#004185"/><path d="M9.05 5.83 9 6.2l1.82-.56c.09-.02.17.05.16.14L10.71 8 13 6.98v-.33l-.62.3V5.27c0-.18-.16-.3-.33-.26l-3 .82ZM6.24 9.27 6 9.9l1.08-.41c.21-.09.45.08.38.27l-.94 2.7c-.13.38.4.7.8.46L12 10.27v-.58l-1.96 1.04c-.2.11-.45-.02-.43-.22L10 8 6.24 9.27Z" fill="#004185"/><path d="m10.21 7.23-1.6.73L9 6.57l1.33-.38-.12 1.04ZM10.51 8.67l-.18 1.4L12 9.16V8l-1.49.67Z" fill="#004185"/></svg>