<!-- by TradingView --><svg width="18" height="18" viewBox="0 0 18 18" xmlns="http://www.w3.org/2000/svg"><path fill="#121F49" d="M0 0h18v18H0z"/><path d="M7.69 9.59c0-.16-.1-.33-.27-.4l-.76-.28c-.31-.1-.63-.3-.95-.58-.9-.8-.54-2.14.86-2.22a2.1 2.1 0 0 1 1.53.52c.38.35.58.8.59 1.32 0 .14-.04.34-.12.59-.2.56-.33 1.1-.32 1.69 0 .21.05.46.15.75.21.6.43 1.2.25 1.79-.2.65-.7 1.05-1.47 1.19-.6.1-1.28 0-1.74-.36-.9-.69-.28-1.83.59-2.35.55-.33.95-.59 1.2-.78.3-.24.45-.53.46-.88ZM9.07 6.64l-.01.02a.02.02 0 0 1-.02 0 1.59 1.59 0 0 1-.45-.59c-.02-.04 0-.06.05-.04l.31.09.04.02.02.04.06.46ZM10.35 4.7l-.67-.2c-.03-.01-.04-.03-.01-.05l.46-.42A.1.1 0 0 1 10.2 4l.27.03c.03 0 .05.02.04.05l-.13.6c0 .02-.01.02-.03.02ZM9.83 4.06l-.3.33-.02.02h-.04l-.29-.07c-.05-.01-.05-.03 0-.06a1.63 1.63 0 0 1 .64-.24h.01a.01.01 0 0 1 0 .02ZM10.54 4.75l.13-.57a.1.1 0 0 1 .03-.05.12.12 0 0 1 .13-.01.1.1 0 0 1 .05.04 2.1 2.1 0 0 1 .23.78h-.01l-.54-.16-.01-.01v-.02ZM11.24 4.36a1.75 1.75 0 0 1 .56.8l-.47-.13-.02-.02-.13-.62c-.02-.07 0-.08.06-.03ZM9.36 4.62l-.26.59-.02.02h-.03l-.5-.15c-.03 0-.03-.01-.03-.02.09-.2.2-.39.37-.55a.08.08 0 0 1 .08-.02l.38.11v.01a.01.01 0 0 1 0 .01ZM9.3 5.2l.18-.5V4.7l.03-.01a.07.07 0 0 1 .05 0l.7.2c.02 0 .03.01.04.03l.01.04-.11.5-.01.03-.02.01a.07.07 0 0 1-.05.01l-.77-.23h-.02l-.02-.02a.05.05 0 0 1 0-.05ZM10.51 4.96l.55.16c.06.02.08.05.07.1l-.05.42c0 .06-.04.08-.1.07l-.6-.18c-.01 0-.02-.01-.01-.02l.11-.54a.02.02 0 0 1 .01 0l.01-.01h.01ZM11.84 5.38l.01.01v.46c0 .03-.02.05-.04.04l-.52-.12-.02-.01v-.01l-.01-.02.05-.49c0-.03.02-.03.06-.02a5.55 5.55 0 0 1 .47.16ZM8.5 5.9a.07.07 0 0 1-.03-.01l-.01-.03a1.47 1.47 0 0 1 0-.6h.02a.04.04 0 0 1 .03 0l.5.14.02.01.01.02-.07.56c0 .03-.03.05-.07.04l-.4-.12ZM9.14 6.03l.07-.54v-.02l.02-.02a.06.06 0 0 1 .05 0l.8.23.04.02v.04l-.11.53-.01.01-.02.02a.06.06 0 0 1-.04 0l-.76-.22a.06.06 0 0 1-.03-.02.05.05 0 0 1 0-.03ZM10.18 6.3l.12-.54v-.02h.02a.05.05 0 0 1 .04-.01l.6.17c.02 0 .03.02.03.03v.03l-.18.53-.02.03h-.04l-.54-.16a.05.05 0 0 1-.03-.02v-.03ZM10.96 6.55l.24-.57.02-.02h.03l.5.14v.03c-.07.2-.19.37-.34.52a.07.07 0 0 1-.07.02l-.37-.1a.02.02 0 0 1-.01 0v-.02ZM9.94 6.52l-.13.58c0 .02-.01.02-.03.02-.19-.03-.35-.1-.5-.18a.09.09 0 0 1-.05-.07l-.07-.56V6.3a.03.03 0 0 1 .04-.01l.72.21c.02 0 .02.02.02.03ZM10.15 6.55l.49.14c.02.01.02.02.01.04l-.24.38a.1.1 0 0 1-.04.04.1.1 0 0 1-.05 0h-.28c-.04 0-.06 0-.05-.04l.12-.54c0-.02.02-.03.04-.02ZM10.66 7.04l.16-.25c.02-.03.04-.03.07-.02l.22.06c.06.02.06.04 0 .06l-.4.2c-.07.03-.08.01-.05-.05Z" fill="#fff"/><path d="M9.38 10.93c.26.6 1.53.5 2.13.5.45-.01.83.1 1.13.34.54.42.45 1.08-.12 1.44-.78.48-1.77.26-2.45-.28-.27-.21-.5-.43-.73-.66-.66-.7-.8-1.48-.4-2.3a5.75 5.75 0 0 1 1.79-2.12c.63-.34 1.55-.16 1.8.52.19.51-.08 1.03-.63 1.27-.11.05-.29.08-.52.1-.5.03-.9.07-1.34.25-.36.14-.82.55-.66.94Z" fill="#EA262B"/></svg>