<!-- by TradingView --><svg width="18" height="18" viewBox="0 0 18 18" xmlns="http://www.w3.org/2000/svg"><path fill="#F0F3FA" d="M0 0h18v18H0z"/><path d="m8.85 8.2-.61.13c-.15-.22-.85-.66-2.44-.66-1.97 0-2.63.85-2.63 1.2 0 .36.5.53 1.26.53.77 0 3.35-.54 4.42-.94 1.06-.4 4.1-1.2 5.02-1.2.73 0 1.12.36 1.22.54-.16-.05-.61-.13-1.22-.13-1.67 0-7.8 2.54-10.35 2.4C2.62 10 2 9.66 2 9c0-.68 1.06-2 3.5-2 1.98 0 3.04.84 3.35 1.2Z" fill="url(#aloq53o0l)"/><path d="m9.15 9.8.61-.13c.15.22.85.66 2.44.66 1.97 0 2.63-.87 2.63-1.2 0-.34-.5-.53-1.26-.53-.77 0-3.35.54-4.42.94-1.06.4-4.05 1.21-4.96 1.21-.73 0-1.18-.37-1.28-.55.16.05.61.13 1.22.13 1.67 0 7.8-2.54 10.35-2.4C15.38 8 16 8.34 16 9c0 .68-1.06 2-3.5 2-1.98 0-3.04-.84-3.35-1.2Z" fill="url(#bloq53o0l)"/><defs><linearGradient id="aloq53o0l" x1="1.85" y1="8.86" x2="14.58" y2="7.13" gradientUnits="userSpaceOnUse"><stop stop-color="#BAE0EF"/><stop offset=".43" stop-color="#20BFDD"/><stop offset="1" stop-color="#20BEDC"/></linearGradient><linearGradient id="bloq53o0l" x1="16.15" y1="9.14" x2="3.42" y2="10.87" gradientUnits="userSpaceOnUse"><stop stop-color="#57B4D2"/><stop offset=".43" stop-color="#1C4489"/><stop offset="1" stop-color="#1C4388"/></linearGradient></defs></svg>