<!-- by TradingView --><svg width="18" height="18" viewBox="0 0 18 18" xmlns="http://www.w3.org/2000/svg"><path fill="#00D8C9" d="M0 0h18v18H0z"/><path d="M8.98 5.02h.04c.3-.23.62-.4.96-.47.12-.03.3-.05.5-.05H12c.03 0 .06-.01.1-.05l.08-.11.11-.14c.19-.18.41-.24.68-.17.15.03.28.12.38.26.1.14.14.29.13.44l-.07.44c-.08.33-.22.64-.43.92a.07.07 0 0 0 0 .08l.1.2c.3.6.34 1.21.16 1.86-.01.03 0 .06.02.1l.27.42a3.86 3.86 0 0 1 .3 3.02.85.85 0 0 1-.96.65.76.76 0 0 0-.15-.01l-.02.01a5.75 5.75 0 0 1-.31.42v.1a.95.95 0 0 1-1.11 1.04.6.6 0 0 0-.2-.01l-.22.02-.23-.01a.5.5 0 0 0-.2 0 .91.91 0 0 1-.71-.12c-.2-.12-.36-.31-.44-.57-.01-.03-.03-.04-.06-.04h-.45a3.88 3.88 0 0 0-.05.06c-.08.17-.15.29-.2.35a.93.93 0 0 1-.93.32.46.46 0 0 0-.17-.01c-.15.03-.31.03-.5 0H6.8c-.43.09-.76-.03-1.01-.36-.14-.18-.2-.43-.18-.74a.1.1 0 0 0-.02-.07l-.3-.4a.05.05 0 0 0-.06-.02c-.15.02-.26.03-.34.02a.84.84 0 0 1-.7-.63 3.81 3.81 0 0 1 .54-3.41c.03-.05.04-.1.02-.15a2.53 2.53 0 0 1 .27-2.05v-.05a2.43 2.43 0 0 1-.48-1.14c-.03-.2-.03-.34 0-.45a.7.7 0 0 1 .26-.38.7.7 0 0 1 .8-.02c.04.02.1.08.17.16l.15.2A.1.1 0 0 0 6 4.5h1.5a2.06 2.06 0 0 1 1.26.37l.22.14Z" fill="#fff"/><path d="m12.45 6.09.16.2c.4.62.48 1.3.21 2.01l.01.06.2.28a3.48 3.48 0 0 1 .43 3.1.49.49 0 0 1-.37.32.49.49 0 0 1-.48-.16h-.02a4.32 4.32 0 0 1-.6.84c0 .03 0 .08.02.14.03.23 0 .4-.12.55a.58.58 0 0 1-.35.2.6.6 0 0 1-.4-.06h-.03c-.2.1-.39.1-.58 0h-.03a.27.27 0 0 0-.06.02.63.63 0 0 1-.35.05.57.57 0 0 1-.43-.34.63.63 0 0 1-.05-.3c0-.03 0-.04-.02-.04-.4-.09-.8-.09-1.2 0-.01 0-.02 0-.02.02.01.26-.08.45-.27.58a.57.57 0 0 1-.28.08c-.1.01-.19 0-.27-.05a1.08 1.08 0 0 0-.06-.02h-.04c-.2.1-.38.1-.57 0h-.03c-.22.1-.43.1-.62-.02a.59.59 0 0 1-.27-.51c0-.1.02-.2.04-.3v-.02a4.3 4.3 0 0 1-.6-.82c-.01-.01-.02-.02-.04 0a.5.5 0 0 1-.45.14c-.2-.04-.34-.18-.4-.42a3.5 3.5 0 0 1 .64-3.25.08.08 0 0 0 .01-.08c-.15-.37-.2-.76-.13-1.16.07-.4.24-.74.5-1.04v-.03a1.24 1.24 0 0 1-.4-.44c-.13-.24-.21-.5-.25-.8-.01-.1 0-.2.02-.25a.32.32 0 0 1 .26-.21.3.3 0 0 1 .3.12h.01c.2.26.37.52.7.52H7.5c.2 0 .34.05.45.08.41.1.76.33 1.02.66h.03c.27-.35.83-.74 1.3-.74h1.58c.29 0 .45-.3.62-.5a.35.35 0 0 1 .23-.15c.1 0 .18.03.26.1.07.06.1.13.11.21a1.12 1.12 0 0 1-.03.28c-.09.53-.3.9-.63 1.12v.03Z" fill="#272D2D"/><path d="M8.77 7.49a1.65 1.65 0 0 1-1.03 1.54 1.65 1.65 0 0 1-1.81-.36 1.65 1.65 0 0 1-.49-1.18 1.65 1.65 0 0 1 1.03-1.54 1.65 1.65 0 0 1 1.81.36 1.65 1.65 0 0 1 .5 1.18ZM12.54 7.49a1.66 1.66 0 0 1-1.03 1.54 1.65 1.65 0 0 1-1.81-.36 1.66 1.66 0 0 1-.36-1.82 1.66 1.66 0 0 1 2.17-.9 1.65 1.65 0 0 1 1.03 1.54Z" fill="#fff"/><path d="M8.1 7.49c0 .27-.09.51-.28.7-.2.2-.44.3-.71.3a.97.97 0 0 1-.71-.3.97.97 0 0 1-.3-.7c0-.28.1-.52.3-.71.2-.2.43-.3.7-.3.28 0 .52.1.72.3.2.2.29.43.29.7ZM11.88 7.49c0 .28-.1.51-.3.7-.19.2-.43.3-.7.3a.97.97 0 0 1-.71-.3.97.97 0 0 1-.3-.7c0-.28.1-.52.3-.71.2-.2.43-.3.7-.3.28 0 .52.1.72.3.2.2.29.43.29.7Z" fill="#272D2D"/><path d="M6.83 7.59a.44.44 0 1 0 0-.87.44.44 0 0 0 0 .87ZM11.15 7.68a.47.47 0 1 0 0-.94.47.47 0 0 0 0 .94ZM7.46 7.92c-.07.07-.08.17-.03.22.05.05.15.03.22-.04.07-.08.08-.18.03-.22-.05-.05-.15-.04-.22.04ZM10.3 8.1c.08.07.18.08.23.03.05-.05.03-.15-.04-.22s-.17-.08-.22-.03c-.05.05-.04.15.04.22Z" fill="#fff"/><path d="M12.55 8.77c.01-.02.02-.02.03 0a3.01 3.01 0 0 1 .45 2.84.05.05 0 0 1-.04.02l-.04-.01a3.24 3.24 0 0 1-1.1-2.23c0-.02.01-.04.03-.05.25-.14.47-.33.67-.57ZM5.44 8.77c.2.24.41.43.66.57.02 0 .03.02.03.05A3.2 3.2 0 0 1 5 11.6c-.01 0-.03 0-.04-.02a3.04 3.04 0 0 1 .44-2.82h.04Z" fill="#A3755D"/><path d="M11.8 10.83c-.28.4-.64.75-1.07 1.01-.2.02-.4.1-.58.2l-.2.16-.26.05c-.44.09-.9.09-1.38 0a3.07 3.07 0 0 0-.27-.05l-.23-.17c-.1-.06-.19-.1-.27-.13a2.24 2.24 0 0 0-.3-.06c-.42-.27-.77-.6-1.06-1l.12-.27a3.58 3.58 0 0 0 .27-1.04c.64.15 1.22.04 1.74-.32h.04l.22.26c.09.1.16.16.22.19.2.08.37.04.53-.13a15.13 15.13 0 0 1 .35-.32c.53.36 1.11.47 1.74.32l.02.01c.05.45.17.87.37 1.29Z" fill="#F4D5C1"/><path d="M10.73 11.84c.43-.26.79-.6 1.07-1.01.12.25.28.48.46.7v.04c-.12.26-.29.5-.48.72h-.03a1.26 1.26 0 0 0-.4-.32 1.13 1.13 0 0 0-.52-.12h-.1ZM6.18 10.83c.29.4.64.74 1.06 1.01-.42 0-.76.15-1 .45H6.2c-.19-.22-.35-.46-.49-.72v-.04c.18-.2.33-.44.47-.7ZM9.94 12.2l-.21.32a.03.03 0 0 1-.04.01 3.2 3.2 0 0 0-1.4 0l-.04-.01-.2-.32.26.04a3.37 3.37 0 0 0 1.63-.04Z" fill="#A3755D"/><path d="M7.17 12.28c.07 0 .14.01.21.04.3.1.49.3.55.62l-.01.18a.13.13 0 0 1-.11.08c-.05 0-.1 0-.13-.04-.02-.02-.03-.06-.04-.1L7.62 13c-.01-.05-.05-.09-.11-.1-.06-.01-.1 0-.14.04a.34.34 0 0 0-.05.12c-.03.1-.08.14-.15.14-.08 0-.13-.04-.15-.14a.34.34 0 0 0-.05-.12c-.04-.04-.09-.05-.14-.04-.06.01-.1.05-.12.1l-.01.05c-.01.05-.02.09-.04.1a.15.15 0 0 1-.13.05.13.13 0 0 1-.11-.08.33.33 0 0 1-.01-.18.76.76 0 0 1 .54-.62.68.68 0 0 1 .22-.04ZM10.82 13.2c-.08 0-.13-.05-.16-.14a.34.34 0 0 0-.04-.12c-.04-.04-.09-.05-.15-.04a.14.14 0 0 0-.11.1l-.01.05-.04.1a.15.15 0 0 1-.13.05.13.13 0 0 1-.12-.08.33.33 0 0 1 0-.18.76.76 0 0 1 .54-.62.68.68 0 0 1 .43 0c.3.1.49.3.54.62.02.07.01.13 0 .18a.13.13 0 0 1-.11.08c-.06 0-.1 0-.14-.05l-.04-.1V13c-.02-.05-.06-.09-.12-.1-.06-.01-.1 0-.15.04a.34.34 0 0 0-.04.12c-.03.1-.08.14-.15.14Z" fill="#fff"/></svg>