<!-- by TradingView --><svg width="18" height="18" viewBox="0 0 18 18" xmlns="http://www.w3.org/2000/svg"><path fill="#F0F3FA" d="M0 0h18v18H0z"/><path d="M6.5 6.5a1.5 1.5 0 1 0 0-3 1.5 1.5 0 0 0 0 3ZM5.8 8H7.2c.16 0 .29.14.29.31v2.98c0 .75.34 1.71 1.5 1.71s1.5-.63 1.5-1.34c0-.72-.34-1.3-.7-1.9C9.41 9.1 9 8.4 9 7.47 9 5.85 10.34 5 11.6 5c.46 0 .76.02 1.2.26.18.1.2.29.2.45v1.18c0 .24-.18.37-.36.3l-.1-.03c-.26-.1-.43-.16-.79-.16-.55 0-.75.37-.75.81 0 .55.3 1 .62 1.5.41.64.88 1.36.88 2.46C12.5 13.9 10.99 15 9 15c-3.08 0-3.5-2.32-3.5-3.92V8.3c0-.17.13-.31.3-.31Z" fill="#EC5C27"/></svg>