<!-- by TradingView --><svg xmlns="http://www.w3.org/2000/svg" width="18" height="18" viewBox="0 0 18 18"><path fill="url(#aibadyftb)" d="M0 0h18v18H0z"/><path d="M11.82 6H6.64c-.05 0-.1.02-.13.05l-2.44 2.7-.04.04c-.07.07-.02.2.08.2h4.71c.1 0 .18.06.18.16v4.74c0 .1.12.15.18.08l2.77-2.48a.18.18 0 0 0 .05-.13V6.18c0-.1-.08-.18-.18-.18z" fill="#fff"/><defs><linearGradient id="aibadyftb" x1="3.35" y1="3.12" x2="21.9" y2="24.43" gradientUnits="userSpaceOnUse"><stop stop-color="#1A1E21"/><stop offset="1" stop-color="#06060A"/></linearGradient></defs></svg>