<!-- by TradingView --><svg width="18" height="18" viewBox="0 0 18 18" xmlns="http://www.w3.org/2000/svg"><path fill="#F0F3FA" d="M0 0h18v18H0z"/><path d="M8 10.5a2.5 2.5 0 0 1-4.86.83h.76a1.25 1.25 0 1 0 0-.83H3a2.5 2.5 0 0 1 5 0Z" fill="url(#ae1fkfha0)"/><path d="M5.12 12.17c-.25.18-.57.34-.9.47a2.5 2.5 0 0 1-1.08-1.3h.76a1.25 1.25 0 0 0 1.22.83Z" fill="url(#be1fkfha0)"/><path d="M3.34 9.23c.44-.2.94-.4 1.33-.4.83 0 1.66.42 1.66 2.09.24-.6.32-1.92-.98-2.92a2.5 2.5 0 0 0-2 1.23Z" fill="url(#ce1fkfha0)"/><path d="M5.38 8c.6.83 1.19 1.97.95 2.92 0 .69-.56 1.25-1.25 1.25h-.01c-.3.16-.64.29-1.03.36A2.5 2.5 0 1 0 5.38 8Z" fill="url(#de1fkfha0)"/><path d="M7.03 9c-1.07-2.4-.44-4 0-4 .45 0 .5 1.15.9 2.5.45 1.5.9 2.67 1.35 3 .9-4 2.24-5.5 4.03-5.5 1.43 0 2.4 1.33 2.69 2-.15-.33-.9-1-2.69-1-2.24 0-2.69 7-3.59 7-.9 0-1.34-1-2.69-4Z" fill="url(#ee1fkfha0)"/><path d="M8.83 9.92c-.17.72-.29 1.43-.36 2.07.42.72.77 1.01 1.25 1.01.35 0 .63-1.05.97-2.34C11.24 8.63 11.94 6 13.31 6c1.8 0 2.54.67 2.69 1-.3-.67-1.26-2-2.69-2-1.8 0-3.14 1.5-4.03 5.5a1.8 1.8 0 0 1-.45-.58Z" fill="url(#fe1fkfha0)"/><path d="M15.71 6.5c.13.18.22.35.29.5-.15-.33-.9-1-2.69-1-1.37 0-2.07 2.63-2.62 4.66-.34 1.29-.62 2.34-.97 2.34a1 1 0 0 1-.67-.25c.86-2.8 2.62-7.25 4.26-7.25a3.4 3.4 0 0 1 2.4 1Z" fill="url(#ge1fkfha0)"/><defs><linearGradient id="ae1fkfha0" x1="5.08" y1="8.83" x2="3.42" y2="10.5" gradientUnits="userSpaceOnUse"><stop stop-color="#0378A6"/><stop offset="1" stop-color="#0CBCB8"/></linearGradient><linearGradient id="be1fkfha0" x1="3.42" y1="11.33" x2="4.67" y2="12.58" gradientUnits="userSpaceOnUse"><stop stop-color="#15A976"/><stop offset="1" stop-color="#4B5163"/></linearGradient><linearGradient id="ce1fkfha0" x1="4.91" y1="8" x2="6.33" y2="10.08" gradientUnits="userSpaceOnUse"><stop stop-color="#F9A602"/><stop offset="1" stop-color="#FC3F33"/></linearGradient><linearGradient id="de1fkfha0" x1="6.02" y1="8" x2="6.02" y2="13" gradientUnits="userSpaceOnUse"><stop stop-color="#F84C72"/><stop offset="1" stop-color="#714295"/></linearGradient><linearGradient id="ee1fkfha0" x1="8.38" y1="8.5" x2="7.34" y2="9.9" gradientUnits="userSpaceOnUse"><stop stop-color="#E5CE00"/><stop offset="1" stop-color="#E1B606"/></linearGradient><linearGradient id="fe1fkfha0" x1="12.23" y1="5" x2="8.75" y2="10.68" gradientUnits="userSpaceOnUse"><stop stop-color="#F24752"/><stop offset="1" stop-color="#FE8A0C"/></linearGradient><linearGradient id="ge1fkfha0" x1="13.76" y1="5.5" x2="8.57" y2="12.48" gradientUnits="userSpaceOnUse"><stop stop-color="#D84A62"/><stop offset="1" stop-color="#D79B1D"/></linearGradient></defs></svg>