<!-- by TradingView --><svg width="18" height="18" viewBox="0 0 18 18" xmlns="http://www.w3.org/2000/svg"><path fill="#F0F3FA" d="M0 0h18v18H0z"/><circle cx="5.29" cy="5.29" r=".88" fill="#B9BAC0"/><circle cx="5.29" cy="12.71" r=".88" fill="#B9BAC0"/><circle cx="12.71" cy="5.29" r=".88" fill="#B9BAC0"/><circle cx="12.71" cy="12.71" r=".88" fill="#B9BAC0"/><circle cx="6.18" cy="9" r=".88" fill="#0054A2"/><circle cx="11.82" cy="9" r=".88" fill="#0054A2"/><circle cx="9" cy="6.18" r=".88" fill="#0054A2"/><circle cx="9" cy="11.82" r=".88" fill="#0054A2"/><path d="M7.59 3a.88.88 0 0 1 .4 1.67c-.31.35-.7.97-.7 1.67 0 1.12 1.19 1.6 1.71 1.6s1.69-.67 1.69-1.6c0-.66-.5-1.39-.83-1.77a.88.88 0 1 1 1.1.01c-.12.43-.08 1.04.43 1.7.65.8 1.7.75 2.37.59a.86.86 0 0 1 1.24.78.86.86 0 0 1-1.66.32c-.5-.35-1.14-.7-1.66-.7-.98 0-1.62.99-1.62 1.73s.74 1.59 1.8 1.59c.73 0 1.19-.36 1.54-.7a.86.86 0 1 1 .16 1.1c-.83-.22-2.07-.07-2.44.76-.23.54-.2 1.22-.1 1.73a.88.88 0 0 1-.6 1.52.88.88 0 0 1-.5-1.62c.33-.38.77-1.02.77-1.63 0-.92-.8-1.7-1.69-1.7-.9 0-1.76.84-1.71 1.7.03.56.44 1.21.75 1.61a.88.88 0 1 1-1.04.1c.07-.45.05-1.07-.26-1.71-.4-.82-1.48-.85-2.24-.71A.88.88 0 0 1 3 10.4a.88.88 0 0 1 1.63-.46c.44.31 1.05.64 1.65.64 1 0 1.66-.82 1.66-1.59 0-.77-.67-1.73-1.66-1.73-.68 0-1.26.44-1.67.82a.88.88 0 1 1-.15-1.17c.5.07 1.2.04 1.82-.38.7-.47.8-1.38.73-2A.88.88 0 0 1 7.59 3Z" fill="#636265"/></svg>