<!-- by TradingView --><svg width="18" height="18" viewBox="0 0 18 18" xmlns="http://www.w3.org/2000/svg"><path fill="#F0F3FA" d="M0 0h18v18H0z"/><path fill-rule="evenodd" d="M9 15A6 6 0 1 0 9 3a6 6 0 0 0 0 12Zm0-1A5 5 0 1 0 9 4a5 5 0 0 0 0 10Z" fill="#081F40"/><path d="M7.45 12.2a3.9 3.9 0 0 1-1.19-.17c.27.32 1.3.97 2.69.97C11.09 13 13 11.32 13 9.18A4.11 4.11 0 0 0 8.77 5 3.6 3.6 0 0 0 5 8.42C5 9.5 5.68 11 7.25 11 8.83 11 9 9.6 9 9.36c0-.19-.1-.46-.16-.58-.1.2-.33.62-.74.62-.5 0-.85-.45-.85-.91 0-.47.42-1.09 1.24-1.09 1.04 0 1.84.78 1.84 1.96 0 2.19-2.18 2.84-2.88 2.84Z" fill="url(#a)"/><defs><linearGradient id="a" x1="11.07" y1="5.91" x2="7.28" y2="12.25" gradientUnits="userSpaceOnUse"><stop stop-color="#279DDB"/><stop offset="1" stop-color="#0B2644"/></linearGradient></defs></svg>