<!-- by TradingView --><svg width="18" height="18" viewBox="0 0 18 18" xmlns="http://www.w3.org/2000/svg"><path fill="#F0F3FA" d="M0 0h18v18H0z"/><path d="m3.31 9.73-.87-.55C3.98 7.74 7.27 7.55 9 7.55c1.73 0 5.02.19 6.56 1.63l-.87 1.1c-1.46-1.37-4.51-1.64-6.13-1.64-1.61 0-3.8-.27-5.25 1.09Z" fill="#DB542F"/><path d="m3.75 10.27-.96-.43c1.55-1.45 4.18-1.2 5.9-1.2 1.73 0 4.96-.25 6.5 1.2l-1.38.43c-1.45-1.36-3.5-1.03-5.12-1.03-1.61 0-3.48-.33-4.94 1.03Z" fill="#F29614"/><path d="m4.19 10.82-.88-.55C4.8 9.18 6.84 9.18 8.56 9.18c1.73 0 4.38 0 6.13 1.1l-.88.54c-1.75-1.1-3.5-.99-5.12-.99-1.61 0-3.63.44-4.5.99Z" fill="#FFE613"/><path fill-rule="evenodd" d="M2.9 9.22c.05-.06.15-.14.32-.22.34-.18.84-.35 1.44-.48 1.2-.28 2.7-.43 3.9-.43 1.52 0 3.24.14 4.58.4.67.14 1.23.3 1.6.48.15.08.25.15.32.2-.07.07-.19.14-.35.22-.39.18-.93.35-1.52.48-1.19.27-2.47.4-2.88.4H10l-.1.38c-.06.22-.2.57-.38.85s-.36.4-.52.4c-.16 0-.34-.12-.52-.4a3.2 3.2 0 0 1-.38-.85l-.1-.38H7.7c-.79 0-2.07-.08-3.15-.32-.55-.12-1-.27-1.32-.45a.99.99 0 0 1-.33-.28Zm1.6-1.78C5.76 7.16 7.31 7 8.56 7c1.55 0 3.32.14 4.72.42.7.13 1.32.31 1.78.54.23.11.44.25.6.42.17.17.34.44.34.8 0 .38-.2.65-.36.81-.17.17-.39.3-.62.42-.46.22-1.07.4-1.68.54a19.3 19.3 0 0 1-2.73.4c-.1.27-.23.57-.4.84-.26.39-.67.81-1.21.81-.54 0-.95-.42-1.2-.81-.18-.27-.31-.57-.4-.83-.83-.02-2-.1-3.02-.33a5.47 5.47 0 0 1-1.53-.55c-.38-.22-.85-.62-.85-1.3 0-.35.16-.6.31-.77.16-.17.36-.3.57-.42.43-.22 1-.4 1.62-.55Z" fill="gray"/></svg>