<!-- by TradingView --><svg width="18" height="18" viewBox="0 0 18 18" xmlns="http://www.w3.org/2000/svg"><path fill="#002D44" d="M0 0h18v18H0z"/><path d="M4 6h.8L6 12h-.8L4 6ZM8.03 8.54c.5 0 .74-.33.74-.74 0-.08 0-.16-.02-.25a1.1 1.1 0 0 0-1.13-.95h-1L7 8.54h1.02Zm.72 2.86c.5 0 .64-.42.64-.85 0-.12-.01-.23-.03-.34-.08-.43-.23-.73-.53-.89a1.26 1.26 0 0 0-.59-.13H7.12l.42 2.21h1.21ZM6 6h1.78c.86 0 1.36.74 1.49 1.49.08.46.05.95-.33 1.28.6.3.9.83 1.02 1.48.15.8-.13 1.75-1.13 1.75H7.08L6 6ZM12.12 5.88a2.5 2.5 0 0 1 2.4 1.83h-.64c-.26-.63-.7-1.22-1.53-1.22-1.42 0-1.3 1.73-1.14 2.52.2.93.75 2.3 2.07 2.3.98 0 1.09-.81 1.06-1.45h.64c.12.98-.21 2.14-1.63 2.14-1.79 0-2.57-1.88-2.83-3.12-.24-1.1-.18-3 1.6-3Z" fill="#F0F3FA"/><path d="M4.5 5a.5.5 0 1 1 0 1 .5.5 0 0 1 0-1Z" fill="#FF001B"/></svg>