<!-- by TradingView --><svg width="18" height="18" viewBox="0 0 18 18" xmlns="http://www.w3.org/2000/svg"><path fill="#F0F3FA" d="M0 0h18v18H0z"/><path d="m9.65 8.8-.98.05a.02.02 0 0 1-.02-.01.02.02 0 0 1 0-.02V3a.02.02 0 0 1 .03 0l.98.66a.02.02 0 0 1 0 .02v5.1l-.01.01Z" fill="#0D4080"/><path d="m8.34 5.65-.65-.21-.02-.02v-1.8a.04.04 0 0 1 .02-.04l.64-.38a.04.04 0 0 1 .05.01v2.4a.04.04 0 0 1-.01.03.04.04 0 0 1-.03 0Z" fill="#99A6B2"/><path d="M8.33 8.8h-.99V5.45h.03l.96.35h.02V8.8h-.02Z" fill="#001A59"/><path d="m7.02 8.85-.83.04h-.02v-3h.01l.83-.29a.03.03 0 0 1 .02 0v.01l.01.01v3.22l-.02.01Z" fill="#99A6B2"/><path d="m9.99 6.31.83.28h.01v6.77a.02.02 0 0 1 0 .02l-.84.62a.02.02 0 0 1-.02 0v-.01l-.01-.01V6.33a.02.02 0 0 1 0-.02.02.02 0 0 1 .03 0Z" fill="#0D4080"/><path d="M11.97 8.75H11.13V6.66h.04l.8.3.02.01.01.03v1.7l-.01.03-.02.01Z" fill="#1A73B2"/><path d="m11.17 8.98.64-.03a.04.04 0 0 1 .04.03v1.85l-.02.02-.64.25a.04.04 0 0 1-.05 0 .05.05 0 0 1-.02-.04V9.03c0-.01 0-.02.02-.03l.03-.02ZM8.67 9.1l.97-.05a.02.02 0 0 1 .02 0 .02.02 0 0 1 0 .02V11.65l-.98.4a.02.02 0 0 1-.02 0l-.01-.02V9.1h.02Z" fill="#001A59"/><path d="m6.19 9.24 2.14-.11a.02.02 0 0 1 .02.01v3.02a.02.02 0 0 1 0 .02l-2.15.83h-.03V9.24h.02Z" fill="#1A73B2"/><path d="M5.03 9.24h.81a.03.03 0 0 1 .03.02v3.53a.03.03 0 0 1-.04.03l-.81-.4H5V9.26a.03.03 0 0 1 .03-.03ZM9.62 13.92l-.66-.25a.04.04 0 0 1-.02-.04V12.1a.04.04 0 0 1 .02-.04l.66-.25h.01a.04.04 0 0 1 .03.02v2.07a.04.04 0 0 1 0 .03h-.04Z" fill="#99A6B2"/></svg>