<!-- by TradingView --><svg width="18" height="18" viewBox="0 0 18 18" xmlns="http://www.w3.org/2000/svg"><path fill="#181617" d="M0 0h18v18H0z"/><path d="M13.44 10.3c0-.1.5-.34.78-.44-.6-.05-2.2.13-2.93.22-.3.12-.83.38-.51.5 1.72.03 3.94.65 3.94 1.18 0 1.16-4 1.24-6.07 1.24-.49-.27-1.16-.86-.05-.98 4.25.02 4.78-.2 4.84-.32-.6-.5-2.59-.63-3.6-.64l.84-1.77c.5-.1 1.81-.29 2.95-.29 1.43 0 2.37.08 2.37.37 0 .28-.31.55-1.04.63-.72.08-1.22.37-1.28.37-.06 0-.24 0-.24-.06Z" fill="#fff"/><circle cx="5.5" cy="4.5" r=".5" fill="#D34338"/><path d="M5.53 6H6v6.1c0 .3.23.57.5.57H7V13H4.13v-.33h.3c.29 0 .57-.26.57-.58V8c0-.74-.14-1.03-.38-1.03-.19 0-.4.07-.5.1L4 6.85 5.53 6ZM9 11.28c.16.04.33.05.5.05 1.38 0 2.5-1.2 2.5-2.66C12 7.19 10.88 6 9.5 6S7 7.2 7 8.67V13h1.66V8.5a.83.83 0 1 1 .34.67v2.11Z" fill="#D34338"/></svg>