<!-- by TradingView --><svg width="18" height="18" viewBox="0 0 18 18" xmlns="http://www.w3.org/2000/svg"><path fill="#F0F3FA" d="M0 0h18v18H0z"/><path d="M13.97 7.98A5.02 5.02 0 0 0 9 4.02a5.02 5.02 0 0 0-4.97 3.96h3.01c.37-.72 1.05-1.31 1.93-1.31.9 0 1.62.59 1.99 1.3" fill="#FD0"/><path d="M4.22 7.83h2.72C7.34 7.1 8.14 6.5 9 6.5c.87 0 1.66.6 2.06 1.33h2.72A4.85 4.85 0 0 0 9 4.17c-2.3 0-4.3 1.54-4.78 3.66Zm-.2.07A5.02 5.02 0 0 1 9 4a5.02 5.02 0 0 1 4.98 3.9L14 8h-3.04l-.03-.05c-.36-.7-1.11-1.28-1.93-1.28-.81 0-1.57.59-1.93 1.28L7.04 8H4l.02-.1Z"/><path d="M13.97 10.02A5.02 5.02 0 0 1 9 13.98a5.02 5.02 0 0 1-4.97-3.96h3.01c.37.72 1.05 1.31 1.93 1.31.9 0 1.62-.59 1.99-1.3" fill="#FD0"/><path d="M4.22 10.17h2.72c.4.73 1.2 1.33 2.06 1.33.87 0 1.66-.6 2.06-1.33h2.72A4.85 4.85 0 0 1 9 13.83c-2.3 0-4.3-1.54-4.78-3.66Zm-.2-.07A5.02 5.02 0 0 0 9 14a5.02 5.02 0 0 0 4.98-3.9L14 10h-3.04l-.03.05c-.36.7-1.11 1.28-1.93 1.28-.81 0-1.57-.59-1.93-1.28L7.04 10H4l.02.1Z"/></svg>