<!-- by TradingView --><svg width="18" height="18" viewBox="0 0 18 18" xmlns="http://www.w3.org/2000/svg"><path fill="#F0F3FA" d="M0 0h18v18H0z"/><path d="m6.78 9.04-.73.25c-.43.14-.87.27-1.32.37-.48.12-.95.15-1.4.1a.36.36 0 0 1-.24-.13.4.4 0 0 1-.09-.26c0-.61 1.34-1.33 1.83-1.55h.02v.01a.02.02 0 0 1 0 .03c-.54.33-1 .7-1.38 1.11a.2.2 0 0 0 .01.27c.03.02.06.04.1.04.15.03.34.02.55-.02.72-.15 1.4-.37 2.04-.65a31.86 31.86 0 0 0 5.57-2.7c.42-.25.83-.55 1.25-.88.17-.14.32-.3.43-.5a.19.19 0 0 0 .01-.16.18.18 0 0 0-.05-.07.16.16 0 0 0-.07-.03 1.97 1.97 0 0 0-.79-.01 8.08 8.08 0 0 0-1.03.24c.65-.37 1.31-.53 1.98-.5.3.02.48.16.53.42 0 .05 0 .1-.03.15-.14.28-.31.5-.52.7-.48.45-1.03.87-1.67 1.27-1.6 1-3.26 1.84-5 2.5Z" fill="#232021"/><path d="M6.5 7a.5.5 0 1 0 0-1 .5.5 0 0 0 0 1Z" fill="#0E4C96"/><path d="M10.58 14h-.2L10 8.73a1 1 0 0 1 .24-.75c.13-.15.28-.26.44-.33.2-.1.32 0 .32.27 0 .58-.02 1.2-.08 1.86L10.58 14Z" fill="#232021"/><path d="M6.66 8.44c-.15.08-.32.14-.49.17-.02-.27.05-.48.21-.62a.09.09 0 0 1 .12 0c.08.09.13.23.16.45ZM6.78 9.04c.1.93.1 1.82.02 2.7a3.47 3.47 0 0 1-.3 1.02.1.1 0 0 1-.13-.01.67.67 0 0 1-.14-.31 9.89 9.89 0 0 1-.18-3.15l.73-.25Z" fill="#0E4C96"/></svg>