<!-- by TradingView --><svg width="18" height="18" viewBox="0 0 18 18" xmlns="http://www.w3.org/2000/svg"><path fill="#F0F3FA" d="M0 0h18v18H0z"/><path d="M5.36 9.89 4.9 9.5c-.13.1-.52.6-.52.85 0 .5.92.64 1.78.65.3 0 .6-.01.84-.03-1.56-.08-2-.41-2-.67 0-.2.24-.36.36-.41ZM12.77 7.6l.37.4c.1-.08.46-.5.47-.73.05-.62-1.07-.84-1.84-.75 1.17.21 1.34.51 1.32.74-.01.2-.22.31-.32.35ZM5.06 8.69 8.9 4.1c.17-.2.45-.1.49.18.1.87.03 1.48-.47 2.66A3.53 3.53 0 0 1 6.8 8.79c1.62.16 3.15-2.29 3.72-3.53l.77.95a5.66 5.66 0 0 1-5.43 2.95c.18.08.71.23 1.48.23 1.95 0 3.87-1.64 4.59-2.45l.97 1.11c.16.2.12.52-.09.63-1 .55-2.79 1.32-4.38 1.32a5.77 5.77 0 0 1-3.35-.98c-.1-.07-.1-.23-.02-.33Z" fill="#4DB648"/><path d="M4.56 9.18 4.41 9C3.68 9.44 3 10.25 3 10.79S3.33 12 5.32 12a15 15 0 0 0 8.27-2.8C14.7 8.31 15 7.5 15 7.15 15 6.2 13.66 6 12.8 6c-.68 0-1.4.09-1.68.13l.38.28c1.36-.23 2.5.23 2.5.83 0 .84-1.43 2.14-3.31 2.93-1.5.63-3.14.88-4.66.88-1.6 0-2.03-.54-2.03-.98 0-.35.34-.72.56-.89ZM9.16 14 8 12.72A17.3 17.3 0 0 0 13 10l-3.84 4Z" fill="#004D7C"/></svg>