<!-- by TradingView --><svg width="18" height="18" viewBox="0 0 18 18" xmlns="http://www.w3.org/2000/svg"><path fill="#F0F3FA" d="M0 0h18v18H0z"/><path d="M5 5h8v8H5V5Z"/><path d="m5.85 6.64.98-.83.1-.04c.15-.08.45-.22.5-.22.02 0 .06.04.07.06 0 0-.01.05-.17.18l-.18.15c-.43.33-1.38 1.08-1.66 1.41l.9-.7c.04-.03-.05.16-.15.24l.11-.07c.29-.2.93-.63 1-.7.1-.1.42-.3.47-.3.03 0 .3-.25.55-.46l.35-.3.63-.04c-.03.04-.15.13-.24.2l-.09.06.03.01c.04 0 .1 0 0 .1-.02 0-.11.1-.23.23l-.43.43-.63.5-.26.23.71-.44 1.43-.96c.06 0 .2.08.17.12L7.68 7.13l-1.14.43-1.53 1.13v-.35l1.41-1.06c-.33.23-1 .7-1.03.7l-.38.18V7.2c.13-.12.3-.21.45-.3.14-.07.28-.15.39-.25ZM5 6.77v-.23c.16-.16.84-.77 1.05-.88.17-.08.18-.05.17-.03l.22-.19c.08-.05.08 0 .07.02a.58.58 0 0 1 .13-.1c.05-.03.07 0 .08.01-.16.13-.49.4-.5.44-.02.02 0 .02.04.02h.11c.02 0 .03-.02.05-.04a.77.77 0 0 1 .07-.05l.04-.03c.02 0 .03 0 .08-.05.1-.08.16-.1.2-.1h.05c0 .01.02.02.04 0 .03-.03.06 0 .07.03L5 7.14v-.21l.83-.8c-.1.06-.6.45-.83.64ZM5 8.9l.4-.36.45-.37c.13 0 .24-.1.35-.2.08-.08.17-.16.27-.2.08-.04.23.02.15.1l-.49.43-.28.24c-.05.06.26-.1.4-.23.09-.06.37-.15.62-.23.2-.06.37-.11.43-.15.1-.07.11-.3.1-.4l.68-.5.25-.2v1.06c-.19.11-.58.35-.6.35-.6.22-1.36.53-1.36 1.1L5 10.28V10l.68-.55c-.01 0 .01-.31.04-.34l.38-.38-.92.65-.18.07v-.55Zm5-2.86c-.04.01-.2.14-.28.2v.26a5.1 5.1 0 0 1 .47-.38c.07-.06.14-.13.13-.16 0-.02-.02-.01-.04 0h-.08c-.04 0-.08.04-.11.08l-.05.06c-.02 0-.02 0-.02-.02s0-.04-.02-.04Zm-.27.58c.1-.08.35-.25.41-.26h.09c.04 0 .06.01.08-.02.03-.05.1-.1.12-.08v.05c-.01.02-.02.04-.01.05l.02.01c.02.02.04.03.01.05a.3.3 0 0 1-.06.05c-.03.01-.05.02-.06.04l.03-.01a6.4 6.4 0 0 1-.55.49c-.11.08-.12-.02-.11-.06l.03-.3Z" fill="#33F90C"/><path d="m8.05 8.01-1.62 1.3a.92.92 0 0 0-.09.08c-.05.06-.08.08-.12.01l-.45.34-.46.36c-.04.02-.08.11-.02.13.03.05.12 0 .22-.07.11-.08.24-.16.31-.1l-.01.03c-.26.32-.5.62-.81.94v.33c.05-.06.53-.53.67-.29 0 .02-.44.49-.67.72v.33l.8-.6.66-.49.46-.09c-.5.25-1.02.81-1.47 1.3l-.45.47v.08c.07.08.22.22.28.2.06 0 .3-.23.54-.48.3-.3.62-.63.66-.57.03.03.72-.67 1.07-1.02.3-.24.5-.7.67-1.05.17-.4.3-.68.47-.47.09.1.57.08.8.05l.77-.61c-.08-.24-.02-.73.22-.81.06-.02 0-.14-.03-.16-.07-.05-.25.04-.37.1a3.03 3.03 0 0 0-.42.3l-1.14.68-.2.13c-.1.05-.2.08-.24.08.03-.04.49-.76.23-.6-.51.34-.2-.15-.07-.33 0-.02.02-.04.03-.05.02-.04.78-.3 1.16-.44l1-.38c.1-.08.34-.18.59-.27.31-.13.61-.25.58-.3l.1-.06.35-.15c.07-.04.65-.48.7-.55.03-.06.1-.4-.07-.36l-.08.06a.98.98 0 0 1-.34.2c-.05.01-.8.46-1.07.62l-.09.05-.62.44c-.2.14-1.45.53-2.05.7l-.35.3c.02-.01-.01-.03-.03-.03Zm3.65-1.1c-.06.01-.3.16-.4.23 0 .05.05.16.2.16.12-.12 1.05-.7 1.5-.99V6.1c-.14.1-.43.3-.44.26 0-.04-.42.24-.63.4a.78.78 0 0 1-.23.16Zm-.14.65a15.4 15.4 0 0 0 .38-.24c.04-.03.08-.05.11-.03.05.02.32-.18.39-.25l.03-.04c.07-.06.12-.11.15-.09.03.03.08.02.1 0 .02 0 .03-.02.05-.03.06-.05.13-.11.16-.11H13v.2l-.72.43c-.2.13-.54.39-.68.5l-.04-.34Z" fill="#EDF700"/><path d="m9 9.97-1.23.96c-.26.25-.53.68-.83.87.05-.03.15-.1.2-.1.1-.05.31-.24.39-.3.03-.01.13-.1.24-.2.12-.08.2-.17.25-.24.06-.07.33-.24.4-.2.22.1-.02.55-.16.61-.15.07-.38.5-.56.48-.03 0-.04-.01 0-.05.2-.19.65-.44.65-.76 0-.06-.18-.1-.22-.08l-.99.95L6.31 13c.03-.03.16.02.2 0 .28-.15.64-.74.93-.79.09-.01.1-.05.26-.17.17-.11.5-.38.6-.48 1.78-1.75 2.33-1.5.1.1-.5.44-1 .87-1.46 1.34.03 0 .13.02.2 0 .08-.03.6-.5.86-.74.8-.72 1.71-1.34 2.56-1.98.05-.04.15-.14.18-.14.03-.01.22.1.23.1l-.16.18c-.03.03-.17.2-.25.24-.07.04-.14 0-.17-.03l-.47.3-1.35 1.03-.22.27.4-.19c.27-.32.86-.79 1.29-.93.06-.02.27-.32.3-.3.03.03.02.18-.02.2-.44.34-.82.74-1.25 1.09-.18.14-.57.56-.65.54l-.3.36c.2.21 1.47-1.05 1.53-1.1.2-.2.53-.3.7-.51l.07.14-.19.18c-.1.11-.42.28-.45.3l-.36.6c1.13-.4.27.18 1.32-.77l.81-.9c.03 0 .21-.07.72-.44.64-.46.59-.56.6-.58.04-.23-.5.2-.54.23-.1.1-.3.24-.38.29-.1.04-.22.05-.27.06a.7.7 0 0 0-.18.16l-.03-.07.18-.2a.15.15 0 0 1-.03-.2l.8-.64c.11-.1-.2-.1-.23-.11-.07 0-.16.14-.21.15-.06 0-.15.07-.22.12-.08.05-.14.1-.23.08-.07-.02.44-.54.5-.57.04-.03.22-.27.44-.45.16-.11.16-.25.3-.37 0-.02 0-.06-.03-.06-.04.01-.06.07-.15.06-.2 0-.3.31-.56.31-.13 0-.3.32-.4.4-.24.2-.72.57-.71.58 0 0-.7-.46-.72-.45-.06 0-.43.33-.48.39-.05.05-.5.25-.71.35Z" fill="#F6000B"/><path d="M9.62 13h.29a5.24 5.24 0 0 1 .36-.34c0 .01.01.02.03.02.02 0 .15-.11.2-.17l-.37.49h.33l.39-.32c.03-.04.1-.03.08 0 0 .03-.19.22-.28.32h.37a10.99 10.99 0 0 1 .79-.75l.03.04.05-.05a2 2 0 0 0 .17-.18c0 .03.05.07.14-.02l.52-.51c.01 0 .05 0 .09-.05l.19-.2v-.57c-.09.1-.28.3-.32.3a.1.1 0 0 1-.04 0c-.02-.01-.03-.02-.08.02l-.08.08c-.05.05-.1.11-.14.12h-.03a5.8 5.8 0 0 0-.82.78l.1-.17-.23.04c0 .02 0-.08.04-.13l.1-.14.13-.2.04.23c.03 0 .12-.06.27-.2a12.2 12.2 0 0 1 .38-.32c.03-.03.1-.1.13-.1.05 0 .06 0 .15-.08.08-.06.3-.27.4-.37v-.15c-.1.06-.29.21-.34.29-.04.04-.02.01 0-.04.01-.04.03-.1.02-.11h-.05l-.04-.01c0-.02.14-.15.23-.23l.18-.14V10l-.64.52c-.17.14-.77.56-.78.57-.01 0-1.58 1.44-1.6 1.48-.03.03.03.01.06 0l-.42.43Zm3.15-.07-.06.07h-1.13c.15-.12.31-.33.48-.55.46-.6.94-1.21.94.17l-.23.3Z" fill="#08FCFD"/><path d="M6.33 10.14V8h1.34v1.63c0 .49.25.59.4.59.13 0 .23-.06.26-.08V6.17h1.54v.92c.25-.13.53-.18.64-.19.98 0 1.35.7 1.42 1.04V10H10.5V8.21c0-.22 0-.42-.29-.42a.36.36 0 0 0-.35.26v3.8H8.33V10.7c-.28.26-.61.35-.74.36-1.07.03-1.26-.6-1.26-.92Z"/><path d="M6.33 8v2.14c0 .32.19.95 1.26.92.03 0 .08 0 .13-.02h-.04c-.19-.03-.21-.31-.38-.35-.14-.02-.19-.18-.23-.29-.04-.09-.06-.2-.08-.34v-.08c-.03-.17.04-.48-.03-.63-.06-.11-.12-.34-.05-.46.02-.05-.01-.11.02-.15.07-.09-.05-.27.03-.38.04-.06 0-.28 0-.36h-.63ZM9.1 11.85h-.77v-.96a1056.15 1056.15 0 0 0 .45-.55c.02-.06.04-.13.07-.13h.13c0-.01 0-.02.02-.03h.02c.03-.02.05-.03.08 0 .05.04.08.18.08.2l-.09 1.47ZM8.82 9.93c.06-.05.22-.18.3-.32.1-.15.1-.2.09-.26V6.33h-.87V10.16a3.48 3.48 0 0 0 .48-.23Z" fill="#67A797"/><path d="M11.07 10h-.56V8.18c0-.18 0-.35-.2-.39.1-.05.22-.1.28-.09l.4.11V9.9l.08.11Z" fill="#6CAC9B"/><path d="M8.8 9.6V6.33h-.47v3.79c.03.03.06.01.09 0l.05-.01c.03 0 .13-.07.21-.14l.13-.08c.03 0 0-.15-.01-.29Zm-2.47.58V8h.3c-.1.04-.05.42 0 .84.07.47.13 1 .04 1.2-.04.06-.01.2.03.26.07.12.31.5.63.76-.79-.1-1-.6-1-.88Zm4.5-.18h-.32V8.18c0-.2 0-.38-.26-.4a.16.16 0 0 1 .05-.02l.09-.04c.06-.03.38.12.37.2V9.9a.2.2 0 0 1 .08.09Zm-2.5 1.85h.43c.21-.25.1-1.65.1-1.65-.03 0-.06.03-.1.07-.04.04-.1.1-.15.1-.07.02-.2.2-.28.34v1.14Z" fill="#C0E1D2"/><circle cx="6.83" cy="6.83" r=".83"/><path d="M7.64 7.04a.83.83 0 1 1-1.03-1.01c.04.03.1.08.12.08l.06-.01c.03-.01.04-.02.03.03a.36.36 0 0 1-.03.06c-.02.03-.04.06-.04.12 0 .17.53.8.64.75.07 0 .13 0 .18-.02h.07Z" fill="#69A897"/><path d="M6.54 6.05c-.04.05-.08.12-.07.15l.02.03c.02.04.03.05-.02.08-.51.42.44 1.09.78 1.11l.16-.01h.03A.83.83 0 0 1 6 6.82c0-.35.22-.66.54-.78Z" fill="#BFE9DD"/><path d="M7.55 7.26a.83.83 0 0 1-1.43-.58c0-.16.05-.3.12-.43a.83.83 0 0 0 .6 1.42c.3 0 .56-.16.7-.4Z" fill="#F8F7F5"/><circle cx="11.17" cy="11.17" r=".83"/><path d="M11.96 11.4a.83.83 0 1 1-1.01-1.04c.03.04.08.08.12.08h.05c.03-.02.05-.02.03.02a.36.36 0 0 1-.03.07c-.02.03-.04.06-.03.11 0 .07.05.17.09.25.03.07.06.12.05.15-.01.13.25.26.37.3a2.64 2.64 0 0 0 .37.07Z" fill="#69A897"/><path d="m11.78 11.73-.04.01c-.05 0-.1.02-.16.01-.36-.02-.7-.45-.88-.71-.11-.15.06-.5.18-.66a.83.83 0 1 0 .9 1.35Z" fill="#BFE9DD"/><path d="M11.88 11.6a.83.83 0 0 1-1.43-.59c0-.16.05-.3.13-.43a.83.83 0 0 0 .59 1.42c.3 0 .56-.16.71-.4Z" fill="#F8F7F5"/><path fill-rule="evenodd" d="M14 4H4v10h10V4Zm-.5.5h-9v9h9v-9Z"/></svg>