<!-- by TradingView --><svg width="18" height="18" viewBox="0 0 18 18" xmlns="http://www.w3.org/2000/svg"><path fill="#F0F3FA" d="M0 0h18v18H0z"/><path d="m12.89 8.24-.16.42a1.35 1.35 0 0 0-.56-.13c-.2 0-.38.13-.38.32s.18.28.48.4c.44.2.73.45.73.88 0 .63-.76.87-1.2.87-.36 0-.68-.15-.8-.22l.17-.51c.12.05.4.17.62.17.29 0 .54-.1.54-.3 0-.21-.27-.37-.6-.52-.33-.15-.63-.32-.63-.73 0-.63.57-.89 1.04-.89.3 0 .63.16.75.24Z" fill="#0F467C"/><path d="M9.5 11C8.44 11 8 10 8 9s.45-2 1.5-2S11 8 11 9s-.44 2-1.5 2Zm0-.6c.67 0 .75-.86.75-1.4 0-.55-.09-1.42-.75-1.42s-.75.87-.75 1.41c0 .55.08 1.42.75 1.42ZM7 7v4h-.72V7.66L6 7.95v-.62L6.37 7H7Z" fill="#F26522"/><path d="M4 9.26V11h-.67V8H4v.54h.03c.1-.33.2-.54.52-.54.55 0 .79.57.78 1.11V11h-.66V9.22c0-.3 0-.63-.32-.63-.28 0-.35.24-.35.67ZM2.72 7v4H2V7h.72ZM13 7h1v1h-1zM14 6h1v1h-1z" fill="#0F467C"/><path d="M15 5h-2v1h2v2h1V5h-1Z" fill="#F26522"/></svg>