<!-- by TradingView --><svg width="18" height="18" viewBox="0 0 18 18" xmlns="http://www.w3.org/2000/svg"><path fill="#F0F3FA" d="M0 0h18v18H0z"/><path d="M15 7.26v.51a3.58 3.58 0 0 0-1.35-.22c-.52 0-1 .17-1 .5 0 .32.66.57 1.3.88.65.32 1.05.66 1.05 1.1 0 .74-1.17.97-2.22.97a7.1 7.1 0 0 1-1.78-.22v-.67c.34.09 1.14.27 1.57.27.55 0 1.08-.15 1.08-.43 0-.29-.84-.63-1.3-.87-.46-.24-1.17-.68-1.17-1.1 0-.75 1.06-.98 2.31-.98 1 0 1.45.17 1.51.26ZM3.2 7h1.3l-.2 4H3l.2-4ZM5.63 7h3.73c.33.09.99.41.99.99 0 .51-.43.77-.65.83a5.22 5.22 0 0 0-1.02-.28.5.5 0 0 0 .32-.48c0-.39-.3-.43-.58-.43H7L6.93 8.7h1.78c.28 0 1.7.34 1.7 1.28 0 .74-.78.99-1.17 1.02H5.41l.22-4Zm1.2 3.5h1.54c.26-.02.8-.15.8-.55 0-.51-.46-.7-1.17-.7H6.9l-.06 1.25Z" fill="#DB001C"/></svg>