<!-- by TradingView --><svg width="18" height="18" viewBox="0 0 18 18" xmlns="http://www.w3.org/2000/svg"><path fill="#F0F3FA" d="M0 0h18v18H0z"/><path fill-rule="evenodd" d="m9 3.42-2 2V5l2-2 2.46 2.46.45-.46h1.36l-1.13 1.14L15 9l-2.72 2.72L13.5 13h-2.27l-.12-.11L9 15l-2-2H4.67v-2.33L3 9l1.67-1.67V5H7v2.47H4.95L3.42 9l1.25 1.25V8.29H7v1.62l4.25-4.24L9 3.42Zm-2 9.16 2 2 1.9-1.9L8.29 10 7 11.28v1.3Zm5.07-1.07L14.58 9l-2.65-2.65L9.5 8.81l2.57 2.7Zm-5.4-4.4H5V5.36h1.67v1.77Zm5.37-1.76h.41L8.97 8.8l3.7 3.85h-1.29L8.27 9.57l-1.6 1.54v1.54H5v-4h1.67v1.59h.48l4.89-4.89Z" fill="#A10F22"/></svg>