<!-- by TradingView --><svg xmlns="http://www.w3.org/2000/svg" width="18" height="18" viewBox="0 0 18 18"><path fill="#F0F3FA" d="M0 0h18v18H0z"/><path d="M10.9 8.18A8.31 8.31 0 0 1 2 7.24c4.97 5.7 8.81 3.95 10.58 2.07A14.79 14.79 0 0 1 16 6.55c-1.45-.3-3.42.84-5.1 1.63z" fill="url(#anncxcdom)"/><path d="M11.37 10.64c-3.24 2.19-6.38.12-7.54-1.19.37.97 2.26 3.6 4.32 3.55 1.66-.04 2.84-1.59 3.22-2.36z" fill="url(#bnncxcdom)"/><defs><linearGradient id="anncxcdom" x1="15.22" y1="7.16" x2="2.55" y2="7.26" gradientUnits="userSpaceOnUse"><stop stop-color="#73A434"/><stop offset=".92" stop-color="#CADB2F"/></linearGradient><linearGradient id="bnncxcdom" x1="3.83" y1="10.22" x2="10.43" y2="11.18" gradientUnits="userSpaceOnUse"><stop stop-color="#73A434"/><stop offset="1" stop-color="#CADB2F"/></linearGradient></defs></svg>