<!-- by TradingView --><svg width="18" height="18" viewBox="0 0 18 18" xmlns="http://www.w3.org/2000/svg"><path fill="#F0F3FA" d="M0 0h18v18H0z"/><circle cx="9" cy="9" r="5" fill="#1B1714"/><circle cx="9" cy="9" r="4.87" fill="#F15C62"/><circle cx="9" cy="9" r="4" fill="#F58881"/><circle cx="9" cy="9" r="3" fill="#FCC9C3"/><circle cx="9" cy="9" r="2" fill="#FCEAE2"/><path d="M8 5h2v.48h-.06c-.24 0-.44.2-.44.46v6.12c0 .25.2.46.44.46H10V13H8v-.48h.06c.24 0 .44-.2.44-.46V5.94c0-.25-.2-.46-.44-.46H8V5Z" fill="url(#a)"/><path d="M8.33 5.32c.23 0 .67.07.67.36v6.64c0 .29-.44.36-.67.36.34-.16.43-.3.43-.36V5.68c0-.05-.09-.2-.43-.36Z" fill="#FBFFFF"/><path d="M12.36 8.67a.27.27 0 0 0-.06.14l.04.02.26-.14.05.02c0 .03 0 .05-.02.07-.1.06-.2.1-.32.13 0 0-.02 0-.03.02a.07.07 0 0 0-.02.03l-.3.87a.22.22 0 0 1-.15.14l-.08.02c-.08.02-.1 0-.07-.06l.37-.96c0-.01 0-.03-.02-.03-.04 0-.06-.02-.07-.05l.01-.03c.09-.06.14-.1.17-.19.08-.27.17-.54.27-.8.1-.27.22-.5.4-.73.04-.06.08-.1.14-.13a.11.11 0 0 1 .07 0 .1.1 0 0 1 .07.03c.1.15.01.56-.05.68-.18.34-.4.64-.66.95Zm.1-.37c-.01.06 0 .06.04.01a3.96 3.96 0 0 0 .44-.87l.06-.27c0-.04 0-.05-.04-.02l-.03.05c-.16.32-.32.68-.46 1.1ZM11.18 7.83a.3.3 0 0 1-.19-.09.03.03 0 0 1 0-.04c.08-.04.64-.32.52-.5-.06-.06-.19-.08-.28-.08-.29 0-.55.08-.77.23-.13.1-.27.25-.2.41a.7.7 0 0 0 .15.2l.42.33c.42.3.38.82-.1 1.01-.12.05-.24.08-.36.09-.38.03-.74-.01-1.1-.15h-.03c-.06.04-.1.1-.16.1-.13.04-.19-.05-.16-.17 0-.06 0-.06-.04-.02l-.1.11c-.09.07-.15.1-.2.1-.2-.04-.2-.25-.12-.4.1-.22.32-.44.57-.4.05.04.1.04.19.03.02 0 .04 0 .07.03l-.2.55c-.01.03 0 .04.03.04l.07-.04.1-.11h.04a1.99 1.99 0 0 0 1.2.19c.13-.03.32-.13.38-.25.06-.13.04-.26-.05-.39a37.5 37.5 0 0 1-.58-.5c-.17-.14-.29-.34-.18-.6.12-.22.38-.36.62-.43.23-.07.6-.13.8 0 .1.05.14.14.12.25-.04.2-.3.4-.46.5ZM8.64 9.21c.16-.03.32-.32.39-.44.03-.06.01-.1-.06-.1h-.01a.18.18 0 0 0-.18.08c-.08.12-.2.31-.18.44a.03.03 0 0 0 .04.02ZM6.06 7.3c-.03.43-.13.85-.3 1.26 0 .02 0 .04.03.04h.14c.07 0 .05.12-.01.11l-.17-.04s-.02 0-.03.02a3.9 3.9 0 0 1-.17.32.9.9 0 0 1-.54.38c-.24.03-.47 0-.67-.1-.05-.03-.06-.07-.03-.12v-.01c.03-.05.07-.06.11-.03.13.08.26.13.4.15.27.02.45-.14.58-.37l.14-.26a.06.06 0 0 0 0-.08.64.64 0 0 1-.22-.41 1.4 1.4 0 0 1 .42-1.1c.09-.08.2-.09.27.03l.05.2ZM5.6 8.47c.12-.3.2-.61.28-.93.03-.13.05-.25.05-.38 0-.04-.04-.07-.08-.05a.22.22 0 0 0-.09.1 1.92 1.92 0 0 0-.28.82c-.01.16.02.32.1.45h.02ZM13.04 9.38c-.2.07-.24-.09-.2-.25a7.13 7.13 0 0 1 .14-.57l-.05-.02a.03.03 0 0 1-.02-.03l.01-.06c.02-.03.07-.02.1-.02l.02-.02.11-.4c.04-.1.1-.13.18-.1.02.02.04.04.03.07l-.12.42c0 .01 0 .03.02.03h.12c.02 0 .03.01.03.03v.02c0 .03-.02.06-.05.06h-.14a9.59 9.59 0 0 0-.22.68c0 .02 0 .05.03.05h.02l.19-.16h.01c.02-.01.04 0 .04.01.01.03 0 .06-.01.07l-.24.2ZM6.76 8.53c.05.06.06.13.05.21-.03.14-.08.3-.14.45-.01.03 0 .05.02.05 0 0 .02 0 .03-.02l.13-.13a.09.09 0 0 1 .04-.03c.02 0 .04 0 .05.02v.04a.7.7 0 0 1-.14.17c-.07.07-.12.1-.16.1-.14.02-.15-.1-.12-.24a8.74 8.74 0 0 1 .14-.5c-.02-.05-.04-.05-.07-.01a6.2 6.2 0 0 0-.4.75c-.06 0-.1-.02-.12-.03l-.01-.04.18-.71c0-.05.04-.08.08-.1h.05c.04-.02.06 0 .04.06a1.5 1.5 0 0 1-.07.24c-.01.02.02.05.03.03l.14-.24c.07-.1.16-.13.25-.07ZM8.41 8.68c0 .07-.01.13-.04.19a.4.4 0 0 1-.16.1c-.04.02-.08-.01-.06-.05l.05-.16c.02-.05 0-.05-.03-.02-.05.04-.1.1-.16.18-.1.14-.17.28-.23.41a.12.12 0 0 1-.11.07h-.08c-.05 0-.07-.02-.05-.07.06-.19.12-.38.16-.57.02-.09.04-.15.06-.17a.27.27 0 0 1 .21-.08c.03 0 .05.03.04.05l-.08.18c-.04.09-.03.1.03.02l.17-.19c.13-.15.28-.05.28.11Z" fill="#1B1714"/><path d="M11.53 9.36c-.17.08-.38.05-.45-.14-.07-.18.05-.4.18-.52a.69.69 0 0 1 .26-.17c.28-.11.5.12.4.4a.75.75 0 0 1-.4.43Zm-.2-.08c.03.02.08 0 .14-.05a.74.74 0 0 0 .24-.46c.01-.08 0-.13-.04-.15-.04-.02-.1 0-.15.05a.7.7 0 0 0-.16.2.71.71 0 0 0-.08.26v.1l.05.05ZM7.11 9.25c0 .01 0 .02.02.02a.63.63 0 0 0 .19-.15.07.07 0 0 1 .07-.01l.02.04v.02c-.1.13-.2.2-.3.22-.13.04-.18-.06-.17-.18l.03-.15c.04-.17.1-.33.15-.48.01-.04-.06-.04-.08-.05a.03.03 0 0 1-.02-.02c-.01-.04 0-.06.03-.07l.07-.02c.01 0 .02 0 .03-.02l.12-.42c.01-.05.05-.08.1-.08h.05c.05 0 .07.02.05.07l-.13.44.02.02h.13c.03 0 .04 0 .04.03v.02c0 .04-.02.06-.05.06h-.16l-.02.02a24.29 24.29 0 0 1-.19.7Z" fill="#1B1714"/><defs><linearGradient id="a" x1="9" y1="5" x2="9" y2="13" gradientUnits="userSpaceOnUse"><stop stop-color="#484FA9"/><stop offset=".48" stop-color="#CDCAE0"/><stop offset="1" stop-color="#40509F"/></linearGradient></defs></svg>