<!-- by TradingView --><svg width="18" height="18" viewBox="0 0 18 18" xmlns="http://www.w3.org/2000/svg"><path fill="#F0F3FA" d="M0 0h18v18H0z"/><path d="M11.25 8.94c0-.67-.21-1.34-.61-1.91.72 1.63-.04 3.24-1.5 4.17-1.57.97-3.67 1.12-5.14 0 .53.58 1.25 1 2.06 1.2.8.2 1.67.19 2.46-.06.8-.25 1.49-.7 1.98-1.32.48-.6.75-1.33.75-2.08Z" fill="#00A887"/><path d="M11.14 11.7a4.08 4.08 0 0 1-1.78 1.37 4.4 4.4 0 0 1-4.37-.41 4.49 4.49 0 0 0 5.53.67 3.6 3.6 0 0 0 1.63-2.22c.2-.9.02-1.84-.53-2.62.5 1.1.23 2.24-.48 3.22Z" fill="#00A887"/><path d="M10.84 5.47c-.72 0-1.44.17-2.06.5-.63.32-1.15.79-1.5 1.35a3.28 3.28 0 0 0 .09 3.66c-.72-1.63.11-3.33 1.58-4.25a4.47 4.47 0 0 1 5.05.09 4.03 4.03 0 0 0-1.4-1 4.51 4.51 0 0 0-1.76-.35Z" fill="#001589"/><path d="M6.9 6.27A4.09 4.09 0 0 1 8.7 4.91a4.33 4.33 0 0 1 4.33.44 4.49 4.49 0 0 0-5.54-.69A3.6 3.6 0 0 0 5.84 6.9c-.2.9 0 1.84.54 2.62-.48-1.1-.19-2.26.53-3.25Z" fill="#001589"/></svg>