<!-- by TradingView --><svg width="18" height="18" viewBox="0 0 18 18" xmlns="http://www.w3.org/2000/svg"><path fill="#F0F3FA" d="M0 0h18v18H0z"/><path d="M6 8h1v6H6V8Z" fill="#CF8001"/><path fill-rule="evenodd" d="M11.5 14c1.56 0 2.5-1.34 2.5-3s-.94-3-2.5-3S9 9.34 9 11s.94 3 2.5 3Zm0-.7c.83 0 1.5-1.03 1.5-2.3 0-1.27-.67-2.3-1.5-2.3S10 9.74 10 11c0 1.27.67 2.3 1.5 2.3Z" fill="#CF8001"/><path d="M7.5 6.61a1 1 0 1 1-2 0 1 1 0 0 1 2 0Z" fill="#B94700"/><path d="M8.22 7.67a2.08 2.08 0 1 0-2.97.5v.5a2.5 2.5 0 1 1 3.5-1.09l-.53.1Z" fill="#9D9E96"/><ellipse cx="4.83" cy="5.13" rx=".5" ry=".48" fill="#B94700"/></svg>