<!-- by TradingView --><svg width="18" height="18" viewBox="0 0 18 18" xmlns="http://www.w3.org/2000/svg"><path fill="#F0F3FA" d="M0 0h18v18H0z"/><path d="M9 6c-1 .6-2.2 1.34-2.16 3.09.03.93.44 1.64 1.02 2.13.36.3.75.57 1.15.78H2V6L2.01 6h6.98Z" fill="#78797C"/><path d="M9.01 6H16v6H9.01c.97-.56 2.12-1.3 2.15-2.93.04-1.72-1.15-2.48-2.15-3.07Z" fill="#F79422"/><path d="M9 6.4a179.72 179.72 0 0 1 .01.5l-.42-.23v-.01L9 6.4Z" fill="#78797C"/><path d="m9 6.4.41.26v.01l-.4.24A184.28 184.28 0 0 0 9 6.4Z" fill="#F79422"/><path d="m8.25 7.55-.42-.24v-.02a3.5 3.5 0 0 1 .48-.42l.4.23c.02 0 .02.01 0 .02a3.08 3.08 0 0 0-.46.43Z" fill="#78797C"/><path d="m10.17 7.31-.41.24h-.02a2.83 2.83 0 0 0-.45-.45l.4-.23a.02.02 0 0 1 .03 0 3.67 3.67 0 0 1 .45.44Z" fill="#F79422"/><path d="M9 7.32v1c-.12-.21-.27-.4-.45-.55v-.01A2.2 2.2 0 0 1 9 7.32Z" fill="#78797C"/><path d="M9 7.32h.02c.16.12.3.26.44.44v.01c-.18.15-.33.33-.46.56V7.32Z" fill="#F79422"/><path d="M8.05 7.84A2.3 2.3 0 0 0 7.97 10l.11.2v.03l-.43.24h-.02a2.61 2.61 0 0 1-.02-2.88l.44.24v.01Z" fill="#78797C"/><path d="M10.36 10.46a2.51 2.51 0 0 1-.43-.26 2.28 2.28 0 0 0 .03-2.37l.44-.24h.01a2.6 2.6 0 0 1-.05 2.87Z" fill="#F79422"/><path d="M8.8 8.68c.15.53-.1 1.01-.42 1.3a2.12 2.12 0 0 1-.04-1.92h.02c.17.14.36.35.43.62Z" fill="#78797C"/><path d="M9.66 8.06c.3.58.3 1.35-.02 1.92h-.01c-.6-.55-.62-1.41.02-1.92h.01Z" fill="#F79422"/><path d="M9.01 9.71 9 9.75v.94c-.16-.12-.3-.26-.44-.42v-.03a1.73 1.73 0 0 0 .45-.53Z" fill="#78797C"/><path d="M9.01 9.71c.12.22.26.4.43.54v.02c-.13.16-.28.3-.44.42a1965.7 1965.7 0 0 0 .01-.98Z" fill="#F79422"/><path d="m8.72 10.9-.41.23h-.02c-.15-.12-.3-.25-.44-.4v-.02l.42-.24h.01a3 3 0 0 0 .44.42Z" fill="#78797C"/><path d="m9.7 11.13-.4-.24v-.01a3 3 0 0 0 .44-.4l.42.23v.01a3.49 3.49 0 0 1-.46.4Z" fill="#F79422"/><path d="M9 11.08v.51l-.4-.24v-.02a7.7 7.7 0 0 0 .4-.24Z" fill="#78797C"/><path d="m9 11.08.41.25-.4.26v-.5Z" fill="#F79422"/><path fill="#E7E7E7" d="M3 8h3v2H3zM12 8h3v2h-3z"/></svg>