<!-- by TradingView --><svg width="18" height="18" viewBox="0 0 18 18" xmlns="http://www.w3.org/2000/svg"><path fill="#F0F3FA" d="M0 0h18v18H0z"/><path fill-rule="evenodd" d="M4 14h10V4H4v10Zm7.36-8.16.18.22.24.06-.12.1.19.24-.27-.17-.14.1-.04-.22-.27-.19.25.05-.02-.2Zm1.27 1.6-.21-.28.06.27h-.24l.29.19.08.3.1-.18.29.18-.23-.3.09-.17-.23-.01Zm.06 1.45.29.4.27-.06-.08.32.3.44-.36-.2-.12.36-.13-.51-.37-.23.3-.08-.1-.44ZM7.42 5.2l-.17-.31-.2.24-.6-.12.48.3-.21.3.51-.11.47.27-.17-.34.41-.1-.52-.12Zm3.78 5.56.36.64.47-.2-.22.64.39.73-.56-.26-.32.82-.07-1-.59-.32.56-.26-.03-.79ZM6.08 7.13l-.2-.5-.38.48-.98-.04.7.4-.45.63.92-.39.69.36-.18-.58.67-.31-.8-.05ZM7.5 9.76l.3.72.8-.17L8 11l.3.85-.8-.33-.9.94.38-1.18-.82-.4 1.04-.26.3-.86Zm2.2-4.63-.17-.24-.05.18-.35-.09.32.22-.04.21.25-.07.32.2-.17-.25.21-.07-.32-.1Z" fill="#777776"/></svg>