<!-- by TradingView --><svg width="18" height="18" viewBox="0 0 18 18" xmlns="http://www.w3.org/2000/svg"><path fill="#F0F3FA" d="M0 0h18v18H0z"/><path d="M7.94 4.11a5 5 0 0 1 4.36 1.12c1.62 1.51 2.08 3.38 1.38 5.6a.16.16 0 0 1-.1.1.15.15 0 0 1-.15-.04l-.96-.96a.2.2 0 0 1-.06-.2c.8-4.14-4.84-5.91-6.63-2.21-.6 1.23-.4 2.68.49 3.7a3.48 3.48 0 0 0 3.71 1.13c.1-.02.2 0 .27.07l.95.97a.1.1 0 0 1 .03.1.1.1 0 0 1-.07.07 6.1 6.1 0 0 1-2.98.38C2.8 13 2.5 5.27 7.94 4.11Z" fill="#58585B"/><path d="M9 10.5c.92 0 1.67-.72 1.67-1.61 0-.89-.75-1.6-1.67-1.6-.92 0-1.67.71-1.67 1.6 0 .89.75 1.6 1.67 1.6ZM13.4 12.03l-1.63-1.62c-.33-.32-.87-.29-1.22.08l-.04.05c-.35.37-.36.93-.03 1.25l1.64 1.62c.32.33.87.3 1.21-.08l.05-.04c.34-.37.35-.93.03-1.26Z" fill="#0072BC"/></svg>