<!-- by TradingView --><svg xmlns="http://www.w3.org/2000/svg" width="18" height="18"><path fill="#0032A0" d="M0 0h18v18H0z"/><path d="M7.5 4v.36s.5.05.5.48v2.65l2 1.01V4.84s0-.48.5-.48V4h-3z" fill="#fff"/><path d="M9.98 5.15v.3s.82.4.9 1.8h.37V5h-.38s0 .36-.23.36c-.33 0-.66-.21-.66-.21zm-1.92-.21v.27s-1.24.18-1.24 1.24c0 0-.1.83 1.4 1.56l1.86.97s1.33.57 1.74 1.6c.41 1.02.15 2.39-1.21 3.04-.56.27-1.05.3-1.23.32 0 0 .45.21.45.73s-.61 1.32-.88 1.33H8.8s-.03-.03.05-.12c.09-.08.46-.51.37-.76 0 0-.22.1-.44.1-.21 0-.63-.18-.63-.65 0-.47.37-.66.5-.66 0 0-.2-.02-.87-.25-.66-.22-1.07-.2-1.4.34H6v-2.55h.38s.42 2.2 2.83 2.2c1.67 0 1.87-1.32 1.87-1.56s0-.98-1.24-1.65L7.4 9.15S6 8.54 6 7.08s1.41-2.14 2.06-2.14z" fill="#fff"/><path d="M8 9.94l2 .95v1.16s0 .57.5.57V13h-3v-.38s.5-.07.5-.57V9.94zm1.75-7.21c0-.4-.34-.73-.75-.73a.74.74 0 00-.75.73c0 .4.34.74.75.74s.75-.33.75-.74z" fill="#fff"/></svg>