<!-- by TradingView --><svg width="18" height="18" viewBox="0 0 18 18" xmlns="http://www.w3.org/2000/svg"><path fill="#181B1E" d="M0 0h18v18H0z"/><path d="M5 5h1.17c.46 0 .83.45.83 1v3.5C6.17 9 6 9 5 8.3V5Z" fill="#F77C23"/><path d="M5 8.97C5.98 9.7 8.65 11 10.75 11c.88 0 1.25-.17 1.25-.52 0-.41-2.05-.86-2.47-1.07C8.34 8.8 7.97 8.09 7.97 7s.78-2 3.05-2c1.01 0 1.69.25 1.98.38v1.88c-.38-.17-1.13-.52-1.79-.52-.83 0-1.24.27-1.24.52 0 .2.86.52 1.65.84l.53.22c.91.38 1.85 1.39 1.85 2.42 0 1.04-.63 2.26-3.42 2.26A9.83 9.83 0 0 1 7 12.35V13H5V8.97Z" fill="#fff"/></svg>