<!-- by TradingView --><svg width="18" height="18" viewBox="0 0 18 18" xmlns="http://www.w3.org/2000/svg"><path fill="#F0F3FA" d="M0 0h18v18H0z"/><path fill-rule="evenodd" d="M4 6h1v6H4V6Zm7.27 0H11v6h1v-2h.79C14 10 15 9.1 15 8s-.99-2-2.21-2h-1.52ZM12 7v2h.97c.7 0 1.03-.36 1.03-1s-.58-1-1.29-1H12Zm-2.19-.63-.46.93c-.1-.09-.48-.27-1.17-.27-.85 0-.94.4-.94.61 0 .23.37.5 1 .74.63.23 1.76.76 1.76 1.84C10 11.29 9.01 12 7.73 12c-1.02 0-1.58-.28-1.73-.43l.37-1.1c.11.15.55.45 1.36.45 1.02 0 1.18-.5 1.18-.7 0-.2-.3-.46-1-.78l-.13-.05c-.72-.31-1.7-.74-1.7-1.75C6.08 6.58 7.17 6 8.18 6c.82 0 1.43.24 1.63.37Z" fill="#1E73BE"/></svg>