<!-- by TradingView --><svg xmlns="http://www.w3.org/2000/svg" width="18" height="18" viewBox="0 0 18 18"><path fill="#193E96" d="M0 0h18v18H0z"/><path d="M5.61 7.85v1.2l3.87-1.43V6.5c-1.25 0-3.1.67-3.87 1.35Z" fill="#EC2F21"/><path d="M5.61 13.46v-2.39l1.94-.6v2.13c-.66.2-1.57.66-1.94.86Z" fill="#F5282E"/><path d="M4 9.96C5.23 8.6 9.94 6.83 14 6.83v.67c-1.8-.02-6.33.4-10 2.46Zm0 1C5.23 9.6 9.94 7.83 14 7.83v.67c-1.8-.02-6.33.4-10 2.46Zm10-2.13c-4.06 0-8.77 1.78-10 3.13C7.67 9.9 12.2 9.48 14 9.5v-.67Zm-6.77 2.78c1.97-.77 2.79-.8 3.87-.77v-.67c-2.06 0-3.17.88-3.87 1.44Zm0 .9c1.97-.78 2.79-.8 3.87-.78v-.67c-2.06 0-3.17.88-3.87 1.45Zm0 1.04c.7-.57 1.8-1.45 3.87-1.45v.67a8.3 8.3 0 0 0-3.87.78Zm0 .95c1.97-.78 2.79-.8 3.87-.78v-.67c-2.06 0-3.17.89-3.87 1.45Z" fill="#E8EEFD"/><ellipse cx="7.55" cy="4.92" rx="1.61" ry="1.42" fill="#EC2F21"/></svg>