<!-- by TradingView --><svg xmlns="http://www.w3.org/2000/svg" width="18" height="18"><path fill="#E8870C" d="M0 0h18v18H0z"/><path fill-rule="evenodd" d="M9 14.5a5.5 5.5 0 100-11 5.5 5.5 0 000 11zm0 .5A6 6 0 109 3a6 6 0 000 12zm0-2a4 4 0 10-1.7-7.62v7.24c.52.24 1.1.38 1.7.38zm-2.37-.78c-.15-.11-.3-.23-.44-.37l-.7.7A4.98 4.98 0 0014 9a5 5 0 00-8.56-3.51l.71.7c.15-.15.31-.29.48-.41v6.44zm-.77-.74a3.98 3.98 0 01-.04-4.91l-.71-.7a4.98 4.98 0 00.03 6.31l.72-.7zM9 7h1v5H9V7zm2-1H8v1h3V6z" fill="#fff"/></svg>