<!-- by TradingView --><svg width="18" height="18" fill="none" xmlns="http://www.w3.org/2000/svg"><path fill="#D2D2D2" d="M0 0h18v18H0z"/><path fill-rule="evenodd" clip-rule="evenodd" d="M8.354 6.17C8.23 6.057 8.034 6 7.737 6c-.3 0-.495.056-.616.17-.083.08-.121.184-.121.336v3.147c0 .666.23 1.293.721 1.735.405.38 1.138.612 1.95.612 1.072 0 1.932-.52 2.391-1.3l-.881-1.367-.168-.25c.124.25.125.508.125.762 0 .635-.424 1.155-1.183 1.155-1.37 0-1.477-.959-1.477-2l1.392.002c.095 0 .13-.034.13-.122v-.987c0-.088-.035-.127-.13-.127H8.478V6.504c0-.152-.042-.256-.124-.333z" fill="#1B1E2E"/><path fill-rule="evenodd" clip-rule="evenodd" d="M10.875 9.192c-.136-.22-.173-.311-.173-.435 0-.364.686-.757 1.152-.757a.51.51 0 01.423.191c.27.375.534.817.767 1.222.264.458.508.853.754 1.295.392-.63.834-1.648 1.122-2.551.028-.092.073-.157.158-.157.155 0 .922.141.922.364 0 .057-.035.147-.082.269-.386.98-.92 2.047-1.548 2.95-.24.344-.505.417-.949.417-.467 0-.675-.091-.905-.409-.568-.786-1.093-1.594-1.64-2.399z" fill="#5D6167"/><path fill-rule="evenodd" clip-rule="evenodd" d="M3.797 7.594a.797.797 0 100-1.594.797.797 0 000 1.594zM5.486 12c.715 0 1.737-.258 2.186-.713-.51-.459-.644-1.064-.644-1.743l-.044.17c0 .68-.364 1.286-1.203 1.286-.588 0-1.207-.268-1.207-.92V8.17c0-.089-.044-.17-.145-.17H3.176A.173.173 0 003 8.17v1.91c0 .74.236.987.577 1.321.44.434 1.194.599 1.909.599z" fill="#02A3AA"/></svg>