<!-- by TradingView --><svg width="18" height="18" viewBox="0 0 18 18" xmlns="http://www.w3.org/2000/svg"><path fill="#F0F3FA" d="M0 0h18v18H0z"/><path d="M6.06 10.38c.44-.1.8-.24 1.17-.44.4-.2.19-.24.55-1.08.08-.18.32-.63.35-.76-.23.08-.47.25-.72.35-.74.31-.79.18-.98.62a5 5 0 0 0-.37 1.3ZM9.7 12.4c.32-.2.64-.55.89-.85.21-.26.2-.21.17-.63-.05-.52-.04-.75-.05-1.23l-.44.58c-.68.95-.74.41-.72 1.29 0 .18.04.71.14.84Z" fill="#256CB2"/><path d="M7.3 11.9c.02-.14-.05-.55-.04-.75 0-.27.03-.49.05-.74-.2.06-.38.16-.62.23-.2.06-.52.08-.67.16 0 .36.06.86.2 1.16.64.03.3.04 1.08-.06ZM7.76 12.14c.03.28.24.71.4.87.42-.02.82-.21 1.15-.38-.13-.42-.21-.71-.22-1.2-.13.06-.21.14-.33.22-.39.24-.85.4-1 .5Z" fill="#344B95"/><path d="M8.1 9.37c.12-.04.5-.35.62-.45.2-.16.7-.6.86-.8.07-.08.45-1.12.46-1.2l-.3.22c-.5.34-.65.34-.9.76a8.23 8.23 0 0 0-.74 1.47ZM9.63 10.29c.17-.1.7-.92.84-1.15.17-.28.25-.34.27-.73.01-.3.06-.66.06-.97-.1.07-.35.45-.44.56-.27.3-.31.31-.39.6-.14.54-.29 1.1-.35 1.69Z" fill="#1B8CCC"/><path d="M5.02 9.09c-.06.27-.2.93-.1 1.2.19.12.54.14.8.11.06-.16.09-.56.13-.77.06-.25.17-.49.22-.7-.4.1-.7.09-1.05.16Z" fill="#325BA3"/><path d="M6.97 8.12c.2-.04 1.59-.72 1.73-.89.19-.22.57-.65.7-.86-.2.03-.55.17-.78.24-.42.13-.4.13-.67.37-.21.2-.89.9-.98 1.14Z" fill="#1B93CC"/><path d="M9.77 12.65a1 1 0 0 0 .23.46c.16.18.22.11.42 0 .22-.13.6-.4.72-.56-.13-.4-.13-.2-.26-.84l-.25.26-.27.25c-.1.1-.45.39-.6.43Z" fill="#325BA3"/><path d="M11.16 10.62c.14-.08.46-1.06.52-1.3.1-.4.08-.36.02-.77-.02-.18-.08-.65-.15-.79l-.21.61c-.1.26-.17.32-.19.62-.02.54-.02 1.1 0 1.63Z" fill="#1B93CC"/><path d="M5.05 7.14c.84-.02.85-.16 1.14-.43l.43-.36c.16-.13.3-.21.45-.32-.16-.02-.5.04-.67.06-.3.03-.43 0-.62.17-.15.15-.67.65-.73.88Z" fill="#1B8CCC"/><path d="M6.44 6.86c.24-.04 1.1-.31 1.4-.4.29-.09.34-.19.56-.34.18-.12.4-.23.57-.36-.28.02-.52.08-.79.1-.4.04-.4.05-.7.22-.3.18-.9.58-1.04.78Z" fill="#1B9BD4"/><path d="M6.35 12.23c.15.26.25.47.47.7.15.13.76.14 1.01.13-.05-.13-.17-.24-.25-.4-.06-.13-.11-.3-.18-.44-.46.04-.6.04-1.05 0Z" fill="#3A3986"/><path d="M4.84 7.44c-.13.16-.4.81-.38 1.06.12.11.26.17.47.18.06-.23.17-.47.27-.67.07-.14.3-.5.33-.58-.2.06-.47.01-.69.01Z" fill="#256CB2"/><path d="M5.7 10.78c-.3-.02-.53-.1-.77-.2 0 .18.18.72.26.9.06.13.15.16.32.25.14.07.28.13.45.17-.05-.2-.12-.35-.17-.54-.04-.21-.04-.39-.08-.58Z" fill="#3A438B"/><path d="M12.36 10.4c.1-.1.14-.49.17-.63.11-.75.07-.84-.12-1.4l-.2-.58c-.03.2-.01.47-.03.7-.03.23-.07.42-.03.66.06.42.16.85.2 1.26Z" fill="#1B9BD4"/><path d="M12.66 11.63c.15-.2.31-.7.39-1 .05-.23-.21-.94-.27-1.05-.05.39-.13.73-.23 1.08-.08.27-.12.2-.05.5.03.15.06.38.16.47Z" fill="#1C83C4"/><path d="M8.33 13.22c.14.18.46.41.72.37.21-.03.69-.14.82-.25-.18-.18-.32-.22-.43-.48-.2.05-.43.2-.84.28-.08.02-.2.03-.27.08Z" fill="#3A438B"/><path d="M9.36 9.08c-.16.06-.3.21-.42.32-.25.2-.57.42-.84.6-.25.15-.23.07-.3.41-.1.43-.13.88-.1 1.34a4.16 4.16 0 0 0 1.32-.8c.1-.09.1-.08.1-.24.04-.6.13-1.04.24-1.63Z" fill="#2275BA"/><path d="M11.49 12.46c.03.1.15.26.27.26.17.01.64-.61.72-.78l-.22-.55c-.46.76-.32.49-.77 1.07Z" fill="#256CB2"/><path d="M6.43 5.82c.3-.01 1.02-.1 1.3-.17.14-.04.33-.15.52-.2.11-.05.46-.13.53-.18-.48-.03-.93-.07-1.37.07-.26.08-.85.32-.98.48Z" fill="#18A5D9"/><path d="M4.75 10.19c-.01-.46.02-.7.06-1.14-.17-.11-.35-.12-.45-.27-.03.16-.04.7-.03.88.02.21.27.45.42.53Z" fill="#32539C"/><path d="M5.42 5.93c.58-.01.54-.01.92-.27.2-.13.7-.36.77-.42h-.59c-.27 0-.27.02-.45.14-.2.12-.54.35-.65.55ZM13.14 9.92c.16-.4-.03-1.63-.43-2.1l.02.25c.07.35.02.58.1.86.1.26.2.75.31.99Z" fill="#1B9BD4"/><path d="M6.05 12.77c.13.13.47.43.64.52.12.06.13.03.21.12.2.22.98.47 1.16.5.32.07.62.1.95.09l-.72-.14a9.36 9.36 0 0 0-.67-.25c-.36-.1-1.1-.33-.22-.1l-.64-.44-.71-.3ZM5.36 11.85a3 3 0 0 0 .48.69c.12.1.59.32.76.36-.35-.42-.22-.3-.47-.68-.08-.11-.26-.13-.4-.2l-.37-.17Z" fill="#453778"/><path d="M10.28 13.32c.37.25.8-.03 1.15-.28l.12-.1-.32-.21c-.12.04-.32.22-.47.3l-.48.29Z" fill="#32539C"/><path d="M7.37 13.4c.4.25.52.29 1.2.24-.11-.13-.42-.3-.57-.4-.09-.02-.36-.01-.49-.03-.15-.01-.27-.04-.42-.06l.28.25Z" fill="#453778"/><path d="M4.64 6.91c0 .12.09.18.2.21.07-.04.42-.57.58-.72.08-.08.14-.13.2-.22l-.46-.03-.52.76Z" fill="#1C83C4"/><path d="M4.4 7.02c-.02.1-.09.2-.12.3-.1.31-.13.78.07 1.06.07-.1.1-.34.15-.48.06-.17.15-.33.2-.48l-.04-.05-.05-.04c-.06-.06-.05-.05-.08-.13l-.09.11-.05.13-.1.26c.03-.28.22-.45.2-.75-.04-.08.01-.04-.03 0L4.4 7l-.02.02Z" fill="#2B73B4"/><path d="M13.43 10.76c.1-.26.17-.6.18-.9.01-.21-.18-.56-.27-.77-.04.29 0 .61-.05.92-.04.33-.02.51.14.75Z" fill="#1A93D2"/><path d="M6.76 5.02c.18.02.88 0 1.07-.02l.95-.18c-.2-.07-.84-.11-1.05-.07-.32.06-.7.14-.97.27Z" fill="#26A6D8"/><path d="M4.52 10.74c.05.26.36.55.53.65-.05-.24-.17-.44-.23-.75-.04-.23-.02-.18-.18-.3-.1-.08-.2-.17-.22-.28-.08.09 0 .25.02.36l.08.32Z" fill="#3A438B"/><path d="M13.6 9.25c.03-.33-.09-.75-.17-1.03-.06-.24-.43-.69-.44-.75 0 .22.46 1.58.61 1.78Z" fill="#26A6D8"/><path d="M13.22 11.3c.07-.15.18-.25-.07-.56-.07.11-.14.4-.2.55-.07.14-.22.37-.24.5.05.04.09.06.18.08l.33-.56Z" fill="#2383C3"/><path d="M9.86 13.78c.07-.06.45-.17.62-.24-.12.01-.34-.1-.46-.1-.08 0-.21.07-.3.1-.19.05-.48.08-.63.14.35.16.55.1.77.1Z" fill="#3A438B"/><path d="M13.98 9.22c0-.12.02-.09-.04-.18v.02l-.02.03-.06.6-.03-.77a1.14 1.14 0 0 0-.21-.39l.1 1.08c.04.1.09.2.18.23.06-.17.1-.42.08-.62Z" fill="#2598D6"/><path d="m6.07 5.06.08.02c.27.05.4-.08.63-.17.22-.1.47-.14.67-.23-.28-.04-.55-.07-.8.04l-.58.34Z" fill="#26A6D8"/><path d="M7.31 4.52c.5.03 1.17.09 1.67.02-.27-.05-.46-.17-.8-.17-.26 0-.7.04-.87.15Z" fill="#37A8D6"/><path d="M7.69 4.15c.22.03.1-.03.38.05.3.09.88.15 1.19.15-.38-.24-.71-.2-1.22-.2l.47-.05c-.22-.24-.8.03-.82.05Z" fill="#46A9D5"/><path d="M4.84 11.52c.04.05.23.4.3.49.08.07.43.37.5.38-.12-.1-.33-.47-.43-.65-.06-.13-.32-.29-.5-.57 0 .12.09.24.13.35Z" fill="#453778"/><path d="m4.4 10.6.02.03.02.02-.12-.6c-.04-.3-.24-.65-.26-.77-.02-.13 0-.18-.06-.3a3 3 0 0 0 .4 1.63Z" fill="#4D5291"/><path d="M4.26 9.6c.02-.21 0-.45.02-.68.04-.37-.04-.28-.1-.58-.07.09-.07.21-.08.33-.02.3-.04.67.16.93Z" fill="#325BA3"/><path d="M13.79 8.52c0-.18-.15-.57-.23-.76-.08-.2-.31-.48-.43-.57.03.18.54 1.18.66 1.33Z" fill="#37A8D6"/><path d="m7.96 13.69.08.05c.4.17.9.14 1.31.1-.27-.16-1-.15-1.39-.15Z" fill="#453778"/><path d="M13.47 10.85c.2-.03.2-.17.27-.34.08-.22.15-.44.08-.44-.03 0 .06.15-.16-.22l-.06.5c-.03.16-.1.33-.13.5Z" fill="#3697C7"/><path d="M5.22 5.78c-.03.2.12.09.17.04l.71-.57h-.22c-.12 0-.49.38-.61.5l-.05.03Z" fill="#1B93CC"/><path d="m4.61 6.63-.01.22.13-.18c.09-.15.27-.45.42-.53-.07-.12-.1-.12-.06-.26-.17.21-.37.45-.48.75Z" fill="#2383C3"/><path d="M13.67 7.18c-.01-.14-.07-.22-.12-.33-.07-.16-.2-.25-.36-.35a1.08 1.08 0 0 0-.19-.1c.05.11.22.29.31.42.1.15.22.28.36.36Z" fill="#53B2D3"/><path d="M14 8.88c0-.13-.01-.46-.04-.58a1.18 1.18 0 0 0-.2-.35l-.06-.05c.02.17.08.32.12.5l.04.29c.04.14.09.16.14.2ZM6.88 4.5c.22.03.36-.03.55-.08.16-.04.4-.05.55-.12l-.46-.07-.15.08c-.16.05-.4.09-.49.2Z" fill="#37A8D6"/><path d="m6.23 13.02-.2-.18c-.36-.35-.35-.3-.68-.59l-.02.06c.35.34.41.55.9.71Z" fill="#453778"/><path d="m11.52 13.19.35-.23-.03-.05c-.29.04-.25.1-.45.23-.1.06-.35.2-.42.26.26-.01.37-.05.55-.21Z" fill="#365798"/><path d="M10.45 13.64c-.11.03-.31.08-.4.15.26-.02.37-.08.6-.11.25-.02.47-.2.7-.31-.1.01-.26.08-.4.11-.23.06-.31.1-.5.16Z" fill="#454787"/><path d="m5.4 8.12-.25.55c.2 0 .4-.02.54-.08.1-.01.54-.13.6-.18l.66-.95c.11-.14.29-.31.37-.46-.2.04-.38.11-.58.16-.17.04-.76.16-.87.27-.13.14-.39.52-.46.69Z" fill="#3467A7"/><path d="m4.38 10.86.2.44c.09.15.18.27.28.38l-.05-.18c-.07-.07-.38-.76-.52-.97l.09.33Z" fill="#464779"/><path d="M13.74 7.75a1.65 1.65 0 0 0-.2-.48c-.1-.17-.18-.32-.35-.39.05.15.27.52.38.67l.17.2Z" fill="#37A8D6"/><path d="M12.27 12.37c-.07.06-.32.3-.35.39.5-.03.56-.48.85-.66-.03-.06 0-.03-.23-.08-.07.08-.22.26-.27.35Z" fill="#3467A7"/><path d="M13 11.82c.19-.06.5-.67.54-.8-.27.13-.18.12-.32.38-.07.15-.17.28-.22.42Z" fill="#3787B7"/><path d="M11.4 12.28c.06-.06.24-.3.3-.35.11-.22.48-.67.43-.98L11.9 9.8c-.14.37-.27.7-.47 1.06-.08.14-.24.32-.23.52.01.17.1.76.2.9Z" fill="#2A6AAD"/><path d="M5.98 5.02c.14 0 .26-.12.37-.2l.4-.2c-.15-.11-.25 0-.41.1-.13.07-.31.18-.36.3Z" fill="#3598D4"/><path d="M9.65 4.23c-.23-.08-.6-.27-.99-.2.07 0 .33.1.47.13.13.03.41.14.52.07Z" fill="#46A9D5"/><path d="M9.54 13.96c.03-.02.01-.02.07-.03l.23-.1c-.2 0-.32 0-.49.03l-.37.04c-.1.02-.05.02-.08.05l.64.01Z" fill="#454787"/><path d="M13.9 7.98c0-.26-.08-.56-.3-.7l.23.62c.05.1 0 .04.08.08Z" fill="#46A9D5"/><path d="M4.03 8.8c.05-.07.05-.09.06-.19.03-.26.07-.48.06-.74-.05.07-.04.03-.07.19-.06.32-.08.4-.05.74Z" fill="#466797"/><path d="M10.54 4.34c-.02-.09-.04-.1-.02-.18-.14-.04-.32-.11-.47-.09.1.1.3.23.5.27Z" fill="#67B7D7"/><path d="M13.3 6.46c-.09-.24-.25-.42-.5-.47.08.11.37.42.5.47ZM12.55 5.61c.05.1.07.08.16.15.08.07.07.1.2.12-.03-.09-.18-.35-.36-.27Z" fill="#46A9D5"/><path d="M11.01 4.49c.05-.13.03-.1-.1-.16l-.2-.08c.02.12.27.23.3.24ZM12.47 5.4c-.04-.07-.14-.2-.27-.22 0 .13 0 .1.1.15.08.04.09.06.17.07ZM12.02 5c-.07-.1-.13-.15-.25-.18.03.18.06.18.25.19Z" fill="#53B2D3"/></svg>