<!-- by TradingView --><svg width="18" height="18" viewBox="0 0 18 18" xmlns="http://www.w3.org/2000/svg"><path fill="#F0F3FA" d="M0 0h18v18H0z"/><ellipse cx="9.81" cy="5.8" rx=".81" ry=".8" fill="#3772B6"/><circle cx="9.61" cy="5.61" r=".39" fill="#B7C2E0"/><path d="M9.32 7h1.14l-.64 1.35h-.2L9.5 8l-.11.35h-.37l.3.2-.11.35.29-.2.3.2-.12-.34.3-.21h-.09l.1-.1A5.06 5.06 0 0 1 12.88 7c.91 0 1.57.59 1.8.89l-.72.56c0-.13-.43-.48-1.08-.48-2.66.4-3.72 2.52-3.72 3.29s.73 1.1 1.37 1.1c1.28 0 2.46-.99 2.89-1.56H12V10h3c-.47 1.45-2.22 2.99-3.86 2.99a2.18 2.18 0 0 1-2.3-2.12c0-.31.08-.68.2-1.05C7.64 12.28 6.54 13 5.18 13 3.38 13 3 12.13 3 11.6c0-.74.6-.84 1.19-.84.27 0 .54.04.76.09-.72-.06-.98.35-.98.74 0 .4.34 1.09 1.2 1.09 1.55 0 3.25-3.72 4.11-5.58l.04-.1Z" fill="url(#a)"/><defs><linearGradient id="a" x1="12.28" y1="7.43" x2="7.85" y2="12.67" gradientUnits="userSpaceOnUse"><stop stop-color="#B5C1E0"/><stop offset=".37" stop-color="#2960AD"/></linearGradient></defs></svg>