<!-- by TradingView --><svg width="18" height="18" viewBox="0 0 18 18" xmlns="http://www.w3.org/2000/svg"><path fill="#F0F3FA" d="M0 0h18v18H0z"/><path d="M9 14A5 5 0 1 0 9 4a5 5 0 0 0 0 10ZM8 7v2h1V7h1v3.72h.57c.2 0 .43-.1.43-.55V7.83c0-.27-.04-.55-.5-.55V7h.64c.29 0 .86.22.86.83v2.34c0 .27-.23.83-1.14.83H9V9.22H8v1.95c0 .27-.29.83-1.43.83H6v-.28h.57c.2 0 .43-.1.43-.55V7h1Z" fill="url(#a)"/><defs><linearGradient id="a" x1="9" y1="4" x2="9" y2="14" gradientUnits="userSpaceOnUse"><stop stop-color="#1C599F"/><stop offset=".48" stop-color="#3C80B2"/><stop offset="1" stop-color="#1B569E"/></linearGradient></defs></svg>