<!-- by TradingView --><svg width="18" height="18" viewBox="0 0 18 18" xmlns="http://www.w3.org/2000/svg"><path fill="#F0F3FA" d="M0 0h18v18H0z"/><path d="M9 11.49c-2.4 0-5.67.26-7 .51a34.62 34.62 0 0 1 7-1.06c2.27 0 5.61.7 7 1.06-1.33-.25-4.6-.51-7-.51Z" fill="#007DA4"/><path fill-rule="evenodd" d="M4.17 11.12 3.5 9.18l.7-.13c2.68-.5 6.93-1.29 8.3-1.29 1.07 0 2.11.24 2.5.36l-1.83 2.82a30.7 30.7 0 0 0-4.34-.35c-1.73 0-3.83.35-4.66.53Zm6.5-2.47c0 .1-.08.17-.17.17a.17.17 0 0 1-.17-.17c0-.1.08-.18.17-.18.1 0 .17.08.17.18Zm-2.17.53c.1 0 .17-.08.17-.18 0-.1-.08-.18-.17-.18-.1 0-.17.08-.17.18 0 .1.08.18.17.18Zm-1.83.17c0 .1-.08.18-.17.18a.17.17 0 0 1-.17-.18c0-.1.08-.17.17-.17.1 0 .17.08.17.17ZM5 9.71c0 .1-.07.17-.17.17a.17.17 0 0 1-.16-.17c0-.1.07-.18.16-.18.1 0 .17.08.17.18Z" fill="#007DA4"/><path d="M14.19 9.37a9.7 9.7 0 0 0-1.86-.2c-1.37 0-5.62.8-8.3 1.29-.02 0-.05 0-.08.02l.22.64a26.1 26.1 0 0 1 4.66-.53c1.74 0 3.61.23 4.34.35l1.02-1.57Z" fill="#092A48"/><path d="M11.5 7.24c-.8 0-1.56.47-1.83.7.22-.59.5-1.76 1.83-1.76s1.61.94 1.83 1.4a5.26 5.26 0 0 0-1.83-.34ZM9.33 7.59c-.8 0-1.55.35-1.83.53.4-1.41 1.72-1.53 2.33-1.41-.13.14-.39.64-.5.88ZM7.33 7.94c-.66 0-1.39.35-1.66.53a1.68 1.68 0 0 1 2-1.23 2.4 2.4 0 0 0-.34.7Z" fill="#F1B556"/><path d="M5.33 8.65H5L4 6l2.33.53.17.7-.33-.35-1.67-.35.83 2.12Z" fill="#F1B556"/></svg>