<!-- by TradingView --><svg width="18" height="18" viewBox="0 0 18 18" xmlns="http://www.w3.org/2000/svg"><path fill="#F0F3FA" d="M0 0h18v18H0z"/><path d="M8.4 8.1c.15-.42.68-1.4.95-1.8.22-.29.38-.37.45-.24.04.1-.32 1-.68 1.68l-.33.64a4.16 4.16 0 0 0 .7-.03l-.1.2-.27.01c-.32 0-.4.03-.53.18l-.15.18.1.23c.13.33.04.46-.16.22l-.13-.17-.42.54c-.5.64-.75.88-1.35 1.3-.99.65-1.9.96-2.9.96-.98 0-1.45-.21-1.56-.72-.1-.48.23-1 .97-1.5 1.07-.7 2.57-1.13 4.83-1.34l.47-.04.1-.3Zm.34-.24c-.18.42.03.09.29-.47l.18-.44c-.04 0-.3.53-.47.91ZM7.38 9.97c.39-.42.87-1.12.87-1.27 0-.17-2.28.08-3.26.34-.78.22-1.7.73-2.36 1.3-.57.5-.56 1.09 0 1.37.11.04.48.1.83.12 1.34.08 2.72-.58 3.92-1.86ZM13.58 6.25c-.18.14-.47.45-.67.69l-.35.42-.3-.19a1.79 1.79 0 0 0-1.37-.09.64.64 0 0 0-.25 1l.14.2h-.18a.74.74 0 0 1-.3-.1c-.1-.06-.13-.05-.13.04 0 .22.23.3.81.28.31 0 .59 0 .62.05.07.1-.6.94-1.07 1.33l-.39.34-.11-.2c-.09-.14-.14-.16-.2-.1-.1.13.03.52.2.59.2.08.39-.09 1.16-1l.7-.83.4.06c.4.06.4.06.36.28-.02.12-.16.52-.3.89a4.8 4.8 0 0 0-.26.79c0 .35.35-.14 1.7-2.33.4-.68.86-1.4.98-1.61.12-.2.23-.4.23-.44 0-.28-.34.17-1.33 1.76-.42.65-.78 1.2-.82 1.2-.04 0-.07-.22-.07-.52 0-.3-.02-.65-.05-.78-.04-.24-.02-.28.3-.55.5-.44 1.04-1.1 1.04-1.28 0-.23-.12-.2-.49.1Zm-1.53 1.13c.13.06.24.17.24.2 0 .14-.27.33-.68.48-.36.13-.38.13-.64-.04-.35-.22-.37-.47-.06-.63.28-.17.86-.17 1.14-.01Zm.63 1.04c0 .15-.02.27-.04.27-.13 0-.55-.2-.55-.27 0-.03.1-.18.21-.32.2-.22.22-.23.3-.1.04.07.08.26.08.42Zm-.83-.15c-.02.04-.06.09-.1.09-.03 0-.06-.05-.06-.09 0-.05.05-.08.1-.08.06 0 .08.03.06.08Z" fill="#143A74"/></svg>