<!-- by TradingView --><svg width="18" height="18" viewBox="0 0 18 18" xmlns="http://www.w3.org/2000/svg"><path fill="#F0F3FA" d="M0 0h18v18H0z"/><path fill-rule="evenodd" d="M13.96 4.04c-1.47-.15-4.6.03-5.17 1.94-.39 1.26.36 1.83 1.2 2.04-.4.7-.75 1.38-.96 1.8-.65 1.32-2.3 3.97-3.73 3.97-.3.02-.92-.17-.92-1.09 0-1 .6-1.73.82-2l.07-.1c.12-.16.75-.67 1.26-.67s.83.7.17 1.62c-.67.9-1.35 1.17-1.5.49l-.02-.02c-.02-.02-.06-.06-.09-.05-.03.01-.07.57.6.57.67 0 1.67-.77 1.67-1.73s-.84-1.04-1.02-1.04c-.18 0-.91.13-1.6.88A2.55 2.55 0 0 0 4 12.54c0 .51.27 1.4 1.59 1.4s2.25-.89 2.98-1.99a37.85 37.85 0 0 0 1.98-3.85c.2.02.4.02.57.02.06 0 .1-.06.1-.12 0-.08-.05-.14-.12-.13-.14.02-.3.02-.45.02l.32-.66c.35-.66 1.44-2.58 3-3.19h-.02.01Zm-.56.13c-2.57.03-4.16 1.05-4.16 2.52 0 .66.4.98.88 1.11.41-.72.87-1.44 1.26-1.91a7.26 7.26 0 0 1 2.02-1.72Z" fill="url(#a)"/><defs><linearGradient id="a" x1="8.98" y1="4" x2="8.98" y2="13.94" gradientUnits="userSpaceOnUse"><stop offset=".04" stop-color="#6E5A28"/><stop offset=".39" stop-color="#C5B991"/><stop offset=".51" stop-color="#F7F3DE"/><stop offset=".62" stop-color="#AA9B70"/><stop offset=".86" stop-color="#7C6327"/></linearGradient></defs></svg>