<!-- by TradingView --><svg width="18" height="18" viewBox="0 0 18 18" xmlns="http://www.w3.org/2000/svg"><path fill="#F0F3FA" d="M0 0h18v18H0z"/><path fill-rule="evenodd" d="M3 10.41A6.14 6.14 0 0 0 9 15c2.9 0 5.35-1.96 6-4.59H3ZM15 7.6H3A6.14 6.14 0 0 1 9 3c2.9 0 5.35 1.96 6 4.59ZM6.44 11 6 13.5h6l-.44-2.5H6.44ZM7 7l.3-2h3.4l.3 2H7Zm1-3h2v.35H8V4Zm2.42 10H7.58v.35h2.84V14Z" fill="#FF2D35"/><path d="M11.48 8H14v.33h-.72v1.34H14V10h-2.52v-.33h.72V8.33h-.72V8ZM4.67 8H7v.33h-.67v1.21c0 .16-.2.46-1.25.46C4.28 10 4 9.8 4 9.6c0-.21.23-.28.44-.28.2 0 .44.08.44.22 0 .12-.1.24-.15.28.05.02.2.05.35.05.2 0 .24-.15.25-.33v-1.2h-.66V8ZM10.47 8.22A3.7 3.7 0 0 0 9.34 8C8.75 8 8 8.17 8 8.6c0 .44 1.02.61 1.42.67.4.05.76.19.76.35 0 .17-.24.23-.73.23s-1.07-.24-1.26-.41v-.1H8V10h.2v-.17c.13.06.54.17 1.25.17.92 0 1.55-.11 1.55-.56 0-.27-.34-.45-1.2-.64l-.6-.13c-.38-.07-.53-.1-.53-.21 0-.17.36-.22.67-.22.32 0 .76.1 1.13.37v.06h.2V8h-.2v.22Z" fill="#FF2D35"/></svg>