<!-- by TradingView --><svg width="18" height="18" viewBox="0 0 18 18" xmlns="http://www.w3.org/2000/svg"><path fill="url(#a)" d="M0 0h18v18H0z"/><path fill-rule="evenodd" d="M14 9A5 5 0 1 1 4 9a5 5 0 0 1 10 0Zm-1.56.47c0 2.16-1.54 3.9-3.44 3.9s-3.44-1.74-3.44-3.9S7.1 5.57 9 5.57s3.44 1.74 3.44 3.9ZM5.88 9.3c0-1.75 1.71-3.12 2.8-3.44a2.93 2.93 0 0 0-1.24 2.2c0 .46.14 1.87 1.25 1.87 1.25 0 1.56.94 1.56 1.56 0 .63-.31 1.56-1.56 1.56-1.4 0-2.81-1.56-2.81-3.75ZM9 11.5a.31.31 0 1 1-.62 0 .31.31 0 0 1 .62 0Z" fill="url(#b)"/><defs><linearGradient id="a" x1="3.35" y1="3.12" x2="21.9" y2="24.43" gradientUnits="userSpaceOnUse"><stop stop-color="#1A1E21"/><stop offset="1" stop-color="#06060A"/></linearGradient><linearGradient id="b" x1="4" y1="9" x2="14.16" y2="9.16" gradientUnits="userSpaceOnUse"><stop stop-color="#FFA715"/><stop offset="1" stop-color="#EF7115"/></linearGradient></defs></svg>