<!-- by TradingView --><svg width="18" height="18" viewBox="0 0 18 18" xmlns="http://www.w3.org/2000/svg"><path fill="#F0F3FA" d="M0 0h18v18H0z"/><path d="M9 14a5 5 0 0 0 2-9.58v4.96c0 .43-.12 1.08-.48 1.62-.37.57-1 1-1.94 1-.92 0-1.55-.4-1.95-.94A3.2 3.2 0 0 1 6 9.4L6 9.24l1.76-1.67.06.63c.02.2.1.5.28.76.12.16.27.3.48.37v-2.7l2.14-2.33A5 5 0 1 0 9 14ZM7.62 9.35c.16.24.39.45.68.57-.1.1-.22.2-.36.3-.28.2-.6.33-.92.32a2.56 2.56 0 0 1-.39-1.03l.72-.68c.06.17.15.35.27.52Zm.96 2c-.4 0-.71-.1-.97-.25.25-.07.47-.2.66-.33.33-.23.6-.51.77-.74a2 2 0 0 0 1.36-.83v.18c0 .33-.1.83-.37 1.24-.26.4-.7.72-1.45.72Zm1.28-2.49c.26-.28.44-.62.54-.86V5.58L9.19 6.9v2.44c.25-.08.47-.25.67-.47Z" fill="url(#a)"/><defs><linearGradient id="a" x1="12.44" y1="6.19" x2="6.5" y2="13.38" gradientUnits="userSpaceOnUse"><stop stop-color="#B21C9F"/><stop offset="1" stop-color="#452B9C"/></linearGradient></defs></svg>