<!-- by TradingView --><svg width="18" height="18" viewBox="0 0 18 18" xmlns="http://www.w3.org/2000/svg"><path fill="#F0F3FA" d="M0 0h18v18H0z"/><path d="M5.1 10.08V6H6v3.86C6 11.42 5.17 12 4.22 12c-.77 0-1.13-.3-1.22-.45.16-.21.5-.64.54-.64 1.13.43 1.52-.37 1.56-.83ZM7 6h.42c.32 0 .58.3.58.67v5.3h-.42c-.32 0-.58-.3-.58-.67V6Z" fill="#455B8A"/><path d="M8.06 8.7 9.7 6h.9L8.91 8.95 10.58 12h-.9L8.07 9.2a.5.5 0 0 1 0-.5Z" fill="#455B8A"/><path d="M11 8V6h4v.25c0 .48-.38.75-.85.75H12v1h-1Zm0 .5v2.72c0 .43.33.78.75.78h2.4c.47 0 .85-.4.85-.88V11h-3V9.5h1.94c.36 0 .7-.33.7-.71V8.5H11Z"/></svg>