<!-- by TradingView --><svg width="18" height="18" viewBox="0 0 18 18" xmlns="http://www.w3.org/2000/svg"><path fill="#F0F3FA" d="M0 0h18v18H0z"/><path d="M14 6.31v5.38c0 .2-.14.45-.3.55l-4.4 2.68c-.16.1-.43.1-.6 0l-4.4-2.68a.71.71 0 0 1-.3-.55V6.3c0-.2.14-.45.3-.55l4.4-2.68c.17-.1.44-.1.6 0l4.4 2.68c.16.1.3.35.3.55Zm-3.83 5.43-1.16-.71-1.18.71.89.54c.15.1.41.1.57 0l.88-.54Zm-2.59-.15 1.17-.72-.66-.4a.13.13 0 0 1-.06-.1l-.27-1.7a.68.68 0 0 0-.27-.4L6 7.47V10.38c0 .19.12.42.27.52l1.31.69ZM6.13 7.24l1.49.8c.18.1.35.37.39.59L8.27 10h1.49L10 8.63c.04-.22.2-.48.4-.6l1.49-.8a.53.53 0 0 0-.15-.13L9.29 5.72a.6.6 0 0 0-.57 0L6.27 7.1a.56.56 0 0 0-.14.14Zm5.87.38v-.14l-1.48.79a.68.68 0 0 0-.27.4l-.27 1.7c0 .05-.03.08-.06.1l-.66.4 1.17.71 1.3-.68c.16-.1.27-.33.27-.52V7.62Z" fill="#004AEF"/></svg>