<!-- by TradingView --><svg width="18" height="18" viewBox="0 0 18 18" xmlns="http://www.w3.org/2000/svg"><path fill="#2F017E" d="M0 0h18v18H0z"/><path d="M4.65 9.67c.24-.23.5-.39.7-.47l.76 1c-.3.1-.5.21-.62.35l-.84-.88Z" fill="url(#a)"/><path d="M4.75 9.58C4.37 9.9 4 10.38 4 11c0 1 .77 2 1.73 2s2.11-.2 2.5-2.4c.3-1.76.64-3.13.76-3.6H7.46l-.77 3.6c-.06.27-.3.8-.77.8-.38 0-.58-.2-.58-.4 0-.32.13-.51.47-.68l-1.06-.74Z" fill="#4AE8AD"/><path d="M9.19 6H7.65l.38-1h1.54l-.38 1Z" fill="#47EDAD"/><path d="M11.68 6.6c-1.23 0-1.73.6-2.11 1.6-.26.68-.61 1.92-.77 2.4-.19.6-.19 2.4 2.11 2.4a2.6 2.6 0 0 0 2.7-2h-1.73c-.13.13-.5.4-.97.4-.46 0-.44-.53-.38-.8l.38-1.6c.07-.27.35-.8.97-.8.61 0 .64.53.57.8l-.38 1.4h1.53L14 9c.15-1.92-1.22-2.4-1.92-2.4h-.39Z" fill="#4AE9A9"/><path d="M13.22 10.4h-2.5l.39-1.4h2.3l-.19 1.4Z" fill="url(#b)"/><path d="M4.65 9.67c.24-.23.5-.39.7-.47l.76 1c-.3.1-.5.21-.62.35l-.84-.88Z" fill="url(#c)"/><defs><linearGradient id="a" x1="4.96" y1="10.6" x2="5.76" y2="9.83" gradientUnits="userSpaceOnUse"><stop stop-color="#4AE8AD"/><stop offset="1" stop-color="#4AE8AD" stop-opacity="0"/></linearGradient><linearGradient id="b" x1="13.22" y1="9.6" x2="10.91" y2="9.78" gradientUnits="userSpaceOnUse"><stop stop-color="#4AE9A9"/><stop offset=".52" stop-color="#56E1AA"/><stop offset="1" stop-color="#3D6E8B" stop-opacity="0"/></linearGradient><linearGradient id="c" x1="4.96" y1="10.6" x2="5.76" y2="9.83" gradientUnits="userSpaceOnUse"><stop offset=".63" stop-color="#4AE8AD"/><stop offset="1" stop-color="#4AE8AD" stop-opacity="0"/></linearGradient></defs></svg>