<!-- by TradingView --><svg width="18" height="18" viewBox="0 0 18 18" xmlns="http://www.w3.org/2000/svg"><path fill="#F0F3FA" d="M0 0h18v18H0z"/><path fill="#FFCB07" d="M4 4h10v10H4z"/><path d="M5.38 4h-.82c.75.53 2.4 1.33 4.44 1.33 2.04 0 3.78-.8 4.6-1.33h-.84a7.35 7.35 0 0 1-7.38 0Zm4.93 0h.73c-.45.23-1.2.5-2.04.5A5.6 5.6 0 0 1 6.83 4h.86c.42.09.91.17 1.31.17s.9-.08 1.31-.17Zm3.69.26c-.83.6-2.6 1.46-5 1.57a6.76 6.76 0 0 1-5-1.65v.6a9.9 9.9 0 0 0 5 1.55c2.01 0 4-.87 5-1.46v-.6Zm0 1.13c-.87.52-2.69 1.28-5 1.28a9.09 9.09 0 0 1-5-1.38V6c1.02.57 2.89 1.34 5 1.34 2.22 0 4.08-.76 5-1.29V5.4Zm0 2.46a4.1 4.1 0 0 1-1.33.82V8H11v1H7.33V8H5.67v.67C4.9 8.56 4.3 8.07 4 7.7v1.07c.45.38 1.23.73 1.67.89A1.6 1.6 0 0 1 4.33 11l1 .83a2.91 2.91 0 0 0 2-1.83H11c0 1 1.17 1.61 1.83 1.83l.84-.83c-.94-.27-1.06-.89-1-1.17.6-.34 1.04-.7 1.33-.97v-1Zm0 5.9c-.54-.71-2.06-1.75-5-1.75s-4.46 1.04-5 1.74V14h.5c.33-.5 1.7-1.5 4.5-1.5s4.17 1 4.5 1.5h.5v-.26ZM13 14c-.5-.33-2-1-4-1s-3.5.67-4 1h.33c.45-.23 1.8-.69 3.67-.67 1.87.02 3.11.46 3.5.67h.5ZM7.67 8v.67h2.66V8H7.67Zm0 3.33v-1h2.66v1H7.67Z" fill="#973024"/></svg>