<!-- by TradingView --><svg width="18" height="18" viewBox="0 0 18 18" xmlns="http://www.w3.org/2000/svg"><path fill="#F0F3FA" d="M0 0h18v18H0z"/><path d="M9.12 5.82c.5 0 .9-.4.9-.91 0-.5-.4-.91-.9-.91-.49 0-.89.4-.89.9 0 .51.4.92.9.92Z" fill="#C8382A"/><path d="m6.58 5.71-.29-.6a.24.24 0 0 1-.01-.18l.16-.55a.24.24 0 0 1 .08-.11.23.23 0 0 1 .35.08l.22.48c.02.04.03.1.02.14l-.1.67c0 .05-.03.1-.06.13a.22.22 0 0 1-.27.04.23.23 0 0 1-.1-.1ZM10.88 4.98l.3-.68a.2.2 0 0 1 .07-.1.2.2 0 0 1 .23.02c.04.02.06.06.07.1l.2.6a.22.22 0 0 1 0 .16l-.32.66a.2.2 0 0 1-.08.09.2.2 0 0 1-.23-.02.21.21 0 0 1-.07-.1l-.18-.58a.22.22 0 0 1 .01-.15ZM12.93 6.95l-.12.14c-.18.2-.39.34-.62.45a.16.16 0 0 1-.15-.02.17.17 0 0 1-.08-.13c-.02-.27.02-.52.11-.76.03-.06.1-.16.2-.28l.13-.14c.18-.2.38-.34.61-.44a.16.16 0 0 1 .16.01.17.17 0 0 1 .08.13c.02.27-.02.53-.12.77-.02.06-.09.15-.2.27ZM5.08 6.93c.33.46.76.71.95.56.2-.15.08-.64-.25-1.1-.33-.47-.76-.72-.95-.57-.2.15-.08.65.25 1.1Z" fill="#E4A139"/><path d="M6.95 6.49a5.44 5.44 0 0 0-.34-.06L6.6 6.4a52.88 52.88 0 0 1 .45-.1c.16-.03.3-.05.41-.04.74.02 1.42.12 2.02.3.63.2 1.18.75 1.3 1.45.04.2.01.43-.07.73-.09.33-.21.65-.37.94-.18.32-.44.74-.8 1.29-.3.44-.5.95-.62 1.52-.1.5-.1.97.01 1.43.02.08 0 .1-.07.05a.63.63 0 0 1-.28-.45l-.1-.76a2.09 2.09 0 0 1 .01-.55l.06-.55c.03-.35.1-.68.2-1 .33-1 .58-1.64.54-2.52 0-.24-.06-.5-.22-.69a1.99 1.99 0 0 0-.8-.6 7.75 7.75 0 0 0-1.32-.36Z" fill="#C8382A"/><path d="M13.54 7.54c.18-.02.54 0 .45.29-.13.39-.34.73-.64 1.03-.4.4-1.1.68-1.7.53a.11.11 0 0 1-.07-.07.12.12 0 0 1 0-.1c.13-.28.22-.51.35-.7.3-.47.73-.77 1.27-.91.14-.04.26-.06.34-.07ZM4.52 8.68A3.72 3.72 0 0 1 4 7.75a.18.18 0 0 1 .05-.13.17.17 0 0 1 .06-.04c.13-.04.32-.05.46-.03.72.1 1.27.5 1.65 1.16.08.13.14.32.2.57a.1.1 0 0 1-.01.07.1.1 0 0 1-.05.04.8.8 0 0 1-.31.04 1.97 1.97 0 0 1-1.53-.75Z" fill="#E4A139"/><path d="M8.04 12.53c-.01.42.12.8.14 1.23a.06.06 0 0 1-.03.05l-.02.01H8.1l-.5-.17a4.63 4.63 0 0 1-1.98-1.12 5.08 5.08 0 0 1-.93-1.2 13.77 13.77 0 0 1-.47-.97.12.12 0 0 1 .06-.1 4.78 4.78 0 0 1 3.75 1.17c.08.06.12.17.1.28a4.8 4.8 0 0 0-.09.82ZM11.95 12.9c-.42.32-.9.56-1.42.72-.08.03-.42.1-1 .23-.12.03-.21.02-.27-.03a.1.1 0 0 1-.03-.07c-.02-.32.01-.62.09-.9.08-.29.18-.56.28-.82.16-.37.43-.68.83-.94.65-.42 1.33-.69 2.05-.8.36-.06.8-.03 1.2-.03a.09.09 0 0 1 .08.04.1.1 0 0 1 .01.08 5.26 5.26 0 0 1-1.82 2.52Z" fill="#C8382A"/></svg>