<!-- by TradingView --><svg width="18" height="18" viewBox="0 0 18 18" xmlns="http://www.w3.org/2000/svg"><path fill="#F0F3FA" d="M0 0h18v18H0z"/><path d="M3 9.07V6h1.35v2.94c0 .7.4 1.3.92 1.3.42 0 .66-.26.73-.39v2.02c-.08.04-.36.13-.8.13C4.03 12 3 10.56 3 9.07Z" fill="url(#a)"/><path d="M4.35 8.78v.16c0 .7.4 1.3.92 1.3.42 0 .66-.26.73-.39v2.02h-.02c-1.4-.6-1.67-2.3-1.63-3.1Z" fill="url(#b)"/><path d="M6.3 12V6h1.46v4.13h1.07c.77 0 1.04-.6 1.08-.97l.42.63L8.93 12H6.3Z" fill="url(#c)"/><path d="M8.13 6v1.87h.76c.17 0 .56 0 .8.37.05-.33.3-1.1.76-1.6-.5-.49-1.2-.63-1.49-.64h-.83Z" fill="url(#d)"/><path d="M8.92 12H7.45c1.81-.33 2.3-2.04 2.34-2.85v-.23c0-.11.03-.26.04-.32C10.15 6.5 11.65 6 12.36 6H13v.38h.48v.82h1.5v.68h-2.55c-.43 0-.7.25-.78.37h1.4v.79c0 .46-.22.56-.62.56H11.2c-.55 1.76-1.76 2.43-2.3 2.4Z" fill="url(#e)"/><path d="M12.47 12h-2.36c.82-.35 1.27-1.3 1.39-1.71h.94c.59 0 1.06-.54 1.06-1.2V8.5H15v.62c0 1.6-1.13 2.88-2.53 2.88Z" fill="url(#f)"/><path d="M13.63 9c-.18 2-1.5 2.83-2.3 3H10.1c.86-.4 1.33-1.49 1.46-1.97h1c.5 0 .94-.44 1.07-1.03Z" fill="url(#g)"/><path fill="#E72641" d="M13.5 5.5h1v1h-1z"/><path d="M13.5 5.5h1l-.87.13-.13.87v-1Z" fill="#FF4760"/><path fill="#E72641" d="M13 5h.3v.39H13z"/><path d="M13 5h.3l-.26.05-.04.34V5Z" fill="#FF4760"/><path fill="#E72641" d="M14.7 5.48h.3v.39h-.3z"/><path d="M14.7 5.48h.3l-.23.1-.07.3v-.4Z" fill="#FF4760"/><defs><linearGradient id="a" x1="2.5" y1="6.94" x2="5.44" y2="11.38" gradientUnits="userSpaceOnUse"><stop stop-color="#0558FF"/><stop offset="1" stop-color="#0127B8"/></linearGradient><linearGradient id="b" x1="6.44" y1="11.02" x2="4.45" y2="10.91" gradientUnits="userSpaceOnUse"><stop stop-color="#0024B2"/><stop offset="1" stop-color="#044FF2"/></linearGradient><linearGradient id="c" x1="6.21" y1="8.81" x2="9.79" y2="8.81" gradientUnits="userSpaceOnUse"><stop stop-color="#0556FC"/><stop offset="1" stop-color="#0022B0"/></linearGradient><linearGradient id="d" x1="8.11" y1="6.66" x2="10.08" y2="7.42" gradientUnits="userSpaceOnUse"><stop offset=".07" stop-color="#0020AD"/><stop offset=".56" stop-color="#0554FA"/><stop offset=".91" stop-color="#0233C9"/></linearGradient><linearGradient id="e" x1="14.09" y1="9.19" x2="8.45" y2="12.07" gradientUnits="userSpaceOnUse"><stop stop-color="#0023B2"/><stop offset="1" stop-color="#044FF2"/></linearGradient><linearGradient id="f" x1="15.21" y1="10.74" x2="13.45" y2="11.38" gradientUnits="userSpaceOnUse"><stop stop-color="#0020AD"/><stop offset="1" stop-color="#044BEC"/></linearGradient><linearGradient id="g" x1="10.37" y1="12" x2="13.71" y2="10.64" gradientUnits="userSpaceOnUse"><stop stop-color="#0020AD"/><stop offset="1" stop-color="#044FF3"/></linearGradient></defs></svg>