<!-- by TradingView --><svg width="18" height="18" viewBox="0 0 18 18" xmlns="http://www.w3.org/2000/svg"><path fill="#F0F3FA" d="M0 0h18v18H0z"/><path d="M13.3 6.98A5.08 5.08 0 0 0 9.04 4.5 4.43 4.43 0 0 0 4.67 9c0 2.48 1.96 4.5 4.37 4.5 1.7 0 3.41-1.01 4.26-2.48A4.86 4.86 0 0 1 8.86 14 4.93 4.93 0 0 1 4 9c0-2.76 2.17-5 4.86-5 1.98 0 3.69 1.23 4.44 2.98Z" fill="#E58F0C"/><circle cx="13" cy="9" r="1" fill="url(#a)"/><circle cx="12.94" cy="8.8" r=".7" fill="url(#b)"/><circle cx="12.85" cy="8.68" fill="url(#c)" r=".45"/><defs><linearGradient id="a" x1="13.78" y1="9.53" x2="12.44" y2="8" gradientUnits="userSpaceOnUse"><stop stop-color="#06488F"/><stop offset="1" stop-color="#858FBE"/></linearGradient><linearGradient id="b" x1="12.38" y1="8.39" x2="13.1" y2="9.41" gradientUnits="userSpaceOnUse"><stop stop-color="#A1AFC8"/><stop offset="1" stop-color="#5183B9"/></linearGradient><linearGradient id="c" x1="12.54" y1="8.23" x2="13.16" y2="9.13" gradientUnits="userSpaceOnUse"><stop stop-color="#E4EEFF"/><stop offset="1" stop-color="#A5BBDC"/></linearGradient></defs></svg>