<!-- by TradingView --><svg width="18" height="18" viewBox="0 0 18 18" xmlns="http://www.w3.org/2000/svg"><path fill="#30945E" d="M0 0h18v18H0z"/><path d="M10.44 6.58c-.32.5-.52 1.03-.59 1.58a2.4 2.4 0 0 0 .3 1.64c.45.71.45 1.36 0 1.94a.6.6 0 0 1-.48.26H7.72c-.1 0-.17-.04-.2-.11-.05-.08-.04-.16.03-.24.2-.23.35-.5.45-.83.1-.33.13-.66.08-.96-.03-.14-.1-.34-.21-.58a4.7 4.7 0 0 1-.14-.3A3.09 3.09 0 0 1 7.8 6.4c.18-.36.46-.76.85-1.21.15-.18.33-.23.54-.16.09.03.2.13.34.28a72.32 72.32 0 0 0 .96 1.1c.01.06 0 .12-.04.17Zm4.44 4.68c.12.13.15.28.1.46-.07.19-.22.28-.46.28h-2.68c-.08 0-.14-.04-.17-.1-.04-.07-.03-.14.01-.22.27-.48.35-.94.24-1.37-.02-.1-.08-.24-.18-.42l-.08-.13a2.21 2.21 0 0 1-.18-1.67c.03-.1.06-.16.1-.19.1-.06.2-.04.3.06l3 3.3Zm-8.25-.97a2.2 2.2 0 0 0-.25-.6A3.2 3.2 0 0 1 6 8.66c-.02-.09-.07-.14-.15-.15a.2.2 0 0 0-.2.06l-2.51 2.7c-.14.15-.18.3-.1.48.07.17.2.25.4.25h2.08c.27 0 .45-.06.55-.18.47-.57.66-1.08.56-1.53Z" fill="#fff"/></svg>