<!-- by TradingView --><svg width="18" height="18" viewBox="0 0 18 18" xmlns="http://www.w3.org/2000/svg"><path fill="#F0F3FA" d="M0 0h18v18H0z"/><path d="m9.32 4 .62.08a4.95 4.95 0 0 1 2.62 1.4l.06.07c.2.2.36.4.51.63l.12.18.28.5c.19.43.33.86.4 1.32l.07.63c0 .15 0 .3-.02.45 0 .11-.06.24-.19.24l-.44-.03c-.14 0-.23-.07-.23-.22V8.8a3.5 3.5 0 0 0-.34-1.34l-.18-.34-.18-.27a3.48 3.48 0 0 0-.45-.54l-.17-.16a2.6 2.6 0 0 0-.53-.41l-.4-.24-.22-.1a3.87 3.87 0 0 0-2.03-.35 4.14 4.14 0 0 0-2.4 1.1l-.25.25a3.5 3.5 0 0 0-.35.44l-.29.47-.08.16a3.98 3.98 0 0 0-.35 2.04c.02.37.21.67.6.75.17.03.33.04.48.03.24 0 .48-.03.72-.07l.3-.03.03.01.04.61c.06.49.22 1 .56 1.35.1.11.22.2.36.27.2.11.4.18.63.2.22.04.45.04.7.02.22-.02.43-.07.64-.16.18-.07.34-.18.48-.33l.2-.28c.08-.13.14-.27.18-.42.06-.2.1-.42.12-.64l.04-.68c.4.15 1.57.1 2.29.09a1 1 0 0 1 .35.08c.12.06.16.16.11.3a8.9 8.9 0 0 1-.37.83l-.1.18-.36.51-.33.37-.28.26-.35.28a4.95 4.95 0 0 1-4.62.67 5 5 0 0 1-1.33-.72l-.28-.23-.33-.32-.28-.31c-.16-.2-.3-.4-.41-.6l-.04-.08a5.06 5.06 0 0 1-.32-.66l-.2-.68-.07-.3-.03-.31a4.76 4.76 0 0 1 .2-2c.06-.2.15-.42.25-.64l.21-.4.18-.28c.31-.46.7-.86 1.14-1.2l.18-.12.53-.32c.41-.2.84-.36 1.28-.45L8.62 4h.7Z" fill="#45933F"/><path d="M9.31 5.8a3.34 3.34 0 0 1 1.92.87l.21.2a3.3 3.3 0 0 1 .83 1.95c.02.25.04.5-.2.65l-.12.05c-.22.07-.43.06-.68.05l-.64-.05-.44-.05c-.52-.05-1.05-.08-1.58-.05l-.6.05H7.9l-.6.07-.62.06c-.25 0-.45.01-.68-.06l-.12-.06c-.2-.2-.16-.42-.15-.67.02-.2.05-.42.11-.63l.17-.46.11-.22c.12-.22.27-.43.44-.63l.13-.14c.2-.2.41-.35.62-.48l.11-.06a3.4 3.4 0 0 1 1.9-.4ZM8 10.1c.13-.01.25 0 .36.04.04.04.05.07.05.1 0 .2 0 .39.02.58 0 .16.06.31.17.44.1.09.23.13.4.13.14 0 .25-.03.33-.07.17-.12.23-.3.25-.5.01-.2.02-.39.01-.58 0-.03.02-.06.07-.09a.69.69 0 0 1 .28-.04c.1 0 .2 0 .3.03.1.05.09.1.09.22 0 .16 0 .3-.03.46-.02.22-.08.43-.16.63-.06.13-.13.24-.22.34-.16.16-.35.27-.57.32h-.03c-.17.04-.3.05-.42.03-.07 0-.14-.02-.2-.03l-.08-.02a1.11 1.11 0 0 1-.62-.45l-.1-.2c-.1-.2-.16-.41-.2-.63a3.38 3.38 0 0 1-.03-.55c0-.04.02-.08.07-.11A.53.53 0 0 1 8 10.1Z" fill="#45933F"/></svg>