<!-- by TradingView --><svg width="18" height="18" viewBox="0 0 18 18" xmlns="http://www.w3.org/2000/svg"><path fill="#F0F3FA" d="M0 0h18v18H0z"/><path d="M12.4 12.06a1.81 1.81 0 0 0-.79-.83v-.02c.34-.24.6-.57.77-.96.2-.46.29-.9.28-1.32a2.69 2.69 0 0 0-.78-1.9c-.5-.5-1.08-.9-1.77-.98A9.07 9.07 0 0 0 9.04 6H4V4.87c.01-.1.01-.17.05-.25.16-.41.47-.62.93-.62h7.76c.3 0 .48 0 .55.02.44.1.71.5.71.94v8.06c0 .53-.34.95-.87.98l-.04-.01a8.75 8.75 0 0 0-.7-1.93Z" fill="#F08619"/><path d="M6.15 12h2.4c.44 0 .96.05 1.35.27.42.22.65.5.82.93a17.3 17.3 0 0 1 .26.8H5.1c-.27 0-.45-.02-.56-.07a.89.89 0 0 1-.48-.48c-.05-.1-.07-.29-.07-.55V8.88c0-.23.09-.43.26-.6A.85.85 0 0 1 4.89 8h4.8c.52 0 .95.34 1.04.82.12.56-.16.95-.7 1.13a1.7 1.7 0 0 1-.5.05H6.16c-.11 0-.16.07-.16.18v1.57c0 .11 0 .25.15.25Z" fill="#E6212A"/></svg>