<!-- by TradingView --><svg width="18" height="18" viewBox="0 0 18 18" xmlns="http://www.w3.org/2000/svg"><path fill="#F0F3FA" d="M0 0h18v18H0z"/><path d="M6.52 12.4c.33-.4.48-.99.48-1.73V6.3c0-.4.03-.9.49-.99.14-.03.32-.06.55-.07V5H4.82v.24c.23.01.4.04.55.07.37.08.63.63.63.99v5.48c0 .52-.28.78-.57.78a.2.2 0 0 1-.17-.09 1.43 1.43 0 0 1-.13-.32c-.1-.4-.3-.59-.58-.59a.52.52 0 0 0-.4.18.57.57 0 0 0-.15.4c0 .26.1.46.3.62.21.16.48.24.8.24.62 0 1.09-.2 1.42-.6Zm8.12-7.08c.1-.04.23-.07.36-.08V5h-2.2v.24c.26 0 .44.04.54.1.1.06.15.15.15.3a.9.9 0 0 1-.14.44L11.77 8.8l-1.34-2.68c-.12-.2-.18-.39-.18-.55 0-.2.16-.32.47-.34h.24V5h-2.8v.24a.7.7 0 0 1 .3.07c.1.03.2.11.32.24.1.13.24.32.4.57l.6 1.02L11 9.46v2.09c0 .4-.05 1.04-.52 1.16-.13.03-.31.05-.54.07V13H13v-.22c-.22 0-.4-.03-.53-.06-.48-.1-.47-.53-.47-.92V9.34l1.61-2.73c.15-.27.29-.49.4-.66.11-.17.22-.31.32-.41a1 1 0 0 1 .31-.22Z"/></svg>