<!-- by TradingView --><svg width="18" height="18" viewBox="0 0 18 18" xmlns="http://www.w3.org/2000/svg"><path fill="#F0F3FA" d="M0 0h18v18H0z"/><path d="M7.61 6.16A3.53 3.53 0 0 0 3 9.5C3 11.43 4.59 13 6.55 13c1.6 0 2.97-1.05 3.4-2.5H8.31c-.35.6-1 1-1.76 1-1.12 0-2.03-.9-2.03-2a2.01 2.01 0 0 1 2.6-1.92l.5-1.42Z" fill="#1B4F9B"/><path d="M8.04 5h1.92c.37 0 .63.38.5.74L9.5 8H14l-.5 1.5h-6l1.21-3.68L8.04 5Zm1.67 1c.2 0 .35-.15.35-.33a.34.34 0 0 0-.35-.34c-.2 0-.36.15-.36.34 0 .18.16.33.36.33Z" fill="#1B4F9B"/><path d="M13.5 5h-1.63L11 7h3.5l.5-1h-1.88l.38-1Z" fill="#1B4F9B"/></svg>