<!-- by TradingView --><svg width="18" height="18" viewBox="0 0 18 18" xmlns="http://www.w3.org/2000/svg"><path fill="#181B1E" d="M0 0h18v18H0z"/><path d="M12.3 5.37 8.98 4 5.64 5.38l4.29 1.66 2.37-1.67Zm-.07 2.56-1.96-.76 2.3-1.61.68 1.65-1.02.72Zm-6.04 2.13 1.91.79-2.5 1.76-.18-.07-.62-1.5 1.39-.98Zm2-1.79-2.8-2.74L4 8.9l2.16.81 2.02-1.43Zm-4.14.96.63 1.52 1.17-.83-1.8-.69Zm1.9 3.52L8.45 11l3.91 1.61L8.98 14l-3.03-1.25Zm4.13-2.92 2.15-1.52 1.76.67L14 9l-1.4 3.35-2.52-2.52Zm3.75-1.25-.45-1.08-.84.6 1.29.48Z" fill="#E7E7E7"/></svg>