<!-- by TradingView --><svg width="18" height="18" viewBox="0 0 18 18" xmlns="http://www.w3.org/2000/svg"><path fill="#F0F3FA" d="M0 0h18v18H0z"/><path d="M5.77 8.3c-.27.08-.53.07-.77-.03V6.53c0-.04.02-.05.06-.05H7.1a.26.26 0 0 0 .2-.1l.92-1.04a.26.26 0 0 1 .1-.07.25.25 0 0 1 .1-.03h1.59c.06 0 .11-.01.15-.06l.96-1.12a.17.17 0 0 1 .05-.04.16.16 0 0 1 .07-.02h1.71l.03.01.01.03v1.48l-.01.01-.02.01h-1.71a.24.24 0 0 0-.2.1l-.9 1.06a.24.24 0 0 1-.08.06.23.23 0 0 1-.1.03H8.34a.14.14 0 0 0-.12.05l-.94 1.14a.2.2 0 0 1-.14.07c-.2.02-.65.07-.81-.08-.3-.27-.56-.01-.56.33Z" fill="#95726B"/><path d="M5 8.27c.24.1.5.1.77.03 0 .16.04.3.13.41.18.24.37.1.5-.03a.12.12 0 0 1 .1-.04h.64c.03 0 .06-.02.08-.03a.22.22 0 0 0 .08-.06l.94-1.24a.2.2 0 0 1 .06-.05.18.18 0 0 1 .08-.02H10a.2.2 0 0 0 .09-.02.21.21 0 0 0 .07-.06l.93-1.06a.26.26 0 0 1 .09-.07.25.25 0 0 1 .1-.03h1.66l.03.02c0 .01.03.02.03.04v1.46l-.03.03h-1.76c-.05 0-.1.03-.13.07l-.92.92a.3.3 0 0 1-.1.08.27.27 0 0 1-.13.02h-1.6l-.05.02a.15.15 0 0 0-.05.04l-.98 1.23a.19.19 0 0 1-.06.05.17.17 0 0 1-.07.02H5V8.26Z" fill="#68514E"/><path d="m5.8 12.2-.8-.06V10.6h2.17c.05 0 .07 0 .1-.04l.97-1.12a.22.22 0 0 1 .07-.06.2.2 0 0 1 .09-.02H10c.06 0 .11-.02.16-.07l.93-1.2a.26.26 0 0 1 .09-.07.24.24 0 0 1 .1-.02h1.69l.02.01.01.02v1.38c0 .03-.02.05-.05.05h-1.73l-.08.02a.2.2 0 0 0-.06.05l-.94 1.16a.22.22 0 0 1-.08.06.2.2 0 0 1-.08.02H8.33l-.06.01a.14.14 0 0 0-.04.04L7.27 12a.21.21 0 0 1-.17.08c-.19.01-.61.06-.76-.09-.12-.1-.25-.2-.4-.07a.47.47 0 0 0-.15.27Z" fill="#423533"/><path d="M5 12.14h.8c-.05.4.21.88.58.4a.2.2 0 0 1 .07-.05c.03-.01.05-.04.08-.04h.62a.2.2 0 0 0 .09-.01.22.22 0 0 0 .07-.06l.94-1.09a.2.2 0 0 1 .07-.05.2.2 0 0 1 .08-.03h1.71a.17.17 0 0 0 .05-.05l.95-1.07a.22.22 0 0 1 .07-.06.2.2 0 0 1 .1-.03h1.69l.02.02a.05.05 0 0 1 .01.03v1.42c0 .04-.02.05-.06.05H11.2a.1.1 0 0 0-.08.04l-.96 1.13a.22.22 0 0 1-.08.06.2.2 0 0 1-.09.01H8.33a.09.09 0 0 0-.07.04l-.99 1.14a.18.18 0 0 1-.06.04.17.17 0 0 1-.07.02H5.02a.03.03 0 0 1-.02-.02v-1.84Z" fill="#201818"/></svg>