<!-- by TradingView --><svg width="18" height="18" viewBox="0 0 18 18" xmlns="http://www.w3.org/2000/svg"><path fill="#F0F3FA" d="M0 0h18v18H0z"/><path d="M13 7.83c0 2.25-1.8 4.08-4 4.08s-4-1.83-4-4.08A4.07 4.07 0 0 1 7.62 4 5.08 5.08 0 0 0 4 8.9C4 11.72 6.24 14 9 14s5-2.28 5-5.1c0-2.33-1.53-4.29-3.62-4.9A4.08 4.08 0 0 1 13 7.83" fill="#03123D"/><path d="M6.6 8.7A2.42 2.42 0 0 1 9 6.26c1.32 0 2.4 1.1 2.4 2.44 0 1.06-.66 1.96-1.57 2.3A3.05 3.05 0 0 0 12 8.06 3.03 3.03 0 0 0 9 5C7.34 5 6 6.37 6 8.06c0 1.4.92 2.57 2.17 2.94A2.45 2.45 0 0 1 6.6 8.7Z" fill="#03123D"/><path d="M10.5 9.5a1.5 1.5 0 1 1-3 0 1.5 1.5 0 0 1 3 0Z" fill="#3C0E02"/></svg>