<!-- by TradingView --><svg width="18" height="18" viewBox="0 0 18 18" xmlns="http://www.w3.org/2000/svg"><path fill="#F0F3FA" d="M0 0h18v18H0z"/><path d="M2 6h1v6H2zM8.53 7.86c-.15-.23-.26-.42-.35-.49A1.95 1.95 0 0 0 7.07 7 2.1 2.1 0 0 0 5 9a2.1 2.1 0 0 0 2 2c.5 0 1-.25 1.4-.63l.76-.81.65.88-.64.68A3.03 3.03 0 0 1 4 9a3.04 3.04 0 0 1 4.82-2.42c.25.18.44.42.6.67l2.05 2.89c.15.23.26.35.35.41.35.26.77.46 1.18.45a2.1 2.1 0 0 0 2-2 2.1 2.1 0 0 0-1.99-2c-.5-.01-1.01.25-1.4.63l-.77.81-.65-.88.64-.68A3.03 3.03 0 0 1 16 9a3.04 3.04 0 0 1-4.82 2.42 2.72 2.72 0 0 1-.6-.67L8.52 7.86Z"/></svg>