<!-- by TradingView --><svg width="18" height="18" viewBox="0 0 18 18" xmlns="http://www.w3.org/2000/svg"><path fill="#F0F3FA" d="M0 0h18v18H0z"/><path fill-rule="evenodd" d="M9 14A5 5 0 1 0 9 4a5 5 0 0 0 0 10Zm0-.31A4.69 4.69 0 1 0 9 4.3a4.69 4.69 0 0 0 0 9.38Zm-4.42-4.7c0 1.26.53 2.4 1.38 3.19l.5-.5a4.08 4.08 0 0 1 3.67-6.9A4.35 4.35 0 0 0 4.58 9Zm8.8.01c0-1.25-.53-2.38-1.38-3.18l-.5.5a4.08 4.08 0 0 1-3.67 6.9A4.35 4.35 0 0 0 13.37 9Zm-3.4-.64L9 5l-.98 3.36-.69-2.46L6 10.7h1v.3h.67v-.3h1v.3h.66v-.3h1v.3H11v-.3h1l-1.33-4.8-.69 2.46Z" fill="#098C40"/></svg>