<!-- by TradingView --><svg width="18" height="18" viewBox="0 0 18 18" xmlns="http://www.w3.org/2000/svg"><path fill="#F0F3FA" d="M0 0h18v18H0z"/><path d="M6.7 12.83c.15.67 1 1.06 1.42 1.17H3l1.41-8c.28-1.6 1.3-2 1.77-2h4.06a4.4 4.4 0 0 0-2.12 1.5c-.88 1.17-1.6 6.5-1.41 7.33Z" fill="#E33E38"/><path d="M9.74 7.33c.67 0 1.24-.46 1.36-1.1l.22-1.14c.12-.63.7-1.09 1.36-1.09h.65c.87 0 1.52.75 1.37 1.57l-.2 1c-.11.64-.69 1.1-1.36 1.1h-.37a1.2 1.2 0 0 0-1.19.91c-.16.73.41 1.42 1.19 1.42h.84c.89 0 1.55.79 1.36 1.62l-.31 1.34c-.14.6-.7 1.04-1.36 1.04h-1.78c-.89 0-1.55-.79-1.35-1.62l.15-.67c.17-.7-.4-1.38-1.14-1.38-.76 0-1.31-.67-1.15-1.37l.13-.58c.14-.61.7-1.05 1.36-1.05h.22Z" fill="#1897DE"/></svg>