<!-- by TradingView --><svg width="18" height="18" viewBox="0 0 18 18" xmlns="http://www.w3.org/2000/svg"><path fill="#F0F3FA" d="M0 0h18v18H0z"/><path d="M14 9A5 5 0 1 1 4 9a5 5 0 0 1 10 0Zm-5.4.36c-.22-.15-.5-.16-.72-.32-.59-.44-.8-1.2-.32-1.84.37-.5.98-.56 1.35-.04.08.12.09.36-.1.4-.29.06-.33-.2-.4-.4-.02-.04-.04-.06-.08-.05-.17.02-.32.17-.29.36.1.64.57 1.22 1.27.78.45-.28.51-.94.4-1.4-.17-.66-.99-1.23-1.64-1.32a2.8 2.8 0 0 0-3.32 2.7c0 .08.02.16.05.23.03.08.04.08.05 0 .05-.92.45-1.6 1.2-2.05.31-.2.52.1.52.39 0 .57.03 1.14.28 1.65A1.72 1.72 0 0 0 8.6 9.46c.1-.02.1-.05.02-.1Zm.12-.45c-.42-.1-.7-.32-.9-.73-.02-.04-.03-.04-.03 0-.03.28.24.57.45.7a3.93 3.93 0 0 0 .58.2.05.05 0 0 0 .02-.03l-.01-.06a.14.14 0 0 0-.1-.08Zm2.8 2.63a.68.68 0 0 1-.1-.4c.04-.9-.17-1.84-.96-2.34a1.2 1.2 0 0 0-.45-.18c-.19-.03-.53-.07-.7.03-.07.04-.07.06.01.07.68.05 1.11.38 1.32.97.16.46.05.89-.28 1.24-.35.37-.72.4-1.12.1-.17-.11-.23-.26-.18-.44a.2.2 0 0 1 .29-.12c.13.08.2.2.2.34 0 .15.07.18.2.11l.06-.04a.3.3 0 0 0 .16-.32c-.08-.65-.6-1.2-1.29-.78a.83.83 0 0 0-.36.51c-.18.7 0 1.25.55 1.7.27.23.54.38.79.44 1.26.3 2.27-.04 3.04-1 .4-.5.65-1.2.55-1.84-.02-.1-.03-.1-.05 0-.12.74-.36 1.37-.96 1.84-.19.15-.52.42-.71.11Zm-2.3-2.41c.48.05.82.32 1 .77v.02h.06c.01 0 .02 0 .01-.02-.11-.53-.46-.84-1.03-.9-.04 0-.07.01-.07.06v.03l.01.02.03.02Z" fill="#BE2720"/><path d="M8.6 9.36c.09.05.08.08-.01.1a1.72 1.72 0 0 1-1.74-1 3.78 3.78 0 0 1-.28-1.66c0-.29-.21-.58-.52-.4a2.42 2.42 0 0 0-1.2 2.05c0 .09-.02.09-.05.01a.69.69 0 0 1-.05-.24c-.02-.52.12-.99.4-1.4a2.8 2.8 0 0 1 2.92-1.3c.65.1 1.47.67 1.64 1.34.11.45.05 1.1-.4 1.39-.7.44-1.17-.14-1.27-.78-.03-.2.11-.34.3-.36.03 0 .05 0 .06.04.08.2.12.47.42.4.18-.03.17-.27.09-.39-.37-.52-.98-.46-1.35.04-.48.64-.27 1.4.32 1.84.22.16.5.17.73.32Z" fill="#FBE84E"/><path d="M7.83 8.18c.18.41.47.63.9.73.04 0 .08.03.1.08v.06a.05.05 0 0 1-.06.04l-.53-.21c-.21-.13-.48-.42-.45-.7 0-.04.01-.04.04 0ZM11.53 11.54c.2.31.52.04.7-.1.61-.48.85-1.11.97-1.85.02-.1.03-.1.05 0 .1.63-.15 1.34-.55 1.83-.77.97-1.78 1.3-3.04 1-.25-.05-.52-.2-.8-.43-.54-.45-.72-1-.54-1.7.06-.22.18-.39.36-.5.68-.43 1.2.12 1.29.77a.3.3 0 0 1-.16.32l-.07.04c-.12.07-.18.04-.18-.1a.38.38 0 0 0-.21-.35.2.2 0 0 0-.3.12c-.04.18.02.33.19.45.4.3.77.26 1.12-.11.33-.35.44-.78.28-1.24-.2-.6-.64-.92-1.32-.97-.08 0-.08-.03-.01-.07.17-.1.51-.06.7-.03.15.03.3.09.45.18.8.5 1 1.44.97 2.34-.01.15.02.28.1.4Z" fill="#FBE84E"/><path d="M10.22 9.9a1.15 1.15 0 0 0-1-.77L9.2 9.1v-.05c0-.05.02-.07.06-.06.57.06.92.37 1.03.9v.02h-.06l-.01-.02Z" fill="#FBE84E"/></svg>