<!-- by TradingView --><svg width="18" height="18" viewBox="0 0 18 18" xmlns="http://www.w3.org/2000/svg"><path fill="#F0F3FA" d="M0 0h18v18H0z"/><path d="M8.4 4.01h-.65a.09.09 0 0 0-.09.09v.6c0 .05.04.09.1.09h.63c.05 0 .1-.04.1-.1v-.6a.09.09 0 0 0-.1-.08ZM9.3 4h-.6a.1.1 0 0 0-.1.1v.6c0 .05.04.09.1.09h.6a.1.1 0 0 0 .09-.1v-.6A.1.1 0 0 0 9.3 4ZM10.2 4h-.6a.1.1 0 0 0-.09.1v.6c0 .05.05.09.1.09h.6a.1.1 0 0 0 .1-.1v-.6a.1.1 0 0 0-.1-.09ZM6.54 4.94h-.6a.11.11 0 0 0-.1.11v.59c0 .06.04.1.1.1l.6.01c.06 0 .1-.05.1-.11v-.59a.11.11 0 0 0-.1-.1ZM7.47 4.95h-.62a.1.1 0 0 0-.09.09v.61c0 .06.04.1.1.1h.61a.1.1 0 0 0 .1-.1v-.61a.1.1 0 0 0-.1-.1Z" fill="#EE1C23"/><path d="M8.38 4.93h-.6a.1.1 0 0 0-.1.1v.62c0 .05.05.1.1.1h.6a.1.1 0 0 0 .1-.1v-.62a.1.1 0 0 0-.1-.1Z" fill="#F38480"/><path d="M9.29 4.94H8.7a.11.11 0 0 0-.11.11v.58c0 .07.05.12.1.12h.6c.06 0 .1-.05.1-.11v-.59a.11.11 0 0 0-.1-.11Z" fill="#EE1C23"/><path d="M10.2 4.94h-.57a.12.12 0 0 0-.12.12v.57c0 .07.06.12.12.12h.56c.07 0 .12-.05.12-.12v-.57a.12.12 0 0 0-.12-.12Z" fill="#D80B8C"/><path d="M11.1 4.94h-.55a.12.12 0 0 0-.13.12v.57c0 .06.06.12.13.12h.56c.06 0 .12-.06.12-.13v-.56a.12.12 0 0 0-.13-.12ZM12.04 4.94h-.58a.12.12 0 0 0-.12.12v.57c0 .07.06.12.12.12h.58c.07 0 .12-.05.12-.12v-.57a.12.12 0 0 0-.12-.12ZM5.6 5.86h-.55a.13.13 0 0 0-.13.13v.55c0 .07.06.13.13.13h.55c.07 0 .13-.06.13-.13v-.56a.13.13 0 0 0-.13-.12ZM6.57 5.86h-.65a.07.07 0 0 0-.07.08v.65c0 .04.03.07.07.07h.65c.04 0 .08-.03.08-.07v-.65a.07.07 0 0 0-.08-.08Z" fill="#EE1C23"/><path d="M7.48 5.87h-.63a.09.09 0 0 0-.09.08v.63c0 .04.04.08.09.08h.63c.04 0 .08-.03.08-.08v-.62a.09.09 0 0 0-.08-.1Z" fill="#D80B8C"/><path d="M8.38 5.86h-.6a.1.1 0 0 0-.1.1v.6c0 .05.04.1.1.1h.6a.1.1 0 0 0 .1-.1v-.6a.1.1 0 0 0-.1-.1Z" fill="#EE1C23"/><path d="M9.3 5.87H8.7a.1.1 0 0 0-.1.09v.61c0 .05.04.1.1.1h.61a.1.1 0 0 0 .1-.1v-.61a.1.1 0 0 0-.1-.1Z" fill="#9D070D"/><path d="M10.22 5.86H9.6a.1.1 0 0 0-.1.1v.6c0 .06.04.1.1.1h.6a.1.1 0 0 0 .1-.09v-.61a.1.1 0 0 0-.1-.1ZM11.14 5.86h-.61a.1.1 0 0 0-.1.1v.62c0 .05.05.09.1.09h.61a.1.1 0 0 0 .1-.1v-.61a.1.1 0 0 0-.1-.1Z" fill="#EE1C23"/><path d="M12.05 5.87h-.61a.1.1 0 0 0-.1.09v.6c0 .06.05.1.1.1h.61a.1.1 0 0 0 .1-.09v-.61a.1.1 0 0 0-.1-.1Z" fill="#D80B8C"/><path d="M12.96 5.86h-.58a.12.12 0 0 0-.12.11v.58c0 .06.05.11.12.11h.58c.06 0 .12-.05.12-.12v-.57a.12.12 0 0 0-.12-.11ZM5.61 6.78h-.58a.11.11 0 0 0-.1.11l-.01.58c0 .06.05.11.11.11h.58c.06 0 .12-.05.12-.11v-.58a.11.11 0 0 0-.12-.11ZM6.55 6.78h-.61a.1.1 0 0 0-.1.1v.6c0 .06.05.1.1.1h.6a.1.1 0 0 0 .1-.1v-.6a.1.1 0 0 0-.09-.1ZM7.47 6.78h-.62a.09.09 0 0 0-.09.09v.62c0 .05.04.09.1.09h.62c.04 0 .08-.04.08-.1v-.61a.09.09 0 0 0-.09-.1Z" fill="#EE1C23"/><path d="M8.38 6.78h-.6a.1.1 0 0 0-.1.1v.6c0 .05.04.1.1.1l.6-.01a.1.1 0 0 0 .1-.1v-.6a.1.1 0 0 0-.1-.1Z" fill="#9D070D"/><path d="M9.3 6.79H8.7a.1.1 0 0 0-.1.1l.01.6c0 .04.04.09.1.09h.6a.1.1 0 0 0 .1-.1v-.6a.1.1 0 0 0-.1-.1Z" fill="#F38480"/><path d="M10.23 6.78H9.6a.08.08 0 0 0-.08.08v.64c0 .04.03.08.07.08h.65c.04 0 .08-.03.08-.08v-.64a.08.08 0 0 0-.08-.08ZM12.06 6.78h-.62a.09.09 0 0 0-.1.09v.62c0 .05.04.09.09.09h.62c.05 0 .1-.04.1-.09v-.62a.09.09 0 0 0-.09-.09ZM12.97 6.78h-.6a.1.1 0 0 0-.1.1l-.01.6c0 .05.05.1.1.1h.6a.1.1 0 0 0 .11-.1v-.6a.1.1 0 0 0-.1-.1Z" fill="#EE1C23"/><path d="m11.14 6.8-.62-.01a.08.08 0 0 0-.08.08v.62c0 .05.03.09.08.09h.62c.05 0 .08-.04.08-.08v-.62a.08.08 0 0 0-.08-.09Z" fill="#F38480"/><path d="M4.7 7.69H4.1A.11.11 0 0 0 4 7.8v.59c0 .06.05.11.12.11h.58c.06 0 .11-.05.11-.11v-.6a.11.11 0 0 0-.11-.1ZM5.66 7.7H5a.07.07 0 0 0-.07.06v.66c0 .04.03.07.06.07h.67c.03 0 .06-.03.07-.06v-.67a.07.07 0 0 0-.07-.06Z" fill="#EE1C23"/><path d="M6.54 7.7h-.59a.1.1 0 0 0-.1.1v.59c0 .06.05.1.1.1h.6a.1.1 0 0 0 .1-.1v-.6a.1.1 0 0 0-.11-.1Z" fill="#F58220"/><path d="M7.45 7.7h-.6a.1.1 0 0 0-.1.1v.6c0 .05.05.1.1.1h.6a.1.1 0 0 0 .1-.1v-.6a.1.1 0 0 0-.1-.1ZM11.13 7.68h-.62a.1.1 0 0 0-.1.1v.62c.01.05.05.1.1.1l.63-.01a.1.1 0 0 0 .09-.1v-.61a.1.1 0 0 0-.1-.1ZM12.06 7.7h-.63a.08.08 0 0 0-.09.07v.64c0 .04.04.08.09.08h.63c.05 0 .09-.03.09-.08v-.63a.08.08 0 0 0-.09-.09Z" fill="#EE1C23"/><path d="M12.97 7.7h-.61a.1.1 0 0 0-.1.1v.6c0 .05.05.1.1.1h.6a.1.1 0 0 0 .1-.1v-.6a.1.1 0 0 0-.1-.1Z" fill="#F58220"/><path d="M13.85 7.69h-.52a.14.14 0 0 0-.15.14v.52c0 .08.06.14.14.14h.53c.08 0 .14-.06.14-.13v-.53a.14.14 0 0 0-.14-.14Z" fill="#9D070D"/><path d="M6.56 8.61h-.63a.09.09 0 0 0-.09.09v.62c0 .05.04.09.09.09h.63c.04 0 .08-.04.08-.08V8.7a.09.09 0 0 0-.08-.09ZM12.07 8.61h-.65a.08.08 0 0 0-.08.08v.64c0 .05.04.08.08.08h.64c.05 0 .09-.03.09-.08V8.7a.08.08 0 0 0-.08-.08ZM12.97 8.61h-.61a.1.1 0 0 0-.1.1v.6c0 .06.04.1.1.1h.6a.1.1 0 0 0 .1-.1v-.6a.1.1 0 0 0-.1-.1Z" fill="#EE1C23"/><path d="m4.72 8.6-.63.01A.09.09 0 0 0 4 8.7v.63c0 .05.05.08.1.08h.62c.05 0 .09-.04.09-.09V8.7a.09.09 0 0 0-.1-.1Z" fill="#F38480"/><path d="M5.63 8.61h-.61a.1.1 0 0 0-.1.1v.6c0 .06.05.1.1.1h.61a.1.1 0 0 0 .1-.1v-.6a.1.1 0 0 0-.1-.1Z" fill="#EE1C23"/><path d="M7.46 8.62h-.6a.1.1 0 0 0-.1.1v.59c0 .05.05.1.1.1h.6a.1.1 0 0 0 .1-.1v-.6a.1.1 0 0 0-.1-.09Z" fill="#F38480"/><path d="M11.13 8.6h-.62a.09.09 0 0 0-.1.1v.62c0 .05.05.09.1.09h.62c.05 0 .1-.04.1-.09V8.7a.09.09 0 0 0-.1-.1Z" fill="#EE1C23"/><path d="M13.9 8.62h-.62a.1.1 0 0 0-.1.1v.58c0 .06.05.1.1.1h.62a.1.1 0 0 0 .1-.1v-.58a.1.1 0 0 0-.1-.1Z" fill="#F38480"/><path d="M4.7 9.52h-.6a.1.1 0 0 0-.1.1v.6c0 .05.05.1.1.1h.6a.1.1 0 0 0 .11-.1v-.6a.1.1 0 0 0-.1-.1ZM7.47 9.52h-.62a.09.09 0 0 0-.1.09v.62c0 .05.04.09.1.09h.62c.05 0 .09-.04.09-.08V9.6a.09.09 0 0 0-.09-.09ZM11.15 9.53l-.64-.01a.09.09 0 0 0-.1.08v.63c0 .05.04.09.09.09h.64c.05 0 .09-.03.09-.08v-.63a.09.09 0 0 0-.08-.08Z" fill="#EE1C23"/><path d="M12.05 9.53h-.6a.1.1 0 0 0-.1.1v.6c0 .05.04.1.1.1h.6a.1.1 0 0 0 .1-.1v-.6a.1.1 0 0 0-.1-.1Z" fill="#D80B8C"/><path d="M13.9 9.52h-.63a.1.1 0 0 0-.1.09l.01.62c0 .05.04.1.1.1h.62a.1.1 0 0 0 .09-.1V9.6a.1.1 0 0 0-.1-.1ZM5.64 9.53h-.62a.08.08 0 0 0-.09.08v.63c0 .05.04.08.08.08h.63c.05 0 .09-.03.09-.08v-.63a.08.08 0 0 0-.09-.08Z" fill="#EE1C23"/><path d="M6.54 9.53h-.6a.1.1 0 0 0-.1.1v.59c0 .06.05.1.1.1h.6a.1.1 0 0 0 .1-.1v-.59a.1.1 0 0 0-.1-.1ZM12.97 9.53h-.6a.1.1 0 0 0-.1.1v.6c0 .05.04.1.1.1h.6a.1.1 0 0 0 .1-.1v-.6a.1.1 0 0 0-.1-.1Z" fill="#D80B8C"/><path d="M6.56 10.44h-.63a.08.08 0 0 0-.09.09v.62c0 .05.04.09.09.09h.63c.05 0 .09-.04.09-.09v-.63a.09.09 0 0 0-.1-.08ZM8.38 10.43h-.6a.1.1 0 0 0-.1.1v.62c0 .05.04.1.1.1h.6a.1.1 0 0 0 .1-.1v-.62a.1.1 0 0 0-.1-.1Z" fill="#EE1C23"/><path d="M9.28 10.43H8.7a.11.11 0 0 0-.11.11v.59c0 .06.05.1.11.1h.58c.06 0 .11-.05.11-.1v-.59a.11.11 0 0 0-.11-.11Z" fill="#9D070D"/><path d="m10.2 10.42-.59.01c-.06 0-.1.05-.1.11v.6c0 .06.05.1.11.1h.58c.06 0 .11-.05.11-.1v-.6c0-.07-.05-.12-.11-.12ZM12.06 10.44h-.63a.08.08 0 0 0-.08.08v.64c0 .04.03.08.08.08h.63c.05 0 .09-.04.09-.08v-.64a.08.08 0 0 0-.09-.08ZM5.63 10.44h-.61a.1.1 0 0 0-.1.1v.6c0 .06.04.1.1.1h.6a.1.1 0 0 0 .1-.1v-.6a.1.1 0 0 0-.1-.1ZM7.47 10.45h-.62c-.05 0-.1.03-.1.08v.62c0 .05.04.1.1.1h.61c.05 0 .1-.04.1-.1v-.61a.09.09 0 0 0-.1-.1ZM11.13 10.44h-.6a.1.1 0 0 0-.1.1v.6c0 .06.04.1.1.1h.6a.1.1 0 0 0 .1-.1v-.6a.1.1 0 0 0-.1-.1ZM12.98 10.44h-.62a.1.1 0 0 0-.1.1v.6c0 .06.04.1.1.1h.61a.1.1 0 0 0 .1-.09v-.61a.1.1 0 0 0-.09-.1ZM5.63 11.35h-.6a.1.1 0 0 0-.11.1v.61c0 .06.04.1.1.1h.6a.1.1 0 0 0 .11-.1v-.6a.1.1 0 0 0-.1-.1Z" fill="#EE1C23"/><path d="M6.55 11.36h-.61a.1.1 0 0 0-.1.09v.6c0 .06.04.1.1.1h.6a.1.1 0 0 0 .1-.09v-.6a.1.1 0 0 0-.09-.1Z" fill="#9D070D"/><path d="M8.39 11.35h-.63a.1.1 0 0 0-.09.09v.62c0 .05.04.1.09.1h.62a.1.1 0 0 0 .1-.1v-.61a.1.1 0 0 0-.1-.1ZM9.32 11.36h-.65a.08.08 0 0 0-.08.07v.65c0 .04.03.08.08.08h.64c.05 0 .08-.03.08-.07v-.65a.08.08 0 0 0-.07-.08ZM12.07 11.35h-.64a.08.08 0 0 0-.08.08v.65c0 .04.03.08.07.08h.65c.04 0 .08-.04.08-.08v-.65a.08.08 0 0 0-.08-.08Z" fill="#EE1C23"/><path d="M7.47 11.36h-.62a.08.08 0 0 0-.09.08v.63c0 .04.05.08.1.08h.62c.04 0 .08-.04.08-.09v-.62a.08.08 0 0 0-.09-.08Z" fill="#F58220"/><path d="M10.2 11.36h-.57a.12.12 0 0 0-.12.12v.55c0 .07.05.12.12.13h.56c.06 0 .12-.06.12-.12v-.56a.12.12 0 0 0-.12-.12Z" fill="#D80B8C"/><path d="M11.14 11.36h-.62a.09.09 0 0 0-.09.09v.62c0 .04.04.08.1.08h.61c.05 0 .09-.04.09-.09v-.61a.09.09 0 0 0-.1-.1Z" fill="#F38480"/><path d="M12.97 11.36h-.6a.1.1 0 0 0-.1.1v.6c0 .07.04.11.1.11h.6a.1.1 0 0 0 .11-.1v-.6a.1.1 0 0 0-.11-.11Z" fill="#F58220"/><path d="M6.56 12.27h-.63a.1.1 0 0 0-.1.1v.61c0 .06.04.1.1.1h.62a.1.1 0 0 0 .1-.09v-.62a.1.1 0 0 0-.1-.1ZM7.47 12.27h-.62a.09.09 0 0 0-.09.09v.63c0 .05.04.09.09.09h.62c.05 0 .1-.04.1-.09v-.63a.09.09 0 0 0-.1-.1ZM8.4 12.27h-.65a.07.07 0 0 0-.07.07V13c0 .04.03.07.07.07h.65c.04 0 .08-.03.08-.07v-.65a.07.07 0 0 0-.07-.08Z" fill="#EE1C23"/><path d="M9.3 12.27h-.62a.09.09 0 0 0-.08.1v.61c0 .05.04.09.1.09h.61c.05 0 .09-.05.09-.1v-.61a.08.08 0 0 0-.1-.09Z" fill="#F38480"/><path d="M10.2 12.27H9.6a.11.11 0 0 0-.1.12v.58c0 .06.04.11.1.11h.6c.05 0 .1-.05.1-.11v-.59a.11.11 0 0 0-.11-.1ZM11.13 12.27h-.6a.1.1 0 0 0-.1.1v.6c0 .06.04.1.1.1l.6.01a.1.1 0 0 0 .1-.1v-.6a.1.1 0 0 0-.1-.1ZM12.04 12.28h-.57a.12.12 0 0 0-.12.11v.57c0 .07.05.12.11.12h.57c.07 0 .13-.05.13-.12v-.56a.12.12 0 0 0-.12-.12ZM8.36 13.19h-.58a.11.11 0 0 0-.11.11v.59c0 .06.05.11.11.1h.59c.06 0 .11-.05.11-.1v-.6a.11.11 0 0 0-.12-.1ZM9.3 13.2l-.6-.02a.1.1 0 0 0-.1.1l-.01.6c0 .06.04.1.1.1l.6.02a.1.1 0 0 0 .1-.1l.02-.6a.1.1 0 0 0-.1-.1Z" fill="#EE1C23"/><path d="M10.23 13.2h-.65a.08.08 0 0 0-.07.07v.65c0 .04.03.08.07.08h.65c.04 0 .08-.04.08-.08v-.65a.08.08 0 0 0-.08-.07Z" fill="#937F46"/></svg>