<!-- by TradingView --><svg width="18" height="18" viewBox="0 0 18 18" xmlns="http://www.w3.org/2000/svg"><path fill="#F0F3FA" d="M0 0h18v18H0z"/><path d="M3 10.44v-.43l.54-.18c.02 0 .03-.02.03-.03V8.65l-.01-.02H3v-.44l.54-.01c.01 0 .02-.01.02-.03V4.01h.01V4H14l.01.02V14H7.62s-.02 0-.02-.02v-.4l.02-.02h1.73c.02 0 .03 0 .03-.02v-.51L9.38 13H7.64l-.02-.01v-.4c0-.02 0-.03.02-.03h1.71c.03 0 .04 0 .04-.03v-.5c0-.02-.01-.03-.03-.03H7.62V11.56H11.51V12H9.85l-.02.03v.51c0 .02 0 .03.03.03h1.62c.02 0 .03.01.03.03v.38l-.01.02-.02.01H9.87c-.02 0-.03 0-.03.03v.5c0 .02 0 .03.03.03h3.65c.02 0 .03 0 .03-.02V4.46l-.01-.02H4v3.74h.59l.01.02v.4l-.01.02H4v1.04a.02.02 0 0 0 .03 0l.56-.18h.01v.42l-.01.01-1.59.53Zm3.2-2.26 1.04-.22.02.01v1.34l-.01.02H6.8V8.5h-.02c0-.01 0-.01 0 0l-.59.1v.01c-.01 0 0 0 0 0v.7h-.01l-.02.01h-.43v-.59h-.02c0-.01 0-.01 0 0l-.47.1h-.01v1.07h1.91v-.22l.01-.02h.44l.01.02v.63l-.02.01H4.78V7.35a.02.02 0 0 1 0-.01h.44l.01.01V8.4l.01.01h.02l.46-.1h.01V7.34l.01-.01h.44l.01.01v.83h.01Zm2.83 2.71.35.44a.02.02 0 0 0 0 .01H10v-.02l-.35-.45h-.62v.02Z" fill="#E60012"/></svg>