<!-- by TradingView --><svg width="18" height="18" viewBox="0 0 18 18" xmlns="http://www.w3.org/2000/svg"><path fill="#F0F3FA" d="M0 0h18v18H0z"/><path d="M6.83 5.5a1.33 1.33 0 1 1-2.66 0 1.33 1.33 0 0 1 2.66 0Z" fill="#FF7C2A"/><path d="M7 5.5a1.5 1.5 0 1 1-3 0 1.5 1.5 0 0 1 3 0ZM5.5 6.83a1.33 1.33 0 1 0 0-2.66 1.33 1.33 0 0 0 0 2.66Z"/><path d="M11.17 5.5a1.33 1.33 0 1 0 2.66 0 1.33 1.33 0 0 0-2.66 0Z" fill="#17891B"/><path d="M11 5.5a1.5 1.5 0 1 0 3 0 1.5 1.5 0 0 0-3 0Zm1.5 1.33a1.33 1.33 0 1 1 0-2.66 1.33 1.33 0 0 1 0 2.66Z"/><path d="M10.82 5a1.82 1.82 0 1 1-3.64 0 1.82 1.82 0 0 1 3.64 0Z" fill="#FCFCFC"/><path d="M11 5a2 2 0 1 1-4 0 2 2 0 0 1 4 0ZM9 6.82a1.82 1.82 0 1 0 0-3.64 1.82 1.82 0 0 0 0 3.64Z"/><path d="M4.11 6.82 5.9 7.84v5.62l-1.78-2.2V6.82Z" fill="#FF7C2A"/><path d="m4 6.6 2 1.15v6.05l-2-2.48V6.6Zm.11.22v4.44l1.78 2.2V7.84L4.1 6.82Z"/><path d="M13.89 6.82 12.1 7.84v5.62l1.78-2.2V6.82Z" fill="#17891B"/><path d="m14 6.6-2 1.15v6.05l2-2.48V6.6Zm-.11.22v4.44l-1.78 2.2V7.84l1.78-1.02Z"/><path d="M7.65 8.13h2.7v5.83L9 14.83l-1.35-.87V8.13Z" fill="#FCFCFC"/><path fill-rule="evenodd" d="M7.49 8h3.02v6.02L9 15l-1.51-.98V8Zm.16 5.96V8.13h2.7v5.83L9 14.84l-1.35-.88Z"/></svg>