<!-- by TradingView --><svg width="18" height="18" viewBox="0 0 18 18" xmlns="http://www.w3.org/2000/svg"><path fill="#006B85" d="M0 0h18v18H0z"/><path d="M7.67 15c-.33-.5-.88-1.75-.49-2.75-.56.08-1.26.75.49 2.75Z" fill="#FBFDF8"/><path d="M7.42 15c-.56-.5-1.55-1.7-.97-2.5-.64.25-1.35 1.1.97 2.5Z" fill="#FBFDF8"/><path d="M10.33 11.5c-5.62 0-5.33 2.25-3.4 3.5C6.22 14.75 5 13.75 5 12.75c0-1.8 3.98-2.58 6-2.75-.2 1.2-.5 1.5-.67 1.5Z" fill="#FBFDF8"/><path d="M12 7c-3.5.4-6.03 3.42-6.76 4.75 2.14-2 4.93-2.67 6.06-2.75l.7-2Z" fill="#FBFDF8"/><path d="M13 3c-5.24 3.2-7.2 6.5-7.52 7.75 2.91-3.2 5.74-4.83 6.8-5.25L13 3Z" fill="#FBFDF8"/></svg>