<!-- by TradingView --><svg width="18" height="18" viewBox="0 0 18 18" xmlns="http://www.w3.org/2000/svg"><path fill="#F0F3FA" d="M0 0h18v18H0z"/><path d="M7.75 5h1.92l-.88 5.28c-.16.95-.48 1.72-1.29 2.23a2.7 2.7 0 0 1-1.26.45l-.9.04H3v-.12l.22-1.18c0-.02.02-.04.04-.03.72.02 1.35 0 1.9-.05.77-.06 1.29-.53 1.56-1.21.18-.45.34-1.26.43-1.84L7.75 5Z" fill="#141EDB"/><path d="M11.9 5H15l-.25 1.5c0 .02-.02.03-.04.03h-1.77c-.27 0-.46.02-.56.07-.29.12-.42.64-.47.98l-.42 2.46c-.05.29-.31.36-.58.36H9.55c-.02 0-.03-.02-.02-.04l.53-3.2c.06-.36.13-.73.26-1.04.3-.67.84-1.05 1.58-1.12Z" fill="#DE2910"/><path d="M13.86 11.23a2.67 2.67 0 0 1-1.83 1.64c-.22.06-.56.12-1.02.13H8.17c-.03 0-.03-.03 0-.05.58-.44.97-.77 1.18-1.51l.02-.03h2.06c.4-.02.66-.54.74-.97l.42-2.55c.04-.27.24-.33.48-.33h1.46c.02 0 .03.01.02.04a132 132 0 0 1-.41 2.53 6.2 6.2 0 0 1-.28 1.1Z" fill="#FF7400"/></svg>