<!-- by TradingView --><svg xmlns="http://www.w3.org/2000/svg" width="18" height="18"><path fill="#EE8012" d="M0 0h18v18H0z"/><path d="M10.56 5.83A4.69 4.69 0 008.44 9.3c-.26-1.75.46-3.7 2.83-5.3-.11.26-.1.54-.1.8 0 .25.01.48-.09.68-.06.08-.19.15-.3.22l-.22.13zm-2.92-1.4c.05.25.21.48.38.7.16.23.33.45.4.72.04.2-.1.43-.23.66-.07.1-.14.22-.19.33a4.74 4.74 0 00.27 4.33c-2.02-2.1-1.77-4.72-.63-6.75zm5.78 1.08c-1.3-.03-3.76 1.53-4 2.8a4.55 4.55 0 012.21-1.61c.21-.07.4-.09.56-.1.2-.03.38-.05.54-.15.14-.08.18-.19.24-.31l.08-.18c.1-.17.22-.3.37-.45zm-.21 2.28a2.66 2.66 0 00-2-.52c1.31-.46 2.54-.13 3.29.7a1 1 0 00-.64.07c-.1.04-.19.07-.33.04a.457.457 0 01-.17-.14l-.15-.15zM5.57 9.13A3.62 3.62 0 014 8.58c.92 3.76 4.68 5.8 7.56 5.36-1.63-.06-3.7-1.48-4.58-3.25l-.25-.55c-.13-.3-.23-.53-.36-.7-.12-.18-.3-.23-.59-.28l-.21-.03z" fill="#fff"/></svg>