<!-- by TradingView --><svg width="18" height="18" viewBox="0 0 18 18" xmlns="http://www.w3.org/2000/svg"><path fill="#F0F3FA" d="M0 0h18v18H0z"/><ellipse cx="9.19" cy="9" rx="3.78" ry="4" fill="url(#a)"/><path d="M11.69 12c-.63.59-1.45.96-2.34 1 .1-.3.24-.62.4-.8.39-.4.76-.4.95-.4.1 0 .29.05.48.1.18.05.37.1.47.1h.04Z" fill="#0B121A"/><path d="M12.15 11.5c.51-.69.82-1.56.82-2.5 0-.9-.27-1.72-.74-2.38l-.07.05c-.15.12-.32.26-.51.33-.32.11-.4-.1-.48-.3-.06-.15-.11-.3-.28-.3-.38 0-.19.4.2.6.37.2 0 .4-.2.4-.19 0-.38.4-.38.6 0 .1.15.05.29 0 .14-.05.28-.1.28 0 0 .2-.38.4-.57.4-.08 0-.16-.11-.24-.22-.1-.15-.22-.3-.32-.18-.13.13-.1.34-.05.58.02.14.05.28.05.42 0 .26-.08.27-.29.3-.11 0-.27.03-.47.1-.35.12-.27.25-.15.42.07.1.15.23.15.38 0 .2-.05.25-.1.3-.04.05-.09.1-.09.3 0 .17.03.27.06.34.03.1.05.14-.06.26-.19.2-.38-.4-.38-.6 0-.08.03-.17.07-.26.06-.14.12-.3.12-.54 0-.26-.23-.35-.45-.43-.12-.05-.24-.1-.3-.17-.14-.14-.18-.08-.26.03l-.12.17c-.09.09-.06.25-.04.4.03.2.06.4-.15.4-.25 0-.34-.42-.42-.83-.04-.22-.09-.43-.15-.57-.14-.29-.27-.26-.48-.23-.08.01-.17.03-.28.03-.2 0-.08.16.04.35.11.17.24.35.15.45-.19.2-.19.4 0 .8.11.24-.19.42-.48.52a4 4 0 0 0 .62.88h1.19c.28 0 .47.1.66.2.19.1.38.2.66.2.46 0 .42-.39.4-.75l-.02-.25c0-.23.06-.33.12-.41.04-.06.07-.1.07-.19 0-.2.19 0 .38.2l.1.13c.17.2.38.47.84.47.44 0 .65 0 1.26.1Z" fill="#E3ECF1"/><path fill-rule="evenodd" d="M15.8 6.04c.02.04.01.09-.02.11l-.34.24.03.04.29-.21a.07.07 0 0 1 .1.02l.13.2c.02.04.01.1-.02.12l-.31.22.1.17c-.4.21-1.12.54-1.49.52l-.45.33c.23.24.41.56.41.97 0 .6-.37 1.3-1.1 1.91a6.63 6.63 0 0 1-3.38 1.33c-1.51.2-2.76.16-3.69-.13a2.56 2.56 0 0 1-1.62-1.24c-.19.08-.38.13-.58.15a2.7 2.7 0 0 1-.78 1.1c-.17.15-.36.27-.55.3-.1.02-.2.01-.3-.04a.46.46 0 0 1-.2-.27c-.12-.42.09-.81.4-1.07.3-.23.7-.38 1.15-.41.15-.5.45-.8.68-.94.07-.32.22-.6.4-.84.29-.37.67-.65.97-.8-.06.18-.11.36-.15.56a2.6 2.6 0 0 0-.68.72l.64-.46a4.4 4.4 0 0 0-.03.51l-.8.58c0 .12 0 .24.03.36a3.4 3.4 0 0 0 .78-.6l.06.48a4.37 4.37 0 0 1-.7.5c.24.46.7.8 1.39 1.02.85.27 2.05.32 3.54.12 1.47-.2 2.52-.7 3.19-1.25.68-.56.96-1.17.96-1.59a1 1 0 0 0-.36-.74l-.63.46a4.32 4.32 0 0 0-.1-.43l.38-.27a2.38 2.38 0 0 0-.53-.22 4.17 4.17 0 0 0-.2-.4h.28l.22.07a2.7 2.7 0 0 1 .58.3l.58-.43c.16-.37.76-.9 1.11-1.17l.06.1.32-.23a.07.07 0 0 1 .1.03l.13.2ZM4.3 10.27l-.01-.02a1.82 1.82 0 0 1-.05-.26c-.09.09-.17.21-.24.37.1-.02.2-.05.3-.1Zm-1.64.87c.19-.16.46-.28.78-.32-.13.28-.36.56-.59.76a.9.9 0 0 1-.37.21h-.06l-.02-.04c-.06-.19.01-.41.26-.61Z" fill="#858596"/><defs><linearGradient id="a" x1="9.19" y1="5" x2="9.19" y2="13" gradientUnits="userSpaceOnUse"><stop stop-color="#195D6D"/><stop offset=".49" stop-color="#A1B6C2"/><stop offset="1" stop-color="#7A909A"/></linearGradient></defs></svg>