<!-- by TradingView --><svg width="18" height="18" viewBox="0 0 18 18" xmlns="http://www.w3.org/2000/svg"><path fill="#CCFAFF" d="M0 0h18v18H0z"/><path d="M9.7 3.47c.27-.6.7-.5.88-.37.1.16.28.6.3 1.07 0 .59-.6 1.64-.95 1.53-.36-.1-.57-1.47-.23-2.23Zm-2.18.4c-.6-.32-.86.03-.92.24.03.18.15.64.44 1.02.36.47 1.5.93 1.71.64.22-.3-.48-1.5-1.23-1.9ZM5.87 6.1c-.68.03-.72.47-.66.68.12.14.47.46.92.64.56.22 1.78.03 1.8-.33.02-.37-1.22-1.03-2.06-1Zm7.72-1.35c-.06-.21-.33-.56-.92-.24-.75.4-1.45 1.6-1.23 1.9.21.3 1.35-.17 1.71-.64.29-.38.41-.84.44-1.02Zm1.39 2.66c.06-.22.02-.65-.66-.68-.84-.05-2.08.62-2.06.98.02.37 1.24.55 1.8.34.45-.18.8-.5.92-.64Z" fill="#FDAD07"/><path d="M7.76 7.72v2.3c0 .25-.22.46-.49.46a.47.47 0 0 1-.48-.46v-.65c0-.6-.52-1.1-1.16-1.1-.64 0-1.18.5-1.18 1.12v1.02c0 .1.01.19.04.28v.03a2.83 2.83 0 0 0 2.76 2.05h.07a2.88 2.88 0 0 0 2.93-2.82V7.72c0-.66-.56-1.2-1.25-1.2s-1.24.54-1.24 1.2Z" fill="#fff"/><path fill-rule="evenodd" d="M7.3 10.02v-2.3c0-.9.76-1.63 1.7-1.63s1.7.73 1.7 1.63v2.23c0 1.8-1.52 3.25-3.38 3.25h-.07c-1.5 0-2.8-.97-3.19-2.37v-.03A1.45 1.45 0 0 1 4 10.4V9.4c0-.86.74-1.56 1.63-1.56.88 0 1.61.69 1.61 1.54v.65l.03.03c.02 0 .03-.02.03-.03Zm.46 0v-2.3c0-.66.55-1.2 1.24-1.2s1.25.54 1.25 1.2v2.23a2.88 2.88 0 0 1-2.93 2.82h-.07c-1.3 0-2.42-.84-2.75-2.05l-.01-.03a1.03 1.03 0 0 1-.04-.28V9.4c0-.62.54-1.12 1.18-1.12.64 0 1.16.5 1.16 1.1v.65c0 .25.22.46.48.46.27 0 .49-.2.49-.46Z" fill="#D1223F"/><path d="M9.55 8.44v2.33c0 .26-.21.47-.48.47a.45.45 0 0 1-.46-.47v-.66c0-.62-.55-1.27-1.2-1.27-.64 0-1.18.66-1.18 1.3v1.03c0 .1.01.19.04.28v.04a2.85 2.85 0 0 0 2.78 2.07h.06a2.9 2.9 0 0 0 2.95-2.86V8.44c0-.67-.56-1.22-1.25-1.22-.7 0-1.26.55-1.26 1.22Z" fill="#fff"/><path fill-rule="evenodd" d="M9.1 10.77V8.44c0-.92.76-1.66 1.7-1.66.95 0 1.72.74 1.72 1.66v2.26c0 1.82-1.53 3.3-3.4 3.3h-.07a3.3 3.3 0 0 1-3.21-2.4l-.01-.04a1.49 1.49 0 0 1-.06-.39v-1.04c0-.88.75-1.63 1.65-1.63.88 0 1.62.75 1.62 1.61v.66c0 .01.01.03.03.03.02 0 .03-.02.03-.03Zm.45 0V8.44c0-.67.57-1.22 1.26-1.22.7 0 1.25.55 1.25 1.22v2.26a2.9 2.9 0 0 1-2.95 2.86h-.06c-1.3 0-2.44-.85-2.77-2.07l-.01-.04a1.06 1.06 0 0 1-.04-.28v-1.04c0-.63.54-1.29 1.19-1.29.64 0 1.2.65 1.2 1.27v.66c0 .26.18.47.45.47s.48-.21.48-.47Z" fill="#D1223F"/></svg>