<!-- by TradingView --><svg width="18" height="18" viewBox="0 0 18 18" xmlns="http://www.w3.org/2000/svg"><path fill="#F0F3FA" d="M0 0h18v18H0z"/><path d="M9 4c2.67 2.28 2.67 5.72 0 8-2.67-2.28-2.67-5.72 0-8Z" fill="url(#a)"/><path d="M2 9.66a5.36 5.36 0 0 0 7 1.68 5.36 5.36 0 0 0-7-1.68Z" fill="url(#b)"/><path d="M16 9.66a5.36 5.36 0 0 1-7 1.68 5.36 5.36 0 0 1 7-1.68Z" fill="url(#c)"/><path d="M9 8c1.33 1.14 1.33 2.86 0 4-1.33-1.14-1.33-2.86 0-4Z" fill="url(#d)"/><path d="M4.67 10.86A3.67 3.67 0 0 0 9 11.6a3.67 3.67 0 0 0-4.33-.75Z" fill="url(#e)"/><path d="M13.33 10.86A3.67 3.67 0 0 1 9 11.6a3.67 3.67 0 0 1 4.33-.75Z" fill="url(#f)"/><defs><linearGradient id="a" x1="7" y1="5.66" x2="9.5" y2="9.18" gradientUnits="userSpaceOnUse"><stop stop-color="#EAF4DA"/><stop offset="1" stop-color="#8AC93A"/></linearGradient><linearGradient id="b" x1="7.32" y1="11.19" x2="2.18" y2="9.43" gradientUnits="userSpaceOnUse"><stop offset=".14" stop-color="#8AC93A"/><stop offset="1" stop-color="#EAF4DA"/></linearGradient><linearGradient id="c" x1="14.91" y1="9.26" x2="9.65" y2="11.69" gradientUnits="userSpaceOnUse"><stop stop-color="#EAF4DA"/><stop offset=".86" stop-color="#8AC93A"/></linearGradient><linearGradient id="d" x1="8" y1="8.83" x2="9.25" y2="10.59" gradientUnits="userSpaceOnUse"><stop stop-color="#EAF4DA"/><stop offset="1" stop-color="#8AC93A"/></linearGradient><linearGradient id="e" x1="7.96" y1="11.58" x2="4.92" y2="10.33" gradientUnits="userSpaceOnUse"><stop offset=".14" stop-color="#8AC93A"/><stop offset="1" stop-color="#EAF4DA"/></linearGradient><linearGradient id="f" x1="10.04" y1="11.58" x2="13.08" y2="10.33" gradientUnits="userSpaceOnUse"><stop offset=".14" stop-color="#8AC93A"/><stop offset="1" stop-color="#EAF4DA"/></linearGradient></defs></svg>