<!-- by TradingView --><svg width="18" height="18" viewBox="0 0 18 18" xmlns="http://www.w3.org/2000/svg"><path fill="#F0F3FA" d="M0 0h18v18H0z"/><path d="M8.1 3.59c.2-.03.21.01.05.12l-.4.29c-.1.06-.1.13-.03.21l.2.2a.13.13 0 0 0 .2 0 3 3 0 0 1 1.9-.84c.07-.01.1-.05.09-.12l-.05-.3c-.01-.05-.04-.08-.1-.08a6.77 6.77 0 0 0-2.73.17c-.14.04-.19.12-.14.26l.08.2c.04.13.12.16.24.1.22-.1.45-.18.7-.21Zm2.43-.47 1.16.39c.07.02.1.1.08.17l-.1.29c-.02.07-.1.1-.17.08l-1.15-.39a.13.13 0 0 1-.09-.16l.1-.3c.03-.07.1-.1.17-.08ZM4.71 5.6c0-.03 0-.05-.03-.05l-.05-.01h-.01a.67.67 0 0 1-.16.3.24.24 0 0 1-.28.05c-.23-.11-.29-.25-.16-.4a6.66 6.66 0 0 1 2.77-2.1.13.13 0 0 1 .12.1l.12.32c.03.1 0 .16-.1.18-.68.17-1.19.63-1.53 1.39-.13.26-.23.56-.32.9-.05.16-.16.23-.33.2l-.1-.02c-.17-.03-.22-.13-.16-.29l.22-.57Zm7.17-1.39c.13.04.2.07.22.09.05.06.04.08-.03.07a.41.41 0 0 1-.16-.07c-.06-.04-.11-.03-.15.04-.06.1-.1.2-.11.31a.13.13 0 0 0 .07.14l.46.21c.57.25 1.08.64 1.52 1.17.06.07.13.09.21.05l.27-.12c.08-.04.1-.1.05-.18a6.78 6.78 0 0 0-2.1-2.17.12.12 0 0 0-.1.02.11.11 0 0 0-.03.03l-.17.3c-.03.05-.02.1.05.11Zm-.51.42a.2.2 0 0 1-.17.1c-.66.03-1.32.24-1.98.65-.07.05-.1.03-.1-.05.03-.13.1-.26.25-.4.55-.5 1.24-.73 2.07-.7.1 0 .14.05.08.14l-.15.26Zm-4.4 1.86c.17-.59.46-1.17.9-1.74.05-.08.04-.14-.03-.2L7.6 4.4c-.07-.05-.13-.04-.18.03a3.85 3.85 0 0 0-.67 2.1c.09.2.16.18.22-.03Zm-3.14-.62.38.27a.04.04 0 0 1 .01.06c-.37.64-.67 1.3-.9 2-.03.07-.04.16-.05.25-.03.16-.05.33-.13.45-.03.05-.06.04-.08-.01a1.31 1.31 0 0 1-.06-.4 5.3 5.3 0 0 1 .76-2.6c.02-.04.05-.04.07-.02Zm7.73 2.71.67.95c.04.06.09.06.14.01l1.1-1.09a.27.27 0 0 0 0-.38c-.16-.18-.28-.4-.35-.64-.11-.37-.26-.5-.59-.67a.4.4 0 0 1-.12-.09 3.1 3.1 0 0 0-.63-.59c-.46-.19-.52-.1-.2.28a2.47 2.47 0 0 1-.02 2.1.13.13 0 0 0 0 .12Zm2.79-1.02.01-.02.02-.04-.47-1.03a.08.08 0 0 1 .03-.1l.03-.02.41-.06c.06-.01.1 0 .12.06.3.6.46 1.23.49 1.87.03.62 0 1.21-.1 1.79-.01.08-.06.11-.15.1l-.4-.07c-.07-.02-.11-.06-.1-.14a4.23 4.23 0 0 0-1.74-3.66c-.05-.03-.06-.07-.03-.1l.03-.03h.05a3.22 3.22 0 0 1 1.77 1.45h.02Zm-9.52-.91h-.01l-.41.02a.04.04 0 0 0-.04.03v.02a14.95 14.95 0 0 0 .14 1.25c.02.16.05.29.08.37.03.1.06.13.09.13h.1c.02 0 .05-.05.07-.14.01-.1.03-.22.03-.39a9.15 9.15 0 0 0-.02-1.25.04.04 0 0 0-.03-.04Zm4.53.42a.02.02 0 0 1 .02 0v.02c0 .04 0 .08-.02.12a.32.32 0 0 1-.08.1.46.46 0 0 1-.13.09.57.57 0 0 1-.15.04h-.05a.52.52 0 0 1-.3-.05c-.1-.05-.14-.12-.15-.2a.02.02 0 0 1 0-.02h.01l.85-.1ZM9.3 8.48c-.26-.12-.48 0-.68.16a.14.14 0 0 1-.08.03l-.76.02a.2.2 0 0 1-.14-.05c-.24-.22-.28-.47-.14-.74a.77.77 0 0 1 .7-.43h.51c.16 0 .3.03.4.11.12.1.2.22.22.38.04.2.1.25.26.34a.1.1 0 0 1 .05.1.1.1 0 0 1-.07.1.36.36 0 0 1-.27-.02Zm-.9-.4c.1 0 .19-.05.2-.1 0-.07-.1-.12-.2-.12s-.19.05-.19.1c0 .07.09.12.2.12Zm2.72 1.17-.09-.52a.12.12 0 0 1 .12-.13l.06.01c.16.1.29.26.38.5.02.04.06.08.1.12.26.17.37.42.34.73a.2.2 0 0 0 .05.14c.22.24.26.5.13.76a.16.16 0 0 0 0 .14l.14.3a.15.15 0 0 1 0 .13.7.7 0 0 1-.27.28.13.13 0 0 1-.14 0 4.46 4.46 0 0 0-1.52-.58.1.1 0 0 1-.03-.12c.28-.56.34-1.15.16-1.77-.03-.08 0-.1.08-.06l.32.18a.12.12 0 0 0 .16-.05v-.06Zm2.73.71-.18-1.08a.15.15 0 0 0-.1-.12.15.15 0 0 0-.16.03l-1.06 1.06a.15.15 0 0 0-.03.17l.2.4a.15.15 0 0 0 .18.08l1.05-.37a.15.15 0 0 0 .1-.17Zm-5.66.8-.8.12c-.06.01-.07 0-.03-.06.43-.58.6-1.17.52-1.79-.02-.1.02-.14.12-.14h.28c.1 0 .17.05.19.15.12.6.12 1.16 0 1.66 0 .02 0 .04-.03.06a.13.13 0 0 1-.06.03c-.05.01-.1 0-.15-.03H8.2Zm-3.78-.54a2.72 2.72 0 0 1-.84-.7c-.05-.05-.08-.11-.11-.17a.57.57 0 0 0-.1-.15.1.1 0 0 0-.07-.03.13.13 0 0 0-.07.03.2.2 0 0 0-.06.08 1.2 1.2 0 0 0 .09 1.27c.06.13.12.28.16.47a.12.12 0 0 0 .09.08l1.26.32a.11.11 0 0 0 .13-.07.1.1 0 0 0 0-.06l-.12-.8c-.01-.06-.04-.1-.08-.13a3.26 3.26 0 0 0-.28-.14Zm1.21.21c0-.12.04-.2.1-.27.04-.05.08-.05.1 0 .27.51.64.81 1.11.91.03 0 .04.02.03.04l-.24 1.31c0 .02-.01.03-.03.02-.69-.05-1.14-.3-1.37-.75-.31-.59-.37-1.24-.18-1.96 0-.03.02-.04.05-.04a.1.1 0 0 1 .04 0l.02.04c.01.28.05.5.12.65.04.08.1.12.17.13a.08.08 0 0 0 .06-.02.08.08 0 0 0 .02-.06Zm9.15.02a.1.1 0 0 0-.05-.06l-.3-.1a.1.1 0 0 0-.13.05l-.53 1.36c-.05.13-.09.25-.1.35 0 .1 0 .16.04.17l.23.09c.03.01.08-.03.14-.1.06-.08.12-.2.17-.32l.53-1.37a.1.1 0 0 0 0-.07Zm-.93.1c-.02.04-.03.26-.04.67a.2.2 0 0 1-.05.13.17.17 0 0 1-.12.05l-.92.05c-.1 0-.17-.04-.18-.15l-.06-.36c-.02-.1.02-.16.11-.19l1.13-.36h.04c.08.02.11.08.09.15Zm-3.79 3.58c.6.03.92-.44.59-.97a.12.12 0 0 1 .01-.14 1 1 0 0 0 .2-.29.14.14 0 0 0 0-.12l-.15-.3a.15.15 0 0 1 .02-.18l.35-.47a.09.09 0 0 0 .02-.08.09.09 0 0 0-.05-.05c-.4-.17-.79-.22-1.16-.15-.24.04-.43.04-.57 0-.22-.08-.4-.19-.55-.32a.17.17 0 0 0-.15-.04l-.62.1c-.05 0-.1 0-.15-.02-.15-.06-.32-.03-.5.1a.64.64 0 0 0-.27.38c-.13.52-.01.97.36 1.36.7.75 1.58 1.14 2.62 1.19Zm-5.2-2.47c.1.02.15.02.23.13a7.16 7.16 0 0 1 .25.37.08.08 0 0 1-.03.07.08.08 0 0 1-.04.02l-.91.14a.25.25 0 0 1-.26-.13c-.08-.16-.24-.4-.49-.69-.03-.04-.03-.09 0-.13a.13.13 0 0 1 .12-.03 49.48 49.48 0 0 1 1.13.25Zm8.15.88.6-.8a.06.06 0 0 0 0-.07.07.07 0 0 0-.05-.03l-.9.04c-.4.02-.45.16-.15.42.1.09.24.24.41.44.03.04.06.04.1 0Zm-1.93.1-.12-.33a.21.21 0 0 1 .03-.2l.28-.38a.14.14 0 0 1 .18-.04c.46.24.87.58 1.22 1a.28.28 0 0 1-.03.39 4.42 4.42 0 0 1-1.59.82.12.12 0 0 1-.09-.09v-.06a.65.65 0 0 0-.06-.53.14.14 0 0 1 .01-.16l.13-.17a.26.26 0 0 0 .04-.24Zm1.03 1.65.03-.02 1.7-1.57a.08.08 0 0 0 .01-.12l-.11-.12a.28.28 0 0 0-.07-.05.24.24 0 0 0-.08-.03h-.07a.14.14 0 0 0-.06.04l-1.57 1.44a.14.14 0 0 0-.04.06l-.01.07.02.08.05.08.11.12a.08.08 0 0 0 .1.02ZM7.07 13.1l-1.52.53a.33.33 0 0 1-.4-.15l-.02-.04c-.07-.14-.14-.28-.3-.37a1.3 1.3 0 0 1-.35-.3.13.13 0 0 1 .08-.2l.93-.16.19.01 1.2.3c.04 0 .07.03.1.06.07.07.11.14.14.22.01.05 0 .08-.05.1Zm1.15.82H8.2l-.8-.6a.27.27 0 0 0-.26-.04l-1.15.4c-.26.1-.27.22-.03.36l.95.55c.28.15.53.12.76-.1l.53-.53a.03.03 0 0 0 .01-.03Zm2.6.54a.47.47 0 0 1-.14-.14c-.03-.05-.02-.1.03-.13.21-.15.39-.1.52.17.03.04.06.07.12.08l.23.04c.03 0 .05.03.06.06a.1.1 0 0 1 0 .04c0 .03-.03.05-.07.07l-1.19.33h-.05a.06.06 0 0 1-.03-.04l-.02-.05a.06.06 0 0 1 .02-.06l.02-.01c.2-.07.37-.14.5-.23.05-.05.05-.09 0-.13Zm-1.73-.11.09.12a.12.12 0 0 1 .01.13.13.13 0 0 1-.1.07l-.9.1a.08.08 0 0 0-.06.05l-.02.04c0 .05.03.09.08.1.36.05.69.04.98-.04.22-.06.4 0 .57.06a5.83 5.83 0 0 0 .09.01.04.04 0 0 0 .02-.02v-.06c.02-.06 0-.1-.06-.1-.2-.06-.29-.19-.25-.4a.13.13 0 0 0-.08-.13.55.55 0 0 0-.33-.04c-.07.01-.08.05-.04.1Z" fill="#141414"/></svg>