<!-- by TradingView --><svg width="18" height="18" viewBox="0 0 18 18" xmlns="http://www.w3.org/2000/svg"><path fill="#F0F3FA" d="M0 0h18v18H0z"/><path fill-rule="evenodd" d="M8.03 3h1.91l.2.5v.03a.03.03 0 0 1-.03.02h-.3s-.01 0 0 0l.1.27h.49a.04.04 0 0 1 .04.03l.25.6-.02.04h-.47a.01.01 0 0 0-.01.02l.36 1.02a.03.03 0 0 1 0 .04h-.01l-.02.01h-.68l-.02-.01-.02-.03-.38-1.02a.04.04 0 0 0-.04-.03h-.8a.04.04 0 0 0-.03.04l-.37 1.01-.02.02-.03.02h-.7a.02.02 0 0 1-.02-.02v-.01l.38-1.02a.02.02 0 0 0-.03-.03H7.3a.02.02 0 0 1-.02-.02.02.02 0 0 1 0-.02l.23-.59a.08.08 0 0 1 .08-.04h.46l.01-.01.1-.26v-.01h-.28c-.04 0-.06 0-.04-.05l.19-.5Zm.82.55h.28a.02.02 0 0 1 .02 0l.09.25a.02.02 0 0 1-.02.02h-.45a.02.02 0 0 1-.02 0V3.8l.08-.24a.02.02 0 0 1 .02-.01ZM7.9 7.07a2.7 2.7 0 0 1 .02 1.9.02.02 0 0 1-.02.01 7.33 7.33 0 0 0-1.06-.32c-.03 0-.04-.03-.03-.06l.25-1.05c0-.02 0-.03-.03-.03h-.72c-.02 0-.03 0-.04.03l-.41.92a.06.06 0 0 1-.06.04 4.46 4.46 0 0 0-2.79.86 6.44 6.44 0 0 1 2.43-.05c.04 0 .04.02.03.04l-1.54 3.6c0 .02 0 .03.02.03a5776.29 5776.29 0 0 1 10.05 0c.04 0 .05-.02.03-.05L12.5 9.35a6.45 6.45 0 0 1 2.5.02c-.88-.62-1.81-.9-2.82-.85-.03 0-.04-.01-.05-.03l-.42-.93a.06.06 0 0 0-.02-.03.07.07 0 0 0-.04-.01h-.7a.03.03 0 0 0-.03.03l.26 1.07a.03.03 0 0 1-.03.04c-.38.09-.73.2-1.05.32l-.03-.01c-.31-1.03-.12-2.23.79-2.9.05-.03.05-.05-.02-.05a2.05 2.05 0 0 1-1.8-.8.04.04 0 0 0-.06 0l-.12.14c-.45.48-1.02.7-1.7.67-.04 0-.05 0-.02.03.35.28.6.58.77 1Zm2.54 2.7H7.57c-.03 0-.04 0-.02-.03.08-.1.15-.25.21-.39a4.84 4.84 0 0 1 .07-.18 6.7 6.7 0 0 0-1.76-.46c-.78-.1-1.5.01-2.19.34-.08.04-.08.06.02.05.94-.08 1.97 0 2.83.33a3.88 3.88 0 0 1 1.77 1.3l.04.01H9.52l.04-.04c1.08-1.4 2.83-1.73 4.53-1.6.12.01.13-.01.02-.06a3.78 3.78 0 0 0-2.1-.34 6.81 6.81 0 0 0-1.84.5.04.04 0 0 0 0 .02l.04.08c.07.15.15.33.26.44.01.02 0 .03-.02.03Zm-.85 1.3H8.4c-.04 0-.07.03-.08.08l-.2.52a.07.07 0 0 1-.07.04H6.1a.02.02 0 0 1 0-.03l.47-2.06a.02.02 0 0 1 .01-.02h.01a3.66 3.66 0 0 1 1.8 1.3.1.1 0 0 0 .05 0h1.14a.1.1 0 0 0 .08-.04 3.7 3.7 0 0 1 1.72-1.25h.01l.01.01.07.24a114.09 114.09 0 0 0 .42 1.85H9.95c-.02 0-.04 0-.05-.02a.08.08 0 0 1-.03-.03l-.2-.54c-.02-.03-.04-.06-.07-.06Z" fill="#0C3770"/></svg>