<!-- by TradingView --><svg width="18" height="18" viewBox="0 0 18 18" xmlns="http://www.w3.org/2000/svg"><path fill="#FDD000" d="M0 0h18v18H0z"/><path d="M4 4.24V12h1V8.85L7.72 12l.78-.6-2.34-2.55L8.1 6.5 7.36 6 5 8.85V4l-1 .24Z" fill="#4D4D4D"/><path fill-rule="evenodd" d="m13.34 5.5-.82.8c-.36-.22-.79-.35-1.25-.35-1.24 0-2.24.9-2.24 2 0 .5.21.97.56 1.32-.21.26-.38.55-.38.84 0 .6.26.78.4.79-.35.12-.61.72-.61 1.2 0 .59.44 1.4 2.4 1.4 1.97 0 2.57-1.08 2.57-1.96 0-.87-.78-1.43-1.76-1.43h-1.34c-.15-.02-.42-.1-.49-.34.27.1.57.16.89.16 1.23 0 2.23-.89 2.23-1.99 0-.4-.13-.78-.37-1.1L14 6.6l-.66-1.09Zm-2.07 3.24c.4 0 .74-.36.74-.8 0-.44-.33-.8-.74-.8-.42 0-.75.36-.75.8 0 .44.33.8.75.8Zm.64 2.5h-1.48c-.14.23-.2.45-.2.54 0 .5.59.6 1.11.6.52 0 1.26-.11 1.26-.6 0-.4-.46-.52-.69-.54Z" fill="#4D4D4D"/></svg>