<!-- by TradingView --><svg width="18" height="18" viewBox="0 0 18 18" xmlns="http://www.w3.org/2000/svg"><path fill="#F0F3FA" d="M0 0h18v18H0z"/><path d="M9.78 4.8c1.1 0 2.1.43 2.86 1.14A4.78 4.78 0 0 0 8.8 4a4.92 4.92 0 0 0-4.84 5.08l1.67-.9A4.3 4.3 0 0 1 9.78 4.8Zm-3.8 6.39H4.46A4.83 4.83 0 0 0 8.8 14a4.7 4.7 0 0 0 2.39-.65 4.25 4.25 0 0 1-5.22-2.16Z" fill="#191718"/><path d="M11.23 6.81c.97 0 1.76.16 2.22.47-1.85-.16-3.97.37-4.64.63.4-.26 1.45-1.1 2.42-1.1Z"/><path d="M8.81 7.9 3.55 9.95C5.66 8.79 8.5 6.5 11.08 6.5c.95 0 1.98.54 2.37.8-.53-.13-1.19-.6-2.37-.4-.63.11-1.8.67-2.27 1Z" fill="url(#a0xuune4s)"/><path d="M12.22 7.44c-1.58 0-7.27 1.87-9.91 2.81C11.83 8.75 14.93 9 15 9c0-.56-.8-1.56-2.78-1.56Z" fill="url(#b0xuune4s)"/><path d="M13.42 10.88H2c3.22-.42 9.93-1.3 11.03-1.47a4.84 4.84 0 0 1 1.97 0v.2c0 .5-1.05 1.05-1.58 1.27Z" fill="#792429"/><defs><linearGradient id="a0xuune4s" x1="3.94" y1="9.74" x2="12.89" y2="7.2" gradientUnits="userSpaceOnUse"><stop stop-color="#2B2B2B"/><stop offset=".82" stop-color="#F1F1F1"/><stop offset="1" stop-color="#B0B0B0"/></linearGradient><linearGradient id="b0xuune4s" x1="3.3" y1="10.06" x2="14.36" y2="7.97" gradientUnits="userSpaceOnUse"><stop stop-color="#868686"/><stop offset=".26" stop-color="#B9BBBA"/><stop offset=".52" stop-color="#626264"/><stop offset=".83" stop-color="#DFDDDE"/><stop offset="1" stop-color="#BBBCBE"/></linearGradient></defs></svg>