<!-- by TradingView --><svg width="18" height="18" viewBox="0 0 18 18" xmlns="http://www.w3.org/2000/svg"><path fill="#F0F3FA" d="M0 0h18v18H0z"/><path fill-rule="evenodd" d="M9 4.48 2.67 9 9 13.52 15.33 9 9 4.48ZM9 4 2 9l7 5 7-5-7-5Z" fill="#E60012"/><path d="M11.3 8.67H13v.83h-.3V11h-.93v-.17c-.26.11-.57.17-.85.17A2 2 0 0 1 9 9a2 2 0 0 1 1.92-2c.27 0 .54.05.75.17V7h1.02v1.33h-1.02c-.1-.27-.3-.47-.59-.47-.44 0-.7.55-.7.97v.23c0 .43.24.97.7.97.26 0 .46-.31.59-.53h-.36v-.83ZM6.48 7H5v1h.3v2H5v1h1.48V9.67h.16L7.69 11h1.3v-.83h-.3L7.85 9l.84-1H9V7H7v.74l-.36.6h-.16V7Z" fill="#E60012"/></svg>