<!-- by TradingView --><svg xmlns="http://www.w3.org/2000/svg" width="18" height="18"><path fill="#F0F3FA" d="M0 0h18v18H0z"/><path d="M9.18 4.2L5.69 6.26l2.74 1.88.75-.55V4.2zm0 0v3.39l1.18.71 2.4-2.27L9.19 4.2zm3.99 1.88v4.5L9.66 14.2l-.2-.2V9.58l3.7-3.5zM9.74 9.75v3.89l3.14-3.22V6.73L9.74 9.75z" fill="#1F47B2"/><path d="M9.66 9.63v4.57l-4.13-3.4V8.9l2.8 1.9.8-1.42.53.12v.13z" fill="#1F47B2"/><path d="M5.4 6.53l4.27 2.85-.32.32-.94 1.77L4.03 8.1l1.38-1.58zm.1.44l-1 1.08 3.86 2.97.86-1.59-3.71-2.46z" fill="#1F47B2"/></svg>