<!-- by TradingView --><svg width="18" height="18" viewBox="0 0 18 18" xmlns="http://www.w3.org/2000/svg"><path fill="#F0F3FA" d="M0 0h18v18H0z"/><path d="M11.29 5.95c.07.03.09 0 .05-.06a4.16 4.16 0 0 0-1.2-1.37 7.83 7.83 0 0 1-.51-.4.06.06 0 0 1-.02-.05c0-.02 0-.04.03-.05.03-.02.08-.03.15-.01l.76.2a5.04 5.04 0 0 1 1.36 8.86.12.12 0 0 1-.09-.06c-.02-.03-.01-.08.01-.15a6.54 6.54 0 0 0-2.1-7.65 4.33 4.33 0 0 0-1.63-.79 2.05 2.05 0 0 0-.33-.02c-.09 0-.12-.05-.1-.14v-.02c.02-.07.06-.11.13-.12.19-.04.36-.03.53 0a5.18 5.18 0 0 1 2.91 1.8l.05.03Z" fill="#DE861D"/><path d="M10.44 9.09c.03 0 .05 0 .06-.03a.07.07 0 0 0 0-.08 6.9 6.9 0 0 0-1.83-1.72.07.07 0 0 1-.03-.05c0-.03 0-.04.02-.05l.02-.01h.05a5.37 5.37 0 0 1 2.54 2.78 5.23 5.23 0 0 1 .27 2.53l-.16.65a.76.76 0 0 1-.2.36c-.09.08-.22.15-.39.21-.93.36-1.9.41-2.9.18a5.13 5.13 0 0 1-3.87-4.52c-.04-.36-.02-.73.06-1.13a.54.54 0 0 1 .25-.35c.47-.32 1-.51 1.59-.58a4.16 4.16 0 0 1 1.7.16c.6.18 1.13.42 1.6.73.23.16.56.44.98.83.05.05.12.08.22.09h.02Z" fill="#4AC2F4"/></svg>