<!-- by TradingView --><svg width="18" height="18" viewBox="0 0 18 18" xmlns="http://www.w3.org/2000/svg"><path fill="#F0F3FA" d="M0 0h18v18H0z"/><path d="M7.77 5h-.92L5 7.15v.93L7.77 5Z" fill="#12532F"/><path d="M5 5.3v.93L12.08 13H13L5 5.3Z" fill="#E03334"/><path d="M9.62 5h-.93L5 9v.92L9.62 5Z" fill="#90603E"/><path d="M5 8.08v-.93L11.15 13h-.92L5 8.08Z" fill="#0A8A4A"/><path d="M6.23 5h-.92L5 5.3v.93L6.23 5Z" fill="#A93725"/><path d="M11.46 5h-.92L5 10.54v.92L11.46 5Z" fill="#1962AB"/><path d="m8.14 8.32-.47-.45-.47.47.47.45.47-.47Z" fill="#E03334"/><path d="M5 11.77 6.23 13h-.92L5 12.7v-.93Z" fill="#264090"/><path d="M5 11.77v.92L13 5h-.92L5 11.77Z" fill="#2A2654"/><path d="m6.95 9.9.48.46.47-.45-.48-.46-.47.46Z" fill="#0A8A4A"/><path d="M5 10.54v.92L6.85 13h.92L5 10.54Z" fill="#0F9AD5"/><path d="M5 9.92V9l4.3 4h-.92L5 9.92Z" fill="#B17F54"/><path d="m5.99 10.82.5.45.46-.46-.48-.45-.48.46Z" fill="#2A2654"/></svg>