<!-- by TradingView --><svg width="18" height="18" viewBox="0 0 18 18" xmlns="http://www.w3.org/2000/svg"><path fill="#F0F3FA" d="M0 0h18v18H0z"/><path d="M10.8 7.88c.54-.14 1-.33 1.38-.56.53-.34.96-.77 1.27-1.3.02-.02.04-.02.06 0 .86.53 1.44 1.4 1.49 2.4.03.63-.14 1.21-.5 1.75-.39.59-.94 1.01-1.64 1.28-.46.17-.94.3-1.44.38a14.16 14.16 0 0 1-2 .17 28.64 28.64 0 0 1-.31.8.29.29 0 0 1-.14.16.52.52 0 0 1-.2.04h-.22c-.1 0-.17-.05-.19-.15 0-.04.02-.11.06-.22a19.27 19.27 0 0 0 .23-.63l-1-.04h-.01l-.01.01-.3.8c-.06.15-.17.23-.34.23a26.59 26.59 0 0 1-.35-.03c-.1-.05-.08-.15-.04-.25a77.22 77.22 0 0 1 .3-.85h-.01a8.29 8.29 0 0 1-.98-.16c0 .03 0 .08-.02.1-.1.3-.23.62-.36.97a.3.3 0 0 1-.3.22h-.3c-.09-.01-.14-.05-.15-.13 0-.05 0-.1.02-.17l.36-.94a1.07 1.07 0 0 1 .14-.23v-.01a.02.02 0 0 0 0-.01l-.32-.13a3.22 3.22 0 0 1-1.86-2A2.8 2.8 0 0 1 3.3 7.3 3.21 3.21 0 0 1 4.52 6a.03.03 0 0 1 .02.01 4 4 0 0 0 2.3 1.75v-.01l.15-.4c.05-.13.14-.18.27-.17.04 0 .07.02.1.04.05.06.02.17 0 .24a70.99 70.99 0 0 1-.15.42c.41.1.84.16 1.27.18.03 0 .04-.01.05-.03l.23-.62c.03-.09.07-.17.15-.21.15-.07.32 0 .26.19a21.82 21.82 0 0 1-.24.68 9.35 9.35 0 0 0 1.4-.1 39.34 39.34 0 0 1 .22-.57c.06-.14.11-.22.26-.22.13-.01.2.1.16.2a197.47 197.47 0 0 0-.17.5Z"/></svg>