<!-- by TradingView --><svg width="18" height="18" viewBox="0 0 18 18" xmlns="http://www.w3.org/2000/svg"><path fill="#F0F3FA" d="M0 0h18v18H0z"/><path d="M6.16 6 3.5 8l.4-1.2L3 6h1.17l.41-1 .4 1h1.18Z" fill="#E70"/><path d="M4 11V7.85l1-.68V11H4Z" fill="#898989"/><path d="M12.22 7H11l-.24 1H13l-.78-1Zm-4.54 4L6 9.29l.76-.65 1.79 1.77.3.45-1.17.14Zm6.5-2.42L11.7 11h1.53L15 9.29l-.83-.7Z" fill="#E70"/><path d="M6 9.49V8.25L7.76 7H9.5L6 9.49Zm.81.66h7.3l-.87.85H7.7l-.88-.85ZM10 7.95V10l1-.88V7l4 2.37V8.18L13.15 7H11l-1 .94Z" fill="#898989"/></svg>