<!-- by TradingView --><svg width="18" height="18" viewBox="0 0 18 18" xmlns="http://www.w3.org/2000/svg"><path fill="url(#ayhmzx4zj)" d="M0 0h18v18H0z"/><path d="M10 7H7v4h3v-1H8v-.5h2v-1H8V8h2V7ZM13.5 7h-3v4h1V9.5H13v-1h-1.5V8h2V7ZM15 7h-1v4h1V7ZM4 7H3v4h1V9.89l.46-.69.93 1.8H6.5L5.19 8.6 6.5 7H5.39L4 8.56V7Z" fill="#fff"/><defs><linearGradient id="ayhmzx4zj" x1="3.35" y1="3.12" x2="21.9" y2="24.43" gradientUnits="userSpaceOnUse"><stop stop-color="#1A1E21"/><stop offset="1" stop-color="#06060A"/></linearGradient></defs></svg>