<!-- by TradingView --><svg width="18" height="18" viewBox="0 0 18 18" xmlns="http://www.w3.org/2000/svg"><path fill="#F0F3FA" d="M0 0h18v18H0z"/><path fill-rule="evenodd" d="M9.13 3.03a.19.19 0 0 0-.2 0 16 16 0 0 0-5.9 5.85.18.18 0 0 0 0 .19c1.44 2.5 3.4 4.47 5.85 5.91.02.02.05.02.08.02l.09-.01a16.04 16.04 0 0 0 5.92-5.85.18.18 0 0 0 0-.2 16.01 16.01 0 0 0-5.84-5.91ZM5.39 8.8a10.8 10.8 0 0 0 2.58 1.97c.46.26.75.49.87.68.25.38.21.74-.1 1.05a.07.07 0 0 0-.03.06c0 .03.02.05.04.07l.03.05.02-.02c.64-.67 1.06-1.17 1.26-1.5.52-.88.92-1.48 1.18-1.82.26-.35.69-.45 1.08-.2.1.07.19.11.25.12.07 0 .08-.01.03-.06a10.8 10.8 0 0 0-2.57-1.96 2.57 2.57 0 0 1-.88-.68c-.25-.4-.2-.74.11-1.06a.08.08 0 0 0 .02-.06.13.13 0 0 0-.03-.07l-.04-.04-.02.01c-.64.67-1.05 1.17-1.25 1.5-.53.88-.92 1.48-1.18 1.82-.27.35-.7.45-1.08.2a.7.7 0 0 0-.26-.12c-.06 0-.08.01-.03.06Z" fill="#D90412"/></svg>