<!-- by TradingView --><svg width="18" height="18" viewBox="0 0 18 18" xmlns="http://www.w3.org/2000/svg"><path fill="#F0F3FA" d="M0 0h18v18H0z"/><path d="M13.34 5c.86 0 1.64.41 2.17 1.13.01.01.02.03.01.05 0 .03-.02.04-.04.02-.7-.63-1.46-.78-2.28-.45a2.87 2.87 0 0 0-1.78 2.35c-.13.75.2 1.6.77 2.05.28.21.6.35.98.42.13.03.14.08.03.16-.78.55-1.59.7-2.44.45-.25-.07-.46-.29-.59-.53a3.9 3.9 0 0 1 .49-4.23A3.5 3.5 0 0 1 13.34 5Z" fill="#EA6102"/><path d="M13.27 6.08c1.09-.32 1.94-.04 2.56.84.07.1.11.2.14.32 0 .05-.01.08-.05.1-.53.18-1.14.18-1.45-.41a1.44 1.44 0 0 0-.63-.63c-.17-.09-.38-.08-.56-.1-.23-.01-.24-.05-.01-.12Z" fill="#EA6102"/><path d="M5 8.92a.2.2 0 0 0 .11.05c.42.09.8-.02 1.15-.32.57-.5 1.11-.95 1.64-1.36.46-.36 1.21-.27 1.76-.23a.1.1 0 0 1 .05.02c.01 0 .03.02.03.04a.12.12 0 0 1 0 .11c-.09.13-.19.25-.31.35l-1.69 1.4c-.15.13-.39.34-.28.57.3.6.59 1.22.88 1.84.13.3.1.6-.27.6-.52-.01-1.03.15-1.32-.46l-.7-1.43c-.2-.43-.61-.4-1-.38-.3.02-.4.17-.5.48-.1.37-.21.82-.32 1.19-.14.48-.46.6-.9.61H2.21c-.08 0-.14-.09-.17-.17a.78.78 0 0 1 0-.48l1.05-3.71c.12-.4.38-.62.8-.64h1.1c.3.03.4.25.31.6a42.08 42.08 0 0 1-.33 1.25c0 .03.02.05.04.07Z" fill="#03489D"/><path d="M11.42 11.58c.7.08 1.4-.15 2.1-.71.42-.35.7-1.02.4-1.58-.22-.41-.65-.38-1.02-.4-.1 0-.15-.05-.14-.17.01-.16.04-.31.09-.46a.36.36 0 0 1 .1-.17.28.28 0 0 1 .18-.07c.74-.02 1.48-.03 2.24-.01.34 0 .64 0 .63.5 0 .1-.02.19-.04.28a62.28 62.28 0 0 1-.72 2.62c-.12.4-.36.59-.74.59h-1.86c-.55 0-1.04-.09-1.54-.37-.15-.1-.14-.12.03-.1l.29.05Z" fill="#EA6102"/></svg>