<!-- by TradingView --><svg width="18" height="18" viewBox="0 0 18 18" xmlns="http://www.w3.org/2000/svg"><path fill="#F0F3FA" d="M0 0h18v18H0z"/><path fill-rule="evenodd" d="M10.39 6.06a17 17 0 0 0-2.62-.01H7.7c-2.18.18-4 .79-4.97 1.61a6 6 0 0 1-.04 0l-.02.06C2.24 8.1 2 8.54 2 9c0 1.66 3.13 3 7 3 .39 0 .77-.01 1.14-.04h.02c.44-.03.86-.08 1.27-.15l.02.01v-.01c.32-.05.61-.1.9-.18h.02C14.53 11.13 16 10.13 16 9c0-1.45-2.41-2.66-5.61-2.94Zm3.93 4.77-.43.2c-.38.17-.8.31-1.27.43.43-.3.76-.6 1-.9.3.1.54.2.7.27Zm.11-.06c-.16-.09-.42-.2-.75-.3.14-.2.24-.38.3-.56.12-.3.14-.58.1-.86h1.8c-.03.64-.55 1.24-1.45 1.72Zm1.45-1.82h-1.8a2.14 2.14 0 0 0-.37-.85c.68-.11 1.2-.24 1.5-.35.41.37.65.78.67 1.2Zm-.77-1.27c-.3.1-.8.22-1.46.33-.2-.27-.46-.53-.74-.77.44-.1.76-.2.95-.29l.03.02c.5.2.9.45 1.22.7Zm-1.39-.78a10.9 10.9 0 0 0-2.33-.62c.47.23.98.53 1.42.88.4-.1.7-.19.91-.26Zm-2.65-.67-.55-.06c.34.3.72.72 1.03 1.23.43-.06.8-.13 1.13-.2-.52-.4-1.1-.73-1.62-.96Zm1.24 5.31c.54-.35.92-.69 1.2-1.02-.37-.12-.82-.24-1.36-.34a4 4 0 0 1-.61 1.51c.26-.04.52-.1.77-.15Zm-.93.18c.36-.53.57-1.06.65-1.56-.4-.08-.85-.15-1.34-.2-.1.76-.29 1.43-.48 1.9.4-.04.8-.08 1.17-.14Zm-1.3.14c.19-.45.4-1.14.49-1.91L10 9.9a7.4 7.4 0 0 1-.3 1.99l.38-.03Zm-.51.03c.2-.64.29-1.32.3-2a22 22 0 0 0-.8-.04v2.05l.5-.01Zm-.63.01V9.85H8.1c.01.7.07 1.4.2 2.04l.63.01Zm-.75-.02a10.8 10.8 0 0 1-.2-2.02l-1.14.07c.2.83.62 1.5.97 1.89l-.05.03.42.03Zm-.5-.03a4.68 4.68 0 0 1-.96-1.91c-.7.06-1.4.14-2.02.22l.07.08c.42.53 1.2 1.07 2.46 1.56l.45.05Zm-.84-.1a5.48 5.48 0 0 1-2.27-1.57c-.62.08-1.17.17-1.57.24.3.22.67.43 1.1.61.75.33 1.69.58 2.74.72ZM2.9 10.34c.4-.07.96-.16 1.61-.25-.22-.35-.3-.7-.28-1.04H2.12c.02.46.3.9.79 1.29Zm-.79-1.39h2.13l.06-.3c.05-.2.15-.39.26-.58-.8-.1-1.42-.21-1.8-.3-.4.37-.63.77-.65 1.18Zm.75-1.26c.39.08 1 .2 1.76.29.18-.27.4-.52.65-.75a17.23 17.23 0 0 1-1.17-.26c-.5.21-.92.46-1.24.72Zm1.43-.8 1.07.26c.37-.34.8-.63 1.21-.86-.85.13-1.63.34-2.28.6Zm2.58-.65c-.45.24-.95.56-1.38.94l1.38.24c.16-.42.4-.84.73-1.26l-.73.08Zm.89-.1c-.35.44-.6.87-.77 1.3l1.1.11c.07-.58.14-1.08.21-1.44l-.54.04Zm.67-.03c-.07.36-.15.87-.21 1.45l.7.04V6.1l-.5.01Zm.62-.01v1.5l.62-.02c-.1-.6-.24-1.12-.36-1.48h-.26Zm.4 0c.1.36.24.88.35 1.47.2 0 .41-.02.61-.04-.14-.5-.37-.98-.7-1.41l-.27-.01Zm.4.02.47.03c.35.3.76.73 1.1 1.27l-.89.1a4.29 4.29 0 0 0-.67-1.4Zm.71 1.5.91-.1c.13.22.25.45.35.7-.36.03-.73.05-1.13.06a5.28 5.28 0 0 0-.13-.66Zm.14.76c.4 0 .79-.03 1.15-.05.07.2.13.4.17.62h-1.28c0-.19-.02-.38-.04-.57ZM12 8.32c.07.2.12.41.16.63h1.8a2.07 2.07 0 0 0-.37-.82c-.46.07-1 .14-1.6.19Zm-1.24.73h1.3c.04.32.05.66 0 1-.4-.07-.85-.14-1.35-.19a7.34 7.34 0 0 0 .05-.81Zm1.42 0c.05.33.05.67 0 1.03.56.1 1.02.23 1.4.35.13-.19.23-.37.3-.55.1-.28.13-.56.1-.83h-1.8Zm-1.55.23c0 .2-.02.38-.04.57A20.4 20.4 0 0 0 10 9.8c0-.25 0-.5-.02-.75h.65v.23Zm-.76-.23.02.74-.82-.04v-.7h.8Zm-.92 0v.7H8.1v-.7h.83Zm-.94 0-.01.71-1.17.07c-.05-.25-.09-.5-.1-.78H8Zm-1.4 0c.01.27.05.54.1.8-.71.05-1.42.13-2.05.22-.22-.34-.3-.69-.29-1.02H6.6Zm0-.1H4.37a2.34 2.34 0 0 1 .33-.86c.57.07 1.23.13 1.95.18-.04.23-.05.46-.05.68Zm.07-.78c-.7-.04-1.35-.1-1.91-.18a4.2 4.2 0 0 1 .65-.73c.43.09.92.18 1.43.25-.08.23-.14.45-.17.66Zm.12.01c.04-.21.1-.43.18-.65.36.05.74.1 1.12.12l-.05.59c-.43-.01-.85-.03-1.25-.06Zm1.37.06.05-.58.73.04v.55l-.78-.01Zm0 .1.78.01v.6h-.82l.04-.61Zm1.7.61h-.8v-.6l.74.03.05.57Zm-.07-.67-.73-.03V7.7l.64-.02.09.6Zm.12 0c-.02-.2-.05-.41-.09-.6l.63-.05c.06.21.1.43.13.65H9.9Zm.02.1h.66l.03.57h-.64l-.05-.57Zm-1.9-.04L8 8.95H6.72c0-.22.01-.44.05-.67.4.03.83.04 1.26.06Zm3.92-.12c.59-.05 1.11-.11 1.57-.19-.2-.27-.46-.52-.74-.76-.34.08-.73.16-1.17.22.13.23.25.47.34.73Z" fill="#83807F"/><path d="M9.5 7.15c.04.04.26-.28.36-.45h1.17c.43 0 .67.5.86.9.18.4.55.4 1.04.55.5.15.5.4.61.5.13.1.37.7.43.75.07.05-.06.9 0 1.15.07.25.25 0 .68-.4.43-.4.74-.65.86-.85.12-.2-.55-.1-.74-.45-.18-.35-.24-.25-.73-.25-.5 0-.68-.35-.74-.7-.06-.35.12-.15.3-.35.19-.2.07-.3-.06-.6-.12-.3-.43-.25-.8-.35-.36-.1.37.25-.06.2-.43-.05-.43-.2-.55-.4-.12-.2-.55.05-.74.05-.18 0-1.04.1-1.9.05-.86-.05-1.84.05-2.4.05-.55 0-.8-.2-1.22-.1-.43.1-.62.25-.92.25-.31 0-.5.15-.56.2-.06.05.19.2.5.3.3.1.18.15 0 .3-.19.15-.37.05-.56 0-.18-.05-.06-.4-.24-.45-.19-.05-.5.4-.74.65s-.49.35-.55.7c-.06.35.55.3.92.55.37.25.24.45.37.55.12.1.37-.15.86-.4s0-.6.24-.6c.25 0 .25-.05.25-.45s.06-.2.49.1c.43.3.12.35.43.5.3.15.3-.65.55-.45.25.2.19.45.19.55 0 .1.18.3.24 0s.19-.4.5-.85c.3-.45.18-.15.42-.2.25-.05.43-.4.5-.8.06-.4.24-.15.55-.1.3.05.12.3.18.35ZM9 11.95c-.3 0-1.31-.07-1.78-.1-.43-.2.18-.25.49-.25h.92c.37 0 .43-.15.8-.1.37.05.18.2.61.25.35.04.64.05.74.05-.47.05-1.49.15-1.78.15Z" fill="#405A4D"/><path d="m4.09 11.1-.13-1.6.25-.7 1.66.05.06.45 2.58.15.86-.8h.3l-.06.8 4.36.05.06 1.5-.73.05c-.05 0-.02-.4 0-.6l-.3.05-.44.6-2.33-.05h-4.3c-.34 0-.55-.1-.61-.15h-.43v.25l-.8-.05Z" fill="url(#a)"/><path d="M7.83 9.2h-.55l-.12 1.1h.55l.18-.4.19.4h.67a.55.55 0 0 1-.12-.3c0-.12.57-.98.86-1.4h-.61l-.86.9-.19-.3ZM4.1 8.7h1.1l-.37.65.64-.65h.6l-.87.95.27.65h-.51l-.25-.4-.12.4h-.74l.25-1.6Zm2.94.65V9.2H6c-.14 0-.43.15-.43.55 0 .5.37.55.5.55h.97v-.25h-.98v-.2h.98v-.2h-.98V9.4h.98v-.05Zm3.2.25h.37c.08-.13.1-.4-.5-.4-.73 0-.85.3-.85.4 0 .15.15.16.3.18.16 0 .3.02.3.17 0 .2-.42.18-.6.15v.2c.24.05.78.1.98-.1.15-.16-.01-.3-.15-.42-.09-.06-.16-.13-.16-.18 0-.12.04-.11.11-.1a.7.7 0 0 0 .08 0c.1 0 .12.07.12.1Zm.49.15c.1-.44.53-.55.74-.55.24.02.7.16.61.6-.12.55-.61.55-.74.55-.12 0-.73-.05-.61-.6Zm1.72-.85h.61l-.06.5h.5l.05-.5h.74l-.25 1.4h-.6v-.6h-.62l-.13.6h-.7l.46-1.4Zm-.98.6a.32.32 0 0 0-.31.25c-.06.25.18.25.24.25.07 0 .31 0 .31-.25 0-.2-.16-.25-.24-.25Z" fill="url(#b)"/><defs><linearGradient id="a" x1="9" y1="8.65" x2="9" y2="11.15" gradientUnits="userSpaceOnUse"><stop stop-color="#3E7BBF"/><stop offset=".46" stop-color="#3277BD"/><stop offset="1" stop-color="#DFE5F4"/></linearGradient><linearGradient id="b" x1="4.89" y1="9.05" x2="4.93" y2="10.35" gradientUnits="userSpaceOnUse"><stop stop-color="#FEE79A"/><stop offset=".46" stop-color="#FFFBD3"/><stop offset="1" stop-color="#FED61B"/></linearGradient></defs></svg>