<!-- by TradingView --><svg width="18" height="18" viewBox="0 0 18 18" xmlns="http://www.w3.org/2000/svg"><path fill="#F0F3FA" d="M0 0h18v18H0z"/><path d="M13 3a9.18 9.18 0 0 0-3 6.5H8.5C9 5.48 11.5 4 13 3Z" fill="url(#a5adgnxxd)"/><path d="M9.5 4h-1L9 6l.5-2Z" fill="#009951"/><path d="M8 14.5c0-.28.22-.5.5-.5h1a.5.5 0 0 1 0 1h-1a.5.5 0 0 1-.5-.5Z" fill="url(#b5adgnxxd)"/><path d="M7.5 11.5c0-.28.22-.5.5-.5h2a.5.5 0 0 1 0 1H8a.5.5 0 0 1-.5-.5Z" fill="url(#c5adgnxxd)"/><path d="M8 13c0-.28.22-.5.5-.5h1a.5.5 0 0 1 0 1h-1A.5.5 0 0 1 8 13Z" fill="url(#d5adgnxxd)"/><path d="M5 3a9.18 9.18 0 0 1 3 6.5h1.5C9 5.48 6.5 4 5 3Z" fill="url(#e5adgnxxd)"/><path d="M7 10c0-.28.22-.5.5-.5h3a.5.5 0 0 1 0 1h-3A.5.5 0 0 1 7 10Z" fill="url(#f5adgnxxd)"/><defs><linearGradient id="a5adgnxxd" x1="11.15" y1="3" x2="11.15" y2="11.11" gradientUnits="userSpaceOnUse"><stop offset=".56" stop-color="#FFDE37"/><stop offset="1" stop-color="#FFD000"/></linearGradient><linearGradient id="b5adgnxxd" x1="8" y1="15" x2="10" y2="15" gradientUnits="userSpaceOnUse"><stop stop-color="#FFD000"/><stop offset=".53" stop-color="#FFDE3E"/><stop offset="1" stop-color="#FFD000"/></linearGradient><linearGradient id="c5adgnxxd" x1="8.5" y1="12" x2="11.5" y2="12" gradientUnits="userSpaceOnUse"><stop stop-color="#0E4185"/><stop offset=".53" stop-color="#045199"/><stop offset="1" stop-color="#113C7E"/></linearGradient><linearGradient id="d5adgnxxd" x1="8.33" y1="12.5" x2="10.33" y2="12.5" gradientUnits="userSpaceOnUse"><stop stop-color="#0E4185"/><stop offset=".53" stop-color="#045199"/><stop offset="1" stop-color="#113C7E"/></linearGradient><linearGradient id="e5adgnxxd" x1="7.15" y1="3" x2="7.15" y2="11.11" gradientUnits="userSpaceOnUse"><stop stop-color="#0F4F90"/><stop offset=".56" stop-color="#00539C"/><stop offset="1" stop-color="#133576"/></linearGradient><linearGradient id="f5adgnxxd" x1="7" y1="9.5" x2="11" y2="9.5" gradientUnits="userSpaceOnUse"><stop stop-color="#103C7E"/><stop offset=".5" stop-color="#02529B"/><stop offset="1" stop-color="#103B7D"/></linearGradient></defs></svg>