<!-- by TradingView --><svg width="18" height="18" viewBox="0 0 18 18" xmlns="http://www.w3.org/2000/svg"><path fill="#F0F3FA" d="M0 0h18v18H0z"/><path d="M9.01 4.27c0-.48-.24-1.05-.37-1.27 1.6 1.74 1.18 3.38.78 3.98.9-.9 1.01-1.6.96-1.83.12.14.34.5.34.79 0 .46-.28.9-.58 1.36-.34.52-.7 1.08-.7 1.73 0 .98.55 1.78.83 2.06-2.38-1.61-2.45-2.8-2.45-3.45 0-.5.25-1.05.37-1.26.27-.5.82-1.62.82-2.1Zm-2.66 6.3c-.44-.41-.37-.88-.28-1.07.1.35.6 1.13 1.87 1.45-2.46-1.59-1.22-3.9-.27-4.31-1.11 1.97.9 3.67 2.02 4.62l.44.39c.86.8.87 1.53.62 2.07-.2.44-.74 1.03-1 1.28 1.18-1.32.03-2.16-.51-2.56l-.04-.03c-.2-.15-.6-.38-1.03-.64-.68-.4-1.48-.88-1.82-1.2Zm5.13-3.98c-.44.42-1.33 1.5-1.33 2.48 0 .66.42 1.43.63 1.73.1-.21.35-.7.63-.96.35-.34.59-.83.59-1.12 0-.24-.29-.79-.44-1.04-.04-.1-.14-.36-.14-.56 0-.12.02-.2.04-.28.03-.09.05-.16.02-.25Z" fill="url(#acnsanmir)"/><path d="M11.67 9.53c-.39.12-.85.23-1.39.26a2.33 2.33 0 0 1-.13-.72c0-.99.89-2.06 1.33-2.48.03.09.01.16-.01.25a.92.92 0 0 0-.05.28c0 .2.1.46.14.56.15.25.44.8.44 1.04 0 .21-.13.52-.33.8Zm-3.11.07c.32.1.65.16.99.19-.07-.24-.1-.5-.1-.76 0-.65.35-1.2.69-1.73.3-.46.58-.9.58-1.36 0-.29-.22-.65-.34-.79.05.24-.07.94-.96 1.83.4-.6.81-2.24-.77-3.98.12.22.36.79.36 1.27 0 .49-.55 1.6-.82 2.11-.12.2-.36.75-.36 1.26 0 .43.03 1.1.73 1.96Zm-.7-.25c-.52-.8-.75-1.72-.2-2.71-.52.22-1.14 1.04-1.16 2 .36.23.83.5 1.35.71Z" fill="url(#bcnsanmir)"/><defs><linearGradient id="acnsanmir" x1="6.28" y1="9.98" x2="9.97" y2="13.23" gradientUnits="userSpaceOnUse"><stop stop-color="#D44A3E"/><stop offset="1" stop-color="#EBAC3F"/></linearGradient><linearGradient id="bcnsanmir" x1="7.78" y1="4.01" x2="12.08" y2="7.42" gradientUnits="userSpaceOnUse"><stop stop-color="#D97F40"/><stop offset="1" stop-color="#E9D24B"/></linearGradient></defs></svg>