<!-- by TradingView --><svg width="18" height="18" viewBox="0 0 18 18" xmlns="http://www.w3.org/2000/svg"><path fill="#007A48" d="M0 0h18v18H0z"/><path d="M7.76 4.63s.3-.33.53-.35c0 0-.58.53-.21.9 0 0 .17-.45.35-.46 0 0-.24.65.2.78 0 0-.14-.69.38-.78.52.1.37.78.37.78.44-.13.2-.78.2-.78.18.01.35.46.35.46.37-.36-.2-.9-.2-.9.22.02.52.35.52.35.21-.57-.46-.77-.46-.77.15-.03.3 0 .44.07-.02-.37-.66-.36-.66-.36.13-.18.43-.08.43-.08-.34-.48-.81-.1-.81-.1A.62.62 0 0 0 9 3a.57.57 0 0 0-.18.4s-.47-.4-.8.09c0 0 .3-.1.42.08 0 0-.64-.01-.66.36.13-.07.3-.1.44-.07 0 0-.67.2-.46.77ZM11.04 12H9v1c-.46 0-1.42-.09-1.84-1H6.14c.12.4.34.75.63 1.06a3.03 3.03 0 0 0 2.68.91h.04a1.4 1.4 0 0 0 .12-.02h.02a3.1 3.1 0 0 0 1.4-.7c.4-.34.68-.77.84-1.25h-.83Zm.9-1.54v-.06a3.06 3.06 0 0 0-.08-.3l-.01-.02a2.96 2.96 0 0 0-.1-.26l-.01-.03a2.48 2.48 0 0 0-.23-.41v-.02l-.04-.05a3.06 3.06 0 0 0-.16-.21 3.03 3.03 0 0 0-.4-.4l-.01-.02a3.15 3.15 0 0 0-.21-.16l-.03-.01a3 3 0 0 0-.22-.14h-.02a2.96 2.96 0 0 0-1.01-.34H9.4V6.75h-.04l.06-.26-.15-.03.1-.29-.16-.12.09-.38-.13-.13.04-.55h-.42l.05.53-.14.16.1.36-.16.12.1.3-.16.03.07.26H8.6v1.26h-.02v.01c-.26.04-.5.1-.75.2v.01a2.9 2.9 0 0 0-.7.42l-.02.02-.04.03a2.98 2.98 0 0 0-.37.37l-.06.08-.02.02v.01a2.73 2.73 0 0 0-.33.55l-.07.16-.01.02-.01.03A3.02 3.02 0 0 0 6 11h1c0-1.18.83-1.99 2-2 1.18 0 2 .82 2 2h1c0-.17-.02-.33-.05-.5v-.04Z" fill="#fff"/></svg>