<!-- by TradingView --><svg width="18" height="18" viewBox="0 0 18 18" xmlns="http://www.w3.org/2000/svg"><path fill="#F0F3FA" d="M0 0h18v18H0z"/><path d="M7.34 3.54c.15-.04.34-.07.55-.09.13-.01.14.03.05.1l-.45.39c-.04.03-.05.08-.03.13l.16.52c.03.07 0 .1-.07.06l-.48-.2c-.05-.01-.1 0-.13.03l-.5.48c-.08.06-.1.05-.07-.04l.19-.57c.02-.06 0-.1-.06-.14l-.46-.29c-.06-.03-.05-.05.01-.07l.6-.11c.06-.01.1-.04.1-.09l.18-.56c.03-.12.08-.12.14 0 .06.1.11.23.16.39.01.06.05.08.11.06Z" fill="#FFCA02"/><path d="M8 6.5V5.08c0-.05.04-.08.09-.08h1.7c.03 0 .06.01.07.04.02.03.01.05-.01.07L8.13 6.55a.09.09 0 0 1-.09.02C8.01 6.55 8 6.53 8 6.5Z" fill="#36BCF5"/><path d="M12 5.74c.22.67.28 1.35.17 2.04a2.94 2.94 0 0 1-.94 1.82l-.44-.41a3.4 3.4 0 0 0 .31-3.53l.24-.22c.04-.04.1-.04.14-.01l.51.3Z" fill="#0088D9"/><path d="M11.1 5.66a3.4 3.4 0 0 1-.31 3.53L9.6 8.1c.38-.4.46-.84.25-1.3l1.25-1.15Z" fill="#06A1EE"/><path d="M13.11 6.8a8.96 8.96 0 0 1-.3 1.82c-.21.64-.54 1.17-.99 1.57l-.59-.59c.5-.45.82-1.05.94-1.82.1-.69.05-1.37-.18-2.04.46.3.83.66 1.12 1.06Z" fill="#006EC1"/><path d="M6 9.86a2.49 2.49 0 0 1-1.81-1.65c.29-.98.86-1.77 1.72-2.37.04-.03.09-.02.09.03v4ZM9.85 6.81c.21.46.13.9-.25 1.3l-.5-.47c-.04-.03-.04-.07 0-.11l.75-.72Z" fill="#36BCF5"/><path d="M13.11 6.8a4.2 4.2 0 0 1 .74 3.71 4.4 4.4 0 0 1-1.4 2.25c-.06.06-.08.05-.06-.03a2.8 2.8 0 0 0-.57-2.54c.45-.4.78-.93.98-1.57.14-.44.25-1.05.31-1.82Z" fill="#0050B6"/><path d="M6 9.86v1.77l-1.41-.07a4.11 4.11 0 0 1-.4-3.35c.29.84.9 1.4 1.81 1.65Z" fill="#06A1EE"/><path d="M9.45 9.82 8 10.41V8.7c0-.13.05-.15.15-.06l1.3 1.17Z" fill="#36BCF5"/><path d="m9.45 9.82.75.7c-.01.47-.27.82-.77 1.06a5 5 0 0 1-3.17.37L8 10.41l1.45-.59Z" fill="#0088D9"/><path d="m10.2 10.52.67.74c-1.94 1.44-3.94 1.7-6 .76l-.29-.46 1.42.07v.4c0 .05.01.07.07.05a.36.36 0 0 0 .19-.13 5 5 0 0 0 3.17-.37c.5-.24.76-.59.76-1.06Z" fill="#006EC1"/><path d="M10.87 11.26c.36.89.12 1.64-.71 2.26-.55.4-1.17.55-1.88.45a5.03 5.03 0 0 1-3.4-1.95c2.05.93 4.05.68 5.99-.76Z" fill="#0050B6"/></svg>