<!-- by TradingView --><svg width="18" height="18" viewBox="0 0 18 18" xmlns="http://www.w3.org/2000/svg"><path fill="#F0F3FA" d="M0 0h18v18H0z"/><path d="m8 7 .43.48c.76.84.76 2.2 0 3.04L8 11l-.43-.48a2.32 2.32 0 0 1 0-3.04L8 7ZM12 10.2l-.15.52c-.27.92-1.3 1.47-2.29 1.22L9 11.8l.15-.52c.27-.92 1.3-1.47 2.29-1.22l.56.14ZM10 3l.43.6a3.47 3.47 0 0 1 0 3.8L10 8l-.43-.6a3.47 3.47 0 0 1 0-3.8L10 3Z" fill="#01A141"/><path d="m15 7.2-.2.52c-.36.92-1.72 1.47-3.05 1.22L11 8.8l.2-.52c.36-.92 1.72-1.47 3.05-1.22l.75.14Z" fill="#6AC82C"/><path d="m4 10.2.15.52c.27.92 1.3 1.47 2.29 1.22L7 11.8l-.15-.52c-.27-.92-1.3-1.47-2.29-1.22L4 10.2Z" fill="#006A36"/><path d="M7.58 11H8v4h-.42v-4ZM10 8h.42v7H10V8Z" fill="#01A141"/></svg>