<!-- by TradingView --><svg width="18" height="18" viewBox="0 0 18 18" xmlns="http://www.w3.org/2000/svg"><path fill="#F0F3FA" d="M0 0h18v18H0z"/><path d="M6.14 6.55C5.09 7.17 3 8.73 3 10.07c0 1.17 1.42 1.68 2.87 1.68.89 0 1.35-.1 1.47-.16l.34-.75c-.46.1-1.55.29-2.2.29-.83 0-1.88-.23-1.88-1.2s1-2.14 2.54-3.38Zm5 3.6-.86.9c.43-.12 1.45-.36 2.06-.36.75 0 1 .3 1 .7-.4 1.6-3.29 2.4-4.68 2.61 4.05-.35 5.34-1.88 5.34-2.73 0-.85-.67-1.18-1.61-1.18-.76 0-1.15.04-1.26.06ZM9.46 11.2l-1.54.32.63-.86 1.4-.24-.49.78Z" fill="#813B08"/><path d="M7 9.53c0-.8-.91-1.7-1.37-2.05a3.77 3.77 0 0 0-1.3 2.22c0 .46.27.89.9.89.51 0 1.21-.52 1.5-.78l-.15.58c.14-.11.42-.44.42-.86ZM9 12.22c0-2.23 2.22-3.05 3.33-3.19-2.3.6-2.97 2.25-2.97 3.19 0 .75.21 1.3.32 1.47-.23-.2-.68-.78-.68-1.47Z" fill="#701719"/><path d="M5.26 5c.97 0 1.56.49 1.74.73C4.37 4.91 3.32 6.9 3.12 8c-.56-1.52.94-3 2.14-3ZM12.7 5A3.5 3.5 0 0 0 10 6.36a4.02 4.02 0 0 1 2.48-.71c1.67 0 2.24 1.2 2.24 1.53 0 .26-.08.66-.11.82.13-.12.39-.48.39-1.01C15 6.33 14.43 5 12.7 5Z" fill="#011F06"/><path d="m14.33 7.6-1-.6c.23.71.52 1.12.64 1.24l-.07-.63h.43ZM3.67 7.37l1-.37c-.32.55-.66.85-.79.93l.18-.5-.4-.06ZM14 8.37l-1-.27c.18.33.58.55.77.62l-.3-.3.53-.05Z" fill="#011F06"/><circle cx="8.5" cy="7.5" r=".5" fill="#701719"/><path d="M7 14c-.23-3.3 2.57-5.1 4-5.59a5.2 5.2 0 0 0-4.3 4.2c-.1.68.05 1.12.3 1.39Z" fill="#701719"/></svg>