<!-- by TradingView --><svg width="18" height="18" viewBox="0 0 18 18" xmlns="http://www.w3.org/2000/svg"><path fill="#F0F3FA" d="M0 0h18v18H0z"/><path d="M8.94 6.27c-.26-.02-1.01-.17-.94-1a.76.76 0 0 1 .61-.73L8.36 4h1.28l-.25.54s.56.09.62.73c.06.83-.69.98-.95 1h-.12ZM6.02 10.7a.45.45 0 0 1 .33-.52.45.45 0 0 1 .25-.73.45.45 0 0 1 .52.57.45.45 0 0 1 .52.34c.05.25-.1.48-.35.53a.45.45 0 0 1-.4-.12.45.45 0 0 1-.87-.07Zm-1.34.93-.16-.39-.01-.04a12.37 12.37 0 0 0-.39-.8.45.45 0 0 1 .6.43.45.45 0 0 1 .58.2.45.45 0 0 1-.62.6Zm6.15-.74a.45.45 0 0 1 .17-.87.45.45 0 1 1 .77.16.45.45 0 0 1 .33.52.45.45 0 0 1-.86.07c-.1.1-.25.16-.4.12Zm2.07-.06c.13-.08.29-.1.43-.03a.45.45 0 0 1 .6-.43 12.8 12.8 0 0 0-.36.73 1.88 1.88 0 0 1-.04.1v.01l-.16.39a.45.45 0 0 1-.47-.77Zm-4.72-.65c0-.05.01-.1.03-.14.06-.18.22-.3.41-.3A.45.45 0 0 1 9 9.08a.45.45 0 0 1 .38.66.45.45 0 0 1 .44.44.45.45 0 0 1-.82.27.45.45 0 0 1-.82-.27ZM9 11.21c2.25 0 3.83.65 4.21.82-.03.24-.04.6.11.74.07.05.06.25-.11.23-.66-.3-2.19-.88-4.21-.9-2.02.03-3.55.6-4.2.9-.18.02-.19-.18-.12-.23.15-.14.14-.5.1-.74.4-.17 1.97-.81 4.22-.82Zm3.65-3.87c.27-.02.64-.06 1.1-.19.97-.27 1.62.72 1.02 1.78l-.58.98-.51-.25c.19-.46.38-1.07.28-1.46-.1-.4-.59-.26-1.02-.14-.2.05-.38.1-.52.1-.1.33-.21.55-.43.9l-.65-.15c.17-.25.42-.69.43-1.03.01-.41-.16-1.01-.64-.88a11.3 11.3 0 0 1-1.3.3c-.4.06-.37.47-.37.47l-.1.9a2.25 2.25 0 0 1-.26 0v-.01h-.08a2.89 2.89 0 0 0-.37.02c-.06-.38-.09-.7-.1-.9h-.01s.03-.42-.36-.49l-.08-.01A11.3 11.3 0 0 1 6.87 7c-.48-.13-.65.47-.64.88.01.36.29.82.45 1.06l-.65.17a3.7 3.7 0 0 1-.45-.94 2.2 2.2 0 0 1-.52-.11c-.43-.12-.92-.26-1.02.14-.1.41.12 1.08.32 1.55l-.48.25-.04-.05a44.94 44.94 0 0 1-.6-1.03c-.61-1.05.04-2.04 1.01-1.77.46.13.83.17 1.1.19C5.21 5.89 6.48 5.5 7 5.84c1.15.71 1.5.9 2 .9s.85-.19 2-.9c.52-.33 1.79.05 1.65 1.5Z" fill="#A39161"/></svg>