<!-- by TradingView --><svg width="18" height="18" viewBox="0 0 18 18" xmlns="http://www.w3.org/2000/svg"><path fill="#F0F3FA" d="M0 0h18v18H0z"/><path d="M16 7.01c-1.24-1.08-3.54-1.67-6.13-1.41-3.76.36-6.37 2.2-6.37 4.48 0 1.32 1.28 2.43 3.24 2.92-2.67-.34-4.62-1.58-4.73-3.24-.16-2.2 2.97-4.3 6.98-4.7 3.13-.3 5.88.53 7.01 1.95Z" fill="#FA7A2D"/><path d="M10.34 7.83c-.5 0-.98.15-1.33.35-.35.2-.63.49-.84.86H12l-.43.86H7.73c-.09.18-.14.35-.18.51-.1.63.55.76 1.14.76h2.28l-.43.83H8.2c-1 0-2.24-.21-2.2-1.26.02-.33.1-.67.26-1.01l.1-.22.12-.2a4.46 4.46 0 0 1 1.7-1.75 5.22 5.22 0 0 1 2.52-.55L13 7l-.38.83h-2.28Z" fill="#ED1A37"/></svg>