<!-- by TradingView --><svg width="18" height="18" viewBox="0 0 18 18" xmlns="http://www.w3.org/2000/svg"><path fill="#F0F3FA" d="M0 0h18v18H0z"/><path d="M8.97 6.5a.7.7 0 0 0 .08-.06l1.39-1.32c.04-.04.09-.06.14-.07.25-.04.5-.06.74-.05.07 0 .07.03.01.07l-.74.48c-.68.44-1.41.91-2.06 1.43a4817.8 4817.8 0 0 0-5.04 4l-.2-.43v-.04l5.68-4ZM6.09 8.03a1744.1 1744.1 0 0 0-2.87 2.3H3.2v-.02a4.14 4.14 0 0 1 1.28-4.47 3.68 3.68 0 0 1 4.46-.13v.02l-.01.01-2.84 2.3Zm-2.25 3.5c0 .02.02.02.03.01l4.56-3.65c.4-.32.75-.59 1.05-.79l2.75-1.86c.06-.04.06-.07-.01-.09l-.4-.09a.22.22 0 0 0-.2.05L9.48 6.9c-.32.28-.67.54-1.04.8a2119.32 2119.32 0 0 0-4.85 3.44l.25.39Zm8.73-6.25.38.18c.04.02.04.04 0 .06-1.28.9-2.4 1.67-3.37 2.33-.34.23-.7.5-1.05.79A2125.4 2125.4 0 0 0 4.3 12l-.34-.34v-.02l4.47-3.13c.36-.25.71-.51 1.05-.8l2.97-2.43a.1.1 0 0 1 .12-.02Zm-3.6 3.69a89.62 89.62 0 0 1-4.53 3.18v.02l.03.02.36.22a.05.05 0 0 0 .06 0 854.82 854.82 0 0 1 4.14-3.36 89.67 89.67 0 0 1 4.53-3.17.05.05 0 0 0-.02-.05l-.37-.22a.05.05 0 0 0-.06 0 827.48 827.48 0 0 1-4.13 3.36Zm-3.54 3.77-.38-.18c-.04-.02-.04-.04 0-.06 1.28-.9 2.4-1.67 3.38-2.33.34-.23.69-.5 1.05-.78a2044.9 2044.9 0 0 0 4.23-3.39l.33.34v.02L9.57 9.48c-.36.25-.7.52-1.05.8l-2.97 2.44a.1.1 0 0 1-.12.01Zm8.73-6.26h-.02l-4.56 3.65c-.4.33-.76.59-1.05.79l-2.76 1.86c-.06.04-.05.07.02.09l.4.09c.08.01.14 0 .2-.05l2.13-1.8c.33-.28.68-.54 1.04-.8a2112.78 2112.78 0 0 0 4.86-3.43l-.26-.4ZM9.04 11.5a.7.7 0 0 0-.08.07l-1.39 1.32a.27.27 0 0 1-.14.07c-.25.04-.5.05-.74.05-.07 0-.07-.03-.01-.07l.74-.48c.68-.44 1.4-.91 2.06-1.43a5694.03 5694.03 0 0 0 5.04-4l.2.44-.01.03-5.67 4Zm.03.84c1.4.93 3.13.9 4.44-.16a4.14 4.14 0 0 0 1.27-4.49.03.03 0 0 0-.03.01 1571.5 1571.5 0 0 1-5.7 4.61.04.04 0 0 0 .02.03Z" fill="red"/></svg>