<!-- by TradingView --><svg width="18" height="18" viewBox="0 0 18 18" xmlns="http://www.w3.org/2000/svg"><path fill="#F0F3FA" d="M0 0h18v18H0z"/><path d="M5.9 5.03c-.6.5-.45 1.4-.3 1.8-.15.88-.47 2.76-.57 3.26-.13.63-.77.4-1 1.75-.2 1.08.97 1.21 1.57 1.15l.56-2.4c.05-.23.5-.67.84-.24.27.33.4.23.43.14-.3-.83.4-.73.79-.57a7.24 7.24 0 0 1 3.53 2.62c1.7.94 2.04-.15 2-.81.28-.42.27-.77.23-.9-2.33-1.09-3.52-2.17-3.83-2.58l2.49-1.52c.51.01.73-.13 1.1-.67.39-.54-.83-.77-1.1-.93-.27-.16-.62-.24-1.22.16-.47.32-.4.65-.3.77-.85.62-2.63 1.49-3.42 1.85.06-.14.15-.44 0-.5-.14-.04-.24.36-.27.57l-.67.38.67-1.98c.2-.75-.49-1.04-.85-1.09a.63.63 0 0 0-.67-.26Z" fill="url(#a)"/><defs><linearGradient id="a" x1="9" y1="5" x2="9" y2="13" gradientUnits="userSpaceOnUse"><stop stop-color="#D2CE8E"/><stop offset="1" stop-color="#6F713F"/></linearGradient></defs></svg>