<!-- by TradingView --><svg width="18" height="18" viewBox="0 0 18 18" xmlns="http://www.w3.org/2000/svg"><path fill="#F0F3FA" d="M0 0h18v18H0z"/><path d="M3 7h1.63a2.32 2.32 0 0 1 1.07.26 2.04 2.04 0 0 1 .75.69 1.79 1.79 0 0 1 .28.96c0 .26-.03.5-.07.67a1.83 1.83 0 0 1-.53.86 2.11 2.11 0 0 1-1.5.56H3v-.44h.42V7.44H3V7Zm1 .44v3.12h.66c.2 0 .4-.04.57-.11a1.49 1.49 0 0 0 .78-.8c.08-.18.12-.45.12-.74a1.45 1.45 0 0 0-.9-1.36 1.42 1.42 0 0 0-.57-.11H4ZM10.6 8c-.12-.2-.3-.25-.5-.36a1.51 1.51 0 0 0-.72-.17 1.48 1.48 0 0 0-1.4.95c-.06.18-.1.37-.1.57 0 .25.04.46.12.64a1.42 1.42 0 0 0 .78.77 1.57 1.57 0 0 0 1.4-.07c.22-.13.41-.34.57-.64l.51.21c-.07.19-.2.36-.37.53-.18.17-.4.31-.65.42-.26.1-.54.15-.85.15a2.13 2.13 0 0 1-1.5-.57c-.19-.18-.34-.4-.44-.65a2.06 2.06 0 0 1 0-1.56 1.93 1.93 0 0 1 1.1-1.06c.25-.1.53-.16.83-.16a2.1 2.1 0 0 1 1.19.34c.13.1.25.2.35.3h.3V8h-.62ZM11.7 7H13v.44h-.32v3.12h1.51l.1-.01a.37.37 0 0 0 .08-.06.27.27 0 0 0 .06-.06.16.16 0 0 0 .02-.08V10H15v1h-3.3v-.44h.3V7.44h-.3V7Z" fill="#A19377"/></svg>