<!-- by TradingView --><svg width="18" height="18" viewBox="0 0 18 18" xmlns="http://www.w3.org/2000/svg"><path fill="#F0F3FA" d="M0 0h18v18H0z"/><path d="M12 7h2.62c.76 0 1.38.72 1.38 1.6V11h-1V8.62c0-.34-.24-.62-.54-.62H13v3h-1V7ZM7 7.76c0 .5-.25.94-.65 1.24.4.3.65.74.65 1.24V11H6v-.9c0-.36-.32-.64-.72-.64H4V11H3V7h1v1.54h1.28c.4 0 .72-.28.72-.63V7h1v.76ZM11.5 8.15c0 .5-.25.67-.65.96.4.3.65.74.65 1.24V11h-1.08v-.66c0-.35-.32-.63-.71-.63H8.5V11h-1V7h2.77c.68 0 1.23.55 1.23 1.15Zm-1.08.12c0-.15-.13-.27-.3-.27H8.5v1h1.43c.4 0 .5-.06.5-.4v-.33Z" fill="#02AEF1"/><path d="M3 6.28C3 5.58 3.59 5 4.32 5h2.76c.73 0 1.32.57 1.32 1.28V7h-.9v-.56c0-.24-.2-.44-.45-.44h-2.6C4.2 6 4 6.2 4 6.44V7H3v-.72Z" fill="url(#a)"/><path d="M7.5 11.72c0 .7.59 1.28 1.32 1.28h2.86A1.3 1.3 0 0 0 13 11.72V11h-1v.67c0 .24-.2.44-.45.44h-2.6a.45.45 0 0 1-.45-.44V11h-1v.72Z" fill="url(#b)"/><path d="M3 6.7h1V7H3v-.3ZM7.5 11h1v.3h-1V11ZM7.5 6.7h.9V7h-.9v-.3ZM12 11h1v.3h-1V11Z" fill="#473938"/><defs><linearGradient id="a" x1="8.4" y1="6.04" x2="3" y2="6.04" gradientUnits="userSpaceOnUse"><stop stop-color="#D38871"/><stop offset=".49" stop-color="#982F34"/><stop offset="1" stop-color="#EF9F6E"/></linearGradient><linearGradient id="b" x1="12.9" y1="11.96" x2="7.5" y2="11.96" gradientUnits="userSpaceOnUse"><stop stop-color="#D38871"/><stop offset=".49" stop-color="#982F34"/><stop offset="1" stop-color="#EF9F6E"/></linearGradient></defs></svg>