<!-- by TradingView --><svg width="18" height="18" viewBox="0 0 18 18" xmlns="http://www.w3.org/2000/svg"><path fill="#F0F3FA" d="M0 0h18v18H0z"/><path d="M3.9 5.6v.01c.14-.13.29-.26.46-.35a.85.85 0 0 1-.27.44 1.78 1.78 0 0 1-.3.2.66.66 0 0 1-.08-.37c0-.18.06-.37.17-.52 0-.01 0-.01 0 0l.01.1a6.13 6.13 0 0 1 0 .5ZM14.1 5.63V5h.01c.1.14.17.3.18.46a1.22 1.22 0 0 1-.07.44 1.93 1.93 0 0 1-.38-.28.72.72 0 0 1-.18-.35c.12.06.22.13.31.22l.13.13Z" fill="#D1AE6C"/><path d="m3.7 6.3.05-.1a1.37 1.37 0 0 1 .54-.5l-.07.3a1.15 1.15 0 0 1-.58.57c-.16-.24-.28-.55-.23-.84a.58.58 0 0 1 .17-.32h.01a8.82 8.82 0 0 1 .1.89ZM14.3 6.33l.1-.8c0-.04-.02-.1.04-.1.02 0 .04.01.05.03l.06.13c.07.18.08.35.02.52l-.07.18a22.52 22.52 0 0 1-.13.28c-.16-.1-.3-.2-.42-.32a.93.93 0 0 1-.24-.55h.01a1.15 1.15 0 0 1 .58.63Z" fill="#D1AE6C"/><path d="M3.59 7v-.03c.03-.1.07-.2.14-.27.13-.18.31-.3.46-.47v.04c-.02.24-.1.45-.26.64a2.2 2.2 0 0 1-.4.38 9.94 9.94 0 0 0-.28-.46 1.1 1.1 0 0 1-.1-.24.64.64 0 0 1 .01-.38 1.23 1.23 0 0 1 .11-.23 4.76 4.76 0 0 1 .31 1.03ZM14.43 7v-.03c.02-.2.06-.38.13-.58a6.25 6.25 0 0 1 .17-.4c.1.14.15.3.15.46 0 .12-.04.24-.1.33l-.11.2a125.24 125.24 0 0 1-.22.32c-.06-.06-.1-.12-.16-.16l-.17-.16a.85.85 0 0 1-.2-.28 2.12 2.12 0 0 1-.12-.47l.26.24c.09.07.16.15.22.24.07.09.12.19.14.29 0 .01 0 .01 0 0Z" fill="#D1AE6C"/><path d="M8 6.99a.7.7 0 0 0 .27-.43l.03-.22c.02-.12.02-.23.02-.36a6.9 6.9 0 0 1 .02-.45.72.72 0 0 1 .12-.34.5.5 0 0 1 .42-.19H9.45a16.84 16.84 0 0 1 .54.02.64.64 0 0 0-.34.46c-.02.1-.03.2-.03.31v.39l-.03.36a.9.9 0 0 1-.05.2c-.07.17-.2.24-.36.25h-.3L8.82 7A189.73 189.73 0 0 1 8 6.99Z" fill="#00A85A"/><path d="M15 7.14v.07c0 .07-.02.12-.03.16a.9.9 0 0 1-.15.28l-.13.14-.1.12c-.05.06-.16.16-.25.1a4.67 4.67 0 0 1-.19-.27c0-.02-.01-.02-.02-.03a.81.81 0 0 1-.23-.62 1.16 1.16 0 0 0 0-.16l.16.18.2.18a.5.5 0 0 1 .16.37c0-.03.01-.07.03-.1.03-.08.07-.15.13-.22.13-.17.27-.33.3-.54h.01c.06.1.1.22.11.34ZM3.59 7.67c.01-.22.13-.38.3-.53a132.8 132.8 0 0 1 .2-.23.95.95 0 0 1-.2.77c-.1.12-.18.22-.25.34-.02.04-.05.04-.08.01l-.26-.25a.98.98 0 0 1-.29-.48.68.68 0 0 1 .1-.48c.01.1.07.22.14.3l.15.2a.79.79 0 0 1 .19.35Z" fill="#D1AE6C"/><path d="M3.72 8.5c0 .02 0 .02 0 0 0-.08.01-.17.04-.26.04-.12.1-.22.17-.32a1.4 1.4 0 0 0 .16-.35c.05.16.07.34.05.5-.02.27-.14.5-.32.71-.02.03-.06.06-.1.03a3.6 3.6 0 0 0-.52-.4c-.15-.15-.17-.36-.2-.55a.84.84 0 0 1 .02-.22c.07.15.18.27.3.38.16.14.33.3.4.49ZM14.27 8.52c0 .01 0 .01 0 0 .07-.16.18-.3.31-.42l.19-.17a.93.93 0 0 0 .2-.3c.04.18.03.34-.02.5a.74.74 0 0 1-.12.24c-.05.07-.1.1-.18.15-.12.06-.24.16-.34.26-.04.04-.1.05-.13 0a7.44 7.44 0 0 1-.24-.39.67.67 0 0 1-.08-.27v-.17a6.9 6.9 0 0 1 .04-.36c0 .01 0 .03.02.05.06.15.16.29.24.43.09.14.13.3.11.45Z" fill="#D1AE6C"/><path d="M14.1 9.18a1.55 1.55 0 0 1 .31-.32c.17-.16.35-.3.5-.47v.15a.8.8 0 0 1-.3.63c-.05.05-.14.1-.24.17a65.29 65.29 0 0 1-.42.28 2.15 2.15 0 0 1-.26-.7 1.28 1.28 0 0 1 .08-.67c.03.09.07.17.12.25l.13.22a.66.66 0 0 1 .09.46ZM3.9 9.19c-.07-.28.1-.5.24-.74a1.06 1.06 0 0 0 .09-.2c.1.24.12.48.06.73a2.42 2.42 0 0 1-.24.64 41.36 41.36 0 0 1-.69-.46.77.77 0 0 1-.27-.56 1.45 1.45 0 0 1 0-.21l.25.25.25.21a1.78 1.78 0 0 1 .3.34Z" fill="#D1AE6C"/><path d="M4.3 9.96a.7.7 0 0 1-.05-.33c0-.1.03-.2.07-.31a5.43 5.43 0 0 0 .12-.4 1.7 1.7 0 0 1 .16.63l-.01.16-.1.52c0 .04-.04.04-.08.03l-.34-.13a2.2 2.2 0 0 1-.38-.18.77.77 0 0 1-.32-.38 1.16 1.16 0 0 1-.07-.3c.06.09.15.16.26.22.15.1.33.16.49.26a.97.97 0 0 1 .24.2ZM13.7 9.96c.15-.19.4-.3.61-.4a1.08 1.08 0 0 0 .4-.29c-.02.13-.05.26-.11.38a.84.84 0 0 1-.37.35c-.08.05-.16.08-.24.11l-.4.15c-.06.02-.08-.01-.08-.07a1.66 1.66 0 0 0-.07-.37.8.8 0 0 1-.04-.36 7.55 7.55 0 0 1 .15-.53l.05.16.1.27.04.17c.03.14.02.29-.03.43Z" fill="#D1AE6C"/><path d="M4.73 10.58a.6.6 0 0 1-.12-.32c-.02-.25.1-.49.1-.74.13.15.24.32.3.5.03.13.04.25.03.37l-.02.15a.8.8 0 0 0 0 .34c.02.04 0 .06-.04.06l-.42-.1a1.92 1.92 0 0 1-.48-.15.78.78 0 0 1-.36-.36 1.15 1.15 0 0 1-.1-.3c.2.16.43.24.68.33a2.01 2.01 0 0 1 .43.22ZM13.25 10.61c.12-.1.26-.17.4-.23l.27-.1a1.6 1.6 0 0 0 .45-.25c0 .08-.03.16-.06.23-.07.2-.2.33-.38.43a1.9 1.9 0 0 1-.48.16l-.42.09c-.02 0-.05 0-.06-.02v-.03c.02-.12.03-.23.01-.35l-.02-.25c0-.17.04-.33.13-.48a2.09 2.09 0 0 1 .2-.29c.01.16.05.31.08.47.02.07.03.13.03.2a1 1 0 0 1-.15.42Z" fill="#D1AE6C"/><path d="M5.4 11.24a.68.68 0 0 1-.24-.48c-.02-.1-.02-.22-.02-.33a2 2 0 0 0-.02-.27l.29.3a1 1 0 0 1 .24.7.3.3 0 0 0 0 .06c.02.1.07.2.1.3H5.2c-.24 0-.52-.05-.71-.2a.84.84 0 0 1-.3-.4h.02c.1.05.21.09.34.11l.33.06a1.8 1.8 0 0 1 .53.15ZM12.59 11.26c.13-.07.27-.12.41-.14l.33-.06c.16-.02.32-.07.46-.14-.03.23-.24.42-.45.5a1.91 1.91 0 0 1-.56.1 10.88 10.88 0 0 1-.54 0c.06-.12.1-.26.11-.4l.02-.22a.99.99 0 0 1 .25-.48 2.62 2.62 0 0 1 .26-.25l-.02.22a9.4 9.4 0 0 1-.05.53.67.67 0 0 1-.22.34Z" fill="#D1AE6C"/><path d="M11.96 11.71s0 .01 0 0c.12-.03.25-.05.38-.06a12 12 0 0 1 .5 0 1.22 1.22 0 0 0 .32-.07 1 1 0 0 1-.57.47c-.14.04-.27.07-.4.07-.13.01-.25 0-.38-.01l-.34-.04c-.02 0-.05-.02-.04-.04v-.02a.9.9 0 0 0 .13-.26 7.7 7.7 0 0 0 .11-.37c.07-.18.2-.34.34-.46a2.57 2.57 0 0 1 .3-.21c-.06.17-.08.34-.1.52 0 .2-.1.36-.25.48ZM6.06 11.72a.59.59 0 0 1-.25-.36 26.86 26.86 0 0 1-.05-.38 1.16 1.16 0 0 0-.04-.25c.17.11.33.23.45.38.1.1.15.23.2.37.04.18.08.36.19.52.03.04 0 .07-.04.07l-.35.04c-.33.03-.69.02-.98-.17a1.04 1.04 0 0 1-.35-.36c.14.05.3.07.44.07a25.28 25.28 0 0 0 .42 0 1.27 1.27 0 0 1 .36.07Z" fill="#D1AE6C"/><path d="M11.12 12.2c.16-.03.31-.04.47-.03a48.52 48.52 0 0 1 .39.03 1.81 1.81 0 0 0 .36-.02c-.16.2-.37.33-.62.38-.37.07-.76-.02-1.12-.13-.07-.03-.02-.08.01-.1.1-.12.17-.27.24-.41l.07-.14a1.42 1.42 0 0 1 .7-.55 10.92 10.92 0 0 1-.25.68.8.8 0 0 1-.19.22 14.62 14.62 0 0 1-.06.06ZM6.85 12.17a.75.75 0 0 1-.27-.39l-.08-.28a1.02 1.02 0 0 0-.1-.24c.12.04.23.1.34.16.18.12.31.27.4.45.05.12.1.25.17.35l.11.14c.02.03.02.06-.02.07-.2.06-.39.1-.59.14-.28.04-.56.01-.81-.12a.87.87 0 0 1-.31-.26l.22.02.23-.01.38-.04a1.49 1.49 0 0 1 .33.01Z" fill="#D1AE6C"/><path d="M11.04 14h-.01a9.6 9.6 0 0 1-.5-.1 9.45 9.45 0 0 1-1.44-.6.2.2 0 0 0-.18.01l-.17.08c-.4.2-.8.38-1.24.5-.15.05-.3.08-.46.1-.09.01-.17 0-.22-.07a20.02 20.02 0 0 1-.2-.13c.4.03.79-.01 1.17-.13a5.04 5.04 0 0 0 1.06-.47l-.55-.3a6.9 6.9 0 0 0-.7-.35h-.06c-.1.09-.21.1-.33.09a2.35 2.35 0 0 0-.19-.01.57.57 0 0 1 .2-.1c.06 0 .11-.02.17-.04.06-.01.14-.04.12-.11a.38.38 0 0 0-.1-.14c-.05-.07-.1-.13-.12-.21 0-.01 0-.01 0 0 .11.1.28.17.34.31l.02.05c.01.02.04.03.06.04a9.45 9.45 0 0 1 1.2.64c.04.02.08.03.12.02a13.36 13.36 0 0 1 1.32-.72.41.41 0 0 1 .13-.17c.08-.06.16-.12.23-.2 0 .1-.06.16-.13.24a.67.67 0 0 0-.08.12c-.03.05-.01.08.04.1.08.04.17.05.25.08.07.02.13.05.2.09h-.15c-.14.01-.27.02-.38-.07-.02-.02-.04-.02-.07 0-.19.07-.37.16-.55.26l-.7.38c.44.25.9.46 1.4.56a3.16 3.16 0 0 0 .8.06c-.07.04-.15.09-.21.15a.13.13 0 0 1-.04.03.13.13 0 0 1-.05.01Z" fill="#D1AE6C"/><path d="M7 6.87a1 1 0 0 0-.2-1.82c.1-.03.23-.05.39-.05.44 0 .81 0 .81.6v2.1c0 .15.21.3.36.3h1.47c.2 0 .58.18.58.9v.9c.05.35.24 1.08.59 1.2H8.95c-.2 0-.59-.12-.59-.6V8.6c0-.2-.36-.6-1.07-.6C7.2 8 7 7.94 7 7.7v-.83Z" fill="#2F2B60"/><path fill-rule="evenodd" d="M6.75 6.75a.75.75 0 1 0 0-1.5.75.75 0 0 0 0 1.5Zm0 .25a1 1 0 1 0 0-2 1 1 0 0 0 0 2Z" fill="#39387F"/><path fill-rule="evenodd" d="M6.75 6.25a.25.25 0 1 0 0-.5.25.25 0 0 0 0 .5Zm0 .25a.5.5 0 1 0 0-1 .5.5 0 0 0 0 1Z" fill="#39387F"/></svg>