<!-- by TradingView --><svg width="18" height="18" viewBox="0 0 18 18" xmlns="http://www.w3.org/2000/svg"><path fill="#F0F3FA" d="M0 0h18v18H0z"/><path d="M5.42 8.4A5.03 5.03 0 0 0 8.7 4h-.3A5.09 5.09 0 0 0 4 8.47v.23a4.93 4.93 0 0 0 1.42-.3Zm8.08-1.34A5.28 5.28 0 0 0 9.06 4H9v2.93c.04 1.35.77 2.05 2.11 2.07H14a5.12 5.12 0 0 0-.5-1.94ZM9 14a5.16 5.16 0 0 1-2.74-.94A5.4 5.4 0 0 1 4 9.21V9h2.36c.8 0 1.36.1 1.67.26.6.3.93.85.97 1.64V14Zm1.28-.15A5.05 5.05 0 0 0 14 9.31a5 5 0 0 0-4.7 4.68c.44-.02.77-.07.98-.14Z" fill="#00664B"/></svg>