<!-- by TradingView --><svg width="18" height="18" viewBox="0 0 18 18" xmlns="http://www.w3.org/2000/svg"><path fill="#F0F3FA" d="M0 0h18v18H0z"/><path d="M9 3a6 6 0 1 0 0 12A6 6 0 0 0 9 3Zm4.5 6a4.5 4.5 0 1 1-9.01 0 4.5 4.5 0 0 1 9 0Zm-8.47-.65c-.07.08-.17.17-.27.36v.02s.38 1 1.15 1.27L7 9.69s-.01.52 0 1.37c.03 1.75 1.72 1.61 2.94 1.51l.22-.02c1.24-.09 1.39-.81 1.14-1.3a2.93 2.93 0 0 0-.83-.87c-.26.23-.55.22-.77.2h-.2c-.2.04-.43 0-.45-.26-.04-.28.05-.76.05-.76.4-.05 1.76 0 2.62.28.87.27 1.5-.45 1.23-1.3-.28-.85-1.17-1.33-1.17-1.33-.15.24-.49.21-.49.21-.61-.11-1.88-.06-1.88-.06-.03-.41.2-.52.38-.6l.05-.04c.2-.08.35-.32.1-.63a8.51 8.51 0 0 0-1.38-.96c-.31.27-1.73.72-1.73.72l.03.3S7 6.1 7 6.33V7.5a5.23 5.23 0 0 0-1.59.21c-.2.06-.21.2-.22.33 0 .06-.01.1-.03.15a.53.53 0 0 1-.13.16Z" fill="#E60012"/></svg>