<!-- by TradingView --><svg width="18" height="18" viewBox="0 0 18 18" xmlns="http://www.w3.org/2000/svg"><path fill="#1F798A" d="M0 0h18v18H0z"/><path fill-rule="evenodd" d="M7.17 6.02c.52-.31.61-.81.59-1.02.42.56-.24 1.25-.97 1.7-.43.26-.6.83-.65 1.27h3.87a.62.62 0 0 0-.05-.16c-.06-.1-.2-.09-.33-.08h-.08l.04-.02c.12-.1.58-.45 1.33-.45.87 0 1.04.26.78.59 1.03-.09 2.17-.23 2.97-.43l.33-.09-.03.35a6.11 6.11 0 0 1-.48 1.78 5.1 5.1 0 0 1-1.32 2.09c-.55.69-1.86 1.25-2.46 1.45v-.72c.15-.01.35-.04.57-.08v-.02c2.1-.94 2.94-3 3.15-4.2-.86.19-1.97.31-2.94.4a4.42 4.42 0 0 0 .3.41 1.46 1.46 0 0 0 .2 0l.11-.02.34-.02.48-.02c.12 0 .26.02.38.06.21.03.42.09.56.2-.56.66-1 .83-1.14.83.42-.27.45-.43.4-.56a4.45 4.45 0 0 0-.97.01l-.12.01c-.12.01-.25.02-.33.01a.39.39 0 0 1-.19-.08.8.8 0 0 1-.17-.17c-.2.12-.46.22-.78.18-.3-.04-.54-.23-.7-.42a2.3 2.3 0 0 1-.24-.33H5.93v-.04h-.16v-.08c0-1.46.75-1.94 1.4-2.33Zm3.32 1.92a1.44 1.44 0 0 1-.02-.25c0-.25.22-.29.58-.29s.52.18.52.23a1 1 0 0 1-.04.24l-.75.05c.15-.08.4-.29.19-.26a.3.3 0 0 0-.28.27h-.2Zm-.94-.2Zm.63-2.1.11-.2-.2.2c-.15.09-.51.34-.74.56-.23.23.02.52.15.69l.06.08c.05.08-.02.36-.06.5l.54-.38c-.21-.18-.63-.59-.62-.76 0-.16.58-.53.87-.7h-.1ZM5.56 8.62c0-.03 0-.05-.03-.06-.02 0-.05.02-.05.04 0 .04 0 .08.04.12.04.04.1.06.18.06H6a.3.3 0 0 0 .14-.05c.02.03.07.05.13.05h.25c.02 0 .05.01.08.04.02.02.04.06.04.14 0 .1-.03.16-.09.2a.4.4 0 0 1-.24.07h-.5l-.1-.07a.04.04 0 0 0-.06.02c-.01.02 0 .05.02.06l.1.06c0 1.47.75 1.95 1.4 2.34.52.31.61.8.59 1.02.42-.56-.24-1.25-.97-1.7-.56-.34-.68-1.2-.66-1.64h.18a.48.48 0 0 0 .32-.1l.1.41c.15-.09.64-.26 1.39-.26.93 0 1.6.82 1.83 1.53-.11-.56-.62-1.69-1.78-1.69-.67 0-1.21.16-1.4.24l-.06-.36a.39.39 0 0 0 .02-.13c0-.1-.03-.17-.07-.21a.2.2 0 0 0-.13-.06h-.26a.1.1 0 0 1-.08-.04.05.05 0 0 0-.04-.03c-.02 0-.04 0-.05.02a.15.15 0 0 1-.05.04.23.23 0 0 1-.06.01H5.7c-.07 0-.1-.02-.12-.03a.05.05 0 0 1-.02-.04Zm.65.3a.05.05 0 0 0-.01-.07.04.04 0 0 0-.06.02l-.05.09h-.37l-.05-.1a.04.04 0 0 0-.06 0 .05.05 0 0 0-.02.06l.07.1c.01.02.03.03.05.03h.4l.04-.03.06-.1Zm-4.08-.51c.4-.03.97-.08 1.26-.64.09.21.49.65 1.42.65-.37.03-1.17.2-1.42.66-.26-.48-1-.61-1.39-.66l.13-.01Zm8.08.03c.22 0 .47-.02.74-.04l.11.21a.72.72 0 0 1-.45.1c-.12-.01-.25-.1-.39-.26h-.01Zm1.6.36Z" fill="#fff"/></svg>