<!-- by TradingView --><svg width="18" height="18" viewBox="0 0 18 18" xmlns="http://www.w3.org/2000/svg"><path fill="#F0F3FA" d="M0 0h18v18H0z"/><path d="M13.5 7.34c-.1.9-1.04 1.66-1.5 1.93.31-.43.88-1.3.66-1.36-.22-.06-.6.15-.75.27l-1.7 1.63c-.12.2-.2.7.48 1.13.68.43 1.91-.5 2.44-1.02a3.85 3.85 0 0 0 1.35-2.77c0-1.35-1.08-2-1.61-2.15l-1.58.64c.05.1.19.32.36.3.18 0 1.06-.24 1.48-.36.17.22.49.86.38 1.76Zm-3.22.33-.2.23a.16.16 0 0 1-.2.04.15.15 0 0 1-.05-.22l.19-.24a.17.17 0 0 1 .25-.02c.05.06.06.15 0 .21Zm.06-.68.1.05c.07.04.17.03.22-.03l.35-.38a.18.18 0 0 0-.03-.26l-.06-.04a.2.2 0 0 0-.25.03l-.36.44c-.05.06-.05.15.03.19Zm.16 1.1-.1.12a.14.14 0 0 1-.17.04.13.13 0 0 1-.05-.2l.1-.12a.14.14 0 0 1 .19-.03c.06.04.08.13.03.19Zm.59-.79.36-.27c.09-.07.1-.2 0-.27a.2.2 0 0 0-.25 0l-.32.33a.14.14 0 0 0 .02.21c.05.04.13.04.19 0Zm-.18.86-.72.84.06.41c.26-.23.82-.73 1.02-.88.25-.2.26-.48.08-.5-.16-.02-.36.08-.44.13Zm.32-.33.36-.22c.06-.03.08-.1.05-.15a.13.13 0 0 0-.18-.05l-.36.23a.12.12 0 0 0-.03.16c.03.05.1.07.16.03Zm.8-1.2-.12-.23 1.15-.4c.17.14.18.48.17.63h-1.2Zm.15.69c.06.1.23.31.42.31.23 0 .62-.21.62-.45 0-.24-.1-.29-.36-.29-.21 0-.54.29-.68.43Z" fill="url(#ahkhljqon)"/><path d="M6.54 6.8A5.55 5.55 0 0 0 2 9.19c.02.09.15.3.51.46A3.78 3.78 0 0 1 5.45 7.9c.55 0 .78.2.83.31l-1.4.05c-.02.02 0 .11.21.32.27.25.95.29 2.3.29 1.08 0 1.57.57 1.68.85a5.79 5.79 0 0 0-2.03-.52c-.72 0-1.13.1-1.24.15 0 .16.17.49.9.49.5 0 .66-.06.8-.12.12-.04.22-.08.5-.08.37 0 .62.1.83.2.13.06.24.1.36.13.3.04.5.62.23.85-.22.19-2.03.31-2.91.35.08.24.28.72.47.77.12.04.14-.01.16-.06.02-.04.05-.09.14-.07a.7.7 0 0 1 .37.19c.3-.28 1.1-.83 1.82-.83.38 0 .56.07.76.15.29.1.63.24 1.66.24 1.5 0 1.86-1.04 2.06-1.6l.1-.26c.16-.33.7-.43.95-.44a.71.71 0 0 0-.91.1A1.55 1.55 0 0 0 13.04 9c-.56 0-.85.5-.93.75.3-.13.59-.05.69 0-1.13 1.03-2.15.8-2.23 0-.08-.8-.97-2.94-4.03-2.94ZM3.4 9.22c-.2.19-.62.56-.65.57.52.35 1.31.62 1.64.71v-.52a8.21 8.21 0 0 1-.99-.76Zm.93-.63-.64.45 1 .64.34-.51-.7-.58Zm.44 1.92v-.4c.05.06.42.18 1.44.18.72 0 .94-.13 1.14-.25.16-.1.3-.17.65-.17.64 0 .94.35 1.02.52-.08-.07-.34-.21-.77-.21-.23 0-.48.1-.77.22a3.49 3.49 0 0 1-2.71.1Zm.55-.97-.16.23.52.22c-.05-.13-.18-.4-.36-.45Z" fill="url(#bhkhljqon)"/><defs><linearGradient id="ahkhljqon" x1="12.14" y1="5" x2="12.14" y2="11.05" gradientUnits="userSpaceOnUse"><stop stop-color="#6E634F"/><stop offset=".96" stop-color="#FCFFFF"/></linearGradient><linearGradient id="bhkhljqon" x1="2.73" y1="8.76" x2="13.38" y2="12.23" gradientUnits="userSpaceOnUse"><stop stop-color="#DF7A1C"/><stop offset="1" stop-color="#F7971D"/></linearGradient></defs></svg>