<!-- by TradingView --><svg width="18" height="18" viewBox="0 0 18 18" xmlns="http://www.w3.org/2000/svg"><path fill="#F0F3FA" d="M0 0h18v18H0z"/><path d="M2 7h2.37c.44.4 1.1.92 1.85 1.41.96-.77 2.03-1.41 3-1.41 1.72 0 2.86.62 4.2 1.7.34-.26.62-.52.8-.7h.83c-.28.28-.69.68-1.18 1.09l1.15 1.03.98.88h-2.37l-.39-.36c-.2-.2-.43-.4-.67-.61a5.6 5.6 0 0 1-2.84.97A7.92 7.92 0 0 1 5.6 9.76c-.35.33-.65.66-.88.91l-.3.33h-.83l.37-.39c.3-.32.68-.74 1.13-1.17C4.1 8.8 3.09 7.97 2 7Zm4.77 1.76C7.9 9.44 9.14 10 10.12 10a4.6 4.6 0 0 0 1.9-.45C11.03 8.74 9.88 8 8.76 8a3.6 3.6 0 0 0-1.99.76Z" fill="#EF2E1E"/></svg>