<!-- by TradingView --><svg width="18" height="18" viewBox="0 0 18 18" xmlns="http://www.w3.org/2000/svg"><path fill="#F0F3FA" d="M0 0h18v18H0z"/><path d="M8 8h3a3 3 0 1 1-3 3V8Z" fill="url(#a)"/><path d="M7 7H5.5A1.5 1.5 0 1 1 7 5.5V7Z" fill="url(#b)"/><path d="M8 7h4.59C13.37 7 14 6.33 14 5.5S13.37 4 12.59 4H9.27C8.56 4.09 8 4.73 8 5.5V7Z" fill="url(#c)"/><path d="M4 10.6C4 9.15 5.23 8 6.75 8H7v6h-.25C5.23 14 4 12.84 4 11.4v-.8Z" fill="url(#d)"/><defs><linearGradient id="a" x1="8" y1="8" x2="13.1" y2="13.2" gradientUnits="userSpaceOnUse"><stop offset=".12" stop-color="#E17536"/><stop offset="1" stop-color="#063A95"/></linearGradient><linearGradient id="b" x1="7" y1="5.5" x2="4" y2="5.5" gradientUnits="userSpaceOnUse"><stop offset=".12" stop-color="#E17536"/><stop offset="1" stop-color="#063A95"/></linearGradient><linearGradient id="c" x1="8" y1="5.5" x2="14" y2="5.5" gradientUnits="userSpaceOnUse"><stop offset=".12" stop-color="#E17536"/><stop offset="1" stop-color="#063A95"/></linearGradient><linearGradient id="d" x1="5.5" y1="8" x2="5.5" y2="14" gradientUnits="userSpaceOnUse"><stop offset=".18" stop-color="#E17536"/><stop offset="1" stop-color="#063A95"/></linearGradient></defs></svg>