<!-- by TradingView --><svg width="18" height="18" viewBox="0 0 18 18" xmlns="http://www.w3.org/2000/svg"><path fill="#F0F3FA" d="M0 0h18v18H0z"/><path d="M7 3.32V15h-.16c-.36-.63-.62-1.13-.79-1.52-.03-.07-.05-.2-.05-.4V8.13c0-.17.02-.34.06-.53.28-1.4.6-2.84.94-4.29Z" fill="#0000FC"/><path d="M7.89 10.95c-.38-.34-.6-.72-.65-1.14a16.1 16.1 0 0 1-.03-2.08c0-.19.04-.33.1-.44.17-.32.4-.69.68-1.12l2.08-3.13a.1.1 0 0 1 .08-.04.1.1 0 0 1 .08.04l1.11 1.36c.09.1.13.23.14.36.02.33.02.68 0 1.04a.5.5 0 0 1-.2.37L9.02 8c-.27.21-.42.4-.45.55-.07.35.05.67.35.99.63.65 1.23 1.24 1.81 1.77.4.36.77.61 1.1.74.22.1.57.22 1.03.37.18.06.19.14.03.24-.3.2-.77.5-1.44.9a.4.4 0 0 1-.26.07.7.7 0 0 1-.25-.11 14.74 14.74 0 0 1-3.05-2.57Z" fill="#FFCD00"/><path d="M8 6.17c-.29.43-.52.8-.69 1.12-.06.1-.1.25-.1.44-.03 1.04-.02 1.74.03 2.08.06.42.28.8.66 1.14l.03.41c.03.25.04.44.04.56L7.96 15H7V3.32c.32.24.6.45.85.66.07.06.1.19.1.4-.01.55 0 1.15.05 1.79Z" fill="#D9D6FD"/></svg>