<!-- by TradingView --><svg width="18" height="18" viewBox="0 0 18 18" xmlns="http://www.w3.org/2000/svg"><path fill="#F0F3FA" d="M0 0h18v18H0z"/><path fill-rule="evenodd" d="M3 9a6 6 0 0 0 5.65 6v-2.49a3.58 3.58 0 0 0 .7 0V15A6 6 0 1 0 3 9Zm7.41 4.68a5 5 0 0 0 2.03-1.15H10.4v1.15Zm2.89-2.2a4.87 4.87 0 0 0 .06-4.95h-1.84a3.52 3.52 0 0 1 0 4.94h1.78Zm-.74-6H10.4V4.2c.83.24 1.56.68 2.15 1.27ZM9.36 4a5.13 5.13 0 0 0-.71 0V5.5a3.57 3.57 0 0 1 .7 0V4ZM5.43 5.47A5 5 0 0 1 7.6 4.2v1.27H5.44ZM4 8.94c0-.87.23-1.7.64-2.41h1.84a3.52 3.52 0 0 0 0 4.94H4.7c-.44-.74-.7-1.6-.7-2.53Zm3.59 3.59v1.15a5 5 0 0 1-2.03-1.15H7.6ZM9 11.47a2.47 2.47 0 1 0 0-4.94 2.47 2.47 0 0 0 0 4.94Zm0-.65A1.82 1.82 0 1 0 9 7.2a1.82 1.82 0 0 0 0 3.63Zm0-1.1A.7.7 0 1 0 9 8.3.7.7 0 0 0 9 9.7Z" fill="#2863AD"/></svg>