<!-- by TradingView --><svg width="18" height="18" viewBox="0 0 18 18" xmlns="http://www.w3.org/2000/svg"><path fill="#F0F3FA" d="M0 0h18v18H0z"/><path d="M15 8v.31c-.5 2.34-2.78 3.69-5.18 3.93-.1.01-.14.06-.12.15l.34 1.52c.02.06 0 .09-.08.09H8.31a.08.08 0 0 1-.03-.03l-.01-.03v-.03l.33-1.49a.1.1 0 0 0-.02-.08.1.1 0 0 0-.08-.04 5.86 5.86 0 0 1-4.6-2.1c-1.02-1.24-1.36-3.43 0-4.56a2.68 2.68 0 0 1 3.88.45c.37.47.69 1.22 1.17 1.65.85.75 1.78.72 2.8-.1l.8-.62c1.03-.69 2.22-.21 2.45.98Zm-8.45-.45c0-.24-.1-.47-.28-.63a.98.98 0 0 0-.67-.27c-.25 0-.5.1-.67.27a.87.87 0 0 0-.28.63c0 .24.1.47.28.63a.98.98 0 0 0 1.35 0c.17-.16.27-.4.27-.63Z" fill="#3EB034"/></svg>