<!-- by TradingView --><svg width="18" height="18" viewBox="0 0 18 18" xmlns="http://www.w3.org/2000/svg"><path fill="#F0F3FA" d="M0 0h18v18H0z"/><path d="M12.26 12s-1.24-.58-3.02-.65c0 0-1.5-.11-2.94.25 0 0-1.5.36-2.08.11l-.05.29h8.1Z" fill="#669DCE"/><path d="M13.52 10.86c-.2 0-.44 0-.7-.02-.08.26-.18.53-.33.8 0 0-1.33-.68-3.12-.75 0 0-1.49-.11-2.93.25 0 0-1.68.34-2.09.09 0 0 .29-1.4 1.4-2.74l-1.37-.67c-.06-.03-.93-.4-1.38-.5l.03-.16h.01c.12 0 .76.06 1.13.02.07-.05.26-.2.5-.18.2.02.38.14.53.35 0 0 .35.44.98.66a6.51 6.51 0 0 1 2.76-1.63s.43-.13 1.02-.11c.26-.58.4-1.29.43-2.12V4l.13.08c.06.04 1.14.77 1.39 2.9.26.24.5.55.7.96 0 0 .52 1.08.31 2.41.39.14.87.26 1.44.32l.64.06-.64.1c0 .01-.3.03-.84.03ZM5.13 7.4c-.44-.61-.92-.14-.92-.14-.41.05-1.19-.02-1.19-.02.48.11 1.4.5 1.4.5.94.45 2.09 1.04 2.09 1.04 4.52 2.52 7.84 1.97 7.84 1.97-1.79-.18-2.66-.95-2.66-.95.78-4.35-1.22-5.65-1.22-5.65-.16 4.63-3.8 4.06-3.8 4.06-.99-.1-1.54-.81-1.54-.81Z" fill="#E68B89"/></svg>