<!-- by TradingView --><svg width="18" height="18" viewBox="0 0 18 18" xmlns="http://www.w3.org/2000/svg"><path fill="#F0F3FA" d="M0 0h18v18H0z"/><path d="M7.29 6.24c.06-.23.14-.3.23-.2l.16.48c.03.1 0 .2-.08.28-.08.1.04.18.18.21.2.05.36.1.44.25.08.17.2.33.35.47.02.01.05.01.07 0a.44.44 0 0 0 .1-.49.29.29 0 0 1 0-.2c.02-.05 0-.07-.07-.08-.04 0-.07-.02-.09-.05 0-.02.02-.04.04-.04h.23c.04 0 .06.02.04.04-.02.06-.01.1.02.15.2.26.03.6-.18.87-.06.06-.13.07-.22.02a1.6 1.6 0 0 1-.46-.42c-.02-.03-.08-.03-.1 0-.15.19-.16.36-.02.5a1 1 0 0 1 .18 1.1l-.29.7c-.16.37-.16.75 0 1.1.03.07.09.1.18.11.3.04.63.08.89.18.08.04.07.06-.02.07a4 4 0 0 0-1.26.36c-.03.01-.05.03-.05.06v.25c0 .07-.17.04-.17-.03v-.22c0-.02 0-.03-.03-.05a4.1 4.1 0 0 0-1.3-.35c-.06 0-.08-.05-.04-.07a31.82 31.82 0 0 1 .79-.2c.44-.42.59-.89.43-1.4a5.8 5.8 0 0 0-.08-.24c-.12-.35-.25-.7-.07-1.05.14-.3.18-.59-.04-.86-.02-.03-.08-.02-.1 0-.1.2-.2.4-.43.52A.11.11 0 0 1 6.4 8c-.3-.22-.43-.49-.4-.79.01-.07.07-.12.18-.14.05-.02.07-.04.07-.06 0-.01-.02-.03-.05-.03a.37.37 0 0 1-.17-.04c-.03-.02-.02-.06.03-.07.12-.01.24 0 .33.01.03.01.04.02.02.04a.45.45 0 0 0-.1.2l-.09.27c0 .04 0 .08.03.12l.15.18c.04.05.08.05.12 0 .1-.15.2-.3.27-.46.06-.12.29-.2.46-.26.1-.03.09-.07.04-.14-.08-.09-.15-.18-.13-.3l.12-.3Z" fill="#3B4384"/><path fill-rule="evenodd" d="M9.3 5H5v8h8V5H9.3Zm0 7.43V5.57H5.63v6.86H9.3ZM11.73 6 10 9.95l1.04-.99-.82 3.04L12 7.4l-1.1.98.82-2.38Z" fill="#3B4384"/></svg>