<!-- by TradingView --><svg width="18" height="18" viewBox="0 0 18 18" xmlns="http://www.w3.org/2000/svg"><path fill="#F0F3FA" d="M0 0h18v18H0z"/><path d="M4.47 11c-.23 0-.47-.04-.47-.37V6H3v4.7c0 .83.5 1.3 1.35 1.3H6v-1H4.47Z" fill="#636466"/><path d="M8.5 8.5V7h-1v1.5H6v1h1.5V11h1V9.5H10v-1H8.5Z" fill="#7AB800"/><path d="M13 8.5v1h1l.01 1.2c-.3.25-.43.3-1.01.3-.5 0-1.03-.24-.99-.83L12 7.77c0-.68.35-.77.97-.77H14V6h-1c-.98 0-2 .24-2 1.71v2.63c0 1.47 1.08 1.66 2 1.66.82 0 1.46-.2 2-.81V8.5h-2Z" fill="#636466"/></svg>