<!-- by TradingView --><svg width="18" height="18" fill="none" xmlns="http://www.w3.org/2000/svg"><path fill="#F0F3FA" d="M0 0h18v18H0z"/><path fill-rule="evenodd" clip-rule="evenodd" d="M6.673 5.517 7.021 4h1.615v.656c0 .155.163.282.364.282V14c-2.582 0-3.743-.18-4-.27.078-.961.393-1.406.58-1.669.126-.178.193-.272.09-.388-.206-.23-.197-.301-.167-.308C7.63 9.99 7.626 7.313 7.625 7.006v-.012c0-.156-.105-.219-.203-.276a.444.444 0 0 1-.131-.101c-.047-.062-.007-.158.034-.26.04-.094.08-.194.056-.275-.041-.135-.49-.433-.708-.565ZM9 4.937V14c2.582 0 3.743-.18 4-.27-.078-.961-.393-1.406-.58-1.669-.126-.178-.194-.272-.09-.388.206-.23.197-.301.168-.308-2.13-1.376-2.124-4.052-2.123-4.359v-.012c0-.156.105-.219.203-.276.051-.03.1-.06.131-.101.047-.062.007-.158-.034-.26-.04-.094-.08-.194-.056-.275.041-.135.49-.433.708-.565L10.979 4H9.364v.656c0 .155-.163.281-.364.282Z" fill="#231F20"/><path d="M10.951 4h-.581c-.032.301.224 1.455.581 1.455.287 0 .344-.096.337-.144L10.95 4Z" fill="#767474"/><path d="M10.673 6.46c-.018.027-.307.057-.516.014-.084-.273.206-.476.337-.41.132.066.197.367.18.395Z" fill="#5D5A5B"/><path d="M8.636 4H8.4v.675c.074.187.318.504.704.272-.343.043-.459-.164-.467-.272V4Z" fill="#767474"/><path d="M10.515 9.038c-.368-.809-.338-1.517-.234-1.938.034-.137-.066-.29-.207-.29a.185.185 0 0 0-.184.15c-.319 1.763.476 3.446.99 4.093.528.666 1.635.5 1.466.348-.169-.152-1.236-1.057-1.83-2.363ZM11.743 11.886a.27.27 0 0 0-.028.005c-.262.056-.131.418.051.615l.16.174c.254.284-.072 1.09.205 1.01.276-.08.552-.628.445-1.01-.107-.382-.615-.816-.833-.794Z" fill="#5D5A5B"/></svg>