<!-- by TradingView --><svg width="18" height="18" viewBox="0 0 18 18" xmlns="http://www.w3.org/2000/svg"><path fill="#F0F3FA" d="M0 0h18v18H0z"/><path fill-rule="evenodd" d="M15 9A6 6 0 1 1 3 9a6 6 0 0 1 12 0Zm-.5 0a5.5 5.5 0 1 1-11 0 5.5 5.5 0 0 1 11 0ZM6 11.87V5l.82.79v.66l.16.16C7.3 6.41 8.21 6 9.31 6 10.68 6 13 6.99 13 9.82c0 .77-.3 1.52-.46 1.8l-.17-.22-.49-.33h-.18l.03-.06c.07-.2.22-.56.22-.94 0-.52-.33-3.2-2.9-3.2-.81 0-1.49.36-1.72.54l-.8-.63-.18.15.35.63v2.92l.17.15.64-.23v-.5L8 9.28v-.61l.45.4v.94A6.24 6.24 0 0 0 6.82 12l-.28-.13H6Z" fill="#435139"/></svg>