<!-- by TradingView --><svg width="18" height="18" viewBox="0 0 18 18" xmlns="http://www.w3.org/2000/svg"><path fill="#F0F3FA" d="M0 0h18v18H0z"/><path fill-rule="evenodd" d="M8.91 3.51a.05.05 0 0 1 .08 0c.75.85 1.43 1.91 1.91 2.83.34.65.34 1.43-.03 2.06-.32.55-.9 1.03-1.51 1.16a2.29 2.29 0 0 1-2.65-2.4c.01-.22.1-.5.25-.86a8.79 8.79 0 0 1 1.95-2.79ZM8.7 5.16a.1.1 0 0 1 .04.07.1.1 0 0 1-.02.07l-.76 1.12a.2.2 0 0 1-.3.05l-.01-.01a.22.22 0 0 1-.06-.3l.76-1.12a.1.1 0 0 1 .07-.05.1.1 0 0 1 .08.02l.2.15Zm4.64 1.65c.11.02.2.06.26.12.02.02.02.03-.01.04l-.56.12c-.42.09-.85.17-1.3.34-.14.06-.22.18-.22.35v.01c0 .17.08.24.24.2l2.15-.58h.02l.02.02v.05c-.49.53-.83.9-1.01 1.13-.54.65-1 1.42-1.42 2.12l-.21.36a4.23 4.23 0 0 1-2.9 2.06c-.6.12-1.1.02-1.79-.11-.4-.08-.8-.31-1.19-.7a.14.14 0 0 1-.03-.16c.22-.45 1.09-.6 1.56-.59.45.01.87.04 1.24.09.16.02.26-.06.29-.23v-.01c.02-.18-.05-.28-.22-.3a6.45 6.45 0 0 0-1.32-.05h-.4c-.2.01-.21-.04-.07-.16l1.14-.9c.14-.1.16-.21.05-.32V9.7c-.14-.14-.26-.16-.37-.07l-1.1.9a.04.04 0 0 1-.05 0 .05.05 0 0 1-.03-.04l-.04-1.61c0-.16-.09-.24-.24-.23h-.05c-.15.01-.21.09-.2.23.04.61.05 1.02.05 1.23-.01.6-.03 1.25-.49 1.56a.12.12 0 0 1-.14 0 3.4 3.4 0 0 1-.42-2.04c.12-1.2.67-2.13 1.68-2.8.21-.14.29-.36.21-.64a.1.1 0 0 0-.05-.07.1.1 0 0 0-.09 0 4.41 4.41 0 0 0-1.66 6.11.22.22 0 0 1 0 .22l-.15.24c-.23.37-.47.73-.5 1.12-.01.04 0 .08.02.11.02.04.05.06.1.07.17.04.3-.03.4-.2a19.13 19.13 0 0 0 .5-1 .08.08 0 0 1 .08-.02l.03.02.35.3c.45.38 1.08.6 1.66.66a4.32 4.32 0 0 0 3.76-1.28c.61-.61 1.01-1.32 1.46-2.11l.19-.35a11.05 11.05 0 0 1 2.38-2.74.18.18 0 0 0 .06-.1c0-.04 0-.09-.02-.12-.16-.28-.98-.59-1.3-.68-.82-.24-1.57-.41-2.26-.52-.16-.03-.23.04-.22.2v.02c.03.16.12.27.27.3l1.86.44Z" fill="#015908"/></svg>