<!-- by TradingView --><svg width="18" height="18" viewBox="0 0 18 18" xmlns="http://www.w3.org/2000/svg"><path fill="#F0F3FA" d="M0 0h18v18H0z"/><path d="M6.08 4.29a.83.83 0 0 0-.15.06.77.77 0 0 1-.15.07c-.07.02-.08 0-.03-.04.27-.25.53-.37.78-.38h2.65c.16 0 .3.08.38.21l3.34 5.42c.02.03.01.04-.02.04h-2.22c-.04 0-.07-.01-.09-.04l-3-4.82c-.32-.52-.82-.7-1.5-.52ZM13.24 9.62l-3.4-5.54C9.8 4.03 9.82 4 9.88 4c.54-.02 1.06-.01 1.55.01.46.03.81.23 1.04.6.26.42.93 1.5 2 3.27.18.28.26.51.24.7a1.3 1.3 0 0 1-.3.78c-.2.21-.56.31-1.09.3a.09.09 0 0 1-.08-.05Z" fill="#0441B4"/><path d="M3.48 7.91A147.5 147.5 0 0 0 5.24 5.1c.13-.2.27-.34.42-.42.37-.2.71-.24 1.01-.13.3.1.53.33.72.68.02.04.02.08 0 .12l-3.4 5.45c-.02.05-.05.05-.08 0a17.8 17.8 0 0 1-.79-1.3 1.1 1.1 0 0 1-.06-.87c.01-.05.15-.29.42-.7ZM8.71 7.55c-1.54 2.5-2.47 4-2.8 4.5-.47.75-.34 1.36.38 1.84v.04l-.03.01a1.2 1.2 0 0 1-.76-.56L4.24 11.3a.29.29 0 0 1 0-.32l3.3-5.3c.05-.08.1-.08.13 0l1.05 1.68c.03.06.03.12 0 .18Z" fill="#0441B4"/><path d="M9.89 9.67H8.11c-.06 0-.07-.03-.05-.08l.9-1.55c.03-.05.05-.05.08 0l.9 1.55c.02.05 0 .08-.05.08Z" fill="#FBB700"/><path d="M14.95 8.73c.08.3.06.56-.07.79l-1.33 2.15a.37.37 0 0 1-.34.18H6.6c-.07 0-.09-.03-.06-.09l1.09-1.74c.02-.03.05-.02.1-.02h5.18c.62 0 1.04-.07 1.25-.16.47-.18.72-.55.75-1.1 0-.1.02-.1.04-.01ZM13.22 12.2l-.68 1.1c-.29.48-.72.71-1.3.7-.56-.01-1.94-.02-4.15 0a.81.81 0 0 1-.46-.1c-.45-.32-.67-.63-.65-.93.02-.3.12-.55.3-.78a.14.14 0 0 1 .12-.06h6.78c.06 0 .07.03.04.07Z" fill="#0441B4"/></svg>