<!-- by TradingView --><svg width="18" height="18" viewBox="0 0 18 18" xmlns="http://www.w3.org/2000/svg"><path fill="#F0F3FA" d="M0 0h18v18H0z"/><path fill-rule="evenodd" d="M9 12.5c1.96 0 3.5-1.54 3.5-3.5S10.96 5.5 9 5.5A3.46 3.46 0 0 0 5.5 9c0 1.96 1.54 3.5 3.5 3.5Zm0 .5a4 4 0 1 0 0-8 4 4 0 0 0 0 8Z" fill="#D5CBA9"/><path d="M3.02 11C3 11 3 11 3 10.98v-.05s0-.02.02-.02h.05c.2 0 .25-.08.25-.34V8.34c0-.2-.08-.25-.23-.25h-.07L3 8.07v-.05C3 8 3 8 3.02 8h1.23l.01.02v.05l-.01.02h-.1c-.15 0-.15.25-.15.25v2.36c0 .05 0 .1.04.1h.84c.12 0 .25-.08.37-.23a4 4 0 0 0 .2-.27c.05-.03.08-.03.08 0v.03l-.33.63c-.01.03-.03.04-.04.04H3.02ZM5.63 11s-.02-.01-.02-.04v-.03l.02-.01c.17 0 .37-.04.37-.25V8.43c0-.22-.06-.32-.27-.32H5.6V8H7.2c.44 0 .95.34.95.83 0 .35-.3.57-.58.69l.7 1.02c.12.18.28.3.49.38.01 0 .02.01.02.03 0 .03-.02.05-.07.05-.6 0-.77-.04-1.1-.53l-.55-.8h-.49v1c0 .24.3.25.49.25l.02.01v.05c0 .01 0 .02-.02.02H5.63Zm1.01-2.9c-.03 0-.08.02-.08.05v1.37h.26c.45 0 .69-.18.69-.69 0-.47-.27-.72-.67-.72h-.2ZM9.22 8.08c-.16 0-.25.07-.25.2 0 .02 0 .04.02.07l.02.08.8 1.93.03.02c.02 0 .03 0 .04-.02l.37-1.03-.4-.98c-.03-.06-.04-.18-.23-.24a.48.48 0 0 0-.1-.03l-.03-.01v-.05c0-.01 0-.02.02-.02h1.92l.01.02v.05l-.01.01h-.08c-.14 0-.24.07-.3.2l-.08.16-.27.63.53 1.29.04.02c.01 0 .02 0 .03-.02l.89-2.08a.27.27 0 0 0 .02-.1c0-.07-.08-.1-.24-.1h-.13l-.01-.01v-.05l.01-.02h.93c.01 0 .02 0 .02.02v.05l-.02.01h-.1c-.06 0-.1.03-.14.07l-.13.26L11.37 11h-.4l-.54-1.33L9.95 11h-.48L8.36 8.29c-.05-.12-.15-.2-.27-.2l-.04-.02v-.05c0-.01 0-.02.02-.02h1.2v.08h-.05Zm1.57.1c0-.06-.06-.09-.18-.1-.12.01-.19.05-.2.13a.23.23 0 0 0 0 .14.7.7 0 0 1 .02.08l.13.32.2-.47a.26.26 0 0 0 .03-.1ZM14.74 10.87h-.05a.3.3 0 0 0-.08 0c-.13 0-.28.05-.4.08a1.4 1.4 0 0 1-.35.05c-.85 0-1.39-.74-1.39-1.47 0-.75.54-1.53 1.42-1.53a2.31 2.31 0 0 1 .86.18l.05-.01h.06c.02 0 .02 0 .02.03v.63c0 .02 0 .02-.03.02h-.04a.35.35 0 0 1-.02-.06l-.01-.02-.01-.02c-.18-.4-.46-.61-.83-.61-.52 0-.83.78-.83 1.39 0 .64.2 1.36.92 1.33.42 0 .74-.34.9-.67h.05l.02.01a.1.1 0 0 1-.01.05l-.25.62Z" fill="#9C2430"/></svg>