<!-- by TradingView --><svg xmlns="http://www.w3.org/2000/svg" width="18" height="18" viewBox="0 0 18 18"><path fill="#F0F3FA" d="M0 0h18v18H0z"/><path fill-rule="evenodd" d="M12.17 14c.8-.03.88-.91.81-1.33-.61 1.05-.98.55-.98.12V4.6c-.03-.9-.4-1.1-.61-1.1h-1.24c-.32.01-.55.1-.7.38-.12.23-.3.36-.37.37H6.4c-.44 0-.62.27-.63.42v.68c-.03.27.21.5.3.59-.37.16-.49.02-.5-.07v-.35c0-.1-.06-.12-.1-.1a.87.87 0 0 0-.47.8c0 .5.6.47.9.4.7-.01.94.08.98.13h-.64c-.27.01-.33.2-.33.3v1.03c0 .4.33.36.49.26l.44-.26.1-.06c.1-.07.18-.13.25-.07.1.09.04.17 0 .2l-.9.58c-.96.57-1.27 1.29-1.29 1.65v2.29c0 1.06 1.29 1.34 1.94 1.33h5.23zm-1.14-9.2l.58.18v1.15c-.33.11-.67-.12-.97-.32-.1-.07-.18-.13-.26-.17-.53-.29-.69-.02-.7.14v.53C9.6 7.43 8.07 7.6 7.3 7.54c-.67-.05-1.06.17-1.15.21-.02-.1-.07-.74.28-.64.28.08.63.08.77.06h.04c.21-.04.97-.16.98-.86.02-.62-.54-.79-.83-.8H6.37c-.2 0-.25-.16-.25-.24v-.48c0-.19.14-.24.21-.25H8.2v.37c0 .28.69.16 1.03.07l-.5-.47h.88c.32 0 .44-.18.44-.43 0-.2.15-.27.23-.28h.6c.26 0 .46.06.5.32.02.2-.22.46-.34.56v.11zM6.41 5.9c.41-.08 1.28-.13 1.47.4.01.06-.02.2-.26.23-.07-.16-.4-.52-1.2-.62zm5.17 1.89V6.44l-.93.49c.42.18.8.65.93.86zm-.96-.43v2.75c.29-.32.85-1.08.86-1.55 0-.46-.57-1-.86-1.2zm.98 5.02V9.3l-.09.13c-.36.53-.7 1.03-.76 1.73-.05.6.55 1.06.85 1.22zm-.96-.38v1.5c.3.02.91-.07.96-.71a2.6 2.6 0 0 1-.96-.8zM5.52 9.9l4.63-2.63v.74l-4.63 2.63V9.9zm4.63-1.17l-4.63 2.63v.75l4.63-2.63v-.75zm-4.63 4.1l4.63-2.63v.75L5.77 13.4c-.25-.16-.25-.57-.25-.57zm4.64-1.2v1.85H7.21v-.15l2.95-1.7z" fill="#A28A32"/></svg>