<!-- by TradingView --><svg width="18" height="18" viewBox="0 0 18 18" xmlns="http://www.w3.org/2000/svg"><path fill="#F0F3FA" d="M0 0h18v18H0z"/><path d="M8.91 4.9c.04.09.2.2.49.35.27.14.44.23.5.28.22.17.43.36.62.57a.11.11 0 0 1 0 .16c-.02.02-.06.01-.12-.02a.62.62 0 0 0-.3-.06c-.05 0-.06.03-.03.07.12.13.32.24.44.39.14.17.28.42.4.75.05.13.02.16-.1.08a1.4 1.4 0 0 0-.78-.25c-.15 0-.17.05-.06.15l.43.4.02.04v.05a.1.1 0 0 1-.03.04.1.1 0 0 1-.05.02c-1.27.17-1.9.95-2.23 2.07-.03.1-.14.15-.33.15-.12 0-.32 0-.32-.16V7.1c0-.08-.02-.1.06-.08 1.23.35 1.56-1.35.32-1.53-.24-.03-.34.1-.54.13a.17.17 0 0 1-.13-.03 3.22 3.22 0 0 0-1-.53.1.1 0 0 1-.03-.04.1.1 0 0 1 .02-.09c.13-.18.34-.38.63-.59.48-.34.98-.43 1.5-.25.42.15 1.07.46 1.34.77.12.13.09.18-.09.13l-.57-.14c-.06-.02-.08 0-.06.05ZM14.67 6.15v.03l-.02.02c-.44.36-1.2.64-1.77.38-.3-.14-.44-.31-.43-.51 0-.2.17-.36.48-.48.59-.22 1.32.12 1.72.51l.01.02v.03Z" fill="#9A8140"/><path d="M10.45 10.66c-.49.12-.87.54-1.22.86-.17.15-.49.24-.67.34-.05.03-.08.06-.07.1v.9c0 .06-.05.14-.12.14h-.93c-.04 0-.08-.05-.1-.1-.04-.2.2-.31.38-.43.03-.03.05-.06.04-.1l-.17-.7a.18.18 0 0 0-.07-.1.2.2 0 0 0-.12-.05H5.68c-.05 0-.1.02-.13.06l-.2.19a.29.29 0 0 1-.12.06c-.1.04-.26.08-.47.13-.14.03-.25.02-.34-.04a.16.16 0 0 1-.05-.05.15.15 0 0 1 0-.13 6.52 6.52 0 0 1 .71-.64c.24-.18.75-.21 1.07-.27.34-.06.67-.24.91-.33.33-.12.56-.1.97-.08.07 0 .15-.01.2-.06a.3.3 0 0 0 .13-.17c.3-1.16.9-1.95 2.28-2.02a2 2 0 0 1 .74.15c.42.15.85.25 1.15.5.17.14.2.32.33.48l.05.04h.06c.57-.06 1.24-.23 1.3-.8.06-.42-.14-.66-.6-.73L12 7.55c-.36-.05-.62-.21-.76-.47a.72.72 0 0 1 0-.75c.14-.26.43-.39.85-.4.05 0 .08.03.1.1v.04c0 .08-.04.13-.13.14-.64.07-.61.82 0 .94.36.07.62.11.77.12.48.01.78.02.9.04.9.07 1.47.71 1.22 1.56-.19.64-1.08 1.01-1.73 1.12-.06 0-.1.04-.1.1-.01.41.06.78.2 1.1.12.23.18.43.18.6.01.5 0 .87-.02 1.13a.1.1 0 0 1-.03.06.1.1 0 0 1-.07.02h-.73c-.38-.01-.43-.16-.16-.4.02-.02.1-.04.28-.08a.1.1 0 0 0 .09-.09c.06-.26.04-.54-.23-.74a5.9 5.9 0 0 0-.63-.4.12.12 0 0 0-.09.03.1.1 0 0 0-.02.04c-.16.46-.55.41-.83.6-.31.2-.5.52-.5.93 0 .06-.02.11-.08.11H9.5c-.09 0-.15-.11-.12-.2.1-.2.3-.3.58-.3.04 0 .08-.02.1-.06a6.9 6.9 0 0 0 .5-1.73.09.09 0 0 0-.03-.03.1.1 0 0 0-.09-.02Z" fill="#563C35"/><path fill-rule="evenodd" d="M7.15 6.55h.03l.33.16c.71.44 1.23-.7.4-.91-.21-.06-.37.06-.52.18a5.29 5.29 0 0 1-.1.06.14.14 0 0 1-.1-.02.13.13 0 0 1-.04-.03 1.55 1.55 0 0 0-1.1-.62c-.2-.03-.37.09-.5.18A497.7 497.7 0 0 1 3 7.35a.1.1 0 0 0 0 .08l.01.03.8.96.03.01a.06.06 0 0 0 .05 0l.02-.02.2-.26c.37-.47 1.2-.24 1.3.33.06.43-.12.72-.53.87-.12.05-.48.02-.78-.09-.06-.02-.08 0-.08.05v.71c0 .06.03.1.09.1h1.2c.04 0 .08-.02.12-.04a.22.22 0 0 0 .08-.09c.3-.57.79-.8 1.45-.89.07 0 .14-.07.14-.15V6.58a.05.05 0 0 1 .04-.03Zm-2.5-.07c-.02.01-.02.03-.02.04v.39c0 .16.07.19.2.09.22-.18.42-.3.6-.38.22-.1.2-.17-.03-.2a1.75 1.75 0 0 0-.72.04.07.07 0 0 0-.04.02Z" fill="#563C35"/></svg>