<!-- by TradingView --><svg width="18" height="18" viewBox="0 0 18 18" fill="none" xmlns="http://www.w3.org/2000/svg">
<rect width="18" height="18" fill="#F0F3FA"/>
<path fill-rule="evenodd" clip-rule="evenodd" d="M8.70588 4C8.70588 4 8.04402 7.80501 4 13H5.37634C5.37634 13 8.11441 9.44278 9 4H8.70588Z" fill="#CD252D"/>
<path d="M8.5 8.5H7.5V9H8.5V8.5Z" fill="#CD252D"/>
<path fill-rule="evenodd" clip-rule="evenodd" d="M12 13C12 13 9.39356 10.7106 9.42111 6.8125C9.42758 5.897 9.62387 4.94793 9.97373 4H9.611C9.611 4 7.92322 6.65171 10.1579 13H12Z" fill="#CD252D"/>
<path fill-rule="evenodd" clip-rule="evenodd" d="M11 8.4L11.2266 9C11.2266 9 15 8.72619 15 7.22031C15 5.71443 8.54628 5.52625 5 7.08344L5.1637 7.39145C5.1637 7.39145 7.92819 6.3 10.5832 6.3C13.2382 6.3 14 6.94329 14 7.2C14 7.45671 14.0007 8.05772 11 8.4Z" fill="#CD252D"/>
</svg>
