<!-- by TradingView --><svg width="18" height="18" viewBox="0 0 18 18" xmlns="http://www.w3.org/2000/svg"><path fill="#00489A" d="M0 0h18v18H0z"/><circle cx="9" cy="9" r="5" fill="url(#a5ch2qq4l)"/><path d="M9.72 8.33a24.9 24.9 0 0 0-2.9 5.18l-.45-.18a25.36 25.36 0 0 1 2.98-5.3l.37.3Z"/><path d="M7.33 6.2a.94.94 0 1 1-1.88 0 .94.94 0 0 1 1.88 0Zm.54 2.56a.94.94 0 1 1-1.89 0 .94.94 0 0 1 1.89 0Zm-2.42 2.98a.94.94 0 1 0 0-1.88.94.94 0 0 0 0 1.88Zm8.2-2.24a.94.94 0 1 1-1.9 0 .94.94 0 0 1 1.9 0Zm-3.46 1.88a.94.94 0 1 0 0-1.88.94.94 0 0 0 0 1.88Zm.48 1.5a.94.94 0 1 1-1.89 0 .94.94 0 0 1 1.89 0ZM9.8 8.76a1.2 1.2 0 1 0 0-2.42 1.2 1.2 0 0 0 0 2.42Z"/><path d="M8.71 4.07c0 .9 1.26 3.22 4.74 2.68A4.7 4.7 0 0 0 8.7 4.07Z"/><path d="M9.11 4.24c.18.28.72.82 1.43.67.89-.18-.93-.67-1.43-.67ZM10.85 5.72c.12.03 1.06.26.63.65-.43.4-.99-.4-.63-.65ZM11.77 5.5c.18.4.65 1.14 1.07.87.53-.33-.97-1.33-1.07-.87Z" fill="#fff"/><defs><linearGradient id="a5ch2qq4l" x1="10.68" y1="5.02" x2="6.59" y2="13.18" gradientUnits="userSpaceOnUse"><stop stop-color="#B20E0D"/><stop offset=".33" stop-color="#F04A16"/><stop offset=".73" stop-color="#F7242A"/><stop offset="1" stop-color="#98132E"/></linearGradient></defs></svg>