<!-- by TradingView --><svg width="18" height="18" viewBox="0 0 18 18" xmlns="http://www.w3.org/2000/svg"><path fill="#F0F3FA" d="M0 0h18v18H0z"/><path fill-rule="evenodd" d="M2 6h14v6H2V6Zm1 4h5v1H3v-1Zm0-3.29V9.6h2v-.44H3.46V6.71H3ZM5.67 9.6V6.71h.45v1.17h1.43V6.71H8V9.6h-.45V8.32H6.12V9.6h-.45ZM9 6.5h6.5v5H9v-5Zm2.8.35H9.79v2.81h.33V8.41h1.52V8.1h-1.52v-.94h1.7v-.31Zm1.67 2.81c.35 0 .68-.15.91-.4l.1.4h.23V8.1h-1.18v.31h.92c-.05.53-.37.94-.99.94s-1-.5-1-1.1c0-.6.45-1.09 1-1.09.38 0 .71.15.88.5h.36c-.2-.57-.67-.81-1.23-.81-.73 0-1.32.63-1.32 1.4 0 .78.48 1.41 1.32 1.41Z" fill="#C2B300"/></svg>