<!-- by TradingView --><svg width="18" height="18" viewBox="0 0 18 18" xmlns="http://www.w3.org/2000/svg"><path fill="#F0F3FA" d="M0 0h18v18H0z"/><path d="M4 4h8a2 2 0 0 1 2 2v8H6a2 2 0 0 1-2-2V4Z" fill="#10509C"/><path d="M7.5 5H5v6.55C5 12.7 5.95 13 6.43 13H10v-2.5c0-.36-.14-1-1-1s-1 .76-1 1v1.4c0 .25-.07.6-.5.6s-.5-.35-.5-.6V5.74c0-.58.38-.73.5-.73Z" fill="#FFFEF8"/><path d="M10.5 13H13V6.45C13 5.3 12.05 5 11.57 5H8v2.5c0 .36.14 1 1 1s1-.76 1-1V6c0-.24.07-.5.5-.5s.5.26.5.5v6c0 .58-.38 1-.5 1Z" fill="#FFD244"/></svg>