<!-- by TradingView --><svg width="18" height="18" viewBox="0 0 18 18" xmlns="http://www.w3.org/2000/svg"><path fill="#F0F3FA" d="M0 0h18v18H0z"/><path d="M6.5 7.52 4 6l4.97-3L14 6l-2.5 1.51L9 6.02l-2.5 1.5Z" fill="url(#a)"/><path d="M9 8.99 6.5 7.54l-.38 3.75 2.88.85V8.99Z" fill="url(#b)"/><path d="m9 8.99 2.54-1.52.33 3.82-2.87.85V8.99Z" fill="url(#c)"/><path d="M6.5 7.5 4 6v6l5 3v-3l-2.5-1.5v-3Z" fill="url(#d)"/><path d="M11.5 7.5 14 6v6l-5 3v-3l2.5-1.5v-3Z" fill="url(#e)"/><defs><linearGradient id="a" x1="8.83" y1="8.04" x2="8.83" y2="3.19" gradientUnits="userSpaceOnUse"><stop stop-color="#C21619"/><stop offset="1" stop-color="#8E0305"/></linearGradient><linearGradient id="b" x1="6.38" y1="8.42" x2="8.89" y2="9.4" gradientUnits="userSpaceOnUse"><stop stop-color="#E9E9E9"/><stop offset="1" stop-color="#C3C3C3"/></linearGradient><linearGradient id="c" x1="11.62" y1="8.42" x2="9.2" y2="11.25" gradientUnits="userSpaceOnUse"><stop stop-color="#CCC"/><stop offset="1" stop-color="#FCFCFC"/></linearGradient><linearGradient id="d" x1="3.82" y1="11.33" x2="9" y2="11.33" gradientUnits="userSpaceOnUse"><stop stop-color="#C21619"/><stop offset="1" stop-color="#8E0305"/></linearGradient><linearGradient id="e" x1="9.36" y1="14.35" x2="14.26" y2="7.52" gradientUnits="userSpaceOnUse"><stop stop-color="#C21619"/><stop offset="1" stop-color="#8E0305"/></linearGradient></defs></svg>