<!-- by TradingView --><svg width="18" height="18" viewBox="0 0 18 18" xmlns="http://www.w3.org/2000/svg"><path fill="#F0F3FA" d="M0 0h18v18H0z"/><circle cx="9" cy="9" r="5" fill="url(#aum1jhqpc)"/><path d="M12.18 5.53c0 .01 0 .03.03.04.13-.13.29-.2.45-.24.05 0 .08.02.09.06l.09.37c0 .05 0 .09-.04.12a7.4 7.4 0 0 1-1.1.9.01.01 0 0 0 .01 0l.97-.56c.04-.03.06-.02.07.03 0 .2-.02.38-.08.56a.17.17 0 0 1-.07.08c-.58.4-1.15.84-1.7 1.3-.06.04-.05.07.02.1l1.36-.78a.18.18 0 0 1 .24.05.2.2 0 0 1-.03.26c-.27.24-.43.54-.49.9 0 .03 0 .04.03.02a.33.33 0 0 1 .26-.01c.03 0 .05.02.07.04a.14.14 0 0 1-.04.21l-.15.08c-.26.14-.66.35-.78.51-.04.05-.03.06.02.03l1.04-.55c.14-.07.24-.05.37-.03a4.06 4.06 0 0 0 .1.02.05.05 0 0 1 .01.06c-.06.14-.02.23.11.27.05.02.07.05.06.09a2 2 0 0 1-.24.72c0 .01.02.04.1.08.02.04.1.04.22 0h.05c.02 0 .04.02.04.03l.11.23c.02.04.02.07-.01.1-.06.08-.07.14-.03.2-.25.17-.37.45-.34.85-.4.43-.74.54-1.03.32-.48-.22-.67-.5-.9-.84l-.25-.36a.08.08 0 0 1-.01-.06.08.08 0 0 1 .03-.06l.46-.24.02-.03v-.03l-.01-.03c0-.02-.01-.02-.03-.02l-.64.35a.07.07 0 0 1-.08-.01l-.37-.35c-.08-.08-.14-.13-.2-.13-.05 0-.07.02-.06.06.09.3-.02.51-.32.62-.03.01-.05 0-.07-.02l-.2-.2a.13.13 0 0 1-.04-.1c.01-.43.03-1.02.64-.81.06.02.08 0 .05-.06l-.23-.43a.05.05 0 0 0-.03-.03H9.7a.05.05 0 0 0-.02.03v.04l.04.18v.05l-.03.03-.26.15c-.04.02-.07.01-.08-.03l-.1-.22-.01-.02a.03.03 0 0 0-.04.01v.02l.01.78c0 .05-.02.08-.06.1a.37.37 0 0 0-.19.23.16.16 0 0 1-.07.09.74.74 0 0 0-.26.25.08.08 0 0 0 .02.1.08.08 0 0 0 .1 0l.32-.25a.12.12 0 0 1 .1-.03c.1.02.17.08.22.18.03.04.02.07-.03.08-.3.04-.39.2-.28.5a.1.1 0 0 1-.02.1l-.1.1a.07.07 0 0 0-.02.07c.07.22.02.4-.14.5a3.2 3.2 0 0 0-.58.47v.02a.02.02 0 0 0 .03.01l.07-.01c.04 0 .07-.03.09-.06.12-.2.3-.3.52-.3.04 0 .06.02.07.07.05.2.05.35-.11.5a7.76 7.76 0 0 1-.84.64.04.04 0 0 1-.02-.03.4.4 0 0 0-.14-.33.1.1 0 0 0-.05-.02.1.1 0 0 0-.06.01c-.14.1-.25.21-.37.34-.13.14-.27.29-.46.43-.04.02-.05.01-.05-.03.08-.5.3-.68.63-.95a11.42 11.42 0 0 0 .18-.16v-.04a.05.05 0 0 0-.04-.03h-.04l-.5.29c-.02 0-.04 0-.05-.02-.02-.03-.01-.06.02-.1a7.48 7.48 0 0 0 .46-.53.05.05 0 0 0-.08-.04l-.44.38a.14.14 0 0 1-.15.02.14.14 0 0 1-.06-.06.15.15 0 0 1-.02-.08l.02-.24c0-.04.02-.07.05-.1l.58-.37a.04.04 0 0 0 .02-.04l-.02-.02h-.02a.19.19 0 0 0-.15.1.1.1 0 0 1-.07.05l-.52.1a.15.15 0 0 1-.13-.05.16.16 0 0 1-.04-.14c.08-.4 1.33-1.28 1.8-1.62l.1-.07c.02-.02.02-.04 0-.06-.02-.02-.04-.02-.06 0-.34.27-.7.47-1.06.67-.28.16-.56.32-.82.51a.04.04 0 0 1-.05 0l-.02-.02v-.03c.15-.54.46-.94.93-1.2.03-.02.03-.03 0-.05l-.05.01a3.3 3.3 0 0 0-.34.23c-.03.03-.06.03-.1 0a.23.23 0 0 1-.1-.19c0-.05-.03-.07-.08-.07-.15 0-.23-.07-.24-.24a.06.06 0 0 0-.02-.04.05.05 0 0 0-.05 0l-.24.1a.1.1 0 0 1-.1-.01c-.08-.05-.13-.13-.13-.25 0-.03 0-.06.03-.1A7.92 7.92 0 0 1 7.6 8.16c-.4.13-.72.34-1.05.54-.3.19-.6.37-.95.5a.1.1 0 0 1-.07 0 .1.1 0 0 1-.06-.12.1.1 0 0 1 .04-.06l1.05-.74c.02 0 .02-.02 0-.03H6.5a11.38 11.38 0 0 0-1.14.69c-.03 0-.06 0-.09-.02a1.4 1.4 0 0 1-.31-.18.3.3 0 0 0-.1-.06.78.78 0 0 1-.32-.18.03.03 0 0 1 0-.04l.02-.01h.02l.14.11a.06.06 0 0 0 .08 0l.02-.03v-.04l-.03-.1c-.02-.05-.05-.07-.1-.05l-.09.02c-.03 0-.05 0-.07-.03-.33-.46-1.07-1.6.08-1.6a4.67 4.67 0 0 1 1.24.19.11.11 0 0 1-.05.17c-.14.06-.27.13-.38.24-.05.05-.04.06.02.03l.2-.07c.13-.06.26-.11.44-.15.11-.02.2-.06.28-.1.17-.07.28-.12.57.12l.02.02a.07.07 0 0 1 0 .07l-.03.03c-.38.2-.73.43-1.09.66l-.44.28a.08.08 0 0 0-.04.05c0 .02 0 .03.03.02l.49-.3c.28-.17.57-.35.86-.47l.14-.07c.26-.12.5-.23.77.01.01.02.03.02.05.02.13 0 .16-.04.1-.12a.4.4 0 0 1 .02-.02c.15.2.12.37-.1.5a.04.04 0 0 0-.03.03l.01.03.2-.08a.11.11 0 0 1 .11 0 .4.4 0 0 0 .28.07.1.1 0 0 1 .1.05l.1.16c.08.15.17.3.34.36a.1.1 0 0 1 .04.03.1.1 0 0 1 .02.05c.02.15.1.27.22.35.03.02.05.01.07-.01l.15-.24a.04.04 0 0 0 0-.06.04.04 0 0 0-.06 0 .17.17 0 0 0-.04.07l-.03.03a.07.07 0 0 1-.1-.03c-.08-.2-.08-.35 0-.47.37-.51.5-1.09.4-1.72 0-.04 0-.06.05-.06h.03c.02 0 .03 0 .03.03.1.59-.02.89-.22 1.39a29.15 29.15 0 0 0-.07.21l.26.79c0 .02.02.02.03 0l.98-1.23a.02.02 0 0 0 0-.02v-.01h-.01a.02.02 0 0 0-.02 0l-.2.2c-.24.24-.54.55-.76.58l-.05-.01a.08.08 0 0 1-.03-.05c-.06-.23.06-.43.18-.63l.15-.27c.02-.04 0-.07-.04-.07-.07 0-.1-.05-.07-.14 0-.01.01-.02.03-.02l.03-.01h.01a15.4 15.4 0 0 1 .9-1.1l-.01-.04c-.01-.02-.03-.02-.04 0l-.3.32c-.03.04-.05.03-.05-.02 0-.09.01-.16.06-.21.19-.2.35-.4.5-.6.49-.6.93-1.14 1.73-1.47h.05c.02 0 .03 0 .05.02.26.27.17.51.06.79l-.07.2a.2.2 0 0 1-.05.08l-.46.43Z" fill="url(#bum1jhqpc)"/><path d="m7.75 7.02.05-.05h.04l1.08 1.01a.04.04 0 0 1 .01.02v.02l-.04.06-1.14-1.06Z" fill="url(#cum1jhqpc)"/><path d="M12.16 7.44c-.04 0-.06-.01-.07-.05-.18.04-.29.1-.31.2-.02.06 0 .07.05.06.12-.04.23-.1.33-.2Z" fill="url(#dum1jhqpc)"/><defs><linearGradient id="aum1jhqpc" x1="7.44" y1="4.31" x2="10.41" y2="14" gradientUnits="userSpaceOnUse"><stop stop-color="#28587E"/><stop offset=".57" stop-color="#A1B9BE"/><stop offset="1" stop-color="#1E4980"/></linearGradient><linearGradient id="bum1jhqpc" x1="4.29" y1="8.61" x2="13.4" y2="9.37" gradientUnits="userSpaceOnUse"><stop stop-color="#C3DEEF"/><stop offset=".45" stop-color="#4AABC3"/><stop offset="1" stop-color="#C9DBE3"/></linearGradient><linearGradient id="cum1jhqpc" x1="4.29" y1="8.61" x2="13.4" y2="9.37" gradientUnits="userSpaceOnUse"><stop stop-color="#C3DEEF"/><stop offset=".45" stop-color="#4AABC3"/><stop offset="1" stop-color="#C9DBE3"/></linearGradient><linearGradient id="dum1jhqpc" x1="4.29" y1="8.61" x2="13.4" y2="9.37" gradientUnits="userSpaceOnUse"><stop offset=".45" stop-color="#4AABC3"/><stop offset="1" stop-color="#C9DBE3"/></linearGradient></defs></svg>