<!-- by TradingView --><svg width="18" height="18" viewBox="0 0 18 18" xmlns="http://www.w3.org/2000/svg"><path fill="#F0F3FA" d="M0 0h18v18H0z"/><path d="M8.52 5.82h-3.2L7.4 3.04A.1.1 0 0 1 7.48 3h3.08c.03 0 .03 0 .02.03l-2.06 2.8Z" fill="#EC6B22"/><path d="m10.35 3.87.57-.8h.01a.03.03 0 0 1 .04 0l.57.8.01.02v.02h-.02l-.01.01h-1.16l-.01-.01a.03.03 0 0 1 0-.04ZM9.62 4.9l.6-.86h.02l.01-.01h1.4l.01.01.61.85v.02a.03.03 0 0 1 0 .02H9.62l-.01-.01a.03.03 0 0 1 0-.03ZM12.39 5.05l.6.86.01.01a.03.03 0 0 1-.01.02H8.9a.03.03 0 0 1 0-.03l.6-.86H12.4Z" fill="#E3E2E1"/><path d="M8.52 5.82c-.04.02-.05.04-.04.06.43.65 1.13 1.7 2.1 3.12H7.41L5.3 5.82h3.2Z" fill="#D96129"/><path d="m9.52 6.95-.6-.85a.03.03 0 0 1 0-.03v-.01H12.98l.01.02v.02l-.61.85a.03.03 0 0 1-.02.01H9.53v-.01ZM10.25 7.93l-.61-.82a.03.03 0 0 1 0-.04h2.61a.03.03 0 0 1 .01.03l-.61.83-.01.01h-1.37a.03.03 0 0 1-.02 0ZM11.53 8.12l-.56.8h-.01a.03.03 0 0 1-.04 0l-.56-.8a.03.03 0 0 1 0-.03.03.03 0 0 1 .03-.01h1.12a.03.03 0 0 1 .02.01v.03Z" fill="#E3E2E1"/><path d="m10.58 9 2.12 3.18H9.52L7.4 9 10.58 9Z" fill="#888784"/><path d="m6.46 9.9.58-.82h.01a.03.03 0 0 1 .04 0l.58.81a.03.03 0 0 1-.01.04h-1.2a.03.03 0 0 1 0-.04ZM7.8 10.08l.59.83a.03.03 0 0 1 0 .03h-.01l-.02.01h-2.6a.03.03 0 0 1-.02-.01.03.03 0 0 1 0-.03l.6-.83v-.01h1.43a.03.03 0 0 1 .03 0ZM5 11.92l.61-.85.01-.01H8.5a.03.03 0 0 1 .02 0l.61.86a.03.03 0 0 1 0 .04H5v-.01a.03.03 0 0 1 0-.03Z" fill="#E3E2E1"/><path d="m12.7 12.18-2.08 2.79a.08.08 0 0 1-.07.03H7.44l-.01-.02a.03.03 0 0 1 0-.02l2.09-2.78h3.18Z" fill="#4C4B4A"/><path d="m5.64 12.96-.61-.85a.03.03 0 0 1 0-.04H9.1v.01a.02.02 0 0 1 0 .03l-.6.85-.01.01H5.64ZM6.36 13.98l-.6-.85a.03.03 0 0 1-.01-.03l.01-.01h2.59a.03.03 0 0 1 .03 0 .03.03 0 0 1 0 .04l-.61.85H6.38a.03.03 0 0 1-.02 0ZM7.65 14.14l-.56.79a.03.03 0 0 1-.03 0h-.02l-.56-.8a.03.03 0 0 1 0-.03h1.15a.03.03 0 0 1 .02 0 .03.03 0 0 1 0 .04Z" fill="#E3E2E1"/></svg>