<!-- by TradingView --><svg width="18" height="18" viewBox="0 0 18 18" xmlns="http://www.w3.org/2000/svg"><path fill="#F0F3FA" d="M0 0h18v18H0z"/><path d="M5 12c-.35.02-.62-.05-1 .13l.01.45c.03.33.18.42.47.42h5.69c.27 0 .41-.15.41-.44v-.16c0-.27-.13-.4-.38-.4h-.67c-.05 0-.07-.03-.05-.08l1.03-2.71c.03-.1.06-.1.1 0l1.35 3.53c.03.07.07.13.12.17.06.04.12.08.19.09h.46c.16-.01.27-.13.32-.32l1.92-7.12c.09-.32-.03-.5-.34-.53L14.46 5c-.3-.04-.5.1-.58.4l-1.4 5.14c-.02.09-.04.09-.07 0L11.09 7.2a.29.29 0 0 0-.1-.14.27.27 0 0 0-.16-.05h-.56a.2.2 0 0 0-.13.05.65.65 0 0 0-.18.3c-.56 1.59-.99 2.42-1.28 3.23-.03.07-.05.07-.07 0l-.43-1.54c-.08-.28-.25-.37-.54-.37H7.4c-.3.03-.4.23-.31.52L7.88 12H5Z" fill="url(#a)"/><path d="M4 12.13c.38-.18.65-.1 1-.13V5.45c0-.28-.05-.43-.32-.43h-.26c-.27 0-.41.14-.41.43v6.68Z" fill="url(#b)"/><defs><linearGradient id="a" x1="9.5" y1="5" x2="9.5" y2="13" gradientUnits="userSpaceOnUse"><stop stop-color="#17499C"/><stop offset="1" stop-color="#2695E1"/></linearGradient><linearGradient id="b" x1="9.5" y1="5" x2="9.5" y2="13" gradientUnits="userSpaceOnUse"><stop stop-color="#17499C"/><stop offset="1" stop-color="#2695E1"/></linearGradient></defs></svg>