<!-- by TradingView --><svg width="18" height="18" viewBox="0 0 18 18" xmlns="http://www.w3.org/2000/svg"><path fill="#F0F3FA" d="M0 0h18v18H0z"/><path d="M10.94 12.98c-.02.1-.05.08.07.07l.15-.09c.05-.27-.15-.47-.24-.7.2.06.17.12.43.13.07-.16 0-.2.12-.25.07.07.06.03.09.19 0 .09-.02.07.08.07.03-.2.06-.39-.21-.4l-.66-.01-.55-1.1 1.79-1.1c.02.5-.08.83.4.71-.14-.14-.13-.03-.22-.2l.25-.07c0-.21-.1-.33-.17-.53.22.08.28.18.5.14l.08-.26c.18.1.04.1.17.26.04-.4-.18-.4-.67-.4.09-.18.19-.19.26-.35-.07-.17-.1-.07-.16-.23.14-.03.05.03.16-.03-.5-.37-.35.24-.6.6h-.87c-.01-.82-.8-1.26-1.66-1.82-.17-.11-.2-.07-.2-.26.23-.13 2.3-.07 2.73-.05v-.13c-.2 0-.47 0-.56-.02v-.13l.58-.03L12 6.8l-.54.02c0-.25.03-.12-.08-.2-.18.12-.02 0-.1.14-.24.35-.36-.1-.39-.13-.76-.05-.27.08-.7.09h-.8c-.27 0-.51-.02-.69.13-.12.1-.18.21-.18.57.04.27.31.83.47 1.12.15.3.27.52.44.73-.1.26-.21.45-.4.68L8.1 11.2c-.2.29-.6.5-.99.5-.2 0-.39-.06-.57-.17-.82-.47-.19-1.38.25-.86.19.23.15.67.14.98.19-.07.15-.06.24-.2.05-.07.1-.13.15-.24.1-.2.14-.44.1-.69a.9.9 0 0 0-.8-.74c-.95-.12-1.52.81-1.13 1.7.29.63 1.01 1.13 2.06 1.13 1.22 0 1.9-.93 2.11-1.05l.82.6c-.09.13-.35.24-.54.47.02.2.08.26.25.27l-.07-.26c.17.05.08.07.25.12.17-.11.18-.28.33-.34-.01.43-.06.49.36.43l-.11.13Z" fill="#C5A664"/><path fill-rule="evenodd" d="M9 4a5 5 0 1 1 0 10A5 5 0 0 1 9 4Zm0 .24a4.76 4.76 0 1 1 0 9.52 4.76 4.76 0 0 1 0-9.52Z" fill="#C5A664"/><path d="m7.62 6.27.68 1.35H6.1s.06-.47-.73-1.35h2.26ZM8.33 8l.58 1.36H7.09S7 8.82 6.2 8h2.14ZM10.54 6.27h.99l.17-.87-.36.4c.03.02.06.06.06.1 0 .08-.06.14-.14.14-.08 0-.14-.06-.14-.13 0-.05.03-.09.06-.11l-.15-.44-.16.43c.04.02.07.07.07.12 0 .07-.06.13-.14.13-.08 0-.14-.06-.14-.13 0-.05.03-.1.07-.12l-.39-.4.2.88Z" fill="#C5A664"/></svg>