<!-- by TradingView --><svg width="18" height="18" viewBox="0 0 18 18" xmlns="http://www.w3.org/2000/svg"><path fill="#007B9B" d="M0 0h18v18H0z"/><path d="M13.99 5.7c.13.58-.65 1.25-1.75 1.5-1.1.26-2.1-.01-2.23-.6-.13-.58.65-1.25 1.75-1.5 1.1-.26 2.1.01 2.23.6Zm-2.7 2.6c-.73 0-1.7 0-2.3-.57-.18-.2-.31-.45-.34-.7-.03-.24.04-.45.12-.66.06-.17.13-.35.13-.55 0-.36-.42-.44-.72-.44-.09 0-.28 0-.38.02-.62.1-1.2.4-1.7.84-.25.22-.6.57-.6.98 0 .08.02.17.06.24.18.3.6.3.9.3.6 0 1.26.05 1.72.56.19.27.26.54.26.83 0 .33-.1.68-.21 1.03-.11.37-.23.75-.23 1.13C8 12.52 9.24 13 10.26 13c1.55 0 3.42-1.27 3.42-2.72 0-1.44-1.3-1.98-2.39-1.98ZM3.1 11.6c.36.6 1.5.5 2.54-.21 1.05-.73 1.6-1.8 1.25-2.4-.35-.6-1.48-.5-2.53.22-1.05.73-1.6 1.8-1.26 2.4Z" fill="#fff"/></svg>