<!-- by TradingView --><svg width="18" height="18" viewBox="0 0 18 18" xmlns="http://www.w3.org/2000/svg"><path fill="#F0F3FA" d="M0 0h18v18H0z"/><path fill-rule="evenodd" d="M4 4v3.82l.18-.14.27.75L4 8.29v.36l.56.13.43 1.38-.99-.09v.38h1.1l.43 1.47c-.54.18-1.24.07-1.53 0V14h1.84l-.07-.26.27-.1.1.36h1.8a71.66 71.66 0 0 0-2.65-6.8c.22-.1.36-.28.4-.36C7.77 8.4 8.66 12.26 8.84 14H14V4h-2.12c.23.96.03 2.14-.1 2.59.9.46.97 1.35.99 1.78.02.34.11.58.16.65l.75 1.37c.28.54-.12 1-.35 1.17l-.94.6-1.2-.77c-.47-.3-.86-.24-1-.17.9.05 1.5.77 1.7 1.11l-.7.5-.18.73-.58-.33-.5.5-.15-.42-.78.62c.1-.57.2-2.34-.3-4.8-.48-2.47-2.27-3.1-3.1-3.1a8.6 8.6 0 0 1 5.9 2.2l.01.02c.18.17.25.23.27.48.02.2.08.43.1.52l.51-.13c-.26-.41-.8-1.2-2.9-2.9-1.69-1.37-3.23-1.17-3.8-.9 1.31-.85 2.86-.7 3.47-.5-2.07-1.27-3.5-.47-3.97.09L5.64 4H5.2c-.4.25-.56.8-.6 1.06L4.34 4H4Zm1.95 9.35-.34-1.2c-.14.1-.76.2-1.06.25l-.24 1.13c.47.08 1.28-.09 1.64-.18Zm3.71-7.46c.07-.26.32-.9.72-1.32.2.2.56.8.45 1.66l-.51-1.06c-.1.15-.33.54-.4.92l-.26-.2Zm-.83 2.43c.27-.18.83-.56.92-.67l.17.26-.62.4a.74.74 0 0 0-.3.48l-.17-.47Zm1.51 1.4c-.62-.29-1.08-.04-1.23.12l.1.92c.4-1.37 1.1-.98 1.35-.78.25.2.67.15.83 0l.49-.48c-.03 0-.15.07-.4.28-.33.26-.37.29-1.14-.06Zm2.5 1.04.46.44-.55.3c.08-.06.22-.3.09-.74Z"/></svg>