<!-- by TradingView --><svg width="18" height="18" viewBox="0 0 18 18" xmlns="http://www.w3.org/2000/svg"><path fill="#F0F3FA" d="M0 0h18v18H0z"/><path d="M5.53 4.94c-.32.05-.59.17-.81.34a.07.07 0 0 0-.03.08c.03.08 0 .15-.07.2-.03.01-.03.03 0 .06l.1.09c.32.27.5.48.54.63l.04.15c.06.27.12.46.17.57.07.17.19.31.34.43.05.05.05.1 0 .14l-.85.62-.01.02c0 .02 0 .03.02.04.01.02.03.02.05.01l.54-.22a.1.1 0 0 1 .08 0c.03.02.04.04.05.07.02.1.06.18.14.24l.24.12c.16.06.27.12.33.18.23.24.48.48.73.7.02.02.03.04.02.06l-.11.79-.09.05a.26.26 0 0 0 0-.18c-.02-.04-.07-.06-.14-.08A1.9 1.9 0 0 1 6 9.6l-.48-.43c-.34-.3-.61-.56-.8-.76a1.78 1.78 0 0 1-.22-.3c-.1-.16-.2-.27-.27-.33-.03-.03-.04-.06-.02-.1.02-.05.08-.07.17-.07.02 0 .03 0 .03-.02l.01-.06c0-.03 0-.04-.04-.04-.26.02-.45-.05-.56-.24l-.19-.22c-.12-.13-.2-.23-.23-.31a9.4 9.4 0 0 0-.14-.37 3.22 3.22 0 0 1-.25-1.66c0-.05.04-.1.1-.15a.54.54 0 0 0 .2-.46c-.01-.03 0-.05.02-.06A.08.08 0 0 1 3.41 4c.29.08.52.16.7.25.45.24.93.47 1.42.7ZM13.66 5.1c-.32.1-.73.3-1.23.55-.33.17-.75.34-1.27.5.12-.27.3-.6.54-.98.22-.36.5-.62.87-.78.09-.04.18-.1.29-.19l.1-.08c.06-.04.12-.03.17.02.28.26.46.58.53.95Z" fill="#97C9CE"/><path d="m5.53 4.94.7.28.2.4c.4.53.8 1.06 1.17 1.6.17.24.35.44.53.6l1.38 1.2a2.49 2.49 0 0 1 .55.74c.02.03.05.06.1.06.03 0 .07 0 .1-.03l.03-.03.08.18c.08.35.28.59.58.73l.36.18a.1.1 0 0 0 .1 0c.04-.01.07-.06.07-.13l-.03.43-.37-.12a.13.13 0 0 0-.1 0l-.26.13c-.28-.27-.6-.33-.94-.17a6.2 6.2 0 0 1-1.43.52c-.25.05-.42.1-.49.15-.19.12-.34.39-.47.81-.05.17-.09.28-.12.33-.03.06-.05.08-.07.08l-.28-.06c-.04-.01-.06-.03-.07-.06-.11-.38-.05-.82.2-1.33.17-.39.4-.85.65-1.4.08-.17.12-.36.13-.56 0-.04-.02-.04-.05-.01l-.74.8.11-.79c0-.02 0-.04-.02-.06-.25-.22-.5-.46-.73-.7a.95.95 0 0 0-.33-.18l-.24-.12a.37.37 0 0 1-.14-.24.09.09 0 0 0-.05-.06.1.1 0 0 0-.08 0l-.54.21c-.02.01-.04 0-.05-.01a.1.1 0 0 1-.02-.04l.01-.02.84-.62c.06-.05.06-.1 0-.14a1.15 1.15 0 0 1-.33-.43 3.88 3.88 0 0 1-.21-.72c-.04-.15-.22-.36-.54-.63a5.86 5.86 0 0 1-.1-.1c-.03-.02-.03-.04 0-.06.08-.04.1-.1.07-.2a.07.07 0 0 1 .03-.07c.22-.17.5-.29.81-.34Z" fill="#5BA3B0"/><path d="m13.66 5.1.04.73c0 .1.03.22.1.39.08.26.1.46.03.62-.38.85-.9 1.62-1.6 2.3-.05.05-.04.1.01.14.18.14.35.34.51.59.25.38.34.8.27 1.27a.87.87 0 0 1-.1.31.16.16 0 0 0-.02.1.8.8 0 0 0 .14.39c.05.07.13.17.26.3l.21.21a6.58 6.58 0 0 1 .49.7l-.03.02h-.03c-.15-.19-.27-.33-.37-.42-.75-.7-1.2-1.11-1.36-1.24-.16-.12-.4-.25-.76-.36l.03-.43a.82.82 0 0 0-.35-.67 2.75 2.75 0 0 1-.28-.21 4.04 4.04 0 0 1-.23-.27l-.5-.45c-.02-.03-.03-.02-.02.01l.2.63-.04.03a.13.13 0 0 1-.1.03.12.12 0 0 1-.1-.06l-.04-.06c-.16-.3-.34-.53-.51-.68a92.55 92.55 0 0 1-1.38-1.2 3.84 3.84 0 0 1-.53-.6l-1.16-1.6-.2-.4c.2.06.44.22.72.5l.09.08c.12.12.27.3.44.57.2.32.4.54.57.67.55.39 1.1.83 1.69 1.33.02.02.05.03.07.02.03 0 .05-.02.06-.04.36-.75.79-1.47 1.28-2.2.52-.16.94-.33 1.27-.5.5-.26.91-.44 1.23-.56Z" fill="#358294"/><path d="M10.72 11.16c-.25.2-.53.37-.82.52-.24.11-.5.18-.8.2-.19 0-.46 0-.8-.04-.14-.02-.16.02-.06.12l.4.39c.03.02.04.05.03.09-.02.11-.1.2-.24.25h-.06c-.03-.02-.04-.05-.02-.08l.1-.17c.02-.03.02-.06-.02-.08l-.6-.32a.1.1 0 0 0-.1 0 .09.09 0 0 0-.04.07c-.02.26.02.52.1.77.04.12.06.26.05.45 0 .21-.05.36-.13.43-.12.11-.2.18-.27.2-.1.05-.21.05-.35.02a2.76 2.76 0 0 1-.93-.4.16.16 0 0 1-.07-.13c-.03-.22-.03-.47.02-.75.02-.14.14-.37.35-.67l.1-.16c.1-.14.14-.39.13-.76 0-.21.09-.48.26-.8l.09-.05.74-.8c.03-.03.05-.03.05.01 0 .2-.05.39-.13.56l-.66 1.4c-.24.5-.3.95-.19 1.33.01.03.03.05.07.06l.28.06c.02 0 .04-.02.07-.08.03-.05.07-.16.12-.33.13-.42.28-.7.47-.81.07-.05.24-.1.5-.15A6.2 6.2 0 0 0 9.77 11c.34-.16.66-.1.94.17Z" fill="#256E7E"/><path d="M11.48 10.72c0 .07-.03.12-.08.14a.1.1 0 0 1-.1-.01l-.35-.18c-.3-.14-.5-.38-.58-.73.07.16.18.26.31.3.06 0 .1 0 .14-.05a.12.12 0 0 0 .02-.13l-.22-.5.23.28.28.21c.22.16.34.38.35.67Z" fill="#97C9CE"/></svg>