<!-- by TradingView --><svg width="18" height="18" viewBox="0 0 18 18" xmlns="http://www.w3.org/2000/svg"><path fill="#F0F3FA" d="M0 0h18v18H0z"/><path d="M11.21 8.08c-.93.11-1.76.62-2.37 1.31-.34-.2-.68-.38-1.01-.54.19-.5.32-1.02.47-1.5.98-.02 2.42-.36 2.67-2.14 0 0-1.84-.79-2.89.73-.14.2-.26.45-.35.72-.84-.12-1.29-.55-1.36-1.05.53-.15 1.12.24 1.18.29.1-.16.2-.32.36-.5a2.5 2.5 0 0 0-2.39-.18c.02 0 .08 1.7 2 2.06-.12.43-.25.87-.42 1.27a3.92 3.92 0 0 0-1.9-.26c-1.2.2-1.6 1.41-.73 2.03.78.56 2.25.37 2.96-.65.3.15.6.31.88.48l-.1.18C7.6 11.55 7.53 13 7.53 13H8.9s-.08-1.19.36-2.3l.32.18c1.72.94 4.42.6 4.42-1.28 0-.99-1.22-1.72-2.79-1.52Zm-1.08-2.45s-.06.93-1.55 1.03h-.03c.14-.29.3-.54.51-.72.55-.47 1.07-.31 1.07-.31ZM6.16 9.65c-1.06.55-1.6-.35-.79-.5.35-.08.78 0 1.23.16-.13.13-.27.25-.44.34Zm3.54.27c1.09-1.36 3.23-1.18 3.23-.27 0 .8-1.51 1.18-3.23.27Z" fill="#EE8F00"/></svg>