<!-- by TradingView --><svg width="18" height="18" viewBox="0 0 18 18" xmlns="http://www.w3.org/2000/svg"><path fill="url(#asddxsytf)" d="M0 0h18v18H0z"/><path d="M10.57 4.03c-.04.06-.1.1-.2.14a8.7 8.7 0 0 0-1.23.78.46.46 0 0 1-.14.07L7.8 4.25a.97.97 0 0 1-.2-.17.08.08 0 0 0-.04-.02.2.2 0 0 1-.1-.06h3.01l.1.03Z" fill="#EF92B3"/><path d="M7.47 4a.2.2 0 0 0 .1.06l.05.02c.07.08.14.14.2.17.4.25.79.5 1.18.77l-.87 1.2-.46-.16c-.18-.05-.43-.13-.76-.25-.04-.02-.07-.02-.1 0a.07.07 0 0 0-.03.06l-.03 1.4-1.28.46c-.05 0-.08-.03-.09-.07-.13-.5-.25-1-.36-1.52a.33.33 0 0 0-.07-.13 1.16 1.16 0 0 1-.03-.03l.04-.06c0 .02.02.04.05.03.04 0 .08-.02.11-.03a30.24 30.24 0 0 1 1.58-.13c.06 0 .09-.03.1-.08.16-.42.31-.81.48-1.17a2.15 2.15 0 0 0 .13-.44l-.01-.04h-.02A.28.28 0 0 1 7.47 4Z" fill="#F6BFD7"/><path d="M10.57 4.03c.02 0 .04.01.06.04l-.04.1v.05l.1.23c.16.3.28.62.39.94l.12.32c.02.04.01.07-.03.08l-1.3.44-.7-.98a.1.1 0 0 1-.02-.06v-.24a8.71 8.71 0 0 1 1.42-.92Z" fill="#EC7B99"/><path d="M7.38 4.06h.02c.01 0 .02.02.01.04a11.17 11.17 0 0 1-.13.44c-.17.36-.32.75-.47 1.17-.02.05-.05.07-.1.07a30.24 30.24 0 0 0-1.59.14.82.82 0 0 1-.11.03c-.03 0-.04 0-.05-.03l2.42-1.86Z" fill="#FADCE9"/><path d="m10.63 4.07.24.16 2.12 1.63c.02.01.04.04.05.07l-1.73-.14c-.05 0-.07.02-.07.07l.01 1.42a240.55 240.55 0 0 1-2.17 1.7L9.04 9h-.02l.06-.13v-.05a.19.19 0 0 1 0-.13 7.55 7.55 0 0 0 .29-.89l.5-1.57 1.3-.44c.04-.01.05-.04.03-.08a7.02 7.02 0 0 0-.6-1.49v-.06l.03-.1Z" fill="#EA6081"/><path d="m9.14 4.95.01.24.02.06.7.98a332.4 332.4 0 0 0-.8 2.59v.05L9.03 9H6.3a.17.17 0 0 0-.14.08l-.73 1.08c-.02.04-.06.05-.1.01a26.37 26.37 0 0 1-1-.9c-.1-.11-.2-.16-.3-.15a.32.32 0 0 1 0-.27l.01.03c.01.03.03.04.06.02l.38-.32c.16-.15.29-.25.38-.32a3.17 3.17 0 0 0 .4-.37.31.31 0 0 0 .1-.09.1.1 0 0 1 .04-.04l.07-.03 1.28-.45 2.1 1.58a.1.1 0 0 1 .03.05c.01.04.04.06.09.05.02 0 .03 0 .03-.03L9 8.86c0-.02 0-.03-.02-.02-.02 0-.03 0-.03-.02v-.01c-.05-.1-.1-.23-.15-.42l-.08-.26a7.65 7.65 0 0 1-.3-.98l-.3-.93.87-1.2a.46.46 0 0 0 .14-.07Z" fill="#EE85A2"/><path d="M8.13 6.22a57.76 57.76 0 0 0 .42 1.31 7.65 7.65 0 0 0 .26.86 2.86 2.86 0 0 0 .18.45c.02 0 .02 0 .02.02L9 8.93c0 .02-.01.03-.03.03-.05 0-.08-.01-.1-.05a.1.1 0 0 0-.03-.05L6.75 7.28l.03-1.4c0-.04.01-.06.03-.07.03-.02.06-.02.1 0a14.82 14.82 0 0 0 1.22.4Z" fill="#F1A9C1"/><path d="M13.04 5.93c.02 0 .04.05.06.12l-.09.02c-.02 0-.03.02-.03.04a2.3 2.3 0 0 1-.07.42 65.05 65.05 0 0 0-.32 1.2l-1.34-.45-.01-1.42c0-.05.02-.08.07-.07l1.73.14Z" fill="#E7456E"/><path d="m4.93 5.98.02.03c.04.05.07.1.07.13.11.51.23 1.02.36 1.52.01.04.04.06.1.07l-.08.03a.1.1 0 0 0-.04.04.31.31 0 0 1-.1.09A8.06 8.06 0 0 1 4.1 8.9c-.02.02-.04.01-.05-.02v-.03l.89-2.87Z" fill="#EF92B3"/><path d="m13.1 6.05.88 2.83v.03c-.02.03-.04.03-.06.01l-.48-.4a9.6 9.6 0 0 1-.38-.36c-.14-.14-.3-.26-.48-.36l.01-.06a69.3 69.3 0 0 0 .42-1.67l.09-.02Z" fill="#DB3564"/><path d="m11.25 7.28 1.34.46v.06L11.81 9H9.04l.04-.03a.08.08 0 0 0 .04-.04.14.14 0 0 1 .07-.08 240.55 240.55 0 0 0 2.06-1.57Z" fill="#E13965"/><path d="M12.58 7.8c.18.1.34.22.48.36a9.59 9.59 0 0 0 .86.76c.02.02.04.02.06 0v-.04c.02.07.03.13.01.18-.45.35-.89.71-1.3 1.1-.05.05-.09.05-.12.01L11.82 9l.76-1.2Z" fill="#D0235C"/><path d="m9 9-2.28 1.72-1.23-.45c-.09-.03-.14 0-.15.1-.03.3-.1.6-.2.87a3.27 3.27 0 0 0-.12.66c.02.09.01.16-.02.21a.28.28 0 0 1-.1-.13l-.87-2.86c.1 0 .2.04.3.14l.07.09c.3.27.6.54.94.82.03.04.06.03.1 0l.71-1.09A.17.17 0 0 1 6.31 9H9Z" fill="#EA6081"/><path d="M9 9h2.82l.75 1.17c0 .06-.03.1-.11.13-.38.11-.78.24-1.19.4a1 1 0 0 1-.16-.07.43.43 0 0 1-.14-.11c-.04-.05-.1-.1-.2-.17l-.17-.13a2.32 2.32 0 0 0-.3-.24l-.23-.16a3.32 3.32 0 0 0-.5-.33.86.86 0 0 1-.2-.19.08.08 0 0 0-.06-.02c-.07 0-.1.03-.08.1l-.01.07a.09.09 0 0 0-.02.07l.05.26c.07.3.19.65.35 1.07.12.29.18.63.18 1.03a9.45 9.45 0 0 1-.4.57c-.09.08-.18.22-.28.41a.13.13 0 0 1-.1.07l-.87-1.13L9 9Z" fill="#D50050"/><path d="m9 9-.87 2.8-1.29.4a.29.29 0 0 0-.13 0c.03-.02.04-.05.04-.1.01-.47 0-.93-.03-1.38L9 9Z" fill="#E13965"/><path d="m14 9.06-.89 2.86-.3.08a.1.1 0 0 0-.05.03h-.07c-.18.06-.37.08-.56.07l-.3.03-.24.01a.6.6 0 0 0-.23.06c-.07.03-.13.12-.18.27l-.05.13-.27.6a.99.99 0 0 1-.11.22.65.65 0 0 0-.11.24c-.03.1-.06.2-.1.28-.01.02-.02.03-.04.03l-.17.03-2.76-.02c.04 0 .06-.02.07-.04a.3.3 0 0 1 .1-.13l1.08-.7c.1-.06.15-.12.18-.18.05 0 .08-.02.1-.07.1-.19.2-.33.29-.41a.23.23 0 0 0 .04-.06 9.4 9.4 0 0 0 .34-.5.63.63 0 0 1 .52.07c.04.02.1.04.2.04l.16.03c.23.09.41.1.56.06.02 0 .03-.02.03-.04.04-.22.06-.43.05-.63-.02-.3-.02-.54-.02-.72.41-.16.8-.29 1.19-.4.08-.03.11-.07.11-.13.03.04.07.04.13 0 .4-.4.84-.76 1.3-1.1Z" fill="#B91154"/><path d="M11.27 10.7c0 .18 0 .42.02.72 0 .2 0 .4-.05.63 0 .02-.02.03-.04.04-.14.05-.32.03-.55-.06a.61.61 0 0 0-.16-.03.46.46 0 0 1-.2-.04.63.63 0 0 0-.51-.08c0-.4-.06-.74-.18-1.03a8.2 8.2 0 0 1-.4-1.33c0-.03 0-.05.02-.07a.06.06 0 0 0 .01-.06c-.02-.08 0-.12.08-.11.03 0 .04 0 .06.02a46.2 46.2 0 0 0 .2.19c.18.1.35.2.5.33.05.04.12.1.22.16.14.1.25.18.31.24l.17.13c.1.07.16.12.2.17.04.04.08.08.14.1a1 1 0 0 0 .16.08Z" fill="#C80A54"/><path d="M6.72 10.72c.03.45.04.9.03 1.38 0 .05-.01.08-.04.1a4.94 4.94 0 0 0-.51-.02 3.5 3.5 0 0 1-.51-.04 2.62 2.62 0 0 0-.55-.04.63.63 0 0 0-.12.04c-.02-.01-.03-.02-.02-.03.03-.05.04-.12.02-.2v-.07l.03-.19.1-.4c.1-.29.16-.58.2-.88 0-.1.05-.13.14-.1l1.23.45Z" fill="#E7456E"/><path d="M8.13 11.8 9 12.93c-.03.06-.09.12-.18.19l-1.08.69a.3.3 0 0 0-.1.13c-.01.02-.03.03-.07.04a.23.23 0 0 1-.15 0 1.14 1.14 0 0 0-.1-.39l-.15-.34a10.2 10.2 0 0 0-.4-1c.02-.03.04-.04.07-.04l1.3-.4Z" fill="#D0235C"/><path d="M13.11 11.92a.42.42 0 0 1-.15.24l-2.28 1.74c-.1.08-.22.11-.35.1l.17-.03c.02 0 .03-.01.04-.03l.1-.28a.65.65 0 0 1 .1-.24.98.98 0 0 0 .12-.21 8.51 8.51 0 0 1 .5-1.01.6.6 0 0 1 .23-.06c.06 0 .13 0 .24-.02l.3-.02a1.84 1.84 0 0 0 .59-.07h.04a.1.1 0 0 1 .04-.03l.31-.08Z" fill="#A51A57"/><path d="M6.7 12.2h.14c-.03 0-.05.02-.06.05l.01.06c.14.3.27.62.38.94l.16.34c.05.13.08.25.1.39l-2.41-1.84c.06-.03.1-.04.13-.04.1-.01.28 0 .54.04.15.03.32.04.5.04s.35 0 .52.03Z" fill="#DB3564"/><defs><linearGradient id="asddxsytf" x1="3.35" y1="3.12" x2="21.9" y2="24.43" gradientUnits="userSpaceOnUse"><stop stop-color="#1A1E21"/><stop offset="1" stop-color="#06060A"/></linearGradient></defs></svg>