<!-- by TradingView --><svg width="18" height="18" viewBox="0 0 18 18" xmlns="http://www.w3.org/2000/svg"><path fill="url(#a)" d="M0 0h18v18H0z"/><path d="M3.27 7.72c-.2.54-.1.98.29 1.34l-.07.06-.28-.25c-.3-.52-.28-1.07.1-1.65l.32-.48c.07-.1.1-.17.1-.21.02-.1-.02-.15-.1-.16a.06.06 0 0 0-.06.01l-.04.05c-.06.06-.1.05-.1-.03-.02-.26.37-.29.45-.08.04.11.1.12.18.04l.02-.03a.21.21 0 0 0 .06-.12c.04-.31-.06-.42-.3-.34-.01.01-.03 0-.03-.02V5.8c.22-.11.37-.05.45.16.03.1.04.18.01.26-.02.08 0 .11.09.08.62-.23 1.13-.32 1.9-.5.44-.1.76-.2.96-.28.32-.14.36-.61-.06-.67-.36-.05-.68.04-.95.26a.21.21 0 0 0-.05.29c.01.03.03.03.05 0a.12.12 0 0 1 .08-.05c.03-.01.05 0 .05.04 0 .08-.04.14-.12.18a.1.1 0 0 1-.07.02.1.1 0 0 1-.07-.04c-.1-.13-.16-.24-.15-.33.01-.13-.03-.15-.12-.06-.22.2-.43.42-.74.43-.03 0-.06-.02-.07-.05-.04-.1-.01-.17.07-.23.24-.16.56-.4.86-.4a.03.03 0 0 0 .02-.01.03.03 0 0 0 0-.02v-.04c-.01-.03-.03-.04-.05-.04-.29.01-.5.15-.73.32-.32.23-.68.24-1.08.12-.24-.07-.34-.22-.32-.43.05-.32.25-.34.5-.25a.03.03 0 0 1 .02.02.04.04 0 0 1 0 .03l-.02.04c-.01.04-.03.05-.06.03l-.1-.06a.14.14 0 0 0-.15 0 .15.15 0 0 0-.05.06.15.15 0 0 0-.01.08c.05.58.9.23 1.17.12a.02.02 0 0 0 0-.02c-.28-.18-.36-.4-.25-.68.1-.21.36-.19.5-.13.05.02.08.05.07.1 0 .04-.01.04-.04.03-.13-.07-.3-.1-.37.05a.23.23 0 0 0 .02.24c.13.18.31.2.52.15.58-.14 2-.34 2.18.51.09.45-.39.65-.74.73l-2.06.49c-.27.06-.56.18-.86.35-.41.22-.67.56-.77 1.03Z" fill="#D8D0CE"/><path d="M11.05 4.9a.94.94 0 0 1-.25.2.2.2 0 0 0-.07.08.2.2 0 0 0-.02.1c0 .11-.03.21-.12.3-.01.02-.03.02-.04.02-.03 0-.04-.02-.04-.05v-.07c-.03-.05-.06-.07-.1-.08-.04 0-.06 0-.07.04-.02.04 0 .08.03.12 0 .06-.04.08-.12.07a.07.07 0 0 1-.05-.02.08.08 0 0 1-.01-.06v-.08l-.01-.02a.04.04 0 0 0-.04-.01.46.46 0 0 1-.29-.04l.7-.45a.7.7 0 0 0 .28-.37v-.1a.24.24 0 0 0-.08-.07c-.03-.03-.05-.02-.06.02l-.02.08c-.03-.06-.04-.11-.03-.16.01-.04.04-.05.07-.03l.31.19a.1.1 0 0 1 .05.07c.01.08 0 .19-.02.32Z" fill="#767677"/><path d="m10.67 4.5.02-.07c0-.04.03-.05.06-.02.03.02.06.04.07.07.02.03.02.06 0 .1a.7.7 0 0 1-.27.37l-.7.45c.07.04.06.09-.03.14l-.11.02a.3.3 0 0 1 0-.31.1.1 0 0 1 .07-.05.45.45 0 0 0 .3-.17.1.1 0 0 0 .02-.08c-.03-.2 0-.37.07-.53.03-.06.04-.05.05.01l.03.34.02.05a.1.1 0 0 0 .04.04.1.1 0 0 0 .1-.02c.12-.1.21-.21.26-.33Z" fill="#D8D0CE"/><path d="M11.84 5.7c-.22.03-.45-.04-.7-.21a.1.1 0 0 0-.1-.01.66.66 0 0 0-.31.28.1.1 0 0 0 0 .08c0 .04.03.07.08.11.02.02.02.04-.01.04l-.14.04c-.03 0-.04.03-.03.06.01.04.04.07.07.1.13.13.34.36.14.48a.05.05 0 0 1-.06 0 .06.06 0 0 1-.02-.05c.03-.2-.04-.32-.22-.36-.03 0-.04-.02-.05-.05-.02-.09 0-.16.05-.2.03-.03.03-.06.02-.09-.04-.09-.14-.12-.28-.1a.06.06 0 0 1-.05-.01l-.32-.24a.1.1 0 0 0-.04-.02h-.05c.09-.06.1-.1.03-.15.1.05.2.06.29.04a.04.04 0 0 1 .04.01.05.05 0 0 1 .01.04v.06a.08.08 0 0 0 .01.06.08.08 0 0 0 .05.03c.08 0 .12-.02.12-.08.1.01.14-.02.14-.08v.07c0 .03.01.04.04.05l.04-.02a.39.39 0 0 0 .12-.3c0-.04 0-.07.02-.1a.2.2 0 0 1 .07-.08c.12-.07.2-.14.25-.2.24-.05.4-.17.49-.36.02-.04.04-.04.05 0 .04.18-.11.5-.15.63v.09c.07.14.2.29.4.44Z" fill="#BCBCBC"/><path d="M10.5 5.48c.01.06-.03.09-.13.08-.03-.04-.05-.08-.03-.12 0-.03.03-.05.08-.04.03 0 .06.03.09.08Z" fill="#D8D0CE"/><path d="m11.84 5.7.16.34v.09a.26.26 0 0 0-.01.09c-.04 0-.07-.02-.09-.04a.59.59 0 0 0-.54-.27.05.05 0 0 0-.03.02.05.05 0 0 0 0 .04c.1.27.3.4.6.4.02 0 .04 0 .05-.03l.02-.09c.07.07.1.18.1.33a.85.85 0 0 1-.32-.11.1.1 0 0 0-.11.01.1.1 0 0 0-.04.1c.02.18 0 .38-.06.6v.03l.02.02.03.01h.03l.04-.15.03-.03a.08.08 0 0 1 .08-.01s.02 0 .03.02l.13.19a.15.15 0 0 1 .03.12.15.15 0 0 1-.07.1c-.13.07-.2.13-.2.19-.03.2.01.21.12.04l.06-.1c.01-.04.04-.06.07-.06h.1a.07.07 0 0 0 .05-.03.07.07 0 0 0 0-.06 2.1 2.1 0 0 0-.28-.62.12.12 0 0 1-.02-.07.1.1 0 0 1 .03-.07l.04-.02c.03 0 .06 0 .07.03l.14.24c.01.04.03.04.05 0l.06-.1.02.05c0 .03.03.05.06.05l1.22.16-.41.07c-.03 0-.04.02-.04.04v.04l.01.02.03.02a7.68 7.68 0 0 0 .47-.04c.23-.04.41.03.56.23.02.02.02.05 0 .07a.43.43 0 0 1-.23.17c-.26.08-.54.07-.81.17-.02 0-.02.01-.01.03l.01.03.03.01a.77.77 0 0 1 .44-.03l-.98.98-.28.19c-.18.11-.26.3-.25.56a.11.11 0 0 1-.02-.05c.03-.19-.03-.3-.18-.32-.03 0-.04-.02-.02-.06.02-.04.07-.05.14-.05.02 0 .04 0 .06-.03.04-.09 0-.18-.13-.27a.04.04 0 0 1-.01-.03.04.04 0 0 1 0-.03c.13-.13.15-.29.07-.48a.05.05 0 0 0-.02-.02h-.06l-.02.07c-.01.33-.11.62-.3.89a.08.08 0 0 1-.05.03h-.04a.05.05 0 0 1-.03-.03.06.06 0 0 1 0-.04l.13-.4c.01-.03.03-.04.05-.05.05-.02.07-.05.07-.1l-.01-.37c0-.03.01-.05.04-.07.09-.07.2-.11.32-.14a.1.1 0 0 0 .07-.08V8c-.03-.07-.07-.09-.12-.07-.23.07-.34.1-.43.28-.06.1-.02.26-.01.38l-.03.09-.75.92a.46.46 0 0 0-.1.31c-.03.23-.11.54-.34.62-.04.02-.06 0-.05-.04a.47.47 0 0 1 .15-.19.1.1 0 0 0 .04-.08v-.65c0-.04.01-.06.04-.08.3-.15.54-.26.7-.55.05-.08.03-.1-.06-.06-.22.1-.39.25-.51.41-.02.03-.04.03-.07.02a.06.06 0 0 1-.02-.04V9.2a.38.38 0 0 0 .03-.17c0-.03-.02-.04-.05-.03l-.13.03c-.04 0-.07 0-.06-.06v-.14c0-.05.03-.07.07-.06.11.02.23-.02.36-.12a.22.22 0 0 0 .08-.21.38.38 0 0 1 .16-.38v-.01l.01-.02v-.01L11 8 10.97 8a.06.06 0 0 0-.07 0c-.1.08-.2.13-.32.17h-.04a.07.07 0 0 1-.03-.02.08.08 0 0 1-.01-.1l.02-.02a.99.99 0 0 0 .14-.1c.07-.09.05-.11-.06-.1l-.12.03c-.02.01-.04 0-.05-.02a.1.1 0 0 1-.02-.04c0-.02 0-.04.02-.06a1 1 0 0 0 .29-.6c0-.04.02-.05.05-.04l.02.01c.02 0 .03.02.02.03l-.1.44v.03l.02.03h.03l.04-.03c.06-.08.1-.16.12-.24.02-.04.04-.06.08-.04h.02c.03.02.04.04.04.07a.97.97 0 0 1-.25.44.03.03 0 0 0 .01.04l.03.01c.02.02.04.02.06 0l.17-.19a.05.05 0 0 1 .06-.01h.02c.02.02.03.04.02.07l-.04.23a.04.04 0 0 0 .02.04h.03c.02 0 .03 0 .04-.02.07-.21.11-.44.11-.67 0-.04.01-.07.03-.1l.08-.13c.07-.14.04-.16-.09-.08l-.18.13a.05.05 0 0 1-.08-.03V7.1a.68.68 0 0 1 .07-.2.1.1 0 0 0 .02-.08l-.05-.22a.12.12 0 0 1 .05-.13l.1-.06c.03-.02.04-.04.04-.07a.58.58 0 0 0-.14-.3c-.02-.02-.05-.03-.08-.02a.73.73 0 0 1-.34.04c-.03 0-.05 0-.06.04v.1a.18.18 0 0 1-.08-.1c-.01-.03 0-.06.03-.06l.14-.04c.03 0 .03-.02 0-.04a.32.32 0 0 1-.08-.11.1.1 0 0 1 0-.08.66.66 0 0 1 .33-.28.1.1 0 0 1 .1 0c.24.18.47.25.69.22Z" fill="#828282"/><path d="m9.82 5.54.05.01a.1.1 0 0 1 .04.02l.32.24a.07.07 0 0 0 .05 0c.14-.01.24.02.28.11.01.03 0 .06-.02.08-.05.05-.07.12-.05.2 0 .04.03.06.06.06.17.04.24.16.2.36l.01.03.02.02a.05.05 0 0 0 .06 0c.2-.12 0-.35-.14-.49l.02-.1c0-.02.02-.04.05-.03.12.01.24 0 .34-.04.03 0 .06 0 .08.03.08.1.13.19.14.29 0 .03 0 .05-.03.07l-.11.06a.12.12 0 0 0-.05.06.12.12 0 0 0 0 .07l.05.22a.1.1 0 0 1-.01.08.68.68 0 0 0-.08.2v.03l.02.03a.05.05 0 0 0 .06 0l.18-.13c.13-.08.16-.06.1.08a.95.95 0 0 1-.09.14.16.16 0 0 0-.03.08c0 .24-.03.47-.11.68l-.04.03-.03-.01a.04.04 0 0 1-.02-.04l.04-.23c0-.03 0-.05-.02-.06l-.02-.02c-.02 0-.04 0-.06.02l-.17.19c-.02.02-.04.02-.06 0l-.03-.01a.03.03 0 0 1-.01-.04v-.01c.12-.13.2-.27.25-.43 0-.03 0-.05-.04-.06L11 7.32c-.04-.02-.06 0-.08.04a.77.77 0 0 1-.12.24l-.04.03h-.03l-.02-.03v-.03l.1-.44c0-.01 0-.02-.02-.03h-.02c-.03-.02-.05 0-.05.02a1 1 0 0 1-.29.6.07.07 0 0 0-.02.07l.02.04c.01.02.03.03.05.02l.12-.02c.1-.02.13 0 .06.09a.99.99 0 0 1-.14.1l-.02.02c-.02.04-.02.07 0 .1l.04.02h.04c.12-.04.22-.1.32-.17a.06.06 0 0 1 .07 0l.04.01a.03.03 0 0 1 .01.03.03.03 0 0 1-.01.03.38.38 0 0 0-.16.38.22.22 0 0 1-.08.21c-.13.1-.25.14-.36.12-.04 0-.06.01-.07.06v.14c0 .05.02.07.06.06l.13-.03c.03-.01.05 0 .05.03.01.04 0 .1-.03.17v.07l.02.04c.03.01.05 0 .07-.02.12-.16.3-.3.51-.41.1-.05.11-.02.06.06-.16.3-.4.4-.7.55a.08.08 0 0 0-.04.08v.65a.1.1 0 0 1-.04.08.47.47 0 0 0-.15.2c0 .04 0 .05.05.03.23-.08.31-.39.35-.62.01-.03.04-.05.06-.05.02 0 .04.01.05.04l.03.07a.1.1 0 0 0 .06.06c.1.04.2.02.25-.06a.18.18 0 0 1 .08-.05l.3-.12h.09c.08 0 .13-.08.14-.25l.01-.03.03-.02h.03l.03.03c.05.08.1.1.19.09 0 .01 0 .03.02.05-.11.07-.13.14-.06.22.12.14.23.2.32.21.44.02.9-.05 1.37-.2a1 1 0 0 0 .3-.16c.18-.13.4-.17.6-.31a.07.07 0 0 1 .08 0l.04.05v.06l-.02.04a.95.95 0 0 0-.25.23.1.1 0 0 0 .06.16c.23.07.52.2.5.48a1.54 1.54 0 0 0-.28-.17c-.16-.06-.28.08-.24.24-.1-.07-.2-.01-.27.17l-.35-.2a.17.17 0 0 0-.2.02l-.32.25v-.05l-.03-.03c-.03 0-.07 0-.11.02a.29.29 0 0 0 .05-.16c0-.03-.02-.06-.05-.06a.66.66 0 0 0-.36-.03c-.25.07-.5.13-.75.17a.76.76 0 0 1-.67-.05.06.06 0 0 0-.05 0l-.02.01-.02.03c-.11.36-.2.75-.2 1.18l-.03.71c-.01.18.02.36.11.53-.07.06-.15.06-.23-.01a.1.1 0 0 1-.03-.08c0-.03 0-.06-.02-.09a43.5 43.5 0 0 0-.05-1.06c-.01-.28-.1-.66-.06-1.01.01-.17-.04-.2-.15-.08-.07.07-.1.2-.08.39-.04-.21-.15-.33-.32-.34a1.45 1.45 0 0 1-1.18-.64.86.86 0 0 0-.15-.19c-.47-.4-1.03-.7-1.54-1.02a.96.96 0 0 0-.45-.1c-.07 0-.09.03-.07.1l.01.02c.04.05.08.08.1.08.37.06.6.21.72.48l.26.63c.05.1.12.15.22.14.03 0 .04-.02.04-.05 0-.1.02-.15.04-.16.03-.01.06 0 .08.02.1.13.11.27.03.4-.12.2-.36.16-.46.37-.08.16-.04.3.13.42.12.1.28.22.48.4.19.15.38.17.6.05-.04.08-.02.2-.06.25-.05.05-.14.06-.28.01-.07-.02-.1 0-.1.08v.04c0 .03.01.07.03.1l.1.05c.1.01.2 0 .28-.02a.1.1 0 0 0 .07-.06l.13-.32c.02.11.07.18.16.19a.24.24 0 0 0-.06.02.05.05 0 0 0-.02.04c0 .04 0 .08.04.13-.23.04-.37.1-.42.19-.14.01-.21.09-.22.2-.06-.26-.36-.34-.58-.37-.16-.02-.18.06-.24.2-.01.03-.03.04-.06.03a.07.07 0 0 1-.04-.04.22.22 0 0 1-.01-.14c.03-.1.16-.22.14-.37a.4.4 0 0 0-.22-.3l-.5-.3c-.13-.07-.18-.15-.18-.31.02-.5-.14-.88-.48-1.16-.12-.1-.16-.07-.13.1.05.3-.07.56-.08.86 0 .04.02.07.06.1l.1.05.02.04a.07.07 0 0 1-.01.07.06.06 0 0 1-.04.02.31.31 0 0 1-.25-.1c-.03-.03-.07-.03-.12 0-.2.1-.45.17-.76.19a1 1 0 0 0-.56.22c-.28.22-.18.82-.04 1.09.02.05.08.06.18.04-.06.1-.08.16-.06.2.05.16.02.19-.1.1-.24-.2-.37-.5-.36-.89 0-.73.5-1.03 1.1-1.25.31-.1.46-.41.47-.76 0-.24-.04-.55.04-.78.18-.5.74-.63 1.2-.65.05 0 .07-.02.06-.06a.07.07 0 0 0-.04-.07 2.22 2.22 0 0 0-1.47-.07c.59-.3 1.18-.2 1.77.06.44.08.12-.19-.17-.41-.04-.03-.04-.04 0-.05l.46-.09c.09-.08.15-.12.19-.12.15 0 .17.04.05.15l-.1.1c-.03.03-.02.04.02.05.04 0 .08-.02.12-.06.14-.03.28 0 .4.1a.09.09 0 0 0 .1 0A.1.1 0 0 0 8.67 8a.1.1 0 0 0 .02-.04.75.75 0 0 0 .03-.23c-.01-.05 0-.11.03-.16.03-.06.08-.1.14-.14l.42-.23h.03l.2.03c.03 0 .04-.01.04-.04l-.02-.06a.04.04 0 0 0-.03-.03c-.22-.08-.43-.16-.28-.47.21.05.38.16.52.33.03.04.07.07.12.08.04.02.1.02.14 0l.5-.12c.03 0 .04-.02.04-.05v-.36a.08.08 0 0 0-.04-.07l-.32-.17c.06-.05.1-.11.14-.18a.09.09 0 0 0 0-.1l-.03-.02-.64-.35c.01-.02.02-.03.01-.06l.12-.02Z" fill="#696969"/><path d="m9.7 5.62.63.35a.09.09 0 0 1 .04.05.1.1 0 0 1 0 .07.65.65 0 0 1-.15.18l-.37.16c-.03 0-.04 0-.04-.03.02-.13.05-.2.09-.24.14-.13.11-.17-.06-.11-.15.04-.25.17-.3.37 0 .03-.02.04-.05.01a.58.58 0 0 1-.14-.56c0-.03.02-.05.05-.07l.3-.18Z" fill="#D8D0CE"/><path d="M12 6.22v.03l-.02.09c-.01.03-.03.04-.06.04a.6.6 0 0 1-.6-.4.05.05 0 0 1 0-.05.05.05 0 0 1 .04-.02c.23-.01.4.08.54.27.02.02.05.04.1.04Z" fill="#BCBCBC"/><path d="M9.26 6.63c-.15.3.06.39.29.47.01 0 .02.01.02.03l.02.06c0 .03 0 .04-.03.04l-.21-.03h-.03l-.42.23a.36.36 0 0 0-.14.14.26.26 0 0 0-.03.16c0 .04 0 .12-.03.23a.1.1 0 0 1-.02.04.09.09 0 0 1-.12.01.46.46 0 0 0-.4-.09c.03-.06.1-.08.2-.06a.02.02 0 0 0 .02-.01v-.13c0-.04-.02-.07-.06-.08a1.62 1.62 0 0 0-.69-.04c-.11.02-.12.05-.01.1.06.04.15.07.25.1l-.45.09c-.05 0-.05.02 0 .05 4.12 2.48 1.74 1.1.16.41C6.98 8.1 6.4 8 5.8 8.3c-.51.53-.5 1.04-.61 1.68-.04.23-.2.41-.45.53a3.47 3.47 0 0 0 .14-1.27.08.08 0 0 0-.02-.03.07.07 0 0 0-.07 0c-.46.16-.9.13-1.3-.08l.06-.06c-.4-.36-.5-.8-.3-1.34v.66a.11.11 0 0 0 .03.08c.28.27.6.4.97.39.2 0 .43-.11.61-.17.38-.13.57-.56.93-.72.24-.11.6-.16.8-.2l.02-.01.02-.03a.05.05 0 0 0-.02-.05.56.56 0 0 0-.37-.12c-.44 0-.88-.03-1.31-.09.11 0 .2-.04.28-.12a.11.11 0 0 1 .09-.03h.46c.03 0 .07-.02.09-.05.1-.13.19-.2.25-.2.16 0 .27 0 .42-.06a.67.67 0 0 1 .44-.03c.18.04.3.07.35.06.12-.01.24-.04.34-.1.14-.05.27-.04.41-.08.11-.03.12-.07.02-.12a.53.53 0 0 0-.22-.02c-.1 0-.18.1-.28.13h-.03l-.4-.05a.2.2 0 0 1-.1-.03.4.4 0 0 0-.07-.03c-.02-.01-.06 0-.12.03-.22.12-.47.17-.77.15a.75.75 0 0 0-.26.05.06.06 0 0 0-.04.06l-.01.09a.03.03 0 0 1-.01.02.03.03 0 0 1-.03 0h-.1a.04.04 0 0 1-.04-.04c0-.02 0-.07.02-.13.01-.03 0-.05-.03-.07a1.5 1.5 0 0 0-.56-.1l.42-.11c.37-.1.76-.08 1.1-.14.53-.1 1.18-.07 1.6-.06.45 0 .82.06 1.1.15Z" fill="#767677"/><path d="M12.1 6.58c.12.04.16.13.11.27l-.06.1c-.02.04-.04.04-.05 0l-.14-.24c-.01-.03-.04-.04-.07-.03a.09.09 0 0 0-.04.02.1.1 0 0 0-.03.07c0 .02 0 .05.02.07a2.1 2.1 0 0 1 .29.65l-.01.03a.07.07 0 0 1-.06.03h-.09c-.03 0-.06.02-.07.05l-.06.11c-.1.17-.15.16-.12-.04 0-.06.07-.12.2-.19a.15.15 0 0 0 .05-.22l-.14-.19a.08.08 0 0 0-.03-.02.08.08 0 0 0-.08 0 .08.08 0 0 0-.03.04l-.04.14c0 .01-.02.02-.03.01l-.03-.01-.02-.02v-.03c.06-.22.08-.42.06-.6v-.05a.1.1 0 0 1 .04-.05.1.1 0 0 1 .1-.01c.14.07.24.1.33.1ZM4.94 7.46c-.4-.05-.8-.13-1.2-.25-.05-.01-.07-.04-.07-.09l.01-.04.04-.03a.37.37 0 0 1 .2.02h.09c.32-.15.66-.24 1.03-.28.18 0 .37.03.56.1.03.02.04.04.03.07-.02.06-.03.1-.02.13 0 .02.02.03.04.03l.1.02a.03.03 0 0 0 .03-.01.03.03 0 0 0 0-.02L5.8 7c0-.02.02-.04.04-.05.12-.04.2-.05.26-.05.3.02.56-.03.77-.15.06-.03.1-.04.12-.03a.4.4 0 0 1 .08.03.2.2 0 0 0 .08.03l.41.06h.03c.1-.04.19-.14.28-.14.12 0 .19 0 .22.02.1.05.1.1-.02.12-.14.04-.27.03-.4.09-.11.05-.23.08-.35.09-.06 0-.17-.02-.35-.06a.67.67 0 0 0-.44.03c-.15.06-.26.06-.42.06-.06 0-.14.07-.25.2a.11.11 0 0 1-.1.05h-.45a.11.11 0 0 0-.08.03.39.39 0 0 1-.3.12ZM13.51 7.1l.37.08c.17.03.27.16.32.36.02.12 0 .2-.06.25-.1.08-.3.13-.58.15a.77.77 0 0 0-.44.03l-.03-.01-.01-.03V7.9c.28-.1.56-.1.82-.17.09-.03.17-.08.23-.17a.06.06 0 0 0 0-.07c-.15-.2-.33-.27-.56-.23l-.23.03h-.27v-.07c0-.02 0-.04.03-.04l.41-.07Z" fill="#BCBCBC"/><path d="M8.15 7.92c-.04.04-.08.06-.12.06-.04 0-.05-.02-.01-.05l.1-.1c.11-.1.1-.16-.06-.15-.04 0-.1.04-.19.12-.1-.03-.19-.06-.25-.1-.1-.05-.1-.08.01-.1.2-.04.43-.02.69.04.04.01.06.04.06.08v.13a.02.02 0 0 1-.01.01.02.02 0 0 1-.02 0c-.09-.02-.16 0-.2.06Z" fill="#828282"/><path d="M12.03 9.62c-.08.01-.14-.01-.19-.1a.06.06 0 0 0-.03-.01.05.05 0 0 0-.06.01l-.01.04c-.01.16-.06.24-.14.23l-.08.01-.31.12a.18.18 0 0 0-.08.05c-.06.08-.14.1-.25.06a.1.1 0 0 1-.06-.06.76.76 0 0 0-.03-.07c-.02-.03-.03-.04-.05-.04-.03 0-.05.02-.06.05 0-.12.03-.22.1-.3l.74-.93a.13.13 0 0 0 .03-.09c0-.12-.05-.27 0-.38.1-.18.2-.2.44-.28.05-.02.1 0 .12.07v.04a.1.1 0 0 1-.07.08.87.87 0 0 0-.32.14.08.08 0 0 0-.04.07l.01.36c0 .06-.02.1-.07.1a.08.08 0 0 0-.05.06l-.14.4a.06.06 0 0 0 .02.06h.02l.04.01.06-.03c.18-.27.28-.56.29-.89 0-.03 0-.05.02-.06l.02-.02h.04l.02.03c.08.2.06.35-.06.48a.04.04 0 0 0-.01.03.04.04 0 0 0 .01.03c.13.09.17.18.13.27a.06.06 0 0 1-.06.03c-.07 0-.12.01-.14.05-.02.04-.01.06.02.06.15.03.21.13.18.32Z" fill="#D8D0CE"/><path d="M4.97 12.52c.24-.2.43-.13.7-.1.07 0 .1.04.12.1l.01.06c.01.04 0 .06-.04.05-.1 0-.22-.04-.34-.1-.1-.04-.15-.02-.17.08-.01.05 0 .07.05.07.03 0 .06 0 .1.03.03.02.04.04.04.07 0 .04-.03.07-.1.1a.07.07 0 0 0-.04.05l-.02.16c0 .03-.02.05-.06.06-.14.02-.2.1-.18.27l-.15-.01c-.03 0-.05.01-.06.05a.3.3 0 0 0 0 .1 8.7 8.7 0 0 0-.35-.7c-.2-.36-.4-.05-.63-.25-.06-.05-.05-.08.03-.09l.3-.02c.03 0 .05-.03.05-.07v-.96c0-.03 0-.07-.02-.1-.33-.5.2-.7.54-.87.26-.12.4-.3.45-.53.11-.64.1-1.15.6-1.68.51-.14 1-.12 1.48.07.03.01.04.03.04.07 0 .04-.01.06-.05.06-.47.02-1.03.16-1.2.65-.09.23-.05.54-.05.78 0 .35-.16.65-.48.76-.6.22-1.09.52-1.1 1.25 0 .4.13.69.37.89.12.09.15.06.1-.1-.02-.04 0-.1.06-.2ZM14.47 10.52c.06.11.1.2.12.28.02.08 0 .1-.08.06l-.3-.17c.07-.18.16-.24.26-.17ZM11.2 13.03l.92-.22c.05 0 .08.01.09.07v.03c.01.02 0 .03-.02.04-.17.04-.35.07-.51.08a.15.15 0 0 0-.1.03.31.31 0 0 0-.04.05c-.02.02-.01.05.02.06.08.03.16.04.23.03.03 0 .06 0 .08.03.05.05.12.1.21.14.03.01.06.04.08.07l.04.1c0 .11-.04.13-.12.06l-.23-.23a.09.09 0 0 0-.03-.02h-.05l-.46.11-.03.02-.01.02c-.02.07 0 .1.08.13-.06 0-.08.03-.08.07l-.38-.58a.23.23 0 0 1-.03-.08l-.02-.08c0-.04-.03-.05-.06-.04-.2.07-.41.08-.64.03-.04 0-.05-.03-.03-.06l.02-.03a.06.06 0 0 1 .06-.03l.25.03c.05 0 .1 0 .15-.04a.24.24 0 0 0 .1-.13 3.84 3.84 0 0 0-.11-1.6c-.02-.19.01-.32.08-.39.11-.11.16-.09.15.08-.03.35.05.73.06 1.01a43.48 43.48 0 0 1 .05 1.06l.02.09c0 .03.01.06.03.08.08.07.16.07.23 0ZM13.19 10.7c.04-.01.08-.02.11-.01.02 0 .03 0 .03.02v.05l-.2.19a.04.04 0 0 1-.06-.01v-.02c0-.1.03-.17.12-.22ZM9.29 11.83l-.13.32a.1.1 0 0 1-.07.06.64.64 0 0 1-.29.02.14.14 0 0 1-.09-.06.15.15 0 0 1-.03-.1v-.03c0-.07.03-.1.1-.08.14.05.23.04.28 0 .04-.06.02-.18.06-.26a.78.78 0 0 1 .52-.01v.02l-.01.01a.33.33 0 0 0-.34.11ZM9.45 12.02c.15.07.23.17.23.3 0 .14-.05.16-.12.04a.57.57 0 0 0-.15-.15c-.03-.05-.05-.09-.04-.13 0-.02 0-.03.03-.04l.05-.02ZM9 12.4c-.09.34-.16.41-.23.2 0-.11.08-.19.22-.2Z" fill="#BCBCBC"/><path d="M5.04 13.42c0 .13-.05.42-.2.46-.03 0-.04-.01-.04-.04l.03-.27a.3.3 0 0 1 0-.11c.01-.04.03-.05.06-.05h.15ZM11.35 13.63c.11.04.17.14.17.3l-.01.03a.07.07 0 0 1-.07.04c-.02 0-.03 0-.04-.02a.37.37 0 0 1-.13-.28c0-.04.02-.07.08-.07Z" fill="#D8D0CE"/><path d="M5.7 13.37c-.1-.15-.27-.23-.24-.41 0-.04.03-.05.06-.03.14.09.23.19.27.31a.1.1 0 0 1 0 .08l-.03.05c-.02.04-.05.04-.07 0Z" fill="#BCBCBC"/><defs><linearGradient id="a" x1="9" y1="0" x2="9" y2="18" gradientUnits="userSpaceOnUse"><stop stop-color="#1D4B75"/><stop offset="1" stop-color="#193D5C"/></linearGradient></defs></svg>