<!-- by TradingView --><svg width="18" height="18" viewBox="0 0 18 18" xmlns="http://www.w3.org/2000/svg"><path fill="#10379E" d="M0 0h18v18H0z"/><path d="M6.1 7.84c-.2.96.2 1.83.43 2.15.44-1.5 2.45-3.66 3.21-3.66.6 0 1.2.12 1.4.17-.7-.83-2.28-2.5-2.97-2.5-.88 0-1.82 2.64-2.07 3.84Zm5.67-.52a2.65 2.65 0 0 0-2-.69c1.02 1.14 1.82 4.04 1.44 4.73-.3.55-.7 1.01-.85 1.18 1.04-.22 3.22-.81 3.57-1.44.44-.79-1.28-2.95-2.16-3.78Zm-.87 3.73a2.77 2.77 0 0 1-1.57 1.47c-1.13.37-3.79.84-4.22.05-.35-.63.24-2.89.59-3.94.06.22.25.8.55 1.36.38.68 3.2 1.41 4.65 1.06Z" fill="#fff"/></svg>