<!-- by TradingView --><svg width="18" height="18" viewBox="0 0 18 18" xmlns="http://www.w3.org/2000/svg"><path fill="#F0F3FA" d="M0 0h18v18H0z"/><path fill="#5FBFF1" d="M7.63 7.62H12v4.37H7.63z"/><path d="M7 7h4.41l.59.62H7.62L7 7Z" fill="#00A9EA"/><path d="M7.63 12V7.62L7 7v4.4l.63.6Z" fill="#32B3ED"/><path d="M11.99 11.53V9.88l-.48-.03c-.1 0-.28-.05-.32-.11-.03-.06-.08-.07-.16-.1l-.09-.02c-.13-.04-.35-.14-.35-.22 0-.07.08-.14.18-.14.06 0 .22.07.37.14l.28.12c.16.06.16-.1.16-.15 0-.03-.04-.03-.12-.02l-.16.02c-.2 0-.22-.13-.22-.17 0-.02.02-.04.06-.06l.05-.05c.07-.06.13-.62.1-.64h-.05c-.05 0-.13 0-.21-.03-.1-.04.1-.12.22-.18l.1-.04c.02-.02-.27-.11-.32-.11a.3.3 0 0 0-.07.01c-.05.01-.1.03-.1-.01V7.9c-.02-.03-.16-.1-.26-.15a1 1 0 0 1-.1-.05c-.02-.02.01-.09.09-.1.08-.02.31.15.35.19.04.02.14 0 .2 0h.05c.04 0 .1 0-.2-.27-.3-.27-.8-.27-.82-.24l.17.33.08.14c.01.04-.03.23-.14.23-.1 0-.13-.13-.14-.2 0 .05 0 .15-.04.2-.02.04-.25-.2-.36-.32-.12.1-.35.3-.25.36.15.02.28.19.33.27-.03.03-.09.11-.08.18 0 .07.08.13.11.15v.3c0 .12.2.32.29.4.06.1.2.27.2.3 0 .03.14.16.25.2.05.01.13 0 .22-.02.12-.02.24-.04.27.02.04.07.22.1.3.1v.18c-.02.03-.06.12-.06.3 0 .17.2.4.3.48V12l.37-.47ZM7.62 7.75c-.04 0-.2-.28-.21-.33-.08.14-.24.49-.27.72-.02.18 0 .27.01.34l.02.15c0 .13-.11.12-.17.09v.83l.06.03.05-.23c.02.08.06.25.06.33 0 .08-.11.03-.17 0v.76c.02 0 .06.04.06.1v.91l.11.1v-.8l.06-.78c.02-.1.12-.1.2-.1l.05-.02c.02 0 .01-.05 0-.1v-.23c.03-.15.04-.38.04-.4l.1-.1c.06-.05.12-.1.12-.13l.07-.35-.07-.18-.06.39c0 .1-.1.13-.16.14-.04 0 0-.14.03-.25a.7.7 0 0 0 .03-.1V8.2c0-.03.04-.22.16-.22.1 0 .23.23.29.34l.02.04c.03.06.07-.02.1-.06 0-.04-.12-.23-.19-.32l.09-.05v-.08l.14-.13-.57.03Zm.62 3.97c.06-.03.24-.12.22-.35a1.2 1.2 0 0 0-.23-.53c-.01.06-.04.19-.1.15a.57.57 0 0 1-.12-.16c-.04-.06-.08-.12-.1-.1-.03.02-.25.2-.29.26a.64.64 0 0 0-.06.29c.02.03.05.19.06.27.08-.06.24-.17.3-.12l.08.1c.06.09.14.2.23.2h.01Z" fill="#008F4A"/><path fill-rule="evenodd" d="M3.04 6.4c-.3.84 1.14 2.09 3.03 3.21-1.17 1.96-1.94 3.67-1.3 4.22.73.63 2.67-.51 4.56-2.6 3.3 1.1 6.2 1.12 6.62-.02.37-1-1.31-2.6-3.94-3.87.74-1.52.95-2.75.42-3.2-.65-.56-2.23.68-3.9 2.32C5.72 5.7 3.41 5.4 3.04 6.4ZM7 8.19c-.28.38-.5.75-.73 1.12-1.75-1-3.12-2.07-2.86-2.76.3-.81 2.31-.44 4.83.23L8 7h.45l.12-.13.45.13h1.2c-.45-.17-.9-.31-1.34-.44 1.47-1.45 2.81-2.6 3.33-2.15.43.36.21 1.43-.46 2.77l-.2.37a17.9 17.9 0 0 1-2.3 3.25l-.49-.18c-.94-.35-1.47-.75-2.22-1.16.15-.23.27-.47.44-.71v-.57Zm-1.95 5.3c.6.51 2.24-.52 3.94-2.37l-.3-.1c-.98-.37-1.54-.8-2.33-1.23-1.06 1.76-1.83 3.26-1.31 3.7Zm10.45-2.44c-.34.93-2.89.85-5.88-.13a19.07 19.07 0 0 0 2.23-3.22c2.4 1.15 3.96 2.52 3.65 3.35Z" fill="#FDA700"/></svg>