<!-- by TradingView --><svg width="18" height="18" viewBox="0 0 18 18" xmlns="http://www.w3.org/2000/svg"><path fill="#F0F3FA" d="M0 0h18v18H0z"/><path d="M10 8.87V4.7a.7.7 0 0 0-.68-.7c-.38 0-.82.32-.82.7v4.17L9.32 10 10 8.87Z" fill="#30C462"/><path d="m10.94 9.22 2.4-4.26c.17-.3.07-.7-.23-.87a.61.61 0 0 0-.85.23l-2.4 4.26v1.28l1.08-.64Z" fill="#D2E623"/><path d="m11.58 10.55 2.1-1.53c.3-.22.4-.7.24-1.07-.18-.38-.56-.51-.86-.3l-2.1 1.54-.63 1.36h1.25Z" fill="#FFDB00"/><path d="M13.47 10.55h-2.55l-.92.73.92.72h2.55c.3 0 .53-.32.53-.72 0-.4-.24-.73-.53-.73Z" fill="#F59B00"/><path d="m10.8 13.04 1.38.88a.5.5 0 0 0 .27.08c.2 0 .38-.1.48-.3.05-.1.08-.22.07-.33 0-.2-.1-.38-.27-.49L11.34 12h-1.09l.55 1.04Z" fill="#E80F17"/><path d="M6.76 10.55H4.53c-.3 0-.53.33-.53.73 0 .4.24.72.53.72h2.23l.9-.72-.9-.73Z" fill="#009BD7"/><path d="M7.3 9.38 3.83 7.09c-.27-.19-.6-.07-.76.25-.15.32-.06.74.2.93l3.48 2.28h1.1L7.3 9.38Z" fill="#232396"/><path d="M8.5 8.5 7.44 6.38a.7.7 0 0 0-.98-.27.76.76 0 0 0-.27 1.02l1.1 2.22L8.5 10V8.5Z" fill="#8C50A0"/></svg>