<!-- by TradingView --><svg width="18" height="18" viewBox="0 0 18 18" xmlns="http://www.w3.org/2000/svg"><path fill="#F0F3FA" d="M0 0h18v18H0z"/><path d="M2.1 8.27c.67-.7 1.38-1.3 2.12-1.81A9.01 9.01 0 0 1 6.2 5.45a7.25 7.25 0 0 1 4.08-.28c1.86.4 3.76 1.53 5.7 3.37.02.01.02.03.02.05a8.06 8.06 0 0 1-.67.2c-.23.04-.43.05-.59.02a2.18 2.18 0 0 1-1.13-.64 8.69 8.69 0 0 0-1.73-1.3 7.04 7.04 0 0 0-4.41-.94c-.69.08-1.39.26-2.09.53-.98.38-1.9.88-2.76 1.49a7.93 7.93 0 0 1-.52.32ZM2 9.43c0-.02 0-.03.02-.03.31-.12.63-.19.94-.22.32-.02.61.05.89.23.22.14.45.32.68.54.62.58 1.3 1.06 2.07 1.43 1.34.65 2.73.88 4.18.66.7-.1 1.37-.3 2.03-.57a13.62 13.62 0 0 0 3.13-1.8l.01.02c-.34.35-.7.7-1.09 1.03a9.8 9.8 0 0 1-2.72 1.71c-1.97.8-3.95.76-5.97-.1a13.4 13.4 0 0 1-4.16-2.9Z" fill="#0299DB"/><path d="M11.5 9a2.48 2.48 0 0 1-1.54 2.3 2.47 2.47 0 0 1-1.91.01 2.47 2.47 0 0 1-1.36-1.35 2.47 2.47 0 0 1 .54-2.72A2.47 2.47 0 0 1 9 6.5a2.48 2.48 0 0 1 2.3 1.54c.14.3.2.62.2.96Z" fill="#BABABE"/><path d="M9.36 7.83c.03 0 .05-.02.06-.05.01-.07.05-.13.1-.15a.7.7 0 0 1 .43-.09c.05.01.08.03.1.06l.03.13c0 .18 0 .36-.02.54-.01.06.01.1.07.1.13 0 .24.04.33.08.14.08.19.17.14.29-.05.11-.1.2-.18.28-.05.06-.14.12-.26.2a.06.06 0 0 0-.02.06c0 .02 0 .03.02.04l.06.04.04.05.1.37c.01.07-.01.13-.08.15l-.46.19a.14.14 0 0 1-.06.01h-.13c-.02 0-.04.01-.05.03-.03.1-.1.2-.2.32-.09.09-.17.11-.26.08a.76.76 0 0 1-.21-.19 1.1 1.1 0 0 0-.14-.13.12.12 0 0 0-.07-.02c-.17 0-.36.01-.56.05h-.16a.06.06 0 0 1-.05-.05 1.12 1.12 0 0 1 0-.69l-.01-.05a.04.04 0 0 0-.05-.01c-.2.02-.38-.06-.52-.26-.05-.06-.04-.13.03-.2.13-.15.22-.3.26-.43a.49.49 0 0 0 .01-.27 1.5 1.5 0 0 1-.05-.34c0-.05.03-.09.08-.1.24-.04.45-.02.65.04.03.02.06 0 .08-.02a.1.1 0 0 0 .03-.1 1.49 1.49 0 0 1-.02-.06v-.06c.07-.17.13-.3.21-.4.06-.07.12-.08.2-.02.15.1.24.18.27.21a.7.7 0 0 1 .16.3c.01.05.05.07.1.07Z" fill="#F38EB9"/><path fill-rule="evenodd" d="M8.87 7.9c.21.03.35.17.38.24.23-.06.67-.11.65.19-.03.3-.07.42-.1.45.1.1.27.33.25.43-.01.1-.37.23-.55.29-.04.19-.18.59-.38.67-.2.08-.46-.41-.56-.67-.15.06-.5.14-.66 0-.16-.14.12-.42.27-.54-.15-.16-.42-.49-.3-.56.11-.08.38-.03.51 0 .08-.19.28-.54.49-.5Zm.24.51-.35-.25c-.13.15-.26.6-.13.41.1-.14.36-.17.48-.16Zm.09.03.01-.01H9.2Zm.01-.01c.14-.07.4-.17.44-.03.04.14-.06.33-.1.41-.03.02-.07 0-.14-.2-.06-.19-.15-.2-.2-.18Zm-.44.99c0 .1.05.33.2.44.15.11.27-.26.31-.47-.05.09-.24.21-.51.03Zm.64-.54Zm.02 0c.08.03.32.1.4.22.09.11-.24.18-.42.2.1-.1.23-.34.02-.41Zm-1.05.05a1.6 1.6 0 0 0-.27.37c-.04.1.3.08.49.06-.12-.04-.32-.18-.22-.43Zm-.33-.41c.09-.03.33.01.44.04-.21.06-.18.23-.14.32-.14-.1-.4-.33-.3-.36Z" fill="#F4BED5"/></svg>