<!-- by TradingView --><svg width="18" height="18" viewBox="0 0 18 18" xmlns="http://www.w3.org/2000/svg"><path fill="#F0F3FA" d="M0 0h18v18H0z"/><path fill-rule="evenodd" d="M4.2 6.04v6l3.51 2.76h2.51l3.58-2.75V6.03L10.25 3.2H8.07L4.2 6.04ZM8 3 4 5.94v6.2L7.64 15h2.65L14 12.14v-6.2L10.32 3H8Z" fill="#3F4975"/><path fill-rule="evenodd" d="M7.2 7.36v3.36L8.45 12h1.08l1.27-1.28V7.36L9.54 6H8.45L7.2 7.36ZM8.37 5.8 7 7.28v3.52l1.37 1.4H9.6L11 10.8V7.28L9.63 5.8H8.37Z" fill="#3F4975"/><path fill-rule="evenodd" d="M7.78 4 5 6.44v5.25L7.91 14h2l3.1-2.36V6.42L10.07 4H7.84v.06L7.78 4Zm.08.2L5.2 6.53v5.07l2.78 2.2h1.86l2.97-2.26V6.51L10 4.2H7.86Z" fill="#3F4975"/><path d="M9.72 13 12 11.24v-4.3L9.8 5h-2L6 6.41v4.8L8.15 13h1.57ZM5.8 11.3V6.33L7.73 4.8h2.15l2.32 2.05v4.49L9.79 13.2H8.08L5.8 11.3Z" fill="#3F4975"/><path d="M9 3.01 7.8 3 4 5.94 4.01 9H7V7.38l1.4-1.56H9v-2.8ZM10.3 14.98H9V12.2h.6l1.4-1.58V9h2.99v3.14" fill="#3F4975"/></svg>