<!-- by TradingView --><svg width="18" height="18" viewBox="0 0 18 18" xmlns="http://www.w3.org/2000/svg"><path fill="#F0F3FA" d="M0 0h18v18H0z"/><path fill-rule="evenodd" d="M3.88 5C3.4 5 3 5.4 3 5.89v6.22c0 .5.4.89.88.89h10.24c.48 0 .88-.4.88-.89V5.9c0-.5-.4-.89-.88-.89H3.88Zm7.63 5.53a.03.03 0 0 0-.02-.03c-.1-.02-.19-.02-.26-.02H9.08l-.15-.03a.06.06 0 0 1-.03-.04.06.06 0 0 1 0-.05L12 6.07v-.05L11.97 6h-.62c-.16 0-.22.05-.33.16l-.02.01c-.76.66-1.64 1.34-2.52 2.02-.7.55-1.4 1.1-2.04 1.63a1.2 1.2 0 0 0-.44.92c0 .7.6 1.26 1.34 1.26h3.11c.13 0 .21-.03.27-.12.14-.26.26-.45.39-.65l.38-.63a.24.24 0 0 0 .02-.07Z" fill="#30643A"/></svg>