<!-- by TradingView --><svg width="18" height="18" viewBox="0 0 18 18" xmlns="http://www.w3.org/2000/svg"><path fill="#F0F3FA" d="M0 0h18v18H0z"/><path d="M10.37 10.54 15 5 4.5 9.54 4 10.68h2.17L7.12 13l2.67-2.46h.58Z" fill="#2B2A28"/><path d="m9.64 9.67-1.01-.2-.03-.02V9.4a.11.11 0 0 1 .05-.08l4.18-2.8c.45-.35.89-.65 1.32-.9.1-.05.11-.04.03.06-1.2 1.34-2.38 2.66-3.52 3.96-.13.15-.26.21-.45.16l-.57-.14ZM12.56 6.31c-.54.3-1.08.61-1.62.94L6.55 9.88c-.3.19-.57.12-.9.13a1.29 1.29 0 0 0-.85.07l-.12-.03h.06c.04 0 .07-.03.08-.07.02-.08.01-.12-.02-.12-.1-.01-.1-.04 0-.09l7.72-3.55h.01c.1.05.12.08.03.1Z" fill="#E32026"/><path d="m7.44 12.06-.05.1c-.04.02-.07.01-.09-.03l-.8-1.87c-.05-.1-.03-.18.04-.22a96.39 96.39 0 0 0 2.39-1.41l.56-.32a275.85 275.85 0 0 1 2.55-1.5v.08a305 305 0 0 0-3.48 2.34c-.15.1-.32.22-.38.45-.13.45-.37 1.17-.72 2.15a.66.66 0 0 0-.02.23Z" fill="#E32026"/><path d="M9.62 9.8c.07 0 .12.02.16.05.03.03.03.06 0 .1l-2.21 2.13c-.02.01-.03 0-.05-.02L8.3 9.7a.21.21 0 0 1 .08-.1.15.15 0 0 1 .12-.03l1.1.23Z" fill="#E32026"/></svg>