<!-- by TradingView --><svg width="18" height="18" viewBox="0 0 18 18" xmlns="http://www.w3.org/2000/svg"><path fill="#F0F3FA" d="M0 0h18v18H0z"/><circle cx="9" cy="6" r="3" fill="#FFCA37"/><circle cx="9" cy="12" r="3" fill="#8385C0"/><circle cx="6" cy="9" r="3" fill="#E31937"/><circle cx="12" cy="9" r="3" fill="#04A6E1"/><path d="M12 6a3 3 0 0 1-3 3 3 3 0 0 1 3-3Z" fill="#A88CA9"/><path d="M6 12a3 3 0 0 1 3-3 3 3 0 0 1-3 3Z" fill="#8C469A"/><path d="M9 9a3 3 0 0 1-3-3 3 3 0 0 1 3 3Z" fill="#F57E20"/><path d="M12 12a3 3 0 0 1-3-3 3 3 0 0 1 3 3Z" fill="#645AA6"/></svg>