<!-- by TradingView --><svg width="18" height="18" viewBox="0 0 18 18" xmlns="http://www.w3.org/2000/svg"><path fill="#F0F3FA" d="M0 0h18v18H0z"/><path d="M5 3.82c0-.45.37-.82.82-.82H8.1c.46 0 .91.37.91.82V10h4.18c.45 0 .82.53.82.98v2.2c0 .45-.37.82-.82.82H5.82a.82.82 0 0 1-.82-.82V3.82ZM8 4H6v9h7v-2H8.91c-.45 0-.91-.38-.91-.84V4Z" fill="url(#a)"/><defs><linearGradient id="a" x1="9.5" y1="3" x2="9.5" y2="14" gradientUnits="userSpaceOnUse"><stop stop-color="#C657FC"/><stop offset="1" stop-color="#5D7EF7"/></linearGradient></defs></svg>