<!-- by TradingView --><svg width="18" height="18" viewBox="0 0 18 18" xmlns="http://www.w3.org/2000/svg"><path fill="#F0F3FA" d="M0 0h18v18H0z"/><path d="M7.94 5.12h.2l-.71.12a11.9 11.9 0 0 0-1.8.44 18.47 18.47 0 0 0-1.63.6c-.1.04-.23.1-.35.11l-.01-.01v-.01c.08-.11.2-.19.3-.26.28-.18.53-.34.83-.44a8.21 8.21 0 0 1 2.54-.53c.26-.06.52-.1.78-.12h.17A23.8 23.8 0 0 1 8.8 5c-.14.02-.29.04-.44.04l-.1.02a19.8 19.8 0 0 1-.33.05Z" fill="#CF2829"/><path d="m12.05 5.8-.38-.06-.85-.09c-.1 0-.18-.04-.27-.03a.5.5 0 0 1-.09 0c-.2 0-.37-.02-.57-.01h-.64c-.18 0-.38.02-.58.04l-.4.03-.64.08a20.76 20.76 0 0 0-2.34.54c-.04 0-.04 0-.01-.03a3.38 3.38 0 0 1 .85-.38l.56-.16.45-.1c.2-.05.48-.1.83-.16.22-.04.4-.03.64-.05a200.69 200.69 0 0 1 1.36.03l.34.04a11.13 11.13 0 0 1 1.75.31h-.01ZM5.52 5.88l-.55.22v-.02a4.92 4.92 0 0 1 1.1-.43c-.15.08-.28.12-.55.23Z" fill="#F39E34"/><path d="M10.05 5.88c.09.03.2.04.26.05a12.7 12.7 0 0 1 1.01.23 9.38 9.38 0 0 0-.76-.15l-.71-.09-.26-.01c-.06 0-.14 0-.25-.02a5.55 5.55 0 0 0-1 0l-.4.03-.14.02a5.86 5.86 0 0 0-1.19.19 12.6 12.6 0 0 0-.92.25l-.3.1a15.96 15.96 0 0 0-.78.3c-.02.01-.02 0 0 0 .08-.08.18-.15.3-.2a6.65 6.65 0 0 1 .94-.36c.15-.06.28-.1.38-.12.15-.03.4-.1.6-.13a16.29 16.29 0 0 1 1.06-.14l.58-.04a8.95 8.95 0 0 1 1.42.05 15.1 15.1 0 0 1 1.44.22l.27.08a9.39 9.39 0 0 1 1.81.73 71.2 71.2 0 0 0-2.81-.91l-.22-.04-.15-.02-.18-.02Z" fill="#1F883D"/><path d="m2.07 8.93.01-.01a755.55 755.55 0 0 0 .3-.9 2.57 2.57 0 0 1 .48-.57 2.6 2.6 0 0 0-.54.93c-.1.31-.11.63-.03.95.09.37.29.68.51.95a12.01 12.01 0 0 0 .56.55 20.33 20.33 0 0 0 .53.43c-.2-.08-.38-.17-.56-.3a5.4 5.4 0 0 1-.59-.5 2.35 2.35 0 0 1-.68-1.4c-.01-.3.03-.58.14-.84.06-.15.13-.28.2-.4l.2-.26.07-.1c.27-.29.57-.54.9-.75a6.11 6.11 0 0 1 1.01-.5l-.47.26a5.4 5.4 0 0 0-.87.61l-.29.23c-.15.13-.3.28-.44.46a2.08 2.08 0 0 0-.44 1.15Z" fill="#F39E34"/><path d="M15.97 9.1c0-.02-.01-.02-.01 0l-.02.12c-.13.9-.86 1.6-1.61 2.06-.28.17-.58.33-.88.45v-.01c.45-.23.9-.5 1.28-.84.36-.4.99-.98 1.04-1.76.01-.15 0-.26-.02-.42a.31.31 0 0 0-.03-.1 1.76 1.76 0 0 1-.1-.24c0-.01 0-.02.02-.02v-.01a2.52 2.52 0 0 0-.47-.73l-.26-.28a6.81 6.81 0 0 0-.83-.66v-.02a4.4 4.4 0 0 1 1.25.89 2.26 2.26 0 0 1 .64 1.37 4.17 4.17 0 0 1 .01.24l-.01-.04Z" fill="#CF2829"/><path d="M10.26 7.53c-.1-.05-.19-.1-.26-.12-.51-.18-1.1.08-1.37.67a1.66 1.66 0 0 0 .28 1.82c.02.01.03.03.03.05-.04-.02-.1-.09-.14-.12a1.66 1.66 0 0 1-.1-2.02c.2-.29.47-.45.77-.5a.95.95 0 0 1 .39.02c.14.03.28.1.4.2Z" fill="#F77485"/><path d="M10.26 7.53a1.35 1.35 0 0 1 .29.3c-.24-.23-.5-.34-.81-.33a1 1 0 0 0-.65.28c-.23.21-.37.5-.44.85v.18l-.02.12c.01.2.05.38.12.56l.04.08c.24.24.52.4.83.38.3-.01.59-.19.83-.4.02.03.03.06.02.1l-.05.05-.08.06-.07.06a1.14 1.14 0 0 1-.79.24l-.04-.01a.16.16 0 0 0-.03-.02 1.07 1.07 0 0 1-.18-.05l-.03-.01-.07-.05a1.9 1.9 0 0 1-.14-.1l-.08-.05-.01.01v.01l.1.12.11.1.07.06v.04a.97.97 0 0 1-.24-.16.15.15 0 0 0-.03-.05 1.66 1.66 0 0 1-.28-1.82c.28-.6.86-.85 1.37-.67l.26.12Z" fill="#CF2829"/><path d="M14.92 9.31a2.83 2.83 0 0 0-.36-.82c-.1-.14-.24-.31-.41-.5-.1-.13-.24-.23-.36-.34-.07-.06-.16-.16-.16-.26l.08.02c.18.08.35.19.51.32.27.22.52.47.75.76.22.27.35.55.3.95a17.84 17.84 0 0 1-.08.56 2.61 2.61 0 0 1-.44.77c.29-.56.26-.86.17-1.46Z" fill="#7BCC3C"/><path d="M8.65 8.8v-.17c.07-.36.21-.64.44-.85a1 1 0 0 1 .64-.17.99.99 0 0 1 .68.37.98.98 0 0 0-1.06-.15c-.37.17-.6.52-.7.98Z" fill="#F39E34"/><path d="M5.56 10.1v-.01a2193.97 2193.97 0 0 0-.58-1.55l-.22 1.54h-.28l.43-2.53a3831.1 3831.1 0 0 0 .65 1.79 3500 3500 0 0 0 .64-1.79l.44 2.52v.02h-.27v-.01l-.24-1.54c0-.01 0-.01 0 0a1974.3 1974.3 0 0 0-.57 1.55ZM10.91 7.55h.31V8.7l-.3.33h-.01V7.54ZM12.5 8.16a.64.64 0 0 0-.31.03v-.64h.3a.01.01 0 0 1 .01 0v.61Z" fill="#272727"/><path d="M12.6 8.38c-.03 0-.07 0-.13-.02a.71.71 0 0 0-.26 0c-.13.03-.26.08-.39.15a3.2 3.2 0 0 1-.11.06l-.01-.13c.26-.17.58-.27.87-.18.17.05.32.15.46.28a7.53 7.53 0 0 1 .12.15 1.44 1.44 0 0 0-.56-.3Z" fill="#7BCC3C"/><path fill-rule="evenodd" d="M7.68 7.55h-.01l-.89 2.53v.01h.32l.2-.62h.01v-.01a81.2 81.2 0 0 1 .73.01l.2.61h.01v.01h.31a.01.01 0 0 0 0-.01l-.88-2.53Zm0 .76-.25.8a.01.01 0 0 0 0 .01h.5l-.25-.8V8.3Z" fill="#272727"/><path d="M12.6 8.38c.16.07.3.18.42.31v.01a.96.96 0 0 0-.64-.06 4.07 4.07 0 0 0-.96.44.19.19 0 0 1-.17-.06c-.02-.02-.01-.04 0-.06l.03-.07a3.6 3.6 0 0 1 .54-.38c.13-.07.26-.12.4-.14.1-.02.18-.02.25 0l.12.01Z" fill="#0190C8"/><path d="M11.7 8.44v.13c-.14.1-.28.2-.42.32l-.8.76c0-.04-.01-.07-.03-.1l.58-.56c.2-.2.43-.4.67-.55Z" fill="#F39E34"/><path d="M11 9.65a1.48 1.48 0 0 1-1.27.52.9.9 0 0 1-.38-.08c-.05-.02-.1-.03-.14-.06A2.15 2.15 0 0 1 9 9.87v.04l-.09-.12.01-.02.09.05a1.9 1.9 0 0 0 .2.15l.03.01c.04.02.1.04.18.05l.04.02h.21a1.14 1.14 0 0 0 .61-.23l.07-.06.08-.06v.02c.19-.09.36-.21.56-.36l.18-.1c.08-.07.17-.12.26-.18a5.25 5.25 0 0 1 .6-.33c.12-.05.24-.09.36-.11.26-.01.51.1.72.28.02.02.02.02 0 .01a1.33 1.33 0 0 0-.97.05 5.3 5.3 0 0 0-.95.53l-.17.14Z" fill="#1F883D"/><path d="M11.28 8.89a.76.76 0 0 1-.03.07c-.01.02-.02.04 0 .06.04.05.1.07.17.06l-.26.17-.18.11c-.2.15-.37.27-.56.36V9.7l.05-.05.81-.76Z" fill="#2F74B6"/><path d="M12.49 10.09h-.3v-.92l.3-.09v.01h.01v.99l-.01.01ZM10.9 10.07v-.22l.01-.02.3-.28h.02v.53h-.01v.01h-.3l-.01-.02Z" fill="#272727"/><path d="m2.49 10.56.06.06.34.36a44.15 44.15 0 0 0 1.06.83l.35.22.03.04a.02.02 0 0 1 0 .02h-.01a6.74 6.74 0 0 1-1.22-.52 4.74 4.74 0 0 1-.77-.73c-.18-.3-.31-.64-.33-1.02 0-.02 0-.02.01 0l.17.33c.1.15.2.29.31.41Z" fill="#2F74B6"/><path d="M6 12.27h.12a8.44 8.44 0 0 0 1.4.14h.33c.11 0 .2.01.28 0a76.93 76.93 0 0 0 1.13-.05l.36-.03.46-.06.62-.1a20.37 20.37 0 0 0 2.06-.53c.02 0 .03 0 .01.02a11.6 11.6 0 0 1-3.08.9c-.2.01-.48.04-.72.04a17.53 17.53 0 0 1-1.3-.06l-.35-.04A18.13 18.13 0 0 1 6 12.27Z" fill="#F77485"/><path d="m11.84 12.52.24-.06a14.93 14.93 0 0 0 1.41-.45 62.65 62.65 0 0 0 .84-.3v.01a.3.3 0 0 1-.1.13 4.66 4.66 0 0 1-2.1.86c-.24.06-.42.07-.74.11l-.28.03c-.15 0-.3.03-.47.04h-.18l-.47.08a9.9 9.9 0 0 1-.78.01 13.18 13.18 0 0 1 .57-.06.24.24 0 0 1 .05-.02 27.77 27.77 0 0 1 1.44-.27l.42-.13a9.01 9.01 0 0 1 .5-.14c-.1.06-.22.11-.35.15Z" fill="#2F74B6"/><path d="M12.53 12.13a4.83 4.83 0 0 1-.56.18c.15-.08.28-.13.55-.24l.54-.23v.01a4.98 4.98 0 0 1-.53.27Z" fill="#F77485"/></svg>