<!-- by TradingView --><svg width="18" height="18" viewBox="0 0 18 18" xmlns="http://www.w3.org/2000/svg"><path fill="#F0F3FA" d="M0 0h18v18H0z"/><path d="M4 9h2.1c.12-.7.61-2.16 1.51-2.48.9-.32 2.63 1 3.38 1.7l1.16.78H14v-.03A4.98 4.98 0 0 0 9 4a4.98 4.98 0 0 0-5 5Z" fill="#FDC20D"/><path d="M4 9h2.1c.12.7.61 2.16 1.51 2.48.9.32 2.63-1 3.38-1.7L12.15 9H14v.03A4.98 4.98 0 0 1 9 14a4.98 4.98 0 0 1-5-5Z" fill="#0054A8"/><path d="M10.25 12.7A3.74 3.74 0 0 0 14 8.96a3.75 3.75 0 0 0-6.67-2.34 2.49 2.49 0 0 1 0 4.68 3.75 3.75 0 0 0 2.92 1.38Z" fill="#00A751"/><path d="M7.33 6.63A2.51 2.51 0 0 0 4 8.97a2.5 2.5 0 0 0 3.33 2.34 3.7 3.7 0 0 1 0-4.68Z" fill="#04BDED"/></svg>