<!-- by TradingView --><svg width="18" height="18" viewBox="0 0 18 18" xmlns="http://www.w3.org/2000/svg"><path fill="#F0F3FA" d="M0 0h18v18H0z"/><path d="M7.14 6.17c.02.08.04.16.08.23.07.12.17.23.29.33a2.5 2.5 0 0 0 .91.4 3.1 3.1 0 0 0 1.6-.14c.15-.05.28-.12.4-.2.12-.08.21-.17.29-.27a.84.84 0 0 0 .16-.35 6.74 6.74 0 0 1 1.56.64 5.75 5.75 0 0 1 1.54 1.31A4.8 4.8 0 0 1 15 10.7a3.21 3.21 0 0 1-.03.7.95.95 0 0 1-.13.33.55.55 0 0 1-.31.23.8.8 0 0 1-.2.04c-.09 0-.19 0-.29-.02a3.18 3.18 0 0 1-.68-.17 30 30 0 0 1-.84-.3l-.22-.07a23.81 23.81 0 0 0-1.5-.47l-3.59-.02a13.09 13.09 0 0 0-1.82.58l-.33.12a8.83 8.83 0 0 1-1.1.3H3.7a.8.8 0 0 1-.2-.04.58.58 0 0 1-.3-.21.8.8 0 0 1-.09-.17 2.21 2.21 0 0 1-.1-.53 3.93 3.93 0 0 1 .68-2.48 4.88 4.88 0 0 1 1.43-1.44 6.09 6.09 0 0 1 2.02-.91Z" fill="#393185"/><path d="M10.71 6.02c0 .14-.04.27-.13.4-.08.12-.2.23-.37.32-.16.1-.34.17-.56.23a2.73 2.73 0 0 1-1.86-.23c-.16-.1-.29-.2-.37-.33a.67.67 0 0 1-.13-.4c0-.13.04-.26.13-.38.08-.13.2-.24.37-.33.16-.1.35-.17.56-.22a2.73 2.73 0 0 1 1.86.22c.16.1.29.2.37.33.1.13.13.26.13.4Z" fill="#FECC00"/><path d="M7.74 5.9c0-.02 0-.02 0 0a1.8 1.8 0 0 0-.03.2.23.23 0 0 1-.04.07l-.01-.09a.1.1 0 0 1 .03-.04v-.01a.53.53 0 0 1 .03-.17 2 2 0 0 0 .04-.15c.04-.12.14-.19.28-.22l.08-.01a.5.5 0 0 1 .12 0 .83.83 0 0 1 .24.06h.01c.03-.03.05-.04.08-.04h.07l.03.01a.17.17 0 0 1 .1 0c.02 0 .05 0 .06.03l.04.07v.1a.75.75 0 0 0 0 .07v.16l.06.07h-.06v.03l.03.01v.01h-.03v.01a.79.79 0 0 1 0 .17.43.43 0 0 0-.02.07v.06c0 .04-.02.07-.06.1h-.03v-.02l-.02-.02v-.01l.02-.03a.2.2 0 0 0 0-.05.55.55 0 0 0-.01-.06 3.46 3.46 0 0 1-.01-.15l-.02-.03a1.52 1.52 0 0 1-.05-.1c-.02 0-.03 0-.04.02v.05a100.4 100.4 0 0 1 .03.26 4.18 4.18 0 0 1 .04.15l-.02.01h-.13v.03l-.02.02a.2.2 0 0 1-.11 0l-.03-.01V6.4l.02-.06v-.01a.55.55 0 0 0-.05-.13 2.06 2.06 0 0 1-.17.02l-.01.02a.19.19 0 0 0-.02.1c0 .06.02.1.05.13v.02c0 .02-.02.03-.04.03h-.1l-.02-.03V6.4a.4.4 0 0 1-.02-.05A.2.2 0 0 1 8 6.3V6.3s-.01 0 0 0v.09a.1.1 0 0 0 0 .03.58.58 0 0 1 .02.07.1.1 0 0 1 .02.04l-.01.02h-.05a.36.36 0 0 1-.07.02h-.05a.05.05 0 0 1-.02-.04.22.22 0 0 1 0-.06v-.03a1.56 1.56 0 0 0-.03-.06.12.12 0 0 1 0-.08v-.08a3.13 3.13 0 0 1-.06-.26l-.02-.05ZM10.26 5.9c0-.01 0-.01 0 0l-.03.1c0 .04 0 .06-.02.08a.55.55 0 0 0-.04.13v.08a.3.3 0 0 1 .01.03v.05l-.03.05v.05l-.01.06c0 .02-.02.03-.04.04h-.04l-.03-.01-.05-.01-.02-.01v-.07l.02-.03a2.9 2.9 0 0 1 .02-.08V6.3h-.01l-.01.02c0 .04-.02.08-.04.1v.02a2.9 2.9 0 0 0 0 .07c0 .02-.02.03-.04.03h-.08l-.03-.03v-.03l.02-.03a.22.22 0 0 0 .03-.12l-.01-.05a.1.1 0 0 0-.03-.05h-.02a25.96 25.96 0 0 1-.14-.02l-.02.02a1.18 1.18 0 0 0-.02.13v.05l.02.1c0 .02-.01.03-.03.04a.26.26 0 0 1-.07 0c-.03.01-.05 0-.07 0V6.5l-.01-.01a.31.31 0 0 1-.1 0H9.3v-.02a2.63 2.63 0 0 0 .06-.45L9.33 6a2.02 2.02 0 0 1-.07.14v.1l-.02.06v.06c0 .03 0 .05.02.06v.01a.07.07 0 0 0-.02.03l-.01.02H9.2a.12.12 0 0 1-.05-.12.21.21 0 0 0-.02-.09.39.39 0 0 1-.01-.06v-.07a1.32 1.32 0 0 1 0-.07H9.1v-.01l.04-.04h-.07V6l.07-.06v-.01a.32.32 0 0 1-.02-.12v-.03l.01-.04a.93.93 0 0 1 .02-.17.1.1 0 0 1 .06-.06.13.13 0 0 1 .1 0 1.6 1.6 0 0 1 .03 0c.06-.02.11-.01.15.01l.03.02h.03a.78.78 0 0 1 .18-.06h.16a.8.8 0 0 1 .13.03c.04.01.08.03.1.06a.3.3 0 0 1 .13.2l.01.05.02.06.03.15v.02l.02.02.01.03a.76.76 0 0 1 0 .08.2.2 0 0 1-.04-.05.11.11 0 0 1-.01-.06.59.59 0 0 0-.03-.18Z" fill="#393185"/><path d="m8.08 6.05-.03.1c0 .01 0 .01 0 0v-.01h-.01l-.01.02c0 .01 0 .01 0 0v-.02h-.01L8 6.16 8 6.17c-.01.03-.02.05-.01.07A.41.41 0 0 1 8 6.19a3 3 0 0 1 0 .05c0 .02-.02.04-.03.04v.02l-.01.02v.04h.01l-.02.03h.01v.03h.01v.05H8v-.01l.01.02L8 6.5h-.03l-.04.01v.02l-.01.01c-.02.01-.03 0-.04-.03v-.07a.19.19 0 0 1-.04-.09v-.14a.63.63 0 0 0-.03-.13c0-.02 0-.05-.02-.09a.64.64 0 0 1-.01-.2c0-.06.02-.11.06-.16a.28.28 0 0 1 .2-.12h.06a.52.52 0 0 1 .35.05.09.09 0 0 0-.04.05.34.34 0 0 0-.05.06.1.1 0 0 0-.05.02v.03l.02.04a.86.86 0 0 1 .03.04.3.3 0 0 1 .02.06l.01.03.04.07c0 .01 0 .02.02.02.01 0 .02 0 .02-.02v-.01l.01-.03a.53.53 0 0 1 .03-.03l.05.06.07.03a.23.23 0 0 0-.02.12l.02.1a.35.35 0 0 1 0 .06c0 .04.01.06.02.07l.02.1h-.03l-.01.01h-.04v-.01a.39.39 0 0 0 .04-.05v-.01h-.04v-.01h-.02a5.9 5.9 0 0 1-.03-.16 2.01 2.01 0 0 0 .04-.05.9.9 0 0 1-.04.02s0-.03.02-.05a1.9 1.9 0 0 0 .02-.03v-.03a.5.5 0 0 0 0-.06v.05h-.01v.01l-.03.04.02-.1v-.01L8.53 6v.02l-.03.05a.2.2 0 0 0-.02.04v.01h.02a2.48 2.48 0 0 1 0 .22l-.02.02c-.01 0 0 0 0 0v.01l-.01.02s0 .01 0 0h.02l-.02.03v.01h.01v.04l.02-.01v.01c.01 0 .01 0 0 0a1.46 1.46 0 0 0-.05.01h-.02l-.01.03-.02.01-.01-.01v-.04l.01-.03v-.18a12.64 12.64 0 0 0-.1-.2H8.3v-.02h-.01v.03c0 .02.02.04.03.05l-.01.03H8.3l-.01.02-.01-.01-.02.02H8.2c-.05.01-.08 0-.1-.01l-.01-.02c.03-.05.04-.1.03-.13-.01.05-.02.08-.04.1a.71.71 0 0 0 0-.07ZM9.42 6a.7.7 0 0 1 0 .07c0 .01 0 .02.02.03a.47.47 0 0 1 .02.07.23.23 0 0 0-.04-.04l-.02.01.02.02a4.14 4.14 0 0 1 .04.05v.07a2.2 2.2 0 0 0-.03.08H9.4l-.02.01v.02l.04.03v.03h-.03c-.02-.02-.03-.02-.05-.01V6.37l.02-.04.01-.08V6.2l.02-.07a3.69 3.69 0 0 0 0-.16c.02 0 .03-.01.03-.02a.2.2 0 0 0 .08-.07 3.38 3.38 0 0 0 .07.09l.01-.02a.52.52 0 0 0 .04-.1.33.33 0 0 1 .04-.07l.01-.02a.21.21 0 0 0 .04-.04c0-.03 0-.04-.04-.06h-.02a1.11 1.11 0 0 0-.05-.07.09.09 0 0 0-.04-.03.47.47 0 0 1 .2-.07l.17.01h.05c.1.03.18.08.22.18l.03.18-.01.1a1.2 1.2 0 0 1-.06.2l-.01.06v.08a.3.3 0 0 1-.01.12.1.1 0 0 0 0 .03c0 .04-.01.07-.03.08h-.03v-.03l-.04-.01H10v-.01l.01-.03.02.02v-.05h.02v-.01l-.01-.01v-.02a.94.94 0 0 1 0-.03c.01 0 .01 0 0 0v-.07a.06.06 0 0 1-.04-.04v-.06c0-.02 0-.03-.02-.04v-.01h-.01v.01c0 .02-.01.02-.01 0a.4.4 0 0 1-.03-.1H9.9v.07a.41.41 0 0 0-.03-.1v.06a1.1 1.1 0 0 1 .02.08l-.04.03H9.79l-.01-.01h-.04l-.01-.02H9.7l-.01-.01-.02-.01v-.01a2.9 2.9 0 0 1 .04-.1H9.7v.03h-.02l-.06.09a.29.29 0 0 0-.03.1v.05a1.83 1.83 0 0 0 0 .17v.04l-.01.01a.58.58 0 0 1-.02-.03h-.02l-.06-.01v-.02h.01l.01.01v-.03h.01v-.01l-.02-.03s0-.01 0 0h.03l-.01-.03v-.01l-.03-.04v-.1a3.09 3.09 0 0 0 .01-.1h.01V6.1a.97.97 0 0 1-.05-.1c0-.01 0 0 0 0a.56.56 0 0 0 .01.1.15.15 0 0 0-.02-.03.08.08 0 0 1-.01-.03.7.7 0 0 1 0-.03Z" fill="#F0F3FA"/><path d="m8.52 5.57.01-.02h.02a3.46 3.46 0 0 0 .03-.02l.01-.01h.07v.01h.05l.01.02.02-.02h.02l.01.02h.02c.03.01.04.03.05.05v.06a2.33 2.33 0 0 0 .01.13v.12a14.77 14.77 0 0 0-.02.1.46.46 0 0 1-.08-.08.05.05 0 0 0-.01-.02H8.7a.06.06 0 0 0-.03.03l-.02.03h-.01c-.07 0-.1-.05-.12-.14v-.1H8.5a.1.1 0 0 1-.02-.03v-.01l.01-.01v-.02h-.02l-.01.01v.02a1.63 1.63 0 0 0 .02.08l-.04.04h.02l.05-.05c0 .04 0 .07-.02.1a.48.48 0 0 1-.05.08h-.01c-.02-.01-.04-.05-.05-.1a.19.19 0 0 0-.02-.05.18.18 0 0 0-.04-.04c-.02-.03-.03-.04-.01-.05h.03c.03-.02.06-.04.07-.08l.01-.02h.03v-.01l.02-.01h.01v.01l.02-.02h.01ZM9.23 5.54h.04c.02 0 .02 0 .03-.02v.01h.03a.09.09 0 0 0 .02-.01h.06v.01h.01v-.01h.01l.02.03h.01l.01.02h.02v.01h.02l.02.01h.03l.01.02c0 .02 0 .03.02.03 0 0 0 .02.02.03.01.02.02.03.04.03h.03l.01.02-.02.03a1.4 1.4 0 0 0-.03.03l-.02.03a.42.42 0 0 1-.05.13l-.04-.04a.16.16 0 0 1-.04-.14.4.4 0 0 0 .05.06h.01V5.8l-.03-.03-.01-.03.01-.06v-.02l-.02-.01v.07h-.03v.05a.19.19 0 0 1 0 .1c-.02.06-.06.09-.13.1v-.02l-.01-.03-.02-.02h-.03l-.03.01v.02a2.53 2.53 0 0 1-.1.07 10.54 10.54 0 0 1 .03-.44l.02-.02h.03Z" fill="#F0F3FA"/><path d="M9.69 5.53h-.01l-.04.04h.01l.04-.03v-.01ZM8.16 6.06a.85.85 0 0 0 .06-.1h.02l-.09.13.01-.03Z" fill="#393185"/><path d="m8.78 6.29-.01-.01v-.03c-.01 0-.01 0 0 0v-.08a1.08 1.08 0 0 1-.02-.04l.01-.02V6.1h-.01v-.02c0-.01-.01-.02-.02-.01 0-.02 0-.03-.02-.04a.3.3 0 0 0 .12.04l.01.09v.08l-.01.03v.09l-.01.03a.86.86 0 0 1-.03.08l-.01-.01v-.02h-.01v-.01c-.01 0-.01 0 0 0v-.07l.02-.02v-.04ZM9.24 6.09v.05l-.02.03v.07h.01v.02c-.01 0-.01 0 0 0v.02h-.01v.01l-.02.04.01.02a1.2 1.2 0 0 0 .02.07c-.02 0-.02.02-.02.03a.27.27 0 0 1-.04-.08v-.02l-.01-.12-.01-.03v-.04a.4.4 0 0 0 0-.1h.01l.06-.02.06-.03v.01l-.01.02v.01l-.02.01v.02h-.01ZM8.16 6.47h-.03c-.01 0-.02 0-.03.02l-.01.01h-.02V6.4a.27.27 0 0 1-.03-.09V6.3c.02 0 .03-.02.04-.03l.03-.02s.02 0 .03-.02l.01-.01h.01v.02c-.04.1-.03.18.03.26v.02h-.01v-.03h-.02ZM9.94 6.3v.01h.02a.24.24 0 0 1-.04.1v.04a.1.1 0 0 1 .01.03c0 .02 0 .03-.02.02a.04.04 0 0 0-.05-.02l-.01.03h-.01l.01-.03h-.01l-.02.02h-.01a.14.14 0 0 0 .03-.06.32.32 0 0 0 0-.2V6.2h.01c0 .02.02.03.02.03h.02l.02.02.01.01.02.01h.02c0 .02 0 .03-.01.02h-.01Z" fill="#F0F3FA"/><path d="M11 11.34c0 .05-.02.08-.06.11a.21.21 0 0 1-.14.05H7.2a.21.21 0 0 1-.14-.05.14.14 0 0 1-.06-.11v-.68c0-.05.02-.08.06-.11a.21.21 0 0 1 .14-.05h3.6c.06 0 .1.02.14.05.04.03.06.07.06.11v.68Z" fill="#FECC00"/><path opacity=".5" fill="#F0F3FA" d="M4.05 8h10v2h-10z"/><path opacity=".5" fill="#393185" d="M7.6 10.5h3v1h-3z"/></svg>