<!-- by TradingView --><svg width="18" height="18" xmlns="http://www.w3.org/2000/svg"><path fill="url(#paint0_linear)" d="M0 0h18v18H0z"/><path d="M3.94 6H7.71l.743.994L9.206 6h4.853C15.131 6 16 6.784 16 7.752v2.497C16 11.216 15.13 12 14.06 12H3.94C2.87 12 2 11.216 2 10.248V7.752C2 6.784 2.869 6 3.94 6z" fill="#ED1B29"/><path d="M14.583 11l-.32-4h-1.197l-.743 1.908L11.574 7h-1.16l-.434 4h1.176l.2-2.226.96 2.226 1.034-2.233.084 2.233h1.149zm-5.56 0V7H8v4h1.024zm-2.7-1.937c.29-.22.48-.51.463-.832-.023-.445-.289-.944-.754-1.102-.257-.091-.698-.133-1.173-.129-.55.005-.624-.004-1.3.079V11c.387.077.713-.014 1.382 0 1.242.026 1.932-.463 1.947-1.126.008-.376-.237-.637-.564-.811zm-.676-.705c0 .212-.19.383-.424.383H4.75v-.765h.472c.25 0 .424.171.424.382zm.12 1.407c-.002.23-.322.32-.561.309H4.75v-.63h.472c.239-.014.53.062.544.321z" fill="#fff"/><defs><linearGradient id="paint0_linear" x1="3.349" y1="3.122" x2="21.904" y2="24.434" gradientUnits="userSpaceOnUse"><stop stop-color="#1A1E21"/><stop offset="1" stop-color="#06060A"/></linearGradient></defs></svg>