<!-- by TradingView --><svg width="18" height="18" viewBox="0 0 18 18" xmlns="http://www.w3.org/2000/svg"><path fill="#F0F3FA" d="M0 0h18v18H0z"/><path d="M5 4.4v2.9c.15-.15.72-.36 1.79-.36s1.75.29 1.96.47L8.07 6.4l1.07.9V5.05l.42 2.24 2.9-2.8L9.9 7.42l2.74-.23-2.54.55 1.5.67-1.33-.23c.45.37 1.33 1.42 1.33 2.6 0 1.82-1.27 2.9-1.9 3.23h2.8c.27 0 .49-.18.49-.4V4.4c0-.22-.22-.4-.49-.4H5.5c-.27 0-.49.18-.49.4Z" fill="#1C1C1A"/><path d="M7.71 14h1.1l.3-.48a14.8 14.8 0 0 0-1.5.02l.1.46Zm1.48 0h.53c.12-.1.27-.23.44-.4a14.9 14.9 0 0 0-.69-.06c-.08.16-.18.31-.28.46Zm1.19-.65c.29-.35.58-.78.76-1.26-.33-.07-.7-.14-1.11-.19a5 5 0 0 1-.43 1.38l.78.07Zm.85-1.52c.06-.24.1-.48.1-.73 0-.29-.02-.55-.07-.8-.37-.1-.82-.2-1.33-.27a4.1 4.1 0 0 1 .13 1.6c.43.05.82.12 1.17.2ZM11.19 10a3.38 3.38 0 0 0-.8-1.44c-.38-.14-.9-.3-1.55-.42.41.45.77.98 1 1.6.5.08.96.17 1.35.26ZM9.84 8.1a5.62 5.62 0 0 0-2.11-.9c.26.17.53.38.79.62.5.07.94.17 1.32.28ZM6.97 7.07a4.44 4.44 0 0 0-.9.02l.16.7A8.77 8.77 0 0 1 8 7.76c-.36-.3-.72-.52-1.03-.69Zm-1.24.06c-.33.06-.6.14-.73.19v.72c.26-.07.56-.15.9-.2l-.17-.7ZM5 8.33V10c.37-.1.83-.2 1.35-.27L5.97 8.1c-.38.06-.7.15-.97.23Zm0 1.95v1.62c.47-.13 1.07-.25 1.8-.32L6.4 9.99a9.2 9.2 0 0 0-1.41.3Zm0 1.9v1.54c.56-.17 1.3-.33 2.2-.42l-.34-1.46c-.77.08-1.4.2-1.86.34ZM5.03 14h2.34l-.1-.43c-.95.09-1.7.26-2.24.43Zm4.66-2.14c-.07.52-.23.98-.44 1.4a15.19 15.19 0 0 0-1.71.02l-.35-1.46a13.92 13.92 0 0 1 2.5.04Zm.06-.71c0 .15 0 .3-.02.44a15.23 15.23 0 0 0-2.6-.04l-.38-1.6a12.4 12.4 0 0 1 2.82.04c.11.36.18.74.18 1.16Zm-1.4-3.08c.45.43.86.98 1.12 1.63a13.9 13.9 0 0 0-2.79-.01L6.3 8.06a8.36 8.36 0 0 1 2.04 0Z" fill="#163D82"/></svg>