<!-- by TradingView --><svg width="18" height="18" viewBox="0 0 18 18" xmlns="http://www.w3.org/2000/svg"><path fill="#F0F3FA" d="M0 0h18v18H0z"/><path fill-rule="evenodd" d="m11.92 7.89-.03-.12c-.01-.04-.03-.04-.05 0l-1.46 2.6-.04.02h-.25c-.01 0-.02 0 0-.03l1.95-3.82c.02-.03 0-.04-.02-.04l-.14.03a.1.1 0 0 0-.08.06L9.9 10.42c0 .02-.02.03-.03.03l-.05.04h-.02v-.03l1.88-3.87a.15.15 0 0 0 .02-.1l-.02-.06s0-.02-.02-.02c0 0-.02 0-.02.02l-1.99 4.06c-.01.03-.03.05-.06.05H8.03c-.03 0-.04-.01-.05-.04L6.33 6.52c-.02-.04-.03-.04-.04 0-.17.56-.52.8-1.07.7-.02 0-.03 0-.02.03l2.25 3.6c.02.01.01.03 0 .03l-.03.01c-.02 0-.04 0-.05-.02l-2.26-3.6a1.22 1.22 0 0 0-.19-.24.96.96 0 0 1-.3-.6.93.93 0 0 1 .16-.65c.1-.15.23-.26.37-.32a.74.74 0 0 1 .44-.06c.15.03.28.1.4.2a1 1 0 0 1 .27.45l.07.19a630.82 630.82 0 0 0 1.64 3.91c.09-.05.2-.07.3-.04.03 0 .03 0 .03-.03l-.41-1.4s0-.02.02-.02h.47c.01 0 .02 0 .03-.02V8.6l-.43-1.84a.9.9 0 0 1-.02-.2V5.02c0-.02 0-.03.03-.03h1.49c.02 0 .02 0 .02.02v1.34c0 .22-.02.47-.07.74L9.16 8.6c0 .04 0 .05.04.05h.43c.03 0 .04.02.03.04l-.38 1.35c0 .03 0 .05.04.05h.24c.02 0 .04.01.04.04v.18c0 .05 0 .06.03 0l2.02-4.14a.06.06 0 0 1 .05-.03l.99-.2c.05 0 .09.02.1.08l.03.23c.01.06-.01.1-.06.1-.06 0-.14.01-.25.04-.03.01-.04.03-.03.06l.15.96.01.02.31-.06c.02 0 .03 0 .04.02.02.01.03.05.05.1v.04c.04.1.05.18.01.23a1250.1 1250.1 0 0 1-2.08 2.7h-.02l-.03-.03v-.04l1.87-2.51c.03-.04.02-.06-.02-.05l-.66.13a.12.12 0 0 0-.08.06l-1.35 2.4c-.02.04-.04.04-.07.03h-.02c-.03-.01-.04-.03-.02-.06l1.33-2.37a.18.18 0 0 0 .02-.14ZM8.09 5.11h1.29c.02 0 .03.02.03.04v1.37c0 .02-.02.03-.03.03h-1.3s-.02-.01-.02-.03V5.15c0-.02.01-.04.03-.04Zm1.4 5.03-.52.01c-.03 0-.05-.02-.05-.05V9.05c0-.03.02-.05.05-.05l.5.01c.02 0 .04-.01.04-.05l.02-.2c0-.03-.01-.05-.05-.05h-1.4c-.03 0-.05.02-.05.06l.02.2c0 .03.01.04.04.04h.5c.03 0 .04.01.04.05v1.03c0 .04 0 .06-.04.06l-.48-.01c-.04 0-.05.01-.05.05v.23c0 .03.01.05.04.05H9.5c.03 0 .05-.02.05-.05l-.01-.23c0-.04-.02-.05-.05-.05Zm-4.03-3c.41 0 .75-.37.75-.82 0-.46-.34-.83-.75-.83-.4 0-.74.37-.74.83 0 .45.33.82.74.82Zm7.05.66-.43.09c-.05.01-.08-.01-.09-.06l-.01-.06c-.01-.06 0-.09.05-.1l.33-.07v-.01l-.21-1.18c0-.03-.02-.04-.05-.03l-.24.06c-.04 0-.08-.01-.1-.06-.03-.07-.03-.11.03-.13a9.9 9.9 0 0 1 .86-.19c.06 0 .08.03.07.12 0 .05-.03.08-.07.09l-.24.04c-.03 0-.04.03-.04.06l.2 1.17v.01l.33-.06c.05-.01.07.01.08.06l.01.06c.01.06 0 .09-.06.1l-.42.09ZM13.81 9.85h.74c.08 0 .09.03.02.07l-3.11 1.83c-.02.01-.03.03 0 .05l.01.02c.01.02.03.02.05.01l3.01-1.77.16-.1c.1-.06.18-.1.26-.1.05 0 .06-.02.04-.06l-.13-.33c-.02-.04-.04-.06-.08-.06h-.63c-.02 0-.03 0-.03-.03V8.3c0-.05.02-.07.07-.08l.6-.02c.03 0 .04-.02.04-.05V7.9c0-.03-.02-.04-.05-.04l-.99.04a.12.12 0 0 0-.09.04l-2.91 3.08c-.02.02-.02.03 0 .05l.47.22c.04.02.08.02.12 0l2.2-1.36a.44.44 0 0 1 .23-.08Zm.98-.33h-.74c-.02 0-.03 0-.03-.03L14 8.19c0-.02.01-.03.03-.03l.69-.05c.02 0 .03-.01.03-.04l-.02-.09c0-.02-.01-.03-.03-.03l-.92.06c-.02 0-.03.02-.03.04l-.02 1.69c0 .02.02.03.04.04h1.08c.03 0 .04 0 .03-.04l-.07-.2c0-.01-.01-.02-.03-.02ZM3.4 9.9c-.04-.02-.04-.04.01-.04h.78c.07 0 .15.02.23.07l2.2 1.36c.04.02.08.02.12 0l.46-.23c.02-.01.02-.03 0-.05L4.4 8.05a.85.85 0 0 1-.1-.16c-.01-.02-.02-.03-.04-.02l-.31.19c-.04.01-.05.04-.05.08V9.4c0 .03-.01.04-.04.04h-.68c-.02 0-.03 0-.04.03L3 9.8c0 .03 0 .05.03.05.08 0 .13.02.16.04l3.29 1.93h.04l.02-.03c.02-.02.02-.04 0-.06L3.4 9.91Zm.58-1.72V9.5c0 .02-.01.03-.03.03H3.2l-.03.03-.06.19c0 .03 0 .04.03.04h1.08c.02 0 .03-.01.03-.03l-.01-1.7c0-.01 0-.02-.02-.03H4.2l-.2.13a.03.03 0 0 0-.01.03Z" fill="#221F20"/><path d="M9.6 11.42c0-.04-.02-.07-.06-.07l-.1.01c-.04.01-.05.04-.04.08.02.06.05.1.09.12l.11.05c.17.07.29.14.35.18.11.09.18.18.21.3.05.21 0 .36-.13.44-.12.07-.28.08-.48.05a3.44 3.44 0 0 1-.58-.14c-.03-.01-.04-.03-.05-.06v-.35c0-.04.01-.06.05-.06h.35c.05 0 .08.03.09.07l.02.12c0 .04.03.07.07.08.04.02.08.01.12 0 .05-.03.07-.07.05-.13a.25.25 0 0 0-.15-.15 1.6 1.6 0 0 0-.16-.05 1.19 1.19 0 0 1-.4-.18.33.33 0 0 1-.11-.25c0-.1.02-.19.06-.26.12-.17.3-.23.56-.19.18.03.38.11.6.24 0 0 .02.02.02.05.02.09.02.19 0 .29 0 .02 0 .03-.02.02a7.47 7.47 0 0 1-.46-.13.16.16 0 0 1-.02-.08Zm-2.11.56c-.03-.07-.04-.07-.04 0 0 .2.02.41.08.63.02.07 0 .12-.06.14l-.41.2h-.04A.04.04 0 0 1 7 12.9a3.6 3.6 0 0 0 0-1.38c.01-.06.05-.1.11-.12l.51-.17c.04-.02.06 0 .07.03l.14.45c.01.03.02.03.03 0l.16-.55a.08.08 0 0 1 .07-.06c.18-.04.38-.06.59-.06.03 0 .04.01.04.05-.11.45-.1.9.01 1.36v.05a.05.05 0 0 1-.05.02l-.57.02H8.1l.03-.65H8.1a13.94 13.94 0 0 1-.15.61.2.2 0 0 1-.12.15c-.06.03-.1.01-.12-.05l-.21-.62Zm3.5 1c-.06-.3-.08-.64-.07-1 0-.06.01-.13.04-.22l.03-.1c.01-.08-.01-.13-.08-.16l-.55-.25h-.05a.05.05 0 0 0-.02.05l.04.19a1 1 0 0 1 .05.24v.54c0 .04-.01.1-.04.18a.5.5 0 0 0-.03.22c0 .02.01.03.03.04a5.14 5.14 0 0 1 .65.29v-.02Z" fill="#3E6098"/></svg>