<!-- by TradingView --><svg xmlns="http://www.w3.org/2000/svg" width="18" height="18"><path fill="#F0F3FA" d="M0 0h18v18H0z"/><path d="M8.28 8.78c.1-.83-.9-2.1-1.82-2.43-.4-.14-.91-.21-1.24.13-.29.3-.14.7.04 1.02.15.28.04.4-.23.5-.27.12-.53.24-.77.4-.49.28-.89.72-.72 1.25.7 2.26 4.7-.49 4.74-.87" fill="#E86B0E"/><path d="M10.19 8.24c-.42.27-.53.62-.34 1.08.12.3 1.3 2.8 2.89 1.64.9-.65-.14-1.36-.21-1.4-.25-.15-.25-.25.03-.4.53-.27 2.2-1.4 1.03-2-.77-.4-2.9.77-3.4 1.08" fill="#FDB630"/><path d="M9.25 4.98C9.13 4.7 8.8 3.52 8.17 3.7c-.54.15-.94 1.86.57 4.24.32.52.74.48 1.08-.02.64-.96 1.7-3.9 1.06-4.8-.4-.6-1.36 1.43-1.63 1.87" fill="#45A1C4"/><path d="M7.98 12.13c-.42.49-1.54 2.07-2.04 1.33-1.26-1.85 2.95-4.6 3.28-4.12 1.26 1.75.53 5.1-.46 5.58-1.2.59-.87-2.15-.78-2.79z" fill="#8AB71B"/></svg>