<!-- by TradingView --><svg width="18" height="18" viewBox="0 0 18 18" xmlns="http://www.w3.org/2000/svg"><path fill="#F0F3FA" d="M0 0h18v18H0z"/><path d="M14.29 8.16c0-.04-.03-.06-.07-.06h-.5c-.06 0-.08-.05-.08-.1v-.4c0-.07.02-.1.07-.1h1.26l.02.01v.02l.01.01v1.18l-.01.05a1.85 1.85 0 0 1-1.89.43c-.77-.24-.94-1.35-.76-2.14.22-.96.94-1.11 1.71-1.05.46.05.76.32.9.82a.06.06 0 0 1-.01.04l-.02.02h-.01l-.67.15-.06-.01a.1.1 0 0 1-.04-.05.46.46 0 0 0-.4-.3c-.62-.05-.7.72-.64 1.26.08.7.62.83 1.1.51.1-.07.09-.17.09-.29Z" fill="#EB1E28"/><path d="m6.76 8.24-1.98 3.68a.16.16 0 0 1-.06.06.14.14 0 0 1-.07.02H3.02L3 11.98a.04.04 0 0 1 0-.04l2.92-5.4c.23-.41.56-.59 1.02-.53.29.04.51.2.67.46a115.84 115.84 0 0 1 .65 1.22c0 .02 0 .05-.02.07l-.81 1.5-.02.02a.04.04 0 0 1-.03 0l-.02-.02-.55-1.02-.02-.01h-.02l-.01.01ZM10.02 6c.5 0 .7.24.98.75a6176.05 6176.05 0 0 0 2.8 5.23l-.01.01-.02.01h-1.64a.1.1 0 0 1-.06-.02 1746.09 1746.09 0 0 1-2.06-3.75H10l-.02.02a1614.48 1614.48 0 0 1-2.02 3.73.1.1 0 0 1-.05.02H6.24v-.02a.04.04 0 0 1 0-.04l2.8-5.2c.27-.5.47-.74.98-.74Z" fill="#026939"/><path d="m8.54 11.41.84-1.54h.01a.03.03 0 0 1 .03 0h.01l1.14 2.08a.03.03 0 0 1 0 .03V12H8.82l-.3-.54a.03.03 0 0 1 0-.04Z" fill="#026939"/></svg>