<!-- by TradingView --><svg width="18" height="18" viewBox="0 0 18 18" xmlns="http://www.w3.org/2000/svg"><path fill="#F0F3FA" d="M0 0h18v18H0z"/><path fill-rule="evenodd" d="M5.35 8V7H3.69C2.76 7 2 7.84 2 8.88v.24C2 10.16 2.76 11 3.7 11h1.65v-1H3.76C3.24 10 3 9.57 3 8.99c0-.58.24-.99.76-.99h1.59ZM6 7v4h1.96C8.42 11 9 10.67 9 9.92c0-.6-.3-.89-.46-.96.17-.07.46-.35.46-.92C9 7.18 8.32 6.99 7.96 7H6Zm1.8 1H7v.7h.8c.1 0 .2-.16.2-.35 0-.2-.1-.35-.2-.35Zm0 1.3H7v.7h.8c.1 0 .2-.16.2-.35 0-.2-.1-.35-.2-.35ZM9.5 11V7h2.13c.48 0 .87.46.87 1.02v.15c0 .17-.08.57-.49.76l.1.07c.24.14.39.43.39.74V11h-1v-.84c0-.26 0-.5-.22-.5h-.78V11h-1Zm1.8-3h-.8v.67h.8c.11 0 .2-.15.2-.34 0-.18-.09-.33-.2-.33Zm4.7 2v1h-3V7h3v1h-2v.5h1.7v1H14v.5h2Z" fill="#003F2D"/></svg>