<!-- by TradingView --><svg xmlns="http://www.w3.org/2000/svg" width="18" height="18" viewBox="0 0 18 18"><path fill="#FFC80D" d="M0 0h18v18H0z"/><path fill-rule="evenodd" d="M3.5 9a5.5 5.5 0 1 0 11 .02A5.5 5.5 0 0 0 3.5 9zM3 9a6 6 0 1 1 12 0A6 6 0 0 1 3 9zm3.6-.28c-.42-.1-.8.4-1.01.78.07-.52.71-1.37 1.02-.78zm-.94.01c.15-.5.49-.67.67-.53-.25.08-.43.23-.67.53zm.95.24c.35.09.37.37.15.55-.15-.45-.79.07-1 .35.05-.5.6-.96.85-.9zm3.25 1c.19.26.36.51.34.87.51-.69.25-1.2.04-1.61-.14-.27-.25-.5-.1-.69.08.12.33.35.59.43-.28-.37-.26-.7-.24-1.02.03-.46.05-.94-.71-1.55.44.69.16 1.36-.07 1.94-.14.33-.26.63-.22.88.06.3.22.53.37.75zM8.4 5.84c.1-.13-.16-.24-.32-.24-.02.14-.2.22-.38.32-.22.1-.46.23-.55.46.2-.17.42-.22.63-.27.22-.06.44-.1.62-.27zm-.76 1.2c-.05 0-.1-.07-.1-.16.05.16.21.08.12-.15h.31a.68.68 0 0 0-.2.2c-.05.05-.1.1-.13.1zm1.63-.96c.15-.17.01-.4-.62-.48.36.17.21.27 0 .41-.19.12-.41.27-.43.52a.85.85 0 0 1-.46.03c-.13-.02-.24-.04-.33.04-.16.15-.35.04-.3-.13-.2.1-.15.37.04.46.04.01.07.05.04.08-.21.2-.31.37-.09.57.12-.22.18-.3.32-.41.12.08.35.02.64-.3.02-.02.04-.02.03 0-.24.82-.84.95-1.04.92.12.17.9.28.99-.06.1-.34.29-.6.43-.78.18-.23.26-.33-.11-.33.1-.1.31-.21.5-.31.18-.09.33-.16.39-.23zm.32-.42c.32.2.47.34.67.58.04-.33-.15-.99-.43-1.14-.12-.06-.3.4-.24.56zM6.1 6.7c-.8.47-1.29 1.1-1.5 1.64a6.14 6.14 0 0 1 1.8-1.44c.18-.65.4-.84 1.25-1.23l.16-.07c.33-.16.8-.37 1.2-.4a.9.9 0 0 1-.08.25c.17 0 .3-.1.34-.26.1-.47.27-1.1.59-.84.24.2.8.87.83 2.05-.06.03-.16.04-.26 0 .3.58 1.25.85 1.03.08l.1.08c.42.28.99.67 1.07 1.5.23-.97-.07-1.64-.53-2.04.22.03.5.09.75.25a3.67 3.67 0 0 0-1.51-1.06 13.6 13.6 0 0 1-.12-.06c-.39-.49-.63-.67-.89-.87a7.99 7.99 0 0 1-.22-.17c-.35-.29-.61-.26-.75-.05-.15.24-.27.7-.3.86l-.21.03c-.2-.3-.5-.43-.58-.43-.05 0-.06.15-.08.34l-.04.3c-1.75.67-1.86 1-2 1.4l-.05.14zm2.77 1.47c.1.11.66.96 0 2.04.18-.8-.31-2.32-.86-1.54.37.16.5.47.4.76-.16-.28-.55-.59-.93-.46-.19.06-.44.07-.63-.22-.1-.13-.1-.28-.1-.4 0-.22 0-.39-.44-.37.54-.27.64-.04.74.2.06.13.12.27.28.31.38.1.49-.08.6-.24l.1-.13c.13-.16.37-.28.63-.1.04-.14.05-.3.05-.48.01-.3.02-.6.24-.8.13-.12.54-.1.75.06-.3 0-.65.36-.83 1.37zM6.9 11.6a.47.47 0 0 1-.14-.34c.14.1.34.14.34.14s-.1.15-.2.2zm.94-.92l-.08-.02-.04.16c-.01.09-.02.16-.07.2.43-.2.6-.29.64-.57.01-.1-.28-.14-.36-.12.06.07.14.3.06.35-.05.04-.1.02-.15 0zm-1.5-.46a.47.47 0 0 0-.28.21c0 .16.33.37.33.37s-.08-.33-.06-.58zM4.56 8.9c.02.1.27.35.42.46.13-.08.08-.19.07-.23A.21.21 0 0 0 5 9.07c-.05-.05-.11-.1-.08-.2.02-.05.06-.07.1-.09.03 0 .05-.02.05-.04.02-.03-.06-.1-.18-.07a.77.77 0 0 0-.32.22zm8.51 1.63c.45-.87.57-2.33.14-3.84a4.81 4.81 0 0 1-3.2 7.04c.4-.5.7-1.22.67-1.46-.42.3-1.26.45-1.45.34.78-.7.66-1.44.2-1.5-.45-.05-.97.64-.93 1.6-.1-.05-.27-.07-.46-.09-.5-.05-1.19-.11-1.27-.83-.14-.21-.2-.58-.16-.72.66.37.76.03.87-.35.08-.26.16-.53.44-.59-.07-.2-.63-.66-1.39.1-.03.12-.03.61.03.79-.34-.05-.62-.38-.68-.47-.37-.03-.72-.14-1.07-1.07a1.45 1.45 0 0 1-.55-.59.8.8 0 0 1 .27-.47s-.08.2-.03.29c.38-.31.55-.23.7-.15.08.05.16.09.26.06 0 .18-.08.33-.17.48-.09.15-.18.3-.16.47.21.57.36.63.78.7.18-.1.35-.23.52-.36.32-.24.63-.48 1.04-.49.5 0 1.14.24 1.24.94.07.5-1 1.21-1.42 1.07-.69.75.47 1 .85.88.27-1.27.95-1.63 1.48-1.45.6.2.67.95.27 1.37.32-.07.8-.33.96-.93.12.13.16.46.17.57.34-.5.23-1.58-.04-2 .22.02.43.1.65.3.15-.8-.36-1.8-.6-1.97.16-.01.38 0 .68.14a1.64 1.64 0 0 0-.28-.61c-.12-.19-.23-.35-.23-.54.05.1.17.18.3.27.33.23.77.53.74 1.41-.1-.1-.34-.2-.45-.21.32.81.3 1.61.13 2.18a.75.75 0 0 0-.29-.3c.1.45-.03 1.68-.34 2.18 1.24-.86 1.22-1.98 1.2-2.93 0-.63-.01-1.19.35-1.54-.12.56.01 1.07.12 1.5.07.3.13.56.11.78z" fill="#010000"/></svg>