<!-- by TradingView --><svg width="18" height="18" viewBox="0 0 18 18" xmlns="http://www.w3.org/2000/svg"><path fill="#F0F3FA" d="M0 0h18v18H0z"/><ellipse cx="8.98" cy="9" rx="4.98" ry="5" fill="#1C4283"/><path d="M14 9.2a4.38 4.38 0 0 1-7.79-.14 4.38 4.38 0 0 1 7.79.15Z" fill="#80B745"/><path d="M10.35 11.5h-.24a4.35 4.35 0 0 1-4.34-4.35c0-.88.23-1.76.68-2.44a4.46 4.46 0 0 1 4.6 4.4c0 .88-.25 1.7-.7 2.39Z" fill="#EBAE3C"/><path d="M6.3 13.21c1.53-.02 3.15-.6 4.05-1.73.5-.63.7-1.52.7-2.37 0-.86-.24-1.66-.67-2.33l-.35-.01a4.5 4.5 0 0 0-3.82 2.3 4.6 4.6 0 0 0 .1 4.14Z" fill="#4497D4"/><path d="M10.35 11.5a4.4 4.4 0 0 0 .04-4.72A4.38 4.38 0 0 0 6.2 9.06a4.38 4.38 0 0 0 4.14 2.44Z" fill="#fff"/></svg>