<!-- by TradingView --><svg width="18" height="18" viewBox="0 0 18 18" xmlns="http://www.w3.org/2000/svg"><path fill="#F0F3FA" d="M0 0h18v18H0z"/><path d="M10.55 5h.13c.17.08.33.21.47.4a6413.95 6413.95 0 0 0 4.82 6.2c.1.22-.08.4-.29.4H11.6c-.65 0-1.07-.17-1.48-.69a1557.54 1557.54 0 0 0-2.35-2.95c.02-.02.03-.04.02-.05l2.37-3.03c.09-.11.22-.2.39-.28Z" fill="#003766"/><path d="M7.8 8.3c0 .02 0 .04-.03.06l-.03.01-.01.01a275 275 0 0 0-2.23 2.86c-.18.23-.34.4-.5.49-.27.17-.54.27-.85.27H2.31c-.15 0-.25-.1-.3-.23a.11.11 0 0 1 0-.08c.03-.1.08-.2.15-.28l3.6-4.6c.28-.37.65-.23.9.09l1.06 1.36c.02.03.04.03.07.05Z" fill="#9DA1A4"/></svg>