<!-- by TradingView --><svg width="18" height="18" viewBox="0 0 18 18" xmlns="http://www.w3.org/2000/svg"><path fill="#F0F3FA" d="M0 0h18v18H0z"/><path d="M13.75 6.38c-.1.32-.05.52.18.6.04.02.05.05.01.08a.58.58 0 0 1-.24.15l-.13.03c-.11.02-.11.05 0 .08l.24.06c.1.1.2.2.26.35.02.04.06.07.1.09.13.03.3.03.54-.02.15.14.01.33-.4.55a.14.14 0 0 0-.1.14c.01.06.04.1.1.14.06.03.13.09.19.17.02.04.02.07-.03.09a.36.36 0 0 1-.18.02c-.02 0-.03.01-.04.03V9l.28.05c.06.01.1 0 .15-.05a.22.22 0 0 1 .22-.07c.06.02.07.05.03.1-.07.07-.07.13 0 .17.05.03.05.07 0 .1-.15.1-.26.15-.32.15-.1 0-.14.03-.14.1 0 .08-.05.13-.12.16a.14.14 0 0 1-.15-.02l-.14-.12c-.06-.04-.07-.03-.04.04.07.16.19.3.36.4.04.03.07.03.09 0l.03-.05c.02-.04.07-.05.14-.01h.05c.06-.01.07-.04.02-.08-.2-.14-.23-.24-.1-.3.43.14.5.45.23.9-.03.05-.02.12.03.22v.03c-.06 0-.1.01-.1.05-.01.04 0 .08.03.12v.05c-.39.07-.74.07-1.05 0 0-.12.03-.19.11-.2l.05-.05a.1.1 0 0 0 .02-.04c0-.04-.02-.07-.07-.08a.32.32 0 0 0-.25.04c-.05.03-.1.03-.13.01l-.18-.08a.14.14 0 0 0-.11 0l-1 .4c-.02.01-.02.03-.01.05l.02.05a8.41 8.41 0 0 1 1.06-.28c.04-.02.07 0 .07.08-.04 0-.07 0-.1.03a.11.11 0 0 0-.06.07V11c0 .04-.01.05-.05.06l-.66.05c-.1 0-.22.08-.33.22-.18.03-.27-.01-.28-.14 0-.05-.02-.09-.07-.11a.12.12 0 0 0-.14.02.51.51 0 0 0-.17.3c-.14.09-.17.2-.09.34l.03.02c.1.17.1.35 0 .56-.03.05-.02.09.03.12.1.05.23.08.38.1.05 0 .08-.03.08-.08 0-.07.02-.12.06-.15.05-.03.08-.01.09.04.02.1.09.18.2.27l1.7.16c.5.04.5.08 0 .11-.08 0-.22.03-.41.06-.15.03-.29.03-.42.02a2.67 2.67 0 0 0-.72.01c-.1.02-.24.01-.4-.01l-.41-.06c-.07-.01-.12 0-.15.01-.12.06-.26.06-.42 0a.23.23 0 0 0-.14-.02c-.45.11-.9.12-1.37.02v-.07l1.36-.16c.1 0 .15-.06.17-.16.04-.17.05-.38.04-.65 0-.23-.08-.4-.24-.52-.13-.1-.3-.13-.53-.08a.67.67 0 0 1-.36 0c-.24-.1-.39-.17-.45-.23-.06-.05-.05-.09.01-.1.07-.01.13.03.19.13.03.05.07.06.11.01a.32.32 0 0 0 .08-.14c0-.05.04-.07.08-.06a.1.1 0 0 1 .06.02.2.2 0 0 0 .13.07l.33.05c.04.04.1.06.15.07.08.1.14.12.2.08.02-.02.03-.05 0-.07a.2.2 0 0 0-.09-.05.63.63 0 0 1-.22-.07c-.17-.12-.39-.19-.64-.2.02-.07.02-.11 0-.13-.03-.04-.05-.04-.06 0-.02.04 0 .08.04.12a.66.66 0 0 1-.6-.03h-.03a.06.06 0 0 0-.04.03c-.02.03-.01.05.02.07.05.03.1.07.12.13.02.04 0 .08-.04.09l-.35.12c-.09.03-.12 0-.1-.06 0-.02 0-.04-.02-.07-.03-.03-.07-.04-.11-.03l-.35.12c-.09-.04-.15-.14-.19-.3a.12.12 0 0 1 .04-.12c.04-.04.03-.08 0-.12a.36.36 0 0 0-.13-.14.52.52 0 0 1-.04-.18c.07-.02.08-.09.04-.22-.04-.2.04-.31.22-.34.03 0 .05 0 .06-.02a.08.08 0 0 0 .03-.04c.01-.04 0-.07-.05-.08l-.15-.05c-.06-.02-.08-.06-.07-.11a.1.1 0 0 1 .03-.07c.04-.03.05-.08.03-.13l-.08-.15c.11-.04.2-.03.27.02l.13.08c.06.02.12.02.18 0 .05-.03.05-.05 0-.08l-.25-.11a.61.61 0 0 1 .25-.19l.16-.11c-.14-.28.01-.28.43 0l.56.37c.04.03.1.03.14 0a.87.87 0 0 1 .7-.05h.04l.03-.03c.04-.03.03-.06 0-.08a.2.2 0 0 1-.07-.04c-.04-.04-.01-.06.07-.05.12.01.25 0 .4-.04a.09.09 0 0 0 .08-.07c0-.05 0-.08-.04-.1-.15-.1-.3-.06-.48.1-.1.1-.17.14-.21.15-.21.02-.42.04-.61.04-.06 0-.1 0-.13-.03-.05-.05-.06-.1-.02-.18.03-.05.02-.06-.04-.03a.07.07 0 0 0-.03.05c-.01.05-.05.08-.1.06a.51.51 0 0 1-.24-.14 1.03 1.03 0 0 0-.77-.32c-.16 0-.25-.09-.25-.26 0-.02.06-.08.16-.2.14-.14.35-.23.62-.24.2 0 .35-.03.45-.12.04-.03.03-.05-.02-.06l-.58-.03c-.04-.2 0-.36.1-.46.14-.14.35-.2.64-.18.02 0 .03-.01.03-.04v-.04a.93.93 0 0 1-.4-.13c.29-.14.57-.19.85-.15.05 0 .06-.01.03-.05a.42.42 0 0 0-.26-.19.14.14 0 0 1-.11-.1.14.14 0 0 1 .04-.15c.2-.2.37-.27.51-.26.04.12.1.17.2.13.08-.02.15-.1.2-.23a.14.14 0 0 1 .11-.09l.47-.11c.02 0 .03-.02.03-.03V5.2c0-.04-.02-.05-.05-.03-.2.08-.4.1-.59.08A.72.72 0 0 1 11.3 5c.14 0 .35.05.63.14.16.06.3.15.44.28.19.18.42.3.7.39.05.01.1.04.13.07l.56.5Z" fill="#20376A"/><path d="M9.3 6.53a.93.93 0 0 0 .41.13v.04c0 .03-.01.04-.03.04-.29-.02-.5.04-.64.18-.1.1-.14.26-.1.46l-.31-.12-.04.01-.03.04.53.28c-.27.01-.48.1-.62.25a.96.96 0 0 0-.2-.3.14.14 0 0 0-.14-.05c-.13.02-.24-.04-.33-.19-.03-.05-.08-.06-.13-.04l-.45.19c-.04.01-.06.04-.06.09v.03c0 .03.01.04.04.04a.56.56 0 0 0 .34-.12c.04-.04.08-.04.12-.02.17.1.31.15.45.17a.2.2 0 0 1 .12.05c.06.07.15.12.24.15-.1.1-.16.17-.16.2 0 .16.09.25.25.25.3 0 .56.1.77.32a.21.21 0 0 0-.05.07c-.42-.28-.57-.28-.43 0l-.37-.15a.79.79 0 0 0-.14-.05l-.44-.06c-.05 0-.07-.04-.06-.1.01-.1 0-.16-.03-.2-.03-.03-.07-.03-.12 0-.07.03-.12.03-.17-.01a.93.93 0 0 0-.49-.26.3.3 0 0 1-.14-.05c-.17-.11-.3-.15-.39-.12-.2.07-.19.14.02.2l.9.29c.07.02.09.05.07.11l-.02.06c-.02.05-.06.07-.11.04-.24-.1-.41-.12-.5-.07-.05.02-.05.05 0 .07.32.13.61.15.87.06.07-.02.11 0 .13.07l.06.12c.03.04.06.06.1.07l.67.1a.61.61 0 0 0-.25.18.88.88 0 0 0-.42-.09.15.15 0 0 1-.12-.06.16.16 0 0 0-.09-.06l-.05.01a.04.04 0 0 0 0 .05c.08.17.2.24.35.24l.08.15c.02.05.01.1-.03.13a.1.1 0 0 0-.04.07c0 .05.02.09.08.1l.15.06c.05 0 .06.04.05.08 0 .02-.01.03-.03.04a.12.12 0 0 1-.06.02c-.18.03-.26.14-.22.34l-.2.03c-.05.01-.09-.01-.09-.07v-.15c0-.03-.01-.05-.05-.05H7.7c-.04 0-.05.02-.05.06.03.24.17.37.41.4 0 .05.01.11.04.18a2.7 2.7 0 0 1-.34-.06c-.11-.03-.2-.03-.25 0a.71.71 0 0 0-.22.16c-.03.04-.03.05.03.03.33-.12.6-.09.81.09.04.03.07.03.09-.02a.1.1 0 0 0 0-.06c.04.04.05.08 0 .12a.12.12 0 0 0-.03.12c.04.16.1.26.2.3-.53-.12-.96-.05-1.3.2a.18.18 0 0 0-.07.12 3.4 3.4 0 0 0-.01.84c.01.11.06.21.15.3.09.08.19.12.3.13l2.06.11v.07c-.85.03-1.7.04-2.56.03-.36 0-.96.02-1.8.06l-.34-.01c-.32-.05-.33-.1-.02-.16.28-.05.6-.07.94-.08.17 0 .27-.09.28-.27L6 11.8c-.01-.15-.06-.26-.16-.33a.91.91 0 0 0-.66-.17c-.1.02-.2.02-.26.02-.05 0-.09-.02-.11-.04-.04-.05-.04-.09 0-.12l.05-.04c0-.04 0-.06-.04-.06-.06-.02-.1 0-.14.02a.13.13 0 0 1-.13.03c-.16-.05-.34-.03-.54.07-.07.03-.11.02-.14-.03-.02-.04-.06-.06-.11-.05a2.3 2.3 0 0 1-.43.04c-.13 0-.21-.03-.24-.1a.27.27 0 0 1 .02-.22c.03-.06.08-.1.15-.1.05 0 .12.03.2.11.06.06.1.05.12-.03 0-.03 0-.06-.03-.08a.14.14 0 0 0-.08-.04c-.25-.04-.4-.13-.44-.26a.65.65 0 0 1 .04-.48.18.18 0 0 1 .1-.1l.2-.08c.04-.02.04-.04.01-.08a.28.28 0 0 0-.21-.1c-.05 0-.08-.03-.1-.09 0-.05.01-.08.04-.1.05-.04.05-.08.03-.14l-.1-.06c-.06-.04-.06-.06.02-.08.14-.02.25 0 .35.06.07.04.13.04.19.01.04-.02.05-.05.02-.1a1.98 1.98 0 0 0-.05-.04c-.03-.03-.04-.07-.04-.1 0-.04.05-.08.14-.1.08 0 .15.04.21.13.04.06.1.09.17.09s.12-.04.15-.1l.01-.05c.02-.04.04-.05.07-.05.13.01.23.06.3.15l.12.06c.18.02.37 0 .57-.05.06-.01.1-.02.14-.01l.2.04c.04 0 .07-.01.1-.05l.17-.2c.08.03.16.03.23.03.05-.01.07-.04.06-.1a.18.18 0 0 0-.1-.11c-.2-.1-.33-.06-.38.1-.26.16-.58.23-.96.2-.2-.02-.21-.08-.04-.18.06-.03.2-.05.41-.05.05 0 .08-.02.09-.08 0-.04-.02-.09-.08-.13a4.28 4.28 0 0 0-.45-.28.43.43 0 0 0-.03.03v.05c.07.09.16.16.27.22l.02.04c0 .02-.02.03-.04.03-.12.02-.27.07-.45.15-.04.02-.07 0-.1-.04a.35.35 0 0 0-.32-.22c-.34.03-.6-.06-.79-.28-.03-.04-.03-.08 0-.12l.29-.27.06-.02c.28-.04.56-.12.84-.23.16-.06.16-.1-.02-.12l-.43-.05c-.05 0-.08-.03-.08-.09 0-.1.04-.21.11-.32.13-.07.25-.13.39-.18l.38-.02c.17 0 .27-.07.32-.2a.13.13 0 0 1 .11-.1c.09 0 .16 0 .22.04.06.03.06.07.03.12a.48.48 0 0 1-.2.16v.04l.01.04c.01.03.04.04.07.01.22-.18.42-.19.58-.01.04.04.1.05.15.05a.5.5 0 0 0 .25-.1.17.17 0 0 1 .14-.04c.08.01.15.05.22.1a.2.2 0 0 0 .13.04h.35c.02 0 .03 0 .04-.03l.02-.04c0-.02 0-.03-.02-.02l-.19.02c-.05 0-.09-.01-.1-.06l-.05-.1c-.02-.06 0-.1.06-.1.1-.02.15-.06.2-.12v-.08c-.03-.04-.07-.05-.11-.03-.49.23-.8.36-.95.38-.1.02-.18-.02-.22-.12-.01-.05-.05-.07-.1-.08a.35.35 0 0 1-.23-.1.17.17 0 0 0-.14-.05.35.35 0 0 1-.33-.16.17.17 0 0 0-.08-.07.16.16 0 0 0-.12 0l-.05-.08c-.04-.05-.03-.09 0-.12l.29-.21c.04-.03.08-.04.13-.02.12.06.22.08.3.07.06 0 .1-.02.13-.06.11-.16.18-.3.18-.43.01-.08.04-.15.1-.2a.27.27 0 0 1 .22-.06c.32.05.63.13.94.24.05.01.09.04.12.08l.08.1c.09.1.18.18.27.22.46.17.85.45 1.17.83.03.03.04.07.04.1v.06c0 .03.02.04.04.05.22.02.4-.04.52-.18Z" fill="#7689BA"/><path d="M6.2 5.4c-.08.05-.13.07-.15.07-.06 0-.09-.04-.08-.1.01-.12.05-.19.1-.22.04-.02.12 0 .23.05.05.03.06.06.03.12-.01.02-.05.05-.13.09Z" fill="#BAC1DA"/><path d="m11.43 5.78-.05.02c-.05.01-.05 0-.02-.03.1-.1.2-.13.33-.12.06 0 .08.03.04.09-.04.07-.12.09-.23.05a.12.12 0 0 0-.07 0ZM6.54 5.7h.1c.04.02.04.05 0 .08-.1.09-.19.1-.25.04-.1-.08-.08-.13.05-.16l.05.02.05.01Z" fill="#DEDEE6"/><path d="M11.9 5.89c.04-.03.07-.03.08.02v.08c-.02.05-.05.06-.08.01-.04-.04-.03-.08 0-.11Z" fill="#BAC1DA"/><path d="M11.17 6.06a.27.27 0 0 1-.07.06c-.12.05-.13.02-.04-.1a.22.22 0 0 1 .06-.05c.17-.08.18-.05.05.1Z" fill="#DEDEE6"/><path d="M5.52 6.12c-.06-.04-.05-.07.01-.08.12-.03.23 0 .32.12v.06a.07.07 0 0 1-.06.04c-.03.01-.13-.04-.27-.14Z" fill="#BAC1DA"/><path d="M10.65 6.08c.1-.03.17-.02.2.04.03.04.02.06-.02.06a.35.35 0 0 1-.19-.05c-.04-.02-.04-.04 0-.05ZM11.45 6.26l-.02.06c0 .03 0 .03-.03.02-.02-.02-.03-.05-.03-.08 0-.06.03-.1.07-.12.23-.12.48-.06.75.17l.1.12c.06.08.2.08.42 0 .07-.02.08 0 .04.05-.09.11-.19.16-.3.15a.18.18 0 0 1-.13-.08.73.73 0 0 0-.45-.29.22.22 0 0 0-.14.02c-.06.02-.13.01-.2-.04-.03-.02-.06-.01-.08.02Z" fill="#DEDEE6"/><path d="M4 6.95c0-.1.07-.18.18-.22a.1.1 0 0 0 .07-.08c.02-.18.14-.27.34-.27l.26-.01c.06-.01.08-.04.06-.1a.31.31 0 0 0-.09-.12.16.16 0 0 1 .12-.01c.03.01.06.03.08.07.08.11.2.17.33.16.06 0 .1.01.14.05.07.07.15.1.23.1.05 0 .09.03.1.08.04.1.11.14.22.12.15-.02.46-.15.95-.38.04-.02.08-.01.1.03.02.03.02.05 0 .08-.04.06-.1.1-.19.12-.06 0-.08.04-.06.1l.05.1c.01.05.05.07.1.06l.19-.02c.01 0 .02 0 .02.02l-.02.04c0 .02-.02.03-.04.03h-.35a.2.2 0 0 1-.13-.04.48.48 0 0 0-.22-.1c-.05-.01-.1 0-.14.03a.5.5 0 0 1-.25.1.16.16 0 0 1-.15-.04c-.16-.18-.36-.17-.58.01-.03.03-.06.02-.07-.01l-.02-.04c0-.02 0-.03.02-.04.08-.04.15-.1.19-.16.03-.05.03-.09-.03-.12a.33.33 0 0 0-.22-.03.13.13 0 0 0-.1.09c-.06.13-.16.2-.33.2l-.38.02c-.14.05-.26.1-.39.18Z" fill="#BAC1DA"/><path d="M6.62 6.3c.07.01.14 0 .16-.05.01-.05-.04-.1-.11-.13-.07-.02-.15 0-.16.05-.01.04.03.1.1.12ZM12.53 6.17c.03-.01.04 0 .03.04 0 .03-.04.06-.12.08-.1.03-.12 0-.06-.09l.15-.03ZM7.28 6.21h.21c.07 0 .08.02.03.07-.06.06-.15.06-.26 0-.02 0-.02-.02-.02-.04s.02-.03.04-.03Z" fill="#DEDEE6"/><path d="M10.45 6.46c-.08-.08-.07-.1.04-.06.02 0 .04.02.03.05 0 .03-.01.04-.04.03a.12.12 0 0 1-.03-.02ZM14.7 7.8c-.22.05-.4.05-.52.02a.17.17 0 0 1-.1-.1 1.01 1.01 0 0 0-.27-.34.3.3 0 0 0 0-.1.07.07 0 0 0-.06-.06l-.05-.01c.1-.03.18-.08.24-.15.04-.03.03-.06-.02-.08-.22-.08-.27-.28-.17-.6l.24.3c.08.1.1.17.1.22 0 .05-.02.1-.05.16-.03.05-.02.09.03.12.11.06.16.16.15.28 0 .05.01.08.06.08.15.02.3.1.43.26Z" fill="#657396"/><path d="m11.93 6.75.03.06c0 .03-.01.06-.04.07a.08.08 0 0 1-.1-.02c-.2-.18-.45-.18-.74 0-.05.03-.12 0-.21-.1l.02-.03a.07.07 0 0 1 .07 0c.1.03.16.01.17-.07.01-.06.05-.1.1-.09.14 0 .34-.06.63-.17.05-.02.1-.01.13.04.04.04.04.09 0 .14l-.07.1c-.02.02-.02.05 0 .07Z" fill="#DEDEE6"/><path d="m13.1 6.66-.14-.14c-.06-.07-.05-.1.04-.08.05 0 .1.03.13.07.04.03.05.07.05.12 0 .02 0 .03-.03.04h-.05Z" fill="#7689BA"/><path d="M7.23 6.6c.08-.12.2-.15.36-.09.07.03.07.06 0 .09l-.27.1c-.03.02-.06.01-.08-.01-.02-.03-.03-.06 0-.1Z" fill="#DEDEE6"/><path d="M10.03 6.48c.04-.02.07-.03.1-.02.03.02.04.04.01.06a.38.38 0 0 1-.22.09c-.03 0-.05-.01-.07-.04-.03-.04-.01-.07.03-.08h.15Z" fill="#BAC1DA"/><path d="M10.42 6.69c.05-.04.1-.05.17-.04.06.02.06.04.01.07a.43.43 0 0 1-.26.06c-.06 0-.07-.02-.01-.05a.2.2 0 0 1 .05-.02.2.2 0 0 0 .04-.02Z" fill="#DEDEE6"/><path d="M12.53 6.81c.01-.03.04-.04.07-.03.02 0 .03.01.04.04 0 .02 0 .04-.02.05-.04.04-.08.06-.1.04-.04 0-.04-.03-.03-.05v-.02a.4.4 0 0 0 .04-.03Z" fill="#BAC1DA"/><path d="M5.72 7.37a.97.97 0 0 0-.18-.07c-.07-.02-.08-.03-.02-.05.03 0 .05-.02.05-.04.03-.05.03-.09 0-.1a.5.5 0 0 1-.03-.04.07.07 0 0 1-.01-.07c0-.02 0-.03.02-.04.03-.02.05-.02.07.01.05.11.12.21.22.3.07.06.1.14.06.23a.21.21 0 0 1-.17.17 4.17 4.17 0 0 0-.58.12.06.06 0 0 1-.03-.03l.01-.04c.16-.1.35-.16.55-.2.18-.02.2-.07.04-.15Z" fill="#DEDEE6"/><path d="M11.47 7.44c.36-.12.65-.27.88-.46.06-.05.07-.04.04.03a.47.47 0 0 1-.2.2.36.36 0 0 0-.1.1l-.18.23c-.03.05-.08.06-.13.04l-.3-.1c-.04-.02-.04-.03 0-.04Z" fill="#fff"/><path d="M9.3 6.98c.01-.03.05-.04.09-.03.02 0 .03.01.04.03.05.06.02.09-.1.1a.05.05 0 0 1-.04-.04.05.05 0 0 1 0-.06ZM11.31 7.04c.05-.05.08-.04.1.02 0 .03 0 .09-.02.16-.02.06-.06.08-.11.05-.1-.04-.08-.12.03-.23Z" fill="#7689BA"/><path d="M4.65 7.1c.08 0 .13.04.15.13 0 .02 0 .04-.02.05a.05.05 0 0 1-.06 0c-.07-.03-.12-.07-.13-.11-.01-.05 0-.08.06-.08Z" fill="#BAC1DA"/><path d="M6.5 7.17a.26.26 0 0 1-.15.06c-.05 0-.06-.02-.04-.06.04-.1.1-.1.18-.02v.02Z" fill="#DEDEE6"/><path d="M9.64 7.15c-.01-.04 0-.06.04-.05.05 0 .09.04.1.1 0 .02 0 .04-.04.03-.05 0-.09-.04-.1-.08Z" fill="#BAC1DA"/><path d="M11.57 7.2h-.05c-.07-.03-.08-.05 0-.08s.14-.03.17 0v.05a.13.13 0 0 1-.07.02h-.05Z" fill="#7689BA"/><path d="m10.81 7.4-.03-.03a.13.13 0 0 0-.07-.03c-.12 0-.19-.03-.21-.06-.03-.03-.02-.06.02-.08.1-.03.2-.04.3-.02.06 0 .09.04.09.1v.27c0 .06-.03.1-.1.11-.03 0-.07 0-.1-.02-.05-.03-.06-.06-.01-.1l.1-.06c.03-.02.04-.05.01-.08Z" fill="#fff"/><path d="M13.7 7.21h.05c.04.02.06.04.06.07a.3.3 0 0 1 0 .1l-.24-.06c-.11-.03-.11-.06 0-.08l.13-.03ZM13.34 7.45l-.25.11-.23-.02a.17.17 0 0 1-.12-.07c-.14-.17-.18-.16-.12.05-.07.05-.1 0-.07-.17l.13-.07c.04-.03.08-.02.12.01.14.13.32.18.54.16Z" fill="#DEDEE6"/><path d="M12.55 7.35c-.03.16 0 .22.07.17.23.12.13.14-.32.06-.05-.01-.07-.04-.06-.1.03-.1.13-.15.3-.13ZM9.9 7.38c.05 0 .08.01.11.03.05.03.06.07.01.11a.17.17 0 0 1-.04.03h-.05l-.07-.09c-.05-.06-.03-.09.04-.08Z" fill="#fff"/><path d="M4.79 7.53c0-.05.02-.07.03-.08.02-.03.04-.04.05-.04.07 0 .12.01.15.05.04.06.03.1-.03.13-.12.06-.18.15-.17.27 0 .06-.02.08-.07.08-.1 0-.26.03-.45.11-.1.04-.11.02-.04-.05.07-.09.22-.2.45-.36a.18.18 0 0 0 .08-.11Z" fill="#BAC1DA"/><path d="M11.05 7.44c.1-.04.14-.04.15 0 .02.04 0 .06-.04.07-.08 0-.12 0-.13-.02 0-.02 0-.04.02-.05Z" fill="#7689BA"/><path d="M13.53 8a.26.26 0 0 0-.08-.1c-.06-.04-.1-.03-.14.03a.2.2 0 0 1-.02-.08h.04c.01 0 .02-.01.01-.03a.3.3 0 0 0-.19-.2l-.06-.06.25-.11.3.2a.1.1 0 0 1 .05.11.1.1 0 0 1-.07.1c-.05.02-.07.06-.09.13Z" fill="#657396"/><path d="M10.26 7.7c.06-.1.12-.14.18-.12.06.02.07.05.02.1-.07.05-.13.08-.17.08-.05 0-.06-.02-.03-.06Z" fill="#DEDEE6"/><path d="M13.29 7.85c-.12-.03-.17-.11-.13-.24.09.03.15.1.18.2.01.03 0 .04-.01.04h-.04Z" fill="#BAC1DA"/><path d="m8.85 8.68-.16.11-.66-.1a.16.16 0 0 1-.11-.06.34.34 0 0 1-.06-.12c-.02-.07-.06-.1-.13-.07-.26.1-.55.07-.87-.06-.05-.02-.05-.05 0-.07.09-.05.26-.03.5.07.05.03.09.01.1-.04l.03-.06c.02-.06 0-.1-.06-.11l-.91-.29c-.21-.06-.22-.13-.02-.2.09-.03.22 0 .4.12a.3.3 0 0 0 .13.05c.15.02.32.1.49.26.05.04.1.04.17 0 .05-.02.09-.02.12.02.03.03.04.1.03.2-.01.05 0 .08.06.1l.44.05.14.05.37.15ZM12.59 7.94c.02 0 .03.02.01.03l-.1.14c-.02.03-.05.04-.08.03l-.99-.35c-.06-.03-.06-.06 0-.1.07-.03.13-.05.2-.02.3.1.62.18.96.27Z" fill="#fff"/><path d="M5.58 7.87c.1-.02.17-.02.2 0 .06.04.06.07 0 .1-.09.05-.16.06-.22.01a.06.06 0 0 1-.02-.06c0-.02.02-.04.04-.05ZM10.75 8c-.07-.02-.11-.05-.12-.07 0-.03 0-.05.02-.07a.06.06 0 0 1 .07 0c.1.03.15.08.17.13.03.06 0 .08-.05.08l-.04-.03a.17.17 0 0 0-.05-.03ZM13.53 8a.8.8 0 0 1-.43.2c-.06.01-.08 0-.05-.06a.48.48 0 0 1 .26-.21c.03-.06.08-.07.14-.03.04.02.06.05.08.1ZM10.57 8.26c.04.02.05.04.06.05.01.03 0 .06-.02.08a.1.1 0 0 1-.09.02c-.13-.02-.2-.11-.18-.26.01-.13.05-.14.12-.03l.04.06c.02.04.04.07.07.08Z" fill="#DEDEE6"/><path d="M11.22 8.3c-.1-.1-.18-.07-.26.08-.03.04-.06.06-.11.05-.05 0-.07-.06-.07-.14 0-.04 0-.08.04-.11.16-.18.28-.21.38-.1l.2.23c.02.02.02.04 0 .06l-.03.04c-.01.01-.03.02-.05 0a.14.14 0 0 1-.08-.08.1.1 0 0 0-.02-.04ZM6.08 8.3a.66.66 0 0 0-.26.1c-.06.03-.1.01-.1-.06 0-.06.03-.13.11-.23.05-.05.1-.07.17-.07.06.01.11.04.14.1.06.1.19.12.37.04.03-.01.06 0 .07.03l.02.05c0 .01 0 .03-.02.03l-.32.1c-.03 0-.05 0-.07-.02l-.02-.03a.09.09 0 0 0-.09-.04ZM12.65 8.12c.06-.04.12-.04.18 0l.1.08c.05.04.05.09-.01.12a.98.98 0 0 1-.41.14c-.12.01-.31-.03-.6-.1-.06-.03-.07-.05 0-.08.13-.06.26-.05.42.02.04.02.08.01.11-.01l.2-.17Z" fill="#fff"/><path d="m11.54 8.14.04-.02c.03 0 .04 0 .06.02l.03.07c0 .04-.02.06-.06.05a.14.14 0 0 1-.1-.06c-.01-.02 0-.05.03-.06ZM5.69 8.71c.04.04.1.06.19.09l-.17.2c-.03.03-.06.04-.1.04L5.4 9 5.27 9c-.2.05-.39.07-.57.05A.18.18 0 0 1 4.6 9a.42.42 0 0 0-.3-.15c-.04 0-.06.01-.08.05l-.01.04a.16.16 0 0 1-.15.1.18.18 0 0 1-.17-.08c-.06-.1-.13-.14-.21-.13L4 8.45c.15 0 .26.08.32.22.03.05.06.06.1.04.18-.08.33-.13.45-.15.02 0 .03-.01.04-.03 0-.02 0-.04-.02-.04a.85.85 0 0 1-.27-.22v-.05a.43.43 0 0 1 .03-.03h.02c.21.13.36.22.43.28.06.04.08.09.08.13 0 .06-.04.08-.09.08-.22 0-.35.02-.41.05-.17.1-.16.16.04.18.38.03.7-.04.96-.2Z" fill="#BAC1DA"/><path d="M5.35 8.17c.1.01.16.07.2.15.02.03.02.05 0 .08a.07.07 0 0 1-.07.04c-.12 0-.2-.07-.22-.19-.01-.07.02-.1.1-.08Z" fill="#DEDEE6"/><path d="m13.69 8.6.04-.06.02-.01c.05 0 .08.02.09.07 0 .04-.02.06-.07.09a.33.33 0 0 1-.16.02l-.67-.06c-.08-.01-.09-.05-.03-.1.09-.08.2-.12.35-.1.05 0 .09 0 .13-.03.15-.11.31-.18.49-.22.1-.03.11 0 .02.06l-.34.26c-.03.02-.03.04 0 .06l.04.03c.03.02.06.02.09-.02Z" fill="#fff"/><path d="M14.14 8.49v.04c-.02.02-.03.03-.05.03h-.08c-.06-.05-.07-.09-.03-.14l.06-.08c.02-.02.04-.03.07-.02.07.02.08.06.05.12l-.02.05Z" fill="#7689BA"/><path d="M9.28 8.68a.21.21 0 0 1 .05-.07c.07.07.14.12.24.14.05.02.09 0 .1-.06 0-.02.01-.04.03-.05.06-.03.07-.02.04.03-.04.08-.03.13.02.18.03.02.07.04.13.03.2 0 .4-.02.6-.04.05 0 .12-.05.22-.15.17-.16.33-.2.48-.1.03.02.05.05.04.1 0 .04-.03.06-.07.07-.16.04-.3.05-.41.04-.08-.01-.1 0-.07.05a.2.2 0 0 0 .06.04c.04.02.05.05.01.08a.09.09 0 0 1-.03.02l-.04.01a.87.87 0 0 0-.7.05.14.14 0 0 1-.14 0l-.56-.37Z" fill="#DEDEE6"/><path d="M11.54 8.91c.02.14.1.25.17.24.07-.02.12-.14.1-.27-.02-.14-.1-.24-.17-.23-.07 0-.12.13-.1.26Z" fill="#BAC1DA"/><path d="M6.64 8.72c.05 0 .08.04.08.14 0 .26-.03.39-.08.4-.05 0-.08-.14-.08-.4 0-.1.02-.14.08-.14Z" fill="#DEDEE6"/><path d="M12 8.87c-.01-.07 0-.11.06-.15.04-.02.08-.01.1.03.03.04.03.09.01.15 0 .03-.03.05-.06.05s-.06 0-.08-.03a.23.23 0 0 1-.02-.05Z" fill="#BAC1DA"/><path d="M9 8.92c.06.04.12.05.15 0 .03-.03.02-.1-.03-.14-.06-.04-.12-.04-.15 0-.04.03-.02.1.03.14ZM7.13 8.88a.34.34 0 0 1-.11.07c-.04.01-.06 0-.07-.04l-.01-.03c0-.04.01-.07.05-.09.06-.02.1-.01.14.03.02.02.02.04 0 .06ZM8.44 8.98l.25.11c.05.03.05.05 0 .07a.25.25 0 0 1-.18.01l-.13-.08c-.07-.05-.16-.06-.27-.02-.15 0-.27-.07-.35-.24v-.05c.02-.01.03-.02.05-.01.04.01.07.03.09.06.03.04.07.06.12.06.16 0 .3.03.42.09Z" fill="#DEDEE6"/><path d="M12.45 8.8c.04-.03.1-.03.16 0 .07.01.08.05.04.1-.05.09-.12.09-.2.02-.05-.05-.05-.08 0-.12Z" fill="#7689BA"/><path d="M13.41 9.1c-.01.03-.04.05-.07.06h-.1c-.28-.11-.41-.2-.4-.26.03-.06.19-.05.48.05.03.01.06.03.07.05.03.03.03.07.02.1Z" fill="#fff"/><path d="m13.8 9-.14.06c-.04.02-.05 0-.03-.04l.04-.07c.04-.04.08-.04.13 0 .03.02.03.04 0 .06Z" fill="#BAC1DA"/><path d="M7.46 9.15h-.1c-.18-.06-.18-.1 0-.13.28-.04.46.02.54.19v.05c-.02.02-.04.03-.06.02a5.15 5.15 0 0 1-.27-.12.25.25 0 0 0-.1 0ZM13.04 9.48c.05-.02.06-.05.01-.08l-.41-.32c-.03-.02-.03-.04 0-.06L12.7 9h.04c.12.11.24.19.36.23.08.04.13.1.14.2a.2.2 0 0 1-.12.2c-.05.03-.1.02-.15-.03-.04-.04-.03-.07.02-.1l.05-.02Z" fill="#DEDEE6"/><path d="M12.32 9.09c.04-.03.07-.04.1-.04.1.02.1.05 0 .09a.11.11 0 0 1-.09 0c-.03-.02-.03-.03 0-.05ZM9.63 9.24l-.1.14h-.04l-.04-.03c-.04-.03-.04-.06-.01-.1.15-.15.3-.16.45 0 .02.01.02.03 0 .04l-.05.01h-.01a.34.34 0 0 0-.08-.08c-.05-.03-.09-.02-.12.02Z" fill="#BAC1DA"/><path d="M13.77 9.45c-.1.08-.21.09-.32.03-.04-.02-.04-.04-.01-.06l.46-.26c.04-.02.07 0 .07.05l-.01.1a16.12 16.12 0 0 1-.18.14Z" fill="#fff"/><path d="M4.44 9.5c.26.02.46.09.6.2.02.02.03.04.01.07a.08.08 0 0 1-.04.04h-.04l-.34-.17c-.06-.03-.12-.02-.18.03a.12.12 0 0 1-.13.02l-.12-.04c-.06-.02-.1 0-.14.04l-.37.48c-.03.04-.07.05-.12.02a.37.37 0 0 0-.13-.06c-.07-.01-.1-.05-.05-.11a.38.38 0 0 1 .1-.1c.02-.02.06-.02.11 0l.04.03h.05c.27-.13.4-.33.37-.59 0-.05.02-.07.08-.05l.17.13c.04.03.08.05.13.05Z" fill="#DEDEE6"/><path d="M9.15 9.5a.33.33 0 0 1-.03-.06c-.02-.07 0-.1.08-.1h.05c.05 0 .07.01.08.06 0 .06.05.1.11.1.05-.01.11.01.18.06.06.04.06.06-.01.07a.48.48 0 0 1-.32-.05c-.05-.03-.09-.02-.12.02a.23.23 0 0 0-.05.11c0 .02 0 .03-.03.04a.09.09 0 0 1-.04.01c-.03 0-.04-.02-.03-.04a.39.39 0 0 1 .1-.12c.04-.03.05-.06.03-.1ZM5.79 9.37c.03-.01.05 0 .07.02.02.03.03.05.01.08a.38.38 0 0 1-.13.18c-.05.04-.08.03-.1-.03-.05-.14 0-.22.15-.25ZM10.35 9.5c-.07-.02-.1-.04-.11-.07-.01-.02 0-.04.02-.06h.06c.03.04.05.08.05.11 0 .02 0 .03-.02.02Z" fill="#fff"/><path d="M10.87 9.54c-.14.02-.22.1-.24.24 0 .02-.01.03-.03.02l-.05-.02c-.01 0-.02-.01-.02-.03a.66.66 0 0 1 .23-.37.13.13 0 0 1 .13-.02c.07.03.1.05.1.08a.13.13 0 0 1-.12.1Z" fill="#DEDEE6"/><path d="M5.19 9.4c.03-.03.08-.02.15.02.03.02.04.05.05.1 0 .05-.03.06-.07.04a.48.48 0 0 1-.15-.1c-.03-.02-.02-.05.02-.07Z" fill="#BAC1DA"/><path d="M8.42 9.43c.03-.05.07-.05.11-.01l.04.04c.02.05.01.08-.04.1-.03.02-.06 0-.1-.03-.04-.02-.05-.06 0-.1Z" fill="#7689BA"/><path d="M12.1 9.58a.17.17 0 0 1-.04-.08c.07-.1.14-.14.2-.1.13.05.2.17.21.34 0 .02-.01.04-.04.04h-.05c-.04 0-.07-.02-.07-.07a.3.3 0 0 0-.06-.15.07.07 0 0 0-.07-.03c-.03 0-.05.02-.07.05Z" fill="#DEDEE6"/><path d="M7.32 9.53a.4.4 0 0 1 .07.03.1.1 0 0 1 .06.07c0 .03 0 .07-.02.1-.03.06-.08.07-.13.05-.1-.03-.15-.11-.17-.25-.02-.07.02-.09.09-.04l.04.02.06.02Z" fill="#fff"/><path d="M12.06 9.5c.01.04.03.06.05.08.02.12 0 .21-.04.27-.05.05-.07.04-.08-.02a.42.42 0 0 1 .07-.33ZM14.47 9.54c.05-.01.1 0 .14.02-.13.06-.1.16.1.3.05.04.04.07-.02.08h-.05c-.07-.04-.12-.03-.14 0l-.03.05c-.02.04-.05.04-.1.01a.94.94 0 0 1-.35-.4c-.03-.07-.02-.08.04-.04l.14.12c.05.03.1.04.15.02a.17.17 0 0 0 .12-.16Z" fill="#657396"/><path d="M9.76 9.65c-.04-.03-.04-.05 0-.06.17-.05.28 0 .34.11.02.06 0 .09-.06.08a.66.66 0 0 1-.28-.13Z" fill="#fff"/><path d="M11.1 10.2a.2.2 0 0 1-.12.08c-.06.01-.1-.01-.08-.08l.08-.48c0-.05.03-.05.08 0 .15.17.17.33.04.48Z" fill="#DEDEE6"/><path d="M5.96 10.17c-.11-.14-.1-.29.02-.44.05-.04.07-.03.08.03.04.2.05.35.04.45-.01.07-.06.12-.13.13-.06 0-.07-.02-.04-.07l.03-.04c.02-.02.02-.04 0-.06Z" fill="#fff"/><path d="M8.09 10.06c.04.13.03.2-.04.22-.24-.03-.38-.16-.4-.4-.01-.04 0-.06.04-.06h.06c.04 0 .05.02.05.05v.15c0 .06.04.08.1.07l.19-.03ZM8.71 10.09c-.07.02-.16 0-.25-.06a.05.05 0 0 1-.02-.04c0-.02.01-.04.03-.04a5.69 5.69 0 0 1 .4-.1c.01 0 .02.03.01.04-.04.1-.1.17-.17.2ZM12.77 10.02c.02.05.05.07.1.07.06 0 .1-.02.13-.07s.07-.1.14-.12c.05-.02.06 0 .04.05a.28.28 0 0 1-.17.14c-.05.02-.07.05-.06.1 0 .06.05.1.11.13.05.02.05.03 0 .03-.1 0-.17-.04-.23-.12a.08.08 0 0 0-.09-.04.08.08 0 0 0-.07.06c-.03.11-.09.17-.16.17-.22 0-.24-.06-.08-.19l.19-.22a.1.1 0 0 1 .06-.03c.05-.01.08 0 .1.04Z" fill="#DEDEE6"/><path d="M7.13 10.07c-.08.1-.12.2-.07.25.04.04.15 0 .23-.1.09-.08.12-.2.08-.23-.05-.05-.15 0-.24.08Z" fill="#fff"/><path d="M11.64 9.97c.05.14.04.24-.02.32-.05.06-.08.05-.08-.03-.01-.1 0-.2.05-.3.02-.02.03-.02.05 0ZM12.17 10.03c-.05.05-.07.12-.04.14.02.03.09 0 .14-.05.05-.06.07-.13.04-.15-.03-.03-.1 0-.14.06Z" fill="#657396"/><path d="M5.25 10.37c-.03.05-.09.05-.18 0a1.66 1.66 0 0 1-.3-.3v-.01l.06-.02h.03c.15.2.3.24.44.12.05-.05.09-.04.13.02l.2.3c.07.11.04.15-.08.13-.11-.01-.18-.1-.2-.23-.02-.1-.05-.1-.1-.02ZM10.36 10.17l.02-.06c.03-.02.05-.02.07 0l.28.4c.02.04.01.06-.03.06h-.11c-.01 0-.02 0-.03-.02-.1-.11-.22-.17-.34-.18a.14.14 0 0 1-.12-.07.86.86 0 0 0-.2-.2c-.02-.02-.02-.04 0-.06l.04-.03c.07.1.18.17.32.22.05.03.1 0 .1-.06Z" fill="#fff"/><path d="M13.57 10.07c.05 0 .08.02.08.07 0 .12-.11.16-.31.12a.05.05 0 0 1-.05-.04c0-.02 0-.04.02-.06a.7.7 0 0 1 .26-.09Z" fill="#DEDEE6"/><path d="M5.73 10.16c.02-.03.05-.03.08-.01.04.03.06.06.05.1l-.05.03c-.02 0-.04 0-.06-.03-.02-.04-.03-.07-.02-.09Z" fill="#BAC1DA"/><path d="M6.46 10.2c.02-.04.05-.04.08 0 .02.03.02.08 0 .13 0 .02-.02.03-.04.04-.02 0-.04 0-.06-.02-.02-.03-.02-.08.02-.15Z" fill="#DEDEE6"/><path d="M9.58 10.4c.12.05.22.05.23 0 .02-.03-.06-.1-.17-.14-.12-.04-.22-.04-.23 0-.02.04.06.1.17.14Z" fill="#fff"/><path d="M14.03 10.2c.1.01.19.06.28.14v.02c0 .01 0 .02-.02.03h-.03a.55.55 0 0 0-.24-.07.54.54 0 0 0-.24.05h-.03a.04.04 0 0 1-.02-.04v-.02c.1-.07.2-.1.3-.1Z" fill="#657396"/><path d="M4.52 10.42c.1.04.2.05.22 0 .01-.03-.06-.1-.16-.14-.1-.04-.2-.04-.22 0-.01.04.06.1.16.14Z" fill="#fff"/><path d="M8.09 10.46c.05.03.1.08.12.14a.1.1 0 0 1 0 .06c-.02.05-.05.05-.09.02-.2-.18-.48-.2-.81-.09-.06.02-.06.01-.03-.03a.71.71 0 0 1 .22-.16c.06-.03.14-.03.25 0l.34.06Z" fill="#BAC1DA"/><path d="m9.12 10.45-.29.09c-.09.02-.1 0-.02-.06.16-.14.32-.15.47 0 .1.1.1.12-.02.07l-.08-.08c-.01-.02-.04-.03-.06-.02Z" fill="#7689BA"/><path d="M4.07 10.52c-.05 0-.06-.02-.03-.05.03-.03.07-.05.12-.05.11 0 .13.02.04.07a.3.3 0 0 1-.13.03ZM6.77 10.5a.26.26 0 0 1 .05-.07c.06-.05.08-.03.06.06-.03.1-.08.15-.15.13-.05 0-.05-.03-.02-.06l.03-.03.03-.03Z" fill="#BAC1DA"/><path d="M14.56 10.7c-.06.01-.1-.01-.1-.08-.02-.09.04-.15.18-.19.07-.01.1.01.1.08 0 .1-.05.15-.18.19ZM11.46 10.73a.1.1 0 0 0-.03.05c-.01.04 0 .07.02.1l.05.05c.05.05.05.08-.01.09l-.04-.02a.15.15 0 0 1-.1-.1c-.02-.05 0-.1.03-.14l.18-.2c.05-.04.09-.04.13.01.04.05.04.1 0 .13-.03.02-.09.02-.18.02h-.05Z" fill="#7689BA"/><path d="M13.75 10.94c-.13 0-.27-.04-.42-.1 0-.08-.03-.11-.08-.1-.34.08-.68.18-1.02.3l-.04-.01-.01-.05c-.01-.02 0-.04.01-.05l1-.4a.14.14 0 0 1 .11 0l.18.08c.04.02.08.02.13-.01a.32.32 0 0 1 .25-.04c.05 0 .07.04.06.08a.1.1 0 0 1 0 .04.08.08 0 0 1-.06.04c-.08.02-.11.1-.11.22Z" fill="#BAC1DA"/><path d="m9.89 10.78-.02-.01c-.04-.04-.06-.08-.04-.11.01-.05.03-.05.06-.01.02.02.02.06 0 .13ZM14.8 10.93v-.05c.07-.03.09-.09.07-.17v-.03c.08.05.11.1.1.15 0 .07-.05.1-.16.1Z" fill="#7689BA"/><path d="M4.55 10.8a.48.48 0 0 1 .16-.07c.06-.01.1 0 .17.01a28.65 28.65 0 0 1 .92.4l-.01.04c-.01.02-.02.02-.04.01a.95.95 0 0 0-.49-.15.24.24 0 0 1-.13-.05.57.57 0 0 0-.51-.08c-.11.03-.2.04-.25.03a.9.9 0 0 1-.27-.11c-.04-.03-.04-.05 0-.06l.1-.04h.03l.2.09c.03.02.08 0 .12-.03ZM7.5 10.93a8.33 8.33 0 0 1-.36.17l-.02-.06c-.01-.02 0-.04.02-.05l.6-.27c.06-.03.12-.01.18.05.04.05.03.08-.03.09l-.15.02a.71.71 0 0 0-.24.05Z" fill="#fff"/><path d="M11.03 10.8c-.02-.03-.01-.05.03-.04a.1.1 0 0 1 .04 0c.02.02.02.04.01.06-.03.05-.06.04-.08-.01Z" fill="#657396"/><path d="M6.3 10.94c.02-.02.04-.04.08-.04.05 0 .06.03.05.07-.01.02-.04.03-.08.03-.05 0-.06-.02-.04-.06Z" fill="#DEDEE6"/><path d="M13.5 10.96c.03-.03.06-.03.09-.01.04.03.04.06 0 .1a.46.46 0 0 1-.32.06c-.07 0-.07-.03 0-.07l.18-.04c.02 0 .04-.02.05-.04ZM10.75 11.05a.12.12 0 0 0-.1.04.3.3 0 0 1-.16-.07c.02 0 .03-.02.04-.04.07.03.14.06.22.07Z" fill="#7689BA"/><path d="M6.69 11.32h-.04v.02c0 .17-.07.35-.21.52-.04.04-.07.03-.09-.02l-.07-.18a.12.12 0 0 1 .03-.14c.12-.12.22-.25.29-.39.06-.12.11-.11.15.03.01.04.05.1.12.19.02.04.03.08.02.12-.07.29-.08.54-.05.76.03.17 0 .18-.1.05-.18-.22-.19-.4-.04-.52a.14.14 0 0 0 .05-.12l-.02-.32h-.04Z" fill="#fff"/><path d="M10.75 11.05a.2.2 0 0 1 .1.05c.02.02.01.05-.02.07-.05.04-.11.02-.19-.08a.12.12 0 0 1 .11-.04Z" fill="#DEDEE6"/><path d="m12.13 11.32-.05.55a.73.73 0 0 1-.4.1.12.12 0 0 1-.12-.07c-.04-.08-.09-.13-.15-.15l-.03-.02.29-.06c.02.05.05.08.1.09.05 0 .1 0 .12-.06a.3.3 0 0 0 .02-.2c-.01-.05-.04-.07-.1-.04-.05.02-.1.09-.13.18a.48.48 0 0 0-.21-.25.51.51 0 0 1 .17-.3.12.12 0 0 1 .14-.02c.05.02.07.06.07.11 0 .13.1.17.28.14Z" fill="#BAC1DA"/><path d="m11.67 11.67.01-.03c.03-.1.08-.16.13-.18.06-.03.09-.01.1.05a.3.3 0 0 1-.02.2c-.03.04-.07.06-.12.05-.05-.01-.08-.04-.1-.1Z" fill="#20376A"/><path d="M12.08 11.87v.22a.86.86 0 0 0-.3-.02c-.05.01-.08.04-.08.1v.05c0 .03.01.04.04.04l.37-.02.15.37c-.12-.09-.2-.18-.21-.27-.01-.05-.04-.07-.1-.04-.03.03-.05.08-.05.15 0 .05-.03.08-.08.07a1.03 1.03 0 0 1-.38-.1c-.05-.02-.06-.06-.03-.11.1-.2.1-.4 0-.56.06.02.11.07.15.15.03.05.06.07.11.08.12.01.26-.03.41-.11Z" fill="#657396"/><path d="M12.08 12.1c.03.03.04.08.03.14l-.37.02c-.03 0-.04 0-.04-.04v-.05c0-.06.03-.09.08-.1.1 0 .2 0 .3.02Z" fill="#BAC1DA"/></svg>