<!-- by TradingView --><svg width="18" height="18" viewBox="0 0 18 18" xmlns="http://www.w3.org/2000/svg"><path fill="#F0F3FA" d="M0 0h18v18H0z"/><path d="M9 3c.15 0 .25.04.29.13.02.04.02.1.02.2v1.23a2.8 2.8 0 0 0 .58 1.36 4.03 4.03 0 0 0 .82.79A686.81 686.81 0 0 1 9 8.03s-.02 0-.03-.02A710.86 710.86 0 0 1 7.28 6.7c.33-.23.6-.49.82-.77.25-.3.42-.64.52-.98.04-.14.06-.27.06-.38V3.33c0-.1.01-.16.03-.2.04-.09.14-.13.29-.13Zm0 5.26h.02a1132.3 1132.3 0 0 1 1.88-1.44c.4.24.76.53 1.09.85.2.2.4.41.56.65.14.2.25.41.33.63.08.2.11.4.12.6 0 .48-.03.94-.12 1.37a3 3 0 0 1-.2.66c-.15.31-.33.53-.56.66a.6.6 0 0 1-.3.08 847.8 847.8 0 0 1-1.9-.02v-.96l.01-.02h2l.01-.02a2.52 2.52 0 0 0 .15-.77c.01-.73-.2-1.37-.65-1.94a3.45 3.45 0 0 0-.49-.5.14.14 0 0 0-.11-.03c-.2.03-.44.13-.68.31-.21.16-.42.34-.64.55a11.38 11.38 0 0 0-.53.54 9.82 9.82 0 0 0-1.15-1.09 1.96 1.96 0 0 0-.5-.27 1 1 0 0 0-.24-.04.13.13 0 0 0-.05.02l-.17.15c-.43.4-.72.88-.86 1.43a3.2 3.2 0 0 0-.05 1.32c.01.1.03.17.06.25l.03.08.02.01h1.97c.01 0 .03 0 .03.02v.98a1010.18 1010.18 0 0 0-2.06-.02c-.22-.08-.41-.23-.56-.47a2.7 2.7 0 0 1-.36-.95c-.07-.36-.1-.77-.1-1.24 0-.21.03-.4.08-.58.12-.4.35-.78.68-1.14a6.02 6.02 0 0 1 1.36-1.1L9 8.26H9Zm-.72 4.24-.01.01h-.19s-.01 0 0 0v.01c.25.08.42.17.53.28.05.06.08.11.08.16a122.85 122.85 0 0 1 0 .86l.03.03.01.02.16.1c.07.03.14.04.21.02a.35.35 0 0 0 .18-.11c.03-.02.04-.04.04-.06V13a.3.3 0 0 1 .1-.22.93.93 0 0 1 .23-.16 2.03 2.03 0 0 1 .28-.11h-.18c-.02 0-.03-.01-.03-.02V11.2l.02-.01h2.04c.01 0 .02 0 .02-.02a2.84 2.84 0 0 0-.94-2.91.08.08 0 0 0-.03-.02h-.04c-.15.04-.31.12-.48.25-.18.13-.36.27-.53.43a9.7 9.7 0 0 0-.8.81 9.24 9.24 0 0 0-.87-.9 4 4 0 0 0-.57-.44 1.23 1.23 0 0 0-.39-.15 2.77 2.77 0 0 0-1.04 2.14c0 .26.03.52.09.8h2.06c.01 0 .02.01.02.03v1.28Z" fill="#4CCC39"/></svg>