<!-- by TradingView --><svg width="18" height="18" viewBox="0 0 18 18" xmlns="http://www.w3.org/2000/svg"><path fill="#F0F3FA" d="M0 0h18v18H0z"/><path d="M14 9.42a11.27 11.27 0 0 1-1.66 1.7 1.3 1.3 0 0 1-.53.25.2.2 0 0 1-.1-.03.19.19 0 0 1-.09-.13.8.8 0 0 1 .08-.42c.4-.84.79-1.72 1.13-2.64.29-.77.39-2.05-.8-2.14a2.93 2.93 0 0 0-2.23.93c-.03.03-.05.02-.05-.02-.09-.6-.44-.9-1.06-.92-.69-.01-1.35.3-1.88.7l-.07.04v-.08c.04-.13.06-.26.06-.39 0-.01 0-.03-.02-.04h-.03c-.33-.02-.64 0-.95.05-.1.01-.2.05-.28.11a.15.15 0 0 0-.04.19l.06.1c.19.32.34.58.1.96-.42.68-.8 1.38-1.14 2.1-.18.36-.33.74-.45 1.15a1 1 0 0 0 .08.8l.08.13c.13.24.27.24.4-.01l1.47-3.02a5.14 5.14 0 0 1 1.63-2.04c.22-.16.78-.4 1-.14.14.15.1.44.05.61a55.29 55.29 0 0 1-1.5 3.87c-.1.24-.02.96.42.79.43-.17.73-.48.9-.93a607.1 607.1 0 0 1 .9-2.44c.08-.23.2-.44.34-.62.38-.49.76-.87 1.15-1.14.32-.21 1.07-.5 1.08.17 0 .18-.02.37-.06.56-.2.83-.53 1.61-.98 2.36-.1.17-.17.36-.2.55-.1.51-.05 1.13.55 1.31.38.12.74.05 1.08-.2a9.17 9.17 0 0 0 1.5-1.41c.03-.05.05-.04.05.02-.02.17-.01.34.01.5V9.42Z" fill="#102A83"/></svg>