<!-- by TradingView --><svg width="18" height="18" viewBox="0 0 18 18" xmlns="http://www.w3.org/2000/svg"><path fill="#F0F3FA" d="M0 0h18v18H0z"/><path d="M10.8 4.02c.05-.37-.04-.97-.56-1.02h-.09a.74.74 0 0 0-.39.2l-.23.25c-.07.09-.2.18-.32.19-.06 0-.1 0-.13-.02a.7.7 0 0 0-.42-.08.36.36 0 0 0-.16.06c-.12.09-.18.22-.25.37l-.03.07a.34.34 0 0 1-.12.15c-.08.05-.15.05-.23.04H7.8c-.11 0-.2.04-.25.13-.13.2-.12.5-.08.74.04.23.12.53.3.69a.7.7 0 0 0 .62.15.57.57 0 0 0 .17-.08c.2-.16.42-.29.65-.4.2-.09.42-.13.66-.14l.23-.01c.25-.06.4-.32.49-.53.1-.22.17-.48.2-.76Zm-.9 2.24c0 .2-.19.37-.42.37-.23 0-.42-.16-.42-.37 0-.2.2-.37.42-.37.23 0 .42.16.42.37Zm-1.88.34c.05.05.1.03.17 0l.1-.06c.25-.15.51.09.66.25.3.31.58.85.52 1.27-.05.38-.36.69-.75.82-.2.06-.47.08-.65-.04a.48.48 0 0 1-.21-.37c-.03-.47.2-.92.42-1.33.03-.05.06-.13.02-.18-.07-.07-.18 0-.23.06a.5.5 0 0 0-.11.19c-.04.09-.1.22-.2.24-.17.03-.22-.28-.23-.4v-.03c-.04-.22-.01-.44.08-.66.03-.09.1-.25.22-.27.07 0 .14.02.18.09.04.08.05.15.04.2l-.04.2.01.02ZM15 10.52v-.1c-.01-.3-.07-.58-.18-.82-.22-.52-.6-.95-1.07-1.31a6.29 6.29 0 0 0-2.06-.99c-.1.02-.15.14-.09.22l.12.06c.38.14.76.32 1.13.56.58.38 1.08.9 1.31 1.52a2.2 2.2 0 0 1-.4 2.19c-.28.36-.65.67-1.03.9-.66.4-1.39.66-2.18.8-.9.17-1.79.2-2.69.08a6.73 6.73 0 0 1-2.55-.85 4.09 4.09 0 0 1-.95-.77c-.67-.74-.87-1.69-.43-2.57a4.18 4.18 0 0 1 2.36-1.86c.05-.02.09-.04.1-.06.06-.08.02-.19-.08-.21l-.13.01c-.66.2-1.27.5-1.82.89-.24.17-.47.37-.69.61-.38.43-.6.91-.67 1.45v.26c.04.97.71 1.76 1.56 2.3A8.32 8.32 0 0 0 8.84 14h.31c.54-.01 1.08-.07 1.6-.16.73-.13 1.4-.34 2.04-.64.8-.38 1.54-.95 1.94-1.7a2.19 2.19 0 0 0 .27-.98Zm-7.58-.13h.38v.01l-.09.49v.01h-.38c-.01 0-.02 0-.02.02l-.26 1.33a.1.1 0 0 1-.04.06.1.1 0 0 1-.07.02h-.42a.06.06 0 0 1-.05-.02.07.07 0 0 1-.01-.06l.49-2.7v-.02h.6l.01.01-.14.84Zm1.1 1.6a3.11 3.11 0 0 0 1.04-.18l-.07.42c-.01.07.01.1.08.1h.4a.1.1 0 0 0 .07-.02.1.1 0 0 0 .03-.06l.52-2.7v-.02h-.6l-.01.01-.34 1.8-.01.03a1.72 1.72 0 0 1-.97.14c-.1-.01-.19-.07-.19-.18l.03-.16.08-.41.24-1.2h-.64a127.02 127.02 0 0 1-.33 1.68c-.03.14-.04.25-.03.32.06.36.38.44.7.43Zm2.95-1.05h-.8c-.01 0-.02-.01-.01-.02l.07-.42.02-.01h.84l.01-.01.09-.47a.01.01 0 0 0-.01 0h-.94V10l.07-.42.01-.01h1.33c.07 0 .13 0 .16.03.08.06.08.15.06.25l-.1.61v.03h.27v-.01l.18-.93c0-.01 0-.02.02-.02h.59v.01l-.5 2.7c-.02.06-.06.09-.11.09a13.84 13.84 0 0 1-.48-.02.07.07 0 0 1-.01-.06l.24-1.3-.01-.02h-.27c-.01 0-.02 0-.02.02-.18.47-.5.82-.97.99-.21.08-.45.12-.7.14l-.01-.02-.05-.37.01-.01c.2-.02.39-.08.55-.17.22-.13.37-.34.47-.57Zm-5.08.09.27-1.34c0-.06 0-.11-.05-.14a.22.22 0 0 0-.1-.02H5.23c-.05 0-.1.01-.12.03a.16.16 0 0 0-.08.11 940.37 940.37 0 0 1-.36 2.05c0 .1.06.18.15.23.05.02.16.03.33.03h.73c.14 0 .24-.02.31-.12a.58.58 0 0 0 .08-.23l.12-.6Zm-.77.51h-.28a.03.03 0 0 1-.03-.02v-.01l.32-1.52v-.01l.03-.01h.25a.03.03 0 0 1 .02.01.03.03 0 0 1 0 .03l-.3 1.51-.01.02Z" fill="#E60013"/></svg>