<!-- by TradingView --><svg width="18" height="18" viewBox="0 0 18 18" xmlns="http://www.w3.org/2000/svg"><path fill="#F0F3FA" d="M0 0h18v18H0z"/><path d="M13.7 9.04c-.14.2-.4.59-.27.04.13-.54.37-1.88-.09-1.99-.46-.11-.17.93-.46.3-.3-.6-.59-1.24-1.53-2A7.13 7.13 0 0 0 8.41 4c-.05 0-.22 0-.2.07 0 .08.16.13.22.16.13.06.3.13.38.26.03.06.05.15-.05.15s-.2-.03-.29-.06c-.7-.22-1.48-.38-2.23.33-.36.33-.06.75.26.37.32-.37.9-.56 1.11-.48.04.01.1.06.09.12-.02.05-.08.06-.13.06h-.19a.9.9 0 0 0-.14.02.8.8 0 0 0-.27.1.22.22 0 0 0-.09.1c-.06.15.17.16.42.06.26-.1 1.92-.33 3.35.53a4.33 4.33 0 0 1 2 4.11 4.17 4.17 0 0 1-1.86 3.15c-.29.2-.66.36-1.07.48a2.82 2.82 0 0 0-.88-5.03c.23-.14.13-.4-.84-.3a3.2 3.2 0 0 0-2.15 1.16c-.09-.16-.3-.16-.5.12-.78 1.3-.01 2.78-.01 2.78v-.03c.18.47.48.87.86 1.19l-.2-.3a2.2 2.2 0 0 1-.5-1.36c0-.23.14-.34.22-.2.02-.32.17-1.04 1.02-1.62.2-.12.33-.08.32.02.3-.17 1-.47 1.98-.16.25.1.27.25.13.28a1.74 1.74 0 0 1-.46 3.28c-.44.08-.93-.01-1.27-.27-.11-.06-.6-.4-.58-.97 0-.24.1-.3.15-.19.03-.16.12-.44.43-.71.16-.12.25-.08.17.06.37-.17.83-.12 1.06.1.4.36.06.72-.33.35-.42-.4-1.15.22-.73.88.44.7 1.99.25 2.03-.8-.02-1.6-1.9-1.66-2.61-1.17-.8.56-1 1.6-.34 2.49a1.96 1.96 0 0 0 1.06.72 3.5 3.5 0 0 0 .92.14c.45.02 1.02 0 1.75-.1 2.08-.3 2.32-.99 2.1-1.09-.1-.05-.18.01-.26.07-.22.16-.45.3-.72.36-.05 0-.14.02-.18-.03-.04-.06.06-.14.1-.17.14-.13.31-.24.46-.37a7.07 7.07 0 0 0 1.54-1.95 6 6 0 0 0 .43-.96l.04-.12c.2-.74-.1-.78-.24-.59Z" fill="#00A7CF"/></svg>