<!-- by TradingView --><svg width="18" height="18" viewBox="0 0 18 18" xmlns="http://www.w3.org/2000/svg"><path fill="#F0F3FA" d="M0 0h18v18H0z"/><path d="M9.71 4c.75.25 2.24 1.13 2.24 2.7 0 .37-.29.7-.43.81l1.31.7c.24-1.07-.04-3.43-3.12-4.21Zm-2.53.2-.2.1.2-.1Zm-.2.1a3 3 0 0 0-1.4 2.63c.01.6.45 1.91 2.02 2.38l.18.91-.28.78c-.97-.2-2.91-.64-2.91-.71l.07-3.17.59-1.41.82-.94.9-.47Zm1.59 6.33.19-1.07c.31 0 .6-.07.71-.1l.49.29-.77.38-.62.5Z" fill="#F4E30C"/><path fill-rule="evenodd" d="M6.01 6.81c-.24.25-.71.8-.92 1.05l-.04.22.14.32 1.32-1.12c.27.25.5.83.6 1.1h.16v.54c.07.24.23.8.27 1.09.05.29 0 .73-.02.92l.84.32.3-.1.3-.28c.11-.15.39-.48.64-.5.25-.03.4-.02.45 0l-.1.37.1 1.4c.02.29.12.71.85.71.58 0 1.2-.53 1.43-.8l.29.95h.76v-.62h-.1c-.07.03-.25.1-.32.1-.09.01-.3-.12-.3-.51 0-.32.15-.5.23-.54.15.1.5.3.61.4.14.1.55.52.55.72 0 .15-.1.36-.15.45H15l-.12-.4a3.49 3.49 0 0 1-.3-.2 6.43 6.43 0 0 1-.43-.5c-.16-.2-.5-.85-.5-1.76 0-1.14-.46-1.65-1.26-2.31a3.38 3.38 0 0 0-2.02-.63c-.05-.39.22-.77.37-.91a3.43 3.43 0 0 0-1-1.39l-.03.08c.4.42.7 1.03.8 1.29a4.6 4.6 0 0 0-1.08 2.67c-.1.98-.52 1.6-.72 1.8.06-.35.2-1.2.2-1.82 0-.63-.1-1.04-.14-1.17l.47.03a38.2 38.2 0 0 1-.4-.98c-.04-.12.04-.28.08-.35h-.08c-.06.08-.18.23-.26.23-.08 0-.32-.05-.43-.08.3.44.62 1.5.62 2.32 0 .66-.22 1.74-.33 2.2l-.14-.03c.03-.37.08-1.16.06-1.36-.01-.2.02-.88.04-1.2-.13.66-.13 1.14-.13 1.44v.04c0 .24-.09.8-.13 1.06l-.27-.08c.02-.04.07-.22.07-.6 0-.4-.05-.77-.09-1.11l-.02-.14a4.4 4.4 0 0 1 0-.74h.31a5.97 5.97 0 0 1-.58-1.36c0-.27.22-.5.3-.56.05-.05.05-.16.04-.21h-.07l-.04.13-.13.1a2.5 2.5 0 0 0-.35.22l.1-.17c.01-.04 0-.1-.04-.08l-.06-.02c0-.05.02-.17.05-.25a.18.18 0 0 1 .08-.1v.05a2.85 2.85 0 0 0 .26-.13C7.82 6 8.04 6 8.17 6c.14 0 .25-.07.25-.21 0-.13-.07-.18-.17-.24l-.03-.01a.38.38 0 0 1-.11-.14l-.14-.2C7.8 5.02 7.7 5 7.6 5a.9.9 0 0 0-.35.08l-.43.22c-.1 0-.29.07-.29.24 0 .17.12.22.26.28l.07.03c.13.06.02.14-.04.18l-.84.65.03.13Zm5.1 1.83a2 2 0 0 0-.56-1.32c.3.13.9.59.9 1.3 0 .7-.56 1.2-.84 1.36.17-.18.5-.71.5-1.34Zm.3 2.4c0 .47-.51.59-.77.59 0 .06.08.2.4.2.39 0 .85-.56.85-.97 0-.42-.33-.46-.52-.46h-.15c-.2-.02-.42-.04-.42.12 0 .2.07.28.3.34.2.04.2-.1.17-.17.05.05.14.19.14.34Z" fill="#293A8C"/><path d="M5.1 7.26c0-1.76 1.52-2.84 2.28-3.15A4.6 4.6 0 0 0 4 8.5c0 3.25 3.38 4.8 5.13 4.45-.57-.05-1.11-.29-1.11-.75s.83-.66 1.23-.8c.33-.12.62-.4.73-.53l-.03-.47c-.21 0-.3.03-.53.16-.17.1-.45.13-.57.13-1.84-.08-3.75-1.23-3.75-3.43Z" fill="#ED037C"/></svg>