<!-- by TradingView --><svg width="18" height="18" viewBox="0 0 18 18" xmlns="http://www.w3.org/2000/svg"><path fill="#F0F3FA" d="M0 0h18v18H0z"/><path d="M6 8.06V5l2.5 2.6V12H6v-.83c-.32.37-.56.63-1.03.75A2.36 2.36 0 0 1 2 9.62a2.4 2.4 0 0 1 1.55-2.24c.45-.17.95-.2 1.42-.07.47.12.71.38 1.03.75Zm-2.58 2.97a1.7 1.7 0 0 0 2.66-1.41 1.71 1.71 0 0 0-2.03-1.68A1.7 1.7 0 0 0 2.7 9.28a1.71 1.71 0 0 0 .71 1.75Zm11.06.12c.35-.17.62-.45.8-.8H16a2.4 2.4 0 0 1-3.04 1.52c-.4-.13-.68-.4-.96-.72v.82H9.5V7.6L12 5v3.07a2.2 2.2 0 0 1 2.19-.8 2.38 2.38 0 0 1 1.8 1.58h-.73a1.7 1.7 0 0 0-2.86-.28 1.71 1.71 0 0 0 .97 2.71c.37.09.77.04 1.11-.13Z" fill="#0080CB"/></svg>