<!-- by TradingView --><svg width="18" height="18" viewBox="0 0 18 18" xmlns="http://www.w3.org/2000/svg"><path fill="url(#a5amzagn4)" d="M0 0h18v18H0z"/><path fill-rule="evenodd" d="M7 11.62V6.2C7 4.98 7.71 4 9 4c1.4 0 2 1.08 2 2.4 0 .71-.33 1.13-1 1.5l1.3.67c.43.22.7.8.7 1.26v1.78c0 .43-.25.84-.64 1.06l-1.67 1.2a.4.4 0 0 0 .07.08h-.02c.14.1.23.28.23.49 0 .3-.21.56-.47.56s-.47-.25-.47-.56c0-.25.13-.45.3-.53l.01-.02-1.72-1.22A1.21 1.21 0 0 1 7 11.62Zm2.48-4.2L8 8.5V6.45C8 5.5 8.51 5 8.98 5 9.46 5 10 5.48 10 6.24c0 .6-.35 1.03-.52 1.17Zm.01 1.13 1.5 1.1v1.89l-1.5 1.11L8 11.54V9.66l1.5-1.11Z" fill="url(#b5amzagn4)"/><defs><linearGradient id="a5amzagn4" x1="3.35" y1="3.12" x2="21.9" y2="24.43" gradientUnits="userSpaceOnUse"><stop stop-color="#1A1E21"/><stop offset="1" stop-color="#06060A"/></linearGradient><linearGradient id="b5amzagn4" x1="5.86" y1="5.68" x2="8.84" y2="13.13" gradientUnits="userSpaceOnUse"><stop stop-color="#FCDE8B"/><stop offset="1" stop-color="#FAECC8"/></linearGradient></defs></svg>