<!-- by TradingView --><svg width="18" height="18" viewBox="0 0 18 18" xmlns="http://www.w3.org/2000/svg"><path fill="#F0F3FA" d="M0 0h18v18H0z"/><path d="M6.97 10.33c.02.19.06.48.3.55.17.05.32.05.38.05.03 0 .05 0 .05.02 0 .03-.06.05-.12.05-.13 0-.75 0-.96-.02-.13-.01-.16-.03-.16-.05 0-.02.02-.03.04-.04.03 0 .04-.1.03-.19l-.28-2.69h-.01l-1.4 2.7c-.12.23-.14.27-.19.27-.04 0-.07-.05-.17-.24l-.67-1.2c-.05-.1-.7-1.34-.75-1.48h-.03l-.23 2.41v.26c0 .08.06.15.15.17.1.02.18.02.21.02s.05.01.05.03c0 .03-.04.04-.1.04l-.53-.01-.48.01c-.06 0-.1 0-.1-.04 0-.02.03-.03.06-.03l.17-.01c.19-.03.2-.24.23-.43l.4-3.39c.01-.05.03-.09.07-.09.03 0 .06.02.08.08l1.75 3.26 1.67-3.26c.03-.04.05-.08.09-.08.04 0 .06.04.07.14l.38 3.19ZM15.44 10.93c-.03 0-.13 0-.21-.02-.2-.06-.29-.11-.42-.4l-.5-1.16C15.46 8.97 16 8.04 16 8.04s-.54.64-1.87.9l-.71-1.62c-.11-.25-.14-.32-.2-.32s-.09.08-.25.4c-.13.25-.38.8-.73 1.57l-.17.36c-1.06.53-1.35 1.63-1.35 1.63s.25-.8 1.16-1.2l-.28.62c-.15.35-.24.44-.31.48-.11.07-.24.07-.28.07-.04 0-.06 0-.06.03s.03.04.1.04h1c.09 0 .12-.01.12-.04s-.03-.03-.06-.03c-.06 0-.15 0-.22-.02a.13.13 0 0 1-.07-.12 20.99 20.99 0 0 1 .44-1.17c.27-.08.58-.12.94-.1.22 0 .42-.02.62-.05l.36.9c.09.2.16.36.16.43 0 .03-.01.07-.08.1a.72.72 0 0 1-.21.03c-.04 0-.06 0-.06.03s.05.04.15.04h1.2c.1 0 .15 0 .15-.04 0-.02-.01-.03-.05-.03ZM13.2 9.05a2.9 2.9 0 0 0-.76.13c.23-.56.49-1.14.65-1.47l.54 1.31c-.14.02-.28.03-.43.03Z" fill="#231F20"/><path d="M8.22 7.41c-.01-.18-.07-.26-.26-.3a1.3 1.3 0 0 0-.23-.01c-.06 0-.1-.02-.1-.05 0-.04.04-.05.13-.05l.8.02.7-.02c1.06 0 1.25.51 1.25.79 0 .43-.28.69-.6.92.48.15 1.06.52 1.06 1.14 0 .56-.48 1.15-1.55 1.15L9 10.98a7.98 7.98 0 0 0-.44-.01h-.33l-.4.01c-.08 0-.12-.01-.12-.05 0-.02.02-.04.1-.04l.2-.02c.12-.02.18-.14.2-.29V7.41Zm.63 1.2c0 .05.01.06.04.07l.27.01c.2 0 .4-.02.5-.1.15-.11.24-.3.24-.56 0-.35-.3-.81-.8-.81h-.2c-.04.02-.06.04-.06.1v1.3Zm.84.43a1.22 1.22 0 0 0-.56-.13h-.25c-.02 0-.04 0-.04.03v1.25c0 .35.02.44.21.51.16.06.37.06.5.06.26 0 .7-.12.7-.67 0-.33-.12-.77-.56-1.05Z" fill="#EC1C24"/></svg>