<!-- by TradingView --><svg width="18" height="18" viewBox="0 0 18 18" xmlns="http://www.w3.org/2000/svg"><path fill="#F0F3FA" d="M0 0h18v18H0z"/><path fill-rule="evenodd" d="M14 9A5 5 0 1 1 4 9a5 5 0 0 1 10 0Zm-8.9 2.6c.26.4.59.75.96 1.05.16-.1.31-.18.48-.26-.3-.34-.57-.73-.77-1.14-.24.1-.46.22-.68.34Zm3.18 2.03a4.66 4.66 0 0 1-1.96-.78l.44-.23c.44.43.95.77 1.52 1.01Zm.21-.24a4.5 4.5 0 0 1-1.42-.9c.17-.07.34-.12.5-.17.27.43.58.79.92 1.07Zm.5 0a3.45 3.45 0 0 1-1.13-1.14 5.27 5.27 0 0 1 2.26 0c-.32.5-.7.89-1.13 1.14Zm0-1.58c.45 0 .88.05 1.3.15.19-.36.35-.77.47-1.2a8.03 8.03 0 0 0-3.54 0c.12.44.28.85.48 1.2.42-.1.85-.15 1.3-.15Zm.47 1.6c.35-.28.67-.66.94-1.1.18.05.36.11.53.18-.43.4-.92.7-1.47.92Zm1.1-1.37c.2.06.4.13.6.22.32-.34.58-.72.79-1.14-.3-.12-.6-.22-.92-.3-.12.44-.28.85-.47 1.22Zm1.67-.8c-.2.42-.46.8-.77 1.15l.48.26c.37-.3.7-.66.97-1.06a7.42 7.42 0 0 0-.68-.34Zm-2.5 2.4a4.85 4.85 0 0 0 1.51-1.02l.44.23c-.57.4-1.24.67-1.96.78Zm-2.9-1.39c.2-.08.4-.15.6-.2-.2-.38-.36-.78-.48-1.22-.3.08-.6.18-.9.3.2.41.47.8.78 1.12ZM4.31 9h.94c0-.63.11-1.23.32-1.79a7.33 7.33 0 0 1-.7-.42A4.67 4.67 0 0 0 4.3 9Zm.95.31h-.94c.05.75.27 1.44.63 2.05.23-.13.46-.26.7-.37a5.09 5.09 0 0 1-.4-1.68Zm.31 0h1.15c.02.43.07.84.16 1.22-.33.1-.64.2-.95.33-.2-.48-.32-1-.36-1.55ZM6.72 9H5.56c0-.58.1-1.14.29-1.65.31.15.64.28.98.38-.08.4-.11.83-.11 1.27Zm.27 0c0-.41.04-.8.1-1.19a7.33 7.33 0 0 0 3.79 0c.07.39.1.78.1 1.19H6.99Zm.01.31h3.97c-.01.4-.06.78-.14 1.15a8 8 0 0 0-3.68 0A6.83 6.83 0 0 1 7 9.32Zm4.25 0c-.02.42-.07.83-.15 1.22.33.09.65.2.97.33.2-.48.32-1 .36-1.55h-1.18Zm1.5-.31c0-.63-.11-1.23-.32-1.79.24-.13.48-.27.7-.42.36.66.56 1.4.56 2.21h-.94Zm0 .31a5.1 5.1 0 0 1-.4 1.68c.24.11.47.24.7.37.36-.6.58-1.3.63-2.05h-.94ZM12.43 9c0-.58-.1-1.14-.29-1.65-.32.16-.66.29-1 .4.07.4.1.82.1 1.25h1.19ZM5.86 5.52c-.34.3-.63.65-.86 1.04.21.14.44.27.67.4.18-.42.41-.8.69-1.14a6.1 6.1 0 0 1-.5-.3Zm.23-.2c.62-.49 1.37-.83 2.19-.95-.66.27-1.25.7-1.73 1.22a5.82 5.82 0 0 1-.46-.26Zm.55.65c-.28.33-.5.71-.69 1.12.3.14.62.25.94.35.1-.43.23-.84.4-1.21a5.7 5.7 0 0 1-.65-.26Zm.79-.02c-.2-.06-.4-.14-.58-.22a4.53 4.53 0 0 1 1.64-1.12c-.41.34-.78.8-1.06 1.34Zm.13.36c-.17.36-.31.77-.4 1.2a7.35 7.35 0 0 0 3.66.01 5.9 5.9 0 0 0-.4-1.2 5.44 5.44 0 0 1-2.86-.01Zm2.72-.28a5.27 5.27 0 0 1-2.58 0c.34-.63.78-1.12 1.29-1.42.5.3.95.8 1.29 1.42Zm.4.2c.18.38.31.78.41 1.22.33-.1.65-.22.96-.36-.18-.41-.41-.79-.7-1.13-.2.1-.43.2-.66.27Zm.47-.5c-.2.09-.4.16-.6.22a4.21 4.21 0 0 0-1.1-1.36c.65.25 1.23.64 1.7 1.14Zm.5.1c.27.33.5.71.68 1.12.23-.12.46-.25.67-.39a4.71 4.71 0 0 0-.86-1.04c-.16.1-.33.21-.5.3Zm.26-.5c-.15.1-.3.18-.46.26a4.87 4.87 0 0 0-1.73-1.22c.82.12 1.57.46 2.2.96Z" fill="#D2AB67"/><path d="M12.89 7c.03.24-.05.78-.79 1.16-.73.37-1.55 1.02-1.7 1.67.33.22 1.3.73 2.6.97-.17.14-.6.2-1.26.2-.65 0-1.92-.06-4-1.31A3.75 3.75 0 0 0 5 8.13c.1-.06.67-.25.95-.34.06-.1.23-.28.4-.28.23 0 .5.12 1.32 1.39l.1.06c.2.13.51.34 1 .34.57 0 .76-.68.8-.94.06-.26.35-.56.73-.56h.12c.42.02 1.17.04 2.47-.8ZM6.3 8c.07 0 .12-.06.12-.14 0-.07-.05-.13-.12-.13-.06 0-.1.06-.1.13 0 .08.04.14.1.14Z"/></svg>