<!-- by TradingView --><svg width="18" height="18" viewBox="0 0 18 18" xmlns="http://www.w3.org/2000/svg"><path fill="#F0F3FA" d="M0 0h18v18H0z"/><path d="M4 4h1v3H4V4Z" fill="#010066"/><path d="M4.9 4.63S5.5 4 5.97 4c.47 0 .53.33.53.33S6.9 4 7.38 4C8 4 8 4.5 8 4.5V7H7V5.18S7 5 6.81 5s-.19.2-.19.2V7H5.37V5.17s0-.17-.19-.17c-.18 0-.2.17-.2.17s-.36.2-.36.16l.28-.7Z" fill="#010066"/><path d="M9.5 4a1.5 1.5 0 1 1 0 3 1.5 1.5 0 0 1 0-3Z" fill="#FE0000"/><path d="M11 5.69V7h2.67s.33-.2.33-.58c0-.37-.45-.57-.83-.75a.9.9 0 0 1-.5-.83c0-.26.47-.47.66-.38 0 0-.16.31-.16.5a.67.67 0 0 0 .83.58V4h-2.17s-.5.23-.5.73c0 .49.26.88.58 1.14.32.26.42.38.42.6 0 .2-.14.2-.14.2h-.36s.17-.15.17-.31c0-.14-.24-.68-.78-.7a.9.9 0 0 0-.22.03Z" fill="#181B1E"/><path d="M4 13h3l-1.5 1L4 13ZM5 13h1v-1.6c0-.22-.22-.4-.5-.4s-.5.18-.5.4V13Z" fill="#FE0000"/><path d="M4 7.33s1.09-.17 2.28-.17c1.19 0 2.98.84 4.97.84C13.24 8 14 7 14 7v1.33S12.95 9 11.5 9C8.94 9 7.71 7.66 5.67 7.66 4.73 7.66 4 8 4 8v-.67Z" fill="#0166FF"/><path d="M4.01 8.3S4.48 8 5.55 8c2.22 0 4.12 1.8 6.33 1.8.87 0 1.41-.12 2.12-.6v.6s-.83 1.2-2.08 1.2c-2.4 0-4-2.7-6.43-2.7-.49 0-1.14.18-1.49.6l.01-.6Z" fill="#0166FF"/><path d="M4 9.8v.53s.66-1.06 1.51-1.06c2.47 0 3.75 3.73 6.54 3.73 1.41 0 1.95-.8 1.95-.8v-1.07s-.83.71-1.95.71C9.43 11.84 7.91 9 5.5 9c-1 0-1.5.8-1.5.8Z" fill="#0166FF"/><path d="M4 11v1h.1s.6-1.47 1.57-1.47c1.36 0 3.47 2.83 4.58 3.47H14v-1.31s-.8.81-2 .81c-2.8 0-3.87-3.5-6.4-3.5-.31 0-.85.26-1.6 1Z" fill="#0166FF"/></svg>