<!-- by TradingView --><svg width="18" height="18" viewBox="0 0 18 18" xmlns="http://www.w3.org/2000/svg"><path fill="#F0F3FA" d="M0 0h18v18H0z"/><path d="m10.38 5 5.2 5.23h-.98a6.2 6.2 0 0 0-4.03 1.45l-.09.06a5.97 5.97 0 0 1-4.98 1.1 6.7 6.7 0 0 1-3.22-1.8l-.28-.3 4.63-4.53 1.22 1.23L10.38 5ZM8.43 8.02l1.38 1.4-.58.57-2.61-2.64-3.46 3.4c.57.5 1.46 1.06 2.52 1.3a5.17 5.17 0 0 0 4.42-1.04c.78-.56 1.84-1.33 3.57-1.54l-3.3-3.33-1.94 1.88Zm2.5 4.18c1.98-1.94 4.16-1.91 5.07-1.6l-.26.77c-.64-.21-2.49-.3-4.23 1.42l-.57-.59Z" fill="#52D7B1"/></svg>