<!-- by TradingView --><svg width="18" height="18" viewBox="0 0 18 18" xmlns="http://www.w3.org/2000/svg"><path fill="#F0F3FA" d="M0 0h18v18H0z"/><path d="M4.08 4.16c1.2 1.79 3.58 2.9 5.66 3.58.58.19 1 .35 1.25.5A6.76 6.76 0 0 1 14 13.58c0 .05-.02.1-.05.14a.25.25 0 0 1-.14.09 7.4 7.4 0 0 1-4.58-.4 4.9 4.9 0 0 1-2.07-1.55c-.62-.8-1.13-1.66-1.54-2.59A25.4 25.4 0 0 1 4 4.05c0-.05.01-.07.06-.03v.06c0 .03 0 .06.02.08Zm4.21 6.14a10.73 10.73 0 0 1-2.42-2.65 18.4 18.4 0 0 1-1.53-2.69V5a13.58 13.58 0 0 0 3.05 4.79c.37.36.91.8 1.62 1.28a31.65 31.65 0 0 0 4.49 2.62c.1.05.2.08.28.07a.02.02 0 0 0 .01-.03h-.01c-.41-.18-.72-.32-.92-.43-.92-.52-1.56-1-2.87-1.89l-.85-.54a7.87 7.87 0 0 1-.85-.56Z" fill="#73BB4F"/></svg>