<!-- by TradingView --><svg width="18" height="18" viewBox="0 0 18 18" xmlns="http://www.w3.org/2000/svg"><path fill="#F0F3FA" d="M0 0h18v18H0z"/><path d="M10 11V4.1A5.02 5.02 0 0 0 4 9a5 5 0 0 0 4.43 4.97V9.12c0-.25 0-.67-.47-.67-.58 0-.67.63-.67.86V11H6.7V9.12c.01-.22-.04-.67-.45-.67-.4 0-.6.33-.69.62V11H5V8h.57v.48c.13-.19.36-.48.8-.48.6 0 .78.43.78.54.04-.15.39-.54.88-.54.48 0 .97.28.97.8V14a5 5 0 0 0 1.6-9.74V8.5c.26-.3.5-.49.9-.49.81 0 1.5.5 1.5 1.5s-.66 1.5-1.47 1.5c-.4 0-.67-.19-.93-.49V11H10Zm1.45-.47c-.42 0-.7-.33-.85-.82V9.3c.15-.49.43-.82.85-.82.56 0 .95.3.95 1.03s-.4 1.03-.95 1.03Z" fill="#62B8FF"/></svg>