<!-- by TradingView --><svg width="18" height="18" viewBox="0 0 18 18" xmlns="http://www.w3.org/2000/svg"><path fill="#F0F3FA" d="M0 0h18v18H0z"/><path d="M9 4.82c.12-.18.43-.61.84-.78a.52.52 0 0 1 .36-.01c.18.08.33.22.41.4.02.06.02.26-.06.28-.38.13-.73.3-1.06.52-.14.1-.25.22-.33.36a1.1 1.1 0 0 0-.15.56c.01.06.03.13-.09.13h-.1a.17.17 0 0 1-.07-.08.98.98 0 0 1-.04-.2c-.04-.4.06-.82.3-1.18Z" fill="#CEC3CF"/><path d="M13.1 11.5a3.45 3.45 0 0 1-2.05 1.4c-.85.15-1.72 0-2.14 0-.56 0-.66.15-1.83.08-1.18-.08-2.7-1.47-2.97-2.73a3 3 0 0 1 .08-1.86A3.3 3.3 0 0 1 5.2 6.95a3.6 3.6 0 0 1 1.88-.8.6.6 0 0 1 .41.24c.05.06.08.13.1.2-.24.08-.47.17-.69.27-.08.04-.83.47-.7.67.01.02.04.04.07.04a.1.1 0 0 0 .05 0c.31-.04 1.03-.64 2.3-.77.57-.06.84.08 1.07.23 1.16.8 1.78 1.23 1.77 1.03 0-.4-.27-.78-.5-1.04a3.3 3.3 0 0 0-.9-.56c.15-.4 1.36-.44 1.85-.24 1.43.6 2.13 1.8 2.09 2.97.02.78-.48 1.74-.9 2.3Z" fill="#CEC3CF"/></svg>