<!-- by TradingView --><svg width="18" height="18" viewBox="0 0 18 18" xmlns="http://www.w3.org/2000/svg"><path fill="#19415F" d="M0 0h18v18H0z"/><path fill="#fff" d="M3 5h12v8H3z"/><path d="M3.62 7.85a.78.78 0 0 0-.24-.23c-.1-.05-.08-.09.02-.11l.07-.01.02-.01.01-.01.08-.16c.02-.05.02-.1-.02-.13-.02-.01-.02-.03 0-.04.06-.07.08-.17.05-.31 0-.02-.01-.03-.03-.03h-.19c-.09-.03-.1-.06-.03-.1l.17-.1.01-.03v-.7c0-.03.01-.04.03-.04h.08c.05 0 .07-.03.07-.07v-.05c0-.05-.03-.07-.08-.07h-.12c-.04 0-.07-.02-.07-.06a.4.4 0 0 1 0-.21l.01-.01a.02.02 0 0 1 .03 0l.04.05.05.01a22.8 22.8 0 0 1 .24.05l.02.04v.76a.9.9 0 0 0 .08.44v.02a.3.3 0 0 0 0 .27.05.05 0 0 1 0 .04l-.17.37a.3.3 0 0 0-.02.12.05.05 0 0 0 .02.04.06.06 0 0 0 .04.01h.1c.08.05.08.09-.02.1l-.08.03c-.02 0-.03.01-.04.03a.25.25 0 0 0 0 .11c0 .02 0 .03.03.04h.08c.1.02.11.05.02.1a1.02 1.02 0 0 1-.1.04.03.03 0 0 0 0 .03l.01.01c.03.03.04.07.01.12v.04c.03.09.04.2.05.34 0 .09.05.16.06.25v.04a.34.34 0 0 1-.2.13.04.04 0 0 1-.03 0 .04.04 0 0 1-.02-.03l-.04-.84s0-.02-.02-.03H3.4c-.05 0-.07-.03-.07-.08v-.05c0-.02 0-.03.02-.04a.07.07 0 0 1 .04-.02l.21-.01h.02v-.02a.03.03 0 0 0 0-.03ZM14.31 5.88h-.2c-.04 0-.06-.01-.06-.04v-.08l.02-.02h.02l.02-.01h.56l.01.04v.77c0 .08-.05.16-.02.24 0 .03-.01.04-.04.04h-.11l-.02-.02-.01-.01v-.02l-.02-.07-.01-.01h-.23l-.04-.02-.01-.02-.02-.26c0-.02 0-.03.03-.03h.1a.1.1 0 0 0 .06-.02.06.06 0 0 0 .02-.04v-.04c.01-.03 0-.05-.05-.05h-.17c-.04 0-.06-.01-.06-.05V6.1c-.01-.03 0-.05.05-.05h.17c.05-.01.08-.03.08-.07v-.05c0-.03-.03-.05-.07-.05ZM9.35 7.78 9.27 8l-.34 1.12c-.03.09-.08.12-.17.11-.25-.03-.3-.22-.43-.43-.05-.1-.12-.1-.21-.04a16.98 16.98 0 0 0-.07.2c-.01.05-.05.07-.12.07-.1-.01-.18-.03-.22-.06a3.87 3.87 0 0 0-.16-.12h-.03c-.13.07-.1.22-.12.38l-.02.04-.03.02a.52.52 0 0 1-.21.02c-.01 0-.03 0-.04-.02a.08.08 0 0 1-.01-.03L7.04 9a.1.1 0 0 0-.02-.04.27.27 0 0 1-.07-.12c-.05-.38-.07-.58-.17-.84h-.01l-.01-.01h-.01a.4.4 0 0 0-.06.14c-.14.64-.25 1.08-.31 1.3-.05.14-.1.14-.18.2a.06.06 0 0 0-.02.04l-.05.16c-.04.08-.09.09-.13.03a12.47 12.47 0 0 0-.12-1.29.1.1 0 0 0-.08-.06c-.07-.01-.12.03-.15.12a.67.67 0 0 0-.03.23l.01.49c0 .15-.06.22-.2.2a2.6 2.6 0 0 1-.28-.05H5.1a.08.08 0 0 0-.03.05c-.16.36-.2.8-.3 1.2a7.13 7.13 0 0 0-.15.68.08.08 0 0 1-.06.02l-.11.01c-.02 0-.03 0-.03.02l-.02.03c0 .15-.01.28-.06.38v.02H4.3l-.01-.02a32.52 32.52 0 0 1-.01-1.96c0-.03 0-.04.03-.04l.17-.01c.01 0 .02 0 .03-.02l.02-.02c.05-.11.09-.24.12-.37l.17-.9c.03-.15.05-.46.07-.93 0-.06.03-.1.08-.1h.08c.06 0 .08.04.09.1v.19l.02.05c.01.02.03.03.05.03.08.02.16.03.23.02l.03-.02.03-.14c0-.26.04-.53.08-.81.02-.16.1-.2.16-.29.06-.1.06-.26.07-.4 0-.01 0-.03.02-.04.04-.06.08-.06.12 0 .03.05.06.12.07.2.05.44.05 1.03.15 1.48.02.06.08.13.18.21h.03c.07-.08.1-.14.12-.19.05-.15.1-.31.11-.49.03-.25.03-.43.09-.52.04-.08.16-.04.21 0 .03.03.05.08.06.14l.07.5a10.53 10.53 0 0 0 .24.99c.03 0 .08-.03.09-.07a2.78 2.78 0 0 0 .04-.21l.03-.02c.07-.03.13-.02.18 0 .06.05.12.19.16.25l.03.03c.05.01.1 0 .13-.02a.8.8 0 0 0 .25-.37l.01-.02.03-.01h.02l.03.01a2.7 2.7 0 0 1 .4.56h.01v-.01l.19-.55a5.45 5.45 0 0 0 .28-1.1c.02-.06.05-.07.1-.04.06.05.13.1.18.18l.38.57c.02.03.04.03.07.01l.05-.06a4.52 4.52 0 0 0 .25-.39h.02l.01.01c.2.2.42-.18.53-.3v-.01a.02.02 0 0 1 .03 0l.34.58c.02.03.03.03.06.02l.03-.04c.07-.14.14-.25.22-.32a.18.18 0 0 0 .05-.11 3.56 3.56 0 0 1 .07-.33c.05-.05.17-.05.2.04.03.1.06.24.14.36a39.8 39.8 0 0 1 .17.25 6.1 6.1 0 0 0 .27-.56c.12-.1.17.08.23.16l.03.02h.03s.02 0 .03-.02l.01-.03c.02-.04.02-.09.03-.14.01-.08.06-.13.12-.2a.09.09 0 0 0 .02-.03l.03-.2.03-.03c.08-.05.18.04.24.12l.01.01h.02l.17-.06c.01-.01.02-.02.02-.05V6.2c0-.06.03-.1.08-.1h.2c.05-.01.08.01.08.07.02.18.02.35 0 .49a.36.36 0 0 1-.15.18.84.84 0 0 1-.6.12l-.01.01-.01.02V7.4c0 .02 0 .03-.02.04l-.02.01h-.37c-.02 0-.05.01-.07.03a.17.17 0 0 0-.06.06l-.18.37-.03.03h-.04a1.2 1.2 0 0 1-.3-.2 2.08 2.08 0 0 0-.25-.2h-.02l-.02.03-.01.02-.14.69-.01.02h-.01a.38.38 0 0 1-.18.04c-.05 0-.09-.02-.11-.06a194.51 194.51 0 0 0-.34-.65c-.07.07-.13.15-.21.18a.72.72 0 0 1-.3.04c-.01 0-.02 0-.03.02a.55.55 0 0 1-.13.16c-.1.07-.13.18-.2.28-.04.06-.09.05-.14 0-.1-.13-.24-.3-.38-.53-.01-.02-.02-.02-.03 0ZM14.58 7.4c.08.03.13.07.09.13l-.02.01H14.06v-.02c-.01-.06.06-.11.07-.18v-.12c.01-.03.04-.04.08-.04h.4c.03 0 .06.01.06.03.01.05-.02.1-.1.13v.02h-.01v.02l.02.01ZM14.63 7.9l-.53.04c-.03 0-.05.04-.05.08v.18c0 .04.03.07.06.07l.53-.03c.02 0 .05-.04.04-.08v-.18c0-.04-.03-.07-.05-.07ZM14.63 8.36a.1.1 0 0 0-.04.03.1.1 0 0 0-.01.04v.39c.01.05.04.1.1.13v.01a.02.02 0 0 1 0 .02l-.02.01c-.17.04-.26-.03-.27-.2l-.02-.4c0-.08.03-.12.1-.12a.72.72 0 0 1 .21.03.02.02 0 0 1 0 .02l-.05.04ZM3.67 9.43v-.35c0-.05.03-.08.08-.08h.05c.05 0 .08.02.09.07 0 .04.02.1.05.15v.04a1.51 1.51 0 0 1-.2.44h-.02a.98.98 0 0 1-.34.02c-.08-.02-.09-.04-.01-.08.04-.02.11-.06.23-.1l.05-.05a.1.1 0 0 0 .02-.06ZM14.4 9.94c.06.07.1.14.09.23l-.05.44c-.02.11.01.24.03.42 0 .06 0 .14-.02.25-.03.23-.03.48 0 .73l-.01.14c-.02.1-.14.13-.25.12-.02 0-.04 0-.04-.02a4.23 4.23 0 0 1-.1-.56c-.01-.26.1-.55.05-.8-.04-.2-.04-.4 0-.6 0-.01.01-.03.03-.03l.06-.04.02-.02v-.02l.04-.43.02-.03.03-.01h.1c.03 0 .04-.01.05-.03a.14.14 0 0 0 .02-.11c0-.02-.02-.03-.04-.03l-.15-.01c-.02 0-.03-.01-.03-.03l.01-.1c0-.01 0-.02.02-.02h.02c.12-.02.23-.02.35 0l.02.01.01.03v.44l-.01.02h-.02l-.02.01h-.22l-.01.02a.03.03 0 0 0 0 .03ZM3.77 10.41v.01h-.02l-.04-.02a.15.15 0 0 1-.07-.08.18.18 0 0 1 0-.12c0-.03 0-.04.02-.06a.14.14 0 0 1 .04-.04.12.12 0 0 1 .11 0l.04.02a.02.02 0 0 1 0 .02l-.08.27ZM3.84 10.73c.02.08.07.13.09.21a.5.5 0 0 1 .02.1c-.03.19-.06.19-.1 0l-.1-.1-.02-.02-.1-.4a.07.07 0 0 1 .01-.04s0-.02.02-.02h.25c.02 0 .03 0 .03.03 0 .08-.02.14-.08.18a.05.05 0 0 0-.02.02v.04Z" fill="#272727"/><path fill-rule="evenodd" d="M13.74 6H4.26v6h9.48V6Zm-.32.33H4.58v5.34h8.84V6.33Z" fill="#272727"/></svg>