<!-- by TradingView --><svg width="18" height="18" viewBox="0 0 18 18" xmlns="http://www.w3.org/2000/svg"><path fill="#F0F3FA" d="M0 0h18v18H0z"/><path d="M13.64 8.71 15 7h-1.1l-.8 1 .54.71Z" fill="#005CB9"/><path d="M3 11V9c0-1 .47-2 2-2 .4 0 1.28.31 1.5 1 .1-.29.52-1 1.5-1 .68 0 1.22.3 1.56.63.38-.39.9-.63 1.44-.63.74 0 1.38.36 1.7 1l1.8 3h-1.1l-1.45-2.48C11.77 8.17 11.41 8 11 8c-.6 0-1 .36-1 .99V9c0 .63.4 1 1 1 .35 0 .66-.12.86-.4l.43.78c-.35.38-.75.62-1.29.62-1.05 0-2-.9-2-2v-.01C9 8.14 8.5 8 8 8s-1 .29-1 1v2H6V9c0-.38-.13-1-1-1s-1 .71-1 1v2H3Z" fill="#888"/></svg>