<!-- by TradingView --><svg width="18" height="18" viewBox="0 0 18 18" xmlns="http://www.w3.org/2000/svg"><path fill="#F0F3FA" d="M0 0h18v18H0z"/><path d="M2.2 9.82c-.2.05-.17.14-.13.18H16a.83.83 0 0 1-.15-.21l-.4-1.04c-.03-.08-.14-.57-.19-.8-.13.12-.39.37-.39.33v-.33l-.47-1.04-.1.11-.1.54-.27 1.38-.1-.14a3.7 3.7 0 0 1-.12-.67c0-.2-.07-.39-.09-.48a1.37 1.37 0 0 0-.2-.32l-.28-.63v.39l-.24 1.23a1.49 1.49 0 0 1-.07-.27L12.7 6.9l-.16.42-.25-1.1c-.06.17-.18.54-.18.58v.84c0 .04-.22.75-.33 1.1v-.12a6.21 6.21 0 0 0-.08-.58l-.21-1.03a24.79 24.79 0 0 0-.53.68v-.45c0-.04-.33-.74-.49-1.08l-.1.19-.11.63c-.02.11-.18.43-.25.57.03-.1.1-.4.09-.75-.01-.44-.1-.63-.14-.85-.04-.17-.26-.6-.37-.8l-.16 1.6a.54.54 0 0 1-.29-.26c-.1-.2-.03-.4 0-.7.03-.3-.1-.28-.1-.31A48.8 48.8 0 0 1 8.85 5l-.39.68-.23.28-.14.66a5.33 5.33 0 0 0-.2-.52c-.07-.1-.09.25-.1.33-.01.07-.12.4-.15.7-.03.28.04.59.09.76.05.17-.18.48-.28.48-.1 0-.03-.21-.08-.48s-.06-.52-.16-.77-.19-.37-.24-.46a3 3 0 0 1-.05-.7c-.05.17-.2.56-.3.74-.12.23 0 .26 0 .39 0 .1-.1.23-.15.28-.07.03-.24.08-.32.04-.1-.04 0-.22.04-.32s-.04-.2-.04-.34c0-.1-.08-.35-.12-.46-.1.19-.33.57-.4.67-.08.12.04.23 0 .3-.03.05-.1.09-.18.15-.08.07.02.15.05.22.02.06-.1.15-.16.19a11.7 11.7 0 0 0-.34-.63c-.06-.1-.02.19-.04.27-.01.08-.11.3-.15.43-.03.14 0 .2 0 .31 0 .1 0 .64-.06.7-.06.08-.45-.05-.34-.1.1-.05 0-.25-.2-.28-.2-.02.2-.15.23-.22.04-.06-.14-.02-.3-.14-.17-.12.06-.04.16-.14s.04-.1-.16-.2-.1-.07-.13-.26c-.02-.19.11-.35.13-.47 0-.1-.15-.1-.23-.08-.06.06-.2.19-.27.28-.08.12-.17.3-.3.43-.1.1-.1.48-.08.65-.06.04-.17.1-.2 0-.03-.12-.28-.38-.3-.35-.02.04-.06.19-.03.47.02.28-.1.12-.23.27-.14.14.06.41-.04.54-.11.13-.09.08-.18.24-.1.16.14.07.22.12.08.05-.07.08-.32.16Z" fill="#191F2B"/><path d="M3.26 10.3A3.47 3.47 0 0 1 2 10h14c-.03.36-.66.4-1.07.43-.42.05-1.16.05-1.36.14-.2.1 1.13.26 1.43.45.3.19-.24.17-.56.25-.32.07-.78.06-.92.2-.15.13.27.4.14.56-.13.16-1.15-.13-1.76-.16-.6-.03-1.17-.03-1.28.08-.11.11.32.17.55.46.24.3-.91.06-1.53 0-.6-.06-.36.12-.1.44.27.31-1.33.06-1.66 0-.33-.06-2.13-.14-.86-.73 1.27-.6-1.02-.6-3.02-.83-2-.22-1.6-.22 0-.6 1.6-.37.24-.27-.74-.38Z" fill="#376FC0"/><path d="m3.73 10.76.15.26c.07.05.2.13.22 0 0-.09.02-.22.05-.36a14.15 14.15 0 0 1-.42.1ZM3.48 10.33l.58.03.16.01.02-.07.1-.3H3.3l.18.33ZM15.12 10h-1.35c.06.13.15.33.2.5.15-.02.31-.03.47-.03l.49-.04h.1a1.55 1.55 0 0 0 .1-.43ZM13.68 10h-.74v.03c0 .16.09.85.13 1.17.11 0 .35-.04.38-.18l.12-.54.11-.48ZM12.92 10h-.91c.02.35.07.8.14 1.02.07.22.1.38.12.53.01.08.02.17.05.25.03.14.06-.01.1-.18l.07-.26c.07-.1.33-.83.37-.99a3.12 3.12 0 0 0 .06-.37ZM11.76 10H4.6l.07.2.07.24.01.02.08.19c.07.1.3.04.4 0a.3.3 0 0 1 .04 0l.06-.09c.06-.09.13-.2.13-.09 0 .13.28.66.47 1l.13.01c.08-.17.18-.4.18-.46 0-.1.1-.44.14-.37.03.05.2.56.32.9l.11.02.71-1.04c.12-.02.36 0 .36.3v.25c-.03.26-.04.46.14.6.1.09.18.07.24.05.07-.03.12-.04.19.16.11.37.4.97.44 1 .05.02.36-.79.37-1 0-.2.24-.2.3.26l.04.26a3.61 3.61 0 0 1 .16.01l.07-.35c.04-.18.07-.35.09-.38l.04-.17c.05-.22.13-.56.2-.39.06.19.2.53.27.67.08-.07.25-.25.3-.44.07-.23.19-.53.2-.53h.22c.01.1.09.25.24.19.19-.08.36-.43.38-.54V10Z" fill="#223255"/></svg>