<!-- by TradingView --><svg width="18" height="18" viewBox="0 0 18 18" xmlns="http://www.w3.org/2000/svg"><path fill="#D71921" d="M0 0h18v18H0z"/><path d="M2 11h.77c.21-.75 1.02-2.4 2.52-2.99v.46C4.77 9.07 4.3 9.9 4 11h.77c.08-.29.25-.71.52-1.16V11H6V8.9c.35-.37.78-.69 1.29-.89V11H8V7c-.5 0-1.25.2-2 .79V7c-1.01 0-3.11.86-4 4Zm9.75-4v.9h-1.52c-.51 0-.93.48-.93 1.1 0 .61.42 1.1.93 1.1h1.52v.9h-1.6c-.91 0-1.65-.9-1.65-2s.74-2 1.65-2h1.6ZM15 7v.9h-1.52c-.51 0-1 .48-1 1.1 0 .61.49 1.1 1 1.1h.78v-.55h-1.03v-.91H15V11h-1.6c-.91 0-1.65-.9-1.65-2s.74-2 1.65-2H15Z" fill="#fff"/></svg>