<!-- by TradingView --><svg xmlns="http://www.w3.org/2000/svg" width="18" height="18"><path fill="#004275" d="M0 0h18v18H0z"/><path d="M6.1 7.6a3.94 3.94 0 013.72-2.66L7.8 10.83a3.93 3.93 0 01-3.71 2.64l2-5.88z" fill="#05BDD5"/><path d="M6.95 8.16a3.23 3.23 0 012.87-3.22v5.38a2.83 2.83 0 01-2.87 2.83v-5z" fill="#82CB00"/><path d="M9.95 7.85A3.23 3.23 0 0113 4.63v5.15a3.05 3.05 0 01-3.05 3.05V7.85z" fill="#F90066"/><path d="M9.16 7.3A4.1 4.1 0 0113 4.62l-2.04 5.88A3.97 3.97 0 017 13.15l2.15-5.86z" fill="#FAB937"/><path d="M9.82 7.94c0-1.75 1.4-3.22 3.18-3.31 0 0-.65 2.06-1.33 4.03-.62 1.78-1.05 2.94-1.85 3.53V7.94z" fill="#FF6766"/></svg>