<!-- by TradingView --><svg width="18" height="18" viewBox="0 0 18 18" xmlns="http://www.w3.org/2000/svg"><path fill="#F0F3FA" d="M0 0h18v18H0z"/><path d="M4.24 7 3 11h1.14l.59-1.77.23 1.77h.3l1.05-1.77L6.08 11h1.14l.52-4H6.42l-.78 1.5L5.48 7H4.24Zm7.27.28-.35 1.3a5.19 5.19 0 0 1-.06-.05c-.18-.17-.41-.39-.79-.39-.72 0-1.03.84-1.03 1.07 0 .23.15.65.73.65.47 0 .77-.1.86-.17l.22.34-.86.97h-.59c-.48 0-1.76-.18-1.76-1.76C7.88 7.65 9.47 7 10.23 7c.6 0 1.1.19 1.28.28Zm.14.72.28-1H15l-.28 1h-.76l-.68 3h-1.44l.74-3h-.93Z" fill="#028074"/></svg>