<!-- by TradingView --><svg width="18" height="18" viewBox="0 0 18 18" xmlns="http://www.w3.org/2000/svg"><path fill="#F0F3FA" d="M0 0h18v18H0z"/><path d="M12.2 11.78a4.5 4.5 0 0 0 1.36-3.2c0-2.53-2.1-4.58-4.7-4.58S4.14 6.05 4.14 8.57c0 1.23.5 2.35 1.32 3.17-.6.27-1.2.64-1.47.83L4.44 14c.25-.24.8-.6 1.03-.71.18-.1.42.04.75.22.2.1.44.24.72.35.36.14.69.04 1.08-.09.41-.12.9-.27 1.57-.2.58.06.96.13 1.27.18.4.06.67.1 1.08.1.59 0 1.72-.66 2.06-1a3.89 3.89 0 0 0-1.8-1.07Z" fill="#019541"/><path d="M5.61 6.58a.04.04 0 0 0-.01-.05l-.19-.1c-.06-.04-.06-.09-.01-.15a4.3 4.3 0 0 1 .34-.37c.02 0 .03 0 .05.02l.2.16a.06.06 0 0 0 .08 0l.26-.25a.04.04 0 0 0 0-.05l-.15-.16a.1.1 0 0 1-.02-.08.1.1 0 0 1 .04-.06c.14-.09.26-.19.4-.25a.05.05 0 0 1 .07.01l.15.2c.01.02.03.03.04.02l.38-.18a.06.06 0 0 0 .03-.03.05.05 0 0 0 0-.05.68.68 0 0 1-.12-.22v-.03l.03-.02.55-.18h.01l.01.01.1.29.01.01h.03L8.28 5s.02 0 .03-.02v-.03l-.05-.23a.06.06 0 0 1 .02-.05.07.07 0 0 1 .05-.02h.51l.01.02v.85l-.02.01a31.76 31.76 0 0 0-.8.1c-.11.04-.22.05-.34.1a3.3 3.3 0 0 0-1.78 1.5c-.04.08-.1.16-.12.25-.03.1-.11.26-.13.38-.04.2-.07.39-.08.58-.01.18.04.43.05.61l.05.25a3.18 3.18 0 0 0 .93 1.44v.02l-.63.6a.03.03 0 0 1-.01.01.03.03 0 0 1-.02 0l-.39-.38a.04.04 0 0 1 0-.06l.22-.15.02-.03v-.03l-.22-.28a.05.05 0 0 0-.03-.02h-.04l-.22.13h-.04a.04.04 0 0 1-.03-.02l-.26-.44a.05.05 0 0 1 0-.04v-.02l.02-.01.27-.12.02-.02v-.03l-.12-.34s0-.02-.02-.02h-.02l-.3.03c-.02 0-.04 0-.05-.03a1.93 1.93 0 0 1-.1-.52l.02-.01L5 8.9l.03-.01v-.03l-.04-.36-.01-.03h-.03l-.26-.02a.04.04 0 0 1-.03-.01.04.04 0 0 1 0-.03l.02-.52a.04.04 0 0 1 .01-.03.04.04 0 0 1 .03 0h.34l.1-.36V7.5l-.03-.03-.28-.1a.02.02 0 0 1 0-.04l.18-.44c.02-.05.06-.06.1-.04l.23.1a.06.06 0 0 0 .07-.03l.2-.33ZM10.9 5.49V5.2a10.82 10.82 0 0 0-.87-.35l-.36-.08a2.73 2.73 0 0 0-.69-.08h-.01v-.02c-.02-.02-.01-.03 0-.03.23 0 .44.04.73.08.12.02.22.04.3.07.13.06.26.07.4.13l.33.14c.1.04.2.1.32.17a6.21 6.21 0 0 1 1.02.85l.15.19.17.23c.17.24.02.37-.1.59v.04l.1.3v.02h-.02v-.01l-.14-.27a.05.05 0 0 0-.04-.03c-.19 0-.4.01-.52-.14-.11-.14-.27-.41-.46-.58a27.8 27.8 0 0 1-.4-.33c-.18-.12-.34-.2-.46-.27a3.3 3.3 0 0 0-1.37-.35v-.02L9 5.45c.18-.01.32 0 .43.03l.38.09c.11.02.2.07.34.11.16.05.33.25.54.06V5.7h-.02a.74.74 0 0 1-.43-.34 9.79 9.79 0 0 0-.7-.22A2.96 2.96 0 0 0 9 5.1h-.01v-.02a.01.01 0 0 1 0-.01 8.56 8.56 0 0 1 .9.13c.15.04.26.1.4.08a.76.76 0 0 1 .38.03c.05.02.13.08.22.18Z" fill="#fff"/><path d="M6.02 6.17a.01.01 0 0 0 .02 0l.34-.29a.07.07 0 0 0 .01-.1.73.73 0 0 0-.13-.14c-.05-.05-.05-.09 0-.13a14.38 14.38 0 0 0 .37-.22l.19.24.01.01h.02a.8.8 0 0 1 .2-.1c.1-.03.19-.07.26-.12l.02-.01v-.03a.63.63 0 0 0-.12-.25.03.03 0 0 1 .02-.04c.15-.09.28-.1.45-.15a.05.05 0 0 1 .04 0 .05.05 0 0 1 .02.03l.05.23a.04.04 0 0 0 .02.03.05.05 0 0 0 .04 0l.5-.1c.02 0 .02-.01.02-.02a.76.76 0 0 0-.04-.25.04.04 0 0 1 0-.03.04.04 0 0 1 .03-.02l.4-.03a.03.03 0 0 1 .03 0 .03.03 0 0 1 0 .03v.74h-.02a6.34 6.34 0 0 0-.97.18c-.1.03-.19.05-.27.09-.84.37-1.48.95-1.82 1.8-.07.18-.1.35-.16.57-.08.3-.03.7.05 1.09.04.18.1.35.17.5a4 4 0 0 0 .76 1.05l-.01.03-.53.51h-.04c-.04-.03-.1-.06-.12-.1a1.75 1.75 0 0 0-.2-.2.04.04 0 0 1 .02-.04l.22-.16a.03.03 0 0 0 .01-.03v-.01l-.3-.4h-.02l-.27.14a.03.03 0 0 1-.04 0l-.22-.39a.04.04 0 0 1 0-.05h.02a.9.9 0 0 0 .3-.13v-.05a1.11 1.11 0 0 1-.15-.41c0-.01-.01-.02-.03-.02l-.3.04c-.04 0-.06-.01-.07-.05l-.08-.37a.04.04 0 0 1 .02-.05h.02l.29-.04c.02 0 .03-.01.03-.04l-.04-.47v-.02h-.02L4.7 8.4a.04.04 0 0 1-.03-.01.03.03 0 0 1 0-.03l.04-.4c0-.04.02-.06.06-.05l.3.04.02-.01.12-.45a.05.05 0 0 0-.03-.05l-.27-.11c-.02-.01-.02-.02-.01-.04l.16-.38c0-.02.03-.03.05-.02l.28.12h.01L5.43 7l.24-.42a.05.05 0 0 0-.02-.08l-.21-.12a.04.04 0 0 1-.02-.02.04.04 0 0 1 0-.03l.3-.35a.03.03 0 0 1 .02-.01.03.03 0 0 1 .02 0l.26.2Z" fill="#166C3D"/><path d="M11.16 5.57h-.02l-.01.01v.12c-.01.02-.02.02-.04.02-.13-.05-.16-.1-.13-.23v-.18a.03.03 0 0 1 .02-.02.03.03 0 0 1 .03 0l.31.18a.1.1 0 0 1 .05.05.1.1 0 0 1 0 .06l-.05.27a.04.04 0 0 1-.03.03h-.02a.27.27 0 0 1-.12-.11v-.04a.33.33 0 0 0 .04-.13c0-.02-.01-.03-.03-.03ZM10.59 5.48c0 .04.11.08.22.13a.03.03 0 0 1 .01.03.03.03 0 0 1 0 .03h-.01l-.04.02h-.03a.79.79 0 0 1-.44-.34v-.01h.01c.16-.05.32 0 .48.12l.03.03.02.05v.03h-.02a.02.02 0 0 1-.01 0l-.2-.1c-.02-.02-.03-.01-.02 0ZM11.6 5.9v-.01h-.01l-.02-.01h-.02v.02a.33.33 0 0 1-.07.15h-.03l-.08-.1a.05.05 0 0 1 0-.04l.04-.3V5.6l.01-.01h.02c.13.08.24.17.35.29a.06.06 0 0 1 0 .06l-.11.28c-.01.02-.03.02-.04 0l-.06-.08a.1.1 0 0 1-.02-.08l.04-.16ZM10.87 5.93h.03c.06 0 .11-.04.17-.1h.03c.07.02.12.05.16.1l.01.01v.01a.02.02 0 0 1-.01.02l-.3.1a.15.15 0 0 1-.11-.02l-.24-.13c-.04-.02-.04-.04 0-.07l.26-.15a.08.08 0 0 1 .1 0l.07.06c.03.02.03.04 0 .05l-.16.1c-.02 0-.02.01-.01.02ZM11.9 6.29l-.02.1c-.01.04-.03.04-.06.01l-.05-.05a.12.12 0 0 1-.03-.12l.08-.28a.01.01 0 0 1 .01 0c0-.01 0-.01 0 0h.01c.13.1.23.2.31.35v.04a.45.45 0 0 0-.12.25c-.01.04-.03.05-.06.02l-.07-.07c-.03-.03-.03-.06-.01-.1l.07-.12v-.04h-.02c-.02-.02-.03-.02-.03 0ZM11.25 6.18c-.02 0-.02.02-.02.03l.01.01c.1 0 .16-.02.2-.04a.1.1 0 0 1 .11.02l.07.05a.03.03 0 0 1 .01.03v.01l-.02.01-.3.06c-.04.02-.09 0-.12-.03l-.2-.16c-.04-.04-.03-.07.02-.08l.3-.08h.03l.1.04.01.01v.04a.59.59 0 0 1-.2.08ZM11.83 6.53l.1.13h.01v.01l-.01.01-.4.03a.01.01 0 0 1-.01 0l-.22-.3V6.4l.4-.05h.01l.1.1-.01.01-.24.05h-.01v.02l.02.02.25-.03h.01Z" fill="#EEB16E"/><path d="M11.87 6.93h.2c.02 0 .03 0 .04.02l.08.09h.02v-.01l-.03-.14v-.03l.06-.14a.01.01 0 0 0 0-.02h-.03l-.05.11c-.01.02-.03.02-.04.01-.2-.13.01-.3.05-.45h.01v-.01a.02.02 0 0 1 .03 0c.08.1.24.29.2.4-.03.1-.12.29-.23.32a.87.87 0 0 1-.37-.03.4.4 0 0 1-.21-.27c0-.02 0-.03.02-.03h.32a.1.1 0 0 1 .1.06l.02.03c.02.04.01.06-.04.06h-.15l-.01.01v.02Z" fill="#EEB16E"/><path d="m12.32 9.14-.02-.07c0-.17.05-.33.16-.46.02-.02.03-.06.02-.12-.01-.25-.02-.5-.06-.75v-.01h.02l.01.01c.06.24.1.5.1.75 0 .05.01.1.03.13.08.2.16.37.03.54-.04.06-.03.07.04.05l.16-.06a.08.08 0 0 0 .05-.06c.07-.52.04-1.03-.08-1.53-.04-.15-.11-.26-.16-.39 0-.01 0-.02.02-.02h.01c.02 0 .03 0 .04.02.12.25.17.48.22.8.06.34.07.63.05.86a4.2 4.2 0 0 1-.25 1.03c-.05.15-.17.37-.36.69-.04.07-.12.14-.15.2-.03.07-.1.1-.15.18-.12.16-.38.1-.55.06h-.03l-.03.01a4.48 4.48 0 0 1-.33.25c-.06.02-.07 0-.02-.04l.26-.2c.04-.02.05-.06.04-.1l-.09-.3c-.01-.06 0-.12.06-.18.22-.3.38-.5.49-.8l.11-.29c.04-.1.07-.2.08-.3a3.6 3.6 0 0 0-.02-1.14c-.02-.13-.08-.24-.12-.35-.05-.17-.03-.17.06-.02l.05.14c.14.43.17.87.1 1.31l.01.04.18.14c.02.02.03.02.02-.02Z" fill="#fff"/><path d="M12.53 9.1a.03.03 0 0 0-.02-.04c-.02 0-.04 0-.04.04l-.01.1c0 .02-.01.02-.02.02a.22.22 0 0 1-.06-.03l-.02-.04a.7.7 0 0 1 .13-.5.03.03 0 0 1 .04.01c.11.17.12.34.03.5 0 .03-.02.03-.02 0-.01-.01-.01-.04 0-.07ZM12.2 9.38v.04l.01.03.1.06c.04.02.05.05.04.09l-.04.1c-.01.04-.03.04-.06.01l-.23-.25a.04.04 0 0 1 0-.05l.08-.3a.01.01 0 0 1 0-.02.02.02 0 0 1 .02 0l.28.22a.03.03 0 0 1 .01.03v.11c0 .02-.01.03-.03.03-.05 0-.1-.04-.16-.11a.02.02 0 0 0-.02 0ZM12.65 9.49l-.01-.03h-.02l-.1.02c-.05 0-.06 0-.07-.04V9.4c0-.05.02-.08.07-.1l.27-.08a.03.03 0 0 1 .03 0 .03.03 0 0 1 0 .03l-.05.28c-.02.08-.06.12-.13.12a.1.1 0 0 0-.04 0 .6.6 0 0 1-.2.07c-.04 0-.05-.02-.03-.06l.03-.06a.12.12 0 0 1 .08-.07l.15-.04.02-.01ZM12.04 9.79l.01.05c.03.05.06.09.1.12.02.01.03.03.01.06l-.06.1c-.02.03-.04.04-.06.01l-.2-.27a.04.04 0 0 1 0-.05l.13-.3a.03.03 0 0 1 .02-.02H12l.01.01c.06.1.14.15.2.25.05.06.03.09 0 .15 0 .02-.02.02-.03 0l-.12-.12c-.01-.02-.02-.01-.02 0ZM12.44 10c.02 0 .02-.01.02-.03v-.02l-.02-.01-.14.01c-.04 0-.05-.01-.03-.04l.05-.09a.11.11 0 0 1 .08-.05l.25-.06a.03.03 0 0 1 .03.01l.01.02v.02l-.14.32c0 .02-.02.03-.03.04a.09.09 0 0 1-.04.01l-.27.02c-.04 0-.05 0-.04-.04l.02-.04a.1.1 0 0 1 .09-.06l.16-.01ZM11.76 10.16c0 .06.07.16.1.2.02.04.03.07 0 .1l-.04.08c-.02.03-.04.03-.06 0l-.15-.31a.04.04 0 0 1 0-.04l.18-.3h.03c.06.1.1.19.2.27v.03c0 .05-.02.1-.07.16a.04.04 0 0 1-.02.01h-.02l-.12-.2c-.01-.03-.02-.03-.03 0ZM12.21 10.41h-.16a.04.04 0 0 1-.03-.01.04.04 0 0 1-.01-.03c.02-.09.06-.13.14-.14a11.97 11.97 0 0 0 .3-.04c.03.01.03.04 0 .08a9.71 9.71 0 0 1-.2.3l-.04.02-.3-.02c-.03 0-.04-.01-.03-.04l.03-.06a.04.04 0 0 1 .04-.02h.26l.01-.02v-.02ZM11.5 10.56v.05l.07.11c.02.03.02.06 0 .08l-.07.07c-.03.03-.05.02-.06-.02l-.07-.21a.2.2 0 0 1 .03-.19l.12-.14c.04-.06.08-.06.1.01.03.12.07.2.1.25.03.03.02.07-.01.1l-.02.02c-.03.03-.06.03-.07-.02a.29.29 0 0 0-.1-.12.02.02 0 0 0-.02 0ZM11.9 10.83v-.03c0-.02 0-.02-.02-.02l-.14-.01c-.03 0-.04-.02-.02-.04l.06-.07a.1.1 0 0 1 .08-.04l.29.02a.04.04 0 0 1 .03.01v.04a.86.86 0 0 1-.08.1c-.1.1-.11.2-.31.19-.11 0-.19-.02-.24-.04-.03 0-.03-.02-.01-.04l.1-.08a.07.07 0 0 1 .07-.02l.18.03Z" fill="#EEB16E"/><path d="M9.8 11.18c-.2.05-.38.1-.56.17l-.16.01a.77.77 0 0 1-.17.02l-.03.01-.03.02a.02.02 0 0 0 0 .02 1.57 1.57 0 0 1 .6.2l.02-.03c-.07-.04-.18-.07-.2-.15a.1.1 0 0 1 .01-.06.1.1 0 0 1 .04-.04.6.6 0 0 1 .46-.06c.25.1.48.22.68.38.03.03.03.04 0 .04-.3.04-.6 0-.92-.07h-.03c-.18.15-.41.16-.63.16-.15 0-.46-.02-.55-.14a.06.06 0 0 1 .02-.1l.58-.28.03-.03c.03-.1.07-.13.16-.22a.32.32 0 0 1 .1-.07c.33-.12.63-.15.95 0 .04.02.08.03.1.07a.02.02 0 0 1 0 .02h-.02c-.15.03-.3.07-.46.13Z" fill="#FFF908"/><path d="M7.45 12.2a.52.52 0 0 1-.19.06.7.7 0 0 0-.2.02c-.03 0-.03 0-.01.01l.23.04a1 1 0 0 0 .12.02c.13.07.22.13.27.18.17.15.32.32.47.51.02.03.01.04-.02.04-.32 0-.61-.08-.86-.27-.16-.12-.28-.23-.28-.44h-.01v-.01l-.43.06h-.06l.01-.04.13-.06.35-.04v-.01l-.05-.09h-.01c-.11 0-.21.05-.3.12-.1.03-.2.09-.28.1a.51.51 0 0 1-.21-.01c-.05-.1-.05-.17-.01-.22a1.84 1.84 0 0 1 .87-.65.04.04 0 0 1 .03.01v.02c.04.22-.05.35-.15.53a.01.01 0 0 0 0 .01v.01h.04c.02 0 .03 0 .04-.03.06-.22.12-.28.32-.37.18-.09.4-.16.63-.15.01 0 .02 0 .03.02.01.02 0 .04-.01.05a.01.01 0 0 0 0 .02c.05 0 .07 0 .1-.03L8 11.58l-.05-.06c-.03-.26.32-.4.5-.48a1.13 1.13 0 0 1 .65-.07.02.02 0 0 1 .01.02l-.14.14c-.06.07-.16.13-.23.2a.37.37 0 0 1-.1.07c-.18.08-.3.15-.34.18a.4.4 0 0 1-.18.08c-.03 0-.1.03-.2.08a.29.29 0 0 0-.12.1c-.07.11-.13.2-.19.26a.45.45 0 0 1-.16.1ZM9.81 11.27a.1.1 0 0 1-.05-.02v-.03a.1.1 0 0 1 .05-.01l.17-.01c.01 0 .02 0 .03-.02.3-.24.87.18 1.1.39l.07.1c0 .01 0 .02-.02.02l-.84-.19a.6.6 0 0 1-.27-.15.24.24 0 0 0-.11-.06.61.61 0 0 0-.13-.02Z" fill="#FFF908"/><path d="M8.27 12.22a.98.98 0 0 1-.53.02h-.02v.02l.01.02.42.07a2.24 2.24 0 0 1 .74.69h-.02c-.18.03-.35.01-.54-.06l-.28-.13-.28-.27a.28.28 0 0 1-.09-.23l-.01-.02H7.4l-.05-.01a.03.03 0 0 1 0-.02v-.02l.12-.05.18-.02c.02 0 .02 0 .02-.02a.24.24 0 0 1-.01-.09l.01-.03c.2-.28.6-.34.9-.28l.22.05c.05.01.06.03.01.06-.17.1-.3.25-.53.32Z" fill="#FFF908"/><path d="m9.05 12.36-.4-.03-.02.01v.01c.18.05.35.06.52.04l.35.06c.03 0 .04-.01.02-.04l-.02-.04v-.03a.31.31 0 0 1 .13-.16c.31-.17.86-.27 1.18-.12a.02.02 0 0 1 0 .02v.02l-.38.23a4.2 4.2 0 0 1-.34.13c-.03.02-.08 0-.12.03a.05.05 0 0 1-.03.01l-.34-.01v.01l-.01.01c-.15.03-.31 0-.46-.03v.02c.27.08.4.3.54.55a.01.01 0 0 1 0 .02h-.01c-.16-.01-.3-.04-.44-.07-.09-.03-.19-.08-.28-.1-.16-.07-.47-.26-.34-.48a.02.02 0 0 0 0-.02.02.02 0 0 0-.02-.01l-.4-.06-.04-.02v-.02a.33.33 0 0 1 .13-.05l.29.06a.01.01 0 0 0 .01 0 .02.02 0 0 0 0-.02c-.03-.09 0-.17.07-.23a.72.72 0 0 1 .26-.13 1.59 1.59 0 0 1 .95.07.03.03 0 0 1 0 .03l-.01.01c-.16.1-.31.18-.47.24-.1.05-.21.07-.32.09Z" fill="#FFF908"/><path d="M10.85 12.53c-.1-.01-.23 0-.32-.02-.01 0-.02 0-.03-.02-.1-.12.1-.25.2-.29a1.74 1.74 0 0 1 1.11-.03v.05c-.2.14-.43.22-.68.27-.1.01-.18.05-.28.04Z" fill="#FFF908"/><path d="m7.45 12.2.02.03-.11.05a.02.02 0 0 0-.02.02.02.02 0 0 0 0 .02c.02.01.04.02.06.01v.02a1 1 0 0 1-.13-.02l-.22-.04c-.02 0-.02-.01 0-.01a.7.7 0 0 1 .21-.02c.03 0 .1-.01.19-.06ZM8.27 12.22v.02a.33.33 0 0 0-.13.05c-.02 0-.02.01 0 .02l.04.02-.03.02-.42-.07-.01-.02v-.01c0-.01 0-.02.01-.01.19.04.37.03.54-.02ZM6.6 12.3l.02.02-.13.06c-.01.01-.02.02-.01.03 0 .02.03.02.06.01v.05H6.3c-.06 0-.1.01-.12.05v.1l-.02.1-.06-.07a.03.03 0 0 0-.03-.01c-.3.08-.57.21-.78.4a.1.1 0 0 1-.1.02l-.12-.03c-.03 0-.04-.03-.02-.06a1.75 1.75 0 0 1 .86-.5.6.6 0 0 0 .22-.08c.06.02.13.02.2 0 .1 0 .19-.06.29-.09Z" fill="#EEB16E"/><path d="m11.09 12.6-.1-.01a.03.03 0 0 1-.01-.02v-.02a.13.13 0 0 1 .13-.02h.03c.38-.14.78-.15 1.2-.02.11.03.27.1.33.2.01.02 0 .03-.01.03a6.47 6.47 0 0 0-.98.12c-.2 0-.5.02-.56-.24l-.03-.02ZM6.54 12.47c.1.01.21.04.31.08s.18.1.26.18c.1.1.21.23.31.38v.02a.86.86 0 0 1-.2.01c-.32-.02-.62-.1-.9-.26a.62.62 0 0 1-.17-.16.22.22 0 0 0 .01-.1l.01-.1c.02-.04.06-.06.12-.06h.25ZM10.35 12.6v-.01h-.01c-.11 0-.22 0-.33-.03-.06 0-.06-.03-.01-.06h.04c.18-.01.32 0 .44.02l.26.04c.06 0 .13.02.19.04s.11.05.16.1a22.38 22.38 0 0 1 .37.4h-.01l-.02.01c-.31.05-.9-.03-1.08-.35-.03-.06-.02-.1 0-.16Z" fill="#FFF908"/><path d="m9.97 12.58.08.03c.07.02.14.09.19.12a1.83 1.83 0 0 1 .35.39h-.01c-.25.02-.5 0-.73-.1-.19-.05-.46-.28-.28-.49l.04-.01c.1-.01.22 0 .36.06Z" fill="#FFF908"/><path fill="#D9D9D9" fill-opacity=".6" d="M6 8h6v1H6z"/></svg>