<!-- by TradingView --><svg width="18" height="18" viewBox="0 0 18 18" xmlns="http://www.w3.org/2000/svg"><path fill="#F0F3FA" d="M0 0h18v18H0z"/><path d="M9.1 8.7a2.34 2.34 0 0 1-.03-.3 123.58 123.58 0 0 0-.02-2.2l-.03-.01h-.05c-.02 0-.03 0-.05.02a59.04 59.04 0 0 0-.02 2.67.35.35 0 0 0 0 .17v.04c-.01.02-.02.03-.04.03l-.49.02-2.12-.02a.1.1 0 0 1-.1-.08c0-.07.02-.1.1-.1a269 269 0 0 1 2.6-.03c.03-.2 0-.4-.08-.57a4.04 4.04 0 0 0-.57-.92c-.54-.66-1.28-1.48-1.35-2.36a1.88 1.88 0 0 1 1.72-2.04c.24-.03.5-.03.78 0 .3.02.55.09.74.2.58.3.91.77 1.01 1.4a2.16 2.16 0 0 1-.21 1.23c-.12.24-.29.5-.5.77l-.8 1.05c-.27.36-.45.64-.43 1.03a.03.03 0 0 1-.01.03c-.03.02-.05.01-.05-.03Z" fill="#E6E6C9"/><path d="M9.1 8.7c.02.08.02.16 0 .23-.05.1-.04.16.02.2 0 .06 0 .1.03.14a.48.48 0 0 0-.08.26v2.24c0 .04-.01.06-.05.06h-.06c-.04 0-.07-.03-.07-.07 0-.84 0-1.7.03-2.56 0-.02-.02-.03-.04-.03a.16.16 0 0 1-.02-.05c.02 0 .03 0 .04-.03v-.04a.35.35 0 0 1 0-.17l.02-.18a59.04 59.04 0 0 1 0-2.5.07.07 0 0 1 .05-.01h.05c.01 0 .02 0 .03.02l.02.03A2.35 2.35 0 0 0 9.1 8.7Z" fill="#C4B06B"/><path d="M8.86 8.91c-.9 0-1.77.02-2.62.03-.07 0-.1.03-.08.1a.1.1 0 0 0 .1.08l2.11.02-.5.33c-.23.14-.4.25-.5.34l-.92.72c-.33.25-.69.43-1.07.54-.13.04-.26.06-.39.05-.17 0-.35.02-.53-.03a1.77 1.77 0 0 1-1.4-1.33A1.19 1.19 0 0 1 3 9.4C3 8.3 3.1 7.1 4.58 6.9a2.98 2.98 0 0 1 .88.05c.74.25 1.27.73 1.94 1.27a3.65 3.65 0 0 0 .94.57l.25.05a.2.2 0 0 1 .07.02c.05.03.12.05.2.05ZM9.55 9.14l2.18-.02c.03 0 .05 0 .05-.03a.2.2 0 0 0 0-.14.05.05 0 0 0-.05-.04H9.12l.54-.14c.18-.05.4-.18.69-.4l1.03-.8c.17-.13.39-.27.66-.42.4-.22.83-.3 1.3-.26.4.04.75.2 1.04.46.36.33.56.77.6 1.32.03.35.02.65-.03.9a1.81 1.81 0 0 1-1.78 1.55c-.22 0-.38.01-.56-.04a3.67 3.67 0 0 1-1.24-.65l-.68-.54a5.84 5.84 0 0 0-.56-.4l-.58-.35Z" fill="#C8AF60"/><path d="M9.15 9.27c0 .25.05.46.16.64.17.3.38.6.62.88.18.21.4.5.65.85.23.32.38.64.47.96.1.34.1.69 0 1.03a1.82 1.82 0 0 1-1.7 1.36c-.29.02-.55.01-.79 0a1.85 1.85 0 0 1-1.69-1.54c-.1-.6.11-1.21.46-1.73.23-.34.5-.7.84-1.08l.35-.5c.2-.3.31-.62.36-.97.02 0 .04.01.04.03l-.03 2.56c0 .04.02.06.07.07h.06c.04 0 .06-.02.06-.06V9.53c0-.1.02-.19.07-.26Z" fill="#E6E6C9"/></svg>