<!-- by TradingView --><svg width="18" height="18" viewBox="0 0 18 18" xmlns="http://www.w3.org/2000/svg"><path fill="#F0F3FA" d="M0 0h18v18H0z"/><path d="M7.93 7.97h.01a197.94 197.94 0 0 1-.14 2.3c0 .08 0 .17-.02.25l-.01.18-.02.22v.14l-.03.22a5.6 5.6 0 0 0-.03.35l-.02.2v.09a2.73 2.73 0 0 0-.01.08l.33-.03a3.14 3.14 0 0 1 .84.03v-.75a150.07 150.07 0 0 1 .2-4.62l.02-.33.02-.3h-.01c-.2.06-.4.06-.6 0a130.06 130.06 0 0 1-2.25 4.14l-.18-.66A115.72 115.72 0 0 1 5.16 6l-.1.02A.98.98 0 0 1 4.6 6 134.84 134.84 0 0 1 3 12l.22-.04a1.28 1.28 0 0 1 .45.04l.05-.25a102.1 102.1 0 0 1 .79-3.68c0-.02.01-.02.02 0l.01.05c.26 1 .49 1.88.67 2.63l.3 1.24h.01a.63.63 0 0 1 .26 0h.01a222.3 222.3 0 0 1 2.14-4.02Zm3.03-.19.35.56A75.05 75.05 0 0 1 13.47 12l.18-.04.27.01a5.09 5.09 0 0 1 .11.02 227.34 227.34 0 0 1 .78-4.96A141.76 141.76 0 0 1 15 6c-.22.06-.43.06-.64 0v.07a6.7 6.7 0 0 1-.09.76 155.06 155.06 0 0 1-.45 3.3 311.13 311.13 0 0 1-2.42-4l-.08-.12s0-.01 0 0a1.22 1.22 0 0 1-.64 0A53.97 53.97 0 0 1 9.73 12l.14-.03a1.26 1.26 0 0 1 .51.03 11.8 11.8 0 0 1 .09-.84 83.22 83.22 0 0 1 .49-3.38Z" fill="#2C5535"/></svg>