<!-- by TradingView --><svg xmlns="http://www.w3.org/2000/svg" width="18" height="18" viewBox="0 0 18 18"><path fill="#F0F3FA" d="M0 0h18v18H0z"/><path fill-rule="evenodd" d="M15 8.97a6 6 0 1 1-12 0 6 6 0 0 1 12 0zm-1.67 0a4.33 4.33 0 1 1-8.66 0 4.33 4.33 0 0 1 8.66 0zM9.9 9.9l-.06.5-.46-.2a10.8 10.8 0 0 0 .52-.3zM9 12.7c.46 0 .87-.75 1.09-1.86 1.07.37 1.92.39 2.15-.01.23-.4-.21-1.13-1.07-1.87.86-.74 1.3-1.47 1.07-1.87-.23-.4-1.08-.38-2.15-.01C9.88 5.98 9.47 5.23 9 5.23c-.46 0-.87.75-1.09 1.86-1.07-.37-1.91-.4-2.14.01-.24.4.2 1.13 1.06 1.87-.85.74-1.3 1.47-1.06 1.87.23.4 1.07.38 2.14.01.22 1.11.63 1.86 1.1 1.86zm0-2.32c.26.13.52.25.77.35-.05.28-.12.54-.2.77-.1.31-.22.55-.34.7-.12.15-.2.16-.23.16s-.11-.01-.23-.16a2.37 2.37 0 0 1-.35-.7 5.83 5.83 0 0 1-.2-.77c.26-.1.52-.21.78-.35zm-.83.01l.46-.2a10.82 10.82 0 0 1-.52-.3l.06.5zm-.31.12a9.64 9.64 0 0 1-.1-.84 9.65 9.65 0 0 1-.68-.5c-.22.2-.4.38-.56.56-.23.25-.37.47-.44.65-.07.18-.04.26-.03.28.02.03.07.09.26.12s.45.01.78-.05c.24-.05.5-.12.77-.22zm.68-.75L8.1 9.5a10.77 10.77 0 0 1 0-1.06A10.76 10.76 0 0 1 9 7.91a10.76 10.76 0 0 1 .92.53 10.78 10.78 0 0 1 0 1.06 10.76 10.76 0 0 1-.92.52c-.15-.07-.3-.16-.46-.25zm1.09-1.89l-.26-.15.46-.2.06.5-.26-.15zm.63 1.09v-.3l.4.3-.4.3v-.3zm-.02-.71c.24.16.47.33.68.5.22-.2.4-.38.57-.56.22-.25.36-.47.43-.65.07-.18.05-.26.03-.28-.01-.03-.07-.1-.26-.12a2.36 2.36 0 0 0-.78.05c-.23.05-.5.12-.76.22.04.26.07.54.09.84zm0 1.42c.24-.16.47-.33.68-.5.22.2.4.38.57.56.22.25.36.47.43.65.07.18.05.26.03.28-.01.03-.07.09-.26.12s-.45.01-.78-.05c-.23-.05-.5-.12-.76-.22.04-.26.07-.54.09-.84zM8.24 7.2l.77.34c.26-.13.52-.24.77-.34a5.83 5.83 0 0 0-.2-.77c-.1-.32-.22-.55-.34-.7-.12-.15-.2-.17-.23-.17s-.11.02-.23.17c-.12.15-.24.38-.35.7-.07.23-.14.49-.2.77zm.4.53a9.13 9.13 0 0 0-.46-.2l-.06.5a11.17 11.17 0 0 1 .52-.3zM7.1 7.2c.24.05.5.12.77.22-.04.26-.08.54-.1.84-.24.16-.47.33-.68.5a5.83 5.83 0 0 1-.56-.56 2.36 2.36 0 0 1-.44-.65c-.07-.18-.04-.26-.03-.28.02-.03.07-.1.26-.12.19-.03.45-.01.78.05zm.66 1.47l-.4.3.4.3a11.24 11.24 0 0 1 0-.6z" fill="#9CA661"/></svg>