<!-- by TradingView --><svg width="18" height="18" viewBox="0 0 18 18" xmlns="http://www.w3.org/2000/svg"><path fill="#F0F3FA" d="M0 0h18v18H0z"/><path d="m9 15 6-10H3l6 10Z" fill="#005838"/><path fill-rule="evenodd" d="M10.5 5a.35.35 0 1 0 0 .7.35.35 0 0 0 0-.7Zm-.34 8.07-.27.45a.99.99 0 0 1-.43-.73c0-.3.18-.55.43-.67a.8.8 0 0 1-.38-1.48.78.78 0 0 1-.26-1.5h-.07a.75.75 0 0 1-.39-1.4c-.33-.04-.8-.1-.98-.15-.28.06-.35.03-.52-.02a4.47 4.47 0 0 0-.11-.04A2.6 2.6 0 0 1 6 7.38c.6-.2 1.19-.6 1.72-.97.57-.38 1.06-.72 1.42-.72.44 0 .9.54 1.19.98v-.63h.35v.62c.28-.44.74-.97 1.18-.97.36 0 .85.34 1.42.72l.62.42-.48.8c-.06 0-.13-.02-.23-.04-.18.05-.65.11-.98.15a.75.75 0 0 1-.39 1.4h-.07c.22.1.4.29.45.52l-.57.96a.78.78 0 0 1-.14.02l.1.06-.4.65c-.02-.22-.23-.4-.5-.46v1a.8.8 0 0 0 .23-.1l-.6 1v-.36c-.2.05-.35.2-.35.36 0 .11.07.22.19.28Zm.17-2.19c-.3.06-.52.27-.52.5 0 .25.22.45.52.5v-1Zm-.87-1.22c0-.26.38-.47.87-.51v1.02c-.5-.04-.87-.25-.87-.51Zm2.08 0c0-.25-.37-.47-.86-.5v1.01c.49-.04.86-.25.86-.51Zm-1.21-1.73c-.09.18-.33.2-.46.2-.51 0-.75.16-.75.29 0 .27.7.36 1.2.38v-.87Zm.35.86c.5-.01 1.2-.1 1.2-.37 0-.13-.25-.3-.76-.3-.13 0-.34 0-.44-.14v.81Z" fill="#8BADA2"/><path d="M6 6h1.1l.6 2.04L8.28 6H9v3h-.64V6.37L7.58 9H7.41l-.8-2.6v2.47h.36V9H6v-.13h.43V6.13H6V6Z" fill="#F0F3FA"/><path d="M10.37 6h.14c.36 0 .66.31.66.7v.27c0 .38-.3.7-.66.7h-.48v1.2h.34V9H8v-.13h1.47V6.13h-.93V6H10.37Zm-.34 1.53c.32 0 .57-.25.57-.56V6.7a.57.57 0 0 0-.57-.57v1.4Z" fill="#F0F3FA"/><path fill-rule="evenodd" d="M12.27 6H13v1h-.73v1.87h.29V9h-1.2v-.13h.37V7H11V6h1.27Zm-.54.17h-.06c-.27 0-.49.25-.49.55V7h.55v-.83Zm.54.83v-.83h.06c.27 0 .49.25.49.55V7h-.55Z" fill="#F0F3FA"/></svg>