<!-- by TradingView --><svg width="18" height="18" viewBox="0 0 18 18" xmlns="http://www.w3.org/2000/svg"><path fill="#F0F3FA" d="M0 0h18v18H0z"/><path d="M6.56 6.64c-.1-.45-.45-.56-.87-.64h-.37c-.35.05-.6.2-.76.46a.39.39 0 0 0-.05.16L4 11.87V12h1.31l.02-.01v-.02l.34-3.83c0-.09.02-.09.04 0l.73 3.27c.04.18.13.33.27.44.3.23.77.17.99-.14.06-.1.12-.27.18-.53l.66-3.05c.02-.09.03-.09.04 0l.36 3.82v.02l.01.01.02.02h1.28c.03 0 .04-.03.04-.05-.1-.92-.3-2.72-.57-5.4-.01-.1-.08-.2-.2-.3-.18-.15-.4-.24-.64-.25h-.39c-.27.04-.56.14-.71.37-.05.08-.09.2-.13.4a419.52 419.52 0 0 1-.53 2.48c-.2-.86-.38-1.73-.56-2.6Zm5.94 3V6H11v4.17c0 .44.1.8.29 1.09.33.5.89.71 1.47.74h1.2c.03 0 .04-.02.04-.04V10.5h-1c-.26-.01-.42-.1-.48-.33a3.63 3.63 0 0 1-.02-.54Z" fill="#8AC43E"/></svg>