<!-- by TradingView --><svg width="18" height="18" viewBox="0 0 18 18" xmlns="http://www.w3.org/2000/svg"><path fill="#F0F3FA" d="M0 0h18v18H0z"/><path d="M6.73 8h3.26c.32 0 .67 0 .97.13.37.17.54.59.54.99 0 1.05-.83 1.88-1.86 1.88H8.5s.35-1.74.45-2.61L9 8.02c-.01.06-.05.26-.1.37-.55-.04-1.32-.06-1.32-.06l-.24 1.03 1.35-.03a.66.66 0 0 0-.09.35c-.44-.03-.9-.04-1.34-.04l-.16.66-.1.38c.36 0 .83-.02 1.38-.06-.06.12-.09.38-.09.38H6l.73-3Zm2.77 2.73c.86 0 1.33-.77 1.33-1.59 0-.33-.11-.7-.45-.8a1.39 1.39 0 0 0-.44-.07H9.64c-.15.7-.27 1.4-.38 2.11l-.06.35h.3ZM3.43 8h-.39l-.18.55-.66 1.95-.09.2L2 11h.44l.12-.47.04-.14.16-.58A7.04 7.04 0 0 0 3 9.09l.2.6.22.6.23.71h.18l.71-1c.21-.28.45-.6.7-.96 0 .15-.02.27-.03.4a30.56 30.56 0 0 0-.08.99l-.07.57h.76l.01-.18a26.2 26.2 0 0 1 .1-2.08L6 8h-.4l-1.48 2.08c-.3-.84-.7-2.08-.7-2.08Z" fill="url(#a)"/><path d="M16 9.5c0 1.38-1.16 2.5-2.6 2.5a2.6 2.6 0 0 1-2.32-1.4c.46-.29.78-.72.89-1.18.02-.09.03-.19.03-.3a1.02 1.02 0 0 0-.76-1A2.62 2.62 0 0 1 13.41 7C14.84 7 16 8.12 16 9.5ZM13.93 8H12.5l-.5 2.54h.7l.25-1.25.65.85-1 .86h.45l.67-.68.4.45h.86c-.3-.3-.57-.58-.79-.86l.81-.75h-.32l-.62.59a8.2 8.2 0 0 1-.34-.48c.34-.09.82-.35.82-.8 0-.37-.4-.47-.61-.47Zm-.77.23-.19.92h.28c.2-.04.55-.23.55-.64 0-.26-.23-.28-.37-.28h-.27Z" fill="#015186"/><defs><linearGradient id="a" x1="6.5" y1="7.97" x2="6.5" y2="10.9" gradientUnits="userSpaceOnUse"><stop stop-color="#008DCD"/><stop offset=".49" stop-color="#005085"/><stop offset="1" stop-color="#008ECF"/></linearGradient></defs></svg>