<!-- by TradingView --><svg width="18" height="18" viewBox="0 0 18 18" xmlns="http://www.w3.org/2000/svg"><path fill="#F0F3FA" d="M0 0h18v18H0z"/><path d="M9.1 6.62c.1-.24.17-.45.18-.69.05-.73-.45-1.2-1.06-1.41a2.25 2.25 0 0 0-1.71.12 3.7 3.7 0 0 0-2.16 2.72c-.06.26-.08.5-.03.73.04.23.15.43.31.6l.12.1c.02.03.02.06 0 .1-.06.1-.14.07-.22.01a1.18 1.18 0 0 1-.42-.75 2.8 2.8 0 0 1 .2-1.53c.24-.6.6-1.18 1.08-1.6a3.9 3.9 0 0 1 2.87-1c.87.06 1.61.51 2.15 1.23.33.44.49.97.42 1.54-.03.24-.1.48-.2.72l-.14.32A202.64 202.64 0 0 0 9.1 10.9c-.08.19-.13.38-.16.59-.08.55.1 1.08.47 1.47.27.29.62.44 1 .5a2.9 2.9 0 0 0 2.9-1.4c.27-.44.43-.93.47-1.45.04-.4-.03-.8-.24-1.13l-.09-.14c-.03-.05-.03-.1 0-.14.07-.06.13-.05.18.03.28.43.4.93.35 1.46a3.45 3.45 0 0 1-1.73 2.8 3.71 3.71 0 0 1-2.65.42 3.22 3.22 0 0 1-1.88-1.2 2.48 2.48 0 0 1-.16-2.6L9.1 6.62Zm.79 5.24 1.09-2.46.98-2.22.01-.03c.05-.1.1-.2.1-.3a.24.24 0 0 0-.06-.18c-.11-.14-.28-.13-.42-.07a.88.88 0 0 0-.38.36c-.03.04-.06.05-.1.03-.12-.08-.09-.14-.02-.24.15-.23.33-.4.54-.52.28-.16.6-.23.93-.23.3 0 .62.12.84.34.29.3.34.73.22 1.13l-.12.34-.35.88-.21.5-.3.7-.84 2c-.03.07-.09.11-.17.11H9.91c-.02 0-.04 0-.05-.03v-.01c0-.03.01-.07.03-.1ZM5.44 8.59A7580.21 7580.21 0 0 1 4 11.95v.02l.02.02h.05l1.66.01c.08 0 .14-.04.17-.12l1.08-2.47a7565.54 7565.54 0 0 1 1.44-3.36v-.02L8.4 6A80.07 80.07 0 0 1 6.7 6c-.1 0-.15.04-.18.12L5.44 8.59Z" fill="#0082FE"/></svg>