<!-- by TradingView --><svg width="18" height="18" viewBox="0 0 18 18" xmlns="http://www.w3.org/2000/svg"><path fill="#F0F3FA" d="M0 0h18v18H0z"/><path d="M4.93 4.77c-.33.24-.42.67-.42.86.23-.16.76-.55 1.01-.82.25-.28.37-.65.4-.81-.2.16-.66.53-1 .77ZM3.84 6.5v.59c.19-.28.62-.65.95-.93l.33-.28a.94.94 0 0 0 .27-.65c-.16.29-.78.7-1.07.87a3.83 3.83 0 0 1 0-1.02 2.11 2.11 0 0 0-.48 1.42Zm-.16-.68c-.15.29-.43 1-.32 1.57.11.56.3 1.07.38 1.26.04-.2.2-.68.46-.94.31-.32.48-.84.48-1.14-.02 0-.06.06-.12.14-.08.12-.2.28-.32.36-.19.13-.42.56-.43.64a3.5 3.5 0 0 1-.18-.96l.05-.93ZM3.2 9.1C2.91 8.58 3 7.74 3.1 7.4l.2.97c.05.25.34.72.48.92-.02-.08.1-.61.28-.81.1-.12.18-.33.24-.49.03-.1.06-.18.08-.18.09.3.06.9-.19 1.34-.2.35-.22.9-.21 1.13-.14-.16-.5-.63-.78-1.16Zm-.15.07c.02.36.17 1.19.59 1.6.42.41.87.74 1.05.85a2.57 2.57 0 0 1-.1-1.15c.1-.51-.03-1.08-.2-1.34l-.03.2c0 .17-.02.4-.09.54-.1.25-.07.8-.04.87-.19-.15-.6-.5-.7-.72l-.48-.85Zm1.33 3.23c-.53-.27-.85-1.03-.95-1.38l.67.68c.17.18.67.38.9.46-.05-.06-.2-.58-.14-.86.04-.17.01-.4-.01-.57l-.01-.2c.23.19.5.7.48 1.24 0 .43.23.92.35 1.1-.21-.04-.76-.2-1.3-.47Zm-.42 0c.15.39.65 1.16 1.47 1.17a4 4 0 0 1 1.18.11 2.28 2.28 0 0 0-1.18-2.06c.09.15.27.52.32.84.05.31.31.74.43.9-.3-.1-1-.34-1.28-.4-.29-.07-.75-.4-.94-.55Zm2.28 1.96a1.9 1.9 0 0 1-1.24-.55c1.02.26 1.44.11 1.89-.04.29-.1.6-.21 1.08-.21.36 0 .72.11 1.04.28a2.3 2.3 0 0 1 1.04-.28c.49 0 .8.1 1.08.2.45.16.87.31 1.89.05a1.9 1.9 0 0 1-1.24.55c-.35 0-.64-.09-.93-.18-.3-.1-.6-.2-.95-.2-.2 0-.38.03-.55.07.36.23.66.52.85.73.04.04.04.12 0 .17a.11.11 0 0 1-.18 0 4.8 4.8 0 0 0-.46-.48 1.9 1.9 0 0 0-.55-.32c-.25.1-.43.21-.55.32a4.8 4.8 0 0 0-.46.48.11.11 0 0 1-.18 0 .13.13 0 0 1 0-.17c.2-.21.49-.5.85-.73A2.59 2.59 0 0 0 8.1 14c-.36 0-.65.1-.95.19-.3.1-.58.18-.93.18Zm6.84-9.6c.33.24.42.67.42.86a7.44 7.44 0 0 1-1.01-.82 1.81 1.81 0 0 1-.4-.81c.2.16.66.53 1 .77Zm1.09 1.74v.59c-.19-.28-.62-.65-.95-.93l-.33-.28a.94.94 0 0 1-.27-.65c.16.29.78.7 1.07.87.07-.18.03-.75 0-1.02.47.63.48 1.06.48 1.42Zm.16-.68c.15.29.43 1 .32 1.57-.12.56-.3 1.07-.38 1.26-.04-.2-.2-.68-.46-.94a1.87 1.87 0 0 1-.48-1.14c.02 0 .06.06.12.14.08.12.2.28.32.36.19.13.42.56.43.64.07-.22.2-.73.18-.96l-.05-.93Zm.49 3.28c.28-.53.19-1.37.1-1.72l-.2.97c-.05.25-.34.72-.48.92.02-.08-.1-.61-.28-.81-.1-.12-.18-.33-.24-.49-.03-.1-.06-.18-.08-.18-.09.3-.06.9.19 1.34.2.35.22.9.21 1.13.14-.16.5-.63.78-1.16Zm.15.07c-.02.36-.17 1.19-.59 1.6-.42.41-.87.74-1.05.85.07-.22.19-.75.1-1.15-.1-.51.03-1.08.2-1.34l.03.2c0 .17.02.4.09.54.1.25.07.8.04.87.19-.15.6-.5.7-.72l.48-.85Zm-1.33 3.23c.53-.27.85-1.03.95-1.38l-.67.68c-.17.18-.67.38-.9.46.05-.06.2-.58.14-.86-.04-.17-.01-.4.01-.57l.01-.2c-.23.19-.5.7-.48 1.24 0 .43-.23.92-.35 1.1.21-.04.76-.2 1.3-.47Zm.42 0c-.15.39-.65 1.16-1.47 1.17a4 4 0 0 0-1.18.11 2.28 2.28 0 0 1 1.18-2.06c-.09.15-.27.52-.32.84-.05.31-.31.74-.43.9.3-.1 1-.34 1.28-.4.29-.07.75-.4.94-.55Z" fill="#00A651"/><path fill-rule="evenodd" d="M6.24 6.19 6 11h1.3l-.14-2.92 1.33-3.42.1-.16V5c0 .04 0 .08.02.12l.07.39a.25.25 0 0 0-.06.17v.23c0 .06.02.12.06.16a.24.24 0 0 0-.1.2v.23c0 .13.09.23.2.23.1 0 .18-.1.18-.23v-.23a.25.25 0 0 0-.06-.16c.06-.04.1-.12.1-.2v-.23c0-.1-.05-.18-.11-.21l.01-.3c.04-.05.06-.1.06-.17v-.53c0-.12-.08-.23-.19-.23h-.02l.06-.1L8.77 4 6.4 6.19h-.16Zm.8.06.05 1.6 1.27-3.18-1.33 1.58Zm-.05-.1h-.4L7.97 4.9l-.97 1.26Zm-.52.54.18.42.22-.75h-.35l-.05.33ZM6.3 8.05l.07-1.34.25.61-.32.73Zm.33-.45-.34 1.03h.7L6.62 7.6Zm-.4 1.18.36.85.45-.85h-.8Zm.78.36v.47h-.25L7 9.14Zm-.77 0v.47h.25l-.25-.47Zm.7-2.43L7 8.05l-.32-.73.24-.61ZM8.85 5v-.54c0-.06-.04-.11-.09-.11-.05 0-.1.05-.1.11V5c0 .06.05.11.1.11s.1-.05.1-.1Zm.04.9v-.23c0-.07-.04-.12-.09-.12-.05 0-.1.05-.1.12v.23c0 .06.05.11.1.11s.1-.05.1-.11Zm-.04.36v.23c0 .07-.04.12-.09.12-.05 0-.1-.05-.1-.12v-.23c0-.06.05-.11.1-.11s.1.05.1.11Z" fill="#2E3192"/><ellipse cx="9" cy="7.93" rx="1.41" ry="1.43" fill="#AAA"/><path fill-rule="evenodd" d="M7.9 7.08c.08.02.15.04.2-.01l.06-.08c.08-.1.18-.23.27-.2.1.03.17.05.27 0 .1-.06.1-.07.1-.1l.01-.03.01-.03c0-.04.02-.08.08-.13-.42.03-.8.25-1.03.57l.04.01Zm.02 1.77a1.43 1.43 0 0 1-.32-1.08c.03.05.07.11.1.2.06.12.13.2.17.24l.03.04-.01.14-.02.15c0 .04 0 .08.02.13l.03.18Zm2.42-1.35a.4.4 0 0 0-.12.3 3.03 3.03 0 0 0-.08-.1h.01a.32.32 0 0 1-.08-.14c-.01-.07-.37 0-.27.04.1.03.09.09.06.12l-.02.04c-.02.03-.03.08-.1.12-.07.04-.13-.04-.2-.13a1.86 1.86 0 0 0-.11-.12c-.01.03-.02.05 0 .08.03.07.09.18.22.24s.16.1.11.2a2.4 2.4 0 0 1-.12.19c-.06.1-.13.21-.14.25 0 .06-.16.3-.31.33-.11.02-.1 0-.1-.03v-.05a.77.77 0 0 0-.05-.1c-.04-.09-.11-.21-.11-.28 0-.07-.02-.15-.04-.2a.64.64 0 0 1-.03-.08c0-.04-.12-.04-.23-.04h-.12c-.1 0-.13-.08-.19-.2l-.02-.05c-.06-.11-.02-.16.02-.23a.43.43 0 0 0 .06-.1c.02-.07.09-.07.15-.08.04 0 .08 0 .11-.03h.03c-.06-.02-.1-.08-.11-.11 0-.04.04-.1.1-.16l.08-.11c.03-.05.04-.04.05-.02.02.03.04.07.1.06.08-.01.08-.03.06-.06l-.02-.1c0-.1.1-.11.2-.12h.02a.2.2 0 0 0 .07-.01c.02 0 .04-.03.06-.06l.01-.01c.07-.09.06-.15 0-.22.5.1.9.48 1.05.97Zm-1.43 0c-.05-.03-.13-.06-.2-.06l.03-.02.02-.02c.06-.08.12-.14.28-.06l.2.06c.07.02.11.03.13.07v.04l.02.07-.07-.01a1.38 1.38 0 0 1-.41-.08Z"/><path d="M8.82 11.25c.2 0 .36-.16.36-.36 0-.2-.16-.35-.36-.35-.2 0-.35.16-.35.35 0 .2.16.36.35.36Zm1.03 2.32h1.77v-.36h-.5v-1.79h-.35v.39c-.07-.13-.4-.39-.79-.39a.96.96 0 0 0-.63.25v-.24H8.34l-.5 1.35-.48-1.35H6.18v.36h.37v1.78h.81v-.36h-.48v-1.3s.5 1.1.71 1.66h.34l.57-1.55v1.2h-.36v.35H9.3v-.15c.11.08.3.15.55.15Zm-.14-.46v-1.22c0-.06.06-.1.14-.1.09 0 .2.04.2.1v.4h.71v.21h-.88v.22h.18v.39c0 .06-.12.1-.2.1-.09 0-.15-.04-.15-.1Z" fill="#ED1C24"/></svg>