<!-- by TradingView --><svg width="18" height="18" viewBox="0 0 18 18" xmlns="http://www.w3.org/2000/svg"><path fill="#F0F3FA" d="M0 0h18v18H0z"/><path d="M6.57 9C6.25 9 6 8.82 6 8.6V6.4c0-.22.25-.4.57-.4h1.82c.34 0 .61.2.61.43 0-.24.27-.43.6-.43h1.83c.32 0 .57.18.57.4v2.2c0 .22-.25.4-.57.4h-1.27c-.09 0-.16-.05-.16-.11v-.53c0-.06.07-.11.16-.11h.57c.15 0 .27-.09.27-.2v-1.1c0-.11-.12-.2-.27-.2h-.91c-.15 0-.27.09-.27.2v.81c0 .13-.16.24-.3.24H8.8c-.18 0-.34-.1-.34-.24v-.82c0-.1-.12-.19-.27-.19h-.91c-.15 0-.27.09-.27.2v1.1c0 .11.12.2.27.2h.57c.09 0 .16.05.16.11v.53c0 .06-.07.11-.16.11H6.57Z" fill="#FD0002"/><path fill-rule="evenodd" d="M5.36 4C4.61 4 4 4.61 4 5.36v7.28c0 .75.61 1.36 1.36 1.36h7.28c.75 0 1.36-.61 1.36-1.36V5.36C14 4.61 13.39 4 12.64 4H5.36Zm.75 1C5.5 5 5 5.41 5 5.92v3.16c0 .5.5.92 1.1.92h5.8c.6 0 1.1-.41 1.1-.92V5.92c0-.5-.5-.92-1.1-.92H6.1Z" fill="#10017D"/><path fill="#fff" fill-opacity=".7" d="M5 11h8v2H5z"/></svg>