<!-- by TradingView --><svg width="18" height="18" viewBox="0 0 18 18" xmlns="http://www.w3.org/2000/svg"><path fill="#F0F3FA" d="M0 0h18v18H0z"/><path d="M5 7.1V13h3v-2.66C8 8.55 6.66 7.1 5 7.1Z" fill="#0060A9"/><path d="M11 7.1V13H8v-2.85a2.96 2.96 0 0 1 3-3.05Z" fill="#2399AC"/><path d="M11 7.1V13h.36c1.46 0 2.64-1.36 2.64-2.94a2.89 2.89 0 0 0-3-2.96Z" fill="#5EC1A0"/><path d="M10 10.25c0-.14.13-.25.29-.25H14v.5h-3.71c-.16 0-.29-.11-.29-.25Z" fill="#F0F3FA"/><circle cx="9.5" cy="5.5" r="1.5" fill="#2399AC"/></svg>