<!-- by TradingView --><svg width="18" height="18" viewBox="0 0 18 18" xmlns="http://www.w3.org/2000/svg"><path fill="#F0F3FA" d="M0 0h18v18H0z"/><path d="M6.5 5.68 3 12.67l.25.12c1.17.54 2.53.01 3.12-1.23l1.18-2.48 1.03 1.94c.47.89 1.63.9 2.11.02.49-.89.95-1.75 1.12-2.1.36-.76.64-1.21 1.22-1.21.9 0 1.56 1.68 1.78 2.52l.19-.49-2.24-4.1a1.15 1.15 0 0 0-2.07.02l-.97 1.85a.11.11 0 0 1-.2 0L8.6 5.68a1.15 1.15 0 0 0-2.1 0Z" fill="url(#a)"/><defs><linearGradient id="a" x1="9" y1="5" x2="9" y2="13" gradientUnits="userSpaceOnUse"><stop stop-color="#4892E0"/><stop offset="1" stop-color="#3066D5"/></linearGradient></defs></svg>