<!-- by TradingView --><svg width="18" height="18" viewBox="0 0 18 18" xmlns="http://www.w3.org/2000/svg"><path fill="#F0F3FA" d="M0 0h18v18H0z"/><path fill-rule="evenodd" d="M8.04 7.15H8V4.29c0-.03-.01-.08-.03-.1A8.97 8.97 0 0 1 7.79 4c-.08 0-.17 0-.25.03a8.47 8.47 0 0 0-2.39 1.1l-.08.08-.07.08v3.22l-.01.03c-.52.72-.98 1.29-1.32 1.7l-.44.56a2.77 2.77 0 0 0-.2.33.34.34 0 0 0-.03.09h.01l1.95-1.07.04.01v2.47c.02.02.03.06.04.1 0 .04.03.07.06.1.55.58 1.35.82 2.1 1.05l.23.07.25.05.15-.03a.2.2 0 0 0 .08-.05l.07-.07.02-.04V10.83l.87-.73a.02.02 0 0 1 .02 0l2.76 3.31.02.02.22.02c.04 0 .08 0 .13-.03.7-.34 1.2-.83 1.73-1.36l.16-.16a.17.17 0 0 0 .05-.08 3.49 3.49 0 0 0 .03-.25L11.15 8.2v-.04a13946.57 13946.57 0 0 1 2.54-2.19 4.26 4.26 0 0 0 .02-.12l-.45-.51a3.47 3.47 0 0 0-1.94-1.03.03.03 0 0 0-.03 0L8.04 7.16Zm1.54.08-1.64.98h-.03l-1.64-.86a.36.36 0 0 0-.16-.04l-.02.01-2.7 3.48c-.02.02-.01.02 0 0l3.04-1.77h.02l1.44 1.03h.02l1.47-1.1a.01.01 0 0 1 .02 0l2.86 1.52h.08a.02.02 0 0 0 .01-.01.02.02 0 0 0 0-.02 17220.34 17220.34 0 0 1-2.65-3.2 5.53 5.53 0 0 1-.12-.02Z" fill="#245E9F"/></svg>