<!-- by TradingView --><svg width="18" height="18" viewBox="0 0 18 18" xmlns="http://www.w3.org/2000/svg"><path fill="#F0F3FA" d="M0 0h18v18H0z"/><path d="M6.09 13.08C4.5 12.03 4.05 9.98 4 9.1c.07-.37.25-1.15.48-1.3.23-.14 1.7-.78 2.4-1.08l1.54.62a4.19 4.19 0 0 0-2.79 4.07c0 .62.3 1.38.45 1.67Z" fill="#F4B333"/><path d="M4.85 7.85c-.53.54-.75 1.3-.8 1.6A5.34 5.34 0 0 1 4 8.83C4 6.52 6.05 4 8.97 4c1.18 0 2.11.43 2.43.65l-1.12 2.38c-.27.25-1.06.31-1.42.32H6.58c-1.03 0-1.58.34-1.73.5Z" fill="#CF202F"/><path d="M11.91 4.92C13.5 5.97 13.95 8.02 14 8.9c-.07.37-.25 1.15-.48 1.3-.23.14-1.7.78-2.4 1.08l-1.54-.62a4.19 4.19 0 0 0 2.79-4.07c0-.62-.3-1.38-.45-1.67Z" fill="#004987"/><path d="M13.15 10.15c.53-.54.75-1.3.8-1.6.03.25.05.52.05.63 0 2.3-2.05 4.82-4.97 4.82-1.18 0-2.11-.43-2.43-.65l1.12-2.38c.27-.25 1.06-.31 1.42-.32h2.28c1.03 0 1.58-.34 1.73-.5Z" fill="#4B9D45"/></svg>