<!-- by TradingView --><svg width="18" height="18" viewBox="0 0 18 18" xmlns="http://www.w3.org/2000/svg"><path fill="#0084FF" d="M0 0h18v18H0z"/><path fill-rule="evenodd" d="M3 5.6V13h8.98A2.94 2.94 0 0 0 15 10.15V5.49a.5.5 0 0 0-.51-.49H3.64a.63.63 0 0 0-.64.6Zm.18.15v7.08h8.71c1.62 0 2.93-1.22 2.93-2.73V5.63c0-.26-.15-.46-.43-.46H3.72c-.34 0-.54.26-.54.58ZM9 5.33v.76c.44.07 1.4.4 1.76 1.15v-1.9H9Zm-5.65 7.34v-4.1c.04-.75.57-2.24 2.42-2.24.74 0 1.18.33 1.3.49.16-.16.68-.49 1.6-.49 1.16 0 1.99.99 2.1 1.17v2.17H8.64V8.5a.34.34 0 0 0-.36-.33c-.2 0-.29.15-.29.33v4.16H6V8.52c0-.19-.1-.34-.31-.34s-.36.15-.36.34v4.15H3.35Zm8.23 0c-2.24 0-2.87-1.74-2.93-2.67h2.11c.04.32.32.84 1.04.84.73 0 .95-.46.95-.84h1.9c0 .17-.26 2.67-3.07 2.67ZM11 7.4v2.27c.02-.23.14-.68.82-.68.69 0 .93.45.95.68h1.88a2.6 2.6 0 0 0-2.79-2.5c-.48 0-.76.15-.86.23Zm-2.35 5.27V11c.3.98 1.3 1.52 1.76 1.67H8.65Z" fill="#fff"/></svg>