<!-- by TradingView --><svg xmlns="http://www.w3.org/2000/svg" width="18" height="18"><path fill="#EF8123" d="M0 0h18v18H0z"/><path d="M14 9a5 5 0 01-8.49 3.58 18.25 18.25 0 011.94-3.71c.38-.53.83-1.18.81-.48-.01.77.1 1.88.16 2.34.02.18.08.52.4.6.33.09.63-.2.73-.38 1-1.8 1.8-3.07 2.08-3.47-.02 1.09.17 1.75.43 1.92a.4.4 0 00.53-.07c.2-.2 1.14-1.76.9-2.02-.18-.2-.43 0-.52.14l-.04.05c-.12.2-.3.5-.4.53-.05.01-.05-.12-.05-.23v-.04c0-1.28-.39-1.66-.66-1.76-.64-.24-2.13 2.57-2.63 3.64l-.07-1.72c0-1.12-.8-1.27-1.2-1.14-1.04.33-2.62 3.25-3.23 4.76a5 5 0 016.2-7.17.91.91 0 00-.4.43c-.18.38-.11.78.15.9.26.13.62-.07.8-.44.1-.2.12-.4.08-.58A5 5 0 0114 9z" fill="#fff"/></svg>