<!-- by TradingView --><svg width="18" height="18" viewBox="0 0 18 18" xmlns="http://www.w3.org/2000/svg"><path fill="#F0F3FA" d="M0 0h18v18H0z"/><path fill-rule="evenodd" d="M8.98 6.48 8.37 4H6.3A2.36 2.36 0 0 0 4 6.41v1.94l2.5.68-2.5.68v1.88A2.36 2.36 0 0 0 6.31 14h2.06l.61-2.42.63 2.42h2.08A2.36 2.36 0 0 0 14 11.59V9.7l-2.5-.68 2.5-.68V6.41A2.36 2.36 0 0 0 11.69 4H9.6l-.63 2.48ZM6.65 7.75c.57 0 1.03-.49 1.03-1.1 0-.6-.46-1.09-1.03-1.09-.57 0-1.03.5-1.03 1.1 0 .6.46 1.09 1.03 1.09Zm1.03 3.6c0 .6-.46 1.09-1.03 1.09-.57 0-1.03-.5-1.03-1.1 0-.6.46-1.09 1.03-1.09.57 0 1.03.49 1.03 1.1Zm3.67-3.6c.57 0 1.03-.49 1.03-1.1 0-.6-.46-1.09-1.03-1.09-.57 0-1.03.5-1.03 1.1 0 .6.46 1.09 1.03 1.09Zm1.03 3.6c0 .6-.46 1.09-1.03 1.09-.57 0-1.03-.5-1.03-1.1 0-.6.46-1.09 1.03-1.09.57 0 1.03.49 1.03 1.1ZM9 11.18c1.14 0 2.06-.98 2.06-2.19 0-1.2-.92-2.19-2.06-2.19-1.14 0-2.06.98-2.06 2.19 0 1.2.92 2.19 2.06 2.19Z" fill="#959196"/><path fill-rule="evenodd" d="M8.37 4H6.3A2.36 2.36 0 0 0 4 6.41v1.94l2.5.68-2.5.68v1.88A2.36 2.36 0 0 0 6.31 14h2.06l.61-2.42.63 2.42h2.08A2.36 2.36 0 0 0 14 11.59V9.7l-2.5-.68 2.5-.68V6.41A2.36 2.36 0 0 0 11.69 4H9.6l-.63 2.48L8.37 4Zm1.35.16-.63 2.5c.42.02.82.16 1.15.4a1.32 1.32 0 0 1-.06-.4c0-.7.52-1.25 1.17-1.25.65 0 1.18.56 1.18 1.25S12 7.9 11.35 7.9c-.16 0-.31-.04-.45-.1a2.44 2.44 0 0 1 0 2.38c.14-.06.3-.1.45-.1.65 0 1.18.56 1.18 1.25 0 .7-.53 1.25-1.18 1.25-.65 0-1.17-.56-1.17-1.25 0-.14.02-.27.06-.4a2.1 2.1 0 0 1-1.17.4l.65 2.5h1.97c1.2 0 2.16-1.01 2.16-2.25V9.84l-2.4-.66v-.3l2.4-.65V6.41c0-1.24-.96-2.25-2.16-2.25H9.72Zm-.8 7.03h.11a2 2 0 0 0 1.55-.8 2.26 2.26 0 0 0-.17-2.99 2 2 0 0 0-1.5-.59 2 2 0 0 0-1.5.8c-.29.37-.47.86-.47 1.39a2.26 2.26 0 0 0 .64 1.59 2 2 0 0 0 1.35.6Zm-1.16-.25c.33.23.71.38 1.13.4l-.64 2.5H6.31a2.21 2.21 0 0 1-2.16-2.25V9.84l2.4-.66v-.3l-2.4-.65V6.41c0-1.24.96-2.25 2.16-2.25h1.94l.62 2.5c-.4.02-.79.17-1.1.4.03-.13.05-.26.05-.4 0-.7-.52-1.25-1.17-1.25-.65 0-1.18.56-1.18 1.25S6 7.9 6.65 7.9c.16 0 .31-.04.45-.1a2.44 2.44 0 0 0 0 2.38c-.14-.06-.3-.1-.45-.1-.65 0-1.18.56-1.18 1.25 0 .7.53 1.25 1.18 1.25.65 0 1.17-.56 1.17-1.25 0-.14-.02-.27-.06-.4Zm-.29-.25c-.04-.07-.1-.13-.16-.18a.99.99 0 0 0-.66-.26c-.57 0-1.03.49-1.03 1.1 0 .6.46 1.09 1.03 1.09.57 0 1.03-.5 1.03-1.1 0-.24-.08-.47-.2-.65Zm-.16-3.2a1.13 1.13 0 0 0 .36-.84c0-.6-.45-1.09-1.02-1.09-.57 0-1.03.5-1.03 1.1 0 .6.46 1.09 1.03 1.09.25 0 .48-.1.66-.26Zm3.22 3.2c-.13.18-.2.41-.2.65 0 .6.45 1.1 1.02 1.1.57 0 1.03-.5 1.03-1.1 0-.6-.46-1.09-1.03-1.09a.99.99 0 0 0-.82.44Zm.16-3.2c.18.16.41.26.66.26.57 0 1.03-.49 1.03-1.1 0-.6-.46-1.09-1.03-1.09-.57 0-1.03.5-1.03 1.1a1.13 1.13 0 0 0 .37.83Z" fill="#000043"/><path d="M10.76 9c0 1.04-.79 1.88-1.76 1.88S7.24 10.04 7.24 9 8.03 7.12 9 7.12s1.76.84 1.76 1.88Z" fill="#00024C"/><path d="m7.51 9.73.22.23.2-.23-.15-.16.04-.1.37.33.14-.17c.03-.01.05.06.06.1v.3l-.27.12h.54v-.42c.32 0 .47-.1.5-.16.02 0 .07.03.14.13.07.11.09.22.09.26l-.27.2h.49v-.14l.15-.17a.5.5 0 0 0-.15-.12c-.06-.02.02-.15.06-.2l.24.22-.03.21-.17.2.38.02-.05-.26.21-.1-.16-.07-.07-.15a.68.68 0 0 0 .14-.35.57.57 0 0 0-.07-.28c.04-.03.11-.11.12-.18 0-.08-.1-.33-.22-.33-.13 0-.16.02-.38.02-.23 0-.4-.08-.4-.15 0-.07.1-.12.25-.12s.32.19.5.19c.15 0 .2-.05.2-.07v-.12c-.02.02-.08.07-.2.07-.15 0-.3-.22-.5-.22s-.4.1-.4.3c0 .19.34.28.5.28.15 0 .15-.07.27-.07.11 0 .17.04.21.14.05.1-.07.04-.33.04s-.42.14-.66.14c-.18 0-.17-.17-.14-.25.03-.14.08-.41.05-.43-.02-.02-.19-.05-.3-.1-.12-.04-.14.12-.33.17-.19.06-.22-.16-.3 0-.08.13.26.28.44.33 0 .02-.04.07-.14.1-.12.04-.27-.14-.3-.07-.05.08.35.25.38.25-.17.04-.33.27-.39.38l-.2-.12.15-.16h-.2v-.51c0-.19.17-.45.25-.56-.3.14-.4.43-.4.56v.5h-.16l.16.19.04.4-.15.16Z" fill="#EAF1E9"/></svg>