<!-- by TradingView --><svg width="18" height="18" viewBox="0 0 18 18" xmlns="http://www.w3.org/2000/svg"><path fill="#F0F3FA" d="M0 0h18v18H0z"/><path fill-rule="evenodd" d="M7.22 9.91c-.2-.04-.53-.3-.38-.98-.02-.06-.15-.2-.5-.2-.45 0-1.34-.19-1.34-.58 0-.39 1.14-.39 1.33-.39h.07c.24 0 .76.02.82-.36a.56.56 0 0 1-.32.1h-.07c-.2 0-.5.02-.44-.33.04-.2-.03-.28-.1-.35-.06-.08-.12-.14-.09-.3.07-.32.26-.45.32-.39a.7.7 0 0 1 .05.06c.05.06.1.12.14.07.03-.03.03-.1.03-.17s0-.16.03-.22c.07-.13.26-.46.58-.52.13-.03.24-.08.32-.13.12-.06.2-.1.3-.07l.08.03c.18.05.37.12.37.23 0 .08-.06.13-.12.18-.03.03-.07.06-.07.08 0 .03.02.05.04.08a.4.4 0 0 1 .09.25v.91c-.01.06-.11.2-.44.33.04.09.17.26.38.26L10.13 3a7.1 7.1 0 0 1 2.22 5.22l-.38.06A7 7 0 0 0 10.2 3.2L8.49 7.43l2.34.85H8.11l.12-.58-.31.52h-1.2l1.32.13h5.2l.13-.13.63.26-.63.2-.13-.2h-.82c-.15 1.87-1.25 5.79-4.44 6.52l-.05-.09a3.01 3.01 0 0 1-.46-2.13c.09.3.33.95.64 1.11a3.5 3.5 0 0 1-.57-2.09c.06.13.22.45.38.66-.11-.18-.32-.6-.32-.92 0-.31-.04-.7-.06-.84-.03-.21-.12-.66-.32-.79Zm.82-3.65c-.1-.05-.12-.24-.12-.33.35-.15.35.16.31.33-.02.02-.09.05-.19 0Zm1.14 2.28a.25.25 0 0 0-.25.26c0 .27 0 .53.13.66-.05.06-.1.22 0 .32l.1.12c.17.23.52.69 1.04.8.63.13 1.7-.6 1.7-1.44 0-.73-1.07-.64-1.54-.6l-.16.01c-.1 0-.18-.02-.28-.04a2.7 2.7 0 0 0-.74-.09Zm-1.26.26h-.13l.25 2.03-.12-2.03Zm0-2.34c-.03.15-.03.45.12.45-.04.05-.11.13-.06.13.06 0 .25 0 .25-.2v-.07c.01-.16.02-.31-.31-.31Z" fill="#29476D"/></svg>