<!-- by TradingView --><svg width="18" height="18" viewBox="0 0 18 18" xmlns="http://www.w3.org/2000/svg"><path fill="#F0F3FA" d="M0 0h18v18H0z"/><path fill-rule="evenodd" d="M9.2 4.55c.16-.04.27-.14.27-.26C9.47 4.13 9.26 4 9 4s-.47.13-.47.29c0 .12.11.22.28.26v.05h-.12c.09 2.96.27 9.11.32 10V5v10c.04-.75.18-5.6.27-8.87l.05-1.53h-.14v-.05ZM4 4.97h4.06v.9c0 .3.33.67.52.81v.67c-.68.02-.97-.23-1.02-.34H5.14l-.29-.5h2.2l-.06-.18H4.76l-.38-.68h2.51v-.17H4.3L4 4.98Zm10 0H9.94v.9c0 .3-.33.67-.52.81v.67c.68.02.97-.23 1.02-.34h2.42l.29-.5h-2.2l.06-.18h2.23l.38-.68h-2.51v-.17h2.6l.29-.5Zm-5.31 3.9v-.59c-.27 0-1.71.32-2.1.4l-.08.02c-.18.04-.26.05-.26-.11 0-.14-.12-.18-.19-.19-.06 0-.18.04-.18.21 0 .16.19.23.32.25L4.8 13H4.6a2 2 0 0 0 1.75 1c1 0 1.53-.67 1.67-1h-.17L6.4 8.86h2.3Zm.62 0v-.59c.28 0 1.85.34 2.17.4l.04.02a.6.6 0 0 0 .18.02c.05 0 .08-.04.08-.13 0-.14.12-.18.19-.19.06 0 .19.04.19.21 0 .17-.22.24-.35.25L13.28 13h.1a2 2 0 0 1-1.76 1c-1 0-1.53-.67-1.67-1h.14l1.52-4.14h-2.3ZM7.72 13 6.36 9.18V13h1.36Zm-1.53 0V9.2L4.94 13h1.25Zm5.45-3.83L10.24 13h1.4V9.17Zm.17.01V13h1.33l-1.33-3.82Z" fill="#939598"/></svg>