<!-- by TradingView --><svg width="18" height="18" viewBox="0 0 18 18" xmlns="http://www.w3.org/2000/svg"><path fill="#F0F3FA" d="M0 0h18v18H0z"/><path d="m2 11 .3-4h.68l1.18 3.23L5.36 7h.7l.29 4h-.53l-.19-3.36L4.33 11h-.4L2.73 7.64 2.5 11H2Zm5-4h2.26v.33H7.52v1.5h1.74v.34H7.52v1.5h1.74V11H7V7Zm4.14 0c.31-.01.73.15.9.22l-.14.4c-.36-.15-.66-.2-.76-.2-.9 0-1.09.93-.28 1.21.81.29 1.37.63 1.34 1.3-.03.67-.68 1.06-1.34 1.07-.52.01-1-.18-1.16-.27l.22-.4c1.2.54 1.74.05 1.74-.4 0-.36-.3-.62-.52-.67C9.99 8.94 9.81 8.4 9.8 8.1c.06-.95.95-1.09 1.34-1.1Zm2.83 0-1.4 4h.55l.44-1.33h1.42l.44 1.33H16l-1.39-4h-.64Zm.9 2.33h-1.2l.6-1.82.6 1.82Z"/></svg>