<!-- by TradingView --><svg width="18" height="18" viewBox="0 0 18 18" xmlns="http://www.w3.org/2000/svg"><path fill="#F0F3FA" d="M0 0h18v18H0z"/><circle cx="9" cy="9" r="6" fill="url(#az5adlfe1)"/><path d="m4.45 7.32.61-.25.24.46a4.1 4.1 0 0 0-.23 1.35A3.98 3.98 0 0 0 9 12.91c2.17 0 3.93-1.8 3.93-4.03 0-.5-.1-.98-.26-1.42l.24-.39.68.39c.14.45.2.93.2 1.42A4.86 4.86 0 0 1 9 13.8c-2.64 0-4.8-2.2-4.8-4.92 0-.54.1-1.07.26-1.56Z" fill="#5C4522"/><path d="m9.05 5.96.23.72h.75l-.6.44.23.72-.61-.45-.61.45.23-.72-.6-.44h.74l.24-.72Z" fill="#5C4522"/><path opacity=".5" fill="#5C4522" d="M7 8h4v2H7z"/><defs><linearGradient id="az5adlfe1" x1="12.87" y1="4.12" x2="5.66" y2="13.55" gradientUnits="userSpaceOnUse"><stop stop-color="#B69445"/><stop offset=".52" stop-color="#D0AC4F"/><stop offset="1" stop-color="#AC8D44"/></linearGradient></defs></svg>