<!-- by TradingView --><svg width="18" height="18" viewBox="0 0 18 18" xmlns="http://www.w3.org/2000/svg"><path fill="url(#a4skog4r4)" d="M0 0h18v18H0z"/><path d="M15.29 8h-1.76c-.15 0-.3.05-.42.15a.82.82 0 0 0-.26.4h2.28c.15 0 .23.15.23.3v.6h-2.54V11h.63v-1h1.91v.3c0 .19.1.37.21.5.12.13.27.2.43.2V8.82a.83.83 0 0 0-.2-.58.71.71 0 0 0-.24-.18.63.63 0 0 0-.27-.06ZM12.41 8.03V8H9.82c-.24 0-.42.28-.42.53v.03h1.2V11h.63V8.56h.76c.24 0 .42-.28.42-.53ZM8.42 8.53c.13 0 .24-.05.33-.15.09-.1.14-.23.14-.36V8H5.98v1.52c-.3.1-.53.23-.8.38V8h-.6l-1 1.16L2.6 8H2v3c.08 0 .16-.02.23-.05a.7.7 0 0 0 .4-.61V8.76l.95 1.16.97-1.16v1.55c-.58.48-.66.69-.66.69.05-.04.81-.78 2.09-1.1v.35a.85.85 0 0 0 .2.55c.13.15.35.2.54.2h2.17a.48.48 0 0 0-.14-.34.45.45 0 0 0-.33-.15H6.89c-.03 0-.07-.01-.1-.03a.26.26 0 0 1-.08-.06.32.32 0 0 1-.08-.2v-.47c.46-.08.92-.13 1.39-.13l.15-.03a.4.4 0 0 0 .13-.1c.04-.04.07-.1.1-.15a.5.5 0 0 0 .02-.17v-.01c-.6-.02-1.2.04-1.79.18v-.8h1.8Z" fill="#fff"/><defs><linearGradient id="a4skog4r4" x1="3.35" y1="3.12" x2="21.9" y2="24.43" gradientUnits="userSpaceOnUse"><stop stop-color="#1A1E21"/><stop offset="1" stop-color="#06060A"/></linearGradient></defs></svg>