<!-- by TradingView --><svg width="18" height="18" viewBox="0 0 18 18" xmlns="http://www.w3.org/2000/svg"><path fill="#F0F3FA" d="M0 0h18v18H0z"/><path d="M9.02 8c-.4 0-.69-.3-.69-.65V5.88L7.16 4.83c-.21-.19-.21-.5 0-.69.2-.19.55-.19.76 0L9 5.13l1.08-.99c.21-.19.55-.19.76 0 .21.2.21.5 0 .7l-1.17 1v1.5c0 .37-.26.66-.65.66ZM9.02 10c-.4 0-.69.3-.69.65v1.47l-1.17 1.05c-.21.19-.21.5 0 .69.2.19.55.19.76 0L9 12.87l1.08.99c.21.19.55.19.76 0 .21-.2.21-.5 0-.7l-1.17-1v-1.5a.63.63 0 0 0-.65-.66ZM7.92 9.35c-.17-.33-.54-.45-.83-.26l-1.19.8-1.33-.42c-.24-.07-.49.1-.55.38-.07.28.07.57.32.64l1.25.39-.33 1.46c-.07.28.08.57.32.64.24.08.5-.09.56-.37l.34-1.49 1.22-.81c.29-.2.39-.62.22-.96ZM10.08 8.65c-.17-.33-.07-.76.22-.95l1.2-.79.35-1.52c.07-.28.32-.45.56-.37.25.07.4.36.33.64l-.34 1.43v.01l1.26.39c.24.07.39.36.32.64-.06.28-.31.44-.56.37l-1.29-.4-1.22.8c-.29.2-.66.08-.83-.25Z" fill="#00A9C2"/><path d="M10.08 9.35c.17-.33.54-.45.83-.26l1.19.8 1.33-.42c.24-.07.49.1.55.38.07.28-.07.57-.32.64l-1.25.39.33 1.46c.07.28-.08.57-.32.64-.24.08-.5-.09-.56-.37l-.34-1.49-1.22-.81c-.29-.2-.39-.62-.22-.96ZM7.92 8.65c.17-.33.07-.76-.22-.95l-1.2-.79-.35-1.52c-.07-.28-.32-.45-.56-.37-.25.07-.4.36-.33.64l.34 1.43v.01l-1.26.39c-.24.07-.39.36-.32.64.06.28.31.44.56.37l1.29-.4 1.22.8c.29.2.66.08.83-.25Z" fill="#00A9C2"/></svg>