<!-- by TradingView --><svg width="18" height="18" viewBox="0 0 18 18" xmlns="http://www.w3.org/2000/svg"><path fill="#F0F3FA" d="M0 0h18v18H0z"/><path d="M7.18 4H4.39c-.3 0-.48.32-.3.55L7.23 8.7c.09.12.1.28 0 .4l-3.18 4.35c-.16.23.02.54.32.54h2.8c.13 0 .25-.07.32-.17l3.12-4.92L7.5 4.17A.39.39 0 0 0 7.18 4Z" fill="#75BF20"/><path d="M11.12 4h2.5c.3 0 .48.3.32.53L11.08 8.7 9.4 6.31l1.39-2.14c.06-.1.19-.17.32-.17ZM11.12 14h2.5c.3 0 .48-.3.32-.53L11.08 9.3 9.4 11.69l1.39 2.14c.06.1.19.17.32.17Z" fill="#BFC3C6"/></svg>