<!-- by TradingView --><svg xmlns="http://www.w3.org/2000/svg" width="18" height="18"><path fill="#FF6A00" d="M0 0h18v18H0z"/><path d="M11.62 4.74A4.95 4.95 0 009 4a5 5 0 00-4.14 7.82c.72-1.8 1.68-3.33 2.87-4.6.55-.56 1.26-.41 1.64.4.12.25.1 1.2.08 2.08v.13a12.7 12.7 0 012.08-3.35c.28-.49.82-.32.94.12.11.45.2.92.2 1.42.01.22.08.22.16.13l.18-.23c.1-.11.2-.23.28-.35.33-.24.47.02.38.38-.1.59-.38 1.1-.74 1.63-.36.38-.63.32-.83-.04a4.6 4.6 0 01-.25-1.65 23.1 23.1 0 00-2.12 3.6l-.1.18a1.1 1.1 0 01-1-.38v-.53c-.02-.82-.03-1.71-.1-2.14-.03-.25-.1-.16-.2-.07l-.07.07c-1.59 1.7-2.23 3.4-2.28 4.36A4.98 4.98 0 009 14a5 5 0 002.85-9.1c.03.32-.04.57-.32.73-.5.15-.62-.19-.45-.5a1.8 1.8 0 01.53-.4z" fill="#fff"/></svg>