<!-- by TradingView --><svg width="18" height="18" viewBox="0 0 18 18" xmlns="http://www.w3.org/2000/svg"><path fill="#F0F3FA" d="M0 0h18v18H0z"/><path d="M7.3 9.18h-.27l-.2 1.65h.31l.16-1.65Zm3.4 0h.21l.25 1.65h-.31l-.16-1.65Z" fill="url(#a2qadujuk)"/><path d="M8.05 8.06s.32-.31.95-.3c.3 0 .66.06 1.1.3 0-.8-.33-1.07-.82-1.6l.47-.67V5L9 6.23l-.95 1.25v.58Z" fill="url(#b2qadujuk)"/><path d="M13 10.83h-2l-.07-.82-.08-.83L9 10.88l-1.86-1.7L7 10.83H5L6 5l3 3 3-3 1 5.83Z" fill="url(#c2qadujuk)"/><path d="M3 11h12l-1 2H4l-1-2Z" fill="url(#d2qadujuk)"/><path fill-rule="evenodd" d="M9 6.26c1 0 1.8.82 1.8 1.82 0 1.01-.8 1.83-1.8 1.83s-1.8-.82-1.8-1.83c0-1.07.91-2.18 1.4-3.08h1.15L9 6.26Zm0 1c.45 0 .8.37.8.82a.8.8 0 1 1-1.6 0 .8.8 0 0 1 .8-.81Z" fill="url(#e2qadujuk)"/><defs><linearGradient id="a2qadujuk" x1="9" y1="9.04" x2="9" y2="10.83" gradientUnits="userSpaceOnUse"><stop stop-color="#65818B"/><stop offset="1" stop-color="#C2CCDE"/></linearGradient><linearGradient id="b2qadujuk" x1="7.77" y1="7.37" x2="9.74" y2="8.06" gradientUnits="userSpaceOnUse"><stop stop-color="#CA4231"/><stop offset=".51" stop-color="#C81F29"/><stop offset="1" stop-color="#F47D64"/></linearGradient><linearGradient id="c2qadujuk" x1="4.98" y1="5.75" x2="12.87" y2="10.61" gradientUnits="userSpaceOnUse"><stop stop-color="#D3DBEE"/><stop offset=".42" stop-color="#CEDAE6"/><stop offset=".66" stop-color="#94ABBE"/><stop offset=".96" stop-color="#6880A5"/></linearGradient><linearGradient id="d2qadujuk" x1="2.83" y1="11.09" x2="15.4" y2="11.09" gradientUnits="userSpaceOnUse"><stop offset=".06" stop-color="#385069"/><stop offset=".18" stop-color="#B8C9E3"/><stop offset=".3" stop-color="#6785A5"/><stop offset=".62" stop-color="#657FA6"/><stop offset=".78" stop-color="#8CA4C1"/><stop offset=".99" stop-color="#6A819C"/></linearGradient><linearGradient id="e2qadujuk" x1="6.69" y1="7.45" x2="10.98" y2="8.24" gradientUnits="userSpaceOnUse"><stop stop-color="#EA917D"/><stop offset=".53" stop-color="#E23323"/><stop offset="1" stop-color="#DE1C28"/></linearGradient></defs></svg>