<!-- by TradingView --><svg width="18" height="18" viewBox="0 0 18 18" xmlns="http://www.w3.org/2000/svg"><path fill="#F0F3FA" d="M0 0h18v18H0z"/><path d="M6.18 7.37v.92H7.2a1.8 1.8 0 0 1 1.64-.99c.68 0 1.1.26 1.36.46.38-.3.85-.46 1.37-.46.85 0 2.11.7 2.11 1.7v3.57H13V9c0-.39-.6-1-1.53-1-.87 0-1.24.71-1.25.72l-.02.04-.02-.04s-.08-.18-.27-.35c-.18-.16-.5-.35-1-.35A1.2 1.2 0 0 0 7.65 9H5.47V7.22c.01-.04.44-1.08 1.5-1.08s1.46.99 1.47 1.03l.01.02h-.02s-.38.08-.62.27c0 0-.22-.6-.83-.6-.5 0-.74.38-.8.5Zm6.35 5.2V9.25a1.01 1.01 0 0 0-1.06-.96c-.8 0-1.1.7-1.15 1.02v3.26H11V9.31c.02-.08.15-.31.45-.31.28 0 .35.18.37.25v3.32h.7Zm-2.53 0V9.16c-.06-.3-.28-.87-1.04-.87-.8 0-.91.6-.96.92v3.36h.71V9.36C8.73 9.28 8.7 9 9 9c.28 0 .26.14.29.2v3.37H10Zm5 .46V4.92c0-.52-.44-.84-.85-.91L14.12 4H4.15c-.75 0-1.07.48-1.14.76L3 4.81v8.26c0 .34.14.55.27.67.24.23.56.26.69.26H5V7.18c.25-1.06 1.21-1.4 1.92-1.4.7 0 1.64.45 1.77 1.39.3-.06.52-.02.83.06a2.79 2.79 0 0 0-2.6-2.16c-1.57 0-2.5 1.3-2.61 1.98v6.24h-.4c-.15 0-.2-.17-.2-.2V4.94c0-.06.07-.23.38-.23h9.94c.17 0 .26.17.26.2v8.12c0 .15-.2.25-.28.25H6.18V10H7v2.57h.68V9.36h-2.2V14H14c.4 0 .64-.16.76-.3a.92.92 0 0 0 .23-.67Z" fill="#1C2A3D"/></svg>