<!-- by TradingView --><svg width="18" height="18" viewBox="0 0 18 18" xmlns="http://www.w3.org/2000/svg"><path fill="#F0F3FA" d="M0 0h18v18H0z"/><path fill-rule="evenodd" d="M5.41 4C4.63 4 4 4.63 4 5.41v7.18c0 .78.63 1.41 1.41 1.41h7.18c.78 0 1.41-.63 1.41-1.41V5.41C14 4.63 13.37 4 12.59 4H5.41ZM9 12.5a3.5 3.5 0 1 0 0-7 3.5 3.5 0 0 0 0 7Z" fill="#26316F"/><path d="m9 6.5.13.35a3.42 3.42 0 0 0 2.02 2.02l.35.13-.35.13a3.42 3.42 0 0 0-2.02 2.02L9 11.5l-.13-.35a3.42 3.42 0 0 0-2.02-2.02L6.5 9l.35-.13a3.42 3.42 0 0 0 2.02-2.02L9 6.5Z" fill="#C9232D"/></svg>