<!-- by TradingView --><svg width="18" height="18" viewBox="0 0 18 18" xmlns="http://www.w3.org/2000/svg"><path fill="#F0F3FA" d="M0 0h18v18H0z"/><path d="M4 6v3h.3V7.54L4.66 9h.23l.32-1.46V9h.3V6h-.45l-.3 1.8-.3-1.8H4ZM6 6v3h1v-.6h-.7v-.6H7v-.6h-.7v-.6H7V6H6Z" fill="#231F20"/><path fill-rule="evenodd" d="M7.7 9V6h.67c.18.01.54.24.54 1.07 0 .83-.36.93-.54.93H8v1h-.3ZM8 7.5v-.9c.43 0 .6.08.6.44 0 .37-.18.46-.6.46Z" fill="#231F20"/><path fill-rule="evenodd" d="M11.85 7.2h.34c-.07-.68-.38-1.2-.75-1.2-.43 0-.77.67-.77 1.5S11 9 11.44 9c.37 0 .68-.52.75-1.2h-.34c-.06.35-.23.6-.43.6-.25 0-.45-.4-.45-.9s.2-.9.45-.9c.2 0 .37.25.43.6Zm2.15.3c0 .83-.34 1.5-.76 1.5s-.76-.67-.76-1.5.34-1.5.76-1.5.76.67.76 1.5Zm-.3 0c0 .5-.2.9-.46.9-.25 0-.45-.4-.45-.9s.2-.9.45-.9.46.4.46.9Z" fill="#6E3D0A"/><path d="M9.14 9.1A5.72 5.72 0 0 0 4 12.34l1.26.44a4.73 4.73 0 0 1 4-2.97A5.27 5.27 0 0 1 14 12.9c-.38-1.26-1.88-3.8-4.86-3.8Z" fill="#A2A2A4"/><path d="m9.74 5-.96 1.07c.23.32.7 1.24.7 2.36 0 2.83-2.6 4.26-3.61 4.26a3.8 3.8 0 0 1-1.7-.39c.43.53 1.31.69 1.7.7 3.42 0 4.64-3.05 4.64-5.04 0-1.6-.52-2.64-.77-2.96Z" fill="#E2D656"/></svg>