<!-- by TradingView --><svg width="18" height="18" viewBox="0 0 18 18" xmlns="http://www.w3.org/2000/svg"><path fill="#F0F3FA" d="M0 0h18v18H0z"/><path d="M5.61 5.15C4.89 4.72 4 5.27 4 6.13v6.26c0 .34.18.61.5.61s.5-.27.5-.6V6.22c0-.1.1-.15.18-.1L11 9.27V12H7V9.34l1.67-.9-1-.52-1.44.77a.47.47 0 0 0-.23.4v3.13c0 .43.34.78.75.78h4.5c.41 0 .75-.35.75-.78V9.09a.47.47 0 0 0-.23-.4L5.61 5.15Z" fill="#0087CF"/><path d="m12.82 6.13-2.46 1.36-1.05-.58 3.08-1.76c.72-.43 1.61.12 1.61.98v6.26c0 .34-.18.61-.5.61s-.5-.27-.5-.6V6.22c0-.1-.1-.15-.18-.1Z" fill="#0087CF"/></svg>