<!-- by TradingView --><svg width="18" height="18" viewBox="0 0 18 18" xmlns="http://www.w3.org/2000/svg"><path fill="#F0F3FA" d="M0 0h18v18H0z"/><path d="m9.73 7.69-6.71 2.58 1.66.87 5.4-2.23c.25-.14.84-.36 1.1-.1.24.28-.19.6-.44.71l-4.7 2.18 1.51.92 4.09-2.08c.2-.1.65-.26.9-.1.27.28-.04.58-.23.7l-3.66 2.02L10 14c1.05-.62 3.18-1.87 4.02-2.4 1.05-.68 1.2-1.74.72-2.22-.39-.39-1.26-.38-1.65-.33.3-.4.69-1.27-.06-1.64-1.1-.64-2.66-.08-3.3.28Z" fill="url(#aztsewctn)"/><path d="M4.75 11.13 3 10.25V6.83C3 5.43 4.26 5 5.08 5c.66 0 1.24.62 1.45.92.17-.3.7-.92 1.5-.92C9.45 5 9.93 7.07 10 8.1V14l-1.4-.86V8.5c0-.45-.15-1.15-.64-1.15-.38 0-.42.44-.41.67v4.56L6 11.7v-4c0-.4-.37-.87-.81-.87-.35 0-.44.3-.44.45v3.85Z" fill="#ED1B24"/><defs><linearGradient id="aztsewctn" x1="4.49" y1="10.05" x2="15" y2="9.52" gradientUnits="userSpaceOnUse"><stop offset=".3" stop-color="#ED1B24"/><stop offset=".59" stop-color="#F7886D"/><stop offset="1" stop-color="#FEE7D9"/></linearGradient></defs></svg>