<!-- by TradingView --><svg width="18" height="18" viewBox="0 0 18 18" xmlns="http://www.w3.org/2000/svg"><path fill="#F0F3FA" d="M0 0h18v18H0z"/><path d="M15 12H3v-1.52h12V12Z" fill="#1B6099"/><path d="M15 7H3l5.98-2L15 7Z" fill="#ED3237"/><path d="M3 10V7.5h.25c.74 0 1.45.37 1.75.9.3-.53 1.01-.9 1.75-.9H7V10h-.83V8.52c-.67.39-.94.92-.99 1.14h-.36a2.03 2.03 0 0 0-.99-1.14V10H3Z" fill="#1B6099"/><path fill-rule="evenodd" d="M9.36 7.5H7.5V10h1.86c.9 0 1.64-.55 1.64-1.22v-.06c0-.67-.74-1.22-1.64-1.22Zm-.08.7h-.9v1.1h.9c.47 0 .85-.24.85-.55 0-.3-.38-.56-.85-.56Z" fill="#1B6099"/><path d="M15 7.5h-2.03c-.81 0-1.47.55-1.47 1.22v.06c0 .67.66 1.22 1.47 1.22H15c-.14-.2-.24-.43-.3-.7H13c-.4 0-.7-.24-.7-.55 0-.3.3-.56.7-.56h1.7c.06-.26.16-.5.3-.69Z" fill="#1B6099"/><path opacity=".5" fill="#F0F3FA" d="M4 10.5h10V12H4z"/></svg>