<!-- by TradingView --><svg width="18" height="18" viewBox="0 0 18 18" xmlns="http://www.w3.org/2000/svg"><path fill="#F0F3FA" d="M0 0h18v18H0z"/><path fill-rule="evenodd" d="M14.83 6.76a4.5 4.5 0 0 1-.7 3.82 7.77 7.77 0 0 1-3.7 2.9c-.77.29-1.56.46-2.34.5a6.23 6.23 0 0 1-2.2-.24 4.47 4.47 0 0 1-1.73-.96c-.46-.43-.8-.96-.99-1.54a4.5 4.5 0 0 1 .7-3.82 7.77 7.77 0 0 1 3.7-2.9c.77-.29 1.56-.46 2.34-.5.78-.05 1.53.03 2.2.24.67.2 1.26.53 1.73.96.46.43.8.96.99 1.54Zm-1.73.55c.15.42.2.88.13 1.35-.07.48-.24.96-.52 1.41-.27.46-.64.89-1.07 1.26a5.84 5.84 0 0 1-3.13 1.34c-.55.05-1.08.01-1.57-.12a3.18 3.18 0 0 1-1.25-.65c-.34-.3-.6-.67-.75-1.09-.15-.42-.19-.88-.12-1.35.06-.47.24-.95.51-1.41.28-.46.64-.89 1.08-1.26a5.84 5.84 0 0 1 3.12-1.34 4.38 4.38 0 0 1 1.57.12c.49.13.91.36 1.26.65.34.3.6.67.74 1.09Zm-3.22.45c0-.01 0-.02.02-.03a1 1 0 0 0 .41-.16 210.14 210.14 0 0 1-.53 2.74c-.07.35.03.59.3.72.3.14.55.1.75-.11.1-.11.18-.34.25-.68a286.73 286.73 0 0 1 .58-2.94.7.7 0 0 0-.64-.44c-.28-.02-.45.17-.61.4-.1.13-.24.18-.37.23l-.11.04c-.04.02-.05 0-.03-.03.07-.15.03-.28-.1-.4-.39-.33-.72-.31-1.01.05-.1.13-.19.22-.25.25-.06.05-.17.09-.32.13-.02.01-.03 0-.04-.02-.06-.43-.28-.64-.65-.63-.18 0-.36.14-.48.3-.05.07-.1.21-.14.41l-.55 2.76c-.04.18-.04.32 0 .4.16.3.54.49.84.34.27-.13.35-.33.42-.66a990 990 0 0 0 .57-2.69 1.14 1.14 0 0 0 .42-.16h.01v.02l-.57 2.83c-.1.55.61.87.97.58a.7.7 0 0 0 .27-.4l.59-2.85Z" fill="#000067"/></svg>