<!-- by TradingView --><svg width="18" height="18" viewBox="0 0 18 18" xmlns="http://www.w3.org/2000/svg"><path fill="#F0F3FA" d="M0 0h18v18H0z"/><path d="M9.87 5.38c-.04.15-.27.23-.5.17-.25-.05-.4-.22-.36-.36.04-.15.27-.23.51-.17.24.05.4.22.35.36Zm.92.05c.24.13.48.18.55.1.06-.08-.07-.25-.3-.39-.24-.13-.49-.18-.55-.1-.07.08.07.25.3.39Zm1.43.39c-.04.08-.2.03-.36-.1-.15-.14-.25-.32-.2-.4.04-.07.2-.03.36.1.16.15.25.32.2.4Zm-.32.56c-.08.09-.26.05-.4-.08s-.19-.3-.1-.4c.07-.08.25-.05.4.08.13.13.18.31.1.4Zm-1.73.7c-.02.15-.18.24-.34.2-.16-.05-.26-.2-.24-.35.03-.16.18-.25.34-.2.16.04.27.2.24.34Zm1.18 0c-.04.15-.27.24-.51.2-.24-.05-.4-.2-.36-.35.04-.16.26-.25.5-.2.24.04.4.2.37.34Zm.5.17c.15.08.32.03.37-.11.05-.14-.03-.31-.18-.39-.16-.08-.32-.03-.38.11-.05.14.03.31.19.39Zm.54-.72c.14.15.32.22.4.17.08-.06.02-.22-.12-.37-.14-.15-.32-.22-.4-.17-.08.06-.03.22.12.37ZM11 6.34c-.1.12-.37.12-.59 0-.22-.1-.3-.29-.2-.4.11-.11.38-.11.6 0 .21.11.3.3.2.4Zm-1.65.07c.24.06.47-.02.52-.17.04-.15-.12-.31-.36-.37-.24-.05-.47.03-.51.17-.05.15.11.32.35.37Zm-1.1-.84c.24 0 .44-.12.45-.28 0-.15-.2-.28-.44-.29-.24 0-.44.12-.45.28 0 .15.2.29.44.3Zm1.03 1.44c0 .16-.2.28-.44.28-.25 0-.44-.14-.44-.3 0-.16.2-.28.45-.28.24 0 .44.14.43.3Zm-1.62-.3c.24 0 .44-.12.45-.27 0-.16-.2-.3-.44-.3s-.44.12-.44.28c0 .16.19.29.43.3Z" fill="url(#a)"/><path d="M12.67 6.7c.13.22.32.35.4.28.09-.07.05-.3-.09-.53-.14-.23-.32-.36-.4-.29-.1.07-.05.31.09.54ZM13 7.8c-.2.12-.56.04-.82-.17-.26-.21-.32-.47-.12-.58.2-.11.56-.03.82.18.26.2.32.47.12.58Zm-4 2.34c.32 0 .59-.25.59-.57A.58.58 0 0 0 9 9a.58.58 0 0 0-.59.57c0 .32.27.57.59.57Zm-1.03 1.72c.4 0 .74-.26.74-.57 0-.32-.33-.58-.74-.58-.4 0-.73.26-.73.58 0 .31.32.57.73.57Zm-.15-1.72c0 .32-.33.57-.73.57-.4 0-.74-.25-.74-.57 0-.31.33-.57.74-.57.4 0 .73.26.73.57Zm.6 2.86c.32 0 .58-.2.58-.43 0-.24-.26-.43-.59-.43-.32 0-.59.2-.59.43 0 .24.27.43.6.43ZM6.9 11.9c-.13.26-.47.32-.77.14-.3-.18-.44-.54-.32-.8.13-.25.47-.32.77-.14.3.18.44.54.32.8Zm-2.27-1.5c.1.23.36.36.58.3.22-.06.32-.3.22-.53-.1-.22-.36-.36-.58-.3-.22.06-.32.3-.22.53Zm1.4 2.52c-.08.14-.34.1-.57-.1-.23-.2-.34-.46-.26-.6.09-.13.34-.1.57.1.23.2.35.46.26.6ZM4.08 11.7c.1.3.3.5.41.42.12-.08.13-.4.02-.7-.11-.3-.3-.49-.42-.41-.12.07-.12.38-.01.69Zm8.77-3.22c.06.32.23.54.38.5.15-.03.22-.31.16-.63-.06-.3-.23-.53-.38-.5-.15.04-.23.32-.16.63Zm.45 1.65c-.15-.02-.22-.23-.16-.47.06-.23.23-.4.38-.38.15.02.23.23.16.47-.06.23-.23.4-.38.38Zm.35-2c-.07.03-.16-.14-.2-.37-.06-.24-.04-.45.02-.48.07-.03.16.13.2.37.06.23.04.45-.02.48Zm.06.72c0 .23.06.43.14.43.08 0 .15-.2.15-.43 0-.24-.07-.43-.15-.43-.08 0-.14.19-.14.43Zm-2.96 3c.07.23-.14.48-.46.55-.32.07-.63-.05-.7-.28-.05-.22.16-.47.47-.54.32-.07.63.05.7.28Zm2.04-2.15c.1-.3-.01-.61-.24-.7-.22-.07-.48.12-.57.42-.1.3 0 .62.23.7.23.07.48-.11.58-.42Zm-.63 1.4c.16.14.05.42-.23.6-.29.18-.65.2-.8.05-.15-.16-.05-.43.24-.6.28-.19.64-.21.8-.06Zm.84-.38c.17-.22.15-.47-.03-.56-.18-.08-.46.02-.62.24-.16.22-.15.47.03.56.18.09.46-.02.62-.24Zm-2.84 0c.08.23-.11.47-.43.54-.31.07-.63-.06-.71-.29-.08-.23.1-.47.42-.53.32-.07.64.06.72.28Zm1.23-.04c.4-.09.63-.4.53-.71-.1-.3-.5-.47-.9-.38-.39.09-.63.4-.53.7.1.3.5.48.9.39Zm-.33-1.66a.58.58 0 0 1-.62.54.58.58 0 0 1-.56-.6c.02-.32.3-.56.62-.54.32.02.57.29.56.6Zm.24-.47c.27.21.63.2.82-.02.2-.23.14-.6-.13-.81-.26-.22-.63-.2-.82.02-.19.23-.13.6.13.8Z" fill="url(#b)"/><defs><linearGradient id="a" x1="7.44" y1="6.14" x2="12.9" y2="6.6" gradientUnits="userSpaceOnUse"><stop stop-color="#2FAD5B"/><stop offset="1" stop-color="#82BC29"/></linearGradient><linearGradient id="b" x1="13.62" y1="7.59" x2="4.15" y2="11.84" gradientUnits="userSpaceOnUse"><stop stop-color="#393E8E"/><stop offset="1" stop-color="#9EDAF2"/></linearGradient></defs></svg>