<!-- by TradingView --><svg width="18" height="18" viewBox="0 0 18 18" xmlns="http://www.w3.org/2000/svg"><path fill="#F0F3FA" d="M0 0h18v18H0z"/><circle cx="9" cy="9" r="5" fill="#25347B"/><path d="M14 9c0 2.76-2.43 3.65-4.89 3.65-1.61 0-4.48-1-4.48-3.75C4.63 6.14 6.23 4 9 4a5 5 0 0 1 5 5Z" fill="#00599F"/><path d="M14 9c0 2.76-2.82 3.09-5 3.09-1.61 0-3.98-1.18-3.98-3.09 0-2.76 1.22-5 3.98-5a5 5 0 0 1 5 5Z" fill="#0073B6" fill-opacity=".7"/><path d="M14 9c0 2.76-3.53 2.62-5 2.49-1.6-.14-3.51-1.14-3.51-2.65C5.49 6.08 6.24 4 9 4a5 5 0 0 1 5 5Z" fill="url(#akscg5zgw)" fill-opacity=".7"/><path d="M14 9c-.1 1.89-3.33 2.4-5 2.07-1.58-.3-2.82-1.65-2.88-2.55-.16-2.34 2.08-4.07 4.96-4.07A5.02 5.02 0 0 1 14 9Z" fill="url(#bkscg5zgw)" fill-opacity=".7"/><path d="M13.26 8.9c-.13 1.47-2.68 1.45-4.15 1.32-1.6-.14-2.12-.98-2.12-1.88 0-1.44.96-2.14 2.68-2.14 2.45 0 3.59 1.01 3.59 2.7Z" fill="#A4CAE1" fill-opacity=".7"/><path d="M5.67 10.18c-.1.64 1.06.78 1.64.77-.53-.1-.77-.45-.83-.6-.11-.84 4.12-.76 6.26-.62-2.14-.7-4.96-.45-6.1-.24a.51.51 0 0 1-.4-.4c.12-.9 4.33-.72 6.42-.53-1.55-.7-4.51-.55-5.8-.39a.83.83 0 0 1-.3-.46c-.09-.81 4.08-.56 6.18-.33a13.94 13.94 0 0 0-4.76-.63c-1.09.06-2.13.42-2.13.9 0 .38.47.56.71.6-.5.1-1.02.29-1.09.7-.05.32.49.55.76.62a.8.8 0 0 0-.56.61Z" fill="#fff"/><defs><linearGradient id="akscg5zgw" x1="9.74" y1="4.26" x2="9.74" y2="11.54" gradientUnits="userSpaceOnUse"><stop stop-color="#0267AA"/><stop offset="1" stop-color="#2695CD"/></linearGradient><linearGradient id="bkscg5zgw" x1="10.06" y1="3.26" x2="10.06" y2="11.16" gradientUnits="userSpaceOnUse"><stop stop-color="#0168AC"/><stop offset="1" stop-color="#77B6DE"/></linearGradient></defs></svg>