<!-- by TradingView --><svg width="18" height="18" viewBox="0 0 18 18" xmlns="http://www.w3.org/2000/svg"><path fill="#F0F3FA" d="M0 0h18v18H0z"/><path d="M14.29 10H14V8h.29v.75h1.42V8H16v2h-.29V9H14.3v1ZM10.85 8.28l-.16.2c-.13-.1-.39-.23-.77-.23-.26 0-.53.05-.53.3 0 .24.34.25.67.27.36.02.94.05.94.56 0 .44-.43.62-.92.62-.52 0-.86-.2-1.08-.39l.17-.2c.17.14.46.34.92.34.35 0 .62-.08.62-.34 0-.28-.3-.33-.65-.35-.44-.03-.95-.06-.95-.5 0-.43.45-.56.82-.56.43 0 .76.16.92.28ZM7 10h-.3V8H7v2ZM4.3 10H4V8.48L3.2 9.7h-.07L2.3 8.5V10H2V8h.32l.85 1.25L4 8h.3v2Z" fill="#424143"/></svg>