<!-- by TradingView --><svg xmlns="http://www.w3.org/2000/svg" width="18" height="18" viewBox="0 0 18 18"><path fill="#F0F3FA" d="M0 0h18v18H0z"/><path d="M4 11.53c-.02-.3.2-.53.46-.53h3.08c.25 0 .48.22.46.52a3.66 3.66 0 0 1-.45 1.54c-.3.51-.8.94-1.52.94a1.8 1.8 0 0 1-1.53-.92c-.32-.5-.47-1.1-.5-1.55zm.64.14c.05.33.17.71.37 1.03.23.37.56.63 1.03.63.45 0 .77-.25.99-.62.18-.32.29-.71.33-1.04H4.64z" fill="#F05A28"/><path fill-rule="evenodd" d="M9 10.33a1.33 1.33 0 1 0 0-2.66 1.33 1.33 0 0 0 0 2.66zM9 11a2 2 0 1 0 0-4 2 2 0 0 0 0 4z" fill="#00ADEF"/><path fill-rule="evenodd" d="M10.5 6.83V5.18c.02-.25.18-.8.75-1.05.56-.26 1-.06 1.17.02.18.1.54.37.62.79.17.02.6.19.85.69.08.18.19.6.03.97-.2.48-.61.87-1.41.9h-1.38a.64.64 0 0 1-.62-.67zm.64.03V5.29c0-.19.1-.58.56-.65.57-.08.71.35.71.56v.23c0 .04.06.16.19.16h.17c.19 0 .58.1.6.57.01.6-.57.7-.65.7h-1.58z" fill="#EB008B"/></svg>