<!-- by TradingView --><svg width="18" height="18" viewBox="0 0 18 18" xmlns="http://www.w3.org/2000/svg"><path fill="#F0F3FA" d="M0 0h18v18H0z"/><path d="m2.1 10.87 1.2-4.2S3.44 6 4 6c.56 0 .7.2.76.4C4.82 6.6 6 9 6 9l1.12-2.43S7.32 6 7.8 6c.46 0 .72.13.8.44.07.3 1.27 4.3 1.27 4.3s.14.37.14.7c0 .3-.1.56-.45.56h-.61s-.37-.06-.49-.63C8.34 10.8 7.66 9 7.66 9l-1.03 2.56S6.5 12 6 12s-.68-.5-.68-.5L4.3 9l-.95 2.6s-.05.4-.54.4c-.4 0-.8 0-.8-.67 0-.13.03-.28.1-.46ZM10.1 6h2.8c.05 0 .1.13.1.28v.44c0 .15-.05.28-.1.28h-2.8c-.05 0-.1-.13-.1-.28v-.44c0-.15.05-.28.1-.28Z" fill="#379F36"/><path d="M11.16 6h.68c.08 0 .16.15.16.34v3.32c0 .18-.07.34-.16.34h-.68c-.08 0-.16-.15-.16-.34V6.32c0-.17.07-.32.16-.32ZM14 6h1v4h-1V6Z" fill="#379F36"/><path fill="#181B1E" d="M11 11h4v1h-4z"/></svg>