<!-- by TradingView --><svg width="18" height="18" viewBox="0 0 18 18" xmlns="http://www.w3.org/2000/svg"><path fill="#F0F3FA" d="M0 0h18v18H0z"/><path d="M6.62 14.53a5.64 5.64 0 0 0 2.27.47 6.47 6.47 0 0 0 2.5-.48 5.9 5.9 0 0 0 1.8-1.23 6.76 6.76 0 0 0 1.25-1.72 5.22 5.22 0 0 0 .48-1.53 6.52 6.52 0 0 0-.02-2.16 5.62 5.62 0 0 0-1.07-2.45 6.73 6.73 0 0 0-2.17-1.83A5.5 5.5 0 0 0 9 3a17.33 17.33 0 0 1-.28 0 6.69 6.69 0 0 0-1.1.14 5.6 5.6 0 0 0-3 1.75 6.26 6.26 0 0 0-1.3 2.08 5.39 5.39 0 0 0-.27 1.12 6.8 6.8 0 0 0 .07 2.23 5.61 5.61 0 0 0 1.58 2.88 5.96 5.96 0 0 0 1.9 1.33Zm6.87-8.18a4.82 4.82 0 0 1 .64 2.05 5.07 5.07 0 0 1-2.38 4.93 4.79 4.79 0 0 1-2.65.8 4.78 4.78 0 0 1-3.83-1.6 5.36 5.36 0 0 1-1.15-1.84 6.02 6.02 0 0 1-.2-2.83 4.8 4.8 0 0 1 1.32-2.5 6.73 6.73 0 0 1 1.03-.87 5.55 5.55 0 0 1 1.26-.57 4.92 4.92 0 0 1 2.06-.17 5.18 5.18 0 0 1 1.01.2 4.85 4.85 0 0 1 2.3 1.57c.23.27.43.54.6.83Zm-3.26 2.64V7.21l1.24 1.6 1.07-1.27a3 3 0 0 1 .2 2.12 4.13 4.13 0 0 1-.48 1.2 7.54 7.54 0 0 1-.65.96h.97a7.26 7.26 0 0 0 .72-1.37 4.06 4.06 0 0 0-.11-3.32 6.02 6.02 0 0 0-.62-1.07L11.43 7.6 9.36 4.44l-.01-.03V9h.86v-.01ZM7.77 7.21l-1.24 1.6-1.06-1.27c-.3.62-.38 1.26-.26 1.94.08.39.22.78.42 1.17a6.5 6.5 0 0 0 .77 1.17h-.97a6.58 6.58 0 0 1-.86-1.75 3.35 3.35 0 0 1-.12-.62 4.06 4.06 0 0 1 .19-1.9 5.26 5.26 0 0 1 .79-1.49L6.57 7.6h.01l2.06-3.17c0-.01 0-.01 0 0V9h-.86V7.22h-.01ZM10 12v-1.17c.25.02.4.07.64.14h.02a2.04 2.04 0 0 1 .67.33l.52-.65v-.01a3.55 3.55 0 0 0-2.12-.8H9.51a10.13 10.13 0 0 0-.3 0c-.43.03-.85.1-1.26.21l.25.77v.01h.01A10.14 10.14 0 0 1 9 10.8v2.8h1v-1.06h1V12l-.02-.01H10Z"/></svg>