<!-- by TradingView --><svg width="18" height="18" viewBox="0 0 18 18" xmlns="http://www.w3.org/2000/svg"><path fill="#0D2F5D" d="M0 0h18v18H0z"/><path d="M4.2 7.75c.68-.08 1.42-.18 2.22-.3.8-.13 1.43-.34 1.89-.64.7-.45.82-1.03.36-1.73-.06-.1-.05-.1.03-.04.4.33.67.64.78.94.16.42 0 .77-.49 1.02-.33.18-.68.3-1.06.39-1.23.25-2.54.38-3.93.37H4l.21-.01ZM3.18 9.79h.07c1.72.02 3.34-.08 4.85-.3 2.67-.42 3.87-1.16 3.6-2.23-.13-.5-.56-1.04-1.28-1.6-.18-.15-.19-.13-.04.05.17.21.3.47.39.79.3 1.12-.52 1.97-2.5 2.55a17.1 17.1 0 0 1-3.93.62l-.99.1-.1.01h-.08v.01Zm.48 2.08A29.7 29.7 0 0 0 2 12c2.26.06 4.62-.08 7.06-.42 1.22-.17 2.37-.48 3.45-.93.3-.13.61-.33.94-.62.67-.58.73-1.3.18-2.19a7.06 7.06 0 0 0-1.66-1.7v.05c.32.36.55.79.7 1.27.31 1.08-.18 1.99-1.49 2.74-.82.47-1.86.84-3.11 1.1-1.54.31-3.01.5-4.4.58Z" fill="#61C2E1"/></svg>