<!-- by TradingView --><svg width="18" height="18" viewBox="0 0 18 18" xmlns="http://www.w3.org/2000/svg"><path fill="#F0F3FA" d="M0 0h18v18H0z"/><path d="M10.77 13.73c.29.05.53.02.73-.11-.44-1-.6-.67-.71-1.14-.63-.4-1.23.17-2 .15a60.13 60.13 0 0 0-1-.25.92.92 0 0 0-.4-.03.64.64 0 0 0-.37.21l-.29.16a.17.17 0 0 1-.12.02.69.69 0 0 0-.46.05.13.13 0 0 0-.07.1c-.04.22 0 .38.08.46l.31.3c.03.02.07.04.11.04h.11c.07 0 .08.03.06.09a.43.43 0 0 1-.13.15c-.28.05-.5-.02-.64-.21-.19-.25-.28-.5-.28-.74a.19.19 0 0 0-.04-.12c-.1-.14-.29-.32-.35-.5a.97.97 0 0 1 .1-.8c.38-.7.18-1.35.12-2.08a2.42 2.42 0 0 0-.16-.57.95.95 0 0 1-.03-.63c.17-.54.25-.95.26-1.22 0-.12-.03-.3-.09-.56a1.9 1.9 0 0 1-.06-.54c0-.04-.02-.07-.06-.09-.48-.19-1.62.06-1.35-1 .04-.13.13-.23.3-.3.26-.1.45-.16.58-.19.16-.02.33-.08.5-.18.53-.28 1-.07 1.71.12.3.08.9-.15 1.34-.28.2-.06.53-.05 1 .02.18.03.46.1.83.22.25.07.5.09.76.06.48-.06.95-.31 1.51-.08l.98.37c.3.1.45.3.45.58 0 .34-.2.54-.58.59a3.4 3.4 0 0 1-.72.03c-.05 0-.09 0-.12.03a.16.16 0 0 0-.06.1c-.03.2-.04.51-.12.74-.2.57.04 1.07.23 1.62v.34c-.02.1-.04.21-.08.33-.13.43-.41 1.13-.33 1.63.04.25.13.66.27 1.24.07.3-.01.62-.26.97a.36.36 0 0 0-.05.12 2.5 2.5 0 0 1-.32.74.65.65 0 0 1-.49.3.61.61 0 0 1-.6-.26Z" fill="#D9302B"/><path d="M8.6 4.42c-.19.16-.39.28-.6.36a.09.09 0 0 1-.08-.01.12.12 0 0 1-.04-.06v-.05l.03-.04.13-.08c.2-.08.38-.12.56-.12Z" fill="#F1C159"/><path d="M8.9 4.45c-.08.05-.12.1-.11.18 0 .05.03.07.08.06.09-.01.15-.04.19-.1a.16.16 0 0 1 .1-.07c.05 0 .1 0 .15.04.22.14.43.22.6.24.15.02.17-.02.09-.12l-.05-.08c.28.15.6.2.96.12l.81-.16c.47-.1.68-.03 1.01.28.03.02.07.04.11.04.22 0 .36.01.43.05.28.2.25.27-.1.25-.09 0-.25-.04-.48-.12a.64.64 0 0 0-.63.1.16.16 0 0 0-.06.12c-.01.1.03.21.13.33.05.07.05.13 0 .2a.56.56 0 0 0-.07.14.54.54 0 0 0-.04.15c0 .31-.03.74-.1 1.3 0 .04 0 .08.02.12a.8.8 0 0 1 .1.38c-.01.04 0 .08.01.12l.13.33a.6.6 0 0 1-.14-.15 3.08 3.08 0 0 1-.04-.36c0-.3-.1-.33-.27-.07a.75.75 0 0 1-.14.1c-.04.03-.07.03-.1 0a.57.57 0 0 0-.4-.18l.26-.07c.01 0 .02-.01.02-.03v-.04a.05.05 0 0 0-.05-.04h-.16l.66.03h.03l.02-.04.1-.87a.03.03 0 0 0-.02-.03l-.03-.02c-.05-.04-.08-.04-.1 0l-.12.44c0 .04-.04.06-.08.06l-.81.06c.09-.36.1-.74.06-1.16a.12.12 0 0 0-.04-.08.13.13 0 0 0-.08-.03L7.22 5.8a.18.18 0 0 0-.12.05.16.16 0 0 0-.05.11L7.03 7c0 .04 0 .07.02.1.05.09.12.16.2.23a.13.13 0 0 1 .05.1.12.12 0 0 1-.05.1c-.14.1-.2.24-.2.41.02.43 0 .87-.04 1.32-.08.02-.19 0-.3-.07-.04-.03-.07-.03-.1 0a.76.76 0 0 0-.2.47c0 .03.02.05.04.07.03.03.07.03.1.01l.02-.01.16-.28a.15.15 0 0 1 .04-.05.14.14 0 0 1 .07-.03l.17-.02c.1.05.17.1.22.19a.1.1 0 0 1 0 .12c-.07.1-.15.2-.17.32-.05.47-.05.78 0 .93.05.2.18.27.38.2.24-.09.43-.12.57-.09l.1.16c.03.04.02.08-.03.1h-.06a.86.86 0 0 0-.44.28c-.1.11-.07.15.08.12.09-.03.16.03.21.15l.03.04h.04l.29.01c.07 0 .12.04.16.1l.04.06c.04.07.02.12-.07.13-.23.02-.41-.14-.61-.15-.25-.02-.46.09-.69.08-.15 0-.36.04-.65.13a.14.14 0 0 0-.09.08c-.09.19-.22.28-.4.28-.05 0-.08-.03-.1-.08l-.14-.45a.12.12 0 0 1 .01-.1c.17-.26.26-.54.27-.84 0-.04.02-.08.03-.1a.1.1 0 0 1 .06-.03c.04 0 .07.01.08.05.02.03.05.05.1.04.05 0 .08-.02.07-.07l-.01-.03a.05.05 0 0 0-.04-.02h-.16c-.05 0-.08-.03-.1-.07a.75.75 0 0 1 .05-.46v-.03l-.08-1.09a.1.1 0 0 0-.06-.08.14.14 0 0 1-.06-.08l-.03-.1c-.02-.06 0-.11.05-.15.03-.02.04-.04.03-.08-.03-.14-.1-.21-.2-.2-.04 0-.05-.02-.03-.06l.32-.72a.1.1 0 0 0 0-.08c-.1-.22-.05-.46.15-.74.1-.07.14-.12.13-.16a1.63 1.63 0 0 0-.37-.7l-.02-.35c0-.04 0-.08.04-.11.09-.1.15-.2.2-.3a.3.3 0 0 1 .22-.18 2.2 2.2 0 0 1 1.56.21c.05.03.07.02.05-.04l-.03-.1a.1.1 0 0 0-.07-.07c-.24-.08-.48-.15-.73-.21a.65.65 0 0 1-.22-.14c-.04-.04-.07-.08-.07-.11v-.1c.03-.03.06-.05.1-.03.4.11.76.08 1.12-.1l-.13.1a.07.07 0 0 0-.03.03v.05c0 .02.02.04.04.06a.09.09 0 0 0 .08 0c.21-.07.41-.19.6-.35.06.03.16.04.3.03Z" fill="#C2682D"/><path d="m9.95 4.6.05.08c.08.1.06.14-.08.12-.18-.02-.39-.1-.61-.24a.2.2 0 0 0-.14-.04.16.16 0 0 0-.11.07c-.04.06-.1.09-.2.1-.04 0-.07-.01-.07-.06 0-.07.03-.13.11-.18.39-.03.74.02 1.05.15Z" fill="#F1C159"/><path d="M10.8 7.14c-.14.14-.16.26-.04.38.03.03.07.04.11.03l.3-.05.15.01c.03 0 .04.02.05.04v.04c0 .02 0 .03-.02.03l-.26.08c-.14-.06-.2-.03-.21.09l-.02 1.48c0 .05-.03.08-.06.11-.18.14-.19.28-.04.42.03.04.05.07.05.12.04.56.02 1-.06 1.31a.1.1 0 0 1-.08.08c-.07.02-.12 0-.15-.07a.16.16 0 0 0-.09-.09l-.41-.17a.1.1 0 0 0-.1.02l-.17.13a.15.15 0 0 1-.1.03l-1.01-.1a.2.2 0 0 0-.12.02.42.42 0 0 1-.51-.06 1.1 1.1 0 0 0-.57.09c-.2.07-.33 0-.38-.2a2.96 2.96 0 0 1 0-.93c.02-.13.1-.21.17-.32a.1.1 0 0 0 0-.12.47.47 0 0 0-.22-.19v-.1c.05-.44.06-.88.05-1.3-.01-.18.05-.32.19-.43a.13.13 0 0 0 .05-.1.12.12 0 0 0-.05-.1.83.83 0 0 1-.2-.22.2.2 0 0 1-.02-.1l.02-1.03a.16.16 0 0 1 .05-.12.17.17 0 0 1 .12-.05l3.53.07c.03 0 .06.01.08.03.03.02.04.05.04.08.05.42.03.8-.06 1.16Z" fill="#003D86"/><path d="M6.13 7.02c-.25-.2-.32-.48-.24-.86.18.2.3.43.37.7 0 .04-.03.1-.13.16ZM11.16 7.5l-.29.05c-.04.01-.08 0-.11-.03-.12-.12-.1-.24.05-.38l.81-.06c.04 0 .07-.02.08-.06l.13-.44c0-.04.04-.04.1 0l.02.02a.03.03 0 0 1 .01.03l-.09.87c0 .01 0 .03-.02.03a.05.05 0 0 1-.03.01l-.66-.04ZM12.04 8.2l-.09.13c.03-.16-.03-.26-.17-.28a.48.48 0 0 0-.29.04c-.12.05-.23.1-.35.12a.08.08 0 0 0-.04.02.08.08 0 0 0-.02.04.07.07 0 0 0 .04.08l.05.03c.03.02.06.03.1.03l.3-.03c.04 0 .07.02.08.07l.04.6c0 .04-.02.08-.06.09-.06.01-.14-.02-.24-.1-.04-.03-.05-.02-.04.03.02.1.07.17.17.2h.11c.02 0 .02 0 0-.02l-.01-.02.27-.2c.18-.15.23-.1.13.12a.7.7 0 0 0-.06.22c0 .06-.03.13-.08.21a2.8 2.8 0 0 0-.2.66c0 .05 0 .08.03.12.1.1.15.28.15.53 0 .04.02.08.04.12.08.12.09.23.03.34a.11.11 0 0 0 0 .12c.29.46.24.88-.14 1.26a.26.26 0 0 0-.07.24c.07.3 0 .51-.22.65a.97.97 0 0 1-.73.1.69.69 0 0 1-.13-.38c-.02-.26.1-.57.15-.86.17.33.46.33.85 0a.12.12 0 0 0 0-.2.13.13 0 0 0-.07-.01.5.5 0 0 0-.14 0 .29.29 0 0 1-.13.01c-.37-.1-.63-.17-.8-.24a.66.66 0 0 0-.46-.01c-.49.16-.85.26-1.1.3a.54.54 0 0 1-.44-.1l-.02-.02a.06.06 0 0 1 .01-.07l.03-.01c.23-.07.46-.1.7-.09a.2.2 0 0 0 .12-.03.74.74 0 0 1 .39-.13c.04 0 .08-.01.11-.03l.38-.22c.05-.02.06-.06.02-.1-.1-.13-.2-.2-.28-.2a2.75 2.75 0 0 1-.56-.09.12.12 0 0 0-.1.01l-.33.19a.06.06 0 0 0-.03.03v.1c0 .04 0 .06.06.06l.25-.02c.16-.01.18.03.05.12-.18.14-.42.17-.7.11a.1.1 0 0 1-.07-.04.09.09 0 0 1 0-.08l.05-.1a.1.1 0 0 1 .08-.06c.13-.02.2-.08.2-.2a.12.12 0 0 0-.07-.1.13.13 0 0 0-.13 0 .67.67 0 0 0-.3.38.1.1 0 0 1-.1.07c-.02 0-.04 0-.07-.02a.12.12 0 0 1-.08-.09c-.01-.07.01-.14.07-.2.04-.04.03-.07-.02-.1a.27.27 0 0 0-.14-.01l.06-.02c.05-.01.06-.05.03-.09l-.1-.16c.15.14.32.16.51.06a.2.2 0 0 1 .12-.02l1 .1a.15.15 0 0 0 .11-.03l.16-.13a.1.1 0 0 1 .11-.02l.41.17c.04.02.07.05.09.09.03.06.08.09.15.07a.1.1 0 0 0 .08-.08c.08-.31.1-.75.06-1.31a.18.18 0 0 0-.05-.12c-.15-.14-.14-.28.04-.42a.14.14 0 0 0 .06-.1l.02-1.5c0-.1.07-.14.21-.08.17 0 .3.06.4.17.03.03.06.03.1 0 .08-.05.13-.08.14-.1.18-.26.27-.23.27.07l.04.36Z" fill="#DA7931"/><path d="M12.04 8.2a.6.6 0 0 0 .14.15c.06.21.03.33-.1.35a.17.17 0 0 1-.14-.06.16.16 0 0 1-.04-.15l.05-.16.09-.13Z" fill="#F1C159"/><path d="M7.01 9.26v.1l-.17.01a.15.15 0 0 0-.11.08l-.16.28-.02.01c-.03.02-.07.02-.1 0a.08.08 0 0 1-.03-.08.76.76 0 0 1 .19-.46c.03-.04.06-.04.1-.01.11.07.22.1.3.07Z" fill="#80472A"/><path d="M7.02 12.56c.24.48.34 1.3-.4 1.37.05-.04.1-.1.13-.15.02-.06 0-.09-.06-.09h-.1a.15.15 0 0 1-.12-.05l-.3-.3c-.1-.07-.13-.23-.09-.46 0-.04.03-.07.07-.1a.69.69 0 0 1 .46-.04c.04.01.08 0 .12-.02l.29-.16Z" fill="#C2682D"/><path d="M8.72 4.87c.11.09.25.12.42.09a.1.1 0 0 1 .08.03.09.09 0 0 1 .02.09l-.19.4a.07.07 0 0 1-.05.04h-.03a.06.06 0 0 1-.03-.02.9.9 0 0 1-.15-.37.22.22 0 0 0-.07-.1l-.13-.14c-.05-.04-.04-.07 0-.09h.07c.02 0 .03.01.03.02v.02l.03.03Z" fill="#F1C159"/><path d="M7.26 11.37c.03.06.08.1.1.09.03-.02.02-.08-.02-.14-.04-.06-.09-.1-.11-.09-.02.02-.01.08.03.14Z" fill="#80472A"/><path d="M8.09 6.82c.13-.03.21-.12.2-.18-.03-.07-.15-.09-.28-.05-.12.04-.21.12-.2.19.03.06.15.08.28.04ZM8.32 7.16h-.04c-.02 0-.03.02-.03.04l-.02.83c0 .07-.04.1-.1.11h-.04A.1.1 0 0 1 8 8.12a.1.1 0 0 1-.03-.07l.01-.68c0-.06-.02-.08-.08-.08l-.4.03H7.5l-.02-.02a.05.05 0 0 1 0-.05l.02-.07a.11.11 0 0 1 .08-.06L8.14 7c.04 0 .08 0 .12.02.05.03.1.02.16-.02.05-.03.09-.03.12 0l.16.13h.01a.04.04 0 0 0 .04-.01V7.1l.01-.08c0-.02 0-.03-.02-.04-.1-.06-.15-.13-.15-.2-.01-.09.02-.14.09-.17a.1.1 0 0 1 .06 0c.02 0 .03.02.04.03.07.1.17.17.3.2.04.02.06.04.06.08l-.01.55c0 .04 0 .08.03.11l.05.15c0 .06-.02.1-.09.1l-.65.05a.09.09 0 0 1-.07-.02.08.08 0 0 1-.02-.07c.02-.2.14-.26.36-.22a.1.1 0 0 0 .1-.04.1.1 0 0 0 0-.1l-.07-.12c-.02-.04-.06-.05-.1-.02-.1.06-.2.03-.29-.1a.07.07 0 0 0-.06-.03Z" fill="#F7D987"/><path d="m9.77 7.74-.04.35a.08.08 0 0 1-.03.05.08.08 0 0 1-.06.02c-.12-.01-.19-.08-.19-.22 0-.52-.02-.88-.04-1.07-.02-.16.05-.23.22-.21l.33.03c.08 0 .15.04.2.1.07.04.1.11.12.19.06.33-.08.55-.42.65a.14.14 0 0 0-.06.04.13.13 0 0 0-.03.07Z" fill="#F1C159"/><path d="M8.65 8.97c-.12-.07-.18-.12-.17-.15l.33-.19a.1.1 0 0 1 .12 0c.14.1.28.2.47.21l.51.02c.05 0 .08.02.11.05.07.1.09.2.06.32s-.07.13-.13.01c-.1-.18-.26-.26-.48-.23h-.13a1.4 1.4 0 0 0-.69-.04Z" fill="#F7D987"/><path d="M8.48 8.82c-.01.03.05.08.17.15-.47.01-.74.1-.82.28-.07.13-.11.12-.14-.01-.04-.15-.02-.26.06-.34a.16.16 0 0 1 .11-.06l.62-.02Z" fill="#F1C159"/><path d="m8.79 9.52.28.03a.1.1 0 0 1 .08.04.1.1 0 0 1 0 .09c-.04.09-.05.16-.03.21.01.03.04.05.07.06l1.05.1c.06 0 .08.04.06.1a.16.16 0 0 1-.05.08.36.36 0 0 1-.11.06.2.2 0 0 1-.1.01 5.38 5.38 0 0 0-2.4 0 .07.07 0 0 1-.06-.07v-.07a.1.1 0 0 1 .04-.07.11.11 0 0 1 .07-.03l.52-.04a.1.1 0 0 0 .07-.04.1.1 0 0 0 .03-.07l-.04-.47a.1.1 0 0 1 .05-.1l.45-.25a.16.16 0 0 1 .13-.01c.19.05.37.14.54.26.05.04.08.1.07.18 0 .05-.02.07-.07.06-.16-.01-.26-.09-.3-.22a.1.1 0 0 0-.04-.05.1.1 0 0 0-.06-.01c-.12 0-.21.05-.29.14-.04.04-.03.07.04.08Z" fill="#F7D987"/><path d="m11.5 8.81-.14.12c-.05.05-.1.04-.13-.02l-.05-.08a.07.07 0 0 1 .02-.1h.03c.19-.04.28-.03.28.02a.2.2 0 0 1 0 .04l-.01.02Z" fill="#80472A"/><path d="M9.72 6.91c0-.02.01-.03.03-.04a.07.07 0 0 1 .05-.02h.02a.3.3 0 0 1 .2.1c.05.05.08.13.07.2v.03a.27.27 0 0 1-.1.2.3.3 0 0 1-.21.06h-.03a.07.07 0 0 1-.05-.03.07.07 0 0 1-.01-.05l.03-.45ZM8.48 9.56l-.03.02a.12.12 0 0 0-.06.16l.07.13c.03.06.1.08.17.05l.02-.01c.06-.03.09-.1.06-.16l-.07-.13a.12.12 0 0 0-.16-.06Z" fill="#003D86"/></svg>