<!-- by TradingView --><svg width="18" height="18" viewBox="0 0 18 18" xmlns="http://www.w3.org/2000/svg"><path fill="#F0F3FA" d="M0 0h18v18H0z"/><path d="M10.56 11c-.21 0-.38-.23-.38-.44s.17-.44.38-.44h2.27c.25 0 .45-.03.45-.28s-.2-.4-.45-.4h-2.27c-.21 0-.38-.23-.38-.44s.17-.44.38-.44h2.27c.25 0 .45-.15.45-.4s-.2-.28-.45-.28h-2.27c-.21 0-.38-.23-.38-.44s.17-.44.38-.44h2.23c.67 0 1.21.49 1.21 1.16 0 .33-.13.62-.33.84.2.22.33.51.33.84 0 .67-.54 1.16-1.21 1.16h-2.23Z" fill="#C0CE42"/><path d="M7.44 7c.21 0 .38.23.38.44s-.17.44-.38.44H5.17c-.25 0-.45.03-.45.28s.2.4.45.4h2.27c.21 0 .38.23.38.44s-.17.44-.38.44H5.17c-.25 0-.45.15-.45.4s.2.28.45.28h2.27c.21 0 .38.23.38.44s-.17.44-.38.44H5.21C4.54 11 4 10.51 4 9.84c0-.33.13-.62.33-.84-.2-.22-.33-.51-.33-.84C4 7.5 4.54 7 5.21 7h2.23Z" fill="#55B0C5"/><path d="M11 7.44c0 .21-.23.38-.44.38s-.44-.17-.44-.38V5.17c0-.25-.03-.45-.28-.45s-.4.2-.4.45v2.27c0 .21-.23.38-.44.38s-.44-.17-.44-.38V5.17c0-.25-.15-.45-.4-.45s-.28.2-.28.45v2.27c0 .21-.23.38-.44.38S7 7.65 7 7.44V5.21C7 4.54 7.49 4 8.16 4c.33 0 .62.13.84.33.22-.2.51-.33.84-.33.67 0 1.16.54 1.16 1.21v2.23Z" fill="#C0CE42"/><path d="M7 10.56c0-.21.23-.38.44-.38s.44.17.44.38v2.27c0 .25.03.45.28.45s.4-.2.4-.45v-2.27c0-.21.23-.38.44-.38s.44.17.44.38v2.27c0 .25.15.45.4.45s.28-.2.28-.45v-2.27c0-.21.23-.38.44-.38s.44.17.44.38v2.23c0 .67-.49 1.21-1.16 1.21-.33 0-.62-.13-.84-.33-.22.2-.51.33-.84.33C7.5 14 7 13.46 7 12.79v-2.23Z" fill="#55B0C5"/></svg>