<!-- by TradingView --><svg width="18" height="18" viewBox="0 0 18 18" xmlns="http://www.w3.org/2000/svg"><path fill="#F0F3FA" d="M0 0h18v18H0z"/><path d="M7 12c0-1.1.95-2 2.06-2 1.1 0 1.94.85 1.94 1.95C11 13.1 10.1 14 8.96 14A1.95 1.95 0 0 1 7 12Zm2.06 1.78c.9 0 1.27-.8 1.27-1.6 0-.84-.38-2-1.39-2-.95 0-1.27.82-1.27 1.83 0 .99.52 1.77 1.39 1.77ZM9 3l1.37 4.5L9 8.5l-1.39-1L9 3Zm1.73 4.5h1.77l-2.23 1.79a2.85 2.85 0 0 0-2.6 0L5.47 7.5h1.78L9 8.85l1.73-1.35Zm2.27 0h2L11.25 10c-.2-.26-.42-.38-.68-.57L13 7.5ZM7.41 9.43c-.26.17-.46.33-.66.57L3 7.5h2c-.02 0 2.41 1.93 2.41 1.93Z" fill="#003164"/><path d="M8.76 13.2c.16-.09.18-.4.03-.72-.15-.31-.4-.5-.56-.4-.17.08-.18.4-.03.7.14.32.4.5.56.42ZM9.8 12.79c.14-.31.13-.63-.04-.72-.16-.08-.41.1-.56.41-.15.31-.13.63.03.72.16.08.42-.1.56-.41ZM8.76 11.96c.16-.08.18-.39.03-.68-.15-.3-.4-.48-.56-.4-.17.08-.18.4-.03.69.14.3.4.47.56.4ZM9.8 11.56c.15-.3.14-.6-.03-.69-.16-.08-.41.1-.56.4-.15.3-.13.6.03.68.16.08.42-.1.56-.39ZM8.78 10.64c.15-.08.17-.38.03-.67-.14-.3-.37-.47-.53-.39-.15.08-.17.38-.03.67.14.3.37.47.53.39ZM9.74 10.26c.14-.29.12-.59-.03-.67-.15-.08-.4.1-.53.38-.14.3-.12.6.03.67.16.08.4-.09.53-.38ZM8.8 9.27c.15-.08.16-.35.04-.6-.12-.26-.33-.41-.47-.34-.14.08-.16.35-.04.6.12.26.33.41.47.34ZM9.67 8.92c.12-.25.1-.52-.03-.6-.15-.07-.36.08-.48.33-.12.26-.1.53.04.6.14.08.35-.07.47-.33ZM8.8 8.07c.14-.07.16-.33.03-.58-.12-.24-.33-.39-.47-.32-.13.07-.15.33-.03.57.12.25.34.4.47.33ZM9.67 7.73c.12-.24.1-.5-.03-.57-.14-.07-.35.08-.47.32-.12.25-.1.5.03.58.14.07.35-.08.47-.33ZM9.33 6.3c0-.35-.15-.63-.33-.64-.18 0-.33.28-.33.63s.15.64.33.64c.18 0 .33-.28.33-.63Z" fill="#FBC142"/></svg>