<!-- by TradingView --><svg width="18" height="18" viewBox="0 0 18 18" xmlns="http://www.w3.org/2000/svg"><path fill="#F0F3FA" d="M0 0h18v18H0z"/><path d="M15 5a1 1 0 1 1-2 0 1 1 0 0 1 2 0Zm-2.24 5.52a4.95 4.95 0 0 0-.01-3.08c-.02-.06-.05-.07-.08-.01-.45.7-.95 1.5-1.5 2.44-.2.31-.61.5-.97.35a.72.72 0 0 1-.28-.2A135.92 135.92 0 0 1 9 8.76a.03.03 0 0 0-.02.01 175.66 175.66 0 0 1-.56 1.64c-.12.35-.2.56-.52.7a.68.68 0 0 1-.42.04c-.2-.04-.34-.1-.4-.2a85.64 85.64 0 0 1-.65-.78l-.02.02-.41 1.31a.72.72 0 0 1-.5.5c-.63.18-1.14-.4-.94-1l.8-2.56c.06-.2.12-.34.2-.42a.77.77 0 0 1 .92-.18c.09.05.2.16.34.32a34.23 34.23 0 0 1 .51.64.03.03 0 0 0 .03-.02l.62-1.82c.07-.2.14-.35.23-.44.34-.36.9-.28 1.19.12a166.68 166.68 0 0 1 1.03 1.45.03.03 0 0 0 .02-.02l1.37-2.23c.02-.02.02-.05 0-.07a5.03 5.03 0 0 0-6.26-1.14 5 5 0 1 0 7.19 5.89Z" fill="#E2740E"/></svg>