<!-- by TradingView --><svg width="18" height="18" viewBox="0 0 18 18" xmlns="http://www.w3.org/2000/svg"><path fill="#F0F3FA" d="M0 0h18v18H0z"/><path d="m9.77 5-.56-.85a.1.1 0 0 1 .1-.15c2.65.3 4.2 1.71 4.68 4.25a.53.53 0 0 1-.22.53l-.78.51a.22.22 0 0 1-.25 0l-.8-.55a.39.39 0 0 1-.15-.2c-.44-1.31-.8-2.1-2.34-2.43-.13-.02-.16-.1-.1-.2l.42-.65a.24.24 0 0 0 0-.26Z" fill="#E26A28"/><path d="m5.03 8.24-.8.53c-.18.12-.25.07-.22-.13.33-2.7 1.83-4.24 4.5-4.62.09 0 .16.02.2.1l.58.87c.06.1.06.18 0 .27l-.45.7a.3.3 0 0 1-.2.14c-1.43.26-2.22 1.15-2.37 2.67a.08.08 0 0 1-.05.07.09.09 0 0 1-.08-.01l-.85-.58a.23.23 0 0 0-.26 0Z" fill="#21849B"/><path d="m8.26 12.99.58.88a.08.08 0 0 1-.07.13c-2.73-.28-4.31-1.76-4.75-4.43a.27.27 0 0 1 .12-.27l.91-.6a.21.21 0 0 1 .24 0l.89.63c.06.04.1.1.12.18.23 1.35 1 2.15 2.3 2.39.14.02.17.1.1.2l-.44.65a.2.2 0 0 0 0 .24Z" fill="#3E3538"/><path d="m13.04 9.73.82-.53a.09.09 0 0 1 .12.02l.02.05c0 .4-.05.79-.16 1.15-.62 2.05-2.04 3.24-4.26 3.55a.29.29 0 0 1-.29-.13l-.54-.88a.18.18 0 0 1 0-.2l.43-.69a.3.3 0 0 1 .18-.13c.41-.12.84-.21 1.2-.47a2.73 2.73 0 0 0 1.18-2.15.13.13 0 0 1 .14-.12c.02 0 .04 0 .06.02l.83.51c.1.06.18.06.27 0Z" fill="#B5C2B0"/></svg>