<!-- by TradingView --><svg width="18" height="18" viewBox="0 0 18 18" xmlns="http://www.w3.org/2000/svg"><path fill="#F0F3FA" d="M0 0h18v18H0z"/><path fill-rule="evenodd" d="M5 4.59C5.96 4.29 7.4 4 9.12 4c1.92 0 3.36.37 4.2.7.44.17.79.5.97.91.34.74.7 1.95.7 3.47 0 1.51-.36 2.65-.68 3.32-.2.4-.55.69-.97.85-.88.34-2.4.75-4.22.75-1.63 0-3.13-.32-4.15-.64a2.25 2.25 0 0 1-1.51-1.42 9.22 9.22 0 0 1 .02-5.88c.22-.7.78-1.25 1.5-1.47Zm.33.41c.9-.27 2.22-.53 3.79-.53 1.76 0 3.08.33 3.85.63.4.15.72.45.9.83.3.66.63 1.76.63 3.15 0 1.36-.33 2.39-.63 3-.17.36-.5.62-.88.77-.81.31-2.2.68-3.87.68-1.5 0-2.87-.3-3.8-.58a2.06 2.06 0 0 1-1.39-1.28 8.27 8.27 0 0 1 .02-5.34c.2-.63.71-1.13 1.38-1.33Zm.65 2 .93 2.54.68-1.75L7.25 7H5.98Zm.08 1.07.7 1.86L6.4 11H5l1.06-2.93Zm2.36 1.86-.7-1.86L6.66 11h1.4l.36-1.07ZM7.56 7 9 10.91V7H7.56ZM10 7v.4h1.15c.3 0 .52.26.52.6 0 .34-.22.6-.52.6H10V11h1V9h1.1c.5 0 .9-.44.9-1 0-.55-.4-1-.9-1H10Z" fill="#DB261D"/></svg>