<!-- by TradingView --><svg width="18" height="18" viewBox="0 0 18 18" xmlns="http://www.w3.org/2000/svg"><path fill="#F0F3FA" d="M0 0h18v18H0z"/><path fill-rule="evenodd" d="M8 15h3s-.5-.88-.5-1.95c0-1.22.76-1.3 1.32-1.35.24-.02.44-.04.53-.14a.83.83 0 0 0 .18-.3c.04-.1.05-.14.31-.26 0 0 .47-1.06.57-.34 0 .26.17.34.38.34.4 0 .98-.32.98-.69 0-.14.06-.31.12-.48.06-.15.11-.3.11-.4 0-.54-1.02-.7-1.46-.71-1.3-.03-.78-.6.1-.36.42.12 1.36-1.08 1.36-1.08l-.52.04c-.14.02-.2.02-.2.01l.06-.03c.14-.07.5-.26.5-.67 0-.18-.65-.63-.86-.63h-.27c-.24 0-.87-.07-.87-.37 0-.13.18-.2.36-.28.25-.1.52-.2.44-.48-.14-.49-.53-.87-1.51-.87-.5 0-.66-.25-.82-.5-.17-.25-.33-.5-.81-.5-.62 0-.78.12-.9.2-.06.04-.11.08-.22.08-.2 0-.63.05-1.1.1-.55.06-1.15.12-1.47.12-.4 0-.7.5-.94.89-.1.17-.2.33-.28.42a2 2 0 0 1-.43.06c-.23.02-.46.03-.65.19-.06.05-.07.13-.08.2-.02.08-.03.16-.12.18C4.14 5.47 3 6.21 3 6.63c0 .86.13 1.66 1.06 1.77.08-.01.21-.06.37-.12.32-.12.77-.28 1.16-.28.55 0 .76-.15.82-.22-.03.07-.08.25-.08.62 0 .5-.25.6-.46.6l-.16-.02c-.19-.04-.44-.09-.44.04 0 .11.09.16.17.2.08.03.16.07.16.17 0 .2-.16.66-1.07.49-.9-.18-1.53.35-1.53 1.17 0 .62.53.36.81.16.14-.1.18.05.24.24.07.24.16.55.48.55.49 0 .76-.5.84-.65a.19.19 0 0 1 .03-.04c.38-.07.46.05.57.22.1.15.21.34.57.47.44 1.48 1.36 1.42 1.45 1.41H8V15ZM6.43 7.75l-.02.03.02-.03ZM5.16 6.56 5 6.42l1.1-.1 1.19.54.12-.23.8-.4 1.16-.48.63.48-.85.46-1.74.54-1.43-.67h-.82Zm1.65 4.86s-.07-.21-.06-.3c0-.12.14-.14.3-.17.14-.02.3-.05.37-.16l.02-.03c.04-.07.07-.13.19-.1.38.13.6.16 1.01.16L9 12.2s-.23 0-.36.06c-.13.06-.27.27-.27.27-.19-.2-.57-.58-.65-.56-.2.04-.36-.13-.52-.29-.13-.12-.26-.25-.4-.26Zm.7-3.93-.14.03.05.27 1.11.8.2-.16.12-.64.31-.06.06.61.32-.06.15-.58-.51-.4-.63.11a1.3 1.3 0 0 0 0 .28c0 .12 0 .25-.02.31H8.3l-.8-.5ZM10 10.81c.08 0 .44-.16.53-.23h.11l.58.6c.2-.18.59-.56.6-.64.01-.08-.12-.36-.2-.5 0-.07-.04-.2-.09-.2h-.18l.18-.42H12c.03 0 .08.07.14.14.04.05.07.1.1.12l-.29.26c-.04.03.15.25.24.36l.54-.55v-.63l-.07-.06c-.2-.17-.6-.5-.7-.5-.08 0-.22.1-.35.17l-.25.13L10 9.94v.87Z" fill="#054565"/></svg>