<!-- by TradingView --><svg width="18" height="18" viewBox="0 0 18 18" fill="none" xmlns="http://www.w3.org/2000/svg">
<rect width="18" height="18" fill="#F0F3FA"/>
<path fill-rule="evenodd" clip-rule="evenodd" d="M12.6133 8.94054C11.948 5.01081 8.48684 5 8.16074 5C5.15789 5 4 8.9027 4 10.0541C4 11.2054 4.99788 11.4 5.313 11.4C5.62812 11.4 6.17105 11.1331 6.17105 11.1331C6.70792 11.9764 7.67639 13 8.48753 13C9.29867 13 10.1273 12.2757 10.6759 11.7405C11.2244 11.2054 12.2865 10.5946 12.2865 10.5946C12.73 11.1405 13.366 11.4 13.9146 11.4054C14.5156 11.4108 15 11.1189 15 10.573C15 9.52973 12.6133 8.94054 12.6133 8.94054ZM12 8.73281H11.2993C10.3684 8.73281 8.50118 8.83387 6.60527 10.333C6.60527 10.333 6.33392 9.45259 6.3169 8.44642C6.2942 7.16137 6.60527 5.53244 8.18959 5.53244C11.0921 5.53244 12 8.73281 12 8.73281ZM6 10.4665C5.22368 8.71139 5.73684 7.00002 5.73684 7.00002C4.73026 8.25519 4.58553 9.32302 4.57895 9.86551C4.57895 10.4452 4.94079 10.5942 5.30263 10.5995C5.66448 10.6048 6 10.4665 6 10.4665ZM13 9.79943C13 9.79943 12.5548 9.26603 10.8679 9.26603C9.18089 9.26603 7 10.9999 7 10.9999C7 10.9999 7.58698 12.4664 8.58754 12.4664C9.0527 12.4664 9.41542 12.1676 9.96034 11.7188C10.5875 11.2023 11.4561 10.4869 13 9.79943ZM13 10.333C13 10.333 13.3382 9.99283 13.7196 10C13.9838 10.005 14.2562 10.2446 14.4211 10.5997L14.4193 10.6013C14.3357 10.6783 14.1428 10.8562 13.8421 10.8664C13.6142 10.8741 13.3508 10.8278 13 10.333Z" fill="#D40E21"/>
</svg>
