<!-- by TradingView --><svg width="18" height="18" viewBox="0 0 18 18" xmlns="http://www.w3.org/2000/svg"><path fill="#FFC325" d="M0 0h18v18H0z"/><ellipse cx="9" cy="9" rx="7" ry="3" fill="#006891"/><path d="m4.48 7-.88 4h.88l.54-2.44V11h.72l1.1-2.44-.5 2.44h.82L8 7H6.7l-.95 2.32V7H4.48ZM11.3 7l-.86 4h.82l.45-2.19.57 2.19h.87l.87-4h-.87l-.56 2.24L12.2 7h-.89Z" fill="#fff"/><path d="m8.1 8 .27-1h2.7l-.28 1H8.1Zm.47 2 .52-2h.9l-.49 2h-.93Z" fill="#FFC325"/><path d="m8.5 10.4-.15.6h.95l.1-.6h-.9Z" fill="#F43E2F"/></svg>