<!-- by TradingView --><svg width="18" height="18" viewBox="0 0 18 18" xmlns="http://www.w3.org/2000/svg"><path fill="#F0F3FA" d="M0 0h18v18H0z"/><path d="M8 5.9a12 12 0 0 1-.7-1.01A8.01 8.01 0 0 0 5.15 12l2.36-.87c-.12 0-.4-.04-.6-.15.03-.2.41-.57.6-.73l.16-.56c-.01-.96.02-3.07.33-3.78Z" fill="url(#a1doc0pxk)"/><path d="M14 12H4c.62.67 2.46 2 4.9 2a7.97 7.97 0 0 0 5.1-2Z" fill="url(#b1doc0pxk)"/><path d="M14 9.7C11.64 8.67 10.3 5.47 9.93 4c-1.75 1.67-2 4.57-1.91 5.8l.95.84-.75.35c-.03.12-.02.44.23.79.75-.85 4.28-1.94 5.55-2.08Z" fill="url(#c1doc0pxk)"/><defs><linearGradient id="a1doc0pxk" x1="3.7" y1="8.49" x2="6.84" y2="11.41" gradientUnits="userSpaceOnUse"><stop offset=".3" stop-color="#EE1722"/><stop offset="1" stop-color="#F88D2E"/></linearGradient><linearGradient id="b1doc0pxk" x1="4" y1="13" x2="14" y2="13" gradientUnits="userSpaceOnUse"><stop stop-color="#004496"/><stop offset=".56" stop-color="#00ACE1"/><stop offset="1" stop-color="#0057A0"/></linearGradient><linearGradient id="c1doc0pxk" x1="11" y1="4" x2="9.29" y2="11.95" gradientUnits="userSpaceOnUse"><stop offset=".38" stop-color="#00388A"/><stop offset="1" stop-color="#00B0E9"/></linearGradient></defs></svg>