<!-- by TradingView --><svg width="18" height="18" viewBox="0 0 18 18" xmlns="http://www.w3.org/2000/svg"><path fill="#F0F3FA" d="M0 0h18v18H0z"/><path d="M8.98 10.72h.03l.02-.01.86-1.52a.13.13 0 0 0 0-.13 8.67 8.67 0 0 1-.86-2.05h-.05a.05.05 0 0 0-.02.02c-.2.71-.48 1.39-.85 2.03a.13.13 0 0 0 0 .13l.85 1.52h.02ZM11.56 9.87l-.33.6c0 .02 0 .02-.02.03a.05.05 0 0 1-.07-.02l-.75-1.38a.1.1 0 0 1-.01-.08l.4-1a.02.02 0 0 1 0-.01h.02l.77 1.77a.11.11 0 0 1 0 .1ZM6.42 9.82l.01.05.33.6c0 .01 0 .02.02.02a.05.05 0 0 0 .05 0s.02 0 .02-.02l.76-1.36a.1.1 0 0 0 0-.08l-.39-1a.01.01 0 0 0 0-.01H7.2l-.77 1.75a.1.1 0 0 0-.01.05Z" fill="#018383"/><path d="M13.95 12.54C15.26 11.6 16 10.33 16 9s-.74-2.6-2.05-3.54A8.62 8.62 0 0 0 9 4c-1.86 0-3.64.53-4.95 1.46C2.74 6.4 2 7.67 2 9s.74 2.6 2.05 3.54A8.62 8.62 0 0 0 9 14c1.86 0 3.64-.53 4.95-1.46Zm-4.77-1.26c-.08-.1-.14-.15-.18-.15-.04 0-.1.05-.18.15-.1.12-.2.22-.32.29-.06.04-.07.02-.04-.04.11-.2.2-.34.28-.4.09-.08.1-.16.03-.27l-.85-1.23c-.06-.08-.11-.08-.17 0l-.74 1.1c-.03.04-.03.08 0 .12l.51.69v.02a.06.06 0 0 1-.03 0 .1.1 0 0 1-.04 0l-.03-.01-.54-.57c-.05-.05-.1-.05-.14 0-.25.28-.44.47-.59.57-.12.09-.14.07-.05-.05l.52-.77c.02-.03.02-.06 0-.08l-.36-.52h-.01a.04.04 0 0 0-.04 0H6.2a7.92 7.92 0 0 1-1.3 1.48c-.02 0-.02-.02-.03-.03a.03.03 0 0 1 0-.03L6 9.88a.2.2 0 0 0 .02-.2L5.75 9c-.02-.07-.05-.07-.07 0-.33 1-.89 1.84-1.66 2.54h-.06l-.03-.04v-.02a6.5 6.5 0 0 0 1.3-2.18c.07-.2.2-.69.39-1.47 0-.03.03-.05.07-.07.04-.02.08 0 .12.06l.38 1.4c.04.14.09.15.14.01.28-.74.52-1.58.71-2.53a.5.5 0 0 1 .12-.25.1.1 0 0 1 .1-.03.1.1 0 0 1 .05.03l.03.05.46 1.84c.04.18.1.18.15.01.37-1.04.65-2.1.87-3.21.02-.1.08-.15.18-.15.1 0 .16.05.18.15.21 1.1.5 2.17.86 3.21.06.17.11.17.16 0l.46-1.85a.12.12 0 0 1 .02-.05.1.1 0 0 1 .05-.03.1.1 0 0 1 .1.03c.06.05.1.13.12.25.2.94.44 1.78.72 2.53.05.13.1.13.13-.01l.38-1.4c.05-.07.09-.09.13-.07.04.02.06.05.07.08.19.78.32 1.27.4 1.47a6.52 6.52 0 0 0 1.29 2.2l-.03.03c-.02.02-.04.02-.06 0A5.88 5.88 0 0 1 12.32 9c-.03-.06-.05-.06-.07 0l-.28.67a.2.2 0 0 0 .03.2l1.13 1.67v.03l-.02.04h-.03a7.9 7.9 0 0 1-1.31-1.5h-.02l-.02.02-.35.51c-.02.03-.02.06 0 .09l.52.76c.09.13.07.15-.05.06-.15-.1-.34-.3-.59-.57-.05-.05-.1-.05-.14 0l-.54.56-.03.02a.1.1 0 0 1-.04 0 .07.07 0 0 1-.02 0h-.01v-.02l.5-.7c.04-.03.04-.08 0-.12l-.74-1.1c-.05-.07-.1-.07-.16 0l-.85 1.24c-.07.1-.06.2.03.27.08.06.17.2.28.4.03.06.02.08-.04.04a1.4 1.4 0 0 1-.32-.29Z" fill="#018383"/></svg>