<!-- by TradingView --><svg xmlns="http://www.w3.org/2000/svg" width="18" height="18"><path fill="#F0F3FA" d="M0 0h18v18H0z"/><path fill-rule="evenodd" d="M5.5 11.93c.62 0 1.11-.3 1.28-.45a3.35 3.35 0 003.86-.19c.14.19.54.64 1.62.64 1.55 0 2.74-1.22 2.74-3.2a2.57 2.57 0 00-2.37-2.62c-.66 0-1.24.21-1.45.4-1.8-1-3.26-.3-3.76.18-.16-.2-.7-.58-1.58-.58C4.7 6.11 3 6.94 3 9.14c0 2.13 1.72 2.8 2.5 2.8zm.24-5.45a2.2 2.2 0 011.45.54c-.25.26-.83 1.15-1.26 1.97-.49.93-.9 1.52-1.1 1.7-.22.3-1.54.15-1.4-1.7.14-1.78 1.47-2.48 2.31-2.5zm5.07 4.5c.2.2.78.57 1.45.54.85-.03 2.17-.73 2.31-2.5.15-1.86-1.17-2-1.39-1.7-.2.17-.62.76-1.1 1.7-.44.82-1.02 1.7-1.27 1.96zM8.77 8.2l.75 1.13 1.4-2.38c-.82-.5-1.78.63-2.15 1.25zm-.3.46l.76 1.12c-.38.63-1.33 1.75-2.15 1.26l1.4-2.38z" fill="#E63631"/></svg>