<!-- by TradingView --><svg width="18" height="18" viewBox="0 0 18 18" xmlns="http://www.w3.org/2000/svg"><path fill="#F0F3FA" d="M0 0h18v18H0z"/><path d="m6.21 9.46-3.21 1 3.21-.62v-.38Z" fill="#00B8EC"/><path d="M11.3 10.58h1.29C11.7 11.18 9.4 12 6.76 12c-2.11 0-3.13-.75-3.37-1.13a5.6 5.6 0 0 0 3 .79c2.08 0 4.14-.72 4.9-1.08Z" fill="url(#a)"/><path d="M10 6.35c2.14 0 3.03.65 3.2.98-.67-.51-1.41-.7-2.51-.7a9.4 9.4 0 0 0-4.81 1.2l-.28-.5c.77-.37 2.55-.98 4.4-.98Z" fill="url(#b)"/><path d="M4.33 8.07v1.05c-.08.09-.23.37-.24.86l-1 .3A1.1 1.1 0 0 1 3 9.82c0-.84.91-1.52 1.33-1.76Zm-1.04 2.5c.78.87 2.99.87 4.18.73-1.78.2-2.98-.4-3.3-.99l-.88.26Z" fill="url(#c)"/><path d="M8.2 6.34A7.9 7.9 0 0 1 10.85 6c1.04 0 2.1.2 2.84.6v.7l-.18.05c-.4-.55-1.41-1.19-3.47-1.19-.55 0-1.46.12-1.84.18Zm5.47 1.95a2.3 2.3 0 0 1-.79 1.14H14c.19-.22.54-.65.66-1.1l-.97 1.08V8.29h-.01Z" fill="url(#d)"/><path d="m13.98 7.42-1.94.55-.05.66 1.86-.41v.9l.7-.85 1.15.14-.65-.66.95-.84-1.45.37-.57-.62v.76Z" fill="url(#e)"/><path d="M13.85 8.24h.01l.42-.43-2.27.54-.02.28 1.86-.41v.02Z" fill="url(#f)"/><path d="m13.98 6.7.35 1.01-.37-.28h.02v-.74Z" fill="url(#g)"/><path d="m14.55 7.28-.14.44 1.58-.8-1.44.36Z" fill="url(#h)"/><path d="M15.09 7.79h-.64l1.24.62-.6-.62Z" fill="#00579F"/><path d="m14.55 8.27-.18-.44-.51 1.28.69-.84Z" fill="url(#i)"/><path fill="#C4141C" d="M5 8h7v2H5z"/><defs><linearGradient id="a" x1="3.39" y1="11.29" x2="12.59" y2="11.29" gradientUnits="userSpaceOnUse"><stop stop-color="#00A7DC"/><stop offset="1" stop-color="#0059A0"/></linearGradient><linearGradient id="b" x1="5.36" y1="7.16" x2="13.2" y2="7.16" gradientUnits="userSpaceOnUse"><stop stop-color="#80DAF5"/><stop offset="1" stop-color="#013B77"/></linearGradient><linearGradient id="c" x1="5.24" y1="8.07" x2="5.24" y2="11.37" gradientUnits="userSpaceOnUse"><stop stop-color="#9ADBE8"/><stop offset="1" stop-color="#0089CC"/></linearGradient><linearGradient id="d" x1="14.65" y1="7.71" x2="8.2" y2="7.71" gradientUnits="userSpaceOnUse"><stop stop-color="#4FC8F1"/><stop offset="1" stop-color="#0069B5"/></linearGradient><linearGradient id="e" x1="13.34" y1="7.45" x2="14.75" y2="8.75" gradientUnits="userSpaceOnUse"><stop offset=".15" stop-color="#00A8E9"/><stop offset=".59" stop-color="#fff"/></linearGradient><linearGradient id="f" x1="14.16" y1="7.81" x2="11.98" y2="8.42" gradientUnits="userSpaceOnUse"><stop stop-color="#005DA4"/><stop offset="1" stop-color="#0098DA"/></linearGradient><linearGradient id="g" x1="13.93" y1="6.69" x2="14.14" y2="7.71" gradientUnits="userSpaceOnUse"><stop stop-color="#0A387A"/><stop offset="1" stop-color="#0080C6"/></linearGradient><linearGradient id="h" x1="15.99" y1="6.92" x2="14.47" y2="7.68" gradientUnits="userSpaceOnUse"><stop stop-color="#1C497D"/><stop offset="1" stop-color="#179ED5"/></linearGradient><linearGradient id="i" x1="14.43" y1="7.83" x2="13.82" y2="9.09" gradientUnits="userSpaceOnUse"><stop stop-color="#0088D7"/><stop offset="1" stop-color="#174A7B"/></linearGradient></defs></svg>