<!-- by TradingView --><svg width="18" height="18" viewBox="0 0 18 18" fill="none" xmlns="http://www.w3.org/2000/svg">
<rect width="18" height="18" fill="#F0F3FA"/>
<path d="M9 6L8 7.30504L9 12V6Z" fill="#CC6B39"/>
<path d="M4 7V8.62391L9 12L4 7Z" fill="#822A85"/>
<path d="M9 12L5.77081 7.65517L4 7L9 12Z" fill="#EC008C"/>
<path d="M9 12L3.84211 9H2L9 12Z" fill="#5F6DB3"/>
<path d="M2 9L2.4762 10.1364L9 12L2 9Z" fill="#46065C"/>
<path d="M6 6V7.56394L9 12L6 6Z" fill="#B82837"/>
<path d="M9 12L7.5 7.09476L6 6L9 12Z" fill="#ED1C24"/>
<path d="M9.00012 6L10 7.30504L9 12L9.00012 6Z" fill="#F37021"/>
<path d="M14 7V8.62391L9 12L14 7Z" fill="#50B848"/>
<path d="M9 12L12.2051 7.65517L14 7L9 12Z" fill="#639144"/>
<path d="M9 12L14.1579 9H16L9 12Z" fill="#007196"/>
<path d="M16 9L15.5034 10.1447L9 12L16 9Z" fill="#00ABBD"/>
<path d="M12 6V7.56394L9 12L12 6Z" fill="#FDB933"/>
<path d="M9 12L10.5203 7.09476L12 6L9 12Z" fill="#E28F38"/>
</svg>
