<!-- by TradingView --><svg width="18" height="18" viewBox="0 0 18 18" xmlns="http://www.w3.org/2000/svg"><path fill="#F0F3FA" d="M0 0h18v18H0z"/><path d="m3 12 1.53-5.44c.09-.33.37-.56.68-.56H10l-1.67 6H7l1.1-4.22c.04-.13-.05-.28-.18-.28h-.3L6.34 12H4.97l1.15-4.26c.03-.1-.04-.24-.15-.24h-.12c-.13 0-.23.1-.27.24L4.36 12H3Zm8.92-6H15l-.45 1.49h-2.5c-.18 0-.35.16-.4.36l-.1.4h1.26c.79 0 .87 1.03.5 2.42-.3 1.1-.96 1.35-1.24 1.33H9l.44-1.5h2.02c.23 0 .44-.05.51-.3l.08-.22c.03-.12-.04-.23-.14-.23h-.77c-.72 0-1.3-.65-1.1-1.45l.23-.88c.22-.84.89-1.42 1.65-1.42Z" fill="#EB1D24"/></svg>