<!-- by TradingView --><svg width="18" height="18" viewBox="0 0 18 18" xmlns="http://www.w3.org/2000/svg"><path fill="#F0F3FA" d="M0 0h18v18H0z"/><path fill-rule="evenodd" d="M15 9c0 1.66-2.69 3-6 3s-6-1.34-6-3 2.69-3 6-3 6 1.34 6 3Zm-8.41-.08c0 .79-.5 1.42-1.12 1.42-.61 0-1.1-.63-1.1-1.42 0-.78.49-1.42 1.1-1.42.62 0 1.12.64 1.12 1.42Zm.89-1.25h-.54L6.82 10h.42l.03-1.75.36 1.75h.33l.36-1.75L8.4 10h.42L8.7 7.67h-.54L7.8 9.2l-.33-1.54Zm1.95 0h-.45L9.55 10h.47l.6-2.33h-.45L9.8 9.5l-.36-1.83Zm1.37 0h.42v1l.51-1h.51l-.6 1 .63 1.33h-.48l-.45-.96-.12.17V10h-.42V7.67Z" fill="url(#ancznn00d)"/><path fill-rule="evenodd" d="M14.32 9.16c0 1.57-2.53 2.84-5.66 2.84C5.53 12 3 10.73 3 9.16c0-1.57 2.53-2.84 5.66-2.84 3.13 0 5.66 1.27 5.66 2.84Zm-7.73-.24c0 .79-.5 1.42-1.12 1.42-.61 0-1.1-.63-1.1-1.42 0-.78.49-1.42 1.1-1.42.62 0 1.12.64 1.12 1.42Zm.89-1.25h-.54L6.82 10h.42l.03-1.75.36 1.75h.33l.36-1.75L8.4 10h.42L8.7 7.67h-.54L7.8 9.2l-.33-1.54Zm1.95 0h-.45L9.55 10h.47l.6-2.33h-.45L9.8 9.5l-.36-1.83Zm1.37 0h.42v1l.51-1h.51l-.6 1 .63 1.33h-.48l-.45-.96-.12.17V10h-.42V7.67Z" fill="#043229"/><path fill-rule="evenodd" d="M14.01 9.12c0 1.5-2.46 2.72-5.5 2.72C5.46 11.84 3 10.62 3 9.12c0-1.5 2.46-2.73 5.5-2.73 3.05 0 5.51 1.22 5.51 2.73Zm-7.42-.2c0 .79-.5 1.42-1.12 1.42-.61 0-1.1-.63-1.1-1.42 0-.78.49-1.42 1.1-1.42.62 0 1.12.64 1.12 1.42Zm.89-1.25h-.54L6.82 10h.42l.03-1.75.36 1.75h.33l.36-1.75L8.4 10h.42L8.7 7.67h-.54L7.8 9.2l-.33-1.54Zm1.95 0h-.45L9.55 10h.47l.6-2.33h-.45L9.8 9.5l-.36-1.83Zm1.37 0h.42v1l.51-1h.51l-.6 1 .63 1.33h-.48l-.45-.96-.12.17V10h-.42V7.67Z" fill="url(#bncznn00d)"/><path fill-rule="evenodd" d="M8.38 11.53c2.97 0 5.38-1.08 5.38-2.41s-2.4-2.4-5.38-2.4C5.41 6.71 3 7.78 3 9.11c0 1.33 2.4 2.4 5.38 2.4ZM5.94 9.08l-.66 1.24-.05-.01.03-.24v-.02c.03-.24.08-.62.21-.66.11-.03.15.02.16.04-.01-.05-.06-.15-.19-.11-.12.03-.2.38-.21.55-.01-.34-.03-1.08 0-1.3.02-.23.13-.25.18-.24l.13.28-.11-.4-.17.16.21-.4c0 .22.17.39.25.44-.1-.07-.16-.33-.2-.48l-.01-.07c-.03-.1-.2.25-.28.43l.18-.75-.18.55-.03-.51-.04.63-.21-.51.18.63c-.06-.13-.2-.4-.27-.4s-.07.11-.07.2a.64.64 0 0 1 0 0c0-.04.02-.08.07-.12.07-.06.17.24.21.4-.12-.07-.2-.03-.21 0 .17-.03.27.14.3.23l-.02 1.63a.94.94 0 0 1-.1-.04v-.87h-.1c-.1-.35-.26-.36-.33-.32.2.03.29.28.3.4v.39c-.07-.16-.19-.2-.24-.2.17.06.24.26.25.36v.16c-.34-.24-.56-.7-.56-1.23 0-.78.5-1.42 1.11-1.42.62 0 1.12.64 1.12 1.42 0 .78-.5 1.41-1.1 1.42l.63-1.3-.18.04Zm1.54-1.41h-.54L6.82 10h.42l.03-1.75.36 1.75h.33l.36-1.75L8.4 10h.42L8.7 7.67h-.54L7.8 9.2l-.33-1.54Zm1.95 0h-.45L9.55 10h.47l.6-2.33h-.45L9.8 9.5l-.36-1.83Zm1.37 0h.42v1l.51-1h.51l-.6 1 .63 1.33h-.48l-.45-.96-.12.17V10h-.42V7.67Z" fill="url(#cncznn00d)"/><defs><linearGradient id="ancznn00d" x1="3" y1="9.16" x2="15.09" y2="9.06" gradientUnits="userSpaceOnUse"><stop stop-color="#FDF20A"/><stop offset=".75" stop-color="#FF840C"/><stop offset="1" stop-color="#F66A1E"/></linearGradient><linearGradient id="bncznn00d" x1="3.12" y1="9.12" x2="13.73" y2="9.12" gradientUnits="userSpaceOnUse"><stop stop-color="#0F5F00"/><stop offset="1" stop-color="#35B434"/></linearGradient><linearGradient id="cncznn00d" x1="5.63" y1="7.62" x2="9.63" y2="9.53" gradientUnits="userSpaceOnUse"><stop stop-color="#91C791"/><stop offset="1" stop-color="#076B09"/></linearGradient></defs></svg>