<!-- by TradingView --><svg width="18" height="18" viewBox="0 0 18 18" xmlns="http://www.w3.org/2000/svg"><path fill="#F0F3FA" d="M0 0h18v18H0z"/><path d="M9.92 9.82c-.02-.08.05-.19.09-.23a7.73 7.73 0 0 1 1 0c0 .03.06.4 0 .54-.04.15 0 .24-.06.42-.07.19.07.24.07.31 0 .08 0 .1-.04.24-.03.15-.35.4-.4.45-.06.06-.35.15-.45.19-.1.03-.12.1-.2.12-.1.02-.1-.1-.14-.09-.05.02-.09.26-.12.33a.5.5 0 0 1-.16.18c-.07.06-.15.1-.25.15-.1.05-.16.02-.24.05-.09.04-.07.17-.14.22-.07.06-.34-.09-.33-.16.02-.07.1-.53.07-.64-.05 0-.2-.1-.2-.2s.27-.16.3-.2c.04-.04.16-.1.23-.1s.13.03.19 0c.05 0 .06-.12.08-.17.02-.06.14-.11.19-.13.05-.02.07-.11.17-.18.1-.08.14-.02.2-.06.08-.03.08-.1.1-.1.04 0 .13.03.21 0 .09-.04 0-.15 0-.2 0-.06-.08-.17-.08-.26 0-.1.1-.15.08-.26-.01-.1-.13-.1-.17-.22Z" fill="#EF2A33"/><path fill-rule="evenodd" d="M9 13c2.76 0 5-1.8 5-4s-2.24-4-5-4h-.16C6.15 5.07 4 6.83 4 9s2.15 3.93 4.84 4H9Zm0-7.75h-.02c-.52 0-.98.45-1.31 1.16a6.53 6.53 0 0 0 2.62-.01C9.97 5.7 9.51 5.26 9 5.25Zm-2.34.87c.42-.37.93-.64 1.5-.78-.28.24-.52.6-.71 1.02a5.97 5.97 0 0 1-.8-.24Zm-.15.14c.27.1.56.2.87.27-.12.3-.22.64-.3 1-.45-.07-.89-.18-1.3-.3.2-.36.44-.7.73-.97ZM5.7 7.4c.42.13.87.23 1.34.3l-.07.54h.22l.07-.5a12.33 12.33 0 0 0 3.43 0c.02.16.05.33.06.5h.22a7.21 7.21 0 0 0-.07-.53c.46-.08.9-.18 1.32-.3a3.87 3.87 0 0 1 0 3.2c-.42-.13-.86-.23-1.32-.31.03-.17.06-.35.07-.54h-.22a7 7 0 0 1-.06.5 11.86 11.86 0 0 0-3.43 0 7.03 7.03 0 0 1-.07-.5h-.22l.07.54c-.47.08-.92.18-1.34.31a3.86 3.86 0 0 1 0-3.2Zm.09 3.4c.4-.14.83-.24 1.29-.32.1.47.23.9.4 1.26a6.3 6.3 0 0 0-.75.21c-.38-.31-.7-.7-.94-1.16Zm1.5-.35c.1.47.24.89.41 1.24a6.8 6.8 0 0 1 2.54 0c.17-.35.32-.77.41-1.24a11.33 11.33 0 0 0-3.36 0Zm-.38 1.64c.21-.07.43-.14.66-.19.16.31.36.57.57.76-.45-.11-.86-.3-1.23-.57Zm.88-.23c.32.55.73.89 1.18.9H9c.44-.02.85-.35 1.16-.9a6.51 6.51 0 0 0-2.36 0Zm3.22.22c-.36.26-.76.45-1.2.56.21-.18.4-.43.57-.74.21.05.43.11.63.18Zm.18-.14a6.3 6.3 0 0 0-.73-.2c.17-.37.31-.79.4-1.26.45.08.87.18 1.26.3-.23.45-.55.85-.93 1.16Zm.95-4.7c-.4.12-.83.22-1.27.3-.07-.38-.18-.72-.3-1.02.3-.07.57-.16.83-.27.3.28.55.62.74.99Zm-3.2-.53c.5 0 .97-.05 1.42-.14.12.3.22.63.3 1a11.77 11.77 0 0 1-3.37 0c.07-.37.17-.7.3-1 .43.1.88.14 1.35.14Zm2.31-.6c-.24.1-.49.17-.75.24a2.95 2.95 0 0 0-.68-1c.53.14 1.02.4 1.43.76Zm-.6 6.48c.3-.1.57-.2.83-.33a5.72 5.72 0 0 0-.2-.08c-.2.15-.4.29-.63.4Zm.79-.55.25.11c.51-.28.95-.64 1.3-1.05l-.65-.25a4 4 0 0 1-.9 1.2Zm.99-1.37a4.14 4.14 0 0 0 0-3.32c.25-.08.48-.17.7-.26.4.56.64 1.22.64 1.91 0 .7-.24 1.37-.66 1.93-.21-.1-.44-.18-.68-.26Zm-.08-3.5c.23-.07.45-.15.66-.24A4.32 4.32 0 0 0 11.96 6l-.31.15a4 4 0 0 1 .71 1.02Zm-6.8 0a4 4 0 0 1 .71-1.01L6 6.02c-.4.26-.75.57-1.03.92l.6.22ZM11.5 6l.26-.13c-.33-.19-.7-.35-1.1-.47.3.16.59.36.84.6Zm-4.34-.54c-.27.15-.52.33-.74.55a5.48 5.48 0 0 1-.23-.11c.3-.18.63-.32.97-.44ZM5.5 10.68a4.14 4.14 0 0 1 0-3.34 8.9 8.9 0 0 1-.64-.24c-.4.56-.63 1.21-.63 1.9 0 .7.24 1.36.65 1.92.2-.09.4-.16.62-.24Zm.09.18L5 11.1c.34.41.77.77 1.28 1.05l.21-.09a3.99 3.99 0 0 1-.91-1.19Zm1.07 1.33-.16.06c.22.11.44.2.67.28-.18-.1-.35-.22-.5-.34Z" fill="#EF2A33"/><path d="m16 10-1.71-.99-.16.14.41.42h-.9V10H16ZM7.6 6.01c-.11-.13-.04-.33 0-.4.46-.09 1.37-.26 1.43-.3.09-.06.16.03.24.05.09.02.07.1.15.19.09.09.24-.06.27-.1.04-.03-.03.41 0 .53.04.1.3.24.4.24.08 0 .28-.15.35-.06.07.1-.07.15-.12.23-.05.07-.34.2-.37.22-.04.02.37.06.32.11-.05.06-.56.13-.61.15-.05.02-.32.32-.39.43-.07.11-.08.24-.14.41-.04.14.4.52.63.7-.2.01-.6.04-.63 0-.03-.06-.32-.25-.3-.3.02-.06.08-.08.07-.2-.02-.1-.65-.37-.65-.42 0-.06.02-.1.14-.19.1-.07.17-.03.2 0l.14-.17a3.4 3.4 0 0 0-.34-.46c-.03 0-.26.13-.32.13-.07 0-.17-.19-.22-.32a.4.4 0 0 1 0-.26.93.93 0 0 1-.24-.2ZM9 9.57h.29V13H9z" fill="#EF2A33"/><path d="M4.16 8h9.61l.16 1-.16 1H2.9L2 9h1.28l.45.5h.35L4 9l.16-1Z" fill="#EF2A33"/></svg>