<!-- by TradingView --><svg width="18" height="18" viewBox="0 0 18 18" xmlns="http://www.w3.org/2000/svg"><path fill="#F0F3FA" d="M0 0h18v18H0z"/><path d="M9 4v1.62l-.02-.02h-.03L6.98 4.43A5 5 0 0 1 9 4Z" fill="#42EADD"/><path d="M11.01 4.42 9.06 5.57a.06.06 0 0 0-.02.03L9 5.62V4a5 5 0 0 1 2.01.42Z" fill="#85F1EB"/><path d="M6.98 4.43 8.95 5.6h.03l.03.02 2.87 1.68-.95.56A2.27 2.27 0 0 0 9 6.76V5.62a.01.01 0 0 0-.02 0L6.22 7.23a.62.62 0 0 1-.16.05V4.96c.27-.19.62-.4.92-.53Z" fill="#00D0CD"/><path d="M11.01 4.42a5 5 0 0 1 2.3 2.05l-1.43.84V7.3L9 5.6l2.01-1.19Z" fill="#42EADD"/><path d="M6.06 4.97v2.3l-.01.04h-.01l-1.35-.84a4.6 4.6 0 0 1 1.37-1.5Z" fill="#24D1ED"/><path d="M9 6.75A2.27 2.27 0 0 0 6.75 9c0 .4.1.77.31 1.14l-1 .53c-.02-.08 0-.19 0-.32V7.27c.03 0 .12 0 .16-.03a7835.56 7835.56 0 0 1 2.77-1.61L9 6.75Z" fill="#00BAEA"/><path d="m4.69 6.47 1.42.83-2.09 1.24a5 5 0 0 1 .67-2.07Z" fill="#00BAEA"/><path d="M13.31 6.47a5 5 0 0 1 .67 2.07l-2.1-1.23 1.43-.84Z" fill="#24D1ED"/><path d="M6.06 7.27V10.66l-.05.01-2-1.22a5.2 5.2 0 0 1 .01-.91l2.03-1.27c-.01 0 0 0 0 0Z" fill="#08A8DC"/><path d="M11.88 7.3v.01l2.1 1.23c.03.3.03.6 0 .91l-2.11 1.24-.94-.55c.42-.76.42-1.52 0-2.28l.95-.56Z" fill="#00B1FF"/><path d="m6.03 10.63.03.03-1.37.88a5 5 0 0 1-.67-2.09l2.01 1.18Z" fill="#007BD2"/><path d="M13.98 9.45a5 5 0 0 1-.66 2.07l-1.45-.84-.01.03v-.02l2.12-1.24ZM9 11.25v1.14l-2.88-1.7-.07-.04 1.01-.52A2.26 2.26 0 0 0 9 11.25Z" fill="#0098DA"/><path d="m10.93 10.14.93.55v.02L9 12.39v-1.14c.84-.04 1.5-.41 1.93-1.11Z" fill="#08A8DC"/><path d="M13.32 11.52a5 5 0 0 1-1.44 1.57v-2.4l1.44.83Z" fill="#0057A9"/><path d="M6.06 10.65 9 12.4l-2.02 1.18a5 5 0 0 1-2.29-2.04l1.37-.88Z" fill="#0064C0"/><path d="m11.86 10.7.01-.02v2.41a5 5 0 0 1-4.89.48L9 12.4l2.86-1.68Z" fill="#004299"/></svg>