<!-- by TradingView --><svg width="18" height="18" viewBox="0 0 18 18" xmlns="http://www.w3.org/2000/svg"><path fill="#F0F3FA" d="M0 0h18v18H0z"/><path d="M4 9.07v-.22c.11-2.07 1.67-3.59 3.88-3.82 2-.2 4.14.5 4.87 2.39.56 1.44.13 2.54-.81 3.75h-.03a3.79 3.79 0 0 0-.77-.62c.56-1.63.45-3.56-1.28-4.61a3.05 3.05 0 0 0-2.04-.41c-2.1.27-2.46 2.43-2.21 4 .27 1.71 2.03 2.97 4 2.93h.03l.3.4v.02c-.4.07-.8.13-1.18.12C6.3 12.95 4.09 11.47 4 9.07Z"/><path d="M10.5 10.27c.57.33 1.1.73 1.47 1.27l.53.8c.46.71.76 1.2 1.5 1.64V14l-.01.01c-1.36-.12-3.28-.6-4.05-1.88a6.34 6.34 0 0 1-.42-.86L9 10.02l.01-.02c.5-.01 1.04.01 1.49.27Z" fill="#03A75E"/></svg>