<!-- by TradingView --><svg width="18" height="18" viewBox="0 0 18 18" xmlns="http://www.w3.org/2000/svg"><path fill="#F0F3FA" d="M0 0h18v18H0z"/><path d="M5.88 12.91v-2.18c0-.15.04-.29.12-.4l1-1.48a.71.71 0 0 0 .13-.4V4.37a5 5 0 0 0-1.25.74v3.27c0 .15-.05.3-.13.41l-.7 1.1a.74.74 0 0 0-.11.4v1.64c.26.37.58.7.93 1Zm.3.23c.48.32 1 .57 1.57.71v-2.54c0-.15.09-.28.17-.4l1.03-1.48c.06-.09.06-.2.05-.3V4a5 5 0 0 0-1.56.25v4.34c0 .15-.05.3-.13.41l-.99 1.39a.72.72 0 0 0-.13.4v2.35Zm3.13-9.13V14a4.97 4.97 0 0 0 1.56-.35V4.36a4.97 4.97 0 0 0-1.56-.35Zm1.88.5v9c.46-.23.88-.52 1.25-.87V5.37a5.01 5.01 0 0 0-1.25-.87Zm1.56 1.18v6.63a4.99 4.99 0 0 0 0-6.63Zm-7.19-.32a5 5 0 0 0-.93 6.06v-1.22c0-.14.03-.28.1-.4l.74-1.18a.74.74 0 0 0 .1-.4V5.37Z" fill="url(#akdpzl2dc)"/><defs><linearGradient id="akdpzl2dc" x1="4.2" y1="8.52" x2="13.79" y2="8.52" gradientUnits="userSpaceOnUse"><stop stop-color="#0D2D86"/><stop offset=".27" stop-color="#0A4575"/><stop offset=".37" stop-color="#08556A"/><stop offset=".48" stop-color="#065E62"/><stop offset=".57" stop-color="#056B59"/><stop offset=".67" stop-color="#037551"/><stop offset=".76" stop-color="#027C4C"/><stop offset=".86" stop-color="#018744"/><stop offset="1" stop-color="#008F3E"/></linearGradient></defs></svg>