<!-- by TradingView --><svg width="18" height="18" viewBox="0 0 18 18" xmlns="http://www.w3.org/2000/svg"><path fill="#C8D9F3" d="M0 0h18v18H0z"/><path fill="#fff" d="M5 4h8v10H5z"/><path fill-rule="evenodd" d="M12.5 4.5h-7v9h7v-9ZM5 4v10h8V4H5Z" fill="#F50C1C"/><path fill-rule="evenodd" d="M12 5h-1v2.76a3 3 0 1 0 0 4.47V13h1V5Zm-1 5a2 2 0 1 0-4 0 2 2 0 0 0 4 0Z" fill="#3490EF"/><path d="M8.08 9.94v1.56l1.54-2.03A.67.67 0 0 0 9 9c-.74 0-.92.63-.92.94ZM10.08 10.56V9l-1.54 2.03c.12.38.46.47.61.47.74 0 .93-.63.93-.94Z" fill="#F4081F"/></svg>