<!-- by TradingView --><svg width="18" height="18" viewBox="0 0 18 18" xmlns="http://www.w3.org/2000/svg"><path fill="#F0F3FA" d="M0 0h18v18H0z"/><path d="m9 3 5 3.62v5.6c0 .6-.71.9-1.11.46l-1.6-2.04c-.18-.2-.29-.48-.29-.76V7.74l-.67-.37v2.52c0 .38.1.76.29 1.1l1.44 2.68-.57.33L10 11.24a2.84 2.84 0 0 1-.34-1.35V7l-.34-.18V14h-.66V6.81L8.33 7v2.9c0 .46-.11.92-.34 1.34L6.51 14l-.6-.4 1.48-2.63c.18-.34.28-.7.28-1.08V7.37L7 7.74v2.14c0 .28-.13.56-.33.76l-1.56 2.04c-.4.43-1.11.14-1.11-.46v-5.6L9 3Z" fill="#007AC7"/></svg>