<!-- by TradingView --><svg width="18" height="18" viewBox="0 0 18 18" xmlns="http://www.w3.org/2000/svg"><path fill="#4397DF" d="M0 0h18v18H0z"/><path d="M3 12.25v-.36c.48.18 1.78.55 3.15.55C10.57 12.44 13 9.7 13 8.1c0-1.26-1.42-1.7-2.17-1.76V6C12.19 6 14 6.43 14 8.02s-1.64 3-2.92 3.8c3.05-1.08 3.3-3.15 3.3-3.34 0-.2-.01-.38-.1-.74.27.1.57.52.57 1.08 0 1.33-1.9 2.45-2.8 3 2.03-.57 2.65-1.98 2.7-2.12.05-.15.21-.22.25-.14-.4 2.5-4.42 3.44-7.82 3.44-2.71 0-3.92-.5-4.18-.75Z" fill="#fff"/><path d="M7.35 6h-.88L6 11h.89l.25-2.72c.22-.3.56-.56 1.03-.56.76 0 .92.5.93.73L9.04 11h.88c.02-.68.08-2.24.08-3 0-.94-1.03-1.4-1.71-1.4-.43 0-.8.15-1.02.27L7.35 6Z" fill="#fff"/></svg>