<!-- by TradingView --><svg width="18" height="18" viewBox="0 0 18 18" xmlns="http://www.w3.org/2000/svg"><path fill="#F0F3FA" d="M0 0h18v18H0z"/><rect x="4" y="5.77" width="1" height="6.47" rx=".5" fill="#009B95"/><rect x="13" y="5.77" width="1" height="6.47" rx=".5" fill="#009B95"/><path d="M8.77 3.98a.54.54 0 0 1-.18-.7.48.48 0 0 1 .67-.2l4.48 2.73c.24.14.32.46.18.71a.48.48 0 0 1-.67.2L8.77 3.97Z" fill="#008FD9"/><path d="M8.78 14.03a.54.54 0 0 0-.18.71c.14.25.44.33.67.19l4.48-2.73a.54.54 0 0 0 .18-.7.48.48 0 0 0-.67-.2l-4.48 2.73ZM9.22 3.98a.54.54 0 0 0 .18-.7.48.48 0 0 0-.67-.2L4.25 5.81a.54.54 0 0 0-.18.71c.14.25.44.33.67.2l4.48-2.74Z" fill="#0069B3"/><path d="M9.23 14.03c.23.14.32.46.18.71a.48.48 0 0 1-.67.19L4.26 12.2a.54.54 0 0 1-.18-.7.48.48 0 0 1 .67-.2l4.48 2.73Z" fill="#008FD9"/><rect width="1.18" height="7.46" rx=".59" transform="matrix(-.68676 .72689 -.68866 -.72508 11.96 11.27)" fill="#008FD5"/><rect width="1.18" height="7.46" rx=".59" transform="matrix(.68676 .72689 .68866 -.72508 6.01 11.28)" fill="#0176BB"/><ellipse cx="8.99" cy="8.99" rx=".58" ry=".62" fill="#1C1B19"/><ellipse cx="13.47" cy="11.73" rx=".51" ry=".54" fill="#00697E"/><ellipse cx="4.53" cy="11.73" rx=".51" ry=".54" fill="#00697E"/><ellipse cx="9" cy="14.46" rx=".51" ry=".54" fill="#0157A4"/><ellipse cx="8.99" cy="3.54" rx=".51" ry=".54" fill="#0157A4"/><ellipse cx="13.48" cy="6.29" rx=".5" ry=".53" fill="#00697E"/><ellipse cx="4.5" cy="6.28" rx=".48" ry=".51" fill="#00697E"/><path d="M11.56 11.7a.63.63 0 0 0 0-.86L9.78 8.98l-.8.85 1.77 1.87c.22.23.58.23.8 0Z" fill="#009B95"/><path d="M6.42 11.7a.63.63 0 0 1 0-.85l1.75-1.84h.02l.8.84-1.76 1.86a.55.55 0 0 1-.81 0Z" fill="#01509F"/></svg>