<!-- by TradingView --><svg xmlns="http://www.w3.org/2000/svg" width="18" height="18"><path fill="#2854A1" d="M0 0h18v18H0z"/><path d="M8.98 3.04L9 3l.02.04c.06.15.3.73.5 1.04l.15.23.37.58c.33.58.48 1.56-.52 2.26.21-.92.29-1.5.27-1.86a9.8 9.8 0 01-.58 1.76A24.37 24.37 0 009 4.23c-.12.89-.2 1.82-.2 2.82a9.02 9.02 0 01-.59-1.76c-.02.36.06.94.27 1.86-1-.7-.85-1.68-.52-2.26l.37-.59.15-.22c.2-.3.44-.89.5-1.04zm3.99 3.13H13l-.02.02c-.08.1-.37.46-.5.69l-.1.17c-.07.15-.15.3-.24.44-.26.41-.85.88-1.7.55.7-.22 1.1-.4 1.34-.55a7.3 7.3 0 01-1.38.33 20.09 20.09 0 001.78-1.2c-.63.28-1.27.59-1.94.95.28-.36.6-.7.95-1-.25.12-.6.39-1.14.86.09-.85.8-1.13 1.3-1.16h.74c.27 0 .75-.08.88-.1zM5 6.17h.03c.13.02.6.1.88.1h.74c.5.03 1.21.3 1.3 1.16a6.2 6.2 0 00-1.14-.86c.36.3.67.64.95 1a20.52 20.52 0 00-1.95-.94c.55.4 1.14.8 1.79 1.19a7.66 7.66 0 01-1.38-.33c.23.15.64.33 1.33.55a1.34 1.34 0 01-1.69-.55l-.25-.44-.1-.17c-.12-.23-.41-.6-.5-.7a1.54 1.54 0 010-.02zM4 8v5h2v-2.93L7.87 13H10v-2h2v2h2V8h-2v2h-2V8H8v2.88L6.26 8H4z" fill="#fff"/></svg>