<!-- by TradingView --><svg width="18" height="18" viewBox="0 0 18 18" xmlns="http://www.w3.org/2000/svg"><path fill="#F0F3FA" d="M0 0h18v18H0z"/><path d="M10.45 8.72a.05.05 0 0 0 .04 0l.01-.01V5.1l.01-.04c.02-.02.04-.06.06-.06h2.3c.04 0 .07.03.1.05a.1.1 0 0 1 .03.08v7.75c0 .03-.02.05-.04.06-.01.02-.04.06-.06.06h-1.52c-.2 0-.37-.1-.48-.25-.96-1.2-2.12-2.45-3.17-3.8a.23.23 0 0 0-.13-.07.09.09 0 0 0-.07 0l-.02.03v3.97c0 .03 0 .07-.03.09a.14.14 0 0 1-.08.03H5.12a.13.13 0 0 1-.08-.03.1.1 0 0 1-.04-.07V5.13c0-.04.02-.07.04-.1a.16.16 0 0 1 .1-.03h1.77c.18 0 .32.06.44.18 1.02 1.1 1.84 2.25 2.87 3.38.07.07.14.12.23.16Z" fill="#3E64A4"/></svg>