<!-- by TradingView --><svg width="18" height="18" viewBox="0 0 18 18" xmlns="http://www.w3.org/2000/svg"><path fill="#F0F3FA" d="M0 0h18v18H0z"/><path d="M8.94 3 6.88 4.25l2.45 1.48v.72l1.6 1.07.4-.22V4.47L8.93 3ZM4 6.07v2.5l2.4-1.4.57.4 1.7-1.06v-.44L6.4 4.65 4 6.07Zm0 6 2 1.26v-2.88l.67-.33V8l-.3-.22L4 9.18v2.9Zm6.97 1.68L8.91 15l-2.24-1.47V10.7l.25-.22 1.75 1.07v.72l2.3 1.48ZM14 12.02v-2.5l-2.4 1.4-.57-.4-1.7 1.06v.44l2.27 1.42 2.4-1.42Zm-2-7.26 2 1.25v2.9l-2.37 1.4-.3-.22V7.97l.67-.33V4.76Zm-2 3.61-1-.62-1 .62v1.25l1 .63 1-.63V8.37Z" fill="#BE1522"/></svg>