<!-- by TradingView --><svg width="18" height="18" viewBox="0 0 18 18" xmlns="http://www.w3.org/2000/svg"><path fill="#045454" d="M0 0h18v18H0z"/><path d="M10.65 6.51c-1.07.69-1.9.72-2.17.65 0-.84.96-1.7 1.45-2.03-1.5.2-2.05 1.21-2.14 1.7-.17-.26-.2-.86-.19-1.13.13-.56.89-1.7 2.9-1.7 2.19 0 3.17 1.2 3.43 1.52a.4.4 0 0 0 .07.07c-1.11-.37-2.02.07-3.35.92Zm-4.83.3c.58.38 1.03.4 1.19.36 0-.45-.53-.93-.8-1.1.82.1 1.12.66 1.17.92.09-.14.1-.47.1-.61-.07-.31-.48-.93-1.57-.93-1.2 0-1.73.65-1.87.83a.22.22 0 0 1-.04.04c.6-.2 1.1.04 1.82.5ZM12 11.5A3.6 3.6 0 0 1 8.2 15c1.92-.06 2.85-2.09 2.85-3.22 0-1.86-1.27-2.95-2.75-2.95-1.38 0-2.33.13-3.3 1.09A3.73 3.73 0 0 1 8.3 8a3.6 3.6 0 0 1 3.7 3.5Z" fill="#fff"/></svg>