<!-- by TradingView --><svg width="18" height="18" viewBox="0 0 18 18" xmlns="http://www.w3.org/2000/svg"><path fill="#F0F3FA" d="M0 0h18v18H0z"/><path d="M3.64 6 2.1 12h1.06l.96-3.72.83 3.72H6.1l1.5-6H6.57l-.96 3.76L4.76 6H3.64Z" fill="#023894"/><path fill-rule="evenodd" d="m6.86 12 1.5-6h2.15c.54 0 1.03.1 1.03 1.17-.04.84-.56 2.83-2.24 2.83h-.73l-.58 2H6.86Zm1.98-3 .4-2h.55c.27 0 .6 0 .53.74C10.22 8.77 9.72 9 9.25 9h-.4Z" fill="#EA5413"/><path d="m16 7.8-1.2.35c.03-.54-.03-1.06-.14-1.1-.67-.3-1.38.76-1.57 1.19-.31.66-.85 2.36-.16 2.7.69.33 1.31-.87 1.5-1.37l1.04.46c-.71 1.85-2.28 2.06-2.98 1.94-.56-.08-1.54-.77-.97-2.87.72-2.62 1.93-3.1 3.28-3.1 1.08 0 1.24 1.2 1.2 1.8Z" fill="#023894"/></svg>