<!-- by TradingView --><svg width="18" height="18" viewBox="0 0 18 18" fill="none" xmlns="http://www.w3.org/2000/svg">
<rect width="18" height="18" fill="#F0F3FA"/>
<path fill-rule="evenodd" clip-rule="evenodd" d="M8.1206 6C7.22557 6 6.5 6.75297 6.5 7.68181V10.3182C6.5 11.247 7.22557 12 8.1206 12H8.3794C9.27443 12 10 11.247 10 10.3182V9.74994H8.36995V10.6148C8.36995 10.7585 8.28623 10.875 8.18295 10.875C8.07968 10.875 7.99596 10.7585 7.99596 10.6148V7.38515C7.99596 7.24147 8.07968 7.125 8.18295 7.125C8.28623 7.125 8.36995 7.24147 8.36995 7.38515V8.24994H10V7.68181C10 6.75297 9.27443 6 8.3794 6H8.1206ZM3 6.00001V12H4.33334V9.78596L4.75714 12H6V6.00001H4.66668V8.05449L4.2 6.00001H3ZM10.5 12V6H12.4095L12.823 8.36943L13.1757 6H15V12H13.6154V8.72612L13.1757 12H12.2635L11.8846 8.72612V12H10.5Z" fill="black"/>
</svg>
