<!-- by TradingView --><svg width="18" height="18" fill="none" xmlns="http://www.w3.org/2000/svg"><path fill="#F0F3FA" d="M0 0h18v18H0z"/><path fill-rule="evenodd" clip-rule="evenodd" d="M14 6h2v6h-2V6ZM2 12V6.988S2.104 6 3.072 6c.294 0 .661.136.882.548L5 8.497V6h2v4.931S7 12 6.023 12c-.285 0-.655-.18-.883-.521L4 9.494V12H2ZM8 8.001V12h2V7.878h.002a.513.513 0 0 1 .498-.463c.28 0 .5.221.5.5a.496.496 0 0 1-.62.487v1.105a.503.503 0 0 1 .62.486.503.503 0 0 1-.62.485V12h.977c.6 0 1.643-.877 1.643-1.9s-1-1.35-1-1.35c.611-.237.57-1.101.57-1.101S12.488 6 10.234 6C7.98 6 8 8.001 8 8.001Z" fill="#E26C41"/></svg>