<!-- by TradingView --><svg width="18" height="18" viewBox="0 0 18 18" xmlns="http://www.w3.org/2000/svg"><path fill="#F0F3FA" d="M0 0h18v18H0z"/><path d="m6.6 4 .93 1.06.94-1.03.53.45-1.46 1.7L6 4.44 6.6 4ZM7.43 8.92l.53-.55H6.5l.48-.63h2.76L7.89 9.43l-.46-.5ZM10 4v3.27h-.78v-1.2l-1.07 1.2H7L10 4ZM10.44 4.8V7.8l1.7-.86-.42-.53-.72.31V5.56l-.56-.77ZM11 8.37h3l-3 2.18v-.77L12.02 9h-1L11 8.37ZM10.34 8.2v2.74l-.61-.32v-.97l-.59.6-.64-.43 1.84-1.61ZM9.65 11.35l-1.86-1.2-.33.6.98.6-.97.56.36.59 1.82-1.15ZM10.37 11.7l1.5-.94v.8l-.87.57v1.64l-.63.36V11.7ZM9.62 12.21v2.38L9 15v-1.67l-.64.48-.33-.6 1.6-1ZM7 6H4l.42-.73H5.6l-.61-.78.5-.49L7 6ZM6.89 6.43H4.07l.36.76H5.5l-.52.8.5.45 1.4-2Z" fill="#493833"/></svg>