<!-- by TradingView --><svg width="18" height="18" viewBox="0 0 18 18" xmlns="http://www.w3.org/2000/svg"><path fill="#F0F3FA" d="M0 0h18v18H0z"/><path d="M13.28 6.62a2.92 2.92 0 0 0 .1.17v.03a.07.07 0 0 1-.04.04l-7.69 4.27-.01.02v.02a.03.03 0 0 0 .03.02c.63-.14 1.23-.33 1.83-.58.82-.35 1.58-.72 2.28-1.11l3.71-2.08c.05-.03.09-.02.11.03l.18.31c.03.05.02.08-.03.11a997.17 997.17 0 0 1-4.49 2.48 16.27 16.27 0 0 1-2.93 1.24l.02.01a8.4 8.4 0 0 0 3.4-1.08 333.99 333.99 0 0 0 3.98-2.18.09.09 0 0 1 .05.04l.18.31a.08.08 0 0 1 0 .06v.03l-.03.02-3.9 2.15a9.69 9.69 0 0 1-3.17 1.1c-.12.01-.12.03 0 .04.76.09 1.6-.07 2.38-.34.37-.13.92-.39 1.64-.79L13.7 9.4c.04-.02.08-.01.1.03l.19.31c.02.05.01.09-.04.12l-3.4 1.88c-.97.52-1.98.82-3.05.89-.26.01-.26.04 0 .07 1.2.15 2.37-.1 3.48-.72l2.38-1.33c.03-.02.05-.01.07.02l.21.37c.01.02.01.04-.01.05-.93.53-1.8 1.01-2.64 1.46-.99.53-2.04.75-3.17.68-.24-.02-.24 0-.01.07 1.24.34 2.42.22 3.54-.37.05-.02.09-.01.12.04l.18.32a.08.08 0 0 1 0 .06.08.08 0 0 1-.04.05 5.2 5.2 0 0 1-6.96-1.98A5.06 5.06 0 0 1 6.61 4.5a.08.08 0 0 1 .06.04l.18.31c.03.05.01.1-.03.12a4.55 4.55 0 0 0-2.16 2.8c-.06.23-.04.24.07.02a5.63 5.63 0 0 1 2.23-2.31C7.78 5 8.66 4.52 9.6 4c.03-.02.04-.01.05.01l.22.38c.01.02 0 .04-.02.06L7.45 5.78a5.46 5.46 0 0 0-2.43 2.56c-.1.24-.09.25.07.03a7.23 7.23 0 0 1 2.34-2.1l3.4-1.9c.05-.02.09-.01.12.03l.18.32c.02.04.01.08-.03.1L8.27 6.39c-.72.41-1.23.74-1.53.98A5.49 5.49 0 0 0 5.2 9.2c-.04.1-.03.12.04.03a9.57 9.57 0 0 1 2.6-2.11 967.32 967.32 0 0 1 3.95-2.18.08.08 0 0 1 .05.04l.18.3a.08.08 0 0 1-.04.12c-1.46.8-2.76 1.53-3.91 2.18a8.3 8.3 0 0 0-2.7 2.33h.03c.85-.74 1.7-1.35 2.56-1.83l4.48-2.5c.05-.03.08-.02.11.03l.18.31c.02.05.01.09-.03.11L8.97 8.07c-.71.4-1.42.84-2.14 1.35a10.23 10.23 0 0 0-1.47 1.26l.01.02a.03.03 0 0 0 .04 0l7.69-4.26a.08.08 0 0 1 .08 0l.02.03.08.15Z" fill="#1C4B9C"/></svg>