<!-- by TradingView --><svg width="18" height="18" viewBox="0 0 18 18" xmlns="http://www.w3.org/2000/svg"><path fill="#F0F3FA" d="M0 0h18v18H0z"/><path d="M12 12v1h1.56c.14 0 .44-.1.44-.5s-.3-.5-.44-.5H12Z" fill="#75B42E"/><path d="M12 8.5v1h1.56c.14 0 .44-.1.44-.5s-.3-.5-.44-.5H12Z" fill="#FA8807"/><path d="M11 10h-1v3h1v-3Z" fill="#75B42E"/><path fill="#3E3C3C" d="M10 9h1v1h-1z"/><path d="M11 9h-1V6.64C10 5.33 11.43 5 12 5h1.43c.19 0 .57.1.57.55 0 .43-.38.45-.57.45H12c-.69 0-1 .64-1 .9V9Z" fill="#662E87"/><path d="M5 8.7 4 6.37v6c0 .31.13.62.5.62.3 0 .5-.3.5-.62V8.7Z" fill="#75B42E"/><path d="M7.5 5c-.4 0-.5.41-.5.62v6.46s0 .92.5.92.5-.62.5-.62V5.62C8 5.4 7.9 5 7.5 5Z" fill="#FA8807"/><path d="M4.25 5.08c.23-.17.52-.06.66.23l3.03 6.77c.13.3.05.67-.19.84-.23.17-.52.06-.66-.23L4.06 5.92c-.13-.3-.05-.67.19-.84Z" fill="#662E87"/><path d="M7.5 13c-.16 0-.32-.11-.4-.31L7 12.5 7 12.38v-2.4l.94 2.1a.74.74 0 0 1 .02.55.59.59 0 0 1-.2.29.42.42 0 0 1-.25.08Z" fill="#3E3C3C"/></svg>