<!-- by TradingView --><svg width="18" height="18" viewBox="0 0 18 18" xmlns="http://www.w3.org/2000/svg"><path fill="#F0F3FA" d="M0 0h18v18H0z"/><path d="M4 10.1c.25-4.68 4.31-6.02 6.31-6.1a6.38 6.38 0 0 0-5.64 5.26c-.17 1.35.3 4.07 3.62 4.1 3.3.03 5.19-2.87 5.71-4.32-.13 1.25-2.13 5.17-6.18 4.95C4.58 13.82 4 11.41 4 10.11Z" fill="#B1324D"/><path d="M8.14 6 7 11h1.45l.83-3.47c.03-.22.2-.66.7-.65.51.01.54.44.5.65L9.68 11h1.42c.26-1.05.78-3.24.85-3.58.08-.42.14-1.32-.85-1.41-.8-.07-1.38.38-1.57.61L9.7 6H8.14Z" fill="#808285"/></svg>