<!-- by TradingView --><svg width="18" height="18" viewBox="0 0 18 18" xmlns="http://www.w3.org/2000/svg"><path fill="#F0F3FA" d="M0 0h18v18H0z"/><path fill-rule="evenodd" d="M9 13c3.87 0 7-1.8 7-4s-3.13-4-7-4-7 1.8-7 4 3.13 4 7 4Zm0-.4c1.74 0 3.15-1.61 3.15-3.6S10.74 5.4 9 5.4 5.85 7.01 5.85 9 7.26 12.6 9 12.6Z" fill="#CACFD3"/><path d="M4.8 8.25c-.56-.4-.52-1.13-.48-1.79l.01-.44A10.42 10.42 0 0 1 9 5c1.87 0 3.57.42 4.82 1.1.03.16-.06.23-.17.3-.1.07-.22.15-.22.35 0 .18.03.3.06.4.05.2.1.37-.06.85-.13.42-.11.45-.07.52.03.06.07.15.07.48 0 .46-.17.16-.42-.25-.15-.26-.33-.56-.51-.75a6 6 0 0 1-1.4-2c-.15-.5-.61-.55-1.04-.61a1.78 1.78 0 0 1-.6-.14C9 5 8.07 5 7.14 5.5c-.58.31-.7.63-.84.94-.07.19-.15.37-.32.56-.24.25-.3.38-.32.44l-.03.05-.12.01c-.23 0-.23.5 0 1 .19.4.07.32-.35 0l-.35-.25Zm10.62 2.34c-.1-.11-.27-.23-.59-.34-.43-.16-.42-.31-.4-.47.01-.1.02-.19-.06-.28-.24-.25-.7.25-1.17 1-.33.54-.19.56.18.62.14.03.32.06.52.13.23.08.3.24.3.43.5-.32.92-.69 1.22-1.09Zm-3.61 2.07a.53.53 0 0 0-.01-.41c-.12-.27-.25-.18-.45-.04-.17.13-.4.29-.72.29-.35 0-.64.06-.93.13-.3.06-.58.12-.93.12-.44 0-.79-.2-1.15-.4-.23-.13-.46-.26-.72-.35-.57-.2-.52.09-.48.33l.01.17c0 .08 0 .15.03.23a11.73 11.73 0 0 0 5.35-.07Z" fill="#6B7272"/><path d="M7.83 7.66c.19.61.4.77.47.77-.19.2-.54.25-.7.25.37.4 1.4.34 1.87.26 0-.09-.05-.26-.24-.26-.23 0 0 0 .24-.25.18-.2.54-.26.7-.26 0-.2-.31-.25-.47-.25.08-.09.28-.26.47-.26.23 0 .23-1.01.23-1.27 0-.25-.47.51-.93.76-.47.26-.24.77-.47.77-.23 0 0-.26-.23-.51-.24-.26-.7-.76-1.17-1.02-.47-.25-.7-.25-.7 0 0 .26.7.51.93 1.27Z" fill="#6B7272"/><path d="M7.6 11.4v-2h.35v.32c.17-.12.52-.32.77-.32h.63V9h.35v.4h.35V11h.7v.4H9.17l-.67-.72c.15-.08.45-.29.45-.48 0-.08-.05-.24-.23-.24-.22 0-.41.24-.41.48v.96H7.6Zm1.52-.84c0 .2.15.24.23.24v-.48a.22.22 0 0 0-.23.24Z" fill="#CD5467"/><path fill-rule="evenodd" d="m9 5 .12.03c2.53.02 4.73.8 5.92 1.96h.02v.03c.6.57.93 1.24.94 1.95v.05a2.8 2.8 0 0 1-.93 1.96l-.01.03h-.02c-1.2 1.15-3.4 1.94-5.92 1.96A13 13 0 0 1 9 13l-.3-.03c-2.44-.06-4.57-.83-5.74-1.96h-.02v-.03A2.8 2.8 0 0 1 2 9.02v-.04c0-.72.35-1.39.93-1.96v-.03h.03c1.17-1.13 3.3-1.9 5.75-1.96L9 5Zm0 .07h-.05c-.34.15-.76.35-1.19.6h.05c-.03 0-.06.02-.09.04h-.04a10.52 10.52 0 0 0-1.9 1.4l.53.02-.03.05c-.18 0-.36 0-.54-.02-.17.18-.33.37-.46.56-.28.4-.45.82-.46 1.25h1.03a4.18 4.18 0 0 0 0 .05H4.82c.01.44.18.86.46 1.26.12.17.26.34.41.5l.56-.02.02.05-.53.02c.2.2.42.4.65.6.41.32.86.61 1.3.86h.03l.1.04h-.06c.43.25.85.45 1.18.6h.13c.38-.15.86-.36 1.36-.63h-.15l.09-.05h.14c.37-.2.75-.45 1.1-.72.32-.25.61-.53.86-.82l-.69-.02.02-.05.71.02c.4-.5.66-1.04.67-1.64h-1.03v-.05h1.03c-.01-.63-.31-1.22-.76-1.74l-.67.02-.02-.05.65-.02a5.84 5.84 0 0 0-.77-.7 8.85 8.85 0 0 0-1.1-.73h-.15a2.97 2.97 0 0 0-.08-.04h.15c-.5-.28-.98-.5-1.36-.63H9Zm-.26 0h-.03a12 12 0 0 0-2.28.5l.86.06c.52-.23 1.02-.42 1.45-.55Zm-2.91.44c.71-.21 1.5-.35 2.34-.4-.58.09-1.22.23-1.86.45l-.48-.05Zm-1.76.72a8.12 8.12 0 0 1 1.66-.7v.02l.47.04a8.7 8.7 0 0 0-1 .42c-.55.27-1.06.61-1.46 1.02l-.71-.04c.29-.27.64-.53 1.04-.76ZM2.05 8.97c0-.7.34-1.36.93-1.93l.72.04a2.76 2.76 0 0 0-.79 1.9h-.86Zm.93 1.99a2.76 2.76 0 0 1-.93-1.94h.86c0 .75.3 1.38.78 1.89l-.71.05Zm1.1.8a5.4 5.4 0 0 1-1.06-.75l.7-.06c.4.42.92.76 1.48 1.04.32.16.66.3 1 .41l-.47.05v.01a8.13 8.13 0 0 1-1.66-.7Zm4.09 1.14a11.1 11.1 0 0 1-2.34-.4l.48-.06c.64.22 1.28.36 1.86.46Zm.54.02h.03c-.43-.13-.93-.32-1.45-.55l-.86.06a12 12 0 0 0 2.28.5Zm3.48-.43c-.85.25-1.8.4-2.82.43.56-.13 1.22-.32 1.9-.57.34.03.65.08.92.14Zm1.74-.72c-.49.27-1.05.5-1.66.7v-.02c-.26-.06-.57-.1-.9-.14.49-.18.98-.4 1.43-.64.48-.25.92-.53 1.28-.85.37.05.68.1.91.17-.3.28-.65.54-1.06.78Zm2.02-2.75c0 .7-.34 1.36-.92 1.93a5.67 5.67 0 0 0-.9-.17l.29-.28c.4-.44.66-.93.67-1.48h.86Zm-.92-1.98c.58.58.92 1.24.92 1.93h-.86c0-.54-.26-1.03-.67-1.47a4.21 4.21 0 0 0-.37-.35c.37-.03.7-.06.98-.1Zm-1.1-.8c.4.22.76.48 1.05.76-.29.04-.62.07-.98.1a7.17 7.17 0 0 0-1.2-.77c-.45-.25-.94-.46-1.43-.64.33-.03.64-.08.9-.14v-.01c.61.18 1.17.42 1.66.7Zm-2.66-.59c.34-.03.65-.08.92-.14-.85-.25-1.8-.4-2.82-.43.56.13 1.22.32 1.9.57Zm-4.95-.04c-.38.12-.75.27-1.1.44-.54.27-1.03.6-1.41.98l1.1.05c.26-.23.56-.45.87-.65.45-.28.93-.54 1.4-.75l-.86-.07Zm.97.07c-.5.23-1.01.5-1.49.8-.3.18-.57.39-.82.6.24.02.49.02.74.03A10.47 10.47 0 0 1 7.6 5.7l-.3-.02Zm.38-.02-.28-.02c.43-.19.84-.34 1.2-.46-.28.13-.6.3-.92.48Zm2.94.08c.35.2.7.44 1.03.7.3.22.56.47.8.74l.66-.02a6.88 6.88 0 0 0-.9-.69c-.44-.27-.92-.52-1.38-.74l-.21.01Zm.11-.05h-.2c-.3-.16-.58-.3-.86-.42.33.11.7.26 1.06.42Zm.2.04c.44.2.89.44 1.3.7.35.22.67.46.95.72l.76-.04a7.23 7.23 0 0 0-1.15-.74c-.48-.26-1-.48-1.52-.67l-.34.03Zm.23-.07-.32.02c-.44-.2-.88-.37-1.27-.5.49.12 1.03.28 1.59.48Zm2.83 1.5-.76.04c.14.13.26.26.37.4.34.42.56.88.57 1.37h.88c0-.52-.25-1-.65-1.44a4.22 4.22 0 0 0-.4-.38Zm1.06 1.86h-.88c-.01.5-.23.96-.57 1.39l-.27.3c.27.01.52.03.75.06l.32-.3c.4-.44.65-.92.65-1.45Zm-1.02 1.8a16.1 16.1 0 0 0-.75-.07c-.3.3-.66.57-1.05.82-.41.26-.86.5-1.3.7l.34.03c.52-.2 1.04-.41 1.52-.67.46-.24.88-.51 1.24-.81Zm-2.87 1.52-.32-.02c-.44.2-.88.37-1.27.5.49-.12 1.03-.28 1.59-.48Zm-1.49.4c.33-.12.7-.27 1.06-.43h-.2c-.3.16-.58.3-.86.42Zm.95-.49.2.02c.47-.22.95-.47 1.39-.75.37-.23.72-.5 1-.77a25.47 25.47 0 0 0-.67-.04c-.25.31-.56.6-.9.86a8.8 8.8 0 0 1-1.02.68Zm1.96-1.59a30.15 30.15 0 0 1 .69.04l.3-.33c.33-.41.54-.87.55-1.35h-.89c0 .6-.26 1.15-.65 1.64Zm.65-1.69h.89c0-.47-.22-.93-.56-1.34a4.2 4.2 0 0 0-.4-.43l-.67.03c.44.52.74 1.1.74 1.74Zm-7.54-1.8-.76-.04c-.17.16-.34.33-.47.5a2.2 2.2 0 0 0-.56 1.34h.89c0-.44.18-.87.46-1.28.13-.18.27-.36.44-.53Zm-.9 1.85h-.89c0 .48.22.94.56 1.35.12.16.27.31.43.46l.75-.04a4.37 4.37 0 0 1-.39-.48c-.28-.4-.46-.84-.46-1.29Zm.9 1.82-.74.04c.26.23.55.44.86.64.48.3 1 .57 1.5.8l.3-.02a10.48 10.48 0 0 1-1.93-1.46Zm2 1.5-.29.02c.43.19.84.34 1.2.46-.28-.13-.6-.3-.92-.48Zm-.5-.02c-.47-.21-.95-.47-1.4-.75a6.93 6.93 0 0 1-.91-.69l-1.08.07c.39.4.88.73 1.43 1 .35.17.72.32 1.1.44l.87-.07ZM3.76 10.9l1.07-.06a4.26 4.26 0 0 1-.4-.43 2.25 2.25 0 0 1-.58-1.39h-.88c0 .75.3 1.37.79 1.88Zm-.8-1.93h.9c0-.49.22-.95.56-1.38.13-.16.28-.31.44-.46l-1.09-.05c-.49.51-.8 1.14-.8 1.9Z" fill="#6B7272"/></svg>