<!-- by TradingView --><svg width="18" height="18" viewBox="0 0 18 18" xmlns="http://www.w3.org/2000/svg"><path fill="#F0F3FA" d="M0 0h18v18H0z"/><path d="M9.72 15h-.26c-.05 0-.09-.04-.09-.08V6.35c0-.02.02-.05.04-.06L11.5 5c.06-.03.13 0 .13.07v1.39c0 .02 0 .05-.03.06L9.84 7.67c-.02.01-.09.04-.09.06v1c0 .07.13.1.19.08l1.93-1.05c.06-.03.13.01.13.07v1.4c0 .03-.02.05-.04.07l-2.11 1.13c-.03.02-.1.04-.1.07v1c0 .06.13.1.19.07l1.93-1.04c.06-.03.13 0 .13.07v1.59c0 .03-.02.05-.04.07L9.85 13.4c-.03.01-.1.04-.1.06v1.46c0 .04.02.08-.03.08ZM7.75 4.7l1.2.69a.1.1 0 0 0 .1 0l1.2-.7c.04-.02.05-.07.02-.1l-1.2-1.56a.1.1 0 0 0-.14 0L7.73 4.6c-.03.03-.02.08.02.1ZM8.95 6.11 6.5 5.01c-.06-.03-.13.01-.13.07v1.4c0 .03.02.06.05.07l2.45 1.1c.06.03.13 0 .13-.06v-1.4a.08.08 0 0 0-.05-.08ZM8.95 8.92 6.12 7.67a.09.09 0 0 0-.12.09v1.57c0 .03.02.07.05.08l2.83 1.25c.06.02.12-.02.12-.08V9a.09.09 0 0 0-.05-.08ZM8.95 11.78l-2.83-1.1c-.06-.03-.12 0-.12.07v1.4c0 .03.02.05.05.07l2.83 1.1c.06.03.12 0 .12-.07v-1.4a.08.08 0 0 0-.05-.07Z" fill="#E4AC55"/></svg>