<!-- by TradingView --><svg width="18" height="18" viewBox="0 0 18 18" xmlns="http://www.w3.org/2000/svg"><path fill="#942043" d="M0 0h18v18H0z"/><path d="M8 4h2v2.59l1.83-1.83 1.41 1.41L11.41 8H14v2h-2.53l-1.04-1.04.97-.96H10V6.57l-1 .97-1-.97V8H6.64L4.76 6.12l1.41-1.41L8 6.53V4ZM6.62 8H4v2h2.59l1-1.04L6.62 8Zm-.03 2-1.83 1.83 1.41 1.41L8 11.41V14h2v-2.64l1.83 1.83 1.41-1.41L11.47 10H10v1.38l-1-1-1 1V10H6.6Z" fill="#FDE875"/><path d="m6.59 10-1.83 1.83 1.41 1.41L8 11.41V10H6.59Z" fill="#fff"/></svg>