<!-- by TradingView --><svg width="18" height="18" viewBox="0 0 18 18" xmlns="http://www.w3.org/2000/svg"><path d="M0 9a9 9 0 1 1 18 0A9 9 0 1 1 0 9Z" fill="#F0F3FA"/><path d="M9.6 8.44a36.63 36.63 0 0 0-4.1 5.53c-.3-.9.66-3.07 1.18-4.04 2.14-1.97 5-4.16 6.26-4.82.49-.25.7-.02.74.13l-.32.24c-.07-.18-.28-.11-.38-.06-1.05.6-2.69 2.26-3.37 3.02Z" fill="url(#afwwczsik)"/><path d="M13.67 5.23c-.02-.1-.13-.04-.2-.02-.2.1-.18.22-.15.32.18.76.25 2.13.27 2.72 0 .1 0 .3-.03.32-.04.01-.1-.1-.14-.17-1.68-3.2-3.87-3.44-4.22-3.38-.31.05-1.37.32-2.84 2.64a24.67 24.67 0 0 0-2.34 5.15c-.17.5.87 1.05 1.16 1.15.23.08.32.03.34 0l.06-.22c.55-2.69 2.58-7.8 4.26-7.67 1.33.1 2.87 2.48 3.47 3.67.12.23.19.27.24.27.15 0 .47-.32.45-1.79-.03-1.47-.23-2.6-.33-2.99Z" fill="url(#bfwwczsik)"/><defs><linearGradient id="afwwczsik" x1="14.08" y1="4.44" x2="5.52" y2="14.03" gradientUnits="userSpaceOnUse"><stop stop-color="#EAF6E5"/><stop offset=".9" stop-color="#67BD4F"/></linearGradient><linearGradient id="bfwwczsik" x1="6.64" y1="9.81" x2="4.52" y2="13.46" gradientUnits="userSpaceOnUse"><stop stop-color="#0075C9"/><stop offset="1" stop-color="#67BD4F"/></linearGradient></defs></svg>