<!-- by TradingView --><svg width="18" height="18" viewBox="0 0 18 18" xmlns="http://www.w3.org/2000/svg"><path fill="#F0F3FA" d="M0 0h18v18H0z"/><path d="M12.9 8.18h-1.8c0-.12-.15-.8-1.05-.82C9.15 7.36 9 8.42 9 9c0 .63.15 1.64 1.05 1.64.8 0 1-.72 1.05-1.1h1.8c0 .84-.57 2.46-2.85 2.46-2.28 0-2.85-1.88-2.85-3 0-1.16.57-3 2.85-3 2.28 0 2.85 1.43 2.85 2.18Z"/><path fill-rule="evenodd" d="M14.7 6.27h-1.2v5.46h1.2V6.27ZM13.2 6v6H15V6h-1.8Z"/><path d="M3 8.25V12h.6V8.75l-.6-.5Zm1.8 1.5V12h-.6V9.25l.6.5ZM6 12h-.6v-1.88l.6.5V12Zm2.4-6h-.6v1.1h.6V6Zm-.9 0h-.6v1.88L4.79 6h-.74L7.5 9V6ZM3 6.4V6h.45l4.35 4v.63L3 6.4Zm0 1.23V7l5.5 5h-.69L3 7.62Z"/></svg>