<!-- by TradingView --><svg width="18" height="18" viewBox="0 0 18 18" xmlns="http://www.w3.org/2000/svg"><path fill="#F0F3FA" d="M0 0h18v18H0z"/><path d="M10.48 4.22c-.02.7-.68 1.34-1.48 1.34-.8 0-1.46-.64-1.48-1.34a5 5 0 0 1 2.96 0Z" fill="#360075"/><path d="M13.83 7.72c-.63.09-1.4.68-1.4 1.44 0 .7.71 1.33 1.3 1.47.17-.5.27-.9.27-1.47 0-.45-.06-1.03-.17-1.44ZM10.46 13.78c-.12-.6-.73-1.34-1.46-1.34s-1.34.73-1.46 1.34a5 5 0 0 0 2.92 0ZM4.28 10.66c.67-.05 1.28-.7 1.28-1.47 0-.82-.66-1.49-1.37-1.49h-.02c-.11.42-.17 1-.17 1.46 0 .58.1.98.28 1.5Z" fill="#E98402"/><circle cx="6.5" cy="6.5" r="1.5" fill="#E98402"/><circle cx="6.5" cy="11.5" r="1.5" fill="#E98402"/><circle cx="11.5" cy="11.5" r="1.5" fill="#E98402"/><circle cx="11.5" cy="6.5" r="1.5" fill="#E98402"/></svg>