<!-- by TradingView --><svg xmlns="http://www.w3.org/2000/svg" width="18" height="18"><path fill="#F0F3FA" d="M0 0h18v18H0z"/><path d="M9.67 3.5c-.83-.02-2.08 1.3-2.6 1.96l5.71 4.44c.36-.16 1.04-.56.88-.86-.16-.3-.88-.7-1.22-.85.37-.5 1.03-1.6.67-1.98-.36-.38-1.44-.53-1.93-.55-.16-.71-.69-2.14-1.51-2.16z" fill="#523829"/><path d="M9.88 14.5c-.7-.06-1.1-.8-1.22-1.16l2.45-.36c-.03.4-.35 1.6-1.23 1.52zm-3.18-.36c-.87-.18-.94-1.13-.86-1.59l2.14.24c-.07.53-.43 1.53-1.29 1.35zM5.05 9.13c-1.43 1.76-1.08 2.4-.78 2.62.31.2.65.17.78.13V9.13z" fill="#FFC902"/><path d="M4.72 11.1c.16 1.81 2.45 2.4 3.57 2.48 1.9 0 2.93-.5 3.21-.76 1.11.3 1.64.05 1.99-.13.27-.15.22-.38.16-.48a2 2 0 01-.7-.6c.27.03.58-.11.7-.19.96-.5-.28-2.1-1.02-2.83-.24-2.86-2.43-3.6-3.5-3.63C5.87 4.85 5.08 7.61 5.09 9c-.4.67-.42 1.68-.37 2.1z" fill="url(#asvotahth)"/><path d="M6.4 9.89c-.35-.2-.46-.15-.47-.1.06.36.54.96 2.03.96 2.1 0 2.24-.75 2.23-.83-.02-.07-.06-.2-.35-.06-.28.13-1.55.32-1.85.32-.3 0-1.15-.04-1.59-.3z" fill="#E85657"/><path d="M9.38 10.23c-.21.03-.23.29-.21.4.3-.05.49-.15.6-.2a.4.4 0 00-.39-.2zm-2.81-.1c-.18-.06-.32.06-.37.13.1.07.29.23.5.29.03-.1.08-.33-.13-.42z" fill="#F0F3FA"/><ellipse rx="1.2" ry="1.35" transform="matrix(.98693 .16117 -.1655 .9862 6.62 8)" fill="#F0F3FA"/><ellipse rx="1.32" ry="1.43" transform="matrix(.98693 .16117 -.1655 .9862 9.34 8.05)" fill="#F0F3FA"/><ellipse cx="6.88" cy="8.4" rx=".6" ry=".65" fill="#523829"/><ellipse cx="8.97" cy="8.44" rx=".6" ry=".69" fill="#523829"/><defs><linearGradient id="asvotahth" x1="9.35" y1="4.96" x2="6.03" y2="11.98" gradientUnits="userSpaceOnUse"><stop stop-color="#E2C503"/><stop offset="1" stop-color="#F4D600"/></linearGradient></defs></svg>