<!-- by TradingView --><svg width="18" height="18" viewBox="0 0 18 18" xmlns="http://www.w3.org/2000/svg"><path fill="#44529D" d="M0 0h18v18H0z"/><path d="M15.5 6.15c0-.36-.36-.6-.85-.6-1.15 0-3.13 3.57-4.52 7.45l-.13-.02c.02-.26 0-.5 0-.76 0-1.88-.47-3.38-.51-5.22h-.03c-.9 2.02-2.63 6-5.13 6C3.64 13 3 12.58 3 11.75c0-.42.18-.75.54-.75.28 0 .46.21.46.47s-.22.48-.46.53c-.04.61.45.66.98.66 1.73 0 3.99-4.08 4.86-6.18.17-1.17.75-1.48.94-1.48.09 0 .1.05.1.1 0 .11-.14.16-.14.89s-.1 1.48.07 2.26c.15.77.38 1.4.38 2.28 0 .16 0 .33-.02.47h.02c.62-1.7 2.31-6 4.33-6 .55 0 .94.33.94.9 0 .7-.39 1.08-.94 1.1v-.07c.34-.07.44-.31.44-.78Z" fill="#fff"/></svg>