<!-- by TradingView --><svg width="18" height="18" viewBox="0 0 18 18" xmlns="http://www.w3.org/2000/svg"><path fill="#F0F3FA" d="M0 0h18v18H0z"/><path d="M5.9 11.7V12c0 .56.46 1.01 1.02 1.01H11c.57 0 1.03-.45 1.03-1.01v-.28a1 1 0 0 1 .44-.83l2.11-1.43a.9.9 0 0 0 .38-1.04C14.32 6.63 12.55 4 9.03 4S3.7 6.63 3.05 8.41a.9.9 0 0 0 .37 1.04l2.04 1.43a1 1 0 0 1 .44.82Z" fill="#C9976F" fill-opacity=".2"/><path d="M6.2 11.7V12c0 .39.32.71.72.71H11c.4 0 .73-.32.73-.71v-.28c0-.43.21-.84.57-1.08l2.12-1.43c.25-.17.34-.45.26-.7-.61-1.71-2.31-4.2-5.64-4.2-3.34 0-5.07 2.5-5.7 4.22-.09.23.01.52.26.69l2.05 1.42c.35.25.56.64.56 1.07Zm-.3.29v-.29a1 1 0 0 0-.44-.82L3.42 9.45a.9.9 0 0 1-.37-1.04C3.7 6.63 5.51 4 9.03 4c3.51 0 5.3 2.63 5.92 4.4a.9.9 0 0 1-.38 1.05l-2.1 1.43a1 1 0 0 0-.45.83v.28c0 .56-.46 1.01-1.03 1.01H6.92c-.56 0-1.02-.45-1.02-1.01Z" fill="#C9976F"/><path fill-rule="evenodd" d="M8.27 10.54c-.1.15-.24.26-.4.26-.17 0-.3-.11-.4-.26-.1-.14-.2-.33-.26-.55A6.11 6.11 0 0 1 7 8.3c0-.65.08-1.24.21-1.69.07-.22.15-.41.25-.55.1-.15.24-.26.4-.26.17 0 .3.11.4.26.07.08.12.19.17.31.05-.12.1-.23.17-.31.1-.15.24-.26.4-.26.16 0 .3.11.4.26.06.08.12.19.17.31.05-.12.1-.23.16-.31.1-.15.24-.26.4-.26.17 0 .3.11.4.26.1.14.2.33.26.55.13.45.21 1.04.21 1.69 0 .65-.08 1.24-.21 1.69-.07.22-.15.41-.25.55-.1.15-.24.26-.4.26-.17 0-.3-.11-.4-.26-.07-.08-.12-.19-.17-.31-.05.12-.1.23-.17.31-.1.15-.24.26-.4.26-.16 0-.3-.11-.4-.26-.06-.08-.12-.19-.17-.31-.05.12-.1.23-.16.31Zm1.4-.6c.12.4.28.63.47.63.37 0 .68-1.01.68-2.27s-.3-2.27-.68-2.27c-.19 0-.35.24-.47.63.12.44.2 1.01.2 1.64 0 .63-.08 1.2-.2 1.64Zm-.1-2.9a6.55 6.55 0 0 1 0 2.52 6.55 6.55 0 0 1 0-2.52Zm-.1-.38c-.12.44-.2 1.01-.2 1.64 0 .63.08 1.2.2 1.64-.12.4-.29.63-.47.63s-.35-.24-.47-.63c.12-.44.2-1.01.2-1.64 0-.63-.08-1.2-.2-1.64.12-.4.29-.63.47-.63s.35.24.47.63Zm-1.6-.63c.18 0 .34.24.46.63-.12.44-.2 1.01-.2 1.64 0 .63.08 1.2.2 1.64-.12.4-.28.63-.47.63-.37 0-.68-1.01-.68-2.27s.3-2.27.68-2.27Zm.45 2.27c0 .46.04.9.11 1.26a6.55 6.55 0 0 0 0-2.52c-.07.36-.11.8-.11 1.26Z" fill="#CA9A71"/></svg>