<!-- by TradingView --><svg width="18" height="18" viewBox="0 0 18 18" xmlns="http://www.w3.org/2000/svg"><path fill="#F0F3FA" d="M0 0h18v18H0z"/><path d="M11.48 4c-.45.16-.77.44-.97.83-.68 1.37-.38 2.91.34 4.29l.73 1.42c.2.41.34.82.41 1.22.03.18.01.18-.06.03-.67-1.41-2-2.29-3.47-2.75A10.21 10.21 0 0 0 4 8.65V7.1c0-.61.07-1.05.16-1.3a2.7 2.7 0 0 1 1.83-1.71c.2-.05.49-.08.9-.08h4.6Z" fill="#13365E"/><path d="M11.48 4h.97c.32.06.5.28.65.47.17.23.2.53.07.78-.16.35-.24.7-.21 1.06 0 .02-.01.04-.03.05a.05.05 0 0 1-.04.01.05.05 0 0 1-.04-.02 2.34 2.34 0 0 1-.25-1.09.15.15 0 0 0-.07-.12c-.4-.3-.9-.51-1.27-.06a1.6 1.6 0 0 0-.34 1.03c-.01.94.3 1.73.92 2.36.34.35.74.73 1.2 1.16.38.36.7.85.96 1.5v.76c0 .33-.03.58-.09.76a2 2 0 0 1-1.34 1.28c-.16.05-.44.07-.82.07H6.72a2.55 2.55 0 0 1-2.36-1.37 2.7 2.7 0 0 1-.36-1.4V8.66c1.52-.2 3.02-.07 4.46.39a5.52 5.52 0 0 1 3.47 2.75c.07.15.1.15.06-.03-.07-.4-.2-.8-.41-1.22l-.73-1.42c-.72-1.38-1.02-2.92-.34-4.29.2-.39.52-.67.97-.83Z" fill="#F9C301"/><path d="M12.45 4h1.49c.04 0 .06.02.06.06v7.06a4.12 4.12 0 0 0-.96-1.49 44.8 44.8 0 0 1-1.2-1.16 3.17 3.17 0 0 1-.92-2.36c0-.41.12-.75.34-1.03.38-.45.86-.23 1.27.06a.15.15 0 0 1 .07.12 2.35 2.35 0 0 0 .27 1.1.05.05 0 0 0 .06 0 .07.07 0 0 0 .03-.05c-.03-.36.05-.7.21-1.06a.74.74 0 0 0-.07-.78c-.16-.2-.37-.36-.65-.47Z" fill="#13365E"/></svg>