<!-- by TradingView --><svg width="18" height="18" viewBox="0 0 18 18" xmlns="http://www.w3.org/2000/svg"><path fill="#F0F3FA" d="M0 0h18v18H0z"/><path d="m12.7 13.99-7.5-2.4a.3.3 0 0 1-.2-.28v-.07c0-.16.15-.27.3-.23.15.04.3-.08.3-.24V8.85c0-.1-.06-.2-.16-.24l-.02-.02a.23.23 0 0 1 .17-.41l7.28 2.4c.08.03.13.1.13.2v.13a.1.1 0 0 1-.15.1.1.1 0 0 0-.15.09v2.21c0 .1.06.2.15.25h.03a.23.23 0 0 1-.17.43ZM12.7 9.82 5.2 7.43a.3.3 0 0 1-.2-.28v-.08c0-.15.15-.27.3-.23.15.04.3-.08.3-.23V4.68c0-.1-.06-.2-.16-.24l-.02-.01A.23.23 0 0 1 5.59 4l7.28 2.41c.08.03.13.1.13.18v.15a.1.1 0 0 1-.15.09.1.1 0 0 0-.15.1v2.2c0 .11.06.2.15.25l.03.01a.23.23 0 0 1-.17.42Z" fill="#E98026"/></svg>