<!-- by TradingView --><svg width="18" height="18" viewBox="0 0 18 18" xmlns="http://www.w3.org/2000/svg"><path fill="#F0F3FA" d="M0 0h18v18H0z"/><path d="M2 11V7h.63l1.69 2.35V7H5v4h-.59L2.68 8.5V11H2Zm6.7-.42c-.32.26-.76.42-1.3.42-1.45 0-2-.9-2-2s.7-2 2-2c.54 0 .98.16 1.3.42v.92a2 2 0 0 0-1.3-.5c-.77 0-1.18.52-1.18 1.16 0 .64.33 1.17 1.18 1.17.2 0 .4-.04.6-.1v-.24h-.63V9H8.7V10.58Zm7.3 0c-.3.26-.7.42-1.19.42C13.5 11 13 10.1 13 9s.63-2 1.81-2c.5 0 .9.16 1.19.42v.91c-.3-.3-.76-.5-1.19-.5-.69 0-1.06.53-1.06 1.17 0 .64.3 1.17 1.06 1.17.43 0 .9-.2 1.19-.5v.9ZM9.79 11H9V7h.73l1.15 1.62L12.03 7h.75v4H12V8.56l-1.12 1.4-1.1-1.4V11Z" fill="#0D3692"/></svg>