<!-- by TradingView --><svg xmlns="http://www.w3.org/2000/svg" width="18" height="18" viewBox="0 0 18 18"><path fill="#F0F3FA" d="M0 0h18v18H0z"/><rect x="5" y="4" width="3" height="10" rx="1.5" fill="#2F404F"/><rect x="10" y="4" width="3" height="10" rx="1.5" fill="#96C941"/><path d="M5.27 6.35c-.48-.67-.32-1.6.36-2.08a1.5 1.5 0 0 1 2.09.36l5 7.02c.48.67.32 1.6-.36 2.08a1.5 1.5 0 0 1-2.09-.36l-5-7.02z" fill="#289345"/><path d="M10 7.83l2.72 3.82A1.48 1.48 0 0 1 11.5 14a1.5 1.5 0 0 1-1.5-1.5V7.83z" fill="#008D48"/><path d="M6.5 4C5.67 4 5 4.67 5 5.5v.1c.02.26.1.52.27.75L8 10.18V5.5c0-.29-.08-.56-.22-.78l-.06-.1A1.5 1.5 0 0 0 6.5 4z" fill="#187247"/></svg>