<!-- by TradingView --><svg width="18" height="18" viewBox="0 0 18 18" xmlns="http://www.w3.org/2000/svg"><path fill="#F0F3FA" d="M0 0h18v18H0z"/><path d="M9.68 7.91C10.1 6.24 11.32 6 12.6 6c1.52 0 2.6.33 2.37 1.91l-.46 2.85c-.08.48-.06.7.02 1.02h-1.64a1.87 1.87 0 0 1 0-.52c-.57.61-1.26.74-2.09.74-1.34 0-1.96-.59-1.76-1.76.19-1.28.9-1.74 2.1-1.83l1.65-.15c.44-.04.52-.17.57-.46.07-.39-.23-.6-.94-.6-.6 0-.94.23-1.08.7H9.68v.01Zm3.5 1.24c-.13.05-.34.11-.64.15l-1.14.18c-.34.04-.5.22-.57.56-.06.44.18.68.64.68.94 0 1.54-.48 1.66-1.24l.05-.33Z" fill="#B80F2E"/><path d="M3.93 6h1.65l-.14 1h.02a2.5 2.5 0 0 1 1.98-1c1.06 0 1.74.7 1.52 2.15L8.36 12h-1.7l.5-3.17c.12-.75-.14-1.1-.7-1.1-.62 0-1.14.44-1.29 1.4L4.72 12H3l.93-6Z"/></svg>