<!-- by TradingView --><svg xmlns="http://www.w3.org/2000/svg" width="18" height="18" viewBox="0 0 18 18"><path fill="#F0F3FA" d="M0 0h18v18H0z"/><path d="M4.13 7.89c.68-.94 1.9-1.47 4.15-.83 3.96 1.1 5.24-1.45 2.98-2.53A5.01 5.01 0 0 0 4.13 7.9Zm8.38-2.47c.82.8 1.34 1.87 1.47 3.02.16 1.27-.8 2.92-3.42 2.48v-3.4c1.01-.15 1.85-.64 2-1.35.06-.25.04-.51-.05-.75Zm-7 7.17A5.04 5.04 0 0 1 4 9.55c-.14-1.26.81-2.92 3.43-2.48v3.42c-1.01.14-1.83.64-2 1.35-.04.25-.02.5.07.75Zm4.22-1.65c2.25.63 3.47.1 4.16-.83a5 5 0 0 1-7.14 3.36c-2.25-1.06-.98-3.64 2.98-2.53Z" fill="#E49F15"/></svg>