<!-- by TradingView --><svg width="18" height="18" viewBox="0 0 18 18" xmlns="http://www.w3.org/2000/svg"><path fill="#00A39E" d="M0 0h18v18H0z"/><path d="M8.75 7.22V5.99h-.72c-.09.37-.16.78-.22 1.23h.94Zm-1.29 0c.06-.44.13-.86.22-1.23h-1.2c-.22.37-.4.78-.53 1.23h1.51Zm-1.6.34h1.57c-.04.4-.06.8-.07 1.23H5.71c0-.43.06-.84.15-1.23Zm-.27-.34c.12-.44.29-.86.49-1.23H5a5 5 0 0 0-.68 1.23H5.6Zm-1.38.34h1.3c-.09.4-.14.8-.15 1.23H4c.02-.43.09-.84.2-1.23ZM4 9.13a5 5 0 0 0 .18 1.23H5.5c-.08-.4-.12-.8-.13-1.23H4Zm1.7 0c.01.43.06.84.14 1.23h1.58c-.04-.4-.06-.8-.06-1.23H5.7Zm2 0c0 .43.03.84.07 1.23h.98V9.13H7.7Zm-.25 1.57H5.93c.12.45.3.86.5 1.23h1.23a11.3 11.3 0 0 1-.2-1.23Zm.56 1.23c-.08-.37-.16-.78-.2-1.23h.94v1.23H8Zm-.26.34h-1.1a3.1 3.1 0 0 0 1.65 1.29c-.22-.3-.4-.74-.55-1.29Zm-1.71-.34c-.2-.37-.36-.79-.47-1.23H4.3c.15.44.37.86.65 1.23h1.09Zm-.82.34h1.01c.62 1 1.51 1.65 2.52 1.72a5 5 0 0 1-3.53-1.72ZM9.09 14a5 5 0 0 0 3.7-1.73h-1.14c-.63 1.01-1.54 1.67-2.56 1.73Zm0-.4a.9.9 0 0 0 .19-.2 3.35 3.35 0 0 0 .5-1.13h-.69v1.32Zm1.04-1.33c-.15.55-.33 1-.54 1.3a3.1 3.1 0 0 0 1.64-1.3h-1.1Zm1.32-.34h-1.23c.08-.37.15-.79.2-1.23h1.53c-.12.45-.3.86-.5 1.23Zm.4 0h1.2c.28-.37.5-.79.65-1.23h-1.4c-.1.44-.26.86-.46 1.23Zm.54-1.57h1.43A5 5 0 0 0 14 9.13h-1.48c0 .43-.05.84-.13 1.23Zm.13-1.57H14a4.99 4.99 0 0 0-.2-1.23h-1.43c.08.4.14.8.15 1.23Zm-.5-1.23c.09.4.14.8.15 1.23h-1.65c0-.43-.03-.84-.07-1.23h1.57Zm.27-.34h1.39c-.17-.44-.4-.86-.68-1.23h-1.2c.2.37.37.79.49 1.23Zm-.89-1.23c.22.37.4.78.53 1.23H10.4a11 11 0 0 0-.2-1.23h1.2Zm.2-.34h1.11A5 5 0 0 0 9.1 4c1 .06 1.88.68 2.5 1.65ZM8.75 4c-.98.07-1.85.69-2.47 1.64h-1A5 5 0 0 1 8.76 4ZM6.7 5.65h1.07c.14-.51.32-.93.52-1.21-.6.18-1.15.6-1.6 1.2Zm1.43 0 .02-.08c.14-.44.3-.76.45-.97.06-.07.1-.13.15-.16v1.2h-.62Zm.96-1.24c.06.03.12.1.19.19a3.35 3.35 0 0 1 .47 1.05H9.1V4.4Zm1.02 1.24c-.14-.51-.32-.93-.52-1.21.6.18 1.14.6 1.59 1.2H10.1Zm-.26.34h-.76v1.23h.98c-.06-.45-.13-.86-.22-1.23Zm.26 1.57H9.09V8.8h1.08c0-.43-.03-.84-.06-1.23Zm.06 1.57H9.1v1.23h1.02c.04-.39.06-.8.06-1.23Zm.29 1.23h1.57c.09-.39.14-.8.14-1.23h-1.65c0 .43-.03.84-.06 1.23Zm-.38.34h-.99v1.23h.77c.1-.37.16-.78.22-1.23Zm-1.33 2.86c-.05-.03-.1-.09-.15-.16a3.35 3.35 0 0 1-.5-1.13h.65v1.3ZM7.7 8.8c0-.43.03-.84.06-1.23h.98V8.8H7.7Z" fill="#fff"/></svg>