<!-- by TradingView --><svg width="18" height="18" viewBox="0 0 18 18" xmlns="http://www.w3.org/2000/svg"><path fill="#143362" d="M0 0h18v18H0z"/><path d="M6.27 6.17c-.16-.26-.34-.62-.6-1.07-.08-.14-.13-.13-.13.04v2.78c0 .02 0 .04-.02.06a.07.07 0 0 1-.05.02h-.4C5.01 8 5 7.98 5 7.93V4.1c0-.07.03-.11.1-.11h.42c.06 0 .1.03.13.08l1.08 1.75c.16.26.34.62.6 1.07.09.14.12.13.12-.04V4.08a.1.1 0 0 1 .03-.06.07.07 0 0 1 .05-.02h.4c.05 0 .07.02.07.07V7.9c0 .07-.03.11-.1.11h-.42a.15.15 0 0 1-.13-.08L6.27 6.17ZM12.61 4c.07 0 .1.04.1.12v.38c0 .08-.04.12-.11.12l-.67-.03c-.05 0-.07.02-.07.08v2.66c0 .06.02.08.07.08l.67-.03c.06 0 .11.04.11.12v.38c0 .08-.03.12-.1.12h-2.08c-.07 0-.1-.04-.1-.12V7.5c0-.08.05-.12.12-.12l.67.03c.04 0 .06-.02.07-.08V4.67c0-.06-.03-.08-.07-.08l-.67.03c-.07 0-.12-.04-.12-.12v-.38c0-.08.03-.12.1-.12h2.08Z" fill="#fff"/><path d="M13 8.92c0 .03-1.2.1-3.58.22-.06 0-.09.03-.09.1l-.14 4.56-.02.02h-.04v-.01l-.2-4.57c0-.09-.04-.13-.12-.13A34.99 34.99 0 0 1 5 8.92c0-.05 1.27-.11 3.81-.18.08 0 .13-.05.13-.14l.18-4.57h.05l.01.01.15 4.57c0 .06.03.1.1.1 2.38.1 3.57.18 3.57.21Z" fill="#fff"/><path d="M7.02 14h-.56c-.78-.15-1.26-.65-1.4-1.52-.25-1.4.36-2.88 1.9-2.69.75.1 1.24.58 1.46 1.43.01.04 0 .07-.03.07h-.47c-.03 0-.04-.03-.05-.06-.23-.7-.71-.97-1.45-.84-.94.17-1 1.58-.76 2.26.37 1.12 1.9.97 2.2-.16 0-.03.02-.05.04-.05h.49c.03 0 .04.03.04.06-.22.83-.7 1.36-1.41 1.5ZM13 13.45v.49c0 .01 0 .03-.02.04a.06.06 0 0 1-.04.02h-2.88c-.02 0-.03 0-.04-.02a.06.06 0 0 1-.02-.04v-3.88c0-.01 0-.03.02-.04a.06.06 0 0 1 .04-.02h2.88c.01 0 .03 0 .04.02l.02.04v.5l-.02.04a.06.06 0 0 1-.04.01h-2.3l-.02.02a.06.06 0 0 0-.02.05V11.63a.06.06 0 0 0 .04.03h2l.02.01a.06.06 0 0 1 .04.03V12.15c0 .02 0 .03-.02.04a.06.06 0 0 1-.04.02h-1.98l-.04.02a.06.06 0 0 0-.02.05v1.04c0 .02 0 .03.02.05l.04.01h2.28l.04.02.02.05Z" fill="#fff"/></svg>