<!-- by TradingView --><svg width="18" height="18" viewBox="0 0 18 18" xmlns="http://www.w3.org/2000/svg"><path fill="#F0F3FA" d="M0 0h18v18H0z"/><path fill-rule="evenodd" d="M9 14A5 5 0 1 0 9 4a5 5 0 0 0 0 10Zm0-1a4 4 0 1 0 0-8 4 4 0 0 0 0 8Z" fill="#5A60AA"/><path d="m9 3 1.35 1.6h-2.7L9 3ZM9 15l1.35-1.6h-2.7L9 15ZM15 9l-1.6 1.35v-2.7L15 9ZM3 9l1.6 1.35v-2.7L3 9ZM9.64 10.24c-.06-.17-.27-.31-.4-.39l-.65-.34a3.88 3.88 0 0 1-.89-.61 1.5 1.5 0 0 1-.5-1.1c-.01-.32.05-.63.2-.9.21-.42.56-.68.94-.8.28-.09.57-.12.88-.09.33.03.65.12.95.3.46.28.81.83.83 1.49.01.36-.12.8-.44.88-.24.05-.42-.06-.52-.33l-.15-.46c-.12-.36-.34-.58-.66-.63a2.42 2.42 0 0 0-.37-.04c-.16 0-.39.03-.5.18-.14.2-.02.48.14.6.12.1.24.19.37.25l.66.34c.3.16.56.36.8.6.36.38.57.94.43 1.54-.1.46-.43.78-.76.98-.66.38-1.43.4-2.08-.02a2.1 2.1 0 0 1-.81-1.02c-.12-.3-.2-.87.1-1.07.18-.13.38-.15.56.02.08.08.16.19.23.3.17.26.3.47.52.63.14.1.29.16.45.16.19 0 .58.02.66-.26a.38.38 0 0 0 0-.21Z" fill="#5A60AA"/></svg>