<!-- by TradingView --><svg width="18" height="18" viewBox="0 0 18 18" xmlns="http://www.w3.org/2000/svg"><path fill="#F0F3FA" d="M0 0h18v18H0z"/><path d="M11.15 6.87c.25-.39.52-.85.52-1.35C11.67 4.13 10.4 3 9.02 3c-1.4 0-2.69 1.13-2.69 2.52 0 .52.32 1 .58 1.4-.4-.27-.87-.4-1.39-.4A2.5 2.5 0 0 0 3 9.03c0 1.4 1.13 2.45 2.52 2.45.26 0 .51.03.75-.04-.5.35-1.01.55-1.4.55-.5 0-.91-.13-1.17-.25-.15-.07-.34-.04-.44.1-.1.12-.08.3.07.38.33.18.87.37 1.54.37.53 0 1.14-.25 1.68-.62-.04.17-.22.34-.22.52 0 1.39 1.3 2.52 2.69 2.52 1.4 0 2.65-1.13 2.65-2.52 0-.47-.26-.91-.48-1.29.38.22.82.28 1.29.28 1.39 0 2.52-1.06 2.52-2.45a2.5 2.5 0 0 0-2.52-2.5c-.49 0-.94.11-1.33.35Z" fill="#6FB93C"/><path d="M8 14v-2h1.02c.48 0 .9.24.9.67 0 .41-.36.66-.92.66h-.64V13h.53c.21 0 .46-.13.46-.33s-.25-.34-.46-.34h-.22V14H8Zm1.39-.91L10 14h-.65l-.6-.91h.64ZM8.6 11.5H8l.68-2h.64l.68 2h-.6L9 10l-.4 1.5Zm-.15-.67h1.1v.34h-1.1v-.34ZM10 8c0 .5-.34 1-1 1-.66 0-1-.5-1-1s.33-1 1-1c.66 0 1 .5 1 1Zm-.6 0c0-.26-.02-.59-.4-.59s-.4.33-.4.59c0 .26.02.59.4.59s.4-.33.4-.59ZM10 4v2h-.67l-.66-1.15V6H8V4h.67l.66 1.15V4H10Z" fill="#F0F3FA"/></svg>