<!-- by TradingView --><svg width="18" height="18" viewBox="0 0 18 18" xmlns="http://www.w3.org/2000/svg"><path fill="#F0F3FA" d="M0 0h18v18H0z"/><path d="M13 4v1h1v8h-1v1H5v-1H4V5h1V4h8Zm-4 9a4 4 0 1 0 0-8 4 4 0 0 0 0 8Z" fill="#005DAA"/><path fill-rule="evenodd" d="M8.47 6c-.33 0-.67.27-.67.6 0 .33.24.6.57.6h.03v2.94c0 .36-.24.66-.6.66s-.6-.3-.6-.66V9.6a.6.6 0 0 0-.6-.6.6.6 0 0 0-.6.6v.54C6 11.17 6.78 12 7.8 12s1.8-.83 1.8-1.86V9.6h.59c1 0 1.81-.76 1.81-1.77S11.19 6 10.19 6H8.47Zm1.7 1.2H9.6v1.2h.57c.35 0 .63-.27.63-.6 0-.33-.28-.6-.63-.6Z" fill="#00998B"/></svg>