<!-- by TradingView --><svg width="18" height="18" viewBox="0 0 18 18" xmlns="http://www.w3.org/2000/svg"><path fill="#F0F3FA" d="M0 0h18v18H0z"/><path d="M9 13 2 9.01 9 5l7 4.01L9 13ZM2.66 9.01 9 12.63 15.36 9 9 5.37 2.66 9.01Zm4.37 1.13c-.66 0-1.21-.59-1.21-1.3 0-.73.53-1.31 1.2-1.31.39 0 .73.2.94.48l.53-.13A1.7 1.7 0 0 0 7.03 7c-.96 0-1.72.82-1.72 1.83 0 1.02.76 1.84 1.72 1.84a1.7 1.7 0 0 0 1.46-.88l-.53-.14c-.23.31-.55.49-.93.49Zm1.39.53c.14 0 .25-.11.25-.25s-.11-.27-.25-.25c-.15 0-.25.1-.25.25 0 .14.1.25.25.25Zm2.3-.53c-.66 0-1.21-.59-1.21-1.3 0-.73.53-1.31 1.2-1.31.39 0 .73.2.94.48l.53-.13A1.7 1.7 0 0 0 10.72 7C9.76 7 9 7.82 9 8.83c0 1.02.76 1.84 1.72 1.84a1.7 1.7 0 0 0 1.46-.88l-.53-.12c-.23.3-.57.47-.93.47Zm1.36.53c.15 0 .25-.11.25-.25s-.1-.27-.25-.25c-.14 0-.25.1-.25.25 0 .14.11.25.25.25Z" fill="#0072BA"/></svg>