<!-- by TradingView --><svg width="18" height="18" viewBox="0 0 18 18" xmlns="http://www.w3.org/2000/svg"><path fill="#F0F3FA" d="M0 0h18v18H0z"/><path d="M3 9.02A6.05 6.05 0 0 0 9 15c3.26 0 6-2.71 6-5.98A6.1 6.1 0 0 0 9 3C5.68 3 3 5.7 3 9.02ZM9 3.5c3.15 0 5.5 2.37 5.5 5.52A5.3 5.3 0 0 1 9 14.5a5.35 5.35 0 0 1-5.5-5.48A5.38 5.38 0 0 1 9 3.5Z" fill="#C41E3A"/><path d="M9.02 4a5 5 0 1 1-.04 10 5 5 0 0 1 .04-10ZM13 8c0 .49-.16 1.28-.79 2.01-.84.95-1.86.99-1.93.99H8.5v-.15s1.82-.24 2.62-.9a2.97 2.97 0 0 0 1.1-2.1c-.01-.42-.04-.56-.04-.67a2.1 2.1 0 0 0-.81-.18H11v-.38c0-1.08-.9-1.96-1.98-1.96-.35 0-.74.2-1.02.34.53.03 1.3.15 2.04.78.94.84.96 1.86.96 1.93V9.5h-.12s-.25-1.83-.92-2.63a2.99 2.99 0 0 0-2.1-1.09c-.42 0-.56.04-.63.04-.14.24-.23.4-.23.68V7h-.5c-1.09 0-1.8.92-1.8 2 0 .35.12.72.3 1 .04-.52.16-1.31.82-2.05C6.67 7.01 7.93 7 8 7h1.5v.11s-1.78.28-2.62.91a3.1 3.1 0 0 0-1.1 2.13c0 .42.04.53.08.63.25.1.53.22.8.22H7v.34a2 2 0 0 0 2.02 1.96c.35 0 .7-.13.98-.3a3.06 3.06 0 0 1-2-.82c-.95-.84-1-1.85-1-1.92V8.5h.16s.24 1.8.88 2.6a3.04 3.04 0 0 0 2.1 1.12c.46 0 .56-.04.67-.07.1-.25.19-.53.19-.8V11h.37a2 2 0 0 0 1.96-2c0-.38-.15-.72-.33-1Z" fill="#001441"/></svg>