<!-- by TradingView --><svg width="18" height="18" viewBox="0 0 18 18" xmlns="http://www.w3.org/2000/svg"><path fill="#F0F3FA" d="M0 0h18v18H0z"/><path d="M10.37 4H9.4s-.05 0-.25.1c-.12.06-.24.1-.37.14-.1.02-.1.03 0 .04a2.93 2.93 0 0 0 1.6-.28Zm2.1.5a6.32 6.32 0 0 1-1.4.14 3.61 3.61 0 0 0 .87-.34.02.02 0 0 0-.02-.02 6 6 0 0 0-.82-.17 5.23 5.23 0 0 1-2.4.48l.01.01c.65.36 1.44.48 2.17.52.76.05 1.6.02 2.5-.07.04 0 .04-.02 0-.05a4.87 4.87 0 0 0-.91-.5Zm-5.59.2.57-.23a.88.88 0 0 1 .28-.06c.2 0 .41-.04.62-.11.09-.03.1-.02.02.04-.4.3-.97.42-1.48.4-.05 0-.06-.01 0-.04Zm-.78.84c.13 0 .14 0 0 .04-.25.07-.56.14-.9.2a6.34 6.34 0 0 0-.58.5c-.04.04-.04.05.01.04a8.1 8.1 0 0 0 3.54-1.45c.11-.09.1-.1-.03-.05a8.09 8.09 0 0 1-2.21.4l-.42.28c-.04.02-.04.04.01.04h.58Zm6.34 1.15.15.08a12.55 12.55 0 0 0 2.36.77l.01.02a4.22 4.22 0 0 1-.22 1.99h-.01c-.9-.46-1.78-.96-2.62-1.5A16.6 16.6 0 0 1 9.94 6.4c-.43-.4-.83-.83-1.16-1.3-.01-.03 0-.03.02-.02a9.5 9.5 0 0 0 3.04.51A22.05 22.05 0 0 0 14 5.55l.03.02a3.89 3.89 0 0 1 .63.99 11.3 11.3 0 0 1-2.21.13ZM3 9.3v.03h.09a15.7 15.7 0 0 0 5.06-3.96c.03-.03.03-.04-.02-.02l-.16.1a13.52 13.52 0 0 1-4.02 1.6c-.14.21-.28.43-.4.65 0 .03 0 .04.03.03.48-.09.96-.21 1.45-.36.07-.02.07-.01.01.03a11.2 11.2 0 0 1-1.77.93 4.54 4.54 0 0 0-.23.93c0 .05-.01.06-.04.04ZM8.64 14h-.25l.24-8.31c0-.02 0-.02.02 0 .4.54.84 1.03 1.32 1.48 1.32 1.23 2.8 2.3 4.36 3.23.02.01.03.03.02.05a6.57 6.57 0 0 1-1.8 1.97c-.58-.5-1.13-1.03-1.63-1.59a6.91 6.91 0 0 1-.58-.7l.9 3.1-.02.02a7.11 7.11 0 0 1-2.78.73l.2.02Zm-2.81-3.63v.03A35.57 35.57 0 0 1 4.61 13a5.37 5.37 0 0 0 2.46.91l1.14-7.91c0-.03 0-.04-.03-.01-.72.84-1.52 1.63-2.39 2.37-.9.76-1.8 1.46-2.71 2.08a.08.08 0 0 0-.04.09 3.78 3.78 0 0 0 .7 1.6h.02a16.83 16.83 0 0 0 2.07-1.77Z" fill="url(#acdyhto0p)"/><defs><linearGradient id="acdyhto0p" x1="9" y1="4" x2="8.94" y2="11.21" gradientUnits="userSpaceOnUse"><stop stop-color="#C5DD00"/><stop offset="1" stop-color="#086631"/></linearGradient></defs></svg>