<!-- by TradingView --><svg width="18" height="18" viewBox="0 0 18 18" xmlns="http://www.w3.org/2000/svg"><path fill="#F0F3FA" d="M0 0h18v18H0z"/><path fill-rule="evenodd" d="M9 14A5 5 0 1 0 9 4a5 5 0 0 0 0 10Zm0-.72A4.26 4.26 0 0 0 13.25 9c0-2.36-1.9-4.28-4.25-4.28A4.26 4.26 0 0 0 4.75 9c0 2.36 1.9 4.28 4.25 4.28Z" fill="#091164"/><path d="M8.97 5.11c-.17.16-.34.35-.5.55-.31.44-.57.96-.76 1.55a7.85 7.85 0 0 0 2.52.01 5.14 5.14 0 0 0-1.26-2.1Zm1.4 2.67a8.38 8.38 0 0 1-2.8 0c-.07.34-.11.7-.12 1.07h3.04a6.46 6.46 0 0 0-.12-1.07Zm.12 1.64H7.45c.02.33.06.65.12.96a8.36 8.36 0 0 1 2.8-.01c.06-.3.1-.62.12-.95Zm-3.6-.57c.02-.41.07-.81.15-1.2a6.96 6.96 0 0 1-1.57-.57A4.02 4.02 0 0 0 5 8.85h1.9Zm-1.87.57H6.9c.02.37.07.73.14 1.07a7 7 0 0 0-1.48.54 4 4 0 0 1-.54-1.6Zm6.02 0h1.94a4 4 0 0 1-.54 1.6 7.03 7.03 0 0 0-1.53-.55c.07-.33.11-.68.13-1.05ZM13 8.85h-1.96a6.9 6.9 0 0 0-.13-1.18 6.99 6.99 0 0 0 1.62-.6c.28.54.45 1.14.47 1.78Zm-5.82 2.2c-.47.1-.9.26-1.3.45a4 4 0 0 0 2.26 1.4 5.52 5.52 0 0 1-.96-1.86Zm4.94.45c-.41-.2-.87-.36-1.35-.47a5.52 5.52 0 0 1-.98 1.9 4 4 0 0 0 2.33-1.43Zm-2.66.98c.32-.43.59-.96.77-1.56a7.87 7.87 0 0 0-2.52.01A5.14 5.14 0 0 0 8.93 13H9c.17-.15.32-.32.46-.52Zm1.3-5.36A5.38 5.38 0 0 0 9.6 5a4 4 0 0 1 2.63 1.6c-.43.21-.92.4-1.45.52Zm-4.98-.53c.42.22.89.39 1.4.51.25-.82.65-1.54 1.16-2.09A4 4 0 0 0 5.78 6.6Z" fill="url(#a)"/><defs><linearGradient id="a" x1="10.53" y1="5.59" x2="8.49" y2="9.74" gradientUnits="userSpaceOnUse"><stop stop-color="#AEDAF3"/><stop offset="1" stop-color="#0488E4"/></linearGradient></defs></svg>