<!-- by TradingView --><svg width="18" height="18" viewBox="0 0 18 18" xmlns="http://www.w3.org/2000/svg"><path fill="#B6261E" d="M0 0h18v18H0z"/><path d="M9 6c-.83 0-1.5.44-1.5 1.5v1.41a2.38 2.38 0 0 0 0 .18v1.4c0 .88.45 1.33 1.06 1.46v.1c0 .47.23.95.52.95h1.42v-1h-.75c-.06 0-.11-.03-.17-.08.54-.17.92-.62.92-1.43V9.1a2.32 2.32 0 0 0 0-.18v-1.4C10.5 6.44 9.83 6 9 6Zm-.27 1.25c0-.14.12-.25.27-.25.15 0 .27.11.27.25v3.5c0 .14-.12.25-.27.25-.15 0-.27-.11-.27-.25v-3.5ZM5.5 6C4.67 6 4 6.44 4 7.5v1.41a2.38 2.38 0 0 0 0 .18v1.4C4 11.56 4.67 12 5.5 12c.22 0 .42-.12.6-.33l.2.33H7V9.06a2.34 2.34 0 0 0 0-.15v-.24H5.64v1h.13v1.08c0 .14-.12.25-.27.25-.15 0-.27-.11-.27-.25v-3.5c0-.14.12-.25.27-.25.15 0 .27.11.27.25v1.08H7v-.82C7 6.44 6.33 6 5.5 6ZM11 6h1.04l.46 1.96.46-1.96H14l-1 4v2h-1v-2l-1-4Z" fill="#fff"/></svg>