<!-- by TradingView --><svg width="18" height="18" viewBox="0 0 18 18" xmlns="http://www.w3.org/2000/svg"><path fill="#F0F3FA" d="M0 0h18v18H0z"/><path d="M7.25 9.38c-1.04-.4-1.73-.99-2.06-1.74-.3-.7-.25-1.37.14-2.05a3.14 3.14 0 0 1 1.93-1.4 5.43 5.43 0 0 1 3.27.16c.23.07.22.07.44 0l.65-.19c.25-.07.38 0 .38.22v3.05c0 .22-.08.28-.32.2a.86.86 0 0 1-.51-.46c-.24-.47-.18-.94-.36-1.4a.74.74 0 0 0-.38-.38 3.63 3.63 0 0 0-2.64-.3c-.36.1-.62.28-.77.57a.83.83 0 0 0 .03.85c.23.4.72.79 1.46 1.18.42.21 1.05.48 1.87.8 1.16.44 1.94 1.04 2.34 1.8.43.8.36 1.68-.2 2.63-.34.59-1.17.93-2.47 1.04-1 .08-1.96.03-2.9-.15-.2-.04-.4-.05-.6-.02l-1.08.16c-.28.04-.48-.06-.47-.3v-2.82c.05-.5.44-.53.7-.06l.12.24c.4.73.73 1.22 1.02 1.47.47.42 1.12.65 1.96.71 1.28.1 2.03-.38 2.27-1.4.05-.22-.03-.39-.23-.52a17.13 17.13 0 0 0-3.59-1.89Z" fill="#F77A28"/></svg>