<!-- by TradingView --><svg width="18" height="18" viewBox="0 0 18 18" xmlns="http://www.w3.org/2000/svg"><path fill="#F0F3FA" d="M0 0h18v18H0z"/><path fill-rule="evenodd" d="M11.47 11c-1.41 2.52-3.78 3.68-5.29 2.59-1.5-1.1-1.58-4.04-.16-6.57 1.42-2.54 3.79-3.7 5.3-2.6.92.67 1.31 2.04 1.14 3.58H15l-1.4 3h-2.13Zm-1.03 0c-1.16 1.7-2.87 2.43-4 1.62-1.21-.89-1.27-3.26-.13-5.3 1.15-2.05 3.07-3 4.3-2.11.72.53 1.04 1.59.93 2.79H9.4L8 11h2.44Z" fill="#005EAD"/><path d="M11.88 5c.52.74.71 1.82.58 3H15l-.47 1h-5.6l.47-1h2.14c.11-1.2-.2-2.26-.93-2.8a1.74 1.74 0 0 0-.38-.2h1.65Z" fill="#619CCD"/></svg>