<!-- by TradingView --><svg width="18" height="18" viewBox="0 0 18 18" xmlns="http://www.w3.org/2000/svg"><path fill="#F0F3FA" d="M0 0h18v18H0z"/><path d="M12.13 5.03c.99.8 1.59 1.86 1.8 3.19a5.04 5.04 0 0 1-.5 3.2.65.65 0 0 1-.24.28l-.47.3c-.02 0-.09 0-.06-.04l.16-.21c.53-.83.86-1.92.86-2.87a4.83 4.83 0 0 0-4.55-4.54c-.7-.04-1.4.05-2.12.28-.03 0 .02-.06.03-.06a4.52 4.52 0 0 1 5.1.47ZM7.91 7.06c.68-.4 1.12-1.2 1.09-2C9 5.03 8.97 5 8.92 5c-.13.02-.26.05-.39.1a.1.1 0 0 0-.07.08c-.04.56-.26 1-.68 1.33l-.3.23c-.19.1-.44.23-.78.38-.23.1-.5.26-.81.48-.67.48-1 1.23-.86 2.04.07.42.22.85.45 1.29.04.07.1.09.16.06l.13-.05c.06-.03.1-.06.09-.1l.39.25c.02.02.06 0 .07-.02a.06.06 0 0 0-.01-.09l-.49-.32a.05.05 0 0 0-.04 0 3.94 3.94 0 0 1-.2-.48l1.08.53c.03.01.07 0 .09-.04.01-.04 0-.08-.03-.1L5.54 10h-.02c-.18-.66-.1-1.28.48-1.84.15-.15.37-.3.56-.39.45-.22.9-.46 1.35-.7Zm-.94-.31c-.1-.13-.18-.27-.26-.41a7.48 7.48 0 0 1-.52-1.32c-.05-.05-.14 0-.15.05-.14.68.08 1.2.47 1.84.05.09.14.11.25.07l.14-.05c.1-.04.13-.1.07-.18Zm5.61 4.2c-.11.3-.23.57-.35.8-.03.05-.06.1-.1.13l-.06.1c-.02.02-.01.02 0 .02.03 0 .05-.02.07-.05.67-1 .95-2.16.83-3.5a4.65 4.65 0 0 0-.55-1.88C11.83 5.5 11.04 4.99 10.06 5c-.03 0-.05.03-.06.07v.38c0 .04.01.06.04.06.9-.07 1.75.58 2.27 1.57.39.72.56 1.53.53 2.43-.02.52-.1 1-.26 1.44ZM6.46 8.04l.48-.08c.03 0 .06.02.07.06 0 .05-.02.08-.05.09l-.47.08c-.04 0-.07-.02-.08-.06v-.01c0-.04.02-.07.05-.08Zm3.87.15c-.05 0-.08.02-.1.05-.15.34-.39.63-.7.87-.1.06-.24.07-.3-.03-.33-.54 0-.85.34-1.18.24-.23.49-.47.53-.8 0-.13.05-.13.13-.02.14.21.23.43.28.66.1.48-.03.94-.42 1.37a.1.1 0 0 1-.07.02c-.03 0-.11 0-.08-.02.28-.26.43-.55.44-.88 0-.03-.02-.04-.05-.04Zm-1.55.6a.33.33 0 0 1-.03-.22c.01-.1.04-.1.08 0 .06.12.1.24.14.36.04.1.05.2.03.3L9 9.56c0 .04.07-.1.08-.12.13-.73-.3-1.36-.94-1.82-.03-.02-.1 0-.08.04a1 1 0 0 1 .1.54c0 .13-.04.25-.07.38-.04.14-.08.28-.08.43 0 .26.17.61.45.74.09.04.14.02.17-.06a7 7 0 0 0 .19-.56.45.45 0 0 0-.03-.34Zm2.32 1c-.46.38-.97.61-1.52.71-.12.02-.27.03-.46.02-.02 0-.03 0-.03-.03a.81.81 0 0 0 .04-.21c0-.07.01-.13.04-.2.16-.32.35-.59.69-.78.13-.07.28-.13.48-.17.55-.13 1.3-.34 1.58-.85.04-.07.06-.07.08.01v.1c-.09.43-.23.84-.43 1.2-.07.14-.16.26-.26.36l-.1.13c-.1.1-.2.21-.31.3-.18.14-.36.26-.55.36A3.37 3.37 0 0 1 9.3 11c-.05 0-.07-.06-.01-.07.12 0 .23-.03.34-.06.24-.07.47-.16.67-.27a2.82 2.82 0 0 0 .87-.73c.02-.04-.02-.12-.07-.07ZM7.06 8.55l-.87-.19c-.03 0-.06.02-.07.06 0 .04.02.07.05.08l.86.19c.04 0 .07-.02.08-.06 0-.04-.02-.07-.05-.08Zm-1.22.14 1.43.34c.03 0 .05.04.04.07 0 .04-.03.06-.07.06L5.82 8.8c-.03-.01-.05-.04-.05-.08.01-.04.04-.06.07-.05Zm1.45.98L5.63 9.1c-.03-.01-.07 0-.08.04 0 .04.01.07.04.09l1.67.56c.03.01.06 0 .07-.04.01-.04 0-.07-.04-.09Zm-1.78-.18h-.02l-.04.11v.02l1.44.65.1.04H7c.04.02.16.07.17.03l.01-.04-.06-.06a1.3 1.3 0 0 0-.18-.1l-1.43-.65Zm2.16-.94c.35.61.46 1.57.14 2.24a2.6 2.6 0 0 1-1.16 1.2l-.26.14c-.34.17-.69.35-.97.58-.4.34-.7.75-.86 1.25l-.03.04a.07.07 0 0 1-.04.01h-.44c-.03 0-.05-.04-.05-.08.2-1.32 1.33-1.9 2.31-2.4.47-.24.92-.52 1.12-1.1.23-.73.03-1.59-.38-2.17-.06-.07-.05-.12.03-.17l.1-.06a.14.14 0 0 1 .1-.02c.03 0 .06.03.08.06.1.11.2.27.31.48Zm3.93 2.82c-.2.02-.4.03-.62.03a.78.78 0 0 1-.38-.12c-.04-.01-.05-.06-.03-.1.26-.47.65-.49 1.09-.4.24.06.46.03.66-.07.13-.06.15-.03.07.09-.22.32-.48.58-.79.76a.82.82 0 0 1-.56.1c-.05 0-.05 0 0-.02.17-.03.35-.08.53-.15.03 0 .1-.13.03-.12Zm-1.01 1.99a4.42 4.42 0 0 1-1.64-.27c-.53-.2-1-.52-1.44-.98-.07-.08-.08-.15-.01-.24.57-.73 1.26-1 2.06-.8.28.07.67.31.95.52.4.27.8.47 1.23.58.27.07.56.08.9.03a.61.61 0 0 0 .2-.08c.2-.11.21-.08.05.1a5.51 5.51 0 0 1-2.3 1.62c-1.22.39-2.38.1-3.46-.85a.56.56 0 0 1-.12-.14c-.02-.04-.01-.05.02-.02.13.07.26.16.38.24a3.35 3.35 0 0 0 3.17.37c.03 0 .04-.08 0-.08Zm-4.55-.76a3.77 3.77 0 0 0 1.85 1.36c.1.03.19.05.28.05 0 0 .02 0 .02-.02s0-.03-.02-.03h-.05l-.14-.04c-.07-.05-.15-.08-.23-.12a3.69 3.69 0 0 1-1.46-1.38c-.05-.08-.12-.1-.2-.04l-.03.02c-.07.05-.08.12-.02.2Z" fill="url(#agddjxaai)"/><defs><linearGradient id="agddjxaai" x1="10.35" y1="4.79" x2="6.97" y2="13.82" gradientUnits="userSpaceOnUse"><stop stop-color="#276B4A"/><stop offset="1" stop-color="#A7CC50"/></linearGradient></defs></svg>