<!-- by TradingView --><svg width="18" height="18" viewBox="0 0 18 18" xmlns="http://www.w3.org/2000/svg"><path fill="#F0F3FA" d="M0 0h18v18H0z"/><circle cx="4" cy="12" r="1" fill="#009844"/><path d="M6 11.33c0-.18.2-.33.45-.33h8.1c.25 0 .45.15.45.33v1.34c0 .18-.2.33-.45.33h-8.1c-.25 0-.45-.15-.45-.33v-1.34ZM7.11 10H3.9A.9.9 0 0 1 3 9.1V5.9c0-.5.4-.9.89-.9h3.55c.28 0 .55.13.72.36L9 6.82V5.9c0-.5.4-.91.89-.91h4.22c.5 0 .89.4.89.9v3.2c0 .5-.4.9-.89.9h-4.9a.88.88 0 0 1-.7-.34L8 8.86v.23c0 .5-.4.91-.89.91Z" fill="#009844"/></svg>