<!-- by TradingView --><svg xmlns="http://www.w3.org/2000/svg" width="18" height="18" viewBox="0 0 18 18"><path fill="#F0F3FA" d="M0 0h18v18H0z"/><path d="M9 15A6 6 0 1 0 9 3a6 6 0 0 0 0 12Z" fill="#ED192E"/><path d="M10.22 11.07c.08.64-.36 1.22-.99 1.3a1.14 1.14 0 0 1-1.26-1.01l-.5-4.06c-.07-.63.37-1.21 1-1.3.62-.07 1.18.38 1.26 1.02l.5 4.05Zm3.76-4.51a1.45 1.45 0 0 0-1.04-.5c-.4-.04-.94.04-1.37.4-.43.35-.52.57-.68 1.04l-.66 2 .14 1.12 1.03-3.2c.21-.6.63-.83.71-.87.09-.04.1 0 .06.08-.14.2-.22.43-.22.69 0 .65.52 1.17 1.15 1.17.64 0 1.15-.52 1.15-1.17 0-.3-.1-.55-.27-.76Zm-7.44 4.5.87-2.64.15 1.17-.48 1.44c0 .03-.02.06-.03.08-.07.2-.13.35-.42.66-.33.34-.89.64-1.45.57-.55-.06-.75-.14-1.1-.48-.2-.2-.33-.5-.33-.82 0-.65.51-1.18 1.15-1.18.63 0 1.15.53 1.15 1.18 0 .27-.08.54-.25.73-.08.08-.1.16.06.08.15-.08.52-.32.68-.8Z" fill="#fff"/></svg>