<!-- by TradingView --><svg width="18" height="18" viewBox="0 0 18 18" xmlns="http://www.w3.org/2000/svg"><path fill="url(#a)" d="M0 0h18v18H0z"/><path d="M9.4 4.35c0 .2-.17.36-.4.36-.22 0-.4-.16-.4-.36 0-.2.18-.35.4-.35.23 0 .4.16.4.35Zm1.63 1.6c.26 0 .47-.2.47-.42 0-.23-.21-.42-.47-.42s-.47.19-.47.42c0 .23.21.41.47.41Zm-6.4 3.49c.21-.05.37-.22.37-.43s-.16-.39-.38-.43V7.03A.5.5 0 0 0 4.71 7l1.5.76a.5.5 0 0 0-.02.13c0 .3.28.55.62.55.17 0 .33-.06.44-.15l1 .5a.62.62 0 0 0-.03.21c0 .38.35.7.78.7.23 0 .43-.1.58-.23l1 .5a.5.5 0 0 0-.02.14c0 .3.28.56.63.56.17 0 .32-.06.43-.16l1.46.74a.38.38 0 0 0-.02.11c0 .23.21.42.47.42s.47-.19.47-.42c0-.18-.13-.33-.31-.4V9.43a.45.45 0 0 0 .31-.41.45.45 0 0 0-.31-.41V7.03c.18-.06.31-.21.31-.4 0-.22-.21-.4-.47-.4s-.47.18-.47.4c0 .19.13.34.31.4v1.55c-.21.04-.37.22-.37.43 0 .2.16.38.38.43v1.53a.5.5 0 0 0-.1.04l-1.49-.75a.5.5 0 0 0 .02-.15c0-.3-.28-.55-.62-.55a.66.66 0 0 0-.45.17l-1-.5A.62.62 0 0 0 9.78 9c0-.38-.35-.7-.78-.7-.24 0-.45.1-.6.25l-.99-.5a.5.5 0 0 0 .03-.16c0-.3-.28-.56-.63-.56a.66.66 0 0 0-.46.18l-1.44-.73c.02-.04.03-.09.03-.14 0-.23-.21-.42-.47-.42S4 6.41 4 6.64c0 .18.13.33.31.4V8.6A.45.45 0 0 0 4 9c0 .2.13.35.31.42v1.55c-.18.06-.31.21-.31.4 0 .22.21.4.47.4s.47-.18.47-.4c0-.19-.13-.34-.32-.4V9.44Zm2.34 3.45c.26 0 .47-.19.47-.42 0-.23-.21-.41-.47-.41s-.47.18-.47.41c0 .23.21.42.47.42Zm4.53-.42c0 .23-.21.42-.47.42s-.47-.19-.47-.42c0-.23.21-.41.47-.41s.47.18.47.41ZM9 14c.23 0 .4-.16.4-.35 0-.2-.17-.36-.4-.36-.22 0-.4.16-.4.36 0 .2.18.35.4.35ZM7.44 5.53c0 .23-.21.41-.47.41s-.47-.18-.47-.41c0-.23.21-.42.47-.42s.47.19.47.42ZM9 7.2c.37 0 .67-.27.67-.6 0-.32-.3-.58-.67-.58-.36 0-.66.26-.66.59 0 .32.3.59.66.59ZM7.44 10.1c0 .3-.28.56-.63.56-.34 0-.62-.25-.62-.56 0-.3.28-.55.62-.55.35 0 .63.24.63.55ZM9 11.9c.37 0 .67-.26.67-.59 0-.32-.3-.59-.67-.59-.36 0-.66.27-.66.6 0 .32.3.58.66.58Zm2.19-3.45c.34 0 .62-.24.62-.55 0-.3-.28-.56-.62-.56-.35 0-.63.25-.63.56 0 .3.28.55.63.55Z" fill="#8F8F8F"/><defs><linearGradient id="a" x1="3.35" y1="3.12" x2="21.9" y2="24.43" gradientUnits="userSpaceOnUse"><stop stop-color="#1A1E21"/><stop offset="1" stop-color="#06060A"/></linearGradient></defs></svg>