<!-- by TradingView --><svg width="18" height="18" viewBox="0 0 18 18" xmlns="http://www.w3.org/2000/svg"><path fill="#F0F3FA" d="M0 0h18v18H0z"/><circle cx="9" cy="9" r="6" fill="#7AAD37"/><path d="M4.28 7v4h.18c.26 0 .54-.18.54-.4V8.15l2.15 2.53a1 1 0 0 0 .75.32H8V7h-.28c-.26 0-.48.18-.48.4v2.26L5.21 7.32A1 1 0 0 0 4.46 7h-.18ZM12.07 7c1.05.02 1.34.49 1.36.72-1.46-.5-2.1-.17-2.15.16-.04.26.3.45.48.52 1.22.34 1.7.61 1.84 1.02.21.64-.17 1.58-1.53 1.58-1.51 0-1.73-.63-1.65-.94 1.98 1.04 2.39 0 2.39-.15 0-.14.05-.47-.62-.63-.67-.17-1.63-.38-1.77-1.07-.12-.6.34-1.23 1.65-1.21Z" fill="#fff"/><path d="m13.68 12.86-.44.02a3.91 3.91 0 0 1-.58-7.78h-.15c-2.2 0-4 1.77-4 3.96a3.98 3.98 0 0 0 5.17 3.8Z" fill="url(#a)"/><defs><linearGradient id="a" x1="11.1" y1="5.1" x2="11.1" y2="13.03" gradientUnits="userSpaceOnUse"><stop stop-color="#F8FBF3"/><stop offset="1" stop-color="#93BC5C"/></linearGradient></defs></svg>