<!-- by TradingView --><svg width="18" height="18" viewBox="0 0 18 18" xmlns="http://www.w3.org/2000/svg"><path fill="#F0F3FA" d="M0 0h18v18H0z"/><path d="M11.22 8.6c-.5-.04-1-.26-1.42-.44L7.42 4.54c-.11-.17-.17-.15-.17.06l.01 3.83c0 .36.22.75.57.83l.23.06c.35.23.3.35-.15.35h-1.8c-.06 0-.1-.04-.1-.1v-.12c.02-.06.06-.1.11-.12.44-.16.77-.34.77-.91l-.01-4.36c0-.52-.27-.76-.77-.72a.1.1 0 0 1-.08-.03.11.11 0 0 1-.03-.08v-.06a.19.19 0 0 1 .05-.12.15.15 0 0 1 .12-.05h1.12c.03 0 .05 0 .08.02l.06.06 3.21 4.84c.1.16.16.14.16-.05V4.55c0-.37-.03-.63-.1-.76-.12-.27-.35-.43-.67-.46a.12.12 0 0 1-.08-.04.13.13 0 0 1-.03-.09v-.05c0-.1.05-.15.14-.15h1.79c.07 0 .11.04.13.11l.02.07a.1.1 0 0 1-.04.11.1.1 0 0 1-.04.01c-.5.08-.75.42-.75 1.02 0 1.4.05 2.9.05 4.28Z" fill="#020202"/><path d="M9.78 8.16c.5.22 1.04.34 1.62.38.06.66.02 1.24-.14 1.73-.06.2-.1.2-.12-.02-.02-.24-.26-.37-.39-.56l-.66-1.01a.24.24 0 0 0-.15-.1c-.3-.07-.58 0-.86.2-.64.45-.4 1.33.14 1.73l1.33.95c.74.52 1.23.99 1.13 1.94-.1.94-.87 1.63-1.76 1.6a3.88 3.88 0 0 1-1.32-.36.16.16 0 0 0-.17.03.53.53 0 0 0-.12.1c-.14.25-.22.24-.21-.04l.02-1.81c0-.02 0-.03.02-.04l.06-.02c.06-.02.1 0 .1.07.04.85.4 1.4 1.05 1.66.66.26 1.32.07 1.56-.69.2-.6-.36-1.3-.8-1.57a9.37 9.37 0 0 1-1.35-.94c-.7-.62-.89-1.33-.56-2.13.33-.8.86-.92 1.58-1.1Z" fill="#0300EC"/></svg>