<!-- by TradingView --><svg width="18" height="18" viewBox="0 0 18 18" fill="none" xmlns="http://www.w3.org/2000/svg">
<rect width="18" height="18" fill="#F0F3FA"/>
<path fill-rule="evenodd" clip-rule="evenodd" d="M10 7H16V9H10V7Z" fill="#6DABE4"/>
<path fill-rule="evenodd" clip-rule="evenodd" d="M10 9H16V11H10V9Z" fill="#022169"/>
<path d="M2 7.05882C2 7.01964 2.02056 7 2.06177 7H2.45679C2.50622 7 2.54122 7.01964 2.56178 7.05882L4.46298 10.0588H4.4877V7.05882C4.4877 7.01964 4.50826 7 4.54938 7H4.93832C4.97944 7 5 7.01964 5 7.05882V10.9412C5 10.9804 4.97944 11 4.93832 11H4.54326C4.49382 11 4.45887 10.9804 4.43827 10.9412L2.53085 7.95293H2.51234V10.9412C2.51234 10.9804 2.49178 11 2.45066 11H2.06177C2.02056 11 2 10.9804 2 10.9412V7.05882Z" fill="#2B2B2A"/>
<path d="M8.50942 11C8.47503 11 8.45141 10.9804 8.43856 10.9411L7.50424 7.95882H7.49129L6.56344 10.9411C6.55059 10.9804 6.52475 11 6.48611 11H6.13178C6.09309 11 6.06942 10.9804 6.06082 10.9411L5.00415 7.05882C4.99126 7.01967 5.0084 7 5.05564 7H5.48093C5.52821 7 5.55401 7.01967 5.55826 7.05882L6.33792 10.0294H6.35082L7.25935 7.05882C7.27225 7.01967 7.29799 7 7.33663 7H7.66527C7.70391 7 7.72975 7.01967 7.7426 7.05882L8.67055 10.0294H8.6834L9.44375 7.05882C9.45659 7.01967 9.48456 7 9.52745 7H9.94636C9.98925 7 10.0064 7.01967 9.99785 7.05882L8.94118 10.9411C8.93258 10.9804 8.90674 11 8.86385 11H8.50942Z" fill="#2B2B2A"/>
</svg>
