<!-- by TradingView --><svg width="18" height="18" viewBox="0 0 18 18" xmlns="http://www.w3.org/2000/svg"><path fill="#385261" d="M0 0h18v18H0z"/><path fill-rule="evenodd" d="M4 12V6h.36l4.36 5.47V6H9v6h-.34L4.28 6.52V12H4Zm8.36-6H10v6h2.49c.83 0 1.51-.74 1.51-1.64 0-.72-.43-1.34-1.03-1.56.45-.24.75-.74.75-1.32 0-.82-.6-1.48-1.36-1.48Zm-.24.55h-1.59v2.04h1.59c.6 0 1.08-.46 1.08-1.02 0-.57-.48-1.02-1.08-1.02Zm.16 2.59h-1.75v2.31h1.75c.66 0 1.19-.51 1.19-1.15 0-.64-.53-1.16-1.2-1.16Z" fill="#fff"/></svg>