<!-- by TradingView --><svg width="18" height="18" viewBox="0 0 18 18" xmlns="http://www.w3.org/2000/svg"><path fill="#F0F3FA" d="M0 0h18v18H0z"/><path fill-rule="evenodd" d="M8.99 7.03 7.73 4.47l-2.61 6.25H6.2A2.86 2.86 0 0 0 9 13.27c1.43 0 2.62-1.11 2.8-2.55h1.08l-2.62-6.25-1.25 2.56a3.15 3.15 0 0 1 3.16 3.3h-.35A2.88 2.88 0 0 0 9 7.4a2.88 2.88 0 0 0-2.82 2.93h-.35v-.18a3.15 3.15 0 0 1 3.16-3.12Zm1.42 5.41c.55-.4.94-1.02 1.04-1.74h-4.9c.1.72.49 1.34 1.04 1.74v-1.37h1.4v1.46H7.74a2.4 2.4 0 0 0 2.63-.05L9 11.07h1.41v1.37ZM7.6 8.23a2.6 2.6 0 0 0-1.06 2.1h4.94a2.6 2.6 0 0 0-1.06-2.1v1.74H9V8.13h1.27a2.4 2.4 0 0 0-2.64.06L9 9.97H7.59V8.23Z" fill="#2076B1"/><path d="M13 14a6.43 6.43 0 0 0 2-4.7C15 5.82 12.31 3 9 3S3 5.82 3 9.3c0 1.87.77 3.55 2 4.7h8Zm-.89-3A3.21 3.21 0 0 1 9 13.63 3.21 3.21 0 0 1 5.89 11H4.4l3.35-7L9 6.3 10.24 4l3.35 7H12.1Z" fill="#50554E" fill-opacity=".5"/></svg>