<!-- by TradingView --><svg width="18" height="18" viewBox="0 0 18 18" fill="none" xmlns="http://www.w3.org/2000/svg">
<rect width="18" height="18" fill="url(#paint0_linear_228_6351)"/>
<path fill-rule="evenodd" clip-rule="evenodd" d="M4.00009 4H4V7H5V5L8.00009 5V4H5H4.00009Z" fill="#FB852D"/>
<path fill-rule="evenodd" clip-rule="evenodd" d="M13.9999 14H14V11H13V13L9.99991 13V14H13H13.9999Z" fill="#FB852D"/>
<path d="M11 11.8476C11 11.9278 10.9409 12 10.8565 12H10.7722C10.6878 12 10.6287 11.9278 10.6287 11.8476V8.11765C10.6287 6.91444 10.2405 6.32086 9.05907 6.32086C8.40084 6.32086 7.69198 6.38503 7.37131 6.41711V11.8476C7.37131 11.9278 7.31224 12 7.21941 12H7.14346C7.05063 12 7 11.9278 7 11.8476V6.28075C7 6.18449 7.05063 6.14439 7.11814 6.13636C7.60759 6.07219 8.38397 6 9.05907 6C10.4346 6 11 6.76203 11 8.11765V11.8476Z" fill="#FEFEFE"/>
<defs>
<linearGradient id="paint0_linear_228_6351" x1="9" y1="0" x2="9" y2="18" gradientUnits="userSpaceOnUse">
<stop stop-color="#181B1E"/>
<stop offset="1" stop-color="#181B1E"/>
</linearGradient>
</defs>
</svg>
