<!-- by TradingView --><svg width="18" height="18" viewBox="0 0 18 18" xmlns="http://www.w3.org/2000/svg"><path fill="#F0F3FA" d="M0 0h18v18H0z"/><path d="M6.65 10.86h.01a.01.01 0 0 0 0-.01l-.28-.24-.1.02h-.02l-.01-.01-.02-.03c-.06-.08-.14-.18-.18-.27-.2-.38-.27-.78-.22-1.18.06-.54.18-1.13.35-1.76.02-.05 0-.08-.02-.13a122.06 122.06 0 0 0-.28-.55l-.04-.02a.02.02 0 0 0-.02 0v.03l.17.43a.02.02 0 0 1 0 .03h-.04a2.12 2.12 0 0 1-.21-.43c-.07-.28 0-.5.19-.64a.54.54 0 0 1 .6-.02c.16.1.3.24.4.43.2.33.2.77.06 1.14v.04c0 .02.02.03.03.04.24.15.47.26.72.34l.14.05c.14.04.24.07.32.13l.01.03v.18c0 .08-.08.15-.13.18-.2.12-.45.23-.73.35a.47.47 0 0 1-.16.03l-.15.03-.26.08c-.06.02-.08.05-.11.1l-.01.01-.03.03a.16.16 0 0 0-.1.13c-.07.43.08.75.44.96.4.23.79.34 1.17.32.07 0 .13 0 .17.02.16.07.3.23.38.38.05.08.07.18.07.29 0 .11-.01.25-.04.41-.02.09-.07.11-.14.16-.18.09-.3.08-.46-.03-.12-.1-.2-.14-.24-.16-.62-.22-1.2-.38-1.74-.5-.23-.04-.23-.08 0-.1l.17-.02h.36c.1-.01.1-.03 0-.07a.6.6 0 0 1-.32-.35c0-.02 0-.03.02-.03s.05 0 .07.03c.09.09.16.14.21.15ZM6 6.7l.23.42h.01a.03.03 0 0 0 .03 0h.01a.2.2 0 0 0 .01-.17 4.27 4.27 0 0 0-.15-.38c-.03-.06-.07-.06-.11-.02L6 6.56a.1.1 0 0 0-.02.12Zm.95 1.48c-.03-.02-.05-.01-.07.02a7.3 7.3 0 0 0-.16.37.62.62 0 0 0-.04.34c0 .02.02.02.04.01.2-.1.4-.25.53-.43a.1.1 0 0 0 .02-.08.1.1 0 0 0-.05-.07l-.27-.16Zm-.91.6h.01l.01-.01.02-.02a.1.1 0 0 0 0-.06c0-.02 0-.02-.02-.03h-.01l-.01.01-.02.02a.1.1 0 0 0 0 .06c0 .02.01.02.02.03ZM6 8.99l.07-.01c.03 0 .04-.01.04-.04v-.08l-.02-.02h-.08c-.02 0-.03 0-.03.02l-.04.46v.01a.01.01 0 0 0 .02 0l.12-.09V9.12c0-.02-.01-.03-.03-.03A.08.08 0 0 1 6 9.03v-.02L6.01 9Zm.31 1.09-.09-.4v-.01c-.02 0-.03.03-.03.07 0 .04 0 .09.02.14v.02a.8.8 0 0 0 .05.14l.03.03.02.02v-.01Zm-.13.06a3.17 3.17 0 0 0-.15-.42c-.01-.04-.03-.04-.04 0a.2.2 0 0 0 .01.1c.06.2.13.37.23.55.01.02.03.02.04 0v-.03a13.39 13.39 0 0 1-.09-.2Zm5.14-2.02c.04-.06.03-.07-.03-.04-.2.1-.41.2-.64.29-.09.03-.18.01-.27-.04-.26-.17-.48-.4-.64-.72a.7.7 0 0 1-.07-.22l.01-.04c.04-.03.09-.04.15-.02l.07.03c.14.04.26.08.39.07.17-.02.34-.06.49-.13.24-.11.44-.2.61-.26l1.05-.34c.15-.05.28-.07.4-.07.15 0 .29 0 .4.02.24.03.45.12.63.26.12.1.14.34.1.48-.05.15-.23.29-.38.37a.56.56 0 0 1-.25.06l-.27.02a1 1 0 0 1-.35-.03c-.06-.02-.08 0-.06.07l.06.09c.04.06.1.09.16.1.14 0 .25.01.33.03.14.03.18.11.23.25l.01.01c0 .01 0 .02.02.02l.25.16.03.02v.09c-.04.18-.06.35-.17.48l-.15.19c-.09.1-.09.18 0 .26l.04.07c0 .03 0 .06-.02.08l-.17.23a.2.2 0 0 1-.16.08c-.04 0-.17-.02-.39-.07-.04-.01-.06 0-.06.05v.12l.06.03.66.12c.3.06.51.11.65.17.2.08.4.19.61.3.07.05.15.12.19.2.1.2.15.42.15.62 0 .07-.02.12-.06.16a.46.46 0 0 1-.41.1 1.3 1.3 0 0 1-.27-.1 4.12 4.12 0 0 1-.26-.15.89.89 0 0 0-.53-.14c-.23.02-.47.02-.74.02-.15 0-.15-.04-.01-.09a.83.83 0 0 0 .38-.23.02.02 0 0 0-.01-.02 1.6 1.6 0 0 0-.84-.14c-.1 0-.26.02-.47.05a2.8 2.8 0 0 0-1.7.9.3.3 0 0 1-.07 0c-.25.06-.43-.03-.54-.27l-.16-.34c-.04-.1-.06-.17-.05-.22.02-.14.14-.35.28-.38l.1-.02.15-.03a30.72 30.72 0 0 0 1.11-.34c.04-.04.06-.08.05-.14a.02.02 0 0 0-.01-.02h-.02c-.1.1-.22.17-.34.22-.07.02-.12.02-.14-.02a.63.63 0 0 1-.05-.12.5.5 0 0 1 .02-.37 3.63 3.63 0 0 1 .2-.36.03.03 0 0 0-.02-.03h-.02c-.06 0-.12 0-.18-.05-.04-.03-.07-.08-.07-.15-.01-.21.08-.36.27-.44l.41-.17c.1-.04.15-.12.18-.22.03-.12.08-.24.15-.35Zm1.68.76v-.02h-.06c-.12.04-.26.11-.42.2-.12.07-.21.05-.29-.05a.22.22 0 0 1-.05-.14l.02-.57c0-.08.01-.14.07-.2l.1-.12c.01-.04.02-.07.01-.09 0-.03-.03-.04-.07-.03-.32.11-.69.4-.73.78 0 .05-.02.09-.03.12-.03.06-.05.1 0 .2v.03a.32.32 0 0 1-.15.2 2.15 2.15 0 0 1-.44.16.07.07 0 0 0-.02.05v.03c.07.14.16.2.3.19.06-.01.11 0 .14.01.07.04.09.1.06.2a10.25 10.25 0 0 0-.08.42.04.04 0 0 0 .03.01c.2-.01.38-.04.54-.07.13-.03.23-.11.3-.23a6.48 6.48 0 0 0 .09-.21.26.26 0 0 0-.08-.12.1.1 0 0 1 0-.14.88.88 0 0 1 .27-.22l.2-.1c.11-.08.21-.18.3-.3Zm-1.6 1.56v-.01l.02-.01h.02c.04.01.08.02.11 0v-.01l-.02-.02h-.01l-.18.02c-.01 0-.02 0-.02.02v.02l.02.02c.03 0 .05 0 .06-.03Zm-.66.09a2.05 2.05 0 0 0-.44.14l-.05.01c-.05.02-.05.04 0 .05a.2.2 0 0 0 .09-.01c.19-.08.36-.14.53-.16.01 0 .02 0 .02-.02l-.02-.06h-.04a.17.17 0 0 1-.09.05Zm1 .35a3.34 3.34 0 0 1 .17-.02l-.03-.01c-.04-.02-.1-.03-.14-.03a.5.5 0 0 0-.14.07h-.01v.03l.16-.04Zm-6.32-1.1v-.02a11.81 11.81 0 0 1 .03-1.41.1.1 0 0 1 .05-.03c.1-.04.2-.1.28-.2a.1.1 0 0 0 .02-.11.68.68 0 0 1-.06-.27.1.1 0 0 0-.02-.07 1.55 1.55 0 0 0-.6-.4 44.5 44.5 0 0 1-.58-.2c-.07-.03-.15-.02-.23.03-.14.08-.12.28-.04.4l.04.02h.04a.47.47 0 0 1 .17-.09l.06.01.04.05c.04.13.06.26.06.41v.24c-.03.09-.09.15-.18.18-.36.14-.71.27-1.07.37-.13.04-.23.04-.38.03a.06.06 0 0 0-.04.02.06.06 0 0 0-.02.05c0 .06.03.14.09.24l.22.37c.1.18.26.25.47.22a.1.1 0 0 0 .07-.04.12.12 0 0 0 .02-.08c0-.06.02-.12.07-.17.14-.13.28-.25.42-.35.06-.04.16-.09.3-.13.02 0 .03 0 .04.02l.02.09-.05.09a93.54 93.54 0 0 1-.43.5H4.2l-.18-.11h-.04v.03a.4.4 0 0 0 .08.1c.07.08.1.17.06.27 0 .01-.03.06-.1.14l-.04.04c-.02.01-.03.03-.02.06 0 .02.01.02.03.02.04 0 .06-.03.06-.07l.02-.04.18-.13h.04c.1.02.16.08.17.16v.34c0 .09-.03.18-.09.22a2.76 2.76 0 0 1-.49.3.05.05 0 0 1-.04-.04v-.03l.14-.56c.02-.07 0-.08-.05-.04l-.03.04a4.43 4.43 0 0 0-.47.96c.1.19.23.34.4.44.05.03.1.03.15.02.17-.04.32-.1.44-.15a.37.37 0 0 0 .16-.16l.21-.35c.43-.53.76-.96.98-1.28a.07.07 0 0 0 0-.08.04.04 0 0 0-.01-.02.03.03 0 0 0-.03 0l-.25.16a.03.03 0 0 1-.05-.01Zm-.93-.14.17-.1h.01c.01.02.02.05.01.08a.1.1 0 0 1-.04.06l-.01.01a.1.1 0 0 1-.14-.04v-.01Z" fill="url(#a)"/><defs><linearGradient id="a" x1="3.18" y1="9.3" x2="14.68" y2="9.4" gradientUnits="userSpaceOnUse"><stop stop-color="#AF8B44"/><stop offset=".52" stop-color="#EEDF9D"/><stop offset="1" stop-color="#C6A05C"/></linearGradient></defs></svg>