<!-- by TradingView --><svg width="18" height="18" viewBox="0 0 18 18" xmlns="http://www.w3.org/2000/svg"><path fill="#F0F3FA" d="M0 0h18v18H0z"/><path d="M12.38 5.3c.05.05.09.08.1.11.02.02.01.03 0 .02a2.46 2.46 0 0 0-3.52 1.7c-.07.27-.04.62-.09.89a2.27 2.27 0 1 1-4.32-1.27 5.02 5.02 0 0 1 7.83-1.45Z" fill="#00B7F1"/><path d="M10.5 13.77a.59.59 0 0 1-.14.04 3.6 3.6 0 0 0 .42-.37 2.46 2.46 0 0 0-.14-3.55c-.2-.19-.52-.33-.73-.51a2.27 2.27 0 1 1 3.26-3.11 5.01 5.01 0 0 1-2.66 7.5Z" fill="#009ADA"/><path d="M4.12 7.91a.6.6 0 0 1 .04-.14c.01-.02.02-.02.02 0A2.46 2.46 0 0 0 5.6 9.87c.57.27 1.18.31 1.81.12.27-.09.55-.28.8-.38a2.27 2.27 0 1 1 1.07 4.38A5.01 5.01 0 0 1 4.12 7.9Z" fill="#63CDF5"/></svg>