<!-- by TradingView --><svg width="18" height="18" viewBox="0 0 18 18" xmlns="http://www.w3.org/2000/svg"><path fill="#F0F3FA" d="M0 0h18v18H0z"/><path d="M9.4 7.16V4.43a.1.1 0 1 1 .2 0v3.23c0 .06-.07.08-.1.03L8.02 5.24 6.19 6.42v8.48a.1.1 0 0 1-.19 0V6.3l2.08-1.34 1.33 2.2Z" fill="#00612D"/><path d="M10.15 4c.08 0 .15.07.15.15v5.34c0 .1-.07.17-.15.18a.15.15 0 0 1-.13-.08L7.84 6.13 7 6.67v7.78c0 .12-.04.22-.15.22-.1 0-.15-.1-.15-.22v-8l1.26-.78L10 8.85v-4.7c0-.08.07-.15.15-.15Z" fill="#00612D"/><path d="M8.6 10.72v2.85a.1.1 0 0 1-.2 0v-3.34c0-.06.07-.08.1-.03l1.48 2.41 1.83-1.16V3.1a.1.1 0 0 1 .19 0v8.46L9.92 12.9 8.6 10.72Z" fill="#00612D"/><path d="M7.85 14a.15.15 0 0 1-.15-.15V8.51c0-.1.07-.17.15-.18.05 0 .1.03.13.08l2.18 3.46.84-.47V3.65c0-.12.04-.22.15-.22.1 0 .15.1.15.22v8l-1.25.68L7.98 9 8 13.85c0 .08-.07.15-.15.15Z" fill="#00612D"/></svg>