<!-- by TradingView --><svg width="18" height="18" viewBox="0 0 18 18" xmlns="http://www.w3.org/2000/svg"><path fill="#F0F3FA" d="M0 0h18v18H0z"/><path d="M14 11.13V5H9v3.1l5 3.03ZM4 7.44v-2.4c.22 0 .34.23.37.35.3.29 1.43.93 1.97 1.21.15.1.5.32.67.52.18.2.48.46.61.56a13.71 13.71 0 0 1 1.9 1.47c.24.15.84.55 1.3 1.02.46.46 2.31 1.72 3.18 2.29l-2.18-1.08c.16.23 1.52 1.18 2.18 1.62h-.58l-.69-.54.3.54h-.93l-.86-.73c-.69-1.5-1.76-1.93-2.21-1.96v1.63c-.34-.22-1.04-.75-1.12-1.05-.08-.3-.3-.5-.4-.58L4 7.97v-.29c.42.45 1.89 1.35 2.57 1.75-1.4-1.4-2.3-1.9-2.57-1.99ZM4 13v-2.2c.45.5.86.6 1.02.58A28.9 28.9 0 0 1 7.9 13H4Z" fill="#1C4C40"/><path d="M4 10.26V8.9c1.85 1.38 4.16 3.08 5.09 3.76V13h-.93c-1.04-1.34-2.1-1.84-2.67-2.2A4.72 4.72 0 0 0 4 10.25Z" fill="#E1A340"/></svg>