<!-- by TradingView --><svg width="18" height="18" viewBox="0 0 18 18" xmlns="http://www.w3.org/2000/svg"><path fill="#F0F3FA" d="M0 0h18v18H0z"/><path d="M3 9.03C3 5.65 8 4.93 10.5 5c-1.64.35-4.93 1.58-4.93 3.71 0 2.14 2.75 2.79 4.13 2.84-5.34.62-6.7-1.42-6.7-2.52Zm12-.06c0 3.38-5 4.1-7.5 4.03 1.64-.35 4.93-1.58 4.93-3.71 0-2.14-2.75-2.79-4.13-2.84 5.34-.62 6.7 1.42 6.7 2.52Zm-6.19 1.49c1.1.19 2.08-.31 2.18-1.12.1-.8-.7-1.61-1.8-1.8-1.1-.19-2.08.31-2.18 1.12-.1.8.7 1.61 1.8 1.8Z" fill="#B1B2B4"/></svg>