<!-- by TradingView --><svg width="18" height="18" viewBox="0 0 18 18" xmlns="http://www.w3.org/2000/svg"><path fill="#F0F3FA" d="M0 0h18v18H0z"/><path d="M6.52 10.42c0-.08.02-.09.06-.01l1.62 2.87c.03.06.07.1.13.12l1.1.58a.15.15 0 0 0 .14 0l1.1-.59a.1.1 0 0 0 .04-.03l.01-.04v-1.99c0-.02 0-.03.03-.04l2.28-1.17.47-.24a2.59 2.59 0 0 0 1.48-1.95 1.48 1.48 0 0 0-.5-1.4c-.11-.1-.3-.2-.55-.34L13.58 6c-.37-.2-.8-.43-1.1-.49a1.86 1.86 0 0 0-1.23.17l-1.37.73-1.56.83a.1.1 0 0 0-.04.04.1.1 0 0 0-.02.05v1.24c0 .07-.02.08-.05.01L6.59 5.72a.33.33 0 0 0-.13-.13l-1.1-.57a.15.15 0 0 0-.14 0l-1.15.6c-.05.02-.07.06-.07.1v5.95c0 .03 0 .05.02.06l.05.05 1.16.6a.1.1 0 0 0 .1 0l1.15-.61.03-.03v-1.32Zm1.8 2.8-1.8-3.27c-.39-.7-.67-1.23-.86-1.6l-.27-.5c-.03-.06-.07-.07-.11-.03l-.02.02V12.2l-.02.01h-.03l-1.03-.53a.07.07 0 0 1-.03-.02.06.06 0 0 1-.01-.03v-5.8l.01-.01a.02.02 0 0 1 .02 0l1 .52a.2.2 0 0 1 .08.08 1922.86 1922.86 0 0 0 2.8 5l.22.4c.03.05.07.06.11.03l.02-.03V7.46l.02-.01a.03.03 0 0 1 .02 0l.96.5.02.03.01.03v5.81a.02.02 0 0 1-.03 0l-1-.52a.2.2 0 0 1-.08-.08Zm2.28-1.96V13.28l-.02.02-.98.52c-.02.02-.04.01-.04-.02V7.98l.02-.01 2.98-1.56c.34-.18.8-.23 1.18-.12 1.6.46 1.25 2.24.32 3.06a5.76 5.76 0 0 1-1.37.8 193.9 193.9 0 0 0-2.08 1.1l-.01.01Zm1.42-3.46a243.68 243.68 0 0 1-1.4.74l-.02.03v1.47l.03.02a.07.07 0 0 0 .06.01l.06-.02.29-.15 1.63-.85c.37-.2.61-.35.73-.47.2-.21.33-.47.38-.77.05-.3-.1-.6-.46-.6-.11 0-.27.05-.47.16l-.83.43Zm.68.02c-.15.3-.32.5-.52.6l-.5.27-.94.48h-.01v-.54l.01-.02 1.98-1.02a.03.03 0 0 1 .03 0h.01v.02c0 .07-.04.16-.06.2Z" fill="#ED2F33"/></svg>