<!-- by TradingView --><svg width="18" height="18" viewBox="0 0 18 18" xmlns="http://www.w3.org/2000/svg"><path fill="#F0F3FA" d="M0 0h18v18H0z"/><path d="m10.5 11.18.77-.91c.53.29.85.37 1.37.37.53 0 .86-.26.86-.62 0-.48-.56-.71-.86-.75H12l-.51-.6L13.17 7h-1.62c-.2-.58-.75-.85-1.05-1h4.22c.16 0 .28.11.28.25v.57l-1.48 1.42c.65.12 1.48.67 1.48 1.71C15 11 14.07 12 12.64 12a2.93 2.93 0 0 1-2.14-.82Z" fill="#EDAB35"/><path fill-rule="evenodd" d="M3.3 6a.3.3 0 0 0-.3.3v5.11c0 .33.27.59.6.59h.34a.6.6 0 0 0 .6-.59V8.45l2.26 3.39c.06.1.17.16.29.16h1.08c.18 0 .33-.15.33-.33V10h.81C10.44 10 11 9.18 11 8.05S10.37 6 9.24 6H7.25c-.14 0-.25.1-.25.24v3.3L4.54 6H3.3Zm5.2 1v2h.55c.52 0 .95-.43.95-.95C10 7.52 9.57 7 9.05 7H8.5Z" fill="#EDAB35"/></svg>