<!-- by TradingView --><svg width="18" height="18" viewBox="0 0 18 18" xmlns="http://www.w3.org/2000/svg"><path fill="#F0F3FA" d="M0 0h18v18H0z"/><circle cx="9" cy="9" r="5" fill="#0A2B82"/><path d="m4.22 10.48 4.72-2.75-3.26-.36L8.4 7.2 7.1 5.8l1.58 1.1.3-2.88.33 2.88 1.6-1.1L9.6 7.2l2.74.16-3.25.36 4.7 2.72c-.13.41-.3.8-.53 1.16l-4.2-3.86 3.28 4.97c-.33.3-.7.55-1.1.75L9.01 7.83l.66 6.12a5.04 5.04 0 0 1-1.36 0l.62-6.12-2.2 5.63c-.4-.2-.75-.44-1.07-.73L8.9 7.79l-4.18 3.8a4.98 4.98 0 0 1-.5-1.1Z" fill="url(#ahmnkj1zs)"/><defs><linearGradient id="ahmnkj1zs" x1="9.01" y1="4.02" x2="9.01" y2="14.19" gradientUnits="userSpaceOnUse"><stop offset=".09" stop-color="#FFE040"/><stop offset=".35" stop-color="#FEFCEA"/><stop offset=".95" stop-color="#FDDC23"/></linearGradient></defs></svg>