<!-- by TradingView --><svg width="18" height="18" viewBox="0 0 18 18" xmlns="http://www.w3.org/2000/svg"><path fill="#F0F3FA" d="M0 0h18v18H0z"/><path d="M9 6h-.01C5.13 6 2 7.34 2 9s3.13 3 6.99 3H9V6Z" fill="#000F2A"/><path d="M9 6h.01C12.87 6 16 7.34 16 9s-3.13 3-6.99 3H9V6Z" fill="#436EB2"/><path d="M6 7.45c0-.44.54-.62.77-.25l1.56 2.42V7.36c0-.2.13-.36.32-.36.2 0 .35.16.35.36v3.2c0 .43-.55.6-.78.24L6.67 8.38v2.26c0 .2-.13.36-.32.36a.36.36 0 0 1-.35-.36v-3.2Z" fill="#fff"/><path d="M9.75 7.5c.59 0 .94.35 1.13.64.08.12 0 .27-.14.32-.14.05-.3-.02-.38-.14a.75.75 0 0 0-.61-.3c-.56 0-.66.37-.66.83 0 .42.18.84.66.84.33 0 .58-.14.7-.23V9.2h-.35c-.15 0-.28-.11-.28-.25 0-.15.13-.26.28-.26h.7c.1 0 .2.09.2.2v.76c-.31.35-.77.54-1.25.54-.78 0-1.3-.58-1.3-1.28 0-.74.43-1.42 1.3-1.42Z" fill="#fff"/></svg>