<!-- by TradingView --><svg width="18" height="18" viewBox="0 0 18 18" xmlns="http://www.w3.org/2000/svg"><path fill="#F0F3FA" d="M0 0h18v18H0z"/><path d="M3.1 6.41v4.92c.56.2 2.34.54 5.56.54 3.24 0 5.52-.35 6.23-.55v-4.9a43.18 43.18 0 0 0-6.23-.63c-2.1 0-4.52.4-5.55.62Zm11.9-.1v5.11c-.62.2-2.96.58-6.34.58s-5.18-.39-5.66-.58V6.3c.98-.2 3.48-.63 5.66-.63 2.17 0 5.13.42 6.34.63Z" fill="#080C62"/><path d="M8.68 6c-2.07 0-4.45.38-5.38.57v4.58c.45.17 2.16.52 5.38.52 3.2 0 5.43-.35 6.02-.52V6.57A43.75 43.75 0 0 0 8.68 6Z" fill="url(#ashutvpbj)"/><path d="M7.8 10.25 7.7 7.27c-.09-.03-.27-.1-.33-.2-.07-.09 0-.14.03-.16h1.07c.11 0 .16.05.15.14 0 .07-.23.17-.33.22l.07 2.1c.2-.28.66-.98.94-1.43.27-.45.65-.64.8-.67l.22.24c-.27 0-.62.35-.76.52l-1.4 2.24c-.08.13-.18.18-.25.16-.05-.02-.09-.13-.1-.18Zm-2-.68V7.93h.35V9.6c0 .3.2.54.47.54.26 0 .47-.24.47-.54V7.93h.35v1.64c0 .52-.36.93-.81.93-.46 0-.82-.41-.82-.93Zm3.78-.95c.12-.24.46-.71.9-.71.45 0 .04.93-.17 1.41-.05.12-.1.21-.1.25-.07.22-.16.6.4.06l.1.15c-.21.23-.7.68-.93.68-.3 0-.36-.26-.18-.71l.07-.17c.2-.5.52-1.28.29-1.11l-.15.1c-.16.13-.25.2-.23.05Zm1.39-.16c-.08.2.02.28.08.29.75-1.03.3.26.05.98l-.13.38c-.08.3.03.34.1.33h.28c.2-.6.82-2 1.13-2.1.24-.08-.14.85-.37 1.42l-.14.35c-.1.28.04.33.12.33h.33c.46-1.17.94-2.1 1.13-2.1.19 0-.19.95-.34 1.2-.16.25-.43.9.06.9.39 0 .83-.48 1-.71l-.16-.2a2.8 2.8 0 0 1-.3.34c-.17.17-.16 0-.13-.1.08-.2.27-.63.35-.89.1-.33.3-1-.15-1-.35 0-.81.67-1 1 .14-.33.31-1-.1-1-.42 0-.83.7-.98 1.04.15-.41.34-1.03 0-1.03s-.73.33-.83.57ZM3.9 10.42V7.9h.38l.94 1.78V7.91h.32v2.5h-.38l-.88-1.7v1.7H3.9Z" fill="#351A0A"/><path d="M7.73 10.18 7.6 7.19c-.08-.02-.27-.1-.33-.19-.06-.1 0-.15.03-.16h1.07c.11 0 .17.05.15.14 0 .07-.22.17-.33.21l.07 2.12.94-1.44c.27-.45.65-.64.8-.68l.22.24c-.26 0-.62.36-.76.53L8.08 10.2c-.09.13-.18.18-.25.16-.06-.02-.1-.13-.1-.18Zm-2-.68V7.86h.34v1.66c0 .3.21.54.47.54.27 0 .48-.24.48-.54V7.86h.35V9.5c0 .51-.37.93-.82.93-.45 0-.82-.42-.82-.93Zm3.77-.95c.12-.24.47-.72.9-.72.45 0 .04.94-.17 1.42l-.1.25c-.06.22-.16.6.4.05l.1.16c-.21.22-.69.68-.92.68-.3 0-.36-.26-.18-.71l.07-.18c.2-.5.51-1.27.28-1.1l-.14.1c-.17.13-.26.2-.24.05Zm1.4-.16c-.09.2.01.27.07.28.75-1.02.3.27.05.99l-.13.38c-.08.29.04.34.1.32h.29c.2-.59.82-2 1.12-2.1.24-.08-.14.85-.37 1.42l-.14.36c-.1.27.04.33.12.32h.33c.47-1.17.94-2.1 1.13-2.1.19 0-.18.96-.34 1.2-.15.25-.43.9.06.9.4 0 .84-.47 1.01-.7l-.16-.2c-.03.04-.13.17-.3.34-.17.17-.16 0-.13-.11.08-.18.26-.62.34-.88.1-.33.3-1-.14-1-.36 0-.82.67-1 1 .13-.33.3-1-.1-1-.42 0-.84.7-.99 1.03.15-.4.34-1.03 0-1.03s-.72.33-.83.58Zm-7.08 1.96V7.84h.38l.94 1.78V7.84h.32v2.5h-.38l-.88-1.7v1.7h-.38Z" fill="#FCFC1E"/><path d="m7.62 10.05-.11-2.98c-.09-.03-.27-.1-.33-.2-.07-.09 0-.14.03-.16h1.07c.11 0 .16.06.15.15 0 .07-.23.17-.33.2l.07 2.12c.2-.29.66-.98.94-1.44.27-.45.65-.63.8-.67l.22.24c-.27 0-.62.35-.76.53l-1.39 2.23c-.1.14-.19.19-.26.16-.05-.02-.09-.12-.1-.18ZM5.7 9.37v-1.7h.34v1.72c0 .3.21.56.47.56S7 9.7 7 9.39V7.67h.35v1.7c0 .53-.37.96-.82.96-.45 0-.82-.43-.82-.96Zm3.7-.94c.12-.24.46-.72.9-.72.45 0 .04.94-.17 1.42-.05.11-.1.2-.1.25-.07.21-.16.6.4.05l.1.15c-.21.23-.7.68-.93.68-.3 0-.36-.25-.18-.7l.07-.18c.2-.5.52-1.27.29-1.1l-.15.1c-.16.13-.25.2-.23.05Zm1.4-.16c-.1.2 0 .27.07.28.75-1.03.3.26.05.99l-.13.37c-.08.3.03.34.1.33h.28c.2-.59.82-2 1.13-2.1.24-.08-.14.85-.37 1.42l-.14.35c-.1.28.04.34.12.33h.33c.46-1.17.94-2.1 1.13-2.1.19 0-.19.95-.34 1.2-.16.25-.43.9.06.9.39 0 .83-.47 1-.7l-.16-.2c-.03.04-.12.16-.3.33-.17.17-.16 0-.13-.1.08-.19.27-.62.35-.89.1-.32.3-.99-.14-.99-.36 0-.82.66-1.01 1 .14-.34.31-1-.1-1-.41 0-.83.69-.98 1.03.15-.4.34-1.03 0-1.03s-.73.33-.83.58Zm-7.08 2.06V7.67h.38l.94 1.9v-1.9h.32v2.66h-.38L4.1 8.51v1.82h-.38Z" fill="#fff"/><path fill-rule="evenodd" d="M10 6.05c-.17.05-.51.26-.5.67.02.52.32.82.91.83.48 0 .67-.25.7-.37.06.03.2.13.32.28.14.18.2.22.2.15V7.6c0-.08.02-.23-.18-.44-.17-.18-.26-.2-.28-.18l.1-.21c.18.15.59.42.68.26.12-.2-.46-.45-.55-.44h-.18l.02-.29c.17-.05.57-.19.77-.35.2-.15.16-.29.12-.34-.24.18-.74.52-.94.56L11 5.94c.12-.17.35-.53.32-.61-.03-.09-.39.37-.56.61-.07-.02-.21-.1-.25-.13-.02-.01 0-.11.02-.23.04-.2.08-.46-.02-.47-.09 0-.12.16-.16.34-.03.15-.06.31-.13.36-.12.09-.2.2-.23.24Zm.2-.01a.75.75 0 0 0-.4.65c0 .46.41.62.62.62.2 0 .59-.18.59-.69 0-.4-.36-.47-.53-.45-.1.02-.3.13-.3.45 0 .4.46.25.47.1.02-.15-.1-.39-.14-.22-.03.17-.09.3-.17.22-.08-.07-.11-.44.17-.44.29 0 .38.18.38.44 0 .27-.2.41-.5.41S10 6.86 10 6.57c0-.23.13-.45.2-.53Zm-1.18.22c.27.05.37.27.4.33l.01.02c-.02.01-.1.03-.22-.02-.13-.04-.33-.2-.4-.26-.03-.04-.03-.12.21-.07Zm.43.61c-.07 0-.28-.01-.46.22-.16.2-.11.25-.07.24.1-.04.31-.15.41-.25.1-.1.13-.18.13-.2h-.01Z" fill="#351A0A"/><path fill-rule="evenodd" d="M10.03 5.94c-.17.05-.5.26-.5.67.03.51.32.82.92.83.47 0 .66-.25.7-.38.05.04.2.14.31.29.14.18.2.21.2.15v-.02c.01-.08.02-.23-.17-.44-.18-.18-.26-.2-.28-.18l.09-.21c.19.15.6.42.69.26.12-.2-.47-.46-.56-.45h-.18l.02-.28c.18-.05.57-.2.77-.35.2-.15.17-.29.12-.34-.23.17-.74.52-.94.55-.04-.05-.13-.16-.18-.2.12-.18.35-.54.32-.63-.03-.08-.38.38-.56.62l-.25-.13c-.02-.02 0-.11.02-.23.04-.2.09-.46-.02-.47-.09 0-.12.16-.15.34-.03.15-.06.31-.13.36-.12.08-.21.2-.24.24Zm.2-.02a.75.75 0 0 0-.4.66c0 .46.42.62.62.62s.6-.19.6-.69c0-.4-.36-.47-.54-.45-.1.01-.3.13-.3.45 0 .4.46.25.48.1.01-.15-.1-.4-.14-.22-.04.17-.1.3-.18.22-.08-.07-.1-.44.18-.44s.37.18.37.44-.2.4-.5.4-.37-.26-.37-.55c0-.23.12-.46.18-.54Zm-1.17.23c.26.05.37.27.4.33v.01c-.02.02-.1.03-.22-.01-.13-.05-.32-.2-.4-.26-.03-.04-.03-.12.22-.07Zm.42.61c-.06 0-.28-.01-.46.21-.16.2-.11.25-.06.25.09-.04.3-.15.4-.25.1-.1.14-.18.14-.2h-.02Z" fill="#FCFC1E"/><path opacity=".7" fill="#FCFC1E" d="M7.2 10.67h3.3v.67H7.2z"/><defs><linearGradient id="ashutvpbj" x1="3.78" y1="8.83" x2="14.33" y2="8.83" gradientUnits="userSpaceOnUse"><stop offset=".25" stop-color="#54BB29"/><stop offset=".49" stop-color="#74A392"/><stop offset=".66" stop-color="#3D7F9D"/><stop offset=".83" stop-color="#0101C0"/></linearGradient></defs></svg>