<!-- by TradingView --><svg width="18" height="18" viewBox="0 0 18 18" xmlns="http://www.w3.org/2000/svg"><path fill="#769841" d="M0 0h18v18H0z"/><path d="M9 12a17.28 17.28 0 0 0-.2-.49 25229.9 25229.9 0 0 1-1.74-4.94c-.67.06-1.33.3-1.99.42l-.1.01H3.04c-.04 0-.04-.01 0-.02.84-.28 1.72-.65 2.63-.78a20.9 20.9 0 0 1 1.77-.18A1121.3 1121.3 0 0 0 9 10.46 1117.3 1117.3 0 0 0 10.6 6c.57.04 1.16.1 1.74.2.9.13 1.79.5 2.63.77.04.02.04.03 0 .03h-1.95l-.1-.01c-.65-.12-1.3-.36-1.98-.42A19572.35 19572.35 0 0 1 9 12Z" fill="#fff"/></svg>