<!-- by TradingView --><svg width="18" height="18" viewBox="0 0 18 18" xmlns="http://www.w3.org/2000/svg"><path fill="#255D38" d="M0 0h18v18H0z"/><path fill-rule="evenodd" d="M9 12c3.87 0 7-1.34 7-3s-3.13-3-7-3-7 1.34-7 3 3.13 3 7 3Zm0-.33c3.38 0 6.13-1.2 6.13-2.67S12.38 6.33 9 6.33 2.87 7.53 2.87 9 5.63 11.67 9 11.67Z" fill="#E0BA6D"/><path fill-rule="evenodd" d="M9.2 11.92c3.75 0 6.8-1.3 6.8-2.92 0-1.61-3.05-2.92-6.8-2.92-3.77 0-6.81 1.3-6.81 2.92 0 1.61 3.04 2.92 6.8 2.92Zm-.2-.25c3.38 0 6.12-1.2 6.12-2.67S12.38 6.33 9 6.33 2.87 7.53 2.87 9 5.62 11.67 9 11.67Z" fill="url(#ac11q3wcm)"/><path fill-rule="evenodd" d="M9.02 10.05c-.2.14-.43.22-.67.22C7.6 10.27 7 9.54 7 8.63 7 7.73 7.6 7 8.35 7c.74 0 1.34.73 1.34 1.63 0 .4-.1.75-.3 1.03l.13.32L10.5 8H10v-.2H11V8h-.2l-1.41 3-.37-.95Zm-.12-.33c-.15.2-.34.33-.55.33-.48 0-.86-.64-.86-1.42 0-.78.38-1.4.86-1.4.47 0 .85.62.85 1.4 0 .15-.01.28-.03.41l-.37-1L8.93 8v-.2h-.95V8h.26l.66 1.72Z" fill="#fff"/><defs><linearGradient id="ac11q3wcm" x1="2.39" y1="9.17" x2="15.71" y2="9.17" gradientUnits="userSpaceOnUse"><stop stop-color="#F7DAA7"/><stop offset=".23" stop-color="#CC9B2E"/><stop offset=".41" stop-color="#F5D7A1"/><stop offset=".65" stop-color="#CA9829"/><stop offset="1" stop-color="#F3D49A"/></linearGradient></defs></svg>