<!-- by TradingView --><svg width="18" height="18" viewBox="0 0 18 18" xmlns="http://www.w3.org/2000/svg"><path fill="#F0F3FA" d="M0 0h18v18H0z"/><path d="M5.47 6.7V4.66C6.03 4.45 7.77 4 9.1 4c1.34 0 2.52.45 3.08.67V6.7h-6.7Z" fill="url(#ak4m4ak32)"/><path d="M3.7 8.46 4.77 10v4L9 12.46v-7.7h-.28l-5.01 3.7Z" fill="#060709"/><path d="M14.3 8.46 13.23 10v4L9 12.46v-7.7h.28l5.01 3.7Z" fill="url(#bk4m4ak32)"/><path d="M4.59 9.77C4.12 9.45 3 8.3 3 7.55c0-.95 3.49-3.17 6-3.17s6 2.22 6 3.17c0 .71-.97 1.66-1.48 2.12a.7.7 0 0 1-.1.1l.1-.1c.18-.2.18-.51-.2-1.17-.57-.95-2.65-2.58-4.32-2.58-1.67 0-4.41 1.93-4.6 2.58-.15.48.19 1.06.19 1.27Z" fill="url(#ck4m4ak32)"/><path d="M9 14H4.76L9 12.46V14Z" fill="#781D18"/><path d="M9 14v-1.54L13.24 14H9Z" fill="#B22627"/><defs><linearGradient id="ak4m4ak32" x1="8.82" y1="4" x2="8.82" y2="6.69" gradientUnits="userSpaceOnUse"><stop stop-color="#727270"/><stop offset=".45" stop-color="#000100"/></linearGradient><linearGradient id="bk4m4ak32" x1="11.51" y1="6.92" x2="11.68" y2="14" gradientUnits="userSpaceOnUse"><stop stop-color="#060709"/><stop offset="1" stop-color="#5C5C5E"/></linearGradient><linearGradient id="ck4m4ak32" x1="3.84" y1="7.24" x2="14.16" y2="7.24" gradientUnits="userSpaceOnUse"><stop stop-color="#686667"/><stop offset="1" stop-color="#EBECEE"/></linearGradient></defs></svg>