<!-- by TradingView --><svg width="18" height="18" viewBox="0 0 18 18" xmlns="http://www.w3.org/2000/svg"><path fill="#F0F3FA" d="M0 0h18v18H0z"/><path d="M9.25 6.78a7.83 7.83 0 0 1 2.26-.75c.3-.05.5-.03.63.06.2.15.31.38.31.7 0 .04-.01.09-.04.13l-.44.64c-.08.12-.06.15.06.09l2.75-1.33c.14-.06.2 0 .22.16 0 .05-.04.15-.11.3a.56.56 0 0 1-.3.3 31.25 31.25 0 0 0-3.58 1.8c-.16.2-.13.35.1.47.12.05.95.55 2.5 1.48.27.15.4.4.4.75l.01.12c0 .3-.12.37-.37.23l-3.28-1.87a.1.1 0 0 0-.13.02c-.2.22-.47.6-.79 1.13-.2.34-.45.52-.75.55a.2.2 0 0 1-.13-.03.22.22 0 0 1-.08-.1.24.24 0 0 1 .02-.24l1.24-1.67a.18.18 0 0 0 .02-.2c-.15-.3-.06-.55.27-.77.35-.24.91-.45 1.13-.78l.53-.88c.06-.1.04-.14-.07-.11-1.08.31-2.1.74-3.05 1.28a.57.57 0 0 1-.27.08.43.43 0 0 1-.24-.06c-.07-.05-.09-.17-.05-.36a1.9 1.9 0 0 1 1.25-1.53c.07-.03.09 0 .06.06l-.13.27c-.04.07-.02.1.05.06Z" fill="#00489D"/><path fill-rule="evenodd" d="M7.73 9.28c.25-.55.58-2.08-.33-2.16-.17-.02-.2-.05-.08-.12l.3-.12a.2.2 0 0 0 .08-.05.23.23 0 0 0 .05-.08.26.26 0 0 0 0-.2c-.43-.82-.98-.56-1.64-.25l-.06.03A5.85 5.85 0 0 0 3.21 9.2a2.4 2.4 0 0 0-.02 1.9c.37 1.04 1.47 1.04 2.24.65a4.95 4.95 0 0 0 2.3-2.48Zm-2.47-.65-.42.5c-.04.04-.08.05-.12.01a.16.16 0 0 1-.04-.04c-.05-.09-.1-.1-.16-.02-.36.4-.78 1.26-.72 1.85.04.35.2.5.51.42.79-.2 1.45-.64 2-1.33l.05-.08c.49-.62.86-1.1.95-1.9v-.18a.39.39 0 0 0-.09-.14.33.33 0 0 0-.12-.1.3.3 0 0 0-.15-.01c-.66.1-1.23.43-1.69 1.02Z" fill="#00489D"/></svg>