<!-- by TradingView --><svg width="18" height="18" viewBox="0 0 18 18" xmlns="http://www.w3.org/2000/svg"><path fill="#F0F3FA" d="M0 0h18v18H0z"/><path d="M12.09 5.3a5.26 5.26 0 0 1 1.01 1.37.09.09 0 0 1-.05.08 7.51 7.51 0 0 0-7.53 5.31c-.01.07-.04.11-.08.13-.04.01-.07 0-.1-.03a4.8 4.8 0 0 1 6.75-6.87Z" fill="#008FD2"/><path d="M9.69 8.02a6.9 6.9 0 0 1 5.28-.27.1.1 0 0 1 .03.09 7.8 7.8 0 0 0-1.44 2.15.15.15 0 0 1-.19.08 6 6 0 0 0-3.35-.25 6.04 6.04 0 0 0-3.9 2.68c-.1.17-.14.16-.08-.04A7.1 7.1 0 0 1 9.7 8.02Z" fill="#008FD2"/><path d="M10.9 12.94a3.57 3.57 0 0 0-4.3.06c-.02 0-.03 0-.05-.02-.03-.03-.03-.05-.01-.08a5.76 5.76 0 0 1 6.66-2.32.1.1 0 0 1 .03.13 4.8 4.8 0 0 1-2 2.25.29.29 0 0 1-.32-.02Z" fill="#008FD2"/></svg>