<!-- by TradingView --><svg width="18" height="18" viewBox="0 0 18 18" xmlns="http://www.w3.org/2000/svg"><path fill="#F0F3FA" d="M0 0h18v18H0z"/><path fill-rule="evenodd" d="M6.83 12.99 9 13c1.55 0 2.46-.05 3.55-1.28.45-.5.77-1.2.97-2.07l.13-.55c.37-1.51.73-3-.59-3.76a4.3 4.3 0 0 0-1.9-.33L9 5c-1.55 0-2.46.05-3.55 1.28-.45.5-.77 1.2-.97 2.07l-.13.55c-.37 1.51-.73 3 .59 3.76.34.2.97.31 1.9.33Zm1.7-2 .48-.02c1.24 0 1.92-.4 2.3-1.78.14-.5.2-.9.19-1.22-.05-1.05-1.08-1.01-2.04-.98L9.02 7c-1.24.01-1.92.43-2.3 1.81-.14.5-.2.9-.19 1.22.05 1.04 1.06 1 2 .96Z" fill="#1A1310"/></svg>