<!-- by TradingView --><svg width="18" height="18" viewBox="0 0 18 18" xmlns="http://www.w3.org/2000/svg"><path fill="#F0F3FA" d="M0 0h18v18H0z"/><path d="M5 4c4.5.71 7.43 5.81 8 8.53 0-.12 0 .13 0 0C13 8.76 9.26 4 5 4Z" fill="#A8AFB0"/><path d="m11.3 6.3.92-1.57.65.69-1.58.88ZM9 11.75l-.06.65c0 .09-.02.14-.04.18a.54.54 0 0 1-.17.13c-.14.09-.33.16-.55.21-.22.05-.45.08-.67.08a2.37 2.37 0 0 1-2.25-1.43A2.54 2.54 0 0 1 5 10.48c0-.7.25-1.28.75-1.76S6.87 8 7.6 8a4.22 4.22 0 0 1 1.06.15c.09.02.15.05.18.09.03.04.05.1.06.21l.06.55v.03a.09.09 0 0 1-.08.1.13.13 0 0 1-.07-.02.64.64 0 0 1-.1-.12c-.17-.3-.34-.5-.51-.62a1.08 1.08 0 0 0-.64-.17c-.48 0-.88.21-1.2.64-.33.44-.49.97-.49 1.62 0 .66.16 1.21.48 1.67.32.45.71.67 1.18.67.26 0 .49-.07.68-.23.18-.15.36-.42.54-.8.05-.1.1-.15.16-.15.07 0 .1.04.09.13Z" fill="#07B"/></svg>