<!-- by TradingView --><svg width="18" height="18" viewBox="0 0 18 18" xmlns="http://www.w3.org/2000/svg"><path fill="#F0F3FA" d="M0 0h18v18H0z"/><path d="M9.87 9.5A1 1 0 1 0 9 10h1v-.5h-.13Z" fill="#8A3130"/><path d="M9.12 12h-.27C5.62 12 3 9.21 3 9.21S5.62 6 8.85 6c2.73 0 5.02 2.29 5.67 3H11.7v-.05c0-1.3-1.2-2.36-2.7-2.36-1.5 0-2.7 1.06-2.7 2.36 0 1.3 1.2 2.36 2.7 2.36.4 0 .8-.08 1.14-.22l1.23-1.08.33.3L7.53 14l-.33-.31 1.92-1.7Z" fill="#8A3130"/><path d="M12.9 10.6v-.41L8.85 14l-.33-.31 4.19-3.95H15v.41h-.3v.46h-.6v-.46h-.6v.46h-.6Z" fill="#8A3130"/></svg>