<!-- by TradingView --><svg width="18" height="18" viewBox="0 0 18 18" xmlns="http://www.w3.org/2000/svg"><path d="M0 9a9 9 0 1 1 18 0A9 9 0 0 1 0 9Z" fill="#181B1E"/><path d="M10 7h1v4h-1V9.54H8V11H7V7h1v1.54h2V7Z" fill="#F0F3FA"/><path fill-rule="evenodd" d="M5.24 7H2.76c-.42 0-.76.45-.76.98v2.04c0 .55.34.98.76.98h2.48c.42 0 .76-.45.76-.98V7.98C6 7.43 5.66 7 5.24 7Zm-.48 1H3.24C3.1 8 3 8.14 3 8.3v1.4c0 .17.1.3.24.3h1.52c.13 0 .24-.14.24-.3V8.3c0-.17-.1-.3-.24-.3ZM15 7s.8.04.8.97c0 .93-.24 1.03-.24 1.03s.44.11.44.85-.39 1.15-.64 1.15H12V7h3Zm-2 .75h1.75c.14 0 .25.1.25.23v.32c0 .1-.1.2-.22.2H13v-.75Zm1.74 1.75H13v.75h1.77c.13 0 .23-.1.23-.2v-.32c0-.13-.12-.23-.26-.23Z" fill="#F0F3FA"/></svg>