<!-- by TradingView --><svg width="18" height="18" viewBox="0 0 18 18" xmlns="http://www.w3.org/2000/svg"><path fill="#F0F3FA" d="M0 0h18v18H0z"/><path d="M14.5 10.75a6.86 6.86 0 0 1-.55-.27 5.14 5.14 0 0 0-.32-4.07l-1.57.9a3.33 3.33 0 0 1 .32 2.02 7.45 7.45 0 0 1-2.14-3.66c.64.24 1.18.68 1.57 1.22l1.57-.9a5.23 5.23 0 0 0-3.32-2.25c0-.22 0-.43.03-.64a5.85 5.85 0 0 0-2.16 0c.02.21.02.42.02.63a5.22 5.22 0 0 0-3.35 2.3l1.58.9c.38-.55.92-1 1.55-1.25a7.4 7.4 0 0 1-2.1 3.61 3.4 3.4 0 0 1 .3-1.92l-1.58-.91a5.12 5.12 0 0 0-.3 3.99c-.18.1-.36.19-.55.27.23.68.59 1.3 1.04 1.83.16-.12.33-.23.51-.34A5.09 5.09 0 0 0 8.68 14v-1.81a3.21 3.21 0 0 1-1.84-.77 7.65 7.65 0 0 1 4.32.01c-.53.43-1.1.71-1.84.76v1.8a5.02 5.02 0 0 0 3.63-1.77c.17.1.34.22.5.34.46-.53.81-1.14 1.05-1.81ZM8.18 9.24s.46-.67.82-1.42c0 0 .36.79.84 1.43 0 0-.96-.08-1.66-.01Z" fill="#004697"/></svg>