<!-- by TradingView --><svg width="18" height="18" viewBox="0 0 18 18" xmlns="http://www.w3.org/2000/svg"><path fill="#F0F3FA" d="M0 0h18v18H0z"/><path fill-rule="evenodd" d="M9 12c4.62 0 7-1.34 7-3s-2.3-3-7-3-7 1.34-7 3 2.38 3 7 3ZM5.9 9c0 1.1-.49 2-1.45 2S3 10.1 3 9s.48-2 1.45-2c.98 0 1.46.9 1.46 2ZM5 9c0 .6-.18 1.09-.55 1.09-.36 0-.55-.49-.55-1.09 0-.6.18-1.09.55-1.09.37 0 .56.49.56 1.09Zm2-2H6v4h1V7Zm1.45 0h-.9v4h2v-1h-1.1V7ZM10 9.98V7h2v1.02h-1.23v.47h1.1v1.02h-1.1v.47H12V11h-2V9.98Zm3.34-.35h-.89c0 1.13.8 1.37 1.3 1.37S15 10.72 15 9.69c0-.96-.84-1.18-1.27-1.29l-.08-.02c-.39-.1-.27-.54.07-.54.27 0 .35.23.35.36h.84c0-.82-.54-1.2-1.16-1.2-.62 0-1.16.39-1.16 1.28 0 .84.72 1.04 1.1 1.15l.06.02c.32.1.35.25.37.32v.03c.01.1-.06.33-.37.33-.34 0-.41-.33-.4-.5Z" fill="#062F6D"/></svg>