<!-- by TradingView --><svg width="18" height="18" viewBox="0 0 18 18" fill="none" xmlns="http://www.w3.org/2000/svg">
<rect width="18" height="18" fill="url(#paint0_linear_228_4213)"/>
<path d="M9.02729 4C6.72016 4 5 6.12483 5 9.02232C5 11.9049 6.70647 14 9.04098 14C11.5377 14 13 11.5542 13 9.02232C13 6.50756 11.5391 4 9.02729 4ZM9.00003 4.46064C10.7143 4.46064 11 7.63697 11 8.99258C11 10.3299 10.7817 13.5394 9.04098 13.5394C7.28571 13.5394 7 10.3191 7 8.99258C7 7.65669 7.28571 4.46064 9.00003 4.46064Z" fill="white"/>
<defs>
<linearGradient id="paint0_linear_228_4213" x1="9" y1="0" x2="9" y2="18" gradientUnits="userSpaceOnUse">
<stop stop-color="#181B1E"/>
<stop offset="1" stop-color="#181B1E"/>
</linearGradient>
</defs>
</svg>
