<!-- by TradingView --><svg width="18" height="18" viewBox="0 0 18 18" xmlns="http://www.w3.org/2000/svg"><path fill="#F0F3FA" d="M0 0h18v18H0z"/><path d="M9.55 13.97 9 14A5.02 5.02 0 0 1 4 8.97c0-.64.21-1.39.43-1.95.14 1.47.96 4.15 3.76 4.15 2.13 0 3.19-1.33 3.41-1.9.1.36.19.9.19 1.23 0 .57-.47 2.54-2.24 3.47Z" fill="#8CC63F"/><path d="M11.7 11.12c-.62.39-1.56.77-2.69.77a3.5 3.5 0 0 1-2.78-1.26c.52.33 1.16.54 1.96.54 2.13 0 3.19-1.33 3.41-1.9.11.36.19.9.19 1.23 0 .14-.03.36-.1.62Z" fill="#709D2D"/><path d="M9.54 13.97a4.44 4.44 0 0 0 2.25-3.47c0-.33-.08-.88-.19-1.23-.1.24-.36.62-.77.98.1.15.24.44.24.74 0 .45-.48 2.28-1.5 2.96l-.03.02Z" fill="#709D2D"/><path d="M11.6 9.27c.1.35.19.9.19 1.23 0 .14-.03.36-.1.62-.2.13-.43.25-.7.36.05-.21.08-.39.08-.49 0-.3-.14-.59-.24-.74.41-.36.67-.74.77-.98Z" fill="#597C23"/><path d="M4.43 7a5 5 0 0 1 8.6-1c-1.34-.62-4.1-1.21-5.5 1.22-1.06 1.85-.44 3.42-.06 3.9a5.04 5.04 0 0 1-1.16-.44A4.44 4.44 0 0 1 4.43 7Z" fill="url(#a23fln0e5)"/><path d="M5.82 10.3a5.2 5.2 0 0 1 .67-2.72 3.5 3.5 0 0 1 2.47-1.8c-.54.29-1.04.75-1.43 1.44-1.06 1.85-.44 3.42-.06 3.9a5.04 5.04 0 0 1-1.16-.44c-.12-.06-.3-.2-.5-.39Z" fill="#B45617"/><path d="M4.43 7a4.44 4.44 0 0 0 1.88 3.68c.28.17.8.36 1.16.44-.16-.2-.37-.6-.47-1.15-.18.02-.5 0-.76-.16-.39-.22-1.73-1.55-1.8-2.78L4.42 7Z" fill="#B1541E"/><path d="M5.85 9.5c-.03.29-.04.55-.03.8a2.85 2.85 0 0 0 .49.38c.28.17.8.36 1.16.44-.16-.2-.37-.6-.47-1.15-.18.02-.5 0-.76-.16a2.45 2.45 0 0 1-.39-.3Z" fill="#7B3A12"/><path d="m13.04 6 .29.46a5.04 5.04 0 0 1-1.84 6.87c-.55.32-1.34.54-1.94.63 1.2-.85 3.14-2.94 1.75-5.37-1.07-1.85-2.74-2.1-3.34-2 .25-.27.68-.63.96-.8a4.4 4.4 0 0 1 4.12.22Z" fill="url(#b23fln0e5)"/><path d="M9.5 5.56c.65.35 1.44.97 2 1.95.73 1.26.51 2.47.26 3.09a3.65 3.65 0 0 0-.46-2c-1.07-1.86-2.74-2.1-3.34-2.02.25-.33.68-.62.96-.79.12-.07.32-.15.59-.23Z" fill="#AE8B07"/><path d="M13.04 6.02V6a4.4 4.4 0 0 0-4.12-.22c-.28.17-.7.53-.96.8.26-.04.71-.02 1.23.16.08-.16.25-.42.52-.58.38-.22 2.2-.72 3.3-.17l.04.02Z" fill="#CAA111"/><path d="M10.17 6a5.15 5.15 0 0 0-.66-.44 2.84 2.84 0 0 0-.59.23c-.28.17-.72.46-.96.8.26-.04.71-.02 1.23.16.08-.16.25-.42.52-.58.08-.05.25-.11.46-.18Z" fill="#958039"/><defs><linearGradient id="a23fln0e5" x1="12.08" y1="5.2" x2="4.98" y2="8.47" gradientUnits="userSpaceOnUse"><stop stop-color="#F69453"/><stop offset="1" stop-color="#E76F24"/></linearGradient><linearGradient id="b23fln0e5" x1="9.93" y1="5.38" x2="11.81" y2="13.37" gradientUnits="userSpaceOnUse"><stop stop-color="#FFC905"/><stop offset="1" stop-color="#FBB313"/></linearGradient></defs></svg>