<!-- by TradingView --><svg width="18" height="18" viewBox="0 0 18 18" xmlns="http://www.w3.org/2000/svg"><path fill="#F0F3FA" d="M0 0h18v18H0z"/><path d="M15 11.78c.01.15-.05.22-.18.22h-1.67c-.1 0-.16-.06-.17-.19 0-.05 0-.1.04-.15.03-.04.07-.06.13-.05.2-.04.3-.15.3-.33v-1.9c0-.4-.32-.67-.72-.67-.2 0-.43.1-.68.3v2.25c0 .2.1.31.3.34.11 0 .17.06.18.18.01.15-.05.22-.18.22h-1.73c-.1 0-.15-.05-.17-.16a.24.24 0 0 1 .03-.17c.03-.05.08-.07.14-.06.2-.04.29-.15.29-.33V9.39a.7.7 0 0 0-.18-.49.59.59 0 0 0-.47-.2c-.26 0-.53.11-.7.32v2.25c0 .2.1.3.3.33.11 0 .17.07.17.2 0 .14-.07.2-.18.2H8.17c-.1 0-.16-.06-.17-.19 0-.06 0-.1.04-.15.03-.04.07-.06.13-.05.2-.04.29-.15.29-.33V8.77c0-.2-.09-.35-.26-.37-.14 0-.2-.06-.2-.2 0-.13.07-.2.2-.2h1.36v.52c.23-.34.63-.51 1.08-.52.62 0 1.05.18 1.3.58.3-.38.69-.57 1.14-.58.7-.02 1.45.3 1.45 1.14v2.13c0 .2.1.3.29.33.1 0 .16.06.18.18Z" fill="#14406E"/><path d="M8 9a3.2 3.2 0 0 1-.74 2.12 2.25 2.25 0 0 1-3.55.01A3.18 3.18 0 0 1 3 9c0-.84.24-1.54.72-2.13A2.2 2.2 0 0 1 5.48 6c.7 0 1.29.3 1.78.88.5.58.74 1.29.74 2.12Zm-1.07-.01c0-.67-.13-1.24-.39-1.72-.27-.5-.63-.76-1.06-.76-.43 0-.77.25-1.02.76A3.92 3.92 0 0 0 4.12 9c0 .68.12 1.26.34 1.72.25.52.6.78 1.02.78.44 0 .8-.26 1.07-.78.25-.47.38-1.05.38-1.72Z" fill="#14406E"/></svg>