<!-- by TradingView --><svg width="18" height="18" viewBox="0 0 18 18" xmlns="http://www.w3.org/2000/svg"><path fill="#F0F3FA" d="M0 0h18v18H0z"/><path fill-rule="evenodd" d="m7.26 10.27.5-2.72C7.93 6.75 7.27 6 6.42 6h-.68c-1.06 0-1.96.71-2.16 1.7l-.54 2.73c-.17.82.48 1.57 1.35 1.57h.72c1.07 0 1.98-.73 2.16-1.73Zm-1.8.57.61-3.6a.29.29 0 0 0-.27-.34c-.14 0-.25.1-.28.23l-.67 3.6c-.03.19.11.37.3.37a.3.3 0 0 0 .3-.26ZM8 8l-.83 4h1.35l.61-3.14c.07-.09.16-.17.26-.17.16 0 .17.2.15.29L8.92 12h1.34c.15-.79.46-2.47.55-2.86.1-.5.12-1.14-.63-1.14-.48 0-.79.22-.95.4l.08-.4h-1.3Z" fill="#FF6E03"/><path fill-rule="evenodd" d="M10.71 11h1.87l-.23 1h1.55l.2-1h.4l.2-1h-.42L15 6h-2.07l-2 3.88-.22 1.12Zm1.37-1h.63l.56-2.57-1.19 2.33V10Z" fill="#6A87AF"/><path d="m8.9 6-.67 1.5H9.4l.34-.72L8.9 6Z" fill="url(#a31j0mwvm)"/><path d="m9.7 6-.68 1.5h1.17l.34-.72L9.69 6Z" fill="url(#b31j0mwvm)"/><path d="m10.55 6-.67 1.5h1.16l.34-.72-.83-.78Z" fill="url(#c31j0mwvm)"/><path d="m11.4 6-.68 1.5h1.17l.34-.72L11.4 6Z" fill="url(#d31j0mwvm)"/><defs><linearGradient id="a31j0mwvm" x1="8.82" y1="6.52" x2="9.66" y2="6.76" gradientUnits="userSpaceOnUse"><stop stop-color="#F5B70E"/><stop offset=".99" stop-color="#FA9000"/></linearGradient><linearGradient id="b31j0mwvm" x1="9.61" y1="6.52" x2="10.46" y2="6.76" gradientUnits="userSpaceOnUse"><stop stop-color="#CBE40F"/><stop offset=".99" stop-color="#6CB510"/></linearGradient><linearGradient id="c31j0mwvm" x1="10.47" y1="6.52" x2="11.31" y2="6.76" gradientUnits="userSpaceOnUse"><stop stop-color="#51AB0B"/><stop offset=".99" stop-color="#2E8246"/></linearGradient><linearGradient id="d31j0mwvm" x1="11.31" y1="6.52" x2="12.23" y2="6.46" gradientUnits="userSpaceOnUse"><stop stop-color="#7091A2"/><stop offset="1" stop-color="#256159"/></linearGradient></defs></svg>