<!-- by TradingView --><svg width="18" height="18" viewBox="0 0 18 18" xmlns="http://www.w3.org/2000/svg"><path fill="#F0F3FA" d="M0 0h18v18H0z"/><path d="M12.98 5H5.02C5.01 5 5 5 5 5.02v.96l.02.02h7.96c.01 0 .02 0 .02-.02v-.96L12.98 5ZM5.19 9H4L4 8.97V8H14l.01.01v.97a.02.02 0 0 1-.02.02H7.72c-.2 0-.34 0-.43.02-.63.1-1.15.72-1.39 1.3a1.79 1.79 0 0 0-.06 1.17c.2.66.72 1.34 1.4 1.48.1.02.23.03.4.03h2.7c.18 0 .32-.01.42-.03.92-.18 1.43-1 1.47-1.9V11h1.18a3.02 3.02 0 0 1-3.1 3 1006.05 1006.05 0 0 1-3.02-.02 3.03 3.03 0 0 1-2.07-1.14A2.93 2.93 0 0 1 4.59 11c0-.67.2-1.46.6-2Z" fill="#007FFF"/></svg>