<!-- by TradingView --><svg width="18" height="18" viewBox="0 0 18 18" xmlns="http://www.w3.org/2000/svg"><path fill="#11345E" d="M0 0h18v18H0z"/><path d="m13.42 9.31-.56.11c-.03 0-.04.02-.04.04a3.91 3.91 0 0 1-3.3 3.35.1.1 0 0 0-.1.09l-.4 2.04c-.02.08-.04.08-.05 0l-.42-2.07a.06.06 0 0 0-.06-.06 3.69 3.69 0 0 1-2.22-1.1 3.95 3.95 0 0 1-1.1-2.22.08.08 0 0 0-.08-.08l-2.01-.4c-.1-.02-.1-.04 0-.06l2.04-.41c.03 0 .05-.03.05-.06A3.83 3.83 0 0 1 8.5 5.17c.03 0 .05-.03.06-.06l.14-.68.27-1.35c.02-.1.04-.1.06 0l.4 2.02c.01.04.03.06.07.06.88.14 1.62.5 2.23 1.1.62.62.98 1.37 1.1 2.25 0 .01 0 .02.02.03l2.1.42c.08.01.08.03 0 .04l-1.52.31Z" fill="#fff"/><path d="m8.41 5.74-.15.76c-.26.09-.5.2-.73.35a.09.09 0 0 0-.04.08l.01.53c0 .03-.01.05-.05.05h-.54a.06.06 0 0 0-.06.03l-.35.72-.82.15c.04-.35.13-.67.29-.96A3.48 3.48 0 0 1 8.3 5.66c.03 0 .05 0 .05.04s.02.05.06.04ZM12.26 8.41l-.73-.14c.02 0 .02-.02.03-.02 0-.02 0-.04-.02-.05l-.04-.02a.12.12 0 0 1-.06-.06l-.23-.5a.17.17 0 0 0-.17-.11h-.53c-.03 0-.04-.02-.04-.05l-.01-.55a.1.1 0 0 0-.06-.09l-.69-.32-.14-.77c.15-.06.35-.03.61.08a3.43 3.43 0 0 1 2.14 2.5c0 .04-.02.07-.06.1Z" fill="#886F06"/><path d="m8.26 6.5-.15.81c0 .03 0 .05.02.07l.14.16c-.35.14-.59.38-.73.73l-.18-.15a.08.08 0 0 0-.07-.02l-.79.16.35-.72a.06.06 0 0 1 .06-.04l.54.01c.04 0 .05-.02.05-.05v-.53c0-.03 0-.06.03-.08.23-.15.47-.26.73-.35Z" fill="#11345E"/><path d="m8.27 7.54.13.15-.68.74-.18-.16c.14-.35.38-.6.73-.73ZM9.71 7.54c.32.14.57.38.76.7l-.21.2c-.2-.3-.43-.53-.71-.71l.16-.2Z" fill="#886F06"/><path d="m8.4 7.69.54.56c.03.04.07.04.1 0l.5-.52c.29.18.52.42.72.72l-.53.5c-.02.01-.02.03 0 .05l.53.52c-.2.3-.44.55-.73.74l-.5-.53c-.03-.03-.05-.03-.08 0l-.51.54c-.29-.2-.53-.45-.74-.73l.55-.52c.03-.02.03-.05 0-.08l-.53-.5.68-.75Z" fill="#11345E"/><path d="m10.25 9.52.25.23c-.22.3-.48.54-.78.7l-.19-.2c.3-.18.53-.42.72-.73ZM5.7 9.55l.76.15.37.71c.01.04.04.05.08.05l.52-.01c.05 0 .07.02.07.07l-.01.5c0 .06.02.1.06.13.22.14.45.25.71.32l.17.86a3.46 3.46 0 0 1-2.6-2.1c-.1-.24-.14-.47-.12-.68ZM7.7 9.54c.2.28.45.52.74.73l-.16.16c-.34-.12-.59-.36-.75-.73l.17-.16ZM12.31 9.56a3.21 3.21 0 0 1-.97 1.88c-.48.45-1.07.74-1.78.88l.15-.83.71-.34a.07.07 0 0 0 .04-.07v-.57c0-.05.03-.07.08-.07.16.02.32.02.49 0 .1 0 .17-.05.2-.13.11-.26.21-.46.3-.61l.78-.14Z" fill="#886F06"/><path d="M12.26 8.41c.04-.03.06-.06.06-.1a3.43 3.43 0 0 0-2.14-2.5c-.26-.11-.46-.14-.6-.08l-.09-.28c0-.04 0-.05.05-.05a3.58 3.58 0 0 1 3.03 3.02c.01.03 0 .05-.03.04l-.28-.05ZM8.41 5.74c-.04 0-.06 0-.06-.04 0-.03-.02-.05-.05-.04a3.48 3.48 0 0 0-2.33 1.8c-.16.28-.25.6-.3.95l-.21.06c-.04 0-.05 0-.05-.04A3.58 3.58 0 0 1 8.45 5.4c.04 0 .05.01.04.05l-.08.29Zm2 1.08-.7-.32.16.82c0 .02 0 .04-.02.06l-.14.16c.32.14.57.38.76.7l.13-.12a.07.07 0 0 1 .07-.02l.86.17c.02 0 .02-.02.03-.02 0-.02 0-.04-.02-.05l-.04-.02a.12.12 0 0 1-.06-.06l-.23-.5a.17.17 0 0 0-.17-.11h-.53c-.03 0-.04-.02-.04-.05l-.01-.55a.1.1 0 0 0-.06-.09Zm-.85 5.5c.71-.14 1.3-.43 1.78-.88.52-.5.85-1.13.97-1.88.03-.03.1-.06.24-.08.02 0 .02.01.02.03-.1.8-.44 1.48-1 2.03-.55.55-1.22.9-2.03 1.04-.03 0-.04 0-.04-.04 0-.1.02-.17.06-.22Zm-3.73-2.1c-.1-.23-.14-.46-.12-.67l-.26-.06c-.04 0-.05 0-.05.05.15.8.49 1.47 1.03 2.01a3.6 3.6 0 0 0 2 1.02c.03 0 .04 0 .05-.03 0-.09-.02-.16-.05-.2a3.46 3.46 0 0 1-2.6-2.12Zm.63-.52.84.17a.1.1 0 0 0 .09-.03l.14-.14c.16.37.41.61.75.73l-.15.16a.1.1 0 0 0-.02.1l.15.78c-.26-.07-.5-.18-.7-.32a.14.14 0 0 1-.07-.12v-.51c0-.05-.01-.07-.06-.07l-.52.01a.09.09 0 0 1-.08-.05l-.37-.71Zm4.78.6c.1-.25.2-.45.3-.6l-.87.16c-.04.01-.1-.03-.17-.11-.22.3-.48.54-.78.7l.13.16c.01.02.02.04.01.06l-.15.82.71-.34a.07.07 0 0 0 .04-.07v-.57c0-.05.03-.07.08-.07.16.02.32.02.49 0 .1 0 .17-.05.2-.13Z" fill="#11345E"/></svg>