<!-- by TradingView --><svg width="18" height="18" viewBox="0 0 18 18" xmlns="http://www.w3.org/2000/svg"><path fill="#F0F3FA" d="M0 0h18v18H0z"/><path d="M11.82 6.78a.92.92 0 0 1 .58-.52.8.8 0 0 1 .72.15l.03-.01a1 1 0 0 1 .38-.3.71.71 0 0 1 .41-.07c.14.02.27.09.37.2a1 1 0 0 1 .25.46c0 .01.02.02.03.01.56-.08.87.2.93.83l.01.1c0 .02.02.04.03.05.2.14.34.33.4.58.07.26.05.5-.07.74l-.17.27a.1.1 0 0 0-.02.05c-.02.25-.07.46-.14.62a.65.65 0 0 1-.32.33c-.13.07-.27.1-.43.11-.02 0-.03.01-.04.03a.91.91 0 0 1-.63.58c-.02 0-.03.02-.03.04v.94c0 .02-.01.03-.03.03h-1.34c-.02 0-.03-.01-.03-.03v-1.09c0-.02 0-.03-.02-.03a.78.78 0 0 1-.43-.4c0-.02-.02-.02-.03-.02-.36.12-.67.02-.93-.3h-.04c-.15.23-.4.29-.72.19h-.04a.83.83 0 0 1-.6.27l-.2.01c-.02 0-.03.01-.03.03v1.34c0 .02 0 .03-.02.03H8.4c-.01 0-.02 0-.02-.02v-1.36c0-.02 0-.03-.02-.03a.58.58 0 0 1-.45-.35c0-.01-.02-.02-.04-.01-.31.11-.58.04-.78-.22-.02-.02-.03-.02-.04 0-.07.18-.18.3-.31.35a1.3 1.3 0 0 1-.46.03c-.01 0-.02.01-.02.03-.06.32-.23.5-.49.57-.02 0-.03.02-.03.04v.94c0 .02 0 .03-.02.03h-1.4c-.03 0-.04-.01-.04-.04v-1c0-.02 0-.03-.02-.04-.16-.04-.28-.09-.36-.14a.67.67 0 0 1-.27-.3c0-.02-.02-.02-.03-.02l-.29.03c-.44 0-.7-.24-.8-.73a.05.05 0 0 0-.02-.04.9.9 0 0 1-.46-.6.95.95 0 0 1 .15-.78V8.3a.85.85 0 0 1-.03-.51c.03-.18.1-.33.2-.46.2-.23.42-.35.67-.34.02 0 .03 0 .03-.03a.73.73 0 0 1 .25-.42c.1-.07.24-.14.42-.2a.8.8 0 0 1 .72.11h.04c.26-.32.54-.45.85-.37.34.08.56.29.67.64 0 .02.01.02.03.02.38-.16.68-.04.9.34h.02a.72.72 0 0 1 .6-.34c.02 0 .04-.01.05-.03.14-.25.32-.4.54-.47a.8.8 0 0 1 .68.12c.02 0 .03 0 .05-.02.06-.11.14-.2.25-.26A.6.6 0 0 1 9.46 6c.4.02.65.2.75.52.01.02.02.03.04.03.51-.03.84.12.97.44.01.02.02.02.04 0 .16-.18.33-.24.53-.2.01.01.03 0 .03-.01ZM7.87 9.37l.19.64c.08.29.25.4.5.33.02 0 .03 0 .03.02v1.39l.01.01h.83c.02 0 .03 0 .03-.03v-1.3c0-.03.01-.04.03-.04.06-.02.16-.03.29-.03.15-.01.27-.03.34-.05a.6.6 0 0 0 .3-.26c.01-.02.02-.02.04-.02.2.08.34.1.43.09.17-.04.27-.15.28-.33a45.8 45.8 0 0 0 .07-.96l.13.9c.05.28.22.45.52.5.17.04.32-.03.43-.2h.03l.01.01c.05.36.23.56.53.61.02 0 .02.02.02.04v1.05c0 .02.01.02.02.02h.95c.02 0 .02 0 .02-.02v-.95c0-.02.01-.03.02-.03.34.02.58-.17.7-.57.02-.03.04-.05.08-.05.1.01.21 0 .33-.04.15-.04.25-.1.3-.19.1-.13.15-.36.17-.7l.02-.05c.13-.17.2-.28.21-.32a.8.8 0 0 0 0-.6.8.8 0 0 0-.38-.42l-.02-.04c0-.16-.02-.3-.05-.43-.05-.23-.18-.37-.37-.41a.72.72 0 0 0-.52.1c-.03.01-.04 0-.04-.04a.79.79 0 0 0-.06-.45.5.5 0 0 0-.6-.27.67.67 0 0 0-.33.22c-.07.07-.12.17-.17.28-.01.02-.03.02-.04 0a.73.73 0 0 0-.33-.28.55.55 0 0 0-.37-.01.64.64 0 0 0-.32.21.91.91 0 0 0-.19.43l-.01.02h-.03c-.16-.18-.33-.17-.5.02a2.5 2.5 0 0 0-.37.68c-.02.04-.02.03-.02 0l.05-.51c.02-.26-.1-.43-.35-.51a1.3 1.3 0 0 0-.63-.03c-.03 0-.04 0-.04-.03-.01-.18-.07-.32-.18-.4a.71.71 0 0 0-.38-.13.43.43 0 0 0-.34.11c-.1.09-.16.2-.2.34 0 .03-.01.03-.03.02a.99.99 0 0 0-.44-.25.54.54 0 0 0-.47.12.98.98 0 0 0-.3.4c0 .02-.02.03-.04.02-.2-.06-.37 0-.5.18a2.34 2.34 0 0 0-.31.6 13.44 13.44 0 0 1-.04-.16c-.02-.2-.04-.34-.07-.42a.46.46 0 0 0-.28-.26c-.19-.08-.39-.01-.6.2h-.02l-.01-.02c0-.2-.04-.37-.1-.48a.64.64 0 0 0-.34-.3.56.56 0 0 0-.57.08c-.15.11-.28.27-.4.5h-.01l-.02-.01-.01-.07c-.03-.1-.05-.17-.08-.2-.11-.1-.27-.12-.47-.07-.18.03-.33.1-.46.22a.34.34 0 0 0-.12.25 1.43 1.43 0 0 0 .06.4c0 .02 0 .03-.02.02a.7.7 0 0 1-.11-.1.6.6 0 0 0-.13-.1.23.23 0 0 0-.18-.02.77.77 0 0 0-.48.45.75.75 0 0 0-.04.41c0 .03 0 .04.02.05l.21.18v.03l-.09.04a.57.57 0 0 0-.13.08.36.36 0 0 0-.1.16c-.14.44 0 .74.44.91.01.01.02.02.02.05 0 .16.03.3.12.44.1.14.25.21.44.2.12 0 .28-.03.5-.09.02 0 .03 0 .03.02-.02.18.03.3.16.38.13.08.3.14.5.17.01 0 .02.01.02.03v.98c0 .02 0 .03.03.03h.99c.02 0 .03 0 .03-.03v-.92c0-.03 0-.04.03-.04.18 0 .3-.05.38-.16.07-.08.1-.23.13-.44 0-.02.01-.03.03-.03l.12.01c.2.02.34.02.42-.01.13-.05.22-.17.25-.36a10.84 10.84 0 0 0 .1-.56l.06.19c.1.26.17.43.25.51.12.14.3.16.52.07l.02-.04v-.58c0-.04 0-.04.02 0Z" fill="#221F1F"/></svg>