<!-- by TradingView --><svg width="18" height="18" viewBox="0 0 18 18" xmlns="http://www.w3.org/2000/svg"><path fill="#F0F3FA" d="M0 0h18v18H0z"/><path d="m5.72 9.31-1.4.63-.16-1.4.46-1.41.79-1.41.62-.47 1.4-.78 1.1-.31h.63l1.25.3 1.4.63.94.79.63.93.3.63.16 1.25v.78l-.62-.16-.94-1.1h-.47L10.56 6.5l-.47-.31L9 7.44l-1.4.62-.63-.62L5.72 9.3Z"/><path d="M7.75 10.25c.25 0 .63-.2.78-.31-1.25 0-1.56-.78-1.4-.94.15-.16.62.31.46.16-.15-.16-.78-1.25-.62-1.41.16-.16.94.94 1.25 1.25.31.31 1.25.94 1.87.94.5 0 .94-.1 1.1-.16-.63 0-.94-.62-1.1-.62-.15 0-.3.3-.62.15-.31-.15 0-.62 0-.78 0-.15-.16.16-.47.31-.25.13-.31.06-.31 0 .31-.3.62-.93 1.1-.93.46 0 .62.46.93.62.25.13.31.05.31 0-.78-.94-1.1-2.03-.94-2.19.16-.15.94 1.25 1.25 1.72.25.38.84.78 1.1.94-.31-.47-.47-.47-.31-.63.15-.15.54.74.93.94.31.16.63.16.78.16V9.3c-.62-.15-.78-.47-.93-.62l-.63-.63c-.15-.15-.5-.03-.62-.15-.16-.16-1.1-2.04-1.41-2.04-.31 0-.47.32-.63.47-.15.16-.62.16-.93.47-.31.32-.78.94-1.1.94-.3 0-.46-.31-.78-.31-.31 0-1.25 1.4-1.72 1.87-.37.38-.78.47-.93.47l.15.31c.42-.2 1.35-.62 1.72-.62.47 0 1.4.78 1.72.78Z" fill="#92762C"/><path fill-rule="evenodd" d="M9 13.69A4.69 4.69 0 1 0 9 4.3a4.69 4.69 0 0 0 0 9.38ZM9 14A5 5 0 1 0 9 4a5 5 0 0 0 0 10Z" fill="#040707"/></svg>