<!-- by TradingView --><svg width="18" height="18" viewBox="0 0 18 18" xmlns="http://www.w3.org/2000/svg"><path fill="#F0F3FA" d="M0 0h18v18H0z"/><path d="M9.01 14c-.91 0-1.76-.21-2.52-.64A4.86 4.86 0 0 1 4 8.99a4.86 4.86 0 0 1 2.49-4.35A5.12 5.12 0 0 1 9 4c.92 0 1.76.21 2.52.64a4.63 4.63 0 0 1 1.8 1.78A5 5 0 0 1 14 8.99c0 .96-.22 1.82-.67 2.59a4.76 4.76 0 0 1-1.8 1.78c-.76.43-1.6.64-2.52.64Zm0-2.17c.78 0 1.4-.26 1.87-.78.47-.52.7-1.2.7-2.06 0-.86-.23-1.55-.7-2.06A2.37 2.37 0 0 0 9 6.16c-.78 0-1.41.25-1.88.76s-.7 1.2-.7 2.07a3 3 0 0 0 .7 2.08c.47.5 1.1.76 1.88.76Z"/></svg>