<!-- by TradingView --><svg width="18" height="18" viewBox="0 0 18 18" xmlns="http://www.w3.org/2000/svg"><path fill="#BD7428" d="M0 0h18v18H0z"/><path d="M5.5 10c-.56 0-1-.43-1-1 0-.56.44-1 1-1a1 1 0 0 1 1 1c0 .56-.44 1-1 1Zm0-.38c.34 0 .5-.3.5-.62 0-.33-.16-.62-.5-.62-.35 0-.5.29-.5.62s.15.62.5.62ZM9 10V8h.5l.6 1.41h-.18L10.5 8h.5v2h-.5V8.67h.18l-.59 1.12h-.18L9.3 8.67h.2V10H9ZM12.63 10c-.57 0-1.13-.38-1.13-1s.56-1 1.14-1c.36 0 .66.12.86.34l-.31.27a.7.7 0 0 0-.53-.23c-.36 0-.66.24-.66.62s.3.62.66.62c.21 0 .39-.08.53-.23l.31.26c-.2.23-.5.35-.87.35ZM7 10V8h.75c.43 0 .75.28.75.73 0 .44-.32.72-.75.72h-.53l.28-.21V10H7Zm.5-.7-.28-.23h.5c.25 0 .37-.13.37-.34 0-.23-.12-.35-.36-.35h-.5l.27-.22v1.13Z" fill="#fff"/><path fill-rule="evenodd" d="M9 14.5a5.5 5.5 0 1 0 0-11 5.5 5.5 0 0 0 0 11Zm0 .5A6 6 0 1 0 9 3a6 6 0 0 0 0 12Z" fill="#fff"/></svg>