<!-- by TradingView --><svg width="18" height="18" viewBox="0 0 18 18" xmlns="http://www.w3.org/2000/svg"><path fill="#F0F3FA" d="M0 0h18v18H0z"/><path d="M12.41 14H7.37C5.13 14 4 13.17 4 11.5V7.46C4 5.82 5.1 5 7.32 5h1.1c.38 0 .58.15.58.5s-.2.5-.58.5H7.34C5.94 6 5 6.53 5 7.48V9h7.45c.37 0 .55.12.55.46s-.18.54-.55.54H5v1.46c0 .98.96 1.54 2.43 1.54h4.98c.4 0 .59.15.59.5s-.2.5-.59.5Z"/><path d="M9 4.5c0-.28.25-.5.55-.5h3.9c.3 0 .55.22.55.5s-.25.5-.55.5h-3.9C9.25 5 9 4.78 9 4.5Z" fill="#E41C1B"/></svg>