<!-- by TradingView --><svg width="18" height="18" viewBox="0 0 18 18" xmlns="http://www.w3.org/2000/svg"><path fill="#F0F3FA" d="M0 0h18v18H0z"/><path d="M8.87 13.7a3.05 3.05 0 0 0 1.68-.64c.25-.17.47-.4.67-.67l.37-.63c.03-.04.01-.07-.04-.08a10.46 10.46 0 0 0-4.8-.05 9.62 9.62 0 0 1 1.74-.92c0 .06.04.08.1.06l.25-.03a10.2 10.2 0 0 1 2.96.32c.1-.3.1-.6.04-.9.02-.01.02-.06 0-.14a.5.5 0 0 0-.05-.24c.02-.03.02-.06-.01-.11 0-.04 0-.07-.02-.08 0-.08 0-.15-.02-.21A3.34 3.34 0 0 0 10.5 7.6a3.12 3.12 0 0 0-3.87.15 3.34 3.34 0 0 0-1.17 2.72l.05.38v.07c-.04.07-.03.12.02.14 0 .02 0 .06.02.1-.02.06 0 .1.03.12h.1l1.05-.32.6-.13c.08.05.23.04.43-.03.06-.02.1 0 .1.07-.55.28-1.05.59-1.52.92a.86.86 0 0 0-.48.1c-.02.02-.03.04-.01.06l.42.61a3.06 3.06 0 0 0 1.55 1.01l-.76.18a.1.1 0 0 1-.1-.03.11.11 0 0 1-.03-.08c-.02-.24-.2-.41-.38-.55a1.88 1.88 0 0 0-1.44-.42.24.24 0 0 1-.2-.07.09.09 0 0 1-.02-.03c-.02-.05 0-.08.05-.1.18-.03.29-.11.33-.22.1-.27.02-.64-.2-.8a1.03 1.03 0 0 0-.42-.18.15.15 0 0 1-.08-.04 2.7 2.7 0 0 1-.57-.85v-.09c.6.03.9-.27.9-.9 0-.17-.02-.32-.07-.47 0-.02 0-.05.02-.07.16-.21-.2-.5-.37-.57v-.01l-.01-.01a.03.03 0 0 1 0-.03c.14-.1.56-.51.35-.71a.47.47 0 0 0-.43-.13c-.02 0-.03 0-.04-.03a.46.46 0 0 1-.02-.23c0-.03.02-.05.04-.07a.1.1 0 0 0 .02-.03.1.1 0 0 0 0-.1 1.32 1.32 0 0 1-.12-.18.11.11 0 0 1 0-.08v-.02l.03-.02a.05.05 0 0 1 .05.02c.23.2.47.3.73.29.27-.02.55-.2.58-.5v-.03l.02-.01a.04.04 0 0 1 .04 0 .4.4 0 0 0 .31.14.08.08 0 0 0 .06-.04.1.1 0 0 0 .02-.07.85.85 0 0 0-.1-.28.06.06 0 0 1 0-.06c.18-.4-.2-.48-.36-.7a.12.12 0 0 1-.02-.1.12.12 0 0 1 .06-.08.34.34 0 0 1 .28 0c.03 0 .05 0 .07-.02l.67-1c.02-.03.03-.03.05-.01l.08.07c.02.02.03.05.02.07-.07.29.18.46.42.46h.04l.02.04.03.1c.01.03 0 .06-.02.07a1 1 0 0 0-.3.32.11.11 0 0 0 .02.14c.18.16.38.22.59.2.33-.05.56-.54.64-.85.12-.43.54-.32.83-.2.36.17.93-.6 1.13-.87.02-.02.04-.03.06-.02.36.17.73.04 1-.24.03-.02.05-.02.08 0 .4.24.84-.04 1.03-.43 0-.02.02-.03.04-.04h.04l.03.01v.03l-.09.6a.1.1 0 0 1-.02.04c-.27.3-.46.6-.58.91-.01.03-.04.05-.07.05h-.45a.07.07 0 0 0-.06.03l-.03.03c-.01.03-.04.03-.06.02a.41.41 0 0 0-.43 0 .1.1 0 0 1-.07.01c-.26-.04-.5-.04-.7.02-.45.11-.34.71-.2 1.03l.01.02h.03a.6.6 0 0 1 .53.14c.02.01.05.02.07 0l.26-.13.03-.03v-.05a.25.25 0 0 1 .07-.2.08.08 0 0 1 .1-.02s.02 0 .03.02a.1.1 0 0 1 .02.04c.03.3 0 .55.3.71a.1.1 0 0 0 .1 0c.1-.08.19-.17.24-.28a.08.08 0 0 1 .07-.05l.48-.02c.02 0 .04 0 .06.02l.1.11.06.03.26-.02c.03 0 .05-.01.06-.05a.41.41 0 0 1 .24-.32c.03 0 .04-.02.03-.05a.3.3 0 0 0-.09-.18.08.08 0 0 1-.02-.04v-.05l.04-.04c.01-.01.03-.02.05-.01l.23.02a.1.1 0 0 0 .07-.02l.33-.28c.07-.06.1-.04.07.04a.3.3 0 0 0 0 .11.1.1 0 0 1-.03.09.27.27 0 0 0-.06.22v.04l-.03.03c-.2.09-.37.2-.5.37-.03.03-.02.06.02.07l.12.04.03.03.02.04c.03.1-.06.19-.15.2-.36.08-.68.22-.52.68.06.19.15.36.28.52.03.04.02.07-.02.08-.13.03-.33.17-.2.32.05.06.12.1.21.1.03 0 .05 0 .05.04.01.07 0 .13-.02.19a5.08 5.08 0 0 0-.2.5c-.08.06-.21.15-.15.28a.06.06 0 0 1 0 .06.5.5 0 0 0-.11.3c0 .03 0 .05.03.07l.05.02a.1.1 0 0 1 .05.06c.1.26.4.92.77.62a1.17 1.17 0 0 0 .48-.83.01.01 0 0 1 .02 0c.02 0 .03.03.04.05.1.26.21.5.21.78l-.01.03-.03.02c-.22.07-.4.17-.53.32-.06.06-.13.12-.21.17-.2.12-.32.3-.36.55 0 .03-.02.06-.04.09a.52.52 0 0 1-.49.15.1.1 0 0 0-.06.02c-.36.23-.34.69-.21 1.05 0 .03 0 .04-.03.05-.7.11-1.4.52-1.58 1.27 0 .03-.02.04-.04.02-.19-.1-.41-.09-.68.02-.32.13-.6.05-.86-.24Z" fill="#791214"/><path d="M11.76 9.59c-.27-.08-.52-.2-.76-.34a9.14 9.14 0 0 0-.37-.2 4.46 4.46 0 0 1-.37-.22c-.38-.24-.74-.46-1.1-.66-.53-.31-1.08-.44-1.67-.16-.31.15-.57.36-.78.63-.38.49-.6 1.03-.67 1.63l-.58.2c-.01-1.14.38-2.04 1.17-2.71a3.12 3.12 0 0 1 3.87-.15c.59.42 1 1 1.24 1.77.02.06.03.13.02.2Z" fill="#C32E33"/><path d="M11.76 9.59c.02.01.02.04.02.08h-.17a5.96 5.96 0 0 1-1.23-.51c-.3-.17-.6-.33-.9-.47-.13-.06-.27-.07-.4-.16h-.05c-.04.03-.08.04-.12.02-.01 0-.02-.01-.01-.02v-.02c0-.03.02-.05.05-.04.3.05.55.12.73.22a46.6 46.6 0 0 1 1.16.6v-.04c-.46-.25-.9-.5-1.3-.75-.76-.48-1.62-.8-2.4-.13-.04.04-.04.06.01.08.23.09.49.05.74.08.18.02.18.04 0 .07-.26.04-.54.02-.83-.06a.1.1 0 0 0-.08.01.18.18 0 0 0-.07.1c-.19.16-.33.35-.42.59l-.2.53c-.07.11-.1.25-.11.4-.05.42.12.62.52.6.1 0 .24-.02.35-.06.34-.12.67-.25 1-.39a6.75 6.75 0 0 1 1.86-.46.58.58 0 0 1-.22.05c-.03 0-.05 0-.07.02-.12.07-.23.05-.36.08a8.71 8.71 0 0 0-1.42.5v.01h.02c.73-.23 1.46-.44 2.21-.6a6.74 6.74 0 0 1 1.3.03l.06.03.41.04c.02.08.02.13 0 .14-.3-.06-.63-.07-.97-.03a9 9 0 0 0-4.11 1.5l-.63.45H6.1v-.01l-.02-.02A.05.05 0 0 1 6.1 12l.24-.19c.47-.33.97-.64 1.52-.92.68-.33 1.3-.55 1.88-.67a19.78 19.78 0 0 1 1.2-.23 6.76 6.76 0 0 0-2.48.46c-.36.14-.74.27-1.14.4l-.6.13c-.44-.02-.67-.25-.68-.7.07-.6.3-1.14.67-1.63.2-.27.47-.48.78-.63.6-.28 1.14-.15 1.68.16.35.2.71.42 1.09.66l.37.22.37.2c.24.15.5.26.76.34Z" fill="#FFFEFE"/><path d="M11.78 9.67c.03.05.03.08.01.11a9.92 9.92 0 0 0-2.17-.06v.02l.86.04c.4 0 .83.04 1.27.1.03.01.04 0 .05-.02a.2.2 0 0 0 0-.08.5.5 0 0 1 .04.24l-.4-.04a.08.08 0 0 1-.06-.03 6.74 6.74 0 0 0-1.3-.03.4.4 0 0 1-.17-.06.8.8 0 0 0-.32.03c-.04-.05-.11-.07-.22-.06-.35.03-.74.03-1.17 0a6.08 6.08 0 0 1 2.28-.26 14.7 14.7 0 0 0 .65.02v-.01h-.01l-.45-.1c-.03 0-.04-.02-.04-.05 0-.03 0-.04-.04-.02v.01c-.01.03-.03.04-.05.04l-.83-.04a5.22 5.22 0 0 0-1.52.14l-1.27.3a.9.9 0 0 1-.64-.09l.2-.53c.52.14 1 .14 1.42 0 .33-.1.58-.3.75-.58.03-.05.02-.07-.04-.06-.34.09-.68.13-1.01.14-.22 0-.46-.06-.69-.09a.18.18 0 0 1 .07-.1.1.1 0 0 1 .08-.01c.29.08.57.1.83.06.18-.03.18-.05 0-.07-.25-.03-.51 0-.74-.08-.05-.02-.05-.04-.01-.08.78-.68 1.64-.35 2.4.13a20.98 20.98 0 0 0 1.3.77v.02h-.03a46.6 46.6 0 0 0-1.13-.6c-.18-.1-.42-.17-.73-.22-.03 0-.05 0-.05.04v.04c.05.02.1.01.13-.01.02-.02.04-.02.06 0 .12.08.26.09.4.15.3.14.6.3.9.47.38.22.81.38 1.22.5.05.02.1.02.17 0Z" fill="#C32E33"/><path d="M6.49 9.24c.09-.24.23-.43.42-.59.23.03.47.09.69.09.33 0 .67-.05 1-.14.06-.01.08 0 .05.06-.17.29-.42.49-.75.59-.42.13-.9.13-1.41-.01ZM8.85 8.88c0 .16.07.28.16.28s.16-.12.16-.27c0-.15-.07-.28-.16-.28s-.16.12-.16.27ZM9.24 8.98c0 .13.06.24.13.24s.13-.1.14-.24c0-.13-.06-.24-.13-.24-.08 0-.14.1-.14.24ZM9.57 9.07c0 .12.06.21.13.2.06 0 .12-.09.11-.2 0-.12-.05-.2-.12-.2-.07 0-.12.09-.12.2ZM9.88 9.16c0 .1.05.16.1.16.06 0 .1-.07.1-.16S10.03 9 9.98 9c-.06 0-.1.07-.1.16ZM10.49 9.4l-.02.02h-.03c-.04-.01-.06-.04-.04-.1 0-.01 0-.02.02-.03l.03-.02h.03l.02.02c.01.02 0 .05-.01.1Z" fill="#71D0F7"/><path d="M8.2 9.84c-.65.16-1.12.29-1.4.38a.7.7 0 0 1-.62-.05c.01-.15.04-.29.1-.4.2.1.4.13.63.08.43-.08.85-.18 1.27-.29.5-.12 1.01-.17 1.53-.14.28 0 .55.02.82.04.03 0 .05-.01.05-.04l.01-.01c.03-.02.04 0 .04.02 0 .03.01.05.04.06a17.93 17.93 0 0 0 .45.1v.02h-.02c-.2 0-.42-.02-.62-.04a6.08 6.08 0 0 0-2.28.26Z" fill="#71D0F7"/><path d="M11.8 9.78a.2.2 0 0 1 0 .08c0 .02-.02.03-.05.03-.44-.07-.87-.11-1.27-.11a14.4 14.4 0 0 1-.87-.05l.01-.01.95-.04c.19-.01.6.02 1.22.1Z" fill="#FFFEFE"/><path d="M9.6 9.89c-.54.08-1.06.22-1.56.43-.32.14-.66.27-.99.39-.11.04-.25.06-.35.07-.4.01-.57-.19-.52-.61.19.11.4.13.63.05.27-.09.74-.22 1.39-.38.43.02.82.02 1.17-.01.1-.01.18 0 .22.06Z" fill="#520E10"/><path d="M9.91 9.86a.4.4 0 0 0 .16.06 22.38 22.38 0 0 0-2.22.6l-.01-.02A8.7 8.7 0 0 1 9.26 10c.13-.03.24 0 .36-.08a.13.13 0 0 1 .07-.02c.06 0 .14-.02.22-.05ZM7.86 10.88c0-.07-.04-.09-.1-.07-.2.07-.35.08-.44.03.4-.13.78-.26 1.14-.4a6.76 6.76 0 0 1 2.48-.46V10a8.28 8.28 0 0 0-3.08.88Z" fill="#520E10"/><path d="M11.84 10.16a1.77 1.77 0 0 1-.05.91h-.02a10.2 10.2 0 0 0-3.18-.3c-.06.02-.1 0-.1-.06a9 9 0 0 1 2.38-.58c.34-.04.67-.03.97.03ZM6.04 10.27c0 .45.24.68.69.7l-1.06.32h-.1c-.03-.02-.04-.06-.02-.12l.48-.35.01-.01a.03.03 0 0 0 0-.03v-.02l-.02-.01H6l-.46.32c-.06-.02-.07-.07-.04-.14l.01-.07-.05-.38.58-.21Z" fill="#520E10"/><path d="M5.55 11.17c-.02-.04-.03-.08-.01-.1l.46-.32h.02l.02.01v.02a.03.03 0 0 1 0 .04l-.5.35Z" fill="#FFFEFE"/><path d="m11.22 12.39-.69-.1a10.97 10.97 0 0 0-4.26.28l-.42-.61c-.02-.02-.01-.04.01-.06a.86.86 0 0 1 .48-.1l-.24.2a.05.05 0 0 0 0 .05v.02h.03l.63-.44c.07.02.15.01.24-.01a10.46 10.46 0 0 1 4.56.06c.04 0 .06.04.03.08l-.37.63Z" fill="#D85927"/><path d="M11.22 12.39c-.2.27-.42.5-.67.67-.58-.07-.96-.1-1.11-.11-.83-.01-1.67.06-2.5.22a2.9 2.9 0 0 1-.67-.6 10.98 10.98 0 0 1 4.95-.18Z" fill="#F1E902"/><path d="M10.55 13.06a3.05 3.05 0 0 1-3.62.1c.84-.15 1.68-.22 2.5-.21.16 0 .54.04 1.12.1Z" fill="#F9F188"/></svg>