<!-- by TradingView --><svg width="18" height="18" viewBox="0 0 18 18" xmlns="http://www.w3.org/2000/svg"><path fill="#F0F3FA" d="M0 0h18v18H0z"/><path fill-rule="evenodd" d="M7.1 7.86c0-.47.36-.86.82-.86h2.02c.46 0 .83.39.83.86v.71H9.68v-.3a.12.12 0 0 0-.12-.13H8.44a.12.12 0 0 0-.12.13v1.46c0 .07.05.13.12.13h1.12c.07 0 .12-.06.12-.13v-.3h1.1v.7c0 .48-.38.87-.84.87H7.92a.85.85 0 0 1-.83-.86V7.86Zm.13.14c0-.47.32-.86.78-.86h1.87c.46 0 .76.39.76.86v.46h-.82v-.22c0-.13-.1-.24-.24-.24H8.42a.24.24 0 0 0-.24.24v1.52c0 .13.1.24.24.24h1.16c.13 0 .24-.11.24-.24v-.24h.82v.6c0 .47-.35.74-.82.74H8c-.47 0-.77-.36-.77-.84V8ZM3 7.86c0-.47.39-.86.86-.86h2.1c.47 0 .86.39.86.86v2.28c0 .47-.39.86-.86.86h-2.1a.86.86 0 0 1-.86-.86V7.86Zm.14 0c0-.47.39-.72.87-.72h1.8c.48 0 .87.25.87.72v2.24c0 .48-.39.76-.87.76h-1.8c-.48 0-.87-.28-.87-.76V7.86Zm.95.38c0-.13.1-.24.24-.24h1.16c.13 0 .24.11.24.24v1.52c0 .13-.1.24-.24.24H4.33a.24.24 0 0 1-.24-.24V8.24Zm.14.03c0-.07.05-.13.12-.13h1.12c.07 0 .12.06.12.13v1.46c0 .07-.05.13-.12.13H4.35a.12.12 0 0 1-.12-.13V8.27ZM11 7v4h1.29V8.81l.68.84.74-.84V11H15V7h-1.17l-.86 1-.85-1H11Zm.14.14v3.74h1V8.41l.83 1.03.9-1.03v2.47h.99V7.14h-.96l-.93 1.1-.91-1.1h-.92Z"/></svg>