<!-- by TradingView --><svg width="18" height="18" viewBox="0 0 18 18" xmlns="http://www.w3.org/2000/svg"><path fill="#F0F3FA" d="M0 0h18v18H0z"/><path d="M11.06 12.53 11.94 9l.35.09-.89 3.54v.01c-.18.54.21.93.73 1-.02 0 .01 0 0 0 .17.01.67.12.87-.17-.18.53-.88.53-.9.53h.02-.03c-.74-.1-1.28-.71-1.03-1.47Z" fill="#6963B9"/><path fill-rule="evenodd" d="M8 6.6H6c-.18 0-.43.32-.43.53v3.75c0 .2.25.52.43.52h2c.18 0 .43-.32.43-.53V7.13c0-.21-.25-.53-.43-.53ZM6 6c-.55 0-1 .5-1 1.13v3.75C5 11.5 5.45 12 6 12h2c.55 0 1-.5 1-1.13V7.13C9 6.5 8.55 6 8 6H6Z" fill="#06028D"/><path d="M12.67 6H10v6h.57V6.6h2.1c.4 0 .76.49.76.9v.38c0 .41-.36.82-.76.82h-1.34c-.27 0-.41.28-.27.5L12.7 12h.8l-1.63-2.7h.72c.79 0 1.4-.62 1.4-1.43V7.5c0-.8-.54-1.5-1.33-1.5Z" fill="#06028D"/><path d="M14.6 8.76c-.1.59-.71 1.15-1.85 1.5-1.12.36-2.61.47-4.22.25a9.44 9.44 0 0 1-3.91-1.37c-.95-.65-1.33-1.34-1.23-1.9.07-.37.17-.93.54-1.3-.54.34-.82.75-.9 1.23-.3 1.6 2.15 3.25 5.45 3.71 3.3.46 6.21-.46 6.5-2.05.28-1.6-2.16-3.25-5.46-3.71a9.75 9.75 0 0 0-4.81.41c1.1-.35 3.15-.26 4.76-.04 1.6.22 2.98.74 3.91 1.37.95.65 1.33 1.34 1.23 1.9Z" fill="#39A037"/></svg>