<!-- by TradingView --><svg width="18" height="18" viewBox="0 0 18 18" xmlns="http://www.w3.org/2000/svg"><path fill="#F0F3FA" d="M0 0h18v18H0z"/><path d="M16 9c0 .4-.18.78-.53 1.15-.36.37-.86.7-1.52.97-1.37.59-3.02.88-4.95.88-1.93 0-3.58-.3-4.95-.88a4.6 4.6 0 0 1-1.52-.97A1.65 1.65 0 0 1 2 9c0-.4.18-.78.53-1.15.36-.37.86-.7 1.52-.97C5.42 6.29 7.07 6 9 6c1.93 0 3.58.3 4.95.88.66.28 1.16.6 1.52.97.35.37.53.75.53 1.15Z" fill="#BF0311"/><path opacity=".5" fill="#F0F3FA" d="M4.06 8h9.95v2H4.06z"/></svg>