<!-- by TradingView --><svg width="18" height="18" viewBox="0 0 18 18" xmlns="http://www.w3.org/2000/svg"><path fill="#25408F" d="M0 0h18v18H0z"/><path d="M5.04 9.53c-.06-.03-.19-.13-.19-.28 0-.2.44-.9 1.5-.9s1.53.68 1.53 1.14c0 .46-.4 1.25-1.58 1.25-.32-.01-1-.13-1.16-.51 0-.04 0-.12.05-.17-.32-.04-.98.02-.98.62 0 .4.32.57.61.73.26.14.5.27.5.54 0 .29-.08.47-.17.57-.02.03 0 .12.04.11A1.33 1.33 0 0 0 6.25 12c.17-.24.3-.42.9-.42a.97.97 0 0 0-.6.52l-.06.16c-.14.38-.34.95-1.32 1.2-.62.16.1.54.6.54a4.5 4.5 0 0 0 2.82-1.11c.27.13 1.01.39 1.78.39.63 0 1.18-.34 1.49-.6.05-.04.01-.13-.06-.13a3.4 3.4 0 0 1-1.1-.12c-.3-.11-.65-.25-.88-.36a.2.2 0 0 1-.1-.27.22.22 0 0 1 .29-.1c.36.16 1.02.38 1.74.38a2.2 2.2 0 0 0 1.92-.92 4.2 4.2 0 0 1-2.69-.32c-.46-.24-.5-.77-.46-1 .04-.21.26-.63.8-.65-.11-.12-.31-.44-.22-.72a.81.81 0 0 1 .5-.54c-.15-.07-.45-.3-.45-.65 0-.46.43-.65.9-.83l.08-.03c.56-.22 2.2-.84 2.2-2.15V4c-.62.63-2.36 2-4.32 2h-3.2c-.71 0-1.32.3-1.48 1.01.03-.04.12-.15.26-.15H9.7c.22.01.67.2.67.67 0 .6-.58 1.1-.81 1.14a2 2 0 0 1 .14.7c0 .36-.23 1.54-1.6 1.92a2.35 2.35 0 0 0 1.06-2.78c.27-.13.81-.5.81-.93.02-.1-.07-.37-.51-.37H7.65v.14c0 .46-.37.84-.82.84A.83.83 0 0 1 6 7.35V7.2H4.8V7.2c.05-.08.11-.2.11-.37 0-.22-.26-.47-.8-.55-.52-.07-.73-.14-.73-.42 0-.29.48-.52 1.81-.52h3.77c.92.03 3.04-.21 3.99-1.26a.04.04 0 0 0-.01-.06.04.04 0 0 0-.06.01c-.25.35-1.38.97-4.03.97H5.37C4.58 4.98 3 5.1 3 5.9c-.03.2.12.63.88.71.14.02.41.1.41.32 0 .28-.2.31-.36.31-.15 0-.44-.13-.26-.43-.22-.03-.67.1-.67.83 0 .23.1.7.61.76-.1.25-.17.8.4 1.07.58.26.93.15 1.03.06Zm1.24-2.32h.35v.08c0 .13.1.23.21.23.12 0 .21-.1.21-.23v-.08h.34v.11c0 .34-.25.6-.56.6-.3 0-.55-.26-.55-.6v-.1Zm-.57 1.9c-.31 0-.43.45-.45.67.08-.06.3-.19.5-.19.23 0 .37.11.42.2.06.07.28.4.56.4s.73-.24.73-.7c0-.45-.46-.65-.67-.65-.22 0-.34.07-.52.23-.18.17-.3.14-.39.1a.4.4 0 0 0-.18-.06Zm9-4.02c-.2.41-1.06 1.32-2.85 1.8a.41.41 0 0 0-.31.4c0 .14.08.28.23.33.34.1.93.19 1.59 0 1.04-.3 1.79-1.1 1.34-2.53Zm-2.58 3c1.6.1 2.57-.58 2.85-.94.18 1.53-1.14 2.12-2 2.12-.41 0-.82-.05-1.13-.1-.28-.06-.45-.33-.4-.62A.55.55 0 0 1 12 8.1h.14Zm2.61 1.07c-.46.3-1.66.77-3.1.43a.55.55 0 0 0-.68.42c-.02.15 0 .3.12.38.26.17.83.37 2.2.37.4-.05 1.23-.43 1.46-1.6Z" fill="#fff"/></svg>