<!-- by TradingView --><svg width="18" height="18" viewBox="0 0 18 18" xmlns="http://www.w3.org/2000/svg"><path fill="#1D2331" d="M0 0h18v18H0z"/><path fill-rule="evenodd" d="M12.39 12.68A4.99 4.99 0 0 0 9 4a5 5 0 0 0-4.05 7.94C5.5 10.76 6.8 9.06 8.21 9.1c.24 0 .47-.03.67-.11.06-.02.07 0 .03.04a.97.97 0 0 1-.33.27.03.03 0 0 0 0 .03c.13.25.2.52.23.82a8.79 8.79 0 0 1-.76 3.76 5.03 5.03 0 0 0 2.41-.13c.14-.52.2-.96.24-1.45l.03-.21c.06-.6.1-1 .34-1.47.36-.75 1.18-1.33 1.4.02a2.11 2.11 0 0 1-.4 1.73.03.03 0 0 0 .04.02l.3-.19a.03.03 0 0 1 .04.03l-.06.42Zm-1.24-5.34-.01.01v.02c.7.47.6 1.4.34 2.07a.02.02 0 0 1-.04 0l-.09-.4a2.74 2.74 0 0 0-1.26-1.7.06.06 0 0 1 .02-.07 1.1 1.1 0 0 1 .46-.23v-.02h-.01a.78.78 0 0 0-.43.04c-.8.31-2.05.7-2.64-.25-.25-.4.02-.75.34-.97a2.5 2.5 0 0 1 1.99-.4c.17.02.34.09.51.15.38.15.78.3 1.26.15.02-.01.03 0 .02.02-.1.18-.36.32-.54.36-.08.02-.09.05-.03.1a2.16 2.16 0 0 1 .75 1.3.02.02 0 0 1-.03 0c-.19-.1-.4-.16-.6-.18Zm-2.08-.86c.18 0 .34-.05.48-.15a.04.04 0 0 0-.04-.06c-.2.08-.37.03-.56-.02-.14-.04-.27-.08-.42-.06-.41.05-.72.61-.16.8.35.1.72-.06.68-.48 0-.02 0-.03.02-.03Zm-.5.34a.21.21 0 1 0 0-.42.21.21 0 0 0 0 .42Zm-.73.84a.5.5 0 0 0-.14-.18 2.4 2.4 0 0 1-.55-.62c-.04-.07-.1-.08-.17-.05-.57.26-.76.7-.58 1.33.03.1.09.2.17.3.03.02.04.01.03-.02a1.88 1.88 0 0 1-.06-.43.14.14 0 0 1 .15-.15h.22c.3.02.72.04.88-.04.06-.03.08-.08.05-.14Z" fill="#FDFFFF"/></svg>