<!-- by TradingView --><svg width="18" height="18" viewBox="0 0 18 18" xmlns="http://www.w3.org/2000/svg"><path fill="#F0F3FA" d="M0 0h18v18H0z"/><path d="M6.07 8.42a18.17 18.17 0 0 1 2.72-4.01c.2-.24.51-.46.81-.4.17.04.3.14.4.32v.03a.25.25 0 0 1-.07.13c-.97.98-1.82 2.06-2.54 3.25-.22.37-.42.75-.59 1.15-.04.1-.11.13-.22.1a5.3 5.3 0 0 1-.49-.18c-.16-.07-.07-.28-.02-.39ZM11.94 4.18c.36-.27.8-.25 1.04.15.06.1-.02.17-.1.22a15 15 0 0 0-1.94 1.58c-.85.82-1.56 1.75-2.12 2.77-.05.1-.16.12-.27.08a5.5 5.5 0 0 1-.32-.14c-.14-.06-.29-.12-.2-.28.9-1.73 2.29-3.19 3.91-4.38Z" fill="#00B0E8"/><path d="M13.6 10.45a8.5 8.5 0 0 1-1.29 1.83 5.35 5.35 0 0 1-4.98 1.63 4.16 4.16 0 0 1-2.47-1.42A3.37 3.37 0 0 1 4 10.34c-.03-1.07.41-2.14.95-3.05.4-.68.87-1.35 1.42-2.02.27-.34.65-.35 1-.08.04.03.06.07.07.11 0 .07-.04.15-.1.2-.71.88-1.36 1.77-1.86 2.75-.32.61-.49 1.3-.48 1.99.01 1.28 1.02 2.33 2.24 2.63.37.09.76.13 1.16.13 1.18 0 2.4-.38 3.24-1.28.52-.56 1.36-1.77 1.36-2.75 0-.5-.23-.97-.75-.97-.77 0-1.5.88-1.83 1.5-.11.2-.27.6-.17.82.16.33.9-.62.99-.73.24-.32.55-.48.92-.2.14.1 0 .27-.06.38-.38.65-1.15 1.65-1.97 1.5-.53-.08-.8-.57-.82-1.09 0-.48.2-.99.45-1.38.26-.4.53-.8.9-1.13.46-.4 1.03-.67 1.62-.67.84 0 1.48.6 1.66 1.41.16.69-.03 1.4-.35 2.04Z" fill="#00B0E8"/></svg>