<!-- by TradingView --><svg width="18" height="18" viewBox="0 0 18 18" xmlns="http://www.w3.org/2000/svg"><path fill="#F0F3FA" d="M0 0h18v18H0z"/><path d="M7.58 3.7a7.18 7.18 0 0 0-1.52 2.03c-.14.29-.26.66-.36 1.1l-.27 1.14c-.04.12-.46-.17-.43-.28.1-.34.18-.66.26-1 .06-.23.22-.33.35-.52a.2.2 0 0 0 .03-.13c-.02-.21-.12-.56-.05-.76.12-.33.46-.53.58-.9.12-.4.56-.7.85-.96.25-.22.7-.17 1-.38A.18.18 0 0 1 8.15 3l.56.08c.15.03.25.14.29.33.03.16-.16.27-.3.26a7.76 7.76 0 0 0-1-.04c-.05 0-.09.03-.12.06ZM10.17 13H7.72a.14.14 0 0 1-.1-.05 1.84 1.84 0 0 0-.52-.44c-.12-.05-.13-.12-.04-.22l.48-.56a.21.21 0 0 1 .15-.06c.05 0 .1.01.15.05.3.29.82.61 1.25.61 1.16 0 2.7-1.13 2.89-2.3.09-.59.16-1.19.2-1.8.03-.29 0-.57-.1-.86-.14-.49-.22-.97-.44-1.44-.25-.53-.56-1-.93-1.43a.58.58 0 0 1-.14-.46c0-.04.04-.05.06-.03a9.96 9.96 0 0 1 1.38 1.54c.27.38.46.93.55 1.66.01.05.04.09.08.1l.22.11c.04.03.07.07.07.12.02.49.14 1.01.01 1.5-.2.81-.39 1.61-.56 2.4a.2.2 0 0 1-.07.11c-.65.54-1.36 1.02-2.14 1.45Z" fill="#0083BA"/><path d="M9 11a2 2 0 1 0 0-4 2 2 0 0 0 0 4Z" fill="#EEE033"/><path d="M11.75 13c.2.04.23.34.44.37.58.07 1.19.19 1.81.3-.15.04-.29.15-.45.15a1.4 1.4 0 0 0-.58.08c-.17.07-.29.1-.47.1H5.2c-.06 0-.09-.02-.1-.07l-.1-.55c0-.05.02-.09.07-.1.12-.05.22-.03.21-.18 0-.07.03-.1.1-.1h6.37Z" fill="#005D63"/></svg>