<!-- by TradingView --><svg width="18" height="18" viewBox="0 0 18 18" xmlns="http://www.w3.org/2000/svg"><path fill="#00244F" d="M0 0h18v18H0z"/><path d="M13 5.42h-.61a2.2 2.2 0 0 0-1.62-1.38 2.1 2.1 0 0 0-2.33 1.23l-.07.15h-.69v.48h.48L5 13.89l.3.05c.32.04.64.06.96.06 1 0 2.6-.2 3.8-1.23 1-.86 1.53-3.13 1.58-4.77a2.18 2.18 0 0 0 .87-2.1H13v-.48Zm-2.61-.94a1.64 1.64 0 0 1 1.49.94h-.3c-.46 0-.89.2-1.21.52-.32-.32-.75-.5-1.2-.52H8.9a1.65 1.65 0 0 1 1.5-.94h-.01Zm1.52 2.44a1.7 1.7 0 0 1-1.24.97 1.65 1.65 0 0 1-1.75-.86l-.23.5a2.15 2.15 0 0 0 1.7.87c.26 0 .52-.05.76-.15 0 .59-.14 2.17-.38 2.71a4.37 4.37 0 0 1-1.02 1.43c-.67.58-1.5.87-2.25 1a5.6 5.6 0 0 0 2.54-3.3 2.77 2.77 0 0 1-.46-.12c-.52 1.54-1.36 2.58-2.5 3.1-.43.2-.88.3-1.35.33l2.58-6.68.37-.82h.5c.02 0 .55 0 1.01.55l.19.2.17-.21c.44-.55 1-.54 1.02-.54h.47c.06.34.01.7-.13 1.02Z" fill="#fff"/></svg>