<!-- by TradingView --><svg width="18" height="18" viewBox="0 0 18 18" xmlns="http://www.w3.org/2000/svg"><path fill="#0C5A71" d="M0 0h18v18H0z"/><path d="M14.41 8.73s-.3.7-.74 1.35c-.37.54-1.1 1.61-2.61 2.2a5.84 5.84 0 0 0 2.13-1.97c.5-.79.7-1.33.86-2.13.15-.81.19-2.1.19-2.1l-.68-.01s.09.76.03 1.53c-.05.67-.15 1.99-1.21 3.27-.4.5-.88.96-1.54 1.33-.9.51-1.85.68-1.85.68a6.01 6.01 0 0 0 4.8-2.07c.53-.62 1.21-1.73 1.21-1.73l-.59-.35Z" fill="#fff"/><path d="M9 5.49a3.51 3.51 0 1 1 0 7.03 3.51 3.51 0 0 1 0-7.03Zm3.24 7.47a16.8 16.8 0 0 0 1.92-.89l-.34-.6s-.6.47-1.31.8c-.6.3-1.77.86-3.4.6 1.4-.04 2.6-.8 3.26-1.94l.13-.25c.64-1.25.75-1.85.79-2.64.05-.93-.05-1.5-.32-2.28-.27-.77-.9-1.91-.9-1.91l-.6.33s.47.61.81 1.32c.28.59.85 1.75.6 3.35a5.82 5.82 0 0 0-.64-2.82 5.28 5.28 0 0 0-1.42-1.82A16.83 16.83 0 0 0 9.08 3l-.34.59s.7.3 1.35.74c.54.37 1.62 1.1 2.2 2.62l-.02-.04-.06-.1a5.65 5.65 0 0 0-1.9-2 5.3 5.3 0 0 0-2.13-.86c-.81-.15-2.11-.18-2.11-.18v.68s.75-.1 1.53-.04a5.5 5.5 0 0 1 3.21 1.16 5.83 5.83 0 0 0-2.77-.85 5.3 5.3 0 0 0-2.28.32c-.78.27-1.92.89-1.92.89l.34.6s.6-.47 1.31-.8c.6-.3 1.77-.86 3.4-.6l-.3.01a5.54 5.54 0 0 0-2.55.63c-.84.43-1.28.8-1.82 1.42C3.68 7.81 3 8.92 3 8.92l.59.35s.3-.7.74-1.35c.37-.54 1.1-1.6 2.59-2.2l-.17.12A5.58 5.58 0 0 0 4.8 7.7a5.27 5.27 0 0 0-.86 2.13c-.16.81-.19 2.1-.19 2.1l.68.01s-.09-.76-.03-1.53c.05-.65.15-1.93 1.15-3.2l-.02.05a5.75 5.75 0 0 0-.83 2.7c-.05.94.05 1.51.32 2.29.27.77.9 1.91.9 1.91l.59-.33s-.46-.61-.8-1.32a5.46 5.46 0 0 1-.6-3.35c.06 1.5.27 2.1.64 2.82.43.84.8 1.28 1.42 1.82.63.53 1.74 1.21 1.74 1.21l.34-.59s-.7-.3-1.35-.74a5.47 5.47 0 0 1-2.2-2.62 5.85 5.85 0 0 0 1.97 2.13c.8.51 1.33.71 2.14.87.81.15 2.11.18 2.11.18v-.68s-.76.1-1.53.04a5.5 5.5 0 0 1-3.22-1.16c1.35.7 1.96.8 2.78.85a5.3 5.3 0 0 0 2.28-.32Z" fill="#7EBCD6"/></svg>