<!-- by TradingView --><svg width="18" height="18" viewBox="0 0 18 18" xmlns="http://www.w3.org/2000/svg"><path fill="#F0F3FA" d="M0 0h18v18H0z"/><path d="m7.82 3 1.44 2.65 1.98-2.29-.23 3 2.9-.86-1.82 2.41 2.91.84-2.84 1.04 2 2.27-2.97-.65.45 2.98-2.13-2.14L8.26 15l-.63-2.95-2.54 1.64 1.07-2.82-3.03.02 2.43-1.8L3 7.47l3.02-.2-1.27-2.74L7.4 6 7.82 3Z" fill="#99BA6A"/><path fill-rule="evenodd" d="M8.9 11.98a3.02 3.02 0 1 0-3.02-3.01c0 1.66 1.36 3 3.03 3Zm0 .2a3.22 3.22 0 0 0 3.24-3.21A3.22 3.22 0 0 0 8.9 5.75a3.22 3.22 0 1 0 0 6.43Z" fill="#fff" fill-opacity=".6"/><ellipse cx="8.91" cy="8.97" rx="1.94" ry="1.93" fill="#A3CB84"/><ellipse cx="8.91" cy="8.97" rx="1.02" ry="1.01" fill="#CEE3B8"/></svg>