<!-- by TradingView --><svg width="18" height="18" viewBox="0 0 18 18" xmlns="http://www.w3.org/2000/svg"><path fill="#F0F3FA" d="M0 0h18v18H0z"/><path d="M6.27 7.5c.06-.1.03-.13-.06-.09a6.68 6.68 0 0 0-3.27 3.4c-.02.05-.04.08-.06.08-.03.01-.06 0-.1-.05l-.73-.82c-.06-.08-.07-.17-.02-.26.28-.5.58-1.04.95-1.44A8.92 8.92 0 0 1 6.5 5.87a6.5 6.5 0 0 1 2.15-.45c.32 0 .62.03.9.09.66.15 1.04.53 1.14 1.34.01.08.04.1.09.03l1.46-1.81a.18.18 0 0 1 .1-.07c.03 0 .07 0 .1.02l.92.52c.05.03.1.08.13.14.1.22.17.47.22.74.2 1.1.38 2.01.54 2.73.02.07.05.13.1.17.05.05.1.07.16.07.5 0 .97-.03 1.37.42.19.21.15.3-.1.28l-1.28-.15c-.06 0-.11.07-.1.14l.44 1.71v.1c-.05.3-.5.59-.71.68h-.04a.1.1 0 0 1-.07-.03c-.3-.38-.59-.78-.9-1.12a.82.82 0 0 1-.18-.68c.03-.2.26-.17.38-.27.34-.28.31-.43-.1-.44-.6-.02-1.42.01-2.47.08a.23.23 0 0 0-.12.04.3.3 0 0 0-.1.1c-.52.97-.96 1.8-1.3 2.7-.02.06-.05.07-.09.02l-1.03-1.13c-.02-.02-.03-.05-.02-.09.25-.86.58-1.64.98-2.33.12-.21.09-.25-.1-.13-.54.37-1.18.69-1.92.96a.46.46 0 0 0-.18.12.6.6 0 0 0-.12.2c-.23.6-.5 1.34-.8 1.95-.12.27-.24.41-.34.44a.81.81 0 0 1-.45.01.24.24 0 0 1-.14-.12l-.54-1.16a.21.21 0 0 1-.03-.1c0-.03 0-.06.02-.1.54-1.4 1.17-2.65 1.8-3.99Zm2.06-.32c-.33.42-.6.94-.8 1.56-.06.15-.02.2.1.14.8-.42 1.5-1.12 2.1-2.13.06-.11 0-.27-.1-.3-.43-.12-.92-.11-1.44.02-.04 0-.06.06-.04.1l.2.43c.03.07.02.13-.02.18Zm5.01 2.45c.04 0 .08-.05.07-.1l-.61-2.51c0-.03-.03-.05-.05-.06-.03 0-.05 0-.07.03l-1.7 2.5c-.04.05-.01.14.05.14h2.31Z" fill="#9C1518"/></svg>