<!-- by TradingView --><svg width="18" height="18" viewBox="0 0 18 18" fill="none" xmlns="http://www.w3.org/2000/svg">
<rect width="18" height="18" fill="#18583E"/>
<path fill-rule="evenodd" clip-rule="evenodd" d="M4 6H5.6V12H4V6ZM7.00004 6H5.60006V7.28314H6.45408C6.85001 7.28314 7.17097 7.6041 7.17097 8.00003C7.17097 8.39596 6.85001 8.71692 6.45408 8.71692H5.60006V10H7.00004C8.10461 10 9.00004 9.10457 9.00004 8C9.00004 6.89543 8.10461 6 7.00004 6ZM12.125 12C12.8285 12 13.4777 11.7768 14 11.4002V9.89952C13.6644 10.2879 13.1184 10.5405 12.502 10.5405C11.4816 10.5405 10.6544 9.84824 10.6544 8.99427C10.6544 8.1403 11.4816 7.44802 12.502 7.44802C13.1184 7.44802 13.6644 7.70068 14 8.08902V6.59978C13.4777 6.22317 12.8285 6 12.125 6C10.3991 6 9 7.34315 9 9C9 10.6569 10.3991 12 12.125 12Z" fill="white"/>
</svg>
