<!-- by TradingView --><svg width="18" height="18" viewBox="0 0 18 18" xmlns="http://www.w3.org/2000/svg"><path fill="#F0F3FA" d="M0 0h18v18H0z"/><path fill-rule="evenodd" d="M9.5 4.69c0 .3-.22.56-.5.56s-.5-.25-.5-.56c0-.31.22-.57.5-.57s.5.26.5.57Zm-.16 0c0 .2-.15.37-.34.37v-.75c.19 0 .34.17.34.38Z" fill="#89201C"/><path fill-rule="evenodd" d="m9 3 3 2.33v4.65l-3 2.33-3-2.33V5.33L9 3Zm0 .4 2.7 2.09v4.33V8H9v3.99L6.3 9.82V5.5L9 3.39Z" fill="#89201C"/><path opacity=".5" d="M6.04 10H5v2h3.84l-2.8-2Zm3.14 2H13v-2h-1.02l-2.8 2Z" fill="#89201C"/><path fill="#89201C" fill-opacity=".5" d="M5 13h8v1H5z"/><path fill-opacity=".5" d="M5 12h8v1H5z"/></svg>