<!-- by TradingView --><svg width="18" height="18" viewBox="0 0 18 18" xmlns="http://www.w3.org/2000/svg"><path fill="#F0F3FA" d="M0 0h18v18H0z"/><path d="M4 4a13.2 13.2 0 0 0 1.63 5 11.64 11.64 0 0 1 3.32-3.65A9.15 9.15 0 0 0 4 4Z" fill="#11674E"/><path d="M4 14a13.2 13.2 0 0 1 1.63-5 11.64 11.64 0 0 0 3.32 3.65A9.15 9.15 0 0 1 4 14ZM14 4a13.2 13.2 0 0 1-1.63 5 11.64 11.64 0 0 0-3.32-3.65A9.15 9.15 0 0 1 14 4Z" fill="#2A4685"/><path d="M14 14a13.2 13.2 0 0 0-1.63-5 11.64 11.64 0 0 1-3.32 3.65A9.15 9.15 0 0 0 14 14Z" fill="#11674E"/></svg>