<!-- by TradingView --><svg width="18" height="18" viewBox="0 0 18 18" xmlns="http://www.w3.org/2000/svg"><path fill="#F0F3FA" d="M0 0h18v18H0z"/><path fill-rule="evenodd" d="m13.94 7.12-.6-.45c-.02-.02-.02-.04 0-.07l.1-.11c.33-.35.54-.57 1.09-1.8.07-.14.13-.5.14-.64 0-.03-.02-.05-.05-.05-.03 0-.06.03-.09.1-.73 1.71-1.54 2.46-1.86 2.66A12.62 12.62 0 0 1 9.4 9.04l-.45.2c-.48.23-.92.44-1.4.6-.94.3-1.88.47-2.92.64-.2.03-.43.05-.66.04-.08 0-.14-.03-.17-.09-.18-.3.1-.5.34-.53 1.5-.21 2.74-.47 3.73-.77a13.17 13.17 0 0 0 4.74-2.76v-.03a.3.3 0 0 1 .06-.27 6.15 6.15 0 0 0 .7-1.66c0-.03-.04-.05-.07-.05-.02 0-.03 0-.04.02-.97 1.5-1.83 2.6-3.44 3.5-.8.44-1.75.82-2.87 1.13-.15.05-.23-.02-.25-.2-.01-.17.06-.29.2-.33l1.75-.61a9.59 9.59 0 0 0 3.1-1.91l-.01-.02-.02-.02-.18-.05c-.04-.01-.05-.03-.02-.06l.74-1.01c.03-.04.03-.07-.01-.1h-.04a.35.35 0 0 0-.12.07 10.35 10.35 0 0 1-4.01 2.96c-.96.4-1.92.49-2.98.59h-.07c-.18.02-.51-.04-.5-.29 0-.26.13-.4.39-.43l1.1-.11a8.82 8.82 0 0 0 3.2-.96l1.44-.78c.07-.04.07-.06 0-.07a9.75 9.75 0 0 0-3.16-.03c-1.1.17-2.08.53-2.94 1.1-1 .66-1.8 1.76-1.5 3.08.16.7.72 1.37 1.27 1.78A7.84 7.84 0 0 0 9.17 13c1.1 0 2.2-.22 3.27-.66 1.44-.6 3.22-2.14 2.35-4.07l-.19-.34-.14-.24a.12.12 0 0 1 0-.12l.24-.75c.1-.27.18-.54.3-.95v-.02c0-.03-.05-.06-.08-.06l-.03.01c-.67 1.77-2.4 3.9-4.67 5.32-.25.16-.8.5-.93 0a.24.24 0 0 1 0-.12.23.23 0 0 1 .06-.1.96.96 0 0 1 .26-.2 15.27 15.27 0 0 0 4.37-3.45.12.12 0 0 0 0-.1.1.1 0 0 0-.04-.03Zm-1.78.9c-.13.03-.26.1-.4.19a14.62 14.62 0 0 1-5.6 2.16c-.24.04-.5.27-.31.5.24.3 1.14 0 1.63-.17l.13-.05A15.51 15.51 0 0 0 12 8.37c.12-.09.2-.17.25-.25.07-.1.04-.14-.1-.1Z" fill="#4F3976"/></svg>