<!-- by TradingView --><svg width="18" height="18" fill="none" xmlns="http://www.w3.org/2000/svg"><path fill="#F0F3FA" d="M0 0h18v18H0z"/><path d="M4.938 6.341a.592.592 0 0 1 .84 0l2.217 2.225a.597.597 0 0 1 0 .843.592.592 0 0 1-.84 0L4.939 7.184a.597.597 0 0 1 0-.843Z" fill="#696B68"/><path d="M4.938 11.659a.597.597 0 0 1 0-.843l2.218-2.225a.592.592 0 0 1 .839 0 .597.597 0 0 1 0 .843l-2.217 2.225a.592.592 0 0 1-.84 0Z" fill="#C5A270"/><path d="M11.653 4.94a.597.597 0 0 1 0 .842L9.436 8.006a.592.592 0 0 1-.839 0 .597.597 0 0 1 0-.842l2.217-2.225a.592.592 0 0 1 .84 0Z" fill="#696B68"/><path d="M6.355 4.94a.592.592 0 0 1 .84 0L9.41 7.163a.597.597 0 0 1 0 .842.592.592 0 0 1-.84 0L6.356 5.782a.597.597 0 0 1 0-.843Z" fill="#F0CC92"/><path d="M13.061 11.659a.592.592 0 0 1-.84 0l-2.216-2.225a.597.597 0 0 1 0-.843.592.592 0 0 1 .84 0l2.216 2.225a.597.597 0 0 1 0 .843Z" fill="#696B68"/><path d="M13.061 6.341a.597.597 0 0 1 0 .843l-2.217 2.225a.592.592 0 0 1-.84 0 .597.597 0 0 1 0-.843l2.218-2.225a.592.592 0 0 1 .84 0Z" fill="#F0CC92"/><path d="M6.355 13.06a.597.597 0 0 1 0-.841l2.217-2.225a.592.592 0 0 1 .84 0 .597.597 0 0 1 0 .842l-2.218 2.225a.592.592 0 0 1-.84 0Z" fill="#696B68"/><path d="M11.653 13.06a.592.592 0 0 1-.839 0l-2.217-2.224a.597.597 0 0 1 0-.842.592.592 0 0 1 .84 0l2.216 2.225a.597.597 0 0 1 0 .842Z" fill="#C5A270"/><path fill-rule="evenodd" clip-rule="evenodd" d="M4.646 5.194a.217.217 0 0 1 .03.305c-.41.504-1.242 1.933-1.242 3.546 0 1.611.832 2.98 1.239 3.45a.217.217 0 0 1-.329.285C3.89 12.254 3 10.789 3 9.045c0-1.743.89-3.266 1.34-3.82a.217.217 0 0 1 .306-.031Z" fill="url(#a)"/><path fill-rule="evenodd" clip-rule="evenodd" d="M13.354 5.194a.217.217 0 0 0-.031.305c.41.504 1.243 1.933 1.243 3.546 0 1.611-.832 2.98-1.239 3.45a.217.217 0 1 0 .329.285C14.11 12.254 15 10.789 15 9.045c0-1.743-.89-3.266-1.34-3.82a.217.217 0 0 0-.306-.031Z" fill="url(#b)"/><path fill-rule="evenodd" clip-rule="evenodd" d="M5.194 13.354a.217.217 0 0 1 .305-.031c.504.41 1.933 1.243 3.546 1.243 1.61 0 2.98-.832 3.45-1.239a.217.217 0 1 1 .285.329C12.254 14.11 10.789 15 9.045 15c-1.743 0-3.266-.89-3.82-1.34a.217.217 0 0 1-.031-.306ZM5.194 4.646a.217.217 0 0 0 .305.031c.504-.41 1.933-1.243 3.546-1.243 1.61 0 2.98.832 3.45 1.239a.217.217 0 1 0 .285-.329C12.254 3.89 10.789 3 9.045 3c-1.743 0-3.266.89-3.82 1.34a.217.217 0 0 0-.031.306Z" fill="#656565"/><defs><linearGradient id="a" x1="3.863" y1="5.145" x2="3.863" y2="12.855" gradientUnits="userSpaceOnUse"><stop stop-color="#DCCB85"/><stop offset=".24" stop-color="#F3DCB0"/><stop offset=".773" stop-color="#A0895D"/></linearGradient><linearGradient id="b" x1="14.137" y1="5.145" x2="14.137" y2="12.855" gradientUnits="userSpaceOnUse"><stop stop-color="#DCCB85"/><stop offset=".24" stop-color="#F3DCB0"/><stop offset=".773" stop-color="#A0895D"/></linearGradient></defs></svg>