<!-- by TradingView --><svg width="18" height="18" viewBox="0 0 18 18" xmlns="http://www.w3.org/2000/svg"><path fill="#F0F3FA" d="M0 0h18v18H0z"/><path d="M12.25 6h-.11c-.63.02-1.2.22-1.67.63a38.05 38.05 0 0 0-3.61 3.53c-.39.42-1.12.52-1.61.31-.62-.25-.96-.87-.97-1.55 0-.13.02-.26.08-.39.57-1.64 2.28-1.11 3.33.12.02.02.03.02.05 0l.89-.93c.02-.02.02-.04 0-.07-.91-1.04-2.21-1.87-3.59-1.46a2.91 2.91 0 0 0-1.91 3.63c.5 1.91 2.72 2.8 4.26 1.66.42-.31.72-.56.88-.74.83-.92 1.7-1.78 2.57-2.64.28-.28.63-.5 1.06-.68a.58.58 0 0 1 .33-.04c.76.13 1.33.67 1.38 1.5.04.48-.02.73-.26 1.04-.96 1.3-2.32.39-3.11-.52a.03.03 0 0 0-.01 0 .03.03 0 0 0-.04 0l-.88.94c-.02.02-.02.03 0 .05 1 1.11 2.32 2.01 3.82 1.43 2.26-.89 2.54-4.1.47-5.4A2.84 2.84 0 0 0 12.25 6Z" fill="url(#aikzg5jlu)"/><path d="M4.28 8.93v.05L3 8.9A2.91 2.91 0 0 1 5.04 6.2a2.8 2.8 0 0 1 2.24.33c-.99-.12-2.6.17-2.96 2.12a.85.85 0 0 0-.04.29Z" fill="url(#bikzg5jlu)"/><path d="M14.98 8.68a3 3 0 0 0-1.38-2.26A2.84 2.84 0 0 0 12.25 6h-.11c-.63.02-1.2.22-1.67.63a38.06 38.06 0 0 0-3.61 3.53 1.3 1.3 0 0 1-.6.35c-1.32.88-2.53.08-3.1-.6.54 1.85 2.71 2.7 4.23 1.57.42-.31.72-.56.88-.74.83-.92 1.7-1.78 2.57-2.64.28-.28.63-.5 1.06-.68a.6.6 0 0 1 .22-.05c1.49-.63 2.43.5 2.86 1.3Z" fill="url(#cikzg5jlu)"/><path d="M10.47 11.42c1.03.12 2.67-.1 3.02-1.71-.04.07-.08.14-.14.21-.96 1.3-2.32.39-3.11-.52a.03.03 0 0 0-.01 0 .03.03 0 0 0-.03 0l-.9.94v.05c.35.39.74.75 1.17 1.03Z" fill="url(#dikzg5jlu)"/><defs><linearGradient id="aikzg5jlu" x1="9" y1="6" x2="9" y2="12" gradientUnits="userSpaceOnUse"><stop stop-color="#D72C2B"/><stop offset=".5" stop-color="#B02827"/><stop offset="1" stop-color="#E52E2D"/></linearGradient><linearGradient id="bikzg5jlu" x1="6.33" y1="6.17" x2="3.35" y2="8.83" gradientUnits="userSpaceOnUse"><stop stop-color="#882221"/><stop offset="1" stop-color="#B22827"/></linearGradient><linearGradient id="cikzg5jlu" x1="14.12" y1="7.38" x2="5.04" y2="13.06" gradientUnits="userSpaceOnUse"><stop stop-color="#E12E2D"/><stop offset=".16" stop-color="#A02524"/><stop offset="1" stop-color="#7F2120"/></linearGradient><linearGradient id="dikzg5jlu" x1="12.42" y1="9.62" x2="10.01" y2="10.95" gradientUnits="userSpaceOnUse"><stop stop-color="#972423"/><stop offset="1" stop-color="#B62827"/></linearGradient></defs></svg>