<!-- by TradingView --><svg width="18" height="18" viewBox="0 0 18 18" xmlns="http://www.w3.org/2000/svg"><path fill="#F0F3FA" d="M0 0h18v18H0z"/><path d="M5 4h8v9.75c-1.38 0-2.8.25-4.18.25-1.28 0-2.54-.25-3.82-.25V4Z" fill="#2B5199"/><path d="M6 10h2V7H6v3Z" fill="#5EACE9"/><path d="M9 6.5v2.17L8 10V7l1-.5Z" fill="#EA9D40"/><path d="M6 7h2l-.5-2L6 7Z" fill="#fff"/><path d="M9 6.5 8 7l-.5-2L9 6.5Z" fill="#5EACE9"/><path opacity=".7" d="M6 13h6v-.5H6v.5Z" fill="#F0F3FA"/><path d="M11.55 5 12 6H9l2.55-1ZM11.5 6 8 10V8.16L10 6h1.5Z" fill="#fff"/><path opacity=".7" fill="#F0F3FA" d="M6 11h6v1H6z"/></svg>