<!-- by TradingView --><svg width="18" height="18" viewBox="0 0 18 18" xmlns="http://www.w3.org/2000/svg"><path fill="#F0F3FA" d="M0 0h18v18H0z"/><ellipse cx="8.95" cy="9" rx="5.03" ry="5" fill="#06436F"/><path d="m9.64 6.06.69-.8.97.8-.14.77c-.16.06-.5.1-.66-.28-.16-.37-.64-.48-.86-.5Z" fill="#5BA9D0"/><path d="M6.06 6.55c-.11-.61.6-.86.97-.9.87.43 1.57.18 1.8 0h.69c.08 0-.14.35-.26.53l.81.37.43.76-.86.5v-.98c-.2 0-.64.06-.8.3-.17.25.31.56.57.69l.66 1.07-.43.67.11.36.32 1.12c.53-.37 1.22-.06 1.5.15l.43 1.5c-.28.31-1.12.99-2.25 1.14a4.82 4.82 0 0 1-2.44-.3l2.1-1.1.59-.72-.59-.52V9.73h-.97v.99h-.63C7.43 10.24 6.7 9 6.8 7.9c.14-1.38-.61-.58-.75-1.36Z" fill="#5BA9D0"/><path d="M3.05 9.09c-.11-.61.75-1.4 1.19-1.73-.11.23-.16.61-.18.77a4.04 4.04 0 0 0-.74 1.29l-.27-.33ZM5.09 12.46c-.54-.08-.99-.57-1.14-.8l.89.18.25.32v.3Z" fill="#3C3B36"/><path d="M10.54 7.25C5.73 9.8 3.52 9.5 3.01 9.05c-.08.4.2 1.25 1.88 1.33 1.7.07 5.02-1.36 6.47-2.09l.3.39 2.17-2.55-3.54.7.25.42Z" fill="url(#ay5iw4ayw)"/><path d="M3.22 9.93c.15.4 1.1 1.1 3.65.66a18.92 18.92 0 0 0 5.85-2.16l-.33-.37L16 6.98l-2.1 2.95-.33-.33c-1.57.79-5.34 2.36-7.82 2.36-2.49 0-2.72-1.35-2.53-2.03Zm.94 2.13c.63.47 2.84 1.04 6.6-.45l-.3-.48 3.75-.72-2.29 2.82-.3-.52c-2.12.78-6.56 1.73-7.46-.65Z" fill="url(#by5iw4ayw)"/><ellipse cx="6.73" cy="6.29" rx="1.35" ry="1.34" fill="#B3BACD" fill-opacity=".7"/><circle cx="6.73" cy="6.29" fill="#E5F2FB" fill-opacity=".7" r=".84"/><defs><linearGradient id="ay5iw4ayw" x1="8.75" y1="15.39" x2="3.37" y2="9.02" gradientUnits="userSpaceOnUse"><stop offset=".39" stop-color="#98908D"/><stop offset=".49" stop-color="#FBFAFF"/><stop offset=".78" stop-color="#63666B"/><stop offset="1" stop-color="#B1A8A9"/></linearGradient><linearGradient id="by5iw4ayw" x1="9.59" y1="15.45" x2="3.57" y2="9.04" gradientUnits="userSpaceOnUse"><stop stop-color="#A4A7AE"/><stop offset=".25" stop-color="#A69EA9"/><stop offset=".37" stop-color="#5C5F64"/><stop offset=".67" stop-color="#F0F0F0"/><stop offset="1" stop-color="#8E8F93"/></linearGradient></defs></svg>