<!-- by TradingView --><svg width="18" height="18" viewBox="0 0 18 18" fill="none" xmlns="http://www.w3.org/2000/svg">
<rect width="18" height="18" fill="#F0F3FA"/>
<path d="M11.9588 10.7748C12.1122 11.3987 11.1737 12.2742 9.86258 12.7302C8.55149 13.1862 7.36431 13.0501 7.21095 12.4262C7.05759 11.8022 7.99612 10.9268 9.30721 10.4707C10.6183 10.0147 11.8055 10.1509 11.9588 10.7748Z" fill="#0070AD"/>
<path d="M6.90517 10.9727C7.01129 11.4044 6.3619 12.0101 5.45473 12.3257C4.54756 12.6412 3.72613 12.547 3.62001 12.1153C3.5139 11.6836 4.16329 11.0778 5.07046 10.7623C5.97763 10.4468 6.79906 10.541 6.90517 10.9727Z" fill="#0070AD"/>
<path d="M5.58592 9.19692C5.66916 9.53558 5.15975 10.0108 4.44813 10.2583C3.73651 10.5058 3.09215 10.4319 3.00891 10.0932C2.92567 9.75457 3.43507 9.27939 4.14669 9.03189C4.85831 8.78438 5.50268 8.85827 5.58592 9.19692Z" fill="#50A346"/>
<path d="M6.8247 7.14649C6.895 7.43247 6.46483 7.83374 5.8639 8.04275C5.26297 8.25175 4.71884 8.18936 4.64854 7.90338C4.57825 7.6174 5.00842 7.21614 5.60935 7.00713C6.21028 6.79812 6.75441 6.86051 6.8247 7.14649Z" fill="#60AAC2"/>
<path d="M9.00577 5.81865C9.06248 6.04937 8.71543 6.3731 8.23062 6.54172C7.7458 6.71035 7.30681 6.66001 7.2501 6.42929C7.19339 6.19857 7.54044 5.87484 8.02525 5.70621C8.51007 5.53759 8.94906 5.58793 9.00577 5.81865Z" fill="#60AAC2"/>
<path d="M13.2177 5.34959C13.2792 5.59943 12.9359 5.93865 12.4511 6.10728C11.9663 6.2759 11.5235 6.21006 11.4621 5.96023C11.4007 5.71039 11.7439 5.37116 12.2287 5.20254C12.7135 5.03392 13.1563 5.09976 13.2177 5.34959Z" fill="#50A346"/>
<path d="M14.9908 6.27817C15.068 6.59225 14.6517 7.01341 14.0611 7.21886C13.4704 7.4243 12.9289 7.33623 12.8517 7.02214C12.7745 6.70806 13.1908 6.2869 13.7815 6.08145C14.3722 5.87601 14.9136 5.96408 14.9908 6.27817Z" fill="#50A346"/>
<path d="M14.7622 8.43195C14.8657 8.85286 14.3079 9.41727 13.5163 9.69259C12.7247 9.96791 11.9991 9.84988 11.8957 9.42897C11.7922 9.00805 12.35 8.44365 13.1416 8.16832C13.9332 7.893 14.6588 8.01103 14.7622 8.43195Z" fill="#0070AD"/>
<path d="M11.0247 5.16436C11.0686 5.34311 10.7997 5.59391 10.4241 5.72455C10.0485 5.85519 9.70841 5.81619 9.66448 5.63744C9.62054 5.4587 9.88941 5.20789 10.265 5.07725C10.6406 4.94661 10.9807 4.98561 11.0247 5.16436Z" fill="#60AAC2"/>
</svg>
