<!-- by TradingView --><svg width="18" height="18" viewBox="0 0 18 18" xmlns="http://www.w3.org/2000/svg"><path fill="url(#a00cl1h5u)" d="M0 0h18v18H0z"/><path fill-rule="evenodd" d="M3.88 7H3v4h1.3v-1h2.82S8.7 9.97 8.7 8.49C8.7 7 7.12 7 7.12 7H3.88Zm.42 1v1h2.4s.6.04.6-.5c0-.59-.6-.5-.6-.5H4.3Z" fill="#fff"/><path d="M13.85 7c.74 0 1.15.41 1.15.92v.28h-.74V8c0-.31-.34-.44-.66-.44H10.3c-.27 0-.55.14-.55.36V10c0 .22.25.36.5.36h3.58c.26 0 .44-.14.44-.36v-.44h-2.42V9H15v.92c0 .3-.05.6-.3.83-.2.16-.56.25-.84.25h-3.6c-.28 0-.7-.1-.9-.25A1.1 1.1 0 0 1 9 9.92V8.08c0-.3.11-.6.36-.83.2-.16.6-.25.89-.25h3.6Z" fill="url(#b00cl1h5u)"/><defs><linearGradient id="a00cl1h5u" x1="-2.25" y1="0" x2="16.5" y2="18" gradientUnits="userSpaceOnUse"><stop offset=".18" stop-color="#232E38"/><stop offset=".51" stop-color="#2D4050"/><stop offset=".83" stop-color="#263440"/></linearGradient><linearGradient id="b00cl1h5u" x1="14.34" y1="5.9" x2="10.33" y2="13.09" gradientUnits="userSpaceOnUse"><stop offset=".07" stop-color="#C08B28"/><stop offset=".3" stop-color="#D4B15D"/><stop offset=".52" stop-color="#E3CD85"/><stop offset=".77" stop-color="#C48F2A"/></linearGradient></defs></svg>