<!-- by TradingView --><svg width="18" height="18" viewBox="0 0 18 18" xmlns="http://www.w3.org/2000/svg"><path fill="#F0F3FA" d="M0 0h18v18H0z"/><path d="M6.57 13.67c.07.02.07.04 0 .06-.26.1-.52.17-.78.2-.07 0-.07 0 0 .02.32.07.66.04 1.04-.09l.3-.06a3.69 3.69 0 0 1 .49 0c.62 0 1.17-.15 1.64-.44a.11.11 0 0 1 .07-.02c.03 0 .05.01.07.03l.39.25c.05.05.1.06.17.06h1.46l.04-.01a.06.06 0 0 0 .02-.05v-.84c0-.03 0-.05.04-.06l.23-.08c.55-.13 1.07-.26 1.56-.4a26.82 26.82 0 0 0 1.58-.38.14.14 0 0 0 .1-.1c.02-.02 0-.04-.03-.05h-.04l-2.98.72a2.5 2.5 0 0 1-.44.06l-.01-.03-.04-.97.01-.05a341.42 341.42 0 0 1 3.35-.87c.1-.03.14-.07.13-.12a.06.06 0 0 0-.07-.04l-1.95.49c-.45.11-.9.22-1.38.31-.06.01-.1-.01-.1-.07v-.82c0-.02 0-.05.03-.06a8.95 8.95 0 0 0 .39-.2c.09-.04.18-.08.27-.1.83-.22 1.65-.43 2.48-.63.07-.01.16-.05.28-.1.04-.02.05-.05.03-.09v-.02c-.02-.01-.03-.02-.05-.01-.86.23-1.7.43-2.5.6-.05 0-.06-.01-.03-.05a.92.92 0 0 1 .11-.11l.12-.11c.22-.3.4-.6.53-.92a.24.24 0 0 1 .16-.15c.49-.14 1-.28 1.55-.4.03-.02.05-.04.06-.07v-.05c0-.01 0-.02-.02-.03h-.03l-1.58.37h-.03v-.06l.07-.5c.02-.19.01-.35-.02-.49l.01-.07a.09.09 0 0 1 .06-.04l1.44-.35a.09.09 0 0 0 .07-.08.1.1 0 0 0 0-.03.05.05 0 0 0-.02-.03h-.04l-1.51.35c-.03 0-.04 0-.05-.04a3.6 3.6 0 0 0-.32-.89.07.07 0 0 1 0-.05c0-.02.01-.04.03-.04l.2-.07 1.6-.4c.04-.01.05-.03.05-.07v-.05c0-.03-.01-.04-.04-.03l-1.8.44a.54.54 0 0 1-.18.01 2.96 2.96 0 0 0-6.04 1.16c0 .02-.01.04-.03.05l-.05-.01a.93.93 0 0 1-.1-.1.85.85 0 0 0-.14-.12.2.2 0 0 0-.17-.02c-.56.2-1.03.5-1.41.94a.39.39 0 0 1-.2.13l-1.58.38c-.03 0-.04.02-.04.05v.08l.02.03h.04a11.88 11.88 0 0 1 1.45-.34v.01a.2.2 0 0 1-.02.1c-.2.34-.34.68-.43 1.02a.18.18 0 0 1-.14.13l-.57.16a.74.74 0 0 1-.27.03l-.05.01a.06.06 0 0 0-.02.05v.06c0 .02 0 .03.02.04.01.01.03.02.04.01.3-.08.6-.14.88-.18.04 0 .05 0 .05.05a3.55 3.55 0 0 0 .04 1.02l-.03.02c-.32.1-.64.17-.96.23a.05.05 0 0 0-.05.04c0 .04 0 .08.02.12 0 .02.02.03.05.01a.64.64 0 0 1 .23-.06.85.85 0 0 0 .18-.04c.18-.07.37-.11.56-.13.02 0 .04.01.05.04l.31.97a.04.04 0 0 1-.03.05l-1.34.34c-.02 0-.03.02-.03.04l.01.06c0 .03.02.04.04.03l1.38-.32.05.01a2.83 2.83 0 0 0 .61.93l-.01.03a51.76 51.76 0 0 0-2.04.52c-.03 0-.04.02-.04.04v.08c0 .02.02.03.04.03l2.18-.53c.03-.01.05 0 .08.01.23.18.43.32.6.43.23.13.46.23.67.28ZM9.7 8.08c-.16.01-.35-.04-.56-.16a.08.08 0 0 1-.05-.07v-.03a5.53 5.53 0 0 1-.03-.58c0-.23.04-.41.1-.55.21-.46.58-.64 1.1-.55a.74.74 0 0 1 .64.74c0 .17-.04.33-.1.48-.05.14-.14.27-.25.37-.1.1-.23.19-.38.25s-.3.1-.47.1ZM6.46 9.82a.97.97 0 0 1 .23-.34.04.04 0 0 1 .05-.01c.02 0 .03.02.03.04.02.27.02.56.01.87 0 .16.05.29.17.39l.42.36c.1.08.09.12-.05.1a1.7 1.7 0 0 1-.43-.08.68.68 0 0 1-.34-.29 1.08 1.08 0 0 1-.1-1.04Z" fill="#EA1842"/><path d="M10.7 9.58c-.03.01-.03.03-.03.07V13c0 .03-.02.05-.06.05H9.06c-.02 0-.03 0-.04-.02L9 12.98v-.26a.07.07 0 0 0-.03-.06.07.07 0 0 0-.08 0 3.1 3.1 0 0 1-1.98.34c-.6-.1-1.13-.32-1.59-.68a3.17 3.17 0 0 1-1-3.71c.17-.42.4-.79.7-1.1.32-.32.68-.56 1.08-.72.05-.01.1-.03.16-.03a.05.05 0 0 1 .05.05c.03.54.13 1.1.12 1.67 0 .08-.12.15-.17.2-.2.21-.33.44-.4.7a1.53 1.53 0 0 0 .31 1.4c.18.2.4.35.65.46.32.14.64.15.96.05.82-.26 1.24-.83 1.22-1.7v-1.5c0-.02 0-.04.02-.05h.05c.4.22.78.22 1.2.02.48-.24.72-.63.73-1.17 0-.19-.04-.37-.12-.54-.09-.16-.2-.3-.34-.42a1.33 1.33 0 0 0-1.05-.27c-.38.06-.66.23-.85.5a1.6 1.6 0 0 0-.3.96v3.26l-.02.04c-.02.02-.03.03-.05.03H7.14a.12.12 0 0 1-.1-.03c-.02-.03-.04-.05-.04-.09V7.01c-.02-.48-.07-1.04.18-1.46a2.8 2.8 0 0 1 3.19-1.35c.25.05.46.12.62.2.45.24.8.55 1.07.92a2.78 2.78 0 0 1-.2 3.44c-.35.41-.66.68-1.16.82Z" fill="#9FDDE6"/><path d="M12.07 13.97c.1-.01.16-.06.15-.1 0-.03-.08-.05-.17-.04-.09.02-.16.06-.15.1 0 .04.09.06.17.04ZM11 9.8h.67v3.88H11V9.8Z" fill="#EA1842"/></svg>