<!-- by TradingView --><svg width="18" height="18" viewBox="0 0 18 18" xmlns="http://www.w3.org/2000/svg"><path fill="#F0F3FA" d="M0 0h18v18H0z"/><path d="M11.88 3C7.28 5.23 5 9.3 4.44 11.04c.88-1.11 3.3-3.56 5.91-4.46A6.7 6.7 0 0 1 11.88 3Z" fill="url(#a)"/><path d="M10.29 7.1c-3 1.4-5.35 3.99-6.15 5.11a23.02 23.02 0 0 1 6.3-2.77c-.11-.4-.27-1.35-.15-2.33Z" fill="url(#b)"/><path d="M10.54 10.02C7.5 10.78 4.91 12.32 4 13c1.5-.5 5.2-1.3 8-.46a7.85 7.85 0 0 1-1.46-2.52Z" fill="url(#c)"/><defs><linearGradient id="a" x1="4.78" y1="10.71" x2="11.62" y2="4.09" gradientUnits="userSpaceOnUse"><stop stop-color="#FEE100"/><stop offset="1" stop-color="#E81710"/></linearGradient><linearGradient id="b" x1="4.54" y1="11.63" x2="10.8" y2="10.52" gradientUnits="userSpaceOnUse"><stop stop-color="#16A026"/><stop offset="1" stop-color="#F1EA00"/></linearGradient><linearGradient id="c" x1="4.89" y1="12.77" x2="11.31" y2="11.7" gradientUnits="userSpaceOnUse"><stop stop-color="#0096E1"/><stop offset="1" stop-color="#004FA4"/></linearGradient></defs></svg>