<!-- by TradingView --><svg width="18" height="18" viewBox="0 0 18 18" xmlns="http://www.w3.org/2000/svg"><path fill="#F0F3FA" d="M0 0h18v18H0z"/><path d="M5 5.5c0-.27.23-.5.5-.5h7c.27 0 .5.23.5.5v7a.5.5 0 0 1-.5.5h-7a.5.5 0 0 1-.5-.5v-7Z" fill="#3ACC93"/><path d="M7 7.38c0-.21.17-.38.38-.38h5.24c.21 0 .38.17.38.38v5.24c0 .21-.17.38-.38.38H7V7.38Z" fill="#21AF78"/><path d="M9 9.25c0-.14.11-.25.25-.25h3.5c.14 0 .25.11.25.25v3.5c0 .14-.11.25-.25.25H9V9.25Z" fill="#038757"/><path d="M11 11.13c0-.07.06-.13.13-.13h1.74c.07 0 .13.06.13.13v1.74c0 .07-.06.13-.13.13h-1.74a.13.13 0 0 1-.13-.13v-1.74Z" fill="#156B46"/><path d="M7 13h2v1.87c0 .07-.06.13-.13.13H7.13a.13.13 0 0 1-.13-.13V13Z" fill="#21AF78"/></svg>