<!-- by TradingView --><svg xmlns="http://www.w3.org/2000/svg" width="18" height="18" viewBox="0 0 18 18"><path fill="#F0F3FA" d="M0 0h18v18H0z"/><path fill-rule="evenodd" d="M14.66 11a6 6 0 1 0-11.32 0h11.32zM4.53 13a5.99 5.99 0 0 0 8.94 0H4.53zm1.13-7h1.22v.68c.13-.23.41-.68.98-.68.71 0 1.14.61 1.15 1.66.02 1.05-.5 1.82-1.27 1.87-.19.01-.54-.07-.86-.45v1.5h-.7v-3.9c0-.22-.07-.47-.52-.47V6zm1.22 1.1c.1-.16.39-.49.75-.48.45 0 .67.57.66 1.2 0 .62-.14 1.17-.66 1.2a.94.94 0 0 1-.75-.35V7.1zM10 4.4H8.76v.2c.5 0 .54.17.54.35v4.4h.61l.11-.48c.1.16.35.48.97.47.78-.01 1.32-.74 1.31-1.76-.01-1.02-.37-1.77-1.15-1.77-.63 0-1.03.45-1.15.73V4.4zm.88 2.01c-.43 0-.77.3-.88.46v1.67c.31.28.72.33.88.31.62-.06.72-.66.72-1.23s-.19-1.2-.72-1.2z" fill="#0065FF"/><path fill="#0364FA" fill-opacity=".7" d="M6 11.5h6v1H6z"/></svg>