<!-- by TradingView --><svg width="18" height="18" viewBox="0 0 18 18" xmlns="http://www.w3.org/2000/svg"><path fill="#F0F3FA" d="M0 0h18v18H0z"/><path d="M12.24 11.2c.32 0 .56.25.7.5a.58.58 0 0 0 .75.24c.28-.13.39-.42.25-.69-.31-.6-.97-1.25-1.72-1.25-1.7 0-1.97 1.8-4.03 1.8-1.67 0-2.94-1.08-2.94-2.8 0-1.72 1.27-2.8 2.94-2.8 2.06 0 2.32 1.8 4.03 1.8.75 0 1.4-.62 1.72-1.22a.52.52 0 0 0-.25-.72.58.58 0 0 0-.25-.06c-.2 0-.4.1-.5.3-.14.25-.38.5-.7.5-.79 0-1.76-1.8-4.05-1.8C5.89 5 4 6.6 4 9s1.9 4 4.19 4c2.97 0 2.68-1.8 4.05-1.8Z" fill="#E01856"/><path d="M8 8.47a.9.9 0 0 1-.02.16c-.1.44-.4.62-.9.62h-.46l-.17.75H6l.46-2h.95c.34 0 .6.16.59.47Zm-.75-.12h-.42l-.14.59h.43c.21 0 .36-.1.4-.3a.4.4 0 0 0 .02-.1c0-.14-.14-.2-.29-.2ZM9.99 8.67h-.44c-.02-.2-.14-.33-.4-.33-.49 0-.7.55-.7.91.01.2.11.4.4.4.3 0 .46-.18.58-.4h.43c-.17.41-.56.75-1.08.75-.55 0-.78-.34-.78-.74C8 8.66 8.47 8 9.22 8c.45 0 .85.26.77.67ZM10 10l.5-2h.5l-.5 2H10Z" fill="#6E6E6E"/></svg>