<!-- by TradingView --><svg width="18" height="18" viewBox="0 0 18 18" xmlns="http://www.w3.org/2000/svg"><path fill="#F0F3FA" d="M0 0h18v18H0z"/><path d="M10.24 3.2a.3.3 0 0 1-.15.14.43.43 0 0 1-.21 0 4.33 4.33 0 0 0-2.14.11l-.44.16a.3.3 0 0 0-.07 0 .2.2 0 0 0-.08.02.74.74 0 0 1-.14.06 1.1 1.1 0 0 0-.38.23l-.48.36c-.05-.03-.12 0-.22.08a12.64 12.64 0 0 0-.45.44 2.88 2.88 0 0 1-.02.07 7.02 7.02 0 0 0-.6.83l-.07.16c-.06.1-.1.2-.14.3a.12.12 0 0 1-.15.08l-.12-.03a5.27 5.27 0 0 1 2.51-2.7 5.18 5.18 0 0 1 2.41-.49 7.88 7.88 0 0 1 .94.18Z" fill="#FE9C9B"/><path d="M10.24 3.2c.47.13.9.33 1.3.6.02 0 .02.02.01.03l-.12-.05-.04.01a.04.04 0 0 0-.02.04l.04.13c0 .02 0 .03-.02.05a.04.04 0 0 1-.04 0l-.3-.14a4.84 4.84 0 0 0-2.13-.54c-.15 0-.35.01-.59.05l-.59.07a4.33 4.33 0 0 1 2.14-.1l.21-.01a.3.3 0 0 0 .15-.14Z" fill="#FF3C38"/><path d="M11.55 3.83a.6.6 0 0 1 .18.1l.47.4.5.56c-.01.14.02.27.09.37l.04.07.18.29c.06.1.1.21.1.3.02.08.03.15.06.2a3.28 3.28 0 0 1 .15.55 3.43 3.43 0 0 1 .13.71l.04.35c.02.19.01.43-.02.75l-.01.21c0 .13 0 .22-.02.29a5.83 5.83 0 0 1-.8 1.92 5.45 5.45 0 0 1-1.62 1.44 4.38 4.38 0 0 1-4.74-.35 10.87 10.87 0 0 0-.4-.16v-.07l-.03-.01h-.02a.03.03 0 0 0-.02.03c0 .02-.01.03-.03.04v-.14c.11.07.2.07.26.02a44.63 44.63 0 0 0 .03-.78.08.08 0 0 0-.04-.07l-.01-.08a.72.72 0 0 1-.11-.4l.54.62c.1.13.21.23.35.3a.1.1 0 0 1 .05.07l-.01.04a.04.04 0 0 1-.04.02.67.67 0 0 1-.36-.19h-.02l-.01.02c-.02.02-.02.04 0 .06.14.16.3.28.46.37l.62.33.39.14.4.09a3.7 3.7 0 0 0 .83.04c.05-.02.1-.02.16-.03.1 0 .2 0 .29-.03a4.5 4.5 0 0 0 .92-.25c.09-.03.17-.07.23-.12a.38.38 0 0 1 .12-.07l.12-.05a3.19 3.19 0 0 0 .74-.58l.15-.14.33-.42c.3-.38.5-.82.59-1.3l.1-.47a4.45 4.45 0 0 0-.03-1.73.58.58 0 0 0-.07-.18c-.03-.05-.06-.05-.07.01V7c.07.18.08.37.03.55 0 .01-.01.02-.03.02-.03.02-.05 0-.08-.02l-.02-.02v-.03a2.66 2.66 0 0 0-.14-.6 1.87 1.87 0 0 1-.08-.25.68.68 0 0 0-.07-.2.82.82 0 0 0-.19-.72 3.13 3.13 0 0 1-.37-.52 8.85 8.85 0 0 0-.44-.44.68.68 0 0 0-.19-.15.93.93 0 0 1-.13-.09.52.52 0 0 0-.16-.1 1.54 1.54 0 0 1-.24-.1 3.02 3.02 0 0 0-1.25-.39 5.88 5.88 0 0 0-1.6.18c-.37.12-.7.28-.98.47-.1.06-.19.13-.27.21l-.18.16a3.37 3.37 0 0 0-.25.23L6 5.24c-.17.2-.28.35-.36.46-.12.18-.22.35-.29.51l-.08.18a2.37 2.37 0 0 0-.27.76l-.04.16a276.26 276.26 0 0 0-.04 7.02.1.1 0 0 1-.03.07.1.1 0 0 1-.08.03c-.2 0-.38.02-.57.07a.74.74 0 0 1-.24 0v-.05l.03-.02.27-.02c.02 0 .03-.01.04-.03a.07.07 0 0 0 .02-.04v-6.8c.03-.27.07-.52.14-.77.02-.1.08-.25.16-.45l.1-.23.12-.24.1-.17a2.05 2.05 0 0 1 .12-.23 3.3 3.3 0 0 1 .36-.5c.14-.18.37-.4.69-.67l.48-.36c.14-.04.26-.09.38-.16a.92.92 0 0 1 .15-.07l.14-.08.44-.16.59-.07a3.96 3.96 0 0 1 1.91.15 4.84 4.84 0 0 1 1.1.48h.05a.05.05 0 0 0 .02-.05l-.04-.13c0-.01 0-.03.02-.04a.04.04 0 0 1 .04 0l.12.04Z" fill="#FD0600"/><path d="M7.3 3.6a.44.44 0 0 1-.14.1.92.92 0 0 0-.15.06c-.12.07-.24.12-.37.16.12-.11.24-.19.37-.23l.14-.06a.2.2 0 0 1 .08-.02.3.3 0 0 1 .07 0Z" fill="#FF3C38"/><path d="M12.3 6.44A3.78 3.78 0 0 0 8.8 4.2a3.8 3.8 0 0 0-3.58 3.5 3661.98 3661.98 0 0 0-.02 7.02l-.03.01L4 14.71v-.2l.24-.01c.19-.05.37-.07.57-.07a.1.1 0 0 0 .08-.03.1.1 0 0 0 .03-.08 14.7 14.7 0 0 0 0-1.48l.01-.22a276.66 276.66 0 0 1 0-3.98V7.48A2.23 2.23 0 0 1 5 7.15c.04-.1.06-.18.06-.23l.05-.16a2.68 2.68 0 0 1 .17-.37l.08-.18c.07-.16.17-.33.3-.5a9.33 9.33 0 0 1 .52-.66l.13-.1.18-.16A3.95 3.95 0 0 1 8.23 4c.47-.06.83-.08 1.1-.06.42.03.83.16 1.25.4l.24.1.16.09.13.1c.07.03.13.08.19.14a2.77 2.77 0 0 0 .33.3l.11.14.19.29.18.23c.08.09.13.17.16.26.05.15.06.3.03.46Z" fill="#BF0400"/><path d="m12.3 6.44.07.2a4.1 4.1 0 0 1-.18-.3c-.17-.24-.38-.48-.62-.73A3.75 3.75 0 0 0 9.3 4.46a11.47 11.47 0 0 0-.91.03.77.77 0 0 1-.12.02l-.12.02a4.64 4.64 0 0 0-1.05.42.38.38 0 0 1-.08.07c-.1.04-.19.1-.27.18l-.1.08a3.54 3.54 0 0 0-1.09 1.58l-.07.25-.08.38a8.44 8.44 0 0 0-.01 1.33 12.54 12.54 0 0 1 .04 1.34 1080.92 1080.92 0 0 1 0 1.9l.01.11v2.27c0 .13-.04.27-.11.43 0 .02-.02.03-.03.04-.01 0-.03 0-.04.02l-.1.05a70.78 70.78 0 0 0-.95 0 .16.16 0 0 0-.1-.02c-.02 0-.03 0-.05-.02a.2.2 0 0 1-.07-.08c0-.02 0-.03.02-.04l.02-.01c.01-.01.02-.03 0-.05v-.05l1.13.02.03-.01.01-.03V7.7A3.8 3.8 0 0 1 8.8 4.2c.5-.02.99.06 1.46.25.91.37 1.6 1.03 2.05 2Z" fill="#C1BFBE"/><path d="M6.15 4.28a4.1 4.1 0 0 0-1.27 1.57l-.12.24-.1.23a3.26 3.26 0 0 0-.3 1.21l-.3-.05c.06-.44.17-.86.32-1.27l.12.03h.09a.12.12 0 0 0 .06-.08c.03-.1.08-.2.14-.3l.08-.16.08-.16a7.02 7.02 0 0 1 .53-.7V4.8a12.64 12.64 0 0 1 .45-.44c.1-.09.17-.11.22-.08Z" fill="#FE6863"/><path d="M12.2 4.33a10.64 10.64 0 0 1 .81.9l.06.12.03.04.02.01.07.04.05.06.29.55c.1.2.16.39.21.56l.15.44c.02.04.03.1.03.19v.15a8.28 8.28 0 0 0 .08.34v.66c0 .2-.02.42-.06.62-.06.33-.15.66-.26.99a5.18 5.18 0 0 1-4.36 3.4 4.07 4.07 0 0 1-1.62-.16 439.03 439.03 0 0 0-.74-.25l-.02-.02a2.74 2.74 0 0 1-.3-.17 2.9 2.9 0 0 0-.39-.24.45.45 0 0 0-.05-.03.4.4 0 0 1-.07-.06.89.89 0 0 0-.22-.16.62.62 0 0 1-.22-.2v-.05c.04-.04.05-.09.05-.13v-1.3a.5.5 0 0 1 .04-.21.2.2 0 0 0 .02-.12c-.01-.03 0-.04.02-.02l.09.09c0 .14.03.28.11.4l.01.08-.01.07c0 .01-.01.02-.03.02l-.02-.01a2.5 2.5 0 0 1-.14-.27c0-.02-.02-.03-.04-.01a.05.05 0 0 0-.02.04v1.22c0 .03.02.05.04.07a4.65 4.65 0 0 0 5.23.66 4.81 4.81 0 0 0 2.02-1.92 5.32 5.32 0 0 0 .4-4.46 5.3 5.3 0 0 0-.76-1.37l-.5-.56Z" fill="#C1BFBE"/><path d="M9.49 4.9a.31.31 0 0 1-.29.14 3.2 3.2 0 0 0-1.97.55l-.42.36a3.48 3.48 0 0 0-.4.47.5.5 0 0 1-.07.12 7.37 7.37 0 0 0-.29.53c-.05.1-.14.12-.26.07a3.47 3.47 0 0 1 2.43-2.22c.41-.1.84-.1 1.27-.03Z" fill="#FE9C9B"/><path d="M9.49 4.9c.55.1 1.04.34 1.47.73v.03c-.1-.1-.22-.18-.35-.24-.04-.01-.06 0-.05.07l.01.02.05.09c0 .02 0 .04-.02.05-.01.01-.03.02-.05 0a3.77 3.77 0 0 1-.47-.27 1.37 1.37 0 0 0-.26-.1 3.8 3.8 0 0 0-1.03-.15c-.16 0-.32.02-.48.06a3.38 3.38 0 0 0-1 .45.2.2 0 0 1-.08-.05 3.2 3.2 0 0 1 1.97-.55c.12.01.22-.04.29-.15Z" fill="#FE6863"/><path d="M12.7 4.9a5.3 5.3 0 0 1 .94 4.36 5.32 5.32 0 0 1-1.47 2.58 4.81 4.81 0 0 1-3.84 1.27 4.65 4.65 0 0 1-2.52-1.13.12.12 0 0 1-.04-.07v-.1c.03 0 .04-.01.04-.03l.02-.03h.02l.02.01v.03a.06.06 0 0 0 .04.07l.37.13c.03 0 .06.03.1.07a.5.5 0 0 0 .1.09c.04.01.09.05.15.1l.12.07.13.06a1 1 0 0 1 .15.06l.1.05.55.22c.05.02.12.04.22.05l.15.02a7.38 7.38 0 0 0 .95.08 5.62 5.62 0 0 0 1.4-.24 4.4 4.4 0 0 0 1.72-1.13l.2-.2a2.57 2.57 0 0 0 .32-.4c.05-.05.09-.11.12-.17a4.83 4.83 0 0 1 .27-.5c.18-.4.32-.81.41-1.24l.02-.29v-.21a3.36 3.36 0 0 0 0-1.1 1.84 1.84 0 0 0-.06-.36 3.45 3.45 0 0 0-.15-.58 3.28 3.28 0 0 0-.08-.31 1.08 1.08 0 0 1-.05-.2.98.98 0 0 0-.11-.31l-.18-.3-.04-.06a.6.6 0 0 1-.1-.37Z" fill="#BF0400"/><path d="M10.96 5.66c.2.19.39.4.54.63-.05.03-.07.07-.05.11.05.12.1.22.12.32 0 .05.03.1.06.14.01.01.02.02.01.04 0 .01-.01.02-.03.02l-.24.03a5.91 5.91 0 0 0-.54.02c-.03 0-.07 0-.1-.02a.18.18 0 0 1-.06-.06l-.15-.2a.97.97 0 0 1-.09-.18l-.07-.13a.4.4 0 0 0-.11-.11l-.36-.24a.9.9 0 0 0-.16-.08.97.97 0 0 1-.15-.08.48.48 0 0 0-.2-.07.89.89 0 0 1-.15-.03.65.65 0 0 0-.19-.04l-.48.01c-.14 0-.27.04-.41.09-.25.1-.46.2-.64.32a.67.67 0 0 0-.12.1l-.1.1-.11.14c-.12.12-.24.26-.35.44-.08.11-.13.22-.16.3l-.05.18a.6.6 0 0 0-.04.16l-.03.18-.03.17c-.03.3-.01.58.06.85l.07.2.07.15.04.07a.2.2 0 0 0 .07.05c.08.03.17.13.25.28.04.08.11.12.2.12.15.17.32.32.51.45l.02.03v.04l-.06.08v.05c.03.04.06.07.1.09.18.1.35.16.52.2.28.04.58.05.9.03a1.47 1.47 0 0 0 .61-.2c.07-.05.14-.08.21-.11l.04-.04.03-.07h.02c.07 0 .14-.05.2-.15l.27-.27c.1-.04.13-.1.11-.17-.03-.02-.03-.04 0-.08.03-.06.1-.1.24-.12.1-.02.2-.02.3-.01.07 0 .15-.02.23-.07.07-.04.13-.1.18-.18.09-.03.16-.03.22 0l-.02.07c-.06-.02-.1-.01-.13.02-.02.04-.07.08-.13.14l-.09.09a3.97 3.97 0 0 1-.98 1.2 3.35 3.35 0 0 1-.7.36c-.12.05-.24.1-.36.13a.65.65 0 0 1-.2.04.64.64 0 0 0-.15.03.49.49 0 0 1-.18.02 3.6 3.6 0 0 0-.56-.04 3.98 3.98 0 0 1-.95-.3 3.48 3.48 0 0 1-1.15-.9.07.07 0 0 0-.05-.02c-.02 0-.04 0-.06-.02-.03 0-.05-.04-.08-.09-.03-.07-.07-.11-.12-.12l-.28-.68a.22.22 0 0 1-.03-.1l.02-.27.02-.03h.04a9.2 9.2 0 0 0 .16.37c.03.05.04.05.06-.01v-.1a1.03 1.03 0 0 1-.03-.4v-.05a.55.55 0 0 1-.05-.2c0-.53.1-1 .34-1.4.1-.18.2-.36.33-.54.13-.22.36-.44.68-.66a.09.09 0 0 0 .03-.04 2.85 2.85 0 0 1 1.48-.5c.35 0 .7.04 1.03.14.09.02.17.06.26.1l.22.13.25.15.05-.01a.05.05 0 0 0 .02-.05.32.32 0 0 0-.05-.09v-.02c-.02-.06 0-.08.04-.06.13.05.25.13.35.23Z" fill="#FD0600"/><path d="M7.23 5.6a.2.2 0 0 0 .08.04l-.03.04c-.32.22-.55.44-.68.66a13 13 0 0 0-.33.54c-.24.4-.35.87-.34 1.4 0 .08.02.14.04.2v.05c0 .13 0 .26.04.4v.1c-.02.06-.03.06-.06 0a9.2 9.2 0 0 1-.16-.36h-.04a.04.04 0 0 0-.02.03l-.02.27c-.09-.43-.1-.86-.05-1.3h.16l.04-.01c.04-.04.07-.1.1-.15a1.84 1.84 0 0 0 .08-.24.4.4 0 0 0 .02-.2 7.37 7.37 0 0 1 .28-.53.5.5 0 0 0 .08-.12 3.48 3.48 0 0 1 .8-.83Z" fill="#FF3C38"/><path d="M10.96 5.63a3.91 3.91 0 0 1 .64.7l.13.16a2.02 2.02 0 0 1 .33.55c.04.1.05.17.04.23 0 .02 0 .03-.02.04l-.14.15a192.79 192.79 0 0 0-1 .05.3.3 0 0 0-.1-.02h-.02l-.12-.07a.07.07 0 0 1-.04-.06c0-.03-.02-.05-.05-.05-.02 0-.03 0-.03-.02v-.07c0-.02-.01-.04-.04-.04h-.06s-.02 0-.02.02v.02c.01.02 0 .04-.01.05a.05.05 0 0 0-.03.05c0 .1-.01.19-.05.29l-.03.03c-.16.09-.28.12-.35.1a1.94 1.94 0 0 0-.32-.08.08.08 0 0 1-.05-.03l-.16-.18a.09.09 0 0 1-.02-.04 1 1 0 0 0-.05-.16.04.04 0 0 0-.03-.02 1.9 1.9 0 0 0-.53-.04.3.3 0 0 0-.17.06 1 1 0 0 1-.2.13.07.07 0 0 0-.05.05v.07c0 .01 0 .02-.02.01-.07-.07-.08-.16-.05-.26a.43.43 0 0 1 .07-.13.43.43 0 0 1 .1-.1.77.77 0 0 1 .6-.11c.27.04.41.22.43.54 0 .02 0 .02.02.02h.63c.02 0 .03 0 .03-.02 0-.38-.12-.67-.4-.9l.02-.02.2.22h.06c.02 0 .03-.01.03-.03a.27.27 0 0 0-.03-.18.06.06 0 0 0-.04-.03.57.57 0 0 1-.13-.1 1.28 1.28 0 0 0-.57-.27A7.03 7.03 0 0 1 9 6.1l-.3.01a1.7 1.7 0 0 0-1.33.86 2.8 2.8 0 0 0-.23.52c-.04.08-.07.18-.1.3a4.09 4.09 0 0 0 .01 1.14c0 .03.02.07.05.13l.04.11c0 .04 0 .08-.02.12v.04c0 .04.01.07.04.1l-.02.01a2.3 2.3 0 0 1-.11-2.33A2.14 2.14 0 0 1 8.6 6a1.97 1.97 0 0 1 1.14.2c.44.23.76.55.96.99.02.03.04.04.08.04l1.1.01.03-.01V7.2a3.43 3.43 0 0 0-.97-1.54l.01-.03Z" fill="#C1BFBE"/><path d="M11.5 6.3a3.1 3.1 0 0 1 .42.93l-.03.01h-1.1a.08.08 0 0 1-.08-.05A2.08 2.08 0 0 0 8.61 6a2.02 2.02 0 0 0-1.06.46 2.14 2.14 0 0 0-.77 1.4 2.27 2.27 0 0 0 .36 1.56l.14.21a.22.22 0 0 1-.2-.12c-.08-.15-.17-.25-.25-.28a.2.2 0 0 1-.11-.12 1.61 1.61 0 0 0-.07-.16 1.35 1.35 0 0 1-.07-.2 2.4 2.4 0 0 1 .04-1.35l.05-.18c.03-.08.08-.19.15-.3.12-.18.24-.32.36-.44l.11-.13.1-.12a.67.67 0 0 1 .12-.1c.18-.1.39-.21.64-.31.14-.05.27-.08.4-.09h.49c.05-.01.11 0 .2.03l.13.03c.08 0 .15.03.2.07l.16.08a.9.9 0 0 1 .16.08l.36.24a.4.4 0 0 1 .11.11l.07.13c.04.08.07.14.1.17l.14.2a.18.18 0 0 0 .16.1 13.44 13.44 0 0 0 .81-.08v-.04a.33.33 0 0 1-.07-.14l-.12-.32c-.02-.04 0-.08.05-.1Z" fill="#BF0400"/><path d="M9.84 6.53c-.03.01-.03.02-.01.03l-.03-.01c-.03-.06-.08-.08-.15-.06a.04.04 0 0 0-.03.03l-.02.09-.03.03a.41.41 0 0 1-.19.01c-.33-.1-.66-.08-.98.05a.47.47 0 0 0-.2.08.07.07 0 0 0-.02.03c0 .02-.03.05-.06.07a1.07 1.07 0 0 0-.25.35c0 .02-.02.03-.03.03l-.05-.01c-.05-.05-.1-.06-.17-.03 0-.08.02-.16.06-.23.06.02.12.02.18.01l.04-.02c.1-.12.22-.24.35-.34.08-.06.19-.12.33-.18.05-.02.08-.06.08-.13l.3-.03a3.75 3.75 0 0 1 .39.03l.2.05c.05.03.1.04.13.05.03 0 .08.04.16.1Z" fill="#FE6863"/><path d="M8.66 6.33c0 .07-.03.11-.08.13-.14.06-.25.12-.33.18-.13.1-.25.22-.35.34a.07.07 0 0 1-.04.02.36.36 0 0 1-.18-.01c.1-.2.28-.36.51-.5.17-.09.33-.14.47-.16Z" fill="#FE9C9B"/><path d="m9.8 6.55-.02.01a.63.63 0 0 0-.06.18c0 .01-.01.02-.03.02a.3.3 0 0 1-.15-.02 1 1 0 0 1-.15-.08c.06 0 .12 0 .18-.02l.03-.03.02-.09.03-.03c.07-.02.12 0 .15.06Z" fill="#FF3C38"/><path d="M9.8 6.55h.03c.27.23.4.52.39.9 0 .01-.01.02-.03.02h-.63c-.02 0-.02 0-.02-.02-.02-.32-.16-.5-.44-.54a.77.77 0 0 0-.6.1.43.43 0 0 0-.1.1.43.43 0 0 0-.06.14c-.03.1-.02.19.05.26l.13.12c.02 0 .02.02.02.04s-.01.03-.03.04l-.05.03a.07.07 0 0 0-.05.07c0 .03.02.06.05.07.17.08.35.14.54.17.06 0 .12.02.18.05l.18.05c.17.05.32.11.45.2.03.01.04 0 .04-.04a.88.88 0 0 0-.04-.17c0-.01 0-.03.02-.04a.04.04 0 0 1 .04 0l.1.04.23.26a1.8 1.8 0 0 0-.1.4c0 .09-.03.17-.05.24l-.08.23c-.02.06-.1.16-.24.3-.03.03-.1.05-.21.07l-.08-.01a.24.24 0 0 1 .1-.05l.05-.01.12-.1a.2.2 0 0 0 .04-.15c0-.02 0-.03.02-.04.02-.02.03-.03.03-.05.04-.1.04-.18.03-.25a.06.06 0 0 0-.04-.05.06.06 0 0 0-.05 0l-.08.03h-.02l-.02-.01a.61.61 0 0 0-.12-.24c.05-.16 0-.28-.15-.37a2.1 2.1 0 0 0-.72-.26c-.16-.04-.3-.1-.44-.17a.65.65 0 0 0-.43-.07l-.12-.25a.33.33 0 0 1-.03-.16c.05-.04.13-.02.23.06h.04l.02-.03c.04-.35.2-.6.5-.76.32-.13.65-.14.98-.05l.01.01a1 1 0 0 0 .15.08c.05.02.1.03.15.02.02 0 .03 0 .03-.02a.63.63 0 0 1 .06-.18l.02-.01Z" fill="#E10501"/><path d="M8.4 6.7a.94.94 0 0 0-.5.76c0 .02-.01.03-.02.03h-.04c-.1-.08-.18-.1-.23-.06-.02-.05-.02-.12 0-.2.07-.04.13-.03.18.02h.05c.01 0 .02 0 .03-.02a1.07 1.07 0 0 1 .25-.35.18.18 0 0 0 .06-.07l.03-.03a.47.47 0 0 1 .19-.08ZM12.86 8.82a.46.46 0 0 0-.27-.13l.05-.49c.01-.13 0-.34-.05-.63 0-.01 0-.02.02-.03.03.03.05.04.08.02.02 0 .03-.01.03-.02a.96.96 0 0 0-.02-.55c-.01-.02-.01-.04 0-.07 0-.06.03-.06.06 0 .03.04.05.1.07.17a4.45 4.45 0 0 1 .03 1.73Z" fill="#FF3C38"/><path d="M6.06 7.07a.4.4 0 0 1-.02.2 9.22 9.22 0 0 0-.08.24.55.55 0 0 1-.1.15.05.05 0 0 1-.04.01h-.16l.13-.53c.12.05.21.03.27-.07Z" fill="#FE6863"/><path d="m4 7.48.37.05v6.8c0 .02 0 .04-.02.05a.09.09 0 0 1-.05.03l-.27.02c-.01 0-.02 0-.02.02v.02-6.99Z" fill="#FF3C38"/><path d="M8.42 7.5c.1.09.18.14.27.17a8.48 8.48 0 0 0 .86.25 3.65 3.65 0 0 1 .43.2l-.01.02-.1-.05h-.04a.04.04 0 0 0-.02.05l.04.17c0 .04-.01.05-.04.03a1.69 1.69 0 0 0-.45-.19 2.02 2.02 0 0 1-.18-.05.88.88 0 0 0-.18-.05c-.2-.03-.37-.09-.54-.17a.07.07 0 0 1-.05-.07c0-.03.02-.06.05-.07l.05-.03c.02 0 .03-.02.03-.04s0-.03-.02-.04L8.4 7.5l.03-.01Z" fill="#FE6863"/><path d="m7.64 7.6.12.24c.18.21.37.35.6.41l.67.2c.17.05.33.14.47.26.06.07.1.15.12.24l.02.01h.02l.08-.03h.05l.04.04c.01.08 0 .17-.03.26a.35.35 0 0 1-.01-.12c0-.02 0-.04-.02-.06a.08.08 0 0 0-.04-.03l-.14-.04-.03-.13c-.01-.03-.03-.04-.05-.04h-.28l-.05-.03-.02-.02a.07.07 0 0 0-.05-.03.27.27 0 0 1-.1-.03.05.05 0 0 0-.04-.01c-.04 0-.06 0-.08-.03-.01-.02-.03-.02-.05-.02h-.09a.16.16 0 0 0-.1-.04l-.05-.01a.36.36 0 0 0-.09-.03 2.32 2.32 0 0 1-.58-.29.87.87 0 0 1-.26-.28.06.06 0 0 1 0-.04.1.1 0 0 0-.03-.09c-.02-.01-.02-.02 0-.04a.11.11 0 0 0 .02-.04v-.05a.2.2 0 0 1-.02-.14Z" fill="#C1BFBE"/><path d="M9.5 8.71c-.14-.12-.3-.21-.47-.26l-.67-.2c-.23-.06-.42-.2-.6-.4.15-.04.3-.01.43.06.14.08.28.13.44.17l.25.06c.2.06.36.13.47.2.14.08.2.21.15.37Z" fill="#BF0400"/><path d="m9.98 8.13.16.13.15.15c.08.07.14.15.2.25.03.07.03.13 0 .2l-.02.11a.57.57 0 0 1-.04.14 2 2 0 0 0-.05.13l-.09.18c-.05.1-.12.18-.2.25a.26.26 0 0 0-.04.07 1.75 1.75 0 0 1-.32.22c-.25.13-.52.2-.83.22l-.22-.01a.73.73 0 0 0-.12-.03l-.12-.01a2.5 2.5 0 0 1-.58-.3.08.08 0 0 1-.04-.05.1.1 0 0 0-.06-.07.07.07 0 0 1-.05-.04 1 1 0 0 0-.08-.13.63.63 0 0 1-.1-.37c.03.17.1.31.2.43.2.26.48.42.84.48.3.05.59.03.87-.06.17-.05.32-.13.45-.24a1.15 1.15 0 0 0 .42-.85c0-.18-.03-.35-.1-.53l-.24-.26.01-.01Z" fill="#C1BFBE"/><path d="M10.2 8.4c.08.18.11.35.11.53a1.15 1.15 0 0 1-.42.85c-.13.1-.28.19-.45.24-.28.09-.57.1-.87.06a1.34 1.34 0 0 1-.85-.48h.25l.05.01c.07.07.15.11.22.13.38.1.76.1 1.14 0 .06 0 .1-.04.14-.1.1-.02.18-.04.2-.07.15-.14.23-.24.25-.3l.08-.23.06-.25c.01-.13.05-.26.1-.39Z" fill="#BF0400"/><path d="M12.6 8.69c.1.02.2.06.26.13l-.1.47a.17.17 0 0 0-.06.08c-.13.4-.3.76-.49 1.08l-.28.36a.05.05 0 0 1-.04.02l-.03-.01.09-.15a.6.6 0 0 0 .08-.15l.11-.27c.02-.04 0-.09-.03-.14.24-.45.4-.92.48-1.42Z" fill="#FE6863"/><path d="M8.2 8.8c-.01.01-.02.02 0 .02-.07-.03-.12-.03-.16.01a.06.06 0 0 0-.03.04c-.04.25-.21.3-.52.16l.01-.16.02-.05a6.55 6.55 0 0 0 .61-.06c.03 0 .06.01.07.04Z" fill="#FE9C9B"/><path d="M8.2 8.82v.13l.03.17c.02.05.06.1.11.15l.21.13c0 .07-.01.13-.03.17v.06c0 .01.02.03.04.03.26.1.52.1.77 0 .05 0 .08 0 .1-.03l.09.01a.21.21 0 0 1-.14.1c-.38.1-.76.1-1.14 0a.54.54 0 0 1-.22-.13.06.06 0 0 0-.05-.01h-.25c-.09-.12-.16-.26-.2-.43l-.03-.14c.3.14.48.1.52-.16 0-.02.01-.03.03-.04.04-.04.1-.04.15 0Z" fill="#FD0600"/><path d="m8.2 8.8.03.06c0 .02.01.03.03.03.03 0 .05-.01.07-.04h.03c.01.01.02.03.01.04 0 .05 0 .09.02.13v.03a.12.12 0 0 1-.1.07h-.02v.02c.05.05.07.09.07.13a.4.4 0 0 1-.1-.15.73.73 0 0 1-.03-.17l-.02-.13.01-.02Z" fill="#C1BFBE"/><path d="m9.59 8.98.14.04c.02 0 .03.02.04.03l.02.06.01.12c0 .02-.01.03-.03.05a.04.04 0 0 0-.02.04.2.2 0 0 1-.04.14.72.72 0 0 1-.12.1.08.08 0 0 1-.04.02.24.24 0 0 0-.11.05.14.14 0 0 1-.1.03c.05-.07.13-.13.2-.17a.18.18 0 0 0 .08-.08l.02-.1.01-.07V9.2a.32.32 0 0 0-.09-.1l.03-.12Z" fill="#FE6863"/><path d="m5.74 9.07.28.68a3.4 3.4 0 0 0 1.53 1.49 3.05 3.05 0 0 0 3.5-.62 3.3 3.3 0 0 0 .86-1.4l.02-.07c.03.04.08.07.12.08.02 0 .03.02.03.04v.04a3.6 3.6 0 0 1-1.87 2.1c-.2.09-.43.16-.7.22a1.7 1.7 0 0 1-.4.05 13.69 13.69 0 0 1-.66-.03.07.07 0 0 0-.05-.01c-.07 0-.15 0-.22-.02a4.88 4.88 0 0 1-1.09-.48 3.06 3.06 0 0 1-1.06-1.21 1.1 1.1 0 0 1-.06-.17 1 1 0 0 0-.05-.14 2.46 2.46 0 0 1-.18-.55Z" fill="#C1BFBE"/><path d="m9.56 9.1.08.1.01.04-.01.08-.02.1a.18.18 0 0 1-.08.07c-.07.04-.15.1-.2.17-.26.1-.52.1-.78 0a.06.06 0 0 1-.04-.03v-.06c.02-.04.03-.1.03-.17.11.03.21.06.3.07a.6.6 0 0 0 .3-.02.34.34 0 0 1 .1-.02l.07-.01.06-.04a.5.5 0 0 0 .18-.28ZM11.7 9.14a.62.62 0 0 1-.17.18.35.35 0 0 1-.23.07c-.1-.01-.2 0-.3.01-.13.02-.21.06-.24.12-.03.04-.03.06 0 .08-.01.03-.02.04-.04.05a.05.05 0 0 0-.03.03l-.04.1-.27.26a.35.35 0 0 0-.2.14l-.02.01-.2.1-.19.1c-.15.07-.28.12-.38.14-.24.04-.49.03-.76-.05-.1-.04-.16-.08-.16-.14a8.5 8.5 0 0 1 .6.01c.13 0 .25-.02.35-.05a3.55 3.55 0 0 0 .44-.17l.05-.03c.13-.08.22-.14.28-.2.21-.19.4-.43.54-.71l.03-.02.95-.03Z" fill="#FE9C9B"/><path d="M11.9 9.21a3.31 3.31 0 0 1-2.26 2.21 3.02 3.02 0 0 1-2.09-.18 3.2 3.2 0 0 1-1.53-1.5c.05.02.09.06.12.13.03.05.05.08.08.1h.06c.02 0 .04.01.05.03a3.48 3.48 0 0 0 2.1 1.2 4.87 4.87 0 0 0 .56.04c.04 0 .1 0 .18-.02a.64.64 0 0 1 .14-.03c.08 0 .15-.01.21-.04a10.33 10.33 0 0 0 .53-.2c.17-.07.35-.17.53-.29.14-.09.25-.18.34-.3l.21-.27a3.97 3.97 0 0 0 .43-.63l.1-.1.12-.13c.03-.03.07-.04.13-.02Z" fill="#BF0400"/><path d="M12.76 9.3c-.1.47-.3.9-.6 1.3-.1.14-.2.27-.32.4a1.1 1.1 0 0 1-.14.15l-.16.14c-.11.12-.3.26-.59.44 0-.04.03-.07.07-.1.07-.06.13-.1.2-.13a.1.1 0 0 0 .03-.03c.04-.06.09-.1.14-.12a.1.1 0 0 0 .05-.04.11.11 0 0 0 .02-.07c.15-.12.29-.26.4-.42l.03.01c.01 0 .03 0 .04-.02.13-.15.23-.28.28-.36.2-.32.36-.68.5-1.08 0-.03.02-.05.05-.08Z" fill="#FF3C38"/><path d="M7.14 9.43h.02l.2.26c.08.1.16.17.24.22a4.2 4.2 0 0 1 .26.18c.02 0 .05.01.08.04l.05.03.28.11c.08.02.15.04.2.07 0 .06.05.1.16.14.27.08.52.1.76.05.1-.02.23-.07.38-.14l.2-.1.19-.1-.03.07c0 .02-.02.03-.04.04l-.2.1a1.47 1.47 0 0 1-.61.2c-.33.04-.63.02-.91-.03-.17-.03-.34-.09-.52-.2a.26.26 0 0 1-.1-.08.04.04 0 0 1 0-.05l.06-.08v-.04c0-.01 0-.02-.02-.03-.2-.13-.36-.28-.5-.45l-.15-.21Z" fill="#FE6863"/><path d="M8.38 9.6c.04.02.07.05.1.09.01.02 0 .03-.01.02l-.15-.07a.04.04 0 0 1-.03-.04l-.01-.08c0-.02 0-.03.02-.03h.07c.04 0 .04.01.02.04l-.02.03v.04ZM10.76 9.6c.02.07-.02.13-.1.17l.03-.1.03-.02c.02 0 .03-.02.04-.05Z" fill="#FF3C38"/><path d="M12.11 10.11c.04.05.05.1.03.14l-.1.27a.6.6 0 0 1-.1.15.68.68 0 0 0-.08.15c-.11.16-.25.3-.4.42l-.1.07h-.07l-.37.28c-.06.05-.16.1-.3.16l-.26.13a.45.45 0 0 1-.13.05l-.16.05-.18.06c-.24.04-.47.06-.68.05a.06.06 0 0 1-.05-.03c-.03-.05-.02-.07.02-.08.28-.03.56-.08.84-.16.44-.13.84-.35 1.2-.65.35-.29.65-.64.9-1.06Z" fill="#FE9C9B"/><path d="M6.03 10.85c.03.01.04.04.04.07a44.73 44.73 0 0 1-.03.78c-.06.05-.15.05-.27-.02v-1s0-.02.02-.03c.02-.02.03-.01.04.01.04.1.09.18.14.27h.02l.03-.01.01-.07ZM7.38 11.62c-.02.12 0 .2.05.24.1.08.26.16.47.26.05.02.1.03.16.03l.17.01.37.07a3.66 3.66 0 0 0 .67.02c-.06 0-.1.01-.16.03a3.7 3.7 0 0 1-2.24-.6c-.17-.1-.32-.21-.46-.37-.02-.02-.02-.04 0-.06v-.01l.02-.01h.02c.11.11.23.17.35.19.02 0 .03 0 .04-.02a.05.05 0 0 0 .01-.04.1.1 0 0 0-.05-.07 1.02 1.02 0 0 1-.35-.3 12.02 12.02 0 0 1 .7.5c.05.04.13.08.23.13Z" fill="#FF3C38"/><path d="M11.46 11.24c0 .03 0 .05-.02.07a.1.1 0 0 1-.05.04.28.28 0 0 0-.14.12.1.1 0 0 1-.03.03c-.07.03-.13.07-.2.12-.04.04-.07.07-.07.1l-.12.06a.37.37 0 0 0-.12.07.54.54 0 0 1-.23.12 4.5 4.5 0 0 1-1.21.29l-.2-.01a3.66 3.66 0 0 1-.84-.09.8.8 0 0 0-.17 0c-.05 0-.1-.02-.16-.04-.2-.1-.36-.18-.47-.26-.06-.04-.07-.12-.05-.24a4.06 4.06 0 0 0 1.8.36c-.04 0-.05.03-.02.08 0 .02.03.03.05.03.21.01.44 0 .68-.05.04 0 .1-.03.18-.06l.16-.05a.45.45 0 0 0 .13-.05c.05-.04.14-.08.26-.13.14-.06.24-.11.3-.16a11.73 11.73 0 0 0 .4-.28h.05l.09-.07Z" fill="#FE6863"/></svg>