<!-- by TradingView --><svg width="18" height="18" viewBox="0 0 18 18" xmlns="http://www.w3.org/2000/svg"><path fill="#E51836" d="M0 0h18v18H0z"/><path d="M5.87 10c-.15.03-.32.1-.5.2a.26.26 0 0 1-.23.02.25.25 0 0 1-.16-.16c-.06-.2-.25-.36-.57-.46a.55.55 0 0 1-.3-.22.77.77 0 0 1-.1-.56c.03-.2.1-.37.22-.53.09-.12.28-.27.59-.45l.17-.1c.51-.31.87-.6 1.07-.84.05-.06.12-.14.23-.23.16-.14.27-.26.32-.38.15-.33.14-.68-.02-1.05a.16.16 0 0 1 .01-.16.17.17 0 0 1 .15-.08c.42 0 .79.13 1.12.4.06.04.14.14.24.28l.1.15c.04.04.08.06.12.07l.44.04c.32.02.6.1.86.25.09.05.17.05.25-.01l.66-.47a.77.77 0 0 1 .47-.15h2.9c.08 0 .1.1.08.16l-2.3 6.13c-.04.1-.11.15-.22.15H5.71c-.06 0-.09-.03-.1-.08-.03-.17-.02-.34.02-.52.08-.36.2-.79.35-1.28a.08.08 0 0 0-.02-.1.1.1 0 0 0-.09-.02Z" fill="#A2A0A4"/><path d="m7.11 7-.2-.15c-.07-.04-.07-.1-.01-.15l.12-.13a.39.39 0 0 0 .08-.11c.04-.1.07-.21.1-.37.06-.33.15-.33.27-.01l.08.26c.02.05.05.07.1.06.43-.07.86-.04 1.3.1.35.1.68.32 1 .68.4.45.68.97.84 1.56 0 .02 0 .04-.02.05h-.05l-.81-.62a.21.21 0 0 1-.08-.13c-.14-.56-.34-.9-.6-1.03-.34-.17-.44-.08-.32.27l.2.35c.12.2.18.49.17.87-.03.69-.1 1.36-.23 2.01-.01.06 0 .1.06.13.26.13.55.24.88.34.18.06.34.14.48.25.18.14.15.21-.08.21h-4c-.05 0-.07-.02-.07-.06-.01-.34.03-.66.12-.95.12-.36.3-.6.53-.76.44-.27.8-.53 1.11-.77.4-.32.6-.73.57-1.25a.15.15 0 0 0-.06-.11.15.15 0 0 0-.12-.03c-.18.04-.34.21-.46.54-.1.24-.2.4-.3.47-.2.15-.43.26-.7.33-.18.04-.46.08-.84.1-.05.01-.1.03-.13.07l-.35.44a.14.14 0 0 1-.12.06.14.14 0 0 1-.12-.07l-.23-.4a.17.17 0 0 0-.1-.08.86.86 0 0 0-.37-.02c-.05.01-.1 0-.12-.03a.13.13 0 0 1-.04-.12c.03-.13.1-.23.22-.3.54-.37 1.1-.78 1.68-1.24a.11.11 0 0 1 .07-.02l.34.02c.3.02.37-.07.21-.26Z" fill="#fff"/><path d="M12.73 6.96h-2.15a.41.41 0 0 1-.37-.21c-.02-.04-.01-.06.03-.09.28-.17.51-.25.68-.25L13 6.4c.13 0 .17.04.12.13l-.13.3c-.04.08-.13.13-.26.13ZM12.76 7.37l-.12.36c-.02.05-.05.07-.09.07h-1.58a.08.08 0 0 1-.08-.05l-.2-.36a.1.1 0 0 1 0-.1c.03-.03.05-.05.09-.05h1.9c.02 0 .05.01.07.04a.1.1 0 0 1 0 .1ZM12.41 8.08c.03 0 .04.03.04.05v.01a.6.6 0 0 1-.12.36c-.07.1-.16.14-.26.14h-.59c-.1 0-.18-.06-.25-.16a.58.58 0 0 1-.1-.36v-.01c0-.02.02-.03.04-.03h1.24Z" fill="#E51836"/><path d="M9.94 8.6c.22.14.48.37.78.67.25.24.39.6.41 1.08 0 .05-.01.06-.05.02-.4-.43-.6-.66-.64-.68-.11-.1-.3-.18-.57-.26-.03 0-.05-.03-.05-.07v-.7c0-.03.01-.05.04-.07a.07.07 0 0 1 .08 0Z" fill="#fff"/><path d="M12.03 9.2c.02 0 .03.05.03.07v.01a.66.66 0 0 1-.12.35c-.06.09-.14.13-.22.13h-.01c-.09 0-.16-.06-.2-.16a.66.66 0 0 1-.07-.35v-.02c0-.02.02-.03.04-.03h.55Z" fill="#E51836"/><path d="M10.22 10.59c-.06-.03-.2-.07-.41-.11-.05-.01-.08-.04-.08-.09v-.57c0-.06.03-.1.08-.13.06-.03.1-.03.16 0 .54.36.91.84 1.12 1.44.01.04 0 .06-.05.06a.32.32 0 0 1-.23-.1 2.46 2.46 0 0 0-.6-.5Z" fill="#fff"/></svg>