<!-- by TradingView --><svg width="18" height="18" viewBox="0 0 18 18" xmlns="http://www.w3.org/2000/svg"><path fill="#F0F3FA" d="M0 0h18v18H0z"/><path d="M8.7 5.76c-.36.04-.73.2-1.07.3l.1.29c.4-.14.84-.3 1.27-.3.41 0 .89.14 1.27.3l.1-.28a4.25 4.25 0 0 0-1.08-.3v-.6h-.58v.6Zm.3.89c-.9 0-1.4.4-1.62.59l-.14-.3c.29-.3.78-.59 1.76-.59s1.47.3 1.76.6l-.14.29A2.27 2.27 0 0 0 9 6.64Z" fill="#223670"/><path fill-rule="evenodd" d="M9 13.7c2.59 0 4.7-2.11 4.7-4.7 0-2.59-2.11-4.7-4.7-4.7A4.72 4.72 0 0 0 4.3 9c0 2.59 2.11 4.7 4.7 4.7Zm0 .3A5 5 0 1 0 9 4a5 5 0 0 0 0 10Z" fill="#223670"/><path d="M5.47 10.47a.59.59 0 0 1 0-1.18c.25 0 .8.15 1.03.74-.1-.03-.28-.04-.49.08a.57.57 0 0 1-.54.36ZM12.53 10.47a.59.59 0 0 0 0-1.18c-.25 0-.8.15-1.03.74.1-.03.28-.04.49.08.1.25.32.36.54.36ZM6.92 11.39a.74.74 0 1 1-.71-.92c.73 0 2.4.82 2.64 2.35a2.82 2.82 0 0 0-1.93-1.43ZM10.79 11.37c.08.32.37.57.71.57.4 0 .73-.34.73-.75 0-.4-.32-.72-.73-.72-.74 0-2.41.8-2.65 2.34.22-.44.89-1.26 1.94-1.44Z" fill="#35C7F4"/><path d="M7.14 11.94c.32 0 1.04 0 1.71.88a1.53 1.53 0 0 0-1.32-.5v.06a.44.44 0 1 1-.44-.44h.05ZM10.58 11.94c-.32 0-1.05 0-1.71.88.17-.21.65-.57 1.32-.5a.44.44 0 1 0 .44-.38h-.05Z" fill="#35C7F4"/><path d="M9 8.7 7.24 9.89 9 11.65l1.76-1.77L9 8.71Z" fill="#223670"/><path d="M9 6.5 11 8l-.17.24L9 6.94l-1.83 1.3L7 8l2-1.5Zm0 1 2 1.38-.17.24L9 7.86 7.17 9.12 7 8.88 9 7.5Zm0 .88 2.29 1.53-.17.24L9 8.74l-2.12 1.41-.17-.24L9 8.38Z" fill="#223670"/></svg>