<!-- by TradingView --><svg width="18" height="18" viewBox="0 0 18 18" xmlns="http://www.w3.org/2000/svg"><path d="M0 9a9 9 0 1 1 18 0A9 9 0 1 1 0 9Z" fill="#F0F3FA"/><path d="M9.05 5A8.96 8.96 0 0 0 3 7.64c.5-.35 3.09-1.87 6.05-1.84 2.37.03 4.97 1.04 5.95 1.62A9.88 9.88 0 0 0 9.05 5Z" fill="#093184"/><path d="M4.16 8.68 3 9.15C4.64 9.02 5.31 8.52 6.47 8c.51-.22 1.2-.97 1.81-.96.74.01.57-.38 1.34 0 .31.24 1.2.7 1.62.8a6.52 6.52 0 0 0 3.78 1.3 8.16 8.16 0 0 1-3.64-1.76 3.19 3.19 0 0 1-.3-.21c-.21-.07-.42-.21-.5-.28a1.2 1.2 0 0 1-.52-.24c-.08-.2-.33-.3-.44-.31l-.3-.12c-.26-.15-.44-.06-.5 0-.1.07-.38.2-.64.24-.27.03-.48.14-.56.2l-.51.38c-.15.17-1.74 1.08-2.02 1.24-.22.13-.71.32-.93.4Z" fill="#548F5B"/><path fill-rule="evenodd" d="M5.94 9H5v4h.94v-1.54H7.4A1.23 1.23 0 0 0 7.4 9H5.94Zm0 .75v.96H7.1a.48.48 0 0 0 0-.96H5.94Z" fill="#548F5B"/><path d="M10.45 12.96 9 9h1.03l.98 2.91.97-2.91H13l-1.47 3.96h-1.08Z" fill="#548F5B"/></svg>