<!-- by TradingView --><svg width="18" height="18" viewBox="0 0 18 18" xmlns="http://www.w3.org/2000/svg"><path fill="#F0F3FA" d="M0 0h18v18H0z"/><path d="M4 12V6h2.03C7.03 6 8 6.61 8 7.94S7.03 9.9 6.03 9.9H4.77v-.77h1.18C6.57 9.12 7 8.77 7 7.94c0-.68-.2-1.16-1.06-1.16H5V12H4ZM13.14 7.6c-.05-.53-.48-.72-1.09-.72-.44 0-1.05.1-1.05.74 0 1.1 3 .5 3 2.67 0 1.26-1.12 1.71-1.99 1.71-.9 0-1.95-.46-2.01-1.7h.81c.06.7.73.76 1.24.76.48 0 .95-.06.95-.77 0-1.09-2.86-.58-2.86-2.62C10.14 6.5 11.22 6 12.05 6c.8 0 1.85.47 1.88 1.6h-.79Z"/></svg>