<!-- by TradingView --><svg width="18" height="18" viewBox="0 0 18 18" xmlns="http://www.w3.org/2000/svg"><path fill="#F0F3FA" d="M0 0h18v18H0z"/><path d="M7 14V7l.52 1.05.48-.92V14H7Z"/><path d="M5.67 4.74c-.8.28-1.15.74-1.15 1.18 0 .9.21 1.45.3 1.59.06.12.02.27-.11.33a.27.27 0 0 1-.35-.1A3.99 3.99 0 0 1 4 5.93c0-.72.57-1.32 1.48-1.64a7.3 7.3 0 0 1 3.82-.06c3.23.66 4.7 2.5 4.7 4.22 0 .88-.48 1.5-1 1.9-.5.39-1.07.58-1.3.65-.14.04-.28-.03-.33-.16-.04-.13.04-.27.18-.3.2-.06.69-.24 1.13-.57.43-.34.8-.82.8-1.52 0-1.42-1.23-3.12-4.3-3.75a6.77 6.77 0 0 0-3.51.05Z" fill="#7DC417"/></svg>