<!-- by TradingView --><svg xmlns="http://www.w3.org/2000/svg" width="18" height="18" viewBox="0 0 18 18"><path fill="#F0F3FA" d="M0 0h18v18H0z"/><path d="M6.07 12.67c-.92 0-1.52-.77-1.52-1.58a2.74 2.74 0 0 1 1.5-2.59c.97-.57 1.97-.44 3.07-.38 0 .28-.15 1.42-.2 1.7-.12.58-.29.98-.55 1.4-.4.7-1.27 1.45-2.3 1.45Zm4.77-4.55c-.37 0-.43-.01-.56-.04.01-.16.02-.31.07-.64a3.7 3.7 0 0 1 .82-1.85c.94-.78 1.79-.32 1.79.5 0 .58-.34 1.22-.63 1.49-.35.3-.86.54-1.49.54ZM4 10.52c0 .85.2 1.3.75 1.84.96.92 2.48.73 3.53.16.43-.24.8-.57 1.08-.96.56-.76.8-2.02.89-3.29.87.08 1.56.13 2.43-.23.44-.19.89-.48 1.13-.87.3-.48.24-1.16-.11-1.53-.75-.82-2.39-.78-3.31-.28-.43.23-.6.43-.82.88-.28.55-.28 1.02-.42 1.65-.14 0-.18-.01-.44-.05a7.11 7.11 0 0 0-2.25.05c-.81.22-1.54.62-2.03 1.33-.18.3-.43.81-.43 1.3Z" fill="#012554"/></svg>