<!-- by TradingView --><svg xmlns="http://www.w3.org/2000/svg" width="18" height="18"><path fill="url(#aca3amnnr)" d="M0 0h18v18H0z"/><path d="M9.75 3a2.67 2.67 0 00-.28.01c.16.22.25.37.29.45a1.13 1.13 0 01-.29 1.16h.28c.6-.01 1.14.12 1.64.4a3.1 3.1 0 011.5 1.88 2.5 2.5 0 00.11-.78c0-.29-.04-.56-.11-.82 0 0-.13-.47-.4-.86a3.04 3.04 0 00-1.1-1.03A3.29 3.29 0 009.77 3h-.02zm-.28 1.62zm-.6.45c-.14.08-.3.15-.47.23l-1.01.41c-.55.23-1 .5-1.36.82-.2.18-.38.38-.53.59l-.17.27a2.6 2.6 0 00-.22 2.1c.05-.15.12-.32.22-.49l.17-.27c.15-.21.32-.41.53-.6.36-.3.81-.58 1.36-.8l1-.42c.18-.08.34-.15.48-.23.25-.14.45-.29.6-.44.16.2.25.36.29.44.04.1.06.23.06.37 0 .47-.31.88-.95 1.24a5 5 0 01-.47.23l-1.01.41c-.55.23-1 .5-1.36.82a3.44 3.44 0 00-.53.59c.28.44.65.78 1.11 1.03a3.3 3.3 0 001.87.4h.05c-.24.24-.35.5-.35.8 0 .13.02.25.06.36.04.08.13.23.29.45h-.28c-.6.01-1.14-.12-1.64-.4a3.1 3.1 0 01-1.5-1.88 2.5 2.5 0 00-.11.78 3.08 3.08 0 001.61 2.71 3.28 3.28 0 001.92.4 2.6 2.6 0 01-.29-.45.93.93 0 01-.06-.37c0-.47.31-.88.95-1.24.14-.08.3-.15.47-.23l1.01-.41c.55-.23 1-.5 1.36-.82.2-.18.38-.38.53-.59l.17-.27a2.61 2.61 0 00.22-2.09v-.01c-.05.15-.12.32-.22.49l-.17.27c-.15.21-.33.41-.53.6-.36.3-.81.58-1.36.8l-1 .42a5.1 5.1 0 00-.48.23c-.25.14-.45.29-.6.45a2.63 2.63 0 01-.29-.45.93.93 0 01-.06-.37c0-.47.31-.88.95-1.24.14-.08.3-.15.47-.23l1.01-.41c.55-.23 1-.5 1.36-.82a3.44 3.44 0 00.53-.59 3.04 3.04 0 00-1.11-1.03 3.28 3.28 0 00-1.62-.4h-.02a2.83 2.83 0 00-.28 0c.24-.24.35-.5.35-.8a.94.94 0 00-.06-.36 2.58 2.58 0 00-.3-.45c-.14.16-.34.3-.59.45z" fill="#fff"/><defs><linearGradient id="aca3amnnr" x1="14.49" y1="2.22" x2="3.92" y2="16.76" gradientUnits="userSpaceOnUse"><stop stop-color="#009DE1"/><stop offset="1" stop-color="#005193"/></linearGradient></defs></svg>