<!-- by TradingView --><svg width="18" height="18" xmlns="http://www.w3.org/2000/svg"><path fill="url(#paint0_linear)" d="M0 0h18v18H0z"/><path d="M13.229 10.432A2.813 2.813 0 0015 7.812C15 6.26 13.751 5 12.211 5a2.792 2.792 0 00-2.64 1.904l-.596 1.401v.008L7.85 10.42a1.765 1.765 0 01-1.638 1.12 1.772 1.772 0 01-1.764-1.78c0-.983.79-1.78 1.764-1.78a1.77 1.77 0 011.746 1.523c.049 0 .103-.025.148-.1.083-.137.526-.93.796-1.414a3.201 3.201 0 00-2.69-1.47C4.438 6.52 3 7.97 3 9.76S4.438 13 6.211 13a3.214 3.214 0 003.003-2.089l.688-1.586V9.32l1.073-1.935a1.308 1.308 0 011.236-.889c.722 0 1.306.59 1.306 1.318 0 .727-.584 1.317-1.306 1.317a1.29 1.29 0 01-.774-.256c-.196-.026-.268.03-.268.03-.269.198-.173.52-.092.657l.568.989h-.001l1.131 2.422h1.575c.043-.013.104-.083 0-.259-.047-.078-.212-.42-.41-.832-.237-.494-.521-1.087-.711-1.45z" fill="#fff"/><defs><linearGradient id="paint0_linear" x1="0" y1="9" x2="18" y2="9" gradientUnits="userSpaceOnUse"><stop stop-color="#012315"/><stop offset="1" stop-color="#01D2C4"/></linearGradient></defs></svg>