<!-- by TradingView --><svg width="18" height="18" viewBox="0 0 18 18" xmlns="http://www.w3.org/2000/svg"><path fill="#F0F3FA" d="M0 0h18v18H0z"/><path d="M9.5 5h1.63c1.02 0 1.91.5 2.42 1.27-.17.13-.38.23-.6.29-.33.1-.67.12-.87.12A9.6 9.6 0 0 1 9.5 6.3V5ZM9 6.14V5H5v.69c.25-.05.52-.1.79-.1.73 0 2.06.2 3.21.55ZM5 6c.25-.05.53-.1.79-.1.72 0 2.07.2 3.21.56v1.65l-.15-.01c-.69-.05-1.25-.1-2.32.07A3.4 3.4 0 0 0 5 8.82V6Zm0 3.24v-.02c.28-.26.84-.63 1.57-.75 1.04-.16 1.58-.12 2.26-.07l.17.01V9.8a9.98 9.98 0 0 1-.76-.24 6.47 6.47 0 0 0-2.27-.42c-.37 0-.7.05-.97.11Zm0 .32V14h4v-3.89c-.36-.1-.66-.2-.87-.28-.6-.22-1.32-.4-2.16-.4-.39 0-.72.06-.97.13Zm4.5.68V11h1.63c.7 0 1.34-.24 1.84-.64a8.1 8.1 0 0 1-3.47-.12Zm3.88-.28c.39-.47.62-1.05.62-1.7v-.52c0-.27-.04-.52-.11-.76-.34.33-.86.66-1.6 1.03a6 6 0 0 1-2.79.43v1.48c.6.14 1.33.26 2.06.26a7.4 7.4 0 0 0 1.82-.22ZM9.5 8.13v-1.5a10 10 0 0 0 2.58.36c.22 0 .59-.03.97-.14.22-.06.45-.16.66-.31l.06.12c-.29.32-.8.67-1.63 1.07-.82.4-1.85.44-2.64.4Z" fill="#0072BD"/></svg>