<!-- by TradingView --><svg width="18" height="18" viewBox="0 0 18 18" xmlns="http://www.w3.org/2000/svg"><path fill="#F0F3FA" d="M0 0h18v18H0z"/><path d="M9.08 4.63c.95-.05 2.7.16 3.33 1.51.5 1.09.34 1.69.21 1.9.32-.45.79-1.43.43-2.35.42.56 1.08 1.97.32 3.17l.47-.45c-.21 1.06-1.05 3.23-2.7 3.48-2.06.3-3.49-.76-3.65-3.03.16.5.76 1.51 1.9 1.51 1.44 0 2.39-2.41 2.23-3.32-.16-.9-.64-2.26-2.54-2.42Z" fill="url(#a4lvqkkoa)"/><path d="M9.24 10.07c-.9.24-1.54-.7-1.75-1.2 0 .75.95 1.8 1.9 1.66.96-.16 1.6-.91 1.44-1.97-.13-.84-1.22-.95-1.75-.9 1.27.15 1.27.9 1.27 1.2 0 .3 0 .91-1.11 1.21Z" fill="url(#b4lvqkkoa)"/><path d="M10.35 11.89c-2.03-.13-2.75-2.07-2.86-3.03-.47 1.06.16 4.08 2.86 4.23 2.16.12 3.33-1.66 3.65-2.56-.37.5-1.62 1.48-3.65 1.36Z" fill="url(#c4lvqkkoa)"/><path d="M11.94 13.1c-4.83 0-4.87-3.63-4.29-5.44-2.54 4.38.48 6.04 2.06 6.04 1.27 0 2.02-.4 2.23-.6Z" fill="url(#d4lvqkkoa)"/><path d="M10.83 4.03a7.92 7.92 0 0 0-2.7.3c2.03-.48 3.8.7 4.44 1.36-.21-.5-.86-1.54-1.74-1.66Z" fill="url(#e4lvqkkoa)"/><path d="M4.48 6.75c.05.1.25.3.63.3.24 0 .8-.34 1.35-.68a4.55 4.55 0 0 1 1.35-.68c.38 0 .69.1.8.15.26-.1.88-.24 1.26 0a7.6 7.6 0 0 0-2.06 1.82c-.64.9-1.11 1.96-.95 3.02.16 1.05 1.58 3.17 2.85 3.32-.95 0-2.92-.54-3.17-2.72-.05.66.13 2.12 1.27 2.72-.69-.25-2.13-1.12-2.38-2.57-.05.05-.16.24-.16.6-.21-.5-.54-1.72-.16-2.56-.16.2-.57.66-.95.9.21-.15.67-.72.8-1.8-.11.14-.45.45-.96.45a6.13 6.13 0 0 0 1.27-1.06l.32-.6c-.27.14-.86.24-1.11-.61Zm3.49-.6.32-.16c-.06-.05-.2-.12-.32 0-.13.12-.05.15 0 .15Z" fill="url(#f4lvqkkoa)"/><defs><linearGradient id="a4lvqkkoa" x1="12.89" y1="6.9" x2="8.67" y2="11.49" gradientUnits="userSpaceOnUse"><stop stop-color="#5B2891"/><stop offset=".42" stop-color="#9D3463"/><stop offset="1" stop-color="#B21F18"/></linearGradient><linearGradient id="b4lvqkkoa" x1="10.35" y1="8.11" x2="7.88" y2="9.73" gradientUnits="userSpaceOnUse"><stop stop-color="#5D2990"/><stop offset="1" stop-color="#FF3925"/></linearGradient><linearGradient id="c4lvqkkoa" x1="7.33" y1="9.92" x2="12.99" y2="11.9" gradientUnits="userSpaceOnUse"><stop stop-color="#940500"/><stop offset=".43" stop-color="#DE3427"/><stop offset="1" stop-color="#5E2A91"/></linearGradient><linearGradient id="d4lvqkkoa" x1="7.49" y1="7.96" x2="11.05" y2="13.56" gradientUnits="userSpaceOnUse"><stop stop-color="#830300"/><stop offset=".31" stop-color="#F17724"/><stop offset=".63" stop-color="#EC6023"/><stop offset="1" stop-color="#EA231E"/></linearGradient><linearGradient id="e4lvqkkoa" x1="8.76" y1="4.03" x2="12.2" y2="5.51" gradientUnits="userSpaceOnUse"><stop stop-color="#FEB300"/><stop offset="1" stop-color="#F4692E"/></linearGradient><linearGradient id="f4lvqkkoa" x1="6.94" y1="5.69" x2="6.94" y2="14" gradientUnits="userSpaceOnUse"><stop stop-color="#FFB014"/><stop offset="1" stop-color="#D53630"/></linearGradient></defs></svg>