<!-- by TradingView --><svg width="18" height="18" viewBox="0 0 18 18" xmlns="http://www.w3.org/2000/svg"><path fill="#F0F3FA" d="M0 0h18v18H0z"/><path d="M6.19 11.9c.1-.01.18 0 .2.03a6.7 6.7 0 0 1-1.61 0c-.2-.03-.43-.15-.6-.16a3.31 3.31 0 0 0-.96.11.11.11 0 0 1-.08-.04 74.4 74.4 0 0 1-.03-1.56c0-.07 0-.2-.04-.37-.06-.34-.05-.68.05-1.01.02-.07 0-.2-.02-.29-.12-.49-.13-1-.03-1.53 0-.03.02-.04.04-.03.2.06.38.08.57.06.35-.03.63-.07.83-.1.08-.02.2-.01.3.01.2.06.38.1.5.1a6.96 6.96 0 0 0 1.25-.1l.02.03c-.1.02-.15 0-.25.03-.57.12-1.1.13-1.61.01a.56.56 0 0 0-.22 0c-.37.06-.7.1-.98.11-.12 0-.23-.02-.35-.03a.03.03 0 0 0-.03.02 3.9 3.9 0 0 0-.04.95c.04.3.2.55.1.84-.1.35-.1.7.02 1.06.02.07 0 .22-.01.32a3.74 3.74 0 0 0 .01 1.37.09.09 0 0 0 .06.04h.03c.37-.08.81-.15 1.2 0 .12.04.25.07.38.08.43.05.87.06 1.3.04ZM12.24 7.15l-.2.03c-.3 0-.61-.02-.92-.07a.84.84 0 0 0-.32 0l-.4.1a3.97 3.97 0 0 1-1.02-.03v-.02c.34 0 .65 0 .94-.03.19-.02.5-.15.64-.12.42.06.85.11 1.28.14Z"/><path d="m12.07 11.98-.07-.01v-.02l.02-.02a5.9 5.9 0 0 0 1.08-.08c.2-.06.41-.14.6-.14.34 0 .66.03.98.1.06.02.1-.01.12-.08.1-.44.07-.9.02-1.36-.02-.2.02-.46.04-.65.03-.3-.01-.5-.04-.77-.02-.23.02-.45.07-.7a2.82 2.82 0 0 0-.04-1.07.04.04 0 0 0-.03 0l-.38.03c-.4-.01-.76-.05-1.1-.1a.92.92 0 0 0-.36 0c-.22.04-.46.08-.7.07h-.25l.2-.03c.41.02.75-.16 1.14-.1.48.07.87.1 1.18.09a1.1 1.1 0 0 0 .34-.06h.01a.02.02 0 0 1 .01.01 3 3 0 0 1 .06 1.08c-.04.3-.13.56-.06.92.06.33.05.65-.02.97-.03.09-.02.24 0 .47.06.46.06.83-.05 1.28a.1.1 0 0 1-.04.06.1.1 0 0 1-.07.01 3.07 3.07 0 0 0-1.77.04c-.3.04-.6.06-.89.06ZM10.3 8.12c.4.7.35 1.67.07 2.41a.05.05 0 0 0 0 .04.04.04 0 0 0 .04.02h.4a.1.1 0 0 1 .07.03.1.1 0 0 1 .03.07v.94h-.02v-.87a.11.11 0 0 0-.04-.07.1.1 0 0 0-.07-.04h-.46a.04.04 0 0 1-.03-.01.04.04 0 0 1 0-.04c.26-.82.35-1.7-.07-2.47a.1.1 0 0 0-.04-.05h-.03v-.05H10.87c.03 0 .05 0 .06-.02a.09.09 0 0 0 .03-.06l.02-.6c0-.01 0-.01 0 0 .02.07.02.13.01.2-.02.15 0 .29 0 .42.01.08-.03.11-.1.11h-.58a.02.02 0 0 0-.01.03ZM6.35 10.78c.12.1.29.21.52.33a.69.69 0 0 1 .12.14l-.68-.42a.08.08 0 0 1 0-.14l.73-.37a.06.06 0 0 0 .03-.05c0-.25-.05-.58.31-.59a17.7 17.7 0 0 0 .54-.03.04.04 0 0 0 0-.04c-.36-.5-.61-1.04-.77-1.6-.02-.05 0-.1 0-.18A6.1 6.1 0 0 0 8 9.66l-.01.06a.12.12 0 0 1-.05.05.11.11 0 0 1-.06.01h-.57a.16.16 0 0 0-.12.05.17.17 0 0 0-.05.12v.4l-.02.01-.77.4-.01.01v.02ZM5.02 8c.31 0 .6.12.87.34.12.1.12.11-.01.04-.3-.18-.6-.27-.86-.27-.27 0-.56.08-.87.24-.13.08-.13.06 0-.03.26-.22.55-.32.87-.32ZM5.98 8.54V8.5c.02-.02.02-.02.02 0 0 .05-.02.09-.06.12-.5.41-1.03.48-1.59.2a.96.96 0 0 1-.31-.23c-.06-.07-.05-.08.01-.03.62.44 1.25.44 1.9.01a.1.1 0 0 0 .03-.04Z"/><path d="M13 8c.3 0 .58.1.84.31.12.1.12.11 0 .04a1.7 1.7 0 0 0-.85-.24c-.26 0-.54.08-.84.25-.12.07-.13.06-.01-.04.26-.2.54-.32.85-.32ZM13 8.89c.28 0 .58-.1.9-.27.13-.08.13-.06 0 .04A1.4 1.4 0 0 1 13 9a1.4 1.4 0 0 1-.9-.34c-.13-.1-.13-.12 0-.04.32.18.62.27.9.27ZM8.11 10.17c.07.02.15-.05.23-.06a18.4 18.4 0 0 1 .37-.01v.02l-.52.07c-.09.02-.2-.04-.3-.05l-.01-.01v-.01c.07 0 .15.01.23.05ZM10.59 11.3a7.86 7.86 0 0 1-1.14 0 2.12 2.12 0 0 0-.85 0c-.31.06-.62.04-.93-.05l.02-.02c.3.06.6.06.91.02.23-.04.42-.03.58-.04.17 0 .37.07.56.07a26.54 26.54 0 0 1 .85.02ZM12.02 11.93l-.02.02v.02l.07.01a3.94 3.94 0 0 1-1.34-.09c-.52-.07-1.04-.1-1.59-.1a.6.6 0 0 0-.28.1l-.01-.03v-.02c.22-.12.41-.07.6-.08.46-.02.91 0 1.37.06a9.56 9.56 0 0 0 1.2.1ZM6.4 11.93c-.03-.03-.1-.04-.21-.04.37-.06.77-.14 1.13-.13a21.27 21.27 0 0 1 .7.02l-.9.03c-.1 0-.35.04-.73.12Z"/><path fill="#828385" fill-opacity=".5" d="M3 6h12v1H3z"/></svg>