<!-- by TradingView --><svg width="18" height="18" viewBox="0 0 18 18" xmlns="http://www.w3.org/2000/svg"><path fill="#F0F3FA" d="M0 0h18v18H0z"/><path d="M4.35 4h4.7a5.1 5.1 0 0 1 1.08 1.15.1.1 0 0 1-.07 0 2.43 2.43 0 0 0-1.84.44A2.93 2.93 0 0 0 7.2 7.63c0 .04-.01.07-.04.1l-.02.01H7.1c-.01 0-.01 0 0 0l.02.01.02.03a1.34 1.34 0 0 0-.88-.08c-.14.03-.27.08-.38.14-.13.07-.25.03-.33.13l-.16-.24a4.23 4.23 0 0 0-1.08-3.71.1.1 0 0 0 .04-.02Z" fill="#A01566"/><path d="M9.05 4h2.27a4.2 4.2 0 0 0-.86 1.27 1 1 0 0 0-.3-.09l-.03-.03A5.1 5.1 0 0 0 9.05 4Z" fill="#DC1F83"/><path d="M11.32 4h2.25a.9.9 0 0 1 .1 0 .3.3 0 0 1 .08.04c.14.06.18.17.25.3V6.5a3.78 3.78 0 0 0-3.03 1.05l-.02-.03a4.92 4.92 0 0 0-.79-2.33 1 1 0 0 1 .3.09h.02c.2-.48.48-.9.84-1.27Z" fill="#CD1A78"/><path d="M4.31 4.02a4.2 4.2 0 0 1 1.08 3.7l-.24-.33c-.33-.44-.71-.82-1.15-1.15V4.36c0-.17.09-.27.31-.34ZM10.13 5.15l.03.03.2.35a6.17 6.17 0 0 1 .78 2.3c-.14.06-.26.12-.34.2a.94.94 0 0 0-.3.52c-.3.46-.69.76-.78 1.31a5 5 0 0 0-.06.49 2.42 2.42 0 0 1-.83-.15h.48l.02-.02.86-2.58-.01-.02h-.43c-.18 0-.29.08-.33.25a5163.5 5163.5 0 0 0-.45 1.55l-.43-1.55a.32.32 0 0 0-.13-.2.4.4 0 0 0-.23-.05 7.19 7.19 0 0 1-.41.02l.83 2.5a2.25 2.25 0 0 1-.74-.55 69.3 69.3 0 0 1-.17-.19.45.45 0 0 1-.18-.07c.03-.12-.01-.19 0-.32 0-.13 0-.26-.02-.39-.04-.29-.02-.32-.16-.5a.82.82 0 0 0-.3-.23L7 7.82l-.02-.01h-.01V7.8h.07a.16.16 0 0 0 .03-.1v-.1c.12-.77.56-1.57 1.14-2 .26-.2.56-.34.88-.42.32-.07.64-.08.96-.02a.1.1 0 0 0 .07-.01Z" fill="#95115D"/><path d="M4 6.24a5.66 5.66 0 0 1 1.4 1.49l.15.24c-.11.2-.22.43-.22.7 0 1.77.5 3.58.52.94 0-.02 0-.03.02 0 .08.14.37.1.53.16l.07 1.03a.3.3 0 0 0 .02.29v.14c.02.46-.02.95-.11 1.46a4.32 4.32 0 0 1-1.87-.45c.02 0 .03-.01.03-.04l.02-.06a4.45 4.45 0 0 0-.43-3.85.8.8 0 0 1-.06-.24l-.01-.01h-.03c0 .01 0 .01 0 0h-.01v-.02L4 8H4V6.24Z" fill="#782269"/><path d="M14 6.49v4.47c-.81.01-1.85-.5-2.52-1a.9.9 0 0 0 .51-.3c.15-.17.55-.11.6-.37.04-.22.05-.47.01-.73-.02-.2-.08-.39-.17-.54-.1-.18-.42.05-.58-.02-.35-.16-.52-.28-.89-.14a1.85 1.85 0 0 0 0-.3v-.02l.01-.01A3.82 3.82 0 0 1 14 6.49Z" fill="#961F6F"/><path d="M10.33 7.21c.1 0 .17-.08.17-.17 0-.1-.07-.18-.17-.18-.09 0-.16.08-.16.18 0 .1.07.17.16.17ZM8.83 7.21c.1 0 .17-.08.17-.17 0-.1-.07-.18-.17-.18-.09 0-.16.08-.16.18 0 .1.07.17.16.17ZM9.33 7.21c.1 0 .17-.08.17-.17 0-.1-.07-.18-.17-.18-.09 0-.16.08-.16.18 0 .1.07.17.16.17Z" fill="#FEFEFE"/><path d="M9.83 7.21c.1 0 .17-.08.17-.17 0-.1-.07-.18-.17-.18-.09 0-.16.08-.16.18 0 .1.07.17.16.17Z" fill="#FFCC28"/><path d="M4 8h.01v.03h.02v.01c0 .01 0 .01 0 0h.03l.01.01c0 .09.03.17.06.24l.13.25a2.62 2.62 0 0 1 .33.72l.05.1c.02.02.02.05 0 .08v.03l.01.02.04.14a4.45 4.45 0 0 1-.18 2.61 4.27 4.27 0 0 1-.51-.3V8.01Z" fill="#6B246A"/><path d="M10.53 8.14a2.58 2.58 0 0 1-.02.32v1.78c-.15.23-.53.66-.71.88l-.15-.4v-.37a5 5 0 0 1 .07-.49c.1-.55.51-1.25.81-1.72Z" fill="#782269"/><path d="M7.49 9.21c0 .02 0 .02.03.01l.19.15.15.18c.45.5.68.4 1.49.78l.3.02c0 .1.2.73.2.73l-.09.09a4.38 4.38 0 0 1-3.38 1.52c.1-.51.05-1.03.03-1.5-.02-.54.13.05-.1-1.47.14.05.22-.07.36-.09.13-.02.33.4.45.32.1-.08.12-.22.2-.35.07-.13.13-.23.17-.39Z" fill="#A01566"/><path d="M11.6 9.77c.67.5 1.59 1.2 2.4 1.2v2.69c-.05.12-.1.19-.13.22l-.17.12h-2.5v-.03a4.22 4.22 0 0 1-1.51-2.72.15.15 0 0 1 .07-.08l.01-.01v-.02c.02 0 .03 0 .03-.02.18-.22.54-.75.69-.98v.7c0 .01 0 .02.02.02.74-.02.25-.15.24-1.45 0-.01 0-.02.01 0l.03.04.07.1c.1.09.19.15.29.18.14.05.3.06.45.04Z" fill="#A32579"/><path d="M9.69 11.25a4.34 4.34 0 0 0 1.5 2.75H6a7.07 7.07 0 0 0 .4-1.3 4.38 4.38 0 0 0 3.3-1.45Z" fill="#DC1F83"/><path d="M4 11.94c.16.11.33.21.5.3a2 2 0 0 1-.22.5h.01a.07.07 0 0 0-.03.03 2.8 2.8 0 0 1-.25.36l-.01.02v-1.2Z" fill="#782269"/><path d="M4.5 12.24h.01a4.32 4.32 0 0 0 1.87.46A9.51 9.51 0 0 1 6 14h-.38a7.35 7.35 0 0 1-1.32-1.3 2 2 0 0 0 .2-.46Z" fill="#961F6F"/><path d="m4.3 12.74.2.23c.33.38.7.72 1.12 1.03H4.3l-.17-.12-.02-.02-.11-.18v-.53l.01-.02h.02c.02 0 .02-.01.02-.03.08-.1.15-.21.2-.33l.04-.03Z" fill="#A32579"/><path d="M7.08 7.7c.14.06.24.13.3.22.14.18.23.41.27.7.02.12.02.25.01.38-.02.57-.3.99-.87 1.06-.31.05-.6-.05-.77-.35H6v1.02c0 .19-.1.26-.31.29h-.34c-.01 0-.02 0-.02-.02V8.7c0-.26.06-.5.18-.7.08-.1.19-.18.31-.25a1.47 1.47 0 0 1 1.26-.06ZM12.08 7.62c.14.06.24.14.3.22.14.18.23.4.27.68.02.12.02.25.01.38-.02.55-.3.97-.87 1.04-.31.04-.6-.05-.77-.34-.01-.02-.02-.02-.02 0v1c0 .18-.1.37-.31.4h-.34l-.02-.02V8.6c0-.26.06-.49.18-.68a1 1 0 0 1 .31-.25 1.49 1.49 0 0 1 1.26-.06Z" fill="#FEFEFE"/><path d="M6.19 9.41A4.27 4.27 0 0 0 6 8.89c-.02-.08 0-.2.01-.35a.53.53 0 0 1 .16-.32c.1-.08.2-.12.34-.11.12 0 .22.05.3.12.06.07.11.16.14.28a1.2 1.2 0 0 1 0 .65.53.53 0 0 1-.22.3.44.44 0 0 1-.36.06.36.36 0 0 1-.2-.11Z" fill="#A01566"/><path d="M6 8.89c.08.17.14.34.19.52A.67.67 0 0 1 6 8.89Z" fill="#782269"/><path d="M8.82 10h-.17l-.02-.02-.03-.08-.83-2.38V7.5h.41c.1 0 .18.01.23.05.06.04.1.1.13.19A315.23 315.23 0 0 1 9 9.22l.43-1.48c.04-.16.15-.24.33-.24a8.97 8.97 0 0 0 .44.02l-.86 2.46-.02.02h-.49Z" fill="#FFCC28"/><path d="M12 8.9a.9.9 0 0 1-.1.4.42.42 0 0 1-.32.23.5.5 0 0 1-.26-.03.43.43 0 0 1-.21-.19.8.8 0 0 1-.1-.28 1.35 1.35 0 0 1 .04-.57c.07-.22.2-.34.42-.35.2-.01.34.07.44.25a1.38 1.38 0 0 1 .1.53Z" fill="#961F6F"/></svg>