<!-- by TradingView --><svg width="18" height="18" viewBox="0 0 18 18" xmlns="http://www.w3.org/2000/svg"><path fill="#253646" d="M0 0h18v18H0z"/><path d="m8.64 4 .01.1.44 3.69.77-2.7.13-.49L8.64 4ZM8.62 7.84 8.5 6.8l-.26-2.23-1.48-.04.05.09 1.81 3.23ZM10.56 4.34 9.55 7.9l2.05-2.6-1.02-1.07-.02.1ZM8.2 8.08l-1-1.81-.6-1.08-1.39.53.08.06 2.92 2.3ZM12.22 5.3l-2.3 2.9 2.2-1.22.7-.39-.54-1.38-.06.08ZM4.24 7.42l.1.02 3.57 1.01-1.44-1.14-1.15-.91-1.08 1.02ZM13.4 6.8l-3.24 1.82 3.28-.38.04-1.48-.08.04ZM4 9.36l.1-.01 3.69-.44-.2-.06-2.99-.84L4 9.36ZM13.4 10l.6-1.36-.1.01-3.69.44 1.26.36 1.93.54ZM4.52 11.24l.08-.04 3.24-1.82-1.41.17-1.87.22-.04 1.47ZM12.68 11.6l1.08-1.02-.1-.02-3.57-1.01 2.6 2.05ZM5.19 11.4l.53 1.39.06-.08 2.3-2.92-2.9 1.62ZM11.4 12.81l1.39-.53-.08-.06-2.92-2.3 1.62 2.9ZM11.24 13.48l-.04-.08-1.82-3.24.38 3.28 1.48.04ZM6.4 12.68l1.02 1.08.02-.1 1.01-3.57-2.05 2.6ZM8.88 10.32 8 13.4l1.35.6-.01-.1-.44-3.69-.03.11Z" fill="#FEFEFE"/></svg>