<!-- by TradingView --><svg width="18" height="18" viewBox="0 0 18 18" xmlns="http://www.w3.org/2000/svg"><path fill="#F0F3FA" d="M0 0h18v18H0z"/><path d="M8 12.15c0 .03.01.05.03.07a.1.1 0 0 0 .07.04c.85.07.9.07 1.73.07 1.18 0 2.69-.37 2.86-1.74.01-.12.07-.18.17-.17.14 0 .14.04.14.14v2.1c0 .2-.15.34-.33.34H6c-.3.01-.78.53-.9.5-.07-.01-.1-.06-.1-.13.04-.71 1-.88 1-1.5V6.33c0-.1-.5-.3-.57-.36-.1-.07-.12-.15-.08-.26.03-.06.13-.07.2-.08.43-.02 1.46-.07 1.87-.22.3-.1.59-.23.87-.38A.34.34 0 0 1 8.5 5c.2.03.25.31.1.44l-.23.17c-.24.17-.35.46-.37.79v2.09c0 .08.03.15.07.2a.1.1 0 0 0 .05.04c1.41.34 1.99-.8 2.65-1.96a.44.44 0 0 0 .03-.24l-.07-.51c0-.1.04-.14.13-.14.12 0 .2.03.3.11.55.46 1.12.84 1.72 1.16.09.04.13.1.12.19-.02.22-.48.24-.65.27-.2.04-.33.22-.55.42-1.02.92-1.7 1.55-3.1 1.44l-.48-.03c-.15 0-.22.07-.22.22v2.5ZM13 6c.5 0 1-.41 1-1 0-.6-.5-1-1-1s-1 .42-1 1c0 .6.5 1 1 1Zm.33-1c0 .2-.15.34-.34.33a.34.34 0 0 1-.32-.34c0-.18.15-.33.34-.32.18 0 .33.15.32.34Z" fill="#FE6031"/></svg>