<!-- by TradingView --><svg width="18" height="18" viewBox="0 0 18 18" xmlns="http://www.w3.org/2000/svg"><path fill="#F0F3FA" d="M0 0h18v18H0z"/><path d="M10.4 7.26a3.66 3.66 0 0 1 1.18.48.04.04 0 0 1 0 .05h-.03c-.82.15-1.59.04-2.31-.34a.6.6 0 0 0-.48.02c-.7.36-1.47.47-2.29.33-.07-.02-.08-.04-.01-.08a3.35 3.35 0 0 1 1.2-.47.05.05 0 0 0-.01-.06l-.04-.01a4.86 4.86 0 0 1-2.6-1.24v-.01h.02a5.44 5.44 0 0 1 2.77.56v-.02a5.62 5.62 0 0 1-2-3.17c0-.03 0-.04.04-.03a5.75 5.75 0 0 1 2.74 2.9c.05.05.06.03.04-.04-.4-1.41-.27-2.78.37-4.11.01-.03.02-.03.03 0a5.48 5.48 0 0 1 .36 4.22c.03.02.05.02.06-.01a5.93 5.93 0 0 1 2.8-2.98 5.72 5.72 0 0 1-2 3.24h.03a5.25 5.25 0 0 1 2.68-.57c.06 0 .07.02.02.06a5.11 5.11 0 0 1-2.57 1.23c-.1.01-.1.03 0 .05Z" fill="#007A0C"/><path d="M10.16 8.27a.2.2 0 0 0-.08-.04l-.57-.15a.24.24 0 0 0-.14 0 .2.2 0 0 0-.1.07.17.17 0 0 0 .02.23l.53.49.03.02a.1.1 0 0 0 .08-.01l.02-.03.24-.38a.15.15 0 0 0 .01-.14.17.17 0 0 0-.04-.06Zm-1.99.6c.02 0 .03 0 .05-.02l.52-.5a.1.1 0 0 0 .03-.1c-.03-.1-.08-.15-.17-.17-.06-.02-.15 0-.27.04-.14.04-.27.08-.4.1a.2.2 0 0 0-.07.04.17.17 0 0 0-.06.06.15.15 0 0 0 0 .14l.23.37.04.04.05.01h.05Zm1.49.15-.6-.51a.1.1 0 0 0-.12 0l-.6.52a.07.07 0 0 0 0 .11l.6.52a.1.1 0 0 0 .13 0l.59-.53a.07.07 0 0 0 0-.11Zm-2.13-.38c-.53.17-.6.65-.3 1.03.02.04.05.04.09 0l.56-.53c.04-.03.04-.07.01-.12l-.25-.34a.1.1 0 0 0-.05-.04.1.1 0 0 0-.06 0Zm3.06.04c.42.26.48.59.19.99l-.02.02a.06.06 0 0 1-.08-.01l-.57-.55c-.03-.03-.04-.06 0-.1l.22-.3c.07-.1.16-.11.26-.05Zm0 1.24-.01-.04-.65-.58a.07.07 0 0 0-.05-.02c-.02 0-.04 0-.05.02l-.57.49a.28.28 0 0 0-.04.04.18.18 0 0 0-.02.05v.06l.63.56.04.02h.04l.05-.03a.3.3 0 0 0 .05-.04l.57-.49a.06.06 0 0 0 .02-.04Zm-1.8-.1-.6-.5a.1.1 0 0 0-.13 0l-.62.55a.07.07 0 0 0 0 .1l.6.52a.1.1 0 0 0 .12 0l.62-.55a.07.07 0 0 0 0-.11Zm2.75.54c.06-.34-.04-.57-.29-.7a.24.24 0 0 0-.15-.02.22.22 0 0 0-.13.08.17.17 0 0 0 .03.25 2.78 2.78 0 0 1 .46.43h.04l.03-.01.01-.03Zm-4.82-.7c.1-.09.16-.08.22.02l.1.15c.02.04.01.07-.02.1l-.46.45-.03.02h-.04l-.03-.02-.01-.03a.77.77 0 0 1 .27-.7Zm1.56 1.03.7-.6a.04.04 0 0 1 .05 0l.7.6v.05l-.7.61a.04.04 0 0 1-.06 0l-.7-.61a.03.03 0 0 1 0-.05Zm-1.03.63H7.2l-.55-.5a.15.15 0 0 1-.05-.13c.01-.05.04-.1.09-.14l.36-.32a.3.3 0 0 1 .17-.07.2.2 0 0 1 .15.05l.55.5v.04l-.67.57Zm4.15-.67-.55-.52-.03-.01a.09.09 0 0 0-.09.01l-.6.54a.07.07 0 0 0-.02.05c0 .02 0 .04.02.05l.6.55.03.01a.09.09 0 0 0 .1-.02l.54-.56a.07.07 0 0 0 .02-.05c0-.02 0-.04-.02-.05Zm-.4.83.54-.53c.03-.03.06-.03.08 0a1.2 1.2 0 0 1 .01 1.18l-.02.01a.05.05 0 0 1-.04-.01l-.57-.58c-.02-.02-.02-.04 0-.07Zm-4.6-.53-.02.02c-.2.38-.2.76-.03 1.15.02.04.05.04.08.01l.56-.57a.06.06 0 0 0 .02-.05c0-.01 0-.03-.02-.04l-.52-.51-.02-.02H6.4Zm1.67-.03-.66.58a.03.03 0 0 0 0 .04l.7.61c0 .02.03.02.04 0l.67-.58a.03.03 0 0 0 0-.04l-.7-.61a.04.04 0 0 0-.05 0Zm1.11.6.7-.6a.04.04 0 0 1 .05 0l.67.58v.05l-.7.6a.04.04 0 0 1-.05 0l-.67-.58a.03.03 0 0 1 0-.04Zm-2.62.9c.12-.24.39-.52.62-.69.04-.03.07-.02.1 0l.61.57c.02.01.03.03.03.05l-.03.05-.67.63c-.05.04-.09.04-.13 0l-.5-.5c-.04-.03-.05-.07-.03-.11Zm4.9-.06-.58-.6a.12.12 0 0 0-.04-.03.13.13 0 0 0-.14.02l-.57.53a.1.1 0 0 0-.03.07c0 .02.01.05.03.07l.63.6.04.02a.13.13 0 0 0 .14-.03l.51-.52a.1.1 0 0 0 .03-.07.1.1 0 0 0-.03-.06Zm-1.77-.04-.66-.57a.04.04 0 0 0-.06 0l-.66.57a.03.03 0 0 0 0 .05l.66.58c.02.02.04.02.06 0l.66-.58a.03.03 0 0 0 0-.05Zm-.5.8.67-.58a.04.04 0 0 1 .04 0l.77.69v.04l-.67.58a.04.04 0 0 1-.05 0l-.77-.68a.03.03 0 0 1 0-.04Zm-.4-.02-.61-.53a.09.09 0 0 0-.11 0l-.7.63a.06.06 0 0 0 0 .1l.6.53c.03.02.08.02.11 0l.7-.63a.06.06 0 0 0 0-.1Zm-2.4-.37-.01.02c-.13.39-.02.7.33.96a.07.07 0 0 0 .05 0h.03l.02-.02.18-.36c.02-.03.01-.06-.02-.1l-.53-.5h-.01a.04.04 0 0 0-.04 0Zm4.65.5.5-.48c.04-.04.08-.04.1.02.11.4 0 .7-.36.95-.04.02-.07.01-.09-.03l-.17-.37c-.02-.03-.01-.06.02-.09Zm-2.84.8.78-.68a.04.04 0 0 1 .05 0l.78.69v.04l-.78.68a.04.04 0 0 1-.05 0l-.78-.68a.03.03 0 0 1 0-.05Zm2.04-.06.5-.47c.04-.03.07-.03.1 0 .26.4.21.75-.13 1.07-.03.03-.06.03-.1 0l-.38-.47a.1.1 0 0 1 0-.13Zm-2.44.01-.57-.49H7.2a.04.04 0 0 0-.03 0c-.27.4-.23.76.11 1.08.03.03.07.03.1 0l.42-.5a.06.06 0 0 0 .01-.04c0-.02 0-.03-.02-.05Zm0 1.01a.26.26 0 0 1-.13-.03.22.22 0 0 1-.09-.08.19.19 0 0 1 .03-.22l.35-.4c.04-.03.07-.04.1 0l.69.63.02.02v.03l-.03.03H8.7l-.9.02Zm1.7 0c.27.01.5.03.76-.04.16-.04.2-.13.13-.26-.1-.16-.22-.31-.37-.44-.03-.02-.06-.02-.09 0l-.67.64-.01.02v.03l.02.02h.03l.2.02Z" fill="#DAAD45"/></svg>