<!-- by TradingView --><svg width="18" height="18" viewBox="0 0 18 18" xmlns="http://www.w3.org/2000/svg"><path fill="#F0F3FA" d="M0 0h18v18H0z"/><path d="m8.7 9.68-4.65 2.78.05.08 4.65-2.78 5.18 1.45.02-.1L8.8 9.68V4.1h-.1v5.57Z"/><path d="m8.7 4.83.07.02 1.75.48.05.02a1.4 1.4 0 0 1 .25.06l.45.13 1.73.48-.02.02-.71.42L10.6 6l-.01-.02h-.02a9.45 9.45 0 0 0-.79-.2l-1.01-.29-.07-.01a36.36 36.36 0 0 1-1-.29c-.05-.03-.08-.1-.08-.17s0-.13.02-.18c.02-.05.05-.1.1-.14a.63.63 0 0 1 .11-.09h.09l.76.22Z" fill="#3BA151"/><path d="M11.27 5.54a40.42 40.42 0 0 0-.75-.21l.4-.23a.18.18 0 0 1 .1-.02c.07 0 .12.03.17.09.09.1.11.23.08.37ZM10.6 6 8.7 7.13l-.76.45-.31.18a88.42 88.42 0 0 0-.8-.23l.32-.2.73-.43.82-.49.07-.04 1.01-.6a9.45 9.45 0 0 1 .82.23Z" fill="#D4332C"/><path d="M13.39 6.13a.3.3 0 0 1-.05.04.27.27 0 0 0-.05.04h-.01a.4.4 0 0 0-.08.1.62.62 0 0 0-.05.16c-.01.09.01.17.08.26a76.3 76.3 0 0 1-.86-.25 121.7 121.7 0 0 1 .73-.43l.29.08Z" fill="#3BA151"/><path d="M13.23 6.73a.32.32 0 0 1-.08-.26l.05-.16a.4.4 0 0 1 .08-.1.27.27 0 0 1 .06-.04.3.3 0 0 0 .05-.04c.05 0 .09.02.1.03.05.03.08.08.1.14.02.08.01.16-.02.24a.36.36 0 0 1-.14.18.18.18 0 0 1-.1.03c-.04 0-.07 0-.1-.02Z" fill="#6BC2A2"/><path d="m7.88 6.9-.73.43a5 5 0 0 1-.52-.15c-.04-.04-.06-.1-.06-.18 0-.06.01-.12.04-.18a.34.34 0 0 1 .13-.16.25.25 0 0 1 .21-.03 28.8 28.8 0 0 0 .93.27Z" fill="#8B8C8D"/><path d="m12.2 8.1-1.26-.35 1.43-.83.23-.14c.06-.04.12-.04.18 0 .12.04.21.13.28.24.07.12.1.24.07.36a.4.4 0 0 1-.12.23l-.21.13a93.65 93.65 0 0 1-.6.35Z" fill="#F3C300"/><path d="m8.7 7.13 1.67.45-.76.45-.84-.23a.08.08 0 0 0-.07 0 5.7 5.7 0 0 1-.76-.21l.76-.46Z" fill="#8B8C8D"/><path d="m7.55 7.81-.6.36a2687.85 2687.85 0 0 1-2.43 1.45c-.02 0-.02-.01 0-.03a.24.24 0 0 0 .05-.23.38.38 0 0 0-.23-.27h-.06l-.05-.02 2.5-1.49.78.2v.02l.04.01Z" fill="#D4332C"/><path d="m10.46 7.61.02.01h.03a6.24 6.24 0 0 1 .43.13l1.27.34.22.06v.01a.2.2 0 0 0-.1.05.47.47 0 0 0-.14.23c-.03.1-.02.2.03.28l.05.04c.01 0 .01 0 0 0l-.83-.22-1.2-.33a85.04 85.04 0 0 1-.53-.16l.75-.44Z" fill="#8B8C8D"/><path d="M12.27 8.77v-.01a.09.09 0 0 1-.05-.04.34.34 0 0 1-.03-.28c.02-.09.07-.17.14-.23a.2.2 0 0 1 .1-.05v-.01h.01c.11.03.17.1.18.21a.48.48 0 0 1-.08.3c-.07.11-.16.14-.27.1Z" fill="#C2C3C0"/><path d="m11.44 8.54-1.16.7-.83.5-.13.08V8.77a247.1 247.1 0 0 1 .92-.56l1.2.33ZM9.26 8.8v1.04l-.98.58-.24.15a.65.65 0 0 1 .03-.1.55.55 0 0 0 .04-.08.47.47 0 0 0-.01-.25.6.6 0 0 0-.13-.23.46.46 0 0 0-.2-.13.3.3 0 0 0-.14 0l-.01-.01v-.01l.58-.34.5-.3.06-.04h.02c.15-.1.31-.2.48-.29Z" fill="#F3C300"/><path d="m8.2 9.42-.58.34a.38.38 0 0 0-.19.15.5.5 0 0 0-.07.24h-.02c-.29-.06-.55-.13-.77-.2-.03 0-.05-.02-.07-.06a.56.56 0 0 1-.08-.26c0-.1.01-.2.05-.28.03-.1.09-.17.16-.24a.27.27 0 0 1 .19-.06l.2.04h.02l1.16.33Z" fill="#4177B6"/><path d="m4.23 9.07.05.01.06.01c.12.05.2.14.23.27.03.08 0 .16-.06.23v.03c-.1.06-.2.04-.3-.07a.38.38 0 0 1-.08-.35c.01-.05.04-.1.1-.13Z" fill="#DE7B88"/><path d="M10.28 9.24a.6.6 0 0 1 .3.24.8.8 0 0 1 .1.22c.03.09.03.17 0 .23a.4.4 0 0 1-.1.14 43.64 43.64 0 0 1-1.13-.34l.83-.49Z" fill="#6BC2A2"/><path d="M9.45 9.73a43.64 43.64 0 0 0 1.13.34l2.5.7-.08.02a.23.23 0 0 0-.07.04.63.63 0 0 0-.25.64c.01.07.05.13.12.18v.01l-.02.03-.4-.12-2.52-.7-.16-.05a5.15 5.15 0 0 0-.26-.06l-.12-.04v-.9l.13-.09Z" fill="#4177B6"/><path d="m7.62 9.76.01.01.13.01c.1.03.16.07.21.13.06.07.1.14.13.23.03.08.03.17 0 .25 0 .02 0 .04-.03.09a.65.65 0 0 0-.03.09 2.8 2.8 0 0 1-.08.05.3.3 0 0 1-.22.03.88.88 0 0 1-.1-.02 1.5 1.5 0 0 1-.12-.08 2.19 2.19 0 0 0-.05-.04 11.13 11.13 0 0 0-.09-.16.28.28 0 0 1-.02-.17v-.03c0-.1.03-.17.07-.24.04-.07.1-.12.19-.15Z" fill="#ECDA6D"/><path d="M9.25 10.7a51.43 51.43 0 0 1-.97-.28l.98-.58a42.89 42.89 0 0 1 0 .85Z" fill="#4177B6"/><path d="M8.28 10.42a8 8 0 0 0 .97.27v.19s-.02 0-.02.03l-.01.01-.82.49v.02l.85.23V13a282.86 282.86 0 0 1-2.4-.63l-.02-.01c-.12-.03-.2-.06-.22-.1a.7.7 0 0 1-.15-.53.9.9 0 0 1 .24-.5 1 1 0 0 1 .23-.19c.24-.13.47-.27.71-.42l.1.02a.3.3 0 0 0 .22-.03l.08-.05.24-.15Z" fill="#6BC2A2"/><path d="M9.44 10.76a.28.28 0 0 1-.11.06v-.1l.11.04Z" fill="#9BD0BC"/><path d="M13.09 10.76c.05.01.1.03.14.07l.04.06.04.06c0 .03 0 .06.02.08.03.2-.02.4-.16.55a.25.25 0 0 1-.07.06 2 2 0 0 0-.08.04c-.05.04-.14.04-.24 0 .01 0 .02 0 .02-.02a.27.27 0 0 1-.12-.2.63.63 0 0 1 .25-.63.23.23 0 0 1 .07-.04l.09-.03Z" fill="#5EA8D6"/><path d="m10.45 11.97-.01.03a.34.34 0 0 0-.2.06.7.7 0 0 0-.18.15.96.96 0 0 0-.16.76c.02.08.05.14.1.19l.02.03c0 .02 0 .03-.02.05l-.68-.2V11.7l.1.01 1.03.27Z" fill="#6BC2A2"/><path d="m10.54 13.17-.16.1h-.07a.28.28 0 0 1-.06.02.63.63 0 0 1-.25-.05c.02-.02.03-.03.02-.05l-.02-.02v-.01a.43.43 0 0 1-.1-.19.96.96 0 0 1 .17-.76.7.7 0 0 1 .16-.15.34.34 0 0 1 .2-.06c.03 0 .03-.01.02-.03.12.03.21.09.28.19.08.11.1.26.09.42-.02.15-.06.3-.14.42a.63.63 0 0 1-.12.14l-.02.03Z" fill="#9BD0BC"/><path fill-rule="evenodd" d="M14 5.47 8.73 4 4 6.79v5.75L9.3 14l4.7-2.8V5.46ZM4.17 6.8l4.57-2.7 5.08 1.42L9.28 8.2 4.17 6.8Zm-.07.09v5.58l5.14 1.4V8.29L4.1 6.88Zm5.24 6.97 4.56-2.72V5.59L9.34 8.27v5.6Z"/></svg>