<!-- by TradingView --><svg width="18" height="18" viewBox="0 0 18 18" xmlns="http://www.w3.org/2000/svg"><path fill="#F0F3FA" d="M0 0h18v18H0z"/><path d="M14 13c0 .33-.2 1-1 1H5c-.33 0-1-.2-1-1V5c0-.33.2-1 1-1h8c.33 0 1 .2 1 1H5v8h9Zm-.5-6a.5.5 0 1 0 0-1 .5.5 0 0 0 0 1Zm.5 4.67V7.83c0-.22-.1-.5-.5-.5s-.5.28-.5.5V11H9v-1H8v1.33c0 .54.44.67.67.67h5c.26 0 .33-.22.33-.33ZM8 8h3V7H7v4.67c0 .1-.1.33-.5.33s-.5-.22-.5-.33V6.33c0-.1.07-.33.33-.33h5.34c.1 0 .33.07.33.33v2.34c0 .1-.07.33-.33.33H8V8Z" fill="#0000D9"/></svg>