<!-- by TradingView --><svg xmlns="http://www.w3.org/2000/svg" width="18" height="18"><path fill="url(#axlvsxgcf)" d="M0 0h18v18H0z"/><path d="M5.5 6L5 7h1v5h1V6H5.5z" fill="#fff"/><path d="M8.86 14.7a5.76 5.76 0 10-4.74-9.03 5.5 5.5 0 114.4 9.02l.33.01z" fill="#FF514E"/><path d="M11.75 7.5c0 .47-.19.9-.5 1.21A2 2 0 118 10.27v-.02h1v.02a1 1 0 102 0c0-.55-.45-1.02-1-1.02h-.5v-1h.5a.75.75 0 10-.71-1H8.27a1.75 1.75 0 013.48.25z" fill="#fff"/><defs><linearGradient id="axlvsxgcf" x1="3.35" y1="3.12" x2="21.9" y2="24.43" gradientUnits="userSpaceOnUse"><stop stop-color="#1A1E21"/><stop offset="1" stop-color="#06060A"/></linearGradient></defs></svg>