<!-- by TradingView --><svg width="18" height="18" viewBox="0 0 18 18" xmlns="http://www.w3.org/2000/svg"><path fill="#3EB24F" d="M0 0h18v18H0z"/><path fill-rule="evenodd" d="M14.54 5.04c-3.43-.33-7.27 1.42-8.76 2.33 1.39-.6 4.69-1.69 6.81-1.28-1.95 5.67-6.75 6.91-8.91 6.82 1.24.17 2.37.09 3.39-.17a8.88 8.88 0 0 0 7.9-6.54l.03-.1-.79-.16c.14-.32.25-.62.33-.9Zm-.41 1.1c-.94 2.16-2.87 4.97-5.9 6.22a8.65 8.65 0 0 0 6.5-6.1l-.6-.12ZM3 11.3c.73-1.17 3.34-3.73 7.96-4.57C8.2 7.61 4.5 10.14 3 11.3Z" fill="#fff"/></svg>