<!-- by TradingView --><svg width="18" height="18" viewBox="0 0 18 18" xmlns="http://www.w3.org/2000/svg"><path fill="#F0F3FA" d="M0 0h18v18H0z"/><path d="M6.5 8.5h2.34v2H6.5v-2Zm6.22 2h-.9V8.9l.9 1.6Zm-7.42 0h.89V8.9l-.89 1.6Zm6.2-2H9.16v2h2.34v-2Z" fill="#811D77"/><path d="M6.19 13H4l1.13-2H6.2v2Zm2.65-2H6.5v2h2.34v-2Zm2.66 0H9.16v2h2.34v-2Zm2.5 2h-2.19v-2h1.06L14 13Z" fill="#AF76A9"/><path d="M6.57 8h2.27V6H7.71L6.57 8Zm4.86 0H9.16V6h1.12l1.15 2Z" fill="#671964"/><path d="M10.12 5.5H7.86L9 3l1.11 2.5Z" fill="#4E174E"/></svg>