<!-- by TradingView --><svg xmlns="http://www.w3.org/2000/svg" width="18" height="18"><path fill="#F0F3FA" d="M0 0h18v18H0z"/><path d="M6.06 5.02c-.28.03-.52.27-.62.6-.07.22-.07.26-.08 1.3 0 1.07 0 1.23-.09 1.98-.1.94-.32 2.02-.58 2.92-.17.58-.18.61-.19.84 0 .24.01.35.1.49.1.17.27.25.52.27.21 0 .32-.01.77-.14 2.09-.59 3.98-.85 6.12-.85.38 0 .55 0 .65-.03.4-.06.66-.22.78-.48.06-.1.06-.11.06-.3v-.18l-.13-.39a12.46 12.46 0 01-.7-3.91c0-.2-.02-.4-.03-.46-.1-.46-.46-.83-.92-.92l-.65-.02a15.4 15.4 0 01-4.46-.65c-.16-.05-.4-.1-.44-.09l-.1.02zm2.68 1.37c.13.07.21.2.25.33.1.5-.55.91-.81.36-.17-.34.14-.9.56-.7zm1 .33c.15.08.23.26.2.41-.07.29-.43.42-.63.18a.39.39 0 01.01-.51.34.34 0 01.42-.08zm-2.02.22c.25.11.29.48.12.67-.18.22-.5.13-.6-.15-.07-.28.16-.67.48-.52zm2.7.23c.12.03.2.18.17.32-.05.21-.33.25-.46.08a.26.26 0 010-.3c.07-.1.18-.13.29-.1zm.33.72c.11.03.21.12.27.23.2.38-.26.79-.62.61-.22-.1-.33-.35-.25-.55.1-.25.34-.37.6-.29zm-2.92.18c.24.12.3.46.12.66-.23.26-.6.13-.64-.22-.04-.3.27-.56.52-.44zm2.43.81c.1.03.2.11.25.2.12.24-.05.5-.33.5s-.48-.27-.37-.5c.08-.16.27-.25.45-.2zm-2.32.37c.21.1.25.43.07.64-.19.22-.54.17-.62-.1a.46.46 0 01.35-.58c.05-.01.13 0 .2.04zm1.53.03c.22.1.25.39.05.49-.13.07-.3 0-.39-.13-.08-.15-.03-.33.12-.38a.36.36 0 01.22.02zm-.71.08c.08.06.11.1.11.2 0 .28-.4.33-.46.06-.06-.2.18-.38.35-.26zm-1.1.96c.13.05.18.2.14.34-.05.2-.26.3-.41.2-.2-.11-.17-.44.06-.54a.23.23 0 01.21 0zm-.11.8c.22.1.23.4.03.63-.2.22-.54.2-.65-.02-.12-.27.14-.65.46-.65.07 0 .12.01.16.03z" fill="#3771B4"/></svg>