<!-- by TradingView --><svg width="18" height="18" viewBox="0 0 18 18" fill="none" xmlns="http://www.w3.org/2000/svg">
<rect width="18" height="18" fill="#F0F3FA"/>
<path d="M8.99079 6.56283C8.99082 6.56489 8.99167 6.56688 8.99315 6.56837C8.99462 6.56985 8.9966 6.57071 8.99866 6.57074C9.00071 6.57077 9.00266 6.56998 9.00409 6.56855C9.00552 6.56711 9.0063 6.56515 9.00627 6.56308C9.06437 5.85769 9.3955 5.16302 9.98519 4.77652C11.0313 4.09103 12.1409 4.79948 12.806 5.62809C13.4614 6.4442 13.8844 7.45164 13.9793 8.50322C14.2201 11.1748 12.3383 13.5659 9.69618 13.9496C7.85608 14.217 5.98452 13.4055 4.90842 11.8564C3.60726 9.98313 3.73463 7.55394 5.09339 5.75182C5.7932 4.82346 7.00454 4.0071 8.12123 4.85714C8.64469 5.25537 8.94283 5.91637 8.99079 6.56283ZM9.95677 9.1109C9.84106 8.8216 10.0339 8.30423 10.1339 8.01952C10.2534 7.68048 10.326 7.45598 10.5731 7.26821C10.7786 7.11209 10.9575 6.89371 10.9527 6.63222C10.9448 6.2197 10.4262 6.05898 10.1499 6.33118C9.87785 6.59905 10.0352 6.94116 9.9758 7.24015C9.88623 7.69272 9.60737 8.68614 9.15166 8.88793C8.52442 9.16549 8.11844 7.70267 8.03522 7.31465C7.9898 7.1029 8.02862 6.87993 8.01492 6.71105C7.95326 5.95157 6.88807 6.08602 7.0667 6.79268C7.12303 7.01565 7.30649 7.18148 7.48664 7.32536C7.59811 7.41448 7.68481 7.53838 7.74672 7.69706C7.86378 7.99792 7.96045 8.30517 8.03674 8.61879C8.14204 9.05171 8.02532 9.45326 7.48867 9.33846C7.16997 9.27035 6.77998 9.00324 6.48793 8.78818C6.21973 8.59072 6.20451 8.27183 5.83938 8.25423C5.3758 8.23178 5.08705 8.74201 5.40067 9.11141C5.52415 9.257 5.68291 9.32426 5.87693 9.31321C5.98299 9.30708 6.12331 9.24866 6.25576 9.24713C6.41308 9.24483 6.58333 9.31729 6.71959 9.3979C7.02712 9.57954 7.37246 9.81782 7.60615 10.0724C7.99183 10.4929 8.11235 10.964 8.25673 11.5041C8.34198 11.8222 8.55868 12.2317 8.91873 12.2988C9.01599 12.3168 9.10776 12.3057 9.19403 12.2654C9.70151 12.0286 9.76494 11.3544 9.91718 10.8873C10.0512 10.4765 10.2843 10.1351 10.6167 9.86297C10.8928 9.63694 11.4944 9.15427 11.8593 9.25657C12.163 9.34152 12.4175 9.34407 12.6273 9.07136C12.7143 8.95826 12.746 8.83308 12.7225 8.69583C12.653 8.28816 12.1483 8.10983 11.8507 8.38561C11.8278 8.40687 11.7844 8.4647 11.7205 8.55909C11.5766 8.77134 11.4185 8.86319 11.1618 9.0234C10.8697 9.20529 10.1676 9.63643 9.95677 9.1109Z" fill="#4AB748"/>
</svg>
