<!-- by TradingView --><svg width="18" height="18" viewBox="0 0 18 18" xmlns="http://www.w3.org/2000/svg"><path fill="#F0F3FA" d="M0 0h18v18H0z"/><path d="M12.17 8.92c.02.02.02.04 0 .05-.83.52-1.56 1.13-2.19 1.84-.02.02-.04.02-.06 0l-.66-.79c-.02-.02-.02-.04 0-.05a5.92 5.92 0 0 1 1.98-1.23c.02-.01.03-.02 0-.03l-.77-.57h-.06L7.98 10.2v.05c.61.47 1.21 1.2 1.81 2.2.02.03.03.03.05 0 .36-.77.91-1.46 1.67-2.07a8.59 8.59 0 0 1 2.47-1.37c.03-.01.03-.02 0-.03a8.1 8.1 0 0 1-2.46-1.7A8.55 8.55 0 0 1 9 3.04c-.12.85-.26 1.49-.4 1.9a.15.15 0 0 0 0 .12c.07.19.16.36.27.53.25.36.54.72.86 1.08.72.8 1.54 1.56 2.44 2.25ZM6 7.62v-2.6C6 5.01 6 5 6.02 5h2.12l.03-.01.37-.95C8.55 4 8.54 4 8.5 4H5.03c-.02 0-.03.01-.03.03v4.03c0 .03.02.04.05.02l.93-.43.02-.02ZM10.12 5l-.28-.96c0-.02 0-.03.02-.03h3.11C13 4 13 4 13 4.02v3.82c0 .02-.01.03-.04.01l-.95-.52V5.02l-.03-.01h-1.84l-.02-.02ZM5.84 9.01a10.2 10.2 0 0 0 2.18-1.84c.02-.02.04-.02.05 0l.67.79v.06a5.9 5.9 0 0 1-1.97 1.23c-.03 0-.03.02 0 .04l.77.56h.05L10 7.79c.03-.02.03-.04 0-.06-.15-.11-.3-.24-.42-.37-.42-.42-.88-1.03-1.38-1.81-.02-.03-.03-.03-.05 0A5.85 5.85 0 0 1 6.5 7.61 8.64 8.64 0 0 1 4 9.01c.26.1.52.22.77.38.6.36 1.17.8 1.71 1.32a8.55 8.55 0 0 1 2.48 4.22c.02.1.04.1.05 0a8.29 8.29 0 0 1 .4-1.98c-.17-.4-.5-.9-1.01-1.49a18.6 18.6 0 0 0-2.57-2.4c-.02-.02-.02-.03 0-.05ZM12 12.97v-2.61l.01-.03.94-.43c.03-.02.05-.01.05.02l-.01 4.05c0 .02-.01.03-.03.03H9.58c-.03 0-.04-.01-.03-.04l.34-.95.02-.01h2.06c.02 0 .03 0 .03-.03Zm-3.52 1-.35-.96H6.03C6 13 6 12.98 6 12.97V10.55l-.96-.5c-.03-.01-.04 0-.04.02v3.9c0 .02.01.03.03.03h3.42c.03 0 .04-.01.03-.03Z" fill="#626162"/></svg>