<!-- by TradingView --><svg width="18" height="18" viewBox="0 0 18 18" xmlns="http://www.w3.org/2000/svg"><path fill="#F0F3FA" d="M0 0h18v18H0z"/><path d="M9.8 3.6c-.02.01-.02.08.01.18.01.02 0 .04-.01.06-.2.16-.34.29-.42.37a77.9 77.9 0 0 1-1.22 1.26L5.53 8.05c-.24.25-.57.64-.45 1.03.1.3.3.57.52.82.38.42.84.9 1.38 1.47.65.68 1.48 1.61 2.07 2.18.27.26.49.48.65.67.07.08.07.14.06.24-.08.15-.23.3-.45.44-.24.15-.46.13-.67-.05-.27-.23-.47-.4-.7-.64-.83-.9-1.94-2.07-3.33-3.52C4.16 10.22 3.54 9.5 3.02 9A.08.08 0 0 1 3 8.95a.08.08 0 0 1 .03-.06l.13-.12a278.27 278.27 0 0 0 3.02-3.18l2.29-2.31c.19-.19.46-.38.71-.22.25.14.46.32.63.53Z" fill="#CAD0D3"/><path d="M9.8 3.6c.37.34.72.7 1.07 1.06 1.32 1.39 2.65 2.74 3.96 4.13L15 9c.01.02.01.04 0 .07a.31.31 0 0 1-.08.15c-.62.61-1.31 1.32-2.1 2.14-.13.14-.33.31-.5.48-.53.56-1 1.04-1.4 1.44l-1.15 1.18c0-.1 0-.16-.06-.24a8.2 8.2 0 0 0-.64-.67c-.6-.57-1.43-1.5-2.08-2.18-.54-.56-1-1.05-1.38-1.47a2.4 2.4 0 0 1-.52-.82c-.12-.39.2-.78.45-1.03l2.63-2.58c.15-.14.56-.57 1.22-1.26l.42-.37a.05.05 0 0 0 .01-.06c-.03-.1-.03-.17 0-.19Zm.09 10.14a.89.89 0 0 0 .09-.37c.01-1.05.03-1.85.05-2.4 0-.11.05-.19.14-.23l1.96-1.02a.34.34 0 0 0 .17-.24l.02-.09c0-.07-.02-.09-.09-.05l-1.98.93c-.11.05-.16.01-.14-.11l.07-.34a.43.43 0 0 1 .2-.3c.37-.21.63-.4.77-.53.1-.11.3-.46.5-.51a18.1 18.1 0 0 0 .88-.24.14.14 0 0 0 .02-.18c-.1-.16-.56-.06-.84-.02a.05.05 0 0 1-.04-.02.05.05 0 0 1-.01-.04c.04-.35-.06-.69-.31-1-.67-.83-1.72-.98-2.83-1.22h-.1a.24.24 0 0 0-.08.03.2.2 0 0 0-.06.05.16.16 0 0 0-.03.07v.01c-.05.13-.01.2.12.24.3.08.6.14.9.2.77.13 1.58.55 1.92 1.33.1.24.02.47-.25.5-.28.05-.78.04-1.1.2a.08.08 0 0 0-.04.04c-.1.32-.07.56-.06.95a.18.18 0 0 1-.09.16l-.37.19c-.06.03-.1.01-.08-.06a30.83 30.83 0 0 1 .29-2.97c.01-.18-.06-.25-.21-.22h-.05c-.17 0-.25.09-.26.28a66.58 66.58 0 0 1-.19 3.03c0 .04-.02.1-.05.19a.35.35 0 0 0-.01.2l.05.24c.04.58.05 1.05.17 1.45.01.05.05.07.09.09.03.01.04 0 .05-.03.04-.51.06-1.08.05-1.7 0-.05 0-.1.04-.17a.1.1 0 0 1 .06-.05l.4-.11c.03-.01.05 0 .05.03 0 .23-.04.41-.15.56a.21.21 0 0 0-.04.16c.13.81.06 1.81.07 2.5 0 .17.04.63.27.62.03 0 .05 0 .06-.03Z" fill="#F78A42"/><path d="M10.3 9.19a.33.33 0 0 0-.05.01c-.03.01-.04 0-.04-.02-.09-.5.34-.51.68-.58a.04.04 0 0 1 .04.01.04.04 0 0 1 0 .05.96.96 0 0 1-.63.53Z" fill="#F78A42"/></svg>