<!-- by TradingView --><svg width="18" height="18" viewBox="0 0 18 18" xmlns="http://www.w3.org/2000/svg"><path fill="#F0F3FA" d="M0 0h18v18H0z"/><path d="M12.97 4.74A10.1 10.1 0 0 0 9.01 4H9A11.15 11.15 0 0 0 5 4.75s.05 3.1.09 4.62c.01.45.1.9.24 1.32a5.5 5.5 0 0 0 3.15 3.36l.27.1c.08.04.16.06.25.09l.25-.08.27-.11a4.83 4.83 0 0 0 1.38-.81 5.5 5.5 0 0 0 2.01-3.87c.04-1.53.09-4.62.09-4.62h-.03Z" fill="url(#a5plim1rh)"/><path d="M8.9 12.6H6.63a5.51 5.51 0 0 0 1.87 1.3c.1.04.18.08.26.1l.14.06V12.6Zm0-1.69a1.67 1.67 0 0 1-.97-.43H5.42l.05.17c.1.26.21.53.35.78H8.9v-.52Zm3.88-2.59h-2.21V9.3h2.2l.01-.97Zm.04-2.03H9.04v.94h3.76l.02-.94Z" fill="#B12B28"/><path d="M11.97 12.06a5.5 5.5 0 0 1-2.46 1.99c-.1.04-.18.08-.26.1-.08.04-.17.06-.25.08a1.98 1.98 0 0 1-.25-.07l-.27-.11a4.81 4.81 0 0 1-1.38-.81c-.34-.29-.65-.6-.92-.96l.01.01a5.57 5.57 0 0 0 2.56 1.92l.25.08.25-.08.26-.11a4.83 4.83 0 0 0 1.38-.81 5.5 5.5 0 0 0 1.9-2.98l-.13.38c-.17.48-.4.94-.69 1.37ZM8.15 5.34c.26-.03.5-.04.75-.04v-.06a10.49 10.49 0 0 0-3.72.72h-.01v.06a9.98 9.98 0 0 1 2.98-.68Z" fill="#613E18"/><path d="M11.73 11.1v.03c0 .01 0 .02-.02.02a.52.52 0 0 0-.25.14v-.01c0-.02 0-.03.02-.04.06-.06.15-.1.24-.12v-.01Zm-.44-.25a.5.5 0 0 0-.2.14.32.32 0 0 0-.07.13v.02a.37.37 0 0 1 .08-.11c.05-.06.11-.1.18-.14h.01v-.05.01Zm-.46-.1a.64.64 0 0 0-.24.25.39.39 0 0 0-.04.17v.02a.53.53 0 0 1 .27-.4c.02-.02.02-.04.02-.07a.03.03 0 0 1-.01.03Zm-.61.13a.48.48 0 0 0-.16.42.55.55 0 0 1 .15-.38c.01-.02.02-.04.01-.06a.01.01 0 0 1 0 .02Zm-.97.8v-.01a.2.2 0 0 1-.07-.13.17.17 0 0 0 .05.15l.02-.01Zm2.02-1.95a.4.4 0 0 0-.15.12.38.38 0 0 0-.1.16v.02l.1-.14c.04-.05.1-.1.15-.12.02 0 .02-.03.02-.06l-.02.02Zm.6.1a.47.47 0 0 0-.2.09.44.44 0 0 0-.13.15v.02l.12-.13a.48.48 0 0 1 .21-.1l.02-.01v-.03h-.01Zm.46.3a.4.4 0 0 0-.24.09.36.36 0 0 0-.05.04l-.01.02h.01a.4.4 0 0 1 .04-.02.42.42 0 0 1 .24-.1l.01-.04Zm-2.68.76v.01a.1.1 0 0 1-.08.1.15.15 0 0 1-.16-.04.13.13 0 0 1-.13.05.15.15 0 0 1-.1-.07v-.04h-.01l-.13.01v.04l.13-.01.01.04c.03.03.06.06.1.07A.14.14 0 0 0 9.4 11a.16.16 0 0 0 .16.03.1.1 0 0 0 .08-.09v-.05Zm.12 1.16a.2.2 0 0 1-.2 0 .24.24 0 0 1-.06-.07H9.5a.2.2 0 0 1-.15.04.2.2 0 0 1-.15-.08.22.22 0 0 1-.04-.12.24.24 0 0 0 .1.21c.03.02.05.03.08.03a.21.21 0 0 0 .16-.05l.07.07a.19.19 0 0 0 .19 0 .23.23 0 0 0 .1-.18.18.18 0 0 1-.1.15Zm1.4.28a.6.6 0 0 0-.14.06c-.05.05-.1.1-.12.17v.01c.03-.06.07-.1.12-.15a.6.6 0 0 1 .13-.06v-.04.01Zm-.33-.19v.01a.45.45 0 0 0-.3.24v.01h.01c.06-.1.16-.18.28-.21l.01-.05Zm-.55-.04c-.06.05-.1.11-.14.17a.27.27 0 0 0-.03.18c0-.05.01-.1.04-.14a.8.8 0 0 1 .13-.17v-.05.01Zm-.48.2a.26.26 0 0 0-.07.23.25.25 0 0 1 .07-.2v-.05.01Zm-.25.47.01-.01v-.01a.49.49 0 0 1-.06-.21l.01.12.04.1Zm.24.46a.14.14 0 0 1-.14.03.23.23 0 0 1-.11-.08h-.01a.26.26 0 0 1-.16.13.16.16 0 0 1-.12-.04.14.14 0 0 1-.05-.1c0 .1.02.12.05.14a.17.17 0 0 0 .13.04.26.26 0 0 0 .15-.14h.02c.02.04.06.07.1.09a.14.14 0 0 0 .15-.03.2.2 0 0 0 .05-.15c0 .04-.03.08-.06.11Zm-.51-.2L9.3 13a.16.16 0 0 1-.12-.15.18.18 0 0 0 .1.17Zm-3.9-6.27v-.01a.17.17 0 0 1-.02-.07c0 .03 0 .06.02.08Zm.12 2.12v-.02a.38.38 0 0 1-.04-.07.12.12 0 0 1 0-.05v.1l.04.04Zm.56.17a.13.13 0 0 1-.08.11.18.18 0 0 1-.15.03.22.22 0 0 1-.1-.06h-.02a.7.7 0 0 1-.1.06.15.15 0 0 1-.2-.05.17.17 0 0 1-.03-.1c0 .05.01.1.04.13a.16.16 0 0 0 .19.06.7.7 0 0 0 .1-.05c.01-.01.02-.03.03-.01.02.02.06.05.1.06A.18.18 0 0 0 6 9.2a.12.12 0 0 0 .07-.14Zm-.15-1.04a.15.15 0 0 1-.08.12.16.16 0 0 1-.22-.05h-.03a.27.27 0 0 1-.16.04.14.14 0 0 1-.13-.09.13.13 0 0 1 0-.05v.08a.15.15 0 0 0 .13.1c.06 0 .11-.02.16-.05a.02.02 0 0 1 .03 0 .17.17 0 0 0 .22.07c.06-.03.08-.07.08-.17Zm-.5-.2v-.02a.14.14 0 0 1-.03-.1c0 .04 0 .08.03.12Zm.8.26a.47.47 0 0 0-.12.21.5.5 0 0 0 0 .18v-.13a.46.46 0 0 1 .12-.21v-.05Zm.5-.16a.43.43 0 0 0-.2.44.42.42 0 0 1 .2-.4V7.9Zm.25.3.02.02H7a.82.82 0 0 1 .29-.36V7.8a.02.02 0 0 1 0 .01.81.81 0 0 0-.32.4Zm-.72-1.13a.28.28 0 0 0-.1.1.4.4 0 0 0-.06.3c0-.08.02-.17.07-.25a.25.25 0 0 1 .1-.1v-.05h-.01Zm.53-.14a.44.44 0 0 0-.14.13.55.55 0 0 0-.1.22.03.03 0 0 0 .01.02.6.6 0 0 1 .24-.33l.01-.03v-.03l-.01.02Zm.64-.02A.48.48 0 0 0 7.2 7a.31.31 0 0 0-.15.2.02.02 0 0 0 .02.03.35.35 0 0 1 .14-.18.46.46 0 0 1 .21-.08l.01-.03v-.03a.02.02 0 0 1 0 .01h-.01Zm.26.3h.02a.68.68 0 0 1 .25-.1v-.06a.73.73 0 0 0-.3.14c-.02.01-.03.02-.01.02h.04Zm-1.3-1.3c-.07.05-.15.12-.21.2a.5.5 0 0 0-.07.28c.01-.08.04-.16.08-.23.06-.08.13-.15.21-.2V5.9v.02Zm.7-.16c-.07.05-.14.1-.2.17a.43.43 0 0 0-.12.25v.01h.01a.52.52 0 0 1 .11-.2c.06-.07.13-.12.2-.17v-.06Zm.72-.04c-.1.03-.2.09-.29.16a.43.43 0 0 0-.11.22h.01a.45.45 0 0 1 .1-.17.85.85 0 0 1 .3-.16V5.7a.02.02 0 0 1 0 .02Zm.6.28c-.08 0-.17.01-.25.03a.36.36 0 0 0-.15.1.01.01 0 0 0 .01 0l.03.01a.34.34 0 0 1 .1-.06c.1-.02.18-.02.27-.02l.01-.02V6h-.01Zm-2.47.95c-.02.07-.04.07-.09.1a.2.2 0 0 1-.15.04.19.19 0 0 1-.09-.06.01.01 0 0 0-.01 0 .49.49 0 0 1-.1.05.15.15 0 0 1-.2-.08v-.02l-.01-.02c0 .03 0 .07.02.1a.18.18 0 0 0 .2.07.73.73 0 0 0 .1-.06c.03.03.06.06.1.07.05.01.1 0 .15-.03a.17.17 0 0 0 .08-.17v.01Zm2.43-.38a.04.04 0 0 1-.03.02.02.02 0 0 1-.02 0 1 1 0 0 0-.62-.24 4.16 4.16 0 0 0-1.8.48l.02.02A4.15 4.15 0 0 1 7.7 6.4a1 1 0 0 1 .63.24h.01c.02 0 .02-.01.02-.02l.01-.11-.01.06Zm-.91.97a.77.77 0 0 0-.2-.04 2.84 2.84 0 0 0-1.36.4l.01.03h.02c.4-.24.87-.37 1.34-.38a.68.68 0 0 1 .2.04v-.05h-.01Zm0 .94h-.01c-.25 0-.5.02-.73.1-.24.07-.48.17-.7.3-.02.01-.02.01 0 .03v.01c.23-.13.46-.23.7-.3.24-.07.49-.1.73-.1h.02v-.04Zm2.49 2.13c-.1.07-.2.13-.32.17l.02.03c.1-.04.2-.1.3-.16.17-.04.8-.27 1.2-.28.24 0 .48.05.7.17.1.06.2.14.29.24l.01.01h.01a.51.51 0 0 0 .04-.21l-.03.16a.02.02 0 0 1-.02.01l-.01-.02c-.09-.09-.18-.17-.3-.23a1.41 1.41 0 0 0-.69-.17c-.4 0-1.03.23-1.19.27h-.01v.01Zm1.67 1.15a.07.07 0 0 1-.05 0 1.2 1.2 0 0 0-.17-.16.65.65 0 0 0-.27-.14c-.15-.03-.3-.03-.46 0-.3.03-.58.13-.84.28-.01 0-.02.01-.01.02l.01.01c.26-.14.54-.24.84-.28.15-.02.3-.02.46.01.1.02.19.07.27.13.06.06.12.11.17.18.02 0 .04 0 .05-.02a.27.27 0 0 0 .03-.1l-.03.07Zm-.63 1.11h-.02a.66.66 0 0 0-.15-.12.77.77 0 0 0-.44-.07c-.22.04-.42.13-.6.27v.03c.18-.14.39-.23.6-.26.16-.02.31 0 .45.07l.14.11a.03.03 0 0 0 .03 0 .16.16 0 0 0 .05-.13c0 .04-.03.07-.06.1Z" fill="#432918"/><path d="m10.36 10.18.04-.01.22-.05.01-.02c.03-.1.07-.2.13-.3a.36.36 0 0 1 .2-.13.36.36 0 0 1 .32.03.02.02 0 0 1 0 .04.38.38 0 0 0-.16.12.39.39 0 0 0-.09.16v.02h.18a.6.6 0 0 1 .19-.3.36.36 0 0 1 .33-.05.23.23 0 0 1 .16.13v.01a.48.48 0 0 0-.22.1.43.43 0 0 0-.13.14l.01.02.16.05h.02a.41.41 0 0 1 .26-.18c.16-.03.32.04.34.15v.03a.42.42 0 0 0-.24.1.3.3 0 0 0-.05.03v.01c.03.04.15.13.16.25 0 .07 0 .15-.04.22h-.03a1.2 1.2 0 0 0-.29-.25 1.4 1.4 0 0 0-.7-.16c-.39 0-1.03.23-1.19.27l.41-.43Zm1.02.8a.4.4 0 0 0-.2.17v.01l-.15-.01c-.02 0-.01-.02-.01-.02.02-.05.04-.1.08-.14a.5.5 0 0 1 .2-.14.27.27 0 0 0-.2-.1.35.35 0 0 0-.26.1.53.53 0 0 0-.15.32l-.01.01a.87.87 0 0 1-.12.01v-.01c0-.07 0-.12.04-.18.05-.1.13-.19.23-.25.02 0 .02-.03.01-.03a.39.39 0 0 0-.37.03.4.4 0 0 0-.16.18c-.05.1-.07.22-.08.33a.03.03 0 0 1-.01.02 1.22 1.22 0 0 0-.15.03.47.47 0 0 1 .15-.43.02.02 0 0 0 0-.02.42.42 0 0 0-.42.16.38.38 0 0 0-.06.17c0 .08 0 .17.02.25v.01l-.16.08a.25.25 0 0 0-.12-.16.23.23 0 0 0-.2.01.23.23 0 0 0-.09.1.16.16 0 0 0 .06.2c-.04.02-.04.03-.07.07a.18.18 0 0 0 .02.2.2.2 0 0 0 .15.08.2.2 0 0 0 .15-.05h.01l.06.07a.2.2 0 0 0 .2 0 .18.18 0 0 0 .09-.18.16.16 0 0 0-.05-.1c0-.01 0-.02.02-.03.25-.14.54-.24.83-.28.16-.02.31-.02.46 0 .1.03.2.08.27.14.07.05.12.11.18.17h.05a.28.28 0 0 0 0-.23.68.68 0 0 0-.16-.25c0-.02 0-.03.02-.04.07-.06.15-.1.24-.13.01 0 .02 0 0-.02a.28.28 0 0 0-.34-.13ZM13 4.75s-.05 3.08-.09 4.61c-.01.45-.1.9-.24 1.33-.18.48-.41.94-.7 1.37a5.5 5.5 0 0 1-2.45 1.98l-.27.11-.25.08a1.98 1.98 0 0 1-.25-.08l-.27-.1a4.78 4.78 0 0 1-1.38-.81A5.5 5.5 0 0 1 5.1 9.36C5.05 7.84 5 4.76 5 4.76l.03-.01a10.08 10.08 0 0 1 3.08-.7C8.41 4.01 8.7 4 9 4H9a11.22 11.22 0 0 1 3.99.76Zm-7.61 5.62h2.43a1.34 1.34 0 0 1-.36-.9v-.04H5.24c.02.32.07.63.15.94ZM8.9 12.6H6.63a5.48 5.48 0 0 0 1.87 1.3c.1.04.18.08.26.1l.14.06V12.6Zm0-1.05H5.88a7 7 0 0 0 .65.93H8.9v-.93Zm0-.64a1.67 1.67 0 0 1-.97-.42h-2.5a4.52 4.52 0 0 0 .39.94H8.9v-.52Zm0-5.65a10.05 10.05 0 0 0-2.5.32 9.62 9.62 0 0 0-1.23.4l.07 3.34h2.22V8.5h-.02c-.24 0-.49.02-.72.1-.25.07-.49.17-.71.3-.02.01-.02 0 0 .02l.06.12a.13.13 0 0 1-.07.14.18.18 0 0 1-.15.03.23.23 0 0 1-.1-.07c-.01 0-.02 0-.03.02a.7.7 0 0 1-.1.05.16.16 0 0 1-.2-.06.17.17 0 0 1 .01-.2c.02-.02.06-.03.08-.06v-.02a.38.38 0 0 1-.03-.06.17.17 0 0 1 .05-.18.18.18 0 0 1 .18-.02c.04.02.07.07.09.1l.02.01.06-.03v-.03c-.08-.18-.1-.3-.02-.43a.32.32 0 0 1 .2-.17.23.23 0 0 1 .16.02v.01a.47.47 0 0 0-.11.21.44.44 0 0 0 0 .2c.01.02.02.03.03.02l.13-.04v-.03a.55.55 0 0 1 .02-.34.41.41 0 0 1 .39-.23c.03 0 .06.03.04.05a.43.43 0 0 0-.2.44.01.01 0 0 0 .01 0c.06 0 .11-.02.17-.04v-.03a.6.6 0 0 1 .14-.37.46.46 0 0 1 .38-.16l.07.04a.02.02 0 0 1 0 .03.8.8 0 0 0-.31.4h.01l.25-.02.02-.01a.43.43 0 0 1 .2-.25v-.4h-.01a.76.76 0 0 0-.2-.05 2.83 2.83 0 0 0-1.36.4c.06.12.02.2-.04.24a.17.17 0 0 1-.23-.05.02.02 0 0 0-.03 0 .27.27 0 0 1-.15.04.14.14 0 0 1-.13-.09.18.18 0 0 1 .12-.23V7.8a.15.15 0 0 1 .03-.22.17.17 0 0 1 .24.1h.02l.07-.03c.02 0 .03-.05.03-.06 0-.2 0-.33.13-.46.06-.06.26-.1.3-.04a.28.28 0 0 0-.1.11.4.4 0 0 0-.06.29v.02l.18-.07v-.02c-.01-.14.03-.27.11-.39.1-.1.31-.2.42-.1l-.01.03a.43.43 0 0 0-.15.12.56.56 0 0 0-.1.22l.02.03c.05 0 .14-.02.19-.04.02 0 .01-.01.02-.04a.45.45 0 0 1 .4-.4c.08-.02.15-.01.22.03.02 0 .03.02.04.04a.02.02 0 0 1 0 .02.47.47 0 0 0-.23.08.32.32 0 0 0-.14.2l.01.03a2.91 2.91 0 0 0 .22-.02.42.42 0 0 1 .48-.27c.07.02.13.05.18.1.02.02.01.03 0 .03a.73.73 0 0 0-.3.13c-.01.01-.03.02 0 .02H8.9V5.26Zm1.04 5.35c-.1.07-.2.13-.32.18l.02.03c.01.03.02.06.01.09a.1.1 0 0 1-.07.1.16.16 0 0 1-.17-.04.13.13 0 0 1-.18.02.14.14 0 0 1-.04-.04l-.01-.04h-.14v3.17l.2-.07.26-.1a6.24 6.24 0 0 0 1.33-.8 5.32 5.32 0 0 0 1.7-2.46c.14-.4.21-.82.23-1.24h-2.2v.07a1.4 1.4 0 0 1-.62 1.13Zm2.84-2.29h-2.21V9.3h2.2l.01-.97Zm.02-.95h-2.23V8.19h2.22l.01-.82Zm.02-1.07H9.04v.93h3.77l.01-.94Zm0-.32a9.61 9.61 0 0 0-2.97-.68c-.28-.03-.53-.03-.81-.04v.91h3.79v-.19Zm.03-1.1h-.03a9.64 9.64 0 0 0-2.97-.68c-.29-.03-.55-.04-.84-.04H9a10.62 10.62 0 0 0-3.81.72h-.03l.02.98a9.66 9.66 0 0 1 2.98-.69c.29-.02.55-.04.84-.04H9c.3 0 .55.02.84.04a9.66 9.66 0 0 1 2.98.69l.02-.97Zm-2.06 7.37a.46.46 0 0 0-.14.17l-.01.02-.1-.03v-.01a.48.48 0 0 1 .3-.24v-.02c-.04-.11-.28-.1-.4-.03a.5.5 0 0 0-.2.3v.02a.53.53 0 0 1-.1.03h-.01v-.01c-.01-.06 0-.12.02-.17a.85.85 0 0 1 .15-.18v-.02a.21.21 0 0 0-.23 0 .42.42 0 0 0-.2.24.46.46 0 0 0 0 .24v.01l-.09.04a.27.27 0 0 1 .03-.31v-.02a.25.25 0 0 0-.23.08.29.29 0 0 0-.05.28c0 .04.02.08.04.11v.01c-.02.02-.03.04-.06.05a.2.2 0 0 0-.13-.1.15.15 0 0 0-.18.1.15.15 0 0 0 .1.2h.01a.25.25 0 0 0-.08.1.16.16 0 0 0 .03.17.16.16 0 0 0 .13.04.26.26 0 0 0 .15-.14h.01c.03.04.07.07.12.09a.14.14 0 0 0 .14-.03.15.15 0 0 0 .04-.17.26.26 0 0 0-.08-.1v-.02c.18-.14.39-.23.6-.26.16-.02.3 0 .44.07.06.03.1.07.15.11h.03a.17.17 0 0 0 .01-.23.28.28 0 0 0-.09-.07.39.39 0 0 1 .13-.17.59.59 0 0 1 .12-.06v-.02c-.05-.13-.26-.13-.37-.07ZM8.2 5.83a.26.26 0 0 1 .23.17V6c-.1 0-.18 0-.27.02a.41.41 0 0 0-.14.1v.01c.1.02.2.08.27.15a.28.28 0 0 1 .08.29.04.04 0 0 1-.02.02.03.03 0 0 1-.03-.01.89.89 0 0 0-.3-.18.88.88 0 0 0-.32-.06 4.15 4.15 0 0 0-1.8.48.17.17 0 0 1 .04.13c-.02.06-.03.07-.08.1a.17.17 0 0 1-.25-.03.52.52 0 0 1-.11.05.15.15 0 0 1-.19-.06.19.19 0 0 1 .09-.25.01.01 0 0 0 0-.01.15.15 0 0 1 .06-.22c.07-.04.22-.06.26.07a.01.01 0 0 0 .01 0 .76.76 0 0 0 .1-.03l.01-.04a.6.6 0 0 1 .09-.48c.14-.16.3-.23.48-.16v.02c-.08.07-.17.12-.22.2a.5.5 0 0 0-.08.28h.02l.3-.1h.02l.01-.18a.48.48 0 0 1 .46-.4c.06 0 .12 0 .17.03v.02c-.07.05-.14.1-.2.17a.42.42 0 0 0-.11.25 2.6 2.6 0 0 1 .3-.05v-.01c.02-.1.1-.34.22-.42a.53.53 0 0 1 .44-.08c.04.01.07.04.09.07l-.01.02c-.11.04-.21.1-.3.17a.4.4 0 0 0-.1.22h.01a5.2 5.2 0 0 1 .27 0c.04-.1.12-.19.21-.24.1-.04.2-.05.3-.04Z" fill="url(#b5plim1rh)"/><path d="M11.73 4.6a9.15 9.15 0 0 1 .94.33v.13c0 .02-.01.02-.03.02a7.55 7.55 0 0 0-.7-.22v.08a9.2 9.2 0 0 1 .72.24v.2s0 .01 0 0a9.37 9.37 0 0 0-.73-.22v.08a7.12 7.12 0 0 1 .73.25v.18s0 .02-.02.01a9.55 9.55 0 0 0-.93-.31l.02-.76Zm-1.07.56.2.04v-.28l.01-.01.47.1h.03v.27a.02.02 0 0 0 0 .02l.18.04h.02l.02-.77-.2-.05-.01.01-.01.28-.49-.09V4.42h-.01a8.62 8.62 0 0 0-.19-.02l-.02.75v.01Zm-.82-.87a.17.17 0 0 0-.17.14v.5a.13.13 0 0 0 .1.13c.26.02.51.05.8.1l.02-.02V4.96h-.02l-.67-.09a.03.03 0 0 1-.03-.03V4.5c0-.02.02-.03.04-.03l.67.09.02-.01v-.16a.02.02 0 0 0 0-.02l-.76-.08Zm-.34-.03a9.7 9.7 0 0 0-.77 0c-.06 0-.13.04-.13.1v.27c0 .05.07.1.13.1l.56.01c.02 0 .03.01.03.03v.05a.02.02 0 0 1-.02.02h-.68l-.01.02-.01.16v.02a7 7 0 0 1 .8 0 .14.14 0 0 0 .13-.12v-.26c0-.06-.07-.1-.11-.1l-.6-.01a.02.02 0 0 1-.01-.02v-.07l.02-.01h.67a.03.03 0 0 0 .02-.02v-.14l-.02-.03m-1.14.5a.13.13 0 0 0 .08-.14v-.24a.14.14 0 0 0-.13-.1c-.18 0-.58.05-.8.08v.77l.2-.02v-.23l.41-.04c.04 0 .08.02.11.07s.04.1.05.15l.2-.02h.01c0-.11-.05-.21-.13-.29Zm-.14-.17a.07.07 0 0 1-.06.07l-.45.05v-.18l.47-.05a.03.03 0 0 1 .04.03v.08Zm-.7-.23Zm-.13.16a.12.12 0 0 0-.05-.09.13.13 0 0 0-.1-.03c-.23.03-.46.08-.7.13a.21.21 0 0 0-.1.06.14.14 0 0 0-.04.1v.47c0 .04.02.08.05.11a.1.1 0 0 0 .09.05l.7-.14a.21.21 0 0 0 .11-.07.15.15 0 0 0 .04-.1v-.5Zm-.23.44a.05.05 0 0 1-.02.04.12.12 0 0 1-.05.02l-.43.09a.04.04 0 0 1-.04-.01.06.06 0 0 1-.01-.04v-.31c0-.02 0-.03.02-.05a.1.1 0 0 1 .05-.02c.12-.02.29-.06.41-.07h.05a.05.05 0 0 1 .02.05v.3Zm-.84-.21a.12.12 0 0 0-.05-.09.16.16 0 0 0-.12-.02c-.28.07-.56.17-.84.27a.03.03 0 0 0-.01.03v.76l.24-.09.01-.01v-.24l.7-.21.06-.05a.1.1 0 0 0 .02-.06v-.3Zm-.22.23c0 .02-.03.04-.05.04l-.5.17h-.02v-.16l.02-.01c.16-.07.34-.13.51-.18.02 0 .03.02.03.03v.1Z" fill="url(#c5plim1rh)"/><path d="m5.55 5.05-.02.02v-.04l.02-.01c.16-.07.33-.13.5-.18.02 0 .04.02.04.03v.04c0-.01-.01-.03-.03-.03-.17.05-.35.1-.51.17m.78-.01a.1.1 0 0 1-.03.06.13.13 0 0 1-.05.05l-.7.2v.06-.01l.7-.21.05-.05a.1.1 0 0 0 .03-.06v-.04Zm-.78.56v.01l-.25.1v.03l.24-.09V5.6Zm1.59-.98a.07.07 0 0 0-.05-.01l-.41.07a.1.1 0 0 0-.05.03.06.06 0 0 0-.02.04v.04c0-.02 0-.03.02-.04a.1.1 0 0 1 .05-.03l.41-.07h.05a.05.05 0 0 1 .02.05v-.04a.05.05 0 0 0-.02-.05Zm.1.56a16.13 16.13 0 0 0-.75.13.1.1 0 0 1-.04-.04.19.19 0 0 1-.04-.1v-.01.04c0 .04.02.08.04.1.03.04.06.06.09.05l.7-.13a.21.21 0 0 0 .1-.07.15.15 0 0 0 .05-.1v-.04c0 .04-.02.07-.04.1a.21.21 0 0 1-.12.07Zm.94-.7-.47.05v.04l.47-.05a.03.03 0 0 1 .04.03v-.04a.03.03 0 0 0-.04-.03Zm.26.19v-.05a.14.14 0 0 1-.08.14l.03.02a.13.13 0 0 0 .05-.11Zm.04.37-.2.02c0-.05-.02-.1-.05-.15-.03-.05-.07-.08-.1-.07l-.41.04v.04l.4-.04c.04 0 .08.02.11.07s.04.1.05.15l.2-.02h.01v-.04h-.01Zm-.77.07-.2.03v.04l.2-.03V5.1ZM9.5 4.5a.03.03 0 0 0 .02-.03v-.04a.03.03 0 0 1-.02.03c-.2-.01-.48-.02-.67-.01l-.02.01v.04l.02-.01h.67Zm-.77.27.56.01c.02 0 .03.01.03.03v-.04c0-.02-.01-.03-.03-.03h-.56c-.06-.01-.13-.05-.13-.11v.04c0 .05.07.1.13.1Zm.67.27a7 7 0 0 0-.8 0v.04a7 7 0 0 1 .8 0 .14.14 0 0 0 .13-.12v-.04a.14.14 0 0 1-.13.11Zm1.18-.48c-.22-.02-.45-.07-.67-.08-.02 0-.04 0-.04.02v.04c0-.02.02-.03.04-.02.22.01.45.06.67.08h.02v-.05h-.02v.01Zm0 .6c-.3-.05-.55-.07-.82-.1a.13.13 0 0 1-.1-.12v.04a.13.13 0 0 0 .1.12c.27.03.52.05.81.1l.01-.02v-.03Zm.79-.1v-.04L11.34 5a12.37 12.37 0 0 0-.48-.08v.04h.01a13.49 13.49 0 0 1 .5.1Zm-.52.14-.2-.04v.04l.2.03.01-.01v-.03Zm.7.14-.18-.04v-.02.05l.18.05h.02v-.04h-.02Zm1.1-.26a7.54 7.54 0 0 0-.7-.22v.04a7.4 7.4 0 0 1 .71.2v-.03h-.02Zm0 .3a9.37 9.37 0 0 0-.72-.22v.04h.01a9.13 9.13 0 0 1 .72.22v-.04s0 .01 0 0Zm0 .3a9.55 9.55 0 0 0-.94-.31v.05c.32.09.63.19.93.3l.01-.01v-.04.01Z" fill="#432918"/><path d="M12.64 4.99v.06l-.06-.02-.03-.01a9.5 9.5 0 0 0-.46-.15l-.07-.02-.06-.02-.05-.01V4.97h.03l.02.01L12 5l.04.02a8.89 8.89 0 0 1 .53.16l.02.01.04.02v.15l-.05-.02h-.03a8.7 8.7 0 0 0-.57-.19l-.08-.02v.14l.03.02.06.01.06.02h.02l.03.01.24.08.23.08h.01l.02.01.03.01v.14l-.05-.01h-.01l-.01-.01-.42-.14a9.55 9.55 0 0 0-.4-.12v-.3l.02-.42a10.89 10.89 0 0 1 .8.25l.03.02.05.01V5Zm-1.1-.4a1.54 1.54 0 0 0-.12-.03v.19l-.01.07v.04h-.07l-.02-.01h-.02l-.17-.04-.17-.04H10.9l-.04-.02h-.01V4.45h-.04l-.02-.01a1.33 1.33 0 0 0-.08-.01V4.63l-.01.21v.06a7.37 7.37 0 0 1-.01.24l.03.01h.03l.03.01h.06v-.28h.04a11.05 11.05 0 0 1 .44.1h.08v.28l.04.02h.03l.03.01.05.01v-.7Zm-1.43-.25-.26-.03a.15.15 0 0 0-.1.04.13.13 0 0 0-.06.08v.51a.1.1 0 0 0 0 .04l.03.03.05.03h.05l.33.03.35.04.06.01V5l-.07-.01h-.05l-.29-.04-.28-.04h-.02V4.49a.04.04 0 0 1 0-.03l.05-.01.68.08V4.4l-.47-.05Zm-1.67.55c.02.04.03.08.03.13l-.17.01a.53.53 0 0 0-.05-.14.14.14 0 0 0-.13-.08l-.43.05v.23h-.08l-.08.02v-.73l.77-.08c.08 0 .1.05.1.09v.25a.17.17 0 0 1-.07.11c.04.04.08.08.1.14Zm-.19-.38a.05.05 0 0 0-.01-.04.1.1 0 0 0-.06-.02l-.5.05v.22l.24-.02.24-.02a.1.1 0 0 0 .07-.03.09.09 0 0 0 .02-.06V4.5Zm-.9 0v.5a.16.16 0 0 1-.1.13l-.69.14c-.05 0-.12-.06-.12-.11v-.5c0-.05.06-.09.11-.1l.69-.14a.1.1 0 0 1 .11.08Zm-.15.13c0-.04-.02-.07-.09-.06-.08 0-.34.06-.43.07-.08.02-.1.05-.1.1v.32c0 .05.02.08.07.07a51.9 51.9 0 0 0 .53-.12.08.08 0 0 0 .02-.06v-.32Zm2.23-.06a3.9 3.9 0 0 0-.37 0h-.27v-.15l.03-.02h.67V4.3h-.76a.12.12 0 0 0-.06.01.06.06 0 0 0-.03.04v.3a.06.06 0 0 0 .02.04l.07.02h.19a9.42 9.42 0 0 1 .43.03v.08a.1.1 0 0 1 0 .05l-.05.01h-.67v.14a12.21 12.21 0 0 1 .5-.01H9.42a.1.1 0 0 0 .05-.02.07.07 0 0 0 .03-.04v-.28a.07.07 0 0 0-.02-.05.09.09 0 0 0-.05-.03Zm-3.14.17v.29a.07.07 0 0 1-.02.05.1.1 0 0 1-.03.03l-.72.22v.25l-.2.07v-.71l.02-.02.5-.17.31-.1c.03 0 .07 0 .1.02a.1.1 0 0 1 .04.07Zm-.16.22v-.1a.06.06 0 0 0-.04-.05h-.03l-.25.07-.3.11v.22l.55-.18.04-.02a.07.07 0 0 0 .03-.05Zm2.4 2.59v.2c0 .02 0 .05-.02.07a.06.06 0 0 1-.05.02.06.06 0 0 1-.05-.02.11.11 0 0 1-.02-.07v-.2a.03.03 0 0 0-.03-.03.03.03 0 0 0-.02.03v.18c0 .04 0 .08.02.12a.11.11 0 0 0 .1.04.1.1 0 0 0 .1-.04.2.2 0 0 0 .02-.12v-.18a.03.03 0 0 0-.02-.03.03.03 0 0 0-.03.03Zm.27.02a.03.03 0 0 0 .03-.02.03.03 0 0 0-.03-.03h-.15a.03.03 0 0 0-.03.03.03.03 0 0 0 .03.02h.05v.3a.03.03 0 0 0 .04.01l.01-.02v-.29h.05Zm.24 0a.03.03 0 0 0 .03-.02.03.03 0 0 0-.03-.03h-.15a.03.03 0 0 0-.03.03.03.03 0 0 0 .03.02h.05v.3a.03.03 0 0 0 .02.02.03.03 0 0 0 .03-.03v-.29h.05Zm.29.1h-.08c-.03 0-.03.02-.03.03a.02.02 0 0 0 0 .02.02.02 0 0 0 .03 0h.06v.02a.1.1 0 0 1-.08.1.07.07 0 0 1-.06-.04.22.22 0 0 1 0-.2.06.06 0 0 1 .06-.04.07.07 0 0 1 .06.04.02.02 0 0 0 .03.01.02.02 0 0 0 0-.02.1.1 0 0 0-.1-.07.1.1 0 0 0-.09.05.25.25 0 0 0-.03.13c0 .05 0 .1.03.13a.1.1 0 0 0 .1.07l.06-.02a.17.17 0 0 0 .07-.1v-.07c0-.02 0-.04-.03-.04Zm.88-.1h.02a.03.03 0 0 0-.02-.05h-.15a.03.03 0 1 0 0 .05h.05v.3a.03.03 0 1 0 .05 0v-.3h.05Zm-.31.18a.13.13 0 0 0 .08-.07.1.1 0 0 0 0-.05.12.12 0 0 0-.04-.08.16.16 0 0 0-.09-.03h-.08a.03.03 0 0 0-.02.01v.33a.03.03 0 0 0 0 .03h.02a.03.03 0 0 0 .03-.03v-.1h.05l.08.11a.03.03 0 0 0 .02.01c.02 0 .03 0 .03-.02l-.01-.02-.07-.09Zm-.1-.04v-.14h.06a.08.08 0 0 1 .07.04v.03a.08.08 0 0 1-.08.07H9.8Zm-.22-.16a.05.05 0 0 0-.04-.03.04.04 0 0 0-.03.03l-.1.3a.02.02 0 0 0 0 .03.03.03 0 0 0 .02.01c.01 0 .03 0 .03-.02l.02-.05h.14l.01.05a.03.03 0 0 0 .03.02.03.03 0 0 0 .02 0 .03.03 0 0 0 0-.04l-.1-.3Zm.02.23h-.11l.06-.2.06.2H9.6ZM8.03 7.7a.26.26 0 0 0-.12-.03.05.05 0 0 1-.04-.06.06.06 0 0 1 .07-.04.09.09 0 0 1 .07.03c.01.02.04 0 .04-.02 0-.01-.03-.06-.1-.06-.04 0-.06 0-.09.02a.1.1 0 0 0-.04.07.1.1 0 0 0 .03.09.1.1 0 0 0 .07.03.1.1 0 0 1 .09.04.04.04 0 0 1-.01.05.1.1 0 0 1-.07.02.1.1 0 0 1-.06-.03.04.04 0 0 0-.04-.01c-.02 0-.02.03-.01.03a.13.13 0 0 0 .1.06.14.14 0 0 0 .11-.03.1.1 0 0 0 .03-.08.09.09 0 0 0-.03-.08Zm.24-.13a.03.03 0 0 0 .02-.02.03.03 0 0 0-.02-.03H8.1a.03.03 0 1 0 0 .05h.05v.3a.03.03 0 0 0 .03.02.03.03 0 0 0 .03-.02v-.3h.05ZM6.1 6.18c.04-.1.1-.17.19-.23l.04-.03-.06-.01a.4.4 0 0 0-.22.1.5.5 0 0 0-.16.24.98.98 0 0 0 0 .34l-.18.1a.3.3 0 0 0-.05-.1.14.14 0 0 0-.16-.02.11.11 0 0 0-.06.11c0 .04.02.07.04.1a.25.25 0 0 0-.1.06.15.15 0 0 0-.04.14.1.1 0 0 0 .11.06.32.32 0 0 0 .16-.08l.06.07.08.02.07-.01a.12.12 0 0 0 .06-.12c-.01-.06-.07-.09-.07-.11a3.89 3.89 0 0 1 1.73-.5c.16-.02.31 0 .46.04.13.03.24.1.33.18a.3.3 0 0 0-.17-.26.62.62 0 0 0-.27-.1.54.54 0 0 1 .08-.1.37.37 0 0 1 .2-.1h.18a.14.14 0 0 0-.13-.1.44.44 0 0 0-.21.02.52.52 0 0 0-.28.28h-.39c.02-.1.05-.2.12-.28a.54.54 0 0 1 .26-.17l.04-.02c-.02-.03-.05-.05-.16-.05a.43.43 0 0 0-.34.19c-.07.1-.1.22-.11.34l-.45.1a.7.7 0 0 1 .05-.25c.05-.1.13-.18.22-.23l.05-.03a.18.18 0 0 0-.1-.02.4.4 0 0 0-.4.4v.2c-.16.03-.31.08-.47.14-.01-.1 0-.21.05-.31Zm1.72.88.08-.02a.15.15 0 0 0-.04-.02.31.31 0 0 0-.15-.04c-.06 0-.11.01-.16.03a.44.44 0 0 0-.2.27h-.18L7 7.3v-.1a.42.42 0 0 1 .1-.15.46.46 0 0 1 .26-.15l.02-.01a.2.2 0 0 0-.11-.03.44.44 0 0 0-.44.4v.05l-.13.03-.21.05c0-.08.02-.17.06-.24a.57.57 0 0 1 .2-.22l-.07-.01a.32.32 0 0 0-.3.2.86.86 0 0 0-.05.34c-.06.01-.21.07-.27.1a.56.56 0 0 1 0-.25.39.39 0 0 1 .14-.23h-.08a.32.32 0 0 0-.22.22c-.03.11-.04.23-.03.34a5.4 5.4 0 0 1-.18.08.28.28 0 0 0-.03-.08.11.11 0 0 0-.1-.05l-.06.01a.08.08 0 0 0-.04.05.1.1 0 0 0 0 .08l.04.05.03.03a.31.31 0 0 0-.11.06.12.12 0 0 0-.04.15.1.1 0 0 0 .09.05c.06 0 .12-.03.16-.08a19.57 19.57 0 0 0 .09.11.12.12 0 0 0 .1 0 .12.12 0 0 0 .06-.1.17.17 0 0 0-.04-.11l-.01-.01.09-.05a3.48 3.48 0 0 1 1.35-.38c.06 0 .12.01.19.04v-.27h.1a.49.49 0 0 1 .26-.16Zm-.36.98v.39h-.13a2.85 2.85 0 0 0-1.42.45c.05.03.09.07.1.12.03.07-.02.14-.12.15-.1 0-.11-.08-.14-.11l-.11.1a.15.15 0 0 1-.08.01.11.11 0 0 1-.1-.08.1.1 0 0 1 0-.05.13.13 0 0 1 .06-.09.38.38 0 0 0 .08-.05c0-.02-.06-.06-.07-.1a.13.13 0 0 1 .04-.14.12.12 0 0 1 .13 0c.05.03.08.13.09.14l.16-.12a.63.63 0 0 1-.08-.33c.03-.18.2-.3.3-.26a.42.42 0 0 0-.12.29c0 .08 0 .16.04.23l.27-.1a.58.58 0 0 1-.01-.4.36.36 0 0 1 .32-.19.47.47 0 0 0-.19.53l.3-.1A.55.55 0 0 1 7 7.85c.05-.03.1-.05.16-.06a.2.2 0 0 1 .06.01l-.01.02-.02.01c-.09.07-.17.16-.24.26a.42.42 0 0 0-.04.2l.2-.02.18-.01a.55.55 0 0 1 .06-.11.49.49 0 0 1 .1-.1Zm3.75 1.67a.33.33 0 0 0-.18.14c-.07.1-.1.23-.05.23h.09l.15.01.02-.01.02-.03a.6.6 0 0 1 .21-.3.23.23 0 0 1 .14-.05.24.24 0 0 1 .2.09c.02.02-.08-.03-.24.13a.54.54 0 0 0-.11.18v.01l.27.08a.03.03 0 0 0 .04-.01c.03-.06.08-.1.13-.14a.35.35 0 0 1 .2-.05c.15.02.16.09.17.1l-.05.02c-.1.02-.19.07-.25.15-.01.02.02.05.02.05a.3.3 0 0 1 .15.3c0 .03 0 .04-.02.04a1.04 1.04 0 0 0-.64-.35c-.1-.02-.2-.03-.31-.03-.24 0-.47.04-.7.1l-.32.1-.08.02.05-.04.16-.17.04-.05.06-.02.26-.05a.07.07 0 0 0 .06-.06c0-.1.05-.2.12-.27a.34.34 0 0 1 .25-.16c.12 0 .16.03.14.04Zm-1.88 1.97a.2.2 0 0 1-.07-.14.13.13 0 0 1 .07-.12.19.19 0 0 1 .17.02c.05.04.06.08.08.14.06-.02.15-.06.2-.1l.04-.02v-.02a.64.64 0 0 1-.02-.2c0-.07.03-.14.07-.2.1-.17.27-.15.25-.14a.53.53 0 0 0-.12.25v.16c0 .02 0 .05.02.06l.1-.03.15-.04c.03 0 .02-.02.02-.02 0-.15.04-.3.12-.41a.37.37 0 0 1 .25-.15c.04 0 .1.02.08.03a.64.64 0 0 0-.2.2.48.48 0 0 0-.06.3c.09 0 .17-.02.24-.04a.04.04 0 0 0 .03-.02c.03-.1.06-.27.16-.34.04-.03.1-.06.16-.06.05 0 .17.03.14.05a.5.5 0 0 0-.19.14.33.33 0 0 0-.07.17c0 .03.04.04.04.04l.2.03.03-.03a.47.47 0 0 1 .1-.13c.05-.04.1-.06.16-.06.12 0 .18.08.17.09-.1.03-.2.09-.27.17v.03c.12.09.19.21.2.35 0 .01.02.06 0 .07-.08-.1-.17-.17-.27-.24a.93.93 0 0 0-.45-.1c-.19 0-.38.03-.56.09-.2.06-.4.14-.57.25l.06.08a.13.13 0 0 1-.04.17.12.12 0 0 1-.1.01c-.1 0-.12-.1-.13-.13a.13.13 0 0 1-.06.07.13.13 0 0 1-.2-.03.12.12 0 0 1 .03-.16l.04-.04Zm.3 1.08a.61.61 0 0 1-.03-.1.38.38 0 0 1-.03-.2.2.2 0 0 1 .18-.15.2.2 0 0 0-.05.17c0 .06.02.12.05.17h.02a1.5 1.5 0 0 1 .15-.08.44.44 0 0 1 .04-.34.3.3 0 0 1 .22-.15s.06 0 .06.02a.44.44 0 0 0-.14.18.4.4 0 0 0-.02.22h.01a3.14 3.14 0 0 1 .19-.05c.02-.1.07-.2.15-.27a.39.39 0 0 1 .22-.1c.1 0 .11.04.12.05.01.01-.02 0-.07.02a.46.46 0 0 0-.15.12.3.3 0 0 0-.07.16v.01a1 1 0 0 1 .18.04.64.64 0 0 1 .13-.17.28.28 0 0 1 .18-.07c.04 0 .08.01.11.04l.03.03a.37.37 0 0 0-.18.11c-.07.08-.07.1-.07.12 0 .02 0 .03.02.04.1.07.12.13.12.17.01.04-.02.1-.05.06a.38.38 0 0 0-.18-.13.9.9 0 0 0-.62-.01 1.2 1.2 0 0 0-.5.29c-.01.01.01.02.02.03.13.05.13.14.1.17a.09.09 0 0 1-.1.02c-.1-.06-.09-.11-.13-.1-.03 0-.06.08-.08.1a.1.1 0 0 1-.13.02.1.1 0 0 1-.03-.15.85.85 0 0 1 .08-.06l-.1-.07a.1.1 0 0 1 .01-.15.11.11 0 0 1 .13 0l.03.03a3.61 3.61 0 0 0 .06.06l.12-.1Zm.59-3.53h-.05a.06.06 0 0 1-.03-.02.09.09 0 0 1-.02-.04l.01-.02a.2.2 0 0 0 .06-.06.15.15 0 0 0 .02-.07h-.02l-.04.05a.09.09 0 0 1-.05.01l-.03-.01a.1.1 0 0 1-.02-.04l.02-.02.07-.02.04-.04v-.04l-.03.01a.08.08 0 0 1-.07 0 .17.17 0 0 1-.05-.06v-.01c.03 0 .04-.03.06-.05v-.02l.02-.02V8.7l-.01-.03h-.02l-.01.05a.16.16 0 0 1-.04.04c-.01.01-.02.02-.03.01a.06.06 0 0 1-.03-.04V8.7a.67.67 0 0 1 .07-.1l.06-.08c.01-.01.02-.05 0-.06l-.03.04a.62.62 0 0 0-.16.09.26.26 0 0 0-.04.1l-.01.06h-.03a.14.14 0 0 1-.03-.05v-.05s0-.01 0 0a.1.1 0 0 0-.05.05v.09l.09.13.07.11c.02.03.03.07.03.1a.2.2 0 0 1-.06.1h-.02a1.16 1.16 0 0 0-.09-.07.38.38 0 0 0-.13-.05H9.3l-.15-.01a.16.16 0 0 1-.08-.07.2.2 0 0 1-.02-.11.2.2 0 0 1 .03-.09.14.14 0 0 1 .06-.06.12.12 0 0 1 .08 0c.02 0 .03 0 .04.02.02 0 .03.02.04.03.01-.04 0-.08-.01-.12a.5.5 0 0 0-.05-.08h.02c.03 0 .06 0 .1.02l.03.05h.01a.18.18 0 0 0-.04-.14.15.15 0 0 0-.06-.05l.02-.01h.08l.02.02.01.02.01-.01c0-.02 0-.03-.02-.04a1.14 1.14 0 0 0-.12-.1l-.01-.02a.19.19 0 0 1-.03-.05l-.01-.03v-.03c.01-.02.02-.02.05-.03a.3.3 0 0 1 .06-.02h.02v-.01a.15.15 0 0 0-.09-.03l-.12.01a.22.22 0 0 1-.09.03l-.06-.01a.05.05 0 0 1-.03-.04c0-.02 0-.05.02-.07l.04-.03.02-.02h-.02a.35.35 0 0 0-.1.04.41.41 0 0 0-.07.07h-.01l-.02.01-.08.04-.07.04h-.06c-.04 0-.1 0-.1.05a.02.02 0 0 0 .01.03h.02l.03.02h.01v.01a.02.02 0 0 1-.01.02.1.1 0 0 1-.07-.01.02.02 0 0 0-.03 0 1.69 1.69 0 0 1-.16.12l-.01.03a.02.02 0 0 0-.02.02v.02a.03.03 0 0 0 .03.03h.01a.4.4 0 0 1 .05-.02v.02l-.01.02v.03a.04.04 0 0 0 .06 0l.01-.03.03-.02.06-.02.04.01.01.01v.01l-.01.05-.01.03-.02.03-.01.02-.07.05a.54.54 0 0 0-.08.1l-.02.04c0 .04-.01.08-.05.05a1.02 1.02 0 0 1-.11-.07.15.15 0 0 1-.04-.03c-.03-.05-.07 0-.1.03a1.65 1.65 0 0 1-.13.2l-.03.03a.08.08 0 0 0-.02.06c0 .03 0 .06-.03.1a.09.09 0 0 0-.02.05.9.9 0 0 0 0 .06c0 .01 0 .02.02.02h.01a.32.32 0 0 0 .1-.06.03.03 0 0 0 0-.03h-.01l-.01-.02v-.05a.04.04 0 0 1 .02-.03l.04-.03a.06.06 0 0 0 .01-.07V9.1l.01-.04.03-.03a.1.1 0 0 1 .05-.05.1.1 0 0 1 .09.03c.02.03.04.06.04.1l.04.09a.04.04 0 0 0 .06.01h.01a.02.02 0 0 1 .02 0l.04.04c.02.01 0 .02-.01.02h-.06a.65.65 0 0 1-.2.04.03.03 0 0 0-.02.01l-.01.03v.04c.03.1.03.19.02.28a.11.11 0 0 0 .02.09l.03.02h.01l.02.04c0 .02 0 .04.02.05a.19.19 0 0 0 .07.05.02.02 0 0 0 .03-.01.2.2 0 0 0 .02-.1.03.03 0 0 0-.03-.03H8.3v.01h-.02l-.02-.02v-.13l-.03-.02-.02-.01a.02.02 0 0 1 0-.02v-.13l.01-.04c.03-.03.08 0 .11 0l.13.04c.07 0 .14-.01.2-.05 0-.01 0-.01 0 0 .03 0 .04.02.07.04.05.03.1.06.16.07h.24l.06.01a.01.01 0 0 1 0 .01v.09l.01.04.02.05v.01a.16.16 0 0 1 .01.2.74.74 0 0 1-.1.08.22.22 0 0 1-.1.04.11.11 0 0 0-.08.03.34.34 0 0 1-.09.07v.02a.47.47 0 0 0-.04.1c0 .02.01.02.03.02a.38.38 0 0 0 .1-.03.03.03 0 0 0 0-.03v-.03h-.01v-.01l.02-.02.03-.01h.02a.08.08 0 0 0 .1-.03v-.01a.1.1 0 0 1 .03-.03 1.17 1.17 0 0 1 .25-.13V9.9a.5.5 0 0 1 0-.09c0-.02.01-.06.04-.06a.04.04 0 0 1 .03.02c.02.04.06.06.1.08l.04.01a.1.1 0 0 1 .06.08.07.07 0 0 1-.01.05l-.09.12a.17.17 0 0 1-.05.05.98.98 0 0 0-.09.07.18.18 0 0 0-.05.06 1.3 1.3 0 0 0-.05.13c0 .02.01.03.03.02.04 0 .07-.02.1-.03v-.01l.01-.02v-.03a.04.04 0 0 1-.02-.04l.03-.02c.02 0 .04 0 .07-.02.03 0 .06-.01.08-.04v-.02c.04-.1.1-.18.19-.23a.04.04 0 0 0 .02-.03v-.03l-.07-.1a.2.2 0 0 1-.04-.1.22.22 0 0 1 .04-.12l.05-.05a.54.54 0 0 0 .05-.07.6.6 0 0 0 .04-.1v-.11a.1.1 0 0 1 .05-.04.1.1 0 0 1 .06 0l.1.04a.1.1 0 0 0 .05 0 .1.1 0 0 0 .05-.03v-.02Zm-1.2-.55a.07.07 0 0 1-.07.07c-.01 0-.02-.02-.02-.05V8.48a.52.52 0 0 0-.04-.14l-.02-.02-.01-.02-.03-.02v-.01a.1.1 0 0 1 .1 0 .22.22 0 0 1 .09.16v.25Zm-3.63 1.7h2.43a1.34 1.34 0 0 1-.36-.9v-.04H5.24c.01.31.06.63.15.93Zm3.51 1.16H5.88a6.96 6.96 0 0 0 .64.94H8.9v-.94Zm3.9-4.18h-2.23V8.18h2.22l.01-.82Zm.03-1.38h-.01a9.65 9.65 0 0 0-3.78-.73v.92h3.78v-.2Zm-2.4 1.35H7.58v2.12a1.31 1.31 0 0 0 .47.98c.27.23.61.36.97.37a1.49 1.49 0 0 0 1.36-.95 1 1 0 0 0 .06-.32v-2.2Zm-.06 2.18c0 .1-.02.21-.06.31-.1.3-.31.55-.58.71-.22.13-.46.2-.71.2a1.43 1.43 0 0 1-1.25-.78 1.26 1.26 0 0 1-.13-.52V7.4h2.73v2.11Zm-.82 1.3c-.1.04-.2.07-.3.08l.01.03a.06.06 0 0 0 .05.03c.04 0 .06-.02.09-.07h.02c.02.04.08.07.12.05a.07.07 0 0 0 .02-.1l-.01-.02Z"/><defs><linearGradient id="a5plim1rh" x1="5" y1="9.12" x2="13" y2="9.12" gradientUnits="userSpaceOnUse"><stop stop-color="#E1BE78"/><stop offset="1" stop-color="#E3AB36"/></linearGradient><linearGradient id="b5plim1rh" x1="4.4" y1="5.79" x2="12.81" y2="10.65" gradientUnits="userSpaceOnUse"><stop stop-color="#E1BE78"/><stop offset=".34" stop-color="#FFFAD1"/><stop offset=".75" stop-color="#C69632"/><stop offset=".99" stop-color="#FCDC99"/></linearGradient></defs></svg>