<!-- by TradingView --><svg width="18" height="18" viewBox="0 0 18 18" xmlns="http://www.w3.org/2000/svg"><path fill="#F0F3FA" d="M0 0h18v18H0z"/><path d="M6.4 4c1.32 0 3.44.77 4.86 1.49 1.55.79 3.74 2.4 3.74 3.5 0 1.18-2.24 2.75-3.74 3.51-1.37.7-3.45 1.5-4.81 1.5-.36 0-.66-.06-.88-.17C4.49 13.28 4 10.94 4 9c0-.97.14-2.03.38-2.88.28-1.03.7-1.7 1.19-1.95.2-.1.48-.16.83-.16Z" fill="#B6B6B6"/><path d="M6.76 4.6c1.17 0 3.04.68 4.29 1.31 1.37.7 3.3 2.1 3.3 3.08 0 1.04-1.97 2.41-3.3 3.09-1.2.6-3.04 1.31-4.24 1.31-.32 0-.58-.05-.78-.14-.95-.49-1.38-2.55-1.38-4.26 0-.85.12-1.78.33-2.53.25-.9.62-1.5 1.05-1.72.18-.09.43-.13.73-.13Z" fill="url(#asg1cd001)"/><path d="M7.14 11c-.1 0-.14-.12-.14-.23v-.36c0-.09.09-.18.19-.18h3.56c.1 0 .25.1.25.18v.36c0 .1-.1.23-.2.23H7.14Zm3.23-1.23c-.03 0-.06 0-.07-.02-.02-.03-.02-.05 0-.1.11-.33.5-1.35.51-1.36.03-.07 0-.16-.07-.19l-.2-.06h-.04c-.04 0-.06.02-.07.04-.09.17-.13.29-.2.48 0 .03-.04.05-.1.05h-.38c-.03 0-.04 0-.06-.02v-.06c.1-.33.2-.6.34-.9a.24.24 0 0 1 .22-.13l.08.01.44.1.38.12c.4.14.38.4.3.67-.04.17-.27.76-.4 1.12l-.08.19c-.02.04-.05.06-.11.06h-.49Zm-1.62 0c-.09 0-.12-.08-.12-.09V7.5c0-.03 0-.06.03-.1a.08.08 0 0 1 .06-.01h.55c.03 0 .05 0 .06.02.03.03.04.07.04.09v2.16s-.04.11-.13.11h-.49Zm-1.6 0c-.07 0-.1-.02-.12-.06l-.07-.18-.42-1.12c-.07-.27-.09-.53.3-.67l.39-.12c.16-.04.3-.08.44-.1l.08-.01c.13 0 .2.08.22.13a5.87 5.87 0 0 1 .34.95.08.08 0 0 1-.06.03h-.39c-.05 0-.08-.02-.1-.05-.06-.2-.1-.32-.19-.49 0-.01-.03-.04-.07-.04l-.04.01-.2.06c-.07.03-.1.11-.07.18 0 .02.4 1.04.51 1.37v.1l-.07.02h-.49ZM9 7a.13.13 0 0 1-.07-.03 2.41 2.41 0 0 1-.45-.42c-.01-.01-.05-.05 0-.1.14-.16.3-.3.48-.43L9 6l.04.02c.17.12.33.27.47.43.04.04.02.07 0 .1-.13.16-.28.3-.44.42a.18.18 0 0 1-.07.02Z" fill="#fff"/><defs><linearGradient id="asg1cd001" x1="5.4" y1="4.33" x2="10.64" y2="13.09" gradientUnits="userSpaceOnUse"><stop offset=".27" stop-color="#F39F01"/><stop offset="1" stop-color="#E84F03"/></linearGradient></defs></svg>