<!-- by TradingView --><svg width="18" height="18" viewBox="0 0 18 18" xmlns="http://www.w3.org/2000/svg"><path fill="#F0F3FA" d="M0 0h18v18H0z"/><circle cx="9" cy="9" r="6" fill="#FFE133"/><path d="M12.88 5.25c-.05 1-.45 1.92-.94 2.73-.2.35-.31.63-.33.86-.06.81.26 1.4.95 1.75.06.04.11.09.12.16 0 .5-.07.89-.26 1.2-.03.05-.03.1.01.14.26.28.43.5.53.64.05.09.05.16.01.22s-.09.07-.14.02a4.84 4.84 0 0 0-2.35-1.17c-1.35-.3-2.57-.5-3.67-.54H4.02c-.01 0-.02-.01-.02-.03l.02-.07c.01-.05.04-.08.09-.08 1.2.04 1.91-.66 2.53-1.55.34-.48.5-1.85.27-2.47-.1-.26-.4-.5-.56-.6a.22.22 0 0 1-.1-.2l.01-.08.24-.75c.01-.06.03-.08.05-.08.02 0 .03.03.05.07.1.26.28.39.51.4.04 0 .07-.02.1-.05l.32-.28a.06.06 0 0 1 .05-.01c.04 0 .09.05.07.1-.1.4-.15.54-.13.62.16.78.6 1.28 1.38 1.5.76.23 1.5.38 2.2.43.07 0 .12 0 .18-.04.57-.35.78-.8.9-1.5.1-.55.35-1.07.5-1.59.12.1.19.2.2.25Zm-7 5.55c-.1.08-.08.12.05.11l1.68-.1c.1-.01.17-.05.2-.13.2-.48.25-.89.11-1.33a.16.16 0 0 0-.25-.07L5.9 10.8Zm2.43.03 2.15.34c.11.01.22-.06.25-.18a1 1 0 0 0 .04-.23.3.3 0 0 0-.05-.19c-.5-.71-1.14-.89-2.03-1.04a.22.22 0 0 0-.17.03.24.24 0 0 0-.1.14l-.21.95-.01.05c0 .08.04.12.13.13Zm3-.48-.4.84c0 .03 0 .06.03.07.26.14.54.25.82.32l.24.03c.09 0 .15-.02.17-.06l.18-.4c.04-.08-.04-.2-.22-.36a3.78 3.78 0 0 0-.73-.46c-.03-.02-.07-.03-.1.02Z" fill="#7C7C7C"/></svg>