<!-- by TradingView --><svg width="18" height="18" viewBox="0 0 18 18" xmlns="http://www.w3.org/2000/svg"><path fill="#F0F3FA" d="M0 0h18v18H0z"/><path d="M8.18 9.84c-.02.05 0 .07.05.05a5.65 5.65 0 0 0 2.68-1.33c.36-.35.55-.76.56-1.24 0-.35-.13-.6-.41-.74-.2-.1-.5-.15-.9-.15H4.03c-.04 0-.05-.02-.03-.05l.81-1.26A.24.24 0 0 1 5.03 5l6.3.01c.66 0 1.25.12 1.76.36.4.18.67.48.8.9.14.38.14.79.03 1.22-.26.92-1.07 1.7-2.46 2.36-1.13.53-2.33.92-3.62 1.15a.13.13 0 0 0-.11.09l-.7 1.88c0 .02-.02.03-.04.03H4.92c-.02 0-.03-.01-.02-.04l2.28-5.92A.05.05 0 0 1 7.24 7H9.3c.02 0 .02 0 .02.02L8.18 9.84Z" fill="#045EA5"/></svg>