<!-- by TradingView --><svg width="18" height="18" viewBox="0 0 18 18" xmlns="http://www.w3.org/2000/svg"><path fill="#F0F3FA" d="M0 0h18v18H0z"/><path d="M8 6.03V4H6.83A2.8 2.8 0 0 0 4 6.78v.45c0 1.28.69 2.33 2 2.33V14h2.66V7.55H6.77c-.34 0-.61-.42-.61-.76 0-.33.27-.76.61-.76H8ZM6.83 4.48h.34v.49h.5v.32h-.5v.48h-.34V5.3h-.5v-.32h.5v-.49ZM10 6.03V4h1.17A2.8 2.8 0 0 1 14 6.78v.45c0 1.28-.69 2.33-2 2.33V14H9.33V7.56h1.9c.34 0 .61-.43.61-.77 0-.33-.27-.76-.61-.76H10Zm.33-1.06v.32h1.34v-.32h-1.34Z" fill="#DA251D"/><ellipse cx="9" cy="5.02" rx="1" ry="1.02" fill="#DA251D"/></svg>