<!-- by TradingView --><svg xmlns="http://www.w3.org/2000/svg" width="18" height="18"><path fill="#F0F3FA" d="M0 0h18v18H0z"/><path d="M10.6 8.64H9.2l1.41-1.46L7.4 9l1.6.2-1.21 1.63 2.81-2.19z" fill="#00736C"/><path d="M14 4l-.9 2.44-.3-.7-.74.73-.56-.55.73-.73-.68-.28L14 4zm-7.45 8L6 11.45l-2 1.99.55.56 2-2z" fill="#F3132B"/><path fill-rule="evenodd" d="M9.53 5.68v-.61A.07.07 0 009.46 5h-.93a.07.07 0 00-.06.07v.6c-.57.1-1 .3-1.44.6l-.45-.45a.07.07 0 00-.1 0l-.66.67a.07.07 0 000 .1l.46.44c-.31.43-.5.9-.6 1.44h-.61a.07.07 0 00-.07.07v.92c0 .04.03.07.07.07h.62c.1.55.29.98.6 1.41l-.47.47a.07.07 0 000 .1l.66.67c.02.03.06.03.09 0l.47-.48c.44.3.87.5 1.43.6v.63c0 .04.03.07.06.07h.93c.04 0 .07-.03.07-.07v-.64c.54-.09.99-.28 1.41-.58l.48.47c.02.03.06.03.1 0l.66-.66a.07.07 0 000-.1l-.47-.46c.3-.44.5-.87.6-1.43h.62c.04 0 .07-.03.07-.06v-.93a.07.07 0 00-.07-.07h-.62c-.1-.55-.28-1-.6-1.44l.47-.47a.07.07 0 000-.09l-.68-.65a.07.07 0 00-.1 0l-.44.44c-.5-.34-.9-.5-1.43-.58zM9 11.7a2.71 2.71 0 100-5.4 2.71 2.71 0 000 5.42z" fill="#6A6A6A"/></svg>