<!-- by TradingView --><svg width="18" height="18" viewBox="0 0 18 18" xmlns="http://www.w3.org/2000/svg"><path fill="#F0F3FA" d="M0 0h18v18H0z"/><path d="m10.02 13.93-2-.52.4-1.45 2.03.53a.5.5 0 0 0 .61-.34l.64-2.29 1.53.4-.6 2.21a2.13 2.13 0 0 1-2.61 1.46Zm3.38-4.26.53-1.92c.3-1.1-.37-2.23-1.5-2.52l-2-.52-.4 1.44 2.03.53c.26.07.42.33.35.6l-.55 1.99 1.54.4ZM7.55 5.5l1.87.48.4-1.44-1.84-.48c-1.13-.3-2.3.36-2.6 1.46l-.54 1.93 1.54.4.56-2a.5.5 0 0 1 .6-.35ZM6.22 8.45l-1.54-.4-.6 2.2c-.31 1.1.36 2.23 1.5 2.52l1.83.48.4-1.44-1.87-.49a.48.48 0 0 1-.35-.6l.63-2.27Z"/></svg>