<!-- by TradingView --><svg width="18" height="18" viewBox="0 0 18 18" xmlns="http://www.w3.org/2000/svg"><path fill="#F0F3FA" d="M0 0h18v18H0z"/><path d="M9.22 3.42c-.17-.05-.27-.07-.41 0-.06.02-.08 0-.04-.06l.2-.34c.02-.03.04-.03.06 0l.21.37c.02.02.01.03-.02.03Z" fill="#0F1B59"/><path d="M9.39 3.74a.08.08 0 0 0-.03.12l.53.87c.02.04.07.05.1.02H10a.08.08 0 0 0 .03-.11l-.53-.87a.08.08 0 0 0-.11-.03ZM8.61 3.77l-.02-.01a.06.06 0 0 0-.1.02l-.53.89c-.01.03 0 .07.02.09l.03.01c.03.02.07.01.09-.02l.53-.89a.07.07 0 0 0-.02-.09Z" fill="#900"/><path d="m7.91 5.08-.04-.03a.07.07 0 0 0-.1.03l-1.3 2.18a.08.08 0 0 0 .03.1l.04.03c.04.02.08.01.1-.02l1.3-2.19a.08.08 0 0 0-.03-.1ZM10.15 5.13l-.02.02a.07.07 0 0 0-.02.1l1.28 2.09c.02.03.06.04.1.02l.02-.01a.07.07 0 0 0 .02-.1l-1.28-2.1a.07.07 0 0 0-.1-.02Z" fill="#0F1B59"/><path d="M11.69 7.7a.08.08 0 0 0-.03.1l1.4 2.27c.01.04.06.05.1.03a.08.08 0 0 0 .03-.12l-1.4-2.26a.08.08 0 0 0-.1-.03ZM6.25 7.86l-.02-.01a.1.1 0 0 0-.13.03L4.82 10.1a.1.1 0 0 0 .03.14h.02c.05.04.1.02.13-.03L6.28 8a.1.1 0 0 0-.03-.14ZM8.83 11.7c0-.12-.06-.15-.17-.1-.24.1-.55.26-.94.49-.22.14-.54.2-.95.19-.05 0-.06-.02-.05-.06.13-.42.56-.65.84-.89l.01-.02a.06.06 0 0 0 0-.06l-.03-.02c-.42-.14-.94-.42-.93-.91 0-.11.05-.3.14-.58a8.92 8.92 0 0 0 .37-1.4.09.09 0 0 1 .1-.03l.03.03c.15.18.2.38.16.6a6.6 6.6 0 0 0-.1 1.58c.02.23.11.4.28.49.1.06.13.03.09-.08-.17-.45-.32-.72-.19-1.14.15-.45.26-.98.34-1.58.01-.05.03-.06.06-.03.3.24.3.48.29.88-.01.6-.52 1.94.3 2.11a.06.06 0 0 0 .06-.02.07.07 0 0 0 0-.07c-.16-.48-.3-.86-.2-1.35a6.62 6.62 0 0 1 .45-1.37.05.05 0 0 1 .07.02c.22.48.39.94.49 1.4.1.4.04.8-.15 1.2-.1.18-.04.23.13.15.39-.16.35-.83.27-1.2-.07-.4-.13-.86-.18-1.37a.39.39 0 0 1 .16-.35l.1-.06c.08-.06.13-.04.14.06.03.4.15.93.34 1.6.07.26.08.57.03.95 0 .04.01.05.05.05.03 0 .05-.03.08-.07a.83.83 0 0 0 .08-.55l-.18-1.33a.89.89 0 0 1 .2-.63.07.07 0 0 1 .09-.02c.01 0 .02 0 .03.02l.02.04c.07.5.2.96.41 1.4l.07.21c.06.32.15.57-.06.84-.22.29-.65.3-.84.6-.02.04 0 .07.03.08.43.2.75.3.86.78.01.04 0 .05-.03.06-.65.05-1.19-.1-1.61-.47a.75.75 0 0 0-.39-.2c-.04 0-.06.02-.06.06v.96a.05.05 0 0 1-.05.05h-.04c-.02 0-.02-.01-.02-.02v-.91Z" fill="#900"/><path d="m13.34 10.55.03-.05v-.01a.02.02 0 0 1 .03 0h.01L15 12.97v.01a.03.03 0 0 1-.01.03H3.03a.03.03 0 0 1-.03-.01v-.03l1.46-2.33h.03l.14.08v.03l-1.27 2.01a.03.03 0 0 0 0 .03.03.03 0 0 0 .03.01H14.6a.03.03 0 0 0 .03-.01.03.03 0 0 0 0-.03l-1.3-2.18a.03.03 0 0 1 0-.02Z" fill="#0F1B59"/></svg>