<!-- by TradingView --><svg width="18" height="18" viewBox="0 0 18 18" xmlns="http://www.w3.org/2000/svg"><path fill="#F0F3FA" d="M0 0h18v18H0z"/><path d="M7.48 6.46c.44-.26.95-.41 1.5-.41v-.96c-.73 0-1.42.2-2 .55l.5.82Z" fill="#007BFF"/><path d="m5.57 7.05.82.54a3 3 0 0 1 1.1-1.13l-.5-.82a4 4 0 0 0-1.42 1.41Z" fill="#00A3FF"/><path d="M12.42 7.04a4 4 0 0 0-1.43-1.42l-.5.82a3 3 0 0 1 1.11 1.13l.82-.53Z" fill="#0700C4"/><path fill-rule="evenodd" d="M9 14A5 5 0 1 0 9 4a5 5 0 0 0 0 10Zm0-.96a3.98 3.98 0 1 0 0-7.95 3.98 3.98 0 0 0 0 7.95Z" fill="url(#aqmek1lp5)"/><path d="M14 9.03a5 5 0 0 1-5.74 4.92l.14-.96a3.98 3.98 0 0 0 4.57-3.93v-.03H14Z" fill="url(#bqmek1lp5)"/><path d="M14 9.03V9a5 5 0 0 0-6.26-4.84l.28 1.05a3.98 3.98 0 0 1 4.96 3.82H14Z" fill="url(#cqmek1lp5)"/><path d="M5.06 9.57A3.98 3.98 0 0 1 8.04 5.2l-.29-1.04a5 5 0 0 0-3.7 5.49l1-.08Z" fill="url(#dqmek1lp5)"/><path d="M8.98 6.05H9c.55 0 1.06.14 1.5.4l.49-.83a3.96 3.96 0 0 0-2-.53v.96Z" fill="#0001FE"/><path d="m12.42 7.03-.82.53c.24.43.38.93.38 1.47h1c-.01-.73-.21-1.41-.56-2Z" fill="#396DB1"/><path d="M5.02 9.03h1c0-.53.13-1.02.37-1.45l-.82-.53a3.96 3.96 0 0 0-.55 1.98Z" fill="#A0D9C4"/><path d="M12.97 9.02h-.99v.01c0 .53-.14 1.04-.38 1.47l.85.53c.34-.58.53-1.25.53-1.97v-.04Z" fill="#1B509B"/><path d="m5.54 11.02.85-.54a2.97 2.97 0 0 1-.37-1.46h-1a3.93 3.93 0 0 0 .52 2Z" fill="#7EDB56"/><path d="m12.45 11.03-.85-.53a3 3 0 0 1-1.11 1.12l.53.87a4 4 0 0 0 1.43-1.46Z" fill="#007646"/><path d="m6.95 12.47.53-.87a3 3 0 0 1-1.09-1.12l-.85.54a4 4 0 0 0 1.4 1.45Z" fill="#60D0AC"/><path d="M11.02 12.49c-.59.35-1.28.55-2.02.55h-.02V12H9c.54 0 1.05-.14 1.48-.4l.54.88Z" fill="#008675"/><path d="M8.98 13.04V12c-.55 0-1.06-.15-1.5-.41l-.54.87c.6.36 1.3.57 2.04.57Z" fill="#00A28B"/><defs><linearGradient id="aqmek1lp5" x1="4.49" y1="9.41" x2="8.46" y2="13.7" gradientUnits="userSpaceOnUse"><stop stop-color="#85DB6C"/><stop offset=".5" stop-color="#55CBA8"/><stop offset="1" stop-color="#009C87"/></linearGradient><linearGradient id="bqmek1lp5" x1="8.35" y1="13.53" x2="13.57" y2="9.03" gradientUnits="userSpaceOnUse"><stop stop-color="#009B85"/><stop offset=".52" stop-color="#00784C"/><stop offset="1" stop-color="#2A5FA7"/></linearGradient><linearGradient id="cqmek1lp5" x1="7.83" y1="4.64" x2="13.54" y2="9" gradientUnits="userSpaceOnUse"><stop stop-color="#0075FF"/><stop offset=".57" stop-color="#0701C4"/><stop offset="1" stop-color="#285D9A"/></linearGradient><linearGradient id="dqmek1lp5" x1="7.89" y1="4.71" x2="4.58" y2="9.58" gradientUnits="userSpaceOnUse"><stop stop-color="#007CFF"/><stop offset=".36" stop-color="#009EFF"/><stop offset=".71" stop-color="#9FD9C0"/><stop offset="1" stop-color="#87DC70"/></linearGradient></defs></svg>