<!-- by TradingView --><svg width="18" height="18" viewBox="0 0 18 18" xmlns="http://www.w3.org/2000/svg"><path fill="#F0F3FA" d="M0 0h18v18H0z"/><path fill-rule="evenodd" d="M6.6 12v-.15c.21.02.7-.06.89-.62.19-.55 1-3.55 1.39-4.98-.06.05-.13.09-.21.13-.15.08-.33.17-.56.4h-.59C7.76 6.54 8.5 6 9.5 6c1.26 0 2.4.47 2.4 1.54 0 .85-1.08 1.24-1.62 1.33.56.1 1.69.52 1.69 1.48 0 1.21-1.51 1.65-2.75 1.65H6.59Zm3.12-5.81-.68 2.56h.05c.59 0 1.97 0 1.97-1.21 0-1.01-.9-1.32-1.34-1.35Zm-1.42 5.2L9 8.94h.43c.54.05 1.61.36 1.61 1.23 0 1.48-1.46 1.62-2.11 1.62-.52 0-.63-.27-.63-.4ZM2 12v-.18c.18.03.58-.05.75-.56.17-.5.99-3.56 1.38-5.01-.18-.03-.37.04-1 .55h-.62c.22-.26 1-.8 2.28-.8 1.61 0 2.54.45 2.54 1.5 0 1.06-1.25 1.98-3.08 1.65l-.57 2.11c-.02.19.02.56.37.56h.43V12H2Zm2.23-3.03L5 6.2c.48.02 1.45.34 1.45 1.44 0 1.36-1.62 1.54-2.23 1.32ZM11.8 12v-.19h.44c.1 0 .35-.12.47-.5l1.22-4.77c.02-.13-.01-.39-.31-.39h-.36V6h2.26v.15c-.18 0-.57.1-.71.51-.14.42-.92 3.28-1.3 4.65 0 .17.1.5.57.5V12H11.8Z" fill="#312678"/><path fill-rule="evenodd" d="M7.07 12v-.15c.22.02.71-.06.9-.62.19-.55 1-3.55 1.39-4.98-.24.03-.8.18-1.15.54H8c.24-.26.98-.79 1.98-.79 1.26 0 2.4.47 2.4 1.54 0 .85-1.08 1.24-1.62 1.33.56.1 1.69.52 1.69 1.48 0 1.21-1.51 1.65-2.75 1.65H7.07Zm3.13-5.81-.68 2.56h.05c.59 0 1.97 0 1.97-1.21 0-1.01-.9-1.32-1.34-1.35Zm-1.42 5.2.7-2.45h.43c.54.05 1.61.36 1.61 1.23 0 1.48-1.46 1.62-2.11 1.62-.52 0-.63-.27-.63-.4Zm-6.3.61v-.18c.18.03.58-.05.75-.56.17-.5 1-3.56 1.39-5.01-.18-.03-.7.04-1.32.55H3c.22-.26 1-.8 2.28-.8 1.62 0 2.56.45 2.56 1.5 0 1.06-1.27 1.98-3.1 1.65l-.57 2.11c-.03.19.02.56.37.56h.43V12H2.48Zm2.23-3.03.78-2.76c.48.02 1.45.34 1.45 1.44C6.94 9 5.32 9.19 4.7 8.97ZM12.28 12v-.19h.44c.1 0 .35-.12.47-.5l1.22-4.77c.02-.13-.01-.39-.31-.39h-.36V6H16v.15c-.18 0-.57.1-.71.51-.14.42-.92 3.28-1.3 4.65 0 .17.1.5.57.5V12h-2.28Z" fill="url(#axbokksgs)"/><defs><linearGradient id="axbokksgs" x1="9.24" y1="6" x2="9.24" y2="12" gradientUnits="userSpaceOnUse"><stop stop-color="#334C8E"/><stop offset=".57" stop-color="#8C3C73"/><stop offset="1" stop-color="#D73436"/></linearGradient></defs></svg>