<!-- by TradingView --><svg width="18" height="18" viewBox="0 0 18 18" xmlns="http://www.w3.org/2000/svg"><path fill="#F0F3FA" d="M0 0h18v18H0z"/><path d="M9.23 9.79c3.2-.94 2.85-5.15-.38-5.65l-.01-.02v-.09c0-.02.01-.03.04-.03 2.53.18 4.15 1.36 4.88 3.56.41 1.25.3 2.52-.37 3.8-.76 1.5-2.12 2.37-4.08 2.64-.16.02-.31-.05-.31-.22v-3.76c0-.12.11-.2.23-.23Z" fill="#023D93"/><path d="M8 9.6v4.11c0 .16.07.22-.09.18-2.27-.64-3.56-2.04-3.86-4.21-.31-2.24.87-4.8 3.25-5.36 3.5-.84 4.58 4.23 1.1 4.98-.17.03-.4.13-.4.3Z" fill="#EC6300"/></svg>