<!-- by TradingView --><svg width="18" height="18" viewBox="0 0 18 18" xmlns="http://www.w3.org/2000/svg"><path fill="#F0F3FA" d="M0 0h18v18H0z"/><path d="M12.53 10.22c-.15 1.73-1.94 5.66-4.93 3.9l-.06-.04.17-1.05.43-3.15a3.82 3.82 0 0 0 4.01-3.4c.48 1.42.48 2.45.38 3.74Zm-6.05 2.23-.05.35A7.01 7.01 0 0 1 5.4 9.19c-.06-2.86 1.62-5.64 3.53-5.64 1.04 0 1.58.85 1.58 2.24 0 1.77-.77 3.5-1.8 3.5a4.02 4.02 0 0 1-.5-.06l.4-2.86c.07-.45.14-1.1.29-1.84-.66.3-1.58.37-1.82.41l-.07.46a.17.17 0 0 1 .1-.03c.13 0 .25.2.25.42 0 .2-.03.39-.06.58l-.82 6.08Zm5.26-7.76A3.34 3.34 0 0 0 9.05 3c-2.61 0-4.2 3.3-4.04 6.54a8.26 8.26 0 0 0 1.41 4.01c.28.37.63.69 1.03.94 2.6 1.72 5.08-1.23 5.45-4.15a8 8 0 0 0-1.16-5.64" fill="#231F20"/></svg>