<!-- by TradingView --><svg width="18" height="18" viewBox="0 0 18 18" xmlns="http://www.w3.org/2000/svg"><path fill="#184271" d="M0 0h18v18H0z"/><path d="M8.86 4.77c.12.04.2.05.25.03.46-.24.93-.5 1.4-.77.17-.03.37-.02.6.03l2.49.73c.05.02.1.05.13.1.04.04.05.1.05.15v5.88c0 .14-.04.26-.13.37l-2.22 2.62-1.57-1.24c-.18 0-.45.16-.8.5-.36.33-.9.59-1.63.77-.58.04-1.1-.11-1.55-.44l-.44-.3c-.19.07-.35.21-.5.43l-.79-.4a.26.26 0 0 1-.15-.25V4.1c0-.06.05-.11.1-.11h3.66c.04 0 .08.05.11.08l.99.7Z" fill="#0093DD"/><path d="M10.5 4.03c-.46.28-.93.53-1.4.77-.03.02-.12.01-.24-.03.46-.32.88-.57 1.25-.73.1-.05.23-.05.4-.01ZM11.1 4.06c.64.08 1.47.28 2.49.6.28.1.41.25.41.48v6.01c0 .04-.04.08-.06.1l-2.33 2.71a.1.1 0 0 1-.1.03c-.07-.01-.1-.04-.08-.08l2.22-2.62c.1-.1.14-.23.14-.37V5.04a.26.26 0 0 0-.2-.25l-2.49-.73Z" fill="#646876"/><path d="M5.96 8.48v.76c0 .06.03.09.09.09l.21.01c.1.01.18.06.22.16.04.1.02.19-.05.26a1.2 1.2 0 0 1-.47.3.13.13 0 0 0-.09.1c-.11.61-.1 1.1.04 1.47.18.5.58.67 1.2.65h.72c.2 0 .34.2.3.4a.23.23 0 0 1-.16.17 1.7 1.7 0 0 1-1.73-.3c-.1-.07-.2-.28-.3-.27h-.82c-.06 0-.08-.01-.08-.07V4.8c0-.06.03-.1.09-.1h1.6c.25 0 .48.07.69.2.43.27.8.75 1.1 1.08.07.08.17.12.28.13.11.01.21-.02.3-.09l1.36-1.06a.69.69 0 0 1 .6-.12c.66.14 1.26.32 1.83.53.04.01.06.04.06.09v.49c0 .05-.02.07-.08.06l-.08-.02c-.7-.2-1.25-.3-1.62-.3-.7.01-1.03.3-1.01.88 0 .16.06.3.15.41.77.92 1.6 1.74 2.5 2.46.06.04.09.09.1.15.11.43.06.77-.16 1.03l-1.38 1.73a.27.27 0 0 1-.21.1.28.28 0 0 1-.22-.08l-.96-1.03c-.02-.02-.02-.05-.01-.07a15.64 15.64 0 0 0 .32-.67h.02c.44.52.75.66.92.44l.93-1.2c.02-.02.02-.05 0-.07l-3.12-3a.2.2 0 0 0-.16-.05c-.25.02-.4.15-.44.4-.09.46-.37.8-.85 1.02-.42.18-.9.24-1.46.2-.11-.02-.17.03-.17.15Z" fill="#fff"/><path d="M6.07 5.66c0-.02 0-.05.03-.07a.09.09 0 0 1 .06-.03h.13c.41 0 .77.1 1.06.29.14.09.25.2.33.31.08.12.11.25.11.38v.04c0 .13-.03.26-.11.38s-.19.22-.33.31c-.3.2-.65.29-1.06.29h-.13a.09.09 0 0 1-.06-.03.1.1 0 0 1-.03-.07v-1.8Z" fill="#0093DD"/><path d="M6.69 8.72c.52 0 .98-.1 1.35-.3.43-.22.73-.56.9-1.03.02-.04.05-.05.08-.02l1.75 1.52a.1.1 0 0 1 .03.08.1.1 0 0 1-.02.08l-1.91 2.07a.27.27 0 0 1-.2.1.27.27 0 0 1-.2-.08L6.66 9.48a.19.19 0 0 1-.07-.15V8.8c0-.06.04-.1.1-.1ZM10.44 9.94l.63-.66a.13.13 0 0 1 .1-.04c.04 0 .07.01.1.04l.56.56c.03.03.04.06.04.1 0 .04-.01.07-.04.1l-.64.7a.14.14 0 0 1-.1.06.14.14 0 0 1-.11-.05l-.54-.62a.14.14 0 0 1-.04-.1c0-.03.02-.07.04-.1Z" fill="#fff"/><path d="m9.01 11.5.86-.96c.01-.02.03-.02.05 0l.03.02c-.44.7-.84 1.4-1.2 2.12a.06.06 0 0 1-.06.03c-.03 0-.05-.01-.06-.03-.44-.8-.9-1.56-1.37-2.28v-.05c.02-.02.04-.02.05 0 .36.4.73.8 1.11 1.16a.4.4 0 0 0 .3.12.4.4 0 0 0 .29-.13Z" fill="#fff"/><path d="M9.86 12.67c-.24.27-.53.53-.88.78-.52.37-1.03.53-1.55.5a3.66 3.66 0 0 0 1.62-.79c.36-.33.63-.5.8-.49ZM5.44 13.2c-.07.16-.17.28-.29.39-.1.08-.16.1-.2.04.14-.22.3-.36.5-.43Z" fill="#646876"/></svg>