<!-- by TradingView --><svg width="18" height="18" viewBox="0 0 18 18" xmlns="http://www.w3.org/2000/svg"><path fill="#F0F3FA" d="M0 0h18v18H0z"/><path fill-rule="evenodd" d="M6 4.01V14h1.6c.04 0 .06-.02.06-.05V10.1c0-.03.02-.05.05-.05h1.97c.92 0 1.7-.27 2.33-.8.67-.57 1-1.31.99-2.23 0-.93-.35-1.67-1.04-2.22a3.77 3.77 0 0 0-2.35-.77c-1.2-.03-2.4-.03-3.61 0Zm1.7 1.56c-.03 0-.04.02-.04.06v2.82c0 .03.02.05.05.05h1.85c.5 0 .92-.14 1.27-.42.35-.28.52-.62.52-1.02V7c0-.4-.17-.73-.52-1.01a1.97 1.97 0 0 0-1.28-.42H7.71Z" fill="#D2313A"/></svg>