<!-- by TradingView --><svg width="18" height="18" viewBox="0 0 18 18" xmlns="http://www.w3.org/2000/svg"><path fill="#F0F3FA" d="M0 0h18v18H0z"/><path d="M10.06 3.75a3.25 3.25 0 0 1 .2 6.49h-.12c-1.25.08-2.3 1.18-2.45 2.49-.03.37-.12.73-.26 1.07-.12.26-.34.45-.63.45-.23 0-.39-.12-.55-.28a6.76 6.76 0 0 1-1.4-2.81 6.3 6.3 0 0 1-.14-1.22c-.02-2.95 2.4-6.19 5.35-6.19Zm0-.75c-3.32.11-6 3.36-6.06 6.75a7.17 7.17 0 0 0 1.63 4.67c.34.4.83.64 1.35.57a1.5 1.5 0 0 0 1.18-.92c.18-.42.3-.87.33-1.32.1-.9.83-1.61 1.7-1.67h.11A4.04 4.04 0 0 0 10.06 3Z" fill="#0E6E32"/><path d="M7.6 11.54a3.23 3.23 0 0 1 2.5-2.13l.1-.02A2.27 2.27 0 0 0 12 7.24a2.28 2.28 0 0 0-3.53-1.88 4.89 4.89 0 0 0-2.06 6.25l.03.05c.11.22.36.36.61.34a.64.64 0 0 0 .55-.46Zm2.48-2.75a3.95 3.95 0 0 0-2.94 2.24.14.14 0 0 1-.08.07.15.15 0 0 1-.18-.07 4.56 4.56 0 0 1-.17-1.41c0-1.53.78-2.86 2.1-3.65.35-.17.69-.28 1.07-.27.87.02 1.44.7 1.41 1.58-.02.75-.45 1.4-1.2 1.51" fill="#0E6E32"/><path d="M9.1 7.49a.4.4 0 0 1 .39.32.4.4 0 0 1-.25.43 4.6 4.6 0 0 0-1.2.52.12.12 0 0 1-.13 0 .11.11 0 0 1-.03-.14c.23-.4.55-.75.94-1.02a.45.45 0 0 1 .28-.11m-.57-.28A3.68 3.68 0 0 0 7 9.77c0 .12.11.23.23.23.07 0 .13-.02.17-.06l.01-.02a4.1 4.1 0 0 1 1.9-1.2l.09-.02c.4-.13.66-.54.59-.96a.9.9 0 0 0-1.46-.53Z" fill="#0E6E32"/></svg>