<!-- by TradingView --><svg width="18" height="18" viewBox="0 0 18 18" xmlns="http://www.w3.org/2000/svg"><path fill="#F0F3FA" d="M0 0h18v18H0z"/><path d="M10.24 4.5c-.26.14-.93.1-1.2.05a1.65 1.65 0 0 0-.4-.04 14.75 14.75 0 0 0-.55.04c-.03 0-.04-.04-.02-.06l.2-.19c.19-.17.36-.02.57.03.03 0 .05 0 .07-.02l.1-.09a.72.72 0 0 1 .63-.21c.09 0 .17.02.25.04.15.03.33-.03.5.06a.1.1 0 0 0 .07 0c.42-.1.84.05 1.24.14.02.01.05.01.07 0a.6.6 0 0 1 .42.02h.08c.18-.01.3 0 .4.05.07.04.1.1.07.15 0 .03-.02.04-.05.04h-1.35a2.37 2.37 0 0 0-.83.11h-.04l-.16-.12h-.07ZM6.7 4.33a.47.47 0 0 1 .4.07l.02.02v.03c-.05.12-.19.2-.37.17a2.52 2.52 0 0 0-.4-.01c-.04 0-.08 0-.1-.03-.05-.03-.07-.06-.06-.1l.08-.04.43-.1ZM5.65 4.33c.06.02.13-.02.2 0h.01l.01.02a.08.08 0 0 1 0 .05.3.3 0 0 1-.13.17.39.39 0 0 1-.15 0c-.1 0-.2.02-.27.05-.04.02-.06 0-.07-.07 0-.03 0-.05.02-.07.11-.14.24-.2.38-.15ZM4.43 7c-.03.04-.02.07.03.07.15.03.21.1.18.25-.12.43-.23.85 0 1.24a.09.09 0 0 1 0 .1l-.02.01c-.09.05-.13.1-.13.2v2.43c0 .1.03.24.09.45.06.22.02.44.03.63 0 .03.02.05.03.07l.2.23c.01.02.04.03.06.03.2 0 .51-.03.8-.03.13 0 .29-.02.45-.06a8.4 8.4 0 0 1 3.23-.13h.42a.1.1 0 0 0 .06 0 .12.12 0 0 0 .04-.05c.03-.06.02-.12-.02-.18a.93.93 0 0 0-.32-.26c-.22-.12-.52-.1-.73-.14a.98.98 0 0 0-.34 0c-.81.14-1.73.28-2.55.31-.43.02-.8.11-1.13.29a.09.09 0 0 1-.1 0 .1.1 0 0 1-.03-.05.1.1 0 0 1 0-.05c0-.09.03-.17.05-.24a.87.87 0 0 0 .04-.23c.04-.9.22-2.06.11-2.93a1.66 1.66 0 0 1-.01-.42c.07-.46-.01-1.21-.08-1.67a1.14 1.14 0 0 1 0-.37c.07-.35-.11-.76.06-1.08l.13-.24c.06-.1.12-.17.19-.19.13-.03.27.01.38 0 1.15-.07 2.33-.03 3.48.06.08 0 .24-.01.46-.07.27-.06.52-.06.76 0 .13.03.14.09.02.18-.12.09-.16.22-.12.4v.1a.13.13 0 0 1-.08.06A3.9 3.9 0 0 0 8.4 6.93c-.22.26-.23.67-.23.96 0 .17.1 3.24.23 2.68.08-.39.11-.7.1-.94-.01-.55-.06-1.75.34-2.23.12-.15.3-.25.55-.3.04 0 .08.01.1.06.2.33.16.84.14 1.28 0 .04-.02.09-.05.12a.23.23 0 0 1-.1.08 1.7 1.7 0 0 0-.52.34c-.04.04-.07.13-.09.29-.01.1 0 .19.03.3.11.34.23.57.37.7.3.29.77.22 1.1.45a.22.22 0 0 0 .19.03c.24-.07.49-.09.74-.06.2.02.35.02.42-.01.21-.09.26-.3.37-.5.13-.22.29-.62.22-.9-.04-.22-.04-.33-.22-.5-.2-.2-.62-.23-.88-.3a.19.19 0 0 1-.11-.07.2.2 0 0 1-.04-.14l.1-1.3c.01-.04.03-.07.07-.07l.76-.16h.04l.03.03c.12.22.26.38.32.6.18.67.35 1.3.38 2.02.01.4.05.83.1 1.28.05.32.12.68.07.98-.01.12.1.22.2.14l.12-.1c.1-.1.14-.08.1.06-.1.39-.14 1-.1 1.39.01.02 0 .04-.03.04h-.01c-.07-.06-.13-.11-.23-.1-.41.1-.93.05-1.36.06l-2.4.04c-.26 0-.55-.05-.8-.04-.54.03-1.15.04-1.86.03-.07 0-.27.03-.6.09-.17.03-.31.02-.45.03l-.04.01a.09.09 0 0 0-.03.04.1.1 0 0 0 .02.1c.04.04.1.07.18.08.54.05 1.1.05 1.63.01.21-.01.42 0 .63.02.13.02.18.1.26.15.03.01.05.02.08.01.1-.02.2-.11.29-.11.24-.02.43-.14.68-.13.72.02 1.44-.07 2.15-.02.51.04.96 0 1.42.02 0 0 .02 0 .03.02l.01.03c.01.03 0 .06-.05.08-.24.11-.46.17-.67.17l-1.05-.02c-.54-.02-1.11.1-1.66.1l-.32-.03c-.3-.05-.6-.06-.9-.04-.17 0-.34.04-.5.1a.86.86 0 0 1-.28 0c-.42-.06-.8.1-1.23.04-.38-.06-.82-.11-1.18.07a.08.08 0 0 1-.07 0c-.38-.16-.62-.36-.71-.61-.08-.2-.11-.5-.12-.9 0-.7.05-1.32-.03-2.01 0-.05.01-.09.05-.12l.1-.11a.09.09 0 0 0 .02-.1l-.18-.62A.85.85 0 0 1 4 9.2c.05-.31.08-.62.11-.92.05-.39 0-.77-.04-1.15 0-.07.02-.15.06-.21l.13-.18.01-.04v-.04a.72.72 0 0 1-.1-.45c.01-.04.04-.07.08-.06h.03c.12.1.22.18.3.27.09.11.1.23 0 .36L4.43 7Z" fill="#FF192D"/><path d="M10.57 5.08c-.01-.03 0-.04.02-.05.09-.04.27-.08.4-.08.65-.01 1.08-.02 1.27 0 .2 0 .46.04.8.13.03 0 .05.02.07.05.16.2.24.42.23.65-.03.47.03.92-.07 1.4-.01.04 0 .11.03.22.02.07.03.15.03.22l-.04.82c-.01.2.08.41.05.6-.04.2-.04.39 0 .58.03.16 0 .4-.06.54-.06.13-.09.12-.1-.02l-.08-.67c-.08-.46-.03-1.03-.06-1.44a2.9 2.9 0 0 0-.38-1.3c-.29-.47-.7-.8-1.23-.98-.25-.08-.54-.09-.79-.16a.08.08 0 0 1-.04-.03.09.09 0 0 1-.02-.06c.02-.16 0-.27-.03-.42Z" fill="#FF192D"/><path d="M13.82 8.13c-.02.17-.04.25.1.34.03.02.05.05.07.1v.12l-.08.4v.05c.07.34.01.64-.16.92a.11.11 0 0 0-.02.09c.01.04.04.07.07.1.03.02.06.05.07.08.02.03.03.06.03.1a2.1 2.1 0 0 1-.08.43c-.04.16-.07.3-.07.43 0 .17-.03.44-.06.8-.03.34-.09.61-.16.81-.09.22-.12.21-.12-.02l.1-2.5c.02-.16 0-.6-.02-1.32 0-.07 0-.18.04-.33a.08.08 0 0 0-.02-.06.3.3 0 0 0-.07-.07.12.12 0 0 1-.06-.08.82.82 0 0 1 .17-.64.23.23 0 0 0 .02-.26l-.12-.21a.23.23 0 0 1-.03-.15l.22-1.35a8.95 8.95 0 0 1 .23 1.32c0 .14.06.25.1.38.07.22-.13.35-.15.52ZM9.63 6.59a1.31 1.31 0 0 1 1.18-.38c.3.04.6.15.9.34.15.08.13.11-.04.09a5.44 5.44 0 0 0-2.23.17c-.04.01-.17-.05-.11-.08.16-.05.26-.1.3-.14ZM10.87 7.38l-.01.02c-.28.02-.58.06-.86.02-.03 0-.05-.02-.05-.02l-.01-.14c0-.01.01-.02.05-.03.26-.09.57-.09.84-.1l.02.01.02.24ZM9.94 7.84c-.01-.03.04-.05.1-.05a8.6 8.6 0 0 1 .8-.02l.04.16-.23.06-.55.07c-.05 0-.1 0-.12-.03l-.04-.19ZM10.63 8.23l-.55.04c-.06.01-.1.07-.1.13v.01c0 .07.06.11.12.1l.55-.04c.06 0 .1-.06.1-.13a.11.11 0 0 0-.12-.11ZM10.61 9l1.15.09c.14 0 .23.07.27.18l.08.21c.04.1 0 .14-.12.1a1.62 1.62 0 0 0-.93.03.62.62 0 0 1-.43-.06c-.03-.02-.04-.04-.04-.07.02-.15.01-.3-.02-.43-.01-.04 0-.05.04-.05ZM10.25 9.25l-.05.01c-.12.01-1.14.11-1.18 0L9 9.2c-.03-.11 1-.19 1.12-.2h.06l.07.25ZM9.35 9.63h.71c.13 0 .19.08.19.26v.14c0 .17-.06.24-.18.22-.26-.05-.5-.22-.74-.52-.03-.03-.01-.1.02-.1ZM11.46 9.98c.1-.03.2-.04.27-.04h.04c.03.01.04.03.04.05l-.01.02-.26.2c-.05.02-.13.04-.25.04a15.99 15.99 0 0 1-.7-.03c-.02 0-.03-.02-.03-.04V10c0-.03.04-.05.09-.05.1.01.2.03.29.02a1 1 0 0 1 .44.02.14.14 0 0 0 .08 0ZM13.18 11.39l-.07-.71c0-.02 0-.03.02-.03h.05c.06.19.1.37.13.56 0 .09 0 .15-.02.2l-.02.02a.05.05 0 0 1-.07-.01l-.02-.03Z" fill="#FF192D"/></svg>