<!-- by TradingView --><svg width="18" height="18" viewBox="0 0 18 18" xmlns="http://www.w3.org/2000/svg"><path fill="#F0F3FA" d="M0 0h18v18H0z"/><path d="M15 9A6 6 0 1 1 3 9a6 6 0 0 1 12 0Zm-6 5.25a5.25 5.25 0 1 0 0-10.5 5.25 5.25 0 0 0 0 10.5ZM9 14A5 5 0 1 0 9 4a5 5 0 0 0 0 10Zm-3.37-3.7V7h2.22c.57 0 1.03.53 1.03 1.18 0 .65-.46 1.24-1.03 1.24H6.19v.89h5.47c.26 0 .46-.13.46-.42 0-.3-.2-.47-.46-.47h-1.14c-.57 0-1.03-.59-1.03-1.24S9.95 7 10.52 7h2l-.3.64h-1.76c-.26 0-.48.21-.48.52 0 .3.22.59.48.59h1.3c.54 0 .99.47.99 1.1 0 .64-.45 1.15-1 1.15H5.77l-.52-.7h.38Zm.56-2.66h1.66c.33 0 .59.25.59.55 0 .31-.26.56-.59.56H6.2V7.64Z" fill="#C51100"/></svg>