<!-- by TradingView --><svg width="18" height="18" viewBox="0 0 18 18" xmlns="http://www.w3.org/2000/svg"><path fill="#F0F3FA" d="M0 0h18v18H0z"/><path d="M11 8.16C11 6.34 13 5.3 14 5c-.67.8-1.78 2.38-1.78 3.28 0 .9 1.2 2.02 1.2 3.26 0 1.24-1.46 2.3-1.83 2.46a3.6 3.6 0 0 0 .86-2.1c0-.93-1.45-2.23-1.45-3.74Z" fill="#E67817"/><path d="M8.34 5h2.06v.67H9.03v1h1.19l.18.66H9.03V12h-.69V7.33h-.16L8 6.67h.34V5Z" fill="#7ABC55"/><path fill-rule="evenodd" d="M5.72 10.64A2.78 2.78 0 0 0 8 7.84C8 6.26 6.81 5 5.35 5c-.12 0-.24 0-.35.02V12h.72v-1.36Zm0-.66c.95-.15 1.68-1.05 1.68-2.15 0-1.1-.73-2-1.68-2.14v4.29Z" fill="#7ABC55"/></svg>