<!-- by TradingView --><svg width="18" height="18" viewBox="0 0 18 18" xmlns="http://www.w3.org/2000/svg"><path fill="#F0F3FA" d="M0 0h18v18H0z"/><path d="M6.37 14.39a5.98 5.98 0 0 1 .68-11.06 6.02 6.02 0 0 1 4.58.27L6.37 14.4Z" fill="#ED4522"/><path d="M11.63 3.61a5.98 5.98 0 0 1-3 11.38 6 6 0 0 1-2.26-.6l5.26-10.78Z" fill="#0097D3"/><ellipse cx="9" cy="9.04" rx="5.32" ry="5.34" transform="rotate(-1.82 9 9.04)" fill="#F0F3FA"/><path d="M10.24 8H8.42c-.05 0-.09.03-.09.06v1.88c0 .03.04.06.09.06h1.82c.05 0 .1-.03.1-.06v-.17c0-.03-.05-.06-.1-.06H8.86c-.05 0-.08-.02-.08-.05V9.2c0-.03.03-.06.08-.06h1.05c.05 0 .09-.02.09-.05V8.9c0-.03-.04-.05-.1-.05H8.87c-.05 0-.08-.03-.08-.06v-.46c0-.03.03-.05.08-.05h1.38c.05 0 .1-.03.1-.06v-.17c0-.03-.05-.06-.1-.06ZM11.35 9h-.26c-.05 0-.1.03-.1.06v1.88c0 .03.05.06.1.06h.26c.05 0 .1-.03.1-.06v-.74c0-.03.03-.06.08-.06h.94c.05 0 .09.03.09.06v.74c0 .03.04.06.08.06h.27c.05 0 .09-.03.09-.06V9.06c0-.03-.04-.06-.09-.06h-.27c-.04 0-.08.03-.08.06v.74c0 .03-.04.06-.1.06h-.93c-.05 0-.09-.03-.09-.06v-.74c0-.03-.04-.06-.09-.06ZM6.25 7.02 6.33 7h.37c-.03 0 .04 0 .05.02L8 8.94c.02.03 0 .06-.05.06H5.06c-.04 0-.07-.03-.05-.06l1.24-1.92Zm.25.38c-.02-.03.02-.03 0 0l-.77 1.22c-.02.03 0 .1.05.1h1.44c.04 0 .07-.07.05-.1L6.5 7.4Z" fill="#171C3B"/></svg>