<!-- by TradingView --><svg width="18" height="18" viewBox="0 0 18 18" xmlns="http://www.w3.org/2000/svg"><path fill="#F0F3FA" d="M0 0h18v18H0z"/><path d="M11.77 7.85c.14-.42.82-.42 1.12-.61.2-.14.46-.27.47-.91.01-.55.26-.64.4-.68 0-.16-.28-.11-.48.05.28-.7.88-.12.88-.12-.35-.61-.87-.33-1.04-.03-.18.31-.06 1-.42 1.17-.38.17-.57-.15-.84-.07-.38.1-.39.61-.78.45.3-.18.28-.36.48-.57.62-.68.8-.18 1.3-.98.7-.94 1.53-.12 1.4.15-.98-.17-.78.59-.87 1.11h.71l-2.33 1.04Zm-.07.23c.3-.39.52-.07.77-.23.2-.13.44-.51.85-.48.54.05 1.36.87 1.25-.25.79.45.36 1.48-.24 1.48-.35 0-.47-.17-.67-.25-.15-.06-.26.05-.4.19l-.1.12c-.2.2-.52.37-.95.18l.08.16h2.4l-1.64.73c.43.09.97-.45 1.6-.07.59.35.32 1.16.07 1.16-.21 0 .2-.72-.4-.7-.22 0-.4.18-.62.35l-.13.1c-.17.12-.36.21-.58.19l1.14.65h-.77c-.04.56.6.78 1.05.7-.2.77-1.25.54-1.63.13-.25-.28-.69-.71-1.2-.71.69.49.98.85 1.1 1.1.27.51-.08 1.52-.7 1.59-.15.01.27-.28.27-.73 0-.42-.49-.56-.69-.73-.38-.3-.53-1.18-.67-1.42.27.14.48.89.71 1.14.23.27.81.52.81.93 0 .4-.15.49-.17.54.15 0 .63-.83.17-1.23-.23-.2-.52-.25-.75-.44-.31-.25-.48-.79-.64-.95-.16-.15-.71-.4-.6-1.23-.34.9.13 1.03.22 1.63.11.62.44 1.26.79 1.35-.5.1-.7.47-.38.99l-.78-.5c-.13.51.43.54.37 1-.06.51-.67.47-.66.35.02-.08.25 0 .25-.12s-.38-.18-.54-.37c-.45-.57.11-1.07-.22-1.47-.15-.18-.42-.4-.47-.68v2.18l-.65-.78c-.1.86-1.32.8-1.4.7.87-.63.45-.93.22-1.48l-.05-.17c-.03-.1-.04-.23-.03-.35.06-.66 1.04-.61.5-1.28L6 13.64l.17-1.38c-.94.34-.62.4-.89 1-.22.5-.68.37-.81.15-.2-.3.04-.55.31-.53.16-.14-.3-.34-.1-.74.26-.59 1-.33 1.38-.83l.11-.18c.07-.18.12-.4.12-.71L4.3 11.5l.6-.99c-1.1.91-1.37-.22-1.9-.14.14-.62.65-.27.88-.27.23 0 .55-.4.67-.5L3.4 9h2.96c.21 0 .32-.1.22-.22-.14-.16-.7.02-1.31.08a.98.98 0 0 1-.79-.29l-.08-.06c-.31-.3-.54-.6-1.25-.18-.22-.57.3-1.05.8-1.07.68 0 .8.78 1.34.5l-.92-1.04 1.48.72-.2-.55v-.12c-.18-.57-.82-.47-1.09-.75-.56-.6.04-1.37.52-1.16-.33.68.27.98.77.88l-.25-.8 1.9 1.91c-.42.32-.91.04-1.15-.67-.23-.68-1-.08-1.35-.24-.02.4.69 0 .78.82.07.53.46 1.01 1.04.88-.23.33-.77-.08-1.1.4.59-.07.74.6 1.22.7-.36-.2-.4-.71-.77-.8.23-.05.4.06.62-.02.23-.08.34-.23.33-.45.24.09.25.32.15.46-.23.32-.47.34-.1.75-.01-.1 0-.23.04-.25.1.23.31.33.45.3-.26-.26-.08-.49-.08-.49-.11 0-.23.16-.23.16s-.07-.25.19-.36c-.02-.04 0-.08 0-.08.21.21.6.21.71.28 0 0-.56-.08-.5.23.07.3.95.15.77-.79 0 0 .15-.01.2.04.12.12.1.32.1.27 0 0-.05.44-.03.52.02.05.22.05.26.05.04 0 .01.06 0 .06h-.31c-.06 0-.19.16-.06.2 0 0 .17.04.34.04.16 0 .33-.04.33-.04s-.03.13-.34.13c-.31 0-.43-.05-.43-.05-.07.18.34.37.38.38.04.02.1.02.12 0l.28-.22-.08.13c.38-.08.32-.27.19-.32 0-.08.22-.07.2.1-.01.2-.54.31-.6.45-.05.09.06.37.14.4.1.02.3.02.4-.04.03-.02.32-.55.32-.67 0-.13-.3-.76-.3-.76.06-.16.31-.12.53-.27-.38.39-.12.43.15.44-.2.17-.35.28-.27.55.74.16.84.85 1.02 1.43.4 1.28.42.72 1.14.84.7 0 .51.76 1.1.96-.35-.28-.13-.6-.62-1.08-.24-.24-.8 0-1.2-.45-.4-.46-.54-1.4-1.1-1.77.66.16.9 1.23 1.22 1.6.34.35 1.06.23 1.3.49.43.37-.01 1.13.9 1.27.17.02.44-.06.41-.2-.29.08-.55.16-.8-.07-.3-.28-.18-.92-.46-1.16-.28-.24-.78-.11-1.2-.43-.42-.32-.6-1.16-1.36-1.68 1.05-.3 1.4 1.64 2.4 1.64.5 0 .87-.73 1.33-.73.32 0 .56.17.62.45.05.3-.06.53-.06.53s.15-.16.15-.45c0-.48-.38-.67-.75-.67s-.5.24-1.06.24c-.73-.01-.92-1.3-1.74-1.39.43-.36.84.3 1.23.28.28 0 .4-.21.57-.68.15-.47.51-.2.75.03.8.7 1.4-.43.8-.75.22 1.03-.7.72-.68.59.18.05.35.03.34-.06-.5 0-.81-.4-1.16-.3-.51.16-.16 1.03-.65 1.03-.3 0-.48-.34-.86-.36l.09-.14ZM9.42 6.44c-.18.08-.27-.48-.26-.6.06-.4.55-.66.55-1.1 0-.48-.3-.64-.28-1.07.01-.53.8-.67.8-.47 0 .15-.56.16-.57.71-.02.5.57.64.55 1.14-.01.32-.6.62-.23 1.24l.84-2.34-.65.72c-.2-.25-.36-.28-.36-.73 0-.46.51-.52.51-.74 0-.17-.26-.2-.45-.2-.3-.01-.8.24-.8.76 0 .54.36.8 0 1.3l-.09.12s-.21.24-.21.67c0 .85.69.93.65.59Zm1.04-.5c-.11.3-.44.39-.58.66.08 0 .54-.1.71-.4.16-.27 0-1.07.53-1.27.55-.2 1.13-.51.47-1.17 1 .26.43 1.31.32 1.46-.1.15-.48.43-.48.9 0 .34-.31.73-.56.78.26.11.64-.48.64-.48l1.24-1.59-.71.36s.2-.17.2-.72c0-.79-.85-.93-.85-.68 0 .16.3.28.3.55s-.37.41-.67.5l-.13.06c-.47.24-.31.7-.43 1.04ZM6.99 7.4c-1 0-.27-1.06-1-1.22.37.25.17.48.17.9 0 .49.6.64.83.32Zm2.64 1.87c-.07.04-.2.08-.32.16-.02.01-.03.09-.06.1.13.03.37-.14.38-.26ZM5.5 8.04a.88.88 0 0 1-.93-.35c-.2-.22-.42-.28-.72-.28-.1 0-.19.04-.25.08-.07.04-.09.1-.07.15.02.08.13.06.25.06.1 0 .22 0 .31.03.08.03.14.1.22.2.26.44 1.04.6 1.19.11Zm-.4 2.07c-.53-.24-.67.6-1.26.47 0 .36.55.2.78.03.23-.18.35-.47.47-.5Zm3.44-.18c-.04 0-.06 0-.06.02s.03.04.06.04c0 0 .3.07.47.07.18.01.47-.07.47-.07.04-.01.06-.02.06-.04 0-.01-.02-.02-.06-.02h-.94Zm-.2-.95c.02.2.32.26.44.24-.38-.08-.35-.3-.23-.34.02-.08-.21-.06-.2.1Zm-.15.26c.01.08.36.22.36.22s-.08.06-.27 0c.1.16.33.16.33.16s-.02.1-.27.02c.06.18.33.23.41.2.1-.02.2-.32.15-.4 0-.01-.36-.18-.71-.2Zm-.33 4.4c0-.47-.32-.59-.32-1.16 0-.62.77-.62.77-1.1 0-.5-.66-.7-.66-1.63-.18 1.11.47 1.22.47 1.66 0 .43-.74.32-.74 1.08 0 .46.3.68.3 1.17 0 .48-.3.6-.3.6.12 0 .48-.1.48-.62Zm.53-3.3c.27.45.42.72.31 1.1-.1.38-.51.57-.62 1.02-.08.33.08.71.01 1 0-.25-.3-.6-.2-1.02.1-.42.74-.64.74-1.1 0-.45-.48-.87-.62-1.23-.04.44.42.75.42 1.25s-.71.61-.71 1.15c0 .42.25.73.25 1.14 0 .3-.21.6-.21.6.85-.46.36-1.04.51-1.76.1-.44.46-.59.6-.95.13-.32.02-.85-.48-1.2Zm1.38 1.26c.1-.2.3-.43-.2-1.26.3 1.1-.3 1.2-.2 1.75.1.63.5.6.53 1.06.03.46-.27.65-.05.96.2.3.82.18.69.57.2-.39-.29-.43-.37-.85-.08-.4.31-.7.25-1-.12-.4-.9-.75-.65-1.23Zm-.04-2.18c-.02.02-.1.06-.26.12l-.12.13c.19.05.42-.15.38-.25Zm-.3-1.89c.28 0 .32-.13.54-.13.21 0 .28.13.46.13.17 0 .27-.12.19-.22-.11.17-.31-.07-.46-.07-.22 0-.31.1-.46.16-.27.13-.49-.23-.24-.43-.38.07-.31.56-.03.56ZM8.12 6.4a.27.27 0 0 1-.1-.03c-.14-.1-.22-.35-.37-.32.1.07.05.3.17.44.06.07.15.1.25.1.17 0 .32-.14.32-.31 0-.11-.05-.2-.12-.26-.11-.08-.27-.14-.74-.3-1.12-.38.55-1.5-.22-2.13.42.91-.81 1.44-.18 2.07.29.28.9.24 1.1.46.03.02.05.06.05.12 0 .09-.07.16-.16.16Zm.12.9c-.21 0-.46.23-.5.09-.04-.12.18-.33.47-.34-.24-.07-.63.15-.7.4-.08.02-.2-.1-.2-.1.07.56.58.08.78.08.18 0 .73.4.75-.1-.22.22-.36-.02-.6-.02ZM6.57 5.18c.02-.36.27-.7.25-1.07 0-.55-.63-.03-.73-.27-.25-.61 1.62-.92 1.61.16-.01.58-.18 1.2.28 1.27l.34-1.39.37 2c-.33-.42-.93-.26-1.08-.92-.13-.45.44-1.64-.88-1.55 1.52.47-.85 1.75.57 2.58.37.23.5.62.33.79-.02-.56-.58-.63-.78-.87a.96.96 0 0 1-.27-.57l-.01-.16Zm1.83 3c-.17-.09-.62-.12-.8-.38.2-.1.41-.27.59-.24.39.08.25.57.21.62Zm-.3-.54c-.24-.06-.32.29-.13.36.01-.12.12-.34.14-.36Zm.15.08c0 .02-.06.24-.14.32.14.06.32-.19.14-.32Zm1.61-.16c.18-.04.4.14.6.24-.2.26-.64.29-.81.38-.06-.05-.2-.54.21-.62Zm.2.44c.2-.07.11-.42-.13-.36.01.02.12.24.13.36Zm-.13.04c-.08-.08-.14-.3-.15-.32-.17.13 0 .38.15.32Z" fill="#9D833E"/></svg>