<!-- by TradingView --><svg width="18" height="18" viewBox="0 0 18 18" xmlns="http://www.w3.org/2000/svg"><path fill="#F0F3FA" d="M0 0h18v18H0z"/><path d="M8.84 8.18 10 6c-3.07.69-4.04 2.64-4.38 3.49a4.49 4.49 0 0 1 3.22-1.3Z" fill="#0392E3"/><path d="M7.6 13.14 6.9 15c-2.95-2.02-1.66-4.81-1.29-5.51-.1 2.33 1.3 3.4 2 3.65ZM11.09 3l-.57 1.55c1.42.8 2 2.37 2.16 3.07 1.02-2.41-.64-4.08-1.6-4.62Z" fill="#1B3886"/><path d="M8.62 10.16 8 12c4.46-.65 4.54-3.57 4.64-4.28-.76 1.83-3 2.39-4.02 2.44Z" fill="#0392E3"/></svg>