<!-- by TradingView --><svg width="18" height="18" viewBox="0 0 18 18" xmlns="http://www.w3.org/2000/svg"><path fill="#F0F3FA" d="M0 0h18v18H0z"/><path d="M11.04 14.2a8.69 8.69 0 0 0-4.16 1.6c.07.01.26.09.48.2a6.11 6.11 0 0 1 3.76-1.67l-.08-.14Z" fill="#007216"/><path d="M6.96 14.2a8.69 8.69 0 0 1 4.16 1.6c-.07.01-.26.09-.48.2a6.11 6.11 0 0 0-3.76-1.67l.08-.14Z" fill="#007216"/><path fill-rule="evenodd" d="M9 13.64a4.75 4.75 0 0 0 4.76-4.73A4.75 4.75 0 0 0 9 4.18a4.75 4.75 0 0 0-4.76 4.73A4.75 4.75 0 0 0 9 13.64Zm0-.2a4.55 4.55 0 0 0 4.57-4.53c0-2.5-2.05-4.53-4.57-4.53a4.55 4.55 0 0 0-4.57 4.53c0 2.5 2.05 4.53 4.57 4.53Z" fill="#C20E1E"/><path fill-rule="evenodd" d="M9 12.45c1.99 0 3.6-1.58 3.6-3.54A3.57 3.57 0 0 0 9 5.36a3.57 3.57 0 0 0-3.6 3.55A3.57 3.57 0 0 0 9 12.45Zm0-.2c1.87 0 3.39-1.5 3.39-3.34A3.36 3.36 0 0 0 9 5.57a3.36 3.36 0 0 0-3.39 3.34A3.36 3.36 0 0 0 9 12.24Z" fill="#C20E1E"/><path d="M8.33 8.9s.02.01 0 .06c.16.1.16.06.16 0v-.04c-.03-.02-.01-.03 0-.04h-.1l-.05.01h-.01Zm-.64-1.98h.04l.08-.02.02.07c.05.26.14.69.26.83.08 0 .12-.03.14-.06.05-.03.09-.06.3.02.21.07.3.08.52.07.22-.01.29-.04.43-.1l.02-.02c.18-.08.26-.06.37-.04l.16.04c.02-.23-.01-.45-.05-.65-.03-.2-.06-.37-.03-.51.22 0 .23.26.24.53 0 .14.01.29.05.4l.32-.03c.15.22.16.37-.06.52a.45.45 0 0 1-.27-.06c-.08-.04-.14-.07-.26.02-.14.01-.17-.01-.2-.03-.02-.03-.05-.05-.24.01-.3.1-.63.18-.97.09a1.13 1.13 0 0 1-.1-.03c-.11-.05-.2-.08-.32.07-.12.01-.15 0-.19-.04a.42.42 0 0 0-.15-.06c.03.19.03.38.03.57 0 .18 0 .37.03.54.17-.01.24-.1.31-.19.09-.1.16-.2.4-.15.07.13.08.28.03.47l-.24-.01c-.16-.02-.31-.04-.34.11-.26 0-.28-.02-.3-.04-.02-.03-.04-.06-.19-.09l-.12.4a1.7 1.7 0 0 0-.13.08c-.19.14-.43.31-.74.15.02-.06.12-.1.24-.13.15-.05.35-.1.48-.29.2-.25 0-.27 0-.27l.02-.2c.05 0 .1 0 .16.02.16.05.27.08.2-.5l-.08-.28c-.1.03-.14.06-.18.12a.86.86 0 0 1-.53-.01l-.04-.1c-.04-.1-.06-.15-.04-.35.03-.18.1-.28.22-.35.02.04 0 .1 0 .19a.6.6 0 0 0-.01.38c.16.05.2.04.3.02l.1-.03c.27-.15.24-.25.2-.37-.02-.08-.05-.16.02-.28.12.06.11.1.1.15-.01.05-.03.1.08.15.07-.09.05-.13.02-.22a1.02 1.02 0 0 1-.04-.12l-.03-.14c-.05-.17-.06-.23-.04-.25Zm3.04 3.18c-.48.23-.91.07-.8-.49v-.04c-.01-.34-.02-.99-.13-1.21a.57.57 0 0 0-.32.1c0 .02-.02.02-.03.03a1.29 1.29 0 0 1-.07-.13l-.02-.06c-.08 0-.14.03-.18.04-.08.02-.11.03-.17-.08.06-.1.25-.13.37-.14h.02l.13.17.11-.04.05-.02h.19l.03.03.12.16c-.01.17.01.38.04.58l.04.26v.28c0 .18 0 .28.16.46h.08c.12.02.17.03.29-.04-.05-.12-.07-.12-.14-.12l-.15-.01c-.09-.27.28-.58.54-.59.15 0 .15 0 .17.04 0 .02.02.05.1.1.1-.05.08-.07.06-.09-.01-.02-.02-.02.17-.05l.01.25c-.3.2-.33.16-.38.08l-.06-.07c-.16-.13-.3 0-.35.15.13.12.24.12.35.12.07 0 .13 0 .19.02l.12.08c-.06.1-.07.1-.13.1-.06.01-.16.02-.4.13ZM8.8 8.83l.03.37c.04.38.07.7-.16.78-.08.1-.4.25-.64.25-.14 0-.26-.06-.3-.21-.05-.15-.02-.3.01-.45.01-.05.03-.1.03-.16-.2.05-.3.19-.31.5-.02.28.07.4.28.5.37.16.67-.03.9-.18l.23-.13c.06-.06.16-.06.24-.06h.08c.27-.05.38-.46.13-.6a.23.23 0 0 0-.02.22c.02.06.04.11-.1.17-.24 0-.25-.53-.25-.82v-.14l-.01-.14c-.02-.32-.03-.46-.2-.51-.02.12 0 .22.02.33l.04.28Zm.2 2c-.16.03-.31.06-.47.07-.38.04-.88.05-1.2-.13-.25-.14-.6-.37-.46-.71.08.02.1.05.12.1.02.03.04.07.1.1 0 .31.72.46 1.1.46.38 0 .63-.06.92-.13l.43-.1.48-.1-.08.18c-.04.07-.07.12-.09.28-.07-.09-.07-.1-.07-.12l-.02-.1h-.03c-.13.02-.16.02-.26.12-.15.01-.31.04-.47.08Zm.6-.7h.11a9.33 9.33 0 0 0-.1-1.54l-.07-.01c-.06.08-.03.26 0 .44l.02.24v.26c0 .18 0 .36.02.55.03.04.02.05.01.06Zm.73-1.55.02-.03a.53.53 0 0 0 .3-.17c.1-.08.19-.16.34-.17-.01.19-.12.25-.24.32-.07.05-.15.1-.21.18l-.24.06c0-.1.01-.13.04-.19ZM8.04 9.79c.22-.01.48-.12.47-.33a.47.47 0 0 0-.27.06h-.01c-.02.02-.03.03-.05.03-.12.06-.13.07-.14.24Zm2.68.6.01-.16.2-.04.1-.02c.1-.03.15.02.13.14l-.44.08Zm.3-1.55c-.02-.13-.32-.16-.29.03.03.17.32.13.3-.03Zm-.7 1.65c-.01-.03-.02-.07.14-.03.1.02.1.03.1.05-.01.01-.02.03 0 .06l-.01.03c0 .04-.02.08-.13.07-.07-.01-.1-.02-.1-.03v-.03l-.01-.09v-.03Zm-1.83.78c.1-.01.1-.02.1-.07v-.11c0-.02.01-.03-.14-.03-.11 0-.11 0-.1.02 0 0 .03.02 0 .05v.05c0 .06 0 .1.14.09Zm.9-4.05-.04.04-.16.02-.02-.26.09.01c.05 0 .08.01.1.03l.02.1v.06Zm-.24 1.66.01.23c.2 0 .21-.12.16-.28a.4.4 0 0 1-.05 0h.02-.02l-.02.02-.1.03ZM7.2 8.57c-.05-.12-.1-.13-.23-.1-.08.23.1.27.23.1ZM8.45 7.2l-.2-.05v.25l.05-.02c.05 0 .08-.01.1-.03l.03-.09.02-.06Zm2.49 3.28h.12l-.02.14h-.13s.06-.02 0-.06c.05-.07.03-.08.03-.08Z" fill="#007216"/><path d="M5.24 8.9A3.76 3.76 0 0 1 8 5.3l-.18-.61a4.4 4.4 0 0 0-3.15 4.99h.65c-.05-.25-.08-.5-.08-.76Zm1.17 2.73a3.74 3.74 0 0 0 5.14.03l.37.53a4.38 4.38 0 0 1-5.9-.05l.4-.5Zm6.92-1.96h-.65a3.77 3.77 0 0 0-3.92-4.5v-.65H9a4.4 4.4 0 0 1 4.33 5.15Z" fill="#C20E1E" fill-opacity=".5"/><path d="M7 3c-2.33.87-4 3.23-4 6a6.35 6.35 0 0 0 4 6v-1.14A5.32 5.32 0 0 1 4 9a5.32 5.32 0 0 1 3-4.86V3Zm4 10.86c1.77-.82 3-2.69 3-4.86a5.32 5.32 0 0 0-3-4.86V3c2.33.87 4 3.23 4 6a6.35 6.35 0 0 1-4 6v-1.14Z" fill="#007216" fill-opacity=".5"/></svg>