<!-- by TradingView --><svg width="18" height="18" viewBox="0 0 18 18" xmlns="http://www.w3.org/2000/svg"><path fill="#F0F3FA" d="M0 0h18v18H0z"/><path d="M4.14 7.33C3.42 7.36 2 7.66 2 8.66c0 .5.75 1.28 2 2.04v1.38c0 .14.1.25.23.25h1.04c.13 0 .23-.1.23-.25v-.6c1.87.85 4.34 1.52 7.01 1.52 5.71 0 3.8-3.62-1.3-4.92 1.21.44 3.65 1.63 3.65 2.86 0 1.54-4.85 1.35-7.45.52-2.6-.83-6.85-2.92-3.27-4.13Z" fill="#72A94E"/><path d="M4.23 6H6.7c1.18 0 2.13.98 2.13 2.2v.27c0 1.21-.95 2.03-2.13 2.03H5.54A8.98 8.98 0 0 1 4 9.72V6.24c0-.13.1-.24.23-.24ZM14 11.58v-.75c0-.09-.07-.16-.15-.16h-2.71c-.08 0-.14-.07-.14-.16v-.69c0-.08.06-.15.14-.15h2.1c.09 0 .12-.08.12-.16v-.98c0-.09-.03-.16-.12-.16h-2.1c-.08 0-.14-.07-.14-.15V7.5c0-.09.06-.17.14-.17h2.7c.1 0 .16-.06.16-.15V6.16a.16.16 0 0 0-.15-.16h-4.2a.16.16 0 0 0-.15.16v5.56c.74.14 1.56.24 2.46.24a4.4 4.4 0 0 0 2.04-.38ZM5.74 7.5c-.13 0-.24.08-.24.18v1.14c0 .1.1.18.24.18h.75c.56 0 1.01-.34 1.01-.75s-.45-.75-1.01-.75h-.75Z" fill="#10495E"/></svg>