<!-- by TradingView --><svg width="18" height="18" viewBox="0 0 18 18" xmlns="http://www.w3.org/2000/svg"><path fill="#F0F3FA" d="M0 0h18v18H0z"/><circle cx="11.5" cy="8.5" r="1.5" fill="#F9B563"/><circle cx="14" cy="6" r="1" fill="#F9B563"/><circle cx="15.5" cy="5.5" r=".5" fill="#F9B563"/><path d="M4 9h1.1a1.23 1.23 0 0 1 0 2.46H4V13H3V9h1Zm0 .62v1.23h1.05a.62.62 0 1 0 0-1.23H4Z" fill="#006C93"/><path d="M7 11.92 8 9h1l-1.51 4H6.5L5 9h1l1 2.92Z" fill="#F9B563"/><path d="M10 11.92 11 9h1l-1.51 4H9.5L8 9h1l1 2.92Z" fill="#006C93"/></svg>