<!-- by TradingView --><svg width="18" height="18" viewBox="0 0 18 18" xmlns="http://www.w3.org/2000/svg"><path fill="#F0F3FA" d="M0 0h18v18H0z"/><path d="M6.85 11.17c-.1.16-.08.07-.1.27.2.16.11.15.43.18-.02.34-.17.16-.18.45.11.1.19.14.25.13.14-.01.21-.23.5-.25 0 .9-.76.57-1 .62v.1c0 .23.13.43.3.5a.4.4 0 0 0 .18.06c.16 0 .2-.25.35-.26.04 0 .1.02.17.05v.44c0 .28.13.54.55.54.07-.19.1-.34.1-.46-.01-.46-.39-.51-.3-.92.04-.21.17-.25.22-.42a.38.38 0 0 0 .02-.13c-.02-.26-.31-.45-.34-.8 0-.35.14-.2.14-.48 0-.31-.11-.07-.14-.32v-.15c0-.8 0-1.44.7-1.65.14-.04.25-.06.35-.05.23 0 .4.07.43.37l.02.2c0 .47-.41.42-.5.7.13.31.26.29.52.44.02.24-.02.42-.02.57 0 .14.04.25.2.38.22.17.23.06.35.34.08.2.29.24.08.28-.15.04-.26 0-.44.19-.1.1-.2.25-.19.42 0 .05.01.11.04.17.05.03.1.04.15.04.14 0 .28-.13.52-.16.27-.04.56-.03.78-.1a.81.81 0 0 0 .01-.17c-.01-.44-.45-.65-.28-.88.13-.17.3-.2.35-.46.1-.47-.01-.2.2-.6.22-.45.47-2.05.5-2.64.02-.56.2-.81.22-1.28V6.1c0-.39-.04-.92-.1-1.14-.19-.62-.51-.8-.89-.8-.6.01-1.36.48-1.92.37-.21-.04-.27-.2-.54-.27-.24-.07-.4-.03-.66-.13-.23-.1-.46-.14-.67-.14-.41 0-.77.17-.98.55-.22.41-.3 3.04-.15 3.6.13.5-.03.37 0 .62.01.25.18.08.17.59-.02 1.15.56 1.73.6 1.8Z" fill="#016F52"/><path d="M10.16 13.99c.15.04.2-.04.31-.15.04-.93-.34-.5-.3.15Z" fill="#037151"/><path d="M7.14 14.45c-.27.32-.13.65.31.52.06-.2.07-.3.01-.5l-.32-.02Z" fill="#026E51"/><path d="M11.5 13.5c.04-.35-.08-.5-.45-.5-.12.42-.04.66.44.5ZM9.88 14.12c-.3-.24-.31-.2-.49.1.25.34.42.3.5-.1Z" fill="#037151"/><path d="M10.32 14.86c.3.23.37.18.43-.21-.33-.23-.34-.12-.43.21Z" fill="#057553"/></svg>