<!-- by TradingView --><svg width="18" height="18" viewBox="0 0 18 18" xmlns="http://www.w3.org/2000/svg"><path fill="url(#aqz2hwc2j)" d="M0 0h18v18H0z"/><path d="M14.3 10.95A3.74 3.74 0 0 1 11.7 12a3.59 3.59 0 0 1-3.6-3.5C8.1 6.56 9.75 5 11.7 5c.98 0 1.96.4 2.6 1.04L13.04 7.7c-.23-.34-.75-.7-1.43-.7C10.54 7 10 7.8 10 8.5s.52 1.5 1.6 1.5a1.7 1.7 0 0 0 1.44-.64l1.26 1.6Z" fill="#fff"/><path d="M7.5 11.87c-.27.07-.73.13-.97.13A3.44 3.44 0 0 1 3 8.48C3 6.38 4.62 5 6.53 5A3.48 3.48 0 0 1 10 8.23H10V14c-.68.01-2-.54-2-1.75V8.5A1.5 1.5 0 1 0 6.5 10c.3 0 .76-.09 1-.24v2.11Z" fill="#fff"/><defs><linearGradient id="aqz2hwc2j" x1="3.35" y1="3.12" x2="21.9" y2="24.43" gradientUnits="userSpaceOnUse"><stop stop-color="#1A1E21"/><stop offset="1" stop-color="#06060A"/></linearGradient></defs></svg>