<!-- by TradingView --><svg width="18" height="18" viewBox="0 0 18 18" xmlns="http://www.w3.org/2000/svg"><path fill="#264A94" d="M0 0h18v18H0z"/><path d="M11 6.41a11.88 11.88 0 0 0-2-3.2 12.61 12.61 0 0 0-5.8 4.04v.04a11.6 11.6 0 0 0 2.53 2.77 8.1 8.1 0 0 0-.28 2.19 23.91 23.91 0 0 0 .07 1.54h.04c1.22-.3 2.39-.8 3.44-1.47a11.8 11.8 0 0 0 3.48 1.47 11.71 11.71 0 0 0 2.33-6.54l-.02-.01-.02-.02c-1.17-.44-2.5-.75-3.76-.8Z" fill="#068E4B"/><circle opacity=".4" cx="8.99" cy="9" r="2.71" fill="#8FB744"/><circle opacity=".65" cx="8.99" cy="9" r="2.41" fill="#8ABB3E"/><circle opacity=".8" cx="8.99" cy="9" r="2.11" fill="#91BD3D"/><path d="M9 3h.03c.05 0 .13.07.16.11.78.9 1.5 2.02 1.95 3.12a12.8 12.8 0 0 1 3.78.86c.03.03.05.05.06.09l.01.01v.02a.24.24 0 0 1-.03.2c-.66.99-1.51 1.95-2.47 2.71.19.7.25 1.44.25 2.18 0 .5-.02.99-.05 1.46-.01.14-.08.24-.22.24l-.09-.02c-1.2-.3-2.34-.8-3.38-1.43A11.97 11.97 0 0 1 5.53 14a.22.22 0 0 1-.13-.04.24.24 0 0 1-.1-.2c-.03-.48-.04-1-.04-1.51 0-.72.07-1.44.25-2.11A11.9 11.9 0 0 1 3.04 7.4.25.25 0 0 1 3 7.22V7.2l.02-.03c.03-.06.08-.1.14-.12 1.15-.43 2.46-.74 3.7-.81.46-1.12 1.17-2.2 1.96-3.12.04-.05.1-.1.16-.11H9Zm0 .48a11.2 11.2 0 0 0-1.82 3l-.05.12H7c-1.17.06-2.42.33-3.53.74A11.3 11.3 0 0 0 5.85 9.9l.1.08-.03.13c-.2.67-.27 1.4-.27 2.13 0 .44 0 .89.03 1.32 1.14-.3 2.23-.79 3.22-1.41l.1-.07.1.07c1 .62 2.08 1.1 3.21 1.4.03-.4.04-.84.04-1.26 0-.76-.07-1.51-.26-2.2l-.04-.12.1-.08c.91-.7 1.73-1.61 2.38-2.56-1.11-.4-2.36-.68-3.53-.74h-.13l-.05-.12a11.67 11.67 0 0 0-1.82-3Z" fill="#fff"/><path d="M9.24 8.14 9 4.42l-.24 3.72a.1.1 0 0 1-.17.05L7.11 6.44l-.1.08 1.2 1.97a.1.1 0 0 1-.1.14L4.55 7.6 8 9.1a.1.1 0 0 1 .06.08.1.1 0 0 1-.06.09l-2.2.78.06.14 2.25-.46a.1.1 0 0 1 .1.14l-2.05 3.12 2.44-2.82a.1.1 0 0 1 .17.05l.16 2.16h.16l.16-2.16a.1.1 0 0 1 .17-.05l2.44 2.82L9.8 9.86a.1.1 0 0 1 .1-.14l2.24.45.06-.13L10 9.26c-.03-.01-.06-.05-.06-.08a.1.1 0 0 1 .06-.1l3.43-1.49L9.9 8.63a.1.1 0 0 1-.1-.14l1.19-1.97-.11-.08-1.47 1.75a.1.1 0 0 1-.08.03.1.1 0 0 1-.09-.08Z" fill="#fff"/><path d="m13.43 7.57.02.04-3.43 1.5a.08.08 0 0 0-.05.07c0 .02.02.05.05.06l2.2.79-.06.16-2.27-.45a.08.08 0 0 0-.08.11l2.06 3.12-.03.02-2.45-2.82a.07.07 0 0 0-.13.04L9.1 12.4h-.2l-.16-2.17a.08.08 0 0 0-.13-.05L6.16 13l-.03-.02L8.2 9.85a.08.08 0 0 0-.08-.11l-2.27.46-.07-.17 2.21-.79a.07.07 0 0 0 .05-.07.07.07 0 0 0-.05-.07L4.55 7.61l.02-.04L8.1 8.61a.08.08 0 0 0 .08-.11l-1.2-1.99.12-.1 1.5 1.77c.01.02.03.02.05.02.04 0 .08-.02.08-.06l.24-3.72h.04l.24 3.72c0 .04.04.07.07.06.02 0 .05 0 .06-.02l1.49-1.77.14.1-1.2 1.99c-.04.06 0 .13.07.11l3.54-1.04ZM9.9 8.63a.1.1 0 0 1-.1-.14l1.19-1.97-.11-.08-1.47 1.75a.1.1 0 0 1-.08.03.1.1 0 0 1-.09-.08L9 4.42l-.24 3.72a.1.1 0 0 1-.17.05L7.11 6.44l-.1.08 1.2 1.97a.1.1 0 0 1-.1.14L4.55 7.6 8 9.1a.1.1 0 0 1 .06.08.1.1 0 0 1-.06.09l-2.2.78.06.14 2.25-.46a.1.1 0 0 1 .1.14l-2.05 3.12 2.44-2.82a.1.1 0 0 1 .17.05l.16 2.16h.16l.16-2.16a.1.1 0 0 1 .17-.05l2.44 2.82L9.8 9.86a.1.1 0 0 1 .1-.14l2.24.45.06-.13L10 9.26c-.03-.01-.06-.05-.06-.08a.1.1 0 0 1 .06-.1l3.43-1.49L9.9 8.63Z" fill="#fff"/></svg>