<!-- by TradingView --><svg width="18" height="18" viewBox="0 0 18 18" xmlns="http://www.w3.org/2000/svg"><path fill="#F0F3FA" d="M0 0h18v18H0z"/><path d="M4 11.33v-6.8l4.41-.5c.42-.04.81-.04 1.17 0l4.37.5c.03 0 .05.02.05.05v6.22c0 1.14-.47 1.84-1.53 2.52-1 .64-2.13 1.2-3.38 1.66a.23.23 0 0 1-.16 0c-1.65-.6-2.98-1.3-3.99-2.08A2.5 2.5 0 0 1 4 11.33Z" fill="#006851"/><path d="M11.8 13.19A17.81 17.81 0 0 1 9 14.44l-.09-.01c-1.2-.43-2.27-.95-3.2-1.55-.9-.58-1.36-1.18-1.35-2.14V4.89c0-.02 0-.04.02-.06a364.98 364.98 0 0 0 3.44-.4c.6-.07 1.14-.14 1.73-.07a288.36 288.36 0 0 0 4.07.48c.02.01.02.04.02.06v5.95c0 1.13-.83 1.77-1.84 2.34Z" fill="#FDD700"/><path d="M7.05 10.11c0 .05-.02.08-.06.1a.3.3 0 0 1-.16.01 5.7 5.7 0 0 1-1.38-.39c-.07-.03-.1 0-.1.06.03.23.15.42.35.57.05.04.08.08.09.14l-.01.06c-.03.07 0 .1.07.07.06-.01.11-.03.16-.07.07-.04.12-.03.17.03l.15.23a.05.05 0 0 1 0 .05L6.3 11l-.03.01-.58-.04-.07-.02a.15.15 0 0 1-.05-.05l-.7-1.17c-.03-.06-.02-.1.03-.14.36-.26.83-.12 1.26-.12l.05-.01a.1.1 0 0 0 .04-.03.8.8 0 0 0 .16-.42c0-.32.25-.72.4-1.01.1-.2.03-.27-.2-.2-.23.05-.37.16-.44.32-.06.15-.18.22-.35.21a.16.16 0 0 1-.11-.04c-.1-.08-.11-.17-.06-.27.15-.3.36-.59.62-.85.04-.05.05-.1.02-.15l-.04-.06c-.04-.06-.01-.1.07-.09l.63.04c.8.04 1.2.87 1.28 1.5.01.05.05.08.1.08.25.02.49 0 .73-.06.07-.01.08-.05.04-.1a1.78 1.78 0 0 1-.38-.99c0-.05-.04-.1-.1-.12l-.75-.33c-.06-.02-.07-.06-.03-.1.16-.23.23-.45.23-.69 0-.04.02-.08.04-.1a.9.9 0 0 0 .18-.3.1.1 0 0 0 0-.07.11.11 0 0 0-.02-.05.14.14 0 0 0-.05-.03.15.15 0 0 0-.07-.02.3.3 0 0 1-.1-.01c-.06-.02-.06-.04 0-.06l.61-.16.08.01a.1.1 0 0 1 .05.05.1.1 0 0 0 .05.05 95.51 95.51 0 0 1 2.3.03 3 3 0 0 1 .48.05c.22.03.21.05 0 .05H8.92a.16.16 0 0 0-.05.04.15.15 0 0 0-.05.15c.01.06-.02.08-.08.06-.03-.01-.05-.03-.05-.06v-.01l-.02-.02a.05.05 0 0 0-.04 0c-.04.01-.07.04-.08.07a9.76 9.76 0 0 0-.25.93l.05.03.76.22c.03 0 .05.02.07.04a.1.1 0 0 1 .01.06c0 .1 0 .19.04.28.02.07.05.07.09 0l.18-.29a.1.1 0 0 0 .01-.08.1.1 0 0 0-.05-.06c-.18-.1-.22-.24-.13-.45a.11.11 0 0 0-.02-.13.44.44 0 0 0-.22-.13l-.03-.02-.01-.02v-.02l.01-.02c.09-.07.18-.1.28-.1.04 0 .08 0 .1.04.18.17.4.21.64.12a.19.19 0 0 1 .12-.01c.12.03.22.1.3.19.05.04.03.06-.03.06l-.46.01c-.05 0-.08.02-.1.06l-.22.39c-.05.08-.02.13.08.14l.4.05c.06 0 .1.02.15.06.2.14.4.26.63.36.13.05.14.12.02.2-.19.13-.3.27-.3.44 0 .04-.02.07-.06.1l-.16.14c-.07.07-.05.1.05.1l.36-.02c.05 0 .1.01.14.03l.63.25h.1c1.13-.33.46 1.32 1.39 1.46.06 0 .07.03.04.08a.42.42 0 0 1-.26.15c-.5.09-.76-.14-.78-.68a2.42 2.42 0 0 0-.16-.77h-.05c-.04 0-.06.02-.04.06.21.38.08.86-.12 1.22-.16.31-.05.68.08.99.02.05.02.1 0 .16-.17.34-.26.7-.27 1.06 0 .07-.03.12-.08.17-.05.05-.06.12-.02.18.04.08 0 .12-.09.12h-.41l-.04-.02a.07.07 0 0 1-.03-.02v-.07c.33-.46.54-.83.5-1.41 0-.02 0-.04-.02-.06a.16.16 0 0 0-.05-.05c-.4-.28-.7-.65-.85-1.12-.01-.02-.03-.03-.05-.02l-.04.02v.01c.09.2.2.4.18.6-.01.13.01.25.08.37a.16.16 0 0 1-.02.17c-.2.3-.33.6-.39.94 0 .04-.03.08-.07.1-.1.07-.1.14-.04.23.03.04.02.06-.03.06h-.45c-.03 0-.05 0-.05-.04 0-.07.02-.14.08-.2.32-.3.52-.67.59-1.08 0-.04 0-.08-.04-.12a3.2 3.2 0 0 1-.6-.82.1.1 0 0 0-.08-.01.1.1 0 0 0-.04.02c-.18.14-.37.23-.57.27h-.07a.1.1 0 0 1-.05-.04l-.03-.05c-.02-.04 0-.06.04-.07.11-.02.2-.08.25-.16.04-.07.03-.08-.04-.02-.18.14-.4.2-.67.17l-.1.01a.14.14 0 0 0-.05.06c-.06.12-.1.25-.12.39-.05.46-.07.91-.06 1.35a.7.7 0 0 1-.06.31.2.2 0 0 0 0 .18.07.07 0 0 1 0 .08l-.04.03a.1.1 0 0 1-.04 0h-.45c-.06 0-.08-.02-.06-.07.07-.14.16-.26.27-.37a.2.2 0 0 0 .08-.14 8.9 8.9 0 0 0-.08-1.36c-.04-.35-.39-.54-.55-.86-.04-.09-.06-.08-.06.01Z" fill="#006851"/><path d="M9.71 6.48a.63.63 0 0 1-.14.25.09.09 0 0 1-.04.03.1.1 0 0 1-.04 0 .09.09 0 0 1-.04-.02.07.07 0 0 1-.03-.03.9.9 0 0 1-.03-.22c0-.08.03-.12.1-.13.06 0 .11 0 .17.02.05.02.06.05.05.1ZM9.76 8.2l.18-.63c.02-.07.08-.1.16-.08l.33.09c.1.02.12.07.08.14l-.34.62c-.03.05-.08.07-.14.04a.66.66 0 0 0-.67.11l-.03-.03V8.4l.02-.02c.1-.05.2-.08.3-.1.03 0 .05-.01.07-.03a.12.12 0 0 0 .04-.05ZM8.4 9.1l.44.75a.04.04 0 0 1 0 .04l-.02.02H8.38l-.04-.01-.01-.03-.02-1.13v-.02l.02-.01.01-.01h.02l.41.03h.03l.02.03v.03l-.02.02-.38.23-.02.03v.03ZM9.2 9.81c-.03-.14-.07-.42-.18-.53-.04-.04-.03-.06.02-.08l.7-.22c.06-.01.11 0 .15.03.13.1.27.17.42.22l.07.05c.02.02.03.05.03.08l-.02.47c0 .06-.03.09-.1.08l-.98-.01c-.07 0-.1-.03-.11-.09Z" fill="#FDD700"/></svg>