<!-- by TradingView --><svg width="18" height="18" viewBox="0 0 18 18" xmlns="http://www.w3.org/2000/svg"><path fill="#F0F3FA" d="M0 0h18v18H0z"/><path d="m8.08 8.26.3-.11a7.3 7.3 0 0 0 .94-.5v-.03a83.72 83.72 0 0 1-.21-.74 9.56 9.56 0 0 0-.84-1.81c-.04-.06-.07-.1-.14-.11l-.46-.09a12.06 12.06 0 0 1-.56-.12l.2-.02.15-.01A6.71 6.71 0 0 1 8 4.68a11.14 11.14 0 0 0-.36-.63.01.01 0 0 1 .02 0c.29.17.56.38.83.62.02.03.05.03.09.03a5.83 5.83 0 0 1 2.04.39c.3.13.62.3.76.63.08.19.07.36 0 .55l-.1.2a3.48 3.48 0 0 1-1.34 1.12v.27c0 .07.03.16.07.21l.7.91a35.88 35.88 0 0 0 1.54 1.8 5.3 5.3 0 0 0 .74.62V4.03c0-.02-.01-.03-.03-.03H5v.01L5 4.02V14l.02.01h7.96l.01-.02.01-.07v-2.14c0-.02 0-.02-.02 0l-.01.05a.03.03 0 0 1-.01.03.02.02 0 0 1-.03 0 3.5 3.5 0 0 1-.86-.53 5.8 5.8 0 0 1-.96-.98 8.42 8.42 0 0 1-1.1-1.9c-.03-.04-.03-.03-.03 0a6.32 6.32 0 0 1-.48 2.72l.06-.3c.03-.26.06-.5.07-.76.03-.37 0-.74-.05-1.1l-.13-.88-.03-.15a2.07 2.07 0 0 1-.04-.1.02.02 0 0 0-.02 0 7.68 7.68 0 0 1-1.28.39Zm2.64-2.2c-.03-.25-.4-.43-.6-.52a7.36 7.36 0 0 0-1.1-.34c.27.35.48.73.63 1.13a5.56 5.56 0 0 1 .27.94c.26-.2.48-.4.67-.69.1-.16.16-.34.13-.52Z" fill="url(#aqjyskv3y)"/><defs><linearGradient id="aqjyskv3y" x1="10.81" y1="4.36" x2="6.65" y2="13.55" gradientUnits="userSpaceOnUse"><stop stop-color="#F8B117"/><stop offset="1" stop-color="#E83E0C"/></linearGradient></defs></svg>