<!-- by TradingView --><svg width="18" height="18" viewBox="0 0 18 18" xmlns="http://www.w3.org/2000/svg"><path fill="#F0F3FA" d="M0 0h18v18H0z"/><path d="M11.66 5.64c-1.07-1.3-2.8-1.53-4.4-1.09-.42.1-.84.22-1.26.35-.3.09-.56.12-.8.09-.47-.06-.66-.64-.23-.88.17-.1.16-.13-.04-.1-1.28.16-1.25 1.93.14 1.94.29 0 .48-.01.58-.05.7-.25 1.4-.48 2.11-.7a3.74 3.74 0 0 1 1.9-.08c.13.05.12.06 0 .06A4.79 4.79 0 0 0 5.7 6.82a4.35 4.35 0 0 0 1.02 6.56A4.74 4.74 0 0 0 8.2 14l-.01-.03a4.55 4.55 0 0 1-1.65-1.15C4.71 10.75 5.5 7.75 8.12 6.72c1.01-.37 2.02-.34 3 .07.3.13.94.34 1.29.28.04 0 .07-.02.1-.05l.62-.7.01-.02v-.03a.06.06 0 0 0-.02-.03h-.03c-.5-.04-1.12-.22-1.43-.6Z" fill="url(#aoib1rkpa)"/><path d="M7.2 7.98C5 10 6.18 13.34 9.18 13.84a4.2 4.2 0 0 0 2.97-.6c.2-.11.19-.13-.03-.05-1.31.5-2.5.44-3.54-.15C6.7 11.98 6.08 9.8 7.24 8.01v-.03c-.02-.02-.03-.02-.05 0ZM9.98 10h2.8c.05 0 .07.05.07.09-.1 1.8-2.37 2.67-3.88 1.98a3.47 3.47 0 0 1-1.8-1.82l-.02.02h-.01a3.3 3.3 0 0 0 1.97 2.5c.9.39 2.03.4 2.94.02 1.63-.7 2.16-2.16 1.86-3.75 0 0 0-.02-.02-.03L13.87 9H9.32l-.02.03v.05c.17.32.51.84.51.84.04.07.1.08.18.08Z" fill="url(#boib1rkpa)"/><defs><linearGradient id="aoib1rkpa" x1="11.82" y1="8.12" x2="4.49" y2="8.52" gradientUnits="userSpaceOnUse"><stop stop-color="#8F6C15"/><stop offset="1" stop-color="#D2AA53"/></linearGradient><linearGradient id="boib1rkpa" x1="6.31" y1="10.94" x2="13.18" y2="10.94" gradientUnits="userSpaceOnUse"><stop stop-color="#057CB8"/><stop offset="1" stop-color="#1E4080"/></linearGradient></defs></svg>