<!-- by TradingView --><svg width="18" height="18" viewBox="0 0 18 18" xmlns="http://www.w3.org/2000/svg"><path fill="#F0F3FA" d="M0 0h18v18H0z"/><path d="M8.7 7v4H9V9.18h1.37v-.36H9V7.36h1.52V7H8.7Zm4.36 1.1a.79.79 0 0 0-.77-.74c-.32 0-.78.26-.78.7 0 .4.39.6.66.7l.15.04c.5.16 1.1.35 1.1 1.08 0 .75-.59 1.12-1.15 1.12a1.1 1.1 0 0 1-1.14-1.1h.33a.8.8 0 0 0 .8.74c.36 0 .84-.28.84-.77 0-.48-.5-.61-.87-.72l-.2-.06c-.42-.14-.81-.45-.81-1 0-.7.55-1.09 1.08-1.09.55 0 1.05.39 1.07 1.1h-.3Zm1.11 2.9V7H16v.36h-1.52v1.46h1.37v.36h-1.37V11h-.3ZM3.25 9.9h.41l.33.4c.3-.31.44-.83.44-1.28 0-.73-.35-1.66-1.06-1.66-.71 0-1.07.92-1.07 1.66 0 .34.07.64.16.88.16.41.53.7.88.72a.7.7 0 0 0 .36-.1l-.45-.62Zm1.49-.88c0 .6-.14 1.24-.53 1.64l.53.84h-.41l-.4-.62c-.64.37-1.46-.04-1.75-.8-.12-.3-.18-.65-.18-1.06C2 8.04 2.45 7 3.37 7c.92 0 1.37 1.04 1.37 2.02ZM7 9.9h-.4l.45.62a.67.67 0 0 1-.36.1c-.35-.02-.72-.3-.88-.72a2.53 2.53 0 0 1-.16-.88c0-.74.36-1.66 1.07-1.66.7 0 1.06.93 1.06 1.66 0 .45-.14.97-.44 1.29L7 9.9Zm.55.76c.38-.4.53-1.05.53-1.64C8.09 8.04 7.64 7 6.72 7 5.8 7 5.35 8.04 5.35 9.02c0 .4.06.77.18 1.07.29.75 1.1 1.16 1.75.8l.4.61h.4l-.52-.84Z"/></svg>