<!-- by TradingView --><svg width="18" height="18" viewBox="0 0 18 18" xmlns="http://www.w3.org/2000/svg"><path fill="#C22C20" d="M0 0h18v18H0z"/><path d="M3 11.86v-.91c.03.01.27.05.94.05.68 0 .94-.15.98-.23.15.11.43.44.43.7 0 .31-.73.53-1.34.53-.48 0-.87-.1-1.01-.14Z" fill="#fff"/><path d="m5.44 10-.04 1.23c-.17-.32-.7-.79-1.04-.97-.73-.4-.97-.72-1.01-.83l.25-.89c.07.14.38.48.97.77.58.3.83.58.87.68Z" fill="#fff"/><path d="M5.79 8.93c0-.21-.06-.4-.1-.46-.63 0-1.4-.22-1.58-.22-.18 0-.5.02-.5.18 0 .23.72.67 1.1.84.3.13.71.11.88.09.07-.05.2-.21.2-.43Z" fill="#fff"/><path d="m6.6 8.14-.78.96c.06-.35-.1-1.04-.26-1.39-.35-.74-.35-1.15-.32-1.26l.73-.57c-.02.15.02.6.32 1.2.3.58.33.95.3 1.06ZM8.68 7.28l-1.18.4c.24-.27.48-.93.53-1.32.1-.81.33-1.16.41-1.23l.92-.1c-.1.13-.3.53-.36 1.19-.07.65-.24.98-.32 1.06ZM10.78 7.76 9.6 7.42c.35-.08.93-.48 1.2-.77.55-.6.93-.77 1.04-.78l.8.46c-.14.04-.54.25-.97.75-.43.5-.76.66-.88.68ZM12.33 9.37l-.77-.98a3.2 3.2 0 0 0 1.43.08c.8-.17 1.2-.07 1.3-.02l.38.84c-.14-.05-.6-.11-1.23.04-.64.15-1.01.09-1.11.04Z" fill="#fff"/><path d="M7.5 7.49c.13-.18.19-.36.2-.43-.5-.37-1-1-1.15-1.11-.14-.1-.41-.28-.5-.15-.14.18.18.97.38 1.32.17.29.51.52.66.6.08 0 .28-.06.41-.23ZM11.73 8.35c.21.06.4.04.47.03.15-.61.55-1.31.6-1.48.04-.18.1-.5-.06-.53-.22-.06-.82.54-1.08.86-.2.26-.28.66-.3.83.04.08.16.24.37.3ZM9.79 7.21c.2-.07.35-.2.4-.24-.23-.6-.3-1.4-.37-1.56-.06-.17-.2-.46-.35-.4-.21.08-.36.92-.38 1.33-.02.32.15.7.23.85.07.04.27.1.47.02ZM12.7 10.44c.14.16.3.27.36.3.49-.41 1.27-.78 1.4-.9.14-.1.38-.33.28-.45-.15-.18-1-.05-1.39.06-.31.1-.67.41-.78.54a.58.58 0 0 0 .13.45Z" fill="#fff"/><path d="M12.47 11.46V10.3c.43.6.95.69 1.55.69.48 0 .85-.05.98-.07v.95c-.07.04-.4.12-1.15.12-.88 0-1.32-.36-1.38-.54Z" fill="#fff"/></svg>