<!-- by TradingView --><svg width="18" height="18" viewBox="0 0 18 18" xmlns="http://www.w3.org/2000/svg"><path fill="url(#amho44uct)" d="M0 0h18v18H0z"/><path d="M11.63 7.5H6.37c-.46 0-.87.54-.87 1 0 .46.4 1 .87 1h1.82l2.65 2.5H9l-1-1H6.37C4.99 11 4 9.84 4 8.45 4 7.07 4.99 6 6.37 6h5.26C13.01 6 14 7.07 14 8.45A2.54 2.54 0 0 1 11.5 11h-1.05l-1.6-1.5h2.78c.46 0 .87-.54.87-1 0-.46-.4-1-.87-1Z" fill="#28EAB6"/><defs><linearGradient id="amho44uct" x1="3.35" y1="3.12" x2="21.9" y2="24.43" gradientUnits="userSpaceOnUse"><stop stop-color="#1A1E21"/><stop offset="1" stop-color="#06060A"/></linearGradient></defs></svg>