<!-- by TradingView --><svg width="18" height="18" viewBox="0 0 18 18" xmlns="http://www.w3.org/2000/svg"><path fill="#002A5C" d="M0 0h18v18H0z"/><path d="M9.26 2.26c0 .12-.08.22-.18.25v1.25l1.05-.04.16-.17.56.15-.7.31a6.85 6.85 0 0 1-.04-.22l-1.03.05v1.17c.2.03.37.23.37.46 0 .27-.2.48-.45.48a.46.46 0 0 1-.45-.48c0-.25.19-.46.43-.47V3.85l-.47.02-.2.23-1.13.06.32-.29-.16-.27h1.09l.05.18.5-.02V2.5a.25.25 0 0 1-.2-.25c0-.14.1-.26.24-.26.14 0 .24.12.24.26ZM7.55 10c.08-.65.26-2.04.32-2.4.07-.37.33-1.1.45-1.41.13-.07.44-.19.68-.19.23 0 .54.12.67.19.12.3.36 1.02.42 1.4.06.38.22 1.77.3 2.41H7.55Zm-.24 0H6v-.22c.52-.32.6-.76.68-1.3.04-.29.09-.6.21-.94a2.2 2.2 0 0 1 1.2-1.26 6.54 6.54 0 0 0-.55 2.17l-.02.21c-.05.27-.16 1-.2 1.34Zm3.38 0H12v-.22c-.52-.32-.6-.76-.68-1.3-.04-.29-.09-.6-.21-.94a2.2 2.2 0 0 0-1.2-1.26c.35.62.48 1.66.55 2.17l.02.21c.05.27.16 1 .2 1.34Zm-3.87.37h4.57l.16-.32h-4.8l.07.32Zm.18 3v-2.84h1v2.84H7Zm3 0v-2.84h1v2.84h-1Zm-1.75-2.84v2.84h1.5v-2.84h-1.5ZM12 13.68H6V14h6v-.32Z" fill="#fff"/></svg>