<!-- by TradingView --><svg width="18" height="18" viewBox="0 0 18 18" xmlns="http://www.w3.org/2000/svg"><path fill="#F0F3FA" d="M0 0h18v18H0z"/><path d="M8.97 10.34 7 9.1c.52.65 1.73 2.15 2.4 2.89.65-1.96 3.98-6.5 5.6-8a29.02 29.02 0 0 0-6.03 6.34Z" fill="#0789D4"/><path d="M11 8.9c.9-.04 2-.15 2-1.32 0-.94-.77-1.28-1.57-1.28-.27 0-.28.02-.34.06-.06.03-.09.12-.09.25V8.9Zm-1.68 2.94c.65-.06.68-.29.68-.93V6.98c0-.58-.1-.77-.68-.81V6h2.37C12.72 6 14 6.36 14 7.64c0 .96-.88 1.34-1.74 1.46l1.93 2.3c.22.26.47.4.81.44V12h-1.5l-2.13-2.79-.37.02v1.79c0 .62 0 .77.6.82V12H9.31v-.16ZM8.13 11.12A3 3 0 0 1 3 9.02a2.99 2.99 0 0 1 3-2.97 2.99 2.99 0 0 1 2.88 3.81 7.12 7.12 0 0 0-.54-.3A2.39 2.39 0 0 0 6 6.65a2.39 2.39 0 0 0-2.4 2.37 2.4 2.4 0 0 0 4.22 1.55l.31.55Z" fill="#241F3F"/></svg>