<!-- by TradingView --><svg width="18" height="18" viewBox="0 0 18 18" xmlns="http://www.w3.org/2000/svg"><path fill="#2D2D2D" d="M0 0h18v18H0z"/><path d="m6.09 10-.21 2 .62.14V10h-.41Z" fill="#9A9899"/><path d="M6.68 10v.82l.16.17-.16.33c.1.08.3.26.3.39 0 .16.03.38-.14.38-.14 0-.44-.04-.5-.1.1.16.46.42.55.45.1.04.48-.19.48-.67 0-.39-.17-.68-.26-.78l.33-.99h-.76Z" fill="#9A9899"/><path fill-rule="evenodd" d="M7.44 11.83h.47l.14-.46h.32v1.72h.32V10h-.75l-.5 1.83Zm.88-.73v-.58l-.22.58h.22Z" fill="#9A9899"/><path fill-rule="evenodd" d="M9 14A5 5 0 1 0 9 4a5 5 0 0 0 0 10Zm0-1a4 4 0 1 0 0-8 4 4 0 0 0 0 8Z" fill="#9A9899"/><path d="m14 12.8-.91 1.2c-.57-.8-1.73-2.44-1.88-2.7-.2-.32-.32-.94-.08-1.23.19-.23.73.19.97.43l1.9 2.3Z" fill="#9A9899"/><path fill-rule="evenodd" d="M9.63 11.56c.25 0 .46-.35.46-.78 0-.43-.2-.78-.46-.78s-.47.35-.47.78c0 .43.2.78.47.78Zm0-.58a.2.2 0 0 0 .2-.2.2.2 0 0 0-.2-.2.2.2 0 0 0-.22.2c0 .11.1.2.22.2Z" fill="#9A9899"/><path fill-rule="evenodd" d="M9.62 12.88c.35 0 .63-.4.63-.87 0-.48-.28-.87-.63-.87-.34 0-.62.4-.62.87 0 .48.28.87.62.87Zm0-.57c.14 0 .24-.13.24-.3 0-.17-.1-.3-.23-.3-.14 0-.24.13-.24.3 0 .17.1.3.24.3Z" fill="#9A9899"/></svg>