<!-- by TradingView --><svg width="18" height="18" viewBox="0 0 18 18" xmlns="http://www.w3.org/2000/svg"><path d="M0 9a9 9 0 1 1 18 0A9 9 0 1 1 0 9Z" fill="#91057F"/><path d="M4 14h10V4H4v10Zm9.5-.5h-9v-9h9v9Zm-1.17-5.72c0-1.24-.85-2.75-3.33-2.78-2.2.06-3.33 1.24-3.33 2.79.06 2.19 2.04 2.78 3.33 2.78 2.11-.01 3.39-1.23 3.33-2.79Zm-1.62.84a1.3 1.3 0 0 1-.06.24A1.73 1.73 0 0 1 9 10.02c-.76 0-1.4-.48-1.64-1.16v-.03a3.86 3.86 0 0 1 0-2.1V6.7c.23-.68.88-1.17 1.64-1.17a1.73 1.73 0 0 1 1.7 1.41 3.86 3.86 0 0 1 0 1.68ZM5.43 10.1l-.09.28c-.02.05 0 .11.06.14l4.65 2.42c.2.1.46.07.64-.07l1.92-1.61a.16.16 0 0 0 .02-.22.2.2 0 0 0-.21-.06l-.23.1c-1.28.51-2.72.51-4 0l-2.58-1.06c-.07-.02-.15.01-.18.08Z" fill="#fff"/></svg>