<!-- by TradingView --><svg width="18" height="18" viewBox="0 0 18 18" xmlns="http://www.w3.org/2000/svg"><path fill="#F0F3FA" d="M0 0h18v18H0z"/><path d="M14 8.97c0-1.01-.34-2-.98-2.8a5 5 0 0 0-5.62-1.5 4.77 4.77 0 0 0-2.35 1.92 4.5 4.5 0 0 0 .64 5.58 4.99 4.99 0 0 0 5.76.9l1.34.99.7-.87-1.06-.78A4.64 4.64 0 0 0 14 8.97Zm-4.82 3.55c-.87 0-1.7-.3-2.37-.84a3.43 3.43 0 0 1-.8-4.5 3.65 3.65 0 0 1 1.94-1.55 3.82 3.82 0 0 1 2.52.02c.82.3 1.5.86 1.92 1.59a3.43 3.43 0 0 1-.89 4.48l-1.33-.98-.7.87.95.7c-.4.14-.82.2-1.24.2ZM15 6.72l-.36.14a5.67 5.67 0 0 0-2.15-2.53 6 6 0 0 0-6.5 0 5.67 5.67 0 0 0-2.15 2.5 5.42 5.42 0 0 0 1.26 6.14 6.05 6.05 0 0 0 6.36 1.23l.15.35a6.46 6.46 0 0 1-6.8-1.31A5.79 5.79 0 0 1 3.48 6.7 6.06 6.06 0 0 1 5.79 4a6.41 6.41 0 0 1 6.93.02A6.05 6.05 0 0 1 15 6.72Z" fill="#F38200"/></svg>