<!-- by TradingView --><svg width="18" height="18" viewBox="0 0 18 18" xmlns="http://www.w3.org/2000/svg"><path fill="#F0F3FA" d="M0 0h18v18H0z"/><path d="M11.83 7.8c.01-.03.02-.03.03-.01l1.15 1.72.05.02h1.87c.02 0 .04-.01.04-.04l.02-.22c.05-.9-.16-1.73-.6-2.48a5.67 5.67 0 0 0-2.13-2A6.71 6.71 0 0 0 9.28 4a6.7 6.7 0 0 0-4.15 1.18A5.34 5.34 0 0 0 3.3 7.43a4.24 4.24 0 0 0-.15 2.64h.02l2.27-1.63h.03l1.16 2.15c.02.03.03.03.05 0L9.05 4.9l.03-.02.57.04c.02 0 .04.01.04.03l1.2 4.6c.02.05.04.05.06 0l.88-1.77Zm-5.1 4.34-.01-.01-1.47-2.7c0-.03-.02-.03-.05-.02l-1.8 1.3c-.02.02-.03.03-.02.05.32.7.8 1.31 1.45 1.83.6.49 1.28.85 2.04 1.08a7.14 7.14 0 0 0 5.34-.45 4.93 4.93 0 0 0 2.6-3.1c.01-.03 0-.05-.03-.05h-2.07c-.02 0-.04 0-.06-.02l-.7-.96h-.03l-.8 1.59c0 .01-.01.02-.03.02l-.56-.06c-.02 0-.03-.02-.04-.04L9.31 6.1c-.01-.04-.02-.04-.04-.01l-2.52 6.04h-.02Z" fill="#0096D1"/></svg>