<!-- by TradingView --><svg width="18" height="18" viewBox="0 0 18 18" xmlns="http://www.w3.org/2000/svg"><path fill="#F0F3FA" d="M0 0h18v18H0z"/><path fill-rule="evenodd" d="M9 15A6 6 0 1 0 9 3a6 6 0 0 0 0 12Zm0-.35a5.65 5.65 0 1 0 0-11.3 5.65 5.65 0 0 0 0 11.3Z" fill="#67686B"/><path d="M7.14 7.72 5 6c0 .52.19.78.28.84l1.6 1.25a.7.7 0 0 1 .27.55V11h.18V8.1a.5.5 0 0 0-.19-.38Z" fill="#67686B"/><path d="M6.8 8.4 5 6.94c0 .53.19.78.28.84l1.26 1a.7.7 0 0 1 .28.56V11H7V8.8a.5.5 0 0 0-.2-.4Z" fill="#67686B"/><path d="M6.46 9.02 5 7.87c0 .55.2.81.3.88l.88.66c.18.14.3.35.3.57V11h.19V9.43a.5.5 0 0 0-.2-.4ZM10.86 7.72 13 6c0 .52-.19.78-.28.84l-1.6 1.25a.7.7 0 0 0-.27.55V11h-.18V8.1a.5.5 0 0 1 .19-.38Z" fill="#67686B"/><path d="M11.2 8.4 13 6.94c0 .53-.19.78-.28.84l-1.26 1a.7.7 0 0 0-.28.56V11H11V8.8c0-.16.07-.3.2-.4Z" fill="#67686B"/><path d="M11.54 9.02 13 7.87c0 .55-.2.81-.3.88l-.88.66a.72.72 0 0 0-.3.57V11h-.19V9.43c0-.16.08-.3.2-.4Z" fill="#67686B"/><path fill="#952536" d="M7.67 8.81H8v1.56h-.33zM8.33 8.81h.33v1.56h-.33zM8.83 8.81h.34v1.56h-.34V8.81ZM10.33 10.68V11H7.66v-.3z"/><path fill-rule="evenodd" d="m9.02 7.56-1.35.58v.34h2.7v-.34l-1.35-.58Zm.58.63-.58-.26-.58.26H9.6Z" fill="#952536"/><path d="M8.48 6 8 7.56l.44-.1.33-1.2h.63v.16l-.21.13.28.84.38.1-.33-.94.05-.1H10l-.21-.3h-.27L9.35 6h-.87Z" fill="#67686B"/><path fill="#952536" d="M9.33 8.81h.33v1.56h-.33zM10 8.81h.33v1.56H10z"/><path opacity=".5" fill="#952536" d="M6 12h6v1H6z"/></svg>