<!-- by TradingView --><svg width="18" height="18" viewBox="0 0 18 18" xmlns="http://www.w3.org/2000/svg"><path fill="#F0F3FA" d="M0 0h18v18H0z"/><path d="M9 6H3v6h6V6Z" fill="#050299"/><path d="m6.53 11-.94-1.52V11h-1V7h1.37c.95 0 1.67.37 1.67 1.2 0 .53-.24 1.28-.97 1.28L7.82 11H6.53Zm-.94-3.01V9c.77 0 1-.12 1-.55 0-.42-.42-.46-1-.46Z" fill="#fff"/><path d="M11.31 11h-1l-.96-3.18H9V7h1.8v.82h-.37l.45 1.63.64-2.45h.97l.64 2.51.44-1.69h-.38V7H15v.82h-.34L13.7 11h-1L12 8.51 11.31 11Z" fill="#050299"/></svg>