<!-- by TradingView --><svg width="18" height="18" viewBox="0 0 18 18" xmlns="http://www.w3.org/2000/svg"><path fill="#F0F3FA" d="M0 0h18v18H0z"/><path d="M10.6 8.46h.01v-.04A19.71 19.71 0 0 1 5 3a26.85 26.85 0 0 0 3.72 3.65c1.25 1.01 2.71 1.93 4.2 2.32.1.03.1.04 0 .04L8.4 8.9c-.03 0-.04.01-.01.04l4.54 5.2c0-.01 0-.01 0 0a91.42 91.42 0 0 0-4.46-4.3c-.52-.45-1.02-.87-1.51-1.26-.06-.04-.05-.07.02-.07 1.22.01 2.2 0 2.97-.01.22 0 .44-.02.65-.04Z" fill="#0057AA"/><path d="M5.67 4.74a.32.32 0 0 1-.01-.02 49.5 49.5 0 0 0 2.36 2.25c.52.46 1.06.9 1.6 1.3.03.02.03.03 0 .03h-.7a.18.18 0 0 1-.14-.06 53.79 53.79 0 0 1-3.1-3.5ZM9.88 9.16h.52l.01.01 1.1.82v.04H9.58l-.22-.25v-.04h.9l.02-.01v-.01a.03.03 0 0 0 0-.03l-.42-.49v-.03l.02-.01ZM7.5 10.14c-.08 0-.09.02-.03.06a23.65 23.65 0 0 1 4.55 4.3 34.54 34.54 0 0 0-5.56-4.68c-.05-.03-.04-.05.02-.05h1.17c.16 0 .28.02.36.08a2.62 2.62 0 0 1 .3.3h-.02l-.8-.01Z" fill="#ED1C24"/></svg>