<!-- by TradingView --><svg width="18" height="18" viewBox="0 0 18 18" xmlns="http://www.w3.org/2000/svg"><path fill="#F0F3FA" d="M0 0h18v18H0z"/><path d="M4.62 6.16v.04c.22.11.5.24.86.38.8.33 1.13 1.08 1.16 1.87 0 .01 0 .02.02.02h.02l.15-.3 1.38-2.21A15.24 15.24 0 0 0 9.48 3.5h.06c.03 0 .06.04.08.09.37.92.91 1.94 1.5 2.86.27.4.63.97 1.08 1.72.32.52.55 1.05.7 1.57.65 2.47-1.8 4.93-4.43 4.08a3.47 3.47 0 0 1-2.31-4.09l.13-.41a2.44 2.44 0 0 0 .08-1.1.09.09 0 0 0-.06-.04 2.47 2.47 0 0 0-.15.03.23.23 0 0 1-.11.01c-.57-.11-1-.38-1.3-.79A4.16 4.16 0 0 1 4 5.56c0-.1.02-.1.08-.04.17.17.4.27.68.3.63.06 1.4.21 1.75.67.22.28.43.88.2 1.24l-.03.01a.05.05 0 0 1-.05 0V7.7c-.12-.49-.39-.86-.81-1.1-.1-.07-.3-.14-.6-.24l-.6-.21Z" fill="#B3CA35"/><path d="M8.96 10.09c.3-.04.56-.17.8-.38a3.42 3.42 0 0 0 .76-.4l-.02-.01a4 4 0 0 1-.66.26c-.36.1-.58.18-.68.22a2 2 0 0 0-1.2 1.54.05.05 0 0 1-.04.01l-.03-.01a.56.56 0 0 1-.16-.41c0-.8.36-1.36 1.1-1.7.45-.2.94-.25 1.56-.32.34-.05.62-.18.85-.41.04-.04.05-.03.04.02-.2 1.3-.93 3.24-2.56 3.42a.9.9 0 0 1-.38-.03h-.02a.06.06 0 0 0-.04.02v.02c-.07.3-.12 1 .21 1.2a2.9 2.9 0 0 0 1.13.4A2.99 2.99 0 0 1 6.61 9.8c.22-.8.64-1.5 1.1-2.21A36.88 36.88 0 0 0 9 5.54c-.06.17-.14.35-.24.54L7.45 8.5c-.75 1.4-.72 2.95.4 4.14.05.05.08.04.07-.03-.01-.72.12-1.48.54-2.06.1-.15.27-.3.5-.45Z" fill="#207A46"/></svg>