<!-- by TradingView --><svg width="18" height="18" viewBox="0 0 18 18" xmlns="http://www.w3.org/2000/svg"><path fill="#F0F3FA" d="M0 0h18v18H0z"/><path d="M8.1 9.67 9 7.25l.9 2.42-.9.55-.89-.55Zm.66-3.66L6.55 12h.7l.6-1.62L9 11.1l1.16-.72.6 1.62h.69L9.21 6h-.45ZM15.03 6l-2.3 3.12V6H12v6h.73v-1.74l.65-.94L15.17 12H16l-2.18-3.26L15.92 6h-.89ZM4.67 9.84 5.85 12h-.78L4 10H2.7v2H2V6h1.82c1.19 0 2.03.77 2.03 2.06 0 .9-.48 1.43-1.1 1.75l-.08.03ZM2.7 6.68v2.6h1.12C4.4 9.27 5 9.14 5 8.05c0-1.05-.6-1.38-1.18-1.38H2.7Z"/></svg>