<!-- by TradingView --><svg width="18" height="18" viewBox="0 0 18 18" xmlns="http://www.w3.org/2000/svg"><path fill="#F0F3FA" d="M0 0h18v18H0z"/><path d="M9.25 4c.36.02.72.08 1.07.17l-.01 1.47a1 1 0 0 0-.48.5c-.1.21-.17.4-.23.59l-.38 1.4c-.03.12-.1.3-.2.53-.05.14-.08.3-.12.44h-.48c.03-.1.07-.2.04-.32-.03-.14-.03-.3-.12-.4a.95.95 0 0 0-.23-.2c-.13-.05-.27-.13-.4-.13-.25 0-.48.06-.68.2a.2.2 0 0 0-.1.12c-.01.06 0 .08.06.09.13 0 .32 0 .56-.04.2-.03.36.03.48.18.07.09.1.17.07.25-.07.34-.23.62-.49.86a.47.47 0 0 1-.08.05.05.05 0 0 0-.02.03c-.01.07.02.1.1.12l-.54-.02c.03-.3.12-.65.13-1l-.02-.05c-.04-.04-.1-.04-.15-.02a15.23 15.23 0 0 1-.15.5c-.07.26-.1.54-.16.82l-.75-.22.65-2.59a4 4 0 0 0 .62-.26 2.92 2.92 0 0 0 1.3-1.75c.12-.4.13-.83.03-1.3l.2-.02h.48Z" fill="#BE0812"/><path d="M8.57 4.02c.1.47.1.9-.02 1.3-.21.71-.66 1.4-1.3 1.75-.18.1-.39.18-.63.26l.1-.36v-.04l-.01-.04a.1.1 0 0 0-.07-.04c-.03 0-.06.01-.1.04-.09.05-.14.3-.15.4l-.08.25-.81.18a.07.07 0 0 0-.04.02.56.56 0 0 1-.53.22.49.49 0 0 1-.3-.17 1.18 1.18 0 0 1-.29-.6 4.97 4.97 0 0 1 4.23-3.17Z" fill="#E10A17"/><path d="m11.6 4.72-.16.65c-.23-.03-.4-.02-.52 0-.16.04-.37.13-.61.27l.01-1.47c.46.13.89.3 1.29.55Z" fill="#92060D"/><path d="M6.82 5.87c-.38.23-.65.5-.95.94-.15.21-.28.58-.45.83-.16.25-.5.34-.68.06-.15-.24-.02-.52.1-.78a4.3 4.3 0 0 1 3.13-2.33c.15.15.23.33.21.55 0 .02 0 .03-.02.03-.54.26-.98.49-1.34.7Z" fill="#F15142"/><path d="M13.3 6.4c-.2.7-.46 1.35-.78 1.99a1.52 1.52 0 0 0-.6-.26.4.4 0 0 0-.42.15c-.1.12 0 .27.15.29.08 0 .18.04.28.05.14.02.27.06.4.12l.03.04c.07.16.07.32 0 .47-.04.11-.14.3-.27.55-.02.05-.02.1 0 .17l-.64.8a223.03 223.03 0 0 1-2.48-.02 38.2 38.2 0 0 0-1.03-.06l1.76-1a.43.43 0 0 0-.01.28l.01.02h.02c.2-.05.34-.48.38-.66a.03.03 0 0 1 .02-.02.03.03 0 0 1 .02.01l.22.27c.1.18.28.42.5.44h.02l.01-.03c.02-.14-.06-.27-.16-.38-.2-.21-.26-.46-.08-.72.14-.2.62-.31.54-.65a.06.06 0 0 0-.02-.04.06.06 0 0 0-.05 0 .9.9 0 0 0-.34.13 10.22 10.22 0 0 1-.47.3l-.01-.02c-.02-.09.03-.17.04-.25.02-.14.04-.28.08-.44a.4.4 0 0 0 0-.17c-.02-.13-.08-.16-.16-.11l.31-1.78c.19-.15.4-.23.65-.24.08 0 .14.01.16.04.07.14 0 .28-.08.43-.07.14-.23.2-.33.3-.06.06-.07.12-.03.18l.04.01a.86.86 0 0 0 .46-.26c.2-.21.3-.4.31-.68.01-.15-.18-.26-.3-.28l.16-.65c.7.43 1.26.99 1.69 1.68Z" fill="#73040A"/><path d="M7.5 5.18a1.5 1.5 0 0 1-.32.28c-.23.13-.62.32-.88.54-.46.4-.74.84-1.05 1.4-.08.15-.2.22-.4.23-.01 0-.02-.01-.02-.03a.89.89 0 0 1 .06-.5A3.44 3.44 0 0 1 7 5.07c.1-.03.17-.04.23-.03a5.27 5.27 0 0 0 .26.03.07.07 0 0 1 .03.07l-.02.04Z" fill="#FA937D"/><path d="M6.13 5.9c-.2.18-.4.39-.57.63a7.42 7.42 0 0 0-.6.9h-.02l-.01-.03a2 2 0 0 1 .22-.65c.33-.57.9-1.2 1.55-1.37a.03.03 0 0 1 .03.01v.05c-.11.12-.2.2-.26.23-.18.11-.3.19-.34.23Z" fill="#FDD1BE"/><path d="m10.57 5.87-.31 1.78a1.3 1.3 0 0 0-.2.45L9.7 9.7l-1.76 1-.97-.02c-.02 0-.03 0-.02-.02l.12-.76.54.02c.36-.05.63-.32.81-.8l.48-.01-.4.65c-.06.1-.03.15.07.17h.05c.1.02.2-.02.26-.11.2-.3.37-.65.49-1.01a83.22 83.22 0 0 0 .52-2.02c.1-.4.33-.7.68-.91Z" fill="#92060D"/><path d="M12.86 12.2A4.98 4.98 0 0 1 9.24 14H8.8a5.04 5.04 0 0 1-2.26-.66c.5-.05.91-.1 1.24-.17a7.4 7.4 0 0 0 3.88-2.06c.43.02.87.02 1.3.01.13 0 .2-.06.22-.19a.05.05 0 0 0-.03-.05.9.9 0 0 0-.4-.1l-1.29-.01.65-.8c.06.05.12.05.17.01.24-.19.4-.45.5-.79.07-.2.09-.47-.07-.62l-.17-.18c.3-.64.56-1.3.77-1.99a5.1 5.1 0 0 1-.44 5.8Z" fill="#340204"/><path d="M6.3 7.54c-.15.67-.31 1.33-.5 1.99-.03.15-.1.4.15.4a4.74 4.74 0 0 1-1.9-.23L4 9.24v-.48a5.2 5.2 0 0 1 .34-1.58c.04.23.14.43.3.6.09.11.19.17.3.18.2.03.37-.04.52-.22a.07.07 0 0 1 .04-.02l.8-.18Z" fill="#BE0812"/><path d="M8.42 9.1c-.18.49-.45.76-.8.81-.09-.01-.12-.05-.11-.12l.02-.03a.47.47 0 0 0 .09-.05c.25-.24.41-.52.48-.86.02-.08 0-.16-.07-.25a.48.48 0 0 0-.48-.18c-.24.03-.43.05-.56.04-.05 0-.07-.03-.06-.09a.2.2 0 0 1 .1-.13c.2-.13.43-.2.69-.2.12 0 .26.09.39.14.04.01.11.08.23.2.09.1.09.26.12.4.03.12 0 .21-.04.33Z" fill="#F0F3FA"/><path d="M5.95 9.93h.02l.75.21-.1.54c-.01.02-.02.03-.04.03-.3.04-.52.19-.74.41a.74.74 0 0 0-.16.27c-.07.2-.1.4-.09.6l-.7-.13a5.12 5.12 0 0 1-.84-2.16c.64.18 1.23.3 1.9.23Z" fill="#92060D"/><path d="m6.54 11.05-.12.37a.9.9 0 0 1-.34.48c-.05.04-.1.06-.14.05a.08.08 0 0 1-.06-.04.09.09 0 0 1-.01-.07c.07-.35.32-.74.67-.86h.02a.01.01 0 0 1 0 .02l-.02.05Z" fill="#73040A"/><path d="M11.64 11.11a7.4 7.4 0 0 1-3.87 2.06c-.33.06-.75.12-1.25.17a4.98 4.98 0 0 1-1.63-1.48l.7.12.1.22.01.02h.02c.32.1.54-.06.72-.31.12-.17.2-.32.27-.44.07-.14.1-.32.17-.47a.05.05 0 0 1 .05-.03l.92.01 1.06.03a549.88 549.88 0 0 0 2.73.1Z" fill="#570308"/></svg>