<!-- by TradingView --><svg width="18" height="18" viewBox="0 0 18 18" xmlns="http://www.w3.org/2000/svg"><path fill="#F0F3FA" d="M0 0h18v18H0z"/><path fill-rule="evenodd" d="M9 13c3.31 0 6-1.8 6-4s-2.69-4-6-4-6 1.8-6 4 2.69 4 6 4Zm0-.5c2.97 0 5.39-1.57 5.39-3.5s-2.42-3.5-5.4-3.5C6.01 5.5 3.6 7.07 3.6 9s2.42 3.5 5.4 3.5Z" fill="#FF2B1C"/><path d="M8.58 6.01c.75.22 1.72.75 1.72 1.71 0 1.19-1.42 1.7-2.18 1.78.55.4 1.6 1.23 1.86 1.43.3.24.99.44 2.07.45C13.24 10.83 14 9.97 14 9c0-1.66-2.24-3-5-3l-.42.01Z" fill="#2A448E"/><path d="M7.92 6.07C5.68 6.37 4 7.57 4 9c0 1.66 2.24 3 5 3 .85 0 1.64-.13 2.34-.35a4.6 4.6 0 0 1-2.32-.47 30.65 30.65 0 0 1-2.64-2.02c.95.03 2.91-.22 2.91-1.5 0-.74-.8-1.3-1.37-1.59Z" fill="#FF2B1C"/></svg>