<!-- by TradingView --><svg width="18" height="18" viewBox="0 0 18 18" xmlns="http://www.w3.org/2000/svg"><path fill="#F0F3FA" d="M0 0h18v18H0z"/><path d="M6.7 6.33H5L5.12 6h1.45l.12.33Zm-3.35.34L3 11.3 4.75 7h1.9c1.23 0 1.44.89 1.4 1.37-.2 1.25-1.25 1.22-1.76 1.05l2.21 2.25-.23-5H3.35ZM4.55 12h2.59l-.18-.33h-2.2l-.2.33Z" fill="#EC2427"/><path d="M10 7.26V6h2.06c.66-.02 2 .15 2 .97 0 .12-.03.43-.17.72-.19.37-.2.54-.2.71 0 .16.16.34.45.44l.3.07c.45.08 1.22.23 1.56.71v.95c-.08-.14-.42-.46-1.12-.68l-.2-.06c-.75-.22-1.09-.32-1.2-1.11l-.05-.51c-.04-.4-.05-.5-.3-.69-.33-.23-.76-.26-1.73-.26H10ZM10 12V7.58h1.8c.4-.02 1.24.23 1.38 1.04.18 1 .33 1.33 1.13 1.61.8.29 1.47.58 1.69.84V12a4.47 4.47 0 0 0-1.26-.65c-.54-.14-1.25-.34-1.4-1.07l-.03-.17c-.14-.69-.26-1.27-1.06-1.27h-1.93V12H10Z" fill="#2F3490"/></svg>