<!-- by TradingView --><svg width="18" height="18" viewBox="0 0 18 18" xmlns="http://www.w3.org/2000/svg"><path fill="#F0F3FA" d="M0 0h18v18H0z"/><path d="M9.04 3a6.07 6.07 0 0 1 5.89 5.26.07.07 0 0 1-.05.03c-1.5 0-2.67.03-4.17-.08a89.76 89.76 0 0 0-2.99-.19 173.58 173.58 0 0 1 4.02-.27c.04 0 .05-.02.05-.05l-.01-.12c0-.05-.04-.07-.08-.08l-3.1-.22-.01-.02c0-.01.01-.02.03-.02l2.8-.19c.03 0 .05-.02.04-.05-.02-.12-.09-.18-.19-.2a57.69 57.69 0 0 0-2.12-.23l.02-.02 1.65-.17c.07 0 .08-.04.02-.08-1.87-1.42-4.38-.4-4.77 1.95 0 .03-.02.04-.04.04H3.08v-.01a.03.03 0 0 1-.02-.03 6.1 6.1 0 0 1 1.7-3.45A5.9 5.9 0 0 1 8.88 3h.16Zm.98 1.39v-.02l-.03-.01-.64-.1a.03.03 0 0 0-.02 0 .03.03 0 0 0 0 .02l-.06.38v.02l.02.01.64.1a.03.03 0 0 0 .02 0v-.02l.07-.38ZM8.58 4.3a.07.07 0 0 0-.03-.04.06.06 0 0 0-.05-.01l-.56.1a.06.06 0 0 0-.05.02.07.07 0 0 0 0 .05l.04.3c0 .03.02.04.03.05.01.01.03.02.05.01l.57-.1a.06.06 0 0 0 .04-.02.07.07 0 0 0 0-.05l-.04-.3Zm-1.74.47-.27.15c-.03.03-.04.06-.02.08l.17.28c.03.03.05.04.09.02a16.83 16.83 0 0 0 .48-.27c.03-.02.04-.04.03-.08l-.13-.3c-.01-.03-.04-.04-.08-.02l-.27.14Zm4.51.2v-.04l-.58-.32a.02.02 0 0 0-.04.01l-.18.35V5l.01.02.57.31a.02.02 0 0 0 .02 0h.01l.2-.35ZM5.72 6.22a.04.04 0 0 0 .06 0l.44-.44a.04.04 0 0 0 0-.06l-.25-.26a.04.04 0 0 0-.06 0l-.44.45a.04.04 0 0 0 0 .06l.25.25ZM12 5.45a.04.04 0 0 0-.03 0 .04.04 0 0 0-.03 0l-.26.25a.04.04 0 0 0 0 .06l.43.46a.04.04 0 0 0 .06 0l.25-.24.01-.01a.04.04 0 0 0 0-.05L12 5.45ZM4.87 6.92l-.13.29c-.01.04 0 .07.03.08l.3.11c.04.02.06 0 .08-.03a18.38 18.38 0 0 0 .23-.5c.02-.04.01-.07-.02-.09l-.28-.17c-.02-.01-.05 0-.07.03l-.14.28Zm8.27.33a.04.04 0 0 0 .02-.02.04.04 0 0 0 0-.03l-.28-.58a.04.04 0 0 0-.03-.02.04.04 0 0 0-.03 0l-.3.19-.02.02v.03l.27.56.02.02h.03l.32-.17ZM3 9.3v-.65h11.95c.03 0 .05.01.05.05v.56c0 .03-.01.05-.04.05-.15.04-.24.02-.27-.07-.01-.03-.03-.04-.06-.04h-.3c-.02 0-.04.01-.05.04v.03c0 .04-.03.05-.06.05h-.3a.07.07 0 0 1-.06-.04l-.02-.05c-.02-.03-.04-.04-.08-.03a.72.72 0 0 1-.27-.01c-.03 0-.05 0-.05.04v.03c0 .04-.03.06-.07.06h-.31c-.04 0-.05-.01-.06-.04v-.05c0-.03-.02-.05-.06-.05l-.32.02c-.02 0-.03.02-.03.04v.03c0 .04-.02.05-.05.05h-.33c-.03 0-.04-.01-.05-.04v-.02c0-.04-.02-.06-.06-.06h-.3c-.03 0-.05.01-.06.05l-.01.04c0 .02-.02.03-.05.03h-.33c-.03 0-.04-.01-.04-.04v-.02c-.01-.04-.03-.06-.07-.06h-.29c-.03 0-.05.02-.05.06l-.01.03a.05.05 0 0 1-.05.03h-.34c-.03 0-.05-.01-.05-.05v-.04c0-.03-.03-.04-.06-.04l-.3.02c-.03 0-.04.01-.04.04v.03c-.02.03-.03.04-.06.04h-.33a.05.05 0 0 1-.05-.03l-.02-.05a.06.06 0 0 0-.07-.04h-.25c-.04 0-.06.01-.06.04l-.01.03c-.01.04-.03.05-.07.05h-.31a.06.06 0 0 1-.06-.03l-.01-.03c-.01-.04-.03-.06-.08-.06H8.4c-.03 0-.04.01-.04.04v.04c0 .03-.03.04-.06.04h-.31a.07.07 0 0 1-.06-.03.07.07 0 0 1-.02-.04c0-.03-.02-.05-.05-.05h-.3c-.03 0-.05.01-.06.04v.04c-.01.03-.03.04-.07.04h-.28a.08.08 0 0 1-.07-.04l-.02-.04a.06.06 0 0 0-.06-.04h-.3c-.02 0-.04.01-.05.05v.02c0 .04-.03.05-.06.05h-.3a.07.07 0 0 1-.06-.04l-.02-.05c-.02-.03-.04-.04-.08-.04a.79.79 0 0 1-.25 0c-.04 0-.06.01-.07.04v.04c-.02.04-.04.05-.07.05h-.3a.06.06 0 0 1-.05-.03l-.03-.06a.06.06 0 0 0-.06-.03H5c-.03 0-.04.01-.04.04v.02c0 .04-.02.06-.07.06h-.3c-.04 0-.06-.01-.06-.04v-.04c0-.04-.03-.05-.06-.05l-.32.02c-.02 0-.03.01-.04.04v.02c-.01.04-.03.05-.07.05h-.32c-.02 0-.04-.01-.04-.04v-.02c0-.04-.03-.06-.07-.06h-.26a.07.07 0 0 0-.07.04c-.05.09-.14.11-.27.07ZM4.05 9.47h-.34a.04.04 0 0 0-.04.04v.65c0 .03.02.05.04.05h.34c.03 0 .05-.02.05-.05v-.65a.04.04 0 0 0-.05-.04ZM5.74 9.47h-.33a.04.04 0 0 0-.04.04v.66c0 .02.02.04.04.04h.34c.02 0 .04-.02.04-.05v-.65a.04.04 0 0 0-.05-.04ZM7.44 9.47h-.33a.04.04 0 0 0-.05.04v.65c0 .03.02.05.05.05h.33c.03 0 .05-.02.05-.05v-.65a.04.04 0 0 0-.05-.04ZM3.21 9.48a.03.03 0 0 1 .04.03v.02a4.6 4.6 0 0 1-.01.63c-.01.04-.03.06-.04.06h-.03c-.03 0-.06-.07-.08-.2-.03-.13-.05-.3-.06-.48v-.02a.03.03 0 0 1 .03-.03l.15-.01ZM4.9 9.47h-.34a.03.03 0 0 0-.04.04v.66c0 .02.02.03.04.03h.35c.02 0 .03 0 .03-.03v-.66a.03.03 0 0 0-.03-.04ZM6.6 9.48h-.35a.04.04 0 0 0-.04.04v.65c0 .02.02.04.04.04h.35c.02 0 .03-.02.03-.04v-.65a.04.04 0 0 0-.03-.04ZM8.3 9.47h-.35a.03.03 0 0 0-.04.04v.66c0 .02.02.03.04.03h.36c.02 0 .03-.01.03-.03V9.5a.03.03 0 0 0-.03-.04ZM9.16 9.47h-.38a.03.03 0 0 0-.03.04v.66c0 .02.02.03.04.03h.37c.02 0 .03-.01.03-.03v-.66a.03.03 0 0 0-.03-.04ZM10 9.47h-.36a.04.04 0 0 0-.04.04v.66c0 .02.02.03.04.03h.37c.02 0 .03-.01.03-.04v-.65a.04.04 0 0 0-.04-.04ZM10.85 9.47h-.36a.04.04 0 0 0-.04.04v.66c0 .02.02.03.04.03h.36c.02 0 .04-.01.04-.04v-.65a.04.04 0 0 0-.04-.04ZM11.7 9.47h-.36a.04.04 0 0 0-.03.04v.66c0 .02.01.03.03.03h.35c.02 0 .04-.01.04-.03v-.66a.04.04 0 0 0-.03-.04ZM12.54 9.47h-.35a.03.03 0 0 0-.03.04v.66c0 .02.01.03.03.03h.35c.02 0 .04 0 .04-.03v-.66a.03.03 0 0 0-.04-.04ZM13.39 9.47h-.35a.03.03 0 0 0-.03.04v.66c0 .02.02.03.04.03h.34c.02 0 .04-.01.04-.03v-.66a.03.03 0 0 0-.04-.04ZM14.23 9.47h-.33a.05.05 0 0 0-.05.05v.64c0 .03.02.05.05.05h.33c.03 0 .05-.02.05-.05v-.64a.05.05 0 0 0-.05-.05ZM13.85 10.47a.3.3 0 0 0 0-.03c0-.03.02-.05.06-.05h.33a.04.04 0 0 1 .02.01l.01.02v.03c0 .04.03.06.07.06h.3c.03 0 .04-.01.05-.04.03-.09.07-.1.12-.05l.01.02v.02l-.15.49c0 .03-.04.05-.08.05H3.45c-.03 0-.06 0-.08-.02a.11.11 0 0 1-.04-.06 423.92 423.92 0 0 0-.16-.53c.02-.03.03-.03.05 0l.04.08c.02.03.04.04.07.04h.27l.04-.01c.02-.01.03-.02.03-.04v-.03c.02-.02.04-.04.07-.04h.3c.04 0 .06.02.06.04v.04c0 .03.01.04.04.04h.33c.03 0 .04-.01.05-.04v-.03c0-.03.01-.05.05-.05h.32c.03 0 .05.02.05.05v.03c0 .03.02.04.05.04h.32c.03 0 .04-.01.05-.04l.01-.04c.01-.02.03-.04.06-.04h.3c.03 0 .05.02.06.04v.03c0 .03.03.05.07.05h.29c.03 0 .05-.02.06-.04v-.05l.01-.01.01-.01h.39l.02.03v.04c0 .03.01.04.04.04h.3c.04 0 .07-.02.08-.06l.01-.02c0-.03.03-.04.05-.04h.3c.03 0 .05.01.06.04v.03c.01.03.03.05.07.05h.29c.03 0 .05-.02.06-.05l.01-.02c.01-.03.03-.05.06-.05h.31l.03.01.02.03.01.03c0 .03.03.05.06.05h.28c.04 0 .06-.02.07-.05v-.02c.01-.03.04-.05.07-.05h.3c.04 0 .06.02.07.05v.02c0 .03.03.05.06.05h.3c.02 0 .04-.01.04-.03l.02-.05c0-.02.02-.04.06-.04h.3c.02 0 .04.01.06.04l.02.04c.02.03.04.04.07.04h.27c.03 0 .05-.01.06-.04v-.03c.02-.03.04-.05.07-.05h.3c.03 0 .05.01.06.04l.02.04c.02.03.04.04.07.04h.28c.03 0 .05-.01.05-.04l.02-.04c0-.02.03-.04.06-.04h.3c.02 0 .04.02.05.04v.03c0 .03.02.05.06.05h.32c.03 0 .04-.01.04-.04v-.03c0-.03.02-.04.05-.04h.31c.03 0 .04 0 .06.02l.03.06c0 .02.02.03.04.03h.32c.03 0 .05-.02.05-.04v-.03c0-.03.02-.05.05-.05h.33c.03 0 .05.02.04.05v.03c0 .02.02.04.05.04h.32c.03 0 .05-.01.05-.04ZM4.04 12.35l-.48-.82a.04.04 0 0 1 0-.04.04.04 0 0 1 .04-.02h10.8a.04.04 0 0 1 .04.04v.01l-.6 1.04a.15.15 0 0 1-.09.06c-1.39.43-2.79.43-4.2 0l-1.09-.32a7.87 7.87 0 0 0-4.34.09c-.04 0-.06 0-.08-.04Z" fill="#2C348C"/><path d="M13.13 13.27h.04c.02-.01.03 0 .02.01v.03c-.43.4-.9.75-1.43 1.03a.75.75 0 0 1-.4.1 8.34 8.34 0 0 1-1.72-.28c-.36-.1-1.08-.35-1.55-.45a8.38 8.38 0 0 0-2.88-.07.1.1 0 0 1-.08-.03l-.74-.74a.04.04 0 0 1-.01-.04.05.05 0 0 1 .03-.03c1.52-.43 3-.34 4.52.13a7.8 7.8 0 0 0 4.2.34ZM5.8 14.1c-.08-.06-.08-.1.03-.1.79-.05 1.56 0 2.32.17.55.13 1.45.47 2.21.59.19.03.19.06 0 .1a6.14 6.14 0 0 1-4.56-.77Z" fill="#2C348C"/></svg>