<!-- by TradingView --><svg width="18" height="18" viewBox="0 0 18 18" xmlns="http://www.w3.org/2000/svg"><path fill="#005130" d="M0 0h18v18H0z"/><path d="m4.9 6 .07.03c.02 0 .03.03.03.05v.64c0 .04-.02.08-.05.08H3.52c-.02 0-.03 0-.03.03v1.1c0 .05-.02.07-.06.07L3 7.98V6.05A.16.16 0 0 0 3.03 6h1.88Z" fill="#01A261"/><path d="M4.06 7h.8c.03 0 .05.04.05.08V8.7c0 .04-.03.07-.06.07h-.8c-.02 0-.05-.04-.05-.08V7.07c0-.04.03-.07.06-.07Zm1.7 0h.76c.04 0 .07.04.07.1v1.58c0 .05-.03.09-.07.09h-.75c-.04 0-.07-.04-.07-.1V7.1c0-.05.03-.09.07-.09ZM5.3 9.1h1.25c.03 0 .04.01.04.05v1.75c0 .07-.02.1-.08.1h-.74c-.05 0-.07-.03-.07-.09V9.46c0-.03-.01-.05-.04-.05h-.72c-.03 0-.04.02-.04.05v1.44c0 .06-.02.1-.07.1h-.74c-.05 0-.08-.04-.08-.1V9.13c0-.03 0-.05.03-.05H5.3Zm7.83.1c-.01-.01 0-.03.01-.03.45-.07.69-.37.73-.91.03-.39-.03-.69-.19-.9-.15-.2-.37-.32-.68-.34-.29-.02-.6-.01-.92.01-.05 0-.08.04-.08.11v3.8c0 .04.02.07.06.07h.05c.05 0 .08-.04.08-.1V9.23c0-.02.01-.03.03-.03h.64c.03 0 .05.02.07.05l.88 1.7c.03.05.06.06.1.04l.04-.01c.05-.03.06-.08.03-.14l-.85-1.64Zm-.94-.27V7.28c0-.03.01-.05.04-.05h.78c.18 0 .34.08.48.22.13.15.2.33.2.53v.24c0 .2-.07.38-.2.53a.63.63 0 0 1-.48.22h-.78c-.03 0-.04-.02-.04-.05Zm-4.3-.9c0-.06.02-.08.06-.08h.08c.31 0 .52.04.64.1.19.12.3.34.34.69 0 .03.01.04.04.04h.81c.03 0 .04-.01.04-.04a1.97 1.97 0 0 0-.52-1.32A1.52 1.52 0 0 0 8.25 7c-.4 0-.78.04-1.14.1-.07.01-.11.07-.11.16v1.48c0 .02.01.03.03.03h.83c.02 0 .03-.01.03-.04v-.71Zm.36 2.04h-.31c-.03 0-.05-.02-.05-.05v-.89c0-.02 0-.04-.03-.04h-.83c-.02 0-.03.02-.03.04v1.62c0 .09.03.14.1.15.26.06.58.1.96.1 1.17.05 1.79-.57 1.85-1.85 0-.04-.01-.06-.04-.06h-.8c-.04 0-.06.02-.06.07-.02.6-.27.9-.76.9ZM10.95 7h-.9c-.02 0-.05.03-.05.06v1.65c0 .03.03.06.06.06h.88c.03 0 .06-.03.06-.06V7.06c0-.03-.03-.06-.06-.06Zm-.03 2.09h-.84c-.04 0-.08.03-.08.09v1.73c0 .05.04.09.08.09h.84c.04 0 .08-.04.08-.1V9.19c0-.05-.04-.1-.08-.1Z" fill="#fff"/><path d="M15 10v2h-1.9a.16.16 0 0 1-.07-.05 10.17 10.17 0 0 1-.02-.66c0-.05.02-.09.07-.09h1.5c.03 0 .04 0 .04-.03v-1.08c0-.06.02-.1.07-.09H15Z" fill="#01A261"/></svg>