<!-- by TradingView --><svg width="18" height="18" viewBox="0 0 18 18" xmlns="http://www.w3.org/2000/svg"><path fill="#F0F3FA" d="M0 0h18v18H0z"/><path d="M5.76 8c-.6.23-1.03.64-1.32 1.22-.1.2-.14.42-.19.64 0 .03-.02.05-.04.06-.02.02-.05.02-.07 0a.08.08 0 0 1-.04-.04 4.95 4.95 0 0 1 4.03-5.8c.94-.18 1.75-.06 2.42.67.43.48.62 1.06.55 1.74a2.2 2.2 0 0 1-2.96 1.8c-.26-.1-.5-.26-.78-.34a2.53 2.53 0 0 0-1.6.04Z" fill="#0A247B"/><path d="M9.52 4.5c-.18-.05-.4-.01-.6 0-.18.02-.34.06-.51.12-.05.01-.08 0-.08-.03l.01-.05c.08-.11.44-.23.63-.23.14 0 .63.02.6.17 0 .02-.03.03-.05.02ZM9.27 4.63h.16a.1.1 0 0 1 .05 0c.02.01.03.02.03.04l.05.1c.02.02 0 .05-.02.06l-.03.01-.45.1c-.08.01-.15-.06-.09-.1l.24-.2h.02l.04-.01ZM8.5 4.94h-.02c-.08 0-.15.05-.15.12v1c0 .07.06.13.15.13s.16-.06.16-.13v-1c0-.07-.07-.12-.15-.12Z" fill="#2789D5"/><path d="M9.76 7.31c-.07-.03-.12-.09-.14-.18 0-.03-.02-.03-.04-.02-.1.07-.24.1-.4.1-.18 0-.36 0-.55.02-.05 0-.1-.04-.1-.1l.02-.54c0-.11.07-.16.19-.16l.26.02a.2.2 0 0 0 .1-.02s.18-.03.25-.5c.01-.02.03-.04.06-.05.16-.07.08.44.07.5 0 .02 0 .04.02.06.06.07.17.08.18.2l.04.32v.18c0 .06 0 .12.04.17Z" fill="#10449C"/><path d="M6.79 6.47c.08-.19.34-.36.52-.5.14-.1.33-.1.5-.1.13.01.2.06.21.15 0 .02 0 .03-.03.02l-.14-.05a.59.59 0 0 0-.54.1c-.11.1-.26.18-.34.29 0 0-.23.2-.18.09Z" fill="#2789D5"/><path d="m8.83 6.19.32.01c.27.03-.28.24-.41.23-.12 0-.18.05-.19.16l-.02.54c0 .05.56.08.65.08.16 0 .3-.03.4-.1.02-.01.03 0 .04.02.02.1.07.15.14.18.12.07.2.13 0 .13H6.52c-.03 0-.05-.03-.04-.05a.26.26 0 0 1 .1-.1.05.05 0 0 0 .03-.05l.03-.36c0-.04.05-.07.1-.06.2.06.42.01.64.02.3 0 .6.02.87.04.04 0 .07-.02.08-.05l.04-.15c.02-.05 0-.08-.07-.08l-.77.02a.1.1 0 0 1-.04 0 .08.08 0 0 1-.05-.09l.02-.29c0-.06.04-.1.11-.08.11.02.23.03.34.03h.92Z" fill="#2789D5"/><path d="M13.03 11.84c.46-.53.73-1.27.87-1.94a5.04 5.04 0 0 0-3.03-5.53l-.2-.1a.35.35 0 0 0-.18-.03c-.08 0-.09.03-.03.08a2.48 2.48 0 0 1 .03 3.88c-.55.47-1.13.73-1.4 1.48-.05.17-.08.38-.09.63-.01.63.2 1.17.65 1.6.49.47 1.22.77 1.92.66a2.1 2.1 0 0 0 1.46-.74Z" fill="url(#aipbpmm0z)"/><path d="M11.2 9.97a.86.86 0 0 0-.15.55c0 .03-.02.05-.05.04-.12-.03-.2-.1-.24-.21l-.18-.6a.43.43 0 0 1-.01-.2c.01-.05.03-.06.06-.01l.13.19a.29.29 0 0 0 .2.1c.07.01.09-.02.06-.07-.2-.37-.15-.75.12-1.15.4-.56 1.07-.92.91-1.72-.01-.1.01-.1.08-.03.28.28.23.75.07 1.08-.1.2-.18.43-.26.67-.06.2.05.35.15.5.05.06.11.09.19.08.03 0 .06-.03.05-.06a3.12 3.12 0 0 0-.06-.22c-.09-.27.14-.57.36-.7h.03c.02 0 .05.02.04.05l-.02.42c0 .09.02.18.06.25.09.18.22.35.27.54.08.3.1.95-.2 1.18l-.02.02c-.04 0-.07-.03-.07-.06 0-.3-.1-.59-.31-.84l-.54-.63c-.04-.04-.1-.04-.13 0-.16.29-.34.56-.53.83Z" fill="#FFED36"/><path d="M11.32 10.7a.65.65 0 0 1 .02-.59c.13-.25.28-.5.44-.74 0-.02.03-.02.04 0 .2.2.38.4.56.64a1 1 0 0 1 .2.55c.01.14-.03.26-.12.36-.16.2-.4.33-.65.24-.12-.04-.25-.04-.36-.11a.59.59 0 0 1-.2-.25c-.02-.06.1-.05.07-.1Z" fill="#FFED36"/><path d="M9 11.24c.47.97 1.22 1.5 2.26 1.57.2.02.35 0 .48-.04a3.52 3.52 0 0 1 .56-.1.04.04 0 0 1 .01.03l-.01.02a5.04 5.04 0 0 1-3.91 1.25c-.68-1.78-1.22-1.57-3.32-1.86a3.92 3.92 0 0 1-.67-1.18 1.68 1.68 0 0 1-.09-.47c-.01-.81.32-1.6 1-2.05.57-.4 1.19-.5 1.85-.32a2.17 2.17 0 0 1 1.64 2.07c.03.36.1.72.2 1.08Z" fill="url(#bipbpmm0z)"/><path d="M8.39 13.97c-.14.01-.27 0-.37-.02-.24-.29-.14-.08-.29-.08a5.71 5.71 0 0 1-2.42-1.43c-.1-.09-.18-.2-.24-.33.2-.1.38-.2.57-.32a.67.67 0 0 1 .33-.07c.02 0 .04 0 .06.02.34.27.66.25.96-.05.02-.03.05-.04.07-.04.02 0 .04 0 .05.02l.06.03c.14 0 .26.04.37.12.02.02.06.03.09.03.62.04.67 1.3.67 1.73 0 .07 0 .13.02.2l.07.19Z" fill="#FFED36"/><path d="M8.02 13.95a.91.91 0 0 1-.29-.08l-.06-1.33c0-.11-.02-.19-.06-.24-.05-.08-.14-.1-.26-.07-.47.1-.97.2-1.45.19-.11 0-.2.06-.2.19 0 .03-.03.05-.05.04a.1.1 0 0 1-.07-.09.1.1 0 0 0-.03-.05.29.29 0 0 0-.13-.1c-.03 0-.05-.02-.05-.06l.01-.2c0-.04.04-.07.08-.06a.4.4 0 0 1 .16.07.1.1 0 0 0 .04.02c.09.01.11-.07.14-.14a.07.07 0 0 1 .05-.04h.04c.02.03.04.06.04.1 0 .08.05.13.13.14l.46.02c.2 0 .59-.03.6-.3 0-.02 0-.05.03-.05s.05 0 .05.03c.02.05.03.1.02.14 0 .03.01.04.03.05.07.02.14.01.21-.03a.1.1 0 0 1 .1 0c.12.09.21.21.23.36.03.35.06.7.07 1.04 0 .09.01.16.05.23l.1.22Z" fill="#B8CE2E"/><path fill-rule="evenodd" d="m7.4 9.97-.05-.06a.1.1 0 0 1-.03-.06.74.74 0 0 0-.34-.61 1.2 1.2 0 0 1-.23-.22.15.15 0 0 0-.06-.04.57.57 0 0 0-.58.13l-.11.1c-.19.18-.32.3-.34.63 0 .1-.03.19-.07.27-.05.1-.03.19.04.26l.03.04.1.32c.03.22.12.4.26.55.04.05.06.1.08.16 0 .03.03.04.06.03a.4.4 0 0 1 .25-.05c.16.03.32 0 .48-.01h.05c.05-.01.08-.05.09-.1a.1.1 0 0 1 .02-.07c.18-.2.21-.34.25-.55 0-.03 0-.06.02-.09l.08-.25a.55.55 0 0 0 0-.38Zm-1.57.78c.03.2.13.38.28.52.13.11.32.11.49.1h.04c.11 0 .2-.02.28-.08a.72.72 0 0 0 .28-.57c0-.13-.01-.27-.05-.4l-1.27.03h-.04a.1.1 0 0 0-.05.07.1.1 0 0 0 0 .04l.04.3Z" fill="#FFED36"/><path d="M6.6 10.05h-.76c-.03 0-.05-.07-.02-.07.12-.03.25-.07.25-.22a9.42 9.42 0 0 0 0-.38c0-.02.03-.03.05-.02.03.02.05.05.07.1.03.12.06.24.07.35 0 .03.02.06.04.08.02.02.05.04.08.04.1.01.27.04.33-.06.04-.05.06-.1.06-.16 0-.12 0-.25.02-.37 0-.05.07-.01.08.02l.07.5c0 .02.01.03.03.05.04.02.06.06.04.12h-.03c-.04-.1-.2-.03-.28 0a.26.26 0 0 1-.1.02Z" fill="#B8CE2E"/><defs><linearGradient id="aipbpmm0z" x1="13.68" y1="7.52" x2="9.6" y2="11.83" gradientUnits="userSpaceOnUse"><stop offset=".73" stop-color="#E83E00"/><stop offset=".91" stop-color="#EB7F3F"/></linearGradient><linearGradient id="bipbpmm0z" x1="6.93" y1="8.15" x2="7.14" y2="13.6" gradientUnits="userSpaceOnUse"><stop stop-color="#75BA5F"/><stop offset=".66" stop-color="#1D6A1C"/></linearGradient></defs></svg>