<!-- by TradingView --><svg width="18" height="18" viewBox="0 0 18 18" xmlns="http://www.w3.org/2000/svg"><path fill="#F0F3FA" d="M0 0h18v18H0z"/><path fill-rule="evenodd" d="M11.73 12c1.8 0 3.27-1.34 3.27-3s-1.47-3-3.27-3C9.92 6 8.45 7.34 8.45 9s1.47 3 3.28 3Zm0-1.17c1.1 0 2-.82 2-1.83 0-1.01-.9-1.83-2-1.83s-2 .82-2 1.83c0 1.01.9 1.83 2 1.83Z" fill="url(#a)"/><path d="M6.27 12c1.81 0 3.28-1.34 3.28-3S8.08 6 6.27 6C4.47 6 3 7.34 3 9s1.47 3 3.27 3Zm-.06-5c.07.03.5.36.57.41.05.04.12.18.16.28L7 7.8l.09.12.09.13c.03.04.22.1.32.14-.07.02-.22.09-.22.13 0 .06.11.2.22.25.08.05.37.11.5.14 0 .1-.01.29-.07.33-.03.03-.04.08-.05.13-.02.06-.03.13-.1.15a.63.63 0 0 1-.07.01c-.07.01-.11.01-.03.1.1.1.4.47.25.52a4.64 4.64 0 0 0-.43.2c-.07.02-.29.1-.4.1h-.14a1.52 1.52 0 0 0-.5 0l-.25.12V11h-.22v-.63c-.05-.08-.19-.23-.25-.23-.04 0-.08.08-.11.14l-.06.09-.04.01c-.04.03-.1.07-.18-.01-.1-.11-.25-.11-.36-.11-.08 0-.03-.17 0-.25a5.66 5.66 0 0 0-.6-.06c-.1 0-.19.02-.26.03-.1.01-.17.02-.1-.03.04-.03.15-.05.27-.07.15-.03.3-.06.26-.12-.04-.07-.21-.07-.35-.08-.1 0-.18 0-.18-.03a2.57 2.57 0 0 1 .16-.47c.02-.07.05-.16.2-.25.17-.1.32-.25.28-.3l-.04-.05c-.06-.06-.15-.15-.07-.26l.08-.1c.06-.1.1-.17.2-.17.12 0 .15-.2.15-.3h.27c.05.03.12.06.3-.09.2-.15.52-.5.65-.66Z" fill="url(#b)"/><defs><linearGradient id="a" x1="11.73" y1="6" x2="11.73" y2="12" gradientUnits="userSpaceOnUse"><stop stop-color="#E7003C"/><stop offset="1" stop-color="#72000C"/></linearGradient><linearGradient id="b" x1="6.27" y1="6" x2="6.27" y2="12" gradientUnits="userSpaceOnUse"><stop stop-color="#E7003C"/><stop offset="1" stop-color="#72000C"/></linearGradient></defs></svg>