<!-- by TradingView --><svg width="18" height="18" viewBox="0 0 18 18" xmlns="http://www.w3.org/2000/svg"><path fill="#F0F3FA" d="M0 0h18v18H0z"/><path d="M3 6.8C5.75 8.55 8.06 13 8.88 15l3.24-4.22c.32-1.37.9-2.82 1.43-3 .53-.17.6-1.16.17-2.23-.34-.85-1.21-.25-1.6.15L10.46 4l-.18 1.32-1.23-.74c-1.69-.46-1.22 1.67-.78 2.8L3 6.79Z" fill="url(#a)"/><path d="M12.14 5.8c.02 0 .03.02.02.02l.28.3c0 .27-.02.48-.07.62-.1.23-.22.45-.38.66-.02.03-.03.02-.03-.02 0-.08.02-.2.05-.32.02-.1 0-.25-.05-.45l.18-.82ZM11.24 6.02l.47.33c-.22-.03-.36.05-.42.24-.07.2-.08.4-.03.64a7.15 7.15 0 0 0 .7 1.8.35.35 0 0 1-.06.13c-.01.02-.02.02-.03 0a.1.1 0 0 0-.03-.05.02.02 0 0 0-.02 0 .02.02 0 0 0-.02 0l-.03.08c0 .02-.02.03-.03.02l-.1-.06c-.13-.4-.32-.76-.58-1.09l-.11-.18c-.03-.04-.06-.06-.09-.05l-.15-.8c-.06-.29-.04-.53.06-.73.08-.16.23-.26.47-.28Z" fill="#EC3A8F"/><path d="M12.6 6.31c.07.12.12.26.14.41.02.23-.02.48-.12.73a.9.9 0 0 1-.34.42c0 .01 0 .02.02.03h.03c.22-.1.39-.24.5-.42l.35-.5c.2-.24.56-.5.8-.14v.05c.04.21-.01.4-.15.57l-.2.2-.26.13c-.29.13-.55.3-.79.51a.48.48 0 0 0-.08.11 1.93 1.93 0 0 0-.48.68.03.03 0 0 1-.04 0 6.26 6.26 0 0 1-.26-.5c-.2-.43-.35-.89-.46-1.36-.05-.23-.04-.45.02-.64.07-.19.21-.27.43-.24.11.04.2.13.24.26.06.2.08.35.06.45l-.05.32c0 .04 0 .05.03.02.16-.2.29-.43.38-.66.05-.14.07-.35.07-.62l.16.19Z" fill="#4EB849"/><path d="M13.92 6.56a.74.74 0 0 1 .05.28c-.23-.36-.59-.1-.79.13l-.35.51c-.11.18-.28.32-.5.41h-.03c-.02 0-.02 0-.02-.02l.01-.01a.9.9 0 0 0 .33-.41l.41-.56c.23-.32.53-.43.89-.33Z" fill="#EC3A8F"/><path d="m9.1 7.5.3.2.29.2c.1.1.2.17.3.26.32.35.59.66.78.94a5.95 5.95 0 0 1 .93 2.12l-.03.02h-.02l-.3-.7a8.77 8.77 0 0 0-2.44-3.15l.2.1Z" fill="#4EB849"/><path d="m10.18 7.7.51.54a5.12 5.12 0 0 1 .66 1.06 9.26 9.26 0 0 1 .4 1.55v-.01a8.64 8.64 0 0 0-1.19-2.54l-.53-.7c-.03-.03-.02-.04.02-.02a.6.6 0 0 1 .13.11ZM11.65 9.15a3.08 3.08 0 0 1 .18 1.1c-.04.1-.06.09-.07 0a3.29 3.29 0 0 0-.1-.48v.01a6.88 6.88 0 0 0-.48-1.39l-.32-.56c.03-.01.06 0 .09.05l.11.18a4 4 0 0 1 .59 1.1ZM12.04 10.8a4 4 0 0 1 1.39-2.3c.12-.08.25-.16.4-.23a5.7 5.7 0 0 0-.64.7 8.39 8.39 0 0 0-1.15 1.83Z" fill="#4EB849"/><path d="M13.04 8.38c-.16.21-.33.43-.45.67l-.21.42a3.96 3.96 0 0 0-.36.85l-.07.22h-.02l-.02-.02-.01-.02c.12-.53.29-1 .51-1.4.1-.19.27-.4.5-.65.02-.04.07-.06.13-.07Z" fill="#4EB849"/><defs><linearGradient id="a" x1="5.11" y1="12.29" x2="14.03" y2="8.3" gradientUnits="userSpaceOnUse"><stop stop-color="#F8BFC6"/><stop offset=".34" stop-color="#F393B7"/><stop offset=".49" stop-color="#EF639D"/><stop offset=".6" stop-color="#EC3A8F"/><stop offset=".7" stop-color="#EF639D"/><stop offset=".78" stop-color="#EC3A8F"/><stop offset="1" stop-color="#F078A7"/></linearGradient></defs></svg>