<!-- by TradingView --><svg xmlns="http://www.w3.org/2000/svg" width="18" height="18"><path fill="#F0F3FA" d="M0 0h18v18H0z"/><path d="M3.66 5.63c8.28-2.13 11.73 1.73 12.5 2.79.2.29.22.75.01 1.05-1.81 2.7-4.9 3.43-7.43 3.52a18.21 18.21 0 01-4.67-.47h-.02l.06-.47-.06.47h-.02C3 12.2 2.32 11.36 2.32 10.35V7.4a1.73 1.73 0 011.14-1.7 1.77 1.77 0 01.18-.06h.02zm.12.93a.7.7 0 00-.12.04.98.98 0 00-.3.16.75.75 0 00-.34.63v2.97c0 .35.27.96 1.16 1.23h.02a7.44 7.44 0 00.33.08c.24.05.57.12.98.18.83.13 1.97.24 3.21.2 2.46-.08 5.23-.79 6.85-3.09-.78-1-4.05-4.4-11.78-2.4h-.01z" fill="#00539F"/><path d="M10.73 10.5c0 .14.14.14.25.14h1.15V7.78c0-.12.02-.18.1-.2.08-.01.11-.05.11-.12a.12.12 0 00-.03-.08.16.16 0 00-.08-.05.17.17 0 00-.06 0h-1.34c-.07.02-.1.06-.1.13 0 .06.04.1.1.12.07.02.08.06.08.17v2.43c0 .1-.01.18-.08.2-.06.02-.1.06-.1.12zm1.93-.32c-.1.1-.22.17-.38.19v.27h.92v-1c0-.1-.04-.15-.11-.15-.05 0-.08.01-.1.04a.6.6 0 00-.07.18c-.07.2-.16.36-.26.47zm-7 .01c0 .13.04.17.12.19.08.02.12.06.12.12 0 .03 0 .06-.03.08a.16.16 0 01-.09.05.2.2 0 01-.06 0H4.35c-.07-.02-.1-.06-.1-.12 0-.07.03-.1.1-.12.07-.03.1-.1.1-.2V7.73c0-.12-.05-.15-.1-.16-.07-.02-.1-.06-.1-.13 0-.06.03-.1.1-.12h1.32v2.86zm.2-2.87h.33c.56.03 1.15.27 1.15.84 0 .51-.44.7-.9.82l.32.06c.26.07.58.27.58.53v.49c0 .05.01.07.05.07s.05-.03.06-.06c0-.04.02-.08.07-.08.06 0 .13.08.13.13 0 .06-.05.14-.11.22-.16.2-.4.3-.68.3-.45 0-.76-.3-.76-.68v-.4a.55.55 0 00-.06-.3c-.05-.07-.08-.1-.18-.12v-.26c.2-.02.24-.15.24-.32v-.63c0-.2-.04-.29-.24-.34v-.27zm3.33.28c-.2.03-.31.17-.31.41v1.93c0 .19.07.4.3.42v.28a1.9 1.9 0 01-.66-.12c-.64-.27-.87-.9-.87-1.49 0-.66.3-1.39 1.05-1.63.14-.05.33-.07.49-.08v.28zm.17-.27h.02l.3.07.09.03.18.05c.1.03.14-.02.19-.07.03-.04.06-.09.14-.09.09 0 .14.05.14.15v.97c0 .12-.05.18-.15.18-.08 0-.13-.05-.16-.15-.09-.33-.32-.83-.75-.87v-.27zm0 3.02a.92.92 0 00.49-.18c.13-.1.23-.23.28-.38.04-.1.08-.14.15-.14.09 0 .14.07.14.14 0 .33-.38.66-.69.78-.1.04-.23.06-.36.07v-.29z" fill="#EF3E33"/></svg>