<!-- by TradingView --><svg width="18" height="18" viewBox="0 0 18 18" xmlns="http://www.w3.org/2000/svg"><path fill="#F0F3FA" d="M0 0h18v18H0z"/><path fill-rule="evenodd" d="M14 5H4v8h10V5Zm-.31.29H4.3v7.42h9.38V5.3Z" fill="#282973"/><path fill="#282973" d="M8 5h2v5H8zm3 1.97c0-1.14 1.1-1.75 1.66-1.97H14v1.11c-.77 0-1.34.26-1.34 1.53 0 1.02.94 1.26 1.34 1.25V10h-1.05c-1.43 0-1.9-1.37-1.95-2.06v-.97ZM6 5.11c.5.03 1 .28 1 1.1v.58c0 .3-.05.72-.9.92-.06 0-.1.04-.1.11A9.62 9.62 0 0 1 7.5 10h-2a11.6 11.6 0 0 1-.63-1.3c-.14-.33-.25-.59-.3-.64h-.49V7h1.38c.3 0 .54-.15.54-.34v-.32C6 6.15 5.76 6 5.46 6H4.08v-.89h1.93Z"/></svg>