<!-- by TradingView --><svg width="18" height="18" viewBox="0 0 18 18" xmlns="http://www.w3.org/2000/svg"><path fill="#F0F3FA" d="M0 0h18v18H0z"/><path d="M4 7.14v.57l4.6-2.3a.86.86 0 0 1 .79.01l3.7 1.98c.34.19.33.65-.02.83L10.32 9.6l3.29 1.78c.31 0 .39-.56.39-.84v-3.4c0-.54-.32-1.02-.84-1.27l-3.8-1.8a.87.87 0 0 0-.73 0l-3.79 1.8c-.52.25-.84.73-.84 1.26Z" fill="#EA5407"/><path d="M5 8.42v3.8l3.47 1.68c.24.13.55.13.8 0l3.15-1.68-5.4-2.85h.53c.42 0 .7-.08.8-.12L11.1 7.7l-1.86-.9a.87.87 0 0 0-.76.02L5 8.42Z" fill="#EA5407"/></svg>