<!-- by TradingView --><svg width="18" height="18" viewBox="0 0 18 18" xmlns="http://www.w3.org/2000/svg"><path fill="#F0F3FA" d="M0 0h18v18H0z"/><path d="M14 11h-1.59l-.02-.01a.13.13 0 0 1-.09-.06l-1.7-2.84a.2.2 0 0 0-.17-.1H7.65c-.04 0-.06-.01-.06-.05v-.89a.06.06 0 0 1 .01-.04.06.06 0 0 1 .05-.01h3.27a.15.15 0 0 1 .13.07l1.32 2.29.03.02a.07.07 0 0 0 .07 0 2.44 2.44 0 0 0 .84-2.45c-.21-1.1-.97-1.74-2.05-1.89a6 6 0 0 0-.8-.04 1812.08 1812.08 0 0 1-5.45.01L5 5.04v7.9a.07.07 0 0 0 .06.06h2.47c.04 0 .06-.02.06-.05v-2.9c0-.02 0-.04.02-.05h1.32l.04.01.02.02 1.65 2.9a.16.16 0 0 0 .14.07H14v-2Z" fill="#1CA4D4"/></svg>