<!-- by TradingView --><svg xmlns="http://www.w3.org/2000/svg" width="18" height="18"><path fill="#FFCE00" d="M0 0h18v18H0z"/><path d="M7.01 8c0-.43-.21-1.14-.76-1.14-.65 0-.88.58-.88 2.02 0 1.4.13 2.26.9 2.26a.9.9 0 00.82-.92v-.59h-.88v-.86h2.16V12h-.99v-.64h-.02c-.31.45-.77.65-1.4.65C4.34 12 4 10.93 4 8.94 4 7 4.53 6.01 6.23 6.01 7.7 6 8.3 6.83 8.3 8H7.01z" fill="#fff"/><path d="M9.49 6h2.47c1.1 0 1.78.52 1.78 1.54 0 .8-.36 1.34-1.1 1.48v.02c.9.11 1.04.56 1.06 1.82.01.64.05.96.3 1.08V12h-1.45c-.13-.17-.16-.4-.17-.64l-.04-1.15c-.02-.47-.25-.76-.8-.76h-.68v2.53H9.5V6zm1.37 2.62h.54c.64 0 1-.24 1-.9 0-.55-.32-.83-.93-.83h-.6v1.73z"/></svg>