<!-- by TradingView --><svg width="18" height="18" viewBox="0 0 18 18" xmlns="http://www.w3.org/2000/svg"><path fill="#DF1C33" d="M0 0h18v18H0z"/><path d="m9.31 12.86-2.37-2.4C6.54 11.7 7.17 14 8.07 14c.55 0 1.06-.76 1.24-1.14Z" fill="#fff"/><path d="m5.17 7.63 3.52-.73c-2.14 2.12-2.14 3.85-2.14 4.53 0 .68.17 1.6.48 2.25-2.1-.89-2.8-2.87-3.02-4.51-.1-.74.44-1.39 1.16-1.54ZM12.14 6.9l-.95 3.23c1.22-.2 2.83-1.78 2.44-2.6-.24-.5-1.1-.63-1.49-.63ZM5.58 7.23l3.1-.7c-.74-.99-2.83-1.67-3.31-.92-.3.45.02 1.27.21 1.62Z" fill="#fff"/><path d="m9.96 13.21-2.52-2.65c2.9.67 4.33-.3 4.89-.69a5.8 5.8 0 0 0 1.59-1.68c.42 2.32-.82 4.06-2.06 5.16-.56.5-1.38.4-1.9-.14Z" fill="#fff"/><path d="M12.05 6.33 11 9.81C10.25 6.87 8.82 6 8.27 5.68a5.24 5.24 0 0 0-2.08-.7c1.72-1.41 3.69-1.06 5.15-.43.65.28.93 1.07.71 1.78Z" fill="#fff"/></svg>