<!-- by TradingView --><svg width="18" height="18" xmlns="http://www.w3.org/2000/svg"><path fill="url(#paint0_linear)" d="M0 0h18v18H0z"/><path d="M4.858 9c-.237.021-.612.05-.888.085-.484.06-.922.123-.96.165-.099.114.563.198 1.572.211l.214.001c.015-.15.04-.303.074-.459V9h-.012z" fill="url(#paint2_linear)"/><path d="M5.744 7.151s-2.259.156-2.378.35c-.357.662-.365 1.768-.365 1.768l.001-.004c.001-.005.005-.009.008-.015.038-.042.478-.104.96-.165.277-.034.65-.063.887-.085l.013-.001a56.78 56.78 0 013.137-.2c2.096-.057 3.906-.041 5.16.014C13.53 6.689 12.092 5 9.877 5c-1.591 0-3.163.874-4.133 2.151z" fill="url(#paint3_linear)"/><path d="M12.428 10.608c-.646-.006-3.032-.023-4.093.008l-.507.02a53.914 53.914 0 00-2.905.188v.001C5.325 12.117 6.52 13 8.122 13c1.69 0 3.357-.985 4.306-2.392z" fill="#E21F33"/><path d="M8.007 8.797c-.854.021-2.351.127-3.137.202a4.586 4.586 0 00-.067.405l-.002.012a4.9 4.9 0 00-.017.186v.013c-.005.059-.006.12-.006.18-.002.036 0 .075.001.111V10c.004.066.009.132.015.197l.008.055a2.704 2.704 0 00.031.21l.03.14a2.708 2.708 0 00.054.2c0 .008.003.015.006.024.79-.075 1.76-.145 2.905-.19l.507-.018c1.062-.033 3.447-.015 4.094-.01l.165.003c.542.007.764.011 1.327.041.262.014.694.03.718.084v.001l-.003.006.003-.005c.354-.64.36-1.693.36-1.693.018-.093-.664-.182-1.831-.231-.716-.033-1.61-.051-2.638-.051-.772 0-1.62.01-2.523.035z" fill="url(#paint4_linear)"/><path d="M12.428 10.608c-.095.14-.196.261-.305.392h.002c1.492-.043 2.473-.132 2.515-.263v-.002c-.025-.054-.456-.07-.716-.084a26.91 26.91 0 00-1.33-.041l-.166-.002z" fill="url(#paint5_linear)"/><defs><linearGradient id="paint0_linear" x1="3.349" y1="3.122" x2="21.904" y2="24.434" gradientUnits="userSpaceOnUse"><stop stop-color="#1A1E21"/><stop offset="1" stop-color="#06060A"/></linearGradient><linearGradient id="paint2_linear" x1="3.864" y1="9.082" x2="3.953" y2="9.609" gradientUnits="userSpaceOnUse"><stop stop-color="#D75E15"/><stop offset="1" stop-color="#F5AA06"/></linearGradient><linearGradient id="paint3_linear" x1="6.001" y1="4.943" x2="11.399" y2="10.52" gradientUnits="userSpaceOnUse"><stop stop-color="#FECE56"/><stop offset=".196" stop-color="#F5A906"/><stop offset="1" stop-color="#E8600D"/></linearGradient><linearGradient id="paint4_linear" x1="5.2" y1="8.139" x2="14.347" y2="11.578" gradientUnits="userSpaceOnUse"><stop stop-color="#A6A4A1"/><stop offset=".288" stop-color="#fff"/><stop offset="1" stop-color="#A6A4A1"/></linearGradient><linearGradient id="paint5_linear" x1="13.382" y1="11.014" x2="13.382" y2="10.608" gradientUnits="userSpaceOnUse"><stop offset=".006" stop-color="#D7D8D7"/><stop offset="1" stop-color="#808381"/></linearGradient></defs></svg>