<!-- by TradingView --><svg width="18" height="18" viewBox="0 0 18 18" xmlns="http://www.w3.org/2000/svg"><path fill="#F0F3FA" d="M0 0h18v18H0z"/><path d="M3.5 8h.56c-.1-.14-.41-.9-.41-1.29 0-.91.94-1.48 3.03-1.48 2.64 0 5.63 1.46 6.8 2.2.06.03.2.06.2-.07C12.58 6.51 8.98 5 6.2 5 3.44 5 3 6.1 3 6.63c0 .42.37 1.22.5 1.37Z" fill="#0066A4"/><circle cx="13.5" cy="7.5" r=".5" fill="#0066A4"/><path d="M14.78 11h-.5c.07.15.11.24.11.56 0 .77-.88 1.23-2.88 1.23-2.52 0-5.08-1.15-6.18-1.76H5A15.8 15.8 0 0 0 12.02 13c2.64 0 2.98-.86 2.98-1.3 0-.36-.1-.57-.22-.7Z" fill="#0066A4"/><path d="m10.06 9.53.72.97c.04.05.06.12.06.19 0 .17-.13.31-.29.31a.28.28 0 0 1-.23-.12l-.94-1.3h-.8v1.1c0 .17-.12.32-.29.32-.16 0-.29-.15-.29-.33V7.34c0-.22.1-.34.31-.34h1.3c.9 0 1.39.58 1.39 1.26a1.3 1.3 0 0 1-.94 1.27ZM8.6 7.58V9H9.6c.49 0 .75-.32.75-.74s-.26-.68-.75-.68H8.6Z" fill="#008C99"/></svg>