<!-- by TradingView --><svg width="18" height="18" viewBox="0 0 18 18" xmlns="http://www.w3.org/2000/svg"><path fill="#F0F3FA" d="M0 0h18v18H0z"/><path d="M12.65 7v.48c.17-.28.5-.48.84-.48.8 0 .95.82.95 1.47 0 .66-.17 1.51-.97 1.51-.31 0-.62-.08-.82-.31V11H12V7h.65Zm0 1.44c0 .39.1.94.57.94.46 0 .58-.53.58-.9 0-.38-.13-.81-.58-.81-.44 0-.57.39-.57.77Z" fill="#004292"/><path fill-rule="evenodd" d="M9 3c2 0 4.02.71 5 2.5H4.22A5.32 5.32 0 0 1 9 3Zm-1.39 7.2C7.25 10.03 7 9.53 7 9c0-.53.25-1.04.61-1.2v2.4ZM11 11.4h-.65V6.6H11v4.8Zm-1.35 0H9V6.6h.65v4.8ZM8 11.67H3.65C3.4 11.12 3.08 10.6 3 10h2.62v-.33H3V9h3v-.33H3a5.1 5.1 0 0 1 .65-2.34H8v5.34Zm6 .83c-1.22 1.8-3 2.5-5 2.5s-3.56-.7-4.78-2.5H14Z" fill="#004292"/></svg>