<!-- by TradingView --><svg width="18" height="18" viewBox="0 0 18 18" xmlns="http://www.w3.org/2000/svg"><path fill="#F0F3FA" d="M0 0h18v18H0z"/><path d="M4 8.84h1.61v-.16c0-.3 0-.5.03-.68.04-.3.15-.61.45-1.42.22-.58.44-.94.6-1.2.2-.3.3-.47.21-.73-.05-.15-.26-.18-.55-.14A5.16 5.16 0 0 0 4 8.84Z" fill="#4176A6"/><path d="M8.26 13.92A5.16 5.16 0 0 1 4.8 11.6c.2-.19.46-.3.65-.34l.64.16c.48.63 1.4 1.78 2.17 2.5Z" fill="#D2DEE8"/><path d="M7.88 4.09a2.33 2.33 0 0 0-.62 2C7.6 7.72 9.04 9 9.84 9.66c.65.51 1.56-1.08 1.94-1.94l.1-2.71c-.85-.63-1.63-1-3.05-1-.32 0-.64.03-.95.09Z" fill="#F08866"/><path d="M12.06 13.03c-.7.36-.65.97-2.4.97-.4 0-.76-.13-1.14-.22-.03-.15.02-.28.2-.35.37-.15.63-.2.94-.25a7.2 7.2 0 0 0 1.47-.4c.63-.23.89-.2.93.25Z" fill="#D3613C"/><path d="M7.39 13.69A5.16 5.16 0 0 1 4.15 7.6a2 2 0 0 0 .66.11 5 5 0 0 0 1-.13c.48-.1.83-.17.93.13.06.2-.1.57-.31 1.03-.3.68-.69 1.52-.5 2.2.21.73.94 1.95 1.46 2.75Z" fill="#11396E"/><path d="M9.55 4c.62.51 1.44 1.33 1.55 1.95.06.4-.22.98-.57 1.7-.5 1.03-1.14 2.34-1.04 3.78a3.27 3.27 0 0 0 1.3 2.44 5.15 5.15 0 0 0 .26-9.43l-.63-.24a5.11 5.11 0 0 0-.87-.2Z" fill="#A22C19"/></svg>