<!-- by TradingView --><svg width="18" height="18" viewBox="0 0 18 18" xmlns="http://www.w3.org/2000/svg"><path fill="#72CEE5" d="M0 0h18v18H0z"/><path d="m16 9-2 2-2-2 2-2 2 2Z" fill="#EE3A43"/><path d="m2 11 .45-2.83C2.55 7.54 3.28 7 4.07 7c.8 0 1.18.5 1.1.98l-.06.4c-.06.35-.34.69-.84.93l.51.79a.5.5 0 0 1 .06.36c-.05.3-.3.54-.57.54a.39.39 0 0 1-.34-.19l-.76-1.17-.13.82c-.05.3-.3.54-.56.54H2Zm1.8-3.42c-.17 0-.33.16-.36.35l-.13.85c-.03.2.08.35.25.35.17 0 .33-.15.36-.35l.13-.85c.03-.2-.08-.35-.25-.35Zm1.9.05c.06-.34.36-.63.67-.63.31 0 .52.29.47.63l-.22 1.43h.61l.23-1.43c.05-.34.36-.63.67-.63.3 0 .52.29.46.63l-.43 2.74c-.05.34-.36.63-.67.63-.3 0-.51-.29-.46-.63l.14-.89h-.62l-.14.89c-.05.34-.36.63-.67.63h-.56l.53-3.37Zm5.54 1.28c.28-.24.44-.5.5-.76l.02-.17c.08-.48-.3-.98-1.1-.98s-1.54.54-1.64 1.17L8.56 11h1.25c.78 0 1.52-.54 1.62-1.17l.04-.25a.74.74 0 0 0-.23-.67Zm-1.46.53c.04-.22.22-.4.42-.4.2 0 .33.18.3.4l-.1.57c-.03.22-.22.4-.42.4-.2 0-.32-.18-.29-.4l.1-.57ZM10.02 8c.04-.22.22-.4.42-.4.2 0 .34.18.3.4l-.08.39c-.04.22-.22.4-.42.4-.2 0-.33-.18-.3-.4l.08-.4Z" fill="#016AB4"/></svg>