<!-- by TradingView --><svg width="18" height="18" viewBox="0 0 18 18" xmlns="http://www.w3.org/2000/svg"><path fill="#F0F3FA" d="M0 0h18v18H0z"/><path d="M14.52 11h-1.03V7h1.05c.3 0 .56.08.78.24.22.16.39.39.5.69.12.3.18.65.18 1.07 0 .41-.06.77-.18 1.07-.11.3-.28.53-.5.69-.23.16-.49.24-.8.24Zm-.52-.63h.5a.9.9 0 0 0 .52-.15c.15-.1.25-.26.32-.46.08-.2.11-.46.11-.76 0-.31-.03-.56-.1-.77a.91.91 0 0 0-.32-.45.85.85 0 0 0-.52-.15H14v2.74ZM12.62 8.3c-.03-.1-.06-.2-.11-.28a.8.8 0 0 0-.16-.21.6.6 0 0 0-.2-.13.72.72 0 0 0-.27-.05.7.7 0 0 0-.45.16c-.13.1-.23.26-.3.46-.08.2-.12.45-.12.75 0 .29.04.54.11.74.08.2.18.36.31.47.14.1.29.16.46.16.51 0 .78-.44.78-1l.13.03h-.97v-.56h1.39v.47c0 .33-.06.69-.17.93a1.22 1.22 0 0 1-1.16.76c-.29 0-.54-.08-.76-.24-.21-.16-.38-.4-.5-.7-.13-.3-.19-.65-.19-1.06 0-.31.04-.6.11-.84.07-.25.17-.46.3-.63.13-.17.28-.3.46-.4.17-.08.36-.13.56-.13a1.23 1.23 0 0 1 .89.36 1.7 1.7 0 0 1 .44.94h-.58ZM8.3 11V7h2.06v.6h-1.5v1h1.27v.62H8.85V11H8.3ZM4.74 7h.69l.92 2.9h.04L7.3 7H8v4h-.54V8.25h-.03L6.57 11h-.4L5.3 8.25h-.03V11h-.54V7ZM3.83 7h.53v2.57c0 .29-.05.53-.15.75-.1.21-.24.38-.41.5-.18.12-.39.18-.62.18a1.08 1.08 0 0 1-1.03-.68c-.1-.22-.15-.46-.15-.75V7h.53v2.51c0 .17.02.31.08.44.05.13.13.23.22.3.1.08.22.11.35.11.13 0 .25-.03.34-.1a.7.7 0 0 0 .23-.3c.05-.14.08-.28.08-.45V7Z"/></svg>