<!-- by TradingView --><svg width="18" height="18" viewBox="0 0 18 18" xmlns="http://www.w3.org/2000/svg"><path fill="#272C51" d="M0 0h18v18H0z"/><path d="M9.9 5c.41.05.69.1.84.14.7.19 1.26.52 1.64 1 .81 1.02.59 2.32-.4 3.15l-.02.02v.04l.02.02A2.4 2.4 0 0 1 13 11.4v1.55c0 .03-.03.05-.06.05h-2.89c-.04 0-.05-.02-.05-.05v-1.74c0-.34-.16-.58-.49-.7-.2-.09-.6-.07-.82-.06h-.02l-.02-.02-.01-.01V8.6c0-.07.03-.1.1-.1.36.03.62-.04.78-.2.49-.5.14-1.28-.6-1.3h-.88C8 7 8 7.02 8 7.04v5.91c0 .03-.02.05-.05.05H5V5h4.9Z" fill="#fff"/></svg>