<!-- by TradingView --><svg width="18" height="18" viewBox="0 0 18 18" xmlns="http://www.w3.org/2000/svg"><path fill="#FFFA53" d="M0 0h18v18H0z"/><path d="m11.62 14-3.1-3.62 2.62-.78L15 14h-3.38Z" fill="url(#auhrcbyx2)"/><path d="M11.72 13.82s-1.89-2.29-2.84-3.4l2.1-.71 3.6 4.11h-2.86Z" fill="#514F4F"/><path d="m10.27 11.7.16-.28h.33l.17.28-.17.28h-.33l-.16-.28ZM11.5 12.4l.17-.28H12l.16.28-.16.27h-.33l-.17-.27ZM11.92 13.08l.16-.28h.33l.17.28-.17.27h-.33l-.16-.27ZM12.79 13.08l.16-.28h.33l.17.28-.17.27h-.33l-.16-.27Z" fill="#D9D9D9"/><path fill="url(#buhrcbyx2)" d="M4 10.11h3V14H4z"/><path fill="#514F4F" d="M4.5 10.25h2v3.57h-2z"/><path d="M10.37 4H4l1.97 2.32h4.85c.16.12.5.5.5.94 0 .6-.74.82-1.1.85h-4.7A1.5 1.5 0 0 0 4 9.56v2.5h.47a2.1 2.1 0 0 1 1.23-1.59h5.05c1.74 0 2.77-1.36 2.77-3.04v-.39A3.1 3.1 0 0 0 10.37 4Z" fill="url(#cuhrcbyx2)"/><path d="M6.1 6.14 4.55 4.18h5.75c2.57 0 3.16 2.41 2.92 3.54-.63-1.34-2.4-1.58-2.44-1.58H6.11Z" fill="#514F4F"/><path d="M4.5 9.37v2.09a2.13 2.13 0 0 1 1.66-1.2h4.63c1.6 0 2.22-1.33 2.33-1.99-.24-1.03-1.35-1.6-1.87-1.75.1.1.29.4.29.84 0 .66-.66.87-1 .93H6.14c-1.1 0-1.54.8-1.63 1.08Z" fill="#514F4F"/><path d="m5.3 4.8.17-.28h.33l.12.2h.29l.14.25h.28l.14.24h.2l.14-.24h.27l.15-.25h.33l.14.25h.28l.14.24h.2l.15-.24h.27l.15-.25h.33l.14.25h.28l.14.24h.2l.15-.24h.26l.15-.25h.33l.14.25h.28l.14.24h.24l.14.23h.32l.16.28-.16.27h-.33l-.14-.23h-.32l-.15-.24h-.23l-.15-.24h-.2l-.15.24h-.3l-.14.24h-.33l-.15-.24h-.23l-.15-.24h-.22l-.14.24h-.3l-.14.24h-.33l-.14-.24h-.24l-.14-.24h-.23l-.14.24h-.3l-.13.24h-.33l-.15-.24H6.3l-.15-.24h-.27l-.12-.2h-.29l-.16-.28Z" fill="#D9D9D9"/><path d="m8.35 8.38-.16.28.14.23-.14.24.14.23-.14.24.14.23-.14.23.16.27h.33l.17-.27-.14-.23.14-.23-.14-.24.14-.23-.14-.24.14-.23-.17-.28h-.33Zm-1.64.94-.16.28.13.23-.13.23.16.27h.33l.17-.27-.14-.23.14-.23-.17-.28h-.33Zm3.13-.66.16-.28h.33l.17.28-.14.23.14.24-.14.23.14.24-.14.23.14.23-.17.27H10l-.16-.27.14-.23-.14-.23.14-.24-.14-.23.14-.24-.14-.23ZM9 10.06l.17-.28h.33l.16.28-.16.27h-.33L9 10.06Zm-1.48-.28-.16.28.16.27h.33l.17-.27-.17-.28h-.33Zm-1.85.28.17-.28h.33l.16.28-.16.27h-.33l-.17-.27Zm5.15-.28-.17.28.17.27h.33l.16-.27-.16-.28h-.33Z" fill="url(#duhrcbyx2)"/><defs><linearGradient id="auhrcbyx2" x1="8.74" y1="10.79" x2="14.67" y2="14.17" gradientUnits="userSpaceOnUse"><stop stop-color="#E1E1E3"/><stop offset="1" stop-color="#79797A"/></linearGradient><linearGradient id="buhrcbyx2" x1="4" y1="12.26" x2="6.86" y2="12.26" gradientUnits="userSpaceOnUse"><stop stop-color="#D9D9D9"/><stop offset="1" stop-color="#737373"/></linearGradient><linearGradient id="cuhrcbyx2" x1="13.28" y1="7.44" x2="5.18" y2="9.39" gradientUnits="userSpaceOnUse"><stop stop-color="#717276"/><stop offset="1" stop-color="#EAEAEB"/></linearGradient><linearGradient id="duhrcbyx2" x1="5.94" y1="10.01" x2="11.61" y2="9.82" gradientUnits="userSpaceOnUse"><stop stop-color="#D9D9D9"/><stop offset="1" stop-color="#96979A"/></linearGradient></defs></svg>