<!-- by TradingView --><svg width="18" height="18" viewBox="0 0 18 18" xmlns="http://www.w3.org/2000/svg"><path fill="#696A69" d="M0 0h18v18H0z"/><path fill-rule="evenodd" d="M8.7 10.59c.39-.06.79-.13 1.21-.23.98-.23 2.32-.73 2.58-2.05.2-.98-.15-1.73-.81-2.29a6.36 6.36 0 0 0-1.99-1.07 11.1 11.1 0 0 0-1.72-.44l-.03.38c0 .02 0 .02.02.03.42.09.85.21 1.28.37.66.24 1.34.58 1.86 1.1.42.43.69 1.03.55 1.69-.17.81-.82 1.3-1.47 1.6-.36.16-.71.28-1.06.36l-.9.17h-.16a9.38 9.38 0 0 0-2.08-1.13 4.76 4.76 0 0 0-1.4-.3c-.24-.02-.5.02-.77.11a.51.51 0 0 0-.15.1c-.08.06-.12.1-.13.13a.46.46 0 0 0 .08.46c.18.2.4.36.64.48l.32.14c.12.05.27.08.42.12l.15.04a11.27 11.27 0 0 0 2.15.33l.2.16c.83.68 1.63 1.33 2.5 1.76.8.4 1.74.53 2.57.21a4.12 4.12 0 0 0 1.94-1.81v-.02h-.01l-.1-.08c-.01-.02-.03-.02-.05 0-.6.76-1.26 1.31-2.15 1.47a1.6 1.6 0 0 1-.7.02c-.3-.07-.58-.18-.85-.34A10.16 10.16 0 0 1 8.7 10.6ZM5.1 9.91l.15.04a8.99 8.99 0 0 0 1.5.2c-.35-.2-.7-.4-1.06-.58a3.4 3.4 0 0 0-.76-.26c-.26-.05-.47-.1-.69.03a.09.09 0 0 0-.03.03.11.11 0 0 0-.01.09l.02.04c.22.27.57.35.88.41Z" fill="#fff"/></svg>