<!-- by TradingView --><svg width="18" height="18" viewBox="0 0 18 18" xmlns="http://www.w3.org/2000/svg"><path fill="#F0F3FA" d="M0 0h18v18H0z"/><path d="M7.09 4.57c.68-.2 1.39-.28 2.1-.2a3.53 3.53 0 0 1 2.29 1.06l.08.1c.12.13.24.26.4.36.3.2.66.26.99.32a13.63 13.63 0 0 1 .2.06.04.04 0 0 1-.01.04l-.63.7a.3.3 0 0 1-.25.09c-.51-.09-.89-.2-1.35-.4a3.48 3.48 0 0 0-1.78-.23 4.15 4.15 0 0 0-2.76 1.5 3.66 3.66 0 0 0-.65 3.45 4.27 4.27 0 0 0 2.38 2.52c.12.05.12.07-.02.05a1.54 1.54 0 0 1-.34-.08c-3.02-1.09-4.06-4.54-2.16-6.95a4.69 4.69 0 0 1 3.64-1.8c.1-.01.25 0 .44.03l.12-.01c.03 0 .03-.01 0-.02-.26-.1-.53-.15-.81-.16-.64.05-1.26.18-1.87.4l-1.34.46c-.49.17-.94.13-1.36-.12a.8.8 0 0 1-.4-.66.94.94 0 0 1 .4-.9c.19-.14.4-.2.61-.17.09 0 .1.03.02.07-.3.13-.4.46-.2.7.13.14.29.2.49.22.16 0 .38-.03.65-.1l1.12-.33Z" fill="url(#a)"/><path d="M7.1 8.07a3.5 3.5 0 0 0-.14 3.17 3.87 3.87 0 0 0 5.14 1.93c.24-.1.26-.08.04.08a4.08 4.08 0 0 1-4.35.1 3.4 3.4 0 0 1-1.06-.97 3.36 3.36 0 0 1-.2-3.8c.19-.3.4-.57.66-.8.05-.06.07-.05.05.03-.01.07-.09.16-.14.26Z" fill="#3469A1"/><path d="M12.84 10.06a.06.06 0 0 0-.01-.04.06.06 0 0 0-.05-.02H9.93a.1.1 0 0 1-.06-.02.1.1 0 0 1-.04-.04l-.54-.87a.05.05 0 0 1 .02-.06h4.52a.1.1 0 0 1 .07.02 5.37 5.37 0 0 1 .1 1.01 2.8 2.8 0 0 1-1.3 2.37c-.64.46-1.38.67-2.22.64a3.41 3.41 0 0 1-3.33-2.85c-.02-.1 0-.11.06-.02l.11.22a3.25 3.25 0 0 0 3.97 1.72 2.35 2.35 0 0 0 1.55-2.06Z" fill="#2B4E86"/><defs><linearGradient id="a" x1="12.71" y1="7.23" x2="3.34" y2="8.84" gradientUnits="userSpaceOnUse"><stop stop-color="#886B34"/><stop offset="1" stop-color="#CAAA64"/></linearGradient></defs></svg>