<!-- by TradingView --><svg width="18" height="18" viewBox="0 0 18 18" xmlns="http://www.w3.org/2000/svg"><path fill="#004C97" d="M0 0h18v18H0z"/><path d="M6.67 6.76c-1.45 2.02-1.35 5.26-1.2 6.81h2.1a7.35 7.35 0 0 1-.46-2.23c0-1.88.52-3.3 1.43-4.58.9-1.27 2.27-1.84 2.65-1.48.38.35.34 1.2-.38 2.46a10.08 10.08 0 0 1-2.56 2.93c-.51.34-.62.67-.62.8.07 1.33 1.95 1.96 2.88 2.1.15-.09.58-.39.96-.81.43-.5.8-1.13.7-1.42-.4.29-1.48.4-1.97.42-2.4-.01-1.66-.46-.23-1.13 1.43-.68 2.65-2.33 2.65-3.8 0-1.16-.64-1.83-.97-2.01-1.45-1-3.53-.08-4.98 1.94Z" fill="#EC3237"/><path d="m5.12 13.98-.04-.37c-.07-.79-.13-2.02.01-3.32.15-1.29.5-2.69 1.28-3.78a6.38 6.38 0 0 1 2.66-2.24 2.9 2.9 0 0 1 2.81.2 2.76 2.76 0 0 1 1.17 2.37c0 .85-.36 1.71-.87 2.44a5.34 5.34 0 0 1-2.02 1.73l-.64.31.72.02a7.88 7.88 0 0 0 1.45-.21c.15-.05.25-.1.3-.13.2-.14.46-.06.56.18.08.2.06.4.02.54-.04.15-.1.31-.18.46a4.93 4.93 0 0 1-1.66 1.76l-.1.06-.13-.02a5.88 5.88 0 0 1-1.89-.65 3.07 3.07 0 0 1-.91-.76c.07.34.15.63.24.8l.33.61H5.12Zm2.38-3.16c.13-.18.31-.35.55-.5.62-.4 1.74-1.6 2.44-2.8a4 4 0 0 0 .55-1.4c.04-.33-.03-.47-.09-.52 0 0-.05-.02-.16-.01-.15.02-.34.08-.57.2-.45.22-.97.64-1.38 1.23a6.99 6.99 0 0 0-1.34 3.8Zm-.4.52c0-1.88.53-3.3 1.44-4.58.9-1.27 2.27-1.84 2.65-1.48.38.35.34 1.2-.38 2.46a10.08 10.08 0 0 1-2.56 2.93c-.51.34-.62.67-.62.8.07 1.33 1.95 1.96 2.88 2.1a4.56 4.56 0 0 0 1.57-1.73c.1-.2.13-.38.08-.5-.09.07-.2.12-.35.17a6.7 6.7 0 0 1-1.6.25c-2.41-.01-1.67-.46-.24-1.13 1.43-.68 2.65-2.33 2.65-3.8 0-1.16-.64-1.83-.97-2.01-1.45-1-3.53-.08-4.98 1.94-1.45 2.02-1.35 5.26-1.2 6.81h2.1a2.34 2.34 0 0 1-.16-.41 9.72 9.72 0 0 1-.3-1.82Zm1.88.3Z" fill="#FEFEFE"/></svg>