<!-- by TradingView --><svg width="18" height="18" viewBox="0 0 18 18" xmlns="http://www.w3.org/2000/svg"><path fill="#C60209" d="M0 0h18v18H0z"/><path d="M8.47 9.04c.01-.04 0-.06-.03-.08-.7-.54-1.66-1.2-2.07-2a.06.06 0 0 0-.11 0c-.16.38-.12.74.13 1.08.26.35.56.63.93.83.24.13.27.3.08.5-.31.33-.5.52-.58.57a.84.84 0 0 1-.79.1c-.64-.25-.1-1.2.15-1.54a.1.1 0 0 0-.08-.17H3.81a.05.05 0 0 1-.03-.08c3.19-3.17 4.74-4.94 4.98-5.18.05-.05.1-.07.14-.07.07 0 .1.04.1.1v2.54a.07.07 0 0 1-.12.06c-.16-.13-.27-.23-.43-.3-1.17-.52-1.7.92-1.07 1.71.37.47.88.9 1.53 1.33.03.01.07.02.1.01.03 0 .06-.02.08-.05.6-.77 1.24-1.67 1.93-2.02.13-.06.13-.1-.01-.14-1.02-.22-1.48.51-2.03 1.26-.05.06-.1.06-.16.02a3.82 3.82 0 0 1-.8-.77c-.24-.38-.22-1.04.36-1.04.23 0 .53.15 1.08.44.13.08.2.04.2-.1V3.91c0-.14.04-.16.14-.06l5.16 4.92a.13.13 0 0 1 .03.14.13.13 0 0 1-.12.08h-2.5c-.1 0-.13-.05-.06-.14.3-.42.56-.65.3-1.2-.32-.72-1.37-.62-1.84-.2a7.35 7.35 0 0 0-1.24 1.5c-.01.04 0 .06.03.08.7.54 1.66 1.2 2.07 2a.06.06 0 0 0 .06.04l.03-.01.02-.03c.16-.38.12-.74-.13-1.08a2.83 2.83 0 0 0-.93-.83c-.24-.13-.27-.3-.08-.5.31-.33.5-.52.58-.57.26-.16.52-.2.79-.1.64.25.1 1.21-.15 1.55a.1.1 0 0 0 .02.15h2.35l.02.02a.05.05 0 0 1 .01.08c-3.19 3.16-4.74 4.93-4.98 5.17-.06.05-.1.07-.15.07-.06 0-.09-.04-.09-.1v-2.58a.07.07 0 0 1 .11-.02c.17.13.33.23.5.3 1.16.52 1.65-.92 1.01-1.71A6.3 6.3 0 0 0 9.1 9.56a.13.13 0 0 0-.1-.01.13.13 0 0 0-.08.05c-.6.77-1.24 1.67-1.93 2.02-.13.06-.13.1.01.14 1.02.22 1.48-.51 2.03-1.26.05-.06.1-.06.16-.02.42.33.69.59.8.77.24.38.21 1.04-.36 1.04-.23 0-.6-.15-1.09-.44-.13-.08-.2-.04-.2.11v2.12c0 .14-.04.16-.14.06L3.04 9.22a.13.13 0 0 1 .02-.2.13.13 0 0 1 .07-.02h2.5c.1 0 .13.04.06.14-.3.42-.56.65-.3 1.2.32.72 1.37.62 1.84.2a7.35 7.35 0 0 0 1.24-1.5Z" fill="#fff"/></svg>