<!-- by TradingView --><svg width="18" height="18" viewBox="0 0 18 18" xmlns="http://www.w3.org/2000/svg"><path fill="#F0F3FA" d="M0 0h18v18H0z"/><path d="M7.39 7.29c-.01.02-.03.03-.06.04-.04 0-.07 0-.1-.03-.1-.1-.24-.2-.11-.35.05-.05.1-.09.1-.17a2.4 2.4 0 0 1 0-.44c.01-.12-.2-.18-.15-.31.04-.13.12-.19.25-.18.05 0 .1.04.15.05h.03c.12-.08.14-.21.17-.34 0-.05 0-.15-.05-.19-.06-.03-.09-.07-.09-.14s.07-.14.12-.19c.04-.04.08-.05.14-.03.08.02.15.08.2.17 0 .04.01.07-.01.1-.1.1-.13.24-.14.38 0 .12-.1.28-.2.36-.12.1-.26.18-.26.35v.42c0 .09.06.13.1.19.05.06.05.13 0 .18a.68.68 0 0 0-.09.13ZM6.23 5.49a.2.2 0 0 0-.17 0c-.02-.07-.07-.23-.17-.19-.06.03-.1.1-.1.19-.02.18-.02.01-.02.03V5.5a.22.22 0 0 0-.2-.05.96.96 0 0 0-.07-.1c-.05-.07-.05-.14 0-.2.05-.08.19-.2.27-.11a.46.46 0 0 1 .13.2.01.01 0 0 0 .01 0 .62.62 0 0 0 .1-.14c.04-.1.15-.1.23-.06.06.03.1.1.13.16a.04.04 0 0 1 0 .04l-.14.25ZM6.73 7.65c-.06.05-.1.05-.13 0-.07-.05-.21-.2-.15-.27l.1-.13c.05-.07.02-.14.02-.22v-1.4a.64.64 0 0 1-.13-.18v-.03l.08-.13c.07-.1.22-.1.3 0 .06.06.1.14.04.22-.05.06-.12.12-.12.2a40.77 40.77 0 0 1 0 1.44c0 .1.16.18.15.28l-.03.09-.13.13ZM11.67 7.34a.28.28 0 0 1-.23.02l-.08-.1a.52.52 0 0 0 .03-.23c.05 0 .07-.02.07-.05a28.8 28.8 0 0 1 0-1.11c.03-.15-.2-.22-.13-.37a.33.33 0 0 1 .07-.1.21.21 0 0 1 .32.03c.04.07.08.15.01.22-.04.04-.1.12-.1.19V6.9c0 .02 0 .05.02.07.12.12.18.23.02.36Z" fill="#277967"/><path d="M5.58 5.45c.06-.01.12 0 .18.05l.02.02v.18c0 .22.01.4-.02.55-.06.05-.15.08-.2.13a.43.43 0 0 0-.1.13 1.04 1.04 0 0 1-.27-.33 1.74 1.74 0 0 1-.08-.36.2.2 0 0 0-.06-.1c-.19-.18.04-.46.24-.35.15.08.13.25.04.37-.03.04-.04.1-.02.15.03.13.08.24.12.34.03.05.07.08.13.1a.03.03 0 0 0 .03-.04 5.04 5.04 0 0 1-.01-.84ZM6.23 5.49c.01.22-.02.45-.1.67-.05.16-.14.25-.24.38l-.08-.2a.6.6 0 0 0 .17-.31c.04-.15.06-.33.08-.54a.2.2 0 0 1 .17 0Z" fill="#203177"/><path d="M8.39 6.89a.27.27 0 0 1-.2.01.02.02 0 0 1 0-.02l-.01-.06a14.8 14.8 0 0 1-.02-.84c-.05-.08-.14-.15-.08-.26.07-.11.16-.16.29-.11a.2.2 0 0 1 .09.07c.04.06.08.12.02.19l-.08.11a.16.16 0 0 0-.03.1 8.66 8.66 0 0 1 .02.8Z" fill="#20516D"/><path d="M13.57 7.02v-.45c0-.07-.02-.13-.01-.2.02-.1 0-.2 0-.3v-.01h-.01v.03h-.02a.14.14 0 0 1-.04-.03h-.02c-.03-.01-.05 0-.07.02l-.01.02-.01.1c.02-.1-.01-.18-.08-.25-.05-.05-.08-.13-.04-.2.13-.2.38-.15.44.07.01.06-.06.13-.1.17a.18.18 0 0 0-.03.12v.91Z" fill="#277967"/><path d="M12.37 7.52h-.15a.27.27 0 0 1-.15-.15c-.03-.08.02-.15.08-.21.07-.09.03-.15.03-.25v-.68c0-.06.03-.13-.01-.2-.04-.04-.12-.12-.1-.19 0-.09.04-.15.13-.18.12-.05.2 0 .27.1.04.05.04.1 0 .16v.02c-.06.04-.1.1-.1.17v.94c0 .04.02.09.05.12.06.06.1.14.06.22a.48.48 0 0 1-.1.13Z" fill="#25716E"/><path d="M10.57 7.35a.57.57 0 0 1-.2 0c-.11-.06-.14-.15-.09-.27.02-.04.07-.08.08-.12l.02-.27v-.5c0-.15-.2-.23-.1-.38.15-.28.6-.03.32.25a.13.13 0 0 0-.03.09v.72c0 .05 0 .1.04.14.07.07.11.14.07.24-.02.03-.06.07-.11.1ZM4.67 8.77c-.07.05-.11.03-.18.02-.16-.08-.22-.24-.06-.36.05-.03.05-.09.05-.13v-1c0-.1-.09-.17-.14-.24a.07.07 0 0 1 0-.1c.06-.06.12-.14.13-.23V6.4c0-.13-.16-.17-.14-.29.01-.08.06-.15.15-.18.12-.05.17 0 .24.06.06.05.08.12.04.2-.05.07-.1.14-.1.24 0 .13-.02.36.07.47.06.06.07.14 0 .2-.03.03-.07.09-.08.14v.34a12.86 12.86 0 0 1 .01.85.05.05 0 0 0 .05.02l.03-.01c.07-.05.12-.19.13-.27l.04-.35c0-.05 0-.1-.03-.13-.06-.05-.1-.1-.1-.19.02-.07.14-.18.22-.18.09 0 .16.05.2.12.06.08.05.15-.02.22-.04.03-.08.07-.09.12-.01.19-.05.39-.1.6a.43.43 0 0 1-.15.21l-.17.17ZM9.66 7.36a.21.21 0 0 0 0 .21l-.13.11c0 .04-.05.05-.17.04a.37.37 0 0 1-.14-.19c-.01-.03-.01-.05 0-.07a.58.58 0 0 1 .1-.13.11.11 0 0 0 .03-.08 7.87 7.87 0 0 1 0-.8c0-.12-.22-.21-.15-.33.04-.07.07-.13.16-.15.09-.03.16-.02.21.04.06.07.12.18.04.26-.05.04-.1.1-.1.16v.81c0 .05.02.1.05.13l.02.02c.03 0 .05-.01.08-.03ZM13.38 8.02v.08l.02.01.14.02.02-.01.01-.05.08.14c.15.18-.1.2-.1.37l.01.57c0 .1-.03.17.03.26.03.06.1.06.13.01a.5.5 0 0 0 .12-.21l.05-.2v-.05a.92.92 0 0 0-.1-.12c-.13-.16.12-.22.11-.36V7.45c0-.06-.03-.1-.07-.14-.07-.08-.09-.18-.01-.28.09-.12.2-.09.32-.02A.05.05 0 0 0 14.2 7a.5.5 0 0 0 .14-.29c.01-.08-.04-.12-.08-.19-.07-.12.02-.21.13-.27a.11.11 0 0 1 .1 0c.09.03.17.07.18.18 0 .12-.1.16-.13.26-.03.15-.08.33-.2.43-.1.07-.28.2-.28.34v1c0 .08.04.2.13.16a.73.73 0 0 0-.03.24c-.1.1-.11.16-.13.28 0 .1-.05.2-.1.29a.6.6 0 0 1-.26.25.54.54 0 0 0-.12.12l-.17-.01c-.05-.05-.18-.23-.11-.3a.34.34 0 0 0 .13-.26l-.01-.34c-.01-.09-.01-.18 0-.28a.18.18 0 0 0-.06-.16 9.17 9.17 0 0 0-.2-.19.59.59 0 0 1-.16-.38l-.03-.18c-.02-.1-.02-.21-.02-.32 0-.05-.03-.1-.06-.14-.05-.05-.1-.12-.05-.2.06-.08.1-.14.1-.25v-.3c-.01-.08-.05-.13-.1-.2-.05-.06-.02-.15.03-.2.1-.12.23-.1.33 0 .07.07.05.17 0 .24a.25.25 0 0 0-.05.1c-.02.12-.02.25-.01.37 0 .09.03.16.07.22.04.06.04.14-.02.2a.2.2 0 0 0-.06.16l.03.44c0 .12.05.3.18.35a.04.04 0 0 0 .05-.03.24.24 0 0 0 .02-.12Z" fill="#277967"/><path d="M11.4 7.03c0 .08-.02.15-.04.23-.07-.06-.13-.1-.19-.17a.89.89 0 0 1-.22-.5.32.32 0 0 0-.09-.18c-.13-.14-.06-.27.08-.35.08-.04.2.04.25.1.14.2-.14.25-.08.4l.1.25c.02.09.08.16.18.22Z" fill="#25716E"/><path d="M13.57 7.02v1.05l-.01.05-.02.01-.14-.02-.02-.01v-2l.02-.02c.02-.03.04-.03.08-.03l.01.01.04.03h.02a.23.23 0 0 0 0-.03c0 .1.03.2.01.3v.66Z" fill="#203177"/><path d="M5.47 6.51c.02-.05.05-.1.09-.13.05-.05.14-.08.2-.13v.06s.02.02.05.02l.08.2c-.03.07-.12.14-.13.22v.22c.01.09.04.1.1.15.05.05.06.12.04.18l-.07.1a.48.48 0 0 0-.06.08.3.3 0 0 1-.13.06h-.02V7.5l-.01-.04-.02-.02a.38.38 0 0 1-.09-.08c-.05-.06-.12-.1-.19-.14a.88.88 0 0 1-.3-.33l-.07-.2c-.02-.07-.07-.11-.11-.16-.1-.12-.01-.22.08-.3.08-.07.2 0 .26.07.04.06.05.12.03.2-.02.05-.06.08-.09.11a.04.04 0 0 0 0 .05c.04.1.08.2.15.28.05.05.32.3.33.07v-.27c0-.02 0-.04-.02-.06l-.1-.17ZM8.18 6.82v.06a.02.02 0 0 0 .02.02c.06.02.13.01.19-.01l.1.14c.07.08-.06.2-.13.28l-.17.01a.44.44 0 0 0-.12-.17l-.14-.12a.62.62 0 0 1-.2-.33.2.2 0 0 0-.06-.1c-.13-.11-.1-.29.06-.36.12-.05.2.01.27.1.06.07.04.16-.03.22-.14.13.04.33.15.4a.03.03 0 0 0 .03 0v-.01a.21.21 0 0 0 .03-.13ZM8.96 8.02c.02-.05 0-.06-.1-.04h-.05V8l-.01-.05c-.07-.06-.17-.17-.1-.25l.09-.12c.05-.07.02-.16.02-.24v-.56c0-.05-.06-.12-.09-.16-.05-.06-.06-.13 0-.2.03-.05.08-.1.15-.1a.2.2 0 0 1 .2.07c.12.14.03.23-.07.34a16.85 16.85 0 0 0-.01.57c0 .07-.03.15 0 .21.04.12.2.2.1.35a.36.36 0 0 1-.1.1l-.02.02-.01.04Z" fill="#277967"/><path d="M9.66 7.57a.21.21 0 0 1 0-.2.47.47 0 0 0 .2-.3l.08-.26c.02-.03 0-.07-.02-.1-.15-.17-.09-.36.14-.39.06 0 .12.05.16.1.07.07.06.2-.03.26a.22.22 0 0 0-.07.14c-.02.13-.03.25-.08.37-.08.17-.2.3-.38.38ZM3.9 7.56l-.08.21c-.07-.08-.15-.16-.2-.24-.08-.16-.12-.35-.14-.53-.01-.08-.08-.12-.1-.2-.05-.1-.01-.19.1-.25a.19.19 0 0 1 .11-.02c.13.01.24.14.2.27l-.1.12c-.04.05-.02.12-.01.17l.06.25c.03.07.07.15.15.22Z" fill="#20516D"/><path d="M6.25 7.04H6.1c-.08-.07-.16-.18-.13-.28.07-.2.27-.22.39-.06.07.1.04.17-.03.25l-.08.09Z" fill="#277967"/><path d="M6.25 7.04c-.02.35 0 .7.05 1.05.02.13.07.25.12.36.05.1.21.01.18-.1a.44.44 0 0 1-.02-.15 3.36 3.36 0 0 0 0-.46l.02-.1c.03.06.07.06.13.01v.73a.03.03 0 0 0 .01.03c.07.04.12.1.17.17.04.06-.04.14-.08.19a.06.06 0 0 0 0 .06c.07.17.27.16.32-.02v-.03c-.04-.06-.1-.14-.06-.21a.5.5 0 0 1 .11-.14c.06-.05.02-.19.02-.25V7.3c.04.02.07.03.11.03.03 0 .05-.02.06-.04-.03.36 0 .72-.02 1.08 0 .07.07.1.13.12h.02c.09-.1.15-.2.19-.28.04-.08.04-.18.08-.27l.03-.06.15-.02a.94.94 0 0 1-.35.72.76.76 0 0 0-.1.11c-.07.08-.15.14-.2.23-.1.15-.27.3-.46.19a.41.41 0 0 1-.12-.1l-.12-.15a1 1 0 0 1-.11-.12c-.09-.1-.21-.22-.26-.33a1.88 1.88 0 0 1-.15-.54 4.53 4.53 0 0 1 0-.84h.15Z" fill="#E15A21"/><path d="M8.36 7.3a13.85 13.85 0 0 1 0 1.12l.12.1h.03l.14-.11c.08-.1.12-.2.13-.34 0-.02 0-.04.02-.07l.01-.02h.06c.08-.02.11 0 .09.04-.01.22-.13.5-.33.6-.08.04-.16.05-.18.15-.01.04.02.07.05.08a1.94 1.94 0 0 1 .17.1l.03-.02c.08-.1.18-.13.3-.1h.05l.08.16a.44.44 0 0 1-.13.24h-.03l-.12.01h-.03a.6.6 0 0 0-.28-.16.34.34 0 0 1-.16-.09l-.13-.13c-.1-.07-.25-.19-.16-.32l.1-.12c.05-.06 0-.1 0-.16 0-.2 0-.38.02-.55l-.02-.39.17-.01Z" fill="#D82A2A"/><path d="M11.67 7.34c-.07.08-.05.16-.05.25a31.76 31.76 0 0 0 0 .85.4.4 0 0 0-.14 0 3.63 3.63 0 0 1 0-.74c0-.07 0-.18-.04-.34.08.03.16.02.23-.02ZM10.57 7.35l-.01 1.13c-.06-.05-.12-.06-.17-.02l-.02-1.1.2-.01Z" fill="#E2752E"/><path d="m7.97 7.86-.15.02a1.47 1.47 0 0 1-.16-.19c-.05-.08.02-.17.09-.23.08-.07.2-.07.27.01.11.14.04.27-.05.4ZM11.21 7.88c-.07.05-.13.05-.18.02-.05-.05-.1-.1-.13-.15-.05-.15.1-.29.23-.27.13.02.21.12.19.25a.25.25 0 0 1-.1.15Z" fill="#277967"/><path d="M5.77 7.48v.9a.08.08 0 0 0 .03.05c.08.07.14.16.1.27 0 .05-.06.08-.1.12-.08.06-.1.16-.18.22a.6.6 0 0 1-.33.13.46.46 0 0 0-.17.05c-.11.05-.22 0-.3-.1-.03-.05-.03-.11 0-.17.07-.1.15-.12.24-.15.07-.02.12-.11.13-.17.02-.08.04-.16.04-.25.04.01.1 0 .17-.02-.01.18-.07.35-.17.49l-.03.06c0 .03.02.06.05.06a.4.4 0 0 0 .32-.14.03.03 0 0 0 0-.03v-.01c-.12-.08-.1-.23 0-.32a.2.2 0 0 0 .05-.16 15.11 15.11 0 0 1 0-.81v.03c0 .01 0 .02.02.01a.3.3 0 0 0 .13-.06Z" fill="#D82A2A"/><path d="M10.14 7.91a.3.3 0 0 1-.18.03.25.25 0 0 1-.16-.18c-.03-.1.1-.23.2-.24.07 0 .13.01.17.07.1.11.06.21-.03.32Z" fill="#277967"/><path d="M12.37 7.52a1.1 1.1 0 0 0-.04.38 2.15 2.15 0 0 1 .02.54c.04.07.1.12.13.18.05.08 0 .11-.04.16-.05.07-.02.15.06.17.1.03.21.04.33.05.07 0 .09-.07.05-.12-.1-.15-.18-.32-.24-.53a.79.79 0 0 1-.03-.26v-.02l-.01-.01.16-.06v.04c.03.14.04.27.09.4.03.11.08.22.12.32.04.1.1.09.18.11l.05.04c.07.1.08.2.03.28a.2.2 0 0 1-.27.07 1.41 1.41 0 0 1-.09-.06.06.06 0 0 0-.03-.01c-.22 0-.45-.03-.59-.22a1.8 1.8 0 0 0-.15-.16c-.13-.15 0-.27.11-.36a.04.04 0 0 0 .02-.05.68.68 0 0 1-.04-.2v-.46l.03-.21.15-.01Z" fill="#D82A2A"/><path d="m4.49 9.69.08-.06h.02l.05.05c.05.04.08.07.1.11.1.15-.03.23-.1.34-.1.07-.15.07-.15-.01a2.1 2.1 0 0 0-.18-.18c-.1-.07-.16-.13-.18-.16-.12-.16-.14-.33-.17-.51-.01-.04-.05-.1-.13-.2a.44.44 0 0 0 .04-.2h.06l.02-.02v-.03a9 9 0 0 1 .01-.76c0-.03 0-.07-.02-.09a.63.63 0 0 1-.12-.2l.07-.2c.13-.05.24-.03.3.04a.3.3 0 0 1 .06.1c.05.13-.1.18-.12.3v.72c0 .1.03.13.1.2.06.06.06.16-.01.22-.04.03-.09.07-.08.13l.04.22c.02.07.1.26.2.26.04 0 .08-.02.11-.07Z" fill="#277967"/><path d="M14.16 8.86c0-.08 0-.16.03-.24a.62.62 0 0 0 .3-.23c.06-.09.24-.35.13-.45-.1-.08-.1-.2 0-.3.04-.04.1-.08.16-.06.11.02.18.08.21.18.03.08-.04.14-.08.19a.25.25 0 0 0-.04.1 1.29 1.29 0 0 1-.7.82Z" fill="#203177"/><path d="m12.76 8-.16.06c-.06-.06-.18-.21-.15-.3.04-.12.12-.22.26-.16.1.04.15.11.13.23 0 .04-.03.1-.08.17Z" fill="#277967"/><path d="M9.53 7.68a9.31 9.31 0 0 1-.1.75c-.04.09-.08.17-.1.27a.47.47 0 0 1-.11.17.67.67 0 0 0-.09.12l-.08-.17c.1-.1.16-.2.2-.33.04-.18.08-.37.09-.6l.01-.08.01-.1c.12.02.18.01.17-.03Z" fill="#E2752E"/><path d="M3.87 8.86c0 .08 0 .15-.04.22a.77.77 0 0 1-.4-.24c-.12-.11-.2-.24-.25-.36-.04-.1-.04-.23-.1-.33-.04-.1-.12-.15-.05-.27.05-.09.12-.13.22-.13.06 0 .1.06.14.1.17.23-.14.27-.09.4.04.1.06.21.12.3.11.17.23.3.45.31Z" fill="#203177"/><path d="M11.21 7.88c0 .3-.04.58-.13.86a.28.28 0 0 1-.06.1.25.25 0 0 0-.07.14l-.06-.02a.6.6 0 0 1-.06-.07c.08-.16.13-.28.14-.34a188.36 188.36 0 0 1 .1-.6.13.13 0 0 0-.04-.05c.05.03.11.03.18-.02Z" fill="#E2752E"/><path d="M10.14 7.91c-.02.07 0 .14-.02.2-.02.16-.02.33-.12.46-.08.1-.19.25-.17.37.02.2-.02.43-.1.6-.04.12-.11.23-.2.33-.12.12-.1.4-.36.32a.2.2 0 0 1-.12-.08c-.12-.18.01-.36.22-.33.08 0 .16-.03.2-.1.02-.07.06-.12.09-.18.06-.2.1-.38.1-.56 0-.03-.01-.05-.03-.07a7.4 7.4 0 0 1-.12-.1c-.04-.04-.05-.09-.02-.13l.09-.16c.05-.07.21-.02.27.01a.01.01 0 0 0 .02 0 .97.97 0 0 1 .06-.2c.03-.08.04-.2.03-.35a.3.3 0 0 0 .18-.03Z" fill="#D82A2A"/><path d="M5.4 8.36c-.08.03-.13.03-.17.02-.1-.14-.14-.27-.02-.4.05-.05.11-.03.17-.02.08.02.14.12.16.2.02.06-.09.16-.14.2Z" fill="#277967"/><path d="M11.61 8.44c.06.05.1.1.14.16.1.14-.08.24-.16.32-.05.06-.1.12-.18.16a.8.8 0 0 1-.44.1.07.07 0 0 0-.06.02.54.54 0 0 1-.2.13c-.09.03-.25-.15-.22-.24.05-.16.16-.23.34-.2l.06.07c.03.03.05.03.06.02.04.02.06.03.07.02l.26-.06c.08-.02.12-.06.11-.14 0-.03-.04-.07-.06-.09a.05.05 0 0 1 0-.07l.15-.2h.13Z" fill="#D82A2A"/><path d="M10.56 8.48c.08.07.17.1.13.24-.04.11-.18.13-.23.24-.03.1-.07.2-.08.3l-.08.41c-.06.46-.08.9-.05 1.3a72.12 72.12 0 0 1 .1 1.64c.07.09.1.17.05.27-.03.08-.13.11-.2.11-.12 0-.25-.17-.2-.27.03-.09.17-.15.16-.25l-.01-.17c0-.25-.02-.45-.03-.58-.06-.46-.08-.92-.07-1.38.01-.33.05-.6.1-.9.04-.2.1-.39.16-.58.02-.05 0-.08-.03-.12-.04-.06-.04-.11 0-.17.02-.04.08-.05.1-.1.07-.05.12-.04.18 0Z" fill="#D82A2A"/><path d="M4.67 8.77a.23.23 0 0 0-.03.1v.81l-.05-.05h-.02l-.08.06a5.18 5.18 0 0 1 0-.9c.07 0 .1.03.18-.02Z" fill="#E2752E"/><path d="M8.37 10.02c-.09.07-.22.08-.3 0-.11-.12-.1-.28.06-.35a.5.5 0 0 0 .1-.06.98.98 0 0 1 .38-.16c.1-.02.17-.14.29-.12.09.01.15.06.18.12.05.13-.02.24-.13.3-.07.02-.15.02-.2-.04 0-.03-.03-.05-.06-.05-.1-.01-.23 0-.3.07a.04.04 0 0 0 0 .06c.01.03.04.05.07.06.23.09.39.26.49.52.02.05.04.1.08.13.06.08.1.26-.02.3l-.14.06c-.06.02-.18-.08-.2-.14-.04-.1 0-.17.08-.23.1-.08-.1-.3-.16-.35a1.37 1.37 0 0 0-.2-.12h-.02ZM4.5 10.12c-.01.08.04.08.13 0l.07.27c.02.06.05.13.12.14h.02c.14-.08.12-.2.2-.32a.9.9 0 0 1 .36-.34c.06-.03.1-.07.13-.12a.04.04 0 0 0-.01-.05.63.63 0 0 0-.22-.09c-.08-.01-.13.12-.21.14-.08.02-.14 0-.18-.03-.08-.08-.16-.17-.08-.28.09-.12.2-.14.34-.06.05.03.1.04.15.05.15 0 .29.08.4.2.05.03.14.07.17.13.06.1.03.2-.07.28a.2.2 0 0 1-.2.03L5.54 10h-.02a.82.82 0 0 0-.4.44l.01.01c.07.06.18.17.1.27-.05.1-.15.14-.26.12-.04 0-.08-.03-.12-.08a.88.88 0 0 0-.19-.15c-.07-.05-.14-.21-.16-.29-.02-.07-.01-.14 0-.21ZM12.77 9.64c.1-.08.25-.19.35-.04.05.06.11.16.06.23a1.1 1.1 0 0 1-.07.08c-.07.08-.19.05-.26 0-.03-.03-.06-.07-.1-.07h-1.68a.29.29 0 0 0-.2.1.1.1 0 0 1-.06.02c-.14 0-.3-.1-.25-.26.02-.09.09-.14.2-.17.1-.02.16.09.25.12h.07a136.56 136.56 0 0 1 1.7 0Z" fill="#D82A2A"/><path d="M13.55 9.8c0 .27-.04.52-.3.65 0-.05-.02-.1-.04-.14.09-.1.14-.24.15-.38l.03-.08v-.03l-.01-.03.17.01Z" fill="#E2752E"/><path d="M7.82 10.55a.05.05 0 0 0-.03-.03 2.22 2.22 0 0 1-.22-.09c-.1-.04-.2-.04-.28-.05a2.52 2.52 0 0 0-.79.01c-.09 0-.15.04-.23.08l-.1.04c-.07.05-.08.15-.1.23v.02c-.07.08-.13.14-.25.1-.1-.03-.18-.11-.17-.22.01-.11.08-.18.2-.2l.12-.01.28-.16c.25-.09.5-.1.76-.1.32 0 .68.06.93.24a.5.5 0 0 0 .12.07c.07.03.15.05.18.13.04.11.02.2-.07.25-.1.08-.22.05-.3-.04a.12.12 0 0 1-.04-.12.28.28 0 0 0 0-.15ZM13.2 10.31c.03.04.05.09.04.14l-.13.12c-.06.06-.1.08-.18.04a.46.46 0 0 1-.13-.1h-.03a1519.32 1519.32 0 0 1-1.67-.02c-.06 0-.1 0-.15.05a.53.53 0 0 1-.1.08c-.1.05-.2-.06-.25-.13-.04-.06-.04-.17.03-.22.07-.06.15-.11.25-.06.05.03.1.06.16.07l.18.01h1.47c.06 0 .12-.02.17-.06a.26.26 0 0 1 .14-.04c.08 0 .15.07.2.12ZM9.65 12.62c.04.06.1.13.07.2-.04.1-.1.16-.2.17-.05.01-.1 0-.14-.04-.08-.07-.16-.2-.06-.29.06-.05.12-.1.14-.18a13.63 13.63 0 0 0 .18-1.53c0-.07-.01-.16-.1-.16-.04 0-.06.03-.06.07 0 .25-.24.28-.37.11-.05-.07-.06-.14 0-.21.02-.05.06-.08.11-.1.1 0 .2-.05.27-.12.12-.11.24.03.27.14.04.13.06.27.05.42a11.6 11.6 0 0 1-.16 1.52Z" fill="#D82A2A"/><path d="M7.49 10.87c.05.04.11.08.18.1a2.47 2.47 0 0 0 1.04.09.48.48 0 0 1 .12-.1c.08-.04.2.02.26.09.03.05.04.1.03.14-.03.14-.18.24-.31.15-.04-.02-.08-.06-.13-.06-.33 0-.64-.02-.94-.09-.21-.05-.36-.2-.55-.27-.12-.04-.14-.17-.09-.27.04-.08.17-.14.25-.11.13.05.22.18.13.3a.02.02 0 0 0 0 .03ZM6.38 10.85c-.02-.05-.07-.07-.05-.13.03-.1.1-.16.2-.18.13-.03.21.07.25.18.04.11-.1.21-.19.24a.46.46 0 0 0-.1.07c-.15.11-.35.18-.6.2a4.1 4.1 0 0 1-.65.03c-.09.07-.2.18-.32.08-.11-.08-.18-.22-.04-.33.08-.07.16-.07.25-.03.06.03.1.08.17.08.25.01.51 0 .75-.05a.75.75 0 0 0 .33-.13.02.02 0 0 0 0-.03ZM13.17 12.58c.09.1.16.2.06.33-.07.09-.21.12-.3.04-.08-.07-.14-.18-.06-.27.05-.07.12-.11.12-.21.03-.35.04-.7 0-1.05a.3.3 0 0 0-.09-.2.41.41 0 0 0-.13-.07 3.65 3.65 0 0 0-1.51-.05c-.12.02-.22.03-.32.1-.04.03-.05.05-.06.1-.04.09-.06.2-.07.3-.03.29-.02.57.02.85.01.07.05.13.1.17.12.07.1.26-.01.33a.33.33 0 0 1-.12.05c-.06.01-.2-.09-.21-.15-.03-.1-.01-.18.06-.23a.07.07 0 0 0 .02-.06c0-.08-.03-.15-.04-.23l-.03-.42c0-.18.03-.37.07-.59.03-.1.1-.23.18-.29a.7.7 0 0 1 .21-.09 4.37 4.37 0 0 1 1.5-.04c.24.03.51.11.58.36.03.09.05.17.06.26a3.42 3.42 0 0 1-.04 1.03l.01.03ZM5.1 12.57c.03 0 .05 0 .07-.02a1.47 1.47 0 0 0 .32-.55c.03-.15-.1-.2-.21-.16-.08.03-.1.12-.18.14-.08.04-.16.02-.22-.05-.1-.1-.1-.2-.02-.3.1-.1.22-.08.33-.02.03.02.06.03.1.03.13-.01.25.02.33.13.11.15.05.28 0 .43-.08.18-.2.33-.33.48-.07.09-.03.24-.16.29-.13.05-.23.01-.3-.11-.07-.1-.01-.19.06-.25.06-.05.12-.06.2-.04ZM8.64 11.85c-.11.04-.15.13-.11.26.05.16.13.3.25.44a.05.05 0 0 0 .05.02c.07-.02.16-.02.22.04.09.1.1.2.03.29-.07.1-.18.12-.28.07a.14.14 0 0 1-.08-.1.5.5 0 0 0-.1-.24 1.2 1.2 0 0 1-.27-.44c-.09-.27.04-.5.33-.52l.03-.02c.1-.08.23-.14.33-.04s.12.2.05.28c-.11.15-.28.14-.37-.02a.06.06 0 0 0-.08-.02Z" fill="#D82A2A"/><path d="M11.75 11.97c-.08.05-.12.13-.23.1-.1 0-.16-.07-.19-.17v-.08c.03-.1.1-.16.2-.17.1-.01.14.04.2.1l.06.02h.25a.1.1 0 0 0 .05-.01l.12-.09c.1-.07.2 0 .27.07.07.08.04.21-.04.28-.15.13-.2.04-.34-.05a.12.12 0 0 0-.07-.02h-.25c-.01 0-.02 0-.03.02ZM6.06 12.62c.06.1.08.24-.03.32-.09.08-.19.07-.3-.02-.1-.08-.08-.26.04-.32a.22.22 0 0 0 .11-.08c.08-.14.18-.33.33-.4.15-.07.28.01.34.15.04.08.06.17.08.26.01.05.04.09.07.13.1.1.03.25-.08.31-.1.05-.19.03-.27-.06-.07-.08-.05-.2.02-.28.05-.05.06-.13.04-.24-.02-.1-.12-.12-.19-.06a.79.79 0 0 0-.16.25v.04ZM7.89 12.6c-.04-.1-.16-.3-.26-.31-.1 0-.12.16-.11.23 0 .05.04.09.07.13.06.08.05.23-.03.3-.09.07-.18.06-.28-.02-.15-.13-.01-.26.03-.4.04-.17.13-.53.4-.41.18.07.27.26.36.41.05.07.15.07.18.15.04.16-.02.25-.16.3-.06.03-.13 0-.19-.04-.1-.08-.09-.22-.01-.32v-.03ZM12.04 12.68c-.06-.02-.24-.06-.26.04-.03.07-.03.17-.1.22a.2.2 0 0 1-.17.05c-.12-.02-.22-.16-.17-.28.08-.19.22-.12.36-.18a.5.5 0 0 1 .42 0c.05.02.1.03.16.03.14 0 .25.1.23.24-.01.1-.12.2-.21.2h-.03l-.14-.08a.03.03 0 0 1-.02-.02c-.01-.07-.01-.13-.04-.2a.05.05 0 0 0-.03-.02Z" fill="#D82A2A"/><path fill-rule="evenodd" d="M6.79 10.05c.07-.1.16-.12.28-.09.02 0 .05.03.06.04.06.06.13.1.21.08.1 0 .19-.12.18-.2 0-.1-.04-.13-.1-.18a.54.54 0 0 1-.1-.11.46.46 0 0 0-.11-.12.34.34 0 0 0-.4 0 .47.47 0 0 0-.1.1l-.03.03a.64.64 0 0 1-.08.07c-.08.07-.17.14-.13.24.05.13.15.21.3.16l.02-.02Zm.25-.46-.12.01-.03.02-.05.05a.06.06 0 0 0 .05.1h.2a.05.05 0 0 0 .06-.03.06.06 0 0 0 0-.06l-.06-.07a.06.06 0 0 0-.05-.02Z" fill="#D82A2A"/></svg>