<!-- by TradingView --><svg width="18" height="18" viewBox="0 0 18 18" xmlns="http://www.w3.org/2000/svg"><path fill="#F0F3FA" d="M0 0h18v18H0z"/><path fill-rule="evenodd" d="M3 5.7C3 4.77 3.66 4 4.46 4h9.08c.8 0 1.46.76 1.46 1.7v6.6c0 .94-.66 1.7-1.46 1.7H4.46C3.66 14 3 13.24 3 12.3V5.7Zm1 .47C4 5.52 4.45 5 5.01 5H13c.56 0 1.01.52 1.01 1.17v5.66c0 .65-.45 1.17-1.01 1.17H5C4.45 13 4 12.48 4 11.83V6.17Zm1 .2c0-.2.14-.37.32-.37h5.58c.84 0 1.52.78 1.52 1.74 0 .53-.21 1.01-.54 1.33.3.22.42.64.45.9v.89c0 .37.26.53.48.66l.19.12V12h-2.04c-.64-.06-.96-.53-.98-.75v-1.1c0-.39-.18-.58-.34-.68H8V11h.62c.18 0 .32.1.32.3v.33c0 .2-.14.37-.32.37h-3.3c-.18 0-.32-.16-.32-.37v-.33c0-.2.14-.3.32-.3h.64V7h-.64C5.14 7 5 6.82 5 6.62v-.25ZM9.63 7H8v1.5h1.63c.3 0 .54-.34.54-.75S9.93 7 9.63 7Z" fill="#A1063D"/></svg>