<!-- by TradingView --><svg width="18" height="18" viewBox="0 0 18 18" xmlns="http://www.w3.org/2000/svg"><path fill="#F0F3FA" d="M0 0h18v18H0z"/><path d="M9 14c1.22 0 2.35-.44 3.22-1.17l-.71-.71a3.98 3.98 0 0 1-5.08-.06l-.71.71A4.98 4.98 0 0 0 9 14Zm-3.82-1.78.7-.7a3.98 3.98 0 0 1 .03-5.06l-.71-.71a4.98 4.98 0 0 0-.02 6.47ZM14 9c0 1.24-.45 2.37-1.2 3.24l-.7-.7a3.98 3.98 0 0 0-.04-5.12l.7-.71A4.98 4.98 0 0 1 14 9Zm-1.78-3.83a4.98 4.98 0 0 0-6.46.02l.71.71a3.98 3.98 0 0 1 5.04-.02l.7-.7ZM5.74 12.3 4 13.3l.7.7 1.04-1.7ZM12.26 5.7l1.74-1-.7-.7-1.04 1.7ZM8.56 6h-1.6l-.22.35h.75L6.84 12h1.63l.09-.35h-.68L8.56 6ZM10.16 12h1.24l.08-.35h-.4L9.6 9.03c.45 0 1.4-.41 1.4-1.53C11 6.14 9.6 5.96 8.9 6l-.06.35c.62 0 1.14.32 1.16 1.33.02.81-.55 1.06-.83 1.14h-.53v.36L10.16 12Z" fill="#476422"/></svg>