<!-- by TradingView --><svg width="18" height="18" viewBox="0 0 18 18" xmlns="http://www.w3.org/2000/svg"><path fill="#F0F3FA" d="M0 0h18v18H0z"/><path d="M8.7 4v.22h-.42c-.12 0-.28.12-.28.26v3.15h2V4.48c0-.14-.16-.26-.28-.26h-.43V4h1.95c.89 0 1.6.84 1.6 1.87v.06c0 .9-.52 1.64-1.23 1.83 1.29.56 1.32 2.31 1.35 3.38v.1c.03 1.08.3 1.53.57 1.53.2 0 .34-.15.38-.23l.09.16c-.05.08-.26.3-.73.3-1.15 0-1.21-1.66-1.27-3.15l-.02-.42c-.06-1.26-.58-1.61-.83-1.62h-.39v4.66c0 .19.12.34.28.34h.31V13H9.3v-.2h.43c.12 0 .28-.11.28-.26V7.8H8v4.73c0 .15.16.27.28.27h.43V13H6.65v-.2h.31c.16 0 .28-.14.28-.33V7.81h-.39c-.25 0-.77.36-.83 1.62L6 9.85C5.94 11.35 5.88 13 4.73 13c-.47 0-.68-.22-.73-.3l.09-.16c.04.08.17.23.38.23.26 0 .54-.45.57-1.53v-.1c.03-1.07.06-2.82 1.35-3.38-.7-.2-1.24-.94-1.24-1.83v-.06C5.15 4.84 5.87 4 6.76 4h1.95ZM7.25 7.66v-3.2a.37.37 0 0 0-.37-.3c-.3 0-.87.48-.87 1.37v.84c0 .43.25 1.29.91 1.29h.33Zm3.52-3.2v3.2h.33c.66 0 .9-.86.91-1.29v-.84c0-.9-.56-1.37-.87-1.37-.24 0-.34.2-.37.3Z" fill="#A08A4D"/></svg>