<!-- by TradingView --><svg width="18" height="18" viewBox="0 0 18 18" xmlns="http://www.w3.org/2000/svg"><path fill="#F0F3FA" d="M0 0h18v18H0z"/><path d="M9.5 11.66V5.2l2.09 1.94-2.09 4.52Z" fill="url(#aqdltlhsf)"/><path d="M9.8 12h4.99l-1.5-2.7L9.81 12Z" fill="url(#bqdltlhsf)"/><path d="m13.18 9.04-3.5 2.74 2.1-4.52 1.4 1.78Z" fill="url(#cqdltlhsf)"/><path d="m9.66 5 2.09 1.92V5H9.66Z" fill="url(#dqdltlhsf)"/><path d="m15 11.88-1.48-2.7H15v2.7Z" fill="url(#eqdltlhsf)"/><path d="M14.97 9h-1.42V7.13L14.97 9Z" fill="url(#fqdltlhsf)"/><path d="M13.34 6.81H12V5l1.34 1.81Z" fill="url(#gqdltlhsf)"/><path d="M11.89 7.03h1.5v1.92l-1.5-1.92Z" fill="url(#hqdltlhsf)"/><path d="M8.23 12H3.16l1.52-2.66L8.23 12Z" fill="url(#iqdltlhsf)"/><path d="M8.5 11.61V5.27l-2.13 1.9 2.13 4.44Z" fill="url(#jqdltlhsf)"/><path d="m6.18 7.32 2.15 4.44L4.78 9.1l1.4-1.78Z" fill="url(#kqdltlhsf)"/><path d="m3 11.8 1.5-2.66H3v2.65Z" fill="url(#lqdltlhsf)"/><path d="M8.4 5 6.29 6.89V5h2.13Z" fill="url(#mqdltlhsf)"/><path d="M6 5.04v1.8H4.68L6 5.04Z" fill="url(#nqdltlhsf)"/><path d="M4.42 7.1V9H3l1.42-1.9Z" fill="url(#oqdltlhsf)"/><path d="M4.62 8.96v-1.9H6.1l-1.48 1.9Z" fill="url(#pqdltlhsf)"/><defs><linearGradient id="aqdltlhsf" x1="9.49" y1="12.21" x2="11.22" y2="6.19" gradientUnits="userSpaceOnUse"><stop stop-color="#F6A8CA"/><stop offset=".49" stop-color="#EE3B95"/><stop offset="1" stop-color="#AF1F60"/></linearGradient><linearGradient id="bqdltlhsf" x1="9.52" y1="12.02" x2="12.44" y2="9.38" gradientUnits="userSpaceOnUse"><stop stop-color="#F6A8CA"/><stop offset=".49" stop-color="#EE3B95"/><stop offset="1" stop-color="#AF1F60"/></linearGradient><linearGradient id="cqdltlhsf" x1="9.43" y1="12.17" x2="12.67" y2="6.74" gradientUnits="userSpaceOnUse"><stop stop-color="#F6A8CA"/><stop offset=".49" stop-color="#EE3B95"/><stop offset="1" stop-color="#AF1F60"/></linearGradient><linearGradient id="dqdltlhsf" x1="11.74" y1="7.67" x2="9.49" y2="6.4" gradientUnits="userSpaceOnUse"><stop stop-color="#F6A8CA"/><stop offset=".49" stop-color="#EE3B95"/><stop offset="1" stop-color="#AF1F60"/></linearGradient><linearGradient id="eqdltlhsf" x1="13.16" y1="9.18" x2="15.87" y2="10.05" gradientUnits="userSpaceOnUse"><stop stop-color="#F6A8CA"/><stop offset=".49" stop-color="#EE3B95"/><stop offset="1" stop-color="#AF1F60"/></linearGradient><linearGradient id="fqdltlhsf" x1="14.7" y1="9.94" x2="12.21" y2="8" gradientUnits="userSpaceOnUse"><stop stop-color="#F6A8CA"/><stop offset=".49" stop-color="#EE3B95"/><stop offset="1" stop-color="#AF1F60"/></linearGradient><linearGradient id="gqdltlhsf" x1="12.83" y1="7.53" x2="10.87" y2="6.24" gradientUnits="userSpaceOnUse"><stop stop-color="#F6A8CA"/><stop offset=".49" stop-color="#EE3B95"/><stop offset="1" stop-color="#AF1F60"/></linearGradient><linearGradient id="hqdltlhsf" x1="12.33" y1="6.22" x2="14.52" y2="7.82" gradientUnits="userSpaceOnUse"><stop stop-color="#F6A8CA"/><stop offset=".49" stop-color="#EE3B95"/><stop offset="1" stop-color="#AF1F60"/></linearGradient><linearGradient id="iqdltlhsf" x1="8.21" y1="12.01" x2="3.9" y2="11.04" gradientUnits="userSpaceOnUse"><stop stop-color="#EE3B95"/><stop offset="1" stop-color="#F6A8CA"/></linearGradient><linearGradient id="jqdltlhsf" x1="8.49" y1="11.63" x2="6.01" y2="10.82" gradientUnits="userSpaceOnUse"><stop stop-color="#EE3B95"/><stop offset="1" stop-color="#F6A8CA"/></linearGradient><linearGradient id="kqdltlhsf" x1="8.31" y1="11.77" x2="4.79" y2="10.87" gradientUnits="userSpaceOnUse"><stop stop-color="#EE3B95"/><stop offset="1" stop-color="#F6A8CA"/></linearGradient><linearGradient id="lqdltlhsf" x1="4.46" y1="9.07" x2="3.55" y2="10.1" gradientUnits="userSpaceOnUse"><stop stop-color="#EE3B95"/><stop offset="1" stop-color="#F6A8CA"/></linearGradient><linearGradient id="mqdltlhsf" x1="6.13" y1="6.88" x2="8.26" y2="4.87" gradientUnits="userSpaceOnUse"><stop stop-color="#EE3B95"/><stop offset="1" stop-color="#F6A8CA"/></linearGradient><linearGradient id="nqdltlhsf" x1="6.22" y1="6.13" x2="5.47" y2="6.34" gradientUnits="userSpaceOnUse"><stop stop-color="#EE3B95"/><stop offset="1" stop-color="#F6A8CA"/></linearGradient><linearGradient id="oqdltlhsf" x1="4.65" y1="9.18" x2="2.95" y2="8.74" gradientUnits="userSpaceOnUse"><stop stop-color="#EE3B95"/><stop offset="1" stop-color="#F6A8CA"/></linearGradient><linearGradient id="pqdltlhsf" x1="4.35" y1="8.54" x2="5.57" y2="6.69" gradientUnits="userSpaceOnUse"><stop stop-color="#EE3B95"/><stop offset="1" stop-color="#F6A8CA"/></linearGradient></defs></svg>