<!-- by TradingView --><svg width="18" height="18" viewBox="0 0 18 18" xmlns="http://www.w3.org/2000/svg"><path fill="#F0F3FA" d="M0 0h18v18H0z"/><path d="m9.31 14 .31-.03V7.75c0-.5.09-.97.37-1.39a3.4 3.4 0 0 1 1.37-1.08l.61-.31A4.97 4.97 0 0 0 9.31 4v10ZM8.7 4a4.97 4.97 0 0 0-2.73 1.02l.65.24c.53.2.98.46 1.3.87.31.42.46.94.46 1.62v6.22l.32.03V4Zm-.94 9.85v-6.1c0-.58-.13-.96-.34-1.24a2.2 2.2 0 0 0-1.02-.66l-.96-.36A5 5 0 0 0 4.1 8h1.46c.3 0 .75.13 1.14.35.4.23.74.64.74 1.28v4.13l.31.1Zm-.94-.34V9.63a.79.79 0 0 0-.43-.73c-.26-.16-.6-.21-.82-.21H4.01L4 9c0 1.98 1.15 3.7 2.81 4.5Zm5.68-8.1-.85.43c-.6.3-.94.58-1.13.87-.19.28-.26.6-.26 1.04v6.1l.31-.09V9.63c0-.6.26-1.01.6-1.26.33-.23.7-.37.96-.37h1.78a5 5 0 0 0-1.41-2.59Zm1.5 3.28h-1.87c-.15 0-.4.05-.6.19-.17.13-.33.35-.33.75v3.88a5.01 5.01 0 0 0 2.8-4.82Z" fill="#EE3439"/></svg>