<!-- by TradingView --><svg width="18" height="18" viewBox="0 0 18 18" xmlns="http://www.w3.org/2000/svg"><path fill="#F0F3FA" d="M0 0h18v18H0z"/><path d="M4 9v-.16C4 6.17 6.39 4 9.33 4c2.95 0 5.34 2.17 5.34 4.84V9H14v-.16c0-.95-.35-1.82-.93-2.53l-.18.37h-1.06l-.92 1.14h1.4l-.2.4h-1.5l-1 1.23.93.93h5.01L16 11h-1.59c-1.07 1.8-3.1 3-5.44 3a6.31 6.31 0 0 1-5.44-3H2l.45-.62h4.93l.8-.93-1.36-1.61-.74 1.45H5.02L6.98 6h2.45c.25 0 .42.25.29.45l-.94 1.37h-.55l.61.75 1.87-2.3h2.32c-.85-1-2.19-1.64-3.7-1.64-2.57 0-4.66 1.88-4.66 4.21V9H4Zm.28 2A5.77 5.77 0 0 0 9 13.38c1.97 0 3.7-.95 4.72-2.38h-4l-.77-.89-.68.89h-4Zm2.9-3.61h.89l.52-.77h-.9l-.5.77Z" fill="url(#a)"/><defs><linearGradient id="a" x1="9" y1="4" x2="9" y2="14" gradientUnits="userSpaceOnUse"><stop offset=".19" stop-color="#E4DE45"/><stop offset="1" stop-color="#C5242C"/></linearGradient></defs></svg>