<!-- by TradingView --><svg width="18" height="18" viewBox="0 0 18 18" xmlns="http://www.w3.org/2000/svg"><path fill="#F0F3FA" d="M0 0h18v18H0z"/><path d="m7.87 5-.02.01C4.72 7.38 6.13 9.22 6.13 9.22c2.2 1.79 6.67 2.26 9.87.78-6.57 3.73-11.38 2.4-11.38-.78 0-3.07 2.96-4.05 3.23-4.2L7.87 5Z" fill="#B2B3B6"/><path d="m7.35 5-.02.02C4.2 7.47 4.93 9.09 5.16 9.69c1.36 2.33 7.12 2.16 10.32.62C8.91 14.18 3 13.6 3 10.3 3 7.12 6.98 5.25 7.33 5L7.35 5Z" fill="#ED1C24"/><path fill-rule="evenodd" d="M8 10V6h3.72c.68 0 1.23.58 1.23 1.3 0 .4-.18.79-.46 1.04l.97 1.66h-2.34l-.69-1.35H10V10H8Zm2-2V6.63h.45c.3 0 .54.3.54.67 0 .37-.24.7-.54.7H10Z" fill="#ED1C24"/></svg>