<!-- by TradingView --><svg xmlns="http://www.w3.org/2000/svg" width="18" height="18"><path fill="#F0F3FA" d="M0 0h18v18H0z"/><path d="M6.9 7.01a.44.44 0 01.62 0l1.37 1.37 1.37-1.37a.44.44 0 01.63.62L9.52 9l1.37 1.37a.44.44 0 11-.63.63L8.9 9.63 7.52 11a.44.44 0 01-.62-.63L8.27 9 6.89 7.63a.44.44 0 010-.62z" fill="#D3A00F"/><path d="M9.24 3.13a.44.44 0 00-.63 0L6.43 5.3a.44.44 0 000 .62c.17.18.45.18.62 0l1.87-1.86 1.88 1.87a.44.44 0 00.63-.62L9.27 3.17a.44.44 0 00-.04-.05zM9 13.93l1.87-1.87a.44.44 0 01.63 0c.17.17.17.45 0 .63l-2.15 2.13a.44.44 0 01-.67.05L6.5 12.7a.44.44 0 010-.62.44.44 0 01.63 0L9 13.93z" fill="#03244D"/><path d="M4.07 9l1.88 1.87c.17.17.17.45 0 .62a.44.44 0 01-.63 0L3.18 9.35a.44.44 0 01-.05-.66l2.19-2.18a.44.44 0 01.62 0c.17.17.17.45 0 .62L4.07 9zm9.86 0l-1.88 1.87a.44.44 0 000 .62c.18.18.46.18.63 0l2.14-2.14a.44.44 0 00.05-.66l-2.19-2.18a.44.44 0 00-.62 0 .44.44 0 000 .62L13.93 9z" fill="#B9BDC0"/></svg>