<!-- by TradingView --><svg width="18" height="18" viewBox="0 0 18 18" xmlns="http://www.w3.org/2000/svg"><path fill="#F0F3FA" d="M0 0h18v18H0z"/><path d="m9.01 5 6.98 3.98A.02.02 0 0 1 16 9a.02.02 0 0 1-.01.02L9.01 13h-.02L2.01 9.02A.02.02 0 0 1 2 9a.02.02 0 0 1 .01-.02L8.99 5a.02.02 0 0 1 .02 0ZM7.89 7.03h.01L7.91 7h3.55v.03a.02.02 0 0 1 .01.02l-1.4 2.5a.02.02 0 0 0 0 .01l1.03 1.78.01.01a.02.02 0 0 0 .01 0h.01l4.09-2.33a.02.02 0 0 0 0-.03L9 5.45a.02.02 0 0 0-.02 0l-6.2 3.53a.02.02 0 0 0 0 .02.02.02 0 0 0 0 .01l2.98 1.7h.02l2.1-3.68Zm2.15 4.91a.02.02 0 0 0 0-.02L8.67 9.54a.02.02 0 0 1 0-.02l.82-1.5a.02.02 0 0 0 0-.03h-.76a.02.02 0 0 0-.02.01L6.85 11.3a.02.02 0 0 0 0 .02l2.13 1.22a.02.02 0 0 0 .02 0l1.04-.59Z" fill="#E60012"/></svg>