<!-- by TradingView --><svg width="18" height="18" viewBox="0 0 18 18" xmlns="http://www.w3.org/2000/svg"><path fill="#F0F3FA" d="M0 0h18v18H0z"/><path d="m6.03 7-.21.25C5.57 7.16 4.92 7 4.27 7 2.4 7 2 7.94 2 8.23c0 .29.12 1.05 1.52 1.36 1.4.32 2 .32 2 .63s-.37.4-.8.4a3.88 3.88 0 0 1-2.5-.78L2 10.1l1.04.89.22-.29c.14.1.64.29 1.51.29C6.67 11 7 10.04 7 9.75c0-.3-.17-1.1-1.35-1.32-1.19-.22-1.89-.4-1.89-.67s.3-.36.82-.36c.93 0 1.9.42 2.25.63L7 7.8 6.03 7Z" fill="#FF001B"/><path fill-rule="evenodd" d="M10.37 7.29V7h4.42c.59 0 1.06.45 1.06.98 0 .44-.32.87-.76 1 .48.12.91.52.91 1 0 .56-.62 1.02-1.21 1.02h-4.75c-.36 0-.7-.16-.83-.24-.1.08-.41.24-.88.24-.75 0-1.33-.33-1.33-.95 0-.5.57-.78.86-.86A.95.95 0 0 1 8.74 8c.47 0 .62.22.62.35 0 .13-.12.24-.3.24-.3 0-.34-.25-.32-.37-.26 0-.33.2-.33.71 0 .62.54 1.23.8 1.47.08-.04.23-.16.23-.35 0-.13-.14-.2-.27-.27-.1-.04-.18-.09-.18-.15 0-.15.1-.24.37-.24.28 0 .48.26.48.53 0 .34-.22.56-.32.62.24.15.5.18.6.17h.62c.2 0 .26-.15.26-.33V7.65c0-.17-.07-.36-.26-.36h-.37Zm3 .09h-.72v1.43h.71c.42 0 .81-.32.81-.72 0-.39-.39-.71-.8-.71Zm-.01 3.24h-.7V9.09h.7c.45 0 .81.34.81.76s-.36.77-.81.77Zm-4.44-.06c-.56-.4-.89-.91-.98-1.12-.1.07-.32.24-.32.4 0 .4.47.76.8.76.28 0 .45-.03.5-.04Z" fill="#FF001B"/></svg>