<!-- by TradingView --><svg width="18" height="18" viewBox="0 0 18 18" xmlns="http://www.w3.org/2000/svg"><path fill="#F0F3FA" d="M0 0h18v18H0z"/><path fill-rule="evenodd" d="M9.92 15c1.51-.08 3.12-.85 3.79-2.16.67-1.31.1-2.75-.87-3.76a12.92 12.92 0 0 0-1.4-1.29l-.16-.14A11.68 11.68 0 0 1 10.6 7 2.4 2.4 0 0 1 10 5.16c.08-.9.67-1.5 1.42-2.01-.74-.3-1.85-.09-2.6.1a6.48 6.48 0 0 0-3.96 2.84 5.7 5.7 0 0 0 .65 6.94c.6.67 1.32 1.2 2.17 1.58.7.3 1.45.42 2.23.38Zm-1.5-6.2c-.14-.02-.73-.13-.53-.4.3-.4.57-.83.6-1.34.02-.09 0-.22-.01-.4-.1-.72.06-1.38.57-1.93.47-.5 1.02-.95 1.65-1.33.03-.02.03-.03 0-.03l-.2-.01A6.47 6.47 0 0 0 7 4.38a5.9 5.9 0 0 0-2.05 2.24 5.51 5.51 0 0 0 .92 6.3 6.01 6.01 0 0 0 3.74 1.87c.58.06 1.17 0 1.7-.24.78-.35 1.15-1.1 1.21-1.88.04-.4-.17-.81-.44-1.13-.4-.47-.88-.85-1.42-1.16a.06.06 0 0 0-.06 0c-.33.17-.67.3-1 .38a1.3 1.3 0 0 1-.34.03c-.23 0-.45-.16-.44-.4 0-.1.02-.21.05-.34v-.03L8.83 10c-.1-.07-.26-.18-.24-.32 0-.07.02-.14.04-.22 0-.01 0-.02-.02-.02a.32.32 0 0 1-.27-.18.1.1 0 0 1 0-.12c.08-.1.1-.2.1-.31 0-.01-.01-.02-.03-.02Z" fill="#1CB1A8"/></svg>