<!-- by TradingView --><svg xmlns="http://www.w3.org/2000/svg" width="18" height="18" viewBox="0 0 18 18"><path fill="#F0F3FA" d="M0 0h18v18H0z"/><path d="m5 10.92.01 2.97L7 15v-3.56a4.55 4.55 0 0 1-2-.52Z" fill="url(#ay5ddv3dx)"/><path d="M11 10v2.46l2 1.13V6.9A5.4 5.4 0 0 1 11 10Z" fill="url(#by5ddv3dx)"/><path d="M7 9.94 5 8.8V10.5c.25.15.99.52 2 .55v-1.1Z" fill="#0B4153"/><path d="m8 13.16 2 1.12v-3.64c-.72.44-1.4.66-2 .75v1.77Z" fill="url(#cy5ddv3dx)"/><path d="m8 5.92.02 5.07c.6-.1 1.28-.32 1.98-.77V7.04L8 5.92Z" fill="#173E0E"/><path d="M13 4.11 11 3v6.53c1.27-1.02 1.94-2.58 2-4.66V4.1Z" fill="#324006"/><defs><linearGradient id="ay5ddv3dx" x1="6" y1="10.92" x2="6" y2="15" gradientUnits="userSpaceOnUse"><stop stop-color="#1DA5D8"/><stop offset="1" stop-color="#0F65A3"/></linearGradient><linearGradient id="by5ddv3dx" x1="12" y1="7.06" x2="12" y2="13.59" gradientUnits="userSpaceOnUse"><stop stop-color="#C5D42C"/><stop offset="1" stop-color="#91C236"/></linearGradient><linearGradient id="cy5ddv3dx" x1="9" y1="10.64" x2="9" y2="14.28" gradientUnits="userSpaceOnUse"><stop stop-color="#51A73A"/><stop offset="1" stop-color="#0F8F3C"/></linearGradient></defs></svg>