<!-- by TradingView --><svg xmlns="http://www.w3.org/2000/svg" width="18" height="18"><path fill="#09F" d="M0 0h18v18H0z"/><path d="M11.5 4l-.02 3h-.26a3.01 3.01 0 00-.9-1.72c-.48-.5-1-.75-1.55-.75-.43 0-.77.14-1.03.4a1.26 1.26 0 00-.24 1.46c.13.22.32.44.6.66.19.16.65.43 1.36.83 1 .56 1.68 1.08 2.03 1.58a2.91 2.91 0 01-.33 3.7 2.8 2.8 0 01-2.12.84 3.07 3.07 0 01-1.67-.42c-.2-.1-.37-.14-.5-.14a.58.58 0 00-.35.14.93.93 0 00-.3.42H6v-3h.23c.17.55.54 1.18 1.06 1.72.53.54 1.1.8 1.72.8.47 0 .84-.14 1.12-.43a1.4 1.4 0 00.26-1.67c-.1-.22-.27-.42-.49-.61-.22-.2-.6-.45-1.16-.76-.78-.43-1.33-.7-1.67-1.01A2.82 2.82 0 016 6.78c0-.77.25-1.43.75-1.97S7.89 4 8.66 4a2.88 2.88 0 011.52.43c.29.16.49.23.6.23.11 0 .2-.04.26-.11.07-.08.12-.26.18-.55h.27z"/></svg>