<!-- by TradingView --><svg width="18" height="18" viewBox="0 0 18 18" xmlns="http://www.w3.org/2000/svg"><path fill="#F0F3FA" d="M0 0h18v18H0z"/><path d="M5 9.34C4.94 6.44 7.57 5.1 8.86 4.8V7.9c0 .85-.21 1.31-.3 1.44-.04.04-.1.1-.19.16-.36.3-1.01.83-1.04 1.94a2.18 2.18 0 0 0 2.08 2.19c.89 0 1.99-.81 2.04-2.2.04-1.1-1-1.85-1.52-2.1-.7-.32-.82-1.09-.8-1.43V4.8A7.1 7.1 0 0 0 10.8 3v1.81c-.07 1.06-.57 1.64-.83 1.79v.7c.11.47.62.72 1.2 1 .86.42 1.86.9 1.83 2.36C12.95 13.08 11.3 14 9.4 14A4.56 4.56 0 0 1 5 9.34Zm5.06.66H8.45a.13.13 0 0 0-.14.13v.28c0 .07.06.14.14.14H9.8c.14 0 .25.1.25.22 0 .13-.11.23-.25.23h-.54a.13.13 0 0 0-.13.13v.27c0 .07.06.13.13.13h.44c.28 0 .5.21.5.47s-.22.45-.5.45H8.45c-.08 0-.14.08-.14.15v.27c0 .07.06.13.14.13h1.42c.34.01 1.02-.14 1.05-.73.03-.47-.34-.78-.52-.88.12 0 .37-.12.39-.63.02-.5-.48-.72-.73-.76Zm-1.75.8v1.42c0 .08.06.14.14.14h1.27c.07 0 .14-.06.14-.14V12a.14.14 0 0 0-.14-.14h-.7c-.08 0-.16-.07-.16-.14v-.9c0-.09-.05-.15-.12-.15h-.3a.14.14 0 0 0-.13.14Z" fill="#005FF7"/></svg>