<!-- by TradingView --><svg width="18" height="18" viewBox="0 0 18 18" xmlns="http://www.w3.org/2000/svg"><path fill="#CD1E2C" d="M0 0h18v18H0z"/><path d="M3 5v2h.75V5H3Zm1.12 0v2h.75V5h-.75Zm1.13 2V5H6v2h-.75Zm.61 1.19v1.35c-.14-.12-1.33-.75-1.33-.14 0 .25.26.44.56.65.42.3.91.64.91 1.32C6 12.53 5.18 13 4.43 13c-.6 0-1.22-.16-1.43-.24v-1.27c.05.13 1.53.66 1.53.13 0-.2-.24-.39-.53-.6-.44-.33-1-.74-1-1.48C3 8.3 4.16 8 4.73 8c.45 0 .94.13 1.13.19ZM12 7V5h.75v2H12Zm1.12 0V5h.75v2h-.75Zm1.13-2v2H15V5h-.75ZM12 8v5h1v-2h2v-1h-2V9h2V8h-3ZM8 5l-2 8h1.67l.49-2h1.68l.48 2H12l-1.92-8H7.99Zm1.6 5H8.4l.61-2.46.6 2.46Z" fill="#fff"/></svg>