<!-- by TradingView --><svg width="18" height="18" viewBox="0 0 18 18" xmlns="http://www.w3.org/2000/svg"><path fill="#F0F3FA" d="M0 0h18v18H0z"/><path d="M9.9 7.4a.05.05 0 0 1 .07 0c.9.7 1.64 1.49 2.2 2.35.25.36.46.86.65 1.48.03.12.06.12.08 0 .2-.84.1-1.65-.26-2.44a7.19 7.19 0 0 0-1.67-2.16 4.25 4.25 0 0 1-1.12-1.68 3.54 3.54 0 0 1-.17-1.88.2.2 0 0 1 .04-.02c.02-.01.02-.02 0-.03-.07-.03-.12-.02-.16.01-.99.92-2.03 1.86-3.12 2.83a.12.12 0 0 0-.04.1c-.06 1.2.47 2.24 1.6 3.1.48.36.86.68 1.16.96.37.34.67.67.9.99.52.73.73 1.52.64 2.37-.01.18.05.2.2.05l.85-.87a.16.16 0 0 0 .06-.13 4.68 4.68 0 0 0-1.48-3.05c-.3-.3-.76-.72-1.41-1.28-.02-.02-.02-.04 0-.05l.98-.65Zm-1.36 5.61c.2.57.22 1.2.07 1.88-.02.13.02.15.15.04l1.02-.86a.2.2 0 0 0 .07-.12 2.98 2.98 0 0 0-.6-2.37 7 7 0 0 0-.9-.97 29.71 29.71 0 0 0-1.27-1.06A4.85 4.85 0 0 1 6 8.39a2.4 2.4 0 0 1-.39-1.35c0-.26-.05-.27-.17-.02-.2.42-.32.74-.38.97-.09.37-.08.7.03.98.13.35.38.72.76 1.11a15.14 15.14 0 0 0 1.53 1.32c.57.49.96 1.02 1.16 1.61Z" fill="url(#ahc3ckgrx)"/><defs><linearGradient id="ahc3ckgrx" x1="5" y1="5.06" x2="8.96" y2="14.27" gradientUnits="userSpaceOnUse"><stop stop-color="#41B649"/><stop offset=".86" stop-color="#005FAE"/></linearGradient></defs></svg>