<!-- by TradingView --><svg width="18" height="18" viewBox="0 0 18 18" xmlns="http://www.w3.org/2000/svg"><path fill="#F0F3FA" d="M0 0h18v18H0z"/><path fill-rule="evenodd" d="m9.75 9.45-.4.12c-.09.02-.1 0-.06-.08.2-.3.4-.62.6-.97.15-.26.25-.5.29-.75.02-.1 0-.23-.07-.39a7.75 7.75 0 0 1-.03-.09.16.16 0 0 1 .03-.16c.04-.05.09-.07.15-.05l.15.04c.05.02.1 0 .12-.05a.7.7 0 0 1 .49-.3l.04-.04.24-.35c.06-.1.07-.19.01-.29-.05-.1-.13-.14-.24-.13a4.6 4.6 0 0 0-2.9 1.4c-.13.13-.17.1-.12-.07l.46-1.59c.01-.04.04-.05.08-.02l.46.26c.15.08.28.11.39.08a.52.52 0 0 0 .33-.3.16.16 0 0 0 .01-.1 3.46 3.46 0 0 0-.32-.77c-.2-.36-.5-.63-.88-.8a.68.68 0 0 0-.3-.04h-.17c-.04-.02-.07 0-.09.04a.18.18 0 0 0 0 .16c.02.04.07.08.14.11.33.15.56.42.7.82.02.05 0 .08-.05.08a.74.74 0 0 0-.52.18c-.05.04-.12.2-.2.47-.11.3-.24.6-.4.9-.03.04-.03.14-.01.3l-.01.11-.28.68c-.02.07-.1.15-.24.25a.2.2 0 0 0-.07.1 2.79 2.79 0 0 0-.14.46c-.03.11 0 .2.09.26.07.05.14.06.22.03.13-.05.3-.24.5-.57l.04-.09c.05-.07.17-.18.37-.33.2-.14.4-.37.63-.7.07-.09.17-.16.3-.2.14-.04.32-.13.52-.27l.1-.07c.15-.09.34-.16.58-.2.1-.02.12 0 .04.08-.17.17-.34.3-.5.38a.21.21 0 0 0-.12.16c-.01.08 0 .15.06.2.02.03 0 .08-.03.18-.28.7-.67 1.37-1.19 2.02-.17.2-.4.34-.7.4l-.21.03c-.42.07-.7.16-.83.29a.25.25 0 0 1-.1.06l-.57.15a.09.09 0 0 0-.06.05c-.07.16-.18.22-.34.18a.13.13 0 0 0-.11.02 4 4 0 0 1-.47.3c-.1.05-.24.16-.45.33-.53.41-1.08.71-1.66.9-.04.01-.05.04-.05.09l.06.48c0 .05.02.08.06.1.18.11.35.09.51-.06.04-.03.1-.08.16-.15a2.74 2.74 0 0 1 .55-.42c.33-.2.57-.36.72-.51.23-.23.48-.41.74-.54a.12.12 0 0 0 .06-.08l.02-.06a.12.12 0 0 1 .07-.1l.42-.17a.15.15 0 0 1 .1 0l.07.01c.04.01.06 0 .07-.04a.4.4 0 0 1 .18-.25c.04-.03.08-.02.12 0 .1.08.2.06.28-.08.03-.04.06-.05.1-.03.06.01.08.05.08.1-.02.65.16.88.54.7l.5-.23c.2-.09.36-.12.49-.09a5 5 0 0 0 .51.07c.03 0 .04.02.05.05 0 .03 0 .06-.02.08l-.01.01-.92.43a.13.13 0 0 0-.08.08l-.01.03c-.01.04-.03.05-.07.05-.23-.01-.4 0-.52.03-.08.02-.14.09-.17.2-.02.05-.04.06-.08.03a.24.24 0 0 1-.06-.07c-.03-.06-.06-.1-.1-.1a.16.16 0 0 0-.15.02c-.04.03-.05.06-.04.1l.06.23c.01.04 0 .07-.04.08a.5.5 0 0 1-.42-.1.05.05 0 0 0-.05 0 .05.05 0 0 0-.03.05c0 .14.06.22.18.24.19.02.35 0 .5-.07a.08.08 0 0 1 .1 0c.02.03.04.07.04.11.01.04.04.07.08.08.18.03.32 0 .42-.1.03-.04.06-.04.1 0 .1.1.2.16.28.19a.1.1 0 0 0 .1-.03l.22-.23c.04-.04.07-.03.1.01a.2.2 0 0 0 .1.08h.1c.12-.06.23-.1.36-.13.2-.04.4-.13.58-.26.28-.22.55-.44.82-.68a.1.1 0 0 1 .13-.02c.3.16.65.3 1.04.45.15.05.3.15.47.31a.1.1 0 0 0 .1.03l.36-.1c.07-.02.09-.07.05-.14-.2-.4-.48-.67-.85-.83a.2.2 0 0 0-.11-.02.24.24 0 0 0-.13.07.05.05 0 0 1-.06.01l-.67-.24c-.04-.01-.06-.04-.06-.08v-.26c.02-.42-.04-.73-.16-.92a.07.07 0 0 1 0-.08.07.07 0 0 1 .06-.04c.06 0 .1 0 .14.04.32.23.57.39.76.46.32.14.57.12.75-.04a.28.28 0 0 0 .1-.2.29.29 0 0 0-.09-.22c-.2-.22-.5-.34-.92-.38-.36-.03-.69.01-.99.12a.07.07 0 0 1-.07-.02l-.66-.57a.11.11 0 0 0-.12-.03.12.12 0 0 0-.08.09c-.04.12-.03.29.02.5.01.08-.01.13-.09.15Zm.17.22c-.16.08-.26.12-.3.11-.33-.06-.55.07-.67.38-.03.1 0 .15.09.17l.82.2c.04.01.07 0 .1-.04.14-.26.22-.4.23-.46.03-.18-.03-.3-.16-.36a.12.12 0 0 0-.1 0Z" fill="#D0A119"/></svg>