<!-- by TradingView --><svg width="18" height="18" viewBox="0 0 18 18" xmlns="http://www.w3.org/2000/svg"><path fill="#F0F3FA" d="M0 0h18v18H0z"/><path d="M5.33 7.99c0 .02.01.02.03.02L6.32 8c.03 0 .04.01.03.05l-.06.2c0 .03-.03.04-.05.04H5c-.03 0-.05 0-.04-.02.02-.19.07-.4.15-.65.24-.66.64-1.2 1.21-1.7a4.27 4.27 0 0 1 4.4-.62c.87.41 1.52 1.04 1.96 1.9.01.02.04.03.07.02l1.4-.57c.01-.01.02-.03.01-.04a6.12 6.12 0 0 0-1.52-1.96 5.86 5.86 0 0 0-4.94-1.2 5.7 5.7 0 0 0-4.37 6.1c0 .05.01.11.04.18 0 .02.03.03.05.03l2.85-.04c.03 0 .05.02.06.05l.03.2c0 .03-.01.04-.04.04l-3.13.05c-.04 0-.07-.02-.08-.06A5.8 5.8 0 0 1 4.35 5.2a6 6 0 0 1 5.63-2.14c.89.15 1.67.47 2.37.98l.37.27c.38.27.73.62 1.05 1.05.3.4.56.84.78 1.33.02.04 0 .07-.04.1l-1.9.77c-.04.03-.08.01-.1-.04a3.86 3.86 0 0 0-7.04.01c-.07.16-.12.31-.14.45Z" fill="#222547"/><path d="M9.11 4.52c.05.04.09.03.12-.03a5.78 5.78 0 0 1 .12-.18.2.2 0 0 1 .1.02c.02 0 .02.02.03.04 0 .1-.02.19-.06.25a.29.29 0 0 1-.25.1c-.11 0-.2-.03-.25-.1-.07-.1-.08-.33-.04-.72V3.9c.01-.1.07-.18.19-.21.1-.03.2-.03.27.01.1.05.15.16.15.31 0 .02 0 .03-.02.04a.16.16 0 0 1-.14.02.05.05 0 0 1-.04-.04.88.88 0 0 0-.04-.12c0-.03-.02-.05-.04-.05-.03-.01-.05 0-.08.02v.04l-.05.54c0 .03.01.05.03.07ZM10.02 4.45a.25.25 0 0 0-.02.15c0 .02.02.04.03.04.07.03.13.05.19.05.03 0 .04.02.04.05l-.02.1c-.01.04-.03.05-.07.04a3.7 3.7 0 0 1-.35-.08c-.09-.01-.12-.07-.1-.17l.2-.84c0-.03.02-.04.05-.03l.4.09c.02 0 .04.01.05.03.02.04.02.08 0 .11a.04.04 0 0 1-.05.02c-.19-.01-.28.03-.29.12 0 .05.02.08.07.1l.11.02c.04 0 .05.03.05.06l-.01.07c0 .04-.03.06-.07.06l-.16-.02c-.03 0-.04 0-.05.03ZM7.44 3.9c-.02 0-.03.01-.02.04l.22.93c0 .03.02.03.04.03l.3-.08a.24.24 0 0 0 .17-.12.28.28 0 0 0 .02-.21l-.1-.46a.28.28 0 0 0-.12-.18.24.24 0 0 0-.2-.03l-.3.07Zm.3.1c.04 0 .08.02.1.06l.11.5a.08.08 0 0 1-.05.1.07.07 0 0 1-.1-.06l-.12-.5a.08.08 0 0 1 .06-.1ZM11.15 4.54c.09-.08.16-.17.2-.25.02-.03.04-.04.08-.03l.23.11c.02.02.03.04.02.07l-.39.83c-.02.04-.05.06-.1.04l-.06-.04c-.04-.02-.05-.04-.03-.08l.26-.56V4.6h-.03a.2.2 0 0 0-.1.08 54.62 54.62 0 0 0-.35.47.07.07 0 0 1-.06-.03.05.05 0 0 1 0-.05v-.02c.1-.26.15-.45.13-.56 0-.02-.01-.02-.03 0a.23.23 0 0 0-.07.07l-.17.42c-.02.05-.05.06-.09.04l-.06-.03c-.05-.03-.06-.06-.04-.1l.38-.8c.02-.06.06-.08.12-.05l.16.08c.05.03.07.07.04.12a.95.95 0 0 0-.06.3h.02ZM6.8 4.7c-.02-.02-.03-.01-.02.02.04.15.1.28.17.4.03.04.02.08-.03.1l-.06.03c-.05.02-.08.01-.1-.04l-.37-.81c-.02-.03 0-.06.02-.07l.16-.07c.04-.01.06 0 .08.04.06.13.16.23.3.31.02.01.03 0 .02-.01-.03-.16-.08-.3-.15-.39-.03-.04-.02-.07.02-.09l.07-.03c.05-.02.09 0 .1.04l.36.78c.04.08.02.12-.07.13l-.06.01a.17.17 0 0 1-.18-.09.82.82 0 0 0-.25-.26ZM12.05 5.1c.01.03.04.06.09.1.03.02.04.06.02.1l-.01.04c-.02.04-.04.05-.08.03l-.11-.06a.08.08 0 0 0-.09 0c-.08.06-.1.12-.04.17l.11.1c.04.03.04.06.02.1l-.05.06c-.02.03-.04.03-.07.01l-.37-.26v-.02l.54-.77c.04-.05.07-.05.12-.02l.3.22c.02.02.03.05.01.09l-.03.06c0 .02-.02.03-.04.04l-.05-.01-.14-.1a.05.05 0 0 0-.04-.01c-.03 0-.06.03-.09.08v.05ZM6.23 5.57c-.02-.04-.01-.08.02-.1.03-.03.07-.03.1 0 .09.07.16.06.23-.04.03-.03.02-.06 0-.09l-.66-.6c-.03-.03-.06-.04-.1-.01a.88.88 0 0 0-.16.12.08.08 0 0 0-.01.1l.4.8c.01.04.04.05.07.04.12-.05.15-.12.1-.22Zm-.09-.25c-.03.03-.1-.03-.17-.12s-.1-.18-.08-.2c.03-.02.1.04.17.13s.1.17.08.2ZM12.73 5.87l-.01.05c-.01.02 0 .02.01.01.13-.08.24-.17.33-.29.03-.04.07-.04.1 0l.06.05c.03.03.03.07 0 .1l-.68.63h-.05a.42.42 0 0 1-.13-.14.04.04 0 0 1 0-.05l.03-.05a1.52 1.52 0 0 0 .21-.4c.01-.02 0-.03-.01-.02-.13.08-.24.18-.33.29-.03.04-.06.04-.1 0L12.1 6c-.03-.03-.03-.06 0-.1l.68-.62c.01-.02.03-.02.05 0 .05.03.1.08.13.14v.05a1.5 1.5 0 0 0-.23.4ZM5.63 5.97c.03 0 .07-.03.12-.08.04-.04.09-.04.14-.01l.02.02c.04.02.04.05.01.09l-.28.31H5.6l-.7-.66c-.03-.02-.03-.05 0-.07l.1-.1c.02-.02.04-.02.07 0l.51.49.04.01ZM5.36 6.7l-.03.04c-.03.03-.05.04-.09.02l-.6-.4c-.02-.02-.04-.01-.05 0l-.03.04c0 .02-.02.03-.04.03-.06 0-.1-.02-.13-.08V6.3a5.6 5.6 0 0 1 .27-.38c.06 0 .1.04.12.1v.04l-.02.04c-.02.02-.01.04 0 .05l.61.4c.04.02.04.05.02.09l-.03.05ZM13.6 6.29l.1.17c.02.02.02.04 0 .05-.02.06-.06.08-.13.08a.05.05 0 0 1-.04-.03l-.02-.03c-.01-.02-.03-.03-.05-.01l-.6.39c-.03.02-.06.01-.08-.02a1.33 1.33 0 0 1-.07-.1c-.02-.04 0-.07.03-.09l.6-.38c.02-.02.02-.04 0-.06l-.02-.03a.05.05 0 0 1 0-.05c.02-.06.06-.1.12-.1a5.06 5.06 0 0 1 .16.2Z" fill="#222547"/><path d="M10.27 7.94H7.92a.46.46 0 0 1-.24-.22c-.06-.11-.1-.25-.1-.4 0-.03 0-.03.02-.02l.02.01.02.02c.02.27.16.38.43.34l.04-.02.43-.48a.07.07 0 0 0 .02-.04c0-.07.04-.11.11-.15.06-.03.07-.01.04.05v.01a.08.08 0 0 0-.02.09c0 .03.03.04.06.05.27.03.53.03.8 0a.1.1 0 0 0 .07-.03.08.08 0 0 0 .02-.08.2.2 0 0 0-.04-.05v-.03l.02-.01c.04-.01.08 0 .11.03.02.02.03.05.03.1.01.06.03.1.06.13l.32.31c.04.04.08.07.12.08h.18c.07 0 .12-.02.16-.09a.27.27 0 0 0 .02-.19v-.08c.01-.03.04-.04.08-.03.04 0 .05.03.04.06-.02.1-.05.2-.1.31-.08.2-.2.3-.37.33Z" fill="#010101"/><path fill-rule="evenodd" d="M4.6 7.3a.05.05 0 0 1-.04-.04c0-.04.01-.07.03-.09.02-.01.04-.02.07-.01.1.02.2.06.3.12.03.02.05.01.07-.02l.04-.11c.01-.04 0-.07-.03-.09a.8.8 0 0 0-.45-.12c-.01 0-.03 0-.04-.02a.42.42 0 0 0-.15-.13.28.28 0 0 0-.19-.03c-.05.02-.11.08-.17.2-.05.09-.08.18-.1.26 0 .03 0 .05.03.06l.81.33c.07.03.11 0 .13-.06l.02-.05c.01-.06 0-.1-.06-.11L4.6 7.3Zm-.44-.22.01.03.21.08.03-.01v-.01a.12.12 0 0 0 0-.1.12.12 0 0 0-.07-.06h-.02a.12.12 0 0 0-.1 0 .12.12 0 0 0-.06.07Z" fill="#222547"/><path d="M12.7 10.04c0-.03 0-.04-.04-.04h-.9l-.02-.01.01-.24c0-.02.01-.04.03-.04h1.27c.02 0 .03 0 .02.02-.16.8-.48 1.5-.97 2.04a4.16 4.16 0 0 1-4.7 1.05 6.69 6.69 0 0 0-.22-.1 2.58 2.58 0 0 1-.4-.2 3.72 3.72 0 0 1-.96-.85 3.25 3.25 0 0 1-.43-.62c-.02-.03-.04-.04-.07-.03l-1.35.57c-.04.02-.05.04-.03.08A5.54 5.54 0 0 0 6 13.87c.44.25.88.45 1.33.6l.6.15a6.56 6.56 0 0 0 1.92.04 5.95 5.95 0 0 0 4-2.64 6.03 6.03 0 0 0 .86-3.62c0-.1-.05-.16-.15-.15l-2.76.08c-.02 0-.04-.01-.05-.03l-.09-.22c0-.03 0-.04.03-.04l3.17-.1c.05 0 .07.02.08.06a7.97 7.97 0 0 1-.02 2.05 6.02 6.02 0 0 1-11.37 1.5c-.01-.03 0-.05.02-.06l1.9-.8c.04-.01.06 0 .08.03l.03.05a3.26 3.26 0 0 0 1.08 1.3 3.75 3.75 0 0 0 3.45.64c.63-.19 1.17-.52 1.63-.98.48-.48.8-1.05.96-1.69ZM4.61 8.4c.06-.04.1-.1.1-.16l.03-.1a.25.25 0 0 0-.04-.2.24.24 0 0 0-.16-.1l-.5-.11a.24.24 0 0 0-.2.03c-.05.04-.09.1-.1.17l-.02.1c-.02.07 0 .13.03.19.04.06.1.1.16.1l.51.12c.07.01.13 0 .19-.04Zm-.63-.46.51.12c.05.01.07.05.06.1 0 .04-.05.07-.1.06l-.51-.12a.08.08 0 0 1-.06-.1c.01-.04.05-.07.1-.06ZM4.59 9.07h-.32c-.02 0-.04 0-.04-.03l-.03-.2a.1.1 0 0 0-.07-.09.6.6 0 0 0-.3-.04c-.13.02-.2.08-.2.2-.02.16-.02.29-.01.36 0 .03 0 .04.03.04l.94-.01c.03 0 .04-.02.04-.04V9.1c0-.02-.02-.04-.04-.04ZM4.05 9c0 .05-.06.09-.13.1-.08 0-.14-.04-.14-.09 0-.05.06-.09.13-.09.08 0 .14.03.14.08Z" fill="#222547"/><path d="M13.57 10.45c-.02.01-.02.02 0 .03l.61.19c.03 0 .04.03.03.06l-.08.2c-.01.04-.04.06-.07.04l-.91-.33c-.02-.01-.02-.02-.02-.04a9.17 9.17 0 0 0 .18-.54c.06-.12.12-.2.2-.27a13.08 13.08 0 0 0 .32-.26c.08-.05.13-.1.15-.12.06-.06.05-.1-.04-.1l-.5.03c-.03 0-.05-.02-.05-.06v-.23c0-.02 0-.05.03-.05h1c.04 0 .06.02.06.06l-.02.51c0 .1-.06.19-.15.26l-.1.07c-.28.22-.5.4-.64.55Z" fill="#1A2354"/><path d="M10.75 10.15v.26c0 .01 0 .02-.02.02l-1.1.01c-.02 0-.03 0-.03-.02l-.02-1.2.02-.01 1-.02.01.02.02.86v.02l.1.04c.01 0 .02 0 .02.02ZM8.5 9.26l.02 1.17c0 .03-.02.04-.04.04l-1.05.02c-.03 0-.04-.02-.04-.04v-.17c0-.02 0-.03.02-.04.05-.02.07-.07.07-.15v-.82H8.5Z" fill="#010101"/><path d="M10.75 9.8c0-.04.02-.06.05-.06l.4-.01a.1.1 0 0 1 .08.03c.02.03.03.06.03.1 0 .04 0 .07-.03.1a.1.1 0 0 1-.07.04h-.4c-.03.01-.05 0-.05-.04V9.8Z" fill="#222547"/><path d="M9.43 9.78h-.75a.03.03 0 0 0-.03.03v.2c0 .02.02.04.03.04l.75-.01c.02 0 .03-.01.03-.03v-.2a.03.03 0 0 0-.03-.03Z" fill="#1A2354"/><path d="m7.3 10.11-.44.01c-.02 0-.03-.01-.04-.03l-.05-.2s0-.02.02-.02h.51c.03 0 .05.01.05.04v.16c0 .03-.02.04-.04.04ZM11.14 10.14l.01.01v.02a.4.4 0 0 1-.07.16c-.03.04-.06.06-.1.06-.03-.01-.05-.04-.07-.1a.4.4 0 0 1 0-.17v-.02h.02l.21.04Z" fill="#222547"/><path d="m9.44 10.15-.74.01a.03.03 0 0 0-.03.03v.19c0 .02.02.03.03.03h.74c.02 0 .04-.02.04-.04v-.18a.03.03 0 0 0-.04-.04Z" fill="#1A2354"/><path d="M6.95 10.32c-.02-.01-.02-.03 0-.05a.2.2 0 0 1 .13-.05c.04 0 .08.02.1.05.03.04.04.07.03.12a.2.2 0 0 1-.08.11c-.02.02-.03.02-.05 0l-.13-.18Z" fill="#222547"/><path d="m10.93 10.54-.18.19h-.02l-3.33.1h-.02l-.2-.18v-.03c0-.01.01-.02.03-.02l3.7-.11s.02 0 .02.02v.03ZM9.1 11.46c-.53.02-1.01-.12-1.46-.42-.06-.04-.06-.06.01-.07a14.98 14.98 0 0 1 1.42-.06c.09 0 .21 0 .39-.02.47-.02.81-.02 1.03-.02.07 0 .08.03.02.07-.43.33-.9.5-1.42.52ZM5.26 12.6l.03-.02a.07.07 0 0 0 .05-.06c0-.03 0-.05-.02-.07a3.45 3.45 0 0 1-.44-.57.38.38 0 0 1-.05-.16l.01-.05a.67.67 0 0 1 .25-.2c.13-.07.23-.05.3.04.27.38.57.7.9.98.03.02.03.05.01.08l-.06.09c-.02.03-.04.03-.07.01a10.23 10.23 0 0 0-.3-.23 17.13 17.13 0 0 0-.43-.39.08.08 0 0 0-.06.05v.05c.1.18.26.36.5.56.05.05.09.09.1.12.02.05 0 .12-.04.2a.51.51 0 0 1-.13.15c-.1.08-.19.1-.27.07a.89.89 0 0 1-.26-.2 5.69 5.69 0 0 1-.9-1.11c-.03-.05-.02-.08.02-.1l.12-.04c.04-.02.07 0 .09.03.13.26.33.5.58.75.02.02.04.02.07.01Z" fill="#1A2354"/><path fill-rule="evenodd" d="M12.93 11.17a.2.2 0 0 1 .1.09c0 .01 0 .02-.02.02-.15.02-.26.07-.32.15-.24.32-.44.55-.6.72a.56.56 0 0 0-.15.22c-.01.07 0 .15.06.23l.17.19.1.1c.08.09.15.14.2.15.12.02.2 0 .28-.08.24-.22.47-.47.7-.76l.18-.35c.06-.12.03-.2-.07-.27l-.4-.22c-.03-.02-.04-.05-.02-.09l.07-.17c.03-.06.03-.1 0-.12a.34.34 0 0 0-.12-.07c-.05-.02-.1 0-.12.05l-.07.1c-.03.05-.02.09.03.11Zm.02 1.22.1-.11a.1.1 0 0 0 .02-.08.1.1 0 0 0-.04-.08l-.3-.22a.1.1 0 0 0-.07-.02.1.1 0 0 0-.07.05l-.06.08c-.03.05-.03.1.02.14l.26.24a.1.1 0 0 0 .07.03.1.1 0 0 0 .07-.03Z" fill="#1A2354"/><path d="M10.79 13.38c.03.04.07.05.1.04.12-.04.36-.15.72-.33.13-.07.24.03.34.28.05.13.02.22-.08.28a4.42 4.42 0 0 1-.89.43c-.28.1-.5.18-.68.2-.02 0-.03 0-.04-.02l-.04-.16c0-.03 0-.04.03-.05.3-.07.6-.17.9-.3.05-.02.08-.06.07-.12-.02-.07-.07-.1-.12-.07-.3.13-.57.2-.84.24-.05 0-.08-.02-.1-.07l-.08-.34c-.02-.07 0-.11.07-.14a4.52 4.52 0 0 0 1.25-.56c.05-.03.1-.02.14.02l.05.07c.05.05.04.09-.02.12l-.77.38c-.04.02-.05.06-.01.1ZM7.2 12.9c.12.07.21.12.22.1 0-.01-.08-.08-.19-.14-.1-.07-.2-.1-.2-.1-.02.02.07.08.18.15Z" fill="#1A2354"/><path fill-rule="evenodd" d="M6.87 13.8c.03.02.05.05.05.09v.14c0 .02.02.04.04.05l.71.26h.05a.04.04 0 0 0 .01-.05l-.13-1.05c0-.05-.04-.08-.09-.1h-.06a19.86 19.86 0 0 1-.52-.22.13.13 0 0 0-.14 0l-.87.52c-.06.03-.06.06 0 .1l.1.07c.05.03.1.03.16 0l.11-.06h.05l.53.25Zm-.25-.41.01.02.2.09c.02 0 .03 0 .03-.02.02-.05.03-.1.02-.14-.01-.05-.03-.08-.07-.1-.03 0-.07 0-.1.03a.24.24 0 0 0-.09.1v.02Z" fill="#1A2354"/><path d="m8.35 13.36.53.06c.04 0 .05.02.05.06l.02.96c0 .05-.02.07-.07.06l-.74-.08c-.04 0-.06-.03-.05-.07l.2-.95c0-.03.03-.05.06-.04Z" fill="#1A2354"/><path d="M8.2 8.02h.4v.42l.98-.02v-.4H10v.38H10l.64.34a9.24 9.24 0 0 1 .18.04c.17 0 .29 0 .36-.02.13-.05.17-.14.14-.3 0-.03 0-.04.04-.05.03 0 .06.01.08.03.02.01.02.04.01.08-.09.37-.35.57-.8.6l-.04.02a.22.22 0 0 1-.14.04L8.6 9.16l-1.26.01c-.26-.03-.44-.2-.54-.52l.01-.07a.07.07 0 0 1 .06-.03.1.1 0 0 1 .07.02c.01 0 .02.02.01.04-.04.08-.03.14.01.17.17.14.35.17.55.1a.96.96 0 0 0 .17-.09.9.9 0 0 1 .14-.06c.1-.04.17-.08.21-.13a.42.42 0 0 1 .13-.08 1.36 1.36 0 0 0 .04-.03v-.47Z" fill="#010101"/></svg>