<!-- by TradingView --><svg width="18" height="18" viewBox="0 0 18 18" xmlns="http://www.w3.org/2000/svg"><path fill="#F0F3FA" d="M0 0h18v18H0z"/><path d="M7.68 6.99c.06-.18.08-.35.06-.52-.08-.59.14-.96.65-1.14a.84.84 0 0 1 .37 0h.15c1.34.07 1.7-1.77.46-2.25-.67-.26-1.3.13-1.54.83-.02.05-.02.23 0 .55.02.5-.34.97-.86 1-.95-.26-1.73.5-1.53 1.48.02.13-.04.31-.2.55a.8.8 0 0 1-.8.37c-.46-.09-.9.05-1.19.43-.66.85.07 1.98 1.08 1.87.55-.07 1.23.34 1.12.97-.1.54.07.96.48 1.26.75.55 1.73 0 1.81-.88l-.02-.38c-.02-.3.1-.58.37-.81.2-.14.35-.2.45-.2l.36.04c.58.04 1.05-.27 1.23-.84.05-.15.04-.3.03-.46-.02-.24-.03-.47.14-.72.2-.28.54-.49.88-.42.12.02.25.02.37 0 .43-.04.87.14 1.08.52.15.27.02.55.02.83 0 .25.01.5-.14.77-.16.28-.47.5-.79.44-.67-.1-1.24.15-1.45.83-.02.1-.03.25-.02.48 0 .23-.03.44-.13.64a.91.91 0 0 1-.54.46c-.13.04-.28.02-.43 0a1.28 1.28 0 0 0-.4.01c-1.18.25-1.24 1.93-.1 2.25.65.19 1.34-.2 1.47-.87.01-.05 0-.21-.01-.48-.03-.4.14-.71.52-.95.2-.1.33-.13.42-.1.78.2 1.67-.45 1.49-1.32-.1-.5.23-.9.68-1.07a.8.8 0 0 1 .4-.02l.23.02a1.17 1.17 0 0 0 .93-1.86c-.27-.36-.6-.52-1-.48-.64.07-1.04-.15-1.2-.67-.04-.13-.03-.24-.01-.35l.01-.14c.1-1.37-1.8-1.76-2.27-.45-.06.16-.05.32-.04.49 0 .14.02.28-.02.41-.05.23-.17.42-.34.58-.26.2-.47.18-.69.16-.13-.02-.27-.03-.42 0-.7.14-1.05.74-.94 1.43.02.12-.05.35-.2.67-.18.23-.42.4-.7.3a1.12 1.12 0 0 0-.6-.03c-.4.07-.83-.19-1-.54-.04-.1-.06-.28-.05-.5v-.22c.01-.31.02-.6.2-.91a.9.9 0 0 1 .4-.3c.1-.03.24-.03.43 0 .6.08 1.05-.17 1.34-.76Z" fill="url(#arvkgx4h0)"/><defs><linearGradient id="arvkgx4h0" x1="12.4" y1="6.03" x2="5.71" y2="12.2" gradientUnits="userSpaceOnUse"><stop stop-color="#00A1E4"/><stop offset=".5" stop-color="#0069B5"/><stop offset="1" stop-color="#2A3695"/></linearGradient></defs></svg>