<!-- by TradingView --><svg width="18" height="18" viewBox="0 0 18 18" xmlns="http://www.w3.org/2000/svg"><path fill="#F0F3FA" d="M0 0h18v18H0z"/><path d="M11 6.67v-1.8L9.99 3.39c-.07-.13-.32-.39-.8-.39-.48 0-.8.33-.89.5l-.94 1.59v4.26h2.91v3.4l-.82 1.22c-.04.07-.14.21-.24.21-.1 0-.19-.14-.23-.2L7.36 11.2v1.73l1.03 1.63c.12.14.46.43.9.43.43 0 .74-.29.84-.43l.87-1.5V8.64H8V5.2l.93-1.13c.12-.14.32-.37.41-.21L11 6.66Zm.36-1.2v7.1c.03-.22.21-.67.73-1.13v-3.9l.55.45v3.05l.12-.07.6-.33V8.32l.55.46v1.56C14.58 9.97 15 9.64 15 9c0-.72-.85-1.18-1.54-1.54a6.44 6.44 0 0 1-.59-.34l-.27-.18c-.52-.34-.97-.64-1.24-1.46ZM7 5.7v1.9h-.96L4.47 8.65H7v3.76c-.06-.2-.28-.67-.72-1a7.36 7.36 0 0 0-.94-.51c-.52-.26-1.06-.53-1.32-.8h1.75l.5.28V9.35H3v-.58c.03-.17.18-.55.5-.66.31-.11 1.68-.87 2.33-1.23.28-.16.92-.6 1.17-1.19Z" fill="#EC2126"/></svg>