<!-- by TradingView --><svg width="18" height="18" viewBox="0 0 18 18" xmlns="http://www.w3.org/2000/svg"><path fill="#F0F3FA" d="M0 0h18v18H0z"/><path d="M9.31 7.21a2.4 2.4 0 0 0-.33 3.95A2.99 2.99 0 0 1 3.9 9a3 3 0 0 1 5.41-1.79Z" fill="#00612F"/><circle cx="3.45" cy="9.15" r=".15" fill="#F6351D"/><path d="M8.24 10.05c-.88.35-3.2.75-4.34.75-.68 0-.88-.38-.9-.75 0-.22 0-.45.3-.75-.15.6-.03.94.75 1.05C5.1 10.5 7.41 8.9 8.4 8.1c-.38.6-.26 1.65-.16 1.95Z" fill="#F7E017"/><path d="M4.2 10.2c-.6 0-.9-.45-.9-.75.15.15.18.6.9.6s3.4-1.65 4.5-2.4l-.15.3c-1.1.7-3.75 2.25-4.35 2.25Z" fill="#F7E017"/><path d="M15 8.65h-.48c0-.07 0-.12-.02-.17a.34.34 0 0 0-.2-.21.47.47 0 0 0-.17-.03.62.62 0 0 0-.34.09.76.76 0 0 0-.25.27c-.07.12-.12.26-.14.43a1 1 0 0 0 0 .4c.03.11.08.2.15.25.08.06.17.08.28.08a.61.61 0 0 0 .36-.1.56.56 0 0 0 .22-.29h.48a1.15 1.15 0 0 1-1.09.83.93.93 0 0 1-.52-.15.81.81 0 0 1-.32-.42c-.06-.18-.08-.4-.04-.66.04-.25.12-.46.24-.64a1.14 1.14 0 0 1 1.34-.48c.1.05.2.1.27.17.08.08.14.16.18.27.04.1.05.22.05.36ZM10.8 10.2l.36-2.4h1.44l-.06.42h-.98l-.09.57h.89l-.07.42h-.88l-.15.99h-.46ZM10.06 8.51c0-.1-.02-.17-.07-.22-.06-.05-.14-.08-.24-.08a.48.48 0 0 0-.2.04.32.32 0 0 0-.12.09.27.27 0 0 0-.06.13.2.2 0 0 0 0 .11l.07.08c.03.03.06.05.1.06l.12.04.18.05c.1.03.17.06.24.1.07.03.13.08.18.14.05.05.08.12.1.2.02.07.03.15.01.25a.8.8 0 0 1-.15.37.8.8 0 0 1-.32.24c-.13.06-.28.09-.45.09a.98.98 0 0 1-.44-.09.54.54 0 0 1-.25-.25.77.77 0 0 1-.05-.43h.43c0 .08 0 .15.03.2.03.05.08.1.13.12.06.02.13.04.2.04.08 0 .15-.02.2-.04.07-.02.12-.06.15-.1.04-.05.06-.1.07-.15.01-.05 0-.1-.02-.13a.27.27 0 0 0-.11-.1.92.92 0 0 0-.18-.06l-.23-.07A.77.77 0 0 1 9 8.92c-.1-.1-.12-.24-.1-.41a.77.77 0 0 1 .16-.37c.09-.11.2-.2.33-.25a1.02 1.02 0 0 1 .82 0c.1.06.19.14.24.25.05.1.06.23.04.37h-.43Z" fill="#00612F"/></svg>