<!-- by TradingView --><svg width="18" height="18" viewBox="0 0 18 18" xmlns="http://www.w3.org/2000/svg"><path fill="#F0F3FA" d="M0 0h18v18H0z"/><path d="M11.9 12.64c.27-.23.14-.64-.09-.85a5.84 5.84 0 0 0-2.3-1.32l-2.28-.75c-1.46-.5-2.46-1.68-2.18-3.21.34-1.88 2.47-2.93 4.33-2.35.58.18 1.08.6 1.64.84.54.22 1.2.07 1.26-.55l.03-.3c0-.06.04-.1.1-.1h.17c.05 0 .08.03.09.08.18 1.4-.21 3.06-1.84 3.44-1.58.38-2.5-.72-3.36-1.82-.26-.34-.71-.8-1.2-.56-1 .48-.02 1.3.52 1.61a8.3 8.3 0 0 0 1.94.8c2.03.56 5.15 1.73 4.04 4.4a3.44 3.44 0 0 1-3.73 1.95c-.71-.12-1.4-.51-2.04-.86-.53-.28-1.29-.36-1.54.3-.04.13-.03.28-.05.41 0 .03-.01.06-.03.08a.13.13 0 0 1-.09.03h-.1c-.08.01-.12-.02-.13-.1-.18-1.4.22-3.02 1.83-3.4 1.89-.45 2.75 1.14 3.86 2.17.39.36.77.38 1.14.06Z"/></svg>