<!-- by TradingView --><svg width="18" height="18" viewBox="0 0 18 18" xmlns="http://www.w3.org/2000/svg"><path fill="#F0F3FA" d="M0 0h18v18H0z"/><path d="M11.7 7.09h-.33a7.9 7.9 0 0 0-.34-1 4.8 4.8 0 0 0-.48-.7 2.12 2.12 0 0 0-1.64-.8c-.41 0-.75.13-1 .36-.25.24-.38.56-.38.97 0 .4.15.77.46 1.12.3.34.8.73 1.5 1.14a6.84 6.84 0 0 1 1.91 1.54 2.58 2.58 0 0 1 .39 2.68A2.64 2.64 0 0 1 9.27 14c-.27 0-.54-.03-.8-.08a3.2 3.2 0 0 1-.77-.25 2.8 2.8 0 0 0-.64-.17c-.1 0-.18.05-.25.14-.07.1-.11.21-.12.35h-.3L6 10.9h.3c.34.9.72 1.54 1.15 1.96.43.4.95.6 1.56.6.49 0 .88-.14 1.18-.44.3-.3.45-.68.45-1.16a1.9 1.9 0 0 0-.2-.87c-.15-.27-.4-.55-.74-.84a9.12 9.12 0 0 0-1.22-.86 7.3 7.3 0 0 1-.96-.64A3.69 3.69 0 0 1 6.87 8a2.54 2.54 0 0 1-.48-1.51 2.36 2.36 0 0 1 2.98-2.4c.24.05.49.13.74.23.12.06.23.1.33.12.1.03.2.04.26.04.22 0 .36-.16.42-.48h.28l.3 3.09Z" fill="#0367CF"/></svg>