<!-- by TradingView --><svg width="18" height="18" viewBox="0 0 18 18" xmlns="http://www.w3.org/2000/svg"><path fill="#F0F3FA" d="M0 0h18v18H0z"/><path d="M7.43 4.5a.33.33 0 0 1-.06-.2c0-.04.03-.05.06-.06l.07-.01.06-.05c.07-.15.2-.2.4-.17l.06.03.05.05c.16.31.32.58.38.94l.13.8c0 .04 0 .05-.04.06l-.52.1c-.03.01-.04 0-.05-.01-.19-.34-.42-.52-.52-.89a2.75 2.75 0 0 0-.12-.33c-.04-.1-.01-.17.08-.21.03-.01.04-.03.02-.05ZM11.46 4.08l.41.04c.04 0 .07.02.09.04.06.08.05.16-.01.25-.44.59-.81 1.03-1.13 1.34-.07.07-.1.16-.18.23-.02.02-.05.02-.08.01l-.52-.15c-.04-.02-.05-.04-.03-.07.09-.17.06-.34.17-.53.32-.58.43-.88.96-1.22l.04-.02h.06c.04 0 .09.02.13.05l.1.03ZM5.16 5.43c-.02-.06-.09-.08-.11-.15-.04-.07-.03-.13.01-.18.04-.04.11-.03.19-.03a.1.1 0 0 0 .07-.03c.05-.04.08-.05.15-.02.44.26.83.72 1.12.96.16.13.24.35.4.54l.01.02v.03l-.33.41C6.66 7 6.64 7 6.62 7c-.3-.08-.52-.3-.84-.46-.2-.1-.42-.27-.65-.52-.13-.14-.15-.32-.11-.5 0-.05.05-.07.12-.06.02 0 .03 0 .02-.03ZM13.4 6.22l.04.02c.03 0 .04.03.04.06 0 .04-.02.08-.05.11a4.32 4.32 0 0 1-1.63 1.22h-.02l-.28-.47c-.04-.06-.04-.12.01-.18.24-.27.54-.56.92-.87a.63.63 0 0 1 .22-.13c.2-.05.35-.16.56-.16a3 3 0 0 1 .34.03c.04 0 .05.07.02.1l-.16.18c-.03.02-.04.06-.01.09ZM10.68 8.28c-.02 0-.03 0-.02.02.21.5.25 1.04.1 1.6 0 .03-.02.04-.04.03-.36-.12-.68-.24-.97-.37-.24-.1-.42-.17-.55-.2-.26-.07-.47-.17-.75-.22-.6-.1-1.23-.12-1.86-.03-.03 0-.06-.03-.06-.07.05-.95.5-1.65 1.24-2.16a2.35 2.35 0 0 1 1.74-.29c.32.05.52.2.8.35.29.15.52.45.71.7.2.27.47.99.45 1.3-.02.2-.02.4 0 .57 0 .03 0 .06-.02.08-.07.13-.05.38-.11.53-.03.06-.06.07-.11.05l-.29-.12a.08.08 0 0 1-.04-.05.1.1 0 0 1 0-.06c.08-.33.12-.52.11-.58-.05-.3-.06-.95-.33-1.08ZM4.33 8.54v-.02l-.04-.01c-.1-.02-.15-.05-.17-.08L4.1 8.4v-.03l.16-.23.03-.02c.12-.04.33-.13.48-.12.4.01.8.1 1.2.26l.02.06-.06.5c0 .02-.02.04-.04.03l-.1-.02a.1.1 0 0 0-.06.01c-.2.1-.36.16-.47.16-.1 0-.44-.03-1-.11-.13-.02-.22-.1-.27-.25a.1.1 0 0 1 0-.05c.01-.04.05-.07.09-.05.08.04.15.05.22.04.02 0 .03-.02.02-.04ZM13.69 8.58c.07.01.14 0 .22-.04h.04c.02 0 .04.03.05.06a.1.1 0 0 1 0 .04c-.05.15-.14.23-.27.25-.56.08-.9.11-1 .11-.11 0-.27-.06-.47-.16a.1.1 0 0 0-.07 0h-.1c-.01.01-.03 0-.03-.03l-.06-.5c0-.02 0-.04.03-.05.4-.16.8-.25 1.2-.26.15 0 .36.08.47.12l.03.03.15.23.01.03v.03c-.03.03-.09.05-.18.07l-.03.01-.01.02c0 .02 0 .03.02.04Z" fill="#D6202B"/><path d="M12.33 11.72c.43.08.85 0 1.33-.09.1-.02.11 0 .04.06a.66.66 0 0 1-.22.1 5.48 5.48 0 0 1-1.73.2 7.6 7.6 0 0 1-1.47-.22c-.99-.24-2-.34-3.02-.34-1.19 0-2.3.56-3.45.57-.23 0-.46-.04-.7-.14-.07-.03-.1-.06-.1-.1L3 11.75c0-.14.1-.28.21-.38a5.56 5.56 0 0 1 2.65-1.25c.42-.06.65-.11.97-.11.76 0 1.35.05 1.78.13.26.05.72.17 1.37.36a5.85 5.85 0 0 0 2.08.37c.68 0 1.37-.1 2.05-.2l.49-.01c.15 0 .28.04.39.13v.05h-.02l-1.18.23c-.01 0-.02 0-.01.02v.02h.01l.6-.07c.05 0 .06.01.04.04l-.02.05c-.02.02 0 .04.03.03h.13c.07-.01.08 0 .03.05-.43.3-.8.35-1.43.43a11.2 11.2 0 0 1-.84.09Z" fill="#002F6A"/></svg>