<!-- by TradingView --><svg width="18" height="18" viewBox="0 0 18 18" xmlns="http://www.w3.org/2000/svg"><path fill="#F0F3FA" d="M0 0h18v18H0z"/><path d="M7.17 4.67c.04-.12-.03-.24.08-.34.12-.13.22-.22.32-.3a.22.22 0 0 1 .3.05c.09.1.15.29.2.38.28.59.31 1.25.4 1.83a.1.1 0 0 1-.1.12l-.46.08a.11.11 0 0 1-.1-.04 3.36 3.36 0 0 1-.67-1.47c-.03-.14 0-.2.03-.31ZM11.63 4.82a26.36 26.36 0 0 1-1.16 1.8h-.04L10 6.5c-.04-.01-.05-.04-.05-.07 0-.22.02-.36.04-.43.18-.5.36-.9.53-1.22.1-.17.23-.32.41-.45a.1.1 0 0 1 .1-.01l.56.16c.04.01.06.04.07.08a.4.4 0 0 1-.04.26ZM4.35 6c-.05-.08-.07-.15-.05-.22a.1.1 0 0 1 .06-.07c.27-.13.51-.1.73.07.61.48 1.1.86 1.54 1.47.02.02.01.05 0 .07l-.38.37c-.07.07-.15.08-.24.03a16.6 16.6 0 0 0-.8-.43c-.38-.2-1.2-.67-.86-1.2a.07.07 0 0 0 0-.09ZM13.83 6.51l-.03.19a.26.26 0 0 1-.08.14c-.53.46-1.13.8-1.8 1.02a.07.07 0 0 1-.07-.02l-.34-.43a.07.07 0 0 1 0-.1c.3-.29.65-.54 1.04-.77a2 2 0 0 1 1.38-.26.06.06 0 0 1 .01.08.3.3 0 0 1-.07.07.1.1 0 0 0-.04.08ZM10.95 8.72a.03.03 0 0 0-.01.02v.02a2.44 2.44 0 0 1 .11 1.73.08.08 0 0 1-.06.03h-.03c-.82-.32-1.36-.51-1.61-.6a6.96 6.96 0 0 0-3.17-.3.1.1 0 0 1-.07-.11c.1-.93.53-1.67 1.3-2.21a2.9 2.9 0 0 1 2.36-.35 2.81 2.81 0 0 1 2.07 2.32c.05.35.03.8-.07 1.35-.02.12-.1.17-.21.13l-.22-.06c-.12-.04-.16-.11-.12-.23.17-.49.14-1.27-.22-1.72-.02-.02-.03-.02-.05-.02ZM3.39 9.05v-.03a.05.05 0 0 0-.03-.03l-.17-.07c-.05-.03-.07-.07-.03-.12.23-.36.62-.41 1.02-.4a5.65 5.65 0 0 1 1.53.32l.02.07-.1.52c0 .03-.03.05-.06.05-.37.02-.65.2-1.1.17a9.66 9.66 0 0 1-1.2-.14c-.11-.04-.21-.13-.28-.27a.07.07 0 0 1 .08-.1l.29.05c.01 0 .02 0 .03-.02ZM14.68 9.17l.29-.05a.08.08 0 0 1 .07.03.07.07 0 0 1 0 .08.47.47 0 0 1-.28.26c-.13.04-.53.09-1.2.14-.45.04-.73-.16-1.1-.18-.03 0-.05-.02-.06-.05l-.1-.52c0-.02 0-.05.02-.06a5.65 5.65 0 0 1 1.54-.31c.4-.02.8.04 1.02.4.04.05.02.09-.04.12l-.16.07a.05.05 0 0 0-.03.02v.03c0 .02.02.03.03.02Z" fill="#D0242B"/><path d="M13.04 12.53c-.23.04-.22.07 0 .09a3.64 3.64 0 0 0 1.45-.18h.01v.03l.01.03a.07.07 0 0 1-.04.08 4.93 4.93 0 0 1-3.06.3 7.9 7.9 0 0 1-1.04-.25 11.4 11.4 0 0 0-5.24-.4c-.34.06-.73.17-1.17.33-.56.2-1.28.3-1.83-.02-.29-.17-.03-.56.13-.74a5.05 5.05 0 0 1 1.8-1.24 7.23 7.23 0 0 1 5.18-.14c.67.23 1.54.6 2.2.73.82.16 1.61.17 2.38.03.8-.14 1.38-.2 1.75-.21.14 0 .26.05.35.14l.02.02c.1.1.08.15-.05.17a4.6 4.6 0 0 0-1.3.31c-.04.05-.04.06.03.05l.62-.1c.06 0 .09.02.09.07v.05c0 .03.02.05.05.05l.12-.01c.1-.01.12.02.03.1-.3.25-.65.44-1.05.5l-.46.09c-.27.06-.72.07-.98.12Z" fill="#032F6A"/></svg>