<!-- by TradingView --><svg width="18" height="18" viewBox="0 0 18 18" xmlns="http://www.w3.org/2000/svg"><path fill="#F0F3FA" d="M0 0h18v18H0z"/><path fill-rule="evenodd" d="m9.57 3.26-.33.32 5.19 5.18.35-.35.22.26-.33.33.33.33-.22.26-.35-.35-5.19 5.18.33.32-.23.26-.34-.34-.34.34-.23-.26.33-.32-5.19-5.18-.35.35L3 9.33 3.33 9 3 8.67l.22-.26.35.35 5.19-5.18-.33-.32.23-.26.34.34.34-.34.23.26ZM9 3.82 14.19 9 9 14.18 3.81 9 9 3.82ZM7.2 7.33c.36 0 .8.27.84.67h.29c-.02-.63-.56-1-1.12-1-.58 0-1.05.42-1.05 1.08 0 .54.32.86.77 1.01l.16.05c.19.07.38.13.56.22.73.37.15 1.3-.47 1.3-.37 0-.84-.23-.87-.66H6c.04.68.57 1 1.18 1 1.15 0 1.64-1.47.54-1.96-.16-.07-.34-.13-.51-.18l-.1-.03c-.3-.1-.63-.4-.63-.77 0-.42.36-.73.72-.73ZM9 7v4h.35V9H11v-.33H9.35V7.33H11V7H9Z"/></svg>