<!-- by TradingView --><svg width="18" height="18" viewBox="0 0 18 18" xmlns="http://www.w3.org/2000/svg"><path fill="#EC2205" d="M0 0h18v18H0z"/><path d="M12.57 6.04 15 11h-1.48l-.02-.02-.58-1.16a.07.07 0 0 0-.02-.03.06.06 0 0 0-.04 0h-2.62l-.01.02-.57 1.1-.03.03-.02.03-.02.03H8.04v-.02l-.01-.02-.01-.02-.01-.02v-.05c0-.02-.02-.03-.03-.03-.3.06-.59.1-.89.11-.7.03-1.52.04-2.46.01-.34 0-.64-.04-.9-.11-.64-.17-.75-.84-.7-1.48 0-.03 0-.04.03-.04h1.37a.03.03 0 0 1 .02 0v.01a.04.04 0 0 1 .02.03c-.02.3.11.52.38.54.67.04 1.34.04 2.04 0 .3-.01.6-.12.55-.51-.04-.32-.34-.36-.58-.36-.96.01-1.78 0-2.45-.02-.6-.01-1.28-.15-1.38-.97-.09-.76-.03-1.63.74-1.84.43-.12.77-.2 1.02-.21h2.26c.94.02 1.7.2 1.65 1.5 0 .03-.01.05-.04.05H7.32c-.03 0-.04-.02-.05-.05-.04-.37-.34-.42-.62-.43-.64-.02-1.27 0-1.9.06a.34.34 0 0 0-.28.21c-.14.43.22.59.53.59.77 0 1.58 0 2.41.02.8.02 1.4.18 1.47 1.23 0 .05.02.05.05 0l1.66-3.14c.01-.03.03-.04.05-.04h1.88c.02 0 .04.01.05.04Zm-.99 1.22a.03.03 0 0 0-.01-.01.02.02 0 0 0-.02 0h-.01l-.64 1.21v.03h.01l.01.01h1.32c.02 0 .03 0 .03-.02v-.02l-.69-1.2ZM8.61 13h.78c1.34-.03 2.65-.23 3.92-.6a6.8 6.8 0 0 0 2.63-1.35c.09-.09.08-.1-.03-.03-.69.41-1.48.73-2.38.95a19.6 19.6 0 0 1-7.64.3 10.27 10.27 0 0 1-3.87-1.29L2 11v.02c.5.42 1.07.76 1.72 1.03 1.54.63 3.21.9 4.89.95Z" fill="#fff"/></svg>