<!-- by TradingView --><svg xmlns="http://www.w3.org/2000/svg" width="18" height="18" viewBox="0 0 18 18"><path fill="#F0F3FA" d="M0 0h18v18H0z"/><path d="M14.05 6c.34 0 .7-.99.1-1H9.12c-.3 0-.5.38-.41.73l.8 2.89c.03.1-.03.2-.12.2h-.42c-.17 0-.29.22-.22.42l.54 1.57-.44 1.67c-.04.15-.03.46.32.51.35.05.5-.25.54-.42l.63-2.26c.04-.15.17-.25.3-.23l.68.1c.15.02.3-.09.35-.26.06-.2-.02-.42-.18-.51l-.6-.32c-.1-.06-.15-.2-.11-.33l.4-1.48c.05-.2-.03-.42-.2-.5-.13-.06-.3 0-.38.14l-.36.45c-.05.1-.18.08-.22-.03l-.32-1c-.07-.18.04-.34.2-.34h4.16zm-9.21 5.48a.93.93 0 0 0-.26-.06c-.2 0-.85.9-.46 1.2.4.3 1.02.61 1.87.14.86-.47.98-1.56.82-2.37a14 14 0 0 0-.51-1.77c-.06-.15-.14-.5.05-.73L7.9 5.7c.08-.13.18-.42 0-.58-.23-.19-.43-.12-.59 0-.12.1-1.24 1.5-1.79 2.18-.2.2-.56.75-.4 1.39.15.64.38 1.5.47 1.86.1.27.22.85-.15.98-.21.07-.42 0-.6-.05z"/></svg>