<!-- by TradingView --><svg width="18" height="18" viewBox="0 0 18 18" xmlns="http://www.w3.org/2000/svg"><path fill="#F0F3FA" d="M0 0h18v18H0z"/><path d="m6.51 4.65-.84.8c1.4.41 2.58 1.79 3 2.42V6.4A5.4 5.4 0 0 0 6.5 4.65Zm-1.26 1.6-.58 1.06L7.75 9.1c.26.19.82.73.92 1.35V9.2c0-.25-.16-.85-.84-1.3-.68-.46-2-1.28-2.58-1.63ZM4.19 8.53c-.07.3-.21.93-.19 1.08.03.15.3.3.43.37l2.98 1.72c.12.07.36.3.36.7 0 .4-.96 1.24-1.44 1.61h2.34v-2.28c0-.3-.16-.58-.43-.74L4.2 8.52Zm9.62 0c.07.3.21.93.19 1.08-.03.15-.3.3-.43.37l-2.98 1.72a.8.8 0 0 0-.36.7c0 .4.96 1.24 1.44 1.61H9.33v-2.28c0-.3.16-.58.43-.74l4.05-2.46Zm-.48-1.2-.58-1.06c-.57.35-1.9 1.17-2.58 1.63-.68.45-.84 1.05-.84 1.3v1.26c.1-.62.66-1.16.92-1.35l3.08-1.79Zm-1-1.87-.84-.8A5.4 5.4 0 0 0 9.33 6.4v1.47c.42-.63 1.6-2 3-2.42Z" fill="#008752"/><path d="M10.23 4H7.82c.3.26.95.94 1.18 1.6.35-.68.97-1.35 1.23-1.6Z" fill="#CFE4A7"/></svg>