<!-- by TradingView --><svg width="18" height="18" viewBox="0 0 18 18" xmlns="http://www.w3.org/2000/svg"><path fill="#F0F3FA" d="M0 0h18v18H0z"/><path d="M6.76 12h-.19l1.29-6h.18l-1.28 6Z" fill="#020303"/><path d="M6.76 12h.53l1.3-6h-.55l-1.28 6Z" fill="#ED2224"/><path d="M8.54 12H7.29l1.29-6h1.25l-1.3 6Z" fill="#A41D21"/><path d="M12.11 12h-1.24l1.29-6h1.24l-1.29 6Z" fill="#4E4E4E"/><path d="M9.97 12H8.63l1.3-6h1.33l-1.29 6Z" fill="#020303"/><path d="M10.81 12h-.7l1.28-6h.71l-1.29 6ZM13.71 12h-.76l1.29-6H15l-1.29 6ZM6.43 12H3l1.29-6h3.43l-1.29 6Z" fill="#ED2224"/></svg>