<!-- by TradingView --><svg width="18" height="18" viewBox="0 0 18 18" xmlns="http://www.w3.org/2000/svg"><path fill="#F0F3FA" d="M0 0h18v18H0z"/><path fill-rule="evenodd" d="M10.66 11.75c.44-.7.71-1.67.71-2.75s-.27-2.06-.7-2.75c-.44-.7-1.03-1.12-1.67-1.12-.64 0-1.23.42-1.66 1.12-.44.7-.71 1.67-.71 2.75s.27 2.06.7 2.75c.44.7 1.03 1.12 1.67 1.12.64 0 1.23-.42 1.66-1.12ZM9 13c1.38 0 2.5-1.8 2.5-4S10.38 5 9 5 6.5 6.8 6.5 9s1.12 4 2.5 4Z" fill="#FB1B3F"/><path d="M8.24 8.74a.33.33 0 0 0-.07.22H8v-.78h.2a.85.85 0 0 0 .85.66c.27 0 .45-.08.54-.23a.35.35 0 0 0 .05-.18.5.5 0 0 0-.14-.35c-.1-.1-.26-.2-.5-.28-.23-.09-.4-.17-.52-.24a.83.83 0 0 1-.46-.79c0-.23.1-.41.29-.56.19-.14.42-.21.7-.21.15 0 .28.02.4.06.1.03.18.08.24.13a.3.3 0 0 0 .05-.15h.17v.7H9.7a.6.6 0 0 0-.23-.43.74.74 0 0 0-.46-.15.76.76 0 0 0-.44.11.35.35 0 0 0-.16.3c0 .13.05.25.15.34.1.1.32.22.64.37.3.12.51.25.63.38s.18.29.18.48c0 .27-.1.48-.28.63a1 1 0 0 1-.66.23c-.26 0-.48-.05-.68-.16a.74.74 0 0 1-.14-.1ZM10 11.06a.96.96 0 0 1-.78.45c-.56 0-1.02-.55-1.02-1.22 0-.1.01-.2.03-.29a1.4 1.4 0 0 0-.23.78c0 .67.45 1.22 1.01 1.22.48 0 .88-.4.99-.94Z" fill="#FB1B3F"/><circle cx="5.5" cy="7.5" r=".5" fill="#37A857"/><circle cx="12.5" cy="7.5" r=".5" fill="#37A857"/><path d="M11.93 9c0 2.91-1.53 4.74-2.93 4.74-1.4 0-2.93-1.83-2.93-4.74H5c0 3.31 1.8 6 4 6s4-2.69 4-6h-1.07Zm-.45-2.53h1.15C11.99 4.42 10.6 3 9 3S6 4.42 5.37 6.47h1.15c.56-1.4 1.55-2.2 2.48-2.2.93 0 1.92.8 2.48 2.2Z" fill="#37A857"/></svg>