<!-- by TradingView --><svg width="18" height="18" viewBox="0 0 18 18" xmlns="http://www.w3.org/2000/svg"><path fill="#F0F3FA" d="M0 0h18v18H0z"/><path d="M9.02 6h-.04a9.28 9.28 0 0 1-.6.02c-.65.02-1.3.08-1.93.2-.73.11-1.47.3-2.16.57-.54.21-1.05.47-1.48.82-.55.45-1 1.1-.73 1.84.18.5.62.9 1.06 1.18.43.28.9.5 1.37.66.39.14.78.26 1.18.35a14.16 14.16 0 0 0 4.12.34 14.15 14.15 0 0 0 3.68-.69 6.5 6.5 0 0 0 1.37-.66c.44-.29.88-.68 1.06-1.18.27-.74-.18-1.4-.73-1.84a5.47 5.47 0 0 0-1.48-.82c-.69-.27-1.43-.46-2.16-.58A14.97 14.97 0 0 0 9.02 6Zm.96 3.96L9.9 8.91l-.26.6-.2.5h-.36L8.93 8H8.5L8.1 9.05h-.02L8.02 8h-.39a191.75 191.75 0 0 1-.75 2.1 8.96 8.96 0 0 1-1.62.5 5.3 5.3 0 0 1-1.12.07h-.08l-.07-.01a.3.3 0 0 1-.05 0l-.03-.01h-.04l-.07-.02a1.76 1.76 0 0 1-.46-.14.94.94 0 0 1-.3-.21.63.63 0 0 1-.16-.36.88.88 0 0 1 .03-.37c.03-.12.08-.25.15-.38.12-.23.28-.44.47-.65.3-.33.62-.61.98-.87A8.14 8.14 0 0 1 8.12 6.2a1.5 1.5 0 0 0 .13-.01 2.82 2.82 0 0 1 .93.06c.34.08.67.28.76.64a.8.8 0 0 1 .02.25 1.87 1.87 0 0 1-.05.24 2.53 2.53 0 0 1-.5.92v.8c0 .01 0 .01 0 0l.48-1.05A.4.4 0 0 0 9.9 8V8h.31v.01l.06 1.1.07-.17.39-.93V8h.4v.03l-.75 1.96-.02.01H10v-.04Zm2.95.04h-.44l.17-.43-.15-.15h.22V9.4L13.3 8h.45l.15 2h-.44l-.04-.27-.4-.02-.09.29Zm-1.04-.02.12-.79h-.47l-.17.8V10H11l.08-.43a24.06 24.06 0 0 0 .09-.49v-.02l-.24-.2c-.01 0 0 0 0 0h.27v-.01l.13-.84.02-.01h.4l-.01.01-.13.83c0 .01 0 .02.02.02l.4.01.15-.85a.01.01 0 0 1 .01 0L12.6 8 12.26 10V10h-.37v-.02Zm-4.2-1.44h.02l.04 1.13-.39.2v.01l.34-1.33Zm.75.42a2.86 2.86 0 0 1 .12-.4v.01l.01.53v.01a2.56 2.56 0 0 1-.21.15l.08-.3ZM6.25 8l-.58 1.36h-.21v.01c-.04-.15-.16-.26-.3-.35a31 31 0 0 0-.59-.37c-.06-.04-.16-.15-.12-.22.05-.08.28-.08.39-.08h.78l.01-.01.06-.35H4.6c-.27 0-.48.13-.53.4-.05.25.13.45.33.57a9.12 9.12 0 0 1 .58.34c.07.06.11.18.06.26-.06.1-.18.1-.3.09H3.89l-.05.33.02.01h1.01c.08 0 .15-.01.23-.03.2-.05.34-.25.37-.45a.33.33 0 0 0 0-.13l.14.12v.01l-.21.47V10h.44l.12-.35h.07a10.65 10.65 0 0 1 .37.01l.03.33V10h.42L6.7 8h-.44v.01Zm.13.64.02.73h-.32v-.01l.29-.72a.01.01 0 0 1 .01 0Zm6.98.17-.01.04-.21.54.27.02v-.74a.45.45 0 0 0-.03.08l-.02.06Z" fill="#29519D"/></svg>