<!-- by TradingView --><svg width="18" height="18" viewBox="0 0 18 18" xmlns="http://www.w3.org/2000/svg"><path fill="#F0F3FA" d="M0 0h18v18H0z"/><path d="M12.69 8.08a.07.07 0 0 1-.03.02c-.02 0-.03.01-.03.03v.06c.12.2.13.41.03.62a4.4 4.4 0 0 1-1.32 1.47c-1.3.96-4.38 3-6.31 2.3.9.04 1.88-.33 2.72-.69.9-.39 1.73-.89 2.49-1.51.3-.25.55-.53.8-.83.13-.16.24-.36.33-.58.35-.92-1.82-.47-2-.43-.2.03-.4.11-.6.13-.14.01-.14-.01-.02-.08.8-.4 1.65-.66 2.54-.8.33-.04.62-.04.88 0 .18.03.36.13.52.29Z" fill="#54B6EC"/><path d="M12.69 8.08c.36.44.59.95.7 1.55.31 1.62-.94 3-2.11 3.63-.8.42-1.67.67-2.64.73a5.76 5.76 0 0 1-2.83-.57 4.3 4.3 0 0 1-1.08-.8c-.06-.1-.04-.13.06-.09 1.78.58 5.12-1.2 6.55-2.25a4.4 4.4 0 0 0 1.32-1.47c.1-.2.1-.41-.02-.62a.12.12 0 0 1-.01-.06c0-.02 0-.03.03-.03l.03-.02Z" fill="#325189"/><path d="M4.86 9.92a.08.08 0 0 1 .04-.02c.02 0 .03-.01.03-.03a.1.1 0 0 0-.01-.06.57.57 0 0 1-.03-.62c.32-.59.98-1.12 1.52-1.47 1.48-.96 5-3 7.2-2.3a8.33 8.33 0 0 0-3.1.69C9.48 6.5 8.53 7 7.66 7.62c-.35.25-.63.53-.92.83-.15.16-.27.36-.37.58-.4.92 2.07.47 2.29.43.23-.03.46-.11.68-.13.16-.01.16.01.02.08-.91.4-1.88.66-2.9.8-.37.04-.71.04-1 0a1.16 1.16 0 0 1-.6-.29Z" fill="#54B6EC"/><path d="M4.86 9.92c-.41-.44-.68-.95-.8-1.55-.36-1.62 1.07-3 2.41-3.63.9-.42 1.91-.67 3.02-.73a7.4 7.4 0 0 1 3.24.57 4.98 4.98 0 0 1 1.23.8c.07.1.05.13-.07.09-2.04-.58-5.85 1.2-7.48 2.25-.54.35-1.2.88-1.52 1.47-.11.2-.1.41.03.62l.01.06c0 .02-.01.03-.03.03l-.04.02Z" fill="#325189"/></svg>