<!-- by TradingView --><svg width="18" height="18" viewBox="0 0 18 18" xmlns="http://www.w3.org/2000/svg"><path fill="#F0F3FA" d="M0 0h18v18H0z"/><path d="M12.24 8.69a7 7 0 0 0-1.3-.11h-.2c-.63-.04-1.72-.04-1.76-.04 0 0-1.21 0-1.8-.04h-.17c-.5 0-.66-.03-1-.07-.42-.11-.54-.19-.67-.33-.16-.19-.29-.37-.29-.85 0-.52.17-.74.42-.96.25-.18.75-.3 1.38-.33.75-.04 1.96-.04 1.96-.04.63 0 2.39.04 2.89.11.58.08.75.22.83.33.09.11.17.3.17.41h1.05V6.7c0-.04-.09-.52-.38-.85-.3-.37-.8-.6-1.5-.7C11.23 5.04 9.06 5 8.8 5c-.04 0-1.25 0-2.05.04-.83.07-1.5.25-1.92.55-.58.44-.8.92-.84 1.62-.04.74.21 1.14.5 1.44.38.4.8.55 1.22.63.42.07.7.1 1.21.1h.17c.63.04 1.8.04 1.84.04 0 0 1.13 0 1.71.04h.25c.46 0 .8.04 1.09.07.33.08.58.23.63.26l.04.04a1 1 0 0 1 .3.77c0 .56-.13.78-.43.96-.25.19-.8.33-1.38.37-.75.04-2.09.04-2.13.04-.67 0-2.47-.04-2.97-.11-.41-.08-.7-.19-.83-.37a.72.72 0 0 1-.17-.4V11h-1v.15c0 .18.08.59.37.96.3.36.8.62 1.5.73.63.11 2.9.15 3.14.15.09 0 1.38 0 2.18-.04a4.16 4.16 0 0 0 2-.55c.59-.48.76-1 .76-1.62.06-1.08-.76-1.9-1.76-2.1Z"/></svg>