<!-- by TradingView --><svg width="18" height="18" viewBox="0 0 18 18" xmlns="http://www.w3.org/2000/svg"><path fill="#F0F3FA" d="M0 0h18v18H0z"/><path d="M10.49 8.07a2.33 2.33 0 0 0-.08-3.65c-1.2-.89-2.84-.3-3.3 1.15-.1.3-.1.61-.1.93-.01.44-.02.89-.3 1.3-.27.4-.67.56-1.07.72-.28.1-.56.22-.8.41a2.33 2.33 0 0 0 .08 3.65c1.2.89 2.84.3 3.3-1.15.1-.3.1-.61.1-.92.01-.45.02-.9.3-1.3.27-.42.67-.57 1.07-.73.28-.1.56-.22.8-.41ZM14 10.83c0 1.2-.94 2.17-2.1 2.17-1.15 0-2.1-.97-2.1-2.17s.95-2.16 2.1-2.16c1.16 0 2.1.97 2.1 2.16Z" fill="#02B7AF"/></svg>