<!-- by TradingView --><svg width="18" height="18" viewBox="0 0 18 18" xmlns="http://www.w3.org/2000/svg"><path fill="#F0F3FA" d="M0 0h18v18H0z"/><path fill-rule="evenodd" d="M9 12c3.31 0 6-1.34 6-3s-2.69-3-6-3-6 1.34-6 3 2.69 3 6 3Zm0-.6c2.98 0 5.4-1.07 5.4-2.4 0-1.33-2.42-2.4-5.4-2.4-2.98 0-5.4 1.07-5.4 2.4 0 1.33 2.42 2.4 5.4 2.4Z" fill="#C2A535"/><path d="M13 9c0 1.23.58 2.32 1.47 3l.53-.5A2.98 2.98 0 0 1 13.62 9c0-1.05.55-1.97 1.38-2.5l-.53-.5A3.76 3.76 0 0 0 13 9ZM5 9c0 1.23-.58 2.32-1.47 3L3 11.5a2.99 2.99 0 0 0 0-5l.53-.5C4.43 6.68 5 7.77 5 9Z" fill="#C2A535"/><path fill="#C2A535" fill-opacity=".5" d="M6 8h6v2H6z"/></svg>