<!-- by TradingView --><svg width="18" height="18" viewBox="0 0 18 18" xmlns="http://www.w3.org/2000/svg"><path fill="#F0F3FA" d="M0 0h18v18H0z"/><path d="M6.51 5.85c-.9.9-.97 1.88-.47 2.92v.06c0 .02-.02.03-.04.04l-.05.03a2.07 2.07 0 0 1-2.05-.15A2.05 2.05 0 0 1 5.27 5c.33.02.66.12.98.31.18.11.47.35.27.54Zm4.98.05c.9.89.97 1.88.47 2.92v.06l.04.04.05.03a2.07 2.07 0 0 0 2.05-.15c1.62-1.1.99-3.86-1.36-3.75a2.1 2.1 0 0 0-.98.31c-.18.1-.47.35-.27.54Zm-1.9 7.97v-2.45c0-.45.16-.9.5-1.25.36-.38.77-.76 1.22-1.14a2 2 0 0 0 .7-1.29c.03-.16.02-.33-.02-.52-.28-1.2-1.57-1.99-2.9-2.05-1.1-.05-2.45.57-2.9 1.51-.12.26-.2.5-.21.74-.06.73.3 1.4.94 1.9.15.11.33.2.5.29l.09.04c.48.26.8.58.97 1.05.06.15.08.4.08.72v2.38c0 .12.11.2.26.2h.63c.04 0 .08-.02.1-.05a.11.11 0 0 0 .05-.08Zm-1.93-1.8a.05.05 0 0 0-.02-.03.07.07 0 0 0-.07 0 .06.06 0 0 0-.02.02c-.04.06-.1.11-.15.16-.05.05-.1.1-.13.15-.42.64-1.32 1.44-2.23.8-.88-.6-1.36-1.67-.97-2.58.39-.9 1.82-1.34 2.89-.96 1.03.38 1.34 1.03 1.33 1.9v2.3c0 .11-.07.17-.2.17h-.21c-.12 0-.18-.05-.18-.15v-1.42c.01-.13.01-.25-.04-.37Zm2.83-.03a.05.05 0 0 0-.02.02.86.86 0 0 0-.06.37v1.42c0 .1-.04.15-.16.15h-.21c-.13 0-.2-.06-.2-.16l-.01-2.31c-.01-.87.3-1.52 1.34-1.9 1.07-.38 2.5.06 2.9.96.38.91-.1 1.97-.97 2.58-.92.64-1.82-.16-2.24-.8a.88.88 0 0 0-.13-.15l-.14-.16-.03-.03a.07.07 0 0 0-.07 0Z" fill="#E3000F"/></svg>