<!-- by TradingView --><svg width="18" height="18" viewBox="0 0 18 18" xmlns="http://www.w3.org/2000/svg"><path fill="#F0F3FA" d="M0 0h18v18H0z"/><path fill-rule="evenodd" d="M3 11v1h12v-1h-1.41c-.11.01-.25.02-.3-.05l-.08-.11c-.15-.23-.56-.67-1.22-1.68l-.01-.02v-.02l1.95-2.07a.15.15 0 0 1 .06-.04.18.18 0 0 1 .07-.01H15v-.97L14.99 6 14.96 6H6.21c-.46 0-.86.02-1.18.04-.2.02-.4.05-.57.1-.53.12-.92.49-1.09.92-.23.59.2 1.13.76 1.45a24.8 24.8 0 0 0 3.13 1.55c.3.13.52.25.66.36.3.23.16.58-.28.58H3Zm8-3.98v1.76l.01.02h.02v-.01l1.7-1.76V7h-.01L12.7 7H11v.02ZM9.46 11h-.02l-.02-.02v-.03c.15-.44.03-.63-.4-.92-.18-.13-.4-.25-.63-.38a41.9 41.9 0 0 0-3.34-1.58c-.34-.16-.81-.4-.53-.74.13-.17.34-.27.61-.29.4-.03.83-.04 1.29-.04h3.53c.03 0 .05.02.05.04v3.93l-.02.02-.02.01h-.5Zm2.7-.02-1.13-1.54H11V11h.01V11h1.14l.02-.01v-.01Z" fill="#0175BF"/></svg>