<!-- by TradingView --><svg width="18" height="18" viewBox="0 0 18 18" xmlns="http://www.w3.org/2000/svg"><path fill="#F0F3FA" d="M0 0h18v18H0z"/><path opacity=".3" d="M5.66 13.93 4 11.2c.79.34 2.08-.08 2.96-.58.7-.4 1.16-.82 1.3-.98l-1.3-2.32c.26.23.54.33 1.06.4.42.06.62.22.66.3l1.61 2.7c.1.34-.02 1.27-1.33 2.32a4.04 4.04 0 0 1-3.3.88Z"/><path opacity=".3" d="M11.39 4.07 13 6.8c-.76-.34-2.01.08-2.87.58a5.2 5.2 0 0 0-1.26.98l1.38 2.28c-.25-.22-.64-.3-1.15-.36-.4-.06-.6-.22-.64-.3l-1.55-2.7C6.8 6.92 6.93 6 8.2 4.94a3.82 3.82 0 0 1 3.19-.88Z"/></svg>