<!-- by TradingView --><svg width="18" height="18" viewBox="0 0 18 18" xmlns="http://www.w3.org/2000/svg"><path fill="#F0F3FA" d="M0 0h18v18H0z"/><path d="M4.18 10.1c0-.63 1.87-1.12 4.18-1.12l.64.01c1.83-.12 3.2-.56 3.2-1.08 0-.31-.5-.6-1.28-.8C10.32 7.03 9.67 7 9 7c-3.31 0-6 .9-6 2 0 .45.45.86 1.2 1.2a.33.33 0 0 1-.02-.1Z" fill="url(#a)"/><path d="m13.86 7.83.02.08c0 .62-1.88 1.11-4.18 1.11l-.65-.01c-1.83.12-3.19.56-3.19 1.08 0 .32.51.61 1.32.82.58.06 1.19.09 1.82.09 3.32 0 6-.9 6-2 0-.44-.42-.84-1.14-1.17Z" fill="url(#b)"/><path d="m9.7 9.02-.65-.01c-1.65.1-2.92.47-3.15.93.7.34 1.76.55 2.95.55 2.1 0 3.8-.67 3.8-1.49 0-.1-.03-.2-.07-.29-.75.2-1.77.31-2.89.31Z" fill="url(#c)"/><path d="m8.36 8.98.65.01c1.48-.1 2.65-.4 3.04-.8a6.54 6.54 0 0 0-3.2-.68c-2.1 0-3.8.66-3.8 1.49 0 .14.05.27.12.37.77-.24 1.91-.4 3.19-.4Z" fill="url(#d)"/><defs><linearGradient id="a" x1="2.03" y1="8.6" x2="15.54" y2="8.6" gradientUnits="userSpaceOnUse"><stop offset=".15" stop-color="#005C9C"/><stop offset=".41" stop-color="#00A3E7"/><stop offset=".52" stop-color="#F5F8FB"/><stop offset=".62" stop-color="#00A3E7"/><stop offset=".89" stop-color="#005C9C"/></linearGradient><linearGradient id="b" x1="2.03" y1="9.41" x2="15.54" y2="9.41" gradientUnits="userSpaceOnUse"><stop offset=".15" stop-color="#005C9C"/><stop offset=".41" stop-color="#00A3E7"/><stop offset=".52" stop-color="#F5F8FB"/><stop offset=".62" stop-color="#00A3E7"/><stop offset=".89" stop-color="#005C9C"/></linearGradient><linearGradient id="c" x1="5.02" y1="9.6" x2="12.65" y2="9.6" gradientUnits="userSpaceOnUse"><stop stop-color="#193F81"/><stop offset=".41" stop-color="#00AEE9"/><stop offset=".52" stop-color="#EBF2F8"/><stop offset=".62" stop-color="#00AEE9"/><stop offset="1" stop-color="#193F81"/></linearGradient><linearGradient id="d" x1="5.02" y1="8.44" x2="12.66" y2="8.44" gradientUnits="userSpaceOnUse"><stop stop-color="#193F81"/><stop offset=".41" stop-color="#00AEE9"/><stop offset=".52" stop-color="#EBF2F8"/><stop offset=".62" stop-color="#00AEE9"/><stop offset="1" stop-color="#193F81"/></linearGradient></defs></svg>