<!-- by TradingView --><svg width="18" height="18" viewBox="0 0 18 18" xmlns="http://www.w3.org/2000/svg"><path fill="#F0F3FA" d="M0 0h18v18H0z"/><path d="M9 12V6h2.58c.45 0 .83.08 1.17.24.33.17.59.4.77.7.19.3.28.67.28 1.1 0 .43-.1.8-.28 1.09-.2.3-.46.51-.8.66-.34.15-.74.23-1.2.23H9.98V8.75h1.22c.19 0 .35-.02.48-.07a.62.62 0 0 0 .32-.23.7.7 0 0 0 .1-.41.72.72 0 0 0-.1-.42.62.62 0 0 0-.32-.24c-.13-.05-.3-.08-.48-.08h-.58V12H9Zm3.5-2.75L14 12h-1.76l-1.46-2.75h1.72ZM7.03 7.9a.64.64 0 0 0-.2-.44c-.11-.1-.29-.16-.52-.16a.97.97 0 0 0-.37.06.45.45 0 0 0-.21.16.41.41 0 0 0-.07.23c0 .07 0 .13.03.19s.07.1.13.15a1 1 0 0 0 .23.12l.33.1.44.1c.3.07.55.16.76.27.22.12.39.25.52.4.14.15.24.32.3.5a1.94 1.94 0 0 1-.16 1.6c-.18.27-.43.47-.75.61-.33.14-.72.21-1.17.21-.47 0-.88-.08-1.22-.23a1.74 1.74 0 0 1-.81-.69c-.2-.31-.29-.72-.29-1.2h1.38c.01.17.05.32.13.45a.7.7 0 0 0 .3.27c.14.07.3.1.49.1.15 0 .28-.02.39-.07.1-.04.18-.1.24-.17a.43.43 0 0 0 .08-.25.38.38 0 0 0-.08-.24.63.63 0 0 0-.25-.18c-.12-.06-.28-.1-.48-.16l-.53-.12c-.48-.11-.85-.3-1.13-.56-.27-.27-.4-.63-.4-1.09a1.71 1.71 0 0 1 1.04-1.63C5.5 6.08 5.88 6 6.3 6c.43 0 .8.08 1.12.24.32.16.56.38.73.67.18.28.26.62.27 1h-1.4Z" fill="#ED2F36"/></svg>