<!-- by TradingView --><svg width="18" height="18" viewBox="0 0 18 18" xmlns="http://www.w3.org/2000/svg"><path fill="#F0F3FA" d="M0 0h18v18H0z"/><path d="M10.7 4.84c-.74-.78-3-.56-4.14-.37v-.01l-.03-.07c0-.01 0-.02.02-.03 2.42-.78 6.62-.46 6.1 2.58-.02.1-.07.11-.15.04A8.76 8.76 0 0 0 8.5 4.74c-.2-.05-.2-.1 0-.16.54-.16 1.24-.04 2.1.35.2.1.24.06.1-.1Z" fill="#59C1CC"/><path d="M11.62 13.24c2.64-2.71-2.65-3.82-4.54-4.5-1.6-.57-2.63-1.86-1.77-3.24.21-.34.31-.32.3.06-.05 1.2.62 2.02 2 2.5 2.13.72 5.33 1.42 5.39 3.1.03.9-.4 1.62-1.3 2.16-.03.02-.06.02-.09-.02l-.01-.02.02-.04Z" fill="#C4AF3E"/><path d="m6.08 6.4 1.84 1.5a.4.4 0 0 1 .06.04.15.15 0 0 1-.06.07h-.05a2.81 2.81 0 0 1-1.84-1.58c-.02-.06 0-.07.05-.02Z" fill="#C4AF3E"/><path d="M9.87 13.69c-.84-.03-1.4-.09-1.7-.15-.4-.1-.57-.3-.5-.62 1.15.51 2.17.43 3.07-.25.63-.47.77-1.12.42-1.95-.05-.11 0-.14.11-.07.27.14.45.36.52.65.36 1.38-.29 2.11-1.93 2.2-.1 0-.12.04-.07.1.01.03.04.06.08.09Z" fill="#59C1CC"/><path d="M7.68 12.92c-.08.31.08.52.5.62.29.06.85.12 1.69.15.2 0 .37.03.5.1.13.05.12.09-.02.1-2.65.37-5.38-.12-5.32-2.83 0-.12.06-.13.16-.05l2.49 1.91Z" fill="#136FAE"/></svg>