<!-- by TradingView --><svg width="18" height="18" viewBox="0 0 18 18" xmlns="http://www.w3.org/2000/svg"><path fill="#F0F3FA" d="M0 0h18v18H0z"/><path fill-rule="evenodd" d="M11.36 5.97A2.36 2.36 0 0 1 8.98 8.3a2.36 2.36 0 0 1-2.39-2.33 2.36 2.36 0 0 1 2.39-2.33 2.36 2.36 0 0 1 2.38 2.33Zm.66 0c0 .9-.4 1.69-1.02 2.23.3-.1.62-.15.96-.15A3.01 3.01 0 0 1 15 11.03 3.01 3.01 0 0 1 11.96 14 3.03 3.03 0 0 1 9 11.74 3.03 3.03 0 0 1 6.04 14 3.01 3.01 0 0 1 3 11.03a3.01 3.01 0 0 1 3.04-2.98c.31 0 .61.05.9.13-.62-.54-1-1.33-1-2.2A3.01 3.01 0 0 1 8.97 3a3.01 3.01 0 0 1 3.04 2.97ZM8.98 8.95c.33 0 .66-.05.96-.15-.46.4-.79.92-.94 1.51a2.96 2.96 0 0 0-.91-1.49c.28.08.58.13.89.13Zm-.55 2.08a2.36 2.36 0 0 1-2.39 2.33 2.36 2.36 0 0 1-2.38-2.33A2.36 2.36 0 0 1 6.04 8.7a2.36 2.36 0 0 1 2.39 2.33Zm3.53 2.33a2.36 2.36 0 0 0 2.38-2.33 2.36 2.36 0 0 0-2.38-2.33 2.36 2.36 0 0 0-2.39 2.33 2.36 2.36 0 0 0 2.39 2.33Zm-4.49-8.7 1.04 3h.96l1.02-3h-.91L9 6.94l-.66-2.26h-.87Zm-1.9 8-1.03-3h.87l.66 2.27.57-2.26h.92l-1.02 3h-.96Zm4.88-3 1.04 3h.96l1.02-3h-.92l-.57 2.27-.66-2.26h-.87Z" fill="#E50E19"/></svg>