<!-- by TradingView --><svg width="18" height="18" viewBox="0 0 18 18" xmlns="http://www.w3.org/2000/svg"><path fill="#F0F3FA" d="M0 0h18v18H0z"/><path d="M8.9 14c-1.03 0-1.8-.36-2.69-1.01L6 11.18l.15-.05c.82 1.48 1.66 2.2 2.8 2.2 1.15 0 2.05-.84 2.05-1.87 0-.85-.45-1.34-2.1-2.26-1.4-.78-2.37-1.59-2.37-2.9C6.53 5 7.46 4 9.04 4c.7 0 1.51.27 2.02.68l.22 1.51-.14.04C10.57 5.18 9.8 4.59 9 4.6c-.94.01-1.5.52-1.5 1.23 0 .85.53 1.43 2.14 2.4 1.19.72 2.36 1.34 2.36 3.02 0 1.7-1.35 2.74-3.1 2.74Z" fill="#231816"/></svg>