<!-- by TradingView --><svg width="18" height="18" viewBox="0 0 18 18" xmlns="http://www.w3.org/2000/svg"><path fill="#F0F3FA" d="M0 0h18v18H0z"/><path d="m11.6 5.02.7 3.18c0 .02 0 .02-.02 0a3.7 3.7 0 0 0-3.2-1.08c-.53.07-1.09.22-1.66.46-.52.23-1.03.52-1.52.88-.03.02-.04.01-.04-.02 0 0 0-.02.02-.03.49-.63 1.03-1.2 1.62-1.69.6-.5 1.24-.89 1.92-1.18a6.4 6.4 0 0 1 2.17-.52Z" fill="#007DB7"/><path d="M5.85 8.8a8.45 8.45 0 0 0 2.65 2.93c.97.7 1.93 1.09 2.9 1.18.01 0 .02.01.02.03v.03c0 .02-.01.03-.03.03-.5.02-1.07-.1-1.7-.36-.62-.25-1.2-.59-1.77-1-.5-.37-1-.82-1.53-1.37 0-.02-.03-.04-.06-.08a11.25 11.25 0 0 1-.9-1.2v-.07c-.2-.33-.36-.68-.46-1.04a2.2 2.2 0 0 1-.07-1.1c.14-.57.5-.9 1.1-1.02.46-.08.98-.03 1.56.15.03 0 .03.02.02.04v.02c-.02.03-.04.04-.06.03a2.54 2.54 0 0 0-.8-.04c-.3.03-.55.12-.76.27-.24.16-.39.4-.46.74-.05.29-.05.6.03.92.08.32.19.63.32.9Z" fill="#00ADEF"/><path d="M8.06 8.03a6.88 6.88 0 0 1 2.32-.04 4.88 4.88 0 0 1 3.6 2.62c.03.04.03.09-.02.13l-.05.05-1.61 1.83c-.03.03-.04.02-.03-.01.16-.8.11-1.56-.13-2.3a2.93 2.93 0 0 0-1.6-1.76 5.55 5.55 0 0 0-2.5-.5c-.03 0-.03-.01 0-.02h.02Z" fill="#00ADEF"/><path d="M6.66 10.02c-.3-.4-.58-.8-.8-1.22a4.78 4.78 0 0 1 2.36-.42c.85.07 1.6.34 2.26.82a3.4 3.4 0 0 1 1.29 1.86c0 .05 0 .05-.03.01l-.17-.24a3.82 3.82 0 0 0-1.2-1.1c-.48-.28-1-.43-1.53-.43-.8-.01-1.52.23-2.18.72ZM5.43 8.99l.04.02c.17.29.46.68.86 1.18l.06.08c-.3.32-.54.66-.72 1.04-.2.4-.3.81-.32 1.23 0 .05-.02.06-.05 0L4 9.93l.01-.03c.44-.36.91-.66 1.42-.9Z" fill="#007DB7"/></svg>