<!-- by TradingView --><svg width="18" height="18" viewBox="0 0 18 18" xmlns="http://www.w3.org/2000/svg"><path fill="#F0F3FA" d="M0 0h18v18H0z"/><path d="M9.31 7c.01 0 .02 0 .02.02v1.52c0 .02 0 .04.02.05l.3.2 2.43 1.7c.08.06.15.1.22.12.45.14.87.14 1.26-.12a.03.03 0 0 0 .01-.03l-.01-.01c-.72-.52-1.35-1-1.93-1.44a45.1 45.1 0 0 0-1.42-1.07.45.45 0 0 1-.21-.39V5.9c0-.03.03-.07.06-.1a.18.18 0 0 1 .1-.04h.01c.11 0 .16.05.16.14v1.74c0 .02.01.04.03.05.05.07.1.12.16.16.34.22.57.42.78.6l.44.35c.23.15.5.35.74.54l.49.36c.64.46 1.44.86 2.03.05a.02.02 0 0 0-.01-.04c-1.13-.74-2.05-1.54-3.05-2.4l-.5-.44a1.61 1.61 0 0 1-.09-.07.07.07 0 0 1-.02-.05V5L11.3 5H6.67v1.86l-.01.03c0 .02-.02.03-.03.03L3.02 9.81c-.02.01-.03.03 0 .05.3.26.66.37 1.09.33a.3.3 0 0 0 .12-.05L5.8 9.01c.58-.43 1.18-.87 1.85-1.34a.07.07 0 0 0 .03-.06V5.89a.15.15 0 0 1 .05-.11.14.14 0 0 1 .11-.04c.1.01.17.06.17.15V7.52a.5.5 0 0 1-.05.24.6.6 0 0 1-.18.2c-.16.1-.38.27-.67.49a134.48 134.48 0 0 1-2.71 1.98v.02h.01c.34.32.7.41 1.1.3.15-.04.35-.16.61-.34l1.26-.9a198.85 198.85 0 0 1 1.3-.97V7.01L8.68 7h.63ZM7 11.58v1.4c0 .01.01.02.03.02h3.93l.02-.01.02-.02V11.6c0-.02.01-.04.03-.04.44.06 1.07.04 1.3-.35v-.04s0-.02-.02-.03L9.02 8.76a.04.04 0 0 0-.04 0L5.7 11.08c-.03.02-.04.05-.03.08.16.42.88.45 1.3.4a.04.04 0 0 1 .03.01v.01Z" fill="#25785A"/></svg>