<!-- by TradingView --><svg width="18" height="18" viewBox="0 0 18 18" xmlns="http://www.w3.org/2000/svg"><path fill="#F0F3FA" d="M0 0h18v18H0z"/><path fill-rule="evenodd" d="M9.56 4c.15 0 .3.01.44.03V9.6c2.14.04 4 .48 4 1.03 0 .26-.4.5-1.03.68-.09.4-.5.77-1.1 1.02-.23.97-1.27 1.68-2.31 1.68H9.4v-3.82C6.33 10.18 4 9.52 4 8.7c0-.4.57-.74 1.5-1 .12-.51.56-.96 1.22-1.3C7.03 5.03 8.1 4 9.56 4Zm.44 6.24v.82l1.16-.03c-.2-.38-.73-.67-1.16-.8Zm0 1.4v.59c.42-.02 1-.08 1.33-.16a1.63 1.63 0 0 0 0-.49c-.36.04-.92.06-1.33.06Zm0 1.04v.67c.43-.12.96-.41 1.17-.8-.3.07-.82.12-1.17.13ZM7.43 6.11c.36-.85 1.01-1.46 1.98-1.52v1.18c-.8.01-1.35.14-1.98.34Zm-.18.67a5.7 5.7 0 0 1 2.16-.43v.89c-.83 0-1.45.04-2.16.13a2.53 2.53 0 0 1 0-.6Zm2.01 1.04h.15v1.76c-1.03-.06-1.71-.74-2.04-1.67.63-.06 1.15-.09 1.9-.09Zm3.25 2.5c.2.16.34.33.41.52.31-.06.5-.14.5-.22 0-.12-.35-.22-.91-.3Zm-.08.6c-.17-.22-.53-.42-1.01-.55.15.18.28.4.37.62l.64-.07Zm-.5.6a2.22 2.22 0 0 1 .01.33c.26-.12.45-.27.53-.43a9.7 9.7 0 0 1-.55.1ZM6.64 7.08c0 .12 0 .24.02.36l-.48.09c.1-.16.26-.31.46-.45ZM4.59 8.71c0-.2.33-.37.9-.52.1.46.46.88 1.01 1.22-1.16-.16-1.91-.42-1.91-.7Zm2.18-.74-.7.1c.07.5.63.93 1.48 1.2-.36-.36-.63-.8-.78-1.3Z" fill="url(#a)"/><defs><linearGradient id="a" x1="6.63" y1="6.43" x2="12.27" y2="12.14" gradientUnits="userSpaceOnUse"><stop stop-color="#00B5E2"/><stop offset="1" stop-color="#2E26C0"/></linearGradient></defs></svg>