<!-- by TradingView --><svg width="18" height="18" viewBox="0 0 18 18" xmlns="http://www.w3.org/2000/svg"><path fill="url(#a)" d="M0 0h18v18H0z"/><path d="M9.74 4.03c.9.07 2.95.42 2.89 1.64-.05.93-.96 1.22-1.8.86-.85-.37-1.92-.6-2.73-.28-.54.22-.65.59-.35 1.11.11.2.41.33.9.42 1.68.32 4.17.63 4.34 2.78.1 1.32-.45 2.3-1.64 2.97-1.89.71-3.7.61-5.44-.28-.5-.26-.78-.55-.88-.87-.19-.68.43-1.63 1.3-1.27 1.31.57 2.34 1 3.68.69.8-.19.96-1.18.21-1.5a9.5 9.5 0 0 0-1.97-.5c-1.8-.3-3.42-1.54-2.9-3.48.5-1.91 2.49-2.47 4.4-2.29Z" fill="#fff"/><defs><linearGradient id="a" x1="18" y1="2.54" x2="0" y2="11.13" gradientUnits="userSpaceOnUse"><stop stop-color="#458DD1"/><stop offset="1" stop-color="#74D3D5"/></linearGradient></defs></svg>