<!-- by TradingView --><svg xmlns="http://www.w3.org/2000/svg" width="18" height="18" viewBox="0 0 18 18"><path fill="#F0F3FA" d="M0 0h18v18H0z"/><ellipse cx="9.41" cy="9" rx="1.1" ry="4" fill="#80C747"/><ellipse cx="2.43" cy="9" rx=".43" ry="1.71" fill="#0DB3EF"/><ellipse cx="4.2" cy="9" rx=".83" ry="2.75" fill="#04AFDA"/><ellipse cx="5.86" cy="9" rx=".96" ry="3.18" fill="#05ABD5"/><path d="M4.96 10.1a8.47 8.47 0 0 0 0-2.2 9.99 9.99 0 0 0 0 2.2z" fill="#007594"/><ellipse cx="7.63" cy="9" rx="1.1" ry="3.64" fill="#00B1B2"/><path d="M6.67 10.73a9.14 9.14 0 0 0 0-3.46 10.88 10.88 0 0 0 0 3.46z" fill="#007199"/><ellipse cx="11.24" cy="9" rx="1.01" ry="3.33" fill="#94C93C"/><ellipse cx="12.88" cy="9" rx="1.01" ry="2.75" fill="#B3D13F"/><path d="M12.1 10.72a9.73 9.73 0 0 0 0-3.44A6.25 6.25 0 0 0 11.88 9c0 .65.08 1.25.22 1.72z" fill="#66A15F"/><ellipse cx="14.19" cy="9" rx=".62" ry="1.31" fill="#C3DC1C"/><path d="M13.81 10.04a7.07 7.07 0 0 0 0-2.07A2.1 2.1 0 0 0 13.58 9c0 .42.1.8.23 1.04z" fill="#8AC247"/><ellipse cx="15.61" cy="9" rx=".39" ry=".83" fill="#CDD736"/><path d="M10.39 10.78a13.26 13.26 0 0 0 0-3.56 9.65 9.65 0 0 0 0 3.56z" fill="#399830"/><path d="M8.5 11.26A10 10 0 0 0 8.73 9a10 10 0 0 0-.23-2.26 12.46 12.46 0 0 0 0 4.52z" fill="#1A8145"/></svg>