<!-- by TradingView --><svg width="18" height="18" viewBox="0 0 18 18" xmlns="http://www.w3.org/2000/svg"><path fill="#F0F3FA" d="M0 0h18v18H0z"/><path d="m4.56 10.61-.53-1.67 4.62-.7.26 1.63-1.83 1.93-2.52-1.19ZM7.72 8.08l-.16-2.67 1.62-1.39 3.18 2.68-1.62 1.38H7.72Z" fill="#AEB1B8"/><path d="M7.77 11.42 9.26 14l3-.98.74-1.74-4.14-1.46-1.09 1.6Z" fill="#AEB1B8"/><path d="M5.86 7.39 4 8.94l2.63 1.03 2.02-1.71-2.8-.87ZM8.7 9.85l1.43 2 2.87-.57-1.67-1.89-2.63.46Z" fill="#066BB9"/><path d="m9.2 4 .37 2.53 2.8.17-.49-2.32L9.2 4Z" fill="#E70013"/></svg>