<!-- by TradingView --><svg width="18" height="18" viewBox="0 0 18 18" xmlns="http://www.w3.org/2000/svg"><path fill="#F0F3FA" d="M0 0h18v18H0z"/><path d="M9.63 6.48a.62.62 0 1 1-1.25 0 .62.62 0 0 1 1.25 0Zm0 2.52a.62.62 0 1 1-1.25 0 .62.62 0 0 1 1.25 0ZM9 12.15a.62.62 0 1 0 0-1.25.62.62 0 0 0 0 1.25Z" fill="#F39200"/><circle cx="6.7" cy="7.67" r=".63" transform="rotate(-60 6.7 7.67)" fill="#F39200"/><circle cx="11.3" cy="10.33" r=".63" transform="rotate(-60 11.3 10.33)" fill="#F39200"/><path fill-rule="evenodd" d="M9 14A5 5 0 1 0 9 4a5 5 0 0 0 0 10Zm0-6.5a1 1 0 1 0 0-2 1 1 0 0 0 0 2ZM9 10a1 1 0 1 0 0-2 1 1 0 0 0 0 2Zm1 1.5a1 1 0 1 1-2 0 1 1 0 0 1 2 0ZM7.17 6.86a.94.94 0 1 1-.94 1.62.94.94 0 0 1 .94-1.62Zm4.94 3.94a.94.94 0 1 0-1.62-.94.94.94 0 0 0 1.62.94ZM6.23 9.52a.94.94 0 1 1 .94 1.62.94.94 0 0 1-.94-1.62Zm5.88-2.32a.94.94 0 1 0-1.62.94.94.94 0 0 0 1.62-.94Z" fill="#1B1B1B"/><circle cx="6.7" cy="10.33" r=".63" transform="rotate(-120 6.7 10.33)" fill="#F39200"/><circle cx="11.3" cy="7.67" r=".63" transform="rotate(-120 11.3 7.67)" fill="#F39200"/></svg>