<!-- by TradingView --><svg xmlns="http://www.w3.org/2000/svg" width="18" height="18"><path fill="url(#azl4feh2q)" d="M0 0h18v18H0z"/><path d="M11 4a1 1 0 112 0 1 1 0 01-2 0zm0 2.37V5H8.33a3.33 3.33 0 103.33 3.34c0-.74-.26-1.42-.66-1.97zM8.33 10c-.9 0-1.67-.67-1.67-1.66 0-1 .76-1.67 1.67-1.67.9 0 1.67.76 1.67 1.67 0 .9-.77 1.66-1.67 1.66zm.17 3.25V15a3.5 3.5 0 003.5-3.5h-1.75c0 .95-.8 1.75-1.75 1.75z" fill="#FFFEFE"/><defs><linearGradient id="azl4feh2q" x1="3.35" y1="3.12" x2="21.9" y2="24.43" gradientUnits="userSpaceOnUse"><stop stop-color="#1A1E21"/><stop offset="1" stop-color="#06060A"/></linearGradient></defs></svg>