<!-- by TradingView --><svg width="18" height="18" viewBox="0 0 18 18" xmlns="http://www.w3.org/2000/svg"><path fill="#F0F3FA" d="M0 0h18v18H0z"/><path d="m13.99 4-7.57 9.95V14H4V4H14Z" fill="#011EAA"/><path d="M6.42 14v-.05L14 4l.01.07a460484.54 460484.54 0 0 0-.02 9.93H6.42Z" fill="#0196B4"/><path d="M5.32 8.39c.04.13.13.22.28.28l.36.13c.32.11.5.32.54.62.02.17.01.31-.04.43-.15.36-.56.48-.94.48a1.3 1.3 0 0 1-.73-.22v-.33c.2.15.43.23.68.24.26.02.48-.05.54-.32.06-.24-.07-.39-.28-.47-.35-.15-.78-.24-.86-.69-.06-.34.05-.6.33-.79a.94.94 0 0 1 .59-.15 1.52 1.52 0 0 1 .65.18v.31c-.2-.13-.42-.2-.64-.2-.26 0-.58.2-.48.5ZM11.2 7.67l-.92 1.24v.01l.93 1.39-.01.02h-.48c-.01 0-.02 0-.03-.02L10 9.3a448 448 0 0 1-.77 1.02c-.01.02-.03.03-.05.02h-.3c-.01 0-.02 0 0-.02l.94-1.3V9L8.9 7.68v-.01h.5a.03.03 0 0 1 .03.01l.66.95a.01.01 0 0 0 .02 0l.7-.95.03-.01h.35Z" fill="#F0F3FA"/><path fill-rule="evenodd" d="M8.18 8.3a1.77 1.77 0 0 1 .02.4h-.02c-.45-.01-1.2.01-1.38.54-.04.13-.06.26-.05.42.04.49.47.67.9.67h1.01V8.6c0-.14 0-.27-.03-.4-.1-.38-.44-.52-.8-.54a1.73 1.73 0 0 0-.95.22v.31c.27-.2.58-.28.92-.26.22.02.35.14.38.36Zm.03 1.78V8.97a.01.01 0 0 0-.02 0h-.3a.68.68 0 0 0-.23.03.62.62 0 0 0-.2.12c-.05.05-.1.1-.12.17a.47.47 0 0 0-.05.2v.08c0 .13.07.27.18.37.11.1.27.15.43.15h.3ZM12.66 8.7h-.01c-.45-.01-1.22.02-1.39.55-.04.12-.05.26-.04.41.03.5.46.67.9.67h1.01a.01.01 0 0 0 .01 0V8.6c0-.13-.01-.26-.04-.38-.1-.4-.45-.53-.81-.55a1.73 1.73 0 0 0-.95.23v.3c.28-.2.58-.28.92-.26.23.02.35.14.39.36a1.78 1.78 0 0 1 .01.4Zm0 1.38V8.97h-.3a.65.65 0 0 0-.43.15.5.5 0 0 0-.18.38v.06a.53.53 0 0 0 .18.38c.06.04.12.08.2.1.07.03.15.05.23.05h.3v-.01Z" fill="#F0F3FA"/></svg>