<!-- by TradingView --><svg width="18" height="18" viewBox="0 0 18 18" xmlns="http://www.w3.org/2000/svg"><path fill="#F0F3FA" d="M0 0h18v18H0z"/><path fill="#0D3A73" d="M5 4h8v10H5z"/><path d="M7.58 5.48c.16-.1.36-.23.46-.37a2.47 2.47 0 0 0 .08-.1c-.1.2-.27.35-.47.47-.33.2-.71.36-1.1.5-.16.06-.28.11-.36.16-.34.16-.68.38-.85.68-.14.23-.12.53.15.67.14.08.3.11.46.11a11.02 11.02 0 0 1 .27.02c-.36.09-.85.05-1-.32-.1-.27.04-.56.25-.77.26-.25.66-.46 1-.58l.48-.17c.21-.08.43-.18.63-.3ZM9.14 5.99 9.03 6c-.33.12-.54.21-.83.26a6.1 6.1 0 0 1 .95-.42c.07 0 .12.04.16.1.12.22.12.49.1.72a.2.2 0 0 1-.04.09h-.01c0-.14-.02-.3-.05-.47-.02-.09-.06-.26-.17-.29ZM10.28 6.26c.02-.09 0-.17-.1-.19a27.6 27.6 0 0 0-.5-.1c.12-.01.67-.07.69.08 0 .04 0 .1-.02.16-.06.21-.1.4-.2.6h-.02l.02-.06c.05-.16.1-.32.13-.49ZM11.3 6.69a1.5 1.5 0 0 0-.3-.3 14.37 14.37 0 0 0-.32-.26l.11.05c.2.12.37.26.52.41.12.12.17.27.17.43h-.01c-.07 0-.12.01-.16.03-.04.01-.05 0-.03-.03.03-.06.06-.12.06-.17a.26.26 0 0 0-.05-.16ZM7.13 7.04a.23.23 0 0 0-.08-.02V7a3.16 3.16 0 0 1 .76-.5v.02a.01.01 0 0 1 0 .01c-.07.07-.12.1-.15.12a5.24 5.24 0 0 0-.35.26L7.4 7V7l-.01.01c-.14.04-.26.14-.4.18h-.03v-.01l.19-.12a.01.01 0 0 0 0-.02ZM7.87 6.8a.06.06 0 0 1-.02-.05c0-.02 0-.04.02-.05l.04-.02a.2.2 0 0 1 .12-.05c.04 0 .08.02.1.04a.1.1 0 0 1 .03.05v.05c0 .02 0 .04-.02.05a.19.19 0 0 1-.04.05l-.04.03a.08.08 0 0 1-.05.01c-.02 0-.03 0-.04-.02l-.1-.1ZM9.3 7.7c.04-.03.03-.04-.02-.03-.46.09-.83.17-1.26.2-.18.02-.39.01-.63-.01L7.2 7.8c-.01 0-.01 0 0 0l.17.02a4.85 4.85 0 0 0 1.44-.12c.28-.08.46-.12.53-.13.05-.01.06-.03.08-.07.05-.1.09-.2.11-.3.01-.02 0-.03-.02-.03-.1 0-.2 0-.32.03-.27.04-.58.1-.87.2a.79.79 0 0 1-.4.02.01.01 0 0 1 0-.02h.01l.18-.08c.32-.16.51-.28.77-.38a.48.48 0 0 0 .08-.04c.05-.03.12-.08.18-.06.08.02.04.14.03.19-.02.07.06.07.12.07a6.5 6.5 0 0 0 .26 0v-.03h-.02a2.24 2.24 0 0 1-.2-.05c-.02 0-.02 0-.02-.02a.28.28 0 0 0-.05-.1v-.04h.01a.7.7 0 0 1 .2-.02c.44.03.93.19 1.17.53l.02.01h.02a1.8 1.8 0 0 0 .46-.25v.01a2.6 2.6 0 0 1-.44.34c.02.05.03.07.09.08a3.92 3.92 0 0 1 .54.13c.06-.04.14-.19.18-.26 0-.02.01-.02.01 0a1 1 0 0 1-.02.32l.01.01A3.53 3.53 0 0 1 13 8.84a3.93 3.93 0 0 0-1.54-.99l-.01.01v.04l.01.03-.02.06-.15.23c-.08.12-.21.22-.35.31h-.01l-.26-.05-.02-.01v-.02c-.02-.05.05-.09.1-.12l.18-.1c.14-.1.26-.21.4-.3V7.9l.01-.02v-.01l-.02-.01-.25.06a.42.42 0 0 1-.13 0c-.04 0-.04 0 0-.01a1.01 1.01 0 0 0 .28-.14v-.02h-.02l-.4-.1a.03.03 0 0 0-.03 0v.02a.8.8 0 0 1-.05.44.2.2 0 0 1-.06.08c-.01.02-.02.02-.02 0a.94.94 0 0 0-.1-.54c-.03-.05-.14-.05-.2-.05a.42.42 0 0 0-.14.05c-.2.1-.32.16-.47.2-.04 0-.05 0-.01-.03.09-.04.27-.12.37-.21V7.6h-.01a25.2 25.2 0 0 1-.4.02l-.02.01a1 1 0 0 1-.23.23v-.01l.17-.22v-.01h-.01l-.16.01c-.04.01-.08.04-.12.1H9.3V7.7ZM7.41 7.45c.07.02.1.03.17 0a38.12 38.12 0 0 0 .76-.33c.03 0 .04 0 .01.02h-.02c-.27.14-.52.27-.73.4-.1.05-.27.02-.39 0-.01 0-.01 0 0 0 .04-.06.12-.12.2-.1ZM6.2 8.44l-.01-.01v-.01c.2-.23.42-.46.64-.68.07-.08.16-.1.27-.16.08-.04.08-.03.02.01l-.18.14c-.27.23-.51.46-.75.71ZM5.02 8.65a19.71 19.71 0 0 0 1.17-.8c.06-.05.16-.05.23-.07.05 0 .05 0 .01.02a90.72 90.72 0 0 0-1.42.88H5c0-.02 0-.02.02-.03Z" fill="#fff"/><path d="M9.99 7.94c.17-.02.32-.07.48-.16l.03.01V7.9a1.33 1.33 0 0 1-.55.07.07.07 0 0 1 .04-.02ZM10.4 8.08c.04 0 .1-.03.14-.06a.02.02 0 0 1 .02 0v.02c.02.03 0 .09-.05.09a2.7 2.7 0 0 1-.55-.02l.02-.02H10c.14.02.27.01.41-.01ZM9.08 9.87h-.01l-.1.02a.03.03 0 0 1-.02 0v-.01c0-.18.2-.23.36-.22l.02.01c.02.06-.04.12-.07.15l-.01.02v.01l.01.01h.02c.09 0 .17-.08.22-.14a2.42 2.42 0 0 0 .31-.55l-.01-.01c-.04 0-.05-.02-.04-.03l.03-.06c0-.02 0-.03-.04-.03-.01 0-.02 0-.02-.02l.03-.03c.1-.07.23-.13.4-.18l.49-.19c.05-.02.1-.03.16-.03l.01.01v.01a1.88 1.88 0 0 1-.81.47c-.07.02-.14.1-.16.17-.1.26-.23.51-.41.7-.06.07-.25.05-.35.04h-.01v-.12ZM8.9 9.23c-.07 0-.33 0-.3-.1.01-.08.19-.15.25-.17a4.4 4.4 0 0 1 .84-.07v.02a.22.22 0 0 1-.06.08c-.16.1-.33.18-.51.2l-.03.01-.19.15v.04h.02l.2-.09c.08-.04.16-.05.23-.08.03 0 .04 0 .03.02a.42.42 0 0 1-.18.21l-.25.15a.72.72 0 0 1-.37.05l-.01-.01V9.6a13.77 13.77 0 0 0 .34-.38Z" fill="#fff"/><path opacity=".7" fill="#97C5DD" d="M5 13h8v1H5z"/><path opacity=".7" fill="#fff" d="M5 10h8v2H5z"/></svg>