<!-- by TradingView --><svg width="18" height="18" viewBox="0 0 18 18" xmlns="http://www.w3.org/2000/svg"><path fill="#F0F3FA" d="M0 0h18v18H0z"/><path d="M6.6 8c1.2 0 1.28.8 1.17 1.23h-.9c0-.34-.17-.45-.46-.45-.3 0-.5.1-.5.33s.16.28.7.42c.53.15.99.53.99.85 0 .33-.26 1.62-1.9 1.62-1.3 0-1.37-.95-1.23-1.43h.94c0 .18.03.62.5.62s.7-.14.7-.4c0-.2-.16-.26-.56-.39l-.4-.13c-.7-.25-.79-.71-.74-1C4.95 9 5.1 8 6.6 8Zm1.8 0-.88 4h1.73c.55-.01 1.65-.34 1.65-1.54 0-.38-.23-.6-.34-.65.2-.13.61-.52.61-1.1 0-.57-.54-.71-.82-.71H8.4Zm.63 1.54.12-.77h.66c.15 0 .28.15.28.33 0 .24-.17.44-.38.44h-.68Zm-.35 1.54.15-.77h.79c.18 0 .33.15.33.33 0 .24-.2.44-.45.44h-.82Zm2.14.92h.99l.84-4h-.96l-.87 4Z" fill="#0058A2"/><path d="M14 6.63c0 .78-.63 1.7-.94 2.05.42-.9.51-2.68-2.5-2.68C7.31 6 4.16 8.25 3 9.37 4.77 6.51 8.82 5 11.1 5c2.26 0 2.9.65 2.9 1.63Z" fill="#E71A2F"/></svg>