<!-- by TradingView --><svg width="18" height="18" viewBox="0 0 18 18" xmlns="http://www.w3.org/2000/svg"><path fill="#F0F3FA" d="M0 0h18v18H0z"/><path d="m8.54 6.62-1.43 3.73.5.7 1.31-3.42 1.5 3.41.47-.7-1.55-3.73a.43.43 0 0 0-.4-.28.43.43 0 0 0-.4.29Z" fill="#B22726"/><path d="M6.42 4c.23 0 .35.16.35.36V9.1C6.77 10.13 7.8 11 9 11c1.2 0 2.23-.87 2.23-1.9V4.36c0-.2.12-.36.35-.36.23 0 .42.16.42.36V8.3a6.16 6.16 0 0 0 3 3.13V12H3v-.59A5.9 5.9 0 0 0 6 8.1V4.36c0-.2.19-.36.42-.36ZM6 9.2a6.67 6.67 0 0 1-1.58 2.13h3.1A2.57 2.57 0 0 1 6 9.2Zm4.47 2.13h3.1a7 7 0 0 1-1.59-1.98 2.6 2.6 0 0 1-1.5 1.98Z" fill="#6F6D6B"/></svg>