<!-- by TradingView --><svg width="18" height="18" viewBox="0 0 18 18" xmlns="http://www.w3.org/2000/svg"><path fill="#F0F3FA" d="M0 0h18v18H0z"/><path d="M12.45 6.04c-.07.04-.13.1-.19.15-.5.5-.92 1.1-1.27 1.82a8.77 8.77 0 0 0-.7 2.16c-.02.09-.04.09-.06 0a4.6 4.6 0 0 1 1.03-4.48l1.04-1.23A3.77 3.77 0 0 0 13.15 3l.03.01a4.92 4.92 0 0 1 .68 3.91 4.36 4.36 0 0 1-1.72 2.52c-.42.3-.9.55-1.41.72-.03.01-.04 0-.04-.03.25-1.55.84-2.9 1.78-4.07.04-.05.04-.06-.02-.02Z" fill="#2E547B"/><path d="M8.31 6.46c0-.02 0-.03-.03-.03h-.02a5.47 5.47 0 0 0-.11 1.56c.05.7.22 1.4.51 2.11.02.04 0 .05-.03.02a3.17 3.17 0 0 1-1.24-2.2 4.46 4.46 0 0 1-.01-.99l.16-1.46a3.37 3.37 0 0 0-.07-1.25h.02a3.33 3.33 0 0 1 1.74 1.47 3.43 3.43 0 0 1 .43 2.35A4.6 4.6 0 0 1 8.9 9.9l-.02-.01a6.9 6.9 0 0 1-.57-3.42Z" fill="#217872"/><path d="M5.94 8.94h.02c.02-.01.02-.02.01-.04l-.13-.24c-.02-.03-.03-.02-.03.01 0 .1.03.19.1.26.15.37.38.73.68 1.07.27.3.58.57.94.8.09.06.08.08-.02.08A2.3 2.3 0 0 1 5.55 9.6 21.8 21.8 0 0 1 5 8.57c-.15-.3-.34-.55-.55-.73a.05.05 0 0 1-.02-.03c0-.02 0-.03.02-.05a.12.12 0 0 1 .05-.03c.42-.13.82-.14 1.22-.04.92.23 1.53.85 1.82 1.85.09.32.13.66.12 1 0 .04-.01.05-.04.03a4.78 4.78 0 0 1-1.7-1.63ZM5.46 11.48c-.03-.07-.09-.11-.18-.12-.02 0-.03.01 0 .03.04.06.1.1.18.11.47.28 1.04.4 1.7.35.1 0 .1.02.03.07-.3.22-.65.33-1.01.32a2.3 2.3 0 0 1-1.03-.31 7.02 7.02 0 0 0-.7-.33 1.19 1.19 0 0 0-.42-.1c-.03 0-.04 0-.02-.04.1-.16.22-.3.37-.42.68-.53 1.37-.58 2.08-.15.25.15.5.39.72.71.02.03.01.04-.02.05a3.25 3.25 0 0 1-1.7-.17ZM6.28 13.3a.52.52 0 0 1 .2-.08.77.77 0 0 0 .18-.05c.27-.12.51-.29.74-.5.06-.04.07-.03.05.04-.2.54-.59.87-1.2 1-.03 0-.08 0-.15.02l-.4.09c-.14.04-.27.1-.36.17-.04.02-.06.01-.06-.04 0-.3.09-.57.24-.82.31-.53.78-.77 1.4-.7.12.01.24.04.37.08.04 0 .04.03.01.06-.26.28-.6.5-1.03.68-.01 0-.02.01-.01.02v.02h.02Z" fill="#158E68"/></svg>