<!-- by TradingView --><svg width="18" height="18" viewBox="0 0 18 18" xmlns="http://www.w3.org/2000/svg"><path fill="#00425C" d="M0 0h18v18H0z"/><path d="M12.5 4h-1v1.5H10v1h1.5V8h1V6.5H14v-1h-1.5V4ZM6.84 8C6.36 8 5.69 7.96 5 7.88v-.77c.85.11 1.53.17 1.86.17.56 0 .82-.08.82-.34v-.23c0-.14-.04-.23-.13-.28-.08-.06-.25-.09-.5-.09h-.58C5.41 6.34 5 6.04 5 5.04 5 4.37 5.73 4 7.2 4c.3 0 1.04.02 1.8.07v.74l-1.83-.1c-.26 0-.85-.07-.85.33 0 .33.1.46.46.46h.6c1.08 0 1.62.3 1.62.92v.48C9 7.98 7.63 8 6.84 8ZM7.41 14c-.24 0-.44 0-.58-.02-.85-.03-1.83-.24-1.83-1.3V11.4c0-1.16 1.07-1.37 2-1.4h.5c.37 0 .9.05 1.49.14L9 11.2A9.37 9.37 0 0 0 7.41 11c-.65 0-1.39-.04-1.39.5l-.02 1c0 .5.8.5 1.5.5.35 0 .85-.06 1.5-.17l-.01 1.04c-.58.09-1.11.13-1.58.13ZM11.5 13c-.73 0-1.5 0-1.5-1.5s.74-1.5 1.5-1.5 1.5 0 1.5 1.5-.77 1.5-1.5 1.5Zm0-.75c.48 0 .75-.38.75-.75 0-.46-.28-.75-.75-.75s-.75.43-.75.75c0 .37.27.75.75.75ZM10 13.5h3v.5h-3v-.5Z" fill="#F0F3FA"/></svg>