<!-- by TradingView --><svg width="18" height="18" viewBox="0 0 18 18" xmlns="http://www.w3.org/2000/svg"><path fill="#F0F3FA" d="M0 0h18v18H0z"/><path d="m10.44 10.68-1.12.57c-.2.1-.45.1-.64 0l-4.37-2.2a.56.56 0 0 1-.31-.5V6.78c0-.2.12-.38.3-.48l4.38-2.22c.2-.1.45-.1.64 0l4.37 2.22c.2.1.31.28.31.48v1.37c0 .31-.28.56-.63.56a.64.64 0 0 1-.31-.08L9.32 6.75a.68.68 0 0 0-.64 0l-1.12.57c-.3.16-.4.5-.23.77.06.09.13.15.23.2l2.86 1.43c.31.16.41.5.24.77a1 1 0 0 1-.22.2Z" fill="#474747"/><path d="M13.68 11.7c.19-.1.3-.28.3-.48V9.45c0-.2-.11-.4-.32-.48L9.3 6.76a.68.68 0 0 0-.63 0l-1.12.57c-.31.16-.41.5-.24.77.06.09.14.15.24.2l2.86 1.43c.3.16.4.5.23.77a.57.57 0 0 1-.23.2l-1.1.56c-.2.1-.45.1-.64 0l-3.73-1.9c-.3-.15-.69-.06-.87.22a.59.59 0 0 0-.07.27v1.37c0 .2.12.38.3.48l4.38 2.22c.2.1.45.1.64 0l4.36-2.22Z" fill="#FBBC23"/></svg>