<!-- by TradingView --><svg width="18" height="18" viewBox="0 0 18 18" xmlns="http://www.w3.org/2000/svg"><path fill="#F0F3FA" d="M0 0h18v18H0z"/><path d="M10.69 7.5c0-.06.02-.12.06-.17.04-.05.09-.08.15-.1a.4.4 0 0 1 .2-.02c.07 0 .13.04.18.08.05.04.08.1.1.15 0 .06 0 .12-.03.18a.31.31 0 0 1-.12.13.39.39 0 0 1-.44-.04.3.3 0 0 1-.08-.1.26.26 0 0 1-.02-.11Z" fill="#233568"/><path d="M5.04 8.71c.07-.33.46-.97.71-1.2a3.35 3.35 0 0 1-.71-1.2 1.23 1.23 0 0 1-.02-.53c.35.5.68.95 1.2 1.34a5.07 5.07 0 0 1 4-1.06v-.11c-.03-.08.07-.2.16-.2.1 0 .2.11.18.2v.16A5.9 5.9 0 0 1 13 7.2l-.97.32.97.32c-.67.53-1.56.9-2.44 1.07v.2c.02.08-.09.14-.18.14s-.19-.06-.17-.14v-.15a5.08 5.08 0 0 1-4-1.05c-.51.38-.84.84-1.19 1.34-.03-.17-.03-.35.01-.52m6.95-1.21c-.44-.23-.92-.4-1.42-.53v1.06a7 7 0 0 0 1.42-.53Zm-1.77-.6c-.42-.08-.8-.1-1.23-.08-.77.07-1.51.3-2.16.68.65.37 1.4.6 2.16.67.43.03.81 0 1.23-.07V6.9Z" fill="#233568"/><path d="M13.73 5c.34 0 .66.12.9.32s.37.49.37.78v5.8c0 .3-.13.57-.37.78-.24.2-.56.32-.9.32H4.27c-.34 0-.66-.12-.9-.32S3 12.19 3 11.9V6.1c0-.3.13-.57.37-.78.24-.2.56-.32.9-.32h9.46Zm-9.46.33c-.4 0-.9.4-.9.77V9c1.4.68 3.48 1.13 5.63 1.13s4.23-.4 5.63-1.05V6.1c0-.36-.5-.77-.9-.77" fill="#C42528"/><path d="M4 10h1v1h3v-1h1v1h5v1H4v-2Z" fill="#F0F3FA" fill-opacity=".5"/></svg>