<!-- by TradingView --><svg width="18" height="18" viewBox="0 0 18 18" xmlns="http://www.w3.org/2000/svg"><path fill="#DBA328" d="M0 0h18v18H0z"/><path d="m4.8 11.8.1.06.24.08c.1.02.2.03.32.03.23 0 .42-.06.58-.17a.58.58 0 0 0 .23-.5.48.48 0 0 0-.1-.31.8.8 0 0 0-.26-.21c-.1-.06-.26-.14-.46-.22-.3-.13-.54-.25-.74-.38-.19-.12-.36-.3-.5-.53a1.74 1.74 0 0 1-.21-.9c0-.37.07-.69.22-.95.15-.27.35-.47.61-.6s.55-.2.88-.2a4.02 4.02 0 0 1 1.48.33l-.03 1.5h-.62l-.17-.7a16.39 16.39 0 0 1-.34-.1A1.08 1.08 0 0 0 5.78 8c-.23 0-.4.05-.53.16a.54.54 0 0 0-.19.43c0 .17.07.31.2.41.14.1.35.21.64.34.3.13.54.25.73.37a1.52 1.52 0 0 1 .7 1.38c0 .4-.08.75-.23 1.04-.16.28-.38.5-.65.65-.27.15-.59.22-.93.22a5.12 5.12 0 0 1-1.5-.31V11.1h.68l.1.69ZM8.44 12.28l.56-.26v-4l-.56-.26V7h1.78l1.03 2.83L12.33 7h1.65v.76l-.5.26v4l.52.26V13h-2.05v-.72l.54-.26v-3.2l-.97 2.56-.74.05L10 8.97v3.05l.4.26V13H8.44v-.72Z" fill="#FFFFF6"/><path d="M4 4.8v.4L14 6V4L4 4.8Z" fill="url(#aqjt5bdoa)"/><defs><linearGradient id="aqjt5bdoa" x1="14" y1="5.2" x2="4" y2="5.04" gradientUnits="userSpaceOnUse"><stop stop-color="#DCAA2F"/><stop offset=".22" stop-color="#E4B855"/><stop offset="1" stop-color="#F2FEF4"/></linearGradient></defs></svg>