<!-- by TradingView --><svg width="18" height="18" viewBox="0 0 18 18" xmlns="http://www.w3.org/2000/svg"><path fill="#181B1E" d="M0 0h18v18H0z"/><path d="m9.01 11.83 1.53-5.07c.18-.6.6-.76 1.18-.76h3.19c.09 0 .11.06.07.17l-.34 1.16c-.04.11-.1.17-.18.17H11.9l-.26.75H14c.09 0 .11.06.07.17l-.35 1.16c-.03.11-.09.17-.17.17h-2.38l-.24.75h2.6c.07 0 .1.06.06.17l-.37 1.16c-.03.11-.09.17-.17.17H9.09c-.08 0-.1-.06-.08-.17ZM3.01 11.83l.46-1.16c.04-.11.1-.17.2-.17h2.49c.11 0 .2-.1.25-.27l.02-.04c.05-.16.02-.24-.1-.24L4.4 9.44c-.62-.25-.78-1.3-.52-2.1.3-.89.95-1.34 1.76-1.34h3.28c.09 0 .11.06.07.17l-.44 1.16c-.04.11-.1.17-.2.17H5.68c-.13 0-.14 0-.2.14-.05.17-.02.26.1.26l1.92.54c1.05.44.7 1.68.46 2.44C7.68 11.69 7 12 6.27 12H3.09c-.08 0-.1-.06-.08-.17Z" fill="#fff"/></svg>