<!-- by TradingView --><svg width="18" height="18" viewBox="0 0 18 18" xmlns="http://www.w3.org/2000/svg"><path fill="#343434" d="M0 0h18v18H0z"/><path fill-rule="evenodd" d="M11.98 12.63c.3-.24.58-.53.81-.84a6.4 6.4 0 0 1-.87.64l.06.2Zm-.27.2-.07-.24a7.74 7.74 0 0 1-1.56.66l.23.26c.51-.14.98-.37 1.4-.67Zm-3.77.47c.47-.03 1.02-.1 1.6-.23-.21-.3-.46-.68-.71-1.12a6.3 6.3 0 0 1-1.94.24 3.6 3.6 0 0 0 1.05 1.1Zm.71.38a2.2 2.2 0 0 1-.25-.1c.42-.05.87-.12 1.35-.24l.21.26a4.74 4.74 0 0 1-1.3.08Zm-.03.3H9a5 5 0 0 0 4.64-3.12l.02-.03A4.98 4.98 0 0 0 9 4a5 5 0 0 0-5 4.86 5.07 5.07 0 0 0 .53 2.36 5 5 0 0 0 3.97 2.74l.11.04v-.03Zm-1.18-.68c-.12 0-.24 0-.35-.02v.02a4.73 4.73 0 0 1-1.9-1.53c.35.18.8.33 1.33.4a3.42 3.42 0 0 0 .92 1.13Zm-.7-1.43c.54.04 1.19 0 1.93-.2a14.53 14.53 0 0 1-.8-1.83 5.2 5.2 0 0 1-1.58.14c0 .67.24 1.37.45 1.9Zm-.76-1.93c-.01.68.2 1.37.4 1.9a2.85 2.85 0 0 1-1.44-.63 6.43 6.43 0 0 1-.02-1.6c.3.14.65.26 1.06.33ZM6 9.63c-.41-.07-.76-.2-1.03-.35.14-.78.41-1.46.75-2.02.17.09.36.16.56.2A15.3 15.3 0 0 0 6 9.64ZM4.68 9.1c.15-.77.43-1.44.77-2-.16-.1-.3-.21-.4-.33a4.98 4.98 0 0 0-.7 2.03c.09.1.2.2.33.3Zm.94-2.26a2.2 2.2 0 0 1-.4-.33c.23-.28.5-.53.83-.72.1.05.2.1.32.12-.25.26-.51.57-.75.93Zm.07-1.2c.02 0 .04-.02.06-.04l-.06.05Zm.67 1.52c-.17-.04-.33-.1-.47-.16.28-.42.59-.76.88-1.03h.09c-.2.36-.39.79-.5 1.19ZM4.57 10.6c-.01-.4 0-.8.06-1.16a2.74 2.74 0 0 1-.33-.25c.02.5.11.97.27 1.41Zm1.74-.94c.43.04.91 0 1.47-.12-.2-.7-.32-1.4-.38-2.05-.29.05-.56.06-.8.03-.18.85-.23 1.41-.29 2.14Zm.36-2.45c.21.02.45.02.7-.03-.03-.5-.03-.96-.02-1.31a1.8 1.8 0 0 1-.1.03c-.21.38-.45.86-.58 1.31Zm2.46 4.64c.27.47.52.84.74 1.13a8.35 8.35 0 0 0 1.68-.7c-.12-.35-.28-.8-.48-1.3a9.89 9.89 0 0 1-1.94.87Zm.44-.48c-.2.08-.4.14-.59.2a14.2 14.2 0 0 1-.8-1.8 7.57 7.57 0 0 0 1.9-.8 12.84 12.84 0 0 1 .86 1.73c-.4.24-.85.46-1.37.67Zm-.94-2.08-.55.18c-.2-.7-.31-1.4-.37-2.04l.3-.1c.27-.1.52-.2.73-.33.39.51.8 1.1 1.17 1.7-.36.2-.78.4-1.28.59ZM7.9 7.04l-.22.07c-.03-.56-.03-1.04 0-1.39.22.25.53.6.86 1.03-.18.1-.4.2-.64.29Zm3.44 3.78c.2.49.36.93.48 1.3.4-.25.78-.56 1.12-.92 0-.52-.09-1.01-.24-1.47-.36.37-.8.74-1.36 1.1Zm1.6-1.35c.16.43.27.9.3 1.39l.16-.21a4.69 4.69 0 0 0 .28-2.24c-.16.31-.4.67-.74 1.06Zm-.13-.33a6.08 6.08 0 0 0-1.1-1.64 3.95 3.95 0 0 0 .5-1.02c.47.4.9.93 1.28 1.6-.13.28-.34.66-.68 1.06Zm.62-1.76c-.35-.5-.73-.9-1.14-1.23.04-.16.06-.31.08-.45a4.7 4.7 0 0 1 1.06 1.68Zm-3.3-2.3c.63.16 1.27.42 1.89.86l.06-.5c-.24-.21-.5-.4-.77-.55v.02c-.41-.15-.79-.23-1.13-.27 0 .14-.02.3-.04.44Zm-.66-.77a4.77 4.77 0 0 0-.69-.02c0 .04 0 .09-.02.13.21-.05.45-.1.7-.1Zm-.84.48c.33-.11.74-.19 1.24-.17l-.04.4a5.95 5.95 0 0 0-1.27-.1l.07-.13Zm3.3 1.48a5.2 5.2 0 0 0-1.86-.88 2.46 2.46 0 0 1-.25.6 9.09 9.09 0 0 1 1.67 1.28 3.4 3.4 0 0 0 .45-1Zm-2.3-.56.14-.39a5.56 5.56 0 0 0-1.47-.08c.39.15.82.35 1.25.6a2 2 0 0 0 .07-.13Zm1.89 2.05c.44.48.8 1.03 1.06 1.64-.35.37-.8.76-1.37 1.13a17.37 17.37 0 0 0-.87-1.73c.51-.33.9-.69 1.18-1.04Zm-1.87-1.5a8.78 8.78 0 0 1 1.65 1.27 4.6 4.6 0 0 1-1.12 1C9.8 7.93 9.4 7.35 9 6.84c.27-.18.48-.38.64-.59Zm-.28-.17c-.14.18-.32.34-.55.5l-.87-1.04.09-.07c.4.15.86.35 1.33.61Z" fill="#fff"/></svg>