<!-- by TradingView --><svg width="18" height="18" viewBox="0 0 18 18" xmlns="http://www.w3.org/2000/svg"><path fill="#BE0003" d="M0 0h18v18H0z"/><path d="m14 4.07-.77 2.88-.56-.09c.02-1.77-1.49-2.33-2.48-2.33s-1.95.5-1.95 1.42c0 .93 1.3 1.63 2.1 2.03.8.4 2.66 1.46 2.66 3.11C13 14 9.2 14 8.09 14h-.03c-1.07 0-2.34-.53-2.77-.53-.34 0-.62.35-.7.53H4l.73-3.19h.56c0 1.52 1.03 2.66 2.77 2.66 1.75 0 2.52-1.03 2.52-1.68 0-.65-.73-1.42-1.6-1.9C8.14 9.38 6 8.18 6 6.73 6 4.67 8.32 4 9.76 4s2.24.42 2.8.42c.45 0 .74-.23.84-.35h.6Z" fill="#FFFEFF"/></svg>