<!-- by TradingView --><svg width="18" height="18" viewBox="0 0 18 18" xmlns="http://www.w3.org/2000/svg"><path fill="#F0F3FA" d="M0 0h18v18H0z"/><path d="M9 14A5 5 0 1 1 9 4a5 5 0 0 1 0 10ZM9 3a6 6 0 1 0 .02 12.02A6 6 0 0 0 9 3Z"/><path d="M12.87 7.53a.54.54 0 0 0-.45-.23c-.22 0-.44.12-.62.34C10.88 8.76 10.2 9 9.8 9a.85.85 0 0 1-.55-.18l-.08-.08a.93.93 0 0 1-.19-.57c.01-.41.26-1.07 1.36-1.98.23-.2.36-.42.35-.64a.6.6 0 0 0-.24-.44.64.64 0 0 0-.37-.11c-.25 0-.5.13-.76.4-1.05 1.04-1.35 2.08-.9 3-.27-.14-.56-.2-.86-.2-.69 0-1.44.38-2.15 1.1-.58.58-.39.98-.28 1.13.1.13.28.22.46.22.22 0 .44-.12.61-.32.93-1.13 1.6-1.36 2.01-1.36.3 0 .49.13.56.18l.08.07c.05.08.18.27.18.58-.01.4-.26 1.07-1.37 2-.28.22-.34.44-.34.6 0 .18.09.34.23.46.12.1.25.14.37.14.23 0 .49-.14.75-.4 1.05-1.05 1.36-2.1.9-3.02.27.14.56.2.86.2.7 0 1.42-.37 2.15-1.1.45-.45.54-.81.3-1.15Z" fill="#CE161D"/></svg>