<!-- by TradingView --><svg width="18" height="18" viewBox="0 0 18 18" xmlns="http://www.w3.org/2000/svg"><path fill="#F0F3FA" d="M0 0h18v18H0z"/><path fill="#2E3092" d="M4 4h10v10H4z"/><path fill="#EE1D23" d="M8 8h2v2H8z"/><path d="M7.43 5A2.44 2.44 0 0 0 5 7.46v.08A2.44 2.44 0 0 0 7.43 10H10V8.61h-.29v1.11H7.43a2.09 2.09 0 0 1-2.14-2.18v-.08c0-1.26.89-2.18 2.14-2.18h5.28v.83H13V5H7.43Zm3.14 8c1.34 0 2.43-1.1 2.43-2.46v-.08A2.44 2.44 0 0 0 10.57 8H8v1.39h.29V8.28h2.28c1.25 0 2.14.92 2.14 2.18v.08c0 1.26-.89 2.18-2.14 2.18H5.3v-.83H5V13h5.57Z" fill="#fff"/></svg>