<!-- by TradingView --><svg width="18" height="18" viewBox="0 0 18 18" xmlns="http://www.w3.org/2000/svg"><path fill="#F0F3FA" d="M0 0h18v18H0z"/><path d="M15 9A6 6 0 1 1 3 9a6 6 0 0 1 12 0Zm-.3 0A5.7 5.7 0 1 0 3.3 9a5.7 5.7 0 0 0 11.4 0Z" fill="#231815"/><path d="M10 13.85v-.02l.03-.03a3.7 3.7 0 0 0 1.54-.92c1.28-1.25 1.28-3.33.43-4.63a3.73 3.73 0 0 0-2.62-1.6 2.47 2.47 0 0 0-1.77.43 2.37 2.37 0 0 0-.8 2.8c.23.62.69 1.07 1.37 1.35h-.06v.01c.02 0 .02 0 0 .01l-.06-.01a4.05 4.05 0 0 1-1.77-.97c-2.08-2.52-.8-5.33 1.86-6.15a4.94 4.94 0 0 1 5.48 6.64 4.95 4.95 0 0 1-3.62 3.09Z" fill="#E50012"/><path d="M8.15 4.12c-1.25.47-2.41 1.28-2.7 2.7v.04a.45.45 0 0 0-.05.25l-.03.1a3.69 3.69 0 0 0 2.75 4.03h.06a2.38 2.38 0 1 0 1.2-4.6c1.15.1 2.16.8 2.76 1.78l.25.5a3.65 3.65 0 0 1-.86 4 3.64 3.64 0 0 1-3.4.95 4.95 4.95 0 0 1 .02-9.75Z" fill="#003B8F"/><path d="M8.75 7.22a.26.26 0 1 1 .28.25.27.27 0 0 1-.28-.25ZM7.7 7.6l.01-.1a.26.26 0 0 1 .44-.11.26.26 0 1 1-.44.21ZM10.06 7.82a.26.26 0 1 0 0-.52.26.26 0 0 0 0 .52ZM8.22 9.22a.21.21 0 1 0 0-.43.21.21 0 0 0 0 .43ZM9 9.22a.21.21 0 1 0 0-.43.21.21 0 0 0 0 .43ZM9 8.43a.2.2 0 1 0 0-.41.2.2 0 0 0 0 .41ZM10.7 8.7a.26.26 0 1 0 0-.51.26.26 0 0 0 0 .52ZM7.3 9.8a.25.25 0 1 0 0-.5.25.25 0 0 0 0 .5ZM7.32 8.68a.25.25 0 1 0 0-.5.25.25 0 0 0 0 .5ZM10.69 9.3h.09a.26.26 0 1 1-.1 0ZM9.15 9.63a.2.2 0 1 1-.3.02c.06-.1.22-.1.3-.02ZM7.96 10.7a.26.26 0 1 0 0-.52.26.26 0 0 0 0 .52ZM10.05 10.7a.25.25 0 1 0 0-.52.25.25 0 0 0 0 .51ZM9 11.04a.26.26 0 1 0 0-.52.26.26 0 0 0 0 .52Z" fill="#F0E200"/></svg>