<!-- by TradingView --><svg width="18" height="18" viewBox="0 0 18 18" xmlns="http://www.w3.org/2000/svg"><path fill="#F0F3FA" d="M0 0h18v18H0z"/><path fill-rule="evenodd" d="M13.22 13.06S14 11.03 14 9c0-2.42-.94-4.22-.94-4.22S11.5 4 9 4c-2.03 0-4.22.78-4.22.78S4 6.81 4 9c0 2.03.78 4.06.78 4.06s1.5.72 3.22.94v-1.5c0-.04-.03-.15-.16-.15l-.53-.07c-.2 0-.31-.03-.31-.15V10.4c.04.04.07.07.08.1l.04.03c.03.02.07.02.2.02h1.05c.1 0 .32.03.32.16V14h.15V9.3a4.89 4.89 0 0 1-.93-2.33c0-.94.57-1.56 1.09-1.56.52 0 1.1.62 1.1 1.56 0 .47-.4 1.65-.94 2.32V14h.15v-3.28c0-.13.21-.16.31-.16h1.07c.12 0 .16 0 .19-.02l.04-.04.08-.1v1.72c0 .13-.1.16-.16.16l-.68.04c-.13 0-.16.1-.16.16V14c2.19-.19 3.22-.94 3.22-.94ZM8.37 4.94c-.12 0-.26.1-.3.15.24.13.3.26.3.32.1 0 .35-.04.47-.16.16-.16-.3-.31-.46-.31Zm1.57.15c-.05-.05-.19-.15-.31-.15-.16 0-.63.15-.47.31.12.13.36.16.46.16 0-.06.07-.2.32-.32ZM6.8 6.97c0 1.25 1.15 1.98 1.72 2.19a5.25 5.25 0 0 1-.78-2.2c0-.53.22-.92.36-1.16.06-.11.1-.19.1-.24 0-.15-.15-.31-.46-.31-.31 0-.94.37-.94 1.72Zm2.66 2.19c.57-.21 1.72-.94 1.72-2.2 0-1.34-.63-1.71-.94-1.71-.31 0-.47.16-.47.31 0 .05.05.13.1.24.15.24.37.63.37 1.17 0 .62-.47 1.72-.78 2.19Z" fill="#EB6325"/></svg>