<!-- by TradingView --><svg xmlns="http://www.w3.org/2000/svg" width="18" height="18"><path fill="#F0F3FA" d="M0 0h18v18H0z"/><path d="M6 8.54l-.86-.23c-.36-.08-.72-.24-.72-.68 0-.47.45-.63.85-.63.45 0 1.13.1 1.17.71H7.5C7.5 6.61 6.48 6 5.32 6c-1.04 0-2 .63-2 1.74 0 .68.37 1.2 1 1.41.58.23 1.11.28 1.68.52.28.12.44.3.44.62 0 .57-.6.71-.97.71C4.65 11 4 10.7 4 10H3c0 1.33 1.2 2 2.42 2 1.14 0 2.08-.57 2.08-1.82 0-1-.64-1.43-1.5-1.64z" fill="#434C4D"/><path d="M14 6l-1 4-1-4h-1l-1 4-1-4H8l1.5 6h1l1-4 1 4h1L15 6h-1z" fill="#79B801"/></svg>