<!-- by TradingView --><svg width="18" height="18" viewBox="0 0 18 18" xmlns="http://www.w3.org/2000/svg"><path fill="#F0F3FA" d="M0 0h18v18H0z"/><path d="M12.39 7A4.36 4.36 0 0 1 16 8.71 4.46 4.46 0 0 0 13.56 8c-2.74 0-5.65 3-7.87 3C3.92 11 2.5 9.4 2 8.6c.65.72 1.47 1.23 2.3 1.23C6.46 9.83 9.87 7 12.39 7Z" fill="#2A3D8F"/><path d="M13.04 9c1.4 0 2.56 1.27 2.96 1.9a5.05 5.05 0 0 0-2.96-1.23c-1.23 0-3.2.87-4.04 1.33.76-.67 2.64-2 4.04-2ZM2 7.23c.44.34 1.4 1.27 2.55 1.27S8.1 7.22 9 7c-.78.53-3.12 2-4.44 2-1.3 0-2.18-1.24-2.55-1.77Z" fill="#2A3D8F"/></svg>