<!-- by TradingView --><svg width="18" height="18" viewBox="0 0 18 18" xmlns="http://www.w3.org/2000/svg"><path fill="#F0F3FA" d="M0 0h18v18H0z"/><path d="M6 13.48V15l4.84-3.49.4-.5.25-1.37-1.84-.62c.14.12.42.46.42.89s-.55.82-.83.96l-2.43 1.3c-.5.26-.81.77-.81 1.31Z" fill="url(#a)"/><path d="M11.04 10.86c0 .36-.24.67-.35.77a2.93 2.93 0 0 0 1.3-2.42V7.53c0-.3-.24-.53-.56-.53h-.1c-.2 0-.39.05-.56.15l-1.17.64c-.13.05-.4.23-.4.52 0 .33.3.62.44.72l.53.49c.36.3.87.89.87 1.34Z" fill="url(#b)"/><path d="M12 4.52V3L7.16 6.49l-.4.5-.25 1.37 1.84.62a1.24 1.24 0 0 1-.42-.89c0-.43.55-.82.83-.96l2.43-1.3c.5-.26.81-.77.81-1.31Z" fill="url(#c)"/><path d="M6.96 7.14c0-.36.24-.67.35-.77a2.93 2.93 0 0 0-1.3 2.42v1.68c0 .3.24.53.56.53h.1c.2 0 .39-.05.56-.15l1.17-.64c.13-.05.4-.23.4-.52 0-.33-.3-.62-.44-.72l-.53-.49c-.36-.3-.87-.89-.87-1.34Z" fill="url(#d)"/><defs><linearGradient id="a" x1="11.22" y1="10.68" x2="6.34" y2="10.68" gradientUnits="userSpaceOnUse"><stop stop-color="#002A81"/><stop offset="1" stop-color="#00A8E7"/></linearGradient><linearGradient id="b" x1="9.27" y1="8.29" x2="12.09" y2="8.29" gradientUnits="userSpaceOnUse"><stop stop-color="#00358B"/><stop offset="1" stop-color="#00BBFB"/></linearGradient><linearGradient id="c" x1="6.78" y1="7.32" x2="11.66" y2="7.32" gradientUnits="userSpaceOnUse"><stop stop-color="#002A81"/><stop offset="1" stop-color="#00A8E7"/></linearGradient><linearGradient id="d" x1="8.73" y1="9.71" x2="5.91" y2="9.71" gradientUnits="userSpaceOnUse"><stop stop-color="#00358B"/><stop offset="1" stop-color="#00BBFB"/></linearGradient></defs></svg>