<!-- by TradingView --><svg width="18" height="18" viewBox="0 0 18 18" xmlns="http://www.w3.org/2000/svg"><path fill="#F0F3FA" d="M0 0h18v18H0z"/><path d="M10.85 12.05a.85.85 0 0 0-.03-.63 1 1 0 0 0-.46-.48c-.12-.06-1.26-.58-3.42-1.54-1.5-.67-2.1-1.77-1.79-3.32.13-.6.47-1.05 1.03-1.34a5.7 5.7 0 0 1 5.94.2.76.76 0 0 1 .37.64v.15c0 .27-.12.33-.35.2C10.2 4.8 8.69 4.62 7.6 5.4a1 1 0 0 0-.3 1.3c.17.31.44.55.81.7 1.5.61 2.59 1.1 3.24 1.45 1.6.86 2.34 2.99.77 4.23-.65.51-1.43.8-2.35.88-1.45.1-3.98.02-4.7-1.26-.1-.2-.1-.36-.02-.5a.3.3 0 0 1 .2-.15.31.31 0 0 1 .25.05 4.93 4.93 0 0 0 4.54.72c.4-.13.66-.39.8-.78Z" fill="#8DC21F"/></svg>