<!-- by TradingView --><svg width="18" height="18" viewBox="0 0 18 18" fill="none" xmlns="http://www.w3.org/2000/svg">
<rect width="18" height="18" fill="#F0F3FA"/>
<path d="M7.08595 7.90855C7.07171 7.71808 7.00497 7.56951 6.88574 7.46284C6.76828 7.35618 6.58942 7.30284 6.34917 7.30284C6.19611 7.30284 6.07065 7.32284 5.97277 7.36284C5.87666 7.40094 5.80548 7.45332 5.75921 7.51998C5.71293 7.58665 5.68891 7.66284 5.68713 7.74855C5.68357 7.81903 5.69514 7.88284 5.72183 7.93998C5.75031 7.99522 5.7948 8.04569 5.85531 8.09141C5.91582 8.13522 5.99323 8.17522 6.08755 8.21141C6.18188 8.2476 6.294 8.27998 6.42391 8.30855L6.87239 8.4114C7.17493 8.47998 7.43387 8.57045 7.64921 8.68283C7.86456 8.79521 8.04074 8.92759 8.17778 9.07997C8.31481 9.23044 8.41536 9.39997 8.47943 9.58854C8.54528 9.77711 8.57909 9.98282 8.58087 10.2057C8.57909 10.5904 8.48922 10.9161 8.31125 11.1828C8.13329 11.4495 7.87879 11.6523 7.54777 11.7914C7.21853 11.9304 6.82256 11.9999 6.35984 11.9999C5.88467 11.9999 5.47001 11.9247 5.11585 11.7742C4.76348 11.6238 4.48941 11.3923 4.29365 11.0799C4.09966 10.7657 4.00178 10.3638 4 9.87425H5.4095C5.4184 10.0533 5.46022 10.2038 5.53497 10.3257C5.60971 10.4476 5.71471 10.54 5.84997 10.6028C5.987 10.6657 6.14984 10.6971 6.33849 10.6971C6.49688 10.6971 6.62946 10.6761 6.73624 10.6342C6.84302 10.5923 6.924 10.5342 6.97917 10.46C7.03434 10.3857 7.06281 10.3009 7.06459 10.2057C7.06281 10.1161 7.03523 10.0381 6.98184 9.97139C6.93023 9.90282 6.8448 9.84187 6.72557 9.78853C6.60633 9.7333 6.44527 9.68187 6.24239 9.63425L5.69781 9.50854C5.21374 9.39616 4.832 9.20854 4.55259 8.94569C4.27496 8.68093 4.13703 8.31998 4.13881 7.86284C4.13703 7.49141 4.22958 7.16666 4.41644 6.88856C4.60509 6.60857 4.86581 6.39047 5.19861 6.23428C5.53319 6.07809 5.91671 6 6.34917 6C6.79052 6 7.17226 6.07905 7.49438 6.23714C7.8165 6.39523 8.06477 6.61809 8.23918 6.90571C8.41536 7.19142 8.50435 7.5257 8.50613 7.90855H7.08595Z" fill="black"/>
<path d="M9.43066 11.9999V6H11.8402C12.2635 6 12.6189 6.14 12.9065 6.26C13.196 6.38 13.4139 6.54952 13.5605 6.76856C13.7088 6.98761 13.783 7.2457 13.783 7.54284C13.783 7.75808 13.7377 7.95427 13.6473 8.13141C13.5587 8.30855 13.4338 8.45712 13.2728 8.57712C13.1119 8.69521 12.9237 8.77712 12.7085 8.82283V8.87997C12.9472 8.8895 13.1643 8.9533 13.3597 9.0714C13.555 9.18759 13.7106 9.34854 13.8264 9.55425C13.9422 9.75806 14 9.99806 14 10.2742C14 10.5942 13.9204 10.879 13.7613 11.1285C13.6039 11.378 13.3796 11.5742 13.0883 11.7171C12.7971 11.8599 12.4498 11.9999 12.0464 11.9999H9.43066ZM11 10.6628H11.6448C11.8981 10.6628 12.088 10.6133 12.2146 10.5142C12.3412 10.4133 12.4046 10.2647 12.4046 10.0685C12.4046 9.93139 12.3747 9.8152 12.315 9.71996C12.2553 9.62473 12.1703 9.55235 12.06 9.50282C11.9514 9.4533 11.8203 9.42854 11.6665 9.42854H11V10.6628ZM11 8.44569H11.558C11.69 8.44569 11.8067 8.42379 11.908 8.37998C12.0093 8.33617 12.088 8.27331 12.1441 8.19141C12.202 8.1076 12.2309 8.00569 12.2309 7.8857C12.2309 7.70474 12.1694 7.56665 12.0464 7.47141C11.9234 7.37427 11.7678 7.3257 11.5797 7.3257H11V8.44569Z" fill="#747474"/>
</svg>
