<!-- by TradingView --><svg width="18" height="18" viewBox="0 0 18 18" xmlns="http://www.w3.org/2000/svg"><path fill="#F0F3FA" d="M0 0h18v18H0z"/><path d="M7.3 9.95c-.75 0-1.38-.68-1.59-.96-.12-.19-.32-.42-.13.1.28.67.92 1.91 1.94 1.91 1.03 0 1.54-.98 2.03-1.53.49-.54.97-1.47 1.68-1.47.52 0 1.08.87 1.35 1.4.03.07.1.1.15.07.07-.03.1-.15.08-.25C12.42 7.98 11.63 7 11.03 7c-.62 0-1.3.84-1.76 1.41C8.8 9 8.23 9.95 7.3 9.95Z" fill="#1F2750"/><path d="M7.3 7C8 7 8.78 8.1 9.09 8.68l-.21.28C8.55 8.43 8.17 8 7.49 8c-.68 0-1.2.46-1.66 1.2-.45.72-.97 1.8-1.87 1.8-.92 0-1.64-1.47-1.94-2.35-.04-.1-.01-.23.05-.3.07-.06.16-.03.2.07.25.55.81 1.74 1.43 1.74.7 0 .7-.32 1.48-1.48C5.92 7.57 6.45 7 7.3 7ZM10.84 9.95c-.7 0-1.06-.25-1.25-.53l-.14.16c.27.67.64 1.42 1.6 1.42.96 0 1.42-1.05 1.88-1.6.46-.54.92-1.4 1.58-1.4.5 0 1.02.87 1.27 1.4.03.07.09.1.14.07.06-.03.1-.15.07-.25C15.63 7.98 14.89 7 14.33 7c-.58 0-1.23.77-1.66 1.35-.43.57-.96 1.6-1.83 1.6Z" fill="#A32428"/></svg>