<!-- by TradingView --><svg width="18" height="18" viewBox="0 0 18 18" xmlns="http://www.w3.org/2000/svg"><path fill="#F0F3FA" d="M0 0h18v18H0z"/><path d="m9 13 2.81-8h.25L15 13h-1.4l-1.14-3.05h-2.24L9.15 13H9Zm3.4-3.2-1.1-2.95-1.03 2.95h2.14ZM4 12.02v-1.57h.14c.06.34.25 1.17.78 1.75.6.65 1.11.65 1.5.65 1.35 0 1.75-1.11 1.75-1.67 0-2.14-4.03-.87-4.03-3.96C4.14 6.08 5.11 5 6.47 5c.84 0 1.56.48 1.98.88v1.34h-.12c-.3-1-.62-2.07-1.87-2.07-1.02 0-1.63.71-1.63 1.35C4.83 8.49 9 7.53 9 10.38A2.6 2.6 0 0 1 6.34 13 3.6 3.6 0 0 1 4 12.02Z"/></svg>