<!-- by TradingView --><svg width="18" height="18" viewBox="0 0 18 18" xmlns="http://www.w3.org/2000/svg"><path fill="#F0F3FA" d="M0 0h18v18H0z"/><path d="m13 5.5-.23.15a2.35 2.35 0 0 1-1.49.52c-.32 0-.67-.05-1.03-.14a40.4 40.4 0 0 1-1.87-.53c-.48-.15-.91-.23-1.28-.25a2.9 2.9 0 0 0-1.28.2c-.26.1-.53.3-.82.62V4.89c0-.04.01-.07.04-.1.39-.43.88-.7 1.47-.77a4.1 4.1 0 0 1 1.64.18l1.7.5c.63.18 1.17.25 1.63.22a2.25 2.25 0 0 0 1.47-.69c.03-.04.05-.03.05.03V5.5Z" fill="#E5571E"/><path d="M13 5.5v.94c0 .12-.02.21-.06.28a.78.78 0 0 1-.18.17c-.44.36-.95.52-1.51.5-.5 0-.95-.08-1.36-.2-.74-.23-1.4-.42-2-.58a3.45 3.45 0 0 0-1.51-.09c-.53.1-.97.35-1.32.74-.04.05-.06.04-.06-.03V6.07c.29-.32.57-.52.83-.63a2.9 2.9 0 0 1 1.27-.2c.37.03.8.11 1.28.26.64.2 1.26.37 1.87.53.36.1.7.14 1.03.13a2.35 2.35 0 0 0 1.48-.51L13 5.5Z" fill="#D4B467"/><path d="M13 9.48c-.32-.33-.7-.54-1.12-.63a4.52 4.52 0 0 0-2.1.16l-.42.12c-.52.15-.92.25-1.18.31-.44.1-.84.16-1.21.19-.71.04-1.38-.2-1.97-.71v-1.1c0-.06.02-.07.06-.03.42.42.93.65 1.54.7a4.9 4.9 0 0 0 1.7-.2l1.81-.48a4.17 4.17 0 0 1 1.49-.12c.52.06.98.26 1.35.61.03.03.05.07.05.12v1.06Z" fill="#E5571E"/><path d="M13 9.48v1.04c0 .02 0 .03-.02.04h-.04c-.33-.31-.73-.5-1.18-.6-.4-.07-.83-.06-1.29.04-.65.14-1.35.32-2.12.53-.68.2-1.31.27-1.9.2a2.33 2.33 0 0 1-1.33-.6.3.3 0 0 1-.1-.16.7.7 0 0 1-.01-.17L5 9.7v-.78c.59.51 1.26.75 1.97.7.37-.02.77-.08 1.21-.18a24.54 24.54 0 0 0 1.6-.43 4.51 4.51 0 0 1 2.1-.16c.42.09.8.3 1.12.63Z" fill="#D4B467"/><path d="M13 12.21c-.28.23-.51.4-.7.47-.31.13-.67.2-1.08.2-.35-.01-.73-.06-1.13-.17l-1.96-.5a4.76 4.76 0 0 0-1.44-.18c-.5.02-.92.17-1.3.44l-.39.3v-1.04c0-.05.02-.09.05-.12.46-.44 1-.68 1.6-.7.38-.02.8.02 1.25.11.28.06.7.16 1.24.32.55.15.97.25 1.25.31.5.1.95.12 1.35.05.46-.08.87-.28 1.21-.6h.03l.02.03v1.08Z" fill="#E5571E"/><path d="M13 12.21v1.05c0 .06-.05.11-.1.16-.53.42-1.12.62-1.79.57a8.16 8.16 0 0 1-1.85-.35c-.73-.23-1.39-.38-1.98-.46a2.82 2.82 0 0 0-1.18.08c-.4.11-.75.32-1.05.62h-.03c-.01 0-.02-.01-.02-.03v-1.09l.4-.29c.37-.27.8-.42 1.3-.44.4-.03.87.03 1.42.18l1.96.5c.4.1.78.16 1.13.16.4 0 .76-.06 1.07-.19.19-.08.44-.23.72-.47Z" fill="#D4B467"/></svg>