<!-- by TradingView --><svg width="18" height="18" viewBox="0 0 18 18" xmlns="http://www.w3.org/2000/svg"><path fill="#F0F3FA" d="M0 0h18v18H0z"/><path d="M11.2 14.43a4.58 4.58 0 0 1-3.48.4 3.94 3.94 0 0 1-1.5-.81c-.45-.4-.79-.87-1.01-1.43-.15-.36-.22-.9-.2-1.6V6.46a3 3 0 0 1 .77-2.02A4.24 4.24 0 0 1 7.69 3.2 4.24 4.24 0 0 1 10 3.12c.88.22 1.6.63 2.14 1.23.55.62.84 1.34.85 2.16v4.98a3.42 3.42 0 0 1-1.79 2.93Z" fill="#2B0E78"/><path d="M12.67 11.53a3.13 3.13 0 0 1-1.01 2.24 3.71 3.71 0 0 1-2.45.93H8.8a3.71 3.71 0 0 1-2.45-.93c-.33-.3-.58-.64-.75-1.03-.18-.38-.27-.79-.27-1.2V6.46a3.13 3.13 0 0 1 1.01-2.24A3.71 3.71 0 0 1 8.8 3.3h.41a3.71 3.71 0 0 1 2.45.93c.33.3.58.64.75 1.03.18.38.27.79.27 1.2v5.07Z" fill="#F0F3FA"/><path d="M7.99 10.18a.7.7 0 0 1-.37.56c-.2.12-.44.18-.72.17-.27 0-.5-.08-.69-.22a.7.7 0 0 1-.28-.63c0-.06.03-.08.09-.08.12.02.24.01.36 0 .08-.02.09-.04 0-.07a.7.7 0 0 1-.3-.2.6.6 0 0 1-.1-.6c.04-.1.1-.2.2-.27.18-.16.42-.24.72-.24.59 0 .93.25 1.02.74a.1.1 0 0 1-.03.1.13.13 0 0 1-.1.04h-.26c-.11 0-.12.02-.01.06.27.11.43.29.49.53 0 .01 0 .02.02.02s.03 0 .03-.02V8.8c0-.06.03-.1.1-.1h.34c.1 0 .16-.09.17-.17V8c0-.06-.04-.06-.12-.06h-.42a.1.1 0 0 1-.1-.07c-.03-.04-.02-.12.02-.15.23-.2.24-.38.03-.57-.04-.03-.08-.11-.13-.11H6.8c-.08 0-.16 0-.21-.05-.17-.22-.32-.41-.49-.66-.2-.3-.15-.59.14-.87.05-.04.1-.04.12.02l.1.18A1 1 0 0 1 6.6 6c.02.12-.03.24-.15.36-.01.02-.02.04 0 .06 0 .02.02.03.05.03h.89c.08 0 .1-.03.05-.09-.22-.3-.18-.6.12-.89a.06.06 0 0 1 .06-.01c.02 0 .04.01.05.03l.24.47c.02.04.02.08 0 .12l-.16.3c-.04.06-.02.09.06.08l.13-.01c.05 0 .07-.03.07-.07-.02-.26.04-.5.2-.71.02-.05.04-.1.04-.16.01-.54.23-1.01.64-1.42a.08.08 0 0 1 .06-.02c.02 0 .04 0 .05.02.41.4.62.87.64 1.41 0 .07.03.12.07.18.15.2.2.43.16.68 0 .04.02.08.07.1.07.01.14 0 .2-.02l.04-.04c0-.02 0-.03-.02-.04-.13-.11-.18-.24-.15-.4.02-.09.08-.22.19-.4l.04-.07a.07.07 0 0 1 .05-.03c.02 0 .04 0 .06.02.3.28.33.58.1.9-.02.02-.02.03 0 .05 0 0 .01.02.03.02h.95c.02 0 .04 0 .05-.03l-.01-.05c-.13-.12-.18-.24-.17-.36 0-.07.06-.19.14-.33l.1-.18c.03-.06.07-.06.12-.01.24.23.3.45.22.67-.13.32-.27.56-.45.82-.04.05-.1.07-.17.07H10.2c-.2-.01-.33.16-.38.36-.01.04 0 .08.02.12l.2.3c.01.03.02.05 0 .08-.01.02-.04.04-.07.04h-.47c-.07 0-.1-.01-.1.05l.02.59c0 .05.02.08.07.1.15.08.26.18.35.3.08.12.12.24.13.37a.7.7 0 0 1-.1.38.97.97 0 0 1-.33.33c-.04.03-.06.07-.06.12a38.06 38.06 0 0 1 .07.85c0 .26-.01.47-.05.64a.93.93 0 0 0-.01.36c0 .04.02.07.05.1l.9.84c.05.04.09.05.14.05h.96c.1 0 .13.05.07.13l-.32.4a.32.32 0 0 1-.26.13h-4a.33.33 0 0 1-.26-.12l-.33-.41c-.06-.08-.04-.12.07-.12h.96c.05 0 .1-.02.14-.06l.9-.86a.13.13 0 0 0 .04-.06.73.73 0 0 0 0-.4 1.77 1.77 0 0 1 0-.73c0-.06-.03-.1-.1-.1l-.3.01a.1.1 0 0 1-.07-.03.09.09 0 0 1-.04-.06 4.5 4.5 0 0 1 .01-.6h-.04c-.02 0-.03 0-.03.03Z" fill="#2B0E78"/><path d="M9 5.6a.05.05 0 0 0-.03-.03l-.04.01c-.3.26-.34.52-.13.79.05.05.03.08-.04.08h-.48c-.03 0-.06-.01-.08-.03a.1.1 0 0 1-.03-.07.95.95 0 0 1 .21-.65.19.19 0 0 0 .04-.12c0-.44.16-.85.46-1.25a.07.07 0 0 1 .06-.03c.03 0 .05.01.06.03.31.37.47.78.47 1.21 0 .06.02.11.05.16a1 1 0 0 1 .21.65c0 .07-.04.1-.11.1h-.46c-.03 0-.05-.02-.06-.04-.02-.03-.01-.05.01-.07.05-.06.1-.12.13-.18A.18.18 0 0 0 9.23 6L9 5.6ZM7.62 5.78a.4.4 0 0 1 .13.24c0 .1-.03.17-.12.22-.06.04-.1.03-.12-.03a.55.55 0 0 1 0-.4c.02-.07.06-.08.1-.03ZM10.17 6c-.02.14.03.25.1.26.07.01.15-.1.16-.24.02-.14-.03-.25-.1-.26-.07 0-.15.1-.16.24ZM6.15 6.03c.02.14.09.24.16.23.08 0 .13-.12.11-.25 0-.14-.08-.24-.16-.23-.07 0-.12.12-.1.25ZM11.48 6c-.01.14.03.26.1.26.08 0 .14-.1.16-.24.01-.13-.04-.25-.1-.26-.08 0-.15.1-.16.24Z" fill="#F0F3FA"/><path d="M8.83 6.08c.02.1.08.18.14.17.07 0 .1-.1.1-.2-.02-.1-.08-.17-.14-.17-.07 0-.1.1-.1.2ZM11.23 6.9H6.78c-.01 0-.03 0-.04-.02l-.19-.22v-.04l.04-.02h4.81c.02 0 .04 0 .05.02v.04l-.17.22-.05.02ZM9.73 7.05c.02 0 .03.01.03.04v.01c0 .07-.03.13-.07.18a.2.2 0 0 1-.15.07H8.52a.2.2 0 0 1-.16-.07.25.25 0 0 1-.06-.18V7.1c0-.03 0-.04.03-.04h1.4ZM8.32 7.8c-.02 0-.03-.01-.03-.04v-.02c0-.06.02-.12.06-.17a.18.18 0 0 1 .15-.07h1.05c.05 0 .1.02.14.07.04.05.06.1.06.17v.02c0 .03 0 .04-.03.04h-1.4ZM9.22 7.95h-.36c-.02 0-.04.02-.04.04v.67c0 .02.02.04.04.04h.35c.03 0 .04-.01.04-.03v-.68c0-.02-.01-.04-.03-.04Z" fill="#F0F3FA"/><path d="M11.9 9.7c.15.17.2.36.15.55a.66.66 0 0 1-.38.43c-.12.06-.3.1-.53.11H10.1c-.06 0-.1-.03-.1-.1V8.78c0-.02.02-.03.03-.05a237.66 237.66 0 0 1 1.17-.02c.14 0 .27.02.4.07.11.05.2.11.28.2.07.08.11.17.12.28 0 .11-.03.23-.1.35-.03.03-.03.07 0 .1Z" fill="#2B0E78"/><path d="M7.3 10.42c.12-.05.18-.13.19-.26 0-.04-.01-.09-.04-.12a.2.2 0 0 0-.11-.08 8.72 8.72 0 0 0-.74-.17.58.58 0 0 1-.33-.16.42.42 0 0 1-.12-.27c0-.1.02-.2.08-.3.07-.09.16-.16.28-.2.22-.1.45-.11.68-.06.25.06.42.2.5.4.03.05.02.08-.04.1a.39.39 0 0 1-.14.01.16.16 0 0 1-.12-.06.59.59 0 0 0-.23-.17.81.81 0 0 0-.3-.07c-.11 0-.2.02-.27.06a.31.31 0 0 0-.14.24c0 .06 0 .1.04.14.04.05.08.07.14.08.28.04.53.1.76.16.13.04.24.1.31.2.07.07.1.17.1.27s-.03.2-.1.28a.59.59 0 0 1-.28.2c-.42.13-.79.1-1.11-.11-.11-.07-.16-.16-.15-.28.01-.05.04-.09.1-.1.06-.02.11 0 .15.04.22.3.52.37.9.23ZM8.58 10.04v.54c0 .02 0 .04-.02.06a.1.1 0 0 1-.07.02h-.13c-.03 0-.06 0-.08-.02a.1.1 0 0 1-.03-.07V8.9c0-.04.02-.07.07-.07h.91a.6.6 0 0 1 .38.15c.1.08.15.18.17.3.03.12.01.24-.04.35a.57.57 0 0 1-.27.27.75.75 0 0 1-.29.06 2.95 2.95 0 0 1-.5-.01.1.1 0 0 0-.07.03.08.08 0 0 0-.03.06Z" fill="#F0F3FA"/><path d="M8.58 9.17a.1.1 0 0 1 .04-.08.11.11 0 0 1 .07-.03h.38c.11 0 .2.03.28.1.08.05.12.13.12.21v.03c0 .09-.04.16-.12.22a.43.43 0 0 1-.28.1H8.7a.11.11 0 0 1-.08-.03.09.09 0 0 1-.03-.07v-.45Z" fill="#2B0E78"/><path d="m6.66 9.34-.02-.03V9.3c.02-.05.06-.09.12-.11a.35.35 0 0 1 .2 0H7c.08.02.13.05.17.1.05.05.06.1.05.15v.01c-.01.02-.02.02-.04.02l-.52-.13ZM8.78 9.3c0-.04.03-.06.07-.06H9c.07 0 .14.02.2.05.05.02.08.06.08.1v.03c0 .03-.03.07-.09.1a.47.47 0 0 1-.2.03h-.15c-.04 0-.06-.03-.06-.07V9.3ZM11.53 9.71c.12.06.2.14.26.24.04.09.06.18.03.28a.46.46 0 0 1-.16.24.61.61 0 0 1-.31.14c-.32.04-.68.05-1.1.03-.05 0-.08-.04-.08-.09V8.94c0-.04.02-.07.07-.07h.19c.36-.03.63-.02.81 0 .32.05.49.18.51.38.03.17-.04.3-.22.38-.05.03-.05.05 0 .08Z" fill="#F0F3FA"/><path d="m10.48 9.18.03-.06a.1.1 0 0 1 .07-.03h.49c.1 0 .19.03.26.08.08.05.11.1.11.17v.02c0 .07-.04.12-.11.17a.48.48 0 0 1-.27.07h-.48a.1.1 0 0 1-.07-.04.08.08 0 0 1-.03-.06v-.32Z" fill="#2B0E78"/><path d="M11.13 9.41a.58.58 0 0 1-.42-.01c-.1-.04-.1-.08 0-.11a.79.79 0 0 1 .4-.02c.19.04.2.08.02.14Z" fill="#F0F3FA"/><path d="M10.48 9.9c0-.03 0-.05.03-.07a.1.1 0 0 1 .08-.02h.48c.12 0 .22.02.3.08.09.05.13.12.13.2v.04c0 .08-.04.15-.13.2a.56.56 0 0 1-.3.08h-.48a.12.12 0 0 1-.08-.03.09.09 0 0 1-.03-.06V9.9Z" fill="#2B0E78"/><path d="M11.16 9.97h-.37c-.07 0-.13.05-.13.11v.04c0 .06.05.11.13.12h.36c.07 0 .13-.04.13-.1v-.05c0-.06-.05-.11-.12-.12ZM6.9 10.28c.17.04.33.01.35-.05.01-.07-.12-.15-.3-.19-.18-.03-.34 0-.36.06-.01.07.12.15.3.18ZM8.7 11.54l.08-1.2c0-.04.03-.07.06-.1a.18.18 0 0 1 .12-.04h.2c.05 0 .09.01.12.04.04.03.05.06.06.1l.03 1.2c0 .05-.02.09-.05.12a.18.18 0 0 1-.13.04h-.32a.18.18 0 0 1-.13-.05.13.13 0 0 1-.04-.11ZM9.22 11.85h-.38c-.06 0-.11.05-.11.11v.08c0 .06.05.11.1.11h.4c.05 0 .1-.05.1-.11v-.08a.11.11 0 0 0-.1-.11ZM8.32 12.6l-.01-.02c0-.07.04-.14.12-.2a.53.53 0 0 1 .3-.08h.6c.11 0 .21.02.3.08.07.05.12.12.12.2l-.02.01-1.4.01ZM10.16 13.04l-2.26.01c-.03 0-.04-.01-.05-.03l.01-.06.19-.2a.05.05 0 0 1 .03-.01h1.89l.03.02.2.18v.06c0 .02-.02.03-.04.03ZM6.82 13.2h4.42c.04 0 .06.01.08.04.01.02 0 .05-.01.07l-.19.16a.09.09 0 0 1-.06.03H7.02c-.02 0-.04 0-.06-.02l-.2-.17c-.02-.02-.02-.05-.01-.07.01-.03.04-.04.07-.04Z" fill="#F0F3FA"/></svg>