<!-- by TradingView --><svg width="18" height="18" viewBox="0 0 18 18" xmlns="http://www.w3.org/2000/svg"><path fill="#F0F3FA" d="M0 0h18v18H0z"/><path fill-rule="evenodd" d="M10.73 13.61c.41-.25.73-.62.95-1.1.07-.14.1-.28.13-.42a2266.84 2266.84 0 0 0 1.18-8.07 4.2 4.2 0 0 0-5.03.08 2.54 2.54 0 0 0-1.64 1.4c-.09.2-.15.49-.2.84L5 13.94c0 .04.01.06.06.06h4.22c.54 0 1.03-.13 1.45-.39Zm-.64-9c.04-.02.06-.06.05-.1-.01-.03-.06-.05-.1-.03-.04.02-.06.06-.05.1.02.02.06.04.1.02Zm-1 .14a.12.12 0 0 1-.12.09c-.02 0-.03-.01-.04-.03l.01-.07c0-.02.03-.03.05-.04.03 0 .06 0 .09.02.01 0 .02.02.01.03Zm1.04-.03h.04c.03 0 .06.03.06.05l-.02.59c0 .02-.03.05-.06.05h-.04a.05.05 0 0 1-.05-.06l.01-.58c0-.03.03-.05.06-.05Zm-.49.02a.07.07 0 0 0-.06.09l.15.5c.02.04.06.06.1.05a.07.07 0 0 0 .06-.1l-.15-.5a.08.08 0 0 0-.1-.04Zm1.47.2c.02 0 .03-.01.03-.03v-.1l-.04-.02h-.02a.17.17 0 0 0-.08.03c-.02.01-.03.03-.03.05v.01c0 .02.01.04.04.05l.08.01h.02Zm-.78.51c.1-.2.16-.4.2-.58 0-.05.03-.06.08-.05l.02.01c.03.01.04.02.03.05-.02.2-.08.38-.17.57a.1.1 0 0 1-.1.06.1.1 0 0 1-.03 0c-.03-.02-.04-.03-.03-.06Zm-1.2-.57.02-.01a.07.07 0 0 1 .1.02l.3.45c.03.03.02.07-.01.09l-.02.01a.07.07 0 0 1-.1-.02l-.3-.45a.06.06 0 0 1 .01-.1Zm1.9.17a.07.07 0 0 0-.1.02l-.34.52a.06.06 0 0 0 .03.1c.03.01.08 0 .1-.03l.34-.52a.06.06 0 0 0-.03-.09Zm-2.24.06.43.34c.03.02.03.07 0 .1a.08.08 0 0 1-.1.02l-.43-.34a.07.07 0 0 1-.01-.1.08.08 0 0 1 .11-.02Zm2.55.25a.07.07 0 0 0-.1 0l-.46.45a.06.06 0 0 0 0 .1c.03.02.07.02.1 0l.46-.45a.06.06 0 0 0 0-.1Zm-3.27.15c-.03-.02-.03-.07 0-.1.02-.04.07-.05.1-.03.03.02.03.07 0 .1-.02.04-.07.05-.1.03Zm.85.12-.53-.2a.07.07 0 0 0-.1.04v.01c-.01.04 0 .08.04.1l.53.2c.04 0 .08-.01.1-.04v-.02a.07.07 0 0 0-.04-.09Zm2.77-.02c0 .04-.04.07-.08.07a.08.08 0 0 1-.08-.07c0-.05.04-.08.08-.08s.08.03.08.08Zm-.73 1.25a.17.17 0 0 1-.06-.04V6.8c0-.01 0-.02.02-.02.2.01.4-.01.59-.07.02 0 .03-.02.03-.04v-.02c-.02-.04-.05-.06-.1-.05-.18.03-.37.04-.55.04-.05 0-.1.01-.13.06a.08.08 0 0 1-.08.03l-.05-.01-.03-.02v-.03a.7.7 0 0 0 .17-.4.6.6 0 0 0-.1-.36.85.85 0 0 0-.3-.27 1.07 1.07 0 0 0-.4-.13.93.93 0 0 0-.9.38.16.16 0 0 1-.13.06c-.33.01-.61.06-.84.16-.26.12-.48.3-.64.53a.75.75 0 0 0-.14.33c-.02.13.02.24.1.34v.03c0 .02 0 .03-.02.03a.8.8 0 0 0-.51.42.6.6 0 0 0-.08.33c.01.1.05.18.11.25.07.07.15.11.26.14.1.02.22.01.34-.02l.06-.03c.09-.05.11-.1.06-.16-.3.15-.5.13-.6-.06-.1-.21-.07-.4.1-.57.18-.19.43-.26.74-.23a.3.3 0 0 1 .18.09c.06.05.07.1.04.17l-.04.02c-.01 0-.03-.01-.03-.03a.23.23 0 0 0-.05-.07.07.07 0 0 0-.08-.02c-.07.02-.11.06-.13.1a.16.16 0 0 0 .01.14c.03.05.07.08.12.1.05.02.1.02.16-.01.14-.08.21-.2.21-.34 0-.08-.05-.15-.16-.2a.7.7 0 0 0-.33-.1.7.7 0 0 1-.12 0 .2.2 0 0 1-.1-.05.32.32 0 0 1-.07-.36 1.19 1.19 0 0 1 .74-.68 2.52 2.52 0 0 1 .85-.1c.35.03.59.13.72.33.05.08.08.16.08.24 0 .08-.01.15-.05.22a.46.46 0 0 1-.16.18.59.59 0 0 1-.26.08c-.06 0-.1-.01-.14-.05-.04-.03-.04-.08-.02-.13 0-.02.02-.04.04-.05l.08-.03c.02 0 .03-.02.04-.03 0-.02 0-.03-.02-.05-.06-.07-.13-.1-.21-.1a.25.25 0 0 0-.18.12.28.28 0 0 0-.06.2c.01.07.05.13.13.18.25.13.48.12.7-.04a.76.76 0 0 0 .12-.13.87.87 0 0 1 .09-.1.33.33 0 0 1 .12-.08.98.98 0 0 1 .59.02c.2.06.32.22.34.47.02.26-.04.46-.2.6a.56.56 0 0 1-.58.12.05.05 0 0 1-.03-.04c0-.02 0-.04.02-.05.07-.06.16-.1.25-.13.03-.01.05-.03.05-.07 0-.03 0-.05-.04-.07-.15-.09-.3-.07-.42.05-.1.1-.13.21-.07.32a.1.1 0 0 0 .04.04c.32.15.6.14.87-.04.06-.04.12-.04.2 0 .09.06.15.13.16.22.02.1 0 .18-.07.27-.1.14-.26.2-.45.18-.01 0-.03 0-.03-.02v-.04l.03-.09v-.05a.2.2 0 0 0-.15-.06.17.17 0 0 0-.15.06c-.05.07-.07.14-.04.2.03.07.08.11.16.13.09.02.18.03.27.01a.8.8 0 0 0 .26-.08c.09-.04.16-.1.21-.16a.5.5 0 0 0 .11-.23c.05-.24-.06-.4-.33-.5l-.01-.02v-.02c.1-.22.13-.46.08-.7a.6.6 0 0 0-.07-.19.3.3 0 0 0-.14-.13Zm-1.17-.68c.17.14.25.31.24.52 0 .03.01.04.04.03.1-.04.2-.06.3-.06a.1.1 0 0 0 .09-.04c.09-.11.14-.22.15-.34 0-.1-.02-.2-.08-.3a.73.73 0 0 0-.26-.22 1 1 0 0 0-.34-.11.78.78 0 0 0-.72.27v.02l.01.02c.23.01.42.09.57.21Zm1.09-.1.57-.34c.03-.02.07 0 .1.02.01.04 0 .08-.03.1l-.57.33a.07.07 0 0 1-.1-.03.06.06 0 0 1 .03-.09Zm.63.09-.6.18a.07.07 0 0 0-.05.09c.01.04.05.06.09.04l.6-.18a.07.07 0 0 0 .05-.09.07.07 0 0 0-.1-.04Zm.18.37h.04c.03.01.05.04.05.07v.04c-.01.03-.04.05-.08.04h-.03a.06.06 0 0 1-.05-.06v-.04c0-.03.04-.05.07-.05ZM8.43 9.37l-.3-.04a.06.06 0 0 1-.06-.04l.01-.06a5.73 5.73 0 0 0 .53-.77l-.7-.05c-.02 0-.04-.02-.04-.04s0-.05.03-.07a4.68 4.68 0 0 0 1.91-.12c.06 0 .09.02.1.05 0 .04-.02.06-.05.07l-.1.01a2 2 0 0 0-.25.06.48.48 0 0 0-.21.12c-.15.15-.3.3-.45.42-.07.06-.05.09.04.07h.1c.03 0 .05 0 .06.03v.06a16.4 16.4 0 0 1-1.5 1.9c-.18.18-.25.2-.23.07l.04-.07a10.72 10.72 0 0 0 1.09-1.59l-.02-.01Zm.46.22c-.04.18.01.33.15.42.02.02.03.04.02.07-.12.3-.03.52.27.66.25.11.5.1.74 0a.26.26 0 0 0 .11-.1.25.25 0 0 0 .05-.13c0-.04-.01-.08-.04-.11-.03-.04-.08-.05-.14-.06a.08.08 0 0 0-.09.04v.02c-.03.04-.02.07.02.08a.1.1 0 0 1 .06.05c.01.03.01.05 0 .07-.05.07-.14.1-.27.1-.1.01-.2 0-.3-.02a.44.44 0 0 1-.33-.3c-.05-.16 0-.27.13-.35.07-.03.07-.07 0-.1a.58.58 0 0 1-.2-.13.21.21 0 0 1-.06-.22c.1-.29.29-.41.59-.38h.03v-.04a.5.5 0 0 1-.01-.21c0-.03.01-.04.03-.06a.49.49 0 0 1 .27-.08c.12.01.19.06.2.16 0 .02.01.03.03.04.02.02.04.02.07 0l.02-.02c.02-.12-.02-.2-.13-.23a.57.57 0 0 0-.54.05c-.08.06-.11.13-.09.23 0 .03 0 .04-.03.05-.32.04-.5.2-.56.5ZM7.13 9c.03 0 .07-.03.07-.07a.07.07 0 0 0-.07-.07.07.07 0 0 0-.08.07c0 .04.04.07.08.07Zm.5.03c-.03.02-.07.01-.1-.02-.02-.03-.02-.07 0-.09.03-.02.08-.01.1.02.03.03.02.07 0 .1Zm-.77.04c.04-.02.05-.06.02-.1-.02-.02-.06-.02-.1 0-.03.03-.04.07-.02.1.03.02.07.03.1 0Zm1.18-.12c-.04 0-.06.02-.07.06v.03l-.01.03v.02l.03.01c.03 0 .07-.01.1-.04a.06.06 0 0 0 0-.06c0-.03-.02-.04-.05-.05Zm-.8.18c.04.02.08.01.1-.02.02-.03 0-.08-.04-.1-.04-.02-.08 0-.1.03-.02.03 0 .07.04.1Zm.5.07c-.03 0-.07-.02-.08-.06 0-.04.02-.08.05-.09.04 0 .08.02.09.06 0 .04-.02.08-.06.1Zm2.4.03c-.02-.01-.03 0-.04.01v.03c0 .02 0 .04.03.05a.5.5 0 0 0 .2.05l.2-.01.13-.01c.07 0 .08.01.03.06-.05.05-.14.07-.27.07-.1 0-.19 0-.28-.02a.24.24 0 0 1-.1-.05.22.22 0 0 1-.06-.08c-.03-.07-.02-.13.05-.18a.23.23 0 0 1 .22-.04.1.1 0 0 1 .05.04.1.1 0 0 1 .02.05v.03c0 .05-.03.07-.08.04l-.1-.04Zm-3.1.05c-.02.01-.06 0-.08-.04-.03-.03-.03-.08 0-.1.03 0 .07 0 .09.04.02.04.02.08 0 .1Zm.42.05c.04 0 .07-.03.07-.07a.07.07 0 0 0-.07-.07.07.07 0 0 0-.08.07c0 .04.04.07.08.07Zm.52-.02c0 .04-.03.07-.07.07a.07.07 0 0 1-.08-.07c0-.04.04-.07.08-.07s.07.03.07.07Zm-.85.12H7.1l-.01-.01c-.02-.06 0-.1.04-.12a.06.06 0 0 1 .06 0c.02.01.03.03.03.05 0 .04-.02.07-.07.07l-.02.01Zm.56-.03c0 .05-.04.08-.08.08a.08.08 0 0 1-.08-.08c0-.04.03-.07.08-.07.04 0 .08.03.08.07Zm-.86.12c.02.03.06.05.09.04.03-.01.04-.05.03-.09-.02-.03-.06-.05-.09-.04-.03.01-.04.05-.03.09Zm2.45.3h.01l-.01-.36h-.01a.12.12 0 0 0-.1.04.15.15 0 0 0-.03.1v.09c0 .04.02.07.04.1.03.02.06.04.1.04ZM7.4 9.53v.08l-.05.02H7.3c-.03-.01-.05-.03-.03-.07.02-.05.05-.07.1-.06.02 0 .03.01.04.03Zm.4 0-.04.01-.06.1v.03h.01c.03.02.05.02.07.02.03 0 .05-.01.06-.03v-.01c.02-.02.02-.03.01-.06a.11.11 0 0 0-.05-.05Zm-.8.2c.04.01.08 0 .1-.02.02-.04.01-.08-.03-.1-.03-.02-.08-.02-.1.02-.02.03 0 .07.03.1Zm2.95.4H9.9c-.05 0-.08-.04-.1-.09a.16.16 0 0 1 .07-.17c.1-.07.22-.12.36-.14.12-.01.25 0 .39.03h.03l.02-.03V9.7l-.01-.04a.06.06 0 0 0-.04-.02.99.99 0 0 0-.75.08c-.1.06-.16.13-.18.21a.2.2 0 0 0 .03.2c.05.06.12.1.2.1.1 0 .2-.02.3-.1a.1.1 0 0 0 .05-.1c-.01-.1-.07-.13-.18-.11-.09.01-.11.06-.08.13.02.06 0 .08-.06.07Zm-2.46-.34c.04 0 .07-.03.07-.07a.07.07 0 0 0-.07-.08.07.07 0 0 0-.08.08c0 .04.03.07.08.07Zm-.33.12h.1l.02-.03c0-.04 0-.07-.04-.1a.05.05 0 0 0-.06 0c-.02.01-.03.03-.03.05v.05l.01.03Zm.54.05c.04-.02.05-.07.03-.1-.03-.03-.08-.04-.11-.01-.04.02-.06.07-.03.1.02.03.07.04.1.01Zm-.77.06c-.04.02-.08 0-.1-.05 0-.04.01-.08.05-.1.04 0 .08.02.1.06 0 .04-.01.08-.05.1Zm.36-.04c-.01.04 0 .08.04.1.03 0 .07-.02.09-.06.01-.05 0-.09-.04-.1-.03-.01-.07.01-.09.06Zm-.24.23c-.03-.02-.04-.06-.01-.1.02-.05.06-.07.1-.05.02.01.03.06.01.1-.02.04-.06.06-.1.05Zm.44-.06c-.03.03-.03.08 0 .1.03.02.08 0 .1-.03.03-.03.03-.08 0-.1-.03-.02-.08 0-.1.03Zm-.63.09c0 .04-.03.07-.08.07a.07.07 0 0 1-.07-.07c0-.04.03-.08.07-.08.05 0 .08.04.08.08Zm.31.04c0 .05.03.08.06.09.04 0 .07-.03.07-.08 0-.04-.02-.08-.06-.08-.03 0-.06.03-.07.07Zm-.24.2c-.04 0-.05-.05-.03-.1.02-.03.07-.05.1-.03.04.02.05.06.03.1-.02.04-.07.06-.1.04Zm.42-.03c-.02.04 0 .08.03.1.03.01.08 0 .1-.05.01-.03 0-.08-.03-.1-.04-.01-.08 0-.1.05Zm-.2.05h-.04c-.04.02-.06.04-.06.08 0 .02 0 .03.02.04.02.02.04.02.06.02.02 0 .04 0 .05-.03v-.08a.05.05 0 0 0-.02-.03Zm-.26.14.03.08c0 .03 0 .04-.03.05h-.06c-.02.01-.04 0-.04-.02-.02-.06 0-.1.04-.13h.03c.01 0 .02 0 .03.02Zm.48.12c0 .03-.03.06-.07.06a.07.07 0 0 1-.07-.06c0-.04.03-.07.07-.07.04 0 .07.03.07.07Zm-.45.1c0 .05.03.08.07.08.04 0 .07-.04.07-.08 0-.05-.04-.08-.08-.08-.03 0-.06.04-.06.08Zm.32.19c0 .04-.03.07-.07.07a.07.07 0 0 1-.08-.07c0-.04.04-.07.08-.07s.07.03.07.07Zm-.44.11c.01.04.05.07.09.06.03-.01.05-.05.04-.1 0-.03-.05-.06-.08-.05-.04.01-.06.05-.05.1Zm.33.17c0 .04-.04.07-.08.07a.08.08 0 0 1-.08-.07c0-.04.04-.08.08-.08s.08.04.08.08Zm-.2.65c0 .12.05.22.14.3.03.03.02.04-.01.04-.4 0-.73-.13-.97-.38a.32.32 0 0 1 0-.46.46.46 0 0 0 .06-.1v-.01l-.01-.02h-.02c-.04-.02-.07 0-.1.02-.15.2-.17.4-.05.59.07.1.14.17.23.23.27.19.59.26.96.22.15-.01.32-.04.5-.1l.48-.16.33-.1.32-.05.12-.02a1.1 1.1 0 0 1 .59.09 2 2 0 0 0 .4.12c.16.03.3 0 .42-.08h.02c.07.06.16.1.26.11a1.76 1.76 0 0 0 .32.01c.02 0 .05 0 .07-.02a.48.48 0 0 0 .13-.69.61.61 0 0 1-.05-.09.27.27 0 0 1-.02-.1c0-.17-.02-.33-.07-.48a.33.33 0 0 1-.01-.13v-.1c0-.01-.01-.02-.03-.01h-.02c-.03 0-.05.02-.05.05a.42.42 0 0 1-.11.25c-.05.05-.07.04-.06-.03.05-.2.13-.33.25-.37l.03-.03v-.04c0-.02-.02-.03-.03-.03a.54.54 0 0 0-.3.13.58.58 0 0 0-.17.26l-.16.43c-.03.08-.06.08-.09 0a.64.64 0 0 1 .01-.45c.05-.11.03-.13-.06-.04a.48.48 0 0 0-.12.24c-.09.38-.04.72.15 1 .01.02.02.04 0 .07a.06.06 0 0 1-.06.03l-.27.01h-.02v-.03a.34.34 0 0 0 .06-.14l-.01-.05a.21.21 0 0 0-.19-.09c-.05 0-.08.03-.1.08v.04c0 .05.03.06.08.04.03-.02.05-.02.08 0 .02.02.02.03-.01.04-.16.04-.22 0-.2-.15 0-.09.07-.14.17-.16.03-.01.05 0 .07.01l.15.13H10l.01-.02a.07.07 0 0 0 0-.08c-.15-.2-.3-.37-.44-.5a.52.52 0 0 0-.42-.16 1 1 0 0 0-.42.18c-.03.02-.06.02-.08 0l-.04-.03c-.14-.12-.25-.2-.34-.24-.15-.07-.27-.06-.38.03a10.53 10.53 0 0 1-.56.44c-.12.1-.21.19-.29.28a.42.42 0 0 1-.23.16.5.5 0 0 1-.4-.08.26.26 0 0 1-.1-.15.3.3 0 0 1 .04-.2.15.15 0 0 1 .08-.07c.1-.05.15-.03.16.04v.06l-.04.05c-.04.07-.03.1.05.09.03 0 .06-.02.08-.04a.23.23 0 0 0 .07-.07c.04-.06.04-.12 0-.17a.25.25 0 0 0-.23-.1.34.34 0 0 0-.23.1.34.34 0 0 0-.1.24c0 .1.04.2.13.28.16.15.35.19.59.11h.01v.02Zm3.87-.77c-.07-.1-.04-.21.07-.31l.03-.01.02.02c.07.22.07.45.02.68l-.01.02h-.01l-.01-.02c0-.18-.09-.26-.28-.25-.03 0-.04 0-.05-.02-.08-.12-.1-.22-.08-.32a.93.93 0 0 1 .16-.35h.03a.6.6 0 0 0 0 .54c.01.03.03.04.05.05h.03c.03 0 .04 0 .03-.03Zm-.36-.03c.04.1.07.2.08.3.02.14-.01.24-.08.3-.04.03-.08.03-.11-.01l-.04-.04c-.03-.03-.02-.05.02-.06.06-.02.1-.07.11-.16v-.24l-.01-.09c0-.05 0-.06.03 0Zm.66.6c-.04.1-.1.18-.2.23-.03.01-.04.01-.05-.01a.3.3 0 0 0-.14-.15h-.05a.25.25 0 0 0-.1.15c-.01.06.02.1.1.14.01 0 .03 0 .04-.02a.1.1 0 0 0 .02-.05l.01-.02h.11c.01 0 .03.01.03.03l.03.06c.02.02.04.02.06 0a.56.56 0 0 0 .18-.36l-.01-.02h-.01c-.01 0-.02 0-.02.02Zm-2.53.05c-.17-.08-.3-.18-.4-.3-.11-.16-.15-.31-.12-.46l.02-.02h.03c.12.02.23.07.32.15l.71.62c.03.02.02.04-.01.04l-.37.01a.37.37 0 0 1-.18-.04Zm1.1-.25a.25.25 0 0 0-.14.08.46.46 0 0 0-.07.15c-.01.03-.03.03-.05 0a6.13 6.13 0 0 1-.27-.32.32.32 0 0 1-.02-.12c0-.1.05-.15.14-.18h.08c.03 0 .06.02.08.04l.28.27c.04.04.03.06-.03.08Zm-2.28.3c-.04.02-.04.05 0 .06.08.03.09.07.04.13a.13.13 0 0 1-.09.05c-.04 0-.07-.01-.1-.03a.15.15 0 0 1-.06-.14c0-.05.03-.1.08-.14a.3.3 0 0 1 .16-.05.3.3 0 0 1 .17.03c.06.02.1.07.11.12.02.09 0 .16-.05.23-.05.06-.04.07.04.05l.5-.17c.03-.02.03-.03 0-.04-.32-.15-.47-.4-.45-.72v-.01h-.02c-.25.2-.45.38-.6.55a.25.25 0 0 0-.05.27c.02.07.06.12.1.15.05.02.1.03.16.02a.34.34 0 0 0 .24-.22c.02-.07 0-.11-.05-.15a.1.1 0 0 0-.05-.01c-.03 0-.06 0-.08.02Zm.57.57.34-.12c.37-.12.7-.15 1.02-.1.35.07.63.24.83.51.03.03.06.04.1.03h.01l.02-.03v-.03a1.37 1.37 0 0 0-.97-.59 2.08 2.08 0 0 0-.59 0 2.69 2.69 0 0 0-.79.22c-.22.09-.4.14-.5.17a1.52 1.52 0 0 1-1.5-.48L5.89 12l-.03.01v.02c-.02.04 0 .07.02.1.46.44 1 .6 1.6.46l.48-.16Zm.35.13a2.9 2.9 0 0 1-.88.28 1.94 1.94 0 0 1-.94-.15v-.04c.02-.03.05-.04.08-.03.48.17.94.16 1.37-.02l.37-.16a1.81 1.81 0 0 1 .96-.15c.18.03.33.08.45.16.14.09.23.21.27.37.01.03 0 .05-.03.06l-.02.01h-.02c-.01 0-.02 0-.02-.02a.66.66 0 0 0-.27-.34.94.94 0 0 0-.42-.13 1.85 1.85 0 0 0-.9.16Zm-2.47.48-.04.02c-.12.02-.2-.02-.24-.1-.03-.07-.04-.16 0-.26.04-.16.15-.23.31-.22.13 0 .26.05.4.14h.11v-.04c-.07-.06-.14-.1-.22-.14a.83.83 0 0 0-.25-.08c-.2-.02-.34.05-.43.21a.52.52 0 0 0-.06.33c.03.14.1.22.21.26.1.03.19.03.27 0 .09-.05.13-.11.12-.22A.08.08 0 0 0 6 12.9a.33.33 0 0 0-.28-.05c-.05 0-.08.04-.08.1l.03.03.12-.01c.03-.01.05 0 .06.02v.07Zm3.15-.12c-.03.04-.03.07 0 .09.02.02.02.04 0 .06-.03.04-.08.03-.15-.04a.08.08 0 0 1-.03-.09.2.2 0 0 1 .11-.12c.05-.02.1-.03.17-.01.06 0 .1.04.13.08.04.05.05.11.03.18a.28.28 0 0 1-.2.22c-.1.03-.21.02-.32-.03a.37.37 0 0 1-.21-.23c-.04-.1 0-.22.09-.34.11-.15.3-.22.55-.21.04 0 .07.02.08.05v.04h-.01c-.17.02-.3.04-.38.08a.34.34 0 0 0-.22.27c-.01.06 0 .11.05.16.04.05.1.08.16.1a.3.3 0 0 0 .18 0c.06-.02.1-.06.12-.12.02-.06 0-.12-.08-.15-.03-.01-.05 0-.07.01Z" fill="#818285"/></svg>