<!-- by TradingView --><svg width="18" height="18" viewBox="0 0 18 18" xmlns="http://www.w3.org/2000/svg"><path fill="#F0F3FA" d="M0 0h18v18H0z"/><path d="M9.24 4a5.62 5.62 0 0 1 3.71 1.73.2.2 0 0 1-.01.28L11.5 7.5a.24.24 0 0 1-.26.05l-2.1-.85A.23.23 0 0 1 9 6.48V4.22c0-.13.11-.23.24-.22Z" fill="#143648"/><path d="M8.76 14a5.62 5.62 0 0 1-3.71-1.73.2.2 0 0 1 .01-.28L6.5 10.5c.07-.06.17-.09.26-.05l2.1.85c.1.04.15.12.15.21v2.26c0 .13-.11.23-.24.22Z" fill="#8BC5AC"/><path d="M10 10.95v3.01c.72 0 2.8-.7 2.8-3.15 0-1.9-3.28-2.95-4.7-3.55-.1-.04-.1-.12-.1-.21V4.07c-.88 0-2.74.51-2.85 2.78-.1 2.2 2.98 3.07 4.72 3.86.08.04.13.15.13.24Z" fill="url(#ao3s2dum3)"/><defs><linearGradient id="ao3s2dum3" x1="6.44" y1="5" x2="10.81" y2="13.19" gradientUnits="userSpaceOnUse"><stop offset=".04" stop-color="#486B70"/><stop offset=".5" stop-color="#CDE2CB"/><stop offset=".95" stop-color="#A5D1B9"/></linearGradient></defs></svg>