<!-- by TradingView --><svg width="18" height="18" viewBox="0 0 18 18" xmlns="http://www.w3.org/2000/svg"><path fill="#F0F3FA" d="M0 0h18v18H0z"/><path d="m5.3 11-.3.23c.84.57 1.63 2.09 1.91 2.77h.24l-.24-.94c.9.88 1.75.94 2.69.94.93 0 3.4-.47 3.4-2.81 0-2.35-2.38-2.58-3.61-2.95C8.15 7.87 7.2 7.1 7.2 6.54c0-.57.36-1.58 1.98-1.58 1.3 0 2.14.88 2.4 1.32l.31-.13-.9-1.07L10.54 4h-.26l.2.85a2.63 2.63 0 0 0-1.16-.23c-.74 0-2.69.17-2.69 1.98 0 1.46 1.9 2.29 2.85 2.52.88.2 2.64.94 2.64 2.3 0 1.7-1.43 2.27-2.53 2.27-1.1 0-1.39-.18-2.23-.71-.68-.44-1.67-1.5-2.07-1.99Z" fill="#343434"/><path d="M11 10.97a1.98 1.98 0 0 1-1.21 1.87 1.98 1.98 0 0 1-2.19-.4 1.98 1.98 0 0 1-.46-2.18A1.98 1.98 0 0 1 8.98 9a1.98 1.98 0 0 1 1.86 1.21c.1.24.16.5.16.76Z" fill="#020305"/><path d="M9.5 9.14c.16.02.32.08.47.2v.02c-.09.04-.17.09-.25.15a.06.06 0 0 1-.04 0l-.04-.01a10.44 10.44 0 0 0-.3-.4l.06.02.1.02ZM8.5 9.14c.07 0 .12-.02.18-.03l.01.01c0 .02 0 .04-.03.06a38.88 38.88 0 0 0-.36.33l-.28-.16c.14-.11.3-.18.49-.2ZM9 9.2v.4l-.02.04a.05.05 0 0 1-.05.02L8.6 9.6a.05.05 0 0 1-.05-.03l.01-.06.34-.36.03-.01h.03l.03.02v.03ZM9.11 9.57l.02-.28.02-.04.03-.02h.04l.03.02.2.24c.02.02.03.05.02.07-.01.03-.03.04-.05.05l-.23.04c-.02 0-.04 0-.05-.02a.07.07 0 0 1-.03-.06ZM8 9.43l.22.16.01.02v.03c-.03.06-.07.16-.11.3a2.75 2.75 0 0 1-.1.27H8a3.85 3.85 0 0 1-.56-.33v-.03a.65.65 0 0 1 .14-.18 2.8 2.8 0 0 1 .3-.25c.05-.03.09-.02.13 0ZM10.32 10.05c-.04 0-.08 0-.1-.04a.14.14 0 0 1-.03-.07l-.01-.04a.03.03 0 0 0-.03-.02l-.04.01a.26.26 0 0 1-.07.08.1.1 0 0 1-.1 0l-.18-.28a.04.04 0 0 1 0-.04.1.1 0 0 1 .04-.05c.1-.03.19-.08.26-.14.05-.04.1-.04.14 0 .15.1.26.21.35.35a.1.1 0 0 1 .01.07.1.1 0 0 1-.04.07.55.55 0 0 1-.2.1Z" fill="#8EA5C4"/><path d="m8.51 9.7-.02.03v.02a.4.4 0 0 0 .1.2l.07.13.1.33a.56.56 0 0 1-.25-.03 7.28 7.28 0 0 1-.34-.12v-.03l.22-.5a.08.08 0 0 1 .09-.05c.02 0 .03.01.03.03Z" fill="#354E67"/><path d="M8.51 9.7a.5.5 0 0 0 .19.08 1.42 1.42 0 0 0 .27.02h.02v.6h-.24a2.84 2.84 0 0 0-.1-.32.39.39 0 0 0-.07-.12.4.4 0 0 1-.09-.2v-.03c0-.02.01-.02.02-.02ZM9.54 9.7h.02c.05.03.1.06.12.1.08.14.15.28.19.43 0 .03 0 .05-.04.06l-.34.1c-.13.02-.24.03-.35.02l-.01-.01v-.6h.02l.39-.1Z" fill="#8EA5C4"/><path d="m10.32 10.05-.27.14h-.02v-.01a.64.64 0 0 0-.1-.21.1.1 0 0 0 .11 0 .26.26 0 0 0 .07-.08c.01-.01.02-.02.04-.01.01 0 .02 0 .03.02v.04l.03.07c.03.03.07.04.11.04Z" fill="#354E67"/><path d="M7.91 10.4c-.04.03-.07.06-.07.1 0 .02 0 .05.02.08.03.05.05.11.05.2l-.01.21c0 .01 0 .02-.02.03l-.03.01H7.1l-.01-.02a.99.99 0 0 1 0-.41c.03-.14.07-.27.13-.41.06-.15.12-.2.17-.16.18.12.35.22.52.3.05.03.05.05 0 .07ZM10.94 11.04v-.07h-.02l-.03.05h-.02c-.16 0-.27-.08-.33-.23a.2.2 0 0 1-.02-.09l.01-.09c.04-.15.05-.32.05-.52.02-.04.05-.06.07-.07l.03.01.02.03.04.04c.05.1.09.21.11.32l.02.01h.01a6.4 6.4 0 0 1 .06.61Z" fill="#8EA5C4"/><path d="M10.58 10.1c0 .19-.01.36-.05.5v.01l-.01.1c0 .02 0 .05.02.08.06.15.17.23.33.24l.02-.01.03-.05h.02v.07a.46.46 0 0 1-.24 0 .49.49 0 0 0-.14 0c-.14 0-.28 0-.42-.02-.01 0-.02 0-.03-.02v-.03a.78.78 0 0 0 0-.3 3.53 3.53 0 0 1-.02-.29l.03-.03.28-.14a.41.41 0 0 0 .1-.06l.08-.06ZM8.73 10.55a.6.6 0 0 0 .23-.01H9l.01.04v.38c0 .02 0 .03-.02.05a12.05 12.05 0 0 1-.6.01c-.08 0-.18 0-.3.03-.01 0-.03 0-.04-.02a.05.05 0 0 1-.01-.04l.06-.51c0-.04.03-.05.07-.05l.57.12Z" fill="#354E67"/><path d="M9.7 11c-.07-.05-.12-.08-.14-.11a.62.62 0 0 1-.08-.33l.42-.13h.03l.02.04c.03.16.04.32.04.48 0 .05-.03.07-.07.07h-.04L9.71 11Z" fill="#8EA5C4"/><path d="M9.48 10.56c0 .12.03.23.08.33.02.03.07.06.15.1-.18.04-.35.04-.53.03L9.15 11a.06.06 0 0 1-.02-.04l.01-.38v-.01h.02c.11.01.22 0 .32-.01ZM10.76 11.83a.28.28 0 0 1-.1.13.07.07 0 0 1-.07 0 1.9 1.9 0 0 1-.06-.03 11.87 11.87 0 0 1-.48-.25.09.09 0 0 1 0-.06c.02-.12.04-.24.04-.37 0-.06.03-.09.08-.09a110.1 110.1 0 0 1 .75.04v.03c0 .05 0 .1-.02.16a.5.5 0 0 1-.05.16.71.71 0 0 0-.08.26l-.01.02Z" fill="#354E67"/><path d="M7.89 11.77c-.07 0-.12 0-.15-.03a.94.94 0 0 1-.11-.08.6.6 0 0 1-.1-.11.65.65 0 0 0-.15-.16.35.35 0 0 1-.08-.08c-.05-.08-.04-.12.02-.13H7.9l.01.03c0 .07 0 .14.03.2l.04.3c0 .02 0 .03-.02.03a.22.22 0 0 1-.07.03Z" fill="#8EA5C4"/><path d="M9.97 11.2c.02.05.02.1 0 .16a1.5 1.5 0 0 0-.05.26c0 .01 0 .02-.02.03h-.02a1.9 1.9 0 0 0-.67-.1c-.04 0-.06-.03-.07-.07l-.02-.23c0-.05.01-.07.06-.08a10.83 10.83 0 0 1 .8.04ZM7.32 11.18c-.06.01-.07.05-.02.13l.08.08c.06.05.11.1.15.16a.6.6 0 0 0 .1.1l.1.1c.04.02.1.03.16.02l-.16.02-.02.02a.13.13 0 0 1-.07.08l-.23.13-.02.01a.04.04 0 0 1-.04-.03c0-.01 0-.02-.02-.02h-.02c-.01-.01-.02-.02-.01-.04l-.01-.02a.04.04 0 0 1-.03-.02l-.04-.1v-.03c.01-.09 0-.16-.05-.2a.24.24 0 0 1-.06-.1.63.63 0 0 1-.02-.22.07.07 0 0 1 .07-.07h.16ZM9 11.5l-.02-.17a.03.03 0 0 0-.03-.02h-.03a.53.53 0 0 0-.16.21l-.33.04a.16.16 0 0 0-.1.05.15.15 0 0 1-.26-.04.5.5 0 0 1-.05-.27.9.9 0 0 0 0-.08l.02-.03.03-.01h.81c.03 0 .06.01.08.03.02.02.04.05.04.08a.7.7 0 0 1 0 .2Z" fill="#354E67"/><path d="M9 11.5c-.02.02-.04.03-.08.03h-.16a.53.53 0 0 1 .16-.22h.03c.01 0 .02 0 .03.02l.01.16Z" fill="#8EA5C4"/><path d="M9.13 12.04c.01.03.04.06.07.07h.05l.02-.04a.53.53 0 0 0-.1-.36h-.02l-.01-.01v-.02h.27l.1.03c.07 0 .11.01.14.03l.16.05c.02 0 .03.02.03.03v.04c-.06.18-.16.36-.28.52a.05.05 0 0 1-.06.03l-.28-.03c-.03 0-.05-.01-.06-.03a.09.09 0 0 1-.03-.06v-.25Z" fill="#354E67"/><path d="M8.97 12.05a1.54 1.54 0 0 0-.19-.1.43.43 0 0 0-.18-.03.75.75 0 0 1-.27-.04.09.09 0 0 1-.04-.03.05.05 0 0 1-.01-.04c0-.02.01-.03.03-.04a.2.2 0 0 0 .07-.04 2.16 2.16 0 0 1 .6-.03l.02.03-.03.32ZM9.14 11.7l.02.01c.08.1.12.23.1.36l-.01.04a.04.04 0 0 1-.05 0 .14.14 0 0 1-.07-.07v-.34Z" fill="#8EA5C4"/><path d="M8.38 11.73a.2.2 0 0 1-.07.04.05.05 0 0 0-.03.04v.04l.05.03c.08.03.18.04.27.04.06 0 .12.01.18.04.06.02.12.05.19.1l.03.27c0 .02 0 .03-.02.05a.04.04 0 0 1-.05 0 .47.47 0 0 0-.2-.03c-.01 0-.02 0-.03.02a.17.17 0 0 1-.07.04c-.03 0-.06 0-.08-.03a1.68 1.68 0 0 1-.31-.45.33.33 0 0 0-.04-.07.04.04 0 0 1-.01-.04c0-.02.01-.03.03-.03l.16-.06ZM10.21 12.47a.21.21 0 0 1-.11.04h-.03c0-.02 0-.02-.01 0l-.04.01H10c-.01-.03-.04-.03-.07-.03v.01c-.02.02-.03.02-.05.02a3.92 3.92 0 0 0-.1-.05c-.04-.02-.06-.05-.04-.1a.5.5 0 0 1 .06-.12 2.19 2.19 0 0 0 .18-.38l.02-.03h.03c.15.07.3.15.46.25l.04.05c0 .02 0 .04-.02.06a.3.3 0 0 1-.1.1l-.01.02-.03.04c0 .02-.02.02-.03.02-.01 0-.02 0-.03.02-.02.02-.04.03-.08.02h-.01l-.01.04ZM7.86 12.54a.47.47 0 0 0-.08-.08c-.04-.02-.07-.03-.1-.02h-.02a1.85 1.85 0 0 1-.12-.13v-.01a.33.33 0 0 1-.06-.1c-.01-.03 0-.07.03-.1l.18-.1.08-.04a2.5 2.5 0 0 1 .27-.1c.02 0 .03 0 .04.02.02 0 .03.02.03.03.04.15.11.29.22.4.05.06.05.1-.02.15l-.21.1a.3.3 0 0 1-.17.03c-.02 0-.03 0-.04-.02a1.32 1.32 0 0 1-.03-.03ZM8.75 12.66l-.02-.05a.1.1 0 0 1 0-.09.09.09 0 0 1 .08-.04h.09c.02 0 .04 0 .06.02a.1.1 0 0 1 .03.06l.02.15a.1.1 0 0 1-.06.1.08.08 0 0 1-.05 0 .09.09 0 0 1-.05-.03l-.09-.1a.1.1 0 0 1-.01-.02ZM9.33 12.5l.03.03v.04a.4.4 0 0 1-.07.16c-.03.04-.07.06-.1.05-.03-.01-.05-.04-.06-.1a.4.4 0 0 1 .01-.17l.03-.04h.03l.13.03ZM8.32 12.79a.63.63 0 0 0-.06-.02.43.43 0 0 1-.07-.03.04.04 0 0 1-.03-.03c0-.01 0-.02.02-.03l.14-.1.12-.03c.03 0 .06.03.09.08l.22.2v.03l-.01.02a.2.2 0 0 1-.09.02 7.23 7.23 0 0 0-.34-.11ZM9.58 12.85a.57.57 0 0 0-.07.02.37.37 0 0 1-.08.02l-.08-.01-.02-.02c0-.01 0-.02.02-.02.05-.04.1-.09.13-.16a.2.2 0 0 1 .06-.1.16.16 0 0 1 .09-.03c.03 0 .06 0 .09.03.03.01.06.04.08.07.01.03.01.05 0 .07 0 .03-.02.04-.04.05h-.02a.27.27 0 0 0-.08.04.26.26 0 0 1-.08.04Z" fill="#354E67"/></svg>