<!-- by TradingView --><svg width="18" height="18" viewBox="0 0 18 18" xmlns="http://www.w3.org/2000/svg"><path fill="#F0F3FA" d="M0 0h18v18H0z"/><path d="M8.89 3h.22a5.9 5.9 0 0 1 4.75 2.48A6 6 0 0 1 9.1 15h-.22a5.93 5.93 0 0 1-3.79-1.44A5.93 5.93 0 0 1 3 9.38v-.77a5.97 5.97 0 0 1 5.5-5.58L8.88 3Zm-.67.53a18.08 18.08 0 0 0 .61-.29c.09-.04.08-.05 0-.05a5.85 5.85 0 0 0-4.27 2.1l.18-.09 3.48-1.67Zm.79-.15-4.37 2.1a.06.06 0 0 0-.04.04l-1.06 4.66.01.07 2.98 3.72a.1.1 0 0 0 .08.04l1.7-.02.7.03v.27H6.57a5.47 5.47 0 0 0 2.86.5 5.71 5.71 0 0 0 3.46-1.49c.89-.8 1.48-1.8 1.76-3l.02-.07a5.75 5.75 0 0 0-1.1-4.8l-.1-.11a5.7 5.7 0 0 0-3.16-1.97c-.42-.1-.84-.15-1.27-.16-.04-.01-.05.05-.04.19Zm-5.69 6.8 1.09-4.73H4.4a5.83 5.83 0 0 0-1.08 4.73Zm2.91 3.93.2.1v-.02l-3.05-3.81c-.03-.04-.04-.04-.03.02a5.85 5.85 0 0 0 2.88 3.7Z" fill="#231F20"/><path d="m9.05 3.2 4.43 2.12.1.12 1.1 4.79-.02.07-3.1 3.93c-.01.03-.04.06-.08.06H9v-.27c.36-.02.7-.08 1.04-.17.32-.09.6-.24.86-.44a2.67 2.67 0 0 0 .87-1.42c.04-.22.06-.45.06-.71 0-.15-.03-.3-.08-.47-.16-.47-.44-.91-.85-1.32a6.8 6.8 0 0 0-.6-.53 22.55 22.55 0 0 0-1.03-.78c-.1-.07-.2-.17-.27-.24V5.47c.32 0 .54.24.65.61.08.3.04.83 0 1.13 0 .02.01.03.03.03h1.95c.02 0 .03-.02.03-.04.06-.51.06-1.18-.06-1.58-.39-1.3-1.44-1.53-2.6-1.56v-.68c-.01-.14.01-.2.05-.19Z" fill="#EC1C24"/><path d="M9 3.38v.68c-1.1 0-2.18.36-2.62 1.44-.14.34-.18.72-.2 1.14-.05.93.52 1.72 1.13 2.36.27.27.49.48.66.62.37.29.7.58 1.03.87v1.87c-.82.23-.92-.99-.83-1.57 0-.02-.02-.03-.04-.03h-1.9c-.02 0-.05.01-.05.03-.04 1.3.42 2.44 1.37 2.92.2.1.45.2.76.28l-1.7.02a.1.1 0 0 1-.08-.04l-2.98-3.72a.08.08 0 0 1-.01-.07L4.6 5.52c0-.02.02-.04.04-.04L9 3.38Z" fill="#6D6E70"/><path d="M9 5.47v2.47c-.22-.18-.4-.37-.56-.58a1.99 1.99 0 0 1-.33-.73 1.04 1.04 0 0 1 .15-.8c.09-.12.19-.21.3-.27.14-.07.44-.09.44-.09Z" fill="#6D6E70"/><path d="M10.77 6.88a.35.35 0 1 0 0-.7.35.35 0 0 0 0 .7ZM9 10.5c.43.31.67.67.7 1.06.02.2-.03.37-.16.51a.99.99 0 0 1-.54.3v-1.88ZM6.99 11.99v-.25l-.02-.01h-.43l-.01-.02v-.58l.01-.01h.15l.02.01v.42l.01.02h.25c.01 0 .02 0 .02-.02v-.43h.58l.02.01v.14l-.02.01h-.41l-.02.01v.26c0 .01 0 .02.02.02h.41l.02.01v.58c0 .01 0 .02-.02.02h-.13l-.02-.02v-.42l-.01-.01h-.25l-.02.01v.42l-.01.02h-.59l-.01-.02v-.14c0-.01 0-.02.02-.02h.42L7 12Z" fill="#EC1C24"/></svg>