<!-- by TradingView --><svg width="18" height="18" viewBox="0 0 18 18" xmlns="http://www.w3.org/2000/svg"><path fill="#F0F3FA" d="M0 0h18v18H0z"/><path d="M9.1 4a9.9 9.9 0 0 1-5.77 8.57c5-.3 6.98-5.84 7.34-8.57H9.1Z" fill="#0863B3"/><path d="M11.23 4c-.95 6.15-4.77 8.52-6.56 8.93 5.06-.3 7.44-6.08 8-8.93h-1.44Z" fill="#0863B3"/><path d="M13.24 4C12.01 10.41 7.9 13.1 6 13.64c4.65 0 7.72-6.43 8.67-9.64h-1.43Z" fill="#0863B3"/><path d="M6.8 8.94c-2.37-.1-3.52 1.85-3.8 2.84.12-2.22.36-6.05 5.47-6.05A6.64 6.64 0 0 1 15 10.05L12.39 14c-.88-1.65-3.21-4.96-5.59-5.06Z" fill="#E60213"/></svg>