<!-- by TradingView --><svg width="18" height="18" viewBox="0 0 18 18" xmlns="http://www.w3.org/2000/svg"><path fill="#F0F3FA" d="M0 0h18v18H0z"/><path d="m9 3 3 1.55v.95h-1.44A1.7 1.7 0 0 0 9 4.55c-.93 0-1.69.69-1.69 1.54 0 .86.76 1.55 1.69 1.55.77 0 1.42-.48 1.62-1.12H9V6h3v1.64L9 9.2 6 7.64v-3.1L9 3Zm6 6.49-2.81-1.5-2.81 1.5v3l2.8 1.51L15 12.5V11h-3v.52h1.74a1.7 1.7 0 0 1-1.55.93c-.93 0-1.69-.69-1.69-1.54 0-.86.76-1.55 1.69-1.55.78 0 1.43.48 1.63 1.14H15V9.49Zm-6.38 0-2.8-1.5L3 9.48v3L5.81 14l2.82-1.5V11H6v.52h1.36a1.7 1.7 0 0 1-1.55.93c-.93 0-1.68-.69-1.68-1.54 0-.86.75-1.55 1.68-1.55.78 0 1.44.48 1.63 1.14h1.18V9.49Z" fill="#04489D"/></svg>