<!-- by TradingView --><svg width="18" height="18" viewBox="0 0 18 18" xmlns="http://www.w3.org/2000/svg"><path fill="#F0F3FA" d="M0 0h18v18H0z"/><path d="m9.99 5 1.33 2.93h.05L12.72 5h1.25L12.1 9l1.9 4h-1.28l-1.35-2.91h-.05L9.97 13H8.7l1.92-4-1.9-4H10ZM7.55 7c-.05-.66-.5-1-1.15-1-.6 0-1.1.58-1.11 1.2 0 .17.03.3.08.43.06.12.14.22.25.3.1.08.21.15.33.2l.38.15.57.18c.23.07.46.16.67.28.22.11.4.26.58.44.17.17.3.39.4.64.1.25.15.54.15.88 0 1.37-.96 2.3-2.32 2.3-1.44 0-2.34-.6-2.38-2h1.1c.03.72.54 1 1.27 1 .66 0 1.22-.63 1.22-1.31 0-.2-.05-.37-.14-.5-.09-.14-.22-.25-.38-.34-.17-.09-.36-.17-.58-.24l-.7-.23c-.5-.16-.9-.41-1.2-.75-.28-.33-.43-.78-.43-1.34C4.16 6.01 5.11 5 6.41 5c1.28 0 2.2.74 2.21 2H7.55Z"/></svg>