<!-- by TradingView --><svg width="18" height="18" viewBox="0 0 18 18" xmlns="http://www.w3.org/2000/svg"><path fill="#F0F3FA" d="M0 0h18v18H0z"/><path fill-rule="evenodd" d="M7.77 9.37a.21.21 0 0 0-.08-.1c-1.13-.7-2.32-1.45-3.57-2.21a.1.1 0 0 1-.05-.07c0-.02 0-.05.02-.07.41-.67.91-1.25 1.5-1.72a.08.08 0 0 1 .07-.02c.02 0 .04.02.05.04l2.27 3.44.06.07c.17.2.26.22.26.04v-.04L6.37 4.76a.07.07 0 0 1 0-.05c0-.02 0-.03.03-.04a6.73 6.73 0 0 1 1.93-.64l.51 4.56c.01.07.04.1.1.13h.04L9 8.68l.39-4.61c0-.03.01-.04.03-.04a5.41 5.41 0 0 1 2.1.62v.03c-.69 1.41-1.34 2.77-1.96 4.1a.15.15 0 0 0 0 .12c0 .02.02.03.04.04.02 0 .03 0 .05-.02a732.7 732.7 0 0 0 2.73-3.72 6.2 6.2 0 0 1 1.5 1.67l-.01.04-.54.36-3.17 2a.25.25 0 0 0-.1.14v.03c.02.07.06.09.12.06l4.11-1.78a7.65 7.65 0 0 1 .57 2.28h-4.6v.33H15v1.6c0 .02 0 .04-.02.05a.06.06 0 0 1-.05.02H3.05c-.01 0-.03 0-.04-.02a.05.05 0 0 1-.01-.03v-1.62h4.42V10h-4.3l.05-.39.05-.37c.08-.45.22-.94.43-1.44 0-.02.02-.03.04-.02L7.57 9.4c.03 0 .2 0 .2-.03ZM6.6 10.9c-.02 0-.03.01-.03.03v.04c.24.24.48.4.73.47.07.02.08.06.04.12-.14.21-.29.24-.44.08a7.45 7.45 0 0 1-.45-.52l-.02.01a.87.87 0 0 1-.48.5.4.4 0 0 1-.22.03c-.12-.02-.19-.08-.21-.17 0-.02 0-.04.03-.04.2-.03.34-.07.44-.12a.5.5 0 0 0 .26-.36l-.01-.04a.05.05 0 0 0-.05-.02l-.4.04c-.06 0-.08-.02-.06-.08a.18.18 0 0 1 .06-.08.13.13 0 0 1 .09-.03h.35c.04 0 .05-.01.05-.05v-.2c0-.08.02-.11.1-.1h.05c.07 0 .1.04.1.1v.2c0 .03.01.04.05.05l.48.03c.02 0 .03 0 .03.02.02.02.02.04 0 .05 0 .02 0 .02-.02.03a.39.39 0 0 1-.15.04c-.04 0-.1 0-.16-.02h-.16Zm4.63-.35V11c0 .17-.03.18-.1.02l-.1-.26a.11.11 0 0 0-.1-.08h-.03c-.07.04-.1.09-.08.16.04.22.14.37.3.45.14.06.13.1-.01.1h-.08c-.12 0-.2 0-.26.02-.1.03-.14.1-.16.19 0 .03 0 .05.03.07.03.02.05.03.08.02.45-.16.92-.15 1.4.02.05.02.1.02.14.01.04 0 .08-.03.12-.06a.5.5 0 0 0 .12-.16c.02-.06 0-.09-.06-.09-.18 0-.35-.01-.53-.03-.16-.01-.16-.05-.02-.12a.7.7 0 0 0 .33-.33.13.13 0 0 0 0-.09.13.13 0 0 0-.04-.08l-.03-.02a.07.07 0 0 0-.06-.01.07.07 0 0 0-.05.04l-.12.24c-.1.21-.15.2-.13-.04.01-.14.02-.3.01-.45a.1.1 0 0 0-.03-.06.08.08 0 0 0-.06-.03h-.07c-.04 0-.07.03-.07.08v.84c0 .03-.01.04-.04.04h-.02c-.03-.01-.05-.03-.05-.07v-.77c0-.06-.03-.09-.09-.09h-.04c-.06 0-.1.03-.1.1Z" fill="#EA1A23"/></svg>