<!-- by TradingView --><svg width="18" height="18" viewBox="0 0 18 18" xmlns="http://www.w3.org/2000/svg"><path fill="#F0F3FA" d="M0 0h18v18H0z"/><path d="M9.04 15c3 0 5.5-2.19 5.96-5.06h-.65a5.43 5.43 0 0 1-10.71-.08h-.58A6.03 6.03 0 0 0 9.04 15Z" fill="url(#a)"/><path d="M3.06 9.86A6.02 6.02 0 0 1 9.04 3 6.4 6.4 0 0 1 15 7h-.68A5.8 5.8 0 0 0 9 3.57a5.43 5.43 0 0 0-5.36 6.29h-.58Z" fill="url(#b)"/><path d="M10 8h-.8v2.5h-.33V8H8v-.5h2V8ZM7 10.5h-.4V9.14H5.4v1.36H5v-3h.39v1.36H6.6V7.5H7v3ZM13 9.68c0 .52-.5.82-.99.82-.36 0-.74-.1-1.01-.35l.26-.32c.21.17.5.23.76.23.23 0 .5-.08.5-.37 0-.25-.16-.34-.36-.41-.51-.17-1.14-.33-1.14-.97 0-.53.5-.81.99-.81.34 0 .66.13.91.36l-.26.32c-.2-.15-.4-.24-.66-.24-.23 0-.44.09-.44.37 0 .35.47.46.73.54.4.13.71.4.71.83Z" fill="#0151F2"/><defs><linearGradient id="a" x1="14.27" y1="9.94" x2="3.47" y2="10.21" gradientUnits="userSpaceOnUse"><stop stop-color="#F0F3FA"/><stop offset=".49" stop-color="#38E6AB"/><stop offset="1" stop-color="#02CEE9"/></linearGradient><linearGradient id="b" x1="15.03" y1="6.45" x2="4.22" y2="9.95" gradientUnits="userSpaceOnUse"><stop stop-color="#014FF1"/><stop offset="1" stop-color="#01CDE8"/></linearGradient></defs></svg>