<!-- by TradingView --><svg width="18" height="18" viewBox="0 0 18 18" xmlns="http://www.w3.org/2000/svg"><path fill="#010E52" d="M0 0h18v18H0z"/><path d="M6.78 12.9c.1.19.17.38.21.58.06.27.02.28-.12.04-1.14-1.9-1.28-3.76.32-5.51.21-.24.44-.47.66-.7.6-.62 1.22-1.24 1.61-1.97.36-.65.6-1.36.75-2.11.06-.3.15-.3.27-.03l.8 1.87c.04.08.03.15-.01.21-.35.52-.67.9-.95 1.13l-.3.25c-1.77 1.49-3.87 3.24-3.4 5.76.04.17.1.32.16.48Zm.07-.22c-.12-2 .68-3.42 2.2-4.67a16.56 16.56 0 0 0 2.43-2.41h.02l.01.02.37.73c.02.05 0 .08-.03.11l-.78.67c-.57.49-1.14.98-1.74 1.45-1.36 1.05-2.28 2.34-2.24 4.07 0 .1.04.18.07.27.04.11.09.23.05.37-.03.14-.06.14-.08 0-.03-.16-.12-.31-.2-.43-.04-.08-.08-.14-.08-.18Zm1.56-.45c-.58.95-.53 1.84.15 2.65.15.17.17.16.08-.04-.52-1.16.18-2.35 1.07-3.19l2.22-2.09c.07-.07.09-.15.05-.24l-.57-1.34a.06.06 0 0 0-.02-.03.06.06 0 0 0-.07 0 .06.06 0 0 0-.02.03c-.38 1.03-1.06 1.87-1.73 2.69-.41.51-.82 1.02-1.16 1.56Z" fill="url(#aiha4dzpo)"/><defs><linearGradient id="aiha4dzpo" x1="9" y1="3" x2="9" y2="15" gradientUnits="userSpaceOnUse"><stop stop-color="#FAE5A6"/><stop offset=".45" stop-color="#FFFEF0"/><stop offset="1" stop-color="#FFFDFC"/></linearGradient></defs></svg>