<!-- by TradingView --><svg width="18" height="18" viewBox="0 0 18 18" xmlns="http://www.w3.org/2000/svg"><path fill="#F0F3FA" d="M0 0h18v18H0z"/><path d="M7.33 5H5c1.33 1.31 3.07 3.67 3.5 3.67.43 0 .5-.18.5-.27V6.67h.33c.84.66 2.71 2 3.14 2 .42 0 .53-.18.53-.27V5h-1v1.67L10.33 5H8.67v1.33L7.33 5Z" fill="#1B4A9D"/><path d="M13 6.95v3.77c0 .1-.11.28-.56.28-.44 0-2.22-1.32-3.35-2.16L9 8.78v1.94c0 .1-.05.28-.5.28-.26 0-1.22-1.17-2.27-2.43L4.91 6.99C3.74 7.63 3 8.53 3 9.53 3 11.45 5.69 13 9 13c2.23 0 4.17-.7 5.2-1.74-1 .72-2.82 1.2-4.91 1.2-3.16 0-5.72-1.1-5.72-2.45 0-.47.3-.9.83-1.28-.19.25-.28.51-.28.78 0 1.36 2.43 2.46 5.44 2.46 2.82 0 5.14-.97 5.41-2.2l.01.04a2.04 2.04 0 0 0-.22-1.25c-.3.4-.8.93-1.47 1.24.33-.3.94-1.04 1.1-1.8-.34-.4-.82-.75-1.39-1.05Z" fill="#1B4A9D"/></svg>