<!-- by TradingView --><svg width="18" height="18" viewBox="0 0 18 18" xmlns="http://www.w3.org/2000/svg"><path fill="#E89A37" d="M0 0h18v18H0z"/><path d="M9.96 5.77c-.14.35-.34.7-.41 1.08-.07.31-.15.6-.24.87-.07.23-.27.32-.57.27-.14-.03-.7-.06-.72-.2-.03-.34-.02-.57.03-.7.1-.21.18-.43.25-.64C8.43 6.12 9 5 9.52 5c.04 0 .07.01.1.03.28.18.46.43.34.74ZM9.8 8.04c-.03-.02-.04-.04-.03-.06.09-.24.2-.43.33-.57.3-.31.9-1.05 1.29-1.34.15-.1.3-.1.43.05.15.17.26.42.1.61-.32.4-.84 1.21-1.1 1.6-.2.32-.8-.15-1.02-.3ZM11.97 8.27c.13-.07.34-.16.63-.26a.13.13 0 0 1 .13.01c.12.09.37.22.22.45-.31.49-.64.95-1 1.4-.14.18-.29.17-.43-.02-.17-.23-.33-.44-.5-.63-.02-.03-.03-.06 0-.1.2-.37.63-.68.95-.85Z" fill="#fff"/><path fill-rule="evenodd" d="M7.9 8.7c-.1 0-.14-.04-.14-.12-.02-1.11 0-2.27.07-3.48.02-.38-.1-.7-.36-.98-.2-.2-.49-.13-.61.1-.17.32-.29.65-.35.98-.08.46-.18.93-.23 1.4a51.23 51.23 0 0 0-.27 3.11c-.02.54 0 1.06.01 1.6l.02.94c0 .42.14 1.17.7 1.15.34 0 .62-.07.84-.18a.55.55 0 0 1 .4-.03c.04 0 .05.03.05.07l-.02.59c0 .05.04.09.08.1.81.2 1.34-.23 1.81-.81.73-.91.88-1.14 1.07-2.16.08-.42 0-.79-.26-1.12A2.82 2.82 0 0 0 7.9 8.7Zm.1 3.74c.66-.2 1.45-.87 1.44-1.6-.01-.57-.48-.92-1.02-.9h-.48a.06.06 0 0 0-.07.05 106.11 106.11 0 0 0 .04 1.83c.02.22.04.32.01.54a.07.07 0 0 0 .09.08Z" fill="#fff"/></svg>