<!-- by TradingView --><svg width="18" height="18" viewBox="0 0 18 18" xmlns="http://www.w3.org/2000/svg"><path fill="#F0F3FA" d="M0 0h18v18H0z"/><path d="M4.31 11.37a3.92 3.92 0 0 1 .55-3.99c.3-.38.7-.74 1.2-1.09A8.4 8.4 0 0 0 8.2 4.33c.08-.11.13-.1.16.03a10.28 10.28 0 0 1 .16 2.54A5.29 5.29 0 0 0 5.4 8.37c-.43.41-.74.87-.93 1.38a2.98 2.98 0 0 0-.15 1.62Z" fill="url(#aa3gq2yio)"/><path d="M10.5 6.47c.41-.12.9-.34 1.43-.66a9.32 9.32 0 0 0-1.8-2.63.8.8 0 0 0-.27-.17.1.1 0 0 0-.08 0 .07.07 0 0 0-.03.04v.04a10.68 10.68 0 0 1 .71 3.35c0 .02.01.03.04.03Zm-.56 4.7c-.15.4-.36.76-.61 1.07a2.93 2.93 0 0 1-2.92 1 3.37 3.37 0 0 1-1.06-.42v.01a4.69 4.69 0 0 0 3.58 1.15 4.75 4.75 0 0 0 1.82-.53c.56-.3 1.04-.7 1.41-1.19.4-.5.65-1.07.76-1.7.1-.5.1-1.03.04-1.56a9.01 9.01 0 0 0-.77-2.66l-.03.01c-.44.52-.94.96-1.5 1.33a.28.28 0 0 0-.14.22l-.06.94c-.06.8-.23 1.59-.52 2.34Z" fill="url(#ba3gq2yio)"/><path d="M6.47 9.02a7.48 7.48 0 0 1 1.86-.54c.03 0 .05 0 .06.03.02.02.02.05.02.08-.07.51-.16 1.03-.28 1.56-.26 1.13-.7 1.89-1.31 2.28-.19.11-.4.18-.64.21s-.46.01-.67-.05c-.35-.1-.62-.28-.8-.55a1.3 1.3 0 0 1-.24-.91c.03-.3.15-.6.36-.88.2-.27.44-.5.72-.71.26-.19.56-.36.92-.52Z" fill="url(#ca3gq2yio)"/><defs><linearGradient id="aa3gq2yio" x1="9.65" y1="3.04" x2="4.83" y2="11.69" gradientUnits="userSpaceOnUse"><stop stop-color="#B23701"/><stop offset=".52" stop-color="#F49E00"/><stop offset="1" stop-color="#B94100"/></linearGradient><linearGradient id="ba3gq2yio" x1="5.91" y1="3.54" x2="8.76" y2="14.11" gradientUnits="userSpaceOnUse"><stop stop-color="#A72600"/><stop offset=".42" stop-color="#F39A00"/><stop offset="1" stop-color="#A72500"/></linearGradient><linearGradient id="ca3gq2yio" x1="9.23" y1="8.77" x2="5.56" y2="12.92" gradientUnits="userSpaceOnUse"><stop stop-color="#F9B700"/><stop offset="1" stop-color="#B13400"/></linearGradient></defs></svg>