<!-- by TradingView --><svg width="18" height="18" viewBox="0 0 18 18" xmlns="http://www.w3.org/2000/svg"><path fill="#181B1E" d="M0 0h18v18H0z"/><path d="M12.85 5.8h-7.7c.5-.27 2.17-.8 3.93-.8a9.1 9.1 0 0 1 3.77.8ZM5.15 5.89l.35-.09v.53h-.35V5.9ZM6.2 6h.35v.33H6.2V6ZM8.65 6H8v.33h.65V6ZM10 6h.35v.33H10V6ZM12.15 6h-.35v.33h.35V6ZM7.25 5.8h.35v.53h-.35V5.8ZM9.35 5.8H9v.53h.35V5.8ZM11 5.8h.35v.53H11V5.8ZM12.33 7H14v.89h-.67v.67h.56v.76h-.56v.8H14V11h-1.67V7ZM12 9.33c0 .38-.01.66-.03.82-.09.69-.83.85-1.3.85-.47 0-1.21-.16-1.3-.84a7.03 7.03 0 0 1-.04-.83v-.66c0-.38.01-.66.03-.82.1-.69.83-.85 1.3-.85.47 0 1.21.16 1.3.84.03.16.04.44.04.83v.66Zm-1.15-1.26c0-.18-.01-.3-.04-.34-.02-.06-.07-.08-.14-.08-.06 0-.1.02-.14.06-.03.04-.04.16-.04.36v1.79c0 .22 0 .36.03.41.02.05.07.08.14.08.08 0 .13-.03.15-.09.03-.06.04-.2.04-.43V8.07ZM6.33 8.6h-1v-.51c0-.2 0-.32-.02-.37-.02-.05-.06-.07-.14-.07-.08 0-.13.03-.15.09C5 7.8 5 7.92 5 8.12V9.9c0 .19 0 .3.02.37.02.05.07.08.15.08.07 0 .12-.03.14-.08.02-.06.02-.2.02-.4V9.4h1v.13c0 .93-.32 1.47-1.15 1.47C4.35 11 4 10.52 4 9.56V8.43C4 7.53 4.33 7 5.15 7c.8 0 1.18.45 1.18 1.39v.21ZM9 8.6H8v-.51c0-.2 0-.32-.02-.37-.02-.05-.07-.07-.14-.07-.08 0-.13.03-.15.09-.02.06-.02.18-.02.38V9.9c0 .19 0 .3.02.36s.07.09.14.09c.08 0 .13-.03.15-.09.02-.05.02-.19.02-.4V9.4h1v.13C9 10.46 8.67 11 7.85 11c-.84 0-1.18-.48-1.18-1.44V8.43C6.67 7.53 7 7 7.82 7 8.62 7 9 7.45 9 8.39v.21Z" fill="#989898"/><path d="M16 9c0 2.2-3.13 4-7 4s-7-1.8-7-4 3.13-4 7-4c1.64 0 3.16.32 4.35.87a.88.88 0 0 0-.03.4A10.46 10.46 0 0 0 9 5.4C5.33 5.4 2.35 7.01 2.35 9S5.33 12.6 9 12.6c3.67 0 6.65-1.61 6.65-3.6 0-.82-.5-1.57-1.35-2.17.1-.06.2-.15.27-.26C15.47 7.25 16 8.1 16 9Z" fill="#989898"/><path fill-rule="evenodd" d="M13.97 7c.54 0 .98-.45.98-1s-.44-1-.97-1A.99.99 0 0 0 13 6c0 .55.44 1 .97 1Zm0-.22c.42 0 .76-.35.76-.78a.77.77 0 0 0-.76-.78.77.77 0 0 0-.75.78c0 .43.34.78.75.78Z" fill="#989898"/></svg>