<!-- by TradingView --><svg width="18" height="18" viewBox="0 0 18 18" xmlns="http://www.w3.org/2000/svg"><path fill="#F0F3FA" d="M0 0h18v18H0z"/><path d="m9.16 8.17 1.48.32c1.34.28 2.11.95 1.82 2.1-.4 1.57-2.3 2.41-4.24 2.41-1.98 0-3.58-.86-3.15-2.54h1.8c-.07.84.52 1.2 1.6 1.2.9 0 1.9-.16 2.1-.95l.02-.16c-.02-.51-.82-.68-1.37-.78l-.92-.18c-1.53-.3-2.65-.82-2.3-2.22C6.4 5.83 8.18 5 10.08 5c1.88 0 3.2.98 2.87 2.48h-1.82c.15-.8-.59-1.15-1.5-1.15-.8 0-1.68.25-1.85.92-.16.66.77.8 1.38.92Z" fill="#003B8C"/></svg>