<!-- by TradingView --><svg width="18" height="18" viewBox="0 0 18 18" xmlns="http://www.w3.org/2000/svg"><path fill="#F0F3FA" d="M0 0h18v18H0z"/><path d="M6.57 5.26c.16-.03.33-.09.5-.18a11.16 11.16 0 0 0 .88-.52.71.71 0 0 1 .4-.26h.02c.03.01.04.04.04.07 0 0 0 .02-.03.03-.34.25-.8.55-1.36.89-.2.12-.47.26-.7.2-.2-.06-.37-.3-.18-.47.13-.11.25-.1.36.03.02.02.03.08.03.18 0 .03.01.03.04.03ZM11 5.23c.01-.03 0-.07-.02-.11-.04-.06-.03-.11.02-.16.15-.11.32-.06.35.11.05.27-.29.38-.51.4-.35 0-.55.03-.6.06-.22.1-.43.19-.63.25a.83.83 0 0 1-.27.02c-.06 0-.06-.02 0-.03.04-.02.14-.02.19-.04.19-.08.41-.19.67-.33.22-.12.47-.09.74-.1l.05-.02a.07.07 0 0 0 .02-.05ZM7.9 6.62c.15.05.26.15.35.3a.04.04 0 0 1-.02.04c-.74.44-1.6 1.18-1.58 2.13.02.91.85 1.7 1.75 1.66.6-.02 1.1-.37 1.44-.85.02-.02.03-.02.04 0v.05c-.45 1.09-1.98 1.28-3 1.25C5.56 11.16 3.98 10.6 4 9c0-.7.4-1.37 1.09-1.74.6-.34 1.25-.58 1.88-.86a.17.17 0 0 1 .14 0c.15.07.32.1.49.07a.1.1 0 0 1 .07.01c.1.07.12.09.24.13Z" fill="#313B98"/><path d="M6.89 8.81c.44-.96 1.8-1.2 2.77-1.2 1.37-.03 3.31.43 3.34 2.07.02 1.08-1.02 1.77-2.02 2.05-.77.22-1.57.3-2.4.23-.6-.04-1.18-.11-1.77-.09-.71.03-1.4.17-2.07.43-.24.1-.52.3-.68.4h-.03s-.02 0-.02-.02v-.04l.01-.04c.26-.3.6-.54 1-.72a6.71 6.71 0 0 1 3.09-.5c.34 0 .6-.01.76-.06.73-.22 1.5-.9 1.48-1.64-.02-.97-1.1-1.63-1.99-1.62-.6.01-1.08.35-1.43.8-.02.02-.03.02-.04 0v-.05ZM10.4 12.3a3.7 3.7 0 0 0 1.04-.22c.59-.21 1.12-.38 1.75-.22.3.08.56.19.8.33.01.01.02.03 0 .04-.02.03-.06.03-.1.01-.47-.16-.93-.2-1.38-.11-.3.05-.66.2-1 .24-.42.05-.82.04-1.23-.02-.14-.02-.14-.04.01-.05h.1ZM11.92 12.62l.15-.03c.2-.04.22-.02.03.06a4.39 4.39 0 0 1-2.82.2c-.91-.2-1.86-.3-2.84-.27-.11 0-.12-.01-.01-.05.13-.04.25-.07.39-.08a8.42 8.42 0 0 1 2.41.09c.9.17 1.78.28 2.69.08Z" fill="#2B94DC"/><path fill-rule="evenodd" d="M7.58 5.64c.19-.17.35-.2.57-.18.24.03.24.06 0 .08a.86.86 0 0 0-.5.25.94.94 0 0 1-.28.2c-.06.03-.24.03-.24.13a.07.07 0 0 0 .02.05c.05.05.13.05.2.05h.03c.1 0 .2 0 .27-.03.03-.01.05 0 .07.01.14.18.32.26.5.05.04-.05.06-.1.05-.14-.02-.1-.14-.2-.24-.14l-.11.06c-.03.01-.06-.01-.06-.05 0-.05.03-.1.08-.14.15-.15.3-.16.42-.03.07.08.1.16.06.26-.02.06 0 .1.05.15.09.07.13.15.1.24 0 .06-.08.09-.13.04l-.07-.07c-.04-.03-.09-.04-.13 0a.23.23 0 0 0-.05.03c-.03.05-.03.1 0 .13.1.09.19.12.28.1.33-.06.63-.22.93-.4a2 2 0 0 1 .83-.28c.18-.02.35.03.5.16.13.1.08.26-.06.26-.34 0-.65.07-.94.2-.02 0 .01.05.03.05.33-.1.67-.1 1.04 0 .06 0 .14-.02.24-.07.05-.03.08-.1.1-.2a.38.38 0 0 1 .14-.21.22.22 0 0 0 .07-.22c-.02-.06-.05-.08-.1-.04l-.15.14a.11.11 0 0 1-.15 0 1 1 0 0 0-.77-.23c-.21.01-.48.07-.8.16-.18.05-.52.1-.63-.08a.14.14 0 0 1 .08-.2c.39-.1.6-.32.89-.6l.1-.12c.08-.07.16-.1.25-.12l.03-.02a.07.07 0 0 0 0-.1c-.16-.13-.16-.27-.03-.41.04-.03.07-.04.1-.03.03.01.04.03.03.05l-.04.12c-.01.02-.01.05 0 .07.08.17.2.23.34.16.12-.05.17-.15.14-.3a.1.1 0 0 0-.03-.07 2.1 2.1 0 0 1-.27-.23c-.18-.2-.44-.17-.57.06-.04.06-.04.24-.12.27a.8.8 0 0 0-.37.26c-.03.04-.06.04-.09 0-.37-.36-.64-.23-.94.07-.19.19-.36.3-.62.47-.14.08-.26.18-.37.3a3.44 3.44 0 0 1-.69.56c-.09 0-.1-.09-.11-.15-.01-.04-.03-.06-.05-.07-.1-.06-.17-.06-.23-.02-.14.1-.16.22-.06.37.11.18.27.22.47.14a.98.98 0 0 0 .3-.17.07.07 0 0 0 .01-.05c0-.08 0-.13.03-.17.01-.04.06-.07.14-.09.2-.06.38-.15.51-.27Zm1.07-.52c.05-.02.12 0 .17.01.02 0 .04 0 .05-.02.06-.08.1-.16.1-.24 0-.03-.01-.04-.03-.06-.18-.1-.33.01-.4.19l-.17.3c-.06.1-.04.12.06.06.04-.02.1-.08.17-.2a.1.1 0 0 1 .05-.04Z" fill="#313B98"/></svg>