<!-- by TradingView --><svg width="18" height="18" viewBox="0 0 18 18" xmlns="http://www.w3.org/2000/svg"><path fill="#F0F3FA" d="M0 0h18v18H0z"/><path d="M9 14a5 5 0 0 0 4.71-6.68l-.57-.13c.11 1.12-.04 3.59-1.55 4.48.43-.66 1.12-2.6-.43-3.96-1.47-1.3-3.07-1.27-3.37-.87-.26.35-.26.78.26 1.21.42.35 1.9 1.81 2.59 2.5.37.49.76 1.62-.7 2.24a4.33 4.33 0 0 1-3.53-.17l-.59.24A4.98 4.98 0 0 0 9 14Zm-4.49-2.8.61-.13c-.17-.83-.24-2.73.86-3.62-.2.77-.2 2.57 1.38 3.53 1.59.97 2.62.63 2.93.35.15-.15.31-.57-.17-1.12l-2.5-2.33c-.37-.43-.88-1.43.09-1.98 1.15-.66 2.38-1.08 4.81-.45A4.98 4.98 0 0 0 4 9c0 .8.18 1.54.51 2.2Z" fill="#2B282E"/><path d="M9.3 14H9c-1.17 0-2.24-.4-3.1-1.07.43.2 1.3.53 2.07.47.37-.03.82-.18 1.25-.38.24-.05.49-.12.73-.23 1.45-.62 1.06-1.75.69-2.24a76.18 76.18 0 0 0-2.59-2.5c-.51-.43-.51-.86-.26-1.2.2-.25.88-.36 1.72-.1.65.31 1.4.83 1.82 1.65.69 1.3.06 3.07-.35 3.79a2.76 2.76 0 0 0 .6-.52c1.52-.9 1.67-3.36 1.56-4.48a4 4 0 0 1 .34 2.5c-.25 1.44-1.26 4.06-4.18 4.3Z" fill="#1F4189"/><path d="M4.45 11.07c-.2-1.27 0-3.6 2.14-4.91-.18.29-.49.85-.69 1.36l.08-.07c-.2.77-.2 2.57 1.38 3.53.8.49 1.46.65 1.96.64.36-.1.68-.3.71-.64.03-.14-.01-.5-.43-.77L7.02 7.88c-.32-.46-.71-1.55.26-2.24a5.34 5.34 0 0 1 5.24-.19l-.01-.01A4.98 4.98 0 0 0 4 9c0 .74.16 1.44.45 2.07Z" fill="#C91F3D"/></svg>