<!-- by TradingView --><svg width="18" height="18" viewBox="0 0 18 18" xmlns="http://www.w3.org/2000/svg"><path fill="#F0F3FA" d="M0 0h18v18H0z"/><path d="M11.1 5.54c1.12-.37 3.42-.91 4.46-.17.93.66.18 1.87-.36 2.51-.07.08-.08.07-.05-.03l.15-.48c.25-.76-.09-1.47-.78-1.7a6.72 6.72 0 0 0-3.42.05c-.25.05-.5.08-.72.1-.07 0-.07-.01 0-.05.23-.1.48-.15.73-.23ZM9.32 5.96a9.2 9.2 0 0 0-1.75 1.12h-.01V5.91c0-.06.02-.08.06-.08l1.68-.01c.19 0 .2.04.02.13Z" fill="#FAC649"/><path d="M4.62 6h-.91c-.02 0-.04.03-.04.06v4.88c0 .03.02.06.04.06h.91c.03 0 .05-.03.05-.06V6.06c0-.03-.02-.06-.05-.06ZM10.74 10.23h.9c.02 0 .03.01.03.03v.69c0 .03-.02.05-.05.05h-1.44a.42.42 0 0 1-.2-.05.52.52 0 0 1-.16-.15.82.82 0 0 1-.15-.47V6.08c0-.05.02-.08.06-.08h.86c.05 0 .08.04.08.1v4.04c0 .06.02.1.07.1ZM6.94 6h-.88c-.04 0-.06.03-.06.08v4.84c0 .05.02.08.06.08h.88c.04 0 .06-.03.06-.08V6.08C7 6.03 6.98 6 6.94 6ZM13.03 6.77l-.03.01v1.29c0 .03 0 .04.03.04h1.12c.04 0 .06.03.06.08v.6c0 .08-.02.12-.08.12H13v1.27c0 .04 0 .05.03.05h1.28c.01 0 .02.01.02.04V10.99l-.03.01h-1.85a.4.4 0 0 1-.32-.18.73.73 0 0 1-.13-.43V6.58c0-.16.04-.3.12-.4.08-.12.19-.18.3-.18h1.86c.01 0 .03 0 .04.02l.01.05v.65c0 .03 0 .05-.03.05h-1.27ZM9 6.8v4.14l-.01.04-.03.02h-.92s-.02 0-.03-.02a.06.06 0 0 1 0-.03L8 7.55v-.03l.02-.02.92-.75.02-.01h.02l.02.03v.02Z" fill="#0057A6"/><path d="m5.84 7.56-.02.55v.04l-.75.77h-.05l-.01-.01L5 8.88 5.02 8v-.02l.02-.02.74-.44a.04.04 0 0 1 .04 0l.01.02v.02ZM11.13 11l.02.04v.01a15.36 15.36 0 0 1-6.11 1.93c-.85.07-1.6-.03-2.28-.33a1.3 1.3 0 0 1-.71-.86c-.08-.24-.07-.49.04-.74.28-.7.66-1.25 1.16-1.65.09-.07.12-.05.11.07-.03.31-.03.64 0 .96a.3.3 0 0 1-.04.18c-.85 1.4.89 1.66 1.63 1.65 2.04-.01 4.18-.46 6.18-1.26Z" fill="#FAC649"/></svg>