<!-- by TradingView --><svg width="18" height="18" viewBox="0 0 18 18" xmlns="http://www.w3.org/2000/svg"><path fill="url(#amfx5xpun)" d="M0 0h18v18H0z"/><path d="M8.77 14c-2.28 0-3.46-.42-3.77-.62v-2.05h.3c.49 1.41 1.55 2.39 3.13 2.39 1.57 0 2.36-.86 2.36-1.63 0-.77-.43-1.36-1.33-1.75-.9-.4-4.35-1.03-4.35-3.4S7.38 4 9.33 4c1.56 0 2.77.47 3.18.7l-.15 1.87-1.4-1.87a2.7 2.7 0 0 0-1.5-.4c-.95 0-2.21.36-2.21 1.54 0 1.18 1.32 1.9 2.2 2.12.9.21 3.55 1.1 3.55 3S11.62 14 8.77 14Z" fill="#F2D979"/><defs><linearGradient id="amfx5xpun" x1="3.35" y1="3.12" x2="21.9" y2="24.43" gradientUnits="userSpaceOnUse"><stop stop-color="#1A1E21"/><stop offset="1" stop-color="#06060A"/></linearGradient></defs></svg>