<!-- by TradingView --><svg width="18" height="18" viewBox="0 0 18 18" xmlns="http://www.w3.org/2000/svg"><path fill="#F0F3FA" d="M0 0h18v18H0z"/><path d="M9 15A6 6 0 1 1 9 3a6 6 0 0 1 0 12ZM9 3.1a5.9 5.9 0 1 0 0 11.8A5.9 5.9 0 0 0 9 3.1Z" fill="#1369A8"/><path d="M11.85 10.2c-.13-.32-.37-.6-.66-.78a1.84 1.84 0 0 0-1.56-.21v-.7H8.38v3.48h1.25v-1.1a.57.57 0 0 1 .94-.36c.1.1.17.23.18.36V12H12v-1.1c0-.25-.05-.48-.15-.7Z" fill="#0C947B"/><path d="m8.38 9.22 1.25 1.68.56-.54s-.68-1.1-1.81-1.14Z" fill="url(#a)"/><path d="M9.63 12H8.38v-1.1a.54.54 0 0 0-.18-.37.57.57 0 0 0-.76 0 .6.6 0 0 0-.18.36V12H6v-1.1a1.75 1.75 0 0 1 .54-1.26 1.82 1.82 0 0 1 1.28-.52 1.85 1.85 0 0 1 1.29.52 1.77 1.77 0 0 1 .53 1.25V12Z" fill="#0C947B"/><path d="M9.67 10.9c0-.4-.18-.79-.43-1.1a1.82 1.82 0 0 0-2.17-.52 1.8 1.8 0 0 0-.86.8c.52-.18 1.44-.4 1.95.17.12.18.17.42.17.64v.83H8V12h2v-.28h-.33v-.83Z" fill="url(#b)"/><path d="M6 12h1.33v-1.1c0-.33.18-.52.52-.53C6.19 10.22 6 12 6 12Z" fill="url(#c)"/><path d="M12 12h-1.33v-1.1c0-.33-.16-.52-.5-.52C11.83 10.22 12 12 12 12Z" fill="url(#d)"/><path d="M7.81 5.63c-.48 0-.94.18-1.28.51C6.2 6.48 6 6.93 6 7.4v1.62c.35-.3.85-.58 1.32-.62l-.07-1a.6.6 0 0 1 .18-.37.57.57 0 0 1 .76 0c.1.1.17.23.18.37v1.1h1.25V7.4a1.78 1.78 0 0 0-1.81-1.77Z" fill="#E4391F"/><path d="M7.33 7.4c0-.32.16-.52.5-.52C6.17 6.73 6 9 6 9c.35-.3.87-.52 1.33-.56V7.4Z" fill="url(#e)"/><path d="M11.85 6.7c-.13-.32-.37-.6-.66-.78a1.84 1.84 0 0 0-1.56-.21V5H8.05v.24s.33 0 .33.2V8.5h1.26V7.4c0-.15.06-.29.16-.39.1-.1.24-.16.39-.16a.6.6 0 0 1 .4.16c.1.1.16.24.16.38v1.1c.46.03.9.22 1.25.52V7.4c0-.24-.05-.48-.15-.7Z" fill="#E4391F"/><path d="M10.67 7.4c0-.33-.14-.55-.48-.55C11.85 6.7 12 9 12 9.02c-.35-.3-.87-.49-1.33-.53v-1.1Z" fill="url(#f)"/><path d="M10.19 5.62c-.19 0-.34.03-.52.09V5H8v.24s.33 0 .33.2V8.5h1.34V7.26c0-.19.04-.35.14-.5.5-.56 1.47-.35 2-.18a1.8 1.8 0 0 0-1.62-.96Z" fill="url(#g)"/><path d="M9 14.8A5.8 5.8 0 1 1 9 3.2a5.8 5.8 0 0 1 0 11.6ZM9 4.18a4.82 4.82 0 1 0 0 9.64 4.82 4.82 0 0 0 0-9.64Z" fill="#126594"/><defs><linearGradient id="a" x1="10.03" y1="10.54" x2="8.24" y2="9.4" gradientUnits="userSpaceOnUse"><stop stop-color="#3E8773"/><stop offset=".32" stop-color="#2D6454"/><stop offset="1" stop-color="#244F43"/></linearGradient><linearGradient id="b" x1="10.25" y1="12.08" x2="6.76" y2="9.26" gradientUnits="userSpaceOnUse"><stop stop-color="#005040"/><stop offset="1" stop-color="#0C947B"/></linearGradient><linearGradient id="c" x1="7.29" y1="10.2" x2="6.6" y2="12.07" gradientUnits="userSpaceOnUse"><stop stop-color="#005040"/><stop offset="1" stop-color="#0C947B"/></linearGradient><linearGradient id="d" x1="10.72" y1="10.2" x2="11.41" y2="12.07" gradientUnits="userSpaceOnUse"><stop stop-color="#005040"/><stop offset="1" stop-color="#0C947B"/></linearGradient><linearGradient id="e" x1="7.19" y1="6.73" x2="6.88" y2="8.01" gradientUnits="userSpaceOnUse"><stop stop-color="#77181F"/><stop offset="1" stop-color="#D73A23"/></linearGradient><linearGradient id="f" x1="10.82" y1="6.73" x2="11.13" y2="8.01" gradientUnits="userSpaceOnUse"><stop stop-color="#77181F"/><stop offset="1" stop-color="#D73A23"/></linearGradient><linearGradient id="g" x1="11.78" y1="6.73" x2="8.49" y2="6.76" gradientUnits="userSpaceOnUse"><stop stop-color="#77181F"/><stop offset="1" stop-color="#D73A23"/></linearGradient></defs></svg>