<!-- by TradingView --><svg width="18" height="18" viewBox="0 0 18 18" xmlns="http://www.w3.org/2000/svg"><path fill="#F0F3FA" d="M0 0h18v18H0z"/><path d="M7.2 5.68a.69.69 0 0 1-.12-.52c0-.05.03-.09.08-.1.95-.3 1.4.72 2.32.54.3-.06.45-.16.74-.25a.34.34 0 0 1 .12-.02c.1.01.13.07.13.2 0 .26-.21.5-.43.55-.35.1-.76.12-.97.5-.04.05 0 .13.07.13l.72-.04c.18 0 .25.07.2.27-.05.22-.16.4-.37.43-.28.03-.86.07-.98.4-.03.08 0 .12.07.1a1 1 0 0 1 .54.03c.2.06.26.2.17.42l-.17.42c-.06.15-.16.2-.3.17-.47-.11-.9-.04-1.32.22-.5.3-.68 1.1-.2 1.54.59.56 1.36.61 2 .05.16-.14.34-.12.53.07.1.09.11.07.06-.05-.08-.17-.2-.31-.27-.49-.42-1.18.52-2.23 1.5-2.38.27-.04.57-.04.86 0 .13.03.24-.1.24-.24 0-.04-.02-.09-.04-.12l-.41-.6a.17.17 0 0 1-.03-.08c0-.09 0-.16.15-.16.4 0 .64.16.74.51.02.06.06.1.11.12.16.05.4.07.46.27l.01.1c0 .07-.02.13-.05.19l-.27.34a.18.18 0 0 0 0 .21c.27.31.45.58.52 1.03v.12c-.03.12-.12.2-.23.22-.26.02-.5-.01-.71-.1a.2.2 0 0 1-.12-.12c-.07-.17-.12-.37-.27-.48-.57-.4-1.02-.3-1.43.32a.5.5 0 0 0-.09.28c0 .42.53.8.83.82.28.03.55-.13.8-.26a.17.17 0 0 1 .2.02c.38.33.63.66.74 1.01A9.7 9.7 0 0 0 14 12.9c0 .05-.03.1-.08.11h-1.4c-.06-.01-.1-.06-.1-.12l-.06-1.34c0-.07-.07-.12-.13-.1-.53.14-1.04.09-1.54-.16-.06-.03-.13 0-.15.08l-.29 1a.44.44 0 0 1-.13.22.35.35 0 0 1-.22.09h-.82c-.16 0-.24-.23-.14-.36.15-.18.28-.23.37-.41.05-.1.03-.13-.06-.08-.7.33-1.4.37-2.14.13-.06-.02-.11 0-.15.05-.23.29-.61 1-.98 1H4.7c-.07 0-.13-.07-.12-.15 0-.04.02-.08.05-.1.52-.42 1-.86 1.51-1.2a.1.1 0 0 0 .04-.08.1.1 0 0 0-.03-.08c-.3-.28-.5-.64-.57-1.08a.23.23 0 0 0-.08-.14c-.19-.17-.39-.3-.6-.41-.11-.06-.14-.02-.08.1l.2.43c.1.2.07.4-.08.57-.13.14-.28.24-.46.31-.15.06-.25 0-.3-.18A8.5 8.5 0 0 1 4 9.48c0-.07.02-.13.06-.19l.46-.64a.25.25 0 0 1 .14-.1c.06 0 .11 0 .16.02l.95.48c.03.01.06.02.09.01l.07-.04c.23-.3.5-.52.79-.69.06-.03.11-.1.13-.18a.33.33 0 0 0-.03-.23c-.23-.4-.66-.54-1.03-.29a.52.52 0 0 1-.2.1c-.06 0-.1-.02-.12-.08a2 2 0 0 1-.13-.8c0-.07.05-.11.1-.1.33.06.63.07.92.02.26-.05.28-.16.06-.32-.2-.15-1.03-.16-1.1-.37a.12.12 0 0 1 0-.1l.49-.73a.18.18 0 0 1 .13-.08c.05 0 .1.02.14.06.27.34.63.52 1.09.54.06 0 .08-.03.03-.09Z" fill="#E41124"/></svg>