<!-- by TradingView --><svg width="18" height="18" viewBox="0 0 18 18" xmlns="http://www.w3.org/2000/svg"><path fill="#F0F3FA" d="M0 0h18v18H0z"/><path d="M8.87 3h.42a5.96 5.96 0 0 1 4.54 2.44A6 6 0 0 1 15 8.95v.1l-.02.25a5.93 5.93 0 0 1-1.2 3.32c-.03.01-.03-.01 0-.07 0-.02.02-.04.04-.06a2.54 2.54 0 0 0 .24-.37l.08-.15.17-.33a6.16 6.16 0 0 0 .55-3.52 5.92 5.92 0 0 0-1.79-3.42l-.4-.35a6.3 6.3 0 0 0-1.47-.85l-.09-.03a2.58 2.58 0 0 0-.25-.1.45.45 0 0 1-.11-.03.37.37 0 0 0-.1-.03 3.02 3.02 0 0 1-.46-.1 1.32 1.32 0 0 0-.25-.05l-.1-.01a3.3 3.3 0 0 0-.58-.07.97.97 0 0 0-.18-.01h-.4a.9.9 0 0 0-.19.02h-.3c-.04.01-.09 0-.13-.01.27-.05.54-.07.81-.08Z" fill="#37E7FD"/><path d="M13.78 12.62a8.83 8.83 0 0 1-.74.81A5.9 5.9 0 0 1 9.28 15 5.93 5.93 0 0 1 5.4 13.8a.24.24 0 0 0 .07-.09l.06.05.06.05a15.75 15.75 0 0 0 .33.19c.01 0 .02 0 .03.02l.02.01.1.05c.03.03.06.05.1.06l.1.06.3.15c.05.02.1.05.18.07a2.79 2.79 0 0 1 .3.12l.09.03c.04.02.09.03.14.03l.02-.01v-.03l.16.04.1.02s.01 0 0 0l-.1-.06a4.16 4.16 0 0 1-1.4-1.45.3.3 0 0 0 .09-.1c.05.1.11.18.17.26l.15.2a370.27 370.27 0 0 1 .36.4 4.04 4.04 0 0 0 .68.56c.12.08.25.15.39.2l.11.05.1.04.1.03.11.02h.03v-.02c-.02-.01-.02-.02-.02-.03l.12.02h.02a.02.02 0 0 0 0-.03 4.67 4.67 0 0 1-.51-1.13 9.45 9.45 0 0 1-.19-.78.49.49 0 0 1 .18 0h-.02a.03.03 0 0 0-.02 0 .03.03 0 0 0 0 .03 7.77 7.77 0 0 0 .46 1.48l.04.05.02.03c0 .03.02.07.04.1a.8.8 0 0 1 .06.08l.1.12c0 .01 0 .02.02.03l.09.06a4.02 4.02 0 0 1 .19.05v-.02c.14 0 .26-.07.34-.17.12-.14.22-.3.3-.5.2-.49.34-1 .44-1.53v.15c0 .03.03.04.07.03a6.53 6.53 0 0 1-.47 1.56l-.12.22a.94.94 0 0 0-.1.12l-.01.02c-.01.04 0 .07.02.1a.04.04 0 0 0 .02.01h.1l.04-.03.02-.05a3.2 3.2 0 0 0 1.5-.87c.32-.32.59-.68.81-1.07h.16l.06.01c-.17.3-.35.57-.54.8a4.17 4.17 0 0 1-1.13 1.01c.03 0 .07 0 .1-.02a5.77 5.77 0 0 0 2.18-10.06 5.7 5.7 0 0 0-2.18-1.14l-.1-.03c-.03 0-.03 0-.01.02l.06.05s.02.01.02.03c.01.08.07.09.13.13l.23.18c.25.2.48.44.7.72a6.01 6.01 0 0 1 .97 1.92c0 .03.03.05.03.1v.02c.02.01.03.03.03.06v.01c.03.03.02.07.03.1.03.1.06.18.07.27l-.1.06a6.97 6.97 0 0 0-1.15-2.5 4.08 4.08 0 0 0-.76-.75 3 3 0 0 0-1.26-.56c-.02-.01-.04 0-.04.03v.04l.12.2a4.97 4.97 0 0 1 .35.82c.12.35.2.73.28 1.12a18 18 0 0 1 .22 1.7l.08 1.27h.01l-.15.1c-.01-.98-.1-1.96-.26-2.93a9.1 9.1 0 0 0-.32-1.31c-.1-.32-.24-.65-.44-.9-.08-.1-.23-.2-.35-.17a.48.48 0 0 0-.27.17c-.08.1-.16.22-.22.34a.47.47 0 0 0-.15-.12c.05-.1.1-.2.17-.28.03-.04.02-.06-.03-.05-.15.03-.32.09-.5.17a.6.6 0 0 0-.33-.01.23.23 0 0 1-.1 0h-.01a.01.01 0 0 0 0-.02.01.01 0 0 0-.02 0c-.76.2-1.44.55-2.05 1.03l-.5.45c-.16.14-.35.36-.58.65l-.02-.01h-.03l-.03.02-.02.02-.05.09a3.74 3.74 0 0 0-.53.9 5.42 5.42 0 0 0-.54 2.27 3.55 3.55 0 0 0 .03.7 6.1 6.1 0 0 0 .82 2.5c0 .05-.04.09 0 .12v.02l.01.03.01.03.02.03a.04.04 0 0 0 0 .03c.04.03.08.04.12.03l.07.15v.01l.02.03c.01 0 .01 0 0 0l-.02-.05v-.01h.02s.01 0 0 0v-.01h.02l.15.21.02.04a5.51 5.51 0 0 0 .24.28l-.07.1-.26-.3a5.98 5.98 0 0 1 3.74-9.68c.04.02.09.02.13.02l.12-.01h.18a71.3 71.3 0 0 0 .77 0l.17.01a1.98 1.98 0 0 1 .41.05l.1.01c.08.01.17.03.25.06l.1.02.1.02.26.05.1.03.1.04c.05 0 .1.02.13.03l.13.06.09.03c.52.21 1.01.5 1.47.85l.4.35c.09.08.17.16.24.25l.16.17.15.18a5.92 5.92 0 0 1 .7 6.34l-.18.33c-.02.06-.06.1-.08.15a2.53 2.53 0 0 1-.28.43c-.03.06-.03.08 0 .07Z" fill="#00ABF1"/><path d="M10.54 3.4v.06c.39.24.72.54 1 .9a5.51 5.51 0 0 1 .98 1.72c.09.22.17.5.25.86a.19.19 0 0 1-.07.04c-.01-.09-.04-.18-.07-.26 0-.04 0-.08-.03-.1V6.6c0-.02 0-.05-.02-.06l-.01-.03c0-.04-.02-.06-.03-.1a.42.42 0 0 0-.03-.1.3.3 0 0 1-.02-.07l-.01-.05a6.94 6.94 0 0 0-.91-1.7 3.83 3.83 0 0 0-.93-.89c-.06-.04-.12-.05-.13-.13 0-.02-.01-.02-.02-.03a.27.27 0 0 1-.06-.05c-.02-.02-.02-.03 0-.02l.1.03Z" fill="#37E7FD"/><path d="M7.93 3.43c.02 0 .03 0 .04.02l.02.01h.03l.02.01.02.02.03.01c.05.05.12.08.2.09.06.02.1.06.15.12.03.06.04.12.03.19l-.03.14c0 .1-.02.2-.04.3a5.04 5.04 0 0 0-.57-.27.44.44 0 0 1-.16-.17.38.38 0 0 1-.04-.13.85.85 0 0 1 0-.12c0-.1-.01-.18-.03-.23a.6.6 0 0 1 .33.01Z" fill="#FA2636"/><path d="M7.6 3.42c.02.05.02.13.02.23l.01.12c.01.05.02.1.04.13.04.07.1.13.16.17l.15.07a5.04 5.04 0 0 1 .42.2c-.03.08-.11.12-.25.1a.1.1 0 0 1-.04-.01l-.14-.05c-.04.01-.09.05-.13.1 0-.02-.02-.05-.05-.06l-.01-.03c-.08-.27-.32-.1-.45-.1l-.03.02a.7.7 0 0 0-.19.32c-.1.45-.12.9-.12 1.36 0 .15.04.35.1.6.02.03.03.07.03.1a3.13 3.13 0 0 0-.01.13l-.06.06h-.03c-.01 0-.02 0-.02.02l-.02.02h-.02a.05.05 0 0 0-.03.03c-.44 1.6.14.62-.5.8l-.02.01a.13.13 0 0 0 0 .11c.02.06.02.13.02.21 0 .07.01.13.03.2l-.05.25v.02l-.2.22-.01-.51a.4.4 0 0 0-.07-.19v-.02L6.05 8a.04.04 0 0 0-.03 0A.04.04 0 0 0 6 8l-.02.06a6.42 6.42 0 0 0-.04.52c-.02.04-.02.08-.05.12-.07.07-.14.14-.22.19a.28.28 0 0 0-.13.2v.01l-.01.01c-.02.09-.03.17-.03.26 0 .08 0 .17-.02.25-.03.27-.05.54-.06.82 0 .06-.03.12-.04.18a.7.7 0 0 1-.02.12 2.26 2.26 0 0 0-.08.32l-.02.07a1.71 1.71 0 0 1-.1.31v.05c-.02.01-.03.03-.02.06a.01.01 0 0 1-.01.02c-.02 0-.03.02-.02.04a.02.02 0 0 1-.01.02c-.02 0-.02.01-.02.03l-.01.02c-.02 0-.02.02-.02.03a.2.2 0 0 1-.01.09v.03l.03.04c-.1.15-.27.3-.45.38-.07-.03-.1-.22-.13-.28a.39.39 0 0 1 .03-.3.6.6 0 0 1 .16-.17 1 1 0 0 0 .33-.36.5.5 0 0 0 .06-.16l.12-.29c.06-.23.12-.45.13-.7l.01-.01v-.02a16.55 16.55 0 0 1 .08-.9c.03-.1.07-.2.13-.28a.59.59 0 0 1 .1-.1.32.32 0 0 0 .1-.12.56.56 0 0 0 .05-.25l-.02-.11a.13.13 0 0 1-.01-.06V8.1a2.4 2.4 0 0 0-.07-.17.35.35 0 0 1-.03-.17c0-.08.03-.15.07-.2a.47.47 0 0 0 .04-.09c.16-.36.41-.62.5-1.04 0-.06.04-.13.05-.19a11.95 11.95 0 0 1 .3-1.72l.05-.07.02-.02.03-.04c.05-.16.42-.26.52-.45a.33.33 0 0 0 .04-.1.68.68 0 0 0-.02-.27.5.5 0 0 1 .23-.13l.11-.01Z" fill="#DE0717"/><path d="M7.26 3.56c.02.09.03.18.02.27l-.04.1c-.12.22-.34.26-.51.44l-.01.01c0 .02-.02.03-.03.04l-.02.02-.04.07-.01.03a.2.2 0 0 1-.02.09 11.99 11.99 0 0 0-.31 1.8c-.1.44-.34.63-.52 1.03a.47.47 0 0 1-.04.08.42.42 0 0 0-.07.21c0 .05 0 .1.03.17a2.39 2.39 0 0 1 .07.23v.06c.02.03.05.12.05.16 0 .31-.32.4-.4.7a.73.73 0 0 0-.03.22c.01.46-.05.99-.16 1.43.05-.38.14-1.42.03-.3 0 .05 0 .09-.02.13a64.67 64.67 0 0 1-.04.13c.08-.5.14-1.05.13-1.55l.02-.15c0-.16.2-.31.26-.45.07-.12.1-.23.05-.36l-.11-.32a.47.47 0 0 1-.03-.2.5.5 0 0 1 .1-.23A2.62 2.62 0 0 0 6.2 6.1l.03-.24.01-.25c.05-.36.17-.69.18-1.05 0-.1 0-.18-.03-.27v-.03l.05-.06c.24-.2.54-.49.83-.63Z" fill="#9A030E"/><path d="m6.43 4.19-.05.06v.03a.8.8 0 0 1 .03.27 5.43 5.43 0 0 1-.03.38c-.12.45-.14.92-.22 1.37a6.28 6.28 0 0 1-.1.43.13.13 0 0 0-.04.06c-.05.15-.17.27-.25.4a4.48 4.48 0 0 0-.16.22.5.5 0 0 0-.1.23c0 .07 0 .14.03.21l.1.32c.06.13.05.25-.01.37a.2.2 0 0 1-.04.06.09.09 0 0 0-.03.04l-.01.03a.63.63 0 0 0-.12.14l-.01.03-.02.02-.02.02a.2.2 0 0 0-.04.1c0 .06-.03.1-.02.15.02.85.05 1.16-.21 1.92a.14.14 0 0 0-.04.07l-.01.03a.07.07 0 0 0-.03.03c-.1.22-.53.4-.54.66 0 .08.01.15.05.23l.08.19a.36.36 0 0 1-.1.09.12.12 0 0 1-.08.02.81.81 0 0 0-.19-.03l-.12-.03c-.04 0-.08 0-.11-.03a.04.04 0 0 1-.01-.03c0-.01 0-.02-.02-.03v-.03c-.02-.1-.04-.14 0-.24l.13-.1c.07-.03.14-.05.2-.1.2-.17.35-.35.49-.58.02-.03.06-.13.1-.27a3.9 3.9 0 0 0 .04-1.64c-.02-.03 0-.06-.03-.09v-.02a6.68 6.68 0 0 1-.04-.2c-.01-.07.02-.11.1-.15.08-.02.19-.06.27-.06.09 0 .14-.03.15-.12.03-.18-.04-.3-.2-.33l-.08-.07a.18.18 0 0 0-.1-.09.22.22 0 0 1-.08-.18c0-.08.05-.17.13-.26l.17-.26a.23.23 0 0 0 .1-.13c.33-.49.4-.79.43-1.4l.05-.28c.03-.13.06-.28.07-.44l.01-.09.01-.02a.07.07 0 0 0 .01-.05l.01-.04c.13-.15.1-.38.24-.52l.09-.12c.04-.07.1-.12.17-.15Z" fill="#370105"/><path d="M7.84 4.48a.1.1 0 0 0-.04.08v.03a6.7 6.7 0 0 1-.1.54c-.01.05 0 .14-.03.18v.03a12.97 12.97 0 0 0-.03.41v.21c-.02.25.21.5.23.76a49.8 49.8 0 0 1 0 .23c-.1.12-.25.15-.37.26a.37.37 0 0 0-.1.1.24.24 0 0 0-.03.13 159.51 159.51 0 0 1 0 1.02l-.05.06c-.01 0-.05.06-.06.05-.19-.37-.42-.48-.52-.9a.7.7 0 0 1 .02-.2 6.1 6.1 0 0 1 .13-.52c.03-.1.22-.07.22-.26l-.01-.1c-.07-.25-.1-.45-.1-.6l-.02-.3.02-.13c0-.34.05-.65.11-.93a.7.7 0 0 1 .2-.32c.04-.05.14-.08.21-.1.01 0 .14-.02.15 0 .07.04.08.1.1.18l.02.03c.03.01.05.04.05.06Z" fill="#FA2636"/><path d="m7.97 4.38.14.05a.55.55 0 0 0-.07.16 3.17 3.17 0 0 1-.1.41 15.57 15.57 0 0 0-.21 1.23.43.43 0 0 1-.09-.27l.12-.69.21-.89Z" fill="#00ABF1"/><path d="M8.1 4.43a.1.1 0 0 0 .05.02c-.17.64-.3 1.3-.37 1.95a.27.27 0 0 1-.05-.17.6.6 0 0 0 .03-.23v-.02l.02-.01a14.15 14.15 0 0 1 .26-1.38c.01-.06.04-.11.07-.16Z" fill="#37E7FD"/><path d="M5.89 5.18c-.01.16-.04.3-.07.44a.36.36 0 0 0-.08.13 6.23 6.23 0 0 1-.25.68v.02l-.01.03-.01.02-.1.27c0 .05-.03.07-.03.12l-.01.08a14.83 14.83 0 0 1-.09.46l-.17.26.09-.49a8.32 8.32 0 0 1 .73-2.02Z" fill="#00ABF1"/><path d="m5.82 5.62-.05.27-.08.18c-.15.4-.27.82-.36 1.23a.23.23 0 0 1-.09.13v-.06l.02-.05a14.83 14.83 0 0 0 .08-.43c0-.05.02-.07.04-.12a245.65 245.65 0 0 1 .1-.34 4.97 4.97 0 0 1 .34-.81Z" fill="#37E7FD"/><path d="M13.17 7.16a.35.35 0 0 1-.18 0c-.05-.02-.09-.05-.07-.1 0-.04.03-.12.07-.24l.32-.14c.06-.01.1.03.14.07.02.01.02.03.02.05a.53.53 0 0 1-.16.24l-.14.12Z" fill="#FA2636"/><path d="m13 6.82-.08.24c-.02.05.02.08.07.1h.18l-.3.22a.23.23 0 0 0-.06.06.3.3 0 0 0-.11.07l-2.2 1.63c-.04 0-.06.02-.07.05l-.13.1c-.07.05-.15.1-.22.17L8.5 10.67l-.36.3-.16.14a.94.94 0 0 0-.11.1 2.02 2.02 0 0 1-.19.16l-.12.1-.72.71c-.16.16-.3.34-.45.5a.46.46 0 0 0-.08.12.3.3 0 0 1-.09.11l-.02.03v.01a.14.14 0 0 0-.06.07.3.3 0 0 1-.1.08l-.04.06c-.02.06-.08.11-.13.16l-.1.11c-.06.09-.14.17-.22.25-.03-.01-.06 0-.09.03a.24.24 0 0 1-.07.1.36.36 0 0 1-.2.16.26.26 0 0 1-.23-.12 1.42 1.42 0 0 0-.04-.08.44.44 0 0 1-.05-.07.5.5 0 0 1-.04-.27c0-.06.04-.13.1-.22a.28.28 0 0 0 .04-.05c0-.02.02-.03.03-.05a8.13 8.13 0 0 1 .37-.45l.36-.38.02-.01c.02-.01.04-.03.04-.05l.01-.02a.84.84 0 0 0 .11-.11l.1-.12a19.05 19.05 0 0 1 .43-.37.88.88 0 0 0 .12-.12.23.23 0 0 1 .08-.05.27.27 0 0 0 .1-.07.8.8 0 0 1 .11-.1 2.52 2.52 0 0 0 .2-.16l.04-.02a.8.8 0 0 1 .17-.15.92.92 0 0 0 .16-.12 3.17 3.17 0 0 1 .5-.42l.02-.02c.09-.07.15-.11.17-.14a1.18 1.18 0 0 1 .24-.21l.03-.01.02-.03.02-.02.03-.01c.07-.07.13-.11.18-.14a.25.25 0 0 0 .1-.1c.02 0 .05-.03.12-.07l.02-.02a.1.1 0 0 1 .04-.03.2.2 0 0 0 .05-.04c.04-.03.09-.05.13-.09.12-.1.25-.2.39-.28a.56.56 0 0 0 .1-.08.42.42 0 0 1 .1-.07.1.1 0 0 0 .03-.03l.03-.02.03-.03.13-.13.03-.02c.02 0 .04-.02.05-.04l.02-.02a.16.16 0 0 0 .07-.07l.22-.15.15-.1.04-.03a424.9 424.9 0 0 1 1.05-.69 112.85 112.85 0 0 1 1.06-.66l.1-.06c.03 0 .05-.02.07-.04l.22-.12Z" fill="#DE0717"/><path d="m7.71 7.1-.02.23a24.22 24.22 0 0 0-.02 3.07l-.04.04-.01-.02-.02-.3-.02-.2a6.23 6.23 0 0 1 0-.4 130.6 130.6 0 0 1 0-1.64V7.7a.33.33 0 0 0 0-.08 6.3 6.3 0 0 0 .01.2 4.03 4.03 0 0 0 .03-.32 4.57 4.57 0 0 0 .02-.23v-.12l.07-.05Z" fill="#37E7FD"/><path d="M7.64 7.14v.12a5.81 5.81 0 0 0-.02.23 4.02 4.02 0 0 1-.03.32 6.33 6.33 0 0 1 0-.2v.28l-.01.1a10.03 10.03 0 0 1-.02.62 130.6 130.6 0 0 0 .02.91 6.25 6.25 0 0 0 .05.9v.02l-.14.11-.05-.95c-.02-.8 0-1.6.06-2.4a.34.34 0 0 1 .14-.06Z" fill="#00ABF1"/><path d="M12.87 7.38a8.86 8.86 0 0 1-.32 4.45h-.13l.06-.02.01-.01a.87.87 0 0 1 .07-.18.5.5 0 0 0 .04-.16l.02-.02a.05.05 0 0 0 .01-.04v-.04a14.03 14.03 0 0 1 .16-.72l.08-.48.04-.35c.02-.16.04-.3.04-.43a28.3 28.3 0 0 0-.01-1c-.03-.04-.02-.14-.02-.19l-.01-.02v-.01l-.02-.14-.01-.11-.08-.47a.23.23 0 0 1 .07-.06Z" fill="#37E7FD"/><path d="M7.29 8.57a.56.56 0 0 1-.4.07h-.04l-.03-.02c-.03 0-.07-.02-.08-.06l-.02-.03V8.5a14.83 14.83 0 0 1-.01-.59c0-.03-.04-.05-.09-.05 0 0-.02 0-.02.02l-.14.4a.88.88 0 0 1-.02-.2c0-.08-.01-.15-.03-.2a.13.13 0 0 1 0-.12l.03-.01c.06-.02.1-.06.11-.11a.61.61 0 0 1 .06-.12l.01-.02h.05l.02.01c0 .01.01.02.03.02a.03.03 0 0 1 .02.02l.01.1.01.03.06.11.04.11c.04.08.09.15.13.2l.04.07.02.02.01.01.02.01a73.98 73.98 0 0 1 .2.36Z" fill="#9A030E"/><path d="m6.2 8.77-.22.28a11.16 11.16 0 0 0-.06.3c-.02.12-.08.22-.1.33a8.1 8.1 0 0 0-.07.74c-.08.2-.1.4-.13.62 0 .07-.04.16-.08.21a.2.2 0 0 0-.05.1l-.04.09-.1.1a.25.25 0 0 0-.13.1l-.15.24-.03-.04v-.03a.2.2 0 0 0 0-.09l.03-.03v-.02c0-.02.01-.03.03-.03a.02.02 0 0 0 0-.02c0-.02 0-.04.03-.04a.01.01 0 0 0 0-.02c0-.03 0-.05.02-.06l.02-.03v-.02A25.91 25.91 0 0 1 5.3 11l.06-.24a.7.7 0 0 0 .02-.12l.03-.18a13.77 13.77 0 0 1 .13-1.35.28.28 0 0 1 .13-.2c.08-.05.15-.12.22-.2.03-.03.03-.07.05-.1l.01-.07.03-.46.02-.06a.04.04 0 0 1 .04-.03l.02.01.06.06v.02a.4.4 0 0 1 .08.19v.51Z" fill="#FA2636"/><path d="M5.12 8.22v.54l-.14.04.04-.67c.04.01.08.04.1.09Z" fill="#00ABF1"/><path d="m5.12 8.22.07.07-.02.48a.2.2 0 0 1-.08 0l.03-.55Z" fill="#37E7FD"/><path d="M10.08 8.67a.16.16 0 0 1-.07.07s-.02 0-.02.02a.08.08 0 0 1-.05.04l-.03.02-.13.13a.18.18 0 0 1-.03.03L9.72 9a.1.1 0 0 1-.03.03.42.42 0 0 0-.1.07.55.55 0 0 1-.1.08c-.14.08-.27.18-.4.28-.03.04-.08.06-.12.1a.2.2 0 0 1-.05.03.1.1 0 0 0-.04.03l-.02.02-.12.08a.25.25 0 0 1-.1.1c-.05.02-.1.06-.18.13l-.03.01-.02.02-.03.03-.02.01a1.54 1.54 0 0 1-.42.35v.02l-.04.03a.23.23 0 0 0-.08.05.3.3 0 0 1-.07.06 3.17 3.17 0 0 0-.32.27.92.92 0 0 1-.16.13.8.8 0 0 0-.17.15.06.06 0 0 1-.04.02h-.02l-.18.15a.8.8 0 0 0-.11.1.27.27 0 0 1-.1.08.23.23 0 0 0-.08.05.88.88 0 0 1-.12.12 1.86 1.86 0 0 0-.22.18l-.02.01a18.07 18.07 0 0 0-.47.5l-.36.37a3.93 3.93 0 0 0-.55.77.5.5 0 0 0 .05.27l.04.07.05.08c.05.08.13.12.22.12l-.09.05-.02.01a.22.22 0 0 1-.15.1 70.03 70.03 0 0 1-.18-.47.94.94 0 0 1-.05-.2l.01-.1.1-.19-.01-.01v-.02a.09.09 0 0 0 .03-.05l.02-.02a.3.3 0 0 1 .05-.1v-.03l.02-.03c.06-.09.08-.18.05-.29l.57-.55a.43.43 0 0 0 .12-.1l.03-.03a17.95 17.95 0 0 0 .42-.32l.14-.1c.06-.06.12-.1.19-.14l.03-.03.03-.02.98-.78.15-.11.04-.04 2.41-1.73Z" fill="#9A030E"/><path d="m10.43 9.19-.02.55c0 .16-.02.34 0 .51l-.01.03-.01.03a10.92 10.92 0 0 1-.07.9l-.02.26a3.94 3.94 0 0 0-.05.35h-.12c.1-.84.17-1.69.17-2.54l.13-.1Z" fill="#00ABF1"/><path d="m5.5 11.36.19.58-.03.03-.04-.03a.59.59 0 0 1-.04-.1.72.72 0 0 0-.03-.1c-.04-.1-.08-.2-.1-.3l.04-.08Z" fill="#37E7FD"/><path d="M7.7 11.37v.27c.01.05.04.1.02.17 0 .01.01.02.03.02h-.01v.01l-.01.11v.57c-.07-.34-.12-.69-.16-1.04l.12-.11ZM5.45 11.44c.02.1.06.2.1.3l.03.1.04.1.04.03a.43.43 0 0 1-.12.1l-.19-.54.1-.1Z" fill="#00ABF1"/><path d="m4.13 12.31.12.03c.13.2.28.38.45.56l-.05.06a.46.46 0 0 0-.07-.08 5.5 5.5 0 0 1-.17-.2c0-.02 0-.03-.02-.04a3.79 3.79 0 0 1-.17-.2c.01 0 0 0 0 0H4.2v.01l.03.04c0 .01 0 .01 0 0a.05.05 0 0 1-.02-.02l-.08-.16Z" fill="#37E7FD"/><path d="M4.97 12.62c.03.1.01.2-.05.3l-.01.02-.01.03a.29.29 0 0 0-.05.1l-.01.01h-.01c0 .03-.02.04-.03.06v.03l-.09.19a.2.2 0 0 0 0 .1c0 .07.01.13.04.2l.01.06.02.05.15.36h-.65c-.02 0-.05-.01-.07-.04a.11.11 0 0 1-.03-.07v-.17l.02-.03a.04.04 0 0 0 .01-.04l.01-.02c.02 0 .02-.02.02-.03v-.03c.06-.1.04-.17.03-.27a.02.02 0 0 1 .01-.02c.02 0 .03-.01.03-.03v-.02l.27-.3.07-.1.05-.06.27-.28Z" fill="#370105"/><path d="M10.16 12.8c-.09.47-.2.92-.38 1.36-.09.2-.2.4-.33.57-.02.03-.02.04.02.03l.1-.02-.01.05a.06.06 0 0 1-.04.03h-.1a.03.03 0 0 1-.02 0c-.02-.04-.03-.07-.02-.11l.01-.01.01-.01a.93.93 0 0 1 .09-.12l.12-.22c.04-.08.08-.15.1-.23.17-.43.3-.87.37-1.33.06 0 .09 0 .08.02ZM7.95 12.8h.02c.1.5.24 1 .45 1.46l.2.33c.09.1.19.18.3.22v.03H8.9c-.03 0-.06 0-.09-.02a.21.21 0 0 1-.07-.03 2.13 2.13 0 0 0-.11-.1l-.1-.12a.8.8 0 0 0-.06-.08l-.04-.1-.02-.03a.11.11 0 0 1-.03-.05l-.02-.02a.06.06 0 0 1-.02-.04l-.02-.04-.07-.15a7.77 7.77 0 0 1-.33-1.26h.03ZM6.2 12.95l.01.03a4 4 0 0 0 1.09 1.23c.31.23.66.4 1.03.51 0 .01 0 .02.02.03v.01l-.03.01a.38.38 0 0 1-.12-.02.74.74 0 0 0-.09-.03.49.49 0 0 1-.1-.04 1.15 1.15 0 0 0-.1-.04 1.64 1.64 0 0 1-.4-.21 1.86 1.86 0 0 0-.14-.1l-.15-.1a4.04 4.04 0 0 1-.9-.96 3.23 3.23 0 0 1-.17-.25c0-.02.02-.05.05-.07ZM5.56 13.68c.53.39 1.11.68 1.75.88v.03h-.03a.4.4 0 0 1-.14-.02.64.64 0 0 0-.1-.03 4.05 4.05 0 0 0-.77-.34l-.1-.06a.24.24 0 0 1-.1-.06.24.24 0 0 0-.1-.05l-.02-.01c0-.02-.02-.02-.04-.02-.01 0-.01 0 0 0a1.77 1.77 0 0 1 .1.07 16.25 16.25 0 0 1-.54-.36c.03-.03.06-.04.09-.03Z" fill="#37E7FD"/><path fill="#DE0717" d="M8 12h5v1H8z"/></svg>