<!-- by TradingView --><svg width="18" height="18" viewBox="0 0 18 18" xmlns="http://www.w3.org/2000/svg"><path fill="#F0F3FA" d="M0 0h18v18H0z"/><path d="m14 9.42-1.93 1.3a.32.32 0 0 1-.4-.04l-.77-.76a.23.23 0 0 0-.29-.03L5.87 12.9A5 5 0 0 0 14 9.42ZM10.83 7.72l2.37-1.46a5.03 5.03 0 0 0-.62-.77L10.6 6.81a.32.32 0 0 1-.4-.04l-.78-.76a.23.23 0 0 0-.28-.03L4 9.25c.02.4.09.78.2 1.14l5.27-3.43c.13-.08.3-.06.4.05l.68.67a.23.23 0 0 0 .28.04Z" fill="#1331EE"/><path d="M4.1 8.01 8.7 5a.32.32 0 0 1 .4.04l.67.72c.07.08.2.1.28.04l1.64-1.02a5 5 0 0 0-7.6 3.24Z" fill="#1331EE"/><path d="M13.95 8.18 11.52 9.7a.23.23 0 0 1-.29-.03l-.67-.69a.32.32 0 0 0-.4-.04l-5.02 3.26a5 5 0 0 1-.57-.86l5.36-3.4c.09-.07.2-.05.28.02l.77.76c.11.11.28.13.4.04l2.31-1.53c.12.3.2.63.26.96Z" fill="#74FA4C"/></svg>