<!-- by TradingView --><svg width="18" height="18" viewBox="0 0 18 18" xmlns="http://www.w3.org/2000/svg"><path fill="#F0F3FA" d="M0 0h18v18H0z"/><path d="M8.56 14 7 12.33c1.14-.15 3.33-1.31 3.33-2.16C10.33 8.53 5.16 8.4 3 8.3c6.54-.96 10 .54 10 2.42 0 1.5-2.96 2.81-4.44 3.28Z" fill="url(#a)"/><path d="M6.45 11 5.09 9.57c.9-.12 2.82-1.06 2.82-1.77 0-1.36-4.18-1.47-5.91-1.55 5.23-.8 8 .45 8 2.02C10 9.52 7.63 10.6 6.45 11Z" fill="url(#b)"/><circle cx="12.5" cy="6.5" r="1.5" fill="#006A31"/><circle cx="12.5" cy="6.5" fill="#91C23E" r=".83"/><defs><linearGradient id="a" x1="13" y1="11" x2="3" y2="11" gradientUnits="userSpaceOnUse"><stop stop-color="#006B30"/><stop offset="1" stop-color="#8CBE3C"/></linearGradient><linearGradient id="b" x1="10" y1="8.5" x2="2" y2="8.5" gradientUnits="userSpaceOnUse"><stop stop-color="#006B30"/><stop offset="1" stop-color="#8CBE3C"/></linearGradient></defs></svg>