<!-- by TradingView --><svg width="18" height="18" viewBox="0 0 18 18" xmlns="http://www.w3.org/2000/svg"><path fill="#F0F3FA" d="M0 0h18v18H0z"/><path d="M9.35 6h-.7L9 5.33l.35.67Z" fill="#FE0103"/><path d="M13.22 10.67a4.56 4.56 0 0 1-4.06 2.34c-1.54 0-2.9-.62-3.72-1.72.08-.32.46-.3.74-.29h4.37c.57 0 .87-.67.47-1.05l-1.94-1.9c-.4-.38-.1-1.05.46-1.05h4.16c-.17-1.82-2.5-3-4.54-3a5.18 5.18 0 0 0-4.67 2.67h.73a4.5 4.5 0 0 1 3.94-2 4.2 4.2 0 0 1 3.56 1.66H8.78c-.84 0-1.29 1.04-.71 1.62l1.38 1.4c.38.39.09.98-.48.98H5.75c-.46 0-.79-.17-.97-.36a3.96 3.96 0 0 1-.06-.2h-.66a4.98 4.98 0 0 0 4.39 3.89V14h1.42v-.34a5.12 5.12 0 0 0 4.07-2.99h-.72Z" fill="#FE0103"/><path d="M12.18 8.01c-.02.04-.11.05-.28.03-.18-.02-.41-.06-.54-.19-.04-.04-.05-.09-.02-.14a.14.14 0 0 1 .12-.1c.2 0 .4.11.54.21.13.09.2.15.18.2Zm-.88.27.77.16c.02 0 .03.02.03.04v.03c0 .02-.02.04-.04.04-.3.1-.57.1-.83.04-.09-.02-.12-.08-.11-.16v-.04c.02-.1.08-.13.18-.1Zm.17.76.8-.32h.04l.03.01.02.03v.03c-.17.3-.42.51-.76.61-.07.03-.14 0-.22-.08l-.02-.04c-.06-.1-.02-.19.1-.24Z" fill="#FE0000"/><path fill-rule="evenodd" d="M12.28 8.4h.2c.06-.02.09 0 .08.06l-.04 1.1c0 .03.01.05.03.07l.08.04c.12 0 .2-.04.21-.15v-.09l-.02-.08c-.02-.06 0-.08.07-.07a.9.9 0 0 0 .67-.17.13.13 0 0 1 .12 0c.25.18.41.3.48.37.27.23.54.18.8-.15.08-.11.05-.17-.1-.17a2.23 2.23 0 0 1-1.02-.29l-.01-.02v-.04l.44-.47a.14.14 0 0 0 .04-.06.13.13 0 0 0-.03-.12.15.15 0 0 0-.05-.04.4.4 0 0 0-.28-.01.14.14 0 0 1-.12-.02c-.05-.05-.07-.11-.05-.2 0-.04.04-.07.09-.06l.5.02a.1.1 0 0 0 .05-.01c.02 0 .03-.02.03-.03a.07.07 0 0 0 0-.08l-.02-.05a.1.1 0 0 0-.04-.04.12.12 0 0 0-.06 0h-.7c-.05 0-.08-.02-.1-.06a.29.29 0 0 1-.03-.12.1.1 0 0 0-.07-.09.43.43 0 0 0-.27-.03.1.1 0 0 0-.06.03.1.1 0 0 0-.03.06v.13c-.01.04-.04.06-.08.06h-.34c-.04 0-.09 0-.13.02a.95.95 0 0 0-.12.06c-.13.22-.06.28.2.2.21-.09.52-.11.9-.09.06 0 .08.03.06.08a.92.92 0 0 1-.53.59.2.2 0 0 1-.13 0c-.06 0-.1-.05-.1-.11l.01-.06.04-.04.32-.21.02-.04a.05.05 0 0 0 0-.04l-.02-.03c-.03-.05-.08-.06-.14-.03-.26.13-.55.23-.85.3a.09.09 0 0 0-.05.02.07.07 0 0 0-.01.05c0 .03.01.05.04.07.01.02.05.04.12.05Zm1.55 0a.14.14 0 0 1-.17 0c-.05-.05-.06-.11-.02-.15.04-.05.11-.05.17 0 .05.04.06.1.02.14Zm-.18.32c-.04.05-.13.04-.21-.02-.08-.05-.12-.14-.08-.18.04-.05.14-.04.22.02.08.05.11.13.07.18Zm-.83.03v-.01a.04.04 0 0 1 .02-.02.05.05 0 0 1 .03 0l.05-.01a1.28 1.28 0 0 1 .34.05l.1.05c.03.02.04.04.04.07v.04c0 .04-.05.09-.14.12a1.1 1.1 0 0 1-.34.05h-.06l-.02-.01-.02-.03v-.3ZM3.77 7.73a1.54 1.54 0 0 1 .56-.12h.02l.02.03a.05.05 0 0 1 0 .06c-.34.34-.76.54-1.27.58-.1 0-.13.05-.07.13l.1.1c.09.06.18.07.28.05.27-.06.48-.16.64-.3a.12.12 0 0 1 .13-.01.1.1 0 0 1 .04.03c.15.2.36.23.61.08a.8.8 0 0 0 .45-.7c0-.04 0-.08-.02-.11a.29.29 0 0 0-.07-.1.36.36 0 0 0-.24-.09H3.93a.35.35 0 0 0-.34.22.1.1 0 0 0 0 .07c0 .03.01.05.03.06a.1.1 0 0 0 .07.03h.08Zm1.04-.15H4.8l-.55.55v.03l.02.01c.05.05.13.07.2.06a.44.44 0 0 0 .22-.1l.15-.16a.3.3 0 0 0 .1-.2.22.22 0 0 0-.09-.17l-.01-.02a.03.03 0 0 0-.03 0Zm1.88.66a.73.73 0 0 0-.24-.08s-.02 0-.03-.02l-.01-.02a.05.05 0 0 1 .02-.06c.29-.19.4-.39.35-.6a.16.16 0 0 0-.06-.08.16.16 0 0 0-.1-.04h-.9c-.07-.01-.12 0-.15.03a.31.31 0 0 0-.1.15v.05l.05.04.02.02c.04.03.05.06.05.1v1.81c0 .02 0 .04.02.06 0 .02.02.04.04.05a.14.14 0 0 0 .13 0c.15-.07.2-.2.16-.4a.08.08 0 0 1 .02-.07.08.08 0 0 1 .06-.03c.18 0 .33-.02.44-.06.38-.13.55-.42.32-.77a.24.24 0 0 0-.1-.08ZM5.94 8v-.33c0-.04.03-.07.07-.08a.38.38 0 0 1 .32.04.16.16 0 0 1 .07.11.15.15 0 0 1-.05.13c-.13.12-.25.17-.37.17a.05.05 0 0 1-.03-.01.04.04 0 0 1-.01-.03Zm0 .39a.08.08 0 0 1 .03-.06.08.08 0 0 1 .06-.02h.01c.06 0 .13.01.18.03.06.01.12.03.16.06.05.03.08.06.1.1a.2.2 0 0 1 .04.1v.06c0 .07-.05.15-.15.2a.68.68 0 0 1-.34.08h-.01a.08.08 0 0 1-.06-.02.08.08 0 0 1-.02-.06V8.4Z" fill="#FE0000"/><path d="m4.79 9.3.23.03c.11 0 .18-.04.19-.15l.05-.57v-.07a.14.14 0 0 0-.04-.05.15.15 0 0 0-.1-.04h-.03a4.92 4.92 0 0 1-1.22.05.2.2 0 0 0-.07.04.17.17 0 0 0-.04.07v.08l.1.6.04.07.07.04a.2.2 0 0 0 .18-.01c.24-.16.43-.13.64-.1Zm-.55-.59h.56c.06 0 .12.05.12.1v.11c0 .06-.06.1-.12.1h-.56c-.07 0-.12-.04-.12-.1v-.1c0-.06.05-.1.12-.1Z" fill="#FE0000"/></svg>