<!-- by TradingView --><svg width="18" height="18" viewBox="0 0 18 18" xmlns="http://www.w3.org/2000/svg"><path fill="#F0F3FA" d="M0 0h18v18H0z"/><path d="M13 5v8h-1.5V5H13ZM8.53 7.24c-.07-.66-.63-.9-1.47-.9-.7 0-1.41.18-1.42.87 0 .47.39.76.85.93l.48.14.73.18c.3.07.58.16.85.28C9.45 9.1 10 9.8 10 10.7c0 1.5-1.4 2.3-2.97 2.3-1.67 0-2.97-.87-3.03-2.41h1.4c.05.79.78 1.08 1.62 1.08.76 0 1.47-.23 1.48-.98 0-.68-.7-.92-1.32-1.08l-.89-.23c-1.15-.3-2.08-.95-2.08-2.09C4.2 5.88 5.57 5 7.08 5c1.47 0 2.79.86 2.81 2.24H8.53Z"/></svg>