<!-- by TradingView --><svg width="18" height="18" viewBox="0 0 18 18" xmlns="http://www.w3.org/2000/svg"><path fill="#F0F3FA" d="M0 0h18v18H0z"/><path d="M5.56 6.85c0-1.52 1.49-2.47 2.19-2.75-.5.42-1.56 1.56-1.56 2.75 0 1.2.64 2.15.93 2.46-.48-.27-1.56-1.1-1.56-2.46Z" fill="url(#a)"/><path d="M6.13 13.1a5 5 0 0 1-.63-7.67c-.2.39-.38.9-.38 1.5 0 1.16.65 2.02 1.21 2.77.44.6.8 1.11.8 1.66 0 1.03-.49 1.52-1 1.73Z" fill="#212C7C"/><path d="M6.71 13.45a2.6 2.6 0 0 0 1.13-2.07c0-.8-.5-1.61-.72-1.91.41.25 1.25 1.05 1.25 2.1 0 1.1-.52 1.83-.96 2.17a4.97 4.97 0 0 1-.7-.3Z" fill="#0080C7"/><path d="M8.9 4c-.87.28-2.09 1.03-2.09 2.5 0 1.17.65 1.93 1.23 2.64.51.63.96 1.23.96 2.05 0 1.2-.73 2.17-1.28 2.65A5.01 5.01 0 1 0 8.91 4Z" fill="#5BB531"/><defs><linearGradient id="a" x1="6.68" y1="4.1" x2="6.68" y2="9.29" gradientUnits="userSpaceOnUse"><stop stop-color="#57B5EA"/><stop offset="1" stop-color="#279EDA"/></linearGradient></defs></svg>