<!-- by TradingView --><svg width="18" height="18" viewBox="0 0 18 18" xmlns="http://www.w3.org/2000/svg"><path fill="#F0F3FA" d="M0 0h18v18H0z"/><path d="m13.27 6-1.02 6h-1.4l1.03-6h1.4ZM15 6l-.2 1.12H10L10.2 6H15Z" fill="#E72821"/><path d="M5.79 10.06 6.52 6H8l-.73 4.06a2.2 2.2 0 0 1-1.25 1.7c-.34.17-.72.25-1.13.24a2.2 2.2 0 0 1-1.05-.24 1.5 1.5 0 0 1-.64-.64 1.97 1.97 0 0 1-.2-1h1.5a1.6 1.6 0 0 0 0 .38.5.5 0 0 0 .13.29c.07.07.2.11.36.11.17 0 .3-.03.41-.11.11-.1.2-.2.26-.33s.1-.26.13-.4Z" fill="#035495"/></svg>