<!-- by TradingView --><svg width="18" height="18" viewBox="0 0 18 18" xmlns="http://www.w3.org/2000/svg"><path fill="#F0F3FA" d="M0 0h18v18H0z"/><path fill-rule="evenodd" d="M9 4.11c.22-.17.49-.12.7-.01.23.12.58.07.95.02s.74-.1 1.02 0c.09.03.2.02.3 0 .1 0 .2-.02.28.01l.07.07c.04.04.07.08.14.08.26.03.52.2.73.35l.14.09c.22.13.6.35.56.48-.1.37-.05.9 0 1.35l.02.33c.01.17.02.34.01.51l.01.35c.1 1.4.09 3.01-.04 4.4 0 .07-.01.13-.03.2-.03.15-.05.3.03.5.04.07-.45.66-.54.72a1.5 1.5 0 0 1-.71.25l-.46.03c-.94.07-1.87.13-2.83.03-.29-.03-.93.02-1.21.1-.26.08-1.79 0-2.13-.14-.09-.04-.19.01-.3.06-.1.05-.22.1-.32.05-.1-.06-.23-.1-.35-.15a2.3 2.3 0 0 1-.43-.2c-.22-.14-.49-.4-.51-.68-.04-.47-.06-.94-.06-1.42 0-.06.04-.16.09-.26.06-.14.12-.29.07-.34a3.2 3.2 0 0 0-.03-.04c-.09-.1-.15-.16-.14-.31.01-.07.06-.15.12-.23.06-.1.13-.2.1-.29a10.3 10.3 0 0 1 0-4.5l.02-.24c.02-.18.03-.36.1-.5.2-.37.68-.5 1.05-.43.23.05.68.08.87-.07.15-.12.46-.12.78-.13.26 0 .51 0 .68-.06.17-.06.4-.01.6.04.26.05.5.1.66-.02Zm.81 3.7c.16-.1.33-.16.5-.19l.1-.01c.14-.03.3-.07.4.07.08.13.06.28-.07.37-.07.05-.19.09-.3.13-.17.05-.33.1-.33.18 0 .1.02.33.1.39.1.09.24.05.37.02.1-.03.2-.05.3-.03.14.04.13.21.05.32a.27.27 0 0 1-.22.1h-.08c-.18-.01-.5-.03-.52.1-.07.38.18.32.42.26.14-.04.28-.07.35 0 .29.26-.1.6-.4.56-.06 0-.11-.05-.17-.09-.09-.07-.17-.13-.26-.03-.18.2.01.4.18.56.08.08.15.16.18.22.05.14-.06.27-.18.31l-.13.02c-.15.02-.34.03-.34.18.01.16.06.35.15.56.03.08.07.15.12.19.06.04.14.03.22.03.11 0 .23-.02.27.11.11.3.2.4.54.39.05 0 .13 0 .23.02.21.03.48.06.55 0 .14-.12.11-.33.08-.5-.05-.2-.06-.4-.07-.6v-.28c-.02-.15 0-.26.1-.36.1-.1.2 0 .2.11-.01.4.16.7.5.9.13.08.24.06.34-.06l.3-.39c.07-.09.17-.34-.04-.34-.16 0-.9.01-.85-.3.02-.1.11-.17.2-.25.09-.07.18-.14.2-.24.03-.09.06-.33-.09-.31l-.13.02c-.34.06-.87.16-.86-.3 0-.07.12-.12.18-.12H12c.22 0 .63.01.68-.14.03-.08.05-.35-.1-.3-.16.04-.32.07-.48.08-.31.02-.52-.34-.2-.52.05-.03.12-.03.19-.02h.07a7 7 0 0 1 .48-.02c.17 0 .19-.43.06-.5-.08-.05-.18-.04-.29-.03-.16.03-.33.05-.4-.18-.06-.2.08-.4.23-.5.14-.09.71-.1.81.06.06.1.14.22.27.22.14 0 .24-.1.29-.24.03-.09.26-1.04 0-.92l-.23.14c-.13.1-.24.18-.47.19-.28.01-.3-.26-.16-.42l.03-.02c.17-.2.47-.52.17-.69-.11-.07-.21-.06-.3.01-.04.04-.07.11-.1.22-.05.2-.15.61-.3.72-.1.08-.24.02-.27-.1-.03-.1.07-.37.14-.54l.03-.08c.04-.11.06-.22-.01-.3-.16-.2-.4-.17-.5.06a.44.44 0 0 0 0 .33c.08.23.14.6-.12.72a.21.21 0 0 1-.19 0c-.16-.07-.23-.22-.2-.44l.02-.07c.03-.18.11-.61-.02-.65-.15-.05-.24.03-.33.11-.07.07-.14.13-.24.12h-.02c-.2-.02-1.08-.12-.97.24.03.1.16.2.27.28l.1.07c.23.19-.04.54-.29.29a.94.94 0 0 0-.3-.21c-.14-.07-.16.14-.14.24.04.32.1.64.2.95.03.12.3.19.4.13Zm-4.36 3.76c.08-.02.15 0 .21 0 .05.02.1.03.16.03.25-.03.45-.11.6-.25.2-.19.4-.43.59-.75.09-.16.18-.23.36-.22.22 0 .17.52.14.78l-.01.1v.1c-.01.18-.02.41-.11.53-.1.12-.43.04-.66-.02-.14-.04-.25-.06-.25-.03-.07.39.48.7.78.8.23.07.44.03.65-.03.15-.04.17-.31.16-.45A.95.95 0 0 0 8 11.9a1.06 1.06 0 0 1-.06-.25l-.03-.23c-.04-.25-.07-.54.02-.76.05-.1.26.02.3.07l.15.18.29.36c.06.07.2.21.32.22.04 0 .07 0 .1-.04.06-.07.5-.95.23-.9a.7.7 0 0 1-.56-.15c-.28-.2-.5-.4-.65-.57-.2-.22 0-.46.2-.55.08-.03.17.02.26.07.1.06.2.12.3.07.23-.1.2-.58.16-.79-.03-.11-.16-.03-.23.01a.87.87 0 0 1-.03.02c-.18.1-.46.07-.65.02-.23-.05-.39-.35-.08-.45.18-.06.54-.23.66-.36.21-.22.25-.68.22-.97-.04-.28-.04-.52-.05-.77l-.01-.19c0-.1-.06-.2-.17-.18-.3.08-.6.08-.9.07-.26-.01-.52-.02-.77.03-.14.03-.28-.06-.43-.14-.15-.09-.3-.17-.42-.1-.04.02-.07.08-.09.16-.04.3 0 .68.03 1.04l.04.46-.01.14c-.03.2-.06.5.06.5l.16-.02c.17-.02.27-.04.37.23.02.07.17 0 .29-.06a.6.6 0 0 1 .16-.05c.12 0 .21.11.29.2v.01c.23.28-.36.42-.5.41-.13 0-.86.02-.86.1-.01.12 0 .9.22.84l.1-.04c.16-.06.35-.13.44.09.08.2-.08.42-.2.6-.12.16-.22.32-.32.49-.1.18-.19.3-.26.34a.55.55 0 0 1-.46.09c-.19-.05-.02-.61.08-.97.04-.12.07-.22.07-.27.02-.1-.03-.29-.1-.3-.02 0-.05.03-.08.12-.11.33-.35.48-.57.63-.19.12-.37.23-.47.44-.06.14 0 .3.06.46l.06.2c.04.24.28 1.05.53.49l.03-.07c.05-.11.12-.3.2-.32Zm-.98-5.11c-.06-.1-.15-.34-.07-.43.09-.1.27.1.36.2l.04.04c.13.12.4.2.65.26.34.1.65.17.52.35-.17.23-.35.45-.55.66-.06.05-.2.15-.25.03-.1-.2-.23-.4-.37-.59a4.95 4.95 0 0 1-.33-.52Zm.56 1.64c-.13.32.15 1.54.24 1.86.1.32.64-1.34.7-1.5.03-.11.08-.53-.07-.45-.04.02-.07.05-.1.09-.08.07-.16.15-.23.1-.1-.07-.45-.31-.54-.1Z" fill="#E13940"/><path d="M10.05 6.74c-.2-.46.22-.51.57-.71.3-.18.41.6.37.72-.06.17-.29.22-.5.25-.21.02-.36-.06-.44-.26ZM11.77 7.87c-.11.26-.5.27-.57-.06-.11-.52.61-.34.61-.34a.68.68 0 0 0-.02.21c0 .09 0 .15-.02.19ZM11.43 11.66c-.14.23-.52.15-.73.06-.17-.08-.18-.23-.05-.34.1-.09.17-.13.18-.27.02-.16 0-.36.16-.49.1-.07.46-.1.46.08-.02.26.13.73-.02.96ZM7.06 7.15c-.07.15-.14.36-.38.26-.36-.13-.11-.82.18-.9.14-.04.2.02.23.14.06.17.04.33-.03.5ZM7.49 7c.02-.18-.01-.43.1-.5.1-.05.12.46.12.56.01.11.05.33.04.48-.02.13-.02.36-.07.46-.08.13-.16.05-.18-.14 0-.1-.02-.2-.04-.3-.05-.24 0-.34.03-.57ZM8.36 7.72C8.01 7.94 8 7 8 6.68c.02-.1.13-.18.23-.18.3.01.4.28.39.6-.01.28-.03.48-.26.62Z" fill="#E13940"/></svg>