<!-- by TradingView --><svg width="18" height="18" viewBox="0 0 18 18" xmlns="http://www.w3.org/2000/svg"><path fill="#F0F3FA" d="M0 0h18v18H0z"/><path d="M14 9a5 5 0 0 1-5.92 4.92l2.78-2.84a.83.83 0 1 0-.56-.61l-3.13 3.19a5 5 0 0 1-1.27-.74l4.87-4.9a.83.83 0 1 0-.6-.58L5.3 12.36a5 5 0 0 1-.82-1.23l3.23-3.3a.83.83 0 1 0-.59-.57l-2.95 3A5 5 0 1 1 14 9Z" fill="url(#a0n5m1ty2)"/><defs><linearGradient id="a0n5m1ty2" x1="14" y1="9" x2="4" y2="8.78" gradientUnits="userSpaceOnUse"><stop stop-color="#820000"/><stop offset=".55" stop-color="#CF000C"/><stop offset="1" stop-color="#860000"/></linearGradient></defs></svg>