<!-- by TradingView --><svg width="18" height="18" viewBox="0 0 18 18" xmlns="http://www.w3.org/2000/svg"><path fill="#F0F3FA" d="M0 0h18v18H0z"/><path d="M9 14a5 5 0 0 0 4-8c-.7-.52-1.5-1-2.5-1-2.1 0-3.02 1.24-3.2 2H11v3.76c-.59.74-1.85 2.02-3.42 2.02-1.25 0-2.2-.43-2.54-.73A5.12 5.12 0 0 0 9 14Z" fill="url(#agpufqlid)"/><path d="M11 11c-.17.76-1.25 2.02-3.34 2.02a4.3 4.3 0 0 1-2.62-.96A5 5 0 1 1 13 6C12.62 5.7 11.68 5 10.5 5 8.93 5 7.4 6.45 7.4 7.43V11H11Z" fill="url(#bgpufqlid)"/><path d="M10.4 12c.33-.34.53-.7.6-1H4.42A5 5 0 0 0 5 12h5.4Z" fill="url(#cgpufqlid)"/><path d="M4.1 10h3.3V9H4c0 .34.03.68.1 1Z" fill="url(#dgpufqlid)"/><path d="M4.1 8h3.3v-.57c0-.14.03-.28.08-.43H4.42c-.14.32-.25.65-.32 1Z" fill="url(#egpufqlid)"/><path d="M5 6h3.19a5.28 5.28 0 0 1 2.31-1H6c-.38.28-.72.62-1 1Z" fill="url(#fgpufqlid)"/><defs><linearGradient id="agpufqlid" x1="9.54" y1="5.08" x2="9.54" y2="14" gradientUnits="userSpaceOnUse"><stop stop-color="#045BAB"/><stop offset="1" stop-color="#00B7F0"/></linearGradient><linearGradient id="bgpufqlid" x1="8.48" y1="4" x2="8.48" y2="13.02" gradientUnits="userSpaceOnUse"><stop stop-color="#00B7F1"/><stop offset="1" stop-color="#0565B2"/></linearGradient><linearGradient id="cgpufqlid" x1="4.03" y1="8.9" x2="10.67" y2="8.9" gradientUnits="userSpaceOnUse"><stop stop-color="#FEFFFF"/><stop offset=".85" stop-color="#6095CF"/></linearGradient><linearGradient id="dgpufqlid" x1="4.03" y1="8.9" x2="10.67" y2="8.9" gradientUnits="userSpaceOnUse"><stop stop-color="#FEFFFF"/><stop offset=".85" stop-color="#6095CF"/></linearGradient><linearGradient id="egpufqlid" x1="4.03" y1="8.9" x2="10.67" y2="8.9" gradientUnits="userSpaceOnUse"><stop stop-color="#FEFFFF"/><stop offset=".85" stop-color="#6095CF"/></linearGradient><linearGradient id="fgpufqlid" x1="4.03" y1="8.9" x2="10.67" y2="8.9" gradientUnits="userSpaceOnUse"><stop stop-color="#FEFFFF"/><stop offset=".85" stop-color="#6095CF"/></linearGradient></defs></svg>