<!-- by TradingView --><svg width="18" height="18" viewBox="0 0 18 18" xmlns="http://www.w3.org/2000/svg"><path fill="#F0F3FA" d="M0 0h18v18H0z"/><path d="m7 7.84-.02-.01c-.16-.16-.37-.39-.62-.68-.25-.3-.29-.58-.13-.86.09-.15.22-.3.39-.45a9.68 9.68 0 0 1 3.03-1.7c.14-.05.13-.08-.02-.1a4.9 4.9 0 0 0-5.1 2.71.16.16 0 0 0 .01.17L5.96 9a.09.09 0 0 1 0 .1c-.5.64-.98 1.29-1.42 1.96a.16.16 0 0 0-.01.17 4.16 4.16 0 0 0 .59.9.05.05 0 0 0 .04-.03 69.21 69.21 0 0 1 7-6.95.05.05 0 0 0-.02-.03c-.3-.26-.61-.47-.93-.62a.2.2 0 0 0-.2.02 22.03 22.03 0 0 0-3.98 3.32H7Zm-.02 5.63c1.4-.9 2.7-2 3.94-3.29.03-.03.06-.03.1 0 .22.2.44.45.66.73.13.18.19.37.17.57-.03.26-.38.6-.56.75a9.56 9.56 0 0 1-3 1.62c-.14.05-.14.09.02.1a4.96 4.96 0 0 0 5.19-2.8l-.03-.06-1.43-2.07a.1.1 0 0 1 0-.13c.5-.63.98-1.29 1.42-1.96a.18.18 0 0 0 .01-.19 5.6 5.6 0 0 0-.6-.88h-.02a59.34 59.34 0 0 1-4.78 4.95 117.56 117.56 0 0 1-2.21 2 .08.08 0 0 0 .02.1c.24.2.51.37.82.55.1.06.2.06.28.01Zm-2-4.5-.01.02a45.56 45.56 0 0 1-.8 1.16.04.04 0 0 1-.04-.03A4.46 4.46 0 0 1 4 8.96a4.45 4.45 0 0 1 .16-1.17.04.04 0 0 1 .06 0 45.14 45.14 0 0 1 .75 1.18Zm8.88 1.21a4.88 4.88 0 0 0-.02-2.34.04.04 0 0 0-.04.02l-.25.35c-.26.36-.5.71-.5.81 0 .11.24.46.5.83l.23.35a.04.04 0 0 0 .05.01.04.04 0 0 0 .03-.03Z" fill="#C4111E"/></svg>