<!-- by TradingView --><svg width="18" height="18" viewBox="0 0 18 18" xmlns="http://www.w3.org/2000/svg"><path fill="#F0F3FA" d="M0 0h18v18H0z"/><path fill="#17A213" d="M4 4h10v10H4z"/><path d="M5 11.41v-.92c.2.35 1.58.78 2.2.78.6 0 .96-.48.96-.7 0-.22-.68-.74-1.92-1.36C5.24 8.7 5 8.07 5 7.6 4.99 7.06 5.37 6 6.98 6c1.6 0 2.92 1.5 3.37 2.26A5.46 5.46 0 0 1 13 6v.94a3.7 3.7 0 0 0-2 2.94V12h-1V9.88c0-1.71-2.65-3.04-3.13-3.04S6 7.21 6 7.6c0 .38.55.8 1.63 1.4 1.08.6 1.56 1.12 1.56 1.57 0 .44-.5 1.43-2 1.43-1.2 0-1.98-.4-2.19-.59Z" fill="#FF1C1B"/></svg>