<!-- by TradingView --><svg width="18" height="18" viewBox="0 0 18 18" xmlns="http://www.w3.org/2000/svg"><path fill="#F0F3FA" d="M0 0h18v18H0z"/><path d="M9.53 4 6.41 8.8a.03.03 0 0 1-.04 0l-1.2-1.84a.17.17 0 0 1-.02-.17C5.7 5.7 6.33 4.79 7.04 4h2.5Zm1.39 0c.56.63 1.06 1.33 1.47 2.11.4.76.28 1.52-.84 1.5-.31 0-.68-.02-1.12-.04-.11 0-.15-.06-.12-.16a.54.54 0 0 0-.04-.47 80.1 80.1 0 0 0-.87-1.46.25.25 0 0 1-.01-.25c.2-.47.5-.88.88-1.23h.65Zm-3 6h4.98c.03 0 .04 0 .02-.03l-1.24-1.9a.13.13 0 0 0-.05-.05.15.15 0 0 0-.07-.02H8.45c-.68 0-1.1.3-1.28.87l-.06.2c-.18.62.08.93.81.93Zm-.4 4h-.68L5 11.2v-.5c.09-.2.22-.37.39-.5a.44.44 0 0 1 .27-.09H7.3c.1 0 .13.04.1.13v.02c-.06.18-.09.28 0 .45.34.6.68 1.18 1.04 1.75.05.08.06.16.03.25-.2.5-.5.93-.94 1.29Zm.76 0H11l1.81-2.66c.38-.56.22-.93-.48-1.1l-.26-.07c-.68-.17-1.2.02-1.58.56L8.28 14Z" fill="#0056B8"/></svg>