<!-- by TradingView --><svg width="18" height="18" viewBox="0 0 18 18" xmlns="http://www.w3.org/2000/svg"><path d="M0 9a9 9 0 1 1 18 0A9 9 0 1 1 0 9Z" fill="#FF0A00"/><path d="M10.24 6.06c2.3.18 4.35.78 5.24 1.58.16.14.3.33.38.55.1.21.14.45.14.69 0 .2-.02.4-.08.58-.07.19-.17.35-.3.49-.8.86-3.15 1.7-5.38 1.97a9.7 9.7 0 0 1-2.39.01c-2.24-.27-4.65-1.1-5.48-1.98-.13-.13-.23-.3-.29-.49A1.5 1.5 0 0 1 2 8.88c0-.24.04-.48.14-.7.09-.2.22-.4.38-.54.9-.82 3-1.43 5.34-1.6C8.24 6.03 8.61 6 9 6c.42 0 .83.02 1.24.06ZM9 11.63c1.47 0 3.67-.3 4.69-1.67a1.65 1.65 0 0 0-.23-2.2C12.28 6.76 10.41 6.42 9 6.38c-1.42.02-3.3.38-4.44 1.4-.33.28-.55.73-.56 1.2 0 .36.12.7.31 1 1.03 1.36 3.22 1.65 4.7 1.65Zm1.94-4.28c.1.24 0 .46-.22.64-.27.17-.58.27-.9.24 0-.17.04-.34.1-.5.1-.2.26-.46.47-.56.22-.06.45 0 .55.18Zm-2.74.81c-.04.06-.19.02-.26 0a.86.86 0 0 0-.1-.03l-.17-.06a.97.97 0 0 1-.54-.48.5.5 0 0 1 .18-.51c.23-.15.51.02.65.22.18.23.33.57.24.86Zm2 1.9c0 .08.05.14.14.14H11c0 .3-.18.66-.44.8h-.9c-.13-.06-.24-.23-.26-.37V9.46l-.08-.06h-.5l-.03.16c-.25.68-.86 1.12-1.51 1.43-.05.02-.15.02-.14-.09l.22-.3c.17-.2.34-.41.4-.67.04-.17.04-.32.04-.45V9.4H7v-.8h1.6V7h.8v1.6H11v.8h-.8v.67Z" fill="#fff"/></svg>