<!-- by TradingView --><svg width="18" height="18" viewBox="0 0 18 18" xmlns="http://www.w3.org/2000/svg"><path fill="#F0F3FA" d="M0 0h18v18H0z"/><path d="M9 4c.08 0 .14.02.2.05l2.42 1.49c.66.4.32 1.4-.5 1.35-.15-.01-.32-.08-.52-.2-.41-.27-.9-.56-1.44-.9A.31.31 0 0 0 9 5.77a.31.31 0 0 0-.16.04c-.55.33-1.03.62-1.44.89-.2.12-.37.19-.51.2-.83.05-1.17-.94-.5-1.35L8.8 4.05A.38.38 0 0 1 9 4Z" fill="#1F541A"/><path d="M9 7.42a.5.5 0 0 0-.23.04c-.4.21-1.08.63-2.07 1.24-.4.24-.72.4-1.16.23a.86.86 0 0 1-.58-.62c-.17-.77.54-1.06 1.1-1.39.02-.01.05-.01.07 0 .5.38.99.27 1.5-.07l1.12-.68a.48.48 0 0 1 .5 0c.48.28.85.5 1.11.68.52.34 1 .45 1.51.08.02-.02.05-.02.07 0 .56.32 1.27.61 1.1 1.38-.07.3-.27.5-.58.63-.44.16-.76 0-1.16-.24-.99-.61-1.68-1.02-2.07-1.24A.5.5 0 0 0 9 7.42Z" fill="#518B3E"/><path d="M9 7.7c.14 0 .27.04.39.12l1.8 1.1c.32.2.57.3.75.33.3.04.6-.02.88-.18a.07.07 0 0 1 .07 0c.36.22.77.41.95.7.36.6.1 1.3-.6 1.55-.45.17-.79.03-1.2-.22L9.35 9.47A.72.72 0 0 0 9 9.34c-.1 0-.22.05-.36.13L5.97 11.1c-.42.25-.76.39-1.22.22-.69-.24-.95-.96-.59-1.54.18-.3.6-.5.95-.7a.07.07 0 0 1 .07 0c.29.15.58.21.88.17.18-.02.43-.13.76-.33l1.8-1.1A.73.73 0 0 1 9 7.7Z" fill="#7BB141"/><path d="m7.34 12.46 1.33-1.99c.03-.05.08-.1.14-.12a.42.42 0 0 1 .38 0c.06.03.1.07.14.12l1.33 1.99a.34.34 0 0 1 0 .36.37.37 0 0 1-.13.13.42.42 0 0 1-.2.05H7.67a.42.42 0 0 1-.2-.05.37.37 0 0 1-.14-.13.33.33 0 0 1 0-.36Z" fill="#1F541A"/></svg>