<!-- by TradingView --><svg width="18" height="18" viewBox="0 0 18 18" xmlns="http://www.w3.org/2000/svg"><path fill="#F0F3FA" d="M0 0h18v18H0z"/><path fill-rule="evenodd" d="M12.7 11.74A3.58 3.58 0 0 0 14.1 9c0-1-.48-1.97-1.4-2.74A5.8 5.8 0 0 0 9 5a5.8 5.8 0 0 0-3.7 1.26A3.58 3.58 0 0 0 3.9 9c0 1 .48 1.97 1.4 2.74A5.8 5.8 0 0 0 9 13a5.8 5.8 0 0 0 3.7-1.26ZM9 14c3.31 0 6-2.24 6-5s-2.69-5-6-5-6 2.24-6 5 2.69 5 6 5Z" fill="#8F833D" fill-opacity=".6"/><path d="M10.2 6.4V6h-.91C8.9 6 7.8 6.16 7.8 7.4c0 1.59 2.4 1.96 2.4 3.2 0 .35-.07 1-1.4 1-1.07 0-1.4-.85-1.4-1.2H7c0 .88.66 1.6 1.8 1.6 1.14 0 2.2-.35 2.2-1.76C11 8.82 8.4 8.6 8.4 7.2c0-.56.57-.8.89-.8h.91Z" fill="#0F0178"/></svg>