<!-- by TradingView --><svg width="18" height="18" viewBox="0 0 18 18" xmlns="http://www.w3.org/2000/svg"><path fill="#F0F3FA" d="M0 0h18v18H0z"/><path d="M11.78 8.98c.02 3.85-5.57 5.59-8.03 2.25-1.96-2.64.12-6.45 3.84-6.19.2.02.23.08.07.2-2.27 1.7-2.73 3.76-1.4 6.17.19.35.49.46.9.31.14-.05.16-.13.06-.23-.66-.75-1-1.57-1-2.47-.02-3.85 5.57-5.59 8.03-2.25 1.96 2.64-.12 6.45-3.84 6.19-.2-.02-.23-.08-.07-.2 2.27-1.7 2.74-3.76 1.4-6.17-.19-.35-.49-.46-.9-.31-.14.05-.16.13-.07.23.67.75 1 1.57 1.01 2.47Z" fill="#004EA2"/></svg>