<!-- by TradingView --><svg width="18" height="18" viewBox="0 0 18 18" xmlns="http://www.w3.org/2000/svg"><path fill="#F0F3FA" d="M0 0h18v18H0z"/><path d="m14.87 5.58-.24.58a.15.15 0 0 0 .08.19l.06-.01.05.02c-.13.17-.29.3-.46.41a3.85 3.85 0 0 0-.76-.67c.02-.43-.8-.32-1.07-.27l-.48-.35c.5-.2 1.02-.34 1.55-.44.35-.06.65-.05.88.02.23.08.36.25.39.52Z" fill="#E81D24"/><path d="M11.98 7.49c-.01.03-.04.03-.07 0a1.83 1.83 0 0 0-.52-.58l-.03.01v.04l.57.64c.06.07.12.1.17.09.03.09.04.18.01.28l-.68-.76c-.07-.07-.15-.08-.24-.03-.26.17-.58.28-.96.33-.27.04-.78 0-1.19.17l-.02-.04v-.1c.03-.09.13-.22.29-.4.05-.06.04-.13-.04-.22a.07.07 0 0 1-.02-.07c.02-.06.07-.1.14-.13.03 0 .06 0 .08.02.05.06.1.07.16.02a.07.07 0 0 1 .07-.01c.06.01.12-.01.17-.08a.1.1 0 0 1 .1-.04l.17.01c.04 0 .06-.01.06-.04 0-.02 0-.03.02-.04.03-.03.05-.02.05.01 0 .07.04.13.09.17.02.03.05.05.09.07h.08c.08-.02.13 0 .17.08.01.03.04.04.07.04.04 0 .05-.02.04-.06a.21.21 0 0 0-.04-.06c-.03-.03-.02-.05.01-.05.06-.01.12 0 .16.02.06.03.13.03.2 0 .09-.07.06-.15-.07-.25A.08.08 0 0 0 11 6.5c-.14.06-.24.02-.31-.12-.03-.07-.05-.07-.06.01 0 .03.01.06.05.1l-.05.04a1.06 1.06 0 0 0-.42-.28.1.1 0 0 0-.1 0l-.2.12a.09.09 0 0 0-.06.07v.11c0 .03-.02.04-.04.06l-.17.09a.07.07 0 0 1-.1-.03c-.15-.26-.12-.37.09-.32.12.02.11-.05-.04-.21l.08-.1c.05-.03.07-.08.05-.14-.01-.03-.04-.07-.1-.1a.67.67 0 0 1-.17-.13c-.13-.16-.1-.19.09-.09.1.06.18.15.25.29l.02.02h.02l.06.01c.04 0 .05 0 .03-.04a.32.32 0 0 0-.2-.18.12.12 0 0 1-.08-.06c-.07-.11-.14-.17-.22-.2a5.14 5.14 0 0 0-.44-.07c-.1-.01-.12.02-.08.1v.04c-.02.03-.03.05-.06.06a.1.1 0 0 1-.1-.02.09.09 0 0 0-.08-.02l-.4.06c-.19.03-.2.1-.3.22-.03.05-.02.06.04.03.2-.1.36-.15.46-.18.06-.01.1.01.1.08 0 .04-.01.07-.04.1a.54.54 0 0 0-.12.27c-.06 0-.1 0-.12-.03v-.03l.01-.03L8.3 6c.04-.03.04-.05-.02-.05a.47.47 0 0 0-.2.04.06.06 0 0 0-.03.02l-.07.13c-.02.02-.04.03-.07.02-.29-.13-1.06.3-1.32.48l-.02.01c-.02 0-.03 0-.03-.02l-.02-.05c.06-.05.08-.09.06-.12a.18.18 0 0 0-.1-.06.17.17 0 0 0-.1 0 .88.88 0 0 0-.42.41v.04c.03.02.06.01.1-.02v.08l-.02.03c-.1.05-.11.12-.06.2.02.02.02.05 0 .08l-.13.2a.08.08 0 0 0 0 .08c.06.1.04.14-.04.11l.03-.77c.23-.35.48-.62.76-.83.13-.1.34-.2.63-.3l.07-.01c.02-.01.02-.02.01-.03l.06-.03c.11 0 .22-.03.3-.09.04 0 .05-.02.06-.05.04.03.08.02.12-.01h.02c.23-.1.47-.15.7-.13.06.03.1.03.1 0h.02c.06.05.09.04.1 0 .1-.04.2-.05.25-.05 1.05.1 1.9.53 2.53 1.3.04.05.05.09.05.13 0 .03.01.05.03.06a.9.9 0 0 1 .33.69Z" fill="#F1F1F2"/><path d="M9.66 6.06a.47.47 0 0 0-.23-.24c-.03-.02-.05-.01-.05.03 0 .03-.02.06-.05.08-.03.04-.02.06.03.06.1 0 .18.06.22.16.15.16.16.23.04.21-.34-.32-.81-.23-1.11.08a.11.11 0 0 0-.03.08v.33c0 .03 0 .06.03.09l.5.6c.02.04.02.07 0 .1-.4-.1-.86-.3-1.26-.25l-.87.17a2.8 2.8 0 0 1-.5.05c-.08-.1-.24-.09-.47.06 0-.02-.04-.04-.1-.06.08.03.1-.01.04-.11a.08.08 0 0 1 0-.08l.13-.2a.07.07 0 0 0 0-.08c-.05-.08-.03-.15.06-.2l.02-.03v-.08c.06-.1.14-.19.22-.27.08-.08.16-.07.24.02l.02.05c0 .02.01.02.03.02h.02v.02c.02.03.04.03.06.02.36-.2.87-.53 1.26-.44A.11.11 0 0 0 8 6.23a.1.1 0 0 0 .03-.03v-.04c.01-.05.04-.08.1-.08.02 0 .06.01.1.04.11.08.17.07.16-.02.02-.1.06-.2.12-.27a.14.14 0 0 0 .04-.1c0-.07-.04-.1-.1-.08-.1.03-.26.09-.46.18-.06.03-.07.02-.03-.03.1-.12.1-.2.3-.22l.4-.06c.02 0 .05 0 .07.02a.1.1 0 0 0 .1.02.08.08 0 0 0 .05-.06l.01-.05c-.04-.07-.01-.1.08-.09l.44.08c.08.02.15.08.22.19.01.03.04.05.07.06.1.02.17.09.21.18.02.03 0 .04-.03.04h-.06L9.8 5.9l-.02-.02a.65.65 0 0 0-.25-.29c-.19-.1-.22-.07-.1.09.04.04.1.08.19.13.05.03.08.07.09.1.02.06 0 .11-.05.15Z" fill="#3B96D1"/><path d="m12.05 5.48.48.35-1.17.34a.1.1 0 0 1-.11-.03l-.17-.18c-.04-.04-.03-.06.02-.08l.95-.4Z" fill="#EA8888" fill-opacity=".99"/><path d="m7.61 5.54.07.01c-.1.06-.2.09-.31.09a.43.43 0 0 1 .24-.1Z" fill="#B3B6BE"/><path d="M14.87 5.58c.13.24-.02.52-.1.76l-.06.01a.15.15 0 0 1-.08-.08.15.15 0 0 1 0-.11l.24-.58Z" fill="#EA8888"/><path d="m9.66 6.06-.08.09a.23.23 0 0 0-.22-.16c-.05 0-.06-.02-.03-.06a.14.14 0 0 0 .04-.08c0-.04.03-.05.06-.03.11.05.19.13.23.24Z" fill="#D2D3D4"/><path d="M7.44 5.94c.02-.06.05-.09.1-.1h.05l.02.02v.03l-.01.01c-.05.03-.07.06-.07.1 0 .03-.02.05-.05.05h-.22c-.05.01-.06 0-.02-.05.02-.02.06-.03.14-.02.03 0 .05-.02.06-.04Z" fill="#B3B6BE"/><path d="M8.39 6.1c0 .1-.05.1-.17.02a.16.16 0 0 0-.1-.04c-.05 0-.08.03-.08.08 0 .02 0 .03-.02.04a.1.1 0 0 1-.02.03.1.1 0 0 1-.09.02c-.39-.09-.9.23-1.26.44-.02 0-.04 0-.05-.02l-.01-.03c.26-.18 1.03-.6 1.32-.48.03 0 .05 0 .07-.02L8.05 6 8.08 6a.47.47 0 0 1 .2-.04c.06 0 .06.02.02.05L8.28 6l-.02.03.01.03c.02.03.06.04.12.03Z" fill="#156FB7"/><path d="M9.62 6.36c-.2-.05-.24.06-.08.32l.01.02a.07.07 0 0 0 .05.01h.03l.17-.1a.07.07 0 0 0 .03-.05l.01-.1c0-.04.02-.07.05-.08l.22-.12a.1.1 0 0 1 .09 0c.16.06.3.15.42.28l.02.05c.01.04 0 .05-.04.04-.07-.02-.1-.04-.12-.06-.1-.12-.14-.1-.12.05v.12a.25.25 0 0 1-.09-.17c0-.03-.02-.04-.05-.01a.06.06 0 0 0-.02.04c0 .03-.02.04-.06.04l-.18-.01a.1.1 0 0 0-.09.04c-.05.07-.11.1-.17.08l-.07.01c-.05.05-.1.04-.16-.02a.07.07 0 0 0-.08-.02c-.07.03-.12.07-.14.13 0 .03 0 .05.02.07.08.09.1.16.04.22-.16.18-.26.31-.3.4l-.5-.6a.12.12 0 0 1-.03-.09v-.33c0-.03 0-.06.03-.08.3-.31.77-.4 1.1-.08Z" fill="#62AEDF"/><path d="M10.72 6.16c.04.02.07.01.1.02.02 0 .02.01.03.02v.05l-.02.01c-.11.05-.2.04-.26-.03-.1-.1-.08-.14.07-.1 0 0 .03 0 .08.03Z" fill="#156FB7"/><path d="M14.36 6.77c-.54.39-1.1.76-1.67 1.1-.05.03-.07.06-.06.1-.02-.06-.01-.1 0-.13a.88.88 0 0 0 .1-.75c-.02-.02 0-.04.02-.05.3-.12.49-.23.58-.35.09-.1.18-.3.27-.6.29.2.54.42.76.68Z" fill="#EA8888" fill-opacity=".99"/><path d="m11.15 6.78-.16-.14a.1.1 0 0 0-.08-.02c-.1.01-.18-.03-.24-.11-.04-.05-.05-.08-.05-.1 0-.09.03-.09.06-.02.07.14.17.18.31.12a.08.08 0 0 1 .08.02c.13.1.16.18.08.25Z" fill="#156FB7"/><path d="M12.63 7.96c-.01-.03.01-.06.06-.1.58-.33 1.13-.7 1.67-1.09.17-.1.33-.24.46-.4l.04-.02c.04-.01.07 0 .08.04l.06.2c0 .03 0 .05-.02.06a24.4 24.4 0 0 1-2.18 1.5c-.04.02-.07 0-.09-.03l-.08-.16Z" fill="#A6191E"/><path d="m10.62 6.54.05-.03c.06.08.15.12.24.1a.1.1 0 0 1 .08.03l.16.14c-.08.03-.15.03-.21 0a.24.24 0 0 0-.16-.02c-.03 0-.04.02-.01.05l.04.06c.01.04 0 .05-.04.06-.03 0-.06-.01-.07-.04-.04-.07-.1-.1-.17-.08h-.08a.22.22 0 0 1-.1-.07l.01-.12c-.02-.15.02-.17.12-.05.01.02.05.04.12.06.03 0 .05 0 .04-.04a.11.11 0 0 0-.02-.05Z" fill="#D2D3D4"/><path d="m5.84 6.84-.03.77c.06.02.1.04.1.06.01.12-.02.21-.1.28-.15.14-.22.28-.2.45a.33.33 0 0 0-.17.14l-.02.02h-.04c-.03.01-.04 0-.05-.03a.17.17 0 0 0-.02-.06c.02-.58.2-1.12.53-1.63Z" fill="#156FB7"/><path d="M12.11 7.97c.04.08.06.17.06.26l-.04.67c0 .12-.02.23-.06.32l-.22.5a1.35 1.35 0 0 1-.96.89l-.02-.01v-.01l-.01-.02c0-.28-.01-.57-.04-.86 0-.02.01-.07.05-.15l.57-.46c.09-.07.08-.08-.03-.03L11 9.3a1.1 1.1 0 0 0-.24-.47.08.08 0 0 1-.02-.08l.05-.15a.1.1 0 0 0 0-.05.1.1 0 0 0-.03-.04.11.11 0 0 0-.04-.03h-.06c-.08.01-.14 0-.19-.06a.12.12 0 0 0-.08-.04.54.54 0 0 0-.37.09l-.46.03a.11.11 0 0 1-.1-.04l-.4-.44a.1.1 0 0 1-.04-.08l.03-.26c.4-.16.91-.13 1.18-.17.38-.05.7-.16.96-.33.09-.05.17-.04.24.03l.68.76Z" fill="#D2D3D4"/><path d="m9.02 7.64.02.04-.02.26c0 .03 0 .06.03.08l.42.44c.02.03.05.04.09.04l.46-.03c.17.37.41.7.73 1l-1.2.71A2.34 2.34 0 0 0 7.8 8.25c-.14-.04-.46-.12-.97-.22l-.15-.22a.14.14 0 0 0-.07-.05.84.84 0 0 1-.23-.14c.18 0 .35-.02.5-.05l.87-.17c.4-.06.87.14 1.27.25Z" fill="#156FB7"/><path d="M11.98 7.49c.06.06.1.13.12.2-.05 0-.1-.02-.17-.09 0-.02 0-.06-.02-.11.03.03.06.03.07 0Z" fill="#62AEDF"/><path d="M6.38 7.61c.07.06.15.1.23.14.03 0 .05.03.07.05l.15.22c.12.2.43.1.43.46 0 .03.01.05.04.07l.16.12c-.27 0-.5.03-.72.1-.33.1-.58.3-.75.6a1.5 1.5 0 0 1-.38-.97c-.02-.17.05-.31.2-.45a.32.32 0 0 0 .1-.28c.23-.15.39-.17.47-.06Z" fill="#D2D3D4"/><path d="m9.55 10.18-.95.53c.22-.6.2-1.14-.3-1.64-.22-.16-.5-.3-.84-.4l-.16-.12a.08.08 0 0 1-.04-.07c0-.35-.3-.26-.43-.46.5.1.83.18.97.22 1 .31 1.59.96 1.75 1.94Z" fill="#184896"/><path d="m12.15 8.99-.02-.09.04-.67-.02.76Z" fill="#B3B6BE"/><path d="m11 9.3-.25.18c-.31-.3-.56-.64-.73-1.01.11-.08.23-.1.37-.1.03.01.06.02.08.05.05.05.1.07.19.06h.06l.04.03a.1.1 0 0 1 .03.1l-.05.14c-.01.03 0 .06.02.08.11.13.19.28.24.47Z" fill="#3B96D1"/><path d="M5.61 8.4c.01.37.14.69.38.96.09.66.35 1.2.8 1.63.12.13.3.2.43.3h.04l.02-.02-.01-.03a.73.73 0 0 0-.06-.06l.47.01-.49.2c-1.22-.62-1.88-1.62-1.88-2.92l.02.06c0 .03.02.04.05.04h.03l.01-.01.02-.02c.04-.06.1-.11.17-.14Z" fill="#184896"/><path d="M11.9 8.48h.04l.01.01c.03.06.03.1 0 .14l-.03.02h-.03c-.01 0-.02 0-.03-.02l-.01-.02c0-.05 0-.09.04-.13Z" fill="#3B96D1"/><path d="M7.46 8.67c.34.1.62.24.85.4-.02.14-.11.28-.28.43-.11.1-.05.21-.1.35-.06.16-.2.23-.42.22-.09-.01-.12.03-.11.12a.1.1 0 0 1-.02.07.69.69 0 0 1-.29.24c-.03 0-.04.03-.03.06.02.04.03.07.02.09-.02.02-.05.03-.08.02a.17.17 0 0 0-.06 0 .05.05 0 0 0-.04 0v.04c.01.2.12.36.3.47l.07.06v.03l-.01.02h-.04c-.12-.1-.3-.17-.43-.3a2.7 2.7 0 0 1-.8-1.63c.17-.28.42-.48.75-.59.21-.07.46-.1.72-.1Z" fill="#B3B6BE"/><path d="m12.13 8.9.02.09c.04.5-.23.88-.5 1.28a3.43 3.43 0 0 1-2.16 1.4.52.52 0 0 0-.34.08.6.6 0 0 1-.25.01c-.1-.02-.18-.02-.24-.02-.32.01-.65-.02-.96-.11l.74-.43c.56.12 1.12 0 1.07-.65l1.36-.99a.42.42 0 0 0-.05.15 10.54 10.54 0 0 1 .05.89.04.04 0 0 0 .04 0c.48-.13.75-.42.94-.87l.22-.5c.04-.1.06-.2.06-.33Z" fill="#156FB7"/><path d="m10.87 9.56-1.36.99-1.07.65-.74.43c-.85.47-1.74.86-2.66 1.15-.18-.03-.4-.01-.67.05a2.9 2.9 0 0 1-1.12-.02c-.2-.18-.28-.37-.24-.57.06-.28.2-.55.4-.83.53-.7 1.15-1.33 1.85-1.88.03-.02.05-.02.07 0a.3.3 0 0 1 .04.17c-.43.35-.78.73-1.08 1.15-.15.21-.24.45-.26.7v.36l.01.04.03.03c.64.43 2.46-.3 3.12-.58l.49-.2.92-.49.95-.53 1.2-.7.25-.18.41-.23c.1-.05.11-.04.03.03l-.57.46Z" fill="#E81D24"/><path d="m8.6 10.71-.92.48-.47-.01a.58.58 0 0 1-.32-.47v-.02l.01-.01.02-.02h.02l.06.01c.03.01.06 0 .07-.02.02-.02.01-.05 0-.1-.02-.02-.01-.04.02-.05.11-.05.2-.13.29-.24a.1.1 0 0 0 .02-.07c-.01-.09.02-.13.11-.12.22.01.36-.06.42-.22.04-.14-.02-.26.1-.35.17-.15.26-.29.28-.43.48.5.5 1.04.3 1.64Z" fill="#253274"/><path d="M5.37 9.7c.03.03.04.07.04.1s-.01.06-.05.1c-.28.24-.53.51-.77.8-.2.25-.4.53-.56.85.02-.25.1-.49.26-.7.3-.42.66-.8 1.08-1.15Z" fill="#EA8888" fill-opacity=".99"/><path d="M9.51 10.55c.05.65-.51.77-1.07.65l1.07-.65Z" fill="#184896"/><path d="M9.49 11.67a.58.58 0 0 1-.34.08c.1-.07.22-.1.34-.08Z" fill="#156FB7"/><path d="M5.04 12.78c-.47.15-1.4.39-1.8.03.47.08.84.09 1.13.02.27-.06.5-.08.67-.05Z" fill="#EA8888"/></svg>