<!-- by TradingView --><svg width="18" height="18" viewBox="0 0 18 18" xmlns="http://www.w3.org/2000/svg"><path fill="#F0F3FA" d="M0 0h18v18H0z"/><path d="M6.78 4.38c-1.09.57-1.55 1.28-1.55 2.36 0 1.76.77 2.45 3.29 2.93 1.84.34 2.48.58 2.48 1.4 0 1.4-2.55 1.64-3.96.4-.8-.7-1.06-.75-1.7-.27-.73.55-.23 1.6 1.08 2.3.9.47 1.93.53 2.87.49 1.95-.08 3.2-.7 3.58-2.11.53-2.03-.58-3.51-2.87-3.85-2-.29-2.62-.58-2.62-1.22 0-1.13 1.53-1.42 3.1-.6 1.14.59 1.3.6 1.78.1.49-.5.16-1.17-.9-1.83-.95-.6-3.52-.65-4.58-.1Z" fill="#66B62E"/></svg>