<!-- by TradingView --><svg width="18" height="18" viewBox="0 0 18 18" xmlns="http://www.w3.org/2000/svg"><path fill="url(#a)" d="M0 0h18v18H0z"/><path d="M5.5 7.4V6.13c-.74-.29-3-.1-3 1.59 0 1.34 1.24 1.86 1.86 1.96L5 8.7c-1.05-.03-1.52-.7-1.52-1 0-.29.21-.71.9-.71.62 0 1.04.3 1.13.4Z" fill="url(#b)"/><path d="M6 8.33V6h1v1.2L6 8.33Z" fill="url(#c)"/><path d="M10.05 6H8.49L5.17 9.96c-.28.32-.74.79-1.37.79-.51 0-.97-.3-1.14-.44l-.66.87c.2.28.85.82 1.84.82.99 0 1.78-.68 2.05-1.02L10.05 6Z" fill="url(#d)"/><path d="M8.49 11 7.5 9.52l.67-.79L9.7 11H8.5Z" fill="url(#e)"/><path d="M10 6v2.14L11.18 7h1.5s.7-.59 1.06-1H10Z" fill="url(#f)"/><path d="M10 9.19V11h1V9h1.5V8h-1.11L10 9.19Z" fill="url(#g)"/><path d="M13 11V7.3l1-.96v3.64h2V11h-3Z" fill="url(#h)"/><defs><linearGradient id="a" x1="16.48" y1="2.28" x2="2.8" y2="15.96" gradientUnits="userSpaceOnUse"><stop stop-color="#1A1A18"/><stop offset=".54" stop-color="#585252"/><stop offset="1" stop-color="#1A1A18"/></linearGradient><linearGradient id="b" x1="4.99" y1="6.35" x2="2.31" y2="7.33" gradientUnits="userSpaceOnUse"><stop stop-color="#C7B27B"/><stop offset=".52" stop-color="#FAF492"/><stop offset="1" stop-color="#C5AB70"/></linearGradient><linearGradient id="c" x1="7.55" y1="6.57" x2="6.12" y2="7.76" gradientUnits="userSpaceOnUse"><stop stop-color="#C5B287"/><stop offset=".51" stop-color="#FBF690"/><stop offset="1" stop-color="#A59876"/></linearGradient><linearGradient id="d" x1="2.46" y1="10.73" x2="9.9" y2="6.79" gradientUnits="userSpaceOnUse"><stop stop-color="#C1A165"/><stop offset=".5" stop-color="#FAF89C"/><stop offset="1" stop-color="#C3A879"/></linearGradient><linearGradient id="e" x1="6.98" y1="9.99" x2="9.02" y2="9.99" gradientUnits="userSpaceOnUse"><stop stop-color="#D1C176"/><stop offset="1" stop-color="#F8F49B"/></linearGradient><linearGradient id="f" x1="14.42" y1="6.58" x2="10.65" y2="8.49" gradientUnits="userSpaceOnUse"><stop stop-color="#C4B388"/><stop offset=".53" stop-color="#FBF690"/><stop offset="1" stop-color="#B89E63"/></linearGradient><linearGradient id="g" x1="10" y1="9.71" x2="13.18" y2="8.53" gradientUnits="userSpaceOnUse"><stop stop-color="#BBA470"/><stop offset=".46" stop-color="#F6F199"/><stop offset="1" stop-color="#C5B368"/></linearGradient><linearGradient id="h" x1="12.26" y1="10.49" x2="16" y2="10.18" gradientUnits="userSpaceOnUse"><stop offset=".23" stop-color="#BDA567"/><stop offset=".65" stop-color="#FBF692"/><stop offset="1" stop-color="#DAD086"/></linearGradient></defs></svg>