<!-- by TradingView --><svg width="18" height="18" viewBox="0 0 18 18" xmlns="http://www.w3.org/2000/svg"><path fill="#F0F3FA" d="M0 0h18v18H0z"/><path d="M8.65 6.5a4.28 4.28 0 0 0-1.22 2.46c0 .02-.03.04-.05.04-.04 0-.08-.06-.1-.1a17.3 17.3 0 0 0-.22-.47c-.08-.17-.08-.38 0-.64.05-.17.15-.37.28-.62.32-.58.79-1.08 1.23-1.57.22-.24.4-.52.57-.8.17-.27.26-.53.26-.8 0-.36-.22-.64-.47-.9-.04-.03-.01-.1.04-.1.17 0 .47.24.61.36 1.12.9-.28 2.46-.93 3.13Z" fill="#FE1D2F"/><path d="M8.5 5a.5.5 0 1 0 0-1 .5.5 0 0 0 0 1ZM8.85 8.2c.03-.07.01-.09-.05-.04-.37.27-.61.6-.71 1.01-.04.16-.07.15-.08 0-.02-.2 0-.42.05-.65.22-.93 1.17-1.34 1.89-1.52h.02c.02.01.03.03.03.05v.02a6.4 6.4 0 0 0-.76 3.62c.07.75.26 1.5.57 2.27.01.02-.02.06-.04.03a11.6 11.6 0 0 1-.83-1.75 4.1 4.1 0 0 1-.1-3.04Z" fill="#FE1D2F"/><path d="M10.13 12.66c.38-.9.27-2.09-.58-2.55-.14-.08-.13-.12.03-.1 1.07.06 1.64 1.16 1.34 2.3-.11.42-.34.8-.67 1.13-.6.6-1.24 1.03-1.9 1.3a.26.26 0 0 0-.17.2c0 .03-.04.06-.07.06-.06 0-.13-.03-.1-.1.02-.07.05-.11.1-.15a5.1 5.1 0 0 0 2.02-2.09Z" fill="#FE1D2F"/></svg>