<!-- by TradingView --><svg width="18" height="18" viewBox="0 0 18 18" xmlns="http://www.w3.org/2000/svg"><path fill="#F0F3FA" d="M0 0h18v18H0z"/><path fill-rule="evenodd" d="M9 13c3.31 0 6-1.8 6-4s-2.69-4-6-4-6 1.8-6 4 2.69 4 6 4Zm0-.28c3.15 0 5.7-1.67 5.7-3.74 0-2.06-2.55-3.74-5.7-3.74-3.15 0-5.7 1.68-5.7 3.74 0 2.07 2.55 3.74 5.7 3.74Z" fill="#ED1C24"/><path d="M11.1 8.98c0 .77-.11 1.49-.3 2.1.36.02.74.05 1.1.1a3.82 3.82 0 0 0 .7-2.34h-1.5v.14Zm-.97 3.39c.22-.27.41-.62.57-1.02.32.02.67.05 1 .1-.27.33-.6.6-.97.81-.2.05-.4.08-.6.11Zm-.41.05c.63-.58 1.08-1.9 1.08-3.44 0-1.53-.45-2.85-1.08-3.43a8.46 8.46 0 0 0-1.44 0c-.63.58-1.08 1.9-1.08 3.43 0 1.54.45 2.86 1.08 3.44a8.45 8.45 0 0 0 1.44 0Zm-1.85-.05a3.7 3.7 0 0 1-.57-1.02c-.33.02-.67.05-1 .1.27.33.6.6.97.81.2.05.4.08.6.11Zm-1.4-.33a4 4 0 0 1-.5-.53l-.45.12c.3.16.61.3.95.41Zm5.05 0c.34-.11.66-.25.96-.4-.15-.05-.3-.1-.45-.13-.15.2-.32.37-.5.54Zm1.3-.61c.98-.63 1.58-1.5 1.58-2.45v-.14h-1.5a4.24 4.24 0 0 1-.68 2.4c.2.05.41.11.6.19Zm1.54-2.86c-.15-.8-.7-1.5-1.54-2.03-.19.07-.4.13-.6.18.36.54.6 1.17.66 1.85h1.48Zm-1.88-2.24a6.2 6.2 0 0 0-.96-.4 4 4 0 0 1 .5.52c.16-.03.31-.07.46-.12Zm-2.35-.73c.2.02.4.06.6.1.37.21.7.49.97.81-.33.06-.68.08-1 .1a3.7 3.7 0 0 0-.57-1.01Zm-3.65.32a6.2 6.2 0 0 0-.96.41l.45.12c.15-.19.32-.37.5-.53Zm-1.3.62a3.22 3.22 0 0 0-1.54 2.03h1.48c.07-.68.3-1.31.66-1.85-.2-.05-.41-.1-.6-.18ZM3.6 8.84h1.5a4.22 4.22 0 0 0 .68 2.4c-.2.05-.41.11-.6.19-.98-.63-1.58-1.5-1.58-2.45v-.14ZM7.27 5.7c.2-.04.4-.08.6-.1a3.7 3.7 0 0 0-.57 1.02c-.33-.03-.67-.05-1-.1.27-.33.6-.6.97-.82ZM10.8 6.9c.16.5.27 1.07.3 1.68h1.49a3.8 3.8 0 0 0-.67-1.8c-.37.07-.75.1-1.12.12ZM5.4 8.99c0 .82.26 1.58.7 2.2.36-.06.74-.09 1.1-.11-.19-.61-.3-1.33-.3-2.1 0-.76.11-1.48.3-2.1-.36-.01-.74-.04-1.1-.1a3.8 3.8 0 0 0-.68 1.79H6.9v.27H5.4v.14Z" fill="#034EA2"/><path d="M8.86 7.84c.05-.14.25-.14.3 0l.28.73h.91c.17 0 .23.2.1.28l-.73.45.28.72c.05.14-.12.26-.25.18L9 9.74l-.74.46c-.13.08-.3-.04-.24-.18l.27-.72-.73-.45c-.13-.08-.07-.28.1-.28h.9l.29-.73Z" fill="#fff"/><path d="m9.01 7.94.3.8h.99l-.8.5.3.8-.79-.5-.8.5.31-.8-.8-.5h.99l.3-.8Z" fill="#ED1C24"/></svg>