<!-- by TradingView --><svg width="18" height="18" viewBox="0 0 18 18" xmlns="http://www.w3.org/2000/svg"><path fill="#F0F3FA" d="M0 0h18v18H0z"/><path d="M14.81 10c.12-.32.19-.65.19-1H3.3c0-2.05 2.55-3.71 5.7-3.71 2.62 0 4.82 1.14 5.5 2.71h.31C14.14 6.27 11.8 5 9 5 5.69 5 3 6.8 3 9c0 .2.02.38.06.57h11.57c-.03.15-.08.29-.14.43h.32Zm-1.84 2A7.9 7.9 0 0 1 9 13c-1.84 0-3.5-.56-4.6-1.43h.49c1.03.7 2.5 1.14 4.11 1.14 1.26 0 2.42-.26 3.36-.71h.6Z" fill="#020202"/><path d="m7.5 6 .9.82H6.6L7.5 6Z" fill="#020202"/><path d="m7.5 6.55 1.2.82H6.3l1.2-.82Z" fill="#020202"/><path d="M7.5 7.1 9 8.2H6l1.5-1.1Z" fill="#020202"/><path d="M7.35 7.92h.3v1.37h-.3V7.92ZM10.5 6l.9.82H9.6l.9-.82Z" fill="#020202"/><path d="m10.5 6.55 1.2.82H9.3l1.2-.82Z" fill="#020202"/><path d="M10.5 7.1 12 8.2H9l1.5-1.1Z" fill="#020202"/><path d="M10.35 7.92h.3v1.37h-.3V7.92ZM14.15 10.66h-.42l-.25.2-.01.02-.01.01v.03l.07.02c.02 0 .03 0 .01.02 0 .01 0 .02-.02.03a19.26 19.26 0 0 0-.4-.03l.04-.03.1-.01a.2.2 0 0 0 .07-.04l1.05-.85a.1.1 0 0 1 .08-.03h.02l-.08.88c0 .02 0 .03.03.04l.06.01c.02 0 .02.02.01.03 0 .01 0 .02-.02.03a82.55 82.55 0 0 1-.24 0h-.07a49.52 49.52 0 0 1-.24-.01l.01-.02a.06.06 0 0 1 .04-.02.6.6 0 0 0 .09-.02c.02 0 .04-.02.04-.03l.01-.02.03-.21Zm.01-.08.05-.33-.4.33h.35Z" fill="#020202"/><path d="M13.49 10.62a.97.97 0 0 1-.13.15.72.72 0 0 1-.16.12.84.84 0 0 1-.21.08c-.08.02-.17.03-.28.03a.95.95 0 0 1-.27-.03c-.06-.02-.1-.05-.12-.08a.15.15 0 0 1 0-.12c.02-.05.04-.1.08-.15l.32-.5v-.03a.24.24 0 0 0-.1-.02v-.04l.02-.02a23.72 23.72 0 0 0 .56.03l-.04.03a.6.6 0 0 0-.13.02.1.1 0 0 0-.06.04l-.3.46c-.06.1-.09.18-.07.23.02.06.09.08.22.08s.24-.02.32-.07a.73.73 0 0 0 .25-.25l.3-.45v-.04a.25.25 0 0 0-.1-.02c-.02 0-.02-.02 0-.03v-.01l.01-.02a2.16 2.16 0 0 0 .43 0v.02a.06.06 0 0 1-.05.04c-.05 0-.1 0-.12.02a.1.1 0 0 0-.06.04l-.31.49Z" fill="#020202"/><path d="m11.99 10.87-.02.03v.01l.04.02h.06c.01 0 .02.02 0 .03v.01l-.02.02a17.97 17.97 0 0 0-.52-.03l.03-.02a1.3 1.3 0 0 0 .12-.03.1.1 0 0 0 .03-.01l.02-.03.23-.35h-.55l-.23.35-.01.03v.01l.03.02h.07v.03l-.01.01-.01.02a15.85 15.85 0 0 0-.53-.03l.04-.02a1.28 1.28 0 0 0 .12-.03.1.1 0 0 0 .02-.01l.02-.03.49-.74v-.04l-.03-.01-.06-.01v-.04l.02-.02a25.2 25.2 0 0 0 .53.03l-.04.03a.82.82 0 0 0-.12.02.1.1 0 0 0-.03.02l-.02.02-.2.32H12l.2-.32.02-.02v-.02l-.04-.01-.06-.01v-.04l.02-.02a25.2 25.2 0 0 0 .53.03l-.04.03a.82.82 0 0 0-.12.02.1.1 0 0 0-.03.02l-.02.02-.48.74ZM9.93 10.97a6.53 6.53 0 0 1-.42.03 1 1 0 0 1-.3-.04.28.28 0 0 1-.14-.1.21.21 0 0 1-.03-.16.62.62 0 0 1 .1-.2 1.2 1.2 0 0 1 .38-.34 1.4 1.4 0 0 1 .62-.16 1.98 1.98 0 0 1 .44.05 1.53 1.53 0 0 0-.1.22h-.05a.1.1 0 0 1-.02 0v-.01c.01-.07 0-.12-.06-.14a.48.48 0 0 0-.21-.04.81.81 0 0 0-.57.23.9.9 0 0 0-.22.34.23.23 0 0 0 0 .15c.01.04.05.07.1.09.04.02.1.03.18.03a.9.9 0 0 0 .16-.01l.14-.21c.02-.03.02-.05 0-.06 0-.01-.04-.02-.09-.02l-.01-.01v-.02l.01-.02.01-.01a7.59 7.59 0 0 0 .22 0h.13a1.86 1.86 0 0 1 .15 0 3.37 3.37 0 0 0 .05.01v.02l-.03.02h-.02a.4.4 0 0 0-.1.03.11.11 0 0 0-.06.04l-.16.26-.03.02a.21.21 0 0 1-.07.01ZM8.79 10.66l.34-.53v-.04a.27.27 0 0 0-.1-.02v-.04l.02-.02a1.55 1.55 0 0 0 .2 0 4.06 4.06 0 0 0 .2.02.06.06 0 0 1-.04.04.42.42 0 0 0-.1.02.11.11 0 0 0-.06.04L8.7 11H8.6l-.02-.03-.32-.74-.42.64a.2.2 0 0 0-.02.03l.01.01.03.02a1.9 1.9 0 0 0 .08.01l-.01.02-.02.03a17.46 17.46 0 0 1-.31 0 8.32 8.32 0 0 0-.1-.01l.01-.02.02-.02h.02l.12-.03a.1.1 0 0 0 .05-.04l.49-.75v-.03c-.01-.01-.04-.02-.09-.02v-.05h.02a12.26 12.26 0 0 1 .1 0H8.5c.01 0 .02 0 .03.02l.27.62Z" fill="#020202"/><path d="M7.33 10.66h-.42l-.24.2-.02.02-.01.01v.03l.08.02c.01 0 .02 0 0 .02 0 .01 0 .02-.02.03a19.37 19.37 0 0 0-.41-.01v-.02l.05-.03.1-.01a.2.2 0 0 0 .07-.04l1.05-.85a.1.1 0 0 1 .08-.03h.02l-.08.88c0 .02 0 .03.03.04l.06.01c.02 0 .02.02.01.03 0 .01 0 .02-.02.03a79.04 79.04 0 0 1-.24 0h-.07a51.04 51.04 0 0 1-.24-.01 1.41 1.41 0 0 0 .03-.04h.02a.6.6 0 0 0 .09-.02c.02 0 .04-.02.05-.03v-.02l.03-.21Zm.01-.08.05-.33-.4.33h.35Z" fill="#020202"/><path d="M6.67 10.62a.97.97 0 0 1-.13.15.72.72 0 0 1-.16.12.84.84 0 0 1-.21.08C6.09 11 6 11 5.89 11a.95.95 0 0 1-.27-.03c-.06-.02-.1-.05-.12-.08a.15.15 0 0 1 0-.12c.02-.05.04-.1.08-.15l.32-.5v-.03a.24.24 0 0 0-.1-.02v-.04l.02-.02a23.89 23.89 0 0 0 .56.03l-.04.03a.6.6 0 0 0-.13.02.1.1 0 0 0-.06.04l-.3.46c-.06.1-.09.18-.07.23.02.06.09.08.22.08s.24-.02.32-.07a.73.73 0 0 0 .25-.25l.3-.45v-.04a.25.25 0 0 0-.1-.02c-.02 0-.02-.02 0-.03v-.01l.01-.02a2.15 2.15 0 0 0 .43 0v.02a.06.06 0 0 1-.05.04c-.05 0-.1 0-.12.02a.1.1 0 0 0-.06.04l-.31.49Z" fill="#020202"/><path d="M5.19 10.87a.2.2 0 0 0-.02.03v.01l.04.02h.06v.04l-.02.02a17.92 17.92 0 0 0-.53-.02l.04-.03a1.29 1.29 0 0 0 .12-.03.1.1 0 0 0 .03-.01l.02-.03.23-.35H4.6l-.23.35a.2.2 0 0 0-.01.03v.01l.03.02h.06c.02 0 .02.02 0 .03v.01l-.01.02a15.88 15.88 0 0 0-.54-.02c.02-.02.03-.03.05-.03a1.29 1.29 0 0 0 .12-.03.1.1 0 0 0 .02-.01l.02-.03.49-.74v-.04l-.03-.01-.06-.01v-.04l.02-.02a25.02 25.02 0 0 0 .53.03l-.04.03a.82.82 0 0 0-.12.02.1.1 0 0 0-.03.02l-.02.02-.2.32h.55l.2-.32.01-.02v-.02l-.03-.01-.06-.01v-.04l.02-.02a25.03 25.03 0 0 0 .52.03l-.03.03a.82.82 0 0 0-.12.02.1.1 0 0 0-.03.02l-.02.02-.48.74ZM4.27 10.26a.2.2 0 0 1-.05 0H4.2v-.02c0-.06-.02-.1-.05-.12-.03-.03-.1-.04-.17-.04a.53.53 0 0 0-.2.03.27.27 0 0 0-.13.11c-.02.04-.03.07 0 .09.01.02.05.04.09.06a2 2 0 0 0 .13.05l.13.05c.04.03.07.06.08.1 0 .03 0 .08-.04.14a.53.53 0 0 1-.1.1.67.67 0 0 1-.15.1.94.94 0 0 1-.4.09c-.1 0-.17 0-.24-.02a.77.77 0 0 1-.14-.05 1.24 1.24 0 0 0 .11-.24h.08V10.8c0 .03.02.05.04.07l.07.03.12.01h.12l.1-.04a.35.35 0 0 0 .12-.1c.03-.05.03-.08.01-.1a.18.18 0 0 0-.08-.07.98.98 0 0 0-.13-.04.57.57 0 0 1-.13-.06.16.16 0 0 1-.07-.09c0-.03.01-.08.05-.14a.48.48 0 0 1 .1-.1l.14-.1a.9.9 0 0 1 .71-.02 2.77 2.77 0 0 0-.1.2Z" fill="#020202"/></svg>