<!-- by TradingView --><svg width="18" height="18" viewBox="0 0 18 18" xmlns="http://www.w3.org/2000/svg"><path fill="#F0F3FA" d="M0 0h18v18H0z"/><path d="M9 5.52V5c2.92 0 5.02 1.31 6 2a10.9 10.9 0 0 0-6-1.48ZM9 12.48V13c-3.4 0-5.86-1.31-7-2a14.49 14.49 0 0 0 7 1.48Z" fill="#AAABAB"/><path fill-rule="evenodd" d="M9 12c3.87 0 7-1.34 7-3s-3.13-3-7-3-7 1.34-7 3 3.13 3 7 3Zm0-.33c3.51 0 6.36-1.2 6.36-2.67S12.51 6.33 9 6.33c-3.51 0-6.36 1.2-6.36 2.67S5.49 11.67 9 11.67Z" fill="#92D5F4"/><path d="M8 9.76v-.17h.75v.22c0 .17 0 .47.25.47.23 0 .23-.25.23-.28 0-.3-.22-.47-.44-.67l-.23-.2c-.4-.38-.52-.63-.52-1.05 0-.15 0-1.08.99-1.08.93 0 .93.83.93 1.13v.2h-.73V8.2c0-.21 0-.5-.23-.5-.21 0-.21.24-.21.28 0 .09 0 .2.44.63l.38.37c.39.37.39.76.39.91 0 .15 0 1.11-1 1.11s-1-.87-1-1.24Z"/></svg>