<!-- by TradingView --><svg width="18" height="18" viewBox="0 0 18 18" xmlns="http://www.w3.org/2000/svg"><path fill="#F8F4A1" d="M0 0h18v18H0z"/><path d="M12.21 7.18c-.04.03-.04.05 0 .08a3.45 3.45 0 0 1 1.76 2.67c.02.15.03.42.01.8a4.07 4.07 0 0 1-1.4 2.98A5.47 5.47 0 0 1 8.52 15a4.86 4.86 0 0 1-2.92-1.13 5.99 5.99 0 0 1-1.43-1.7.17.17 0 0 1-.02-.12c.01-.04.03-.07.07-.1l1.53-1.03a.1.1 0 0 0 .05-.09.11.11 0 0 0-.06-.1 3.36 3.36 0 0 1-1.53-1.9 4.23 4.23 0 0 1 .64-3.79c.2-.27.49-.59.87-.95.2-.2.4-.35.6-.45.71-.39 1.46-.6 2.25-.62.67-.02 1.44-.01 2.1.17 1.45.4 2.56 1.3 3.33 2.68a.11.11 0 0 1-.04.15l-1.74 1.17Z" fill="#9C833F"/><path fill-rule="evenodd" d="M11.32 11.25a3.15 3.15 0 0 0 0-4.5 3.27 3.27 0 0 0-4.57 0 3.15 3.15 0 0 0 0 4.5 3.27 3.27 0 0 0 4.57 0Zm-1.36-2.6H8.05c-.03 0-.05 0-.05-.04V6.43a.09.09 0 0 0-.07-.05.1.1 0 0 0-.04 0c-.93.2-1.63 1.32-1.74 2.17a2.95 2.95 0 0 0 1.75 3.11.11.11 0 0 0 .09-.05.1.1 0 0 0 .01-.06V9.41c0-.02 0-.03.02-.04l.04-.02h1.88c.03 0 .06.02.06.05v2.19c0 .06.06.1.12.08a2.95 2.95 0 0 0 1.77-3.13c-.09-.92-.86-1.97-1.83-2.15-.04 0-.06.02-.06.05v2.18c0 .03-.02.03-.04.03Z" fill="#F8F4A1"/></svg>