<!-- by TradingView --><svg width="18" height="18" viewBox="0 0 18 18" fill="none" xmlns="http://www.w3.org/2000/svg">
<rect width="18" height="18" fill="#F0F3FA"/>
<path fill-rule="evenodd" clip-rule="evenodd" d="M12.5151 4.24002C12.5151 4.24002 12.2043 3.99865 11.7713 4.00001C11.1075 4.00001 10.7656 4.41219 10.7656 4.9375C10.7656 5.59638 11.5625 6.4375 11.5625 6.4375C11.5625 6.4375 10.747 5.84375 10.0312 5.84375C9.31545 5.84375 9 6.28125 9 6.81553C9 7.76958 10.365 8.6343 10.365 8.6343C11.6026 9.45134 12 10.5862 12 11.4512C12 13.2256 10.635 14.6 8.59875 14.6C7.67194 14.6 6.73633 14.51 6 14.179C6.86152 14.6716 8.10326 15 8.96359 15C12.2974 15 15 12.3365 15 9.05096C15 7.07371 14.0212 5.32175 12.5151 4.24002Z" fill="#8AC834"/>
<path fill-rule="evenodd" clip-rule="evenodd" d="M5.48489 13.7613C5.48489 13.7613 5.79574 14.0027 6.22873 14.0013C6.7771 14.0049 7.26563 13.7104 7.26563 13.0625C7.26563 12.4146 6.22873 11.4062 6.22873 11.4062C6.22873 11.4062 7.24696 12.1406 7.92188 12.1406C8.59679 12.1406 9 11.6094 9 11.1406C9 10.2091 7.53062 9.32185 7.53062 9.32185C6.29303 8.50481 6 7.26562 6 6.3492C6 4.61915 7.41 3.4 9.40125 3.4C10.3281 3.4 11.2637 3.4913 12 3.8223C11.1385 3.32973 9.89674 3.00134 9.03641 3.00134C5.70259 3.00134 3 5.66483 3 8.95038C3 10.9276 3.97878 12.6796 5.48489 13.7613Z" fill="#0A499E"/>
</svg>
