<!-- by TradingView --><svg width="18" height="18" viewBox="0 0 18 18" xmlns="http://www.w3.org/2000/svg"><path fill="#0055A5" d="M0 0h18v18H0z"/><path d="M9 9.54v-3.6c0-.53-.47-.72-.97-.66-.72.08-1.5.88-1.65 1.15-.31.56-.42 1.45.44 2.1.62.46 2.18 1 2.18 1ZM8.92 12c0-.15.01-.86-.62-1.3-.44-.3-1.26-.52-1.8-.83-.18-.1-.35-.21-.5-.34v3.53s-.01.22.05.4c.12.3.61.67 1.34.47.1-.02.2-.06.3-.1.6-.27 1.23-.74 1.23-1.83Zm1.08.61V8.65s.87-.46 1.1-.55c.8-.3 1.84.02 1.9 1.32.02.43-.08.84-.17 1.03-.16.4-.44.8-.97 1.14-.65.43-1.86 1.03-1.86 1.03Zm.65-8.58c-.61.13-.65.44-.65.95v2.44s1.3-.6 1.56-.76c1.5-.94.68-2.98-.91-2.63Z" fill="#fff"/></svg>