<!-- by TradingView --><svg width="18" height="18" viewBox="0 0 18 18" xmlns="http://www.w3.org/2000/svg"><path fill="#F0F3FA" d="M0 0h18v18H0z"/><path d="M8.54 6.28H6.58c-.02 0-.03 0-.03-.02v-1.2c0-.04 0-.06.04-.06h4.92l.02.03a.07.07 0 0 1 0 .05l-.9 2.04c-.03.06-.02.1.04.11 1.5.29 3.24.71 4.16 2.13.02.04 0 .12-.04.12h-1.87c-.04 0-.08-.03-.11-.08a3.46 3.46 0 0 0-1.73-1.29l-.6-.2c-.12-.04-.2 0-.26.14l-.54 1.18c-.08.1-.06.17.08.17h1.66l.02.01.02.03v1.5l-.01.04-.03.02H6.63l-.03-.01-.02-.03a.07.07 0 0 1 0-.06l1.28-2.96c.02-.05 0-.08-.05-.07-.93.15-2.2.63-2.68 1.63-.34.72.01 1.47.54 1.9 1.4 1.15 3.43 1.24 5.04.83a4.32 4.32 0 0 0 2.03-1.4v-.02c0-.01 0-.02-.02-.03l-.02-.02h-.63c-.05 0-.07-.03-.07-.08v-.6c0-.05.03-.08.08-.08h2.85c.01 0 .02 0 .03.02l.03.02v.04a.1.1 0 0 1 0 .04c-.35 1.16-1.53 2.01-2.47 2.31-2.52.81-5 .76-7.46-.16-.86-.32-2.34-1.29-2.01-2.58.23-.9 1.23-1.52 1.94-1.81a9.45 9.45 0 0 1 3.16-.72c.03 0 .05-.02.07-.05l.34-.76c0-.02 0-.07-.02-.07Z" fill="#D41222"/></svg>