<!-- by TradingView --><svg width="18" height="18" viewBox="0 0 18 18" xmlns="http://www.w3.org/2000/svg"><path fill="#0000FE" d="M0 0h18v18H0z"/><path d="M10.66 8.5h-2.3c-.04 0-.05-.01-.02-.04l4.32-3.43c.06-.04.06-.04.02.01l-1.42 1.93c-.01.01 0 .03.01.03h2.46c.02 0 .03.04.01.05a24977.98 24977.98 0 0 0-6.26 4.94 7841.96 7841.96 0 0 1 3.18-3.49Z" fill="#FF0016"/><path d="m14.97 6.04.01.01v.32a32.13 32.13 0 0 0-3-.01l.14-.34.02-.01c.9-.02 1.84 0 2.83.03Z" fill="#E0F81C"/><path d="M15.98 6h-.26a.02.02 0 0 0-.02.02v.26c0 .01 0 .02.02.02h.25c.02 0 .03 0 .03-.02v-.26a.02.02 0 0 0-.02-.02Z" fill="#FF0016"/><path d="M7.1 7.67c-.11.23-.04.42.23.57.21.12.56.2 1.02.27a11.13 11.13 0 0 0 1.97.08c.02 0 .02.01.01.02l-.31.43H4.08c-.06 0-.1 0-.15-.02a.53.53 0 0 1-.23-.26.32.32 0 0 1-.01-.16c0-.06.03-.11.07-.16l.31-.29a12.1 12.1 0 0 1 6.03-2.1 47.38 47.38 0 0 1 .92-.04l-.31.34a10.98 10.98 0 0 0-2.26.42c-.7.22-1.15.52-1.35.9ZM11.73 8.7c.41.03.78.07 1.09.11.4.07.75.16 1.05.27.22.08.4.18.54.3.18.16.26.32.23.5a.88.88 0 0 1-.15.32c-.06.1-.14.19-.24.27-.28.25-.62.4-1.02.48-.17.04-.4.05-.7.05a208.02 208.02 0 0 0-3.2-.02l1.34-1.22h.03c.26.04.49.05.68.05.3 0 .5-.06.63-.17.1-.08.03-.17-.19-.27-.12-.05-.26-.1-.43-.14-.02 0-.02 0-.02-.02l.32-.5.04-.01Z" fill="#E0F81C"/><path fill-rule="evenodd" d="m3.84 10.68-.5.32H2.01v-.02l.98-.62v-.02l-.32-.62V9.7H3.7l.16.3h.02l.32-.3h.01l1.16-.01h.01v.02l-1 .62v.02l.59.55h.01l.25-.23h.5l.01-.01V9.7h2.9L7.96 11h-.01L4.03 11l-.17-.31h-.02Zm3.6 0h-1l-.02-.01v-.01l.17-.63h1.02v.01l-.16.63h-.02Zm1.7-.97-1 1.27V11l.01.01H8.3l1.01-1.28V9.7h-.16Z" fill="#E0F81C"/></svg>