<!-- by TradingView --><svg width="18" height="18" viewBox="0 0 18 18" xmlns="http://www.w3.org/2000/svg"><path fill="#F0F3FA" d="M0 0h18v18H0z"/><path d="M7 5h1.02v.27h-.73v.98H7V5Zm0 2.17V14h4V5H8.61v.27h2.1v8.46H7.3V7.17H7Z" fill="#A32130"/><path d="M8.42 6.2c.01.02.04.02.05.01L9 5.95c.17-.1.27-.19.32-.32a.52.52 0 0 1 .17-.2c.03-.04.11-.04.16-.02l.12.06c.12.05.2.12.22.22.02.1.02.21-.18.25-.1.02-.2.05-.26.08l-.87.41a.74.74 0 0 1-.2.07c-.11.02-.16.07-.14.14.01.07.17.08.26.1.06.01.09.06.04.08-.05.04-.17.06-.25.07-.02 0-.03.01-.03.02 0 .13-.03.26-.01.39 0 .07.02.15.04.24 0 .06.03.11.06.16.07.1.15.25-.1.3a.2.2 0 0 1-.13-.02c-.1-.05-.2-.1-.3-.13-.25-.07-.45-.14-.62-.2-.14-.04-.35-.1-.29-.23.01-.02.05-.03.08-.02a10.27 10.27 0 0 0 .95.19c.05 0 .1-.02.1-.05v-.56l-.05-.02-.36.02-.28.01c-.24 0-.29-.08-.22-.16.1-.13.15-.23.38-.3.17-.06.48-.15.5-.28.04-.45.1-.9.15-1.34.02-.17.06-.34.13-.53 0-.03.01-.07-.01-.1-.07-.06-.17-.16-.2-.23-.02-.12.82-.01.7.28-.06.16-.16.32-.2.49-.1.34-.08.75-.25 1.08-.03.05-.08.1-.08.15 0 .06.02.1.07.16ZM6.21 6.66c-.08 0-.16 0-.24-.04a.59.59 0 0 1-.18-.16c-.08-.09-.04-.2.06-.23l.57-.22c.06-.02.13-.01.17.05.16.22.46.32.4.65-.02.12-.14.2-.23.27a.75.75 0 0 0-.21.27 9.77 9.77 0 0 1-.97 1.44c-.09.1-.18.19-.26.3-.02.02-.04.02-.06 0a.4.4 0 0 0-.1-.1C5 8.81 4.98 8.58 5 8.43c.03-.23.56-.74.63-.83.21-.27.45-.56.62-.87.02-.03 0-.07-.04-.07Z" fill="#A32130"/><path d="M9.25 7.08c.1-.01.2 0 .3-.03l.19-.04c.25-.05.48.1.72.1l.24.06c.11.04.11.21.08.33v.01l-.02.01a.13.13 0 0 1-.1.02c-.22-.07-.43-.2-.69-.21-.22-.02-.42-.08-.64-.1h-.25c-.05 0-.07-.03-.08-.08v-.01c.02-.06.04-.08.09-.07.05.02.11.02.16.01ZM9.37 11.18l-.05-.09a.03.03 0 0 1 0-.03c.11-.12.23-.02.33.02.4.15-.11.52-.38.45-.07-.02-.09-.05-.05-.1a3.13 3.13 0 0 1 .16-.22v-.03Z" fill="#A32130"/><path d="M8.6 11.43c.08-.02.12 0 .13.07.02.1.01.22-.09.28-.07.05-.14.09-.15.18l-.03.23h.02l.2-.38c.09-.14.15-.28.24-.41a.3.3 0 0 1 .06-.07h.03a.1.1 0 0 1 .04.06v.02c-.09.12-.12.25-.19.38 0 .01 0 .02.01.01.24-.07.48-.17.66-.3.1-.06.17-.14.32-.12.12.01.16.1.15.19-.01.06-.1.08-.16.1a.46.46 0 0 0-.22.07c-.02.02-.02.03-.02.05l.02.09c0 .05.04.09.1.12.06.04.15.07.2.14.07.09.1.27.03.37-.09.15-.16.3-.31.41a.34.34 0 0 1-.21.08c-.2 0-.3-.16-.32-.31 0-.03.02-.08.06-.09.07-.01.1.07.13.11.04.07.13.06.19.02a.7.7 0 0 0 .2-.2c.08-.1.09-.2.02-.3a.67.67 0 0 0-.13-.16l-.02-.01a4.38 4.38 0 0 1-.47.4c-.05.04-.2.09-.26.04l-.01-.03v-.02l.13-.14a49.93 49.93 0 0 0 .38-.39l-.02-.01c-.12.03-.36.08-.47 0l-.03.01a43.54 43.54 0 0 0-.22.56c-.04.12-.11.27-.23.34-.04.03-.12.04-.15-.01-.07-.1-.07-.22-.05-.33l.01-.02.09-.06.02-.01v-.03l.06-.4c0-.02-.02-.03-.04-.03-.1 0-.21.03-.28-.04-.06-.06.03-.12.09-.14l.18-.06c.1-.03.08-.08.08-.16v-.41c0-.05.01-.1.08-.12.03 0 .06.01.07.03a.3.3 0 0 0 .07.11c.07.06.04.21 0 .28h.02Z" fill="#A32130"/><path fill-rule="evenodd" d="M8.56 8.46c.03-.02.04-.01.05.01l.03.08c0 .02 0 .04-.04.06l-.21.05c-.03.01-.05.03-.06.05 0 .07.02.11.1.13.06.02.14-.02.2-.05h.05c.03.08.04.15.05.22v.02l-.02.01c-.09.05-.18.09-.28.12l-.18.03c-.14 0-.31.1-.23.24.09.13.33.07.4-.03l.03-.01h.02l.27.12c.1.03.2 0 .21-.1 0-.09 0-.17-.02-.24 0-.02 0-.03.02-.04l.42-.15c.01 0 .03 0 .03.02v.06a3.53 3.53 0 0 1-.19.9c0 .02.01.03.03.04.04 0 .07 0 .09-.04.09-.11.15-.23.19-.35l.04-.23A130.21 130.21 0 0 0 9.61 9c-.04-.1.06-.12.17-.14.11-.02.23-.04.22-.16 0-.05-.04-.09-.1-.1a.65.65 0 0 0-.26-.03l-.02-.01v-.12c0-.02.02-.04.04-.05l.15-.06c.05-.03.07-.06.05-.1-.04-.06-.16-.09-.24-.06-.01 0-.03 0-.03-.02.02-.07-.06-.11-.13-.14A.19.19 0 0 0 9.35 8c-.07.02 0 .15.02.17l.02.06c.02.04 0 .08-.05.1l-.5.18c-.03 0-.04 0-.04-.02l-.02-.13c0-.08-.07-.14-.16-.11-.12.04-.19.1-.2.21 0 .03.01.05.05.05.03 0 .06-.02.1-.05Zm.34.52a7.75 7.75 0 0 1 .48-.18l.02-.03v-.26h-.02c-.14.04-.29.1-.44.16a.2.2 0 0 0-.09.06v.02l.05.23Z" fill="#A32130"/></svg>