<!-- by TradingView --><svg width="18" height="18" viewBox="0 0 18 18" xmlns="http://www.w3.org/2000/svg"><path fill="#F0F3FA" d="M0 0h18v18H0z"/><path d="M8.68 7.73c.53 0 .96-.4.96-.87S9.2 6 8.68 6s-.95.39-.95.86c0 .48.42.87.95.87Z" fill="#DE5510"/><path d="M4.25 6h2.5l.01.01v.01l.01 2.33v.01a.02.02 0 0 1-.03 0l-2.5-2.32-.01-.01V6h.02ZM2 7.92v-.3c.1-1.1.88-1.75 1.82-1.6.05.01.1.06.19.14l.09.1c.1.07 1.02.95 2.76 2.63.38.37.56.83.55 1.38 0 .5-.2.97-.52 1.29-.4.4-.89.53-1.45.38-.09-.02-.16-.09-.23-.15A929.3 929.3 0 0 0 2.65 9.4c-.39-.36-.6-.86-.65-1.5ZM16 9v3l-.8-.61h-.05c-.47.37-1.06.55-1.67.54-.01 0-.02 0-.02-.03V9.4c0-.02-.01-.03-.03-.03h-.41l-.02.01v2.51c0 .03-.01.04-.03.04-.53.02-.82 0-1.26-.2A3.08 3.08 0 0 1 9.96 8.8c.08-1.27.9-2.27 1.96-2.69.18-.07.34-.11.5-.11h3.24l.02.01v2.51a.01.01 0 0 1-.02 0L13.03 6.3H13l-.01.01V9h3ZM9.61 8H7.75c-.01 0-.02.01-.02.03v3.94c0 .02 0 .03.02.03h1.86c.02 0 .03-.01.03-.03V8.03C9.64 8 9.63 8 9.6 8ZM2 12V9.28l2.86 2.68c.02.02.02.03 0 .03H2Z" fill="#221714"/></svg>