<!-- by TradingView --><svg width="18" height="18" viewBox="0 0 18 18" xmlns="http://www.w3.org/2000/svg"><path fill="#333" d="M0 0h18v18H0z"/><path d="M6.4 8.69a10.57 10.57 0 0 0 .99 1.2l.92 1.03a24.71 24.71 0 0 1 .84.99c.07.09.13.2.17.3.06.12.1.27.07.4-.03.23-.23.33-.42.37a3.06 3.06 0 0 1-.97-.05 3.8 3.8 0 0 1-2.06-1.23.2.2 0 0 0-.16-.04c-.11.03-.2.14-.18.26a.67.67 0 0 0 .19.3c0 .01 0 .01 0 0A4.82 4.82 0 0 1 4.24 8.7 4.7 4.7 0 0 1 6.8 4.55a4.76 4.76 0 0 1 3.61-.35 4.54 4.54 0 0 0-1.57-.12c-.4.03-.8.1-1.18.24-.45.15-.86.39-1.21.7a2.31 2.31 0 0 0-.71 2.35 3.6 3.6 0 0 0 .65 1.32Z" fill="#fff"/><path d="M9.18 4.5a.78.78 0 0 0-.4.15c-.12.1-.15.23-.13.38-.12.1-.2.21-.21.37 0 .06 0 .11.02.16.05.2.14.38.27.54a63.73 63.73 0 0 1 1.08 1.13 5.92 5.92 0 0 0 1.46 1.1 9.8 9.8 0 0 1 .58.79l.02.03.07.12 1.15 1.96c.04.07.34.7.9 1.68V13h-1.71v-.08l-.23-.5a54.48 54.48 0 0 0-.15-.26L9 7.1 7.6 9.5a12.47 12.47 0 0 1-.75-.9 2.12 2.12 0 0 1-.22-.34l2.35-4.05H9l.18.3Z" fill="#04B2D9"/><path d="M13.1 11.23h-.01a13568.28 13568.28 0 0 1-1.15-1.96l-.07-.12-.01-.03-.01-.01a5.67 5.67 0 0 0-.58-.78l-.33-.4a30.6 30.6 0 0 0-1.32-1.47 17.2 17.2 0 0 1-.74-.88 1.56 1.56 0 0 1-.19-.36.9.9 0 0 1-.04-.19c-.02-.15.01-.29.13-.38.11-.1.26-.12.4-.14l.13-.01a3 3 0 0 1 .84.1 3.82 3.82 0 0 1 1.81 1.08c.05.06.11.11.19.15a.2.2 0 0 0 .2-.04c.2-.16.02-.39-.1-.52a4.72 4.72 0 0 1 .84 5.96Z" fill="#fff"/><path d="M8.65 5.03c0 .06.02.13.04.19a.46.46 0 0 0-.03.41c.06.18.17.33.3.48a5.82 5.82 0 0 0 .62.64 5.18 5.18 0 0 1 .37.38 6.13 6.13 0 0 0 .99.8l.33.4a5 5 0 0 1-1.45-1.1l-.77-.78a4.27 4.27 0 0 1-.32-.35 1.42 1.42 0 0 1-.27-.54.58.58 0 0 1-.02-.16c0-.16.09-.27.2-.37Z" fill="#04A6CA"/><path d="M8.69 5.22c.05.12.1.24.19.36l.13.18.6.7c.2.2.41.45.66.72l.67.75a6.14 6.14 0 0 1-1.36-1.18 109.07 109.07 0 0 1-.62-.64c-.13-.15-.24-.3-.3-.48a.46.46 0 0 1 .03-.41Z" fill="#0387A5"/><path d="M6.64 8.26c.06.13.14.24.22.35a12.47 12.47 0 0 0 .75.9l-.22.38h-.01a21.62 21.62 0 0 1-.99-1.2l.25-.43ZM4.93 11.2a4.82 4.82 0 0 0 .85 1.02c.08.02.15.05.22.1l-.08.14a.63.63 0 0 0-.23-.12l-.25-.08a1.37 1.37 0 0 1-.5-.3l-.28-.3.27-.47Z" fill="#04A6CA"/><path d="m6.2 11.96-.2.36a.55.55 0 0 0-.22-.1.67.67 0 0 1-.18-.3c-.02-.12.07-.23.18-.26a.2.2 0 0 1 .16.04 7.13 7.13 0 0 0 .27.26Z" fill="#04A6CA"/><path d="m5.92 12.46-.2.45V13H4v-.1l.66-1.23.28.29c.15.14.31.24.5.3l.25.08c.08.03.16.06.23.12Z" fill="#04B2D9"/><path d="M12.05 12.42a4.92 4.92 0 0 1-3.14 1.08 4.78 4.78 0 0 1-1.28-.2 4.6 4.6 0 0 0 1.48.13c.23-.02.46-.04.66-.08a3.83 3.83 0 0 0 1.76-.81 2.72 2.72 0 0 0 .37-.38h.01l.15.25v.01Z" fill="#fff"/></svg>