<!-- by TradingView --><svg width="18" height="18" viewBox="0 0 18 18" xmlns="http://www.w3.org/2000/svg"><path fill="#00B1F2" d="M0 0h18v18H0z"/><path d="M6 4.15c.03.12.17.15.34.15.23 0 .5-.08.6-.12.7-.22.95-.32 1.48-.73.12-.08.3-.3.08-.4-.4-.17-1.3.15-1.65.35l-.15.07c-.31.16-.76.38-.7.68Zm-.88 3.72c-.25.4-.97 1.15-1.53 1.13-.47-.01-.6-.54-.59-1a4.9 4.9 0 0 1 1.83-3.4c.15-.1.33-.18.5-.19.12 0 .23.02.33.1.27.18.36.52.34.92-.05.87-.6 2.01-.88 2.44ZM8.97 5c1.05.04 2.1.68 2.03 1.7-.14 1.78-3.96 1.74-4-.14-.02-1.06.97-1.6 1.97-1.56Zm2.87 5.54c-.37-.3-.68-.95-.77-1.37-.14-.63-.1-1.65.54-2.03.35-.2.84-.18 1.16.04.95.66 1.43 1.8 1.15 2.86-.12.46-.44.87-.96.95-.49.07-.77-.16-1.12-.45Zm-4.4.8c0-.42-.2-.9-.43-1.24-.48-.69-1.81-1.53-2.57-.85a1.2 1.2 0 0 0-.43.81c-.05.36.07.75.23 1.06.23.46.66.95 1.13 1.19.54.27 1.37.37 1.8-.16.17-.22.27-.51.27-.81Zm.56.94c0 .4.34.6.7.67.58.12 1.1 0 1.62-.3.33-.18.66-.52.68-.9.02-.35-.3-.62-.64-.71-.79-.19-2.36.28-2.36 1.24Zm6-.17c-.02.67-.69 1.88-1.58 1.89-.31 0-.42-.42-.42-.66 0-.71.77-1.86 1.6-1.84.3 0 .4.36.4.6ZM10.36 15c-.19 0-.36-.05-.36-.22 0-.2.31-.37.53-.49l.1-.05c.25-.15.94-.32 1.24-.2.2.09.13.22.03.36-.2.26-.81.5-1.11.56h-.02c-.1.01-.26.04-.4.04ZM9 3.27c0 .22.56.27.71.27.23 0 .71 0 .9-.16.29-.25-.59-.37-.7-.37h-.08C9.58 3 9 2.97 9 3.26ZM8.74 15c-.34 0-.74-.05-.74-.26 0-.16.35-.23.47-.24.29-.05.71-.05.99.08.35.19-.2.37-.35.4l-.37.02Z" fill="#F0F3FA"/></svg>