<!-- by TradingView --><svg width="18" height="18" viewBox="0 0 18 18" xmlns="http://www.w3.org/2000/svg"><path fill="#F0F3FA" d="M0 0h18v18H0z"/><path d="M3 8h5V3a6.16 6.16 0 0 0-1.25 3.75C5.22 6.75 3.58 7.6 3 8Zm2.5-1.67a.83.83 0 1 0 0-1.66.83.83 0 0 0 0 1.66Z" fill="#3684C4"/><path d="M15 8h-5V3c.47.56 1.3 2.06 1.25 3.75 1.53 0 3.17.85 3.75 1.25Zm-2.5-1.67a.83.83 0 1 1 0-1.66.83.83 0 0 1 0 1.66Z" fill="#EF3238"/><path d="M3 10h5v5a6.16 6.16 0 0 1-1.25-3.75A7.59 7.59 0 0 1 3 10Zm2.5 1.67a.83.83 0 1 1 0 1.66.83.83 0 0 1 0-1.66Z" fill="#96C957"/><path d="M15 10h-5v5a6.16 6.16 0 0 0 1.25-3.75c1.53 0 3.17-.85 3.75-1.25Zm-2.5 1.67a.83.83 0 1 0 0 1.66.83.83 0 0 0 0-1.66Z" fill="#F8B856"/></svg>