<!-- by TradingView --><svg width="18" height="18" viewBox="0 0 18 18" xmlns="http://www.w3.org/2000/svg"><path fill="#F0F3FA" d="M0 0h18v18H0z"/><path d="M14.15 11.46h-.73l-.02-.01-.06-.62.01-.01 1.64-.64v-.01H15v-.02l-4.53-7.14-.01-.01a.02.02 0 0 0-.02 0l-1.42.98a.02.02 0 0 1-.02 0L7.57 3a.02.02 0 0 0-.02 0l-.01.01L3 10.15v.02h.01l1.64.64.01.01v.01l-.05.61c0 .01 0 .02-.02.02h-.73l-.03.01v2.51c0 .01 0 .02.02.02h10.31l.01-.02v-2.5c0-.02 0-.02-.02-.02Zm-1.08.34h.73V13.68H4.2V11.8h.74l.13-1.19v-.01l-1.5-.58h-.01v-.03l4.09-6.47a.02.02 0 0 1 .02 0l1.31.89a.02.02 0 0 0 .02 0l1.32-.89a.02.02 0 0 1 .02 0L14.47 10v.02l-1.52.59v.01l.13 1.19Z" fill="#006B7A"/><path d="M5.4 13.45v-1.1h7.2v1.1H5.4Z" fill="#006B7A" fill-opacity=".6"/><path d="m4.06 10.02 3.69-6.04a.03.03 0 0 1 .03 0h.01l.85.57v3.94l-3.6 1.95a.03.03 0 0 1-.02 0l-.94-.38h-.01l-.01-.02a.03.03 0 0 1 0-.02ZM9.36 8.47v-3.9l.84-.6a.02.02 0 0 1 .02 0h.01l3.7 6.06h.01a.02.02 0 0 1 0 .02h-.01l-.95.39h-.02l-3.6-1.95v-.02ZM12.57 10.88l.14.92H5.29l.14-.92L9 8.97a.02.02 0 0 1 .02 0l3.55 1.89Z" fill="#006B7A"/></svg>