<!-- by TradingView --><svg xmlns="http://www.w3.org/2000/svg" width="18" height="18"><path fill="#B21E61" d="M0 0h18v18H0z"/><path d="M14.47 11.09L13.19 9.5a.14.14 0 00-.18-.03l-1.3.8c-.52.31-1.23.8-1.63.92-.29.09-.33-.17-.26-.51.3-1.45 1.78-2.48 1.49-4.1-.22-1.18-1.55-2.42-2.32-2.89.17 1.01.26 1.9-.02 2.85-.3 1.06-1.16 1.94-1.2 3.07 0 .2.02.42.07.65-.5-.8-1.55-1.85-4.84-2.02.94.2 1.62.76 2.17 1.45.87 1.1 1.59 2.08 3.1 2.3-1.22-.07-1.47.83-1.51 1.23-.06.08-.3.51.05.74.24-.3.58-.4.89-.52 2.11.4 3.62-1.33 3.86-1.62a.14.14 0 01.09-.05c.3-.06 1.79-.33 2.73-.46a.14.14 0 00.09-.24z" fill="#fff"/></svg>