<!-- by TradingView --><svg width="18" height="18" viewBox="0 0 18 18" xmlns="http://www.w3.org/2000/svg"><path fill="url(#a)" d="M0 0h18v18H0z"/><path fill-rule="evenodd" d="M4.55 11.43 7.73 4l1.5 3.43h.84l.85-1.83 2.52 5.83H14V12H4v-.57h.55Zm.34 0h.3l2.75-6.31-.2-.43-2.85 6.74Zm.66 0h.3l2.43-5.5-.2-.45-2.53 5.95Zm.63 0h.35L8.6 6.65l-.2-.43-2.22 5.2Zm.67 0h.34l1.75-3.97-.2-.43-1.9 4.4Zm.66 0h3.13l-1.57-3.6-1.56 3.6Zm3.43 0h.12l1.08-2.41-.2-.45-1.13 2.57.13.29Zm.67-3.64.2.46-1.13 2.58-.2-.47 1.13-2.57Zm-1.27 2.26 1.13-2.58-.2-.46-1.14 2.56.2.48Zm.6-3.8.19.43L10 9.27l-.17-.39 1.1-2.63Z" fill="#fff"/><defs><linearGradient id="a" x1="3.35" y1="3.12" x2="21.9" y2="24.43" gradientUnits="userSpaceOnUse"><stop stop-color="#1A1E21"/><stop offset="1" stop-color="#06060A"/></linearGradient></defs></svg>