<!-- by TradingView --><svg width="18" height="18" viewBox="0 0 18 18" xmlns="http://www.w3.org/2000/svg"><path fill="#003956" d="M0 0h18v18H0z"/><path d="M6.46 14c-.36 0-.72-.13-.98-.36-.26-.22-.4-.53-.4-.86 0-.65.6-1.28 1.37-1.28h2.62c1.1 0 1.11-.1 1.13-.2.02-.15.16-.3-.91-.81l-.5-.23c-.17-.07-.28-.12-.9-.43l-.4-.2C6.4 9.1 5 8.44 5 6.84 5 5.2 6.56 4 8.62 4h2.73c.37 0 .72.13.98.36.26.22.4.53.4.86 0 .61-.63 1.28-1.38 1.28H8.62c-.73 0-.85.08-.85.32 0 .14.33.33 1.07.69l.42.2c.55.28.62.3.7.34l.65.3c.92.43 2.64 1.25 2.36 3.15-.35 2.32-3.07 2.5-3.9 2.5H6.46Z" fill="#7FC200"/></svg>