<!-- by TradingView --><svg width="18" height="18" viewBox="0 0 18 18" xmlns="http://www.w3.org/2000/svg"><path fill="#F0F3FA" d="M0 0h18v18H0z"/><path d="M7 5.04c0-.37.08-.73.27-1.04.38.22.78.57 1.08 1.01.45.69.65 1.44.52 1.99A2.01 2.01 0 0 1 7 5.04ZM10.73 4c.2.31.27.67.27 1.04 0 1.03-.82 1.88-1.84 1.96-.13-.55.04-1.3.5-1.99.29-.44.69-.8 1.07-1.01Z" fill="#FFD500"/><path d="M6 6.79c0-.64.15-1.29.43-1.79.57.37 1.15 1 1.59 1.75.68 1.14.91 2.32.72 3.25C7.2 9.86 6 8.52 6 6.79ZM11.57 5c.3.52.43 1.17.43 1.79 0 1.73-1.2 3.07-2.74 3.21-.2-.93.04-2.1.72-3.25A5.34 5.34 0 0 1 11.57 5Z" fill="#F68E1E"/><path d="M4 8.86c0-1 .11-2.07.59-2.86a9.16 9.16 0 0 1 2.78 2.8A7.15 7.15 0 0 1 8.4 14C5.68 14 4 11.57 4 8.86ZM13.41 6c.5.81.6 1.9.59 2.86 0 2.7-1.94 5.14-4.41 5.14a7.15 7.15 0 0 1 1.04-5.2A9.16 9.16 0 0 1 13.41 6Z" fill="#EC1C2D"/></svg>