<!-- by TradingView --><svg width="18" height="18" viewBox="0 0 18 18" xmlns="http://www.w3.org/2000/svg"><path fill="#F0F3FA" d="M0 0h18v18H0z"/><path fill-rule="evenodd" d="M14 4H4v10h10V4Zm-1 8H5v.33h8V12Zm-4-2V6h.61l1.4 3.53h.01L12.4 6H13v4h-.36V6.43L11.19 10h-.38L9.36 6.43V10H9Zm-2.44-.33c-.65 0-1.13-.3-1.18-.9H5C5 9.54 5.65 10 6.5 10 7.27 10 8 9.66 8 8.9c0-.46-.28-.8-.75-.95a11.68 11.68 0 0 0-.9-.21c-.36-.08-.8-.22-.86-.6-.1-.52.47-.8 1-.8.56 0 1.02.27 1.02.8h.37C7.88 6.42 7.26 6 6.49 6c-.68 0-1.4.34-1.4 1.02 0 .68.61.92 1.26 1.06l.46.1c.42.1.82.31.82.73 0 .53-.52.76-1.07.76Z" fill="#FE6F23"/></svg>