<!-- by TradingView --><svg width="18" height="18" viewBox="0 0 18 18" xmlns="http://www.w3.org/2000/svg"><path fill="#FCE1E6" d="M0 0h18v18H0z"/><path d="M13.49 5.74c.7-.4 1.51-.09 1.51.76v2.66c0 .45-.38.82-.85.84a.82.82 0 0 1-.86-.82V6.23l-1.95 1.83a.99.99 0 0 1-.68.27.99.99 0 0 1-.7-.27l-.34-.3-.31.3a.99.99 0 0 1-.69.27.99.99 0 0 1-.68-.27L6.14 6.3a.88.88 0 0 0-.54-.27c-.2.42-.13.8.23 1.15L8.73 10c.3.28.44.64.44 1.01 0 .87-.83 1.51-1.7 1.41a1.54 1.54 0 0 1-2.29.17l-1.93-1.85a.8.8 0 0 1-.25-.58c0-.44.38-.8.83-.8.22-.01.45.07.62.23l2.37 2.19c.16.14.3.18.5.23.1-.18.15-.37.14-.56 0-.25-.27-.62-.5-.83L4.43 8.05A1.36 1.36 0 0 1 4 7.08a1.34 1.34 0 0 1 1.38-1.4 1.5 1.5 0 0 1 2.3-.27l1.94 1.77 1.92-1.87c.23-.21.52-.3.82-.31.47 0 .94.35 1.13.74Zm.14.26v3.1c0 .32.17.58.5.57.33-.01.53-.27.53-.58V6.66c0-.66-.5-1.02-1.03-.66Zm-.44-.1c-.15-.28-.5-.59-.83-.59-.2 0-.41.1-.55.24L9.82 7.46l.34.33c.27.26.71.26.98 0L13.2 5.9ZM9.41 7.47 7.43 5.67a1.1 1.1 0 0 0-.8-.34c-.36 0-.66.12-.88.4.24.06.42.16.62.35l1.76 1.69c.27.25.71.25.98 0l.3-.3ZM5.25 6c-.6.04-.92.49-.9 1.08 0 .28.16.55.38.77l2.58 2.63c.28.27.48.68.49 1.04a.8.8 0 0 1-.1.48c.66.02 1.13-.37 1.13-1 0-.3-.18-.56-.42-.79l-2.9-2.83c-.4-.4-.44-.89-.26-1.38Zm1.87 6.28c-.21-.07-.36-.12-.53-.28L4.23 9.86c-.12-.12-.25-.2-.4-.2-.3.02-.49.2-.49.5 0 .13.06.27.17.38l1.87 1.78c.24.23.56.35.88.35.34 0 .62-.15.86-.4Z"/><path fill-rule="evenodd" d="M14.14 13a.85.85 0 0 1-.85-.83c0-.46.38-.84.85-.84.48 0 .86.38.86.84 0 .46-.38.83-.86.83Zm0-.33a.5.5 0 0 1-.51-.5c0-.28.23-.5.51-.5a.5.5 0 0 1 .52.5.5.5 0 0 1-.52.5Z"/></svg>