<!-- by TradingView --><svg width="18" height="18" viewBox="0 0 18 18" xmlns="http://www.w3.org/2000/svg"><path fill="#F0F3FA" d="M0 0h18v18H0z"/><path d="M5.9 9.92c.06.01.1-.08.1-.08v-.9s-.02-.05-.06-.06a3.84 3.84 0 0 0-1.42.5c-.1.06-.19.05-.28-.01C4.08 9.26 4 9.13 4 9c0-.1.05-.23.16-.35.36-.42 1.26-.67 1.8-.76.04 0 .04-.06.04-.06V4.72c0-.36.1-.74.54-.72.53.03.46.46.46.85v3.03c0 .04.01.08.04.12a.2.2 0 0 0 .11.07 7.82 7.82 0 0 1 2.01.71c.04 0 .07-.02.1-.04 1.04-1.02 1.8-2 2.52-3.24.12-.21.23-.35.34-.42.09-.05.19-.08.29-.08.28 0 .58.26.59.55a.6.6 0 0 1-.07.28c-.64 1.37-1.79 2.41-2.9 3.5a.1.1 0 0 0-.03.08c0 .02.02.05.04.06 1.07.73 1.85 1.5 2.72 2.45.18.2.25.42.24.61-.01.27-.17.47-.41.47-.14 0-.3-.07-.48-.23-1.23-1.13-1.92-1.95-2.76-2.66-.03-.03-.06-.03-.1 0-.48.36-1.63.63-2.19.81a.1.1 0 0 0-.04.03.09.09 0 0 0-.02.06v2.52c0 .24-.28.47-.5.47-.38 0-.5-.47-.5-.77v-2.27c0-.03 0-.06-.03-.09a.15.15 0 0 0-.08-.05c-.37-.1-1.2-.24-1.58-.44-.26-.14-.24-.5-.04-.68.15-.15.46-.08.69.03.19.1.79.16.95.2Zm1.18-.91L7.04 9c-.02 0-.04.02-.04.05v.85c0 .06.05.1.1.1l.06-.01 1.04-.41a.09.09 0 0 0 .05-.08.09.09 0 0 0-.05-.07L7.08 9Z" fill="#003343"/></svg>