<!-- by TradingView --><svg width="18" height="18" viewBox="0 0 18 18" xmlns="http://www.w3.org/2000/svg"><path fill="#F0F3FA" d="M0 0h18v18H0z"/><path d="M13.99 8.68a5.08 5.08 0 0 0-5-4.68c-1.27 0-2.53.5-3.45 1.39.35-.07.7-.14 1.05-.14 1.68 0 3.3.9 4.28 2.26 2.8 3.91 2.05-1.94-1.3 3.51-.55.9-.76 1.95-.6 2.98h.15a5.09 5.09 0 0 0 4.87-5.32Z" fill="#F44616"/><path d="M11.96 9C10.5 9 9.7 10.43 9.7 8.8c0-1.11-.54-2.46-3.04-2.46-3.59.29 1.4 8.16-.92 6.45.9.78 2.04 1.21 3.23 1.21-.03-.35-.04-.7-.03-1.05.07-.86.4-1.68.94-2.36A4.7 4.7 0 0 1 11.96 9Z" fill="#F0F3FA"/><path d="M6.5 13c.7 0 1.5-.56 1.5-1.26 0-.53-.51-1-1-1.2-.65-.31-.98-.97-1-1.7A1.75 1.75 0 0 1 7.75 7c1.04-.02 1.87.8 1.87 1.8 0 .4-.05.87-.28 1.2h.1c.88-.2 1.6-1 2.53-1 .5.01.94.13 1.4.31.01-.12 0-.23-.03-.35-.1-.48-.5-.71-.95-.78-.32-.05-.9.01-1.17-.23-.15-.12-.24-.29-.35-.44a5.43 5.43 0 0 0-.9-.97 5.06 5.06 0 0 0-3.31-1.3c-.63 0-.8.08-1.12.15A5.03 5.03 0 0 0 4 9.13C4 10.53 5.17 13 6.5 13Z"/><path d="M7.94 8.1a.63.63 0 1 0-.38 1.18.63.63 0 0 0 .38-1.19Z"/></svg>