<!-- by TradingView --><svg width="18" height="18" viewBox="0 0 18 18" xmlns="http://www.w3.org/2000/svg"><path fill="#F0F3FA" d="M0 0h18v18H0z"/><path d="M5.34 12c-1.47 0-2.4-.77-2.34-2h1.5c.11.5.67.67 1.11.67.6 0 1.08-.18 1.15-.52.07-.32-.1-.45-1.09-.61-1-.15-2.33-.43-2.07-1.7C3.78 6.93 4.78 6 6.45 6c1.32 0 2.17.63 2.15 1.71H7.05c-.04-.26-.32-.4-.87-.4-.69 0-1.03.25-1.06.45-.06.3.34.4 1.04.51 1.4.24 2.37.55 2.12 1.8C8.04 11.2 6.82 12 5.34 12Z" fill="#1E4388"/><path d="M10.54 9.06c.17-.91.96-1.63 1.77-1.63.8 0 1.33.7 1.16 1.63a1.8 1.8 0 0 1-1.77 1.51c-.8 0-1.34-.6-1.16-1.51Zm-1.49-.01L8 14h1.48l.63-2.68c.34.45.86.68 1.53.68 1.51 0 2.97-1.25 3.3-2.94.32-1.68-.65-3.06-2.37-3.06a3.7 3.7 0 0 0-3.52 3.05Z" fill="url(#ayyaleye0)"/><defs><linearGradient id="ayyaleye0" x1="17.53" y1="14.81" x2="17.53" y2="6.03" gradientUnits="userSpaceOnUse"><stop offset=".04" stop-color="#CFDD3E"/><stop offset=".98" stop-color="#3BAE4B"/></linearGradient></defs></svg>