<!-- by TradingView --><svg width="18" height="18" viewBox="0 0 18 18" xmlns="http://www.w3.org/2000/svg"><path fill="#F0F3FA" d="M0 0h18v18H0z"/><ellipse cx="14.7" cy="7.29" rx=".3" ry=".29" fill="#E6001B"/><ellipse cx="11.1" cy="7.29" rx=".3" ry=".29" fill="#E6001B"/><ellipse cx="6.9" cy="7.29" rx=".3" ry=".29" fill="#E6001B"/><ellipse cx="3.3" cy="7.29" rx=".3" ry=".29" fill="#E6001B"/><ellipse cx="14.7" cy="10.71" rx=".3" ry=".29" fill="#E6001B"/><ellipse cx="11.1" cy="10.71" rx=".3" ry=".29" fill="#E6001B"/><ellipse cx="6.9" cy="10.71" rx=".3" ry=".29" fill="#E6001B"/><ellipse cx="3.3" cy="10.71" rx=".3" ry=".29" fill="#E6001B"/><path d="M3.83 7.97a.68.68 0 0 1 .37-.11h2.4v.28H4.2a.37.37 0 0 0-.2.06c-.05.04-.1.1-.1.23 0 .12.05.19.1.23.07.04.15.05.2.05h1.65c.12 0 .3.04.46.15.17.1.29.3.29.57 0 .27-.12.46-.29.57a.85.85 0 0 1-.46.14H3.6v-.28h2.25c.08 0 .2-.03.29-.09.08-.06.16-.16.16-.34 0-.18-.08-.28-.16-.34A.54.54 0 0 0 5.85 9H4.2a.68.68 0 0 1-.37-.11.53.53 0 0 1-.23-.46c0-.22.1-.37.23-.46ZM7.5 8.29c0-.13.17-.2.27-.1L8.79 9.2l-.69.7.22.19.68-.68.68.68.22-.2-.7-.69 1.03-1.02c.1-.1.27-.03.27.1v1.85h.3V8.3c0-.4-.5-.58-.79-.3L9 9 7.99 8c-.28-.29-.79-.1-.79.29v1.85h.3V8.3ZM11.7 7.86h-.3v2.28h.3V8.88c0 .09.07.16.12.22l.25.16c.2.11.46.23.75.34.53.2 1.15.41 1.58.54v-.27a23.9 23.9 0 0 1-1.46-.5 6.05 6.05 0 0 1-.9-.46.22.22 0 0 1-.04-.03l.03-.03a5.42 5.42 0 0 1 .9-.36c.49-.14 1.05-.28 1.47-.36v-.27c-.43.09-1.04.23-1.57.38-.28.09-.55.18-.75.27-.1.04-.18.1-.25.15-.06.05-.13.12-.13.21V7.86Z" fill="#0074BE"/></svg>