<!-- by TradingView --><svg width="18" height="18" viewBox="0 0 18 18" xmlns="http://www.w3.org/2000/svg"><path fill="#F0F3FA" d="M0 0h18v18H0z"/><path d="M4 12.06V5.9l4.33-2.69a1.04 1.04 0 0 1 1.28 0l2.17 1.35-5.53 3.45c-.45.45 0 .92.27 1.1l.72.5c.9.78.42 1.75 0 2.06L5.38 12.9 4 12.06Z" fill="url(#a2nbmib0i)"/><path d="M4 9.4v2.66l1.38.85 1.86-1.23c.42-.3.9-1.28 0-2.06l-.72-.5c-.26-.17-.66-.6-.34-1.02L4 9.4Z" fill="url(#b2nbmib0i)"/><path d="M14 5.94v6.15l-4.33 2.69c-.55.39-1.04.18-1.28 0l-2.17-1.35 5.53-3.45c.45-.45 0-.92-.27-1.1l-.72-.5a1.3 1.3 0 0 1 0-2.06l1.86-1.23 1.38.85Z" fill="url(#c2nbmib0i)"/><path d="M14 8.6V5.94l-1.38-.85-1.86 1.23a1.3 1.3 0 0 0 0 2.06l.72.5c.26.17.66.6.34 1.02L14 8.6Z" fill="url(#d2nbmib0i)"/><defs><linearGradient id="a2nbmib0i" x1="9.03" y1="3" x2="4.82" y2="8.65" gradientUnits="userSpaceOnUse"><stop stop-color="#3681B9"/><stop offset="1" stop-color="#305995"/></linearGradient><linearGradient id="b2nbmib0i" x1="5.88" y1="8.1" x2="5.88" y2="12.91" gradientUnits="userSpaceOnUse"><stop stop-color="#378CC1"/><stop offset="1" stop-color="#2D4384"/></linearGradient><linearGradient id="c2nbmib0i" x1="8.97" y1="15" x2="13.18" y2="9.35" gradientUnits="userSpaceOnUse"><stop stop-color="#3681B9"/><stop offset="1" stop-color="#305995"/></linearGradient><linearGradient id="d2nbmib0i" x1="12.12" y1="9.9" x2="12.12" y2="5.09" gradientUnits="userSpaceOnUse"><stop stop-color="#378CC1"/><stop offset="1" stop-color="#2D4384"/></linearGradient></defs></svg>