<!-- by TradingView --><svg width="18" height="18" viewBox="0 0 18 18" xmlns="http://www.w3.org/2000/svg"><path fill="#F0F3FA" d="M0 0h18v18H0z"/><path d="M4.2 5.37a5.53 5.53 0 0 0-1.16 2.9A6.04 6.04 0 0 0 6 14.26c.71.42 1.07.52 1.43.4.34-.1 1.86-.16 1.86-.07 0 .03-.08.08-.19.1-.12.04-.17.1-.16.18.04.19.72.19 1.51 0a6.13 6.13 0 0 0 4.43-4.56c.2-.8.16-2.13-.08-2.94a6.37 6.37 0 0 0-3.01-3.73A5.23 5.23 0 0 0 9.13 3 5.89 5.89 0 0 0 4.2 5.37Zm5.07-1.02c.14.14.1.24-.17.38-.3.18-.42.12-.32-.16.11-.3.32-.4.49-.22Zm.93.27c.24.11.32.23.15.23s-.93-.25-.93-.31c0-.1.52-.04.78.08Zm-1.69.14c-.1.07-.14.07-.16.01-.04-.1.13-.22.23-.16.04.02 0 .09-.07.15Zm-.17.32c0 .04-.04.07-.08.07s-.06-.03-.03-.07c.02-.04.06-.08.08-.08.01 0 .03.04.03.08Zm1.45.04c.44.02.88.07.98.11.1.04.38.07.6.07.27 0 .46.04.51.1.09.11-.28.11-1.3.01-.37-.04-.53-.02-.7.07-.13.07-.24.15-.24.19 0 .03.21.06.47.07.58.02.74.08 1.27.5.24.18.46.34.5.34.04 0 .22.15.4.33.18.2.34.3.37.26.05-.08-.23-.52-.33-.52-.04 0-.07-.05-.07-.11 0-.17.1-.14.3.1.1.1.3.29.45.4.38.3.3.43-.28.43-.35 0-.47.03-.47.1 0 .12.22.2.52.2.11 0 .22.04.24.08.03.04.12.07.2.07.32 0 .5.2.5.56 0 .27-.05.36-.23.52-.3.26-.46.25-.64-.07-.19-.33-.19-.4-.03-.46.07-.03.17-.1.22-.14.05-.05.13-.11.18-.13.2-.08-.09-.22-.49-.23-.33 0-.43-.04-.5-.16-.04-.08-.15-.2-.24-.28-.12-.1-.15-.2-.12-.32s-.02-.23-.16-.4c-.2-.22-.26-.24-.78-.29-.41-.03-.56-.02-.53.04.03.04.2.1.38.13.36.06.56.2.5.37-.03.05.05.17.18.26.27.2.28.35.04.4l-.18.05.3.62.35.73c.03.06.21.25.4.41a5.2 5.2 0 0 1 .97 1.05c.13.15.2.73.15 1.27l-.03.45-.07-.45a5.54 5.54 0 0 1-.05-.73c0-.25-.05-.33-.6-.9-.32-.34-.7-.71-.82-.82-.17-.15-.24-.27-.24-.42 0-.23-.15-.41-.41-.5-.12-.03-.17-.01-.17.07 0 .06.04.14.1.17.05.04.13.25.19.47.05.23.14.5.2.62.05.1.1.33.1.48 0 .2.02.25.06.19.03-.06.1-.09.13-.06.11.07.24.66.24 1.09 0 .2.03.38.06.38.04 0 .13-.2.2-.43.13-.41.15-.43.4-.45.28-.03.45.1.41.32-.02.1-.05.1-.22-.03l-.2-.16-.1.16a.9.9 0 0 0-.12.43c0 .14-.03.47-.08.72-.05.34-.05.51 0 .62.06.12.05.19-.07.34-.14.2-.15.2-.32.07-.16-.11-.17-.17-.14-.42.03-.16.1-.38.15-.49.17-.33.1-.46-.17-.28-.12.08-.2-.26-.2-.87 0-.28-.01-.5-.02-.5a.61.61 0 0 0-.09.18c-.04.1-.1.19-.14.19-.1 0-.1-.09.03-.26.06-.08.1-.2.1-.26 0-.09-.03-.07-.11.05-.15.22-.32.22-.32 0 0-.15 0-.15-.1-.01a.9.9 0 0 0-.1.44c0 .17.01.26.04.2.04-.12.24-.11.24.02 0 .26-.1.57-.18.57-.05 0-.14.05-.19.11-.13.17-.36.14-.36-.04 0-.08-.03-.15-.07-.15-.15 0-.29.26-.29.54 0 .23-.06.4-.24.65-.35.5-.36.53-.24.53.06 0 .25-.17.41-.39.53-.7.53-.7.56-.57.01.07-.06.3-.16.5-.15.31-.17.39-.08.39.17 0 .42-.6.43-1.08 0-.09.06-.16.13-.18.08-.01.12.05.15.24.05.29-.08.61-.4 1.03-.34.43-.43.5-.62.5l-.56.05c-.34.05-.91-.08-.7-.16.13-.06.1-.26-.07-.45l-.15-.17-.14.18c-.19.25-.3.24-.23-.01l.05-.2-.22.16c-.2.14-.46.22-.46.14 0-.02.13-.17.29-.33.25-.26.28-.33.25-.55a.85.85 0 0 0-.1-.32 5.55 5.55 0 0 0-1.5-.07c-.22.05-.21.2.01.35.1.07.18.17.18.23 0 .07.06.1.17.1.22-.03.25.23.05.49s-.29.25-.3-.04a.84.84 0 0 0-.13-.43.74.74 0 0 1-.15-.27c0-.1-.35-.37-.58-.45a.6.6 0 0 1-.27-.19c-.1-.13-.53-.4-.58-.34 0 .01.04.09.12.16.19.17.2.26.01.21-.23-.06-.42-.33-.54-.78-.16-.57-.15-.66.06-.74.11-.04.18-.14.2-.27.03-.27.17-.3.23-.06.05.2.06.2.5.15l.68-.04c.23 0 .24-.01.24-.3 0-.36-.18-.47-.37-.22l-.12.17-.13-.27c-.17-.37-.73-.69-.94-.53-.18.14-.26.04-.34-.44-.12-.77-.13-1.53-.02-1.63.14-.12.4-.03.4.14 0 .07.05.2.1.27.1.13.11.14.29.01.1-.06.26-.12.36-.12.3 0 .16-.27-.2-.39s-.42-.3-.14-.43a4.3 4.3 0 0 1 2.05.06c.4.13.45-.03.07-.21a1.7 1.7 0 0 0-.43-.15c-.07 0-.18-.07-.24-.15-.12-.12-.12-.15 0-.26a.5.5 0 0 1 .3-.12c.12 0 .27-.05.35-.1.13-.1.13-.11-.03-.29-.22-.25-.2-.28.13-.28h.28l-.1.2c-.05.1-.08.23-.06.26.02.03.23.06.47.06.27 0 .42-.03.39-.07-.03-.04-.14-.08-.26-.08-.22 0-.27-.1-.13-.3.05-.08.08-.09.11-.02.06.16.3.11.47-.09.09-.1.18-.16.22-.14.03.02.42.05.86.07Zm2.06.83c.06.18.02.18-.18.02-.17-.14-.17-.14-.02-.14.08 0 .17.05.2.12Zm-1.85.1c-.17.06-.17.06.05.07.13 0 .26-.03.28-.07.05-.08-.06-.08-.33 0ZM8.46 7c-.03.03-.05.12-.05.2 0 .13.12.23.54.44.6.31 1.05.37 1.05.15 0-.2-.48-.56-.9-.66L8.63 7c-.06-.02-.13-.02-.16 0Zm-2.08.54c0 .03.09.08.2.1l.36.1c.26.08.2-.08-.08-.18-.28-.1-.48-.11-.48-.02Zm.87.53a.91.91 0 0 1-.39.08c-.35 0-.32.17.03.2.14.02.32.05.4.09.08.03.24.1.36.13.18.05.22.12.27.39.05.26.04.34-.05.4-.13.1-1.53.13-1.73.03-.08-.04-.12-.03-.12.02s.03.08.08.08c.04 0 .18.08.3.17.18.13.34.17.78.18.3 0 .62.03.7.06.15.05.31.33.31.55 0 .12.02.11.11-.01.08-.1.16-.13.34-.1.23.05.25.03.4-.3.21-.47.21-.65-.01-.8-.1-.07-.19-.18-.19-.24 0-.09.06-.1.28-.07.25.05.26.04.13-.07a.53.53 0 0 0-.28-.11c-.08 0-.27-.14-.43-.31-.38-.4-.98-.57-1.29-.37Zm-2.37.35c-.14.32-.12.36.29.57.58.31.64.25.23-.24a1.25 1.25 0 0 1-.25-.42c0-.18-.18-.12-.27.1Zm2.39.27c-.26.12-.18.32.12.32.18 0 .26-.04.28-.13.03-.18-.2-.28-.4-.19Zm7.05.9c-.1 1.14-.26 1.5-.25.56 0-.64.05-.88.18-.88.07 0 .1.09.07.32Zm-7.43.77c0 .08.04.1.14.07.07-.02.16 0 .18.03.06.1.84.1.84 0 0-.04-.08-.05-.17-.03-.1.03-.31 0-.49-.07-.4-.15-.5-.15-.5 0Zm1.13.47c-.1.17-1.06.48-1.64.53-.55.05-.63.04-.73-.08-.1-.1-.14-.12-.24-.04-.16.12-.08.34.13.38.33.06 1.79-.07 1.85-.18.02-.03.2-.14.39-.26.37-.22.45-.3.35-.37a.08.08 0 0 0-.11.02Zm-3.2.17c-.03.04 0 .13.05.19.1.1.12.1.2 0 .07-.1.06-.13-.06-.2-.1-.05-.16-.05-.2 0Zm1.3-.02c-.01.04 0 .1.04.12.04.03.08 0 .08-.07 0-.13-.05-.15-.11-.04Zm.37 0c-.03.05-.03.12 0 .14.06.07.13-.03.1-.14-.03-.08-.05-.08-.1 0Zm2.08 1.07c-.1.1-.12.74-.02.74.12 0 .3-.39.28-.58-.02-.23-.13-.29-.26-.16Zm-.41 1.93c.02.04-.03.08-.11.08-.09 0-.14-.04-.11-.08.02-.04.07-.07.1-.07.04 0 .1.03.12.07Zm2.72.12c0 .04-.07.08-.15.1-.14.02-.2-.07-.1-.17.08-.07.25-.03.25.07Z" fill="#5180B7"/></svg>