<!-- by TradingView --><svg width="18" height="18" viewBox="0 0 18 18" xmlns="http://www.w3.org/2000/svg"><path fill="#F0F3FA" d="M0 0h18v18H0z"/><path fill-rule="evenodd" d="m9.25 3.16.02.01v2.59c0 .05.02.07.07.06.05 0 .08-.02.08-.08v-2.7a.03.03 0 0 0-.03-.03 8.48 8.48 0 0 0-.95.01l-.29.04-.3.05a6.09 6.09 0 0 0-3.25 1.8 5.9 5.9 0 0 0-1.52 5.14l.07.31.04.14a18.95 18.95 0 0 0 .3.89 6.04 6.04 0 0 0 4.66 3.54c.01 0 .02 0 .02-.02v-.1h-.01l-.3-.07a5.88 5.88 0 0 1-4.6-6.91 5.82 5.82 0 0 1 4.76-4.6 4.38 4.38 0 0 1 1.23-.07Zm-.44 11.7v-3a.03.03 0 0 0 0-.03h-.1c-.02 0-.03 0-.03.03v3.11l.01.02c.2.02.35.01.58 0h.15c.1 0 .2-.02.3-.04l.16-.02c.09 0 .2-.03.33-.05a5.91 5.91 0 0 0 3.45-2.1 6 6 0 0 0-3.7-9.7c-.04 0-.06 0-.06.04v.05c0 .03.02.05.05.05a5.86 5.86 0 0 1 4.79 4.63c.03.13.05.26.06.4l.01.05.03.34.01.25v.24a5.85 5.85 0 0 1-4.82 5.64l-.63.07a10.76 10.76 0 0 0-.58.03ZM8.3 4.05A4.96 4.96 0 0 0 5.73 5.2l-.2.17a4.99 4.99 0 0 0-1.42 4.7 5.07 5.07 0 0 0 2.06 3.07 4.7 4.7 0 0 0 1.92.79v.42c0 .01 0 .01 0 0a5.3 5.3 0 0 1-3.43-2.06A5.44 5.44 0 0 1 3.64 8.1 5.4 5.4 0 0 1 8.72 3.6v2.23H8.3l-.02-.02V4.06h.01a.01.01 0 0 0 0-.01h-.01Zm1.79 9.83-.24.06c-.04.01-.06 0-.06-.04v-2.04c0-.03 0-.04-.03-.04h-.39v2.58l.01.02a5.33 5.33 0 0 0 5.04-5.03v-.7a4.71 4.71 0 0 0-.34-1.63 5.9 5.9 0 0 0-.79-1.42A5.39 5.39 0 0 0 10 3.67a.02.02 0 0 0 0 .01v.4l.01.01a6.58 6.58 0 0 1 1.01.32 5 5 0 0 1 2.92 3.74c0 .07.02.13.03.2l.03.22a5.37 5.37 0 0 1-.27 2.1 5 5 0 0 1-3.46 3.18l-.18.03ZM6.87 8.32l-.03-.15-.33-1.48a.7.7 0 0 0-.16-.3c-.11-.08-.22-.09-.35 0-.08.05-.13.14-.14.27-.04.24 0 .49.08.73a18.87 18.87 0 0 0 .83 1.9l.04.1c.05.11.1.22.12.32.06.23.08.45.06.68 0 .09-.02.16-.04.26l-.02.06-.05.17a.87.87 0 0 1-.33.46.59.59 0 0 1-.67.02l-.2-.12a.15.15 0 0 0-.14.01.34.34 0 0 0-.12.1.58.58 0 0 1-.09.1c-.02.03-.03.02-.03 0v-1.27l-.01-.55v-.06c-.01-.03-.02-.06-.01-.08 0-.04.02-.05.03 0l.09.38a51.61 51.61 0 0 0 .29 1.19c.09.15.22.29.4.3.09 0 .15-.04.2-.1a.6.6 0 0 0 .17-.39l-.06-.4a3.86 3.86 0 0 0-.15-.54 13.44 13.44 0 0 0-.56-1.31 3.72 3.72 0 0 1-.35-1.04c-.02-.1-.03-.23-.03-.38 0-.23.05-.44.13-.62.05-.1.14-.2.27-.29a.6.6 0 0 1 .54-.08c.05.01.09.04.13.07l.1.05c.12.05.23.03.3-.05a4.97 4.97 0 0 1 .1-.07 77.17 77.17 0 0 0 0 2.1c0 .08 0 .08-.01 0Zm1.2 3.15c-.25 0-.5-.28-.67-.77a5.74 5.74 0 0 1-.28-1.88c0-.7.1-1.37.28-1.87.18-.5.42-.77.68-.77.25 0 .5.28.67.77.18.5.29 1.17.29 1.87 0 .7-.1 1.38-.29 1.88-.18.5-.42.77-.67.77Zm.02-5.22h-.02c-.12 0-.23.1-.23.24v4.67c0 .13.1.24.23.24h.02c.13 0 .23-.1.23-.24V6.49c0-.14-.1-.24-.23-.24Zm1.14-.02a.55.55 0 0 1 .16.11v4.92c0 .1-.05.12-.13.14l-.02.01c-.04.01-.04.03 0 .05h.07l.63.01.14-.01.09-.02c.07 0 .13-.02.16-.03a.8.8 0 0 0 .5-.52c.1-.24.15-.48.17-.71l.04-.33.01-.33v-1.4c0-.37-.03-.7-.08-1a1.84 1.84 0 0 0-.16-.5.66.66 0 0 0-.29-.3.88.88 0 0 0-.26-.1l-.13-.02-.2-.02a14.08 14.08 0 0 0-.72.02v.02l.02.01Zm.77.07v5.06l.02.02h.1c.09 0 .18-.04.24-.12.07-.07.1-.18.1-.28V6.67c0-.1-.03-.2-.1-.28a.33.33 0 0 0-.24-.12h-.1l-.01.01-.01.02Zm1.94 4.17h-.57l-.02.01c-.06.35-.09.56-.09.66 0 .11.03.22.07.32v.01H11c-.04 0-.04-.01-.02-.03.1-.1.17-.23.18-.38a391.18 391.18 0 0 1 .39-3.34l.02-.13.02-.17a63.87 63.87 0 0 1 .15-1.23l.03-.01H12.12v.02l.06.48.49 4.54a.6.6 0 0 0 .16.24h-.96c0-.02.02-.04.04-.05a.46.46 0 0 0 .1-.15.3.3 0 0 0 .02-.14l-.02-.17a22.6 22.6 0 0 1-.07-.48Zm-.3-2.59a.02.02 0 0 1 .02-.01c.04.04.06.08.06.13l.23 2.3c0 .03 0 .04-.03.04h-.56c.1-.82.2-1.64.28-2.46Z" fill="#0074BC"/></svg>