<!-- by TradingView --><svg width="18" height="18" viewBox="0 0 18 18" xmlns="http://www.w3.org/2000/svg"><path fill="#F0F3FA" d="M0 0h18v18H0z"/><path d="M16 9c0 2.76-3.13 5-7 5s-7-2.24-7-5 3.13-5 7-5 7 2.24 7 5Z" fill="#915DA3"/><path d="M11.12 11.87c-.58.42-1.38.63-2.38.63A6.87 6.87 0 0 1 6 11.98v-1.62h.2a4.26 4.26 0 0 0 3.46.78c.13-.06.25-.13.34-.2.09-.09.13-.21.13-.37a.48.48 0 0 0-.2-.39c-.13-.1-.32-.19-.57-.24a16 16 0 0 0-.84-.17c-.29-.05-.57-.12-.82-.2a2.62 2.62 0 0 1-1.28-.76 1.79 1.79 0 0 1-.39-1.17c0-.63.3-1.15.89-1.54.58-.4 1.33-.6 2.25-.6a7.31 7.31 0 0 1 2.83.58v1.56h-.2a6.08 6.08 0 0 0-1.32-.68 3.68 3.68 0 0 0-1.7-.2c-.15.03-.3.07-.43.12a.82.82 0 0 0-.32.2.44.44 0 0 0-.13.32c0 .18.07.32.21.42.14.1.41.18.8.26l.75.15c.23.05.49.11.76.2.54.17.94.4 1.2.69.25.3.38.67.38 1.14 0 .66-.29 1.2-.88 1.61Z" fill="#fff"/></svg>