<!-- by TradingView --><svg width="18" height="18" viewBox="0 0 18 18" xmlns="http://www.w3.org/2000/svg"><path fill="#F0F3FA" d="M0 0h18v18H0z"/><path fill-rule="evenodd" d="M15 9A6 6 0 1 1 3 9a6 6 0 0 1 12 0Zm-.63 0A5.37 5.37 0 1 1 3.63 9a5.37 5.37 0 0 1 10.74 0Z" fill="#014A51"/><path d="M13.82 12h-9.3v.6h9.3V12Z" fill="#014A51"/><path fill-rule="evenodd" d="M8.98 5C10.07 5 11 5.7 11 6.9c1.2 0 2 .94 2 2.02A2.1 2.1 0 0 1 10.88 11c-.35 0-.67-.08-.95-.22a2.15 2.15 0 0 1-1.88.01c-.28.14-.6.21-.93.21A2.1 2.1 0 0 1 5 8.92c0-1.06.8-2.07 2-2.07C7 5.65 7.88 5 8.98 5Zm1.98 2.4c.9 0 1.46.7 1.46 1.59 0 .6-.55 1.39-1.45 1.39-.37 0-.7-.12-.98-.32a1.63 1.63 0 0 1-1.97-.01c-.27.2-.62.33-1 .33-.9 0-1.39-.84-1.39-1.4 0-.88.62-1.58 1.52-1.58.13 0 .45.02.57.05a1.6 1.6 0 0 1-.05-.42c0-.89.43-1.43 1.33-1.43.9 0 1.32.53 1.33 1.42 0 .8-.43.97-1.12 1.11-.11.02-.21.17-.21.28 0 .1.1.2.21.19.87-.1 1.44-.43 1.75-1.2Z" fill="#014A51"/><path d="M9.3 10.5h-.6v2.1h.6v-2.1Z" fill="#014A51"/></svg>