<!-- by TradingView --><svg width="18" height="18" viewBox="0 0 18 18" fill="none" xmlns="http://www.w3.org/2000/svg">
<rect width="18" height="18" fill="#F0F3FA"/>
<path fill-rule="evenodd" clip-rule="evenodd" d="M12.0146 13C14.2224 13 16 11.2136 16 9.01C16 6.80638 14.2224 5 12.0146 5C10.57 5 9.15625 5.7 8.45312 7C8.90625 6.5625 9.85684 5.7 11.5312 5.7C13.4062 5.7 14.8 7.21976 14.8 9.12789C14.8 11.036 13.31 12.5 11.315 12.5C10.5601 12.5 9.86156 12.3416 9.29265 11.9322C10.0063 12.5947 10.963 13 12.0146 13Z" fill="#BEBEBF"/>
<path fill-rule="evenodd" clip-rule="evenodd" d="M11.2693 6.29999C10.6461 6.29999 10.1406 6.46874 9.59375 6.8689C11.2693 6.29999 12.8 7.1945 12.8 8.80387C12.8 10.125 11.7969 11 10.6094 11C9.23438 11 8.28125 9.95312 8.04445 8.59374C8.03572 8.68682 8 8.78113 8 8.8765C8 10.465 9.20312 12 11 12C12.6516 12 14 10.8245 14 9.04122C14 7.42045 12.7229 6.29999 11.2693 6.29999Z" fill="#BEBEBF"/>
<path fill-rule="evenodd" clip-rule="evenodd" d="M3.92204 7C4.23098 7 4.52202 7.09346 4.81755 7.22135C4.93342 7.2715 5 7.39299 5 7.51042C5 7.74219 4.79147 7.90523 4.53766 7.80839C4.34066 7.73323 4.07682 7.61538 3.86563 7.61538C3.43447 7.61538 3.2 7.74038 3.2 8.125C3.2 8.36458 3.39942 8.4446 3.60313 8.51923C4.19344 8.73549 4.7 9.02773 4.7 9.72115C4.7 10.5469 4.16563 11 3.275 11C2.8262 11 2.4449 10.8021 2.14335 10.5469C2.05576 10.4727 2 10.3698 2 10.2917C2 10.2232 2.02102 10.1661 2.05474 10.1172C2.08262 10.0822 2.11984 10.0268 2.14335 9.9974C2.20162 9.92447 2.28149 9.86979 2.37272 9.86979C2.43302 9.87093 2.47316 9.89507 2.52621 9.93229C2.7298 10.1172 2.89761 10.3846 3.33145 10.3846C3.76529 10.3846 3.97087 10.1281 4.01 9.86979C4.04913 9.61143 3.91135 9.3582 3.52813 9.24038C2.98599 9.07372 2.51 8.75962 2.51 8.125C2.51 7.31714 3.18372 7 3.92204 7Z" fill="#C41522"/>
<path fill-rule="evenodd" clip-rule="evenodd" d="M9.21218 7.61538L8.93381 8.84615H9.49242C9.99237 8.84615 10.3191 8.62142 10.3212 8.13542C10.3222 7.88186 10.162 7.61538 9.79077 7.61538H9.21218ZM8.81618 9.46154H9.32402C10.3572 9.46154 11 8.89704 11 8.04808C11 7.375 10.6858 7 9.92336 7H8.87187C8.72227 7 8.59326 7.09917 8.56304 7.23741L7.80666 10.6424C7.8019 10.6642 7.79978 10.6858 7.80008 10.707C7.80005 10.8654 7.93932 11 8.1155 11H8.17142C8.32185 11 8.48507 10.8998 8.51442 10.7606L8.81618 9.46154Z" fill="#C41522"/>
<path fill-rule="evenodd" clip-rule="evenodd" d="M6.40369 7.61538H5.70717C5.53754 7.61538 5.40002 7.47585 5.40002 7.30769C5.40002 7.13954 5.53754 7 5.70717 7H7.85717C8.0268 7 8.16431 7.13954 8.16431 7.30769C8.16431 7.47585 8.0268 7.61538 7.85717 7.61538H7.09253L6.44421 10.7564C6.41501 10.8982 6.28922 11 6.14328 11H6.05543C5.87395 11 5.74651 10.8631 5.74556 10.7018C5.74543 10.679 5.74997 10.6557 5.75501 10.6322L6.40369 7.61538Z" fill="#C41522"/>
</svg>
