<!-- by TradingView --><svg width="18" height="18" viewBox="0 0 18 18" xmlns="http://www.w3.org/2000/svg"><path fill="#F0F3FA" d="M0 0h18v18H0z"/><path d="M8.2 4.03a6.28 6.28 0 0 1 1.7.05 3.4 3.4 0 0 1 1.99 1.02c.37.4.57.9.69 1.42.05.27.07.55.1.82v.16h-2.03l-.13-.67-.03-.12c-.1-.45-.4-.67-.78-.79a2.77 2.77 0 0 0-2 .08c-.26.11-.47.3-.52.6-.07.43.03.7.35.89.25.14.53.2.8.27.82.2 1.65.39 2.47.6.48.13.95.3 1.36.63.62.41.7.94.7.94.04.2.09.36.1.54.14 1.23-.26 2.28-1.33 2.91-.58.34-1.22.53-1.88.59a6.6 6.6 0 0 1-2.53-.23 3.22 3.22 0 0 1-1.25-.68s-.2-.16-.32-.32A4.37 4.37 0 0 1 5 10.3h2.06s-.08 1.64 1.12 1.8c.52.13 1.04.12 1.56.04.32-.05.63-.14.9-.36.32-.28.39-.83.12-1.16 0 0-.33-.4-1.2-.53l-.23-.06c-.79-.2-1.58-.39-2.36-.6a2.8 2.8 0 0 1-.93-.46 2 2 0 0 1-.82-1.27c-.11-.6-.11-1.19.1-1.76.26-.72.74-1.2 1.39-1.52a4.3 4.3 0 0 1 1.5-.4Z" fill="#253B95"/></svg>