<!-- by TradingView --><svg width="18" height="18" viewBox="0 0 18 18" xmlns="http://www.w3.org/2000/svg"><path fill="#FA9900" d="M0 0h18v18H0z"/><path d="M8.12 6.45c.13-.51.35-.98.67-1.39A.15.15 0 0 1 8.91 5c.05 0 .1.02.12.06.34.42.62.87.85 1.35.03.08.09.12.16.13l.38.06c.24.04.43.19.57.44.1.18.16.37.18.57.03.29-.07.39-.3.3-.34-.13-.6-.17-.76-.13-.5.13-.53.36-.1.68.77.57 1.58.65 2.44.24a.34.34 0 0 0 .15-.14.47.47 0 0 0 0-.45.32.32 0 0 0-.16-.14c-.23-.1-.44-.28-.61-.55a.33.33 0 0 1-.05-.23.28.28 0 0 1 .12-.2c.4-.27.89-.2 1.48.22.07.04.13.04.2 0 1.01-.7 1.82-.5 2.4.62.02.05.03.1 0 .15-.01.04-.04.07-.09.08l-.38.01c-.29 0-.5.03-.63.07-.22.07-.4.2-.55.42a.32.32 0 0 0-.05.26c.08.35-.01.6-.28.73a.32.32 0 0 0-.15.18.42.42 0 0 0 0 .25l.15.6c.03.1.02.17-.03.25-.18.33-.62.6-1.31.78a11.52 11.52 0 0 1-1.72.28c-1.84.2-3.69.12-5.54-.25a3.3 3.3 0 0 1-1.05-.35c-.41-.26-.53-.6-.36-1.03.12-.3.07-.56-.15-.77l-.16-.15c-.07-.07-.1-.16-.08-.26.04-.21.03-.4-.04-.58a.33.33 0 0 0-.14-.18c-.34-.2-.7-.27-1.08-.2-.32.04-.41-.11-.28-.47a1.32 1.32 0 0 1 .96-.8c.45-.08.89.03 1.31.34.08.06.16.06.24 0 .5-.35.95-.44 1.34-.26.1.05.16.13.18.25a.4.4 0 0 1-.07.32c-.15.2-.32.35-.51.46a.48.48 0 0 0-.25.37c-.01.07 0 .14.03.21.03.07.07.12.13.15 1.02.46 1.93.32 2.71-.43.07-.07.1-.15.07-.25-.02-.1-.07-.16-.16-.18-.26-.05-.52 0-.76.16a.2.2 0 0 1-.24-.01c-.08-.06-.12-.14-.13-.25-.01-.28.04-.53.15-.75.12-.25.29-.37.5-.38.14 0 .28 0 .42-.02.07 0 .12-.04.14-.13Zm-4 2.03.12.15c.05.05.1.08.17.09.12 0 .18.05.16.14-.1.04-.25 0-.43-.08a.23.23 0 0 0-.17-.02c-.08.02-.13.09-.13.2-.01.09.01.17.07.23.1.1.2.17.34.21.1.04.14.12.12.24l-.05.56c-.02.12.03.16.12.12.48-.2.92-.31 1.33-.36.5-.06 1-.15 1.5-.25.42-.09.82-.13 1.2-.14l1.3.01a.3.3 0 0 0 .22-.1c.07-.07.13-.05.16.06.03.09.09.13.17.13 1.01.01 2 .18 2.99.5.06.02.1.01.16-.03.04-.04.07-.1.07-.17v-.39c0-.12.05-.19.15-.21.1-.03.18-.08.25-.16a.21.21 0 0 0 .05-.2l-.07-.3a.27.27 0 0 1 .04-.22c.4-.56.87-.8 1.39-.72.08.01.13-.03.13-.13.01-.15-.04-.26-.15-.31-.67-.36-1.26-.24-1.75.36-.07.1-.14.09-.21 0-.31-.4-.66-.58-1.06-.55a.11.11 0 0 0-.09.06.17.17 0 0 0-.03.11c.01.08.04.14.1.18.4.25.7.59.9 1.03.08.16.06.2-.08.1a.2.2 0 0 0-.07-.03c-.06-.01-.1 0-.15.06-.35.43-.78.66-1.3.69-.4.02-.9-.07-1.46-.29a.34.34 0 0 0-.2-.01c-.24.06-.53-.08-.85-.43a.15.15 0 0 0-.11-.06.15.15 0 0 0-.11.05c-.24.25-.5.46-.8.64-.08.05-.1.03-.04-.06a.65.65 0 0 1 .2-.2c.22-.14.39-.33.52-.57.05-.1.13-.15.23-.15s.17.05.22.15c.12.21.27.37.46.47.11.06.13.03.07-.1-.18-.36-.3-.76-.35-1.2-.27-.3-.54-.28-.82.03-.08.63-.28 1.07-.6 1.31a2.6 2.6 0 0 1-1.05.38 2.04 2.04 0 0 1-1.86-.52.53.53 0 0 1-.17-.36.58.58 0 0 1 .1-.4c.15-.21.34-.36.55-.46a.27.27 0 0 0 .15-.17l.02-.06a.16.16 0 0 0 0-.12c-.02-.04-.05-.06-.08-.06-.43-.05-.8.14-1.12.56-.06.07-.11.07-.17 0-.39-.5-.9-.68-1.51-.51a.7.7 0 0 0-.4.29.26.26 0 0 0-.03.07.17.17 0 0 0 .02.16c.03.05.07.07.12.06.5-.11.95.1 1.35.66.06.1.15.1.26.04Z" fill="#010101" fill-opacity=".98"/><path d="M9.65 6.88c.33-.05.62-.02.88.1a.5.5 0 0 1 .17.15c.04.07.07.12.07.17 0 .08-.03.12-.1.13L9.5 7.5a.19.19 0 0 1-.15-.06c-.3-.32-.6-.29-.92.1-.05.06-.1.07-.16.04-.3-.16-.6-.18-.9-.07-.05.02-.1.01-.13-.03a.19.19 0 0 1-.04-.17l.02-.13c.04-.2.13-.29.3-.28l.81.01c.04 0 .07-.01.1-.05a.17.17 0 0 0 .02-.12c-.07-.46.05-.87.36-1.24.05-.05.1-.06.16-.01.29.24.47.54.54.89.02.06.01.12 0 .18a.47.47 0 0 0-.02.13c0 .14.05.2.16.18Z" fill="#FFCE05"/><path d="m8.55 7.6.17.17c-.03.1.03.17.16.2.14.02.27-.03.37-.16.02-.03.02-.05-.01-.07a.12.12 0 0 0-.06 0c.07 0 .13-.05.19-.15.05.43.17.83.35 1.2.06.12.04.15-.07.1-.2-.11-.34-.27-.46-.48-.05-.1-.13-.15-.22-.15-.1 0-.18.05-.23.15-.13.24-.3.43-.52.57a.65.65 0 0 0-.2.2c-.05.09-.04.1.04.06.3-.18.56-.39.8-.64a.15.15 0 0 1 .11-.05c.04 0 .08.02.11.06.32.35.6.5.86.43a.34.34 0 0 1 .2.01c.56.22 1.04.31 1.44.29.53-.03.96-.26 1.31-.69.04-.05.1-.07.15-.06a.2.2 0 0 1 .07.03c.14.1.16.06.09-.1a2.48 2.48 0 0 0-.9-1.03.22.22 0 0 1-.1-.18c-.01-.04 0-.08.02-.11a.11.11 0 0 1 .09-.06c.4-.03.75.15 1.06.55.07.09.14.1.2 0 .5-.6 1.09-.72 1.76-.36.11.05.16.16.15.3 0 .1-.05.15-.13.14-.52-.08-.99.16-1.39.72a.27.27 0 0 0-.04.23L14 9c.02.08 0 .16-.05.21a.58.58 0 0 1-.25.16c-.1.02-.14.1-.15.21v.39c0 .07-.03.13-.07.17-.05.04-.1.05-.16.04a9.76 9.76 0 0 0-3-.5c-.07 0-.13-.05-.16-.14-.03-.11-.09-.13-.16-.06a.3.3 0 0 1-.22.1h-1.3c-.38 0-.78.04-1.2.13-.5.1-1 .19-1.5.25-.4.05-.85.17-1.33.36-.1.04-.14 0-.12-.12l.05-.56c.02-.12-.03-.2-.12-.24a.85.85 0 0 1-.34-.21.3.3 0 0 1-.07-.23c0-.11.05-.18.13-.2a.23.23 0 0 1 .17.02c.18.09.33.12.43.08l.02-.3a.43.43 0 0 0 .03-.12c0-.1-.03-.15-.1-.17-.13-.03-.22.01-.29.13-.01.04-.05.07-.1.08-.11.06-.2.05-.26-.04-.4-.55-.85-.77-1.35-.66-.05 0-.1-.01-.12-.06a.17.17 0 0 1-.02-.16c0-.03.02-.05.03-.07a.7.7 0 0 1 .4-.29c.62-.17 1.12 0 1.51.5.06.08.11.08.17 0 .32-.4.7-.6 1.12-.55.03 0 .06.02.08.06.02.04.02.08 0 .12l-.02.06a.27.27 0 0 1-.15.17c-.21.1-.4.25-.55.46a.58.58 0 0 0-.1.4c.01.15.07.27.17.36.51.48 1.14.65 1.86.52a2.6 2.6 0 0 0 1.05-.38c.32-.24.52-.68.6-1.31Zm5 1.13a.16.16 0 0 1-.15.04c-.08-.01-.1.01-.03.08.08.1.17.05.28-.15a.33.33 0 0 0 .02-.24c-.03-.14-.12-.2-.24-.2-.1.01-.1.05-.03.12l.15.14c.08.07.08.14 0 .2Z" fill="#FFCE05"/><path d="M9.37 7.59c-.06.1-.12.15-.19.14l-.46.04-.17-.16c.28-.31.55-.32.82-.02Z" fill="#FDE0A0"/><path d="m8.72 7.77.46-.04.06.01c.03.02.03.04.01.07-.1.13-.23.18-.37.15-.13-.02-.19-.08-.16-.19ZM4.59 8.57a.5.5 0 0 0-.36-.17c.07-.12.16-.16.28-.13.08.02.11.08.1.17 0 .04 0 .08-.02.13ZM13.55 8.52l-.15-.14c-.07-.07-.06-.1.03-.12.12 0 .2.06.24.2.03.08.02.16-.02.24-.1.2-.2.25-.28.15-.06-.07-.05-.1.03-.08.06.02.11 0 .16-.04.07-.07.07-.14 0-.21Z" fill="#010101"/><path d="M4.23 8.4a.5.5 0 0 1 .36.17l-.02.29c.02-.09-.04-.13-.16-.14a.22.22 0 0 1-.17-.1l-.11-.14c.05-.01.09-.04.1-.08ZM6.8 10.34c.01.08-.01.14-.08.16-.25.07-.5.1-.76.07-.07 0-.13.01-.2.05a1.6 1.6 0 0 1-.87.2c-.05 0-.1.01-.15.04a.11.11 0 0 0-.04.05.15.15 0 0 1-.1.09c-.16.05-.26-.01-.3-.17a.28.28 0 0 1 .02-.23c.05-.08.1-.11.18-.1.26 0 .51-.04.76-.15.21-.08.44-.14.68-.17.47-.05.9-.12 1.28-.2.05-.01.07.01.08.07 0 .09.04.1.09.04a.15.15 0 0 0 .03-.06c.01-.05.04-.07.08-.07.75-.06 1.5-.08 2.29-.08.33 0 .65.05.96.12.05.02.1 0 .14-.03a.12.12 0 0 1 .1-.02c.43.08.86.15 1.3.2.1 0 .14.06.15.17v.12c0 .06 0 .1-.04.13a.1.1 0 0 1-.1.04 7.37 7.37 0 0 0-1.87-.31 33.15 33.15 0 0 0-3.05.05c-.15.01-.3.05-.45.1-.04.02-.08 0-.12-.03a.1.1 0 0 1-.02-.08ZM12.54 10.31l-.01-.01c-.02-.01-.02-.02 0-.03.2-.1.35-.07.48.1.06.08.06.16.03.26-.04.09-.1.13-.19.11-.19-.02-.29-.15-.29-.37a.1.1 0 0 0-.02-.06ZM13.25 10.89a.14.14 0 0 1-.07-.09.35.35 0 0 1 0-.23.3.3 0 0 1 .12-.15c.06-.03.11-.05.17-.05.07 0 .12.03.16.1.04.06.05.14.02.21-.07.22-.2.29-.4.2Z" fill="#FDE0A0"/><path d="M5.32 11.42c-.5-.07-.51-.18-.01-.32l.23-.1c.13-.06.23-.1.32-.11 1.2-.26 2.4-.38 3.62-.38 1.2 0 2.38.17 3.54.51.14.04.15.1.02.2-.16.11-.35.18-.55.21-2.3.36-4.7.35-7.17 0Z" fill="#F46121"/></svg>