<!-- by TradingView --><svg width="18" height="18" viewBox="0 0 18 18" xmlns="http://www.w3.org/2000/svg"><path fill="#005AF9" d="M0 0h18v18H0z"/><path d="M11.2 8.44c-.46-.17-1.05-.35-1.78-.53-.54-.12-.97-.25-1.26-.35-.27-.1-.5-.22-.68-.37-.15-.12-.2-.28-.2-.49 0-.27.11-.47.4-.62.3-.18.77-.26 1.37-.26.53 0 .96.1 1.26.29.27.16.4.4.4.72v.73h2.06v-.69a2.5 2.5 0 0 0-1.05-2.13A4.57 4.57 0 0 0 9.01 4c-1.12 0-2.03.24-2.72.7A2.53 2.53 0 0 0 5.22 6.9c0 .61.18 1.13.53 1.51.34.38.75.66 1.22.82.42.17 1.01.34 1.71.52.56.13 1 .26 1.33.37.5.17.99.5.99 1.01 0 .87-1.26 1.04-2 1.04-.64 0-1.15-.1-1.5-.32A.98.98 0 0 1 7 11v-.54H5v.51c0 .99.37 1.75 1.09 2.28.7.5 1.67.76 2.9.76 1.24 0 2.2-.25 2.9-.75.74-.51 1.11-1.33 1.11-2.43 0-.63-.2-1.15-.56-1.55a3.58 3.58 0 0 0-1.25-.83Z" fill="#fff"/></svg>