<!-- by TradingView --><svg width="18" height="18" viewBox="0 0 18 18" xmlns="http://www.w3.org/2000/svg"><path fill="#F0F3FA" d="M0 0h18v18H0z"/><path d="m11.55 10.67 3.13-3.43c.14-.16.23-.28.27-.35a.64.64 0 0 0-.03-.57.55.55 0 0 0-.46-.32c-.03 0-.08 0-.15.02l-.03.01-.03.01a.2.2 0 0 0-.04.02.7.7 0 0 0-.18.12l-3.24 3.55a1.61 1.61 0 0 1-1.04.5 1.7 1.7 0 0 1-1.24-.36l-.05-.04-.06-.06a1 1 0 0 0-.2-.19c-.26-.18-.57-.1-.76.15a.66.66 0 0 0-.05.67.97.97 0 0 0 .29.33l.07.08c.41.35.86.57 1.35.65a2.66 2.66 0 0 0 1.99-.43l.12-.07a.22.22 0 0 0 .03-.04.17.17 0 0 1 .07-.04l.02-.02a.21.21 0 0 1 .06-.05 1.3 1.3 0 0 0 .13-.12.1.1 0 0 0 .03-.02ZM8.8 6.53h-.02a1.23 1.23 0 0 0-.21-.03 2.82 2.82 0 0 0-1.86.61l-.02.03a.36.36 0 0 0-.1.07.1.1 0 0 1-.02.02.11.11 0 0 0-.03.02l-3.37 3.7a.59.59 0 0 0-.12.17.65.65 0 0 0 .02.55c.05.1.17.23.26.27a.5.5 0 0 0 .53-.03l.02-.02c.02 0 .03-.01.05-.03a4717.5 4717.5 0 0 1 3.43-3.74l.06-.03a.2.2 0 0 1 .03-.03c.02 0 .04-.02.06-.04l.08-.05a1.72 1.72 0 0 1 1.98.24l.06.05.06.06c.18.2.4.26.63.15a.36.36 0 0 0 .1-.05l.03-.03a.25.25 0 0 0 .1-.11l.01-.02a.2.2 0 0 0 .05-.06c.09-.2.09-.4 0-.6-.05-.09-.13-.17-.2-.25l-.04-.04-.04-.03a.16.16 0 0 1-.05-.04.25.25 0 0 0-.09-.07l-.02-.02a2.41 2.41 0 0 0-.9-.5 3.07 3.07 0 0 0-.47-.12Z" fill="#3801FF"/></svg>