<!-- by TradingView --><svg width="18" height="18" viewBox="0 0 18 18" xmlns="http://www.w3.org/2000/svg"><path fill="#A50006" d="M0 0h18v18H0z"/><path d="M9.5 3.36c-.34-.34-.68-.5-1.11-.2a5295.04 5295.04 0 0 1-5.26 5.43c-.19.18-.17.2.04.06l6.9-4.72v-.01a.03.03 0 0 0 .01-.02v-.01c-.16-.14-.35-.31-.57-.53Zm1.24 1.19-3.77 4.4V9h.01L7 9h7.99l.02-.01a.03.03 0 0 0 0-.03l-.14-.25V8.7l-4.09-4.15a.02.02 0 0 0-.03 0Zm3.8 5.06c.09-.05.1-.04.03.04l-4.75 4.9c-.26.35-.86.66-1.23.27a36.63 36.63 0 0 0-1.26-1.21.06.06 0 0 1 .02-.05l7.19-3.95Zm-5.32.2-5.62.25a.03.03 0 0 0-.02.02.03.03 0 0 0 0 .03l2.83 2.65a.03.03 0 0 0 .02 0h.02l2.79-2.9a.03.03 0 0 0 0-.03.03.03 0 0 0-.02-.01Z" fill="#fff"/></svg>