<!-- by TradingView --><svg xmlns="http://www.w3.org/2000/svg" width="18" height="18"><path fill="#C4161C" d="M0 0h18v18H0z"/><path d="M7 9.66V3.6c0-.27.1-.71 1.06-.58 1.21.17 3.74.75 5.75 3.39.25.3.45.96-.75 1.08-1.5.15-4.3 1.01-6.06 2.17zm4-1.32v6.06c0 .26-.1.71-1.06.58a8.57 8.57 0 01-5.75-3.39c-.25-.3-.45-.96.75-1.08 1.5-.15 4.3-1.01 6.06-2.17z" fill="url(#acene1jxx)"/><defs><linearGradient id="acene1jxx" x1="9" y1="4.05" x2="9" y2="13.98" gradientUnits="userSpaceOnUse"><stop stop-color="#fff"/><stop offset=".51" stop-color="#fff" stop-opacity=".45"/><stop offset="1" stop-color="#fff"/></linearGradient></defs></svg>