<!-- by TradingView --><svg width="18" height="18" viewBox="0 0 18 18" xmlns="http://www.w3.org/2000/svg"><path fill="#F0F3FA" d="M0 0h18v18H0z"/><path d="M4.18 10.33a5 5 0 0 1-.17-1.63c.75.56 1.53 1.1 2.38 1.55a9.78 9.78 0 0 0-2.21.08Zm6.15 1.15c.66.39 1.3.84 1.92 1.32.46-.4.85-.87 1.14-1.4a12.72 12.72 0 0 1-3.06.08ZM9 14c.28 0 .54-.02.8-.06-1.67-1.32-3.3-2.52-5.35-2.86A5 5 0 0 0 9 14Zm-1.81-3.17c-.72-.11-1.42-.15-2.09-.11 2.03.5 3.63 1.75 5.32 3.08.51-.16 1-.4 1.43-.7-1.44-1.08-2.89-2-4.67-2.27ZM9 4a5 5 0 0 0-4.93 4.14c2.46 1.87 5.18 3.5 9.57 2.72A5 5 0 0 0 9 4Z" fill="url(#a)"/><defs><linearGradient id="a" x1="10.7" y1="4.24" x2="7.83" y2="13.09" gradientUnits="userSpaceOnUse"><stop offset=".04" stop-color="#fff"/><stop offset=".24" stop-color="#FDF3CF"/><stop offset=".56" stop-color="#FBDB6C"/><stop offset=".75" stop-color="#FBD244"/><stop offset="1" stop-color="#FBA444"/></linearGradient></defs></svg>