<!-- by TradingView --><svg width="18" height="18" fill="none" xmlns="http://www.w3.org/2000/svg"><path fill="#F0F3FA" d="M0 0h18v18H0z"/><path fill-rule="evenodd" clip-rule="evenodd" d="M9 14.346c3.107 0 5.4-2.293 5.4-5.4s-2.293-5.4-5.4-5.4-5.4 2.293-5.4 5.4 2.293 5.4 5.4 5.4Zm0 .6a6 6 0 1 0 0-12 6 6 0 0 0 0 12Z" fill="#0B61A8"/><path d="M7.382 8.968c1.142-1.73 1.571-4.86 1.567-6.022.059 1.045.38 3.578 1.193 5.356.814 1.777 2.836 3.377 3.567 4.21-1.496-.65-2.43-1.492-4.74-1.492-2.311 0-4.042.887-4.697 1.363.612-.542 1.969-1.684 3.11-3.415Z" fill="#075EAC"/><path d="m8.972 7.108-1.514 3.406h3.069L8.972 7.107Z" fill="#E1221D"/><path d="m8.797 9.209-.532.24.532.175.183.59.174-.59.466-.174-.466-.241-.174-.657-.183.657Z" fill="#F4F618"/><path fill="#075EAC" fill-opacity=".7" d="M7 12h4v1H7z"/></svg>