<!-- by TradingView --><svg width="18" height="18" viewBox="0 0 18 18" xmlns="http://www.w3.org/2000/svg"><path fill="#F0F3FA" d="M0 0h18v18H0z"/><path d="M4.05 7.07c.27.24.7.62 1.95.75.96.1 2.8-.5 3.99-1.34A8.05 8.05 0 0 0 6.4 4.47c1.5.2 2.86.84 3.92 1.74.82-.7 1.13-1.52.1-2.21.46.08 1.41.68 1.08 1.4-.15.33-.48.7-.9 1.06.63.61 1.14 1.32 1.49 2.09a3.3 3.3 0 0 0 1.02-1.76 2.48 2.48 0 0 0-1.34-2.56c1.86.68 1.96 1.66 1.88 2.56a3.34 3.34 0 0 1-1.36 2.27c.18.54.28 1.09.29 1.65.61-.49.94-.92 1.07-1.13.27-.44-.1-.77-.27-.93.43.19.76.62.54 1.16a4.08 4.08 0 0 1-1.5 1.77A3.82 3.82 0 0 1 9.1 14a4.27 4.27 0 0 0 2.6-2 8.47 8.47 0 0 1-2.87.84c-.22 0-.22-.42 0-.47 1.4-.3 2.43-.78 3.19-1.26l.03-.37c0-.45-.07-.9-.2-1.35a10.7 10.7 0 0 1-5.13 1.59c-1.49 0-2.22-.3-2.4-.45-.2-.36.2-.32.54-.23.8.23 1.6.23 1.86.23a8.82 8.82 0 0 0 4.96-1.62 6.98 6.98 0 0 0-1.43-2.17 7.2 7.2 0 0 1-3.92 1.38c-.71 0-2.06-.17-2.33-1.1l.05.05Z" fill="url(#aasynrbox)"/><defs><linearGradient id="aasynrbox" x1="4.54" y1="9.12" x2="15.27" y2="9.12" gradientUnits="userSpaceOnUse"><stop stop-color="#9892E1"/><stop offset=".36" stop-color="#271CC1"/><stop offset=".55" stop-color="#6961D5"/><stop offset=".79" stop-color="#0E00B8"/><stop offset="1" stop-color="#9892E1" stop-opacity="0"/></linearGradient></defs></svg>