<!-- by TradingView --><svg width="18" height="18" viewBox="0 0 18 18" xmlns="http://www.w3.org/2000/svg"><path fill="#F0F3FA" d="M0 0h18v18H0z"/><path d="M14.3 10.76h.18C14.12 7.51 11.64 5 8.63 5c-3 0-5.49 2.51-5.85 5.76h.19c.36-3.13 2.76-5.55 5.66-5.55 2.9 0 5.3 2.42 5.66 5.55Zm-.2 0c-.35-3.02-2.67-5.35-5.47-5.35s-5.12 2.33-5.48 5.35h.19c.36-2.9 2.6-5.14 5.3-5.14 2.7 0 4.92 2.24 5.28 5.14h.19Z" fill="#61A040"/><path d="M4.58 11.8c-.6.16-1.97.2-2.58.2a4.85 4.85 0 0 0 1.84-1.03v-.41h.19v.41l.73-.82v-.62h.19v.41l.55-.2c-.15.16-.06.48 0 .61l-.55.83a3.2 3.2 0 0 1 1.47-.62c.37 0 .74.62 1.47.62.6 0 1.23-.14 1.48-.2l-.74.6c-.37-.06-1.25-.2-1.84-.2-.74 0-1.47.2-2.21.41Z" fill="#159D4D"/><path d="M7.53 10.76h1.29c-.56 0-1.3-1.85-1.66-1.85-.37 0-.19.2-.74.41-.55.2-.55.42-.55.62s.55 0 .92.41c.3.33.61.41.74.41Z" fill="#66BC50"/><path d="M7.71 9.12c.44.16 1.17.89 1.47 1.23A8.54 8.54 0 0 1 9 8.3c0 .14.07.5.37.83.3.33.37.96.37 1.23 0-.5.98-.89 1.47-1.03-.44-.33-1.17-.82-1.47-1.03l.37.62a6.78 6.78 0 0 0-1.3-1.03c-.14 0-.8.83-1.1 1.24Z" fill="#119E4A"/><path d="M10.1 12c-.29-.16-.85-.34-1.1-.41l.55-.41.56.82Z" fill="#66BC50"/><path d="M10.66 11.8c-.3-.17-.74-.49-.92-.62l.55.82h2.21c-.18-.07-.55-.25-.55-.41 0-.17.37-.07.55 0-.18-.14-.52-.45-.37-.62.19-.2.74.2 1.1.41.3.17.99.48 1.3.62H16c-.74 0-1.41-.41-1.66-.62v-.2h-.18v.2l-.37-.2v-.83h-.18v.62l-.37-.2v-.62h-.19v.4l-.73-.6.36.6c-.18 0-.73-1.02-.92-1.02h-.73c-.3 0-.73.73-.92 1.07h1.1c.3 0 .5.23.55.37a.78.78 0 0 0-.55-.2c-.3 0-.86.27-1.1.4l.55.62Z" fill="#73B95B"/><path d="M9.37 6.85 7.53 8.71c-.07-.07-.28-.03-.37-.03-.15 0-.3.1-.37.23l-1.66.41 1.48-.4-1.66-.21H6.6L5.5 8.09l1.29.41-.92-.82 1.1.61-.73-.82.92.62-.55-1.03.73 1.03-.37-1.24.46 1.24.1-1.44v1.44l.73-1.44-.55 1.44 1.1-1.44-.92 1.44 1.48-1.24Z" fill="#FB6E2E"/></svg>