<!-- by TradingView --><svg width="18" height="18" viewBox="0 0 18 18" xmlns="http://www.w3.org/2000/svg"><path fill="#F0F3FA" d="M0 0h18v18H0z"/><path d="M8.36 8.4C8.12 8.9 8 9.46 8 10.04v4.35c0 .1.02.21.06.3.05.1.1.17.18.23.08.05.16.08.25.08s.17-.03.25-.08l3.02-2.17c.38-.28.7-.67.92-1.14.32-.71.4-1.55.24-2.34a3.15 3.15 0 0 0-1.15-1.89 2.1 2.1 0 0 0-1.87-.35c-.64.19-1.19.68-1.54 1.37Zm2.56 2.54a.7.7 0 0 1-.47.14.75.75 0 0 1-.45-.21c-.14-.13-.23-.3-.29-.5-.05-.19-.06-.4-.01-.6.04-.2.13-.38.25-.51A.77.77 0 0 1 10.4 9a.7.7 0 0 1 .47.1c.15.09.28.23.36.41a1.22 1.22 0 0 1 .08.8c-.03.12-.07.25-.14.36-.07.1-.15.2-.25.26Z" fill="#4ABFE6"/><path d="M10.92 10.94a.68.68 0 0 1-.63.1.78.78 0 0 1-.3-.17 1 1 0 0 1-.21-.3 1.27 1.27 0 0 1 0-1.06c-.19.4-.62.4-.93.67-.31.27-.48.62-.85.69v2.18l2.92-2.1Z" fill="#48B3CC"/><path d="M10 3.63c0-.11 0-.22-.06-.31a.61.61 0 0 0-.22-.24.58.58 0 0 0-.6 0L5.5 5.26c-.45.28-.83.67-1.1 1.14a3.21 3.21 0 0 0 .63 3.91 2.98 2.98 0 0 0 2.58.71A3.1 3.1 0 0 0 10 7.95V3.63ZM6.68 8.94a1 1 0 0 1-.4-.27 1.06 1.06 0 0 1-.25-.95.98.98 0 0 1 .72-.76c.2-.05.4-.04.58.03.22.11.4.3.49.54.09.23.1.5.02.74s-.25.44-.46.56a.97.97 0 0 1-.7.11Z" fill="#60DF52"/><path d="M7.77 8.5A3.5 3.5 0 0 1 10 6.95v-2l-3.5 2.1c.2-.12.42-.17.65-.14.23.03.33.17.5.34a1.06 1.06 0 0 1 .1 1.3v-.01l.02-.01a.04.04 0 0 0 0-.03Z" fill="#68D35E"/></svg>