<!-- by TradingView --><svg width="18" height="18" viewBox="0 0 18 18" xmlns="http://www.w3.org/2000/svg"><path fill="#F0F3FA" d="M0 0h18v18H0z"/><path fill-rule="evenodd" d="M11.89 12.15 5.3 14.97c-.06.03-.2.06-.27-.02-.08-.1-.01-.22.05-.28l3.87-3.6-3.3-1.88c-.13-.05-.15-.2-.06-.28l6-5.86c.13-.1.4-.03.4.13V6.3c0 .06-.1.13-.17.16l-3.4 1.6 3.51 3.8c.1.09.07.23-.05.28ZM7.1 8.12l4.38-4.26v2.2L7.11 8.11Zm-.94.81 4.3 2.19-2.62-2.87-1.68.68Zm3.4 2.34-2.89 2.64 4.46-2.02-1.57-.62Z" fill="#3E88EF"/></svg>