<!-- by TradingView --><svg width="18" height="18" viewBox="0 0 18 18" xmlns="http://www.w3.org/2000/svg"><path fill="#F0F3FA" d="M0 0h18v18H0z"/><path d="M13 11.02C13 13.3 11.05 14 8.94 14c-1.88 0-3.37-.4-3.6-.49-.16-.05-.24-.17-.24-.29l.2-1.03c.02-.16.12-.21.23-.21.3.06 1.85.46 3.12.46 1.1 0 2.35-.28 2.35-1.28 0-1.04-1.35-1.13-2.62-1.31C6.93 9.64 5 9.23 5 6.97 5 4.63 6.77 4 9 4c1.62 0 3 .35 3.32.45.17.04.28.2.28.35l-.21.97c-.02.1-.16.19-.28.19-.01 0 .01.01 0 0-.8-.16-1.75-.4-2.88-.4-.97 0-2.23.17-2.23 1.19 0 1 1.38 1.11 2.58 1.28 1.61.24 3.42.52 3.42 2.99Z" fill="#005252"/></svg>