<!-- by TradingView --><svg width="18" height="18" viewBox="0 0 18 18" xmlns="http://www.w3.org/2000/svg"><path fill="#F0F3FA" d="M0 0h18v18H0z"/><path d="M9.26 10c-.92 0-.95-.69-.85-.99-1.44.1-1.4 2.6-1.32 2.77.05.14.98.45 1.43.59C9.63 11.48 12.15 9.25 12 9c-.63.35-1.6 1-2.74 1Z" fill="url(#a0z0rtqp4)"/><path d="M7.57 5.74A9 9 0 0 0 9.47 3C10 3.25 11 4.25 11 5.17c0 .92-.62 1.92-1.7 3.17-1.94 2.17-2.07 2.88-2.07 3.13s.13.32.25.53C6.37 11.57 5 10.22 5 9.12c0-1.1 1.16-1.96 2.57-3.38Z" fill="url(#b0z0rtqp4)"/><path d="M13 10.36c0-.59-.7-1.15-1-1.36-.51.26-1.6.91-2.3 1.5-.9.73-1.7 1.64-1.7 2.62 0 .97 1.17 1.78 1.37 1.88.12-.31.85-1.36 1.86-2.2 1-.83 1.77-1.7 1.77-2.44Z" fill="url(#c0z0rtqp4)"/><defs><linearGradient id="a0z0rtqp4" x1="10.52" y1="9.78" x2="7.64" y2="12.14" gradientUnits="userSpaceOnUse"><stop stop-color="#254695"/><stop offset="1" stop-color="#293575"/></linearGradient><linearGradient id="b0z0rtqp4" x1="6.49" y1="6.17" x2="8.81" y2="8.62" gradientUnits="userSpaceOnUse"><stop offset=".06" stop-color="#6EBFE5"/><stop offset="1" stop-color="#154993"/></linearGradient><linearGradient id="c0z0rtqp4" x1="8.97" y1="10.01" x2="10.36" y2="13.03" gradientUnits="userSpaceOnUse"><stop offset=".06" stop-color="#6EBFE5"/><stop offset="1" stop-color="#154993"/></linearGradient></defs></svg>