<!-- by TradingView --><svg width="18" height="18" viewBox="0 0 18 18" xmlns="http://www.w3.org/2000/svg"><path fill="#F0F3FA" d="M0 0h18v18H0z"/><path d="M8.9 11.15 5 4l3.9 4.02c.22.24.63.26.88.03L14 4.25l-3.7 5.21.77 5.54-2.17-3.85Z" fill="#FBCD06"/><path d="m5.67 11.23.77-5.03c.02-.13.07-.2.13-.2s.11.04.21.24l2.12 4.35 2.1-4.4c.06-.13.1-.19.17-.19s.12.08.14.24l.7 4.77c.08.48.15.7.39.77.22.07.38.08.48.08.07 0 .12 0 .12.06s-.1.08-.2.08h-1.57c-.18-.02-.23-.04-.23-.08s.03-.07.09-.09c.04-.02.07-.12.04-.33l-.47-3.44h-.03l-1.69 3.5c-.18.37-.21.44-.28.44-.07 0-.15-.15-.28-.39-.18-.35-.8-1.54-.89-1.75l-.8-1.72h-.03l-.4 3.07c-.02.14-.03.24-.03.37 0 .14.1.21.23.24.14.03.25.04.33.04.06 0 .12.02.12.06 0 .06-.07.08-.2.08H5.15c-.08 0-.14-.02-.14-.08 0-.04.05-.06.12-.06l.24-.02c.21-.05.28-.35.31-.61Z" fill="#007882"/></svg>