<!-- by TradingView --><svg width="18" height="18" viewBox="0 0 18 18" xmlns="http://www.w3.org/2000/svg"><path fill="#F0F3FA" d="M0 0h18v18H0z"/><path d="M8.12 11c-.26-.53-.3-1.72-1.34-1.68-.89.04-1.09 1.5-.93 2C6.22 12.53 7.36 13 8.66 13c1.48.02 2.42-.88 2.34-2.27-.12-2.33-4-2.04-4-4.42 0-1.4.67-2.06 1.93-2.27a5.2 5.2 0 0 1 3.07.65v1.67h-.3a4.33 4.33 0 0 0-1.5-1.78C9.12 3.96 8 4.62 8 5.82c0 .62 1.07 1.1 1.74 1.4 1.7.76 3.38 1.69 3.25 3.7-.12 2.03-2.12 3.1-4.23 3.08-1.66-.02-3.28-.95-3.68-2.47-.29-1.1.16-2.84 1.96-2.83.64 0 .93.31 1.38.63V11h-.3Z" fill="#0F5640"/></svg>