<!-- by TradingView --><svg width="18" height="18" viewBox="0 0 18 18" xmlns="http://www.w3.org/2000/svg"><path fill="#F0F3FA" d="M0 0h18v18H0z"/><path d="M11 5c1.72.73 3 2.53 3 4.39C14 11.94 11.76 14 9 14c-2.77 0-5-2.07-5-4.61 0-1.15.46-2.28 1.22-3.09 0 0 .78-.02.78.56 0 .58-.28.92-.28 2.06 0 1.14.73 3.08 3.3 3.08C11.62 12 12 10 12 9.22c0-.77-.49-1.47-.77-1.75-.16-.16-.23-.44-.23-.74V5Z" fill="#4646CC"/><path d="M9.44 4.2 6.12 3.05a.85.85 0 0 0-.84.16.75.75 0 0 0-.25.78l.3 1.37c.4.05 1.34.21 1.34.77 0 .76-.34 1 .12 1.87l2.93-2.47a.75.75 0 0 0 .26-.74.82.82 0 0 0-.54-.59Z" fill="#F43F08"/></svg>