<!-- by TradingView --><svg width="18" height="18" viewBox="0 0 18 18" xmlns="http://www.w3.org/2000/svg"><path fill="#F0F3FA" d="M0 0h18v18H0z"/><path fill-rule="evenodd" d="M4 13.44c0 .3.25.55.56.55h6.27l.45.01h2.16c.31 0 .56-.26.56-.56V4.55c0-.3-.25-.55-.56-.55H4.56c-.31 0-.56.25-.56.55v8.89Zm6.8.4c-.04-.61-.03-1.21.03-1.8.07-.7.2-1.34.42-1.93.23-.65.53-1.22.91-1.7a4.8 4.8 0 0 1 1.5-1.28c.13-.07.12-.09-.01-.06A7.4 7.4 0 0 0 10 8.95a7 7 0 0 0-2 3.56c-.1.43-.18.87-.23 1.32h3.04ZM4.17 7.25V5.1c1.37-.22 2.75-.26 4.17-.12a22.98 22.98 0 0 1 5.44 1.2h-.01c-.93-.21-1.84-.35-2.74-.42-.95-.07-1.86-.05-2.75.06-1.61.2-2.99.67-4.11 1.44Zm0 2.18A5.95 5.95 0 0 1 6.2 7.86C6.94 7.5 7.78 7.2 8.72 7a19.91 19.91 0 0 1 4.9-.43l-.62.07h-.05A7.94 7.94 0 0 0 8 9.16a10.57 10.57 0 0 0-2.47 4.67h-.96a.4.4 0 0 1-.4-.4V9.45Z" fill="#9A1F22"/></svg>