<!-- by TradingView --><svg width="18" height="18" viewBox="0 0 18 18" xmlns="http://www.w3.org/2000/svg"><path fill="#F0F3FA" d="M0 0h18v18H0z"/><path d="M11.9 6h-1.17l2.1 6h1.1L15 9.02V6l-1.58 4.52L11.9 6Z" fill="#4C4A4A"/><path d="M15 6v3l1-3h-1Z" fill="#DDCA0A"/><path d="M7 8.2V12h1V9.75h.88c.07.02.13.07.16.15.54 1.31.78 2.1.78 2.1H11s-.25-.78-.7-1.94c-.18-.44-.56-.68-.56-.68V9.3s1-.16 1-1.63C10.75 6.6 10.03 6 9 6H7v1.59l.99-.26.01.05V7h.8c.24 0 .94.03.94.86 0 .72-.38.76-.68.8l-.1.01H8v-.72l-1 .26Zm-1.97.51c.53.25.97.66.97 1.52C6 11.25 5.15 12 4.07 12A3 3 0 0 1 2 11.3l.38-.88s.8.58 1.5.58S5 10.7 5 10.23c0-.37-.43-.49-.95-.63-.33-.1-.7-.2-1.01-.37l1.99-.52Zm-1.08-.34c-.45-.13-.8-.27-.8-.62 0-.64.59-.75 1-.75.66 0 1.29.55 1.29.55l.4-.76S5.13 6 4.07 6C3 6 2.17 6.8 2.17 7.64c0 .49.12.84.31 1.1l1.47-.37Z" fill="#4C4A4A"/></svg>