<!-- by TradingView --><svg xmlns="http://www.w3.org/2000/svg" width="18" height="18"><path fill="#F0F3FA" d="M0 0h18v18H0z"/><path d="M9.1 15h-.04L9 14.98a8.4 8.4 0 01-2.96-1.12 4.1 4.1 0 01-1.71-5.1c.21-.47.54-.9.94-1.23C6 6.87 6.96 6.4 7.82 6c1.22-.58 2.25-1.08 2.25-1.96 0-.58-.67-.88-1.09-1l-.05-.01L8.88 3h.06l.07.02a8.4 8.4 0 012.96 1.12 4.1 4.1 0 011.71 5.1c-.21.47-.54.9-.94 1.23-.74.66-1.7 1.12-2.56 1.53-1.22.58-2.25 1.08-2.25 1.96 0 .6.69.88 1.11 1l.03.01.05.03H9.1zm1.3-11.27c.28.5-.21 1.22-.59 1.5-1.32 1.04-2.96 1.43-4.28 2.5-.7.59-1.2 1.62-1.17 2.55A4.18 4.18 0 005.8 13.3c-.18-.3-.38-.87-.38-1.22C5.43 10.5 7.8 9.52 9 9c.84-.37 1.64-.81 2.4-1.32.73-.55 1.17-1.13 1.17-1.76 0-1.33-1.84-2.07-2.17-2.19z" fill="#002D71"/></svg>