<!-- by TradingView --><svg xmlns="http://www.w3.org/2000/svg" width="18" height="18"><path fill="#F0F3FA" d="M0 0h18v18H0z"/><path d="M4.8 5c.2.35.95 1.1 2.48 1.32 1.52.23 1.8 1.33 1.75 1.85.45.2 1.53.88 2.25 2 .46.27 2 .76 2.37.4.16-.18.3-.86-.42-2.1.45.55 1.26 1.8.85 2.46-.4.65-1.8.2-2.45-.1l.12.32c.02.06.02.22-.23.35-.32.17-2.13.87-2.84 1.02a.62.62 0 01.14-.74c.29-.28.48-.56.54-.67.06-.08.1-.28-.19-.4a15.6 15.6 0 00-1.72-.38l.78 2.37-.73.3c-.42-.62-1.5-1.97-2.42-2.42-.07-.03-.2-.12-.13-.25.06-.13.3-.02.4.05.33.17 1.09.61 1.59 1.03.05.05.18.13.23.1.05-.04-.05-.21-.1-.3-.45-.56-1.68-1.7-3.07-1.72L4.8 5zm7.77 5.03c-.7-.61-2.02-1.93-2.02-2.79 0-.91 2.14-1.24 4.45-.47-1.35-.26-3.97-.47-3.97.47 0 .33.35 1.11 1.54 2.2v.6z" fill="#133596"/></svg>