<!-- by TradingView --><svg width="18" height="18" viewBox="0 0 18 18" fill="none" xmlns="http://www.w3.org/2000/svg">
<rect width="18" height="18" fill="#F0F3FA"/>
<path fill-rule="evenodd" clip-rule="evenodd" d="M7.36563 3L8.51277 5.22676L7.14807 5.36037L6.97007 5.22676L7.36563 3ZM8.76988 5.20906L9.72912 3.24951L10.095 5.32485L8.76988 5.20906ZM12.0135 3.43652L10.4609 5.34264L11.8553 5.64547L11.9542 5.47624L12.0135 3.43652ZM12.2607 5.76113L12.3695 5.56517L15 4.20239L13.2496 6.10851L12.2607 5.76113ZM10.1148 8.99442C9.8412 8.19872 8.70263 6.38821 6.33717 5.51176C6.07675 5.6513 5.54802 5.97493 5.51638 6.15307C5.47682 6.37575 5.33837 6.84782 4.4978 7.44459C3.65723 8.04137 4.00335 8.86972 4.63625 9.16365C5.14257 9.3988 5.06477 9.07755 4.96259 8.88754C4.74503 8.63814 4.37518 8.07521 4.63625 7.81869C4.96259 7.49803 5.63504 7.22192 6.95029 7.44459C8.00249 7.62273 9.49838 8.55204 10.1148 8.99442ZM10.6548 10.3465C11.0033 10.4837 11.7568 10.4802 11.9832 9.36879C12.0258 9.11395 11.9522 8.59277 11.3169 8.54673C11.2395 8.54125 11.0416 8.55331 10.8697 8.64538C10.6978 8.73745 10.5973 8.56317 10.5685 8.46453C10.4529 8.20695 10.1268 7.57342 9.74709 7.09991C10.8028 7.03963 12.9087 7.29885 12.8868 8.81802C12.8807 9.11396 12.7462 9.8012 12.257 10.1826C11.6455 10.6594 11.4173 11.0951 11.3169 11.9336C11.0005 12.257 9.99352 12.8987 8.4967 12.879C6.99988 12.8593 7.12462 12.6242 7.37409 12.5091C8.06136 12.4155 9.67967 11.852 10.6548 10.3465ZM11.3415 12.4757L12.1761 13.6296C12.1004 13.6296 11.8774 13.5834 11.5904 13.3988C11.2317 13.168 10.3898 13.3065 9.84081 13.6296C9.40158 13.888 8.04729 14.6076 7.42504 14.9351C7.28352 15.0032 6.98967 15.0618 6.70764 14.8692C6.38331 14.6476 6.1952 14.2494 6.1952 13.9395C6.1952 13.6296 6.45142 13.0032 7.11027 13.1285C7.76911 13.2537 9.67976 13.6032 11.3415 12.4757ZM7.17522 12.1809C8.83986 11.9999 10.007 10.6578 10.3825 10.0094C8.16307 11.5184 6.25283 11.306 5.57515 11.0111C6.10898 11.9883 6.86429 12.1981 7.17522 12.1809ZM10.3739 9.53262C9.80325 8.97768 8.09699 7.85644 5.83693 7.81104C5.6864 8.72543 5.54397 10.5241 6.03647 10.7339C6.62743 10.9857 8.40996 10.9042 10.3739 9.53262ZM11.5258 9.59024C11.4031 9.91499 11.13 10.125 10.9158 10.0594C10.7016 9.99368 10.6274 9.67718 10.7501 9.35243C10.8728 9.02767 11.146 8.81764 11.3602 8.88331C11.5744 8.94898 11.6486 9.26548 11.5258 9.59024ZM12.3497 7.34667L13.0023 6.39361C11.1274 5.63117 8.60169 5.59494 7.57323 5.67214C8.06373 5.83603 8.83903 6.41142 9.16537 6.67863C11.0799 6.65726 12.0859 7.11508 12.3497 7.34667ZM5.35932 5.56805L4.48923 3.31494L6.74905 5.19797L6.12065 5.08912L5.57684 5.67689L5.35932 5.56805Z" fill="#F12328"/>
</svg>
