<!-- by TradingView --><svg width="18" height="18" viewBox="0 0 18 18" xmlns="http://www.w3.org/2000/svg"><path fill="#F0F3FA" d="M0 0h18v18H0z"/><path fill-rule="evenodd" d="M4 4h10v10H4V4Zm2.75 7.57h-.6l-.69-1.25L5.37 12h-.74l.23-3h.68l.91 1.83.9-1.83h.69l.23 3h-.74l-.1-1.68-.68 1.25Zm-.22-6c.23 0 .45.04.66.12l.1-.54A2.25 2.25 0 0 0 6.37 5c-.3 0-.57.09-.8.26a.74.74 0 0 0-.26.66c.01.2.1.38.24.51.2.15.43.26.67.33.15.04.3.1.44.16.03.02.06.05.08.09l.04.1c0 .05 0 .1-.02.14a.24.24 0 0 1-.1.1.79.79 0 0 1-.33.08c-.15.01-.3 0-.44-.03a2.19 2.19 0 0 1-.47-.15l-.12.55c.3.13.61.2.93.2 1.19 0 1.35-.68 1.35-.95 0-.27-.13-.62-.74-.8L6.7 6.2c-.38-.11-.63-.18-.63-.38 0-.22.21-.26.46-.26Z" fill="#0E0C54"/></svg>