<!-- by TradingView --><svg width="18" height="18" viewBox="0 0 18 18" xmlns="http://www.w3.org/2000/svg"><path fill="#F0F3FA" d="M0 0h18v18H0z"/><path d="M9.89 4c.3.39.52 1.17.52 1.56 0 .86.72 1.56 1.6 1.56.89 0 1.6-.7 1.6-1.56 0-.86-.71-1.56-1.6-1.56H9.9Zm-3.43.07a2.46 2.46 0 0 0-1.8 2.38c0 .22 0 .39.04.55.11.6.63 1.1 2.97 3.41l.14.14.55.54c1.82 1.8 2.36 2.33 2.4 2.52v.02c.03.14.05.22.1.28.1.09.28.09.78.09.64-.05 1.27-.3 1.7-.73a2.3 2.3 0 0 0 .66-1.69c0-.22 0-.38-.03-.55-.11-.6-.64-1.12-3.13-3.58l-.02-.02C8.32 4.98 7.93 4.56 7.88 4.3L7.83 4h-.58c-.32.01-.68.04-.8.07Zm1.34 8.08c0 .46.27 1.39.63 1.85H5.9C4.85 14 4 13.17 4 12.15c0-1.03.85-1.86 1.9-1.86 1.05 0 1.9.83 1.9 1.86Z" fill="#003840"/></svg>