<!-- by TradingView --><svg width="18" height="18" viewBox="0 0 18 18" xmlns="http://www.w3.org/2000/svg"><path fill="#F0F3FA" d="M0 0h18v18H0z"/><path d="M4 13h3.7l.1-.57-1.48-.31 2.57-6.46 2.41 6.42-1.35.4-.1.52h4.08l.07-.57-1.08-.31L9.82 4l-1.19.22-3.38 7.86-1.18.4L4 13Z" fill="url(#ahmrmsuen)"/><path d="m9 9 .24.76H10l-.62.48.24.76-.62-.47-.62.47.24-.76L8 9.76h.76L9 9Z" fill="#B4953A"/><defs><linearGradient id="ahmrmsuen" x1="9" y1="4" x2="9" y2="13" gradientUnits="userSpaceOnUse"><stop stop-color="#96D2F4"/><stop offset="1" stop-color="#2C7EC6"/></linearGradient></defs></svg>