<!-- by TradingView --><svg width="18" height="18" viewBox="0 0 18 18" xmlns="http://www.w3.org/2000/svg"><path fill="url(#a)" d="M0 0h18v18H0z"/><path d="M10.02 8v-.85H11.7c.13-.02.24-.2.24-.34 0-.1-.06-.2-.15-.25l-.1-.03-.88-.31-.11-.04c-.55-.2-.84-.85-.65-1.43.15-.44.53-.74.97-.75h1.8v.85h-1.54a.27.27 0 0 0-.23.3c0 .1.06.18.14.22l.1.03.97.34h.02c.43.16.71.59.71 1.07 0 .6-.46 1.17-1.03 1.18h-.12V8h-1.83Z" fill="#fff"/><path d="M7.32 6.75 5.75 5.18A5.14 5.14 0 0 1 8.71 4v2.2c-.5.07-1 .25-1.4.55ZM5.2 5.73l1.56 1.56c-.3.39-.5.93-.56 1.42H4a5.2 5.2 0 0 1 1.2-2.98Zm7.6 6.52-1.55-1.56c.28-.38.46-.93.53-1.4H14a5.3 5.3 0 0 1-1.18 2.96Zm-8.8-2.96h2.2c.07.49.27 1.05.57 1.44l-1.56 1.56a5.3 5.3 0 0 1-1.22-3ZM9.28 14v-2.2a3.3 3.3 0 0 0 1.43-.56l1.56 1.56c-.8.7-1.93 1.12-2.99 1.2Zm-3.52-1.16 1.56-1.56c.4.28.9.46 1.38.52V14a5.13 5.13 0 0 1-2.94-1.17" fill="#FA7342"/><defs><linearGradient id="a" x1="3.35" y1="3.12" x2="21.9" y2="24.43" gradientUnits="userSpaceOnUse"><stop stop-color="#1A1E21"/><stop offset="1" stop-color="#06060A"/></linearGradient></defs></svg>