<!-- by TradingView --><svg width="18" height="18" viewBox="0 0 18 18" xmlns="http://www.w3.org/2000/svg"><path fill="#F0F3FA" d="M0 0h18v18H0z"/><path d="M9.67 4H10s.02 5.46-4.73 10L5 13.8S9.58 9.64 9.67 4Z" fill="#DA9735"/><path d="m12.73 14.4.27-.12s-3.72-5.49-8 .56l.19.16s3.54-5.85 7.54-.6Z" fill="#685942"/><path d="m11.8 7 .1.16.1.16a.76.76 0 0 1-.08.08l-.22.18c-.2.14-.5.34-.96.54-.91.4-2.4.8-4.73.88L6 8.58c2.3-.07 3.77-.48 4.65-.86A4.68 4.68 0 0 0 11.8 7Zm0 0h.01Z" fill="#6D5E49"/><path d="M6.21 8c2.14 1.06 4.38 2.6 5.79 4.67l-.41.33C10.25 11.04 8.1 9.55 6 8.5l.21-.5Z" fill="#D1A379"/><path d="m8 8.21.06-.1.06-.11h.01a4.72 4.72 0 0 1 .48.4c.3.27.7.64 1.12 1.1.85.9 1.83 2.12 2.27 3.4l-.2.1a9.93 9.93 0 0 0-2.22-3.32 17.61 17.61 0 0 0-1.57-1.46H8V8.2Z" fill="#DA9735"/><path d="M8.8 3.02h.07L8.94 3v.02a3.35 3.35 0 0 1 .02.22 16.17 16.17 0 0 1-.1 3.07A19.87 19.87 0 0 1 6.12 14L6 13.91A19.7 19.7 0 0 0 8.72 6.3a16 16 0 0 0 .08-3.25v-.01Z" fill="#91241B"/><path d="m10.8 7 .2.33S9.53 9.2 6 8.98v-.5s2.64.34 4.8-1.48Z" fill="#91241B"/></svg>