<!-- by TradingView --><svg width="18" height="18" viewBox="0 0 18 18" xmlns="http://www.w3.org/2000/svg"><path fill="#F0F3FA" d="M0 0h18v18H0z"/><path d="M14.41 4.38a4.1 4.1 0 0 1-1.55.77c-.53.13-1 .28-1.43.43-.56.2-.97.55-1.24 1.03-.11.21-.2.5-.24.86-.05.4-.12.8-.21 1.19a5.87 5.87 0 0 1-.85 2.03c-.63.9-1.56 1.31-2.78 1.22-.43-.03-.9-.3-1.24-.52-.72-.49-1.14-1.23-1.03-2.05.07-.48.26-.92.57-1.3l.51-.6 1.2.1c.04 0 .05.02.01.04-.56.33-1.09.8-1.3 1.38-.22.6-.07 1.18.45 1.75.1.1.2.18.34.23.35.12.71.17 1.08.16 1.44-.05 2.08-1.58 2.25-2.65l.12-.74c.23-1.27.82-2.33 2.2-2.83.9-.33 1.85-.55 2.66-1.04.34-.2.68-.47 1-.8.06-.06.08-.05.06.03a4.6 4.6 0 0 1-.1.39c-.11.31-.3.62-.48.92Z" fill="#15110F"/><path d="M14.41 4.38c-.2.76-.71 1.25-1.54 1.45-.57.14-1.1.21-1.58.54-.41.28-.62.85-.7 1.3l-.27 1.57a4.15 4.15 0 0 1-1.96 2.96c-.34.07-.67.19-.99.35-.88.18-1.72.1-2.52-.26-1.67-.71-2.27-2.33-1.56-3.87.14-.29.36-.61.66-.96.05-.07.13-.1.23-.1l.74.08c-.18.2-.35.4-.5.6-.32.38-.5.82-.58 1.3-.11.82.3 1.56 1.03 2.05.33.23.81.49 1.24.52 1.22.09 2.15-.32 2.78-1.22.43-.62.68-1.32.85-2.03.09-.4.16-.8.21-1.2.05-.35.13-.64.24-.85a2.2 2.2 0 0 1 1.24-1.03c.42-.15.9-.3 1.43-.43a4.1 4.1 0 0 0 1.55-.77Z" fill="#C71C14"/><path d="M7.37 12.55c.32-.16.65-.28.99-.35.02.13.1.26.26.4.35.32.74.5 1.15.53.46.04.88-.03 1.24-.2 1.06-.5 1.54-1.46 1.3-2.52a.1.1 0 0 0-.04-.05.11.11 0 0 0-.07-.03h-1.13c-.1 0-.13-.04-.11-.12l.15-.84c0-.03.02-.04.04-.04h2.04c.03 0 .05.05.05.07.07.5.1 1.06.09 1.48a3.2 3.2 0 0 1-1.81 2.77 3.13 3.13 0 0 1-3.33-.28c-.1-.08-.24-.22-.41-.4a7.58 7.58 0 0 0-.4-.42Z" fill="#15110F"/></svg>