<!-- by TradingView --><svg width="18" height="18" viewBox="0 0 18 18" xmlns="http://www.w3.org/2000/svg"><path fill="#F0F3FA" d="M0 0h18v18H0z"/><path d="M13.45 5.29a.51.51 0 0 0-.25.14 2.26 2.26 0 0 1-.57.32 7.4 7.4 0 0 1-.72.25c-.31.07-.63.16-.97.27-.23.08-.43.16-.59.25a1.86 1.86 0 0 0-.98 1.47l-.13.74a6.62 6.62 0 0 1-.73 2.06c-.13.2-.3.42-.54.64-.16.16-.34.28-.52.36-.28.13-.51.21-.69.24a4.35 4.35 0 0 1-1.09.01 2.93 2.93 0 0 1-1.63-1.14 1.86 1.86 0 0 1-.2-1.38c.09-.28.19-.5.3-.68.16-.24.35-.46.57-.68a.05.05 0 0 0 .02-.05.05.05 0 0 0-.04-.04c-.03-.01-.03-.03 0-.04l1.2.08h.02v.02c0 .04-.03.08-.07.1-.14.07-.28.16-.42.28-.13.1-.23.2-.3.27a1.88 1.88 0 0 0-.48.87c-.05.23-.04.45.05.68.07.2.19.4.36.6.12.15.28.25.49.3.21.06.4.1.59.1a1.73 1.73 0 0 0 1.37-.45c.2-.18.38-.41.52-.68.21-.41.35-.84.42-1.29l.11-.67c.07-.35.18-.68.32-1a2.72 2.72 0 0 1 1.14-1.26c.24-.13.47-.24.7-.32l1.05-.34c.25-.08.5-.18.78-.3.51-.23.96-.55 1.35-.95.1-.1.13-.1.1.05-.05.17-.1.34-.18.52-.04.08-.1.2-.18.32l-.18.33Z" fill="#1D1A17"/><path d="M13.45 5.29a1.68 1.68 0 0 1-1.3 1.27 6.72 6.72 0 0 0-.3.08c-.22.05-.45.1-.68.17-.41.12-.72.34-.93.67-.16.26-.27.6-.33 1.04-.06.4-.12.8-.2 1.22a4.46 4.46 0 0 1-.99 2c-.2.22-.42.4-.65.53.02-.04-.01-.05-.09 0a4.66 4.66 0 0 0-.4.18 19.82 19.82 0 0 0-.53.21c0 .01 0 .03.02.04-.15 0-.3.03-.45.06a4.83 4.83 0 0 1-1.5-.17 3.25 3.25 0 0 1-1.22-.63A2.45 2.45 0 0 1 3 9.95c.02-.33.1-.64.23-.93.15-.33.37-.66.66-.99.03-.03.07-.04.13-.04.22 0 .44.01.66.04-.02.01-.02.03.01.04l.04.04c0 .02 0 .03-.02.05a4.1 4.1 0 0 0-.56.68c-.12.18-.22.4-.3.68-.05.15-.08.31-.07.47a1.86 1.86 0 0 0 .53 1.27c.17.15.31.28.45.37a2.94 2.94 0 0 0 .91.41l.23.02c.34.02.62 0 .86-.03.18-.03.4-.1.69-.24.18-.08.36-.2.52-.36a3.12 3.12 0 0 0 .8-1.17 6.62 6.62 0 0 0 .47-1.53l.13-.74c.05-.3.12-.54.21-.7.18-.34.44-.59.77-.77.16-.09.36-.17.6-.25.33-.1.65-.2.96-.27l.29-.08a10.99 10.99 0 0 1 .43-.17 2.41 2.41 0 0 0 .57-.32.51.51 0 0 1 .25-.14Z" fill="#D4271F"/><path d="M7.16 12.83c0-.03 0-.05-.02-.06-.02-.01-.02-.02-.01-.04v-.02h.04c.03.03.05.05.09.06l.03.02a9.97 9.97 0 0 0 .3.31l.18.18a3.52 3.52 0 0 0 .62.37l.1.04c.06.03.16.06.28.09l.16.04a2.53 2.53 0 0 0 .92.03 5 5 0 0 0 .65-.16.8.8 0 0 0 .24-.12l.03-.01a.2.2 0 0 0 .09-.04 85.73 85.73 0 0 0 1.18-1.17l.16-.45c.06-.16.1-.34.13-.55.01-.1.02-.2 0-.31l.01-.3c.01-.06 0-.12-.02-.2a.79.79 0 0 1-.03-.18 2.87 2.87 0 0 1 0-.3c0-.05-.03-.08-.09-.08-.17 0-.34-.02-.5-.03a3.88 3.88 0 0 0-.5-.02l-.63.01c-.03 0-.04.01-.05.03l-.13.46v.05l.05.02h.18c.07-.01.13-.02.16-.01h.62c.08 0 .13.03.17.1a1.04 1.04 0 0 1 .12.68l-.07.37c-.02.11-.06.23-.12.37-.05.12-.12.24-.2.34a3.78 3.78 0 0 1-.68.62c-.11.07-.2.1-.25.13a2.54 2.54 0 0 1-1.1.2c-.13 0-.25-.02-.35-.05-.28-.08-.52-.2-.74-.36-.13-.1-.24-.2-.31-.33a.27.27 0 0 1-.04-.07v-.02c0-.02.02-.03.03-.03l.09.03a1.8 1.8 0 0 0 1.4.73 2.23 2.23 0 0 0 1.2-.32c.56-.35.9-.84 1-1.47.04-.3.02-.56-.08-.79 0-.01-.01-.02-.03-.02H10.3l-.04-.01a.04.04 0 0 1-.01-.04l.16-.7c0-.02.02-.03.03-.02h.04l.2.01a24.59 24.59 0 0 1 1.7.04l.01.02.05.6a5.42 5.42 0 0 1-.04 1.18 2.75 2.75 0 0 1-.71 1.34 3.04 3.04 0 0 1-3.07.84 2.62 2.62 0 0 1-.82-.4 3.16 3.16 0 0 1-.64-.63Z" fill="#0E0C0E"/><path d="m7.16 12.83-.1-.13a.06.06 0 0 1 0-.04l.01-.03a19.09 19.09 0 0 1 .71-.27l.2-.1c.08-.04.1-.03.1.01h-.03a.38.38 0 0 0-.13.08c-.03.03-.02.07.03.12a.19.19 0 0 0-.09-.03l-.03.03v.02l.04.07c.07.12.18.23.31.33.22.15.46.28.74.36.1.03.22.05.35.06a2.54 2.54 0 0 0 1.35-.34c.08-.04.15-.1.21-.15.18-.15.33-.3.47-.47.08-.1.15-.22.2-.34.06-.14.1-.26.12-.37l.07-.37a1.02 1.02 0 0 0-.12-.69c-.04-.06-.1-.09-.17-.08a7.35 7.35 0 0 1-.78 0h-.18c-.02 0-.03 0-.04-.02a.05.05 0 0 1-.01-.05l.13-.46c0-.02.02-.03.05-.03h1.13l.5.04c.06 0 .08.03.09.08a5.38 5.38 0 0 1 0 .3c0 .07.01.14.03.19.02.07.03.13.02.2v.29l-.01.3c-.03.22-.07.4-.13.56-.05.14-.1.29-.17.44-.01.05-.06.12-.13.22l-.1.16-.15.18c-.13.14-.25.25-.36.33a2.12 2.12 0 0 1-.43.29.2.2 0 0 1-.09.04l-.03.01a.8.8 0 0 1-.24.12 5 5 0 0 1-.65.16 2.54 2.54 0 0 1-.92-.03 2.88 2.88 0 0 0-.16-.04 1.6 1.6 0 0 1-.38-.13 3.51 3.51 0 0 1-.8-.55.1.1 0 0 0-.04-.02 9.8 9.8 0 0 1-.3-.3.21.21 0 0 1-.08-.07h-.03l-.01.02v.04c.02.01.03.03.03.06Z" fill="#1D1A17"/></svg>