<!-- by TradingView --><svg width="18" height="18" viewBox="0 0 18 18" xmlns="http://www.w3.org/2000/svg"><path fill="#F0F3FA" d="M0 0h18v18H0z"/><path d="m13.17 8.74-.7-.74.08.74L11 8.52l1.37.5-.84.49 1.28-.22.67.71-.04-.7 1.56.2-1.33-.5.75-.5-1.25.24Z" fill="#BC9A6B"/><path d="M7 11.76V12c-2.09-.38-4-1.74-4-3.45C3 6.84 4.39 6 6.22 6c1.99 0 4.02.8 4.78 1.2-.72-.28-2.55-.87-4.1-.87-2.3 0-3.17 1.12-3.17 2.33 0 1.83 2.19 2.83 3.27 3.1Z" fill="#21285C"/><path d="M9.41 12c-.44 0-1.03-.08-1.41-.31v-.6h.07c.34.26.87.37 1.31.37.38 0 .87-.15.87-.55 0-.37-.47-.56-.8-.67C8.84 10.03 8 9.78 8 9.08 8 8.32 8.88 8 9.62 8c.48 0 .94.07 1.21.22v.56h-.07a2.19 2.19 0 0 0-1.1-.25c-.56 0-.91.19-.91.49 0 .33.51.49.8.58.65.21 1.45.5 1.45 1.24 0 .77-.8 1.16-1.59 1.16Z" fill="#21285C"/></svg>