<!-- by TradingView --><svg width="18" height="18" viewBox="0 0 18 18" xmlns="http://www.w3.org/2000/svg"><path fill="#F0F3FA" d="M0 0h18v18H0z"/><path d="M4 10h2v1.15c0 .23.3.42.58.42.26 0 .42-.19.42-.42v-.67c0-.2-.05-.4-.25-.52L4.54 8.58A1.08 1.08 0 0 1 4 7.67v-.8C4 5.85 4.99 5 6.2 5h.6C8 5 9 5.84 9 6.88V7H7v-.37c0-.23-.22-.41-.48-.41-.27 0-.52.18-.52.41v.42c0 .16.12.31.27.4l2.2 1.39c.34.2.53.54.53.9v1.38C9 12.16 8.01 13 6.8 13h-.6C5 13 4 12.16 4 11.12V10Zm5.5-3H11v6h2V7h1.5V5h-5v2Z" fill="#0E47A1"/></svg>