<!-- by TradingView --><svg width="18" height="18" viewBox="0 0 18 18" xmlns="http://www.w3.org/2000/svg"><path fill="#F0F3FA" d="M0 0h18v18H0z"/><path d="M6.34 7.16c-.18-.2-.3-.45-.32-.71 0-.24.06-.46.18-.66l.03-.05 2.76-2.88 1.56 1.57-1.9 1.96c-.04.04-.05.06-.05.08 0 .01.01.06.1.15l.25.26-1.42 1.28-1.2-1Zm2.06-1.2.23-.25 1.25-1.28-.88-.9-2.4 2.51a.68.68 0 0 0-.1.38c.02.15.08.3.18.41l.84.7.74-.67a.58.58 0 0 1 .02-.78l.12-.13ZM6 13.18l2.98-3.06 1.06.95c.13.14.22.3.26.49a.74.74 0 0 1-.12.55l-.04.05L7.6 14.8l-.07.05-.07-.06-1.47-1.61Zm1.44-1.82L4 8.07l1.53-1.62 2 1.81L9 6.9l1.48 1.38 1.99-1.82L14 8.09l-3.52 3.37L9 9.94l-1.51 1.55-.05-.12ZM9 9.25l1.5 1.53 2.83-2.7-.88-.96-1.96 1.8-1.49-1.37-1.46 1.37-1.97-1.8-.89.96 2.86 2.7L9 9.25Zm-1.46 4.93 2.25-2.33a.27.27 0 0 0 .05-.19.54.54 0 0 0-.14-.24L9 10.8l-2.36 2.4.88.98Z" fill="#E05C2E"/></svg>