<!-- by TradingView --><svg xmlns="http://www.w3.org/2000/svg" width="18" height="18" viewBox="0 0 18 18"><path fill="#000068" d="M0 0h18v18H0z"/><path d="M9.31 13.49c3.91-.59 3.66-5.94 0-6.35v-.51c1.65.02 2.83 1.34 3.28 2.87a3.67 3.67 0 0 0-3.27-3.45v-.67c1.9.1 3.23 1.42 3.74 2.92-.06-1.84-1.8-3.28-3.75-3.49V4c1.45.1 2.48.63 3.26 1.48 3.1 3.23.78 8.42-3.24 8.52l-.02-.51ZM8.7 4.52c-3.9.58-3.65 5.93 0 6.35v.5c-1.65-.01-2.82-1.33-3.28-2.87a3.67 3.67 0 0 0 3.28 3.45v.68A4.18 4.18 0 0 1 4.95 9.7c.06 1.84 1.8 3.29 3.74 3.5v.8a4.67 4.67 0 0 1-3.26-1.48C2.33 9.24 4.65 4.11 8.67 4l.02.52Z" fill="#fff"/></svg>