<!-- by TradingView --><svg width="18" height="18" viewBox="0 0 18 18" xmlns="http://www.w3.org/2000/svg"><path fill="#F0F3FA" d="M0 0h18v18H0z"/><path d="M4.82 14c-.65 0-.9-.32-.8-.97l.03-.08c.26-.6.67-.95 1.22-.95h5.34c.49-.02.85-.29 1.1-.72.07-.11.12-.24.14-.38.11-.67-.18-.89-.88-.9H6.1c-1.89 0-2.35-2.32-1.43-3.7.83-1.27 1.38-2.21 3.01-2.26C9.62 4 10.97 4 12.75 4c.59.02.89.36.7.94l-.02.1c-.2.6-.6.96-1.21.96H7.69c-.65 0-1.07.27-1.25.91l-.04.12c-.19.65.05.97.72.97h5.07c1.48 0 2.02 1.32 1.74 2.63-.49 2.3-1.18 3.37-4.65 3.36L4.82 14Z" fill="#2CA9E0"/></svg>