<!-- by TradingView --><svg width="18" height="18" viewBox="0 0 18 18" xmlns="http://www.w3.org/2000/svg"><path fill="#F0F3FA" d="M0 0h18v18H0z"/><path d="M11.1 6.1h-.23c-.34-.9-.92-1.2-1.6-1.2-.67 0-1.53.33-1.53 1.2 0 .86.67 1.42 2.5 2.16A2.72 2.72 0 0 1 12 10.79C12 13.23 9.79 14 8.33 14A4.42 4.42 0 0 1 6 13.38l.45-1.78h.26c.26 1.44 1.47 1.5 1.9 1.5.44 0 1.63-.14 1.63-1.25 0-1.1-.37-1.22-2.36-2.26-1.6-.83-1.86-1.98-1.8-2.44C6.09 4.89 7.69 4 9.29 4c1.28 0 2.04.46 2.26.7l-.44 1.4Z" fill="#DA2A35"/></svg>