<!-- by TradingView --><svg width="18" height="18" viewBox="0 0 18 18" xmlns="http://www.w3.org/2000/svg"><path fill="#F0F3FA" d="M0 0h18v18H0z"/><path d="M8 9.83V8H4.54c-.14 0-.25.14-.25.28 0 .13.11.3.25.3h1.5c.72 0 1.3.5 1.3 1.18 0 .68-.58 1.24-1.3 1.24H3v-1h2.73c.14 0 .25-.1.25-.24 0-.14-.11-.33-.25-.33H4.3C3.6 9.43 3 8.95 3 8.26 3 7.56 3.59 7 4.31 7H8V6h1.35v1h.8l.75 1H9.35v1.8c0 .15.2.17.34.17h1.25l.96-1.14L10.54 7H12l.68.9.75-.9h1.46l-1.52 1.83L15 11h-1.48l-.93-1.24-.99 1.19V11H9.18C8.53 11 8 10.48 8 9.83Z" fill="#E50717"/></svg>