<!-- by TradingView --><svg width="18" height="18" viewBox="0 0 18 18" xmlns="http://www.w3.org/2000/svg"><path fill="#F0F3FA" d="M0 0h18v18H0z"/><path d="M8.99 4a4.96 4.96 0 0 1 3.42 1.33 5.04 5.04 0 0 1-.39 7.65.04.04 0 0 1-.03-.02v-.01c-.03-.04-.02-.07.01-.1A4.89 4.89 0 1 0 5.73 5.4a4.85 4.85 0 0 0 .3 7.47c.02.03.03.06 0 .1v.01A.04.04 0 0 1 6 13a.04.04 0 0 1-.04 0A5.02 5.02 0 0 1 9 4Z" fill="#1D3F2E"/><path d="M11.33 5.34c.06.01.06 0 .03-.04a.94.94 0 0 1-.26-.5c0-.03.03-.06.06-.05a.3.3 0 0 1 .1.07c.15.15.24.33.28.56a.08.08 0 0 1-.06.08c-.2.06-.4.05-.59-.04-.09-.04-.08-.07 0-.1a.78.78 0 0 1 .44.02ZM9.42 5.08l-.38-.03a.06.06 0 0 0-.01.12l.38.03c.03 0 .06-.02.06-.05a.06.06 0 0 0-.05-.07ZM11.9 5.78c.06.02.07.01.04-.04a.94.94 0 0 1-.17-.53c0-.03.04-.05.07-.04a.3.3 0 0 1 .09.1c.12.16.18.35.17.58a.08.08 0 0 1-.07.08.81.81 0 0 1-.57-.15c-.08-.05-.07-.08.02-.1.13 0 .27.02.43.1ZM8.05 5.27l-.01.03-.37.12a.74.74 0 0 1-.15.03h-.06l-.02-.02c0-.02.01-.04.05-.07a.6.6 0 0 1 .14-.06L8 5.18c.01 0 .03 0 .03.02l.02.07ZM12.4 6.3c.04.03.06.02.03-.03a.92.92 0 0 1-.07-.54c0-.04.04-.05.07-.03a.3.3 0 0 1 .07.1c.1.18.12.38.07.6a.08.08 0 0 1-.07.07.8.8 0 0 1-.54-.24c-.07-.06-.05-.1.04-.09.13 0 .26.06.4.16ZM5.2 6.9c.13-.12.25-.2.38-.22.1-.02.1 0 .05.08a.82.82 0 0 1-.5.32.08.08 0 0 1-.08-.05.93.93 0 0 1-.02-.61.3.3 0 0 1 .05-.12.04.04 0 0 1 .07.02c.06.2.07.38.02.56-.02.05 0 .06.03.02ZM12.8 6.9c.04.04.05.03.04-.02a.93.93 0 0 1 .02-.55V6.3a.04.04 0 0 1 .06 0 .3.3 0 0 1 .06.11c.06.2.05.4-.02.62a.08.08 0 0 1-.1.04.81.81 0 0 1-.48-.32c-.06-.07-.04-.1.05-.08.13.03.25.1.37.22ZM5.75 6.83h.06c.02 0 .03 0 .02.03-.06.13-.17.29-.23.41-.37.73-.5 1.5-.37 2.3a3.76 3.76 0 0 0 1.46 2.48.1.1 0 0 1 .03.1v.01a.04.04 0 0 1-.02.03.04.04 0 0 1-.04 0 3.93 3.93 0 0 1-.91-5.36ZM4.9 7.56c.1-.14.22-.23.34-.28.09-.03.11-.01.07.07a.82.82 0 0 1-.44.4.08.08 0 0 1-.1-.03.93.93 0 0 1-.12-.6c.01-.06.02-.1.04-.13a.04.04 0 0 1 .07 0c.1.19.13.37.1.56 0 .05.02.06.05.01ZM13.1 7.56c.03.04.04.04.04-.02a.94.94 0 0 1 .1-.55.04.04 0 0 1 .08-.01c.01.02.03.06.03.12.04.21 0 .41-.12.61a.08.08 0 0 1-.1.04.83.83 0 0 1-.44-.4c-.04-.09-.02-.11.07-.08.12.05.24.15.34.29ZM13.28 8.25c.03.05.04.05.04-.01.01-.19.08-.36.2-.53a.04.04 0 0 1 .07.01l.02.13c0 .2-.08.4-.22.58a.08.08 0 0 1-.1.01.83.83 0 0 1-.37-.46c-.03-.1 0-.11.08-.07.1.07.2.18.28.34ZM4.72 8.26A.78.78 0 0 1 5 7.92c.08-.04.11-.02.08.07a.82.82 0 0 1-.36.46.08.08 0 0 1-.1-.02.93.93 0 0 1-.22-.57l.01-.12a.04.04 0 0 1 .08-.01c.12.16.18.33.2.52 0 .05 0 .06.03 0ZM12.2 8.28v-.01c0-.02 0-.03.02-.03.12.02.2.08.25.18v.04c-.05.05-.05.09-.02.13 0 .02.04.05.1.08a.9.9 0 0 1 .1.07.03.03 0 0 1 .02.04v.02a.04.04 0 0 1-.03.02.03.03 0 0 1-.03 0 .62.62 0 0 1-.17-.15.07.07 0 0 0-.03-.03c-.15-.03-.12-.15-.13-.27 0-.04-.03-.05-.06-.02l-.02.02h-.07v-.03c0-.02 0-.04.03-.04s.04 0 .04-.02ZM12.81 8.6a.07.07 0 0 0 .07-.02l.13-.15c.08-.05.1-.04.03.04-.05.06-.1.14-.14.23l-.02.02h-.03a.41.41 0 0 1-.14-.07c-.02-.02-.02-.03 0-.04a.16.16 0 0 1 .1 0ZM4.66 8.98a.78.78 0 0 1 .22-.38c.07-.06.1-.04.09.05a.82.82 0 0 1-.29.52.08.08 0 0 1-.1 0 .93.93 0 0 1-.31-.53.3.3 0 0 1 0-.13V8.5a.04.04 0 0 1 .06 0c.15.14.24.3.28.48.02.06.03.06.05 0ZM11.76 8.81l-.03-.01c-.02-.01-.02-.02 0-.04h.05l.18.07c.07.01.13.03.17.05.07.05.16.11.26.2a.08.08 0 0 1 .02.1.08.08 0 0 1-.08.05.49.49 0 0 1-.27-.08 2.48 2.48 0 0 1-.3-.34ZM12.71 9.06a.08.08 0 0 0 .1-.05l.03-.12c0-.02.01-.03.02-.03l.04-.02h.16c.02 0 .03 0 .02.02l-.08.17c0 .02-.02.03-.04.04l-.28.06c-.1 0-.17-.02-.22-.08-.06-.06-.04-.08.03-.05l.22.06ZM11.7 11.83h-.04c-.03 0-.04-.02-.02-.04l.29-.33c.52-.63.81-1.35.87-2.16 0-.04.03-.07.06-.08h.02c.03 0 .04 0 .04.03a3.97 3.97 0 0 1-1.13 2.55.1.1 0 0 1-.09.03Z" fill="#1D3F2E"/><path d="M4.7 9.7c.03-.17.09-.3.17-.4.06-.08.1-.07.1.03 0 .21-.07.4-.2.55a.08.08 0 0 1-.1.02.92.92 0 0 1-.4-.47.3.3 0 0 1-.02-.13c0-.03.04-.05.07-.03.16.11.28.26.35.43.02.05.03.05.04 0ZM13.3 9.69c0 .05.02.06.04 0a.94.94 0 0 1 .35-.43l.02-.01c.03 0 .05.01.05.04a.3.3 0 0 1-.02.12c-.08.2-.2.36-.4.48a.08.08 0 0 1-.1-.01.84.84 0 0 1-.2-.57c0-.1.03-.1.1-.03.08.1.13.23.15.4ZM10.77 9.81c0-.02.01-.04.04-.04s.06.02.07.03l.57.53c.14.12.25.25.39.39v.01h-.01a18.11 18.11 0 0 1-1.05-.92ZM4.88 10.4c0-.18.02-.32.09-.44.05-.08.08-.07.1.02.03.21 0 .4-.1.59l-.05.03h-.05a.92.92 0 0 1-.47-.4.3.3 0 0 1-.04-.12c0-.03.03-.06.06-.04.18.08.32.2.42.36.02.05.04.05.04 0ZM13.12 10.4c0 .05.01.05.04 0 .1-.15.24-.27.42-.36.03-.01.06.01.06.04a.3.3 0 0 1-.05.12.91.91 0 0 1-.46.4.07.07 0 0 1-.1-.03.82.82 0 0 1-.1-.58c.02-.1.05-.1.1-.02.07.11.1.25.1.42ZM12.83 11.05c0 .06 0 .06.04.02a.94.94 0 0 1 .48-.3c.03 0 .06.03.06.06a.3.3 0 0 1-.07.1.93.93 0 0 1-.53.33.08.08 0 0 1-.1-.05.84.84 0 0 1 0-.6c.04-.1.07-.1.1 0a.8.8 0 0 1 .02.44ZM5.16 11.05a.79.79 0 0 1 .02-.43c.04-.1.07-.1.1 0 .07.2.07.4 0 .59a.08.08 0 0 1-.1.05.92.92 0 0 1-.52-.32.3.3 0 0 1-.06-.11c0-.03.02-.06.05-.05.2.05.35.15.47.3.04.03.05.03.04-.03ZM5.55 11.66a.78.78 0 0 1-.05-.43c.02-.1.05-.1.1-.02.1.19.13.38.1.58l-.04.05a.07.07 0 0 1-.05.02.92.92 0 0 1-.57-.22.3.3 0 0 1-.08-.1v-.02c0-.02.02-.04.04-.04.2.02.38.09.52.2.04.04.05.03.03-.02ZM12.45 11.66c-.02.05-.01.06.03.03.14-.12.31-.2.51-.21.03 0 .06.02.05.05a.3.3 0 0 1-.08.1.91.91 0 0 1-.57.23c-.02 0-.04 0-.05-.02a.08.08 0 0 1-.03-.04.82.82 0 0 1 .09-.58c.04-.09.08-.08.1.01.02.13 0 .27-.05.43ZM6.04 12.2a.78.78 0 0 1-.12-.42c0-.1.04-.1.1-.03.12.17.18.36.17.56 0 .02 0 .04-.02.05a.07.07 0 0 1-.05.03.92.92 0 0 1-.6-.14.3.3 0 0 1-.09-.09.04.04 0 0 1 .04-.06c.2-.01.38.03.54.13.04.03.05.02.03-.03ZM11.96 12.2c-.03.04-.02.05.03.03.16-.1.34-.14.54-.12.1 0-.05.13-.07.14a.91.91 0 0 1-.6.13.07.07 0 0 1-.06-.07c0-.2.05-.4.19-.56.06-.07.09-.06.09.03 0 .13-.04.27-.12.42ZM11.36 12.02c-.03.1-.01.2-.1.3a.06.06 0 0 1-.03.03c-.05 0-.08 0-.11-.04-.02-.01-.01-.02 0-.03.08-.05.12-.12.11-.2 0-.02 0-.04.02-.05.06-.09.14-.13.22-.14.01 0 .03 0 .04-.02l.07-.04a.02.02 0 0 1 .02 0 .02.02 0 0 1 0 .02c-.02.12-.09.16-.2.14-.03 0-.04 0-.04.03ZM10.97 12.1l.07.15c.01.02 0 .02-.01.02l-.21-.02-.04-.02v-.06c.04-.1.1-.17.15-.2.05-.05.12-.06.2-.03a.05.05 0 0 1 .01.1.23.23 0 0 1-.15.04c-.02 0-.02 0-.02.02ZM11.42 12.75c-.06.09-.04.15.07.18h.08c.04 0 .06-.05.04-.09l-.16-.28a.08.08 0 0 0-.1-.03c-.05.01-.08.06-.08.13l-.01.02h-.2a.05.05 0 0 0-.05.08l.12.31c0 .03.04.07.1.12a.05.05 0 0 1 .01.04c0 .06-.04.1-.1.1-.06 0-.1-.04-.13-.12l-.12-.32a.06.06 0 0 0-.04-.04l-.05-.02c-.01-.01-.02-.02-.01-.04.01-.03.03-.14.08-.14l.15-.01c.07 0 .07-.1.12-.12a.32.32 0 0 1 .11-.03.04.04 0 0 0 .03-.01l.07-.11a.1.1 0 0 1 .17.01c.04.1.1.2.2.31.01.02.05.04.11.06.02 0 .03.01.03.03.01.04 0 .08-.01.1-.01.02-.02.03-.04.03h-.07l-.03.02c-.1.1-.12.25-.3.15-.13-.07-.14-.2-.14-.35 0-.02.01-.03.03-.03l.1.01c.02 0 .03.02.02.04ZM10.85 12.55c.04-.02.07-.07.05-.1-.02-.04-.07-.05-.11-.03-.05.03-.07.07-.06.1.02.04.07.05.12.03ZM10.64 13.38l-.08-.38a.1.1 0 0 0-.06-.07c-.15-.06-.25-.18-.4-.25-.04-.01-.04-.03-.01-.06l.06-.04a.07.07 0 0 1 .1 0l.4.28c.02 0 .03.02.03.04l.12.52c0 .02-.01.04-.03.05a.5.5 0 0 0-.25.11.08.08 0 0 1-.05.02c-.05 0-.11 0-.17-.02-.02 0-.03-.02-.02-.04a.16.16 0 0 0 .02-.12 5.66 5.66 0 0 0-.11-.39c0-.02 0-.03.02-.04l.14-.05c.03-.01.04 0 .03.02-.06.12.01.3.06.44.02.06.05.08.1.06h.05c.04-.02.06-.04.05-.09ZM7.93 13a.3.3 0 0 1 .1-.03c.05 0 .08.05.07.1l-.12.44c-.01.03 0 .05.03.05l.1.03c.04.01.06 0 .07-.02a.99.99 0 0 0 .08-.36c0-.06.01-.1.03-.11.04-.02.09-.01.16.01.05.03.06.06.01.1l-.03.07c-.06.14-.11.31-.14.52a.3.3 0 0 1-.05.12c-.06.09-.16.08-.28.08-.14-.01-.19-.07-.3-.13-.05-.04-.05-.07.01-.1a.12.12 0 0 1 .11 0c.02 0 .03.03.05.07.04.1.12.14.24.11.02 0 .03-.01.04-.03a.08.08 0 0 0 .02-.04l.02-.18v-.02l-.03-.02a.5.5 0 0 0-.2.02l-.04-.01a.57.57 0 0 0-.16-.12c-.02-.01-.02-.02 0-.03.05 0 .1-.02.12-.04l.01-.02.08-.42c0-.02 0-.03-.02-.04l-.17-.03c-.02 0-.03 0-.04.02l-.13.4c0 .04.01.08.06.13v.02l-.13.03-.04-.01a.38.38 0 0 0-.14-.09c-.06-.02-.06-.04 0-.06.12-.04.17-.26.24-.49 0-.01 0-.03-.02-.04l-.03-.03v-.04c.02 0 .08-.05.17-.13.03-.02.06-.02.1 0 .02 0 .03 0 .02.02l-.04.1a.06.06 0 0 0 .01.06l.14.13h.02ZM8.72 13.66c.03 0 .06 0 .09.02v.04l-.1.09h-.04l-.19-.08c-.02 0-.03-.04 0-.05l.04-.03c.02-.01.03-.02.03-.04l.08-.79.02-.02.16-.06v.01c-.06.3-.1.59-.11.9l.02.01ZM9.7 13.11c.02.03.06.04.08.02l.16-.13a.06.06 0 0 1 .05-.01c.03 0 .06 0 .07.03.02 0 .02.03.02.08 0 .11.01.26.04.45 0 .02 0 .04.03.04h.02c.02 0 .03.02.02.04-.03.05-.07.1-.14.09a.1.1 0 0 1-.07-.08l-.05-.44c0-.04-.03-.06-.07-.04l-.06.02c-.03.02-.05.05-.05.09l.02.28c0 .05.07.05.07.1v.01a.26.26 0 0 1-.09.07.05.05 0 0 1-.04 0l-.12-.06v-.04a.64.64 0 0 0-.02-.4c0-.04-.02-.04-.04-.07-.02 0-.02-.02-.02-.04a.16.16 0 0 1 .1-.1c.03-.01.04 0 .05.01l.05.08Z" fill="#1D3F2E"/><path fill-rule="evenodd" d="M10.77 9.81c0-.02.01-.04.04-.04-.1-.08.16-.23.21-.25a.05.05 0 0 0 .04-.03c.02-.06.05-.11.1-.16.09-.09.1-.24.1-.37.3-.7.24-.5.03-.5-.25-.27-.51-.47-.78-.6a.47.47 0 0 0-.15-.04c-.18 0-.73-.02-.54-.34.1-.18.17-.37.28-.55l.15-.21c.1-.14.15-.31.13-.5 0-.11-.04-.19-.14-.22a.75.75 0 0 1-.1-.05.07.07 0 0 1-.03-.07l.05-.24.01-.03.17-.19a.1.1 0 0 0 .03-.04.54.54 0 0 1 .07-.17c.02-.02.03-.05.03-.07-.01-.07-.08-.1-.1-.18-.01-.07-.04-.08-.08-.02-.02.02-.01.04.02.05l.01.02c.02.03 0 .07.02.1.08.08.06.12-.06.11l-.1.04h-.04a.25.25 0 0 0-.19 0l-.02.05v.4c0 .06-.12.15-.12.06a.86.86 0 0 0-.03-.23c-.03-.09-.05-.08-.07 0l-.02.15c0 .02 0 .04-.02.05-.06.05-.21.1-.26.01-.02-.05 0-.1.05-.17a.07.07 0 0 0-.01-.1.19.19 0 0 0-.13-.04c-.02 0-.04 0-.05-.02l-.03-.03c-.05-.06-.12-.12-.19-.14l-.1-.01c-.14-.03-.29-.43-.46-.2a.06.06 0 0 1-.04.02h-.11c-.02 0-.03-.02-.03-.04v-.09l-.01-.02-.14-.21a.07.07 0 0 1 .02-.09c.12-.09.34-.1.36.1v.16c0 .02 0 .03.03.03.02 0 .06 0 .06-.04v-.27l-.01-.02-.03-.02-.2-.04c-.08-.02-.15-.02-.2 0-.16.1-.38.32-.18.5.07.05.1.08.1.19 0 .29.1.54.28.75.02.02.03.05.03.07.02.16-.18.22-.06.4 0 .02.02.03.04.03.15.04.3.05.43.03.07-.01.11.02.11.1v.12c0 .08-.04.12-.11.12-.1 0-.2.03-.28.07H8.5a4.35 4.35 0 0 1-.5-.52c-.05-.04-.04-.05.02-.02l.06-.02a.04.04 0 0 0 .02-.05.16.16 0 0 0-.07-.1.2.2 0 0 0-.1-.02.35.35 0 0 1-.17-.04l-.02-.04V6c-.05-.06-.1-.11-.13-.17-.02-.02 0-.05.02-.05.07-.01.14.07.2.15.03.03.06.12.1.13.02.01.02 0 .02-.02l-.1-.26a.08.08 0 0 0-.06-.05.58.58 0 0 1-.4-.26.16.16 0 0 0-.05-.06.22.22 0 0 1-.07-.05l-.01-.04-.02-.14c-.02-.1-.06-.1-.11-.02-.03.03-.05.1-.11.06A.07.07 0 0 1 7 5.2l-.05-.1c-.02-.03-.04-.03-.06 0l-.07.18.01.04c.05.02.07.06.04.14 0 .02 0 .03.02.03l.05-.01.15-.16c.02-.03.05-.04.08-.02a.04.04 0 0 1 .01.05c-.04.1-.1.19-.22.25h-.04a.13.13 0 0 1-.04-.08.04.04 0 0 0-.03-.03c-.04 0-.06-.04-.08-.1a.01.01 0 0 0-.02-.01c-.11.17-.25.3-.43.37a.06.06 0 0 0-.03.04l-.08.2a.46.46 0 0 1-.12.2 6.2 6.2 0 0 0-.31.38l.01.04c.02.02.03.02.03 0 0-.05.03-.1.07-.12a.1.1 0 0 0 .03-.04c.04-.1.1-.16.15-.2l.06-.07c.06-.08.1-.13.15-.23 0-.02.03-.03.05-.01.04.05.07.07.09.08.13.03.13.07 0 .1l-.16.05a.08.08 0 0 0-.04.02.07.07 0 0 0-.02.05c.01.08-.03.12-.12.13-.05 0-.08.03-.08.08 0 .08-.04.16-.12.22a.06.06 0 0 0-.02.04c-.02.06 0 .09.04.1.01 0 .03 0 .04.02.03.05.08.07.15.05a.08.08 0 0 1 .1.04l.19.44c0 .03.08.12.2.29a.3.3 0 0 1 .07.12c0 .04 0 .08-.02.13l-.02.07c-.1.25-.08.45-.08.7 0 .04-.04.07-.08.05a1 1 0 0 1-.3-.19c-.13-.13-.33.06-.42.16a.04.04 0 0 0 0 .05c.06.16.07.34 0 .53-.03.11-.05.2-.05.27-.01.4-.06.32.23.6l.04.03a.1.1 0 0 0 .11-.04c.07-.09.34-.08.45-.05.13.04.15 0 .07-.12a9.41 9.41 0 0 0-.31-.34c-.08-.02-.14.06-.17.12a.45.45 0 0 1-.03.04l-.04.02c-.1-.03-.11-.12-.09-.2l.16-.53c.01-.06.05-.07.1-.04l.08.05c.08.06.17.12.28.14a15.28 15.28 0 0 1 .43.13c.05-.02.08-.06.1-.12 0-.02 0-.02.02-.01.1.05.28.1.29.24 0 .23-.04.53.1.72v.05a.8.8 0 0 0 .02.35l.03.23-.03.46c0 .05-.02.1-.04.13a1.92 1.92 0 0 1-.11.14l-.04.09c0 .02-.02.02-.04.02-.12-.06-.24-.02-.35.1-.05.06-.04.1.02.12l.4.17h.01c.05 0 .08-.06.09-.17 0-.07.04-.1.09-.07.01.01.06.01.14 0 .01 0 .03 0 .03-.02a.6.6 0 0 0 .07-.3c-.02-.19-.01-.36.03-.5l.1-.4a.74.74 0 0 0-.02-.24.5.5 0 0 1-.01-.2 6.01 6.01 0 0 0 .08-.23h.1c.12.04.23.01.22-.16V9.6c0-.02.02-.03.04-.02.2.05.42-.03.62-.07l.08-.02a.33.33 0 0 1 .12-.03c.02 0 .03 0 .05.02.25.23.61.35.85.58a5.87 5.87 0 0 1 .4.48 9.81 9.81 0 0 1-.6.7c-.15.17-.08.3.08.42.04.02.07.06.1.11.06.12.18.2.35.26.06.02.08 0 .07-.05a.71.71 0 0 1 .02-.36.08.08 0 0 0-.06-.1l-.21-.04c-.06-.01-.06-.07-.05-.11.02-.08.05-.2.12-.25l.13-.13.15-.15.25-.2.03.01c.15.2.24.42.28.66l.02.03.2.23c0 .04 0 .1-.04.15l-.06.14.01.02c.1 0 .14-.04.14-.14 0-.02.01-.02.03 0l.07.04c.05.03.06.02.04-.03a3.09 3.09 0 0 1-.2-1.31l-.07-.03a.08.08 0 0 1-.03-.02.89.89 0 0 0-.14-.11c-.1-.05-.16-.14-.23-.23a3.75 3.75 0 0 0-.06-.08.14.14 0 0 1-.02-.16ZM6.83 5.66c.04.02.05.05.03.1h-.03l-.01-.03a.04.04 0 0 0-.04-.04c-.04-.02-.13-.02-.13.04 0 .04 0 .09.03.17.03.06.18.02.14.13l-.03.03a.51.51 0 0 0-.14.14 6.74 6.74 0 0 0-.63.6l-.07-.01v-.01a16.44 16.44 0 0 1 .52-.58c.05-.04.09-.1.12-.18v-.04c-.04-.06-.1-.1-.19-.1-.04 0-.05-.05-.03-.08l.04-.03.14-.07a.19.19 0 0 0 .08-.08V5.6c.08-.08.13-.07.17.03l.03.03ZM6.36 7.1c.04-.05.06-.1.07-.13v-.12l.01-.1c0-.02.01-.03.03-.04a.9.9 0 0 1 .36-.14c.04 0 .07.04.06.07-.08.19-.15.35-.16.56v.09a.5.5 0 0 1-.1.28c-.01.02-.03.02-.05 0l-.22-.4a.07.07 0 0 1 0-.07Zm1.03 4.64c-.02-.15.03-.25.14-.3a.1.1 0 0 0 .06-.09c0-.2.01-.41.04-.62 0-.09-.02-.17-.04-.26a1.77 1.77 0 0 1-.03-.1.1.1 0 0 1 0-.05c.03-.1.03-.16.02-.2a3.52 3.52 0 0 1-.1-.3l.01-.03.03-.02h.04c.07.02.12.06.14.13v.05c-.02.12 0 .23.06.34.02.03.02.08.01.16l-.07.56a.56.56 0 0 0 0 .28v.05a.68.68 0 0 1-.2.35.07.07 0 0 0-.03.04.2.2 0 0 1-.05.1.07.07 0 0 1-.05.03l-.2.03c-.03.01-.1-.01-.17-.08-.02 0-.02-.02 0-.04.04-.07.16-.1.24-.06a10.73 10.73 0 0 0 .15.04Zm3.2-1.22-.03.04c-.15.12-.3.28-.43.5a.47.47 0 0 1-.11.1l-.09.08c-.06.13-.06.23.01.3.07.06.1.05.08-.04 0-.07-.01-.1.03-.15.05-.05.09-.11.12-.17.05-.1.1-.15.12-.18a.63.63 0 0 0 .1-.14 13.78 13.78 0 0 1 .36-.34.1.1 0 0 0 0-.06 3.2 3.2 0 0 0-.26-.46c-.07-.03-.02.2-.02.22 0 .08.03.13.07.18l.04.07v.05Z" fill="#1D3F2E" fill-opacity=".8"/><path fill-rule="evenodd" d="m6.55 12.86-.05-.04c-.04-.02-.06-.05-.05-.1l.05-.07a.29.29 0 0 0 .05-.09.25.25 0 0 1 0-.13l.04-.04a.14.14 0 0 1 .08 0c.01 0 .02 0 .03.02.01.1.08.17.2.2.01 0 .01 0 0 0l-.15-.2c-.03-.04-.03-.08 0-.12.08-.12.2-.18.32-.15.18.04.3.15.38.32 0 .03 0 .05-.03.05-.1 0-.17.02-.21.05v.03l.22.21c.01.01.02.02.01.04-.06.16-.12.22-.3.27l-.17.06a.64.64 0 0 1-.24.07c-.02 0-.03-.01-.04-.03a.46.46 0 0 0-.41-.26c-.02 0-.05-.02-.05-.04l.01-.01c.1-.03.2-.03.3-.02.03 0 .04 0 .01-.02Zm.06.04c.07.05.15.11.23.2.02.02.06.03.1.03a.1.1 0 0 0 .1-.05c.07-.11-.22-.28-.28-.3-.02 0-.04 0-.05-.02l-.09-.14c-.03 0-.04.02-.02.06.03.06-.02.2.01.22Zm.28-.54.2.16c.04.02.08 0 .1-.03.07-.1.02-.2-.07-.27A.15.15 0 0 0 7 12.2a.18.18 0 0 0-.11.07c-.02.03-.03.06 0 .09Zm.1.3c.04.01.13.08.25.18l.02.05a.2.2 0 0 1-.12.15c-.07.03-.09.02-.04-.05l.04-.06a.09.09 0 0 0-.03-.12.6.6 0 0 1-.15-.14c-.01-.01-.02-.02-.01-.03l.03.01ZM9.43 13.68l-.04-.02a.04.04 0 0 1-.03-.04v-.33l.01-.05.02-.04v-.05a.32.32 0 0 0-.1-.06h-.04c-.07.07-.14.07-.21.01a.05.05 0 0 0-.05 0c-.06 0-.1.03-.1.08a.05.05 0 0 0 0 .05c.05.04.15.1.08.17-.12.1-.13.23-.03.37a.12.12 0 0 0 .15.03l.1-.05c.06-.04.09.05.13.07h.04a.2.2 0 0 0 .08-.1c.01-.02 0-.03-.01-.04Zm-.3-.25c.05.03.05.04-.02.04h-.04c-.04-.02-.07 0-.07.04-.01.15.08.2.2.16.03 0 .03-.02.03-.04l-.02-.36c0-.02 0-.03-.02-.03a.24.24 0 0 0-.13-.02l-.03.01c-.08.06.05.17.1.2Z" fill="#1D3F2E"/></svg>