<!-- by TradingView --><svg width="18" height="18" viewBox="0 0 18 18" xmlns="http://www.w3.org/2000/svg"><path fill="#F0F3FA" d="M0 0h18v18H0z"/><path d="M6.29 11.28a8.98 8.98 0 0 1-1.95-3.11A5.34 5.34 0 0 1 4 6.44a3 3 0 0 1 .1-.86C4.64 3.63 6.9 3.76 8.39 4.5c0 0 .01 0 0 0a4.62 4.62 0 0 0-1.95-.25c-1.2.1-1.8.91-1.8 1.99 0 .4.05.76.15 1.1.12.44.32.9.56 1.4-.14-.44-.2-.91-.23-1.4-.04-.56.06-1.22.64-1.48.49-.22 1.3 0 1.8.23-.04 0-.13 0-.24-.04-.73-.18-1.53-.08-1.62.76-.04.33-.01.68.08 1.03a11.63 11.63 0 0 0 .86 2.26l.04-.42c.04-.5.28-.86.7-1.09.13-.07.16-.04.08.08l-.17.27a1.8 1.8 0 0 0 .07 1.95 4.96 4.96 0 0 0 .63.79c0 .01 0 .03-.02.04l-.47.57a.07.07 0 0 1-.1.01c-.21-.16-.38-.29-.51-.37a3.57 3.57 0 0 0-2.04-.64 1.8 1.8 0 0 1 1.08-.1c.07.03.2.05.37.09Z" fill="#007516"/><path d="M11.35 6.45c.06.07.15.1.26.1.13 0 .23.14.15-.08 0-.03 0-.05.05-.05a5.68 5.68 0 0 1 .47.28l.46.31.03.04.01.1c0 .04.02.05.06.05.07.01.12.03.15.07.02.02.01.04-.02.06l-.14.07c-.03.01-.03.03-.01.05.02.03.06.05.1.07.03.01.04.03.04.05l-.02.03-.04.01a.31.31 0 0 1-.18-.06.06.06 0 0 0-.07 0 .24.24 0 0 1-.25 0c-.04-.02-.08-.08-.12-.18a.53.53 0 0 0-.14-.18v-.02l.02-.01h.02c.09.05.18.1.28.1.02 0 .04 0 .04-.03.01-.12-.11-.24-.27-.22a.85.85 0 0 1-.24 0c-.03 0-.02.04-.03.06 0 .02-.02.02-.04.02-.11-.02-.2-.07-.24-.17a.07.07 0 0 0-.02-.02.09.09 0 0 0-.04-.02l-.5-.07c-.06 0-.11.04-.1.1a.9.9 0 0 0 .24.33c.02.02.02.04 0 .06l-.09.1c-.02.02-.01.03 0 .05h.07c.1-.07.2-.08.3-.03a.1.1 0 0 0 .08 0c.06-.01.1-.05.15-.11a.2.2 0 0 1 .13-.09.23.23 0 0 1 .17.04c.1.08.14.18.11.32 0 .03 0 .04.04.05l.1.01c.07.01.1.07.07.12-.07.08-.08.16-.04.25.02.04.03.07.02.09-.03.05-.05.07-.07.08a.13.13 0 0 0-.06.05.1.1 0 0 0-.02.06v.12c-.03.03-.05.03-.07.01l-.2-.17-.01-.02v-.02l.02-.02.02-.01.15-.02c.03 0 .03-.01 0-.02l-.35-.15a.07.07 0 0 0-.08 0c-.04.04-.06.07-.06.1s.01.05.05.07l.06.04c.02.01.02.03 0 .04h-.1a.86.86 0 0 1-.36-.2l-.03-.01h-.03L10 8.16a.08.08 0 0 0-.05.03l-.13.15c-.06.06-.1.05-.09-.03v-.16c0-.01 0-.02-.02-.03a.88.88 0 0 0-.25-.14l-.21-.1c-.2-.08-.38-.03-.52.16-.05.07-.07.13-.06.2.04.2.23.1.37.1.19 0 .21.06.07.16L9 8.58c-.02.02-.02.04 0 .06.02.04.06.07.1.09a.1.1 0 0 1 .04.02l.02.04-.01.05a.1.1 0 0 1-.03.03c-.07.06-.11.13-.12.19 0 .03 0 .05.03.07l.18.13c.03.01.06.02.1.01.3-.06.47.16.66.37.05.05.09.13.12.25.03.1.08.18.18.26a.1.1 0 0 1 .03.05c.02.08.01.18-.02.3v.08l.38.46c.04.04.09.13.14.26a.1.1 0 0 1 0 .1l-.05.04a.16.16 0 0 1-.05.02l-.31.08a.15.15 0 0 0-.07.04.89.89 0 0 1-.44.28H9.8l-.24-.1a.08.08 0 0 0-.1 0 1.2 1.2 0 0 1-.61.24l-.03-.01-.74-.5a.16.16 0 0 1-.04-.05.14.14 0 0 1-.02-.12c0-.02.02-.04.03-.05l.42-.46a.16.16 0 0 0 .02-.19c-.06-.1-.13-.18-.1-.3l.06-.4c0-.08.03-.14.08-.19a.63.63 0 0 1 .18-.14l.37-.16c.06-.03.07-.1.04-.14a.1.1 0 0 0-.05-.03c-.15-.06-.22-.18-.2-.35a.1.1 0 0 0-.01-.06 2.24 2.24 0 0 0-.3-.41A.93.93 0 0 1 8.2 8a.08.08 0 0 1 0-.06c.05-.1.05-.23 0-.4l.02-.34v-.02h-.02c-.12-.02-.11.33-.12.4 0 .03-.07.02-.07 0-.01-.19.02-.37.08-.54a.1.1 0 0 0 0-.07c-.13-.38.15-.5.48-.63.26-.1.38-.44.43-.67l-.01-.07c-.05-.07-.17-.13-.36-.2a.95.95 0 0 1-.4-.2c-.13-.14-.1-.19.1-.14.1.03.5-.07.63-.07.15 0 .3.03.44.1.34.15.58.44.9.6.24.1.43.23.6.4h.03l.04-.08c.02-.03 0-.05-.03-.06-.06 0-.1-.03-.13-.05-.09-.1.34 0 .36.02.02 0 .1.08.21.2.07.08.17.14.29.18.02.01.03.03 0 .05-.1.1-.2.12-.3.08-.03-.02-.04-.02-.01.01ZM13.47 9.3c-.14.05-.23.1-.25.14-.08.13-.13.39-.38.33a.1.1 0 0 1-.06-.03.07.07 0 0 1-.01-.06l.05-.25c0-.03.02-.05.06-.04.05 0 .14.04.19 0 .04-.02.05-.07.02-.12a.66.66 0 0 0-.08-.11c-.02-.02-.02-.04 0-.06a1 1 0 0 0 .35-.42v-.03a.21.21 0 0 1-.03-.14c0-.03-.01-.04-.04-.05-.14-.03-.19-.11-.14-.25.07-.2.1-.32.08-.35l-.1-.33c-.04-.1.1-.12.18-.09.08.03.1.01.06-.06a5.52 5.52 0 0 1-.15-.27c-.07-.14-.04-.15.07-.01.04.05.1.11.15.2a3 3 0 0 1 .41 2.67A3.4 3.4 0 0 1 12.02 12v-.02c.22-.15.42-.3.61-.47.1-.09.16-.17.19-.25.02-.04-.01-.08-.06-.1a.1.1 0 0 0-.05 0l-.5.13h-.07a.09.09 0 0 1-.04-.04c-.08-.17-.16-.36-.03-.47a.12.12 0 0 0 .04-.06c.07-.2.13-.3.37-.47.09-.06.16-.12.22-.2l.16-.18a.11.11 0 0 1 .06-.03c.18-.03.33-.08.44-.17.08-.05.12-.03.11.05 0 .04.01.2.1.12.16-.14.3-.3.25-.48 0-.03-.02-.04-.05-.01l-.1.11c-.02.03-.05.03-.08.02-.05-.03-.07-.07-.07-.13 0-.03-.02-.04-.05-.03Z" fill="#ED1925"/><path d="M12.96 9.03h-.1c-.03-.02-.04-.03-.04-.06.01-.07.04-.13.1-.19a.1.1 0 0 0 .02-.06v-.07c.03-.14.07-.14.11 0 .02.07.07.16.15.26.04.06 0 .14-.06.17a.22.22 0 0 1-.08.03c-.04.01-.06 0-.06-.05 0-.03-.01-.04-.04-.03Z" fill="#F51929"/><path d="M13.66 11.3c.03.3.04.59-.01.87-.1.47-.3.88-.62 1.2-.03.04-.06.04-.1.01l-.27-.26a.06.06 0 0 1 0-.1c.58-.36.9-1.1 1-1.72ZM7.63 12.46c-.02-.02-.03-.04-.01-.06l.45-.54a.08.08 0 0 1 .12-.01c.33.32.7.6 1.13.84.02.02.03.04.02.06l-.3.57c0 .02-.03.03-.05.03h-.02a8.24 8.24 0 0 1-1.34-.9ZM11.45 13.36c-.3-.32-.42-.69-.35-1.1.03-.13.06-.13.1 0 .04.18.12.36.23.52.23.37.56.5.98.38h.06l.34.33a.07.07 0 0 1-.01.1c-.53.33-1.13.46-1.79.4-.07-.02-.1-.05-.08-.12l.07-.46c.01-.06.05-.08.12-.07l.32.04c.03 0 .03 0 .01-.02ZM9.23 13.5c-.02-.01-.03-.03-.02-.05l.24-.6c.02-.03.06-.05.1-.03.39.2.8.36 1.25.46.02 0 .04.03.03.05l-.1.58c0 .02-.01.03-.03.04h-.02c-.46-.1-.94-.24-1.45-.45Z" fill="#007516"/></svg>