<!-- by TradingView --><svg width="18" height="18" viewBox="0 0 18 18" xmlns="http://www.w3.org/2000/svg"><path fill="#F0F3FA" d="M0 0h18v18H0z"/><path d="M15 9A6 6 0 1 1 3 9a6 6 0 0 1 12 0Zm-.49 0A5.51 5.51 0 1 0 3.49 9a5.51 5.51 0 0 0 11.02 0ZM9.83 6.28c.03-.06.12-.1.28-.1h1.17c.05 0 .1.02.13.06.04.03.06.08.06.13v.6a.24.24 0 0 1-.08.18.26.26 0 0 1-.08.05l-.02.01a.2.2 0 0 1-.08.03h-.32c-.04 0-.06-.03-.05-.07.01-.16-.06-.28-.23-.34a.06.06 0 0 1-.03-.02v-.04c.02-.12 0-.18-.06-.2a.11.11 0 0 0-.1 0c-.02.01-.04.04-.04.07l.03.07c.03.06.01.1-.06.15-.03 0-.03.03-.01.05l.03.01h.02l.09-.07c.02-.01.04-.01.06.01a.1.1 0 0 1 0 .1 2.7 2.7 0 0 1-.12.27.06.06 0 0 1-.03 0 .33.33 0 0 1-.19-.07.07.07 0 0 0-.09 0l-.03.04a.12.12 0 0 1-.06.03c-.05 0-.1 0-.13-.04-.02-.01-.05-.01-.07 0l-.02.02v.01l-.04.02H9.4c-.03 0-.05-.03-.05-.06v-.77c0-.03.01-.07.03-.1a.22.22 0 0 1 .07-.07c.12-.08.19-.08.22-.02.03.07.01.1-.07.1a.22.22 0 0 0-.2.1.04.04 0 0 0 0 .04v.01l.03.01c.13.03.21 0 .26-.1a.12.12 0 0 1 .04-.04.1.1 0 0 1 .03-.02c.04 0 .06-.02.07-.04Zm.36.5.06-.02c.03 0 .03-.02 0-.04h-.07a2.98 2.98 0 0 0-.23.14.04.04 0 0 0 0 .06c.09.07.18.11.29.12l.03-.01c.01-.02 0-.04-.02-.05-.09-.04-.12-.09-.1-.14 0-.02.02-.04.04-.05Zm-2.3.52a.46.46 0 0 0-.1.06.15.15 0 0 1-.01.01h-.01l-.16-.12c-.03-.02-.03-.05-.01-.09l.02-.04c.01-.02.01-.04 0-.07-.08-.08-.15-.1-.22-.09a.07.07 0 0 0-.05.06c-.01.04 0 .08.04.12a.07.07 0 0 1 .01.07.16.16 0 0 1-.05.08c-.03.02-.04.01-.04-.03.01-.11-.04-.18-.15-.2-.03-.01-.05 0-.07.02l-.07.13a.07.07 0 0 0 .02.1l.36.2c.02.01.04.03.04.06 0 .1.01.18.04.25.01.02 0 .12-.01.14l-.06.06c-.03.02-.06.05-.07.08a.18.18 0 0 0 0 .11c0 .03 0 .05-.04.05-.01 0-.03 0-.05-.02-.04-.02-.07-.01-.1.02-.03.07-.07.1-.12.09A.06.06 0 0 1 7 8.29v-.04l.03-.03c.23-.13.34-.34.33-.5 0-.03-.02-.05-.06-.05a1 1 0 0 0-.18.02H7.1l-.02-.01c-.03-.02-.03-.03 0-.04.06-.03.1-.08.11-.15 0-.03 0-.05-.03-.06-.02-.02-.05-.01-.07 0l-.18.18c-.02.02-.02.04 0 .06l.07.07c.02.02.02.04 0 .05-.07.04-.1.18-.09.26v.01c0 .12.01.33.07.43.04.08.06.15.07.2.01.11.15.3.26.44l.07.08c.02.03.02.05 0 .07-.28.35-.46.67-.47 1.13v1.72c0 .03.02.05.05.05h1.13l.03-.01V10.53c0-.44.37-.84.82-.82h2.56v-1c0-.04 0-.07-.03-.06h-.48c-.04 0-.1.03-.1.07 0 .05.02.07.06.07h.04c.04 0 .05.02.05.05 0 .1-.03.19-.07.27l-.02.02h-.03c-.02 0-.02-.02-.02-.03a.62.62 0 0 0 0-.23.1.1 0 0 0-.05-.07c-.05-.02-.07-.06-.07-.1v-.02l-.03-.02h-.04a.07.07 0 0 0-.06.05c-.02.08-.1.15-.23.23h-.02c-.02-.02-.03-.03-.02-.06v-.01l.14-.14c.05-.04.06-.08-.01-.08H9.5c-.03 0-.05.03-.04.06v.03c.01.03 0 .04-.05.02a1.05 1.05 0 0 0-.49-.11c-.3 0-.48-.05-.68-.26-.07-.08-.12-.16-.16-.24l-.03-.05a.1.1 0 0 1-.01-.08c0-.4.15-.5.32-.63l.07-.05a.1.1 0 0 0 .04-.06l.02-.1c.01-.05.03-.05.05 0l.01.03c.02.02.06.03.09.03h.28c.04 0 .07-.02.07-.07v-.95c0-.03-.07-.04-.1-.04h-.16a.06.06 0 0 0-.06.04c-.03.08-.08.11-.13.1-.04 0-.06.01-.07.04a.77.77 0 0 1-.13.23.02.02 0 0 1-.02 0h-.01l-.1-.1a.06.06 0 0 1 .05-.1c.08 0 .13-.01.14-.03.06-.07.05-.12-.05-.14-.13-.03-.25-.02-.34.05a.05.05 0 0 0-.02.05v.04c0 .03-.02.03-.06 0l-.03-.02a.08.08 0 0 0-.08 0c-.18.1-.3.2-.35.26-.08.1-.16.19-.24.25-.1.08-.08.1.04.09.01 0 .03-.03.05-.09.02-.03.04-.04.06-.03.04 0 .07.03.1.06.02.02.04.02.06 0a.17.17 0 0 0 .03-.04.06.06 0 0 1 .05-.03h.04l.02.06c.02.07.07.1.15.08.03 0 .05 0 .04.04 0 .03-.02.06-.07.1l-.02.02v.06c0 .01 0 .02.02.03h.09a.04.04 0 0 1 .04.02v.02c0 .02-.02.04-.05.06Zm.18-.75c-.05-.05-.06-.1-.04-.13a.06.06 0 0 1 .08-.03c.06.04.07.09.03.16a.04.04 0 0 1-.03.02.05.05 0 0 1-.04-.02Zm.1.41c-.13.16-.2.23-.21.23-.01 0 .03-.1.13-.29.03-.06.07-.08.1-.06.04.03.03.07-.01.12Zm-.7.5c0-.05.01-.08.03-.1a.03.03 0 0 1 .05-.01c.03.02.04.04.03.06 0 .03-.02.06-.05.07-.03.02-.05.01-.05-.03Zm.45.22-.06.06-.03.07c0 .03-.02.04-.04.04-.05 0-.11-.01-.18-.04-.03 0-.04-.03-.04-.06 0-.04.06-.06.15-.07.03 0 .05-.02.05-.06v-.17c0-.02.01-.02.03 0a.5.5 0 0 1 .13.16c.01.03 0 .05-.01.07Zm-.99.36c0-.02.03-.05.07-.09l.01-.07v-.01l.04-.02a.04.04 0 0 1 .04.01v.11c-.02.05-.06.09-.12.11-.04.01-.05 0-.04-.04Z" fill="#03539B"/></svg>