<!-- by TradingView --><svg width="18" height="18" viewBox="0 0 18 18" xmlns="http://www.w3.org/2000/svg"><path fill="#F0F3FA" d="M0 0h18v18H0z"/><path fill-rule="evenodd" d="M9.18 13.43a.02.02 0 0 0-.03.02l.1 1.53a.02.02 0 0 1 0 .01.02.02 0 0 1-.02.01 3.57 3.57 0 0 1-2.88-1.86 11.74 11.74 0 0 1-.31-.59.08.08 0 0 0-.12.02l-.88 1.06-.01.01a.04.04 0 0 1-.05 0 3.68 3.68 0 0 1-.83-1.78 3.76 3.76 0 0 1 .14-2.14c.04-.12.05-.22.05-.35v-.02l-.03-.01h-.3a17.02 17.02 0 0 1-1 .09A.04.04 0 0 1 3 9.4a3.57 3.57 0 0 1 2.02-2.95l.16-.1.11-.08a.06.06 0 0 0 .03-.07l-.02-.02a2 2 0 0 0-.41-.35 5.69 5.69 0 0 1-.67-.5l.03-.02c.07-.07.15-.17.24-.23a3.82 3.82 0 0 1 1.69-.75 4.48 4.48 0 0 1 2.58.32.03.03 0 0 0 .04-.02v-.01c0-.28-.02-.55-.06-.82a6.32 6.32 0 0 1-.04-.51c0-.1 0-.18-.02-.26 0-.02.01-.03.03-.03l.09.01c.22.02.52.06.77.14l.1.03c.12.04.28.09.4.15.78.4 1.36 1.05 1.73 1.83a29.84 29.84 0 0 1 .33.68.03.03 0 0 0 .02-.01l.25-.33a7.01 7.01 0 0 1 .73-.86.05.05 0 0 1 .03.02c.08.08.16.17.22.28.43.67.56 1.44.51 2.24-.02.44-.14.8-.28 1.24l-.03.08-.05.14a1.64 1.64 0 0 0-.08.24.04.04 0 0 0 .02.03h.02l1.16-.13c.11-.02.22-.02.32 0 .02 0 .03 0 .03.03l-.06.4c-.15.89-.87 1.63-1.56 2.1-.1.08-.26.18-.5.3-.08.06-.15.1-.22.13a2.04 2.04 0 0 0-.36.24.05.05 0 0 0 0 .04l.02.02 1.14.84a.03.03 0 0 1 .02.02.03.03 0 0 1-.02.03l-.2.15c-.91.64-1.95.84-3.1.6a4.41 4.41 0 0 1-.92-.24l-.06-.01ZM13.25 9a4.25 4.25 0 1 1-8.5 0 4.25 4.25 0 0 1 8.5 0Zm-7.07 1.91a1.6 1.6 0 0 1-1.03-.67 4.5 4.5 0 0 0 1.52 2.02 4 4 0 0 0 6.2-2.3c-.2 0-.3-.09-.34-.26-.06-.3-.12-.56-.19-.78a.58.58 0 0 0-.33-.4c-.44-.17-.71.24-.87.57l-.26.62c-.15.4-.44.76-.9.8-.26.02-.54-.27-.73-.47-.1-.11-.2-.3-.32-.54l-.28-.57c-.06-.13-.06-.25.01-.36.07-.1.16-.15.27-.13.2.02.26.13.33.32.13.4.34.73.63 1.02l.14.1a.06.06 0 0 0 .06-.02c.06-.05.1-.11.13-.18l.09-.22c.27-.67.6-1.52 1.43-1.58.63-.04 1.12.49 1.26 1.07a3.98 3.98 0 0 0-2.43-3.61c-.7-.3-1.39-.4-2.09-.3-.48.07-.88.19-1.2.35a4.77 4.77 0 0 0-1.39 1.09 4.04 4.04 0 0 0-.78 3.4.03.03 0 0 0 .03-.01c.13-.13.38-.2.52-.04l.08.1c.1.11.2.22.32.27.43.21 1.33.05 1.67-.27.18-.18.34-.38.2-.63-.11-.2-.7-.18-1-.17h-.11c-.25 0-.5-.08-.78-.25a.87.87 0 0 1-.34-1.05c.06-.17.14-.3.23-.4.33-.34.74-.55 1.23-.55.63-.01 1.17.2 1.63.64.18.16.34.32.28.52-.05.16-.16.24-.33.22-.09-.01-.15-.03-.18-.06l-.38-.4c-.23-.24-.61-.33-.93-.33-.34.01-.6.15-.82.41-.15.17-.2.43.03.55.17.1.35.1.58.1.53.01 1.03.1 1.4.5.15.18.2.38.16.62-.04.23-.12.42-.25.55-.14.15-.27.28-.44.38a2.65 2.65 0 0 1-1.73.33Z" fill="#DA1612"/></svg>