<!-- by TradingView --><svg width="18" height="18" viewBox="0 0 18 18" xmlns="http://www.w3.org/2000/svg"><path fill="#F20" d="M0 0h18v18H0z"/><path d="M9 4c.38 0 .64.15.7.53a103.9 103.9 0 0 1 .35 1.9l.01.01h.03l1.58-1.1c.32-.22.6-.14.87.13s.34.55.12.87a101.7 101.7 0 0 1-1.1 1.6v.01l.02.02 1.89.33c.38.07.53.33.53.7 0 .38-.15.64-.53.7a98.66 98.66 0 0 1-1.91.36v.03l1.1 1.58c.22.32.14.6-.13.87s-.55.34-.87.12a96.04 96.04 0 0 1-1.6-1.1h-.01l-.02.02-.33 1.9c-.07.37-.32.52-.7.52-.38 0-.64-.15-.7-.53a103.68 103.68 0 0 1-.36-1.91H7.9l-1.57 1.1c-.32.22-.6.14-.87-.13s-.34-.55-.12-.87a95.78 95.78 0 0 1 1.1-1.6v-.01l-.02-.02c-.68-.11-1.32-.22-1.89-.33C4.15 9.63 4 9.38 4 9c0-.38.15-.64.53-.7a98.46 98.46 0 0 1 1.91-.36V7.9l-1.1-1.58c-.22-.32-.14-.6.13-.87s.55-.34.87-.12a95.89 95.89 0 0 1 1.6 1.1h.01l.02-.02.33-1.9c.07-.37.32-.52.7-.52Z" fill="#fff"/></svg>