<!-- by TradingView --><svg xmlns="http://www.w3.org/2000/svg" width="18" height="18"><path fill="#051AA7" d="M0 0h18v18H0z"/><path fill-rule="evenodd" d="M12 4.02l3 5.04-1.54 2.43L12.01 14l-3.28-.01-2.7-.01L3 9.06 5.98 4l6.03.02zm-2.99.3A4.7 4.7 0 0113.74 9 4.7 4.7 0 019 13.69a4.67 4.67 0 11-3.68-7.63V7H6v5h1V7h.67V6H5.38a4.72 4.72 0 013.63-1.69zM11.44 6c-.76 0-1.1.56-1.1 1.14v.61c0 .2.02.37.06.49.04.12.1.24.18.36l.94 1.13c.1.14.15.35.15.52v.6c0 .1-.01.28-.17.28s-.17-.17-.17-.27V10h-1v.77c0 .61.35 1.23 1.17 1.23a1.1 1.1 0 001.17-1.14v-.68c0-.27-.02-.46-.06-.59a.973.973 0 00-.18-.35l-.98-1.18a.7.7 0 01-.12-.4v-.52c0-.1 0-.3.16-.3s.18.16.18.26V8h1v-.82c0-.6-.45-1.18-1.23-1.18zM7.8 6l.7 6h1l.7-6h-.9L9 10.3 8.7 6h-.9z" fill="#fff"/></svg>