<!-- by TradingView --><svg width="18" height="18" viewBox="0 0 18 18" xmlns="http://www.w3.org/2000/svg"><path fill="#F0F3FA" d="M0 0h18v18H0z"/><path d="M8.88 5.44c-.12-.02-.15.03-.1.13.1.16.18.32.25.48.03.07.02.08-.04.04l-.69-.51a.8.8 0 0 0-.56-.15 5.34 5.34 0 0 0-2.93 1.14.03.03 0 0 1-.02-.03c-.02-.3.07-.6.29-.92a2.28 2.28 0 0 1 .71-.68 13.1 13.1 0 0 0 .76-.48c.22-.19.39-.4.5-.67.1-.22.19-.46.26-.71.02-.1.06-.1.1-.01.1.21.13.46.1.74-.03.24-.1.49-.2.72v.06l.05.04a5.75 5.75 0 0 1 2.83 1.05 11.16 11.16 0 0 0-1.31-.24Z" fill="#DBA20F"/><path d="m11.3 6.23-.2.61c-.01.02-.03.03-.05.02a7.37 7.37 0 0 0-.18-1.01.68.68 0 0 0-.25-.37 5.43 5.43 0 0 0-2.9-1.27v-.05c.56-.46 1.2-.6 1.93-.39.21.07.43.12.66.16.26.05.55.02.86-.07.26-.08.53-.21.78-.38.08-.06.1-.04.07.05-.1.25-.25.46-.45.62a3.2 3.2 0 0 1-.65.4.06.06 0 0 0-.04.04 5.38 5.38 0 0 1 1.28 2.78l-.79-1.16a.04.04 0 0 0-.04-.01.04.04 0 0 0-.04.03Z" fill="#DBA20F"/><path d="M12.65 8.49c0-.05-.03-.06-.07-.03l-.43.27c-.14.08-.17.06-.08-.08.15-.22.3-.45.44-.7.07-.12.1-.28.1-.48a5.46 5.46 0 0 0-1.3-2.93s0-.02.02-.02c.39-.02.75.1 1.1.35.28.21.53.51.75.9.34.59.9.95 1.72 1.08.13.02.13.06.01.11-.22.1-.47.15-.73.14a2.7 2.7 0 0 1-.73-.15l-.05.01a5.77 5.77 0 0 1-.85 2.9c-.05.07-.06.06-.05-.01l.14-1.03a1.2 1.2 0 0 0 0-.33ZM4.55 7.13a.1.1 0 0 0 .07.06.1.1 0 0 0 .08-.02c.34-.31.72-.58 1.15-.8.35-.17.78-.34 1.3-.5.27-.08.29-.05.05.11a14.42 14.42 0 0 0-.98.75c0 .01 0 .03.02.04.03.03.06.04.1.05.16.02.31.06.45.12.09.04.09.06-.01.08-.3.05-.6.1-.88.17-.14.03-.28.13-.41.3a5.41 5.41 0 0 0-1.17 2.88c0 .02-.02.04-.03.04l-.05-.01a1.87 1.87 0 0 1-.48-1.1 3.7 3.7 0 0 1 .16-1.24c.09-.31.09-.64 0-.98a2.68 2.68 0 0 0-.42-.92.11.11 0 0 1-.02-.08l.01-.03h.04c.47.21.81.57 1.02 1.08Z" fill="#DBA20F"/><path d="M12.02 11.04a.31.31 0 0 0-.11-.03 2.04 2.04 0 0 1-.47-.1c-.06-.02-.06-.04 0-.06l.8-.22c.16-.04.3-.13.42-.26a2.67 2.67 0 0 0 .28-.44c.48-.86.72-1.71.72-2.55 0-.13.05-.15.13-.06.45.47.63 1.04.53 1.73l-.03.24a5.8 5.8 0 0 0-.07.53c-.01.2 0 .37.04.51.12.44.3.81.56 1.12.07.1.06.12-.06.08-.48-.17-.83-.5-1.06-.99a.09.09 0 0 0-.07-.05c-.03 0-.06 0-.08.03a5.56 5.56 0 0 1-2.53 1.54c-.08.02-.08 0-.02-.04.38-.3.73-.59 1.05-.88.04-.04.03-.07-.03-.1ZM5.44 9.58l.16-.11c.17-.11.3-.18.36-.2.07 0 .08.01.04.07-.18.26-.35.51-.5.76-.07.13-.1.3-.07.5.07.5.21 1.01.43 1.5.23.54.52.97.86 1.31.07.07.06.11-.05.1-.4 0-.77-.12-1.09-.37a3.1 3.1 0 0 1-.76-.92 1.91 1.91 0 0 0-.64-.65 2.34 2.34 0 0 0-.85-.34l-.28-.05c-.06-.01-.07-.03-.01-.06.46-.24.96-.25 1.48-.04a.1.1 0 0 0 .1-.01.1.1 0 0 0 .05-.1c0-.91.27-1.83.78-2.75.08-.14.1-.13.07.02-.08.4-.13.84-.15 1.3 0 .05.02.06.07.04Z" fill="#DBA20F"/><path d="m11.41 13.3-.01-.06a5.65 5.65 0 0 1-2.95-.63l.02-.01 1.11.05c.09 0 .17 0 .25-.02l.03-.03v-.04a7 7 0 0 0-.37-.5l.02-.04h.04c.26.15.52.3.77.42.16.08.32.1.5.06a5.24 5.24 0 0 0 2.8-1.56c.02 0 .03.02.03.03.05.64-.18 1.18-.68 1.63-.06.07-.17.16-.32.27-.14.1-.24.19-.3.25-.11.1-.2.19-.27.28-.27.37-.42.83-.46 1.39 0 .11-.04.12-.1.02-.12-.23-.19-.48-.2-.74 0-.2.03-.45.1-.77Z" fill="#DBA20F"/><path d="M7.13 12.1c.05-.15.07-.34.09-.54 0-.02 0-.03.02-.04h.03l.02.01.24.8c.07.2.2.37.4.48.99.6 2 .87 3 .82.05 0 .06.01.02.05-.28.35-.63.56-1.05.64-.17.04-.38.05-.6.04-.18 0-.4-.02-.67-.06-.3-.04-.62 0-.94.13-.3.12-.57.3-.83.53-.07.07-.1.05-.08-.05.04-.23.15-.45.33-.65.16-.18.37-.34.6-.47a.07.07 0 0 0 .05-.06c0-.03 0-.05-.03-.07a5.65 5.65 0 0 1-1.64-2.52c.01-.02.02-.02.04 0 .25.33.55.67.9 1 .05.04.08.03.1-.03Z" fill="#DBA20F"/></svg>