<!-- by TradingView --><svg width="18" height="18" viewBox="0 0 18 18" xmlns="http://www.w3.org/2000/svg"><path fill="#F0F3FA" d="M0 0h18v18H0z"/><path d="M12.41 7.83c.23.58-1.12 1.57-3 2.21-1.89.64-3.6.7-3.82.13-.23-.58 1.12-1.57 3-2.21 1.89-.64 3.6-.7 3.82-.13Z" fill="url(#a)"/><path d="M8.8 4A5.39 5.39 0 0 1 13 6.29c-.34-.04-1.22-.16-1.8-.16-3.05 0-5.96 2.67-5.96 3.95 0 .75 1.08.83 1.64.77-.19.05-.66.15-1.1.15C5.23 11 4 10.8 4 9.04A4.86 4.86 0 0 1 8.8 4Z" fill="url(#b)"/><path d="M10.9 4.5c-.61-.3-1.31-.5-2.1-.5a4.83 4.83 0 0 0-4.79 4.65c1.4-3.35 4.9-4.16 6.88-4.15Z" fill="url(#c)"/><path d="M9.2 14A5.39 5.39 0 0 1 5 11.71c.34.04 1.17.16 1.74.16 3.06 0 6.02-2.67 6.02-3.95 0-.75-1.08-.83-1.64-.77.19-.05.66-.15 1.1-.15.55 0 1.78.2 1.78 1.96A4.86 4.86 0 0 1 9.2 14Z" fill="url(#d)"/><path d="M7.1 13.5c.61.3 1.31.5 2.1.5 2.55 0 4.6-1.98 4.79-4.65-1.4 3.35-4.9 4.16-6.88 4.15Z" fill="url(#e)"/><defs><linearGradient id="a" x1="12.45" y1="7.82" x2="5.69" y2="10.38" gradientUnits="userSpaceOnUse"><stop stop-color="#0A4C8A"/><stop offset="1" stop-color="#0990D0"/></linearGradient><linearGradient id="b" x1="13" y1="5.76" x2="3.98" y2="9.19" gradientUnits="userSpaceOnUse"><stop stop-color="#F7B208"/><stop offset=".27" stop-color="#F9C605"/><stop offset="1" stop-color="#F07110"/></linearGradient><linearGradient id="c" x1="11.3" y1="4.7" x2="4" y2="8.33" gradientUnits="userSpaceOnUse"><stop stop-color="#169ED1"/><stop offset="1" stop-color="#274A70"/></linearGradient><linearGradient id="d" x1="13.43" y1="7.46" x2="5.1" y2="11.93" gradientUnits="userSpaceOnUse"><stop stop-color="#1CBAEB"/><stop offset="1" stop-color="#066DCC"/></linearGradient><linearGradient id="e" x1="14.13" y1="10.14" x2="7.11" y2="13.57" gradientUnits="userSpaceOnUse"><stop stop-color="#04A3E6"/><stop offset="1" stop-color="#0753AB"/></linearGradient></defs></svg>