<!-- by TradingView --><svg width="18" height="18" viewBox="0 0 18 18" xmlns="http://www.w3.org/2000/svg"><path fill="#F0F3FA" d="M0 0h18v18H0z"/><path d="M8.3 4.84V4.8a2.42 2.42 0 0 0-.01-.5.2.2 0 0 1 .04-.1.2.2 0 0 1 .06-.06.91.91 0 0 1 .28-.1L8.89 4h.17c.09.02.15.1.19.22a3.81 3.81 0 0 0 .17.42c.02.04.05.08.1.12.11.1.24.11.37.06a.37.37 0 0 0 .1-.06.44.44 0 0 0 .07-.06.63.63 0 0 0 .15-.28c.02-.12.06-.22.1-.3a.17.17 0 0 1 .1-.1.31.31 0 0 1 .1-.01c.13 0 .27.02.41.07.11.04.17.1.19.18l.02.12a.7.7 0 0 1 0 .14l-.01.01v.08a1.35 1.35 0 0 0 .02.26.35.35 0 0 0 .24.27l.04.01h.04l.1-.01a.37.37 0 0 0 .16-.09.86.86 0 0 0 .14-.18l.1-.13a.37.37 0 0 1 .13-.1h.02l.13.05a1.34 1.34 0 0 1 .33.26l.02.03c.01.04.02.1.01.14a.74.74 0 0 1-.05.17 14.36 14.36 0 0 0-.1.31l-.01.05v.06a.2.2 0 0 1 0 .03l.05.14c.03.05.06.1.1.12l.1.04h.08a.3.3 0 0 0 .12-.03 5.89 5.89 0 0 0 .33-.22c.03 0 .07 0 .1.02a.4.4 0 0 1 .1.1c.05.08.1.17.13.26.02.06.02.11.01.17a.37.37 0 0 1-.1.18.87.87 0 0 0-.18.26.5.5 0 0 0-.04.25c.02.12.07.2.18.23.05.02.11.02.17 0a12.72 12.72 0 0 1 .18-.06h.1c.02 0 .04.01.04.03a1.34 1.34 0 0 1 .09.4v.1l-.02.05a.33.33 0 0 1-.09.13.64.64 0 0 1-.34.13h-.13a1.05 1.05 0 0 1-.12-.2 6.86 6.86 0 0 0-.22-.43 2.21 2.21 0 0 0-.67-.72 3.28 3.28 0 0 0-2.33-.57 3.7 3.7 0 0 0-1.65.6 3.7 3.7 0 0 0-.9.73 8.85 8.85 0 0 0-.61.78 3.3 3.3 0 0 0-.44.96 5.89 5.89 0 0 0-.17 1.28 3.17 3.17 0 0 0 .25 1.2 3.25 3.25 0 0 0 .63.9c.23.21.5.4.8.53a3.29 3.29 0 0 0 1.28.28 51.37 51.37 0 0 0 .3.02 1.89 1.89 0 0 0-.2.37c-.03.08-.1.14-.2.17a1 1 0 0 1-.35.05.41.41 0 0 1-.11-.02l-.01-.01a.32.32 0 0 1-.03-.14v-.02l-.01-.02-.01-.15c-.03-.07-.08-.11-.18-.14a.3.3 0 0 0-.14 0 .44.44 0 0 0-.19.1l-.16.16-.12.15c-.05.05-.1.08-.13.08h-.1a.5.5 0 0 0-.07 0H7.5a2.24 2.24 0 0 1-.3-.09l-.01-.02a3.43 3.43 0 0 0 0-.14 4.4 4.4 0 0 1 .08-.26v-.07a.27.27 0 0 0-.24-.18H7a.2.2 0 0 0-.08 0 .7.7 0 0 0-.22.06.73.73 0 0 0-.16.11.7.7 0 0 1-.18.13.27.27 0 0 1-.12.02c-.04 0-.08 0-.11-.02a.86.86 0 0 1-.38-.28v-.01l.01-.04v-.03a.49.49 0 0 1 .08-.12l.12-.16a.38.38 0 0 0 .06-.21v-.04l-.01-.02a.3.3 0 0 0-.13-.16.33.33 0 0 0-.07-.03l-.03-.01-.05-.01a.77.77 0 0 0-.34.05 4 4 0 0 0-.23.1c-.1.04-.2.02-.27-.06a1.5 1.5 0 0 1-.22-.28.3.3 0 0 1-.05-.21c0-.03.03-.05.05-.07a2.89 2.89 0 0 0 .27-.19c.06-.04.1-.08.14-.14.04-.05.06-.1.06-.16a.36.36 0 0 0-.14-.31.34.34 0 0 0-.2-.09h-.33a.6.6 0 0 1-.24 0 .2.2 0 0 1-.14-.12.97.97 0 0 1-.07-.23 1.42 1.42 0 0 1-.02-.4c.05-.04.1-.08.17-.1l.22-.07.18-.06a.5.5 0 0 0 .28-.3c.04-.12 0-.24-.1-.34a.53.53 0 0 0-.08-.08c-.1-.07-.22-.12-.35-.16a2.83 2.83 0 0 1-.17-.06c-.08-.03-.13-.08-.14-.15a.58.58 0 0 1 .01-.23V8.7l.01-.02.02-.08a3.67 3.67 0 0 1 .1-.32.16.16 0 0 1 .07-.07 151.9 151.9 0 0 0 .82-.04c.02 0 .02-.01.03-.02l.1-.1a.34.34 0 0 0 .08-.1.7.7 0 0 0 .06-.15v-.07l.01-.02a.5.5 0 0 0-.03-.15.85.85 0 0 0-.26-.3 1.51 1.51 0 0 1-.14-.13.46.46 0 0 1-.1-.15.23.23 0 0 1 0-.18l.13-.21.19-.25a.32.32 0 0 1 .1-.1c.08-.03.17-.02.28.02a4.25 4.25 0 0 1 .4.18l.08.02c.1 0 .18 0 .25-.03a.43.43 0 0 0 .3-.37v-.19a.93.93 0 0 0-.07-.22 4.37 4.37 0 0 0-.14-.33.33.33 0 0 1 0-.13c.01-.06.05-.1.1-.14a5.83 5.83 0 0 1 .54-.33h.12c.06.03.12.08.18.15l.12.15c.03.04.08.1.15.15a.4.4 0 0 0 .14.08l.16.02c.16 0 .3-.08.39-.22a.42.42 0 0 0 .05-.1l.03-.12Z" fill="#0A0141"/><path d="M12.96 7.99V8h-.58l-.01-.01c-.05-.2-.14-.38-.27-.56a5.8 5.8 0 0 0-.38-.46 2.3 2.3 0 0 0-.4-.27 62.36 62.36 0 0 1-.3-.18c-.02-.02-.02-.02 0-.02a2.25 2.25 0 0 1 1.44.75 2.88 2.88 0 0 1 .5.74Z" fill="#FF6601"/><path d="M9.9 9.26c0 .07 0 .16.03.23.01.04.04.08.08.1.03.03.08.04.13.04a502.34 502.34 0 0 1 3.14.02c.05 0 .13.03.24.06l.2.1a.73.73 0 0 1 .25.43 2.74 2.74 0 0 1 .02.48v.13l-.06.19c-.08.2-.25.34-.5.4a1.9 1.9 0 0 1-.44.06H9.2v-.76.01h3.68l.11-.02a.2.2 0 0 0 .13-.17v-.05c.01-.04.02-.08.01-.1l-.01-.01a8151.87 8151.87 0 0 0-3.25-.01c-.11 0-.23-.03-.36-.07a.67.67 0 0 1-.47-.47c-.03-.1-.04-.2-.04-.3L9 9.49c0-.22.01-.38.06-.53.04-.1.1-.18.18-.25a.76.76 0 0 1 .3-.14 1.69 1.69 0 0 1 .52-.06 7246.52 7246.52 0 0 1 3.72.01v.73l-.02.01H9.92l-.02.01Z" fill="#0A0141"/><path d="M9.38 12.32a4.6 4.6 0 0 0 .94-.27l.03-.02.02-.02.39-.21c.08-.05.16-.1.24-.13h.06l.04-.01a63.03 63.03 0 0 1 1.08.01 12.9 12.9 0 0 1-.3.32 4.42 4.42 0 0 1-1.15.74 3.39 3.39 0 0 1-2 .2 2.54 2.54 0 0 1-.62-.21 2.15 2.15 0 0 1-.64-.47.92.92 0 0 0-.14-.14 2.75 2.75 0 0 1-.47-.73 1.4 1.4 0 0 1-.08-.28V11a3.09 3.09 0 0 0 .43.59 2.4 2.4 0 0 0 1.73.76 1.39 1.39 0 0 0 .27-.02h.07l.05-.01a.4.4 0 0 0 .05 0Z" fill="#FF6601"/></svg>