<!-- by TradingView --><svg width="18" height="18" viewBox="0 0 18 18" xmlns="http://www.w3.org/2000/svg"><path fill="#F0F3FA" d="M0 0h18v18H0z"/><path d="m12.5 8.93.01-.03c.04-.67.3-1.2.79-1.57.16-.12.35-.22.56-.27.7-.2 1.39.12 1.8.76.27.41.38.88.33 1.4-.1 1-.84 1.77-1.7 1.78a1.63 1.63 0 0 1-1.14-.46v-.02a.07.07 0 0 1 0-.05 2.35 2.35 0 0 0 .5-1.04h.03c.18.29.4.4.68.34.27-.05.46-.23.55-.53.06-.2.04-.4-.04-.58a.73.73 0 0 0-.27-.33.65.65 0 0 0-.36-.11c-.28 0-.48.15-.6.44-.06.1-.06.26-.08.4v.04c-.04.67-.3 1.2-.78 1.57-.17.12-.36.22-.57.27-.7.2-1.38-.12-1.8-.76-.27-.41-.38-.88-.33-1.4.1-1 .84-1.77 1.71-1.78a1.63 1.63 0 0 1 1.13.46.07.07 0 0 1 0 .07 2.35 2.35 0 0 0-.5 1.04h-.03c-.18-.29-.4-.4-.68-.34-.27.05-.46.23-.54.53-.06.2-.05.4.03.58.07.15.15.26.27.33.11.08.23.11.36.11.28 0 .48-.15.61-.44.05-.1.06-.26.07-.4ZM3.98 9.96c.1-.32-.28-.53-.47-.6a4.82 4.82 0 0 1-.88-.32c-.42-.2-.63-.62-.55-1.14.08-.45.42-.78.81-.86.3-.06.58-.05.85.03.4.12.66.4.7.94 0 .05-.02.08-.06.08h-.45l-.03-.02-.01-.03c-.07-.4-.3-.48-.6-.5-.25 0-.78.16-.66.58.07.23.16.24.36.35l.27.1c.38.1.72.22 1.02.48.08.06.13.14.17.25.27.74-.14 1.51-.8 1.66-.3.06-.59.05-.9-.04-.44-.12-.74-.61-.75-1.11v-.02l.01-.01.01-.01h.51l.02.03c.02.13.03.24.08.33.06.11.14.19.24.23.4.19.96.12 1.11-.4ZM7.07 9.96c.1-.32-.28-.53-.48-.6a4.82 4.82 0 0 1-.88-.32c-.41-.2-.62-.62-.54-1.14.08-.45.42-.78.81-.86.3-.06.58-.05.85.03.4.12.66.4.7.94 0 .05-.02.08-.06.08h-.45l-.03-.02-.01-.03c-.07-.4-.3-.48-.6-.5-.26 0-.78.16-.66.58.06.23.16.24.36.35l.26.1c.39.1.73.22 1.03.48.08.06.13.14.17.25.27.74-.14 1.51-.8 1.66-.3.06-.59.05-.9-.04-.44-.12-.74-.61-.75-1.11v-.03l.02-.01h.51l.02.03c.02.13.03.24.08.33.06.11.14.19.24.23.4.19.96.12 1.11-.4ZM8.4 7h1.56l.03.01.01.03v3.92l-.01.03-.03.01h-.9l-.03-.01-.03-.03V7.74l-.02-.01H8.4s-.02 0-.02-.02l-.02-.03v-.64s0-.02.02-.03L8.4 7Z" fill="#E7162A"/></svg>