<!-- by TradingView --><svg width="18" height="18" viewBox="0 0 18 18" xmlns="http://www.w3.org/2000/svg"><path fill="#008D84" d="M0 0h18v18H0z"/><path d="M10.3 11.53c.03 0 .03-.01.03-.04V9.48c0-.04 0-.05-.04-.05l-3.1.01a4.2 4.2 0 0 1-2.1-.53.15.15 0 0 1-.09-.14v-2.9a.22.22 0 0 1 .07-.17A2.41 2.41 0 0 1 6.72 5h6.22c.04 0 .06.03.06.07v1.36c0 .02 0 .04-.03.06a.09.09 0 0 1-.05.02H7.77c-.07 0-.1.03-.1.1v1.32c0 .06.03.07.1.07h3.05c.85 0 1.49.17 2.1.67a.22.22 0 0 1 .08.16v3.41c0 .08-.03.14-.08.19-.44.37-.87.57-1.28.57H5.13c-.06 0-.13-.03-.13-.08V11.6c0-.02.05-.03.07-.05a.08.08 0 0 1 .05-.02h5.18Z" fill="#fff"/></svg>