<!-- by TradingView --><svg width="18" height="18" viewBox="0 0 18 18" xmlns="http://www.w3.org/2000/svg"><path fill="#F0F3FA" d="M0 0h18v18H0z"/><path d="M9.23 12.6c.1 0 .19-.02.28-.03a3.2 3.2 0 0 0 2.38-1.37l1.05 1.1v.02a.38.38 0 0 0-.1.15 1089.11 1089.11 0 0 0-.61 1.5l-.53-.63h-.02a5.45 5.45 0 0 1-5.31-.05l-.53.62h-.01l-.72-1.7v-.01l.01-.01a1526.6 1526.6 0 0 0 1.07-1.12c.46 1.04 1.57 1.51 2.72 1.54a.6.6 0 0 0 .06 0v-.01c-.3-.31-.64-.58-1.02-.8-.4-.25-.82-.44-1.22-.67a.4.4 0 0 1-.12-.09c-.24-.3-.41-.65-.44-1.01a1.6 1.6 0 0 1 .08-.64 2.39 2.39 0 0 1 .1-.27h-.68l-.02.03a6.83 6.83 0 0 0 .31 1.14 1.8 1.8 0 0 1-.75-.3l-.38.74-.02.02h-.07l-.02-.03a2.85 2.85 0 0 0-.21-.53l-.35-.61c-.22-.39-.19-.81-.06-1.24a.7.7 0 0 1 .08-.16l.1-.2a.92.92 0 0 0 .06-.2l.08-.37A4.3 4.3 0 0 1 6.27 4.9l-.13-.15-.34.17h-.02a5.47 5.47 0 0 1-.26-.43A5.8 5.8 0 0 0 7.3 3.44l.2.25h.02c.19-.07.4-.1.6-.13a11.66 11.66 0 0 1 .75-.09l.31-.46a.01.01 0 0 1 .02 0l.28.47.03.02.02.01.24.05.63.1a1.65 1.65 0 0 1 .45.13l.02-.01.21-.24h.02a8.17 8.17 0 0 0 1.69 1.2l-.34.42v.01h-.02L12.18 5a.02.02 0 0 0-.03 0l-.11.15v.02a4.6 4.6 0 0 1 1.66 2.75c0 .06.04.15.1.26.06.13.1.27.15.4a1.22 1.22 0 0 1-.09.93c-.1.2-.18.4-.26.61a3 3 0 0 0-.15.56l-.02.01h-.08L13 9.84a.02.02 0 0 0 0-.01.02.02 0 0 0-.03 0l-.65.46h-.02l-.05-.03c-.01-.01-.02-.02-.01-.04.14-.36.23-.74.28-1.13 0-.02-.01-.02-.03-.02h-.75a.01.01 0 0 0-.01 0v.01c.12.22.18.45.2.68.01.32-.08.65-.23.93-.17.33-.5.54-.84.7-.38.19-.77.37-1.1.63a2.86 2.86 0 0 0-.53.57Z" fill="#811C19"/><path d="M7.49 3.82c.1-.05.21-.1.33-.12l.36-.05a12.09 12.09 0 0 1 .74-.08l.25-.38a.01.01 0 0 1 .02 0l.22.35c.02.03.05.05.08.06l.2.04.58.08a1.6 1.6 0 0 1 .6.2l.01-.02.2-.22a.02.02 0 0 1 .02 0 .02.02 0 0 1 .01 0 8 8 0 0 0 .72.57l-.21.34a.02.02 0 0 1-.02 0c-.35-.2-.7-.36-1.07-.49a4.82 4.82 0 0 0-3.93.35h-.02l-.17-.27v-.02a6.38 6.38 0 0 0 .87-.59l.19.25h.02Z" fill="#F0F3FA"/><path d="M9.71 4a5.47 5.47 0 0 1 1.84.7l-.06.08c0 .01-.01.02-.02.01a5.4 5.4 0 0 0-2.83-.67 5.45 5.45 0 0 0-1.94.53l-.06-.1v-.01c.5-.26 1.01-.43 1.54-.53.5-.09 1.02-.1 1.53 0ZM6.32 4.22l-.23.12.28.48.23-.12-.28-.48Z" fill="#F0F3FA"/><path d="M5.44 7.95a.04.04 0 0 0-.03-.01l-.97-.05a.02.02 0 0 1-.02 0 .02.02 0 0 1 0-.02l.1-.43A4.19 4.19 0 0 1 7.2 4.56a4.87 4.87 0 0 1 4.8.71 4.5 4.5 0 0 1 1.58 2.7 24.1 24.1 0 0 1-1.07.2l-.24.32h-.01a4.02 4.02 0 0 0-.84-1.67l-.22-.22a3.06 3.06 0 0 0-2.02-.82A3.42 3.42 0 0 0 6.3 7.13a2.53 2.53 0 0 0-.47 1.25.01.01 0 0 1-.01 0l-.4-.43ZM12.3 4.57l-.33.52h-.01l-.39-.24.33-.54h.01l.4.25ZM5.66 4.53 6 4.39l.14.23v.02l-.3.14h-.01l-.16-.24v-.01ZM12.64 4.77l-.21.27h-.02l-.2-.12V4.9l.18-.28h.01l.24.13a.01.01 0 0 1 0 .02Z" fill="#F0F3FA"/><path d="m6.5 9.02-.73.01h-.01v-.01c.36-.37.62-.81.72-1.3.04-.2.06-.42.05-.65 0-.03 0-.05.03-.07a3.68 3.68 0 0 1 2.68-1.09 2.94 2.94 0 0 1 1.03.25c.44.2.82.47 1.15.83.02.02.02.04.02.07-.04.33.05.67.2.98a3.45 3.45 0 0 0 .63.94h-.7V9a1.62 1.62 0 0 1 .07 1.63c-.16.31-.46.52-.76.67l-.56.28a3.23 3.23 0 0 0-1.23 1.01c-.31-.33-.66-.61-1.05-.85a11.7 11.7 0 0 0-.76-.41 8.96 8.96 0 0 1-.6-.35c-.12-.14-.21-.3-.29-.48a1.45 1.45 0 0 1-.1-.88 1.8 1.8 0 0 1 .23-.58H6.5Z" fill="#F0F3FA"/><path d="M9.18 7.57c-.24-.09-.55-.16-.78 0-.06.04-.1.1-.1.2s.05.17.14.24c.16.12.36.21.55.3a162.02 162.02 0 0 0 1.27.55c.37.25.6.64.53 1.08-.03.2-.1.38-.2.56a.5.5 0 0 1-.11.12c-.33.27-.76.36-1.19.28-.4-.07-.78-.1-1.16-.12a3.56 3.56 0 0 0-.91.07 3.89 3.89 0 0 0 0-1.64l.15-.07h.02c.42.46.92.81 1.5 1.06a1 1 0 0 0 .47.03c.22-.02.42-.11.37-.36a.3.3 0 0 0-.07-.13 1.75 1.75 0 0 0-.97-.49c-.1-.02-.2-.04-.31-.08-.48-.15-.9-.4-1.12-.84a.6.6 0 0 1-.05-.19c-.05-.37.05-.7.35-.95a.9.9 0 0 1 .4-.22 2.82 2.82 0 0 1 1.62.17c.01 0 .02 0 .03-.02l.26-.26a.04.04 0 0 1 .03 0h.38a1.69 1.69 0 0 0 .37 1.35v.02l-.12.1h-.02a7.97 7.97 0 0 0-1.33-.76Z" fill="#811C19"/><path d="m12.22 8.72.18-.24h.01a.01.01 0 0 1 .02 0c.03.05.08.09.08.15a3.74 3.74 0 0 1-.01.42c-.34-.32-.63-.7-.8-1.12a1.72 1.72 0 0 1-.16-.8l.01.01.23.38a4.63 4.63 0 0 1 .44 1.2ZM5.87 8.54l.06-.02V8.5a2.47 2.47 0 0 1 .5-1.35c.02.49-.11.94-.38 1.36a3.12 3.12 0 0 1-.42.48 2.88 2.88 0 0 1-.04-.5.5.5 0 0 0 0-.11l-.03-.12c0-.02 0-.03.02 0l.26.27.03.01ZM4.27 8.22 4.38 8h.02c.3 0 .62.02.94.04.05 0 .09.04.1.09a3.33 3.33 0 0 1 .03.28l-1.19-.15v-.01a.02.02 0 0 1 0-.02ZM13.64 8.08l.1.22-.01.02-1.15.16-.04-.01a.19.19 0 0 1-.05-.08v-.03c.03-.04.08-.13.13-.14a29.74 29.74 0 0 0 1.02-.14ZM5.1 8.83v-.36c0-.01.01-.02.03-.02l.1.02h.02V8.84l.02.01h.07a.01.01 0 0 0 .01 0V8.5l.02-.01.1.01.02.01a4.6 4.6 0 0 0 .33 1.63c0 .02 0 .02-.03.02a1.77 1.77 0 0 1-.61-.31h-.01l-.37.72c0 .02-.02.02-.03 0a2.84 2.84 0 0 0-.29-.62l-.26-.48a1.16 1.16 0 0 1-.1-.73c.01-.12.04-.24.07-.36.01-.04.04-.06.09-.04l.01.02v.4h.1v-.37c0-.02.01-.03.04-.03l.08.01h.01l.01.03v.38l.01.01h.07a.02.02 0 0 0 .01 0V8.4l.03-.02.09.01.02.01v.43l.02.02h.07s.02 0 .02-.02v-.4l.01-.02.1.01c.02 0 .03.01.03.03v.39h.08l.01-.02ZM12.83 8.86v-.32h.01l.13-.02.01.01v.35c0 .02 0 .02.02.02h.07l.01-.02v-.36c0-.01 0-.02.02-.02H13.2v.39h.01l.08.01.01-.01V8.5c0-.02 0-.03.03-.03h.06l.02.01v.33l.02.01h.06c.01 0 .02 0 .02-.02v-.33c0-.01 0-.02.03-.03h.04c.02 0 .02 0 .02.02v.32l.02.01h.08v-.34l.01-.02.02-.01c.04-.02.06 0 .08.03.08.2.13.45.09.68-.02.1-.06.21-.12.34l-.22.5c-.07.17-.12.34-.16.51 0 .03-.02.03-.03 0l-.31-.79h-.01a.01.01 0 0 0-.01 0l-.63.44-.02-.01c.17-.5.28-1.02.22-1.53 0-.01 0-.02.02-.02l.08-.02c.02 0 .03 0 .03.02v.29l.01.01h.08l.01-.01ZM6.3 11.49l-.83.93a.01.01 0 0 1-.01 0l-.2-.21a.01.01 0 0 1 0-.02l.88-.95h.02l.14.23a.01.01 0 0 1 0 .02ZM11.91 11.36l.87.92v.02l-.17.2a.01.01 0 0 1-.01 0h-.01l-.83-.95v-.02l.13-.17h.01a.01.01 0 0 1 .01 0ZM12.43 12.47l.1.1-.19.18c-.1.08-.19.17-.3.24-.43.3-.88.53-1.35.67a5.42 5.42 0 0 1-3.21 0 4.7 4.7 0 0 1-1.93-1.13v-.05l.06-.07c.02-.02.03-.02.05 0l.12.12h.03l.04-.03v-.04l-.14-.13v-.03l.05-.06h.02l.14.13h.03l.04-.04v-.02l-.14-.14v-.03l.05-.05.01-.01h.01l.16.15h.02l.05-.05v-.01L6 12v-.02l.03-.05h.03l.12.12h.01a.02.02 0 0 0 .02 0l.04-.04v-.03l-.12-.12-.01-.02v-.01l.05-.06h.03l.15.15h.03l.04-.05v-.02l-.16-.15v-.03l.1-.1c0-.02.01-.02.02 0 .6.78 1.64 1.13 2.64 1.12.03 0 .07.01.1.04h.01c.01-.02.03-.04.05-.04a3.74 3.74 0 0 0 2.52-1.08l.14.15v.02l-.16.15v.03l.05.04h.02l.14-.13a.03.03 0 0 1 .03 0h.01l.04.04v.03l-.13.12v.03l.04.04h.01a.02.02 0 0 0 .02 0l.1-.1c.02-.02.04-.02.06 0l.01.01c.02.02.02.04 0 .05l-.15.16v.02l.05.04H12l.15-.15h.04l.02.03v.03l-.17.17v.03l.05.03h.03l.15-.15a.02.02 0 0 1 .02-.01h.01a1.78 1.78 0 0 1 .13.15c-.02 0-.03-.02-.03-.03h-.01l-.02-.01a.03.03 0 0 0-.02 0l-.18.18v.01l.05.05h.02l.2-.18ZM5.85 13.72l-.52-1.25h.01c.12.14.25.25.39.37a5.63 5.63 0 0 0 .54.41l-.4.47a.01.01 0 0 1-.01 0ZM12.68 12.6l-.46 1.18a.01.01 0 0 1-.01 0h-.01l-.4-.48v-.01a3.64 3.64 0 0 0 .6-.45c.1-.07.19-.16.27-.24.01 0 .01 0 0 0Z" fill="#F0F3FA"/><path d="M11.37 6.13a3.42 3.42 0 0 0-2.42-.86 3.97 3.97 0 0 0-3.4 2.18l-.46-.2a4.47 4.47 0 0 1 3.83-2.48c1.15-.06 2.09.4 2.78.98a5.3 5.3 0 0 1 1.37 1.8l-.46.2a4.8 4.8 0 0 0-1.24-1.62Zm-2.76 7.4A6.08 6.08 0 0 1 6.56 13l.22-.45c.38.18 1.07.4 1.87.47.8.07 1.7-.02 2.53-.47l.24.44c-.94.5-1.94.6-2.8.53Z" fill="#811C19"/></svg>