<!-- by TradingView --><svg width="18" height="18" viewBox="0 0 18 18" xmlns="http://www.w3.org/2000/svg"><path fill="#F0F3FA" d="M0 0h18v18H0z"/><path d="M4.09 9.94A5.03 5.03 0 0 1 9 4a5.02 5.02 0 0 1 2.44.63 5 5 0 1 1-7.35 5.3Zm4.85 3.9c.6 0 2.4-.12 2.4-2.18 0-.53-.18-.76-.45-1.28H8.51c.49.59.86.85.8 1.43a1.92 1.92 0 0 1-1.72 1.72 5.02 5.02 0 0 0 1.35.31ZM4.24 10h9.51a5.54 5.54 0 0 0 0-2h-9.5a5.54 5.54 0 0 0 0 2Zm4-5.78c-.68.16-1.74.72-1.74 2.44 0 .44.12.67.32 1.06h2.51c-.6-.77-1.11-1.28-1.11-1.84 0-1.13 1.25-1.3 1.87-1.25a2.35 2.35 0 0 0-1.27-.47c-.2 0-.39.03-.58.06Z" fill="#EE1C25"/><path d="M6 8.5h6v1H6v-1Z" fill="#EE1C25" fill-opacity=".5"/></svg>