<!-- by TradingView --><svg width="18" height="18" viewBox="0 0 18 18" xmlns="http://www.w3.org/2000/svg"><path fill="#F0F3FA" d="M0 0h18v18H0z"/><path d="M11.11 4.07c-1.25.58-2.7 1.5-2.94 2.81-.08.45-.1.81-.08 1.1.04.43.04.73.1 1.12.04.35.05.78.03 1.3-.07 1.66-1.6 2.72-2.98 3.57a.16.16 0 0 1-.16.01.15.15 0 0 1-.06-.05.13.13 0 0 1-.02-.07v-9.8c0-.01 0-.03.02-.04A.08.08 0 0 1 5.07 4h6.03c.1 0 .11.02.01.07Z" fill="#6E6F71"/><path d="M6.83 13.99c.78-.3 1.46-.57 2.03-1a4.17 4.17 0 0 0 1.4-1.84c.14-.37.14-.69.16-1.14.02-.28-.06-.88-.22-1.81a3.75 3.75 0 0 1 1.52-3.42c.42-.33.76-.57 1-.72l.16-.06a.1.1 0 0 1 .08.02c.02 0 .02.02.03.03l.01.03v9.84c0 .02 0 .04-.03.05a.1.1 0 0 1-.06.03H6.82l.01-.01Z" fill="#A91C22"/></svg>