<!-- by TradingView --><svg width="18" height="18" viewBox="0 0 18 18" xmlns="http://www.w3.org/2000/svg"><path fill="#F0F3FA" d="M0 0h18v18H0z"/><path d="m14.44 11.56-.01.02a21.31 21.31 0 0 0-.2.37l-.06.11v.01l-.01.02a14.26 14.26 0 0 0-.17.25l-.09.13-.08.11-.02.03-.02.02-.02.02a3.03 3.03 0 0 1-.34.41l-.07.08-.05.06-.02.01-.1.1a2.87 2.87 0 0 1-.3.27l-.21.17-.1.08a.08.08 0 0 0-.03.02l-.11.08-.05.04-.07.04-.17.11-.05.03-.14.08a.55.55 0 0 1-.05.03l-.19.1-.04.02-.12.06-.13.06-.06.02-.14.06-.03.02a.57.57 0 0 0-.11.04l-.07.03a33.71 33.71 0 0 1-.34.1l-.12.03-.1.03a13.78 13.78 0 0 0-.25.05c-.04 0-.08.02-.11.03h-.05a.82.82 0 0 1-.14.03l-.12.02c-.08 0-.15.01-.23.03H9.4l-.44.01a19.9 19.9 0 0 1-.42-.01h-.1l-.05-.02h-.06a2.84 2.84 0 0 0-.16-.02 1.07 1.07 0 0 0-.18-.02.29.29 0 0 0-.06-.02.4.4 0 0 1-.06-.01.95.95 0 0 0-.05-.01l-.07-.01-.08-.02-.1-.03a2.06 2.06 0 0 0-.33-.09l-.08-.02-.08-.03-.05-.01-.17-.07c-.02 0-.04 0-.06-.02a1.39 1.39 0 0 0-.07-.03c-.02 0-.03 0-.05-.02a.37.37 0 0 0-.06-.03 1.32 1.32 0 0 1-.12-.05c-.01 0-.03 0-.04-.02a.94.94 0 0 0-.07-.03l-.1-.05h-.02a.55.55 0 0 0-.08-.05 1.18 1.18 0 0 1-.06-.03l-.1-.05a.7.7 0 0 0-.07-.05.52.52 0 0 1-.05-.03.5.5 0 0 0-.03-.02l-.11-.07-.2-.13-.2-.15-.24-.19a6.85 6.85 0 0 1-.77-.77l-.1-.14-.06-.06a1.47 1.47 0 0 0-.1-.16l-.15-.21-.1-.16a14.4 14.4 0 0 1-.13-.23l-.12-.22-.05-.1-.03-.07-.01-.03-.06-.14a1.33 1.33 0 0 0-.07-.16l-.02-.06a.8.8 0 0 0-.03-.1.35.35 0 0 1-.02-.05l-.01-.04a1.87 1.87 0 0 1-.06-.19l-.04-.11-.01-.06a10.74 10.74 0 0 1-.05-.2l-.02-.1a.74.74 0 0 1-.02-.1v-.03l-.03-.15-.01-.07-.02-.1A46.08 46.08 0 0 0 3 8.55l.02-.07a22.93 22.93 0 0 0 .04-.37l.02-.12v-.06l.02-.07c0-.02 0-.05.02-.08l.03-.13a7.65 7.65 0 0 0 .1-.38 1.75 1.75 0 0 0 .08-.24l.04-.13.03-.07.05-.12.05-.13a.6.6 0 0 1 .02-.04l.03-.06a.38.38 0 0 0 .03-.06l.03-.06.05-.1.12-.23.04-.07.1-.15.06-.1a7.05 7.05 0 0 0 .23-.33l.06-.07.07-.09a10.15 10.15 0 0 1 .7-.73 2.09 2.09 0 0 1 .23-.19l.06-.05.14-.1.07-.05.08-.06a2.56 2.56 0 0 1 .18-.11l.07-.05.18-.1.18-.1a2.2 2.2 0 0 1 .24-.12 6.19 6.19 0 0 1 .2-.09l.07-.03.05-.02.08-.03c.03 0 .06-.02.08-.03a945.8 945.8 0 0 0 .5-.15l.07-.03c.03 0 .07 0 .1-.02h.05l.09-.03c.03 0 .07 0 .11-.02l.07-.01c.06-.02.13-.03.19-.03l.09-.02h.1l.08-.02.15-.01h.03a15.9 15.9 0 0 1 .83 0h.1l.14.02.14.02h.06a1.82 1.82 0 0 0 .17.03l.2.04.11.02.07.02c.03 0 .08 0 .11.02l.03.01.12.03.05.02.18.06.26.09c.01 0 .03 0 .05.02l.1.03.05.03.05.02.1.05.1.04.07.04.1.05a4.8 4.8 0 0 0 .26.14l.09.06c.02 0 .03.02.05.03l.08.04.1.08a5.93 5.93 0 0 1 .76.6l.1.1.04.03.1.12.09.08a57.12 57.12 0 0 1 .37.45l.09.13.1.14.04.06.17.27.14.26.1.21.04.1.06.13a1.66 1.66 0 0 0 .05.13l.03.07.04.11.06.16.03.12.03.11a3.17 3.17 0 0 0 .06.22l.03.14.02.1.01.07.02.12.01.06.02.14.02.14v.07l.01.1.01.45a72.16 72.16 0 0 1-.02.53l-.01.17-.02.15-.03.17-.02.1a.4.4 0 0 1-.01.05l-.01.07a1.56 1.56 0 0 1-.07.27v.04l-.02.06a1.9 1.9 0 0 0-.06.2 3.6 3.6 0 0 0-.03.1l-.04.1-.05.13-.02.05a1.86 1.86 0 0 0-.07.17 15.66 15.66 0 0 0-.08.19Z" fill="#D89D10"/><path d="m13.95 5.78.02.02a23.16 23.16 0 0 1 .28.5 40.57 40.57 0 0 1 .13.25l.05.12.1.26.06.15a3.1 3.1 0 0 1 .13.44l.05.2.02.09a33.47 33.47 0 0 0 .06.33l.02.21a7.13 7.13 0 0 1 .03.34v.17a17.05 17.05 0 0 0 0 .4 5.84 5.84 0 0 1-.09.8l-.02.14-.05.2c0 .05-.02.1-.04.16l-.06.2-.02.09a5.99 5.99 0 0 1-.9 1.7l-.08.1a6.55 6.55 0 0 1-.57.63l-.04.03-.1.09a4.88 4.88 0 0 1-1.01.74l-.14.07a6.4 6.4 0 0 1-.6.28l-.24.09-.11.04-.36.1-.25.06a6.43 6.43 0 0 1-.54.09l-.24.02H9.4l-.08.01h-.15a30.87 30.87 0 0 0-.4 0h-.1l-.09-.01a5.84 5.84 0 0 1-1.07-.18l-.2-.05-.14-.05c-.04 0-.07-.02-.1-.03a4.39 4.39 0 0 1-.23-.09l-.17-.07a6.19 6.19 0 0 1-1.26-.74l-.2-.16a6.31 6.31 0 0 1-1.41-1.74l-.08-.15a4.27 4.27 0 0 1-.38-.96 3.24 3.24 0 0 1-.04-.13l-.04-.17a32.89 32.89 0 0 1-.07-.37 5.68 5.68 0 0 1-.08-.61v-.26a5.51 5.51 0 0 0 0-.38 5.92 5.92 0 0 1 .19-1.27l.03-.11.07-.22a24 24 0 0 1 .25-.65 41.54 41.54 0 0 1 .08-.15l.06-.12a6.26 6.26 0 0 1 .78-1.12l.1-.12.1-.1.19-.19a6.03 6.03 0 0 1 .97-.74l.27-.16.13-.06.2-.1a5.7 5.7 0 0 1 1.64-.49l.2-.02h.07a9.28 9.28 0 0 1 .71-.04l.16.01h.07a80.74 80.74 0 0 1 .22.02h.04a7.51 7.51 0 0 1 1.27.28 7.3 7.3 0 0 1 .65.27l.17.09.09.04.2.12.25.16.22.15a5.82 5.82 0 0 1 .8.7l.04.04a4.15 4.15 0 0 1 .63.8Z" fill="#E5B15C"/><path d="M3.5 8.1a5.54 5.54 0 0 1 6.94-4.48A5.54 5.54 0 0 1 14.47 10a5.53 5.53 0 0 1-4.56 4.5 5.59 5.59 0 0 1-6.45-5.01A5.6 5.6 0 0 1 3.5 8.1Z" fill="#F0F3FA"/><path d="M12.8 9.03a3.8 3.8 0 1 1-7.6-.06 3.8 3.8 0 0 1 7.6.06Z" fill="#E5B15C"/><path d="M12.6 9.09a3.6 3.6 0 1 1-7.2-.18 3.6 3.6 0 0 1 7.2.18Z" fill="#383D98"/><path d="M12.36 8.89a3.38 3.38 0 1 1-6.75.2 3.38 3.38 0 0 1 6.75-.2Z" fill="#F0F3FA"/><path d="M10.46 7.53a27.59 27.59 0 0 0-.2 0l-.11.02h-.01c-.02-.3-.06-.6-.25-.84a.9.9 0 0 0-.53-.31 1.7 1.7 0 0 0-.44-.03c-.14 0-.27.04-.39.09a.98.98 0 0 0-.43.36c-.16.25-.22.56-.21.86.01.28.12.54.32.73.1.1.21.2.33.26.1.06.22.11.34.16a3.42 3.42 0 0 1 .28.1c.22.07.44.16.63.28.09.06.17.12.25.2a1.3 1.3 0 0 1 .42 1 1.81 1.81 0 0 1-.16.72c-.15.3-.4.53-.72.64-.15.06-.3.09-.47.1a2.3 2.3 0 0 1-.57-.05 1.3 1.3 0 0 1-.38-.15 1.1 1.1 0 0 1-.44-.52c-.1-.23-.14-.49-.14-.74l.13-.01a.94.94 0 0 0 .17-.02c.01.28.05.55.2.78.09.16.23.28.4.35.06.03.13.05.2.06.17.03.36.04.54.01.11-.01.22-.04.32-.09.24-.1.4-.3.5-.54.08-.2.1-.43.1-.65a1.06 1.06 0 0 0-.52-.85l-.14-.08a3.87 3.87 0 0 0-.66-.27h-.03l-.01-.01-.31-.13a2.04 2.04 0 0 1-.67-.58 1.28 1.28 0 0 1-.21-.6 1.79 1.79 0 0 1 .02-.52c.06-.36.24-.7.55-.92.19-.13.41-.21.64-.24.2-.02.39-.01.58.02.13.02.27.06.39.12.25.13.43.32.54.58.1.22.14.47.14.71Z" fill="#C39E50"/><path d="M10.45 7.53a1.95 1.95 0 0 1 .74.18c.24.12.43.3.56.53.13.23.17.5.17.77 0 .21-.04.42-.11.61-.09.22-.22.4-.4.52a1.3 1.3 0 0 1-.37.18 2 2 0 0 1-.58.09l-.03-.32c.15 0 .28-.02.42-.05.17-.03.32-.1.45-.2.28-.22.35-.58.34-.92 0-.06 0-.13-.02-.19a1 1 0 0 0-.37-.63 1.42 1.42 0 0 0-1.04-.25c-.25.04-.47.15-.66.35-.13.15-.24.32-.32.52a3.9 3.9 0 0 0-.09.2h-.02a3.41 3.41 0 0 0-.24-.09 2.06 2.06 0 0 1 .49-.86 1.3 1.3 0 0 1 .77-.42l.12-.01.06-.01h.13ZM7.58 7.54a1.33 1.33 0 0 0 .01.3c-.13 0-.26.02-.38.05-.1.02-.18.05-.26.08a.85.85 0 0 0-.46.5 1.52 1.52 0 0 0 0 .98c.12.3.37.5.68.58.15.04.3.06.47.06a1.07 1.07 0 0 0 .86-.43 3.97 3.97 0 0 0 .29-.56h.03l.23.09c-.13.39-.33.77-.68 1-.14.1-.3.16-.48.2l-.01-.01a1.25 1.25 0 0 1-.17.02h-.13a1.75 1.75 0 0 1-.65-.13 1.25 1.25 0 0 1-.67-.68c-.06-.15-.1-.31-.11-.49-.02-.22 0-.42.04-.62l.1-.27c.1-.22.28-.4.5-.51.13-.06.26-.1.4-.13a2.18 2.18 0 0 1 .4-.03Z" fill="#A8ABB0"/><path d="M12.29 6.42a3.73 3.73 0 0 0-3.48-1.77 4.4 4.4 0 0 0-3.03 1.56c-.7.8-1.08 1.72-1.21 2.31l-.78-.18c.16-.7.6-1.75 1.38-2.66a5.2 5.2 0 0 1 3.58-1.83c2.04-.16 3.39.95 4.2 2.12A7.37 7.37 0 0 1 14 8.3c.04.18.06.34.06.46h-.8v-.08l-.04-.2a6.57 6.57 0 0 0-.94-2.08Zm-3.84 7.6a6.74 6.74 0 0 1-3.04-1.22l.48-.64c.56.42 1.54.93 2.67 1.07a4.2 4.2 0 0 0 3.46-1.05l.53.6a5 5 0 0 1-4.1 1.25Z" fill="#383D98" fill-opacity=".8"/></svg>