<!-- by TradingView --><svg width="18" height="18" viewBox="0 0 18 18" xmlns="http://www.w3.org/2000/svg"><path fill="#01A0E2" d="M0 0h18v18H0z"/><path d="M5.28 12.54c-.92 1.87.65 2.42 1.55 2.46v-1.5c-.36-.13-.15-.42 0-.55l2.36-2.93-.98-.86-2.93 3.38Z" fill="#CEFBFE"/><path d="m7.7 12.44.86-1.1c.38.36.84.45 1.02.45 1.14-.05.83-.88.53-1.28l-1.9-1.87C7.76 8.3 6.86 7.33 6.84 6.2 6.83 4.82 7.98 4 9.2 4c1.2 0 2.36.82 2.41 2.21a2.89 2.89 0 0 1-1.04 2.25l-.98-.97c.34-.13.98-2-.4-1.92-1.1.07-.77 1.07-.47 1.56l1.85 1.74c.5.33 1.48 1.24 1.44 2.26-.06 1.28-1.06 2.05-2.27 2.07-.96.01-1.76-.5-2.04-.76Z" fill="#CEFBFE"/></svg>