<!-- by TradingView --><svg width="18" height="18" viewBox="0 0 18 18" xmlns="http://www.w3.org/2000/svg"><path fill="#F0F3FA" d="M0 0h18v18H0z"/><path d="M9.16 4c1.19.05 2.22.46 3.12 1.22.02.02.02.03-.02.03H5.7A5 5 0 0 1 8.87 4h.3Zm-4.44 6.83c-.04.03-.15.1-.14.12-.05 0-.1.02-.13.05h-.02a.02.02 0 0 1-.02 0A5.9 5.9 0 0 1 4 9.13v-.3c.03-.69.16-1.21.45-1.84h5.28a67.44 67.44 0 0 0-5.01 3.83Zm8.78-3.99.03.03c.3.66.46 1.35.47 2.08v.04c0 .65-.12 1.4-.36 2.01H8.11c-.03 0-.02.03 0 0a21.4 21.4 0 0 1 5.39-4.16Z" fill="#2AA7E1"/><path d="M9.39 5.25H5.7l-.01.02v.03c.05.69.38 1.38.97 1.7h3.02l-.9.6a.1.1 0 0 0-.04.07c.39.1.78.22 1.16.34.28.08.63.24 1.03.46a43.64 43.64 0 0 1 2.56-1.63c0-.03-.02-.05-.06-.06-.5-.2-1.01-.32-1.56-.4l-1.32-.16c-.57-.07-.87-.44-1.07-.94a.13.13 0 0 0-.1-.03ZM7.75 9.91a3.65 3.65 0 0 1-.8-.9l-2.43 1.93c.97.18 1.89.41 2.64.68.35.13.54.41.55.82h4.95a1.31 1.31 0 0 0-.46-.7 3.08 3.08 0 0 0-1.74-.74h-2.3l.12-.14c.06-.1.13-.2.2-.25.05-.04.12-.12.2-.22a4.8 4.8 0 0 1-.93-.48Z" fill="url(#a)"/><path d="M12.66 12.44A5 5 0 0 1 9.22 14h-.45a5.02 5.02 0 0 1-3.38-1.56h7.27Z" fill="#2AA7E1"/><defs><linearGradient id="a" x1="4.91" y1="9.74" x2="13.03" y2="9.85" gradientUnits="userSpaceOnUse"><stop stop-color="#121A63"/><stop offset=".52" stop-color="#4F83BD"/><stop offset="1" stop-color="#192A70"/></linearGradient></defs></svg>