<!-- by TradingView --><svg width="18" height="18" viewBox="0 0 18 18" xmlns="http://www.w3.org/2000/svg"><path fill="#F0F3FA" d="M0 0h18v18H0z"/><ellipse cx="11.21" cy="10.23" rx="2.21" ry="2.15" fill="url(#a0bs2wrue)"/><path d="M11.21 7.46c.5 0 .98.13 1.4.36A4.1 4.1 0 0 0 8.68 5c-2.26 0-4.1 1.8-4.1 4s1.84 4 4.1 4c.49 0 .95-.08 1.39-.23a2.8 2.8 0 0 1-1.54-1.62A2.18 2.18 0 0 1 6.47 9c0-1.19 1-2.15 2.21-2.15.6 0 1.14.23 1.54.6-.23.14-.44.34-.59.63.26-.2.95-.62 1.58-.62Z" fill="url(#b0bs2wrue)"/><path d="M12.74 9.5c-.16.17-.62.15-1.02-.03-.41-.19-.61-.48-.46-.65.16-.18.62-.17 1.03.02.4.19.6.48.45.65Z" fill="#6DBBE9"/><path d="m13.1 8.92.1.02c.54.12.97.27 1.25.42.3.17.4.31.4.4 0 .1-.1.25-.4.41-.28.16-.7.3-1.24.43-1.07.25-2.56.4-4.21.4s-3.14-.15-4.2-.4a5.12 5.12 0 0 1-1.25-.43c-.3-.16-.4-.3-.4-.4 0-.1.1-.24.4-.4.18-.1.42-.2.71-.29v-.16c-.79.23-1.26.53-1.26.85 0 .76 2.69 1.38 6 1.38s6-.62 6-1.38c0-.4-.73-.76-1.9-1.01v.16ZM9.63 8.4a26.18 26.18 0 0 0-2.84.08v.16a24.24 24.24 0 0 1 2.84-.1V8.4Z" fill="#F4CF12"/><defs><linearGradient id="a0bs2wrue" x1="9.79" y1="9.15" x2="12.41" y2="11.68" gradientUnits="userSpaceOnUse"><stop stop-color="#00A5E1"/><stop offset="1" stop-color="#0093DA"/></linearGradient><linearGradient id="b0bs2wrue" x1="5.21" y1="6.85" x2="10.99" y2="9.73" gradientUnits="userSpaceOnUse"><stop stop-color="#CBE8FA"/><stop offset=".48" stop-color="#6CBEEB"/><stop offset="1" stop-color="#009ADD"/></linearGradient></defs></svg>