<!-- by TradingView --><svg width="18" height="18" viewBox="0 0 18 18" xmlns="http://www.w3.org/2000/svg"><path fill="#F0F3FA" d="M0 0h18v18H0z"/><path d="M9.42 6.03c.23 0 .42-.2.42-.45s-.19-.45-.42-.45c-.24 0-.43.2-.43.45s.19.45.43.45Z" fill="#01A0EA"/><path d="M12 6.02c.23 0 .42-.2.42-.44 0-.25-.2-.45-.43-.45-.23 0-.43.2-.43.45 0 .24.2.44.43.44Z" fill="#E6016F"/><path d="M14.57 6.03c.24 0 .43-.2.43-.45s-.2-.45-.43-.45c-.23 0-.42.2-.42.45s.19.45.42.45Z" fill="#F7E919"/><path d="M6.67 6.02c.23 0 .41-.2.41-.44a.43.43 0 0 0-.41-.44c-.23 0-.42.2-.42.44s.19.44.42.44ZM5.2 8.6c.61.1.8.67.8 1.32v1c0 .05-.03.08-.09.08h-.49c-.05 0-.08-.04-.08-.1V10c0-.45-.13-.93-.57-.98-.29-.03-.6-.04-.92-.02-.05 0-.19.08-.19.13V11H3.1c-.06 0-.09-.04-.09-.1V5.07c0-.04.02-.06.06-.07h.6v3.19c0 .06.14.11.2.12.44.08.77-.03 1.01-.46 0-.01.17-.22.5-.81C5.4 7 5.42 7 5.44 7h.73a.02.02 0 0 1 0 .02 7 7 0 0 1-.99 1.5c-.04.04-.03.07.03.08ZM9.14 7c.87 0 1.47.66 1.52 1.62v2.28c0 .06-.03.1-.09.1h-.46a.1.1 0 0 1-.11-.1V8.8c-.02-.63-.27-1.14-.86-1.13-.58 0-.82.5-.83 1.14v2.08c0 .07-.06.1-.12.1l-.47.01c-.06 0-.09-.03-.09-.1V8.62C7.68 7.66 8.27 7 9.14 7ZM11.82 13.76c-.08-.02-.12-.07-.1-.14l.1-.53.02-.03.03-.02a.1.1 0 0 1 .04 0h.05c.37.13.64.2.8.2.98.06 1.48-.4 1.53-1.34V9.54c0-.58-.04-.98-.16-1.18a1.21 1.21 0 0 0-1.18-.67c-1.03.04-1.5 1.2-1.08 2.1.4.87 1.42.9 2.16.4v.74l-.01.03-.03.03c-.77.35-1.64.32-2.28-.25-.6-.53-.82-1.25-.66-2.15.35-1.93 3.03-2.16 3.8-.37.13.3.16.72.15 1.28v2.28c.02.96-.64 2.13-1.69 2.2-.68.06-.94-.09-1.5-.22ZM6.95 7H6.4c-.03 0-.06.03-.06.06v3.88c0 .03.02.06.05.06h.57c.02 0 .05-.02.05-.06V7.06C7 7.03 6.99 7 6.96 7Z" fill="#231815"/></svg>