<!-- by TradingView --><svg width="18" height="18" viewBox="0 0 18 18" xmlns="http://www.w3.org/2000/svg"><path fill="#F0F3FA" d="M0 0h18v18H0z"/><path d="M9.22 12.51A3.53 3.53 0 1 1 9 5.48c.98 0 1.86.4 2.5 1.05l1.06-1.03a5 5 0 0 0-1.3-.95l-.24.64a4.27 4.27 0 0 0-.74-.31l.25-.64a4.97 4.97 0 0 0-1.8-.23l.1.67a4.3 4.3 0 0 0-.79.1l-.1-.67c-.65.14-1.26.41-1.79.78l.43.54c-.22.14-.43.31-.61.5l-.43-.53c-.44.42-.8.93-1.07 1.5l.63.25c-.09.2-.17.4-.23.61l-.65-.2a5.01 5.01 0 0 0-.19 1.92l.68-.09c.02.27.07.53.14.79l-.68.08c.16.63.44 1.2.81 1.7l.54-.41c.16.21.33.41.52.6l-.54.42a5 5 0 0 0 1.44.99l.25-.64c.24.11.49.2.75.27l-.25.64a4.98 4.98 0 0 0 1.77.15l-.1-.68c.26-.02.52-.07.78-.14l.1.68a4.95 4.95 0 0 0 1.54-.69l-.43-.53c.22-.15.43-.31.62-.5l.43.54c.44-.42.81-.92 1.08-1.48l-1.32-.64a3.54 3.54 0 0 1-2.93 1.97Z" fill="#00388B"/><path d="M9 6H8v5h1V8.48a.77.77 0 0 1 .4-.12h.36c.13 0 .24.16.24.36V11h1V8.65c0-.36-.2-.65-.44-.65H9.4a.77.77 0 0 0-.4.11V6Z" fill="#00388B"/></svg>