<!-- by TradingView --><svg width="18" height="18" viewBox="0 0 18 18" xmlns="http://www.w3.org/2000/svg"><path fill="#F0F3FA" d="M0 0h18v18H0z"/><path fill-rule="evenodd" d="M15 6H3v6h12V6ZM3.63 9c0-1.4 1.2-2.55 2.74-2.7v2.43h-.84v.54h.84v2.44C4.83 11.55 3.63 10.4 3.63 9ZM7 9.27v2.46h4V10h-.27v-.73h-.33L8 10.93V9.27H7Zm1-.54V6.97l2.64 1.76h.1V8H11V6.27H7v2.46h1ZM12 10v-.73h.43c.21 0 .38-.12.38-.27 0-.15-.17-.27-.38-.27H12V8h-.37V6.3c1.54.15 2.74 1.3 2.74 2.7 0 1.4-1.2 2.55-2.74 2.71V10H12Z" fill="#D8251D"/></svg>