<!-- by TradingView --><svg width="18" height="18" viewBox="0 0 18 18" xmlns="http://www.w3.org/2000/svg"><path fill="#E70012" d="M0 0h18v18H0z"/><path fill-rule="evenodd" d="m10.79 12.89.94-.17c1.12-.24 2.2-.6 3.23-1.07a.07.07 0 0 0 .04-.06V6.18c0-.05-.02-.08-.07-.1a16.88 16.88 0 0 0-11.85-.01c-.05.02-.08.05-.08.1v5.2c0 .03.01.07.03.1.02.04.05.08.08.1.75.48 1.58.84 2.5 1.07.84.21 1.6.33 2.3.35h1.62l1.26-.1Zm-4.8-1.42a.2.2 0 0 1-.03.06c.19.33.42.58.7.73.18.1.16.14-.04.1a2.29 2.29 0 0 1-1.77-1.6c-.17-.54-.03-1.14.6-1.3 1.1-.25 1.51.64 1.56 1.47.04.63.38 1.11 1.03 1.45.2.1.44.16.69.16l.73-.01c1.7-.09 3.37-.45 4.99-1.08.02 0 .02-.02.01-.04v-.03h-.02c-2.28.98-4.4.7-6.5-.47l-.82-.48a.21.21 0 0 1-.1-.13 1.6 1.6 0 0 0-.28-.59c-.53-.7-1.77-.6-2.1.25 0 .02-.02.04-.04.05a4.64 4.64 0 0 0-1.19.48c-.07.05-.08.1-.03.18.18.24.37.43.58.57.31.2.68.39 1.12.55.17.06.33.15.47.25.34.27.76.45 1.2.43.2-.01.38.03.55.06.16.03.31.06.48.06.3 0 .3-.02 0-.08-.78-.15-1.35-.5-1.69-1.04l-.05-.03c-.03-.02-.05-.01-.06.03Z" fill="#fff"/><path fill="#E70012" fill-opacity=".6" d="M4 7h10v2H4z"/></svg>