<!-- by TradingView --><svg width="18" height="18" viewBox="0 0 18 18" xmlns="http://www.w3.org/2000/svg"><path fill="#F0F3FA" d="M0 0h18v18H0z"/><path d="M2 10.76V12h5.18a.1.1 0 0 0 .09-.04L9.9 8.52c.03-.04.1-.05.1 0v3.47h.02l1.24.01a.12.12 0 0 0 .1-.05l3.07-3.62c.04-.05.1-.06.11 0v3.63c0 .02.01.04.04.04h1.4L16 6.03V6L15.97 6h-1.45a.24.24 0 0 0-.19.1l-2.82 3.32c-.03.03-.07.03-.07-.02V6.02L11.41 6H2v.16l.02.04c0 .02.01.03.03.03l7.77.01a.03.03 0 0 1 .03.02.03.03 0 0 1 0 .03l-.42.54a.15.15 0 0 1-.12.05H2v.3h7.15l-.5.62a.04.04 0 0 1-.03.02H2v.26h6.42a.02.02 0 0 1 .02.01.02.02 0 0 1 0 .02l-.52.66a.12.12 0 0 1-.1.04H2v.14c.02.06.05.08.08.06H7.7c.03 0 .03.01.02.04l-.61.78a.1.1 0 0 1-.1.04H2v.2h4.87c.05 0 .05.02.02.06l-.48.59a.12.12 0 0 1-.1.04H2Z" fill="#004EA2"/></svg>