<!-- by TradingView --><svg width="18" height="18" viewBox="0 0 18 18" xmlns="http://www.w3.org/2000/svg"><path fill="#F0F3FA" d="M0 0h18v18H0z"/><path fill-rule="evenodd" d="M4 11.33 9.06 14l4.82-2.44.12-5L9.06 4 4 6.44v4.9Zm3.61-2-.96.9L5.2 8.88l1.45-1.33.96.88-.48.45.48.44Zm-.72-2L8.58 8.9l-1.69 1.55 2.65 2.45L11 11.56l-1.45-1.34 1.2-1.1L9.3 7.77l1.45-1.34L9.3 5.11 6.9 7.33Z" fill="url(#a)"/><defs><linearGradient id="a" x1="8.7" y1="4.78" x2="8.9" y2="13" gradientUnits="userSpaceOnUse"><stop stop-color="#E44000"/><stop offset="1" stop-color="#6C2875"/></linearGradient></defs></svg>