<!-- by TradingView --><svg width="18" height="18" viewBox="0 0 18 18" xmlns="http://www.w3.org/2000/svg"><path fill="#F0F3FA" d="M0 0h18v18H0z"/><path d="m13.15 7.41-2.36 2.87c-.13.14-.18.04-.18-.13V6H4.52C3.64 6 3 6.89 3 7.84c0 .94.64 1.69 1.53 1.69h2.65c.23 0 .39.31.39.56 0 .25-.16.5-.39.5H3V12h4.18c.89 0 1.53-.9 1.53-1.84 0-.95-.65-2.04-1.54-2.04H4.52c-.23 0-.38-.1-.38-.34 0-.26.15-.37.38-.37h4.82v3.2c0 .4.11.72.34.99.23.27.5.4.83.4.33 0 .6-.14.84-.44l3.44-4.15h-1.64Z" fill="#08315F"/><path d="m14.35 6-1.2 1.41h1.64L16 6h-1.65Z" fill="#EE8100"/></svg>