<!-- by TradingView --><svg width="18" height="18" viewBox="0 0 18 18" xmlns="http://www.w3.org/2000/svg"><path fill="#F0F3FA" d="M0 0h18v18H0z"/><path d="M9 15A6 6 0 1 0 9 3a6 6 0 0 0 0 12Z" fill="#002B54"/><path d="M11.78 7.48c-1.32-.04-2.02 1.64-2.26 2.55h-.24c.04-.23.2-.65.63-1.44.62-1.14.4-1.83-.06-2.48C9.4 5.48 9 4.87 9 4.87s-.37.61-.83 1.24c-.46.65-.7 1.34-.06 2.48.43.8.57 1.2.63 1.44H8.5c-.23-.9-.94-2.6-2.25-2.55-1.4.04-.99 2.02-.73 2.28 0 0 .36-.82 1.1-.82.63 0 1.1.56 1.28 1.09h-.06c-.17 0-.3.13-.3.27 0 .16.14.28.3.28h.15c.03.6-.12 1.32-.99.47 0 0-.41 1.1.47 1.33.8.21 1.12-.94 1.1-1.8h.24c.01.28.01.57-.06.82-.11.36-.65.92-.08 1.42l.32.3.33-.3c.57-.5.04-1.06-.08-1.42a2.44 2.44 0 0 1-.06-.82h.25c-.04.86.29 2 1.1 1.8.87-.23.45-1.33.45-1.33-.86.85-1.01.13-.98-.47h.15c.17 0 .3-.13.3-.28 0-.16-.14-.27-.3-.27h-.06c.18-.53.65-1.1 1.28-1.1.74 0 1.1.83 1.1.83.29-.28.7-2.24-.68-2.28Z" fill="#F0F3FA"/></svg>