<!-- by TradingView --><svg width="18" height="18" viewBox="0 0 18 18" xmlns="http://www.w3.org/2000/svg"><path fill="#F0F3FA" d="M0 0h18v18H0z"/><path d="m8.1 10.6-.26-.65C7.52 9.2 7.2 8.48 7 7.65c-.24-.97.73-1.85 1.53-2.11a.16.16 0 0 0 .08-.06c.02-.03.05-.06.05-.1v-2.3l-.03-.03v-.02a.08.08 0 0 0-.05-.02c-.06-.02-.1 0-.13.07-.21.6-.75.99-1.26 1.36l-.41.3c-1.5 1.22-.72 3.66.13 5.06.23.38.28.82.15 1.32-.12.47-.55.55-.96.5-1.06-.1-.62-1.61.16-1.8a.16.16 0 0 0 .1-.1.17.17 0 0 0 .01-.13.41.41 0 0 0-.33-.27c-.71-.12-1.27.15-1.68.8-.95 1.52.02 3.95 1.88 3.88 1.76-.07 2.54-1.72 1.86-3.4Zm1.8 0 .26-.65c.32-.75.63-1.47.83-2.3.24-.97-.73-1.85-1.53-2.11a.16.16 0 0 1-.08-.06c-.02-.03-.05-.06-.05-.1v-2.3l.03-.03v-.02a.08.08 0 0 1 .05-.02c.06-.02.1 0 .13.07.21.6.75.99 1.26 1.36l.41.3c1.5 1.22.72 3.66-.13 5.06-.23.38-.28.82-.15 1.32.12.47.55.55.96.5 1.06-.1.62-1.61-.16-1.8a.16.16 0 0 1-.1-.1.17.17 0 0 1-.01-.13.41.41 0 0 1 .33-.27c.71-.12 1.27.15 1.68.8.95 1.52-.02 3.95-1.88 3.88-1.76-.07-2.54-1.72-1.86-3.4Zm-1.12.15c.1.27.2.27.3.01.16-.33.36-.65.56-.96.21-.32.42-.65.58-1 .28-.64.47-1.96-.2-2.48-.84-.67-2.37-.43-2.47.89-.03.5.03.94.2 1.3l.37.76c.24.48.49.97.66 1.48Z"/></svg>