<!-- by TradingView --><svg width="18" height="18" viewBox="0 0 18 18" xmlns="http://www.w3.org/2000/svg"><path fill="#F0F3FA" d="M0 0h18v18H0z"/><path fill-rule="evenodd" d="M3 9a6 6 0 1 1 12 0A6 6 0 0 1 3 9Zm1.98 2.7A4.84 4.84 0 0 0 9 13.86c1.67 0 3.14-.86 4.02-2.18H4.98Zm3.98-4.72a.9.9 0 0 0 .5-.17h-.98c.09.08.25.17.48.17Zm-3.9-.15a4.44 4.44 0 0 0 .48 4.76h6.94a4.48 4.48 0 0 0 .47-4.78H9.67c-.16.16-.43.3-.7.3a.84.84 0 0 1-.7-.32.07.07 0 0 1 0-.07.06.06 0 0 1 .05-.04h1.3c.04-.05.06-.09.06-.12l-.01-.02c-.01 0-.04-.02-.1-.02H8.22a.29.29 0 0 1-.2-.08.23.23 0 0 1-.08-.16c0-.1.08-.18.18-.18h1.7c.03 0 .06-.01.08-.04A.08.08 0 0 0 9.93 6c0-.03-.02-.07-.08-.07H7.97a.2.2 0 0 1-.21-.2c0-.11.07-.22.22-.22h1.86c.05 0 .07-.02.07-.06 0-.04-.03-.1-.1-.1H8.24a.21.21 0 0 1-.15-.05.17.17 0 0 1-.05-.13c0-.12.11-.25.28-.25h1.11l.07-.01v-.03c0-.05-.06-.12-.14-.12h-.65c-.08 0-.19-.01-.21-.09-.02-.06.02-.12.05-.14l.06-.09c-1.5.1-2.8.98-3.49 2.26h2.82c.04 0 .07.03.07.06 0 .04-.03.07-.07.07H5.06Zm3.99-2.5-.09-.15-.1.14h.19Zm3.58 1.13a.06.06 0 0 1 .09.01A5.17 5.17 0 0 1 14 8.89 5.06 5.06 0 0 1 9 14c-2.76 0-5-2.3-5-5.11 0-1.27.45-2.48 1.28-3.42a.06.06 0 0 1 .1 0c.02.02.02.06 0 .09a5.04 5.04 0 0 0-.49 6.03h.5a4.62 4.62 0 0 1-.92-2.77c0-2.42 1.89-4.4 4.23-4.5l.21-.3A.07.07 0 0 1 8.97 4c.02 0 .04.01.05.03l.2.33v.06a.06.06 0 0 1-.06.03h-.4l-.1.16-.01.01h.72c.16 0 .27.14.27.26 0 .05-.02.1-.05.13a.23.23 0 0 1-.15.04H8.33c-.1 0-.15.07-.15.12v.03l.07.02H9.8c.07 0 .13.02.17.07.04.05.06.1.06.16 0 .11-.07.19-.19.19H7.98c-.07 0-.1.04-.1.08s.03.08.09.08h1.88c.14 0 .2.1.2.2 0 .06-.02.12-.06.16a.25.25 0 0 1-.18.07H8.12c-.04 0-.05.02-.05.05 0 .02 0 .05.03.07.03.03.07.04.12.04h1.35a.3.3 0 0 1 .17.04c.04.03.07.08.07.13 0 .04-.01.08-.04.12h3.1a4.28 4.28 0 0 0-3.49-2.24.06.06 0 0 1-.02-.08c0-.02.02-.02.04-.03h.02c2.3.15 4.12 2.1 4.12 4.5 0 .99-.32 1.97-.9 2.76h.47a5.12 5.12 0 0 0-.49-6.03.07.07 0 0 1 0-.1ZM9.33 11c-.1 0-.18-.07-.21-.2l-.8-2.46a.33.33 0 0 1-.02-.1c0-.13.1-.24.22-.24.1 0 .18.07.22.19l.61 1.97.59-1.98c.03-.11.1-.18.2-.18h.02c.1 0 .18.07.21.18l.59 1.98.62-1.98c.03-.11.1-.18.2-.18.12 0 .22.11.22.24l-.01.07-.01.02-.8 2.48c-.04.12-.12.19-.22.19h-.02c-.1 0-.18-.07-.22-.19l-.57-1.9-.58 1.9c-.04.12-.12.19-.21.19h-.03Zm-3.25-.39c.3.26.62.39 1 .39.54 0 .92-.35.92-.87 0-.58-.47-.76-.87-.86-.58-.14-.62-.28-.62-.46 0-.22.19-.36.46-.36.22 0 .4.06.6.22.03.03.07.04.12.04.12 0 .21-.1.21-.23 0-.1-.06-.17-.09-.2-.25-.2-.5-.28-.84-.28-.5 0-.9.36-.9.84 0 .55.37.75.9.88.55.13.6.27.6.45 0 .23-.2.38-.49.38a1 1 0 0 1-.73-.3.2.2 0 0 0-.14-.06c-.12 0-.21.1-.21.24 0 .08.03.15.08.18Z" fill="#006999"/></svg>