<!-- by TradingView --><svg width="18" height="18" viewBox="0 0 18 18" xmlns="http://www.w3.org/2000/svg"><path fill="#F0F3FA" d="M0 0h18v18H0z"/><path d="M8.36 9H6.5c0-3.76 3.28-5 5-5v1.51C8.82 5.51 8.29 7.84 8.36 9Z" fill="#050708"/><path d="M11.24 9.88c-.38-.6-.24-1.41-.24-2.13a1.75 1.75 0 1 0-3.5 0c0 .1-.01.19-.05.27l-.08.16c-.27.62-.59 1.33-.96 1.6l-.04.02c-.52.37-1.23.2-1.87.2A1.5 1.5 0 1 0 6 11.5c0-.19.03-.38.13-.54.26-.4.52-.75.7-.88.17-.13.47-.29.8-.44.49-.24 1.07-.14 1.62-.14.3 0 .63.02.9.15h.01c.56.28 1.17.58 1.35.9.12.23.27.53.4.85.1.18.09.4.09.6a1 1 0 1 0 1-1c-.31 0-.65.02-.9-.16l-.21-.14c-.14-.1-.26-.22-.35-.36l-.3-.46Z" fill="#E96F24"/><path d="M6.5 14v-1.46c2.74 0 3.49-2.36 3.52-3.54h1.48c0 3.75-3.33 5-5 5Z" fill="#050708"/></svg>