<!-- by TradingView --><svg width="18" height="18" viewBox="0 0 18 18" xmlns="http://www.w3.org/2000/svg"><path fill="#F0F3FA" d="M0 0h18v18H0z"/><path d="M9.15 4a1.4 1.4 0 1 1 0 2.82c-1.2.06-2.2 1-2.32 2.2l-.01.13a1.41 1.41 0 1 1-1.41-1.4l.13-.02a2.4 2.4 0 0 0 2.2-2.32c0-.78.63-1.41 1.41-1.41ZM7 5.5a1.5 1.5 0 1 1-3 0 1.5 1.5 0 0 1 3 0Zm7 7a1.5 1.5 0 1 1-3 0 1.5 1.5 0 0 1 3 0Zm0-3.65a1.4 1.4 0 1 0-2.82 0 2.4 2.4 0 0 1-2.2 2.32l-.13.01a1.41 1.41 0 1 0 1.4 1.41l.02-.13a2.46 2.46 0 0 1 2.32-2.2c.78 0 1.41-.63 1.41-1.41Zm0-3.49a1.36 1.36 0 1 0-2.73 0 2.31 2.31 0 0 1-2.13 2.25h-.12c-.39 0-.74.17-.98.43-.26.24-.42.6-.42.98a2.31 2.31 0 0 1-2.13 2.24l-.13.01a1.36 1.36 0 1 0 1.37 1.37v-.13a2.38 2.38 0 0 1 2.25-2.13c.39 0 .74-.16.98-.42.26-.24.42-.6.42-.98l.01-.12a2.38 2.38 0 0 1 2.25-2.13c.75 0 1.36-.61 1.36-1.37Z" fill="url(#a00jyk115)"/><defs><linearGradient id="a00jyk115" x1="4.83" y1="4.4" x2="13.66" y2="13.37" gradientUnits="userSpaceOnUse"><stop stop-color="#F2D3AC"/><stop offset="1" stop-color="#CBAB84"/></linearGradient></defs></svg>