<!-- by TradingView --><svg width="18" height="18" viewBox="0 0 18 18" xmlns="http://www.w3.org/2000/svg"><path fill="#F0F3FA" d="M0 0h18v18H0z"/><path d="M5.07 7.63c.45 0 .92.23 1.06.62h.83C6.82 7.46 5.91 7 5.06 7 3.77 7 3 7.94 3 9c0 1.1.78 2 2.09 2 .37 0 .7-.07.99-.2A1.5 1.5 0 0 0 7 9.37V9H5.17v.5h1.04c-.01.16-.06.3-.14.43a.89.89 0 0 1-.39.32c-.16.08-.36.12-.59.12C4.22 10.37 4 9.68 4 9c0-.68.21-1.37 1.07-1.37ZM9 7h1.04v2.77c0 .74-.66 1.23-1.53 1.23-.8 0-1.47-.3-1.47-1h.85c0 .31.29.41.65.41.45 0 .46-.3.46-.64V7Zm1.5.63V7h4v.63H13V11h-1V7.62h-1.5Z"/></svg>