<!-- by TradingView --><svg width="18" height="18" viewBox="0 0 18 18" xmlns="http://www.w3.org/2000/svg"><path fill="#F0F3FA" d="M0 0h18v18H0z"/><path d="M13.82 8.85a.66.66 0 0 0-.1-.99l-3-2.26a3.08 3.08 0 0 0-4.06.35 2.47 2.47 0 0 0 .39 3.7l1.23.94c.33.25.82.2 1.09-.1a.66.66 0 0 0-.1-.98l-1.22-.92a1.15 1.15 0 0 1-.18-1.73c.27-.3.66-.44 1.05-.43.3 0 .6.08.85.27l2.97 2.24c.33.25.81.2 1.08-.1Z" fill="#374A5E"/><path d="M10.06 10.92c-.38.42-1.06.48-1.52.13a.95.95 0 0 1-.14-1.4 1.14 1.14 0 0 1 1.52-.14c.46.35.52.98.14 1.4Z" fill="#F58555"/><path d="M4.18 9.15c-.27.3-.23.74.1.98l3 2.26a3.06 3.06 0 0 0 4.06-.35 2.47 2.47 0 0 0-.39-3.7L9.72 7.4a.82.82 0 0 0-1.09.09c-.27.3-.22.74.1.98l1.22.92c.58.43.66 1.2.18 1.73-.27.3-.66.44-1.05.44-.3 0-.6-.09-.85-.28L5.26 9.05a.82.82 0 0 0-1.08.1Z" fill="#374A5E"/><path d="M7.94 7.08a1.14 1.14 0 0 1 1.52-.14c.45.35.52.98.14 1.41-.38.42-1.06.48-1.52.13a.95.95 0 0 1-.14-1.4Z" fill="#69C6B3"/></svg>