<!-- by TradingView --><svg width="18" height="18" viewBox="0 0 18 18" xmlns="http://www.w3.org/2000/svg"><path fill="#F0F3FA" d="M0 0h18v18H0z"/><path d="M13.71 10.78c-.62.63-1.22 1.15-1.81 1.56-.15.1-.34.17-.57.22-.03 0-.07 0-.1-.03-.04-.02-.05-.05-.04-.07a.15.15 0 0 1 .05-.06 5.27 5.27 0 0 0 2.4-2.82c0-.02 0-.04-.02-.06l-.04-.02h-.02c-.35.68-.82 1.3-1.41 1.86-.18.18-.38.3-.58.38-.12.05-.14.02-.06-.08.84-1.05 1.63-1.85 2.12-3.19 0-.02 0-.04-.02-.06-.02-.01-.04 0-.06.02-.44.83-1 1.63-1.7 2.4-.04.05-.1.06-.14.03l-.05-.02c-.02-.02-.03-.04-.01-.06.7-1 1.18-2.1 1.44-3.27.03-.14 0-.15-.07-.04-.18.26-.25.58-.39.87-.24.5-.5 1-.79 1.49-.01.02-.03.02-.04 0v-.02a.18.18 0 0 1 0-.12c.3-.8.5-1.65.59-2.55 0-.03-.01-.05-.04-.06l-.05-.01h-.02c-.14.72-.35 1.35-.62 1.91-.15.33-.2.31-.14-.06.1-.6.26-1.33.09-1.92-.05-.15-.07-.15-.09 0l-.1.92c-.04.47-.1.48-.18 0a2.4 2.4 0 0 0-.5-1c-.01-.02-.03-.02-.05 0l-.04.03V7c.23.3.36.64.4 1 .02.2-.02.21-.12.05a4.38 4.38 0 0 0-.76-.92c-.03-.02-.05-.02-.07 0l-.03.04v.02c.8.93 1.28 1.91 1.42 2.96.18 1.31-.16 2.9-1.21 3.66-.17-.02-.3.13-.46.2l-2.05-.05c.1.01.19 0 .25-.02.06-.03.07-.08.02-.13a.37.37 0 0 0-.2-.12c-.32-.22-.6-.52-.82-.9a1.64 1.64 0 0 1-.18-.4 2.6 2.6 0 0 0-.2-.5.22.22 0 0 0-.12-.1c-.77-.29-1.45-1.22-1.92-1.94-.24-.38-.28-.35-.11.07a5.36 5.36 0 0 0 2.21 2.47c.04.02.06.06.06.11v.04l-.03.03-.03.02h-.03a3.2 3.2 0 0 1-1.05-.62c-.41-.36-.84-.7-1.3-1.05-.43-1.3-.45-2.9.08-4.13A4.77 4.77 0 0 1 7.25 4c.08-.03.15 0 .2.09a6.35 6.35 0 0 1 .26 5.33c-.53 1.36-1.38 2.82.06 3.9 1.16.87 3.3.2 3.23-1.61a3.55 3.55 0 0 0-.37-1.45 8.7 8.7 0 0 1-.78-2.76 5.78 5.78 0 0 1 .79-3.5.1.1 0 0 1 .07 0c2.6.87 3.9 3.85 3 6.77Z" fill="#043D54"/><path d="M6.2 9.7c-.2-.62-.37-1.24-.52-1.84a1.74 1.74 0 0 1-.04-.66c.02-.14.05-.14.08 0 .17.69.4 1.34.67 1.95 0 .03.03.04.05.04.08 0 .1-.03.08-.11a5.59 5.59 0 0 1-.2-1.97c.05-.44.1-.44.17 0l.12.96c.02.17.05.17.1 0 .12-.53.3-.92.55-1.16.1-.1.13-.08.06.06l-.41.86a.26.26 0 0 0 .01.25l.03.04.02.02a.05.05 0 0 0 .05 0l.02-.02c.19-.4.45-.72.79-1h.05l.03.04v.02c-.92 1.05-1.74 2.76-1.34 4.28.07.26.02.3-.15.1A10.51 10.51 0 0 1 4.41 8.6c-.01-.02-.02-.05-.01-.08a.1.1 0 0 1 .02-.05h.01a.03.03 0 0 1 .04.01c.49.9 1.06 1.7 1.72 2.4.02.01.04.01.06-.01l.04-.04a.1.1 0 0 0 .03-.07A8.55 8.55 0 0 1 4.9 7.41l.04-.01c.03-.01.04 0 .05.02.28.85.66 1.63 1.13 2.32.1.14.11.13.06-.03ZM13.71 10.78c-.03.16-.11.31-.23.44-.58.64-1.14 1.15-1.68 1.53-.34.24-.32.3.07.17.32-.1.66-.31 1.04-.62.1-.07.2-.1.26-.12.07 0 .08.01.03.07a9 9 0 0 1-2.35 1.54l-1.05.2a4.63 4.63 0 0 0 1.7-3.85 5.62 5.62 0 0 0-1.43-2.98l.03-.04c.02-.02.04-.02.07 0 .29.27.54.58.76.92.1.16.14.14.12-.05a1.92 1.92 0 0 0-.4-1.02v-.02l.04-.04h.05c.28.38.45.72.5 1.02.08.47.14.46.19-.01l.09-.91c.02-.16.04-.16.09-.01.17.6 0 1.32-.1 1.92-.05.37 0 .39.15.06a8.17 8.17 0 0 0 .64-1.91l.05.01c.03 0 .04.03.04.06-.1.9-.3 1.75-.6 2.55a.18.18 0 0 0 .01.14c.01.02.03.02.04 0 .29-.5.55-.99.8-1.5.13-.28.2-.6.38-.86.08-.11.1-.1.07.04a9.23 9.23 0 0 1-1.44 3.27c-.02.02-.01.04.01.06l.05.02c.05.03.1.02.14-.02.7-.78 1.26-1.58 1.7-2.41.02-.02.04-.03.06-.02.02.02.03.04.02.06-.5 1.34-1.28 2.14-2.12 3.19-.08.1-.06.13.06.08.2-.07.4-.2.58-.38a7.31 7.31 0 0 0 1.43-1.86l.04.02c.02.02.02.04.02.06a5.27 5.27 0 0 1-2.4 2.82.15.15 0 0 0-.05.06c-.01.02 0 .05.04.07.03.03.07.03.1.03.23-.05.42-.12.57-.22.59-.41 1.19-.93 1.81-1.56Z" fill="#FBD878"/><path d="m10.02 9.74-.82-.13c-.01 0-.03 0-.05-.02-.43-.24-.96.05-1.34.29.33-.55.61-1.13.85-1.73.12-.3.12-.57.26-.84l.02-.02a.04.04 0 0 1 .05 0l.01.03a9.3 9.3 0 0 0 1.02 2.42Z" fill="#E0BA5F"/><path d="M10.02 9.74c.37.5.59 1.04.67 1.62a.52.52 0 0 0-.25-.02c-.08.03-.1.07-.04.14l.12.16c.05.06.06.13.04.2-.06.22-.2.35-.4.4-.13.02-.14.08-.02.16.06.05.1.12.09.22a.2.2 0 0 1-.03.09.17.17 0 0 1-.06.06.15.15 0 0 1-.16 0c-.18-.13-.33-.3-.45-.52a.12.12 0 0 0-.03-.04.1.1 0 0 0-.04-.02.1.1 0 0 0-.05 0 .1.1 0 0 0-.04.02c-.2.16-.3.36-.25.6 0 .06-.02.08-.07.07a.1.1 0 0 1-.08-.07c-.12-.29-.26-.81-.6-.81-.04 0-.06.02-.07.07a.53.53 0 0 1-.38.46c-.05.02-.08.06-.1.12 0 .07.02.12.08.14a.1.1 0 0 1 .04.02.1.1 0 0 1 .02.04.12.12 0 0 1 0 .1.36.36 0 0 1-.16.12c0-.04-.04-.08-.11-.12.08-.49-.03-.86-.35-1.12-.05-.03-.05-.07-.02-.12.1-.17.07-.32-.1-.45.08-.47.28-.93.59-1.38.38-.24.9-.53 1.34-.29l.05.02.82.13ZM4.33 10.95c.07-.03.28.3.3.33a6.65 6.65 0 0 0 1.69 1.55c.02.01.04.03.05.06l.02.05c0 .04-.02.05-.05.04-.5-.17-.93-.41-1.3-.73l-.7-1.3Z" fill="#043D54"/><path d="M7.84 13.68c.24.08.28.17.24.2-.04.1-.2.1-.24.08a6.84 6.84 0 0 1-3.08-1.74c-.07-.07-.06-.09.03-.06l.25.09c.37.32.8.56 1.3.73.03.01.05 0 .05-.04 0-.02 0-.03-.02-.05a.13.13 0 0 0-.05-.06 6.65 6.65 0 0 1-1.69-1.55c-.1-.08-.19-.18-.3-.37.45.34.88.69 1.29 1.05a3.2 3.2 0 0 0 1.08.62l.03-.02.03-.03v-.04a.14.14 0 0 0-.06-.11A5.36 5.36 0 0 1 4.49 9.9c-.17-.42-.13-.45.11-.07.47.72 1.15 1.65 1.92 1.94.05.02.09.06.12.1.08.17.15.33.2.5.04.13.1.27.18.4.23.38.5.68.82.9Z" fill="#FBD878"/><path d="M7.22 11.26c.17.13.2.28.1.45-.03.05-.03.09.02.12.32.26.43.63.35 1.12a2.1 2.1 0 0 1-.47-1.7Z" fill="#4B634E"/><path d="M13.48 11.22c-.12.37-.31.73-.57 1.08-.38.3-.72.52-1.04.62-.39.13-.41.07-.07-.17.54-.38 1.1-.89 1.68-1.53Z" fill="#043D54"/><path d="M10.69 11.36c.07.76-.16 1.36-.69 1.79a.48.48 0 0 1-.02-.17c0-.07-.03-.1-.09-.08-.04 0-.08.05-.12.12a.15.15 0 0 0-.01.1c0 .03 0 .04.02.06.01.01.02.03.04.03l.05.02a.6.6 0 0 1-.21.16c-.7.26-1.31.15-1.86-.32a.36.36 0 0 0 .15-.12.11.11 0 0 0 .01-.1.1.1 0 0 0-.02-.04.1.1 0 0 0-.04-.02c-.06-.02-.08-.07-.07-.14 0-.06.04-.1.1-.12a.53.53 0 0 0 .37-.46c0-.05.03-.07.07-.07.35 0 .48.52.6.81a.1.1 0 0 0 .08.07c.05.01.07-.01.07-.08-.04-.23.04-.43.25-.59a.1.1 0 0 1 .04-.02.1.1 0 0 1 .05 0 .1.1 0 0 1 .04.02l.03.04c.12.22.27.4.45.52l.08.02c.03 0 .06 0 .08-.02a.17.17 0 0 0 .06-.06.2.2 0 0 0 .03-.09c0-.1-.03-.17-.1-.22-.11-.08-.1-.14.04-.17.2-.04.33-.17.39-.38a.23.23 0 0 0-.04-.21l-.12-.16c-.05-.07-.04-.11.04-.14a.52.52 0 0 1 .25.02Z" fill="#E0BA5F"/><path d="m8.07 11.9.06.02.02.01v.02a.06.06 0 0 1 0 .03c-.01.05-.04.07-.08.06a.42.42 0 0 1-.24-.18c-.05-.07-.04-.1.04-.08.05.01.1.03.13.07l.07.04ZM10 13.15c-.04.05-.09.08-.13.08a.45.45 0 0 1-.05-.02.12.12 0 0 1-.04-.03.15.15 0 0 1-.01-.16c.04-.07.08-.11.12-.12.06-.01.1.01.09.08 0 .06 0 .12.02.17Z" fill="#4B634E"/></svg>