<!-- by TradingView --><svg width="18" height="18" viewBox="0 0 18 18" xmlns="http://www.w3.org/2000/svg"><path fill="#F0F3FA" d="M0 0h18v18H0z"/><path fill-rule="evenodd" d="M7.76 6.77a.14.14 0 0 1-.08-.03.18.18 0 0 1-.06-.09.2.2 0 0 1 0-.1c0-.04.02-.07.05-.1.02-.02.04-.08.03-.18 0-.12-.02-.11-.06.01-.02.05-.05.24-.1.55-.04.2-.1.36-.19.5L7 7.9c-.02.04-.04.05-.07.03-.02-.01-.03-.03-.03-.05a.08.08 0 0 0-.03-.05.06.06 0 0 0-.04-.02 1.76 1.76 0 0 1-.98-.33.03.03 0 0 1 0-.03.02.02 0 0 1 .01 0l.04-.02c.06-.01.08-.05.04-.1a.07.07 0 0 0-.05-.04h-.05l-.09.1-.03.02a.1.1 0 0 1-.05 0c-.11-.04-.11-.2 0-.46a.2.2 0 0 1 .1-.1c.05-.02.1-.02.15 0l.06.04c.05.03.08.07.09.13 0 .07.03.13.05.17.04.04.08.06.13.06.19-.03.34 0 .48.1a.1.1 0 0 0 .13-.02c.06-.06.13-.08.23-.06h.04c.01 0 .02 0 .03-.02l.26-.24V7l.01-.02-.02-.02a1.05 1.05 0 0 0-.52-.03c-.03 0-.06 0-.09-.04l-.13-.2a.3.3 0 0 0-.1-.1l-.79-.43h-.05l-.03.02c-.04.02-.09 0-.14-.03a.72.72 0 0 0-.72-.1c-.24.1-.37.32-.39.66 0 .06.02.1.08.1h.16c.07 0 .08.03.05.1s-.02.13.04.2c.04.03.05.07.05.13l.01.23c.01.06.05.1.1.13.11.06.2.13.25.22.03.05.03.1-.01.13-.24.21-.5.24-.78.09-.06-.03-.1-.09-.12-.18 0-.06.01-.1.06-.1l.24-.02c.08 0 .08-.03 0-.07-.36-.2-.59-.31-.66-.36-.04-.03-.06-.07-.06-.12v-.17c0-.07-.04-.1-.1-.1l-.49.05c-.05 0-.1.03-.14.07a.32.32 0 0 0-.09.16c-.09.48.01.72.31.74a3.6 3.6 0 0 0 .8-.03V8c0 .04-.01.07-.04.08-.17.06-.3.14-.42.25a.2.2 0 0 0-.05.09v.1l.05.1.09.04.67.1c.2.04.36.13.5.29.13.14.2.32.2.53 0 .4-.13.73-.4.98a.91.91 0 0 1-.5.23 9.94 9.94 0 0 0-.58.13v.05c0 .02.01.03.03.03h11.27c.03 0 .04-.02.04-.05v-.06c0-.02-.02-.03-.04-.03h-1.13c-.07 0-.1-.04-.11-.12l-.12-.94c0-.07.01-.11.03-.13.02-.01.04 0 .05.01.01.03 0 .05-.01.08l.15.86c0 .06.04.1.09.1.42.11.77-.03 1.02-.43.05-.07.03-.1-.04-.1a1.13 1.13 0 0 1-.8-.27l-.03.03c-.02.03-.01.05.01.07l.5.4c.02.02.02.03 0 .05l-.04.04h-.02l-.46-.43a.28.28 0 0 1-.09-.15.6.6 0 0 0-.23-.38c-.05-.04-.06-.09-.04-.15.04-.1 0-.2-.08-.3a.13.13 0 0 1-.02-.14.2.2 0 0 0 .01-.05c0-.06-.01-.09-.06-.1-.49-.1-.86-.54-1.26-1.03a33.36 33.36 0 0 0-.16-.18l-.02.02v.06a3.29 3.29 0 0 0 .77.93l-.02.05c-.01.02-.03.03-.05.01-.3-.2-.52-.49-.7-.85a.18.18 0 0 1-.01-.08v-.09c0-.05-.02-.1-.05-.15a2.4 2.4 0 0 1-.29-.81.09.09 0 0 0-.02-.03.07.07 0 0 0-.07 0 .2.2 0 0 0-.08.06.17.17 0 0 1-.12.06l-.9.08-2.8-.1Zm-2.32.53c-.18.17-.29.24-.31.24-.34-.1-.35-.22-.03-.39a2.26 2.26 0 0 1 .38-.06l.01.01.01.02v.03a.2.2 0 0 1-.06.15Zm1.84.33a.5.5 0 0 1 .18-.28c.05-.04.06-.03.04.04-.21.5-.5.9-.89 1.2-.04.03-.06.02-.03-.04a.2.2 0 0 1 .09-.11.23.23 0 0 0 .08-.07l.46-.59c.03-.04.05-.1.07-.15Zm-3.98.15a.16.16 0 0 0 .05-.09.1.1 0 0 1 .02-.03l.03-.02a.06.06 0 0 1 .04 0l.03.02.06.09c.03.04.07.06.12.05l.49-.02.02-.02c.01-.02 0-.03-.02-.04a7.42 7.42 0 0 1-.65-.17c-.05-.02-.1-.02-.14 0-.1.07-.14.13-.12.21l.01.02.02.01a.03.03 0 0 0 .03 0Zm5.47-.1c.64.39 1.1.66 1.4.82.2.11.2.13-.02.05a4.6 4.6 0 0 1-1.45-.92l.02.02.05.03Zm-3.28.56a.44.44 0 0 0 .19.07.02.02 0 0 1 .01.02.02.02 0 0 1 0 .01h-.02c-.26.04-.46.04-.6 0-.42-.1-.75-.08-1 .05a.12.12 0 0 1-.12 0l-.08-.04c-.02-.01-.04 0-.05.03l-.02.04v.04c0 .02.01.03.02.03.27.15.55.15.83.01h.08l.07.02.01.02.01.02v.03H4.8l-.01.01-.08.03c-.08.02-.08.05 0 .09.53.24.68.69.46 1.35-.02.04 0 .06.03.05.02 0 .03-.02.04-.04.13-.2.19-.44.18-.68l.01-.1a.23.23 0 0 1 .05-.07.2.2 0 0 1 .06-.05.17.17 0 0 1 .08-.01l.04.02v.05l-.06.05a.22.22 0 0 0-.06.14c-.03.3-.09.6-.2.92-.08.25.04.43.35.53.11.03.17-.02.16-.16l-.13-1.77c0-.03 0-.06.02-.08a.11.11 0 0 1 .06-.05c.35-.1.66-.33.93-.67.07-.08.05-.11-.04-.09-.32.08-.73.09-1.25.01-.14-.02-.3.07-.39.16-.07.08-.06.1.04.07l.3-.08c.02-.01.06 0 .09.02ZM9.87 9.6l-.1.19c-.04.08-.02.1.04.05l.09-.06c.05-.04.1-.03.13.03l.58.84c.03.06.08.06.12.02l.07-.06a.18.18 0 0 1 .13-.06c.4.02.7-.09.94-.32a.02.02 0 0 1 .02 0l.01.01a.03.03 0 0 1 0 .03c-.2.24-.41.42-.64.5-.16.07-.5.06-1.04 0-.19-.03-.32-.1-.4-.23a.77.77 0 0 1-.12-.53c.01-.06 0-.12-.01-.17-.03-.1-.08-.15-.14-.18a.04.04 0 0 0-.04.01l-.02.02V10.01c0 .08-.04.1-.1.07-.32-.21-.38-.41-.48-.8l-.02-.05c-.01-.06-.04-.09-.09-.09a4.2 4.2 0 0 1-.68-.07 1.22 1.22 0 0 0-.7-.02 6.42 6.42 0 0 1-.73.08l-.02-.04c-.02-.04-.02-.05.02-.05.28-.02.54-.05.77-.09.2-.03.45-.03.76 0 .9.1 1.74.1 2.53.03.33-.04.58-.04.74 0 .2.04.45.06.74.07.01 0 .02 0 .02.03 0 .01 0 .02-.02.02-.26.01-.48 0-.67-.05a1.3 1.3 0 0 0-.66 0c-.3.07-.63.1-1.02.08-.05 0-.09.03-.1.1 0 .07 0 .12.03.16.03.04.07.06.11.04.06-.02.13 0 .2.08.39.37.71.59.99.64.19.04.33.08.44.12.08.03.08.05 0 .07-.3.05-.58-.01-.84-.19a2.85 2.85 0 0 1-.7-.6.1.1 0 0 0-.1 0 .13.13 0 0 0-.04.05Zm-1.88.58c-.02 0-.08-.15-.13-.34-.06-.2-.09-.37-.07-.37.02-.01.07.14.13.34.05.2.08.36.07.37Zm-2.9-3.1.27-.09c.27-.06.27-.13 0-.2-.2-.06-.33-.01-.38.15a.12.12 0 0 0 0 .09l.02.02c.01.01.02.03.04.03h.05Z" fill="#007084"/></svg>