<!-- by TradingView --><svg width="18" height="18" viewBox="0 0 18 18" xmlns="http://www.w3.org/2000/svg"><path fill="#F0F3FA" d="M0 0h18v18H0z"/><path fill-rule="evenodd" d="M9 3c.02 0 .04 0 .05.02.24.25.46.27.8.3l.22.02c.38.05.73.2 1.03.44.02.02.05.03.08.03.55.01 1.13.47 1.54.84.1.09.24.13.43.14.04 0 .05.02.06.06.01.19.04.3.07.34l.13.16c.28.35.57.7.72 1.12.04.1.06.2.05.34 0 .04.01.06.03.09.26.31.4.7.44 1.13l.05.5c.01.1.1.26.29.45v.01l.01.02v.01l-.01.02c-.18.2-.28.34-.29.45l-.05.5c-.04.43-.19.81-.44 1.13a.13.13 0 0 0-.03.08c0 .14-.02.25-.05.35a4.18 4.18 0 0 1-.86 1.27c-.03.04-.06.15-.07.34 0 .04-.03.06-.06.06a.68.68 0 0 0-.43.14c-.42.37-1 .83-1.54.84a.13.13 0 0 0-.09.03c-.3.24-.64.39-1.02.43l-.23.02c-.34.03-.56.05-.8.3a.05.05 0 0 1-.08 0c-.24-.25-.46-.27-.8-.3l-.22-.02c-.38-.05-.73-.2-1.03-.44a.13.13 0 0 0-.08-.03c-.55-.01-1.13-.47-1.54-.84a.69.69 0 0 0-.43-.14c-.04 0-.05-.02-.06-.06-.01-.19-.04-.3-.07-.34l-.13-.16c-.28-.35-.57-.7-.72-1.12a.95.95 0 0 1-.05-.34c0-.04-.01-.06-.03-.09-.26-.31-.4-.7-.44-1.13l-.05-.5c-.01-.1-.1-.26-.29-.45v-.01L3 8.99v-.01l.01-.02c.18-.2.28-.34.29-.45l.05-.5c.04-.43.19-.81.44-1.13a.13.13 0 0 0 .03-.08c0-.14.02-.25.05-.35.16-.41.45-.77.73-1.11l.13-.16c.03-.04.06-.16.07-.34 0-.04.03-.06.06-.06.19 0 .33-.05.43-.14.42-.37 1-.83 1.54-.84l.09-.03c.3-.24.64-.39 1.02-.43l.23-.02c.34-.03.56-.05.8-.3A.05.05 0 0 1 9 3Zm.02.43c.03 0 .07.01.12.05.13.1.37.14.54.14.47.02 1.03.13 1.33.55.02.03.04.03.07.01.12-.07.26-.07.4 0a3.74 3.74 0 0 1 .85.56c.21.19.4.3.54.35a.1.1 0 0 1 .07.06c.05.16.12.28.21.4.25.26.45.55.63.86.11.21.13.39.04.53-.01.03 0 .06.02.08.46.33.51.91.55 1.47.02.14.07.33.13.41.04.05.06.08.06.1 0 .03-.02.06-.06.1a.96.96 0 0 0-.13.42c-.04.56-.1 1.14-.56 1.47-.02.02-.03.05-.01.08.08.14.07.31-.05.52-.17.31-.38.6-.63.87-.1.11-.16.24-.21.4a.1.1 0 0 1-.07.06c-.15.04-.33.16-.55.34a3.84 3.84 0 0 1-.85.56c-.14.07-.27.07-.4 0-.02-.02-.04-.02-.06.01-.3.42-.86.52-1.33.54-.17 0-.41.05-.55.14-.05.04-.09.06-.12.06s-.07-.02-.12-.06c-.14-.09-.38-.13-.55-.14-.47-.02-1.02-.13-1.32-.55-.02-.02-.05-.03-.08-.01-.12.07-.25.07-.4 0a3.73 3.73 0 0 1-.84-.56c-.22-.18-.4-.3-.54-.34a.1.1 0 0 1-.07-.07 1.11 1.11 0 0 0-.22-.39 4.72 4.72 0 0 1-.62-.87c-.12-.21-.13-.39-.05-.53.02-.03.01-.05-.01-.07-.46-.34-.52-.92-.56-1.47a.96.96 0 0 0-.13-.42L3.44 9l.05-.1a.96.96 0 0 0 .13-.42c.05-.55.1-1.14.56-1.47.03-.02.03-.04.02-.07-.09-.14-.07-.32.05-.53.17-.31.38-.6.62-.87.1-.1.16-.23.22-.39a.1.1 0 0 1 .07-.07c.14-.04.32-.15.54-.34l.4-.31c.14-.1.29-.17.45-.25.14-.07.27-.06.4 0 .02.03.05.02.07 0 .3-.43.85-.53 1.33-.55.17 0 .4-.05.54-.14.05-.04.1-.05.13-.05ZM9 5c.26 0 .4.24.36.5-.01.12.07.2.19.2h1.43c.3 0 .5.06.64.14.33.18.38.5.38.9v5.94c0 .17-.08.28-.24.3l-.01.01c-.18 0-.27-.1-.27-.27V6.49a.23.23 0 0 0-.06-.15.2.2 0 0 0-.14-.07 256.48 256.48 0 0 0-4.56 0 .2.2 0 0 0-.14.07.23.23 0 0 0-.06.15v6.23c0 .17-.09.27-.27.27-.17-.04-.25-.14-.25-.3V6.74c0-.41.05-.73.38-.91.13-.08.35-.15.64-.14h1.43c.12 0 .2-.08.19-.2-.04-.26.1-.5.36-.5Zm1.08 1.74c.13 0 .37.03.75.1.06 0 .1.03.12.06.04.06.06.12.05.16a.25.25 0 0 1-.09.16.21.21 0 0 1-.15.05l-.31-.02c-.07 0-.12.02-.16.1v.05c-.01.04 0 .08.03.1.03.04.06.05.1.06h.31c.14.01.26.06.26.22 0 .17-.12.22-.26.22l-.3.01a.15.15 0 0 0-.11.05.16.16 0 0 0-.04.1l.01.06c.04.07.09.1.16.1l.3-.02c.06 0 .12.01.16.05.05.04.08.1.09.15 0 .05-.01.1-.05.16-.02.04-.06.06-.12.07-.38.06-.63.1-.75.1s-.37-.04-.75-.1c-.05-.01-.1-.03-.12-.07-.03-.06-.05-.11-.04-.16 0-.06.04-.12.08-.15.05-.04.1-.06.16-.06l.3.03c.08 0 .13-.03.16-.1l.02-.05a.16.16 0 0 0-.04-.11.15.15 0 0 0-.1-.05L9.42 8c-.13 0-.26-.05-.26-.22 0-.16.13-.21.26-.21l.31-.01c.04 0 .08-.02.1-.05a.16.16 0 0 0 .05-.11c0-.02 0-.04-.02-.06-.03-.07-.08-.1-.15-.1l-.31.03a.21.21 0 0 1-.16-.05.25.25 0 0 1-.08-.16c0-.05 0-.1.05-.16.02-.03.06-.05.12-.06.37-.07.62-.1.74-.1Zm-1.44 0H7.2c-.12.01-.18.08-.2.21l.01.04c0 .14.07.21.2.21h.35c.04 0 .07.02.1.04.02.02.04.05.04.09v.05c0 .11-.05.17-.14.17a3 3 0 0 1-.11 0c-.21 0-.45-.01-.45.23 0 .24.23.24.45.24h.1c.1 0 .15.05.16.17v.05l-.06.09a.13.13 0 0 1-.09.03h-.35c-.13 0-.2.07-.2.21a.4.4 0 0 0 0 .04c.01.13.07.2.19.2.25.02.5.02.72.01h.72c.1 0 .17-.07.18-.2v-.05c0-.14-.07-.2-.2-.2h-.35a.13.13 0 0 1-.09-.04.16.16 0 0 1-.05-.1V8.2c0-.12.06-.17.15-.17h.1c.22 0 .45 0 .45-.24s-.23-.24-.44-.23h-.11c-.1 0-.14-.06-.15-.17v-.05c0-.04.03-.07.05-.1a.13.13 0 0 1 .09-.03h.36c.12 0 .19-.07.2-.2a.4.4 0 0 0 0-.05c-.02-.13-.08-.2-.2-.2Zm1.92 2.43a275.41 275.41 0 0 0-3.14 0 .42.42 0 0 0-.3.15.49.49 0 0 0-.12.33v1.93c0 .33.15.53.47.52h.47c.1 0 .16.07.16.18 0 .12-.05.18-.16.18h-.82c-.12 0-.2.07-.24.2a.37.37 0 0 0-.01.1c.03.15.11.23.24.23h.93c.17 0 .3-.03.38-.09.12-.1.19-.21.21-.37a.72.72 0 0 1 .08-.28c.07-.1.17-.15.28-.15.12 0 .22.05.3.15.02.05.05.14.07.28.02.16.1.28.21.37.09.06.21.1.38.1l.93-.01c.13 0 .21-.09.25-.24l-.02-.1c-.04-.12-.12-.19-.24-.19h-.82c-.1 0-.16-.06-.16-.18s.05-.17.16-.18h.47c.32 0 .48-.2.48-.53V9.65a.5.5 0 0 0-.13-.34.42.42 0 0 0-.3-.14Zm-.09 2.42a.08.08 0 0 0 .02-.05V9.7c0-.02 0-.04-.02-.06a.07.07 0 0 0-.05-.02H7.57c-.02 0-.04 0-.05.02a.08.08 0 0 0-.02.06v1.84c0 .02 0 .04.02.05.01.02.03.03.05.03h2.85c.02 0 .04-.01.05-.03ZM8.05 10h1.88c.11 0 .2.1.2.22v.01c0 .13-.09.23-.2.23H8.05c-.11 0-.2-.1-.2-.23s.09-.23.2-.23Zm1.87.82H8.06c-.12 0-.21.1-.21.23v.01c0 .13.09.23.2.23h1.87c.12 0 .21-.1.21-.23v-.01c0-.13-.09-.23-.2-.23Z" fill="#0075C2"/></svg>