<!-- by TradingView --><svg width="18" height="18" viewBox="0 0 18 18" xmlns="http://www.w3.org/2000/svg"><path fill="#F0F3FA" d="M0 0h18v18H0z"/><path d="M12.23 9.83 14 12.95v.02c0 .02-.04.03-.05.03h-1.7c-.02 0-.03 0-.05-.02l-1.16-2.1c-.02-.03-.04-.04-.06-.02a8.89 8.89 0 0 1-4.05 1.94c-.97.19-1.94.2-2.9.2-.03 0-.04-.01-.02-.04l4.73-8.94c.02-.03.04-.03.05 0 .82 1.35 1.48 2.45 1.97 3.3.2.33.36.57.5.72.21.22.44.4.7.53.15.09.41.16.76.21.26.04.61.04 1.06.02.03 0 .05.01.05.04v.04c0 .02 0 .03-.03.04l-.72.47c-.11.08-.39.2-.83.4-.03 0-.03.02-.02.04Zm-2.05-.3v-.06L8.81 7.12a.03.03 0 0 0-.03-.01.03.03 0 0 0-.02.01l-2.13 4.03a.04.04 0 0 0 .02.06h.02l1.1-.3a4.99 4.99 0 0 0 2.4-1.39Z" fill="#E60012"/></svg>