<!-- by TradingView --><svg width="18" height="18" viewBox="0 0 18 18" xmlns="http://www.w3.org/2000/svg"><path fill="#F0F3FA" d="M0 0h18v18H0z"/><path fill-rule="evenodd" d="M9 15A6 6 0 1 0 9 3a6 6 0 0 0 0 12Zm0-2a4 4 0 1 0 0-8 4 4 0 0 0 0 8Z" fill="#E41B14"/><path fill-rule="evenodd" d="M9 12a3 3 0 1 0 0-6 3 3 0 0 0 0 6Zm.15-4.55L9 6.22l-.15 1.23-.4-1.18.1 1.24-.62-1.08.33 1.2-.8-.95L8 7.8l-.98-.76.76.98-1.1-.56.93.81-1.2-.33 1.09.62-1.24-.1 1.18.4L6.22 9l1.23.15-1.18.4 1.24-.1-1.08.62 1.2-.33-.95.8L7.8 10l-.76.98.98-.76-.56 1.1.81-.93-.33 1.2.62-1.09-.1 1.24.4-1.18.15 1.23.15-1.23.4 1.18-.1-1.24.62 1.08-.33-1.2.8.95L10 10.2l.98.76-.76-.98 1.1.56-.93-.81 1.2.33-1.09-.62 1.24.1-1.18-.4L11.78 9l-1.23-.15 1.18-.4-1.24.1 1.08-.62-1.2.33.95-.8L10.2 8l.76-.98-.98.76.56-1.1-.81.93.33-1.2-.62 1.09.1-1.24-.4 1.18Z" fill="#E6B006"/></svg>