<!-- by TradingView --><svg width="18" height="18" viewBox="0 0 18 18" xmlns="http://www.w3.org/2000/svg"><path fill="#F0F3FA" d="M0 0h18v18H0z"/><path d="M3 8.79s1.17-.23 2.23 1.13c1.07 1.35 2.6 3.33 3.2 3.73.58.41 1.53.5 2.12.05.58-.4 1.86-1.71 1.86-1.71s-1.33.27-1.92-.45c-.58-.72-3.56-4.1-3.56-4.1s-.85-.77-1.86-.27A6.85 6.85 0 0 0 3 8.79Z" fill="#EF3E36"/><path d="M5.1 5.84s1.23-.35 2.21.92C8.3 8 9.33 9.53 10.11 9.93c.87.4 1.9-.82 4.39-2.93l-1.41-1.5L11.2 7 8.86 4.39s-.87-.7-1.8-.22a7.1 7.1 0 0 0-1.97 1.67Z" fill="#07549C"/></svg>