<!-- by TradingView --><svg width="18" height="18" viewBox="0 0 18 18" xmlns="http://www.w3.org/2000/svg"><path fill="#F0F3FA" d="M0 0h18v18H0z"/><path d="m7.42 5.75-.86-.94L7.9 4l.94.64-1.42 1.11Zm-2.37.46L6.3 4.94l-.55-.4L4.67 5.7l.38.51Zm3.7 1L7.39 5.94 5.95 7.41l1.31 1.38 1.5-1.58Zm-2.91.17L5 6.35 4 7.74l.7 1.14 1.14-1.5Zm1.54 4.68 1.38-1.27-1.5-1.58-1.3 1.38 1.42 1.47Zm-1.54-1.44L5 11.65l-1-1.39.7-1.14 1.14 1.5Zm-.79 1.17 1.24 1.27-.55.4-1.07-1.16.38-.51Zm2.37.46-.86.94L7.9 14l.94-.64-1.42-1.11Zm3.16-6.5.86-.94L10.1 4l-.94.64 1.42 1.11Zm2.37.46L11.7 4.94l.55-.4 1.07 1.16-.38.51Zm-3.7 1 1.37-1.27 1.43 1.47-1.31 1.38-1.5-1.58Zm2.91.17L13 6.35l1 1.39-.7 1.14-1.14-1.5Zm-1.54 4.68-1.38-1.27 1.5-1.58 1.3 1.38-1.42 1.47Zm1.54-1.44.84 1.03 1-1.39-.7-1.14-1.14 1.5Zm.79 1.17-1.24 1.27.55.4 1.07-1.16-.38-.51Zm-2.37.46.86.94-1.34.81-.94-.64 1.42-1.11Z" fill="#003577"/></svg>