<!-- by TradingView --><svg width="18" height="18" viewBox="0 0 18 18" xmlns="http://www.w3.org/2000/svg"><path fill="#165D33" d="M0 0h18v18H0z"/><path fill-rule="evenodd" d="M4 5h10v8H4V5Zm.5.5h9v5.74a1.83 1.83 0 0 0-.13-.01.2.2 0 0 1-.14-.07 1.23 1.23 0 0 0-.2-.18.5.5 0 0 0-.26-.08c-.22-.01-.42.01-.59.07h-.04a3.39 3.39 0 0 1-.3-.2.56.56 0 0 1-.16-.18.43.43 0 0 1-.06-.23.57.57 0 0 0-.06-.26c0-.01 0-.02-.02-.02a1.1 1.1 0 0 0-.19-.06 1.22 1.22 0 0 1-.19-.06.57.57 0 0 1-.13-.08 1.43 1.43 0 0 1-.13-.13h-.05a.14.14 0 0 0-.06.11c0 .02-.01.03-.03.04a.08.08 0 0 1-.04.03l-.35.08a.74.74 0 0 1-.14.03.3.3 0 0 1-.14 0 1.47 1.47 0 0 0-.38-.1c-.03 0-.05-.02-.06-.04 0-.02 0-.03.02-.03a.2.2 0 0 0 .17-.12.41.41 0 0 1 .08-.1c.01-.03.05-.06.1-.1l.02-.02.01-.03v-.03a1.7 1.7 0 0 1-.24-.34c-.03-.07-.09-.1-.17-.07a.06.06 0 0 0-.04.03c-.02.04 0 .08.04.11l.02.04a.1.1 0 0 1 0 .08.12.12 0 0 1-.07.05.16.16 0 0 1-.08 0 .13.13 0 0 1-.07-.02.42.42 0 0 1-.08-.07c-.02-.04-.03-.07-.02-.1 0-.02.01-.03.03-.04a.32.32 0 0 0 .08-.08.08.08 0 0 0 .01-.05l-.02-.13c0-.02 0-.04.03-.05a.05.05 0 0 1 .05 0l.1.05c.01.01.04.02.08.01a.32.32 0 0 0 .18-.08c.03-.03.04-.05.04-.07 0-.04-.02-.06-.05-.07a1.32 1.32 0 0 0-.46-.07.21.21 0 0 1-.2-.1.35.35 0 0 1-.06-.2c0-.04.01-.05.05-.05l.12.01c.07.02.13.02.17.02.09-.02.19-.04.28-.08l.03.01c.02.05.05.1.09.13.05.05.1.07.14.05l.04-.02.13-.2c.03-.05.03-.09-.02-.13l-.11-.1c-.05-.04-.1-.03-.13.01l-.15.18c-.01.02-.02.02-.04 0l-.16-.1c-.03-.02-.04-.04-.04-.07 0-.03.01-.05.04-.07a.63.63 0 0 0 .21-.22c.06-.1.06-.2-.01-.27a1.58 1.58 0 0 1-.19-.25.15.15 0 0 0-.06-.05.15.15 0 0 0-.07-.02c-.03 0-.05 0-.07.02-.02.02-.03.05-.03.08 0 .05.01.1.03.14.01.04 0 .07-.03.1a.13.13 0 0 1-.1.03.17.17 0 0 1-.08-.04.16.16 0 0 1-.06-.07.11.11 0 0 1 0-.09c.05-.1.1-.22.18-.32a.55.55 0 0 0 .07-.49c-.03-.09-.08-.15-.14-.17a.1.1 0 0 0-.1 0c-.05.04-.07.09-.05.16l.08.18v.04a.07.07 0 0 1-.09 0 1.14 1.14 0 0 1-.3-.32V6.3L9 6.08a.27.27 0 0 0 .09-.13V5.9l-.13-.28a.06.06 0 0 0-.03-.03c-.07-.03-.12-.02-.17.01-.1.07-.13.16-.1.28l-.01.1a.27.27 0 0 1-.08.1l-.2.2a.41.41 0 0 0-.1.27c0 .13.02.25.05.36v.05L8.25 7a24.3 24.3 0 0 1-.38.33c-.11.1-.11.18-.02.28.02.01.03.04.02.06 0 .03-.02.05-.04.06a1 1 0 0 0-.29.17.27.27 0 0 0-.07.3.1.1 0 0 1 0 .05.6.6 0 0 1-.08.19l-.13.17-.02.02-.01.02a.07.07 0 0 0 0 .08l.02.03c.05.08.09.14.1.19.01.07-.02.13-.09.17a.68.68 0 0 1-.21.09c-.08.01-.12.05-.15.11a.2.2 0 0 0 .01.18c.03.05.02.1 0 .14l-.23.32a.06.06 0 0 0 0 .07l.03.06.08.15c0 .05-.01.1-.06.15a.27.27 0 0 1-.12.04.4.4 0 0 0-.08.03.07.07 0 0 0-.03.02l-.02.03a.57.57 0 0 1-.08.12.15.15 0 0 1-.14.04.9.9 0 0 1-.25-.08.05.05 0 0 1-.03-.03.2.2 0 0 1 0-.12c0-.03.02-.06.05-.11v-.01a.1.1 0 0 0-.02-.12 1.96 1.96 0 0 1-.17-.2c-.06-.08-.12-.1-.2-.08h-.04c-.02-.02-.02-.03-.01-.05.04-.1.06-.2.04-.33a.18.18 0 0 0-.04-.1.43.43 0 0 0-.13-.08.61.61 0 0 1-.1-.06.04.04 0 0 1-.02-.04V9.2l.02-.1c0-.03 0-.07-.02-.1-.02-.05-.06-.08-.1-.09-.05 0-.09.02-.12.07l-.23.37a.65.65 0 0 0-.1.22.67.67 0 0 0 0 .24c0 .02 0 .03-.02.04a.77.77 0 0 0-.2.19.6.6 0 0 1-.08.07V5.5Zm0 5.02v.09h.01l.02-.02v-.03a.74.74 0 0 1-.03-.04Zm5.64 1.98H10l.02-.05c.01-.02.03-.03.06-.03.02 0 .04.01.05.04l.01.04Zm2.05 0h-.38a.45.45 0 0 1 .05-.11c.04-.07.08-.1.14-.1h.02c.05 0 .1.04.13.1l.04.11Zm1.1 0h.21v-.23c-.1.03-.16.07-.19.14a.26.26 0 0 0-.02.09Zm.21-.53v-.52h-.1l-.05.01a.05.05 0 0 0-.01.04v.12c.01.03 0 .05-.04.05l-.24.01-.04.01c-.06.05-.1.1-.12.15v.04l.04.02a2.68 2.68 0 0 1 .56.07ZM9.22 7.99l-.12-.14a.06.06 0 0 1-.01-.05c0-.02 0-.03.02-.04l.08-.06a.07.07 0 0 1 .05-.02c.03 0 .04.02.05.04l.03.05.01.02.01.16V8l-.04.03a.07.07 0 0 1-.08-.03Zm.24 1.69c.04.02.08.02.1 0 .02-.03 0-.07-.04-.1-.04-.02-.09-.02-.1 0-.02.03 0 .07.04.1Zm-.03.75.01-.01.24-.25v-.03h-.01a.2.2 0 0 0-.14-.05.2.2 0 0 0-.14.06.17.17 0 0 0-.05.14c0 .05.02.1.06.13h.03Zm1.48-.06a.08.08 0 0 1-.03-.05l-.05-.2c0-.02 0-.02-.02-.02h-.01c-.02.01-.03.02-.03.04l-.03.15c-.02.06-.06.09-.1.1h-.19c-.02 0-.03.01-.03.03-.05.24-.03.42.05.54l.03.03a.82.82 0 0 0 .57-.02c.05-.02.1-.02.15-.02a11.88 11.88 0 0 0 .47.05c.02 0 .04-.02.04-.05 0-.02 0-.04-.03-.05a.36.36 0 0 1-.17-.16.36.36 0 0 0-.1-.12 1.1 1.1 0 0 0-.22-.18.65.65 0 0 0-.25-.06l-.05-.01Zm1.78 1.16.13-.07c.02-.01.05 0 .07.02v.01c.02.02.01.05-.01.07l-.13.06a.05.05 0 0 1-.07-.01v-.02a.05.05 0 0 1 .01-.06Zm-.32.22-.04.27c0 .03-.02.05-.04.05-.03 0-.05 0-.07-.02l-.16-.2a.05.05 0 0 1 0-.06c0-.02.01-.03.03-.04l.2-.06.06.01c.02.02.02.03.02.05ZM11 10.81h.39a.16.16 0 0 0-.05-.13.18.18 0 0 0-.13-.04h-.02c-.05 0-.1.01-.13.05a.16.16 0 0 0-.06.12Zm-.78-1.76-.07.02c-.03 0-.06 0-.08-.02a.1.1 0 0 1-.05-.07L10 8.9a.1.1 0 0 1 .05-.1l.14-.1a.11.11 0 0 1 .14 0 .1.1 0 0 1 .04.06.1.1 0 0 1-.01.07l-.07.16a.1.1 0 0 1-.08.06Zm.42.4c.08.03.12.09.1.18a.6.6 0 0 1-.02.14c-.02.05-.05.08-.1.1a.19.19 0 0 1-.2-.05.32.32 0 0 1-.1-.2c0-.09.01-.15.06-.18.06-.05.15-.05.26 0Z" fill="#fff"/></svg>