<!-- by TradingView --><svg width="18" height="18" viewBox="0 0 18 18" xmlns="http://www.w3.org/2000/svg"><path fill="#F0F3FA" d="M0 0h18v18H0z"/><path d="M10 5.85c1.94 1.13 5.85 3.4 6 3.4l-6 3.25V5.85Z" fill="url(#adaliftkz)"/><path d="M5.5 10c1.13 1.96 3.3 6 3.3 6l3.35-6H5.5Z" fill="url(#bdaliftkz)"/><path d="M8 5.75a148.16 148.16 0 0 1-6 3.37l6 3.22V5.75Z" fill="url(#cdaliftkz)"/><path d="M8.85 2S6.65 6.04 5.5 8H10V5.85l1.55.92L8.85 2Z" fill="url(#ddaliftkz)"/><defs><linearGradient id="adaliftkz" x1="13" y1="5.85" x2="13" y2="12.5" gradientUnits="userSpaceOnUse"><stop offset=".02" stop-color="#A3E3FC"/><stop offset=".45" stop-color="#CCF7FE"/><stop offset=".5" stop-color="#BBF0FE"/><stop offset="1" stop-color="#96DAFD"/></linearGradient><linearGradient id="bdaliftkz" x1="5.5" y1="13.04" x2="12.15" y2="13.04" gradientUnits="userSpaceOnUse"><stop offset=".02" stop-color="#00A1F2"/><stop offset=".45" stop-color="#01BFF9"/><stop offset=".5" stop-color="#01C9FD"/><stop offset="1" stop-color="#09A7F1"/></linearGradient><linearGradient id="cdaliftkz" x1="5" y1="5.75" x2="5" y2="12.34" gradientUnits="userSpaceOnUse"><stop offset=".02" stop-color="#A3E3FC"/><stop offset=".45" stop-color="#CCF7FE"/><stop offset=".5" stop-color="#BBF0FE"/><stop offset="1" stop-color="#96DAFD"/></linearGradient><linearGradient id="ddaliftkz" x1="5.5" y1="4.96" x2="12.21" y2="4.96" gradientUnits="userSpaceOnUse"><stop offset=".02" stop-color="#00A1F2"/><stop offset=".45" stop-color="#01BFF9"/><stop offset=".5" stop-color="#01C9FD"/><stop offset="1" stop-color="#09A7F1"/></linearGradient></defs></svg>