<!-- by TradingView --><svg width="18" height="18" viewBox="0 0 18 18" xmlns="http://www.w3.org/2000/svg"><path fill="#F0F3FA" d="M0 0h18v18H0z"/><path d="m11.75 8.24.28-.12c.14-.06.26-.03.35.1a.3.3 0 0 1 .05.27c-.03.12-.14.24-.31.35l-.22.18a.31.31 0 0 0-.07.3c.39 1.52.7 2.85.93 4 .04.23.01.43-.1.6-.03.06-.1.09-.17.08a.18.18 0 0 1-.15-.11l-2.09-5.04a.16.16 0 0 0-.12-.1.16.16 0 0 0-.16.06 24.2 24.2 0 0 1-3.25 2.99.25.25 0 0 0-.1.27l.3 1.34c.03.1.01.2-.04.29a.67.67 0 0 1-.13.16.21.21 0 0 1-.18.05.2.2 0 0 1-.15-.11l-.56-1.02a.34.34 0 0 0-.29-.18c-.17-.02-.27-.11-.28-.3a.34.34 0 0 0-.23-.3l-.82-.34a.35.35 0 0 1-.19-.17.34.34 0 0 1-.02-.26l.02-.1c.03-.11.1-.16.23-.14l1.57.28c.11.02.2-.01.28-.1C7.05 10 8.03 8.94 9.08 8a.2.2 0 0 0 .07-.19.2.2 0 0 0-.13-.15l-4.86-1.9c-.1-.04-.16-.12-.16-.23 0-.13.07-.2.2-.23.22-.04.43-.03.65.01 1.31.27 2.54.56 3.68.87.11.03.22.02.32-.05a.79.79 0 0 0 .23-.27.84.84 0 0 1 .24-.28.36.36 0 0 1 .26-.05c.16.03.23.13.22.3-.01.14-.05.27-.12.4-.06.1-.03.18.09.23.42.16.79.08 1.09-.23l.2-.22c.5-.52.9-.9 1.18-1.13.47-.41.92-.7 1.34-.86a.28.28 0 0 1 .33.08c.1.1.11.2.06.32-.19.46-.52.96-.99 1.49-.3.34-.73.76-1.3 1.27-.2.2-.28.5-.2.91.02.16.11.21.27.15Z" fill="#003673"/></svg>