<!-- by TradingView --><svg width="18" height="18" viewBox="0 0 18 18" xmlns="http://www.w3.org/2000/svg"><path fill="#F0F3FA" d="M0 0h18v18H0z"/><path fill-rule="evenodd" d="M14 9A5 5 0 1 1 4 9a5 5 0 0 1 10 0Zm-5.45 4.66c-.5-.66-1.27-1.96-1.27-3.1 0-1.25.73-2.4 1.1-2.81-.58.47-1.7 1.75-1.57 3.13a5.02 5.02 0 0 0 1.12 2.67c.2.05.4.09.62.11Zm-1.8-.65a4.06 4.06 0 0 1 3.47-7.26c-3.3 2.27-3.88 3.47-4.03 4.81-.1.9.26 1.86.57 2.45Zm3.6-7.22a4.06 4.06 0 0 1 .05 7.65c-.86-.54-2.34-1.82-2.34-3.35 0-1.42 1.36-3.27 2.3-4.3Z" fill="#281B40"/></svg>