<!-- by TradingView --><svg width="18" height="18" viewBox="0 0 18 18" xmlns="http://www.w3.org/2000/svg"><path fill="#F0F3FA" d="M0 0h18v18H0z"/><path d="M15 8.4c.11 2.45-4.98 4.68-6.14 4.6-2.49-.17-5.7-3.24-5.85-4.6-.15-1.36 1.32-2.55 2.92-2.38 1.61.17 1.9 1.19 2.93 1.19.82 0 1.9-1.2 3.21-1.2 2.46 0 2.98 1.6 2.93 2.39Z" fill="url(#afomgch2x)"/><path d="M15 8.55V8.4c.05-.8-.47-2.38-2.93-2.38h-.02c-.73 0-1.38.37-1.96.7-.29.16-.56.31-.8.4a1.26 1.26 0 0 1-1.04-.05 3.7 3.7 0 0 1-.55-.33 3.77 3.77 0 0 0-1.77-.72C5.83 6 5.72 6 5.61 6c-1.47 0-2.73 1.12-2.6 2.39.1-1.02 1.07-1.87 2.25-2.02a2.93 2.93 0 0 1 1.25.1c.52.15.87.4 1.19.62.19.12.36.25.55.33a1.26 1.26 0 0 0 1.03.05c.25-.09.52-.24.81-.4.3-.17.6-.34.94-.48.33-.13.68-.22 1.04-.22 2.27 0 2.88 1.35 2.93 2.18Z" fill="url(#bfomgch2x)"/><defs><linearGradient id="afomgch2x" x1="6.75" y1="6.88" x2="10.16" y2="12.57" gradientUnits="userSpaceOnUse"><stop stop-color="#500000"/><stop offset="1" stop-color="#E30304"/></linearGradient><linearGradient id="bfomgch2x" x1="4.2" y1="6.88" x2="15.08" y2="8.44" gradientUnits="userSpaceOnUse"><stop stop-color="#880309"/><stop offset=".32" stop-color="#B30000"/><stop offset=".66" stop-color="#D77C6F"/><stop offset="1" stop-color="#E30304"/></linearGradient></defs></svg>