<!-- by TradingView --><svg width="18" height="18" viewBox="0 0 18 18" xmlns="http://www.w3.org/2000/svg"><path fill="#F0F3FA" d="M0 0h18v18H0z"/><path d="M10.33 4h.2v8.38h-.2V4Zm.6.3h-.2v7.97h.2V4.3Zm.4.28h-.2v7.72h.2V4.58Zm.19.28h.2v7.74h-.2V4.86Zm.4.3h.2v7.48h-.2V5.16Zm-5.31.94h.17v6.3H6.6V6.1Zm-.2.3h-.16v6h.17v-6Zm-.35.3h-.17v5.64h.17V6.7Z" fill="#939598"/><path d="M7 12.1v-6l1 .46v5.54H7ZM10 12.1V4l-1 .77v7.33h1Z" fill="#89181A"/><path d="M5 12h8v1H5v-1Z" fill="#939598"/><path d="M6.78 4.6h-.9v.3h.3v.9h.3v-.9h.15c.08 0 .15-.08.15-.18V4.6Zm.8.08a.48.48 0 0 0-.26-.08c-.29 0-.53.27-.53.6 0 .33.24.6.53.6.1 0 .19-.03.27-.08v-.25a.28.28 0 0 1-.18.07c-.17 0-.3-.15-.3-.34 0-.19.13-.34.3-.34.06 0 .13.03.18.07v-.25Zm.09.75v.26c.04.04.17.11.36.11.25 0 .53-.18.53-.41 0-.23-.24-.33-.4-.33-.16 0-.2-.06-.2-.1 0-.06.02-.12.2-.12a.5.5 0 0 1 .3.11v-.22a.52.52 0 0 0-.3-.13c-.17 0-.5.09-.5.42 0 .26.32.32.47.31.04 0 .11.01.11.1 0 .1-.13.12-.2.12s-.28-.08-.37-.12Z" fill="#89181A"/></svg>