<!-- by TradingView --><svg width="18" height="18" viewBox="0 0 18 18" xmlns="http://www.w3.org/2000/svg"><path fill="#F0F3FA" d="M0 0h18v18H0z"/><path d="m2 11 3.27-4 9.56.23-6.03.17 5.75.16-6.23.17 5.94.16-6.37.16 6.09.16-6.54.17 6.25.16-6.53.17 6.25.16-6.82.17 6.53.16-7.23.2 6.61.19-7.23.2 6.62.2-7.24.2 6.62.19-7.24.2 6.62.19L2 11Z" fill="#FD5403"/><path d="M10.67 7C11.4 7 12 7.68 12 8.5v1c0 .82-.6 1.5-1.33 1.5H9V9h.5v1.5h1.25c.41 0 .75-.53.75-1v-1c0-.47-.34-1-.75-1H7V11h-.5V7.5H5V7h5.67ZM14.22 7C13.55 7 13 7.68 13 8.5v1c0 .82.55 1.5 1.22 1.5h1.04c.4 0 .74-.41.74-.92V8.5h-1.3c-.33 0-.2.5 0 .5h.8v1.1c0 .22-.14.4-.32.4h-.89c-.38 0-.79-.54-.79-1v-1c0-.46.4-1 .79-1H16V7h-1.78Z" fill="#767778"/></svg>