<!-- by TradingView --><svg xmlns="http://www.w3.org/2000/svg" width="18" height="18"><path fill="#F0F3FA" d="M0 0h18v18H0z"/><circle cx="9.17" cy="3.83" r=".83" fill="#125BAA"/><circle cx="9.17" cy="14.17" r=".83" fill="#125BAA"/><circle cx="14.17" cy="9.17" r=".83"/><circle cx="3.83" cy="9.17" r=".83"/><path d="M6.54 6.1c-.29.23-.22.49-.17.55.08.11.33.18.5 0A4.05 4.05 0 019.6 5.4c.9 0 2 .6 2.44.92A3.46 3.46 0 009.39 5.1a4.9 4.9 0 00-2.85 1zm4.93 5.8c.28-.23.21-.49.17-.55a.33.33 0 00-.5 0A4.05 4.05 0 018.4 12.6c-.9 0-2-.61-2.43-.92a3.46 3.46 0 002.65 1.23 4.9 4.9 0 002.85-1z"/><path d="M11.98 6.58c-.23-.29-.49-.22-.55-.18a.33.33 0 000 .5c.53.5 1.2 1.6 1.18 2.76 0 .9-.64 1.99-.96 2.42a3.46 3.46 0 001.27-2.63 4.9 4.9 0 00-.94-2.87zm-5.96 4.84c.23.29.49.22.55.18a.33.33 0 000-.5c-.53-.5-1.2-1.6-1.18-2.76 0-.9.64-1.99.96-2.42a3.46 3.46 0 00-1.27 2.63c0 1.42.65 2.5.94 2.87z" fill="#125BAA"/></svg>