<!-- by TradingView --><svg width="18" height="18" viewBox="0 0 18 18" xmlns="http://www.w3.org/2000/svg"><path fill="#F0F3FA" d="M0 0h18v18H0z"/><path d="M9.76 5H4.43C3.63 5 3 5.66 3 6.46V7h2v2.93c0 .6.36 1.37.7 1.75l1.7-1.8V7h2.62l1.7-1.47A4.33 4.33 0 0 0 9.76 5Z" fill="#2A2D45"/><path d="m12.06 5.78-1.7 1.71c.48.2.87.55 1.1 1.01h2.43a4.51 4.51 0 0 0-1.83-2.72ZM7.6 10.3l-1.72 1.74A4.43 4.43 0 0 0 14 9.5c0-.17 0-.34-.03-.5H9.54v.7c0 .76.53 1.4 1.24 1.58a2.13 2.13 0 0 1-3.2-.98Z" fill="#F8AF18"/></svg>