<!-- by TradingView --><svg width="18" height="18" viewBox="0 0 18 18" xmlns="http://www.w3.org/2000/svg"><path fill="#F0F3FA" d="M0 0h18v18H0z"/><circle cx="8" cy="8" r="1" fill="#611C15"/><circle cx="8" cy="10" r="1" fill="#611C15"/><circle cx="10" cy="8" r="1" fill="#611C15"/><circle cx="10" cy="10" r="1" fill="#611C15"/><circle cx="5.5" cy="5.5" r=".5" fill="#611C15"/><circle cx="5.5" cy="7.5" r=".5" fill="#611C15"/><circle cx="5.5" cy="10.5" r=".5" fill="#611C15"/><circle cx="5.5" cy="12.5" r=".5" fill="#611C15"/><path d="M8.5 5.5a.5.5 0 1 1-1 0 .5.5 0 0 1 1 0ZM10.5 5.5a.5.5 0 1 1-1 0 .5.5 0 0 1 1 0Z" fill="#611C15"/><circle cx="12.5" cy="5.5" r=".5" fill="#611C15"/><circle cx="12.5" cy="7.5" r=".5" fill="#611C15"/><circle cx="12.5" cy="10.5" r=".5" fill="#611C15"/><circle cx="12.5" cy="12.5" r=".5" fill="#611C15"/><path d="M10.5 12.5a.5.5 0 1 1-1 0 .5.5 0 0 1 1 0ZM8.5 12.5a.5.5 0 1 1-1 0 .5.5 0 0 1 1 0Z" fill="#611C15"/><ellipse cx="7.75" cy="14.67" rx=".31" ry=".33" fill="#611C15"/><ellipse cx="4.31" cy="7.67" rx=".31" ry=".33" fill="#611C15"/><ellipse cx="4.31" cy="10.67" rx=".31" ry=".33" fill="#611C15"/><ellipse cx="13.69" cy="10.67" rx=".31" ry=".33" fill="#611C15"/><ellipse cx="13.69" cy="7.67" rx=".31" ry=".33" fill="#611C15"/><ellipse cx="10.25" cy="14.67" rx=".31" ry=".33" fill="#611C15"/><ellipse cx="10.25" cy="3.33" rx=".31" ry=".33" fill="#611C15"/><ellipse cx="7.75" cy="3.33" rx=".31" ry=".33" fill="#611C15"/></svg>