<!-- by TradingView --><svg width="18" height="18" viewBox="0 0 18 18" xmlns="http://www.w3.org/2000/svg"><path fill="#F0F3FA" d="M0 0h18v18H0z"/><path d="M3 7.83v-.18c.03-.12.08-.2.2-.23.17-.06.34-.1.45-.24.04-.05.06-.14.06-.27l.02-.32c.02-.16.06-.41.2-.5.28-.2.59-.04.69.29.07.23.1.54.23.7.1.12.2.2.33.22l.48.09c.19.03.34.17.34.38 0 .06-.04.13-.11.21a.4.4 0 0 1-.2.1c-.2.05-.36.1-.47.15a.77.77 0 0 0-.46.46c-.04.12-.06.29-.06.5 0 .36.02.62.04.79.01.12.07.22.18.3 0 .02.03.02.04.02l.2-.03c.11-.02.26.02.24.17a.62.62 0 0 1-.6.56.8.8 0 0 1-.71-.34c-.15-.2-.24-.43-.28-.7a3.34 3.34 0 0 1-.04-.7c.04-.36.06-.72-.19-.99a.6.6 0 0 0-.21-.12.66.66 0 0 1-.37-.32ZM9.5 8.16c.3-.14.57-.19.87-.08.44.17.53.66.51 1.1a29.48 29.48 0 0 0 0 .75c0 .02.01.03.03.04.08.06.16.1.18.2.04.16-.04.32-.16.42-.17.16-.43.11-.56-.08a.98.98 0 0 1-.18-.6l.01-.71a.73.73 0 0 0-.08-.25c-.04-.08-.1-.13-.17-.15-.1-.02-.17.03-.22.15-.05.12-.08.24-.09.36v.8c0 .27-.15.61-.44.57-.23-.04-.33-.2-.31-.5.03-.43.02-.87 0-1.34a1.3 1.3 0 0 0-.12-.47.51.51 0 0 1-.07-.23c.01-.12.1-.22.2-.25.24-.05.42.03.55.25.01.02.03.02.05.02ZM6.87 9.6a.31.31 0 0 1 0-.2c.02-.03.03-.04.05-.04.42.06.78-.03 1.07-.27.13-.1.2-.2.24-.3.13-.34-.01-.61-.35-.78-.4-.2-.8-.18-1.19.06-.45.29-.68.7-.69 1.23 0 .37.02.68.26.95.45.5 1.12.55 1.73.26.11-.06.65-.5.29-.66-.05-.02-.13-.01-.22.03l-.13.05c-.14.06-.26.11-.4.13-.33.06-.55-.1-.66-.46Zm.73-.99c-.03.13-.15.2-.29.18-.13-.02-.22-.14-.2-.26.02-.12.15-.2.28-.18.14.02.23.14.2.26Z" fill="#B1174B"/><path fill-rule="evenodd" d="M13.64 7.98c-.23-.08-.5-.12-.81-.1-.32.01-.58.08-.8.19-.44.22-.6.63-.63 1.1-.02.36.12.66.42.88.34.25.7.34 1.14.32.44-.02.79-.15 1.1-.43a.95.95 0 0 0 .32-.92c-.08-.47-.28-.86-.74-1.04Zm-.65.82h-.04c-.19-.02-.41-.01-.51.16a.3.3 0 0 0-.03.26c.06.17.25.19.43.2h.04c.18.03.41.02.5-.15a.3.3 0 0 0 .04-.27c-.06-.16-.26-.18-.43-.2Z" fill="#B1174B"/><path d="M15 10.47v.18c-.09.27-.26.38-.52.34-.51-.07-.53-.98.1-.93.2.02.35.16.42.41Z" fill="#B1174B"/></svg>