<!-- by TradingView --><svg width="18" height="18" viewBox="0 0 18 18" xmlns="http://www.w3.org/2000/svg"><path fill="#F0F3FA" d="M0 0h18v18H0z"/><path d="M2.47 9.64c-.1-1.26 2.8-2.63 6.5-3.06 1.97-.23 3.77-.15 5.03.18A14.44 14.44 0 0 0 9.15 6C5.2 6 2 7.28 2 8.86c0 .4.21.8.6 1.14a.83.83 0 0 1-.13-.36ZM15.44 8c.07.1.1.22.12.35.06.74-.96 1.51-2.56 2.1.48.13.84.33 1.05.55 1.2-.5 1.95-1.17 1.95-1.92 0-.38-.2-.75-.56-1.08ZM7.97 11.57l.01-.07c-1.42.1-2.7-.02-3.65-.3 1.02.44 2.34.73 3.8.8a.73.73 0 0 1-.16-.43Z" fill="#231815"/><path d="M7.36 9.03c.2-.15.34-.32.38-.54.05-.25-.1-.4-.4-.45A5.47 5.47 0 0 0 6.55 8l-.13.72-.04.22c0 .05-.17.9-.2.97h.49l.15-.82.14-.72c.23 0 .28.13.25.25-.03.18-.21.33-.32.4l.33.98.47-.37c-.04-.09-.29-.5-.33-.6Z"/><path d="M8.2 8.84c.06-.33.16-.79.18-.84h-.54l-.16.84-.06.3-.18.86h.53l.17-.85.06-.3ZM11.8 9.5c-.15 0-.3-.07-.3-.28 0-.5.61-.67.84-.7V8c-.7.17-1.1.55-1.27.87.08-.54-.18-.87-.7-.87-.65 0-1.08.55-1.18 1.05-.03.14-.03.32 0 .44l-.43.01.33-1.5h-.53l-.4 2h1l.07-.38c.09.22.3.38.64.38.54 0 .88-.38 1.06-.72-.03.37.18.71.77.72.23 0 .45-.04.51-.06l.17-.94h-.49l-.08.5Zm-1.3-.55c-.08.4-.28.56-.53.56-.18 0-.3-.14-.23-.5.07-.31.27-.6.52-.6.22 0 .31.2.24.54ZM13.97 8a1.2 1.2 0 0 0-.45.3 1.5 1.5 0 0 0-.33.45h-.01a.97.97 0 0 0-.12-.46.75.75 0 0 0-.35-.29l-.27.57a.6.6 0 0 1 .21.14c.13.13.2.42.13.78l-.02.12-.08.39h.5l.05-.34.03-.18c.06-.31.22-.57.38-.7.12-.11.26-.18.36-.21L13.97 8ZM4 8.66h.48L4.22 10h.52L5 8.66h.4L5.56 8h-1.4L4 8.66Z"/><path d="m5.87 9.77.5-.65-.08-.26-.34.45-.05-.19.28-.36-.08-.24-.27.37-.06-.2.32-.44L6.01 8l-.64.89.13.44.06.2.06.23c-.25.01-.44.06-.44.12 0 .07.25.12.56.12.3 0 .55-.05.55-.12 0-.06-.18-.1-.42-.12Z" fill="#D80C18"/><path fill="#231815" fill-opacity=".5" d="M8.71 11.2h4.08v.8H8.71z"/></svg>