<!-- by TradingView --><svg width="18" height="18" viewBox="0 0 18 18" xmlns="http://www.w3.org/2000/svg"><path fill="#F0F3FA" d="M0 0h18v18H0z"/><path d="M9.04 5C11.52 4.99 15 6.23 15 9c0 2.75-3.5 3.99-6 4-2.49.01-6-1.23-6-4C3 6.2 6.5 5 9.04 5ZM13 10.38c0-1.16-1.19-2.1-2.27-2.5-.17-.07-.25-.05-.35.1-.1.15-.17.31-.21.48l-.44 2c-.15.68-.3 1.02-.46 1.7a.52.52 0 0 1-.17.3c-.04.02-.07.04-.1.04s-.06-.01-.1-.04a.54.54 0 0 1-.17-.3c-.3-1.24-.56-2.15-.83-3.4-.06-.25-.1-.5-.24-.74-.13-.2-.21-.22-.45-.13-1.03.43-2.23 1.32-2.21 2.46.03 1.8 2.39 2.51 4 2.5 1.57-.02 4-.66 4-2.47Zm-.62 1.7h.03c1.03-.58 1.88-1.54 1.92-2.7 0-2.53-3.07-3.77-5.33-3.76-2.24 0-5.33 1.23-5.33 3.76 0 1.16.87 2.23 1.95 2.7-.82-.54-1.6-1.33-1.62-2.31C3.97 7.44 6.9 6.5 9 6.5c2.11-.01 5.02.95 5 3.27-.01.98-.8 1.76-1.62 2.31Z"/></svg>