<!-- by TradingView --><svg width="18" height="18" viewBox="0 0 18 18" xmlns="http://www.w3.org/2000/svg"><path fill="#F0F3FA" d="M0 0h18v18H0z"/><path d="M14 5H6.33L4 13h7.67L14 5Z" fill="#F01838"/><path d="M7.23 5.53c.6 0 .8.4.8.8 0 .18-.05.67-.26 1.2-.27.67-1.48 3.6-1.48 4.4 0 .37.2.8.8.8a.8.8 0 0 0 .81-.8c0-.37-.21-.8-.64-.8-.37 0-.7.3-.7.67 0 .34.16.67.54.67.26 0 .53-.28.53-.54 0-.3-.18-.53-.39-.53-.18 0-.41.12-.41.4 0 .15.08.35.28.35.14 0 .3-.1.28-.26-.01-.06-.04-.1-.08-.15a.07.07 0 0 0-.1 0 .07.07 0 0 0 0 .1l.03.06c.01.05-.05.1-.13.1-.09 0-.15-.07-.15-.2 0-.18.18-.26.28-.26.1 0 .26.12.26.4 0 .17-.22.4-.4.4-.3 0-.4-.28-.4-.54 0-.29.26-.52.56-.52.35 0 .5.36.5.65 0 .37-.29.67-.66.67-.56.01-.68-.35-.65-.76.1-1.1 1.1-2.33 1.72-2.84.8-.66 1.62-2 1.62-2.67 0-.26-.14-.66-.7-.65a.63.63 0 0 0-.64.65c0 .3.16.66.5.66a.6.6 0 0 0 .57-.56c0-.27-.11-.48-.4-.48-.2 0-.4.2-.4.38 0 .27.17.4.26.4.25 0 .27-.18.27-.3 0-.07-.07-.17-.15-.17-.08 0-.14.06-.13.1 0 .02 0 .04.04.07.02.03.02.07 0 .1a.07.07 0 0 1-.1 0 .26.26 0 0 1-.09-.15c-.02-.16.14-.26.28-.26.2 0 .29.16.29.3 0 .2-.12.45-.4.45-.21 0-.41-.23-.41-.54 0-.26.27-.53.54-.53.38 0 .54.29.54.63 0 .36-.33.7-.7.7-.44 0-.65-.42-.65-.8 0-.44.33-.8.79-.8.6 0 .82.4.82.8 0 .67-.62 2.38-.94 2.8-.32.43-.67 2-.67 2.66 0 .4.22.94.82.94.46 0 .8-.35.8-.8 0-.37-.22-.8-.65-.8-.38 0-.7.3-.7.67 0 .33.17.67.54.67.26 0 .53-.28.53-.54 0-.3-.14-.53-.37-.53-.3 0-.43.17-.43.4 0 .15.08.35.28.35.14 0 .3-.1.28-.26-.01-.06-.04-.1-.08-.15a.07.07 0 0 0-.1 0 .07.07 0 0 0 0 .1l.03.06c.01.05-.05.1-.13.1-.09 0-.15-.07-.15-.2s.14-.27.27-.27c.16 0 .26.13.26.4 0 .18-.2.4-.4.4-.3 0-.39-.27-.39-.53 0-.29.26-.52.56-.52.35 0 .5.36.5.65 0 .37-.27.66-.65.66-.55.01-.69-.54-.69-.8 0-.66.73-1.97 1.21-2.52.54-.67 2.02-1.87 2.02-2.94 0-.26-.14-.66-.69-.65a.63.63 0 0 0-.64.65c0 .3.15.66.5.66.3 0 .5-.23.5-.51 0-.26-.06-.51-.36-.51-.18 0-.36.18-.36.36 0 .27.13.37.22.37.13 0 .21-.13.22-.25 0-.07 0-.19-.08-.19-.07 0-.13.06-.13.1 0 .02.01.04.04.07.03.03.03.07 0 .1a.07.07 0 0 1-.1 0 .26.26 0 0 1-.08-.15c-.02-.16.13-.26.27-.26.2 0 .22.21.22.36 0 .18-.17.36-.36.36-.2 0-.36-.2-.36-.5 0-.26.24-.52.5-.52.39 0 .5.32.5.66 0 .36-.27.65-.64.65-.43 0-.65-.42-.65-.8 0-.44.34-.8.8-.8.6 0 .82.44.82.8 0 .67-.62 2.03-.94 2.67a6.61 6.61 0 0 0-.69 2.67c0 .4.21 1.06.82 1.06a.8.8 0 0 0 .8-.8c0-.37-.2-.8-.64-.8-.37 0-.7.3-.7.66 0 .34.16.68.54.68.27 0 .54-.28.54-.54 0-.3-.18-.53-.38-.53-.19 0-.43.13-.43.39 0 .15.09.36.29.36.14 0 .3-.1.27-.26 0-.06-.03-.1-.08-.15a.07.07 0 0 0-.1 0 .07.07 0 0 0 0 .1l.04.06c0 .05-.06.1-.13.1-.1 0-.15-.1-.15-.21 0-.15.18-.26.3-.26.08 0 .23.13.23.4 0 .18-.21.4-.4.4-.3 0-.42-.28-.42-.54 0-.29.29-.51.58-.51.35 0 .5.36.5.65 0 .37-.28.67-.66.67-.56.01-.67-.67-.67-.93.13-1.2.64-1.84 1.07-2.27.1-.09.2-.19.34-.3.62-.53 1.65-1.23 1.76-2.77 0-.4-.21-.65-.63-.65a.63.63 0 0 0-.65.65c0 .3.17.66.52.66.29 0 .54-.37.54-.66 0-.26-.1-.38-.4-.38-.19 0-.39.2-.39.38 0 .27.16.4.25.4.13 0 .26-.25.27-.37 0-.07-.06-.1-.14-.1-.08 0-.14.06-.13.1 0 .02 0 .04.03.07.03.03.03.07 0 .1a.07.07 0 0 1-.1 0 .26.26 0 0 1-.08-.15c-.02-.16.14-.26.28-.26.2 0 .28.12.28.27 0 .18-.23.48-.41.48-.2 0-.4-.23-.4-.54 0-.26.28-.53.55-.53.38 0 .53.2.53.53 0 .37-.31.8-.68.8-.43 0-.66-.42-.66-.8 0-.44.33-.8.79-.8.6 0 .82.4.77.8L11.67 13H4c.06-.2.15-.5.27-.83.03.3.3.56.8.56s.81-.35.81-.8c0-.37-.23-.8-.69-.8-.4 0-.65.3-.65.66 0 .33.15.68.54.68.28 0 .54-.28.54-.54 0-.3-.21-.53-.43-.53-.2 0-.38.2-.38.39 0 .15.02.36.23.36.15 0 .31-.1.3-.26-.02-.06-.05-.1-.1-.15a.08.08 0 0 0-.1 0 .07.07 0 0 0 0 .1l.04.06c0 .05-.06.1-.14.1-.1 0-.08-.15-.08-.21 0-.1.12-.24.23-.24.1 0 .27.11.27.38 0 .18-.18.4-.38.4-.32 0-.4-.28-.4-.54 0-.29.2-.51.51-.51.38 0 .54.36.54.65 0 .37-.25.66-.65.66-.6.01-.71-.39-.71-.66.03-.8.65-1.4 1.11-1.86.94-.94 2.42-2.94 2.42-3.74 0-.26-.11-.66-.67-.65a.65.65 0 0 0-.66.65c0 .3.15.66.5.66.3 0 .55-.28.55-.56 0-.27-.1-.48-.4-.48-.18 0-.38.2-.38.38 0 .27.16.4.24.4.14 0 .27-.17.28-.3 0-.06-.07-.17-.15-.17-.07 0-.13.06-.13.1 0 .02.01.04.04.07.03.03.03.07 0 .1a.07.07 0 0 1-.1 0 .26.26 0 0 1-.08-.15c-.02-.16.13-.26.27-.26.2 0 .29.2.29.35 0 .18-.23.4-.42.4-.2 0-.39-.23-.39-.54 0-.26.27-.53.54-.53.38 0 .53.29.53.63 0 .36-.32.7-.69.7-.43 0-.65-.42-.65-.8 0-.44.36-.8.81-.8Z" fill="#4B5090"/></svg>