<!-- by TradingView --><svg width="18" height="18" viewBox="0 0 18 18" xmlns="http://www.w3.org/2000/svg"><path fill="#F0F3FA" d="M0 0h18v18H0z"/><path d="M9.79 11 9 9.5 7 13h5.91c.28 0 .71-.15 1-.75.22-.48 0-1.1-.15-1.25H9.8Z" fill="url(#a)"/><path d="M8 8.02 5.14 13c-1 0-1.14-.93-1.14-1.24 0-.25.29-.83.43-1.1L7 6l1 2.02Z" fill="url(#b)"/><path d="M10.65 9 8 4l1.47.47c.7.25 1.18.62 1.47 1.1L13 9h-2.35Z" fill="url(#c)"/><defs><linearGradient id="a" x1="7.94" y1="11.65" x2="13.63" y2="12.32" gradientUnits="userSpaceOnUse"><stop stop-color="#EC412D"/><stop offset="1" stop-color="#F65B34"/></linearGradient><linearGradient id="b" x1="7.29" y1="6.62" x2="4.33" y2="12.66" gradientUnits="userSpaceOnUse"><stop stop-color="#E6571F"/><stop offset="1" stop-color="#ED1B24"/></linearGradient><linearGradient id="c" x1="8.74" y1="4" x2="12.4" y2="8.95" gradientUnits="userSpaceOnUse"><stop stop-color="#F78C34"/><stop offset="1" stop-color="#FD823F"/></linearGradient></defs></svg>