<!-- by TradingView --><svg width="18" height="18" viewBox="0 0 18 18" xmlns="http://www.w3.org/2000/svg"><path fill="url(#a)" d="M0 0h18v18H0z"/><path d="M8.89 8.2c-.07 0-.1.03-.1.1v.64h.18c.08 0 .24-.09.24-.37 0-.15-.06-.37-.32-.37Zm.96 1.67H9.2c-.05 0-.08-.01-.08-.03 0-.03.02-.04.04-.04h.02c.02 0 .1-.04.1-.15v-.2c0-.36-.08-.44-.38-.44h-.07c-.03 0-.05.02-.05.06v.64c0 .02-.02.1.1.1.03 0 .05 0 .05.03s-.03.04-.1.04h-.66c-.04 0-.06-.01-.06-.04s.04-.03.12-.04l.1-.01c.03 0 .06-.01.06-.2v-1.3c0-.06-.06-.1-.17-.1h-.05c-.04 0-.06 0-.06-.03s.03-.04.1-.04h.87c.36 0 .55.13.55.4 0 .14-.1.32-.55.44.09 0 .6 0 .6.56v.16c0 .07.02.1.06.12l.1.01c.02 0 .03.02.03.04s0 .02-.03.02Z" fill="#E2E27A"/><path d="M9 10.76a1.77 1.77 0 1 1 0-3.53 1.77 1.77 0 0 1 0 3.53Zm0-3.38a1.62 1.62 0 1 0 0 3.25 1.62 1.62 0 0 0 0-3.25ZM12.3 10.87l.04-.01c.03 0 .03-.03 0-.04l-1.5-.82c0 .03-.03.06-.04.08l1.62 1.07c.03.02.03.01.01-.01l-.16-.21c-.02-.03-.01-.05.02-.06Z" fill="#E2E27A"/><path d="M5.57 11.14c-.02.02-.01.03.02.01l1.61-1.07a2.14 2.14 0 0 1-.05-.08l-1.5.82c-.02.01-.02.03.01.04h.05c.03.02.04.04.02.07l-.16.2ZM5.29 9.93c-.02.02-.01.04.02.03l1.65-.47-.02-.1-1.91.38c-.03.01-.03.02 0 .02l.26.04c.03 0 .04.03.03.05l-.03.05ZM5.29 8.17l-.26.04c-.03 0-.03.01 0 .02l1.9.38.03-.1-1.65-.47c-.03 0-.04 0-.02.03l.03.05c.01.02 0 .05-.03.05ZM11.1 8.92l2.87-.12c.04 0 .04-.02 0-.03l-.13-.06a.26.26 0 0 1-.08-.08l-.08-.13a.1.1 0 0 0-.09-.04l-2.5.36v.1ZM12.71 9.83l.26-.04c.04 0 .04 0 0-.02l-1.9-.38-.03.1 1.65.47c.03 0 .04 0 .02-.03l-.02-.05c-.02-.02-.01-.05.02-.05ZM12.71 8.07c.02-.02.01-.04-.02-.03l-1.65.47.02.1 1.91-.38c.04-.01.04-.02 0-.02l-.26-.04c-.03 0-.04-.03-.02-.05l.02-.05ZM5.71 7.13l-.05.01c-.03.01-.03.03 0 .04l1.5.82c0-.03.03-.05.04-.08L5.6 6.85c-.03-.02-.04-.01-.02.02l.16.2c.02.03.01.05-.02.06ZM12.43 6.87c.02-.03.02-.04-.01-.02L10.8 7.92l.05.08 1.5-.82c.02-.01.02-.03-.01-.04h-.05c-.03-.02-.04-.04-.02-.07l.16-.2ZM10.38 7.42l2-2.04c.03-.02.02-.03 0-.02l-.15.05h-.12l-.14-.05a.1.1 0 0 0-.1.03L10.3 7.35l.08.07ZM5.4 5.77c.02.03.02.08 0 .12l-.04.14c0 .03 0 .07.03.1L7.35 7.7l.07-.08-2.03-2c-.03-.03-.04-.02-.03 0l.05.15ZM7.9 10.8l-1.07 1.62c-.02.03-.01.03.01.01l.2-.16c.04-.02.06-.01.07.02l.01.05c0 .03.02.04.04 0l.82-1.5a2.1 2.1 0 0 1-.08-.05ZM7.35 10.3 5.4 11.88a.1.1 0 0 0-.03.1l.05.13v.12l-.05.14c-.01.03 0 .04.03.02l2.03-2.01a2.18 2.18 0 0 1-.07-.08Z" fill="#E2E27A"/><mask id="b" maskUnits="userSpaceOnUse" x="4" y="8" width="4" height="3"><path d="M4 8.46h3.05v2.16H4V8.46Z" fill="#fff"/></mask><g mask="url(#b)"><path d="m7.02 9.7-2.13.78c-.03 0-.03.02 0 .02l.27-.01c.03 0 .05.02.04.05l-.03.05c-.01.03 0 .04.03.03l1.85-.83a2.11 2.11 0 0 1-.03-.09Z" fill="#E2E27A"/></g><path d="m4.03 8.8 2.87.12v-.1l-2.5-.36a.1.1 0 0 0-.08.04l-.08.13a.23.23 0 0 1-.08.08l-.14.06c-.03.01-.03.03 0 .03ZM4.9 7.53l2.12.77.03-.09L5.2 7.4c-.03-.02-.04 0-.03.03l.03.04c0 .03 0 .05-.04.05H4.9c-.04 0-.04 0 0 .02Z" fill="#E2E27A"/><mask id="c" maskUnits="userSpaceOnUse" x="4" y="9" width="5" height="4"><path d="M4 9.08h4.59V13H4V9.08Z" fill="#fff"/></mask><g mask="url(#c)"><path d="m8.5 11.04-.48 1.65c-.01.03 0 .04.03.03l.05-.03c.02-.02.05 0 .05.02l.04.26c0 .04 0 .04.02 0l.38-1.91-.1-.02Z" fill="#E2E27A"/></g><mask id="d" maskUnits="userSpaceOnUse" x="4" y="9" width="5" height="4"><path d="M4 9.08h4.59V13H4V9.08Z" fill="#fff"/></mask><g mask="url(#d)"><path d="m6.9 9.08-2.87.12c-.04 0-.04.02 0 .03l.13.06c.03.02.07.05.08.08l.08.13a.1.1 0 0 0 .09.05l2.5-.37v-.1Z" fill="#E2E27A"/></g><path d="M7.61 10.57 5.6 12.62c-.03.02-.02.03.01.02l.14-.05h.12l.14.05a.1.1 0 0 0 .1-.03l1.58-1.97a2.1 2.1 0 0 1-.08-.07ZM13.1 10.48l-2.12-.78-.03.09 1.85.83c.03.01.04 0 .03-.03l-.02-.05c-.02-.03 0-.05.03-.05h.26c.03 0 .04 0 0-.01ZM10.39 10.57l-.08.07 1.59 1.97a.1.1 0 0 0 .1.03l.13-.05h.12l.14.05c.03.01.04 0 .02-.02l-2.02-2.05ZM12.6 12.23c-.02-.03-.02-.08 0-.12l.04-.14c0-.03 0-.07-.03-.1l-1.96-1.57-.07.08 2.04 2c.02.03.03.02.02 0l-.05-.15Z" fill="#E2E27A"/><mask id="e" maskUnits="userSpaceOnUse" x="8" y="9" width="6" height="6"><path d="M8.43 9.08H14V14H8.43V9.08Z" fill="#fff"/></mask><g mask="url(#e)"><path d="m8.8 11.1-.37 2.5c0 .03.02.07.05.09l.13.07.08.08.06.14c.01.03.02.03.03 0l.12-2.88h-.1Z" fill="#E2E27A"/></g><mask id="f" maskUnits="userSpaceOnUse" x="8" y="9" width="6" height="6"><path d="M8.43 9.08H14V14H8.43V9.08Z" fill="#fff"/></mask><g mask="url(#f)"><path d="m13.97 9.2-2.87-.12v.1l2.5.37a.1.1 0 0 0 .08-.05l.08-.13a.24.24 0 0 1 .08-.08l.14-.06c.03-.01.03-.02 0-.03Z" fill="#E2E27A"/></g><path d="m9.5 11.04-.09.02.38 1.91c.01.04.02.04.02 0l.04-.26c0-.03.03-.04.06-.02l.04.03c.03.01.04 0 .03-.03l-.47-1.65ZM10.1 10.79a2.3 2.3 0 0 1-.08.05l.82 1.5c.02.04.03.03.04 0l.01-.05c0-.03.03-.04.06-.02l.2.16c.03.02.04.02.02-.01l-1.07-1.63Z" fill="#E2E27A"/><mask id="g" maskUnits="userSpaceOnUse" x="9" y="10" width="3" height="4"><path d="M9.1 10.79h2.08V14H9.1v-3.21Z" fill="#fff"/></mask><g mask="url(#g)"><path d="M9.2 11.1h-.1l.12 2.88c0 .03.02.03.03 0l.06-.14a.23.23 0 0 1 .08-.08l.13-.07c.03-.02.05-.06.05-.1l-.37-2.5Z" fill="#E2E27A"/></g><path d="M9.8 10.94a2.1 2.1 0 0 1-.08.03l.78 2.14c.01.03.02.03.02 0v-.27c-.01-.03.01-.05.04-.03l.05.02c.03.01.04 0 .03-.03l-.83-1.86ZM8.2 10.94l-.83 1.86c-.02.03 0 .04.02.03l.05-.02c.03-.02.05 0 .05.03v.27c0 .03 0 .03.02 0l.77-2.14a2.02 2.02 0 0 1-.08-.03ZM10.98 8.3l2.13-.77c.03-.02.02-.02 0-.02h-.27c-.03 0-.05-.02-.03-.05l.02-.04c.01-.04 0-.05-.03-.03l-1.85.82.03.09ZM10.08 7.2l1.07-1.62c.02-.02.01-.03-.01-.01l-.21.16c-.03.02-.05.01-.06-.02l-.01-.05c-.01-.03-.02-.03-.04 0L10 7.16c.03 0 .05.03.08.04ZM8.21 7.05l.09-.03-.78-2.13c0-.03-.01-.03-.01 0v.27c0 .03-.02.05-.05.03l-.04-.02c-.04-.01-.05 0-.04.03l.83 1.85Z" fill="#E2E27A"/><mask id="h" maskUnits="userSpaceOnUse" x="7" y="4" width="2" height="4"><path d="M7.38 4h1.54v3.05H7.38V4Z" fill="#fff"/></mask><g mask="url(#h)"><path d="M8.92 6.9 8.8 4.03c0-.04-.02-.04-.03-.01l-.06.14a.2.2 0 0 1-.08.08l-.13.08a.1.1 0 0 0-.04.09l.36 2.5h.1Z" fill="#E2E27A"/></g><path d="m8.51 6.96.1-.02-.38-1.91c0-.03-.02-.03-.02 0l-.03.26c0 .03-.03.04-.06.03l-.04-.03c-.03-.02-.04-.01-.04.02l.47 1.65ZM7.92 7.2 8 7.15l-.82-1.5c-.01-.02-.03-.02-.04.01v.05c-.02.03-.04.04-.07.02l-.2-.16c-.03-.02-.04-.01-.02.01L7.92 7.2ZM9.79 7.05l.83-1.85c.01-.03 0-.04-.03-.03l-.05.02c-.03.02-.05 0-.05-.03v-.27c0-.03 0-.03-.01 0L9.7 7.02l.09.03ZM7.62 7.42l.08-.07L6.13 5.4a.1.1 0 0 0-.1-.03l-.14.05h-.12l-.14-.05c-.03-.01-.04 0-.01.02l2 2.04Z" fill="#E2E27A"/><mask id="i" maskUnits="userSpaceOnUse" x="5" y="4" width="5" height="4"><path d="M5.6 4h3.95v3.42H5.6V4Z" fill="#fff"/></mask><g mask="url(#i)"><path d="m9.18 6.9.37-2.5a.1.1 0 0 0-.05-.08l-.13-.08a.21.21 0 0 1-.08-.08l-.06-.14c-.01-.03-.03-.03-.03 0L9.08 6.9h.1Z" fill="#E2E27A"/></g><path d="m10.65 7.7 1.96-1.57a.1.1 0 0 0 .03-.1l-.05-.14v-.12l.05-.14c.01-.03 0-.04-.02-.01l-2.04 2 .07.08ZM9.49 6.96l.47-1.65c0-.03 0-.04-.03-.02l-.04.02c-.04.02-.06.01-.06-.02l-.04-.26c0-.03 0-.03-.02 0l-.38 1.9.1.03Z" fill="#E2E27A"/><defs><linearGradient id="a" x1="3.35" y1="3.12" x2="21.9" y2="24.43" gradientUnits="userSpaceOnUse"><stop stop-color="#1A1E21"/><stop offset="1" stop-color="#06060A"/></linearGradient></defs></svg>