<!-- by TradingView --><svg width="18" height="18" viewBox="0 0 18 18" xmlns="http://www.w3.org/2000/svg"><path fill="#0079B2" d="M0 0h18v18H0z"/><path d="M4 5.79c-.02-.35-.13-.46-.44-.56a1.68 1.68 0 0 0-.4-.03c-.1 0-.16-.04-.16-.11S3.08 5 3.22 5h3.02c1.22 0 2.87.14 3.94 1.3a3.62 3.62 0 0 1 .93 2.6 4.23 4.23 0 0 1-1.07 2.85A4.38 4.38 0 0 1 6.74 13H3.47c-.12 0-.3-.17-.3-.24 0-.05.03-.1.15-.1s.23-.02.35-.05c.2-.04.3-.24.34-.54V5.8Zm1 5.5c.01.26.14.62.22.72.12.2.74.41 1.5.41.9 0 1.56-.17 2.15-.7.63-.56.83-1.47.83-2.53 0-1.3-.48-2.14-.91-2.55A4 4 0 0 0 5.2 5.6a.17.17 0 0 0-.1.08c-.02.04-.12.08-.11.13v5.5Z" fill="#fff"/><path d="M8.39 11.9a3.92 3.92 0 0 1-1.23-3.02 4.05 4.05 0 0 1 1.15-2.8A4.22 4.22 0 0 1 11.42 5c.48 0 .96.04 1.43.1.37.07.7.14.98.18.11 0 .15.06.15.12l-.05.56c-.02.34-.02.9-.03 1.1-.01.15-.04.26-.13.26-.08 0-.1-.09-.1-.22a1.5 1.5 0 0 0-.38-.95c-.34-.35-1-.6-1.9-.6-.86 0-1.4.17-1.85.58-.73.67-.9 1.66-.9 2.65 0 2.43 1.73 3.58 3.05 3.58.87 0 1.35-.07 1.74-.54.16-.2.28-.43.34-.68.02-.16.04-.2.12-.2.07 0 .11.09.11.17-.04.46-.11.92-.21 1.36-.01.07-.04.14-.09.2-.04.05-.1.09-.17.1-.39.17-1.14.23-1.77.23a4.8 4.8 0 0 1-3.37-1.1" fill="#B5C3C4"/><path d="M9 6.87a3.33 3.33 0 0 0-.8-.67L8.17 6l.54-.46.35-.02c.25.1.5.24.72.41l-.03.22-.55.68-.2.03Z" fill="#fff"/></svg>