<!-- by TradingView --><svg xmlns="http://www.w3.org/2000/svg" width="18" height="18"><path fill="#F0F3FA" d="M0 0h18v18H0z"/><path d="M14 9c0 .2-.01.4-.04.6-2.76 0-4.32 3.46-4.32.7-.82-1.23-.41-5.31 2.35-5.31A5 5 0 0114 9z" fill="#00A759"/><path d="M13.97 9.56c-.06.57-.22 1.1-.46 1.6-1.17-.73-1.58.49-3.5.25.28-1.41 2.78-2.4 3.96-1.85z" fill="#3B3D3A"/><path d="M13.55 11.08c-.24.51-.54.96-.92 1.36H6.45c.28-.65 3.56-1.15 4.91-1.15.49-.2.99-.9 2.19-.2z" fill="#719625"/><path d="M9.77 9.79c-.18 1.37 1.36 1.67-.86 1.95 0 0-1.85.87-3.5.73a4.98 4.98 0 01.1-7.04l2.33 1.46L9.77 8.6s-.33.74 0 1.18z" fill="#F79D38"/><path d="M12.63 12.44a4.99 4.99 0 01-7.26 0h7.26z" fill="#22090C"/><path d="M12.03 5.02s-1.46 2-4.22 2L5.44 5.5a4.98 4.98 0 016.59-.47z" fill="#00B4B0"/><path d="M7.45 6.79l1.23.93.9-1.08a1.69 1.69 0 00-1.08-.46c-.49 0-.93.43-1.05.61z" fill="#FFC019"/><path d="M9.52 6.7l-.84 1 1.03.94c.12 0 .35-.09.54-.5.19-.4.57-.42.74-.35l-.02-.72c.32-.2.46-.82.12-.97-.28-.1-1.16.35-1.57.6z" fill="#D36C20"/><path d="M12.55 6.18c-.62.57-1.24.76-1.48.78-.17.03-.16.56-.13.8l.32.25c.48-.06.88.15 1 .29a.93.93 0 01.47-.73c.42.14.58-.18.6-.36-.17-.7-.59-.98-.78-1.03z" fill="#B4A51C"/><path d="M6.46 9.42a3.47 3.47 0 00-.68 0c-.66.13-.64 1.44-.83 1.92.24 0 .43-.86.5-1.29v2.4h.2v-.8l.37.8h.44c-.37-.19-.53-.73-.57-.91-.02-.24.23-.58.57-.59.27-.01.41.2.45.31.15-.07.5-.18.75-.07.25.1-.03 1.02-.17 1.36l.34-.1.32-.91c.25.04.45.48.25.92h.37c.2-.76-.3-1.26-.47-1.4.45-.26.3-.91.17-1.31-.02-.32.1-.7.18-.8l.39.47.22-.3c-.23-.23-.22-.65-.37-.94-.08-.12-.13-.22-.3-.22-.53 0-1 .96-1.16 1.46h-.26c-.1-.12.04-.25.12-.3.1-.04.14-.32.14-.45.04-.34-.34-.6-.26-.6.08 0 .15-.57-.17-.55-.25 0-.27.38-.24.56-.21.05-.54.38-.54.65 0 .22.28.28.42.28 0 .13-.12.33-.18.41z" fill="#0B0000"/></svg>