<!-- by TradingView --><svg width="18" height="18" viewBox="0 0 18 18" xmlns="http://www.w3.org/2000/svg"><path fill="#F0F3FA" d="M0 0h18v18H0z"/><path fill-rule="evenodd" d="M14 4H4v10h10V4ZM5 6.26V5h4.67v1.26H9.5c-.02-.32-.2-.9-.8-.94H7.68v5.05c0 .15.04.45.66.43v.2h-2v-.2c.27.01.67-.06.67-.43V5.32H5.88c-.23.03-.7.21-.69.94H5Zm5.33.74h-2v.18c.67 0 .67.33.67.47v4.3c0 .65-.2.75-.34.74-.13-.01-.32-.04-.36-.39a.53.53 0 0 0-.38-.44c-.16-.04-.57.01-.59.5-.01.5.66.63.97.64 1.21-.05 1.4-1.16 1.37-1.71V7.66c0-.4.42-.5.66-.48V7Zm.34-1h2v.19c-.22-.02-.65.04-.67.45v4.67c-.01.17.1.5.67.5V12h-2v-.19c.22.02.65-.04.66-.5V9h-.82a.18.18 0 0 1 0-.36h.82v-2c.02-.15-.08-.45-.66-.45V6Z"/></svg>