<!-- by TradingView --><svg width="18" height="18" viewBox="0 0 18 18" xmlns="http://www.w3.org/2000/svg"><path fill="#F0F3FA" d="M0 0h18v18H0z"/><path d="M7 8H5v2.92c0 .71.83 1.08 1.33 1.08H9v-2c0-.05.03-.15.17-.15s.16.1.16.15v2H11V8c-1.33 0-1.78.89-1.83 1.23C9.03 8.63 7.9 8 7.33 8v2.62c0 .1-.07.15-.16.15-.1 0-.17-.06-.17-.15V8ZM13 8h-1.67v4H13V8ZM12.9 6.75a.75.75 0 1 1-1.5 0 .75.75 0 0 1 1.5 0Z" fill="#EF1B24"/><path fill-rule="evenodd" d="M13.74 5.36H4.26v7.28h9.48V5.36ZM4 5v8h10V5H4Z" fill="#EF1B24"/></svg>