<!-- by TradingView --><svg xmlns="http://www.w3.org/2000/svg" width="18" height="18"><path fill="#C7AA5E" d="M0 0h18v18H0z"/><path d="M8.97 3l-.01.01-.01.14c-.03.3-.14.59-.31.85-.25.4-.57.71-.9 1.03-.52.48-1.06.93-1.51 1.47A4.86 4.86 0 005 10.1c.04.46.17.9.37 1.33a4.7 4.7 0 002.34 2.27c.39.17.75.3 1.32.3.57 0 .84-.13 1.23-.3a4.7 4.7 0 002.33-2.27c.21-.42.35-.87.37-1.34.01-.21.22-1.41-.7-2.7A99.7 99.7 0 008.98 3z" fill="url(#ajxa5rbl1)"/><defs><linearGradient id="ajxa5rbl1" x1="9" y1="3" x2="7.61" y2="13.62" gradientUnits="userSpaceOnUse"><stop offset=".28" stop-color="#fff" stop-opacity=".35"/><stop offset=".78" stop-color="#fff"/></linearGradient></defs></svg>