<!-- by TradingView --><svg width="18" height="18" viewBox="0 0 18 18" xmlns="http://www.w3.org/2000/svg"><path fill="#F0F3FA" d="M0 0h18v18H0z"/><path d="M7.5 12h.18l.15-.02.26-.05c.26-.08.54-.2.84-.34l.77-.46.13-.07a4.6 4.6 0 0 1 1.96-.57h.05c.27-.03.47-.03.6-.01.22.03.38.13.48.29.02.03.03.03.02-.01l.01-.18a.73.73 0 0 0-.09-.54c-.09-.16-.22-.3-.4-.43-.27-.2-.63-.38-1.05-.51a9.14 9.14 0 0 0-1.19-.26l.4.38c.05.04.04.05-.02.02a5.2 5.2 0 0 1-.31-.14l.18.27-.01.01-2.64-2.32a4.68 4.68 0 0 0-1.13-.75 8.3 8.3 0 0 0-1.15-.43l-1.7-.47A8.62 8.62 0 0 1 2.69 5c.39.36.82.67 1.3.94a3.19 3.19 0 0 0 1.12.38l-.01.01a16.02 16.02 0 0 1-3.08-.29 6.3 6.3 0 0 0 3.57.91 8.05 8.05 0 0 1-2.77-.04c.91.44 1.89.7 2.92.74a5 5 0 0 0 1.04-.05v.01a4.84 4.84 0 0 1-2.5.34 9.9 9.9 0 0 0 3.1.22c.07 0 .07 0 .01.03a3.46 3.46 0 0 1-1.8.39 13.46 13.46 0 0 0 2.7.19 7.85 7.85 0 0 1-1.72.36 7.46 7.46 0 0 0 2.06.03l-.17.05c-.39.11-.68.19-.88.22-.09.02-.09.03 0 .04a262.92 262.92 0 0 0 1.63.18c.02 0 .02 0 0 .02-.22.15-.4.24-.52.27-.07.02-.07.03 0 .03l.62.04c.04 0 .04.01 0 .03a12.91 12.91 0 0 1-3.8.89v.02a.9.9 0 0 0 .46.21 3 3 0 0 0 1.45-.06v.01c-.4.2-.82.37-1.23.54-.03.01-.03.02 0 .03a3 3 0 0 0 .89.05c.2-.02.43-.08.65-.18a2.78 2.78 0 0 0 .59-.34c-.34.34-.66.58-.97.7-.05.02-.05.03 0 .04l.14.03ZM16 6.04a.83.83 0 0 1-.36.38c-.45.25-.9.43-1.37.52-1.04.2-2.01.51-2.92.92a8.42 8.42 0 0 0-1.38.83c.62.01 1.24.14 1.87.38l.04.02c.29.11.5.22.62.31h.04c.02 0 .02 0 .03-.02.03-.1.05-.22.06-.32a.96.96 0 0 1 .4-.67c.2-.15.43-.28.7-.4a12.68 12.68 0 0 1 1.04-.4c.28-.11.53-.26.76-.44.16-.14.28-.3.36-.5a2.06 2.06 0 0 0 .1-.6Zm0 0Z" fill="#063954"/></svg>