<!-- by TradingView --><svg width="18" height="18" viewBox="0 0 18 18" xmlns="http://www.w3.org/2000/svg"><path fill="#EC1C24" d="M0 0h18v18H0z"/><path fill-rule="evenodd" d="M12.7 8.72 9.3 3.5c.93.51 3.57 2.02 4.43 2.52l-1.03 2.7Zm-.15.33c-.1.16-3.32 5-3.55 5.38-.19-.26-2-3-2.96-4.47l-.6-.9L7.4 6.01 8.98 3.6l2.36 3.61 1.21 1.85ZM5.3 8.72l-1.04-2.7 2.6-1.48L8.67 3.5l-3.4 5.22Zm-.22.32L4 11.79v-5.6l1.07 2.85Zm.2.33 3.4 5.13-2.74-1.55-1.7-.97 1.04-2.6Zm7.44 0 1.04 2.61-1.7.97-2.73 1.55 3.4-5.13Zm.22-.32L14 6.18v5.6l-1.07-2.73Zm-1.66-.55c.07.66.05.87.05.87s.07.13.04.18c0 .14-.04.28-.04.28s-.12-.14-.1-.51c0 0 .01-.55-.1-.78l-.14.64a1.46 1.46 0 0 0 .03.55c.03.04.07.1.07.2 0 .03.01.1-.03.19a5.98 5.98 0 0 0-.04.6V10.78l-.03.06a.27.27 0 0 1-.2.12 1.4 1.4 0 0 1-.48-.02.2.2 0 0 0-.02-.03c-.04-.04-.09-.1-.07-.17v-.07c.06-.23.15-.6.06-.77a2.5 2.5 0 0 0-.48-.65s-.38.04-.85-.08l-.1.54h.02a.27.27 0 0 1 .06.32.5.5 0 0 0 0 .05l.15.1-.19.32v.27c0 .02-.02.06-.05.09v.04l-.02-.02-.03.03a.35.35 0 0 1-.03.02.21.21 0 0 1-.07.03c-.13.02-.39.02-.5-.02l-.03-.03c-.04-.04-.09-.1-.07-.17l.1-.3v-.12l-.02-.17a.62.62 0 0 0-.09-.05c-.07-.02-.2-.09-.16-.34.02-.25.09-.88.13-1.04 0 0-.04.03-.08.14-.1-.16-.07-.27-.06-.33V8.5l-.14.06h-.01a.47.47 0 0 1-.13.08c-.04.01-.08.02-.1.05a8.4 8.4 0 0 1-.09.1l-.02.08a.25.25 0 0 1-.1.12l-.1.17c.03.24 0 .47-.03.65-.02.14-.04.44.07.48.08.03.1-.04.12-.1.02-.08 0-.11-.02-.14a.17.17 0 0 1-.03-.05c-.02-.07.13-.16.18-.16.13 0 .14.27.1.43a.34.34 0 0 1-.37.27c-.37-.04-.4-.5-.42-.7v-.07c-.02-.06-.02-.14-.03-.23V9.4l-.03-.15a.6.6 0 0 1-.2.03l.18-.14-.02-.1-.01-.08s-.07.1-.29.11c.25-.18.27-.27.27-.27-.02-.26 0-.55 0-.55a2.15 2.15 0 0 1 0-.47c.02-.11.03-.2.12-.43.1-.23.27-.21.27-.21s.16-.25.36-.27c.15 0 .28.01.4.03a1 1 0 0 0 .31 0l.24-.03c.2-.04.47-.08.64-.07.25.02 1.1.2 1.4.44l.06.05c.3.24.74.6.79 1.21Z" fill="#fff"/></svg>