<!-- by TradingView --><svg width="18" height="18" viewBox="0 0 18 18" xmlns="http://www.w3.org/2000/svg"><path fill="#F0F3FA" d="M0 0h18v18H0z"/><path d="M9.53 3a6.02 6.02 0 1 1-3.17 11.39A6.03 6.03 0 0 1 8.46 3h1.07Z" fill="#9B0C1C"/><path d="M14.24 7.2a5.47 5.47 0 0 0-3.08-3.3 5.54 5.54 0 1 0 3.08 3.3Zm-4.08 4.6c-.09.18-.22.25-.39.22a.13.13 0 0 1-.06-.03c-.21-.2-.41-.21-.6-.01-.13.14-.14.3-.02.48 0 .02.03.03.05.03h1.32a.15.15 0 0 0 .15-.11.64.64 0 0 0 0-.28.31.31 0 0 1 .04-.22c.1-.18.18-.33.23-.45.05-.16.04-.38.03-.57l-.01-.22c0-.03.01-.03.04-.02.32.12.66.17 1.03.16.03 0 .05.01.07.04.23.39.2.76-.06 1.12a.08.08 0 0 1-.1.03l-.11-.05c-.15-.06-.32-.13-.43-.1-.26.09-.38.37-.23.61.01.03.04.04.07.04h1.17a.18.18 0 0 0 .18-.13c.08-.32.17-.61.27-.87.2-.54.32-.87.34-1 .02-.1-.04-.2-.17-.3-.08-.05-.2-.09-.3-.13-.24-.08-.47-.16-.47-.5a.25.25 0 0 1 .16-.22c.3-.13.5-.38.56-.74a1.4 1.4 0 0 0-.27-1.1l-.54-.66c-.24-.27-.44-.77 0-.97a.1.1 0 0 1 .08 0l.15.11c.05.05.11.1.17.12.35.12.65-.13.6-.5a.04.04 0 0 0-.03-.03h-.02c-.07.05-.15.08-.24.1-.1.04-.23.02-.35 0a1.1 1.1 0 0 0-.18-.03c-.71-.02-.78.8-.43 1.23l.23.27c.36.42.65.75.57 1.37-.03.3-.26.66-.6.37l-.31-.25c-.51-.3-1.07-.4-1.68-.33-.02 0-.04 0-.04-.04a1.76 1.76 0 0 0-.29-.85c0-.03 0-.04.03-.02l.28.15a.02.02 0 0 0 .03-.02 1.72 1.72 0 0 0-.55-1.18V6.3h.02l.16.1c.05.03.06.01.04-.04-.2-.5-.58-.82-1.13-.95-.05-.01-.06-.03 0-.05a.29.29 0 0 1 .1-.02.04.04 0 0 0 .03-.03c.01-.02 0-.03-.02-.05-.75-.38-1.67-.46-2.37.07a.14.14 0 0 1-.07.03c-.17 0-.31.04-.44.1a.11.11 0 0 0-.05.05l-.03.04a.09.09 0 0 1-.06.05l-.56.1-.08.01c-.14-.03-.22.03-.23.18-.01.17.06.37.22.62.01.02.03.02.04 0 .11-.14.22-.15.33-.02.1.12.25.32.15.47a.3.3 0 0 1-.2.13l-.09-.01A.52.52 0 0 1 5.2 7c-.06-.11-.12-.11-.15.01-.11.35.17.39.42.42h.07c.24.04.26.13.05.26-.14.1-.26.27-.34.53-.01.04-.01.07.01.1s.03.03.04 0c.04-.07.08-.09.1-.05-.13.4 0 .8.18 1.16a.02.02 0 0 0 .03 0l.07-.13c.02-.03.03-.03.04 0l.36 1.34a4 4 0 0 1-.25 1.3c-.01.02-.04.03-.07.02l-.13-.05c-.13-.05-.28-.1-.41-.07-.3.08-.4.41-.2.66.01.02.03.03.06.03h1.26a.17.17 0 0 0 .17-.18l-.02-.16c-.02-.12-.04-.23-.02-.32l.06-.18c.18-.2.3-.42.36-.67l.12-.67.02-.03h.04c.2.02.35.11.46.25.06.08.1.23.12.46a30.4 30.4 0 0 1 .04.89.08.08 0 0 1-.05.04h-.05c-.34-.1-.71-.22-.83.24-.03.1 0 .2.1.3 0 .01.03.02.07.02l1.28-.03c.04 0 .06-.01.07-.03.11-.16.06-.28 0-.41l-.05-.15v-.08c.12-.3.2-.68.26-1.13.01-.08.06-.12.15-.1l.87.09a.1.1 0 0 1 .05.02l.28.25.02.02c.24.26.44.48.3.82Z" fill="url(#a)"/><path d="M5.3 8.34c.04-.08.07-.1.1-.06-.13.4 0 .8.18 1.16a.02.02 0 0 0 .02 0l.08-.13c.02-.03.03-.03.04 0l.36 1.34a4 4 0 0 1-.25 1.3c-.02.02-.04.03-.07.02l-.13-.05c-.13-.05-.28-.1-.41-.07-.3.08-.4.41-.2.66.01.02.03.03.06.03h1.26a.17.17 0 0 0 .17-.18l-.02-.16c-.02-.12-.04-.23-.02-.32l.06-.18c.18-.2.3-.42.35-.67l.13-.67.02-.03h.04c.2.02.35.11.46.25.06.08.1.23.12.46a30.37 30.37 0 0 1 .04.89.08.08 0 0 1-.09.04H7.6c-.34-.1-.71-.22-.83.24-.03.1 0 .2.1.3 0 .01.03.02.07.02l1.28-.03c.04 0 .06-.01.07-.03.11-.16.06-.28 0-.41a1 1 0 0 1-.05-.15v-.08c.12-.3.2-.68.26-1.13.01-.08.06-.12.15-.1l.87.09a.1.1 0 0 1 .05.02l.28.25.01.01.01.01c.24.26.44.48.3.82-.09.18-.22.25-.39.22A.13.13 0 0 1 9.7 12c-.2-.2-.4-.21-.59-.01-.13.14-.14.3-.03.48l.06.03h1.32a.15.15 0 0 0 .15-.11.63.63 0 0 0 0-.28.32.32 0 0 1 .04-.22c.1-.18.18-.33.23-.45.05-.16.04-.38.03-.57l-.01-.22c0-.03.01-.03.04-.02.32.12.66.17 1.03.16.03 0 .05.01.07.04.23.39.2.76-.06 1.12a.08.08 0 0 1-.1.03 2.91 2.91 0 0 1-.11-.05c-.15-.06-.32-.13-.43-.1-.27.09-.38.37-.23.61.01.03.04.04.07.04h1.17a.18.18 0 0 0 .17-.13c.09-.32.18-.61.28-.87.2-.54.32-.87.34-1 .02-.1-.04-.2-.17-.3-.09-.05-.2-.09-.3-.13-.24-.08-.47-.16-.47-.5a.25.25 0 0 1 .16-.22c.3-.13.5-.38.56-.74a1.4 1.4 0 0 0-.27-1.1l-.54-.66c-.24-.27-.44-.77 0-.97a.1.1 0 0 1 .08 0l.14.11c.06.05.12.1.18.12.35.12.65-.13.6-.5a.04.04 0 0 0-.03-.03.04.04 0 0 0-.02 0 .72.72 0 0 1-.59.09 1.1 1.1 0 0 0-.18-.02c-.71-.02-.78.8-.43 1.23.07.1.15.18.23.27.36.42.65.75.57 1.37-.03.3-.26.66-.6.37l-.31-.25c-.51-.3-1.07-.4-1.68-.33-.03 0-.04 0-.04-.04a1.76 1.76 0 0 0-.29-.85c0-.03 0-.04.03-.02l.27.15a.02.02 0 0 0 .04 0V7.5a1.72 1.72 0 0 0-.55-1.18V6.3h.02l.16.1c.05.03.06.01.04-.04-.2-.5-.58-.82-1.13-.95-.05-.01-.06-.03 0-.05a.3.3 0 0 1 .1-.02.04.04 0 0 0 .03-.02c.01-.03 0-.04-.02-.06-.75-.38-1.68-.46-2.37.07a.14.14 0 0 1-.07.03c-.17 0-.31.04-.44.1a.11.11 0 0 0-.05.05l-.03.04a.09.09 0 0 1-.06.05l-.56.1-.08.01c-.14-.03-.22.03-.23.18-.01.17.06.37.21.62.02.02.04.02.05 0 .11-.14.22-.15.33-.02.1.12.25.32.15.47a.3.3 0 0 1-.2.13l-.1-.01A.52.52 0 0 1 5.2 7c-.06-.11-.12-.11-.15.01-.11.35.17.39.42.42h.07c.24.04.26.13.05.26-.14.1-.26.27-.34.53-.02.04-.01.07.01.1.01.03.03.03.04 0Z" fill="url(#b)"/><defs><linearGradient id="a" x1="5.77" y1="4.25" x2="12.07" y2="13.48" gradientUnits="userSpaceOnUse"><stop stop-color="#FD0"/><stop offset="1" stop-color="#E7C200"/></linearGradient><linearGradient id="b" x1="6.7" y1="5.84" x2="10.87" y2="11.35" gradientUnits="userSpaceOnUse"><stop stop-color="#D9121B"/><stop offset="1" stop-color="#A40F1E"/></linearGradient></defs></svg>