<!-- by TradingView --><svg xmlns="http://www.w3.org/2000/svg" width="18" height="18" viewBox="0 0 18 18"><path fill="url(#aob5qwgyw)" d="M0 0h18v18H0z"/><path d="M4.97 7.57L4.03 11h1.09l.95-3.43h-1.1z" fill="#36F6FF"/><path d="M13.04 7c-.3 0-.61.06-.9.17-.27.11-.52.28-.73.48l.5.73a1.46 1.46 0 0 1 1.79-.36c.2.11.35.27.46.45l.84-.4a2.1 2.1 0 0 0-.81-.78A2.38 2.38 0 0 0 13.04 7" fill="#00F0B2"/><path d="M3.23 7L3 8h5l1-1H3.23z" fill="#36F6FF"/><path d="M10.1 8.47l.84-.4a2.12 2.12 0 0 0-.99-.86 2.01 2.01 0 0 0-1.23-.18c-.88.14-1.68.8-1.81 1.7-.2 1.37 1.2 2.46 2.5 2.23.45-.08.87-.3 1.2-.6l-.5-.74c-.22.23-.61.52-1.13.52a1.2 1.2 0 0 1-1.14-1.16 1.2 1.2 0 0 1 1.18-1.12c.22 0 .44.07.63.17.19.11.34.26.45.44" fill="#fff"/><path d="M10.1 8.47l1.06 1.58c.19.27.45.5.75.67a2.38 2.38 0 0 0 2.86-.48l-.74-.52a1.4 1.4 0 0 1-1.64.26c-.17-.1-.32-.22-.43-.38l-1.02-1.52-.84.4z" fill="url(#bob5qwgyw)"/><defs><linearGradient id="aob5qwgyw" x1="3.35" y1="3.12" x2="21.9" y2="24.43" gradientUnits="userSpaceOnUse"><stop stop-color="#1A1E21"/><stop offset="1" stop-color="#06060A"/></linearGradient><linearGradient id="bob5qwgyw" x1="11.27" y1="7.88" x2="12.76" y2="10.3" gradientUnits="userSpaceOnUse"><stop stop-color="#0096A5"/><stop offset=".51" stop-color="#00F0B2"/></linearGradient></defs></svg>