<!-- by TradingView --><svg width="18" height="18" viewBox="0 0 18 18" xmlns="http://www.w3.org/2000/svg"><path fill="#FF6A00" d="M0 0h18v18H0z"/><path fill-rule="evenodd" d="M10.12 13.4 4 15l1.47-2.87A4.63 4.63 0 0 1 4 8.76 4.88 4.88 0 0 1 9 4c2.76 0 5 2.13 5 4.76a4.83 4.83 0 0 1-3.88 4.63Zm.53-8.5c.26.32.48.7.67 1.16.2-.13.39-.27.57-.43-.37-.3-.79-.55-1.24-.73Zm1.67 1.14c-.25.22-.52.42-.8.58.17.6.28 1.08.3 1.79h1.55a3.58 3.58 0 0 0-1.05-2.37ZM13.35 9H11.8a8.96 8.96 0 0 1-.3 1.92c.29.16.55.36.8.57.58-.63.96-1.6 1.05-2.49Zm-1.48 2.9c-.18-.16-.36-.3-.56-.42-.18.44-.4.82-.66 1.13.45-.17.86-.41 1.22-.71Zm-4.52-7c-.4.16-.78.37-1.11.63.15.15.32.28.5.4.17-.4.38-.74.61-1.03Zm-1.6 1.08a3.6 3.6 0 0 0-1.12 2.43h1.56c.01-.73.13-1.24.32-1.85a4.86 4.86 0 0 1-.77-.58ZM4.64 9c.09.88.47 1.86 1.05 2.5.25-.22.51-.42.8-.58A8.96 8.96 0 0 1 6.2 9H4.65Zm2.17 0c.03.52.1 1.2.23 1.64.5-.22 1.06-.35 1.64-.39V9H6.82Zm4.13 1.64a4.96 4.96 0 0 0-1.64-.39V9h1.87c-.03.52-.1 1.2-.23 1.64Zm-.18.56c-.45-.2-.94-.32-1.46-.35v2.03c.6-.17 1.12-.8 1.46-1.68Zm-3.53.04c.45-.2.93-.34 1.45-.39v2.03c-.6-.16-1.1-.77-1.45-1.64Zm3.95-2.83H9.3V7.26a4.91 4.91 0 0 0 1.65-.37c.13.52.21.91.23 1.52Zm-2.5-1.15V8.4H6.8c.02-.63.1-1.04.25-1.56.5.22 1.05.36 1.63.4Zm2.09-.93c-.45.2-.95.32-1.47.34V4.64c.6.16 1.13.8 1.47 1.7Zm-2.1.32V4.64c-.57.16-1.08.75-1.42 1.6.44.22.92.36 1.43.41Zm-2.38 5.2c.13-.11.27-.22.42-.31.33.77.79 1.37 1.33 1.7l-2.8.87 1.06-2.26H6.3Z" fill="#fff"/></svg>