<!-- by TradingView --><svg width="18" height="18" viewBox="0 0 18 18" xmlns="http://www.w3.org/2000/svg"><path fill="#F0F3FA" d="M0 0h18v18H0z"/><path d="M12.4 7.46C11.14 9.22 7.7 10 6.14 10.15l.33-1.47c.14.02.8-.07 2.22-.6a12.18 12.18 0 0 0 3.48-2.2l.23 1.58Z" fill="#F2C713"/><path fill-rule="evenodd" d="M6.54 6.68c-2.11 2.15-2.6 4.58-2.53 5.59.02.57.45 1.73 1.98 1.73 1.9 0 3.51-1.2 5.13-2.84C16.24 5.38 13.24 4 11.9 4h-.18c-.85-.03-2.49-.07-5.18 2.67Zm-.34 4.65c0 1.08.7 1.33 1.05 1.32.62 0 2.76-.57 4.15-3.61.56-1.23.73-2.12.67-2.76a9.52 9.52 0 0 1-3.03 2.08c-.92.32-1.73.56-2.27.7a5.83 5.83 0 0 0-.57 2.27ZM7 8.57a7.5 7.5 0 0 0 2.68-.97c.95-.57 1.79-1.32 2.28-1.82-.21-.57-.66-.8-1.06-.8-.83 0-1.87.53-2.86 1.89-.38.52-.74 1.1-1.04 1.7Z"/></svg>