<!-- by TradingView --><svg width="18" height="18" viewBox="0 0 18 18" xmlns="http://www.w3.org/2000/svg"><path fill="#F0F3FA" d="M0 0h18v18H0z"/><path d="M3.38 7 2 8.18h2V12l1.6-1.34V8.18h.9L7.84 7H3.38Z" fill="#0074BC"/><path d="M8 9.35V7.28L6.8 8.35V12l1.19-1.47H9.5V12l1.2-1.33V7.02L9.5 8.35v1H8ZM12.37 7h3.13l-1.33 1.18H12.2v2.64h2.1V9.65h-1.57l1.2-1.18h1.57v2.17L14.17 12h-1.8L11 10.64v-2.3L12.37 7Z" fill="#0074BC"/><path d="M6.8 8.18H5.6v1.17H4.4v1.18h1.2V12h1.2v-1.47H8V9.35H6.8V8.18Z" fill="#FFC423"/></svg>