<!-- by TradingView --><svg width="18" height="18" viewBox="0 0 18 18" xmlns="http://www.w3.org/2000/svg"><path fill="#F0F3FA" d="M0 0h18v18H0z"/><path d="m11.67 7-.73.86h4.34L16 7h-4.33ZM4.08 7l-.72.86H7.7L8.42 7H4.08ZM14.2 8.14h-1.81L10.59 11h1.8l1.8-2.86ZM6.61 8.14h-1.8L3 11h1.8l1.81-2.86Z" fill="#008CD6"/><path d="m11.67 7-.73.86c-1.2 0-2.43 0-1.8.28 1.26.57 1.99.72 1.8 1.43C10.4 11 9.38 11 8.78 11H5.53l.54-.86h2.35c.36-.04 1.08-.25 1.08-.71 0-.57-1.8-.29-1.8-1.29 0-.8.48-1.1.72-1.14h3.25Z" fill="#E60012"/></svg>