<!-- by TradingView --><svg width="18" height="18" viewBox="0 0 18 18" xmlns="http://www.w3.org/2000/svg"><path fill="#F0F3FA" d="M0 0h18v18H0z"/><path d="M13.57 6.95a5.56 5.56 0 0 0-4.36-2.93 7.97 7.97 0 0 0-1.55.04c-.1 0-.12.04-.03.1.24.14.46.32.69.52.02.03.05.04.08.04a5.36 5.36 0 0 1 5.28 4.31 5.08 5.08 0 0 1-1.79 4.92v.01l.02.03h.03a5.64 5.64 0 0 0 2.26-4.5c0-.33-.03-.6-.05-.81a5.02 5.02 0 0 0-.58-1.73Z" fill="url(#a)"/><path d="M7.32 4.13a6.1 6.1 0 0 0-1.7.7c-.02.01-.02.03 0 .05l.4.41h.04a4.66 4.66 0 0 1 2.03-.54c.08 0 .09-.03.02-.07l-.7-.53a.1.1 0 0 0-.1-.02Z" fill="url(#b)"/><path d="M3.13 10.68a5.7 5.7 0 0 1-.1-1.66c.2-1.7.99-3.06 2.38-4.05.04-.03.08-.03.12.01l.33.34c.04.04.03.07-.01.09a5.16 5.16 0 0 0-2.64 5.55l-.02-.02c.02-.11 0-.2-.06-.26Z" fill="url(#c)"/><path d="M3.94 10.9c.42-.23.4-.6.4-1.15V7.5c0-.03-.01-.04.01-.04h.62c.02 0 .03.01.03.03v2.63c-.01.6-.25.95-.71 1.1-.32.09-.62.01-.91-.23a.05.05 0 0 1-.02-.06l.01-.02h.03c.23.07.4.07.54 0ZM7.42 8.46l-.67 2.03c-.01.03-.04.06-.08.06h-.4l-.04-.02a.08.08 0 0 1-.03-.04l-.9-3.02c0-.01 0-.02.02-.02h.71a40.51 40.51 0 0 1 .63 2.06.04.04 0 0 0 .07-.02l.67-2c0-.01 0-.02.02-.03l.03-.01h.47c.03 0 .06.02.07.05l.58 2.04c.04.1.07.1.1 0l.7-2.05c0-.02.02-.04.04-.04h.3l.01.01v.02L8.72 10.5c-.01.03-.04.06-.07.06h-.47l-.04-.01a.07.07 0 0 1-.03-.04l-.59-2.03c-.03-.11-.06-.11-.1 0ZM12.3 8.76V7.5c0-.03.01-.04.04-.04h.61c.03 0 .05.01.05.04v3.03c0 .02-.02.03-.04.03h-.63c-.02 0-.03 0-.03-.03V9.23c0-.03 0-.06-.05-.06h-1.46a.04.04 0 0 0-.04.04v1.31c0 .02 0 .03-.02.03h-.66c-.01 0-.02 0-.01-.02.32-1 .36-2.03.11-3.06 0-.01 0-.02.02-.02h.52c.03 0 .04.01.04.04v1.24c0 .04.02.1.06.1h1.44c.04 0 .05-.03.05-.07Z" fill="#242F5F"/><path d="M15.09 9.84c.06 0 .12.03.16.08.03.03.02.04-.02.05-.1.02-.14.05-.13.09 0 .05.01.08.04.09l.14.02c.03.01.05 0 .05-.04 0-.11.06-.16.16-.14a.04.04 0 0 0 .04-.01.04.04 0 0 0 0-.03v-.01l-.79-1.1a.08.08 0 0 1-.01-.06c0-.02 0-.03.02-.04l1.11-1.25.01-.01a.03.03 0 0 0-.01-.03h-.26c-.05 0-.1.02-.14.06L14.32 8.8a.25.25 0 0 0-.05.24l.03.16c0 .08.01.15.06.23.14.22.27.4.38.54.02.03.06.04.09.05.12 0 .18-.03.2-.11 0-.04.02-.06.06-.06Z" fill="url(#d)"/><path d="M15.17 10.3c0 .04-.07.06-.14.04-.07-.01-.12-.07-.1-.11 0-.05.07-.07.14-.05.07.02.12.07.1.12ZM15.55 10.17a.4.4 0 0 1 .19.06l.02.03a.07.07 0 0 1 0 .07.06.06 0 0 1-.04.02.36.36 0 0 1-.13.01c-.04 0-.06-.02-.06-.06v-.1a.03.03 0 0 1 0-.03.03.03 0 0 1 .01 0h.01ZM15.57 10.5l-.02-.06a.13.13 0 0 0-.07-.08.1.1 0 0 0-.11.02.08.08 0 0 0-.02.04.09.09 0 0 0 .02.08.08.08 0 0 0 .03.02h.01l.12.02c.04.01.06 0 .04-.04ZM15.25 10.68c.06.03.13.03.14 0 .02-.03-.02-.09-.08-.12-.06-.04-.13-.04-.15 0-.01.03.02.09.09.12ZM16 10.65c-.04-.09-.07-.13-.1-.13-.17.04-.18.1-.03.17l.04.01h.05c.04 0 .05-.01.03-.05Z" fill="#242F5F"/><defs><linearGradient id="a" x1="8.6" y1="4" x2="8.6" y2="14" gradientUnits="userSpaceOnUse"><stop offset=".14" stop-color="#BF3815"/><stop offset=".48" stop-color="#242F5F"/></linearGradient><linearGradient id="b" x1="8.6" y1="4" x2="8.6" y2="14"><stop offset=".14" stop-color="#BF3815"/></linearGradient><linearGradient id="c" x1="8.6" y1="4" x2="8.6" y2="14" gradientUnits="userSpaceOnUse"><stop offset=".14" stop-color="#BF3815"/><stop offset=".48" stop-color="#242F5F"/></linearGradient><linearGradient id="d" x1="15.13" y1="7.45" x2="15.13" y2="10.71" gradientUnits="userSpaceOnUse"><stop stop-color="#00A11E"/><stop offset=".58" stop-color="#242F5F"/></linearGradient></defs></svg>