<!-- by TradingView --><svg width="18" height="18" viewBox="0 0 18 18" xmlns="http://www.w3.org/2000/svg"><path fill="#F0F3FA" d="M0 0h18v18H0z"/><path d="M9 5c.8 0 1.68.88 2.1 1.57.37.6.4 1.24-.2 1.61-.05.03-.19.05-.43.05-.14 0-.27-.02-.41-.07-.19-.06-.41-.12-.68-.17a1.87 1.87 0 0 0-.77 0c-.26.05-.49.11-.67.17-.14.05-.28.07-.42.07-.23 0-.38-.02-.42-.05-.6-.38-.57-1.02-.2-1.6C7.32 5.87 8.2 5 9 5ZM8.04 12h-.18l-.91-.2a2.76 2.76 0 0 0-.46-.1c-.2-.01-.35 0-.47.03-.38.1-.77.19-1.15.27h-.14c-.55-.1-.79-.47-.72-1.1.02-.15.1-.35.27-.6.37-.57.85-1.02 1.42-1.35.48-.26.97-.24 1.47.08.51.32.94.74 1.28 1.26.2.3.3.59.29.88-.01.43-.24.71-.7.83ZM13.27 12h-.12l-1.17-.24a1.59 1.59 0 0 0-.67-.03l-1.17.27h-.18c-.48-.14-.7-.43-.7-.88.01-.3.13-.6.35-.92.47-.66 1.32-1.47 2.08-1.43.8.04 1.83 1.04 2.2 1.83.08.17.12.35.11.53-.01.48-.25.77-.73.87Z" fill="#094"/></svg>