<!-- by TradingView --><svg width="18" height="18" viewBox="0 0 18 18" xmlns="http://www.w3.org/2000/svg"><path fill="#F0F3FA" d="M0 0h18v18H0z"/><path d="M6.36 7.5H3.23c-.47 0-.91.2-1.23.55h2.2c.2 0 .33.2.25.39l-.7 1.51h1l.9-1.9h.4l.31-.55Z" fill="url(#akh3r13sw)"/><path d="m5.73 9.95.88-1.82a1.1 1.1 0 0 1 1-.63h3.76l-.38.73c-.32.6-.88 1.03-1.55 1.17l.72-1.35H7.9c-.2 0-.4.11-.5.3L6.87 9.4h2.27l.31 1.09-1.06-.55H5.73Z" fill="url(#bkh3r13sw)"/><path d="m16 7.5-.32.55h-2.81c-.2 0-.38.1-.48.27l-.64 1.09h3.37l-.32.54h-4.13l.98-1.86c.19-.36.56-.59.97-.59H16Z" fill="url(#ckh3r13sw)"/><path d="M11.65 10.5h1.32l-3.96 3-4.04-3h1.34l2.7 1.46 2.64-1.46Z" fill="url(#dkh3r13sw)"/><path d="M9.03 6C6.06 6 4.13 6.93 4 7c.75-.23 2.8-.68 5.03-.63 2.23.04 3.7.25 4.97.63-.46-.25-2.2-1-4.97-1Z" fill="#53B4E0"/><defs><linearGradient id="akh3r13sw" x1="14.69" y1="7.41" x2="3.94" y2="14.81" gradientUnits="userSpaceOnUse"><stop offset=".53" stop-color="#97B0C4"/><stop offset=".76" stop-color="#1C6B9B"/><stop offset=".78" stop-color="#4A91BE"/><stop offset=".81" stop-color="#90ACC2"/></linearGradient><linearGradient id="bkh3r13sw" x1="14.69" y1="7.41" x2="3.94" y2="14.81" gradientUnits="userSpaceOnUse"><stop offset=".23" stop-color="#97B0C4"/><stop offset=".53" stop-color="#28719F"/><stop offset=".53" stop-color="#97B0C4"/><stop offset=".76" stop-color="#1C6B9B"/></linearGradient><linearGradient id="ckh3r13sw" x1="14.69" y1="7.41" x2="3.94" y2="14.81" gradientUnits="userSpaceOnUse"><stop stop-color="#6C99B9"/><stop offset=".23" stop-color="#126597"/><stop offset=".23" stop-color="#97B0C4"/><stop offset=".53" stop-color="#28719F"/></linearGradient><linearGradient id="dkh3r13sw" x1="11.73" y1="11.48" x2="6.11" y2="10.5" gradientUnits="userSpaceOnUse"><stop stop-color="#377EA8"/><stop offset=".84" stop-color="#4296C7"/></linearGradient></defs></svg>