<!-- by TradingView --><svg width="18" height="18" viewBox="0 0 18 18" xmlns="http://www.w3.org/2000/svg"><path fill="#F0F3FA" d="M0 0h18v18H0z"/><path d="M13.13 13.47a5.8 5.8 0 0 0 .5-6.85c-1.48.29-6.68 1.65-6.64 4.67.04 2.64 4.19 3.32 6.14 2.18Zm-8.9-.94A5.85 5.85 0 0 1 3.5 9.7 5.6 5.6 0 0 1 9 4c1.8 0 3.4.9 4.4 2.29-3.13.32-8.88 1.99-9.18 6.24Z" fill="url(#aeja2nlyc)"/><defs><linearGradient id="aeja2nlyc" x1="5.75" y1="5.13" x2="13.09" y2="13.65" gradientUnits="userSpaceOnUse"><stop stop-color="#B6A8DC"/><stop offset=".17" stop-color="#9E92C4"/><stop offset=".43" stop-color="#534399"/><stop offset=".77" stop-color="#1B2675"/><stop offset="1" stop-color="#2F298B"/></linearGradient></defs></svg>