<!-- by TradingView --><svg width="18" height="18" viewBox="0 0 18 18" xmlns="http://www.w3.org/2000/svg"><path fill="#056AC8" d="M0 0h18v18H0z"/><path d="M12.7 5.66v.01a.03.03 0 0 1 0 .02v.01l-.22.16h-.04a4.7 4.7 0 0 0-6.6-.3.05.05 0 0 1-.05 0l-.3-.1a.02.02 0 0 1 0-.03 4.97 4.97 0 0 1 7.2.23ZM5.64 7.37v.07c.06.07.15.1.27.13.05 0 .06.03.02.06l-.35.35a.17.17 0 0 1-.1.04l-1.26.13c-.06 0-.07-.02-.02-.06l2.22-2.07a.04.04 0 0 1 .04 0l.88.3a.01.01 0 0 1 0 .02l-.51.47a.08.08 0 0 1-.08.02l-.37-.12c-.03-.01-.06 0-.06.04l-.01.03v.04l.04.03.24.08c.05.02.06.05.02.09l-.45.41a.09.09 0 0 1-.1.02l-.33-.1c-.04-.02-.07-.01-.09.02ZM16 7.69l-2.32.25a.09.09 0 0 1-.08-.04l-1.24-1.8c-.02-.04-.02-.06.03-.04 1.6.65 1.95.88 3.6 1.63ZM12.13 7.47l-.2-.38a.03.03 0 0 1 0-.04l.56-.42h.04l.89 1.28a.03.03 0 0 1 0 .03v.01h-.02l-1.49.35h-.01l-.02-.01-.73-1.35V6.9l1.02-.76h.04l.22.32v.03l-.01.02-.7.52-.01.02v.02l.33.59.01.01h.02l.28-.16.01-.01v-.04h-.03l-.17.03h-.02l-.01-.02ZM3.24 8.29l.85-.79a.04.04 0 0 1 .01 0h.02l.27.11a.03.03 0 0 0 .03 0l1.76-1.63.01-.02a.04.04 0 0 0 0-.04l-.02-.01-.98-.35a.03.03 0 0 0-.04 0L2.01 8.47A.04.04 0 0 0 2 8.5v.02l.02.02h.02l1.18-.24.02-.01Zm1.45-1.61.5-.46a.06.06 0 0 1 .09 0v.01c.02.03.02.07 0 .1l-.5.45a.06.06 0 0 1-.09 0v-.01a.07.07 0 0 1 0-.1ZM7.83 6.77l.15-.13a.16.16 0 0 1 .07-.04h.08l.42.16c.06.02.06.05.01.1L7.4 7.94a.13.13 0 0 1-.1.03l-.38-.01c-.04 0-.06-.03-.06-.07v-.17c0-.08-.01-.09-.06-.04-.15.15-.26.28-.45.3L5.87 8c-.07 0-.08-.02-.03-.06l1.64-1.52a.08.08 0 0 1 .1-.02l.14.07c.02 0 .03.01.03.03l.01.04v.19c-.01.08.02.09.07.04ZM8.46 7.6l.46.16c.02 0 .03-.01.05-.05v-.04a.05.05 0 0 0-.04-.03l-.24-.08-.01-.01-.01-.02a.04.04 0 0 1 0-.03l.04-.04c.02-.03.06-.04.1-.03l.76.28c.04.01.04.03 0 .07l-.28.27a.11.11 0 0 1-.09.03l-1.53-.11c-.05 0-.06-.03-.02-.06l1.1-1.02a.09.09 0 0 1 .1-.02l1.21.43v.02l-.28.27c-.02.02-.03.02-.05.01l-.94-.33a.1.1 0 0 0-.1.02l-.25.23-.01.02a.05.05 0 0 0 0 .05l.03.01ZM10.62 7.64a.35.35 0 0 0-.1-.15c-.04-.05-.04-.09.02-.13l.34-.26c.05-.04.1-.02.13.04l.65 1.2c.01.04 0 .06-.02.07l-.35.12a.11.11 0 0 1-.1-.02.43.43 0 0 0-.21-.09.05.05 0 0 0-.05.02v.05l.04.08.01.02a.06.06 0 0 1-.02.05h-.01l-.28.12h-.05a.08.08 0 0 1-.05-.03l-.52-.97v-.04l.24-.17h.04c.08.08.16.13.24.14.05 0 .06 0 .05-.05ZM9.8 9.06l-.43-.79v-.03s0-.02.02-.02l.42-.3a.04.04 0 0 1 .03-.01h.01l.01.02.5.9a.04.04 0 0 1 0 .04l-.01.02h-.01l-.5.2h-.02l-.02-.03Z" fill="#fff"/><path d="M5.6 12.7A4.97 4.97 0 0 1 4 8.42c0-.03.02-.04.04-.04h.26l.02.01c-.13 2.12.65 3.69 2.37 4.7 1.42.84 3.3.81 4.7-.06 1.68-1.06 2.43-2.65 2.24-4.76 0-.01 0-.02.02-.02h.26c.02 0 .04.02.04.04.2 1.7-.3 3.14-1.48 4.32a5.06 5.06 0 0 1-6.87.09Z" fill="#fff"/><path d="m9 8.88.28-.18c.03-.03.06-.02.08.02l.22.41c.02.04.02.07-.02.08a90.78 90.78 0 0 0-3.8 1.73l3-2.25c.04-.03.07-.02.1.02l.07.14c.02.04.05.05.08.03Z" fill="#fff"/><path fill="#fff" fill-opacity=".7" d="M7 11h2v1.44H7zM9.32 11H11v1.44H9.32V11Z"/></svg>