<!-- by TradingView --><svg width="18" height="18" viewBox="0 0 18 18" xmlns="http://www.w3.org/2000/svg"><path fill="#F0F3FA" d="M0 0h18v18H0z"/><path d="M8.39 6c1.76-1.16 5.15-2.88 6.26-1.47 1.15 1.48-.8 4-1.92 5.07.8-1 2.11-3.32.96-4.6-1.1-1.23-3.86.08-5.3 1h2.83c.16 0 .28.13.28.3 0 .17-.12.3-.28.3H9.28v5.1c0 .17-.13.3-.28.3-.15 0-.28-.13-.28-.3V6.6H6.78c-.16 0-.28-.13-.28-.3 0-.17.12-.3.28-.3h1.6ZM5.54 8.45c-1.36 1.38-3.65 4.37-1.92 5.3 1.73.91 5.03-.85 6.47-1.85-1.6.77-5.03 2.03-6 .92-.95-1.1.57-3.38 1.45-4.37Z" fill="url(#a)"/><defs><linearGradient id="a" x1="4.38" y1="5.94" x2="14.92" y2="9.09" gradientUnits="userSpaceOnUse"><stop stop-color="#FF73F2"/><stop offset="1" stop-color="#0EA7E8"/></linearGradient></defs></svg>