<!-- by TradingView --><svg width="18" height="18" viewBox="0 0 18 18" xmlns="http://www.w3.org/2000/svg"><path fill="#F0F3FA" d="M0 0h18v18H0z"/><path d="M4 8.7v-.68l.05-.23c.09-.42.16-.76.73-.84 1.6-.22 4.4-.63 5.1-2.36.05-.13.08-.12.1.02.15 1.04-.53 2.19-1.28 2.87a9.84 9.84 0 0 1-4.43 2.3c-.06 0-.09-.01-.1-.07L4 8.7Zm6.6-3.6-.01-.51c0-.07.02-.08.06-.02 2.2 3-.72 6.27-3.09 7.96a.08.08 0 0 1-.06.02.08.08 0 0 1-.06-.05c-.27-.56-.5-1.15-.71-1.77-.1-.29-.05-.59.14-.91.1-.15.32-.32.68-.52 1.64-.88 3.16-2.2 3.06-4.2Zm-1.14 7.29c.05.8.8 1.55 1.4 2.1l.02.01h.02l.01-.02c1.82-2.8 3.4-7.17.44-9.87-.17-.16-.2-.14-.1.07 1.23 2.39.13 4.82-1.49 6.71-.22.26-.32.59-.3 1Z" fill="#E95506"/></svg>