<!-- by TradingView --><svg width="18" height="18" viewBox="0 0 18 18" xmlns="http://www.w3.org/2000/svg"><path fill="#F0F3FA" d="M0 0h18v18H0z"/><path d="M14 14h-2.42L8.52 9.32l-.55.02h-.19l-.2-.02v2.91c0 .63.06 1.02.18 1.17.17.22.42.33.76.33h.36V14H5v-.27h.34c.38 0 .66-.14.82-.42.1-.15.14-.51.14-1.08V5.77c0-.63-.06-1.02-.19-1.17-.17-.22-.43-.33-.77-.33H5V4h3.3c.96 0 1.66.08 2.12.24.46.15.84.43 1.16.85.32.41.48.9.48 1.48 0 .62-.18 1.15-.55 1.6-.36.46-.92.78-1.68.96L11.7 12c.43.66.8 1.1 1.1 1.31.3.22.7.36 1.2.42V14ZM7.58 8.86h.37c.86 0 1.51-.2 1.95-.61.44-.42.66-.94.66-1.58 0-.62-.18-1.13-.54-1.52-.35-.4-.81-.59-1.4-.59-.26 0-.6.05-1.04.14v4.16Z"/></svg>