<!-- by TradingView --><svg width="18" height="18" viewBox="0 0 18 18" xmlns="http://www.w3.org/2000/svg"><path fill="#F0F3FA" d="M0 0h18v18H0z"/><circle cx="8.98" cy="9.04" fill="#C7EAFE" r="4.88"/><path fill-rule="evenodd" d="M9 14A5 5 0 0 1 9 4h.04a5 5 0 0 1-.03 10ZM6.8 5.45a3 3 0 0 1 1.74-1.21c-.23.24-.44.66-.61 1.21H6.8Zm1.77-.95c-.16.22-.31.54-.45.95h.77V4.21a.8.8 0 0 0-.32.3Zm-1.9 1.14h1.2A9.4 9.4 0 0 0 7.59 7H6.02c.16-.53.38-.95.65-1.36Zm1.4 0c-.12.4-.22.84-.29 1.36H8.9V5.64h-.82Zm-2.1 1.55h1.6c-.06.52-.1 1.14-.1 1.73H5.73c.01-.6.1-1.21.23-1.73Zm-.42 1.73H4.46v.19h1.09c0 .59.08 1.18.22 1.7H4.53a4.91 4.91 0 0 1 0-3.62h1.24a7.38 7.38 0 0 0-.22 1.73Zm.19.19h1.73c0 .59.04 1.18.1 1.7h-1.6a6.92 6.92 0 0 1-.23-1.7Zm1.92 0c0 .6.04 1.18.1 1.7H8.9v-1.7H7.66Zm1.5 0v1.7h1.1c.07-.52.1-1.1.1-1.7h-1.2Zm1.2-.2h-1.2V7.2h1.1a16 16 0 0 1 .1 1.73Zm.2.2c0 .59-.04 1.18-.1 1.7h1.6c.14-.52.22-1.1.23-1.7h-1.73Zm1.73-.2h-1.73c0-.58-.04-1.2-.1-1.72h1.6c.15.52.23 1.14.23 1.73Zm.2.2c-.02.59-.1 1.18-.24 1.7h1.22c.2-.52.33-1.1.34-1.7h-1.33Zm1.32-.2h-1.33c0-.58-.08-1.2-.22-1.72h1.22c.2.52.32 1.14.33 1.73Zm-4.92 0V7.2H7.76c-.06.52-.1 1.14-.1 1.73h1.23ZM6.03 11h1.56c.07.52.17.98.29 1.39h-1.2c-.27-.4-.5-.86-.65-1.39Zm1.76 0c.07.53.17.98.28 1.39h.82V11H7.8Zm-.96 1.58h1.1c.17.53.38.94.6 1.18a2.99 2.99 0 0 1-1.7-1.18Zm4.37 0a2.99 2.99 0 0 1-1.71 1.18c.23-.24.43-.65.6-1.18h1.11Zm-1.74.92c.16-.22.3-.53.43-.92h-.73v1.2c.1-.05.2-.14.3-.28Zm1.88-1.11h-1.19c.12-.41.21-.87.28-1.39H12c-.16.53-.39.98-.66 1.39Zm-1.39 0c.12-.41.22-.86.3-1.39H9.15v1.39h.8ZM12.01 7h-1.57a9.4 9.4 0 0 0-.28-1.36h1.2c.27.4.49.83.65 1.36Zm-1.77 0a9.07 9.07 0 0 0-.28-1.36h-.8V7h1.08ZM9.5 4.24c.23.24.44.66.61 1.21h1.12A3 3 0 0 0 9.5 4.24Zm-.33 1.21h.74c-.13-.4-.28-.73-.44-.95a.86.86 0 0 0-.3-.27v1.22Zm-.6 8.05a.8.8 0 0 0 .33.29v-1.21h-.76c.13.4.28.7.44.92Zm1.78.12a4.8 4.8 0 0 0 1.88-1.04h-.78c-.32.44-.69.8-1.1 1.04Zm1.22-1.23h.86c.4-.4.73-.86.97-1.39H12.2c-.16.52-.37.98-.64 1.39ZM12.21 7h1.19a4.6 4.6 0 0 0-.96-1.36h-.86c.26.41.47.84.63 1.36Zm-.75-1.55h.79a4.8 4.8 0 0 0-1.9-1.07c.41.25.79.62 1.1 1.07ZM7.7 4.36c-.74.2-1.4.59-1.96 1.09h.82c.32-.46.71-.83 1.14-1.09ZM6.44 5.64h-.88c-.4.4-.72.83-.96 1.36h1.22c.15-.52.36-.95.62-1.36ZM5.83 11H4.6c.24.53.57.98.97 1.39h.88A5.44 5.44 0 0 1 5.83 11Zm.76 1.58h-.8c.54.49 1.2.85 1.92 1.06-.42-.25-.8-.61-1.12-1.06Z" fill="#262F73"/><path d="M15.91 7.67c0-.88-1.18-1.4-1.78-1.53l.76.81H14c.17.04.5.17.5.41 0 .31-1.51.25-2.05.31-.55.07-7 .44-7.78.47-.79.02-2.58 0-2.58 1.1 0 .87 1.2 1.44 1.8 1.61l-.8-.9 1.04.09c-.2-.09-.6-.29-.6-.44 0-.2.38-.23.78-.29.4-.05 7.07-.41 8.55-.45h.01c1.48-.04 3.04-.08 3.04-1.19Z" fill="#FCFEFE"/><path d="M14 6c.44.18.9.29 1.3.56.38.27.7.64.7 1.11 0 .3-.1.53-.3.7a1.7 1.7 0 0 1-.73.37c-.59.16-1.36.18-2.09.2h-.02a257 257 0 0 0-8.54.45c-.22.03-.5.01-.67.15-.03.02-.04.04-.04.06l.05.07.14.11c.12.08.27.15.36.19l-.04.14-.83-.07.85.96-.27-.08a3.97 3.97 0 0 1-1.16-.55C2.33 10.09 2 9.7 2 9.24c0-.57.5-.9 1.06-1.03a7.11 7.11 0 0 1 1.45-.14c3.06-.09 6.11-.33 9.16-.54.22-.01.42-.03.56-.07a.52.52 0 0 0 .15-.06l.04-.04c0-.08-.06-.16-.16-.22a.84.84 0 0 0-.2-.1c-.04 0-.07-.05-.07-.09 0-.04.05-.08.1-.08h.61L14 6Zm.39.3.68.73h-.69c.11.07.2.18.2.33 0 .08-.04.13-.1.17a.7.7 0 0 1-.2.08c-.16.04-.37.06-.6.08-3.05.2-6.1.45-9.17.53-.4.01-.94.03-1.4.14-.49.12-.94.38-.94.88 0 .4.28.74.65 1 .26.2.56.34.82.44l-.73-.83.82.07c-.12-.07-.29-.18-.29-.32 0-.08.04-.14.1-.18.2-.16.5-.15.76-.18a256.97 256.97 0 0 1 8.56-.45c.75-.03 1.5-.05 2.06-.2.28-.07.51-.18.67-.32a.78.78 0 0 0 .24-.6c0-.4-.28-.73-.64-.98-.25-.18-.55-.31-.8-.4Z" fill="#262F73"/><path fill="#CA292E" d="M6 11h6v1H6z"/></svg>