<!-- by TradingView --><svg width="18" height="18" viewBox="0 0 18 18" xmlns="http://www.w3.org/2000/svg"><path fill="#F0F3FA" d="M0 0h18v18H0z"/><path d="M6.9 5.84h-.35L7.6 5l.88.84h-.53l-2.1 4.84H4.8l2.1-4.84ZM6.1 7H2.6l-.18.42h1.05l-1.3 3.26h1.58l1.3-3.26h.87L6.09 7Zm-.08 3.68L7.6 7h1.75l-1.58 3.26h1.4l-.17.42H6.02Zm9.11-4.3c-1.05-1.33-4.5-.6-6.13 0 2.21-.59 3.63-.43 4.45-.12-1.32.03-2.82.41-3.75.75 2.33-.62 3.79-.41 4.58-.06C14.71 9.9 6.31 11.8 2 12.37c6.25 0 11.67-2.72 13-4.68.2 2.88-8.04 4.73-12.3 5.31 7.88 0 14.45-4.32 13.13-6-.15-.18-.35-.33-.6-.45a.8.8 0 0 0-.1-.17Z"/></svg>