<!-- by TradingView --><svg width="18" height="18" viewBox="0 0 18 18" xmlns="http://www.w3.org/2000/svg"><path fill="#F0F3FA" d="M0 0h18v18H0z"/><path d="M11 5 9 3 7 5h4Z" fill="#909090"/><path d="M9 3 5 5h2.5L9 3Z" fill="url(#a)"/><path d="m7 13 2 2 2-2H7Z" fill="#909090"/><path d="m9 15 4-2h-2.5L9 15Z" fill="url(#b)"/><path d="m13 11 2-2-2-2v4Z" fill="#909090"/><path d="m15 9-2-4v2.5L15 9Z" fill="url(#c)"/><path d="M5 7 3 9l2 2V7Z" fill="#909090"/><path d="m3 9 2 4v-2.5L3 9Z" fill="url(#d)"/><path fill="#43BFC1" d="M5 5h2v4H5z"/><path fill="#CB242E" d="M11 9h2v4h-2z"/><path fill="#050004" d="M9.71 5.82h1.41v.35H9.71zM10.4 6.17v1.41h-.34v-1.4z"/><path d="M12.53 6.88V5.82h-.35v1.06a.35.35 0 1 1-.7 0V5.82h-.36v1.06a.7.7 0 1 0 1.4 0Z" fill="#050004"/><path fill-rule="evenodd" d="M12.67 5.33H5.33v7.34h7.34V5.33ZM5 5v8h8V5H5Z" fill="#050004"/><path d="M7 9V5.12h.35V9h5.53v.35h-1.53v3.53H11V9.35H5.12V9H7Z" fill="#050004"/><defs><linearGradient id="a" x1="6.28" y1="3.99" x2="7.65" y2="4.89" gradientUnits="userSpaceOnUse"><stop stop-color="#666"/><stop offset="1"/></linearGradient><linearGradient id="b" x1="11.72" y1="14.01" x2="10.35" y2="13.11" gradientUnits="userSpaceOnUse"><stop stop-color="#666"/><stop offset="1"/></linearGradient><linearGradient id="c" x1="14.01" y1="6.27" x2="13.11" y2="7.64" gradientUnits="userSpaceOnUse"><stop stop-color="#666"/><stop offset="1"/></linearGradient><linearGradient id="d" x1="3.99" y1="11.72" x2="4.89" y2="10.35" gradientUnits="userSpaceOnUse"><stop stop-color="#666"/><stop offset="1"/></linearGradient></defs></svg>