<!-- by TradingView --><svg width="18" height="18" viewBox="0 0 18 18" xmlns="http://www.w3.org/2000/svg"><path fill="#F0F3FA" d="M0 0h18v18H0z"/><path fill-rule="evenodd" d="M2.53 10.67a2.9 2.9 0 0 1-.4-2.49c.12-.41.32-.78.61-1.1a3.23 3.23 0 0 1 5.37.88c.02.03 0 .06-.02.08h-.02c-.03.02-.05 0-.06-.02a3.08 3.08 0 0 0-4.63-1.36c-.38.26-.67.58-.9.97a2.77 2.77 0 0 0 .28 3.15 3 3 0 0 0 1.26.9 3.22 3.22 0 0 0 2.2.03 3.06 3.06 0 0 0 1.63-1.38c.02-.03.04-.04.07-.03h.01c.03.03.04.06.02.09a3.13 3.13 0 0 1-2.06 1.53 3.29 3.29 0 0 1-3.36-1.25Zm5.03-2.55A2.48 2.48 0 0 0 6.2 6.75a2.65 2.65 0 0 0-1.98-.04 2.55 2.55 0 0 0-1.54 1.6 2.37 2.37 0 0 0 .72 2.48 2.61 2.61 0 0 0 1.8.67 2.67 2.67 0 0 0 1.66-.61c.23-.2.43-.43.58-.7.01-.02.04-.03.07-.03l.03.02c.03.02.04.06.01.1a2.8 2.8 0 0 1-2.25 1.35 2.95 2.95 0 0 1-1.76-.5 2.66 2.66 0 0 1-1-1.38 2.4 2.4 0 0 1 .12-1.73 2.6 2.6 0 0 1 1.22-1.27 2.92 2.92 0 0 1 2.66.05 2.67 2.67 0 0 1 1.16 1.31c.02.04 0 .07-.04.1l-.06-.01a.07.07 0 0 1-.03-.04Zm-3.01-1.1a2.27 2.27 0 0 1 1.98.39c.28.22.5.5.64.83.02.03.04.05.08.04.03 0 .05-.03.06-.06v-.06c-.28-.58-.7-.99-1.28-1.2a2.39 2.39 0 0 0-2.88.9 2.05 2.05 0 0 0-.28 1.58 2.09 2.09 0 0 0 .63 1.11 2.38 2.38 0 0 0 3.67-.49c0-.05-.01-.08-.04-.09-.04 0-.07 0-.1.04a2.22 2.22 0 0 1-3.03.74 2.1 2.1 0 0 1-.69-.65 1.98 1.98 0 0 1 .39-2.64c.25-.2.53-.36.85-.44Zm1.08.37a1.81 1.81 0 0 0-1.83.54 1.65 1.65 0 0 0-.38 1.34 1.67 1.67 0 0 0 1.05 1.26 1.9 1.9 0 0 0 1.22.06 1.76 1.76 0 0 0 .96-.73c.03-.04.07-.05.12-.03l.03.02a.07.07 0 0 1 0 .09 1.91 1.91 0 0 1-1.32.86 1.98 1.98 0 0 1-1.95-.8 1.8 1.8 0 0 1-.31-1.07A1.88 1.88 0 0 1 4.39 7.3a1.95 1.95 0 0 1 1.53 0c.45.2.78.51 1 .96.03.04.02.08-.03.11l-.02.01c-.04.01-.07 0-.09-.03a3.52 3.52 0 0 0-.13-.24 1.65 1.65 0 0 0-.44-.46 1.66 1.66 0 0 0-.58-.27Zm-.7.43a1.31 1.31 0 0 1 1.1.33c.1.1.19.2.27.35.03.05.07.06.13.05.03-.01.05-.04.07-.07V8.4a1.52 1.52 0 0 0-2.47-.32 1.36 1.36 0 0 0 .19 2.01c.46.35.97.42 1.51.2.27-.1.5-.28.67-.53.03-.05.02-.08-.03-.1a.44.44 0 0 0-.06-.03c-.05-.01-.08 0-.1.03l-.03.03a1.3 1.3 0 0 1-.73.47 1.32 1.32 0 0 1-1.19-.3 1.17 1.17 0 0 1 .02-1.73c.18-.17.4-.28.66-.32Zm4.6.88c-.01-.08.03-.14.1-.16a.65.65 0 0 1 .23-.02l.04.03c.09.14.09.3 0 .46a.05.05 0 0 1-.04.02h-.34L9.5 9a3.23 3.23 0 0 1 .01-.3Zm-3.33.72a.48.48 0 0 0-.09.02.12.12 0 0 0-.06.05 1.05 1.05 0 0 1-1.01.5c-.2-.02-.38-.09-.53-.2a.98.98 0 0 1-.38-.95 1 1 0 0 1 .31-.54 1 1 0 0 1 .58-.26c.43-.04.77.12 1.01.47a.6.6 0 0 1 .08.18h.02l4.4-1.04c.05-.02.19-.02.4-.02.01 0 .02 0 .03-.02l.04-.03.09-.1a.3.3 0 0 1 .1-.05c.9-.24 1.72-.47 2.5-.7a.29.29 0 0 1 .2.02l.95.43a.3.3 0 0 1 .11.09c.03.04.05.08.05.13v.42c0 .03-.01.05-.03.07a.12.12 0 0 1-.08.04 142.9 142.9 0 0 1-1.9.34.24.24 0 0 0-.07.03.16.16 0 0 0-.06.05c-.02.05 0 .1.05.13.09.05.18.08.27.1l1.52.21c.16.03.3.11.3.26v2.08l-.1.07h-.01l-1.19.68a.06.06 0 0 1-.05 0l-2.52-.8c-.02 0-.03-.01-.03-.03v-.9c0-.02 0-.05.04-.05h.15l.89.2c.05.01.08 0 .1-.05.05-.14.05-.25 0-.34-.06-.09-.16-.14-.3-.18-.24-.04-.46-.1-.66-.14a.72.72 0 0 0-.29 0 .92.92 0 0 0-.27.1.37.37 0 0 1-.13.03c-.17.02-.34.03-.5.02-.09 0-.13.04-.13.13l-.02.31c0 .08-.05.13-.13.17l-.3.14a.3.3 0 0 1-.14.03 16.17 16.17 0 0 1-.69-.23.52.52 0 0 1-.15-.1.06.06 0 0 0-.04 0c-.1 0-.18 0-.23-.02a6.76 6.76 0 0 1-.5-.13.17.17 0 0 1-.12-.17v-.7c0-.02 0-.05-.03-.07a.12.12 0 0 0-.06-.04.62.62 0 0 0-.3 0 .2.2 0 0 0-.12.07.25.25 0 0 0-.05.13l-.04.27c0 .06-.06.1-.16.13a.62.62 0 0 1-.23.01 4.3 4.3 0 0 1-.46-.15v-.07c0-.02 0-.03-.03-.03Zm6.31.98a.1.1 0 0 1-.03.07c-.03.02-.05.03-.08.02l-.9-.18a.82.82 0 0 0-.22 0h-.03l-.01.04v.6l.01.02a809.57 809.57 0 0 0 2.41.7l.05-2.51c0-.22-.12-.34-.38-.36-.06 0-.1 0-.16-.02a100 100 0 0 1-.88-.15c-.1-.02-.15-.07-.16-.16-.01-.18.07-.27.23-.3h.16a55.1 55.1 0 0 1 1.14-.2c.06-.02.1-.06.1-.11a21.03 21.03 0 0 1 .03-.8l-.01-.03a.18.18 0 0 0-.17-.04 374.82 374.82 0 0 0-2.35.61.2.2 0 0 0-.1.09 53.33 53.33 0 0 1-.04 1.62c0 .03.02.05.05.06.4.11.77.21 1.14.29.1.02.17.08.2.18l.01.25v.31Zm-3.1-.1.04-.62c0-.04.02-.07.06-.1a.15.15 0 0 1 .1-.05c.29.01.57.03.85.06.02 0 .03 0 .04-.02a.26.26 0 0 0 .03-.12 129.63 129.63 0 0 1 .04-1.56l-.02-.03a.2.2 0 0 0-.17-.03 248.55 248.55 0 0 0-1.54.45l-.03 1.85c0 .02.01.03.03.04.17.07.35.12.55.15.02 0 .03 0 .03-.02ZM8 8.47c.12-.05.25-.08.4-.1.01 0 .02 0 .02.03l.02 1.6c0 .01 0 .02-.02.02-.34 0-.5-.08-.5-.22a149.61 149.61 0 0 0 .01-1.3.9.9 0 0 0 .07-.03Zm-2.1.5.36.03c.11 0 .18.08.19.2a7.1 7.1 0 0 0 .05.3l.29.02c.01 0 .02 0 .02-.02l.02-.3c0-.16.06-.25.19-.27a17.35 17.35 0 0 1 .54-.09v-.27s0-.01 0 0l-1.66.36c-.12.03-.12.05 0 .05Z"/></svg>