<!-- by TradingView --><svg width="18" height="18" viewBox="0 0 18 18" xmlns="http://www.w3.org/2000/svg"><path fill="url(#adxpvfzz4)" d="M0 0h18v18H0z"/><path d="m3.1 6 .66 1.27h1.08l-1.28 3.98h1.2l1.28-3.98h1.02L7.46 6H3.1ZM11.57 6h-1.6L8.4 7.48 8.88 6H7.63l-1.68 5.25h1.2l.54-1.64.27-.25.56 1.9h1.34l-.83-2.9L11.57 6Z"/><path d="M14.63 6.06h-3c-.13 0-.24.1-.29.25l-1.39 4.32c-.08.26.07.55.3.55h3c.12 0 .24-.1.29-.25l1.38-4.32c.09-.26-.07-.55-.3-.55Zm-1.11 1.36-.81 2.53c-.02.06-.07.1-.12.1h-1.14c-.1 0-.15-.12-.12-.22l.81-2.53c.02-.06.07-.1.12-.1h1.14c.1 0 .15.11.12.22Z" fill="url(#bdxpvfzz4)"/><path d="M11.25 10.05c.05.08.12.13.2.13h1.14c.1 0 .18-.07.22-.18l.8-2.53c.04-.1.03-.2-.01-.28l-.1.08c.03.04.04.1.02.15l-.81 2.53c-.02.06-.07.1-.12.1h-1.14c-.05 0-.08-.03-.1-.07l-.1.07Z" fill="#fff"/><path d="M10.25 11.05c-.07 0-.14-.05-.18-.12a.32.32 0 0 1-.02-.25l1.39-4.32c.03-.1.1-.17.2-.17h2.99c.07 0 .14.05.18.12v.03l.1-.09c-.06-.1-.16-.19-.28-.19h-3c-.13 0-.24.1-.29.25l-1.39 4.32c-.08.26.07.55.3.55" fill="#fff"/><path d="M6.95 7.06H5.93l-1.27 3.99H3.8l-.16.13h1.09L6 7.2h1.02l.36-1.14-.14.13-.3.87Z" fill="url(#cdxpvfzz4)"/><path d="M11.08 6.2 8.84 8.28l.12.05.82 2.84-.82-2.84 2.44-2.28-.32.13Z" fill="url(#ddxpvfzz4)"/><path d="M9.63 11.05h-1l-.6-2.02-.47.45-.52 1.57h-.86l-.15.13H7.1l.54-1.62.33-.32.57 1.94h1.23l-.15-.13Z" fill="url(#edxpvfzz4)"/><path d="m8.64 6.2-.6 1.86.24-.4 1.71-1.6h1.42-1.42l-1.71 1.6.52-1.6-.16.13Z" fill="#00A700"/><path d="M5.07 7.06H3.85L3.4 6.2l-.2-.13.6 1.14h1.12l-1.28 3.98L4.92 7.2l.15-.14Z" fill="url(#fdxpvfzz4)"/><path d="M10.25 11.05c-.07 0-.14-.05-.18-.12a.32.32 0 0 1-.02-.25l1.39-4.32c.03-.1.1-.17.2-.17h2.99c.07 0 .14.05.18.12.04.08.04.17.02.25l-1.39 4.32c-.03.1-.1.17-.2.17h-3Zm2-3.99c-.09 0-.17.08-.2.19l-.82 2.53c-.03.09-.02.19.02.27.05.08.12.13.2.13h1.14c.1 0 .18-.07.22-.18l.8-2.53c.04-.1.03-.2-.01-.28-.05-.08-.12-.13-.2-.13h-1.14Z" fill="url(#gdxpvfzz4)"/><path d="M3.85 7.06h1.22L3.8 11.05h.86l1.27-3.99h1.02l.29-.87H3.4l.45.87Z" fill="url(#hdxpvfzz4)"/><path d="m8.03 8.06.61-1.87h-.9l-1.56 4.86h.86l.52-1.57.47-.45.6 2.02h1l-.8-2.76 2.25-2.1h-1.05l-2 1.87Z" fill="url(#idxpvfzz4)"/><path d="m6.18 11.05 1.55-4.86-.06-.13-1.64 5.12.15-.13ZM3.8 11.05l1.27-3.99-.15.14-1.28 3.98.16-.13ZM8.84 8.29l.79 2.76.15.13-.82-2.84-.12-.05ZM8.28 7.67l-.25.4 2-1.88h1.05l.33-.13H9.99l-1.71 1.6Z" fill="#fff"/><path d="M3.51 11.58h9.72L3.08 12.92l.43-1.34Z" fill="url(#jdxpvfzz4)"/><path d="M3.58 11.71h7.56l-7.9 1.05.34-1.05Z" fill="url(#kdxpvfzz4)"/><path d="M13.23 11.58H3.5l-.43 1.34.15-.16.35-1.05h7.56l2.09-.13Z" fill="#fff"/><defs><linearGradient id="adxpvfzz4" x1="3.35" y1="3.12" x2="21.9" y2="24.43" gradientUnits="userSpaceOnUse"><stop stop-color="#1A1E21"/><stop offset="1" stop-color="#06060A"/></linearGradient><linearGradient id="bdxpvfzz4" x1="9.62" y1="8.62" x2="15.13" y2="8.62" gradientUnits="userSpaceOnUse"><stop offset=".17" stop-color="#005400"/><stop offset=".32" stop-color="#007800"/><stop offset=".46" stop-color="#009200"/><stop offset=".58" stop-color="#00A100"/><stop offset=".68" stop-color="#00A700"/></linearGradient><linearGradient id="cdxpvfzz4" x1="4.73" y1="10.82" x2="7.59" y2="5.89" gradientUnits="userSpaceOnUse"><stop offset=".13" stop-color="#004900"/><stop offset=".32" stop-color="#007800"/><stop offset=".58" stop-color="#00A100"/><stop offset=".68" stop-color="#00A700"/></linearGradient><linearGradient id="ddxpvfzz4" x1="11.72" y1="8.88" x2="9.68" y2="8.59" gradientUnits="userSpaceOnUse"><stop offset=".46" stop-color="#009200"/><stop offset=".68" stop-color="#00A700"/></linearGradient><linearGradient id="edxpvfzz4" x1="7.9" y1="11.57" x2="7.95" y2="7.96" gradientUnits="userSpaceOnUse"><stop offset=".13" stop-color="#004900"/><stop offset=".32" stop-color="#007800"/><stop offset=".58" stop-color="#00A100"/></linearGradient><linearGradient id="fdxpvfzz4" x1="4.72" y1="9.51" x2="1.67" y2="7.48" gradientUnits="userSpaceOnUse"><stop offset=".2" stop-color="#003217"/><stop offset=".77" stop-color="#009947"/></linearGradient><linearGradient id="gdxpvfzz4" x1="14.13" y1="6.93" x2="11.31" y2="8.71" gradientUnits="userSpaceOnUse"><stop offset=".34" stop-color="#050"/><stop offset=".49" stop-color="#007D00"/><stop offset=".7" stop-color="#00B900"/><stop offset=".96" stop-color="#AFFF00"/></linearGradient><linearGradient id="hdxpvfzz4" x1="6.92" y1="4.78" x2="3.66" y2="7.5" gradientUnits="userSpaceOnUse"><stop offset=".34" stop-color="#050"/><stop offset=".49" stop-color="#007D00"/><stop offset=".7" stop-color="#00B900"/><stop offset=".96" stop-color="#AFFF00"/></linearGradient><linearGradient id="idxpvfzz4" x1="10.16" y1="6.72" x2="7.09" y2="9.2" gradientUnits="userSpaceOnUse"><stop offset=".34" stop-color="#050"/><stop offset=".49" stop-color="#007D00"/><stop offset=".7" stop-color="#00B900"/><stop offset=".96" stop-color="#AFFF00"/></linearGradient><linearGradient id="jdxpvfzz4" x1="1.46" y1="9.54" x2="6.57" y2="10.84" gradientUnits="userSpaceOnUse"><stop offset=".53" stop-color="#006500"/><stop offset=".88" stop-color="#00B900"/></linearGradient><linearGradient id="kdxpvfzz4" x1="3.81" y1="9.84" x2="7.76" y2="11.6" gradientUnits="userSpaceOnUse"><stop offset=".34" stop-color="#050"/><stop offset=".49" stop-color="#007D00"/><stop offset=".7" stop-color="#00B900"/><stop offset=".96" stop-color="#AFFF00"/></linearGradient></defs></svg>