<!-- by TradingView --><svg width="18" height="18" viewBox="0 0 18 18" xmlns="http://www.w3.org/2000/svg"><path fill="#F0F3FA" d="M0 0h18v18H0z"/><path d="M12.42 5.74c-1.5 0-3.95 2.67-5 4-.1-.1-.3-.53-.3-1.48C7.12 7.07 9.77 5 10.55 5c.62 0 1.5.5 1.87.74Z" fill="url(#a)"/><path d="M6.8 13c-.5 0-1.03-.3-1.24-.44.62 0 1.82-1.39 2.34-2.08l1.09.74C8.36 12.12 7.43 13 6.8 13Z" fill="#B0D464"/><path d="m8.99 8.7-.47 1.04.94.74c.05-.15.15-.56.15-1.04 0-.47-.41-.69-.62-.74Z" fill="#4E8339"/><path d="M12.42 5.74c-.63 0-1 .2-1.1.3.42 1.23 1.28 3.82 1.4 4.3.13.47-.15 1.08-.3 1.33 1.5-.36 1.66-1.83 1.56-2.52a5.2 5.2 0 0 0-1.56-3.4Z" fill="url(#b)"/><path d="M12.42 11.67a1.6 1.6 0 0 0 .33-1.24c-.78.15-3.45-.54-4.39-.84-.74-.23-1.14-1.13-1.24-1.48-1.25 3.26 4.05 4 4.52 4 .37 0 .67-.3.78-.44Z" fill="url(#c)"/><path d="M5.33 7.29c-.5 0-.91.87-1.02 1.27 1.25.04 3.87.17 4.37.3.5.11.83.44.93.58-.12-1.65-1-2.15-1.48-2.15h-2.8Z" fill="url(#d)"/><path d="M4 9.15c0-1.07.78-1.86 1.25-1.86-.47.42-.47 1.41-.31 1.86l1.55 2.96c-.1.25-.43.68-.93.45C4.94 12.26 4 10.48 4 9.15Z" fill="url(#e)"/><defs><linearGradient id="a" x1="11.64" y1="5.44" x2="7.48" y2="9.51" gradientUnits="userSpaceOnUse"><stop stop-color="#1AA0DB"/><stop offset=".47" stop-color="#1DBBED"/><stop offset="1" stop-color="#076DB6"/></linearGradient><linearGradient id="b" x1="12.66" y1="5.74" x2="12.66" y2="11.67" gradientUnits="userSpaceOnUse"><stop stop-color="#1064AB"/><stop offset=".3" stop-color="#129DD9"/><stop offset=".53" stop-color="#1EBCEE"/><stop offset="1" stop-color="#1AA5DE"/></linearGradient><linearGradient id="c" x1="6.96" y1="8.85" x2="12.65" y2="11.12" gradientUnits="userSpaceOnUse"><stop stop-color="#1184C6"/><stop offset=".48" stop-color="#22C0F1"/><stop offset=".71" stop-color="#10A2DD"/><stop offset="1" stop-color="#0370B8"/></linearGradient><linearGradient id="d" x1="4.47" y1="7.96" x2="9.58" y2="9.27" gradientUnits="userSpaceOnUse"><stop stop-color="#457939"/><stop offset=".36" stop-color="#8EC649"/><stop offset="1" stop-color="#9ACC5C"/></linearGradient><linearGradient id="e" x1="4.31" y1="7.81" x2="5.88" y2="12.6" gradientUnits="userSpaceOnUse"><stop stop-color="#A8D161"/><stop offset=".55" stop-color="#97CA4F"/><stop offset="1" stop-color="#4B8039"/></linearGradient></defs></svg>