<!-- by TradingView --><svg width="18" height="18" viewBox="0 0 18 18" xmlns="http://www.w3.org/2000/svg"><path fill="#F0F3FA" d="M0 0h18v18H0z"/><path d="M13.32 11.43c-.2.73-1.99 1.26-4.03 1.2a8.4 8.4 0 0 1-2.04-.3c.68.33 1.4.53 2.14.61 2.62.25 4.47-.36 4.76-1.06.15-.34.17-.9-1.26-1.31.29.16.53.5.43.86Z" fill="#009DD3"/><path d="M11.94 5.64c1.02 0 2.02.06 3.04.2a12.3 12.3 0 0 0-4.8-.84C5.46 5 2 7.1 2 9.14c0 1.17 1.02 2.07 2.77 2.63a2.22 2.22 0 0 1-.97-1.85C3.8 8.47 4.89 7.18 7 6.4v4.08c0 .42-.1.76-.46.76V12h3.14v-.76c-.36 0-.68-.34-.68-.73V5.95c1.07-.2 1.9-.3 2.94-.3Z" fill="silver"/><path d="M12 6.76c1-.14 2-.14 3 .03-1.05-.53-2.63-.75-5.06-.47-3.06.36-5.2 2.04-5.2 3.62 0 1.05 1 1.82 2.55 2.26a1.93 1.93 0 0 1-.95-1.57C6.24 9.08 7.6 7.73 10 7.06v3.5c0 .42-.07.69-.44.69V12h3.03v-.75c-.37 0-.59-.27-.59-.65V6.76Z" fill="#009DD3"/></svg>