<!-- by TradingView --><svg width="18" height="18" viewBox="0 0 18 18" xmlns="http://www.w3.org/2000/svg"><path fill="#F0F3FA" d="M0 0h18v18H0z"/><ellipse cx="9" cy="10.5" rx="7" ry="1.5" fill="#017DBA"/><ellipse cx="9" cy="10.5" rx="5.41" ry="1.2" fill="#3B97CA"/><ellipse cx="9" cy="10.5" rx="3.18" ry=".6" fill="#E9F1F5"/><path fill-rule="evenodd" d="m12 8.39.04.1c.06-.09.22-.26.36-.26.05 0 .1.07.16.16.15.25.43.69 1.25.69A2.6 2.6 0 0 0 15 8.87c-.13-.07-.46-.3-.74-.7-.35-.48-.65-.63-1.07-.63a.98.98 0 0 0-.63.2c.32-.01 1.04.12 1.35.8v.06h-.06c-.18-.21-.64-.58-1.2-.58-.2 0-.35.02-.4.04l-.25.33Zm.8-.01c-.02-.04-.06-.05-.09-.03-.03.02-.04.06-.02.1.02.05.06.12.13.17.03.02.07.01.08-.02.02-.04.01-.08-.02-.1a.29.29 0 0 1-.09-.12Zm.23.26c-.03-.03-.07-.02-.09.01-.01.04 0 .08.02.1.1.1.3.22.61.23.04 0 .06-.03.07-.07 0-.04-.03-.08-.06-.08a.85.85 0 0 1-.55-.2Z" fill="#006436"/><path d="M6.95 9c-.34 0-.45-.15-.45-.5V7.24h-1v1.28c0 .27-.1.49-.45.49H5v1h2V9h-.05Z" fill="#3EAE49"/><path d="M4 8V6.51c0-.28.24-.51.53-.51h5.94c.3 0 .53.23.53.51v1.07c0 .23-.15.43-.37.5.22.06.37.25.37.46v.95c0 .28-.24.51-.53.51H7.65v-.92c.3 0 .49-.24.49-.54V7.31H9v.3h.63c.12 0 .22-.1.22-.21v-.18c0-.12-.1-.22-.22-.22H8.05c-.13 0-.23.1-.23.22V8H7v-.78C7 7.1 6.9 7 6.77 7H5.23C5.1 7 5 7.1 5 7.22V8H4Zm5.89.6c0-.12-.1-.22-.23-.22H9V9h.66c.12 0 .23-.1.23-.21V8.6Z" fill="#3EAE49"/><path d="M11 6.41c0-.23.17-.41.38-.41h2.24c.2 0 .38.18.38.41v1.21h-.42c-.17-.09-.33-.11-.54-.15H13v-.25c0-.12-.1-.22-.2-.22h-.6c-.1 0-.2.1-.2.22v1.56c0 .12.1.22.2.22h.8c.36.18.61.18 1 .18V10h-1v-.41c0 .23-.17.41-.38.41h-1.24c-.2 0-.38-.18-.38-.41V6.4Z" fill="#8A451D"/><path fill="#0078B6" d="M4.23 10.2h9.55v.6H4.23z"/></svg>