<!-- by TradingView --><svg width="18" height="18" viewBox="0 0 18 18" xmlns="http://www.w3.org/2000/svg"><path fill="#F0F3FA" d="M0 0h18v18H0z"/><path fill-rule="evenodd" d="M16 10.66c0 .41-.13.74-.37.98s-.57.36-.98.36H2.61a.79.79 0 0 1-.36-.07c-.17-.08-.25-.25-.25-.5V7.68c0-.38.02-.65.07-.81.18-.57.6-.86 1.26-.87h12.03c.15 0 .25.01.31.04.22.08.33.24.33.48v4.14Zm-5.1-2.98.24.25c.03.03.03.06 0 .09A4.3 4.3 0 0 1 9.5 9.27c-.24.05-.47-.08-.7-.4-.01-.02 0-.03.01-.04.49-.22.91-.47 1.28-.76.14-.11.26-.24.35-.39l-.01-.01h-.95c-.04 0-.06-.03-.04-.07l.07-.18c.02-.05.06-.09.12-.09h1.94v-.08c.02-.17.08-.25.18-.25a252.72 252.72 0 0 0 .68.02l-.04.3.02.01h2c.08 0 .1.05.07.1l-.06.14c-.03.06-.08.1-.16.1h-.96c-.02 0-.03 0-.01.02a6.4 6.4 0 0 0 1.35 1.27c-.26.3-.5.42-.7.36a1.9 1.9 0 0 1-.68-.53c-.31-.32-.6-.67-.89-1.03-.02-.04-.04-.03-.04 0a32.55 32.55 0 0 0-.07.55.89.89 0 0 1-.06.3c-.05.1-.14.15-.28.18-.17.03-.36.05-.57.04v-.01l.16-1.14-.02-.01h-.58ZM5.23 8.79c.01-.05.02-.05.04 0 .03.1.08.2.16.3.02.03.06.03.1.01.1-.05.2-.12.3-.2.01-.02.02-.03 0-.05a6.7 6.7 0 0 1-.3-1.2c.1-.05.16-.16.19-.3 0-.02 0-.03-.02-.03H5.5c-.02 0-.03 0-.03-.03l.05-.26c0-.02 0-.03-.03-.03h-.46c-.13 0-.21.1-.24.29 0 .02-.02.04-.04.04h-.9c-.08 0-.14.02-.16.1l-.05.13c-.03.06 0 .1.06.1h1.01l-.6 3.28c0 .03.01.04.04.04.46.06.71-.02.75-.24l.32-1.95Zm1.33-.87c.01.05.02.05.03 0l.13-.76c.02-.1.08-.16.19-.16h.48l.01.01-.54 3.4a.62.62 0 0 1-.47.53c-.16.05-.4.07-.74.06-.1 0-.16-.05-.18-.14l-.04-.13c-.02-.08.01-.12.1-.1.11.01.24 0 .39-.04.17-.05.27-.18.3-.38l.07-.44c0-.06 0-.06-.04-.01-.1.14-.2.28-.35.4-.11.12-.29.07-.52-.12V10c.27-.33.45-.6.6-.93.01-.05.05-.07.1-.07h.32l.01-.02.05-.3v-.01l-.18.04c-.02 0-.04 0-.05-.02a2.59 2.59 0 0 1-.4-1.34c-.01-.02 0-.03.02-.03H6.29c.1 0 .15.04.16.13l.1.47Zm1.49.44c-.03.05-.04.05-.03 0l.21-1.33c0-.02 0-.03-.02-.03h-.45c-.1 0-.17.05-.18.16l-.52 3.29c-.05.35.2.53.77.55.27 0 .53 0 .78-.02.24-.01.36-.18.36-.51 0-.02-.01-.02-.03-.02-.27.06-.5.1-.7.1-.38 0-.55-.08-.52-.26a90.26 90.26 0 0 0 .12-.67c.07.19.16.36.27.5.05.07.12.1.22.07.18-.06.35-.14.5-.25.02-.01.02-.02.01-.04-.19-.3-.37-.61-.52-.94v-.04c.12-.1.22-.22.3-.34a6.11 6.11 0 0 0 .66-1.25H8.7c-.12 0-.2.06-.26.2-.12.29-.25.56-.39.83Zm-4.22-.2c.03-.1.1-.16.2-.16a17.97 17.97 0 0 1 .49.01l-.13.54a8.46 8.46 0 0 1-.7 2.11h-.4c.18-.57.28-1.14.39-1.7l.15-.8Zm5.58 1.82h2.2c.03 0 .04.03.03.05l-.02.26c-.01.16-.25.23-.73.2-.3 0-.6-.04-.9-.1-.01 0-.02 0-.02.02 0 .31.07.48.22.5.5.09 1.01.11 1.53.07.45-.03.69-.13.7-.3a13.64 13.64 0 0 0 .04-.7h1.8c.07 0 .12-.02.14-.08l.04-.16c.02-.06 0-.07-.07-.07h-1.83c-.03 0-.04-.03-.03-.05.02-.04.05-.05.1-.06a.52.52 0 0 0 .1-.06c.06-.04.1-.07.12-.1.03-.02.04-.05.03-.1a.22.22 0 0 0-.13-.11 6.23 6.23 0 0 0-.58-.19.59.59 0 0 1-.18.04h-1.25c-.1 0-.19.05-.24.14l-.03.05c-.06.09-.03.13.07.13h1.21c.02 0 .03 0 .02.02l-.02.05c-.02.06-.04.1-.04.2 0 .02-.01.04-.03.04H9.54c-.08 0-.13.02-.16.1l-.04.13c-.03.06 0 .08.07.08Z" fill="#D8312B"/></svg>