<!-- by TradingView --><svg width="18" height="18" viewBox="0 0 18 18" xmlns="http://www.w3.org/2000/svg"><path fill="#F0F3FA" d="M0 0h18v18H0z"/><path fill-rule="evenodd" d="M9 15A6 6 0 1 0 9 3a6 6 0 0 0 0 12Zm0-.35a5.65 5.65 0 1 0 0-11.3 5.65 5.65 0 0 0 0 11.3Z" fill="#D0A034"/><path fill-rule="evenodd" d="M11.18 5.35 7.88 4A5.09 5.09 0 0 0 4 8.92a5.1 5.1 0 0 0 6 5v-1.48c0-.2.03-.44.2-.44.24 0 .45.21.67.44.25.27.53.56.9.56.53 0 .82-.69.85-.93v-.6c0-.33-.05-.47-.2-.47-.08 0-.16.16-.23.31-.06.14-.13.28-.19.28-.12 0-.22-.2-.22-.74s.4-1.33.66-1.33c.24 0 .24.06.26.4v.1c.02.34.19.34.31.34l.85-1.49a1.11 1.11 0 0 0-.2-1.35l-1.71-1.67a2.39 2.39 0 0 0-.77-.5ZM6.58 5a.57.57 0 0 0-.33.1C6 5.28 6 5.62 6 5.75v2.11c0 .08.06.14.14.14.07 0 .13-.06.13-.14v-2.1c0-.22.05-.47.32-.47.2 0 .4.17.55.3l.04.02c.23.19.45.42.59.57.05.06.13.06.19 0a.15.15 0 0 0 0-.2 5.6 5.6 0 0 0-.62-.6C7.14 5.21 6.87 5 6.6 5ZM6.1 9c.06 0 .13.03.14.08.14.7.9 2.42 2.72 3.75.05.03.05.1.01.14a.14.14 0 0 1-.17 0A7.21 7.21 0 0 1 6 9.13c-.01-.06.03-.1.1-.12Zm5.07-3h-.44c-.24 0-.77.14-.73.45.01.08.08.17.17.2.35.08.66.18.94.3.97.36 1.52.8 1.69 1 .04.05.1.06.16.03a.1.1 0 0 0 .02-.15c-.2-.23-.76-.68-1.7-1.05V6.1c0-.06-.05-.11-.1-.11Zm-.12.2v.5a8.57 8.57 0 0 0-.8-.25c-.04-.02-.02-.05 0-.07.06-.07.21-.14.49-.17h.31Z" fill="#052136"/></svg>