<!-- by TradingView --><svg width="18" height="18" fill="none" xmlns="http://www.w3.org/2000/svg"><path fill="#F0F3FA" d="M0 0h18v18H0z"/><path fill-rule="evenodd" clip-rule="evenodd" d="M15.5 9c0-2.307-4.315-3.5-6.5-3.5-2.185 0-6.445.995-6.445 3.5S6.815 12.5 9 12.5c2.185 0 6.5-1.159 6.5-3.5ZM9 13c3.866 0 7-1.79 7-4s-3.134-4-7-4-7 1.79-7 4 3.134 4 7 4Z" fill="#0605A6"/><path fill-rule="evenodd" clip-rule="evenodd" d="M15.34 8H2.63v-.5h12.71V8ZM15.34 10.5H2.659V10h12.683v.5Z" fill="#0605A6"/><path d="M6.657 12.448a.135.135 0 0 1-.01-.005l-.432-.228c-.07-.083-.007-.258.805-.296 1.014-.047 3.426-.567 4.155-1.458h.534c-1.479 1.408-3.535 1.657-4.435 1.754-.694.074-.71.18-.627.228l.01.005ZM9.842 6.9c1.165.204 1.784.515 1.948.645h-.71c-.43-.233-3.374-.71-3.887-.879-.411-.134-.172-.515 0-.69.89-.45 2.911-.32 3.44-.32.423 0 .264-.195.13-.292.072.018.251.07.394.13.142.06.199.155.21.195.133.217-.057.282-.168.288-2.058-.125-3.08.06-3.724.288-.644.228.911.38 2.367.635Z" fill="#0605A6"/><path d="M14 8H4.274L4 10h10V8Z" fill="#F0F3FA"/><path fill="#0605A6" fill-opacity=".6" d="M3 8h12v2H3z"/></svg>