<!-- by TradingView --><svg width="18" height="18" viewBox="0 0 18 18" xmlns="http://www.w3.org/2000/svg"><path fill="#F0F3FA" d="M0 0h18v18H0z"/><path d="M11.12 13.9a24.46 24.46 0 0 1-7.64-4.12c-.41-.31-.68-.75-.3-1.22A19.7 19.7 0 0 1 6.5 6.2c1.47-.84 3-1.53 4.6-2.1.55-.19 1.08-.15 1.36.41a12.47 12.47 0 0 1 .43 2.18c.12 1.3.14 2.61.06 3.91-.04.62-.12 1.24-.23 1.84-.05.3-.13.6-.22.88-.06.16-.1.28-.16.35-.19.27-.53.36-.85.32-.09 0-.21-.03-.37-.08ZM8.72 10H8.7l1.21-4.23H8.42L6.9 11h4.66l.29-1H8.7Z" fill="#EA5404"/></svg>