<!-- by TradingView --><svg width="18" height="18" viewBox="0 0 18 18" xmlns="http://www.w3.org/2000/svg"><path fill="#F0F3FA" d="M0 0h18v18H0z"/><path d="M9.36 3c.48.08.92.17 1.31.28.46.13.45.19-.03.17-3.17-.08-5.58 2.24-6.8 4.95-.04.07-.01.1.06.09l.62-.08c.08 0 .1.02.05.08a5.73 5.73 0 0 0-1.04 3.07c-.01.1-.05.1-.12.04A5.04 5.04 0 0 1 2 7.9c.13-.02.29.09.47.3.15.18.24.15.27-.07C3.14 5.32 4.92 3.6 8.07 3h1.3Z" fill="#57B048"/><path d="M13.42 9.7c-.03.52.07.77-.26 1.16a5.63 5.63 0 0 1-1.06.9l-.05-.01a.1.1 0 0 1-.05-.03V9.18c0-.02 0 0 0 0l-.06-.02c-.03 0-.04.01-.05.03l-.38 2.7c-.02.07-.07.11-.18.11h-.65a.2.2 0 0 1-.11-.03.12.12 0 0 1-.06-.08l-.37-2.7c0-.04-.04-.06-.08-.06s-.06.03-.06.07v2.72c0 .05-.03.08-.1.08H8.62a.15.15 0 0 1-.09-.03.09.09 0 0 1-.04-.07V7.28a.07.07 0 0 0-.03-.06.12.12 0 0 0-.07-.02h-.76c-.07 0-.11.02-.11.08v4.64c0 .05-.03.08-.1.08H6.1a.12.12 0 0 1-.06-.02c-.02-.02-.04-.04-.04-.06V7.3c0-.11-.61-.13-.9-.06a.2.2 0 0 1-.1 0 .16.16 0 0 1-.07-.04.1.1 0 0 1-.03-.07c0-.02 0-.04.02-.06C5.43 6.4 5.99 6 7.16 6h3.32c.11 0 .18.1.19.18l.28 2.15c0 .02.01.03.04.03H11.08l.26-2.01c.03-.28.21-.35.59-.35h.93c.37.06.56.21.56.51V9.7Z" fill="#17326A"/><path d="M9.94 15H8.63c-.49-.08-.91-.17-1.28-.27-.49-.12-.48-.18.03-.18 3.17.01 5.63-2.28 6.74-4.9.04-.1.01-.14-.09-.14-.14 0-.28.01-.44.06-.05-.08-.07-.14-.05-.19.56-.89.86-1.88.92-2.98 0-.1.04-.11.11-.04A5.1 5.1 0 0 1 16 10.03c0 .1-.05.13-.14.07-.15-.09-.3-.21-.45-.39-.08-.09-.13-.07-.15.04-.43 2.89-2.2 4.63-5.32 5.25Z" fill="#2870AE"/></svg>