<!-- by TradingView --><svg width="18" height="18" viewBox="0 0 18 18" xmlns="http://www.w3.org/2000/svg"><path fill="#F0F3FA" d="M0 0h18v18H0z"/><path d="m3 6.46 2.2 1.98c.11.47.41 1.5.74 1.94l.24.37c.3.5.65 1.1 1.93 1.89.32.2.62.42.89.65.27-.23.57-.45.9-.65a4.97 4.97 0 0 0 1.92-1.89l.24-.37a6.8 6.8 0 0 0 .73-1.94L15 6.46c-.47 3.45-2.01 5.09-2.72 5.48a2 2 0 0 1 1.76.85c-.4-.03-1.26-.1-1.59-.1-1.05 0-2.14.36-3.1.9.6.57 1 1.12 1.17 1.41A8.89 8.89 0 0 0 9 13.8 8.9 8.9 0 0 0 7.48 15c.16-.29.57-.84 1.18-1.4a6.48 6.48 0 0 0-3.11-.91c-.33 0-1.2.07-1.6.1a2 2 0 0 1 1.77-.85c-.7-.4-2.25-2.03-2.72-5.48Z" fill="#439169"/><path fill-rule="evenodd" d="M9 12a4 4 0 1 0 0-8 4 4 0 0 0 0 8Zm0-.24a3.71 3.71 0 1 0 0-7.42 3.71 3.71 0 0 0 0 7.42Z" fill="#439169"/><path fill-rule="evenodd" d="M9 11a3 3 0 1 0 0-6 3 3 0 0 0 0 6Zm0-.33a2.67 2.67 0 1 0 0-5.34 2.67 2.67 0 0 0 0 5.34Z" fill="#439169"/><path fill-rule="evenodd" d="M9 10.99c.93 0 1.69-1.34 1.69-2.99 0-1.65-.76-2.99-1.69-2.99-.93 0-1.69 1.34-1.69 2.99 0 1.65.76 2.99 1.69 2.99Zm0-.24c.75 0 1.35-1.2 1.35-2.7 0-1.5-.6-2.7-1.35-2.7-.75 0-1.35 1.2-1.35 2.7 0 1.5.6 2.7 1.35 2.7Z" fill="#439169"/><path fill-rule="evenodd" d="M6 8.05c0 .93 1.34 1.69 3 1.69s3-.76 3-1.69c0-.93-1.34-1.69-3-1.69s-3 .76-3 1.7Zm.33 0C6.33 8.8 7.53 9.4 9 9.4s2.67-.6 2.67-1.35c0-.74-1.2-1.35-2.67-1.35s-2.67.6-2.67 1.35Z" fill="#439169"/><circle cx="9" cy="8.05" fill="#439169" r=".68"/><circle cx="10.18" cy="6.87" r=".51" fill="#439169"/><circle cx="7.82" cy="9.23" r=".51" fill="#439169"/></svg>