<!-- by TradingView --><svg width="18" height="18" viewBox="0 0 18 18" xmlns="http://www.w3.org/2000/svg"><path fill="#234084" d="M0 0h18v18H0z"/><path d="M15.78 6.06C12.38 6.33 5.56 7.3 5.56 9s6.82 2.67 10.22 2.94C4.3 12.39 2 10.29 2 9s2.3-3.39 13.78-2.94Z" fill="url(#anv11r45a)"/><path d="M15.75 6.06C12.34 6.33 5.56 7.3 5.56 9s6.82 2.67 10.22 2.94l-.7.02C10.64 12 3 11.45 3 9.01c0-2.57 8.44-3.03 12.75-2.95Z" fill="#112A4E"/><path d="M6 9c0-1.71 6.53-2.67 10-2.94l-.6-.02C6.2 6.12 4 8.02 4 9c0 1 2.28 2.91 11.9 2.93C12.4 11.66 6 10.7 6 9Z" fill="url(#bnv11r45a)"/><defs><linearGradient id="anv11r45a" x1="2" y1="9" x2="15.78" y2="9" gradientUnits="userSpaceOnUse"><stop stop-color="#11294D"/><stop offset=".2" stop-color="#0172B7"/></linearGradient><linearGradient id="bnv11r45a" x1="6.11" y1="10.84" x2="9.64" y2="6.93" gradientUnits="userSpaceOnUse"><stop offset=".56" stop-color="#F9DA00"/><stop offset="1" stop-color="#BE2227"/></linearGradient></defs></svg>