<!-- by TradingView --><svg width="18" height="18" viewBox="0 0 18 18" xmlns="http://www.w3.org/2000/svg"><path fill="url(#a)" d="M0 0h18v18H0z"/><path fill-rule="evenodd" d="M6.47 13.6 3.95 9l2.52-4.6h5.06L14.05 9l-2.52 4.6H6.47ZM3.5 9l2.75-5h5.5l2.75 5-2.75 5h-5.5L3.5 9Zm3.2 3.9L4.63 8.87l2.3-3.9 4.37.13 2.07 4.05-2.3 3.9-4.37-.13ZM4.18 8.86l2.53-4.3 4.82.14 2.29 4.46-2.53 4.3-4.82-.14-2.29-4.46Zm1.23-.05 1.63 3.36 3.6.2 1.95-3.16-1.63-3.36-3.6-.2L5.42 8.8Zm1.76-3.58-2.2 3.56 1.83 3.78 4.03.22 2.2-3.56-1.83-3.78-4.03-.22Zm.02 6.16L6.13 8.55l1.8-2.38 2.88.45 1.06 2.83-1.8 2.38-2.88-.45Zm-1.5-2.9 2.08-2.75 3.32.52 1.22 3.27-2.08 2.75-3.32-.52L5.7 8.48Zm1.6 1.84.08.35 1.57.46-1.65-.81ZM7.2 10l-.15-1.9-.25.24.4 1.66Zm.06-2.13 1.5-1.1-.33-.1-1.17 1.2Zm1.8-1 1.64.8-.08-.35-1.57-.46Zm1.72 1.11.15 1.9.25-.24-.4-1.66Zm-.06 2.13-1.5 1.1.33.1 1.17-1.2Zm-2.4-3.89-1.95 2 .67 2.76 2.62.78 1.95-2-.67-2.76-2.62-.78Zm-.73 3.8-.14-1.79 1.4-1.02 1.54.76.14 1.78-1.4 1.02-1.54-.76Z" fill="#fff"/><defs><linearGradient id="a" x1="3.35" y1="3.12" x2="21.9" y2="24.43" gradientUnits="userSpaceOnUse"><stop stop-color="#1A1E21"/><stop offset="1" stop-color="#06060A"/></linearGradient></defs></svg>