<!-- by TradingView --><svg width="18" height="18" viewBox="0 0 18 18" xmlns="http://www.w3.org/2000/svg"><path fill="#F0F3FA" d="M0 0h18v18H0z"/><path fill-rule="evenodd" d="M14 9c.16 4.22-2.18 6-4.85 6C6.48 15 4 13.24 4 9c0-3.31 2.96-6 5.15-6C10.93 3 14 5.69 14 9ZM8.91 3.33A4.6 4.6 0 0 0 5.2 6.3c-.27.6-.68 1.98-.23 2.82.09.08.31.23.47.21.17-.02.82-.35.99-.51h4.69c.1.17.48.51 1.09.51.76 0 1.02-.56 1.02-.76 0-.73-1.33-5.24-4.31-5.24ZM9 14.67c1.7 0 3.08-.82 3.08-1.84 0-1-1.38-1.83-3.08-1.83-1.7 0-3.08.82-3.08 1.83 0 1.02 1.38 1.84 3.08 1.84Zm-.4-5v.96h.21v-.34h.42a.3.3 0 0 0 .3-.31.3.3 0 0 0-.3-.31H8.6Zm.25.16v.3h.29c.08 0 .14-.07.14-.16a.15.15 0 0 0-.14-.14h-.3Zm-2.16.33.08.19.3-.11.3.76.25-.1-.33-.74.33-.15-.1-.22-.83.37Zm4.62-.07-.19.15a.32.32 0 0 0-.3-.15c-.11 0-.33.07-.33.34 0 .26.37.34.56.35v.2c-.44.03-.8-.2-.8-.55 0-.36.23-.56.56-.56.27 0 .44.15.5.22Z" fill="#FF0305"/><path d="M5.6 9.35c.28-.24.86-.79.96-1.03.13-.3.91-2.27 1.14-2.54.23-.27.81-.77 1.12-.79.09.03.26.04.23-.12-.04-.15-.1-.3-.13-.34l.53-.4.08.21.19-.09.1.28.13-.19v.28l.25-.1v.42l.2-.2c0 .09 0 .25.08.25.1 0 .34.03.54.32.2.28.42.32.53.4.1.07.42.17.42.49h-.75c-.02.05-.06.17-.12.2a.17.17 0 0 0-.08.15c-.08.24-.3.77-.54.9.12.3.38.9.54 1.08.2.21.36.6.81.82a.97.97 0 0 1-.67-.2c-.2-.18-.24-.13-.23-.08l-.13.28-.32-.2-.28.27-.25-.26-.42.26c0-.08 0-.22-.08-.15-.08.08-.58.23-.63.23-.06 0-.09-.21-.14-.15-.06.07-.18.15-.26.15-.06 0-.24-.1-.33-.15-.02.05-.09.15-.14.15-.05 0-.35.09-.5.13l-.21-.21c-.03.04-.12.12-.19.14-.07.01-.16-.13-.2-.2-.08.02-.26.09-.29.13v.01-.01c.01-.06.02-.29-.05-.22l-.29.29v-.34l-.61.13Z" fill="url(#aii0f3zna)"/><path d="M9.15 4.96c-.08-.02-.21.06-.27.1.08.03.23.1.27.14.05.04.17.1.4.13.22.04.17 0 .32-.03.15-.04.4 0 .38-.04l-.18-.1c-.12-.07-.2-.06-.39-.1-.17-.04-.3 0-.36 0s-.07-.07-.17-.1Z" fill="#791611"/><path d="M9.07 5.36c.1-.04.24.05.28.15-.07-.08-.4.15-.46.24-.07.1 0 .05.03.12.04.07-.03.07-.1.1l-.2.08c-.13.06-.1.05-.1.14 0 .09.07.13 0 .22-.05.1.06.1.1.2.05.1.14.13.34.24.2.11.1.15.1.18 0 .02.24.16.36.22-.03.04-.09.1-.15.08a.68.68 0 0 1-.31-.19L8.7 6.9c-.12-.09-.31-.17-.34-.22a2.1 2.1 0 0 0-.15-.23 1 1 0 0 1-.13-.19c-.02-.05.01-.13.08-.17.08-.04.22-.08.37-.16.15-.07.05-.09.1-.22.03-.14.21-.15.26-.2.05-.06.07-.12.18-.16Z" fill="#8D2B10"/><path d="M9.34 5.67c0-.12.17-.16.26-.17.2 0 .34.09.34.17 0 .06-.11.18-.17.24l.28-.06-.42.32-.41-.36.18.04c-.02-.01-.06-.07-.06-.18Z" fill="#330200"/><path d="M10.52 5.95c-.03 0-.03.1-.03.15.27-.14 1.17-.07 1.15-.15-.02-.07-.1-.1-.18-.14-.08-.04-.24.04-.43.05-.2 0-.2.1-.27.05s-.2.04-.24.04Z" fill="#FF5D3A"/><path d="M8.85 7.1a.7.7 0 0 1-.3-.2c.19.14.59 0 .72-.06.13-.05.13 0 .27-.06s.14-.12.2-.13c.07-.02.18 0 .26-.06.07-.05.2-.12.34-.33.14-.2.31-.23.49-.23h.3l-.09.11c.05.03.13.08.1.08s-.1.21-.14.32l-.05-.07-.12-.12v-.13l-.12-.08a.78.78 0 0 0-.15.12c-.04.06 0 .2 0 .28 0 .08-.06.22-.06.3 0 .08-.25.17-.3.18-.05.02-.2.02-.2.13 0 .1.3.24.46.3.12.28.38.88.44.97l.2.24c.07.1.23.24.28.3.05.05.17.29.12.29-.04 0-.13.05-.22 0s-.2-.1-.28-.16c-.08-.06-.07.06-.1.1-.03.04-.07.18-.15.14-.07-.03-.2-.15-.25-.18-.04-.02-.08-.14-.09-.2.06.04.18.1.24.1.07-.01.08-.06.1-.15.03-.09 0-.15-.1-.24-.1-.1.07-.15 0-.24-.07-.1-.1-.16-.19-.25-.08-.08-.05-.06-.05-.16s.04-.09.05-.17c.02-.1-.1-.08-.12-.17-.02-.09-.06-.05-.14-.13-.08-.07-.19-.18-.28-.21-.09-.03-.23-.03-.43-.06-.21-.04-.19-.07-.35-.12-.16-.05-.12 0-.3-.06Z" fill="#362420"/><path d="M10.82 5.66c.02-.05.21-.1.3-.1l.28.2c.07.02.1 0 .32.12.17.1.23.24.23.3l-.23-.04a.55.55 0 0 0-.1-.16.76.76 0 0 0-.22-.13 1.08 1.08 0 0 0-.37 0l-.12-.04c-.04-.03-.11-.1-.1-.15Z" fill="#832617"/><path fill="#FF0305" fill-opacity=".7" d="M7.28 11.78h3.49v1.09H7.28zM7.28 13.13h3.49v1.09H7.28z"/><defs><linearGradient id="aii0f3zna" x1="6.36" y1="9.92" x2="10.93" y2="5.81" gradientUnits="userSpaceOnUse"><stop stop-color="#FD742C"/><stop offset=".36" stop-color="#F93C1F"/><stop offset=".56" stop-color="#BE2011"/><stop offset=".79" stop-color="#A81D16"/><stop offset="1" stop-color="#FF1B1E"/></linearGradient></defs></svg>