<!-- by TradingView --><svg width="18" height="18" viewBox="0 0 18 18" xmlns="http://www.w3.org/2000/svg"><path fill="#F0F3FA" d="M0 0h18v18H0z"/><path d="m9.6 7.3-.26.9c-.07.17-.12.36-.15.55a15.26 15.26 0 0 0 .02 5.18.1.1 0 0 1-.02.03.1.1 0 0 1-.03.03l-.04.01h-1.8c-.03 0-.05 0-.07-.03a21.72 21.72 0 0 1-.07-1.78c.02-1.5.27-2.9.74-4.2l.46-1c.66-1.35 1.87-2.63 3.29-2.93.98-.2 2 .08 2.32 1.21v.1c-.01.06-.04.06-.06.01-.8-1.35-2.18-1.06-3.1-.08-.57.6-.98 1.27-1.23 2Z" fill="#E60012"/><path d="M8.38 6.98 7.92 8a10.2 10.2 0 0 1-3.9-1.88.11.11 0 0 1 0-.12l.81-.87c.07-.08.15-.08.23-.01 1 .84 2.1 1.47 3.32 1.87ZM9.34 8.2l.26-.9c1.17.22 2.2.1 3.1-.34.63-.31.82-.8.57-1.47-.07-.18-.03-.2.1-.09.33.27.43.65.3 1.13-.2.87-1.47 1.44-2.21 1.6-.7.13-1.4.16-2.12.07Z" fill="#BDCAD2"/></svg>