<!-- by TradingView --><svg width="18" height="18" viewBox="0 0 18 18" xmlns="http://www.w3.org/2000/svg"><path fill="#F0F3FA" d="M0 0h18v18H0z"/><path d="M8.29 12H6.87c.07-.14.13-.3.13-.46V6a.68.68 0 0 0 .58.11c.3-.07.58-.11.87-.11.36 0 .71.12 1.01.35.3.23.54.56.68.94.14.39.18.82.11 1.23-.07.41-.24.8-.5 1.09-.35.4-.81.62-1.3.62-.1 0-.14-.01-.23-.03v1.37c0 .16 0 .3.07.43Zm-.07-4.56v1.35c0 .12.11.12.18.12.19 0 .36-.09.5-.24.12-.14.2-.35.2-.56a.86.86 0 0 0-.2-.56.64.64 0 0 0-.5-.23c-.07 0-.18 0-.18.12Zm4.1 4.56h-1.44c.08-.14.12-.3.12-.46V6a.75.75 0 0 0 .6.11h.01c.26-.06.53-.1.8-.1.35 0 .69.11.97.33.28.2.5.5.62.85a2.05 2.05 0 0 1-.3 1.96c.24.17.46.4.64.66a3.11 3.11 0 0 1 .54 1.78v-.05c0 .17.04.32.12.46h-1.35a.93.93 0 0 0 .07-.35v-.1c-.04-.44-.2-.86-.47-1.18a1.6 1.6 0 0 0-1-.59h-.03v1.76c0 .16.02.32.1.46Zm-.1-4.58v1.01c0 .15.2.12.28.1a.5.5 0 0 0 .2-.1.6.6 0 0 0 .15-.2.68.68 0 0 0 .04-.5.64.64 0 0 0-.11-.21.54.54 0 0 0-.18-.15.48.48 0 0 0-.22-.05c-.07 0-.16 0-.16.1ZM4 11.53c0 .17-.03.33-.11.47h1.66l-.12-.16c-.1-.1-.19-.2-.19-.3v-4.2h.66a.7.7 0 0 1 .4.13V6H3v1.47a.7.7 0 0 1 .41-.14H4v4.2Z" fill="#CF0908"/></svg>