<!-- by TradingView --><svg width="18" height="18" viewBox="0 0 18 18" fill="none" xmlns="http://www.w3.org/2000/svg">
<rect width="18" height="18" fill="#F0F3FA"/>
<path d="M8.23789 8L8.9096 5.46195L8.15618 5L5.21202 5.46195L4.50488 8.00985L5.43989 9.51927L5.99505 10H7.67981L6.90949 8H8.23789Z" fill="#1C6273"/>
<path d="M8.15626 5H4.62055L4 7.2675L5.36266 9.41176H7.08834L6.15029 7.64706H7.43469L8.15626 5Z" fill="#DEA252"/>
<path d="M13.3249 8L13.9994 5.46195L13.246 5L10.3019 5.46195L9.59473 8.00985L10.5297 9.51927L11.0849 10H12.7697L11.9965 8H13.3249Z" fill="#1C6273"/>
<path d="M13.2461 5H9.71039L9.08984 7.2675L10.4525 9.41176H12.1782L11.2401 7.64706H12.5245L13.2461 5Z" fill="#DEA252"/>
<path d="M10.6597 14H7.06716L6.45605 13.3871L9.41899 10.5323L9.19677 9L9.82639 9.3871L11.2338 11.629L10.6597 14Z" fill="#1C6273"/>
<path d="M9.21528 9H7.62271L8.60969 10.9996H7.12823L6.45605 13.4118H9.95602L10.5671 11.0932L9.21528 9Z" fill="#DEA252"/>
</svg>
