<!-- by TradingView --><svg width="18" height="18" viewBox="0 0 18 18" xmlns="http://www.w3.org/2000/svg"><path fill="#F0F3FA" d="M0 0h18v18H0z"/><path d="M3.05 9.13a.13.13 0 0 1 .02-.21l1.64-.97c.1-.04.1-.1.03-.18a4.26 4.26 0 0 1-.97-1.62.13.13 0 0 1 .01-.12.13.13 0 0 1 .1-.07 4.28 4.28 0 0 1 1.92.02c.12.03.17-.02.14-.14a4.47 4.47 0 0 1-.05-1.92c.01-.04.03-.07.06-.1a.11.11 0 0 1 .1 0 4.1 4.1 0 0 1 1.73 1.02.08.08 0 0 0 .13-.04c.17-.63.48-1.21.93-1.75A.14.14 0 0 1 8.95 3c.04 0 .08.01.1.05.46.49.78 1.06.95 1.7.03.11.09.13.17.05.48-.46 1.04-.8 1.68-1.01.1-.04.16 0 .18.1.14.69.12 1.34-.04 1.97-.02.1.01.14.12.1.66-.17 1.31-.18 1.97-.04.1.02.12.07.1.16-.2.65-.53 1.21-1 1.69-.08.08-.07.14.05.17.66.18 1.23.5 1.71.94.08.07.08.14 0 .2-.54.47-1.1.78-1.7.94-.12.02-.14.08-.05.17a4.2 4.2 0 0 1 1.01 1.68c.03.09 0 .14-.1.16-.67.16-1.34.14-2-.04-.03 0-.05 0-.07.02a.07.07 0 0 0-.02.06c.18.68.2 1.35.07 2-.02.1-.08.13-.17.1a3.9 3.9 0 0 1-1.7-.98c-.08-.09-.13-.07-.16.04-.16.6-.46 1.17-.9 1.7-.1.1-.18.1-.27 0a4.33 4.33 0 0 1-.91-1.67c-.04-.12-.1-.13-.19-.05-.46.45-1.01.79-1.65 1a.15.15 0 0 1-.12-.01.16.16 0 0 1-.08-.1 4.4 4.4 0 0 1 .05-1.94.1.1 0 0 0-.03-.1.1.1 0 0 0-.1-.02c-.64.16-1.29.18-1.93.05a.15.15 0 0 1-.1-.08.16.16 0 0 1-.02-.13c.24-.66.56-1.2.96-1.62.08-.08.07-.14-.04-.18a5.35 5.35 0 0 1-1.67-.95Zm6.98 1.57a4.4 4.4 0 0 0 1.68 1.18c.06.02.1 0 .15-.03a.12.12 0 0 0 .03-.15 4.77 4.77 0 0 0-1.18-1.66c-.12-.1-.1-.14.05-.09.57.2 1.2.27 1.9.2.3-.03.33-.14.08-.33a4.32 4.32 0 0 0-1.72-.77c-.19-.04-.19-.08 0-.12a3.98 3.98 0 0 0 1.8-.85c.13-.11.11-.18-.05-.22a3.77 3.77 0 0 0-2 .17c-.18.05-.2.02-.07-.1.26-.24.5-.5.7-.78.23-.33.38-.64.44-.92a.1.1 0 0 0-.03-.1.1.1 0 0 0-.11-.03c-.63.23-1.2.62-1.68 1.18-.12.14-.15.12-.09-.05.2-.59.27-1.24.18-1.98 0-.05-.03-.1-.08-.12-.08-.05-.15-.04-.2.04-.41.55-.68 1.16-.81 1.82-.04.17-.07.17-.1 0a4.25 4.25 0 0 0-.86-1.83.12.12 0 0 0-.14-.05.13.13 0 0 0-.1.11c-.11.65-.04 1.32.2 2.02.06.16.03.18-.08.05a4.1 4.1 0 0 0-1.72-1.17.1.1 0 0 0-.12.03c-.03.03-.04.08-.02.12.25.64.63 1.19 1.15 1.64.16.15.14.19-.07.12a4.2 4.2 0 0 0-2-.15.1.1 0 0 0-.09.08.1.1 0 0 0 .04.13c.55.43 1.14.71 1.8.84.23.05.23.1 0 .15a4.1 4.1 0 0 0-1.78.86c-.04.03-.06.07-.04.12a.1.1 0 0 0 .09.09 4.3 4.3 0 0 0 2.13-.2c.02-.01.04 0 .04.01.02.02.01.04 0 .05a4.02 4.02 0 0 0-1.22 1.72c-.02.05-.01.09.03.13.03.04.08.05.13.03.59-.2 1.16-.6 1.71-1.22.07-.09.1-.07.06.03-.2.6-.28 1.23-.22 1.87.04.4.18.44.41.1.35-.49.58-1.04.7-1.67.03-.16.07-.16.1 0 .17.74.46 1.36.88 1.85.03.05.08.06.14.05a.13.13 0 0 0 .1-.12c.08-.7.01-1.37-.22-2.03-.05-.15-.02-.17.08-.05Z" fill="#A6629A"/><path d="M9.95 10.75c.23.66.3 1.34.21 2.03 0 .06-.04.1-.1.12-.05.01-.1 0-.13-.05-.42-.49-.71-1.1-.88-1.85-.03-.16-.07-.16-.1 0a4.32 4.32 0 0 1-.7 1.68c-.23.33-.37.3-.4-.11-.07-.64 0-1.26.2-1.87.04-.1.02-.12-.05-.03a4.12 4.12 0 0 1-1.71 1.22c-.05.02-.1 0-.13-.03a.12.12 0 0 1-.03-.13c.26-.69.66-1.26 1.22-1.72.01-.01.02-.03 0-.05 0-.02-.02-.02-.04-.02a4.3 4.3 0 0 1-2.13.2.1.1 0 0 1-.1-.08c0-.05 0-.09.05-.12a4.1 4.1 0 0 1 1.77-.86c.24-.05.24-.1 0-.15a4.24 4.24 0 0 1-1.79-.84.1.1 0 0 1-.04-.13.1.1 0 0 1 .1-.08 4.2 4.2 0 0 1 2 .15c.2.07.22.03.06-.12-.52-.45-.9-1-1.15-1.64-.02-.04-.01-.09.02-.12a.1.1 0 0 1 .12-.03A4.1 4.1 0 0 1 7.94 7.3c.1.13.14.11.08-.05a4.02 4.02 0 0 1-.2-2.02c.01-.06.04-.1.1-.11.06-.02.1 0 .14.05.44.54.72 1.16.86 1.83.03.17.06.17.1 0 .13-.66.4-1.27.8-1.82.06-.08.13-.1.21-.04.05.03.07.07.08.12.09.74.03 1.4-.18 1.98-.06.17-.03.2.09.05A4.08 4.08 0 0 1 11.7 6.1a.1.1 0 0 1 .1.02.1.1 0 0 1 .04.1c-.06.29-.2.6-.44.93-.2.28-.44.54-.7.78-.13.12-.11.15.06.1.76-.25 1.43-.3 2-.17.17.04.19.1.06.22-.52.43-1.12.72-1.8.85-.19.04-.19.08 0 .12.67.14 1.24.4 1.72.77.25.19.22.3-.09.33-.69.07-1.32 0-1.9-.2-.14-.05-.16-.02-.04.09.56.53.95 1.09 1.18 1.66.02.06.01.1-.03.15a.13.13 0 0 1-.15.03 4.4 4.4 0 0 1-1.68-1.18c-.1-.12-.13-.1-.08.05Zm-.29-2.32c.03-.1 0-.14-.11-.13-.38.05-.75.05-1.13 0-.1-.01-.13.03-.1.13.1.38.1.75 0 1.12-.02.06 0 .1.07.1h1.2c.03 0 .05-.01.06-.04a.08.08 0 0 0 .02-.07 2 2 0 0 1 0-1.1Z" fill="#762163"/></svg>