<!-- by TradingView --><svg width="18" height="18" viewBox="0 0 18 18" xmlns="http://www.w3.org/2000/svg"><path fill="#007658" d="M0 0h18v18H0z"/><path d="M10.84 5.08a1.82 1.82 0 0 1 1.2.05.03.03 0 0 1 0 .03v.01c-.03.02-.06.02-.1.01-.35-.09-.72-.06-1.1.07a.15.15 0 0 1-.08 0 2.06 2.06 0 0 0-.69-.06.02.02 0 0 1 0-.03c0-.02.02-.03.04-.03l.29-.01c.14 0 .28 0 .44-.04ZM10.76 5.46a2.87 2.87 0 0 0 1.83-.39l.02.01a.03.03 0 0 1 0 .04 2.8 2.8 0 0 1-1.8.94c-.04 0-.07 0-.09-.04a.52.52 0 0 1-.02-.52.06.06 0 0 1 .06-.04ZM8.51 5.49a2.62 2.62 0 0 1-1.69-.3h-.01a.03.03 0 0 0 0 .03 2.62 2.62 0 0 0 1.7.88l.02-.03a.06.06 0 0 0 0-.05.44.44 0 0 1 .01-.49c.03-.03.02-.05-.03-.04ZM10.49 5.42l.02.02v.04h-.03a9.01 9.01 0 0 0-1.74 0v-.02l.02-.01c.57-.2 1.15-.2 1.73-.03ZM4.74 11.61C0 9.66 3.28 6.15 6.3 5.46c.03 0 .05-.02.06-.04 0-.02 0-.03-.03-.03-1.37.26-3.3 1.04-4.04 2.36-1.03 1.86.99 3.42 2.46 3.93l.02-.01v-.05h-.02ZM13.4 6.7c.36.2.62.55.74.95 0 0 0 .02-.02.03-.02 0-.03 0-.04-.02a1.3 1.3 0 0 0-.96-.85c-.03-.01-.05-.03-.05-.07a1.76 1.76 0 0 0-.54-1.21.03.03 0 0 1 .01-.03h.01a.03.03 0 0 1 .03 0c.41.26.67.64.76 1.13a.11.11 0 0 0 .06.08Z" fill="#fff"/><path d="M15.61 9.96c1.24-1.83-.75-3.47-2.2-4.03l-.02.03V6l.02.02c1 .4 2.07 1.1 2.18 2.27.11 1.19-.77 2.19-1.67 2.76a8.35 8.35 0 0 1-4.4 1.35.04.04 0 0 0 0 .04c.01.03.05.05.1.04 1.94-.11 4.79-.74 5.99-2.5ZM12.34 6.4c-.2-.18-.44-.29-.7-.32h-.02a.03.03 0 0 1 0-.04h.01c.38-.07.52.03.76.18l.18.12c.03.01.04.04.01.07a1.57 1.57 0 0 1-.73.46h-.02v-.04c0-.02 0-.03.02-.03.2-.07.36-.17.5-.33.02-.02.02-.05 0-.07ZM8.55 6.51c-.02.02-.16-.04-.33-.15-.17-.11-.3-.22-.28-.24.02-.03.17.04.33.15.17.11.3.22.28.24ZM8.93 6.16c.5.1.93.1 1.55-.07.02 0 .04 0 .04.03l-.01.03a26.8 26.8 0 0 0-.98.4H9.5l-.59-.32s-.02 0-.02-.02V6.2c0-.01 0-.02.02-.02h.02Z" fill="#fff"/><path d="M9.14 7.77c.06-.11.05-.2-.05-.24a.9.9 0 0 1-.34-.3.1.1 0 0 1-.01-.1l.2-.66c.02-.03.01-.05-.01-.07l-.28-.22a.03.03 0 0 0-.04 0l-.01.02v.02l.15.37c.02.02.01.05 0 .07l-.28.54a.11.11 0 0 0 .04.15l.43.25A.1.1 0 0 1 9 7.7c0 .5.12.98.35 1.43.01.03 0 .06-.01.1l-.14.2a.08.08 0 0 0 0 .08l.17.37.02.03a.05.05 0 0 0 .06-.02l.02-.03v-.08a.2.2 0 0 0-.02-.1c-.12-.21-.07-.37.16-.46a.05.05 0 0 0 .03-.03.05.05 0 0 0-.01-.04 2.9 2.9 0 0 1-.49-1.3l.01-.07ZM11.25 7.2a.41.41 0 0 1 .23-.02c.07 0 .07.03 0 .06l-.3.16a.1.1 0 0 0-.05.1c0 .04.02.08.06.12.02.02.04.05.05.09 0 .03 0 .07-.02.1a.14.14 0 0 1-.07.06.14.14 0 0 1-.1 0 .42.42 0 0 0-.3 0c-.02 0-.03 0-.04-.03-.02-.15.13-.39.25-.6a3.83 3.83 0 0 0 .14-.22h.01v.01l.06.13c0 .02.02.03.03.04h.05ZM6.06 7.85l-.08-.08c-.76-.74-1.9-.25-2.66.3-.02.02-.02.03 0 .04l.05-.01c1.04-.58 1.94-.76 2.93.08l.02.01h.02v-.04a1.25 1.25 0 0 0-.28-.3ZM12.2 9.04l.04.02.01.01.01.02a.03.03 0 0 1-.02.03l-.66.27a.06.06 0 0 1-.07-.02l-.2-.21c-.04-.03-.04-.06 0-.08l.69-.26a.12.12 0 0 0 .06-.06 3.99 3.99 0 0 0 .36-1.15.11.11 0 0 1 .04-.04l.16-.08c.04-.02.06 0 .05.04a4.2 4.2 0 0 1-.5 1.43c-.02.04-.02.06.02.08ZM9.12 10.51a.55.55 0 0 0-.4-.29.04.04 0 0 1-.03-.04l.03-.39a.1.1 0 0 0-.05-.1l-1.12-.77a.13.13 0 0 1-.06-.07c-.05-.19-.1-.35-.23-.48-.34-.3-.99-.12-.96.42 0 .07.01.07.04 0 .16-.35.4-.61.74-.21a.1.1 0 0 1 .02.05c.01.17.09.26.24.3.03 0 .06.02.08.04l.8.89.04.02h.05c.16-.05.27 0 .33.14.01.04 0 .07-.02.1l-.3.26h-.05l-.44-.32c-.04-.03-.07-.02-.1.03a.19.19 0 0 1-.16.12l-.02.01v.04l.02.01c.08.02.16.01.22-.01a.07.07 0 0 1 .09.02.08.08 0 0 1 0 .1c-.03.04-.03.08 0 .11 0 .02.02.02.04.02h.03a.23.23 0 0 1 .26-.04.1.1 0 0 0 .1 0c.36-.2.77.25.98.56.02.02.02.05.01.08l-.13.37-.03.03a5.88 5.88 0 0 1-.15 0c-.22-.04-.6-.1-.72-.02-.04.02-.04.03 0 .04.29.03.53.15.73.36l.03.02h.04c.1-.06.22-.06.34-.02a.04.04 0 0 0 .03 0l.02-.02v-.02l.03-.16c.02-.2.04-.4.21-.54a.1.1 0 0 0 .04-.08c0-.06-.03-.1-.09-.11a.13.13 0 0 1-.06-.06.8.8 0 0 0-.39-.32.16.16 0 0 1-.08-.07Z" fill="#fff"/><path d="m7.76 8.74-.13.05h-.02l-.02-.01-.01-.03v-.02c.1-.15.23-.22.4-.22a.06.06 0 0 1 .04.02.06.06 0 0 1 .02.05l-.05.37-.01.02-.02.01h-.03l-.01-.02-.05-.17a.08.08 0 0 0-.04-.04.08.08 0 0 0-.07 0ZM6.94 8.68v-.02l-.17-.11a.02.02 0 0 0-.02 0 .02.02 0 0 0-.01 0v.02a2.58 2.58 0 0 0-.2.36.54.54 0 0 0-.04.13l.01.06c.03.02.09-.01.17-.09.08-.08.17-.2.25-.32l.01-.01v-.02ZM11.1 9.86a.97.97 0 0 1-.49.41c-.02.02-.04.01-.06 0-.03-.02-.03-.04 0-.05.3-.12.46-.35.47-.68 0-.04.02-.07.04-.09.05-.05.08-.1.1-.18v-.02l.02-.01a.04.04 0 0 1 .03 0l.18.21c.02.02.03.05.03.08 0 .18-.08.28-.26.28a.08.08 0 0 0-.07.05ZM10.08 9.56c.02.15.04.31-.12.37-.06.02-.12 0-.18-.01-.1-.03-.18-.06-.28.1-.02.03-.01.06.01.07.37.28.73.28 1.08-.01.03-.03.03-.05 0-.06-.03-.01-.09.01-.15.04a.64.64 0 0 1-.24.07h-.03a.06.06 0 0 1-.03-.05v-.03l.14-.32v-.05l-.17-.22c-.03-.04-.04-.04-.04.02l.01.08ZM5.48 11.22c-.15.42-.09.7-.01 1.07l.05.29c.01.06 0 .07-.04.02-.28-.4-.38-.85-.3-1.34.02-.03.01-.06 0-.1l-.23-.45a.08.08 0 0 1 0-.07l.42-1.04.01-.01h.02l.01.02-.23.78a.1.1 0 0 0 0 .07l.3.67c.01.02.02.05 0 .09ZM7.29 10.53l-.02-.02c-.05-.04-.06-.03-.03.02.07.16.2.24.36.26l.05-.01.02-.03c.02-.04 0-.06-.03-.06-.18 0-.23-.05-.35-.16ZM7.42 12.28l.62-.69c.02 0 .02.01.03.02l-.6 1c-.04.04-.05.04-.06-.02l-.02-.22.03-.09ZM5.7 12.06c0 .3-.02.76.19.84a.03.03 0 0 0 .03 0 .03.03 0 0 0 0-.04.56.56 0 0 1 .06-.64.08.08 0 0 0 0-.1l-.2-.26-.03-.01a.04.04 0 0 0-.04.01V12.06ZM8.7 12.22c.03 0 .05.02.07.04l.02.07c0 .14-.08.2-.24.18-.07 0-.13-.03-.2-.06a.5.5 0 0 0-.27-.05c-.38.05-.43-.04-.14-.26.12-.1.23-.17.35-.24.03-.02.05-.01.06.02.07.16.18.26.35.3ZM7.28 12.02l-.3.28a.09.09 0 0 0-.03.05.1.1 0 0 0 0 .05l.18.38.02.02a.03.03 0 0 0 .04-.01v-.03a.94.94 0 0 1 .14-.7.03.03 0 0 0 0-.04h-.05ZM6.59 12.38l.32-.29a.03.03 0 0 1 .04 0l.01.03v.02c-.16.2-.2.43-.14.68v.03l-.02.02h-.03l-.02-.03-.18-.37c-.02-.03-.01-.06.02-.09ZM6.38 12.82c0-.23 0-.34.14-.58a.04.04 0 0 0 0-.05.03.03 0 0 0-.05 0l-.32.3c-.02.02-.02.04-.01.07l.2.4c.02.06.04.05.04-.01v-.13Z" fill="#fff"/></svg>