<!-- by TradingView --><svg width="18" height="18" viewBox="0 0 18 18" xmlns="http://www.w3.org/2000/svg"><path fill="#00A88F" d="M0 0h18v18H0z"/><path d="M9.67 5.82a2.83 2.83 0 0 1 4 4L9.8 13.66c-.44.44-.92.44-1.36 0l4.65-4.65c.32-.32.5-.75.5-1.2 0-1-.96-1.82-1.84-1.82-.46 0-.96.12-1.29.44l-3.1 2.87-1.43-1.1a.56.56 0 0 1 0-.79.57.57 0 0 1 .8 0L7.4 8l2.27-2.18Zm-5.34 0A2.83 2.83 0 0 1 8.2 5.7l-.85.67c-.3-.24-.7-.36-1.1-.37a1.9 1.9 0 0 0-1.38.5c-.33.32-.45.89-.45 1.32 0 .43.16.87.5 1.2l2.47 2.75 3.88-4.35a.57.57 0 0 1 .8 0c.22.22.22.58 0 .8L7.39 13 4.33 9.81a2.8 2.8 0 0 1 0-3.99Z" fill="#F0F3FA"/></svg>