<!-- by TradingView --><svg width="18" height="18" viewBox="0 0 18 18" xmlns="http://www.w3.org/2000/svg"><path fill="#36515A" d="M0 0h18v18H0z"/><path d="M9.5 14a3.88 3.88 0 0 0 3.5-3.75c0-.42-.08-.83-.22-1.24H9.5V14Zm-1 0A3.88 3.88 0 0 1 5 10.25c0-.42.08-.83.22-1.24H8.5V14ZM5.68 8.01h6.64c-.39-.67-.89-1.32-1.4-1.97C10.18 5.07 9.42 4.08 9 3a12.61 12.61 0 0 1-1.92 3.04c-.51.65-1.01 1.3-1.4 1.97Z" fill="url(#aioe1gv3d)"/><defs><linearGradient id="aioe1gv3d" x1="9" y1="4" x2="9" y2="14.03" gradientUnits="userSpaceOnUse"><stop stop-color="#0D9D46"/><stop offset="1" stop-color="#B5CD21"/></linearGradient></defs></svg>