<!-- by TradingView --><svg width="18" height="18" viewBox="0 0 18 18" xmlns="http://www.w3.org/2000/svg"><path fill="#F0F3FA" d="M0 0h18v18H0z"/><path d="m8.98 3 .02.01a435.86 435.86 0 0 1 1.3 2.14 3499.98 3499.98 0 0 1-.03 4.19 481.32 481.32 0 0 1-1.29 2.07l-.02-.01a477.3 477.3 0 0 1-1.3-2.14 110699.23 110699.23 0 0 1 0-4.1l.03-.09A399.88 399.88 0 0 1 8.99 3Z" fill="#ED1D24"/><path d="m7.02 9.4 1.26 1.96c.03.06.02.07-.03.03l-3.07-2.2c-.02 0-.03-.02-.01-.04l1.78-2.88C7 6.22 7 6.22 7 6.3v3.05l.02.06ZM11 9.47V6.3c0-.07.02-.07.05-.02l1.79 2.88c.01.02 0 .03-.01.05l-3.07 2.19c-.06.04-.07.03-.03-.03l1.25-1.96c.02-.02.02.1.02.07Z" fill="#ED1D24"/><path d="M9 12.24c.07 0 .16-.03.28-.09l3.22-1.64c.28-.15.49-.22.63-.23.35-.02.63.13.86.45.02.02.01.03 0 .05l-4.62 3.11c-.11.07-.23.11-.37.11a.64.64 0 0 1-.36-.1l-4.62-3.12c-.02-.01-.03-.03-.01-.05.23-.31.51-.46.86-.45.14.01.35.09.63.23l3.22 1.64c.12.06.21.1.28.1Z" fill="#1D5732"/></svg>