<!-- by TradingView --><svg width="18" height="18" viewBox="0 0 18 18" xmlns="http://www.w3.org/2000/svg"><path fill="#F0F3FA" d="M0 0h18v18H0z"/><path d="M6.5 5H5v2.5h8V5h-1.5v1.5h-5V5Z" fill="#3B3B3B"/><path d="M6.5 8H5v3.86L6.5 13V8ZM11.5 8H13v3.86L11.5 13V8Z" fill="#545454"/><path d="M8 10H7v3.29L8 14v-1l.5-.5L8 12v-2ZM10 10h1v3.29L10 14v-1l-.5-.5.5-.5v-2ZM8.5 14.43v-.86L9 13l.5.57v.86L9 15l-.5-.57Z" fill="#5F5F5F"/><path d="M11 8H7v1h1.5v2.5h1V9H11V8Z" fill="#3840BF"/><path d="M9.79 5h-1.5v1.5h1.5V5Z" fill="#205036"/></svg>