<!-- by TradingView --><svg width="18" height="18" viewBox="0 0 18 18" xmlns="http://www.w3.org/2000/svg"><path fill="#A2007A" d="M0 0h18v18H0z"/><path d="M9.5 5a1 1 0 1 0 0-2 1 1 0 0 0 0 2Zm.87.75a.8.8 0 1 1 .76 1.4.8.8 0 0 1-.76-1.4Zm2.88 3a.85.85 0 1 1 .8 1.5.85.85 0 0 1-.8-1.5Zm-.48-1.98a.85.85 0 1 0-.33 1.66.85.85 0 0 0 .33-1.66Zm-1.81 6.2a.9.9 0 1 1 1.69.62.9.9 0 0 1-1.7-.62Zm1.93-2.2a.85.85 0 1 0 .71 1.55.85.85 0 0 0-.71-1.54ZM7.8 5a1 1 0 1 1-2 0 1 1 0 0 1 2 0ZM5 8a1 1 0 1 0 0-2 1 1 0 0 0 0 2Zm.5 1.5a1 1 0 1 1-2 0 1 1 0 0 1 2 0Zm-.28 3.37a1 1 0 1 0 0-2 1 1 0 0 0 0 2ZM8 13.6a1 1 0 1 1-2 0 1 1 0 0 1 2 0ZM9.58 15a1 1 0 1 0 0-2 1 1 0 0 0 0 2Zm2.17-5.3a.7.7 0 1 1-1.4 0 .7.7 0 0 1 1.4 0Zm-1.55 2.1a.7.7 0 1 0 0-1.4.7.7 0 0 0 0 1.4Zm-.92-.5a.7.7 0 1 1-1.4 0 .7.7 0 0 1 1.4 0Zm-1.98-.6a.7.7 0 1 0 0-1.4.7.7 0 0 0 0 1.4Zm.8-2.6a.75.75 0 1 1-1.5 0 .75.75 0 0 1 1.5 0Zm.65-.6a.75.75 0 1 0 0-1.5.75.75 0 0 0 0 1.5Z" fill="#fff"/></svg>