<!-- by TradingView --><svg width="18" height="18" viewBox="0 0 18 18" xmlns="http://www.w3.org/2000/svg"><path fill="#F0F3FA" d="M0 0h18v18H0z"/><path fill-rule="evenodd" d="m6.18 11.9.94-5.82c0-.04.04-.08.09-.08h4.53c.05 0 .1.05.08.1l-.76 4.5c0 .04-.04.07-.08.07h-2.3a.09.09 0 0 0-.07.07l-.1.5c0 .05.04.1.1.1h2.2c.05 0 .09.03.08.08l-.08.5c-.01.04-.05.08-.09.08H7.7c-.05 0-.1-.06-.08-.1l.34-1.83c.01-.04.05-.07.09-.07h2.27c.04 0 .07-.03.08-.07l.08-.49c.01-.05-.03-.1-.08-.1H7.4c-.04 0-.07.03-.08.07l-.37 2.51c-.01.04-.05.08-.09.08h-.6c-.05 0-.09-.05-.08-.1Zm4.42-3.25H7.56a.09.09 0 0 1-.08-.1l.34-1.95c0-.04.04-.07.08-.07h3.05c.05 0 .1.05.08.1l-.11.54c-.01.04-.05.07-.09.07H8.48a.09.09 0 0 0-.08.07l-.09.52c0 .06.03.11.09.11h2.28c.06 0 .1.04.09.1l-.09.53c0 .05-.04.08-.08.08Z" fill="#0266BC"/><path d="M3.75 11.89a.56.56 0 0 1-.04-.43.6.6 0 0 1 .57-.42h.05c.26 0 .49.15.62.37a4.63 4.63 0 0 0 4.02 2.32 4.71 4.71 0 0 0 4.65-3.87h1.3a6 6 0 0 1-11.17 2.03Z" fill="url(#a)"/><path d="M14.1 12.03a.57.57 0 0 1-.36.25.6.6 0 0 1-.66-.28l-.02-.04a.71.71 0 0 1 .01-.72c.81-1.39.9-3.12.04-4.61a4.74 4.74 0 0 0-5.7-2.08l-.65-1.12A6.03 6.03 0 0 1 14.22 6a5.83 5.83 0 0 1-.13 6.03Z" fill="url(#b)"/><path d="M9.15 3.04a.59.59 0 0 1 .48.88l-.03.05a.72.72 0 0 1-.63.34 4.64 4.64 0 0 0-3.01 8.22l-.66 1.11a5.93 5.93 0 0 1 3.85-10.6Z" fill="url(#c)"/><defs><linearGradient id="a" x1="10.15" y1="14.02" x2="12.19" y2="10.72" gradientUnits="userSpaceOnUse"><stop stop-color="#0085C9"/><stop offset="1" stop-color="#4B96CF" stop-opacity="0"/></linearGradient><linearGradient id="b" x1="12.78" y1="5.46" x2="8.87" y2="5.32" gradientUnits="userSpaceOnUse"><stop stop-color="#00A669"/><stop offset="1" stop-color="#05A46A" stop-opacity="0"/></linearGradient><linearGradient id="c" x1="4.07" y1="7.46" x2="5.88" y2="10.9" gradientUnits="userSpaceOnUse"><stop stop-color="#5AC3D8"/><stop offset="1" stop-color="#59C5D8" stop-opacity="0"/></linearGradient></defs></svg>