<!-- by TradingView --><svg width="18" height="18" viewBox="0 0 18 18" xmlns="http://www.w3.org/2000/svg"><path fill="#F0F3FA" d="M0 0h18v18H0z"/><path d="M7 4.5 5 4v2l2-1.5Z" fill="#FABE00"/><path d="M7 5 5.5 6l1.5.67V5Z" fill="url(#a)"/><path d="M8 6.38V4.67l1 .46V7l-1-.62Z" fill="url(#b)"/><path d="M9 7.67 8 7v6.5c.63.33 1.48.5 2.56.5 1.72.01 3.44-.41 3.44-1.6 0-1.61-1.39-2.5-2.5-2.9.66.28 1.06.82.94 2.17-.12 1.34-.78 1.64-1.44 1.64V7.64l2 .86v-2l-3-1.26V13c0 .07-.31.3-.5.3-.16 0-.5-.13-.5-.2V7.66Z" fill="url(#c)"/><path d="M4 10.33c.12 1.62 2.6 2.84 4 3.17l.06-.33c-2.9-.8-3.9-2.78-3.9-3.62-.13.4-.16.45-.16.78Z" fill="url(#d)"/><path d="M4.15 9.54C4.64 8.47 6.32 8.4 7.13 8.5c-1.07 0-2.35.66-2.5 1.5-.13.67.94 1.83 1.25 2.17a2.72 2.72 0 0 1-1.73-2.63Z" fill="#C3D700"/><defs><linearGradient id="a" x1="6.26" y1="5.61" x2="6.98" y2="6.76" gradientUnits="userSpaceOnUse"><stop stop-color="#BECD16"/><stop offset="1" stop-color="#A0C101"/></linearGradient><linearGradient id="b" x1="7.88" y1="4.82" x2="9.35" y2="6.54" gradientUnits="userSpaceOnUse"><stop stop-color="#ED748E"/><stop offset="1" stop-color="#E83D68"/></linearGradient><linearGradient id="c" x1="10.82" y1="5.34" x2="10.82" y2="14" gradientUnits="userSpaceOnUse"><stop stop-color="#EE7300"/><stop offset=".61" stop-color="#E8440A"/><stop offset="1" stop-color="#EA5803"/></linearGradient><linearGradient id="d" x1="4.15" y1="10.22" x2="7.9" y2="12.86" gradientUnits="userSpaceOnUse"><stop stop-color="#FFDF00"/><stop offset="1" stop-color="#EA5405"/></linearGradient></defs></svg>