<!-- by TradingView --><svg width="18" height="18" viewBox="0 0 18 18" xmlns="http://www.w3.org/2000/svg"><path d="M0 9a9 9 0 1 1 18 0A9 9 0 1 1 0 9Z" fill="url(#aoyzbbp2s)"/><path d="M6.62 5.82a17.43 17.43 0 0 0-4.5-.23.13.13 0 0 0-.06.24 9.9 9.9 0 0 1 2.71 2.84c.1.15.36.14.44-.02a8.97 8.97 0 0 1 1.6-2.09c.25-.25.17-.65-.19-.74Z" fill="#00813E"/><path d="M6.42 7.27A7.18 7.18 0 0 1 10.38 5c.14-.03.24 0 .25.08 0 .06-.16.16-.25.2-3.32 1.46-3.73 4.9-3.76 5.71-.02.81-.31 1.25-.97 1.23-.65-.03-.95-.49-.9-1.06.04-.58.21-2.09 1.67-3.9Z" fill="#0072D2"/><path d="M8.28 7.08a5.77 5.77 0 0 1 2.93-1.9c.14-.03.24 0 .25.07 0 .06-.17.16-.25.2-3.27 1.73-2.64 5.32-2.53 6.13.13.97-.09 1.31-.74 1.38-.65.07-.98-.51-.98-1.08 0-.7-.14-2.98 1.32-4.8Z" fill="#853CC2"/><path d="M8.9 8.93c.25-2 1.87-3.12 2.64-3.42.09-.04.2-.06.25.02.06.1-.07.19-.14.23-2.2 1.7-1.52 4.49-.9 5.67.22.42.48 1.1-.2 1.44a.95.95 0 0 1-1.28-.3c-.23-.38-.64-1.64-.38-3.64Z" fill="#FF2C3B"/><path d="M14.8 11.23 12.16 7.2a.8.8 0 0 0-.71-.38c-1.1.24-1.11 1.84-1.02 2.75.1 1.04.83 3.13 2.84 3.09 2.02-.05 1.87-.97 1.55-1.43Z" fill="#FFC501"/><defs><linearGradient id="aoyzbbp2s" x1="5.36" y1="1.54" x2="11.75" y2="18" gradientUnits="userSpaceOnUse"><stop stop-color="#00C0EF"/><stop offset=".42" stop-color="#01A6E0"/><stop offset="1" stop-color="#36128E"/></linearGradient></defs></svg>