<!-- by TradingView --><svg width="18" height="18" viewBox="0 0 18 18" xmlns="http://www.w3.org/2000/svg"><path fill="#214FBF" d="M0 0h18v18H0z"/><path d="M7.75 10.18c-.04.05-.03.07.03.07h1.17c.03 0 .05.02.05.06v.63c0 .03-.03.06-.05.06H6.7c-.02 0-.03-.02-.03-.05v-.58c0-.05 0-.09.03-.12L7.9 8.87c.06-.08.04-.12-.04-.12H6.62l-.04.01a.08.08 0 0 0-.02.04l-.75 2.12c0 .03-.02.04-.03.06a.09.09 0 0 1-.06.02h-.4a.1.1 0 0 1-.06-.03.14.14 0 0 1-.04-.06l-.74-2.1c-.02-.04-.04-.06-.08-.06h-.76c-.02 0-.03 0-.04.02a.08.08 0 0 0-.02.05v2.11c0 .04-.02.07-.04.07h-.62c-.03 0-.04-.03-.04-.07V8.8l-.03-.04a.05.05 0 0 0-.03-.02h-.69c-.1 0-.14-.1-.13-.22v-.3c0-.13.13-.23.22-.23h2.46c.08 0 .15.03.22.08.06.05.11.13.14.21l.43 1.32c.03.09.06.1.09 0l.43-1.31a.47.47 0 0 1 .15-.22.35.35 0 0 1 .22-.08H8.8c.13 0 .2.08.2.24v.4c0 .04-.01.07-.03.1l-1.22 1.44Z" fill="#fff"/><path d="M9.37 8.7c.11-.4.48-.7.85-.7h5.72c.02 0 .03 0 .04.02l.02.05V10c0 .74-.36 1.01-.9 1.01H9.31l-.02-.02V9.4c-.01-.27.01-.5.07-.7Z" fill="#D93431"/><path d="m13.06 8.39.43-.01.02.01v.03l.01 2.16-.01.03h-.02l-.45.01h-.02v-.01l-.75-1.2h-.05l-.01.03v1.13a.05.05 0 0 1 0 .03l-.02.01h-.01l-.42.02h-.01l-.02-.02V8.4l.02-.01h.43v.02l.79 1.23.02.01H13l.01-.02V8.43l.01-.02V8.4h.02l.01-.01ZM14.25 8.98v.19c0 .03.03.06.06.06h.98l.03.01.02.05v.43c0 .02 0 .03-.02.05l-.03.01h-.98c-.03 0-.06.02-.06.06v.18c0 .01 0 .03.02.04l.03.02h1.01l.02.02v.02l.01.02v.42l-.02.05-.04.02h-1.46l-.03-.02a.07.07 0 0 1-.02-.05V8.44l.02-.05.04-.01h1.46l.03.02.02.06v.4a.07.07 0 0 1-.01.05l-.02.02h-1c-.03 0-.06.02-.06.05ZM10.67 10.63c.25 0 .48-.12.65-.33.17-.22.27-.5.27-.8 0-.3-.1-.58-.27-.8a.84.84 0 0 0-.65-.32.77.77 0 0 0-.35.08.93.93 0 0 0-.3.24c-.08.1-.15.23-.2.37a1.35 1.35 0 0 0 .2 1.23c.1.1.2.18.3.24.11.06.23.09.35.09Zm.4-1.13c0 .27-.17.48-.4.48-.21 0-.39-.21-.39-.48s.18-.48.4-.48c.22 0 .4.21.4.48Z" fill="#fff"/></svg>