<!-- by TradingView --><svg xmlns="http://www.w3.org/2000/svg" width="18" height="18"><path fill="#36B1E8" d="M0 0h18v18H0z"/><path d="M4.45 7.32L7.8 4.3l.63.64.03.04-3.39 3.07-.63-.7.02-.03zm1 1.17l2.51 2.8.96-.89-1.75-1.79 2.47-2.33-.84-.8-.02-.02L5.45 8.5zM4 7.74l3.54 3.94-.64.6L4 9.08V7.74zm10 2.3l-3.6-3.76.66-.65L14 8.83v1.2z" fill="#0B4999"/><path d="M10.94 3.5l-1.8 1.66.87.81 1.76-1.67-.83-.8zm-2.48 8.15l2.46-2.33-1.69-1.8.87-.82 2.53 2.69-3.3 3.07-.87-.81zm-.42.4L6.27 13.7l.86.79 1.78-1.65-.87-.8z" fill="#EA1F1F"/><path d="M12.93 9.75l-3.35 3.02.64.68 3.32-3-.61-.7z" fill="#0B4999"/></svg>