<!-- by TradingView --><svg xmlns="http://www.w3.org/2000/svg" width="18" height="18" viewBox="0 0 18 18"><path fill="#F0F3FA" d="M0 0h18v18H0z"/><path d="M7 10.53V4.58L5 6.16V12l2-1.48Z" fill="#D20202"/><path d="M11 10.53V4.6l2 1.57V12l-2-1.48Z" fill="#FE000A"/><path d="M7 13.49V10.5L5 12l2 1.48ZM11 13.49V10.5l2 1.5-2 1.48Z" fill="#B40404"/><path d="M9 8.88V3L7.57 4.13v5.73L9 8.88Z" fill="#D50006"/><path d="M9 12.98v-1.92l-1.43.87v2.03L9 12.98Z" fill="url(#abu1lud4z)"/><path d="M9 12.98v-1.92l1.43.87v2.03L9 12.98Z" fill="url(#bbu1lud4z)"/><path d="M9 8.88V3l1.43 1.13v5.73L9 8.88Z" fill="#FE000A"/><path d="M9 10.9 7.57 9.85l1.43-1 1.43 1L9 10.89ZM9 15l-1.43-1.04 1.43-1 1.43 1L9 15Z" fill="#B40404"/><defs><linearGradient id="abu1lud4z" x1="8.1" y1="11.23" x2="8.83" y2="12.96" gradientUnits="userSpaceOnUse"><stop stop-color="#fff"/><stop offset="1" stop-color="#E35555"/></linearGradient><linearGradient id="bbu1lud4z" x1="9.9" y1="11.23" x2="9.59" y2="13.38" gradientUnits="userSpaceOnUse"><stop stop-color="#fff"/><stop offset="1" stop-color="#E35555"/></linearGradient></defs></svg>