<!-- by TradingView --><svg width="18" height="18" viewBox="0 0 18 18" xmlns="http://www.w3.org/2000/svg"><path fill="#F0F3FA" d="M0 0h18v18H0z"/><path d="M12.75 4.11a.11.11 0 0 0-.1-.11h-2.3a.2.2 0 0 0-.2.22c0 .12-.04.24-.14.38L10 4.6l-.03.01a.1.1 0 0 1-.05-.01c-.03-.02-.04-.04-.03-.07l.1-.34a.15.15 0 0 0-.14-.2H7.55a.2.2 0 0 0-.19.14c-.8 2.48-1.53 4.79-2.18 6.93-.17.54-.36 1.2.17 1.86.24.3.61.58 1.11.81 1.21 0 2.23-.3 3.07-.92.15-.11.26-.22.33-.32l.22-.28c.16-.18.29-.33.33-.59 0-.07.06-.2.12-.32.07-.14.14-.29.17-.41.24-.97.56-1.94.94-2.91.1-.25.2-.52.27-.8.04-.18.1-.34.15-.51l.18-.58a4.54 4.54 0 0 1 .57-1.26l.03-.02c.08-.23-.09-.37-.09-.7Zm-5.13 7.74.07-.01a.5.5 0 0 0 .38-.36L10.3 4.4a.23.23 0 0 1 .22-.17h1.92a.08.08 0 0 1 .04.01.08.08 0 0 1 .04.06v.04l-2.14 6.69C9.86 12.62 8.73 13.4 7 13.4c-.98 0-1.87-.5-1.73-1.66.05-.36.24-1.07.58-2.14.57-1.76 1.12-3.51 1.66-5.26l.05-.07a.13.13 0 0 1 .09-.03h1.98c.06 0 .08.03.07.09L7.4 11.6a.2.2 0 0 0 .12.24h.1Z" fill="#2F8C30"/><path d="M10.68 12.4c-.54.53-.62.7-1 .97-.97.69-2.04.81-3.22.37 1.2 0 2.23-.3 3.07-.92.15-.11.26-.22.33-.32.24-.34.5-.49.55-.87.02-.15.22-.48.29-.73.24-.97.56-1.94.94-2.91.1-.25.2-.52.26-.8.1-.36.23-.66.34-1.09a4.54 4.54 0 0 1 .57-1.26.11.11 0 0 1 .15.03l.03.03v.06c-1.02 2.36-1.38 5.02-2.3 7.43Z" fill="#7B8476"/></svg>