<!-- by TradingView --><svg width="18" height="18" viewBox="0 0 18 18" xmlns="http://www.w3.org/2000/svg"><path fill="#F0F3FA" d="M0 0h18v18H0z"/><path fill-rule="evenodd" d="M9.03 5.7a.09.09 0 0 1-.03.02l-.04-.01c-.26-.15-.44-.26-.55-.31a3.59 3.59 0 0 0-4.7 1.28c-.48.66-.71 1.44-.71 2.32 0 .89.23 1.66.7 2.33a3.58 3.58 0 0 0 4.7 1.28 19.28 19.28 0 0 0 .6-.33l.04.01.55.32a3.58 3.58 0 0 0 4.7-1.28c.48-.67.71-1.45.71-2.33 0-.89-.23-1.66-.7-2.33a3.58 3.58 0 0 0-4.7-1.28l-.57.32Zm2.35 4.04c-.08.09-.16.09-.25 0L8.56 7.01a2.48 2.48 0 0 0-2.98-.48 2.7 2.7 0 0 0-1.42 2.4c-.03.99.46 1.95 1.26 2.45.52.32 1.08.43 1.68.34l.48-.08c.49-.08.58-.28.3-.59L6.2 9.31c-.2-.21-.23-.4-.08-.54l.47-.5c.1-.1.2-.1.29 0l2.64 2.8c1.1 1.04 2.75.9 3.7-.3 1-1.24.75-3.12-.53-4.07a2.18 2.18 0 0 0-1.66-.44l-.54.08c-.6.08-.68.34-.22.77.42.4.96.98 1.64 1.74.1.1.1.2 0 .31l-.54.58Z" fill="#EB0806"/></svg>