<!-- by TradingView --><svg width="18" height="18" viewBox="0 0 18 18" xmlns="http://www.w3.org/2000/svg"><path fill="#F0F3FA" d="M0 0h18v18H0z"/><path d="M5 8.29c0-.16.14-.29.32-.29h7.36c.18 0 .32.13.32.29V9.7c0 .16-.14.29-.32.29H5.32C5.14 10 5 9.87 5 9.71V8.3Z" fill="#2E2870"/><path d="M5.37 11c-.02.02-1.59.62-2.37.92l.75.01A5.65 5.65 0 0 0 8.9 15c3.88 0 5.27-3.29 5.53-4a6.08 6.08 0 0 1-4.4 2.05c-1.25 0-2.39-.66-2.9-1.06l.98.01-2.74-1ZM12.62 7c.01-.02 1.6-.62 2.38-.92l-.73-.01A5.68 5.68 0 0 0 9.07 3C5.16 3 3.77 6.23 3.5 6.92c.56-.67 2.23-2 4.42-2 1.33 0 2.53.71 3 1.1L9.86 6l2.76 1Z" fill="#80BE43"/><path opacity=".3" fill="#F0F3FA" d="M6 8h6v2H6z"/></svg>