<!-- by TradingView --><svg width="18" height="18" viewBox="0 0 18 18" xmlns="http://www.w3.org/2000/svg"><path fill="#F0F3FA" d="M0 0h18v18H0z"/><path d="M4 4.63c0-.35.3-.63.67-.63h8.66c.37 0 .67.28.67.63v8.75c0 .34-.3.62-.67.62H4.67c-.37 0-.67-.28-.67-.63V4.63Z" fill="#F8C102"/><path fill-rule="evenodd" d="M13.33 4.31H4.67c-.19 0-.34.14-.34.32v8.75c0 .17.15.3.34.3h8.66c.19 0 .34-.13.34-.3V4.62c0-.17-.15-.3-.34-.3ZM4.67 4C4.3 4 4 4.28 4 4.63v8.75c0 .34.3.62.67.62h8.66c.37 0 .67-.28.67-.63V4.63c0-.35-.3-.63-.67-.63H4.67Z"/><path d="M9.5 7h1v3.5c0 .85-.5 2.5-2.5 2.5s-2.5-1.79-2.5-2.5V7h1v3c0 1 .3 2 1.5 2s1.5-1.14 1.5-2V7Z"/><path d="M11.5 11h1V7.5C12.5 6.65 12 5 10 5S7.5 6.79 7.5 7.5V11h1V8c0-1 .3-2 1.5-2s1.5 1.14 1.5 2v3Z"/></svg>