<!-- by TradingView --><svg width="18" height="18" viewBox="0 0 18 18" fill="none" xmlns="http://www.w3.org/2000/svg">
<rect width="18" height="18" fill="#F0F3FA"/>
<path fill-rule="evenodd" clip-rule="evenodd" d="M3 6H2V9.75C2 10.9926 3.00736 12 4.25 12C5.49264 12 6.5 10.9926 6.5 9.75V6H5.5V9.92313C5.5 10.6135 4.94036 11.1731 4.25 11.1731C3.55964 11.1731 3 10.6135 3 9.92313V6Z" fill="#18462C"/>
<path fill-rule="evenodd" clip-rule="evenodd" d="M5.49847 6.67438V9.3086C5.13216 9.72213 4.59618 9.98295 3.99904 9.98295C2.89499 9.98295 1.99998 9.09135 1.99998 7.99149C1.99998 6.89164 2.89499 6.00003 3.99904 6.00003C4.59618 6.00003 5.13216 6.26086 5.49847 6.67438Z" fill="#019EDE" fill-opacity="0.7"/>
<path d="M7 6.38383V12H8V7.90592L9.41124 9.22227L10.9951 7.49334V6.0681L9.41124 8.04671L7.57081 6.13809C7.36005 5.91952 7 6.07452 7 6.38383Z" fill="#B65426"/>
<rect x="10.9952" y="6" width="1.00483" height="6" fill="#18462C"/>
<path d="M14.1962 6.00008C15.4695 6.00933 16 7.019 16 7.66667H15C15 7.37573 14.8224 6.8621 14.1504 6.82742C13.4783 6.79274 13.3451 7.21389 13.3333 7.37573C13.3216 7.53757 13.2309 8.11045 14.3981 8.41101C15.5653 8.71157 16 9.56015 16 10.1502C16 10.7744 15.8585 11.9767 14.1962 11.9998C12.8663 12.0183 12.3333 11.1624 12.3333 10.3333H13.3333C13.3923 11.0732 13.9132 11.1739 14.1962 11.1624C14.4791 11.1508 14.9882 11.0981 15 10.2195C15.0094 9.51667 14.4352 9.3281 14.0619 9.278C12.5882 8.97744 12.3333 8.11627 12.3333 7.61782C12.3333 7.11937 12.6045 5.98852 14.1962 6.00008Z" fill="#18462C"/>
</svg>
