<!-- by TradingView --><svg width="18" height="18" viewBox="0 0 18 18" xmlns="http://www.w3.org/2000/svg"><path fill="#F0F3FA" d="M0 0h18v18H0z"/><path d="M11.06 5.73c-.52-.67-2.05-.75-3.1-.8-.14-.01-.17-.17-.06-.23 1.21-.57 3.44-1.01 4.76-.41.6.27.85.7.84 1.17-.02 1.63-2.33 2.86-3.92 3.32a.12.12 0 0 1-.12-.2c.84-.85 2.08-2.25 1.6-2.85ZM11.07 11.88c.1-.84-.95-1.98-1.68-2.77-.09-.1 0-.24.12-.2 1.3.46 3.23 1.73 3.76 3.09.24.63.1 1.1-.24 1.43-1.2 1.13-3.77.37-5.26-.44-.12-.06-.07-.23.06-.23 1.23 0 3.15-.11 3.24-.88Z" fill="#00A14A"/><path d="M5.83 9.45c.77.4 2.24-.14 3.26-.52.13-.04.23.08.14.18-.9 1.02-2.82 2.31-4.3 2.3-.7-.01-1.1-.31-1.29-.74C3 9.17 4.66 7.1 5.97 6.05c.11-.09.25.01.2.14-.44 1.11-1.03 2.9-.34 3.26Z" fill="#1A4896"/></svg>