<!-- by TradingView --><svg width="18" height="18" viewBox="0 0 18 18" xmlns="http://www.w3.org/2000/svg"><path fill="#F0F3FA" d="M0 0h18v18H0z"/><path d="M8.65 4c-2.64.01-4.15.29-4.65.43v4.83c0 4.06 3.33 5.52 5 5.74 1.67-.22 5-1.68 5-5.74V4.43C13.5 4.29 11.97 4 9.32 4v7.05c0 .17-.21.34-.33.34-.12 0-.34-.17-.34-.34V4Z" fill="#002D62"/><path d="M8.65 8.49 7.6 8.24c-.94.39-2.4.98-3.59 1.49C4.26 13.43 7.4 14.79 9 15c1.42-.19 4.05-1.28 4.8-4.1l-1.75-1.62-2.73-.64v1.9c0 .16-.14.34-.32.34a.37.37 0 0 1-.35-.35V8.5Z" fill="#F9DC5C"/><path d="m8.65 6.93-.64-.25L4 8.4v.86c0 .38.03.74.08 1.08C5.77 9.5 7.72 8.69 8.4 8.69c.1 0 .18.01.26.03v-1.8ZM9.32 9c.26.16.52.37.78.58.36.29.72.58 1.11.78l.29.15c.58.3 1.5.78 2.08 1.02.26-.65.42-1.4.42-2.28v-.23L9.32 7.2v1.82Z" fill="#B4249F"/><path d="M8.65 5.53c-.67.16-1.73.7-2.34 1.14-.5.37-1.6 1-2.31 1.38v.65c.44-.14 1.11-.4 1.79-.66 1-.38 2-.76 2.23-.76.2 0 .42.07.63.17V5.53Zm.67 2.38.1.1c.34.33 1.2.56 1.69.66L14 9.3V7.14c-1.65.3-2.23.04-2.67-.15l-.06-.03c-.19-.08-.47-.31-.8-.57a6.57 6.57 0 0 0-1.15-.82v2.34Z" fill="#CE1126"/></svg>