<!-- by TradingView --><svg width="18" height="18" viewBox="0 0 18 18" xmlns="http://www.w3.org/2000/svg"><path fill="#F0F3FA" d="M0 0h18v18H0z"/><circle cx="7.21" cy="10.79" r="3.21" fill="#2F2F93"/><path d="M5.3 12.6c-.1-.15-.23-.32-.23-.74 0-.72 0-1.43.36-1.07.13.13.22.27.3.39.1.18.2.32.41.32.17 0 .26-.23.34-.43.1-.25.18-.48.38-.28.15.15.1.3.06.45-.06.2-.11.41.3.62.35.18.62.18.8.18.18 0 .27 0 .27.17s-.23.26-.44.34c-.25.1-.47.19-.28.38.1.1.18.2.24.3.15.2.22.3.48.06.17-.18.35-.18.49-.18.13 0 .22 0 .22-.18 0-.12.04-.28.08-.44.08-.32.16-.63-.08-.63-.36 0-1.43-.36-1.43-.72 0-.22.14-.3.33-.42.11-.07.25-.16.39-.3.13-.13.32-.21.48-.28.26-.12.45-.2.23-.43-.18-.17-.27-.26-.27-.35 0-.1.1-.18.27-.36.2-.2.18-.55.1-.82a3.21 3.21 0 0 0-3.92 5.09.33.33 0 0 0 .25-.34c0-.15-.06-.24-.13-.34Z" fill="#EE7E32"/><path d="M9 7.26A1.43 1.43 0 0 1 10.74 9h.37A1.79 1.79 0 0 0 9 6.9v.36ZM12.2 9h.35l.02-.36A3.21 3.21 0 0 0 9 5.44v.37c.12-.02.24-.02.36-.02A2.86 2.86 0 0 1 12.19 9Zm1.43 0h.36l.01-.36a4.64 4.64 0 0 0-5-4.63v.36l.36-.01A4.29 4.29 0 0 1 13.63 9Z" fill="#2F2F93"/></svg>