<!-- by TradingView --><svg width="18" height="18" viewBox="0 0 18 18" xmlns="http://www.w3.org/2000/svg"><path fill="#181B1E" d="M0 0h18v18H0z"/><path d="M7.83 5.38c-.56 0-1.06.45-1.6.6A1 1 0 0 1 5 5a1 1 0 0 1 1.23-.98c.54.14 1.04.59 1.6.59h.34c.56 0 1.06-.45 1.6-.6A1 1 0 0 1 11 5a1 1 0 0 1-1.23.98c-.54-.14-1.04-.59-1.6-.59h-.34ZM10.83 9.38c-.56 0-1.06.45-1.6.6A1 1 0 0 1 8 9a1 1 0 0 1 1.23-.98c.54.14 1.04.59 1.6.59h.34c.56 0 1.06-.45 1.6-.6A1 1 0 0 1 14 9a1 1 0 0 1-1.23.98c-.54-.14-1.04-.59-1.6-.59h-.34ZM7.83 13.38c-.56 0-1.06.45-1.6.6A1 1 0 0 1 5 13a1 1 0 0 1 1.23-.98c.54.14 1.04.59 1.6.59h.34c.56 0 1.06-.45 1.6-.6A1 1 0 0 1 11 13a1 1 0 0 1-1.23.98c-.54-.14-1.04-.59-1.6-.59h-.34Z" fill="#fff"/></svg>