<!-- by TradingView --><svg width="18" height="18" viewBox="0 0 18 18" xmlns="http://www.w3.org/2000/svg"><path fill="url(#a)" d="M0 0h18v18H0z"/><path fill-rule="evenodd" d="M9 14.65a5.65 5.65 0 1 0 0-11.3 5.65 5.65 0 0 0 0 11.3ZM9 15A6 6 0 1 0 9 3a6 6 0 0 0 0 12Z" fill="#fff"/><path d="M7 5H6v1h1V5Zm2.5 0h-1v1h1V5ZM7 7H6v4.1c0 .12.05.23.13.31l1.46 1.46c.08.08.19.13.3.13h2.22c.11 0 .22-.05.3-.13l1.46-1.46a.43.43 0 0 0 .13-.3V7h-1v4.57c0 .34-.29.43-.43.43H7.43c-.34 0-.43-.29-.43-.43V7Zm5-2h-1v1h1V5Z" fill="#fff"/><defs><linearGradient id="a" x1="3.35" y1="3.12" x2="21.9" y2="24.43" gradientUnits="userSpaceOnUse"><stop stop-color="#1A1E21"/><stop offset="1" stop-color="#06060A"/></linearGradient></defs></svg>