<!-- by TradingView --><svg width="18" height="18" viewBox="0 0 18 18" fill="none" xmlns="http://www.w3.org/2000/svg">
<rect width="18" height="18" fill="#2A2247"/>
<path d="M4.88178 8.6875H8.32766C8.35593 8.6875 8.3744 8.67646 8.375 8.64941V4.13142C8.375 4.11281 8.41619 4.07894 8.43504 4.07589L8.92895 4.00164C8.97407 3.99416 9 4.01229 9 4.05603V9.25724C9 9.2719 8.99401 9.28595 8.98335 9.29632C8.97269 9.30668 8.95823 9.3125 8.94315 9.3125L4.04524 9.30128C4.01697 9.30128 4.00283 9.28775 4.00283 9.26069C4.00283 8.97836 3.98478 8.70466 4.03983 8.4275C4.35658 6.8181 5.07489 5.58255 6.56026 4.72259C6.56625 4.71904 6.57297 4.71676 6.57996 4.71588C6.58695 4.71501 6.59405 4.71558 6.6008 4.71754C6.60754 4.7195 6.61377 4.72281 6.61908 4.72725C6.62438 4.7317 6.62863 4.73717 6.63155 4.74331L6.91039 5.34597C6.92303 5.37303 6.91611 5.39461 6.88964 5.41073C5.69184 6.15845 5.00781 7.27428 4.83756 8.6425C4.83395 8.67416 4.84869 8.6875 4.88178 8.6875Z" fill="white"/>
<path d="M12.9064 7.43753H10.0345C10.0251 7.43753 10.016 7.43839 10.0093 7.445C10.0026 7.45161 9.99885 7.46057 9.99885 7.46992V9.22532C9.99885 9.262 9.98068 9.31138 9.94412 9.31253H9.4485C9.40556 9.31424 9.38281 9.27718 9.38281 9.23478V4.07911C9.38277 4.07497 9.38364 4.07086 9.38538 4.06707C9.38712 4.06328 9.38967 4.05989 9.39288 4.05712C9.3961 4.05436 9.39988 4.05228 9.404 4.05104C9.40812 4.04979 9.41247 4.0494 9.41676 4.04989C12.2118 4.40661 14.0119 6.47472 13.9997 9.23994C13.9997 9.26385 13.9595 9.31206 13.9378 9.31253H13.2833C13.2338 9.31442 13.1832 9.25164 13.1858 9.20555C13.2206 8.64225 13.1475 8.01173 12.9665 7.47766C12.9566 7.449 12.9366 7.43753 12.9064 7.43753ZM12.5733 6.72569C12.0005 5.72602 11.174 5.17592 10.045 4.90258C10.0142 4.8957 9.99885 4.90773 9.99885 4.93868V6.75923C9.99885 6.79476 10.0168 6.81253 10.0528 6.81253H12.5263C12.5357 6.81249 12.5449 6.80228 12.553 6.79767C12.5611 6.79306 12.5679 6.78643 12.5726 6.77845C12.5774 6.77047 12.5799 6.76141 12.58 6.75216C12.5802 6.74291 12.5778 6.73379 12.5733 6.72569Z" fill="white"/>
<path d="M13.9649 9.56073H4.03809L4.12945 10.0017H13.8636C13.8767 10.0017 13.8873 9.99287 13.8873 9.98202L13.9649 9.56073Z" fill="white"/>
<path d="M8.33049 11.5902H5.80291C5.77483 11.5901 5.76077 11.6351 5.77677 11.6545C6.1254 12.0611 6.53626 12.3989 7.00932 12.668C7.04238 12.6871 7.04539 12.7096 7.01834 12.7356L6.52514 13.2086C6.51364 13.2198 6.49843 13.2268 6.48213 13.2284C6.46583 13.23 6.44947 13.226 6.43587 13.2172C5.3593 12.5427 4.62626 11.6149 4.23674 10.4339C4.22713 10.4044 4.23825 10.3897 4.27011 10.3897L4.90216 10.3862C4.98872 10.3857 5.04973 10.4235 5.0852 10.4997L5.30648 10.9306C5.32391 10.9682 5.35397 11 5.39664 11H8.30885C8.32655 11 8.34352 10.9801 8.35603 10.9679C8.36854 10.9557 8.37557 10.9392 8.37557 10.922V10.44C8.37557 10.4255 8.38165 10.4116 8.39247 10.4014C8.4033 10.3911 8.41797 10.3854 8.43328 10.3854H8.934C8.97728 10.3854 8.99922 10.4117 8.99983 10.4538V13.8981C9.00043 13.9738 8.94639 13.9986 8.86222 13.9986H8.5012C8.42246 13.99 8.37557 13.912 8.37557 13.8358V11.6432C8.37557 11.6143 8.36054 11.5902 8.33049 11.5902Z" fill="white"/>
<path d="M10.05 13.1183C10.6243 12.976 11.0767 12.7278 11.5494 12.3734C11.5659 12.3608 11.586 12.3539 11.6067 12.3537C11.6274 12.3536 11.6476 12.3602 11.6643 12.3725L12.1924 12.7642C12.1984 12.7686 12.2033 12.7743 12.2067 12.7809C12.2101 12.7875 12.212 12.7948 12.2122 12.8021C12.2123 12.8095 12.2108 12.8168 12.2077 12.8234C12.2046 12.83 12.1999 12.8358 12.1942 12.8402C11.378 13.4843 10.4528 13.8707 9.41849 13.9995C9.3947 14.0024 9.38281 13.9919 9.38281 13.968V10.4291C9.38281 10.4175 9.3874 10.4064 9.39556 10.3982C9.40371 10.39 9.41478 10.3854 9.42632 10.3854H13.6969C13.7066 10.3854 13.7162 10.3878 13.7248 10.3924C13.7334 10.397 13.7408 10.4037 13.7462 10.4117C13.7517 10.4198 13.7552 10.4291 13.7563 10.4389C13.7574 10.4486 13.7561 10.4584 13.7526 10.4676L13.535 10.9394C13.5223 10.9715 13.4988 11 13.4646 11H10.0413C10.0298 11 10.0187 10.9921 10.0106 11.0003C10.0024 11.0085 9.99782 11.0196 9.99782 11.0312V13.0763C9.99778 13.0828 9.99922 13.0893 10.002 13.0952C10.0048 13.1012 10.0089 13.1063 10.0139 13.1104C10.019 13.1144 10.0248 13.1173 10.0311 13.1186C10.0374 13.12 10.0438 13.1199 10.05 13.1183Z" fill="white"/>
</svg>
