<!-- by TradingView --><svg width="18" height="18" viewBox="0 0 18 18" xmlns="http://www.w3.org/2000/svg"><path fill="#F0F3FA" d="M0 0h18v18H0z"/><path d="M8.55 13.6c.03-.76.31-1.38.45-1.6-1.97.23-3.49.81-4 1.08.5.47 1.41.8 1.81.92.6-.38 1.41-.42 1.74-.4ZM12.52 7.34A11.45 11.45 0 0 1 16 4 27.06 27.06 0 0 0 5.17 7.34 9.89 9.89 0 0 0 5 9.56c2.45-1.29 6.03-2.01 7.51-2.22ZM9.6 11.05c.43-1 1.11-2.16 1.4-2.6a20.27 20.27 0 0 0-7 2.39c.23.74.68 1.43.88 1.68 1.32-.91 3.7-1.36 4.72-1.47Z" fill="#009A44"/></svg>