<!-- by TradingView --><svg width="18" height="18" viewBox="0 0 18 18" xmlns="http://www.w3.org/2000/svg"><path fill="#F0F3FA" d="M0 0h18v18H0z"/><path d="m4 5 1-1h8l1 1v8l-1 1H5l-1-1V5Zm1.5 2v.15h.35c.1 0 .18.13.18.22V9.7c0 .71.65 1.29 1.46 1.29h.3c.92 0 1.67-.66 1.67-1.48V7.5c0-.12.13-.2.26-.2.14 0 .28.08.28.2v3.2c0 .07-.05.12-.13.12h-.21V11h1.39c.57 0 1.44-.17 1.44-1.15 0-.79-.45-1.06-.86-1.1.69-.19.8-.63.79-.83 0-.72-.7-.91-1.06-.92H8.59v.15h.17c.12 0 .26.15.26.26v2.21c0 .6-.43 1.06-1.1 1.06-.68 0-1.21-.46-1.21-1.06V7.37c0-.09.06-.22.15-.22h.32V7H5.5Zm5.08 1.64V7.38c0-.04.04-.07.08-.07h.47c.4 0 .75.26.77.63a.75.75 0 0 1-.53.75 5.13 5.13 0 0 0-.79-.05Zm0 .2v1.48c0 .12.06.35.3.36.3 0 1.02-.03 1.02-.87 0-.83-.66-.97-1.32-.97Z" fill="#004C38"/></svg>