<!-- by TradingView --><svg width="18" height="18" viewBox="0 0 18 18" xmlns="http://www.w3.org/2000/svg"><path fill="#F0F3FA" d="M0 0h18v18H0z"/><path d="M6.47 7v.2c-.33.02-.46.13-.5.36-.01.17-.04.41-.04.88v.58c0 1.03-.32 1.98-1.4 1.98-1 0-1.53-.7-1.53-1.73V7.83c0-.56-.06-.59-.5-.63V7h2.03v.2c-.43.04-.53.07-.53.63v1.32c0 .93.05 1.56.72 1.56.75 0 .95-.71.95-1.72v-.55c0-.47-.03-.71-.05-.9-.04-.21-.17-.32-.57-.34V7h1.42Z" fill="#083857"/><path d="M11.63 7v.2c-.5.04-.63.08-.63.6v2.4c0 .52.14.56.63.6v.2H9.37v-.2c.52-.04.63-.08.63-.6V9H8v1.2c0 .52.15.56.62.6v.2H6.37v-.2c.48-.04.63-.08.63-.6V7.8c0-.52-.14-.56-.63-.6V7h2.25v.2c-.45.04-.62.08-.62.6v.91h2V7.8c0-.52-.15-.56-.63-.6V7h2.26Z" fill="#083857"/><path d="M15.5 8.14h-.21c-.07-.3-.21-.49-.3-.6-.11-.11-.2-.16-.63-.16H14v2.85c0 .49.06.54.64.58V11h-2.25v-.19c.55-.04.61-.09.61-.58V7.38h-.29c-.53 0-.62.07-.7.17-.1.11-.21.3-.3.6h-.21c.03-.42.12-.84.13-1.15h3.75c0 .26.08.78.12 1.14Z" fill="#083857"/></svg>