<!-- by TradingView --><svg width="18" height="18" viewBox="0 0 18 18" xmlns="http://www.w3.org/2000/svg"><path fill="#F0F3FA" d="M0 0h18v18H0z"/><path d="M4.1 7.89C4.92 6.93 7.11 5 9.35 5c2.25 0 3.5.7 3.86 1.04-1.17-.45-3.89-1.13-5.46-.31 2.47-.57 5.49.25 5.84 1.1-1.85.38-6.58 1.23-10.59 1.6 3.06-.46 9.31-1.43 9.88-1.7-1.44-.9-5.21-1.93-8.78 1.16Zm10.27-.63c0 .1-.02.18-.06.24.48 0 .95 0 1.4.02C9.2 8 4.06 8.71 2.29 9c2.24-.5 7.3-1.4 11.56-1.5a.42.42 0 0 1-.06-.24c0-.26.13-.47.29-.47.16 0 .29.21.29.47Z" fill="#0B4855"/><path fill-rule="evenodd" d="M4 9v1.31c0 .23.21.69 1.01.69s1-.46.99-.69V9h-.37v1.22c0 .18-.13.55-.62.55a.6.6 0 0 1-.64-.55V9H4Zm3.82 0-1.1 2h.37l.27-.5h1.28l.26.5h.4L8.21 9h-.39Zm.68 1.25h-1l.5-.94.5.94ZM10 11V9h.88c.37 0 1.12.22 1.12.99s-.73 1-1.1 1.01H10Zm.37-.24V9.24h.53c.24 0 .73.17.73.75 0 .59-.48.76-.72.77h-.54ZM15 9h-.37v.85h-1.26V9H13v2h.37v-1h1.26v1H15V9Z" fill="#26889D"/><path d="M13.94 8.89c.33-.45 1.2-1.09 2.06-.08a1.68 1.68 0 0 0-2.06.08ZM2 10.07c.33-.45 1.2-1.1 2.06-.08a1.68 1.68 0 0 0-2.06.08Z" fill="#0B4855"/></svg>