<!-- by TradingView --><svg width="18" height="18" viewBox="0 0 18 18" xmlns="http://www.w3.org/2000/svg"><path fill="#F0F3FA" d="M0 0h18v18H0z"/><path fill-rule="evenodd" d="M9.07 15A6.08 6.08 0 0 0 15 10.4h.3v-.8h.7V8h-.92c-.48-2.84-3-5-6.01-5a6.07 6.07 0 0 0-6.02 5H2v1.6h.7v.8h.43A6.08 6.08 0 0 0 9.07 15ZM8.42 4.65a4.49 4.49 0 0 0-3.74 4.18c-.02.37.02 1.16.35 1.41.33.25.51.5.56.6.25-.04.76.03.82.57.15.16.42.58.37.99.15.31.83.93 2.3.9 1.82-.03 4.4-1.33 4.35-4.47.02-.65-.3-2.15-1.68-2.91h-1.07c.06.1.32.31.86.3.08.25.14.76-.22.88l-1.26-.8-.1.12 1.36 1 .43-.32c0 .2 0 .66-.07.9-.09.3-.15.83.07 1.19.17.28.03.67-.07.83v.81l-.72.73-1-.93v-.61l-.65-.58a.62.62 0 0 0-.6-.5c-.42 0-.9.45-1.08.68l-.94-.68v-.46c-.07-.13-.13-.52.2-1.06.4-.67 1.1-1.07 1.25-.82h.56c.1-.07.35-.24.61-.3.34-.07.56-.35.3-.44-.2-.07-.32.08-.35.16h-.2c-.07-.07-.25-.14-.36.1-.23-.14-.78-.32-1.07.1l-.05.08c-.34.49-.5.73-.7.52-.19-.22.77-1.1.97-1.25.2-.17.32-.38.1-.4-.01.1-.06.28-.25.3-.18.02-.2-.1-.2-.17.12-.1.46-.34.92-.48v-.17Z" fill="#3D3F95"/></svg>