<!-- by TradingView --><svg width="18" height="18" viewBox="0 0 18 18" xmlns="http://www.w3.org/2000/svg"><path fill="url(#afut0nh0b)" d="M0 0h18v18H0z"/><path d="M14 8.85v.3c0 1.5-.89 2.85-2.5 2.85C9.9 12 9 10.65 9 9.15v-.3C9 7.35 9.9 6 11.5 6S14 7.35 14 8.85Zm-1 .3v-.3c0-.89-.44-1.96-1.5-1.96S10 7.97 10 8.84v.31c0 .88.45 1.96 1.5 1.96 1.06 0 1.5-1.08 1.5-1.96ZM7 6h1v3.93C8 11.13 7.22 12 6 12s-2-.87-2-2.07V6h1v3.93c0 .64.3 1.2 1 1.2s1-.56 1-1.2V6Z" fill="#FEFEFE"/><defs><linearGradient id="afut0nh0b" x1="3.35" y1="3.12" x2="21.9" y2="24.43" gradientUnits="userSpaceOnUse"><stop stop-color="#1A1E21"/><stop offset="1" stop-color="#06060A"/></linearGradient></defs></svg>