<!-- by TradingView --><svg width="18" height="18" viewBox="0 0 18 18" xmlns="http://www.w3.org/2000/svg"><path fill="#F0F3FA" d="M0 0h18v18H0z"/><path d="M11.04 14.73c.04-.1.08-.18.15-.26.06.03.13.04.2.04.24 0 .33-.2.38-.56.04-.35.13-.52.24-.52.17 0 .32.34.59.34a.36.36 0 0 0 .25-.13.4.4 0 0 1 .27.25.4.4 0 0 0 .08-.22.47.47 0 0 0-.2-.33c.01-.34-.22-.38-.4-.4-.2-.04-.33-.06-.33-.24 0-.41.62-.11.66-.63-.16.08-.3.03-.46-.05.36-.04.51-.1.54-.34a.55.55 0 0 1-.46-.1c.19-.04.5-.15.41-.4a.43.43 0 0 1-.27-.02.78.78 0 0 0-.32-.05c-.12-.23-.35-.27-.59-.27h-.34c-.33 0-.52-.1-.54-.6l-.02-.15c.1-.04.21-.06.32-.05.28 0 .64.09.64.44 0 .07 0 .13-.03.19l.27.01c.02-.07.03-.14.03-.22 0-.48-.41-.75-1.04-.75h-.22c-.08 0-.13 0-.28-.12-.14-.11-.3-.2-.48-.26-.43-.16-.75-.29-.93-.72.45-.05 1.41.39 1.81.96.17-.25.05-.54-.23-.95.39.23.75.51 1.07.83.15-.18.05-.47-.46-.97.49.15.96.34 1.42.56.09-.28-.2-.59-.87-.91 1.34 0 2-.22 1.98-.64-.81.06-1.27.08-1.68.07 1.32-.49 1.92-.98 1.78-1.42-.54.28-1.08.5-1.64.73C13.48 6 13.92 5.35 13.64 5c-.51.44-1.04.86-1.59 1.25.93-1.14 1.28-1.97.87-2.23-.4.59-.83 1.16-1.3 1.7.65-1.33.78-2.2.33-2.42-.27.76-.61 1.5-1 2.2.38-1.61.3-2.41-.18-2.5-.15 1.32-.65 3.56-1.62 4.55a1.4 1.4 0 0 1 .1-.65l.14.03c-.06-.3-.03-.6.1-.88l.15.03c-.1-.14-.13-.43-.16-.73a4.51 4.51 0 0 0-.06-.42c.13-.24.2-.5.18-.78 0-.24-.03-.47-.07-.7-.27.25-.49.56-.63.91h-.94c-.26 0-.45.07-.5.37-.34-.04-.53.17-.53.43 0 .1.03.22.08.32a.49.49 0 0 1 .4-.2.38.38 0 0 1 .4.3c.23-.01.5.11.42.4a.93.93 0 0 0-.57-.25c-.15 0-.39.05-.58.05-.19 0-.3-.05-.27-.24a.34.34 0 0 0-.15.28c0 .15.11.3.37.3.3 0 .47-.2.72-.2.15.01.3.08.4.2a.26.26 0 0 1-.33 0c-.05.45-.27.7-.71.7.1.1.23.19.37.22-.38.33-.52.92-.5 1.41-.75.53-1.2.8-1.32.8-.3 0-.2-.5-.6-.5l-.13.02a.38.38 0 0 0-.47.2c.17 0 .2.02.2.07l-.02.18a.44.44 0 0 0-.3.16c-.2 0-.3.18-.34.35a.4.4 0 0 1 .27-.02c.02.1.07.19.14.26a.5.5 0 0 0-.08.2.4.4 0 0 0-.17.45.36.36 0 0 1 .28-.14c.1.19.22.26.33.26.26 0 .53-.35.68-.35a.08.08 0 0 1 .06.02.08.08 0 0 1 .02.06c0 .12-.2.13-.2.36a.27.27 0 0 0 .25.28.4.4 0 0 1-.09.31c.2.13.4-.17.42-.33a.3.3 0 0 0 .26-.28c0-.15-.12-.18-.12-.3 0-.13.17-.36.3-.36.57 0 1.26-.31 1.41-.56.2.15.41.23.65.25.46.07 1.11.3 1.11.78 0 .18-.09.4-.09.61a2 2 0 0 0 .18.67.36.36 0 0 0-.02.14c0 .13.07.22.07.32a.3.3 0 0 1-.06.18.3.3 0 0 0 .23 0c.32-.14.44-.15.73-.12-.11-.37.09-.56.3-.56.2 0 .4.15.4.49 0 .2-.08.56-.23.56-.07 0-.28-.1-.49-.1a.45.45 0 0 0-.35.15.9.9 0 0 1-.13.1c-.1.08-.2.15-.17.3a.4.4 0 0 1 .25-.06.33.33 0 0 0 .14.2.4.4 0 0 0 0 .27c-.13.11-.13.26-.09.42a.34.34 0 0 1 .26-.15.43.43 0 0 0 .35.1.4.4 0 0 0 .14.2.4.4 0 0 0 .1.4m-5.2-.2c.05-.1.13-.2.24-.25.1.06.2.1.32.1.43 0 .49-.72.83-.72.12 0 .15.1.17.2.04.17.1.35.42.28a.4.4 0 0 1 .19.33.38.38 0 0 0 .13-.5.52.52 0 0 0 .08-.24c0-.25-.38-.23-.38-.56 0-.1.03-.2.07-.29a.52.52 0 0 1 .34.25.46.46 0 0 0 .07-.23c0-.2-.22-.3-.22-.42.15 0 .29.07.39.19.04-.05.06-.1.06-.16 0-.21-.31-.37-.31-.52a.55.55 0 0 1 .4.22c.04-.04.06-.1.06-.15 0-.2-.26-.44-.26-.62 0-.12.12-.23.83-.34.03-.16.05-.32.06-.49 0-.28-.13-.38-.64-.58-.31.08-.6.22-.86.42-.2.14-.33.22-.5.22a.66.66 0 0 1-.45-.16.27.27 0 0 0-.1.22.37.37 0 0 0 .19.31.36.36 0 0 1-.1.15c-.05.06.09.57.17.6.05.03.12.04.18.03-.1.65-.25.82-.44.82s-.43-.2-.67-.2a.4.4 0 0 0-.31.15.38.38 0 0 0-.37.32.28.28 0 0 1 .26 0l.01.15a.42.42 0 0 0-.15.29.34.34 0 0 0-.13.44c.07-.1.13-.13.2-.13.08 0 .16.03.24.06a.4.4 0 0 0 .03.31c-.17.2-.16.3-.05.51M9.6 15a.96.96 0 0 0 .14-.89c.07 0 .15 0 .23-.03a1.3 1.3 0 0 1-.26-.5c-.07-.22-.15-.4-.54-.5-.07-.44-.05-.8.31-1.12-.05-.12-.1-.24-.13-.36-.54.33-.57 1.02-.5 1.57a.78.78 0 0 0-.27.6c0 .29.17.5.32.69.12.12.2.27.26.43a.54.54 0 0 0 .2-.2c.07.12.16.22.26.31M6.79 8.3c-.01-.4.1-.8.33-1.12-.46-.3-1.02-.66-1.02-1.09 0-.17.11-.44.11-.65a.42.42 0 0 0-.3-.4.38.38 0 0 0-.44-.18c.05.04.1.1.12.17a.61.61 0 0 0-.2.15.38.38 0 0 0-.32-.06.35.35 0 0 0-.44 0c.07.03.13.07.18.13-.07.1-.1.22-.09.35a.3.3 0 0 0-.17.06.34.34 0 0 0-.45.2.28.28 0 0 1 .24.03.42.42 0 0 0-.03.15c0 .19.12.36.41.38.2.02.34.11.34.25 0 .1-.06.14-.17.14a.23.23 0 0 0-.25.25c0 .07.03.14.07.2a.44.44 0 0 1-.26.15.37.37 0 0 0 .45.1.4.4 0 0 0 .19.07c.27 0 .24-.45.5-.45.09 0 .12.06.12.13.19.28.51.43.76.79M8.3 4.98a.32.32 0 0 1-.34-.34h.23a.2.2 0 0 0-.04.11c0 .08.08.1.15.1.07 0 .17-.04.17-.11a.16.16 0 0 0-.04-.1h.22a.33.33 0 0 1-.35.33m.29-.69h.26c.1-.22.22-.43.37-.62-.01-.1-.03-.2-.06-.29-.25.26-.45.57-.57.91Z" fill="#008342"/></svg>