<!-- by TradingView --><svg xmlns="http://www.w3.org/2000/svg" width="18" height="18" viewBox="0 0 18 18"><path fill="#F0F3FA" d="M0 0h18v18H0z"/><path d="M12.1 5.23c-.7-.44-1.54-.7-2.43-.7a4.68 4.68 0 0 0-4.62 4.74 4.7 4.7 0 0 0 4.23 4.71l-.4.02A4.94 4.94 0 0 1 4 9c0-2.76 2.19-5 4.88-5a4.8 4.8 0 0 1 3.22 1.23Z" fill="#497A51"/><path d="M13.96 9.86a4.29 4.29 0 0 0-.93-2.46 4.08 4.08 0 0 0-5.84-.6 4.31 4.31 0 0 0-1.3 4.65A4.52 4.52 0 0 1 6.9 5.8a4.28 4.28 0 0 1 6.11.63c.8 1 1.1 2.25.94 3.43Z" fill="#B1C450"/><path d="M8.05 12.99a3.33 3.33 0 0 0 4.6-2.62A3.38 3.38 0 0 0 9.67 6.5c.3-.04.62-.04.93.01a3.59 3.59 0 0 1 2.97 4.08 3.53 3.53 0 0 1-3.98 3.04 3.46 3.46 0 0 1-1.55-.64Z" fill="#497A51"/><path d="M6.1 9.67c.05.25.13.5.25.75a2.93 2.93 0 0 0 3.94 1.42 3.06 3.06 0 0 0 1.32-4.17 3.24 3.24 0 0 1-1.02 5 3.1 3.1 0 0 1-4.18-1.5c-.23-.5-.32-1-.3-1.5Z" fill="#B1C450"/></svg>