<!-- by TradingView --><svg width="18" height="18" viewBox="0 0 18 18" xmlns="http://www.w3.org/2000/svg"><path fill="#F0F3FA" d="M0 0h18v18H0z"/><path d="M15.33 9.4H14v-.8h2v1.18c0 .93-.38 1.22-1.03 1.22h-1.69a.98.98 0 0 1-.44-.13c-.4-.21-.5-.7-.5-1.2V8.3c0-1.46.92-1.31 1.7-1.3.35 0 .8-.02 1.18.02.55.06.78.46.78 1.17h-.7c-.02-.13-.05-.23-.16-.31-.1-.08-.24-.09-.37-.09h-1.21c-.37 0-.55.25-.56.7v.95c0 .32.04.7.37.75h1.53c.44-.01.44-.35.43-.8ZM12 10.2v.8H9.37l-.01-.01V7H10v3.2h2ZM5.44 7v2.77c0 .8-.32 1.2-.89 1.23H3.32C2.48 11 2 10.77 2 9.5A936.12 936.12 0 0 1 2.01 7h.62v2.57c0 .55.33.62.68.63h.92c.4-.02.58-.25.58-.76V7h.63ZM6.64 9.4c-.38 0-.83-.16-.92-.78-.14-1 .12-1.6.91-1.61L8 7c.54 0 1.03.32 1 1.2H8.3c0-.28-.16-.4-.34-.4h-1.1c-.2 0-.42-.04-.48.23-.06.28.04.57.28.57h1.34c.5 0 .88 0 .96.78.11 1-.11 1.61-.9 1.62H6.51c-.55 0-.9-.4-.89-1.2h.7c.06.3.2.4.43.4h1.2c.3 0 .47-.34.36-.67-.05-.14-.55-.13-.55-.13H6.64Z" fill="#0D4C8A"/></svg>