<!-- by TradingView --><svg width="18" height="18" viewBox="0 0 18 18" xmlns="http://www.w3.org/2000/svg"><path fill="#F0F3FA" d="M0 0h18v18H0z"/><path d="M13.96 5.99V6l-.01.02-2.45 1.4L9 5.87h-.03L6.5 7.46 4.08 6.08H4c0-.05.03-.1.08-.12A976.28 976.28 0 0 1 9.02 3L13.96 6Z" fill="#B19E00"/><path d="M13.96 5.99a.06.06 0 0 1 .04.05v6.06l-2.5-1.38v-3.3l2.45-1.4.01-.02v-.01Z" fill="#BCB04A"/><path d="M6.5 7.46v3.28L4 12.04V6.08h.08L6.5 7.46Z" fill="#C1B765"/><path d="M11.5 7.42v3.28L9 9.09a.02.02 0 0 1 0-.02l2.5-1.65Z" fill="#D1C98D"/><path d="m6.5 10.72 2.46 1.54a.06.06 0 0 0 .07 0l2.47-1.55L14 12.1 9.01 15h-.03L4 12.04l2.5-1.32Z" fill="#B19E00"/></svg>