<!-- by TradingView --><svg width="18" height="18" viewBox="0 0 18 18" xmlns="http://www.w3.org/2000/svg"><path fill="#F0F3FA" d="M0 0h18v18H0z"/><path d="M8.49 14.57h.02c.02 0 .03 0 .04-.02v-.03l.05.11c.07.13.11.13.13-.02l.06-.56c.18-1.42.51-2.8 1-4.16a14.14 14.14 0 0 1 2.92-4.77c.28-.3.58-.56.9-.8a.2.2 0 0 0 .08-.12c0-.03 0-.04-.03-.04-.05-.01-.08-.03-.09-.07l.4-.09H14v.02c-.28.47-.48 1-.6 1.59-.2 1.02-.26 2.05-.36 3.03-.08.83-.27 1.68-.56 2.55-.56 1.66-1.8 3.43-3.75 3.8-.04.01-.06 0-.06-.03l-.02-.1a.16.16 0 0 0-.03-.06.76.76 0 0 1-.12-.23Z" fill="#41A33D"/><path d="M13.57 4.1c0 .03.04.05.09.06.02 0 .03.01.03.04a.2.2 0 0 1-.08.13c-.32.23-.62.5-.9.8-.5.5-.92 1.03-1.3 1.58A14.14 14.14 0 0 0 9.8 9.89a19.48 19.48 0 0 0-1.06 4.72c-.02.15-.06.15-.13.02l-.05-.11a11.18 11.18 0 0 1-.43-4.19c.02-.26.07-.57.15-.95.56-2.62 2.58-4.53 5.3-5.29Z" fill="#95BD38"/><path d="M8.12 10.44c-.14 1.38.1 2.79.43 4.08v.03c0 .02-.02.03-.04.02H8.5L3.99 5h1.6l2.53 5.44Z" fill="#1F1E20"/></svg>