<!-- by TradingView --><svg width="18" height="18" xmlns="http://www.w3.org/2000/svg"><path fill="#037D36" d="M0 0h18v18H0z"/><path d="M4.307 6.747L3 13h8.857c1.307 0 2.834-.795 2.849-2.355.012-1.247-1.004-1.788-1.513-1.902.612-.068 1.83-.54 1.807-1.887-.024-1.348-1.44-1.799-2.145-1.856H6.82C5.056 5 4.41 6.164 4.307 6.747z" fill="#fff"/><path d="M4.807 7.62l-.984 4.756c1.985.15 2.956-.85 3.407-1.388l3.026-3.79c.599-.86 1.493-1.46 1.865-1.652-1.763-.063-2.908.91-3.26 1.403l-3.335 3.868c.186-.863.617-2.826.852-3.774s.97-1.341 1.307-1.42C5.77 5.25 4.968 6.8 4.807 7.62z" fill="#037D36"/></svg>