<!-- by TradingView --><svg width="18" height="18" fill="none" xmlns="http://www.w3.org/2000/svg"><path fill="#F0F3FA" d="M0 0h18v18H0z"/><path d="M11.018 5.818c0-.06-.065-.145-.12-.172-.326-.204-.647.06-.972.06-.12 0-.24.026-.336-.044 0-.06.055-.075.055-.129-.08 0-.175-.027-.27-.043 0 0-.2-.016-.326-.06-.446-.204-.861-.306-1.372-.042-.16.07-.326.145-.501.145-.08 0 .12.172.095.258-.27.043-.51.13-.741.36v.017c.16.215.405.247.646.247.08 0 .23.205.606.258.55.113.877-.215 1.267-.043-.025-.07-.025-.113-.025-.172.456.13.822.113 1.172-.07.32-.096.471-.586.822-.57Z" fill="#C10230"/><path d="M6.224 5.915 6.59 5.7c.065.016.065.086.11.129.095-.027.055-.172.11-.248.055 0 .055.086.095.13.095 0 .065-.162.11-.232.056-.086.2-.06.176-.204l-.145-.646c-.015-.075-.056-.113-.08-.102-.486.188-.862.376-1.318.549-.04.016-.095.037-.15.016L4.756 4.5c.04.344.08.667.11.866.006.038 0 .06-.024.06-.15 0-.291.112-.376.274-.135.236-.25.452-.466.548a.32.32 0 0 0 .2.189c.065.027.136.016.2.059 0 .027-.014.043-.024.07-.176.333.045.785-.29 1.027.15.07.37 0 .495-.145l.025.01c-.095.232-.13.496-.12.754 0 0 .01.06-.015.135 0 0-.025.086-.04.123.43-.075.596-.672.626-.774l.04.01s-.145.43-.02.619c.03.043.075.086.125.08.05-.21.16-.467.336-.613.16.017.325.103.486.173.095-.248-.11-.608-.11-.608l.015-.017.025.033s.135.156.2.215c.08.06.326.113.456.027.05-.032.12-.102.135-.156-.43.027-.456-.549-.661-.823l.015-.016c.11.059.16.215.27.274l.591.13c.04.01.055-.06.055-.06.005-.022.06-.248.03-.36-.065-.044-.095.07-.15.07-.15-.044-.24-.06-.405-.13l-.271-.58c-.015-.033.005-.05.005-.05Zm-.215-.377c0 .103-.065.172-.16.172-.08 0-.15-.07-.15-.172 0-.102.064-.172.15-.172.09 0 .16.075.16.172Z" fill="#000"/><path d="M6.805 10.751a1.713 1.713 0 0 1-.531-.161s-.04-.027-.04.016v.269c0 .909-.038 1.294-.266 2.19-.08.247-.125.532-.175.774-.015.08-.11.15-.17.156-.22.011-.39 0-.581 0-.065 0-.035-.048-.035-.048.205-.393.666-.71.59-1.194-.2-1.297-.56-2.05-.76-3.185-.076-.436-.086-.877.04-1.243.035.178.235.344.395.339.065-.248.206-.651.3-.667.11-.016.482.193.482.193.11-.107.135-.268.145-.398.12.06.245.086.406.043.28-.086.32-.182.415-.295.242.877.815.18.515.894a2.634 2.634 0 0 1-.004.01c-.081.161.516-.462.541-.474 0 0 .015-.005.015 0 .01.188.005.463.08.597 0 0 .015.038.04 0 .076-.129.206-.463.346-.49-.005.216.045.533.13.544.076.005.146-.205.18-.296.04-.108.096-.194.151-.194.015.189.08.474.225.474.07 0 .05-.13.07-.232.026-.172.106-.215.106-.215.045.156.1.275.215.355.035.027.08.033.08-.037 0-.151.03-.286.085-.34a.41.41 0 0 0 .06.108c.066.092.13.135.231.103a.153.153 0 0 0 .09-.119c-.075-.124-.175-.323-.19-.468-.025-.215.065-.403.23-.49.12-.075.296-.086.406.017.07.064.12.156.12.263 0 .086-.035.172-.11.215a.159.159 0 0 1-.18-.01c-.05-.038-.09-.119-.13-.146-.04.103.024.216.08.291.11.134.255.102.31.06.35-.275.28-.555.496-1.12a1.9 1.9 0 0 1 .185-.366c.01-.016.02-.027.025-.043a.944.944 0 0 1 .797-.457c.53 0 .957.463.957 1.028a1.074 1.074 0 0 1-.321.774c-.07.065-.085.124-.05.156.11.086.135.102.215.205.336.435.486.941.677 1.447.05.124.115.274.2.36.145.15.28.205.47.232.016 0-.1.156-.014.215.176.117.207.38.19.72-.001.026-.033.513.015.63.05.119.1.253.23.366.09.08.16.118.216.194-.346.199-.27.538-.28.71-.01.054-.056.059-.056.059l-.711.118c-.06.011-.1-.016-.035-.097.175-.22.386-.44.51-.672a.942.942 0 0 0-.11-.258c-.23-.398-.445-.764-.66-1.173-.026-.048-.096-.06-.096-.06-.526-.101-1.127-.274-1.518-.537-.03-.011-.024.027-.024.027 0 .107-.01.355.035.425.3.479.18.645.18 1.081l.025.511s0 .016-.005.027c-.01.016-.035.016-.035.016l-.691.172c-.015.006-.04 0-.056-.021-.02-.027.005-.065.005-.065l.446-.72c.025-.162-.08-.259-.15-.388a1.892 1.892 0 0 0-.486-.479c-.145-.194-.155-.409-.185-.532-.01-.043-.055-.027-.095.01a1.354 1.354 0 0 0-.246.36c-.06.143.245.653.04 1.093-.09.194-.025.436-.04.65-.015.044-.055.065-.105.07l-.726.028c-.045 0-.04-.054-.015-.086l.51-.668c.04-.059 0-.096-.014-.118a4.983 4.983 0 0 1-.577-1.011c-.11.016-.285.075-.31.188-.097.467-.513.939-.842 1.35-.055.06-.035.135-.07.226-.055.146-.13.312-.22.436 0 0-.015.027-.04.005l-.486-.42c-.04-.037-.02-.09-.02-.09.045-.103.145-.124.24-.189.13-.086.266-.172.381-.317a.156.156 0 0 0 .03-.065c.055-.377.17-.726.25-1.092.02-.113-.095-.086-.095-.086-.16.027-.42.108-.856.065-.04-.006-.05.016-.085.096-.163.416-.216 1.029-.451 1.577-.08.156-.095.37-.19.516 0 0-.016.022-.046-.005l-.415-.393-.025-.027c-.04-.06.08-.124.125-.161.11-.092.285-.178.31-.36.03-.275-.07-.442-.14-.679-.05-.166-.05-.382-.04-.554-.015-.037-.035-.043-.035-.043Zm4.152-2.63c-.01.01-.014.021.006.026.145 0 .31-.102.445-.204.17-.118.32-.323.441-.511a.513.513 0 0 0 .366.156c.3 0 .54-.258.54-.581 0-.323-.24-.581-.54-.581h-.055c-.24.016-.406.161-.566.479-.135.274-.31.855-.621 1.2l-.016.016Z" fill="#000"/><path d="m10.534 8.09-3.549-.292c-.1.475-.275 1.433-.17 1.463.133.038 3.295-.028 3.502-.378.166-.279.214-.645.217-.792Z" fill="#000"/></svg>