<!-- by TradingView --><svg width="18" height="18" viewBox="0 0 18 18" xmlns="http://www.w3.org/2000/svg"><path fill="#F0F3FA" d="M0 0h18v18H0z"/><path d="M10.89 7.65A2.27 2.27 0 0 0 9.13 6.5h-.28c-.66.06-1.2.38-1.6.96-.22.3-.4.6-.56.92l-.44.9a6 6 0 0 1-.5.87c-.12.18-.26.34-.41.48-.32.29-.7.44-1.13.45a1.78 1.78 0 0 1-1.33-.65 2.17 2.17 0 0 1-.5-1.56c.05-.64.3-1.17.77-1.57.27-.21.57-.33.9-.37.33-.03.64.03.93.18.3.15.56.4.8.74l.23.39c.02.04.04.04.06 0l.02-.03a.11.11 0 0 0 0-.1c-.23-.43-.5-.75-.8-.97a1.8 1.8 0 0 0-2.2.05c-.23.17-.42.4-.56.66-.21.38-.3.8-.28 1.27a2.28 2.28 0 0 0 .88 1.73c.3.22.64.34 1 .35.73.04 1.34-.33 1.84-1.12.12-.2.24-.41.34-.62l.56-1.15c.13-.26.28-.5.45-.74.16-.22.33-.4.52-.54a1.9 1.9 0 0 1 2.56.23 3.18 3.18 0 0 1 .44.55l.02-.01a.25.25 0 0 0 .04-.11l-.01-.04Z" fill="url(#a)"/><path d="M3.87 6.53a2.2 2.2 0 0 0-1.5 1.07c-.2.32-.32.7-.37 1.1v.58c.1.77.43 1.37.99 1.8a2.06 2.06 0 0 0 2.76-.27c.17-.19.32-.4.46-.63.16-.26.29-.51.4-.75l.5-1.03c.12-.23.26-.45.4-.66.36-.49.81-.76 1.37-.81h.26l.26.04c.31.08.58.24.8.48.23.23.42.5.58.8.03.04.05.04.07 0v-.02a.12.12 0 0 0 .01-.12 3.14 3.14 0 0 0-.58-.8c-.2-.18-.4-.32-.64-.4a1.83 1.83 0 0 0-2.06.56c-.17.18-.3.37-.42.57-.17.3-.33.61-.47.92l-.44.9a4.7 4.7 0 0 1-.44.67 1.94 1.94 0 0 1-2.68.49 2.3 2.3 0 0 1-.91-1.36 2.6 2.6 0 0 1-.08-.8c.04-.68.29-1.25.76-1.7.29-.26.63-.43 1.02-.5h.5c.29.01.58.12.88.32.26.18.5.44.74.8.02.03.04.03.06 0v-.02a.12.12 0 0 0 0-.14A2.29 2.29 0 0 0 4.31 6.5h-.25l-.2.03Z" fill="url(#b)"/><path d="M4.22 9.4h.02a143.09 143.09 0 0 1 .48-1.28.28.28 0 0 1-.06-.08V8h.55c.01 0 .02 0 .02.02s0 .04-.02.05a.27.27 0 0 0-.13.13A668.28 668.28 0 0 1 4.31 10a.46.46 0 0 1-.18 0s-.02 0-.02-.02L3.37 8.2a.27.27 0 0 0-.13-.14c-.02 0-.02-.02-.02-.04s0-.03.02-.03h.53l.02.01v.03a.27.27 0 0 1-.06.08 143.03 143.03 0 0 1 .5 1.29ZM13.34 9.67h1c.03 0 .05-.03.06-.06l.03-.1c0-.02.02-.03.04-.02.02.01.03.03.03.06a16.46 16.46 0 0 0-.02.45 340 340 0 0 1-1.62 0 .04.04 0 0 1-.01-.04l.01-.03.08-.06c.01-.01.06-.03.06-.06V8.15c0-.02-.05-.03-.07-.04a.1.1 0 0 1-.04-.02c-.07-.06-.06-.09.03-.09h.48c.02 0 .02.01.02.03a.16.16 0 0 1-.08.08.04.04 0 0 0-.01.03l-.02.18v1.32s.01.03.03.03Z" fill="#2C7299"/><path fill-rule="evenodd" d="M9.07 9.95a.18.18 0 0 0-.05-.06A3.26 3.26 0 0 1 9 9.33v-.01c.24 0 .43 0 .57-.02a.64.64 0 0 0 .42-.2.66.66 0 0 0 .17-.47c0-.23-.08-.4-.22-.5A.86.86 0 0 0 9.46 8a35.02 35.02 0 0 0-.9.03l.01.03.03.03a.2.2 0 0 1 .05.05l.01.03v1.66l-.01.04-.03.02a.08.08 0 0 0-.04.04.1.1 0 0 0 0 .05c0 .01 0 .02.02.02h.45l.02-.02v-.03Zm-.06-1.58c-.02 0-.02.01-.02.03v.58c0 .02 0 .02.02.02h.52c.1 0 .17-.02.23-.08.06-.05.1-.12.1-.2v-.06a.26.26 0 0 0-.1-.2.33.33 0 0 0-.23-.09h-.52Z" fill="#2C7299"/><path d="M15.26 7.13c-.36-.37-.8-.58-1.33-.63h-.35c-.41.04-.76.18-1.05.4-.37.32-.73.8-1.05 1.47l-.5 1.03c-.1.21-.23.44-.39.69-.17.26-.37.48-.6.65a1.63 1.63 0 0 1-2.14-.13 3.34 3.34 0 0 1-.64-.88c-.02-.03-.03-.03-.05 0a.59.59 0 0 0-.04.08c-.01.03-.01.05 0 .07.16.3.32.52.47.68a1.83 1.83 0 0 0 1.94.57 2 2 0 0 0 .94-.65 5.4 5.4 0 0 0 .6-.95l.5-1.07c.17-.34.33-.61.48-.82.16-.24.33-.42.5-.56.35-.3.76-.44 1.2-.43.23 0 .42.03.56.07.53.17.94.5 1.23 1.02.16.28.25.56.29.84.02.23.03.43.02.6-.04.6-.25 1.1-.63 1.52a1.9 1.9 0 0 1-2.4.4 2.5 2.5 0 0 1-.9-.92l-.06.1v.03c.3.5.69.84 1.16 1.04.55.22 1.1.2 1.64-.06.55-.27.95-.73 1.18-1.38.13-.35.18-.71.15-1.09a2.63 2.63 0 0 0-.73-1.7Z" fill="url(#c)"/><path d="M8.4 11.4a2.41 2.41 0 0 1-1.32-1.1l.07-.14c.18.29.37.53.59.72a1.88 1.88 0 0 0 2.35.14c.19-.14.36-.31.53-.53.15-.2.3-.43.46-.72.1-.17.22-.44.4-.8.17-.37.3-.64.4-.8.3-.55.62-.93.98-1.14a1.82 1.82 0 0 1 2.37.47c.4.5.57 1.1.5 1.78-.03.33-.13.64-.3.92-.32.55-.78.88-1.38 1a2.38 2.38 0 0 1-.77-.05 2.4 2.4 0 0 1-1.37-1.26.12.12 0 0 1 0-.12l.01-.02c.02-.04.04-.04.06 0 .06.12.15.26.28.45.26.37.57.63.95.77s.77.13 1.16-.01c.3-.11.55-.3.76-.55.2-.26.35-.56.42-.9.13-.57.06-1.1-.2-1.58-.16-.3-.38-.55-.67-.73a1.65 1.65 0 0 0-.9-.27c-.49 0-.91.2-1.28.58-.13.14-.25.3-.37.48a44.83 44.83 0 0 0-.79 1.52c-.14.3-.29.57-.44.82-.28.44-.6.75-.97.94-.5.24-1 .28-1.53.13Z" fill="url(#d)"/><defs><linearGradient id="a" x1="1.79" y1="8.99" x2="10" y2="10.43" gradientUnits="userSpaceOnUse"><stop stop-color="#1C4D90"/><stop offset="1" stop-color="#88D325"/></linearGradient><linearGradient id="b" x1="1.79" y1="8.99" x2="10" y2="10.43" gradientUnits="userSpaceOnUse"><stop stop-color="#1C4D90"/><stop offset=".58" stop-color="#5A9A52"/><stop offset="1" stop-color="#88D325"/></linearGradient><linearGradient id="c" x1="7.08" y1="11.09" x2="16.34" y2="9.81" gradientUnits="userSpaceOnUse"><stop stop-color="#225BA0"/><stop offset="1" stop-color="#90CB33"/></linearGradient><linearGradient id="d" x1="7.08" y1="11.09" x2="16.34" y2="9.81" gradientUnits="userSpaceOnUse"><stop stop-color="#225BA0"/><stop offset="1" stop-color="#90CB33"/></linearGradient></defs></svg>