<!-- by TradingView --><svg width="18" height="18" viewBox="0 0 18 18" fill="none" xmlns="http://www.w3.org/2000/svg">
<rect width="18" height="18" fill="#F0F3FA"/>
<path fill-rule="evenodd" clip-rule="evenodd" d="M9 15C12.3137 15 15 12.3137 15 9C15 7.68877 14.6824 6.76844 13.9688 5.78125L8.72453 14.9938C8.81584 14.9979 8.90768 15 9 15ZM8.05269 14.9256L4.39215 8.00002H3.08296C3.0284 8.32522 3 8.65929 3 9C3 11.9914 5.18909 14.4714 8.05269 14.9256ZM3.3414 7.00002H5.46875L8.5 12.7812L13 4.59375C11.9209 3.55265 10.6179 3 9 3C6.38755 3 4.16507 4.66962 3.3414 7.00002Z" fill="#008F89"/>
</svg>
