<!-- by TradingView --><svg width="18" height="18" viewBox="0 0 18 18" xmlns="http://www.w3.org/2000/svg"><path fill="#F0F3FA" d="M0 0h18v18H0z"/><path d="M4.7 4.95 4 6.15 8.28 14h1.26L4.7 4.95Z" fill="url(#a)"/><path d="m6.6 6.94 1.72-2.92 3.55 1.63.44.75-2.97 4.2-2.75-3.66Z" fill="url(#b)"/><path d="m9.3 6-1-2h2.88l.97 1.66H14L11.29 11H9.06l2.63-5H9.3Z" fill="url(#c)"/><path d="M9.52 14 4.68 4.94h3.77L9.46 7H7.74l2.76 5.14L9.52 14Z" fill="url(#d)"/><defs><linearGradient id="a" x1="2.78" y1="6.26" x2="7.14" y2="13.77" gradientUnits="userSpaceOnUse"><stop stop-color="#B47933"/><stop offset=".19" stop-color="#935C2C"/><stop offset=".53" stop-color="#854E2B"/><stop offset=".74" stop-color="#EEAA37"/><stop offset="1" stop-color="#A3672C"/></linearGradient><linearGradient id="b" x1="6.89" y1="6.39" x2="12.07" y2="6.37" gradientUnits="userSpaceOnUse"><stop stop-color="#E7E7E8"/><stop offset="1" stop-color="#6D6E71"/></linearGradient><linearGradient id="c" x1="12.77" y1="4.38" x2="10.97" y2="10.58" gradientUnits="userSpaceOnUse"><stop stop-color="#B51926"/><stop offset=".2" stop-color="#AA1825"/><stop offset=".5" stop-color="#ED1C24"/><stop offset=".88" stop-color="#DE1B25"/><stop offset="1" stop-color="#CE1B26"/></linearGradient><linearGradient id="d" x1="4.44" y1="5.7" x2="9.47" y2="13.74" gradientUnits="userSpaceOnUse"><stop stop-color="#C5682A"/><stop offset=".29" stop-color="#E29733"/><stop offset=".63" stop-color="#F3E58B"/><stop offset=".81" stop-color="#E1AB56"/><stop offset="1" stop-color="#CE742A"/></linearGradient></defs></svg>