<!-- by TradingView --><svg width="18" height="18" viewBox="0 0 18 18" xmlns="http://www.w3.org/2000/svg"><path fill="#F0F3FA" d="M0 0h18v18H0z"/><path fill-rule="evenodd" d="M4.39 7H3l1.47 5h1.15L7.1 7H5.78l-.74 3.2L4.39 7Zm2.63 1.46 1.32.18c.04-.19.24-.57.67-.57.52 0 .53.58.54.64-.19.1-.62.26-1.4.5-1.14.35-1.2.96-1.2 1.61 0 .66.4 1.18 1.41 1.18.5 0 .93-.35 1.23-.72l.15.72h1.31l-.11-.23a1.9 1.9 0 0 1-.3-.82V8.46C10.64 7.97 10.49 7 9 7s-1.94.97-1.99 1.46Zm2.53 2V9.6a2.1 2.1 0 0 1-.63.3c-.79.23-.88 1.12-.13 1.12.42 0 .65-.3.76-.58Zm1.45.16 1.4-.24c.02.2.17.61.7.61.65 0 .86-.76-.06-.92-.92-.16-1.85-.53-1.85-1.58 0-1.06.98-1.49 1.85-1.49.87 0 1.43.18 1.82 1.26l-1.26.17c-.08-.16-.32-.47-.69-.47-.37 0-.45.29-.44.43.01.12.18.38.68.43.63.05 1.85.3 1.85 1.56S13.88 12 12.91 12c-.96 0-1.66-.3-1.91-1.38Z" fill="#A2D027"/><path d="M8 3c.22.7.94 2.5 2.08 4 .74-.15 2.56-.68 3.92-1.65l-3.48.79A13.85 13.85 0 0 1 8 3Zm1.93.14c.12.4.53 1.42 1.18 2.28a6.47 6.47 0 0 0 2.24-.94l-1.99.45a7.9 7.9 0 0 1-1.43-1.8Z" fill="#625C5C"/></svg>