<!-- by TradingView --><svg width="18" height="18" viewBox="0 0 18 18" xmlns="http://www.w3.org/2000/svg"><path fill="#F0F3FA" d="M0 0h18v18H0z"/><path d="M4.2 8H3l1.2 3h1.2L4.2 8Z" fill="#2D2D2C"/><path d="m5.55 10.71-.6-1.57L5.8 7H7l-1.45 3.71Z" fill="#F39115"/><path d="M7.33 11H6l1.33-3h1.34L10 11H8.67L8 9.1 7.33 11Z" fill="#2D2D2C"/><path d="m12.36 8.4-.43.55c-.2-.13-.63-.4-.86-.4-.14 0-.28.06-.28.27 0 .2.28.2.71.4.57.28 1 .55 1 .96 0 .41-.43.82-1.43.82-.8 0-1.38-.27-1.57-.4l.57-.55c.24.13.72.4 1 .4.29 0 .29-.13.29-.27 0-.16-.43-.23-.57-.27-.46-.15-1.15-.55-1.15-.96 0-.68.72-.95 1.43-.95.57 0 1.1.27 1.29.4Z" fill="#2D2D2C"/><path d="M12 8.82V8h3v.82h-1V11h-1V8.82h-1Z" fill="#2D2D2C"/></svg>