<!-- by TradingView --><svg width="18" height="18" viewBox="0 0 18 18" xmlns="http://www.w3.org/2000/svg"><path fill="#F0F3FA" d="M0 0h18v18H0z"/><path d="M8.13 9.5c0 .93.88 1.59 1.73 1.28.4-.14.7-.51.82-.92h1.13a2.42 2.42 0 0 1-2.1 2.13c-.46.05-.9-.03-1.31-.23-.5-.25-.9-.67-1.13-1.18A2.57 2.57 0 0 1 8.4 7.24c.41-.2.85-.28 1.31-.22a2.42 2.42 0 0 1 2.1 2.12h-1.13c-.13-.4-.43-.78-.82-.92-.85-.3-1.73.35-1.73 1.28ZM4.57 10.36 5.87 7h1.26l-1.98 5H3.98L2 7h1.26l1.3 3.36h.01ZM14.12 10.88 13.67 12V12h1.24l.91-2.23.06-.15a1.98 1.98 0 0 0-.89-2.4c-.41-.23-.9-.28-1.35-.15-.7.2-1.23.84-1.33 1.6a2 2 0 0 0 .74 1.84c.32.24.67.36 1.07.37Zm.84-1.94c0 .47-.37.85-.81.85a.83.83 0 0 1-.82-.85c0-.47.37-.85.82-.85.44 0 .8.38.8.85Z" fill="#00148D"/></svg>