<!-- by TradingView --><svg width="18" height="18" viewBox="0 0 18 18" xmlns="http://www.w3.org/2000/svg"><path fill="#F0F3FA" d="M0 0h18v18H0z"/><path d="M3.88 9.2c.74.3 1.4.74 1.97 1.23.79.66 1.74 1.92 2.87 2.05l.28.02c.54 0 1.04-.11 1.54-.3-.18.45-.27.84-.47 1.28-.12.27-.36.52-.68.52-.53 0-.78-.84-.96-1.22-1.28-.35-2.13-1.26-3.08-2.1-.7-.6-1.48-1.1-2.35-1.37.94-.63 2-1.11 3.12-1.38-.3-.65-.62-1.31-.94-1.95-.15-.3-.36-.52-.58-.78a.12.12 0 0 1-.03-.07c0-.07.05-.13.13-.13h3.08a.1.1 0 0 1 .08.06l.01.04c0 .2-.77.48-.52 1.09l.67 1.57A4.1 4.1 0 0 1 11 9.8c.47-1.18.9-2.38 1.38-3.56.22-.54-.22-.75-.55-1.06a.1.1 0 0 1-.03-.08c0-.05.04-.1.1-.1h2a.1.1 0 0 1 .1.14c-.06.18-.39.4-.51.56-.1.13-.2.3-.29.53-.68 1.58-1.35 3.2-2.03 4.77-.63-1.37-2.03-2.85-3.7-2.85a7.5 7.5 0 0 0-3.59 1.06Z" fill="#030708"/><path d="M10 10.94c-.73.23-1.5-.21-2.07-.65-.7-.55-1.23-.96-1.93-1.26.82-.16 1.67.39 2.3.84.54.4 1.1.75 1.7 1.07Z" fill="#030708"/></svg>