<!-- by TradingView --><svg width="18" height="18" viewBox="0 0 18 18" xmlns="http://www.w3.org/2000/svg"><path fill="url(#a)" d="M0 0h18v18H0z"/><path d="M6.37 5.22s-2.01 6.96-.86 8.16c0 0 .67 1 1.22.14 0 0 3.26-5.8 7.12-7.45 0 0 .12-.97-1.22-.38 0 0-2.73.83-5.69 5.96 0 0-.92 1.78-.95-.15 0 0 .26-3.47 1.16-5.67 0 0 0-1.34-.78-.61" fill="#00B6ED"/><path d="M7.18 6.1c-.3.9-.53 1.8-.69 2.71v.13c-.12.7-.2 1.4-.28 2.15-.05.4-.05.9.08 1.13-.02.06.43-.45.58-.8.45-.77.95-1.51 1.49-2.22v-.02A15.66 15.66 0 0 1 9.7 7.64a.97.97 0 0 1-.21.2A10.7 10.7 0 0 1 11.63 6c.34-.22.71-.4 1.1-.53.33-.13.94-.27 1.2.2.05.13.08.27.07.4-.26.3-.24.17-.37.28a9.59 9.59 0 0 0-1.64 1.06c-.67.54-1.3 1.13-1.86 1.78a25.25 25.25 0 0 0-2.98 4.17A24.3 24.3 0 0 1 10.25 9c.63-.72 1.34-1.37 2.1-1.95.4-.29.82-.54 1.26-.76.1-.1.23 0 .33-.27a.65.65 0 0 0-.13-.4c-.21-.24-.55-.2-.79-.14-.24.07-.47.16-.7.26.34-.12.66-.29 1.05-.28.37-.07.82.62.3.76l-.3.16c-.32.15-.6.36-.89.54h.03l-.22.17c-.71.5-1.34 1.1-1.95 1.73l-.04.05C8.72 10.39 7.87 12.3 6.3 14c-1.46-.3-1.3-1.9-1.26-2.86a29.54 29.54 0 0 1 .66-3.8v.04c-.28 1.58-.7 3.46-.55 5.2.08.58.44 1.25 1.1 1.33-.68-.1-.98-.79-1.03-1.28-.18-1.53.15-3.1.45-4.54l-.02.06.07-.25c0 .07-.01.15-.03.22-.25 1.37-.51 2.77-.43 4.17 0 .64.4 1.46 1.04 1.49.52-.28.76-1.14 1.2-1.66 1.61-2.36 3.47-4.76 6.16-6.1.15.11.02-.4-.16-.36-.22-.05-.5.03-.75.14-.54.2-1 .5-1.46.83-.9.68-1.69 1.51-2.4 2.4-.21.25-.38.47-.4.45a13.55 13.55 0 0 1 2.72-2.9c.45-.33.92-.64 1.44-.84.45-.3 1.32-.23 1.14.32a9.66 9.66 0 0 0-.59.32c.2-.16.7-.2.64-.46-.02-.31-.36-.46-.65-.38-.58.14-1.14.4-1.63.75-1.2.81-2.17 1.85-3.03 2.96a21.3 21.3 0 0 0-1.2 1.76l-.55.92c-.1.29-.65.74-.73.17-.14-1.42.16-2.65.31-3.85.1-.6.23-1.2.4-1.78.04-.26.28-.67.2-.82-.05-.3-.14-.55-.25-.42-.07.04-.15.12-.19.13l.07-.07c.23-.2.27-.13.37.19.11.29 0 .48-.11.82-.18.6-.32 1.2-.43 1.81-.18 1.22-.44 2.5-.36 3.86.03.16.08.4.24.39.15-.04.27-.2.37-.34.2-.3.36-.63.56-.93.37-.62.77-1.22 1.2-1.8a13.27 13.27 0 0 1 3.13-3.07c.17-.11.34-.22.52-.31-.58.3-1.12.68-1.61 1.1-.93.85-1.76 1.8-2.48 2.82-.36.5-.7 1.03-1.02 1.57-.26.46-.8 1.4-.84.46a20.22 20.22 0 0 1 1.12-6.15c.02-.08.04.19-.06.4m.97 5.24c.24-.36.5-.7.76-1.05a29.47 29.47 0 0 0-2.15 3.15c-.17.43-.73.55-1.04.18.2.23.6.35.84.1.24-.23.35-.54.53-.8.34-.54.7-1.08 1.06-1.59" fill="#90D4F6"/><path d="M6.68 13.38a27.75 27.75 0 0 1 3.48-4.7 15 15 0 0 1 2.26-1.98 12.4 12.4 0 0 0 .7-.47c1.28-.38.14-.78-.5-.34a.5.5 0 0 0-.14.07.8.8 0 0 0 .14-.05c.76-.43 1.67-.05.4.35a12.54 12.54 0 0 0-2.2 1.68 22.39 22.39 0 0 0-2.73 3.22c-.6.8-1.13 1.73-1.64 2.45-.28.28-.72-.1-.92-.5a3.16 3.16 0 0 1-.21-1.36c.02-.78.1-1.56.23-2.32.11-.66.26-1.32.38-1.92a74.87 74.87 0 0 1-.02.06c-.3 1.4-.59 2.82-.6 4.21-.01.54.01 1.1.27 1.5.27.48.85.7 1.1.1" fill="#AFDFF9"/><defs><linearGradient id="a" x1="3.35" y1="3.12" x2="21.9" y2="24.43" gradientUnits="userSpaceOnUse"><stop stop-color="#1A1E21"/><stop offset="1" stop-color="#06060A"/></linearGradient></defs></svg>