<!-- by TradingView --><svg width="18" height="18" viewBox="0 0 18 18" xmlns="http://www.w3.org/2000/svg"><path fill="#F0F3FA" d="M0 0h18v18H0z"/><path d="M4.85 5.74A5.77 5.77 0 0 0 3 9.2c.22 2.91 7.05 5.88 10.16 2.68a.7.7 0 0 0 .2-.45c.1-1.94-.36-5.2-3.04-6.2-2.86-1.08-4.85-.07-5.47.52Z" fill="#B5DDD4"/><path d="M3 9.2c.02.2.06.4.14.59 1 2.7 7.12 5.06 10.02 2.08a.7.7 0 0 0 .2-.45v-.44c-.59 1.03-1.45 1.95-3.63 2.01-2.19.06-5.57-1-6.73-3.8Z" fill="url(#ans2sw5hn)"/><path d="M4.85 5.74c-.12.11-.24.23-.34.35.5-.39.97-.67 1.49-.86a5.5 5.5 0 0 1 2.93-.24c1.54.29 3.1 1.29 4.12 3.5-.39-1.38-1.2-2.7-2.73-3.28-2.86-1.07-4.85-.06-5.47.53Z" fill="url(#bns2sw5hn)"/><path d="M7.3 13.9c.73.88 1.57 1.04 1.9 1.02.66 0 1.6-.39 2.44-.92.95-.59 1.96-1.44 2.11-2.63a3.08 3.08 0 0 0-.21-1.51c-.75-1.99-2.92-2.9-4.93-2.77-.54.03-1.15.1-1.57.5-1.76 1.62-.7 5.28.27 6.31Z" fill="url(#cns2sw5hn)"/><path d="M13.46 9.89c-.73-1.95-2.86-2.85-4.85-2.72-.54.03-1.12.11-1.51.47l-.06-.06.06.06c-.86.79-1.04 2.08-.87 3.32.08.61.25 1.21.45 1.72.2.5.45.92.68 1.17.71.86 1.53 1 1.84.98.32 0 .7-.09 1.12-.25.42-.16.86-.39 1.28-.65.95-.59 1.93-1.42 2.07-2.58a3 3 0 0 0-.2-1.46ZM8.6 7c2.03-.12 4.25.8 5.02 2.83.16.44.3 1.01.21 1.55-.15 1.23-1.2 2.1-2.14 2.7-.43.26-.88.49-1.3.65-.43.17-.84.27-1.18.27-.36.03-1.23-.15-1.97-1.04-.25-.27-.5-.7-.7-1.22a7.37 7.37 0 0 1-.47-1.76c-.17-1.26 0-2.62.92-3.46.44-.4 1.07-.48 1.61-.52Z" fill="#004821"/><path d="M9.2 14.92c.66 0 1.6-.39 2.44-.92A3.97 3.97 0 0 0 13 12.58c.06-.1.03-.13-.03-.13-.18 0-.35.13-.5.2-1.85.92-3.54.63-5.07.37-.3-.03-.47 0-.39.35.11.3.27.53.5.75.66.69 1.4.82 1.7.8Z" fill="#D1EAE7"/><ellipse cx="11.48" cy="6.55" rx="2.52" ry="2.55" fill="url(#dns2sw5hn)"/><path d="M14 6.55c-.13-1.57-1.26-2.47-2.52-2.47-.3 0-.6.08-.87.22-.46.23-.62.6-.18 1.04l-.98-.3A2.5 2.5 0 0 1 14 6.55Z" fill="url(#ens2sw5hn)"/><path d="M13.06 8.54c-.43.36-.98.57-1.58.57A2.57 2.57 0 0 1 9.5 4.96c.26.06.53.15.8.25a4.09 4.09 0 0 1 2.02 1.61c.38.53.7 1.14.97 1.05.78-.3.65-1.66.65-1.66.16.64-.1 1.69-.89 2.33Z" fill="url(#fns2sw5hn)"/><path d="M12.36 8.92a2.3 2.3 0 0 1-1.68.06c-.89-.29-1.63-1.25-1.5-1.65.23-.7 3.02.24 3.44 1.13.12.26-.04.36-.26.46Z" fill="#008049"/><path d="M12.38 8.88a2.3 2.3 0 0 1-1.69.04c-.88-.29-1.58-1.19-1.45-1.59a.28.28 0 0 1 .06-.1c.41 1.55 2.42 2.08 3.32 1.23.12.26-.03.32-.24.42Z" fill="#006A30"/><path d="M12.64 8.7a.3.3 0 0 0-.03-.18c-.42-.85-3.17-1.78-3.4-1.11a.5.5 0 0 0 .04.33c-.08-.16-.11-.3-.08-.4.24-.71 3.03.23 3.45 1.12.05.1.05.18.02.25Z" fill="#00290D"/><path d="M9.97 8.03c.1 0 .06-.13.02-.18-.3-.43-.42-.9-.46-1.43 0-.02-.04-.02-.05 0-.08.25 0 1.63.5 1.61Z" fill="url(#gns2sw5hn)"/><defs><linearGradient id="ans2sw5hn" x1="8.32" y1="7.07" x2="8.18" y2="13.25" gradientUnits="userSpaceOnUse"><stop offset=".48" stop-color="#163434" stop-opacity="0"/><stop offset="1" stop-color="#17AD97"/></linearGradient><linearGradient id="bns2sw5hn" x1="11.71" y1="6.29" x2="8.04" y2="10.14" gradientUnits="userSpaceOnUse"><stop stop-color="#00ACA0"/><stop offset="1" stop-color="#90CCBE"/></linearGradient><linearGradient id="cns2sw5hn" x1="9.01" y1="7.09" x2="9.96" y2="14.92" gradientUnits="userSpaceOnUse"><stop stop-color="#29AC85"/><stop offset=".43" stop-color="#61BBA5"/><stop offset="1" stop-color="#29AC85"/></linearGradient><linearGradient id="dns2sw5hn" x1="11.02" y1="4.1" x2="13.23" y2="8.21" gradientUnits="userSpaceOnUse"><stop stop-color="#7FC8C1"/><stop offset="1" stop-color="#B6DEE0"/></linearGradient><linearGradient id="ens2sw5hn" x1="11.72" y1="4" x2="9.96" y2="5.21" gradientUnits="userSpaceOnUse"><stop stop-color="#006B80"/><stop offset="1" stop-color="#0076AD"/></linearGradient><linearGradient id="fns2sw5hn" x1="9.15" y1="5.66" x2="13.25" y2="8.25" gradientUnits="userSpaceOnUse"><stop stop-color="#2CB1A4"/><stop offset="1" stop-color="#22AFA1"/></linearGradient><linearGradient id="gns2sw5hn" x1="9.45" y1="6.54" x2="9.97" y2="7.94" gradientUnits="userSpaceOnUse"><stop offset=".46" stop-color="#fff"/><stop offset="1" stop-color="#fff" stop-opacity=".25"/></linearGradient></defs></svg>