<!-- by TradingView --><svg width="18" height="18" viewBox="0 0 18 18" xmlns="http://www.w3.org/2000/svg"><path fill="url(#a)" d="M0 0h18v18H0z"/><path d="M8.5 12H6.15a.03.03 0 0 1-.02-.01.03.03 0 0 1 0-.03l3.35-5.95A.03.03 0 0 1 9.5 6h2.36a.03.03 0 0 1 .01.04l-3.35 5.95-.02.01ZM4.94 8.42a.03.03 0 0 0 .04-.01L6.3 6.08a.16.16 0 0 1 .05-.06.15.15 0 0 1 .08-.02H8.7a.02.02 0 0 1 .02.01.02.02 0 0 1 0 .03l-3.35 5.94-.02.01L2 6.03A.03.03 0 0 1 2.01 6h2.31a.12.12 0 0 1 .1.06l.53.93a.17.17 0 0 1 0 .17l-.31.56a.18.18 0 0 0 0 .17c.05.1.1.17.13.25.08.15.14.26.17.28Zm8.1 1.16h.02c.03.02.09.13.17.28l.13.25a.18.18 0 0 1 0 .17l-.31.56a.17.17 0 0 0 0 .17l.52.93a.13.13 0 0 0 .11.06h2.3l.02-.01a.03.03 0 0 0 0-.03l-3.35-5.94-.01-.01h-.01l-3.36 5.95a.02.02 0 0 0 0 .03h2.3l.08-.01a.16.16 0 0 0 .05-.06l1.32-2.33a.03.03 0 0 1 .03-.01Z" fill="#fff"/><defs><linearGradient id="a" x1="0" y1="9" x2="17.54" y2="9" gradientUnits="userSpaceOnUse"><stop stop-color="#0CCAFE"/><stop offset="1" stop-color="#4263FF"/></linearGradient></defs></svg>