<!-- by TradingView --><svg width="18" height="18" viewBox="0 0 18 18" xmlns="http://www.w3.org/2000/svg"><path fill="#F0F3FA" d="M0 0h18v18H0z"/><path d="M11.36 12.6c-.87-.46-3.8-.58-4.86-.6.05-.43 1.24-1.25 3.11-.96 1.7.27 2.13.53 2.15.68v.03c-.14.2-.4.67-.4.84Z" fill="url(#axqfxpmls)"/><path d="M12.4 9.23c-.85.17-3 .47-4.87.67-.47.05-.87.1-1.22.1-1.03 0-1.53-.16-1.66-.29 0-.08.04-.34.04-.72 0-.47.59-.9 1.39-.87.8.03 2.23-.12 4.39-.12 2.1 0 2.53.1 2.53.4 0 .23-.35.63-.6.83Z" fill="url(#bxqfxpmls)"/><path d="M12.41 10.07 13 8.44c-.9.64-6.21 1.8-6.91 1.96-.56.11-.76.29-.79.36.1.24.31.87.48 1.21.13.02.57.03.72.03 1.74 0 4.48-1.2 5.91-1.93Z" fill="url(#cxqfxpmls)"/><path d="M8.75 14A5.8 5.8 0 0 1 6 13.29c3.54-.09 5.4-1.07 5.76-1.54l-.48 1.42c-.34.28-1.32.83-2.53.83Z" fill="url(#dxqfxpmls)"/><path d="m15 4-.65 1.07c.11.18.36.63.5.94a43.98 43.98 0 0 0-8.3 2.12c-1.5.6-1.9 1.3-1.9 1.58-.15-.4-.47-1.35-.65-1.87.53-1.97 7.55-3.38 11-3.84Z" fill="url(#exqfxpmls)"/><defs><linearGradient id="axqfxpmls" x1="7.12" y1="12.07" x2="11.79" y2="12.07" gradientUnits="userSpaceOnUse"><stop stop-color="#513420"/><stop offset="1" stop-color="#BA9B84"/></linearGradient><linearGradient id="bxqfxpmls" x1="4.69" y1="9.37" x2="13.15" y2="9.37" gradientUnits="userSpaceOnUse"><stop stop-color="#513420"/><stop offset="1" stop-color="#BA9B84"/></linearGradient><linearGradient id="cxqfxpmls" x1="13.13" y1="8.88" x2="5.14" y2="11.08" gradientUnits="userSpaceOnUse"><stop stop-color="#5E3F28"/><stop offset=".38" stop-color="#A97956"/><stop offset=".66" stop-color="#E0BDA2"/><stop offset=".94" stop-color="#573925"/></linearGradient><linearGradient id="dxqfxpmls" x1="11.79" y1="12.06" x2="6.32" y2="13.83" gradientUnits="userSpaceOnUse"><stop stop-color="#5E3F28"/><stop offset=".38" stop-color="#A97956"/><stop offset=".66" stop-color="#E0BDA2"/><stop offset=".94" stop-color="#573925"/></linearGradient><linearGradient id="exqfxpmls" x1="15" y1="4.73" x2="3.64" y2="7.59" gradientUnits="userSpaceOnUse"><stop stop-color="#5E3F28"/><stop offset=".38" stop-color="#A97956"/><stop offset=".66" stop-color="#E0BDA2"/><stop offset=".94" stop-color="#573925"/></linearGradient></defs></svg>