<!-- by TradingView --><svg width="18" height="18" viewBox="0 0 18 18" xmlns="http://www.w3.org/2000/svg"><path fill="#F0F3FA" d="M0 0h18v18H0z"/><circle cx="9" cy="14" r="1" fill="#038039"/><path fill-rule="evenodd" d="m8.95 4 .16.16a6.6 6.6 0 0 1 1.39 2.06c.4-.3 1.14-.78 2.06-1.15l.28-.12.06.3c.14.68.22 1.61.1 2.56h3l-.12.36a7.99 7.99 0 0 1-2.35 3.44c-.6.47-1.3.83-2.1.93-.74.1-1.56-.02-2.43-.45-.87.43-1.69.55-2.43.45-.8-.1-1.5-.46-2.1-.93a7.99 7.99 0 0 1-2.35-3.44L2 7.81h3a8.4 8.4 0 0 1 .1-2.56l.06-.3.28.12c.84.34 1.53.77 1.95 1.07a6.37 6.37 0 0 1 1.38-1.98L8.95 4Zm.54 7.76c.69.29 1.31.36 1.88.29.69-.1 1.3-.4 1.85-.84a7.4 7.4 0 0 0 2.07-2.87h-2.36c-.05.25-.12.5-.2.74a4 4 0 0 1-1.14 1.77c-.51.45-1.19.77-2.05.87l-.05.04Zm1.48-3.39c0-.59-.11-1.15-.29-1.67a8.8 8.8 0 0 1 1.78-1.05c.15.93.17 2.18-.2 3.27a3.5 3.5 0 0 1-1 1.55c-.3.27-.7.5-1.17.63a4.6 4.6 0 0 0 .88-2.73Zm-.5 0c0 1.37-.63 2.35-1.15 2.87l-.27.25a3.74 3.74 0 0 1-1.67-3.12c0-1.64.95-3.04 1.56-3.67.26.29.6.74.9 1.3.35.68.64 1.5.64 2.37Zm-5.4-.03H2.71a7.4 7.4 0 0 0 2.07 2.88c.54.43 1.16.74 1.85.83.58.07 1.22 0 1.92-.3l-.02-.02c-.9-.1-1.6-.42-2.12-.88a4 4 0 0 1-1.14-1.77 5.8 5.8 0 0 1-.2-.74Zm1.82.03c0 1.18.46 2.1.98 2.72a3.04 3.04 0 0 1-1.14-.62 3.5 3.5 0 0 1-.99-1.55 7.19 7.19 0 0 1-.2-3.27c.74.34 1.33.72 1.66.96a5.27 5.27 0 0 0-.31 1.76Z" fill="#F05A86"/></svg>