<!-- by TradingView --><svg width="18" height="18" viewBox="0 0 18 18" xmlns="http://www.w3.org/2000/svg"><path fill="#F0F3FA" d="M0 0h18v18H0z"/><path d="M3.74 11.98 2 6h1.24l1.06 4.08L5.33 6h1.23L4.8 11.98H3.74ZM7 6.02V7h1.5v5h1V7H11v-.98H7ZM14.4 6H12v5.98h2.7c.72 0 1.3-.83 1.3-1.85 0-.65-.23-1.23-.59-1.56.18-.27.28-.61.28-.98 0-.88-.58-1.59-1.3-1.59ZM13 8V7h1.27c.24 0 .44.22.44.5s-.2.5-.44.5H13Zm0 3V9h1.48c.29 0 .52.45.52 1s-.23 1-.52 1H13Z" fill="url(#aef0hk3cy)"/><defs><linearGradient id="aef0hk3cy" x1="9.16" y1="6" x2="9.16" y2="11.98" gradientUnits="userSpaceOnUse"><stop stop-color="#D60000"/><stop offset="1" stop-color="#C30000"/></linearGradient></defs></svg>