<!-- by TradingView --><svg width="18" height="18" fill="none" xmlns="http://www.w3.org/2000/svg"><path fill="#F0F3FA" d="M0 0h18v18H0z"/><path fill-rule="evenodd" clip-rule="evenodd" d="M9.023 7.143a.446.446 0 0 1-.046 0H8v-.286h.567a.633.633 0 0 1-.067-.285C8.5 6.256 8.724 6 9 6s.5.256.5.572a.633.633 0 0 1-.067.285H10v.286h-.977Zm-.005-.286c.13-.01.232-.134.232-.285 0-.158-.112-.286-.25-.286s-.25.128-.25.286c0 .151.102.275.232.285h.036ZM10.625 7H16l-1.106 1H12v1h1.788l-1.107 1H10.92c.83-1.262.15-2.526-.294-3Zm-3.25 0H2l1.106 1H6v1H4.212l1.107 1H7.08c-.83-1.262-.15-2.526.294-3Zm-.715 4.686-.14-1.33 1.048.551-.407.097c.29.476.986 1.229 1.456.433.07.083.253.249.422.249.17 0 .295-.166.337-.249.45.779 1.23.036 1.565-.433l-.4-.097.94-.552-.048 1.33-.18-.313c-.127.296-.474.939-.837 1.146-.363.208-1.07 1.075-1.377 1.482-.237-.35-.834-1.116-1.322-1.384-.488-.268-.767-.941-.845-1.244l-.212.314Z" fill="#3751A3"/><path fill-rule="evenodd" clip-rule="evenodd" d="M9.169 7.418H8.77v.311c-.122.017-.24.05-.35.096l-.153-.27-.345.204.153.269a1.48 1.48 0 0 0-.257.26l-.264-.155-.2.352.264.155a1.495 1.495 0 0 0-.093.357h-.306v.406h.306c.016.124.048.244.093.356l-.264.155.2.352.264-.156c.074.098.16.186.256.262l-.152.269.345.203.152-.27c.111.047.229.08.351.096v.311h.399v-.31c.122-.018.24-.05.35-.096l.153.268.345-.202-.152-.27a1.48 1.48 0 0 0 .256-.26l.264.155.2-.352-.264-.155c.045-.112.077-.232.093-.357h.306v-.406h-.306a1.498 1.498 0 0 0-.094-.356l.265-.155-.2-.352-.264.156a1.48 1.48 0 0 0-.257-.261l.153-.27-.345-.202-.153.269a1.429 1.429 0 0 0-.35-.096v-.31Zm-.2 2.969c.645 0 1.167-.532 1.167-1.188 0-.655-.522-1.187-1.167-1.187-.644 0-1.166.532-1.166 1.187 0 .656.522 1.188 1.166 1.188Z" fill="#221F1F"/><path d="m8.97 8.248.204.658h.66l-.534.406.204.657-.535-.406-.534.406.204-.657-.534-.406h.66l.204-.658Z" fill="#ED2227"/></svg>