<!-- by TradingView --><svg width="18" height="18" viewBox="0 0 18 18" xmlns="http://www.w3.org/2000/svg"><path fill="#F0F3FA" d="M0 0h18v18H0z"/><path fill-rule="evenodd" d="M13.84 11.8c-.3-.18-.81-.4-1.48-.6a4.09 4.09 0 0 1-2.39 1.67 9.66 9.66 0 0 0 3.87-1.08ZM8.88 13H9c1.92 0 3.66-.44 4.92-1.16C15.22 11.12 16 10.11 16 9c0-2.2-3.13-4-7-4a11.83 11.83 0 0 0-.12 0C5.07 5.04 2 6.81 2 9c0 1.1.78 2.1 2.05 2.83v.01h.02c1.24.7 2.93 1.14 4.8 1.16Zm.09-.09h-.1a4.02 4.02 0 0 1-3.25-1.74 11.96 11.96 0 0 1 6.66 0 4.02 4.02 0 0 1-3.31 1.74Zm-1.1-.05a9.56 9.56 0 0 1-3.72-1.07c.28-.17.75-.4 1.38-.6.54.8 1.37 1.41 2.35 1.67Zm-3.8-1.12c.27-.18.75-.41 1.41-.62A4.02 4.02 0 0 1 4.87 9H2.08c.01 1.04.75 2.03 1.98 2.74ZM2.07 8.93h2.79c0-.74.22-1.41.59-2a6.25 6.25 0 0 1-1.44-.64c-1.2.7-1.91 1.62-1.94 2.64ZM4.1 6.24c.27.17.75.4 1.4.61a4.08 4.08 0 0 1 2.38-1.71 9.52 9.52 0 0 0-3.78 1.1Zm4.78-1.15a4.02 4.02 0 0 0-3.3 1.79 11.95 11.95 0 0 0 6.72 0 4.02 4.02 0 0 0-3.42-1.8Zm1.09.04c1.01.25 1.87.88 2.42 1.72.7-.21 1.2-.45 1.5-.62a9.62 9.62 0 0 0-3.92-1.1Zm3.95 6.61c-.3-.17-.81-.4-1.5-.62.38-.6.6-1.35.61-2.12h2.89c-.01 1.04-.76 2.03-2 2.74Zm2-2.81h-2.89a3.88 3.88 0 0 0-.59-2 7.22 7.22 0 0 0 1.52-.65c1.2.7 1.93 1.63 1.96 2.65Zm-7 1.67c1.34 0 2.51.23 3.4.5.4-.6.62-1.34.63-2.1h-8c0 .76.23 1.5.62 2.1.86-.28 2-.5 3.34-.5ZM4.94 8.93h8a3.79 3.79 0 0 0-.6-1.98 12.02 12.02 0 0 1-6.81 0 3.79 3.79 0 0 0-.6 1.98Z"/><path d="M10 5.28c.75.15 2.22.87 2.78 2.72.01.03.03 0 0 0h-1.72c-.02 0-.06.04-.06.06v1.85c0 .03.02.09.04.09h4.74c.2-.36.22-.76.22-1 0-2.2-3.13-4-7-4-.49 0-.54.03-1 .08v7.64c-2.62-.9-3.1-2.87-3.05-3.74H2V9c0 2.2 3.13 4 7 4 .41 0 .6-.02 1-.06V5.28Z" fill="#F8C400"/></svg>