<!-- by TradingView --><svg width="18" height="18" viewBox="0 0 18 18" xmlns="http://www.w3.org/2000/svg"><path fill="#F0F3FA" d="M0 0h18v18H0z"/><path d="M7 12V9.72C7.09 9.15 7.68 8 9.36 8c.23.02.78.09 1.12.2.35.11.64.14.74.14-.15.26-.64.79-1.45.79-.3 0-.6-.03-.85-.05-.57-.06-.95-.1-.95.25v.34h1.95c-.02.25-.04.8.07 1H7.97V12H7ZM3.03 8H2c.43.17 1 .96 1.23 1.33l1 2.07c.09.2.33.6.68.6.35 0 .63-.4.73-.6.2-.48.7-1.56.95-2.07.26-.5.94-1.1 1.25-1.33H6.9c-.6 0-1.1.67-1.27 1l-.73 1.5L4.19 9c-.35-.72-.92-.97-1.16-1Zm7.17 1.36c.34-.1 1.04-.46 1.16-1.2A1.97 1.97 0 0 1 14 9.31c-.09.07-.33.2-.62.2-.17 0-.35-.11-.55-.23-.23-.14-.48-.3-.75-.3-.5 0-1 .42-1 1.03 0 .6.6.98 1 .98.32 0 .65-.24.77-.35.05-.06.21-.16.53-.16.31 0 .54.1.62.16A1.94 1.94 0 0 1 12.08 12c-1.55 0-1.97-1.5-1.97-2 0-.22.06-.52.1-.64Z" fill="#7EBB4A"/><path d="M4.83 6.17c-.07-.16-.26-.3-.35-.36.06-.35.26-.68.35-.81.23.29.33.66.36.81a.89.89 0 0 0-.36.36ZM4 5.64l.43.35c.15.13.24.3.24.5v.58l-.47-.44a.64.64 0 0 1-.2-.47v-.52ZM4 7.7l.43.36c.15.12.24.3.24.5v.57L4.2 8.7a.64.64 0 0 1-.2-.46V7.7Zm.43-.68L4 6.66v.53c0 .17.07.34.2.46l.47.45V7.5a.64.64 0 0 0-.24-.5Zm1.24-1.38-.43.35a.64.64 0 0 0-.24.5v.58l.47-.44c.12-.13.2-.3.2-.47v-.52Zm0 2.06-.43.36a.64.64 0 0 0-.24.5v.57l.47-.44c.12-.12.2-.29.2-.46V7.7Zm-.43-.68.43-.36v.53c0 .17-.08.34-.2.46L5 8.1V7.5c0-.19.09-.37.24-.5Zm1.1.33v-.73a9.8 9.8 0 0 1 3.77-.67C12.5 5.95 16 7.22 16 9.63c.01.36-.1 1.2-.69 1.73.14-.25.41-.9.41-1.53 0-.8-1.44-3.3-5.61-3.3a8.2 8.2 0 0 0-3.78.82Z" fill="#FBB12F"/></svg>