<!-- by TradingView --><svg width="18" height="18" viewBox="0 0 18 18" xmlns="http://www.w3.org/2000/svg"><path fill="#FF2E1D" d="M0 0h18v18H0z"/><path d="M9.8 12c-.02 0-.02 0-.03-.02.1-.22.2-.49.23-.73V6.9c-.01-.09-.06-.18-.1-.28-.17-.56-.19-.57-.2-.62h2.42l.02.03-.03.04c-.07.25-.09.45-.11.7v4.15c0 .41.41.32.76.28.6-.07 1.08-.32 1.24-.38l-.42 1.16-.04.02H9.79ZM9.5 6.1l-.11.15c-.06.08-.24.46-.3.62L7.02 12H5.96L3.83 6.6c-.1-.2-.22-.38-.33-.58V6h2.36v.02l-.05.14-.05.34.02.27.1.4.92 2.5.05.03.1-.15 1.01-2.62.04-.15v-.16L7.93 6H9.5v.1Z" fill="#fff"/></svg>