<!-- by TradingView --><svg width="18" height="18" viewBox="0 0 18 18" xmlns="http://www.w3.org/2000/svg"><path fill="#F0F3FA" d="M0 0h18v18H0z"/><path d="m9 3 2.52 1.58v3.33L9 9.5 6.48 7.91V4.58L9 3ZM6.78 4.77v2.95L9 9.12l2.22-1.4V4.77L9 3.37l-2.22 1.4Zm5.03 3.36v-3.2l1.19.65v4.85l-2.67 1.97v1.97L9.15 15V9.94l2.66-1.81Zm-5.62 0v-3.2L5 5.57v4.85l2.67 1.97v1.97l1.18.63V9.94L6.2 8.13ZM9 6.9c.33 0 .6-.3.6-.66 0-.37-.27-.67-.6-.67-.33 0-.6.3-.6.67 0 .36.27.66.6.66Zm2.07-2.03-2.1-1.3-2.04 1.3V7.6l2.04 1.3 2.1-1.3V4.89Zm-3.85.19 1.75-1.11 1.8 1.11v2.35l-1.8 1.11-1.75-1.1V5.06Zm1.76-1 1.65 1.06v2.23L8.98 8.42 7.37 7.36V5.13l1.6-1.06Zm0 .38-1.31.87v1.85l1.3.87 1.36-.87V5.32l-1.35-.87Zm1.2 1.02-1.2-.74-1.17.74v1.55l1.17.74 1.2-.74V5.47Zm-2.07.2L9 5.1l.9.55v1.17l-.9.55-.88-.55V5.66Z" fill="#EC1F25"/></svg>