<!-- by TradingView --><svg width="18" height="18" viewBox="0 0 18 18" xmlns="http://www.w3.org/2000/svg"><path fill="#F0F3FA" d="M0 0h18v18H0z"/><path d="M15 5H3v8h12V5Zm-4.79 5.22-.07.07-.26.36c-.4.55-.81 1.12-1.31 1.52-.16.13-.45.12-.65.11H7.9c-.29 0-.4-.18-.55-.4-.5-.78-.57-2.25-.63-3.37l-.04-.8a5.33 5.33 0 0 1-.02-.67c0-.12.06-.2.16-.25.2-.11.4-.17.57-.18.24 0 .48.25.62.45l.02.06c0 .04 0 .08.02.12v.05l-.08.3c-.14.57-.3 1.18-.38 1.74v.01c-.04.17-.26 1.49.17 1.35.1-.04.2-.09.26-.15.23-.22.47-.42.7-.62.43-.36.85-.72 1.23-1.17a20.4 20.4 0 0 0 2.19-3.02l.1-.14.02-.02h.05l.02.03c.06.24-.11.66-.24 1-.05.12-.1.23-.12.32l-.2.53c-.06.13-.12.26-.16.39-.1.26-.24.5-.39.74l-.24.42c-.21.4-.43.77-.7 1.14l-.07.08Z" fill="#74868A"/></svg>