<!-- by TradingView --><svg width="18" height="18" viewBox="0 0 18 18" xmlns="http://www.w3.org/2000/svg"><path fill="#E27900" d="M0 0h18v18H0z"/><path d="M15 9A6 6 0 1 1 3 9a6 6 0 0 1 12 0Z" fill="#312B2A"/><path d="m8.73 6.46-.03.11a2.84 2.84 0 0 0-1.98 1.18 2.7 2.7 0 0 0 0 3.07 2.7 2.7 0 0 0 2.99 1.08c.27-.1.51-.2.71-.31a2.74 2.74 0 0 0 1.05-1.17c.05-.1.1-.23.13-.38l.09-.38c.09-.74-.08-1.4-.51-2l-.08-.09a2.06 2.06 0 0 0-.6-.55 3.04 3.04 0 0 0-1.6-.45.03.03 0 0 0 0 .03c.04.14.1.27.2.39.1.24.07.45-.1.63l-.13.1-.05.03a.02.02 0 0 1-.01-.02v-.01c.14-.12.26-.3.24-.5a.56.56 0 0 0-.08-.2c-.1-.19-.2-.3-.2-.54 0-.03.02-.05.06-.07l.03-.02a.32.32 0 0 1 .04-.08c.02-.02.02-.01.02 0l-.01.06c0 .02 0 .04.03.04.92.02 1.71.37 2.3 1.1a2.86 2.86 0 1 1-4.75 3.2 2.88 2.88 0 0 1 2.19-4.28c.02 0 .04 0 .05.03Z" fill="#F8F8F8"/><path d="M8.73 6.46v.03c0 .01 0 .02.02.01l.02-.02c0 .23.1.35.2.53.04.09.07.16.08.22.02.19-.1.37-.24.49a.02.02 0 0 0 0 .01.02.02 0 0 0 0 .02c.02 0 .04 0 .06-.02-.02.1 0 .17.09.21.02.02.04 0 .05-.02l.01-.08.01-.01h.01a.02.02 0 0 1 .03 0c.03.04.05.08.1.1.1.07.25.15.27.28 0 .08.04.13.1.18h.03c.21-.25.3-.57-.06-.74-.13-.06-.24-.15-.38-.02a.07.07 0 0 1-.04.02c-.04 0-.07-.01-.1-.03.18-.18.21-.4.1-.63.15-.08.27.02.4-.06a.04.04 0 0 1 .04 0c.13.08.25.17.35.28l.03.01.07-.02a.02.02 0 0 1 .02 0v.06l-.1.02a.07.07 0 0 0-.04.02.07.07 0 0 0-.01.08l.03.03c.1.06.25.11.3.23.07.11.2.16.3.04v-.04h-.01a22.8 22.8 0 0 0-.17-.14c-.04-.03-.04-.07-.02-.1h.04l.1.04c.02 0 .02.01.03.03l.1.2.01.04.04.15c0 .02.01.03.03.04l.05.05c.01.03 0 .04-.03.02l-.2-.1c-.07-.04-.1-.02-.07.06.04.1.08.23.18.26.02 0 .03 0 .02-.03l-.01-.04c-.01-.02 0-.03.02-.02l.05.02c.02.01.04 0 .04-.01l.02-.07h.03V8.19l.01.03.02.01.13.05h.02v.03a.2.2 0 0 1-.03.08.06.06 0 0 0-.01.06c.02.06.05.12.1.17a.08.08 0 0 0 .06.03.1.1 0 0 0 .04-.01c.02 0 .03 0 .03.02.02.12.08.22.08.35-.02.21.04.63.27.73.04.02.08 0 .1-.03.1-.15.14-.17.14-.05l-.09.38a1.9 1.9 0 0 1-.12.37c-.18.37-.43.69-.74.95-.01-.12.03-.24.13-.36.02-.02.02-.03 0-.05-.04-.04-.1-.05-.16-.02-.1.04-.2.07-.3.08a.07.07 0 0 1-.06-.04c-.09-.16-.28-.08-.42-.13a.58.58 0 0 0-.26-.04l-.38.02c-.05 0-.1.02-.14.06-.05.05-.11.07-.2.04-.09-.03-.13-.1-.12-.2h1.55a.08.08 0 0 0 .06-.02.1.1 0 0 0 .02-.08c0-.07-.04-.1-.1-.1H9.5c-.07 0-.08-.02-.01-.06.17-.1.32-.24.45-.42a.05.05 0 0 1 .04-.03c.36-.04.82-.06.85-.55.02-.28-.07-.56-.35-.65-.07-.03-.14-.02-.2-.03-.02 0-.03 0-.03-.02v-.1c0-.04-.02-.06-.06-.06H9.2l-.03-.08c-.01-.02 0-.02.01-.01.13.05.21-.16.1-.23-.16-.1-.2-.26-.42-.25h-.02l-.02.03a.05.05 0 0 0 0 .05l.05.05v.03c-.03.01-.05 0-.07-.01l-.01-.02v-.02c0-.02 0-.04-.02-.05-.03-.05-.05-.04-.06.01 0 .03-.02.06-.03.07a.02.02 0 0 1-.03 0l-.01-.02c0-.12-.05-.21-.17-.27-.02-.08-.03-.15-.1-.22a3.44 3.44 0 0 1-.3-.42l.14-.04.03-.03.04-.07a.04.04 0 0 1 .05-.02c.06 0 .1-.02.13-.08a.05.05 0 0 1 .03-.03l.27-.05a.02.02 0 0 0 .01-.02.02.02 0 0 0 0-.02.68.68 0 0 1-.07-.3l.03-.12Z" fill="#52392E"/><path d="M11.1 7.57c-.06.08-.05.15.03.23.02.02.02.04 0 .06a.09.09 0 0 1-.06.03c-.04 0-.04.02-.02.04l.02.05c0 .02 0 .03-.02.03s-.04.01-.05.03a.05.05 0 0 0-.01.04c.02.1.05.2.09.26.05.1.07.09.07-.02v-.15l.03-.02.04-.02a.05.05 0 0 0 .03-.03.05.05 0 0 0 0-.04l-.06-.09a.06.06 0 0 1-.01-.04.72.72 0 0 0 0-.26c.43.58.6 1.25.5 1.99 0-.12-.04-.1-.13.05-.02.04-.06.05-.1.03-.23-.1-.29-.52-.27-.73 0-.13-.06-.23-.08-.35 0-.02-.01-.03-.03-.02a.1.1 0 0 1-.07 0 .08.08 0 0 1-.03-.02.46.46 0 0 1-.1-.17v-.06a.2.2 0 0 0 .04-.08V8.3l-.02-.01-.13-.05-.02-.01V8.04h-.04l-.02.07c0 .02-.02.02-.04.01l-.05-.02c-.02-.01-.03 0-.02.02l.01.04c0 .03 0 .03-.02.03-.1-.03-.14-.17-.18-.26-.03-.08 0-.1.07-.06l.2.1c.04.02.04.01.03-.02a.13.13 0 0 0-.05-.05.07.07 0 0 1-.03-.04l-.04-.15a.2.2 0 0 0-.01-.05l-.1-.2a.06.06 0 0 0-.03-.02l-.1-.05h-.02l-.02.01c-.02.03-.02.07.02.1a25.04 25.04 0 0 1 .18.17v.01c-.1.12-.23.07-.3-.04-.05-.12-.2-.17-.3-.23a.07.07 0 0 1-.02-.1c0-.02.02-.02.03-.03l.1-.02c.01 0 .02-.01.02-.03v-.02a.02.02 0 0 0-.03-.01l-.07.02-.03-.01a1.36 1.36 0 0 0-.37-.28h-.02c-.13.08-.25-.02-.4.06a1.22 1.22 0 0 1-.2-.4.03.03 0 0 1 .03-.03h.01c.57 0 1.1.16 1.58.46.22.14.42.32.59.55ZM8.7 6.57a.68.68 0 0 0 .08.32.02.02 0 0 1-.01.02h-.01l-.27.06a.05.05 0 0 0-.03.03c-.03.06-.07.09-.13.08-.02 0-.04 0-.05.02l-.04.07-.03.03-.14.04.01-.3c0-.02 0-.04-.03-.04-.01 0-.02 0-.03.02l-.05.17a.28.28 0 0 1 0-.15c.03-.07 0-.12-.07-.15.25-.11.52-.18.8-.22Z" fill="#EAB65A"/><path d="M7.9 6.79c.07.03.1.08.07.15a.28.28 0 0 0 0 .15c-.03.24.15.42.3.58.18.22.07.5-.11.66a.29.29 0 0 1-.09.05c-.02.01-.03 0-.01-.01.09-.12.19-.24.18-.4a.06.06 0 0 0-.02-.04.3.3 0 0 1-.1-.23.1.1 0 0 0-.04-.07.09.09 0 0 0-.06-.02h-.17a.05.05 0 0 0-.04.03c-.02.05-.06.07-.12.07-.02 0-.04 0-.06.02a.16.16 0 0 0-.06.1l-.02.02a.13.13 0 0 1-.08 0c-.01 0-.02.01-.02.03v.03h.02c.06.04.12.06.19.08.2.07.05.46.03.6l-.12.01c-.02 0-.03 0-.04.02a.06.06 0 0 0-.02.03c-.1.75.16 1.44.8 1.83.03.02.03.03-.02.04-.03 0-.07 0-.12-.03l-.32-.26h-.02v.04a.05.05 0 0 0 .02.04l.25.2h-.6c-.06 0-.1.04-.1.11l.01.04a.1.1 0 0 0 .1.07H8.6c.02 0 .03.01.03.03.03.2.2.23.36.22a.05.05 0 0 1 .05.03l.01.02v.1l.03.05c.1.1.15.26.06.4a.05.05 0 0 0 0 .05c.05.07.12.12.19.16l.02.04a.4.4 0 0 1-.04.15 2.7 2.7 0 0 1-2.58-1.16A2.7 2.7 0 0 1 7.9 6.79Z" fill="#52392E"/><path d="M8.07 7.24c.09.15.19.28.3.42.07.07.08.14.1.22 0 .07 0 .13-.04.19l-.01.06a.56.56 0 0 1-.23.24l-.03-.01v-.03c.18-.16.3-.44.1-.66-.14-.16-.33-.34-.3-.58l.06-.17.03-.02c.02 0 .03.02.03.04l-.01.3ZM9.96 7.89a.4.4 0 0 1 0 .21l-.18.24a.1.1 0 0 1-.04.03H9.7l-.01-.04c.12-.09.23-.28.18-.44-.05-.13-.16-.22-.24-.33a.5.5 0 0 1-.08-.54.01.01 0 0 1 .01 0h.01a.02.02 0 0 1 .02.03c-.1.41.26.5.37.84Z" fill="#F8F8F8"/><path d="M5.27 7.95c.13-.04.24-.1.37 0 .03.03.03.06 0 .08-.12.12-.25.15-.41.08h-.05a.57.57 0 0 0-.09.15c0 .03 0 .04.02.02.12-.08.23-.08.35 0a.04.04 0 0 1 .02.02.04.04 0 0 1 0 .03c-.13.16-.28.22-.46.16a.04.04 0 0 0-.05.02c-.06.12-.1.24-.13.37-.01.04 0 .04.03.02.11-.1.23-.15.37-.07l.01.02v.02a.48.48 0 0 1-.4.28c-.05 0-.07.04-.08.09v.43c0 .05.01.05.03 0 .04-.14.14-.21.28-.21a.04.04 0 0 1 .03.01.04.04 0 0 1 .01.03.56.56 0 0 1-.28.44l-.02.03V10c0 .16.04.33.11.49h.03v-.02c-.02-.16.04-.28.2-.37.03-.02.05 0 .06.04.05.2 0 .39-.16.54-.02.02-.03.04-.01.07a4.2 4.2 0 0 0 .18.35 2.38 2.38 0 0 1-.36-.6.04.04 0 0 0-.03-.02h-.1c-.23 0-.37-.2-.41-.42a.05.05 0 0 1 .03-.05h.02c.17 0 .3.1.38.26h.02v-.03a2.26 2.26 0 0 1-.11-.66l-.03-.01c-.22-.06-.32-.24-.3-.53 0-.05.02-.07.06-.06.16.05.18.15.25.28.02.05.04.05.04 0 .01-.14.05-.29.1-.44v-.04a.07.07 0 0 0-.02-.04c-.19-.16-.22-.39-.09-.66a.03.03 0 0 1 .02-.02.03.03 0 0 1 .02 0c.14.12.14.26.14.43 0 .06.02.06.04.01.07-.13.14-.26.23-.38a.04.04 0 0 0 0-.05l-.07-.15a.44.44 0 0 1 .1-.4.03.03 0 0 1 .02-.01.03.03 0 0 1 .02.01c.06.09.1.2.07.31l-.03.09c0 .03 0 .04.03.03ZM13.2 10.26c.1-.13.2-.25.38-.26.04 0 .06.03.05.07-.04.25-.2.44-.47.4-.03 0-.06 0-.07.04a2.47 2.47 0 0 1-.32.54h-.01c.05-.1.13-.22.16-.33a.04.04 0 0 0-.01-.03.6.6 0 0 1-.17-.56v-.02h.02l.02-.01h.02c.14.07.2.18.2.32 0 .08.02.09.05.01.06-.12.09-.27.1-.43l-.02-.04a.06.06 0 0 0-.02-.02.53.53 0 0 1-.27-.42c0-.05.01-.07.06-.06.13 0 .2.06.25.17.03.09.05.08.05-.01 0-.12.01-.31-.03-.43l-.01-.01-.02-.01c-.17-.03-.32-.1-.4-.26-.04-.05-.03-.09.03-.1.13-.04.23 0 .32.09h.03v-.02a4.14 4.14 0 0 0-.15-.38h-.04c-.17.04-.32 0-.43-.16-.03-.03-.02-.06.01-.08a.29.29 0 0 1 .33.02c.03.02.04.01.02-.02l-.06-.12a.06.06 0 0 0-.03-.03h-.04c-.16.07-.3.04-.42-.09L12.3 8v-.02c.11-.11.23-.09.36-.04.05.03.07 0 .05-.05a.36.36 0 0 1 .04-.36c.03-.03.05-.03.07 0 .13.2.13.37 0 .54v.01l.26.45h.01l.01-.01c-.01-.26.04-.4.14-.45h.03l.01.02c.13.28.1.5-.1.66l-.01.03v.03c.05.15.08.3.1.45 0 .04.02.04.04 0 .06-.13.1-.25.25-.28.04 0 .06.01.07.06.03.28-.08.46-.31.53-.02 0-.03.02-.03.04-.01.2-.05.42-.11.64-.01.03 0 .03.01 0ZM8.87 7.73 9 7.62c.03.02.06.03.1.03.02 0 .03 0 .04-.02.14-.13.25-.04.38.02.37.17.27.49.06.73-.01.02-.02.02-.04 0a.26.26 0 0 1-.1-.17c-.01-.13-.16-.2-.26-.27-.05-.03-.07-.07-.1-.1a.02.02 0 0 0-.03-.02h-.01v.02L9 7.92c-.01.03-.03.04-.05.02-.08-.04-.11-.11-.09-.21ZM8.16 8.33v.03c0 .01.01.02.03.01.1-.05.17-.13.23-.24.03.01.05 0 .07-.02v-.03c-.01-.01-.03-.02-.06-.01a.28.28 0 0 0 .04-.19c.12.06.18.15.17.27v.01l.01.01a.02.02 0 0 0 .03 0 .11.11 0 0 0 .03-.07c0-.05.03-.06.06-.01.01.01.02.03.01.05v.02l.02.02c.02.02.04.02.06.01.02 0 .02-.02 0-.03l-.03-.05a.05.05 0 0 1 0-.07l.03-.01c.23-.01.26.15.41.25.12.07.04.28-.09.23-.02-.01-.02 0-.01.01l.03.08H9l.02-.16a.1.1 0 0 1 .03-.05c.05-.07.03-.16-.06-.17h-.02l-.02.03a.15.15 0 0 1-.05.09.76.76 0 0 0-.23.26h-.98c.02-.15.17-.54-.03-.6a2.67 2.67 0 0 1-.2-.1h-.01v-.02c0-.02 0-.02.02-.02h.08l.02-.04c.01-.04.03-.07.06-.1a.08.08 0 0 1 .06-.01c.05 0 .1-.02.12-.07a.05.05 0 0 1 .04-.02l.17-.01a.09.09 0 0 1 .06.02.1.1 0 0 1 .03.07c0 .1.04.17.11.23a.06.06 0 0 1 .02.04c0 .16-.1.28-.18.4-.02.01-.01.02 0 .01a.29.29 0 0 0 .1-.05ZM9.96 8.1a.39.39 0 0 0 0-.21c.04-.02.08-.03.1-.02.02.01.03.04.03.08 0 .08-.04.13-.13.15ZM9.69 8.33l.01.04h.04a.1.1 0 0 0 .04-.03c0 .02.01.03.06.06a.02.02 0 0 1 0 .03.31.31 0 0 1-.24.03l-.01-.01a.03.03 0 0 1 0-.04v-.02l.1-.06Z" fill="#EAB65A"/><path d="M8.67 8.6h1.53c.03 0 .05.02.05.07v.09c0 .01.01.02.03.02.06 0 .13 0 .2.03.28.09.37.37.35.65-.03.5-.49.51-.85.55a.05.05 0 0 0-.04.03c-.13.18-.28.32-.45.42-.07.04-.06.06 0 .06h.86c.07 0 .1.03.11.1a.1.1 0 0 1-.02.08.08.08 0 0 1-.06.03H7.52a.1.1 0 0 1-.1-.07.09.09 0 0 1-.02-.04c0-.07.04-.1.1-.1l.6-.01.07-.02.12.03c.05 0 .05-.02.01-.04-.63-.4-.89-1.08-.79-1.83l.02-.03.04-.02h1.1Z" fill="#F8F8F8"/><path d="M10.1 9.76c.1-.26.17-.48.17-.75 0-.02.02-.03.04-.04.12 0 .24.04.28.17.07.2.1.53-.15.6a2 2 0 0 1-.33.05.03.03 0 0 1-.01-.03Z" fill="#52392E"/><path d="M8.17 10.5a.19.19 0 0 0-.07.01l-.25-.2-.02-.02V10.23h.01l.33.26ZM8.55 10.73h.28c0 .1.03.16.11.19.1.03.16.01.21-.04.04-.04.1-.06.14-.06.13 0 .26 0 .38-.02.08-.01.16 0 .26.04.14.05.33-.03.42.13l.03.03h.03c.1 0 .2-.03.3-.07.07-.03.12-.02.16.02.02.02.02.03 0 .05a.52.52 0 0 0-.13.36c-.1.08-.2.16-.32.23-.2.11-.44.22-.71.3a1.5 1.5 0 0 1-.4.09.4.4 0 0 0 .04-.15c0-.02 0-.03-.02-.04a.54.54 0 0 1-.19-.16.05.05 0 0 1 0-.05c.09-.14.04-.3-.06-.4a.08.08 0 0 1-.03-.06v-.09a.06.06 0 0 0-.02-.04.05.05 0 0 0-.04-.01c-.16.01-.33-.03-.36-.22 0-.02-.01-.02-.03-.02l-.05-.01Z" fill="#EAB65A"/><path d="M9.78 11.53c.2-.1.31-.32.24-.46-.08-.15-.3-.17-.51-.06-.2.11-.32.32-.24.47.07.14.3.17.5.05Z" fill="#52392E"/><path d="m6 7.2-.7-.56A4.86 4.86 0 0 1 8.12 4.9c1.33-.25 2.9.13 4.47 1.7l-.64.61C10.28 5.37 7.57 5.17 6 7.2Zm2.2 6.25a5.72 5.72 0 0 1-2.99-1.57l.61-.64a4.31 4.31 0 0 0 6.18.12l.59.6a4.95 4.95 0 0 1-4.38 1.5Z" fill="#EEE"/></svg>