<!-- by TradingView --><svg width="18" height="18" viewBox="0 0 18 18" xmlns="http://www.w3.org/2000/svg"><path fill="#F0F3FA" d="M0 0h18v18H0z"/><path d="M5 10.77 5.9 8H7l-1.32 4H4.32L3 8h1.1l.9 2.77ZM9 8h1v4H9zM10 6h1v1h-1zM13.5 12a1.6 1.6 0 0 1-1.11-.36 1.27 1.27 0 0 1-.39-.98h.91c0 .2.06.33.16.41.1.08.26.11.48.11.31 0 .53-.11.53-.34 0-.1-.04-.19-.11-.24-.08-.05-.27-.1-.48-.13l-.27-.05c-.78-.14-1.17-.56-1.17-1.24 0-.36.12-.65.36-.86.24-.21.58-.32 1.03-.32.45 0 .8.1 1.04.32.25.21.38.5.4.91h-.9c0-.15-.04-.23-.13-.3-.08-.08-.22-.11-.4-.11-.29 0-.43.1-.43.31 0 .11.04.2.11.25.07.05.2.1.38.13l.28.05c.43.08.73.22.92.4.2.2.29.46.29.8 0 .4-.13.71-.4.92a1.7 1.7 0 0 1-1.1.32Z" fill="#3C3837"/></svg>