<!-- by TradingView --><svg width="18" height="18" viewBox="0 0 18 18" xmlns="http://www.w3.org/2000/svg"><path fill="#F0F3FA" d="M0 0h18v18H0z"/><path d="M3 8h.5v5.5h11V8h.5v6H3V8Z" fill="#9C9C9C"/><path d="M4 7.57h10V13H4V7.57ZM4 4h10v.36H4V4Zm0 .71h10v.36H4v-.36Zm10 .72H4v.36h10v-.36ZM4 6.14h10v.36H4v-.36Zm10 .72H4v.35h10v-.35Z" fill="#002DE2"/><path d="M6.14 10.65v1.29l2.83-1.84 2.88 1.84v-1.3L8.97 8.89l-2.83 1.77Z" fill="#ED1C24"/><path d="M8.97 8.71 12 10.56v1.64l-3.03-1.92L6 12.2v-1.63L8.97 8.7Zm0 .34-2.7 1.68v.95l2.7-1.75 2.74 1.75v-.95L8.97 9.05Z" fill="#fff"/><path d="M6.14 8.2v1.3l2.83-1.84 2.88 1.84V8.2L8.97 6.44 6.14 8.2Z" fill="#ED1C24"/><path d="M8.97 6.27 12 8.12v1.63L8.97 7.83 6 9.76V8.12l2.97-1.85Zm0 .33-2.7 1.68v.95l2.7-1.74 2.74 1.75v-.96L8.97 6.6Z" fill="#fff"/><path d="M6.14 6.01v1.3l2.83-1.84 2.88 1.84V6L8.97 4.25 6.14 6Z" fill="#ED1C24"/><path d="M8.97 4.08 12 5.93v1.64L8.97 5.64 6 7.57V5.93l2.97-1.85Zm0 .34-2.7 1.67v.96l2.7-1.75 2.74 1.75V6.1L8.97 4.42Z" fill="#fff"/></svg>