<!-- by TradingView --><svg width="18" height="18" viewBox="0 0 18 18" xmlns="http://www.w3.org/2000/svg"><path fill="#F0F3FA" d="M0 0h18v18H0z"/><path d="m6.25 6.3-.31-1.57v-.01h.01l.55.26h.02l.7-.97h.02l.7.97h.03l.54-.27h.01v.02l-.3 1.58c-.01.02 0 .02 0 0l.83-1.04c.02-.02.03-.02.03.01l.07.69.01.01.76-.2c.01 0 .01 0 0 0L7.25 9.75h-.02L4.51 5.8v-.02l.8.2h.01l.07-.71c0-.02 0-.02.02 0l.83 1.04c.01.02.02.02.01 0Z" fill="#D80021"/><path d="m7.19 11.14 3.16-4.83c.13-.2.33-.31.6-.31h3.29c.15 0 .26.02.34.05.1.04.17.1.24.2a.77.77 0 0 1-.27 1.19.9.9 0 0 1-.3.03 1204.8 1204.8 0 0 0-3.03.02c-1.12 1.65-2.26 3.36-3.42 5.1-.1.15-.19.25-.26.3a.63.63 0 0 1-.9-.2l-3.4-5.4a1.68 1.68 0 0 1-.23-.44.74.74 0 0 1 .08-.5.65.65 0 0 1 .32-.3.6.6 0 0 1 .42-.02c.16.05.28.15.37.3a25073 25073 0 0 1 2.99 4.81Z" fill="#071C97"/><path d="M12.67 11.52V9.73c0-.14 0-.24.03-.3a.6.6 0 0 1 .22-.28c.3-.21.6-.2.88.04a.58.58 0 0 1 .2.44v2.76c0 .27-.11.46-.33.56a.85.85 0 0 1-.34.05H11.7c-.56 0-1.1-.2-1.6-.61A3.85 3.85 0 0 1 9.04 11c.35-.44.64-.97.95-1.43.01-.02.02-.01.02.01 0 .43.08.79.24 1.09.17.33.43.56.77.7.26.11.53.17.81.18a40.95 40.95 0 0 0 .85-.03Z" fill="#D80021"/></svg>