<!-- by TradingView --><svg width="18" height="18" viewBox="0 0 18 18" xmlns="http://www.w3.org/2000/svg"><path fill="#F0F3FA" d="M0 0h18v18H0z"/><path d="M6.25 5.51c2.78-1.42 4.7-1.52 5.17-1.51 1.79.02 2.5 1.28 2.57 3.15.1 2.07-.59 7.35-3.32 7.35C8.54 14.5 3 11.26 3 9.03c0-.95.47-2.1 3.25-3.52ZM9 11a2 2 0 1 0 0-4 2 2 0 0 0 0 4Z" fill="url(#a1ioctxof)"/><path d="M13.2 5.92v-.01c0-.84-.77-1.53-1.73-1.53-.13 0-.27.02-.4.05.96.15 1.76.72 2.13 1.5Z" fill="#E8A087"/><defs><linearGradient id="a1ioctxof" x1="12.23" y1="4.38" x2="5.89" y2="12.27" gradientUnits="userSpaceOnUse"><stop stop-color="#CF1223"/><stop offset="1" stop-color="#810F19"/></linearGradient></defs></svg>