<!-- by TradingView --><svg width="18" height="18" viewBox="0 0 18 18" xmlns="http://www.w3.org/2000/svg"><path fill="#7F7F7F" d="M0 0h18v18H0z"/><path d="M7.23 6.38 9 11.4l1.9-5.25c.15-.42.3-.72.44-.9.15-.17.37-.26.66-.26.46 0 1 .36 1 .94 0 .1-.02.21-.06.34-.06.26-.15.46-.27.76l-2.1 5.27-.23.57c-.09.23-.2.43-.3.6a1.2 1.2 0 0 1-.43.38c-.17.1-.37.14-.61.14-.3 0-.56-.07-.74-.21-.19-.15-.32-.3-.41-.47-.09-.17-.23-.51-.44-1.01L5.33 7.09c-.1-.26-.2-.51-.28-.78A1.55 1.55 0 0 1 5 5.96C5 5.38 5.57 5 6.03 5c.36 0 .61.1.75.32.13.2.29.56.45 1.06Z" fill="#fff"/></svg>