<!-- by TradingView --><svg width="18" height="18" viewBox="0 0 18 18" xmlns="http://www.w3.org/2000/svg"><path fill="#F0F3FA" d="M0 0h18v18H0z"/><path d="M5.35 5 3 13h2.76l1.01-3.63L5.35 5Z" fill="#D58449"/><path d="M6.54 8.67 5.34 5l-.25.88c.43.54 1.03 1.81 1.45 2.79Z" fill="#BB653B"/><path d="M12.65 5 15 13h-2.76l-1.01-3.63L12.65 5Z" fill="#D58449"/><path d="M11.46 8.67 12.66 5l.25.88c-.43.54-1.03 1.81-1.45 2.79Z" fill="#BB653B"/><path d="M7.67 13 5.35 5.03c2.18-.32 3.37 2.03 3.69 3.25.9-2.99 2.79-3.41 3.62-3.25L10.35 13H7.67Z" fill="#3A3A3C"/><path d="m7.4 12.08.27.92h.09l1.06-4.16c-.59 2.02-1.1 2.91-1.42 3.24Z" fill="#212122"/></svg>