<!-- by TradingView --><svg width="18" height="18" viewBox="0 0 18 18" xmlns="http://www.w3.org/2000/svg"><path fill="#F0F3FA" d="M0 0h18v18H0z"/><path d="m10.9 3.03-.02.48-.01.02h-.52a.03.03 0 0 1-.02-.04l.01-.01.51-.47a.03.03 0 0 1 .04 0 .03.03 0 0 1 .01.02ZM10.85 3.94v.32h-.01a.03.03 0 0 1-.02.02H9.57a.03.03 0 0 1-.02-.02.03.03 0 0 1 0-.03l.3-.3a.03.03 0 0 1 .02-.01h.97v.02ZM10.76 4.65h-1.4a.04.04 0 0 0-.05.05v.28c0 .03.02.05.05.05h1.4c.02 0 .04-.02.04-.05V4.7a.04.04 0 0 0-.04-.05Z" fill="#757575"/><path d="M9.1 12.04c-.36.08-.82.05-1.2.03l-.29-5.83c0-.03 0-.05.02-.07l1.44-1.5h.04a1574.48 1574.48 0 0 0 0 7.37Z" fill="#A0A0A0"/><path d="M10.72 5.4H9.35a.04.04 0 0 0-.05.04v.28c0 .03.02.05.05.05h1.37c.02 0 .04-.03.04-.05v-.28a.04.04 0 0 0-.04-.04ZM7.9 12.07c.38.02.85.05 1.2-.03l1.74.08.73.07c.03 0 .04-.01.05-.04.03-.1.02-.25.03-.33l.46-4.3c0-.1-.03-.13-.1-.18.07-.06.14-.06.22 0l.68.43a.1.1 0 0 1 .05.1l-.62 4.32c0 .04 0 .07.03.1.21.07.42.12.64.13a.05.05 0 0 0 .05-.04L14.1 8.4l.63.56c.02.02.02.04.02.06l-1.07 3.47c0 .03 0 .04.03.05.42.1.8.22 1.13.35.22.1.21.12-.03.08-.75-.11-1.55-.2-2.4-.26a47.8 47.8 0 0 0-5.6-.08 35.1 35.1 0 0 0-3.59.34c-.29.04-.3 0-.02-.1.36-.13.76-.25 1.21-.36l.64-.11a.06.06 0 0 0 .04-.03.05.05 0 0 0 0-.04l-1-3.86c-.02-.08-.07-.2-.14-.35.13.01.4.06.78.14.09.02.14.07.15.14v.05c.3 1.32.6 2.57.85 3.75 0 .03.02.04.05.04h.06l.9-.06c.05 0 .07-.03.07-.08l-.56-5.58c-.02-.2-.06-.37-.12-.5.05 0 .12.01.21.04a46.78 46.78 0 0 1 1.07.43.1.1 0 0 1 .02.06l.32 5.47a.05.05 0 0 0 .02.04.05.05 0 0 0 .04 0h.1Z" fill="#757575"/><path d="M6.13 6.04c.06.12.1.28.12.49l.56 5.58c0 .05-.02.07-.07.08l-.9.07-.8-5.72V6.5l.04-.03 1.05-.43Z" fill="#A0A0A0"/><path d="M10.68 6.15H9.33a.03.03 0 0 0-.03.03v.3c0 .02.02.03.04.03h1.34c.02 0 .04-.02.04-.03v-.3a.03.03 0 0 0-.04-.03ZM10.61 6.88l-1.26.01a.07.07 0 0 0-.07.07v.23c0 .04.03.07.07.07h1.27c.03 0 .06-.04.06-.07v-.24a.07.07 0 0 0-.07-.07Z" fill="#757575"/><path d="M12.01 7.34c.07.05.1.09.1.18l-.46 4.3c-.01.08 0 .22-.03.33 0 .03-.02.04-.05.04l-.73-.07.31-4.25a.1.1 0 0 1 .05-.08l.81-.45Z" fill="#A0A0A0"/><path d="M9.28 7.94v-.25c0-.02 0-.04.02-.05a.07.07 0 0 1 .05-.02h1.23a.07.07 0 0 1 .07.07v.25c0 .02 0 .04-.02.05a.07.07 0 0 1-.05.02H9.35a.07.07 0 0 1-.07-.07Z" fill="#757575"/><path d="M3.95 8.13c.07.15.12.27.14.35a610.37 610.37 0 0 0 1 3.9.06.06 0 0 1-.04.03l-.64.1-1.05-3.56a.2.2 0 0 1 .04-.19l.55-.63Z" fill="#A0A0A0"/><path d="M10.61 8.43v.25c0 .02 0 .04-.02.05a.08.08 0 0 1-.06.02H9.35a.08.08 0 0 1-.08-.07v-.25l.02-.05a.08.08 0 0 1 .06-.02h1.18c.02 0 .04 0 .06.02l.02.05Z" fill="#757575"/><path d="m14.1 8.4-1.04 3.98a.05.05 0 0 1-.05.04 1.9 1.9 0 0 1-.62-.13l.02-.01v-.02l.83-3.76a.1.1 0 0 1 .09-.08l.77-.01Z" fill="#A0A0A0"/><path d="M10.5 9.11H9.33a.06.06 0 0 0-.06.07v.25c0 .04.02.06.06.06h1.17c.03 0 .06-.03.06-.06v-.26a.06.06 0 0 0-.06-.06ZM10.46 9.86l-1.13-.01a.06.06 0 0 0-.06.06v.26c0 .04.02.06.05.06l1.14.01c.03 0 .06-.02.06-.05v-.27a.06.06 0 0 0-.06-.06ZM10.43 10.6H9.3a.05.05 0 0 0-.05.04v.3c0 .02.02.04.05.04h1.13c.02 0 .04-.02.04-.05v-.29a.05.05 0 0 0-.04-.04ZM10.4 11.36H9.29a.02.02 0 0 0-.02.02v.31l.02.02h1.13c.01 0 .02 0 .02-.02v-.31a.02.02 0 0 0-.02-.02Z" fill="#757575"/></svg>