<!-- by TradingView --><svg width="18" height="18" viewBox="0 0 18 18" xmlns="http://www.w3.org/2000/svg"><path fill="#F0F3FA" d="M0 0h18v18H0z"/><path d="M4.75 7H4v4h1.25C6.5 11 7 9.67 7 8.87V7h-.75v1.87c0 1.17-1 1.46-1.5 1.46V7ZM7.5 7v4h.75V7.67h1.13c.3 0 .37.26.37.4V11h.75V8.07C10.5 7.2 10 7 9.75 7H7.5ZM13.5 7v.67h-1.25c-.4 0-.5.26-.5.4V9.8c0 .43.33.53.5.53h.5c.4 0 .5-.26.5-.4V9.4h-1v-.8H14v1.47c0 .74-.5.93-.75.93h-1.5c-.6 0-.75-.53-.75-.8V8.07c0-.75.5-1.03.75-1.07h1.75Z" fill="#E65A26"/></svg>