<!-- by TradingView --><svg width="18" height="18" viewBox="0 0 18 18" xmlns="http://www.w3.org/2000/svg"><path fill="#F0F3FA" d="M0 0h18v18H0z"/><path d="M10.09 8h1.53l.2.01c.15.05.2.23.11.35l-.03.05c-1.66 2.6-3.3 4.85-4.96 7.46-.17.27-.54.1-.45-.18.59-1.7 1.18-3.67 1.76-5.38.06-.19-.05-.31-.26-.31H6.27c-.16 0-.28-.06-.3-.2 0-.09.04-.2.06-.29.49-2.07.97-3.9 1.46-5.97.06-.26.28-.44.55-.5C8.1 3 8.22 3 8.36 3a306.41 306.41 0 0 1 2.69.02c.5.1.37.43.24.75-.47 1.18-.96 2.71-1.45 3.89-.08.19.02.34.25.34Z" fill="#8D2932"/></svg>