<!-- by TradingView --><svg width="18" height="18" viewBox="0 0 18 18" xmlns="http://www.w3.org/2000/svg"><path fill="#F0F3FA" d="M0 0h18v18H0z"/><path fill-rule="evenodd" d="M9.02 5h-.04a247.18 247.18 0 0 0-1.32 1.2v-.01L6.36 5h-.01a.04.04 0 0 0-.05 0A2302.85 2302.85 0 0 0 2 9v.02A2289.9 2289.9 0 0 0 6.36 13l.01-.01 1.28-1.18h.01a.03.03 0 0 1 .02 0h.01A234.15 234.15 0 0 0 9.02 13a234.88 234.88 0 0 0 1.32-1.2v.01L11.64 13h.01a.04.04 0 0 0 .05 0A2158 2158 0 0 0 16 9v-.02A2293.14 2293.14 0 0 0 11.64 5l-.01.01-1.28 1.18h-.01a.03.03 0 0 1-.02 0h-.01A248 248 0 0 0 9 5Zm5.93 4-.01.02a1119.3 1119.3 0 0 1-3.28 3.01h-.03l-.76-.7a.03.03 0 0 1 0-.02.02.02 0 0 1 0-.02 1310.4 1310.4 0 0 0 2.47-2.3v-.01a1087.72 1087.72 0 0 0-2.47-2.3v-.01l.76-.7h.05A1022.35 1022.35 0 0 1 14.95 9Zm-2.66-.03-3.27-3a.04.04 0 0 0-.05 0l-.75.7a.03.03 0 0 0 0 .04l2.46 2.26.01.01a.03.03 0 0 1 0 .04l-1.14 1.04v.01a.03.03 0 0 0 0 .04l.75.68a.04.04 0 0 0 .04.01h.01l1.94-1.78a.03.03 0 0 0 0-.02.03.03 0 0 0 0-.03Zm-7.63.05v-.04a1151.35 1151.35 0 0 1 2.47-2.3l-.77-.7-.02-.01h-.02A1028.83 1028.83 0 0 0 3.05 9l.01.02a1040.9 1040.9 0 0 0 3.28 3h.02l.76-.7a.03.03 0 0 0 0-.03L4.66 9.02Zm5.1 2.25L7.31 9.02V9a.03.03 0 0 1 0-.03l1.14-1.05V7.9l-.76-.7h-.01a.03.03 0 0 0-.03 0L5.72 8.97a.04.04 0 0 0 0 .06l3.26 3a.03.03 0 0 0 .03 0l.75-.7h.01a.04.04 0 0 0 0-.06Zm-.13-2.3-.6-.55a.04.04 0 0 0-.06 0l-.6.56a.03.03 0 0 0 0 .04l.6.56h.05l.6-.56a.03.03 0 0 0 0-.04Z" fill="#EF5822"/></svg>