<!-- by TradingView --><svg width="18" height="18" viewBox="0 0 18 18" xmlns="http://www.w3.org/2000/svg"><path fill="#F0F3FA" d="M0 0h18v18H0z"/><path fill-rule="evenodd" d="M13.02 11.5c1.02-.68 1.58-1.57 1.58-2.5 0-.93-.56-1.82-1.58-2.5A7.33 7.33 0 0 0 9 5.4c-1.59 0-3 .43-4.02 1.1C3.96 7.18 3.4 8.07 3.4 9c0 .93.56 1.82 1.58 2.5A7.33 7.33 0 0 0 9 12.6c1.59 0 3-.43 4.02-1.1ZM9 13c3.31 0 6-1.8 6-4s-2.69-4-6-4-6 1.8-6 4 2.69 4 6 4Z" fill="#29166F"/><path d="M3.84 9.86h-.35c-.2-.26-.2-.88-.2-.96 0-.39.6-3.61 5.72-3.61 5.1 0 5.7 3.22 5.7 3.76 0 .36-.05.72-.12.8h-.63l.36-.85h-.76l-.12-.4-.16.5-.33.19H7l-.29-.97h-.46l-.06-.77-.62 1.16H4.43v.58h-.75l.16.57Z" fill="#0093DD"/><path d="M7.57 6.55c0-.3.28-.55.63-.55h2.51v2.43c0 .3-.28.55-.62.55H7.57V6.55Z" fill="#29166F"/><path d="M7.94 6.3h1.4c.31 0 .45.17.45.39 0 .21-.24.24-.36.22-.32 0-.58.25-.58.55v.13c0 .27.24.5.53.5h.03v.53l.2.1H7.94l.25-.1V6.39l-.25-.1Zm1.9.35c0 .2-.16.3-.36.3-.2 0-.58.15-.58.6 0 .45.46.5.68.5.21 0 .77-.32.77-.91 0-.48-.46-.76-.67-.83.06.05.15.19.15.34Z" fill="#E87819"/><path d="M3.51 10h11.07A3.66 3.66 0 0 1 13 11.7V11H5v.64A3.62 3.62 0 0 1 3.51 10Zm2.15 2c.85.39 1.96.66 3.4.66 1.43 0 2.54-.27 3.39-.66h-6.8Z" fill="#29166F"/></svg>