<!-- by TradingView --><svg xmlns="http://www.w3.org/2000/svg" width="18" height="18"><path fill="#DA2073" d="M0 0h18v18H0z"/><path fill-rule="evenodd" d="M5.19 6C3.44 6 2 7.34 2 9s1.44 3 3.19 3h7.63C14.57 12 16 10.66 16 9s-1.44-3-3.18-3H5.19zM2.55 9c0-1.4 1.1-2.43 2.64-2.43h7.63c1.53 0 2.63 1.03 2.63 2.43 0 1.4-1.1 2.43-2.63 2.43H5.19c-1.53 0-2.64-1.02-2.64-2.43zm10.96-1.4c-.36-.14-.7-.21-1.1-.2-.49 0-.94.26-1.22.77-.3.57-.25 1.3.11 1.83.28.36.66.53 1.05.58.41.06.82-.01 1.2-.13l.06-.02.01-.07a18.97 18.97 0 00.07-.52l.05-.25-.2.15-.06.04c-.27.21-.48.37-.8.36a1.17 1.17 0 01-.84-.37 1.32 1.32 0 01-.04-1.55.86.86 0 01.78-.36c.3.02.61.15.84.36l.13.13.03-.19c.03-.16.03-.32-.01-.5l-.02-.04-.04-.02zm-4.38-.2l.38.01c.26.03.52.12.7.38h.01c.1.15.14.33.14.51s-.04.36-.14.51a.87.87 0 01-.57.36c-.15.03-.3.03-.43.02v1.09c0 .02 0 .04.02.05l.16.27h-.92l.15-.27.02-.06V7.73L8.4 7.4h.74zm.09.43v.92l.09.01c.08 0 .16 0 .21-.02a.4.4 0 00.2-.19c.1-.23.04-.52-.1-.66a.37.37 0 00-.23-.07l-.17.01zM4.4 7.4h1.29l-.25.27.03.05.36.82.37-.78.07-.15v-.02l-.01-.03-.01-.04-.02-.12h.76l-.24.34-.65 1.38.2.45.87-1.81.07-.15v-.03l-.01-.02-.01-.04-.03-.12h.79l-.27.34-1.48 2.99-.47-1-.49 1-1.29-2.81a1.11 1.11 0 00-.24-.34l-.18-.18h.85-.01zm.23.16l.22.15.02.02.03.05.06.13.1.24.44 1.02-.17.37-.8-1.76-.01-.01-.05-.09.02-.02.06-.04a.65.65 0 00.05-.04l.03-.02z" fill="#fff"/></svg>