<!-- by TradingView --><svg width="18" height="18" viewBox="0 0 18 18" xmlns="http://www.w3.org/2000/svg"><path fill="#F0F3FA" d="M0 0h18v18H0z"/><path d="M9.25 4a5 5 0 0 1 0 9.99 7.4 7.4 0 0 1-1.81-5c0-2 .7-3.79 1.8-4.99Z" fill="url(#a4bzvqyyk)"/><path d="M9.25 14a7.4 7.4 0 0 1-1.81-5c0-2 .7-3.79 1.8-5H9a5 5 0 1 0 .25 10Z" fill="url(#b4bzvqyyk)"/><path d="M10.9 9.16c-.25 2.87-1.36 3.8-1.88 3.9l.47.31c1-.37 1.35-2.96 1.4-4.21Z" fill="#fff"/><path d="M11.08 8.06c.62.87 1.01 1.9.89 2.98-.1.91-.85 1.58-1.77 1.35a1.35 1.35 0 0 1-1.02-1.38c0-1.14 1.17-2.22 1.9-2.95ZM9.8 11.01c0 .56.37.75.52.78h.01c.58.14.96-.27 1.02-.81.09-.77-.08-2-.3-2.45-.43.48-1.25 1.78-1.25 2.48ZM8.7 12.6a3.5 3.5 0 0 1-2.5-1.1c.5 1 1.99 1.35 2.67 1.4l-.16-.3Z" fill="#fff"/><path d="M5.43 10.88c.62 0 1.29.04 1.86.32.6.3.76.84.55 1.44-.11.35-.44.42-.77.42h-.01c-1 0-1.46-1.44-1.63-2.19Zm.15.15c.14.49.82 1.72 1.48 1.72.19 0 .41 0 .48-.2.16-.46.06-.84-.4-1.07-.4-.2-1.11-.42-1.56-.45ZM10.12 7.44C8.74 8.69 7.77 8.79 7.46 8.69V9c1 .13 2.19-.99 2.66-1.56Z" fill="#fff"/><path d="M10.12 7.44c-.2.02-.79.08-1.25.15-.47.08-.53.63-.33 1.03.02.05.17.22.48.22.26 0 .52-.27.63-.46.12-.24.38-.7.47-.94Zm-1.28 0c.5-.08 1-.16 1.5-.16-.15.4-.29.82-.5 1.2-.16.32-.42.68-.82.68-.43 0-.69-.25-.76-.4-.3-.58-.09-1.2.58-1.32ZM7.62 9.94a4.39 4.39 0 0 1-2.2-1.72 3.7 3.7 0 0 0 2.2 2.03v-.31Z" fill="#fff"/><path d="M4.94 7.72c.6.1 1.25.26 1.7.7.36.37.77 1 .3 1.47-.2.2-.5.25-.76.2-1.14-.19-1.14-1.45-1.24-2.37Zm.18.19c.06.67.25 1.85 1.06 1.98.21.04.44-.11.54-.22.32-.32.03-.75-.2-.98-.29-.3-1.01-.69-1.4-.78ZM9.94 13.84c-.1.1-.31.13-.78.16A7.1 7.1 0 0 1 7.3 8.84c.02-.7.14-1.36.32-1.97-.5-.4-.64-1.13-.64-2.09.28 1.21.56 1.65.74 1.8.4-1.11 1-2.01 1.58-2.58A7.58 7.58 0 0 0 7.9 6.66h.04l-.08.16c-.19.7-.26 1.38-.23 2.02.07 2.17 1.45 4.08 2.32 5Z" fill="#fff"/><path d="M6.91 4.36c.4.3.87.67 1 1.17.09.4-.09.97-.54.97-.35 0-.7-.23-.7-.63 0-.54.08-1 .24-1.5Zm.08.26c-.12.41-.16.67-.16 1.1 0 .3.27.46.54.46.35 0 .47-.33.4-.62-.1-.41-.57-.74-.78-.94Z" fill="#fff"/><defs><linearGradient id="a4bzvqyyk" x1="14.47" y1="8.99" x2="7.44" y2="8.99" gradientUnits="userSpaceOnUse"><stop stop-color="#81BF40"/><stop offset="1" stop-color="#1D9944"/></linearGradient><linearGradient id="b4bzvqyyk" x1="4" y1="9.47" x2="7.28" y2="9.63" gradientUnits="userSpaceOnUse"><stop stop-color="#005085"/><stop offset="1" stop-color="#00A0D5"/></linearGradient></defs></svg>