<!-- by TradingView --><svg width="18" height="18" viewBox="0 0 18 18" xmlns="http://www.w3.org/2000/svg"><path fill="#F0F3FA" d="M0 0h18v18H0z"/><path d="M14.98 8.13c-.1.7-.4 1.32-.83 1.89a7.62 7.62 0 0 1-3.14 2.27 8.77 8.77 0 0 1-4.2.68 6.04 6.04 0 0 1-1.67-.37c-1.2-.45-2.12-1.4-2.14-2.67a3.81 3.81 0 0 1 .64-1.94c.28-.42.61-.8.99-1.12a8.53 8.53 0 0 1 2.5-1.5A11.72 11.72 0 0 1 8.3 5l.04.02c.03.03.04.08.02.13-.07.16-.18.37-.35.43-.7.24-1.3.56-1.8.96-.5.39-.92.9-1.07 1.49-.16.6 0 1.17.47 1.61.58.55 1.43.8 2.23.86 1.31.1 2.55-.14 3.72-.71.76-.38 1.5-.95 1.87-1.7a1.7 1.7 0 0 0 0-1.63 2.42 2.42 0 0 0-1.09-.9.1.1 0 0 1-.05-.06c-.03-.18.03-.33.17-.46.06-.04.14-.01.2 0l.45.2a3 3 0 0 1 1.85 2.2c.04.24.05.47.02.69Z" fill="#027EC2"/><path d="M9.78 6.85c-.37 0-.72.04-1.06.11-.53.13-1 .34-1.42.64-.34.26-.6.57-.69.96-.07.31.04.64.28.86a2.23 2.23 0 0 0 .44.32l.02.05c.02.11-.03.31-.2.26-.57-.2-1.07-.45-1.38-.96-.35-.57-.2-1.22.19-1.75.4-.58.99-.97 1.65-1.27a6.17 6.17 0 0 1 3.33-.53c.37.04.73.14 1.09.3.3.15.53.31.71.5.34.37.46.78.39 1.23-.1.59-.56 1.14-1.04 1.5-.64.47-1.37.8-2.13.98-.1.02-.13-.01-.1-.1l.02-.04a.33.33 0 0 1 .19-.2c.7-.28 1.49-.72 1.65-1.5.1-.41-.19-.83-.54-1.02a2.2 2.2 0 0 0-.79-.29c-.2-.02-.4-.05-.6-.05Z" fill="#B7D562"/><path d="M9.17 5.89c1.28-.27 4.2-.05 3.52 2.01-.08.24-.23.4-.39.6l-.11.13c-.04.03-.08.05-.11.09a3.58 3.58 0 0 1-.22.17c-.03 0-.04-.02-.04-.04l.05-.17.01-.04a.13.13 0 0 0 .03-.04c.7-1.75-1.78-2.24-2.94-1.96-.88.2-2.24.62-2.52 1.61-.12.44-.18.84.15 1.2a.03.03 0 0 1 0 .04H6.6l-.01.01-.08-.01a.74.74 0 0 0-.12-.06.2.2 0 0 1-.07-.04c-.5-.46-.58-1.32-.12-1.84a5.04 5.04 0 0 1 2.98-1.66Z" fill="#D7E7A7"/><path d="m13.71 6.16.01-.04.07-.1c0-.02.02-.02.03-.02l.06.02.06.02a3.6 3.6 0 0 0 .17.14c.75.97.79 3.43-2.17 5.3a.57.57 0 0 1-.14.06 10.2 10.2 0 0 1-4.13 1.14c-1.66.03-4.54-.77-4.3-2.82.08-.6.28-1.07.57-1.65.2-.42.63-1.13 1.13-1.27 0 0 .02 0 .03-.02a.15.15 0 0 1 .14-.03c.02 0 .03.01.03.03l.03.03c.02.01.02.02.01.04-.24.3-.5.94-.53 1.32-.03.42.03.78.23 1.14.04.07.08.13.13.17l.1.11c.82.93 2.31 1.26 3.51 1.1a14.07 14.07 0 0 0 2.12-.44c2.05-.8 3.52-1.8 2.84-4.23Z" fill="#008ED1"/><path d="M12.43 7.4c0 .05-.02.08-.05.1a.03.03 0 0 1-.04 0c-.34-.61-.85-.73-1.3-1.15a9.52 9.52 0 0 1-.07-.02c-.03 0-.03-.01-.01-.03.01-.02.03-.02.04-.02.64.06 1.44.37 1.43 1.12Z" fill="#F5F9E5"/><path d="M6.96 8.6c.05-.25.16-.47.34-.65.37-.37.84-.6 1.35-.76a.5.5 0 0 1 .2-.01h.01v.02c-.03.15-.15.22-.28.27-.18.07-.35.18-.5.33-.21.2-.31.52-.14.77.2.3.77.42 1.1.4.5-.04 1-.19 1.37-.52.34-.3.4-.77-.03-1.02-.15-.08-.08-.3.09-.26.27.08.55.23.72.45.23.3.24.64.02 1-.2.32-.52.56-.86.73a4 4 0 0 1-1.9.4c-.5-.04-1.13-.22-1.4-.67a.68.68 0 0 1-.1-.48Z" fill="#008ED1"/><path d="M4.02 9.2a.49.49 0 0 1 .12-.23.03.03 0 0 1 .03 0 .03.03 0 0 1 .02.01l.07.15c.04.07.04.16.07.24.45 1.33 2.08 1.88 3.4 2.04l.17.02a8 8 0 0 0 3.99-.8 1.83 1.83 0 0 1 .34-.13h.01a.02.02 0 0 1 0 .03c-.04.08-.16.15-.23.2-.87.62-1.82.92-2.84 1.17-1.88.48-5.77.04-5.15-2.7Z" fill="#00A2E3"/></svg>