<!-- by TradingView --><svg width="18" height="18" fill="none" xmlns="http://www.w3.org/2000/svg"><path fill="#F0F3FA" d="M0 0h18v18H0z"/><path fill-rule="evenodd" clip-rule="evenodd" d="M2 7h3.162S6 6.923 6 8s-.838 1-.838 1h-2.59v2H2V8.385h3s.429.077.429-.385S5 7.615 5 7.615H2V7ZM10.667 7H7.65S6.499 7 6.499 8c0 .912 1.167 1 1.167 1h2.167s.5.154.5.77c0 .615-.5.615-.5.615H6.5V11h3.444S11 10.934 11 9.77c0-1.297-1.167-1.385-1.167-1.385H7.666s-.5.006-.5-.385c0-.39.421-.333.5-.333h3V7ZM14.1 7h-.875l-1.9 4h.73s.482-.923 1.608-.923c1.126 0 1.607.923 1.607.923H16l-1.9-4Zm.585 2.77-1.022-2.155L12.64 9.77s.506-.307 1.023-.307c.516 0 1.022.307 1.022.307Z" fill="#C5234F"/></svg>