<!-- by TradingView --><svg width="18" height="18" viewBox="0 0 18 18" xmlns="http://www.w3.org/2000/svg"><path fill="#F0F3FA" d="M0 0h18v18H0z"/><path d="m7.92 4.02 1.23.8a.1.1 0 0 1 .04.04.1.1 0 0 1 0 .1.11.11 0 0 1-.05.03l-.6.31a.13.13 0 0 1-.13 0l-1.34-.9a.1.1 0 0 1-.03-.04.1.1 0 0 1 0-.05.1.1 0 0 1 .02-.05.12.12 0 0 1 .05-.03L7.8 4a.13.13 0 0 1 .1.01ZM10.24 4.97l-.33-.51a.08.08 0 0 1 .02-.1.1.1 0 0 1 .05-.03h.07l.61.3a.1.1 0 0 1 .04.02l.39.48a.08.08 0 0 1 0 .1.1.1 0 0 1-.05.03c-.03.01-.05 0-.07 0l-.68-.25a.1.1 0 0 1-.05-.04Z" fill="#EB1D22"/><path d="m9.73 5.42.65.56.04.05a.13.13 0 0 1 0 .11l-.04.05-.37.28a.17.17 0 0 1-.11.04.17.17 0 0 1-.1-.04l-.72-.63a.14.14 0 0 1-.03-.05.13.13 0 0 1 .01-.12.15.15 0 0 1 .05-.05l.43-.22a.17.17 0 0 1 .2.02Z" fill="#F18C1F"/><path d="M7.3 7.57 4.14 7.2c-.02 0-.04 0-.05-.02a.14.14 0 0 1-.05-.03.12.12 0 0 1-.02-.05v-.05l.33-1.51c0-.03.03-.06.06-.08a.16.16 0 0 1 .1-.02l2.94.33c.04 0 .07.03.1.05.01.03.03.06.02.09l-.12 1.54-.02.05c0 .02-.02.03-.04.04a.16.16 0 0 1-.1.03Z" fill="#EB1D22"/><path d="m11.35 6.31-.6-.22a.09.09 0 0 1-.04-.02l-.02-.03-.16-.45v-.04c0-.02.01-.03.03-.04a.1.1 0 0 1 .1-.01l.53.2.03.02.02.02.22.47v.05c0 .01 0 .03-.02.04a.09.09 0 0 1-.04.02.1.1 0 0 1-.05 0Z" fill="#F18C1F"/><path d="m12.53 6.45-.43-.53a.11.11 0 0 1-.03-.05.1.1 0 0 1 0-.06l.12-.25c0-.02.02-.04.04-.05a.15.15 0 0 1 .14-.01l.06.03.35.47a.1.1 0 0 1 .03.08l-.04.31c0 .03 0 .05-.03.07a.14.14 0 0 1-.06.04h-.08a.13.13 0 0 1-.07-.05Z" fill="#EB1D22"/><path d="m11.94 6.33-.07.05c-.07.05-.09.14-.03.2l.41.48c.06.06.15.08.22.03l.08-.05c.07-.05.08-.14.03-.2l-.42-.48a.17.17 0 0 0-.22-.03ZM9.66 7.82l-1.43-.28a.1.1 0 0 1-.06-.03.09.09 0 0 1-.02-.06l.07-1.08.02-.04a.1.1 0 0 1 .03-.03.11.11 0 0 1 .09-.02l1.31.33a.1.1 0 0 1 .06.04l.02.05.04 1.02v.04a.1.1 0 0 1-.04.04.12.12 0 0 1-.09.02Z" fill="#F18C1F"/><path d="M10.54 8.17c.38.58 1.04.88 1.47.66.43-.21.46-.87.08-1.46s-1.04-.89-1.47-.67c-.43.22-.47.88-.08 1.47Z" fill="#FECB14"/><path d="M12.73 7.53h-.01c-.1.03-.15.12-.12.2l.2.56c.04.08.14.13.24.1h.01c.1-.04.15-.13.12-.2l-.21-.56c-.03-.08-.13-.13-.23-.1Z" fill="#F18C1F"/><path d="m13.75 7.8.22.78a.1.1 0 0 1 0 .06.1.1 0 0 1-.05.05.13.13 0 0 1-.14 0l-.2-.14a.1.1 0 0 1-.05-.05l-.28-.82a.1.1 0 0 1 0-.06.1.1 0 0 1 .05-.05.13.13 0 0 1 .13 0l.28.17a.1.1 0 0 1 .04.06Z" fill="#EB1D22"/><path d="m9.53 10.25-.96-1.1a.13.13 0 0 1-.03-.04.12.12 0 0 1 .01-.1.14.14 0 0 1 .04-.04l1.16-.8a.17.17 0 0 1 .17-.01c.02 0 .03.02.04.03l.88 1.01a.12.12 0 0 1-.02.18l-1.07.89a.17.17 0 0 1-.17.02.15.15 0 0 1-.05-.04ZM12.9 10.14l-.5-.75a.09.09 0 0 1 0-.1l.34-.55a.1.1 0 0 1 .04-.03.12.12 0 0 1 .1 0 .1.1 0 0 1 .05.03l.43.7a.09.09 0 0 1 0 .08l-.27.6a.1.1 0 0 1-.04.04.12.12 0 0 1-.11 0 .1.1 0 0 1-.05-.02Z" fill="#F18C1F"/><path d="M4.07 11.4 7.3 9.1a.2.2 0 0 1 .27.02l1.62 1.78a.15.15 0 0 1-.03.23l-3.12 2.25a.2.2 0 0 1-.25-.02l-1.74-1.72A.16.16 0 0 1 4 11.6a.15.15 0 0 1 .01-.13.17.17 0 0 1 .05-.06Z" fill="#EB1D22"/><path d="M12.27 9.6v1.14l-.02.03a.1.1 0 0 1-.02.03.11.11 0 0 1-.07.03h-.95l-.04-.01a.1.1 0 0 1-.03-.02.1.1 0 0 1-.03-.04v-.03l.02-1.25.01-.04a.1.1 0 0 1 .03-.03l.04-.02h.04l.93.12c.03 0 .05.01.07.03l.02.06Z" fill="#F18C1F"/><path d="m14 10.94-.3.83c0 .02-.01.03-.03.04a.1.1 0 0 1-.11 0 .09.09 0 0 1-.04-.04l-.36-.9v-.06l.4-.92.05-.04a.1.1 0 0 1 .11 0l.03.05.25 1v.04ZM10.15 13.94l.46-2.42.02-.03.04-.01 1.7.06h.03l.02.02a.04.04 0 0 1 0 .04l-.5 2.1c0 .02-.01.02-.02.03l-.03.01-1.66.26h-.03l-.02-.01-.01-.02v-.03Z" fill="#EB1D22"/></svg>