<!-- by TradingView --><svg width="18" height="18" viewBox="0 0 18 18" xmlns="http://www.w3.org/2000/svg"><path fill="#F0F3FA" d="M0 0h18v18H0z"/><path d="M13.85 7.82C13.1 5.42 11.39 4.14 8.7 4h-.34c.75.76 1.3 1.55 1.67 2.38a3.87 3.87 0 0 1-.6 3.41c-.1.13-.08.21.09.25 1.57.3 3.18.28 4.4-.85.18-.17.02-1.06-.07-1.37Z" fill="url(#a)"/><path d="M9.24 6.26c.4.03.49-.11.26-.43l-.88-1.2a.9.9 0 0 0-.94-.38c-.82.13-1.62.63-2.38 1.48A5.09 5.09 0 0 0 4 9.6l1.95-.5a.22.22 0 0 0 .16-.12c.12-1.44 1.23-2.87 3.13-2.72Z" fill="url(#b)"/><path d="M12.13 12.98a5 5 0 0 0 1.85-3.44c0-.07-.02-.09-.08-.04a4.56 4.56 0 0 1-4.55.81c-.17-.05-.34-.1-.5-.17-.63-.2-1.26-.42-1.87-.48a6.25 6.25 0 0 0-2.73.36.22.22 0 0 0-.12.1.21.21 0 0 0-.02.15 5.2 5.2 0 0 0 1.7 2.67A4.7 4.7 0 0 0 9.1 14a4.57 4.57 0 0 0 3.02-1.02Z" fill="url(#c)"/><path fill="#fff" fill-opacity=".6" d="M6 11h6v1H6z"/><defs><linearGradient id="a" x1="11.18" y1="4" x2="11.18" y2="10.21" gradientUnits="userSpaceOnUse"><stop stop-color="#1E8AC0"/><stop offset="1" stop-color="#59ADE8"/></linearGradient><linearGradient id="b" x1="7.88" y1="5.21" x2="5.68" y2="9.35" gradientUnits="userSpaceOnUse"><stop stop-color="#7BBCD7"/><stop offset="1" stop-color="#D1E9F3"/></linearGradient><linearGradient id="c" x1="9.04" y1="9.47" x2="9.04" y2="14" gradientUnits="userSpaceOnUse"><stop stop-color="#1C286D"/><stop offset="1" stop-color="#2C689D"/></linearGradient></defs></svg>