<!-- by TradingView --><svg width="18" height="18" viewBox="0 0 18 18" xmlns="http://www.w3.org/2000/svg"><path fill="#F0F3FA" d="M0 0h18v18H0z"/><path d="m9.93 7.1.06.03a558.76 558.76 0 0 0 .97 2.39l-.94 2.36c-.03.08-.08.12-.15.12H8.02c-.02 0-.03 0-.05-.02a.13.13 0 0 1-.04-.05L7 9.58c-.02-.05-.04-.05-.06 0L6 11.91a.17.17 0 0 1-.05.06.1.1 0 0 1-.06.03H4.02c-.01 0-.03 0-.05-.02a.13.13 0 0 1-.03-.05L2 7.09a.08.08 0 0 1 0-.06l.01-.02H3.91l.05.01.05.06.93 2.34.01.02H5L5 9.42l.93-2.33a.17.17 0 0 1 .05-.06.1.1 0 0 1 .07-.03H7.9c.02 0 .03 0 .05.02l.04.05.94 2.37.01.01h.03v-.01l.95-2.34Z" fill="#01AEBC"/><path d="M10.96 9.52A556.56 556.56 0 0 1 10 7.14a.17.17 0 0 0-.06-.03c.01-.07.06-.11.14-.11a1609.06 1609.06 0 0 0 1.9.02l.01.04 1.96 4.88a.06.06 0 0 1 0 .04l-.01.01H12c-.04 0-.07-.02-.09-.06l-.96-2.41ZM13.9 7H15.98l.02.02a.07.07 0 0 1 0 .05l-1.04 2.58-.01.02h-.03l-.02-.02-1.03-2.58a.07.07 0 0 1 0-.05l.01-.01.02-.01Z" fill="#0972CE"/></svg>