<!-- by TradingView --><svg width="18" height="18" viewBox="0 0 18 18" xmlns="http://www.w3.org/2000/svg"><path fill="#F0F3FA" d="M0 0h18v18H0z"/><path fill-rule="evenodd" d="M9 15A6 6 0 1 0 9 3a6 6 0 0 0 0 12Zm0-.7A5.3 5.3 0 1 0 9 3.7a5.3 5.3 0 0 0 0 10.6Z" fill="#003349"/><path d="M9.41 5.82c-.07-.07-.19-.14-.41-.14v.3-.3c-.22 0-.34.07-.4.14a.59.59 0 0 1-.2-.43c0-.33.27-.59.6-.59.33 0 .6.26.6.59 0 .17-.08.32-.19.43Zm.06.54A1.08 1.08 0 0 0 9 4.31a1.08 1.08 0 0 0-.47 2.05v.88h-1.3c-.18-.3-.45-.08-.56.04-.33.2-.13.5 0 .63.27.27.48.2.56.09h1.3v3.14c-.2 1.08-1.12.7-1.56.37v-.37c-.47-.23-1.2-.9-1.5-1.2a4.6 4.6 0 0 0 .73 2.14l.14-.3c.3.37 1.9 1.3 2.66 1.71V6.47v7.02c.76-.42 2.36-1.34 2.66-1.7l.14.3c.2-.28.63-1.1.73-2.14-.3.3-1.03.96-1.5 1.2v.36c-.44.33-1.37.71-1.56-.37V8h1.3c.08.11.29.18.56-.09.13-.12.33-.42 0-.63-.12-.12-.38-.34-.56-.04h-1.3v-.88Z" fill="#003349"/><path d="M9 7.59v5.47l-.98-1.05c.42-.07.6-.5.63-.72V7.6h-1.9c0-.34.25-.27.37-.2h1.53V6.07c.06-.18.25-.21.35-.2V7.4h1.79l.17-.11c.2-.01.26.2.26.3H9Zm-1.52 4.7c-.45-.2-1.41-.8-1.71-1.73.2.18.83.77 1.7 1.73Zm3.02 0c.45-.2 1.41-.8 1.71-1.73-.2.18-.83.77-1.7 1.73Z" fill="#B0BBC1"/></svg>