<!-- by TradingView --><svg width="18" height="18" viewBox="0 0 18 18" xmlns="http://www.w3.org/2000/svg"><path fill="#F0F3FA" d="M0 0h18v18H0z"/><path d="M14 9a2.5 2.5 0 1 1-5 0 2.5 2.5 0 0 1 5 0Z" fill="#FC9B41"/><path d="M15 7.21h-1.44c.72.29.78 1.79.72 2.5L15 10.8V7.2Z" fill="#434D65"/><path d="M11.5 6c.68 0 1.3.23 1.81.6A5.03 5.03 0 0 0 3.87 9a5.03 5.03 0 0 0 9.44 2.4 2.99 2.99 0 0 1-4.05-.4H6V7h3.26a3 3 0 0 1 2.24-1Z" fill="#5CCAEE"/><path d="M6 7.22v1.6h.77c.34 0 .52-.17.54-.61h.09v1.34h-.08C7.27 9.15 7.1 9 6.77 9H6v1.32c0 .3.01.45.29.45h.59c.2 0 .34-.01.43-.05.09-.03.18-.09.26-.18.1-.12.21-.3.33-.55H8l-.3 1H5v-.1h.12c.33 0 .48-.26.48-.6V7.7c0-.35-.2-.6-.48-.6H5V7h2.7v.88h-.06a1.49 1.49 0 0 0-.13-.44.42.42 0 0 0-.19-.18 1.03 1.03 0 0 0-.36-.04H6Z" fill="#404457"/><path d="M5.9 7v.1a.27.27 0 0 0-.18.06.52.52 0 0 0-.13.2l-.13.49L4.68 11H4.6l-.64-2.5-.63 2.5h-.08l-.83-3.25-.11-.43a.34.34 0 0 0-.12-.16.3.3 0 0 0-.19-.05V7h1.04v.1h-.05c-.08 0-.13.03-.17.08a.25.25 0 0 0-.06.16c0 .07.03.23.1.47L3.4 10l.47-1.87-.09-.33-.06-.26c-.03-.1-.06-.19-.1-.26a.32.32 0 0 0-.06-.1.35.35 0 0 0-.1-.07.33.33 0 0 0-.13-.01V7h1.09v.1h-.08c-.07 0-.13.03-.17.08a.3.3 0 0 0-.05.18c0 .1.03.27.1.52L4.74 10l.53-2.15c.06-.24.1-.4.1-.5a.26.26 0 0 0-.04-.12.17.17 0 0 0-.07-.08.45.45 0 0 0-.2-.04V7h.83Z" fill="#404457"/><path d="M12.49 11.14V7.21L15 11.14h-2.51Z" fill="#434D65"/></svg>