<!-- by TradingView --><svg width="18" height="18" viewBox="0 0 18 18" xmlns="http://www.w3.org/2000/svg"><path fill="#F0F3FA" d="M0 0h18v18H0z"/><path fill-rule="evenodd" d="M14 6H4v6h8c1.1 0 2-.8 2-1.8V6ZM6 7H5v4h1V7Zm1.67 2L8 8l.33 1L8 10l-.33-1Zm0-2L7 9l.67 2h.66l.34-1.33L9 11h.67L10 9.67l.33 1.33H11l.33-1.33.34 1.33h.66L13 9l-.67-2h-.66l-.34 1.33L11 7h-.67L10 8.33 9.67 7H9l-.33 1.33L8.33 7h-.66ZM12 8l.33 1-.33 1-.33-1L12 8Zm-1.33 0L11 9l-.33 1-.34-1 .34-1ZM9.33 8l.34 1-.34 1L9 9l.33-1Z" fill="#B71F12"/></svg>