<!-- by TradingView --><svg width="18" height="18" viewBox="0 0 18 18" xmlns="http://www.w3.org/2000/svg"><path fill="#F0F3FA" d="M0 0h18v18H0z"/><path d="M6.33 6.66H5c.19 0 .66.26 1.26.26s1.17-.17 1.68-.17S9 6.98 9 8.06C9 9.71 6.64 12.04 5.45 13 9.14 11.27 10 8.6 10 7.5 10 6.4 9.24 6 8.64 6c-.6 0-1.83.66-2.31.66Z" fill="#624195"/><path d="m13.73 6.5 1.04-.5c-.15.07-.45.45-.92.67-.47.23-.95.32-1.35.52-.4.2-.78.57-.5 1.4.4 1.25 2.84 2.13 4 2.4-3.3.1-4.64-1.6-4.92-2.45-.28-.84.22-1.43.68-1.66.47-.23 1.6-.2 1.97-.37Z" fill="#C4D82E"/><path d="M2 8.93c0-.68 1.71-1.68 2.57-2.1C4.05 7.23 3 8.16 3 8.7c0 .68 1.06.64 1.76.64 6.1 0 9.37-2.23 10.24-3.35-1.33 3.08-8.2 4-9.89 4C3.44 10 2 9.78 2 8.93Z" fill="#EF373E"/><circle cx="9.5" cy="5.5" r=".5" fill="#624195"/><circle cx="11.5" cy="6.5" r=".5" fill="#C4D82E"/><path d="M9.8 10a4.5 4.5 0 0 1-.8 1.2c.11-.09.44-.28.8-.28.38 0 .96.72 1.2 1.08-.15-1.73-.86-2.05-1.2-2Z" fill="#624195"/><path d="M11.82 10c.4.24.95.34 1.18.37-.15 0-.54.04-.94.25-.4.2-.82 1-.99 1.38-.3-1.25.38-1.85.75-2Z" fill="#C4D82E"/></svg>