<!-- by TradingView --><svg width="18" height="18" viewBox="0 0 18 18" xmlns="http://www.w3.org/2000/svg"><path fill="#F0F3FA" d="M0 0h18v18H0z"/><path d="M3 11.5v-4C4 7 4.5 7 5.5 7c1.6 0 3.33 1.67 4 2.5-1 .83-3 2.5-4.5 2.5a5.1 5.1 0 0 1-2-.5Z" fill="#8DC63F"/><path d="M9 10.5c-.4.4-1.17.83-1.5 1A6.2 6.2 0 0 1 10 11c1.2 0 2.83.67 3.5 1 .17 0 .5-.1.5-.5s-.33-.5-.5-.5c.5 0 1.32-.14 1.5-.5.4-.78-.83-1-1-1 .33 0 1.14.22 1.5-.5.3-.61-.83-1-1-1h1c.17 0 .5-.1.5-.5s-.33-.5-.5-.5H14c-2.5 0-4.5 3-5 3.5Z" fill="#0073AE"/></svg>