<!-- by TradingView --><svg width="18" height="18" viewBox="0 0 18 18" xmlns="http://www.w3.org/2000/svg"><path fill="#F0F3FA" d="M0 0h18v18H0z"/><path d="M9.3 10.89c.3 1 .56 2.15.9 3.11H8.4c.3-1.04.64-2.15.9-3.11ZM5 4c.5.12.75.44.92 1 .18.59.47 1.78.9 3.56.42 1.75 1.06 4.4 1.38 5.44H5V4Zm8 0v10h-2.4l.61-2.65.06-.23.07-.32.1-.39.84-3.57.03-.12.02-.07.03-.12L13 4ZM7.77 4 9.2 9.82l-.49 1.96c-.15-.53-.49-1.88-.84-3.3l-.05-.22-.05-.22-.03-.1-.05-.22L6.8 4h.97Zm4.63 0-1.68 7.78c-.29-.92-.54-2.2-.72-3l.44-1.6.04-.16.08-.3.04-.16.02-.07.04-.16.6-2.33h1.14ZM9.76 7.78l.24.99-.56 1.9-.24-.83.56-2.06ZM10.4 4s-.24 1.2-.52 2.45l-.04.15-.01.08-.04.15-.17.73L8.8 4h1.6Z" fill="#001830"/></svg>