<!-- by TradingView --><svg width="18" height="18" viewBox="0 0 18 18" xmlns="http://www.w3.org/2000/svg"><path fill="#F0F3FA" d="M0 0h18v18H0z"/><path fill-rule="evenodd" d="M9 13c3.87 0 7-1.8 7-4s-3.13-4-7-4-7 1.8-7 4 3.13 4 7 4Zm0-.33c3.48 0 6.3-1.64 6.3-3.67 0-2.02-2.82-3.67-6.3-3.67S2.7 6.98 2.7 9c0 2.03 2.82 3.67 6.3 3.67Z" fill="#1F8F54"/><path d="M14 9.89c0 .87-.83 1.11-1.53 1.11-.23 0-.62-.04-1.16-.1v-.94h.21c0 .57.52.83 1 .83s1.1-.2 1.1-.79c0-.6-1.23-.92-1.64-1.12-.37-.22-.48-.5-.48-.82 0-.82.72-1.06 1.39-1.06.2 0 .64.03 1.11.1v.93h-.21c0-.58-.5-.82-.99-.82-.42 0-.92.18-.92.7 0 .25.18.47.54.64.59.27 1.58.51 1.58 1.34ZM11.3 11H8.67l.01-.19c.26 0 .33-.18.33-.54V7.6c0-.2-.03-.32-.09-.35-.03-.03-.1-.04-.3-.04V7h2.52l.05.93H11c-.03-.27-.08-.45-.16-.54-.08-.1-.25-.14-.5-.14h-.96v1.5h.4c.34 0 .53-.02.56-.07a.34.34 0 0 0 .03-.16h.17v.72h-.17c0-.07 0-.13-.02-.16-.04-.05-.22-.08-.57-.08h-.4v1.4c0 .16.05.27.13.31.05.03.28.04.45.04.41 0 .69-.03.82-.09.24-.1.35-.35.35-.72h.18V11Z" fill="#1F8F54"/><path d="M8.62 7.18c-.1 0-.18.07-.24.2l-.12.38-.92 3.23-.3.01a167.7 167.7 0 0 0-.71-3.1L5.44 11h-.3a94.76 94.76 0 0 0-.63-2.8 3.14 3.14 0 0 0-.33-.93c-.03-.04-.1-.06-.18-.07V7h1.1v.18h-.24c-.1.02-.15.08-.15.17a129.47 129.47 0 0 1 .67 3.1 325.26 325.26 0 0 0 .79-3.04c-.05-.1-.09-.16-.13-.19a.51.51 0 0 0-.2-.02V7H7v.18h-.23c-.1.02-.16.08-.16.17 0 .05.02.11.04.19l.63 2.9a283.8 283.8 0 0 0 .8-3.1c0-.08-.04-.12-.12-.14h-.2V7h.87v.18Z" fill="#1F8F54"/></svg>