<!-- by TradingView --><svg width="18" height="18" viewBox="0 0 18 18" xmlns="http://www.w3.org/2000/svg"><path fill="#F0F3FA" d="M0 0h18v18H0z"/><path d="M5 4h3.67v1.33H6.33v1h-1v5.34h1v1h2.34V14H5v-1H4V5h1V4Zm.33.33v1h-1v7.34h1v1h3V13H6v-1H5V6h1V5h2.33v-.67h-3ZM13 4H9.33v1.33h2.34v1h1v5.34h-1v1H9.33V14H13v-1h1V5h-1V4Zm-.33.33v1h1v7.34h-1v1h-3V13H12v-1h1V6h-1V5H9.67v-.67h3Z" fill="#E8343D"/><path d="M6.67 5.67h2V7H8v1h-.67v2H8v1h.67v1.33h-2v-1H6V6.67h.67v-1ZM7 6v1h-.67v4H7v1h1.33v-.67h-.66v-1H7V7.67h.67v-1h.66V6H7ZM11.33 5.67h-2V7H10v1h.67v2H10v1h-.67v1.33h2v-1H12V6.67h-.67v-1ZM11 6v1h.67v4H11v1H9.67v-.67h.66v-1H11V7.67h-.67v-1h-.66V6H11Z" fill="#E8343D"/></svg>