<!-- by TradingView --><svg width="18" height="18" viewBox="0 0 18 18" xmlns="http://www.w3.org/2000/svg"><path fill="#F0F3FA" d="M0 0h18v18H0z"/><path d="M5.84 12.26V13h-.63v-.78c.2.02.4.04.63.04Zm0-.42v-.57a6.82 6.82 0 0 1-2.25-.47c.34.43.78.74 1.17.94.24.04.64.09 1.08.1Zm-2.63-1.68c.59.3 1.53.65 2.63.69v-.78A6.86 6.86 0 0 1 3 9.33c.03.3.1.58.2.83ZM3 8.84c.56.33 1.6.76 2.83.8v-.7a6.87 6.87 0 0 1-2.73-.69c-.05.2-.09.4-.1.6Zm.25-1c.6.3 1.52.63 2.58.67v-.72a4.97 4.97 0 0 1-2.23-.63c-.13.22-.25.45-.35.69Zm.6-1.03a4.5 4.5 0 0 0 1.98.56v-.76a3.96 3.96 0 0 1-1.5-.4c-.16.19-.33.38-.49.6Zm.8-.92c.31.14.72.27 1.18.3V5c-.2.07-.67.4-1.18.89Z" fill="#007737"/><path d="M6.16 12.26V13h.63v-.78c-.2.02-.4.04-.63.04Zm0-.42v-.57a6.82 6.82 0 0 0 2.25-.47c-.34.43-.78.74-1.17.94a8.8 8.8 0 0 1-1.08.1Zm2.64-1.68c-.6.3-1.54.65-2.64.69v-.78c1.18-.04 2.19-.4 2.84-.74-.02.3-.1.58-.2.83ZM9 8.84c-.56.33-1.6.76-2.84.8v-.7a6.87 6.87 0 0 0 2.73-.69c.05.2.1.4.1.6Zm-.26-1c-.6.3-1.51.63-2.58.67v-.72a4.97 4.97 0 0 0 2.23-.63c.13.22.25.45.35.68Zm-.6-1.03a4.5 4.5 0 0 1-1.98.56v-.76c.6-.03 1.12-.21 1.5-.4.17.19.33.38.49.6Zm-.8-.92c-.31.14-.72.27-1.18.3V5c.2.07.67.4 1.18.89ZM12.16 12.26V13h.63v-.78c-.2.02-.4.04-.63.04Zm0-.42v-.57a6.82 6.82 0 0 0 2.25-.47c-.34.43-.78.74-1.17.94-.24.04-.64.09-1.08.1Zm2.63-1.68c-.59.3-1.53.65-2.63.69v-.78c1.17-.04 2.19-.4 2.84-.74-.03.3-.1.58-.2.83Zm.2-1.32c-.56.33-1.6.76-2.83.8v-.7a6.87 6.87 0 0 0 2.72-.69c.06.2.1.4.12.6Zm-.25-1c-.6.3-1.52.63-2.58.67v-.72a4.97 4.97 0 0 0 2.23-.63c.13.22.25.45.35.68Zm-.6-1.03a4.5 4.5 0 0 1-1.98.56v-.76c.6-.03 1.12-.21 1.5-.4.16.19.33.38.49.6Zm-.8-.92c-.31.14-.72.27-1.18.3V5c.2.07.67.4 1.18.89Z" fill="#722B0D"/><path d="M11.84 12.26V13h-.63v-.78c.2.02.4.04.63.04Zm0-.42v-.57a6.82 6.82 0 0 1-2.25-.47c.34.43.78.74 1.17.94.24.04.64.09 1.08.1ZM9.2 10.16c.6.3 1.54.65 2.64.69v-.78A6.86 6.86 0 0 1 9 9.33c.02.3.1.58.2.83ZM9 8.84c.56.33 1.6.76 2.84.8v-.7a6.87 6.87 0 0 1-2.73-.69c-.05.2-.1.4-.1.6Zm.26-1c.6.3 1.51.63 2.58.67v-.72a4.97 4.97 0 0 1-2.23-.63c-.13.22-.25.45-.35.69Zm.6-1.03a4.5 4.5 0 0 0 1.98.56v-.76a3.96 3.96 0 0 1-1.5-.4c-.17.19-.33.38-.49.6Zm.8-.92c.31.14.72.27 1.18.3V5c-.2.07-.67.4-1.18.89Z" fill="#007737"/></svg>