<!-- by TradingView --><svg xmlns="http://www.w3.org/2000/svg" width="18" height="18"><path fill="#F0F3FA" d="M0 0h18v18H0z"/><path fill-rule="evenodd" d="M6.52 4h1.54v.4H7.7l.49 1.43.56-1.42h-.42V4h1.5v.4h-.41l.47 1.43.42-1.42h-.25V4h1.19v.4h-.32l-.6 2.25 1.53-1.7-.24-.4.35-.2.8 1.32-.35.2-.19-.3-.96 1.15 1.5-.26-.21-.35.35-.21.78 1.28-.35.21-.22-.35-.97 1.14 1.44-.38-.14-.22.35-.2.62 1.01-.35.21-.16-.27-2.31.68 2.33.47.21-.4.36.19-.74 1.36-.35-.2.17-.32-1.48-.25.98 1.17.2-.36.36.19-.72 1.32-.36-.19.2-.37-1.48-.25 1.06 1.04.12-.22.36.19-.57 1.05-.36-.2.15-.27-1.65-1.55.68 2.18h.45V14H9.98v-.4h.36l-.49-1.43-.56 1.42h.42V14h-1.5v-.4h.41l-.48-1.43-.41 1.42h.25V14H6.8v-.4h.31l.59-2.21-1.52 1.7.24.4-.35.2-.8-1.32.34-.2.2.3.96-1.15-1.5.26.2.36-.34.2-.78-1.28.35-.21.21.36.98-1.15-1.44.38.13.22-.35.2-.61-1.01.35-.21.16.27 2.33-.69.46.77-.67 1 1.16-.2.4.65h.82l.51 1.1.44-1.1h.73l.4-.73 1.2.07-.75-.9.36-.68h.06l-.46-.75.68-1-1.17.2-.4-.67.03-.02h-.83l-.51-1.1-.44 1.1h-.75l-.42.76-1.2-.08.75.9-.36.69-2.42-.48-.21.4-.36-.2.74-1.36.35.2-.17.32 1.48.25-.98-1.17-.2.37-.36-.2.72-1.32.36.2-.2.36 1.48.26L5.66 5.6l-.12.23-.36-.2.57-1.04.36.19-.15.27 1.71 1.62-.7-2.27h-.45V4zM9 10.67a1.67 1.67 0 100-3.33 1.67 1.67 0 000 3.33zM9 11a2 2 0 100-4 2 2 0 000 4zm0-1.38a.62.62 0 100-1.24.62.62 0 000 1.24z" fill="#0C7133"/></svg>