<!-- by TradingView --><svg width="18" height="18" viewBox="0 0 18 18" xmlns="http://www.w3.org/2000/svg"><path fill="#F0F3FA" d="M0 0h18v18H0z"/><path d="M5.57 4.65V8.2l1-.49 1.57 1.46 2.57-2.92 1.72 1.62V4.65H5.57Z" fill="#F49F70"/><path d="M5.86 4h6.28c.53 0 .86.48.86.97v7.72l-.05.1C12.6 13.61 11.33 15 9 15s-3.6-1.4-3.95-2.2L5 12.68V4.97c0-.49.33-.97.86-.97Zm.43 1a.28.28 0 0 0-.29.3v2.54l.09-.26c.26-.29.81-.31 1.1-.05l.9.98 2.1-2.64a.66.66 0 0 1 1.04-.03L12 6.87V5.3c0-.17-.13-.29-.29-.29H6.3ZM12 8.25l-1.27-1.6L8.46 9.5 6 12.45c.38.55 1.3 1.58 3 1.58 1.9 0 2.72-1.06 3-1.58v-4.2ZM6 11.3l1.52-2.08-.78-.86-.74.85v2.1Z" fill="#845974"/><path d="m10.1 12.8.32-.18.19-.15c.05-.06.07-.1.07-.16a.13.13 0 0 0-.04-.1c-.04-.03-.09-.05-.15-.05a.23.23 0 0 0-.16.05.16.16 0 0 0-.06.12H10c0-.1.05-.19.14-.25.1-.05.21-.08.35-.08.15 0 .27.03.35.08.09.06.13.13.13.22a.3.3 0 0 1-.09.2.96.96 0 0 1-.2.17c-.06.05-.16.1-.28.17h.6V13h-1v-.14l.1-.06ZM9.86 12.14l-.48.86h-.25l.48-.83H9V12h.86v.14ZM7.94 12.47c-.13-.05-.2-.12-.2-.21 0-.05.02-.1.06-.13a.36.36 0 0 1 .16-.1.82.82 0 0 1 .25-.03c.1 0 .19.01.26.04.07.02.12.05.16.09.03.04.05.08.05.13s-.02.09-.05.13a.34.34 0 0 1-.14.08c.07.02.13.05.17.1a.2.2 0 0 1 .05.14c0 .06-.02.1-.06.15a.42.42 0 0 1-.18.1.86.86 0 0 1-.26.04.86.86 0 0 1-.25-.04.44.44 0 0 1-.18-.1.22.22 0 0 1-.07-.15c0-.06.02-.1.06-.15.04-.04.1-.07.17-.09Zm.48-.19a.11.11 0 0 0-.05-.1.28.28 0 0 0-.16-.03.28.28 0 0 0-.15.03.11.11 0 0 0-.05.1c0 .05.02.08.05.1.04.02.1.04.15.04.06 0 .11-.02.15-.04.04-.02.06-.06.06-.1Zm-.2.27a.36.36 0 0 0-.18.04.12.12 0 0 0-.07.1c0 .05.02.09.06.12.05.02.1.04.18.04.08 0 .14-.02.18-.04.04-.03.06-.07.06-.11 0-.05-.02-.08-.06-.11a.34.34 0 0 0-.18-.04ZM7 12.18V12h.43v1h-.26v-.82H7Z" fill="#845974"/></svg>