<!-- by TradingView --><svg xmlns="http://www.w3.org/2000/svg" width="18" height="18"><path fill="#F0F3FA" d="M0 0h18v18H0z"/><path d="M7.25 9.38c-.97 1.16-1.87 2.22-3.55 2.84 1.74-.09 2.88-1.3 4.14-2.66 1.12-1.2 2.34-2.5 4.15-3.2-1.51 2.04-1.15 4.4.78 4.82a4 4 0 001.23-.1v-.38c-.3.06-.61.07-.9.03-2.35-.63-1.47-3.38.9-5.73a11.5 11.5 0 00-6.75 4.38zm-.1 2.28c-1.35.65-2.66 1.3-4.15.53 1.33 1.56 3.14.53 4.64-.32.82-.47 1.54-.88 2.05-.8-1 .47-1.2 1.05-.5 1.67.02-1.4.95-1.83 2.45-1.67-1.7-.77-3.11-.08-4.5.59z" fill="#607C9E"/></svg>