<!-- by TradingView --><svg width="18" height="18" viewBox="0 0 18 18" xmlns="http://www.w3.org/2000/svg"><path fill="#F0F3FA" d="M0 0h18v18H0z"/><path d="M5.25 11.75 3 9.49 4.24 8.2l1.63 1.61 1.59-1.6 1.6 1.6L12 6.82l1.24 1.25-3.57 3.68A.89.89 0 0 1 9 12a.88.88 0 0 1-.56-.25l-.98-1-.99 1c-.55.45-1.04.19-1.22 0Z" fill="url(#aqdptqwlx)"/><path d="m8.7 9.45-1.24 1.3-1.23-1.3L7.46 8.2 8.7 9.45Z" fill="#6A9C42"/><path fill="#6A9C42" fill-opacity=".65" d="M12.3 6.37 13.65 5 15 6.37l-1.35 1.37z"/><defs><linearGradient id="aqdptqwlx" x1="11.95" y1="7.02" x2="5.47" y2="12.86" gradientUnits="userSpaceOnUse"><stop stop-color="#65973E"/><stop offset=".99" stop-color="#2D530F"/></linearGradient></defs></svg>