<!-- by TradingView --><svg width="18" height="18" viewBox="0 0 18 18" xmlns="http://www.w3.org/2000/svg"><path fill="#F0F3FA" d="M0 0h18v18H0z"/><path d="M5 7H2l3 2.99V7Z" fill="url(#a)"/><path d="M13 7h3l-3 2.99V7Z" fill="url(#b)"/><path d="M5 10.03h2.63L5 7.04v3Z" fill="url(#c)"/><path d="M13 10.03h-2.63L13 7.04v2.99Z" fill="url(#d)"/><path d="M5 10.02h2.63l-1.42 1.49L5 10.02Z" fill="url(#e)"/><path d="M13 10.02h-2.63l1.43 1.49 1.2-1.49Z" fill="url(#f)"/><path d="m5 10.02 1.21 1.49L5 13v-2.98Z" fill="url(#g)"/><path d="m13 10.02-1.21 1.48L13 13v-2.98Z" fill="url(#h)"/><path d="M7.62 7.08 6.31 8.54l1.31 1.5V7.08Z" fill="url(#i)"/><path d="m10.38 7.07 1.35 1.43-1.35 1.53V7.07Z" fill="url(#j)"/><path d="M7.62 7.06 9 8.56H7.62v-1.5Z" fill="url(#k)"/><path d="M10.38 7.06 9 8.56h1.38v-1.5Z" fill="url(#l)"/><defs><linearGradient id="a" x1="4.81" y1="7" x2="3.33" y2="8.42" gradientUnits="userSpaceOnUse"><stop stop-color="#0170BD"/><stop offset="1" stop-color="#014591"/></linearGradient><linearGradient id="b" x1="13.19" y1="7" x2="14.67" y2="8.42" gradientUnits="userSpaceOnUse"><stop stop-color="#01ABDC"/><stop offset="1" stop-color="#0189B0"/></linearGradient><linearGradient id="c" x1="6.21" y1="8.54" x2="4.74" y2="9.84" gradientUnits="userSpaceOnUse"><stop stop-color="#01448F"/><stop offset="1" stop-color="#0174C0"/></linearGradient><linearGradient id="d" x1="11.79" y1="8.54" x2="13.26" y2="9.84" gradientUnits="userSpaceOnUse"><stop stop-color="#0189B0"/><stop offset="1" stop-color="#01ADDE"/></linearGradient><linearGradient id="e" x1="6.22" y1="10.17" x2="6.22" y2="11.51" gradientUnits="userSpaceOnUse"><stop stop-color="#014692"/><stop offset="1" stop-color="#0172BE"/></linearGradient><linearGradient id="f" x1="11.78" y1="10.17" x2="11.78" y2="11.51" gradientUnits="userSpaceOnUse"><stop stop-color="#0189B0"/><stop offset="1" stop-color="#01A9D9"/></linearGradient><linearGradient id="g" x1="6.21" y1="11.51" x2="4.81" y2="11.51" gradientUnits="userSpaceOnUse"><stop stop-color="#0170BD"/><stop offset="1" stop-color="#014490"/></linearGradient><linearGradient id="h" x1="11.79" y1="11.51" x2="13.19" y2="11.51" gradientUnits="userSpaceOnUse"><stop stop-color="#01A9DA"/><stop offset="1" stop-color="#0189B0"/></linearGradient><linearGradient id="i" x1="6.36" y1="8.55" x2="7.73" y2="8.55" gradientUnits="userSpaceOnUse"><stop stop-color="#0172BE"/><stop offset="1" stop-color="#014590"/></linearGradient><linearGradient id="j" x1="11.64" y1="8.55" x2="10.28" y2="8.55" gradientUnits="userSpaceOnUse"><stop stop-color="#01AADB"/><stop offset="1" stop-color="#0189B0"/></linearGradient><linearGradient id="k" x1="8.31" y1="7.81" x2="7.58" y2="8.53" gradientUnits="userSpaceOnUse"><stop stop-color="#014691"/><stop offset="1" stop-color="#016EBA"/></linearGradient><linearGradient id="l" x1="9.69" y1="7.81" x2="10.42" y2="8.53" gradientUnits="userSpaceOnUse"><stop stop-color="#0189B0"/><stop offset="1" stop-color="#01AADB"/></linearGradient></defs></svg>