<!-- by TradingView --><svg width="18" height="18" viewBox="0 0 18 18" xmlns="http://www.w3.org/2000/svg"><path fill="url(#a)" d="M0 0h18v18H0z"/><path d="M14 9c0 1.38-.49 2.56-1.46 3.54A4.82 4.82 0 0 1 9 14a4.82 4.82 0 0 1-3.54-1.46A4.82 4.82 0 0 1 4 9c0-1.38.49-2.56 1.46-3.54A4.82 4.82 0 0 1 9 4c1.38 0 2.56.49 3.54 1.46A4.82 4.82 0 0 1 14 9Zm-4.25-.61h-.02l-4.8-1.8-.04.01v.04l3.2 2 .01.02.85 4.95c0 .02 0 .02.02.03H9c.02 0 .03 0 .03-.02l.1-3.67v-.01l4-3.29v-.03h-.03L9.75 8.38Z" fill="#fff"/><defs><linearGradient id="a" x1="3.35" y1="3.12" x2="21.9" y2="24.43" gradientUnits="userSpaceOnUse"><stop stop-color="#1A1E21"/><stop offset="1" stop-color="#06060A"/></linearGradient></defs></svg>