<!-- by TradingView --><svg width="18" height="18" viewBox="0 0 18 18" xmlns="http://www.w3.org/2000/svg"><path fill="#4E452F" d="M0 0h18v18H0z"/><path d="M7.75 12C8.72 8.89 8.86 8.51 9 8c.13.52.26.88 1.28 4h1.6l1.5-5c.08-.25.15-.37.42-.41l.21-.03V6h-2.3v.56l.4.03c.25.02.33.12.33.25a2 2 0 0 1-.07.43 80.35 80.35 0 0 0-.9 3.31c-.1-.39-.26-1.18-1.36-4.58H8.67c-1.05 3.45-1.2 4.16-1.3 4.57-.1-.44-.25-1.03-.9-3.36a1.6 1.6 0 0 1-.06-.35c0-.15.11-.24.36-.26l.37-.04V6H4v.56l.2.02c.24.04.34.13.42.37L6.16 12h1.6Z" fill="#fff"/></svg>