<!-- by TradingView --><svg width="18" height="18" viewBox="0 0 18 18" xmlns="http://www.w3.org/2000/svg"><path fill="#F0F3FA" d="M0 0h18v18H0z"/><path d="M11.81 4v.2h-.36L9.96 7.75 9 5.51l-.93 2.24-1.5-3.55h-.38V4H7.7v.2h-.36v.28l.83 2.1.7-1.52-.44-.86h-.37V4h1.66v.2h-.44v.44l.8 1.93.86-2.37h-.5V4h1.36ZM4 6.19h.2v.36l3.55 1.49L5.51 9l2.24.93-3.55 1.5v.38H4V10.3h.2v.36h.28l2.1-.83-1.52-.7-.86.44v.37H4V8.27h.2v.44h.44l1.93-.8-2.37-.86v.5H4V6.19Zm9.8 5.62h.2v-1.36h-.2v.5l-2.37-.86 1.93-.8h.44v.44h.2V8.07h-.2v.37l-.86.44-1.51-.7 2.1-.83h.27v.36h.2V6.2h-.2v.38l-3.55 1.5 2.24.93-2.24.96 3.55 1.5v.35ZM6.19 14v-.2h.36l1.49-3.55.96 2.24.93-2.24 1.5 3.55h.38v.2H10.3v-.2h.36v-.28l-.83-2.1-.7 1.52.44.86h.37v.2H8.27v-.2h.44v-.44l-.8-1.93-.86 2.37h.5v.2H6.19Z"/></svg>