<!-- by TradingView --><svg width="18" height="18" viewBox="0 0 18 18" xmlns="http://www.w3.org/2000/svg"><path fill="#F0F3FA" d="M0 0h18v18H0z"/><path d="m10.96 12.53-2.1-2.22 2.1-2.22 2.08 2.22-2.08 2.22Zm-1.83-2.22 1.83 1.95 1.83-1.96-1.83-1.94-1.83 1.95Z" fill="#4B5494"/><path d="m12.92 10.45-2.1-2.23L12.93 6 15 8.22l-2.08 2.23Zm-1.84-2.23 1.84 1.95 1.83-1.95-1.83-1.95-1.84 1.95Z" fill="#4B5494"/><path d="M9 10.45 6.92 8.22 9.01 6l2.07 2.22-2.07 2.23ZM7.18 8.22l1.84 1.95 1.83-1.95L9 6.27 7.17 8.22Z" fill="#4B5494"/><path d="m7.04 12.53-2.08-2.22 2.08-2.22 2.09 2.22-2.09 2.22Zm-1.83-2.22 1.83 1.95 1.83-1.95-1.83-1.95L5.2 10.3Z" fill="#4B5494"/><path d="M5.09 10.45 3 8.22 5.09 6l2.08 2.22-2.08 2.23ZM3.26 8.22l1.83 1.95L6.9 8.22 5.1 6.27 3.26 8.22Z" fill="#4B5494"/><path d="m9 8.69-1.96 2.09L9 12.86l1.96-2.08L9 8.68Z" fill="#B5B4D3"/><path d="m9 13-2.09-2.22 2.1-2.23 2.07 2.23L9.01 13Zm-1.83-2.22 1.84 1.95 1.83-1.95L9 8.83l-1.84 1.95Z" fill="#4B5494"/><path d="M10.96 6.6 9 8.7l1.96 2.09 1.96-2.1-1.96-2.08Z" fill="#B5B4D3"/><path d="M10.96 10.91 8.86 8.7l2.1-2.22 2.08 2.22-2.08 2.22ZM9.13 8.7l1.83 1.95L12.8 8.7l-1.83-1.95L9.13 8.7Z" fill="#4B5494"/><path d="M7.04 6.6 5.08 8.7l1.96 2.09L9 8.68 7.04 6.6Z" fill="#B5B4D3"/><path d="M7.04 10.91 4.96 8.7l2.08-2.22 2.09 2.22-2.09 2.22ZM5.21 8.7l1.83 1.95L8.87 8.7 7.04 6.74 5.21 8.7Z" fill="#4B5494"/></svg>