<!-- by TradingView --><svg width="18" height="18" viewBox="0 0 18 18" xmlns="http://www.w3.org/2000/svg"><path fill="#F0F3FA" d="M0 0h18v18H0z"/><path fill-rule="evenodd" d="M7.74 5c2.62 0 5.76 1.8 5.76 4 0 2.29-3.14 4-5.76 4C5.12 13 3 11.2 3 9s2.12-4 4.74-4Zm.14 1C9.6 6 11 7.12 11 8.5S9.6 11 7.88 11C6.16 11 5.5 9.88 5.5 8.5c0-.63.1-.84.58-1.28.14-.13.27-.28.4-.42.36-.41.7-.8 1.4-.8Z" fill="#959A9E"/><path fill-rule="evenodd" d="M10 13c2.76 0 5-1.8 5-4s-2.24-4-5-4-5 1.8-5 4 2.24 4 5 4Zm0-1c1.66 0 3-1.12 3-2.5S11.66 7 10 7 7 8.12 7 9.5 8.34 12 10 12Z" fill="#002777"/></svg>