<!-- by TradingView --><svg width="18" height="18" viewBox="0 0 18 18" xmlns="http://www.w3.org/2000/svg"><path fill="#F0F3FA" d="M0 0h18v18H0z"/><path d="m14 7.44-.42.36-1.93-.8L8 8l3.11-2.17.02-.02V5.1c0-.02 0-.03.02-.04a.74.74 0 0 1 .29-.06c.08 0 .15.02.22.05.15.08.32.2.5.1.02-.02.04 0 .04 0v.43c0 .02 0 .03-.02.03-.43.14-.59-.26-.94-.1-.02.01-.03.02-.03.04v.24l.02.04L14 7.43ZM15 9.54 12 12V8.01h.02l1.65.57v.96H15ZM11 11V9.32c0-.17.12-.32.29-.32h.02c.17 0 .29.15.29.32V11H11ZM8.1 9.08c.24.12.6.07.87.07.02 0 .03 0 .03.03v1.79c0 .02 0 .03-.03.03h-.9c-.03 0-.04-.01-.05-.03l-2-2.91c-.04-.06-.03-.08.03-.04L8.1 9.08ZM10.2 11V9.46c0-.13.11-.27.28-.27h.04c.16 0 .28.14.28.27V11h-.6ZM9.4 11V9.72c0-.12.14-.23.29-.23h.03c.17 0 .28.11.28.23V11h-.6ZM3 10.98 4.92 10h1.07c.02 0 .03.01.02.02L4.77 11H3.01C3 11 3 11 3 10.98ZM6.5 11a.5.5 0 1 0 0-1 .5.5 0 0 0 0 1Z" fill="#092847"/></svg>