<!-- by TradingView --><svg width="18" height="18" viewBox="0 0 18 18" xmlns="http://www.w3.org/2000/svg"><path fill="#F0F3FA" d="M0 0h18v18H0z"/><path d="M12.43 9.1h1.41a.17.17 0 0 1 .12.05l.03.06v.06c-.23 1.78-1.9 2.93-3.83 2.7a3.29 3.29 0 0 1-1.85-.83l-2.6-2.35c-.18-.16-.36-.23-.54-.21-.23.02-.44.27-.63.3-.14.02-.61.02-1.42.02a.1.1 0 0 1-.08-.05c-.05-.08-.05-.18-.01-.3C3.3 7.68 3.9 7.16 4.8 7c.58-.1 1.21.02 1.68.33.38.25.76.67 1.02.9l2.02 1.77c.99.85 2.37.36 2.71-.77a.18.18 0 0 1 .07-.1.21.21 0 0 1 .12-.04Z" fill="#BBCE00"/><path d="M8.68 8.72c.78-.8 1.59-1.63 2.86-.95.35.18.59.52.7 1 0 .03.03.05.07.05a7.9 7.9 0 0 0 1.65-.02.07.07 0 0 0 .02-.05 2.7 2.7 0 0 0-.76-1.73c-.9-.93-1.86-1.1-3.2-.99-1.08.1-1.81.8-2.52 1.5a.25.25 0 0 0-.08.18c0 .07.04.14.09.19l.96.88a.11.11 0 0 0 .08.03l.04-.01a104.57 104.57 0 0 0 .1-.08Zm-2.95.5a.8.8 0 0 0-.37.18.22.22 0 0 1-.27.01l-.3-.21c-.08-.05-.2-.08-.35-.07a14.05 14.05 0 0 0-1.39.11.08.08 0 0 0-.03.03.08.08 0 0 0 0 .06c.35 1.36 1.72 2 3.13 1.49.15-.06.32-.16.48-.27l.25-.15a.14.14 0 0 0 .05-.04.12.12 0 0 0 .01-.11.13.13 0 0 0-.03-.05l-1.03-.94a.18.18 0 0 0-.16-.04Z" fill="url(#a)"/><defs><linearGradient id="a" x1="3.01" y1="9.46" x2="13.98" y2="9.46" gradientUnits="userSpaceOnUse"><stop stop-color="#24467F"/><stop offset=".56" stop-color="#27284C"/><stop offset="1" stop-color="#205395"/></linearGradient></defs></svg>