<!-- by TradingView --><svg width="18" height="18" viewBox="0 0 18 18" xmlns="http://www.w3.org/2000/svg"><path fill="#F0F3FA" d="M0 0h18v18H0z"/><path d="M4.3 11c-.57 0-1.1.07-1.3.1 1.68-.1 2.91.33 4.63 1.01 2 .8 3.83.89 4.24.89.42 0 .67 0 1.13-.11-.64.02-2.5-.04-4.48-.78A15.62 15.62 0 0 0 4.3 11Z" fill="#CBCDCC"/><path d="M11.69 11.2c3.14 0 4.16-1.48 4.28-2.2.2 1.46-.48 3-3.51 3-3.8 0-5.83-1.49-8.58-1.49-.79 0-1.58.15-1.88.22.19-.18.96-.53 2.54-.53 2.97 0 4.12 1 7.15 1Z" fill="#BF232E"/><path d="M9.5 9 8 7.33 6 9l2-1.42L9.5 9ZM11 7.46l2.43 2.33L11 7.75l-.33.29-.14-.12.47-.46Z" fill="#CBCDCC"/><path d="m8 6 4 4h-1.2L8 7.04l-3.93 3.33h-1.2L5.5 8.04v-.98h-.13l.17-.18h.54v.74L8 6Z" fill="#BF232E"/><path d="M12.78 7.78 11 6 9.75 7.31l.58.61.67-.7L13.84 10H15l-1.66-1.73V7.2h.17l-.17-.2h-.56v.77ZM7.5 8.5a.5.5 0 0 1 1 0V9h-1v-.5Z" fill="#5B5B5D"/></svg>