<!-- by TradingView --><svg width="18" height="18" viewBox="0 0 18 18" xmlns="http://www.w3.org/2000/svg"><path fill="#F0F3FA" d="M0 0h18v18H0z"/><path fill-rule="evenodd" d="M13.64 12.9a5.77 5.77 0 0 0 1.22-5.07 6.33 6.33 0 0 0-1.32-2.66 6 6 0 0 0-7.72-1.3c.32-.13.6-.23.85-.3a6.64 6.64 0 0 1 3.88-.05c.96.29 1.81.9 2.44 1.67a6.62 6.62 0 0 1 1.48 3.94c0 .3-.01.58-.05.87H8.3v.15h6.11l-.04.26h-6.2v.15h6.16l-.11.44H8v.15h6.16l-.13.32H8v.15h5.97l-.2.38H8v.15h5.68c-.16.24-.33.47-.54.7H8.3V13H13l-.24.24H8.29v.14h4.3c-.17.14-.34.28-.54.41h-3.4v.15h3.18c-.2.12-.4.24-.62.35H8.84v.15h2.08c-.41.2-.86.38-1.36.55.07.01.16.02.25 0a7.4 7.4 0 0 0 2.44-.91c.5-.3.94-.67 1.31-1.08h.08v-.1ZM4.2 9.58c0-1.17.5-2.09.7-2.42-.68.12-1.31-.36-1.43-.62C3.3 6.83 3 7.72 3 8.88c0 2.79 1.64 4.58 2.47 5.06A11.9 11.9 0 0 1 4.2 9.57Zm2.24-1.08A4.25 4.25 0 0 0 6 10.46c0 1.18.67 3.67 1 4.04-.68-.4-2-2.46-2-4.6 0-.94.22-1.66.35-1.9.1.21.52.6 1.08.5Zm1.5 1.01a4.33 4.33 0 0 0-.43 2c0 1.2.63 3.15 1 3.5-.67-.47-2-1.93-2-4.09 0-.94.27-1.66.4-1.91.11.21.46.6 1.04.5ZM6 6.2C6 4.66 8 4.1 9 4a3.68 3.68 0 0 0-1.82 2.2c-.12.57-.35.8-.6.8C6.3 7 6 6.75 6 6.2Zm.23-.14c0-.3.27-.57.41-.67a1 1 0 0 0-.15.5c0 .07.01.1.03.13.01.03.03.06.03.13 0 .13-.07.2-.16.2-.08 0-.16-.1-.16-.29Zm7.73 3.65h-1.37L12.85 8h.4l-.22 1.36H14l-.04.35Zm-2.08 0h.43L12.59 8h-.43l-.28 1.7Zm-1.06 0h-.35L10.7 8h.69c.36 0 .54.18.5.53-.05.36-.29.5-.64.5h-.33l-.09.68ZM11 8.29l-.05.44h.31c.16 0 .27-.03.29-.2.02-.16-.06-.24-.23-.24H11ZM8.25 9.71h.39l.52-1.21.17 1.2h.39l.75-1.7h-.38l-.52 1.23L9.42 8h-.37l-.5 1.23h-.02L8.38 8H8l.25 1.7Z" fill="#008ACB"/></svg>