<!-- by TradingView --><svg width="18" height="18" fill="none" xmlns="http://www.w3.org/2000/svg"><path fill="#F0F3FA" d="M0 0h18v18H0z"/><path d="M11.412 12.433c-2.419 2.008-5.46 2.098-6.791.202-1.332-1.896-.45-5.06 1.968-7.068s5.458-2.098 6.79-.202c1.332 1.896.45 5.06-1.967 7.068Z" fill="#00A0E9"/><path d="m8.857 6.54 1.514-2.234h.902l-1.014 2.13c-.333.52.046.585.278.564h3.105v1.288l-3.591.143c-.715.038-1.152.512-1.282.744l-2.816 4.112-.894-.744L7.294 8.89c.239-.456-.1-.591-.298-.602l-1.937-.19.358-.839 2.22-.158a1.718 1.718 0 0 0 1.22-.561Z" fill="url(#a)"/><defs><linearGradient id="a" x1="12.352" y1="6.16" x2="4.794" y2="9.21" gradientUnits="userSpaceOnUse"><stop stop-color="#fff" stop-opacity=".4"/><stop offset=".469" stop-color="#fff"/><stop offset="1" stop-color="#fff" stop-opacity=".4"/></linearGradient></defs></svg>