<!-- by TradingView --><svg width="18" height="18" viewBox="0 0 18 18" xmlns="http://www.w3.org/2000/svg"><path fill="#F0F3FA" d="M0 0h18v18H0z"/><path d="M9.38 5.15c.6-.72 1.66-1.4 2.53-1.06.09.04.15.1.2.19.16.3.13.79-.23.93a3.4 3.4 0 0 0-1.65 1.36c-.04.07-.1.1-.17.12-1.16.24-1.36-.74-.68-1.54ZM7.56 6.48c.79-.55 1.3-1.23 1.12-1.52-.17-.3-.95-.08-1.75.46-.79.55-1.3 1.23-1.12 1.52.17.3.95.09 1.75-.46Zm6.81.62c.8-.66.96-1.81-.24-2.08-.99-.22-1.91.07-2.77.86a1.3 1.3 0 0 0-.43.92l.01.18c.1.43.3.53.6.3.69-.5 1.86-.7 2.63-.17.07.04.14.04.2-.01Zm-7.71 0h-.1c-.06 0-.1.05-.1.12l-.02 1.53c0 .07.05.12.11.12h.1c.06 0 .1-.05.1-.12l.02-1.53c0-.06-.05-.12-.11-.12Zm.25.9c-.06-.05.05-.3.25-.56.2-.26.41-.43.47-.37.07.05-.05.3-.24.57-.2.26-.41.42-.48.37Zm.7 1.22c.11-.02.11-.05 0-.09-.32-.1-.54-.31-.67-.63a.13.13 0 0 1 0-.1c.03-.06.07-.09.1-.09.07 0 .12.03.16.08.19.29.5.55.84.44.06-.02.07-.06.04-.12a1.2 1.2 0 0 1 0-1.31c.21-.36.67-.41.94-.08.22.27.29.62.2 1.04v.08l.03.06.06.03h.06c.27-.1.5-.26.68-.5a.26.26 0 0 0 .05-.22.25.25 0 0 0-.06-.1.22.22 0 0 0-.09-.06l-.07-.03c-.08-.03-.08-.05 0-.05.2-.02.39.03.57.15l.05.06a.2.2 0 0 1 .02.16c0 .03-.02.05-.04.07-.3.32-.63.6-1.03.75l-.04.02c-1.21.46-2.65 1.01-3.87.77-.31-.06-.36-.22-.14-.47.17-.18.34-.3.53-.38.1-.05.12-.02.03.06a.64.64 0 0 0-.13.22c-.08.2-.02.3.18.32.55.05 1.09.03 1.6-.08Zm.94-.52c.12 0 .22-.07.3-.2A.89.89 0 0 0 9 8.05a1 1 0 0 0-.03-.25.77.77 0 0 0-.09-.22.47.47 0 0 0-.13-.14.3.3 0 0 0-.16-.06c-.11 0-.22.07-.3.2a.89.89 0 0 0-.13.46 1 1 0 0 0 .02.25c.02.08.05.15.1.22.03.06.07.1.13.14.05.04.1.05.15.06Zm1.73.46c.64.3 1 .96.88 1.7-.01.08.02.11.08.12.87.15 1.66-.07 2.36-.67.75-.64 1.24-1.89.35-2.63a1.86 1.86 0 0 0-1.64-.35 3 3 0 0 0-2.1 1.58c-.06.11-.04.2.07.25Zm-5.5-.61c.46-.41.73-.88.6-1.05-.13-.17-.6.03-1.06.44-.46.4-.73.88-.6 1.04.13.17.6-.02 1.06-.43Zm3.06 4.73c-.68-.5-.72-1.72-.09-2.74.63-1.02 1.7-1.45 2.38-.96.68.49.72 1.71.09 2.73-.63 1.03-1.7 1.46-2.38.97ZM3.36 10.7c-.43.86-.48 1.73-.12 1.94.37.21 1.01-.31 1.44-1.17.43-.86.48-1.73.11-1.94-.36-.22-1 .3-1.43 1.17Zm2.37-.09-.07.2c-.17.43-.4.78-.69 1.05-.16.16-.26.35-.3.58-.08.52-.1 1.53.58 1.56.2 0 .4-.07.58-.24a3.83 3.83 0 0 0 1.22-2.7c.04-.65-.35-1.27-1.03-.89-.2.1-.24.26-.29.44Z" fill="#0069DA"/></svg>