<!-- by TradingView --><svg width="18" height="18" viewBox="0 0 18 18" xmlns="http://www.w3.org/2000/svg"><path fill="#F0F3FA" d="M0 0h18v18H0z"/><path d="M6 4h3.38l.71 1.76H6.6L6 4ZM6.8 6.35 7.33 8H11l-.67-1.65H6.79ZM11.2 8.5H7.5L8 10h3.78l-.58-1.5ZM12 10.5H8.18l.4 1H12v-1ZM12 12.5H8.78l.6 1.5H12v-1.5ZM7 8.3 6.43 6.8l-.57 5.78c-.5.25-.78 1.45-.86 1.96l.67-.03v.5H6v-.5h.33v.5h.34v-.5h.66c0-.97-.7-1.72-.9-1.92L7 8.3ZM11.1 7.8l.57 1.52.47-3.9c.5-.24.78-1.41.86-1.92h-.67V3h-.28v.5h-.38V3h-.29v.5h-.71c0 .97.7 1.72.9 1.92L11.1 7.8Z"/></svg>