<!-- by TradingView --><svg width="18" height="18" viewBox="0 0 18 18" xmlns="http://www.w3.org/2000/svg"><path fill="#F0F3FA" d="M0 0h18v18H0z"/><path d="M14 6.37c0-.2-.16-.37-.36-.37h-3.28c-.2 0-.36.17-.36.37v.53c-.02.22.15.43.36.43h.38l-.45.67 1.03-.67h2.32c.2 0 .36-.2.36-.41v-.55ZM10.33 7l-.02-.07h.3V7h-.28Zm.44-.75h.11v.06h.05c.02 0 .02-.02.02-.02v-.04h.1v.1c0 .02-.02.06-.05.06h-.12v.1h.17v.1h-.15v.17l.05-.13h.1l-.07.2c0 .03-.03.05-.06.05 0 .02.01.03.03.03h.1V7h-.17c-.03 0-.05 0-.06-.02V6.9h-.2v-.1h.18l-.02-.19h-.16v-.1h.16v-.12h-.13l-.01-.08h.13v-.06Zm1.74 0h.12v.06h.06c.02 0 .02-.02.02-.04v-.02h.1v.1c0 .02-.02.06-.05.06h-.11v.1h.16v.1h-.16v.17l.06-.13h.1l-.08.2c0 .03-.04.05-.07.05 0 .02.02.03.03.03h.1V7h-.17c-.03 0-.06 0-.06-.02V6.9h-.2v-.1h.19l-.02-.19h-.16v-.1h.16v-.12h-.13l-.02-.08h.13v-.06Zm.41 0h.75v.1h-.41V7h-.13v-.64h-.2v-.1Zm-.86.68h.28V7h-.28v-.07Zm-.73-.7h.14v.18h.46v.1h-.47v.39h.47V7h-.74v-.08h.14v-.68Zm-.9 0h.11l-.11.25h.03l.03-.07h.13l-.18.34h.17v.1h-.28v-.09h-.02l.1-.18h-.1v-.12l.12-.22Zm1.74 0h.12l-.12.25h.03l.04-.07h.13l-.18.35h.15v.09h-.3v-.09h.02l.1-.18h-.1v-.12l.11-.22Zm1.21.26h.11l.04.19c0 .03.01.03.02.03h.07l.02.12h-.13c-.03 0-.06-.01-.06-.07l-.07-.27Zm.4 2.05V8H11.8c-1.04.06-1.06.69-1.06.74V10h.79V9c0-.21.18-.45.4-.46h1.48c.35.01.36.47.36.47v1.01c-.03.46-.64.36-.64.36H7.09v-.37c.02-.47.51-.4.55-.39h1.4c1.11-.1 1.14-.7 1.14-.74C10.14 8 9.2 8 9.08 8h-6c-1 0-1.08.9-1.08.93v1.27c.03.74.91.8.94.8h1.98c.52-.07.73-.5.74-1V9H5v1.1c-.05.3-.26.29-.32.28H3.1c-.24-.01-.44-.14-.47-.38V9c0-.48.57-.47.72-.46h5.57c.46 0 .47.33.47.33 0 .18-.11.17-.27.15L8.96 9H7.25c-.83.05-.8.9-.8 1.03V11h6.98c.98 0 .98-1 .98-1.02V8.54h-.64ZM16 7.62V7h-.95v.62H14v.61h1.05v-.61H16Z" fill="#FF780B"/></svg>