<!-- by TradingView --><svg width="18" height="18" viewBox="0 0 18 18" xmlns="http://www.w3.org/2000/svg"><path fill="#F0F3FA" d="M0 0h18v18H0z"/><path d="M3.5 7 2 11h1l1-3 1.5 3h2L9 7H8L7 9.5 5.5 7h-2Z" fill="#008FD0"/><path d="M8.68 10.48a5.44 5.44 0 0 1-1.48 2.2c-.52.4-.88.36-1.07.2-.34-.27-.5-.79-.54-1.38H5c.02 1.02.27 1.85.77 2.25 1 .81 2.57-.43 3.53-2.78.96-2.35.93-4.9-.07-5.72-.75-.61-1.83-.06-2.72 1.25h.92c.49-.47 1.02-.73 1.44-.39.2.16.4.59.42 1.44a7.8 7.8 0 0 1-.6 2.93Z" fill="#A8D407"/><path d="M15.46 8 16 7h-4.3c-1.08 0-1.62.5-1.62 1.5 0 .8.71 1 1.07 1h2.16v.5h-3.27l-.54 1h4.65c.46 0 .87-.28 1.02-.68l.3-.82c.42-.8-.19-1-.55-1h-2.69V8h3.23Z" fill="#5B5953"/></svg>