<!-- by TradingView --><svg width="18" height="18" viewBox="0 0 18 18" xmlns="http://www.w3.org/2000/svg"><path fill="#F0F3FA" d="M0 0h18v18H0z"/><path d="M4.67 4C4.3 4 4 4.3 4 4.67V6.7A33.43 33.43 0 0 0 10.45 14h1.41c.45-.43.8-1.1.8-1.83 0-2-1.66-4.5-2.83-4.84C8.67 7 8.17 8 8.5 9.33c.33 1.34 1.67 2.34 2.5 2.34.54 0 .79-.37.92-.57L12 11c.33.33 0 1.67-1 1.67C9.67 12.67 7.67 11 7.5 9c-.13-1.6.67-2 1.33-2C11.9 7 13 11.67 13 12.67c0 .54-.13 1.01-.28 1.33h.61c.37 0 .67-.3.67-.67V4.67c0-.37-.3-.67-.67-.67H4.67Zm3.3 10A15.16 15.16 0 0 1 4 9.8v3.53c0 .37.3.67.67.67h3.3Z" fill="#D6000F"/></svg>