<!-- by TradingView --><svg width="18" height="18" viewBox="0 0 18 18" xmlns="http://www.w3.org/2000/svg"><path fill="#F0F3FA" d="M0 0h18v18H0z"/><path d="M7.2 5.46a3.73 3.73 0 0 1 2.6-1.4 5.05 5.05 0 0 0-3.54.76c.06.28.4.5.94.64ZM5.95 5.03c-.2.16-.4.34-.58.52v.13c0 .43.41.82 1.1 1.1.08-.27.22-.58.41-.9-.55-.2-.9-.51-.93-.85Z" fill="#C09861"/><path d="M4.96 6.04a5 5 0 0 0-.43.7c0 1 1.78 1.86 4.05 1.95.08-.35.18-.63.28-.83-2.17-.04-3.9-.87-3.9-1.82ZM4 8.71a5 5 0 0 1 .11-.8c.85.85 2.48 1.38 4.38 1.47-.02.36 0 .75.07 1.19-2.11-.1-3.87-.8-4.56-1.86ZM4.02 9.5c.05.5.17.97.35 1.41.5.35 1.03.65 1.6.88-.15-.43-.2-.86-.2-1.2A4.6 4.6 0 0 1 4.02 9.5ZM4.74 11.64c.7 1.1 1.8 1.93 3.12 2.23a3.5 3.5 0 0 1-1.58-1.4 7.35 7.35 0 0 1-1.54-.83ZM8.91 14H9a5 5 0 0 0 4.26-2.36 7.34 7.34 0 0 1-5.92 1.16c.46.58 1.06.97 1.57 1.2Z" fill="#C09861"/><path d="M13.63 10.91c.18-.44.3-.91.35-1.4-.9.96-2.79 1.68-4.98 1.68-.85 0-1.65-.1-2.37-.29.01.48.12.9.29 1.26a7.99 7.99 0 0 0 6.71-1.25Z" fill="#C09861"/><path d="M13.89 7.92a5 5 0 0 1 .11.8c-.68 1.03-2.41 1.73-4.5 1.84a6.3 6.3 0 0 1-.09-1.18c1.95-.07 3.61-.6 4.48-1.46ZM13.47 6.73a5 5 0 0 0-.43-.69c0 .86-1.4 1.63-3.27 1.79-.14.26-.23.55-.28.86 2.23-.1 3.98-.97 3.98-1.96Z" fill="#C09861"/><path d="M12.63 5.55a5.04 5.04 0 0 0-.58-.52C12 5.7 10.65 6.2 9 6.2c-.48 0-.93-.05-1.33-.13-.18.27-.32.58-.42.92.52.12 1.12.2 1.75.2 2 0 3.64-.65 3.64-1.5l-.01-.13Z" fill="#C09861"/><path d="M11.74 4.82a5 5 0 0 0-.96-.5c-.69.04-1.88.4-2.72 1.29.3.03.61.04.94.04 1.44 0 2.63-.3 2.74-.83Z" fill="#C09861"/></svg>