<!-- by TradingView --><svg width="18" height="18" viewBox="0 0 18 18" xmlns="http://www.w3.org/2000/svg"><path fill="#F0F3FA" d="M0 0h18v18H0z"/><path d="M6.71 14 3 4.28l3.3 2.15L5 6.09 8.1 14H6.7Z" fill="url(#a)"/><path d="M15 9.67C14.9 5.54 7.4 4.17 3.65 4c4.98 1.84 8.15 2.82 8.23 5.67.07 2.28-2.73 2.63-4.14 2.51l.79 1.68c2.19.33 6.56-.06 6.47-4.19Z" fill="#0225AD"/><path d="M8.01 9.22 6.98 6.85 9.12 8.1c.06.12.24.6.46 1.53.22.94-1.2 1.73-1.95 2.01l-.46-1.09c.93-.09.95-.93.84-1.34Z" fill="#030144"/><defs><linearGradient id="a" x1="3.46" y1="4.73" x2="7.57" y2="13.91" gradientUnits="userSpaceOnUse"><stop offset=".49" stop-color="#062AA6"/><stop offset="1" stop-color="#fff"/></linearGradient></defs></svg>