<!-- by TradingView --><svg width="18" height="18" viewBox="0 0 18 18" xmlns="http://www.w3.org/2000/svg"><path fill="#F0F3FA" d="M0 0h18v18H0z"/><path d="M6.19 5.77C6.19 4.47 7.86 4 8.99 4c4.46.12 5.15 3.6 4.99 5.31C13.34 7.4 10.11 7.75 9 7.75c-.83 0-2.81-.36-2.81-1.98Z" fill="#211917"/><path d="M13.68 9.78c0-1.12-1.45-1.56-2.18-1.72.44.31.15 1.4.15 1.56 0 .16-.15 1.26 1.01 1.26.93 0 1.07-.79 1.02-1.1ZM11.81 12.23c0 1.3-1.56 1.77-2.7 1.77-4.46-.12-5.25-3.6-5.1-5.31.64 1.92 3.88 1.56 4.99 1.56.83 0 2.81.36 2.81 1.98Z" fill="#211917"/><path d="M4.32 8.22c0 1.12 1.45 1.56 2.18 1.72-.44-.31-.15-1.4-.15-1.56 0-.16.15-1.26-1.01-1.26-.93 0-1.07.79-1.02 1.1Z" fill="#211917"/></svg>