<!-- by TradingView --><svg width="18" height="18" viewBox="0 0 18 18" xmlns="http://www.w3.org/2000/svg"><path fill="#F0F3FA" d="M0 0h18v18H0z"/><path fill-rule="evenodd" d="M3 8.48v.88c.05.55.17 1.1.37 1.63.23.65.52 1.14.87 1.46.05.05.11.07.18.07h9.2c.09 0 .17-.05.23-.12a5.81 5.81 0 0 0 .09-6.81A5.98 5.98 0 0 0 9.17 3 6.03 6.03 0 0 0 3 8.47Zm6.4-3.92.02.25c0 .15-.06.2-.2.12l-.95-.55c-.13-.08-.17-.04-.13.1.02.06.07.15.15.26.07.1.12.19.14.24.37.97.04 1.64-.98 2.02-.1.03-.11.09-.03.16.28.24.44.53.47.85.02.3-.05.58-.22.87-.17.27-.4.5-.68.66-.3.18-.6.26-.9.25-.72-.02-1.4-.03-2-.01a.07.07 0 0 0-.07.04c-.02.03-.01.06.01.08l2.17 2.18a.4.4 0 0 0 .29.12l.4.02c.36.02.63.02.81.02.31 0 .55-.04.72-.1a.51.51 0 0 1 .36-.02c.19.06.4.1.63.1h2.02c.17 0 .31-.08.45-.24a3 3 0 0 0 .3-.49l.2-.34a.2.2 0 0 1 .21-.09c.1.02.18.02.27 0a.3.3 0 0 0 .21-.14l.58-.95c.08-.13.05-.19-.1-.19h-2.19a.14.14 0 0 1-.12-.07.13.13 0 0 1-.02-.12 3.1 3.1 0 0 0 0-1.84.37.37 0 0 1 0-.22c.12-.4.17-.81.15-1.24 0-.11-.05-.19-.14-.24l-.86-.51a.26.26 0 0 1-.14-.25l.02-.37c0-.1-.04-.17-.13-.22l-.5-.27c-.15-.08-.22-.03-.21.13Z" fill="#0094D9"/><path d="m9.64 5.3.03-.37c0-.1.06-.12.15-.08l.1.05c.05.03.07.07.07.13l-.05.4c0 .11.04.2.13.25l.87.51c.1.06.16.16.14.28l-.08.86c0 .04-.03.08-.06.1a.14.14 0 0 1-.12.02c-.72-.22-1.48-.36-2.3-.42-.32-.02-.36-.14-.1-.35.45-.38.57-.88.34-1.5-.05-.16 0-.21.16-.14.18.07.34.19.49.34.04.04.09.05.14.03a.12.12 0 0 0 .1-.11ZM10.22 7.82l.5.07c.26.03.39.18.37.44L11 9.3c0 .1-.07.16-.17.17l-3.22.19c-.3.01-.33-.07-.1-.26.62-.47.8-1.08.53-1.81-.04-.11 0-.15.1-.13l1.29.22c.1.02.18-.02.24-.1l.06-.1c.07-.1.12-.1.17.01l.07.14c.05.1.13.17.24.18Z" fill="#F16421"/><path d="M7.81 11.3c.17 0 .2-.06.08-.18L7.78 11a.4.4 0 0 0-.3-.13h-1.9a.42.42 0 0 1-.29-.1l-.55-.5c-.16-.15-.13-.22.09-.22h2.85c.1 0 .18.04.25.1l.4.38c.03.03.07.05.12.05.05 0 .09-.03.12-.06l.31-.36a.3.3 0 0 1 .24-.11l1.2-.01c.14 0 .17.06.1.17l-.27.43c-.04.06-.1.11-.16.14a.33.33 0 0 1-.22 0c-.24-.06-.42-.01-.55.15-.14.18-.1.3.12.34.25.06.53.07.85.04.16-.02.2.03.12.17l-.17.28a.31.31 0 0 1-.22.16c-.46.1-.87.04-1.24-.18a.2.2 0 0 0-.22.01l-.17.13a.3.3 0 0 1-.2.06l-1.44-.03a.57.57 0 0 1-.4-.15l-.3-.29c-.14-.12-.11-.18.07-.18l1.79.01ZM11.01 10.76l-.32.04c-.17.01-.2-.05-.12-.19l.3-.45a.23.23 0 0 1 .2-.11h1.99c.13 0 .17.06.12.18-.16.44-.42.62-.76.54-.1-.02-.16 0-.21.1l-.47.8a.5.5 0 0 1-.46.28h-.57c-.19 0-.23-.07-.13-.23l.51-.84a.07.07 0 0 0 0-.08.08.08 0 0 0-.08-.04Z" fill="#F05107"/><path d="M4.75 12.88h8.5c.04 0 .06.01.07.05.02.03.01.05-.01.08l-.25.2a.08.08 0 0 1-.06.02H5.01c-.02 0-.04 0-.05-.02l-.26-.2c-.02-.02-.03-.05-.02-.08.01-.03.04-.05.07-.05ZM11.9 14.11H6.09a.1.1 0 0 1-.05 0l-.37-.2c-.04-.03-.06-.06-.04-.1 0-.03.04-.05.08-.05h6.57c.05 0 .08.02.1.06 0 .04-.01.07-.05.09l-.37.2a.1.1 0 0 1-.04 0ZM8.95 15c.98 0 1.78-.08 1.78-.18 0-.1-.8-.17-1.78-.18-.99 0-1.79.08-1.79.18 0 .1.8.18 1.79.18Z" fill="#0094D9"/></svg>