<!-- by TradingView --><svg width="18" height="18" viewBox="0 0 18 18" xmlns="http://www.w3.org/2000/svg"><path fill="#F0F3FA" d="M0 0h18v18H0z"/><path d="m7.75 8.2 1.3.78a.04.04 0 0 0 .04 0l1.74-1.04a.13.13 0 0 1 .13 0c.36.17 1.6.75.73 1.26l-2.14 1.3c-.43.25-.73.14-1.15-.12l-1.81-1.1a1.94 1.94 0 0 1-.66-.54c-.46-.79.89-1.77 1.47-2.04 2.07-.99 5-.95 6.81.61.72.63.97 1.54.66 2.48a4.36 4.36 0 0 1-2.42 2.46c-2.16.95-4.37 1-6.6.14C4.1 11.7 2.38 9.94 3.2 7.86a3.6 3.6 0 0 1 1.4-1.63 6.65 6.65 0 0 1 5.83-.91.4.4 0 0 0-.02.04l-.02.01h-.93c-1.7.02-4.03.72-4.8 2.5-.61 1.45.32 2.47 1.52 3.01 2.03.92 5.1 1.01 6.8-.7.58-.6.7-1.5 0-2.08-1.37-1.09-3.9-1.04-5.25 0-.05.03-.05.07 0 .1Z" fill="#003F97"/></svg>