<!-- by TradingView --><svg width="18" height="18" viewBox="0 0 18 18" xmlns="http://www.w3.org/2000/svg"><path fill="#F0F3FA" d="M0 0h18v18H0z"/><path fill-rule="evenodd" d="M15 9A6 6 0 1 1 3 9a6 6 0 0 1 12 0Zm-.53 0A5.47 5.47 0 1 1 3.53 9a5.47 5.47 0 0 1 10.94 0ZM9 13.59c.12 0 .24 0 .35-.02V9.31h.75l1 3.1c-.37.23-.8.4-1.24.5v.6a4.59 4.59 0 1 0-1.74 0v-.6a3.99 3.99 0 0 1-1.74-.88L8 10.53V9.3h.65v4.26l.35.02Zm2.59-1.54a4 4 0 0 0-.01-6.1l-.9 3 .9 3.1Zm-.46-6.44a3.98 3.98 0 0 0-1.78-.6v3.64h.79l.99-3.04Zm-3.72 4.7L6 11.63a3.98 3.98 0 0 1-.08-5.17l1.5 1.36v2.5Zm.6-2.83L6.34 6.01a3.98 3.98 0 0 1 2.3-1v3.64H8V7.48Z" fill="#95AABB"/></svg>