<!-- by TradingView --><svg width="18" height="18" viewBox="0 0 18 18" xmlns="http://www.w3.org/2000/svg"><path fill="#F0F3FA" d="M0 0h18v18H0z"/><path d="M12.18 5c.12.05.25.1.38.12 1.44.3 2 1.3 1.61 2.75 0 .02-.02.04-.05.04l-.78-.03h-.01a.03.03 0 0 1-.02-.02v-.02c.27-.6.28-1.07.03-1.42-.96-1.36-3.11-1.06-4.52-.5-1 .39-1.86.93-2.59 1.63a.48.48 0 0 1-.27.13l-.25.04c-.14.01-.16-.03-.06-.13A9.97 9.97 0 0 1 10.97 5h1.2Z" fill="#7BB52A"/><path d="M6.57 7.58A6.9 6.9 0 0 1 9.03 6.1a5.38 5.38 0 0 1 2.56-.32c1.07.14 1.66.74 1.76 1.78a.07.07 0 0 1-.04.07.08.08 0 0 1-.07 0c-.27-.13-.48-.13-.63 0a.1.1 0 0 1-.06.03c-.03 0-.05 0-.07-.02l-.06-.05a.08.08 0 0 1-.03-.1l.03-.04.18-.1v-.02a.03.03 0 0 0 .01-.02v-.01l-.04-.03a.13.13 0 0 0-.14-.01.44.44 0 0 1-.23.06c-.05 0-.07-.03-.07-.08v-.15c0-.05-.03-.07-.08-.07-.03 0-.06.01-.08.04a.5.5 0 0 1-.5.24l-.05.01a.2.2 0 0 0-.06.03l-.12.1c-.05.03-.08.02-.1-.03l-.09-.2c-.01-.04-.05-.06-.1-.06-.06 0-.16.1-.27.28h-.01l-.01.01h-.02l-.01-.01-.16-.2a.19.19 0 0 0-.1-.08.62.62 0 0 1-.4-.3c-.02-.04-.06-.06-.1-.04a.59.59 0 0 0-.18.12.12.12 0 0 1-.12.03.85.85 0 0 1-.32-.17c-.05-.05-.12-.05-.2 0a.14.14 0 0 1-.12 0 .57.57 0 0 0-.22-.04c-.52.03-.98.17-1.37.4a249.64 249.64 0 0 1-.77.44Z" fill="#7BB52A"/><path d="M11.18 11.8c.1-.02.2-.01.28.03l.22.1c.1.05.1.08 0 .1-1.78.47-3.37 1.24-5.26.87-1.2-.23-1.87-1-2.03-2.27a.05.05 0 0 1 .02-.05.06.06 0 0 1 .05-.01c.2.04.4.05.63.02.04 0 .07.01.08.05.5 2.94 4.17 1.62 6 1.17Z" fill="#09468C"/><path fill="#09468C" fill-opacity=".7" d="M2 8h14v2H2z"/></svg>