<!-- by TradingView --><svg width="18" height="18" viewBox="0 0 18 18" xmlns="http://www.w3.org/2000/svg"><path fill="url(#a)" d="M0 0h18v18H0z"/><path d="M14.84 4.07 15 4v10l-.16-.07A13.4 13.4 0 0 0 9 12.78c-1.94 0-3.91.29-5.84 1.15L3 14V4l.16.07c1.92.87 3.88 1.15 5.82 1.15h.03c1.94 0 3.9-.28 5.83-1.15ZM14 12.82V5.18c-1.65.54-3.32.78-4.98.78h-.04c-1.66 0-3.33-.23-4.98-.78v7.64c1.66-.54 3.33-.78 5-.78s3.34.25 5 .78ZM7.75 9.24v-.59l-1.08-.01v-.97l.84.04.48.02v-.58L6 7v4l2-.15v-.6c-.15.02-.32.02-.49.03l-.84.04V9.25h1.08ZM12 11V7l-.55.03v1.62h-.87v-1.6l-.58.02v3.86l.58.02V9.31h.87v1.66L12 11Z" fill="#fff"/><defs><linearGradient id="a" x1="3.35" y1="3.12" x2="21.9" y2="24.43" gradientUnits="userSpaceOnUse"><stop stop-color="#1A1E21"/><stop offset="1" stop-color="#06060A"/></linearGradient></defs></svg>