<!-- by TradingView --><svg width="18" height="18" viewBox="0 0 18 18" xmlns="http://www.w3.org/2000/svg"><path fill="url(#aqud2vwi1)" d="M0 0h18v18H0z"/><path d="M14 5.65a.65.65 0 1 1-1.3 0 .65.65 0 0 1 1.3 0Zm-1.3 1.57c0-.12.1-.22.21-.22h.88c.12 0 .21.1.21.22v3.56c0 .12-.1.22-.21.22h-.88a.22.22 0 0 1-.21-.22V7.22ZM5.52 9.57 4.37 12H3.02L4.7 8.63 3.53 6.24c-.06-.1.01-.24.12-.24H4.9l.7 1.6.7-1.6h1.14c.1 0 .17.13.12.24L6.45 8.55l1.3 2.17c.06.11 0 .28-.11.28H6.35l-.83-1.43ZM8 6.15v4.7c0 .08.06.15.13.15h.9c.07 0 .27-.07.27-.15V9h.23l1.1 2h1.23c.1 0 .18-.13.12-.23l-1.12-1.96c.38-.22.61-.65.61-1.23 0-.87-.54-1.58-1.33-1.58h-2c-.08 0-.14.07-.14.15ZM9.3 7h.6c.36 0 .47.22.47.5s-.1.5-.48.5H9.3V7Z" fill="url(#bqud2vwi1)"/><defs><linearGradient id="aqud2vwi1" x1="3.35" y1="3.12" x2="21.9" y2="24.43" gradientUnits="userSpaceOnUse"><stop stop-color="#1A1E21"/><stop offset="1" stop-color="#06060A"/></linearGradient><linearGradient id="bqud2vwi1" x1="3.57" y1="6.5" x2="13.53" y2="12.69" gradientUnits="userSpaceOnUse"><stop stop-color="#00F0F3"/><stop offset="1" stop-color="#EB49FF"/></linearGradient></defs></svg>