<!-- by TradingView --><svg width="18" height="18" viewBox="0 0 18 18" xmlns="http://www.w3.org/2000/svg"><path fill="#F0F3FA" d="M0 0h18v18H0z"/><path d="M9.22 9.78a5.32 5.32 0 0 0-2.72 3.1h-.42l.21-1.73 2.73-1.97c.23.06.6.25.2.6Z" fill="url(#a)"/><path d="m9.5 9.18-.86-1.11-1.22.85-.51.2c-1.03.67-3.05 2.14-2.88 2.54.17.41.6.74.8.86.23.1.85.3 1.53.3.08-1.6 2.12-3.1 3.14-3.64Z" fill="url(#b)"/><path d="M7.68 8.83a8.44 8.44 0 0 0-.5-.62L4.67 9.75c.13.72.5 1.97.83 1.23.34-.74 1.6-1.74 2.18-2.15Z" fill="url(#c)"/><path d="M9.42 7.07a11.3 11.3 0 0 0-4.3 3.11l-1.2-.16c.02-.19.25-.79 1.02-1.7.77-.92 2.85-1.81 3.8-2.15l.68.9Z" fill="url(#d)"/><path d="m9.47 6.1-.4-.45a12.8 12.8 0 0 0-2.6 1.39L4.1 8.64c-.24.51-.53 1.48.21 1.32 1.32-2.3 4-3.53 5.17-3.85Z" fill="url(#e)"/><path d="m6.62 7.02-.27-.32c-.8.6-2.4 1.84-2.47 1.9-.09.1-.37 1.25.08 1.14a8.99 8.99 0 0 1 2.66-2.72Z" fill="url(#f)"/><path d="m8.34 5.63-.2-.19a9 9 0 0 0-2.03 1.1c-.82.6-2.5 1.83-2.72 2.11-.26.36.12 1.11.37.92.91-1.92 3.43-3.42 4.58-3.94Z" fill="#6B6B6D"/><path d="m6.56 6.3-.33-.42c-1.17.11-2.9 2.45-3.03 2.62-.14.17.22 1.21.41.85.16-.93 2.03-2.42 2.95-3.05Z" fill="url(#g)"/><path d="M3.4 9.09C4.06 7 7.25 5.16 8.77 4.49c-.12-.1-1.4.46-1.48.51-.07.05-1.67.85-2.8 1.57-1.12.72-1.35 1.8-1.4 2-.06.2.13.7.3.52Z" fill="#7B7C7F"/><path d="m8.41 4.07.64.3C4.3 5.97 3.14 8.54 3.14 8.7c0 .13.08.46.12.6-.07.04-.23-.06-.23-.68.1-2.42 3.62-3.92 5.38-4.55Z" fill="url(#h)"/><path d="M11.6 4.25h-1.4l.38.48h1.17l-.15-.48ZM11.65 5h-1.4l.38.48h1.17L11.65 5Z" fill="#BDBEC0"/><path d="M4.3 9.95c-.47-.19-1.05-.79-1.27-1.18-.06.36-.01.39 0 .47l.28.36c.1.13.7.3 1 .35Z" fill="#EFC822"/><path d="M5.46 12.49a2.22 2.22 0 0 1-1.83-1.4c.66.48 1.17.63 1.34.65l.5.75Z" fill="url(#i)"/><path d="M6.34 12.78c-.74 0-1.33-.2-1.54-.29.6.75 1.07.75 1.83.75.61 0 1.08-.1 1.23-.15l-.36-.4c-.19.03-.68.09-1.16.09Z" fill="#FDD31C"/><path d="M9.65 13.91c-.17 0-.53-.22-.7-.33a13.82 13.82 0 0 0 3.14-1.5c.86-.94 2.65-2.92 2.9-3.59 0 1.54-.2 2.26-1.74 3.52-1.24 1-2.92 1.69-3.6 1.9Z" fill="url(#j)"/><path d="m6.79 13.63.6.37a3.35 3.35 0 0 1-1.56-.63c.26.05.8.16.96.26Z" fill="#6C5D98"/><path d="M8.07 13.68H6.85c-.88-.09-1.24-.43-1.3-.6a9.7 9.7 0 0 0 2.08.17l.44.43Z" fill="#ED1781"/><path d="m10.45 13.08-.2-.28c.66-.23 1.32-.6 1.57-.77.62-.63 1.86-1.9 1.88-1.98l.99-2.64c.08.2.24.66.29.89.05.28.11 1.06-1.12 2.44a11.2 11.2 0 0 1-3.4 2.34Z" fill="#405BA6"/><path d="m11.81 12.06-.42-.46c.21-.17.65-.5.69-.56.04-.07 1.72-2.07 1.8-2.17.09-.11.5-1.26.65-1.9.17.33.3.85.3 1.34 0 1.51-2 3.13-3.02 3.75Z" fill="#ED1781"/><path d="m11.65 11.26-.25-.29c.23-.25.8-.9 1.2-1.46.43-.56 1.3-2.23 1.69-3 .11.17.34.59.34.98 0 1.76-1.99 3.25-2.98 3.77Z" fill="#FDD31C"/><path d="M11.94 11.06c-.68.47-1.8 1.03-2.27 1.25l.17.22c.38-.19 1.36-.7 2.2-1.26a9 9 0 0 0 2.08-2.16c-.43.45-1.5 1.48-2.18 1.95Z" fill="#7EAD46"/><path d="M9.02 12.34c-.12-.14-.36-.42-.41-.46l.78-.33c.1-.18.75-.87 2.5-2.24 1.75-1.38 1.92-2.95 1.8-3.56.21.14.72.8.72 1.21 0 .42 0 .95-.73 1.96-1.26 1.68-3.63 2.98-4.66 3.42Z" fill="#EE2931"/><path d="M14.13 6.91c0-.87-.72-1.56-1.09-1.8.4 1.83-1 3.55-1.89 4.3-.71.6-1.96 1.25-2.5 1.5l.57.7c3.22-1.24 4.9-3.6 4.9-4.7Z" fill="url(#k)"/><path d="m10.83 9.66-.44-.56a4.46 4.46 0 0 0 1.8-4.54c.25.06 1.29.6 1.29 1.57 0 1.43-1.77 2.95-2.65 3.53Z" fill="url(#l)"/><path d="M11.36 4.12c-.13-.1-.44-.12-.58-.12.38.14.72.43.72.96 0 1.94-3.14 3.68-4.71 4.3l.12.37c.54-.17 1.38-.6 1.74-.8.83-.18 2.5-.58 2.57-.65.07-.08.74-1.6.76-1.7a9 9 0 0 0 .15-1.4 7.9 7.9 0 0 0-.77-.96Z" fill="#FDD31C"/><path d="m9.3 9.88-.67-1.05c3.08-1.96 3.23-3.06 3.23-3.7 0-.52-.42-.93-.62-1.07 1.06.4 1.68.98 1.68 1.64 0 1.83-2.42 3.55-3.62 4.18Z" fill="url(#m)"/><path d="M5.05 10c-1.39 0-1.92-.6-2.02-.91 0 .68.2 1.22.3 1.4l.93.76 1.35-.05-.56-1.2Z" fill="url(#n)"/><path d="M5.13 11.16c-1.13 0-1.71-.58-1.87-.87.2 1.06 1.1 1.52 2.06 1.52.78 0 1.36-.15 1.55-.22l-.28-.64c-.25.07-.9.21-1.46.21Z" fill="url(#o)"/><defs><linearGradient id="a" x1="8.98" y1="9.68" x2="6.95" y2="13.07" gradientUnits="userSpaceOnUse"><stop stop-color="#BDBEC0"/><stop offset="1" stop-color="#58585A"/></linearGradient><linearGradient id="b" x1="8.75" y1="8.22" x2="5.43" y2="12.7" gradientUnits="userSpaceOnUse"><stop stop-color="#BDBEC0"/><stop offset="1" stop-color="#68696B"/></linearGradient><linearGradient id="c" x1="7.27" y1="8.48" x2="5.49" y2="10.54" gradientUnits="userSpaceOnUse"><stop stop-color="#BDBEC0"/><stop offset="1" stop-color="#7F8083"/></linearGradient><linearGradient id="d" x1="8.82" y1="6.68" x2="4.92" y2="10.58" gradientUnits="userSpaceOnUse"><stop stop-color="#BDBEC0"/><stop offset="1" stop-color="#5E5F61"/></linearGradient><linearGradient id="e" x1="9.33" y1="5.96" x2="4.48" y2="10.18" gradientUnits="userSpaceOnUse"><stop stop-color="#BCBDC0"/><stop offset="1" stop-color="#5F6062"/></linearGradient><linearGradient id="f" x1="6.62" y1="6.98" x2="4.28" y2="9.98" gradientUnits="userSpaceOnUse"><stop stop-color="#929497"/><stop offset="1" stop-color="#58585A"/></linearGradient><linearGradient id="g" x1="6.41" y1="6.13" x2="3.91" y2="9.44" gradientUnits="userSpaceOnUse"><stop stop-color="#7B7C7F"/><stop offset="1" stop-color="#58585A"/></linearGradient><linearGradient id="h" x1="8.82" y1="4.33" x2="3.45" y2="8.74" gradientUnits="userSpaceOnUse"><stop stop-color="#BDBEC0"/><stop offset=".78" stop-color="#58585A"/></linearGradient><linearGradient id="i" x1="5.26" y1="12.34" x2="3.52" y2="12.07" gradientUnits="userSpaceOnUse"><stop stop-color="#FAC015"/><stop offset="1" stop-color="#F58320"/></linearGradient><linearGradient id="j" x1="15.33" y1="8.32" x2="9.71" y2="14.16" gradientUnits="userSpaceOnUse"><stop stop-color="#22B3CE"/><stop offset="1" stop-color="#1182B0"/></linearGradient><linearGradient id="k" x1="14.14" y1="5.81" x2="9.79" y2="12.03" gradientUnits="userSpaceOnUse"><stop stop-color="#FAC015"/><stop offset="1" stop-color="#F58320"/></linearGradient><linearGradient id="l" x1="12.75" y1="4.95" x2="11.23" y2="8.56" gradientUnits="userSpaceOnUse"><stop stop-color="#8CC0AC"/><stop offset="1" stop-color="#437FC2"/></linearGradient><linearGradient id="m" x1="12.22" y1="4.36" x2="9.29" y2="9.64" gradientUnits="userSpaceOnUse"><stop stop-color="#C8DD5E"/><stop offset="1" stop-color="#7CAD41"/></linearGradient><linearGradient id="n" x1="5.41" y1="10.77" x2="3.15" y2="9.38" gradientUnits="userSpaceOnUse"><stop stop-color="#AECA51"/><stop offset="1" stop-color="#92B849"/></linearGradient><linearGradient id="o" x1="6.87" y1="11.4" x2="3.31" y2="10.46" gradientUnits="userSpaceOnUse"><stop stop-color="#58B3DC"/><stop offset="1" stop-color="#437FC2"/></linearGradient></defs></svg>