<!-- by TradingView --><svg width="18" height="18" viewBox="0 0 18 18" xmlns="http://www.w3.org/2000/svg"><path fill="#F0F3FA" d="M0 0h18v18H0z"/><path fill="url(#a)" d="M8.41 9h1.18v4.12H8.41z"/><path d="M12.93 6.27 14 6.9 9.25 9.54l-.57-.97 4.25-2.3Z" fill="url(#b)"/><path d="M6.23 6.8 9 5.25l2.43 1.45 1.08-.66L9 4 4 6.8l7.77 4.4L9 12.75 6.23 11.2l1.47-.82-.95-.72L4 11.2 9 14l5-2.8-7.77-4.4Z" fill="url(#c)"/><defs><linearGradient id="a" x1="9" y1="9" x2="9" y2="13.12" gradientUnits="userSpaceOnUse"><stop stop-color="#5F3A20"/><stop offset=".89" stop-color="#996638"/></linearGradient><linearGradient id="b" x1="13.17" y1="6.54" x2="9.54" y2="9.12" gradientUnits="userSpaceOnUse"><stop stop-color="#4B2A16"/><stop offset="1" stop-color="#7A4E2B"/></linearGradient><linearGradient id="c" x1="13.87" y1="6.76" x2="4.49" y2="11.3" gradientUnits="userSpaceOnUse"><stop stop-color="#57341C"/><stop offset=".24" stop-color="#89582F"/><stop offset=".69" stop-color="#956134"/><stop offset="1" stop-color="#C49C60"/></linearGradient></defs></svg>