<!-- by TradingView --><svg width="18" height="18" viewBox="0 0 18 18" xmlns="http://www.w3.org/2000/svg"><path fill="#F0F3FA" d="M0 0h18v18H0z"/><path fill="#D01027" d="M4 4h10v7H4z"/><path fill="#231816" d="M4 11h10v3H4z"/><path d="m6.72 13-.5-5.22c-.43.12-.85.26-1.22.4v-1.5l1.1-.24L5.94 5H7.4l.1 1.18c.5-.08.99-.15 1.45-.2L8.91 5h1.59l.04.98C12.06 6.2 13 7.23 13 8.53c0 1.45-1.05 3.17-4.1 3.17v-1.37c.89.01 2.65-.33 2.65-1.8 0-.55-.37-.89-.95-1.06L10.67 9H9.1L9 7.32c-.44.02-.9.07-1.38.15L8.15 13H6.72Z" fill="#F0F3FA"/></svg>