<!-- by TradingView --><svg width="18" height="18" viewBox="0 0 18 18" xmlns="http://www.w3.org/2000/svg"><path fill="#E21E26" d="M0 0h18v18H0z"/><path fill-rule="evenodd" d="M13.24 13.24a6 6 0 1 0-8.48-8.48 6 6 0 0 0 8.48 8.48Zm1-2.07A5.67 5.67 0 1 0 3.76 6.83a5.67 5.67 0 0 0 10.48 4.34Z" fill="#fff"/><path d="M9.88 11.58v-.8c0-.1.05-.16.15-.18a.3.3 0 0 0 .04 0 .12.12 0 0 1 .13.06l.01.05v1.39h.09l.01-.03.02-1.29c0-.12.04-.2.13-.22h.01a.15.15 0 0 1 .14.03.16.16 0 0 1 .06.13v.8l.01.02h.05c.02 0 .04 0 .05-.02a.07.07 0 0 0 .03-.05v-.85a.1.1 0 0 0-.05-.09l-.15-.08a.12.12 0 0 1-.03-.18c.01-.01.03-.15.05-.15.12-.05.23.1.33.17.05.04.09.13.1.25.05.26.04.56 0 .89-.05.27-.17.41-.37.44-.04 0-.06.02-.07.06l-.04.21c-.02.15-.1.3-.24.31-.08.01-.12.06-.12.14v.36c0 .08.04.12.11.11.18 0 .38-.1.6-.25.04-.04.12-.04.2 0l.05.04c.05.07.05.13-.02.18-.3.22-.63.33-.97.35a.22.22 0 0 1-.23-.21v-1.15c0-.04-.02-.06-.06-.06-.24 0-.36-.13-.38-.4a6.2 6.2 0 0 1 .01-1.13.19.19 0 0 1 .17-.16c.13-.02.27 0 .4.02a.07.07 0 0 1 .06.06.07.07 0 0 1-.04.07.54.54 0 0 1-.2.09.1.1 0 0 0-.09.1l-.05.95c0 .02 0 .03.03.03h.05l.02-.01Z" fill="#fff"/><path fill-rule="evenodd" d="M10.91 10.03c.15-.08.23-.2.24-.39.01-.2.02-.18.02-.19v-.08c.05-.45.11-.94-.37-.97a7.47 7.47 0 0 0-.95 0c-.24 0-.37.14-.37.38v.94a.4.4 0 0 0 .38.4h.64a1 1 0 0 0 .41-.09ZM9.83 8.97h.31c.03 0 .05-.01.05-.05v-.25c0-.05-.02-.07-.07-.07-.2.02-.32.13-.35.3 0 .05.01.07.06.07Zm1.09-.04a.33.33 0 0 0-.1-.2.33.33 0 0 0-.2-.11c-.04 0-.06 0-.07.05a1.38 1.38 0 0 0-.01.32V9h.33c.03 0 .05-.03.05-.07Zm-1.18.7v-.3a.07.07 0 0 1 .08-.08h.29a.04.04 0 0 1 .04.07l-.27.39-.04.03-.04-.01a.12.12 0 0 1-.05-.1Zm1.2-.1V9.3a.06.06 0 0 0-.06-.06h-.23a.04.04 0 0 0-.04.05l.23.3c0 .02.01.02.03.03l.03-.01c.02 0 .03-.02.03-.03a.1.1 0 0 0 .02-.05Zm-.6-.05h.03l.02.02c.13.08.2.2.22.26.01.04 0 .06-.03.07l-.21.02h-.22c-.03-.01-.04-.03-.03-.07a.67.67 0 0 1 .2-.3h.03Z" fill="#fff"/><path fill-rule="evenodd" d="M8.6 8.3H4.48a.07.07 0 0 0-.07.05c-.3 1.6.28 3.14 1.54 4.2.7.6 1.53.96 2.46 1.08.03 0 .04.02.04.04v.23a.03.03 0 0 1-.03.01 4.89 4.89 0 0 1-4.27-3.85 4.75 4.75 0 0 1 2.35-5.1c.61-.37 1.29-.58 2.09-.64.03 0 .05-.02.05-.05V4.1c0-.03.01-.05.05-.05h.56c.04 0 .1.02.1.06v.14c0 .04.01.06.05.06a4.86 4.86 0 0 1 4.2 3.08h-.02l-.02.01h-.17a.09.09 0 0 1-.09-.05 4.68 4.68 0 0 0-3.94-2.78.04.04 0 0 0-.01.04v2.91c0 .04.01.06.05.06h4.23c.04 0 .06.01.07.04a4.75 4.75 0 0 1-.33 3.73 5.02 5.02 0 0 1-4.65 2.58c-.06 0-.08-.03-.08-.08V8.35c0-.04-.02-.06-.06-.06ZM7.46 6.66c-.02.03-.05.04-.1.03a31.02 31.02 0 0 1-.17-.22.22.22 0 0 0-.38.01.38.38 0 0 0-.03.14.11.11 0 0 1-.04.08L6.37 7a.1.1 0 0 1-.1.02.51.51 0 0 0-.32.01c-.04.02-.07 0-.07-.04l-.02-.13a.16.16 0 0 0-.04-.09c-.09-.1-.2-.12-.33-.04a.12.12 0 0 0-.05.08l-.04.14c0 .03-.02.05-.04.07l-.34.26c-.05.04-.1.05-.14.05a.14.14 0 0 1-.1-.06.08.08 0 0 1 0-.09 4.75 4.75 0 0 1 3.82-2.6c.05-.01.05.01.05.06v.06c0 .04 0 .06-.04.05-.21-.06-.32.02-.33.22a.1.1 0 0 1-.01.05l-.03.04-.38.28a.13.13 0 0 1-.1.03.36.36 0 0 1-.08-.03.2.2 0 0 0-.25.06.2.2 0 0 0-.04.09c0 .06 0 .1.02.16.02.05.06.09.12.1.14.05.24 0 .31-.16a.2.2 0 0 1 .06-.08l.45-.33a.25.25 0 0 1 .1-.04c.1-.02.16.05.2.15.02.06.01.16-.06.13-.19-.06-.28.07-.3.24-.01.03-.03.06-.06.08l-.4.31c-.03.02-.06.02-.1 0-.07-.06-.16-.06-.25 0a.06.06 0 0 1-.08-.01c-.03-.03-.04-.05-.04-.08a.23.23 0 0 0-.2-.24c-.17-.03-.25.05-.25.23a.11.11 0 0 1-.05.09l-.4.3a.1.1 0 0 1-.1.01c-.17-.07-.29-.04-.35.12a.18.18 0 0 0-.02.08c.02.16.12.23.29.2.03 0 .06-.01.08-.04.2-.26.4-.43.62-.53.22-.1.38-.04.46.19a.1.1 0 0 0 .06.06c.18.05.28 0 .33-.13a.2.2 0 0 1 .07-.1l.43-.32a.15.15 0 0 1 .1-.03c.08 0 .14 0 .18-.02.04-.01.03-.02.04.02L8.64 6c-.02.03-.01.06-.05.05-.08-.03-.15-.02-.21.01-.08.05-.1.12-.1.22 0 .03-.02.06-.05.08l-.4.3a.09.09 0 0 1-.08 0 .35.35 0 0 0-.19-.03.15.15 0 0 0-.1.05Zm3.77 2.97v.05c0 .14.06.16.17.08l.17-.13c.04-.04.06-.02.05.03-.02.14-.25.3-.37.38-.08.06-.1.12-.05.2 0 .02.01.03.03.05.05.04.1.05.14 0l.3-.21a.02.02 0 0 1 .02 0l.02.04v.03c-.13.13-.27.24-.41.34-.08.05-.08.11-.06.19 0 .04.03.06.07.06h.17l.03.01.02.04v1.42a.02.02 0 0 1 0 .01h-.1v-.02l.06-1.08c0-.04 0-.09-.03-.12a.13.13 0 0 0-.08-.07l-.04-.01a.12.12 0 0 0-.13.06l-.02.04v1.41c0 .05.03.1.06.14a.2.2 0 0 0 .14.06h.48c.06 0 .07.01.02.05-.78.58-1.6.9-2.5.95-.03 0-.05-.01-.05-.05V8.32l.01-.02h3.41v.04h-.02c-.1.02-.18 0-.2.09-.01.02-.03.03-.05.03h-.36c-.04 0-.07.03-.06.08.02.17.12.26.3.26.08 0 .09.03.04.08-.07.07-.17.12-.31.12a.14.14 0 0 0-.1.05c-.05.05-.06.12-.02.21 0 .02.01.03.03.04l.05.02h.12a.1.1 0 0 1 .08.05c.1.16.04.3-.16.4-.05.02-.07.01-.06-.04.02-.17-.03-.26-.15-.29-.04 0-.05-.03-.04-.07.06-.19.08-.43.06-.73 0-.06-.03-.09-.09-.09h-.1c-.06 0-.09.02-.09.08-.01.41-.1.67-.28.79a.25.25 0 0 0-.12.22Zm1.82-.77.31.2a.1.1 0 0 1 .05.08c0 .04 0 .08-.03.1-.02.02-.06.03-.13.04-.08 0-.14.03-.17.08-.03.03-.03.06 0 .1l.36.45c.06.07.04.12-.03.16l-.06.04a.19.19 0 0 1-.23-.05l-.16-.19c-.03-.04-.06-.04-.06.02-.03.15-.02.25.01.3.03.03.06.04.1.04.09 0 .16 0 .2.03.04.02.06.04.08.07a.16.16 0 0 1-.09.22.67.67 0 0 1-.25.04c-.05 0-.07.02-.07.07v.06c0 .04.02.06.06.06h.18c.04 0 .07.02.09.05 0 .02.01.02.02.03.04.02.06 0 .07-.03.35-.83.44-1.61.28-2.49 0-.03-.03-.05-.07-.05h-.67c-.05 0-.06.01-.04.05l.08.05c0 .02.02.04.05.04h.35l.03.05c.02.06.03.13.02.2l-.02.04a.08.08 0 0 1-.05.02l-.19.02c-.1 0-.12.04-.02.1ZM8.59 4.91c.02.03 0 .08-.03.1-.04.03-.1.02-.11-.02-.03-.03-.01-.08.03-.1.04-.03.09-.02.11.02Zm-.02 2.07c.04-.04.05-.09.02-.12-.03-.03-.09-.02-.12.01-.04.04-.05.09-.02.12.03.03.09.02.12-.01Zm-1.48.18.03-.01h.04a.1.1 0 0 1 .06.07v.04c-.01.01-.02.03-.04.03a.16.16 0 0 1-.1.02c-.04-.01-.05-.04-.04-.08a.14.14 0 0 1 .05-.07Zm.51-1.7s.03 0 .06.03c.04.02.04.05.02.08-.03.05-.05.07-.07.06-.14-.05-.14-.11 0-.17Zm.99.2-.01-.09-.02-.02h-.02c-.05 0-.08.03-.1.09 0 .04 0 .06.05.07h.05c.02-.01.04-.03.05-.06Zm-1.54.3c.01.04.05.07.1.06.04 0 .06-.05.05-.1 0-.04-.05-.07-.1-.07-.03.01-.06.06-.05.1Zm1.48.18h-.02c-.07.04-.1.08-.07.12.05.1.1.1.16-.02 0-.01 0-.04-.02-.07a.04.04 0 0 0-.03-.03h-.02Zm-.95.02h.06a.06.06 0 0 1 .04.02.06.06 0 0 1 .02.05v.03a.06.06 0 0 1-.03.05.07.07 0 0 1-.06.01c-.06-.01-.1-.05-.1-.1 0-.04.02-.06.07-.06Zm-1.3.44c.02-.02.03-.05.03-.1a.03.03 0 0 0-.03-.04c-.03-.01-.07 0-.12.03a.06.06 0 0 0-.02.05l.01.06a.09.09 0 0 0 .07.03.09.09 0 0 0 .07-.03Zm2.3-.14.03-.02c.03-.02.02-.02.03.02v.21c-.01.04 0 .06-.04.05-.16-.03-.32 0-.3.2 0 .04-.01.07-.04.09l-.42.32a.1.1 0 0 1-.1.01c-.1-.05-.2-.05-.27 0-.05.03-.08.02-.09-.04-.04-.21-.12-.3-.26-.3-.15.03-.22.1-.21.24a.1.1 0 0 1-.04.08l-.35.23c-.03.02-.06.04-.1.04h-1.4c-.1 0-.1-.04-.04-.1.07-.07.18-.12.34-.24.1-.08.2-.13.3-.14.16-.02.26.05.3.19a.2.2 0 0 0 .1.12.2.2 0 0 0 .16 0 .28.28 0 0 0 .17-.16.2.2 0 0 1 .06-.08l.42-.33a.16.16 0 0 1 .1-.03h.08c.04 0 .08 0 .11-.02a.23.23 0 0 1 .1-.03c.04 0 .07.02.1.06.05.06.1.11.11.15a.2.2 0 0 0 .17.1.2.2 0 0 0 .17-.1 1.96 1.96 0 0 1 .63-.53.1.1 0 0 1 .04 0l.07.02c.03.01.05 0 .07 0Zm-1.48.1c.03.04 0 .1-.04.12-.04.02-.1.01-.11-.03-.03-.03 0-.08.04-.1.04-.03.1-.02.11.02Zm.45.21h.08c.05 0 .07.03.06.07 0 .03-.02.06-.05.07-.04.02-.07.02-.1 0-.01-.03-.03-.06-.03-.1a.03.03 0 0 1 .01-.03.03.03 0 0 1 .03 0Zm-1.85.09c-.06-.03-.1-.02-.13.02a.07.07 0 0 0 .02.1l.03.01a.1.1 0 0 0 .1-.05.06.06 0 0 0-.02-.08Zm.37.29c.06-.03.1-.02.12.01a.07.07 0 0 1-.03.11c-.05.03-.1 0-.12-.05a.05.05 0 0 1 0-.04.05.05 0 0 1 .03-.03Zm2.58.05c0-.07 0-.1-.08-.07a.26.26 0 0 1-.13 0c-.04 0-.07 0-.1.03l-.45.3c-.11.08-.1.13.04.13h.65c.07 0 .07-.04.07-.1V7.2Zm-3.99.28.02-.03a.07.07 0 0 1 .1 0c.03.04.04.07.04.09l-.02.03a.08.08 0 0 1-.08.03.08.08 0 0 1-.03-.02c-.03-.03-.04-.07-.03-.1Zm2.16.1h.55c.02 0 .02-.02.02-.04a.1.1 0 0 0-.02-.06c-.02-.02-.04 0-.06 0a.33.33 0 0 0-.1-.04h-.14a.4.4 0 0 0-.19.05c-.05.03-.08.03-.08.07 0 .01 0 .02.02.03Zm.79-.13h.05l.04.03v.01c0 .04-.01.06-.05.07l-.1-.01c-.03-.02-.04-.05-.03-.09 0-.02.03 0 .09 0Zm5.27 1.69a.15.15 0 0 0-.14-.07c-.06 0-.1.02-.14.07a.1.1 0 0 0 0 .1c.06.17.1.26.14.26.03 0 .07-.09.15-.26a.1.1 0 0 0-.01-.1Zm-.74 1.16a.5.5 0 0 1-.16.13.08.08 0 0 0-.04.06l-.05.9c0 .03-.01.03-.03.02l-.05-.03-.01-.01v-.02l.05-.64c0-.03-.02-.1-.06-.19-.01-.03 0-.05.03-.07.11-.08.2-.18.26-.3a.18.18 0 0 1 .07-.07l.25-.15c.08-.04.11-.02.11.06v.2c0 .06-.02.08-.08.08l-.22-.01a.09.09 0 0 0-.07.04Zm.05.23h.3c.03 0 .05.03.05.07v.04c0 .03-.03.05-.06.05h-.3a.06.06 0 0 1-.05-.06v-.05c0-.03.03-.05.06-.05Zm.3 1.09c0 .1.06.15.17.12l.06-.01a.2.2 0 0 0 .1-.07.18.18 0 0 0 .04-.11v-.4c0-.04.03-.06.07-.06h.22c.03 0 .04.01.03.05-.25.48-.56.9-.94 1.24-.03.03-.06.03-.1 0a.24.24 0 0 0-.2-.04.1.1 0 0 1-.1-.03c-.06-.08-.09-.18-.08-.32 0-.03.02-.06.06-.07.33-.12.33-.41.32-.75v-.03c0-.04.02-.06.06-.06h.24c.03 0 .05.02.05.05v.49Z" fill="#fff"/></svg>