<!-- by TradingView --><svg width="18" height="18" viewBox="0 0 18 18" xmlns="http://www.w3.org/2000/svg"><path fill="#F0F3FA" d="M0 0h18v18H0z"/><path d="M12 12.24V4.29l-.74.15-.6-.44-.7.44c-.1.59-.32.44-.4.3l.13.44c-.05-.05-.17-.1-.28.14-.13.3 0 .3-.13.3-.11 0-.14-.2-.14-.3l-.42.3v.73l-.41.74c-.55-.15-1.1.3-1.24.44-.11.12-.7.44-.97.59L5.7 9.44c.23.2.63.62.41.74-.22.11-.27-.15-.27-.3v.44l.83 1.03c-.05.2-.12.62 0 .74.13.15.55.59.55.88 0 .3-.33.3-.28.59.05.3.28.44.97.44s.82-1.03 1.24-.74c.33.24.6.2.69.15.27-.73.55-.73.83-.73.22 0 1.11-.3 1.34-.44Z" fill="#8F1D1D"/><path d="M13 10.05c.02.3-.03.59-.16.84-.6 1.22-2.82 1.23-4.94.03C6.07 9.89 4.9 8.3 5 7.1c.1 1.15 1.22 2.58 2.9 3.52 2.12 1.2 4.33 1.2 4.94-.02.09-.17.14-.35.15-.55Zm-1-1.8v.3c.25.35.4.7.44 1.01.05-.38-.11-.83-.44-1.3ZM8.72 6c-1.21-.39-2.25-.28-2.57.35a.99.99 0 0 0-.08.58c.01-.1.04-.2.08-.28.32-.63 1.36-.74 2.57-.36v-.3Z" fill="url(#a1zrwzfed)"/><path d="M12 8.39c.42.59.57 1.16.36 1.58-.43.85-2.16.76-3.88-.21-1.7-.97-2.75-2.44-2.33-3.29.32-.63 1.36-.74 2.57-.35v-.37c-1.63-.52-3.09-.31-3.56.64-.61 1.21.61 3.17 2.74 4.37 2.12 1.2 4.33 1.18 4.94-.03.4-.78.03-1.86-.84-2.85v.5Z" fill="url(#b1zrwzfed)"/><path d="M9.14 9.74 7.48 6.35l1.24 3.53-.96.88 1.1-.44.83 1.33-.41-1.47 1.1-.74-1.24.3Z" fill="#fff"/><defs><linearGradient id="a1zrwzfed" x1="5.69" y1="6.07" x2="13.24" y2="10.35" gradientUnits="userSpaceOnUse"><stop stop-color="#7F5228"/><stop offset=".42" stop-color="#D3B469"/><stop offset=".68" stop-color="#FDFAF3"/><stop offset=".83" stop-color="#AD803D"/><stop offset=".97" stop-color="#AB7F3C"/></linearGradient><linearGradient id="b1zrwzfed" x1="5.69" y1="5.91" x2="13.24" y2="10.19" gradientUnits="userSpaceOnUse"><stop stop-color="#895B2A"/><stop offset=".26" stop-color="#C8A65C"/><stop offset=".44" stop-color="#FDFAF3"/><stop offset=".73" stop-color="#AD803D"/><stop offset="1" stop-color="#835327"/></linearGradient></defs></svg>