<!-- by TradingView --><svg width="18" height="18" viewBox="0 0 18 18" xmlns="http://www.w3.org/2000/svg"><path fill="#F0F3FA" d="M0 0h18v18H0z"/><path d="M6.07 9.57c-.35-.05-.66.03-1-.06-.04 0-.07-.03-.07-.06 0-.2.4-.18.62-.13.14.03.3.05.47.06.1 0 .16.04.16.1v.03c-.03.05-.09.07-.18.06ZM6.56 9.6l.5-.29a.2.2 0 0 1 .14-.02l.14.04c.11.03.13.16.03.21l-.53.3a.2.2 0 0 1-.15 0l-.1-.03c-.1-.04-.12-.15-.03-.2ZM8.26 9.82c-.14-.03-.22-.11-.25-.26v-.12c.03-.12.1-.17.22-.15.23.04.46.15.68.32.02.01.03.03.03.05.01.27-.53.2-.68.16Z" fill="#7A040D"/><path d="M6.14 10.27c-.07-.03-.07-.06 0-.1a.44.44 0 0 1 .11-.04c.1-.02.2-.04.18-.16-.03-.27-.56-.18-.77-.14a.73.73 0 0 1-.45-.04c-.42-.2-.76.5-.23.42.11-.01.32-.05.44-.01.07.03.1.07.06.14-.18.33-.43.59-.76.78-.03.02-.26.13-.26.05.01-.12.05-.23.05-.36l.01-2.27c0-.34.1-2.74-.08-2.88-.06-.05-.18-.15-.08-.22.09-.05.2-.07.3-.05.35.05.75.07 1.08.06.1 0 .15-.04.15-.1a.2.2 0 0 0-.04-.09.55.55 0 0 0-.42-.24A6.95 6.95 0 0 0 4.7 5c-.42.02-.69.2-.69.63v7c.01.28.26.37.53.37h8.35c.57 0 .78-.39 1.02-.8.07-.13.1-.2.1-.42v-5.7c.02-.54-.5-1-1-1.08H6.5c-.23 0-.37.1-.4.3-.03.15.35 0 .4-.03.15-.1.24.15.37.16.38.02.76.02 1.15 0 .42 0 .67-.04 1.08-.01.56.04 4.3-.27 4.49.43.02.27-.1.51-.1.77 0 1.16-.13 2.48.06 3.63.05.3-.06.61-.06.92l.01 1.1c0 .28-.22.38-.48.34-.68-.1-1.63-.06-2.34-.07-1.06-.01-3.18-.2-4.18.22a.07.07 0 0 1-.06 0c-.54-.36-1.45.21-1.92-.29-.19-.2-.12-.76-.03-.98.02-.07-.06.61.67-.09.02-.01.4-.31.4-.11 0 .14 0 .14.08.26.15.2-.3.14-.2.32.06.09.13.13.23.13.28 0 .34-.24.25-.43-.07-.16-.04-.18.11-.3.17-.12.4-.08.57-.23.12-.11.24-.22.4-.3l.5-.29a.19.19 0 0 1 .18 0c.2.09.37.22.51.39.05.05.02.12-.05.14-.33.09-.63.1-.9.04-.2-.05-.42-.03-.43.22v.2c0 .25.07.57.37.56h.88c.3 0 .42-.28.5-.5.02-.1-.23-.43.07-.52.12-.04.34-.07.36-.23 0-.18-.2-.25-.3-.3l-.65-.24c-.16-.06-.22-.1-.28-.22-.04-.07-.02-.13-.2-.13-.13 0-.18.12-.25.2-.19.19-.38.32-.63.41a.19.19 0 0 1-.14 0l-.41-.2Zm1.37 1.02h.36c.11 0 .21.08.21.18 0 .12-.07.08-.2.08l-.36.01c-.12 0-.21.06-.22-.04 0-.12.07-.23.2-.23Z" fill="#7A040D"/><path fill-rule="evenodd" d="M8.54 7.18c-.34.02-.67.03-.99.02-.13 0-.14-.04-.02-.1l.17-.08c.25-.1.47-.17.63-.35.04-.05.05-.1.05-.15 0-.12-.09-.22-.2-.22a.23.23 0 0 0-.13.04c-.2.13-.38.2-.6.34-.04.03-.14.11-.16.02a1.68 1.68 0 0 1-.03-.42c.02-.17-.05-.28-.22-.28a.5.5 0 0 0-.08 0c-.1.02-.11.2-.11.27v.63c.01.28-.21.39-.47.37l-.56-.01c-.11 0-.15-.05-.1-.15.05-.12.2-.2.33-.2h.09c.13 0 .25 0 .33-.13.13-.21.3-.58-.03-.72a.43.43 0 0 0-.27-.03c-.2.04-.37-.01-.57-.03-.18-.01-.29.1-.28.26v.07c.02.05.07.1.13.1.15-.02.32-.01.55 0 .15.02-.15.17-.22.17-.16 0-.32 0-.4.04-.1.08-.08.25-.06.36 0 .1-.03.2-.07.28-.06.15-.11.33.02.47.03.03.07.05.12.05.07 0 .15-.04.23-.07.06-.03.3-.08.3-.03v.04c-.1.36-.37.55-.68.73-.1.06-.28.17-.23.31.04.15.24.17.38.14.34-.09.61-.27.71-.58.1-.26.2-.63.5-.73.14-.05.25.04.24.19-.04.3-.13.56-.26.83a.34.34 0 0 0-.04.15c0 .07.02.12.07.17.19.22.96-.38 1.12-.52a.07.07 0 0 1 .09 0l.34.3c.15.14.79.37.84.01.04-.28-.61-.5-.8-.6-.22-.1-.4-.22-.59-.38-.04-.04-.23-.25-.05-.25l.94.04c.1 0 .17-.05.2-.15.02-.1-.04-.23-.16-.22Zm-1.06.92-.16-.13c-.06-.06-.16-.01-.17.07v.18c0 .18.12.1.2.1.09-.01.23-.14.13-.22ZM10.71 6.6c0-.11-.05-.17-.14-.17-.4-.03-.82.06-1.2.2a.45.45 0 0 1-.14.04c-.12 0-.23-.02-.23-.2 0-.45.52-.37.8-.33l.08.02c.06 0 .12 0 .18-.03.3-.14.6-.13.92-.13h.1c.18.01.36.05.54.09l.16.03c.07.01.14 0 .22-.02.28-.1.59-.1.92-.02.05 0 .07.04.08.1.03.37-.17.49-.4.49-.43 0-.84-.25-1.3-.25h-.11c-.13.03-.14.24-.08.33.04.04.13.08.2.1l.09.04c.13.07.27.06.4 0 .19-.05.44.12.44.33 0 .07-.03.12-.05.17-.02.06-.05.12-.05.19v.87c0 .26-.08.48-.35.46a6.72 6.72 0 0 0-.92-.03c-.16 0-.32.05-.48.08l-.1.03a.38.38 0 0 1-.42-.16.1.1 0 0 1-.01-.06V7.46l.01-.35c.08-.27.47-.27.68-.26.11 0 .17-.06.17-.2V6.6Zm.1.54.7.07c.04 0 .07.03.09.06l.07.18c.05.09 0 .22-.1.22H10.5c-.11 0-.16-.18-.06-.25.09-.05.29-.3.38-.28Zm-.34.86c-.1 0-.16.06-.18.17l-.04.21c-.02.11.02.16.12.15.27-.04.56-.06.87-.04.1 0 .32 0 .4-.09.09-.1.13-.4-.07-.4h-1.1Z" fill="#7A040D"/><path d="M11.15 11.11v.78c0 .1.06.13.17.1.12-.04.14-.12.14-.23v-.64c0-.06.07-.08.15-.07l.21.02c.32.07.47.16.75.22.22.05.44-.1.43-.3 0-.09-.08-.13-.21-.14-.33-.02-.51-.1-.84-.12-.19-.02-.4-.03-.47-.17a.18.18 0 0 1-.02-.08c0-.08.05-.17.16-.17.16-.01.32 0 .49.02h.19c.1.02.46-.01.38-.18-.03-.07-.13-.1-.2-.1l-.85-.04c-.11 0-.25-.1-.24-.21.01-.08.06-.1.15-.1.31.01.64.02.98.05.08.01.28.04.33-.04.04-.08-.02-.13-.1-.15-.4-.11-.78-.13-1.2-.13a.7.7 0 0 1-.28-.08c-.03-.01-.06-.03-.1-.01-.12.06-.4.17-.53.11-.06-.02-.07-.06-.05-.12.03-.09.06-.18.07-.27 0-.04-.05-.07-.1-.05-.08.03-.16.07-.23.12-.3.21-.59.31-.96.4-.19.05-.3.27-.1.38.07.04.14.06.22.06.24 0 .49-.1.69-.2a.8.8 0 0 1 .39-.07c.1 0 .42.01.45.08.07.17-.13.23-.27.25l-.91.1c-.16.02-.19.1-.11.2.1.15.24.34.04.49-.15.1-.36.1-.55.1-.2 0-.22.11-.22.25 0 .1.04.14.12.14h.07a9.2 9.2 0 0 1 1.89-.26c.04 0 .07.03.07.06Zm-.14-.69c.03.1-.1.23-.3.28-.2.04-.38 0-.41-.1-.04-.11.1-.24.3-.28.19-.05.37 0 .4.1Z" fill="#7A040D"/></svg>