<!-- by TradingView --><svg width="18" height="18" viewBox="0 0 18 18" xmlns="http://www.w3.org/2000/svg"><path fill="#F0F3FA" d="M0 0h18v18H0z"/><path d="M9.14 5.51c-.01-.26.04-.5.16-.74a.1.1 0 0 0 0-.06c-.02-.14-.12-.22-.29-.25-.14-.03-.26.09-.34.19a.11.11 0 0 0 0 .14l.07.11c.1.15.12.43.12.6 0 .05.03.09.09.1h.08c.07.01.1-.02.1-.09Zm-.84.11-.44-.8a.07.07 0 0 1 0-.07l.3-.27a.07.07 0 0 1 .1 0l.17.17a.07.07 0 0 1 .02.05l-.03.89-.01.04a.07.07 0 0 1-.08.02.07.07 0 0 1-.04-.03Zm1.2-.69a.7.7 0 0 1 0 .55c-.02.07 0 .1.07.13h.01c.06 0 .1-.02.11-.07.06-.2.15-.37.28-.5.13-.15.12-.31-.03-.46-.28-.26-.58.03-.44.35Zm-.85 2.6v-.65c0-.25-.09-.46-.22-.67a.06.06 0 0 1 0-.06l.02-.02h.03a3.87 3.87 0 0 0 .96-.03c.08.01.11.04.1.08l-.01.06a.93.93 0 0 0-.18.54v.74c0 .11.05.21.09.3.03.09.06.17.07.25a.08.08 0 0 1-.02.07.08.08 0 0 1-.06.02l-.82.02c-.02 0-.04 0-.06-.02a.08.08 0 0 1-.03-.05c-.02-.1.03-.19.08-.28.05-.1.05-.2.05-.3Zm4.02-.8a1.2 1.2 0 0 1-.41.33.26.26 0 0 0-.14.24.04.04 0 0 0 .01.03l.02.01h.02a.4.4 0 0 0 .18-.05c.17-.08.35-.16.55-.18.07 0 .15-.02.23-.04.03 0 .04-.01.05-.03a.7.7 0 0 0 .07-.3.1.1 0 0 0-.03-.07c-.17-.2-.4-.12-.55.06Zm-6.89.71a.93.93 0 0 0-.55-.18.3.3 0 0 1-.26-.15c-.1-.17-.08-.3.1-.39.22-.11.4-.02.51.17a1 1 0 0 0 .28.3c.06.05.09.11.09.2 0 0 0 .02-.02.03-.04.06-.09.06-.15.02Zm6.72.47.29-.1c.1-.03.25-.04.45-.02.1 0 .24 0 .28-.12.09-.27 0-.39-.26-.48-.03-.01-.05-.01-.07 0a.58.58 0 0 0-.2.18c-.13.17-.3.3-.5.37a.16.16 0 0 0-.11.12c0 .02 0 .03.02.04a.1.1 0 0 0 .1.01Zm-7.12-.28.27.13c.03 0 .05.02.06.04l.04.06v.03c.02.06 0 .08-.07.06a1.15 1.15 0 0 0-.67 0c-.35.1-.58-.4-.24-.52.23-.08.38.03.56.16l.05.04Z" fill="#F40403"/><path d="M9.03 9.09H9a21.57 21.57 0 0 1-1.2-1.34c-.12-.15-.2-.25-.4-.24-.24 0-.47 0-.7-.02-.11 0-.17.05-.16.15v.2c.01.11.07.16.17.17h.44c.12 0 .22.05.3.15l.84.96c.13.14.23.28.32.43.03.05.04.1.04.16v.77c0 .16-.06.21-.16.28a1.7 1.7 0 0 0-.06.06c-.15.13-.12.19.08.2l.27-.02a2.28 2.28 0 0 1 .44 0c.16.02.36.04.5-.01l.03-.02a.07.07 0 0 0-.02-.1.54.54 0 0 1-.22-.42l-.03-.75c-.01-.26.2-.51.38-.74l.03-.04.63-.77c.13-.16.34-.16.55-.15.14 0 .28 0 .4-.05l.02-.01.01-.03c.02-.1.04-.28-.01-.38a.06.06 0 0 0-.05-.03 2.25 2.25 0 0 0-.58 0h-.25c-.19 0-.31.1-.42.24l-.62.77-.26.28a3.53 3.53 0 0 0-.28.3Zm4.09-.62c-.1-.04-.2-.04-.3-.04l-.17-.01a.14.14 0 0 1-.1-.06.06.06 0 0 1 .04-.1l.27-.03c.1-.02.18-.08.25-.14.06-.04.12-.1.19-.12.35-.12.6.1.43.44-.12.23-.43.14-.61.06ZM5.5 8.6l.08.02a.1.1 0 0 0 .07-.01.09.09 0 0 0 .03-.06v-.02c.01-.02 0-.05-.01-.07a.12.12 0 0 0-.07-.05 2.69 2.69 0 0 1-.63-.21c-.17-.09-.4-.1-.51.07a.18.18 0 0 0-.03.18c.13.3.38.38.65.17.1-.08.28-.04.42-.02Zm6.37 2.7c.14.1.32.16.5.22l.05.02c.15.05.2.2.14.34-.1.23-.42.31-.54.04-.1-.23-.25-.42-.42-.58a.34.34 0 0 1-.07-.08.11.11 0 0 1-.02-.07l.01-.03a.07.07 0 0 1 .07-.03h.03c.09.06.17.1.25.17Zm-6.17.67c.26.3.47.1.56-.17a1.44 1.44 0 0 1 .26-.46c.02-.03.02-.05.01-.08l-.02-.02h-.03l-.05.02c-.24.11-.94.44-.72.71Zm6.18.62a.13.13 0 0 1-.09.04c-.3 0-.34-.16-.38-.34-.03-.09-.05-.18-.1-.26-.12-.13-.2-.27-.27-.4-.02-.04-.01-.07.03-.1h.03c.08 0 .15.03.2.1.17.2.36.36.56.48.18.1.13.35.02.48ZM6.8 12.3c.03-.15.07-.32.18-.43a.16.16 0 0 0 .06-.12c0-.06-.04-.09-.12-.07a.12.12 0 0 0-.06.03c-.14.14-.3.26-.48.36-.16.1-.2.22-.12.38.06.15.18.2.34.15a.22.22 0 0 0 .16-.16l.03-.13Zm4.54.41c-.07.22-.23.3-.47.24a.19.19 0 0 1-.14-.16 2.15 2.15 0 0 0-.24-.78V12l.03-.03h.02a.2.2 0 0 1 .17.06l.1.13c.1.1.17.2.28.26.08.05.15.1.21.16.02.02.04.04.04.06v.08Zm-3.94-.54a.42.42 0 0 1-.08.12l-.06.05c-.16.14-.45.4-.25.56.15.12.44.1.5-.1.07-.19.09-.37.1-.56l.03-.19c0-.03-.01-.05-.05-.04-.11 0-.15.08-.19.16Z" fill="#F40403"/><path fill-rule="evenodd" d="M12.96 10.03a.08.08 0 0 0-.03.04v.05c.22.44.39.85.49 1.33.1.54.09 1.2-.19 1.7-.08.13-.23.1-.38.09-.18-.03-.37-.06-.44.22-.04.16-.1.3-.15.43a.2.2 0 0 1-.1.09.2.2 0 0 1-.12.02l-.34-.06c-.31-.05-.62-.1-.91-.19A3.78 3.78 0 0 1 9.4 13a1.86 1.86 0 0 0-.23-.18c-.07-.05-.15-.05-.21.01A4.65 4.65 0 0 1 5.94 14a.12.12 0 0 1-.08-.04.11.11 0 0 1-.03-.07l-.04-.44c-.01-.1-.06-.13-.15-.1-.17.03-.35.04-.54.04-.01 0-.03 0-.04-.02a3.04 3.04 0 0 1-.27-1.29c0-.6.1-1.18.41-1.71.06-.1.03-.18-.08-.24-.32-.15-.59-.3-.85-.54-.5-.46-.92-1-1.23-1.59a.45.45 0 0 1-.03-.36l.02-.02.03-.02c.18-.06.45-.18.55-.34a.08.08 0 0 0 0-.07 9.28 9.28 0 0 0-.2-.35c-.14-.23-.02-.33.16-.44a4.66 4.66 0 0 1 2.94-.63.2.2 0 0 0 .1-.03.12.12 0 0 0 .04-.08c.01-.17.05-.33.1-.48A4.7 4.7 0 0 1 8.2 3.09c.1-.09.2-.08.28.01l.39.36a.1.1 0 0 0 .14 0l.31-.32c.08-.08.26-.2.37-.1a5.37 5.37 0 0 1 1.73 2.68l.03.04a.1.1 0 0 0 .07.02 4.48 4.48 0 0 1 3.11.61c.27.15.03.42-.1.56-.12.11-.12.22 0 .32.1.1.22.2.35.28.13.08.16.2.1.34a4.7 4.7 0 0 1-1.81 2.02l-.2.12ZM7.08 6.3c.02 0 .04 0 .05-.02a3.86 3.86 0 0 1 1.04-2.53.13.13 0 0 1 .07-.03h.08c.11.06.2.15.3.25.1.1.2.21.32.25H9c.14-.07.26-.2.37-.32l.12-.13c.1-.1.2-.1.3 0l.37.43c.25.31.4.66.53 1.03a2.77 2.77 0 0 1 .2 1.1s0 .02.02.03a.1.1 0 0 0 .1.02 5.22 5.22 0 0 1 1.74-.17c.23.01.42.05.56.1a17.72 17.72 0 0 1 .8.35.06.06 0 0 1 0 .05l-.28.44c-.07.1-.06.2.04.28l.4.29c.06.03.1.06.13.1a.1.1 0 0 1 .01.12A3.71 3.71 0 0 1 12.6 9.6l-.26.13c-.12.07-.14.16-.06.26.52.68.73 1.53.68 2.35 0 .1-.02.2-.06.28a.15.15 0 0 1-.05.07 13.95 13.95 0 0 1-.61.01.15.15 0 0 0-.16.1c-.08.18-.15.38-.19.58 0 .03-.02.05-.04.07a.13.13 0 0 1-.08.03 3.88 3.88 0 0 1-2.54-1.38c-.07-.08-.19-.06-.25.01a3.71 3.71 0 0 1-2.46 1.36c-.12.02-.2-.03-.22-.14l-.1-.46a.06.06 0 0 0-.04-.04c-.13-.08-.36-.03-.53 0l-.07.02-.09-.01a.13.13 0 0 1-.06-.07 2.8 2.8 0 0 1-.05-1.22c.05-.48.21-.92.48-1.3a.82.82 0 0 0 .12-.2.12.12 0 0 0-.03-.15.14.14 0 0 0-.06-.03 2.89 2.89 0 0 1-.96-.48l-.15-.1a3.11 3.11 0 0 1-1.1-1.33.11.11 0 0 1 .03-.09 2.46 2.46 0 0 0 .57-.33c.17-.13.01-.35-.09-.47a.84.84 0 0 1-.15-.31V6.7a4.14 4.14 0 0 1 .74-.34 4.26 4.26 0 0 1 2.01-.1c.1.02.21.04.32.04Z" fill="#F40403"/></svg>