<!-- by TradingView --><svg width="18" height="18" viewBox="0 0 18 18" xmlns="http://www.w3.org/2000/svg"><path fill="#F0F3FA" d="M0 0h18v18H0z"/><path fill-rule="evenodd" d="M9.4 3h-.55l-.34.01c-.2 0-.38 0-.56.04A5.94 5.94 0 0 0 3.07 8l-.05.4-.02.26v.53c.1 1.78.8 3.24 2.1 4.36A5.98 5.98 0 0 0 8.74 15h.39a5.96 5.96 0 0 0 5.82-5.26l.06-.42v-.75a43.17 43.17 0 0 1-.16-.98 6.01 6.01 0 0 0-4.78-4.54C9.91 3.02 9.76 3 9.6 3L9.4 3Zm-.38 10.13a4.16 4.16 0 1 0 0-8.32 4.16 4.16 0 0 0 0 8.32Zm.2-9.48h.56a.02.02 0 0 1 .01 0 .02.02 0 0 1 0 .04l-.46.33a.02.02 0 0 0 0 .02l.17.54a.02.02 0 0 1-.02.03.02.02 0 0 1-.01 0L9 4.26a.02.02 0 0 0-.02 0l-.46.33a.02.02 0 0 1-.03-.02l.18-.54a.02.02 0 0 0 0-.01v-.01l-.47-.34a.02.02 0 0 1 .02-.03h.56a.02.02 0 0 0 .02-.01l.17-.54a.02.02 0 0 1 .04 0l.17.54a.02.02 0 0 0 .02.01Zm.56 10.21H9.2l-.18-.55a.02.02 0 0 0-.03 0l-.18.54v.01h-.59a.02.02 0 0 0-.01.03l.46.34v.02l-.17.54a.02.02 0 0 0 0 .02h.01a.02.02 0 0 0 .02 0l.46-.33h.02l.45.33a.02.02 0 0 0 .04 0v-.02l-.18-.54a.02.02 0 0 1 0-.02l.47-.33a.02.02 0 0 0 0-.03h-.01ZM5.7 5.14l.57.13a.02.02 0 0 1 0 .03l-.54.22a.02.02 0 0 0 0 .02l.05.58a.02.02 0 0 1-.02.02.02.02 0 0 1-.01 0 .02.02 0 0 1 0-.01l-.38-.44a.02.02 0 0 0-.02 0l-.53.22a.02.02 0 0 1-.03-.02l.3-.5a.02.02 0 0 0 0-.02l-.38-.43a.02.02 0 0 1 .02-.03l.56.14a.02.02 0 0 0 .01 0 .02.02 0 0 0 .01-.01l.3-.5a.02.02 0 0 1 .02-.01.02.02 0 0 1 .01.02l.04.57a.02.02 0 0 0 .02.02Zm6.03.09.57-.13a.02.02 0 0 0 .01 0v-.02l.05-.57V4.5l.01-.01a.02.02 0 0 1 .02 0l.3.5V5h.02l.56-.13a.02.02 0 0 1 .02 0v.03l-.39.43a.02.02 0 0 0 0 .03l.3.49s.01 0 0 0v.02a.02.02 0 0 1-.01 0l-.54-.23a.02.02 0 0 0-.02 0l-.37.45h-.01a.02.02 0 0 1-.02 0v-.01l.05-.58v-.01h-.01l-.54-.23a.02.02 0 0 1 0-.03ZM4.11 8.64h.58a.02.02 0 0 1 .01.01.02.02 0 0 1 0 .03L4.22 9a.02.02 0 0 0 0 .03l.17.55a.02.02 0 0 1-.03.02l-.46-.35a.02.02 0 0 0-.02 0l-.47.34a.02.02 0 0 1-.03-.03l.2-.54A.02.02 0 0 0 3.56 9l-.47-.34a.02.02 0 0 1 .01-.04l.58.01a.02.02 0 0 0 .02 0l.18-.56a.02.02 0 0 1 .03 0l.17.56a.02.02 0 0 0 .02.01Zm10.76 0h-.56a.02.02 0 0 1-.03-.02l-.16-.53-.01-.02a.02.02 0 0 0-.04.02l-.17.53a.02.02 0 0 1-.02.02h-.58a.02.02 0 0 0 0 .04l.46.32v.03l-.17.53a.02.02 0 0 0 0 .02v.01a.02.02 0 0 0 .03 0l.46-.33a.03.03 0 0 1 .01 0 .02.02 0 0 1 .02 0l.45.33a.02.02 0 0 0 .01 0 .02.02 0 0 0 .02-.01v-.02l-.17-.53V9l.46-.32a.02.02 0 0 0 .01-.03.02.02 0 0 0 0-.01h-.02Zm-2.04 3.5.56-.07a.02.02 0 0 1 .02.02v.02l-.42.38v.03l.24.5v.01a.02.02 0 0 1 0 .02l-.02.01-.5-.28h-.01a.02.02 0 0 0-.02 0l-.4.4a.02.02 0 0 1-.03 0 .02.02 0 0 1-.01-.01.02.02 0 0 1 0-.02l.1-.55v-.02l-.5-.27h-.01a.02.02 0 0 1 0-.03h.01v-.01l.57-.07a.02.02 0 0 0 .01 0v-.02l.1-.55a.02.02 0 0 1 .02-.01.02.02 0 0 1 .01 0h.02l.24.52h.02Zm-6.63.16-.57-.04a.02.02 0 0 1-.01-.02l-.14-.55v-.01a.02.02 0 0 0-.03 0l-.21.54h-.02l-.57-.04a.02.02 0 0 0-.02.01.02.02 0 0 0 0 .03l.44.36a.02.02 0 0 1 0 .02l-.2.53c-.01 0-.01 0 0 0v.02a.02.02 0 0 0 .02 0l.48-.3h.02l.44.37h.02v-.02l-.13-.55a.02.02 0 0 1 0-.02l.5-.3a.02.02 0 0 0 0-.02.02.02 0 0 0-.02-.01Z" fill="#008ED8"/><path d="M6.65 5.47h4.56c.07.06.12.09.16.1l.55 1.47v.05c0 .02-.02.03-.03.04l-.13.07a.06.06 0 0 1-.05 0 .06.06 0 0 1-.04-.03 2.55 2.55 0 0 0-1.8-1.33C9.41 5.76 8 5.58 8 6.34v2.27c0 .03.01.04.04.04h1.1c.2 0 .36-.03.48-.1.38-.2.49-.51.46-.9 0-.04.01-.06.04-.06h.26c.04 0 .05.02.05.05V10c0 .04-.02.07-.06.07h-.25c-.03 0-.04-.03-.04-.06 0-.53-.18-.81-.77-.94-.45-.1-.84-.05-1.29-.06L8 9.03v2.46c0 .52.38.78.87.74.04 0 .06.01.06.05v.2a.06.06 0 0 1-.05.05H6.79a.51.51 0 0 1-.19-.05l.02-.22c0-.03.01-.04.04-.04.19.01.35-.04.47-.2.15-.2.15-.46.15-.7V6.26c0-.33-.32-.47-.61-.46a.06.06 0 0 1-.07-.07v-.21c.05-.03.06-.05.05-.05Z" fill="#E6071C"/></svg>