<!-- by TradingView --><svg width="18" height="18" viewBox="0 0 18 18" xmlns="http://www.w3.org/2000/svg"><path fill="#F0F3FA" d="M0 0h18v18H0z"/><path fill-rule="evenodd" d="M2.18 7h1.07L4 8.11 4.76 7h1.06L4.44 8.8v1.58l-.92.11V8.8L2.18 7ZM6 10.32l-.95.04L6.61 7h.98l1.35 3.24h-.9l-.2-.53H6.27l-.27.6Zm1.12-2.47L7.56 9H6.6l.52-1.15ZM9.07 10v-.7c1.04.65 1.7.39 1.7.11 0-.22-.36-.35-.55-.39C9.82 8.92 9 8.55 9 8c0-.7.58-.99 1.3-.99.56 0 1.02.18 1.18.27v.67c-.36-.2-.82-.35-1.08-.35-.25 0-.57.06-.57.28 0 .17.3.29.53.38l.2.08.16.07c.33.1.92.32.92.82 0 .62-.38 1.09-1.27 1.09-.72 0-1.16-.2-1.3-.3Zm5.11-3v1.3h-1.36V7H12v3.3l.82.06v-1.4h1.36v1.52l.82.1V7h-.82Z" fill="#1D427D"/><path d="M9.37 10.43c-3.96 0-6.56.28-7.37.42V11c.66-.09 3.05-.26 7.37-.26s6.22.17 6.63.26v-.15c-.56-.14-2.68-.42-6.63-.42Z" fill="#E31E24"/></svg>