<!-- by TradingView --><svg width="18" height="18" viewBox="0 0 18 18" xmlns="http://www.w3.org/2000/svg"><path fill="#F0F3FA" d="M0 0h18v18H0z"/><path d="M12.56 6.02c-.53.05-.92.16-1.35.36-.62.3-1.22.8-1.69 1.42-.2.25-.42.65-.8 1.43-.23.44-.41.8-.42.79-.03-.01-.28-.45-.53-.91C6.9 7.53 6 6.57 5.05 6.22a2.14 2.14 0 0 0-.54-.12l.21.13c.42.23.83.56 1.17.95.41.47.75 1 1.32 2.06.36.68.53.97.67 1.2l.1.16-.04.07-.14.2-.1.13-.18-.25c-.32-.44-.68-1.01-1-1.6C5.75 7.7 4.84 6.68 3.97 6.3c-.27-.13-.72-.24-.72-.18l.03.02a4.19 4.19 0 0 1 1.5 1.21c.38.48.7 1.01 1.31 2.16.41.77.77 1.34 1.09 1.73l.16.2-.12.12a.54.54 0 0 1-.15.12c-.04 0-.45-.45-.72-.81-.37-.5-.64-.91-1.07-1.7-.32-.57-.42-.73-.67-1.1a4.85 4.85 0 0 0-2-1.82c-.36-.14-.8-.21-.52-.08a5.06 5.06 0 0 1 1.03.76c.57.56.87 1.01 1.63 2.43.75 1.4 1.14 1.96 1.7 2.45l.21.19s-.12.1-.3.2a6.77 6.77 0 0 1-1.15.58 6.28 6.28 0 0 0 2.66-.52c.59-.28 1.21-.95 1.75-1.87.08-.14.3-.54.47-.89.71-1.37 1.05-1.88 1.6-2.4.45-.42 1.07-.8 1.64-.99l.17-.05-.16-.03a3.12 3.12 0 0 0-.78-.01Zm2 .34c-1.03.1-1.66.36-2.31.95-.3.27-.7.8-1 1.32l-.42.8a11.36 11.36 0 0 1-1.27 2.1 4.22 4.22 0 0 1-1.89 1.37c-.01.01.07.03.17.04 1.33.12 2.6-.7 3.68-2.4l.56-1.05a8.66 8.66 0 0 1 1.14-1.88 4.91 4.91 0 0 1 1.81-1.27c.04-.02-.06-.02-.47.02Zm1.2.65c-1.02.15-1.81.69-2.52 1.72-.17.26-.44.73-.86 1.52-.33.6-.48.87-.71 1.2-.44.64-.93 1.1-1.5 1.43l-.22.12.14-.02c.78-.09 1.4-.38 1.96-.92.5-.47.81-.94 1.5-2.22.33-.62.48-.9.7-1.23A4.4 4.4 0 0 1 16 7c.03-.02-.03-.02-.23 0Z" fill="#2C5642"/></svg>