<!-- by TradingView --><svg width="18" height="18" viewBox="0 0 18 18" xmlns="http://www.w3.org/2000/svg"><path fill="#FDE7C2" d="M0 0h18v18H0z"/><path d="m11.9 8.23.01.05c.41 2.68-.72 4.02-1.91 4.5V15H8v-2.19c-1.16-.42-2.23-1.7-1.96-4.53v-.07l1.22.95c.02 1.97.99 2.58 1.73 2.57.75-.01 1.78-.7 1.75-2.58l1.17-.92Zm-.16-.78-1.08.82c-.3-1.77-1.22-3-1.67-3.4a5.82 5.82 0 0 0-1.68 3.4L6.19 7.4A8.15 8.15 0 0 1 8.99 3a8.66 8.66 0 0 1 2.75 4.45ZM9 3.58a7.57 7.57 0 0 0-2.33 3.67l.4.35A7.5 7.5 0 0 1 9 4.2 8.72 8.72 0 0 1 10.9 7.6l.38-.35A7.3 7.3 0 0 0 9 3.58Z" fill="#A3253D"/></svg>