<!-- by TradingView --><svg width="18" height="18" viewBox="0 0 18 18" xmlns="http://www.w3.org/2000/svg"><path fill="#F0F3FA" d="M0 0h18v18H0z"/><path d="M14 9h1l-1.64-1.56L11.76 9h.68a3.44 3.44 0 0 1-6.87.25H4A5 5 0 0 0 14 9Z" fill="url(#a)"/><path d="M3 9h1c.04-2.77 2.27-5 5-5 2.22 0 4.1 1.46 4.76 3.49l-.45-.44-1.07 1.05a3.41 3.41 0 0 0-3.28-2.54A3.42 3.42 0 0 0 5.56 9h.68l-1.6 1.56L3 9Z" fill="url(#b)"/><path d="M8.43 12h.45v-1.3a9.04 9.04 0 0 1-.91-.82c-.19-.2-.24-.26-.33-.26-.07 0 .04.29.1.44l.04.08c.02.07-.45.11-.45-.52l.02-.09c.03-.16.11-.49-.02-.53-.17-.05-.33.43-.33.7 0 .27.4.82.54.9.05.04.2.1.37.17.19.08.4.17.52.24-.03.33-.09.99 0 .99Zm1.14 0h-.45v-1.3c.19-.15.62-.5.83-.73l.08-.09c.19-.2.24-.26.33-.26.07 0-.04.29-.1.44l-.04.08c-.02.07.45.11.45-.52l-.02-.09c-.03-.16-.11-.49.02-.53.17-.05.33.43.33.7 0 .27-.4.82-.54.9-.05.04-.2.1-.37.17-.19.08-.4.17-.52.24.03.33.09.99 0 .99Z" fill="#72C213"/><path d="m9.75 6.23.1.12.05-.05a1.5 1.5 0 0 0-.22-.14l.07.07Zm-.35-.18a2.5 2.5 0 0 1 .37.35c-.08.05-.16.09-.26.12-.08-.2-.18-.36-.28-.5.06 0 .11.02.17.03ZM9.1 6c.1.14.22.33.32.55-.12.03-.24.06-.38.06V6h.05ZM8.9 6v.61c-.15 0-.29-.03-.4-.07.09-.21.2-.4.31-.53h.1Zm-.23.03c-.1.14-.19.3-.27.48a1.27 1.27 0 0 1-.2-.1 2.22 2.22 0 0 1 .34-.34l.13-.04Zm-.4.15a2.36 2.36 0 0 0-.15.18 1.09 1.09 0 0 1-.05-.04l.2-.14Zm-.28.2a1.5 1.5 0 0 0-.31.4l.15.09c.06-.16.14-.3.23-.43A1.18 1.18 0 0 1 8 6.38Zm-.36.48a1.5 1.5 0 0 0-.14.54l.2.1c.02-.2.05-.37.1-.54a2.03 2.03 0 0 1-.16-.1Zm-.14.65c0 .21.05.41.13.6l.18.1a1.9 1.9 0 0 1-.1-.6 2.77 2.77 0 0 1-.21-.1Zm.21.76c.08.14.19.26.3.37l-.15-.3-.15-.07Zm.85.67a1.5 1.5 0 0 1-.27-.12 1.95 1.95 0 0 1-.3-.42c.12.04.24.08.37.1.06.17.13.31.2.44Zm1.12-.1c-.1.05-.22.1-.34.12.08-.13.16-.28.22-.46.17-.03.33-.08.47-.14-.1.18-.21.34-.35.48Zm.3-.2c.14-.12.25-.26.34-.42l-.15.08a1.9 1.9 0 0 1-.19.33Zm.41-.58c.07-.18.11-.36.11-.56v-.02l-.18.09v.01c0 .21-.04.4-.1.58l.17-.1Zm.1-.7a1.5 1.5 0 0 0-.14-.52l-.15.09c.06.16.1.34.11.53.07-.03.13-.06.18-.1Zm-.2-.61a1.5 1.5 0 0 0-.3-.38l-.08.05c.1.13.18.26.25.42l.14-.1ZM9.22 8.99 9.04 9v-.44c.14 0 .28-.01.4-.03-.06.18-.15.33-.23.46Zm-.3 0a1.5 1.5 0 0 1-.2-.02 2.14 2.14 0 0 1-.24-.45c.14.03.29.04.44.04V9Zm-.59-.6a2.36 2.36 0 0 1-.38-.12 1.79 1.79 0 0 1-.13-.62c.12.05.26.09.4.12.02.23.06.44.11.62Zm-.11-.73a2.9 2.9 0 0 1-.4-.12c0-.2.03-.37.09-.53.1.04.22.09.34.12a3.02 3.02 0 0 0-.03.53Zm.05-.62a2.14 2.14 0 0 1-.33-.13c.06-.15.14-.29.23-.42.06.04.13.08.22.11-.05.14-.1.28-.12.44Zm.21-.4c-.05.13-.09.27-.11.42.16.04.35.07.55.07v-.42c-.16 0-.31-.03-.44-.07Zm-.13.52a2.93 2.93 0 0 0-.03.52c.18.04.38.06.6.06v-.5c-.2-.01-.4-.04-.57-.08Zm-.02.63c.01.23.06.44.12.63.14.02.3.04.47.04v-.62a3.5 3.5 0 0 1-.6-.05ZM9.55 6.6c.1-.03.2-.08.28-.13.1.12.18.26.24.4-.12.06-.26.12-.4.16-.04-.15-.07-.3-.12-.43Zm.13.53c.16-.05.3-.1.43-.16.06.16.1.33.1.52-.15.07-.32.12-.5.16a3.19 3.19 0 0 0-.03-.52Zm.03.63c.18-.04.35-.1.5-.16 0 .23-.04.43-.12.62-.14.06-.3.12-.5.16.06-.18.1-.4.12-.62Zm-.26-1.12a1.7 1.7 0 0 1-.41.06v.42c.19 0 .37-.03.53-.07-.03-.15-.07-.29-.12-.41Zm.13.51c-.16.04-.35.07-.54.07v.51c.2 0 .4-.02.57-.06a3.07 3.07 0 0 0-.03-.52Zm.03.63c-.18.03-.37.05-.57.05v.62c.16 0 .3-.02.45-.04.06-.19.1-.4.12-.63Z" fill="#2CBAF1"/><defs><linearGradient id="a" x1="13.19" y1="8.68" x2="4.38" y2="9.16" gradientUnits="userSpaceOnUse"><stop stop-color="#2CB9F0"/><stop offset="1" stop-color="#F0F3FA"/></linearGradient><linearGradient id="b" x1="4.49" y1="9.32" x2="13.3" y2="8.84" gradientUnits="userSpaceOnUse"><stop stop-color="#BAD04D"/><stop offset="1" stop-color="#F0F3FA"/></linearGradient></defs></svg>