<!-- by TradingView --><svg width="18" height="18" viewBox="0 0 18 18" xmlns="http://www.w3.org/2000/svg"><path fill="#F0F3FA" d="M0 0h18v18H0z"/><path d="M11.08 12.23c1.08 0 1.98-.49 2.3-.73-.52 1.07-2.1 2.5-3.62 2.5S7 12.76 7 12.3c0-.3.37-.56 1.2-.56 1.38 0 1.92.49 2.88.49Z" fill="#ACCE22"/><path d="M4 9.7A5.17 5.17 0 0 0 7.8 14c-.92-.33-1.61-1.05-1.61-1.86 0-.8.66-1.14 1.6-1.14.94 0 2.34.5 3.47.5 1.12 0 1.74-.48 1.74-.76 0-.3-.32-.52-.9-.84-1.23-.64-3.56-.9-4.72-.9-1.17 0-2.8.44-3.38.7Z" fill="url(#axvfyrytv)"/><path d="M14 8.92A4.96 4.96 0 0 0 9 4a4.96 4.96 0 0 0-4.98 5.31C4.92 8.85 6.82 8 8.79 8c1.55 0 2.93.48 3.78.76.4.14.71.24.89.24.23 0 .41-.02.54-.08Z" fill="url(#bxvfyrytv)"/><defs><linearGradient id="axvfyrytv" x1="12.75" y1="10.91" x2="3.99" y2="10.91" gradientUnits="userSpaceOnUse"><stop stop-color="#98C636"/><stop offset="1" stop-color="#60A875"/></linearGradient><linearGradient id="bxvfyrytv" x1="13.69" y1="9.32" x2="6.3" y2="4.63" gradientUnits="userSpaceOnUse"><stop offset=".27" stop-color="#F8C60C"/><stop offset=".71" stop-color="#D4582C"/></linearGradient></defs></svg>