<!-- by TradingView --><svg width="18" height="18" viewBox="0 0 18 18" xmlns="http://www.w3.org/2000/svg"><path fill="#F0F3FA" d="M0 0h18v18H0z"/><path fill-rule="evenodd" d="M5 4h8v10H5V4Zm.5.5h7v9h-7v-9Z" fill="#181B1E"/><path d="M7 6v3.24S7.04 11 9.03 11C11.02 11 11 9.5 11 9.42c0-.29-.28-.93-.57-1.53-.28-.6-.43-1.34-.43-1.34v2.64S10 10 9 10s-1-.6-1-.83V6H7Z" fill="#181B1E"/><path d="M10.87 8s-.57-.97-.57-1.62c0-.64.45-1.22 1.68-1.38 0 0 .16.88-.5 1.46-.65.57-.61 1.27-.61 1.54Zm.94-2.82s-1.31.15-1.31 1.1c0 .44.08.76.15.9 0 0-.03-.98.93-1.63 0 0-.64.62-.76 1.53 0 0 .26-.5.6-.8.32-.3.42-.75.4-1.1Z" fill="#01A04A"/><path opacity=".7" d="M12 12H6v1h6v-1Z" fill="url(#apze1fpjk)"/><path opacity=".7" fill="url(#bpze1fpjk)" d="M6 5h.8v.56H6z"/><defs><linearGradient id="apze1fpjk" x1="9" y1="12" x2="9" y2="13"><stop offset="1" stop-color="#181B1E"/></linearGradient><linearGradient id="bpze1fpjk" x1="6.4" y1="5" x2="6.4" y2="5.56"><stop offset="1" stop-color="#181B1E"/></linearGradient></defs></svg>