<!-- by TradingView --><svg width="18" height="18" viewBox="0 0 18 18" xmlns="http://www.w3.org/2000/svg"><path fill="#F0F3FA" d="M0 0h18v18H0z"/><path d="M5.14 14.83c.75.2 1.53.22 2.29.09 1.65-.27 3.64-1.55 4.3-4.52L13 5.11a.1.1 0 0 0-.02-.07.1.1 0 0 0-.07-.04H11l-.73 2.9c-.4 1.6-1.23 2.48-2.4 2.49-.78 0-1.07-.62-.82-1.77l.81-3.5a.1.1 0 0 0-.01-.08.09.09 0 0 0-.07-.04H5.93s-.45 1.91-.74 3.07c-.54 2.14.07 3.8 1.88 3.94.97.07 1.82-.43 2.46-1.07h.03c-.37 1.3-1 2.02-2.23 2.26a2.68 2.68 0 0 1-1.67-.26.07.07 0 0 0-.06.03l-.02.03-.44 1.83" fill="#060000"/><path d="M7.7 5c.73 0 1.02-.39 1.2-1 .2-.6.15-1-.6-1-.73 0-1.02.4-1.2 1-.2.61-.15 1 .6 1ZM10.7 5c.73 0 1.02-.39 1.2-1 .2-.6.15-1-.6-1-.73 0-1.02.4-1.2 1-.2.61-.15 1 .6 1Z" fill="#0080FF"/></svg>