<!-- by TradingView --><svg width="18" height="18" viewBox="0 0 18 18" xmlns="http://www.w3.org/2000/svg"><path fill="#F0F3FA" d="M0 0h18v18H0z"/><path d="M6.7 7.2a1.75 1.75 0 0 1-.46-1.23C6.24 4.91 7.02 4 8.65 4c1.04 0 1.94.42 2.32 1.18a7 7 0 0 1 .95-.06c2.1 0 2.08 1.3 2.08 1.6v.04c0 .24-.44 1.9-3.42 1.9-1.43 0-2.7-.42-3.16-.63a5.03 5.03 0 0 0-1.83 3.59c0 2.13 2.05 2.83 5.48-.2l.18.28c-.71.77-2.65 2.3-4.73 2.3-.84.02-2.52-.47-2.52-2.58C4 9.67 5.57 8.1 6.7 7.2Zm.26-.2c.31-.25.57-.43.73-.53a7.37 7.37 0 0 1 2.9-1.22c-.35-.48-.96-.85-1.94-.85-2.22 0-2.21 1.84-1.7 2.6Zm3.84-1.43a6.98 6.98 0 0 0-2.88 2.01c3.65 1.48 5.3.16 5.3-.98 0-.92-1.07-1.15-1.6-1.16-.18 0-.35.02-.52.06.1.37.1.81-.04 1.31.02-.33-.04-.8-.26-1.24Z" fill="url(#a)"/><defs><linearGradient id="a" x1="4.47" y1="12.65" x2="14.26" y2="7.62" gradientUnits="userSpaceOnUse"><stop stop-color="#EA9235"/><stop offset=".52" stop-color="#EAE789"/><stop offset="1" stop-color="#F1833D"/></linearGradient></defs></svg>