<!-- by TradingView --><svg width="18" height="18" viewBox="0 0 18 18" xmlns="http://www.w3.org/2000/svg"><path fill="#F0F3FA" d="M0 0h18v18H0z"/><path d="m14.86 8.45-2.1-3.17L7.03 14h4.37c.32 0 .62-.16.79-.42l2.69-4.24a.81.81 0 0 0 0-.9Z" fill="url(#atbyk2upn)"/><path d="M12.04 4h-5.8a.45.45 0 0 0-.43.64l1.67 2.83c.15.32.48.53.84.53h1.62c.36 0 .7-.2.84-.53l1.68-2.83a.45.45 0 0 0-.42-.64Z" fill="url(#btbyk2upn)"/><path d="m3.06 8.83 2.36-3.71 3.35 5.27-2.1 3.13a.48.48 0 0 1-.76-.02L3.07 9.28a.4.4 0 0 1 0-.45Z" fill="url(#ctbyk2upn)"/><defs><linearGradient id="atbyk2upn" x1="11.01" y1="5.28" x2="11.01" y2="14" gradientUnits="userSpaceOnUse"><stop offset=".37" stop-color="#AC662E"/><stop offset="1" stop-color="#D7B378"/></linearGradient><linearGradient id="btbyk2upn" x1="5.77" y1="4.55" x2="10.96" y2="4.62" gradientUnits="userSpaceOnUse"><stop stop-color="#EAC88F"/><stop offset="1" stop-color="#AC662E"/></linearGradient><linearGradient id="ctbyk2upn" x1="4.85" y1="5.97" x2="5.75" y2="13.72" gradientUnits="userSpaceOnUse"><stop stop-color="#EEB979"/><stop offset="1" stop-color="#AC662E"/></linearGradient></defs></svg>