<!-- by TradingView --><svg width="18" height="18" viewBox="0 0 18 18" xmlns="http://www.w3.org/2000/svg"><path fill="#02ABEF" d="M0 0h18v18H0z"/><path d="M16 10a9.12 9.12 0 0 1-5.54 1.84A9.12 9.12 0 0 1 5 10.05 6.42 6.42 0 0 0 10.48 13 6.41 6.41 0 0 0 16 10Z" fill="#FFFFF2"/><path fill-rule="evenodd" d="M14 10a2 2 0 1 0 0-4 2 2 0 0 0 0 4Zm0-.73a1.27 1.27 0 1 0 0-2.54 1.27 1.27 0 0 0 0 2.54ZM7 10a2 2 0 1 0 0-4 2 2 0 0 0 0 4Zm0-.73a1.27 1.27 0 1 0 0-2.54 1.27 1.27 0 0 0 0 2.54Z" fill="#FFFFF2"/><path d="M9 6h.75v1.45h1.5V6H12v4h-.75V8.18h-1.5V10H9V6ZM2 6h.76l.74 1.45L4.24 6H5L3.88 8.18V10h-.76V8.18L2 6Z" fill="#FFFFF2"/></svg>