<!-- by TradingView --><svg width="18" height="18" viewBox="0 0 18 18" xmlns="http://www.w3.org/2000/svg"><path fill="#F0F3FA" d="M0 0h18v18H0z"/><path fill-rule="evenodd" d="M13.8 11.57c1.21-.7 1.9-1.62 1.9-2.57 0-.95-.69-1.87-1.9-2.57A9.85 9.85 0 0 0 9 5.3c-1.89 0-3.58.44-4.8 1.13C3 7.13 2.3 8.05 2.3 9c0 .95.69 1.87 1.9 2.57 1.22.7 2.91 1.13 4.8 1.13 1.89 0 3.58-.44 4.8-1.13ZM9 13c3.87 0 7-1.8 7-4s-3.13-4-7-4-7 1.8-7 4 3.13 4 7 4Z" fill="#F41C07"/><path d="M5 7h.3v.7a1.3 1.3 0 0 0 1.33 1.13c.64 0 1.2-.39 1.37-.94V7h2v.63c.3-.32.75-.63 1.29-.63 1.47 0 1.75 1.19 1.7 1.86 0 .58-.43 1.14-1.03 1.14-.6 0-.96-.42-.96-1 0-.58.32-1 .92-1 .31 0 .6.13.8.34-.19-.44-.6-1.05-1.39-1.05-.74 0-1.16.51-1.33.93V11H8V9.21c-.26.47-.76.79-1.37.79C5.73 10 5 9.27 5 8.43V7Z" fill="#F41C07"/></svg>