<!-- by TradingView --><svg width="18" height="18" viewBox="0 0 18 18" xmlns="http://www.w3.org/2000/svg"><path fill="#F0F3FA" d="M0 0h18v18H0z"/><path fill-rule="evenodd" d="M9 15A6 6 0 1 0 9 3a6 6 0 0 0 0 12Zm0-.35a5.65 5.65 0 1 0 0-11.3 5.65 5.65 0 0 0 0 11.3Z" fill="#ED2029"/><path d="m8.28 7.58.05-.02.01-.02c.06-.07.14-.07.2-.14h.04l.01.02-.01.04-.02.03-.08.28a.02.02 0 0 1-.01.01.09.09 0 0 0-.03.02c-.02.03-.01.03.02.02.1-.05.16-.13.27-.16.02-.01.03 0 .02.02a2 2 0 0 1-.07.13.76.76 0 0 0-.1.27v.03a.1.1 0 0 0-.03.08c0 .02 0 .02.02.01a.19.19 0 0 1 .12-.03c.01 0 .02 0 0 .02l-.02.01-.02.02a.42.42 0 0 1-.16.1.04.04 0 0 1-.04 0v-.04l.01-.04.01-.03c.01-.1.04-.23.1-.36 0-.02 0-.02-.02 0-.06.03-.12.08-.17.13h-.05c-.01 0-.02 0 0-.02l.02-.04a.55.55 0 0 1 .08-.31l-.01-.02H8.4a.02.02 0 0 0-.03 0l-.16.17c-.02.02-.04.02-.06.01v-.02l.02-.07a.5.5 0 0 1 .06-.31v-.04H8.2c-.02.03-.06.05-.07.08a.33.33 0 0 1-.08.12c-.03.03-.04.07-.05.1l-.02.02-.05.01-.02-.02v-.2a.58.58 0 0 1 .05-.22l-.02-.03h-.01a.62.62 0 0 1-.12.2l-.1.17c-.01.04-.03.05-.07.07a.01.01 0 0 1-.01 0l.02-.37-.02-.02H7.6l-.02.04a18.8 18.8 0 0 1-.23.45l-.03-.28c0-.01 0-.02-.01 0-.02.04-.05.06-.06.1l-.07.21c-.04.1-.06.1-.07 0l-.01-.08v-.01h-.03l-.01.01c-.02.1-.05.21-.1.33l-.03.02A.1.1 0 0 1 6.87 8a.01.01 0 0 0-.02 0l-.05.24c0 .13-.03.13-.06 0a3.45 3.45 0 0 1-.09-.57c0-.14-.04-.25-.04-.38a2.85 2.85 0 0 1 .1-1.23c.07-.23.16-.43.24-.65l.03-.04c.02-.02.02-.01.02 0-.02.25-.06.5-.07.74l-.02.34a3.13 3.13 0 0 0 .06.37c.01-.07.01-.18.03-.26.1-.52.26-1 .46-1.47.11-.24.24-.43.4-.65.06-.1.07-.09.03.02-.04.09-.12.26-.16.39-.12.36-.19.73-.22 1.1 0 .1.01.1.05.02.03-.05.03-.11.06-.17.22-.46.48-.86.79-1.2.13-.15.3-.3.5-.43a.5.5 0 0 1 .15-.08c.02 0 .02 0 0 .01l-.03.02a.07.07 0 0 0-.02.02c-.13.16-.3.35-.4.52l-.4.7a2.61 2.61 0 0 0-.12.43h.01a71.86 71.86 0 0 0 .54-.69c.18-.16.32-.3.5-.42l.37-.27c.23-.14.45-.26.65-.35.2-.1.2-.08.04.05a7.64 7.64 0 0 0-.88.83c-.04.07-.1.11-.16.2l-.36.5c-.02.04-.02.04.02.02.1-.07.2-.18.3-.26a25.52 25.52 0 0 1 .65-.46c.16-.1.26-.17.4-.22a4.96 4.96 0 0 0 .48-.19v.01c-.12.1-.3.2-.37.25-.18.1-.31.27-.48.4-.06.04-.1.12-.16.17-.1.1-.23.2-.32.34-.05.08-.12.18-.2.27-.02.04-.01.05.03.03l.04-.03c.21-.17.4-.27.62-.39.11-.07.2-.1.25-.12.18-.06.3-.14.49-.2a96.02 96.02 0 0 0 .48-.1l-.02.02a7.58 7.58 0 0 0-1.42 1 .61.61 0 0 0-.1.13c-.03.05-.02.05.03.02.13-.1.24-.17.4-.24l.3-.13c.26-.11.51-.17.79-.24.03 0 .03 0 .02.03l-.05.03a6.55 6.55 0 0 0-1.25.87c-.03.05-.02.06.03.03.1-.05.17-.12.27-.16l.35-.14c.15-.06.35-.1.51-.13.03 0 .04 0 .03.03l-.03.02a3.15 3.15 0 0 0-.7.42c-.15.1-.22.18-.39.33v.02h.05l.27-.12.33-.1c.09-.02.1 0 .01.04-.22.14-.38.25-.57.41-.12.12-.25.2-.34.3-.14.16-.3.3-.43.48l-.14.2c-.02.05-.03.04-.03 0l.02-.06a6.94 6.94 0 0 1 .5-.68 11.21 11.21 0 0 1 .41-.36.87.87 0 0 0 .16-.1v-.01h-.01c-.2.1-.32.14-.47.24a4.94 4.94 0 0 1-.3.15c.09-.08.13-.17.21-.25a6.8 6.8 0 0 1 .68-.64c-.1.05-.22.1-.33.17a4.18 4.18 0 0 0-.7.46v-.03l.01-.01c.06-.05.11-.1.14-.16.08-.14.23-.24.32-.36.1-.14.23-.2.37-.34l.2-.16a4.35 4.35 0 0 0 .22-.16h-.01l-.35.17a3.86 3.86 0 0 0-1.03.7c-.12.1-.14.08-.04-.04.1-.13.16-.28.29-.41.08-.08.11-.16.18-.23a3.95 3.95 0 0 1 .79-.66c.06-.05.06-.06-.02-.02a4.7 4.7 0 0 0-1.56 1.09 4.4 4.4 0 0 1 .47-.78c.05-.1.17-.18.23-.28.03-.05.06-.1.1-.12.07-.07.18-.2.28-.27.07-.05.11-.1.14-.13.02-.03.01-.04-.02-.02-.32.2-.6.43-.84.67-.2.2-.32.3-.47.5a20.89 20.89 0 0 1-.24.27.02.02 0 0 1 0-.02c.08-.17.13-.33.22-.49l.23-.44c.04-.08.1-.15.14-.21l.27-.36a67.76 67.76 0 0 0 .33-.37v-.01h-.01l-.38.3c-.16.13-.3.32-.43.44-.18.18-.28.33-.43.54a12.1 12.1 0 0 1-.42.68c-.03.04-.04.04-.03-.01l.06-.4a3.36 3.36 0 0 1 .53-1.26h-.03a4.36 4.36 0 0 0-.72 1.3 61.3 61.3 0 0 1-.22.59c-.02.02-.03.01-.03-.02v-.63a3.29 3.29 0 0 1 .12-.76A6.52 6.52 0 0 0 7.1 6.5a29.32 29.32 0 0 0-.17.95c-.02.03-.04.02-.04 0 0-.15-.05-.3-.07-.41a213.27 213.27 0 0 0-.09-.7 7.02 7.02 0 0 0 .03 1.54.03.03 0 0 0 .03 0v-.01l.01-.01V7.8h.05c.02 0 .03.02.04.04h.01a.02.02 0 0 0 .02 0h.01c.03-.08.04-.17.09-.24a.47.47 0 0 0 .05-.1c0-.02.01-.02.02 0 .02 0 .02.03.03.07a.01.01 0 0 0 0 .01h.02l.01-.01.06-.16c.03-.1.11-.2.14-.31v-.02h.03v.01c.03.11-.02.28.05.4 0 .02 0 .02.01 0v-.07l.07-.16a.36.36 0 0 1 .1-.13c.05-.04.1-.1.13-.15.04-.05.05-.05.04.02l-.05.32c0 .01 0 .03.02.05l.01.02a.01.01 0 0 0 .02 0 .57.57 0 0 1 .18-.33c.06-.05.1-.13.16-.17.05-.05.06-.04.03.02a4.1 4.1 0 0 1-.11.46c-.03.1-.01.1.05.02l.03-.07a.41.41 0 0 1 .14-.15l.08-.06c.07-.08.09-.07.05.04-.05.1-.09.25-.13.42 0 .01 0 .02.02.01Z" fill="#ED2029" fill-opacity=".5"/><path d="M4.64 7.9v-.05c.07-.08.1-.2.13-.26a5.74 5.74 0 0 1 .53-.9c.01 0 .02.01.01.03l-.08.15a4.31 4.31 0 0 0-.17.58.24.24 0 0 0 .04-.08l.02-.03c.05-.05.1-.12.15-.22l.02-.03c.04-.01.06 0 .05.05a8.84 8.84 0 0 0-.15.78c0-.05 0-.08.04-.1.01 0 .02 0 .02-.02l.06-.12c.07-.1.08-.1.05.02a6.03 6.03 0 0 0-.21 1.59l.11-.19.16-.2c.02-.02.03-.02.05 0l-.01.24c0 .05 0 .05.03 0l.1-.18c.16-.22 1.11-.5 1.15-.51h.03l.08.06h.11l.07.06h.03a.47.47 0 0 1 .24-.1h.01l.05.02h.03c.42-.46.88.45 1.2-.09.05-.07.15-.12.18-.2.03-.05.04-.05.05.02v.22c0 .07.02.08.07.02.93-1.14 2.41 2.08 3.76-.6a18.28 18.28 0 0 1 .2-.36c0 .1 0 .21-.03.32-.07.27-.15.5-.25.68-.38.78.38-.22.52-.43.11-.16.21-.36.31-.55.03-.07.04-.06.04 0-.01.11-.06.23-.13.43-.44 1.33.09.27.46-.36 0-.02.01-.01.02 0l-.01.08c-.09.28-1.1 2.01-.2.9l.14-.2c.09-.1.15-.24.24-.34.04-.04.05-.04.03.02a7.93 7.93 0 0 1-.36.7c-.46.62-.2.46.17-.05a.1.1 0 0 1 .07-.05h.01v.01a3.96 3.96 0 0 1-1.4 1.57c-.2.14-.47.28-.65.38-.17.1-.27.13-.5.22-.22.09-.44.15-.64.17-.27.04-.52 0-.74-.12a5.65 5.65 0 0 0-.65-.32c-.15-.05-.35-.08-.45.08v.03c.02.13.06.25.22.25l.03.01c.07.06.1.12.1.17l.04.26c.01.06 0 .12-.04.16a.06.06 0 0 0-.02.05c0 .04.03.05.08.04.1-.02.23-.06.34-.06.2 0 .34.08.44.23l.1.13c.1.08.25.17.37.1a.43.43 0 0 0 .17-.13c.1-.15.22-.31.4-.36.2-.06.4-.13.51-.3 0-.02.02-.02.02 0v.03c-.06.21-.25.28-.5.37a.56.56 0 0 0-.22.2c-.18.25-.36.42-.7.3l-.15-.1h-.01l-.01.01c.02.1 0 .2-.08.27-.02.03-.04.04-.05.04-.08.01-.1.04-.03.1.09.06.12.16.11.3v.01a.01.01 0 0 1-.01 0 .27.27 0 0 0-.13-.01c-.06 0-.1.06-.17.06a.34.34 0 0 0-.18.06l-.03.01c-.2.03-.29.14-.41.08a.03.03 0 0 0-.03 0c-.23.13-.23-.01-.5-.23H8.5c-.07.04-.16.13-.24.16-.33.1-.53-.03-.87-.19-.27-.12-.44.03-.67.04a3 3 0 0 1-.5-.01v-.02h.01c.2 0 .34-.01.42-.03l.36-.12a.68.68 0 0 1 .3 0c.03 0 .12.03.26.1l.35.11c.16.04.4-.01.47-.18v-.02l-.01-.01a1.54 1.54 0 0 0-.44-.17 5.27 5.27 0 0 1-.5-.12.35.35 0 0 1-.12-.07.7.7 0 0 0-.22-.12.03.03 0 0 1-.03-.03c0-.03 0-.05.02-.07a.03.03 0 0 0 0-.04c-.08-.07-.16-.11-.21-.2a19.2 19.2 0 0 0-.2-.34h.02l.21.2.02-.01v-.01a1.35 1.35 0 0 0-.16-.2c-.07-.07-.1-.13-.15-.25v-.01h.01c.08.1.12.19.23.14l.01-.02a.27.27 0 0 0-.04-.12 17.25 17.25 0 0 0-.28-.51h.01a4.4 4.4 0 0 0 .22.22c.05.04.06.03.06-.03 0-.04 0-.1-.03-.15l-.11-.3c-.04-.1-.04-.2-.08-.3v-.02h.02c.07.16.12.33.21.4s.12.06.1-.05a4.16 4.16 0 0 1-.27-.99l-.02-.02a.05.05 0 0 0-.05 0h-.02a.48.48 0 0 0-.08.18l.01.02.08.02c.02.01.02.02.02.03H6.6c-.15.04-.2.13-.17.27l.02.01h.01c.01-.02.02-.02.04-.02s.02 0 .01.01c-.08.1-.12.18-.13.26l.05.13c0 .02.02.02.03 0l.02-.03c.04-.05.06-.04.06.02 0 .01-.01.04-.04.06l-.02.03c-.03.17 0 .33.07.48.01.02.04.04.05.08l-.01.03h-.05l-.02-.04H6.5a.18.18 0 0 0-.08.05l-.02.03-.03.2c0 .02 0 .03-.02.04a.07.07 0 0 1-.03.02c-.21.04-.29.15-.24.35a.07.07 0 0 1 0 .06.07.07 0 0 1-.06.03c-.22.03-.17.2-.14.35a.02.02 0 0 1 0 .02h-.02c-.08.02-.18.05-.2.14 0 .06.02.17.07.24a.03.03 0 0 1-.01.03h-.02c-.07 0-.23 0-.25.07a.03.03 0 0 0 0 .03.03.03 0 0 0 .03 0c.27.04.43-.1.51-.34l.19-.54c.03-.1.1-.2.14-.28.03-.08.1-.1.13-.19 0-.01.01-.02.02-.01.05.01.1.04.14.08a.03.03 0 0 1 0 .02.03.03 0 0 1 0 .02 1.2 1.2 0 0 0-.32.49c-.15.39-.24.97-.85.86-.09-.01-.2-.06-.34-.14a1.1 1.1 0 0 1-.27-.24 2.78 2.78 0 0 1-.35-.51A3.85 3.85 0 0 1 4.02 10c0-.18-.03-.44-.02-.65.01-.14.01-.27.04-.39.32-1.32-.22.58.52-1.44a1.03 1.03 0 0 0 .06-.24h.02l-.03.6c0 .04.01.04.03 0Z" fill="#ED2029" fill-opacity=".5"/></svg>