<!-- by TradingView --><svg width="18" height="18" viewBox="0 0 18 18" xmlns="http://www.w3.org/2000/svg"><path fill="#F0F3FA" d="M0 0h18v18H0z"/><path fill-rule="evenodd" d="M9.22 11.3c1.32 0 2.43-1.23 2.43-2.8 0-1.56-1.11-2.78-2.43-2.78-1.31 0-2.42 1.22-2.42 2.79 0 1.56 1.1 2.79 2.42 2.79Zm0 .23c1.47 0 2.66-1.35 2.66-3.02s-1.2-3.03-2.66-3.03c-1.46 0-2.65 1.36-2.65 3.03 0 1.67 1.19 3.02 2.65 3.02Z" fill="url(#a)"/><path d="M13.22 7.34c-1.95 2.65-3.98 4.87-6.85 6.44-.24.12-.5.19-.8.22-.71.06-.57-.67-.41-1.12a9.31 9.31 0 0 1 1.6-2.63c.02.1.02.17 0 .21-.01-.03-.04-.02-.07.03-.41.56-.76 1.1-1.05 1.66-.26.47-.5.94-.4 1.4a.25.25 0 0 0 .29.2c.4-.07.73-.18.97-.32 4.17-2.66 5.14-4.72 6.37-6.08.55-.72.99-1.5 1.31-2.36.09-.22.13-.41.11-.58a.28.28 0 0 0-.1-.2.27.27 0 0 0-.22-.04c-.46.08-.87.25-1.25.52a.22.22 0 0 1-.1-.06.1.1 0 0 1 .05-.08c.47-.32.9-.5 1.31-.54.33-.04.51.1.55.4.02.2-.02.45-.12.72a7.5 7.5 0 0 1-.74 1.5l-.45.7Z" fill="#E9BF4A"/><path d="M12.39 4.55c.03 0 .05.02.08.05-.04.12-.14.19-.3.18h-.02l-.02.02a.06.06 0 0 0-.02.04c0 .03.01.04.03.05l.1.04c.04.02.05.05.03.09l-.07.13-.15.1c-.03.03-.04.06-.03.1.03.05.08.1.14.13.04.01.04.03.01.04l-.03.02h-.03l-.26-.2h-.02l-.03-.01c-.03-.01-.04 0-.02.05.05.09.07.19.06.3 0 .04-.02.07-.05.1-.11.09-.26.15-.43.19-.05 0-.05.03-.02.05.07.06.1.13.1.23-.01.04-.03.05-.06.03a.7.7 0 0 1-.38-.42c0-.04-.03-.05-.07-.04-.12.04-.2.15-.26.33l-.1-.73c0 .05-.01.09-.04.1.08-.46.34-.78.77-.97l.43-.05.08.01c.05.04.1.04.16.03h.1c.11.05.22.05.32.01Z" fill="#D1ECF9"/><path d="m12.47 4.6.15.03c.03.03.06.05.1.06.37.29.56.65.58 1.1.03.59-.22 1.04-.74 1.33 0-.08-.01-.14-.04-.18-.03-.03-.06-.03-.1 0-.07.05-.14.05-.2-.01-.03-.03-.05-.04-.08-.02l-.43.16a.1.1 0 0 0-.04.03.11.11 0 0 0-.02.05.4.4 0 0 0-.01.1h-.05l-.23-.03a1.54 1.54 0 0 1-.88-1.05c-.05-.2-.03-.42.05-.64.03-.02.04-.06.04-.1l.1.72c0 .18.06.35.18.5.02.03.05.04.08.04l.06-.02c.02 0 .04-.02.04-.04.02-.05.05-.1.1-.13.1.18.17.25.24.21.02-.03.05-.04.08-.03.05.01.06.04.02.08a.07.07 0 0 0-.01.05c0 .04.02.06.06.05.07-.01.1-.08.08-.2.08-.05.13-.1.15-.16.02-.1.06-.13.12-.1.1.04.11-.01.01-.18.1 0 .19 0 .29.04.03 0 .05 0 .05-.04s-.04-.1-.1-.18a.04.04 0 0 1-.01-.05l.02-.02h.02l.06.01.01.04.03.03a.04.04 0 0 0 .04 0 .04.04 0 0 0 .02-.02c.08-.23.1-.48.05-.75.03-.04.02-.08-.03-.1-.02-.02-.04-.02-.06 0l-.07-.03.07-.13c.02-.04 0-.07-.04-.09l-.09-.04a.05.05 0 0 1-.03-.05c0-.01 0-.03.02-.04l.02-.01h.02c.16 0 .26-.07.3-.2Z" fill="#013F97"/><path d="m12.5 4.74.03.12v.02h-.01l-.02.02h-.02l-.04-.03c-.04-.02-.05-.04-.03-.07.02-.03.03-.05.02-.06v-.02l.01-.01h.03l.02.03Z" fill="#D1ECF9"/><path d="m12.2 5.15.07.03c.02.08 0 .17-.06.25-.01.02 0 .03.02.04l.03.01.04-.01.06-.19a1.48 1.48 0 0 1-.06.76.04.04 0 0 1-.03.02h-.02l-.03-.04v-.04h-.07a.04.04 0 0 0-.04.01v.05c.07.08.1.14.11.18 0 .04-.02.05-.05.04a.72.72 0 0 0-.29-.04.24.24 0 0 0-.05-.15c-.04-.03-.04-.03-.03.02l.07.3c-.06-.02-.1.01-.12.11-.06-.11-.16-.09-.28.08-.02.03-.02.06.02.08.04.02.07.02.1 0 .03.12 0 .19-.07.2-.04 0-.06 0-.06-.05l.01-.05c.04-.04.03-.07-.02-.08-.03 0-.06 0-.08.03a.6.6 0 0 1-.11-.27.29.29 0 0 0-.02-.09l-.1-.14c-.04-.05-.06-.05-.06 0 0 .02 0 .05.02.07a.1.1 0 0 1 .02.1v.12a.22.22 0 0 0-.09.13c0 .02-.02.04-.04.04l-.06.02c-.03 0-.06 0-.08-.04a.81.81 0 0 1-.18-.5c.06-.18.14-.3.26-.33.04-.01.06 0 .07.04a.7.7 0 0 0 .38.42c.03.02.05 0 .05-.03.01-.1-.02-.17-.09-.23-.03-.02-.03-.04.02-.05.17-.04.32-.1.43-.2a.14.14 0 0 0 .05-.1c0-.1-.01-.2-.06-.3-.02-.04-.01-.05.02-.04h.03l.02.01.26.2h.03l.03-.02c.03-.01.03-.03 0-.04a.24.24 0 0 1-.15-.13c-.01-.04 0-.07.03-.1l.15-.1Z" fill="#0489D3"/><path d="m12.36 5.28-.06.19c-.01.01-.02.02-.04.01l-.03-.01c-.03 0-.03-.02-.02-.04a.32.32 0 0 0 .06-.25c.02-.02.04-.02.06 0 .05.02.06.06.03.1ZM11.88 6.22c.1.17.1.22 0 .17l-.08-.3c-.01-.05 0-.05.03-.02.03.04.04.08.05.15ZM11.37 6.71c-.07.04-.15-.03-.24-.21-.02-.03-.02-.08 0-.13a.1.1 0 0 0-.03-.1.09.09 0 0 1-.02-.07c0-.04.02-.04.05 0l.1.15.03.1c.01.09.05.18.11.26ZM12.14 6.69a.17.17 0 0 1-.05 0c-.07-.04-.06-.07.02-.09.02 0 .05 0 .08.04.02.01.02.02 0 .04h-.05ZM11.76 6.64c0-.02.01-.03.03-.03.03 0 .05.02.08.07a.05.05 0 0 1-.03.07c-.06.01-.08-.03-.08-.1Z" fill="#D1ECF9"/><path d="M12.47 6.77c-.05.02-.08.03-.1.01a.2.2 0 0 1-.07-.07v-.05l.02-.02h.03c.05-.01.13 0 .24.05.05.02.05.04 0 .06a.22.22 0 0 1-.12.02Z" fill="#fff"/><path d="M12.56 7.12a.25.25 0 0 1-.2.09c-.08 0-.13.03-.15.1-.13-.08-.27-.08-.43 0-.07.03-.12.02-.14-.05a.4.4 0 0 1 0-.11l.03-.05a.1.1 0 0 1 .04-.03l.43-.16c.03-.02.05 0 .08.02.06.06.13.06.2 0 .04-.02.07-.02.1.01.03.04.04.1.04.18Z" fill="#D1ECF9"/><path d="M9.15 7.38c.04-.03.1-.05.15-.05h1.26l.03.01.03.02.01.02v.03l-1.11.95-.87.7c-.04.04-.04.07 0 .1l1.34 1.08c.07.06.06.09-.03.1H8.64a.34.34 0 0 1-.21-.07l-.63-.6c-.07-.05-.1-.04-.1.02v.58c0 .04-.04.06-.08.06h-.86V7.46c0-.03.03-.06.05-.08v-.01a.13.13 0 0 1 .1-.04h.66c.1 0 .14.05.14.13v1.1c0 .03.01.04.05.02l1.4-1.2Zm-7.1.14c-.09-.11-.06-.18.1-.19H3a.4.4 0 0 1 .34.17l.91 1.2a.05.05 0 0 0 .04.01h.02l.02-.02.52-.66.44-.57a.3.3 0 0 1 .25-.13h.96l.04.02a.1.1 0 0 1 .04.04.09.09 0 0 1 0 .1l-.54.69-1.18 1.5c-.02.02-.02.06-.02.1v.45c0 .07-.05.1-.12.1h-.72c-.1 0-.11-.04-.1-.12v-.4c0-.03-.02-.06-.05-.1L2.05 7.52Zm9.59-.19h1.29L11.89 8.6h-.02a.03.03 0 0 1-.03 0v-.02c0-.42-.08-.83-.25-1.24h.05Zm.8 1 .77-1h1.55c.02 0 .12.15.11.19a.1.1 0 0 1-.01.05l-.5.74c-.02.03-.04.02-.07.02h-1.85Zm-.98-.89c.18.48.2.88.18 1.28 0 .21-.06.28-.12.34a.64.64 0 0 0-.05.05l-.06.07-.16.2c-.62-.68-.52-1.42.2-1.94Zm-.13 2.9.2-.34h2.17c.12 0 .2-.14.22-.26-.03-.15-.1-.22-.24-.22h-2c.07-.35.28-.67.63-.95h1.23c.4 0 .68.06.85.15.54.31.8 1.01.45 1.57a.1.1 0 0 1-.03.03.1.1 0 0 1-.05.01h-3.43Z" fill="url(#b)"/><path d="M7.8 11h-.87c-.08 0-.13-.04-.15-.14v-.05c-.02-.09 0-.14.06-.14h.67c.3 0 .3.01.3.33ZM4.76 10.67H4c-.05 0-.09.05-.09.12v.09c0 .06.04.12.1.12h.76c.05 0 .1-.06.1-.12v-.09c0-.07-.05-.12-.1-.12ZM10.08 10.67l-.34.3c-.31.08-.58 0-.76-.24-.03-.04-.02-.06.04-.06h1.06ZM10.7 10.8l.07.08c.01.04-.03.08-.12.12-.1-.02-.23-.03-.37-.02-.04 0-.07 0-.09-.04-.02-.03-.02-.06 0-.1l.18-.17c.15 0 .26.05.32.13ZM10.93 10.73a.18.18 0 0 0 .05-.06h3.4c.12 0 .13.04.03.12-.18.12-.38.2-.63.2h-2.72c-.07 0-.11-.01-.13-.05-.03-.05-.03-.12 0-.21Z" fill="#013F97"/><defs><linearGradient id="a" x1="9.22" y1="5.48" x2="10.79" y2="10.21" gradientUnits="userSpaceOnUse"><stop stop-color="#FBF3CE"/><stop offset="1" stop-color="#E9BF4A"/></linearGradient><linearGradient id="b" x1="9.14" y1="7.25" x2="9.28" y2="10.49" gradientUnits="userSpaceOnUse"><stop stop-color="#0195DD"/><stop offset="1" stop-color="#1159A8"/></linearGradient></defs></svg>