<!-- by TradingView --><svg width="18" height="18" viewBox="0 0 18 18" xmlns="http://www.w3.org/2000/svg"><path fill="#F0F3FA" d="M0 0h18v18H0z"/><path d="M13.08 4.54a.17.17 0 0 0-.07-.19c-1.66-1.27-4.88-2.02-7.13-.51a.43.43 0 0 0-.11.27c-.07 1.6.38 3 1.36 4.22.11.14.23.14.34.01a20.16 20.16 0 0 1 2.44-2.32 7.14 7.14 0 0 1 3.03-1.34.16.16 0 0 0 .14-.14ZM6.06 7.97a5.87 5.87 0 0 1-1.2-2.95c-.02-.1-.07-.17-.16-.2a.2.2 0 0 0-.24.08c-1.7 2.34-1.92 4.7-.63 7.1.05.1.12.15.23.16 1.56.2 3.01-.23 4.34-1.3.16-.12.16-.25.02-.39a19.92 19.92 0 0 1-2.36-2.5Zm7.03 4.37a6.72 6.72 0 0 0-1.63-3.1L9.59 7.35c-.1-.1-.1-.19 0-.28a5.83 5.83 0 0 1 4.18-1.41c.25 0 .45.2.61.56a6.35 6.35 0 0 1-.82 6.76.18.18 0 0 1-.2.07.18.18 0 0 1-.13-.15l-.14-.56Zm-8.1 1.14a6.12 6.12 0 0 0 7.08.7.3.3 0 0 0 .18-.26c.1-1.66-.34-3.1-1.33-4.33-.14-.17-.28-.17-.42-.02a17.14 17.14 0 0 1-2.42 2.32 7.25 7.25 0 0 1-3.03 1.33c-.06 0-.1.04-.12.1-.01.07 0 .12.05.16Z" fill="#173883"/></svg>