<!-- by TradingView --><svg width="18" height="18" viewBox="0 0 18 18" xmlns="http://www.w3.org/2000/svg"><path fill="#F0F3FA" d="M0 0h18v18H0z"/><path d="M5 7a4.07 4.07 0 0 1 3.92-2.33c.36-.1 1.08-.42 1.08-.95 0-.67-.54-.72-.73-.72a.92.92 0 0 0-.27.03A6.26 6.26 0 0 0 5 7Z" fill="url(#a)"/><path d="M13 11a4.48 4.48 0 0 1-3.73 2.4c-.35.1-1.27.47-1.27.95 0 .6.53.65.71.65.15 0 .24-.02.27-.03 2.58-.83 3.85-2.89 4.02-3.97Z" fill="url(#b)"/><path fill-rule="evenodd" d="M9 13a4 4 0 1 0 0-8 4 4 0 0 0 0 8Zm0-1.23a2.77 2.77 0 1 0 0-5.54 2.77 2.77 0 0 0 0 5.54Z" fill="url(#c)"/><path d="M5.75 11.34a.66.66 0 0 1 .21-.87c.2-.15.44-.15.64-.08a2.77 2.77 0 0 1 1.94-4.12h-.18c-.55 0-2.46.29-3.34 3.13.07.72.33 1.38.73 1.94Z" fill="#AE381B"/><path fill-rule="evenodd" d="M9 11a2 2 0 1 0 0-4 2 2 0 0 0 0 4Zm0-.57a1.43 1.43 0 1 0 0-2.86 1.43 1.43 0 0 0 0 2.86Z" fill="url(#d)"/><path d="M7.39 10.18a.33.33 0 0 1 .1-.45.32.32 0 0 1 .25-.06 1.42 1.42 0 0 1 .89-2.05c-.33.02-1.2.22-1.62 1.57.03.37.17.7.38 1Z" fill="#AE381B"/><defs><linearGradient id="a" x1="10" y1="5" x2="5" y2="5" gradientUnits="userSpaceOnUse"><stop stop-color="#FF6722"/><stop offset="1" stop-color="#FFA02A"/></linearGradient><linearGradient id="b" x1="13" y1="13" x2="8" y2="13" gradientUnits="userSpaceOnUse"><stop stop-color="#C6B631"/><stop offset="1" stop-color="#39AB21"/></linearGradient><linearGradient id="c" x1="10.48" y1="12.52" x2="6.92" y2="5.72" gradientUnits="userSpaceOnUse"><stop offset=".59" stop-color="#F14B23"/><stop offset="1" stop-color="#FFAB2B"/></linearGradient><linearGradient id="d" x1="9.74" y1="10.76" x2="7.95" y2="7.35" gradientUnits="userSpaceOnUse"><stop offset=".59" stop-color="#F14B23"/><stop offset="1" stop-color="#FFAB2B"/></linearGradient></defs></svg>