<!-- by TradingView --><svg width="18" height="18" viewBox="0 0 18 18" xmlns="http://www.w3.org/2000/svg"><path fill="#F0F3FA" d="M0 0h18v18H0z"/><path d="M14 9A5 5 0 1 1 4 9a5 5 0 0 1 10 0Z" fill="url(#amzznw4bu)"/><path fill-rule="evenodd" d="M9 13.86a4.86 4.86 0 1 0 0-9.72 4.86 4.86 0 0 0 0 9.72ZM9 14A5 5 0 1 0 9 4a5 5 0 0 0 0 10Z" fill="url(#bmzznw4bu)"/><path d="m9.85 6.81.1.01c.02 0 .03.02.04.05-.1.17-.2.34-.28.52l-.11.19-.4.72-.46.87c-.11.2-.22.42-.35.62a3.19 3.19 0 0 1-.27.36l.01.01.07.03a.1.1 0 0 0 .03.04c.34.14.64.2 1 .15l.12-.03c.52-.27.76-.67 1.08-1.14l1.02-1.9a.12.12 0 0 0 .05-.1V7.2l-.6.01a8.65 8.65 0 0 1-.1-.03.07.07 0 0 1-.02-.05l.05-.1.13-.2h.02c0-.01 0-.02.02-.02h2.06c.02 0 .03.03.03.06l-.43.82-.14.24c-.07.16-.17.33-.28.54l-.46.85-.22.43a2.78 2.78 0 0 1-1.65 1.39c-.35.11-.78.14-1.14.05-.28-.07-.5-.16-.67-.25a13.3 13.3 0 0 1-.55-.32h-.02a2.94 2.94 0 0 1-1.88.47 1.7 1.7 0 0 1-.88-.3.67.67 0 0 1-.18-.17.87.87 0 0 1-.14-.28.58.58 0 0 1 .16-.58c.1-.1.24-.18.4-.25.19-.08.37-.12.56-.13a5.36 5.36 0 0 1 .54.02l.48.1.2.1.35.14a.06.06 0 0 0 .07-.03c.04-.09.12-.16.16-.25l.13-.26a.35.35 0 0 0 .07-.1.01.01 0 0 0 0-.01.93.93 0 0 1-1.53-.04c-.1-.06-.16-.13-.16-.24v-.14c0-.07.02-.15.06-.23.13-.27.26-.5.4-.75l.17-.35c0-.02.02-.04.05-.07.02-.02.03-.04.01-.06l-.02-.01H5.95v-.02l.13-.28c.02-.04.06-.08.1-.09h1.7c.02 0 .03.02.03.05l-.55 1.03-.22.4a.6.6 0 0 0-.06.32c0 .05.03.1.08.12.11.02.22 0 .33-.03.14-.04.26-.11.37-.21.1-.09.14-.19.2-.3.04-.05.07-.11.1-.18l.2-.34a9.83 9.83 0 0 1 .23-.46h-.51l-.03-.01v-.03l.01-.04a9.77 9.77 0 0 1 .22-.32h1.57Z" fill="#fff"/><path d="M7.16 8.73c-.05-.03-.08-.07-.08-.12a.6.6 0 0 1 .06-.33l.22-.39c.18-.35.36-.7.55-1.03.03-.03.05-.02.08 0 0 .03.01.05 0 .07a73.56 73.56 0 0 0-.44.81c-.11.2-.23.4-.33.62-.05.09-.07.19-.06.3v.02c.02.02.02.04 0 .05ZM8.2 10.2l-.07-.04a.02.02 0 0 1 0-.03l.26-.34c.13-.2.24-.42.35-.62.16-.29.3-.58.47-.87l.39-.72.1-.2a12.23 12.23 0 0 1 .32-.54l.03.01a.1.1 0 0 1 .02.05v.02c-.05.07-.07.15-.11.23-.1.15-.18.32-.27.48a4.5 4.5 0 0 0-.23.44c-.07.1-.12.21-.18.32l-.18.32a3.2 3.2 0 0 0-.22.43 13.1 13.1 0 0 0-.45.78c-.06.09-.12.16-.2.22a.05.05 0 0 0 0 .04l-.02.01H8.2Z" fill="#684638"/><path d="M9.97 11.22c-.14.03-.3.07-.43.08-.33.04-.94.01-1.23-.2l-.65-.4h-.02a3.17 3.17 0 0 1-1.3.45l-.27.03c-.2 0-.39 0-.57-.03l-.25-.06a1 1 0 0 1-.25-.12.02.02 0 0 1 0-.02h.04c.2.08.4.13.61.14l.36.01a2.94 2.94 0 0 0 1.54-.48c.03 0 .05.02.07.03l.48.29c.55.3 1.22.39 1.82.2.5-.17.93-.44 1.27-.83.62-.98 1.3-2.33 1.9-3.44.03-.03.05-.04.07-.02.02.03.02.07 0 .1a5.76 5.76 0 0 1-.28.55c-.39.88-.95 1.8-1.45 2.68-.32.45-.9.91-1.46 1.04ZM11.45 7.31c-.02.02-.03 0-.04-.01l-.01-.01h-.62v-.05c0-.02.01-.02.03-.02h.1l.58-.02.01.01c0 .04-.01.08-.05.1ZM6.03 9.04c.13.08.27.12.42.13l.34.01a3.37 3.37 0 0 0 .78-.1.01.01 0 0 1 0 .02.35.35 0 0 1-.07.1l-.2.01-.2.03c-.21.03-.43.04-.65 0a.97.97 0 0 1-.43-.18l.01-.02Z" fill="#684638"/><path d="M6.81 10.2a.14.14 0 0 0-.06-.09 4.49 4.49 0 0 0-.38-.2c-.2-.06-.4-.1-.62-.12-.15 0-.3.01-.45.05a.53.53 0 0 0-.18.1c-.09.07-.15.23-.1.35l.01.02.01.01c0 .01 0 .02-.03.02-.1-.1-.12-.2-.07-.33.1-.22.35-.29.57-.3a1.93 1.93 0 0 1 1.34.46l-.04.03Z" fill="#684638"/><path d="M6.81 10.2a2.02 2.02 0 0 1-.68.3c-.19.03-.4.03-.59.02a1.18 1.18 0 0 1-.43-.13 3.04 3.04 0 0 0-.1-.05c.02 0 .03 0 .03-.02v-.01l-.02-.02c-.05-.12.01-.28.1-.35a.53.53 0 0 1 .18-.1c.14-.04.3-.06.45-.05a2.56 2.56 0 0 1 .72.17l.28.15c.03.02.05.05.06.09Z" fill="#CEA582"/><defs><linearGradient id="amzznw4bu" x1="4.61" y1="8.61" x2="13.38" y2="10.53" gradientUnits="userSpaceOnUse"><stop offset=".32" stop-color="#CEA582"/><stop offset=".56" stop-color="#E9CEB1"/><stop offset=".82" stop-color="#CEA582"/></linearGradient><linearGradient id="bmzznw4bu" x1="9" y1="4" x2="9" y2="14" gradientUnits="userSpaceOnUse"><stop stop-color="#B78C7B"/><stop offset="1" stop-color="#8C624D"/></linearGradient></defs></svg>