<!-- by TradingView --><svg xmlns="http://www.w3.org/2000/svg" width="18" height="18"><path fill="#F0F3FA" d="M0 0h18v18H0z"/><path d="M8.26 4a8 8 0 01-.73 3.5H4.22A5.01 5.01 0 018.26 4zm1.47 0c.02 1.86.5 3.1.74 3.5h3.31A5.01 5.01 0 009.73 4zM14 9h-2.64c-.24 0-.24.13-.18.28l1.4 3.2A5.02 5.02 0 0014 9zm-2.68 4.43L9.72 9.5a.78.78 0 00-.7-.5c-.4 0-.65.27-.75.52l-1.6 3.9a4.96 4.96 0 004.66.02zm-5.84-.9l1.36-3.31c.08-.2-.1-.22-.17-.22H4c0 1.38.57 2.63 1.48 3.54z" fill="url(#aglkcyqhv)"/><defs><linearGradient id="aglkcyqhv" x1="9" y1="4" x2="9" y2="14" gradientUnits="userSpaceOnUse"><stop stop-color="#00479D"/><stop offset="1" stop-color="#019EE8"/></linearGradient></defs></svg>