<!-- by TradingView --><svg width="18" height="18" viewBox="0 0 18 18" xmlns="http://www.w3.org/2000/svg"><path fill="#F0F3FA" d="M0 0h18v18H0z"/><path d="m3 6.4.2-.4h1.78c.32 0 .62.16.8.43l1.26 1.76c.1.15.27.24.45.24h.09l.94-1.86c.17-.35.53-.57.92-.57H15l-.56 1.12a.67.67 0 0 1-.6.38h-3.28l-.5 1h3.67l-.72 1.61a.6.6 0 0 1-.55.34H9.2l-.52 1.05h3.54l-.5 1.16a.6.6 0 0 1-.54.34H6.07a.4.4 0 0 1-.37-.57l1-1.93h-.4a.47.47 0 0 1-.4-.2L3.4 6.54a.34.34 0 0 0-.28-.15H3Z" fill="url(#alb1g1uuy)"/><defs><linearGradient id="alb1g1uuy" x1="15" y1="6" x2="3" y2="6" gradientUnits="userSpaceOnUse"><stop stop-color="#F56804"/><stop offset="1" stop-color="#FA9B00"/></linearGradient></defs></svg>