<!-- by TradingView --><svg width="18" height="18" viewBox="0 0 18 18" xmlns="http://www.w3.org/2000/svg"><path fill="#F0F3FA" d="M0 0h18v18H0z"/><path d="M8.93 4c.23 0 .38.02.58.04l.2.02c.53.05 1.94.47 1.83 1.1-.06.32-.22.62-.48.9a7.1 7.1 0 0 1-.84.78c-.33.26-.69.72-.51 1.1.15.34.47.48.82.64l.42.2c.2.12.23.26.11.44-.11.18-.18.3-.2.37-.15.43.28.62.65.8l.1.04c.2.1.22.2.08.35l-.07.07c-.2.2-.35.36-.28.65.05.18.21.3.38.44.24.2.48.39.38.73-.32 1.1-2.09 1.33-3.17 1.33-1.09 0-2.86-.23-3.18-1.33-.1-.34.15-.54.38-.73.17-.13.33-.26.38-.44.07-.29-.08-.44-.28-.65a9.04 9.04 0 0 1-.07-.07c-.13-.14-.11-.26.07-.35l.12-.05c.36-.17.8-.36.65-.79-.02-.07-.1-.19-.21-.37-.12-.18-.08-.32.1-.43l.43-.21c.35-.16.67-.3.82-.63.18-.4-.17-.85-.5-1.1-.33-.26-.6-.52-.85-.79a1.84 1.84 0 0 1-.48-.9c-.11-.63 1.3-1.05 1.83-1.1l.2-.02c.2-.02.35-.04.59-.04Zm3.05 1.82c-.01.25.21.46.5.47.28 0 .51-.2.52-.44 0-.26-.21-.47-.5-.47-.28 0-.52.19-.52.44Zm-6.29.45a.9.9 0 0 0 .03-.78c-.03-.05-.07-.07-.13-.06a.77.77 0 0 0-.54.3c-.04.05-.06.1-.05.15.06.25.38.37.65.4h.03l.01-.01Z" fill="#00A0E4"/></svg>