<!-- by TradingView --><svg width="18" height="18" viewBox="0 0 18 18" xmlns="http://www.w3.org/2000/svg"><path fill="#00387F" d="M0 0h18v18H0z"/><path d="M4.92 9h.31v-.87L6.15 7h-.37l-.7.85L4.4 7H4l.92 1.13V9Zm1.54-2v2h.3v-.86h1.09v-.28H6.77v-.57H8V7H6.46Z" fill="#fff"/><path d="M10 5H6.5L10 8.5V5Z" fill="#99999A"/><path fill-rule="evenodd" d="M4 12V9.5h1.57v.31H4.31v.63h1.1v.31h-1.1V12H4Zm1.57-1.56h.22V12h-.22v-1.56Zm6.65 0H12V12h.22v-1.56Zm2.02 0H14V12h1v-.2h-.76v-1.36ZM6.2 12v-1.56h.23l.8 1.19v-1.2h.23V12h-.23l-.81-1.2V12H6.2ZM9 10.44V12h.21v-1.2l.78 1.2h.21v-1.56H10v1.19l-.78-1.2H9ZM7.56 12l.58-1.56h.2L8.94 12h-.2l-.17-.44h-.64l-.16.44h-.2Zm.68-1.3.25.68H8l.25-.67Zm4.85-.26L12.5 12h.2l.16-.44h.64l.17.44h.2l-.58-1.56h-.21Zm.35.94-.25-.67-.25.66h.5Zm-2.19-.94c.27 0 .5.2.6.47h-.2c-.1-.19-.2-.25-.4-.25-.28 0-.43.22-.43.56 0 .34.15.56.43.56.2 0 .31-.08.4-.27h.2c-.09.29-.32.49-.6.49-.36 0-.65-.35-.65-.78 0-.43.3-.78.65-.78Z" fill="#fff"/></svg>