<!-- by TradingView --><svg width="18" height="18" viewBox="0 0 18 18" xmlns="http://www.w3.org/2000/svg"><path fill="#F0F3FA" d="M0 0h18v18H0z"/><path d="M7.93 10.35c-.09.4.15.66.55.71.03 0 .03.06.04.09.05.21.25.24.46.24H9c.21 0 .4-.03.46-.24.01-.03 0-.08.04-.09.4-.05.64-.3.56-.71a.37.37 0 0 0-.19-.26.03.03 0 0 0-.02 0c-.27.15-.55.22-.84.23h-.03a1.72 1.72 0 0 1-.86-.24.37.37 0 0 0-.2.27Z" fill="#F87722"/><path d="M7.21 7.14a.65.65 0 0 0-.3 0 .02.02 0 0 1-.01-.01.74.74 0 0 0-.27-.49l-.01-.02c.04-.33-.14-.59-.42-.74a.01.01 0 0 1-.01-.01c.44-.38.92-.34 1.31.06l.01.01h.01c.15-.02.29-.01.41.07.01 0 .02.01.01.02a.98.98 0 0 0 0 .5.01.01 0 0 1-.01 0c-.25-.05-.52.06-.57.32l-.04.07a.52.52 0 0 0-.1.21Z" fill="#852127"/><path d="m6.13 8.95-.07-.04a.04.04 0 0 1-.01-.05c.06-.36-.14-.68-.48-.81a.05.05 0 0 1-.03-.03c-.09-.32-.21-.75-.62-.8a.59.59 0 0 0-.26.04v-.01c.16-.48.56-.66 1.04-.52h.02c.2-.16.47-.19.7-.08.19.1.3.26.35.48 0 .02.01.05-.02.06-.16.1-.28.27-.25.46 0 .04.03.08.03.11-.05.2.01.4.2.5v.01a.35.35 0 0 0-.2.2.02.02 0 0 1-.01.02c-.23.06-.4.21-.37.45 0 .02 0 .02-.02.01Z" fill="#B71922"/><path d="M7.96 6.67c.02 0 .03.02.04.03a1.24 1.24 0 0 0 .25.36.03.03 0 0 1 0 .02l-.01.01a2.48 2.48 0 0 0-.58.47.47.47 0 0 0-.14-.13.54.54 0 0 1-.11-.1c-.11-.11-.05-.27.05-.39l.01-.02c0-.09.03-.15.1-.2.1-.09.23-.1.39-.05Z" fill="#F87722"/><path d="M7.58 7.68a1.47 1.47 0 0 0-.3.63.02.02 0 0 1-.02 0 .68.68 0 0 0-.34-.12c-.25-.02-.32-.22-.26-.44v-.03c-.09-.15 0-.33.14-.41a.54.54 0 0 1 .39-.06l.04.02v.01a.4.4 0 0 0 .17.21c.07.04.13.1.18.15a.03.03 0 0 1 0 .04Z" fill="#00948C"/><path d="M5.9 8.93a.01.01 0 0 0 0 .01l.3.22c.05.02.07.07.07.12 0 .21.12.4.33.45v.01l.01.02-.02.13c0 .03 0 .06-.02.09a.5.5 0 0 0-.04.27.02.02 0 0 1-.01.01H6.5l-.35-.04-.01-.02a.7.7 0 0 0-.9-.46.05.05 0 0 1-.05 0c-.23-.18-.47-.37-.76-.43-.14-.02-.32 0-.4.12a.01.01 0 0 1-.02 0c-.03-.17-.02-.31 0-.43.1-.33.39-.47.71-.51l.02-.01a.63.63 0 0 1 .85-.29c.27.14.39.44.3.74Z" fill="#EF001F"/><path d="M7.62 9.63A1.41 1.41 0 0 0 7 9.62c-.16.03-.32.05-.46-.04-.12-.07-.16-.2-.15-.34 0-.02 0-.04-.02-.06-.12-.17-.18-.41.05-.53a.6.6 0 0 1 .2-.06l.01-.02c0-.24.32-.25.48-.2.05.02.1.05.13.09a.03.03 0 0 1 .01.02 1.76 1.76 0 0 0 .37 1.15h-.01Z" fill="#00519F"/><path d="M6.72 9.94a1.29 1.29 0 0 1 .02-.18h.01c.1 0 .18 0 .27-.02.23-.05.48-.03.73.05l.09.05a1.22 1.22 0 0 0 .16.14.02.02 0 0 1 0 .02c-.21.16-.24.47-.17.7a.02.02 0 0 1-.01.02c-.22.13-.47.07-.67-.07h-.02c-.34-.02-.55-.26-.46-.6.01-.03.05-.07.05-.11Z" fill="#005927"/><path d="M6.07 10.32a4.35 4.35 0 0 0 .5.09c.08.2.26.32.49.35.03 0 .05 0 .08.02.11.08.24.12.38.13.04 0 .04.02 0 .03a3.76 3.76 0 0 1-.57.21.7.7 0 0 0-.54-.24.72.72 0 0 0-.6.36h-.03a4.9 4.9 0 0 0-.35-.04c-.27-.02-.62.02-.73.3h-.02c-.16-.2-.24-.45-.14-.69a.97.97 0 0 1 .34-.4l.01-.02a.58.58 0 0 1 1.15-.12c0 .01.01.02.03.02Z" fill="#EC0152"/><path d="M6.94 11.3a3.6 3.6 0 0 0 .97-.43l.01.01c.09.1.2.18.34.24l.14.04.01.02a.5.5 0 0 0 .12.2.03.03 0 0 1 0 .03 1.14 1.14 0 0 1-.2.28H8.3a.69.69 0 0 0-.99.59v.02l-.02.01-.44.15c-.23.09-.47.24-.54.47a.47.47 0 0 0-.02.2c-.37-.2-.57-.5-.46-.93.02-.09.05-.17.1-.24a.04.04 0 0 0 0-.05.56.56 0 0 1 .12-.75.59.59 0 0 1 .85.13l.03.01Z" fill="#00803E"/><path d="M8.36 11.83c.1-.09.2-.2.27-.34.01-.02.02-.02.03-.01.07.04.17.07.3.08v.01c-.01.16-.04.33-.09.5-.06.21-.17.43-.34.58a.89.89 0 0 1-.45.19.58.58 0 0 1-.43-.12.54.54 0 0 1-.16-.64c.05-.11.11-.19.2-.24.2-.14.41-.14.64 0h.03Z" fill="#00519F"/><path d="M10.79 7.14a.65.65 0 0 1 .3 0 .02.02 0 0 0 .01-.01c.03-.2.12-.36.27-.49l.01-.02c-.04-.33.14-.59.42-.74h.01v-.01c-.44-.38-.92-.34-1.31.06a.02.02 0 0 1-.02.01c-.15-.02-.29-.01-.41.07-.01 0-.02.01-.01.02a.98.98 0 0 1 0 .5h.01c.25-.05.52.06.57.32l.04.07a.52.52 0 0 1 .1.21Z" fill="#852127"/><path d="m11.87 8.95.07-.05a.04.04 0 0 0 .02-.04c-.07-.36.13-.68.47-.81a.05.05 0 0 0 .03-.03c.09-.32.21-.75.62-.8a.59.59 0 0 1 .26.04v-.02c-.16-.47-.56-.65-1.04-.5l-.02-.01a.66.66 0 0 0-.7-.08c-.19.1-.3.26-.35.48 0 .02-.01.05.01.06.17.1.29.27.26.46 0 .04-.03.08-.03.11.05.2-.01.4-.2.5v.01c.1.04.16.11.2.2a.02.02 0 0 0 .01.02c.23.06.4.21.37.45 0 .02 0 .02.02.01Z" fill="#B71922"/><path d="M10.04 6.67a.06.06 0 0 0-.04.03 1.24 1.24 0 0 1-.25.36.03.03 0 0 0 0 .02l.01.01a2.48 2.48 0 0 1 .58.47c.05-.06.09-.1.14-.13a.54.54 0 0 0 .11-.1c.11-.11.05-.27-.05-.39l-.01-.02a.25.25 0 0 0-.1-.2c-.1-.09-.23-.1-.39-.05Z" fill="#F87722"/><path d="M10.42 7.68a1.47 1.47 0 0 1 .3.63h.01a.68.68 0 0 1 .35-.12c.25-.02.32-.22.26-.44v-.03c.09-.15 0-.33-.14-.41a.54.54 0 0 0-.39-.06l-.04.02v.01a.4.4 0 0 1-.17.21.73.73 0 0 0-.18.15v.04Z" fill="#00948C"/><path d="M12.1 8.93v.01l-.3.22c-.05.02-.07.07-.07.12 0 .21-.12.4-.33.45a.02.02 0 0 0-.01.03l.02.13c0 .03 0 .06.02.09a.5.5 0 0 1 .04.27.02.02 0 0 0 .01.01h.01l.35-.04a.02.02 0 0 0 .01-.02.7.7 0 0 1 .9-.46.05.05 0 0 0 .05 0c.23-.18.47-.37.76-.43.14-.02.32 0 .4.12a.01.01 0 0 0 .02 0c.03-.17.02-.31 0-.43-.1-.33-.39-.47-.71-.51l-.02-.01a.63.63 0 0 0-.85-.29c-.27.14-.39.44-.3.74Z" fill="#EF001F"/><path d="M10.38 9.63c.22-.05.43-.05.61-.01.16.03.32.05.46-.04.12-.07.16-.2.15-.34 0-.02 0-.04.02-.06.12-.17.18-.41-.05-.53a.6.6 0 0 0-.2-.06l-.01-.02c0-.24-.32-.25-.48-.2a.33.33 0 0 0-.13.09l-.01.02a1.76 1.76 0 0 1-.37 1.15h.01Z" fill="#00519F"/><path d="M11.28 9.94a1.28 1.28 0 0 0-.02-.18h-.01c-.1 0-.18 0-.27-.02a1.42 1.42 0 0 0-.73.05.22.22 0 0 0-.09.05 1.23 1.23 0 0 1-.16.14.02.02 0 0 0 0 .02c.21.16.24.47.17.7v.02h.01c.22.13.47.07.67-.07h.02c.34-.02.55-.26.46-.6-.01-.03-.05-.07-.05-.11Z" fill="#005927"/><path d="M11.93 10.32a4.37 4.37 0 0 1-.5.09c-.08.2-.26.32-.49.35a.18.18 0 0 0-.08.02.85.85 0 0 1-.38.13c-.04 0-.04.02 0 .03a3.77 3.77 0 0 0 .57.21.7.7 0 0 1 .54-.24c.25 0 .48.15.6.36a.03.03 0 0 0 .03 0l.35-.04c.27-.02.62.02.73.3h.02c.16-.2.24-.45.14-.69a.97.97 0 0 0-.34-.4l-.01-.02a.58.58 0 0 0-1.15-.12c0 .01-.01.02-.03.02Z" fill="#EC0152"/><path d="M11.06 11.3a3.6 3.6 0 0 1-.97-.43l-.01.01c-.09.1-.2.18-.34.24l-.14.04-.01.02a.5.5 0 0 1-.12.2.03.03 0 0 0 0 .03 1.14 1.14 0 0 0 .2.28h.02c.45-.21.97.1.99.59a.03.03 0 0 0 .02.03l.44.15c.23.09.47.24.54.47a.47.47 0 0 1 .02.2c.37-.2.57-.5.46-.93a1.02 1.02 0 0 0-.1-.24v-.05a.56.56 0 0 0-.12-.75.59.59 0 0 0-.85.13l-.03.01Z" fill="#00803E"/><path d="M9.65 11.83c-.11-.09-.2-.2-.28-.34 0-.02-.02-.02-.03-.01a.65.65 0 0 1-.29.08l-.01.01c.01.16.04.33.1.5.06.21.16.43.34.58.11.1.26.16.44.19.15.02.32-.03.43-.12a.54.54 0 0 0 .16-.64.54.54 0 0 0-.2-.24c-.2-.14-.41-.14-.64 0h-.02Z" fill="#00519F"/><path d="M8.98 12.3a1.04 1.04 0 0 1-.86.75c0 .13.03.24.08.33.07.1.2.2.32.26l.31.17c.08.04.13.09.15.15.02.06.03.04.04 0 .02-.06.07-.11.15-.15l.31-.17a.89.89 0 0 0 .32-.26.6.6 0 0 0 .08-.32v-.01h-.01a1.04 1.04 0 0 1-.85-.75c-.01-.05-.03-.05-.04 0Z" fill="#005927"/><path d="M9.5 3.5a.5.5 0 1 1-1 0 .5.5 0 0 1 1 0Z" fill="#E70012"/><path d="M8.52 7.12c-.2-.14-.48-.47-.48-.86 0-.41.24-.65.47-.86.17-.17.33-.32.33-.53a.6.6 0 0 0-.12-.37c.12-.02.39.04.48.37.08.27.25.44.4.61.2.2.39.4.39.73 0 .56-.32.8-.55.9a1.57 1.57 0 0 1-.45 3.08 1.57 1.57 0 0 1-.48-3.07Z" fill="#006428"/></svg>