<!-- by TradingView --><svg width="18" height="18" viewBox="0 0 18 18" xmlns="http://www.w3.org/2000/svg"><path fill="url(#arr3ah10p)" d="M0 0h18v18H0z"/><path d="M8.6 4h.98c.1.07.18.14.2.23.02.08 0 .14-.07.18-.92.67-2.75.84-3.81.88-.2.01-.22-.04-.06-.17A5.88 5.88 0 0 1 8.6 4ZM4.84 6.4a.08.08 0 0 1-.05-.12l.4-.53c.05-.06.11-.09.19-.09h.09c1.73-.02 4.22-.05 5.59-.76.07-.04.1-.1.1-.2l-.02-.16.01-.05a.1.1 0 0 1 .09-.05.1.1 0 0 1 .05.01l1.25.86a.16.16 0 0 1 .06.16c0 .02 0 .04-.02.06-1.03 1.37-5.44 1.04-7.4.9l-.34-.03Zm-.51 1.17a19.08 19.08 0 0 0 7.61 1.49c2.22 0 2.5-.8 1.54-2.57-.03-.05-.06-.05-.09 0-.94 1.37-6.4.56-8.3.28l-.3-.04a.34.34 0 0 0-.22.04.33.33 0 0 0-.14.17l-.17.47c-.03.07 0 .13.07.16Zm-.1.4c2.1 1.33 7.18 3.58 9.66 2.4.03-.02.04-.01.03.02-.2 1.23-.97 2-2.27 2.09-2.83.17-5.76-1.62-7.58-3.6a.26.26 0 0 1-.07-.2l.08-.63a.1.1 0 0 1 .05-.08.1.1 0 0 1 .1 0Zm5.88 5.89a9.22 9.22 0 0 1-6.04-4.3.05.05 0 0 0-.06.01v.04a5.14 5.14 0 0 0 6.13 4.28v-.02l-.03-.01Z" fill="#F5F5F5"/><defs><linearGradient id="arr3ah10p" x1="3.35" y1="3.12" x2="21.9" y2="24.43" gradientUnits="userSpaceOnUse"><stop stop-color="#1A1E21"/><stop offset="1" stop-color="#06060A"/></linearGradient></defs></svg>