<!-- by TradingView --><svg width="18" height="18" viewBox="0 0 18 18" xmlns="http://www.w3.org/2000/svg"><path fill="#F0F3FA" d="M0 0h18v18H0z"/><path d="M7.89 7.65c-1.56.28-2.46 1.93-2.9 3.04l.27.16c.77-2.1 2.07-3 2.63-3.2Z" fill="url(#abdlpoxzy)"/><path d="M8.75 5.35c2.37 1.02 3.35 3.41 3.77 5.42h-.53c-.7-3.78-2.42-4.87-3.24-5.42Z" fill="url(#bbdlpoxzy)"/><path d="m8.61 5.24.01-.03c-.28-.61-1.02-.62-1.09-.6.79-.48 1.09.06 1.15.48.2-.48.15-1.04.13-1.09.32.5.24.89.05 1.15.3-.2.71-.25.9.5-.02-.06-.5-.56-1.04-.35l-.02.02.02.01H8.7c0 .66.55 1.04.6 1.05-.75.02-.76-.6-.65-1.02l-.2.13c-.38.39-.39 1.12-.37 1.19-.44-1.04.14-1.37.5-1.4-.58-.16-1.12.33-1.15.39.3-.87.86-.7 1.18-.43Zm-.55 2.38v-.01c.22-.3.62-.2.66-.17-.38-.38-.6-.13-.68.1-.07-.3.02-.6.04-.63-.23.23-.23.46-.15.63-.14-.16-.36-.24-.55.14.02-.03.34-.23.61-.04l.01.01v.01a.65.65 0 0 1-.44.49c.41.12.48-.22.47-.47.03.05.06.08.1.1.16.28.09.68.07.72.35-.5.07-.78-.13-.84.34-.01.58.34.6.38-.08-.53-.4-.51-.61-.42Z" fill="#1983BF"/><path d="M8.45 9.04c0 .55.37.94.55 1.07.17-.1.5-.47.5-1.07 0-.59-.33-.97-.5-1.09-.18.14-.55.55-.55 1.1Z" fill="url(#cbdlpoxzy)"/><path d="M8.97 10.15c-1.3.11-1.54-.94-1.5-1.48.22-.02.74-.02.97.08-.09.27-.1.93.53 1.4Z" fill="url(#dbdlpoxzy)"/><path d="M9.03 10.15c1.3.11 1.54-.94 1.5-1.48a2.62 2.62 0 0 0-.97.08c.09.27.1.93-.53 1.4Z" fill="url(#ebdlpoxzy)"/><path d="M7.47 9.3c-.07.01-.27.09-.47.28.23.48.94 1.27 1.88.68-1.03-.04-1.37-.66-1.41-.97Zm3.06 0c.07.01.27.09.47.28-.23.48-.94 1.27-1.88.68 1.03-.04 1.37-.66 1.41-.97Z" fill="#1983BF"/><path d="M8.06 8.57c.1.02.3.06.38.1.04-.1.13-.31.19-.4a.85.85 0 0 0-.35-.16c-.06.08-.19.27-.22.46Zm1.88 0c-.1.02-.3.06-.38.1a3.1 3.1 0 0 0-.19-.4.85.85 0 0 1 .36-.16c.06.08.18.27.21.46Z" fill="#21499F"/><path d="M3.77 10.28c-.48 0-.71.27-.77.4.05-.1.3.52.69.86.43.38.64.41 1.18.41.55 0 .73-.4 1.22-.4.5 0 .53.45 1.1.45.57 0 .65-.46 1.23-.46s.71.46 1.2.46c.48 0 .61-.46 1.17-.46.56 0 .57.46 1.07.46.5 0 .99-.48 1.4-.48.4 0 .56.44 1.1.44.44 0 .6-1.41.64-1.54-.03.1-.2.28-.64.28-.56 0-.48-.46-1.04-.46s-1.08.46-1.46.46c-.38 0-.5-.43-1.02-.43-.53 0-.86.43-1.22.43s-.74-.42-1.16-.42c-.41 0-.84.45-1.25.45-.41 0-.56-.45-1.1-.45-.52 0-.76.4-1.24.4s-.5-.4-1.1-.4Z" fill="#21499F" fill-opacity=".8"/><defs><linearGradient id="abdlpoxzy" x1="7.58" y1="7.88" x2="4.75" y2="9.68" gradientUnits="userSpaceOnUse"><stop stop-color="#439CC6"/><stop offset=".3" stop-color="#67ADCF"/><stop offset=".37" stop-color="#11A7DF"/><stop offset="1" stop-color="#0D77BB"/></linearGradient><linearGradient id="bbdlpoxzy" x1="9.17" y1="5.84" x2="13.46" y2="9.48" gradientUnits="userSpaceOnUse"><stop stop-color="#439CC6"/><stop offset=".3" stop-color="#67ADCF"/><stop offset=".37" stop-color="#11A7DF"/><stop offset="1" stop-color="#0D77BB"/></linearGradient><linearGradient id="cbdlpoxzy" x1="8.41" y1="9.06" x2="9.65" y2="9.06" gradientUnits="userSpaceOnUse"><stop stop-color="#83D0EE"/><stop offset="1" stop-color="#48ACDE"/></linearGradient><linearGradient id="dbdlpoxzy" x1="8.45" y1="9.27" x2="7.5" y2="9.23" gradientUnits="userSpaceOnUse"><stop stop-color="#1A61AC"/><stop offset=".7" stop-color="#10A1DB"/></linearGradient><linearGradient id="ebdlpoxzy" x1="9.33" y1="9.82" x2="10.53" y2="9.3" gradientUnits="userSpaceOnUse"><stop stop-color="#1595D2"/><stop offset="1" stop-color="#1F62A9"/></linearGradient></defs></svg>