<!-- by TradingView --><svg width="18" height="18" viewBox="0 0 18 18" xmlns="http://www.w3.org/2000/svg"><path fill="#037" d="M0 0h18v18H0z"/><path fill-rule="evenodd" d="M9 4a4.3 4.3 0 0 1 3.68 2.4c.78 1.43 1.14 3.35.46 4.89a4.52 4.52 0 0 1-8.28 0c-.69-1.54-.32-3.46.46-4.9A4.3 4.3 0 0 1 9 4Zm0 .94c.9 0 1.68.39 2.35 1.16 1.04 1.2 1.65 3.35.95 4.86a3.63 3.63 0 0 1-6.6 0C5 9.45 5.61 7.3 6.65 6.1A3.03 3.03 0 0 1 9 4.94ZM8.97 6.8c1.56-.02 3 .9 3.03 2.62.02 1.71-1.4 2.67-2.97 2.7-1.55.02-3-.9-3.03-2.62-.02-1.72 1.4-2.68 2.97-2.7ZM7.5 9.47c0 1.3.67 2.34 1.5 2.34s1.5-1.05 1.5-2.34c0-1.3-.67-2.35-1.5-2.35S7.5 8.17 7.5 9.47Z" fill="#FFF100"/></svg>