<!-- by TradingView --><svg width="18" height="18" viewBox="0 0 18 18" xmlns="http://www.w3.org/2000/svg"><path fill="#F0F3FA" d="M0 0h18v18H0z"/><path d="m4.35 9.75.05-.02.07-.03c.14-.02.25-.08.38-.14a.34.34 0 0 1 .1-.04.57.57 0 0 0 .22-.07c.15-.1.29-.2.39-.37a.1.1 0 0 1 .06-.05c.07-.02.14.06.17.13l.05.1c.02.03.05.07.06.11.06.16.02.38-.04.53a.38.38 0 0 1-.16.21 8.65 8.65 0 0 1-.3.17h-.01l-.01.02c0 .05 0 .08.05.08l.08.01c.1 0 .2.02.25.14a.1.1 0 0 0 .05.06l.2.15a.2.2 0 0 1 .07.12c0 .05.01.11.03.16.04.1.02.22-.07.26l-.01.01-.1.03h-.17a.4.4 0 0 0-.11-.12l-.19-.1c-.1-.06-.16.01-.23.08l-.02.01-.2.21-.13.15a.6.6 0 0 1-.27.17.42.42 0 0 0-.2.1.21.21 0 0 1-.11.07h-.24c-.11 0-.22-.13-.27-.24l-.16-.32a.64.64 0 0 1-.06-.2.4.4 0 0 0-.04-.12.45.45 0 0 1-.03-.33 26.49 26.49 0 0 0 .18-.76l.01-.03a.39.39 0 0 0 .03-.18l-.01-.02-.02-.01a.21.21 0 0 1-.25-.17v-.1c.04-.22.17-.34.3-.48l.03-.03c.14-.13.17-.32.2-.51l.01-.03a68.31 68.31 0 0 1 .17-1.06v-.08c0-.1 0-.22.02-.33v-.18c0-.09.03-.15.09-.2.06-.05.12.01.18.07l.08.07c.1.03.17.1.22.17h.01c.1-.07.16-.14.16-.28v-.08c-.01-.17-.02-.32.12-.43.04-.03.07-.04.1-.02h.07c.06.01.11.01.14.08a.7.7 0 0 1 .04.07l.01.02.04.02c.14.01.22.09.24.27 0 .12-.03.22-.11.27-.07.05-.17.03-.27.01a.65.65 0 0 0-.13-.02c-.14 0-.33.1-.36.3v.02l.03.04h.02c.18.01.34.1.44.29v.02c-.01.17-.12.22-.24.21a.12.12 0 0 0-.1.04.13.13 0 0 1-.04.03l-.01.01-.01.02a.05.05 0 0 0 0 .03l.01.02.05.07.03.01c.06.04.13.07.15.15.04.14.04.35-.14.33h-.03c-.1-.01-.24-.02-.3.08l-.06.11a1.6 1.6 0 0 1-.04.09l-.02.03a.52.52 0 0 0-.07.18v.02a.1.1 0 0 0 .08-.02c.11-.09.22-.15.34-.2.13-.05.26-.08.4-.08a.1.1 0 0 1 .05 0v.03c.02.04.02.1 0 .13a.3.3 0 0 0-.06.15l-.02.08a.25.25 0 0 0 0 .09l-.01.06-.01.02c-.06.06-.1.1-.15.1l-.34.13c-.13.07-.36.25-.4.42v.01Zm.4-2.04.02-.04v-.02c-.04-.07-.09-.1-.15-.1l-.01.02c-.03.06-.1.32 0 .32l.01-.01a.35.35 0 0 1 .1-.12.19.19 0 0 0 .03-.05Zm-.21.54c-.02.02-.01.03 0 .05.02.02.03.02.03 0a.54.54 0 0 1 .15-.2l.01-.03v-.02H4.7A.43.43 0 0 1 4.62 8a.1.1 0 0 0-.04 0h-.01l-.03.07c-.02.03 0 .06 0 .1.01.02.02.05 0 .08Zm-.75.96-.02.04c-.02.02-.03.04-.01.08v.01c.06.02.1 0 .12-.03.03-.06.09-.24.02-.27h-.03l-.08.17Zm.67 1.14c-.08-.04-.18-.06-.24.04a.43.43 0 0 0-.06.24c0 .06 0 .1-.02.17a.48.48 0 0 0-.01.15c.01.2.22.14.35.12l.05-.01.1-.05a.63.63 0 0 0 .23-.25c.02-.04.01-.08-.02-.12a.84.84 0 0 0-.38-.3Zm7.43.53.02-.02c.08 0 .14.03.2.06l.07.03c.1.05.29-.17.35-.26.18-.25.32-.52.41-.81a1.12 1.12 0 0 0 .05-.26h-.01l-.2.1a.24.24 0 0 1-.23 0 .12.12 0 0 0-.14 0l-.07.05a.47.47 0 0 1-.19.1h-.03v-.02l.02-.01h.01v-.02c.09-.26.28-.44.46-.61l.02-.02a.5.5 0 0 0 .07-.1.86.86 0 0 1 .04-.05L12.8 9h.02l.02-.03.02-.02h.02l.14.01h.08l.32-.15.05-.01.05-.01c.04-.03.04-.06.02-.1l-.16-.37c-.02-.04-.01-.08 0-.12a.6.6 0 0 0 0-.03v-.03a.44.44 0 0 1-.05-.06l-.05-.06a.4.4 0 0 0-.24-.1h-.02a.19.19 0 0 1-.02-.04.16.16 0 0 0-.03-.03c-.1-.08-.15-.24-.19-.37v-.02c.33-.27.6-.58.77-.97a1.73 1.73 0 0 0 .15-.48l.01-.01h.03c.1.04.21.1.33.17.14.1.16.3.17.48v.02h.02l.29-.11c.04-.02.1-.04.17-.04a.2.2 0 0 0 .07-.02.33.33 0 0 1 .13-.02c.11 0 .23.02.33.06.14.06.22.18.25.34a.9.9 0 0 1 0 .4c0 .12-.03.22-.07.3-.04.09-.1.16-.14.24a3.8 3.8 0 0 0-.1.18c-.03.16-.1.33-.22.39h-.01a.02.02 0 0 0 0 .02l.01.02c.02.04.05.08.08.09.09.02.2.01.27-.02a.47.47 0 0 1 .23-.04h.01l.02.03.04.22c.02.08.07.14.13.2l.02.03c.11.12.12.3.08.47l-.02.11-.01.03-.03.02a.32.32 0 0 1-.1.03c-.12 0-.29.06-.31.22 0 .04 0 .07.03.08.1.02.2.08.28.18.05.06.09.14.1.24l.06.08c.08.07.13.19.15.34 0 .04-.01.08-.04.1a.33.33 0 0 1-.22.13l-.14.02c-.04 0-.07.03-.1.05-.05.03-.1.07-.15.05a.35.35 0 0 1-.18-.13.63.63 0 0 0-.28-.2l-.03-.02a.65.65 0 0 0-.11-.03.4.4 0 0 1-.19-.1c-.02 0-.01-.01 0-.01.02 0 .02-.01.03-.03.03-.18-.1-.2-.21-.2l-.01.02v.29l-.02.06v.06a2.54 2.54 0 0 1-.1 1.18h-.06c-.08.01-.16.02-.24-.02l-.12-.06-.16-.08-.53-.22-.19-.07a.45.45 0 0 0-.16-.04.34.34 0 0 0-.17.05l-.04.02c-.08.05-.19.12-.27.03-.1-.1-.22-.21-.35-.3-.05-.04-.1-.09-.09-.16a.97.97 0 0 0 0-.23v-.01c.02 0 .02 0 .02-.02Zm2.27-3.6h-.04l-.02.02v.26l-.01.04v.02h.02l.17.04.14.03c.1-.01.17-.13.2-.23l.1-.21c.03-.06.03-.1.03-.16v-.05h-.01a1.7 1.7 0 0 0-.25-.04.1.1 0 0 0-.07.02c-.1.08-.18.16-.24.25l-.02.01Zm-.5.83a.06.06 0 0 0 .01.07c.06.08.13.17.23.17.02 0 .03-.02.03-.04a2.54 2.54 0 0 0 .03-.25l-.03-.04-.01-.02c-.1-.05-.16-.03-.25.05v.06Zm.77.98.01.02v.02l.01.08v.1a2.63 2.63 0 0 1-.03.36v.01h.02l.05-.07a.85.85 0 0 0 .08-.1 10.78 10.78 0 0 0 .34-.41.76.76 0 0 0 .15-.29c.01-.04 0-.07-.04-.08a1.49 1.49 0 0 1-.3-.02c-.06.07-.11.13-.18.18l-.05.06-.01.02-.06.03-.02.02v.05l.03.02Zm-1.23 1.86-.02.03a1.34 1.34 0 0 1-.2.3v.01H13a9.27 9.27 0 0 0 .47.14c.12.02.2-.03.27-.15.07-.15.1-.35.12-.54v-.1a4.48 4.48 0 0 0 0-.9 1.26 1.26 0 0 1-.03-.26v-.04c0-.14.02-.28-.02-.42V9h-.04l-.07.03c-.08.01-.05.26-.03.33a.6.6 0 0 1-.02.3l-.11.3a330.95 330.95 0 0 1-.33.99ZM2 9.74v.04l.09.23c.04.12.13.18.23.18s.18-.03.26-.09a.03.03 0 0 1 .03 0l.01.01v.02c.04.16 0 .35-.06.5l-.13.39c-.06.17-.12.3-.19.38-.04.05-.04.17 0 .22.02 0 .03.02.04.03v.03c0 .1 0 .2.04.28l.02.02a.1.1 0 0 0 .04.02c.1.01.2-.03.26-.11.06-.09.1-.2.13-.33l.05-.3a5.39 5.39 0 0 1 .15-.82 1 1 0 0 0 .02-.19A2.27 2.27 0 0 1 3 9.92h.01l.02-.02c.01-.08.04-.17.08-.27l.17-.4c.08-.2.14-.41.16-.62v-.17l-.02-.15-.01-.16a.9.9 0 0 1 .03-.4l.08-.33a.23.23 0 0 1 .08-.1c.09-.09.18-.16.28-.23l.02-.03c0-.05 0-.11-.02-.16a.44.44 0 0 1-.03-.09.65.65 0 0 0-.21-.42h-.02l-.05.01a2.1 2.1 0 0 1-.29.11.46.46 0 0 0-.18.11c-.1.1-.22.2-.34.26v.01c-.02.09.03.14.07.19.05.05.1.1.09.2-.02.21-.12.41-.23.56a.75.75 0 0 1-.14.13c-.1.07-.18.14-.2.3 0 .14 0 .26.03.37.02.05.06.1.1.14 0 .02 0 .03.02.04.04.05.01.14-.01.2-.09.21-.2.4-.36.54a.8.8 0 0 0-.14.2Zm6.13.26c.06.02.11 0 .14-.05l.04-.01h.02c.01 0 .02.02 0 .03a.35.35 0 0 0-.02.07c0 .04 0 .06.04.07.17.06.36.08.55.08.04 0 .08-.02.1-.05a.37.37 0 0 0 .07-.18c.03-.18.03-.37.03-.56l-.02-.57c0-.16.02-.27.16-.35h.08c.27 0 .36.36.4.62l.06.45.01.04c0 .04.02.08.01.11l-.02.13a5.82 5.82 0 0 1-.18.84v.01c-.03.08-.05.16-.14.13a3.46 3.46 0 0 1-.2-.06c-.05-.03-.12-.03-.18-.02h-.05l-.02-.01-.03-.02-.11-.18c-.04-.05-.15-.07-.2-.07a.33.33 0 0 1-.15-.04c-.12-.07-.22-.1-.31-.13-.04-.01-.07-.01-.1.01a.6.6 0 0 0-.14.15l-.19.26c-.12.15-.28.16-.38-.03 0-.02 0-.04-.02-.05a.46.46 0 0 0-.05-.11l-.03-.03a.42.42 0 0 1-.11-.22.96.96 0 0 1 .04-.4.6.6 0 0 1 .06-.11.67.67 0 0 0 .1-.23l.01-.02a.31.31 0 0 1 .23.11c.06.07.14.14.22.15h.02l.07-.03c.04 0 .08-.01.1-.04a.36.36 0 0 1 .15-.11c.03-.01.06-.03.07-.06h.02c.05.02.08.06.1.12a.03.03 0 0 1 0 .03c-.12.05-.25.15-.26.3V10Zm2.27-.67c.02.04.01.05-.02.03l-.07-.05h-.03l-.01.01v.02c0 .03.01.07.03.09.02.04.04.1.03.16v.35a.2.2 0 0 1 0 .1l-.03.02-.03.02h-.01v.01a.03.03 0 0 0 0 .03l.04.08c.04.1.09.2.2.2h.02c.1 0 .2.01.28.04.04.02.08.02.13 0 .1-.01.16-.12.18-.23a.35.35 0 0 0 0-.17 1.08 1.08 0 0 0-.09-.24l-.08-.22v-.03c-.02-.09-.04-.17-.1-.22a.45.45 0 0 0-.27-.08h-.01a.02.02 0 0 0 0 .03l.01.02c.02.02.04.05.02.08l-.01.01h-.02l-.16-.14c-.04-.04-.05-.03-.03.02l.03.06Z"/></svg>