<!-- by TradingView --><svg width="18" height="18" viewBox="0 0 18 18" xmlns="http://www.w3.org/2000/svg"><path fill="#0254A6" d="M0 0h18v18H0z"/><path d="M9 13a4 4 0 0 0 2.67-1H9l-.6-.57V12H6.33A4 4 0 0 0 9 13Zm2.1-2 .75.83A3.99 3.99 0 0 0 13 9c0-1.12-.44-2.12-1.16-2.84l-2.69 2.7.13.14H6V6.33A4 4 0 0 0 5 9H4a5 5 0 1 1 .1 1h1.02c.16.63.46 1.2.88 1.67V11h5.1ZM9 6h2.67A4 4 0 0 0 9 5a4 4 0 0 0-2.67 1H8.4v.57L9 6Z" fill="#E60012"/><path d="m10.19 10-.91-1H6v1h4.19Zm-5.07 0A4.14 4.14 0 0 1 5 9H4c0 .34.03.68.1 1h1.02Z" fill="#E60012" fill-opacity=".7"/><path d="M6 10.75v-.5h5v.5H6Z" fill="#E3E1E1"/></svg>