<!-- by TradingView --><svg width="18" height="18" viewBox="0 0 18 18" xmlns="http://www.w3.org/2000/svg"><path fill="#F0F3FA" d="M0 0h18v18H0z"/><path d="M8.98 3h.14c.17.03.33.13.5.29 1.54 1.53 2.98 2.96 4.3 4.3.17.16.17.32 0 .5a959.86 959.86 0 0 0-1.5 1.5v-.02l-.02-1.23a.04.04 0 0 0-.03-.04.28.28 0 0 0-.13 0 .06.06 0 0 0-.04.03.66.66 0 0 1-.1.16c-.12.14-.22.27-.3.4a.29.29 0 0 0-.04.28c.16.44-.06 1-.55 1.12-.39.1-.55-.22-.58-.54-.06-.66.2-1.3.6-1.82.2-.26.54-.44.84-.6.15-.08.28-.2.26-.38a3.7 3.7 0 0 0-.41-1.23c-.1-.2-.32-.44-.56-.21-.37.35-.5.84-.65 1.33-.11.4-.28.67-.66.85-.03.02-.05 0-.05-.02v-2a1.1 1.1 0 0 0-1.08-1.06c-.39-.02-.63.16-.9.42a2789.4 2789.4 0 0 1-4.4 4.42.27.27 0 0 1-.2.09c-.2 0-.34-.12-.42-.35v-.3a1 1 0 0 1 .16-.33l5.4-5.37A.7.7 0 0 1 8.98 3Z" fill="#01519A"/><path d="M9.1 8.14c.43-.07.85-.25 1.23-.55.43-.32.52-.92.69-1.4.09-.25.24-.47.43-.64.14-.13.31.07.38.19.2.39.34.79.4 1.2.02.1-.01.19-.1.24-.26.18-.57.3-.8.53-.54.5-.88 1.35-.78 2.1.04.36.29.7.71.56a.94.94 0 0 0 .6-1.21c-.04-.12 0-.24.08-.33.11-.13.22-.27.3-.41.06-.08.08-.07.08.02v.87c.05.65-.1 1.35-.72 1.68-.49.25-1.2.32-1.6-.14-.5-.6-.2-1.45.03-2.1a.5.5 0 0 0 .02-.28c0-.02-.02-.03-.04-.03a7.07 7.07 0 0 0-1.04.39c-.16 1.2-.58 2.46-1.85 2.8-.38.1-.76.08-1.14.05a.16.16 0 0 1-.1-.05.04.04 0 0 1-.02-.04.05.05 0 0 1 .04-.03c1.5-.3 2.3-1.53 2.59-2.98.06-.3.03-.63.04-.93a.04.04 0 0 0-.04-.04h-.02c-.6.38-1.46.39-2.12.27-.29-.05-.38.36-.67.4a.05.05 0 0 1-.06-.04V8.2c.06-.13.14-.22.25-.35.25-.29.56-.45.93-.5.27-.04.52.03.8.01a2.05 2.05 0 0 0 1.32-.64c.12-.14.25-.32.4-.41a.05.05 0 0 1 .08.04c.01.08 0 .16-.01.24-.14.49-.28 1-.33 1.5a.03.03 0 0 0 .02.04h.02Z" fill="#009140"/><path d="M7.48 6.7c.26-.02.39.17.5.39.03.07 0 .12-.07.14-.26.06-.53.06-.8.03a1.31 1.31 0 0 0-.42.02.02.02 0 0 1 0-.02c.2-.23.47-.52.79-.55ZM15 8.9v.15a.73.73 0 0 1-.18.4L9.4 14.87a.63.63 0 0 1-.31.14h-.26a.73.73 0 0 1-.3-.13l-4.5-4.48c-.12-.12-.09-.33.03-.45a260.4 260.4 0 0 0 1.58-1.58c.26.02.4-.18.55-.34.05-.05.1-.06.16-.05a3.73 3.73 0 0 0 1.65 0H8V9.6c0 .17-.04.27-.13.42a2.92 2.92 0 0 1-2 1.46c-.1.02-.15.14-.06.22.03.04.08.06.13.07.77.1 1.45.04 2.04-.49.03 0 .02 0 .02.02v.79c0 .27.03.49.1.66.27.73 1.23.88 1.77.33l4.46-4.47c.3-.3.62-.05.67.3Z" fill="#01519A"/></svg>