<!-- by TradingView --><svg width="18" height="18" viewBox="0 0 18 18" xmlns="http://www.w3.org/2000/svg"><path fill="#F0F3FA" d="M0 0h18v18H0z"/><path fill-rule="evenodd" d="m13.89 5.55.07-.4c.01-.05 0-.08-.05-.1a.72.72 0 0 0-.69.1c-1.43 1.03-2.81 2-4.14 2.93a.18.18 0 0 1-.22 0L4.71 5.1a.88.88 0 0 0-.62-.07c-.26.1.13.72.22.78 1.27.98 2.55 1.86 3.86 2.79.09.04.08.1-.03.18-.65.44-1.27.89-1.88 1.34a.12.12 0 0 1-.12.02.53.53 0 0 1-.14-.08c-.08-.06-.15-.1-.3-.04-.14.07-.05.27-.02.38 0 .06-.01.1-.07.13-.31.14-.55.34-.7.59-.05.07-.1.08-.15 0-.1-.1-.19-.1-.28-.02a.86.86 0 0 0-.3.65c0 .24-.05.46-.14.66a.31.31 0 0 0-.01.23c.3.85 1.1.73 1.75.36a4.28 4.28 0 0 1 2.54-.76c.22.02.23.07.03.17a8.7 8.7 0 0 0-2.52 2.18c-.08.1-.1.2-.04.31.03.06.09.1.17.1a.15.15 0 0 0 .12-.06c.52-.61 1.1-1.12 1.7-1.62.27-.24.55-.48.82-.74a.59.59 0 0 1 .8 0c.53.48 1.08.98 1.67 1.49a9.92 9.92 0 0 1 .95.92h.08c.05 0 .09-.01.12-.05.07-.1.07-.19 0-.29a9.35 9.35 0 0 0-2.62-2.3c-.13-.07-.12-.1.03-.11.44-.02.85.02 1.23.12.33.1.63.26.94.43.44.24.88.49 1.4.48.38 0 .64-.19.77-.56.06-.16.01-.3-.04-.44-.03-.1-.07-.19-.07-.3-.02-.35-.1-1.1-.66-.84a.1.1 0 0 1-.11-.03c-.18-.26-.41-.45-.7-.57-.05-.02-.07-.06-.05-.12l.06-.23a.1.1 0 0 0-.03-.1c-.14-.12-.28-.12-.41.02a.18.18 0 0 1-.23.02l-1.9-1.37c-.03-.03-.03-.1.01-.13 1.31-.94 2.72-2.05 4.05-3.07ZM4.6 5.2l7.1 5.17c.03.02.04.08.01.11a.08.08 0 0 1-.12.02L4.5 5.35a.08.08 0 0 1-.01-.12.08.08 0 0 1 .11-.02Zm4.67 3.01 4.06-2.95c.04-.03.1-.02.13.02s.02.1-.02.12L9.37 8.36a.09.09 0 0 1-.12-.02.09.09 0 0 1 .02-.12Zm-.87.62-2.06 1.51a.09.09 0 0 0-.02.12c.03.04.09.05.13.02L8.5 8.98a.09.09 0 0 0 .02-.12.09.09 0 0 0-.13-.02Zm-1.79 2.2c-.03.14-.09.27-.17.4-.03.06-.12.06-.16 0a.27.27 0 0 0-.14-.11c-.05-.02-.1-.01-.13.03-.16.23-.36.4-.6.52a.18.18 0 0 0-.09.12l-.09.35a.3.3 0 0 1-.4.19l-.27-.13c-.11-.05-.25.05-.23.18.06.4.6.43.9.3.34-.16.67-.33 1-.53.85-.5 1.75-.57 2.7-.29.05.02.1.02.15 0 .6-.18 1.18-.21 1.75-.1.44.1.86.33 1.27.56.24.13.48.26.72.37.33.14.6.08.82-.17a.19.19 0 0 0 .03-.22.2.2 0 0 0-.3-.07c-.15.12-.31.14-.47.08a.2.2 0 0 1-.11-.13l-.1-.37a.22.22 0 0 0-.11-.14c-.23-.12-.42-.3-.59-.51-.03-.05-.08-.07-.14-.03a.46.46 0 0 0-.14.12.1.1 0 0 1-.16-.02l-.2-.48a.18.18 0 0 0-.06-.07L9.07 9.28c-.04-.04-.09-.04-.13 0l-2.23 1.6a.26.26 0 0 0-.1.16Zm-1.27.4c-.03.1-.1.18-.19.24-.04.03-.07.02-.1-.01-.07-.11-.05-.23.04-.33l.19-.22c.16-.2.3-.38.67-.4.05-.01.08-.06.05-.1l-.17-.28c-.01-.02 0-.03.01-.04l.05-.03c.03-.01.06 0 .08.02.17.18.3.4.37.63.01.06-.07.16-.12.11a.4.4 0 0 0-.15-.29c-.05-.04-.08-.03-.1.03-.02.12-.05.22-.1.32a.21.21 0 0 1-.1.1.16.16 0 0 1-.11.02c-.07-.02-.1 0-.07.08v.03c.03.06 0 .1-.05.11-.07.02-.1.02-.12 0-.03-.07-.06-.07-.08 0Zm6.46-.47.2-.2c.02-.13.06-.24.13-.34.05-.06.03-.1-.04-.08-.07 0-.13.01-.15.09a.65.65 0 0 1-.24.38c-.04.03-.04.06-.02.1l.03.03c.02.05.05.05.09.02Zm.2-.2c.21 0 .37.04.47.12l.48.5a.15.15 0 0 1 .02.19l-.03.03c-.03.05-.07.05-.1.01l-.3-.2c-.19-.1-.36-.32-.53-.66Zm-7.44.56c-.03.07-.02.12.02.16.05.05.04.08-.02.1-.07.02-.13.04-.15.12-.05.17-.03.31.06.42.03.03.07.05.11.05l.13.02c.04 0 .08.04.1.08 0 .05.04.08.09.08a.1.1 0 0 0 .1-.05c.07-.13.1-.26.11-.39.01-.09-.02-.1-.07-.03a.27.27 0 0 0-.07.15c0 .09-.05.11-.13.08l-.21-.1c-.1-.05-.08-.13-.07-.21 0-.04.02-.05.05-.03.1.03.18.06.27.07.07.02.1-.01.06-.08a.38.38 0 0 0-.16-.17.1.1 0 0 1-.05-.12l.03-.1c.03-.1-.16-.14-.2-.05Zm8.91.24.14.25c.06.11.01.26-.11.32l-.4.16c-.07.03-.1 0-.12-.06l-.04-.26c-.01-.07.01-.09.08-.05.02.01.03.03.03.05.04.13.2.16.31.09.09-.07.1-.15.06-.24-.02-.04-.05-.05-.1-.04l-.2.04c-.04 0-.06-.01-.06-.05 0-.03.02-.06.05-.07.14-.07.18-.17.14-.31-.02-.07.05-.13.12-.1.08.02.11.08.09.15-.01.05 0 .09.01.12Z" fill="#E7010C"/></svg>