<!-- by TradingView --><svg width="18" height="18" viewBox="0 0 18 18" xmlns="http://www.w3.org/2000/svg"><path fill="#F0F3FA" d="M0 0h18v18H0z"/><path d="m8.92 12.98-.39.02A4.52 4.52 0 0 1 4 8.5a4.53 4.53 0 0 1 8.7-1.75l-.42.66A3.9 3.9 0 0 0 4.63 8.5a3.9 3.9 0 0 0 4.7 3.8l-.41.68Z" fill="#EF1935"/><path d="M10.39 9.62c2.04-.77 2.43-2.43 2.37-3.3-.12-.1-.22-.2-.32-.26-.16 2.5-2.43 3.43-3.55 3.58.33 2.75-2.72 3.69-4.28 3.81.63.18 2.3.55 3.98.55C12.54 14 14 10.5 14 8.85c0-.37-.08-.72-.2-1.04-.2.65-.92 1.9-2.37 2.19.66-.39 1.98-1.47 2.08-2.75-.09-.15-.18-.29-.29-.42a3.25 3.25 0 0 1-2.83 2.79Z" fill="#008E40"/></svg>