<!-- by TradingView --><svg width="18" height="18" viewBox="0 0 18 18" xmlns="http://www.w3.org/2000/svg"><path fill="#F0F3FA" d="M0 0h18v18H0z"/><path d="M4 9.26v-.3c0-.43.2-.73.47-1.03 1.08-1.18 2.28-2.47 3.6-3.86.03-.03.06-.07.1-.07H9.55l.02.03.02.03v.03a.74.74 0 0 1-.16.24c-1.17 1.24-2.3 2.44-3.37 3.6-.7.74-1.22 1.43-.32 2.28.9.87 1.78 1.7 2.63 2.47.22.19.44.25.67.2a.1.1 0 0 0 .06-.04.13.13 0 0 0 .03-.12 1323.46 1323.46 0 0 0-2.86-2.6 1.7 1.7 0 0 1-.44-.6c-.18-.43.22-1 .5-1.28 1.41-1.46 2.75-2.85 4-4.19a.15.15 0 0 1 .11-.05h1.43c.23 0 .26.07.1.25C10.6 5.7 9.15 7.22 7.63 8.8c-.6.62-.37 1.31.19 1.83a90.84 90.84 0 0 1 1.84 1.72 166.43 166.43 0 0 0 2.4-2.6c.2-.23.2-.53.1-.82-.06-.2-.02-.23.13-.09.2.2.4.44.55.73.3.56.11 1.18-.3 1.6a110.6 110.6 0 0 1-1.95 1.96.14.14 0 0 0 0 .1c0 .02.02.03.03.05l1.58 1.43c.13.12.1.2-.06.24l-.2.04a.5.5 0 0 1-.25 0 .54.54 0 0 1-.22-.13l-1.3-1.2c-.04-.03-.08-.04-.12-.01-.67.46-1.32.4-1.93-.17A60.8 60.8 0 0 1 4 9.26Z" fill="#21568A"/><path d="M8.88 9.63a3.36 3.36 0 0 0-.78-.18c-.04 0-.06-.03-.06-.08 0-.04.03-.07.07-.09a93.02 93.02 0 0 0 .8-.3.16.16 0 0 0 .04-.06.18.18 0 0 0-.02-.15 7.05 7.05 0 0 1-.33-.48.13.13 0 0 1 0-.14.1.1 0 0 1 .06-.05.1.1 0 0 1 .07.01l.5.32a.22.22 0 0 0 .19.02.23.23 0 0 0 .08-.06.25.25 0 0 0 .05-.08c.06-.14.09-.29.1-.44l.05-.14a.17.17 0 0 1 .08-.06.13.13 0 0 1 .12 0l.04.04.03.06.1.52c0 .04.02.07.04.1l.08.07a.2.2 0 0 0 .2-.01l.58-.38a.06.06 0 0 1 .06 0l.02.01.01.03c.01.04 0 .08-.02.12-.1.18-.2.35-.32.5a.2.2 0 0 0 .02.26c.01.03.04.05.07.06l.65.18.03.01.02.04a.1.1 0 0 1 0 .07.15.15 0 0 1-.1.08l-.6.18a.18.18 0 0 0-.08.06.22.22 0 0 0-.04.2c0 .03.03.06.05.08.14.14.23.31.28.5v.05l-.02.04a.07.07 0 0 1-.08 0l-.51-.31a.23.23 0 0 0-.23 0 .25.25 0 0 0-.09.07.28.28 0 0 0-.04.12c-.03.2-.08.39-.16.54a.1.1 0 0 1-.05.05.1.1 0 0 1-.05 0 .1.1 0 0 1-.05-.02.11.11 0 0 1-.04-.05l-.16-.57a.26.26 0 0 0-.05-.1.23.23 0 0 0-.1-.07.21.21 0 0 0-.2.05c-.16.13-.32.23-.48.29-.17.06-.2 0-.1-.15l.33-.54c.06-.1.04-.18-.06-.22Z" fill="#D80A2F"/></svg>