<!-- by TradingView --><svg width="18" height="18" viewBox="0 0 18 18" xmlns="http://www.w3.org/2000/svg"><path fill="#F0F3FA" d="M0 0h18v18H0z"/><path d="M8.08 3.38c.51-.5 1.33-.5 1.84 0l1.07 1.07c.57.58.57 1.51 0 2.1L8.93 4.48c-.41-.42-.94-.44-1.63-.33l.78-.78ZM8.2 6.33a1.12 1.12 0 0 1 1.58 0l.65.65c.5.5.5 1.3 0 1.8l-1.5-1.5c-.36-.36-.81-.38-1.4-.28l.67-.67ZM9.8 11.67c-.44.44-1.14.44-1.58 0l-.65-.65c-.5-.5-.5-1.3 0-1.8l1.5 1.5c.36.36.81.38 1.4.28l-.67.67Z" fill="#2A4FB7"/><path d="M6.33 9.8a1.12 1.12 0 0 1 0-1.58l.65-.65c.5-.5 1.3-.5 1.8 0l-1.5 1.5c-.36.36-.38.81-.28 1.4l-.67-.67ZM11.67 8.2c.44.44.44 1.14 0 1.58l-.65.65c-.5.5-1.3.5-1.8 0l1.5-1.5c.36-.36.38-.81.28-1.4l.67.67ZM9.92 14.62c-.51.5-1.33.5-1.83 0L7 13.55a1.48 1.48 0 0 1 0-2.1l2.06 2.06c.41.42.94.44 1.63.33l-.78.78ZM14.62 8.08c.5.51.5 1.33 0 1.84l-1.07 1.07c-.58.57-1.52.57-2.1 0l2.06-2.06c.42-.41.44-.94.33-1.63l.78.78ZM3.38 9.92a1.3 1.3 0 0 1 0-1.83L4.45 7a1.48 1.48 0 0 1 2.1 0L4.48 9.07c-.42.41-.44.94-.33 1.63l-.78-.78Z" fill="#2A4FB7"/><path d="M13 11.51c-.57.18-1.22.06-1.7-.37l-.04.04-2.05 2.06c.58.57 1.51.57 2.1 0l1.59-1.6a1 1 0 0 0 .1-.13ZM11.51 5c.18.57.06 1.22-.37 1.7l.04.04 2.06 2.05c.57-.58.57-1.51 0-2.1l-1.6-1.59a1 1 0 0 0-.13-.1ZM6.49 13a1.76 1.76 0 0 1 .37-1.7 1.38 1.38 0 0 1-.04-.04L4.76 9.21a1.48 1.48 0 0 0 0 2.1l1.6 1.59a1 1 0 0 0 .13.1ZM5 6.49a1.76 1.76 0 0 1 1.7.37l.04-.04 2.05-2.06a1.48 1.48 0 0 0-2.1 0L5.1 6.36a1 1 0 0 0-.1.13Z" fill="#2A4FB7"/></svg>