<!-- by TradingView --><svg width="18" height="18" viewBox="0 0 18 18" xmlns="http://www.w3.org/2000/svg"><path fill="#F0F3FA" d="M0 0h18v18H0z"/><path d="M12.44 5.56 5.75 12.8s-.24-.2-.38-.34l-.33-.39 7.4-6.5Z" fill="#E59732"/><path d="M9.83 4.07a3.94 3.94 0 0 0-3.9 3.13l6.5-2.58L4 9a4.97 4.97 0 0 1 5.83-4.93ZM13.86 8c-.08 2.76-2.05 3.82-3.03 4l2.39-6.44L9 14a5.04 5.04 0 0 0 4.86-6Z" fill="#135B9F"/><path d="M4.54 11.25c-.15-.3-.33-.74-.4-1.07l7.99-4.93c-2.38 1.9-7.22 5.67-7.6 6ZM6.56 13.36c.26.16.72.34 1.05.44l5.14-7.93a668.4 668.4 0 0 1-6.2 7.49Z" fill="#E59732"/></svg>