<!-- by TradingView --><svg width="18" height="18" viewBox="0 0 18 18" xmlns="http://www.w3.org/2000/svg"><path fill="#F0F3FA" d="M0 0h18v18H0z"/><path d="M14.98 9.27 15 9c0-1.66-2.69-3-6-3S3 7.34 3 9s2.69 3 6 3c1.1 0 2.15-.15 3.04-.41-.35.05-.71.08-1.09.08C8.71 11.67 7 10.7 7 9.5s1.71-2.17 3.95-2.17c2.09 0 3.8.85 4.03 1.94Z" fill="#B52121"/><path d="M14 9.43A3.73 3.73 0 0 0 12.07 9c-1.21 0-2.07.37-2.07.83 0 .46.86.84 2.07.84.38 0 .73-.04 1.03-.1A4.9 4.9 0 0 1 11 11c-1.66 0-3-.67-3-1.5S9.34 8 11 8c1.61 0 2.92.63 3 1.43Z"/></svg>