<!-- by TradingView --><svg width="18" height="18" viewBox="0 0 18 18" xmlns="http://www.w3.org/2000/svg"><path fill="#F0F3FA" d="M0 0h18v18H0z"/><path fill-rule="evenodd" d="M4 12.2v.7l3.84.02c.13 0 .24.06.32.17.07.1.08.22.02.34a.96.96 0 0 0-.1.4c0 .16.08.2.23.14l1.3-.56c.1-.04.18-.11.23-.2l.12-.2a.2.2 0 0 1 .18-.1h2.49a.4.4 0 0 0 .32-.14l.92-1.08c.09-.1.13-.2.13-.33V5.12c0-.1-.05-.12-.14-.12h-3.68c-.13 0-.18-.08-.18-.21v-.6c0-.12-.1-.19-.23-.19H8.34c-.16 0-.23.08-.21.23l.04.52c.02.15-.05.25-.22.25H4v7.2ZM6.92 6h.93c.1.01.15.16.15.28v5.57c0 .1-.04.15-.12.15H6.12c-.07 0-.12-.04-.12-.12V5.22c0-.08.01-.14.04-.17A.11.11 0 0 1 6.12 5c.05 0 .09.02.11.09.12.38.26.58.4.8l.03.02c.06.1.08.1.2.1L6.91 6Zm4.97 0h-1.78c-.06 0-.11.06-.11.14v5.73c0 .07.05.13.1.13h1.8c.05 0 .1-.06.1-.13V6.14c0-.08-.05-.14-.1-.14Z" fill="#014397"/></svg>