<!-- by TradingView --><svg width="18" height="18" viewBox="0 0 18 18" xmlns="http://www.w3.org/2000/svg"><path fill="url(#a)" d="M0 0h18v18H0z"/><path fill-rule="evenodd" d="M6.67 4.57v1.5a.1.1 0 0 1-.08.1l-.52.2a.1.1 0 0 0-.07.09v.73c0 .07.07.12.13.1l.81-.4a.1.1 0 0 0 .06-.1V4.1c0-.05.04-.09.1-.09h3.8c.06 0 .1.04.1.1v2.7c0 .03.02.07.06.08l.8.4A.1.1 0 0 0 12 7.2v-.73a.1.1 0 0 0-.07-.1l-.52-.2a.1.1 0 0 1-.08-.1V4.58c0-.05.05-.1.1-.1.8.01 2.13.11 2.54.46.02.01.03.04.03.06v7.99a.1.1 0 0 1-.07.09c-.57.16-1.6.43-2.5.45a.1.1 0 0 1-.1-.1v-1.25a.1.1 0 0 1 .08-.1l.52-.2a.1.1 0 0 0 .07-.09v-1a.1.1 0 0 0-.11-.1l-.81.21a.1.1 0 0 0-.08.1v2.91a.1.1 0 0 1-.1.1H7.1a.1.1 0 0 1-.1-.1v-2.92a.1.1 0 0 0-.08-.1l-.8-.2a.1.1 0 0 0-.12.1v1c0 .05.03.08.07.1l.52.2a.1.1 0 0 1 .08.09v1.26a.1.1 0 0 1-.1.1c-.66-.02-1.78-.11-2.52-.46A.1.1 0 0 1 4 13V5.02a.1.1 0 0 1 .07-.09c.57-.16 1.6-.43 2.5-.45.05 0 .1.04.1.1ZM4.33 9l3.4-.4c.46-.05.82-.41.87-.86l.4-3.4.4 3.4c.05.45.41.8.86.86l3.4.4-3.51.83c-.4.1-.7.42-.75.82L9 13.67l-.4-3.02a.98.98 0 0 0-.75-.82L4.33 9Z" fill="#D70C19"/><defs><linearGradient id="a" x1="3.35" y1="3.12" x2="21.9" y2="24.43" gradientUnits="userSpaceOnUse"><stop stop-color="#1A1E21"/><stop offset="1" stop-color="#06060A"/></linearGradient></defs></svg>