<!-- by TradingView --><svg width="18" height="18" viewBox="0 0 18 18" xmlns="http://www.w3.org/2000/svg"><path fill="#F0F3FA" d="M0 0h18v18H0z"/><path d="M7.22 13H4c2.06-4.29 7.16-6 8-6a9.2 9.2 0 0 0-4.78 6Z" fill="#C9151E"/><circle cx="12.5" cy="6.5" r=".5" fill="#50C5ED"/><path d="M11 6.85c-.67.16-1.49.48-1.82.65a6.05 6.05 0 0 0-2.93-.9c-.74 0-1.3.6-1.3 1.35 0 .75.2 1.33.4 2.05A5.05 5.05 0 0 1 4 6.85C4 5.95 4.7 5 6.1 5c1.85 0 4.22 1.4 4.9 1.85Z" fill="#50C5ED"/><path d="M8.8 10.33c.58.33 1.77 1 2.9 1 1.14 0 1.51-.83 1.51-1.39 0-.56-.53-1.55-.8-1.94.92.95 1.59 2.04 1.59 3 0 .95-.89 2-2.3 2-1.4 0-3.18-.95-3.7-1.32.3-.65.65-1.15.8-1.35Z" fill="#0076C0"/></svg>