<!-- by TradingView --><svg width="18" height="18" viewBox="0 0 18 18" xmlns="http://www.w3.org/2000/svg"><path fill="#F0F3FA" d="M0 0h18v18H0z"/><path fill-rule="evenodd" d="M9 14.33A5.33 5.33 0 1 0 9 3.67a5.33 5.33 0 0 0 0 10.66Zm0-1a4.33 4.33 0 1 0 0-8.66 4.33 4.33 0 0 0 0 8.66Z" fill="#EBAA04"/><path d="M9.68 3.04a6.05 6.05 0 0 0-1.26-.01v1.23h1.26V3.04Zm-3.66.75c.36-.2.75-.38 1.15-.5l.62 1.2-1.12.58-.65-1.28ZM4.18 5.43c.25-.33.53-.64.85-.92l1.02 1.01-.88.9-1-.99ZM3.13 7.78c.08-.42.21-.82.38-1.2l1.36.37-.33 1.21-1.41-.38Zm0 2.48C3.04 9.86 3 9.44 3 9.01l1.46-.09.08 1.26-1.41.08Zm1 2.26a6 6 0 0 1-.63-1.1l1.2-.74.66 1.07-1.24.77Zm1.82 1.67c-.36-.21-.7-.46-1.01-.75l.92-1.12.97.8-.88 1.07Zm2.47.81a5.97 5.97 0 0 1-1.23-.25l.25-1.52 1.24.2L8.42 15Zm2.5-.29c-.4.14-.8.23-1.23.28l-.25-1.56 1.24-.2.24 1.48Zm2.16-1.28c-.31.28-.65.53-1 .75l-.82-1.11 1.01-.75.8 1.1Zm1.43-2.02a6 6 0 0 1-.62 1.1l-1.18-.69.63-1.09 1.17.68ZM15 8.97v.04c0 .42-.04.82-.12 1.21l-1.34-.13.13-1.25 1.33.13Zm-.5-2.35c.17.38.3.78.38 1.2l-1.28.4-.37-1.2 1.27-.4Zm-1.4-2c.3.3.58.61.82.96l-1.01.89-.83-.95 1.02-.9Zm-2.17-1.3c.4.13.78.31 1.14.52L11.5 5.1l-1.14-.51.57-1.26ZM8.09 7C6.32 7.23 5 8.13 5 9.2c0 .99 1.1 1.83 2.65 2.14l.06-.64c-1.22-.25-2.09-.82-2.09-1.5 0-.73 1.01-1.34 2.4-1.54L8.09 7Zm2.18 3.7c1.24-.23 2.1-.81 2.1-1.49 0-.74-1.04-1.36-2.46-1.55l-.08-.67C11.64 7.2 13 8.12 13 9.2c0 .99-1.1 1.83-2.65 2.14l-.08-.64Z" fill="#EBAA04"/><path fill-rule="evenodd" d="M10.67 9H7.33v2.66c0 .19.19.34.41.34h2.51c.23 0 .42-.15.42-.34V9ZM8 9.33h.67V10H8v-.67Zm1.33 0H10V10h-.67v-.67Zm-.66 1.34H8v.66h.67v-.66Zm.66 0H10v.66h-.67v-.66Z" fill="#EBAA04"/><path fill="#EBAA04" d="M8.67 5.67h.67V6h-.67zM7.43 8.16a.82.82 0 0 0-.1.39v.37h.42v-.49c0-.1.02-.2.07-.3l.93-1.6c.1-.17.44-.17.53 0l.9 1.6c.05.1.07.2.07.3v.49h.42v-.37a.82.82 0 0 0-.1-.39L9.54 6.2H8.46L7.43 8.16Z"/><path d="M8.82 7.1c.03-.07.1-.1.18-.1.07 0 .15.03.18.1l.21.39h-.78l.2-.4ZM8.48 7.72h1.04l.26.49c.17.3-.1.64-.5.64h-.56c-.4 0-.67-.34-.5-.64l.26-.5Zm.52.33c-.22 0-.42.13-.42.3v.06h.84v-.06c0-.17-.2-.3-.42-.3Z" fill="#EBAA04"/></svg>