<!-- by TradingView --><svg width="18" height="18" viewBox="0 0 18 18" xmlns="http://www.w3.org/2000/svg"><path fill="#F0F3FA" d="M0 0h18v18H0z"/><path d="M11 8.36V7.08c0-.02 0-.04.02-.05a.08.08 0 0 1 .06-.03h.84a.08.08 0 0 1 .08.08v1.36l-.01.03a.08.08 0 0 1-.08.05l-.83-.09a.08.08 0 0 1-.05-.02L11 8.36ZM14 8.26V7.04l.01-.03.03-.01h.92l.03.01.01.03v1l-.02.02-.02.01-.9.23a.04.04 0 0 1-.04-.01L14 8.28v-.02ZM7.53 9.23v1.7c0 .04 0 .07-.05.07h-.85c-.03 0-.06-.05-.06-.08V7.04c0-.02 0-.04.02-.04h.91l.03.04v1.7c0 .08.02.09.07.03l1.5-1.63A.4.4 0 0 1 9.4 7h.9c.12 0 .14.06.06.15L8.7 8.97 8.7 9l.01.04 1.66 1.82c.08.09.06.14-.05.14h-.9a.41.41 0 0 1-.33-.14L7.58 9.2c-.03-.04-.05-.03-.05.02ZM4.59 7.78H2.04c-.02 0-.04 0-.04-.03v-.73c0-.01.01-.02.03-.02h3.88c.02 0 .04 0 .05.02.02.01.02.03.02.05.01.23.07.67-.12.84-.86.8-1.67 1.53-2.41 2.2-.07.07-.06.1.03.1h2.46l.03.01c.01 0 .03.02.03.04v.66c0 .05-.04.08-.09.08H2.03a.05.05 0 0 1-.02-.03v-.51c-.02-.27.16-.43.34-.59l2.26-2.04c.03-.03.03-.05-.02-.05Z" fill="#E62C35"/><path d="M12 9.53v1.41c0 .04-.03.06-.07.06h-.89c-.02 0-.04-.03-.04-.06V9.29a.12.12 0 0 0-.06-.1c-.2-.13-.71-.4-.82-.63-.05-.1-.02-.14.08-.1.77.3 1.54.38 2.35.3a11.46 11.46 0 0 0 3.43-.84.03.03 0 0 1 .01.02v.03c.02.06 0 .1-.05.13l-.9.7a.09.09 0 0 0-.04.04v2.11c0 .03-.02.05-.05.05h-.9c-.04 0-.05-.02-.05-.06V9.28c0-.05-.05-.06-.09-.05-.55.17-1.3.25-1.86.24-.04 0-.05.02-.05.06Z" fill="#E62C35"/></svg>