<!-- by TradingView --><svg width="18" height="18" viewBox="0 0 18 18" xmlns="http://www.w3.org/2000/svg"><path fill="#F0F3FA" d="M0 0h18v18H0z"/><path fill-rule="evenodd" d="M15 5.23c0-.11-.09-.23-.13-.23H8.3c-.05 0-.12.15-.12.2v.69c0 .04.05.1.1.1H9.4v.68c-.27.03-.8.15-.78.37v.33c-.18.2-.4.66.09.98v.89c0 .08.06.28.22.37l1.07.7a4.1 4.1 0 0 1-.74.29l.16.25c.28-.04 1.05-.37 1.9-1.38.12-.15.27-.58-.15-1.12V7.26c-.02-.2-.15-.6-.5-.6h-.79V6h4.98c.04 0 .13-.05.13-.15v-.62ZM9.73 7.41c.14-.11.49-.34.73-.31.3.04.49 1.03-.08 1.13a3 3 0 0 0-.8.05c-.26.08-.67.03-.74-.32-.08-.35-.2-.98.89-.55Zm.73 1.03c-.36.1-.27 1.01-.22 1.5.35-.06.75-.45.84-.63-.12-.3-.43-.93-.62-.87Zm-1.14.16c.4 0 .63.9.68 1.34a3.2 3.2 0 0 1-.8-.36c-.3-.21-.2-.98.12-.98ZM7 9.53V5.16c0-.05.01-.16.18-.16h.66c.15 0 .16.11.16.16v4.37c0 .05-.04.09-.1.09h-.8c-.06 0-.1-.04-.1-.09ZM5.05 9.4c-.17 0-.52.08-.57.53-.07.58 1.23.92 2.42 1.09.12.02.36.01.35-.18 0-.13-.35-.2-.8-.28a7.7 7.7 0 0 1-1.4-.36c-.14-.06-.35-.25-.07-.52.13-.13.15-.27.07-.28Zm2.91 1.91c-.39 0-.46.14-.45.2.24.65 3.65-.42 3.5-1.14-.03-.17-.16-.08-.26 0-.86.95-2.16.94-2.7.94h-.09Zm3.76-.94c.22.9-.29 2.7-4.02 2.63-4.48-.08-4.69-2.04-4.7-2.55-.01-.5.27-1.04.42-1.1l.17.12a1.5 1.5 0 0 0-.25.77c.01.36.23 1.65 4.36 1.78 1 .05 3.2-.21 4.02-1.65Z"/></svg>