<!-- by TradingView --><svg width="18" height="18" viewBox="0 0 18 18" xmlns="http://www.w3.org/2000/svg"><path fill="#F0F3FA" d="M0 0h18v18H0z"/><path d="M10.81 5.62c-.34-.97-.2-2.48-.2-2.48a2.89 2.89 0 0 0-2.59.4S8 3.83 8 4.29c0 .66.12 1.66.58 2.63a6.02 6.02 0 0 0 2.62 2.8l.8-2.07s-.74-.73-1.19-2.03Z" fill="#CE1953"/><path d="M11.72 12.45c1.27 0 2.31.86 2.31.86.6-.57.97-1.35.97-2.3 0 0-1.5-1.01-3.17-1.01C9.41 10 8 11.22 8 11.22L9.49 13s.96-.55 2.23-.55Z" fill="#31A56C"/><path d="M5.16 10.42C4.3 11.44 3 11.92 3 11.92c.26.85.75 1.6 1.66 2.08a6.52 6.52 0 0 0 3.86-6.97l-2.53.72s.03 1.65-.83 2.67Z" fill="#0088C0"/></svg>