<!-- by TradingView --><svg width="18" height="18" viewBox="0 0 18 18" fill="none" xmlns="http://www.w3.org/2000/svg">
<rect width="18" height="18" fill="#F0F3FA"/>
<path fill-rule="evenodd" clip-rule="evenodd" d="M5 4V8H6C6 8 5.99347 6.89002 6 6.66679C6.01499 6.15448 6.27462 5.68515 6.69425 5.35024C7.02096 5.08948 7.4541 5 7.84647 5C8.23883 5 10.2188 5 10.2188 5L5.04582 13V14H9.02291H13V10H12C12 10 12 10.6514 12 11.0126C12 11.4984 12.0231 11.9732 11.6746 12.449C11.3261 12.9248 10.4522 13 9.91065 13C9.04061 13 7.65625 13 7.65625 13L12.7 5V4H5Z" fill="#004C19"/>
</svg>
