<!-- by TradingView --><svg width="18" height="18" viewBox="0 0 18 18" fill="none" xmlns="http://www.w3.org/2000/svg">
<rect width="18" height="18" fill="#F0F3FA"/>
<path d="M12.5678 11H10.2144C10.096 11 10 10.9178 10 10.8135C10 10.7568 10.0284 10.7035 10.0782 10.6676C11.15 9.89628 12.5738 7.55468 13 7.21875C13 6.4375 12.6367 5.94066 12.4643 5.6875C11.5926 5.73813 9.87356 6 8.65517 6C7.13218 6 6.5 5.4557 6.5 4.8481C6.5 4.24051 6.91233 3.43038 6.9698 3.3038C6.99075 3.25766 7.00406 3.2048 7 3.15625C6.99292 3.07158 6.93302 3 6.76865 3C6.51003 3 4 4.92405 4 6.36709C4 7.52152 5.66667 7.67906 6.5 7.6875H7.77701C7.9088 7.6875 7.99269 7.77237 8 7.86389C8.00495 7.92579 7.97486 7.99073 7.90087 8.03452C6.65932 8.76927 5 10.5807 5 12.0506C5 13.4278 6.03065 13.9241 6.72988 14H12.5678C13.3269 13.963 14 13.1698 14 12.5C14 11.8031 13.3588 11 12.5678 11Z" fill="#005098"/>
</svg>
