<!-- by TradingView --><svg width="18" height="18" viewBox="0 0 18 18" xmlns="http://www.w3.org/2000/svg"><path fill="#AEC7E5" d="M0 0h18v18H0z"/><path d="m10.42 3.76.31.2-2.87 4.69h3.06l-3.74 5.59-.31-.2L10.24 9H7.18l3.24-5.24Z" fill="#2B2B2B"/><path d="M6.3 6.6h8.17l-2.7 4.4H3.5l2.8-4.4Zm.22.4-2.14 3.5h7.1L13.77 7H6.52ZM11 4a1 1 0 1 1-2 0 1 1 0 0 1 2 0Z" fill="#2B2B2B"/><circle cx="7" cy="14" r="1" fill="#2B2B2B"/><path d="M7 7a1 1 0 1 1-2 0 1 1 0 0 1 2 0Z" fill="#0076E1"/><path d="M5 11a1 1 0 1 1-2 0 1 1 0 0 1 2 0Z" fill="#FF3053"/><path d="M15 7a1 1 0 1 1-2 0 1 1 0 0 1 2 0Z" fill="#FFD53E"/><path d="M13 11a1 1 0 1 1-2 0 1 1 0 0 1 2 0Z" fill="#00AC70"/><path d="M11 8.7a.7.7 0 1 1-1.41 0 .7.7 0 0 1 1.41 0Z" fill="#2B2B2B"/><circle cx="7.71" cy="8.71" fill="#2B2B2B" r=".71"/></svg>