<!-- by TradingView --><svg width="18" height="18" viewBox="0 0 18 18" xmlns="http://www.w3.org/2000/svg"><path fill="#F0F3FA" d="M0 0h18v18H0z"/><path d="M3.75 11a1.6 1.6 0 0 1-.68-.16c-.22-.1-.41-.26-.57-.44a2.22 2.22 0 0 1 .05-2.83c.16-.19.36-.33.58-.43a1.61 1.61 0 0 1 1.36.02c.21.1.4.26.57.44A2.22 2.22 0 0 1 5 10.43c-.17.19-.36.33-.58.43-.22.1-.45.14-.68.14Zm.07-.74c.28 0 .55-.14.75-.38a1.47 1.47 0 0 0 .21-1.38 1.3 1.3 0 0 0-.23-.4c-.1-.12-.22-.21-.35-.27a.93.93 0 0 0-.41-.1.99.99 0 0 0-.75.38 1.47 1.47 0 0 0-.21 1.38c.05.16.13.3.23.41.1.12.22.2.35.27.13.06.27.1.4.1ZM8.5 9.43c-.68.53-1.8.18-2.08-.62-.12-.36-.06-1.03.22-1.3.7-.66 1.91-.72 2.51.09.42.57.4 1.68.18 2.27-.46 1.2-1.85 1.5-2.84.64-.05-.05-.05-.1-.02-.15l.3-.37c.03-.05.07-.06.13-.03.13.06.33.23.51.26.65.14 1.09-.08 1.3-.65.1-.28.03-.32-.2-.14Zm.24-1.03a.57.57 0 0 0-.07-.26.7.7 0 0 0-.19-.22.89.89 0 0 0-.27-.14 1.03 1.03 0 0 0-.93.15.63.63 0 0 0-.24.5c0 .08.03.17.07.25.04.09.1.16.19.22.08.07.17.12.27.15a1.03 1.03 0 0 0 .93-.16c.15-.13.24-.3.24-.49ZM12.97 7c.1 0 .18.01.26.04.04.02.07.05.1.1l.9 2.68c.02.06.04.06.06 0l.98-2.71c.02-.07.07-.1.15-.1h.5c.07 0 .1.03.07.1l-1.36 3.76a.15.15 0 0 1-.11.1.82.82 0 0 1-.47-.01.16.16 0 0 1-.11-.1l-.9-2.55c0-.03-.03-.04-.07-.04-.04 0-.07.01-.08.04-.26.8-.56 1.64-.89 2.55a.16.16 0 0 1-.1.1.82.82 0 0 1-.48 0 .15.15 0 0 1-.11-.1L9.95 7.12c-.02-.07 0-.11.08-.11h.5c.07 0 .12.04.14.1l.98 2.72c.02.06.04.06.06 0l.91-2.68a.15.15 0 0 1 .1-.1.78.78 0 0 1 .25-.04Z"/></svg>