<!-- by TradingView --><svg width="18" height="18" viewBox="0 0 18 18" xmlns="http://www.w3.org/2000/svg"><path fill="#DDB805" d="M0 0h18v18H0z"/><path fill-rule="evenodd" d="M14.54 10.53c.3-.48.46-1 .46-1.53s-.16-1.05-.46-1.53c-.3-.49-.74-.93-1.3-1.3a6.76 6.76 0 0 0-1.94-.87C10.57 5.1 9.79 5 9 5c-1.6 0-3.12.42-4.24 1.17C3.63 6.92 3 7.94 3 9s.63 2.08 1.76 2.83A7.77 7.77 0 0 0 9 13c.79 0 1.57-.1 2.3-.3.72-.2 1.39-.5 1.94-.87.56-.37 1-.81 1.3-1.3Zm-1.42 1.17c1.09-.72 1.7-1.69 1.7-2.7 0-1.01-.61-1.98-1.7-2.7A7.63 7.63 0 0 0 9 5.18c-1.54 0-3.02.4-4.12 1.12C3.8 7.02 3.18 8 3.18 9c0 1.01.61 1.98 1.7 2.7A7.63 7.63 0 0 0 9 12.82c1.54 0 3.02-.4 4.12-1.12Z" fill="#F7F6EB"/><path d="M8.79 7.2c.06-.17.16-.33.33-.35.37-.06.52.5.53.77.01.31-.06.93-.48.91-.24-.01-.36-.23-.41-.45a1.6 1.6 0 0 1 .03-.89Z" fill="#F4F4F3"/><path fill-rule="evenodd" d="M12.88 11.45c1.02-.65 1.6-1.53 1.6-2.45 0-.92-.58-1.8-1.6-2.45A7.4 7.4 0 0 0 9 5.54a7.4 7.4 0 0 0-3.88 1.01C4.1 7.2 3.52 8.08 3.52 9c0 .92.58 1.8 1.6 2.45A7.4 7.4 0 0 0 9 12.46a7.4 7.4 0 0 0 3.88-1.01ZM7.85 6.7a7.23 7.23 0 0 0 .33-.17.05.05 0 0 0 .02-.03.05.05 0 0 0-.02-.03c-.05-.05-.18-.07-.26-.07-.1 0-.21.07-.3.14-.3.24-.58.56-.74.93-.04.1-.07.2-.07.3-.01.23.04.45.15.66.1.2.27.32.48.37.27.05.5-.03.7-.23.2-.2.22-.43.15-.7-.08-.26-.3-.4-.57-.42a.46.46 0 0 0-.35.13c-.08.06-.02.15.07.13l.15-.02c.06-.01.13 0 .19.02.2.06.24.29.23.48-.01.23-.13.36-.35.38-.23.03-.4-.1-.49-.32-.11-.3-.03-.67.12-.94.06-.1.13-.22.24-.35.09-.12.2-.21.32-.26Zm2.92 1.87c-.16-.02-.28-.12-.35-.3-.13-.3-.04-.7.12-.98.08-.14.18-.28.29-.4.04-.06.1-.11.17-.14l.35-.16a.18.18 0 0 0 .07-.06l.01-.01a.05.05 0 0 0 0-.05l-.02-.01a.53.53 0 0 0-.27-.06c-.1 0-.21.09-.29.15-.25.2-.44.42-.6.66-.12.2-.22.43-.2.67 0 .28.11.6.33.78.22.17.53.2.77.08.17-.1.3-.22.38-.4a.57.57 0 0 0 .03-.26c-.02-.25-.1-.44-.33-.56-.12-.06-.32-.1-.45-.04-.07.02-.26.1-.19.2.04.05.13.03.18.02h.01a.38.38 0 0 1 .34.06c.12.1.13.3.12.45-.02.28-.22.4-.47.36Zm-4.42.11a.31.31 0 0 0 .07-.2A35.5 35.5 0 0 0 6.4 7.1c0-.06-.03-.15-.08-.19H6.3c-.04-.03-.1-.07-.1-.12 0-.03 0-.05.04-.07.11-.05.21-.1.3-.16.07-.04.13-.04.19 0 .03.02.03.05.02.08a24.17 24.17 0 0 0-.03 1.87c0 .07.03.1.07.16a.05.05 0 0 1 0 .07c-.07.08-.28.07-.37.05-.06 0-.11-.05-.07-.12Zm3.06.06c.25-.14.4-.37.48-.64.08-.27.09-.56 0-.85-.07-.3-.29-.6-.6-.65-.52-.09-.8.45-.86.9l-.02.33a1.17 1.17 0 0 0 .37.85c.08.07.16.11.24.12.14.02.27 0 .39-.06Zm-4.23 1.49h-.03a157.2 157.2 0 0 1-1.07-.02.86.86 0 0 1-.1-.16.01.01 0 0 1 .01-.01h5.62v-.01L9.5 10l-.25-.04a7.26 7.26 0 0 0-.52-.09c-.47-.05-.9-.11-1.32-.18-.25-.05-.5-.13-.75-.2l-.11-.04a4.5 4.5 0 0 0-.84-.2c-.36-.04-.71.02-1.04.16a69.52 69.52 0 0 0-.82.36l-.06-.15v-.02h.01l.7-.33a2.08 2.08 0 0 1 1.17-.22c.46.05.9.19 1.33.34l.28.07c.29.06.57.1.86.14l.14-.01.71-.2a1.32 1.32 0 0 1 .76-.02l.18.06c.13.04.27.08.4.1.1.02.2.03.32.02.17 0 .34-.03.52-.06.22-.05.4-.11.55-.19l.3-.15c.25-.1.51-.13.8-.1.2.01.39.1.59.22a8.86 8.86 0 0 0 .77.4v.02c0 .05-.03.1-.06.15h-.02a21.05 21.05 0 0 1-.88-.47 1.35 1.35 0 0 0-1.21 0l-.16.08a1.7 1.7 0 0 1-.58.21c-.3.07-.57.1-.82.09-.1 0-.23-.03-.36-.07l-.52-.15a.8.8 0 0 0-.39.01 26.47 26.47 0 0 0-.42.14l.08.01.15.02a12.73 12.73 0 0 1 1.05.31l.11.01H14c.02 0 .03.01.01.03l-.07.13a.06.06 0 0 1-.05.03h-.98c-.02 0-.02 0-.01.02.17.17.31.38.42.61v.04a.7.7 0 0 1-.1.08l-.03-.01c-.1-.24-.25-.47-.44-.63-.1-.1-.19-.13-.32-.11h-.01v.01c.23.26.43.55.6.85.02.02.01.03 0 .04l-.09.07h-.01a.02.02 0 0 1-.02 0l-.21-.34c-.14-.21-.3-.41-.48-.6a.1.1 0 0 0-.08-.03 52.97 52.97 0 0 1-.41.01c.18.44.31.9.43 1.36 0 .02 0 .04-.02.05l-.1.04c-.01 0-.03 0-.03-.02a12.8 12.8 0 0 0-.47-1.44h-.1v.01l.37 1.52v.02l-.01.01-.11.04-.03-.01-.4-1.57c0-.01 0-.02-.02-.02h-.28l-.3 1.86a.04.04 0 0 1-.02.04l-.13.02-.01-.02.3-1.89-.02-.01h-.04l-.02.02-.37 1.9c0 .02-.01.03-.03.03l-.11.02c-.02 0-.03 0-.03-.03l.38-1.93a.01.01 0 0 0 0-.01h-.27l-.01.02a8.35 8.35 0 0 1-.58.97l-.63 1.03a.06.06 0 0 1-.06.03h-.12c-.02 0-.02 0-.01-.02a203.77 203.77 0 0 1 1.22-2.03h-.17l-1.27 2.02a.05.05 0 0 1-.04.02h-.12c-.03 0-.03-.01-.02-.04l1.24-1.97c.01-.02 0-.03-.02-.03h-.2l-.1.12a1486.62 1486.62 0 0 0-1.72 1.8.06.06 0 0 1-.06.02l-.12-.02c-.02 0-.02-.02 0-.03l1.77-1.88v-.01h-.23a.06.06 0 0 0-.06.04c-.05.1-.1.22-.19.3a2 2 0 0 1-.38.28c-.08.04-.15.1-.22.15h-.02a.18.18 0 0 0-.05.08c-.05.1-.1.2-.17.29l-.12.11-.06.05-.13.08a.78.78 0 0 0-.11.06l-.02.01c-.1.07-.2.14-.27.23a2.37 2.37 0 0 1-.15.14h-.03l-.11-.03a4.05 4.05 0 0 1 .25-.3c.12-.11.25-.2.37-.26a.6.6 0 0 0 .12-.08l.04-.04a.48.48 0 0 0 .1-.09c.05-.06.1-.14.14-.23.02-.06.05-.1.08-.13.1-.08.21-.16.33-.22.1-.06.22-.14.33-.25a.5.5 0 0 0 .1-.18v-.01h-.38c-.03 0-.05 0-.07.02l-.5.31-.11.08-.22.14a88.59 88.59 0 0 0-.7.37l-.03.02a2.5 2.5 0 0 1-.28.17 7.58 7.58 0 0 0-.6.33l-.13-.07v-.02a5.91 5.91 0 0 1 .8-.47l.1-.06.22-.14a22.88 22.88 0 0 1 .65-.34 6.4 6.4 0 0 1 .48-.34.2.2 0 0 0-.12.02 269.72 269.72 0 0 0-1.1.57 338.87 338.87 0 0 0-1.32.63h-.03l-.12-.08c-.02 0-.02-.02 0-.03a173.41 173.41 0 0 0 2.22-1.1v-.01a127.28 127.28 0 0 0-.6.02 806.45 806.45 0 0 0-2.25.67l-.03-.01-.09-.1v-.02a269.52 269.52 0 0 0 1.8-.56 8.17 8.17 0 0 1-.5.02l-1.48.35c-.02 0-.04 0-.05-.02l-.08-.09c-.02-.01-.01-.03 0-.03l.9-.22c.03 0 .03 0 0-.01Z" fill="#F4F4F3"/></svg>