<!-- by TradingView --><svg width="18" height="18" viewBox="0 0 18 18" xmlns="http://www.w3.org/2000/svg"><path fill="#F0F3FA" d="M0 0h18v18H0z"/><path d="M7 4c-.27 0-.52.09-.7.24a.75.75 0 0 0-.3.58V7.8c0 .21.1.42.3.58.18.15.43.24.7.24.27 0 .52-.1.7-.24.2-.16.3-.37.3-.58v-3a.7.7 0 0 0-.08-.3.82.82 0 0 0-.21-.27c-.1-.08-.2-.14-.33-.18A1.18 1.18 0 0 0 7 4Z" fill="#040435"/><path d="M7 9.38c-.27 0-.52.08-.7.23a.75.75 0 0 0-.3.58v3c0 .2.1.42.3.57.18.15.43.24.7.24.27 0 .52-.09.7-.24.2-.15.3-.36.3-.58v-3c0-.1-.03-.2-.08-.3a.83.83 0 0 0-.22-.27 1.18 1.18 0 0 0-.7-.24ZM11 4c-.27 0-.52.09-.7.24a.75.75 0 0 0-.3.58V7.8c.01.2.12.4.3.55.2.15.44.23.7.23.26 0 .5-.08.7-.23.18-.14.29-.34.3-.55v-3a.7.7 0 0 0-.08-.3.82.82 0 0 0-.21-.27c-.1-.08-.21-.14-.33-.18a1.18 1.18 0 0 0-.39-.06Z" fill="#FF142D"/><path d="M11 9.38c-.27 0-.52.08-.7.23a.75.75 0 0 0-.3.58v3c.01.2.12.4.3.55.2.14.44.22.7.22.26 0 .5-.08.7-.22.18-.15.29-.35.3-.56v-3a.7.7 0 0 0-.08-.3.82.82 0 0 0-.21-.27 1.2 1.2 0 0 0-.71-.24Z" fill="#040435"/></svg>