<!-- by TradingView --><svg width="18" height="18" viewBox="0 0 18 18" xmlns="http://www.w3.org/2000/svg"><path fill="#F0F3FA" d="M0 0h18v18H0z"/><path d="m4.04 7.75.99.16c0-.68.4-1.04.89-1.04.5 0 .8.4.8.71 0 .64-.7.78-1.05.77v.84c1.25 0 1.3.64 1.3.92 0 .27-.18 1-1.05 1-.7 0-.95-.73-.99-1.1l-.93.15c.08.9.68 1.84 1.92 1.84C7.16 12 8 11.13 8 10.1c0-.8-.53-1.28-.8-1.42.17-.1.52-.48.52-1.06C7.72 6.68 6.91 6 5.87 6 4.55 6 4.1 7.16 4.04 7.75ZM9 6h2.5C12.88 6 14 7.08 14 8.41v1.16A2.47 2.47 0 0 1 11.48 12H9v-1.2h1v.2h1.37c.9 0 1.63-.67 1.63-1.49V8.5C13 7.67 12.27 7 11.37 7H10v.8H9V6Z" fill="#171C61"/><path d="M9 8h1v.6H9V8ZM9 9h1v.6H9V9Z" fill="#D6071C"/></svg>