<!-- by TradingView --><svg width="18" height="18" viewBox="0 0 18 18" xmlns="http://www.w3.org/2000/svg"><path fill="#F0F3FA" d="M0 0h18v18H0z"/><path fill-rule="evenodd" d="M14 5H9v8h5V5Zm-1 2.78C13 6.42 12.64 6 11.49 6H10v6h1.25V9.71h.24c1.15 0 1.51-.43 1.51-1.79v-.14Zm-1.14 0v.14c0 .75-.07.94-.37.94h-.24v-2h.24c.3 0 .37.17.37.92Z" fill="#949399"/><path fill-rule="evenodd" d="M9 5H4v8h5V5ZM8 9.97c0-.73-.14-1-.7-1.12.49-.11.7-.43.7-1.1C8 6.5 7.54 6 6.47 6 5.44 6 5 6.47 5 7.62V8h1.25v-.73c0-.3.01-.41.23-.41.23 0 .27.1.27.41v.74c0 .31-.14.44-.36.44h-.64v.83h.66c.23 0 .34.16.34.48v.93c0 .32-.02.45-.25.45-.22 0-.25-.14-.25-.45V10H5v.38C5 11.52 5.44 12 6.48 12 7.58 12 8 11.5 8 10.18v-.2Z" fill="#5D5D5D"/></svg>