<!-- by TradingView --><svg width="18" height="18" viewBox="0 0 18 18" xmlns="http://www.w3.org/2000/svg"><path fill="#F0F3FA" d="M0 0h18v18H0z"/><path d="M12.21 5.79a3.25 3.25 0 0 0-6.42 0 3.25 3.25 0 0 0 0 6.42 3.24 3.24 0 0 0 6.42 0 3.25 3.25 0 0 0 0-6.42Zm-.02 5.38a3.24 3.24 0 0 0-1.08-1.88l-.74.74c.36.28.62.66.75 1.09a2.22 2.22 0 0 1-1.1-.75l-.73.74c.48.56 1.15.95 1.88 1.08a2.21 2.21 0 0 1-4.34 0c.73-.13 1.4-.51 1.88-1.08l-.73-.73c-.28.35-.67.6-1.1.74.13-.43.4-.81.75-1.1l-.74-.73a3.25 3.25 0 0 0-1.08 1.88 2.21 2.21 0 0 1 0-4.34c.13.73.52 1.4 1.08 1.88l.74-.74a2.22 2.22 0 0 1-.75-1.09c.44.13.82.4 1.1.75l.73-.74a3.24 3.24 0 0 0-1.88-1.08 2.21 2.21 0 0 1 4.34 0c-.73.13-1.4.52-1.88 1.08l.74.74c.28-.36.66-.62 1.09-.75-.13.43-.4.82-.74 1.1l.73.73c.56-.48.95-1.15 1.08-1.88a2.21 2.21 0 0 1 0 4.34Z" fill="#0083B6"/></svg>