<!-- by TradingView --><svg width="18" height="18" viewBox="0 0 18 18" xmlns="http://www.w3.org/2000/svg"><path fill="#ED1B24" d="M0 0h18v18H0z"/><path fill-rule="evenodd" d="M3 9.8c0 .97 1.05 1.2 1.57 1.2.48-.03 1.43-.33 1.43-1.31 0-.77-.6-1.28-.89-1.44.56-.36.74-.8.74-1C5.85 6.36 5.14 6 4.57 6c-.65 0-1.4.38-1.4 1.24 0 .69.47 1.13.7 1.26A1.4 1.4 0 0 0 3 9.8Zm1.5-2-.18-.13c-.09-.06-.29-.28-.29-.66 0-.4.19-.64.5-.64.3 0 .6.27.6.82 0 .43-.2.75-.3.85l-.33-.23Zm.08 1.18.22.15c.1.07.33.33.33.78s-.22.73-.57.73-.7-.32-.7-.95c0-.5.23-.87.35-.99l.37.28Zm3.15 1.53c-.12.11-.37.28-.63.28-.35 0-1.1-.42-1.1-1.75S6.72 7 7.5 7C8.3 7 9 7.92 9 9.26c0 1.32-.41 3.27-2.61 3.74-.07.01-.12-.06-.12-.16 0-.08.04-.15.1-.16.61-.14 1.69-.94 1.69-3.2 0-2.97-1.34-2.23-1.2-.85.12 1.3.4 1.63.83 1.66.04 0 .08.06.08.12 0 .04-.02.08-.04.1Zm2.37.28c.25 0 .5-.17.63-.28.02-.02.04-.06.04-.1 0-.06-.04-.11-.08-.12-.44-.03-.71-.36-.84-1.66-.13-1.38 1.2-2.12 1.2.85 0 2.26-1.07 3.06-1.7 3.2-.05.01-.09.08-.09.16 0 .1.06.17.12.16 2.2-.47 2.62-2.42 2.62-3.74C12 7.92 11.3 7 10.5 7 9.73 7 9 7.7 9 9.04c0 1.33.75 1.75 1.1 1.75ZM15 9c0 1.1-.67 2-1.5 2S12 10.1 12 9s.67-2 1.5-2 1.5.9 1.5 2Zm-.92 0c0 .95-.26 1.71-.58 1.71-.32 0-.58-.76-.58-1.71s.26-1.71.58-1.71c.32 0 .58.76.58 1.71Z" fill="#fff"/></svg>