<!-- by TradingView --><svg width="18" height="18" viewBox="0 0 18 18" xmlns="http://www.w3.org/2000/svg"><path fill="#F0F3FA" d="M0 0h18v18H0z"/><path d="M9 12.71c.57-.01 1-.2 1-.85V6.14c0-.67-.43-.85-1-.85V5h4v.3c-.57-.01-1 .15-1 .84v5.72c0 .66.4.85 1 .85V13H9v-.29Z" fill="#ED1C24"/><path d="M7.6 11.86c-.23.37-.67.57-1.1.57-1.77 0-1.8-2.3-.7-3.14.64.28 1.63.33 1.88 1.1a.87.87 0 0 1 .62-.25c.29 0 .56.1.7.29v-.29c0-1-.56-1.42-1.44-1.77.6-.38 1.16-.9 1.16-1.66C8.72 5.65 7.73 5 6.78 5c-1.3 0-2.5.5-2.5 2 0 .9.4 1.58 1.1 2C4.64 9.42 4 10.02 4 11c0 1.27 1.11 2 2.22 2 .97 0 2.07-.28 2.5-1.14-.24-.4-1.11 0-1.11 0ZM6.5 5.57c.7 0 1.25.4 1.25 1.14 0 .53-.28 1.15-.7 1.43-.64-.27-1.66-.63-1.66-1.48 0-.62.52-1.09 1.1-1.09Z" fill="#010101"/><path d="M8 11c0-.27.22-.5.5-.5.27 0 .5.23.5.5a.5.5 0 0 1-.5.5.5.5 0 0 1-.5-.5Z" fill="#010101"/></svg>