<!-- by TradingView --><svg width="18" height="18" viewBox="0 0 18 18" xmlns="http://www.w3.org/2000/svg"><path fill="#E31E24" d="M0 0h18v18H0z"/><path d="M6.16 12.25V14h-.83v-1.75h-.46l.37-1.57-.54.74-.7-.37L5.41 8.4h1.74l1.41 2.65-.7.37-.54-.74.37 1.57h-.46V14h-.82v-1.75h-.25ZM11.6 12.13V14h-.83v-3.44l-.62.86-.7-.37 1.4-2.65h1.74L14 11.05l-.7.37-.63-.86V14h-.83v-1.87h-.24Z" fill="#fff"/><circle cx="6.5" cy="7.5" r=".5" fill="#fff"/><path d="M11 4.69 9.04 3 4 7.4l.5.6 4.54-3.96 4.47 3.84.49-.61-2-1.72V4h-1v.69Z" fill="#fff"/><circle cx="11.5" cy="7.5" r=".5" fill="#fff"/><ellipse cx="9" cy="10.56" rx=".36" ry=".34" fill="#fff"/><path d="m8.04 11.16.29-.25.4.34h.53l.4-.34.29.25-.6.58V14h-.31v-1.2h-.08V14h-.32v-2.25l-.6-.6Z" fill="#fff"/></svg>