<!-- by TradingView --><svg width="18" height="18" viewBox="0 0 18 18" xmlns="http://www.w3.org/2000/svg"><path fill="#F0F3FA" d="M0 0h18v18H0z"/><path d="m6.74 10.8-.48-1.26.63-.05.44 1.03c.1.22.26.34.33.37.13-.03.25-.2.29-.3l.4-1.2.4-.01c-.1.26-.26.78-.35 1.1l-.07.21c-.05.2.09.23.16.23h.17c.02 0 .04.02.04.04s-.02.04-.04.04h-2a.04.04 0 0 1-.04-.04c0-.02.02-.04.04-.04h.02c.08 0 .07-.08.06-.12Zm-3.13.1h-.13a.05.05 0 0 0-.05.05c0 .03.02.05.05.05h1.25c.02 0 .04-.02.04-.05a.05.05 0 0 0-.04-.04h-.18c-.18 0-.16-.17-.13-.26L4.8 9.6l-.4.05-.4.99c-.1.2-.3.26-.4.27Zm6.2-1.47.55 1.4c0 .03 0 .09-.07.09h-.03a.04.04 0 0 0-.04.04c0 .02.02.04.04.04h2.94c.02 0 .04-.02.04-.04a.04.04 0 0 0-.04-.04h-.28c-.08 0-.27-.08-.27-.35v-.99L12 9.53v.93c0 .15-.06.46-.3.46h-.08c-.28 0-.5 0-.64-.32a36 36 0 0 1-.5-1.15l-.66-.02Z" fill="#00315E"/><path d="M12 9.06V6.54c0-.2-.13-.35-.25-.35h-.28c-.04 0-.07-.04-.07-.1 0-.04.03-.09.07-.09h1.82c.4-.03 1.19.22 1.19 1.48s-.73 1.82-1.1 1.95l-.25-.13c.23-.08.68-.47.68-1.45 0-1.23-.6-1.49-.91-1.49h-.1c-.08 0-.13.1-.13.2V9.3L12 9.06ZM9.3 6.09l-.93 3.19h.4l.46-1.68h.03l.4 1.5.66-.06-.86-2.95c-.01-.04-.04-.06-.06-.07-.04 0-.08.02-.1.07Zm-3.7 0L4.5 9.28h.47L5.5 7.6h.04l.45 1.5.78-.06-1-2.95a.1.1 0 0 0-.07-.07c-.05 0-.1.02-.1.07Z" fill="#03669C"/><path d="M9.64 9.28A41.6 41.6 0 0 0 2 9.97v-.05c2.31-.7 4.45-1.07 7.64-1.07 3.18 0 5.57.71 6.36 1.07l-.02.05c-.86-.21-3.36-.67-6.34-.69Z" fill="#0174A8"/></svg>