<!-- by TradingView --><svg width="18" height="18" viewBox="0 0 18 18" xmlns="http://www.w3.org/2000/svg"><path fill="#F0F3FA" d="M0 0h18v18H0z"/><path d="m9.4 10.87-.3.07a4.57 4.57 0 0 1-1.7-.14v.03c.3.3.57.63.78 1 .08.12.13.25.2.37l.13.28c-.3.02-.6.02-.9 0-.23-.01-.41-.04-.54-.08a1.5 1.5 0 0 1-.97-.94 8.13 8.13 0 0 0-.09-.24l-.06.17c-.06.16-.18.44-.23.64-.09.36-.22.74-.07 1.1.23.56.86.53 1.35.54V14H4v-.33c.4-.25.8-.46 1.02-.89.08-.15.26-.6.26-.6L8.88 3h.24c1.23 3.1 2.4 6.23 3.67 9.32l.2.52c.2.47.52.74 1.01.83V14h-3.67v-.33c.25 0 .52-.01.76-.08.17-.06.33-.15.36-.35.03-.26-.06-.5-.15-.74-.88-2.53-2.83-7.51-2.83-7.51s-1.1 3.16-1.82 4.65c.1-.07.23-.14.38-.2.18-.07.37-.1.57-.1.4 0 .8.14 1.07.43a5.17 5.17 0 0 1 .73 1.1Z" fill="#0F522C"/><path d="M9.1 10.94a11.2 11.2 0 0 1 .52 1.1c0 .02 0 .03-.02.04l-1.22.12a5.1 5.1 0 0 1-.2-.38 4.62 4.62 0 0 0-.78-1.02h.02a4.57 4.57 0 0 0 1.68.15Z" fill="#fff"/><path d="m8.51 12.48-.13-.28 1.22-.12c.02 0 .02-.02.02-.03a11.18 11.18 0 0 0-.52-1.1l.3-.08a25.9 25.9 0 0 1 .4.84c.08.2.13.38.2.58-.34.05-.67.12-1.01.16l-.48.03Z" fill="#007849"/><path d="M8.83 10.66a5.4 5.4 0 0 1-1.12-.08c-.24-.05-.49-.14-.7-.21l-.42-.2a.04.04 0 0 1-.01-.05c.24-.28.58-.45.96-.49.16-.01.32.03.5.09.41.13.69.56.89.92.02.04-.09.02-.1.02ZM8.04 12.2c-.28 0-.58-.02-.85-.09a.89.89 0 0 1-.25-.09 1.26 1.26 0 0 1-.61-1.31l.06-.27a.02.02 0 0 1 .03-.01 4.26 4.26 0 0 1 1.62 1.78Z" fill="#fff"/><path d="M8.41 10.15a3.37 3.37 0 0 1 .26.36h-.01c-.17.02-.31.01-.45 0l-.6-.11a2.37 2.37 0 0 1-.4-.12 28.83 28.83 0 0 1-.4-.17.03.03 0 0 1 0-.03c.07-.06.14-.1.22-.15.3-.18.63-.2.97-.08.15.05.29.15.41.3ZM6.5 10.64a4.49 4.49 0 0 1 1.29 1.4h-.01a2.1 2.1 0 0 1-.6-.07.95.95 0 0 1-.35-.2 1.15 1.15 0 0 1-.35-1.13h.01ZM8.02 11.34l-.23-.3c0-.02 0-.04.02-.03.1 0 .18.03.28.04a7.54 7.54 0 0 0 .95.03c.14.29.28.57.4.86 0 .02 0 .03-.02.04a9.64 9.64 0 0 1-.97.06c-.14-.08-.33-.55-.43-.7Z" fill="#00A749"/></svg>