<!-- by TradingView --><svg width="18" height="18" viewBox="0 0 18 18" xmlns="http://www.w3.org/2000/svg"><path fill="#F0F3FA" d="M0 0h18v18H0z"/><path fill-rule="evenodd" d="M5.97 5h8.1L15 7.14l-.46 1.03h-.73l.37 1.16L12.43 13H3.84L3 11.83 4.69 8h2.95l.28-.67H5.97l-.64-1.02L5.97 5Zm3.7.33H14l-.63 1.34h-2.6l-.7 1.66h1.6l-.54 1H9.65l-.98 2.34H7l2.67-6.34Zm4.23 2.33.47-1 .3.58-.36.76H11l.2-.34h2.7ZM12 12l1.67-3.67.3 1-1.64 3.34H4L3.48 12H12Zm-.67-1.33H10.2L10 11h1.15l.18-.33ZM6 6.67h2.17L8 7H6.2L6 6.67ZM9.75 10h1.92l-.1.34h-1.54l-.3.66h-.4l.42-1Zm-3.7.67H7l-.38.66h-.95l.37-.66ZM5.62 10h1.7l-.11.34H5.94l-.5 1H5L5.63 10Z"/></svg>