<!-- by TradingView --><svg width="18" height="18" viewBox="0 0 18 18" fill="none" xmlns="http://www.w3.org/2000/svg">
<rect width="18" height="18" fill="#F0F3FA"/>
<path d="M10.6 12V8H11.92L12.55 10.3775L13.18 8H14.5V12H13.525V9.09375L12.82 12H12.28L11.575 9.09375V12H10.6Z" fill="#015289"/>
<path fill-rule="evenodd" clip-rule="evenodd" d="M3 12L4.26471 8H5.29412L6.5 12H5.54545L5.32575 11.2727H4.16667L3.94915 12H3ZM4.78978 8.98853L4.32245 10.5453H5.17757L4.78978 8.98853Z" fill="#015289"/>
<path fill-rule="evenodd" clip-rule="evenodd" d="M7 12V8H9.0625C9.0625 8 9.8 8.08032 9.8 8.99598C9.8 9.76707 9.20312 9.91165 9.20312 9.91165C9.20312 9.91165 10 9.91114 10 10.875C10 11.8389 9.325 12 8.92836 12H7ZM8 9.56366V8.72729H8.50651C8.50651 8.72729 8.9 8.76304 8.9 9.12761C8.9 9.49217 8.53125 9.56366 8.53125 9.56366H8ZM8 10.3637V11.2728H8.5625C8.5625 11.2728 9 11.2728 9 10.7988C9 10.3249 8.53472 10.3637 8.53472 10.3637H8Z" fill="#015289"/>
<path d="M15 6.74767L14 5C14 5 13.026 6.2677 10.8024 6.62362C9.04748 6.90452 7.36962 6.45827 5.96337 6.74767C4.7337 7.00072 3.76562 8 3.76562 8C3.76562 8 5.35238 7.25 6.65625 7.25C8.25171 7.25 9.41233 7.64844 11.0625 7.64844C12.3793 7.64844 13.9541 7.44751 15 6.74767Z" fill="#8AD152"/>
<path d="M3 6.30882L3.77027 8C3.77027 8 4.22426 7.3627 6.02028 6.971C7.56053 6.63508 8.46285 6.99488 11.1092 6.58645C12.9469 6.30283 14 5 14 5C14 5 12.75 5.75 10.7812 5.75C8.8125 5.75 8.15625 5.3 5.5625 5.3C4.03125 5.3 3 6.30882 3 6.30882Z" fill="#01A6D8"/>
</svg>
