<!-- by TradingView --><svg width="18" height="18" viewBox="0 0 18 18" xmlns="http://www.w3.org/2000/svg"><path fill="#F0F3FA" d="M0 0h18v18H0z"/><path d="M8.65 3 6.18 5.47h2.47V3ZM9.35 3l2.47 2.47H9.35V3ZM9.5 15l2.5-2.5H9.5V15ZM8.5 15 6 12.5h2.5V15ZM3 9.5 5.5 12V9.5H3ZM3 8.5 5.5 6v2.5H3ZM15 9.5 12.5 12V9.5H15ZM15 8.5 12.5 6v2.5H15Z" fill="#20377A"/><path fill="#B1D46E" d="M6 6h2.5v2.47H6z"/><path fill="#94D09D" d="M6 9.5h2.5V12H6z"/><path fill="#FCC35A" d="M9.5 9.5H12V12H9.5z"/><path fill="#447AC0" d="M9.5 6H12v2.5H9.5z"/></svg>