<!-- by TradingView --><svg width="18" height="18" viewBox="0 0 18 18" xmlns="http://www.w3.org/2000/svg"><path fill="#F0F3FA" d="M0 0h18v18H0z"/><path d="m9.02 11.83.9-.56-1.7-1.42a.2.2 0 0 0-.1-.04.22.22 0 0 0-.18.05.19.19 0 0 0-.06.07c-.07.22.38.86.65 1.23l.49.67ZM12.95 13.22c-1.02-.54-1.96-1.03-3.03-1.95l-.9.56a4.63 4.63 0 0 0 2.82 1.86c.68.16 1.34.26 2 .31.03 0 .06 0 .09-.02a.14.14 0 0 0 .06-.08.12.12 0 0 0 0-.09.14.14 0 0 0-.06-.07l-.98-.52Z" fill="#6E9ED4"/><path d="m9.92 11.27-.9.56-1.47.75a.12.12 0 0 1-.11 0 .1.1 0 0 1-.04-.04.09.09 0 0 1-.02-.04c-.02-.18 1.07-.93 1.3-1.12l.68-.54c.42-.35 1.52-1.32 1.07-1.72a.18.18 0 0 0-.06-.03A12.56 12.56 0 0 0 8 9.3c-.05 0-.08.03-.1.08-.43 1.1-.86 2.22-1.31 3.32-.12.3-.23.59-.54.78-.55.37-1.19.53-1.9.5-.2-.02-.16-.41-.1-.51a60.1 60.1 0 0 0 2.13-4.3c.52-1.22.88-2.06 1.1-2.5.02-.05 0-.07-.05-.07-.34 0-.72.07-1.01.03-.52-.07-1.37-.5-1.22-1.07.07-.25.3-.36.67-.34.63.03 1.34.03 2.14 0 .14 0 .24-.06.3-.18.19-.42 1.1-2.98 2.1-1.7a.1.1 0 0 1 .02.12l-.56 1.51v.03l.01.04.03.01h.04c.8-.1 2.04-.25 2.6-.83.65-.48 1.71.59 1.17 1.1-.85.79-3 .91-4.35 1.04-.05 0-.09.03-.1.07L8.54 7.8c-.02.05 0 .07.07.07.95-.14 1.79-.2 2.52-.2 1.1 0 1.13.77.77 1.45a6.1 6.1 0 0 1-1.99 2.15Z" fill="#673200"/></svg>