<!-- by TradingView --><svg width="18" height="18" viewBox="0 0 18 18" xmlns="http://www.w3.org/2000/svg"><path fill="#F0F3FA" d="M0 0h18v18H0z"/><path d="M3.67 10H3l1.82-2.87c.1-.17.36-.17.47 0l2.08 3.34H15V11H7.07L6.1 9.44v.1H4.56L4.8 9h1.01l-.77-1.23L3.67 10Zm5.56-2.45V7H8.5C7.67 7 7 7.63 7 8.4v.2c0 .77.67 1.4 1.5 1.4h1.3v-.53H8.56c-.56 0-1.01-.42-1.01-.93v-.07c0-.52.45-.92 1-.92h.67Zm.75 1.9V10h1.63c.49 0 .88-.51.88-1v-.02c0-.49-.4-.89-.88-.89h-1c-.2 0-.35-.08-.35-.27 0-.2.16-.27.35-.27H12V7h-1.46a.84.84 0 0 0-.84.84c0 .46.37.8.84.8h1.04c.22 0 .35.21.35.43 0 .21-.13.39-.35.39h-1.6ZM13 7v3h2v-.55h-1.5V7H13Z" fill="#037CB4"/></svg>