<!-- by TradingView --><svg width="18" height="18" viewBox="0 0 18 18" fill="none" xmlns="http://www.w3.org/2000/svg">
<rect width="18" height="18" fill="#F0F3FA"/>
<path d="M11.6861 13L11.4652 9.54042L13.9999 7.31909V9.97162C13.9999 10.3735 13.8458 10.9704 13.6541 11.3328C13.2333 12.1284 12.4638 12.5413 11.6861 13Z" fill="#0C553F"/>
<path d="M10.4844 10.3732L5.53125 15H6.99497C7.04417 15 9.99741 13.7125 11.6866 13L10.4844 10.3732Z" fill="#CCD503"/>
<path fill-rule="evenodd" clip-rule="evenodd" d="M11.0376 3L11.6867 13L10.375 11.1562L5.78129 15H5.28179L6.54521 11.5492L5.0885 8.09559L11.0376 3ZM7.56254 8.375L9.61859 6.875L10.6603 9.34375L8.37793 10.5807L7.56254 8.375Z" fill="#07893F"/>
<path d="M7.56637 8.3828C7.56637 8.3828 5.19788 7.99999 5.14868 7.99109L6.77774 11.5643L8.38278 10.5859L7.56637 8.3828Z" fill="#7AD2FB"/>
<path d="M11.4652 9.54045L11.037 3C11.037 3 11.5379 3.157 11.7845 3.33395C12.3837 3.76394 12.6898 4.46808 13.0022 5.08163C13.5803 6.21707 14 7.33024 14 7.33024L11.4652 9.54045Z" fill="#7AD2FB"/>
<path d="M9.93747 4.5625L5.10553 8.09833L4.51501 6.58456C4.51501 6.58456 4.53925 6.48728 5.8634 5.5478C7.18754 4.60831 9.48608 3 10.5422 3H11.037L9.93747 4.5625Z" fill="#CAD204"/>
<path d="M4.51515 6.58435L6.77778 11.5491L5.3125 14.9999H5.1526C4.78125 13.9999 4 11.7187 4 11.2499C4 8.87889 4.12487 8.91982 4.20833 7.7536C4.26834 6.91518 4.51515 6.58435 4.51515 6.58435Z" fill="#0C553F"/>
</svg>
