<!-- by TradingView --><svg width="18" height="18" viewBox="0 0 18 18" xmlns="http://www.w3.org/2000/svg"><path fill="#F0F3FA" d="M0 0h18v18H0z"/><path d="M7.97 7h-.94c-.02 0-.03.02-.03.04v3.92c0 .02.01.04.03.04h.94c.02 0 .03-.02.03-.04V7.04C8 7.02 7.99 7 7.97 7ZM9.66 8.9v.01a.03.03 0 0 0 0 .03 441.97 441.97 0 0 1 2.11 2.03V11h-.01l-.01.01h-1.39a.16.16 0 0 1-.12-.05l-1.6-1.72a.41.41 0 0 1-.09-.14.47.47 0 0 1 .09-.46l1.48-1.58a.16.16 0 0 1 .12-.05h1.22c.08 0 .1.03.03.1L9.66 8.9Z" fill="#1F366A"/><path d="M4.87 7.06c-.08.3-.2.58-.34.82a.08.08 0 0 1-.07.05l-.38-.84c.26-.1.53-.12.79-.03Z" fill="#029BA5"/><path d="m5.5 10.31-.36-.84-.63-1.38c0-.02-.02-.02-.03-.02l-.01.01v-.15c.02 0 .05-.02.06-.05.15-.24.26-.52.34-.82.27.1.49.33.65.67A8167.88 8167.88 0 0 0 7 10.98l-.01.02H5.9c-.02 0-.03 0-.05-.02a12.23 12.23 0 0 1-.3-.65l-.05-.02Z" fill="#38BCAF"/><path d="m4.08 7.09.38.84v.15l-.6 1.33a.04.04 0 0 0 0 .04l.01.01h.02l1.25.01.36.84h-2l-.03.01-.02.03-.29.59-.04.04a.1.1 0 0 1-.05.02H2.02l-.01-.03a.05.05 0 0 1 0-.04L3.5 7.72c.14-.3.33-.52.58-.63Z" fill="#28A9E1"/><path fill-rule="evenodd" d="m13.07 9.74.01-.01 1.9-.01c.92.02 1.08-.92 1-1.77-.07-.74-.53-.94-1.1-.94h-2.84c-.03 0-.04.01-.04.04v3.9c0 .03.02.05.04.05h1.01V9.74l.02-.01Zm0-1.72-.01.03v.78l.03.01h1.52a.4.4 0 0 0 .41-.4v-.02a.41.41 0 0 0-.4-.41h-1.55Z" fill="#1F366A"/></svg>