<!-- by TradingView --><svg width="18" height="18" viewBox="0 0 18 18" xmlns="http://www.w3.org/2000/svg"><path fill="#F0F3FA" d="M0 0h18v18H0z"/><g opacity=".7" fill-rule="evenodd"><path d="M9 11a2 2 0 1 0 0-4 2 2 0 0 0 0 4Zm0-1a1 1 0 1 0 0-2 1 1 0 0 0 0 2Z" fill="#FEB747"/><path d="M9 14A5 5 0 1 0 9 4a5 5 0 0 0 0 10Zm0-1.56a3.44 3.44 0 1 0 0-6.88 3.44 3.44 0 0 0 0 6.88Z" fill="#EF0B28"/><path d="M9 12a3 3 0 1 0 0-6 3 3 0 0 0 0 6Zm0-.68a2.32 2.32 0 1 0 0-4.64 2.32 2.32 0 0 0 0 4.64Z" fill="#F04841"/></g></svg>