<!-- by TradingView --><svg width="18" height="18" viewBox="0 0 18 18" xmlns="http://www.w3.org/2000/svg"><path fill="#003C6E" d="M0 0h18v18H0z"/><path d="M7.8 4H11l2.19 7.75.14.36c.05.08.15.15.32.2.13.05.23.1.28.15.05.05.08.11.08.2 0 .23-.2.34-.62.34H9.45a.69.69 0 0 1-.38-.1.3.3 0 0 1-.14-.25c0-.09.02-.15.06-.2.04-.04.14-.1.29-.16.1-.05.17-.1.22-.15a.3.3 0 0 0 .06-.2c0-.07 0-.14-.02-.2L9.28 11H7l.21-.78h1.85L7.61 4.65l.2-.65Zm-.54 1.67.4 1.37-1.39 4.26c-.04.12-.06.24-.06.34 0 .28.15.48.46.6l.28.1c.17.07.26.18.26.33 0 .22-.2.33-.58.33h-2a.94.94 0 0 1-.46-.1.32.32 0 0 1-.17-.28c0-.13.12-.24.35-.32.21-.08.37-.15.47-.21.1-.07.2-.15.3-.26.15-.18.27-.42.36-.72l1.78-5.44Z" fill="#fff"/></svg>