<!-- by TradingView --><svg width="18" height="18" fill="none" xmlns="http://www.w3.org/2000/svg"><path fill="#F0F3FA" d="M0 0h18v18H0z"/><path d="M8.696 10l-.506 1L7 10.2c.547-.93 1.135-2.118 1.829-3.272 0 0 .386-.928 1.358-.928 1.153 0 1.253 1.182 1.253 1.182L12 11h-1.497l-.142-1H8.696zm1.605-1c-.094-.7-.189-1.27-.212-1.75h-.037c-.227.538-.551 1.068-.915 1.75h1.164z" fill="#05419E"/><path d="M11 5.674S8.642 3.576 6.274 4.078C4.843 4.38 4 5.844 4 7.338 4 10.687 7.066 14 10.838 14 12.272 14 14 13.121 14 12.223c.015-.425-.334-.708-.741-.704-.754 0-.839.481-2.42.481C8.258 12 5 10.05 5 6.687c-.02-1.416.9-2.386 2.315-2.401C9.17 4.266 11 5.674 11 5.674z" fill="#CB005E"/></svg>