<!-- by TradingView --><svg width="18" height="18" viewBox="0 0 18 18" xmlns="http://www.w3.org/2000/svg"><path fill="#877865" d="M0 0h18v18H0z"/><path d="m9.03 4 4.04 8.92H11.9L8.65 5.6 9.03 4ZM6.1 12.08c-.06.17-.07.31-.03.43.05.12.12.2.22.28.11.05.22.08.33.08h.12V13H4v-.13H4.12a1.35 1.35 0 0 0 1.2-.79h.78ZM9.03 4l.13.88-3.43 8.08h-.82l3.5-7.66.06-.15A6.73 6.73 0 0 0 8.91 4h.12Zm1.98 5.4v.38H6.74V9.4h4.27Zm.56 2.68h1.12c.14.29.32.5.55.62.22.12.44.17.65.17H14V13h-3.07v-.13h.12c.18 0 .33-.06.47-.2.13-.14.15-.34.05-.59Z" fill="#FDFFFD"/></svg>