<!-- by TradingView --><svg width="18" height="18" viewBox="0 0 18 18" xmlns="http://www.w3.org/2000/svg"><path fill="#C43491" d="M0 0h18v18H0z"/><path d="M2 11h.73L5.5 7.08V11H8v-.57H6V7.57h2V7H4.77L2 11ZM15.42 7v2.86L13.28 7h-.49v4h.59V8.14L15.52 11H16V7h-.58ZM8.28 9c0-1.12.89-2 2.02-2s2.02.88 2.02 2-.9 2-2.02 2a1.98 1.98 0 0 1-2.02-2Zm2.02 1.43c.82 0 1.48-.64 1.48-1.43 0-.79-.66-1.43-1.48-1.43S8.82 8.21 8.82 9c0 .79.66 1.43 1.48 1.43Z" fill="#fff"/><path d="M8.97 8.56c.77.07.93.26.9.35-.04.24-1.03.44-2.3.44-1.29 0-2.32-.2-2.32-.44 0-.23 1.19-.44 2.55-.44 0 0 .1 0 .1-.04 0-.05-.1-.04-.1-.04-1.93 0-2.96.28-2.96.66 0 .36 1.22.65 2.73.65 1.5 0 2.72-.3 2.72-.65 0-.2-.32-.48-1.33-.57 0 0-.07-.01-.08.03 0 .05.1.05.1.05Z" fill="url(#alvyat5kc)"/><defs><linearGradient id="alvyat5kc" x1="7.61" y1="8.52" x2="7.61" y2="11.35" gradientUnits="userSpaceOnUse"><stop stop-color="#fff"/><stop offset=".18" stop-color="#E6B9D5"/><stop offset=".32" stop-color="#D58BB9"/><stop offset=".6" stop-color="#BD4891"/></linearGradient></defs></svg>