<!-- by TradingView --><svg width="18" height="18" viewBox="0 0 18 18" xmlns="http://www.w3.org/2000/svg"><path fill="#F0F3FA" d="M0 0h18v18H0z"/><path d="M11 12.45A3.03 3.03 0 0 1 8.18 14C6.57 14 5 12.96 5 11.14c0-2.39 2.35-3.04 4.33-3.1C9.88 8 10.45 8 11 8v-.26c0-1.18-.9-1.95-1.96-1.95a3.2 3.2 0 0 0-2.33.99L5.56 5.53A4.83 4.83 0 0 1 9.27 4C11.87 4 13 5.67 13 8.29V14h-2v-1.55Zm0-2.95c-.51 0-1.05 0-1.56.04C8.6 9.59 7 9.86 7 10.96 7 11.82 8 12 8.7 12c1.33 0 2.3-.56 2.3-1.97V9.5Z" fill="#131A29"/></svg>