<!-- by TradingView --><svg width="18" height="18" viewBox="0 0 18 18" xmlns="http://www.w3.org/2000/svg"><path fill="#F0F3FA" d="M0 0h18v18H0z"/><path fill="#323237" d="M4 7.51h10v.64H4zM8.99 8.22l-4.68 1.9.23.67L9 8.99l4.46 1.8.23-.68L9 8.22h-.02ZM4.31 5.6l3.97 1.65L8.8 6h.49l-.23.32.66.93L13.7 5.6l-.25-.6-3.57 1.5-.17-.24.48-.81H8.33l-.4.96L4.56 5l-.25.6Z"/><path d="m5.25 11.88.41.51L9 9.98l3.34 2.41.41-.5L9 9.17l-3.75 2.7Z" fill="#323237"/><path d="m7.64 13.65-.51-.36L9 10.14l1.88 3.15-.52.36-1.05-1.8V14H8.7v-2.14l-1.05 1.79Z" fill="#323237"/></svg>