<!-- by TradingView --><svg width="18" height="18" viewBox="0 0 18 18" xmlns="http://www.w3.org/2000/svg"><path fill="#F0F3FA" d="M0 0h18v18H0z"/><path fill-rule="evenodd" d="M15 6H3v6h12V6Zm-.29.38H3.3v5.25H14.7V6.37Z"/><path d="M9 11v-.08a.6.6 0 0 0 .37-.16c.1-.1.23-.32.35-.64L10.9 7.1l.03-.08.04-.02c.03 0 .05.01.05.02l.02.07 1.23 3.03c.13.32.26.54.36.64.1.1.2.14.37.16V11h-1.67v-.08c.34-.04.47-.1.47-.29 0-.12-.04-.28-.13-.5l-.28-.7h-1.27l-.27.7c-.09.2-.13.37-.13.49 0 .2.13.27.51.3V11H9Zm1.75-3.18-.59 1.49h1.19l-.6-1.5ZM5 11v-.08a.6.6 0 0 0 .37-.16c.1-.1.23-.32.35-.64L6.9 7.1l.03-.08.04-.02c.03 0 .05.01.05.02l.02.07 1.23 3.03c.13.32.26.54.36.64.1.1.2.14.37.16V11H7.33v-.08c.34-.04.47-.1.47-.29 0-.12-.04-.28-.13-.5l-.28-.7H6.12l-.27.7c-.09.2-.13.37-.13.49 0 .2.13.27.51.3V11H5Zm1.75-3.18L6.16 9.3h1.19l-.6-1.5Z"/></svg>