<!-- by TradingView --><svg width="18" height="18" viewBox="0 0 18 18" xmlns="http://www.w3.org/2000/svg"><path fill="#F0F3FA" d="M0 0h18v18H0z"/><path d="m9 3 .5 1.33.75-1.2.21 1.4 1-1.01-.1 1.41 1.19-.78-.39 1.36 1.32-.52-.66 1.25 1.4-.24-.9 1.09 1.42.06-1.12.87 1.38.35-1.28.63 1.28.63-1.38.35 1.12.87-1.42.06.9 1.09-1.4-.24.66 1.25-1.32-.52.39 1.36-1.19-.78.1 1.41-1-1.01-.2 1.4-.77-1.2L9 15l-.5-1.33-.75 1.2-.21-1.4-1 1.01.1-1.41-1.19.78.39-1.36-1.32.52.66-1.25-1.4.24.9-1.09-1.42-.06 1.12-.87L3 9.63 4.28 9 3 8.37l1.38-.35-1.12-.87 1.42-.06L3.78 6l1.4.24-.66-1.25 1.32.52-.39-1.36 1.19.78-.1-1.41 1 1.01.2-1.4.77 1.2L9 3Z" fill="url(#a)"/><path fill-rule="evenodd" d="M9 13.59A4.59 4.59 0 1 0 9 4.4a4.59 4.59 0 0 0 0 9.18Zm0-.35a4.24 4.24 0 1 0 0-8.48 4.24 4.24 0 0 0 0 8.48Z" fill="#fff"/><path d="M6.5 12.5h5l-.49.6-2 .4-2-.4-.51-.6Z" fill="#fff"/><path d="M8.82 11.47h.36v1.77h-.36v-1.77Z" fill="#fff"/><path d="M9 6v5.85c-.08.05-.35.15-.73.15C7.78 12 7 11.67 7 10.3c0-.12.03-.32.05-.4l.37-.25-.37-.24.37-.34-.2-.26.46-.48V7.9l.47-.4-.04-.31.43-.35-.1-.23L9 6ZM9 6v5.85c.08.05.35.15.73.15.49 0 1.27-.33 1.27-1.7 0-.12-.03-.32-.05-.4l-.37-.25.37-.24-.37-.34.2-.26-.46-.48V7.9l-.47-.4.04-.31-.43-.35.1-.23L9 6Z" fill="#fff"/><defs><linearGradient id="a" x1="9" y1="3" x2="9" y2="15" gradientUnits="userSpaceOnUse"><stop stop-color="#169ACE"/><stop offset="1" stop-color="#3E5086"/></linearGradient></defs></svg>