<!-- by TradingView --><svg width="18" height="18" viewBox="0 0 18 18" xmlns="http://www.w3.org/2000/svg"><path fill="#F0F3FA" d="M0 0h18v18H0z"/><path fill-rule="evenodd" d="M10.83 5.24c.04.47-.17.75-.5 1.07-.55.4-1.22.53-1.89.52h-.4a.56.56 0 0 0-.4.1l.1.42c.02.04-.02.07-.1.07l-.3.02c-.1 0-.15-.02-.17-.06a1.05 1.05 0 0 1-.03-.52c.01-.04.06-.06.14-.04l.13.02a.88.88 0 0 0-.26-.11 4.18 4.18 0 0 1-.85-.26.06.06 0 0 0-.03.04l-.05.18a2.72 2.72 0 0 0-.07 1.39h.48c.06 0 .1.04.1.1v.2c0 .07-.04.1-.1.1a4.05 4.05 0 0 1-1.05-.07.05.05 0 0 0-.03.04v.03l.03.08c.1.3.2.57.37.84.03.06.07.09.1.1a.2.2 0 0 0 .11 0l.07-.02c.72-.15 1.39-.4 2.01-.78.43-.3.78-.55 1.04-.75.5-.39 1.03-.9 1.39-1.43.2-.3.41-.62.5-.97l.03-.03a.07.07 0 0 1 .1 0c.51.68.8 1.6.67 2.46 0 .05-.02.1-.06.15l-.03.02-.33.09c-.24.06-.51.1-.76.1-.37.01-.75-.02-1.13-.1-.07 0-.16.05-.21.09-.32.25-.65.48-1 .69a7.38 7.38 0 0 1-2 .86l-.29.06c-.1.01-.2.03-.28.06-.05 0-.08 0-.12-.05a3.7 3.7 0 0 1-.74-2.04 3.31 3.31 0 0 1 .4-1.97A3.53 3.53 0 0 1 8.32 4a3.1 3.1 0 0 1 1.58.33c.38.18.9.42.93.9Zm-.87.84c.21-.14.45-.37.49-.63a.02.02 0 0 0-.02-.03.02.02 0 0 0-.02 0c-.54.37-1.23.54-1.89.5-.33.03-.66 0-.98-.1-.05 0-.08.01-.1.07l-.01.08c-.01.08-.02.15-.12.22a.04.04 0 0 1-.03 0l-.17-.06c-.12-.04-.07-.19-.04-.3l.01-.03a.1.1 0 0 0 0-.07.1.1 0 0 0-.05-.05 4.2 4.2 0 0 1-.63-.35l-.02.01-.33.4c-.06.06-.05.12.03.16a5.34 5.34 0 0 0 1.23.47.65.65 0 0 0 .08-.05c.05-.03.1-.06.14-.06.1-.01.18 0 .23.04.08.08.15.12.18.13l.31.02c.62.03 1.18-.08 1.71-.37Zm-1.2-1.5-.02-.02a.03.03 0 0 0-.04.01.04.04 0 0 0-.01.03v.92a.05.05 0 0 0 .01.03.04.04 0 0 0 .04.01l.2-.01c.15-.01.32-.02.46-.08.02 0 .03-.02.03-.04v-.05a1.69 1.69 0 0 0-.66-.8Zm1.42.5-.35.2a.04.04 0 0 1-.03.01.04.04 0 0 1-.02-.02 1.91 1.91 0 0 0-.31-.61v-.02l.02-.01h.03l.66.39.01.01a.04.04 0 0 1-.01.06Zm-.15 2.73a8.2 8.2 0 0 0 1.24-1.47.03.03 0 0 1 .02.02c.22.44.28.89.25 1.41a.1.1 0 0 1-.02.06.09.09 0 0 1-.05.03h-.04c-.05.01-.07 0-.07-.05l-.02-.66c0-.11-.06-.15-.16-.1h-.02c-.1.04-.14.11-.14.21l-.01.4-.03.2c0 .03-.01.05-.03.06a.08.08 0 0 1-.05.03h-.26a2.52 2.52 0 0 1-.6-.06l-.02-.02v-.03l.01-.03Zm-4.1-1.5v.12a3.91 3.91 0 0 0-.2 1.28v.21c0 .04-.02.06-.06.06l-.15-.02c-.04 0-.07-.03-.07-.07-.04-.58.06-1.13.3-1.66.07-.02.12 0 .17.05v.03Zm2.4-1.72c.01.32.01.65-.01.98a6.94 6.94 0 0 0-.54-.08c-.1-.02-.2-.07-.13-.2l.16-.28a1.22 1.22 0 0 1 .48-.45.03.03 0 0 1 .03 0v.03Zm-.74.07a.67.67 0 0 0-.14.2c-.07.11-.12.23-.16.37a.09.09 0 0 1-.04.05.08.08 0 0 1-.08 0l-.32-.2a.05.05 0 0 1-.03-.03c0-.03.01-.05.04-.08a3.9 3.9 0 0 1 .71-.36c.06 0 .06.02.02.05Zm1.5 2.15c-.07 0-.15 0-.23.02-.26.04-.17.42-.1.55.02.06.07.07.13.04l.34-.15c.07-.04.1-.1.07-.16l-.08-.21c-.02-.06-.06-.09-.13-.09Zm.49.8a3.2 3.2 0 0 1-.69.3l-.72.15c-.04 0-.07 0-.08-.04l-.03-.18c0-.04.02-.06.07-.07.4-.06.78-.16 1.16-.31a.23.23 0 0 1 .19 0l.1.05c.06.03.06.06 0 .1Zm-2.18.76a.31.31 0 0 0 .31-.15.3.3 0 0 0 .03-.24.32.32 0 0 0-.39-.22.3.3 0 0 0-.21.38.32.32 0 0 0 .26.23Zm5.42 0c.23-.06.4.02.57.18a.05.05 0 0 0 .09-.02c.07-.12.13-.27.19-.41l.1-.25c.12-.23.2-.4.22-.49.06-.21-.1-.3-.28-.38h-.04c-.28.08-.57.3-.68.59a9.5 9.5 0 0 0-.24.74l.01.03a.05.05 0 0 0 .06.01Zm-2 .7c.04-.06.03-.08-.04-.04l-.5.25c-.08.04-.15.03-.21-.04l-.09-.09c-.07-.08-.06-.15.04-.2l.97-.52a.76.76 0 0 1 .17-.05c.28-.05.4.28.31.48-.07.18-.22.35-.35.5l-.11.14c-.13.15-.34.26-.52.36l-.12.06c-.07.04-.11.02-.11-.07v-.22c0-.1.04-.16.13-.2.18-.09.36-.19.44-.36Zm.74.86c-.1 0-.19.05-.27.1-.08.06-.12.12-.16.2v-.01l-.08.11a17.7 17.7 0 0 0-1.03.7H10a1.1 1.1 0 0 0-.69.01l-.22.12-.07.05a.08.08 0 0 1-.08 0l-.47-.2a.59.59 0 0 0-.45-.02c-.12.04-.29.13-.49.25l-.5.3c-.15.1-.14.11.02.05l1.04-.4c.23-.1.5.05.72.17l.05.02.01.01v.01l-.03.4.01.04.05.03c.1.01.12-.1.14-.2v-.06c.05-.2.16-.33.39-.4.5-.14.87.22.81.68 0 .07-.03.1-.06.16l-.02.02v.02a.63.63 0 0 1-.64.29 1.09 1.09 0 0 1-.28-.08c-.08-.03-.17-.07-.24-.07a4.14 4.14 0 0 1-.34-.06c-.14-.02-.28-.05-.43-.06-.12 0-.24-.02-.37-.04-.4-.06-.84-.12-1.17.2-.1.08-.18.2-.27.34l-.45 1.26a.41.41 0 0 1-.08.12h-.03a5.17 5.17 0 0 1-1-.35v-.05l.46-1.11c0-.02 0-.02.02-.03h.04c.26.07.5.03.72-.1.36-.23.38-.55.3-.92 0-.02 0-.03.02-.05l.03-.03 2.62-.98c.04-.02.05-.04 0-.07L9 10.25a.15.15 0 0 0-.14-.02c-.82.32-1.64.63-2.44.92-.09.03-.15.03-.22-.02a1.12 1.12 0 0 0-.38-.18.69.69 0 0 0-.33 0c-.1.02-.21.06-.31.11a.77.77 0 0 0-.36.73.83.83 0 0 0 .24.48l.02.01c.05.06.07.08.01.2a43.53 43.53 0 0 0-.47 1.04h-.06a1.65 1.65 0 0 1-.53-.3c-.03-.03-.04-.07-.02-.1.05-.15.17-.46.38-.95.06-.13.06-.27.07-.42 0-.12 0-.25.05-.36.07-.24.2-.44.39-.6.14-.14.3-.24.5-.3.43-.15.92-.2 1.37-.2.08 0 .22-.04.42-.11.64-.24 1.13-.43 1.46-.58a.16.16 0 0 0 .09-.08c.17-.4.46-.53.9-.46.17.02.33.22.4.36.04.09.06.19.05.3-.02.35-.24.5-.57.63l-.38.17c-.05.03-.05.05.01.06l.63.1c.05 0 .1-.02.17-.05a411.05 411.05 0 0 1 1.49-.95.32.32 0 0 0 .15-.17 2 2 0 0 1 .72-.82.05.05 0 0 1 .04.01c.05.07.07.13.09.2l-.01.03-.56.92a.14.14 0 0 1-.05.05 3.39 3.39 0 0 1-.26.03Zm-2 2.02c.11.04.24-.03.28-.14.03-.1-.04-.23-.16-.26-.12-.04-.25.03-.28.14-.04.11.03.23.15.26Zm.14-2.27c0 .14-.12.26-.28.26a.27.27 0 0 1-.27-.26c0-.15.12-.26.27-.26.16 0 .28.11.28.26Zm2.6.66a23.2 23.2 0 0 0 .65-1.05c.05-.07.12-.13.2-.2.04-.02.08-.06.12-.1.2-.18.1-.43-.12-.56a.47.47 0 0 0-.36-.04c-.14.03-.24.13-.3.29-.04.12.01.26.08.35.05.07.04.1 0 .16-.18.24-.39.55-.62.94-.15 0-.27 0-.38.04a.4.4 0 0 0-.16.09c-.1.1-.2.22-.17.35.04.11.05.2.05.24a.16.16 0 0 0-.09.06h-.03l-.01-.05c-.02-.06-.03-.15-.07-.19-.02-.02-.06-.02-.1 0a7.2 7.2 0 0 1-.72.46v.01c-.05.06.02.14.07.2l.05.06c.06.1.07.26.09.36v.03a.02.02 0 0 0 0 .02h.02a.03.03 0 0 0 .03 0l.98-.72c.1-.05.19-.07.27-.1.15-.03.28-.07.37-.22l.06-.21a.8.8 0 0 1 .08-.22Zm.76-1.53c-.02.07-.1.1-.19.07-.08-.03-.13-.1-.1-.17.02-.06.1-.09.19-.06.08.03.13.1.1.16Zm-1.45 1.86c.08.06.2.05.25-.01.06-.07.04-.17-.04-.23s-.19-.05-.25.01c-.05.07-.04.17.04.23Zm-5.24 1.07c0 .16-.06.3-.18.41a.63.63 0 0 1-.43.17.63.63 0 0 1-.43-.17.56.56 0 0 1-.18-.4c0-.16.07-.3.18-.41.11-.11.27-.17.43-.17.16 0 .32.06.43.17.12.1.18.25.18.4Zm-.6.2a.2.2 0 0 0 .21-.2.2.2 0 0 0-.21-.2.2.2 0 0 0-.22.2c0 .12.1.2.22.2Z" fill="url(#a)"/><defs><linearGradient id="a" x1="11.61" y1="5.54" x2="4.46" y2="13.59" gradientUnits="userSpaceOnUse"><stop stop-color="#C7D62E"/><stop offset="1" stop-color="#007030"/></linearGradient></defs></svg>