<!-- by TradingView --><svg width="18" height="18" viewBox="0 0 18 18" xmlns="http://www.w3.org/2000/svg"><path fill="url(#aqurvvm1q)" d="M0 0h18v18H0z"/><path d="M11.05 5.93a.35.35 0 0 0 .09.26.34.34 0 0 0 .24.1.33.33 0 0 0 .24-.1.34.34 0 0 0 .1-.26.35.35 0 0 0-.1-.23.33.33 0 0 0-.47 0 .35.35 0 0 0-.1.23ZM14 10.94c0 1.5-1.7 2.06-3.07 2.06H7.07C5.7 13 4 12.45 4 10.94c0-1.93 1.92-1.77 1.47-3.03 1.42.45.25 1.5.08 2.07-.2.64.3 1.6 1.52 1.6h1.48V10.4H6.79l.57-.7h1.19V9.1c-1.79-.37-1.29-2.4-3.73-2.6-.8-.07-.52-1.7-.44-1.94.02-.07.09-.1.16-.03 3.02 2.66 4.72 1.84 5.5 1.34.35-.24.88-.8 1.27-.8.31 0 .58.18.7.27l1.23.93s-.8 0-1.25.33c-1 .72-1.09 2.2-2.54 2.5v.58h1.2l.56.71H9.45v1.18h1.48c1.21 0 1.72-.96 1.52-1.6-.17-.56-1.34-1.62.08-2.07-.45 1.26 1.47 1.1 1.47 3.03Z" fill="#fff"/><defs><linearGradient id="aqurvvm1q" x1="14.49" y1="2.72" x2="4.37" y2="11.82" gradientUnits="userSpaceOnUse"><stop stop-color="#C656A0"/><stop offset="1" stop-color="#622874"/></linearGradient></defs></svg>