<!-- by TradingView --><svg width="18" height="18" viewBox="0 0 18 18" xmlns="http://www.w3.org/2000/svg"><path fill="#F0F3FA" d="M0 0h18v18H0z"/><path d="M10.77 6 5.8 11h1.24l1.05-1.09h2L9.82 11h1.12l1.1-5h-1.28Zm-.04 1.23L10.29 9H8.98l1.75-1.77ZM12.83 6l-1.11 5h1.17L14 6h-1.17Z" fill="#1A1311"/><path d="M4.16 11h.89l6.19-7-7.08 7Z" fill="url(#a)"/><path d="M3.11 11H4l6.69-7-7.58 7Z" fill="url(#b)"/><path d="M2 11h.89l7.29-7L2 11Z" fill="url(#c)"/><defs><linearGradient id="a" x1="4.16" y1="7.5" x2="11.24" y2="7.5" gradientUnits="userSpaceOnUse"><stop offset=".34" stop-color="#003E92"/><stop offset="1" stop-color="#E5F4FD"/></linearGradient><linearGradient id="b" x1="3.11" y1="7.5" x2="10.69" y2="7.5" gradientUnits="userSpaceOnUse"><stop offset=".34" stop-color="#003E92"/><stop offset="1" stop-color="#E5F4FD"/></linearGradient><linearGradient id="c" x1="2" y1="7.5" x2="10.18" y2="7.5" gradientUnits="userSpaceOnUse"><stop offset=".34" stop-color="#003E92"/><stop offset="1" stop-color="#E5F4FD"/></linearGradient></defs></svg>