<!-- by TradingView --><svg width="18" height="18" viewBox="0 0 18 18" xmlns="http://www.w3.org/2000/svg"><path fill="#F0F3FA" d="M0 0h18v18H0z"/><path d="M13 3 3 9l10 6a2.98 2.98 0 0 0-1.25-2.44c.5-.12 1.25-.73 1.25-1.62 0-.9-.53-1.59-1.43-1.59-.89 0-1.07.9-1.07 1.2 0 .3.14.45.4.45.24 0 .37-.17.37-.37 0-.19-.07-.63.25-.63s.59.38.59.81c0 .44-.38 1.19-1.3 1.19-.93 0-1.38-.8-1.38-1.38 0-.46.25-.9.37-1.04-.14.04-.65.13-1.02.13-.79 0-1.33-.45-1.5-.71.17-.26.71-.7 1.5-.7.37 0 .88.08 1.02.12a1.77 1.77 0 0 1-.37-1.04C9.43 6.8 9.88 6 10.8 6c.92 0 1.3.75 1.3 1.19 0 .43-.27.81-.59.81-.32 0-.25-.44-.25-.63 0-.2-.13-.37-.38-.37s-.39.16-.39.45c0 .3.18 1.2 1.07 1.2.9 0 1.43-.7 1.43-1.59 0-.89-.75-1.5-1.25-1.62.02 0 1.25-.82 1.25-2.44Z" fill="#9D7B50"/></svg>