<!-- by TradingView --><svg width="18" height="18" xmlns="http://www.w3.org/2000/svg"><path fill="#E40000" d="M0 0h18v18H0z"/><path d="M6.969 14c1.664 0 3.312-1.292 4.5-2.313 1.497-1.176 3.021-3.48 2.38-5.487-.467-1.456-1.892-2.2-3.354-2.2-1.908 0-3.791 1.007-5.217 2.233-.619.58-1.316 1.547-1.276 2.374.013.333.177.646.447.846.263.2.592.3.921.287.75 0 1.566-.4 2.125-.733.978-.62 1.871-1.286 2.98-1.66.522-.183 1.231-.228 1.516.35.217.426.164 1.1-.132 1.72-.495.958-1.119 1.794-1.963 2.456a7.547 7.547 0 01-2.184 1.32c-.928.24-.362-.56-.362-.56.41-.47 1.45-1.04 1.421-1.713-.02-.413-.447-.667-.855-.68H7.89c-1.374 0-2.674 2.138-1.928 3.287.204.313.546.473 1.007.473z" fill="#fff"/></svg>