<!-- by TradingView --><svg width="18" height="18" viewBox="0 0 18 18" xmlns="http://www.w3.org/2000/svg"><path fill="#F0F3FA" d="M0 0h18v18H0z"/><path d="M11.2 5.4a6.3 6.3 0 0 0-2.5 1.93c-.71.94-1.2 2-1.48 3.15-.11.45-.25.92-.35 1.2-.14.41-.35.83-.69 1.09-.6.46-1.27.18-1.71-.4-.28-.36-.44-.79-.47-1.28-.01-.3.03-.7.1-1a6.64 6.64 0 0 1 2-3.16 6.32 6.32 0 0 1 1.82-1.18 8.73 8.73 0 0 1 3.97-.73c.14 0 .15.03.01.08-.24.09-.5.21-.7.3Z" fill="#1F6137"/><path d="M12.72 6.77c-.44-.39-1.05-.46-1.69-.4h-.02v-.02H11c0-.02.01-.03.03-.04 1.04-.37 2.24-.48 3.18.07.49.29 1.1.96.6 1.41a.87.87 0 0 1-.68.2.95.95 0 0 1-.75-.4c-.3-.43-.51-.7-.66-.82Z" fill="#ABC34A"/><path d="M10.28 7.12c-.17.79-.13 1.6.12 2.45.05.2.15.49.29.89.1.28.16.52.2.7.1.58.22 1.14-.1 1.56-.36.47-.97.3-1.27-.16A3.69 3.69 0 0 1 9 10.7a5.3 5.3 0 0 1 .72-2.76l.5-.85c.06-.13.09-.12.06.03ZM8 12a.5.5 0 1 0 0-1 .5.5 0 0 0 0 1Z" fill="#1F6137"/></svg>