<!-- by TradingView --><svg width="18" height="18" viewBox="0 0 18 18" xmlns="http://www.w3.org/2000/svg"><path fill="#F0F3FA" d="M0 0h18v18H0z"/><path d="M10.4 6.1c-.3 0-.89.49-1.06.66-.57.6-1 1.26-1.26 2-.12.33-.23.72-.34 1.17-.09.38-.24.72-.6.93a.88.88 0 0 1-.64.12c-.27-.06-.43-.24-.5-.56-.03-.2.1-.54.23-.76.39-.7.78-1.31 1.17-1.87A7.06 7.06 0 0 1 11 5.05a.95.95 0 0 1 .42-.05c.14.02.18.15.18.27 0 .34-.16.74-.3 1.02-.4.72-.7 1.39-.92 2.01-.06.18-.1.4-.12.68-.01.21.08.34.29.37.42.08 1.02-.61 1.24-.87l.6-.68c.15-.17.3-.29.46-.33l.07-.02c.04 0 .07.03.08.08v.05c-.28.63-.61 1.2-1 1.7-.52.66-1.32 1.44-2.22 1.45-.18 0-.36-.03-.54-.1-.6-.19-.56-.83-.41-1.32.12-.42.3-.83.52-1.24.27-.48.65-1.04 1.07-1.68a.44.44 0 0 0 .06-.2c0-.05-.02-.1-.09-.1Z" fill="#FF001B"/><path d="M4.29 9.29c-.03.39.22.85.5 1.11l.4.37c0 .01.02.03.01.05 0 .02 0 .04-.03.05-.15.1-.28.17-.46.1-1.11-.47-2.13-1.36-1.53-2.6.15-.3.4-.61.64-.84A6.02 6.02 0 0 1 6.67 6.1c.4-.09.8-.12 1.18-.09.19.02.2.06.03.14-.82.38-1.56.8-2.24 1.3-.34.24-.65.52-.92.85-.26.3-.4.63-.43.99ZM13.58 9.16c.6-1.48-.79-2.46-1.96-2.9-.08-.03-.1-.08-.04-.14.17-.19.65-.12.84-.04.57.22 1.1.52 1.6.92.24.2.47.46.66.76.24.39.35.8.31 1.23-.07.98-.9 1.79-1.76 2.24-.96.5-2.06.76-3.3.77-1 0-1.96-.12-2.9-.4a.05.05 0 0 1-.03-.05c0-.03.02-.1.05-.09 1.06.24 2.12.24 3.17 0 .91-.2 1.73-.59 2.46-1.15.34-.27.74-.74.9-1.15Z" fill="#0006F8"/></svg>