<!-- by TradingView --><svg width="18" height="18" viewBox="0 0 18 18" xmlns="http://www.w3.org/2000/svg"><path fill="#F0F3FA" d="M0 0h18v18H0z"/><path d="M7.67 5.74 4.43 9.07c-.28.28-.43.66-.43 1.06v2.89c0 .54.44.98.98.98h2.78c.25 0 .49-.06.7-.17l-.04-.04-.79-.79H5v-2.71c0-.15.06-.3.17-.4l3.32-3.33-.82-.82ZM10.32 5l-.89-.9c.18-.06.37-.1.57-.1h3.02c.54 0 .98.44.98.98v2.9c0 .41-.17.8-.46 1.09l-3.31 3.23-.74-.74 3.34-3.35c.11-.1.17-.25.17-.4V5h-2.68Z" fill="#FFC828"/><path d="M4 4.98V8c0 .19.03.37.1.54l.9-.9V5h2.71c.15 0 .3.06.4.17l3.34 3.32.73-.74-3.21-3.3C8.68 4.18 8.29 4 7.88 4h-2.9a.98.98 0 0 0-.98.98Zm9.82 4.54-.02.02-.8.8V13h-2.71a.57.57 0 0 1-.4-.17L6.54 9.5l-.82.82 3.35 3.25c.28.28.66.43 1.06.43h2.89c.54 0 .98-.44.98-.98v-2.78c0-.26-.06-.5-.18-.72Z" fill="#0077C0"/></svg>