<!-- by TradingView --><svg width="18" height="18" viewBox="0 0 18 18" xmlns="http://www.w3.org/2000/svg"><path fill="#03246B" d="M0 0h18v18H0z"/><path d="M8.46 4.05A4.98 4.98 0 0 0 4.27 7.8c-.17.67-.15 1 .06 1.16.17.12.17.11.2-.13.1-1.25.39-2.1.97-2.84a4.52 4.52 0 0 1 7.42.38c.26.4.31.55.31.89 0 1.36-2.12 2.31-4.62 2.06-.48-.05-.96-.1-1.07-.13-.1-.02-.04.02.15.08.7.23 1.47.35 2.37.35 1.48 0 2.43-.33 3.1-1.06l.37-.41.05.22c.19.87-.85 1.83-2.46 2.26-.83.23-2.48.25-3.43.05-1.38-.3-2.8-.9-4.05-1.72-.35-.23-.64-.4-.64-.38 0 .06 1.4 1.07 1.9 1.37a9.25 9.25 0 0 0 5.52 1.37 5.1 5.1 0 0 0 2.64-.95c.22-.2.3-.12.17.16-.52 1.01-2.26 1.8-3.99 1.8-.6 0-1.77-.18-2.24-.35-.19-.07-.3-.1-.27-.05.04.04.4.2.81.33.71.25.76.26 2 .26 1.18 0 1.3-.02 1.8-.2l.7-.26c.33-.12-.4.42-.92.69-1.8.9-3.82.58-5.24-.84a4.27 4.27 0 0 1-.83-1.1c-.2-.4-.35-.6-.55-.72l-.29-.17.05.3c.08.45.7 1.64 1.09 2.09.77.88 1.93 1.49 3.12 1.65a5 5 0 0 0 5.45-3.91c.58-3.24-2.1-6.47-5.46-6Zm1.91 1c.2.13.25.2.23.37-.03.28-.36.46-.98.55l-.5.07h.56c.58.02 1.06-.13 1.15-.34.07-.2-.06-.48-.32-.64a1.24 1.24 0 0 0-.32-.16c-.04 0 .04.07.18.16Zm1.91 1.14c.1.48-.44 1.03-1.25 1.3-.2.07-.65.17-.99.23l-.61.1h.46c1 .03 1.89-.23 2.33-.67.2-.2.24-.31.24-.57 0-.18-.05-.4-.11-.48-.11-.14-.12-.14-.07.1Z" fill="#FFFDF5"/></svg>