<!-- by TradingView --><svg width="18" height="18" viewBox="0 0 18 18" xmlns="http://www.w3.org/2000/svg"><path fill="#F0F3FA" d="M0 0h18v18H0z"/><path d="M9 3a6 6 0 1 1 0 12A6 6 0 0 1 9 3Z" fill="url(#akltvr2sd)"/><path d="M9 5a4 4 0 1 1 0 8 4 4 0 0 1 0-8Z" fill="#F0F3FA"/><path opacity=".4" d="M14 9a5 5 0 1 0-8.74 3.32l.27-.2a4.66 4.66 0 0 1 3.45-7.79 4.66 4.66 0 0 1 3.5 7.74l.3.21A4.98 4.98 0 0 0 14 9Zm-2.73 4.46-.17-.3a4.6 4.6 0 0 1-4.22 0l-.16.3a4.98 4.98 0 0 0 4.55 0Z" fill="#F0F3FA"/><path d="m9 8.3.35 1.4H9.1L9 8.3Z" fill="#1C4351"/><path fill-rule="evenodd" d="M12 9a3 3 0 1 0-5.83 1h.33a2.7 2.7 0 0 1-.2-1c0-1.47 1.3-2.67 2.7-2.67.69 0 1.31.29 1.77.75L9 8v-.14l.17-.15L8.3 7h-.14l-.9.67.22.13.02.24-.3.09v.5l.38.15L7.5 10h1l.2-1 .5-.38v-.1L9 8.47v-.2l2.38 1.71V10h.45A3 3 0 0 0 12 9Zm-3 3c-.71 0-1.37-.25-1.89-.67H8.4l-.06.4a2.3 2.3 0 0 0 .98.08l-.02-.48h.23l.06.42c.3-.08.58-.22.83-.42h.47c-.43.35-.95.58-1.51.65l-.05.02v-.02L9 12Zm-.22-4.3s-.25-.03-.57-.03c-.21 0-.44.02-.6.08v.3s.46-.04.9.07c0 0-.76-.01-.9.03v.28l-.08-.28s-.18.03-.2.13v.25s.64-.2 1.37-.08l.08-.75Z" fill="#1C4351"/><path d="M12.53 9.7H5.47v-.17h7.06v.18ZM11.47 11.3H6.53v-.18h4.94v.17Z" fill="#1C4351"/><path fill="#E71A20" d="M6 10h2v1H6zM9 10h3v1H9z"/><defs><linearGradient id="akltvr2sd" x1="9" y1="3" x2="9" y2="15" gradientUnits="userSpaceOnUse"><stop stop-color="#34346B"/><stop offset="1" stop-color="#343361"/></linearGradient></defs></svg>