<!-- by TradingView --><svg width="18" height="18" viewBox="0 0 18 18" xmlns="http://www.w3.org/2000/svg"><path fill="#F0F3FA" d="M0 0h18v18H0z"/><path d="M5 10.12V13h3.04l1.34-5.33H10V7.4h-.63a.18.18 0 0 1-.14-.07L5 10.13Zm5-2.99v-.3l-.47.3H10Zm0-.5v-.47c0-.3.16-.66.5-.66.34 0 .5.35.5.66V7h1v.4h-1v.27h.69L13 13V5H5.21L10 6.62Z" fill="url(#amuk3zyp4)"/><path opacity=".7" fill="#3F3D53" d="M10 8h1v5h-1z"/><defs><linearGradient id="amuk3zyp4" x1="9" y1="5" x2="10.66" y2="13.11" gradientUnits="userSpaceOnUse"><stop offset=".29" stop-color="#8F8E97"/><stop offset=".32" stop-color="#3F3D53"/></linearGradient></defs></svg>