<!-- by TradingView --><svg width="18" height="18" viewBox="0 0 18 18" xmlns="http://www.w3.org/2000/svg"><path fill="#F0F3FA" d="M0 0h18v18H0z"/><path fill-rule="evenodd" d="M4.47 7.51c-.43.11-.85.26-1.25.44a.08.08 0 0 0-.04.06l-.08.25c0 .02 0 .02.02.01a5.3 5.3 0 0 1 1.9-.62 5.12 5.12 0 0 0-1.99.91C2.74 10.46 4.33 12 6.14 12h5.71a3.16 3.16 0 0 0 2.97-2.02 6.7 6.7 0 0 1-1.05.31 6.77 6.77 0 0 0 1.12-.47l.06-.27c0-.02 0-.02-.02-.01-.36.22-.76.39-1.16.51a.63.63 0 0 1-.2.16.51.51 0 0 1-.47 0 .63.63 0 0 1-.2-.16.81.81 0 0 1-.14-.25.94.94 0 0 1 .14-.85.56.56 0 0 1 .43-.22c.17 0 .33.08.44.22a.94.94 0 0 1 .05 1.02A4.99 4.99 0 0 0 15 9.29a3.04 3.04 0 0 0-2.72-3.26 4.5 4.5 0 0 0-.56-.03 4875.89 4875.89 0 0 0-5.9.02c-1.1.12-2.06.77-2.54 1.77-.01.02 0 .02.01.02a6.63 6.63 0 0 1 1.19-.3Zm6.1.46c-.01 0 0 0 0 0 .41-.04.82-.12 1.22-.25a2.57 2.57 0 0 0 1.2-.7c-.39.32-.97.46-1.46.53-.84.1-1.72.08-2.55-.01l-.88-.1a3.36 3.36 0 0 0-.87.02 2.37 2.37 0 0 0-2 1.84h-.01a.69.69 0 0 0-.4-.28c-.4-.08-.73.13-.81.51a.4.4 0 0 0 0 .13h.6V9.48l-.01-.02h-.3c-.02 0-.02 0-.01-.02.18-.3.58-.28.75.03.05.09.04.27.04.4a3.96 3.96 0 0 0-.02.11h-1l-.02.01v.2l.01.01h1c.02 0 .02 0 .02.02v.55l-.01.01h-.8V10.5h.29V10.28h-.5V11a.01.01 0 0 0 0 .01h1.21c.02 0 .02 0 .02-.02v-.75c0-.02.01-.03.04-.03h2.5l-.26-1.85c0-.01 0-.02-.02-.02h-.2c-.02 0-.03 0-.03.02v.18c0 .01 0 .02.02.02h.03c.01 0 .02 0 .02.02l.2 1.4-.02.01H7.2c-.01 0-.02 0-.02-.02l-.24-1.69-.02-.01h-.2l-.02.01v.2h.04c.01 0 .02 0 .02.02l.2 1.48a.01.01 0 0 1 0 .01H5.3l-.01-.01v-.46c0-.04.02-.1.05-.15a2.58 2.58 0 0 1 2.74-1.33l.79.11.37.06v1.99l.02.01h.2V8.23l.02-.01.11.01c.56.05 1.13.1 1.68-.03a3.98 3.98 0 0 0 1.34-.67 4.35 4.35 0 0 1-2.05.43ZM8.91 10h-.5l-.02-.02-.24-1.64v-.01H7.9l.03.21.01.02h.02v.01l.01.01.23 1.55c0 .03.02.05.04.07a.1.1 0 0 0 .07.03h.7a.1.1 0 0 0 .09-.03.13.13 0 0 0 .03-.09V9.8c0-.08-.04-.12-.1-.17L9 9.59h-.02l-.14.2v.01l.07.02c.02 0 .02.01.02.03v.13l-.01.02Zm3.04-.9c-.3.3-.1 1.06.38.82a.58.58 0 0 0 .21-.18h.01V10.1l-.02.02a.56.56 0 0 1-.77-.06c-.32-.35-.26-1.1.2-1.28.21-.08.4-.04.6.11v.02l-.01.3c-.24-.23-.44-.26-.6-.1Zm-.31 1.13v-.26l-.02-.01h-.38V8.73l-.01-.01H11l-.01.01v1.49l.01.01h.63v-.01Zm1.68-.24c-.2 0-.36-.22-.36-.49s.16-.5.36-.5c.2 0 .37.23.37.5s-.17.5-.37.5Zm-4.6-.85a.03.03 0 0 1-.02 0 1.73 1.73 0 0 1-.11-.12.01.01 0 0 0-.01 0 10.84 10.84 0 0 0-.11.14 9.1 9.1 0 0 0 .13.12 1.73 1.73 0 0 1 .1-.1h.02a1.73 1.73 0 0 1 .11.1.01.01 0 0 0 .01 0 10.94 10.94 0 0 0 .11-.13 9.17 9.17 0 0 0-.13-.12 1.73 1.73 0 0 1-.1.1Zm1.43-.4-.01-.01-.58 1.5h.26l.12-.33V9.9h.02a6.56 6.56 0 0 1 .38.01l.11.32h.26l-.56-1.49Zm-.02.64-.09.25.01.01h.18v-.01l-.08-.25h-.02Z" fill="#791214"/></svg>