<!-- by TradingView --><svg xmlns="http://www.w3.org/2000/svg" width="18" height="18" viewBox="0 0 18 18"><path fill="#F0F3FA" d="M0 0h18v18H0z"/><path fill-rule="evenodd" d="M10.66 9s.26-.19.37-.44c.52-.05 2.05-.16 2.23.78a3.19 3.19 0 0 0-2.6-.34zm4.34.9c-.13.81-.98.67-1.76.53-.28-.05-.55-.1-.78-.1-.56 0-.82.37-1.04.7l-.08.1S11.4 10 12.46 10c.32 0 .63.09.93.17.51.14 1 .28 1.43-.04.2-.14.1-.29-.02-.39.08.06.16.11.2.16zm-.4-.28l.2.12-.2-.12zM6.63 10.7C4.69 9.66 2.47 10.62 2 12c.1-1.1 1.4-2 2.9-2 .69 0 2.01.31 1.72.7zm1.5-.17c-.17-.09-.14-.36-.14-.36-.2.13-.43.3-.67.5-.43.33-.92.7-1.4.97a1.93 1.93 0 0 0-1.3-.48c-.32 0-.78.18-1 .48l-.1-.12s-.03.12.02.26c-.08.18-.06.39.1.62a.49.49 0 0 1 .07-.38c.17.14.48.26 1.05.26.37 0 .72-.1 1.06-.24.15.15.29.3.43.47.44.5.87.99 1.54.99.4 0 1.06-.35 1.22-.87 0 0-.52.5-1.18.5-.59 0-.94-.42-1.33-.87-.1-.13-.22-.26-.34-.38.43-.23.84-.53 1.22-.82l.75-.53zm-2.57 1.28a1.42 1.42 0 0 0-.88-.31c-.24 0-.57.12-.8.32.2.1.48.18.88.18.26 0 .53-.07.8-.19zm6.4.49c-.48 0-.95-.68-.95-.68 0 .6.44.97.94.97.17 0 .33-.03.5-.06.3-.05.61-.1.93-.03-.24-.35-.61-.3-1-.24a3.1 3.1 0 0 1-.43.04z" fill="#9963BC"/><path d="M13.1 9a1.15 1.15 0 0 0-.04-.05l.02.05c-.6.01-1.6.1-2.63.73v.3c.3-.23 1.5-.74 2.69-.73.06.5-.1.94-.35 1.1-.17.1-.42.18-.67.25-.54.15-1.12.31-1.12.93 0 .12.01.23.05.39a.95.95 0 0 1 .4-.6c.17.29.5.63 1.09.63.41 0 .81-.13 1.21-.26.42-.14.84-.28 1.3-.27.32 0 .63.02.95.33 0 0-.3-.83-1.2-.8a7.3 7.3 0 0 0-.9.23c-.78.25-1.62.5-2.29.05.2-.09.4-.14.62-.2.32-.08.63-.17.83-.37.47-.48.35-1.05.2-1.41.56.02 1.11.16 1.56.5.13.1.12.29.12.29a.35.35 0 0 0 .06-.2c0-.48-1.13-.89-1.6-.89H13.1zm-7.09 1.81c.6 0 .65-.21.65-.21 0 .34-.43.48-.7.48a3 3 0 0 1-.62-.08 2.85 2.85 0 0 0-.58-.08c-.7 0-1.25.61-1.1 1.06-.5-.43.2-1.38 1.1-1.38.28 0 .5.06.7.12.18.05.36.1.55.1zm2.57.19l-.27-.23-.55.4c-.9.65-1.9 1.4-3 1.4-.5 0-1-.12-1.27-.5.06.52.63.93 1.28.93 1.13 0 2.3-.88 3.16-1.53.24-.19.46-.35.65-.47zm4.9 1.78c0-.2-.2-.38-.2-.38.05.4-.08.82-.72.82-.68 0-1.56-.72-1.56-.72.52.84 1.33 1 1.65 1 .42 0 .82-.28.82-.72z" fill="#01AAB6"/><path d="M12.93 3.5c.2.43.47.83.47 1.34 0 1.92-1.68 3.7-2.85 4.38.3.75-.13 1.14-.23 1.72-.07.42.41 1.06.41 1.06-.54-.11-.73-.78-.73-.99.46-1.35 0-1.28 0-1.9 0-.25.25-.43.46-.61 1.05-.87 1.9-1.48 2.47-3.5-.36.36-1.04.66-1.62.75-1.33.36-2.51.8-2.46 2.4.02.64.25 1.38.48 2.1l.12.4a7.13 7.13 0 0 1-1.21-2.23c-.7-.62-1.47-1.08-2.41-1.06A3.45 3.45 0 0 1 4 7.02a3.35 3.35 0 0 0 3.22 2.47c.7 0 .7.74 1.08 1.15.26.28.7.52.7.91 0 .45-.33.88-.33.88v-.62c0-.5-.43-.7-.78-1-.27-.24-.36-.37-.4-.72 0-.09-.31-.09-.63-.09C5.25 10 3.4 8.08 3.4 6.42c0-.38.06-.55.1-.92.03 1.34 1.28 1.2 2.33 1.26 1.15.06 1.73.44 2.11.7l-.18-.56.48-.35.21 1.08c.07-.91.78-1.94 1.75-2.19 1.27-.32 2.62-.29 2.73-1.94z" fill="#AA790F"/></svg>