<!-- by TradingView --><svg width="18" height="18" viewBox="0 0 18 18" xmlns="http://www.w3.org/2000/svg"><path fill="#F0F3FA" d="M0 0h18v18H0z"/><path d="M6.33 6h-.66v.67H5v.66h.67V8h.66v-.67H7v-.66h-.67V6Z" fill="#0E6BB8"/><path d="M8.67 6h-.34v.33H8v.34h.33V7h.34v-.33H9v-.34h-.33V6Z" fill="#199E31"/><path d="M11.67 6h-.34v.33H11v.34h.33V7h.34v-.33H12v-.34h-.33V6Z" fill="#7BB980"/><path d="M4 5.51v2.16h.14v-2c0-.07.07-.13.16-.13h.02a7.6 7.6 0 0 0 4.75-.89 7.24 7.24 0 0 0 4.64.89c.09 0 .16.06.16.13v2H14V5.5c0-.1-.1-.18-.2-.18-1.25 0-3.54-.24-4.55-1.26a.27.27 0 0 0-.37 0C7.84 5.1 5.5 5.33 4.21 5.33c-.11 0-.21.08-.21.18Zm1.36 7.05A7.01 7.01 0 0 0 9 15a7.01 7.01 0 0 0 3.64-2.44h-.35A7.06 7.06 0 0 1 9 14.27a7.06 7.06 0 0 1-3.29-1.71h-.35Z" fill="url(#a)"/><path d="M11.45 8.86c-.02-.24-.23-.34-.43-.34-.19 0-.42.09-.42.32s.24.32.41.36c.46.13.99.32.99.92 0 .6-.48.88-.98.88-.56 0-1-.33-1.02-.96h.52c.01.3.23.44.5.44s.44-.15.44-.36c0-.2-.15-.28-.43-.36-.44-.13-1.03-.28-1.03-.88 0-.56.54-.88 1.02-.88.47 0 .94.3.95.86h-.52Z" fill="#348C46"/><path d="M6.7 11H6l1.08-3h.85L9 11h-.7L7.5 8.69H7.5L6.7 11Zm-.04-1.18h1.67v.5H6.66v-.5Z" fill="#126EB7"/><defs><linearGradient id="a" x1="11.61" y1="9.5" x2="-1" y2="9.5" gradientUnits="userSpaceOnUse"><stop offset=".29" stop-color="#388F38"/><stop offset=".68" stop-color="#116DB6"/></linearGradient></defs></svg>