<!-- by TradingView --><svg width="18" height="18" viewBox="0 0 18 18" xmlns="http://www.w3.org/2000/svg"><path fill="#F0F3FA" d="M0 0h18v18H0z"/><path d="M7 10.95c.23-.2.81.29.98.55.18.2.36.62.43.8l-4.46.7h9.97l-4.55-.7c.02-.1.1-.42.27-.8.21-.48.77-.7 1.43-.97l.03-.01c.67-.27.52.1.73.27.21.16 1.38.7 1.84.7.46 0 .25-.34.25-.7 0-.36-.03-.57 0-.78.04-.22.38-.28.87-.77.5-.5-.05-.24-.15-.4-.1-.17-.28-.88-.34-1.23-.07-.34-.2-.07-.63-.2-.42-.14-.03-.56-.16-.87-.12-.3-.3-.24-.7-.58-.4-.35-.45-.57-.77-.57-.3 0-.36 0-.72-.17-.36-.16-.28-.59-.43-.83-.15-.24-.62-.25-1.02-.34-.4-.1-.89-.05-1.25.09-.36.13-.94.33-1.25.5-.31.16-.29.48-.38.75-.08.27-.57.03-.7 0a4.23 4.23 0 0 0-1.41.2c-.35.17-.7.65-.85.95-.15.3-.37.62-.5 1-.14.37.39.03.65 0s.54.22.62.42c.1.2-.42.27-.77.3-.35.03-.22.23-.45.57-.22.35-.34 1.09-.46 1.31-.1.23-.2.5 0 .81.22.32.54.08 1.26.29.72.21.6 0 .85 0s.58.1 1.07 0c.48-.1.46-.08.7-.29Z" fill="#80008D"/></svg>