<!-- by TradingView --><svg width="18" height="18" viewBox="0 0 18 18" xmlns="http://www.w3.org/2000/svg"><path fill="#F0F3FA" d="M0 0h18v18H0z"/><path fill-rule="evenodd" d="M9 13a4 4 0 0 0 4-4.18c1.13.25 2.08.57 2.66.82.14.05.29-.03.33-.19.03-.14-.02-.28-.14-.33-.56-.26-1.58-.6-2.92-.85a4 4 0 0 0-7.92.45C3.14 9.26 1.71 10 1 10.46a19.67 19.67 0 0 1 10.16-1.93A2.22 2.22 0 0 1 9 11.21c-1.2 0-2.18-.96-2.21-2.15l-1.78.22A4 4 0 0 0 9 13Zm2-4.96a2.21 2.21 0 0 0-4.09.23A16.8 16.8 0 0 1 11 8.04Z" fill="#F05E2D"/></svg>