<!-- by TradingView --><svg width="18" height="18" viewBox="0 0 18 18" xmlns="http://www.w3.org/2000/svg"><path fill="#F0F3FA" d="M0 0h18v18H0z"/><path d="M8.2 9.21a18.18 18.18 0 0 1 .5 0 50.12 50.12 0 0 0 .86 0l-.1-.25a68.33 68.33 0 0 0-.56-1.17L8.2 9.2ZM7 11a204.08 204.08 0 0 0 2-4h.12A135.92 135.92 0 0 0 11 11a2.8 2.8 0 0 0-.65 0 12.14 12.14 0 0 0-.55-1.3l-.1-.24a13.78 13.78 0 0 0-1.3 0h-.3A18.45 18.45 0 0 0 7.42 11a.72.72 0 0 0-.11-.02.7.7 0 0 0-.2 0A.82.82 0 0 0 7 11Z" fill="#2F2F2F"/><path d="M4.1 13.6c.56 1.1 3.18-.17 5.9-2.84-2.48 2.22-4.91 3.1-5.42 1.97-.27-.58.03-1.59.73-2.73-1.04 1.57-1.54 2.93-1.2 3.6ZM13.1 7c.76-1.15 1.08-2.13.8-2.64-.56-1-3.2.14-5.9 2.53 2.47-1.98 5-2.84 5.52-1.83.22.43.05 1.13-.41 1.94Z" fill="#E9CD7A"/></svg>