<!-- by TradingView --><svg width="18" height="18" viewBox="0 0 18 18" xmlns="http://www.w3.org/2000/svg"><path fill="#A7FDF2" d="M0 0h18v18H0z"/><path d="M6.2 13.69c-.05.1-.16.3-.33.3-.37.01-.28-.1-.34-.28-.26-.05-.82-.23-.96-.6-.04-.05-.3-.13-.57-.11 0-.5.03-.88.57-.88a3.2 3.2 0 0 0 2.13-.93V9.62c0-.17.07-.3.33-.3.27-.02.34.1.34.3v1.25h.33V9.62c0-.15.1-.3.37-.3.2 0 .29.19.29.3v1.01l1.33-.22v-.77c0-.17.05-.33.33-.33s.32.19.36.28v.7l.3-.04v-.66c0-.12.12-.28.33-.28.27 0 .33.2.34.31v1.25c.08.06.29.36.33.78.07-.01.23 0 .32-.15 0 .62.03 1.61-.84 2-1.08.5-2.37.2-2.47.19-.07-.02-1.7-.04-2.49 0ZM11.75 4.49c.01-.17.15-.49.6-.49.57 0 .78.16.99.16.2 0 .17-.16.33-.16H14c-.15.16-.41.42-.66.42-.34 0-.66-.1-.77-.1-.12 0-.17.04-.13.1.03.07.26-.01.4.11C13 4.65 14 5.73 14 5.87c0 .22-.17.32-.5.32h-.83c-.22.4-.6 1.36-1 1.55v1.41c-.12.02-.67 0-.67-.16V8l-.32.01v1.16c-.22.04-.68 0-.68-.16V8c-.33 0-1.24.06-1.8-.4H8V9c-.07.09-.37.15-.7.15V7.6H7v1.57c-.26.04-1.03.05-1.02-.17V8c-.11-.01-.2-.12-.27-.29V5.76c.01-.17.21-.52.9-.58.84-.07 3.3-.65 3.63-.76.26-.08 1.12.01 1.51.07Z"/></svg>