<!-- by TradingView --><svg xmlns="http://www.w3.org/2000/svg" width="18" height="18"><path fill="#F0F3FA" d="M0 0h18v18H0z"/><path d="M7.87 5H15l-2.65 8H5.23l2.64-8z" fill="#E2091E"/><path d="M3.2 7.97c.26-1.04 2.47-1.92 4.96-1.85 2.3.07 4.35.92 4.1 1.85-.27.97-2.03 1.85-4.53 1.85-2.5 0-4.77-.85-4.52-1.85z" fill="#F0F3FA"/><path d="M3.02 7.92c.29-1.3 2.74-2.39 5.51-2.3 2.57.08 4.84 1.14 4.55 2.3-.3 1.21-2.25 2.31-5.03 2.31-2.78 0-5.3-1.06-5.03-2.3zm.18.03c-.24.98 2.02 1.82 4.5 1.82 2.49 0 4.23-.87 4.5-1.82.25-.92-1.78-1.76-4.07-1.83-2.48-.07-4.67.8-4.93 1.83z"/><path fill="#F0F3FA" d="M7 11h4v1H7z"/><path d="M4.5 7.34h6v1.34h-6V7.34z" fill="#E2091E"/></svg>