<!-- by TradingView --><svg width="18" height="18" viewBox="0 0 18 18" xmlns="http://www.w3.org/2000/svg"><path fill="#F0F3FA" d="M0 0h18v18H0z"/><path fill-rule="evenodd" d="M15 6.44c0 .8-.63 1.44-1.4 1.44-.48 0-.9-.24-1.16-.6L9.88 8.3l.01.2c0 .79-.63 1.43-1.4 1.43-.36 0-.68-.13-.92-.34l-1.85 1.45A1.42 1.42 0 0 1 4.41 13C3.63 13 3 12.36 3 11.56c0-.8.63-1.44 1.4-1.44.35 0 .67.13.91.34L7.17 9a1.46 1.46 0 0 1-.1-.5c0-.8.64-1.45 1.41-1.45.47 0 .88.23 1.14.59l2.57-1.04v-.16c0-.8.62-1.44 1.4-1.44.78 0 1.41.64 1.41 1.44Zm-.72 0c0 .39-.3.7-.69.7a.7.7 0 0 1-.69-.7c0-.39.31-.7.7-.7a.7.7 0 0 1 .68.7ZM8.48 9.2a.7.7 0 0 0 .7-.7.7.7 0 0 0-.7-.71.7.7 0 0 0-.69.7c0 .4.31.7.7.7Zm-4.07 3.07a.7.7 0 0 0 .69-.7.7.7 0 0 0-.7-.71.7.7 0 0 0-.68.7c0 .39.3.7.69.7Z" fill="#E94081"/></svg>