<!-- by TradingView --><svg width="18" height="18" viewBox="0 0 18 18" xmlns="http://www.w3.org/2000/svg"><path fill="#F0F3FA" d="M0 0h18v18H0z"/><ellipse cx="9" cy="9" rx="6" ry="3" fill="#013480"/><path d="M8.19 11.6 6.04 6.8A9.74 9.74 0 0 1 9 6.39c2.96 0 5.37 1.17 5.37 2.62 0 1.45-2.4 2.63-5.37 2.63-.28 0-.55-.02-.81-.03Z" fill="#E95D1F"/><path d="M6.19 9.6H4.8l-.23.4H4l1.19-2h.62L7 10h-.57l-.24-.4Zm-.15-.28L5.5 8.4l-.54.92h1.08Z" fill="#EF5825"/><path d="m8 10-.5-2h5l.5 2H8Z" fill="#013480" fill-opacity=".8"/></svg>