<!-- by TradingView --><svg width="18" height="18" viewBox="0 0 18 18" xmlns="http://www.w3.org/2000/svg"><path fill="#F0F3FA" d="M0 0h18v18H0z"/><path fill="#F47427" d="M3 11.71h12V12H3z"/><path fill-rule="evenodd" d="M7.37 5 10 8.39 4 10l3.37-5Zm.83 2.12.55.73H7.8l.4-.73Z" fill="#009F8D"/><path fill-rule="evenodd" d="m8.06 5.36 5.91 6.07-5.6-2.57-4.25 2.02 3.94-5.52Zm.05.85L9.5 8.14h-2.2l.82-1.93Z" fill="#fff"/><path d="M8.05 5.3 14 11.4l-.05.07L8.38 8.9 4 10.98 8.05 5.3Zm.01.12-3.82 5.36 4.14-1.97 5.41 2.5-5.73-5.9Zm.04.71 1.47 2.08H7.23l.87-2.08Zm.02.16-.77 1.84H9.4L8.12 6.29Z" fill="#009F8D"/></svg>