<!-- by TradingView --><svg width="18" height="18" viewBox="0 0 18 18" xmlns="http://www.w3.org/2000/svg"><path fill="#00BAED" d="M0 0h18v18H0z"/><path d="M3.76 10.74c-.23.26-.36.47-.39.63-.02.16.04.27.19.34s.35.11.63.12V12H2.1v-.17c.11-.02.27-.06.39-.12.1-.06.23-.14.36-.26.12-.11.27-.27.44-.46L7.64 6H8.1l.42 5.3c.02.2.08.34.18.41.12.08.22.12.33.12V12H6.27v-.17c.32-.01.48-.06.62-.14.14-.1.2-.28.19-.57l-.27-3.97.27-.2-3.32 3.79Zm.92-1.16h3.05l-.09.16H4.5l.18-.16ZM9.34 6h2.88c.95 0 2.31.28 2.31 1.34 0 .76-1 1.55-1.8 1.66.99.06 2.27.27 2.27 1.36 0 .73-.42 1.21-1.2 1.46-.38.12-.84.18-1.38.18H9.34v-.17c.19-.01.33-.03.42-.07.1-.03.15-.1.18-.2.04-.1.06-.25.06-.46V6.9c0-.21-.02-.36-.06-.46a.29.29 0 0 0-.18-.2 1.16 1.16 0 0 0-.42-.07V6Zm2.8.17c-.22 0-.36.05-.42.14-.07.1-.11.3-.11.59v4.2c0 .2.02.35.05.45.04.1.1.17.18.2.08.04.21.06.38.06.38 0 .66-.13.83-.39.18-.26.27-.62.27-1.1 0-.73-.83-1.18-1.57-1.18h-.7V9h.76c.26 0 .45-.06.6-.19.13-.13.34-.48.4-.7a2.82 2.82 0 0 0-.1-1.62c-.11-.21-.3-.32-.57-.32Z" fill="#F0F3FA"/></svg>