<!-- by TradingView --><svg width="18" height="18" viewBox="0 0 18 18" xmlns="http://www.w3.org/2000/svg"><path fill="#F0F3FA" d="M0 0h18v18H0z"/><path d="M11.5 11.61A4.38 4.38 0 0 1 8.27 13C5.9 13 4 11.2 4 9s1.91-4 4.27-4c1.95 0 3.59 1.22 4.1 2.9h.03V5.92h.6V13h-1.5v-1.39Zm0-.67V9c0-1.87-1.41-3.38-3.15-3.38S5.2 7.13 5.2 9c0 1.87 1.41 3.38 3.15 3.38 1.07 0 2.58-.6 3.15-1.44Z" fill="#AC1D31"/><path d="M13.12 10.08a.97.97 0 0 1-.23.03c-.16 0-.31-.07-.33-.22a.29.29 0 0 1-.1.1.59.59 0 0 1-.2.09l-.27.03a.37.37 0 0 1-.22-.06.23.23 0 0 1-.1-.2l.01-.08.12-.72v-.03a.28.28 0 0 1-.13-.04.19.19 0 0 1-.08-.16c0-.08.04-.14.1-.18a1.21 1.21 0 0 1 .71-.28c.04 0 .1 0 .15.03a.2.2 0 0 1 .1.12v.04l.08-.04c.14-.1.28-.15.42-.15a.4.4 0 0 1 .24.07c.05.03.1.08.12.13h.01c.1-.07.18-.12.26-.15a.69.69 0 0 1 .25-.05.4.4 0 0 1 .31.12c.08.09.1.2.1.32 0 .11 0 .25-.04.4l-.04.25a.2.2 0 0 1 .12.05c.03.04.04.09.04.12 0 .14-.1.25-.24.34-.15.1-.3.15-.47.15a.4.4 0 0 1-.26-.09.29.29 0 0 1-.1-.18l-.02.04c-.06.12-.19.17-.31.2Z" fill="#F0F3FA"/><path d="m11.88 9.35.04-.28a.72.72 0 0 0 0-.08v-.07l-.07-.02-.1-.01c-.02-.02-.03-.04-.03-.07 0-.04.01-.07.05-.1.03-.04.1-.08.2-.13.07-.04.14-.07.22-.09a.83.83 0 0 1 .2-.04.2.2 0 0 1 .1.02.1.1 0 0 1 .04.05l.02.12c0 .05.02.07.03.07.02 0 .1-.04.22-.12a.65.65 0 0 1 .35-.14.3.3 0 0 1 .17.05c.04.03.08.08.1.14l.01.04c.01.03.02.04.04.04 0 0 .02 0 .05-.03a1.3 1.3 0 0 1 .3-.2.57.57 0 0 1 .21-.04c.1 0 .17.04.22.1.05.05.08.13.08.24 0 .1-.02.23-.05.38l-.04.3.01.05.08.03c.03 0 .05 0 .05.02l.02.04c0 .08-.07.17-.2.25a.71.71 0 0 1-.39.13.28.28 0 0 1-.18-.05c-.04-.04-.06-.1-.06-.17 0-.04 0-.12.03-.24l.05-.28.03-.21V9c0-.02 0-.04-.02-.05l-.05-.01c-.07 0-.12.05-.16.15-.03.1-.06.3-.09.6 0 .05-.02.1-.04.13a.22.22 0 0 1-.07.08.6.6 0 0 1-.16.06.86.86 0 0 1-.2.03.29.29 0 0 1-.16-.04.12.12 0 0 1-.05-.1c0-.04 0-.12.03-.24l.05-.3.04-.23v-.05c0-.03 0-.05-.02-.07a.06.06 0 0 0-.05-.02c-.1 0-.18.2-.23.62l-.02.11a.63.63 0 0 1-.03.16.18.18 0 0 1-.06.07.47.47 0 0 1-.16.06 1.1 1.1 0 0 1-.24.03.25.25 0 0 1-.15-.04c-.03-.02-.04-.06-.04-.1a5.4 5.4 0 0 0 .09-.5ZM11.34 9.62c0 .08-.08.17-.23.25-.15.08-.31.13-.5.13a.63.63 0 0 1-.43-.15.53.53 0 0 1-.16-.4c0-.13.03-.27.1-.4.06-.13.15-.24.27-.34a.98.98 0 0 1 .64-.24c.13 0 .23.03.3.09.07.06.1.14.1.25 0 .14-.04.26-.14.37a.7.7 0 0 1-.37.23.9.9 0 0 1-.16.02c-.07 0-.1.02-.1.03 0 .04.02.07.05.1.03.03.07.05.12.05a.5.5 0 0 0 .24-.08.65.65 0 0 1 .16-.08c.03 0 .05.02.08.05a.2.2 0 0 1 .03.12Zm-.66-.51c0 .03 0 .05.03.05.04 0 .09-.04.13-.11a.44.44 0 0 0 .07-.24c0-.04-.01-.04-.04-.04s-.07.02-.12.1a.49.49 0 0 0-.07.24ZM9.03 9l.04-.28-.01-.04H8.9l-.04-.04a.17.17 0 0 1-.01-.08c0-.11.04-.19.13-.22l.14-.05a.9.9 0 0 0 .05-.16.47.47 0 0 1 .08-.18.3.3 0 0 1 .15-.07.94.94 0 0 1 .25-.03c.04 0 .07 0 .1.02l.02.06v.04l-.01.06-.03.2v.06l.01.03H9.96l.03.01.01.04a.5.5 0 0 1 0 .06l-.02.14-.02.08c0 .02-.02.02-.03.02h-.17c-.03 0-.05.02-.07.08a2.1 2.1 0 0 0-.06.31l-.02.21a1.57 1.57 0 0 0 0 .09c0 .03 0 .06.02.07 0 .02.02.03.05.03l.09-.03a.21.21 0 0 1 .1-.04l.05.04a.19.19 0 0 1-.01.2 1.25 1.25 0 0 1-.41.3.69.69 0 0 1-.27.07c-.1 0-.17-.03-.22-.08-.04-.05-.07-.13-.07-.24 0-.06 0-.13.02-.22 0-.09.03-.24.07-.47Z" fill="#AC1D31"/><path d="M8.8 9.5c0 .14-.08.27-.22.36-.15.1-.34.14-.57.14a.99.99 0 0 1-.42-.08c-.1-.05-.16-.11-.16-.2 0-.07.02-.13.06-.18a.17.17 0 0 1 .13-.07c.05 0 .08.03.1.08l.02.03a.17.17 0 0 0 .15.1c.03 0 .06-.01.08-.03A.08.08 0 0 0 8 9.58c0-.03-.04-.08-.1-.15l-.07-.05a.89.89 0 0 1-.16-.22.44.44 0 0 1-.06-.2c0-.15.07-.26.21-.36.14-.1.32-.14.53-.14.16 0 .29.02.37.07.1.04.14.1.14.19 0 .06-.02.11-.05.15a.15.15 0 0 1-.13.06c-.03 0-.08-.03-.12-.08-.05-.06-.09-.1-.13-.1-.02 0-.04.02-.05.03a.07.07 0 0 0-.02.05c0 .04.04.1.13.18l.08.08c.09.08.15.16.18.22s.05.12.05.19ZM6.83 9.14l.07.22v.01c.02.04.03.06.05.06.02 0 .04-.03.06-.1a.76.76 0 0 0 .04-.24c0-.1-.02-.2-.07-.3a.6.6 0 0 1-.07-.18.2.2 0 0 1 .08-.16c.05-.04.1-.07.18-.07.09 0 .15.04.2.1.04.08.06.18.06.32a2.13 2.13 0 0 1-.32 1.12c-.11.2-.25.35-.4.46a.82.82 0 0 1-.48.16.55.55 0 0 1-.37-.13.4.4 0 0 1-.15-.31c0-.1.03-.17.1-.24.05-.06.12-.1.2-.1.08 0 .14.03.18.08.05.05.08.11.08.19 0 .02 0 .05-.02.09v.1l.04.02c.03 0 .07-.02.1-.07.02-.04.03-.09.03-.15 0-.08-.01-.19-.05-.31a3.31 3.31 0 0 0-.27-.66c-.02-.04-.05-.06-.06-.06l-.08.04-.08.04c-.04 0-.06-.02-.09-.05a.16.16 0 0 1-.04-.1c0-.05.02-.1.05-.14a1.26 1.26 0 0 1 .41-.33.49.49 0 0 1 .2-.07c.08 0 .14.06.2.17.07.12.14.31.22.6ZM5.5 9.5c0 .14-.07.26-.19.36a.79.79 0 0 1-.48.15.68.68 0 0 1-.35-.09c-.1-.05-.14-.12-.14-.2a.3.3 0 0 1 .05-.18c.04-.05.07-.07.12-.07.04 0 .07.03.08.08.02.06.07.12.14.12a.1.1 0 0 0 .07-.02.1.1 0 0 0 .03-.07c0-.03-.04-.08-.1-.15l-.05-.05a.89.89 0 0 1-.14-.22.5.5 0 0 1-.04-.2c0-.15.06-.26.17-.36a.7.7 0 0 1 .46-.13c.13 0 .23.02.3.06.08.04.11.1.11.19 0 .06 0 .11-.04.15-.02.04-.06.06-.1.06-.03 0-.07-.03-.1-.08-.04-.06-.08-.1-.11-.1-.02 0-.03.02-.05.03a.08.08 0 0 0-.01.05c0 .04.03.1.1.18l.07.08a1 1 0 0 1 .15.22c.03.06.04.12.04.18ZM15.94 9.5c0 .14-.07.27-.22.36-.14.1-.33.14-.57.14a.99.99 0 0 1-.42-.08c-.1-.05-.16-.11-.16-.2 0-.07.02-.13.06-.18a.17.17 0 0 1 .14-.07c.04 0 .08.03.1.08l.01.03a.17.17 0 0 0 .15.1c.04 0 .06-.01.08-.03a.08.08 0 0 0 .03-.07c0-.03-.03-.08-.1-.15l-.06-.05a.89.89 0 0 1-.17-.22.44.44 0 0 1-.06-.2c0-.15.07-.26.22-.36.14-.1.31-.14.53-.14.16 0 .28.02.37.07.09.04.13.1.13.19 0 .06-.02.11-.05.15a.15.15 0 0 1-.12.06c-.04 0-.08-.03-.13-.08-.04-.06-.08-.1-.12-.1l-.06.03a.07.07 0 0 0-.02.05c0 .04.05.1.13.18l.08.08c.09.08.15.16.18.22s.05.12.05.19Z" fill="#AC1D31"/></svg>