<!-- by TradingView --><svg width="18" height="18" viewBox="0 0 18 18" xmlns="http://www.w3.org/2000/svg"><path fill="#F0F3FA" d="M0 0h18v18H0z"/><path d="M8.73 7C4.75 7.02 2.58 9.53 2 10.78l.92.22c1.1-2.32 3.23-3.38 5.64-3.66a8.97 8.97 0 0 1 4.54.8c-.93-1-3.3-1.17-4.37-1.14Z" fill="url(#aeufsvh2u)"/><path d="M9.4 7.68c3.98.02 6.02 1.85 6.6 3.1l-.92.22c-1.1-2.32-4.43-2.87-5.67-2.87-1.72 0-3.17.24-3.88.6.73-.7 2.8-1.08 3.88-1.05Z" fill="url(#beufsvh2u)"/><defs><linearGradient id="aeufsvh2u" x1="2.87" y1="10.29" x2="12.65" y2="8.75" gradientUnits="userSpaceOnUse"><stop stop-color="#FBC917"/><stop offset="1" stop-color="#88C73A"/></linearGradient><linearGradient id="beufsvh2u" x1="6.4" y1="8.33" x2="15.59" y2="9.6" gradientUnits="userSpaceOnUse"><stop stop-color="#FBC918"/><stop offset="1" stop-color="#8CC739"/></linearGradient></defs></svg>