<!-- by TradingView --><svg width="18" height="18" viewBox="0 0 18 18" xmlns="http://www.w3.org/2000/svg"><path fill="#F0F3FA" d="M0 0h18v18H0z"/><path d="M3 6.82V4.1A.1.1 0 0 1 3.1 4H6.8c.1 0 .19.08.19.18v.67c0 .1-.08.15-.19.15H4.03v1.82c0 .1-.09.18-.19.18h-.65A.18.18 0 0 1 3 6.82Zm12 4.36v2.73a.1.1 0 0 1-.1.09H11.2a.18.18 0 0 1-.19-.18v-.64c0-.1.08-.18.19-.18H14v-1.82c0-.1.11-.18.21-.18h.6c.1 0 .19.08.19.18Z" fill="#00A6DD"/><path d="M5 8V6.19c0-.1.08-.19.18-.19h1.14c.1 0 .18.08.18.19V8H5Zm0 1v2.81c0 .1.08.19.18.19h1.14c.1 0 .18-.08.18-.19V10H8v1.81c0 .1.08.19.18.19h1.14c.1 0 .18-.08.18-.19V9H5Zm3-1h1.5V6.19c0-.1-.08-.19-.18-.19H8.18c-.1 0-.18.08-.18.19V8ZM10.5 11.84V7.31c0-.72.52-1.31 1.15-1.31h.7c.63 0 1.15.59 1.15 1.31v4.5c0 .1-.09.19-.18.19s-.32-.08-.32-.18V9.5h-2v2.34c0 .09-.24.16-.31.16-.08 0-.19-.07-.19-.16ZM11 9h2V7.3c0-.53-.2-.8-.65-.8h-.75c-.46 0-.6.27-.6.8V9Z"/></svg>