<!-- by TradingView --><svg width="18" height="18" viewBox="0 0 18 18" xmlns="http://www.w3.org/2000/svg"><path fill="#F0F3FA" d="M0 0h18v18H0z"/><path d="M14.92 10.3h-.06l-.05-.01c-.04 0-.14.04-.3.11-.7.36-1.48.6-2.28.6C10.64 11 9 10.2 9 8.51 9 6.84 10.65 6 12.23 6a5.82 5.82 0 0 1 2.38.47.1.1 0 0 0 .08-.05l.06-.07.15.1-.79 1.14-.1-.07v-.05l-.02-.07c-.01-.07-.08-.14-.2-.2a3.17 3.17 0 0 0-1.56-.4c-1.05 0-2.03.61-2.03 1.69 0 1.1.98 1.68 2.03 1.68.6 0 1.3-.15 1.8-.49.14-.1.2-.18.2-.26a.17.17 0 0 0-.04-.11l.14-.08.67 1-.08.07ZM6.65 9l-.81-1.7L4.93 9h1.72ZM3 10.83a.27.27 0 0 0 .2-.12c.05-.07.1-.15.14-.24l1.8-3.7.1-.23a.39.39 0 0 0 .07-.18c0-.06-.03-.1-.07-.13a.58.58 0 0 0-.15-.06V6h1.64v.17a.62.62 0 0 0-.13.06c-.05.02-.07.06-.07.13 0 .05 0 .1.03.15l.1.2 2.02 3.87c.03.07.07.12.13.15.05.04.12.07.19.1V11H7.3v-.17l.1-.03c.03-.02.05-.05.05-.09a.58.58 0 0 0-.08-.24L7 9.7H4.64l-.35.74a.79.79 0 0 0-.1.28c0 .07.06.1.19.1V11H3v-.17ZM3 12h12v1H3z" fill="#A20057"/></svg>