<!-- by TradingView --><svg width="18" height="18" viewBox="0 0 18 18" xmlns="http://www.w3.org/2000/svg"><path fill="#F0F3FA" d="M0 0h18v18H0z"/><path d="M11.23 11.84 8 12.13 12.4 10l-.38 1.55 2.98-.7L10.85 13l.38-1.16Z" fill="#E4782C"/><path d="m6.44 11.8.4-.53c.02-.03.05-.04.1-.01.41.24.7.46 1.19.45h.02l.01-.03v-.04a.09.09 0 0 0-.07-.1A2.5 2.5 0 0 1 5.9 9.04c.01-1.09.81-1.95 1.94-1.94.55 0 1.04.16 1.47.5.84.7.82 1.41.92 2.07 0 .04-.03.07-.06.1a.16.16 0 0 1-.1.03h-.53c-.06 0-.08.03-.08.08v.05c0 .05.02.07.07.07l2.21.01c.1 0 .18-.06.16-.16a.07.07 0 0 0-.06-.05H11a.09.09 0 0 1-.09-.1l1.22-5.37c.01-.04.03-.07.07-.1a.19.19 0 0 1 .11-.04h.63c.03 0 .05-.02.05-.05V4.1c0-.06-.03-.09-.09-.09-1.44 0-2.12.3-2.84 1.09a9.22 9.22 0 0 0-1.32 1.95.13.13 0 0 1-.12 0A2.1 2.1 0 0 0 5.72 9c0 .77.37 1.52.94 2.03a.1.1 0 0 1 .02.14c-.43.64-.9 1.23-1.57 1.52-.86.38-1.77-.09-1.93-1.02a.57.57 0 0 1 .06-.39.06.06 0 0 1 .05-.03c.02 0 .05.02.06.04.08.18.23.37.45.38.23 0 .49-.12.49-.43 0-.33-.3-.5-.54-.49-.38 0-.75.45-.75.82 0 .1.02.2.05.3.24.67.76 1.12 1.43 1.13.12 0 .24-.01.36-.04.66-.14 1.2-.63 1.6-1.16Zm4.97-7.32a130.58 130.58 0 0 1-.96 4.45c-.01.04-.03.03-.04-.01a3.06 3.06 0 0 0-1.43-1.76.08.08 0 0 1-.03-.1 8.51 8.51 0 0 1 1-1.58 3.75 3.75 0 0 1 1.39-1.1c.04 0 .08.05.07.1Z" fill="#AF2026"/><path d="M7.44 10.38a.98.98 0 0 1-.08-.7c.01-.05.04-.07.08-.07.55.03 1.32-.22 1.53-.89A.66.66 0 0 0 9 8.55c.01-.43-.47-.6-.78-.53C7.48 8.2 6.99 9.16 7 9.97c0 .6.34 1.12.93 1.02a1.37 1.37 0 0 0 .88-.62c0-.03-.05-.06-.07-.05-.37.37-.96.72-1.3.06Zm.18-.89a.6.6 0 0 1-.1.01c-.03 0-.06 0-.07-.02-.01-.02-.01-.1.01-.2.09-.4.3-.76.59-.99.24-.2.4-.2.54-.02.05.07.08.15.08.24 0 .2-.11.39-.24.53-.22.25-.5.4-.8.45Z" fill="#E4782C"/></svg>