<!-- by TradingView --><svg width="18" height="18" viewBox="0 0 18 18" xmlns="http://www.w3.org/2000/svg"><path fill="#F0F3FA" d="M0 0h18v18H0z"/><path fill-rule="evenodd" d="M9 14.9A5.9 5.9 0 1 0 9 3.1a5.9 5.9 0 0 0 0 11.8Zm0 .1A6 6 0 1 0 9 3a6 6 0 0 0 0 12Z" fill="#1B1215"/><path fill-rule="evenodd" d="M9 14.65a5.65 5.65 0 1 0 0-11.3 5.65 5.65 0 0 0 0 11.3Zm0-1.77a3.88 3.88 0 1 0 0-7.76 3.88 3.88 0 0 0 0 7.76Z" fill="#1B1215"/><path d="M9.68 6.8 13.71 5c.36-.18.76.17.61.53l-2.2 5.6-.6.37H9.9l-.22-.54H8.37l-.22.54H6.54l-.61-.38-2.2-5.59c-.15-.36.25-.7.6-.53l4.04 1.82h1.31Z" fill="#F0F3FA"/><path d="m6.88 11.12 1.64-4.09h.96l1.64 4.09H10l-.11-.36H8.16l-.11.36H6.88ZM8.52 9.7h1.01l-.5-1.53-.51 1.53ZM13.65 5.28l-3.9 1.73 1.51 4.08.65-.15 2.07-5.34a.25.25 0 0 0-.33-.32Zm-9.25 0 3.9 1.73-1.52 4.08-.64-.15L4.06 5.6c-.08-.2.13-.4.34-.32Z" fill="#1B1215"/><path d="m14.39 5.55-2.2 5.67-.66.4H9.85l-.22-.54H8.42l-.22.54H6.52l-.65-.4-2.2-5.67c-.19-.43.28-.83.7-.63l4.01 1.81h1.29l4.01-1.8c.42-.21.89.19.7.62Zm-.14-.05c.12-.3-.2-.6-.5-.44L9.7 6.88H8.35L4.3 5.06c-.3-.15-.62.14-.5.44l2.19 5.62.57.35H8.1l.22-.54h1.41l.22.54h1.54l.57-.35 2.2-5.62Z" fill="#1B1215"/></svg>