<!-- by TradingView --><svg width="18" height="18" viewBox="0 0 18 18" xmlns="http://www.w3.org/2000/svg"><path fill="#F0F3FA" d="M0 0h18v18H0z"/><path d="M13.13 5.78c.73-.71.8-.78.99-.78.32 0 .93.59.88.84-.02.09-.13.16-.25.16h-4.02v.1c0 .05-.04.07-.13.12-.09.03-.11.06-.17.16l-.21.62h2.25c.37-.42.48-.5.6-.5.15 0 .34.12.63.38.27.24.36.4.33.53-.01.07-.08.13-.3.25-.19.87-.35 1.83-.5 2.65l-.06.33c.22.11.4.23.54.34.38.29.35.76.12.94-.25.2-.58-.02-.73-.31a1.1 1.1 0 0 0-.08-.13l-.05.24c-.1.49-.24.73-.5.92-.3.23-.7.36-1.06.36-.27 0-.32-.04-.35-.3-.03-.32-.2-.48-.64-.65-.05-.02-.06-.03-.05-.05 0-.04.03-.05.1-.05l.3.01h.3c.28 0 .44-.05.52-.18.06-.1.1-.23.25-.9l.08-.37a4 4 0 0 0-.78-.36c-.1-.04-.12-.06-.14-.08 0-.03.01-.06.05-.07.05-.01.3.02.64.1l.3.08.53-2.75c.03-.17 0-.23-.12-.23h-2.24l-.1.5-.17.8c.34.16.62.32.82.48.38.29.35.76.12.94-.25.2-.58-.02-.73-.31-.06-.1-.17-.26-.33-.44a572.95 572.95 0 0 0-.3 1.64l.24.17c.38.29.35.76.12.94-.17.14-.4.08-.56-.08l-.14.67a.4.4 0 0 1-.1.22c-.16.16-.53.27-.85.27-.35 0-.41-.04-.36-.27 0-.05.03-.14.05-.24l.1-.36.31-1.38c-.3-.23-.69-.45-1.14-.6-.1-.04-.12-.06-.14-.08 0-.03.01-.06.05-.07.05-.01.3.02.64.1.25.06.48.13.7.2l.26-1.16.14-.7c-.2-.11-.42-.2-.65-.29-.1-.04-.12-.06-.14-.08 0-.03.01-.06.05-.07a2.25 2.25 0 0 1 .8.14l.18-.94H6.85a.38.38 0 0 0-.18.09c-.05.04-.07.15-.18.7l-.16.74c.15.08.27.17.38.25.38.29.35.76.12.94-.23.19-.54.01-.7-.25l-.1.45a113.3 113.3 0 0 0-.47 2.42c-.04.17-.1.24-.33.35-.15.07-.33.11-.54.11-.35 0-.44-.09-.38-.37l.12-.47.03-.13c.16-.61.3-1.3.49-2.19l.24-1.16c-.3-.2-.65-.4-1.05-.53-.1-.04-.12-.06-.14-.08 0-.03.01-.06.05-.07.05-.01.3.02.64.1.2.05.4.1.59.17l.14-.67.2-.96c.01-.03.03-.05.07-.05.2 0 .75.12 1.05.25.07.03.1.08.11.16h2.22c.04-.19.06-.24.08-.3l.09-.32L9.3 6H3.13C3 5.82 3 5.8 3 5.78c0-.03.04-.06.09-.06a6.29 6.29 0 0 1 .53.06h9.5Z" fill="#003473"/></svg>