<!-- by TradingView --><svg width="18" height="18" viewBox="0 0 18 18" xmlns="http://www.w3.org/2000/svg"><path fill="#F0F3FA" d="M0 0h18v18H0z"/><path d="m16 12-4-4.82c-.29-.35-.48-.53-.76-.28-.35.3-.33.34-.67-.1L9.55 5.5c-.41-.54-.48-.7-.95-.13L7.24 7.02c-.64.78-.26.43-.84.22-.27-.1-.43.14-.64.38A58.33 58.33 0 0 1 2 11.65c.76-.51 1.52-.97 2.3-1.33.49-.22.94-.18 1.26-.98.4.55.85.96 1.32 1.3l1.23.84-1.47-2.35c-.3-.48.05-.55.28-.37l.62.5c.58.47.32.06.65-.26.2-.18.43.1.62.24l1.07.84-.71-1.01c-.5-.72-.47-1.16-.2-2.22.16-.67.36-.35.62-.04a18.5 18.5 0 0 0 2.37 2.43l-.33-.8c-.24-.59.06-.64.35-.29.4.47 3.3 3.26 3.67 3.58l.24.2c.02 0 .07.07.09.07H16Z" fill="url(#asumqoxls)"/><defs><linearGradient id="asumqoxls" x1="9" y1="5" x2="9" y2="12" gradientUnits="userSpaceOnUse"><stop stop-color="#5192BB"/><stop offset=".99" stop-color="#60B5A6"/></linearGradient></defs></svg>