<!-- by TradingView --><svg width="18" height="18" viewBox="0 0 18 18" xmlns="http://www.w3.org/2000/svg"><path fill="#F0F3FA" d="M0 0h18v18H0z"/><path d="m4 9.5.11.02.32.07.5.1.3.09.33.06c.24.04.5.08.76.14.07 0 .14.02.2.03l.21.02.43.05.45.05.23.02h.23l.93.05.93-.04.23-.01c.08 0 .15 0 .23-.02l.44-.05.44-.05.2-.02c.07 0 .14-.02.2-.04l.4-.07.37-.06.33-.06.3-.08a9.3 9.3 0 0 1 .82-.18L14 9.5l-.11.07-.32.18-.49.26-.3.15-.33.13-.37.14-.39.14-.2.07-.21.05-.44.1c-.29.05-.6.14-.9.15L9 11l-.94-.06c-.3 0-.6-.1-.9-.15l-.43-.1-.21-.05-.2-.07-.77-.27-.33-.14-.3-.15-.5-.27-.3-.17L4 9.5Z" fill="#E02826"/><path fill-rule="evenodd" d="m3 10.12.74-3.45A.84.84 0 0 1 4.6 6h8.92c.18-.02.57.09.72.67l.76 3.39c.04.36-.03 1.1-.56 1.35-1.06.22-3.62.65-5.43.58-1.31-.02-4.24-.16-5.41-.58-.22-.11-.65-.53-.58-1.29Zm.82-2.89c.04-.2.25-.6.74-.58h9.07c.14 0 .46.14.59.58l.47 2.21c.07.37.06 1.16-.53 1.34-2.68.66-7.28.81-10.34 0-.23-.08-.65-.47-.5-1.34l.5-2.21Z" fill="url(#a4jquetsz)"/><path fill="#E02826" fill-opacity=".7" d="M5 8h8v1H5z"/><defs><linearGradient id="a4jquetsz" x1="12.98" y1="5.6" x2="2.88" y2="8.89" gradientUnits="userSpaceOnUse"><stop stop-color="#005098"/><stop offset=".48" stop-color="#0093D7"/><stop offset="1" stop-color="#005097"/></linearGradient></defs></svg>