<!-- by TradingView --><svg width="18" height="18" viewBox="0 0 18 18" fill="none" xmlns="http://www.w3.org/2000/svg">
<rect width="18" height="18" fill="#F0F3FA"/>
<path d="M15 9C15 10.5913 14.3679 12.1174 13.2426 13.2426C12.1174 14.3679 10.5913 15 9 15C7.4087 15 5.88258 14.3679 4.75736 13.2426C3.63214 12.1174 3 10.5913 3 9C3 7.4087 3.63214 5.88258 4.75736 4.75736C5.88258 3.63214 7.4087 3 9 3C10.5913 3 12.1174 3.63214 13.2426 4.75736C14.3679 5.88258 15 7.4087 15 9ZM14.647 8.99898C14.647 7.50727 14.0544 6.07666 12.9996 5.02186C11.9448 3.96707 10.5142 3.37449 9.02247 3.37449C7.53076 3.37449 6.10015 3.96707 5.04535 5.02186C3.99056 6.07666 3.39798 7.50727 3.39798 8.99898C3.39798 10.4907 3.99056 11.9213 5.04535 12.9761C6.10015 14.0309 7.53076 14.6235 9.02247 14.6235C9.76109 14.6235 10.4925 14.478 11.1749 14.1953C11.8573 13.9127 12.4773 13.4984 12.9996 12.9761C13.5219 12.4538 13.9362 11.8338 14.2188 11.1514C14.5015 10.469 14.647 9.7376 14.647 8.99898Z" fill="#80A969"/>
<path d="M14.6474 8.999C14.6474 9.73762 14.5019 10.469 14.2193 11.1514C13.9366 11.8338 13.5223 12.4538 13 12.9761C12.4778 13.4984 11.8577 13.9127 11.1753 14.1954C10.4929 14.478 9.76155 14.6235 9.02293 14.6235C7.53122 14.6235 6.10061 14.0309 5.04581 12.9761C3.99102 11.9213 3.39844 10.4907 3.39844 8.999C3.39844 7.50729 3.99102 6.07668 5.04581 5.02189C6.10061 3.96709 7.53122 3.37451 9.02293 3.37451C10.5146 3.37451 11.9452 3.96709 13 5.02189C14.0548 6.07668 14.6474 7.50729 14.6474 8.999Z" fill="#B2F05B"/>
<path d="M9.2201 6.31955C9.16767 6.1935 9.10911 5.99672 8.98281 6.04802C8.92561 6.07147 8.90893 6.1312 8.87455 6.18361L8.78058 6.15466C8.77567 6.15313 8.77145 6.14966 8.76875 6.14493C8.76605 6.14019 8.76505 6.13452 8.76595 6.12901C8.78887 6.00442 8.83256 5.89351 8.89702 5.79628C9.12546 5.45146 9.28887 6.16052 9.31406 6.28804C9.31656 6.3005 9.31304 6.31064 9.30351 6.31846C9.28285 6.33482 9.25505 6.33519 9.2201 6.31955Z" fill="#E6FF6B"/>
<path d="M7.37137 6.32905L7.28115 6.04653C7.2748 6.02674 7.26697 6.02613 7.25766 6.0447L7.1637 6.23158L7.08914 6.22242C7.0778 6.2212 7.07189 6.21436 7.07144 6.2019C7.06735 6.08061 7.14634 5.77573 7.28115 5.75081C7.32677 5.74226 7.3539 5.76242 7.36252 5.81127L7.44865 6.29424C7.4491 6.29672 7.44907 6.29927 7.44859 6.30174C7.44811 6.30422 7.44718 6.30656 7.44585 6.30864C7.44452 6.31072 7.44282 6.31249 7.44084 6.31386C7.43887 6.31523 7.43666 6.31616 7.43435 6.3166L7.37137 6.32905Z" fill="#E6FF6B"/>
<path d="M10.9016 6.28625C10.868 6.20075 10.8247 6.12233 10.7718 6.051C10.7703 6.04883 10.7683 6.04717 10.7659 6.04619C10.7635 6.04521 10.761 6.04495 10.7584 6.04544C10.7559 6.04593 10.7536 6.04715 10.7516 6.04897C10.7497 6.05078 10.7482 6.05313 10.7473 6.05576L10.6745 6.29688C10.6418 6.32009 10.6126 6.31117 10.587 6.27013C10.5806 6.26011 10.5794 6.24949 10.5832 6.23825C10.6207 6.12368 10.6443 6.00568 10.6541 5.88427C10.6602 5.81025 10.6813 5.73732 10.7599 5.75235C10.9094 5.78093 10.9475 6.10596 10.9727 6.21993C10.9754 6.23165 10.9744 6.24301 10.9696 6.25401C10.9563 6.28454 10.9336 6.29529 10.9016 6.28625Z" fill="#E6FF6B"/>
<path d="M10.0911 6.37928L10.037 6.28254C10.0451 6.26104 10.0483 6.23942 10.0465 6.21768C10.046 6.2111 10.0433 6.20496 10.0389 6.20043C10.0345 6.19589 10.0287 6.19329 10.0227 6.19313C9.93927 6.1902 9.80105 6.33238 9.735 6.38185C9.73041 6.38548 9.72482 6.38736 9.71912 6.38718C9.71342 6.387 9.70794 6.38478 9.70356 6.38086C9.69917 6.37693 9.69613 6.37155 9.69492 6.36555C9.69371 6.35955 9.6944 6.35329 9.69687 6.34777C9.76882 6.1792 9.87595 6.04264 10.0183 5.93809C10.0294 5.92978 10.0391 5.93161 10.0475 5.94358C10.1279 6.05767 10.1711 6.18702 10.1772 6.33164C10.1775 6.33727 10.176 6.34283 10.173 6.34742C10.17 6.35201 10.1656 6.35536 10.1606 6.35693L10.0911 6.37928Z" fill="#E6FF6B"/>
<path d="M8.06417 5.95939L8.27967 6.24448C8.281 6.24613 8.28173 6.24834 8.28172 6.25071C8.28512 6.31447 8.26696 6.32925 8.22725 6.29505C8.17209 6.24814 8.11127 6.21199 8.04477 6.18658C8.03251 6.18194 8.02196 6.18475 8.01311 6.19501C7.98451 6.22896 7.9634 6.26744 7.94978 6.31044C7.94615 6.32192 7.93866 6.32803 7.92731 6.32876L7.87318 6.33242C7.86138 6.33316 7.85582 6.32705 7.8565 6.3141C7.86581 6.17119 7.92016 6.05173 8.01957 5.95572C8.02271 5.9527 8.02638 5.95039 8.03036 5.94893C8.03433 5.94747 8.03854 5.9469 8.04271 5.94724C8.04688 5.94758 8.05094 5.94884 8.05463 5.95092C8.05832 5.95301 8.06157 5.95589 8.06417 5.95939Z" fill="#E6FF6B"/>
<path d="M7.37125 6.32909C7.42879 6.62114 7.52684 7.0202 7.69331 7.25728C7.71079 7.2822 7.72316 7.31384 7.73042 7.35219C7.73081 7.35386 7.73064 7.35563 7.72993 7.35718C7.72923 7.35873 7.72804 7.35996 7.72658 7.36066C7.72512 7.36136 7.72347 7.36148 7.72193 7.36101C7.72039 7.36053 7.71906 7.35948 7.71817 7.35805C7.50414 7.04902 7.36229 6.70432 7.29261 6.32396C7.27808 6.24407 7.25459 6.2409 7.22214 6.31443C7.16585 6.44244 7.12704 6.57546 7.10571 6.71349C7.10504 6.71684 7.10327 6.71982 7.10073 6.72189C7.09819 6.72395 7.09504 6.72497 7.09186 6.72475C7.08869 6.72452 7.08569 6.72308 7.08342 6.72068C7.08114 6.71827 7.07975 6.71507 7.07949 6.71165C7.07541 6.54187 7.10344 6.38186 7.16358 6.23162L7.25754 6.04473C7.26685 6.02616 7.27468 6.02678 7.28103 6.04656L7.37125 6.32909Z" fill="#475E33"/>
<path d="M9.21999 6.31956C9.28263 6.56983 9.4011 6.90366 9.38238 7.01946C9.37829 7.04462 9.37228 7.04523 9.36433 7.02129C9.28978 6.79776 9.2016 6.41813 9.06508 6.2393C9.05975 6.23241 9.05301 6.22692 9.0454 6.22328C9.03779 6.21963 9.02951 6.21791 9.02121 6.21827C9.01291 6.21862 9.0048 6.22104 8.99753 6.22532C8.99026 6.22961 8.98402 6.23564 8.97929 6.24297C8.89827 6.36756 8.83733 6.4919 8.79647 6.61601C8.77979 6.66694 8.66098 7.07919 8.63851 7.08138C8.63329 7.08187 8.63113 7.07931 8.63204 7.07369C8.68469 6.76661 8.76549 6.46992 8.87443 6.18361C8.90882 6.1312 8.9255 6.07147 8.9827 6.04802C9.109 5.99672 9.16756 6.1935 9.21999 6.31956Z" fill="#475E33"/>
<path d="M10.9016 6.28622C10.9467 6.42571 10.9722 6.57339 10.9778 6.72925C10.9787 6.73682 10.9767 6.7417 10.9717 6.7439C10.961 6.75294 10.9512 6.75868 10.9421 6.76113C10.9294 6.76455 10.9227 6.75929 10.922 6.74537C10.9147 6.59097 10.8776 6.44574 10.8107 6.30967C10.808 6.30427 10.8039 6.29985 10.7988 6.29696C10.7938 6.29407 10.7881 6.29284 10.7824 6.29343C10.7767 6.29401 10.7714 6.29639 10.7669 6.30026C10.7625 6.30413 10.7593 6.30931 10.7576 6.31517C10.6513 6.69663 10.5652 6.98062 10.3068 7.34083C10.306 7.34183 10.3049 7.34248 10.3037 7.34267C10.3025 7.34286 10.3012 7.34257 10.3002 7.34186C10.2992 7.34115 10.2984 7.34006 10.2981 7.3388C10.2977 7.33753 10.2978 7.33617 10.2983 7.33497C10.38 7.16494 10.4719 7.00224 10.5267 6.82892C10.5823 6.65351 10.6316 6.47616 10.6745 6.29685L10.7473 6.05573C10.7482 6.0531 10.7497 6.05075 10.7516 6.04893C10.7536 6.04711 10.7559 6.0459 10.7585 6.04541C10.761 6.04492 10.7635 6.04518 10.7659 6.04616C10.7683 6.04713 10.7703 6.0488 10.7719 6.05096C10.8247 6.1223 10.868 6.20072 10.9016 6.28622Z" fill="#475E33"/>
<path d="M6.66484 7.51675L6.67335 7.60543C6.66313 7.6648 6.60049 7.65454 6.57904 7.61276C6.53683 7.52958 6.46363 7.45776 6.38873 7.41049C6.3792 7.40438 6.37171 7.39607 6.36627 7.38557C6.32065 7.2942 6.26209 7.22922 6.1906 7.19062L6.04455 6.86962C6.06815 6.80146 6.05691 6.7206 6.01084 6.62704C6.0091 6.62338 6.00635 6.6204 6.00297 6.61851C5.99958 6.61661 5.99573 6.6159 5.99196 6.61646C5.98818 6.61703 5.98466 6.61884 5.98188 6.62165C5.9791 6.62447 5.97721 6.62814 5.97646 6.63217L5.95671 6.72304C5.95578 6.72885 5.95283 6.73405 5.94846 6.73759C5.94408 6.74112 5.93862 6.74273 5.93319 6.74207C5.92775 6.74142 5.92275 6.73855 5.91921 6.73406C5.91568 6.72957 5.91387 6.72379 5.91415 6.71791C5.91279 6.57818 5.92652 6.44015 5.95535 6.30384C5.95631 6.29936 5.95813 6.29515 5.96067 6.2915C5.96322 6.28785 5.96642 6.28486 5.97004 6.28276C5.97366 6.28065 5.97762 6.27947 5.98162 6.27931C5.98561 6.27916 5.98955 6.28002 5.99314 6.28185C6.01697 6.29431 6.03059 6.43942 6.03433 6.46983C6.04114 6.52627 6.05612 6.57622 6.07927 6.61971C6.20455 6.85594 6.33358 7.08997 6.46636 7.32181C6.51606 7.40829 6.58222 7.47327 6.66484 7.51675Z" fill="#E6FF6B"/>
<path d="M10.0375 6.28259L10.0917 6.37933C10.11 6.4387 10.2275 6.78718 10.1849 6.90078C10.1788 6.91666 10.173 6.91653 10.1676 6.90041L10.0402 6.53214C10.0375 6.52419 10.0329 6.51708 10.027 6.51141C10.0211 6.50575 10.0141 6.50171 10.0064 6.49962C9.99876 6.49753 9.99075 6.49747 9.98307 6.49943C9.97539 6.50139 9.96826 6.50532 9.96229 6.51089C9.9094 6.56048 9.8488 6.59272 9.78049 6.60763C9.7751 6.60872 9.76953 6.60799 9.76454 6.60553C9.75955 6.60308 9.7554 6.59903 9.75263 6.59393C9.74987 6.58883 9.74865 6.58293 9.74912 6.57705C9.7496 6.57117 9.75176 6.5656 9.7553 6.56109C9.81487 6.4867 9.95139 6.29578 10.0375 6.28259Z" fill="#475E33"/>
<path d="M11.3006 7.45913C11.2138 7.95455 11.0586 8.27739 10.8124 8.77501C10.787 8.80286 10.7611 8.80653 10.7348 8.78601C10.7114 8.76768 10.7057 8.74435 10.7175 8.71602C10.8315 8.44229 10.9425 8.16526 11.0181 7.87943C11.0756 7.66067 11.1835 7.30632 11.1451 7.11027C11.165 7.01769 11.1687 6.92669 11.1559 6.83728C11.1556 6.83402 11.1543 6.83099 11.1521 6.82866C11.15 6.82633 11.1472 6.82483 11.1442 6.82441C11.1412 6.82399 11.1381 6.82466 11.1355 6.82633C11.1329 6.828 11.1308 6.83056 11.1297 6.83361C11.0224 7.10258 10.8914 7.35261 10.7369 7.58372C10.5764 7.73151 10.435 7.89519 10.3127 8.07475C10.3056 8.08525 10.2963 8.09197 10.2848 8.0949C10.2289 8.10882 10.1952 8.07572 10.1836 7.99559C10.1875 7.99193 10.1872 7.98692 10.1826 7.98057C10.3334 7.80101 10.5295 7.58958 10.6245 7.37118C10.6695 7.26711 10.7586 7.21214 10.805 7.1209C10.866 6.99973 10.9215 6.87404 10.9714 6.74383C10.9764 6.74164 10.9785 6.73675 10.9776 6.72918C11.0529 6.60996 11.1049 6.48146 11.1335 6.34368C11.1355 6.33378 11.1404 6.32484 11.1475 6.31815C11.1545 6.31145 11.1634 6.30736 11.1728 6.30646C11.1822 6.30556 11.1916 6.30791 11.1996 6.31315C11.2077 6.31839 11.214 6.32626 11.2176 6.33562C11.2394 6.39168 11.2625 6.44372 11.268 6.50675C11.2947 6.82189 11.3056 7.13935 11.3006 7.45913Z" fill="#E6FF6B"/>
<path d="M8.29749 6.66883L8.16029 6.58749L8.04386 6.5032C8.03923 6.4998 8.03398 6.4975 8.02846 6.49647C8.02294 6.49544 8.01727 6.4957 8.01185 6.49723C8.00643 6.49876 8.00137 6.50152 7.99703 6.50533C7.99268 6.50915 7.98915 6.51392 7.98667 6.51933C7.90496 6.69742 7.91653 6.90006 7.8253 7.06203C7.82419 7.06434 7.82234 7.06613 7.82009 7.06708C7.81784 7.06802 7.81535 7.06804 7.81308 7.06714C7.81082 7.06623 7.80894 7.06447 7.8078 7.06218C7.80667 7.05989 7.80635 7.05722 7.80691 7.0547C7.84073 6.85413 7.87818 6.65186 7.91926 6.44787C7.92629 6.41294 7.94252 6.37312 7.96794 6.32841C7.97384 6.31815 7.98235 6.31327 7.99348 6.31375C8.16778 6.32292 8.24336 6.49148 8.29749 6.66883Z" fill="#475E33"/>
<path d="M7.24113 7.57899C7.09655 7.34666 6.96536 7.09834 6.84757 6.83401C6.83872 6.81423 6.83475 6.81532 6.83566 6.83731L6.8428 7.0733C6.82136 7.21255 6.87174 7.32028 6.87787 7.44377C6.88218 7.52536 6.88797 7.58131 6.89523 7.6116C6.9901 8.00027 7.1214 8.38137 7.28913 8.75489C7.29347 8.76456 7.29507 8.77536 7.29374 8.78592C7.29241 8.79649 7.2882 8.80635 7.28164 8.81426C7.2569 8.84479 7.22705 8.84162 7.1921 8.80473C6.98579 8.38552 6.76995 7.94799 6.70016 7.51303C6.66316 7.13511 6.67882 6.76085 6.74714 6.39025C6.75122 6.36778 6.75815 6.35373 6.76791 6.34811C6.78363 6.33917 6.80183 6.3367 6.81912 6.34115C6.83641 6.3456 6.85161 6.35667 6.86187 6.3723C6.96094 6.52364 6.98409 6.66252 7.03992 6.81679C7.19755 7.25322 7.46548 7.51779 7.72047 7.87764C7.72751 7.8879 7.72717 7.89779 7.71945 7.90732C7.666 7.97364 7.60472 7.95679 7.55195 7.89596C7.45595 7.78578 7.35234 7.68012 7.24113 7.57899Z" fill="#E6FF6B"/>
<path d="M8.16003 6.58737L8.29723 6.66872C8.41865 6.76619 8.52691 6.89237 8.62201 7.04725C8.62882 7.05825 8.62837 7.06875 8.62065 7.07877L8.51852 7.21325C8.51748 7.21454 8.51615 7.21553 8.51466 7.21611C8.51317 7.21668 8.51158 7.21683 8.51005 7.21653C8.50851 7.21623 8.5071 7.21549 8.50596 7.2144C8.50481 7.21331 8.50398 7.2119 8.50354 7.21032C8.5024 7.20666 8.50127 7.20299 8.50013 7.19933C8.49786 7.19175 8.49366 7.19017 8.48754 7.19456C8.47982 7.20018 8.4738 7.20873 8.46949 7.22021L8.26557 6.97397C8.25785 6.96468 8.2482 6.95967 8.23663 6.95894C8.04938 6.94868 8.0041 7.14876 7.96257 7.30449C7.89494 7.31915 7.86929 7.29533 7.88563 7.23304C7.96053 6.94453 8.01772 6.74506 8.05721 6.63464C8.07265 6.59189 8.10692 6.57613 8.16003 6.58737Z" fill="#E6FF6B"/>
<path d="M12.0261 6.59588C12.0271 6.59324 12.0288 6.59096 12.031 6.5893C12.0331 6.58763 12.0357 6.58665 12.0383 6.58646C12.041 6.58627 12.0436 6.58688 12.046 6.58822C12.0483 6.58956 12.0503 6.59158 12.0516 6.59405C12.102 6.69005 11.9512 7.08508 11.911 7.19647C11.8004 7.50282 11.5726 7.79524 11.3949 8.06347C11.3852 8.07837 11.3824 8.07691 11.3867 8.05907C11.3902 8.04552 11.3963 8.01547 11.4017 8.00557C11.5654 7.71389 11.7202 7.41695 11.8661 7.11476C11.9424 6.95682 11.9611 6.76994 12.0261 6.59588Z" fill="#475E33"/>
<path d="M9.98823 7.19788C9.93615 7.07842 9.90551 6.9531 9.75843 6.92122C9.72189 6.93441 9.68127 6.96434 9.63655 7.011C9.63264 7.01507 9.62777 7.01792 9.62248 7.01921C9.6172 7.0205 9.6117 7.0202 9.60659 7.01832C9.55439 6.99976 9.5216 6.96495 9.50821 6.91389C9.50526 6.90216 9.50707 6.89129 9.51365 6.88128C9.62396 6.71858 9.68013 6.55588 9.91436 6.64272C9.9257 6.64688 9.93342 6.65494 9.93751 6.66691L10.0962 7.12056C10.1011 7.13522 10.0989 7.14841 10.0893 7.16014C10.0685 7.18652 10.0348 7.1991 9.98823 7.19788Z" fill="#E6FF6B"/>
<path d="M5.47046 7.40282C5.46887 7.38426 5.46535 7.37033 5.45991 7.36105C5.45762 7.35728 5.45416 7.3545 5.45015 7.35321C5.44614 7.35192 5.44184 7.3522 5.438 7.354C5.43417 7.3558 5.43105 7.359 5.4292 7.36305C5.42735 7.36709 5.42689 7.3717 5.4279 7.37607C5.49213 7.62867 5.61492 7.84255 5.79627 8.01771C5.78265 8.05142 5.76789 8.07268 5.75201 8.08147C5.71728 8.10052 5.69163 8.09881 5.67507 8.07634L5.47557 7.80444C5.34994 7.57175 5.28662 7.27127 5.19402 7.0144C5.17336 6.93915 5.16599 6.85756 5.17189 6.76961C5.17234 6.76321 5.17401 6.75698 5.1768 6.75131C5.17959 6.74564 5.18344 6.74066 5.18811 6.73666C5.19278 6.73267 5.19816 6.72976 5.20392 6.72812C5.20969 6.72647 5.2157 6.72613 5.22159 6.72711C5.25053 6.73187 5.26858 6.77694 5.28117 6.79966C5.51506 7.21704 5.81703 7.6051 6.18063 7.89715C6.2494 7.95212 6.36038 8.07451 6.43834 8.09466C6.4531 8.09857 6.45639 8.10749 6.44822 8.12141C6.39204 8.21742 6.25484 8.09283 6.1939 8.04446C5.95105 7.85073 5.74781 7.65933 5.58417 7.47025C5.57645 7.46145 5.56703 7.45608 5.55591 7.45412C5.52345 7.44826 5.49497 7.43116 5.47046 7.40282Z" fill="#E6FF6B"/>
<path d="M12.8211 7.06494L12.6114 7.66847L12.5675 7.71097C12.5581 7.72001 12.5475 7.72258 12.5354 7.71867C12.5191 7.71305 12.5044 7.69852 12.4912 7.67506L12.6097 7.41196C12.6181 7.39339 12.613 7.3868 12.5943 7.39217C12.5739 7.39803 12.5552 7.42002 12.5382 7.45813C12.4478 7.48427 12.3697 7.53972 12.3036 7.62449C12.1637 7.80368 11.9809 7.9444 11.8195 8.09904C11.8102 8.10796 11.7981 8.11457 11.7851 8.1178C11.7721 8.12103 11.759 8.12069 11.7479 8.11682C11.7368 8.11295 11.7284 8.1058 11.724 8.09651C11.7197 8.08723 11.7196 8.07636 11.7238 8.06569C11.7325 8.04444 11.7437 8.03173 11.7575 8.02758C11.7698 8.02416 11.7767 8.01561 11.7783 8.00193C11.7792 7.99484 11.7786 7.98764 11.7766 7.98031L11.8205 7.90885C11.8489 7.86244 11.8911 7.83068 11.9472 7.81358C12.0098 7.79428 12.0727 7.74603 12.1358 7.66883C12.3666 7.38619 12.584 7.09218 12.7881 6.78681C12.7974 6.77264 12.8056 6.76483 12.8129 6.76336C12.8171 6.76243 12.8215 6.7627 12.8256 6.76412C12.8296 6.76554 12.8333 6.76808 12.8363 6.7715C12.8392 6.77491 12.8413 6.77908 12.8423 6.78362C12.8434 6.78816 12.8433 6.79292 12.8422 6.79744C12.8184 6.89564 12.8113 6.98481 12.8211 7.06494Z" fill="#E6FF6B"/>
<path d="M7.24153 7.57898C7.27444 7.6596 7.30974 7.72201 7.34741 7.76623C7.61931 8.08528 7.83947 8.44158 8.00788 8.83514C8.01105 8.84271 8.00901 8.8476 8.00175 8.8498C7.99085 8.85309 7.99153 8.8443 7.98915 8.83953C7.82823 8.54516 7.6352 8.279 7.41005 8.04106C7.13021 7.74534 6.95828 7.46868 6.84321 7.07329L6.83606 6.8373C6.83516 6.81532 6.83913 6.81422 6.84798 6.83401C6.96577 7.09833 7.09696 7.34666 7.24153 7.57898Z" fill="#475E33"/>
<path d="M11.1456 7.11033C11.0203 7.46541 10.8484 7.77725 10.5849 8.03413C10.3384 8.27427 10.1303 8.54995 9.96053 8.86118C9.95599 8.86973 9.95428 8.86912 9.95542 8.85935C9.96064 8.81416 9.96938 8.78056 9.98163 8.75858C10.1379 8.48082 10.3473 8.12537 10.5764 7.82415C10.6343 7.74818 10.6879 7.66805 10.7374 7.58377C10.892 7.35267 11.0229 7.10263 11.1303 6.83367C11.1314 6.83062 11.1334 6.82805 11.136 6.82639C11.1387 6.82472 11.1417 6.82404 11.1447 6.82446C11.1477 6.82488 11.1505 6.82638 11.1527 6.82871C11.1548 6.83104 11.1562 6.83408 11.1565 6.83733C11.1692 6.92674 11.1656 7.01774 11.1456 7.11033Z" fill="#475E33"/>
<path d="M11.8204 7.90887L11.7765 7.98032L11.737 7.99681C11.7348 7.99786 11.7323 7.99804 11.73 7.99732C11.7277 7.99661 11.7257 7.99504 11.7244 7.9929C11.7231 7.99076 11.7225 7.98818 11.7227 7.98561C11.723 7.98304 11.724 7.98065 11.7258 7.97886L11.7568 7.94258C11.7636 7.93452 11.7688 7.92548 11.7724 7.91546C11.8463 7.70952 11.9287 7.50798 11.9801 7.29178C12.01 7.1645 12.0342 7.07265 12.0526 7.01622C12.1304 6.77412 12.1495 6.77937 12.1098 7.03197C12.0723 7.27114 11.9854 7.53253 11.849 7.81616C11.8361 7.84327 11.8265 7.87418 11.8204 7.90887Z" fill="#475E33"/>
<path d="M6.12668 7.73071C6.1257 7.73105 6.12466 7.73118 6.12363 7.73109C6.1226 7.731 6.1216 7.73069 6.12068 7.73017C6.11977 7.72966 6.11895 7.72896 6.11829 7.72811C6.11762 7.72726 6.11712 7.72627 6.11681 7.72521L5.96531 7.17042C5.94262 7.08741 5.92382 7.00684 5.91304 6.94634C5.90225 6.88584 5.90036 6.85033 5.90778 6.84759C5.91147 6.8462 5.91735 6.853 5.92511 6.86759C5.93286 6.88218 5.94232 6.90427 5.95295 6.9326C5.96358 6.96093 5.97517 6.99494 5.98705 7.03267C5.99892 7.0704 6.01086 7.11111 6.02217 7.15247L6.17366 7.70726C6.17419 7.7094 6.17391 7.71167 6.17289 7.71359C6.17187 7.71551 6.17019 7.71692 6.16822 7.71752L6.12668 7.73071Z" fill="#475E33"/>
<path d="M6.04492 6.86963L6.19097 7.19063C6.31217 7.46509 6.48444 7.72417 6.63798 7.98031C6.65613 8.0106 6.65296 8.01329 6.62844 7.98837C6.45686 7.81395 6.2863 7.5153 6.19574 7.35553C6.11449 7.21262 6.06421 7.05065 6.04492 6.86963Z" fill="#475E33"/>
<path d="M9.75917 6.92126C9.90624 6.95314 9.93688 7.07847 9.98897 7.19793L10.1834 7.98064C10.1879 7.987 10.1882 7.992 10.1844 7.99567C10.1814 8.01252 10.1766 8.02437 10.1697 8.03121C10.1584 8.04196 10.1506 8.03952 10.1463 8.02388C10.0788 7.76701 9.98965 7.36832 9.80206 7.1862C9.79468 7.17923 9.7855 7.17489 9.7758 7.17377C9.7661 7.17266 9.75636 7.17482 9.74793 7.17997C9.61266 7.26328 9.50281 7.37492 9.41838 7.5149C9.41631 7.51824 9.4133 7.52079 9.40978 7.52218C9.40627 7.52357 9.40244 7.52372 9.39888 7.52261C9.39532 7.5215 9.39221 7.51918 9.39002 7.51601C9.38783 7.51283 9.38667 7.50898 9.38672 7.505V7.47679C9.38672 7.46555 9.38933 7.45517 9.39455 7.44564C9.50213 7.24679 9.62367 7.07199 9.75917 6.92126Z" fill="#475E33"/>
<path d="M8.46975 7.22027C8.53557 7.32898 8.58879 7.4427 8.62942 7.56143C8.63049 7.56445 8.63047 7.56783 8.62935 7.57088C8.62823 7.57392 8.6261 7.57641 8.6234 7.57781C8.6207 7.57922 8.61764 7.57944 8.61483 7.57844C8.61202 7.57744 8.60969 7.57528 8.60831 7.57242C8.51753 7.40777 8.39576 7.27646 8.24301 7.1785C8.23251 7.17181 8.22022 7.16911 8.20812 7.17084C8.19602 7.17257 8.18481 7.17862 8.17629 7.18802C7.99721 7.387 7.89712 7.78092 7.84129 8.04659C7.83788 8.06272 7.83096 8.06467 7.82052 8.05246C7.78443 8.01105 7.95159 7.34816 7.96283 7.30455C8.00436 7.14881 8.04964 6.94874 8.23689 6.959C8.24846 6.95973 8.25811 6.96474 8.26582 6.97402L8.46975 7.22027Z" fill="#475E33"/>
<path d="M5.19406 7.01428C5.28666 7.27116 5.34998 7.57164 5.47561 7.80433C5.46948 7.81288 5.45858 7.81764 5.44292 7.81862L5.30334 7.56687C5.2037 7.40246 5.16728 7.21827 5.19406 7.01428Z" fill="#475E33"/>
<path d="M12.8212 7.06494C12.8643 7.26868 12.8258 7.44799 12.7058 7.60288C12.6393 7.73968 12.5613 7.86891 12.4719 7.99057C12.4496 7.9488 12.4687 7.90128 12.5291 7.84802C12.5379 7.83996 12.5447 7.83019 12.5495 7.81871L12.6115 7.66847L12.8212 7.06494Z" fill="#475E33"/>
<path d="M9.66656 9.17269L9.51642 9.67435C9.50507 9.7127 9.51438 9.71991 9.54434 9.69597C9.58429 9.66421 9.62173 9.62451 9.65669 9.57687C9.84348 9.41393 10.0224 9.2902 10.1936 9.20567C10.4977 9.05567 10.7002 8.9527 10.8009 8.89676C10.8947 8.833 10.9644 8.7591 11.0103 8.67506C11.1472 8.55878 11.262 8.42063 11.3548 8.26062C11.3598 8.25212 11.3671 8.24546 11.3756 8.24154C11.3842 8.23762 11.3937 8.23664 11.4028 8.23872C11.4119 8.24081 11.4202 8.24586 11.4264 8.25319C11.4327 8.26052 11.4367 8.26977 11.4379 8.27968C11.4679 8.5203 11.4641 8.76252 11.4267 9.00633C11.3334 9.28922 11.1666 9.50322 10.9994 9.70403L10.8026 9.866C10.794 9.87312 10.7835 9.87687 10.7727 9.87662C10.7478 9.87626 10.7304 9.87186 10.7073 9.88542C10.5516 9.97507 10.39 10.0507 10.2225 10.1122C10.2114 10.1164 10.2011 10.1148 10.1915 10.1075C10.1428 10.0701 10.1629 10.0162 10.2075 9.98692C10.3999 9.8605 10.5912 9.79124 10.7369 9.57651C11.0075 9.427 11.1828 9.18845 11.2629 8.86085C11.2677 8.84155 11.263 8.8385 11.2489 8.85169C11.0769 9.01243 10.8975 9.15681 10.7107 9.28482C10.4445 9.27823 10.2657 9.37277 10.0063 9.50835C9.9952 9.51397 9.98045 9.52912 9.96207 9.55379C9.95515 9.56314 9.94611 9.57035 9.93585 9.57468C9.80739 9.62818 9.69709 9.70281 9.60494 9.79857C9.51393 9.82056 9.44947 9.88749 9.41157 9.99938C9.40589 9.99914 9.40044 9.99877 9.39522 9.99828C9.3812 9.99689 9.36772 9.99178 9.35598 9.9834C9.34424 9.97502 9.33461 9.96363 9.32794 9.95025C9.32127 9.93687 9.31777 9.92191 9.31775 9.9067C9.31773 9.89149 9.32118 9.8765 9.32782 9.86306C9.49191 9.53156 9.56806 9.1882 9.55626 8.833C9.57192 8.37971 9.40306 8.03709 9.13887 7.69667C9.01597 7.53837 8.94073 7.65379 8.86039 7.76153C8.61935 8.08436 8.47126 8.43578 8.4716 8.86561C8.49202 9.20591 8.57362 9.54573 8.71638 9.88505C8.721 9.89596 8.72196 9.90814 8.7191 9.9195C8.70299 9.98423 8.67099 10.0129 8.6231 10.0056C8.59745 9.91913 8.54786 9.85488 8.47432 9.81286C8.47216 9.8116 8.46966 9.81114 8.46723 9.81155C8.4648 9.81196 8.46256 9.81322 8.46086 9.81514C8.45916 9.81706 8.45809 9.81952 8.45781 9.82215C8.45754 9.82479 8.45808 9.82745 8.45934 9.82972L8.56965 10.0397C8.57164 10.0438 8.57225 10.0486 8.57139 10.0532C8.57053 10.0578 8.56824 10.0619 8.56491 10.0649C8.56158 10.0679 8.55739 10.0695 8.55306 10.0696C8.54872 10.0697 8.54448 10.0682 8.54105 10.0653L8.26461 9.81616C8.26173 9.81379 8.25826 9.81251 8.25473 9.8125C8.25178 9.8125 8.24872 9.81262 8.24554 9.81286C8.23714 9.81335 8.22943 9.81091 8.22239 9.80553C7.93438 9.58237 7.55955 9.42407 7.32498 9.27493C7.13932 9.15669 6.97319 9.02428 6.82657 8.87771C6.7839 8.83495 6.77119 8.84351 6.78844 8.90336C6.87241 9.19553 7.03447 9.41417 7.27459 9.55929C7.33724 9.64796 7.37877 9.72125 7.4775 9.77255C7.5844 9.82789 7.74339 9.92169 7.72432 10.0104C7.72313 10.0161 7.72083 10.0215 7.71757 10.0263C7.71432 10.031 7.71017 10.0349 7.70541 10.0379C7.70064 10.0408 7.69535 10.0426 7.68987 10.0433C7.6844 10.0439 7.67885 10.0433 7.6736 10.0415C7.59143 10.0137 7.52062 9.97495 7.46116 9.92536C7.33417 9.81909 7.24191 9.78391 7.09382 9.7568C6.84325 9.45668 6.7132 9.29691 6.60085 8.95429C6.56272 8.74225 6.56409 8.544 6.60494 8.35956C6.62809 8.25427 6.69482 8.24047 6.80512 8.31815C6.87571 8.52849 6.9977 8.70096 7.1711 8.83557C7.46218 9.05396 7.80807 9.1606 8.10834 9.37423C8.19686 9.4375 8.29048 9.4998 8.38921 9.56112C8.42076 9.6156 8.46649 9.66848 8.52641 9.71979C8.5432 9.73396 8.54763 9.73041 8.53969 9.70916C8.45798 9.49003 8.39171 9.26894 8.34087 9.0459C8.29865 8.67482 8.34575 8.33305 8.48215 8.0206C8.58394 7.78718 8.78923 7.52554 8.94584 7.29652C8.95179 7.28782 8.95936 7.28055 8.96805 7.27515C8.97674 7.26975 8.98637 7.26634 8.99635 7.26514C9.00632 7.26393 9.01641 7.26496 9.026 7.26815C9.03559 7.27134 9.04446 7.27663 9.05206 7.28369C9.42995 7.63767 9.77959 8.31485 9.69924 8.86012C9.67632 9.01671 9.66542 9.1209 9.66656 9.17269Z" fill="#E6FF6B"/>
<path d="M5.47082 7.40271C5.65466 7.79443 5.97059 8.09675 6.29333 8.35435C6.30127 8.36071 6.30309 8.36877 6.29878 8.37854L6.29265 8.39246C6.28902 8.40101 6.28346 8.40285 6.27597 8.39796C6.10484 8.28681 5.94506 8.16002 5.79662 8.0176C5.61528 7.84244 5.49249 7.62856 5.42826 7.37596C5.42725 7.37159 5.42771 7.36697 5.42956 7.36293C5.4314 7.35889 5.43452 7.35568 5.43836 7.35388C5.4422 7.35208 5.4465 7.3518 5.45051 7.35309C5.45452 7.35438 5.45797 7.35716 5.46026 7.36093C5.46571 7.37022 5.46923 7.38414 5.47082 7.40271Z" fill="#475E33"/>
<path d="M12.491 7.67508C12.3299 7.98839 12.078 8.17417 11.8108 8.37169C11.7944 8.38366 11.7799 8.39025 11.7672 8.39147C11.7634 8.39181 11.7596 8.39081 11.7563 8.38863C11.7531 8.38644 11.7506 8.38319 11.7492 8.37936C11.7479 8.37553 11.7477 8.37132 11.7487 8.36736C11.7497 8.3634 11.7519 8.35991 11.7549 8.35739C12.0327 8.12251 12.3735 7.79931 12.538 7.45815C12.555 7.42004 12.5737 7.39805 12.5941 7.39219C12.6127 7.38682 12.6179 7.39341 12.6095 7.41198L12.491 7.67508Z" fill="#475E33"/>
<path d="M11.3015 7.45923C11.3089 7.87966 11.2119 8.28494 11.0104 8.67508C10.9645 8.75912 10.8947 8.83301 10.801 8.89677C10.7817 8.87723 10.7858 8.83668 10.8133 8.77512C11.0594 8.27749 11.2146 7.95466 11.3015 7.45923Z" fill="#475E33"/>
<path d="M6.7001 7.51306C6.7699 7.94803 6.98574 8.38556 7.19205 8.80476C7.18683 8.81698 7.17968 8.82724 7.1706 8.83555C6.9972 8.70094 6.87521 8.52847 6.80462 8.31813C6.74493 8.07237 6.70124 7.8348 6.67355 7.6054L6.66504 7.51673L6.7001 7.51306Z" fill="#475E33"/>
<path d="M5.30369 7.56688L5.44327 7.81862C5.65231 8.14793 5.92126 8.40419 6.25013 8.58741C6.27907 8.60354 6.34443 8.62259 6.3703 8.64641C6.37804 8.65389 6.38304 8.66409 6.3844 8.67518C6.38576 8.68628 6.38339 8.69753 6.37772 8.70691C6.37205 8.71629 6.36345 8.72318 6.35347 8.72633C6.3435 8.72948 6.33281 8.72869 6.32332 8.7241C6.00898 8.56384 5.728 8.35216 5.48038 8.08906C5.47838 8.08686 5.47569 8.08553 5.47284 8.08534C5.46999 8.08515 5.46717 8.0861 5.46493 8.08801C5.46269 8.08992 5.46118 8.09266 5.4607 8.09569C5.46022 8.09873 5.46081 8.10185 5.46234 8.10445C5.51885 8.209 5.57888 8.30953 5.64243 8.40603C5.68397 8.46942 5.74661 8.52255 5.79155 8.59438C5.83274 8.66034 6.0125 8.84905 6.01386 8.8879C6.01412 8.89306 6.01314 8.89821 6.01101 8.90284C6.00887 8.90748 6.00567 8.91145 6.0017 8.91436C5.99773 8.91727 5.99312 8.91903 5.98834 8.91946C5.98355 8.9199 5.97874 8.919 5.97437 8.91684C5.86985 8.86628 5.82015 8.76257 5.76227 8.69478C5.64675 8.55944 5.53372 8.4213 5.42319 8.28034C5.3324 8.11813 5.25762 7.94785 5.19883 7.76952C5.19781 7.68414 5.159 7.50715 5.30369 7.56688Z" fill="#E6FF6B"/>
<path d="M12.8073 7.87942L12.6497 8.23963C12.4495 8.48625 12.3426 8.71198 12.0668 8.91755C12.0379 8.93954 12.0134 8.93037 11.9929 8.90179C11.9854 8.89178 11.9839 8.88078 11.9882 8.86881L11.9912 8.86002C12.0586 8.80701 12.123 8.73665 12.1843 8.64895C12.2374 8.54781 12.3058 8.45498 12.3895 8.37045C12.4811 8.27811 12.5319 8.19896 12.5955 8.09452C12.5968 8.09256 12.5973 8.09021 12.5969 8.0879C12.5966 8.08559 12.5955 8.08349 12.5938 8.08199C12.5921 8.0805 12.5899 8.07972 12.5876 8.0798C12.5854 8.07988 12.5832 8.08082 12.5816 8.08243C12.4825 8.1854 12.3681 8.25649 12.2697 8.36166C12.1022 8.53975 11.8972 8.67387 11.6545 8.76401C11.6514 8.76518 11.648 8.76553 11.6447 8.76502C11.6415 8.7645 11.6383 8.76315 11.6356 8.76107C11.6329 8.75899 11.6307 8.75624 11.6292 8.75305C11.6277 8.74986 11.6269 8.74633 11.627 8.74276C11.6283 8.67704 11.655 8.63515 11.707 8.61707C12.0076 8.51227 12.2741 8.23817 12.4719 7.99045C12.5614 7.8688 12.6393 7.73956 12.7058 7.60276L12.7947 7.56245C12.7993 7.56031 12.8044 7.55952 12.8094 7.56014C12.8144 7.56077 12.8192 7.56279 12.8232 7.56601C12.8273 7.56924 12.8305 7.57354 12.8325 7.57851C12.8346 7.58348 12.8354 7.58893 12.8349 7.59433L12.8073 7.87942Z" fill="#E6FF6B"/>
<path d="M9.55536 8.83292C9.45391 8.50801 9.3099 8.21865 9.12334 7.96482L9.02835 7.87798C9.01814 7.86845 9.00747 7.86784 8.99635 7.87615C8.97524 7.89227 8.96151 7.91291 8.95516 7.93807C8.75566 8.09235 8.56365 8.60316 8.4707 8.86554C8.47036 8.4357 8.61846 8.08428 8.85949 7.76145C8.93984 7.65372 9.01508 7.53829 9.13798 7.69659C9.40216 8.03701 9.57102 8.37963 9.55536 8.83292Z" fill="#475E33"/>
<path d="M5.1985 7.76953C5.25729 7.94787 5.33207 8.11814 5.42286 8.28035C5.42967 8.71531 6.19601 9.37234 6.50819 9.59734C6.51018 9.59855 6.51164 9.60057 6.51224 9.60294C6.51285 9.60531 6.51256 9.60784 6.51143 9.60998C6.5103 9.61212 6.50843 9.61368 6.50623 9.61434C6.50402 9.61499 6.50167 9.61468 6.49968 9.61346C6.10511 9.42035 5.67751 9.00114 5.41639 8.59732C5.25933 8.35425 5.1867 8.07832 5.1985 7.76953Z" fill="#475E33"/>
<path d="M9.12423 7.96484L9.0844 8.08723C9.08077 8.09847 9.07896 8.10995 9.07896 8.12168C9.07918 8.46882 9.07453 8.8156 9.065 9.162C9.0625 9.25142 9.05274 9.33338 9.03572 9.40789C9.03465 9.41186 9.03232 9.4153 9.02914 9.4176C9.02595 9.41991 9.02211 9.42093 9.01829 9.42049C9.01447 9.42006 9.01092 9.41819 9.00825 9.41521C9.00559 9.41224 9.00398 9.40834 9.00372 9.40422C8.99248 9.03265 9.01019 8.66218 8.97989 8.2961C8.97035 8.17958 8.96241 8.06024 8.95605 7.93809C8.96241 7.91293 8.97614 7.89229 8.99725 7.87616C9.00837 7.86786 9.01904 7.86847 9.02925 7.878L9.12423 7.96484Z" fill="#E6FF6B"/>
<path d="M12.8066 7.87952C12.8211 8.01705 12.8225 8.1061 12.8107 8.14665C12.6279 8.76704 12.0913 9.25 11.5953 9.59666C11.5896 9.60057 11.5854 9.60081 11.5827 9.59739C11.582 9.59641 11.5813 9.59507 11.5806 9.59336C11.5795 9.59092 11.5801 9.58872 11.5823 9.58676C11.8515 9.36152 12.1043 9.11662 12.3405 8.85205C12.5008 8.67249 12.6036 8.46839 12.649 8.23973L12.8066 7.87952Z" fill="#475E33"/>
<path d="M12.1843 8.64893C12.123 8.73663 12.0587 8.80698 11.9913 8.86C11.8962 8.93793 11.7882 9.00364 11.6675 9.05714C11.664 9.05865 11.6601 9.05871 11.6565 9.05731C11.653 9.05591 11.65 9.05316 11.6483 9.04957C11.6465 9.04598 11.646 9.04181 11.6469 9.03787C11.6478 9.03392 11.6501 9.03048 11.6532 9.02819L12.1843 8.64893Z" fill="#475E33"/>
<path d="M8.62238 10.0056L8.69864 10.1756C8.70431 10.1886 8.70159 10.1991 8.69047 10.2071C8.66369 10.2267 8.63271 10.2344 8.59753 10.2302C8.59252 10.2296 8.58769 10.2279 8.58339 10.225C8.57909 10.2222 8.57543 10.2183 8.57267 10.2137C8.48961 10.0741 8.41437 10.0972 8.30917 10.0206C7.99505 9.79243 7.64996 9.63865 7.27388 9.55925C7.03375 9.41414 6.8717 9.1955 6.78772 8.90332C6.77047 8.84347 6.78318 8.83492 6.82585 8.87767C6.97247 9.02425 7.13861 9.15666 7.32426 9.27489C7.55883 9.42403 7.93366 9.58234 8.22168 9.8055C8.22871 9.81087 8.23643 9.81332 8.24483 9.81283C8.248 9.81258 8.25107 9.81246 8.25402 9.81246C8.25755 9.81247 8.26102 9.81376 8.26389 9.81613L8.54033 10.0653C8.54377 10.0682 8.548 10.0697 8.55234 10.0696C8.55668 10.0695 8.56086 10.0678 8.56419 10.0648C8.56753 10.0618 8.56981 10.0577 8.57067 10.0531C8.57154 10.0486 8.57092 10.0438 8.56893 10.0397L8.45863 9.82968C8.45736 9.82741 8.45682 9.82475 8.45709 9.82212C8.45737 9.81948 8.45844 9.81702 8.46014 9.81511C8.46184 9.81319 8.46408 9.81193 8.46652 9.81152C8.46895 9.81111 8.47144 9.81157 8.4736 9.81283C8.54714 9.85485 8.59673 9.9191 8.62238 10.0056Z" fill="#475E33"/>
<path d="M10.7361 9.57648C10.2152 9.69924 9.78524 9.92277 9.37194 10.2837C9.36857 10.2866 9.36464 10.2887 9.36044 10.2898C9.35624 10.2909 9.35186 10.291 9.34765 10.2901C9.34343 10.2891 9.33948 10.2872 9.33609 10.2844C9.33269 10.2815 9.32993 10.2779 9.32802 10.2738C9.31781 10.2529 9.40053 10.0364 9.41075 9.99935C9.44865 9.88747 9.51311 9.82053 9.60412 9.79854L9.50403 10.0521C9.49563 10.0736 9.49983 10.077 9.51663 10.0624C9.58233 10.0056 9.64157 9.93486 9.70081 9.88869C9.96318 9.68299 10.2445 9.51455 10.5448 9.38337C10.6013 9.35869 10.6563 9.32584 10.7099 9.2848C10.8967 9.15679 11.0761 9.01241 11.2481 8.85166C11.2622 8.83847 11.2669 8.84152 11.2621 8.86082C11.182 9.18842 11.0066 9.42697 10.7361 9.57648Z" fill="#475E33"/>
<path d="M6.60071 8.95422C6.71305 9.29685 6.8431 9.45661 7.09367 9.75673C7.42526 10.1507 7.84401 10.3903 8.33187 10.579C8.34639 10.5846 8.34594 10.5884 8.33051 10.5904C8.30418 10.594 8.27887 10.5911 8.25459 10.5816C8.07347 10.5112 7.86954 10.4522 7.7109 10.3815C7.38135 10.2349 7.10933 10.0538 6.89485 9.83808C6.66653 9.60844 6.56848 9.31382 6.60071 8.95422Z" fill="#475E33"/>
<path d="M11.4264 9.00623C11.4713 9.28545 11.3963 9.53671 11.2014 9.75999C10.8262 10.1902 10.305 10.4346 9.75244 10.5783C9.74752 10.5796 9.7423 10.5788 9.73792 10.576C9.73355 10.5733 9.73038 10.5687 9.72912 10.5634C9.72785 10.5581 9.7286 10.5525 9.73118 10.5478C9.73377 10.5431 9.73799 10.5397 9.74291 10.5383C9.77967 10.5277 9.82938 10.5306 9.86649 10.5141C10.1756 10.3803 10.4213 10.2441 10.6036 10.1055C10.6955 10.0357 10.8273 9.90181 10.9991 9.70393C11.1663 9.50312 11.3331 9.28912 11.4264 9.00623Z" fill="#475E33"/>
<path d="M8.34037 9.0459C8.39121 9.26894 8.45749 9.49002 8.53919 9.70916C8.54714 9.73041 8.54271 9.73395 8.52592 9.71978C8.466 9.66848 8.42026 9.61559 8.38872 9.56111C8.33016 9.36348 8.31405 9.19174 8.34037 9.0459Z" fill="#475E33"/>
<path d="M9.66653 9.17261C9.70148 9.2928 9.69819 9.42753 9.65666 9.57679C9.62171 9.62443 9.58426 9.66413 9.54431 9.69588C9.51435 9.71983 9.50505 9.71262 9.5164 9.67426L9.66653 9.17261Z" fill="#475E33"/>
<path d="M10.7101 9.28475C10.6565 9.32579 10.6015 9.35865 10.5449 9.38332C10.2447 9.51451 9.96335 9.68295 9.70098 9.88864C9.64174 9.93481 9.5825 10.0055 9.5168 10.0623C9.5 10.077 9.4958 10.0736 9.5042 10.0521L9.60429 9.7985C9.69644 9.70273 9.80674 9.6281 9.9352 9.5746C9.94546 9.57028 9.9545 9.56307 9.96142 9.55372C9.9798 9.52904 9.99455 9.5139 10.0057 9.50828C10.2651 9.37269 10.4438 9.27815 10.7101 9.28475Z" fill="#B2F05B"/>
<path d="M5.56377 10.2694C5.06366 10.2779 4.56865 10.2038 4.06582 10.1595C3.9756 10.1075 3.77984 10.0221 3.78835 9.89163C3.78904 9.87843 3.7955 9.87086 3.80776 9.86891C4.07875 9.82933 4.33477 9.84509 4.6027 9.84765C5.31763 9.85352 6.03189 9.85755 6.74648 9.86891C6.75274 9.8691 6.75868 9.87194 6.76301 9.8768C6.76735 9.88167 6.76972 9.88818 6.76963 9.89492L6.76929 9.92424C6.76884 9.94403 6.75942 9.95355 6.74103 9.95282C5.90558 9.9218 5.07047 9.93084 4.2357 9.97994C4.23051 9.98055 4.2257 9.98318 4.22218 9.98734C4.21866 9.9915 4.21667 9.99689 4.21659 10.0025C4.2165 10.0081 4.21833 10.0136 4.22172 10.0179C4.22512 10.0222 4.22985 10.025 4.23502 10.0257C4.29221 10.0311 4.35088 10.0351 4.41103 10.0378C4.56389 10.0441 4.70551 10.0884 4.85293 10.1174C5.08919 10.1639 5.38436 10.1346 5.57501 10.1467C5.62562 10.1501 5.65138 10.1793 5.65229 10.2342C5.65252 10.2448 5.64786 10.2511 5.63833 10.2533L5.56377 10.2694Z" fill="#E6FF6B"/>
<path d="M13.9667 10.1591C13.4662 10.2075 12.9688 10.2672 12.4681 10.2698C12.4106 10.2681 12.3817 10.2422 12.3812 10.1921C12.381 10.1784 12.3874 10.1708 12.4003 10.1694C12.5757 10.1513 12.7512 10.1457 12.9266 10.1525C13.0151 10.1559 13.2122 10.1203 13.5176 10.0455C13.5983 10.0257 13.693 10.0455 13.7774 10.0158C13.7814 10.0146 13.7848 10.0119 13.7871 10.0081C13.7894 10.0044 13.7904 9.99989 13.7898 9.99546C13.7893 9.99103 13.7873 9.98695 13.7842 9.98396C13.7811 9.98098 13.7771 9.97928 13.773 9.97919C13.1323 9.93643 12.49 9.92141 11.8461 9.93411C11.828 9.93411 11.7855 9.91872 11.7861 9.90516C11.7867 9.89101 11.7924 9.87764 11.802 9.86797C11.8116 9.8583 11.8244 9.8531 11.8375 9.8535C12.4692 9.86986 13.0906 9.86596 13.7018 9.84177C13.7815 9.83847 14.0971 9.83078 14.1601 9.88318C14.1691 9.89051 14.1741 9.90028 14.175 9.91249C14.188 10.0591 14.0552 10.0877 13.9667 10.1591Z" fill="#E6FF6B"/>
<path d="M4.06628 10.1595C4.56912 10.2039 5.06412 10.2779 5.56424 10.2695C5.77395 10.2709 5.97447 10.275 6.18895 10.2567C6.49501 10.231 6.80209 10.19 7.08398 10.2794C7.11213 10.2884 7.11156 10.2934 7.08228 10.2944C6.67681 10.3087 6.28292 10.3087 5.86587 10.32C5.31367 10.3351 4.76623 10.2845 4.21539 10.3094C4.21033 10.3096 4.20551 10.3118 4.2018 10.3155C4.1981 10.3193 4.19577 10.3243 4.19523 10.3297C4.1947 10.3351 4.19599 10.3406 4.19888 10.3451C4.20177 10.3496 4.20606 10.3528 4.21097 10.3541C4.59873 10.4608 4.87892 10.482 5.3998 10.5088C5.40517 10.5091 5.41027 10.5114 5.41419 10.5154C5.41811 10.5193 5.42061 10.5246 5.42125 10.5304C5.4242 10.559 5.41104 10.58 5.38176 10.5934C5.37187 10.5978 5.36134 10.6 5.35078 10.6C4.93112 10.599 4.51589 10.5536 4.10509 10.4637C3.99989 10.4406 3.9141 10.401 3.83205 10.3376C3.82452 10.3319 3.81858 10.324 3.81487 10.3149C3.81115 10.3058 3.80979 10.2958 3.81094 10.286C3.82252 10.1834 3.99002 10.1779 4.06628 10.1595Z" fill="#475E33"/>
<path d="M13.9669 10.1592L14.1923 10.238C14.1995 10.2405 14.2059 10.2451 14.2109 10.2513C14.2158 10.2575 14.2192 10.265 14.2204 10.2731C14.2217 10.2812 14.221 10.2894 14.2182 10.2971C14.2155 10.3047 14.2109 10.3114 14.2049 10.3164C14.1337 10.3754 14.0418 10.4234 13.9475 10.4483C13.509 10.563 13.0991 10.5864 12.6286 10.6066C12.6163 10.6073 12.6108 10.6012 12.6119 10.5883C12.6151 10.547 12.6086 10.5075 12.5925 10.4699C12.5914 10.4671 12.5911 10.4639 12.5919 10.4609C12.5926 10.4579 12.5942 10.4552 12.5965 10.4534C12.5988 10.4516 12.6015 10.4506 12.6044 10.4508C12.6072 10.4509 12.6098 10.4521 12.6119 10.4542L12.6592 10.4992C12.6697 10.5093 12.6819 10.514 12.696 10.5135C12.9382 10.5047 13.2193 10.4729 13.5393 10.4179C13.6437 10.3998 13.7307 10.3712 13.8004 10.3321C13.8202 10.3209 13.8189 10.3147 13.7967 10.3135C13.5863 10.3005 13.3766 10.3009 13.1675 10.3146C12.9966 10.3255 12.8186 10.3102 12.6715 10.3171C12.2558 10.3376 11.8507 10.3175 11.4268 10.3083C11.2775 10.3051 11.1287 10.2966 10.9805 10.2827C10.9764 10.2828 10.9725 10.2811 10.9696 10.2781C10.9666 10.2751 10.9649 10.2709 10.9648 10.2665C10.9648 10.2622 10.9663 10.2579 10.9691 10.2548C10.9719 10.2516 10.9758 10.2498 10.9798 10.2497C11.4459 10.1852 11.9654 10.283 12.4683 10.2698C12.969 10.2673 13.4664 10.2075 13.9669 10.1592Z" fill="#475E33"/>
<path d="M9.54219 11.1032C9.52222 11.1247 9.50554 11.1338 9.49215 11.1306C9.43938 11.1442 9.4118 11.1988 9.36993 11.2259C9.06251 11.4242 8.77551 11.33 8.47422 11.1523L8.43268 11.1072C8.42111 11.0979 8.40715 11.0792 8.39081 11.0511C8.32136 10.9309 8.4286 10.5861 8.48545 10.4689C8.48803 10.4635 8.49184 10.4589 8.49653 10.4556C8.50122 10.4523 8.50663 10.4503 8.51225 10.4499C8.51786 10.4495 8.52351 10.4506 8.52865 10.4531C8.53379 10.4557 8.53825 10.4596 8.54162 10.4645L8.55048 10.4773C8.55476 10.4834 8.55736 10.4907 8.55796 10.4985C8.55856 10.5062 8.55715 10.5139 8.55388 10.5209C8.53731 10.5563 8.5397 10.5883 8.56103 10.6169C8.56943 10.6279 8.57079 10.6399 8.56512 10.6528C8.53754 10.7169 8.5103 10.7811 8.52801 10.8525C8.65363 11.3608 9.66952 11.1431 9.36686 10.6294C9.36142 10.6201 9.36017 10.6102 9.36312 10.5997L9.4084 10.4454C9.41039 10.4387 9.4142 10.4327 9.41933 10.4283C9.42445 10.4239 9.43068 10.4212 9.43723 10.4206C9.44377 10.4199 9.45034 10.4214 9.45612 10.4248C9.46189 10.4281 9.46661 10.4333 9.46968 10.4395C9.47285 10.4464 9.47615 10.4547 9.47955 10.4645C9.56398 10.7162 9.61709 10.8796 9.54219 11.1032Z" fill="#E6FF6B"/>
<path d="M11.8168 10.8437C11.6254 10.8195 11.4267 10.8164 11.2206 10.8345C11.1632 10.8277 11.1015 10.8173 11.0354 10.8034C10.7508 10.744 10.489 10.7323 10.2122 10.6344C10.2059 10.632 10.2006 10.6272 10.1972 10.621C10.1939 10.6147 10.1926 10.6074 10.1938 10.6003C10.1949 10.5932 10.1983 10.5867 10.2035 10.582C10.2086 10.5773 10.2151 10.5748 10.2218 10.5747C10.3141 10.5767 10.4079 10.5882 10.503 10.6092C10.7619 10.6668 11.0233 10.6915 11.287 10.6832C11.2996 10.6828 11.5944 10.655 11.5968 10.6517C11.598 10.6502 11.5989 10.6485 11.5993 10.6467C11.5998 10.6449 11.5999 10.6429 11.5996 10.6411C11.5992 10.6392 11.5985 10.6374 11.5975 10.6359C11.5964 10.6344 11.595 10.6331 11.5934 10.6322L11.4324 10.5432C11.4251 10.539 11.4192 10.5323 11.4159 10.5241C11.4126 10.5159 11.4119 10.5067 11.4141 10.4981C11.4162 10.4895 11.421 10.482 11.4277 10.4768C11.4344 10.4716 11.4425 10.469 11.4508 10.4695C11.7556 10.4891 12.0604 10.5014 12.3652 10.5066C12.4047 10.5073 12.436 10.5099 12.4592 10.5143C12.4708 10.5165 12.4815 10.5228 12.4897 10.532C12.4979 10.5412 12.5031 10.553 12.5047 10.5656C12.5062 10.5782 12.504 10.591 12.4984 10.6022C12.4927 10.6133 12.4838 10.6221 12.4731 10.6275C12.2597 10.7352 12.0432 10.7715 11.8168 10.8437Z" fill="#E6FF6B"/>
<path d="M6.77896 10.8318C6.58241 10.812 6.39267 10.8167 6.20973 10.8458C6.14233 10.7918 6.0613 10.7584 5.96666 10.7457C5.79677 10.7234 5.65617 10.6647 5.49003 10.6471C5.48516 10.6467 5.48064 10.6442 5.4774 10.6403C5.47417 10.6363 5.47248 10.6312 5.47267 10.6259C5.47449 10.5739 5.49355 10.5326 5.52987 10.502C5.5394 10.494 5.55007 10.4914 5.56187 10.4943C5.83559 10.5585 6.20293 10.5006 6.48447 10.4797C6.52669 10.4767 6.5638 10.4788 6.5958 10.4859C6.60119 10.4871 6.60609 10.4901 6.60982 10.4945C6.61356 10.4988 6.61595 10.5043 6.61666 10.5102C6.61737 10.5161 6.61637 10.522 6.61379 10.5273C6.61121 10.5325 6.60718 10.5367 6.60227 10.5394L6.45281 10.6186C6.44938 10.6205 6.44663 10.6236 6.44499 10.6273C6.44334 10.6311 6.44289 10.6354 6.4437 10.6394C6.44451 10.6435 6.44654 10.6472 6.44948 10.6499C6.45241 10.6526 6.4561 10.6542 6.45996 10.6545C6.60635 10.6596 6.75581 10.6658 6.9056 10.6816C7.06187 10.6977 7.19124 10.6347 7.33048 10.6211C7.42626 10.6116 7.52135 10.5969 7.61577 10.5772C7.64845 10.5703 7.6716 10.5883 7.68522 10.631C7.68684 10.636 7.68748 10.6413 7.68711 10.6466C7.68674 10.6519 7.68536 10.657 7.68306 10.6617C7.68076 10.6664 7.67759 10.6705 7.67374 10.6738C7.6699 10.6771 7.66546 10.6795 7.66071 10.6809C7.36589 10.7654 7.07197 10.8157 6.77896 10.8318Z" fill="#E6FF6B"/>
<path d="M6.77824 10.8318C6.50112 10.9191 6.22128 10.9674 5.93871 10.977C5.93762 10.9769 5.93657 10.9773 5.93577 10.9781C5.93497 10.9789 5.9345 10.98 5.93445 10.9812C5.93441 10.9823 5.93479 10.9835 5.93553 10.9843C5.93626 10.9852 5.93728 10.9857 5.93837 10.9858C6.63741 11.0808 7.32852 11.0394 8.01167 10.8615C8.01474 10.8608 8.02359 10.8491 8.03074 10.8615C8.03129 10.8625 8.03162 10.8635 8.0317 10.8647C8.03179 10.8658 8.03163 10.8669 8.03124 10.868C8.03084 10.869 8.03023 10.87 8.02943 10.8708C8.02864 10.8716 8.02769 10.8722 8.02665 10.8725C7.19733 11.1785 6.26553 11.2514 5.43485 10.9194C5.42958 10.9174 5.42513 10.9135 5.42228 10.9083C5.41943 10.9032 5.41836 10.8971 5.41925 10.8911C5.42014 10.8852 5.42294 10.8798 5.42716 10.8759C5.43138 10.8719 5.43675 10.8697 5.44234 10.8696L6.20902 10.8458C6.39195 10.8167 6.58169 10.8121 6.77824 10.8318Z" fill="#475E33"/>
<path d="M11.8171 10.8436L12.5875 10.8741C12.5911 10.8743 12.5946 10.8758 12.5973 10.8784C12.6 10.8809 12.6019 10.8844 12.6025 10.8882C12.6032 10.8919 12.6027 10.8958 12.601 10.8992C12.5993 10.9026 12.5966 10.9052 12.5933 10.9067C11.7953 11.2691 10.758 11.1632 9.93037 10.8741C9.92763 10.8729 9.92539 10.8707 9.92408 10.8678C9.92278 10.865 9.9225 10.8617 9.9233 10.8586C9.92411 10.8556 9.92594 10.8529 9.92844 10.8513C9.93094 10.8496 9.93394 10.8489 9.93684 10.8495C10.6296 11.0166 11.3133 11.0903 12.0224 10.9983C12.0338 10.9968 12.0377 10.9901 12.0343 10.9781C12.0332 10.974 12.0319 10.9703 12.0306 10.9671C12.0297 10.9642 12.0277 10.9627 12.0248 10.9627C11.759 10.9586 11.4911 10.9158 11.221 10.8345C11.4271 10.8164 11.6258 10.8195 11.8171 10.8436Z" fill="#475E33"/>
<path d="M9.54193 11.103C9.69377 11.4522 9.31553 11.608 9.08267 11.6772C8.89985 11.7318 8.62409 11.6021 8.48996 11.4918C8.33381 11.3636 8.31463 11.2353 8.43242 11.1071L8.47396 11.1521L8.59277 11.3614C8.59867 11.3716 8.60673 11.3791 8.61694 11.3837C8.97066 11.5402 9.30566 11.5475 9.49189 11.1305C9.50528 11.1337 9.52196 11.1245 9.54193 11.103Z" fill="#475E33"/>
<path d="M9.49254 11.1305C9.30632 11.5475 8.97132 11.5402 8.6176 11.3837C8.60738 11.3791 8.59933 11.3716 8.59342 11.3614L8.47461 11.1521C8.7759 11.3298 9.0629 11.424 9.37032 11.2258C9.41219 11.1987 9.43977 11.1441 9.49254 11.1305Z" fill="#B2F05B"/>
</svg>
