<!-- by TradingView --><svg width="18" height="18" viewBox="0 0 18 18" fill="none" xmlns="http://www.w3.org/2000/svg">
<rect width="18" height="18" fill="#F0F3FA"/>
<path fill-rule="evenodd" clip-rule="evenodd" d="M11.8496 8.80333C11.2183 8.18644 9.88609 6.16213 9.60746 3C10.3548 3.87583 11.8496 6.26266 11.8496 8.80333ZM11.9802 8.94042C12.4011 8.3083 13.1862 6.5414 12.9598 4.5308C12.5825 5.04868 11.8583 6.65564 11.9802 8.94042ZM11.8496 8.94042C10.659 8.6834 7.6839 7.3945 5.30791 4.29508C6.57178 4.60872 9.64953 5.97689 11.8496 8.94042ZM11.8496 9.05958C10.659 9.3166 7.68384 10.6055 5.30786 13.7049C6.57173 13.3913 9.64948 12.0231 11.8496 9.05958ZM11.9802 9.05958C12.401 9.6917 13.1861 11.4586 12.9597 13.4692C12.5824 12.9513 11.8583 11.3444 11.9802 9.05958ZM11.8496 9.19667C11.2183 9.81356 9.88604 11.8379 9.60741 15C10.3548 14.1242 11.8496 11.7373 11.8496 9.19667ZM3 8.99613C4.53521 8.45666 8.45776 7.70139 11.8663 8.99613C10.6084 9.5285 7.07403 10.2738 3 8.99613Z" fill="url(#paint0_linear_229_20054)"/>
<defs>
<linearGradient id="paint0_linear_229_20054" x1="3" y1="9" x2="13" y2="9" gradientUnits="userSpaceOnUse">
<stop stop-color="#066E3D"/>
<stop offset="1" stop-color="#87C241"/>
</linearGradient>
</defs>
</svg>
