<!-- by TradingView --><svg width="18" height="18" viewBox="0 0 18 18" xmlns="http://www.w3.org/2000/svg"><path fill="#535353" d="M0 0h18v18H0z"/><path fill-rule="evenodd" d="M9 12.43A3.38 3.38 0 0 0 12.33 9c0-1.9-1.49-3.43-3.33-3.43A3.38 3.38 0 0 0 5.67 9c0 1.9 1.49 3.43 3.33 3.43ZM9 13c2.15 0 3.89-1.8 3.89-4S11.15 5 9 5a3.95 3.95 0 0 0-3.89 4c0 2.2 1.74 4 3.89 4Z" fill="#fff"/><path d="M7.58 9.18c-.56-.57 0-1.72 0-2.86 0-.91.56-1.14.56-1.14.37 0 1.1.11 1.1.57 0 .57.56 1.14.56 1.71 0 .58-.55.58-1.1 1.15-.56.57-.56 1.14-1.12.57ZM8.7 10.71c-.45-.45.18-.95.55-1.14.55 0 1.66.23 1.66 1.14 0 1.15-1.1 1.72-1.66 1.72-.56 0 0 0 0-.57s0-.57-.56-1.15Z" fill="#fff"/><path d="M13.54 7.22c.06.16.06.37-.06.65-.1.26-.3.54-.6.84v.59c.88-.8 1.3-1.6 1.05-2.24-.46-1.16-3.04-1.23-5.76-.16-2.72 1.08-4.56 2.89-4.1 4.05.23.59 1.09.89 2.15.9l-.3-.4c-.4-.04-.73-.1-.97-.22-.28-.12-.43-.27-.49-.43-.06-.16-.06-.37.06-.66.12-.28.35-.6.7-.95a9.43 9.43 0 0 1 3.1-1.9 9.44 9.44 0 0 1 3.57-.73c.48.02.88.1 1.16.22.28.12.43.28.49.44Z" fill="#FBFBFB"/><path d="M13.54 8.36c.2.53-.65 1.21-1.2 1.21v.59c1.2-.23 1.84-1.33 1.59-1.95-.46-1.17-3.04-1.24-5.76-.16-2.72 1.07-4.56 2.88-4.1 4.04.23.6 2.15.91 3.37.42l-.31-.42c-.9.34-2.46.37-2.67-.15-.62-1.57 3.06-3.19 3.86-3.5.84-.33 4.6-1.66 5.22-.08Z" fill="#FBFBFB"/></svg>