<!-- by TradingView --><svg width="18" height="18" viewBox="0 0 18 18" xmlns="http://www.w3.org/2000/svg"><path fill="url(#ao5dtf1ub)" d="M0 0h18v18H0z"/><path d="M9.26 12h2.67v-.22h-.7c-.17 0-.23-.13-.23-.3V8.95h.63c.42 0 .77.31.77.7v.45h.27V7.64h-.27V8c0 .4-.35.7-.77.7H11V6.57c0-.17.06-.3.24-.3h1.41c.55 0 1 .4 1 .88v.67H14V6H9.17v.27h.45c.18 0 .38.13.38.3v4.92c0 .16-.2.29-.38.29h-.45v.02a.55.55 0 0 1-.49-.31L6.28 6h-.3l-2.31 5.4c-.1.24-.37.4-.67.4v.2h1.97v-.2H4.6c-.39 0-.66-.34-.52-.66l.52-1.2V10h2.43l.55 1.27c.1.26-.1.53-.42.53h-.22v.2h2.31ZM5.82 7.15 6.95 9.8H4.67l1.15-2.65Z" fill="#fff"/><defs><linearGradient id="ao5dtf1ub" x1="3.35" y1="3.12" x2="21.9" y2="24.43" gradientUnits="userSpaceOnUse"><stop stop-color="#1A1E21"/><stop offset="1" stop-color="#06060A"/></linearGradient></defs></svg>