<!-- by TradingView --><svg width="18" height="18" viewBox="0 0 18 18" xmlns="http://www.w3.org/2000/svg"><path fill="#F0F3FA" d="M0 0h18v18H0z"/><path d="M15.12 8.26a.92.92 0 0 0-.39-.47c-.09-.06-.2-.1-.3-.13a1.54 1.54 0 0 0-1.04.1c-.2.11-.35.26-.46.46-.1.2-.16.44-.16.72 0 .28.05.53.16.72.11.2.26.35.46.46.19.1.41.15.67.15.23 0 .43-.04.6-.11.18-.07.3-.18.4-.31.1-.14.14-.34.14-.52h.19-1.25v-.48H16v.46c0 .32-.08.6-.25.84-.17.23-.4.42-.69.54-.29.13-.63.2-1 .2-.42 0-.8-.08-1.11-.24a1.79 1.79 0 0 1-1.01-1.7c0-.3.05-.58.15-.82a1.93 1.93 0 0 1 1.1-1c.27-.09.54-.13.84-.13.26 0 .5.03.71.1.22.05.41.14.58.25.17.11.31.25.42.4.11.15.19.32.22.5h-.84ZM7 7h.85l1.13 2.9h.04L10.15 7H11v4h-.8V8.25h.1L9.25 11h-.5L7.7 8.25h.1V11H7V7ZM2.83 11H2l1.52-4h.96L6 11h-.83L4.02 7.82h-.04L2.83 11Zm.03-1.6h2.27v.61H2.86V9.4Z"/></svg>