<!-- by TradingView --><svg xmlns="http://www.w3.org/2000/svg" width="18" height="18"><path fill="#F0F3FA" d="M0 0h18v18H0z"/><path d="M14 4H4v10h10V4z" fill="#DFC42B"/><path d="M4 14v-3.56c1.1-.2 4.6-1.03 10 .29V14H4z" fill="#005A50"/><path d="M7.92 7.82l-.01.06v-.03c0-.06-.02-.11-.03-.17-.03-.11-.06-.23 0-.3.06-.09.23-.24.39-.24l-.03.05a.88.88 0 00-.06.24c-.01.07-.02.13-.05.19-.01.02-.04.03-.07.04-.03.02-.08.03-.1.08l-.04.08zm4.39 3.48a12.27 12.27 0 00-4.2-2.46c.38-.46 1.08-1.08 2.03-.88.54.1 1.14.43 1.8.8.62.34 1.3.72 2.04.96V9.6H14v-.2c-.6-.25-1.41-.68-2.44-1.36 0 0-2.32-1.57-3.62.44l-.14.23h-.02C6.9 6.52 9.83 5.3 9.83 5.3c1.22-.48 2-.91 2.52-1.3h-.79c-.5.28-1.2.6-2.13.94 0 0-2.97 1.01-2.07 3.65-1.86-.5-3.01-.18-3.01-.18s1.51 0 3.13.51l.16.34.07-.11.07.14.15-.22a20.07 20.07 0 015.04 2.81c-.22-.2-.44-.4-.66-.58zM6 12h6v1H6z" fill="#E6E9F1"/></svg>