<!-- by TradingView --><svg width="18" height="18" viewBox="0 0 18 18" xmlns="http://www.w3.org/2000/svg"><path fill="#F0F3FA" d="M0 0h18v18H0z"/><path d="m4 13 4.6-9h3.24c.64 0 1.16.52 1.16 1.17v4.96C13 8.91 11.96 8 10.63 8A2.57 2.57 0 0 0 8 10.61C8 12.01 9.17 13 10.6 13H4Zm6.6 0c.67 0 1.58-.34 2.08-.74l-.26-.34c-.41.22-1.15.53-1.79.53-1.02 0-1.8-.68-1.8-1.87 0-1.54 1.02-2.08 1.8-2.08 1.14 0 1.85.85 1.85 1.64 0 .8-.41 1.37-.69 1.37-.14 0-.16-.17-.16-.32 0-.12.03-.29.09-.54L12 9.3h-.55l-.06.23-.03-.05c-.08-.15-.16-.3-.53-.3-.85 0-1.4.86-1.4 1.79 0 .52.27.9.74.9.43 0 .67-.22.81-.37H11l.02.02c.07.12.2.35.65.35.86 0 1.34-1 1.34-1.74V13h-2.4Zm.35-3.36c.2 0 .26.16.26.43 0 .82-.43 1.37-.76 1.37-.25 0-.31-.2-.31-.62 0-.7.49-1.18.8-1.18Z" fill="#163293"/></svg>