<!-- by TradingView --><svg width="18" height="18" viewBox="0 0 18 18" xmlns="http://www.w3.org/2000/svg"><path fill="#F0F3FA" d="M0 0h18v18H0z"/><path d="M13.95 7.4a3.75 3.75 0 0 0-3.1-3.3 5.71 5.71 0 0 0-6.14 2.93 5.86 5.86 0 0 0-.66 3.57 3.75 3.75 0 0 0 3.1 3.3 5.71 5.71 0 0 0 6.14-2.93c.6-1.1.82-2.3.66-3.57ZM8.8 10.42c-.35-.09-.54-.3-.6-.64 0-.03-.01-.03-.03 0a2.7 2.7 0 0 1-.64.47c-.25.14-.5.22-.73.25a.93.93 0 0 1-.6-.08c-.2-.12-.3-.33-.26-.64.01-.15.08-.35.22-.59.21-.4.53-.77.94-1.11.52-.44 1.15-.8 1.87-1.09.04-.02.07-.02.08 0a.4.4 0 0 1 .05.09.05.05 0 0 0 .04.02.05.05 0 0 0 .04-.01c.29-.32.73-.48 1.14-.38.26.07.5.3.48.58 0 .08-.04.21-.12.4-.09.2-.15.34-.17.42-.02.08 0 .17.08.28v.06c-.16.2-.38.53-.41.8 0 .02 0 .04.02.06.2.25.55.06.78-.07.19-.1.46-.3.81-.6.04-.04.07-.03.07.02v.31c0 .05-.02.1-.06.14a5.1 5.1 0 0 1-2.03 1.28c-.33.1-.65.11-.97.03Zm1.28-2.5c.35-.3.48-.72.29-.94-.19-.22-.61-.16-.96.13-.34.3-.47.71-.28.93.18.22.61.17.95-.13Zm-1.44-.58c-.47.43-.85.87-1.15 1.32a.78.78 0 0 0-.09.25c-.06.33.13.57.46.58.07 0 .08.03.03.07-.29.34-.62.57-1 .7-.17.06-.42.08-.59-.03-.44-.3-.04-1 .23-1.3a5.86 5.86 0 0 1 2.1-1.6h.01Zm-.07 1.52.05-.06.01-.02c.1-.13.23-.29.21-.48l-.03-.44c0-.03-.02-.04-.04-.02-.27.25-.49.48-.66.7-.13.17-.35.6-.07.74h.06c.2-.06.35-.26.47-.42Zm1.58.83c-.27.31-.7.42-1.08.42-.38 0-.67-.21-.6-.63.06-.28.22-.57.47-.86a.06.06 0 0 1 .07-.02c.25.07.53.07.82 0 .03 0 .04 0 .03.03l-.07.25c-.04.11-.05.2-.05.26 0 .24.13.42.4.52a.02.02 0 0 1 .01.01v.02Z" fill="#3853A4"/></svg>