<!-- by TradingView --><svg width="18" height="18" viewBox="0 0 18 18" xmlns="http://www.w3.org/2000/svg"><path fill="#F0F3FA" d="M0 0h18v18H0z"/><path d="M10 9c0-1.74 1.07-3 2.5-3 1.47-.02 2.56 1.22 2.5 3 .03 1.67-.98 3.02-2.5 3-1.5.05-2.52-1.26-2.5-3Zm2.5 1.75c.71 0 1.29-.63 1.29-1.75 0-1.13-.58-1.72-1.29-1.72-.71 0-1.28.6-1.28 1.72 0 1.13.57 1.75 1.28 1.75Z" fill="#FD5000"/><path d="M7.68 6H9v6H7.68v-1c-.35.68-1.11 1-1.88 1C4.02 12 3 10.59 3 9c0-1.78 1.24-3 2.8-3 .99 0 1.64.55 1.88 1V6Zm-1.7 4.88c.94 0 1.7-.84 1.7-1.88s-.76-1.88-1.7-1.88c-.95 0-1.71.84-1.71 1.88s.76 1.88 1.7 1.88Z" fill="#46555F"/></svg>