<!-- by TradingView --><svg width="18" height="18" viewBox="0 0 18 18" xmlns="http://www.w3.org/2000/svg"><path fill="#F0F3FA" d="M0 0h18v18H0z"/><path d="M12 5.87c0-1.32-.5-2.46-.75-2.87.2.66.26 1.91.26 2.77 0 .86-.26 1.82-.78 2.64-.42.66-1.44 1.93-1.9 2.48.18-.38.63-1.3 1.05-2.05.52-.92.62-1.58.62-1.88 0-.24-.07-.43-.1-.5h-.1c.13.6 0 1.2-.33 1.89-.32.69-1.04 2.08-1.6 3.1-.44.82-.4 1.37-.32 1.55-.03-.56.32-1.29 1.2-2.18C11.03 9.07 12 7.52 12 5.87Z" fill="#03A870"/><path d="M8.98 4a1.83 1.83 0 0 1-.94-2c0 .75.46 1.07.85 1.3.39.24 1.04.61 1.46 1.02.68.62.7 1.38.62 1.68a1.76 1.76 0 0 0-.94-1.4c-.23-.08-.56-.31-1.05-.6Z" fill="#03A870"/><path d="M9 9a3.02 3.02 0 0 0-1.04.19l.12.32c-.28.1-.55.26-.78.45l-.22-.26a3 3 0 0 0-.74.92l.3.16c-.14.26-.23.55-.27.86l-.34-.05a3 3 0 0 0 .07 1.19l.33-.1c.08.3.21.58.38.82l-.28.2a3 3 0 0 0 .86.83l.18-.3c.25.17.53.29.83.36l-.08.33a3.02 3.02 0 0 0 1.2.04l-.06-.34c.3-.05.59-.15.85-.3l.16.3a3.01 3.01 0 0 0 .91-.77l-.27-.21c.15-.2.27-.4.36-.62l.29.12A3 3 0 0 0 12 12h-1a2 2 0 1 1-2-2V9Z" fill="#583883"/><path d="M8.34 5.1a.42.42 0 0 1-.25.2c-.25.06-.5.09-.75.08-.07 0-.12-.03-.2-.03l-.01-.02a.02.02 0 0 1 0-.02c.08-.1.13-.18.28-.22.32-.09.63-.15.93 0v.02ZM9.05 5.15c.12.06.29.15.34.27a5.24 5.24 0 0 1 .05.22c-.22 0-.4-.07-.6-.17a1.14 1.14 0 0 1-.47-.37v-.01h.01l.23-.05c.15-.02.33.05.44.11ZM7.77 5.4c.13-.02.25-.06.38-.06.08 0 .2.02.4.06a1 1 0 0 1 .51.3v.03h-.02a.56.56 0 0 1-.32.06 1.78 1.78 0 0 1-.96-.35v-.02l.01-.01ZM6.87 5.79a1.08 1.08 0 0 1-.6.23h-.02c-.02-.12 0-.2.08-.28.14-.13.3-.24.47-.31a.69.69 0 0 1 .36-.05h.02v.04c-.03.17-.14.24-.3.37ZM6.96 5.74c.13-.1.27-.18.43-.24.12-.04.2-.04.33-.04.02 0 .03.01.03.04-.05.25-.25.34-.48.46a.81.81 0 0 1-.45.1c-.03-.17.02-.21.14-.32ZM9.24 5.66c.15.01.21.05.34.14l.16.11a.64.64 0 0 1 .26.53h-.01a.6.6 0 0 1-.24-.05c-.18-.1-.36-.24-.52-.42a.36.36 0 0 1-.1-.31l.02-.02.09.02ZM6.18 6.84c-.07.03-.08.07-.12.15h-.01a.4.4 0 0 1 0-.1c0-.03 0-.08-.03-.13-.1-.2.2-.53.33-.65a.3.3 0 0 1 .15-.06.37.37 0 0 0 .19-.1c0-.01 0-.01 0 0 .01 0 .01 0 0 0-.02.04-.04.08-.04.13 0 .12.01.17-.05.3-.09.16-.21.37-.42.46Z" fill="#F7BF12"/><path fill-rule="evenodd" d="m12 8-3 4h3V8Zm-.5 1.43-1.5 2h1.5v-2Z" fill="#03A870"/></svg>