<!-- by TradingView --><svg xmlns="http://www.w3.org/2000/svg" width="18" height="18" viewBox="0 0 18 18"><path fill="url(#at2kxf55j)" d="M0 0h18v18H0z"/><path d="M10.48 12.92c.01-1.1.35-3.46 1.09-4.16.32-.31.71-.53 1.1-.76.93-.53 1.92-1.1 2.33-2.92a.06.06 0 0 0-.06-.08.07.07 0 0 0-.07.05c-.09.37-.51 1.17-1.62 1.85l-.36.21c-1.27.76-2.18 1.31-2.55 3.6a7.58 7.58 0 0 0-.02 2.22c.01.04.04.07.08.07.05 0 .08-.03.08-.08Zm1.43-4.14c.52.05 1.63-.06 2.58-.87.04-.03.1-.02.12.03V8c-.16.37-.6 1.06-1.1 1.2a1.8 1.8 0 0 1-1.65-.32.06.06 0 0 1-.02-.04c0-.04.04-.06.07-.06Zm-.27.4c.24.28.88.77 1.78.81.04 0 .07.04.06.07l-.03.04c-.28.1-.86.26-1.19.09-.55-.29-.7-.8-.7-.98l.01-.03a.05.05 0 0 1 .07 0Zm.63 1.7a1.9 1.9 0 0 1-.86-1.2.04.04 0 0 0-.05-.02l-.03.03c-.07.13-.14.54.07.96.12.26.3.4.84.3l.03-.01a.04.04 0 0 0 0-.07ZM2 6.4c.17.32 1.03 1.16 3.16 1.58l.3.05c2.62.51 5.17 1 4.15 4.62h-.14c.17-.67.21-2.21-1.08-2.98a9.67 9.67 0 0 0-2.3-.76C4.23 8.45 2.15 7.94 2 6.4Zm.82 2.48c.94.36 2.9.9 4.85.79.06 0 .08.07.02.1-.6.24-1.7.5-2.81.27-1.35-.27-1.86-.75-2.13-1.07-.04-.05.02-.11.07-.09Zm5.3 1.16c-1.22.59-2.5.71-3.2.72-.04 0-.05.05-.02.07l.04.02c.26.15.63.36 1.52.2.77-.14 1.47-.48 1.71-.92.04-.03-.02-.1-.06-.09Zm-1.68 1.67c.55-.15 1.5-.54 2.2-1.3.03-.03.1.02.09.05 0 .44-.4.9-.95 1.18-.63.33-1.02.22-1.28.15h-.04c-.04-.02-.05-.07-.02-.08ZM9.9 8.79c-.27-.43-.52-1.81.07-2.14.33 0 .82 1.47.1 2.18.1-.1.17-.68.17-.8 0-.13-.03-.9-.24-.9-.2 0-.24.65-.24.9 0 .2.1.59.14.76Z" fill="#fff"/><defs><linearGradient id="at2kxf55j" x1="3.31" y1="2.64" x2="14.07" y2="18" gradientUnits="userSpaceOnUse"><stop offset=".32" stop-color="#003D76"/><stop offset=".49" stop-color="#003D74"/><stop offset=".7" stop-color="#02629F"/></linearGradient></defs></svg>