<!-- by TradingView --><svg width="18" height="18" viewBox="0 0 18 18" xmlns="http://www.w3.org/2000/svg"><path fill="#F0F3FA" d="M0 0h18v18H0z"/><path d="M9.63 4H4v10h1v-.15H5.12c.21 0 .43-.08.64-.22.2-.13.35-.32.48-.58l1.38-3.78L9.4 4.59l.06-.19.16-.4Zm-2.55 8.96a.81.81 0 0 0 0 .44.7.7 0 0 0 .21.34c.11.07.22.1.33.1h.12V14H12v-.15h.05c.18 0 .33-.09.47-.25.12-.16.15-.37.08-.64l-1.3-3.91H8.42l-1.35 3.9ZM8.62 8.5h2.49L9.89 4.85 8.62 8.5ZM10.4 4l3.29 8.88c.09.21.19.4.31.54V4h-3.6Z" fill="#885C44"/></svg>