<!-- by TradingView --><svg width="18" height="18" viewBox="0 0 18 18" xmlns="http://www.w3.org/2000/svg"><path fill="#F0F3FA" d="M0 0h18v18H0z"/><path d="M9.03 9.86c.09.24 1.27 4.06 1.33 4.14-1-.57-1.17-2.96-1.83-4.37-.66-1.4-2.1-1.64-3.4-2.18a6.27 6.27 0 0 1-1.8-1.04c.1 1.34.68 2.02.9 2.2.24.17 1.01.43 2 .64.78.16 1.28.74 1.43 1.02-.4-.57-1.2-.73-1.8-.75a5.03 5.03 0 0 1-1.16-.17c.06.21.25.72.5.96.3.31.92.42 1.62.52.57.08.96.53 1.09.75-.4-.35-.78-.43-1.12-.42a4.8 4.8 0 0 1-.77-.04c.05.24.32.79.96 1.04.64.24.87.59.9.73-.03-.1-.24-.34-.9-.5-.66-.17-1.16-.97-1.33-1.35a2.08 2.08 0 0 1-1.38-1.9C2.85 8 2.9 5.9 3.11 5c.14 1.43 2 2.12 3.58 2.59 1.58.46 2.25 2.04 2.34 2.27Z" fill="url(#alujw2dio)"/><path d="M8.97 9.86c-.09.24-1.27 4.06-1.33 4.14 1-.57 1.17-2.96 1.83-4.37.66-1.4 2.1-1.64 3.4-2.18a6.27 6.27 0 0 0 1.8-1.04c-.1 1.34-.68 2.02-.9 2.2-.24.17-1.01.43-2 .64-.79.16-1.28.74-1.43 1.02.4-.57 1.2-.73 1.8-.75.5-.01.98-.12 1.16-.17-.06.21-.25.72-.5.96-.3.31-.92.42-1.62.52-.57.08-.96.53-1.09.75.4-.35.78-.43 1.12-.42.27.02.62-.02.77-.04-.05.24-.32.79-.96 1.04-.64.24-.87.59-.9.73.03-.1.24-.34.9-.5.66-.17 1.16-.97 1.33-1.35a2.08 2.08 0 0 0 1.38-1.9C15.15 8 15.1 5.9 14.89 5c-.14 1.43-2 2.12-3.58 2.59-1.58.46-2.25 2.04-2.34 2.27Z" fill="url(#blujw2dio)"/><defs><linearGradient id="alujw2dio" x1="2.69" y1="6.51" x2="10.28" y2="7.11" gradientUnits="userSpaceOnUse"><stop stop-color="#E9AC1D"/><stop offset="1" stop-color="#2D1B33"/></linearGradient><linearGradient id="blujw2dio" x1="15.31" y1="6.51" x2="7.72" y2="7.11" gradientUnits="userSpaceOnUse"><stop stop-color="#2D1B33"/><stop offset="1" stop-color="#E9AC1D"/></linearGradient></defs></svg>