<!-- by TradingView --><svg width="18" height="18" viewBox="0 0 18 18" xmlns="http://www.w3.org/2000/svg"><path fill="#F0F3FA" d="M0 0h18v18H0z"/><path d="M8.22 5c-.27-.13-.39-.35-.33-.67.02-.12.1-.2.23-.27a.56.56 0 0 1 .44-.03c.22.08.46.22.7.42a6.33 6.33 0 0 1 2.23 4.32c-.1-.2-.17-.4-.24-.57A5.7 5.7 0 0 0 8.22 5Z" fill="#0A4CA2"/><path d="M10.62 7.88A6.31 6.31 0 0 0 5.9 6.19c-.8.04-.87-1.2-.06-1.28.25-.03.52-.01.8.06a6.58 6.58 0 0 1 4.02 2.85c.13.2.11.22-.05.06Z" fill="#0A4CA2"/><path d="M8.02 9.12c.06-.22.03-.24-.1-.05-.82 1.14-.21 2.64 1.12 2.85 1.69.25 2.88-1.46 2.82-3.07a6.1 6.1 0 0 0-1.48-3.8c-.1-.11-.08-.13.04-.04A5.98 5.98 0 0 1 13 9.8c.03 1.7-.7 3.18-2.17 3.86a3.5 3.5 0 0 1-4.1-.8 3.22 3.22 0 0 1-.18-4.15 2.5 2.5 0 0 1 1.86-.96c.82-.03 1.63.28 1.94 1.11.34.9 0 1.9-.97 2.07-.56.1-1.15-.26-1.36-.83-.1-.3-.1-.62 0-.98Z" fill="#ED1C24"/><path d="M9.72 7.66v.07a4.1 4.1 0 0 0-4.56.7c-.12.12-.25.2-.4.25-.38.13-.77-.18-.76-.6 0-.3.14-.53.4-.7 1.62-1.03 3.76-.78 5.32.28Z" fill="#0A4CA2"/></svg>