<!-- by TradingView --><svg width="18" height="18" viewBox="0 0 18 18" xmlns="http://www.w3.org/2000/svg"><path fill="#F0F3FA" d="M0 0h18v18H0z"/><path d="M8.95 6.74a9.87 9.87 0 0 0-2.27 1.68.03.03 0 0 1-.01-.03V4.04c0-.02 0-.03.02-.03h.04l2.22 1.32a.1.1 0 0 1 .05.1v1.23c0 .04-.02.06-.05.08Z" fill="#003E8B"/><path d="M11.62 10.12a2.91 2.91 0 0 1-.5.78h-.06c-.01 0-.02 0-.03-.02v-.04c.08-.1.1-.2.05-.3a.14.14 0 0 1 0-.1c.07-.27.12-.48.13-.65a1.5 1.5 0 0 0-.09-.65.86.86 0 0 0-.71-.56 1.97 1.97 0 0 0-.91.08 6.31 6.31 0 0 0-3.24 2.5c-.3.47-.5.92-.59 1.37-.1.56 0 1.02.3 1.4.06.08.04.1-.05.04-.67-.4-.98-1.03-.91-1.9.05-.7.3-1.4.76-2.12a9.13 9.13 0 0 1 4.11-3.5c.67-.3 1.34-.44 2.04-.45.51 0 .95.11 1.3.36.4.27.65.64.74 1.14.09.5.04 1.02-.14 1.56A5.76 5.76 0 0 1 12 11.72c-.18.15-.2.13-.06-.07a.38.38 0 0 0 .04-.15c.02-.11-.01-.13-.09-.05l-1.03 1.05h-.08c-.02 0-.03 0-.01-.03.13-.17.27-.34.42-.5.04-.05.06-.11.06-.2 0-.02 0-.05.02-.08l.21-.35.01-.04v-.08c-.01-.02-.02-.03-.04-.03h-.05l-.76.84c0 .02-.02.02-.02 0L10.6 12v-.02a4.97 4.97 0 0 0 1.1-1.85l-.04-.02c-.02-.01-.03 0-.04.01Z" fill="#E9B766"/><path d="M6.18 14H6v-1.21c0-.04.01-.07.03-.1.4-.47.64-1.07.64-1.7 0-.03 0-.06.02-.08A6.09 6.09 0 0 1 8.93 9.2c.03-.02.07-.01.07.03 0 .8 0 1.37-.02 1.72a3.5 3.5 0 0 1-.65 1.8A2.94 2.94 0 0 1 6.18 14Z" fill="#003E8B"/></svg>