<!-- by TradingView --><svg width="18" height="18" viewBox="0 0 18 18" xmlns="http://www.w3.org/2000/svg"><path fill="#F0F3FA" d="M0 0h18v18H0z"/><path d="M10.62 5.12h.01v.02l-.46-.01h-.45a7.38 7.38 0 0 0-1.95.2c-.56.11-1.13.31-1.71.6-.46.22-.88.52-1.26.88-.75.72-1.17 1.76-.8 2.78.15.42.4.8.72 1.14a6.22 6.22 0 0 0 2.41 1.4 9.02 9.02 0 0 0 6.26-.41 4.82 4.82 0 0 0 1.5-1.1c.05-.05.05-.04.02.01-.17.27-.39.53-.66.76-.32.27-.64.5-.97.67-.58.32-1.24.56-1.95.7-.99.2-1.98.28-2.98.22a8.49 8.49 0 0 1-3.04-.85 4.7 4.7 0 0 1-1.99-1.85 2.92 2.92 0 0 1 .27-3.06 5.05 5.05 0 0 1 2.22-1.63 7.86 7.86 0 0 1 2.3-.54c.26-.03.45-.05.58-.05h.88a7.4 7.4 0 0 0 1.06.11Z" fill="#71B9E8"/><path d="M9.56 5.3a6.06 6.06 0 0 1 3.4.77c.69.4 1.3 1.05 1.47 1.86.1.52.01 1.01-.26 1.49-.19.31-.42.59-.72.82-.51.4-1.1.7-1.77.86a6.12 6.12 0 0 1-4.39-.51c-.37-.2-.7-.49-1-.84a2.16 2.16 0 0 1-.46-.85c-.03-.12-.03-.27-.04-.37 0-.04 0-.04.02 0 .02.05.02.12.05.18a2.9 2.9 0 0 0 1.35 1.53 4.81 4.81 0 0 0 2.04.6 5.14 5.14 0 0 0 2.78-.45c.39-.17.74-.42 1.06-.73.32-.32.6-.78.65-1.21.05-.36.01-.7-.1-.98-.13-.32-.32-.6-.56-.86-.2-.2-.5-.42-.75-.55a5.78 5.78 0 0 0-2.62-.71.44.44 0 0 1-.15-.03c-.02-.01-.02-.02 0-.02Z" fill="#71B9E8"/><path d="M8.15 5.5a3.72 3.72 0 0 0 .15 0 2.68 2.68 0 0 0-2.96 2.62c-.04.2-.04.41 0 .63.05.37.19.7.39.99.24.35.55.65.91.9a6.36 6.36 0 0 0 2.77.93c1.2.08 2.3-.07 3.36-.57a4 4 0 0 0 1.5-1.17c.11-.15.22-.35.32-.6.2-.5.2-1.02.02-1.51a5.3 5.3 0 0 0-.25-.58h.02c.22.27.38.55.48.86a2.4 2.4 0 0 1-.12 1.88 3.98 3.98 0 0 1-1.9 1.7c-1.08.52-2.25.7-3.44.66a6.94 6.94 0 0 1-2.85-.71 3.67 3.67 0 0 1-1.92-2 2.4 2.4 0 0 1 .36-2.18c.22-.3.5-.58.83-.83.68-.5 1.46-.84 2.33-1.01Z" fill="#71B9E8"/><path fill-rule="evenodd" d="M13.37 8.12c0 .63-.38 1.24-1.06 1.68-.68.45-1.6.7-2.56.7s-1.88-.25-2.56-.7c-.67-.44-1.06-1.05-1.06-1.68 0-.64.39-1.24 1.06-1.69.68-.45 1.6-.7 2.56-.7s1.88.25 2.56.7c.68.45 1.06 1.05 1.06 1.69ZM9 7.62v1.1l.05.26c0 .01 0 .02-.02.02H8.5l-.01-.01-.01-.01a.03.03 0 0 1-.01-.03l.01-.04c.02-.06.04-.11.04-.18V7.29a2.37 2.37 0 0 0-.03-.28A.03.03 0 0 1 8.5 7c.32 0 .58.07.8.24a8.63 8.63 0 0 1 .3.23.03.03 0 0 0 .02-.02 1.55 1.55 0 0 0-.06-.42.03.03 0 0 1 .02-.02h.55a.02.02 0 0 1 .03.01v.02a.64.64 0 0 0-.07.26v1.4c0 .1.02.18.07.25a.02.02 0 0 1 0 .02v.01l-.01.01V9h-.57l-.01-.02a.02.02 0 0 1-.01-.02c.05-.16.06-.34.05-.49-.02-.37-.28-.67-.57-.86a.03.03 0 0 0-.04 0v.01Zm1.99.66V7.71a2.19 2.19 0 0 1 .05-.68V7A.03.03 0 0 0 11 7a4.62 4.62 0 0 1-.54.01.03.03 0 0 0 0 .03c.05.17.05.36.04.69v.54c0 .32 0 .52-.05.69v.01a.03.03 0 0 0 .02.03h.01a4.88 4.88 0 0 1 .55-.01v-.03c-.05-.17-.05-.36-.04-.68Zm1.03-.42c-.03.02-.03.03 0 .03.4.07.67.3.8.72a4.2 4.2 0 0 1 .08.37L12.9 9l-.02.01h-.54l-.01-.01a.02.02 0 0 1 0-.03c.06-.1.1-.2.03-.32a.59.59 0 0 0-.32-.28 1.45 1.45 0 0 0-.3-.1c-.02 0-.03.01-.03.03v.41a.69.69 0 0 0 .06.29.01.01 0 0 1 0 .01h-.57a.03.03 0 0 1-.02-.01.03.03 0 0 1 0-.02.83.83 0 0 0 .04-.23v-1.5a1.23 1.23 0 0 0-.03-.21.03.03 0 0 1 .03-.03h.53a.02.02 0 0 1 .01.02 1.39 1.39 0 0 0-.05.56.04.04 0 0 0 .03.02h.02a.42.42 0 0 0 .26-.28c.02-.07 0-.15-.02-.22l-.02-.08V7a.02.02 0 0 1 .02-.01h.51a.04.04 0 0 1 .03.01l.01.02v.01c0 .23-.07.42-.2.58a.99.99 0 0 1-.28.21l-.04.03Zm-4.29.66h-.5a.05.05 0 0 0-.03.02c-.1.15-.07.27-.01.43a.02.02 0 0 1-.01.03h-.54v-.01a.05.05 0 0 1-.04-.04v-.03l.13-.5c.1-.38.34-.78.63-1.05A1.3 1.3 0 0 1 8.28 7a.02.02 0 0 1 .01.02v.01a45.53 45.53 0 0 0-.03 1.73c0 .03.01.1.05.2L8.3 9h-.55l-.01-.01a.03.03 0 0 1-.02-.03v-.02a.93.93 0 0 0 .06-.38l-.02-.03-.03-.01Zm.07-.8v.36l-.02.04a.06.06 0 0 1-.04.02H7.4a.06.06 0 0 1-.03-.06l.01-.04.31-.35a.06.06 0 0 1 .07-.02l.02.02.02.04Z" fill="#265B9C"/></svg>