<!-- by TradingView --><svg width="18" height="18" viewBox="0 0 18 18" xmlns="http://www.w3.org/2000/svg"><path fill="#181B1E" d="M0 0h18v18H0z"/><path d="M10.31 4.74c.68 0 1.6.35 1.98.53A4.62 4.62 0 0 0 9.16 4C7 4 6 5.54 6 6.37c0 .82.52 1.33 1.1 1.33.57 0 .93-.6.93-1.28.25-1.18 1.43-1.68 2.28-1.68Z" fill="#ED1C24"/><path d="M12.29 5.27a5.55 5.55 0 0 0-1.98-.53c-.84 0-2.01.5-2.27 1.65-.05-.75.27-2.27 1.85-2.27h.29a4.7 4.7 0 0 1 2.1 1.15Z" fill="#B12931"/><path d="M5.28 11.6A5.47 5.47 0 0 1 4 10c.11.64.54 2 1.78 2.89 1.74 1.25 3.44.52 3.92-.18s.35-1.43-.11-1.77c-.47-.33-1.1-.04-1.5.54-.88.86-2.12.6-2.8.11Z" fill="#A6CE39"/><path d="M4 10c.2.37.73 1.2 1.28 1.6.68.48 1.9.74 2.79-.1-.4.67-1.53 1.78-2.8.87l-.24-.18C4.35 11.4 4.08 10.5 4 10Z" fill="#00A651"/><path d="M10.24 13.3c-.54.37-1.45.57-1.84.63.6.12 1.93.19 3.15-.65 1.69-1.16 1.63-2.95 1.18-3.62-.45-.68-1.13-.81-1.58-.5-.46.31-.42.99-.05 1.54.46 1.1-.2 2.14-.86 2.6Z" fill="#54C5D0"/><path d="M8.4 13.93c.39-.06 1.3-.26 1.84-.63.66-.45 1.3-1.48.87-2.57.45.6 1.04 2-.2 2.85l-.23.15c-.94.35-1.82.29-2.28.2Z" fill="#46A6AF"/><path d="M13.44 9.02c.22.62.17 1.58.12 1.99.28-.57.7-1.87.22-3.3-.68-1.98-2.44-2.41-3.22-2.14-.78.27-1.1.9-.91 1.44.18.53.85.67 1.5.45 1.18-.16 2.03.77 2.3 1.56Z" fill="#00AEEF"/><path d="M13.56 11c.05-.4.1-1.36-.11-1.98-.27-.78-1.1-1.7-2.27-1.56.7-.29 2.22-.5 2.72.96l.09.28a4.57 4.57 0 0 1-.43 2.3Z" fill="#136D99"/><path d="M5.18 6.38c.2-.64.78-1.39 1.05-1.68a4.41 4.41 0 0 0-2.05 2.53c-.62 2.02.5 3.43 1.26 3.68.75.26 1.36-.07 1.53-.61.16-.54-.28-1.06-.9-1.27-1-.6-1.13-1.86-.89-2.65Z" fill="#F58220"/><path d="M6.23 4.7c-.27.3-.85 1.04-1.05 1.68-.24.79-.12 2.03.86 2.63-.7-.19-2-.95-1.55-2.42l.09-.28A4.45 4.45 0 0 1 6.23 4.7Z" fill="#C35E30"/></svg>