<!-- by TradingView --><svg width="18" height="18" viewBox="0 0 18 18" xmlns="http://www.w3.org/2000/svg"><path fill="url(#aoi1l1uex)" d="M0 0h18v18H0z"/><path d="M10.1 10H7.22l-.53 1.44c-.13.34-.19.6-.19.77 0 .13.05.25.16.36.11.1.35.16.71.19V13H5v-.24c.31-.06.52-.15.61-.25.19-.21.4-.63.63-1.27L8.89 4h.2l2.62 7.32c.2.59.4.97.57 1.15.17.17.41.27.72.29V13h-2.97v-.24c.3-.02.5-.08.6-.18.11-.1.16-.22.16-.36 0-.19-.07-.49-.22-.9L10.1 10Zm-.14-.48-1.28-3.5-1.3 3.5h2.58Z" fill="#fff"/><defs><linearGradient id="aoi1l1uex" x1="3.35" y1="3.12" x2="21.9" y2="24.43" gradientUnits="userSpaceOnUse"><stop stop-color="#1A1E21"/><stop offset="1" stop-color="#06060A"/></linearGradient></defs></svg>