<!-- by TradingView --><svg xmlns="http://www.w3.org/2000/svg" width="18" height="18" viewBox="0 0 18 18"><path fill="#F0F3FA" d="M0 0h18v18H0z"/><path d="M8.45 9.22c.3.11.49.28.54.35.13-.1.44-.29.62-.35.23-.08 1.29-.71 1.29-1.93A5.8 5.8 0 0 0 9.1 4c-1.08.44-1.77 2.38-1.97 3.3.11 1.32.95 1.78 1.32 1.92z" fill="url(#a0lg0hnnz)"/><path d="M8.86 5.77l.18-1.2v1.26l.54-.31c-.11.15-.36.48-.44.55a6.72 6.72 0 0 0-.05 1.5c.27-.32.84-1.02.96-1.2a15 15 0 0 1-.96 1.55l-.04.57 1.32-1.12c-.34.38-1.08 1.2-1.32 1.4v.51l-.14-.05-.06-.47c-.37-.28-1.13-.97-1.24-1.48l-.03-.44c.32.47 1 1.44 1.22 1.55l.05-1.18-1.24-.69c.09-.02.3-.05.48.04.17.1.16.04.14 0l-.3-.93c.17.35.57 1.07.81 1.2.04-.16.1-.51.1-.63 0-.07-.1-.18-.22-.3a1.5 1.5 0 0 1-.39-.54l.63.4z" fill="#3A8302"/><path d="M10.77 10.42c.05.32 0 .56-.03.65.14.06.46.23.6.36.19.17 1.26.77 2.31.17a5.8 5.8 0 0 0 1.96-3.2c-.92-.72-2.94-.36-3.83-.09-1.1.76-1.07 1.72-1 2.11z" fill="url(#b0lg0hnnz)"/><path d="M13.96 9.06l1.12-.43-1.09.62.55.32a5.7 5.7 0 0 1-.7-.11c-.1-.04-.92.45-1.33.7.42.08 1.3.23 1.51.25.26.01-1.45 0-1.8-.08l-.52.25 1.62.6c-.5-.1-1.56-.35-1.86-.46l-.44.25-.03-.14.37-.29c.06-.46.29-1.47.68-1.81l.36-.25a8.3 8.3 0 0 0-.74 1.84l1.04-.55-.01-1.41c.07.06.2.23.2.43 0 .2.05.16.07.12l.66-.73a4.08 4.08 0 0 0-.64 1.32 5 5 0 0 0 .6-.23c.06-.03.1-.18.15-.35.07-.22.14-.47.27-.6l-.04.74z" fill="#3A8302"/><path d="M7.23 10.42c-.05.32 0 .56.03.65a3.2 3.2 0 0 0-.6.36c-.19.17-1.26.77-2.3.17a5.8 5.8 0 0 1-1.97-3.2c.92-.72 2.94-.36 3.83-.09 1.1.76 1.07 1.72 1 2.11z" fill="url(#c0lg0hnnz)"/><path d="M4.04 9.06l-1.12-.43 1.09.62-.55.32c.2-.02.6-.08.7-.11.1-.04.92.45 1.33.7-.42.08-1.3.23-1.51.25-.26.01 1.45 0 1.8-.08l.52.25-1.62.6c.5-.1 1.56-.35 1.86-.46l.44.25.03-.14-.37-.29c-.06-.46-.29-1.47-.68-1.81l-.36-.25c.25.51.75 1.58.74 1.84L5.3 9.77l.01-1.42a.66.66 0 0 0-.2.44c0 .2-.05.16-.07.12l-.66-.73c.22.33.64 1.04.64 1.32a5 5 0 0 1-.6-.23c-.06-.03-.1-.18-.15-.35-.07-.22-.14-.47-.27-.6l.04.74z" fill="#3A8302"/><circle cx="9" cy="11.5" r="1.5" fill="#44ABD8"/><circle cx="9" cy="11.49" r=".94" fill="#004EBF"/><defs><linearGradient id="a0lg0hnnz" x1="6.69" y1="7.1" x2="10.73" y2="8.72" gradientUnits="userSpaceOnUse"><stop stop-color="#A6C200"/><stop offset=".44" stop-color="#62AE04"/><stop offset=".94" stop-color="#317C04"/></linearGradient><linearGradient id="b0lg0hnnz" x1="11.73" y1="7.83" x2="12.33" y2="12.16" gradientUnits="userSpaceOnUse"><stop stop-color="#A6C200"/><stop offset=".44" stop-color="#62AE04"/><stop offset=".94" stop-color="#317C04"/></linearGradient><linearGradient id="c0lg0hnnz" x1="6.27" y1="7.83" x2="5.67" y2="12.16" gradientUnits="userSpaceOnUse"><stop stop-color="#A6C200"/><stop offset=".44" stop-color="#62AE04"/><stop offset=".94" stop-color="#317C04"/></linearGradient></defs></svg>