<!-- by TradingView --><svg width="18" height="18" viewBox="0 0 18 18" xmlns="http://www.w3.org/2000/svg"><path fill="#F0F3FA" d="M0 0h18v18H0z"/><path d="M14.66 10.55 13.06 8a3.67 3.67 0 0 1-3.74 3.29c-.61 0-1.13-.07-1.32-.1.31.4 1.24 1.81 4 1.81 2.74 0 3-1.06 3-1.5 0-.35-.23-.78-.34-.95Z" fill="#0177C1"/><circle cx="11.5" cy="6.5" r=".5" fill="#FFC324"/><circle cx="9.5" cy="8.5" r="1.5" fill="#FFC324"/><path d="M8.57 4c.73 0 1.2.69 1.43 1-1.59 0-2.7 1.53-3.1 2.1A6.57 6.57 0 0 0 5.87 10a3.35 3.35 0 0 0 2 3H6.11C3.42 13 3 12.16 3 11.51c0-.52.5-1.38.76-1.74.25-.4 1-1.55 1.99-3C6.98 4.93 7.65 4 8.57 4Z" fill="#01355C"/></svg>