<!-- by TradingView --><svg width="18" height="18" viewBox="0 0 18 18" xmlns="http://www.w3.org/2000/svg"><path fill="url(#a)" d="M0 0h18v18H0z"/><path fill-rule="evenodd" d="M12.22 10.7A3.02 3.02 0 0 0 14 7.88C14 5.64 12.23 5 11.1 5H9.16l-.64 1.28h.96V13h1.3v-1.92l1.6 1.92H14l-1.94-2.24.16-.06Zm1.43 2.14-1.86-2.16.22-.07c.6-.2 1.83-1.03 1.83-2.73 0-1.07-.42-1.74-.97-2.15a3.03 3.03 0 0 0-1.77-.57H9.26l-.48.96h.87v6.72h.96v-2.2l1.85 2.2h1.19ZM10.6 6.12h.16c.35 0 .86.08 1.3.34.44.27.8.71.8 1.42 0 .85-.35 1.38-.8 1.7-.43.3-.95.38-1.3.38h-.16V6.12Zm.33 3.67-.17.01V6.28h.17c.67.06 1.77.42 1.77 1.6 0 1.48-1.1 1.86-1.77 1.91Z" fill="#F08C00"/><path d="M9.32 5.32 9 5.96h.8v6.72h.65v-1.92c1.94.16 3.23-1.09 3.23-2.88 0-1.92-1.45-2.56-2.58-2.56H9.32Zm1.13 4.8V5.96c.86 0 2.58.38 2.58 1.9 0 1.88-1.72 2.26-2.58 2.26Z" fill="#fff"/><path fill-rule="evenodd" d="M10.52 10.76c1.9.13 3.16-1.1 3.16-2.88 0-1.92-1.45-2.56-2.58-2.56H9.32L9 5.96h.8v6.72h.65v-1.92h.07Zm-.13 1.86v-1.93h.07c.95.09 1.74-.18 2.29-.68s.86-1.25.86-2.13c0-.94-.35-1.56-.84-1.95a2.72 2.72 0 0 0-1.67-.55H9.36l-.26.52h.77v6.72h.52Zm0-6.72h.06c.44 0 1.1.1 1.64.38.56.3 1 .78 1 1.57 0 .97-.44 1.56-1 1.9-.54.34-1.2.43-1.64.43h-.06V5.9Zm.13 4.22h-.07V5.96h.07c.87.02 2.51.42 2.51 1.9 0 1.84-1.64 2.24-2.51 2.26Z" fill="#F08C00"/><path d="M4.65 9.8h.32V7.24c0-.75.45-2.24 2.26-2.24.83 0 1.38.32 1.72.74l-.08.15c-.31-.4-.82-.73-1.64-.73-.85 0-1.37.35-1.68.77-.31.44-.42.96-.42 1.31v2.72h-.39l-.48.96h.87v1.92h.97v-1.92h2.25v1.92h.97v-5.6c0-.3-.08-.73-.3-1.12h.18c.21.4.28.82.28 1.12V13H8.2v-1.92H6.26V13h-1.3v-1.92H4l.65-1.28Z" fill="#F08C00"/><path d="M6.1 7.56v2.4h2.25v-2.4c0-.17 0-.51-.13-.82a1 1 0 0 0-.34-.44 1.11 1.11 0 0 0-.65-.18 1 1 0 0 0-.92.56c-.16.3-.21.65-.21.88Zm1.13-1.28c.96 0 .96.96.96 1.28V9.8H6.26V7.56c0-.43.2-1.28.97-1.28Z" fill="#F08C00"/><defs><linearGradient id="a" x1="3.35" y1="3.12" x2="21.9" y2="24.43" gradientUnits="userSpaceOnUse"><stop stop-color="#1A1E21"/><stop offset="1" stop-color="#06060A"/></linearGradient></defs></svg>