<!-- by TradingView --><svg width="18" height="18" viewBox="0 0 18 18" xmlns="http://www.w3.org/2000/svg"><path fill="#F0F3FA" d="M0 0h18v18H0z"/><circle cx="9" cy="9" r="5" fill="#553602"/><path d="M13.5 9c0 2.2-2.3 4-4.5 4s-4.5-1.8-4.5-4S6.8 5 9 5s4.5 1.8 4.5 4Z" fill="#FFB281"/><path fill-rule="evenodd" d="M11.1 6.86c.05-.2.02-.3 0-.35-.03-.04-.1-.11-.27-.14-.18-.03-.43-.01-.74.07a6.8 6.8 0 0 0-2.16 1.14 7.8 7.8 0 0 0-1.8 1.81c-.2.3-.32.55-.37.75-.06.2-.03.3 0 .35.02.04.08.11.27.14.17.03.42.01.73-.07a6.8 6.8 0 0 0 2.16-1.14 7.8 7.8 0 0 0 1.8-1.81c.2-.3.32-.55.37-.75ZM9.07 9.73c1.62-1.2 2.64-2.73 2.27-3.4-.36-.69-1.97-.26-3.58.94-1.62 1.2-2.63 2.73-2.27 3.4.36.69 1.97.26 3.58-.94Z" fill="#FEFCFE"/><path fill="#EA3505" d="M9 8h2v3H9z"/></svg>