<!-- by TradingView --><svg width="18" height="18" viewBox="0 0 18 18" xmlns="http://www.w3.org/2000/svg"><path fill="#F0F3FA" d="M0 0h18v18H0z"/><path d="M4 13h2.5l1.1-2.98c-.9-.07-1.72-.09-2.42-.07L4 13Zm5.8-4.6L9 6.25l-.59 1.58-2.07-.85L7.5 4h3l2.17 5.59L9.8 8.4Zm.76 2.05L11.5 13H14l-.7-1.82c-.95-.3-1.87-.55-2.74-.73Z" fill="#E42229"/><path d="M4 10c0 .53.67.89 1 1-1.2 0-1.83-.44-2-.67L4 10Z" fill="url(#adazfdg2m)"/><path d="M14 11C9.23 9.13 4.68 9.33 3 9.67c0-.54.61-.9.92-1h1.37c2.93 0 7.03 1.55 8.71 2.33Z" fill="url(#bdazfdg2m)"/><path d="M5.3 8.33c-1.1 0-1.69.23-1.84.34.37-.54.76-.9.92-1h.91c2.2 0 4.58 1.1 5.5 1.66-1.37-.33-4.4-1-5.5-1Z" fill="url(#cdazfdg2m)"/><path d="M8.5 8a13.85 13.85 0 0 0-4.13-.67c.37-.26.77-.33.92-.33 1.47.27 2.75.78 3.21 1Z" fill="url(#ddazfdg2m)"/><defs><linearGradient id="adazfdg2m" x1="4" y1="10" x2="4.54" y2="11.21" gradientUnits="userSpaceOnUse"><stop stop-color="#33763B"/><stop offset="1" stop-color="#AEBE20"/></linearGradient><linearGradient id="bdazfdg2m" x1="3" y1="9.67" x2="8.34" y2="6.84" gradientUnits="userSpaceOnUse"><stop stop-color="#DBDA00"/><stop offset="1" stop-color="#116538"/></linearGradient><linearGradient id="cdazfdg2m" x1="3" y1="9.67" x2="8.34" y2="6.84" gradientUnits="userSpaceOnUse"><stop stop-color="#DBDA00"/><stop offset="1" stop-color="#116538"/></linearGradient><linearGradient id="ddazfdg2m" x1="3" y1="9.67" x2="8.34" y2="6.84" gradientUnits="userSpaceOnUse"><stop stop-color="#DBDA00"/><stop offset="1" stop-color="#116538"/></linearGradient></defs></svg>