<!-- by TradingView --><svg width="18" height="18" viewBox="0 0 18 18" xmlns="http://www.w3.org/2000/svg"><path fill="#F0F3FA" d="M0 0h18v18H0z"/><path fill-rule="evenodd" d="m9.47 12.02.03.06v1.84l.01.06.05.02h1.38c.04 0 .06-.02.06-.07V4.89c0-.25 0-.57-.17-.72-.11-.1-.23-.17-.34-.17H7.77C7.2 4 7 4.22 7 4.9v9.03c0 .05.03.07.07.07h1.38c.03 0 .05-.02.05-.06v-1.86c0-.02 0-.04.02-.06l.05-.02h.85c.02 0 .04 0 .05.02ZM9.5 6.4c0-.53-.18-.79-.51-.79s-.5.27-.49.8v3.18l.01.04.04.02a4.48 4.48 0 0 0 .94-.02l.01-.04V6.4Z" fill="#0077BE"/></svg>