<!-- by TradingView --><svg width="18" height="18" viewBox="0 0 18 18" xmlns="http://www.w3.org/2000/svg"><path fill="#F0F3FA" d="M0 0h18v18H0z"/><path d="M5.02 6.38c-.07-.18.05-.38.24-.38h1.46c.1 0 .2.07.24.17l3.01 7.45c.08.2 0 .38-.3.38-.88 0-1.63-.54-2-1.39-.86-2-2.38-5.55-2.65-6.23Z" fill="#F77E21"/><path d="M9.98 4c-.82 0-1.14 1.57-1.14 2.26 0 .7.17 1.39.42 2.03.19.5 1.1 2.73 1.74 4.26.37.9 1.11 1.45 2.01 1.45.31 0 .38-.2.31-.39l-2.36-6.13a3.32 3.32 0 0 1-.02-2.4c.1-.26.22-.5.37-.72.1-.14 0-.36-.15-.36H9.98ZM14 6a1 1 0 1 1-2 0 1 1 0 0 1 2 0Z" fill="#FAC213"/><path d="M4.02 10.38c-.07-.18.06-.38.25-.38h1.4c.1 0 .2.07.24.17l1.42 3.46c.07.18-.01.37-.31.37a2.2 2.2 0 0 1-2.03-1.39c-.41-.9-.85-1.93-.97-2.23Z" fill="#D61C4E"/></svg>