<!-- by TradingView --><svg width="18" height="18" xmlns="http://www.w3.org/2000/svg"><path fill="#007D9E" d="M0 0h18v18H0z"/><path d="M11.461 13.48l.462.52.461-.52V12h-.923v1.48zm.923-3.251h-1.23v-.404L8.207 14h1.477l1.646-2.4h1.054v-1.371zm-.923-.343h.923v-1.17L13 8h-2.154l.615.715v1.17zM8.008 6H5v6h1.418l3.266-4.536L8.008 6zM6.846 7.829H6.54v.342h-.616V7.83h-.307v-.686h.307V6.8h.616v.343h.307v.686zm2.318 3.88l.31-1.138H10V7.835l-3.461 4.721v1.442L8.109 12h.734s.255.032.321-.292z" fill="#fff"/><path d="M10.464 3.932l-.036-.013C8.542 3.37 8.428 2.36 8.478 2c-.132.414-.122 1.23.018 1.717.226.254.977.629 1.702.71.079.012.154.028.23.044 1.9.404 2.06 2.155 1.368 3.003.075-.163.873-1.983-1.082-2.355-.097-.016-.188-.037-.27-.052-1.382-.29-1.507-.524-1.576-.55-.054.269.288 1.719 1.576 1.9h.011c1.21.166 1.327.844 1.335 1.064l-.001.002V7.48l.001.005.003-.007c.35-.281.57-.79.591-1.34v-.153c-.032-.862-.57-1.779-1.92-2.054" fill="#FDB813"/></svg>