<!-- by TradingView --><svg width="18" height="18" viewBox="0 0 18 18" xmlns="http://www.w3.org/2000/svg"><path fill="#F0F3FA" d="M0 0h18v18H0z"/><path fill-rule="evenodd" d="M14.2 9.48c.24-.2.32-.36.32-.48s-.08-.29-.32-.48c-.24-.2-.62-.38-1.13-.55A13.42 13.42 0 0 0 9 7.4c-1.61 0-3.05.22-4.07.56-.5.17-.89.36-1.13.55-.24.2-.32.36-.32.48s.08.29.32.48c.24.2.62.38 1.13.55 1.02.34 2.46.56 4.07.56 1.61 0 3.05-.22 4.07-.56.5-.17.89-.36 1.13-.55ZM9 11c3.31 0 6-.9 6-2s-2.69-2-6-2-6 .9-6 2 2.69 2 6 2Z" fill="#003F6C"/><path fill-rule="evenodd" d="M11.5 4.98c-.1-.3-.21-.43-.33-.49-.11-.06-.29-.08-.56.03-.28.1-.6.32-.96.66-.72.66-1.48 1.73-2.12 3.05-.63 1.32-1 2.6-1.09 3.6-.04.5-.01.9.07 1.19.08.3.2.43.32.49.11.06.3.08.56-.03.28-.1.6-.32.96-.66.72-.66 1.48-1.73 2.12-3.05.63-1.32 1-2.6 1.09-3.6.04-.5.01-.9-.07-1.19Zm-.65 4.99c1.3-2.71 1.53-5.34.51-5.87-1.02-.54-2.9 1.22-4.2 3.93-1.31 2.71-1.54 5.34-.52 5.87 1.02.54 2.9-1.22 4.2-3.93Z" fill="#003F6C"/><path d="M6.44 6.18c.1 1 .46 2.27 1.09 3.59.64 1.32 1.4 2.39 2.12 3.05.35.34.68.56.96.66.27.1.45.1.56.03.12-.06.24-.2.32-.5.08-.28.11-.69.07-1.19-.1-1-.46-2.27-1.09-3.59a10.55 10.55 0 0 0-2.12-3.05 3.18 3.18 0 0 0-.96-.66c-.27-.1-.45-.1-.56-.03-.12.06-.24.2-.32.5-.08.28-.11.69-.07 1.19Zm.71 3.79c-1.3-2.71-1.53-5.34-.51-5.87 1.02-.54 2.9 1.22 4.2 3.93 1.31 2.71 1.54 5.34.52 5.87-1.02.54-2.9-1.22-4.2-3.93ZM11 4.5a.5.5 0 1 1-1 0 .5.5 0 0 1 1 0Z" fill="#003F6C"/><path d="M12 12.5a.5.5 0 1 1-1 0 .5.5 0 0 1 1 0ZM5 10.5a.5.5 0 1 1-1 0 .5.5 0 0 1 1 0Z" fill="#003F6C"/></svg>