<!-- by TradingView --><svg width="18" height="18" viewBox="0 0 18 18" xmlns="http://www.w3.org/2000/svg"><path fill="#F0F3FA" d="M0 0h18v18H0z"/><path d="M10 6.66c0-.36.31-.66.7-.66h4.04c.21 0 .34.24.2.4l-4.47 5.5c-.15.2-.47.09-.47-.15V6.66Z" fill="#FB1A27"/><path d="M7.87 12c-.15 0-.25-.07-.3-.2l-.38-1.02h-2.4L4.4 11.8c-.04.13-.15.2-.3.2h-.88c-.1 0-.16-.03-.2-.08-.04-.06-.04-.13 0-.22l2.14-5.5c.05-.13.14-.2.3-.2h1.06c.15 0 .25.07.3.2l2.15 5.5c.03.09.03.16-.01.22-.04.05-.1.08-.2.08h-.9ZM5.19 9.7h1.6l-.8-2.14-.8 2.13Z"/></svg>