<!-- by TradingView --><svg width="18" height="18" viewBox="0 0 18 18" xmlns="http://www.w3.org/2000/svg"><path fill="#F0F3FA" d="M0 0h18v18H0z"/><circle cx="9" cy="9" r="5" fill="#C20815"/><path fill-rule="evenodd" d="M9 11.81A2.81 2.81 0 1 0 9 6.2a2.81 2.81 0 0 0 0 5.62Zm0 .31a3.12 3.12 0 1 0 0-6.24 3.12 3.12 0 0 0 0 6.25Z" fill="url(#awvdg3d0y)"/><path fill-rule="evenodd" d="M13.69 9A4.69 4.69 0 1 1 4.3 9a4.69 4.69 0 0 1 9.38 0Zm-3.76 2.98a3.12 3.12 0 0 1-1.86 0L9 9.31l.93 2.67Zm.93-.47L9 6.5l-1.95 4.94a3.12 3.12 0 1 1 3.81.07Z" fill="url(#bwvdg3d0y)"/><path fill-rule="evenodd" d="M9 13.38a4.38 4.38 0 1 0 0-8.76 4.38 4.38 0 0 0 0 8.75Zm0 .3a4.69 4.69 0 1 0 0-9.37 4.69 4.69 0 0 0 0 9.38Z" fill="url(#cwvdg3d0y)"/><path d="M9 7.13 7.12 11.5l-.15-.16L9 6.5v.63Z" fill="url(#dwvdg3d0y)"/><path d="m9 9.31-.63 2.5-.3.16L9 8.84v.47Z" fill="url(#ewvdg3d0y)"/><path d="m9 9.31.63 2.5.3.16L9 8.84v.47Z" fill="url(#fwvdg3d0y)"/><path d="M9 6.5v.63l1.72 4.53.15-.16L9 6.5Z" fill="url(#gwvdg3d0y)"/><defs><linearGradient id="awvdg3d0y" x1="9" y1="5.88" x2="9" y2="12.13" gradientUnits="userSpaceOnUse"><stop stop-color="#564E57"/><stop offset=".22" stop-color="#FFFDFE"/><stop offset=".46" stop-color="#575558"/><stop offset=".76" stop-color="#BFB9B9"/><stop offset="1" stop-color="#403231"/></linearGradient><linearGradient id="bwvdg3d0y" x1="7.59" y1="5.09" x2="11.03" y2="12.91" gradientUnits="userSpaceOnUse"><stop stop-color="#89847E"/><stop offset=".14" stop-color="#BCBCBC"/><stop offset=".36" stop-color="#B3AAAD"/><stop offset=".56" stop-color="#9A9A9A"/><stop offset=".71" stop-color="#B0B0B0"/><stop offset=".87" stop-color="#A0A0A0"/><stop offset="1" stop-color="#F4F4F4"/></linearGradient><linearGradient id="cwvdg3d0y" x1="9" y1="4.31" x2="9" y2="13.69" gradientUnits="userSpaceOnUse"><stop stop-color="#EDEBEC"/><stop offset=".14" stop-color="#493439"/><stop offset=".24" stop-color="#EFEBEB"/><stop offset=".38" stop-color="#49474A"/><stop offset=".63" stop-color="#B4B2B9"/><stop offset=".85" stop-color="#EFE9F0"/><stop offset="1" stop-color="#261817"/></linearGradient><linearGradient id="dwvdg3d0y" x1="9" y1="6.81" x2="7.13" y2="11.34" gradientUnits="userSpaceOnUse"><stop stop-color="#694F50"/><stop offset=".48" stop-color="#FEEBE5"/><stop offset="1" stop-color="#252324"/></linearGradient><linearGradient id="ewvdg3d0y" x1="9" y1="9.16" x2="8.22" y2="11.97" gradientUnits="userSpaceOnUse"><stop stop-color="#948281"/><stop offset=".43" stop-color="#FFECED"/><stop offset="1" stop-color="#1D1311"/></linearGradient><linearGradient id="fwvdg3d0y" x1="9" y1="9.31" x2="9.78" y2="12.13" gradientUnits="userSpaceOnUse"><stop stop-color="#948281"/><stop offset=".43" stop-color="#FFECED"/><stop offset="1" stop-color="#1D1311"/></linearGradient><linearGradient id="gwvdg3d0y" x1="9.16" y1="6.97" x2="10.72" y2="11.5" gradientUnits="userSpaceOnUse"><stop stop-color="#251515"/><stop offset=".3" stop-color="#F4EAE7"/><stop offset=".56" stop-color="#B6ADAE"/><stop offset="1" stop-color="#42332D"/></linearGradient></defs></svg>