<!-- by TradingView --><svg width="18" height="18" viewBox="0 0 18 18" xmlns="http://www.w3.org/2000/svg"><path fill="#F0F3FA" d="M0 0h18v18H0z"/><path d="M14 9.01A5.03 5.03 0 0 1 9.04 14 5.06 5.06 0 0 1 4 9.01 5.04 5.04 0 0 1 8.97 4c2.78 0 5.06 2.2 5.03 5.01ZM8 5.97c.02 0 .04.01.05.04.59 1.26 1.17 2.68 1.73 3.9.03.06.07.1.14.1h.56c.08 0 .1-.05.07-.13L8.06 4.33c0-.02-.02-.03-.04-.03h-.04c-.02 0-.03.01-.04.03l-2.5 5.56c-.03.08 0 .11.08.11h.56c.07 0 .11-.02.14-.08C6.78 8.7 7.36 7.27 7.95 6c.01-.03.03-.04.04-.04Zm2.08 6a.06.06 0 0 1-.06-.03C9.43 10.68 8.86 9.3 8.3 8.09c-.03-.06-.07-.1-.14-.1H7.6c-.08 0-.1.06-.07.14l2.5 5.49.03.03h.04c.03 0 .04-.02.04-.03l2.5-5.5c.03-.08 0-.12-.09-.12H12c-.07 0-.11.03-.14.1-.56 1.21-1.14 2.57-1.73 3.84-.01.02-.02.04-.04.04Z" fill="#086FB8"/></svg>