<!-- by TradingView --><svg width="18" height="18" viewBox="0 0 18 18" xmlns="http://www.w3.org/2000/svg"><path fill="#F0F3FA" d="M0 0h18v18H0z"/><path d="M9.5 11.24v.38c-.11.52-.5.8-1 .8V11.6c-.07-.9-.83-1.6-1.75-1.6-.97 0-1.75.78-1.75 1.73a1.75 1.75 0 0 0 3 1.21V14h.5v-1c.38 0 .73-.16 1-.42V13H11V8h-.6v4.41H10v-1.17h-.5ZM7.57 12.6a1.21 1.21 0 0 1-2.03-.88c0-.66.54-1.2 1.21-1.2a1.2 1.2 0 0 1 1.12 1.67 1.3 1.3 0 0 1-.4-1V11H7l-.01.2c0 .57.22 1.08.57 1.41Z" fill="#636"/><path d="M5.97 11 6 7.76 12 3v3.68L6.79 11h-.82Z" fill="url(#a4ujhnros)"/><path d="M6.55 11.62H6l-.01.13a1.75 1.75 0 1 0 1.18-1.65l.16.51a1.2 1.2 0 0 1 1.62 1.14 1.21 1.21 0 1 1-2.41-.13Z" fill="#B15013"/><path d="M11.46 14V7.46H12V14h-.54Z" fill="#636"/><path d="M9.17 14c.23 0 .4-.2.4-.45 0-.24-.17-.44-.4-.44-.22 0-.4.2-.4.44 0 .25.18.45.4.45Zm.81 0c.22 0 .4-.2.4-.45 0-.24-.18-.44-.4-.44-.22 0-.4.2-.4.44 0 .25.18.45.4.45Z" fill="#B15013"/><defs><linearGradient id="a4ujhnros" x1="7.8" y1="5.67" x2="9.71" y2="9.02" gradientUnits="userSpaceOnUse"><stop offset=".17" stop-color="#CBAB97"/><stop offset="1" stop-color="#B15013"/></linearGradient></defs></svg>