<!-- by TradingView --><svg width="18" height="18" viewBox="0 0 18 18" fill="none" xmlns="http://www.w3.org/2000/svg">
<rect width="18" height="18" fill="#004071"/>
<path d="M5.91029 6.65643L4.54059 9.50198C4.52728 9.53083 4.5086 9.55278 4.48454 9.56783L3.67196 10.1008C3.631 10.1277 3.62179 10.1165 3.64431 10.0669L5.49948 6.06115C5.50787 6.04259 5.5202 6.02713 5.53519 6.01638C5.55018 6.00562 5.56729 5.99997 5.58472 6H6.52996C6.54255 6.00003 6.55488 6.00415 6.56568 6.01193C6.57649 6.0197 6.58536 6.03085 6.59139 6.04422L7.73091 8.5203C7.73334 8.52574 7.73464 8.53184 7.73468 8.53805C7.73473 8.54426 7.73352 8.55038 7.73116 8.55587C7.7288 8.56137 7.72537 8.56606 7.72118 8.56954C7.71698 8.57302 7.71215 8.57517 7.70711 8.57581H7.18391C7.17157 8.57721 7.15919 8.57421 7.14828 8.5672C7.13737 8.56018 7.1284 8.54944 7.12248 8.53629L6.21744 6.64702C6.20464 6.6188 6.18494 6.6 6.15832 6.6H5.98324C5.95099 6.6 5.92668 6.62193 5.91029 6.65643Z" fill="#F5821F"/>
<path d="M15.6806 11.9573C14.3963 10.484 12.8843 9.57871 11.1445 9.24129L10.0482 9.12557C10.0164 9.12056 10.0006 9.1378 10.0006 9.17732V11.9501C10.0006 11.9834 9.98701 12 9.95988 12H9.5043C9.46591 12 9.4513 11.9765 9.4513 11.9294V9.15662C9.4513 9.12401 9.4334 9.1077 9.40679 9.1077C8.92104 9.11021 8.60674 9.1676 8.1302 9.27986C8.10052 9.28676 8.09309 9.3062 8.10794 9.33819L9.28725 11.9046C9.3003 11.9316 9.28329 12.0003 9.25193 12H8.72336C8.69009 12 8.66526 11.962 8.64888 11.9262L7.5548 9.51317C7.53893 9.4793 7.51564 9.4677 7.48493 9.47836C6.11265 9.94623 4.82542 10.7669 3.77458 11.9403C3.75513 11.9617 3.73261 11.9733 3.70702 11.9751L3.39453 11.9996C4.97155 10.1306 6.85978 9.07352 9.05922 8.82829L9.39834 8.80101C9.43059 8.79913 9.4513 8.77812 9.4513 8.73798V6.05587C9.4513 6.02639 9.45874 6.00063 9.4828 6L14.0233 6C14.709 6.01976 15.0986 6.50085 15.1899 7.33154C15.246 7.84049 15.2675 8.62509 15.0049 9.02021C14.7062 9.47083 14.1227 9.39651 13.6874 9.39651C13.2613 9.39651 12.8436 9.17638 12.4359 9.02962C12.3904 9.01331 12.3911 9.00422 12.4382 9.00234H14.0561C14.6803 8.99857 14.6918 7.76429 14.5867 7.26851C14.47 6.71722 13.9429 6.60564 13.5144 6.6L10.0397 6.6C10.0136 6.6 10.0006 6.62069 10.0006 6.65205V8.7615C10.0006 8.80101 10.0167 8.82234 10.0489 8.82547C12.2417 9.04247 14.3976 10.0723 15.9854 11.9149C16.0079 11.9406 16.0043 11.9579 15.9746 11.9667C15.8712 11.998 15.7732 11.9949 15.6806 11.9573Z" fill="#F5821F"/>
<path d="M9.05928 8.82851C6.85984 9.07374 4.97161 10.1308 3.39459 11.9998L2.0241 11.9725C2.01914 11.9722 2.01435 11.9702 2.01034 11.9666C2.00633 11.9629 2.00328 11.958 2.00156 11.9523C1.99984 11.9465 1.99954 11.9403 2.00068 11.9344C2.00182 11.9285 2.00436 11.9231 2.00798 11.9189C3.98015 9.66673 6.33058 8.6366 9.05928 8.82851Z" fill="#24C3F3"/>
<path d="M11.1445 9.24146C12.8845 9.57887 14.3967 10.4842 15.6811 11.9574L14.6406 11.9744C14.615 11.9744 14.5933 11.9637 14.5754 11.9424C14.0573 11.3252 13.5306 10.8041 12.9951 10.3788C12.4484 9.9442 11.8315 9.56508 11.1445 9.24146Z" fill="#0086C3"/>
</svg>
