<!-- by TradingView --><svg width="18" height="18" viewBox="0 0 18 18" xmlns="http://www.w3.org/2000/svg"><path fill="#F0F3FA" d="M0 0h18v18H0z"/><path d="M10.32 4.07c.33-.14.81-.1.65.4-.2.58-.57 1.06-1.1 1.43a.8.8 0 0 1-.27.08c-.3.07-.54-.06-.59-.37-.11-.7.7-1.3 1.31-1.54ZM9.66 5.5c.06 0 .13-.03.21-.07a2.36 2.36 0 0 0 .74-.64c.1-.14.2-.3.21-.46 0-.12-.06-.18-.18-.16a.66.66 0 0 0-.2.07c-.2.09-.37.23-.52.38-.15.15-.29.32-.38.51a.58.58 0 0 0-.06.2c0 .12.06.18.18.17Z" fill="#FE7834"/><path d="M10 9.7a.05.05 0 0 0 .03.06C11 10.02 12 11.14 12 12.2c0 .51-.2.81-.62.79-.27-.01-.5-.17-.69-.35a3.94 3.94 0 0 1-1.2-2.4l-.02-.01c-.8-.01-1.3-.18-2 .18a.22.22 0 0 0-.11.12c-.12.36-.24.7-.46 1.06a7.6 7.6 0 0 1-1.53 1.83c-.3.26-.71.58-1.1.57-.37 0-.28-.5-.18-.72a7.31 7.31 0 0 1 2.97-3.16c.03-.03.06-.07.07-.15.12-.71.25-1.52.16-2.24a.07.07 0 0 0-.07-.07c-.88-.05-1.85-.52-2.17-1.42A.8.8 0 0 1 5 5.96c0-.32.28-.45.62-.46.99-.02 1.77.84 2.04 1.74 0 .02.03.04.06.04a12.88 12.88 0 0 0 3.06-.35.24.24 0 0 0 .07-.06c.72-.87 1.72-1.8 2.9-1.87.47-.02.16.58.04.71-.42.48-.9.83-1.45 1.06l-1.18.48a.56.56 0 0 0-.29.27c-.32.61-.77 1.45-.88 2.19Zm1.4-2.94c.67-.2 1.28-.46 1.8-.82.22-.14.65-.46.6-.75 0-.02-.01-.04-.04-.04-.29.01-.62.13-1 .37-.54.32-.97.75-1.35 1.24Zm-4.24.45c-.27-.73-.87-1.67-1.8-1.52-.14.03-.17.13-.16.27.03.28.26.46.48.61.44.33.91.55 1.48.64Zm3.24.31c-.14 0-.45.04-.93.13-.52.09-1.09.09-1.68.08.1.67-.05 1.45-.17 2.11.66-.27 1.13-.21 1.86-.17l.05-.01a.08.08 0 0 0 .03-.05c.1-.68.54-1.47.87-2.05.01-.02 0-.04-.03-.04Zm1.35 4.52c-.16-.83-.85-1.36-1.6-1.6-.05-.02-.08 0-.08.06 0 .79.48 1.8 1.15 2.22.11.08.21.1.3.08.3-.1.28-.48.23-.76Zm-5.8.4c.4-.49.72-1.05.98-1.69.04-.1.01-.13-.08-.06A7.73 7.73 0 0 0 4.3 13.4a.78.78 0 0 0-.1.36c0 .04.03.08.07.09.11.02.28-.1.37-.16.3-.2.53-.38.68-.53.17-.18.38-.42.62-.72Z" fill="#FE7834"/></svg>