<!-- by TradingView --><svg width="18" height="18" viewBox="0 0 18 18" xmlns="http://www.w3.org/2000/svg"><path fill="url(#aqbqugwyq)" d="M0 0h18v18H0z"/><path d="M10.13 7.6c.01 1.43-1.81 1.89-2.72 1.94l2.84 1.87.77 1.01c.12.19.5.56 1.04.56H14L11.2 7.7l-1.07-.1Z" fill="url(#bqbqugwyq)"/><path d="M5.19 10.68C4.79 11.43 4 12.95 4 13h2c.58 0 .9-.45 1.28-1.03.38-.58 1.02-1 1.7-1 .55 0 1.1.32 1.3.47-.72-1.02-1.53-1.9-3-1.9-1.18 0-1.89.76-2.1 1.14Z" fill="url(#cqbqugwyq)"/><path d="M9.07 7.46a5.6 5.6 0 0 0-2.6.64c.45-.84 1.44-2.67 1.75-3.31.32-.65.92-.8 1.18-.79l2.63 5.24a3.38 3.38 0 0 0-2.96-1.78Z" fill="url(#dqbqugwyq)"/><defs><linearGradient id="aqbqugwyq" x1="3.35" y1="3.12" x2="21.9" y2="24.43" gradientUnits="userSpaceOnUse"><stop stop-color="#1A1E21"/><stop offset="1" stop-color="#06060A"/></linearGradient><linearGradient id="bqbqugwyq" x1="12.07" y1="9.06" x2="9.84" y2="11.14" gradientUnits="userSpaceOnUse"><stop stop-color="#0470BB"/><stop offset=".55" stop-color="#2C9DD7"/><stop offset="1" stop-color="#55CCE2"/></linearGradient><linearGradient id="cqbqugwyq" x1="7.68" y1="9.65" x2="6.99" y2="12.97" gradientUnits="userSpaceOnUse"><stop stop-color="#0076AA"/><stop offset=".82" stop-color="#43C6F2"/></linearGradient><linearGradient id="dqbqugwyq" x1="7.76" y1="5.84" x2="11.17" y2="7.52" gradientUnits="userSpaceOnUse"><stop stop-color="#076CB2"/><stop offset=".37" stop-color="#33ACE3"/><stop offset="1" stop-color="#3AC5F1"/></linearGradient></defs></svg>