<!-- by TradingView --><svg width="18" height="18" viewBox="0 0 18 18" xmlns="http://www.w3.org/2000/svg"><path fill="#F0F3FA" d="M0 0h18v18H0z"/><path d="M12.98 9.98c.08-.01.2-.13.25-.15.04-.02.06-.06.06-.1a6.64 6.64 0 0 1 0-1.67c1.14-1.1-.88-1.73-1.45-1.07-.22.25-.16.76-.18 1.09l-2.23.05-.13-.05c-.02 0 .01-.04 0-.05a.13.13 0 0 1-.03-.05.12.12 0 0 1-.01-.05l.06-1.13a3.52 3.52 0 0 1 1.9-1.67c.2-.07.45-.12.76-.13.66-.01 1.33.01 2.02.16.82.17 1.89 1 1.98 1.84.2 1.47-1.29 3.12-3 2.98Z" fill="#4FBB43"/><path d="M9.33 6.8V8h2.34c.51.07 1.21.12 1.66.02v1.83c0 .05-.06.08-.1.1a.54.54 0 0 1-.19.04h-1.28c-.05 0-.1.03-.1.07v2.87c0 .05 0 .07-.05.07H9.4a.08.08 0 0 1-.06-.02l-.01-.02V9.62H5.66v-1.4c0-.03-.02-.06-.05-.1-.03-.04-.04-.06-.02-.08 0-.02.04-.03.09-.04h1.26l.03-.02.02-.03V6.86c-.02-.21-.13-.32-.36-.32h-.6c-.41 0-.53.59-.51.86v.02l-.02.02-.02.02H3.26c-.05 0-.07-.02-.07-.07.08-.38.2-1.18.57-1.52.41-.36.7-.6.84-.69.15-.1.38-.17.69-.18h2.18c.78 0 1.4 1.1 1.86 1.8Z" fill="#027F02"/><path d="M5.67 8v1.62c-.28.29-.57 1.28.41 1.5.2.05 1.24.08 1.25-.28V9.62h2v2.04a4.26 4.26 0 0 1-2.58 1.29 3.7 3.7 0 0 1-2.55-.52 7.3 7.3 0 0 1-1.15-1.14.17.17 0 0 1-.05-.11V9.49c0-.05.02-.09.06-.13a5.37 5.37 0 0 1 1.89-1.2c.3-.11.54-.17.72-.16Z" fill="#4FBB43"/></svg>