<!-- by TradingView --><svg width="18" height="18" viewBox="0 0 18 18" xmlns="http://www.w3.org/2000/svg"><path fill="#F0F3FA" d="M0 0h18v18H0z"/><path d="M10 4.04c-2.84.95-4.98 3-5.7 3.9C5.54 7.1 7.4 6.16 8.23 6.2 8.9 6.24 9.62 7.42 9.9 8h1.95c-.56-.35-1.7-1.22-1.75-1.92-.05-.7.73-1.24 1.13-1.42-.27-.71-.93-.7-1.23-.62Z" fill="#F8B333"/><path d="M3.9 8.86c-.3.27-.9 1.03-.9 1.97C3 12 4.31 12.79 7.67 12.8c2.55.01 4.95-.3 5.98-.5l-.33.69.64-.63.64.63-.39-.8.79-.43-.88.13-.16-.9-.14.81-.28.05-.62-.1.26.15c-1.3.18-3.56.4-5.85.37-3.57-.03-3.73-.98-3.78-1.45l-.01-.13c-.06-.45-.12-.99.37-1.84Z" fill="#C3A572"/><path fill="#A5A5A5" d="M5 9h7v2H5z"/></svg>