<!-- by TradingView --><svg width="18" height="18" viewBox="0 0 18 18" xmlns="http://www.w3.org/2000/svg"><path fill="#02AE52" d="M0 0h18v18H0z"/><path d="M5.44 12.27h4.22l-2.7-6.54h-.3l-2.9 7.03a.4.4 0 0 1-.37.24.38.38 0 0 1-.39-.43v-.03l.03-.09L6.04 5.2c.05-.12.17-.2.31-.2h.89c.13 0 .25.08.3.2l3.07 7.26c.1.26-.1.54-.39.54H5.44a.39.39 0 0 1-.4-.38c0-.2.18-.35.4-.35ZM9.57 5h4.98c.25 0 .45.2.45.43v.87l-2.92 6.47a.4.4 0 0 1-.36.23.4.4 0 0 1-.4-.42v-.01c0-.05.02-.09.03-.13l2.92-6.22v-.5h-4.7c-.22 0-.39-.14-.39-.36 0-.21.17-.36.4-.36Z" fill="#fff"/></svg>