<!-- by TradingView --><svg width="18" height="18" viewBox="0 0 18 18" xmlns="http://www.w3.org/2000/svg"><path fill="#F0F3FA" d="M0 0h18v18H0z"/><path d="M3 9.55C3.6 12.67 6.06 15 9 15s5.4-2.34 6-5.45l-1.23-.28C13.3 11.74 11.33 13.6 9 13.6c-2.33 0-4.29-1.85-4.77-4.31L3 9.55Z" fill="#FC772D"/><path d="m4.79 6.69-1.25-.16C3.25 7.28 3.3 8.5 3.36 9l1.14-.27c.33 2.68 1.87 3.65 2.6 3.8C4.67 11 4.55 7.98 4.8 6.69Z" fill="#505152"/><path d="m6.3 5.02-1.05-.75c-.56.53-.97 1.6-1.11 2.08l1.13.31c-.76 2.56.25 4.2.84 4.7a5.95 5.95 0 0 1 .2-6.34Z" fill="#757578"/><path d="M8.5 4.2 7.85 3c-.7.18-1.52.93-1.84 1.27l.88.86C5.17 7.03 5.4 9 5.73 9.73a5.54 5.54 0 0 1 2.76-5.52Z" fill="#9D9EA1"/><path d="m13.21 6.69 1.24-.16c.3.75.25 1.98.19 2.47l-1.14-.27c-.33 2.68-1.87 3.65-2.6 3.8 2.43-1.53 2.56-4.55 2.31-5.84Z" fill="#505152"/><path d="m11.7 5.02 1.05-.75c.55.53.97 1.6 1.11 2.08l-1.13.31c.76 2.56-.25 4.2-.85 4.7 1.6-2.58.54-5.3-.19-6.34Z" fill="#757578"/><path d="m9.5 4.2.63-1.2c.71.18 1.53.93 1.84 1.27l-.87.86c1.72 1.9 1.5 3.86 1.17 4.6a5.54 5.54 0 0 0-2.76-5.52Z" fill="#9D9EA1"/></svg>