<!-- by TradingView --><svg width="18" height="18" viewBox="0 0 18 18" xmlns="http://www.w3.org/2000/svg"><path fill="#F0F3FA" d="M0 0h18v18H0z"/><path d="m11.75 5.1-.28-.26.26-.21.02.02.01-.02c.2.1.53.23.9.37l.37.14.7.29c.2.09.37.18.48.27.63.41.81 1.22.79 2.19 0 2.21-2.24 4.67-4.1 5.64-.56.3-1.13.47-1.63.47-.61 0-1.17-.3-1.7-.58L7.95 11c.17.02.02 0 .22 0 1.77 0 4.5-2.63 4.5-4.3 0-.8-.5-1.24-.91-1.6Z" fill="url(#ar5zuolqs)"/><path d="m3.5 11.23-.03-.03C3.2 10.87 3 10.4 3 9.85c0-1.17.76-2.69 2.26-3.88A9.17 9.17 0 0 1 9 4.1c.28-.05.55-.11.8-.11.24 0 .46.07.66.12l.1.03.2.08s1.8.7 3.26 1.4c1.07.49.97 2.02.97 2.02S14.78 6 13.25 6C10.5 6 8 8.7 8 11.46c0 1.38.65 2.25.77 2.5 0 0-.5-.16-.9-.39-.4-.22-3.4-1.78-4.38-2.33v-.01Z" fill="url(#br5zuolqs)"/><path d="M10.47 4.11v.01a3.06 3.06 0 0 0-1.46 0l3.62 1.93c2.15-.27 2.37 1.6 2.37 1.6v-.28c-.02-.33-.1-.89-.4-1.32a1.4 1.4 0 0 0-.55-.47c-1.17-.55-2.38-1-3.58-1.47Z" fill="url(#cr5zuolqs)"/><path d="M3 9.75s0 .72.26 1.12c.24.4.24.37.24.37.6.34 1.91 1.02 2.96 1.58.67.35 1.21.66 1.37.75l.6.27c0-.04.37.15.34.1-.08-.14-.54-.94-.64-1.5L3 9.75Z" fill="url(#dr5zuolqs)"/><defs><linearGradient id="ar5zuolqs" x1="7.78" y1="6.14" x2="15.14" y2="12.21" gradientUnits="userSpaceOnUse"><stop offset=".47" stop-color="#C3D985" stop-opacity=".76"/><stop offset=".63" stop-color="#45BEC5" stop-opacity=".7"/><stop offset=".84" stop-color="#0287AD"/></linearGradient><linearGradient id="br5zuolqs" x1="5.22" y1="4.53" x2="12.61" y2="8.69" gradientUnits="userSpaceOnUse"><stop offset=".24" stop-color="#C9DC94" stop-opacity=".87"/><stop offset=".33" stop-color="#8AD4BB" stop-opacity=".73"/><stop offset=".47" stop-color="#57CDDA" stop-opacity=".83"/><stop offset=".81" stop-color="#037A9B"/></linearGradient><linearGradient id="cr5zuolqs" x1="12.01" y1="3.28" x2="10.34" y2="6.19" gradientUnits="userSpaceOnUse"><stop offset=".17" stop-color="#004E4E"/><stop offset=".43" stop-color="#006F6F"/><stop offset=".62" stop-color="#31A7BD" stop-opacity=".07"/></linearGradient><linearGradient id="dr5zuolqs" x1="6.5" y1="10.14" x2="5.38" y2="13.06" gradientUnits="userSpaceOnUse"><stop offset=".47" stop-color="#008B87" stop-opacity=".04"/><stop offset=".78" stop-color="#025755"/></linearGradient></defs></svg>