<!-- by TradingView --><svg width="18" height="18" viewBox="0 0 18 18" xmlns="http://www.w3.org/2000/svg"><path fill="#F0F3FA" d="M0 0h18v18H0z"/><path d="m13.2 6.2-2.12 1.84-.53-.3c-.34-.24-.71-.3-1.13-.16a1.72 1.72 0 0 0-1.03 2.48c.02.05.02.09-.02.12l-.44.37c-.05.05-.1.03-.11-.04a10.2 10.2 0 0 1-.12-.5c-.12-.57-.1-1.15.09-1.71.1-.3.25-.63.46-1.01.07-.12.16-.24.28-.36l.32-.31c.11-.11.22-.19.31-.24.12-.06.24-.12.35-.2A3.73 3.73 0 0 1 12.55 6a3.28 3.28 0 0 0 .65.2ZM12.6 8.46l-.41.76a.03.03 0 0 1-.04 0h-.01a2.74 2.74 0 0 0-.56-.81c-.08-.07-.04-.15.1-.25a64.16 64.16 0 0 1 1.85-1.68c.14-.13.2-.1.19.08l-.08.16-1.04 1.74Z" fill="#E6E6E9"/><path d="m14.75 10.72-.83-.12-.02-.23a.05.05 0 0 0-.02-.04.05.05 0 0 0-.05 0l-.2.11a.04.04 0 0 1-.04 0l-.02-.02v-.02a41.24 41.24 0 0 1 .6-2.22 7.5 7.5 0 0 0 .13-.55c0-.06.04-.11.08-.15.02-.02.04-.02.06 0a3.63 3.63 0 0 1 .31 3.23Z" fill="#B9BCC1"/><path d="m11.08 8.04 2.12-1.85 1.35-1.15a.15.15 0 0 1 .18-.01c.14.1.1.2.06.36l-.01.05-1 3.7-.43 1.56v.02l.01.02h.04l.2-.17a.13.13 0 0 1 .19.04l.01.07-.02.26c0 .05-.03.08-.07.1l-.5.29a.08.08 0 0 0-.04.05l-.18.71c0 .02-.02.04-.03.05a.08.08 0 0 1-.05.01l-2.16-.18c-.06-.01-.09-.04-.06-.1.02-.06.06-.11.12-.16.03-.04.03-.06-.02-.06a2.55 2.55 0 0 1-1.89-1.1h-.03c-.51.5-1.18.9-1.8 1.25-.57.3-1.2.52-1.9.64-.6.1-1.22.02-1.88-.26a2.18 2.18 0 0 1-.7-.46c-.52-.5-.74-1.03-.48-1.73.13-.34.38-.6.75-.8a3 3 0 0 1 2.02-.28c.5.1.73.4.71.9 0 .15-.08.31-.22.46-.25.27-.71.28-1 .1-.3-.21-.42-.52-.32-.94 0-.03 0-.04-.03-.03-.66.29-.93.76-.8 1.42.08.4.38.7.78.85 1 .4 2 .16 2.91-.37.58-.33 1.14-.72 1.68-1.15.03-.01.03-.03.02-.06-.24-.4-.37-.98-.17-1.43.37-.88 1.08-1.19 2.1-.91l.54.29Zm1.52.42a144.4 144.4 0 0 0 1.12-1.9c.01-.18-.05-.2-.18-.09-.55.5-1.1 1-1.65 1.53l-.2.16c-.15.1-.19.18-.11.25a2.74 2.74 0 0 1 .57.82.03.03 0 0 0 .04-.01l.41-.76Z" fill="url(#a)"/><path d="M9.28 9.57a.55.55 0 0 1-.06-.39c.1-.48.39-.76.86-.83.16-.02.32-.01.48.03a.06.06 0 0 1 .05.05.06.06 0 0 1-.02.05L9.3 9.58a.02.02 0 0 1-.01 0l-.01-.01Z" fill="#E6E6E9"/><path d="m9.49 10.02 1.54-1.3a.08.08 0 0 1 .1-.01c.38.23.61.58.69 1.03 0 .05 0 .1-.03.15l-.6 1.1a.17.17 0 0 1-.07.07.18.18 0 0 1-.1.02 2.15 2.15 0 0 1-1.54-.97.07.07 0 0 1 0-.09Z" fill="#fff"/><path d="M11.7 9.68c.02.07.03.12.01.14a12.52 12.52 0 0 1-.7 1.13h-.04c-.55-.1-.99-.36-1.32-.78a.1.1 0 0 1 .01-.15l1.37-1.16a.08.08 0 0 1 .09 0c.3.2.49.47.58.82Z" fill="#A8AAAE"/><path d="M14.75 10.72A3.54 3.54 0 0 1 11.53 13a3.75 3.75 0 0 1-3.25-1.64c-.04-.06-.03-.12.03-.18l.47-.4a.08.08 0 0 1 .1 0c.15.15.27.27.37.35a2.59 2.59 0 0 0 1.34.61.02.02 0 0 1 0 .02l-.13.26a.04.04 0 0 0 0 .03l.01.02h.02l2.45.22c.04 0 .07-.01.1-.03a.14.14 0 0 0 .06-.08l.17-.69a.15.15 0 0 1 .08-.1l.48-.27a.16.16 0 0 0 .09-.14v-.38l.83.12Z" fill="#85868B"/><defs><linearGradient id="a" x1="13.96" y1="5" x2="11.35" y2="10.25" gradientUnits="userSpaceOnUse"><stop stop-color="#CCDDF8"/><stop offset="1" stop-color="#214FA5"/></linearGradient></defs></svg>