<!-- by TradingView --><svg width="18" height="18" viewBox="0 0 18 18" xmlns="http://www.w3.org/2000/svg"><path fill="#F0F3FA" d="M0 0h18v18H0z"/><path fill-rule="evenodd" d="M11 4.31c.35.01.7 0 1.04-.1l.47-.14c.25-.08.49.12.49.4V9.8C13 12.12 11.28 14 9.16 14h-.32C6.72 14 5 12.12 5 9.81V8.15C5 5.85 6.7 4 8.8 4h.23c.68 0 1.3.29 1.97.31ZM11 12H8.99C7.86 12 7 10.88 7 9.65v-1.5C7 6.94 7.87 6 9 6s2 .93 2 2.16V12Z" fill="#1D443B"/><path d="M11 10H9v2h2v2h2v-2h-2v-2Z" fill="url(#a)"/><defs><linearGradient id="a" x1="9.11" y1="10.16" x2="13.35" y2="14.03" gradientUnits="userSpaceOnUse"><stop stop-color="#2BD4B3"/><stop offset="1" stop-color="#027371"/></linearGradient></defs></svg>