<!-- by TradingView --><svg width="18" height="18" viewBox="0 0 18 18" xmlns="http://www.w3.org/2000/svg"><path fill="#F0F3FA" d="M0 0h18v18H0z"/><path d="M5.14 13H8.5L5.24 9.3l-1.1 1.95c-.42.77.13 1.75 1 1.75Z" fill="#0269D9"/><path d="m7.87 4.66-.65 1.2.82.77 2.07 3.76L9.67 13h3.2c.87 0 1.42-.96.97-1.73l-3.8-6.64a1.24 1.24 0 0 0-2.17.03Z" fill="url(#aqx545oic)"/><path d="M11.13 6.54c-.06-.1-.11-.16-.12-.16-.14 0-1.39 0-1.5.1-.08.07-.5.79-.8 1.4l.43.75.7-1.14c.06-.11.3-.36.74-.44.34-.06.7.03.92.12l-.37-.63Z" fill="#A24363"/><path d="M5.61 8.65 7.24 5.8c.23-.15.9-.45 1.7-.45a3.78 3.78 0 0 1 3.8 4l-1.25-2.17c-.1-.17-.4-.47-.92-.47-.53 0-.9.37-1.01.55l-1.73 3.02H6.76c-.47 0-.83-.3-.95-.45a1.43 1.43 0 0 1-.2-1.18Z" fill="url(#bqx545oic)"/><path d="m5.74 8.43-.13.22c-.06.22-.1.77.2 1.18.12.15.48.56.95.56h1.01l.24-.42H6.97c-.29 0-.73-.1-1.06-.63-.2-.31-.2-.66-.17-.91Z" fill="#1168B7"/><path d="M9.88 13H8.3a4.2 4.2 0 0 1-2.58-1.75 3.94 3.94 0 0 1-.28-3.67 3.73 3.73 0 0 1 1.8-1.78L5.8 8.33c-.1.17-.38.83-.11 1.3.27.46.8.75 1.01.76h3.45l.53.76c.24.4.16.87.09 1.06-.2.48-.68.74-.9.79Z" fill="url(#cqx545oic)"/><path d="M9.62 13h.25c.22-.05.71-.28.9-.74.08-.18.18-.67-.05-1.07l-.56-.8H9.8l.52.8c.14.24.27.68-.02 1.22-.17.32-.46.5-.7.59Z" fill="#5368BB"/><defs><linearGradient id="aqx545oic" x1="7.75" y1="4.85" x2="14.82" y2="6.33" gradientUnits="userSpaceOnUse"><stop stop-color="#E62168"/><stop offset=".58" stop-color="#F18950"/><stop offset="1" stop-color="#FFDF0D"/></linearGradient><linearGradient id="bqx545oic" x1="10.96" y1="6.13" x2="9.11" y2="10.26" gradientUnits="userSpaceOnUse"><stop stop-color="#3EC3F0"/><stop offset="1" stop-color="#1E8CD9"/></linearGradient><linearGradient id="cqx545oic" x1="5.13" y1="10.32" x2="9.71" y2="9.75" gradientUnits="userSpaceOnUse"><stop offset=".13" stop-color="#80EBBE"/><stop offset="1" stop-color="#7879E5"/></linearGradient></defs></svg>