<!-- by TradingView --><svg width="18" height="18" viewBox="0 0 18 18" xmlns="http://www.w3.org/2000/svg"><path fill="#F0F3FA" d="M0 0h18v18H0z"/><path d="M12.79 10.06c-.17-.01-.23-.22-.2-.62.22-.66.3-1.31.24-1.97-.07-.73-.51-1.4-1.4-1.36-.38.02-.73.13-1.07.31.04 0 .02.01-.03.04-.06 0-.1 0-.13.02-.9.53-1.7 1.21-2.4 2.03-.64.75-1.18 1.5-1.61 2.28l-.13-.1h.05c.05 0 .07-.02.09-.06.1-.3.26-.64.47-1.02a19.82 19.82 0 0 1 1.87-2.86l.9-.57c.03-.02.03-.05 0-.08-.05-.04-.12-.04-.23 0a6.87 6.87 0 0 1 2.44-1.89c.25-.11.55-.18.88-.2 1.44-.11 1.55 1.47 1.43 2.36a9.87 9.87 0 0 1-1.15 3.45c-.04.08-.03.16-.02.24Z" fill="#E92381"/><path d="M8.54 6.75c-.82.35-1.53.78-2.13 1.3-.47.42-.77.84-.9 1.29-.18.56 0 1.01.55 1.35l.13.1c.67.3 1.39.44 2.14.45a12.46 12.46 0 0 0 3.15-.33c.01 0 .02 0 .03.02l-.01.03c-1.43.5-2.93.8-4.5.93a1.47 1.47 0 0 1-.38-.12.47.47 0 0 1-.14-.1.48.48 0 0 0-.14-.11c-.14-.07-.16-.05-.05.06.12.11.17.2.16.25a5.64 5.64 0 0 1-2.53-.37c-.5-.2-.8-.52-.9-.95-.35-1.62 2.99-3.28 4.26-3.73.9-.32 1.54-.56 1.93-.71.1-.05.18-.05.23 0 .03.02.03.05 0 .07l-.9.57Z" fill="#10112F"/><path d="M10.36 6.42a8.71 8.71 0 0 1 2.23 3.02c-.03.4.03.61.2.62.65 1.85.01 4.22-2.62 3.91a5 5 0 0 1-2-.74c-.5-.3-1.07-.76-1.72-1.36.01-.05-.04-.14-.16-.25-.1-.1-.09-.13.05-.06.04.02.09.05.14.1.03.05.08.08.14.11.14.06.26.1.38.12.53.34 1.12.57 1.76.67-.04.03-.05.06-.05.1l.03.04.05.02c.44.03.74.03.9.01 1-.14 1.65-.65 1.95-1.53a4.34 4.34 0 0 1 .17-.48 2.1 2.1 0 0 0-.1-1.08 6.8 6.8 0 0 0-1.38-3.18c.05-.03.07-.04.03-.04Z" fill="#00ADED"/><path d="m9.12 10.6-.16-.22.03-.07.4-1.66c.12-.14.26-.25.44-.32.04-.02.07 0 .1.02.43.48.6 1.03.53 1.64 0 .04-.03.07-.07.1l-.54.24c-.04.03-.04.03 0 .02l.71-.12a.27.27 0 0 0 .16-.08c.04-.04.06-.09.06-.14a3.22 3.22 0 0 0-.77-2.2c-.02-.03-.07-.03-.16 0a.58.58 0 0 0-.22-.26c.1-.08.22-.14.34-.17a.1.1 0 0 1 .06 0 3.6 3.6 0 0 1 .9 2.88c0 .04-.03.07-.07.09a2 2 0 0 1-.56.14c-.51.08-.9.11-1.18.11Z" fill="#0182AD"/><path d="M9.63 7.55c.1.08.18.17.22.27-.6.4-1.12.88-1.56 1.45L8 9.13c.45-.62 1-1.14 1.64-1.58ZM9.4 8.65l-.41 1.66a2.03 2.03 0 0 1-.75-.27c-.04-.03-.04-.06-.02-.1.28-.5.68-.93 1.17-1.3Z" fill="#014867"/><path d="m7.99 9.13.3.14-.53.78a.06.06 0 0 0 .01.08l.03.02c.37.13.76.21 1.16.23l.16.22a4.4 4.4 0 0 1-1.85-.26.1.1 0 0 1-.03-.04.1.1 0 0 1 .02-.09l.73-1.08Z" fill="#10112F"/><path d="M8.76 12.56c1.38.16 2.31-.34 2.79-1.49.02-.05 0-.09-.05-.1.02-.01.02-.02.01-.04a.04.04 0 0 0-.03-.02l-.06-.01c.13.03.21-.03.23-.18.05-.34.07-.7.07-1.08.12.34.15.7.09 1.08 0 .04-.04.12-.08.24a4.3 4.3 0 0 0-.1.24c-.3.88-.94 1.39-1.93 1.53a5.38 5.38 0 0 1-.96-.03.07.07 0 0 1-.03-.05c0-.03.02-.06.05-.1Z" fill="#0182AD"/></svg>