<!-- by TradingView --><svg width="18" height="18" viewBox="0 0 18 18" xmlns="http://www.w3.org/2000/svg"><path fill="#F0F3FA" d="M0 0h18v18H0z"/><path d="M4 10.76c.49.67 2.32 2.49 4.44 2.49 2.66 0 4.98-1.93 4.98-5.33 0-.79-.49-2.5-.66-2.92.4.36 1.24 1.57 1.24 3.38C14 10.64 12.49 14 8.67 14A4.68 4.68 0 0 1 4 10.76Zm4.07 1.17c-1.78 0-3.33-1.53-3.74-2.09a3.93 3.93 0 0 0 3.92 2.72c3.22 0 4.49-2.82 4.49-4.72 0-1.52-.71-2.53-1.05-2.84.15.36.56 1.8.56 2.45 0 2.86-1.95 4.48-4.18 4.48Zm-.7-2.98a2.72 2.72 0 0 1-2.08-1.01c.14.53.8 1.6 2.36 1.6 1.93 0 2.67-1.68 2.67-2.83 0-.92-.4-1.52-.6-1.71.09.22.27.75.27 1.15 0 1.73-1.28 2.8-2.62 2.8Zm-.24-1.47c-.94 0-1.22-.54-1.3-.68a.2.2 0 0 0-.02-.04c.06.35.41 1.06 1.44 1.2 1.3.16 1.86-.9 1.86-1.7 0-.62-.23-1.04-.34-1.17.03.06.08.3.06.8-.04.63-.65 1.59-1.7 1.59ZM4.9 8.93a4 4 0 0 0 2.88 1.5c1.75 0 3.28-1.35 3.28-3.6 0-.53-.26-1.45-.37-1.74.26.25.78 1.03.78 2.24 0 1.5-.96 3.7-3.49 3.7-2.02 0-2.9-1.4-3.08-2.1Z" fill="#CDAC61"/><path d="m10 4.5.5-.5.5.5-.5.5-.5-.5Zm-3 1 .5-.5.5.5-.5.5-.5-.5Zm5.38-.84c-.04.04-.1.15.03.34l.02-.03c.03-.05.1-.15.28-.27l.29-.15-.04-.23-.33.14c-.15.01-.44.03-.37-.05.07-.07.32-.17.43-.2L12.53 4c-.21.13-.61.41-.51.51.12.13.27.15.37.15Z" fill="#053D5E"/></svg>