<!-- by TradingView --><svg width="18" height="18" viewBox="0 0 18 18" xmlns="http://www.w3.org/2000/svg"><path fill="#F0F3FA" d="M0 0h18v18H0z"/><path d="M7.61 8.43c-1.52.48-3.4 1.6-4.16 2.1l.35-1.38a11.76 11.76 0 0 1 4.25-1.77l1.05.42-.97 1.84a64.4 64.4 0 0 0 5.45-2.26l-.24 1.23-5.08 2-1.32-.97.67-1.2Z" fill="#DC2226"/><path d="M11.77 7.62 9 3 6.44 7.27a7.76 7.76 0 0 1 1.54-.4l.14-.02 1.73.68-.61 1.15c.78-.3 1.7-.7 2.53-1.06Zm1.06 1.76L8.18 11.2 6.25 9.79l.18-.32c-.7.32-1.39.7-1.93 1.02L3 13h12l-2.17-3.62Z" fill="#003894"/></svg>