<!-- by TradingView --><svg xmlns="http://www.w3.org/2000/svg" width="18" height="18"><path fill="#F0F3FA" d="M0 0h18v18H0z"/><path fill-rule="evenodd" d="M5.13 10.77c.07 0 .18-.03.28-.24.1-.2.8-1.94 1.13-2.78V7.4c0-.06.04-.16.2-.15h.1c.07 0 .24-.02.32-.16.09-.15.25-.09.25 0 0 .14.05.49.16.72.11.23.77 1.82 1.09 2.58.04.1.18.34.42.34.17 0 .16.27 0 .27H7.46c-.1 0-.12-.23.05-.23.2 0 .4-.12.27-.5-.1-.3-.25-.66-.32-.8H6.3l-.3.74c-.06.14-.1.45.16.52h.1c.12 0 .18.27 0 .27H5.1c-.07 0-.1-.06-.1-.1 0-.06.06-.14.13-.13zm1.3-1.67l.46-1.18.42 1.18h-.89z" fill="#019240"/><path d="M12.2 8.18V7l-.33.17A2.23 2.23 0 0011.2 7c-.8 0-1.4.45-1.4 1.18 0 .59.47.9.72.97.37.1 1.14.22 1.14.7 0 .4-.46.6-.71.58a1.06 1.06 0 01-1.05-.97c-.2 0-.18.16-.2.21V11l.31-.35c.03.05.42.26.94.24.84-.03 1.47-.38 1.47-1.22 0-.56-.3-.96-.7-1.03-.77-.16-1.15-.38-1.2-.57-.06-.18.05-.6.68-.56.64.02.76.56.75.83.12 0 .22-.1.25-.16z" fill="#084FA3"/><path d="M12.5 5.03c2.58.2 2.64 1.55 2.42 2.08-.23-1.23-1.92-1.52-2.73-1.55-2.7-.2-6.33.52-7.82.94.5-.23 4.93-1.73 8.14-1.47zm-6.93 7.94c-2.75-.23-2.7-1.67-2.47-2.24.25 1.31 2.04 1.64 2.9 1.67 2.89.2 6.79-.57 8.38-1.02-.53.25-5.38 1.87-8.81 1.59z" fill="#ED1E24"/></svg>