<!-- by TradingView --><svg width="18" height="18" viewBox="0 0 18 18" xmlns="http://www.w3.org/2000/svg"><path fill="#F0F3FA" d="M0 0h18v18H0z"/><path d="M14 9c0 1.53-.68 2.9-1.76 3.8-.81-.11-1.94-.68-2.56-2.25-.72-1.81-1.47-2.8-3.1-2.8-1.09 0-2.06.61-2.58.93A5 5 0 0 1 14 9Z" fill="#DC0E21"/><path d="M10.53 13.76c.4-.12.77-.3 1.12-.52-.74-.06-2.15-.74-2.34-2.25-.49-2.22-1.83-2.77-2.72-2.77-.79 0-1.92.56-2.59 1.13a5 5 0 0 0 .11.77c.3-.38.95-.74 1.73-.74 1.08 0 1.64.79 1.88 2.25.23 1.35 1.33 2.03 2.8 2.13Z" fill="#DC0E21"/><path d="M8.84 14a5 5 0 0 1-4.48-3.11c.3-.51.85-.89 1.53-.89 1.08 0 1.59 1.11 1.59 2.4 0 .85.77 1.37 1.36 1.6Z" fill="#DC0E21"/></svg>