<!-- by TradingView --><svg width="18" height="18" viewBox="0 0 18 18" xmlns="http://www.w3.org/2000/svg"><path fill="#F0F3FA" d="M0 0h18v18H0z"/><path d="M14 11H4V4.03c0-.02.01-.03.03-.03H14v.02L14 11Z" fill="#E2211C"/><path d="M12.65 7.76c-.02-.05-.03-.05-.04 0-.05.27-.07.52-.05.78l.05.63c.02.2.07.44.16.7.01.04.02.11.01.23 0 .08-.04.14-.12.16l-.17.05a.09.09 0 0 0-.05.03c-.07.1-.1.14-.2.15-.3.03-.5.04-.62.04a.7.7 0 0 1-.48-.17.1.1 0 0 1-.03-.05v-.07a2.94 2.94 0 0 0 .12-1.44.04.04 0 0 0-.03 0 5.63 5.63 0 0 1-1.57.07l-.01.03a6.3 6.3 0 0 0-.07 1.3l-.01.24c-.01.03-.03.07-.06.1a.16.16 0 0 1-.09.03c-.31.03-.6.03-.86.02a.64.64 0 0 1-.2-.05 1.73 1.73 0 0 0-.2-.06.15.15 0 0 1-.09-.07.17.17 0 0 1-.02-.12l.06-.32.04-.32c0-.21 0-.56.02-1.05a2.85 2.85 0 0 0-.09-.8.08.08 0 0 0-.03-.02.08.08 0 0 0-.07 0c-.14.11-.27.23-.42.23a.37.37 0 0 0-.18.07.09.09 0 0 1-.07.02c-.42-.06-.7.13-.82.56a12.48 12.48 0 0 1-.18.56c0 .01 0 .03.02.03.07.06.1.13.12.22v.07c-.07.16-.02.28.13.38.03.02.06.02.08-.01a.27.27 0 0 1 .13-.1c.02 0 .04 0 .06.02.2.23.37.64.25.93l-.02.03h-.03c-.35.05-.6-.17-.82-.44v-.02a.06.06 0 0 1 0-.05v-.01l.1-.08c.03-.02.03-.04.01-.06a.44.44 0 0 0-.13-.14.08.08 0 0 0-.06 0 .4.4 0 0 1-.2.01c-.3-.08-.43-.3-.37-.65v-.06a.13.13 0 0 0-.03-.05l-.17-.18a.1.1 0 0 0-.05-.03.68.68 0 0 1-.5-.36.04.04 0 0 1 0-.04c.16-.15.32-.28.49-.38a.08.08 0 0 1 .06-.01c.02 0 .03.01.05.03.1.14.15.3.15.5 0 .06.03.1.09.14.02 0 .03 0 .04-.02.09-.3.17-.64.23-1.02 0-.02 0-.03-.02-.03a1.12 1.12 0 0 1-.61-.17c-.12-.1-.11-.12.03-.1.2.03.4.02.63-.03.05-.01.07-.04.08-.1v-.6c0-.1.03-.3.11-.6.05-.19.19-.46.42-.83.2-.33.48-.55.83-.67.15-.05.44-.01.64.02.34.07.56.1.66.08.35-.07.65-.11.9-.14.8-.09 1.56.02 2.27.33.18.07.35.22.5.44.27.38.4.8.41 1.26l.01.37c.01.12.05.23.1.35l.19.38c.06.14.07.3.01.47l-.16.5c-.03.1-.07.11-.11.02a.78.78 0 0 1-.08-.4c.02-.26 0-.48-.07-.66Z" fill="#231815"/><path d="M6.3 7.17c.06.01.06 0 .02-.03-.15-.1-.21-.23-.2-.37.08-.47.25-.9.51-1.3.19-.28.43-.48.72-.59.17-.06.48-.03.7.01.31.06.5.08.57.07A12.1 12.1 0 0 1 10 4.8c.5.01.99.08 1.48.21.38.1.67.33.87.68.25.44.36.9.33 1.4 0 .13.03.26.1.41.07.17.23.37.23.56a1.22 1.22 0 0 1-.16.54.02.02 0 0 1-.02 0v-.02a1.55 1.55 0 0 1-.02-.36c0-.09 0-.2-.02-.31a2.08 2.08 0 0 0-.08-.3c-.06-.17-.1-.32-.11-.45l-.09-.77a.56.56 0 0 0-.2-.39h-.02l-.01.02h-.01a.04.04 0 0 0 0 .05c.1.08.14.22.16.42.08.71.09 1.27.02 1.66a10.58 10.58 0 0 0-.17 1.03c-.1.08-.26.1-.4.1l-.01.03v.01h.01c.11.03.25.03.4-.01h.03v.04l-.03.22-.01.02-.02.01a.5.5 0 0 1-.34.07.02.02 0 0 0 0 .01v.03c.13.04.23.05.3.03.08-.02.12 0 .12.08v.44c-.02.08-.06.11-.13.1-.05 0-.13-.03-.25-.07a.13.13 0 0 0-.14.04h-.06c-.07-.07-.16-.1-.27-.06-.02 0-.04 0-.05-.02a.23.23 0 0 0-.13-.1c-.03 0-.04-.02-.03-.05.15-.52.15-1.04.02-1.54a6.73 6.73 0 0 1-.15-.67c0-.03-.02-.04-.05-.03h-.02l-.02.02v.02c0 .23.05.44.14.64.04.09.01.14-.07.15a5.55 5.55 0 0 1-1.43.05l-.02-.02a.08.08 0 0 1-.01-.06l.08-.49v-.01l-.01-.02a.02.02 0 0 0-.03 0l-.02.02-.01.02c-.02.15-.06.32-.12.5 0 .01-.01.02-.04.01-.1-.04-.16-.05-.19-.04-.02 0-.02.01 0 .03.02.03.07.05.15.08.02 0 .04.02.04.04 0 .04 0 .08-.03.13 0 .03-.02.03-.05.03h-.06l-.02.03V9c0 .02 0 .02.02.02a.11.11 0 0 1 .07 0c.03 0 .03.02.03.05a6.57 6.57 0 0 0-.08.94s0 .02-.02.02a.05.05 0 0 1-.05 0c-.01-.01-.04-.01-.07 0-.04 0-.04.01 0 .03l.13.06c.02 0 .04.02.04.05.03.07.04.15.02.22 0 .02-.01.04-.03.05-.1.04-.18.02-.25-.06a.1.1 0 0 0-.14-.01l-.05.03h-.05c-.07-.09-.16-.11-.27-.07h-.06l-.1-.07c-.03-.02-.04-.04-.03-.07l.04-.27c0-.04.03-.05.06-.04a1.31 1.31 0 0 0 .2.03v-.03l-.13-.04c-.1-.04-.14-.11-.1-.23 0-.02.02-.03.04-.03.06 0 .11.01.16.03l.02-.02c.01-.02 0-.03-.01-.03l-.17-.03c-.02-.01-.03-.02-.04-.05a.38.38 0 0 1 0-.16l.02-.02.02-.02a.06.06 0 0 1 .05 0c.07.03.1.04.11.03.02-.04.01-.05-.03-.06-.1 0-.16-.04-.17-.1a21.64 21.64 0 0 1 0-.5.03.03 0 0 1 .03 0l.14.09.03-.01V8.7a.75.75 0 0 1-.24-.19 11.05 11.05 0 0 1-.12-.98.5.5 0 0 0-.05-.12c-.02-.03-.02-.03-.03 0l.03.17c0 .03 0 .04-.02.04a.59.59 0 0 0-.33.08h-.03l-.03-.04c-.03-.03-.04-.02-.04.01-.01.07-.04.12-.09.14-.02.01-.04 0-.05-.02l-.03-.11h-.04v.16c0 .03-.01.04-.04.05l-.09.04c-.03 0-.05 0-.04-.04v-.12c-.09-.1-.12-.09-.08.05 0 .04-.02.1-.07.18-.02.02-.05.03-.08.02 0 0-.02 0-.02-.02v-.03c0-.1-.04-.18-.14-.22a.08.08 0 0 0-.07 0c-.27.14-.65.24-.96.15-.02 0-.03-.02-.03-.05l.03-.15.02-.02a.03.03 0 0 1 .02 0l.09.02c.06 0 .07-.01.02-.06a.44.44 0 0 0-.09-.05.06.06 0 0 1-.02-.03V7.4c.01-.03.03-.04.06-.02l.1.05c.12-.02.12-.05 0-.09-.1-.04-.16-.1-.14-.2 0-.03.02-.04.04-.03l.14.05Z" fill="#9B8313"/><path d="m9.18 6-.2-.35a.9.9 0 0 0-.25-.3.48.48 0 0 0-.41-.05c-.24.07-.4.1-.47.1l-.03-.01c0-.01 0-.02.02-.02.15-.05.32-.16.46-.18.24-.03.47 0 .62.21a7.33 7.33 0 0 1 .4.63c.03.15-.1.28-.21.4l-.38.35c-.28.21-.73.22-.88-.16a.26.26 0 0 1-.02-.05c-.01-.07 0-.1.04-.09l.01.02c.1.24.26.35.48.34.13-.01.25-.08.38-.2l.42-.45a.17.17 0 0 0 .02-.2ZM6.86 6.68c-.02-.13-.1-.19-.21-.18-.03 0-.05-.02-.05-.05v-.02c0-.03 0-.04.03-.04.17 0 .27.1.3.27l-.01.02-.02.02h-.03l-.01-.01v-.01Z" fill="#231815"/><path d="M6.64 6.74c.06.01.11-.02.13-.06 0-.05-.03-.1-.1-.12-.05-.02-.11 0-.12.06-.01.05.03.1.09.12Z" fill="#231815"/><path d="M5.97 7.65v.04l-.04.02a.36.36 0 0 1-.11.03l-.04.01a.35.35 0 0 1-.12-.01.1.1 0 0 1-.04-.02l-.01-.03.36-.04ZM8.33 9.79c-.09-.05-.13-.1-.13-.17 0-.03.02-.04.04-.05l.03-.01c.02 0 .03-.02.02-.04a2.04 2.04 0 0 1-.05-.08c-.05-.1-.04-.15.02-.18.08-.02.08-.05 0-.09-.02 0-.03-.03-.03-.07v-.73c.01-.2-.02-.38-.05-.56-.02-.09 0-.1.08-.05l.02.08.08.65a5.21 5.21 0 0 1 .03 1.42c0 .09-.02.19-.06.31 0 .02-.02.03-.03.02a.99.99 0 0 0-.12-.07c-.03 0-.04-.02-.03-.04l.04-.23c0-.02.02-.04.04-.05l.1-.01.01-.02V9.8l-.01-.01ZM6.37 8.06h-.02l-.01-.01v-.02l.02-.01c.22-.01.44-.07.66-.18.04-.02.08-.01.11.02l.02.04c0 .03 0 .05-.03.06-.24.11-.5.14-.75.1ZM6.12 8.23a.23.23 0 0 0-.09-.06c-.03-.02-.05-.04-.05-.08v-.02c0-.04.02-.05.05-.04.16.08.34.13.55.14.02 0 .03.02.01.04-.07.09-.14.18-.19.3-.06.16-.13.43-.23.67l-.05.04c-.16 0-.27.1-.34.28 0 .02 0 .04.02.06a.7.7 0 0 1 .26.3l-.01.02h-.02c-.14.03-.33-.07-.34-.24 0-.09-.05-.11-.04-.21a.84.84 0 0 1 .04-.17c.01-.02.02-.03.05-.03h.11a.01.01 0 0 0 0-.02c-.08-.1-.11-.17-.09-.21.01-.03.03-.04.05-.03l.08.02c.01 0 .02 0 .03-.02v-.02l-.01-.02a.62.62 0 0 1-.1-.08.07.07 0 0 1 0-.07l.02-.07c0-.01.02-.02.03 0 .04.04.08.05.13.04.04 0 .04-.02 0-.05l-.1-.08c-.04-.03-.04-.06-.02-.1l.02-.03c.02-.03.04-.03.07-.02l.14.03c.02 0 .02 0 .02-.02v-.01l-.01-.03-.13-.04a.08.08 0 0 1-.04-.03.09.09 0 0 1-.01-.05v-.06c0-.04.02-.05.05-.04l.12.05c.03 0 .04-.01.02-.04ZM5.45 9c-.07-.09-.22-.07-.3-.12-.07-.04-.13-.1-.2-.17-.04-.03-.03-.06 0-.1l.29-.23c.03-.03.07-.03.1.01.07.09.1.16.1.29 0 .14.05.25.15.34l.02.02V9.13l-.02.02a.03.03 0 0 1-.03-.01 1.15 1.15 0 0 1-.11-.13Z" fill="#9B8313"/><path d="M5.2 8.47a.06.06 0 0 1 .09 0l.01.03a.28.28 0 0 1 .06.15c0 .02 0 .05-.02.07 0 .02-.02.03-.03.05l-.02.01a.12.12 0 0 1-.05.03h-.07a.2.2 0 0 1-.06-.04.26.26 0 0 1-.06-.06l-.02-.02a.07.07 0 0 1 0-.05.07.07 0 0 1 .01-.04l.16-.13Z" fill="#231815"/><path d="M5.19 8.6c.05-.02.08 0 .09.05 0 .01 0 .02-.02.03 0 .01-.01.02-.03.02-.05 0-.07-.01-.07-.05v-.02l.03-.02Z" fill="#E2211C"/><path d="M12.02 8.7c.04 0 .09-.03.15-.05.02-.01.04 0 .04.02l-.01.04-.03.01c-.12.03-.24.04-.36.03l-.01-.01v-.02c.12 0 .19 0 .22-.02ZM12.06 9.02c-.1.02-.16.01-.2-.01v-.04h.02a.7.7 0 0 0 .34-.07c.02 0 .02 0 .02.02v.02c-.03.03-.09.06-.18.08Z" fill="#231815"/><path d="M12.44 8.9s.03.13.05.39c0 .04 0 .06-.03.06s-.05-.02-.05-.06c0-.26.01-.4.03-.4ZM6.23 9.54c-.08-.05-.15-.06-.22-.02a.1.1 0 0 1-.11 0l-.01-.02c-.01 0-.02 0-.02-.02a.07.07 0 0 1 .02-.07c.17-.16.3-.15.4.04.04.05.04.1.02.15-.01.02-.02.02-.03 0l-.01-.02a.36.36 0 0 0-.04-.04ZM12.42 9.55c.01.06.04.11.07.1.02 0 .04-.05.03-.11-.01-.06-.04-.1-.06-.1-.03 0-.04.05-.04.11ZM6.68 10.17a.33.33 0 0 0-.04-.1.05.05 0 0 1 0-.06.15.15 0 0 1 .08-.07l.06.01c.17.17.24.38.22.64a.15.15 0 0 1-.05.1.13.13 0 0 1-.1.03.83.83 0 0 1-.52-.36.08.08 0 0 1-.01-.08c0-.01.01-.03.03-.03l.03-.02c.04 0 .08.02.12.05h.03l.01-.02v-.01l-.5-.6c-.02-.03-.01-.05.01-.06h.07l.54.59h.02v-.01ZM12.45 10.11V9.8c0-.04.02-.06.03-.08a.07.07 0 0 1 .06-.01c.03 0 .04.02.05.04l.09.27a.1.1 0 0 1 0 .07.09.09 0 0 1-.05.05l-.1.03c-.05.02-.08 0-.08-.06ZM11.3 10.3c.04.04.08.05.1.03.01-.02-.01-.06-.05-.1-.04-.03-.09-.04-.1-.02-.02.02 0 .06.05.1ZM8.17 10.34c.03.02.06.02.07 0 .02-.02 0-.06-.04-.08-.03-.02-.07-.02-.08 0 0 .02.01.06.05.08ZM11.58 10.4c.06.02.12 0 .12-.04 0-.03-.04-.07-.1-.08-.07 0-.12.01-.13.05 0 .03.05.07.11.08ZM8.47 10.47c.04.02.08.02.1 0 .01-.04 0-.08-.05-.1-.04-.03-.09-.03-.1 0-.02.03 0 .07.05.1ZM8.75 10.5c.07.02.12 0 .13-.04 0-.03-.04-.07-.1-.08-.07-.01-.13 0-.14.04 0 .03.05.07.11.08ZM9.04 10.43c.03-.03.05-.03.07-.02.02 0 .03.02.04.04a.04.04 0 0 1-.01.02h-.01l-.01.01h-.07l-.02-.01a.03.03 0 0 1 0-.03v-.01Z" fill="#9B8313"/><path d="M14 11v2.96c0 .03-.01.04-.04.04H4.03c-.02 0-.03-.01-.03-.03V11h10Z" fill="#231815"/><path fill="#D9D9D9" d="M5 12h8v1H5z"/></svg>