<!-- by TradingView --><svg width="18" height="18" viewBox="0 0 18 18" xmlns="http://www.w3.org/2000/svg"><path fill="#F0F3FA" d="M0 0h18v18H0z"/><path d="M7.32 4.47c.28-.04.55-.05.82-.03.16.01.37.06.49.16.1.1.12.2.04.34a1.2 1.2 0 0 0-.54-.15 5.28 5.28 0 0 0-2.02.38l-.07-.35h.02l.25-.1c.33-.12.66-.2 1.01-.25Z" fill="url(#a)"/><path d="M5.35 5.71a.22.22 0 0 1-.12-.27c0-.02.03-.06.03-.1h.03l.06.37Z" fill="#FCD3C2"/><path d="M6.91 4.45c.86-.3 1.8-.47 2.72-.45a2 2 0 0 1 1.05.26.4.4 0 0 1 .18.3.6.6 0 0 1-.13.35c-.08.1-.16.18-.25.25-.42.33-.95.58-1.44.75l-.34.11a8.63 8.63 0 0 1-2.4.37l-.24-.02-.27-.02h-.02l.01.34c-.22-.04-.49-.13-.62-.3a.49.49 0 0 1-.09-.23 8.98 8.98 0 0 1-.05-.3c-.02-.2.1-.39.24-.51 0 .02 0 .04-.02.06l-.01.03a.22.22 0 0 0 .12.27c.05.04.11.07.2.1.22.04.46.06.7.04a4.8 4.8 0 0 0 1.99-.55c.17-.1.32-.22.43-.36.08-.14.06-.25-.04-.34-.12-.1-.33-.15-.49-.16a4.74 4.74 0 0 0-2.1.37c.29-.14.58-.26.87-.36Z" fill="url(#b)"/><path d="M9.58 6.08c0 .03 0 .06.02.1l-.01.14c-.08-.06-.16-.1-.25-.14l.24-.1Z" fill="#BA2625"/><path d="M10.91 5.05a1 1 0 0 0-.05-.48.6.6 0 0 1-.13.34c-.08.1-.16.18-.25.25-.42.33-.95.58-1.44.75l-.34.11a8.62 8.62 0 0 1-2.4.37l-.24-.02-.27-.02h-.02l.01.34a6.8 6.8 0 0 0 1.99-.06c.32-.07.64-.14.96-.24l.61-.21.24-.1c.27-.12.52-.25.76-.41.17-.12.32-.25.45-.4l.12-.22Z" fill="url(#c)"/><path d="m4.4 7.55-.01-.01c-.11-.14-.12-.29-.02-.43v-.04l.02-.02a.01.01 0 0 1 .01 0l.07.38c.01.06-.01.1-.06.12Z" fill="#FCD3C2"/><path d="M12.82 5.87c0 .1 0 .19-.03.26-.05.12-.13.25-.24.37-.21.23-.46.44-.73.6-.42.26-.85.48-1.32.66l-.57.2a13.52 13.52 0 0 1-3 .64 9.17 9.17 0 0 1-1.66-.02 3.56 3.56 0 0 1-.75-.18v.32a.85.85 0 0 1-.37-.3 1.13 1.13 0 0 1-.09-.28c-.06-.24-.1-.43 0-.66.08-.15.18-.29.31-.41v.04c-.1.14-.1.29.02.43l.01.01.02.02c.25.2.63.26.96.27.57.02 1.14-.05 1.69-.18.74-.16 1.5-.43 2.11-.87.19-.13.32-.28.4-.47a.36.36 0 0 0 .02-.15.65.65 0 0 1-.02-.1c.27-.1.52-.24.76-.4.17-.12.32-.25.45-.4l.12-.22.36.02c.34.02.67.1.99.21.17.07.3.15.4.26.1.09.14.2.16.33Z" fill="url(#d)"/><path d="M12.91 6.19c-.01-.1-.04-.2-.09-.32 0 .1 0 .19-.03.26-.05.12-.13.25-.24.37-.21.23-.46.44-.73.6-.42.26-.85.48-1.32.66l-.57.2a13.52 13.52 0 0 1-3 .64 9.17 9.17 0 0 1-1.66-.02 3.56 3.56 0 0 1-.75-.18v.32c.24.11.48.18.74.22l.57.06a12.87 12.87 0 0 0 4-.6l.24-.08c.52-.18 1.03-.4 1.52-.66.31-.18.59-.37.83-.58.1-.08.19-.17.28-.29.14-.18.24-.4.21-.6Z" fill="url(#e)"/><path d="M4.53 9.43H4.5c-.13-.16-.12-.35-.01-.5v-.04h.02l.1.44-.01.03a.19.19 0 0 1-.08.07Z" fill="#FCD3C2"/><path d="M13.78 7.6a.94.94 0 0 1-.12.41c-.1.18-.24.35-.42.5-.54.48-1.22.83-1.9 1.1-.42.17-.85.32-1.29.45l-.56.16c-.36.08-.73.16-1.13.23a11.6 11.6 0 0 1-2.4.16l-.67-.07-.01.01.02.38c-.43-.09-.98-.27-1.11-.7a2.45 2.45 0 0 1-.1-.5c-.03-.32.19-.63.42-.84v.01l-.01.02c-.1.16-.12.35.01.5h.01a.1.1 0 0 0 .01.01v.02h.01c.27.21.62.27.96.3H6a8.63 8.63 0 0 0 2.18-.4 5.49 5.49 0 0 0 1.6-.76c.1-.08.2-.17.28-.27.52-.18 1.03-.4 1.52-.66.31-.18.59-.37.83-.58.1-.08.19-.17.28-.29.27.07.5.14.74.3.2.13.3.3.34.51Z" fill="url(#f)"/><path d="M13.87 7.96c0-.09-.04-.2-.1-.36a.93.93 0 0 1-.1.41c-.11.18-.25.35-.43.5-.54.48-1.22.83-1.9 1.1-.42.17-.85.32-1.29.45l-.56.16c-.36.08-.73.16-1.13.23a11.6 11.6 0 0 1-2.4.16l-.67-.07-.01.01.02.38.12.03.03.03c.01-.03.05-.04.09-.01l.41.04a12.95 12.95 0 0 0 3.51-.37l.55-.14.53-.16a12.1 12.1 0 0 0 2.02-.88c.23-.14.45-.3.67-.46.3-.26.69-.64.64-1.05Z" fill="url(#g)"/><path d="M13.23 9a2 2 0 0 1 .33.16c.2.13.32.3.35.5 0 .16-.04.29-.1.4-.18.31-.49.58-.8.78-.34.24-.71.44-1.1.61-.58.26-1.18.46-1.8.62l-.8.19c-.73.15-1.46.22-2.2.22l-.44-.02a4.29 4.29 0 0 1-.85-.14l-.02.32a1.92 1.92 0 0 1-.24-.12.7.7 0 0 1-.38-.53c-.05-.2-.09-.38-.05-.54.05-.18.16-.35.29-.5l.03.04a.34.34 0 0 0 .05.36c0 .01 0 .02.02.02 0 .01 0 .02.02.03.34.26.86.27 1.28.27a7.53 7.53 0 0 0 2.68-.62c.25-.11.48-.24.7-.39.13-.08.24-.19.34-.31a12.08 12.08 0 0 0 2.02-.88c.23-.14.45-.3.67-.46Z" fill="url(#h)"/><path d="M5.54 10.98a8.54 8.54 0 0 1 .04.34.16.16 0 0 1-.06.05s-.02 0-.02-.02a.34.34 0 0 1-.05-.36c.02-.03.05-.04.09-.01Z" fill="#FCD3C2"/><path d="M14 10c0-.07-.04-.18-.09-.33 0 .15-.04.28-.1.4-.18.3-.49.57-.8.77-.34.24-.71.44-1.1.61-.58.26-1.18.46-1.8.62l-.8.19c-.73.15-1.46.22-2.2.22l-.44-.02a4.28 4.28 0 0 1-.85-.14l-.02.32c.14.05.27.1.4.12.3.06.63.1.97.1h.5c.5-.05 1.1-.1 1.66-.2l.78-.18.56-.16.73-.25a11.6 11.6 0 0 0 .86-.37c.35-.17.67-.36.97-.58.36-.26.8-.67.77-1.13Z" fill="url(#i)"/><path d="M12.27 11.7c.17.1.26.22.27.39a.7.7 0 0 1-.1.29c-.12.15-.27.28-.45.4-.25.16-.5.3-.78.4l-.55.18-.5.13a6.03 6.03 0 0 1-1.4.12l-.4-.04v.01l-.01.36a1.35 1.35 0 0 1-.34-.12.58.58 0 0 1-.32-.4 3.22 3.22 0 0 1-.06-.34c0-.08 0-.15.04-.23h.15l.03.01c0 .03.03.05.06.08.06.05.14.09.23.11.25.06.5.06.76.04a3.83 3.83 0 0 0 1.61-.55.73.73 0 0 0 .19-.18c0-.02 0-.03-.03-.04l.73-.25a11.78 11.78 0 0 0 .87-.37Z" fill="url(#j)"/><path d="M12.6 12.55c.04-.13-.02-.32-.06-.46a.7.7 0 0 1-.1.29c-.12.15-.27.28-.45.4-.25.16-.5.3-.78.4l-.55.18-.5.13a6.03 6.03 0 0 1-1.4.12l-.4-.04v.01l-.01.36a5.73 5.73 0 0 0 1.81-.05l.5-.11c.56-.16 1.16-.4 1.6-.77.15-.13.28-.28.34-.46Z" fill="url(#k)"/><defs><linearGradient id="a" x1="6.04" y1="4.8" x2="8.72" y2="4.8" gradientUnits="userSpaceOnUse"><stop stop-color="#FBD9C9"/><stop offset="1" stop-color="#B13A2F"/></linearGradient><linearGradient id="b" x1="5.58" y1="5.34" x2="10.85" y2="4.99" gradientUnits="userSpaceOnUse"><stop stop-color="#B12625"/><stop offset=".58" stop-color="#EC2528"/><stop offset="1" stop-color="#EE4E27"/></linearGradient><linearGradient id="c" x1="5.77" y1="6.55" x2="10.91" y2="5.94" gradientUnits="userSpaceOnUse"><stop stop-color="#B12726"/><stop offset=".21" stop-color="#E77255"/><stop offset="1" stop-color="#FCE0D2"/></linearGradient><linearGradient id="d" x1="4.45" y1="7.87" x2="12.82" y2="7.93" gradientUnits="userSpaceOnUse"><stop stop-color="#AE2625"/><stop offset=".51" stop-color="#E22527"/><stop offset="1" stop-color="#EE4E27"/></linearGradient><linearGradient id="e" x1="12.54" y1="7.02" x2="4.59" y2="9.04" gradientUnits="userSpaceOnUse"><stop stop-color="#FCE0D2"/><stop offset=".78" stop-color="#EA7758"/><stop offset="1" stop-color="#AE2726"/></linearGradient><linearGradient id="f" x1="4.26" y1="9.88" x2="13.77" y2="9.4" gradientUnits="userSpaceOnUse"><stop stop-color="#AD2624"/><stop offset=".43" stop-color="#DA2627"/><stop offset="1" stop-color="#EE4E27"/></linearGradient><linearGradient id="g" x1="13.42" y1="8.7" x2="5.37" y2="11.05" gradientUnits="userSpaceOnUse"><stop stop-color="#FCE0D2"/><stop offset=".79" stop-color="#EA7758"/><stop offset="1" stop-color="#B62725"/></linearGradient><linearGradient id="h" x1="5.34" y1="11.9" x2="13.9" y2="11.18" gradientUnits="userSpaceOnUse"><stop stop-color="#AC2624"/><stop offset=".41" stop-color="#DA2728"/><stop offset="1" stop-color="#EE4E27"/></linearGradient><linearGradient id="i" x1="13.8" y1="10.76" x2="5.87" y2="12.68" gradientUnits="userSpaceOnUse"><stop stop-color="#FCE0D2" stop-opacity=".88"/><stop offset=".76" stop-color="#EA7758" stop-opacity=".97"/><stop offset="1" stop-color="#AD2725"/></linearGradient><linearGradient id="j" x1="7.63" y1="13.16" x2="12.54" y2="13.02" gradientUnits="userSpaceOnUse"><stop stop-color="#B62625"/><stop offset=".43" stop-color="#E92528"/><stop offset="1" stop-color="#EE4E27"/></linearGradient><linearGradient id="k" x1="12.61" y1="13.04" x2="8.39" y2="14.15" gradientUnits="userSpaceOnUse"><stop stop-color="#FCE0D2"/><stop offset=".69" stop-color="#EA7758"/><stop offset="1" stop-color="#C12626"/></linearGradient></defs></svg>