<!-- by TradingView --><svg width="18" height="18" viewBox="0 0 18 18" xmlns="http://www.w3.org/2000/svg"><path fill="#F0F3FA" d="M0 0h18v18H0z"/><path fill-rule="evenodd" d="m9.65 13.28-.02.01L9 15V15H9v-.01a1074.76 1074.76 0 0 0-.65-1.72 4.33 4.33 0 0 1-3.64-3.64L3 9V9l1.7-.61.02-.04a4.33 4.33 0 0 1 3.61-3.6c.03-.01.03-.03.04-.05a7452.19 7452.19 0 0 1 .63-1.67l.62 1.69a.03.03 0 0 0 .02.02 4.33 4.33 0 0 1 3.62 3.6c0 .04.02.04.04.05h.01a5489.24 5489.24 0 0 0 1.67.63l-1.7.61a.04.04 0 0 0-.02.04 4.3 4.3 0 0 1-3.62 3.62ZM7.55 7.5l1.43-3.95H9v5.42h-.01L7.55 7.52Zm.65-2.37A3.97 3.97 0 0 0 6.24 6.2h.01l1.39.45a.03.03 0 0 0 .03-.02 338.57 338.57 0 0 1 .53-1.5Zm3.55 1.06a368.15 368.15 0 0 0-1.42.46 330.29 330.29 0 0 1-.54-1.52c.07 0 .13.02.2.04a3.95 3.95 0 0 1 1.76 1.02Zm-5.56.03a3.85 3.85 0 0 0-1.04 1.98l1.5-.54c.01 0 .02-.01.01-.03l-.45-1.4a.01.01 0 0 0-.02 0Zm5.62 0a3.96 3.96 0 0 1 1.04 1.98l-.1-.03a2233.21 2233.21 0 0 0-1.41-.54l.45-1.4h.02Zm-.32.25-1.08.35v.01l.2.54.89-.88v-.01h-.01ZM6.83 7.6 6.5 6.51l.89.88v.01l-.54.2v-.01ZM9.06 9h5.38v-.03c-.06 0-.12-.03-.17-.05a2461.62 2461.62 0 0 1-3.79-1.36l-.13.12a256.96 256.96 0 0 1-1.3 1.29l.01.03Zm-1.55 1.45L3.57 9.02V9h5.4v.02l-1.45 1.43Zm1.5 4 1.44-3.96-1.44-1.47H9v5.42h.01Zm2.32-4.1v-.01l1.52-.55h.01a3.95 3.95 0 0 1-1.06 1.98l-.47-1.43Zm-4.68-.02a265.2 265.2 0 0 0-1.5-.53 3.97 3.97 0 0 0 1.06 1.97l.45-1.41a.02.02 0 0 0 0-.03h-.01Zm4.51.08.35 1.08v.01l-.89-.88v-.01l.54-.2Zm-4.65 1.1 1.08-.34-.2-.55-.89.89Zm1.68 1.36a3.96 3.96 0 0 1-1.95-1.06 306.17 306.17 0 0 0 1.43-.45l.54 1.49a.01.01 0 0 1 0 .01h-.02Zm3.57-1.05v-.02a187.07 187.07 0 0 1-1.42-.46 264.78 264.78 0 0 0-.53 1.53c.75-.17 1.4-.52 1.95-1.05Z" fill="#102B63"/></svg>