<!-- by TradingView --><svg width="18" height="18" viewBox="0 0 18 18" xmlns="http://www.w3.org/2000/svg"><path fill="#F0F3FA" d="M0 0h18v18H0z"/><path d="M11.68 11.38c.75-.36.84-1.17.8-1.53a3.1 3.1 0 0 1-.44 3.17 5.26 5.26 0 0 1-3.1.97 5.03 5.03 0 0 1-4.27-2.42 4.49 4.49 0 0 1-.65-2.03 3.04 3.04 0 0 0 2 1.9c.41.13 1.58.24 2.1.28.88.04 2.8.03 3.56-.34Z" fill="url(#a)"/><path d="M9.72 5.48C9.03 5 8.3 5.33 8 5.55a3.27 3.27 0 0 1 2.95-1.18 5.2 5.2 0 0 1 2.4 2.18 5.06 5.06 0 0 1-1.35 6.5 3 3 0 0 0 .6-2.68c-.1-.43-.58-1.5-.81-1.98-.4-.77-1.37-2.44-2.07-2.91Z" fill="url(#b)"/><path d="M5.59 10.13c-.06.83.6 1.27.94 1.41-1.77-.22-2.34-1.4-2.5-1.92-.08-.62-.04-2.1.67-3.15a4.98 4.98 0 0 1 6.25-2.06c-1.3-.24-2.2.44-2.6.81-.32.3-1 1.25-1.3 1.69-.46.72-1.4 2.39-1.46 3.22Z" fill="url(#c)"/><defs><linearGradient id="a" x1="4.68" y1="10.24" x2="12.34" y2="10.05" gradientUnits="userSpaceOnUse"><stop stop-color="#898886"/><stop offset=".38" stop-color="#C3C2C0"/><stop offset="1" stop-color="#52534D"/></linearGradient><linearGradient id="b" x1="12.24" y1="12.12" x2="8.22" y2="5.58" gradientUnits="userSpaceOnUse"><stop stop-color="#019F42"/><stop offset=".27" stop-color="#A2C63E"/><stop offset=".54" stop-color="#0AA542"/></linearGradient><linearGradient id="c" x1="10.04" y1="4.67" x2="6.39" y2="11.35" gradientUnits="userSpaceOnUse"><stop stop-color="#EE600A"/><stop offset=".38" stop-color="#F48C43"/><stop offset="1" stop-color="#EC600B"/></linearGradient></defs></svg>