<!-- by TradingView --><svg width="18" height="18" viewBox="0 0 18 18" xmlns="http://www.w3.org/2000/svg"><path fill="#001976" d="M0 0h18v18H0z"/><path d="M13 7c-.97.26-1.5.83-1.92 1.6l-1.7 3.1A2.63 2.63 0 0 1 7 13c.7-.22 1.27-.51 1.85-1.59.59-1.07 1.35-2.44 1.75-3.2.2-.38.53-.7.96-.9.43-.22.93-.33 1.44-.3Z" fill="#fff"/><path d="M8 10.33a.16.16 0 0 1-.1-.04.19.19 0 0 1-.06-.08.21.21 0 0 1 0-.11.2.2 0 0 1 .04-.1.16.16 0 0 1 .09-.05l.1.01c.03.01.05.04.07.07a.2.2 0 0 1 .02.18.2.2 0 0 1-.04.06.17.17 0 0 1-.06.04.15.15 0 0 1-.06.02ZM8 9l-1 2h.52l.2-.35h.55l.2.35H9L8 9ZM6 10.33a.16.16 0 0 1-.1-.04.19.19 0 0 1-.06-.08.21.21 0 0 1 0-.11.2.2 0 0 1 .04-.1.16.16 0 0 1 .09-.05l.1.01c.03.01.05.04.07.07a.2.2 0 0 1 .03.1.2.2 0 0 1-.05.14.17.17 0 0 1-.05.04.15.15 0 0 1-.07.02ZM6 9l-1 2h.52l.2-.35h.55l.2.35H7L6 9Z" fill="#fff"/><path fill-rule="evenodd" d="M9 14A5 5 0 1 0 9 4a5 5 0 0 0 0 10Zm0-.3a4.7 4.7 0 1 0 0-9.4 4.7 4.7 0 0 0 0 9.4Z" fill="#fff"/></svg>