<!-- by TradingView --><svg width="18" height="18" viewBox="0 0 18 18" xmlns="http://www.w3.org/2000/svg"><path fill="#F0F3FA" d="M0 0h18v18H0z"/><path d="M5.63 6.9c-.09-.05-.19-.1-.28-.13a.56.56 0 0 1-.17-.1.95.95 0 0 0-.18-.13l-.56-.32c-.08-.05-.1-.14-.15-.22h.93c.03 0 .06 0 .08.02l.05.07.28.8Z" fill="#D99B5A"/><path d="M9.08 6c-.13.13-.24.29-.31.44a.08.08 0 0 0 .01.09L9 7v1l-1-.16v-.77C8 7.03 8 7 7.96 7H6.49c-.04 0-.07-.04-.07-.08v-.86c0-.01 0-.03.02-.04L6.47 6h2.6Z" fill="#5C84C2"/><path d="M10.12 6c0 .06.02.1.05.12.1.05.14.17.2.23a11.68 11.68 0 0 1 .38.44l.2.02c-.14-.04-.23.04-.3.19H8.99l-.21-.47a.07.07 0 0 1-.01-.09c.07-.15.18-.3.3-.44h1.05Z" fill="#83A5D5"/><path d="M11.95 7.1a.54.54 0 0 1-.2-.24.08.08 0 0 0-.03-.03.18.18 0 0 0-.15-.01l-.04-.01a.19.19 0 0 0-.1-.08c-.08-.02-.14-.09-.22-.13a2.65 2.65 0 0 1-.28-.14 1.83 1.83 0 0 0-.24-.13 1.38 1.38 0 0 1-.25-.15 1.21 1.21 0 0 0-.12-.07c-.05-.02-.09-.07-.12-.11h1.3a.1.1 0 0 1 .06.02.1.1 0 0 1 .03.04l.36 1.04Z" fill="#D26E7B"/><path d="m15.62 6.94-.14-.12a.06.06 0 0 0-.04-.02c-.19.02-.37-.02-.55-.11-.06-.03-.11-.04-.16-.01a.03.03 0 0 0-.02.03v.02c0 .02 0 .04.03.03a.3.3 0 0 1 .16.04c.17.1.31.22.42.4l.04.02.14.04-.37.95c-.03.02-.06.01-.08-.03a.12.12 0 0 0-.1-.06 6.04 6.04 0 0 1-.7-.11l-.08.02h-.03a.1.1 0 0 1-.02-.03l.69-1.95c0-.02.01-.03.02-.03l.04-.02h1.06c.07 0 .08.03.06.1l-.37.84Z" fill="#D7588B"/><path d="M4.3 6c.03.08.06.17.14.22l.56.32.18.12c.05.05.1.08.17.1l.28.13.07.17a.36.36 0 0 0-.16.07l-.07.15c-.05.1-.09.2-.12.31 0 .02-.02.03-.03.03H5.3l-.42-.2a.48.48 0 0 0-.24-.15c-.26-.11-.5-.25-.72-.41l.3-.83c0-.02.02-.03.04-.03h.03Z" fill="#A97A45"/><path d="M10.2 6c.03.04.07.09.11.11l.13.07c.09.07.17.11.25.15l.24.13.28.14c.08.04.14.1.22.13.04.01.08.04.1.08h-.59l-.19-.02a11.68 11.68 0 0 0-.39-.44c-.05-.06-.09-.18-.2-.23-.02-.01-.04-.06-.04-.12h.08Z" fill="#5C84C2"/><path d="m15.62 6.94-.12.32-.14-.04a.07.07 0 0 1-.04-.03c-.1-.17-.25-.3-.42-.4a.3.3 0 0 0-.16-.03c-.02 0-.03 0-.03-.03v-.02c0-.01 0-.02.02-.03.05-.03.1-.02.16 0 .18.1.36.14.55.12.01 0 .03 0 .04.02l.14.12Z" fill="#E399BA"/><path d="M10.94 6.8h.6l.03.02c.02.07 0 .13-.1.19a6.8 6.8 0 0 0-.56.4 8.34 8.34 0 0 1-.1-.28.17.17 0 0 0-.05-.1L10.65 7c.07-.15.16-.23.3-.2Z" fill="#A6B8E0"/><path d="M11.95 7.1c.06.13.12.27.17.43l.14.44c.18.48.36.97.52 1.47.1.32.25.65.36.98.02.04.05.06.1.07.37 0 .66.12.87.38l-.1.24a3.82 3.82 0 0 0-.22-.1.36.36 0 0 0-.4.09l-.4.32-.22.2a.7.7 0 0 1-.24.14 42.65 42.65 0 0 1-.4-1.05c-.14-.47-.3-.93-.5-1.38l-.04-.13a7.6 7.6 0 0 1-.45-1.12l-.23-.67.57-.4c.08-.06.11-.12.09-.2.05-.01.1 0 .15.02.02 0 .03.02.03.03.05.1.11.18.2.24Z" fill="#E1B086"/><path d="M3.92 6.86c.23.16.46.3.72.4a6 6 0 0 1-.05.36 24.16 24.16 0 0 0-.72 1.96l-.33.9c-.1.32-.26.72-.45 1.21a4.6 4.6 0 0 0-.1.27.3.3 0 0 1-.13.04h-.65l.03-.04c.02 0 .03-.01.02-.03v-.07l.08-.44c.01-.03 0-.07-.01-.1-.02-.03-.05-.05-.1-.04l.43-1.09.24-.7a4.8 4.8 0 0 1 .32-.77c.05-.23.17-.52.34-.94.06-.12.11-.28.18-.46l.18-.46Z" fill="#ECD379"/><path d="m7.06 10.58-.78-.03a.38.38 0 0 1-.24-.09H6v.06l-.05-.11a.04.04 0 0 0-.04-.03 5.29 5.29 0 0 0-.64-.03 683.94 683.94 0 0 1-1.06.02.07.07 0 0 1-.03-.06v-.03l.28-.8c0-.02.02-.04.04-.05a.13.13 0 0 1 .08-.03h.92c.09-.06.13-.11.13-.17a3.8 3.8 0 0 0-.15-.9c-.06-.19-.1-.4-.14-.62 0-.03-.03-.06-.04-.09h.02l.03-.03a2.5 2.5 0 0 1 .19-.46.36.36 0 0 1 .16-.07l1.36 3.52Z" fill="#E1B086"/><path d="m5.3 7.62.04.09c.04.23.08.43.14.61a3.72 3.72 0 0 1 .15.91c0 .06-.04.11-.13.17.05-.09.06-.15.04-.2a2.62 2.62 0 0 0-.11-.23 16.71 16.71 0 0 1-.55-1.54l.42.19Z" fill="#F5D59D"/><path d="M9 8v.31H8v-.47l1 .17Z" fill="#A6B8E0"/><path d="m14.12 8 .02.04h.03c.04-.03.06-.04.08-.03a6.04 6.04 0 0 0 .76.13l.04.04c.02.04.05.05.08.03a11.91 11.91 0 0 1-.31.84l-.26.65c-.05.13-.07.25-.13.38l-.32.79c-.21-.26-.5-.39-.87-.38l.88-2.5Z" fill="#E399BA"/><path d="M9 8.31v2.2c-.03-.1-.09-.05-.1.05-.04.18-.1.36-.2.56l-.1.37a.73.73 0 0 1-.11.21c-.01.02-.02.02-.04 0a.42.42 0 0 1-.07-.1 12.6 12.6 0 0 1-.27-.9.53.53 0 0 1-.05-.16c0-.02-.01-.02-.03-.01-.02.01-.03.05-.03.1V8.31h1Z" fill="#D99B5A"/><path d="M9 10.52v1.44c0 .02-.02.04-.03.04h-.54c0-.04 0-.1.03-.12a.05.05 0 0 0 .02-.06l-.02-.02-.02-.01a.34.34 0 0 1-.18-.13.66.66 0 0 0-.12-.12L8 11.4v-.79c0-.05.01-.08.03-.1.02 0 .03 0 .03.02l.05.15.05.14c.1.38.17.64.22.78 0 .02.03.05.07.1h.04a.74.74 0 0 0 .1-.22l.11-.37c.09-.2.15-.38.19-.56 0-.05.02-.08.05-.1.02-.02.03-.02.04 0l.02.06Z" fill="#A97A45"/><path d="m7.06 10.58.51 1.38c.01.01 0 .04-.01.04h-.99a.07.07 0 0 1-.06-.04 8.63 8.63 0 0 1-.51-1.5h.04c.07.06.15.09.24.1.25 0 .51 0 .78.02Z" fill="#D7588B"/><path d="m14.01 11.11-.28.8c0 .03-.02.05-.04.06a.13.13 0 0 1-.08.03h-.85c-.16 0-.24-.1-.23-.24a.7.7 0 0 0 .24-.15 5.25 5.25 0 0 1 .61-.51.36.36 0 0 1 .4-.08c.08.02.16.06.23.1Z" fill="#F5D59D"/><path d="M2.22 12h-.16l-.03-.01a.05.05 0 0 1-.03-.04v-.03l.24-.64c.04 0 .07 0 .09.05.02.02.02.06.01.1a7.55 7.55 0 0 1-.1.53l-.02.04Z" fill="#D26E7B"/><path d="M8.45 12h-.4c-.02 0-.05-.05-.05-.08v-.55l.14.13.13.13c.05.07.11.12.19.14l.02.01a.06.06 0 0 1 .02.06l-.02.03c-.03.02-.04.1-.03.13Z" fill="#E399BA"/></svg>