<!-- by TradingView --><svg width="18" height="18" viewBox="0 0 18 18" fill="none" xmlns="http://www.w3.org/2000/svg">
<rect width="18" height="18" fill="#F0F3FA"/>
<path d="M8.99126 6.41776C8.9906 6.41659 8.98966 6.41562 8.98853 6.41495C8.9874 6.41428 8.98612 6.41392 8.98482 6.41392C8.98352 6.41392 8.98224 6.41428 8.98111 6.41495C8.97998 6.41562 8.97904 6.41659 8.97838 6.41776L5.54091 12.9849C5.53549 12.995 5.52724 13 5.51618 13H4.03121C4.02615 13 4.02116 12.9987 4.01668 12.9963C4.0122 12.9939 4.00836 12.9903 4.00549 12.986C4.00262 12.9817 4.00081 12.9767 4.00022 12.9715C3.99962 12.9663 4.00026 12.961 4.00207 12.9561C4.02489 12.8957 4.05312 12.8334 4.08677 12.7693C5.55085 9.96862 7.01627 7.16878 8.48306 4.36976C8.59757 4.15168 8.769 3.97891 9.01599 4.00209C9.21001 4.02035 9.35479 4.12008 9.45033 4.30128C10.1553 5.64016 10.8574 6.9781 11.5567 8.3151C11.558 8.31772 11.5586 8.32066 11.5585 8.3236C11.5583 8.32655 11.5574 8.32939 11.5558 8.33182C11.5543 8.33425 11.5521 8.33616 11.5495 8.33737C11.547 8.33857 11.5442 8.339 11.5414 8.33863C10.8936 8.26348 10.4786 8.87591 10.3861 9.4606C10.3841 9.47325 10.3779 9.47617 10.3675 9.46938C9.72036 9.04939 9.05224 9.49572 8.90249 10.2023C8.8345 10.5223 8.87437 10.8307 9.02209 11.1276C9.42797 11.9437 10.4308 11.8626 10.7479 11.0212C10.7784 10.9397 10.8081 10.8573 10.837 10.774C10.8418 10.7609 10.8496 10.7585 10.8604 10.7669C11.4957 11.2617 12.2675 10.8867 12.4962 10.1594C12.4971 10.1565 12.4988 10.1539 12.5011 10.152C12.5034 10.1501 12.5062 10.1489 12.5092 10.1486C12.5121 10.1483 12.5151 10.1489 12.5177 10.1503C12.5203 10.1518 12.5225 10.1539 12.5239 10.1566L13.9987 12.9835C13.9996 12.9852 14 12.9871 14 12.989C14 12.991 13.9994 12.9929 13.9985 12.9945C13.9975 12.9962 13.9962 12.9975 13.9946 12.9985C13.9929 12.9995 13.9911 13 13.9892 13H12.4535C12.4481 13 12.4429 12.9985 12.4384 12.9957C12.4339 12.993 12.4302 12.989 12.4277 12.9842L11.7227 11.6199C11.7216 11.6178 11.7199 11.6161 11.7179 11.6149C11.7159 11.6137 11.7136 11.6131 11.7113 11.6132C11.709 11.6133 11.7068 11.6141 11.7049 11.6155C11.703 11.6169 11.7015 11.6188 11.7006 11.621C11.2734 12.6379 10.2387 13.3087 9.18539 12.8553C8.46781 12.5466 7.99349 11.8257 7.85051 11.0493C7.60454 9.71099 8.3306 8.10089 9.79794 8.00994C9.80115 8.00973 9.80425 8.0087 9.80697 8.00694C9.80969 8.00518 9.81194 8.00274 9.8135 7.99987C9.81505 7.99699 9.81587 7.99376 9.81588 7.99049C9.81588 7.98721 9.81507 7.984 9.81353 7.98114L8.99126 6.41776Z" fill="#036D15"/>
<path d="M10.7632 9.58352C10.7623 10.0977 11.0908 10.5152 11.4969 10.5159C11.903 10.5166 12.2329 10.1004 12.2338 9.58618C12.2346 9.07199 11.9061 8.65456 11.5001 8.65382C11.094 8.65309 10.7641 9.06933 10.7632 9.58352Z" fill="#CBE83D"/>
</svg>
