<!-- by TradingView --><svg width="18" height="18" viewBox="0 0 18 18" xmlns="http://www.w3.org/2000/svg"><path fill="#F0F3FA" d="M0 0h18v18H0z"/><path d="M6.58 9.72a.03.03 0 0 0-.01-.03h-.01a2.23 2.23 0 0 1-1.69-.85c-.03-.04-.02-.05.02-.05.24.04.5.04.8 0 .02 0 .03-.02.05-.03a.18.18 0 0 0 .04-.06v-.02a.12.12 0 0 0 0-.09.09.09 0 0 0-.02-.03 2.08 2.08 0 0 1-2.54-1.02c-.04-.07-.03-.09.03-.07.34.1.69.13 1.03.1.03 0 .06-.04.1-.1v-.03c0-.09-.03-.13-.09-.13a7 7 0 0 1-.61-.04C2.58 7.13 2.13 6.21 2 5.03V5h.01a.02.02 0 0 1 .02 0 7.53 7.53 0 0 0 3.73 1.8l.04.05c.32.54 1.14 1.59 1.73 1.53.1-.01.24-.1.39-.24.2-.19.4-.41.64-.66.34-.35.73-.5 1.18-.43l.18.03c.14.04.27.06.4.03.2-.06.6-.13.75.11.01.03 0 .05-.02.05-.16 0-.25.02-.28.03-.3.12-.56.32-.78.6-.12.14-.3.43-.19.61.42.7 2.07-1.18 2.32-1.53.07-.1.13-.15.17-.16a7.95 7.95 0 0 0 3.68-1.8c.02-.03.03-.02.03.02a5.2 5.2 0 0 1-.1.55c-.2.97-.7 1.53-1.52 1.69-.07.01-.3.03-.7.04-.06 0-.09.03-.09.1v.04c0 .03 0 .05.02.07l.06.03c.35.02.7 0 1.07-.07.06 0 .07.02.03.07-.68.87-1.53.95-2.5.97-.03 0-.06.02-.08.06a2.3 2.3 0 0 0-.03.06c.02.08.06.12.11.13.23.04.51.05.83.02.05 0 .06.01.02.06-.53.66-1.16.82-1.94.85h-.25c-.46.03-.82.04-1.26.16-.2.05-.36.12-.49.21-1.13.77-1.26 2.55-.26 3.54.13.12.26.2.4.25.13.04.28.05.45.05.03 0 .03 0 0 .01-.4.1-.82.07-1.25-.07-1.11-.4-1.81-1.25-2.1-2.58a2.55 2.55 0 0 1 .16-1.57Zm3.9 3.83a.2.2 0 0 1 .1 0h.01v.04l-.01.02c-.6.22-1.06.2-1.38-.09a2 2 0 0 1-.61-1.54c0-.36.1-.66.3-.89.06-.08.07-.06.05.04-.13.47-.14.92-.02 1.34.21.75.78 1.2 1.45 1.12l.1-.04Zm.54-1.2a1.85 1.85 0 0 1-.04.13c-.3.45-.71.61-1.22.49a.9.9 0 0 1-.18-.09l-.16-.07c-.04 0-.04 0-.02.03.15.24.34.36.58.38.5.05.84-.2 1.03-.72a.27.27 0 0 0 .01-.15Z" fill="#DA0B01"/></svg>