<!-- by TradingView --><svg width="18" height="18" viewBox="0 0 18 18" xmlns="http://www.w3.org/2000/svg"><path fill="#F0F3FA" d="M0 0h18v18H0z"/><path d="M8.62 7h.76L11 11h-.78l-.36-.9H8.13l-.36.9H7l1.62-4Zm1.05 2.52L9 7.85l-.67 1.67h1.34Z" fill="#005D99"/><path fill-rule="evenodd" d="M3.02 10.92c.3 1.27 3.22 1.45 6.52.39 3.3-1.06 5.73-2.95 5.44-4.23-.3-1.27-3.22-1.45-6.52-.39-3.3 1.06-5.73 2.95-5.44 4.23Zm.37-.29c.25 1.2 2.98 1.45 6.09.55 3.1-.9 5.42-2.62 5.17-3.82-.26-1.2-2.99-1.45-6.1-.55-3.1.9-5.42 2.62-5.16 3.82Z" fill="#F61A29"/></svg>