<!-- by TradingView --><svg width="18" height="18" viewBox="0 0 18 18" xmlns="http://www.w3.org/2000/svg"><path fill="#F0F3FA" d="M0 0h18v18H0z"/><path d="M10.68 8h-.19c.31-.37 1.17-.83 1.6-.62.55.27.91 1.67.91 2.06C13 11.39 11.84 14 8.8 14c-.56 0-.88-.7-.96-1.04.12-.3.33-1.05.32-.96-.02.11-.04.42.1.42.11 0 .48-.56.54-.67.75-1.22 1.84-2.64 1.88-2.72.18-.32.32-.53.32-.76 0-.18-.21-.26-.32-.27Z" fill="url(#aleom0goq)"/><path d="M5.07 8.88C5.32 6.96 7.75 4.28 9 3l.82.89.17 1.56c-.15.02-.55.14-.55.05 0-.1-.01-.2-.1-.2-.07 0-.15.11-.18.17-.67.96-1.94 3.05-2.18 3.4-.3.43-.39.67-.39.83 0 .2.19.28.28.29h.4l-1.98.02a3.5 3.5 0 0 1-.23-1.14Z" fill="url(#bleom0goq)"/><path d="M5 9.75c0-.33.03-.75.08-.92 0 .68.4 1.17.58 1.17H8.2c.15 0 .28.13.29.29l-.01.12C8.25 11.71 8 12.5 8 12.9c0 .66.51.94.8 1.11C5.26 13.63 5 10.16 5 9.75Z" fill="url(#cleom0goq)"/><path d="M9.53 4.79c0-.7-.3-1.49-.52-1.79.74.76 2.42 2.59 3.15 3.83.84 1.45.84 2.43.84 2.62-.18-.98-.89-1.45-1.22-1.45H9.27C9.1 8 9 7.87 9 7.71l.01-.08.44-2.17a4 4 0 0 0 .08-.67Z" fill="url(#dleom0goq)"/><defs><linearGradient id="aleom0goq" x1="12.65" y1="8.62" x2="7.85" y2="13.27" gradientUnits="userSpaceOnUse"><stop stop-color="#156B00"/><stop offset="1" stop-color="#88C700"/></linearGradient><linearGradient id="bleom0goq" x1="7.53" y1="3.01" x2="7.53" y2="10.02" gradientUnits="userSpaceOnUse"><stop stop-color="#009EE0"/><stop offset="1" stop-color="#004AB0"/></linearGradient><linearGradient id="cleom0goq" x1="6.91" y1="8.83" x2="6.91" y2="14" gradientUnits="userSpaceOnUse"><stop stop-color="#00CDFF"/><stop offset="1" stop-color="#0087FF"/></linearGradient><linearGradient id="dleom0goq" x1="9.39" y1="7.35" x2="12.47" y2="7.53" gradientUnits="userSpaceOnUse"><stop offset=".06" stop-color="#81E700"/><stop offset="1" stop-color="#4FBC00"/></linearGradient></defs></svg>