<!-- by TradingView --><svg xmlns="http://www.w3.org/2000/svg" width="18" height="18"><path fill="#F0F3FA" d="M0 0h18v18H0z"/><path d="M13.55 8.01a25.15 25.15 0 00-3.73.7c-.87.24-2.18.66-2.87.9-.61.23-2.23.99-2.28.98-.02 0-.07-.07 0-.13-.16.12 2.16-2.25 6.33-3.03V7H3v5a18.92 18.92 0 018-1.69v-1.1c1.66-.7 1.98-.73 5-1.34-.25 0-.26-.13-2.45.14 0 0 .02 0 0 0z" fill="#145298"/><path d="M15.96 7.88a11.25 11.25 0 00-4.72.12c-1.62.31-2.95.7-2.95.7s-.1 0-.01-.06a11.18 11.18 0 014.06-1.26c.06 0 0-.08 0-.08-.38.03-.76.05-1.12.11-2.02.33-3.5 1.03-4.38 1.52-.06.03.15-.12-1.1.66 0 0-.77.58-.82.64-.08.09.63-.27 1.14-.47.47-.19 1.73-.6 2.01-.69a29.62 29.62 0 013.08-.67h.05s.76-.14.91-.18c.24-.05 1.5-.22 1.52-.22 1.5-.16 2.33-.12 2.33-.12z" fill="#ACB1D1"/></svg>