<!-- by TradingView --><svg width="18" height="18" viewBox="0 0 18 18" xmlns="http://www.w3.org/2000/svg"><path fill="#F0F3FA" d="M0 0h18v18H0z"/><path d="m10.76 6.75.56-.07c.03 0 .04.01.04.05l-.2.85c-.01.03-.02.04-.04.03l-.53-.06c-.02 0-.04 0-.05.04a61.25 61.25 0 0 0-.67 3.05c-.09.42.3.43.52.33.03-.01.04 0 .04.04l-.03.64c0 .04-.01.06-.04.07-.96.52-2.45.45-2-1.4.22-.9.43-1.79.63-2.69 0-.04-.01-.06-.05-.05l-.45.05c-.04 0-.05-.01-.04-.05l.2-.87c.02-.02.03-.04.06-.03l.44.06c.03 0 .06-.01.06-.05l.17-.98c0-.04.03-.06.06-.07a9.46 9.46 0 0 0 1.74-.63v.04l-.46 1.64c-.01.05 0 .07.04.06Z" fill="#171647"/><path d="M7.66 12.52h6.63l-.16.38c-.01.03-.04.1-.07.1h-8.1c-.03 0-.05-.02-.05-.05l-.16-2.9c0-.03-.02-.05-.05-.05H4.12c-.03 0-.06.02-.08.05L2.98 12H2c1.33-2.22 2.58-4.6 3.76-6.94.01-.03.04-.06.07-.06h1.4c.03 0 .05.03.05.07l.38 7.45ZM5.7 6.94v-.02h-.05l-1.1 2.03c0 .02 0 .05.03.05h1.18l.02-.03-.08-2.03Z" fill="#171647"/><path d="M12.81 11.54c-.9.77-2.49.63-2.04-1.2.29-1.21 1.18-1.44 2.21-1.72.32-.1.6-.53.39-.9-.34-.57-1.17.23-1.42.56l-.02.01h-.03l-.01-.02v-.02c0-.27-.02-.54-.08-.8 0-.03 0-.05.02-.06.91-.6 1.52-.99 2.54-.68.52.15.72.54.6 1.16l-.61 2.76c-.02.06-.02.15-.02.29 0 .03 0 .06.03.08.1.08.2.1.32.04.04-.02.05 0 .04.04l-.1.51a.1.1 0 0 1-.05.07c-.52.37-1.3.57-1.7-.11-.02-.03-.04-.04-.07-.01Zm-.47-.7c.24.17.44.07.51-.25l.31-1.34c.02-.08 0-.1-.06-.06l-.48.25a.14.14 0 0 0-.07.07c-.17.37-.27.76-.29 1.18 0 .07.03.12.08.16Z" fill="#171647"/></svg>