<!-- by TradingView --><svg width="18" height="18" viewBox="0 0 18 18" xmlns="http://www.w3.org/2000/svg"><path fill="#F0F3FA" d="M0 0h18v18H0z"/><path d="M9 3c.65 0 1.3.14 1.93.42.05.02.07.06.07.12v1.02l-.01.01h-.04a3.7 3.7 0 0 0-1.94-.53 3.7 3.7 0 0 0-1.96.55h-.02L7 4.56V3.55c0-.06.02-.1.06-.12A4.7 4.7 0 0 1 9 3Zm0 10.95a4.97 4.97 0 0 0 3.23-8.71c-.08-.08-.23-.2-.23-.24V3.85s1.48.85 2.25 2.24A6.01 6.01 0 0 1 9 15a6.01 6.01 0 0 1-5.23-8.92A5.34 5.34 0 0 1 6 3.89v1.13l-.27.24a4.97 4.97 0 0 0 3.26 8.7Zm-.06-7.07h.12A180.34 180.34 0 0 1 11 8.02V6.8l-.03-.02A190.11 190.11 0 0 0 9 5.61h-.06a220.8 220.8 0 0 0-1.93 1.2L7 6.82v1.21h.01a.01.01 0 0 0 .01 0l1.92-1.16Zm.06.78.05.01A198.06 198.06 0 0 1 11 8.85l.01.03v1.21h-.01a175.2 175.2 0 0 0-2-1.16h-.05A170.33 170.33 0 0 0 7 10.1V8.86l.02-.02A211.26 211.26 0 0 1 9 7.66ZM8.94 11l.06-.01h.06A188.6 188.6 0 0 1 11 12.14V10.9l-.02-.02A215.77 215.77 0 0 0 9 9.72h-.06a184.37 184.37 0 0 0-1.93 1.2l-.01.02v1.2a.01.01 0 0 0 .02 0L8.94 11Z" fill="#C1191E"/></svg>