<!-- by TradingView --><svg width="18" height="18" viewBox="0 0 18 18" xmlns="http://www.w3.org/2000/svg"><path fill="#F0F3FA" d="M0 0h18v18H0z"/><path d="m14.79 7.97.21.52c-1.35-.62-2.86-1.13-4.11-1.93-.65.98-1.25 2.8-1.25 3 0 .16.06.3.09.36a7.3 7.3 0 0 0-.57-.35c-.04-.01-.73.52-1.07.8.02-.14.05-.4 0-.4a12.85 12.85 0 0 0-1.38.88l.63-.93-1.65.63.4-.32c-.23-.09-1.35.48-1.88.77l.24-.45-1.48.31.2-.2L2 11l8.94-5 3.85 1.97Z" fill="url(#a)"/><path d="M12.5 7.33 14 11h-.17a.7.7 0 0 1-.65-.43l-.39-.9h-1.12c0-.37.3-.67.66-.67h.18L12 7.8l-1.15 2.77a.7.7 0 0 1-.66.43H10l1.5-3.67c.17-.44.83-.44 1 0Z" fill="#3D6C2A"/><defs><linearGradient id="a" x1="15" y1="8.5" x2="2" y2="8.5" gradientUnits="userSpaceOnUse"><stop stop-color="#C9D6C3"/><stop offset=".26" stop-color="#6E935C"/><stop offset=".57" stop-color="#305F00"/></linearGradient></defs></svg>