<!-- by TradingView --><svg width="18" height="18" viewBox="0 0 18 18" xmlns="http://www.w3.org/2000/svg"><path fill="#F0F3FA" d="M0 0h18v18H0z"/><path d="M6.07 6.68a.5.5 0 0 0-.16-.13c.22-.22.43-.44.63-.68.15-.18.27-.38.36-.6a1 1 0 0 0 .08-.32c0-.13.03-.26.06-.36.05-.18.14-.3.3-.4.24-.15.54-.24.8-.16.22.07.36.31.36.55 0 .12-.02.3 0 .43.03.28.16.53.37.75l.34.35c.32.33.71.48 1.18.49a1.03 1.03 0 0 1 1.01.92c.03.3-.09.52-.33.69a1 1 0 0 1-1.3-.24.9.9 0 0 1-.19-.52 1.5 1.5 0 0 0-.39-.98 60.6 60.6 0 0 0-.6-.6c-.4-.41-.93-.47-1.43-.21-.19.1-.37.24-.53.43l-.56.59Z" fill="#215169"/><path d="M12.13 6.55a.27.27 0 0 0-.16.13l-.6-.64c-.2-.2-.41-.34-.66-.44-.13-.05-.28-.07-.4-.1a1.01 1.01 0 0 1-.64-.38.8.8 0 0 1-.17-.58c.03-.37.3-.6.69-.5a1.25 1.25 0 0 1 .82.93c.1.37.29.71.58 1.02l.54.56Z" fill="#14366D"/><path d="M5.77 5.77c-.19.18-.4.32-.65.4-.09.04-.24.08-.3-.03-.06-.13.47-.64.58-.74.1-.1.6-.64.75-.57.1.06.07.2.03.3-.09.24-.23.46-.41.64ZM12.6 5.4c.22.2.4.38.54.62.04.06.04.11 0 .16-.03.04-.1.04-.14.03-.3-.05-.57-.24-.77-.44-.2-.2-.4-.48-.44-.77-.01-.05-.01-.11.03-.14.04-.04.1-.04.16 0 .23.13.4.32.62.53Z" fill="#1C476A"/><path d="M12.13 6.55c.3.24.6.4.95.46l.35.08c.28.11.43.33.52.62.06.2.08.37-.03.54a.57.57 0 0 1-.43.24h-.5c-.27.05-.5.16-.7.35-.27.25-.48.42-.64.7 0-.14-.02-.27-.06-.4l.37-.36c.18-.17.3-.3.35-.38.2-.33.2-.74.06-1.1a2.01 2.01 0 0 0-.4-.62c.04-.06.1-.11.16-.13Z" fill="#245867"/><path d="M6.07 6.68c-.07.06-.13.14-.2.23-.14.18-.23.36-.3.56-.02.1-.03.26-.08.38-.1.3-.32.5-.62.6-.25.09-.58.06-.76-.15-.13-.15-.13-.34-.07-.53a1 1 0 0 1 .63-.7c.15-.05.34-.07.47-.1a2 2 0 0 0 .77-.42.5.5 0 0 1 .16.13Z" fill="#14366D"/><path d="m6.26 8.92-.34.37c-.1.1-.18.2-.22.27-.2.34-.23.7-.07 1.07.08.21.22.42.4.61l.66.72c.16.18.38.32.63.42.18.07.39.07.57.14.31.12.56.4.6.74.07.4-.2.86-.67.71-.32-.1-.6-.37-.74-.65-.08-.16-.1-.34-.15-.51a2.3 2.3 0 0 0-.43-.75c-.17-.2-.35-.4-.54-.59a1.8 1.8 0 0 0-1.12-.5 1.72 1.72 0 0 1-.29-.05.67.67 0 0 1-.43-.41 1.94 1.94 0 0 1-.1-.34c-.06-.28.03-.49.27-.62a.7.7 0 0 1 .38-.08h.2c.34 0 .64-.14.89-.39l.29-.3a1.53 1.53 0 0 0 .54-1.17c0-.3.12-.55.36-.76.42-.36 1.07-.35 1.36.17.2.34.1.76-.18 1.04-.1.1-.25.19-.43.24-.13.04-.26.04-.38.05a1.62 1.62 0 0 0-1.06.57Z" fill="#215169"/><path d="M11.59 9.14c.04.13.06.26.06.4-.14.25-.21.54-.23.86-.01.14-.06.29-.16.44-.1.16-.23.29-.39.38a.84.84 0 0 1-1.04-.14.93.93 0 0 1-.12-1.1.95.95 0 0 1 .61-.46c.15-.03.36-.02.5-.04.29-.05.54-.16.77-.34Z" fill="#18406C"/><path d="m11.9 11.61-.12-.16.22-.24c.19-.2.33-.44.41-.7.04-.12.06-.3.1-.44a.92.92 0 0 1 .78-.6c.26-.02.47.06.61.25.09.1.12.24.09.4-.06.32-.26.68-.58.79a1.7 1.7 0 0 1-.28.05c-.49.06-.9.28-1.23.65Z" fill="#275E66"/><path d="m11.78 11.45.12.16-.36.38c-.17.2-.31.42-.42.67-.1.23-.14.55-.22.78a.77.77 0 0 1-.13.25c-.14.16-.4.25-.6.29a.52.52 0 0 1-.44-.08.6.6 0 0 1-.23-.44v-.24a1.3 1.3 0 0 0-.24-.86 6.47 6.47 0 0 0-.43-.49 1.53 1.53 0 0 0-1.02-.54c-.13-.01-.3 0-.42-.03-.4-.09-.73-.43-.8-.84a.8.8 0 0 1 .3-.8.95.95 0 0 1 1.3.18c.13.15.2.3.21.48l.03.28c.05.34.19.64.43.9.1.13.24.27.38.43.17.19.3.31.4.37.48.29 1.05.18 1.48-.17.08-.06.18-.17.32-.32l.34-.36Z" fill="#18406C"/><path d="M5.77 12.22c.2.2.36.46.44.74v.1c0 .1-.07.14-.16.1a7.23 7.23 0 0 1-1.21-1.2c-.05-.1 0-.17.1-.17h.1c.28.07.53.23.73.43ZM12.6 12.6l-.33.33c-.12.1-.23.19-.32.23-.07.03-.12.02-.16-.05-.01-.04 0-.14.01-.2.08-.25.23-.5.42-.69.2-.19.44-.34.7-.42.05-.01.15-.02.19 0 .07.03.09.08.05.15-.04.1-.12.2-.23.32l-.33.33Z" fill="#1C476A"/></svg>