<!-- by TradingView --><svg width="18" height="18" viewBox="0 0 18 18" xmlns="http://www.w3.org/2000/svg"><path fill="#0468BC" d="M0 0h18v18H0z"/><path d="M11.19 7.91v-1.9c0-.14.04-.16.13-.05.08.1.17.18.26.25.1.09.19.17.27.28a8.5 8.5 0 0 0 1.34 1.49c.31.26.6.5.7.8.2.47-.14.72-.46.95l-.07.06c-.2.15-.36.4-.5.63l-.1.13c-.18.28-.54.62-.73.8-.17.16-.3.3-.37.46-.3.6-.44 1.31-.5 1.96-.02.16.05.24.2.23l.15-.01c.14-.01.21-.1.21-.24 0-.29.05-.59.17-.9.37-1.06.99-1.96 1.84-2.7.11-.1.24-.18.4-.25l.17-.08c.26-.11.5-.22.63-.46.16-.3.01-.51-.22-.72a13.47 13.47 0 0 1-1.73-1.76 10.77 10.77 0 0 0-2.2-2.37c-.57-.4-1-.46-1.7-.5-.15-.02-.3.03-.45.09l-.3.08c-.33.07-.6.19-.97.34l-.28.11c-.15.06-.28.1-.37.12-.03 0-.05.02-.06.05-.06.2-.11.33-.18.4l-.84 1.07c-.15.2-.3.33-.47.43-.44.24-.86.4-1.28.46a.91.91 0 0 0-.44.16c-.73.6-.41 1.45-.05 2.18.01.03.03.04.07.03.66-.2.67-1.2.65-1.8 0-.03.01-.06.04-.07l.22-.11a8.3 8.3 0 0 1 1-.45c.31-.1.56-.21.68-.43l.13-.22c.17-.3.3-.54.51-.75.35-.35.79-.63 1.33-.83.6-.22 2.12-.6 2.3.4.3 1.68.45 3.39.42 5.13 0 .18-.06.2-.19.08A6.68 6.68 0 0 1 9.18 7.8 3.2 3.2 0 0 1 9 6.9c.01-.23.1-.44.2-.66.13-.29.26-.6.2-.96 0-.04-.03-.06-.06-.06-.2-.02-.35.05-.44.2-.08.13-.24.42-.47.88-.1.19-.14.35-.13.5 0 .26.05.55.15.87.23.77 1.24 3.48 2.07 3.49.26 0 .56-.1.88-.3.01 0 .02 0 .03-.02a.1.1 0 0 0 0-.05l-.15-1.43c-.05-.52-.08-1-.09-1.45Zm-4.41-1.7-.02.02-.2.6v.06l.05.05h.01a2.02 2.02 0 0 0 .65.12c.09 0 .17-.02.22-.05a.2.2 0 0 0 .12-.12.22.22 0 0 0-.02-.17.64.64 0 0 0-.14-.2 2.05 2.05 0 0 0-.57-.34h-.01a.07.07 0 0 0-.06 0l-.03.03Zm-.9 3.47.4-.34a.08.08 0 0 1 .08-.02c.23.06.5.16.78.29.18.08.3.11.5.03.77-.32 1.59.76 1.88 1.38.2.43.1 1.09-.03 1.57a.05.05 0 0 1-.02.03.04.04 0 0 1-.04 0c-.06-.02-.13-.1-.13-.17-.05-.76-.26-1.74-1-2.08a1.1 1.1 0 0 0-.56-.05l-.1.02c-.26.03-.6.07-.88 0a8.03 8.03 0 0 1-.22-.06c-.3-.08-.62-.17-.94-.1-.54.12-.98.16-1.32.11-.17-.02-.37-.16-.6-.4-.02-.03-.02-.05 0-.08.29-.28.58-.2.87-.1.22.06.43.12.64.05a53.32 53.32 0 0 1 .5-.15c.01 0 .03 0 .04.02l.05.05c.03.03.06.03.1 0Zm4.53 2.84.07.2c.01.04 0 .07-.01.09a.98.98 0 0 0-.24.58c0 .04 0 .08.02.12l.07.08a.21.21 0 0 0 .2.03c.2-.08.3-.25.33-.51.06-.51-.1-1.08-.52-1.34a.06.06 0 0 0-.06 0 .07.07 0 0 0-.02.02l-.01.03c0 .25.08.49.17.7Z" fill="#FDFDFD"/></svg>