<!-- by TradingView --><svg width="18" height="18" viewBox="0 0 18 18" xmlns="http://www.w3.org/2000/svg"><path fill="#F0F3FA" d="M0 0h18v18H0z"/><path d="M11.76 6.95c-.33.18-.31.6-.26.8-.3.12-1.04.2-1.37.22l.86-.54-1.53.59-.82-.05 1.73-.66c-.5.18-1.43.46-1.9.6l-.55-.21c.8-.2 1.82-.57 2.23-.72-.46.16-1.85.5-2.5.65a3.6 3.6 0 0 1-.79-.13 7.97 7.97 0 0 0 2.88-.73c-1.17.46-2.84.6-3.52.61l-.34-.15c1.66-.08 2.84-.4 3.38-.62-.84.3-2.83.43-3.79.46L5.3 6.9c2.58-.13 3.57-.45 3.75-.59a16.2 16.2 0 0 1-4.08.45l-.29-.3c.34 0 1.23 0 2.02-.04.98-.04 2.44-.47 3.43-.43.79.04 1.41.65 1.63.95Z" fill="#2C914B"/><path fill-rule="evenodd" d="M13.44 6.7c-.12-.01-.16.09-.17.14-.02-.08-.03-.25.15-.25.13 0 .19.07.24.13a.3.3 0 0 0 .12.1c.1.03.37.06.5.07 0-.28-.23-.43-.35-.48.05.1.05.23.04.3a.94.94 0 0 0-.8-.44c-.24 0-.53.1-.64.14.48-.02.68.05.72.1-1.25-.1-1.66.83-1.68 1.12a.7.7 0 0 0 .17.5c-.08-.85.59-1.21.93-1.29-.77.18-.84 1.38-.84 1.45 0 .07.15.11.2.11l.02.01c.04.03.08.06.14-.48.06-.53.41-.81.58-.89-.43.28-.43 1.05-.43 1.2 0 .13-.12.24-.17.28.11.03.22.1.26.13.14-.06.14-.16.14-.35 0-.1 0-.23.03-.4.06-.36.28-.54.38-.58-.32.16-.3.95-.29 1.2v.06c0 .11-.09.18-.14.2.12.02.23.2.27.28.1-.02.12-.11.12-.16 0-.94.12-1.25.19-1.29-.06.1-.05.91-.05 1.25V9c0 .15-.06.21-.1.23v.3c.4.02.36-.77.33-1.33l-.01-.22v.08c.08.43.19 1.05.14 1.3-.04.22-.3.35-.43.39v.36c.6-.16.81-.7.62-1.18-.15-.38-.14-.7-.12-.81 0 .1.03.31.12.38.12.1.46.34.7.34.19 0 .27-.25.29-.38-.08 0-.27-.01-.39-.05-.14-.04-.19-.13-.14-.2.02-.03.1 0 .2.06.14.06.3.13.4.1.13-.06.18-.22.19-.3-.12-.07-.17-.18-.14-.2l.05.02c.02.03.06.06.11.07.1.02.1-.05.1-.11s-.32-.36-.48-.5V7.2c-.02-.07-.1-.13-.2-.2l-.04-.02c-.05-.04-.17-.04-.28-.05-.1 0-.18 0-.25-.02s-.1-.06-.15-.1c-.04-.05-.08-.1-.16-.1Zm.8.55-.25.09.27.16-.03-.25Zm-.94.22c.21.03.64.18.62.52v.1c0-.06-.05-.2-.26-.34a3.62 3.62 0 0 1-.36-.28Z" fill="#2C914B"/><path fill-rule="evenodd" d="M3.82 11.28c.03-.58-.53-.77-.82-.8.27.09.4.45.43.65a.62.62 0 0 0-.19-.24c-.08.27-.1.7.46.7.33 0 2.88-2.71 2.88-2.71s-.1.16-.1.22v.04c.02.12.05.43-.24.67-.27.21-.72.48-.91.58l-.05 1.04.31.57h1.23c-.08-.32-.34-.4-.58-.48-.24-.06-.22-.36-.14-.56.03-.09.14-.11.3-.15.19-.04.45-.1.68-.33.3-.3.82-.6 1.08-.74-.18.1-.6.45-.82.63v.66l.7.97h1.2c0-.05-.04-.19-.1-.3-.05-.1-.32-.18-.5-.23l-.12-.04c-.12-.04-.29-.38-.31-.54-.02-.13.5-.66.77-.9-.06-.11-.28-.17-.39-.18.49-.02 1.03.21 1.43.39.2.08.36.15.47.17.27.06.43.02.48 0v-.25c-.39-.14-.61-.5-.67-.65.13.29.61.5.84.58l-.3 1.54.4.41h1.14c0-.32-.43-.52-.62-.57-.15-.03-.14-.2-.12-.27l.74-1.24-.43.97.91 1.11h1.28c0-.15-.1-.24-.22-.34a3.24 3.24 0 0 1-.07-.07.69.69 0 0 0-.28-.12.95.95 0 0 1-.42-.2c-.21-.2-.31-.58-.29-1.22.03-.63 0-1.01-.57-1.33a2.3 2.3 0 0 1-.84-.8c-.53.23-2.07.26-2.67.26-.6 0-1.75.13-2.2.38-.3.16-1.13 1.1-1.76 1.82-.34.38-.62.7-.72.78-.23.2-.28.16-.28.12Zm1.96-.93c.18-.1.58-.38.75-.7a.9.9 0 0 0 .13-.49c0-.06 0-.12.04-.17.1-.14.52-.66 1.68-.66.92 0 1.47-.06 1.63-.09-.27.07-.98.21-1.63.2-.82 0-1.32.17-1.59.62.01.07 0 .27-.1.45-.11.23-.57.82-.9.84Zm3.05-.7c.2 0 .69.04 1.03.2.44.2.58.27.72.32-.12-.03-.43-.1-.72-.23-.36-.16-.98-.3-1.03-.3Zm2.43.7-.27 1.22c.08.05.25.2.27.34h.12c-.04-.1-.14-.3-.24-.34l.12-1.22Zm-5.84 1.04.1-.68v.68c.13.14.23.4.26.52h-.1c-.01-.15-.18-.4-.26-.52Z" fill="#2C914B"/></svg>