<!-- by TradingView --><svg width="18" height="18" viewBox="0 0 18 18" xmlns="http://www.w3.org/2000/svg"><path fill="#F0F3FA" d="M0 0h18v18H0z"/><path d="M6.97 11.1 5.9 12.97l-.03.03a.08.08 0 0 1-.03.01h-1.8a.07.07 0 0 1-.03-.03.07.07 0 0 1 0-.07l5.1-8.86.03-.03.04-.01h1.41l.05.01.02.04L13 12.91a.07.07 0 0 1-.02.06l-.02.02H11.29a.07.07 0 0 1-.03-.05l-.48-1.82a.07.07 0 0 0-.02-.03.08.08 0 0 0-.05-.02H7.03l-.03.01a.07.07 0 0 0-.03.03Zm2.64-4.43c-.02-.09-.05-.09-.1-.01L7.93 9.4a.05.05 0 0 0 0 .05l.02.01.02.01h2.26a.1.1 0 0 0 .08-.03.09.09 0 0 0 .01-.08l-.7-2.7Z" fill="#1284C2"/></svg>