<!-- by TradingView --><svg xmlns="http://www.w3.org/2000/svg" width="18" height="18"><path fill="#F4F5F0" d="M0 0h18v18H0z"/><path d="M5.4 5.24c.74-1.07 1.64-.86 2.1-.12.4.63 1.44 2.85 1.78 4.5.14.8.08 1.21-.2 1.59-.17.22-.52.42-.89.43a.98.98 0 01-.85-.44 5.48 5.48 0 01-.13-.2c-.36-.56-1.12-1.75-2-1.62-.38.06-.57.48-.71 1.03-.2.79-.55.93-.87.92a.64.64 0 01-.15-.03c-.43-.12-.63-.58-.35-1.4.45-1.33 1.6-3.69 2.27-4.66zm.5 2.23c.06.43.5.72.87.75.31.03.52-.2.5-.5-.01-.38-.32-1.04-.76-1.05-.35 0-.66.46-.61.8zm7 2.03c-.23.23-.46.45-.42.76.05.29.34.37.65.46.41.12.86.25.86.88 0 .65-.52 1.2-1.08 1.5a3.5 3.5 0 01-1.65.39c-.55 0-1.03-.14-1.23-.45-.33-.52-.08-1.28.45-2.14.43-.7.39-1.29.1-1.92-.1-.21-.23-.42-.36-.62-.21-.33-.43-.67-.5-1.06-.08-.6.23-1.2.66-1.6.49-.44 1.84-1.35 2.4-.64.34.45-.07.98-.46 1.5-.33.42-.65.83-.5 1.17.1.26.4.27.7.29.26 0 .53.02.69.18.1.1.16.24.17.4.01.1 0 .2-.04.3-.07.24-.26.42-.44.6z"/></svg>