<!-- by TradingView --><svg width="18" height="18" viewBox="0 0 18 18" xmlns="http://www.w3.org/2000/svg"><path fill="#F0F3FA" d="M0 0h18v18H0z"/><path d="M11 5.67H6C6.62 5.12 8.13 4 9.24 4c1.1 0 1.63 1.12 1.76 1.67ZM5.27 11 10 13.86c-.99.16-3.23.31-4.27-.32-1.05-.63-.74-1.96-.46-2.54ZM10 13.24 14 10c-.12.93-.59 2.98-1.47 3.7-.89.71-2.06 0-2.53-.46ZM12.77 10l-1.31-5c.7.44 2.2 1.58 2.49 2.69.29 1.1-.67 2-1.18 2.31ZM6 6.03 4.63 11c-.3-.83-.84-2.78-.54-3.87.3-1.1 1.4-1.2 1.91-1.1Z" fill="#1F1E1C"/><circle cx="9" cy="9" r="3" fill="#1F4DA2"/></svg>