<!-- by TradingView --><svg width="18" height="18" viewBox="0 0 18 18" xmlns="http://www.w3.org/2000/svg"><path fill="#F0F3FA" d="M0 0h18v18H0z"/><path d="M11.5 6 9.65 3.34a.82.82 0 0 0-1.33 0L6.5 6h1.14l.98-2.17a.32.32 0 0 1 .57-.03L10.43 6h1.07ZM6 6.5 3.34 8.35a.82.82 0 0 0 0 1.33L6 11.5v-1.14l-2.17-.98a.32.32 0 0 1-.03-.57L6 7.57V6.5Zm8.66 3.15L12 11.5v-1.07l2.2-1.24a.32.32 0 0 0-.03-.57L12 7.64V6.5l2.66 1.82a.82.82 0 0 1 0 1.33ZM6.5 12l1.85 2.66a.82.82 0 0 0 1.33 0L11.5 12h-1.14l-.98 2.17a.32.32 0 0 1-.57.03L7.57 12H6.5Z" fill="#C5142A"/></svg>