<!-- by TradingView --><svg width="18" height="18" viewBox="0 0 18 18" xmlns="http://www.w3.org/2000/svg"><path fill="#F0F3FA" d="M0 0h18v18H0z"/><path d="M14 4H4v7.68l1.96-2.7c.14-.2.44-.67.52-.98h.97c0 .15.02.49.09.65l.6 2.02.33-.41-.52-1.67A4.51 4.51 0 0 0 7.73 8h1.12c0 .1.01.32.05.4l.28 1.01.77-1.05c.05-.07.14-.24.12-.36H11c-.11.12-.35.38-.4.47l-1.15 1.58.14.53 1.38-1.93c.1-.15.31-.5.35-.65h.92c0 .14.04.47.1.65.37 1.34 1.14 4.08 1.34 4.35h-1.16c0-.09-.03-.32-.1-.56L12 11h-1.88l-.3.37.3.97c.05.16.18.52.29.66H9.28a2.56 2.56 0 0 0-.16-.62c-.11.13-.36.42-.4.62h-.89c-.02-.16-.1-.5-.17-.66-.12.15-.37.49-.39.66H6.4c.1-.1.33-.34.4-.46l.62-.7-.23-.84H5.34L4 12.76V14h10V4ZM6.75 9.48a2.2 2.2 0 0 1-.05-.53c-.05.18-.64 1.08-.92 1.5H7l-.26-.97Zm4.72-.53c0 .1 0 .34.06.53l.25.97h-1.23c.29-.42.87-1.32.92-1.5ZM8.35 11.4l.32-.45.23.66-.33.5-.22-.7Z" fill="#00008F"/><path d="M13.16 4h.7l-2.8 3.67h-.7L13.15 4Z" fill="#F70E31"/></svg>