<!-- by TradingView --><svg width="18" height="18" viewBox="0 0 18 18" xmlns="http://www.w3.org/2000/svg"><path fill="#F0F3FA" d="M0 0h18v18H0z"/><path d="M12.83 14C9.66 14 5.47 9.13 5 7c3.1 4.4 6.01 5.1 6.84 5.1.83 0 .96-.69.96-.98 0-.23-.08-.69-.15-.94.47.75 1.35 2.29 1.35 2.85 0 .71-.5.97-1.17.97Z" fill="url(#a)"/><circle cx="5" cy="6" r="1" fill="url(#b)"/><path d="M7.45 14c1.19-.38 2.6-1.5 3.75-3.15 1.84-2.62 2.36-5.54 1.14-6.52-1.22-.99-3.7.33-5.54 2.95A9.15 9.15 0 0 0 5 11.9c.14-.77.5-1.61 1.05-2.4C7.3 7.75 9.04 6.93 9.96 7.68c.93.75.68 2.78-.56 4.53A5.64 5.64 0 0 1 7.45 14Z" fill="url(#c)"/><path d="M10.42 11.84A7.18 7.18 0 0 1 7.45 14a5.64 5.64 0 0 0 1.95-1.79c1.24-1.75 1.49-3.78.56-4.53-.92-.75-2.67.07-3.9 1.82-.56.79-.92 1.64-1.06 2.4a9.15 9.15 0 0 1 1.95-4.83c1.27-1.44 2.7-2.3 3.78-2.3.38 0 .74.1 1.02.33.45.37.67 1 .66 1.8-.02 1.33-.68 3.09-1.83 4.72a12 12 0 0 1-.16.22Z" fill="url(#d)"/><defs><linearGradient id="a" x1="14" y1="10.5" x2="5" y2="10.5" gradientUnits="userSpaceOnUse"><stop stop-color="#EC5C07"/><stop offset="1" stop-color="#F5B402"/></linearGradient><linearGradient id="b" x1="5" y1="5" x2="5" y2="7" gradientUnits="userSpaceOnUse"><stop stop-color="#FFFCF3"/><stop offset=".35" stop-color="#F6B316"/><stop offset="1" stop-color="#D92E02"/></linearGradient><linearGradient id="c" x1="15.57" y1="12.59" x2="9.93" y2="7.09" gradientUnits="userSpaceOnUse"><stop offset=".54" stop-color="#F3B500"/><stop offset="1" stop-color="#F15F02"/></linearGradient><linearGradient id="d" x1="12.38" y1="9.39" x2="4.61" y2="6.55" gradientUnits="userSpaceOnUse"><stop stop-color="#E75F00"/><stop offset=".46" stop-color="#F3B500"/></linearGradient></defs></svg>