<!-- by TradingView --><svg width="18" height="18" viewBox="0 0 18 18" xmlns="http://www.w3.org/2000/svg"><path fill="#F0F3FA" d="M0 0h18v18H0z"/><path fill-rule="evenodd" d="m13.47 7.84-1.95 1c-.03.02-.05.01-.07-.02l-1.7-3.29c-.17-.32-.42-.56-.8-.53-.3.02-.52.18-.67.48L6.54 8.82c-.01.03-.03.04-.06.02-.6-.3-1.21-.62-1.85-.96-.42-.21-.98-.33-1.36-.02-.35.3-.32.85-.15 1.23.5 1.12 1.04 2.27 1.6 3.47.26.58.71.5 1.2.25A451.84 451.84 0 0 1 9 11.24h.04l3.07 1.58c.46.24.92.3 1.17-.26l1.57-3.41c.5-1.11-.35-1.84-1.38-1.31Zm-5.25-.2L7.4 9.28c-.01.02 0 .04.01.05l1.53.8a.12.12 0 0 0 .11 0l1.54-.8a.04.04 0 0 0 .02-.03.04.04 0 0 0 0-.02l-1.4-2.7a.36.36 0 0 0-.19-.19.09.09 0 0 0-.09.02.75.75 0 0 0-.2.25l-.51 1ZM6.01 9.68l-1.85-.95a.1.1 0 0 0-.1.02.1.1 0 0 0-.03.1l1.1 2.4a.1.1 0 0 0 .09.06.1.1 0 0 0 .08-.06l.75-1.44a.1.1 0 0 0-.04-.13Zm6.68 1.57-.74-1.44a.1.1 0 0 1-.01-.03v-.04a.1.1 0 0 1 .05-.06l1.84-.95a.1.1 0 0 1 .13.04.1.1 0 0 1 .01.03.1.1 0 0 1 0 .06l-1.1 2.39a.1.1 0 0 1-.04.04.1.1 0 0 1-.14-.04Zm-5.77-1.06a54.73 54.73 0 0 0-.61 1.22c0 .1.05.12.13.07l1.48-.75c.04-.02.04-.04 0-.05l-.97-.5h-.03Zm3.4.66-.26-.13c-.03-.01-.03-.02 0-.04l.99-.51a.02.02 0 0 1 .01 0h.01v.01l.6 1.16c.05.1.02.14-.08.14a.34.34 0 0 1-.17-.05c-.36-.21-.73-.4-1.1-.58Z" fill="#CC2528"/></svg>