<!-- by TradingView --><svg width="18" height="18" viewBox="0 0 18 18" xmlns="http://www.w3.org/2000/svg"><path fill="#F0F3FA" d="M0 0h18v18H0z"/><path d="M7.67 8.66c.43.38.68.1.66 1 .13.09.17.16.26.27.17.22.36.03.45.17.04.06.02.12.05.2.06.12.05.06.18.13.21.13.05.19.4.23-.04-.6.62-.99 1.11-1.14.43-.14.22.04.46-.28.1-.12.43-.64.46-.79-.2.07-.34.28-.56.36-.51.18-.14-.3-1.03.27-.16.1-.33.3-.44.34.2-.3.4-.43.6-.74.77-1.25.4-.5 1.17-1.25.14-.14.55-1 .56-1.2-.51.07-.48.71-.76.85-.44.22-.97-.15-1.45.72-.13.24-.27.7-.46.86V8.5c.1-.65.11-.23.2-1.39.04-.48.06-1.8-.2-2.1-.08.12-.04.35-.1.52-.06.2-.14.35-.22.56-.23.6-.06 1.31-.06 1.9-.57-.85-.9-1.4-2-1.69-.4-.1-.56-.24-.95-.29.06.2.15.23.25.39.1.13.17.36.26.48.52.67.93.42 1.49 1.13.07.1.48.96.49 1-.28-.15-.46-.2-.82-.34ZM9.33 11.99c.2.03.33.23.34.33 0 .2-.16.43-.16.43.02.4.26.67.7.54.33-.08.64-.25.96-.3-.06.17-.1.04-.17.2.36.26.3.28.74.49.2.1.06.12.15.3h1.73c.83.02.82.09 1.38-.36 0-.38-.04-.48-.35-.7-.12-.08-.23-.06-.36-.17-.1-.09-.18-.12-.31-.17-.15-.05-.06-.53-.31-.6-.24.02-.22.14-.54.15a.77.77 0 0 1-.55-.2c-.47-.42-.31-.53-.84-.58-.3-.03-.2-.2-.44-.27-.2-.06-.44 0-.65 0-.35 0-.25-.11-.52-.19-.27-.07-.23-.14-.46-.23-.15.23-.3 1-.34 1.33Z" fill="#5CA47A"/><path d="M7.67 8.66c-.2-.4-.5-.7-.82-.94-.17-.12-.25-.07-.4-.14-.06-.04-.12-.25-.23-.42-.4-.61-.42-.27-.4-.92 0-.22-.02-.1.04-.28.1-.34-.1-.46-.4-.58a.92.92 0 0 1-.57-.75c-.08-.75-.22-.47-.63-.5-.17 0-.27-.12-.42-.13-.2-.01-.2.12-.4.12-.21 0-.27-.08-.44-.12.05.4.44.16.67.42-.04.23-.16.08-.29.33-.14.29-.1-.06-.25.34.05.06.15.07.2.15-.04.14-.19.12-.33.25.02.38.24.12.35.53-.09.09-.13.06-.19.18.25.4.6.13.61.13.1.08.18.19.23.33l-.08.08c0 .18-.07.37-.22.39-.14.01-.05-.06-.27-.08l-.3.24c-.03.14.06.06-.06.27-.04.08-.07.13-.07.18 0 .04.01.09.04.16.04.06.1.1.16.1.22 0 .69-.37 1-.54.21-.11.2.02.36.1.04-.12 0-.13.07-.25.06-.12.07-.13.11-.31.52.08.2.4.61.53.2.06.72.07 1 .12.79.14.95.83 1.32 1.01Z" fill="#5CA47A"/><path d="M8.76 12.12c-.04-.43-.12-.19-.18-1.18-.02-.34-.08-.95-.44-.95-.47 0-.65 1.57-1.47 1.6.06-.27.18-.44.19-.9.01-.6.23-.78.81-.98.4-.13.44.03.66-.05l-.05-.13c-.14-.07-.2-.15-.36-.27-.5-.35-1.15-.45-1.65-.82.01.28-.07.24-.15.48-.07.18-.06.3-.12.5.05.16.05.07.09.18.03.09-.02.06.04.19.13.03.2.02.32.06.11.04.23.1.36.13v.19l-.5-.01c-.1.35-.2.32-.41.56-.07.07-.23.2-.23.32 0 .34.73.32.92.5.12.1.19.24.25.24.1 0 .14-.13.28-.2.26.02.15.01.32.06.1.02.14-.02.28-.17l-.07-.41c.19.05.42.37.56.5.07.08.25.21.3.27.13.21-.03.15.25.29Z" fill="#5CA47A"/><path d="M8.76 12.12c.07.54-.11 1.44-.1 1.88h.67v-2.01c-.38.08-.11.23-.57.13ZM6.27 8.44c-.1-.13-.56-.62-.7-.61-.09 0-.01.02-.12.06-.1.04-.17-.01-.2.08a.83.83 0 0 0-.06.37c.12.07.18.02.3.08.26.12.15-.2.47-.1.1.02.21.09.31.12Z" fill="#5CA47A"/></svg>