<!-- by TradingView --><svg width="18" height="18" viewBox="0 0 18 18" xmlns="http://www.w3.org/2000/svg"><path fill="#F0F3FA" d="M0 0h18v18H0z"/><path d="M7.64 10.03V7.9h2.72v2.38l-2.18.27-.54-.53Z" fill="#6EB92B"/><path d="M9.72 4c.49-.05.92.32.92.8v6.22c0 .48-.43.85-.92.8l-6-.68a.8.8 0 0 1-.72-.79V5.47c0-.4.31-.75.72-.8l6-.66Zm.37.8a.27.27 0 0 0-.3-.27l-6 .67a.27.27 0 0 0-.24.27v4.88c0 .13.1.25.24.26l6 .68c.16.01.3-.11.3-.27V4.8Z" fill="#FDD500"/><path d="M7.36 5.88c0-.49.45-.86.95-.79l6 .9c.4.06.69.4.69.78v2.77a.8.8 0 0 1-.76.79l-6 .45a.8.8 0 0 1-.88-.8v-4.1Zm.86-.26a.27.27 0 0 0-.31.26v4.1c0 .16.13.28.3.27l6-.45a.27.27 0 0 0 .24-.26V6.77c0-.13-.1-.24-.23-.26l-6-.9Z" fill="#0049A6"/><path d="M5.24 8.51a.8.8 0 0 1 .81-.87h5.9c.48 0 .86.4.81.87l-.44 4.77a.8.8 0 0 1-.82.72h-5a.8.8 0 0 1-.82-.72L5.24 8.5Zm.81-.34a.27.27 0 0 0-.27.3l.45 4.76c.01.14.13.24.27.24h5c.14 0 .26-.1.27-.24l.45-4.77a.27.27 0 0 0-.27-.29h-5.9Z" fill="#B40000"/><path d="m12.58 10.45.05-.53-.55.04-.05.53.55-.04Z" fill="#0049A6"/><path d="m6.06 11.4-.56-.06-.05-.54.56.06.05.54ZM10.09 8.7V7.64h.55V8.7h-.55Z" fill="#FDD500"/><path d="M7.36 8.7V7.11h.55v1.6h-.55Z" fill="#0049A6"/></svg>