<!-- by TradingView --><svg width="18" height="18" viewBox="0 0 18 18" fill="none" xmlns="http://www.w3.org/2000/svg">
<rect width="18" height="18" fill="url(#paint0_linear_228_6101)"/>
<path d="M14.2762 8.75038V8.77761C15.287 8.91377 16 9.33132 16 10.23C16 11.5987 14.4246 12 13.2292 12H11V11.6667C11.7491 11.594 12 11.5825 12 10.8018V7.19818C12 6.41755 11.6949 6.3878 11 6.33333V6L13.6354 6C14.5981 6 15.6428 6.30599 15.6428 7.37065C15.6428 8.25113 14.8809 8.60514 14.2762 8.75038ZM13 8.66415H13.0835C14.0312 8.66415 14.5714 8.27837 14.5714 7.51588C14.5714 6.76248 14.0866 6.33333 13.4097 6.33333C12.9921 6.33333 13 6.50669 13 6.88048V8.66415ZM13 9V10.7837C13 11.4554 13.0397 11.6757 13.5812 11.6667C14.1949 11.6576 15 11.2557 15 10.3207C15 9.43116 14.1575 9 13.0655 9H13Z" fill="#FAFAFF"/>
<path d="M5.27616 8.75038V8.77761C6.28699 8.91377 6.99999 9.33132 6.99999 10.23C6.99999 11.5987 5.42463 12 4.22923 12H2V11.6667C2.7491 11.594 3 11.5825 3 10.8018V7.19818C3 6.41755 2.69495 6.3878 2 6.33333V6L4.63537 6C5.59808 6 6.64284 6.30599 6.64284 7.37065C6.64284 8.25113 5.88085 8.60514 5.27616 8.75038ZM4 8.66415H4.08354C5.03119 8.66415 5.57142 8.27837 5.57142 7.51588C5.57142 6.76248 5.08663 6.33333 4.40973 6.33333C3.99206 6.33333 4 6.50669 4 6.88048V8.66415ZM4 9V10.7837C4 11.4554 4.0397 11.6757 4.58121 11.6667C5.19493 11.6576 6 11.2557 6 10.3207C6 9.43116 5.15754 9 4.06548 9H4Z" fill="#FAFAFF"/>
<path d="M12 12H9.52941V11.716C10.0829 11.6272 10.1728 11.5296 10.0498 11.1657C9.94436 10.855 9.79502 10.4438 9.61933 10H7.80088C7.68668 10.3373 7.56369 10.6775 7.44949 11.0325C7.29136 11.5207 7.45 11.6272 8.11765 11.716V12H6V11.716C6.58858 11.6272 6.71157 11.5473 7.02782 10.7663L8.88141 6.09763L9.27672 6C9.84773 7.57988 10.4187 9.18639 11.0073 10.7485C11.2972 11.5385 11.4202 11.6361 12 11.716V12ZM9.50325 9.66667L8.74963 7.43787C8.48254 8.04782 8.02056 9.44064 7.93921 9.66667H9.50325Z" fill="#FAFAFF"/>
<defs>
<linearGradient id="paint0_linear_228_6101" x1="9" y1="0" x2="9" y2="18" gradientUnits="userSpaceOnUse">
<stop stop-color="#181B1E"/>
<stop offset="1" stop-color="#181B1E"/>
</linearGradient>
</defs>
</svg>
