<!-- by TradingView --><svg width="18" height="18" viewBox="0 0 18 18" xmlns="http://www.w3.org/2000/svg"><path fill="#F0F3FA" d="M0 0h18v18H0z"/><path d="m11.88 12.56-.05-.22-.02-.02-.02-.01a.05.05 0 0 0-.05.02l-.07.1-.6-.34a.05.05 0 0 0-.05 0c-.4.27-.82.46-1.28.57a.05.05 0 0 0-.04.04l-.23 1.07c0 .02-.01.03-.03.03h-1.1c-.03 0-.04 0-.04-.03l-.23-1.07a.05.05 0 0 0-.04-.04 4.14 4.14 0 0 1-1.07-.43.05.05 0 0 0-.05 0l-.7.47-.18-.35a.04.04 0 0 0-.07-.01l-.01.02-.08.38-.7-.67c-.02-.01-.02-.03 0-.04l.57-.93a.05.05 0 0 0 0-.06c-.2-.33-.36-.68-.47-1.06a.05.05 0 0 0-.04-.04l-1.07-.19c-.03 0-.04-.02-.04-.04l-.03-1.1c0-.02 0-.03.02-.03l1.06-.26c.03 0 .04-.02.04-.04.08-.39.22-.75.4-1.1v-.04l-.63-.9a.05.05 0 0 1 0-.05l.72-.8c.02-.02.03-.02.06-.01l.94.55h.05a3.76 3.76 0 0 1 1.3-.6c.02 0 .02-.01.02-.02l.23-1.08c0-.02.02-.03.04-.03h1.11l.02.03.22 1.08a4.13 4.13 0 0 1 1.14.48l.02-.01.92-.61h.05l.79.77a.04.04 0 0 1 0 .04l-.58.93a.05.05 0 0 0 0 .06c.2.33.37.68.47 1.05 0 .03.02.04.05.05l1.06.19.03.01.01.03.03 1.1c0 .02 0 .03-.02.03l-1.07.27a.04.04 0 0 0-.03.03 3.75 3.75 0 0 1-.4 1.12v.03l.64.89a.04.04 0 0 1 0 .05l-.73.82h-.05l-.14-.08ZM12.2 9a3.32 3.32 0 1 0-6.64 0 3.32 3.32 0 0 0 6.64 0Z" fill="#231F20"/><path d="M4.48 4.7C4.24 4.65 3.4 5.9 3 6.53c0-.41.2-1.39.99-1.97.8-.59.93-.14 1 .06l.03.08A8.1 8.1 0 0 1 6.72 3l-.7 1.05L8.3 3.3l-1.43.87 1.12-.13-1.26.51c.54.11.41.78.28 1.1-.01-.1-.13-.4-.53-.76-.4-.37-1.29.35-1.68.76l-.04-.04a5.65 5.65 0 0 0-1.38 3.5c0 .99.56 1.95 1.28 2.76.38.41.8.78 1.18 1.09l.22-.88c.23.58 1.13 1.74 2.95 1.74a3.15 3.15 0 0 0 2.97-1.74l.27.68c.32-.23.63-.49.93-.77a4.04 4.04 0 0 0 1.38-2.87c0-1.85-1.25-3.37-2.04-4.04-.37-.25-.76-.4-1-.2-.4.37-.52.67-.53.77-.13-.32-.26-.99.29-1.1l-1.26-.51 1.11.13-1.42-.87 2.27.74-.7-1.05a8.1 8.1 0 0 1 1.7 1.7l.04-.08c.06-.2.2-.65 1-.06.78.58.98 1.56.98 1.97-.4-.63-1.24-1.88-1.48-1.83-.22.05-.19.49-.13.73a5.73 5.73 0 0 1 1.55 3.7c0 1.27-.67 2.31-1.49 3.1-.34.34-.7.63-1.06.88l.06.16A4.17 4.17 0 0 1 9.01 15a3.75 3.75 0 0 1-3.27-1.63v-.02a9.93 9.93 0 0 1-1.37-1.25A4.64 4.64 0 0 1 3 9.13c0-1.7.9-3.12 1.65-3.94.02-.22-.01-.45-.17-.49Z" fill="#A6CF3B"/><path opacity=".7" d="M6.85 7.38a3.88 3.88 0 0 0-.76 1.68l-.37-.05a4.2 4.2 0 0 1 .83-1.83 3.02 3.02 0 0 1 4.63-.07c.5.57.78 1.25.87 1.71l-.37.07a3.6 3.6 0 0 0-.8-1.57 2.63 2.63 0 0 0-4.03.06Z" fill="#231F20"/><path opacity=".5" d="M6.6 9.7v.5h4.8v-.43l-.64-.48h-.56V7.31H7.8V9.3h-.7l-.5.4Z" fill="#5F5F60"/></svg>