<!-- by TradingView --><svg width="18" height="18" viewBox="0 0 18 18" xmlns="http://www.w3.org/2000/svg"><path fill="#1B45B9" d="M0 0h18v18H0z"/><path d="M8.14 5.34c-.04 0-.04 0-.09.04h-.02c-.1-.11-.18-.22-.16-.35.03-.19.08-.38.15-.58.04-.11.1-.2.19-.25.3-.2.57-.21.91-.2.11 0 .2.06.28.15l.2.27c.04.05.06.1.06.14 0 .18-.06.37-.13.55-.1-.28-.25-.47-.52-.55-.22-.07-.4 0-.6.13-.21.16-.24.36-.26.63l-.01.02Z" fill="#fff"/><path d="m8.27 5.64.02-.14c.02-.15.1-.26.2-.33.08-.04.2-.06.3-.08.12-.03.22-.12.3-.25h.01c.04.13.1.17.19.27.11.12.15.25.13.44-.02.2-.05.38-.1.52-.09.22-.28.48-.52.4-.28-.08-.4-.36-.5-.63 0-.02-.01-.02-.02-.02h-.06L8.2 5.8a1.25 1.25 0 0 1-.1-.37v-.01c.02-.03.05-.02.07 0 .05.06.08.14.1.22 0 .02 0 .02 0 0Zm.11-.26c0 .01 0 .01 0 0 .08-.04.15-.05.22-.03a10.3 10.3 0 0 1 .12.03l-.01-.02c-.11-.1-.22-.09-.33.02Zm1-.01c-.12-.1-.23-.1-.33 0l-.01.03h.01l.1-.04a.23.23 0 0 1 .23.02v-.01Zm-.87.2H8.5c.04.01.1.04.14.01v-.02l.02-.02h.03l.04.05v-.01a.18.18 0 0 0-.05-.09c-.06-.06-.13-.07-.2-.03l-.02.02c0 .02-.02.04-.05.05a.01.01 0 0 0 0 .02.1.1 0 0 0 .08-.02.02.02 0 0 1 .03 0v.03Zm.78.01c.02.02.02.03 0 .03h-.1c0 .01 0 .01 0 0 .05.02.09.02.13 0v-.02a.14.14 0 0 0-.07-.03h-.01v-.02c0-.02 0-.02.02-.02l.09.03c.03 0 .03-.01 0-.02l-.05-.06-.02-.02c-.1-.06-.2.02-.25.12v.01h.01a.1.1 0 0 1 .05-.04l.02.01v.02l.02.01h.16ZM8.17 5.5h.01V5.5l-.02-.02h-.02v.04c.01.06.03.11.06.15.01.03.02.03 0 0a1.17 1.17 0 0 0-.05-.16h.02Zm.79.42a.07.07 0 0 1-.06.04v.02h.07L9 5.97 9 5.95a.06.06 0 0 0 0-.05.61.61 0 0 1-.04-.39c.01-.02 0-.02 0 0-.06.08-.04.29-.01.38v.03Zm-.44-.3c.06.04.12.03.17-.03h-.02a.14.14 0 0 1-.15.02Zm.28.33c-.05 0-.05.02-.01.05h.02v-.03l-.01-.02Zm.07.17h-.06a.14.14 0 0 1-.13-.01h-.01v.02a.5.5 0 0 0 .44-.01V6.1c0-.01 0-.02-.01-.01a.16.16 0 0 1-.17.01h-.02l-.03.01Zm.01.17c.05 0 .1-.01.12-.06.02-.02.01-.03-.02-.02a.24.24 0 0 1-.1.02.25.25 0 0 1-.1-.02c-.02-.02-.03-.01-.01.02.02.04.06.06.11.06Z" fill="#fff"/><path d="M8.38 6.88c.14-.12.14-.32.13-.5v-.01c.16.21.43.4.68.27l.01.01c.02.08.05.14.1.19v.01l-.47.62h-.01a.01.01 0 0 1-.02 0 3.44 3.44 0 0 1-.42-.6ZM7.75 8.6v.02l-.13.08H7.6c-.07-.01-.12-.04-.15-.1-.09-.14-.15-.25-.32-.26v-.02c.11-.1.25-.13.4-.07h.02l.02-.02c0-.02-.01-.04-.03-.05a3.02 3.02 0 0 0-.15-.08c-.08-.04-.1-.21-.12-.29-.04-.1-.13-.14-.23-.2A.12.12 0 0 1 7 7.58s0-.01 0 0c.16.03.33.03.44.04.11.01.21.07.29.18.02.04.06.05.1.04.02 0 .03-.01.03-.02v-.04a.41.41 0 0 1 .04-.27c0-.02 0-.02.01 0a.8.8 0 0 0 .08.28 6.9 6.9 0 0 0 .21.36c-.14.1-.46.35-.45.45ZM8.7 8.78v-.03l-.02-.02c-.15-.01-.28-.02-.4-.1a.81.81 0 0 1-.13-.17l-.07-.09v-.02c.22-.25.48-.4.78-.35.11.01.21.06.3.14.03.02.05.07.07.12.08.17-.14.18-.14.35 0 .11.01.16-.05.28v.06c0 .03-.02.05-.03.06a.94.94 0 0 0-.16.13h-.02c-.1-.05-.2-.08-.28-.16a3.86 3.86 0 0 1-.13-.15c.1 0 .2-.01.27-.05Zm-.4-.53c-.04.06-.04.06 0 .02.2-.17.48-.19.7-.09.03.02.04.02 0-.01-.2-.16-.55-.14-.7.08ZM9.52 9.27a.46.46 0 0 0 .05.22v.01h-.01a.9.9 0 0 0-.24-.07.73.73 0 0 1-.25-.1.52.52 0 0 0-.1-.1.02.02 0 0 1 0-.01l.18-.29c.08-.15.22-.3.27-.46a.26.26 0 0 1 .13-.16h.02c.1.02.2.07.28.15.3.27.33.71.21 1.1 0 .02 0 .02-.01 0-.08-.12-.15-.12-.29-.15-.07-.02-.15-.07-.17-.14-.03-.08-.06-.08-.07 0Z" fill="#fff"/><path d="M10.12 8.77v-.02c.1-.09.19-.17.21-.3 0-.04.02-.04.02 0 .05.15.03.29-.05.42v.03h.05l.1-.14c.06-.07.16-.06.27-.06.11 0 .19-.15.26-.22.02-.02.02-.01.01.01-.07.15-.1.32-.15.45-.04.1-.1.18-.18.22-.06.04-.12.08-.1.16l.02.02c.1.01.18.03.24.12-.26-.06-.48.15-.7.17-.01 0-.02 0-.02-.02.15-.5.15-.44.02-.84ZM7.68 8.8c-.3.23-.3.68-.12 1v.02l-.03.02h-.01c-.2-.37-.19-.75.1-1.04a.66.66 0 0 1 .17-.13l.1.05.36.08c.03 0 .06.02.09.05.12.12.21.28.35.38v.02a.23.23 0 0 0-.11.1c-.09.16-.19.3-.3.4h-.01l-.01-.05-.02-.02h-.01l-.01.03a.36.36 0 0 1-.24.25c-.09.04-.16.06-.23.07l-.02-.01a1.4 1.4 0 0 1-.18-.33.84.84 0 0 1 .14-.88c0-.01 0-.01 0 0Z" fill="#fff"/><path d="M7.48 9.9v.03a.2.2 0 0 0 .06.17v.05c-.04.03-.02.16-.03.16a4.67 4.67 0 0 1-.2-.14.37.37 0 0 1-.15-.29v-.31a126.8 126.8 0 0 0 .07-.58l.14.03c.02 0 .02 0 .01.02-.05.54-.08.46.1.86ZM8.05 10.4l.04.13-.05.02a2.09 2.09 0 0 0-.06-.11c-.05-.11.02-.26.1-.33a.83.83 0 0 0 .15-.2c.04-.08.1-.11.17-.19.13-.16.54-.58.62-.16v.13c-.01.11-.06.27-.1.36 0 .01 0 .01 0 0a.43.43 0 0 1-.17-.2c-.01-.01-.02-.02-.04 0l-.02.03a2.75 2.75 0 0 0 .12.28c.03.06.03.2.02.29-.02.16-.04.3-.02.44v.02c-.22.12-.38.13-.56-.03v-.01l.07-.05c.12.09.26.12.38.06.02 0 .02-.01 0 0a.45.45 0 0 1-.32-.1v-.1c.01-.02.02-.02.03-.02l.03.01c.03 0 .03 0 0 0-.03-.02-.04-.05-.06-.08-.07-.1-.17-.1-.22-.24v.01c0 .06.02.1.05.14.02.03-.02.06-.04.04-.1-.11-.12-.16-.12-.14ZM9.97 10.12c-.03.06-.06.15-.1.21a.76.76 0 0 1-.38.32l-.1.05c-.02 0-.02 0 0 .01h.1c0-.01 0 0 0 0l-.04.09h-.01c-.09.02-.25 0-.3-.1a.8.8 0 0 1-.06-.3c0-.04-.02-.1-.05-.18a.36.36 0 0 1-.02-.12c0-.23.1-.42.03-.66h.01c.24.04.4.08.45.1.11.05.31.21.4.3.07.1.16.28.12.42a.83.83 0 0 1-.22.38l-.02.01a.18.18 0 0 0-.08.03h-.02l-.03-.01v-.02c.2-.1.3-.28.33-.52 0-.02 0-.02-.01 0ZM10.27 10.15c.04-.09.07-.12 0-.21v-.19s0-.02.02-.02c.08-.08.17-.1.29-.07v.02c.02.11.02.22.01.32-.02.17-.14.2-.26.23h-.03l-.02-.02-.01-.03v-.03Z" fill="#fff"/><path d="m7.62 10.12.07.07.01.02v.08l.02.03.05.05v.02l.01.05.01.02c.06.04.1.1.15.16.02.04.01.06-.03.04a.73.73 0 0 1-.14-.06.24.24 0 0 1-.09-.09.85.85 0 0 0-.1-.14l-.01-.01-.02-.14v-.02c.01-.03.04 0 .05-.02v-.02a.44.44 0 0 0-.06-.14.07.07 0 0 1 0-.07l.01-.05c.01-.02.02-.02.04 0l.1.14c.01.03.01.04 0 .07 0 .02-.01.02-.02.02l-.05-.02c-.02-.01-.02-.01 0 0ZM7.9 10.21a.16.16 0 0 0-.05.07h-.01c-.02 0-.02-.02-.02-.03.03-.11.1-.12.18-.17.03-.01.02-.02 0-.01-.07.01-.15.03-.2.1h-.02c0-.02 0-.03.02-.05h-.02l-.01.01-.02-.01.01-.03.03-.01a.66.66 0 0 0 .36-.15v.01a.84.84 0 0 0-.2.23.4.4 0 0 0-.04.17c0 .02 0 .02-.02 0h-.01c-.02-.02-.02-.03-.01-.05l.03-.07c0-.02 0-.02 0 0ZM10.18 10.17l-.04.03a.02.02 0 0 1-.02 0v-.01c-.02-.03-.02-.05 0-.08l.08-.15c.01-.03.02-.03.03 0l.03.04v.07a.45.45 0 0 0-.06.16.02.02 0 0 0 .02.01h.02l.01.01.01.01v.17a.88.88 0 0 0-.1.15.25.25 0 0 1-.08.1.75.75 0 0 1-.13.08c-.05.02-.06 0-.03-.04a.5.5 0 0 1 .13-.18V10.46l.05-.07.01-.02v-.08l.01-.02.07-.09c.01-.02 0-.02-.01-.01ZM8.88 10.9c-.03-.03-.03-.13-.02-.18 0-.1.02-.2.03-.28v-.24l-.05-.1c0-.02 0-.02.01-.01.17.1.18.3.2.48 0 .08.05.17.07.25v.03H9.1l-.23.05Z" fill="#fff"/><path d="M8 10.67c0-.02 0-.03.02-.03.03-.04.06-.06.1-.04l.01.02c.03.1-.17.15-.24.16a.22.22 0 0 1-.08.01l-.02-.01a.32.32 0 0 1-.05-.12c0-.02 0-.02.01-.01.08.05.15.07.22.07A.05.05 0 0 0 8 10.7v-.03ZM9.85 10.78v.01l.01.02h.02l.01.01c.07 0 .15-.03.22-.1v.01c0 .04 0 .09-.03.13l-.02.01h-.08c-.07 0-.28-.02-.26-.12v-.02h.01c.03-.03.07-.02.1.02.02 0 .02.01.02.03Z" fill="#fff"/><path d="M7.46 5.41A3.82 3.82 0 0 0 5 8.14l-.34-.11a4.17 4.17 0 0 1 2.6-2.92l.19.3ZM10.42 5.43a3.8 3.8 0 0 1 2.41 2.77h.37a4.15 4.15 0 0 0-2.6-3.07l-.18.3ZM4 9h2v.2H4zM4 9.8h2v.2H4zM4.29 9.4h1.43v.2H4.29zM12 9h2v.2h-2zM12 9.8h2v.2h-2zM12.29 9.4h1.43v.2h-1.43zM3 11h12v2H3z" fill="#fff" fill-opacity=".6"/></svg>