<!-- by TradingView --><svg width="18" height="18" viewBox="0 0 18 18" fill="none" xmlns="http://www.w3.org/2000/svg">
<rect width="18" height="18" fill="#1D1934"/>
<path fill-rule="evenodd" clip-rule="evenodd" d="M8 7V11C8 12.1259 7.12587 13 6 13C4.87413 13 4 12.1259 4 11V7H5V11C5 11.5837 5.41961 12 6 12C6.58039 12 7 11.5837 7 11V7C7 5.8741 7.87413 5 9 5C10.1259 5 11 5.8741 11 7V12C11 12.505 11.5063 13 12 13C12.5517 13 12.8008 12.7804 13.0528 12.2764L13.9472 12.7236C13.5403 13.5374 12.9416 14.001 12.026 14C12.0172 14 12.0085 14 12 14C10.9622 14 10 13.0494 10 12V7C10 6.4163 9.58039 6 9 6C8.41961 6 8 6.4163 8 7Z" fill="white"/>
<circle cx="5" cy="5" r="1" fill="#EA084F"/>
<circle cx="14" cy="11" r="1" fill="#08BF6E"/>
</svg>
