<!-- by TradingView --><svg width="18" height="18" viewBox="0 0 18 18" xmlns="http://www.w3.org/2000/svg"><path fill="url(#ajqis14qp)" d="M0 0h18v18H0z"/><path fill-rule="evenodd" d="m9 3 6 6-6 6-6-6 6-6Zm0 .97 5 5.05-5 5.04-5-5.04 5-5.05ZM9.72 9l-.49-.49-.48.49.48.49.49-.49Zm.76 0c0 .47.34.79.77.79.27 0 .5-.1.66-.35l.42.29c-.24.42-.7.57-1.08.57-.77 0-1.35-.54-1.35-1.3 0-.75.59-1.3 1.36-1.3.34 0 .76.14 1.03.52l-.43.3a.73.73 0 0 0-.6-.3c-.46 0-.78.33-.78.78ZM8.6 10.3V7.76h-.02l-.01-.02-.66.7c-.2.2-.41.42-.6.64l-.62-.65L6 7.7v2.6h.49V8.96l.41.44.4.41.4-.42.41-.43v1.34h.49Z" fill="#FEFEFE"/><defs><linearGradient id="ajqis14qp" x1="3.35" y1="3.12" x2="21.9" y2="24.43" gradientUnits="userSpaceOnUse"><stop stop-color="#1A1E21"/><stop offset="1" stop-color="#06060A"/></linearGradient></defs></svg>