<!-- by TradingView --><svg width="18" height="18" viewBox="0 0 18 18" xmlns="http://www.w3.org/2000/svg"><path fill="#F0F3FA" d="M0 0h18v18H0z"/><path fill="#0066A6" d="m9.81 9 2.6-2.6L15 9l-2.6 2.6zm-3.4 3.4 2.6-2.59 2.6 2.6L9 15zM6.4 5.59 9 2.99l2.6 2.6L9 8.19zM3 9l2.6-2.6L8.19 9l-2.6 2.6z"/><path fill="#E12E2A" d="m11.11 9 1.3-1.3L13.7 9l-1.3 1.3z"/><path fill="#FEB846" d="m7.7 12.41 1.3-1.3 1.3 1.3-1.3 1.3z"/><path fill="#61BC47" d="M7.7 5.6 9 4.3l1.29 1.3-1.3 1.29z"/><path fill="#AB2888" d="m4.3 9 1.3-1.3L6.88 9l-1.3 1.3z"/></svg>