<!-- by TradingView --><svg width="18" height="18" viewBox="0 0 18 18" xmlns="http://www.w3.org/2000/svg"><path fill="#F0F3FA" d="M0 0h18v18H0z"/><path d="M12.69 4.42c.2-.4.62-.54.96-.3.33.22.45.73.26 1.13l-3.6 7.33c-.2.4-.62.54-.96.3-.33-.22-.45-.73-.26-1.13l3.6-7.33ZM8.75 7.74c.18-.35.6-.47.91-.27.33.2.44.66.25 1l-2.2 4.16c-.18.35-.6.47-.91.27a.77.77 0 0 1-.25-1l2.2-4.16ZM5.62 8.9c.2-.38.66-.52 1.01-.3.35.23.48.73.27 1.12l-1.52 2.87c-.2.4-.66.53-1.01.3a.85.85 0 0 1-.27-1.1L5.62 8.9Z" fill="#124D84"/></svg>