<!-- by TradingView --><svg xmlns="http://www.w3.org/2000/svg" width="18" height="18" viewBox="0 0 18 18"><path fill="#00A652" d="M0 0h18v18H0z"/><path fill-rule="evenodd" d="M5.5 4c-.27 0-.5.26-.5.58v8.84c0 .32.23.58.5.58h7c.27 0 .5-.26.5-.58V4.58c0-.32-.23-.58-.5-.58h-7zm3.33 5.97V7.7c0-.57-.27-1.1-.73-1.42l-1-.7a1.81 1.81 0 0 1-.6-.61 1.48 1.48 0 0 1-.1-.26c-.27.81-.72 2.8.49 3.61l1.33.82c.2.14.58.5.61.82zm.32.15V7.86c0-.57.28-1.1.73-1.42l1-.7c.24-.18.48-.36.6-.61.05-.08.09-.17.11-.26.27.81.72 2.79-.49 3.61l-1.33.82c-.2.14-.58.5-.62.82zm-3.65.38h7v3h-7v-3zm.5.5h1v2H6v-2zm2.67 0h-1v2h1v-2zm.66 0h1v2h-1v-2zM12 11h-1v2h1v-2z" fill="#fff"/></svg>