<!-- by TradingView --><svg width="18" height="18" viewBox="0 0 18 18" xmlns="http://www.w3.org/2000/svg"><path fill="url(#anw4gdzwi)" d="M0 0h18v18H0z"/><path d="M4.98 5.82c.02.35.02.64.02 2.24v1.83c0 1.2 0 1.88-.06 2.27-.05.3-.1.53-.3.58-.08.03-.2.04-.35.04-.11 0-.16.03-.16.08 0 .08.08.14.2.14h2.7c1.83 0 2.65-1.18 2.65-2.3 0-1.23-.98-1.97-1.8-2.27.54-.46 1.01-.98 1.01-1.85C8.9 6.03 8.6 5 6.8 5H4.21c-.15 0-.22.02-.22.1 0 .07.07.09.18.09.13 0 .3.01.38.03.32.08.4.25.42.6Zm1.28 2.54c-.05 0-.06-.04-.06-.11V5.64c0-.13.01-.17.08-.19.1-.02.2-.02.33-.02.86 0 1.24.94 1.24 1.64 0 .5-.14.9-.4 1.11-.18.16-.4.2-.73.2-.23 0-.38 0-.46-.02Zm.42.48c.38.01.62.09.82.25.75.55.95 1.44.97 2.1 0 1.1-.76 1.34-1.2 1.34-.22 0-.46-.01-.72-.12-.32-.14-.35-.31-.35-1.01V8.9c0-.06.01-.08.06-.08.14 0 .24 0 .42.02Zm5.08-3.01v6.4c-.03.32-.06.49-.26.54a.94.94 0 0 1-.32.04c-.11 0-.15.03-.15.08 0 .08.07.11.19.11h2.6c.11 0 .18-.03.18-.1 0-.06-.05-.09-.15-.09-.13 0-.29-.02-.41-.04h-.07c-.27-.05-.34-.24-.37-.52V5.83c.02-.38.07-.56.32-.61l.07-.01.2-.02c.1 0 .15-.03.15-.11 0-.06-.07-.08-.19-.08h-2.33c-.15 0-.22.02-.22.08 0 .1.05.1.15.1.1 0 .23.02.33.05.2.05.27.24.28.6Z" fill="#fff"/><defs><linearGradient id="anw4gdzwi" x1="16.11" y1="3.7" x2="2.79" y2="15.54" gradientUnits="userSpaceOnUse"><stop stop-color="#8D012C"/><stop offset=".33" stop-color="#C40B45"/><stop offset="1" stop-color="#8D012C"/></linearGradient></defs></svg>