<!-- by TradingView --><svg width="18" height="18" viewBox="0 0 18 18" fill="none" xmlns="http://www.w3.org/2000/svg">
<rect width="18" height="18" fill="#F0F3FA"/>
<circle cx="9" cy="9" r="6" fill="#177FC1"/>
<path fill-rule="evenodd" clip-rule="evenodd" d="M8.956 5C5.40625 5 3.4129 7.95154 3.12891 10.2578C3.12891 10.2578 3.1917 10.5429 3.25781 10.7461C3.32393 10.9493 3.4024 11.163 3.4024 11.163L14.5859 11.1953C14.5859 11.1953 14.6527 11.0083 14.7031 10.8594C14.7816 10.6276 14.8789 10.2266 14.8789 10.2266C14.5233 7.82654 12.5057 5 8.956 5Z" fill="#34C6F4" fill-opacity="0.4"/>
<path fill-rule="evenodd" clip-rule="evenodd" d="M8.99992 14.8905C11.4291 14.8905 13.524 13.4426 14.4678 11.3666C14.4678 11.3666 12.1129 10 8.99992 10C5.8869 10 3.55139 11.3831 3.55139 11.3831C4.49518 13.4592 6.57079 14.8905 8.99992 14.8905Z" fill="#177FC1"/>
<path fill-rule="evenodd" clip-rule="evenodd" d="M9.00007 6C6.36832 6 3.96875 8.27344 3.22656 10.6484C3.22656 10.6484 3.31324 10.9168 3.35547 11.0312C3.40782 11.1731 3.49609 11.3984 3.49609 11.3984C3.57031 11.2812 3.74056 10.8435 3.92969 10.6484C4.66867 9.62754 6.22832 8 9.00007 8C11.7718 8 13.6945 9.6188 14.4961 11.4062C14.4961 11.4062 14.5766 11.2308 14.6172 11.1289C14.6578 11.027 14.7734 10.6406 14.7734 10.6406C14.0068 8.0849 11.6778 6 9.00007 6Z" fill="#74D7FD" fill-opacity="0.5"/>
<path fill-rule="evenodd" clip-rule="evenodd" d="M8.99989 7C6.37411 7 4.14568 8.88182 3.34766 11.0273L3.49609 11.3984C4.41159 10.629 5.63592 7.98897 8.99989 8C12.3639 8.01103 14.0285 10.3876 14.5 11.4023L14.6523 11.0234C13.9019 8.81186 11.6888 7 8.99989 7Z" fill="#A4DFFB" fill-opacity="0.8"/>
<path fill-rule="evenodd" clip-rule="evenodd" d="M9.00015 8C6.68397 8 4.49816 9.34191 3.5 11.3906C3.5 11.3906 6.04576 10 9.00015 10C11.9545 10 14.5 11.4062 14.5 11.4062C13.4936 9.30515 11.4733 8 9.00015 8Z" fill="url(#paint0_linear_5085_143267)"/>
<defs>
<linearGradient id="paint0_linear_5085_143267" x1="8.16192" y1="10.4791" x2="11.4046" y2="7.6335" gradientUnits="userSpaceOnUse">
<stop offset="0.498431" stop-color="white"/>
<stop offset="0.832825" stop-color="white"/>
</linearGradient>
</defs>
</svg>
