<!-- by TradingView --><svg width="18" height="18" viewBox="0 0 18 18" xmlns="http://www.w3.org/2000/svg"><path fill="#F0F3FA" d="M0 0h18v18H0z"/><path d="m7.9 8.15-.82.58-.03 5.75 1.98-.34 1.9.2c.03 0 .01-4.13 0-6.19H7.9Z" fill="url(#aybawzmkl)"/><path fill-rule="evenodd" d="M7 14.75V8.74l1.98-3.77V2h.22v2.97l1.8 3.2V15a3.22 3.22 0 0 0-1.86-.7c-.83 0-1.22.13-1.3.19v-3.5l-.74.34v3.42H7Zm.84-6.64-.67.44 1.8-3.35-1.13 2.9Zm.16.04V11h2.85V8.15H8Zm-.88 3.02.69-.35V8.28l-.69.5v2.4Z" fill="#4B4B4D"/><path d="m7.96 8.1-.86.58L9 5.12 7.95 8.11Z" fill="url(#bybawzmkl)"/><path d="M9.36 8.4v1.1h.23V8.4h-.23Z" fill="#AE1E37"/><path d="M9.34 9.64v-.1h.25l.82.34-.1.24-.5-.3.5.58-.15.22-.82-.98Z" fill="#FFFEFF"/><defs><linearGradient id="aybawzmkl" x1="9" y1="8.15" x2="9" y2="14.48" gradientUnits="userSpaceOnUse"><stop stop-color="#4B4B4D"/><stop offset=".76" stop-color="#4B4B4D" stop-opacity="0"/></linearGradient><linearGradient id="bybawzmkl" x1="8.04" y1="5.12" x2="8.04" y2="8.03" gradientUnits="userSpaceOnUse"><stop stop-color="#4B4B4D"/><stop offset="1" stop-color="#4B4B4D" stop-opacity="0"/></linearGradient></defs></svg>