<!-- by TradingView --><svg width="18" height="18" viewBox="0 0 18 18" fill="none" xmlns="http://www.w3.org/2000/svg">
<rect width="18" height="18" fill="#F0F3FA"/>
<g opacity="0.6">
<circle cx="9" cy="9" r="8.875" stroke="#E0E3EB" stroke-width="0.25"/>
<rect x="3.05" y="5.05" width="11.9" height="7.9" rx="0.95" stroke="#E0E3EB" stroke-width="0.1"/>
<rect x="2.05" y="6.05" width="13.9" height="5.9" rx="0.95" stroke="#E0E3EB" stroke-width="0.1"/>
<rect x="4.05" y="4.05" width="9.9" height="9.9" rx="0.95" stroke="#E0E3EB" stroke-width="0.1"/>
<rect x="5.05" y="3.05" width="7.9" height="11.9" rx="0.95" stroke="#E0E3EB" stroke-width="0.1"/>
<rect x="6.05" y="2.05" width="5.9" height="13.9" rx="0.95" stroke="#E0E3EB" stroke-width="0.1"/>
<circle cx="9" cy="9" r="4.875" stroke="#C1C4CD" stroke-width="0.25"/>
</g>
<path d="M7.62431 9C8.56068 9 13 9 13 9L10.7083 12H5.25L7.62431 9Z" fill="#F82B1E"/>
<path d="M4 4H14C14 7.33333 14 10.6667 14 14H4V4ZM5.5 6L7.8 9L5.5 12H10.6333L13 9L10.6333 6H5.5Z" fill="#79010C"/>
</svg>
