<!-- by TradingView --><svg xmlns="http://www.w3.org/2000/svg" width="18" height="18"><path fill="#24A29F" d="M0 0h18v18H0z"/><path d="M15.54 6.32c-.93-.09-1.26.43-1.44.68-.23-1.01-.63-.93-1.05-1.19.61-.35.78-.9.77-1.31.6.44 1 .4 1.52.25-.25.76-.1.98.2 1.57z" fill="#F7AF2E"/><path d="M5.14 11c.43 0 .85-.19.85-.68 0-.48-.43-.65-.86-.65h-.94V11h.95zm-.95-3.52v1.33h.72c.44 0 .9-.12.9-.67 0-.5-.35-.66-.82-.66h-.8zM5 6.5c.93 0 2.07.32 2.07 1.49 0 .57-.41.97-.92 1.16.7.18 1.04.57 1.04 1.2 0 1.1-.88 1.65-2.02 1.65H3V6.5h1.99zm6.2 1.1a.45.45 0 01-.11.14.23.23 0 01-.15.05.36.36 0 01-.17-.06h-.01c-.25-.16-.5-.31-.8-.31-.34 0-.6.23-.6.62 0 .36.38.55.65.64.79.24 1.55.6 1.55 1.54 0 1.04-.8 1.78-1.81 1.78A2.6 2.6 0 018 11.3l.35-.53a.34.34 0 01.1-.1c.06-.03.1-.05.16-.05.07 0 .14.03.2.07l.02.01c.3.2.59.38.95.38.38 0 .59-.37.59-.7 0-.3-.32-.58-.63-.67-.84-.25-1.55-.64-1.55-1.61 0-.98.87-1.6 1.74-1.6.55 0 1.15.17 1.55.57l-.29.54zm1.57 4.4H14V7.98c0-.7-.47-1.37-1.24-1.48V12z" fill="#fff"/></svg>