<!-- by TradingView --><svg xmlns="http://www.w3.org/2000/svg" width="18" height="18" viewBox="0 0 18 18"><path fill="#FFBE00" d="M0 0h18v18H0z"/><path d="M5.93 12h1.7a.95.95 0 0 1-.67-.44L5.93 12z" fill="#fff"/><path fill-rule="evenodd" d="M6.2 6H2.5c.55.2.52.58.5.8v4.25c0 .56-.24.87-.5.95h3.6c.78 0 2.1-.43 2.1-1.53 0-1.05-1.13-1.5-1.66-1.59.7-.22 1.17-.74 1.14-1.38-.02-.52-1-1.21-1.49-1.5zm-1.4.33H4v2.34h.8c1.52 0 2-.74 1.97-1.17-.05-.97-1.36-1.18-1.97-1.17zM4 9.01h.93c.7-.01 2.22.22 2.28 1.34.02.48-.52 1.32-2.28 1.33H4V9.01z"/><path d="M12.68 6h-1.84c.65.17.8.57.81.75l.34-.13a1 1 0 0 1 .69-.62z" fill="#fff"/><path d="M15.12 6.4l.38-.4v1.92c-.53-1.51-1.47-1.59-2-1.59-1.68 0-2.27 1.8-2.27 2.61 0 1 .77 2.73 2.27 2.73 1.21 0 1.84-1.05 2-1.61V12l-.38-.43a3.22 3.22 0 0 1-4.8-2.63C10.54 6.53 12.5 6 13.5 6c.8 0 1.42.26 1.62.4z"/><path d="M7.49 6h-1.5c.62.3.68.82.65 1.04v4.21c.15-.08.33-.27.36-.32v-3.8L12 12V6.99c-.07.08-.3.34-.35.49v2.77L7.5 6z" fill="#fff"/></svg>