<!-- by TradingView --><svg xmlns="http://www.w3.org/2000/svg" width="18" height="18" viewBox="0 0 18 18"><path fill="#F0F3FA" d="M0 0h18v18H0z"/><path d="M11.58 8.1C10.73 9.7 8.7 11 7.8 11.4c1.57 0 3.68-.33 4.94-3.18.17-.4.7-2.33.94-3.22-.35.37-1.26 1.5-2.1 3.1Z" fill="url(#akneaenyn)"/><path d="M12.02 8.6c-.54.56-2.65 2.12-3.64 2.84 1.54-.8 4.72-2.48 5.13-2.91.4-.44 1.16-1.74 1.49-2.33-.77.57-2.44 1.84-2.98 2.4Z" fill="url(#bkneaenyn)"/><path d="M11.61 9.62c-.62.45-2.95 1.58-4.03 2.09 1.64-.46 5.04-1.46 5.51-1.82.47-.35 1.42-1.53 1.84-2.07-.84.4-2.7 1.34-3.32 1.8Z" fill="url(#ckneaenyn)"/><path d="m14.28 9.57-1.71 1.23-3.05.33c1.38-.9 3.74-1.41 4.76-1.56Z" fill="url(#dkneaenyn)"/><path d="M6.53 11.38c-1.5 0-3.83-.51-4.53-.74.77.45 2.94 1.36 5.47 1.36s4.96-.9 5.87-1.36c-1.23 0-4.95.74-6.81.74Z" fill="#790000"/><defs><linearGradient id="akneaenyn" x1="10.74" y1="5" x2="10.74" y2="11.39" gradientUnits="userSpaceOnUse"><stop offset=".37" stop-color="#EC1D24"/><stop offset="1" stop-color="#790000"/></linearGradient><linearGradient id="bkneaenyn" x1="12.9" y1="8.1" x2="9.8" y2="9.42" gradientUnits="userSpaceOnUse"><stop offset=".39" stop-color="#B21116"/><stop offset="1" stop-color="#790000"/></linearGradient><linearGradient id="ckneaenyn" x1="13.34" y1="9.15" x2="10.76" y2="11.02" gradientUnits="userSpaceOnUse"><stop stop-color="#B21116"/><stop offset="1" stop-color="#790000"/></linearGradient><linearGradient id="dkneaenyn" x1="12.21" y1="10.04" x2="11.81" y2="11.09" gradientUnits="userSpaceOnUse"><stop stop-color="#920609"/><stop offset="1" stop-color="#790000"/></linearGradient></defs></svg>