<!-- by TradingView --><svg width="18" height="18" viewBox="0 0 18 18" xmlns="http://www.w3.org/2000/svg"><path d="M0 0h18v18H0V0Z" fill="url(#ae04c0my4)"/><path d="M6.12 3c0 .45.75 1.81 3.65 3.72 2.23 1.46 2.47 4.36 2.07 5.3a9.06 9.06 0 0 0-3.62-3.67C5.44 6.72 6.02 3.54 6.12 3Zm0 4.13c0 .4 1.13 2.01 3.48 3.4 1.95 1.13 2.5 3.66 2.11 4.47-.28-.59-1.44-1.58-3.58-2.92C5.8 10.6 6.01 7.6 6.12 7.13Z" fill="#fff"/><defs><linearGradient id="ae04c0my4" x1="9" y1="0" x2="9" y2="13.6" gradientUnits="userSpaceOnUse"><stop stop-color="#00A5E7"/><stop offset="1" stop-color="#472F91"/></linearGradient></defs></svg>