<!-- by TradingView --><svg width="18" height="18" viewBox="0 0 18 18" xmlns="http://www.w3.org/2000/svg"><path fill="#ED3D35" d="M0 0h18v18H0z"/><path d="M12.35 7.6a5.2 5.2 0 0 0-1.32-.61 8.27 8.27 0 0 0-2.12-.39c-.43-.01-.62.23-.59.72.1 1.4.5 2.7 1.2 3.89.34.58.72 1.14 1.14 1.7a.1.1 0 0 1 .01.11c-.02.05-.05.06-.1.03a.9.9 0 0 1-.27-.27c-.32-.5-.64-.97-.96-1.4a2.75 2.75 0 0 0-1.01-.88c-.46-.2-.84-.12-1.16.26-.4.5-.58 1.07-.52 1.73.05.2-.01.15-.19-.13a.15.15 0 0 0-.1-.07 1.12 1.12 0 0 1-.73-.53c-.05-.07-.1-.09-.17-.05-.25.13-.5.19-.75.18a1.4 1.4 0 0 1-.62-.25 5.94 5.94 0 0 0-.9-.44c-.25-.62-.25-.96-.01-1 .95.33 1.6-.07 1.97-1.19.03-.1 0-.15-.1-.17-.5-.1-.7-.47-.59-1.09.02-.07.05-.09.11-.04.26.2.53.19.78-.05a.23.23 0 0 0 .08-.18c0-.07 0-.16-.02-.3a2.5 2.5 0 0 1 .02-.71c.1-.4.38-.6.84-.6.1 0 .11-.03.06-.11-.6-.82-.63-1.56-.13-2.2.47-.6 1.2-.72 2.21-.35.23.08.57.26 1 .54.27.17.47.3.61.37.05.03.1.01.11-.04.12-.3.32-.48.6-.55h.06c.05.03.07.06.06.1l-.03.06c-.17.13-.33.28-.45.46-.05.07-.04.12.03.17.35.21.82.63 1.4 1.24.31.31.54.54.7.68.36.32.79.62 1.29.88.18.1.25.23.19.4-.06.16-.18.25-.38.28-.44.06-.86 0-1.25-.2Z" fill="#211821"/><path d="m12.27 7.56-.04.18-.1.88c-.5.02-.93-.08-1.3-.3-.04-.01-.06 0-.07.04l.01.05c.2.2.35.39.5.57a.2.2 0 0 0 .1.08c.2.05.43.07.67.04.12-.01.16.04.11.16a4.1 4.1 0 0 0-.19.57 4.96 4.96 0 0 1-1.17 1.97c-.02.02-.02.04 0 .06l.03.02c.2-.26.42-.34.67-.24.08.03.18.1.3.2.14.14.26.22.36.24.2.05.39.04.58-.03.1.47.38 1.07.84 1.79.06.1.04.16-.09.16H6.83c-.04 0-.06-.02-.07-.06l-.1-1.45c-.07-.66.1-1.24.51-1.73.32-.38.7-.47 1.16-.26.35.16.69.46 1.01.89.32.42.64.88.96 1.39.06.1.15.19.27.27.05.03.08.02.1-.03a.1.1 0 0 0 0-.11c-.43-.56-.81-1.12-1.15-1.7a8.87 8.87 0 0 1-1.2-3.89c-.03-.5.16-.73.6-.72.65.03 1.36.16 2.11.39.44.14.85.32 1.24.57Z" fill="#FFFFFE"/><path d="M9.46 7.62c0-.1 0-.2-.03-.3 0-.03 0-.04.03-.05l.04-.01c.04-.02.06 0 .07.04.08.38.3.7.66.96.11.08.1.12-.04.12-.1 0-.2-.04-.27-.14-.06-.07-.13-.08-.2-.02a.35.35 0 0 1-.35.08.16.16 0 0 1-.1-.1L9.2 8a.13.13 0 0 0-.1-.09.9.9 0 0 1-.38-.23.2.2 0 0 1-.05-.16.1.1 0 0 1 .04-.08c.05-.04.07-.02.07.04 0 .03 0 .05.04.07.05.02.07 0 .07-.05a.33.33 0 0 0-.06-.18c-.02-.04-.02-.06.03-.07l.04-.01c.03 0 .05 0 .06.03.03.12.09.23.17.33.05.05.06.04.05-.03l-.03-.17c-.01-.04 0-.08.03-.1.02-.02.04-.02.06-.01l.03.03c.03.1.08.21.14.31.03.06.05.06.05-.01ZM12.13 8.62c.14.18.32.23.55.15l.02.01.01.03c.01.04 0 .07-.03.08l-.22.07a.15.15 0 0 0-.1.1.92.92 0 0 1-.15.24.2.2 0 0 0-.05.12c-.04.53-.02 1 .06 1.44.04.24.17.33.38.28.22-.04.33-.17.36-.37 0-.05 0-.1-.02-.14l-.1-.22c0-.04 0-.07.02-.09.03-.02.06-.02.09 0 .33.22.48.54.44.94-.04.4-.26.66-.66.79a.93.93 0 0 1-.58.03.9.9 0 0 1-.36-.23.99.99 0 0 0-.3-.21c-.25-.1-.47-.02-.67.24l-.03-.02c-.02-.02-.02-.04 0-.05l.13-.16c.55-.68.9-1.28 1.04-1.82.05-.2.11-.38.19-.57.05-.12.01-.17-.1-.16-.25.03-.47.01-.68-.04a.2.2 0 0 1-.1-.08 6.24 6.24 0 0 0-.51-.62c0-.04.03-.05.06-.03.38.21.81.3 1.3.29Z" fill="#211821"/><path d="M10.7 10.25c.16-.03.28.02.38.16.03.04.07.06.13.06h.09c.04.03.05.06.02.1-.5.57-.87.67-1.13.3-.1-.14-.22-.25-.36-.35-.15-.1-.2-.24-.17-.42 0-.02.01-.03.03-.03.04 0 .06.02.06.06 0 .14.07.21.2.2.04 0 .08-.01.12-.04l.2-.19a.12.12 0 0 1 .09-.03c.1.01.17.06.23.14a.1.1 0 0 0 .1.04Z" fill="#B93026"/></svg>