<!-- by TradingView --><svg width="18" height="18" viewBox="0 0 18 18" xmlns="http://www.w3.org/2000/svg"><path fill="#F0F3FA" d="M0 0h18v18H0z"/><path fill-rule="evenodd" d="M3 5v7.6c1.73.06 3.16.77 3.29.84-.73.14-1.32.26-1.85.48a21.41 21.41 0 0 1 9.49.08c-1.4-.63-4.35-.75-5.37-.75 2.33-1.57 5.26-1.99 6.44-2V5H3Zm3.63 6.74c-1.48 0-2.74.52-3.19.78a7.8 7.8 0 0 1 3.04.9c.27-.06 1.64-.14 1.8-.14.14-.15 1.12-.7 1.6-.95a9.4 9.4 0 0 0-3.25-.59ZM12.5 9a1.5 1.5 0 1 0 0-3 1.5 1.5 0 0 0 0 3Z" fill="url(#amhphymwm)"/><defs><linearGradient id="amhphymwm" x1="3" y1="9.04" x2="15" y2="9.04" gradientUnits="userSpaceOnUse"><stop stop-color="#563F93"/><stop offset="1" stop-color="#05A09C"/></linearGradient></defs></svg>