<!-- by TradingView --><svg xmlns="http://www.w3.org/2000/svg" width="18" height="18" viewBox="0 0 18 18"><path fill="#F0F3FA" d="M0 0h18v18H0z"/><path d="M8.27 11c0 .35.12 1.1.55 1.65l.02.04c-.25.84-1.06 1-1.45.98a1.98 1.98 0 0 1-2-2.02c-.04-2.02 2.2-4.17 3.34-4.99l-.09-.07C5 8.72 4.44 11.33 4.5 12.17c.06.83.57 1.86 2.21 1.83C8 13.97 8.76 13.32 9 12.98c.23.34 1 1 2.29 1.02 1.64.03 2.15-1 2.2-1.83.06-.84-.63-3.54-4.28-5.66l-.05.07c1.13.82 3.49 3.05 3.45 5.08.01.63-.37 1.92-2 2.02-.39.02-1.2-.15-1.45-1l.02-.03c.43-.55.55-1.3.55-1.65h-.64c0 .2-.04.52-.09.82a6.04 6.04 0 0 1-.09-.82h-.64z" fill="#23499D"/><path d="M10.23 4.5c-.02-.98-.95-2.08-1.4-2.5.12.7-.25 1.27-.42 1.52-.2.33-.7.95-.7 1.62 0 .6.85 1.41 1.32 1.8.01-.12.18-.5.62-1.03.55-.66.57-1.17.58-1.41z" fill="url(#afi4lmvak)"/><path d="M9.45 5.55a1.78 1.78 0 0 0-.8-1.52c.02.17.02.57-.13.88-.16.31-.2.63-.2.74-.02.54.45 1.05.7 1.23-.03-.12-.02-.4.17-.62.18-.23.25-.57.26-.71z" fill="url(#bfi4lmvak)"/><path d="M8.9 7.51c-1.37.12-1.79 1.34-1.83 1.94h.01l1.28.64v.34h-.72v.32h2.72v-.32h-.72v-.34l1.28-.63C10.79 7.86 9.6 7.5 9.05 7.5l-.07-.62-.07.62z" fill="#B2D2F9"/><defs><linearGradient id="afi4lmvak" x1="8.97" y1="2" x2="8.97" y2="6.93" gradientUnits="userSpaceOnUse"><stop stop-color="#2F2483"/><stop offset="1" stop-color="#F7F7FA"/></linearGradient><linearGradient id="bfi4lmvak" x1="8.89" y1="4.03" x2="8.89" y2="6.88" gradientUnits="userSpaceOnUse"><stop stop-color="#049DE1"/><stop offset=".48" stop-color="#65A5D7"/><stop offset=".74" stop-color="#F6F6FA"/></linearGradient></defs></svg>