<!-- by TradingView --><svg width="18" height="18" fill="none" xmlns="http://www.w3.org/2000/svg"><path fill="url(#a)" d="M0 0h18v18H0z"/><path fill-rule="evenodd" clip-rule="evenodd" d="M7 4H5v6.409h.02c.19 1.868 1.641 3.36 3.48 3.591v-2.03A2.016 2.016 0 0 1 7 10.014c0-.94.637-1.731 1.5-1.955V5.989a3.95 3.95 0 0 0-1.5.508V4Zm4 6.015c0 .94-.637 1.73-1.5 1.954V14c1.973-.248 3.5-1.947 3.5-4.006 0-2.058-1.527-3.757-3.5-4.005v2.07a2.016 2.016 0 0 1 1.5 1.956Z" fill="#fff"/><defs><linearGradient id="a" x1="3.349" y1="3.122" x2="21.904" y2="24.434" gradientUnits="userSpaceOnUse"><stop stop-color="#1A1E21"/><stop offset="1" stop-color="#06060A"/></linearGradient></defs></svg>