<!-- by TradingView --><svg width="18" height="18" viewBox="0 0 18 18" xmlns="http://www.w3.org/2000/svg"><path fill="#F0F3FA" d="M0 0h18v18H0z"/><path d="M8.72 5.54h.56c.06 0 .1-.06.1-.12s-.04-.15-.1-.15h-.56v.27zm0 .54h.57c.07 0 .13-.07.13-.14a.12.12 0 0 0-.13-.13h-.57v.27zm.89-.42a.4.4 0 0 1 .11.29.4.4 0 0 1-.39.4h-.9V5h.89c.2 0 .37.2.37.4 0 .1-.03.19-.08.26zM5.48 8.65h.56c.06 0 .11-.08.11-.15 0-.07-.05-.17-.1-.17h-.57v.32zm0 .62h.58c.07 0 .12-.08.12-.17 0-.08-.05-.14-.12-.14h-.58v.31zm.9-.5c.07.1.11.21.11.34 0 .26-.18.48-.4.48h-.9V8.02h.9c.2 0 .37.22.37.47a.5.5 0 0 1-.09.29zm3.42-.95h-.33l-.13-.3h-.66l-.15.3H8.2l.66-1.37h.3l.64 1.37zM9.01 6.8l-.22.45h.44l-.22-.45zm-.75 2.79h-.33l-.13-.31h-.66L7 9.59h-.33l.66-1.57h.3l.64 1.57zm-.79-1.21l-.21.58h.43l-.22-.58zm.73-.36h.37l.44.71.44-.71h.38l-.66 1.02v.55h-.31v-.55L8.2 8.02zm3.17 0v.31h-.89v.32h.89v.31h-.89v.31h.89v.32h-1.18V8.02h1.18zM9.6 10v.28h-.88v.28h.89v.29h-.89v.28h.89v.29H8.43V10H9.6zm2.61-1.04H12v.63h-.33V8.02h.79c.22 0 .4.22.4.5 0 .23-.12.38-.29.44l.38.63h-.37l-.37-.63zm.22-.63H12v.32h.43c.07 0 .12-.05.12-.13 0-.09-.05-.19-.12-.19zm-3.45 4.22h-.26v.57h-.28V11.7h.79c.22 0 .4.2.4.45a.4.4 0 0 1-.29.4l.38.57h-.37l-.37-.57zm.22-.57h-.48v.28h.48c.07 0 .12-.03.12-.11s-.05-.17-.12-.17z" fill="#00354F"/><path d="M14 8.69a5 5 0 0 0-9.99 0 4.97 4.97 0 0 0 5 4.69 4.39 4.39 0 0 1 0-8.76 5 5 0 0 1 4.98 4.69 5.13 5.13 0 0 0 0-.62z" fill="#56D400"/><path d="M4.01 9.31a5 5 0 0 0 9.98 0 4.94 4.94 0 0 0-.96-2.66A5 5 0 0 0 9 4.62a4.39 4.39 0 0 1 0 8.76A5 5 0 0 1 4.01 8.7a5.13 5.13 0 0 0 0 .62z" fill="#00BDFF"/></svg>