<!-- by TradingView --><svg width="18" height="18" viewBox="0 0 18 18" xmlns="http://www.w3.org/2000/svg"><path fill="#F0F3FA" d="M0 0h18v18H0z"/><path d="M14.38 12a4.7 4.7 0 0 1-1.64-1.3 3.23 3.23 0 0 1-.74-2c0-.54.1-1.06.3-1.57.21-.56.58-.9 1.1-1.06.45-.12.97-.09 1.54.12.04.02.06.05.06.1v.83c0 .03-.01.04-.04.03a1.76 1.76 0 0 0-.6-.2c-.52-.06-.9.15-1.15.62-.1.2-.18.43-.21.68-.04.25 0 .53.1.84.1.27.22.52.4.75.4.54.9 1 1.48 1.38.02.02.02.03 0 .05l-.5.7c-.03.03-.06.04-.1.02Z" fill="#29368F"/><path fill-rule="evenodd" d="M4 6.05v5.88l1.8-.01c.45 0 .84-.12 1.19-.35.29-.18.47-.41.56-.7.12-.38.1-.77-.07-1.16a1.78 1.78 0 0 0-.75-.89c-.02 0-.02-.02 0-.03.46-.48.66-.97.61-1.48-.09-.82-.54-1.25-1.36-1.27H4Zm2.1 3.43c-.27-.2-.6-.37-.95-.48-.03-.01-.04-.04-.03-.07l.27-.71c.01-.04.04-.06.08-.04h.01c.31.12.52.15.61.07.17-.14.24-.38.21-.75 0-.19-.07-.33-.18-.4-.1-.07-.24-.1-.43-.1h-.66c-.02 0-.03.02-.03.04v3.9c0 .04.01.05.04.05h.84c.47-.01.68-.26.63-.74-.03-.34-.17-.6-.4-.77Z" fill="#29368F"/><path fill-rule="evenodd" d="M10.68 8.83c-.03-.02-.04-.04-.01-.07.2-.18.35-.4.45-.63a1.7 1.7 0 0 0-.1-1.58 1.1 1.1 0 0 0-.64-.48A2.24 2.24 0 0 0 9.8 6c-.57 0-1.15 0-1.74.02-.03 0-.04.01-.05.04L8 6.18c0 2.04 0 3.96.02 5.77 0 .03 0 .04.04.04H9.8c.42-.02.78-.13 1.08-.33.58-.39.77-.95.59-1.69a1.86 1.86 0 0 0-.8-1.14Zm-1.31-.59c.01-.03.04-.05.08-.05l.2.05c.1.04.17.06.22.06.18-.01.3-.13.37-.34.05-.18.06-.36.02-.56-.05-.24-.2-.37-.46-.4a6.8 6.8 0 0 0-.76.01c-.03 0-.04.02-.04.05v3.9a18.91 18.91 0 0 0 .74.04c.15 0 .29-.02.4-.08.16-.06.25-.16.28-.3.08-.31.04-.61-.11-.88a1.1 1.1 0 0 0-.32-.33 3.89 3.89 0 0 0-.82-.4c-.04-.02-.05-.05-.04-.09.07-.26.15-.48.24-.68Z" fill="#70AEDD"/></svg>