<!-- by TradingView --><svg width="18" height="18" viewBox="0 0 18 18" xmlns="http://www.w3.org/2000/svg"><path fill="#F0F3FA" d="M0 0h18v18H0z"/><path d="M6.79 14A5.08 5.08 0 0 1 2 9c0-2.76 2.23-5 5.09-5 2.2 0 4.16 1.13 4.91 3h-1.71c-.64-1.16-1.78-1.5-3.2-1.5C5.02 5.5 3.5 6.93 3.5 9c0 2.08 1.43 3.5 3.5 3.5.26 0 .51-.03.75-.08L6.8 14Z" fill="#C4BBB4"/><path d="M8.5 13H15v1H7.54l.96-1Z" fill="#39285B"/><path d="m15.4 8 .41 2c.03.13.05.33.19.4v.6h-1.3v-.6c.08-.04.1-.1.1-.18h-.6c0 .08.03.14.12.18v.6H13v-.6c.1-.1.13-.21.15-.34L13.6 8h1.8Zm-.73 1.5-.17-1-.18 1h.35ZM9 8h1.8c.8 0 1.2.3 1.2.98v1.08c0 .66-.43.94-1.2.94H9V8Zm1.27 2.25c.29 0 .53-.1.53-.33v-.94c0-.2-.3-.24-.52-.24h-.08v1.5h.07ZM5 8h1.83C7.45 8 8 8.17 8 8.76c0 .33-.16.55-.54.68.43.09.54.36.54.7 0 .64-.54.86-1.2.86H5V8Zm1.26 1.15c.27 0 .54-.07.54-.22 0-.18-.34-.21-.53-.21H6.2v.43h.06ZM6.2 10.3h.04c.3 0 .56-.08.56-.29 0-.2-.3-.25-.55-.25H6.2v.54Z" fill="#F11922"/></svg>