<!-- by TradingView --><svg width="18" height="18" viewBox="0 0 18 18" xmlns="http://www.w3.org/2000/svg"><path fill="#F0F3FA" d="M0 0h18v18H0z"/><path d="M5.7 12H3.9l1.05-1.17h1.8L5.7 12ZM7.05 10.25h-1.8L6.3 9.08h1.8l-1.05 1.17ZM8.4 8.5H6.6l1.05-1.17h1.8L8.4 8.5Z" fill="#DD1518"/><path d="M9.75 7.33 8.7 8.65l3 3.35h2.25l-4.2-4.67ZM6.15 12l.9-1.17L8.1 12H6.15ZM8.4 9.08 7.2 10.4 8.7 12h2.4L8.4 9.08Z" fill="#044885"/><path d="M14.12 12c.37-.62.58-1.31.58-2.04 0-2.54-2.5-4.67-5.7-4.67S3.3 7.42 3.3 9.96c0 .73.2 1.42.58 2.04h-.35A4.23 4.23 0 0 1 3 9.96C3 7.22 5.69 5 9 5s6 2.22 6 4.96c0 .73-.19 1.42-.53 2.04h-.35Z" fill="#044885"/></svg>