<!-- by TradingView --><svg width="18" height="18" viewBox="0 0 18 18" xmlns="http://www.w3.org/2000/svg"><path fill="#F0F3FA" d="M0 0h18v18H0z"/><path fill-rule="evenodd" d="M14 6.5 9 4 4 6.5v5L9 14l5-2.5v-5Zm-.67.37L9 4.74 4.67 6.87v4.26L9 13.26l4.33-2.13V6.87Z" fill="#3F403B"/><path d="M5.33 7.25V8.5l.67.4v.5l-.67.49v1.02l3.64 1.91 3.7-1.91V9.89L12 9.55v-.66l.67-.39V7.25l-3.7-2.07-3.64 2.07Z" fill="url(#a1pp4aa5c)"/><path d="M8.83 6.06c-2.9 0-3.11 1.24-3.11 1.38.08.16.47.59 1.6.8a1.77 1.77 0 0 1 1.51 1.45V14h.36V9.86c0-.77.92-1.34 1.64-1.63.72-.29 1.2-.55 1.2-.93 0-.39-.29-1.24-3.2-1.24Z" fill="#D4403E"/><path d="m12.08 9.56-2 .94.09.73 2.5-1.37-.59-.3Zm-6.75.32 2.5 1.28v-.63L5.9 9.46l-.58.4v.02Z" fill="#A2A89A"/><defs><linearGradient id="a1pp4aa5c" x1="9" y1="5.18" x2="9" y2="12.82" gradientUnits="userSpaceOnUse"><stop stop-color="#857F71"/><stop offset="1" stop-color="#403E36"/></linearGradient></defs></svg>