<!-- by TradingView --><svg width="18" height="18" viewBox="0 0 18 18" xmlns="http://www.w3.org/2000/svg"><path fill="#F0F3FA" d="M0 0h18v18H0z"/><path d="M5 5.8c0-.44.36-.8.8-.8h6.4c.44 0 .8.36.8.8v2.05a.8.8 0 0 0-.34-.26L8.42 6.05a.8.8 0 0 0-1.05.47l-1.52 4.11a.8.8 0 0 0 .47 1.05l2.63 1-1.7-1.76a.8.8 0 0 1-.02-1.14l1.91-1.87a.8.8 0 0 1 1.14-.01l2.01 1.85c.13.12.2.28.23.44L13 8.95v3.24a.8.8 0 0 1-.8.81h-.78a.8.8 0 0 0 .1-.2l.71-1.84-1.91 1.94c-.25.1-.61.1-1.03.1H5.8a.8.8 0 0 1-.81-.8V5.8Z" fill="url(#a)"/><defs><linearGradient id="a" x1="12.61" y1="5" x2="5" y2="12.68" gradientUnits="userSpaceOnUse"><stop stop-color="#D33232"/><stop offset="1" stop-color="#862027"/></linearGradient></defs></svg>