<!-- by TradingView --><svg width="18" height="18" viewBox="0 0 18 18" xmlns="http://www.w3.org/2000/svg"><path fill="#F0F3FA" d="M0 0h18v18H0z"/><path fill-rule="evenodd" d="M9 5H4v1.5h1.88A4 4 0 0 0 9 13h5v-1.5h-1.88A4 4 0 0 0 9 5Zm1.25 4.23c.6 0 1.02-.28 1.24-.5a2.5 2.5 0 0 0-4.98.44l.05-.04c.32-.23.78-.47 1.36-.47.57 0 .9.15 1.21.3h.01c.3.14.59.27 1.1.27Zm0 .32c.54 0 .96-.19 1.25-.4 0 .13-.03.27-.06.4a1.7 1.7 0 0 1-1.2.46c-.51 0-.8-.13-1.1-.26-.32-.15-.65-.3-1.22-.3-.53 0-.96.2-1.27.4l-.09-.3.2-.16c.27-.2.67-.4 1.16-.4.5 0 .78.12 1.08.26.32.15.66.3 1.25.3Zm1 .54c-.26.14-.6.25-1 .25-.6 0-.93-.16-1.24-.3H9c-.3-.14-.58-.27-1.08-.27-.47 0-.86.19-1.14.39l.14.23a2.2 2.2 0 0 1 1-.24c.57 0 .9.15 1.21.29h.01c.3.14.59.27 1.1.27.28 0 .51-.06.7-.14.13-.14.23-.3.32-.48Zm-1 .94.23-.01a2.5 2.5 0 0 1-3.36-.37c.23-.1.5-.18.8-.18.5 0 .78.13 1.08.26.32.15.66.3 1.25.3Z" fill="#0257A8"/></svg>