<!-- by TradingView --><svg width="18" height="18" viewBox="0 0 18 18" xmlns="http://www.w3.org/2000/svg"><path fill="#F0F3FA" d="M0 0h18v18H0z"/><path fill-rule="evenodd" d="M5 4v6.9C5 13.18 6.8 15 9 15s4-1.83 4-4.1V4H5Zm.62.97v5.65A3.37 3.37 0 0 0 9 13.97c1.87 0 3.38-1.5 3.38-3.35V4.97H5.62Z" fill="#2C3F84"/><path fill-rule="evenodd" d="M6.92 10.8h-.69v.05A2.84 2.84 0 0 0 9 13.7c1.5 0 2.74-1.27 2.77-2.85v-.06h-.62v.06c0 1.2-.94 2.2-2.1 2.2h-.04a2.15 2.15 0 0 1-2.09-2.2v-.06Zm-.49.76c-.06-.21-.09-.43-.1-.66h.5c0 .15.02.3.05.45l-.45.21Zm.03.1c.07.23.17.45.29.65l.36-.33a2.36 2.36 0 0 1-.2-.53l-.45.21Zm.7.41-.35.32c.12.19.26.36.43.51l.27-.38a2.3 2.3 0 0 1-.35-.45Zm.42.52-.27.38c.18.15.37.28.58.38l.13-.45a2.2 2.2 0 0 1-.44-.31Zm.53.35-.13.45c.23.1.48.17.74.2v-.46a2.1 2.1 0 0 1-.61-.19Zm.71.2v.45a2.58 2.58 0 0 0 .44 0v-.45h-.44Zm.54-.01v.45c.26-.04.5-.12.73-.22l-.11-.42c-.2.09-.4.15-.62.19Zm.7-.24.12.42c.2-.1.4-.24.56-.39l-.24-.34a2.2 2.2 0 0 1-.43.3Zm.5-.38.25.34c.16-.15.3-.32.42-.5l-.31-.29c-.1.17-.22.32-.35.45Zm.4-.54.32.29c.11-.2.2-.41.27-.63l-.38-.18c-.05.18-.12.36-.2.52Zm.23-.62.39.18c.05-.2.08-.42.09-.63h-.42c0 .15-.02.3-.06.45Z" fill="#2C3F84"/><path fill-rule="evenodd" d="M7.8 10.8h-.4v.02c.01.88.74 1.6 1.64 1.6.9 0 1.62-.72 1.64-1.6v-.03h-.37v.03c0 .68-.55 1.22-1.24 1.22h-.02c-.69 0-1.24-.54-1.24-1.22v-.03Zm-.28.42a1.54 1.54 0 0 1-.06-.37h.29c0 .09.01.17.03.25l-.26.12Zm.01.06c.05.12.1.24.18.35l.2-.18c-.04-.09-.09-.19-.11-.29l-.27.12Zm.42.22-.21.18c.07.1.16.2.25.28l.17-.2a1.29 1.29 0 0 1-.21-.26Zm.25.3-.16.2c.1.09.22.16.34.21l.08-.25a1.3 1.3 0 0 1-.26-.17Zm.3.19-.07.25c.14.05.29.09.44.1v-.25a1.3 1.3 0 0 1-.36-.1Zm.43.1v.26a1.65 1.65 0 0 0 .26 0v-.25h-.26Zm.32 0v.25c.15-.02.3-.06.44-.12l-.07-.24a1.3 1.3 0 0 1-.37.1Zm.42-.13.07.23c.12-.06.23-.13.33-.21l-.15-.2a1.3 1.3 0 0 1-.25.18Zm.3-.21.14.19c.1-.09.18-.18.25-.28l-.19-.16c-.06.09-.12.17-.2.25Zm.23-.3.19.16c.06-.11.12-.23.16-.35l-.23-.1c-.02.1-.07.2-.12.29Zm.14-.35.22.1c.04-.11.05-.23.06-.35h-.25c0 .09-.01.17-.03.25Z" fill="#2C3F84"/><path opacity=".3" fill="#2C3F84" d="M6 6h6v2H6z"/></svg>