<!-- by TradingView --><svg width="18" height="18" viewBox="0 0 18 18" xmlns="http://www.w3.org/2000/svg"><path fill="#F0F3FA" d="M0 0h18v18H0z"/><path d="M4 5.32C4 4.59 4.55 4 5.23 4h7.54c.68 0 1.23.59 1.23 1.32v7.36c0 .73-.55 1.32-1.23 1.32H5.44C4.76 14 4 13.4 4 12.68V5.32Z" fill="url(#a)"/><path d="M11.14 8.75c-.38-.25-.82-.39-1.33-.41a10.6 10.6 0 0 0-3.64.44c-.18-.02-.3-.1-.35-.25a.12.12 0 0 1 0-.1c.19-.33.61-.59 1.28-.79l1.12-.3a.83.83 0 0 1 .36 0c.17.04.3.06.35.05.18 0 .3-.04.37-.1.08-.08.12-.19.13-.34.02-.35-.03-.61-.14-.8-.04-.07-.11-.12-.23-.15-.23-.06-.42-.04-.56.06a.87.87 0 0 0-.21.33l-.06.12a.34.34 0 0 1-.17.16l-1.02.4c-.1.04-.2.02-.28-.06-.2-.21-.18-.43.07-.64a3.15 3.15 0 0 1 .8-.41c.43-.18.75-.51.95-.98.04-.09.08-.24.13-.45.03-.17.06-.29.09-.36.09-.06.16-.05.21 0 .03.04.06.1.08.2.08.35.17.63.27.83.14.25.33.44.58.56l1.14.57a.5.5 0 0 1 .13.12c.06.07.07.14.02.2a.49.49 0 0 1-.17.18c-.16.11-.26.2-.33.26-.1.11-.15.23-.16.35 0 .04 0 .07.04.1.08.09.19.15.32.2.42.13.72.27.9.42.2.15.24.35.13.6-.02.03-.04.04-.08.04l-.74-.05Z" fill="#05B2ED"/><path d="M8.66 6.75c-.01.2.08.38.22.39.13.01.26-.14.27-.34.02-.2-.08-.38-.21-.39-.14-.01-.26.14-.28.34ZM4.13 12.07c-.03-.04-.03-.08-.02-.1.01-.03.04-.04.08-.04.55-.03 1.09-.05 1.62-.09.05 0 .07-.03.07-.08v-.92c0-.1.02-.17.05-.2.05-.06.1-.08.18-.07a.2.2 0 0 1 .15.11c.08.14.1.4.09.8l-.01.34c0 .09.04.14.12.16h.04c.07-.04.1-.08.1-.11l-.01-1.84a.09.09 0 0 0-.05-.08.08.08 0 0 0-.08 0l-.07.04c-.47.28-.78.34-.9.18-.13-.14-.08-.28.14-.4a5.19 5.19 0 0 1 2.1-.75c.05-.01.09 0 .12.04.02.03.03.07.02.11-.02.1-.12.18-.3.24l-.06.02c-.25.09-.24.16.02.22.1.02.23.03.4.03h1.71c.05 0 .06.02.03.06l-.1.1a.14.14 0 0 1-.1.05l-1.89.09c-.12 0-.33-.01-.62-.06-.07-.01-.1.02-.1.09v1.84c0 .06.03.08.09.06l.08-.04c.1-.03.14-.1.13-.21a7.83 7.83 0 0 1 0-.91c.03-.25.11-.27.26-.08.1.13.15.34.17.63.02.24.01.46-.02.66-.01.07-.05.11-.11.13-.15.04-.3.06-.44.06-.72 0-1.28 0-1.66.02-.21.01-.62-.02-1.23-.1Z" fill="#05B2ED"/><path d="m9.83 13.43 1.64.03c.03 0 .06.01.09.04.16.16.18.32.05.5h-6.2C4.54 13.98 4 13.74 4 12.62l3.6-.17c.05 0 .08.01.1.05a.1.1 0 0 1 0 .11c-.16.22-.35.4-.6.53a.1.1 0 0 1-.09 0 .86.86 0 0 1-.26-.2c-.05-.07-.12-.09-.2-.06l-.45.18a.06.06 0 0 0-.03.03.64.64 0 0 0-.03.43c.01.07.05.1.12.1l1.47-.08c.03 0 .04-.02.06-.05a.07.07 0 0 0-.01-.07c-.11-.16-.1-.3.03-.45.24-.25.33-.58.3-.97a7.3 7.3 0 0 0-.08-.56c-.05-.33-.01-.67.13-1a.12.12 0 0 1 .1-.08c.12 0 .18.06.18.2 0 .07.04.19.03.36v1.39c.04.33.02.65-.04.97-.02.12.02.17.13.17l.29-.02c.1 0 .15-.06.14-.17a9.4 9.4 0 0 0-.08-.93c0-.1.01-.16.06-.2.03-.03.06-.02.08.02.14.35.18.74.12 1.15 0 .05.02.07.05.07l.71.05Z" fill="#05B2ED"/><path d="M11.3 9c.21 0 .44 0 .66.02.17 0 .3.06.37.15.08.08.17.2.26.35.02.03.05.04.09.03.1-.01.17-.06.24-.13a.1.1 0 0 1 .1-.03l.05.02c.01 0 .02 0 .01.02l-.53.87a.19.19 0 0 1-.15.1l-.93.06c-.18.02-.2-.03-.06-.15a.6.6 0 0 1 .17-.05c.04 0 .06-.03.05-.07-.01-.18-.09-.3-.23-.38-.03-.02-.06-.01-.09.02-.06.07-.2.3-.43.67-.08.13-.2.13-.35 0l-.54-.3c-.06-.04-.08-.09-.05-.15.11-.28.26-.53.43-.77.15-.2.46-.3.92-.27Zm1.42 2.75-.4-.7c-.06-.12-.03-.2.08-.27l.64-.32c.11-.06.2-.03.26.1.02.05.1.2.25.43.19.32.19.63 0 .93-.25.4-.42.67-.52.8-.09.12-.35.2-.78.23h-.05c-.05 0-.07.03-.07.08v.2c0 .13-.03.14-.1.03-.22-.39-.36-.6-.4-.66-.05-.09-.07-.17-.06-.24 0-.04.04-.12.1-.23l.02-.04c.13-.25.28-.49.44-.7.03-.06.05-.05.05.01v.28c0 .1.05.15.15.15h.34c.02 0 .03 0 .05-.02a.05.05 0 0 0 0-.06Zm-1.97-.35-.44-.75c-.05-.07-.1-.1-.14-.1a10.25 10.25 0 0 1-1.13.02l-.02.02c-.03.03-.03.05.01.07l.3.1c.05.02.06.05.05.1l-.1.25c-.06.12-.1.2-.1.27-.02.1 0 .22.05.34.2.45.46.84.8 1.16.4.06.79.08 1.16.03.04 0 .06-.03.06-.07v-.8c0-.1-.05-.15-.14-.15h-.88c-.07 0-.09-.03-.05-.1l.15-.28c.05-.07.1-.1.18-.05l.23.14c.07.04.1.01.07-.07a.6.6 0 0 0-.06-.13Z" fill="#F0F3FA"/><path d="M4.81 13.05c-.01-.1.03-.15.12-.15h.2c.1 0 .14.05.14.15v.26c0 .13-.06.17-.17.14-.16-.05-.26-.18-.29-.4Z" fill="#173E93"/><defs><linearGradient id="a" x1="4.5" y1="8.68" x2="13.47" y2="8.88" gradientUnits="userSpaceOnUse"><stop stop-color="#173E93"/><stop offset="1" stop-color="#2591CE"/></linearGradient></defs></svg>