<!-- by TradingView --><svg width="18" height="18" fill="none" xmlns="http://www.w3.org/2000/svg"><path fill="#F0F3FA" d="M0 0h18v18H0z"/><path fill-rule="evenodd" clip-rule="evenodd" d="M8.26 8.367c.357-.258.58-.592.63-.94C9.014 6.644 8.26 6 7.2 6H5.096c-.662 0-1.267.402-1.342.888l-.522 3.224c-.082.493.39.888 1.052.888h2.113c1.135 0 2.17-.69 2.311-1.533.075-.41-.091-.812-.447-1.1ZM4.666 9h2.08c.464 0 .787.133.737.475-.058.341-.472.525-.936.525h-2.08l.036-.173c.056-.27.157-.765.163-.827Zm2.229-1H4.823c.009-.045.054-.325.096-.577.034-.213.066-.406.07-.423h2.079c.38 0 .646.146.605.426-.058.281-.406.574-.78.574Zm7.612.28c.265-.248.43-.534.48-.828.125-.795-.629-1.452-1.69-1.452h-2.103c-.663 0-1.26.417-1.342.912L9.18 11h1.234l.348-2h1.54l.986 2h1.359s-1.002-2.126-1.036-2.211c.34-.108.655-.278.895-.51Zm-.754-.828c-.05.286-.389.548-.77.548H10.91c.009-.046.054-.321.095-.571l.07-.43h2.08c.373 0 .646.168.596.453ZM14.3 13l.141-1H4.276c-.72 0-1.035-.144-1.234-.522-.025.092-.042.2-.042.301-.016.734.456 1.229 1.384 1.22l9.915.001Z" fill="#0069B4"/></svg>