<!-- by TradingView --><svg width="18" height="18" viewBox="0 0 18 18" xmlns="http://www.w3.org/2000/svg"><path fill="url(#avjjvitxs)" d="M0 0h18v18H0z"/><path d="M4 7.83v.24c0 .2.15.34.33.34h3.03c.26 0 .46-.21.46-.47a.48.48 0 0 0-.06-.25L6.2 5.05a.33.33 0 0 0-.44-.13l-.2.11a.34.34 0 0 0-.13.47l1.11 2.03H4.33c-.18 0-.33.11-.33.3Z" fill="url(#bvjjvitxs)"/><path d="M14 7.83v.24c0 .2-.15.34-.33.34h-3.03a.47.47 0 0 1-.46-.47c0-.09.02-.17.06-.25l1.55-2.64c.1-.16.29-.21.44-.13l.2.11c.17.1.22.3.13.47l-1.11 2h2.22c.18 0 .33.14.33.33Z" fill="url(#cvjjvitxs)"/><path d="m10.66 4.06.22.12c.17.1.23.3.13.46l-1.6 2.65a.5.5 0 0 1-.86 0L6.99 4.62a.33.33 0 0 1 .12-.45l.2-.12c.17-.1.39-.05.49.12L9 6.13l1.18-1.95c.1-.16.32-.21.48-.12Z" fill="url(#dvjjvitxs)"/><path d="M14 10.17v-.24a.33.33 0 0 0-.33-.34h-3.03a.47.47 0 0 0-.46.47c0 .09.02.17.06.25l1.55 2.64c.1.16.29.21.44.13l.2-.11c.17-.1.22-.3.13-.47l-1.11-2.03h2.22c.18 0 .33-.11.33-.3Z" fill="url(#evjjvitxs)"/><path d="M4 10.17v-.24c0-.2.15-.34.33-.34h3.03c.26 0 .46.21.46.47 0 .09-.02.17-.06.25L6.2 12.95a.33.33 0 0 1-.44.13l-.2-.11a.34.34 0 0 1-.13-.47l1.11-2.03H4.33c-.18 0-.33-.11-.33-.3Z" fill="url(#fvjjvitxs)"/><path d="m7.34 13.94-.22-.12a.33.33 0 0 1-.13-.46l1.6-2.65a.5.5 0 0 1 .86 0l1.56 2.67c.1.16.04.35-.12.45l-.2.12a.36.36 0 0 1-.49-.12L9 11.87l-1.18 1.95a.36.36 0 0 1-.48.12Z" fill="url(#gvjjvitxs)"/><defs><linearGradient id="avjjvitxs" x1="3.35" y1="3.12" x2="21.9" y2="24.43" gradientUnits="userSpaceOnUse"><stop stop-color="#1A1E21"/><stop offset="1" stop-color="#06060A"/></linearGradient><linearGradient id="bvjjvitxs" x1="4.96" y1="5.66" x2="7.87" y2="8.02" gradientUnits="userSpaceOnUse"><stop stop-color="#EC681A"/><stop offset="1" stop-color="#F2A209"/></linearGradient><linearGradient id="cvjjvitxs" x1="13.04" y1="5.66" x2="10.13" y2="8.02" gradientUnits="userSpaceOnUse"><stop stop-color="#EC681A"/><stop offset="1" stop-color="#F2A209"/></linearGradient><linearGradient id="dvjjvitxs" x1="8.21" y1="3.83" x2="8.8" y2="7.55" gradientUnits="userSpaceOnUse"><stop stop-color="#EC681A"/><stop offset="1" stop-color="#F2A209"/></linearGradient><linearGradient id="evjjvitxs" x1="13.04" y1="12.34" x2="10.13" y2="9.98" gradientUnits="userSpaceOnUse"><stop stop-color="#EC681A"/><stop offset="1" stop-color="#F2A209"/></linearGradient><linearGradient id="fvjjvitxs" x1="4.96" y1="12.34" x2="7.87" y2="9.98" gradientUnits="userSpaceOnUse"><stop stop-color="#EC681A"/><stop offset="1" stop-color="#F2A209"/></linearGradient><linearGradient id="gvjjvitxs" x1="9.79" y1="14.17" x2="9.2" y2="10.45" gradientUnits="userSpaceOnUse"><stop stop-color="#EC681A"/><stop offset="1" stop-color="#F2A209"/></linearGradient></defs></svg>