<!-- by TradingView --><svg width="18" height="18" viewBox="0 0 18 18" xmlns="http://www.w3.org/2000/svg"><path fill="#F0F3FA" d="M0 0h18v18H0z"/><path d="M11.65 4c.74.11 1.31.42 1.73.92.66.8.8 1.72.4 2.76-.1.24-.28.52-.55.84-.27.32-.27.64 0 .97a2.65 2.65 0 0 1 .13 3.54c-.4.5-.97.82-1.7.97h-.71a2.84 2.84 0 0 1-2.32-2.08c-.05-.17-.16-.26-.32-.26-.08 0-.2.03-.35.1a3.4 3.4 0 0 1-2.46.35c-1.4-.36-2.23-1.28-2.5-2.77V8.6c.27-1.38 1.01-2.27 2.23-2.68.99-.33 2-.2 2.88.34a.36.36 0 0 0 .5-.13c.13-.23.2-.51.3-.71A2.76 2.76 0 0 1 10.93 4h.73Zm1.13 2.64c0-.39-.15-.76-.43-1.04A1.5 1.5 0 0 0 9.8 6.64a1.5 1.5 0 0 0 2.97 0ZM8.15 8.96c0-.49-.2-.96-.54-1.3a1.87 1.87 0 0 0-3.17 1.3 1.83 1.83 0 0 0 .54 1.3 1.87 1.87 0 0 0 3.17-1.3Zm4.63 2.4c0-.39-.15-.76-.43-1.04a1.5 1.5 0 0 0-2.54 1.04 1.5 1.5 0 0 0 2.97 0Z" fill="url(#a)"/><defs><linearGradient id="a" x1="3" y1="9" x2="14" y2="9" gradientUnits="userSpaceOnUse"><stop stop-color="#F05722"/><stop offset=".54" stop-color="#FED159"/><stop offset="1" stop-color="#F79C3D"/></linearGradient></defs></svg>