<!-- by TradingView --><svg width="18" height="18" viewBox="0 0 18 18" xmlns="http://www.w3.org/2000/svg"><path fill="url(#awkprmq5j)" d="M0 0h18v18H0z"/><path d="m9.68 7.02.66-.02.05.25c-.2.02-.33.04-.38.06-.04.02-.06.07-.06.15v1.36h2.09V7.46c0-.07-.03-.12-.08-.15a.78.78 0 0 0-.3-.06L11.63 7l.66.02.68-.02.04.25c-.2.02-.34.04-.4.06-.04.02-.06.07-.06.15v3.08c0 .07.02.12.07.15s.15.05.3.06l.05.25-.65-.02-.69.02-.04-.25c.24-.03.38-.05.4-.07.04-.03.06-.07.06-.13V9.12h-2.1v1.42c0 .07.03.12.08.15s.14.05.3.06l.04.25-.64-.02-.68.02-.04-.25c.2-.02.33-.04.37-.06.05-.02.08-.07.08-.15V7.46c0-.07-.03-.12-.08-.15a.72.72 0 0 0-.28-.06L9.04 7l.64.02ZM6.54 11l-.73-.02-.74.01-.06-.3c.16 0 .27-.02.32-.05a.16.16 0 0 0 .08-.15V7.51c0-.07-.02-.12-.07-.15-.05-.04-.14-.05-.27-.05L5 7l.72.01.82-.02c.8 0 1.2.3 1.2.91 0 .41-.22.71-.68.9.26.06.48.17.66.35.19.18.28.39.28.64 0 .38-.12.68-.37.89-.25.2-.61.31-1.1.31Zm.48-2.97c0-.23-.06-.4-.18-.5a.64.64 0 0 0-.45-.17c-.18 0-.27.01-.27.04v1.36h.2c.22 0 .4-.06.52-.2a.76.76 0 0 0 .18-.53Zm-.9 2.3c0 .21.12.32.37.32s.44-.08.57-.22a.8.8 0 0 0 .2-.54c0-.29-.1-.5-.27-.63a.9.9 0 0 0-.56-.2l-.31.01v1.27Z" fill="#F0F3FA"/><path fill-rule="evenodd" d="M14.5 5.5h-11v7h11v-7ZM3 5v8h12V5H3Z" fill="#F0F3FA"/><defs><linearGradient id="awkprmq5j" x1="3.35" y1="3.12" x2="21.9" y2="24.43" gradientUnits="userSpaceOnUse"><stop stop-color="#1A1E21"/><stop offset="1" stop-color="#06060A"/></linearGradient></defs></svg>