<!-- by TradingView --><svg width="18" height="18" viewBox="0 0 18 18" xmlns="http://www.w3.org/2000/svg"><path fill="#F0F3FA" d="M0 0h18v18H0z"/><path d="M13.13 7H11V4.87a.85.85 0 0 0-.84-.87H7.83a.84.84 0 0 0-.83.87V7H4.87c-.48 0-.87.33-.87.8v2.38c0 .48.39.82.87.82h1.72c.23 0 .41-.2.41-.43V8.98c0-.07.02-.1.04-.13.02-.02.06-.04.12-.04h.8c.25.01.4.12.42.29.04.22-.07.38-.3.47a.94.94 0 0 1-.14.03l-.08.02c-.18.05-.28.17-.27.36.01.18.12.3.3.32.16.02.28.04.4.09.19.1.29.27.26.46-.03.18-.13.43-.37.46h-.93c-.15 0-.25.13-.25.29v1.53c0 .48.35.87.83.87h2.33c.48 0 .84-.39.84-.87V11h2.13c.48 0 .87-.34.87-.82V7.81c0-.48-.39-.81-.87-.81Zm.24 3.18c0 .1-.15.2-.24.2h-2.37c-.24 0-.4.16-.4.4v2.43c0 .1-.1.16-.2.16H7.83c-.1 0-.2-.07-.2-.16v-1.27h.76a1 1 0 0 0 .8-.72c.13-.44.04-.91-.25-1.2-.1-.1-.1-.15-.03-.27.21-.32.24-.7.08-1.04a.97.97 0 0 0-.84-.52H6.73c-.15 0-.34.03-.34.35v1.84h-1.6c-.09 0-.17-.1-.17-.2V7.81c0-.1.08-.2.18-.2h2.44c.23 0 .4-.17.4-.4V4.8c0-.09.1-.17.2-.17h2.32c.1 0 .2.08.2.17v2.42c0 .23.16.4.4.4h2.37c.1 0 .24.1.24.2v2.37Z" fill="#5397CB"/></svg>