<!-- by TradingView --><svg width="18" height="18" viewBox="0 0 18 18" xmlns="http://www.w3.org/2000/svg"><path fill="#F0F3FA" d="M0 0h18v18H0z"/><path fill-rule="evenodd" d="M13.06 10.67a4.31 4.31 0 0 0-.95-4.76 4.35 4.35 0 0 0-4.77-.94 4.35 4.35 0 0 0 0 8.06 4.34 4.34 0 0 0 4.77-.94c.41-.41.73-.88.95-1.42Zm-1.57-.23.81 1.03c.07.04.14 0 .22-.12a4.24 4.24 0 0 0-2.74-6.46c-.07.2-.06.38.01.55l.26-.24c.03-.04.06-.04.1-.02.55.32.74.84.59 1.56-.02.1.01.13.1.1.72-.13 1.23.02 1.53.48.02.03.02.07 0 .1-.46.62-1.11.71-1.97.26-.05-.03-.08-.01-.08.04v1c0 .05-.02.08-.07.09h-.03c-.08.02-.12-.02-.12-.1v-.98c0-.06-.02-.07-.07-.04l-.29.18.02 1.09 1.03-.03c.09 0 .13.04.13.13v.57c0 .09-.04.12-.13.1a.47.47 0 0 0-.19.02c-.06 0-.06.02.01.04h.23c.05 0 .07.02.07.07l.05.55c.01.01.03.02.06.01.03 0 .04 0 .04-.03v-.03L11 9.19c-.02-.33.09-.37.3-.13.19.2.36.44.52.73a.1.1 0 0 1 0 .11l-.33.54Z" fill="#D5160D"/><path fill-rule="evenodd" d="M12.64 4.22A6.02 6.02 0 0 0 9.44 3h-.86a6.1 6.1 0 0 0-5.15 3.78c-.36.9-.5 1.83-.4 2.82.1.98.41 1.87.94 2.67A5.92 5.92 0 0 0 8.8 15h.47A5.98 5.98 0 0 0 15 9.64v-1.3c-.22-1.71-1-3.09-2.36-4.12Zm1.75 7a5.74 5.74 0 0 0 0-4.44 5.75 5.75 0 0 0-3.14-3.14A5.78 5.78 0 0 0 4.9 4.89a5.75 5.75 0 0 0-1.26 6.33 5.75 5.75 0 0 0 3.15 3.14 5.77 5.77 0 0 0 6.34-1.25c.55-.55.97-1.18 1.26-1.89Z" fill="#D5160D"/><path d="m10.71 3.64.03-.08c.02-.06.05-.07.09-.01.02.03.02.07-.01.1-.12.17-.24.21-.37.15-.05-.03-.05-.06 0-.1h.17c.05 0 .08-.01.1-.06Z" fill="#201A18"/><path d="M8.5 4.5c-.06 0-.1-.08-.13-.25a.22.22 0 0 0-.03-.1l-.2-.27c-.04-.06-.03-.1.03-.1l.04-.01a.1.1 0 0 1 .05.04c.09.13.15.2.17.2.02 0 .06-.08.11-.24a.1.1 0 0 1 .04-.05h.04c.06 0 .07.03.05.09l-.11.31a.24.24 0 0 0-.01.1c.02.18 0 .27-.05.27ZM9.6 4.34a.25.25 0 0 1 .08-.04c.1-.05.14-.02.08.08-.05.12-.17.16-.34.11a.25.25 0 0 1-.2-.23.65.65 0 0 1 .05-.34c.06-.13.15-.2.26-.2.15-.01.26.06.32.22 0 .02 0 .04-.02.06A.06.06 0 0 1 9.8 4h-.03l-.14-.13c-.04-.03-.08-.04-.11-.01-.13.08-.18.21-.14.4 0 .04.04.08.1.1.04.02.09 0 .13-.03ZM7.57 4.07c-.05.01-.08.02-.1.01-.13-.04-.14-.08 0-.12l.4-.12c.01 0 .02 0 .03.02l.02.05c0 .02 0 .03-.02.04-.1.05-.14.12-.1.23.03.1.07.22.1.38 0 .03 0 .04-.03.05l-.03.01H7.8l-.17-.5c-.02-.04-.04-.06-.07-.05ZM10.21 4.65a.3.3 0 0 1-.2-.18.41.41 0 0 1 0-.3c.03-.1.1-.18.18-.23a.3.3 0 0 1 .46.15c.04.09.04.19 0 .3-.03.1-.09.17-.17.23a.3.3 0 0 1-.27.03Z" fill="#050302"/><path d="M10.15 4.21c-.04.14.01.28.11.3.1.04.22-.05.26-.2.04-.13-.01-.27-.11-.3-.1-.03-.22.06-.26.2Z" fill="#fff"/><path d="M7 4.48c.09.06.15.15.2.27 0 .04 0 .08-.04.1L6.92 5c-.12.06-.22.05-.31-.04-.28-.26-.29-.48-.04-.65.16-.1.28-.08.35.07.02.05.05.08.09.1ZM11.18 4.75l-.1.16c0 .01-.02.02-.04.01h-.03c-.04-.02-.05-.05-.04-.08l.27-.54c.02-.04.05-.06.1-.04.15.04.25.1.3.19.05.1.04.18-.02.27a.24.24 0 0 1-.25.1c-.03 0-.06-.03-.11-.08-.03-.03-.06-.03-.08.01Z" fill="#050302"/><path d="m6.87 4.68.1.02c.04.02.05.06.02.1-.13.15-.26.13-.39-.07a.17.17 0 0 1-.02-.1c0-.21.08-.28.28-.2.09.04.08.08 0 .12-.02 0-.03.02-.04.05-.02.05 0 .08.05.08ZM11.28 4.49c.06-.1.14-.1.23 0 .05.04.05.1 0 .14-.06.07-.13.06-.21-.02-.04-.04-.04-.08-.02-.12Z" fill="#fff"/><path d="m6.22 5-.19-.33c-.01-.02 0-.04.01-.05l.03-.02.04.01c.14.17.26.34.35.52.08.15.03.2-.13.12a5.85 5.85 0 0 1-.29-.15c-.1-.06-.13-.04-.07.07l.18.22c.04.04.03.07-.01.1l-.06.03c-.02.01-.04 0-.06-.02l-.33-.57c-.02-.05-.01-.08.05-.1.05 0 .1.01.18.06.07.06.16.1.27.15l.03-.01V5Z" fill="#201A18"/><path d="M12.05 5c.1.06.2.02.29-.1.01-.02.02-.02.04 0l.03.02c.02.02.03.04 0 .06l-.38.5a.09.09 0 0 1-.1.03l-.03-.01c-.03-.02-.03-.04 0-.07.14-.14.17-.26.07-.34-.1-.08-.2-.03-.32.14-.02.02-.04.03-.06 0a.07.07 0 0 1-.02-.03.09.09 0 0 1 .02-.1l.41-.46c.02-.03.04-.03.07 0l.03.02v.04c-.1.1-.13.2-.05.3Z" fill="#050302"/><path d="M9.78 4.89c-.07.2-.06.38.01.55-.37.45-.42.92-.15 1.39.06.1.03.15-.1.13-.7-.09-1.2.08-1.52.51l-.63-1.1a.23.23 0 0 0-.06-.16c-.04-.03-.07-.03-.11 0l-.33.18a.34.34 0 0 0-.17.06c-.44.36-.64.83-.62 1.41l.1 1.64c0 .06-.02.09-.09.08a.38.38 0 0 0-.23.01c-.08.04-.07.06.01.07l.3.03-.3.04a.1.1 0 0 0-.09.07.2.2 0 0 0 .02.15v.1a2.62 2.62 0 0 0-.85-.04c-.03-.04-.05-.07-.05-.1v-.03c-.25-1.3 0-2.42.73-3.39a4.12 4.12 0 0 1 4.13-1.6Z" fill="#969593"/><path d="M5 5.23c.03-.08.08-.14.16-.16.05-.01.07 0 .07.06s-.06.11-.18.15c-.05.01-.06 0-.05-.05Z" fill="#201A18"/><path d="M9.74 7.87c-.34.19-.63.26-.87.2l-.57-.12c-.04-.11-.12-.18-.24-.22a.05.05 0 0 1-.04-.03v-.04c0-.01.01-.02.03 0l.04.02-.06-.2c.31-.44.82-.61 1.52-.52.12.02.15-.03.09-.13-.27-.47-.22-.94.15-1.39l.26-.24c.03-.04.07-.04.1-.02.55.32.74.84.59 1.56-.02.1.01.13.1.1.72-.13 1.23.02 1.53.48.02.03.02.07 0 .1-.45.62-1.11.71-1.97.26-.05-.03-.08-.01-.08.04v1c0 .05-.02.08-.06.09h-.04c-.08.02-.12-.02-.12-.1v-.98c0-.06-.02-.07-.07-.04l-.29.18Z" fill="#217E55"/><path d="M13.26 5.35c-.02.04-.06.06-.1.04a.11.11 0 0 1-.07-.06c-.02-.03-.04-.05-.08-.04a.08.08 0 0 1-.08-.05.04.04 0 0 1 0-.04c0-.02.02-.02.03-.03.04 0 .06 0 .08.03.03.03.06.04.1.04a.1.1 0 0 1 .08.01c.05.03.06.06.04.1ZM5.81 5.82a.3.3 0 0 1-.23.14.42.42 0 0 1-.29-.08.42.42 0 0 1-.18-.23.3.3 0 0 1 .03-.27.3.3 0 0 1 .23-.13c.1-.01.2.01.3.07.08.06.15.14.17.24a.3.3 0 0 1-.03.26ZM12.84 5.34c.03.03.03.07 0 .1-.08.2-.18.37-.28.53-.07.11-.12.1-.14-.02-.01-.03 0-.08.02-.16v-.04a.11.11 0 0 0-.03-.03.14.14 0 0 0-.03-.03h-.04a.43.43 0 0 1-.16 0c-.12-.04-.12-.09 0-.15.17-.08.35-.16.55-.22.04-.02.08-.01.1.02Z" fill="#050302"/><path d="M5.35 5.75c.11.1.26.11.33.03.07-.07.04-.22-.07-.31-.1-.1-.25-.11-.32-.03s-.04.22.06.31ZM12.66 5.53a1 1 0 0 1-.1.16c-.02.03-.04.03-.06-.01a.1.1 0 0 0-.02-.04c-.04-.02-.04-.05 0-.07l.13-.09c.05-.03.06-.01.05.05Z" fill="#fff"/><path d="M13.09 6.3v.02h.04l.32-.2c.02-.02.03-.02.04 0l.02.03v.04c-.16.15-.33.28-.5.38-.15.08-.2.04-.13-.13l.14-.29c.05-.11.03-.14-.08-.07-.06.04-.13.1-.21.2-.04.03-.07.03-.1-.02l-.03-.05c-.02-.02-.01-.04.01-.06l.55-.36c.05-.03.08-.02.1.04.01.05 0 .11-.05.18-.05.08-.1.17-.12.28ZM5.2 6.25a.28.28 0 0 1 0-.09c0-.11.04-.12.1-.03.09.1.07.22-.04.35a.25.25 0 0 1-.3.08.65.65 0 0 1-.29-.2c-.09-.1-.11-.21-.06-.32.05-.13.16-.2.33-.18.03 0 .04.01.05.04v.04l-.02.02-.18.07c-.04.02-.06.05-.06.1.02.15.12.25.3.29.05.01.1 0 .13-.04a.13.13 0 0 0 .04-.13Z" fill="#050302"/><path d="M7.4 6.36c-.15.1-.3.17-.42.2l-.03-.03a.2.2 0 0 1-.06-.14l.33-.19c.04-.02.08-.02.1.01.04.04.07.09.07.15Z" fill="#fff"/><path d="M6.9 6.39c0 .05.01.1.05.14a3.8 3.8 0 0 1-.25.23c-.27.22-.4.56-.4 1.03l.07 1.71c0 .08.04.11.12.09.21-.06.31-.02.3.12l-.6-.02-.3-.03c-.08-.01-.08-.03 0-.07a.38.38 0 0 1 .22-.01c.07 0 .1-.02.1-.08-.06-.7-.09-1.25-.1-1.64-.03-.58.17-1.05.62-1.4.03-.04.09-.06.17-.07Z" fill="#201A18"/><path d="m7.4 6.36.62 1.11.07.2v.01l-.04-.03-.03.01v.04c0 .02.02.03.03.03.13.04.21.11.25.22l.5.95a1 1 0 0 0-.1.79c.02.04.04.05.09.04l.4-.13.1.14c-.01.13-.15.15-.42.05-.12-.04-.18 0-.18.13v.06c0 .1.05.16.15.18.17.03.28.11.32.25l-.15.04c-.24-.15-.47-.14-.68.01l-.06-.04a.4.4 0 0 1 .27-.26c.04 0 .06-.04.06-.08v-1c0-.06-.03-.1-.1-.1h-.07a.1.1 0 0 0-.1.06c-.08.16-.17.3-.25.4-.08.13-.12.4-.1.8v.19h-.54a1.5 1.5 0 0 0-.33-.38l-.14-3.49c.14-.03.28-.1.42-.2Z" fill="#FFF500"/><path d="m6.97 6.56.14 3.5c-.16-.1-.25-.1-.26-.02a.16.16 0 0 1-.02-.06c.02-.1 0-.2-.05-.27.02-.14-.08-.18-.3-.12-.07.02-.1 0-.11-.09L6.3 7.8c0-.48.13-.82.4-1.04l.25-.23.02.03ZM9.74 7.87l.02 1.09-.86.02a.13.13 0 0 1-.1-.08l-.5-.95.57.12c.24.06.53-.01.87-.2Z" fill="#969593"/><path d="M14.57 8.9v.05c0 .02 0 .04-.03.04-.15.09-.19.22-.1.4.01.03 0 .05-.03.06l-.04.01c-.02 0-.03 0-.04-.02-.12-.16-.26-.15-.43.02a.05.05 0 0 1-.05.01c-.02 0-.03-.02-.03-.04 0-.07.02-.14.04-.2.02-.04.02-.08.01-.1 0-.02-.03-.05-.07-.07a.75.75 0 0 1-.15-.13c-.01-.02-.02-.04 0-.06a.04.04 0 0 1 .05-.02c.23.04.35-.04.35-.24 0-.02 0-.03.02-.04a.12.12 0 0 1 .04-.02c.03 0 .05 0 .06.04.04.2.15.28.32.25.02 0 .04 0 .05.02l.03.04ZM3.9 9.33l-.2.11c-.07.05-.1.03-.07-.05l.07-.2c0-.02 0-.04-.02-.06l-.16-.16c-.08-.07-.08-.1 0-.11l.24-.03a.1.1 0 0 0 .09-.07l.07-.14c.04-.04.06-.03.08.03.04.16.14.22.3.2.06-.02.09 0 .1.05v.04c0 .04-.02.06-.05.07-.15.07-.18.2-.09.39v.04a.04.04 0 0 1-.04.02.52.52 0 0 1-.2-.12c-.04-.03-.08-.03-.12 0Z" fill="#D5160D"/><path d="M8.9 8.98c0 .07.05.2.16.38l.13.24-.4.13c-.04.01-.07 0-.08-.04a1 1 0 0 1 .1-.8c.01.05.04.08.09.09Z" fill="#7DAB55"/><path d="M10.96 10.41h-.08a.6.6 0 0 0-.24-.28c-.08-.05-.1-.03-.08.06.04.13.13.23.27.28.03.04.05.05.07.05h-.1a.11.11 0 0 0-.07.06c-.1.15-.2.22-.32.23-.13 0-.23-.09-.3-.26-.02-.01-.03-.04-.02-.08a.9.9 0 0 1 .36-.3c.01-.01.02-.02.01-.03l-.03-.05c-.02-.03-.04-.04-.07-.03-.2.07-.34.2-.4.4-.15.04-.26.02-.3-.06l-.37-.66-.1-.14a1.71 1.71 0 0 0-.13-.24c-.1-.18-.16-.3-.16-.38l.86-.02 1.03-.03c.1 0 .14.04.14.13v.57c0 .09-.05.12-.13.1a.47.47 0 0 0-.2.02c-.06 0-.06.02.01.04h.23c.05 0 .07.02.08.07l.04.55ZM11.49 10.44c-.08-.06-.2-.05-.37.02-.02 0-.04-.03-.07-.1L11 9.2c-.01-.33.09-.37.3-.13.19.2.36.44.52.73a.1.1 0 0 1 0 .11l-.33.54Z" fill="#0064AA"/><path d="M8.27 10.42h-.28l-.01-.17c-.02-.41.02-.68.1-.8.09-.12.17-.25.26-.41a.1.1 0 0 1 .09-.06h.07c.07 0 .1.04.1.1v1c0 .04-.02.07-.06.08a.4.4 0 0 0-.27.26Z" fill="#7DAB55"/><path d="M8.44 9.29c.04.01.05.12 0 .32-.01.1-.06.12-.14.1-.08-.03-.1-.09-.06-.17.09-.18.16-.27.2-.25Z" fill="#FFF500"/><path d="M6.78 9.7c.06.08.07.17.05.28a.5.5 0 0 1-.35-.04.08.08 0 0 0-.08.01.08.08 0 0 0-.04.08v.8c0 .05-.03.07-.07.07h-.05c-.04 0-.06-.02-.06-.06v-.81c0-.05-.02-.07-.07-.06-.1 0-.19 0-.29-.02a.2.2 0 0 1-.02-.15.1.1 0 0 1 .09-.07l.3-.04.6.02Z" fill="#fff"/><path d="M9.65 10.4c-.2-.03-.36-.02-.5.01-.03-.14-.14-.22-.31-.25-.1-.02-.15-.08-.15-.18v-.06c0-.13.06-.17.18-.13.27.1.41.08.42-.05l.36.66Z" fill="#7DAB55"/><path d="M6.83 9.98c0 .03.01.04.03.06l.12.68c.01.04.03.05.07.03l.38-.2c.1-.03.17-.03.21-.01.05.02.06.05.03.08l-.33.35a.14.14 0 0 1-.1.04l-.42.02-.01-.04a.09.09 0 0 0-.09-.05h-.95c-.04 0-.07-.02-.06-.07l.12-.82v-.1c.1.02.19.03.28.02.05 0 .07.01.07.06v.81c0 .04.02.06.06.06h.05c.04 0 .07-.02.07-.07v-.8c0-.04.01-.06.04-.08a.08.08 0 0 1 .08 0 .5.5 0 0 0 .35.03Z" fill="#D5D4D3"/><path d="m5.83 10.05-.12.82c0 .05.02.07.06.07h.95c.04 0 .07.02.09.05l.01.04c0 .04-.01.06-.03.08a.81.81 0 0 0-.62.36c-.03.04-.02.07.03.1h.06c.05.02.08.05.07.07-.03.08 0 .15.08.22.11.1.21.1.3-.05.03 0 .05 0 .07.03v.04c-.01.03 0 .05.04.05h.99c.08 0 .11-.04.1-.09l.07.03c-.02 0-.02.01-.02.03 0 .02.02.03.04.03.36.03.64.03.86.02.04 0 .06-.03.07-.07.06 0 .08.02.06.04.26.06.52.06.79 0-.02-.03 0-.05.06-.05-.02.05 0 .08.07.09.12.02.35.02.7 0 .04 0 .07-.02.07-.06v-.05l.1-.02c-.02.1 0 .14.07.14a19.26 19.26 0 0 0 .65 0c.02-.01.03-.03.02-.06a.14.14 0 0 1 .08-.03c0 .06.08.1.24.14-.2.26-.46.48-.76.63-.61.32-1.24.49-1.89.52a4.1 4.1 0 0 1-3.26-1.36 4.52 4.52 0 0 1-.96-1.76V10c.3-.03.59-.02.86.04Z" fill="#373431"/><path d="M7.11 10.05c.14.11.25.24.34.38 0 .05 0 .08-.02.11l-.38.2c-.04.03-.06.02-.07-.02l-.12-.68c0-.08.09-.07.25.01Z" fill="#373431"/><path d="m10.09 10.47-.13-.01c.06-.2.19-.33.4-.4.03-.01.05 0 .07.03l.03.05v.02a.9.9 0 0 0-.37.3ZM10.88 10.42c0 .02-.02.04-.05.05a.44.44 0 0 1-.27-.28c-.03-.09 0-.1.08-.06.1.06.18.15.24.29Z" fill="#fff"/><path d="M3.9 10.69a.3.3 0 0 1 .07.04c.1.08.08.12-.04.12-.13 0-.21-.09-.25-.26a.25.25 0 0 1 .12-.28c.1-.07.22-.1.34-.11.14 0 .23.04.3.14.06.13.04.26-.07.38-.02.02-.04.03-.06.01a.06.06 0 0 1-.03-.02v-.03l.04-.18c.02-.05 0-.09-.03-.1-.14-.08-.28-.07-.42.05a.14.14 0 0 0-.05.13c0 .05.03.09.08.1ZM14 10.57c-.03.04 0 .08.04.1l.05.01c.04.01.07 0 .09-.04a4.26 4.26 0 0 0 .13-.3h.05c.04.01.06.04.04.07l-.13.4c-.02.05-.06.07-.11.05l-.55-.18c-.04-.02-.07-.05-.06-.1 0-.11.04-.23.1-.35 0-.02.03-.03.05-.02l.06.02c.05.02.06.05.02.09a.29.29 0 0 0-.1.26c0 .04.02.05.06.04l.07-.03a.12.12 0 0 0 .08-.1c.02-.1.05-.16.1-.18.02 0 .04 0 .05.02.02 0 .02.03.02.05l-.07.19Z" fill="#050302"/><path d="M9.01 10.45a.1.1 0 0 1 0 .08l-.01.03c-.09.17-.18.26-.28.28-.17.04-.3-.06-.39-.29v-.09c.2-.15.44-.16.68-.01Z" fill="#0064AA"/><path d="m11.49 10.44.81 1.03-.08.14-.57.04c-.04 0-.07.03-.07.07 0 .05 0 .1.02.16a.14.14 0 0 0-.08.03c-.03-.14-.1-.22-.2-.26a.87.87 0 0 0-.32-.01h-.14c-.04 0-.07.03-.09.07a.23.23 0 0 0 0 .12l-.08.02-.06-.14a.1.1 0 0 0-.1-.06h-.55a.1.1 0 0 0-.1.06.44.44 0 0 0-.04.16c-.06 0-.08.02-.06.05l-.07-.2a.1.1 0 0 0-.09-.06 1.52 1.52 0 0 0-.48 0 .1.1 0 0 0-.08.06l-.07.2c.02-.02 0-.04-.06-.04l-.03-.16c0-.05-.03-.07-.08-.07h-.66a.1.1 0 0 0-.09.05l-.1.17a.23.23 0 0 0-.06-.03v-.13c0-.05-.02-.07-.07-.07H7.1c-.13 0-.23.06-.3.2a.09.09 0 0 0-.08-.03.27.27 0 0 0 .04-.1c.01-.06-.01-.08-.06-.08l-.36.01c0-.02-.02-.05-.07-.07.16-.05.33-.06.5-.04.04.01.08 0 .12-.02.11-.08.2-.18.28-.3.03-.05.02-.07-.03-.07l-.34-.03a.16.16 0 0 0 .03-.08l.42-.02c.03 0 .07-.01.1-.04l.33-.35c.03-.03.02-.06-.03-.08a.42.42 0 0 0-.2 0 .26.26 0 0 0 0-.11h.54l.29-.01.06.04v.1h-.39a.21.21 0 0 0-.17.07l-.23.3a.05.05 0 0 0 0 .04c0 .02.02.03.04.03h.52c.04 0 .07-.01.1-.04l.04-.07c.02-.02.04-.02.07 0l.08.09a3.12 3.12 0 0 0 .57 0 .1.1 0 0 0 .09-.07l.1-.27c.01-.07-.01-.1-.08-.1L9 10.52a.1.1 0 0 0 0-.08l.15-.04c.13-.03.3-.04.5-.01.04.08.15.1.3.06h.13l.01.1a.3.3 0 0 0-.17-.01c-.04.01-.06.05-.06.12v.26c0 .04.02.07.07.07h1.73c.05 0 .07-.03.04-.08-.11-.24-.28-.37-.5-.4-.15-.03-.18.02-.1.14a.4.4 0 0 1 .06.23c0 .07-.02.07-.05 0l-.22-.37c-.02 0-.05-.01-.07-.05.03-.01.05-.03.05-.05h.14c.03 0 .04 0 .04-.03v-.03c.02.07.04.1.06.1.17-.07.3-.08.37-.02Z" fill="#6E706B"/><path d="M8.33 10.55c.09.23.22.33.4.29.1-.02.18-.11.27-.28l.01-.03h.06c.07 0 .1.04.07.1l-.1.28a.1.1 0 0 1-.08.07c-.11.02-.27.02-.48.02-.05 0-.07-.01-.09-.02a.74.74 0 0 1-.08-.09c-.03-.02-.05-.02-.07 0l-.05.07a.12.12 0 0 1-.1.04h-.51a.05.05 0 0 1-.05-.03l.01-.05.23-.29c.04-.05.1-.08.18-.08h.38ZM9.7 10.55l-.42-.02a.05.05 0 0 0-.06.05v.36c0 .03.01.05.04.05l.42.01c.03 0 .05-.02.06-.05v-.35a.05.05 0 0 0-.04-.05ZM10.1 10.55c.08.17.18.26.3.26.13 0 .23-.08.33-.23a.11.11 0 0 1 .07-.06h.1l.22.38c.03.06.05.06.05-.01a.39.39 0 0 0-.06-.23c-.08-.12-.05-.17.1-.14.22.03.39.16.5.4.03.05.01.08-.04.08H9.94c-.05 0-.07-.03-.07-.07v-.26c0-.07.02-.11.06-.12a.3.3 0 0 1 .17 0Z" fill="#fff"/><path d="M4.76 10.96a.27.27 0 0 1-.09-.13c-.02-.06 0-.08.06-.05.08.03.13.09.14.16.01.06 0 .08-.06.07-.03 0-.05-.02-.05-.05ZM13.33 11.54l.42.25c.03.01.04.03.03.06l-.03.07c-.01.05-.04.05-.08.02l-.38-.3c-.06-.04-.1-.04-.15.02l-.09.11h-.03l-.02-.05a.05.05 0 0 1 0-.05c.17-.24.3-.48.4-.7.05-.1.09-.15.13-.16.09-.04.18 0 .27.1l.03.02.32.1c.02.02.03.04.02.06l-.01.06c-.01.02-.02.02-.04.02l-.2-.07c-.04-.01-.07 0-.1.04l-.05.09c-.03.05-.01.09.05.1.07.02.13.05.18.08.03.02.03.04.02.07l-.04.06c-.01.02-.03.03-.05.01l-.48-.27c-.03-.02-.05-.01-.07.02l-.08.14c-.03.04-.02.08.03.1ZM4.68 11c.04.09.04.17 0 .27a.44.44 0 0 1-.22.21c-.1.05-.2.06-.3.04a.29.29 0 0 1-.21-.15.29.29 0 0 1 0-.26c.04-.1.12-.17.22-.22.1-.05.2-.06.3-.04.1.02.17.08.2.16Z" fill="#050302"/><path d="M13.51 11.01c-.04.07-.03.14.02.18.05.03.12 0 .16-.05.04-.07.04-.14 0-.18-.06-.03-.13 0-.18.05ZM4.39 11.36c.13-.06.2-.19.17-.28-.04-.1-.19-.12-.32-.06s-.21.18-.17.28c.04.09.18.12.32.06ZM6.8 11.11l.33.03c.05 0 .06.02.04.07a.92.92 0 0 1-.29.3.17.17 0 0 1-.12.02 1.08 1.08 0 0 0-.5.04H6.2c-.05-.03-.06-.06-.03-.1a.81.81 0 0 1 .62-.36ZM7.5 11.14h.53c.08 0 .1.03.08.1l-.05.17c-.03.08-.08.11-.15.11h-.7c-.1 0-.12-.04-.06-.11l.13-.16a.28.28 0 0 1 .23-.11ZM8.86 11.52h-.6c-.07 0-.1-.04-.07-.1l.06-.17c.02-.08.07-.11.15-.11h.5c.07 0 .1.03.1.1v.13c0 .1-.05.15-.14.15ZM10.48 11.14h-.52a.1.1 0 0 0-.1.1v.18c0 .05.05.1.1.1h.52a.1.1 0 0 0 .1-.1v-.19a.1.1 0 0 0-.1-.1ZM11.22 11.22l.1.25c0 .03 0 .05-.05.05h-.45c-.1 0-.14-.04-.14-.14v-.14c0-.07.04-.1.1-.1h.32c.06 0 .1.02.12.08ZM11.4 11.13h.4c.1 0 .19.05.24.14l.08.15c.04.06.02.1-.06.1h-.47a.16.16 0 0 1-.15-.09l-.1-.18c-.05-.08-.03-.12.07-.12ZM9.64 11.14H9.2a.1.1 0 0 0-.1.1v.19c0 .05.05.1.1.09h.43a.1.1 0 0 0 .1-.1v-.19a.1.1 0 0 0-.1-.09Z" fill="#fff"/><path d="M4.65 11.68v-.03H4.6l-.33.17c-.02.02-.04.01-.05 0l-.01-.04v-.04c.17-.13.35-.24.53-.33.15-.07.19-.02.12.14l-.16.27c-.07.11-.05.13.06.08l.23-.17c.04-.04.07-.03.1.01l.02.06c.02.02.01.04-.01.06l-.58.3c-.05.03-.08.02-.1-.04 0-.05.02-.11.07-.18.06-.07.1-.16.15-.26Z" fill="#050302"/><path d="M12.22 11.61c-.08.24-.21.37-.38.4-.16-.03-.24-.07-.25-.13a.44.44 0 0 1-.01-.16c0-.04.03-.06.07-.07l.57-.04ZM6.33 11.64h.36c.05-.01.07.01.06.06 0 .03-.02.07-.04.1-.09.15-.19.17-.3.06-.08-.07-.1-.14-.08-.22ZM7.91 11.84c0 .05-.03.08-.1.08-.33.02-.66.02-1 0-.03 0-.04-.01-.04-.04l.01-.04c.08-.14.18-.2.3-.2h.76c.05 0 .07.02.07.07v.13ZM8.93 11.88c-.01.04-.04.06-.07.07-.22.01-.5 0-.86-.02-.02 0-.04-.01-.04-.03 0-.02 0-.03.02-.03l.1-.17a.1.1 0 0 1 .08-.05h.66c.05 0 .08.02.08.07l.03.16ZM9.78 11.92c-.27.06-.53.06-.79 0l.07-.2a.1.1 0 0 1 .08-.06c.17-.03.33-.03.49 0a.1.1 0 0 1 .08.07l.07.19ZM10.69 11.85v.05c-.01.04-.04.07-.08.07l-.7-.01c-.06-.01-.09-.04-.07-.1l.03-.15a.1.1 0 0 1 .1-.06h.56a.1.1 0 0 1 .1.06l.06.14ZM11.52 11.91c.01.03 0 .05-.02.06a19.26 19.26 0 0 1-.65 0c-.07 0-.1-.05-.08-.14a.23.23 0 0 1 0-.12c.02-.04.05-.07.1-.07H11c.15-.02.26-.01.32.01.1.04.17.12.2.26Z" fill="#fff"/><path d="M5.05 12.55v-.1c0-.08.03-.1.1-.04l.12.1c.04.03.04.06 0 .09a.83.83 0 0 0-.22.19c-.03.03-.05.03-.08-.01a.4.4 0 0 0-.15-.16.24.24 0 0 1-.12-.14.24.24 0 0 1 .02-.19c.1-.2.25-.29.44-.3.2 0 .3.13.31.39l-.02.02-.05.04c-.03.02-.04 0-.04-.03 0-.12-.02-.2-.07-.24a.24.24 0 0 0-.22-.04.28.28 0 0 0-.18.15c-.07.14-.05.25.06.32.02.02.05.02.07 0a.06.06 0 0 0 .03-.05ZM13 12.38c.01 0 .02 0 .03-.02v-.03l-.29-.26v-.05l.02-.03h.04c.19.12.35.25.49.4.11.12.08.18-.1.16l-.31-.07c-.13-.03-.14 0-.05.08.05.05.13.1.23.17.05.03.05.06.02.1l-.05.04c-.02.02-.04.02-.06 0l-.48-.45c-.04-.04-.03-.08.02-.1.04-.03.1-.03.19 0s.19.05.3.06ZM12.1 12.69c.06-.1.15-.17.24-.2.02-.02.04-.01.04.01l.02.05-.01.04c-.1.06-.16.1-.17.12-.07.2-.01.24.16.1l.1-.09c.04-.02.06-.02.09 0l.03.03v.03l-.19.22c-.02.04-.02.07.02.09l.04.02c.04.02.07.02.1-.02.06-.08.1-.12.14-.13.18-.05.2 0 .07.13l-.24.2c-.03.02-.07.02-.1 0a1.7 1.7 0 0 1-.49-.65.13.13 0 0 1 .01-.11l.14-.25c.02-.03.04-.03.04.01 0 .08-.03.17-.1.25a.05.05 0 0 0 0 .05l.03.1h.02ZM6.63 13.34a.54.54 0 0 0-.32.41c0 .04-.03.05-.07.04l-.05-.02c-.04-.01-.05-.04-.03-.07l.1-.17c.02-.04.01-.07-.03-.1l-.08-.04c-.04-.03-.08-.02-.11.02l-.1.13c-.02.02-.04.03-.07.01a.07.07 0 0 1-.03-.02v-.04a.69.69 0 0 1 .36-.45c-.04.2 0 .3.13.31.06 0 .1-.02.12-.06.02-.04 0-.08-.04-.11l-.2-.14a.79.79 0 0 0-.23-.16c-.05-.02-.08-.01-.1.02l-.32.39c-.02.02-.04.03-.07 0l-.03-.02c-.03-.02-.03-.04-.01-.06l.33-.42c.03-.03.03-.06 0-.1a.34.34 0 0 0-.05-.05c-.06-.05-.05-.08.02-.09.03 0 .06.01.1.04.21.2.44.37.68.52.09.06.12.13.1.23ZM12.25 13.34c.05.06.04.12-.02.16l-.25.2c-.06.04-.11.03-.16-.03l-.31-.4c-.05-.07-.04-.12.02-.17l.24-.19c.06-.04.12-.04.16.02l.32.41Z" fill="#050302"/><path d="m6.2 13.04.21.14c.04.03.05.07.04.11-.02.04-.06.06-.12.06-.13 0-.17-.11-.13-.31ZM11.84 13.25c.06-.05.08-.13.05-.17-.03-.04-.11-.03-.18.02-.06.05-.08.12-.05.16.04.04.12.04.18-.01Z" fill="#fff"/><path d="M6.81 13.1c.01-.03.04-.04.07-.04.04 0 .05.04.03.13 0 .03-.02.04-.05.05-.06 0-.08-.04-.05-.14Z" fill="#373431"/><path d="M12.06 13.5c.06-.05.08-.13.04-.18-.04-.05-.13-.05-.2 0-.06.06-.08.15-.04.2.04.05.13.04.2-.02Z" fill="#fff"/><path d="M6.63 13.34a.2.2 0 0 1 .1.05c.03.02.03.05.02.1-.05.15-.12.3-.21.43-.02.03-.05.03-.08 0l-.04-.02c-.03-.02-.03-.05 0-.07a.73.73 0 0 0 .21-.5ZM7.23 13.82l.1-.29c0-.02.01-.03.04-.02l.05.02c.01 0 .02.02.01.03l-.2.58c-.01.06-.05.08-.11.06l-.05-.02c-.03-.01-.04-.03-.04-.07a.6.6 0 0 0-.04-.39c-.03-.05-.05-.05-.07 0l-.1.3c-.01.03-.03.04-.05.03l-.05-.02c-.04 0-.04-.03-.02-.06a.77.77 0 0 0 .12-.57c0-.06.02-.08.07-.06l.17.06c.04.01.06.04.05.08-.01.09 0 .2.04.34.02.08.05.08.08 0ZM11.09 13.33a.06.06 0 0 0-.03.1l.37.69c.02.03.05.04.08.02h.01a.06.06 0 0 0 .03-.08l-.38-.7a.06.06 0 0 0-.08-.03ZM10.74 13.99l.07.2c.02.04 0 .06-.03.07l-.03.02c-.03 0-.05 0-.07-.03l-.15-.44c-.03-.08-.08-.1-.16-.07l-.07.02c-.06.02-.07.06-.06.11l.16.42c.01.05 0 .08-.05.1l-.06.02c-.04.01-.06 0-.07-.05l-.07-.46c0-.05-.03-.07-.08-.07h-.13c-.02 0-.03 0-.04-.02a.1.1 0 0 1-.02-.06c0-.03.02-.05.05-.05l.56-.15c.03 0 .07 0 .1.04a.3.3 0 0 1 .05.13c0 .04.04.06.09.05a.28.28 0 0 0 .13-.04.07.07 0 0 0 .02-.09l-.05-.16c-.01-.03 0-.05.03-.07h.03c.05-.02.08 0 .1.04l.22.61c0 .02 0 .04-.02.05h-.04c-.07-.03-.11-.1-.14-.2-.02-.06-.05-.07-.1-.06l-.13.05c-.04.02-.06.05-.04.09ZM7.83 14.13c.02-.06 0-.1-.07-.1h-.11c-.05 0-.08.03-.1.08l-.06.17c-.01.03-.03.05-.06.03l-.05-.01c-.03-.01-.04-.03-.03-.06l.22-.63c0-.02.02-.04.05-.04h.04c.05 0 .06.02.05.06l-.06.16c-.01.04 0 .07.04.1.05.04.1.05.15.04.05-.02.07-.04.07-.09.01-.06.03-.1.05-.11.12-.06.16-.02.12.1l-.2.58c0 .03-.02.04-.05.03l-.03-.02c-.04 0-.06-.03-.04-.07l.07-.22Z" fill="#050302"/><path d="m9 14 .2-.25c.02-.02.02-.04 0-.05l-.03-.03c-.01-.02 0-.04.01-.07.02-.03.06-.04.1-.03.04 0 .07.03.08.07v.05c-.02.03-.01.05.02.06.24.1.34.27.3.52-.04.17-.14.27-.31.29-.17.01-.28-.07-.33-.24-.04-.13-.08-.13-.12 0-.06.2-.23.27-.53.2-.03-.01-.04-.03-.04-.07v-.59c0-.06.03-.1.1-.1.24-.04.4.03.5.22.01.04.03.05.06.01Z" fill="#201A18"/><path d="M8.7 14.16v-.02c-.2-.12-.21-.2-.07-.23.04-.01.08 0 .1.04.1.13.1.25.02.36-.06.08-.11.12-.15.11-.18-.06-.19-.13-.01-.21l.1-.05ZM9.16 14.18c.01.14.1.25.2.24.11 0 .18-.13.17-.27-.01-.14-.1-.25-.21-.24-.1 0-.18.13-.16.27Z" fill="#fff"/></svg>