<!-- by TradingView --><svg width="18" height="18" viewBox="0 0 18 18" xmlns="http://www.w3.org/2000/svg"><path fill="#131236" d="M0 0h18v18H0z"/><path d="M7 4.28v-.26L7.03 4a.04.04 0 0 1 .04 0l2.82 1.58.02.01a.04.04 0 0 1-.02.05l-.21.12a.04.04 0 0 1-.04 0L7.02 4.31l-.01-.01L7 4.28Zm0 .76V4.7h.02a.04.04 0 0 1 .03 0l2.23 1.24.02.01a.03.03 0 0 1-.02.05l-.3.16a.04.04 0 0 1-.03 0L7.02 5.07 7 5.06v-.02Zm0 .43v.34l.02.02 1.26.7a.04.04 0 0 0 .03 0l.3-.16.01-.01a.03.03 0 0 0-.01-.05l-1.56-.87a.04.04 0 0 0-.05.01v.02Zm0 1.09V6.2l.02-.01a.04.04 0 0 1 .03 0l.88.49h.01a.03.03 0 0 1-.01.05l-.3.17a.04.04 0 0 1-.03 0l-.58-.32L7 6.57v-.01Zm.24.52c-.1-.1-.18-.15-.21-.14-.03.02-.04.1-.01.25 0 .04.02.05.06.03a3.68 3.68 0 0 0 .16-.08c.03-.02.03-.04 0-.06ZM7 8.35v-.7l.02-.01a.03.03 0 0 1 .03 0l4.93 2.75.02.01v.72a.03.03 0 0 1-.03.02h-.02L7.02 8.37 7 8.37v-.02Zm4-2.82v.45l-.02.01-3.23 1.74a.04.04 0 0 1-.03 0l-.4-.22-.02-.01a.03.03 0 0 1 0-.03l.02-.01 3.63-1.96a.04.04 0 0 1 .03 0l.02.02v.01ZM8.7 8.25l-.38-.2-.02-.02a.04.04 0 0 1 0-.04l.02-.02 2.61-1.42a.04.04 0 0 1 .06.02l.01.02v.43l-.02.02-2.24 1.2a.05.05 0 0 1-.04 0Zm2.3-.2V7.6l-.02-.02a.04.04 0 0 0-.04 0l-1.63.9-.01.01a.04.04 0 0 0 .01.06l.38.2a.04.04 0 0 0 .04 0l1.25-.68a.04.04 0 0 0 .02-.04Zm-.11.58a.03.03 0 0 1 .03 0v.01l.02.02a.4.4 0 0 1 .05.31.38.38 0 0 1-.2.24.42.42 0 0 1-.31.04.45.45 0 0 1-.26-.2l-.01-.02a.02.02 0 0 1 0-.03l.68-.37ZM7 9.46v-.7l.02-.02a.03.03 0 0 1 .03 0l4.93 2.76a.03.03 0 0 1 .02.03v.69a.03.03 0 0 1-.02.02.03.03 0 0 1-.03 0L7.02 9.5 7 9.48v-.02Zm0 .39v.72a1089.85 1089.85 0 0 1 4.05 2.29c.14.1.28.14.42.14h.48c.03 0 .05-.03.05-.06v-.27a.08.08 0 0 0-.04-.07L7.02 9.84a.02.02 0 0 0-.01 0Zm0 1.84v-.71l.02-.01a.03.03 0 0 1 .03 0l3.5 1.97a.03.03 0 0 1 0 .05l-.01.01H9.29l-2.27-1.28L7 11.7v-.01Zm1.6 1.27-1.54-.87c-.04-.03-.06-.02-.06.03v.62a.13.13 0 0 0 .07.12l.07.04a.5.5 0 0 0 .25.1h1.2c.06 0 .06-.01.01-.04Z" fill="#AD105A"/></svg>