<!-- by TradingView --><svg width="18" height="18" viewBox="0 0 18 18" xmlns="http://www.w3.org/2000/svg"><path fill="#F0F3FA" d="M0 0h18v18H0z"/><path fill-rule="evenodd" d="M8.68 6.4 9 4.25l.32 2.15h-.64Zm.53-1.2C12.43 5.27 15 7 15 9.1c0 2.15-2.69 3.9-6 3.9s-6-1.75-6-3.9C3 7 5.57 5.27 8.79 5.2L8.96 4h.08l.17 1.2ZM9.35 7l.36-.6H12l.7.9h-.35l-.53-.6-.35.6H9.71L9.35 7ZM7.41 8.8h.53l.7-.9.89.9h4.06l-1.24-1.35H9.71v.15H9l-.35-.3L7.4 8.8Zm-2.47.3-1.23 1.5h3.53l1.05-1.05.89 1.05h.53L8.47 9.1H4.94Zm3.18.75v.45h.35v-.45h-.35ZM12 7h-.18v.15H12V7Zm-3.18-.45h.36V7h-.36v-.45ZM8.47 8.2v.6h.35v-.6h-.35Zm-.53-.3L7.41 7H4.76l-.7.9h.35l.53-.6.53.6h2.47Zm-3.18-.3v.3h.18v-.3h-.18Zm.89.6h.17v.3h-.17v-.3Zm.88 0h-.18v.3h.18v-.3Zm.7 0h.18v.3h-.17v-.3Zm3.18 1.2h-.35v.6h.35v-.6Zm.18 1.65h.53v.75h-.53v-.75ZM14.47 10h-3.7L9 12.1h.53l1.41-1.65 1.24 1.5c.98-.24 1.94-1.4 2.29-1.95Z" fill="#451616"/></svg>