<!-- by TradingView --><svg width="18" height="18" viewBox="0 0 18 18" xmlns="http://www.w3.org/2000/svg"><path fill="#F0F3FA" d="M0 0h18v18H0z"/><path d="M14.65 5.6c.54.96.45 2.25-.23 3.58a9.86 9.86 0 0 1-5.72 4.5c-.78.23-1.55.34-2.26.32a4.42 4.42 0 0 1-1.88-.45 2.82 2.82 0 0 1-1.2-1.14c-.55-.97-.46-2.26.22-3.59a9.86 9.86 0 0 1 5.72-4.5A7.32 7.32 0 0 1 11.55 4c.72.03 1.35.18 1.88.45.53.28.94.66 1.2 1.14Zm-5.56 7.27c-.1.07-.1.08.02.04 2.18-.84 4.7-2.46 5.26-4.97.12-.51.1-1-.03-1.46a2.51 2.51 0 0 0-1.76-1.83 5 5 0 0 0-2.48-.04c-.06.01-.06.03 0 .05.07.02.16.06.27.13.92.52.88 1.43.37 2.27-.17.29-.42.61-.74.97-.03.03-.02.05 0 .07.5.3.86.6 1.06.89 1.08 1.57-.87 3.14-1.97 3.88Zm-.91-3.7v-.22a.1.1 0 0 1 .05-.1c.9-.45 2.35-1.5 2.12-2.75-.09-.49-.57-.67-.98-.65-.64.05-1.21.26-1.72.64-.03.02-.06.06-.06.1v6.46c0 .04.03.05.06.05 1.18-.1 2.52-.65 2.95-1.88.19-.53.15-1.1-.3-1.4-.57-.4-1.38-.32-2.06-.2-.04 0-.06-.01-.06-.05Zm-2.82 3.42v-.12c0-.04-.02-.06-.06-.06h-.1c-.04 0-.06.02-.06.06v.36c0 .03.02.05.05.06.73.08 1.58-.04 1.94-.75.07-.13.1-.36.1-.68V6.29s-.02-.02-.03-.01l-.64.32c-.02.01-.03.02-.03.04v4.6l.01.4c0 .16-.02.28-.07.38-.2.48-.56.63-1.05.64a.06.06 0 0 1-.05-.02l-.01-.02v-.03Z" fill="#32629D"/></svg>