<!-- by TradingView --><svg width="18" height="18" viewBox="0 0 18 18" xmlns="http://www.w3.org/2000/svg"><path fill="#F0F3FA" d="M0 0h18v18H0z"/><path fill-rule="evenodd" d="m5.22 8.47-.08.94-.05.3c-.03.23-.02.46.05.7.05.19.08.33.08.42.02.57.03.92 0 1.04-.06.4-.12.78-.16 1.18-.03.37 0 .69.1.95.12.35.34.55.66.6.09 0 .22-.02.4-.08.74-.25 1.41-.3 2.03-.14.45.12.82.23 1.1.32.49.15.85.25 1.1.27.38.05.74.04 1.1-.02.2-.04.38-.1.5-.18.14-.1.26-.24.35-.42.15-.3.23-.69.26-1.14.05-1.15.07-2.31.06-3.48 0-.25 0-.5.03-.76.05-.66.1-1.29.17-1.9a11.41 11.41 0 0 0-.04-2.94 1.34 1.34 0 0 0-.12-.42.53.53 0 0 0-.31-.25 1.09 1.09 0 0 0-.37 0h-.37l-1.93-.41L9.52 3c-.84-.03-1.6 0-2.29.07a8.9 8.9 0 0 0-1.26.24c-.56.15-.88.42-.96.83-.02.13 0 .37.05.7.21 1.2.26 2.4.16 3.62Zm5.91 3.75c-.1.53-.41.81-.92.85-.06 0-.11 0-.16-.03a3.95 3.95 0 0 0-1.91-.5c-.2-.02-.38-.06-.51-.12-.42-.21-.61-.58-.58-1.12.01-.29.09-.56.23-.82v-.02c0-.01-.01-.02-.02-.01-.24.04-.44.16-.62.35-.18.19-.3.4-.35.65-.13.55-.04 1.06.28 1.54.1.14.23.24.4.3.09.04.24.05.47.03l.64-.02c.35.01.7.1 1.03.24.24.11.4.17.47.18.2.03.4 0 .63-.08.43-.14.78-.39 1.06-.72.45-.55.68-1.17.7-1.87l-.05-1.07a4.9 4.9 0 0 0-.26-1.32 3.09 3.09 0 0 0-.67-1.12l-.39-.38c-.28-.26-.48-.47-.6-.6a2.63 2.63 0 0 1-.3-.4c-.3-.5-.58-1.02-.83-1.56a4.5 4.5 0 0 1-.27-1.27L8.6 3.2c0-.07-.03-.08-.06-.01l-.17.33c-.16.32-.2.74-.13 1.26.06.41.16.84.31 1.27.1.28.26.72.5 1.32l.09.2a4.56 4.56 0 0 0 .61 1.1c.48.65.88 1.19 1.18 1.62.22.32.33.65.32 1 0 .3-.04.61-.11.94Z" fill="#3B873F"/><path d="M8.51 11.28c-.09.22-.05.38.12.5.15.1.32.12.53.08a.7.7 0 0 0 .42-.23c.17-.2.18-.43.02-.7-.29-.52-.71-.69-1.27-.51-.1.03-.21.1-.31.22-.1.1-.14.35-.13.72v.08c0 .06-.02.06-.06.02-.13-.14-.18-.4-.13-.76.03-.3.2-.51.51-.64.25-.1.54-.13.86-.1.25.04.45.14.62.32.21.24.35.5.41.78.06.31.02.6-.13.85a.8.8 0 0 1-.53.38 2 2 0 0 1-.67 0c-.35-.05-.57-.22-.65-.5-.1-.33-.04-.57.17-.72.18-.14.43-.17.73-.08.07.02.07.04 0 .06l-.09.01c-.24.05-.38.12-.42.22Z" fill="#FCD860"/></svg>