<!-- by TradingView --><svg width="18" height="18" viewBox="0 0 18 18" xmlns="http://www.w3.org/2000/svg"><path fill="#F0F3FA" d="M0 0h18v18H0z"/><path d="M7.28 3.9a.9.9 0 0 0 .58-.39A.94.94 0 0 0 9 3.4a.94.94 0 0 0 1.14.12.9.9 0 0 0 .58.38c.14.03.28.02.4 0l-.35.52a4.82 4.82 0 0 0-3.54 0l-.36-.53c.13.03.27.04.41 0Zm.41-1.14c.17-.03.34.07.38.23a.29.29 0 0 1-.04.23.31.31 0 0 1-.2.13.32.32 0 0 1-.38-.23.3.3 0 0 1 .24-.36ZM9 2.7c.18 0 .32.14.32.3 0 .17-.14.3-.32.3a.31.31 0 0 1-.32-.3c0-.16.14-.3.32-.3Zm.93.3c.04-.16.2-.26.38-.23.17.04.28.2.24.36a.31.31 0 0 1-.25.23h-.12a.32.32 0 0 1-.2-.13.29.29 0 0 1-.05-.23Zm.85 1.66-.01.01a.04.04 0 0 1-.03.01h-.01a4.56 4.56 0 0 0-3.48 0 .04.04 0 0 1-.02-.02c-.01-.02 0-.05.04-.07h.02a4.64 4.64 0 0 1 3.42 0h.02c.04.02.05.05.05.07Zm-3.7-.1a.2.2 0 0 0-.02.16c.05.1.18.15.28.1a4.4 4.4 0 0 1 3.32 0c.1.05.23 0 .28-.1a.19.19 0 0 0-.01-.17l.68-1.02c.1-.18-.05-.32-.17-.26l-.24.13a5.1 5.1 0 0 0-.45-.2v-.03a.5.5 0 0 0-.4-.59.54.54 0 0 0-.39.07.49.49 0 0 0-.22.28 4.71 4.71 0 0 0-.22-.02.52.52 0 0 0-.52-.4.53.53 0 0 0-.37.14.48.48 0 0 0-.15.26l-.22.02a.5.5 0 0 0-.22-.28.54.54 0 0 0-.4-.07.5.5 0 0 0-.4.6l.01.02c-.15.06-.3.12-.45.2l-.24-.13c-.12-.06-.28.08-.17.26l.68 1.02Z" fill="#575756"/><path d="M8.44 9.68c0 .74 0 .9.43.9.67 0 1.08-.26 1.08-.94 0-.88-.65-.89-1.4-.89h-.11v.93Zm0-1.24h.17c.58 0 1.16-.18 1.16-.86 0-.57-.4-.66-.93-.66l-.4.03v1.49Zm-.57-.87c0-.29-.02-.62-.16-.84.57 0 1.16-.06 1.73-.06.51 0 .97.21.97.77s-.45.82-.91 1.02c.6.14 1.13.38 1.13 1.07 0 1-.78 1.3-1.67 1.3l-1.33-.02c.22-.46.24-1.11.24-1.6V7.56Z" fill="#CC0E25"/><path fill-rule="evenodd" d="M13.56 8.65c.06 0 .11-.05.11-.1 0-.06-.05-.1-.1-.1-.07 0-.12.04-.12.1 0 .05.05.1.11.1Zm-.4.16c-.06.02.04.1.16.1s.23-.12.23-.12-.2-.05-.24-.08c0 0-.08.07-.15.1Zm.18-.4c.03-.04-.15-.1-.19-.01-.08.15.14.17.14.17s.02-.14.05-.17Zm-1.67 4.4c-.12-.08.01-.32.09-.39.05-.04.1.02.23.1.14.08.3 0 .38-.14.07-.13.03-.3-.03-.34-.06-.04-.08-.06-.05-.1.03-.04.05-.25.05-.3 0-.07.07-.04.14 0 .17.15.39.28.5.48a.27.27 0 0 0-.24-.06.26.26 0 0 0-.18.23l-.04.5c0 .04-.06 0-.12-.07s-.2-.11-.2-.11l-.09.17a1.8 1.8 0 0 1-.07.15s-.08-.18-.15-.25c0 0-.12.2-.22.12Zm-2.2-.38h.17c.05.07.14.1.23.1a.3.3 0 0 0 .2-.07.27.27 0 0 0 .09-.2s.2.26.98.26c0 0-.03.14-.03.42 0 .55.32.62.32.62a2.2 2.2 0 0 1-1.72.37s-.02-.04.03-.12c.03-.05-.1-.11-.24-.17a1.5 1.5 0 0 0-.5-.07c-.18 0-.35.02-.5.07-.15.06-.27.12-.24.17.05.08.03.12.03.12a2.2 2.2 0 0 1-1.72-.38s.32-.06.32-.6c0-.29-.03-.43-.03-.43.5 0 .76-.1.89-.18l.1.02a.3.3 0 0 0 .5.07h.17c0 .06-.05.08-.12.13-.17.12.1.42.29.29l.31-.22.31.22c.2.13.46-.17.29-.3-.07-.04-.13-.06-.12-.12Zm-3.3-2.3c-.1.26-.22.52-.33.77-.03.04-.14.18-.23.27-.09.1-.13.26-.23.34-.11.08-.6.43-.6.68 0 .3.3.16.35.1.06-.08.1-.04.1.02.01.06.06.63.04.66-.02.04-.27.2-.27.2s-.04-.1.08-.14c.1-.03.15-.1.1-.18a.1.1 0 0 0-.18.02c-.04.08-.07.12-.15.09-.07-.03-.03-.08-.03-.2 0-.14-.15-.2-.15-.5 0-.31.2-.55.54-.84.34-.28.44-.5.6-.9.15-.38.19-.87.11-.87-.06 0-.11.25-.17.5-.03.12-.1.57-.26.48-.16-.08.18-.38.09-.53-.11.14-.4.18-.41-.05.22.17.36-.1.36-.3v-.12c-.02-.2-.04-.48.2-.48.28 0 .46.5.46.81l-.01.18Zm6.49-2.32c.08-.08.16-.02.1.05-.43.59-.07 1.14.27 1.14 0 0-.51-.53-.07-.93l.08-.07c.28-.24.76-.66.76-1.1 0-.5-.5-.66-.89-.66-.27 0-.47.08-.6.14-.09.03-.14.06-.17.03-.07-.07.1-.22.1-.22s-.34-.06-.32.33c0 .07-.06.11-.08.04-.03-.1.02-.29.02-.29s-.16.05-.24.34c-.08.3-.06.39-.06.39s.2-.22.3-.11c0 0 .45-.51.92-.51.42 0 .45.38.2.63-.23.23-.8.8-.8 1.26 0 .47.36.6.36.6s-.34-.55.12-1.06Zm0 2.4c.16 0 .17-.16.17-.16-.22.17-.36-.1-.36-.3v-.12c.02-.2.04-.48-.2-.48-.28 0-.46.5-.46.81 0 .18.03.26.05.33a.4.4 0 0 1 .02.13c0 .14-.07.23-.16.3-.08.08-.15.13-.13.17l.05.14c.02.08.11.01.18-.08.07-.08.16-.02.2.03.05.05.08.01.05-.05-.02-.06.07-.08.1-.03.02.04.13.18.22.27.07.09.1.13.13.2.02.04.04.1.08.13.05.03.62.41.62.69 0 .3-.3.16-.35.1-.06-.08-.1-.04-.1.02-.01.06-.06.63-.04.66.02.04.27.2.27.2s.04-.1-.08-.14c-.1-.03-.15-.1-.1-.18.04-.07.15-.06.18.02.04.08.07.12.15.09.05-.02.04-.05.03-.1 0-.1 0-.17.05-.25.04-.07.1-.16.1-.35 0-.31-.2-.55-.54-.84a1.9 1.9 0 0 1-.6-.9c-.15-.38-.18-.87-.11-.87.06 0 .11.25.17.5l.03.13c.07.28.13.4.23.35.1-.05-.02-.26-.09-.35-.06-.09 0-.18 0-.18s.1.12.25.12Zm-.3 4.14s.16.05.25-.04c.12-.12-.01-.27-.13-.19-.1.07-.11.23-.11.23Zm-.22.4c-.1-.13.17-.16.17-.16.09.17-.06.3-.17.16Zm-6.28 0c-.1.13-.26 0-.17-.16 0 0 .28.03.17.16Zm-.34-.63c-.12-.08-.25.07-.13.19.09.09.24.04.24.04s-.01-.16-.1-.23ZM4.97 9c.34 0 .7-.55.27-1.14-.06-.07.02-.13.1-.05.45.5.12 1.07.12 1.07s.36-.14.36-.61-.58-1.03-.8-1.26L5 7c-.2-.21-.26-.62.22-.62.47 0 .92.5.92.5.1-.1.3.12.3.12s.02-.1-.06-.39c-.08-.3-.24-.34-.24-.34s.05.19.02.29c-.03.07-.09.03-.08-.04.02-.39-.32-.33-.32-.33s.17.15.1.22c-.03.03-.08 0-.17-.03-.13-.06-.33-.14-.6-.14-.4 0-.89.17-.89.66 0 .44.49.86.76 1.1l.08.07c.44.4-.07.93-.07.93Zm.12-4.09s-.14-.07-.22.08c-.03.08.04.12.12.18.08.05.17.11.15.21-.02.07-.07.07-.12.08-.06 0-.13 0-.14.13-.03.24.3.16.3.16s.36.28.54.34c0 0-.65-.84-.46-.99.07-.05.12.1.16.09.04-.02.02-.12.05-.2.03-.07.11-.08.11.03 0 .12-.05.3.1.61.14.32.25.42.25.42l.37.1-.04-.36-.17-.23s-.4.01-.4-.3c0-.28.22-.31.29-.32.06 0 .17.03.17-.06 0-.1.2-.15.17-.2-.02-.04-.1.05-.23.05-.08 0-.1-.1-.1-.2-.03-.14-.1-.2-.24-.08-.07.07-.02.27-.07.3-.06.02-.04-.23-.18-.17-.08.04-.06.18-.1.2-.03.02-.13-.08-.23-.03-.1.04-.08.16-.08.16Zm2.87.77c-.2.11-.87.21-1.12.09l-.2.15c.18.49.07.77.07.77.06 0 .13.04.17.09.05.04.09.1.1.16.01.07 0 .13-.02.2a.33.33 0 0 1-.13.14.36.36 0 0 1-.2.06s-.23.48-.23 1.33c0 1.38.62 2.6.65 2.67.04.07.26.06.2-.1-.05-.17-.01-.22.19-.17.19.04.85.23 1.25 1.05h.62c.4-.82 1.06-1.01 1.25-1.05.2-.05.24 0 .19.17-.02.06 0 .1.03.12l.12.01c.02 0 .04-.01.05-.03.03-.06.65-1.29.65-2.67 0-.85-.24-1.33-.24-1.33a.34.34 0 0 1-.35-.33c0-.15.13-.3.28-.32 0 0-.11-.28.08-.77l-.2-.15c-.26.12-.92.02-1.13-.09a2.27 2.27 0 0 0-.66-.14.36.36 0 0 1-.1.2.4.4 0 0 1-.28.11.4.4 0 0 1-.27-.1.36.36 0 0 1-.11-.2s-.45.02-.66.13Zm-1.95 6.84c-.14.08-.3 0-.38-.14-.07-.13-.03-.3.03-.34.06-.04.08-.06.05-.1-.03-.04-.04-.2-.05-.28-.01-.1-.1-.03-.16 0a1.7 1.7 0 0 0-.49.46c.1-.09.21-.07.25-.06.1.03.17.12.18.23l.04.5c0 .04.06 0 .12-.07s.2-.11.2-.11l.08.17.08.15s.08-.18.15-.25c0 0 .12.2.22.12.13-.08 0-.3-.09-.38-.05-.04-.1.02-.23.1Zm5.67-7.83c-.03.04.17.1.17.19 0 .1.11.05.17.06.07 0 .3.04.3.31 0 .32-.41.3-.41.3l-.17.24-.04.36.37-.1s.11-.1.25-.42c.15-.31.1-.5.1-.6 0-.12.08-.11.11-.04.03.08.01.18.05.2.04.02.1-.14.16-.09.2.15-.46 1-.46 1 .18-.07.55-.35.55-.35s.32.08.3-.16c-.02-.13-.09-.13-.15-.13-.05 0-.1 0-.12-.08-.02-.1.07-.16.15-.21.08-.06.15-.1.12-.18-.08-.15-.22-.08-.22-.08s.02-.12-.08-.16c-.06-.03-.13 0-.18.01-.02.02-.05.03-.06.02l-.02-.06c-.01-.05-.02-.12-.08-.14-.08-.04-.1.04-.12.1-.01.05-.02.08-.05.07-.02-.01-.02-.06-.03-.12 0-.07 0-.14-.04-.18-.08-.07-.17-.12-.21-.02-.04.1-.01.3-.13.3-.13 0-.2-.09-.23-.04ZM4.66 8.4c.03.03.05.17.05.17s.22-.02.14-.17c-.04-.08-.22-.03-.2 0Zm-.21.39s.11.13.23.13c.12 0 .22-.09.15-.11-.06-.03-.14-.1-.14-.1a.96.96 0 0 1-.24.08Zm-.01-.35c-.06 0-.11.05-.11.1s.03.09.07.1c.06.02.13-.01.15-.07 0-.06-.05-.13-.11-.13Zm8.6.1a.39.39 0 0 1 .4-.4c.66 0 .5 1.03-.32 1.03-.31 0-.56-.1-.56-.1.15.14.13.38.11.57v.14c0 .06 0 .11.04.12.14.02.14-.21.14-.21.13.05.2.24.19.38a.37.37 0 0 1-.32.34s.28.16.2.41l-.1.36.1.1c.37.31.61.6.61.98 0 .24-.07.36-.12.45a.45.45 0 0 0-.03.04v.08c.01.06.03.22-.14.3h-.1c.03.13 0 .38-.04.44-.05.06-.23-.06-.23-.06-.07.12-.15.23-.24.33l.15.17c.12.12.1.3-.02.43a.4.4 0 0 1-.25.11c.07.18 0 .34-.12.4-.13.09-.3.05-.41-.08l-.22-.31c-.49.26-1.04.41-1.62.41-.74 0-1.1-.15-1.1-.15-.02-.04.11-.19.11-.19L9 14.61l-.15.02s.13.15.11.2c0 0-.36.14-1.1.14-.57 0-1.13-.14-1.62-.41l-.22.31c-.1.13-.28.17-.41.09-.12-.07-.2-.23-.12-.4a.4.4 0 0 1-.25-.12c-.13-.13-.14-.3-.02-.43l.15-.17c-.1-.1-.17-.21-.24-.33 0 0-.18.12-.23.06-.04-.06-.07-.3-.03-.44h-.1c-.18-.08-.16-.24-.16-.3.01-.05 0-.08-.02-.12a.78.78 0 0 1-.12-.45c0-.5.4-.77.71-1.08l-.1-.36c-.08-.25.2-.41.2-.41a.37.37 0 0 1-.32-.34c-.01-.14.06-.33.18-.38 0 0 .01.23.15.21.07-.02.04-.2.04-.26-.02-.19-.04-.43.11-.58 0 0-.25.1-.56.1-.82 0-.98-1.01-.32-1.01.33 0 .41.3.4.38 0 .1 0 .14.02.08.1-.21 0-.33-.08-.4l-.08-.06C4.52 7.88 4 7.43 4 6.9c0-.76.87-.99.87-.99a.3.3 0 0 1-.2-.34c.02-.13.08-.22.17-.27-.09-.06-.25-.2-.15-.39a.34.34 0 0 1 .23-.2c.04-.06.1-.1.16-.14a.36.36 0 0 1 .2-.02c.02-.06.06-.11.14-.15a.3.3 0 0 1 .14-.02c.07-.13.24-.23.4-.2.09.03.1.02.1.02s.34-.16.7.16c.36.32.28.69.28.69a4.29 4.29 0 0 1 3.92 0s-.08-.37.28-.69c.36-.32.7-.16.7-.16l.1-.01c.15-.04.33.06.4.19a.3.3 0 0 1 .29.17c.13-.02.28.05.34.16h.03c.3.1.29.43.06.6.21.1.24.5 0 .6h-.03s.87.23.87.99c0 .53-.52.98-.82 1.25l-.08.06c-.07.07-.17.19-.08.4.02.06.03.01.02-.08Z" fill="#575756"/></svg>