<!-- by TradingView --><svg width="18" height="18" viewBox="0 0 18 18" xmlns="http://www.w3.org/2000/svg"><path fill="#F0F3FA" d="M0 0h18v18H0z"/><path d="M8.48 6.04c1.47-.23 2.6-1.18 2.45-2.06a.9.9 0 0 0-.16-.38c.22.16.37.38.42.66.16.97-1.07 2-2.65 2.25-1.59.26-3.15-.07-3.32-1.04-.08-.5.27-1.02.86-1.42-.4.36-.62.77-.56 1.09.15.88 1.5 1.14 2.96.9Z" fill="#BF9013"/><path d="M8.78 9.31c2.7-.34 5-2 4.8-3.36 0-.05 0-.1-.02-.14.07.14.1.29.13.44.19 1.4-2.2 3.12-4.98 3.47-2.79.36-4.9-.63-5.12-2.18-.07-.56.15-1.11.58-1.6-.26.4-.38.82-.33 1.25.2 1.5 2.25 2.46 4.94 2.12Z" fill="#BF9013"/><path d="M14.54 8.88c.03 1.68-2.6 3.27-5.42 3.56-3.15.33-5.13-.87-5.32-2.6-.06-.55.27-1.36.98-2.09-.9.72-1.4 1.6-1.31 2.42.2 1.83 2.5 3.07 5.5 2.76 3.01-.31 5.8-2.07 5.6-3.9l-.03-.15Z" fill="#BF9013"/><path d="M12.9 13.47c-.71.75-2.16 1.27-3.74 1.27-2.24 0-4.06-1.02-4.06-2.28 0-.57.37-1.14.98-1.58-.75.43-1.22 1.03-1.22 1.7 0 1.32 1.58 2.4 3.88 2.4 1.89 0 3.5-.63 4.16-1.51Z" fill="#BF9013"/><path fill-rule="evenodd" d="M8.7 15c3.68 0 6.3-2.7 6.3-6.01C15 5.69 12.4 3 9.06 3A6.02 6.02 0 0 0 3 8.99C3 12.29 5.35 15 8.7 15Zm.1-.26c3.55 0 6.08-2.58 6.08-5.74s-2.5-5.71-5.74-5.71A5.78 5.78 0 0 0 3.3 9c0 3.16 2.27 5.74 5.5 5.74Z" fill="#BF9013"/><path d="M5.44 12.27c-1.3-.37-2.07-1.73-1.53-3.91.45-1.87 1.9-3.31 2.96-3.61-1.06.1-2.75 1.6-3.23 3.6-.55 2.21.3 3.57 1.68 3.9l.12.02ZM13.84 6.34a5.58 5.58 0 0 0-3.74-2.2 3.99 3.99 0 0 1 3.74 2.2ZM14.14 11.03a6.48 6.48 0 0 0-1.28-3.9 6.5 6.5 0 0 0-3.58-2.7c1.33.09 2.81 1 3.85 2.48a5.35 5.35 0 0 1 1 4.12Zm-6.52-.45ZM11.78 14.02A16.6 16.6 0 0 0 11 9.59c-.5-1.83-1.08-3.43-1.89-4.47a9.9 9.9 0 0 1 2.4 4.4c.44 1.65.51 3.23.27 4.5Zm-6.6-1.47ZM8.05 5.1a11.9 11.9 0 0 0-.28 4.95c.22 1.8.7 3.38 1.27 4.42a33.64 33.64 0 0 1-.99-9.37Z" fill="#BF9013"/><path d="M9.74 9.73Zm-3.48 4.04C5.48 13.01 5 11.34 5.1 9.43c.11-2.04.86-3.73 1.81-4.31-.78.74-1.39 2.4-1.5 4.36-.1 1.8.24 3.41.84 4.3Z" fill="#BF9013"/></svg>