<!-- by TradingView --><svg width="18" height="18" viewBox="0 0 18 18" xmlns="http://www.w3.org/2000/svg"><path fill="#08C" d="M0 0h18v18H0z"/><path d="M5.68 8v3h1.2c.25 0 .75-.17.75-.83a.72.72 0 0 0-.57-.72c.16-.04.4-.24.4-.74 0-.63-.45-.71-.7-.71H5.68Zm.32.38h.71c.24 0 .43.2.43.46s-.2.47-.43.47h-.7v-.93Zm0 1.3h.81c.27 0 .5.22.5.48s-.23.46-.5.46h-.8V9.7ZM8 8h.32v3H8V8Zm1 0h.32v2.63h1.3V11H9V8Z" fill="#D9D9D9"/><path d="m4 8.96.22.24 3.51-3.73 3.5 3.73.23-.24L7.73 5 4 8.96Zm9.61-.14 2.08-1c.17-.07.34.09.3.28l-.53 2.48c-.02.11-.16.13-.2.02l-.4-.99-1.3 1.46-1.03-1.15L11.31 12H4v-.35h7.05l1.42-2.45 1.1 1.33 1.1-1.24-1.04-.25c-.1-.02-.11-.18-.02-.22Z" fill="#231F20"/></svg>