<!-- by TradingView --><svg width="18" height="18" viewBox="0 0 18 18" xmlns="http://www.w3.org/2000/svg"><path fill="#011E40" d="M0 0h18v18H0z"/><path d="M6.34 8.91c-.06.03-.06.05 0 .07.52.19.68.55.48 1.09-.29.74-1.06.92-1.81.93l-1.7-.01a.34.34 0 0 1-.24-.12.3.3 0 0 1-.06-.25c.21-1.1.39-1.93.51-2.5.06-.28.13-.48.21-.6.35-.5.79-.5 1.33-.51h.32c.74-.02 1.8-.04 1.73.9-.04.46-.3.8-.77 1ZM4.89 8c-.08 0-.12.04-.13.11l-.06.34c-.01.06.01.09.07.09.42 0 .69 0 .8-.03.31-.05.43-.5.02-.52-.26-.02-.49-.01-.7 0Zm.53 1.41a6.18 6.18 0 0 0-.8 0c-.08 0-.13.04-.15.12l-.08.4c-.01.06.02.1.08.1.48 0 .79 0 .92-.02.35-.05.5-.57.03-.6Zm4.33.03H9.1c-.03 0-.04-.02-.04-.05.04-.38.16-.77.62-.79h.08c.8-.04 1.5-.06 1.2.96a1.8 1.8 0 0 1-1.35 1.36c-.97.24-2.24.06-2.37-1.09-.06-.58.07-1.16.4-1.72.41-.72 1.18-1.06 2.05-1.1.41-.01.83.03 1.24.14.2.05.25.16.15.32l-.18.3a.47.47 0 0 1-.47.22c-.76-.06-1.5-.08-1.82.7-.2.47-.46 1.47.52 1.35.37-.04.6-.22.67-.54 0-.04 0-.06-.05-.06Zm3.04-.65.12-.08a4.94 4.94 0 0 1 1.53-.06c.04 0 .06.03.05.06-.01.4-.16.68-.43.81-.3.15-.77.14-1.2.13H12.52a.05.05 0 0 0-.02.03l-.25 1.27c0 .02 0 .03-.02.04a.08.08 0 0 1-.05.02h-.8a.29.29 0 0 1-.23-.1.27.27 0 0 1-.06-.22c.14-.72.3-1.47.47-2.23.33-1.51 1.62-1.48 2.94-1.44l.44.01c.04 0 .05.02.05.06l-.1.5c-.12.42-.54.41-.99.4-.54 0-1.11-.01-1.19.76 0 .06.02.07.07.04Z" fill="#50AF47"/></svg>