<!-- by TradingView --><svg width="18" height="18" viewBox="0 0 18 18" xmlns="http://www.w3.org/2000/svg"><path fill="#F0F3FA" d="M0 0h18v18H0z"/><path d="M9.47 9.31c0 .25-.03.5-.12.72a2.74 2.74 0 0 1-2.54 1.78A2.84 2.84 0 0 1 4 8.97C4 7.55 5.26 6.38 6.62 6.2a2.78 2.78 0 0 0-.1.97C5.74 7.38 5 8.11 5 8.97c0 1.04.78 1.9 1.81 1.9.57 0 1.08-.28 1.42-.68.25-.3.3-.7.3-1.1 0-.14 0-.28.04-.42a2.64 2.64 0 0 1 2.62-2.17A2.79 2.79 0 0 1 14 9.28c0 1.4-1.01 2.55-2.34 2.78a2.8 2.8 0 0 0-.01-.96c.81-.2 1.35-.94 1.35-1.82 0-1.03-.78-1.87-1.81-1.87-.71 0-1.27.5-1.57 1.1a1.8 1.8 0 0 0-.15.8Z" fill="#96989D"/><path d="M8.97 9.47c-.24 0-.49-.03-.72-.12A2.72 2.72 0 0 1 6.5 6.81 2.81 2.81 0 0 1 9.31 4c1.42 0 2.66 1.3 2.85 2.67a3.63 3.63 0 0 0-.97-.17C10.97 5.7 10.18 5 9.3 5A1.82 1.82 0 0 0 8.1 8.23c.3.25.7.3 1.09.3a2.67 2.67 0 0 1 2.62 2.66A2.81 2.81 0 0 1 9 14c-1.4 0-2.55-.92-2.77-2.25a4.2 4.2 0 0 0 .95.04C7.38 12.6 8.12 13 9 13c1.04 0 1.88-.78 1.88-1.81 0-.71-.5-1.27-1.11-1.57a1.8 1.8 0 0 0-.8-.15Z" fill="#DE9F27"/></svg>