<!-- by TradingView --><svg width="18" height="18" viewBox="0 0 18 18" xmlns="http://www.w3.org/2000/svg"><path fill="#F0F3FA" d="M0 0h18v18H0z"/><path d="m6.66 6.17.09-.14a1.66 1.66 0 0 1 1.1-.67c.1-.02.13.03.1.14l-2.42 7.8c-.01.03-.03.05-.05.05l-1.04.14c-.04.01-.05-.01-.04-.05L6.33 7.2a.27.27 0 0 0 0-.18 2.07 2.07 0 0 0-.7-.97 5.34 5.34 0 0 0-1.36-.65.33.33 0 0 1-.16-.15c-.24-.4-.09-.7.44-.87.56-.18 1.25-.3 2.06-.35.81-.05 2.77-.05 5.86 0 .5 0 .85.07 1.07.21.34.22.49.49.46.82-.04.3-.21.57-.53.8l-1.95 1.08a.93.93 0 0 0-.31.29.33.33 0 0 0-.06.25c.02.1.07.17.14.21a6.86 6.86 0 0 1 1.95 1.52c.53.72.55 1.52.04 2.4a4.62 4.62 0 0 1-2.62 2.16c-1.11.36-2.2.28-3.27-.25-.19-.1-.26-.26-.2-.48.04-.23.17-.4.38-.5.17-.1.45-.16.83-.2.41-.04.73-.04.96 0 .33.08.6.25.8.54.04.06.1.09.16.08a2.8 2.8 0 0 0 1.87-.94c.5-.62.37-1.28-.38-1.99-.1-.09-.67-.52-1.73-1.31-.28-.2-.47-.46-.59-.75-.07-.19-.02-.33.14-.42l2.4-1.35a.76.76 0 0 0 .29-.28c.31-.52-.75-.91-1.08-.93H6.5c-.12 0-.21.09-.27.2a.38.38 0 0 0 0 .37l.3.59c.04.08.08.08.14 0Z" fill="#313E50"/></svg>