<!-- by TradingView --><svg width="18" height="18" viewBox="0 0 18 18" xmlns="http://www.w3.org/2000/svg"><path fill="#F0F3FA" d="M0 0h18v18H0z"/><path d="M6.36 5.33c-.38.14-.7 1.4-.8 2l.32.34c.38.26.27.66.16.83l-.8 1.83c-1.02-.13-1.39.4-1.44.67L3 13c.51-.67 1.6-.94 2.08-1h5.28c.51 0 .85-.44.96-.67l.48-1.16c.32-.84.8-1.5 1.44-1.5.51 0 .85-.45.96-.67l.8-2.17c-.77.8-1.39 1-1.6 1h-.96c-.64 0-.8-.33-.8-.5C11.48 5.17 10.52 5 9.4 5s-2.56.17-3.04.33ZM5.88 7l.32-.83c.26-.67.96-.84 1.28-.84h2.56c.64 0 .64.34.48 1.17-.13.67-.48.94-.64 1 .26.13.1.61 0 .83l-.32.84c-.26.66-.64.83-.8.83H5.88L7 7.5c.1-.39.42-1.17.8-1.17.38 0 .27.45.16.67h1.12c.32 0 .8 0 .8-.5s-.48-.67-1.6-.67c-.9 0-1.33.45-1.44.67l-.32.5h-.64Zm5.76 0h2.24a.84.84 0 0 1-.8.67h-.64c-.38 0-.7.44-.8.66-.21.45-.7 1.5-.96 2.17-.26.67-.64.83-.8.83H3.96c.13-.53.7-.66.96-.66h3.84c.77 0 1.17-.78 1.28-1.17l.48-1.33c.26-.94.85-1.17 1.12-1.17ZM7.48 8l-.64 1.33h1.44a.7.7 0 0 0 .64-.5l.16-.5c.05-.1.06-.33-.32-.33H7.48Z" fill="#0093DD"/></svg>