<!-- by TradingView --><svg width="18" height="18" viewBox="0 0 18 18" xmlns="http://www.w3.org/2000/svg"><path fill="#F0F3FA" d="M0 0h18v18H0z"/><path d="M9 7.3V5l6 4.57-1.36.95c-.06-1.25-1.08-1.56-1.59-1.66h-.87c-.44-.9-1.26-1.56-2.15-1.56H9Z" fill="#003875"/><path d="M9 5 3 9.57l1.23.8L7.5 7.83c.2-.17.8-.51 1.49-.52V5Z" fill="#4DAC3A"/><path d="M9 10.34V8.77c.11-.05.3-.15.41-.15.3 0 .59.24.59.58 0 .27-.14.47-.37.64l-.63.5Z" fill="#003875"/><path d="M9 8.77c-.13.05-.24.13-.3.17L6 10.85l1.15.78L9 10.33V8.78Z" fill="#4DAC3A"/><path d="M10.46 12.02v-1.63l.06-.04c.11-.1.5-.37.75-.37.3 0 .73.25.73.59 0 .27-.35.54-.52.64l-1.02.8Z" fill="#003875"/><path d="M10.46 10.39 8 12.22l1.15.78 1.31-.99V10.4Z" fill="#4DAC3A"/></svg>