<!-- by TradingView --><svg width="18" height="18" viewBox="0 0 18 18" xmlns="http://www.w3.org/2000/svg"><path fill="#F0F3FA" d="M0 0h18v18H0z"/><path fill-rule="evenodd" d="M9.02 3.5c.03 0 .06.02.1.07.1.16.16.33.18.54.01.22-.04.4-.17.53-.03.03-.03.06 0 .08l.02.01c.03.03.06.02.08-.01l.21-.32h.05l-.18.32c-.06.08-.04.1.05.04.2-.13.33-.34.36-.62 0-.03 0-.04-.03-.04a.28.28 0 0 0-.2.09c-.04.04-.06.03-.06-.03l-.02-.2c0-.03.01-.05.04-.04 1.26.13 2.32.65 3.18 1.56a4.95 4.95 0 0 1 1.25 4.56 5.01 5.01 0 0 1-6.71 3.61A5 5 0 0 1 4.11 10 5.04 5.04 0 0 1 8.6 3.91c.03 0 .04.01.04.04l-.02.2c0 .07-.03.08-.07.03a.28.28 0 0 0-.19-.08c-.02 0-.04 0-.03.04.03.28.15.49.36.62.08.06.1.04.05-.05l-.18-.3V4.4h.04l.21.32c.03.03.05.04.08.01h.02c.03-.03.04-.06 0-.1-.12-.13-.17-.3-.16-.53.02-.2.08-.38.19-.53.03-.05.06-.07.1-.07Zm.03.13H9a.84.84 0 0 0-.1.82c.04.12.07.12.07-.01 0-.27.02-.4.04-.4.03 0 .04.13.04.4 0 .13.03.13.08.01a.84.84 0 0 0-.1-.82Zm-4.4 4.04a4.54 4.54 0 0 1 3.6-3.23c.04 0 .06-.03.04-.06l-.06-.18c0-.02-.02-.03-.05-.03a4.79 4.79 0 0 0-3.97 4.54 4.77 4.77 0 0 0 2.28 4.37 4.78 4.78 0 0 0 7.28-3.67A4.8 4.8 0 0 0 9.82 4.2l-.06.22c0 .02 0 .03.02.04a4.56 4.56 0 0 1 2.02 8.09 4.5 4.5 0 0 1-7.04-1.98 4.53 4.53 0 0 1-.1-2.9Zm3.69-3.14.02.03c.02.03.02.05-.02.05h-.38c-.1 0-.1-.01 0-.03l.31-.08c.03 0 .05 0 .07.03Zm1.41-.02c-.02 0-.04 0-.06.03l-.02.03c-.02.03-.02.04.02.04h.36c.09 0 .1-.01 0-.03l-.3-.07Zm-1.53.25v.15c0 .02 0 .03-.03.03H7.08c-.06 0-.06-.02-.01-.04.26-.13.46-.2.6-.19l.52.01c.02 0 .03.01.03.04Zm1.63-.04c-.03 0-.04.01-.04.03v.16c0 .01.01.02.03.02l1.11.02c.06 0 .07-.02.01-.04a1.45 1.45 0 0 0-.6-.2h-.51ZM9 5.14c-.02 0-.03.13-.03.4 0 .14-.02.14-.08.02a.84.84 0 0 1 .08-.82l.03-.01h.02c.18.28.22.55.11.83-.04.12-.07.11-.07-.02-.02-.27-.03-.4-.06-.4Zm-.48-.06v-.02l.02-.02h.01l.14.2c.02.03.03.03.04 0 .03-.2-.1-.37-.39-.48-.02-.01-.04 0-.04.03 0 .13.03.25.1.39.08.14.18.24.3.27h.02v-.03l-.2-.34Zm.97-.02-.02-.02v.01l-.14.2c-.03.03-.04.02-.05-.02-.02-.1.02-.2.1-.3a.79.79 0 0 1 .3-.17c.02-.01.04 0 .04.03 0 .13-.03.26-.1.39-.09.15-.19.24-.3.28l-.03-.01v-.02l.2-.35v-.02Zm-.71-.16-.03-.04c-.01-.02-.02-.02-.03 0v.08h.05c.02-.01.02-.02 0-.04Zm.51.03c.03-.02.03-.05.02-.06h-.06c-.03.03-.03.05-.02.07.01.01.04 0 .06-.01Zm-2.84.33.34.01h1.53c.03 0 .04 0 .02-.04l-.1-.15a.07.07 0 0 0-.06-.04H6.9c-.12 0-.27.07-.43.22Zm5.06-.02v.02l-.48.01H9.69c-.02 0-.02 0-.01-.02l.11-.2.03-.01h1.25c.12 0 .28.07.45.2Zm-2.77.3c-.09-.02-.15-.04-.17-.07-.09-.08-.16-.12-.23-.1-.03 0-.03.01 0 .02l.39.23c.02 0 .04 0 .04-.02v-.02c0-.03 0-.04-.03-.04Zm.71-.07c.08-.08.16-.12.23-.1.03 0 .03.01 0 .02l-.4.23c-.02 0-.03 0-.04-.02v-.02c0-.03.01-.04.03-.04.1-.02.15-.04.18-.07Zm-2.91.14.23-.22-.3-.01c-.02 0-.03.01-.03.03 0 .08.03.15.1.2Zm.92-.05c0 .03 0 .04-.03.04h-.3a.06.06 0 0 1-.05-.03L7 5.4c0-.02 0-.04.03-.04h.34c.02 0 .04.02.05.04l.04.15Zm.75.05c.02 0 .02 0 .02-.02v-.2l-.01-.01h-.18c-.35-.01-.52 0-.52.01v.18c0 .02.17.03.52.03h.17Zm2.26-.18-.07.12a.1.1 0 0 1-.1.05h-.48c-.02 0-.02 0-.03-.02l-.02-.19.02-.01h.65c.04 0 .05.01.03.05Zm.07-.02-.04.16c0 .03 0 .04.04.04h.3c.02 0 .04-.02.06-.04l.07-.16c0-.03 0-.04-.03-.04h-.35c-.02 0-.04.02-.05.04Zm.9.2-.27-.23h.33c.02 0 .03.01.04.03 0 .09-.03.16-.1.2ZM7.66 7.45l-.15-.49c-.16-.5-.36-.99-.59-1.47-.01-.03-.04-.04-.07-.02-.1.08-.2.18-.27.3-.07.1-.1.2-.1.3 0 .08.03.09.06.03l.16-.25c.05-.06.1-.07.15-.01a8.85 8.85 0 0 1 .61 1.61c.02.04.05.06.09.06h.07c.04 0 .06-.02.04-.06Zm3.7-1.72c.08.1.12.22.11.33 0 .11-.03.11-.07.01a.96.96 0 0 0-.17-.24.07.07 0 0 0-.06-.02.07.07 0 0 0-.06.03 7.54 7.54 0 0 0-.62 1.61c0 .04-.03.06-.07.06h-.1c-.04 0-.05-.02-.04-.05l.07-.16c.18-.63.42-1.24.7-1.83 0-.03.03-.03.05 0l.26.26Zm-2.82.1c-.03-.06-.02-.07.03-.01.06.05.11.12.17.21l.02.01.02-.01.01-.05a.1.1 0 0 0 0-.07.72.72 0 0 0-.41-.4h-.05a.05.05 0 0 0-.02.05c.03.28.14.48.32.59.12.07.14.05.07-.06l-.16-.26Zm.9-.01-.16.21-.03.01-.02-.01-.01-.05a.1.1 0 0 1 0-.07c.08-.19.22-.32.42-.4h.05l.02.05c-.04.28-.15.48-.33.6-.12.07-.14.05-.06-.07l.15-.25c.04-.07.03-.08-.03-.02Zm-2.16.12h.16c.02 0 .03-.01.03-.03v-.15c0-.03-.02-.04-.05-.04H7.2c-.03 0-.04.02-.03.05l.04.11c.01.04.04.06.08.06Zm1.05 0h-.52c-.05 0-.08-.02-.09-.06l-.04-.13c-.01-.02 0-.03.02-.03h.52l.02.01.1.2-.01.01Zm.54-.22h-.05c-.01 0-.02 0-.02.02 0 .03.02.06.04.08.01.02.03.02.04 0 .01-.02.02-.04.01-.07 0-.02 0-.03-.02-.03Zm.31 0c.03-.01.04 0 .03.02 0 .04-.02.07-.04.09-.02.02-.04.02-.05 0-.02-.06 0-.1.06-.11Zm1.1 0a20.71 20.71 0 0 0-.45 0 .06.06 0 0 0-.05.03l-.09.14c-.01.03 0 .05.03.05a17.93 17.93 0 0 0 .45 0c.02 0 .03-.01.05-.03l.08-.15c.02-.03.01-.04-.02-.04Zm.24.22c-.02 0-.03-.01-.03-.03v-.15c0-.03.01-.04.04-.04h.24c.03 0 .05.01.03.05l-.04.11c-.01.04-.04.06-.08.06h-.16Zm-1.55.7c0-.28.01-.42.03-.42.03 0 .04.14.05.41.01.13.04.13.08.01a.84.84 0 0 0-.11-.82h-.05a.84.84 0 0 0-.08.83c.06.12.08.11.08-.02Zm-.85.7.02.13c0 .03-.01.04-.04.04h-.17c-.03 0-.05-.02-.05-.04L7.8 7.1l-.2-1.23a6.4 6.4 0 0 1 .53 1.45Zm1.96.11.07-.25c.1-.44.17-.87.22-1.3.01-.07 0-.08-.03 0a6.1 6.1 0 0 0-.52 1.6.3.3 0 0 0 .23 0c.02-.01.03-.03.03-.05ZM6.66 6.26l-.02-.01v-.03c0-.05.01-.1.04-.13.03-.04.07-.06.1-.06h.01c.04 0 .08.02.1.06.03.03.05.08.05.13v.03l-.02.01h-.26Zm1.55-.01.03-.13c.01-.03.03-.04.06-.03l.18.05c.01 0 .02 0 .01-.02a.12.12 0 0 0-.12-.08h-.5c-.03 0-.04 0-.03.03l.05.16c.01.03.04.04.07.04h.22c.01 0 .02 0 .03-.02Zm2.85.02c-.01 0-.02 0-.02-.02v-.01c0-.06.02-.11.04-.15.03-.05.07-.07.11-.07.05 0 .09.02.12.06.03.05.04.1.04.16l-.01.02h-.28Zm-3.55 0a.06.06 0 0 0 .03-.06l-.03-.16-.02-.01h-.17c-.01 0-.02 0-.02.02.02.1.06.17.13.21.03.02.05.02.08 0Zm2.22-.18-.16.04c-.01 0-.02 0-.01-.01.02-.05.05-.08.1-.08h.47c.03 0 .03 0 .03.03l-.05.15c-.01.02-.04.04-.07.04h-.2s-.02 0-.02-.02l-.04-.12c0-.03-.02-.04-.05-.03Zm.94 0v-.03L10.51 6l-.03.01-.02.06c-.04.1-.03.17.02.19h.03c.05.03.1-.02.13-.13l.02-.06Zm-2.11.44c.04.1.1.18.16.26.05.06.04.09-.04.07-.03 0-.06-.02-.1-.07a.85.85 0 0 1-.27-.57c0-.02 0-.03.02-.04h.04c.26.11.4.3.45.55.02.1 0 .1-.05.02a2.53 2.53 0 0 0-.18-.24c-.07-.08-.08-.08-.03.02Zm.88-.02c.08-.09.09-.08.04.02-.04.09-.1.17-.16.26-.05.06-.04.08.04.07.03 0 .06-.03.1-.07a.84.84 0 0 0 .26-.57l-.01-.04a.04.04 0 0 0-.04 0c-.26.11-.4.3-.45.55-.02.09 0 .1.05.02s.1-.16.17-.24ZM7.47 6.5c.02.07.07.12.1.1.03 0 .04-.07.01-.14s-.07-.12-.1-.1c-.04 0-.04.07-.01.14Zm2.94.11c-.03 0-.04-.07-.01-.15.02-.07.07-.12.1-.1.03 0 .04.07.01.14-.02.07-.07.12-.1.11Zm.9-.2-.04.14c0 .02-.02.04-.05.04h-.3c-.03 0-.04 0-.03-.03l.06-.14a.06.06 0 0 1 .06-.04h.26c.03 0 .04 0 .03.03Zm-4.4-.05-.17.01c-.02 0-.03.02-.03.04l.02.16c0 .03.03.05.06.04l.25-.02c.04-.01.05-.03.04-.06l-.06-.12c-.02-.04-.06-.06-.1-.05Zm1.23.23h-.08c-.03 0-.04-.01-.05-.04l-.05-.15c-.01-.02 0-.03.02-.03H8.2c.03 0 .04.02.05.04l.06.15c0 .02 0 .04-.03.03h-.14Zm1.88-.2L10 6.36a1.43 1.43 0 0 0-.2.01l-.01.02a1.3 1.3 0 0 0-.05.19h.01a1.5 1.5 0 0 0 .2 0l.01-.02.06-.17Zm-2.44.43c.02.07.05.12.07.12.02 0 .02-.07 0-.14-.03-.08-.06-.13-.08-.13-.02.01-.02.07 0 .15Zm-.76-.13c-.03 0-.04.02-.03.04l.04.15c0 .02.02.04.05.04h.32c.03 0 .04-.01.03-.04l-.07-.15a.06.06 0 0 0-.06-.03h-.28Zm1.42.13v.06l-.04.05h-.03c-.03 0-.04 0-.05-.03l-.05-.17c-.01-.03 0-.04.04-.04h.02c.2-.01.31.03.35.11.01.03 0 .04-.03.03l-.16-.04c-.03-.01-.05 0-.05.03Zm1.34 0c.1-.02.16-.03.2-.02l.02.04v.07c.02.03.03.03.05 0 .03-.04.05-.1.06-.18 0-.03 0-.04-.03-.04h-.07c-.07 0-.11 0-.14.02a.23.23 0 0 0-.1.1c-.02.02-.02.03.01.02Zm.75-.02c-.02.08-.02.14 0 .15.02 0 .05-.05.07-.13.03-.07.03-.14 0-.14l-.07.12Zm.85.09.04-.15c0-.03 0-.04-.04-.04h-.28a.06.06 0 0 0-.06.03l-.07.15c0 .03 0 .04.03.04h.33c.02 0 .04-.01.05-.03Zm-2.47.58c0 .04-.04.05-.1.02-.1-.03-.2-.16-.27-.38a.56.56 0 0 1-.02-.16c0-.06.04-.07.1-.05.1.05.18.11.24.18.09.09.12.17.08.25 0 .02-.02.03-.04 0a.54.54 0 0 1-.12-.15h-.03v.02l.16.27Zm.38.02h.1a.88.88 0 0 0-.14-.57A.04.04 0 0 0 9 6.9c-.01 0-.03 0-.03.02a.84.84 0 0 0-.14.56c.04.02.09.03.14 0 .02 0 .03-.02.03-.04v-.08c0-.1.02-.1.05-.01a.2.2 0 0 1 0 .09c0 .02 0 .04.03.05Zm.57-.29c-.12.24-.23.33-.35.29l.18-.28V7.2h-.02l-.13.16c-.02.02-.03.02-.04-.01-.02-.08-.02-.14.02-.2A.6.6 0 0 1 9.46 7a.63.63 0 0 1 .2-.1c.05-.02.08 0 .06.06l-.06.24Zm-.4-.11c-.02 0-.03-.02-.03-.04 0-.03.01-.05.02-.05.02 0 .03.02.03.05 0 .02-.02.04-.03.04Zm1.03.1a.1.1 0 0 1-.04.07.3.3 0 0 1 .05-.23c.02-.02.02-.02.02.01a.4.4 0 0 1-.03.15Zm-2.91.3c.02 0 .03 0 .02-.02l-.14-.41c0-.02-.02-.04-.04-.04h-.3c-.04 0-.06.02-.05.05l.1.4c0 .02.02.03.03.03h.38Zm.9-.31.15.3c.01.01 0 .02-.01.02H8.3c-.03 0-.05 0-.05-.03l-.04-.15-.04-.27c0-.02 0-.03.03-.03.01 0 .02 0 .03.02l.06.14Zm2.83-.15h-.37l-.03.01-.11.43c0 .02 0 .03.02.03H11c.02 0 .03 0 .03-.02l.11-.42c.01-.02 0-.03-.02-.03Zm-1.37.45c-.05.02-.09.03-.12.02-.02 0-.03-.02-.01-.04a.58.58 0 0 0 .1-.19l.08-.22h.01c.01 0 .02 0 .01.01l-.07.42Zm-3.43.64a.56.56 0 0 0 .34-.2c.01-.02 0-.03-.01-.04-.18-.03-.3.03-.36.2 0 .03 0 .04.03.04Zm.64.79c0 .23.08.37.23.41.14.03.25 0 .32-.12a.2.2 0 0 1 .17-.1h.06c.07 0 .1.04.06.1-.13.27-.34.38-.63.34a.52.52 0 0 1-.36-.22.7.7 0 0 1-.12-.41c0-.17.04-.31.12-.42.08-.12.2-.19.36-.2.3-.05.5.06.63.32.03.07.01.1-.06.1h-.05a.2.2 0 0 1-.18-.1c-.07-.1-.17-.15-.31-.11-.16.04-.24.17-.24.4Zm3.42-.42a.7.7 0 0 0-.12.41c0 .17.04.31.11.42.08.12.2.19.36.22.29.04.5-.07.63-.33.04-.07.02-.1-.06-.1h-.05a.2.2 0 0 0-.18.1c-.07.1-.17.14-.31.1-.16-.03-.24-.17-.23-.4 0-.24.08-.38.23-.41.14-.03.25 0 .32.12.04.06.1.1.17.1h.06c.07 0 .09-.04.06-.1-.13-.27-.34-.38-.63-.34a.52.52 0 0 0-.36.2Zm-4.53.4c.14.1.18.24.12.4a.36.36 0 0 1-.34.24 6.3 6.3 0 0 1-.64.01c-.03 0-.04-.02-.04-.04V8.32c0-.03 0-.04.03-.04h.67c.14.01.23.08.28.2.04.13.01.25-.08.36-.02.02-.02.03 0 .05Zm.38-.62h.2c.01 0 .03.02.03.04v1.2c0 .02-.02.04-.04.04h-.19c-.02 0-.03-.02-.03-.04V8.3c0-.02.01-.04.03-.04Zm2.31.49h.19c.03 0 .04-.01.04-.03v-.41c0-.03.01-.05.03-.05h.16c.03 0 .05.02.05.06v1.16c0 .04-.01.06-.04.06H8.8c-.03 0-.04-.02-.04-.05v-.47c0-.03-.01-.04-.03-.05h-.4c-.02 0-.03.02-.03.05v.47c0 .03-.01.04-.04.04h-.15c-.03 0-.05-.01-.05-.05V8.33c0-.04.02-.06.05-.06h.16c.02 0 .04.02.04.05v.41c0 .02 0 .03.04.03h.18Zm3.24.22h.4c.02 0 .03.02.03.05v.47c0 .03 0 .05.04.05h.15c.03 0 .05-.02.05-.05V8.33c0-.04-.02-.06-.05-.06h-.16c-.02 0-.04.02-.04.05v.41c0 .02 0 .03-.04.03a10.33 10.33 0 0 1-.4-.03v-.41c0-.03-.02-.05-.04-.05h-.16c-.03 0-.05.02-.05.06v1.16c0 .04.01.05.04.05h.16c.03 0 .04-.01.04-.04v-.47c0-.03.01-.04.03-.05Zm1.2-.7h-.18c-.02 0-.04.01-.04.03v1.2c0 .02.01.04.03.04h.19c.02 0 .04-.02.04-.04V8.3c0-.02-.02-.04-.04-.04Zm-3.5.5h.37c.02 0 .04.02.04.05v.12c0 .02-.02.04-.04.04h-.36a.05.05 0 0 1-.05-.04v-.12c0-.03.02-.05.05-.05ZM8 10.01h-.16c-.05.01-.08 0-.09-.05l-.05-.11c0-.04 0-.05.04-.05l.24-.01c.03 0 .04.01.04.04v.15c0 .02 0 .03-.02.03Zm.58.24a.7.7 0 0 1-.14-.27c-.01-.05 0-.05.02-.01l.22.3c0 .01 0 .02.02.02h.01c.02-.01.02-.02.02-.03a.87.87 0 0 0-.16-.38c-.07-.08-.17-.11-.32-.08-.03 0-.04.02-.04.04l.01.12v-.01h.02l.02.04c.1.18.18.29.26.33.13.07.15.05.06-.07Zm.12-.32-.07-.1c-.02-.02-.01-.03 0-.03l.04-.02c.03 0 .05 0 .06.02.02.03.02.07 0 .14 0 .02-.02.02-.03-.01Zm.4-.14a.9.9 0 0 1-.1.01l-.1-.01c-.05-.01-.06 0-.07.04 0 .14.02.26.08.37 0 .01.01.02.03.02h.01l.01-.01c0-.26.01-.38.04-.38s.04.12.03.38h.03l.03-.01c.05-.1.08-.23.07-.37 0-.04-.02-.05-.05-.04Zm.16.12h-.01v-.06c-.01-.02 0-.03.01-.04a.1.1 0 0 1 .06-.02c.03 0 .04 0 .03.03 0 .04-.03.07-.09.1Zm.05.35.21-.3c.03-.04.04-.04.03 0a.69.69 0 0 1-.15.27c-.09.12-.07.14.06.07.08-.04.17-.15.26-.32l.02-.04h.02v.01-.12c0-.02 0-.04-.03-.04-.14-.03-.25 0-.31.08a.86.86 0 0 0-.16.37c0 .01 0 .02.02.02h.03Zm.69-.24c-.02 0-.03-.02-.03-.04v-.15c0-.03.02-.04.05-.04h.24c.04 0 .05.02.04.06l-.05.11c-.02.04-.04.06-.09.06H10Zm-.2.13v-.12c.02-.07.04-.12.05-.11.02 0 .01.05 0 .12l-.05.11Zm-.06.09c.04-.03.06-.07.05-.08-.01 0-.05 0-.08.04-.04.03-.06.06-.05.07.01.01.05 0 .08-.03Zm-.73.75.01-.27c.02-.1.03-.1.04 0l.01.26c0 .09.02.09.05.01a.62.62 0 0 0-.06-.62.04.04 0 0 0-.04-.01l-.03.01a.74.74 0 0 0-.09.55c.01.05.03.09.05.1.05.05.07.04.06-.03Zm.47-.28c.04-.1.03-.1-.04-.02l-.17.23c-.05.08-.07.07-.05-.02a.7.7 0 0 1 .44-.54h.04l.02.04c-.01.21-.1.4-.26.56-.04.04-.07.07-.1.07-.08.02-.1 0-.04-.07l.16-.25Zm-.9.06c-.1-.15-.08-.16.05-.04l.12.18c.06.11.09.1.07-.03-.03-.22-.19-.39-.46-.5-.03-.01-.04 0-.04.03a.8.8 0 0 0 .34.63c.04.04.04.05-.02.05h-.73c-.06 0-.08-.02-.05-.07l.25-.41-.05-.46c0-.03-.02-.04-.05-.02l-.07.04a.06.06 0 0 1-.06 0 .34.34 0 0 1-.11-.08c-.03-.03-.06-.02-.09.01l-.37.52c-.02.03-.02.04 0 .06l.13.08c.03.02.03.04.02.07l-.07.22c-.01.03-.03.04-.06.04h-.14c-.03 0-.05.01-.05.04v.66c0 .02.01.04.04.04h.15c.03 0 .05 0 .06.04l.08.22c0 .02 0 .04-.02.06l-.14.09c-.02.01-.02.03 0 .05l.36.5c.03.04.06.04.1.02l.1-.08a.04.04 0 0 1 .06 0l.2.14c.02.01.02.03.02.05l-.06.17c-.01.02 0 .03.01.04l.63.2c.02.01.04 0 .05-.02l.06-.16c0-.02.02-.03.03-.03h.25c.02 0 .03.01.04.03l.06.17c0 .02.02.02.04.02l.62-.2c.02-.02.03-.03.02-.05l-.05-.16c-.01-.03 0-.05.02-.07l.2-.13a.05.05 0 0 1 .05 0l.14.1.05-.01.38-.54c.02-.02.01-.04-.01-.05l-.14-.08c-.02-.01-.03-.03-.02-.06l.08-.22c0-.02.02-.03.04-.04l.18-.02c.02 0 .03-.01.03-.03v-.66c0-.02-.01-.03-.03-.03h-.17c-.03 0-.04 0-.05-.03l-.08-.23c0-.02 0-.04.02-.06l.13-.08c.03-.02.03-.05.01-.07l-.37-.53c-.03-.03-.05-.03-.07 0-.08.1-.17.11-.26.04-.02-.02-.04-.01-.04.02l-.05.47v.02l.25.4c.01.03 0 .04-.03.04H9l-.06.01h-.1a.06.06 0 0 1-.05-.03l-.2-.3Zm-.65.51a.07.07 0 0 1-.05.02l-.02-.01v-.02a.36.36 0 0 1 .12-.08h.04v.04c0 .03-.04.05-.1.05Zm2.18.2a.13.13 0 0 0 0 .1v.05a.27.27 0 0 1-.08.05c-.07.04-.09.02-.06-.05a8.22 8.22 0 0 0 .2-.39c.01 0 .02 0 .01.02-.02.04-.02.06 0 .09l.12.29c.03.07.01.09-.06.05-.06-.04-.09-.1-.07-.17l-.01-.03-.02-.02-.03.01Zm-1.69-.01v.06c-.01.02-.03.02-.04 0l-.06-.1c-.09-.12-.14-.11-.16.04l.01.2c0 .03.02.04.04.04h.02c.01 0 .02-.01.02-.03v-.16c0-.03 0-.03.03-.01.05.06.1.11.12.17.01.03.04.04.07.03.02 0 .03-.02.03-.04v-.28c0-.02 0-.03-.02-.03h-.02c-.02 0-.03.01-.03.03v.08Zm.97 0v.23s0 .02-.02.02h-.02c-.03 0-.04-.02-.04-.04v-.22c0-.03-.02-.04-.05-.04h-.04c-.02 0-.03-.01-.03-.04 0-.01.01-.02.03-.02h.4c.03 0 .04.02.04.04v.06c0 .02 0 .03.03.03h.09c.03 0 .04-.01.04-.04 0-.05.01-.08.04-.09.03 0 .04 0 .04.03v.3c0 .01 0 .02-.02.02h-.04c-.02 0-.03-.01-.03-.03v-.1c0-.03-.01-.04-.04-.04H9.7c-.03 0-.04.01-.04.04v.1c0 .03-.02.04-.04.04H9.6a.04.04 0 0 1-.02-.04v-.24c0-.03-.01-.04-.04-.04h-.07c-.04 0-.07.02-.07.06Zm-2.06-.06c0-.04.02-.06.06-.06h.12c.05 0 .1.01.13.05.03.03.05.07.05.12v.01c0 .05-.01.1-.05.13a.18.18 0 0 1-.13.05h-.1c-.05 0-.07-.02-.07-.06v-.24Zm.27.12c0 .04-.01.07-.04.1a.1.1 0 0 1-.1.02c-.03-.01-.04-.03-.03-.05l.02-.04a.1.1 0 0 0 .02-.02v-.01l-.02-.04a.17.17 0 0 1-.01-.03c-.01-.03 0-.04.03-.05a.1.1 0 0 1 .1.03c.02.02.03.06.03.1Zm.23.16c.05.03.1.04.15.03.05-.01.09-.04.12-.09.02-.04.03-.1.02-.14a.2.2 0 0 0-.09-.12.19.19 0 0 0-.15-.03.18.18 0 0 0-.11.09.19.19 0 0 0-.02.14c0 .05.04.1.08.12Zm.1-.03c-.05 0-.1-.05-.1-.12 0-.07.04-.13.1-.13.06 0 .1.05.1.12.01.07-.03.13-.1.13Zm1.03-.04c0 .05-.01.07-.06.08l-.1.02a.2.2 0 0 1-.15-.03.17.17 0 0 1-.07-.12v-.01c-.02-.05 0-.1.03-.13a.19.19 0 0 1 .12-.08l.1-.01c.05-.01.08 0 .1.06l.03.22Zm-.12.01c0 .03-.02.04-.05.03h-.01a.15.15 0 0 1-.1-.05.1.1 0 0 1 .04-.18.15.15 0 0 1 .1-.02h.02c.03.01.04.03.03.05l-.03.17Zm1.63.03.02-.05c0-.03.03-.04.05-.04h.06c.05 0 .08-.02.1-.06.01-.04 0-.08-.03-.1-.06-.06-.14-.07-.25-.05-.03 0-.04.02-.04.04v.28c0 .02 0 .03.02.03h.03l.04-.05Zm.1-.24h-.06c-.03 0-.04 0-.04.04v.05c.01.02.03.03.05.02.06-.01.09-.04.09-.07 0-.03-.01-.04-.04-.04Zm-1.58.4h1.11c.03 0 .03.02.03.04-.09.24-.23.43-.43.58-.21.15-.45.23-.7.23-.26 0-.5-.08-.7-.23-.21-.15-.36-.34-.44-.58 0-.02 0-.03.03-.03h1.1Zm-3.7-3.3c-.02 0-.04.02-.04.06v.16c0 .03.02.05.05.05h.28c.04 0 .08-.01.12-.04.03-.02.05-.05.05-.08v-.02c0-.03-.02-.06-.05-.08a.21.21 0 0 0-.12-.04H5.3Zm0 .46c-.03 0-.04.01-.04.04v.23c0 .03.02.04.04.04h.3c.05 0 .1-.02.13-.05.04-.03.06-.06.06-.1v-.02c0-.04-.02-.08-.06-.1a.23.23 0 0 0-.14-.04h-.3Z" fill="#D62627"/></svg>