<!-- by TradingView --><svg width="18" height="18" viewBox="0 0 18 18" xmlns="http://www.w3.org/2000/svg"><path fill="#81181D" d="M0 0h18v18H0z"/><path d="M9 4.44v.02a.11.11 0 0 1-.04.1 1.32 1.32 0 0 1-.44.22.04.04 0 0 0 0 .02.04.04 0 0 0 0 .04c.07.1.15.18.25.24.15.1.26-.02.36-.13l.04-.04c.11-.1.16-.08.14.08a1.52 1.52 0 0 1-.14.42.05.05 0 0 1-.04 0H9.1l-.13-.14a.16.16 0 0 0-.12-.05.15.15 0 0 0-.12.07l-.08.12-.03.02a.06.06 0 0 1-.06-.01l-.02-.03-.18-.48a.12.12 0 0 0-.06-.06.1.1 0 0 0-.08 0l-.7.2a.26.26 0 0 0-.12.08.28.28 0 0 0-.07.13l-.3 1.32C7 6.79 7 7 7.03 7.2c.02.15.17.48.36.4a2.33 2.33 0 0 0 .35-.17.05.05 0 0 1 .04.02l.01.02a.1.1 0 0 1-.02.08.62.62 0 0 0-.09.13.1.1 0 0 0 0 .08c.11.35.13.7.14 1.06l.01.4.34 4.8c0 .11.07.17.17.17h.13c.12 0 .18-.06.19-.19l.11-4.9c0-.05.03-.08.07-.08h.03a.04.04 0 0 1 .02 0h.01a.04.04 0 0 1 .01.03l.05 4.96c0 .1.05.16.15.17l.16.01c.12.01.18-.05.19-.17l.16-2.54c0-.2 0-.38-.03-.57l-.7-3.65c0-.06-.03-.06-.06-.01-.1.15-.27.18-.38.02-.2-.3.05-.65.28-.83.05-.04.04-.07 0-.1a.12.12 0 0 0-.06-.02.23.23 0 0 0-.17.05.9.9 0 0 1-.33.2 1.2 1.2 0 0 0-.38.22l-.18.14a.14.14 0 0 1-.16 0c-.03-.01-.04-.05-.03-.1a.08.08 0 0 1 .03-.05l.14-.1c.16-.13.33-.27.5-.31a.7.7 0 0 0 .28-.16c.15-.14.27-.09.39-.04.08.04.17.08.28.05.22-.05.42.05.62.15h.01c.04.03.05.01.05-.03l-.05-.54c0-.04.01-.08.04-.11.02-.03.04-.04.05-.04.06 0 .1.04.1.1l.06.57c.02.16.19.27.31.36a3.31 3.31 0 0 1 .1.08c.01.04 0 .08-.01.1-.04.04-.09.04-.13 0-.28-.2-.92-.62-1.24-.4-.18.12-.37.33-.38.55-.01.22.05.24.18.08a.6.6 0 0 1 .38-.21c.03 0 .06-.02.08-.05l.11-.1a.13.13 0 0 1 .09-.04c.03 0 .06.03.07.07a.07.07 0 0 1-.02.06l-.18.18a.17.17 0 0 1-.09.05l-.09.01c-.04 0-.05.03-.04.07.17 1.1.37 2.21.6 3.35.03.17.05.17.06 0l.14-2.18c0-.19.06-.32.13-.48a.08.08 0 0 0 0-.08 1.18 1.18 0 0 0-.1-.12.08.08 0 0 1-.02-.08v-.01a.07.07 0 0 1 .05-.04h.05l.2.11c.23.14.43-.05.46-.3.04-.28.02-.56-.06-.82a24.9 24.9 0 0 1-.3-1.12c-.05-.2-.12-.32-.3-.38a4.67 4.67 0 0 1-.71-.3.1.1 0 0 1-.06-.08c-.02-.34.06-.64.23-.9a.24.24 0 0 0 .01-.23c-.04-.1-.1-.19-.17-.28-.2-.28-.6-.25-.8 0a.7.7 0 0 1-.51.25c-.07 0-.08.03-.04.1l.05.04c.07.05.14.07.21.06h.13c.08-.01.16-.02.25 0 .17.04.33.06.51.07l.04.02a.07.07 0 0 1 .02.05v.03a.04.04 0 0 1-.02.03H9.1a2.7 2.7 0 0 1-.75-.05.11.11 0 0 0-.04.02.12.12 0 0 0-.05.08c-.02.22.02.42.12.6a.2.2 0 0 0 .1.1c.05.01.1.01.15-.01l.35-.17a.03.03 0 0 1 .01 0h.01l.01.01v.01ZM7.9 5.67h.01c.05 0 .1.03.1.09l.03.35a.1.1 0 0 1-.08.1h-.01a.1.1 0 0 1-.1-.09l-.03-.35c0-.05.03-.1.08-.1Z" fill="#FFFDFD"/><path d="m10.64 14.43.17-.06c.1-.03.15 0 .17.1l.01.04c.03.1 0 .18-.1.23-.12.06-.4.09-.44-.12l-.74-3.3a.75.75 0 0 1 .02-.4c.01-.03.02-.03.03 0l.76 3.44c.02.07.05.1.12.07ZM8.98 14.4c-.04-.09 0-.12.08-.08.11.05.23.04.35-.01.03-.01.05 0 .07.03.05.14.08.29.1.42.02.2-.06.27-.25.22a.32.32 0 0 1-.22-.22l-.13-.35ZM8.19 14.32c.12.06.25.06.4 0 .04-.01.06 0 .04.05-.09.2-.15.7-.48.62-.22-.04-.05-.51-.01-.65 0-.03.02-.03.05-.02Z" fill="#FFFDFD"/></svg>