<!-- by TradingView --><svg width="18" height="18" viewBox="0 0 18 18" xmlns="http://www.w3.org/2000/svg"><path fill="#F0F3FA" d="M0 0h18v18H0z"/><ellipse cx="9" cy="9" rx="6" ry="5" fill="#D9241C"/><path d="M7.85 4.1a5 5 0 0 0-.44 2.19c.01.54.23 1.77.96 2.4.9.8 2.11 2.27 2.11 3.51 0 .57-.3 1.21-.64 1.75C12.75 13.61 15 11.52 15 9c0-2.76-2.69-5-6-5-.4 0-.78.03-1.15.1Z" fill="#163A86"/><path opacity=".5" fill-rule="evenodd" d="M7 7h7v4H4V7h3Zm6 3.72h.7V7.3H13v3.42ZM11 7.3v3.42h-1V7.3h1Zm-4 0h1v3.42H7V7.3Zm-2 0h-.7v3.42H5V7.3Z" fill="#F0F3FA"/></svg>