<!-- by TradingView --><svg width="18" height="18" fill="none" xmlns="http://www.w3.org/2000/svg"><path fill="#F0F3FA" d="M0 0h18v18H0z"/><path fill-rule="evenodd" clip-rule="evenodd" d="M2.75 6.4H4.08c.547-.706 2.328-1.928 5.078-1.928 3.437 0 5.874 2.637 5.53 5.014h-1.421L13.126 7H11.64l-.406 1.206L10.86 7H9.375l-.328 3h1.094l.172-1.657L10.75 10h.89l.641-1.657V10h3.515c.089-.213.204-.752.204-1.154C16 8.343 15.281 4 9.157 4 5.432 4 3.334 5.537 2.75 6.4Zm-.145.6H7c.406 0 .951.28.951.823 0 .543-.26.59-.491.611.312.04.84.127.84.67 0 .68-.585.895-1.03.895H5V8h1v1.474h.72c.218 0 .402-.152.402-.37 0-.217-.184-.335-.402-.335H6.2v-.335h.238c.248 0 .45-.046.45-.294 0-.247-.202-.265-.45-.265H3.55c-.151.19-.282.489-.282.894 0 .507.31 4.78 5.778 4.78 1.25.015 4.047-.496 5.234-2.699h1.25C15.062 11.903 13.11 14 9.047 14c-5.078 0-7.09-2.862-7.046-5.077.007-.371.138-1.344.604-1.923Z" fill="#0754AB"/></svg>