<!-- by TradingView --><svg width="18" height="18" viewBox="0 0 18 18" xmlns="http://www.w3.org/2000/svg"><path fill="#F0F3FA" d="M0 0h18v18H0z"/><path fill-rule="evenodd" d="m5.25 10.7-.01.05L4 12.9a.08.08 0 0 0 0 .07l.02.03.04.01h9.84c.09 0 .11-.04.07-.12l-.95-1.8a.14.14 0 0 1-.01-.1c0-.03.02-.05.04-.07a.6.6 0 0 0 .25-.67.4.4 0 0 1 .1-.36l.35-.39a.1.1 0 0 0 .03-.04.11.11 0 0 0-.02-.1.1.1 0 0 0-.04-.02c-.37-.2-.76-.21-1.14-.04a.18.18 0 0 1-.13.01 1.1 1.1 0 0 1-.6-.38l-.35-.66a908.75 908.75 0 0 0-2.28-4.24.1.1 0 0 0-.11 0 .12.12 0 0 0-.04.04l-2 3.49a.21.21 0 0 1-.1.09c-.22.1-.52.09-.8.08-.4-.01-.74-.02-.74.28 0 .04.02.08.04.11.09.14.12.25.1.34-.08.22-.27.7-.58 1.4-.08.2-.19.32-.29.45a4.32 4.32 0 0 0-.12.18.1.1 0 0 0 0 .05l.04.04h.52a.1.1 0 0 1 .05.03c.02 0 .03.02.04.04l.01.06Zm3.63-5.1a.02.02 0 0 1-.02 0 .02.02 0 0 1 0-.01c-.01-.08.01-.15.06-.2a.29.29 0 0 1 .2-.1h.02a.3.3 0 0 1 .2.06.28.28 0 0 1 .1.2.02.02 0 0 1-.01.02l-.55.04Zm-.45.64h-.01V6.2c0-.04 0-.07.02-.1A.28.28 0 0 1 8.5 6a.33.33 0 0 1 .1-.06.37.37 0 0 1 .13-.02h.82c.09 0 .17.04.23.09.06.05.1.13.1.2v.01l-.01.01-.02.01-1.43-.01Zm1.67 2.04c.08-.17.2-.29.35-.35l.02-.02a.04.04 0 0 0-.01-.04l-.02-.01H9.6c-.05 0-.07.02-.06.07.04.2.04.33.02.39-.35.87-.72 1.74-1.12 2.6-.06.15-.03.19.12.11.3-.16.52-.41.64-.75.1-.26.4-.93.9-2Zm-3.26.62c-.25.07-.25.14 0 .22.03 0 .06.05.1.13 0 .04.01.1 0 .14-.17.7-.68 1.02-1.32 1.02a8.19 8.19 0 0 0-.57.02.09.09 0 0 1-.04-.03.1.1 0 0 1 0-.1l.7-1.73c.08-.17.08-.28.07-.45V8c0-.05.03-.08.08-.08h.49l.03.04a.08.08 0 0 1 0 .07c-.1.19-.18.38-.25.58-.02.06-.02.12-.03.19-.01.13-.03.28-.16.4a.27.27 0 0 0-.08.1l-.32.83a.14.14 0 0 0 .01.13l.05.04a.1.1 0 0 0 .06 0c.46-.08.74-.38.86-.9a.14.14 0 0 0-.03-.11.68.68 0 0 0-.3-.2l-.01-.02a.05.05 0 0 1-.02-.03V9l.02-.05c.02-.07.06-.1.11-.08.2.06.37-.03.48-.26.15-.29.1-.5-.14-.63l-.02-.02a.05.05 0 0 1 0-.06l.03-.01c.23-.05.44 0 .65.12.04.02.06.06.07.11.02.21-.04.28-.13.4l-.06.07c-.12.17-.23.27-.33.3Zm-.46-.23c-.07-.04-.08-.18-.02-.3.06-.11.17-.18.24-.14.07.05.07.18.01.3-.06.12-.16.18-.23.14Zm1.22.4c.07-.06.1-.14.06-.19-.03-.05-.12-.04-.18.01-.07.06-.1.14-.06.2.03.04.12.04.18-.02Zm2.75-.2c.04.05.02.14-.03.19-.06.05-.13.06-.17.01-.04-.04-.02-.12.03-.18.06-.05.13-.06.17-.01Zm-2.88.55-.14-.07c-.01 0-.04 0-.04.02l-.4.95c-.01.02 0 .04.01.05l.14.07c.02.01.04 0 .05-.01l.4-.96c0-.02 0-.04-.02-.05Zm.47-.1.13.07c.02 0 .03.03.02.05l-.37.97c-.01.02-.03.03-.05.02l-.14-.06c-.01 0-.02-.03-.01-.05l.37-.98c0-.02.03-.02.05-.02Zm.43.43a.2.2 0 0 0 0-.15l-.04-.08c-.05-.13 0-.18.12-.17.17.02.24.1.2.21a319.51 319.51 0 0 1-.27.8.15.15 0 0 1-.05.03.28.28 0 0 1-.1.02l-.03-.01-.02-.02-.02-.03v-.04l.2-.56Zm1.61-.39.15.06c.02.01.03.03.02.05l-.34.95c0 .02-.02.03-.04.02l-.15-.06-.02-.05.34-.95c0-.02.03-.03.04-.02Zm.5.86.02.02a.05.05 0 0 0 .05 0l.02-.02.27-.47a.1.1 0 0 0-.01-.12.55.55 0 0 0-.17-.14c-.06-.03-.06-.06 0-.09.1-.05.24-.05.42 0l.03.02.02.03a.1.1 0 0 1 0 .08l-.31.8c-.02.05-.05.07-.09.06a.45.45 0 0 1-.14-.03.16.16 0 0 0-.13 0 .42.42 0 0 1-.3 0c-.05-.01-.07-.04-.06-.1.02-.1.08-.19.18-.26.04-.03.08-.02.1.03l.1.19Zm1.1-.89.17.08c.02 0 .03.03.02.05l-.38.97c0 .02-.02.03-.04.02l-.17-.07-.02-.05.38-.98c0-.02.03-.03.05-.02Zm.44.28-.03-.09c-.04-.13 0-.18.12-.16.18.03.25.1.2.22a246.71 246.71 0 0 1-.3.8.15.15 0 0 1-.06.03.28.28 0 0 1-.1.01h-.03l-.02-.03-.01-.03v-.04l.23-.56a.2.2 0 0 0 0-.15Zm1.03-.07.05.1.01.06-.01.05a.26.26 0 0 0-.04.08c.02.17.07.19.16.05l.23-.37c.02-.04.02-.07-.03-.1-.14-.07-.26-.07-.35 0-.04.03-.05.08-.02.13Zm-.45.59c.07.1.24.1.35.1h.09c.04 0 .08.02.1.06.04.13.02.27-.09.42 0 0-.01.02-.03.02H13l-.03-.01-.02-.04a.48.48 0 0 0-.19-.27.1.1 0 0 0-.12-.01c-.1.05-.2.07-.3.07-.06 0-.07-.02-.05-.07.06-.13.12-.22.18-.28a.13.13 0 0 0 .03-.05l.01-.07c-.03-.21.03-.38.18-.5.04-.03.07-.02.08.03.07.26.03.43-.14.5-.04.02-.05.05-.02.1Zm-.39.8c.05-.01.06-.04.06-.08a.47.47 0 0 0-.07-.2.1.1 0 0 0-.05-.04h-.06c-.04.02-.07.07-.1.13 0 .05 0 .1.03.13.03.05.1.07.2.06ZM10 12.4H8.26a.15.15 0 0 0-.15.15c0 .09.07.15.15.15H10c.08 0 .14-.06.14-.14v-.01a.15.15 0 0 0-.14-.15Zm-1.74-.69h1.75c.08 0 .14.08.14.16 0 .09-.06.16-.14.16H8.26a.15.15 0 0 1-.14-.16c0-.09.06-.16.14-.16Zm1.75-.63H8.26a.15.15 0 0 0-.14.14v.01c0 .08.06.15.14.15h1.75c.08 0 .14-.06.14-.15a.15.15 0 0 0-.14-.15Zm-1.75-4.5h1.75c.08 0 .14.06.14.15s-.06.15-.14.15H8.26a.15.15 0 0 1-.14-.15c0-.1.06-.16.14-.16Zm1.75.64H8.26a.15.15 0 0 0-.14.14v.01c0 .09.06.15.14.15h1.75c.08 0 .14-.06.14-.14v-.01a.15.15 0 0 0-.14-.15Z" fill="#CA964A"/></svg>