<!-- by TradingView --><svg width="18" height="18" viewBox="0 0 18 18" xmlns="http://www.w3.org/2000/svg"><path fill="#F0F3FA" d="M0 0h18v18H0z"/><path d="M9.13 13.67V14c2.24 0 3.87-1.1 3.87-2.84 0-1.75-2.29-3.7-2.96-4.8 0 1.72-1.61 3.83-1.61 5.16 0 .8.57 1.7 1.12 1.7 1.14 0 1.37-2.23 1.34-3.35.07.19.19.67.19 1.15 0 1.89-1.34 2.56-1.95 2.65Z" fill="url(#a0sdusxt4)"/><path d="M9.13 14v-.33c.6-.1 1.95-.76 1.95-2.65 0-.38-.09-.76-.16-1 .12.32.32.86.32 1.2 0 .92-.82 2.78-2.1 2.78Z" fill="url(#b0sdusxt4)"/><path d="M9.57 3.4c0-.6-.18-1.18-.26-1.4C8.56 5.44 5 7.22 5 10.26c0 2.43 2.12 3.51 3.16 3.74v-.4c-1.17-.32-1.52-2-1.52-2.8 0-2.55 2.93-4.78 2.93-7.4Z" fill="url(#c0sdusxt4)"/><path d="M6.8 9.7c-.18.4-.33.97-.33 1.7 0 1.5 1.23 2.3 1.6 2.53l.06.05.03.02v-.4c-1.17-.32-1.52-2-1.52-2.8 0-.38.06-.74.16-1.1Z" fill="url(#d0sdusxt4)"/><path d="M5.95 12.73a5.42 5.42 0 0 1-.7-2.54c0-1.53 1.23-3.08 2.2-4.28l.58-.75c.82-1.1 1.27-2.04 1.29-3.13L9.3 2c-.36 1.63-1.35 2.9-2.29 4.09C5.98 7.4 5 8.66 5 10.26c0 1.07.4 1.88.95 2.47Z" fill="url(#e0sdusxt4)"/><defs><linearGradient id="a0sdusxt4" x1="10.71" y1="7.3" x2="10.71" y2="14" gradientUnits="userSpaceOnUse"><stop offset=".19" stop-color="#429349"/><stop offset=".76" stop-color="#87BF40"/></linearGradient><linearGradient id="b0sdusxt4" x1="11.55" y1="11.73" x2="9.57" y2="14.24" gradientUnits="userSpaceOnUse"><stop offset=".5" stop-color="#307F26"/><stop offset=".85" stop-color="#90BD54"/></linearGradient><linearGradient id="c0sdusxt4" x1="9.28" y1="2.02" x2="7.58" y2="14.01" gradientUnits="userSpaceOnUse"><stop stop-color="#1F2549"/><stop offset=".54" stop-color="#44A4E1"/><stop offset="1" stop-color="#242D64"/></linearGradient><linearGradient id="d0sdusxt4" x1="7.11" y1="9.37" x2="7.67" y2="13.88" gradientUnits="userSpaceOnUse"><stop stop-color="#1F2549"/><stop offset="1" stop-color="#44A4E1"/></linearGradient><linearGradient id="e0sdusxt4" x1="9.31" y1="2.02" x2="7.53" y2="13.76" gradientUnits="userSpaceOnUse"><stop stop-color="#242947"/><stop offset=".46" stop-color="#386C9B"/><stop offset="1" stop-color="#202F4F"/></linearGradient></defs></svg>