<!-- by TradingView --><svg width="18" height="18" viewBox="0 0 18 18" xmlns="http://www.w3.org/2000/svg"><path fill="#F0F3FA" d="M0 0h18v18H0z"/><path fill-rule="evenodd" d="M13.35 5H5.8c-.3 1.1.53 1.56.98 1.66l-.25 1.06c-.29 1.27-.67 2.9-.87 3.57A2.05 2.05 0 0 0 4 13h6.93c1.21 0 2.05-1.49 2.05-2.63 0-.76-.73-1.1-1.2-1.31-.25-.11-.43-.2-.43-.29 0-.2.13-.23.48-.32.16-.05.37-.1.64-.2A2.18 2.18 0 0 0 14 6.2c0-.82-.43-1.14-.65-1.2ZM7.5 7c0-.33.59-.51.92-.51h3.48c.33 0 .6.18.6.51s-.72.49-1.05.49H7.97c-.33 0-.47-.16-.47-.49Zm.36 3c-.3 0-.86.14-.86.5s.25.5.56.5h3.58c.3 0 .86-.14.86-.5s-.25-.5-.56-.5H7.86Z" fill="#0061A2"/></svg>