<!-- by TradingView --><svg xmlns="http://www.w3.org/2000/svg" width="18" height="18"><path fill="#F0F3FA" d="M0 0h18v18H0z"/><circle cx="5.5" cy="5.5" r="1.5" fill="#57A32F"/><path d="M10.5 5.5A1.5 1.5 0 109 7h1.5V5.5z" fill="#1F9759"/><path d="M9 7.5H7.5V9A1.5 1.5 0 009 10.5h1.5V9A1.5 1.5 0 009 7.5z" fill="#008382"/><path d="M7 9v1.5H5.5A1.5 1.5 0 117 9z" fill="#1F9759"/><path d="M14 5.51V5.5a1.5 1.5 0 00-3 0V7h3V5.51zM12.5 7zm-7 4H7v1.46a1.52 1.52 0 010 .08V14H5.5a1.5 1.5 0 010-3z" fill="#008382"/><path d="M7.5 12.5V14h1.47a1.24 1.24 0 00.06 0h1.47v-1.47a1.67 1.67 0 000-.06 1.5 1.5 0 00-3 .03zM11 9v1.5h3V9.04a1.53 1.53 0 000-.08V7.5h-1.5A1.5 1.5 0 0011 9zm1.5 1.5z" fill="#0267A0"/><path fill="#044474" d="M11 11h3v3h-3z"/></svg>