<!-- by TradingView --><svg width="18" height="18" viewBox="0 0 18 18" xmlns="http://www.w3.org/2000/svg"><path fill="#85BF6F" d="M0 0h18v18H0z"/><path d="M15 7v.1a.6.6 0 0 0-.3.14c-.1.1-.19.24-.27.43L13.12 11h-.1L11.6 7.63a1.88 1.88 0 0 0-.15-.32.47.47 0 0 0-.18-.14.74.74 0 0 0-.27-.06V7h1.54v.1c-.17.02-.28.05-.34.1a.21.21 0 0 0-.07.17c0 .1.04.25.12.45l.96 2.3.9-2.27c.08-.23.13-.38.13-.47 0-.05-.03-.1-.08-.16a.51.51 0 0 0-.28-.1l-.04-.01V7H15ZM8.58 8.78l1.37 1.47c.22.24.42.4.57.5.16.08.32.13.48.14V11H9.24v-.1c.1 0 .18-.03.22-.07.05-.03.07-.08.07-.13 0-.04 0-.08-.02-.12l-.17-.21L8.06 9v1.3c0 .2 0 .33.03.4.02.04.06.08.12.12.07.05.16.07.25.07h.12V11H7v-.1h.13c.15 0 .27-.06.34-.15.04-.07.06-.22.06-.46V7.71c0-.2-.01-.34-.03-.4a.26.26 0 0 0-.12-.13.49.49 0 0 0-.25-.07H7V7h1.58v.1h-.12a.5.5 0 0 0-.25.08.25.25 0 0 0-.12.14c-.02.06-.03.2-.03.39v1.22l.37-.37c.54-.54.87-.9.98-1.07a.4.4 0 0 0 .08-.21.15.15 0 0 0-.06-.12c-.04-.03-.1-.05-.2-.05h-.08V7h1.36v.1a.76.76 0 0 0-.46.17c-.1.06-.2.16-.35.3l-.55.6-.57.61ZM5.62 8.96c.27.06.47.15.6.28.19.18.28.4.28.67a1.07 1.07 0 0 1-.69.97c-.21.08-.54.12-.97.12H3v-.1h.15c.16 0 .28-.06.35-.17.04-.07.06-.21.06-.44V7.71c0-.25-.03-.4-.08-.47-.08-.09-.19-.13-.33-.13H3V7h1.68c.31 0 .57.02.76.07.28.07.5.2.65.38a.93.93 0 0 1 .05 1.16c-.12.16-.3.27-.52.35Zm-1.5-.16a2.34 2.34 0 0 0 .54.04c.27 0 .48-.03.62-.1a.69.69 0 0 0 .33-.28.82.82 0 0 0 .11-.42c0-.23-.1-.43-.28-.6-.18-.16-.45-.24-.81-.24-.2 0-.36.02-.52.06V8.8Zm0 1.91c.21.05.43.08.65.08.35 0 .61-.08.8-.24a.77.77 0 0 0 .26-.6.83.83 0 0 0-.53-.79 1.7 1.7 0 0 0-.68-.12 6.65 6.65 0 0 0-.5.03v1.64Z" fill="#fff"/></svg>