<!-- by TradingView --><svg width="18" height="18" viewBox="0 0 18 18" xmlns="http://www.w3.org/2000/svg"><path fill="#F0F3FA" d="M0 0h18v18H0z"/><path fill-rule="evenodd" d="M5.95 11.2c-.6.67-1.49 2.03-.11 2.22 1.45.2 1.76-1.91 1.9-2.8.02-.16.03-.29.05-.34.06-.18.36-.44.63-.7.27-.24.52-.47.52-.58 0-.19-.3-.08-.46 0 .04-.62-.07-1.86-.8-1.86-.74 0-1.07.7-1.15 1.05-.12-.16-.32-.56-.23-.93.11-.47.11-1.17-.35-.82-.36.28-.46.58-.46.7a2.1 2.1 0 0 1 .23-1.28c.35-.58-.69-1.16-1.72-.81C4.73 4.7 6.5 4 7.8 4c1.15 0 1.88.42 2.38.7.2.1.36.2.49.23.32.08.65.28 1.1.56l.62.37c.42.12.8.23 1.1.58 0 .18.07.35 0 .4-.07.04-.12.07-.06.18.05.1.16.2.27.3.13.12.25.22.19.28-.1.1-.34-.03-.55-.15a1.58 1.58 0 0 1-.38-.25c-.27-.23-.66-.55-.91-.3-.27.28-.07.41.18.57l.2.13c.3.24.54.7.42 1.05-.05.14-.15.28-.24.4-.13.2-.24.35-.1.42.23.11.57-.24.69-.35l.08-.16c.06-.14.13-.3.38-.3.27 0 .34.3.34.46-.04.15-.16.44-.34.35-.11-.06-.17-.09-.22-.08-.06 0-.12.06-.24.2-.19.18-.54.46-.7.57.16.16.49.54.58.82.12.35-.34.7-.69.46-.2-.13-.1-.19.03-.26.1-.05.2-.1.2-.2 0-.24-.46-.7-1.03-.7V9.7c-.35-.08-1.04-.14-1.04.23 0 .25.17.47.32.67.13.17.26.33.26.5 0 .3-.09.34-.26.42-.03 0-.06.02-.09.04-.1.05-.25.01-.39-.01-.2-.04-.37-.08-.3.12.05.15.2.23.35.32.22.13.46.27.46.61 0 .59-.23.24-.35 0-.05-.1-.1 0-.16.13-.08.16-.17.35-.3.22-.08-.08-.07-.17-.06-.27.01-.16.04-.36-.4-.66-.07-.15-.27-.46-.46-.46-.18 0-.38.08-.46.11-.04.47-.25 1.4-.8 1.4l-.46.12c-.08.27-.5.81-1.61.81-1.05 0-1.04-.95-1.04-1.24v-.04c0-.23.23-1.28 1.15-1.51Zm3.91-4.06c-.18-.37.3-1.47.58-1.98.17 0 .6.07.92.35.32.28.44.5.46.58-.27.08-.83.3-.92.58-.1.28-.04.9 0 1.17-.58 0-.8-.24-1.04-.7Zm-1.38 3.95c0-.65.62-.89.92-.93.04.2.05.63-.23.82a.84.84 0 0 1-.69.11Zm-.11.58c-.16.28-.5.86-.7 1.05.12.04.4.05.58-.23.19-.28.16-.66.12-.82Z"/></svg>