<!-- by TradingView --><svg width="18" height="18" viewBox="0 0 18 18" xmlns="http://www.w3.org/2000/svg"><path fill="#F0F3FA" d="M0 0h18v18H0z"/><path d="m4.02 11.41.5-6.33L6.15 3c-.22 2.3-.68 7.23-.73 8.51-.06 1.28.95 2.13 1.46 2.39h-.83c-1.87 0-2.13-1.66-2.03-2.49Z" fill="#E3E2E7"/><path d="m4.1 10.35-.08 1.06c-.1.83.16 2.49 2.03 2.49h.83c-.51-.26-1.52-1.1-1.46-2.39.01-.37.06-1.04.13-1.86l-1.45.7Z" fill="#D5D1D2"/><path d="m12.74 5.52-6.4-2.5-.76 8.75c.14 1.57 1.53 2.14 2.21 2.23l6.21-.19c-.12-1.72-.37-5.43-.37-6.47 0-1.03-.6-1.64-.9-1.82Z" fill="url(#a1r0ewx03)"/><path d="M11.63 5.77c-.5-.22-3.41-1.27-4.74-1.75-.18 1.81-.4 5.71-.49 6.64a2.6 2.6 0 0 0 .4 1.76l5.9-5.87c-.18-.33-.45-.5-1.07-.78Z" fill="url(#b1r0ewx03)"/><path d="m7.07 4.08-.5 6.77c0 .24.05.82.25 1.15l.06.11 5.7-5.74c.05.05.1.11.13.18l-5.92 5.87a2.6 2.6 0 0 1-.39-1.76c.04-.37.1-1.23.16-2.23.1-1.44.22-3.18.32-4.28l.08-.1c.04 0 .07.02.11.03Z" fill="#855330"/><path d="m12.79 6.65-5.58 6.13c.3.26.78.4 1.17.4.3-.01 3.45-.1 4.99-.13L13.1 7.5a1.42 1.42 0 0 0-.31-.85Z" fill="url(#c1r0ewx03)"/><path d="m12.9 6.79-5.4 5.94c.1.09.39.26.75.26l5.11-.03v.09l-4.98.12c-.39 0-.87-.13-1.17-.39l5.58-6.13a.8.8 0 0 1 .1.14Z" fill="#2F3452"/><defs><linearGradient id="a1r0ewx03" x1="6.3" y1="3.49" x2="13.97" y2="13.39" gradientUnits="userSpaceOnUse"><stop stop-color="#E9E7F2"/><stop offset=".45" stop-color="#F2F3ED"/><stop offset=".52" stop-color="#D5DAD6"/><stop offset=".72" stop-color="#EBE9EC"/><stop offset="1" stop-color="#EDF1F4"/></linearGradient><linearGradient id="b1r0ewx03" x1="6.81" y1="4.51" x2="10.6" y2="8.02" gradientUnits="userSpaceOnUse"><stop stop-color="#FAEC16"/><stop offset="1" stop-color="#E98923"/></linearGradient><linearGradient id="c1r0ewx03" x1="9.76" y1="9.8" x2="13.02" y2="12.74" gradientUnits="userSpaceOnUse"><stop stop-color="#415369"/><stop offset="1" stop-color="#BDC4CA"/></linearGradient></defs></svg>