<!-- by TradingView --><svg width="18" height="18" viewBox="0 0 18 18" xmlns="http://www.w3.org/2000/svg"><path fill="#F0F3FA" d="M0 0h18v18H0z"/><path fill-rule="evenodd" d="m6.43 13.38-.17.13c-.26.2-.46.34-.61.4-.16.06-.18.03-.06-.09l.05-.06.14-.13c.4-.28.86-.63 1.34-1.05.83-.74 1.56-1.44 2.19-2.1.02-.02.01-.04-.01-.05l-.03-.02h-.02c-.3.27-.65.42-1.05.46a.13.13 0 0 1-.13-.05c-.15-.2-.36-.51-.64-.93-.48-.72-.87-1.25-1.14-1.59-.23-.27-.5-.42-.83-.46l-1.01-.1c-.43-.02-.73-.14-.89-.35-.06-.08-.04-.11.06-.11l1.3.03h.02l.01-.03v-.02l-1.9-.35C3 6.9 3 6.88 3 6.85v-.1c.01-.02.03-.03.06-.03l1.37.07c.39.01.4-.03.03-.14l-.2-.06c-.64-.18-1.04-.4-1.2-.66-.03-.03-.03-.06 0-.1.02-.02.04-.02.07 0 .06.04.12.08.18.1.42.14.88.24 1.37.28.02 0 .03-.01.02-.03a.16.16 0 0 0-.06-.08l-.36-.27c-.44-.3-.74-.55-.9-.74v-.04l.03-.02h.06l.16.12c.35.27.64.42.87.45.17.03.2-.02.07-.13l-.4-.36a.07.07 0 0 1-.02-.08L4.16 5c.01-.03.03-.04.06-.02a5.36 5.36 0 0 0 2.14.65c.03-.02.03-.04 0-.06-.47-.2-.9-.4-1.3-.6a2.03 2.03 0 0 1-.63-.47c-.03-.04-.03-.07 0-.11.02-.04.06-.05.11-.03l1.82.7c.14.06.15.04.03-.05l-.34-.23a1.45 1.45 0 0 1-.67-.73c-.01-.03 0-.05.04-.05.31.02.79.25 1.43.69l.07.05c.11.07.22.13.34.17.05.01.06 0 .03-.04a1.36 1.36 0 0 0-.16-.19l.02-.03c.02-.03.05-.05.09-.03.92.34 1.86.8 2.82 1.39l.09.05c.7.42 1.07.74 1.13.97.12.44.24.9.35 1.38.01.04.03.05.07.04a3.76 3.76 0 0 1 2.75.3c.03.02.05.04.05.08v.04c0 .03-.02.04-.04.02a.75.75 0 0 0-.37-.05c-.07 0-.08.03-.01.06.11.05.24.07.37.06.02 0 .04.01.04.04v.02c0 .02 0 .02-.02.02-.47.05-.92.2-1.34.43a6.6 6.6 0 0 0-2.96 3.5v.07c.02.09.05.16.1.23.4.67.58 1.22.54 1.66 0 .05-.04.08-.1.07l-.07-.01c-.07-.01-.1-.05-.1-.11.01-.05 0-.09-.02-.13-.01-.03-.03-.04-.06-.01a.28.28 0 0 0-.1.2c0 .02-.01.02-.03.03h-.04c-.03 0-.04-.01-.04-.04.05-.2 0-.39-.17-.58a.1.1 0 0 0-.05-.03 2.53 2.53 0 0 0-.53-.07c-.04 0-.06-.02-.06-.06 0-.04.01-.07.05-.09.1-.05.22-.07.34-.05.06 0 .1-.02.13-.06a.12.12 0 0 0 0-.14c-.17-.28-.29-.53-.36-.75a1.8 1.8 0 0 1 .03-.8c0-.03 0-.04-.04-.03-.23.07-.46.12-.7.12-.03 0-.05.02-.07.05A2.1 2.1 0 0 1 7.7 13.6c-.06.02-.08 0-.06-.05a.51.51 0 0 1 .13-.23l-.02-.03h-.04c-.52.36-1.1.6-1.73.73-.05 0-.06 0-.03-.04.18-.18.35-.37.5-.58.05-.06.04-.07-.02-.02Zm3.95.6c-.06.03-.23-.14-.37-.4-.13-.24-.19-.47-.12-.5.07-.04.23.13.37.38.14.25.2.48.12.52Zm.18.37c-.03.02-.08-.04-.11-.11-.04-.08-.04-.15 0-.16.02-.01.08.04.1.11.04.08.04.15.01.16Zm.07-9.63a4.62 4.62 0 0 0-2.72-.16c-.13.03-.3 0-.5-.08-.1-.05-.1-.1.02-.13a5.14 5.14 0 0 1 4.24.53A4.73 4.73 0 0 1 13.9 8.2c.02.07-.01.1-.08.07l-.17-.05a.12.12 0 0 1-.09-.1 4.45 4.45 0 0 0-2.94-3.41Zm-4.32 8.12a4.72 4.72 0 0 1-2.18-4.89h.01c.1-.02.2-.01.3.01.01 0 .02.01.01.02a4.32 4.32 0 0 0 2.13 4.66c.06.04.06.08.01.12l-.1.07a.14.14 0 0 1-.18 0Zm6.21-1.11a4.6 4.6 0 0 1-2.02 1.31c-.06.02-.08.06-.05.12l.05.12c.03.06.08.08.15.05a4.9 4.9 0 0 0 3.06-3c.1-.27.16-.56.2-.87 0-.08-.03-.1-.1-.07l-.1.04a.21.21 0 0 0-.15.17c-.15.8-.5 1.52-1.04 2.13Zm-3.05 1.86h-1.1c-.04 0-.06-.02-.07-.05-.02-.03-.01-.06.01-.08l.2-.16a.07.07 0 0 1 .04-.02h.83c.02 0 .05.01.06.04l.1.17c.03.07.01.1-.07.1Z" fill="#010101"/></svg>