<!-- by TradingView --><svg width="18" height="18" viewBox="0 0 18 18" xmlns="http://www.w3.org/2000/svg"><path fill="#F0F3FA" d="M0 0h18v18H0z"/><path d="M13.59 4.7s-2.33.64-4.6-.7c-2.25 1.34-4.58.7-4.58.7s-.89 2.05-.05 4.82C5.42 13.06 9 15 9 15s3.58-1.94 4.64-5.48c.84-2.77-.05-4.82-.05-4.82Z" fill="#07306E"/><path d="M9.1 4.85a6.22 6.22 0 0 0 3.93.7l.1-.03.03.1s.55 1.6-.15 3.92c-.9 2.97-3.9 4.5-3.92 4.5l-.05.02-.05-.02s-3.01-1.53-3.9-4.5c-.7-2.32-.16-3.92-.16-3.92l.03-.1.1.02s2.1.4 3.93-.69l.05-.03.06.03Zm3.88.93c-.44.06-2.28.25-3.94-.7-1.65.95-3.49.76-3.93.7-.1.35-.4 1.76.18 3.7.8 2.66 3.37 4.12 3.75 4.33.4-.2 2.95-1.67 3.76-4.33.58-1.94.27-3.35.18-3.7Z" fill="#F0F3FA"/><path d="M7.15 6.5s-.13-.33.06-.4c.19-.08.17-.57.96-.36.79.21 1.1.08 1.47.38.38.3.69.77.62 1.17 0 0 .16-.04.14.18-.01.23.18.45.06.73 0 0 .2-.03.64 1.07a6.31 6.31 0 0 0 1.07 1.78h-5.2s.24-.43 1-.66c0 0 .18-.32.08-.48-.06-.1-.7.02-1.12-.02-.22-.03-.32-.07-.3-.35 0-.1.08-.13.08-.34 0-.12-.1-.02-.1-.28V8.8s.21-.24.06-.36c0 0-.26.01-.29-.16-.03-.16.37-.57.42-.71l.08-.3s0-.27.19-.41c0 0-.2-.24.08-.37Z" fill="#231F20"/><path d="M7.24 13s1.35 1.15 1.78 1.2c0 0 1.4-.8 1.72-1.21l-3.5.01Zm-.15-6.1s-.17.2-.17.35c0 .14-.1.37-.1.37s-.39.57-.39.64c0 .07.15.11.2.11.04 0 .14-.01.23.03s.09-.14.09-.14.13.18.13.25c0 0-.13-.11-.34-.07 0 0 .1.1-.01.33 0 0 .16 0 .4.17l.02.06s-.34-.09-.48-.09c0 0-.05.13.07.16 0 0 .26.04.15.17 0 0-.18.13-.2.31-.04.19 0 .29.33.29.32 0 .71-.02.95-.06.23-.04.58-.36.58-.36s-.48.77-.45 1.36c0 0-.13-.09-.13-.27 0 0-.57.17-.86.48h3.72s-1.16-.51-1.54-1.25l-.03.18s-.24-.27-.29-.75l-.25-.04-.2-.33h.26s.03-.11-.19-.23c0 0 .13-.08-.13-.41 0 0 .13-.23-.16-.51-.29-.29-.48-.52-1.2-.74Z" fill="#FFC78D"/><path d="M7.69 7.46s-.13-.2-.36-.24c-.24-.04-.33.03-.33.03s-.14.32.24.51c0 0 .04-.3.11-.26.08.05.15.03.15.03s-.03-.18.19-.07Zm.44.93-.48.52s.22-.27-.03-.44c0 0 .14-.13.5-.08Z" fill="#231F20"/><path d="M10.52 9.88s.26.5.79.81c0 0-.35-.53-.8-.81ZM8.86 8.22s.17.15.27.7l.02-.2.32.3-.35-.85s.04.24-.26.05ZM7.09 6.8s1.02.4 1.7.75c.7.34.94.57 1.35.97l-.12-.4s.22.11.34.04c.11-.07-.06-.8-.06-.8s.01.2-.45-.02c-.47-.23-2.12-1.31-2.55-1.18-.24.07-.05.32-.05.32s-.32.09-.16.32Z" fill="#F0F3FA"/><path d="M15 13v-2H3v2h12Z" fill="#CD1925"/></svg>