<!-- by TradingView --><svg width="18" height="18" viewBox="0 0 18 18" xmlns="http://www.w3.org/2000/svg"><path fill="#1A2865" d="M0 0h18v18H0z"/><path d="M7.15 7H6v4h1.42c.43 0 .76-.11.99-.34a1.1 1.1 0 0 0 .29-.81 1 1 0 0 0-.24-.71.92.92 0 0 0-.53-.28c.29-.2.38-.56.38-.8 0-.32-.1-.57-.27-.75-.2-.2-.45-.31-.9-.31ZM6.7 8.6V7.56H7c.32 0 .6.1.6.5s-.27.54-.6.54h-.3Zm0 1.84v-1.2h.39c.38 0 .91.08.91.6 0 .53-.54.6-.94.6H6.7Zm8.83-2.57.32-.49A1.92 1.92 0 0 0 14.69 7c-.79 0-1.29.47-1.29 1.1 0 .56.5.92 1.18 1.16.27.1.72.27.72.58 0 .32-.35.6-.75.6-.44 0-.75-.3-.96-.5l-.39.48a1.75 1.75 0 0 0 1.35.58c.48 0 .85-.13 1.1-.4.23-.22.35-.47.35-.87s-.35-.86-.88-1.03l-.18-.06c-.35-.12-.84-.28-.84-.6 0-.37.4-.48.69-.48.24 0 .57.14.74.31ZM12 7h.7v4H12V7ZM9.3 7h.7v3.44h1.62V11H9.3V7ZM6.68 5a.5.5 0 1 0 0-1 .5.5 0 0 0 0 1Zm1.99-.3a.5.5 0 1 1-1 0 .5.5 0 0 1 1 0Zm1.33.78a.5.5 0 1 1-1 0 .5.5 0 0 1 1 0ZM7 13.4a.6.6 0 1 1-1.2 0 .6.6 0 0 1 1.2 0Zm-2.38-.06a.5.5 0 1 0 0-1 .5.5 0 0 0 0 1Zm-.84-1.65a.5.5 0 1 1-1 0 .5.5 0 0 1 1 0Zm-1.23-1.13a.45.45 0 1 0 0-.9.45.45 0 0 0 0 .9ZM4.2 5.55a.45.45 0 1 1-.9 0 .45.45 0 0 1 .9 0ZM2.82 7.18a.4.4 0 1 0 0-.8.4.4 0 0 0 0 .8Zm.08 1.17a.45.45 0 1 1-.9 0 .45.45 0 0 1 .9 0ZM5.18 5.2a.45.45 0 1 0 0-.9.45.45 0 0 0 0 .9Z" fill="#fff"/></svg>