<!-- by TradingView --><svg width="18" height="18" viewBox="0 0 18 18" xmlns="http://www.w3.org/2000/svg"><path fill="#30271B" d="M0 0h18v18H0z"/><path fill-rule="evenodd" d="m13.68 6.21.92.65a.1.1 0 0 1 .05.09c0 .04-.02.07-.04.09l-.25.18.62.33.02.03c0 .01 0 .03-.02.03l-1.04.59v-.1l.93-.52-.58-.3-.12.09.36.23-.94.68V7.8l-1.06.8v-.25l1.06-.8V7l.4.26.1-.09-.15-.08V7l.23.12.22-.17-1.86-1.3V5.4l1.06.75v-.51h.55v-.09h-.55V5l.94.6-.85.61Zm.24 1.34-.11.09h.33v-.09h-.22Zm-2.45.25v.48l2.12-1.54-2.12-1.34v1.25h1.24v.19h-1.24v.53l-.5-.26.11-.08a.08.08 0 0 0 .04-.07.08.08 0 0 0-.04-.06L9.35 5.8v.18l1.55.99-.09.06-.05-.03v.06l-.12.08-.23-.14v.3l-1.06.72v.18l1.06-.72v.07h.55v.09h-.55v.64l.94-.68-.57-.37.11-.07.58.3v.25l-.7.4v.09l.7-.4Zm-1.06-.88L8.96 7.98l2.42 1.65c.06.03.09.1.1.17a.2.2 0 0 1-.1.17l-1.47 1.07.83.66.02.06c0 .03 0 .05-.02.07L9.35 13v-.18l1.24-1.05-.8-.64-.14.1.76.49L8.65 13v-1.04l-1.41 1.02v-.47l1.4-1.03v-.88l.66.41.18-.13-.13-.1v-.18l.25.2 1.36-1-3.72-2.53v-.46l1.4.96V7h1.04v-.16H8.65V5.8l1.76 1.12ZM8.86 11.8l.22-.16h.6v.16h-.82ZM5 10.95V10h2.59v-.4H5V7l4.35 2.8L5 13v-1.2l-.94.8v-.18l.94-.8v-.5l-.94-.74v-.18l.94.75ZM3 12.6v-1.2h1.03v-.16H3V10.2l1.76 1.12L3 12.6Zm10.94-6.4 1.04-.59.02-.03c0-.01 0-.02-.02-.03L13.94 5v.1l.93.48-.93.53v.09Z" fill="#F0F3FA"/></svg>