<!-- by TradingView --><svg width="18" height="18" viewBox="0 0 18 18" xmlns="http://www.w3.org/2000/svg"><path fill="#F0F3FA" d="M0 0h18v18H0z"/><path fill-rule="evenodd" d="M3 12v-1h1V7H3V6h3.4c.6.01 1.8.36 1.8 1.63 0 .7-.53 1.11-.79 1.23.35.15 1.04.64 1.04 1.37 0 .91-.66 1.77-1.77 1.77H3Zm2-5h1.22c.43 0 .78.29.78.64v.22c0 .35-.35.64-.78.64H5V7Zm0 2.5h1.22c.43 0 .78.29.78.64v.22c0 .35-.35.64-.78.64H5V9.5ZM12 12a3 3 0 1 0 0-6 3 3 0 0 0 0 6Zm0-1.5a1.5 1.5 0 1 0 0-3 1.5 1.5 0 0 0 0 3Z" fill="#0C4EA2"/><circle cx="12" cy="9" r="1" fill="#F7941D"/></svg>