<!-- by TradingView --><svg width="18" height="18" viewBox="0 0 18 18" xmlns="http://www.w3.org/2000/svg"><path fill="#F0F3FA" d="M0 0h18v18H0z"/><path d="M13 11v-.6l1.52-1.3.31-.31c.1-.1.16-.19.2-.28a.65.65 0 0 0 .07-.29.53.53 0 0 0-.31-.49.74.74 0 0 0-.33-.07.72.72 0 0 0-.33.07.52.52 0 0 0-.22.21c-.05.1-.08.2-.08.33H13c0-.26.06-.48.18-.67.13-.2.3-.34.52-.44.22-.1.48-.16.77-.16.3 0 .55.05.77.15.23.1.4.24.52.41.12.18.19.38.19.6 0 .16-.04.3-.1.45-.06.14-.17.3-.32.48-.16.18-.38.39-.67.64l-.6.56v.03H16V11h-3ZM9.19 11V7H10v1.76h.05L11.44 7h.97l-1.43 1.8 1.45 2.2h-.97L10.4 9.36l-.4.5V11h-.81ZM8.53 7v4h-.7l-1.6-2.52H6.2V11h-.8V7h.7l1.6 2.52h.03V7h.8ZM2 11V7h1.54c.28 0 .52.04.71.13.19.09.33.2.43.36.1.16.14.33.14.54a.9.9 0 0 1-.1.4.8.8 0 0 1-.24.3 1 1 0 0 1-.36.15v.04c.15.01.29.05.42.13a1.02 1.02 0 0 1 .43.84c0 .22-.05.4-.15.57-.1.17-.25.3-.45.4-.2.1-.44.14-.73.14H2Zm.81-.7h.67c.22 0 .39-.04.5-.13.1-.09.15-.2.15-.36 0-.11-.03-.2-.08-.3a.53.53 0 0 0-.22-.2.73.73 0 0 0-.33-.06H2.8v1.06Zm0-1.63h.6a.7.7 0 0 0 .3-.06.47.47 0 0 0 .28-.45.45.45 0 0 0-.14-.34.6.6 0 0 0-.42-.14h-.62v1Z"/></svg>