<!-- by TradingView --><svg width="18" height="18" viewBox="0 0 18 18" xmlns="http://www.w3.org/2000/svg"><path fill="#F0F3FA" d="M0 0h18v18H0z"/><path d="m5.17 5.53-.7-.15c-.04 0-.05-.02-.02-.03.04-.01.11 0 .23.03l.28-.02c.02 0 .04-.02.04-.04V5.3l.01-.03.22-.12c.03-.02.03-.03 0-.04-.08-.03-.2-.07-.35-.1-.07-.02-.15 0-.25.05l-.4.2v.03l.02.01h.02c.05 0 .1 0 .13.02.03.01.02.02-.01.03a.7.7 0 0 1-.31-.06c-.08-.04-.1-.02-.06.06l1.1 1.93c0 .01.02.02.03.01.01 0 .02 0 .02-.02l.42-1.59-.01-.06a.05.05 0 0 0-.05-.02c-.06.01-.11 0-.16-.02-.02-.02-.02-.03.01-.03h.1v-.01l-.01-.02a.54.54 0 0 0-.2-.02c-.03 0-.04-.01-.04-.04s.02-.06.05-.08c.15-.07.3-.07.46 0 .05.01.05.04 0 .07a.2.2 0 0 1-.14.03l-.04.01-.02.02v.02c.13.04.25.01.36-.08a.05.05 0 0 0 .02-.04.04.04 0 0 0-.03-.04.86.86 0 0 0-.75 0 .08.08 0 0 0-.04.03v.05c0 .02.01.03.03.04h.04l.01.03v.01Zm-.47-.4.12-.07a.08.08 0 0 1 .07 0l.15.04c.07.02.07.05 0 .07a.56.56 0 0 1-.34-.01l-.01-.02v-.01Zm-.27.17c0-.04.02-.07.07-.09a.3.3 0 0 1 .15-.02h.03c.06 0 .1.02.15.05.04.03.05.06.05.1l-.45-.04Z" fill="#112441"/><path d="m14 5.35-1.1 1.94c-.03.06-.04.05-.02 0l.41-1.54a.15.15 0 0 1 .08-.1l.6-.32H14v.02Z" fill="#330A0C"/><path d="m6.47 5.54-.3-.08v-.03l.43.1c.02 0 .03 0 .03.03 0 .02 0 .03-.02.04a11.37 11.37 0 0 0-.28.13.38.38 0 0 1-.23 0l-.03.01v.02l1.28.28c.02 0 .03.03.02.05l-.43 1.62-.01.02-.02-.01-1.12-1.97c-.03-.05-.02-.07.04-.04.05.02.12.02.21 0h.06c.09 0 .17-.02.25-.08a.09.09 0 0 1 .05-.02c.04 0 .06-.01.08-.03.02-.02.02-.03-.01-.04Z" fill="#112441"/><path d="M6.03 5.62c-.05.04-.09.07-.12.06-.09-.01-.1-.05-.03-.1l.04-.02h.04a3.15 3.15 0 0 0 .37 0c0 .02 0 .02-.02.02a.61.61 0 0 1-.23.02c-.02 0-.04 0-.05.02ZM13.2 5.77l-1.09 1.94c-.03.06-.03.05-.02 0l.41-1.54a.15.15 0 0 1 .08-.1l.6-.32h.02v.02ZM8.1 5.72l-.21.11a.06.06 0 0 1-.06 0c-.22-.12-.46-.11-.71.04a.04.04 0 0 0-.02.03c0 .02 0 .03.02.04.1.06.2.08.32.07a.1.1 0 0 1 .05.02l.05.03c.02.01.04.01.07 0l.56-.3-.04-.04h-.04Zm-.34.15c0 .05-.11.1-.25.1-.14.02-.26-.01-.26-.06 0-.04.1-.1.25-.1.14-.01.25.02.26.06ZM8.2 6.1c-.02.03-.02.04.03.03.35-.1.57-.16.65-.2h.08c.03.03.03.06 0 .09l-.17.18c-.04.05-.03.06.03.05l.69-.19c.01 0 .02 0 .02.02v.03l-.84.23c-.05.01-.09 0-.1-.05 0-.01 0-.03.03-.06l.16-.16c.05-.04.04-.06-.02-.04l-.58.16h-.12c-.02 0-.03-.01-.03-.03l.01-.04.26-.27a.1.1 0 0 1 .09-.03h.02c.04 0 .04.02.01.05l-.21.23Z" fill="#330A0C"/><path d="M9.62 6.42c.03-.03.03-.04-.01-.04l-.25-.01c-.09 0-.1.02-.03.08l.06.02v.03l-.19-.05c-.02-.01-.03 0-.04.02L8.73 8.1c-.01.06-.03.06-.06.01l-1.1-1.95v-.02l.01-.01 1.52.33c.02 0 .03 0 .05-.02a.05.05 0 0 0 0-.05v-.05h.05c.16-.03.34-.01.53.03l.03-.01v-.02c.02-.02.02-.04-.01-.05l-.28-.06h-.01V6.2c.14 0 .26.03.36.05.13.04.14.08.01.14l-.24.12c-.04.02-.09.01-.15-.01-.02-.01-.02-.02 0-.03a.46.46 0 0 0 .18-.06Z" fill="#112441"/><path d="m12.41 6.2-1.1 1.95c-.02.06-.03.05-.01 0l.4-1.55a.15.15 0 0 1 .08-.1l.61-.33h.02v.02ZM10.74 6.78c.03 0 .07 0 .13.03h.01v.01a.4.4 0 0 1-.17-.04.15.15 0 0 0-.06 0 .45.45 0 0 1-.23-.07.04.04 0 0 1-.02-.05c0-.02 0-.03.02-.04.26-.12.49-.14.68-.05.13.05.13.1 0 .14-.06.02-.15 0-.27-.03-.03 0-.03-.01 0-.02s.1 0 .18.01c.03.01.04 0 .04-.03v-.02l-.01-.02a.55.55 0 0 0-.26-.04.05.05 0 0 0-.05.04c-.02.04-.06.05-.13.03-.03-.01-.05 0-.05.03v.03c0 .02.01.03.03.03.05 0 .09.02.11.05l.05.01Z" fill="#330A0C"/><path d="M10.57 8.37v.04l.02.02h.02a.44.44 0 0 0-.08.15c0 .01-.01.02-.03.02l-.02-.01-1.14-2v-.03l.02-.01 1.52.33c.04.01.05.04.04.08l-.4 1.45v.03c0 .03.01.02.02 0a.3.3 0 0 1 .03-.07Z" fill="#112441"/><path d="M10.61 8.43h-.02l-.01-.02-.01-.04.4-1.41a.1.1 0 0 1 .05-.07l.6-.33h.03v.03L10.6 8.43Z" fill="#330A0C"/><path d="m5.32 7.5 1.54.34c.02 0 .03.01.02.03L6.45 9.5c0 .02 0 .02-.02.02h-.02L5.29 7.53v-.03l.03-.01Z" fill="#193554"/><path d="M12.7 7.57 11.63 9.5c-.03.05-.04.05-.02 0l.4-1.53a.15.15 0 0 1 .09-.1l.6-.32h.02v.02Z" fill="#330A0C"/><path d="M10.09 10.13c-.02.1-.01.13.01.12a.2.2 0 0 1-.09.11c-.02.01-.03 0-.04-.01L8.84 8.36c-.02-.02-.01-.03.01-.02l1.57.34c.02 0 .03.02.04.04v.04l-.03.02a55.9 55.9 0 0 1-.4 1.48l.06-.13Z" fill="#2C5584"/><path d="M10.1 10.25c-.02.01-.03-.03-.01-.12l.37-1.33a.2.2 0 0 1 .1-.14l.56-.3c.04-.02.05-.01.03.03l-1.05 1.86Z" fill="#551717"/><path d="m6.6 9.72 1.55.33c.02 0 .03.02.02.04l-.43 1.63-.02.02c-.02 0-.02 0-.03-.02L6.57 9.75v-.02c0-.01.02-.02.03-.01Z" fill="#3F70AD"/><path d="m11.43 9.78-1.1 1.97c-.03.05-.04.05-.02-.01l.4-1.55a.15.15 0 0 1 .09-.1l.6-.33h.03v.02Z" fill="#551717"/><path d="M9.61 11.8c-.01.14 0 .2.01.21-.01.08-.05.13-.1.16-.02 0-.03 0-.04-.02l-1.13-1.98v-.02c0-.01.01-.02.02-.01l1.53.33c.03.01.04.03.03.06l-.32 1.28Z" fill="#3F70AD"/><path d="M9.62 12.01c-.02 0-.02-.07-.01-.2l.35-1.25a.14.14 0 0 1 .07-.08l.6-.32c.04-.02.05-.01.02.03L9.62 12Z" fill="#551717"/><path d="m9.13 13.57-.02.28-.07.13c-.01.03-.03.03-.04 0l-1.15-2.01v-.03h.03l1.52.33c.04 0 .06.03.04.07l-.31 1.23Z" fill="#3F70AD"/><path d="m9.1 13.85.03-.28.35-1.24c0-.02.02-.04.04-.05l.6-.32c.05-.03.06-.02.04.03L9.1 13.85Z" fill="#551717"/></svg>