<!-- by TradingView --><svg width="18" height="18" fill="none" xmlns="http://www.w3.org/2000/svg"><path fill="#F0F3FA" d="M0 0h18v18H0z"/><g opacity=".6"><circle cx="9" cy="9" r="8.875" stroke="#969696" stroke-width=".25"/><rect x="3.05" y="5.05" width="11.9" height="7.9" rx=".95" stroke="#969696" stroke-width=".1"/><rect x="2.05" y="6.05" width="13.9" height="5.9" rx=".95" stroke="#969696" stroke-width=".1"/><rect x="4.05" y="4.05" width="9.9" height="9.9" rx=".95" stroke="#969696" stroke-width=".1"/><rect x="5.05" y="3.05" width="7.9" height="11.9" rx=".95" stroke="#969696" stroke-width=".1"/><rect x="6.05" y="2.05" width="5.9" height="13.9" rx=".95" stroke="#969696" stroke-width=".1"/><circle cx="9" cy="9" r="4.875" stroke="#A2A2A2" stroke-width=".25"/></g><path d="M6.133 5.649s.665.192.599-.32c0 0-.133-.514-.732-.257 0 0-.333.385-.2 1.09v6.861l-.066.32s-.665-.256-.665.386c0 0 .2.513.731.128 0 0 .2-.192.2-.705V5.777l.133-.128ZM11.133 5.649s.666.192.599-.32c0 0-.133-.514-.732-.257 0 0-.333.385-.2 1.09v6.861l-.066.32s-.665-.256-.665.386c0 0 .2.513.731.128 0 0 .2-.192.2-.705V5.777l.133-.128Z" fill="#000"/><path d="M5.571 9.432v2.101c.133.175.427.234.627.234.665 0 1.126-.35 1.126-1.168 0-.642-.261-1.4-1.459-1.4-.266.058-.294.058-.294.233ZM7 7.915c0-.7-.337-.992-.802-1.109a4.579 4.579 0 0 0-1.265 0c-.2.058-.399.058-.399.058h-.2c-.665 0-1.13-.583-1.13-.583-.333-.467.066-.7.066-.7.532-.176.599.233.599.233 0 .35-.333.35-.333.35 0 .058.067.175.067.175.266.175.532.292.732.292.732 0 .931-.117 1.596-.117.952 0 1.8.317 1.8 1.284 0 .584-.27.876-.735 1.109 0 .058.067.117.133.117.4.058.871.467.871 1.4C8 11.358 7.462 12 6.131 12H4.468c-.067 0-.067-.175 0-.233H4.6C5 11.708 5 11.592 5 10.717v-3.02l.571-.35v1.327c0 .233.028.233.294.233C6.597 8.965 7 8.732 7 7.915ZM11.469 9.441c0 1.146 1.507 3.151 2.704 3.151 0 0 .837-.031.575-.562 0 0-.052.06-.105.118-.104.06-.261.06-.314-.118 0 0-.209-.53.314-.53 0 0 .262.059.314.295.022.072.043.174.043.29a.788.788 0 0 1-.2.535c-.233.263-.427.33-.627.332-.11.001-.223-.018-.344-.035-2.194-1.032-2.228-2.679-2.726-3.24l-.105-.118c-.052-.059-.157-.059-.262-.059-.135 0-.139.004-.139.181v.831c0 .884 0 1.488-.44 1.488h-.68c-.052 0-.052-.177 0-.236h.157c.366-.059.366-.427.366-1.31v-2.85l.597-.354v1.96s.109.054.296.054c.61 0 1.107-.606 1.107-1.188 0-.648-.314-1.296-1.107-1.296-.412 0-.916.11-1.308 0-.47-.06-.889-.59-.889-.59-.261-.471.052-.707.052-.707.419-.177.471.236.471.236 0 .353-.261.353-.261.353 0 .06.052.177.052.177a.88.88 0 0 0 .68.295c.366 0 .68-.118 1.256-.06.366 0 .897.06 1.159.237.261.235.47.589.47 1.178 0 1.101-1.106 1.04-1.106 1.542Z" fill="#000"/></svg>