<!-- by TradingView --><svg width="18" height="18" viewBox="0 0 18 18" xmlns="http://www.w3.org/2000/svg"><path fill="#F0F3FA" d="M0 0h18v18H0z"/><path d="M8.6 3.54v3.3l-.8.47v1.2L9 7.76 12 9.65V8.37L9.55 6.84V3l-.96.54ZM6.51 9.3V8.08l-.52.3v1.24l.52-.32Z" fill="url(#a)"/><path d="M10.5 8.86v1.32l-3.36 1.9.93.6 2.87-1.57L14 13v-1.27l-2.55-1.55v-.77l-.95-.55Zm0-1.55.95.6v-.96l-.95-.6v.96Z" fill="url(#b)"/><path d="M6.68 6.88v3.3l-3.18 1.9.93.6 2.7-1.57.68.4 1.09-.57-1.26-.76V6.34l-.96.54Zm3.45 4.8-1.04.6.68.4 1.01-.6-.65-.4Z" fill="url(#c)"/><defs><linearGradient id="a" x1="9.04" y1="3" x2="9.04" y2="9.34" gradientUnits="userSpaceOnUse"><stop offset=".46" stop-color="#1B2A7D"/><stop offset=".64" stop-color="#1B87D0"/><stop offset=".79" stop-color="#152A87"/></linearGradient><linearGradient id="b" x1="10.78" y1="6.34" x2="10.78" y2="12.69" gradientUnits="userSpaceOnUse"><stop offset=".46" stop-color="#D8000D"/><stop offset=".64" stop-color="#FEC230"/><stop offset=".79" stop-color="#D8070D"/></linearGradient><linearGradient id="c" x1="7.14" y1="6.34" x2="7.14" y2="12.69" gradientUnits="userSpaceOnUse"><stop offset=".46" stop-color="#0D8A46"/><stop offset=".64" stop-color="#7BC647"/><stop offset=".79" stop-color="#098748"/></linearGradient></defs></svg>