<!-- by TradingView --><svg width="18" height="18" viewBox="0 0 18 18" xmlns="http://www.w3.org/2000/svg"><path fill="#F0F3FA" d="M0 0h18v18H0z"/><path fill-rule="evenodd" d="M16 9 9 4 2 9l7 5 7-5Zm-1 0L9 5 3 9l6 4 6-4Z" fill="#000F8F"/><path fill-rule="evenodd" d="m9.02 6 1.15.66-2.05 1.2.99.57.49-.29-.5-.29 1.46-.9L14 9l-4.98 3-1.52-.94 3.48-2.05-.25-.15-3.54 2.01L4 9l5.02-3ZM8.01 9.07l-.8.47L6.24 9l.78-.5.99.57Zm1.7-1.24.85-.5L13.38 9l-4.36 2.62-.89-.56L11.62 9 9.7 7.83Z" fill="#000F8F"/></svg>