<!-- by TradingView --><svg xmlns="http://www.w3.org/2000/svg" width="18" height="18"><path fill="#F0F3FA" d="M0 0h18v18H0z"/><path d="M11.55 5c.17.12.48.52.35 1.09-.03.13-.11.3-.2.49-.1.21-.2.43-.2.55-.35-.23-.85-1 .05-2.13zm-1.4.94c-.1-.58-.53-.81-.73-.85-.4 1.4.34 1.9.75 1.98-.04-.12-.03-.36-.02-.6 0-.2.02-.4 0-.53zM7.49 5.6c.2-.02.68.1.9.64.06.12.1.31.13.5.05.24.1.48.16.58-.42.04-1.25-.25-1.2-1.72zm-.66 1.35a.96.96 0 00-1-.47c.18 1.46 1.05 1.6 1.46 1.49a1.88 1.88 0 01-.25-.54 2.94 2.94 0 00-.2-.48zm-2.34.8c.2-.08.69-.1 1.05.34.08.1.17.28.25.46.11.21.22.42.31.5-.4.16-1.27.13-1.6-1.3zm.87 4.66c.4-1.58 2.11-4.73 5.66-4.7.77-.04 2.64.32 3.98 2.05a5.24 5.24 0 00-3.68-1.53c-2.13.1-3.76 1.45-4.96 3.9l-1 .28zm-.78-2.62a.94.94 0 00-1.1-.05c.69 1.29 1.54 1.08 1.88.81-.11-.05-.27-.22-.42-.4-.13-.14-.26-.29-.36-.36zM3 11.62a.95.95 0 011.07-.25c.12.05.28.15.44.26.19.12.38.25.5.27-.26.35-1.04.78-2.01-.28z" fill="#FCB63D"/></svg>