<!-- by TradingView --><svg width="18" height="18" viewBox="0 0 18 18" xmlns="http://www.w3.org/2000/svg"><path fill="#F0F3FA" d="M0 0h18v18H0z"/><path d="M10.37 7.36c0-.07.04-.2.12-.38l.04-.03.05-.01c.06 0 .09.06.07.17-.02.08-.08.17-.2.28-.04.05-.07.03-.08-.03ZM12.77 7.56c-.05.19-.02.36.05.39.08.02.18-.12.23-.3.05-.2.02-.37-.05-.4-.07-.02-.18.11-.23.3Z" fill="#DB1112"/><path d="M10.8 5.2c1.17-.28 4.64-.64 4.12 1.91.01.12 0 .16-.02.11.18.62.12.82-.17.59a.49.49 0 0 0-.2.22c-.27.47-.5.78-.66.95a13.51 13.51 0 0 1-7.03 3.86 5.37 5.37 0 0 1-2.61 0c-1.06-.33-1.43-1.05-1.13-2.17.17-.62.25-1.03.23-1.2-.02-.14.01-.17.08-.1l.1.1c.09.08.16.08.23-.01.64-.8 1.36-1.48 2.17-2.04A14.41 14.41 0 0 1 10.8 5.2Zm3.89 1.85c.14-.36.11-.69-.08-.98-.57-.89-1.78-.92-2.75-.8-1.6.19-3.23.77-4.88 1.74-1.25.73-2.2 1.52-2.9 2.38a.63.63 0 0 0-.11.21.53.53 0 0 0 0 .27l-.01.1a.27.27 0 0 1-.08.1l-.13.09c-.14.1-.31.2-.4.38-.53 1.1.1 1.85 1.05 2.1.62.17 1.3.18 2.06.04a13.71 13.71 0 0 0 6.83-3.44c.4-.36.78-.85 1.16-1.48-.3-.11-.23-.35.24-.71Z" fill="#3F3638" fill-opacity=".99"/><path fill-rule="evenodd" d="M11.96 7.61c.06-.2.15-.3.28-.3.1 0 .12.05.07.14a.87.87 0 0 0-.1.42l.02.02.02.02h.09l.01-.02c.07-.68.4-1.07.98-1.19.08-.02.12.02.13.12 0 .2-.05.41-.15.66a.11.11 0 0 0 .02.12l.03.02c.08.04.15-.04.21-.22.03-.08.08-.11.15-.09.32.1.56-.06.72-.45a.6.6 0 0 0-.01-.5c-.7-1.56-4.24-.52-5.37-.03-1.8.77-3.32 1.65-4.62 3.07a.31.31 0 0 0-.08.22c0 .26-.1.46-.3.59-.76.51-.86 1.65.1 2 .57.21 1.02.3 1.36.26a12.79 12.79 0 0 0 8.16-4.08c.19-.2.29-.35.3-.46.06-.44-.05-.49-.32-.16-.17.2-.4.39-.72.56a.2.2 0 0 1-.19.01c-.49-.22-.81-.1-.97.37-.1.33-.2.31-.25-.04v-.15a.21.21 0 0 0-.08-.2c-.18-.13-.19-.34-.02-.63.07-.14.17-.17.3-.09l.1.07c.07.04.11.02.13-.06ZM9.85 9.2c-.23.7-.36.67-.4-.06 0-.06.08-.37.25-.93a.38.38 0 0 0 0-.21l-.04-.18c-.11-.42-.21-.42-.3.01-.09.4-.15.94-.2 1.61 0 .04-.02.08-.04.1-.02.03-.06.04-.1.05-.06 0-.1-.02-.12-.09l-.06-.24a.35.35 0 0 0-.1-.16.3.3 0 0 0-.14-.08.28.28 0 0 0-.17.02.31.31 0 0 0-.13.11c-.32.45-.33.9-.05 1.35l.07.07a.2.2 0 0 0 .17.01.2.2 0 0 0 .07-.05l.52-.57c.05-.05.1-.07.16-.04.06.02.12.06.18.13l.07.05h.1c.03 0 .06-.02.08-.04a.2.2 0 0 0 .05-.09c.07-.2.2-.3.43-.28h.06l.06-.04a.2.2 0 0 0 .05-.12l.06-1.26c0-.08.02-.15.05-.21l.4-.84a1 1 0 0 0 .1-.53.32.32 0 0 0-.07-.15.28.28 0 0 0-.12-.1.25.25 0 0 0-.16 0 .28.28 0 0 0-.13.08c-.28.31-.33.54-.35 1.01 0 .21-.06.37-.15.47a.24.24 0 0 0-.05.2 2 2 0 0 1-.05 1Zm-3.48 1.73c.1-1.05.22-1.85.36-2.42.02-.08.07-.12.15-.12l.09.03c.04.03.07.1.08.2.04.32-.04.62-.22.88-.05.08-.04.13.04.16.06.03.15.03.27.01.06 0 .13 0 .19.04.05.03.1.08.13.15.18.39.14.72-.11 1.01a.26.26 0 0 1-.13.08h-.15a.26.26 0 0 1-.11-.1.3.3 0 0 1-.06-.15c0-.14.02-.3.08-.48a.09.09 0 0 0 0-.06.08.08 0 0 0-.01-.03l-.03-.01-.07-.02h-.05a.07.07 0 0 0-.03.04c-.11.34-.11.64 0 .91.03.1.09.16.16.2a.3.3 0 0 0 .25 0c.5-.19.72-.6.66-1.2-.02-.2-.18-.43-.47-.72a.2.2 0 0 1-.05-.09v-.11c.1-.41.02-.8-.25-1.14-.05-.07-.1-.09-.18-.07-1.38.35-2.16 1.3-2.33 2.87-.08.66.24 1.23.83 1.37a.3.3 0 0 0 .2-.03c.45-.22.7-.63.76-1.2Zm4.72-2.2.05-.19c.06-.09.09-.08.1.03.02.23-.01.43-.09.58-.08.17-.2.22-.37.14-.07-.03-.1-.09-.1-.17-.01-.32-.07-.58-.18-.8a.25.25 0 0 1 .07-.3.2.2 0 0 1 .09-.03c.17-.03.28.05.32.25.02.07.02.15 0 .22-.03.12-.03.21 0 .28.05.1.09.1.11-.01Z" fill="#DB1112"/><path d="M6.44 8.55c-.15.6-.24 1.21-.37 2.3-.03.28-.13.56-.29.81a.23.23 0 0 1-.08.08.2.2 0 0 1-.1.03c-.33.02-.54-.2-.62-.68-.19-1.13.25-2.02 1.32-2.66a.09.09 0 0 1 .1 0 .1.1 0 0 1 .04.06v.06ZM8.4 9.72c-.04.2 0 .37.08.4.07 0 .17-.14.2-.34.04-.2 0-.37-.08-.39-.07-.02-.17.13-.2.33Z" fill="#DB1112"/></svg>