<!-- by TradingView --><svg width="18" height="18" viewBox="0 0 18 18" xmlns="http://www.w3.org/2000/svg"><path fill="#F0F3FA" d="M0 0h18v18H0z"/><path fill-rule="evenodd" d="M11.5 11a2.5 2.5 0 1 0 0-5 2.5 2.5 0 0 0 0 5Zm0-1a1.5 1.5 0 1 0 0-3 1.5 1.5 0 0 0 0 3Z" fill="#F77722"/><path fill-rule="evenodd" d="M4 5h1v1.5a2.5 2.5 0 1 1-1 2V5Zm1 3.5a1.5 1.5 0 1 1 3 0 1.5 1.5 0 0 1-3 0Z" fill="#F77722"/><path d="M12 12.75c-.82.8-1.9 1.25-3 1.25a4.27 4.27 0 0 1-3-1.26l.63-.74c.65.64 1.5.75 2.37.75.88 0 1.72-.1 2.37-.74l.63.74Z" fill="url(#a)"/><defs><linearGradient id="a" x1="6" y1="13" x2="12" y2="13" gradientUnits="userSpaceOnUse"><stop stop-color="#E2DF31"/><stop offset="1" stop-color="#74B831"/></linearGradient></defs></svg>