<!-- by TradingView --><svg width="18" height="18" viewBox="0 0 18 18" fill="none" xmlns="http://www.w3.org/2000/svg">
<rect width="18" height="18" fill="#F0F3FA"/>
<path fill-rule="evenodd" clip-rule="evenodd" d="M13.0513 13.3538C13.3537 13.1067 13.5909 12.7938 13.7436 12.4407C13.9254 12.0009 14.0122 11.5298 13.9986 11.0563C13.9997 10.7558 13.9348 10.4584 13.808 10.1839C13.6855 9.92012 13.521 9.6765 13.3204 9.46192C13.1293 9.25897 12.9019 9.09102 12.6492 8.96613C12.4143 8.84696 12.1569 8.77507 11.8925 8.7548C12.1346 8.74645 12.3696 8.67279 12.5707 8.54213C12.7759 8.41187 12.9553 8.24717 13.1004 8.05582C13.2473 7.86304 13.364 7.65032 13.4465 7.42456C13.5277 7.21848 13.5708 7.00024 13.574 6.77976C13.5906 6.30612 13.5091 5.83406 13.3344 5.39127C13.1961 5.0592 12.9723 4.76682 12.6842 4.54191C12.4016 4.33102 12.0727 4.18551 11.7229 4.11656C11.3374 4.03727 10.9442 3.99821 10.55 4.00006H5V9.625H10.564C11.2883 9.58485 12.0868 10.1946 12.08 11.0563C12.0771 11.6673 11.4566 12.4408 10.7826 12.4375H5V13.9999H10.777C11.1982 14.0023 11.6179 13.9517 12.0256 13.8496C12.3997 13.7569 12.749 13.5878 13.0499 13.3538H13.0513ZM10.4085 8H7V5.5625H10.55C11.0818 5.56079 11.5985 6.18393 11.5954 6.82175C11.5923 7.45957 11.1068 8.02047 10.4085 8Z" fill="#242C2D"/>
</svg>
