<!-- by TradingView --><svg width="18" height="18" viewBox="0 0 18 18" xmlns="http://www.w3.org/2000/svg"><path fill="#00788B" d="M0 0h18v18H0z"/><path d="M4.95 6.04c-.31 0-.64-.01-.95-.04v6c.29-.03.58-.04.87-.04.14 0 .29 0 .43.02l.44.02C6.77 12 8 11.54 8 10.25c0-.99-.65-1.4-1.72-1.46v-.02c.9-.19 1.5-.67 1.5-1.52C7.79 6.27 6.93 6 5.9 6l-.48.02-.47.02ZM7 7.42c0 .96-.87 1.25-1.71 1.25H5v-2.3l.04-.01c.2-.03.29-.04.5-.04.68 0 1.46.16 1.46 1.1Zm-1.26 4.26c-.3 0-.45-.01-.74-.04V8.99h.2c1.2 0 1.98.24 1.98 1.23 0 .94-.67 1.46-1.44 1.46ZM14 6c-.27.06-.73.06-1 0v2.56h-3V6c-.27.06-.73.06-1 0v6a2.9 2.9 0 0 1 1 0V9h3v3a2.9 2.9 0 0 1 1 0V6Z" fill="#fff"/></svg>