<!-- by TradingView --><svg width="18" height="18" viewBox="0 0 18 18" xmlns="http://www.w3.org/2000/svg"><path fill="#F0F3FA" d="M0 0h18v18H0z"/><path d="M6.24 6.8c.25.6.84.97 1.75 1.12l.01.01v.04C8 7.99 8 8 7.98 8c-1.16.03-2.01-.24-2.55-.81-.42-.45-.53-.9-.34-1.38.15-.4.49-.74.99-1.03.87-.5 1.83-.76 2.88-.78.03 0 .04.01.04.04v1.12c0 .02-.02.03-.04.03-.66 0-1.26.1-1.81.28-.86.3-1.16.73-.9 1.32Z" fill="#296A78"/><path d="M8.51 12.39c.01 0 .02 0 .02.02v.03h-.02c-.74 0-1.42-.1-2.04-.32-.7-.24-1.08-.7-1.17-1.36-.09-.67.19-1.21.83-1.62.32-.2.65-.34.98-.43.62-.17 1.34-.3 2.15-.39.48-.05.94-.15 1.37-.3.3-.1.52-.25.68-.46.2-.24.24-.51.12-.8-.27-.62-.9-1.02-1.9-1.2l-.02-.01V5.5c0-.02.01-.02.02-.02 1.68 0 2.7.43 3.06 1.29.14.32.16.67.06 1.05-.19.76-.86 1.24-2 1.44l-2.07.35c-.94.14-1.57.4-1.91.76-.2.2-.22.47-.09.78.11.26.28.47.5.63.4.3.88.5 1.43.6Z" fill="#F08738"/><path d="M11.98 10.39c.46.22.78.54.94.97.17.47.07.91-.3 1.31-.8.84-2 1.28-3.59 1.33-.02 0-.03-.01-.03-.04v-1.12c0-.02.01-.04.04-.04 1.16.02 2-.2 2.5-.63a.79.79 0 0 0 .3-.6.93.93 0 0 0-.23-.63c-.29-.35-.8-.64-1.56-.88-.1-.03-.1-.05 0-.06.67-.03 1.3.1 1.93.39Z" fill="#296A78"/></svg>