<!-- by TradingView --><svg width="18" height="18" viewBox="0 0 18 18" xmlns="http://www.w3.org/2000/svg"><path fill="#F0F3FA" d="M0 0h18v18H0z"/><circle cx="9" cy="9" r="5" fill="#FF0204"/><path d="m4.62 6.59-.07.13 2.07 1.1-.04.04-2.15-.88a5 5 0 0 0-.06.13l2.12.87-.1.13 1.74-.44.88-1.31H9h.07V4a5.14 5.14 0 0 0-.14 0v2.35H9l-.23.08L8.64 4l-.15.02.13 2.45-.15.04-.26-2.46c-.05 0-.1.02-.14.03l.26 2.48-1.04.34-.59.78-2.08-1.1Zm-.31.68-.05.14 2.07.78.05-.14-2.07-.78Zm-.1.3-.04.14 2.18.73v.15L4.1 8l-.03.15 2.28.6v1.24l.4.57-1.61 1.62.09.12 1.61-1.62.1.15-1.53 1.66.1.1 1.52-1.64.06.1.72-1.75-1.44-1.15-.02.02v.13l-2.14-.72Zm1.48 5.18.12.1 1.34-1.75-.12-.09-1.34 1.74Zm.42.33.12.08 1.4-1.92.2.06-1.29 2.05.13.08 1.3-2.09 1.03.3 1.2-.38 1.14 2.16.13-.07-1.13-2.14.11-.04 1.23 2.05.12-.08-1.2-2.01.11-.04.04-.04L9 10.46l-1.9.6.02.03.36.1-1.38 1.89Zm5.93-.11.12-.1-1.34-1.85-.12.08 1.34 1.87Zm.3-.25.11-.1-1.53-1.78.05-.05 1.59 1.72.1-.1-1.6-1.74.59-.7V8.77l2.31-.37c0-.05 0-.1-.02-.14l-2.3.36v-.14a11.32 11.32 0 0 0 .93-.19c.44-.1.93-.2 1.32-.31 0-.05-.02-.1-.03-.14a30 30 0 0 1-2.03.45l-.07.02 1.99-.87-.05-.14-2.08.9.05.12h-.02l-.02-.03-.05.05a2.02 2.02 0 0 1-.07 0h-.01v.07l-1.03.9.25 1.5-.01.01.02.02.03.2.07-.08 1.51 1.77ZM13.58 7a4.9 4.9 0 0 0-.06-.13l-2.15 1.01-.1-.15 2.15-1.08a5.1 5.1 0 0 0-.07-.13l-2.17 1.09-.47-.7-1.03-.34.4-2.45-.14-.03-.4 2.44-.15-.05.25-2.44-.14-.02-.26 2.41-.23-.07.88 1.32 1.73.58-.17-.25 2.13-1Zm-4.64-.3-.72 1.1-1.56.39 1.32 1.06-.66 1.59 1.69-.52 1.58.53-.27-1.6 1.05-.93L9.8 7.8l-.72-1.08v2.05l2.03-.4-1.98.53 1.2 1.73L9 8.97l-1.33 1.65 1.21-1.73-1.8-.63 1.85.5V6.71Z" fill="#FFD65A"/></svg>