<!-- by TradingView --><svg width="18" height="18" viewBox="0 0 18 18" xmlns="http://www.w3.org/2000/svg"><path fill="#F0F3FA" d="M0 0h18v18H0z"/><path d="M9 5a5.12 5.12 0 0 1 4.29 2.15 4 4 0 0 1 .69 2.43H11.7c-.07 0-.08-.02-.03-.06.19-.12.39-.22.61-.3.03 0 .03-.02.02-.04a.58.58 0 0 0-.18-.17c-.02-.02-.02-.03 0-.05.06-.06.1-.11.11-.15.05-.15.1-.26.17-.35v-.04c-.07-.05-.06-.11 0-.2a6.71 6.71 0 0 0 .39-.58c0-.02 0-.03-.03-.02-.26.13-.56.2-.9.18a.3.3 0 0 1-.12-.02.08.08 0 0 1-.04-.04l-.03-.06c0-.02-.02-.02-.04 0a2.3 2.3 0 0 0-.76.36l-.03-.01-.01-.02v-.08c0-.02-.01-.03-.03-.03h-.04l-.07.06-.3.22c-.1.06-.22.11-.33.15-.03 0-.04 0-.04-.03.03-.25.12-.48.28-.7.02-.02 0-.04-.04-.04h-.05l-.03-.01v-.03l.16-.47c.02-.05 0-.05-.03-.02-.15.1-.27.16-.36.17-.01 0-.03 0-.04-.02-.05-.03-.08-.09-.1-.18l-.08-.29-.04-.02h-.18c-.03 0-.04-.01-.05-.03l-.08-.32c0-.02-.01-.02-.03-.02h-.1c-.05 0-.08-.04-.1-.1A22.75 22.75 0 0 0 9 5.57l-.03.05-.13.58c-.01.07-.04.1-.1.12H8.7l-.04-.01c-.02 0-.03 0-.03.02l-.09.32c0 .02-.02.03-.04.03H8.3c-.02 0-.03 0-.03.02L8.19 7c-.02.1-.06.15-.1.18a.07.07 0 0 1-.05.02c-.08 0-.2-.07-.35-.17-.04-.03-.05-.03-.04.02l.17.47v.03l-.04.01h-.05c-.04 0-.05.02-.03.05.16.21.25.44.27.7 0 .01 0 .02-.03.02a1.28 1.28 0 0 1-.34-.15 3.8 3.8 0 0 1-.3-.22l-.06-.06a.04.04 0 0 0-.05 0l-.02.03v.08l-.01.02h-.03a2.3 2.3 0 0 0-.5-.22 1.23 1.23 0 0 1-.23-.12l-.03-.02c-.02-.01-.04 0-.04.01l-.03.06-.04.04a.3.3 0 0 1-.12.02c-.35.01-.65-.04-.9-.18-.03 0-.04 0-.03.02 0 .04.03.08.05.12.05.08.16.24.34.47.06.08.06.14 0 .2v.03c.06.09.11.2.16.35l.12.15c.02.02.02.03 0 .05a.58.58 0 0 0-.18.17c-.01.02 0 .03.01.04.23.08.43.18.61.3.06.04.05.06-.02.06H4.03c-.01 0-.02 0-.02-.02a4 4 0 0 1 .7-2.4A5.11 5.11 0 0 1 9 5Zm-.76 5.3c.07 0 .07-.01.01-.04a3.7 3.7 0 0 0-.52-.21v-.01h.02c.22.02.43.09.61.2.1.05.16.07.21.08a2.7 2.7 0 0 1 .28.02v-.02a4.82 4.82 0 0 0-.74-.7c-.33.03-.68.03-1.02-.01-.04 0-.12-.03-.24-.07v-.02c.11.03.2.04.25.04a16.68 16.68 0 0 0 .88-.03L8 9.5V9.5l-.5-.36a.13.13 0 0 0-.11-.02 1.6 1.6 0 0 1-.9-.05v-.02c.28.06.55.05.82-.01a7.71 7.71 0 0 0-.63-.41l-.54-.31c-.05-.03-.05-.04.02-.02l.1.04a8.4 8.4 0 0 1 1.07.56c0-.1-.05-.26-.13-.47a5.12 5.12 0 0 1-.05-.14h.03a3.15 3.15 0 0 1 .3.72l.54.38c.04.03.06.02.06-.03-.03-.26-.09-.5-.19-.75 0-.01 0-.02.02-.01h.01c.18.26.28.57.3.93a4.95 4.95 0 0 1 .7.7h.01v-.74l-.01-.03a2.45 2.45 0 0 1-.68-1h.03c.03.1.08.18.13.24a5.21 5.21 0 0 0 .53.58v-.65c0-.02 0-.03-.02-.05a4.4 4.4 0 0 1-.72-.73c-.11-.14-.2-.28-.25-.41l.01-.02h.03c.05.11.11.22.2.31a4.06 4.06 0 0 0 .75.72l.01-.63V7.8a2.38 2.38 0 0 1-.54-.84l.01-.02h.02c.13.26.3.5.49.7.02.03.03.03.03 0l.03-1.14.02-.01H9l.05 1.13c0 .04.02.05.05.01.2-.24.36-.47.48-.7l.03-.01h.01c-.12.31-.3.6-.53.84l-.04.08.01.59c0 .02.01.02.03.01a3.6 3.6 0 0 0 .96-1.02l.02.02v.01c-.25.43-.57.81-.98 1.13a.08.08 0 0 0-.03.07v.63c0 .04 0 .04.03.02.17-.18.3-.31.37-.41a1.81 1.81 0 0 0 .29-.44v.01a.58.58 0 0 1-.05.17 3.13 3.13 0 0 1-.64.86v.74c0 .03 0 .03.02 0 .19-.22.4-.43.66-.64a.1.1 0 0 0 .04-.08c.01-.33.11-.63.3-.91h.02v.01c-.1.26-.16.5-.17.76 0 .04.01.05.04.02l.5-.35a.16.16 0 0 0 .07-.1 2 2 0 0 1 .3-.67h.02v.02c-.09.19-.16.39-.21.6 0 .01 0 .02.03.01a9.12 9.12 0 0 1 1.23-.62v.02h-.01a13.28 13.28 0 0 0-1.23.74c.28.07.56.07.84 0l.02.01v.02c-.28.09-.57.11-.88.06h-.02c-.06-.01-.1 0-.14.02a30.05 30.05 0 0 0-.5.37l.02.02.17.02a4.38 4.38 0 0 0 .98-.01v.01c-.31.09-.73.11-1.26.07-.05 0-.1.01-.12.05a4.16 4.16 0 0 1-.4.38c-.08.08-.15.17-.22.27-.02.02-.01.03.01.03l.27-.04a.47.47 0 0 0 .2-.07c.07-.06.17-.1.29-.14.12-.04.23-.06.33-.07l.01.01v.01c-.24.08-.4.15-.52.21-.06.03-.06.05.01.05.18 0 .36 0 .54.02.03 0 .06 0 .11-.02.2-.09.4-.14.62-.16v.01l.02.02a14.84 14.84 0 0 0-.5.15c-.02.02-.02.03 0 .03a3.9 3.9 0 0 1 .91.16h-.01l-.91-.1-.03.01v.03c.04.07.1.14.18.2a8.69 8.69 0 0 1 .16.13l-.02.01h-.01a2.16 2.16 0 0 1-.45-.37.09.09 0 0 0-.06-.02l-.62-.02c-.03 0-.04.01-.02.04a1.69 1.69 0 0 0 .43.45c.05.04.05.05-.02.01a1.9 1.9 0 0 1-.54-.46.05.05 0 0 0-.05-.02l-.39.05a.44.44 0 0 1-.22 0 3.02 3.02 0 0 0-.36-.05c-.03 0-.06 0-.07.03-.17.2-.35.34-.54.45-.05.02-.05.02-.02-.02l.18-.17c.12-.1.2-.2.25-.27v-.02l-.02-.01h-.6a.12.12 0 0 0-.1.04 1.97 1.97 0 0 1-.45.37v-.03l.21-.18c.06-.04.1-.1.12-.16 0-.01 0-.02-.02-.02l-.93.1h-.02v-.02c.29-.07.56-.11.81-.13.19-.01.2-.04.02-.09l-.37-.1s-.01 0 0 0v-.02c.2.02.38.06.55.12.08.04.16.05.21.05l.5-.02Zm-4.2-.53c-.02 0-.03 0-.03.03v.09c0 .02 0 .03.03.03l2.38.01c.2 0 .3-.01.3-.04v-.07c0-.03-.1-.05-.3-.05H4.05ZM14 9.8v.1c0 .01-.01.02-.04.02H11.3c-.02 0-.03 0-.03-.02v-.03l.14-.1h2.55c.03 0 .04.01.04.03Zm-2.1.42h2.08l.01-.01v-.12l-.01-.02h-2.32l-.02.01.01.02.24.12Zm-5.57-.15c.05 0 .05.01 0 .03l-.2.11a.11.11 0 0 1-.05.01H4.05c-.03 0-.05-.01-.05-.04v-.06c0-.03.02-.05.05-.05h2.28Zm-.44.31H4.05c-.03 0-.05.02-.05.04v.06c0 .03.02.04.05.04.44.01.91.02 1.43 0 .13 0 .27-.03.42-.1.01 0 .02-.01.01-.02 0-.01 0-.02-.02-.02Zm8.1.02v.11l-.01.02H12.4l-.3-.11v-.02l.01-.02h1.86l.02.02Zm-9.95.25c-.02 0-.03.01-.03.03v.09c0 .02 0 .03.03.03h1.9c.2 0 .29 0 .29-.03v-.08c0-.02-.1-.03-.3-.03H4.05Zm4.43.12c.12-.1.25-.14.4-.1.03 0 .04.01.04.04v.05c0 .03-.01.04-.04.04h-.39l-.01-.01v-.02Zm1.08.01a.46.46 0 0 0-.4-.12c-.03 0-.05.02-.05.05v.05c0 .03.01.04.04.04h.4v-.02Zm4.45-.01c0 .01-.01.02-.03.02h-1.99c-.13 0-.2 0-.2-.04v-.04c0-.03.07-.05.2-.05h1.99c.02 0 .02 0 .03.02v.09Zm-5.16.3h-.8c-.05 0-.05 0-.02-.03l.04-.02c.1-.06.18-.1.24-.1h.55c.04 0 .05.02.05.05v.05c0 .03-.02.05-.06.05Zm-4.79 0c-.03 0-.05-.01-.05-.04v-.06c0-.03.01-.04.05-.04a101.97 101.97 0 0 1 2.76.03c.22 0 .43.01.61.05.2.04.19.06 0 .06H4.04Zm5.06-.13v.12l.02.01h.85l.02-.01-.01-.02-.23-.11H9.1Zm4.83.13H10.6c-.2 0-.2-.02-.01-.06.18-.04.39-.06.6-.05l.13-.01.12-.01c.18-.01 1.03-.02 2.52-.01.04 0 .05.01.05.04v.06c0 .03-.02.04-.06.04Zm-5.09.18h-4.8c-.02 0-.05.02-.05.04v.08c0 .02.03.04.05.04h4.8c.03 0 .05-.02.05-.04v-.08c0-.02-.02-.04-.05-.04Zm.3 0h4.82c.01 0 .03.01.03.03v.1l-.03.03H9.15c-.02 0-.04-.02-.04-.03v-.1c0-.02.02-.03.04-.03Zm-.3.3h-4.8c-.03 0-.05.02-.05.04v.07c0 .03.02.04.04.04h4.8c.03 0 .05-.01.05-.04v-.07c0-.02-.02-.04-.04-.04Zm.3 0h4.82l.03.03v.1l-.03.02H9.15c-.01 0-.03-.01-.03-.03v-.09l.03-.02Zm-.32.3H4.07c-.03 0-.06.03-.06.06v.03c0 .03.03.06.06.06h4.76c.04 0 .06-.03.06-.06v-.03c0-.03-.02-.06-.06-.06Zm.34 0h4.78c.03 0 .05.02.05.04v.07c0 .02-.02.04-.05.04H9.17c-.03 0-.05-.02-.05-.04v-.07c0-.02.02-.04.05-.04Z" fill="#00A558"/></svg>