<!-- by TradingView --><svg width="18" height="18" viewBox="0 0 18 18" xmlns="http://www.w3.org/2000/svg"><path fill="#F0F3FA" d="M0 0h18v18H0z"/><path fill-rule="evenodd" d="M8.66 14c1.63-2.86 4.04-3.47 5.1-3.44l.08-.3c-1.4 0-4.49.79-6.16 3.57.31.1.64.15.98.17Zm-1.82-.48a9.04 9.04 0 0 1 7.07-3.58l.05-.32a9.9 9.9 0 0 0-7.87 3.46 5 5 0 0 0 .75.44ZM5.31 12.4A5 5 0 0 1 9 4a5 5 0 0 1 4.99 5.32c-3.93.06-6.05.78-8.68 3.07Zm8.33-1.51A5.01 5.01 0 0 1 9.38 14c.55-1.11 2.02-2.98 4.26-3.12ZM9 4.3c2.58 0 4.68 2.1 4.68 4.69-1.16 0-3.03.03-4.61.6a13.23 13.23 0 0 0-3.8 2.25A4.69 4.69 0 0 1 9 4.31Z" fill="#3E4094"/></svg>