<!-- by TradingView --><svg width="18" height="18" viewBox="0 0 18 18" xmlns="http://www.w3.org/2000/svg"><path fill="#3C546E" d="M0 0h18v18H0z"/><path d="M11.89 14H13l-.32-1.27-.95-.1c.07.5.12.96.16 1.37Zm-.17 0c-.04-.42-.09-.89-.16-1.4l-1.51-.16.03 1.56h1.64Zm-1.8 0c0-.5-.02-1.03-.04-1.58l-1.77-.2c-.1.7-.19 1.32-.29 1.78h2.1Zm-2.27 0c.1-.46.2-1.08.3-1.8l-2.42-.28L5 14h2.65Zm-2.08-2.22 2.39.27.14-1.3-2.16-.4-.37 1.43Zm.4-1.56 2.14.38.1-1.03-1.94-.5-.3 1.15Zm.33-1.28 1.92.48a113.85 113.85 0 0 0 .07-.87c-.63-.2-1.23-.38-1.75-.52l-.24.9Zm.28-1.06c.5.14 1.1.32 1.72.52l.04-.66-1.6-.53-.16.67Zm.2-.81c.45.14 1 .32 1.57.52L8.4 7c-.53-.2-1.04-.38-1.46-.49l-.14.57Zm.19-.71c.41.11.91.28 1.43.48l.02-.35-1.34-.56-.11.43Zm.15-.57 1.31.55.02-.3-1.26-.56-.07.3Zm.11-.45 1.23.54.02-.32-1.17-.53-.08.3Zm.12-.46c.3.13.7.31 1.13.52l.02-.28-1.07-.54-.08.3Zm.11-.45 1.05.53v-.12L7.5 4.32l-.03.11Zm.07-.26 1 .5v-.19L7.58 4l-.05.18Zm.09-.33.92.48V4.2l-.9-.46-.02.1Zm.06-.25.87.44v-.15l-.82-.47-.05.18Zm.09-.33.8.45v-.25L7.84 3l-.06.26Zm.97.3-.01.24.57.33-.02-.24-.54-.33Zm.72.44.02.23.52.29-.05-.22-.5-.3Zm.69.42.04.21.52.3-.04-.2-.52-.31Zm.61.7-.52-.3.02.09.52.27-.02-.06Zm.07.25-.53-.27.03.14.53.27-.03-.14Zm.08.33-.54-.27.05.2.54.28-.05-.2Zm.1.4-.55-.27.03.13.56.28L11 6.1Zm.08.34-.56-.29.07.3.58.33-.09-.34Zm.14.54-.6-.33.07.26.59.3-.06-.23Zm.1.42c-.17-.1-.38-.2-.6-.3l.05.22.6.26-.04-.18Zm.1.36-.61-.26.08.4.64.3-.11-.44Zm.15.62-.65-.3.1.49.67.27-.12-.46Zm.17.64-.68-.28.12.63.7.26-.14-.6Zm.2.78-.73-.26.12.68.76.19-.16-.61Zm.19.77-.77-.2.15.9.84.18-.22-.88Zm.26 1.04-.85-.2.16 1.07.93.1-.24-.97ZM8.7 4.1l.01-.14.6.34.01.13-.62-.32Zm.8.42L9.5 4.4l.54.3.03.1-.56-.28Zm.02.17.58.3.03.14-.6-.31-.01-.13Zm.02.3.63.33.05.21-.66-.33-.02-.2Zm.04.38.68.35.03.14-.7-.36-.01-.13Zm.02.3.73.38.07.3-.77-.4-.03-.27Zm.04.45.8.41.06.28-.83-.39-.03-.3Zm.04.47.86.4.04.24-.88-.37-.02-.27Zm.04.44.9.38.08.4c-.3-.15-.63-.29-.96-.43l-.02-.35Zm.04.52.98.43.1.5-1.04-.38-.04-.55Zm.05.7 1.06.4.13.65-1.15-.4-.04-.64Zm.05.81 1.17.4.13.7-1.25-.31-.05-.79Zm.06.94 1.26.32.16.9-1.37-.28-.05-.94Zm.06 1.1 1.38.27.17 1.08-1.5-.17L10 11.1Zm-.17-.04.06 1.2-1.76-.2.14-1.3 1.56.3Zm0-.15-1.54-.29.09-1.02 1.4.36.05.95Zm-.07-1.1-1.37-.36a109.1 109.1 0 0 0 .07-.86L9.7 9l.05.8Zm-.06-.97-1.23-.4.05-.65 1.04.37.1.03.04.65Zm-.08-.81-1.1-.4.04-.58a34.7 34.7 0 0 1 1.04.42l.04.56h-.02Zm-.3-.84-.75-.3.03-.34c.31.14.64.27.96.4l.03.36-.27-.12Zm.23-.4-.95-.4.02-.29.9.41.03.28Zm-.04-.45-.88-.4.02-.31.84.4.02.31Zm-.04-.48a53.4 53.4 0 0 0-.81-.4l.01-.27.78.4.02.27Zm-.04-.45-.75-.38v-.12l.74.37.01.13Zm-.02-.3-.72-.36.01-.2.69.36.02.2Zm-.04-.38L8.7 4.4v-.12l.65.33.01.13Z" fill="#fff"/></svg>