<!-- by TradingView --><svg width="18" height="18" viewBox="0 0 18 18" xmlns="http://www.w3.org/2000/svg"><path fill="#F0F3FA" d="M0 0h18v18H0z"/><path fill-rule="evenodd" d="M3 12V6h3.36c.76 0 1.15.74 1.24 1.11L7.5 8.5c.37.18.48 1.01.48 1.74 0 1.42-1.33 1.77-2 1.76H3Zm1.46-4.8H5.7c.3 0 .52.3.52.61 0 .32-.22.59-.52.59H4.46V7.2Zm1.11 2.1h-1.1v1.5h1.1c.36 0 .65-.37.65-.75s-.29-.75-.65-.75Z" fill="url(#ayjjr4giw)"/><path fill-rule="evenodd" d="m7.43 8.7.17-1.59C7.5 6.74 7.12 6 6.36 6H3v6h2.99C6.65 12 8 11.66 8 10.24c0-1.09-.2-1.35-.57-1.54Zm-4.28 3.15h2.84c.94 0 1.8-.6 1.8-1.61 0-.66-.12-1.25-.43-1.4l-.1-.06.2-1.67c-.06-.16-.17-.4-.34-.6a1 1 0 0 0-.76-.36H3.15v5.7Zm1.17-4.8H5.7c.4 0 .67.38.67.76 0 .39-.27.74-.67.74H4.32v-1.5Zm0 2.1h1.25c.23 0 .43.12.57.29.14.16.23.38.23.61 0 .23-.09.45-.23.61a.75.75 0 0 1-.57.29H4.32v-1.8Zm.14-1.95H5.7c.3 0 .52.3.52.61 0 .32-.22.59-.52.59H4.46V7.2Zm1.11 2.1c.36 0 .65.37.65.75s-.29.75-.65.75h-1.1V9.3h1.1Z"/><path d="M11 6v6h1.39v-1.77h.83L14.3 12H16l-1.31-2.27c.45-.37.77-.94.77-1.69 0-1.55-1.24-2-1.86-2.04H11Zm1.39 1.5h.83c.44 0 .84.27.84.75s-.4.75-.84.75h-.83V7.5Z" fill="#030303"/><path d="m10.87 7.29-.94.51c-.11-.28-.6-.75-.99-.75-.4 0-.74.24-.74.6s.58.53 1.22.7c1.43.3 1.58 1.28 1.58 1.8 0 .53-.32 1.85-2.06 1.85-1.39 0-1.87-.86-1.94-1.29l.86-.36c.35.36.7.64 1.08.64.38 0 .73-.24.73-.64s-.5-.72-1.18-.8A1.73 1.73 0 0 1 7 7.77C7 7.34 7.35 6 8.94 6c1.27 0 1.82.86 1.93 1.29Z" fill="url(#byjjr4giw)"/><path d="M9.4 8.49a5.16 5.16 0 0 1-.88-.28A1.02 1.02 0 0 1 8.2 8a.5.5 0 0 1-.14-.35.7.7 0 0 1 .28-.56.98.98 0 0 1 .6-.19c.23 0 .48.14.67.3.15.12.28.27.36.4l.72-.39c-.16-.4-.66-1.06-1.76-1.06-.76 0-1.2.32-1.46.67-.27.36-.35.77-.35.96 0 .2.04.54.23.86.18.31.52.62 1.15.76.35.04.66.15.89.3.23.15.4.38.4.65 0 .25-.11.46-.27.6a.92.92 0 0 1-.59.2c-.4 0-.77-.29-1.1-.63l-.68.29c.12.38.58 1.04 1.78 1.04.84 0 1.31-.32 1.58-.67a1.8 1.8 0 0 0 .12-1.93c-.2-.3-.55-.61-1.24-.76ZM7 10.7l.86-.36c.35.36.7.64 1.08.64.38 0 .73-.24.73-.64s-.5-.72-1.18-.8A1.73 1.73 0 0 1 7 7.77C7 7.34 7.35 6 8.94 6c1.27 0 1.82.86 1.93 1.29l-.94.51v-.02c-.13-.28-.6-.73-.99-.73-.4 0-.74.24-.74.6s.58.53 1.22.7c1.43.3 1.58 1.28 1.58 1.8 0 .53-.32 1.85-2.06 1.85-1.39 0-1.87-.86-1.94-1.29Z"/><defs><linearGradient id="ayjjr4giw" x1="2.68" y1="9.45" x2="8.17" y2="9.45" gradientUnits="userSpaceOnUse"><stop stop-color="#459A59"/><stop offset="1" stop-color="#2F6D3B"/></linearGradient><linearGradient id="byjjr4giw" x1="6.99" y1="6.96" x2="10.88" y2="11.07" gradientUnits="userSpaceOnUse"><stop offset=".09" stop-color="#FFFDFF"/><stop offset="1" stop-color="#C8B4B2"/></linearGradient></defs></svg>