<!-- by TradingView --><svg width="18" height="18" viewBox="0 0 18 18" xmlns="http://www.w3.org/2000/svg"><path fill="#F0F3FA" d="M0 0h18v18H0z"/><path fill-rule="evenodd" d="M10 4h4v4.5h-2v1.88H7.75V13H4V8.63h2v-2h4V4Zm3.67 4.13H12v-1.5h-1.67V4.37h3.34v3.75ZM11.68 7h-1.35v1.13h1.35V7ZM10 8.5V7H6.32v1.63h1.43V10h3.93V8.5H10ZM4.31 9H6v1.38h1.44v2.26H4.3V8.99Zm2 1h1.13V9H6.32v1ZM8 11h3.75v2H8v-2Zm.31.33h3.13v1.34H8.3v-1.34Z" fill="url(#a)"/><defs><linearGradient id="a" x1="5.18" y1="5.83" x2="12.25" y2="12.25" gradientUnits="userSpaceOnUse"><stop stop-color="#41A5D0"/><stop offset="1" stop-color="#2C7CA1"/></linearGradient></defs></svg>