<!-- by TradingView --><svg width="18" height="18" viewBox="0 0 18 18" xmlns="http://www.w3.org/2000/svg"><path fill="#F0F3FA" d="M0 0h18v18H0z"/><path fill-rule="evenodd" d="M14 5H4v8h10V5Zm-.31.3H4.3v7.4h9.38V5.3Z" fill="#E00519"/><path d="M11.29 6H13v4.45c0 .86-.77 1.55-1.71 1.55V6ZM6.71 6H5v4.45c0 .86.77 1.55 1.71 1.55V6Z" fill="#E00519"/><path d="M9.57 7.5C9.57 8.33 8.87 9 8 9c-.87 0-1.57-.67-1.57-1.5S7.13 6 8 6c.87 0 1.57.67 1.57 1.5Z" fill="#E00519"/><path d="M9.5 10.5a1.5 1.5 0 1 1-3 0 1.5 1.5 0 0 1 3 0Z" fill="#E00519"/><path fill="#E00519" d="M6.43 11.73h3.43V12H6.43zM10.71 11.73h.57V12h-.57z"/><path d="M10.37 6.55c-.2 0-.37.15-.37.35V12h-.29V6.99c0-.4.27-.72.66-.72.4 0 .63.32.63.72V12h-.29V6.9c0-.2-.15-.35-.34-.35Z" fill="#E00519"/></svg>