<!-- by TradingView --><svg width="18" height="18" viewBox="0 0 18 18" xmlns="http://www.w3.org/2000/svg"><path fill="#F0F3FA" d="M0 0h18v18H0z"/><path d="M5.8 4h3.25c-.68.45-2.04 1.75-2.04 3.34 0 1.98 1.45 1.98 1.92 1.98s2.02.06 2.02-1.98c0-1.64-1.26-2-1.9-1.98.1-.17.6-.5 1.9-.5a2.78 2.78 0 0 1 2.72 2.65c0 1.19-.68 2.92-1.9 2.92-1.21 0-1.7-.8-2.84-.8-1.13 0-1.94.8-2.66.8-.72 0-1.92-.48-1.92-2.92 0-1.96.97-3.16 1.45-3.51Z" fill="#FDB610"/><path d="M4 13V9.79c.23.43.98 1.3 2.14 1.3 1.46 0 1.7-.9 2.83-.9 1.12 0 1.43.9 2.84.9 1.13 0 1.93-.87 2.19-1.3V13H4Z" fill="#E82328"/></svg>