<!-- by TradingView --><svg width="18" height="18" viewBox="0 0 18 18" xmlns="http://www.w3.org/2000/svg"><path fill="#F0F3FA" d="M0 0h18v18H0z"/><path d="m7.4 5.42-.39-.22L4.2 9.94a1.4 1.4 0 0 0 .53 1.93l3.45 1.94c.7.4 1.58.16 1.98-.52l2.82-4.74-.39-.22-2.81 4.74c-.3.49-.94.66-1.45.37l-3.35-1.88c-.5-.28-.68-.91-.39-1.4l2.82-4.74ZM10.38 6.76l.22.12.92-1.55a.46.46 0 0 0-.17-.63l-1.13-.64a.48.48 0 0 0-.65.17l-.92 1.55.22.13.86-1.46c.1-.16.29-.22.44-.13l.98.55c.14.08.19.27.1.43l-.87 1.46Z" fill="#00A0E2"/><path d="m11.8 7.55.21.12.93-1.55a.46.46 0 0 0-.18-.63l-1.13-.63a.48.48 0 0 0-.65.17l-.92 1.55.22.12.84-1.42c.1-.18.31-.25.46-.17l.98.55c.15.08.18.3.08.47l-.84 1.42Z" fill="#868476"/></svg>