<!-- by TradingView --><svg width="18" height="18" viewBox="0 0 18 18" xmlns="http://www.w3.org/2000/svg"><path fill="#333" d="M0 0h18v18H0z"/><path d="M9 15h-.01c-.7 0-1.38-.1-2.02-.29a3.44 3.44 0 0 1-1.7-1.26A8.63 8.63 0 0 1 4 9a8.63 8.63 0 0 1 1.26-4.45 3.43 3.43 0 0 1 1.71-1.27 7.25 7.25 0 0 1 4.06 0c.68.23 1.32.7 1.71 1.27A8.64 8.64 0 0 1 14 9a8.63 8.63 0 0 1-1.26 4.45 3.48 3.48 0 0 1-1.73 1.26c-.65.2-1.32.29-2 .29H9Zm4.48-6a9.27 9.27 0 0 0-.66-3.67 3.1 3.1 0 0 0-2.13-1.84 7.05 7.05 0 0 0-3.38 0 3.1 3.1 0 0 0-2.13 1.84c-.4.85-.7 2.34-.68 3.67a9.27 9.27 0 0 0 .66 3.67 3.1 3.1 0 0 0 2.13 1.84 7.04 7.04 0 0 0 3.38 0 3.1 3.1 0 0 0 2.14-1.84c.4-.86.7-2.34.67-3.67Zm-3.8-2.73-.07-.14.08.14Z" fill="#fff"/><path d="M11.46 5.63c-.2-.43-.58-.74-1.05-.87a5.63 5.63 0 0 0-1.4-.18h-.02c-.48 0-.96.06-1.4.18-.47.13-.86.44-1.05.87-.42.87-.7 2.13-.7 3.37 0 1.24.28 2.5.7 3.37.2.43.58.74 1.05.87.46.12.93.18 1.4.18h.02c.48 0 .96-.07 1.4-.18a1.6 1.6 0 0 0 1.05-.87c.42-.88.7-2.13.7-3.37 0-1.24-.28-2.5-.7-3.37Zm-.81 2.5c.01 0 .07 0 .07-.04V7.3l.33-.09v.47l.18-.02v.62l-.2.03-.07.25h-.71l-.1-.23-.36-.02c.16-.2.33-.4.44-.63v-.32l.32-.04v.75c0 .03.04.06.08.06h.02Zm-.42-2.86c.08-.03.19-.02.26.04.09.06.11.17.1.27-.07.22-.32.26-.52.31l-.12-.15c.04-.18.07-.4.28-.47Zm-.62.86.08.14-.2.21-.12-.1c.1-.11.11-.13.24-.25Zm-2.53-.3c.04.1.1.18.21.23-.01-.06-.06-.1-.08-.16-.04-.11-.04-.27.04-.37.05-.08.13-.11.21-.14-.03.1-.04.2 0 .3l.1-.08.04-.03c.08.16.17.38.11.57l-.03.08c-.01-.13-.03-.2-.13-.24 0 .07.04.13.06.23.03.16 0 .31-.1.4h-.26c-.2-.2-.2-.5-.17-.78Zm.6 1.04h-.14l-.06.47a.55.55 0 0 0-.2-.1l-.06-.37H7.1v-.14h.59v.14Zm-1 1.9h1.6v.44h-1.6v-.45Zm.6-.9c.07-.02.14.02.19.06l-.01.53H7.3V8.4l-.02-.54Zm-.1 3.14-.1-.01a.36.36 0 0 1-.23-.14v-.02l-.02-.03-.01-.03v-.87c-.01-.1-.05-.11-.14-.17l.03-.01.35-.12c.05.06.06.12.06.2v.64c0 .05.04.07.1.07.05 0 .07-.02.08-.07v-.63c0-.1.09-.18.17-.2.1-.05.21-.03.3.01.15.07.15.37.14.6a.34.34 0 0 0-.13-.05.2.2 0 0 0-.15.03c-.05.04-.06.08-.06.16 0 .28.03.47-.11.57a.44.44 0 0 1-.27.07Zm.47.9c-.07-.05-.1-.1-.12-.16-.06-.28.3-.38.38-.62.06-.39.08-.8.36-1.1.03-.59.23-1.1.65-1.51-.02-.13-.08-.25-.12-.37a.2.2 0 0 1-.14-.05.3.3 0 0 1-.06-.15c-.15.18-.33.37-.53.5-.04.01-.09-.03-.15-.09-.25-.19-.3-.61-.67-.6-.17-.05-.16-.25-.2-.4.07-.04.18-.04.25 0 .24.11.4.37.62.54.06.05.1.1.16.13.15-.12.27-.23.36-.41.07-.1.19-.15.31-.16l.1-.1-.05-.25c-.1-.11-.17-.23-.23-.36.03-.15.05-.32.2-.4.1-.06.18.08.26 0 .06-.02.12 0 .16.03.06.1.13.2.14.33-.04.12-.1.23-.16.34-.01.02-.05.03-.07.05.02.04.03.1.06.14.05 0 .1.02.15 0 .04-.12.18-.18.3-.21l.27-.17c-.05-.2.08-.36.01-.55-.15-.07-.2-.23-.22-.36a.64.64 0 0 1 .12-.24v.01c.15.16.28.33.33.53.03.26.05.52.03.79-.14.13-.3.21-.47.31l-.12.23c-.01.22-.08.43-.12.65.1.27.22.62.13.87-.06.15-.2.23-.31.31l-.27.21c.27.29.2.61.21 1.03 0 .1.19.18.09.3-.09.13-.22.23-.2.4-.08.13-.27.16-.37.16a.03.03 0 0 1-.02 0 .03.03 0 0 1-.01-.03c.02-.07.07-.12.1-.19.1-.14.05-.34.17-.47-.1-.3-.24-.6-.29-.93v-.02c-.08.15-.03.3 0 .42-.26.33-.54.64-.54 1.06-.12.2-.28.37-.36.58-.03.03-.09 0-.12-.02Zm1.76-1.02c.16 0 .31.13.37.27.07.15.04.33-.05.45a.5.5 0 0 1-.48.18.49.49 0 0 1-.31-.2c.1-.04.24-.1.27-.19-.01-.14.1-.26.17-.37.04-.05.04-.08.03-.14Zm.15-.13V9.45h.46v1.31h-.46Zm-.99 2a.49.49 0 0 1-.47.04.49.49 0 0 1-.2-.19c-.03-.07-.05-.09-.05-.16h.9a.4.4 0 0 1-.18.32Zm.62.04h-.31v-.54h-.49v-.22h.5l.14-.17.16.17h.5v.22h-.5v.54Zm.98-.19a.49.49 0 0 1-.2.19.49.49 0 0 1-.47-.03.4.4 0 0 1-.19-.32h.9c0 .07 0 .1-.04.16Zm.35-2.7.58.55c.07.08.13.18.08.28a.8.8 0 0 1-.08.14c0-.1-.04-.15-.1-.2-.25-.25-.7-.58-.73-.72-.04-.1-.03-.22-.03-.33l.22-.17c0 .17-.03.34.06.45Zm.43-.45.24.2c.05.23-.08.35-.19.51l-.41-.38v-.22l.12-.12.12.13v.38c.16-.08.12-.3.12-.5Zm-.1 2-.12.13-.11-.14v-.37c-.17.08-.13.3-.13.5a4.01 4.01 0 0 1-.24-.21c-.05-.22.09-.35.2-.5l.4.37v.22Zm.35-.06-.22.17c0-.17.03-.34-.05-.44a162 162 0 0 0-.59-.56c-.07-.07-.12-.18-.08-.27.02-.05.05-.1.09-.14 0 .1.04.15.1.2.25.24.69.58.72.72.04.1.03.21.03.32Zm.1-2.19H9.7v-.45h1.59v.45Z" fill="#fff"/></svg>