<!-- by TradingView --><svg width="18" height="18" viewBox="0 0 18 18" xmlns="http://www.w3.org/2000/svg"><path fill="url(#abhlqbysh)" d="M0 0h18v18H0z"/><path d="M12.06 6.17c-.88 0-1.32.83-1.32 2.48v.66c0 .79.12 1.4.35 1.86.23.44.58.66 1.03.66.63 0 1.2-.64 1.73-1.83H14v2h-.15c-.04-.06-.07-.2-.1-.22-.03-.02-.07-.04-.13-.04-.05 0-.25.05-.61.14-.36.08-.72.12-1.1.12a3 3 0 0 1-2.15-.73c-.5-.49-.76-1.22-.76-2.2 0-.98.26-1.74.8-2.27.53-.53 1.24-.8 2.14-.8.35 0 .69.04 1.02.13.33.09.6.13.65.13.05 0 .1-.01.13-.04a.6.6 0 0 0 .09-.13H14V8h-.16a5.68 5.68 0 0 0-.86-1.38 1.2 1.2 0 0 0-.92-.45ZM4 6h2.44c.76 0 1.33.1 1.7.33.38.2.57.57.57 1.08 0 .78-.45 1.25-1.34 1.4v.02C8.46 8.97 9 9.47 9 10.32c0 .62-.22 1.06-.67 1.31-.45.25-1.09.37-1.93.37H4v-.16h.53V6.16H4V6Zm2 2.97v2.87h.5c.3 0 .52-.11.64-.33.12-.22.18-.54.18-.96v-.45c0-.38-.08-.66-.22-.85-.15-.19-.41-.28-.79-.28H6Zm0-2.8V8.8h.34c.28 0 .48-.09.58-.26.12-.19.18-.46.18-.83v-.4c0-.43-.05-.72-.15-.89-.1-.17-.29-.26-.56-.26H6Z" fill="#F0F3FA"/><defs><linearGradient id="abhlqbysh" x1="3.35" y1="3.12" x2="21.9" y2="24.43" gradientUnits="userSpaceOnUse"><stop stop-color="#1A1E21"/><stop offset="1" stop-color="#06060A"/></linearGradient></defs></svg>