<!-- by TradingView --><svg width="18" height="18" viewBox="0 0 18 18" xmlns="http://www.w3.org/2000/svg"><path fill="#F0F3FA" d="M0 0h18v18H0z"/><path d="M8.8 14.92a10.5 10.5 0 0 1-3.78-4.82A14 14 0 0 1 4 5.24c0-.17.1-.26.29-.26 1.62 0 3.17-.33 4.65-.97.07-.03.15.01.23.04.56.25 1.14.45 1.74.6a11.92 11.92 0 0 0 2.81.34c.16 0 .28.06.28.22a14.67 14.67 0 0 1-.9 4.6c-.36.94-.84 1.84-1.43 2.68a9.82 9.82 0 0 1-2.5 2.45c-.13.1-.24.07-.38-.02Z" fill="url(#adtfkm3gh)"/><path d="M9.02 4.49a11.72 11.72 0 0 0 4.49.95c0 .1 0 .23-.02.37a13.28 13.28 0 0 1-2.04 6.17A9.55 9.55 0 0 1 9 14.5h-.03l-.29-.22a9.79 9.79 0 0 1-2.47-2.84 13.6 13.6 0 0 1-1.7-6c.22 0 .45-.02.69-.04a11.87 11.87 0 0 0 3.82-.9Z"/><path d="M7.26 7.52c.27.6.88.73 1.51.67h.01v.01a.01.01 0 0 1 0 .02c-.1.12-.1.25 0 .38v.03h-.01c-.9-.01-2.1-.1-2.3-1.14-.1-.46-.16-.91-.56-1.23-.2-.16-.45-.25-.72-.24-.08 0-.1-.02-.02-.07.5-.34 1.12-.1 1.46.31l.02.02h.03c.33-.13.72-.2 1.04-.05a.78.78 0 0 1 .42.59.02.02 0 0 1-.02 0 .84.84 0 0 0-.2-.17c-.25-.14-.58-.1-.71.16-.12.22-.06.48.05.71ZM10.74 7.54c.12-.25.19-.6-.01-.82-.24-.27-.63-.13-.84.1h-.02l-.01-.02v-.05c.22-.68.85-.7 1.45-.48a.05.05 0 0 0 .06-.01c.36-.4 1-.67 1.5-.29V6l-.01.01c-.94.09-1.14.6-1.3 1.35l-.1.4c-.36.81-1.43.86-2.23.88h-.01v-.01c.07-.15.14-.27-.01-.4V8.2h.01c.63.04 1.24-.07 1.52-.66Z" fill="#5091CC"/><path d="M9.75 7.8c.13.05.25.12.36.2.02.01.01.02 0 .03l-.2.05a.05.05 0 0 1-.05 0l-.2-.15-.03-.01H9.6c-.4.29-.8.29-1.2 0a.04.04 0 0 0-.06 0l-.19.14a.1.1 0 0 1-.08.01l-.16-.04c-.03 0-.03-.02-.01-.04.1-.07.21-.13.33-.18.02 0 .03-.02.02-.04-.26-.4-.2-.87.2-1.16a1 1 0 0 1 1.15.03c.36.3.4.76.14 1.14a.02.02 0 0 0 0 .02h.01ZM7.6 8.85c-.17.08-.32.12-.48.25h-.03l-.1-.04a.02.02 0 0 1 0-.02 2.64 2.64 0 0 1 .36-.5l.34.09a.02.02 0 0 1 0 .01l-.06.19-.02.02ZM10.84 9.12c-.05-.16-.31-.21-.45-.27a.04.04 0 0 1-.02-.02l-.06-.17a.03.03 0 0 1 0-.02v-.01h.01l.34-.1.02.01a2.97 2.97 0 0 1 .34.51l-.02.02-.12.07c-.02.01-.04 0-.04-.02ZM9.47 8.7a3.2 3.2 0 0 1 1.15.3v.01a2 2 0 0 1-.6.25 4 4 0 0 1-2.19-.07l-.5-.14-.01-.02v-.01a3.25 3.25 0 0 1 1.46-.31c0 .23-.06.45.2.6a.03.03 0 0 0 .04 0c.25-.14.2-.36.2-.6l.01-.02h.24Z" fill="#5091CC"/><path d="M8.2 9.34c.7.13 1.4.1 2.08-.1.15-.04.3-.1.44-.18l.03.01.03.09v.01l-.02.01a4.45 4.45 0 0 1-3.6-.04v-.02l.07-.05a.07.07 0 0 1 .07 0c.37.14.67.23.9.27ZM6.86 9.28a.5.5 0 0 1 .08-.17h.02l.14.08.01.01v.02l-.05.4v.01h-.01a2.07 2.07 0 0 0-.14-.23.2.2 0 0 1-.05-.12ZM10.9 9.2l.16-.1a.01.01 0 0 1 .01 0l.08.2-.19.31a.01.01 0 0 1-.01 0l-.06-.4a.01.01 0 0 1 0-.01Z" fill="#5091CC"/><path d="M7.58 9.86c.13-.25-.12-.44-.33-.55v-.02a4.27 4.27 0 0 0 3.48.01v.01a.78.78 0 0 0-.34.37c-.02.05 0 .1.03.17v.02c-.46-.05-1 .03-1.23.45l-.02.01c-.12-.02-.16-.08-.29 0h-.05l-.01-.02c-.25-.39-.77-.52-1.23-.44h-.01Z" fill="#5091CC"/><path d="M10.58 10c-.06-.1-.15-.22-.11-.35.04-.12.22-.23.33-.28a.03.03 0 0 1 .03 0h.01v.02c.07.41.02.83-.02 1.26a1.94 1.94 0 0 0-.24-.65ZM7.47 9.91a1.85 1.85 0 0 0-.28.76h-.01a5.19 5.19 0 0 1-.03-1.28c0-.03.02-.03.04-.02.14.05.37.2.36.36 0 .04-.03.1-.08.18ZM7.63 10.33l-.24-.01v-.02c.24.01.27-.14.45-.22.31-.14.49.16.68.3l.02.03v.02l-.02.02H8.5l-.29.05c-.19.04-.45.02-.55-.16l-.01-.01h-.02ZM10.43 10.27c.05.02.11.03.17.03v.01l-.22.02c-.01 0-.02 0-.03.02a.5.5 0 0 1-.3.16.96.96 0 0 1-.27-.02 3.81 3.81 0 0 0-.31-.04l-.01-.02v-.03l.02-.01a.23.23 0 0 0 .08-.07c.1-.14.28-.28.46-.27.15 0 .29.11.38.2 0 .02.01.02.03.02ZM9.16 10.47a.27.27 0 0 1 .19-.08c.02 0 .03 0 .04.03l.02.03c.01.03 0 .04-.02.03-.28-.02-.27.32-.17.46v.03c-.02.14-.11.2-.27.18-.1-.02-.16-.07-.17-.18v-.02a.33.33 0 0 0 .06-.28c-.03-.13-.1-.2-.21-.18-.03 0-.04-.01-.04-.04v-.01l.02-.03.03-.01c.1-.02.15.03.22.07l.03-.01.02-.1c0-.02.01-.02.02-.03a.13.13 0 0 1 .13-.01l.07.14c0 .02.02.02.03 0ZM7.96 10.7c.21.02.34-.1.51-.15a.03.03 0 0 1 .03 0v.04l-.89.63a.03.03 0 0 1-.02 0 .65.65 0 0 1-.2-.12c-.04-.04-.02-.08-.01-.13.04-.13.17-.34.34-.36.1 0 .14.07.24.08ZM10.04 10.7c.1-.01.16-.1.28-.08.16.04.3.29.33.42v.03l-.02.02c-.06.05-.23.16-.3.1a6.64 6.64 0 0 0-.57-.41c-.1-.06-.17-.13-.26-.2v-.02l.01-.01h.02c.1.03.18.1.26.12.08.02.16.03.25.02ZM10.15 12.48c.11-.38.24-.91-.1-1.22-.1-.08-.24-.15-.36-.24-.09-.06-.14-.16-.23-.24-.02-.01-.03-.03-.01-.05l.02-.04c.01-.02.03-.03.05 0 .12.1.23.2.38.3.15.09.44.26.47.41.08.38.03.73-.13 1.05-.01.02-.04.04-.07.05a.01.01 0 0 1-.02-.01ZM7.95 11.26c-.33.29-.2.88-.1 1.23v.01h-.02c-.25-.2-.23-.68-.22-.95 0-.23.14-.36.34-.47.19-.1.36-.23.5-.38l.06-.02c.02 0 .04.02.05.05 0 .03 0 .06-.03.07a.22.22 0 0 0-.09.07c-.13.2-.34.26-.5.4Z" fill="#5091CC"/><path d="M8.6 11.24v.05c-.21-.02-.15-.36-.02-.37.1-.01.12.09.15.15.06.1.26.16.2.29l-.06.03h-.01v-.02a.02.02 0 0 1 0-.02l.02-.04a.02.02 0 0 0 0-.03.26.26 0 0 0-.25-.06H8.6v.02ZM9.38 11.22c-.08-.03-.35 0-.23.14a.01.01 0 0 1 0 .02c-.1 0-.13-.12-.04-.17a.4.4 0 0 0 .2-.23l.03-.04.04-.02c.18-.04.16.2.14.32l-.02.02-.09.04H9.4v-.07h-.02ZM7.55 11.98l-.02.01H7.5v-.02a4.2 4.2 0 0 1-.18-.75l.23.13.01.02c-.03.2-.04.4-.02.61ZM10.43 11.36l.24-.14c-.02.23-.07.46-.15.69-.05.14-.07.13-.06-.02a2.08 2.08 0 0 0-.03-.53ZM9.78 11.76c.03.06.04.11.05.16 0 .01 0 .02-.02.03a.18.18 0 0 1-.1.01 4.43 4.43 0 0 0-1.43 0c-.04.01-.08 0-.11-.02h-.01v-.02c0-.15.08-.3.27-.28.38.06.75.06 1.13 0 .1-.01.17.03.22.12ZM8.8 12.18c.25-.03.58 0 .75.2v.03a.36.36 0 0 1-.16.1 1.12 1.12 0 0 1-.92-.07l-.01-.03a.06.06 0 0 1 .01-.05c.08-.1.2-.16.34-.18Z" fill="#5091CC"/><defs><linearGradient id="adtfkm3gh" x1="4" y1="4.82" x2="9.46" y2="14.48" gradientUnits="userSpaceOnUse"><stop stop-color="#808185"/><stop offset=".28" stop-color="#E4E5E7"/><stop offset=".48" stop-color="#828387"/><stop offset=".75" stop-color="#E3E4E6"/><stop offset="1" stop-color="#848589"/></linearGradient></defs></svg>