<!-- by TradingView --><svg width="18" height="18" viewBox="0 0 18 18" xmlns="http://www.w3.org/2000/svg"><path fill="#F0F3FA" d="M0 0h18v18H0z"/><ellipse cx="8.82" cy="8.96" rx="4.09" ry="3.79" fill="url(#a)"/><ellipse cx="7.94" cy="7.49" rx="2.24" ry="2.1" fill="#2268AD"/><ellipse cx="7.94" cy="7.49" rx="1.54" ry="1.44" fill="#5885BE"/><ellipse cx="7.83" cy="7.32" rx=".82" ry=".77" fill="#7E9ECD"/><path d="M5.25 8.98c0-2.9 2.63-3.72 4.21-3.76V5C7.5 4.95 3.7 5.64 3.7 8.8s3.49 4.07 5.52 4.15l.3-.26c-.55 0-4.26-.09-4.26-3.72Z" fill="url(#b)"/><path d="M4.15 9.02c0 2.9 3.18 3.72 4.76 3.77v.2C6.94 13.06 3 12.37 3 9.2 3 6.03 6.83 5 9.1 5v.2c-.56 0-4.95.19-4.95 3.82Z" fill="url(#c)"/><path d="M14 7.12C14 5.52 10.81 5 9.09 5l-.12.2c1.33 0 3.08.85 3.08 1.92 0 .86-1.68 1.55-2.51 1.8v.22c.83.18 2.5.8 2.5 1.82 0 1.04-2.18 1.66-3.27 1.85v.18c3.25 0 5.23-.62 5.23-1.84 0-.99-1.87-1.75-2.8-2 .93-.27 2.8-1.06 2.8-2.03Z" fill="url(#d)"/><defs><linearGradient id="a" x1="6.06" y1="6.48" x2="10.2" y2="12.12" gradientUnits="userSpaceOnUse"><stop stop-color="#497BB8"/><stop offset="1" stop-color="#182B53"/></linearGradient><linearGradient id="b" x1="7.15" y1="13" x2="7.15" y2="5" gradientUnits="userSpaceOnUse"><stop offset=".19" stop-color="#E8E7E5"/><stop offset=".4" stop-color="#B7B3B2"/><stop offset=".75" stop-color="#384148"/></linearGradient><linearGradient id="c" x1="6.05" y1="5" x2="6.05" y2="13" gradientUnits="userSpaceOnUse"><stop offset=".19" stop-color="#E8E7E5"/><stop offset=".4" stop-color="#B7B3B2"/><stop offset=".75" stop-color="#384148"/></linearGradient><linearGradient id="d" x1="11.38" y1="5.02" x2="11.38" y2="12.99" gradientUnits="userSpaceOnUse"><stop stop-color="#E8E7E5"/><stop offset=".12" stop-color="#384150"/><stop offset=".36" stop-color="#C3BFBE"/><stop offset=".57" stop-color="#2C3437"/><stop offset=".89" stop-color="#CDC9C8"/><stop offset="1" stop-color="#384148"/></linearGradient></defs></svg>