<!-- by TradingView --><svg width="18" height="18" viewBox="0 0 18 18" xmlns="http://www.w3.org/2000/svg"><path fill="#F0F3FA" d="M0 0h18v18H0z"/><path d="M4.24 8.21a.08.08 0 0 1-.09 0c-.03-.03-.04-.06-.03-.1l.68-2.98c.01-.06.05-.1.1-.12 1.44-.41 2.83-.74 4.16-.98.44-.08.84 0 1.2.26.18.12.28.31.28.58v1.48c0 .1-.06.14-.15.13-.78-.06-1.53 0-2.27.2-1.33.37-2.62.88-3.88 1.53Z" fill="#FB5B02"/><path d="m10.82 4.7-.07-.12c-.15-.31-.08-.39.22-.23.94.5 1.8 1.12 2.55 1.89.48.48.6.96.36 1.43-.21.4-.62.71-1.22.94-.74.27-1.52.5-2.34.66a.1.1 0 0 1-.1-.03.1.1 0 0 1-.02-.1l.5-1.76c.16-.56.21-1.4.17-2.53 0-.05-.02-.1-.05-.14ZM4 10.36v-.34c.24-.53.67-.86 1.3-1.01.87-.21 1.77-.34 2.68-.4.05 0 .1.03.12.07.03.05.03.1 0 .14-.39.81-.74 1.65-1.05 2.51-.26.73-.3 1.45-.14 2.15.04.15 0 .18-.13.1a9.1 9.1 0 0 1-1.91-1.75A4.1 4.1 0 0 1 4 10.36Z" fill="#FEBB06"/><path d="M8.07 11.58A16.7 16.7 0 0 0 13.5 9.8a.07.07 0 0 1 .08 0c.02.03.03.05.03.08l-.62 2.8a.37.37 0 0 1-.27.3 45.4 45.4 0 0 1-3.7.95c-.41.08-.77.08-1.07 0-.42-.1-.65-.34-.7-.73a8.9 8.9 0 0 1-.03-1.5c0-.15.08-.21.23-.18.23.06.43.07.62.05Z" fill="#FB5B02"/></svg>