<!-- by TradingView --><svg width="18" height="18" viewBox="0 0 18 18" xmlns="http://www.w3.org/2000/svg"><path fill="#F0F3FA" d="M0 0h18v18H0z"/><path d="m7.33 6.86-.7-1.11h-.02c-.01 0-.02 0-.01.02l.6 1.17.37.77c.02.03.01.05-.01.06-.28.19-.5.42-.68.7-.02.02-.04.02-.06.01l-.48-.22-1.12-.6v.01l-.02.02v.02l1.05.68.03.03.41.28c.03.02.03.04.02.06-.15.3-.24.63-.26.98 0 .03-.01.04-.04.05l-.6.01c-.03 0-.05.02-.06.04l-.01-.02h-.02l-.67.03h-.01v.03l.02.02.68.03.67.05c.02 0 .04.02.04.04.03.34.13.65.28.95.01.02 0 .05-.01.07a.15.15 0 0 1-.05.03l-.74.5v.02a.01.01 0 0 0 0 .01h.01l.73-.39.13-.04c.03 0 .05 0 .06.03.2.3.44.55.74.75.02.01.03.03.03.06 0 .04-.02.08-.05.12l-.25.5v.02h.04l.31-.5a.23.23 0 0 1 .08-.07.07.07 0 0 1 .06 0c.32.16.65.25 1 .28.04 0 .06 0 .07.02.02.01.03.04.03.07l.04.55a.01.01 0 0 0 .02.02V13l.03-.55c0-.03 0-.05.02-.07l.06-.02a2.48 2.48 0 0 0 1.65-.75h.04c.1.02.22.02.33 0h.04l.03.04a2.92 2.92 0 0 1-1.84 1.08c.15.01.3 0 .46-.06a2.98 2.98 0 0 0 1.45-.99l.22-.28a.18.18 0 0 1 .14-.08h.69c.06 0 .07.03.03.08a4.16 4.16 0 0 1-4.77 1.51 4.08 4.08 0 0 1-2.32-2.12 3.9 3.9 0 0 1-.35-1.03 4.24 4.24 0 0 1 1.67-4.14 4.24 4.24 0 0 1 2.5-.85h3.43c.06 0 .1-.03.12-.09l.17-.44c.02-.05 0-.08-.06-.08h-3.2a4.88 4.88 0 0 0-5.04 6.56 4.88 4.88 0 0 0 2.54 2.7 4.7 4.7 0 0 0 4.84-.59h.05l.08.07c.03.02.03.04 0 .07a4.93 4.93 0 0 1-7.64-2.13 4.57 4.57 0 0 1-.34-1.53 5.13 5.13 0 0 1 1.24-3.63 4.88 4.88 0 0 1 3.51-1.67h4.2C13 4 13 4 13 4.03a4.16 4.16 0 0 1-3.04 3.17c-.45.12-1.08.12-1.47.17-.16.02-.37.09-.63.21-.02.01-.04 0-.05-.01l-.48-.72Zm3.1-1.2a.22.22 0 0 0-.07-.15.21.21 0 0 0-.35.07.22.22 0 0 0 .11.29.21.21 0 0 0 .24-.05c.04-.04.06-.1.06-.15Z" fill="#FF1C00"/><path d="M8.95 11.47a1.63 1.63 0 1 0 .02-3.26 1.63 1.63 0 0 0-.02 3.26Z" fill="#FFCF00"/></svg>