<!-- by TradingView --><svg width="18" height="18" viewBox="0 0 18 18" xmlns="http://www.w3.org/2000/svg"><path fill="#F0F3FA" d="M0 0h18v18H0z"/><path fill-rule="evenodd" d="M13 9a4 4 0 0 1-7.07 2.56C4.22 11.61 3 11.46 3 11c0-.14.24-.45 1.21-.57-.11.03-.26.14-.26.43 0 .22.47.4 1.78.45a3.98 3.98 0 0 1-.56-3.45C3.87 7.84 3 7.68 3 7.29c0-.14.24-.45 1.21-.57-.11.03-.26.13-.26.43 0 .2.35.35 1.31.42a4 4 0 0 1 7.71.98c.7-.21 1.08-.4 1.08-.55 0-.3-.15-.4-.26-.42.97.12 1.21.42 1.21.56 0 .34-.82.6-2 .82V9Zm.74-1.43h.05-.05ZM5.7 7.6a3.72 3.72 0 0 1 7.13.99c-1.38.38-3.86.8-6.99.98 1.9-.06 4.96-.24 7.01-.59V9a3.71 3.71 0 0 1-6.41 2.55c1.63-.07 3.61-.29 5.4-.55-2.57.24-4.37.33-5.6.32a3.7 3.7 0 0 1-.63-3.46c1.75-.02 4.13-.26 6.23-.57-2.98.27-4.93.35-6.14.3ZM4.26 6.7l-.05.01h.05Zm0 3.72h-.05.05Z" fill="#324E7B"/></svg>