<!-- by TradingView --><svg xmlns="http://www.w3.org/2000/svg" width="18" height="18" viewBox="0 0 18 18"><path fill="#F0F3FA" d="M0 0h18v18H0z"/><path d="M5.47 7.2a.3.3 0 0 1 0-.42l3.28-3.2a.32.32 0 0 1 .44 0c.36.36.35.94 0 1.28l-2 1.93a.3.3 0 0 0 0 .43l1.56 1.53c.12.12.31.12.44 0l1.56-1.53a.3.3 0 0 0 0-.43l-.46-.44a.38.38 0 0 0-.5.02l-.03.02a.34.34 0 0 0 0 .5c.06.06.06.15 0 .21l-.68.66a.16.16 0 0 1-.22 0l-.68-.66a.15.15 0 0 1 0-.21L9.59 5.5l.78-.76 2.09 2.03a.3.3 0 0 1 0 .43L9.19 10.4a.32.32 0 0 1-.44 0L5.47 7.2zm-.9 3.4l4 3.9a6.74 6.74 0 0 0-2.15-5.07l-1.8-1.71a2.03 2.03 0 0 0-.04 2.87zm4.85 3.9l4-3.9c.62-.62.93-1.94-.04-2.88l-1.8 1.71a6.74 6.74 0 0 0-2.16 5.07z" fill="#231F20"/></svg>