<!-- by TradingView --><svg width="18" height="18" viewBox="0 0 18 18" xmlns="http://www.w3.org/2000/svg"><path fill="#F0F3FA" d="M0 0h18v18H0z"/><path d="M9.08 14c2.46 0 4.5-1.72 4.98-4h-.65a4.43 4.43 0 0 1-4.33 3.38A4.41 4.41 0 0 1 4.63 9a4.41 4.41 0 0 1 4.45-4.38c1.67 0 3.12.9 3.88 2.24l.58-.26A5.1 5.1 0 0 0 9.08 4 5.04 5.04 0 0 0 4 9c0 2.76 2.27 5 5.08 5ZM11 7H8v.38h1.4L8 10.62H6V11h4v-.38h-.57l.49-1.12h1.57L11 10.62h-.64V11H13v-.38h-.57l1.4-3.24h1.67V7h-4v.38h.9l-.48 1.12h-1.57L11 7Z" fill="#005A9E"/></svg>