<!-- by TradingView --><svg width="18" height="18" viewBox="0 0 18 18" xmlns="http://www.w3.org/2000/svg"><path fill="#F0F3FA" d="M0 0h18v18H0z"/><path d="M6.27 8.37h.85a1.56 1.56 0 0 0-.22-.58 1.53 1.53 0 0 0-.44-.43 2 2 0 0 0-.6-.27 2.76 2.76 0 0 0-1.81.15A1.84 1.84 0 0 0 3 9c0 .42.1.78.28 1.08.18.3.44.52.76.68.32.16.69.24 1.1.24.28 0 .53-.03.76-.1a1.88 1.88 0 0 0 1.01-.72c.1-.16.18-.34.21-.52h-.85a.77.77 0 0 1-.15.3.9.9 0 0 1-.24.22c-.1.06-.21.11-.33.14a1.62 1.62 0 0 1-1.07-.1 1.1 1.1 0 0 1-.46-.47c-.11-.2-.17-.45-.17-.75s.06-.54.17-.74c.1-.2.26-.36.46-.47a1.54 1.54 0 0 1 1.08-.11c.12.03.23.08.33.15.1.06.18.14.24.23.07.09.11.19.14.3ZM12 11V7h2.98v.6H13v1.1h1.83v.6H13v1.1h2v.6h-3Zm-1.65-2.88a.5.5 0 0 0-.27-.39 1.16 1.16 0 0 0-.6-.13c-.17 0-.32.02-.44.06a.66.66 0 0 0-.29.18.4.4 0 0 0-.1.26c0 .08.02.15.06.21.05.06.11.11.19.16a3.1 3.1 0 0 0 .53.17l.43.09a2.85 2.85 0 0 1 .93.36 1 1 0 0 1 .3.32.94.94 0 0 1-.1 1.04c-.13.17-.32.3-.58.4-.26.1-.57.15-.94.15-.36 0-.67-.05-.93-.14-.26-.1-.47-.23-.62-.41-.14-.18-.22-.4-.23-.66h.81c.02.14.07.25.15.34.09.09.2.16.34.2.14.05.3.07.47.07.18 0 .34-.02.48-.07a.78.78 0 0 0 .32-.2.42.42 0 0 0 .12-.29c0-.1-.04-.18-.1-.25a.79.79 0 0 0-.3-.16 3.15 3.15 0 0 0-.43-.13l-.52-.1a2.7 2.7 0 0 1-.9-.38.8.8 0 0 1-.32-.67.9.9 0 0 1 .22-.6c.15-.18.35-.31.6-.4.25-.1.54-.15.86-.15.33 0 .61.05.86.14.24.1.44.23.58.4.14.17.21.36.22.58h-.8Z"/></svg>