<!-- by TradingView --><svg width="18" height="18" viewBox="0 0 18 18" xmlns="http://www.w3.org/2000/svg"><path fill="#F0F3FA" d="M0 0h18v18H0z"/><path d="M13.85 11c.8 0 1.1.4 1.15.5-.16 0-1.01.08-2.45.92C10.45 13.68 9.5 14 8.44 14c-1.07 0-2.11-.18-3.44-.86-1.06-.54-2.44-1.36-3-1.51.06-.04.28-.13.61-.13 1.76 0 2.94 1.75 5.45 1.75 2.5 0 4.1-2.25 5.79-2.25Z" fill="#02A6E5"/><path d="M4 11c-.46 0-.86.14-1 .22.45-.07 1.46.3 2.52.89 1.06.58 2 .89 2.57.89.46 0 1.03-.12 1.24-.18a6.8 6.8 0 0 1-2.43-.65C5.94 11.69 4.58 11 4 11Z" fill="#02A6E5"/><path d="M5.8 11c-.37 0-.69.11-.8.17.36-.05 1.16.25 2 .72.84.46 1.59.71 2.04.71.36 0 .8-.1.96-.15a5.27 5.27 0 0 1-1.9-.51c-.77-.39-1.84-.94-2.3-.94Z" fill="#02A6E5"/><path d="M7.2 11c-.25 0-.46.09-.53.13.24-.04.77.18 1.33.53.56.36 1.06.54 1.36.54.24 0 .53-.07.64-.11a3.2 3.2 0 0 1-1.27-.39c-.51-.28-1.23-.7-1.53-.7Z" fill="#02A6E5"/><path d="M8.4 6.4C9.06 5.56 9.75 4.45 10 4c0 .47-.81 1.55-1.4 2.4-.6.85-1.33 1.89-1.33 3.06 0 1.95 1.82 2.5 2.73 2.54-2.59-.1-3-1.8-3-2.6s.54-1.94 1.4-3ZM11.6 6.4A18.98 18.98 0 0 1 10 4c0 .47.81 1.55 1.4 2.4.6.85 1.33 1.89 1.33 3.06 0 1.95-1.82 2.5-2.73 2.54 2.59-.1 3-1.8 3-2.6s-.54-1.94-1.4-3Z" fill="#364596"/><path d="M8.56 6.68C9.02 5.96 9.54 5.12 10 4c.46 1.12.98 1.96 1.44 2.68.62 1 1 1.78 1 2.8 0 1.81-1.6 2.33-2.44 2.37-.85-.04-2.44-.56-2.44-2.38 0-1.01.38-1.8 1-2.79Z" fill="url(#a)"/><defs><linearGradient id="a" x1="10" y1="4" x2="10" y2="11.85" gradientUnits="userSpaceOnUse"><stop stop-color="#458CCC"/><stop offset=".56" stop-color="#4CC2F0"/><stop offset="1" stop-color="#4783C1"/></linearGradient></defs></svg>