<!-- by TradingView --><svg width="18" height="18" viewBox="0 0 18 18" xmlns="http://www.w3.org/2000/svg"><path fill="#F0F3FA" d="M0 0h18v18H0z"/><path d="M12 4h1.5L15 7h-1.5L12 4Z" fill="#93999C"/><path d="M10 12h1.46l.54-1h-1.46L10 12Z" fill="#2D2D2D"/><path d="m6 9 1.33-3H9L7.67 9l1.77 3.5h2.9l.99-1.5H15l-1.67 3H8.46L6 9Z" fill="#93999C"/><path d="M10.71 4H5.6L3 9l2.66 5h1.76L4.76 9l1.86-3.5H9.8l.91 1.5h1.76l-1.76-3Z" fill="#2D2D2D"/><path d="M12.6 7.7c.08 0 .3-.47.4-.7.1.23.32.7.4.7.06 0 .3-.12.4-.18l-.28 1.08.68-.4c.01.12.04.4.15.4.1 0 .48-.1.65-.12a2.6 2.6 0 0 0-.35.65c0 .1.23.28.35.35-.38.09-1.2.31-1.2.52 0 .2.19.4.24.48l-.87-.28v.8h-.34v-.8l-.87.28c.05-.07.24-.27.24-.48 0-.2-.82-.43-1.2-.52.12-.07.35-.25.35-.35 0-.1-.23-.48-.35-.65.17.03.55.12.65.12.1 0 .14-.28.15-.4l.68.4-.28-1.08c.1.06.34.18.4.18Z" fill="#348155"/></svg>