<!-- by TradingView --><svg width="18" height="18" viewBox="0 0 18 18" xmlns="http://www.w3.org/2000/svg"><path fill="#F0F3FA" d="M0 0h18v18H0z"/><path d="m7.87 4.06 2.9 2.9-.64.63-2.9-2.9.64-.63ZM10.13 13.94l-2.9-2.9.64-.63 2.9 2.9-.64.63ZM4.06 10.13l2.9-2.9.63.64-2.9 2.9-.63-.64ZM13.94 7.87l-2.9 2.9-.63-.64 2.9-2.9.63.64Z" fill="#F39910"/><path d="m8.92 3-.63.61 3.34 3.27L9.38 9.1l.62.62 2.88-2.83L8.92 3Z" fill="#8FA4A9"/><path d="m3 9.08.61.63 3.27-3.34L9.1 8.62 9.71 8 6.88 5.12 3 9.08Z" fill="#8FA4A9"/><path d="m9.08 15 .63-.61-3.34-3.27L8.62 8.9 8 8.29l-2.88 2.83L9.08 15Z" fill="#8FA4A9"/><path d="m15 8.92-.61-.63-3.27 3.34L8.9 9.38l-.62.62 2.83 2.88L15 8.92Z" fill="#8FA4A9"/></svg>