<!-- by TradingView --><svg width="18" height="18" viewBox="0 0 18 18" xmlns="http://www.w3.org/2000/svg"><path fill="#F0F3FA" d="M0 0h18v18H0z"/><path d="M6.52 9v.02A19634.32 19634.32 0 0 0 9.46 14H6.05a.05.05 0 0 1-.05-.02L3 9.03a.06.06 0 0 1 0-.06l3-4.95.05-.02h3.41l.01.01a.01.01 0 0 1 0 .01L6.53 8.98 6.52 9ZM9.73 5.43l.85-1.42h.01L10.6 4h1.38A.02.02 0 0 1 12 4l3 5v.01l-1.54 2.58h-.02a.02.02 0 0 1-.02 0L9.73 5.45a.02.02 0 0 1 0-.02Z" fill="#78B155"/><path d="m12.72 12.77-3.7-6.14a.02.02 0 0 1 0-.02l.52-.86a.02.02 0 0 1 .03 0l3.69 6.17v.01l-.51.84a.02.02 0 0 1-.02 0h-.01ZM8.86 6.95l3.68 6.15a.02.02 0 0 1 0 .02l-.5.84H12L8.3 7.82a.02.02 0 0 1 0-.02l.52-.85v-.01a.02.02 0 0 1 .02 0ZM10.58 14 7.6 9l.53-.86h.01l3.5 5.84V14h-1.04Z" fill="#6E6F71"/></svg>