<!-- by TradingView --><svg width="18" height="18" viewBox="0 0 18 18" xmlns="http://www.w3.org/2000/svg"><path fill="#F0F3FA" d="M0 0h18v18H0z"/><path d="m10.3 4 1 .03c.31.01.51.03.62.06.8.21 1.2 1.01 1.04 1.79a1.4 1.4 0 0 1-1.38 1.15l-3.2.01C7.51 7.05 7 7.74 7 8.62c0 .41-.06.79 0 1.1.17.84.77 1.3 1.6 1.3h2.83c.27 0 .46.02.59.06.87.31 1.2 1.29.84 2.1-.16.35-.47.63-.83.75-.14.05-.36.07-.65.07H8.44c-.47 0-.8-.01-.98-.04-2.36-.31-3.36-2.6-3.46-4.7v-.6a6.2 6.2 0 0 1 .83-2.9c.73-1.23 1.94-1.7 3.34-1.74L8.99 4h1.31Z" fill="#ED3680"/></svg>