<!-- by TradingView --><svg width="18" height="18" fill="none" xmlns="http://www.w3.org/2000/svg"><path fill="#F0F3FA" d="M0 0h18v18H0z"/><path d="M6.127 8.449a1.347 1.347 0 0 1 .406-1.214c.047-.053.097-.103.15-.148 1.276-1.198 4.242-1.17 5.94-.567l1.358-1.836a12.255 12.255 0 0 0-4.62-.67C7.58 4.128 4 4.858 4 7.228c0 2.167 3.522 3.187 5.334 3.258a15.57 15.57 0 0 0 1.997 0 8.824 8.824 0 0 1-4.1-.854l-.1-.038a4.948 4.948 0 0 1-.28-.181l-.072-.054a2.51 2.51 0 0 1-.222-.196l-.053-.054c-.05-.048-.097-.1-.142-.154l-.044-.067a1.392 1.392 0 0 1-.1-.187c-.04-.08-.07-.165-.09-.252Z" fill="#7C878E"/><path fill-rule="evenodd" clip-rule="evenodd" d="M7.158 9.612c-.315-.16-.963-.611-1.038-1.14-.093-.66 2.255-2.883 6.48-1.474L14 5.136v2.346l-1.4 1.851c-1.086-.407-3.696-.922-5.442.279ZM4 8.212c.442 1.245 3.125 4.04 9.999 2.35v2.92c-2.596.71-8.231 1.243-10-2.32v-2.95Z" fill="#5B6770" fill-opacity=".7"/></svg>