<!-- by TradingView --><svg xmlns="http://www.w3.org/2000/svg" width="18" height="18" viewBox="0 0 18 18"><path fill="url(#aaqua3tqa)" d="M0 0h18v18H0z"/><path d="M6.26 10.6c-.44.55-1.1.9-1.85.9A2.46 2.46 0 0 1 2 9c0-1.38 1.08-2.5 2.41-2.5.7 0 1.34.31 1.78.8l-.74.74c-.26-.3-.63-.48-1.04-.48-.77 0-1.39.64-1.39 1.44 0 .8.62 1.44 1.4 1.44.45 0 .86-.23 1.11-.59l.73.76Zm4.87 0c-.44.55-1.1.9-1.85.9A2.46 2.46 0 0 1 6.87 9c0-1.38 1.08-2.5 2.41-2.5.7 0 1.34.31 1.78.8l-.74.74c-.26-.3-.63-.48-1.04-.48-.77 0-1.39.64-1.39 1.44 0 .8.62 1.44 1.4 1.44.45 0 .86-.23 1.11-.59l.73.76Zm3.02.9c.74 0 1.4-.35 1.85-.9l-.73-.75c-.25.36-.66.6-1.12.6-.77 0-1.39-.65-1.39-1.45 0-.8.62-1.44 1.4-1.44.4 0 .77.18 1.03.48l.74-.73c-.44-.5-1.08-.81-1.78-.81A2.46 2.46 0 0 0 11.74 9c0 1.38 1.08 2.5 2.41 2.5Z" fill="#fff"/><defs><linearGradient id="aaqua3tqa" x1="3.35" y1="3.12" x2="21.9" y2="24.43" gradientUnits="userSpaceOnUse"><stop stop-color="#1A1E21"/><stop offset="1" stop-color="#06060A"/></linearGradient></defs></svg>