<!-- by TradingView --><svg width="18" height="18" viewBox="0 0 18 18" xmlns="http://www.w3.org/2000/svg"><path fill="#F0F3FA" d="M0 0h18v18H0z"/><path d="M11.66 4 4 6.6 6.34 14l3.93-1.33c-1.78.24-3.97-.12-4.52-2.84C5.1 6.5 8.44 5.67 10.2 5.67l.55 1.39c-1.3.09-3.33.83-2.77 2.77.55 1.95 2.77 1.4 3.88.84l.52 1.28L14 11.4 11.66 4Z" fill="#FFB202"/><path d="M13.44 5.11H5.67v3.9c0-2.65 2.92-3.34 4.53-3.34l.55 1.39c-1.3.09-3.33.83-2.78 2.77.56 1.95 2.78 1.4 3.9.84l.55 1.39C11.3 12.6 6.59 14 5.75 9.83c-.06-.29-.08-.56-.08-.82v3.88h7.77V5.1Z" fill="#E8151F"/><path d="M11.2 10.94c-.71-.01-2.25-.2-2.67-.83-.48-.72-.13-2.05.5-2.59a2.84 2.84 0 0 0-.61.44c-.45.43-.68 1.04-.45 1.87.46 1.61 2.06 1.51 3.23 1.11Z" fill="#FD7F3C"/></svg>