<!-- by TradingView --><svg width="18" height="18" viewBox="0 0 18 18" fill="none" xmlns="http://www.w3.org/2000/svg">
<rect width="18" height="18" fill="#F0F3FA"/>
<path d="M7.12835 14.2059C7.1341 14.2079 7.13889 14.212 7.14184 14.2174C7.14479 14.2228 7.14569 14.2292 7.14439 14.2353L7.05033 14.6568C7.04677 14.6729 7.03732 14.678 7.022 14.6723C2.5901 13.0763 1.5544 7.23922 5.2595 4.30465C6.53854 3.2912 8.02724 2.86818 9.72561 3.03561C9.74699 3.03774 9.75518 3.04914 9.7502 3.0698L8.89549 6.96974C8.89086 6.98969 8.87821 6.99949 8.85755 6.99913L8.4252 7.00008C8.40561 7.00008 8.39795 6.98809 8.40222 6.96921L9.15058 3.48124L9.15064 3.47612L9.14841 3.47151L9.14437 3.46837L9.13936 3.46735C7.9412 3.45524 6.86311 3.7737 5.90508 4.42274C2.15615 6.96243 2.90487 12.6558 7.12835 14.2059Z" fill="#035FB6"/>
<path d="M9.07075 9.00006H6.6755C6.67053 9.00003 6.66563 8.99888 6.66117 8.9967C6.6567 8.99451 6.65278 8.99136 6.64971 8.98746C6.64663 8.98356 6.64446 8.97902 6.64338 8.97417C6.64229 8.96932 6.64231 8.96429 6.64343 8.95945L6.7439 8.5432C6.74818 8.5261 6.75815 8.52183 6.77597 8.52183H9.46074H9.68693C9.70154 8.52397 9.70706 8.53216 9.7035 8.54641L8.33982 14.4555C8.33873 14.4598 8.33861 14.4644 8.33946 14.4688C8.34031 14.4732 8.34211 14.4774 8.34475 14.4811C8.34738 14.4848 8.35078 14.4879 8.35472 14.4902C8.35867 14.4925 8.36306 14.494 8.36761 14.4945C9.62776 14.6192 10.7794 14.371 11.8226 13.7502C14.5027 12.1541 15.3492 8.61573 13.6359 5.99482C12.8613 4.81074 11.7693 4.02331 10.3599 3.63253C10.3453 3.62861 10.3398 3.61935 10.3433 3.60474L10.4443 3.19758C10.4461 3.19093 10.4504 3.18524 10.4564 3.18174C10.4624 3.17824 10.4696 3.17721 10.4764 3.17888C13.0309 3.83237 14.8832 6.0739 14.9944 8.72313C15.159 12.6564 11.6591 15.6412 7.76853 14.8813C7.7443 14.8764 7.73486 14.8617 7.7402 14.8375L9.0932 9.02784C9.09747 9.00932 9.08999 9.00006 9.07075 9.00006Z" fill="#035FB6"/>
<path d="M7.57894 4.83202C6.01738 5.34818 4.89671 6.73799 4.64874 8.34046C4.3345 10.3763 5.49098 12.3351 7.38602 13.0998C7.40347 13.1069 7.40989 13.1197 7.40525 13.1382L7.2973 13.554C7.29196 13.5732 7.28002 13.5789 7.2615 13.5711C2.63346 11.648 3.28598 5.06552 8.23306 4.16891C8.23666 4.16829 8.24035 4.16855 8.24382 4.16968C8.24728 4.1708 8.2504 4.17276 8.2529 4.17536C8.25539 4.17796 8.25718 4.18113 8.25811 4.18457C8.25903 4.18802 8.25905 4.19163 8.25818 4.19509L7.64254 6.96568C7.64055 6.97413 7.63574 6.98163 7.62891 6.9869C7.62209 6.99216 7.61368 7.00033 7.60513 7H7.16691C7.14624 6.99929 7.13822 6.97013 7.14286 6.95019L7.60513 4.85659C7.61083 4.83237 7.6021 4.82418 7.57894 4.83202Z" fill="#035FB6"/>
<path d="M10.8416 9.01593L9.8456 13.2895C9.84132 13.3091 9.84898 13.3171 9.86858 13.3135C12.4637 12.8134 14.0172 10.0621 13.1723 7.59293C12.6844 6.16679 11.5664 5.14515 10.1064 4.7305C10.0907 4.72623 10.0848 4.71625 10.0888 4.70058L10.186 4.28327C10.1899 4.26724 10.1997 4.26136 10.2154 4.26563C13.9526 5.28514 15.1582 9.9253 12.3018 12.5954C11.4595 13.383 10.4342 13.8094 9.22568 13.8746C9.21036 13.8753 9.20448 13.8682 9.20804 13.8532L10.4557 8.53556C10.4582 8.52541 10.4639 8.51639 10.4721 8.50998C10.4803 8.50357 10.4903 8.50016 10.5006 8.5003L12.1553 8.5003C12.1749 8.5003 12.207 8.51793 12.2028 8.53716L12.1103 8.95929C12.1057 8.98066 12.0923 8.99999 12.0702 8.99999H10.8726C10.8558 8.99999 10.8455 8.99954 10.8416 9.01593Z" fill="#035FB6"/>
<path d="M6.88492 7.97483L6.99074 7.53133C6.99241 7.52436 6.99906 7.51908 7.00624 7.51904L12.42 7.51931C12.4299 7.51904 12.4419 7.52283 12.4396 7.5324L12.3376 7.98391C12.3359 7.99089 12.3292 7.99975 12.3221 7.99979H6.90042C6.89273 7.99975 6.88344 7.98103 6.88492 7.97483Z" fill="#035FB6"/>
</svg>
