<!-- by TradingView --><svg width="18" height="18" viewBox="0 0 18 18" xmlns="http://www.w3.org/2000/svg"><path fill="#F0F3FA" d="M0 0h18v18H0z"/><path d="M3 7v3.25L6 8.5 3 7Z" fill="#E32C2E"/><path d="M15 7v3.25L12 8.5 15 7Z" fill="#3383C0"/><path d="M6 5.5 3 7l3 1.5v-3Z" fill="#A91D26"/><path d="m6 11-3 1.44L6 14v-3ZM12 5.5 15 7l-3 1.5v-3Z" fill="#3CC0F0"/><path d="m12 11 3 1.44L12 14v-3Z" fill="#E8292E"/><path d="M6 8.5v-3L9 7 6 8.5Z" fill="#FFC73C"/><path d="M6 14v-3l3 1-3 2Z" fill="#3384C6"/><path d="M12 8.5v-3L9 7l3 1.5Z" fill="#273E84"/><path d="M12 14v-3l-3 1 3 2Z" fill="#A51F26"/><path d="M9 4 6 5.5 9 7V4ZM9 9.5 6 11l3 1V9.5Z" fill="#F48534"/><path d="m9 4 3 1.5L9 7V4Z" fill="#54A74D"/><path d="m9 9.5 3 1.5-3 1V9.5Z" fill="#FDC83A"/></svg>