<!-- by TradingView --><svg width="18" height="18" viewBox="0 0 18 18" xmlns="http://www.w3.org/2000/svg"><path fill="#0068B0" d="M0 0h18v18H0z"/><path d="M13.04 8.7c.26 0 .5-.1.69-.28a.99.99 0 0 0 0-1.37l-2.57-2.64a1.32 1.32 0 0 0-1.91 0l-3.8 3.9.6.63 3.57-3.68a.8.8 0 0 1 1.17 0l2.2 2.27c.1.11.04.3-.1.31l-.52.05a.9.9 0 0 1-.74-.27l-2.04-2.1-.6.61 2.19 2.26c.17.18.4.28.63.28l1.23.03ZM12.96 9.3c.25 0 .5.1.68.28.36.38.36.99 0 1.37l-2.57 2.64c-.53.55-1.38.55-1.9 0l-.3-.3.6-.62c.42.44.9.4 1.23.07l2.2-2.27c.1-.11.04-.3-.1-.31l-.52-.05a.9.9 0 0 0-.74.27l-3.08 3.18c-.5.5-1.28.5-1.77 0L4.41 11.2a1.31 1.31 0 0 1 0-1.82l.26-.26.6.62-.2.2a.5.5 0 0 0 0 .7l2.17 2.23c.18.2.48.2.67 0l3.18-3.27c.17-.18.4-.28.63-.28l1.24-.03Z" fill="#fff"/><path d="m8.14 5.26.6-.62-.3-.3a1.03 1.03 0 0 0-1.48 0L4.3 7.05a1.1 1.1 0 0 0 0 1.53l3.81 3.93.6-.62-3.65-3.76a.45.45 0 0 1 0-.62l2.33-2.4a.42.42 0 0 1 .6 0l.14.14Z" fill="#fff"/></svg>