<!-- by TradingView --><svg width="18" height="18" viewBox="0 0 18 18" xmlns="http://www.w3.org/2000/svg"><path fill="#F0F3FA" d="M0 0h18v18H0z"/><path d="M4 4.38c0-.21.17-.38.38-.38h3.75c.2 0 .37.17.37.38v3.75c0 .2-.17.37-.38.37H4.38A.37.37 0 0 1 4 8.12V4.38Z" fill="#C6C6C6"/><path d="M4 9.88c0-.21.17-.38.38-.38h3.75c.2 0 .37.17.37.38v3.75c0 .2-.17.37-.38.37H4.38a.38.38 0 0 1-.38-.37V9.88Z" fill="#0492D4"/><path d="M9.5 9.88c0-.21.17-.38.38-.38h3.74c.21 0 .38.17.38.38v3.74c0 .21-.17.38-.38.38H9.88a.38.38 0 0 1-.38-.38V9.88Z" fill="#878785"/><path d="M11.67 4.33v.05c-.05.28-.4.44-.52.7l-.12.23c-.05.1-.03.24-.03.36a.33.33 0 1 1-.66-.05c.04-.28.38-.44.51-.7l.12-.23c.05-.1.03-.24.03-.36a.33.33 0 1 1 .67 0ZM9.33 6.67c0-.24.17-.48.17-.72v-.4c0-.19-.17-.36-.17-.55A.33.33 0 0 1 10 5c0 .22-.17.42-.17.64v.39c0 .21.17.42.17.64a.33.33 0 0 1-.67 0ZM11.33 7c0-.05.02-.11.05-.15l.47-.47c.04-.03.1-.05.15-.05a.33.33 0 1 0-.33-.28c0 .02 0 .05-.02.06l-.5.5c-.04.04-.1.06-.15.06a.33.33 0 1 0 .33.33ZM13.67 7c-.12 0-.25-.02-.36.03l-.24.12c-.25.13-.41.47-.69.51a.33.33 0 0 1-.38-.33c0-.18.15-.33.33-.33.12 0 .25.02.36-.03l.24-.12c.25-.13.41-.47.69-.51h.05a.33.33 0 1 1 0 .66ZM13 8c-.22 0-.42.17-.64.17h-.39c-.21 0-.42-.17-.64-.17a.33.33 0 0 0 0 .67c.22 0 .43-.17.64-.17h.4c.2 0 .41.17.63.17A.33.33 0 0 0 13 8Z" fill="#018CD5"/></svg>