<!-- by TradingView --><svg xmlns="http://www.w3.org/2000/svg" width="18" height="18"><path fill="#F0F3FA" d="M0 0h18v18H0z"/><path d="M8.82 12.98l-.15-.04.02-.6c.04-1.04-.2-1.6-.95-2.29a4.21 4.21 0 00-1.87-.97 10.2 10.2 0 00-2.28-.06c-.33.01-.44 0-.51-.07-.08-.07-.08-.1-.02-.14.27-.2 2.3-.35 3.15-.23 2.17.3 3.74 1.92 3.59 3.7-.02.22-.05.44-.07.49-.07.16-.63.28-.91.2z" fill="#0099A8"/><path d="M11.73 12.8a.94.94 0 01-.14-.36 7.11 7.11 0 00-5.63-5.11 10.2 10.2 0 00-2.44-.05c-.48.09-.66-.03-.4-.25.2-.18.39-.22 1.2-.3A8.83 8.83 0 019.96 8.2c.17.12.53.43.8.69a6.3 6.3 0 011.88 3.1c.13.47.13.5.03.6-.18.18-.8.32-.95.22z" fill="#61A60E"/><path d="M13.91 12.36l-.09-.37c-.93-3.89-4.84-6.74-9-6.56a11 11 0 00-1.12.1c-.74.12-.92-.23-.18-.38.56-.1 1.68-.18 2.35-.14 2.61.14 4.8 1 6.54 2.6a8.01 8.01 0 012.47 3.9c.17.61.16.72-.08.83-.24.1-.85.11-.89.02z" fill="#415364"/></svg>