<!-- by TradingView --><svg width="18" height="18" viewBox="0 0 18 18" fill="none" xmlns="http://www.w3.org/2000/svg"><path fill="#BE2345" d="M0 0h18v18H0z"/><g opacity=".6" clip-path="url(#a)"><circle cx="9" cy="9" r="8.88" stroke="#969696" stroke-width=".25"/><rect x="3.05" y="5.05" width="11.9" height="7.9" rx=".95" stroke="#969696" stroke-width=".1"/><rect x="2.05" y="6.05" width="13.9" height="5.9" rx=".95" stroke="#969696" stroke-width=".1"/><rect x="4.05" y="4.05" width="9.9" height="9.9" rx=".95" stroke="#969696" stroke-width=".1"/><rect x="5.05" y="3.05" width="7.9" height="11.9" rx=".95" stroke="#969696" stroke-width=".1"/><rect x="6.05" y="2.05" width="5.9" height="13.9" rx=".95" stroke="#969696" stroke-width=".1"/><circle cx="9" cy="9" r="4.88" stroke="#A2A2A2" stroke-width=".25"/></g><path fill-rule="evenodd" d="M9 15A6 6 0 1 0 9 3a6 6 0 0 0 0 12Zm0-1A5 5 0 1 0 9 4a5 5 0 0 0 0 10Z" fill="#FFF0F4"/><path d="M11.23 4.06h-.6v1.17h-1.2v.62h1.2v1.53H9.48v.6h1.13v.57h.6v-.57h1.14v-.6h-1.13V5.85h1.91v-.62h-1.91V4.06ZM7 4.06h-.6V5.4H5V6h1.4v1H5.4v.6h.99v.95H7V7.6h1V7H7V6h1v-.6H7V4.06ZM6.4 9H7v1h1v.6H7V12h-.6v-1.4H3.8V10h2.6V9Zm3.7 2.9h.18v-.6h-1.1V9.11h-.6v2.2H7.5v.6h1.1v2.34h.6V11.9h.9Zm1.13-2.79h-.6v.53H9.48v.6h1.13v1.67h.6v-1.66h2.76v-.6h-2.75V9.1Z" fill="#FFF0F4"/><defs><clipPath id="a"><rect width="18" height="18" rx="9"/></clipPath></defs></svg>