<!-- by TradingView --><svg width="18" height="18" viewBox="0 0 18 18" xmlns="http://www.w3.org/2000/svg"><path fill="#C5E1E5" d="M0 0h18v18H0z"/><path d="M9.3 14C6.38 14 4 11.76 4 9s2.38-5 5.3-5c1.87 0 3.56.9 4.53 2.4l-1.19.94A4 4 0 0 0 9.3 5.5C7.15 5.5 5.5 6.97 5.5 9c0 2.5 2.2 3.5 3.8 3.5 1.61 0 3.08-1.02 3.65-2.43l1.05.92A5.02 5.02 0 0 1 9.3 14Z" fill="#333F48"/><path d="m13.04 11.56-2.8-3.46-2.5 2.33-.78-1.26-1.18 2.52-.4-1.61 1.68-1.84.73.77 2.3-2.05L14 10.98l-.96.58Z" fill="#333F48"/><path d="m7.4 13.13-.96-.54 3.6-2.93 2.34 2.52-1.35.58-1.4-2.15-2.23 2.52Z" fill="#333F48"/></svg>