<!-- by TradingView --><svg width="18" height="18" viewBox="0 0 18 18" xmlns="http://www.w3.org/2000/svg"><path fill="#F0F3FA" d="M0 0h18v18H0z"/><path d="m12.64 7.98-.88.29-1.82.59c-.3.1-.56.1-.78 0-.11-.05-.23-.17-.37-.34l-.3-.38c.1.04.21.03.35-.02l2.15-.7L12 7.12c.39-.18.73-.14 1.04.1.09.07.21.24.38.5.01.03 0 .05-.03.06l-.75.21Z" fill="url(#a)"/><path d="M9.91 10a3.6 3.6 0 0 0-.6-.74c-.27-.2-.58-.23-.93-.1l-.28.1-2.24.72a3 3 0 0 1-.92-1.06c.2.09.39.13.58.1l1.98-.64.4-.12c.2-.09.4-.13.58-.12-.2-.4-.6-.82-1.19-.64l-.48.15-1.95.64a.68.68 0 0 1-.23.04.75.75 0 0 1-.35-.12 2.16 2.16 0 0 0-.12-.06.85.85 0 0 0-.42-.04 4.5 4.5 0 0 0-.74.25v.02l1.55 2.02.03.02h.05a1.6 1.6 0 0 1 1.16-.09c.13.05.26.17.37.27l.02.03c.08.06.15.12.23.16l.26.13a16.65 16.65 0 0 0 2.43-.74l.51-.16a.6.6 0 0 1 .3-.01Z" fill="url(#b)"/><path d="M12.45 9.27c-1.01.32-1.73.55-2.15.7a.67.67 0 0 1-.39.04l.55.71c.13.16.3.26.53.28.14.01.33-.02.57-.1l1.74-.57.77-.24.9-.27c.03 0 .04-.02.02-.05l-.42-.55a.92.92 0 0 0-.35-.3c-.31-.13-.7-.03-1 .1l-.77.25Z" fill="url(#c)"/><defs><linearGradient id="a" x1="12.77" y1="7.02" x2="4.66" y2="10.52" gradientUnits="userSpaceOnUse"><stop stop-color="#0BB2EA"/><stop offset=".27" stop-color="#044EA0"/><stop offset=".52" stop-color="#06A9E3"/></linearGradient><linearGradient id="b" x1="12.77" y1="7.02" x2="4.66" y2="10.52" gradientUnits="userSpaceOnUse"><stop offset=".27" stop-color="#044EA0"/><stop offset=".52" stop-color="#06A9E3"/><stop offset=".76" stop-color="#0458A7"/><stop offset=".98" stop-color="#06AAE4"/></linearGradient><linearGradient id="c" x1="12.77" y1="7.02" x2="4.66" y2="10.52" gradientUnits="userSpaceOnUse"><stop stop-color="#0BB2EA"/><stop offset=".27" stop-color="#044EA0"/><stop offset=".52" stop-color="#06A9E3"/></linearGradient></defs></svg>