<!-- by TradingView --><svg width="18" height="18" viewBox="0 0 18 18" xmlns="http://www.w3.org/2000/svg"><path fill="url(#avoomasjx)" d="M0 0h18v18H0z"/><ellipse cx="3.6" cy="6.62" rx=".6" ry=".62" fill="#fff"/><path d="M4.2 8a.6.6 0 0 1-.6.62A.6.6 0 0 1 3 8a.6.6 0 0 1 .6-.62c.33 0 .6.28.6.62ZM4.2 9.38a.6.6 0 0 1-.6.62.6.6 0 0 1-.6-.62.6.6 0 0 1 .6-.61c.33 0 .6.27.6.61ZM8.25 6.62a.6.6 0 0 1-.6.61.6.6 0 0 1-.6-.61.6.6 0 0 1 .6-.62c.33 0 .6.28.6.62ZM8.25 8a.6.6 0 0 1-.6.62.6.6 0 0 1-.6-.62.6.6 0 0 1 .6-.62c.33 0 .6.28.6.62ZM8.25 9.38a.6.6 0 0 1-.6.62.6.6 0 0 1-.6-.62.6.6 0 0 1 .6-.61c.33 0 .6.27.6.61ZM12.3 6.62a.6.6 0 0 1-.6.61.6.6 0 0 1-.6-.61.6.6 0 0 1 .6-.62c.33 0 .6.28.6.62ZM12.3 8a.6.6 0 0 1-.6.62.6.6 0 0 1-.6-.62.6.6 0 0 1 .6-.62c.33 0 .6.28.6.62ZM12.3 9.38a.6.6 0 0 1-.6.62.6.6 0 0 1-.6-.62.6.6 0 0 1 .6-.61c.33 0 .6.27.6.61ZM5.55 6.63a.6.6 0 0 1-.6.62.6.6 0 0 1-.6-.62.6.6 0 0 1 .6-.61c.33 0 .6.27.6.61ZM6.9 6.62a.6.6 0 0 1-.6.61.6.6 0 0 1-.6-.61.6.6 0 0 1 .6-.62c.33 0 .6.28.6.62ZM5.55 7.98a.6.6 0 0 1-.6.62.6.6 0 0 1-.6-.62.6.6 0 0 1 .6-.61c.33 0 .6.27.6.61ZM6.9 7.96a.6.6 0 0 1-.6.62.6.6 0 0 1-.6-.62.6.6 0 0 1 .6-.61c.33 0 .6.27.6.61ZM5.55 9.38a.6.6 0 0 1-.6.62.6.6 0 0 1-.6-.62.6.6 0 0 1 .6-.61c.33 0 .6.27.6.61ZM6.9 9.38a.6.6 0 0 1-.6.62.6.6 0 0 1-.6-.62.6.6 0 0 1 .6-.61c.33 0 .6.27.6.61ZM9.6 6.63a.6.6 0 0 1-.6.62.6.6 0 0 1-.6-.62.6.6 0 0 1 .6-.61c.33 0 .6.27.6.61ZM10.95 6.62a.6.6 0 0 1-.6.61.6.6 0 0 1-.6-.61.6.6 0 0 1 .6-.62c.33 0 .6.28.6.62ZM9.6 7.98a.6.6 0 0 1-.6.61.6.6 0 0 1-.6-.61.6.6 0 0 1 .6-.62c.33 0 .6.28.6.62ZM10.95 7.96a.6.6 0 0 1-.6.62.6.6 0 0 1-.6-.62.6.6 0 0 1 .6-.61c.33 0 .6.27.6.61ZM9.6 9.38A.6.6 0 0 1 9 10a.6.6 0 0 1-.6-.62.6.6 0 0 1 .6-.61c.33 0 .6.27.6.61ZM10.95 9.38a.6.6 0 0 1-.6.62.6.6 0 0 1-.6-.62.6.6 0 0 1 .6-.61c.33 0 .6.27.6.61ZM13.65 6.63a.6.6 0 0 1-.6.62.6.6 0 0 1-.6-.62.6.6 0 0 1 .6-.61c.33 0 .6.27.6.61ZM15 6.62a.6.6 0 0 1-.6.61.6.6 0 0 1-.6-.61.6.6 0 0 1 .6-.62c.33 0 .6.28.6.62ZM13.65 7.98a.6.6 0 0 1-.6.61.6.6 0 0 1-.6-.61.6.6 0 0 1 .6-.62c.33 0 .6.28.6.62ZM15 7.96a.6.6 0 0 1-.6.62.6.6 0 0 1-.6-.62.6.6 0 0 1 .6-.61c.33 0 .6.27.6.61ZM13.65 9.38a.6.6 0 0 1-.6.62.6.6 0 0 1-.6-.62.6.6 0 0 1 .6-.61c.33 0 .6.27.6.61ZM15 9.38a.6.6 0 0 1-.6.62.6.6 0 0 1-.6-.62.6.6 0 0 1 .6-.61c.33 0 .6.27.6.61ZM3 11h12v1H3z" fill="#fff"/><defs><linearGradient id="avoomasjx" x1="3.35" y1="3.12" x2="21.9" y2="24.43" gradientUnits="userSpaceOnUse"><stop stop-color="#1A1E21"/><stop offset="1" stop-color="#06060A"/></linearGradient></defs></svg>