<!-- by TradingView --><svg width="18" height="18" viewBox="0 0 18 18" xmlns="http://www.w3.org/2000/svg"><path fill="#F0F3FA" d="M0 0h18v18H0z"/><path d="M9 5V3h1.56A3.37 3.37 0 0 1 14 6.46c0 1.43-.54 2.28-.82 2.53.28.3.82 1.18.82 2.32 0 2.96-2.15 3.7-3.22 3.69H9v-2h1.1c.72.02 2.14-.27 2.14-1.7 0-1.41-1.31-1.78-1.97-1.76H7.94c-.34 0-.62-.23-.62-.58s.28-.57.62-.57h2.07c.66.04 2.1-.18 2.1-1.54C12.1 5.48 11.07 5 10.54 5H9Z" fill="#EC2027"/><path d="M4.9 8.96c0-2.01 1.6-3.65 3.57-3.65h1.9c.75 0 1.35.62 1.35 1.39 0 .76-.6 1.3-1.35 1.3H7.7c-.46 0-.92.47-.92.95s.46.98.92.98h2.64c.76 0 1.37.51 1.37 1.29 0 .77-.61 1.4-1.37 1.4H8.47A3.62 3.62 0 0 1 4.9 8.96ZM8.47 5.7c-1.72 0-3.2 1.51-3.2 3.27a3.29 3.29 0 0 0 3.2 3.27h1.88c.51 0 1-.5 1-1.01 0-.52-.49-.9-1-.9H7.71c-.72 0-1.3-.64-1.3-1.37 0-.74.58-1.33 1.3-1.33h2.66c.5 0 .97-.41.97-.92 0-.52-.47-1-.97-1h-1.9Z"/><path opacity=".5" d="m7.77 14.67.48-1.15C6.87 13.42 4 12.4 4 9.22c0-3.2 2.77-4.42 4.1-4.63l-.3-1.1C6.2 3.8 3 5.37 3 9.1c0 3.75 3.18 5.27 4.77 5.56Z" fill="#EC2027"/></svg>