<!-- by TradingView --><svg width="18" height="18" viewBox="0 0 18 18" xmlns="http://www.w3.org/2000/svg"><path fill="#093B59" d="M0 0h18v18H0z"/><path d="m6.83 11.88 1.15.66c.1-.15.37-.47.6-.58a.85.85 0 0 0 .48-.62c.05-.22.27-.75.2-.86l-.97.24-.4.62-.48-.65-.68-.16-.14.65-.31.47.55.23Z" fill="#FFECC2"/><path d="M8 12.52c-.5.6-1.02.76-1.22.77-.57-.11-1.03-.9-1.18-1.27-.15-.5-.47-1.52-.51-1.72-.04-.2.07-.72.13-.95L5.32 8v-.9l.43-.2c.3-.14.97-.44 1.22-.49.24-.05.98.67 1.32 1.04l.27-.69.35.54s.73 1.1.73 2.57l.03.47c-.12.1-.57.45-.7.58h-.5c-.2 0-.16.15-.12.22.38.07.96.25.2.45-.94.24-1.14-.53-1.17-.67-.03-.14-.6-.37-.54-.22.04.12-.2.64-.34.89l.78.16c.16.03.55.53.72.77Z" fill="#FDD22C"/><path d="m6.01 12.65.4.42.33.12v.1c-.94-.15-1.54-1.64-1.7-2.4a5.6 5.6 0 0 1 .13-2.02l-.12-.22.12-1.46c.28-1.8.84-3.28 1.27-3.19.34.08 1.4 1.51 1.9 2.22.15.3.41.97.3 1.29-.1.31-.69-.14-.97-.4-.77-.78-1.2-.27-1.3.08-.04-.03-.15-.06-.36.1-.2.15-.48 0-.6-.1v.21l.7.4c-.36.2-.62.6-.7.77 0 .27-.16 1.06-.24 1.42l.24.32c-.05-.12-.1-.32.11-.23.21.1.19.66.15.93-.08.13-.18.45 0 .71.19.26.3.73.34.93Z" fill="#D91018"/><path d="M8.53 8.45a.87.87 0 0 1 .42-.77c.33.2.68 1.42.68 1.95 0 .42-.12.7-.18.78-.49.1-.64-.6-.64-.63-.61-.11-.55-.56-.44-.77.06-.01.18-.14.16-.56ZM6.66 8.47c-.06-.33-.36-.6-.5-.7-.75.5-.78.9-.7 1.04l.6.4c-.05.38.78 1.02 1.2 1.3.14-.13.45-.44.67-.69.27-.3-.53-.87-.85-1.01a1.02 1.02 0 0 1-.42-.34Z" fill="#F7B50C"/><path d="M7.53 7.4c-.16-.17-.4-.13-.49-.09-.3.24-.12.6 0 .73.14.19.47.5.71.27.31-.28 0-.7-.22-.91ZM8.44 12.04c-.26.16-.43.66-.48.9.48.25.75-.29.76-.46 0-.1.05-.35.15-.5a.6.6 0 0 1 .35-.23c.69-.6.96-1.2 1.09-1.36.13-.16.13-.52-.13-.2-.21.24-.35.23-.4.2-.41-.03-.68.4-.76.61.1.65-.26.85-.58 1.04Z" fill="#17150A"/><path d="M10.57 7.98c-.54.47-.59 1.76-.54 2.35a.7.7 0 0 1 .23-.08c.03-1.59.28-1.81.4-2.06.1-.2-.03-.23-.09-.21Z" fill="#E0B3B5"/><path d="m15.4 6.11-1.86 1.72v.67c.05-.06.27-.26.67-.54.4-.27.92-1.07 1.13-1.44.24-.21.41-.72.06-.4Z" fill="#D91018"/><path d="M8.86 12.38c0-.23.24-.5.36-.6l.57-.68 2.7-1.53v.17l-.97 1.04-.48 1.37a1.4 1.4 0 0 1-.5.7c-.36.2-.82.84-1.43 1.1-.48.2-.5-.3-.44-.6.06-.22.2-.74.2-.97Z" fill="#FEE17E"/><path d="M11.42 10.38c.5-.36.44-.08.34.11-.28.2-.48.85-.54 1.14a.43.43 0 0 1-.5.16c-.35-.1.06-.96.7-1.4Z" fill="#F4A70E"/><path d="M10.34 11.05c-.25.65-.47.32-.55.07.01-.09.2-.45.87-1.18a7.72 7.72 0 0 1 2.03-1.5l.2.07-.04.61-.33.55c-.04.03-.12-.03-.37.12-.3.2-1.78 1.26-1.81 1.26Z" fill="#FED814"/><path d="m12.67 8.46.88-.64v.64a5.78 5.78 0 0 1-1.17 1.39l.36-.64c-.17.14-.53.43-.61.43.02-.22.5-.82.74-1.1l-.2-.08Z" fill="#DD4A14"/><path d="M12.14 9.3c-.36.07-.44-.14-.43-.26l.49-.32c.4-.25.5-.27.5-.27a3.7 3.7 0 0 1-.56.85Z" fill="#17150A"/><path d="M10.24 12.4c.47-.3.63-.13.66 0 0 .27-.66.67-1 .98-.33.31-.81.63-1 .57-.17-.06-.09-.14 0-.32.1-.19.74-.85 1.34-1.23Z" fill="#F4A70E"/></svg>