<!-- by TradingView --><svg width="18" height="18" viewBox="0 0 18 18" xmlns="http://www.w3.org/2000/svg"><path fill="#F0F3FA" d="M0 0h18v18H0z"/><path d="M3 9.5 6.38 5h5.25L15 9.5 12 14H6.07L3 9.5Z" fill="#D7000F"/><path fill-rule="evenodd" d="M6 4.28V12h6V3h-1.18c-.77 0-1.2.52-1.2.75 0 .19.06.34.08.4H8.37c.1-.73 1.22-1.06 1.76-1.14-1.5-.1-2.15.71-2.29 1.13h-1.2v-.09c.29-.62 1.6-.95 2.21-1.04-1.87-.07-2.68.81-2.85 1.27Zm4.24-.13h.91c0-.33-.24-.44-.35-.45h-.6c.02-.07.18-.2.73-.2s.63.44.6.65h.33V3.13h-1.1c-.25.07-.72.28-.72.57 0 .28.13.42.2.45Zm-1.42-.44h.6l.1-.2h-.37a.4.4 0 0 0-.33.2Z" fill="#1E2972"/><path d="M6.43 4.33H7.7v7.34H6.43V4.33Zm1.93 0h1.28v7.34H8.36V4.33Zm3.21 0h-1.29v7.34h1.3V4.33Z" fill="#FFF100"/></svg>