<!-- by TradingView --><svg width="18" height="18" viewBox="0 0 18 18" xmlns="http://www.w3.org/2000/svg"><path fill="#233F76" d="M0 0h18v18H0z"/><path d="M4.75 6H3.4c-.06.73-.23 2.5-.38 3.82C2.82 11.45 4.37 12 5.33 12c.77 0 1.1-.24 1.16-.36l.2-1.64c-.32.44-.9.55-1.16.55-1.09 0-1.23-.97-1.16-1.46L4.75 6ZM9.38 6H7.36l-.61 6h2.22l.4-6ZM10.67 6.02 9.77 6v.7l.39.07.51-.75Zm-.02.86.7-.81.46.05-.82.85a8.96 8.96 0 0 0-.34-.1Zm.72.2c.15.05.28.11.4.17l1.25-.94-.5-.1-1.15.87Zm2.06-.67-1.52.93c.08.06.14.12.16.18l2.04-.87c-.2-.1-.43-.17-.68-.24Zm1.13.48-2.47.76c-.03.5-.47.82-2.51.82l-.2 1.06h3.1c.7 0 2.2-.35 2.5-1.77.08-.35-.1-.64-.42-.87Z" fill="#fff"/></svg>