<!-- by TradingView --><svg width="18" height="18" viewBox="0 0 18 18" xmlns="http://www.w3.org/2000/svg"><path fill="#F0F3FA" d="M0 0h18v18H0z"/><path d="M4.73 12a6.4 6.4 0 0 1-.1-1.15c0-3.32 2.54-6.01 5.68-6.01.59 0 1.16.09 1.69.27C11.16 4.4 10.1 4 8.96 4 6.22 4 4 6.35 4 9.25c0 1 .27 1.95.73 2.75Z" fill="url(#a)"/><path d="M9.01 14A4.99 4.99 0 0 0 14 9.01V9h-.01A4.99 4.99 0 0 0 9 14h.01Z" fill="url(#b)"/><path d="M13.7 6.97a3.88 3.88 0 0 0-2.01-.52 5.28 5.28 0 0 0-5.25 5.32c0 .77.17 1.41.46 1.94a3.51 3.51 0 0 1-1.72-3.22 5.28 5.28 0 0 1 5.25-5.31c1.59 0 2.64.74 3.28 1.79Z" fill="url(#c)"/><path d="M14 8.3c-3.3 0-5.7 2.4-5.7 5.7-1.02-.53-1.3-1.2-1.3-2.39A4.6 4.6 0 0 1 11.6 7c1.2 0 2.03.43 2.4 1.3Z" fill="url(#d)"/><defs><linearGradient id="a" x1="11.31" y1="4.65" x2="4" y2="11.02" gradientUnits="userSpaceOnUse"><stop stop-color="#FFC200"/><stop offset="1" stop-color="#E56015"/></linearGradient><linearGradient id="b" x1="12.19" y1="9" x2="11.5" y2="14" gradientUnits="userSpaceOnUse"><stop stop-color="#054A8B"/><stop offset="1" stop-color="#14295A"/></linearGradient><linearGradient id="c" x1="12.8" y1="5.99" x2="5.68" y2="12.55" gradientUnits="userSpaceOnUse"><stop stop-color="#69C3F3"/><stop offset="1" stop-color="#0179BB"/></linearGradient><linearGradient id="d" x1="13.36" y1="7.51" x2="7.24" y2="13" gradientUnits="userSpaceOnUse"><stop stop-color="#0391DD"/><stop offset="1" stop-color="#005399"/></linearGradient></defs></svg>