<!-- by TradingView --><svg width="18" height="18" viewBox="0 0 18 18" xmlns="http://www.w3.org/2000/svg"><path fill="#F0F3FA" d="M0 0h18v18H0z"/><path fill-rule="evenodd" d="M9 14A5 5 0 1 0 9 4a5 5 0 0 0 0 10Zm0-1a4 4 0 0 0 3.99-4.3H10.3a.92.92 0 0 0-.68-1.55H7.46V8.7H6.02a3 3 0 0 1 5.84-.61h1.03A4 4 0 0 0 5.01 9.3h2.45v1.54h2.25a.92.92 0 0 0 .69-1.54h1.58a3 3 0 0 1-5.84.61H5.11A4 4 0 0 0 9 13Zm-.62-4.92h.93a.3.3 0 0 1 0 .61h-.93v-.61Zm.93 1.84h-.93v-.61h.93a.3.3 0 0 1 0 .61Z" fill="#04467A"/></svg>