<!-- by TradingView --><svg width="18" height="18" viewBox="0 0 18 18" xmlns="http://www.w3.org/2000/svg"><path fill="#F0F3FA" d="M0 0h18v18H0z"/><path d="M3 7.8V6.5l1.9.23c.04 0 .07-.01.1-.05.2-.3.4-.59.64-.84.09-.09.1-.08.04.03l-.47.85a.04.04 0 0 0 0 .03l.01.02h.02l.44.05c.06.01.1.05.1.12v.56c0 .06-.04.1-.1.1l-.84.07-.02.01a5.27 5.27 0 0 0-.14.92l1.16-.24c.04-.01.06 0 .08.05l.18.6c.01.04 0 .06-.03.07l-1.37.6c-.04.01-.06.04-.04.09l.22.79c.01.05.04.06.08.03l1.44-.93c.03-.02.06-.01.09.02l.35.48c.03.04.03.08 0 .12l-1.31 1.25c-.04.04-.04.08 0 .13l.6.6c.03.04.07.04.1-.01l1.08-1.7c.02-.04.05-.04.08-.02l.55.3c.04.02.05.05.03.08l-.76 1.98c-.02.04 0 .07.04.08l.85.3c.05.03.08 0 .09-.05l.33-2.1c0-.04.03-.06.07-.05l.59.13a.1.1 0 0 1 .05.04.1.1 0 0 1 .02.06l.07 2.08c0 .05.02.07.06.07l.68-.02h.02l.02-.02a.06.06 0 0 0 .01-.04l-.17-2c0-.05.01-.08.06-.08h.63c.04 0 .06.02.07.06l.5 1.76c.02.04.04.05.08.04.35-.13.67-.28.98-.46.03-.02.03-.05.02-.08l-.81-1.35c-.02-.04-.01-.06.02-.07l.79-.21a.1.1 0 0 1 .1.02l.85.8a.07.07 0 0 0 .06.02h.02l.03-.02.4-.54c.03-.04.03-.07 0-.1l-.51-.6c-.03-.03-.03-.06 0-.08.44-.29.74-.66.89-1.11.01-.05.04-.06.08-.04l.1.05a.04.04 0 0 0 .05 0l.02-.01v-.03a4.16 4.16 0 0 0-1.86-3.64v-.68a.02.02 0 0 1 .01-.01h.01c.67.4 1.21.9 1.63 1.5 1.72 2.45.64 5.51-1.78 6.8a5.77 5.77 0 0 1-7.19-1.36c-.03-.03-.06-.04-.1 0l-.22.21c-.03.03-.06.03-.08 0l-.69-.94c-.03-.03-.02-.07.02-.1l.34-.2c.07-.05.08-.11.05-.2-.1-.23-.16-.49-.2-.76-.01-.07-.05-.1-.12-.07l-.58.26c-.05.02-.08 0-.1-.05l-.33-1.12c-.02-.04 0-.06.03-.07l1.02-.21c.03 0 .05-.03.05-.06.03-.28.1-.58.2-.9.02-.03 0-.05-.02-.04L3 7.8Zm7.8-1.51-.29 1.15s0 .02-.02.02h-.02l-.37-.09-.02-.01v-.03l.03-1.06.01-.02.03-.02h.61a.04.04 0 0 1 .03.02v.04Zm-1.14.96-.04-.91c0-.01 0-.02-.02-.03h-.66a.04.04 0 0 0 0 .04l.26.93.01.02.02.01.4-.02a.03.03 0 0 0 .02-.01.04.04 0 0 0 0-.03Zm2.27-.6-.69 1.05-.02.01h-.02l-.35-.13-.01-.01-.01-.01a.04.04 0 0 1 0-.04l.4-1.13c0-.01 0-.02.02-.02h.03l.63.21.02.01v.02a.04.04 0 0 1 0 .04Zm-3.23.74-.27-.7-.02-.01H8.4l-.6.22h-.02v.02a.04.04 0 0 0 0 .04l.45.68.02.02h.03l.41-.22c.01 0 .02 0 .02-.02V7.4Zm2.68.59.92-.93a.03.03 0 0 1 .03 0 .03.03 0 0 1 .02.01l.43.65v.01a.04.04 0 0 1 0 .03l-.01.01-1.1.58h-.04l-.25-.31v-.05Zm-3.57-.03-.52-.58-.02-.01h-.02l-.47.43-.01.01a.04.04 0 0 0 0 .04h.01l.66.48a.03.03 0 0 0 .04 0L7.81 8v-.01a.04.04 0 0 0 0-.04Zm5.06 1.1-.94.07h-.02l-.01-.02-.1-.33v-.03l.01-.02 1.01-.44a.04.04 0 0 1 .04 0v.02l.01.02.04.69-.01.03h-.03Zm-.78.85.8-.01h.03v-.03l.06-.5v-.01l-.01-.01-.02-.01-.92.11a.03.03 0 0 0-.02.01.04.04 0 0 0 0 .03l.05.4.01.02h.02Z" fill="#3075D6"/></svg>