<!-- by TradingView --><svg width="18" height="18" viewBox="0 0 18 18" xmlns="http://www.w3.org/2000/svg"><path fill="#F0F3FA" d="M0 0h18v18H0z"/><path d="M5.46 9.14c.54.02 1.07.19 1.45.53a1.22 1.22 0 0 1 .37 1.2 1.9 1.9 0 0 1-.76 1.2l-.24.16c-.35.21-.72.37-1.09.46a19.25 19.25 0 0 1-1.48.3c-.05-.13-.1-.3-.15-.5a2.22 2.22 0 0 1-.06-.53c0-.17.04-.35.14-.5.13-.19.34-.28.58-.34l.37-.1c.12-.04.22-.1.3-.16a.76.76 0 0 0 .28-.6c-.01-.25-.13-.42-.35-.55-.16-.09-.36-.15-.54-.2l-.43-.1a2.07 2.07 0 0 1-.49-.19.66.66 0 0 1-.34-.44c-.03-.13-.04-.32.11-.4.1-.04.28 0 .4.03a24.96 24.96 0 0 0 .54.15c.08.02.16.03.25.03.1 0 .18-.01.25-.04.2-.07.36-.24.37-.44a.79.79 0 0 0-.14-.44 2271.45 2271.45 0 0 1-.6-1.06c-.07-.14-.1-.28-.1-.43-.01-.15 0-.3.04-.43A2.1 2.1 0 0 1 4.53 5c.52.17.99.4 1.42.68.19.12.36.26.53.43.25.25.44.54.56.86.06.19.09.4.07.6-.03.25-.12.49-.27.7-.13.2-.29.35-.47.48a2.3 2.3 0 0 1-.9.39ZM11.18 6.16c1.58.01 2.83 1.2 2.82 2.61-.01 1.42-1.28 2.58-2.87 2.57-1.58-.01-2.83-1.2-2.82-2.61.01-1.42 1.29-2.58 2.87-2.57Zm-1.5 2.58c-.01.74.64 1.36 1.47 1.36.82 0 1.48-.6 1.49-1.34 0-.74-.65-1.35-1.47-1.36-.83 0-1.5.6-1.5 1.34Z" fill="#7EC500"/><path d="M12.51 5.44a2.32 2.32 0 0 0-1.58-.4 2.4 2.4 0 0 0-1.54.77.56.56 0 0 0-.05.06 2.63 2.63 0 0 1 1.1.16l.19.08h.02c.16-.02.31-.04.47-.04a3.15 3.15 0 0 1 2.29.94c-.01-.3-.1-.6-.25-.87a2.1 2.1 0 0 0-.65-.7Zm-3.5 1.47a3 3 0 0 1 1.45-.77c-.14-.06-.29-.1-.44-.14a2.33 2.33 0 0 0-1.88.45c-.25.2-.43.43-.55.7-.2.45-.23.9-.07 1.36a2.2 2.2 0 0 1 .93-.82l.02-.04c.14-.28.32-.52.55-.74Zm-.8 1.87a2.54 2.54 0 0 0 .7 1.7 1.93 1.93 0 0 0 .41 1.15 2.42 2.42 0 0 1-.91-.28 2.04 2.04 0 0 1-1.1-1.61 1.97 1.97 0 0 1 1.08-1.9c-.12.3-.18.62-.18.94Zm5.2-2.73-.2-.04h-.01l.1.18a2.04 2.04 0 0 1 .22.96 2.56 2.56 0 0 1 .57 1.78 2.77 2.77 0 0 1-.1.58 1.99 1.99 0 0 0 .8-.99 1.8 1.8 0 0 0-.29-1.74 2.08 2.08 0 0 0-1.09-.73Zm1.4 2.7.1.27c.19.6.08 1.23-.31 1.74a2.34 2.34 0 0 1-1.58.87 2.45 2.45 0 0 1-1.33-.24 3.16 3.16 0 0 0 1.68-.87 2.7 2.7 0 0 0 .56-.86c.3-.17.53-.38.72-.65l.15-.25Zm-5.36 2.19a3.07 3.07 0 0 1-.43-.34c.05.57.38 1.1.9 1.42a2.29 2.29 0 0 0 2.82-.29 2.53 2.53 0 0 1-1.24-.32l-.18.02a3.3 3.3 0 0 1-1.87-.5Z" fill="url(#a)"/><defs><linearGradient id="a" x1="14.65" y1="7.23" x2="7.4" y2="9.91" gradientUnits="userSpaceOnUse"><stop stop-color="#008196"/><stop offset=".26" stop-color="#28A53D"/><stop offset=".54" stop-color="#EFC300"/><stop offset="1" stop-color="#E6363B"/></linearGradient></defs></svg>