<!-- by TradingView --><svg width="18" height="18" viewBox="0 0 18 18" xmlns="http://www.w3.org/2000/svg"><path fill="#F0F3FA" d="M0 0h18v18H0z"/><path d="M2 11V7h3v4h-.9v-.4h.3V10h-.36l-.12-.5-.12.5h-.6l-.12-.5-.12.5H2.6v-.25h.12L3.2 8h.6l.12.63.12-.63h.36v-.6H2.6V11H2Zm2.4-2.75h-.24L4.04 9l.12.75h.24v-1.5ZM2.96 8H2.6v.25h.24v.5L2.96 8Zm.6.13h-.12L3.2 9l.24.88h.12L3.8 9l-.24-.88ZM5.5 10.6v.4h3v-.4h-1V8.4h1V8h-1V7h-1v3.6h-1Z" fill="#0074FF"/><path fill-rule="evenodd" d="M9 7.57c0-.31.2-.57.47-.57h6.06c.26 0 .47.26.47.57v2.86c0 .31-.2.57-.47.57H9.47c-.26 0-.47-.26-.47-.57V7.57Zm4.48-.24v.34h-1.12V8h1.12v.33h-.84v2h.56V8.67h.28v2h.84v-2h.28V10h-.14v.33h.7v-2h-.84V8h1.12v-.33h-1.12v-.34h-.84ZM10.8 8l.12-.33h1.16V8H10.8Zm-.12.33V9h-.28v.33h.28v.34H9.56V10h1.12v.67h.84V10h.84v-.33h-.84v-.34h.84V9h-.84v-.67h-.84Zm-.7-1h.7l-.5 2H9.4l.38-1.43h-.51l.13-.28h.5l.07-.29Z" fill="#0074FF"/></svg>