<!-- by TradingView --><svg width="18" height="18" viewBox="0 0 18 18" xmlns="http://www.w3.org/2000/svg"><path fill="#F0F3FA" d="M0 0h18v18H0z"/><path d="M4 5.68C4 4.75 4.75 4 5.68 4h6.64c.93 0 1.68.75 1.68 1.68V9h-2.57l-.97 1.8L10.3 9h-.64l-.81 1.8L8.54 9h-.65l.43 3h.53l.97-1.8.16 1.8h.7l1.11-2.4H14v2.72c0 .93-.75 1.68-1.68 1.68H5.68C4.75 14 4 13.25 4 12.32V5.68ZM12.63 12l.4-2.4h-.56l-.4 2.4h.56ZM7.47 9.9l.42-.47C7.8 9.29 7.45 9 6.83 9 6.04 9 5 9.61 5 10.7c0 1.1.88 1.3 1.26 1.3a2.7 2.7 0 0 0 1.4-.43c.01-.14.09-.53.16-.86l.07-.36H6.67l-.06.45h.64l-.12.36-.07.03c-.16.09-.4.21-.67.21-.32 0-.75-.13-.75-.7 0-.56.5-1.1 1.1-1.1.4 0 .66.19.73.3Z" fill="#025EA9"/></svg>