<!-- by TradingView --><svg width="18" height="18" viewBox="0 0 18 18" xmlns="http://www.w3.org/2000/svg"><path fill="#F0F3FA" d="M0 0h18v18H0z"/><path fill-rule="evenodd" d="M9 14V9.24c0-.24.1-.47.34-.6l3.14-1.63c.23-.13.52.03.52.27v.63c0 .22-.12.41-.32.53l-2.15 1.2a.53.53 0 0 0-.28.45v.59c0 .15.19.25.33.17l2.26-1.22c.07-.03.16.01.16.08v.85c0 .21-.12.41-.32.53l-2.2 1.25a.45.45 0 0 0-.23.4v.97l3.11-1.6c.53-.29.64-.8.64-1.36V7.28c0-.57-.34-1.1-.89-1.37L9.66 4.16a1.56 1.56 0 0 0-1.4 0L4.88 5.92c-.54.27-.88.8-.88 1.37v3.51c0 .57.34 1.1.88 1.37l3.33 1.72c.16.08.34.12.52.12H9Zm-1-1.7V9.09c-.01-.18-.1-.57-.72-.67-.25 0-.28.19-.28.44v1.7c-.01.07-.1.23-.26.23-.2 0-.74-.37-.74-.75V8.1c0-.4.36-.77.75-.96l2-1.06C8.8 6.05 9 6 9.18 6c.24 0 .33.16.33.23s-.14.17-.33.27l-.37.23c-.36.23-.89.55-1.2.72-.06.03-.18.12-.18.22 0 .12.3.45.78.45.33 0 .77-.27 1.02-.41l.06-.04 2.26-1.13c.08-.05.25-.17.25-.26 0-.1-.13-.16-.66-.44l-.08-.04L9.55 5a.96.96 0 0 0-.88-.02L5.44 6.65a.76.76 0 0 0-.44.67v3.38c0 .23.06.44.29.55l2.33 1.25c.17.09.38-.02.38-.2Z" fill="#CCA540"/></svg>