<!-- by TradingView --><svg width="18" height="18" viewBox="0 0 18 18" fill="none" xmlns="http://www.w3.org/2000/svg">
<rect width="18" height="18" fill="#F0F3FA"/>
<path fill-rule="evenodd" clip-rule="evenodd" d="M7.38978 4L7.0508 4.16949L8.23722 4.50847L7.89824 4.84746C8.12423 4.84746 8.6101 4.81356 8.74569 4.67797C8.88128 4.54237 9.02817 4.16949 9.08466 4H7.38978ZM13.3219 9.25424C13.8772 9.05847 14.0052 8.4947 13.9998 8.23729C13.9998 6.74576 12.5309 5.24294 11.7965 4.67797L11.966 5.52542H11.4575C11.5606 5.73169 11.7265 5.74969 11.917 5.77036C12.0395 5.78365 12.1722 5.79805 12.305 5.86441C12.6439 6.0339 13.4914 7.05085 13.4914 7.55932C13.4914 7.9661 13.2654 8.18079 13.1524 8.23729L13.3219 9.25424ZM4.50847 11.4576C4.56496 11.4011 4.71185 11.2881 4.84744 11.2881C4.91765 11.2881 4.98785 11.3172 5.0701 11.3513C5.18642 11.3995 5.32683 11.4576 5.5254 11.4576C5.86438 11.4576 6.54233 11.1186 6.54233 10.9492C6.54233 10.7797 6.54233 9.25424 7.22029 8.57627C7.89824 7.89831 8.40671 7.89831 8.91518 7.89831C9.32195 7.89831 9.87561 7.55932 10.1016 7.38983C10.3276 7.33333 10.8473 7.22034 11.1185 7.22034C11.4575 7.22034 12.9829 7.22034 12.9829 8.74576C12.9829 8.97175 12.949 9.45763 12.8134 9.59322V8.40678C12.8134 8.29379 12.7456 8.0678 12.4744 8.0678V9.08475C12.5309 9.31073 12.7456 9.86441 13.1524 10.2712C13.6609 10.7797 13.3219 12.3051 11.7965 13.1525C12.0225 12.9266 12.4744 12.4068 12.4744 12.1356L11.966 12.4746C12.0225 12.3616 12.1694 12.1017 12.305 11.9661C12.3365 11.9346 12.3739 11.903 12.4139 11.8693C12.5889 11.7218 12.8134 11.5325 12.8134 11.1186C12.8134 10.7048 12.3644 10.5155 12.0145 10.368C11.9344 10.3343 11.8596 10.3027 11.7965 10.2712C11.6656 10.2058 11.5095 10.0141 11.3379 9.80334C11.065 9.46813 10.7528 9.08475 10.4406 9.08475C10.1378 9.08475 9.89513 9.38522 9.64099 9.69991C9.46832 9.9137 9.29036 10.1341 9.08466 10.2712C8.86055 10.4206 8.66936 10.4712 8.46757 10.5247C8.21153 10.5925 7.9384 10.6648 7.55926 10.9492C7.44295 11.0364 7.33162 11.1236 7.22356 11.2083C6.70184 11.6171 6.25652 11.9661 5.69489 11.9661H5.18642C5.12993 12.0226 4.98304 12.1356 4.84744 12.1356C4.67796 12.1356 4.67796 11.9661 4.67796 11.7966C4.67796 11.661 4.79095 11.5141 4.84744 11.4576H4.50847ZM6.03387 10.4407C5.86438 10.3277 5.42371 10.1017 5.01693 10.1017C4.61016 10.1017 4.39547 10.5537 4.33898 10.7797C4.20339 10.5085 4.28248 10.1017 4.33898 9.9322C4.20339 9.9322 4.0565 10.1582 4 10.2712C4 9.76271 4.33898 9.76271 4.67796 9.76271C4.87652 9.76271 5.01693 9.64639 5.13325 9.55003C5.2155 9.48189 5.28571 9.42373 5.35591 9.42373C5.41474 9.42373 5.45314 9.42373 5.48531 9.4379C5.54582 9.46456 5.58422 9.54138 5.69489 9.76271L6.03387 10.4407ZM7.89824 11.6271L7.38978 11.4576C7.57616 11.0849 7.91626 11.0195 8.26921 10.9517C8.55818 10.8962 8.85577 10.8391 9.08466 10.6102C9.14046 10.5544 9.21711 10.4704 9.30656 10.3723L9.30658 10.3723C9.64677 9.99952 10.1722 9.42373 10.4406 9.42373C10.7118 9.42373 11.2315 9.9887 11.4575 10.2712C11.175 10.4972 10.6101 11.0847 10.6101 11.6271C10.6101 11.9661 10.6948 12.0508 10.7796 12.1356C10.8643 12.2203 10.949 12.3051 10.949 12.6441C10.949 13.1864 10.1581 13.774 9.76262 14H7.89824L9.08466 13.661H8.06773C8.18072 13.548 8.5084 13.4915 8.91518 13.4915C9.42364 13.4915 9.59313 13.4915 9.93211 13.1525C10.2033 12.8814 10.2711 12.4746 10.2711 12.3051C9.9999 11.8983 9.70612 11.1186 9.59313 10.7797L9.08466 11.2881H8.40671C8.13553 11.2881 7.95474 11.5141 7.89824 11.6271ZM8.74569 7.55932C9.14116 7.61582 9.93211 7.62712 9.93211 7.22034C9.93211 6.9661 9.76262 6.79661 9.59313 6.62712C9.42364 6.45763 9.25415 6.28814 9.25415 6.0339C9.25415 5.62712 9.36715 5.29944 9.42364 5.18644L8.91518 4.84746C8.80218 4.84746 8.5762 5.01695 8.5762 5.69492C8.5762 6.37288 8.68919 7.22034 8.74569 7.55932ZM9.25415 4H9.42364C9.36715 4.0565 9.28805 4.16949 9.42364 4.16949C9.55923 4.16949 9.59313 4.0565 9.59313 4C10.1581 4.0565 11.288 4.23729 11.288 4.50847C11.288 4.70705 11.0554 4.73114 10.8627 4.75109C10.7264 4.76521 10.6101 4.77725 10.6101 4.84746V5.18644L10.4406 5.01695L10.2711 5.18644V4.84746C10.2711 4.73446 10.2372 4.50847 10.1016 4.50847C10.0169 4.50847 9.88974 4.59322 9.76262 4.67797C9.6355 4.76271 9.50839 4.84746 9.42364 4.84746C9.25415 4.84746 9.08466 4.84746 9.08466 4.67797C9.08466 4.54237 9.19766 4.16949 9.25415 4ZM6.03387 4.84746C6.05704 4.85615 6.08193 4.86644 6.10842 4.87839C6.08528 4.86669 6.06047 4.85633 6.03387 4.84746ZM6.37284 5.69492C6.42564 5.48371 6.43897 5.04549 6.10842 4.87839C6.5986 5.09947 7.63487 5.88698 8.40671 7.55932C7.67226 7.72881 6.23725 8.54237 6.37284 10.4407C6.03387 9.9322 5.42371 8.54237 5.69489 7.05085C6.03387 6.93785 6.71182 6.61017 6.71182 6.20339C6.71182 5.79661 6.48584 5.69492 6.37284 5.69492ZM5.01693 6.71186C5.07343 6.76836 5.22032 6.88136 5.35591 6.88136C5.5254 6.88136 6.54233 6.37288 6.54233 6.20339C6.54233 6.0678 6.31635 5.9209 6.20335 5.86441C6.25985 5.69492 6.33895 5.32203 6.20335 5.18644C6.03387 5.01695 5.86438 5.01695 5.69489 5.01695C5.5254 5.01695 4.67796 5.86441 4.67796 6.20339C4.67796 6.47458 4.90394 6.54237 5.01693 6.54237C5.01693 6.37288 5.08473 6.0678 5.35591 6.20339C5.69489 6.37288 5.5254 6.71186 5.01693 6.71186ZM5.77963 5.1017L5.94912 5.27119C5.99592 5.31799 5.99592 5.39387 5.94912 5.44068C5.90232 5.48748 5.82643 5.48748 5.77963 5.44068L5.61014 5.27119C5.56334 5.22438 5.56334 5.1485 5.61014 5.1017C5.65694 5.05489 5.73283 5.05489 5.77963 5.1017ZM12.1355 5.44068C12.1355 5.39388 12.1734 5.35593 12.2202 5.35593C12.267 5.35593 12.3049 5.39388 12.3049 5.44068C12.3049 5.48748 12.267 5.52543 12.2202 5.52543C12.1734 5.52543 12.1355 5.48748 12.1355 5.44068ZM5.3738 5.60123C5.29659 5.63983 5.29659 5.75 5.3738 5.78861C5.44345 5.82343 5.5254 5.77279 5.5254 5.69492C5.5254 5.61705 5.44345 5.5664 5.3738 5.60123Z" fill="#54555A"/>
</svg>
