<!-- by TradingView --><svg width="18" height="18" viewBox="0 0 18 18" xmlns="http://www.w3.org/2000/svg"><path fill="#F0F3FA" d="M0 0h18v18H0z"/><path d="M10.42 12.87c.04.08.12.13.22.13h1.91c.08 0 .16-.04.2-.1l1.21-1.82a.2.2 0 0 0 .02-.21L12.83 8.6l-2.94 3.24L8.82 13h.32l.87-.92.4.8Z" fill="#02426E"/><path fill-rule="evenodd" d="m9.91 11.5 2.8-3.12-2.16-4.25a.25.25 0 0 0-.22-.13h-1.4c-.1 0-.18.05-.23.13L4 13h.49l.89-1.5h4.53Zm-.75-.3c.18 0 .3-.18.22-.33L8.1 8.13A.25.25 0 0 0 7.88 8h-.67c-.1 0-.18.05-.22.12l-1.35 2.75c-.08.15.03.33.22.33h3.3Z" fill="#02426E"/></svg>