<!-- by TradingView --><svg width="18" height="18" viewBox="0 0 18 18" xmlns="http://www.w3.org/2000/svg"><path fill="#F0F3FA" d="M0 0h18v18H0z"/><path d="M5.39 7.76H4l3.13 2.83.5-.07L5.4 7.76Z" fill="url(#a)"/><path d="M6.53 7H4.81l2.67 3.53.52-.1L6.53 7Z" fill="url(#b)"/><path d="M12.61 7.76H14l-3.13 2.83-.5-.07 2.24-2.76Z" fill="url(#c)"/><path d="M11.47 7h1.72l-2.67 3.53-.52-.1L11.47 7Z" fill="url(#d)"/><path d="M7 6.35 9 6l2 .35-2 .36-2-.36Z" fill="url(#e)"/><path d="M8.52 10.44 7 6.35l2 .26v3.83h-.48Z" fill="url(#f)"/><path d="M9.58 10.44 11 6.35l-1.9.26v3.83h.48Z" fill="url(#g)"/><path d="m9 12 .55-.7h-1.1L9 12Z" fill="#C49845"/><path d="M3 12c.55-.33 2.51-1 6-1s5.45.67 6 1c-2.12-.7-3.63-.77-6-.77s-3.88.07-6 .77Z" fill="#C49845"/><defs><linearGradient id="a" x1="5.82" y1="7.76" x2="5.82" y2="10.59" gradientUnits="userSpaceOnUse"><stop stop-color="#C99F4D"/><stop offset="1" stop-color="#F7ECB9"/></linearGradient><linearGradient id="b" x1="6.4" y1="7.09" x2="6.4" y2="10.43" gradientUnits="userSpaceOnUse"><stop stop-color="#C99F4D"/><stop offset="1" stop-color="#F7ECB9"/></linearGradient><linearGradient id="c" x1="12.18" y1="7.76" x2="12.18" y2="10.59" gradientUnits="userSpaceOnUse"><stop stop-color="#C99F4D"/><stop offset="1" stop-color="#F7ECB9"/></linearGradient><linearGradient id="d" x1="11.6" y1="7.09" x2="11.6" y2="10.43" gradientUnits="userSpaceOnUse"><stop stop-color="#C99F4D"/><stop offset="1" stop-color="#F7ECB9"/></linearGradient><linearGradient id="e" x1="7" y1="6.35" x2="11" y2="6.35" gradientUnits="userSpaceOnUse"><stop stop-color="#E0C378"/><stop offset="1" stop-color="#F9F3CA"/></linearGradient><linearGradient id="f" x1="7.97" y1="6.32" x2="7.97" y2="10.44" gradientUnits="userSpaceOnUse"><stop stop-color="#C99F4D"/><stop offset="1" stop-color="#F7ECB9"/></linearGradient><linearGradient id="g" x1="10.13" y1="6.32" x2="10.13" y2="10.44" gradientUnits="userSpaceOnUse"><stop stop-color="#C99F4D"/><stop offset="1" stop-color="#F7ECB9"/></linearGradient></defs></svg>