<!-- by TradingView --><svg width="18" height="18" viewBox="0 0 18 18" xmlns="http://www.w3.org/2000/svg"><path fill="#F0F3FA" d="M0 0h18v18H0z"/><path fill-rule="evenodd" d="M9 12.5c3.31 0 6-1.57 6-3.5s-2.69-3.5-6-3.5S3 7.07 3 9c0 .7.35 1.35.96 1.9h4.2v-.59l-1.4-2.67h1.2l.55 1.2h2.87l-1.54.14-.17.47h1.4l-1.45.12-.18.49h1.43l-1.47.12-.18.49h1.36l-1.4.11-.19.5h1.39l-1.43.11-.1.3h-3.7A8.9 8.9 0 0 0 9 12.5ZM7.7 6.7c0 .28-.26.52-.6.52-.32 0-.59-.24-.59-.53 0-.29.27-.53.6-.53.33 0 .6.24.6.53Zm1.73.17-.12.24 2.56-.24H9.43Zm-.33.82.12-.23h2.44l-2.56.23Zm-.16.52-.12.24 2.56-.24H8.94Z" fill="#2322FF"/></svg>