<!-- by TradingView --><svg width="18" height="18" viewBox="0 0 18 18" xmlns="http://www.w3.org/2000/svg"><path fill="#F0F3FA" d="M0 0h18v18H0z"/><path d="M4.49 9.67c-.33 0-.5-.2-.49-.58V4.46c0-.15.02-.27.05-.36a.1.1 0 0 1 .02-.03.08.08 0 0 1 .04-.02.86.86 0 0 1 .27-.05h2.78c.25.01.4.17.4.46v3.01c0 .2-.02.35-.05.42a.2.2 0 0 1-.07.08.17.17 0 0 1-.1.03h-2c-.03 0-.05-.01-.05-.04V5.72c0-.03.02-.05.05-.05h.87c.04 0 .06.02.06.06v1.2l.01.05.05.02h.2c.05 0 .06-.02.06-.06V5.37c0-.02 0-.04-.03-.04h-1.5c-.03 0-.06.03-.06.06v2.9c0 .02 0 .04.05.04h2.02c.33 0 .5.21.5.58v4.63c0 .15-.03.27-.06.36a.1.1 0 0 1-.02.03.08.08 0 0 1-.03.03.87.87 0 0 1-.28.04H4.4c-.25-.01-.4-.17-.4-.46v-3.01c0-.2.02-.35.05-.42a.17.17 0 0 1 .17-.11h2c.03 0 .05.01.05.04v2.24c0 .04-.02.05-.05.05h-.87c-.03 0-.05-.02-.05-.06v-1.33c0-.02 0-.04-.02-.05a.06.06 0 0 0-.05-.02h-.2c-.05 0-.03.02-.03.06v1.7c0 .02-.03.04 0 .04h1.54c.01 0 .02 0 .03-.02a.06.06 0 0 0 .02-.04V9.7l-.01-.03-.03-.01H4.5ZM13.51 9.67c.33 0 .5-.2.49-.58V4.46c0-.15-.02-.27-.05-.36a.1.1 0 0 0-.02-.03.08.08 0 0 0-.04-.02.86.86 0 0 0-.27-.05h-2.78c-.26.01-.4.17-.4.46v3.01c0 .2.02.35.05.42a.2.2 0 0 0 .07.08c.02.02.06.03.1.03h2c.03 0 .04-.01.04-.04V5.72c0-.03-.01-.05-.05-.05h-.86c-.04 0-.06.02-.06.06v1.2c0 .02 0 .04-.02.05a.06.06 0 0 1-.04.02h-.21c-.04 0-.05-.02-.05-.06V5.37c0-.02 0-.04.02-.04h1.54c.02 0 .03 0 .04.02.01.01-.01.02-.01.04v2.9c0 .02.02.03.02.03l-.03.01h-2.07c-.32 0-.49.21-.49.58v4.63c0 .15.03.27.05.36l.03.03.03.03c.06.02.16.04.28.04h2.78c.25-.01.4-.17.4-.46v-3.01c0-.2-.02-.35-.05-.42a.17.17 0 0 0-.17-.11h-2c-.03 0-.05.01-.05.04v2.24c0 .04.02.05.05.05h.87c.03 0 .05-.02.05-.05v-1.34c0-.02 0-.04.02-.05a.06.06 0 0 1 .05-.02h.2c.05 0 .03.02.03.06v1.7c0 .02.03.04 0 .04h-1.54c-.01 0-.03 0-.04-.02a.06.06 0 0 1-.01-.04V9.68l.03-.01h2.07ZM7.73 14a.05.05 0 0 1-.05-.05c0-.17.03-.32.09-.46a.15.15 0 0 1 .05-.06l.16-.12c.02-.02.02-.04.02-.08V5.08a.39.39 0 0 0-.07-.25c-.17-.2-.24-.46-.22-.79 0-.02.01-.04.03-.04h2.52c.02 0 .03.02.03.04.03.33-.05.6-.21.8a.4.4 0 0 0-.08.24v8.15c0 .04 0 .06.03.07l.16.13c.02.01.04.03.05.06.06.13.09.29.08.46 0 .02-.01.05-.04.05H7.73Z" fill="#2E6536"/></svg>