<!-- by TradingView --><svg width="18" height="18" viewBox="0 0 18 18" xmlns="http://www.w3.org/2000/svg"><path fill="#F0F3FA" d="M0 0h18v18H0z"/><path d="M8 5.14a3.06 3.06 0 0 1 2.47.28 1.96 1.96 0 0 1 .53.44v.03l-.02.02h-.02l-.57.02a.52.52 0 0 1-.26-.08 3.86 3.86 0 0 0-1.37-.31c-.4 0-.8.11-1.2.35A3.87 3.87 0 0 0 6.36 7h-.02l-.02-.01-.3-.3C6 6.7 6 6.68 6 6.66A3.7 3.7 0 0 1 8 5.15Zm1.6.37c.25.07.45.15.57.23a.4.4 0 0 0 .26.07c.09-.01.19 0 .29.01.07.01.07 0 .02-.05-.1-.1-.23-.17-.35-.24a2.94 2.94 0 0 0-3.14.1 4.05 4.05 0 0 0-1.07 1.02l.15.15h.03c.35-.48.75-.84 1.2-1.08a2.7 2.7 0 0 1 2.04-.2ZM14.03 6.54h1.25c.03 0 .04.01.03.04l-.8 1.75a.04.04 0 0 0 0 .04l.01.01h.56c.03 0 .05 0 .07-.03l.03-.1c.02-.04.05-.04.08-.03.02.01.03.03.03.05l-.01.05-.24.34a.08.08 0 0 1-.07.03h-1.35l-.01-.01a.03.03 0 0 1 0-.03l.95-1.75a.03.03 0 0 0 0-.04h-.02l-.02-.01h-.63c-.02 0-.03-.02-.03-.04.02-.15.08-.27.17-.27Z" fill="#D82019"/><path d="M15.52 6.67c.17-.1.3-.16.4-.2.07-.02.09 0 .08.06l-.04.15c-.02.1-.09.17-.2.2l-.51.17c-.04.01-.05 0-.03-.03.04-.06.08-.13.1-.2.04-.08.1-.1.2-.15ZM15.22 7.3l.28.25c.05.04.05.08 0 .12a.6.6 0 0 0-.14.21l-.02.02-.03.02h-.03l-.03-.02-.3-.26c-.04-.04-.05-.09-.01-.14l.11-.18c.05-.07.1-.08.17-.02ZM9.91 8.11l-.3.56v.02H9.42l-.02-.01a.03.03 0 0 1 0-.04l1.28-2.4h.52a.03.03 0 0 1 0 .04L9.99 8.66l-.01.02h-.14l-.01-.01a.03.03 0 0 1 0-.03l.24-.5a.03.03 0 0 0-.01-.04h-.13l-.02.01Zm.66-1.27c-.05 0-.07.04-.07.1 0-.06.02-.1.07-.1.08.05.15.03.2-.05l.08-.16c.01-.04 0-.06-.04-.07h-.04c-.05 0-.08.01-.1.06l-.1.22Zm-.47.81c.02-.06.05-.1.12-.12.09.03.16 0 .22-.07l.04-.15c0-.03 0-.04-.02-.06l-.02-.01c-.02-.02-.04-.02-.06 0a.45.45 0 0 0-.16.3.15.15 0 0 0-.12.11ZM11.94 6.45c.05-.2-.12-.26-.5-.2a.08.08 0 0 0-.07.04L10.2 8.62c-.02.04 0 .07.05.07h.03l.06-.02a.1.1 0 0 0 .03-.04l.23-.44.08-.06.05-.02a.03.03 0 0 1 .03.01l.01.02v.02l-.19.44c-.02.05 0 .1.05.1h.04c.03 0 .05-.04.06-.06l1-1.99c.02-.04.05-.04.08 0l.04.03a.1.1 0 0 1 .04.06.1.1 0 0 1-.01.07l-.43.84v.03H11.64c.22.02.23.08.04.18l-.36.2a.52.52 0 0 0-.25.24l-.17.32c-.01.03 0 .06.02.07.06.03.13 0 .17-.06a4.83 4.83 0 0 0 .23-.3h.04c.07.01.12.04.15.1.01.02 0 .04-.01.06-.07.05-.1.1-.12.13 0 .04 0 .07.05.07h.62c.03 0 .05-.02.07-.05l.67-1.26a.08.08 0 0 0 0-.07l-.1-.27a.04.04 0 0 1 .02-.05h.18c.03 0 .05-.02.07-.04l.3-.5c.01-.03 0-.05-.03-.05h-.51l-.01-.1c0-.03-.02-.05-.05-.05a.71.71 0 0 0-.67.22l-.05-.02Zm-.48.37c-.09.02-.14.01-.16-.02.04-.11.08-.2.13-.26.04-.05.09-.06.14-.04.03.01.04.03.03.06l-.14.26Zm.96-.12c-.01-.03 0-.04.02-.04h.23c.03 0 .05.02.04.05a.4.4 0 0 1-.09.16.05.05 0 0 1-.04.01h-.02l-.01-.02-.13-.16Zm.03.6h-.18a.46.46 0 0 1-.01-.26c0-.03.02-.03.04-.01.1.08.15.17.15.27Zm-1.24.04a.48.48 0 0 0-.08.2c-.13.01-.2 0-.21-.03l.08-.17a.12.12 0 0 1 .12-.08h.08l.02.03a.05.05 0 0 1 0 .05Zm.68.9c-.05-.04-.06-.1-.03-.15l.21-.34c.03-.04.07-.06.12-.03h.02c.04.03.05.06.03.1l-.26.42h-.1Z" fill="#D82019"/><path d="M12.94 8.15v-.12c-.02-.03-.03-.04-.05-.02a.29.29 0 0 0-.1.1l-.22.23a.1.1 0 0 0-.02.07c.04.65-.04 1.27-.26 1.86a3.18 3.18 0 0 1-2 2.02c-.5.18-1 .26-1.47.25-1.54-.04-2.69-1.2-3.25-2.58v-.01l-.02-.01-.53-.24a.01.01 0 0 0-.02 0v.01c.14.59.36 1.1.63 1.51A3.77 3.77 0 0 0 9.13 13c.66-.02 1.3-.2 1.9-.52a3.49 3.49 0 0 0 1.75-2.1 5 5 0 0 0 .16-2.23Zm-4.22 4.53h.06c.8 0 1.68-.18 2.33-.62a3.44 3.44 0 0 0 1.41-2.03c.15-.53.2-1.04.18-1.55 0-.05.01-.09.04-.13l.05-.05c.03-.04.05-.03.05.02.03.46.02.9-.05 1.31-.27 1.77-1.5 2.86-3.2 3.17a3.7 3.7 0 0 1-3.52-1.25 4.6 4.6 0 0 1-.9-1.65l.27.13h.01c.57 1.46 1.7 2.52 3.27 2.65Z" fill="#D82019"/><path fill-rule="evenodd" d="M4 6.04c.12.83.55 1.57 1.28 1.96a813.23 813.23 0 0 1 3.18 1.75l-.01.01-.18.29-3.4-1.78a.1.1 0 0 0-.05-.04.04.04 0 0 0-.05.05c.15.7.52 1.2 1.11 1.51l2 1.02c.02 0 .03.02.02.05l-.54 1.07a.05.05 0 0 0 0 .05l.02.01.02.01h1.64c.02 0 .04-.01.05-.03l.63-1.1a.06.06 0 0 1 .06-.04h.8c.28 0 .5-.03.66-.1.36-.15.7-.46.76-.86 0-.03-.01-.05-.04-.05h-2.2a.06.06 0 0 0-.06.04l-.89 1.7a.03.03 0 0 1-.03.02l-.64-.06a.01.01 0 0 1 0-.02l1.04-2.06a.8.8 0 0 0 .09-.26c.02-.27-.14-.39-.37-.52L4.22 6.1 4.04 6h-.02C4 6 4 6.02 4 6.04Zm6.02 4.4 1.14.01h.03a.4.4 0 0 0 .2-.25c.01-.04 0-.05-.03-.05h-1.15a.16.16 0 0 0-.13.07l-.1.14c-.03.05-.02.08.04.08Z" fill="#D82019"/></svg>