<!-- by TradingView --><svg width="18" height="18" viewBox="0 0 18 18" xmlns="http://www.w3.org/2000/svg"><path fill="#F0F3FA" d="M0 0h18v18H0z"/><path d="M11.42 7A3.7 3.7 0 0 0 9 7.88 3.68 3.68 0 0 0 11.53 9c1.21 0 2.15-.64 2.47-.97A4.03 4.03 0 0 0 11.42 7Z" fill="#F56C21"/><circle cx="7.5" cy="5.5" r="1.5" fill="#F56C21"/><circle cx="11" cy="6" r="1" fill="#F56C21"/><path d="M4 9.55c0 1.82 2.68 4.29 4.17 5.41.09.07.21.04.27-.04a.18.18 0 0 0-.02-.21 3.2 3.2 0 0 1-.67-1.98c0-1.33.92-1.73 1.7-1.73.8 0 1.55.3 1.55 1.4 0 .68-.23 1.14-.39 1.32-.06.07-.08.18-.02.24a.14.14 0 0 0 .18.02c2.84-1.84 3.36-4.3 3.2-5.24A2.93 2.93 0 0 1 11.56 10C8.8 10 9.04 7 6.54 7 5.51 7 4 7.82 4 9.55Z" fill="#F56C21"/></svg>