<!-- by TradingView --><svg width="18" height="18" viewBox="0 0 18 18" xmlns="http://www.w3.org/2000/svg"><path fill="#F0F3FA" d="M0 0h18v18H0z"/><path fill-rule="evenodd" d="M14 5H4v8h10V5Zm-1 .62a.3.3 0 0 1-.3.3.3.3 0 0 1-.3-.3c0-.17.13-.31.3-.31.17 0 .3.14.3.3Zm0 .92a.3.3 0 0 1-.3.3.3.3 0 0 1-.3-.3c0-.17.13-.3.3-.3.17 0 .3.13.3.3Zm-.3 1.23a.3.3 0 0 0 .3-.3.3.3 0 0 0-.3-.32.3.3 0 0 0-.3.31c0 .17.13.3.3.3Zm.3.61a.3.3 0 0 1-.3.31.3.3 0 0 1-.3-.3c0-.18.13-.31.3-.31.17 0 .3.13.3.3Zm-.3 1.24a.3.3 0 0 0 .3-.31.3.3 0 0 0-.3-.31.3.3 0 0 0-.3.3c0 .18.13.32.3.32Zm-4.82 1.13h-.64v-.28c0-.05-.05-.1-.12-.1H5.76c-.07 0-.12.05-.12.1v1.09c0 .05.05.1.12.1h1.36c.07 0 .12-.05.12-.1v-.31h.64v.46c0 .16-.16.29-.37.29H5.37c-.2 0-.37-.13-.37-.3v-1.4c0-.17.16-.3.37-.3H7.5c.1 0 .2.03.26.08L7.72 10h.68l.71 1.31.75-1.31h.53l.74 1.31.7-1.31H13v2h-.64v-1.73L11.34 12h-.4l-.82-1.31L9.3 12h-.4l-1.02-1.73V10.75Z" fill="url(#a)"/><defs><linearGradient id="a" x1="9" y1="5" x2="9" y2="13" gradientUnits="userSpaceOnUse"><stop stop-color="#149CC6"/><stop offset="1" stop-color="#065181"/></linearGradient></defs></svg>