<!-- by TradingView --><svg width="18" height="18" viewBox="0 0 18 18" xmlns="http://www.w3.org/2000/svg"><path fill="#181B1E" d="M0 0h18v18H0z"/><path d="M11.12 6.43c.01.02.03.03.06.03.02 0 .04-.01.07-.04.02-.03.04-.04.07-.03l.89.31.02.02.02.03c.03.06.03.1.03.1-.06.12-.03.15.09.1.11-.05.22-.01.31.12l.06.04.06.01c.07-.01.14 0 .2.03a1.9 1.9 0 0 0 .21.12c.1.04.18.07.29.14.03.02.6.32.26.37-.04 0-.04.02-.01.04.36.25.51-.01.77.57.04.1.11.18.2.21.03.01.04.03.03.06l-.03.14c-.01.03 0 .05.02.07.02.02.07.02.13 0 .08-.01.1.02.08.1v.05c-.02.03-.01.06 0 .09.04.06.05.12.05.18 0 .03-.02.05-.04.05h-.03l-.02.01-.01.03a.07.07 0 0 0 .02.06c.04.03.06.07.04.12 0 .03-.02.05-.05.05l-.33.05c-.6.09-.4.46-1.3.23a6.03 6.03 0 0 0-.13.06.1.1 0 0 1-.07.02c-.07 0-.11-.05-.12-.14V9.8l.02-.02v-.02c-.05-.03-.08-.03-.1 0-.03.02-.03.04-.02.07l.04.07v.08c-.02.04-1.4-.32-1.43-.31-.03 0-.04.02-.04.05v.03l-.01.03-.03.01c-.06 0-.1-.02-.13-.1 0-.02-.03-.03-.05-.02-.42.17-.41.52-.85.08-.03-.03-.06-.03-.08 0l-.44.56a.14.14 0 0 0-.02.11l.1.4c.07.18.18.33.35.46.08.06.17.14.25.25.06.08.16.16.3.25.12.08.11.12-.04.1-.15 0-.33.03-.52.12a.09.09 0 0 1-.07 0 .95.95 0 0 0-.33-.1 6.1 6.1 0 0 1-1.55.02 1.06 1.06 0 0 1-.25-.06.11.11 0 0 0-.08 0 .8.8 0 0 1-.36.02l-.15-.02c-.14-.02-.15-.08-.04-.16l.05-.04c.1-.08.15-.11.24-.22.09-.1.18-.2.28-.25a.56.56 0 0 0 .18-.21c.1-.18.18-.38.25-.63.01-.02 0-.03-.01-.04l-.71-.47a.12.12 0 0 0-.07-.02c-.33 0-.77.03-1.13-.1a.06.06 0 0 1-.03-.03l-.02-.03c-.02-.04-.03-.04-.05 0a.2.2 0 0 1-.03.06c-.02.02-.04.02-.06.02-.54-.2-1 .32-1.29.03-.02-.03-.04-.03-.05 0l-.01.02c-.01.02-.02.03-.04.03h-.45a.1.1 0 0 0-.07.02c-.03.02-.05.03-.07.01-.02-.01-.03-.04-.01-.06.05-.1.08-.17.06-.22 0-.03-.02-.04-.05-.03-.04 0-.06.04-.08.1 0 .02-.02.04-.04.05-.05 0-.1.03-.15.07a.08.08 0 0 1-.05.02l-.34-.1c-.03-.02-.05-.02-.07 0-.02.03-.04.04-.07.04l-.16-.02c-.14-.02-.14-.06-.02-.11l.04-.05c.01-.04 0-.05-.03-.04l-.1.02c-.03 0-.04-.01-.04-.04 0-.09-.03-.16-.08-.2a.08.08 0 0 0-.06-.03c-.05.01-.08-.02-.09-.07.02-.05.06-.05.12 0h.04l.01-.01.02-.03c.01-.03 0-.05-.02-.06l-.1-.04c-.03 0-.04-.03-.03-.06 0-.03.01-.05.04-.05.62-.06-.26-.23.52-.35.03 0 .04-.03.03-.06v-.05l.07-.01c.03 0 .06-.02.07-.06 0-.03 0-.04-.03-.04l-.23-.02c-.04-.04-.06-.08-.05-.1 0-.03.03-.05.07-.06a.45.45 0 0 0 .16-.1.09.09 0 0 1 .06-.03H4c.03 0 .04.02.04.05l-.03.1c0 .03 0 .04.03.03l.16-.02c.03 0 .04-.02.01-.05-.05-.05-.06-.1-.04-.16.02-.02.01-.04 0-.06l-.02-.02c-.01-.03 0-.05.02-.07.24-.18.15.03.2.16 0 .03.02.04.04.04h.3c.03 0 .04-.02.02-.05l-.05-.08c-.02-.03-.05-.04-.08-.02l-.07.05-.03.01h-.03l-.02-.03a15.17 15.17 0 0 1 .64-.54.09.09 0 0 0 0-.07l-.03-.03a.07.07 0 0 1 .02-.08c.02-.03.07-.05.14-.07.03 0 .05 0 .04.04v.11l.01.01h.01l.03-.02.01-.02c0-.14.02-.22.04-.25.05-.1.12-.14.2-.1l.1.03a.2.2 0 0 0 .06-.03c.02-.02.03-.03 0-.06-.03-.05-.03-.12 0-.19l.02-.02h.05l.01.02.13.32.03.02H6L6 6.97l.01-.02a.04.04 0 0 0 0-.03c-.07-.13-.05-.22.05-.29.03-.01.03-.04.02-.06l-.02-.04c-.02-.04-.01-.06.03-.07.07-.01.46-.04.45.11l-.03.23c0 .05.01.06.06.05.03-.02.04-.08.05-.2 0-.02 0-.05.02-.07.18-.22.63-.37.94-.32h.04l.03-.03a.1.1 0 0 1 .06-.04c.03-.01.04 0 .03.03a.16.16 0 0 0 0 .11c.02.04.04.04.05 0l.03-.1c0-.03.02-.05.05-.04.03 0 .06-.01.06-.05 0-.02.02-.04.04-.05a.1.1 0 0 1 .07-.01c.1.01.14.06.13.14v.02h.02a.3.3 0 0 1 0-.18c0-.03.03-.04.05-.04.03 0 .05.01.08.04.02.02.04.03.07.02a.4.4 0 0 0 .2-.07C8.6 6 8.62 6 8.64 6c.08.04.16.05.23.04.02-.01.04 0 .06.01l.04.05c.02.02.04.02.06 0a.2.2 0 0 0 .04-.07c0-.02.01-.03.02-.03h.04c.04 0 .07.01.08.03.02.01.03.03.02.06l-.01.04c-.01.03 0 .05.02.06.05.01.08 0 .08-.07 0-.03.01-.05.04-.04.02 0 .05.02.1.07.02.02.04.02.06 0a.3.3 0 0 1 .15-.05c.02 0 .04.01.06.04.01.02.02.04.01.05-.03.09 0 .11.07.06l.03-.01c.05-.04.1-.07.18-.06.25 0 1.02.05 1.1.24Z" fill="#fff"/></svg>