<!-- by TradingView --><svg width="18" height="18" viewBox="0 0 18 18" xmlns="http://www.w3.org/2000/svg"><path fill="#F0F3FA" d="M0 0h18v18H0z"/><path d="M4.67 7c.49.22 1.54 1 3.01 2.94a12.94 12.94 0 0 0 2.86 2.87c-.49.12-1 .19-1.54.19-2.76 0-5-1.8-5-4 0-.73.24-1.41.67-2Zm8.6 4.08c.46-.6.73-1.32.73-2.08 0-2.2-2.24-4-5-4-.48 0-.95.06-1.4.16.62.52 1.52 1.41 2.65 2.81a16.07 16.07 0 0 0 3.02 3.1Z" fill="url(#awsey4sqb)"/><path d="M8.05 6.1C6.4 4.35 4 5.09 3 5.68c2.24-.45 4.1.74 4.74 1.45l3.07 3.43c1.54 1.58 3.3 1.63 4.02 1.39a7.34 7.34 0 0 1-3.54-2.29c-.39-.45-1.63-1.83-3.24-3.54Z" fill="#E50112"/><path d="M7.24 7.4a4.04 4.04 0 0 0-3.9-1.36A6.1 6.1 0 0 1 6.4 7.82c.51.62 1.52 1.82 3.51 3.86a3.85 3.85 0 0 0 5.1.63 5.67 5.67 0 0 1-5.1-1.86L7.24 7.41Z" fill="#E50112"/><defs><linearGradient id="awsey4sqb" x1="6.36" y1="5.73" x2="9.44" y2="12.58" gradientUnits="userSpaceOnUse"><stop stop-color="#B2AFD0"/><stop offset=".55" stop-color="#4A4C8F"/><stop offset="1" stop-color="#052077"/></linearGradient></defs></svg>