<!-- by TradingView --><svg width="18" height="18" viewBox="0 0 18 18" xmlns="http://www.w3.org/2000/svg"><path fill="#F0F3FA" d="M0 0h18v18H0z"/><path d="M10.26 7H8.45c-.66 0-1.11.36-1.63 1.03-.37.49-.58.98-1.23.97H3.04C3.02 9 3 9.02 3 8.99v-3c0-.58.23-.99.83-.99h10.33c.6 0 .85.44.84 1.02v.92c0 .04-.02.06-.06.06h-3.63c-.43 0-.75.15-.99.53-.82 1.11-1.58 2.78-2.72 2.8H3L3 10.3V10h4.6c.95 0 2.08-2.42 2.68-2.94.05-.04.04-.06-.02-.06Z" fill="#E71F29"/><path d="M15 12.26c0 .4-.35.74-.75.74H3.78c-.55 0-.8-.42-.78-.94v-1a.06.06 0 0 1 .03-.05l.03-.01h7.14c.36 0 .65-.21.83-.52.26-.44.5-.73.73-1.04.2-.3.58-.44.94-.44h2.24c.04 0 .06.02.06.05v3.2Z" fill="#0061AE"/></svg>