<!-- by TradingView --><svg width="18" height="18" viewBox="0 0 18 18" xmlns="http://www.w3.org/2000/svg"><path fill="#F0F3FA" d="M0 0h18v18H0z"/><path d="M9 14c3.87 0 7-2.24 7-5s-3.13-5-7-5-7 2.24-7 5 3.13 5 7 5ZM5.2 7c.5 0 .98.16 1.35.43v1.01A2.57 2.57 0 0 0 5.13 8c-.78 0-1.07.45-1.07 1s.29 1 1.07 1c.49 0 1.06-.17 1.42-.44v1.01c-.37.27-.84.43-1.36.43C4 11 3 10.1 3 9s.98-2 2.2-2ZM8 11H7V7h2.35c.39.03 1.2.25 1.2 1.1 0 .48-.32.89-.68 1.14l1.03 1.53V11H9.58l-.72-1.45H8V11Zm0-3.27v1.09h.9c.33 0 .58-.25.58-.55 0-.3-.25-.54-.57-.54H8ZM11 7h3v.73h-2v.72h1.62v.73H12v1.1h2V11h-3V7Z" fill="#0257AA"/></svg>