<!-- by TradingView --><svg width="18" height="18" viewBox="0 0 18 18" xmlns="http://www.w3.org/2000/svg"><path fill="#F0F3FA" d="M0 0h18v18H0z"/><path d="m11.48 3.82-.16.44c-.43-.1-1.3-.12-1.67-.11-4.05.23-5.21 3.33-5.23 4.75.08 4.05 3.8 4.62 4.7 4.6a4.82 4.82 0 0 0 1.46-.32l.04.07a5 5 0 0 1-2.03.43c-4.16-.02-5.13-3.48-5.09-5.21C3.68 4.58 7.25 3.21 9 3l2.48.82ZM6.52 14.18l.16-.44c.43.1 1.3.12 1.67.11 4.05-.23 5.21-3.33 5.23-4.75-.08-4.05-3.8-4.62-4.7-4.6-.59.03-1.21.22-1.46.32l-.04-.07a5 5 0 0 1 2.03-.43c4.16.02 5.13 3.48 5.09 5.21-.18 3.89-3.75 5.26-5.5 5.47l-2.48-.82ZM9 6 7.35 9h3.3L9 6Z" fill="#BF0008"/><path d="m7.35 9-1.09 2h5.5l-1.1-2h-3.3Z" fill="#BF0008" fill-opacity=".5"/></svg>