<!-- by TradingView --><svg width="18" height="18" viewBox="0 0 18 18" xmlns="http://www.w3.org/2000/svg"><path fill="#F0F3FA" d="M0 0h18v18H0z"/><path d="M2 8.82C2.16 6.72 5.15 5.05 8.83 5v.57c-3.36.04-6.08 1.47-6.26 3.25H2ZM2 9.18c.16 2.1 3.15 3.77 6.83 3.82v-.57c-3.36-.04-6.08-1.47-6.26-3.25H2Z" fill="#0E4D9C"/><path d="M3 9.18c.18 1.55 2.72 2.78 5.83 2.82v-.38c-2.92-.04-5.3-1.1-5.5-2.44H3ZM14.66 9.18c-.2 1.34-2.57 2.4-5.5 2.44V12c3.12-.04 5.66-1.27 5.84-2.82h-.34ZM15 8.82h-.34c-.2-1.34-2.57-2.4-5.5-2.44V6c3.12.04 5.66 1.27 5.84 2.82Z" fill="#0E4D9C"/><path d="M15.43 9.18c-.18 1.78-2.9 3.2-6.26 3.25V13c3.68-.05 6.67-1.72 6.83-3.82h-.57ZM16 8.82h-.57c-.18-1.78-2.9-3.2-6.26-3.25V5c3.68.05 6.67 1.72 6.83 3.82ZM3.34 8.82H3C3.18 7.27 5.72 6.04 8.83 6v.38c-2.92.04-5.3 1.1-5.5 2.44Z" fill="#0E4D9C"/><path d="M12 9.18h-2V11H9V7h1v1.67h2V7h1v4h-1V9.18ZM8.96 10.28a1.7 1.7 0 0 0-.15.48c-.35.15-.8.24-1.35.24C6.14 11 5 10.3 5 9.14 5 7.84 6.15 7 7.64 7c.44 0 .98.08 1.36.28a1.7 1.7 0 0 0-.16.57h-.08c-.34-.36-.67-.5-1.15-.5C6.55 7.35 6 8.3 6 9.05c0 .8.61 1.6 1.67 1.6.43 0 .91-.15 1.2-.42l.09.05Z" fill="#0E4D9C"/></svg>