<!-- by TradingView --><svg width="18" height="18" viewBox="0 0 18 18" xmlns="http://www.w3.org/2000/svg"><path fill="#F0F3FA" d="M0 0h18v18H0z"/><path d="M8.48 14.04c-.37-.86-.26-1.67.5-2.5.96-1.02 1.86-2.04 1.36-2.93.4.17.65.37.76.65.57 1.5-1.64 2.56-2.27 3.6-.2.32-.28.76-.35 1.18Z" fill="#E40911"/><path d="M9.37 15c-.36-.86-.24-1.67.54-2.5.96-1.03 1.86-2.04 1.38-2.93.39.16.65.37.75.64.55 1.51-1.66 2.57-2.3 3.6-.2.33-.3.77-.37 1.19Z" fill="#E40911"/><path d="M14.04 9.53c-.86.37-1.67.27-2.5-.5-1.02-.96-2.04-1.85-2.93-1.36.17-.4.37-.65.65-.75 1.5-.57 2.56 1.63 3.6 2.26.32.2.76.29 1.18.35Z" fill="#123C86"/><path d="M15 8.64c-.86.36-1.67.24-2.5-.53-1.03-.97-2.04-1.87-2.93-1.38.16-.4.37-.65.64-.75 1.51-.56 2.57 1.66 3.6 2.3.33.2.77.29 1.19.36Z" fill="#123C86"/><path d="M9.55 3.96c.37.86.26 1.67-.51 2.5-.96 1.02-1.85 2.04-1.35 2.93-.4-.17-.66-.37-.76-.65-.57-1.5 1.64-2.56 2.26-3.6.2-.32.29-.76.36-1.18Z" fill="#E40911"/><path d="M8.65 3c.36.86.25 1.67-.53 2.5-.97 1.03-1.87 2.04-1.38 2.93-.4-.16-.65-.37-.75-.64-.56-1.51 1.66-2.57 2.3-3.6.2-.33.29-.77.36-1.19Z" fill="#E40911"/><path d="M3.96 8.5c.86-.38 1.67-.27 2.5.5 1.02.96 2.04 1.85 2.93 1.36-.16.39-.37.65-.65.75-1.5.57-2.56-1.64-3.6-2.26-.32-.2-.76-.29-1.18-.36Z" fill="#123C86"/><path d="M3 9.39c.86-.36 1.67-.25 2.5.53 1.03.97 2.05 1.87 2.93 1.38-.16.4-.37.65-.64.75-1.51.56-2.57-1.66-3.6-2.3-.33-.2-.77-.3-1.19-.36Z" fill="#123C86"/></svg>