<!-- by TradingView --><svg width="18" height="18" viewBox="0 0 18 18" xmlns="http://www.w3.org/2000/svg"><path fill="#F0F3FA" d="M0 0h18v18H0z"/><path d="M13.64 7.14c-.73.64-1.83 1.59-1.9 1.67-.12.1-.18-.02-.18-.11 0-.48-.2-.65-.33-.76-.06-.06-.1-.1-.12-.15v-.2c0-.24 0-.59-.28-.59-.37 0-1.55 1.62-1.73 1.9-.11.2-.26.27-.41.35l-.23.14c-.1.08-.23.25-.36.4-.15.18-.28.35-.34.35-.1 0-.15-.06-.15-.2 0-.1.35-.62.53-.87H7.8c.4-.27.56-.49.56-.57-.02-.02-.12-.08-.23-.08.24-.33.22-1.42 0-1.42-.63 0-1.81 2-2.08 2.5-.2.36-.97 1.36-1.43 1.94a5 5 0 1 1 9.01-4.3Z" fill="#00A3E4"/><path d="M9 14a5 5 0 0 0 4.77-6.5c-.56.44-1.57 1.3-1.77 1.58l-.14.22c-.21.34-.44.7-.78.7-.12 0-.88-.67-1.25-1l-1.14.94c.05.06.2.18.17.29-.02.14-.65.77-1.04.77-.4 0-.8-.39-.8-.77 0-.14.07-.3.15-.46.14-.27.27-.55.02-.77-.29.11-.64.65-1.06 1.28l-.6.9c.11.08.28.15.35.18l-.81.73A5 5 0 0 0 9 14Z" fill="#0067AC"/></svg>