<!-- by TradingView --><svg width="18" height="18" viewBox="0 0 18 18" xmlns="http://www.w3.org/2000/svg"><path fill="#F0F3FA" d="M0 0h18v18H0z"/><path d="M3.25 10.7c.34.16.86.3 1.62.3 1.65 0 2.57-.72 4.07-2.42 1.5-1.7 2.6-2.1 3.87-2.1.7 0 1.4.2 1.9.4A6.06 6.06 0 0 0 4 5.68c-.1.23-.19.56-.19.8 0 .4.38.6.82.6.36 0 .88-.66 1.53-1.47l.57-.7c.7-.8 2.03-.97 2.45-.55-.44 0-1.57.37-2.55 1.78-.9 1.3-1.32 1.67-2.07 1.67-.54 0-1.05-.3-1.31-.58-.13.4-.2.83-.24 1.26.39.25.95.49 1.62.49 1.38 0 1.85-.2 3.25-2.25a2.91 2.91 0 0 1 3.5-1.19c-1.48.18-2.32.57-3.4 2.03-1.07 1.45-1.62 2.07-3.15 2.07-.9 0-1.5-.24-1.84-.46.02.53.1 1.04.25 1.52Z" fill="#727171"/><path d="M5.05 9.64c.08.47.24.92.46 1.32 1.27-.18 2.14-.91 3.43-2.38 1.23-1.4 2.2-1.92 3.2-2.06-.3-.37-.65-.69-1.06-.94-1.29.2-2.1.63-3.09 1.99-1.02 1.39-1.57 2.01-2.94 2.07Zm5.64-4.26a3.98 3.98 0 0 0-3.44.02c-.2.2-.4.45-.6.74-.61.88-1 1.34-1.43 1.54A4 4 0 0 0 5 8.97c1.11-.05 1.62-.38 2.9-2.24a2.92 2.92 0 0 1 2.8-1.35Z" fill="#A8A9A9"/><path d="M7.12 8.67a2 2 0 0 0 .79 1c.32-.3.66-.66 1.03-1.09a7.4 7.4 0 0 1 1.8-1.57 2 2 0 0 0-1.2-.94 5.1 5.1 0 0 0-1.55 1.5c-.33.44-.6.8-.87 1.1Zm1.35-2.6A2 2 0 0 0 7 7.93c.26-.3.55-.7.9-1.2.17-.26.36-.48.57-.66Z" fill="#CBCBCC"/><path d="M14.75 7.3c-.34-.16-.86-.3-1.62-.3-1.65 0-2.57.72-4.07 2.42-1.5 1.7-2.6 2.1-3.87 2.1-.7 0-1.4-.2-1.9-.4a6.06 6.06 0 0 0 10.7 1.2c.1-.23.19-.56.19-.8 0-.4-.38-.6-.82-.6-.36 0-.88.66-1.53 1.47l-.57.7c-.7.8-2.03.97-2.45.55.44 0 1.57-.37 2.55-1.78.9-1.3 1.32-1.67 2.07-1.67.54 0 1.05.3 1.31.58.13-.4.2-.83.24-1.26-.39-.25-.95-.49-1.62-.49-1.38 0-1.85.2-3.25 2.25a2.91 2.91 0 0 1-3.5 1.19c1.48-.18 2.32-.57 3.4-2.03 1.07-1.45 1.62-2.07 3.15-2.07.9 0 1.5.24 1.84.46a5.9 5.9 0 0 0-.25-1.52Z" fill="#003F7F"/><path d="M12.95 8.36a3.97 3.97 0 0 0-.46-1.32c-1.27.18-2.14.91-3.43 2.38-1.23 1.4-2.2 1.92-3.2 2.06.3.37.65.69 1.06.94 1.29-.2 2.1-.63 3.09-1.99 1.02-1.39 1.57-2.01 2.94-2.07Zm-5.64 4.26a3.98 3.98 0 0 0 3.44-.02c.2-.2.4-.45.6-.74.62-.88 1-1.34 1.43-1.54A4 4 0 0 0 13 9.03c-1.11.05-1.62.38-2.9 2.24a2.92 2.92 0 0 1-2.8 1.35Z" fill="#0070AC"/><path d="M10.99 9.22a2.03 2.03 0 0 0-.35-1.37c-.5.38-1 .9-1.58 1.57-.44.5-.85.9-1.24 1.2a2 2 0 0 0 1.83.27l.36-.46c.37-.5.67-.9.98-1.2Z" fill="#1EAADE"/></svg>