<!-- by TradingView --><svg width="18" height="18" viewBox="0 0 18 18" xmlns="http://www.w3.org/2000/svg"><path d="M0 9a9 9 0 1 1 18 0A9 9 0 1 1 0 9Z" fill="#F0F3FA"/><path d="M7.36 5.87 3.5 13l5.3-4.7-1.44-2.43Z" fill="url(#a3sqjlrfc)"/><path d="M3.5 13h2.8l2.5-4.7L3.5 13Z" fill="#6457A7"/><path d="M11.75 13h-5.8c3.16-.53 3.92-2.12 4.03-2.84L11.75 13Z" fill="url(#b3sqjlrfc)"/><path d="M9 7.99V3L7.57 5.53 9 7.99Z" fill="#6457A7"/><path d="M9 8V3l1.68 2.53L9 7.99Z" fill="#524789"/><path d="m13.58 10.02-2.9-4.5L9 8l4.9 3.81c.27-.63-.1-1.44-.32-1.78Z" fill="url(#c3sqjlrfc)"/><path d="M13.91 11.8 9.01 8 12.22 13c1.08-.2 1.56-.89 1.68-1.2Z" fill="#6457A7"/><defs><linearGradient id="a3sqjlrfc" x1="8.11" y1="6.81" x2="3.12" y2="12.54" gradientUnits="userSpaceOnUse"><stop stop-color="#512877"/><stop offset=".31" stop-color="#7E60A8"/><stop offset="1" stop-color="#6457A7"/></linearGradient><linearGradient id="b3sqjlrfc" x1="10.94" y1="11.57" x2="6.51" y2="13.16" gradientUnits="userSpaceOnUse"><stop stop-color="#6457A7"/><stop offset="1" stop-color="#78659D"/></linearGradient><linearGradient id="c3sqjlrfc" x1="9.92" y1="6.88" x2="13.69" y2="11.8" gradientUnits="userSpaceOnUse"><stop stop-color="#512877"/><stop offset=".48" stop-color="#7E60A8"/><stop offset="1" stop-color="#6457A7"/></linearGradient></defs></svg>