<!-- by TradingView --><svg width="18" height="18" viewBox="0 0 18 18" xmlns="http://www.w3.org/2000/svg"><path fill="#FE1C2B" d="M0 0h18v18H0z"/><path fill-rule="evenodd" d="M8.3 3.14a1.8 1.8 0 0 1 1.98.4l4.19 4.17a1.82 1.82 0 0 1 0 2.57l-4.19 4.19a1.82 1.82 0 0 1-2.57 0l-4.18-4.19a1.82 1.82 0 0 1 0-2.57l4.18-4.18c.17-.17.37-.3.6-.4Zm5.81 4.91a1.35 1.35 0 0 1 0 1.9L9.95 14.1a1.35 1.35 0 0 1-1.9 0L3.9 9.95a1.35 1.35 0 0 1 0-1.9L8.05 3.9a1.35 1.35 0 0 1 1.9 0l4.16 4.16Z" fill="#fff"/><path d="M9.63 6.38c0 .07.02.15.07.2.04.07.1.12.18.15a.43.43 0 0 0 .44-.09c.06-.05.1-.12.11-.19a.35.35 0 0 0-.02-.22.38.38 0 0 0-.15-.17.43.43 0 0 0-.51.05.35.35 0 0 0-.12.27Z" fill="#F0F3FA"/><path d="m9.44 6.24-.31.3.74.68.31-.3-.74-.68Z" fill="#F0F3FA"/><path d="m9.34 6.69-3.6 3.35.36.34 3.6-3.35-.36-.34Z" fill="#F0F3FA"/><path d="m8.65 10.41-.73-.68v.59A1.71 1.71 0 0 1 6 10.07a1.41 1.41 0 0 1-.27-1.8h.65l-.77-.66c-.3.28-.5.64-.57 1.02-.08.39-.04.79.13 1.15.16.36.43.67.79.89a2.26 2.26 0 0 0 2.7-.26ZM8.37 6.38c0 .07-.02.15-.07.2a.4.4 0 0 1-.18.15.43.43 0 0 1-.44-.09.37.37 0 0 1-.11-.19.35.35 0 0 1 .02-.22.38.38 0 0 1 .15-.17.43.43 0 0 1 .51.05l.1.12.02.15Z" fill="#F0F3FA"/><path d="m8.56 6.24-.74.69.31.3.75-.7-.32-.3Z" fill="#F0F3FA"/><path d="m8.66 6.69-.36.34 3.6 3.35.37-.34-3.6-3.35Z" fill="#F0F3FA"/><path d="m9.35 10.41.73-.68v.59a1.71 1.71 0 0 0 1.92-.25 1.41 1.41 0 0 0 .27-1.8h-.65l.77-.66c.3.28.5.64.57 1.02.08.39.04.79-.13 1.15-.16.36-.43.67-.78.89a2.25 2.25 0 0 1-2.7-.26Z" fill="#F0F3FA"/></svg>