<!-- by TradingView --><svg width="18" height="18" viewBox="0 0 18 18" xmlns="http://www.w3.org/2000/svg"><path fill="#F0F3FA" d="M0 0h18v18H0z"/><path fill="#FF7200" d="M4 4h5v10H4z"/><path fill="#272858" d="M9 4h5v10H9z"/><path d="M6.5 9.8 7.7 7h.8l-1.72 4h-.56L4.5 7h.8l1.2 2.8ZM12.7 7l.04 1.27h-.13a1.26 1.26 0 0 0-.46-.77c-.23-.2-.5-.29-.77-.29a.78.78 0 0 0-.5.16c-.13.1-.2.22-.2.35 0 .08.03.16.07.22.06.1.16.18.3.27.1.06.32.17.68.33.5.22.84.42 1.01.62.17.2.26.42.26.67 0 .32-.14.6-.42.83a1.6 1.6 0 0 1-1.06.34c-.13 0-.26-.01-.38-.04a3.13 3.13 0 0 1-.45-.13.75.75 0 0 0-.25-.06.33.33 0 0 0-.17.06.4.4 0 0 0-.15.17H10V9.55h.12c.09.41.27.72.53.93.26.22.55.32.85.32.24 0 .43-.05.57-.17.14-.11.2-.25.2-.4a.48.48 0 0 0-.07-.26.84.84 0 0 0-.25-.24c-.1-.08-.3-.18-.58-.3a5.18 5.18 0 0 1-.84-.44c-.17-.12-.3-.25-.4-.4a.99.99 0 0 1 .24-1.27c.26-.21.57-.32.95-.32a1.8 1.8 0 0 1 .77.17c.14.06.24.1.3.1.05 0 .1-.02.13-.05.03-.03.06-.1.09-.22h.09Z" fill="#fff"/></svg>