<!-- by TradingView --><svg width="18" height="18" viewBox="0 0 18 18" xmlns="http://www.w3.org/2000/svg"><path fill="#F0F3FA" d="M0 0h18v18H0z"/><path fill-rule="evenodd" d="M13.06 4.31H4.94a.62.62 0 0 0-.63.63v8.12c0 .35.28.63.63.63h8.12c.35 0 .63-.28.63-.63V4.94a.62.62 0 0 0-.63-.63ZM4.94 4a.94.94 0 0 0-.94.94v8.12c0 .52.42.94.94.94h8.12c.52 0 .94-.42.94-.94V4.94a.94.94 0 0 0-.94-.94H4.94Z" fill="#170BB6"/><path d="M5.57 5a.57.57 0 0 0-.57.57v6.86c0 .31.26.57.57.57h6.86c.31 0 .57-.26.57-.57V5.57a.57.57 0 0 0-.57-.57H5.57ZM12 9.55A3.02 3.02 0 0 1 9.02 12 3.01 3.01 0 0 1 6 9c0-1.66 1.35-3 3.02-3A3.02 3.02 0 0 1 12 8.45h-.55v1.1H12Zm-4.82 0h3.65a1.87 1.87 0 0 1-1.8 1.36c-.88 0-1.61-.58-1.85-1.36Zm1.84-2.46c.88 0 1.59.58 1.81 1.36H7.18c.24-.78.97-1.36 1.84-1.36Z" fill="#170BB6"/></svg>