<!-- by TradingView --><svg width="18" height="18" viewBox="0 0 18 18" xmlns="http://www.w3.org/2000/svg"><path fill="#F0F3FA" d="M0 0h18v18H0z"/><path d="M4 9.72c-.13 1.8 1.43 3.92 1.78 5.23 1.77-.69 5.31-2.84 5.31-5.98A8.41 8.41 0 0 0 8.79 3C8.6 3.37 8 4.3 7.02 5.05 5.78 6 4.19 7.48 4 9.72Z" fill="#00AA95"/><path d="M13.57 5.61c-1.13 3.74-5.67 7.78-7.79 9.34-.12-1.25-.14-4.1.7-5.6 1.07-1.87 2.66-2.24 4.08-2.62a20.7 20.7 0 0 0 3-1.12Z" fill="#A5E887"/><path d="M12.68 12.52c-1.84 2.4-5.37 2.62-6.9 2.43 2.12-1.5 6.43-6.66 7.79-9.34.47 1.31.95 4.52-.89 6.91Z" fill="#00CC76"/></svg>