<!-- by TradingView --><svg width="18" height="18" viewBox="0 0 18 18" xmlns="http://www.w3.org/2000/svg"><path fill="#F0F3FA" d="M0 0h18v18H0z"/><path d="M7.53 4c.67.85 1.1 1.83 1.31 2.94.1.5 0 1.08-.3 1.73-.05.1-.12.11-.2.06l-.9-.52a.41.41 0 0 1-.2-.24 78.55 78.55 0 0 1-.85-2.56c-.2-.65-.02-1.12.5-1.41h.64Z" fill="#ED3124"/><path d="M11.01 4c.52.17.74.51.66 1.03-.07.48-.34 1.35-.8 2.59-.22.59-.77.91-1.2 1.13-.1.05-.17.02-.21-.1-.2-.55-.47-.9-.33-1.53.25-1.17.67-2.2 1.27-3.12H11ZM7.3 8.16l.48 1.35c.04.1 0 .16-.09.2l-.77.27a.29.29 0 0 1-.25-.02L4.52 8.68c-.51-.3-.64-.7-.4-1.21a.57.57 0 0 1 .03-.07c.31-.54.72-.67 1.21-.38L7.3 8.15Z" fill="#F36F21"/><path d="M11.17 10.05h-.04l-.81-.38a.17.17 0 0 1-.09-.22c.29-.68.24-1.21 1-1.64.76-.43 1.25-.7 1.46-.8.5-.24.9-.1 1.21.43l.01.03c.2.52.07.91-.38 1.18l-2.36 1.4ZM6.9 10.08l.95.55a.6.6 0 0 1-.1 1.07l-1.77.64c-.52.18-.88 0-1.09-.55a.36.36 0 0 0 0-.03.77.77 0 0 1-.09-.33.9.9 0 0 1 .58-.83l1.33-.53a.22.22 0 0 1 .2.01Z" fill="#ED3124"/><path d="M11.13 10.05h.04c.74.2 2 .54 2 1.33 0 1.77-1.98.68-2.9.33a.6.6 0 0 1-.39-.51.61.61 0 0 1 .3-.58l.95-.57Z" fill="#F36F21"/><path d="M9.5 11.35a.4.4 0 0 1 .42.4v1.26a1.08 1.08 0 0 1-.26.7.9.9 0 0 1-.3.21.83.83 0 0 1-.34.08h-.04a.86.86 0 0 1-.64-.29 1.04 1.04 0 0 1-.26-.7v-1.25a.41.41 0 0 1 .4-.41h1.03Z" fill="#ED3124"/></svg>