<!-- by TradingView --><svg width="18" height="18" viewBox="0 0 18 18" xmlns="http://www.w3.org/2000/svg"><path fill="#F0F3FA" d="M0 0h18v18H0z"/><path fill-rule="evenodd" d="M7 4a3 3 0 0 0-3 3v4a3 3 0 0 0 3 3h4a3 3 0 0 0 3-3V7a3 3 0 0 0-3-3H7Zm2.93 2.31-.12-.3c-.1-.27.35-.4.53-.34l.81.31a.5.5 0 0 0 .65-.27.48.48 0 0 0-.28-.63l-.84-.33h-.01c-.95-.31-2.18.53-1.8 1.6l.14.34.02.06-.28.1c-.64.28-1.26.78-1.47 1.47-.34 1.12.5 2.2 1.66 2.22 1.13.02 1.73-.88 1.64-1.92a5.21 5.21 0 0 0-.16-.87c.86.24 1.25.97 1.25 1.84 0 1.37-1.32 2.44-2.66 2.44-1.51 0-2.8-.94-2.99-2.5-.23-1.89 1.23-2.93 2-3.22.26-.1.4-.37.3-.62a.5.5 0 0 0-.64-.29c-1 .36-2.95 1.72-2.65 4.25C5.28 11.69 7.01 13 9.01 13c1.87 0 3.66-1.5 3.66-3.4 0-1.6-1.02-2.74-2.6-2.9l-.14-.39Zm-.78 1.44.2-.08a8.41 8.41 0 0 1 .24 1.04c.04.46-.1.87-.64.86a.74.74 0 0 1-.71-.97c.12-.41.54-.69.9-.85Z" fill="#EB2000"/></svg>