<!-- by TradingView --><svg xmlns="http://www.w3.org/2000/svg" width="18" height="18" viewBox="0 0 18 18"><path fill="#F0F3FA" d="M0 0h18v18H0z"/><path d="M7.7 8.5a6.54 6.54 0 0 1 1.4-.17v.18c-3.18.74-4.75 1.92-4.75 2.91 0 .99.97 1.3 1.35 1.3.3 0 .94-.26 1.22-.39.16.54 1.24 1.9 2.33 1.63s1.11-1.23 1.11-2.36c0-.9-.4-2.22-.61-2.76l.18-.07c.47.83.98 3.03.98 3.96 0 .74.48.86.73.83 1.01 0 1.26-1.9 1.25-2.86.9-.23 1.12-.74 1.11-.97 0-.95-1.08-1.22-1.92-1.44a5.16 5.16 0 0 0-1.94 0v-.11c.13-.1.55-.33 1.19-.42.8-.1 1.94.57 1.94-.41 0-.78-1.23-1.2-1.84-1.32-.83-1.67-1.85-1.49-2.1-1.33-.19.13-.16.41-.12.54.4.75.47 2.07.46 2.63h-.21c-.1-2.36-1.3-3.4-1.41-3.5-.1-.1-1.07-.68-1.78-.15-.57.42-.48 1.13-.37 1.43l-.07.1c-.67-.2-2.34.5-1.68 2.01.66 1.52 2.95.91 3.54.75Z" fill="#71BC45"/><path d="m9.74 8.12.32-.37-.22.4H10l-.13.07.24.02-.21.06.24.07h-.24l.51.33-.56-.25.15.17-.18-.13a22.29 22.29 0 0 0 .03.27l-.12-.27-.07.24v-.26l-.43.57.33-.59-.22.1.13-.18-.31.02.3-.09-.21-.08h.2l-.39-.27.45.2-.02-.14.13.12V7.9l.07.23.04-.17.02.17Z" fill="#F69826"/></svg>