<!-- by TradingView --><svg width="18" height="18" viewBox="0 0 18 18" xmlns="http://www.w3.org/2000/svg"><path fill="#0054A5" d="M0 0h18v18H0z"/><path d="M12.81 11c.66 0 1.19-.43 1.19-1.05V7.17A1.2 1.2 0 0 0 12.81 6H10V3.64C10 3.45 9.4 3 8.14 3H8v3.67h3.97c.36 0 .63.32.63.65V9.8c0 .33-.27.51-.63.51H10V7.77c0-.2-.3-.65-1.86-.65H8V15h.14c1.56 0 1.86-.46 1.86-.64V11h2.81ZM6.08 6.67H8V6H5.2C4.54 6 4 6.48 4 7.09V9.9c0 .6.54 1.09 1.2 1.09H8v-.67H6.08c-.36 0-.68-.24-.68-.56V7.23c0-.32.32-.56.68-.56Z" fill="#fff"/></svg>