<!-- by TradingView --><svg width="18" height="18" viewBox="0 0 18 18" xmlns="http://www.w3.org/2000/svg"><path fill="#F0F3FA" d="M0 0h18v18H0z"/><path d="M8.25 4C5.93 4 4 6.05 4 8.5 4 10.93 5.93 13 8.25 13c.52 0 1.19-.12 1.68-.33A3.01 3.01 0 0 1 8.59 11h-.34C6.96 11 6 9.9 6 8.5 6 7.1 7 6 8.25 6c.47 0 .94.15 1.33.42.7-.33 1.67-.5 2.42-.33A4.5 4.5 0 0 0 8.25 4Z" fill="#ABCB5C"/><path d="M8 9.89A3.05 3.05 0 0 1 11.02 7 3.05 3.05 0 0 1 14 10.12 3.04 3.04 0 0 1 10.9 13 3.04 3.04 0 0 1 8 9.89ZM11 11a1 1 0 1 0 0-2 1 1 0 0 0 0 2Z" fill="#0E6FB3"/></svg>