<!-- by TradingView --><svg width="18" height="18" viewBox="0 0 18 18" fill="none" xmlns="http://www.w3.org/2000/svg">
<rect width="18" height="18" rx="9" fill="#F0F3FA"/>
<path d="M6.63216 7H7.00017C7.41261 7 7.6518 6.63087 7.4108 6.36628L6.31785 5.16628C6.22276 5.06188 6.06995 5 5.90721 5H4.50696C4.01471 5 3.81229 5.49931 4.21286 5.72549L6.33805 6.92549C6.42387 6.97395 6.52669 7 6.63216 7Z" fill="#1B68BA"/>
<path d="M6.63216 11H7.09431C7.48762 11 7.73055 11.3392 7.5282 11.6058L6.6174 12.8058C6.52595 12.9263 6.36125 13 6.18351 13H4.50696C4.01471 13 3.81229 12.5007 4.21286 12.2745L6.33805 11.0745C6.42387 11.026 6.52669 11 6.63216 11Z" fill="#1B68BA"/>
<path d="M8.78052 7H9.21954C9.39728 7 9.56198 6.92628 9.65343 6.8058L10.5642 5.6058C10.7666 5.33919 10.5236 5 10.1303 5H7.86973C7.47642 5 7.23348 5.33919 7.43584 5.6058L8.34663 6.8058C8.43808 6.92628 8.60278 7 8.78052 7Z" fill="#1B68BA"/>
<path d="M8.78055 11H9.21957C9.39731 11 9.56201 11.0737 9.65346 11.1942L10.5643 12.3942C10.7666 12.6608 10.5237 13 10.1304 13H7.86976C7.47645 13 7.23351 12.6608 7.43587 12.3942L8.34666 11.1942C8.43811 11.0737 8.60281 11 8.78055 11Z" fill="#1B68BA"/>
<path d="M13.493 5H12.2792C12.1255 5 11.9801 5.05524 11.8841 5.15012L10.6697 6.35012C10.4046 6.61203 10.6405 7 11.0648 7H11.3678C11.4733 7 11.5761 6.97395 11.662 6.92549L13.7871 5.72549C14.1877 5.49931 13.9853 5 13.493 5Z" fill="#1B68BA"/>
<path d="M13.493 13H12.2792C12.1255 13 11.9801 12.9448 11.8841 12.8499L10.6697 11.6499C10.4046 11.388 10.6405 11 11.0648 11H11.3679C11.4733 11 11.5761 11.026 11.662 11.0745L13.7872 12.2745C14.1877 12.5007 13.9853 13 13.493 13Z" fill="#1B68BA"/>
<path d="M9.30365 10.5598C8.94166 10.5598 8.62255 10.497 8.34629 10.3715C7.79783 10.1194 7.51274 9.63067 7.51274 9.00001C7.51274 8.36402 7.80242 7.88282 8.34629 7.63282C8.62255 7.50445 8.94166 7.44026 9.30365 7.44026C9.5418 7.44026 9.75455 7.46166 9.94189 7.50445C10.1292 7.54724 10.3285 7.61428 10.4873 7.70557V8.48009C10.1704 8.25366 9.75531 8.13776 9.37986 8.13776C8.72822 8.13776 8.50425 8.45591 8.50425 9.00001C8.50425 9.54489 8.73548 9.87081 9.37986 9.87081C9.8371 9.87081 10.1761 9.73103 10.4873 9.51992V10.2888C10.1856 10.4743 9.799 10.5598 9.30365 10.5598Z" fill="#696969"/>
</svg>
