<!-- by TradingView --><svg width="18" height="18" viewBox="0 0 18 18" xmlns="http://www.w3.org/2000/svg"><path fill="#885E3B" d="M0 0h18v18H0z"/><path d="M9 14c2.4 0 5-2.08 5-5 0-2.5-2.08-5-5-5S4 6.7 4 9c0 2.92 2.5 5 5 5Zm0 1A6 6 0 1 0 9 3a6 6 0 0 0 0 12Z" fill="url(#aeqbijroo)"/><circle cx="9" cy="9" r="5" fill="url(#beqbijroo)"/><path d="m14.64 9.37-.18-.01a5.52 5.52 0 0 0 0-.72l.18-.01a5.73 5.73 0 0 1 0 .74Zm-.3-2.19-.16.06a5.42 5.42 0 0 0-.27-.66l.16-.08c.1.22.2.45.28.68Zm-1.1-1.9-.13.11a5.5 5.5 0 0 0-.5-.5l.11-.14c.19.17.36.34.53.53ZM11.5 3.93l-.08.16c-.21-.1-.43-.2-.66-.27l.06-.17c.23.08.46.18.68.28Zm-2.13-.57-.01.18a5.55 5.55 0 0 0-.72 0v-.18a5.74 5.74 0 0 1 .73 0Zm-2.19.3.06.16c-.23.08-.45.17-.66.27l-.08-.16c.22-.1.45-.2.68-.28Zm-1.9 1.1.11.13a5.5 5.5 0 0 0-.5.5l-.14-.11c.17-.19.34-.36.53-.53ZM3.93 6.5l.16.08c-.1.21-.2.43-.27.66l-.17-.06c.08-.23.18-.46.28-.68Zm-.56 2.13a5.74 5.74 0 0 0 0 .74l.17-.01a5.55 5.55 0 0 1 0-.72l-.17-.01Zm.28 2.19.17-.06c.08.23.17.45.27.66l-.16.08c-.1-.22-.2-.45-.28-.68Zm1.1 1.9.14-.11c.15.18.32.35.5.5l-.11.14a5.68 5.68 0 0 1-.53-.53Zm1.75 1.35.08-.16c.21.1.43.2.66.27l-.06.17a5.63 5.63 0 0 1-.68-.28Zm2.13.57.01-.18a5.6 5.6 0 0 0 .72 0l.01.18a5.73 5.73 0 0 1-.74 0Zm2.19-.3-.06-.16c.23-.08.45-.17.66-.27l.08.16c-.22.1-.45.2-.68.28Zm1.9-1.1-.11-.13c.18-.15.35-.32.5-.5l.14.11c-.17.19-.34.36-.53.53Zm1.35-1.74-.16-.08c.1-.21.2-.43.27-.66l.17.06a5.6 5.6 0 0 1-.28.68Z" fill="#89672A"/><path fill="#92866C" d="M5 7h8v3H5z"/><defs><linearGradient id="aeqbijroo" x1="9" y1="3" x2="9" y2="15" gradientUnits="userSpaceOnUse"><stop stop-color="#E5C98A"/><stop offset="1" stop-color="#FAF7D0"/></linearGradient><linearGradient id="beqbijroo" x1="9" y1="4" x2="9" y2="14" gradientUnits="userSpaceOnUse"><stop stop-color="#FFFEE5"/><stop offset="1" stop-color="#FFFFE2"/></linearGradient></defs></svg>