<!-- by TradingView --><svg width="18" height="18" viewBox="0 0 18 18" xmlns="http://www.w3.org/2000/svg"><path fill="#F0F3FA" d="M0 0h18v18H0z"/><path d="M12.12 6.22c.6.02 1.7.49 1.93 1.3v.12a.45.45 0 0 0-.02.23c.01.06.03.07.07.02a.63.63 0 0 0 .1-.42 28 28 0 0 0-.18-1.12c0-.04-.03-.06-.06-.05-.28.06-.47.07-.55.04-.5-.2-.9-.3-1.2-.33a3.26 3.26 0 0 0-3.18 1.93 2.8 2.8 0 0 0-.16 1.8 3.04 3.04 0 0 0 2.57 2.21c.98.15 1.87-.05 2.7-.62l.18-.18a.12.12 0 0 0 .03-.1 5.37 5.37 0 0 1-.02-1.2c.04-.43.33-.4.61-.38H15v-.02l.01-.01V9.4c0-.02 0-.04-.02-.06a.07.07 0 0 0-.05-.02h-1.96l-.03.01-.01.04v.08h.03c.36 0 .66 0 .7.5.05.88-.04 1.55-.9 1.75-1.3.3-2.56-.23-3-1.7-.59-1.93.6-3.86 2.36-3.78Zm-7.1.01C3.85 6.64 3.18 7.51 3 8.83c0 2.44 2.2 3.55 4.39 3.05.51-.11.97-.4 1.38-.88.02-.03.03-.06.01-.1l-.02-.03c-.02-.05-.05-.06-.1-.01-.22.25-.4.4-.5.46-1.4.75-3.4.66-4.12-1.16-.67-1.73.08-3.53 1.7-3.86a2.7 2.7 0 0 1 2.44.83c.17.18.23.4.18.64 0 .03 0 .06.04.07l.04.03c.02 0 .04 0 .04-.04.08-.3.08-.59.01-.84a4.84 4.84 0 0 1-.14-.66c0-.04-.02-.05-.06-.05-.29.08-.5.1-.65.06l-.23-.08c-.38-.11-.7-.22-1.04-.25a3.3 3.3 0 0 0-1.35.22Z" fill="#7B7B7B"/></svg>