<!-- by TradingView --><svg width="18" height="18" viewBox="0 0 18 18" fill="none" xmlns="http://www.w3.org/2000/svg">
<rect width="18" height="18" fill="#F0F3FA"/>
<path fill-rule="evenodd" clip-rule="evenodd" d="M5.65929 5L2 8.99999L5.65929 13L7.38726 11.1111C6.94189 11.4923 6.37355 11.7208 5.75443 11.7208C4.32524 11.7208 3.16666 10.503 3.16666 9.00084C3.16666 7.49863 4.32524 6.28085 5.75443 6.28085C6.37692 6.28085 6.94807 6.51186 7.39451 6.89678L5.65929 5Z" fill="#E61C29"/>
<path d="M16 9.16085L14.25 7.24086C14.4913 7.53908 14.9738 8.34058 14.9738 9.16085C14.9738 9.98112 14.4913 10.7826 14.25 11.0808L16 9.16085Z" fill="#E61C29"/>
<path d="M7 7.29456L6.88496 7.75092C6.80638 7.56906 6.493 7.20534 5.86814 7.20534C5.08706 7.20534 4.50501 7.93651 4.50501 9.04714C4.50501 10.1578 5.27494 10.7316 5.86814 10.7316C6.3427 10.7316 6.7908 10.4169 6.95554 10.2596C6.97036 10.3398 6.99111 10.5224 6.95554 10.6113C6.57471 10.9537 6.15249 11 5.86814 11C5.58379 11 4 10.6483 4 9.04714C4 7.44598 5.3152 7 5.86814 7C6.31049 7 6.80703 7.19637 7 7.29456Z" fill="black"/>
<path d="M7.48556 7C7.48556 7 7.02765 10.9329 7.00476 11H7.35964L7.61149 7.99329L8.96231 11L10.2445 8.08725L10.565 11H11L10.565 7H10.4391L8.96231 10.0067L7.61149 7H7.48556Z" fill="black"/>
<path fill-rule="evenodd" clip-rule="evenodd" d="M11 11V7H11.3333V8.63638H13.6667V7H14V11H13.6667V9.00002H11.3333V11H11Z" fill="black"/>
</svg>
