<!-- by TradingView --><svg width="18" height="18" viewBox="0 0 18 18" xmlns="http://www.w3.org/2000/svg"><path fill="#002D59" d="M0 0h18v18H0z"/><path fill-rule="evenodd" d="M13.57 12 15 6h-.95l-.87.99H11.5c-.55 0-1.72.27-1.98 1.36l-.47 2.06c-.16.53-.08 1.59 1.5 1.59h3.01Zm-1.42-1 .82-3h-1.11c-.13.03-.4.22-.55.76l-.12.38c-.13.43-.26.87-.31 1.1v.03c-.08.37-.16.73.4.73h.87Z" fill="#098BC3"/><path d="M7.72 7 8 6H5.32c-.64 0-1.2.46-1.37 1.12l-.91 3.51c-.18.69.3 1.37.95 1.37h2.88l.28-1H5.12c-.24 0-.43-.21-.43-.46l.01-.1.8-2.97A.58.58 0 0 1 6.03 7h1.68Z" fill="#fff"/></svg>