<!-- by TradingView --><svg width="18" height="18" viewBox="0 0 18 18" xmlns="http://www.w3.org/2000/svg"><path fill="url(#a)" d="M0 0h18v18H0z"/><path fill-rule="evenodd" d="M14.47 8.63h-1.32c-.02 0-.03 0-.05-.02a.05.05 0 0 1-.02-.04v-.74l.02-.04a.07.07 0 0 1 .05-.01h1.81l.02-.02.01-.02.01-.02v-.66c0-.02 0-.03-.02-.04a.07.07 0 0 0-.05-.02h-2.86c-.02 0-.04 0-.05.02a.05.05 0 0 0-.02.04v3.88c0 .02 0 .03.02.04l.05.02h.96c.01 0 .03 0 .04-.02a.05.05 0 0 0 .02-.04V9.42l.02-.04a.07.07 0 0 1 .05-.02h1.3c.03 0 .04 0 .06-.02a.05.05 0 0 0 .02-.04V8.7l-.02-.04a.07.07 0 0 0-.05-.02Zm-5.34-.7c-.07.13-.06.35.1.45.17.1.3.16.43.19.4.1.72.21.98.33.68.3.82.96.44 1.52-.47.68-1.7.7-2.4.38-.45-.2-.68-.51-.71-.95 0-.03.01-.04.04-.04h1.04c.02 0 .04.01.05.04.1.42.66.55.97.26.35-.32-.12-.6-.42-.69l-.17-.05c-.85-.23-1.62-.45-1.49-1.36a.93.93 0 0 1 .13-.4c.2-.28.5-.46.87-.54.87-.19 1.9-.02 2.2.82.02.08.03.15.02.22 0 .03-.02.04-.05.04H10.1c-.09-.24-.22-.37-.39-.4-.28-.05-.48.01-.58.19ZM4.44 10.3a81.18 81.18 0 0 1 1.66 0l.01.03.27.65.01.02h.03l1.06.01h.01l.01-.01v-.02L5.93 7.04a.06.06 0 0 0-.03-.02 49.1 49.1 0 0 0-1.25 0 .06.06 0 0 0-.02.02L3 10.95v.02l.02.02h1.1l.01-.02.27-.66.02-.02h.02Zm.78-2.14L4.7 9.5v.01l.01.02.02.01H5.8V9.5l-.5-1.35-.02-.02a.05.05 0 0 0-.05 0l-.02.02Z" fill="#fff"/><defs><linearGradient id="a" x1="3.35" y1="3.12" x2="21.9" y2="24.43" gradientUnits="userSpaceOnUse"><stop stop-color="#1A1E21"/><stop offset="1" stop-color="#06060A"/></linearGradient></defs></svg>