<!-- by TradingView --><svg width="18" height="18" viewBox="0 0 18 18" xmlns="http://www.w3.org/2000/svg"><path fill="#F0F3FA" d="M0 0h18v18H0z"/><path fill-rule="evenodd" d="M14 4H4v5.1C4.58 7.54 5.6 5.45 8.9 5l.1.3c-1.26.29-3.74 1.6-4 4.35 0 .92.8 2.35 3.59 2.35 2.55 0 4.8-1.77 5.41-3.71V4Zm-4 1.21v-.17c.38-.16 3 .08 3 2.24C13 9.45 10.4 11 8.6 11 6.8 11 6 9.96 6 8.76c0-.96.74-1.87 1.11-2.2l.16.14c-.11.15-.27.54-.27.93C7 8.58 7.78 9 8.6 9c1.27 0 2.9-1.12 2.9-2.07 0-1.06-.95-1.59-1.5-1.72Zm-1.83 2.5c.39.39 1.3.39 2.03 0 .73-.4 1.01-1.03.63-1.42-.39-.39-1.3-.39-2.03 0-.73.4-1.01 1.03-.63 1.42Z" fill="#2E3192"/><path d="M14 10a6.56 6.56 0 0 1-5 4h5v-4ZM7 14c-1.41-.4-2.4-1.44-3-3v3h3Z" fill="#EC1B23"/></svg>