<!-- by TradingView --><svg width="18" height="18" viewBox="0 0 18 18" xmlns="http://www.w3.org/2000/svg"><path fill="#F0F3FA" d="M0 0h18v18H0z"/><path d="M4 13.97 8.98 3.01a.02.02 0 0 1 .03 0L14 13.97V14h-.01l-.01.01H4a.02.02 0 0 1 0-.03Z" fill="#2E3192"/><path d="M7.67 6.99 8.98 4.3a.01.01 0 0 1 .02 0l1.32 2.69V7H7.66v-.01ZM7.32 7.99l.2-.48h.01V7.5h2.93l.22.49V8H7.31v-.01ZM7.55 8.97c-.14.03-.19.23-.22.34-.16.46-.3.9-.45 1.3-.02.08 0 .2.09.2.13.02.2-.12.24-.22a32.88 32.88 0 0 0 .14-.47h.82a.02.02 0 0 1 .02.01v.01l-.14.92c-.02.12-.3.23-.41.26-.38.1-1.78.3-1.76-.39a1 1 0 0 1 .11-.42l.67-1.37c.07-.15.17-.29.29-.43.27-.3.57-.45.99-.37.17.04.32.13.45.26a.05.05 0 0 1 .01.04l-.12.83v.01h-.73l-.02-.01.09-.31c.03-.1.01-.15-.04-.19h-.03ZM10.46 8.97a.06.06 0 0 0-.08.03.2.2 0 0 0-.02.14l.4 1.5c.03.08.16.22.27.16.05-.03.07-.08.05-.16a7.94 7.94 0 0 0-.15-.52H11.76l.01.02.42.91c.07.15-.21.26-.32.3-.46.1-.89.1-1.3 0a.97.97 0 0 1-.67-.5c-.05-.09-.1-.27-.12-.53a52.1 52.1 0 0 1-.15-1.27c0-.13.01-.28.07-.43.1-.27.35-.32.63-.3.25.04.5.13.7.27.03.02.05.06.08.1l.35.78v.01h-.71c-.02 0-.04 0-.04-.03a4.41 4.41 0 0 0-.12-.34.25.25 0 0 0-.13-.14ZM9 8.38a11.43 11.43 0 0 1 .37.02c.01.1.03.24.03.42a.6.6 0 0 1-.02.15.65.65 0 0 0-.02.2c.04.77.07 1.26.1 1.5 0 .06.03.13.1.22l.01.03.04.46c0 .02 0 .03-.02.03H8.34l-.02-.04.05-.47.01-.02c.07-.09.1-.16.11-.22l.13-1.49-.01-.2a.6.6 0 0 1-.03-.16 4.32 4.32 0 0 1 .07-.43H9ZM5.3 12.95l.2-.93v-.01l.02-.01h6.97l.01.02.2.93a.07.07 0 0 1 0 .03V13H5.3l-.01-.02v-.03Z" fill="#FFF200"/></svg>