<!-- by TradingView --><svg width="18" height="18" viewBox="0 0 18 18" xmlns="http://www.w3.org/2000/svg"><path fill="#F0F3FA" d="M0 0h18v18H0z"/><path fill-rule="evenodd" d="M4 14h6.91c1.65 0 3.09-1.3 3.09-2.9V4H7.09C5.44 4 4 5.3 4 6.9V14Zm.3-.3h6.5c1.6 0 2.9-1.26 2.9-2.82V4.3H7.2c-1.6 0-2.9 1.26-2.9 2.82v6.58Z" fill="#283892"/><path d="M6 9.38V7.21l2 2.17v2.12L6 9.38ZM8 9.38V7.21l2 2.17v2.12L8 9.38ZM10 7.16v2.2l2-2.16V5.07l-2 2.09ZM11.08 8.46 10.04 9.5 12 11.5V9.35l-.92-.89Z" fill="#283892"/><path opacity=".5" fill="#ED1C24" d="M6 12h6v1H6z"/></svg>