<!-- by TradingView --><svg width="18" height="18" viewBox="0 0 18 18" xmlns="http://www.w3.org/2000/svg"><path fill="#F0F3FA" d="M0 0h18v18H0z"/><path d="M5 4h2v2.96l-1.02.79L5 6.96V4Zm8 10h-2v-2.96l1.02-.79.98.79V14ZM10 4H8v3.54l.98.79L10 7.54V4Zm0 10H8v-3.54l.97-.75-.14-.06a6.1 6.1 0 0 0-2.57-.64c-.66.01-1.37.24-2.18.5L4 9.54v-1.3c.83-.27 1.4-.43 2.24-.44.85-.02 1.76.19 2.98.72A5.24 5.24 0 0 0 14 8.24v1.3c-.41.3-1 .47-1.92.58a6.2 6.2 0 0 1-2.92-.34l.84.68V14Zm3-10h-2v4.08l.98.79 1.02-.8V4ZM7 14H5V9.92l1.02-.79.98.8V14Z" fill="url(#a)"/><defs><linearGradient id="a" x1="9" y1="4" x2="9" y2="14" gradientUnits="userSpaceOnUse"><stop stop-color="#21B8D6"/><stop offset=".53" stop-color="#82C8E7"/><stop offset="1" stop-color="#27BBD9"/></linearGradient></defs></svg>