<!-- by TradingView --><svg width="18" height="18" viewBox="0 0 18 18" xmlns="http://www.w3.org/2000/svg"><path fill="#F0F3FA" d="M0 0h18v18H0z"/><path d="M16 7h-2v.34h1.85l.15 1.7V7ZM13.83 8h.84l-.62 1.49H16l-.21.51H13l.83-2ZM9.55 10l.83-2h1.78c.24 0 .84-.04.84.36 0 .1-.04.23-.1.39-.26.64-.73.76-1.35.76h-.85l-.2.49h-.95Zm1.35-1h.84c.1-.04.21-.11.27-.25.06-.14-.05-.25-.05-.25h-.84l-.22.5ZM6.24 8H10l-.24.51H8.34L7.63 10h-.94l.72-1.49H6L6.24 8ZM4.8 9.22h.93l-.07.19c-.13.31-.32.45-.68.52-.27.05-.6.07-1.28.07-1.2 0-1.3-.02-1.51-.11-.17-.08-.22-.18-.17-.38.02-.09.08-.25.18-.5.18-.43.26-.6.38-.7.27-.26.36-.31 1.95-.31.81 0 1.09.02 1.27.09.22.08.25.23.12.54l-.04.1h-.92c.04-.13.05-.16 0-.19a3.1 3.1 0 0 0-.9-.05c-.57 0-.49 0-.6.05-.13.06-.21.18-.33.47-.21.5-.3.5.68.5 1.02 0 .86 0 .99-.29Z" fill="#0095DC"/></svg>