<!-- by TradingView --><svg xmlns="http://www.w3.org/2000/svg" width="18" height="18"><path fill="#FFA300" d="M0 0h18v18H0z"/><path fill-rule="evenodd" d="M9 12.76a3.76 3.76 0 100-7.52 3.76 3.76 0 000 7.52zm0 .35a4.1 4.1 0 100-8.22 4.1 4.1 0 000 8.22z"/><path fill-rule="evenodd" d="M9 14.65a5.65 5.65 0 100-11.3 5.65 5.65 0 000 11.3zM9 15A6 6 0 109 3a6 6 0 000 12z"/><path d="M9.25 11.11l.59-.57.23.24-.63.53-.06.11-.07.12h-.46a.78.78 0 01.4-.43zM7.28 7.52l-.48.12-.32.15c-.1.06-.2.17-.2.23l.41.1.2-.18.1-.04.33-.36c.02-.02.02-.05-.05-.02z"/><path d="M10.1 8.66a9 9 0 01-.7-.9c.15-.39.21-.82.16-1.24-.08-.16-.18-.3-.29-.44-.04-.07-.23-.28-.31-.28-.02 0-.05 0-.05.02l.03.23c-.28.17-.6.39-.86.6a.7.7 0 00.02.25c.04.04.09.07.14.09.19-.05.38-.09.57-.11l-.36.53-.42.3-.5-.17c-.04 0-.06 0-.08.02l-.38.4a.11.11 0 00-.04.08L7 8.5v.15c-.01.17.04.34.14.48l.23-.36a.92.92 0 01-.1-.25v-.38l.23-.17.63.44c.1.18.2.35.33.51.28.25.59.47.9.66.03.17.07.33.13.49l.76.78-.44.57a.55.55 0 00-.3.47h.53l.06-.3.63-.7c.04-.04.04-.06.02-.1l-.17-.6c.16-.18.26-.41.27-.65 0-.44-.33-.63-.57-.77a1.27 1.27 0 01-.18-.11zm.95.93a2.79 2.79 0 00-.14-.4s.02-.02.08 0 .38.25.38.25c.16.24.27 1.25.27 1.61a1.83 1.83 0 01-.5-.32l-.09-1.14z"/><path opacity=".4" d="M4.78 7.66a4.42 4.42 0 018.48.16l1.12-.65a5.69 5.69 0 00-10.71-.15l1.11.64zm-.4 4.64a5.68 5.68 0 009.18.1l-.9-.92a4.42 4.42 0 01-7.39-.1l-.9.93z"/></svg>