<!-- by TradingView --><svg width="18" height="18" viewBox="0 0 18 18" xmlns="http://www.w3.org/2000/svg"><path fill="#35B5BE" d="M0 0h18v18H0z"/><path d="M14.17 5.56c.1-.98-.68-1.55-1.45-1.55L8.4 4c-1.1 0-2.16.63-2.9 1.5-.2.23-.41.56-.65 1.02L3.59 8.89a8.18 8.18 0 0 0-.56 1.2c-.12.5.14.94.52 1.38.03.03.04.03.04-.01.02-.32.1-.6.23-.85l1.94-3.7A3.26 3.26 0 0 1 8.8 5h4.1a1.63 1.63 0 0 1 1.26.57v-.01ZM8.83 7h3.47c.02 0 .03 0 .02.03l-.46.87c-.03.05 0 .1.05.1h.77c.15 0 .18-.05.24-.17l.02-.03.47-.9c.3-.63.05-.9-.54-.9H8.73c-.74 0-1.28.17-1.8.7-.2.2-.44.6-.76 1.18L4.5 11.05c-.34.65.17.95.68.95H9.4c1.32-.02 1.73-.77 2.3-1.94a.04.04 0 0 0 0-.04l-.02-.01h-.92c-.03 0-.05 0-.06.03l-.02.03c-.2.36-.46.85-.87.9l-.6.03H5.7c-.01 0-.02-.01-.02-.03l1.29-2.4.04-.09c.52-.97.8-1.47 1.83-1.48Zm5.4.24c.14-.26.21-.56.2-.87 0-.06.03-.07.07-.04.94.8.35 1.78-.12 2.58l-.03.06c-.02.02-.03.03-.05.03H13.36v-.01l-.02-.02v-.04c.31-.56.6-1.12.9-1.69Zm-3.6 6.58c1.34-.4 1.97-1.5 2.64-2.7a.07.07 0 0 0-.02-.1.06.06 0 0 0-.03-.02h-.87a.07.07 0 0 0-.07.04c-.81 1.48-1.6 1.94-3.2 1.96H5.4a2.4 2.4 0 0 1-1.46-.48.02.02 0 0 0-.02.01v.02c.14.62.58 1.18 1.15 1.36.38.09 1.42.09 1.42.09h2.88c.55-.01.96-.1 1.24-.18Z" fill="#fff"/></svg>