<!-- by TradingView --><svg width="18" height="18" viewBox="0 0 18 18" xmlns="http://www.w3.org/2000/svg"><path fill="#F0F3FA" d="M0 0h18v18H0z"/><path d="M12.34 4.04 10.8 5.95c-1.2-.7-2.4-.7-3.6 0A3.32 3.32 0 0 0 5.44 9.1a3.62 3.62 0 0 0 1.38 2.74c.08.07.12.05.12-.05l.02-.8a.17.17 0 0 0-.04-.12l-.22-.29a.23.23 0 0 1-.05-.14V9.8c0-.04.02-.07.06-.08l.5-.12c.04-.02.07-.05.07-.1V8.48c0-.05-.02-.08-.07-.1l-.3-.08c-.09-.02-.1-.06-.03-.11l1.8-1.6c.2-.18.4-.18.59 0l.6.51-.74.93-.37.04c-.1.01-.16.07-.16.17v.57c0 .1.05.13.14.09.15-.08.34-.08.56 0 .1.1.24.14.4.1l.69.18.26.16c-.04.2.16.35.62.43.06 0 .08.04.08.1v.43c0 .05-.01.1-.05.14l-.38.45a.12.12 0 0 0-.03.09l.04.91c0 .07.04.09.1.04a3.65 3.65 0 0 0 1.45-2.16l2.35.6a5.83 5.83 0 0 1-2.03 3.27A5.8 5.8 0 0 1 8.98 15a5.9 5.9 0 0 1-5.05-2.83 5.7 5.7 0 0 1-.55-5.18 5.7 5.7 0 0 1 3.77-3.66 5.7 5.7 0 0 1 5.19.7ZM7.59 8.38c-.03 0-.04.01-.04.04v.72c0 .04.02.05.06.04L8.29 9c.02 0 .03-.02.03-.04v-.71c0-.04-.02-.05-.06-.04l-.67.17Z" fill="#19226D"/><path d="M12.34 4.04a5.82 5.82 0 0 1 2.36 3.11 5.9 5.9 0 0 1 .14 3.22l-2.35-.6a3.64 3.64 0 0 0-1.69-3.82l1.54-1.91ZM9.88 7.1l1.2 1.06c.07.06.06.1 0 .14-.1.06-.21.1-.33.1-.05.01-.08.04-.08.1v.84l-.28-.16.02-.74c0-.02 0-.03-.02-.03l-.66-.18c-.02 0-.03 0-.03.02V9a.4.4 0 0 1-.4-.1c.14-.47.08-.76-.16-.87l.74-.93Z" fill="#F6921E"/></svg>