<!-- by TradingView --><svg width="18" height="18" viewBox="0 0 18 18" xmlns="http://www.w3.org/2000/svg"><path fill="#F0F3FA" d="M0 0h18v18H0z"/><path d="M12.02 5.3c.3-.07.6-.08.9 0 .28.06.52.21.72.44a1.5 1.5 0 0 1 .12 1.8c-.23.38-.46.67-.69.88a7.14 7.14 0 0 1-2.39 1.42c-.38.13-.61.23-.89.28a5.6 5.6 0 0 1-.48.05.05.05 0 0 1-.02-.03c0-.04 0-.07.02-.1a20.06 20.06 0 0 1 1.16-.4c.5-.21.97-.53 1.41-.96.39-.37.63-.8.73-1.28.01-.08-.01-.2-.08-.36-.2-.49-.57-.69-1.13-.61a.3.3 0 0 1-.31-.18c-.06-.13-.1-.22-.16-.31a.96.96 0 0 0-.95-.41.87.87 0 0 0-.41.14c-.13.1-.24.2-.31.33-.18.3-.3.65-.36 1.06-.06.39-.09.7-.08.94 0 .38.04.83.1 1.35.02.13.05.25.1.37.01.05-.03.1-.08.1-.17-.01-.18-.13-.22-.28-.17-.68-.27-1.38-.3-2.1a9.34 9.34 0 0 1 .14-1.68c.1-.5.3-1.06.7-1.4.22-.2.47-.3.74-.34.4-.05.74-.01 1 .12.31.14.58.44.74.77a22.81 22.81 0 0 1 .2.39.1.1 0 0 0 .08 0ZM4.9 8.76a.12.12 0 0 0 .07-.06.12.12 0 0 0 0-.09.9.9 0 0 1 .03-.55c.15-.43.44-.7.86-.8.19-.04.38-.03.58.02.6.14 1.1.6 1.44 1.08.25.36.46.73.64 1.1.05.1.09.22.12.35.05.18.12.42 0 .55H8.6a5.79 5.79 0 0 0-.78-1.46 2.78 2.78 0 0 0-.47-.5c-.11-.1-.26-.18-.43-.25a.72.72 0 0 0-.65.07.7.7 0 0 0-.35.48c-.02.1-.04.22-.04.38l-.02.06c-.05.07-.16.1-.23.13-.29.13-.42.36-.38.67.02.22.13.38.32.5.19.1.37.19.56.24.38.1.76.14 1.16.1.51-.05.92-.13 1.23-.25.03-.01.05 0 .03.03-.01.05-.02.14-.08.16-.41.14-.84.24-1.3.3-.3.05-.7.03-1.04.04a3.12 3.12 0 0 1-1.44-.3c-.47-.22-.7-.55-.7-1 0-.2.05-.37.14-.52.18-.28.44-.38.76-.48ZM12.07 13.47a1 1 0 0 1-.32.37.96.96 0 0 1-.81.12c-.41-.12-.73-.48-.96-.83a4.1 4.1 0 0 1-.58-1.36c-.06-.28-.11-.5-.1-.74 0-.04.04-.07.08-.05.02.02.04.05.05.1a4.64 4.64 0 0 0 .76 1.72c.14.18.33.3.56.35.07.02.14.01.2-.01.2-.08.32-.12.41-.32.07-.14.11-.29.13-.44.02-.15.29-.22.37-.28.45-.36.22-.82-.17-1.07a2.32 2.32 0 0 0-1-.33 1.69 1.69 0 0 0-.52 0l-.64.09c-.08.01-.1-.01-.04-.08a.26.26 0 0 1 .14-.1 4.43 4.43 0 0 1 2.47.07c.3.1.55.25.76.47.18.18.26.4.26.65 0 .32-.15.52-.37.72a.5.5 0 0 1-.2.12.83.83 0 0 0-.26.1c-.15.21-.1.5-.22.73ZM6.75 13.26c.11.02.22.04.3.16l.06.1c.1.17.2.34.41.42a.9.9 0 0 0 .85-.13c.16-.12.29-.3.38-.5.16-.38.24-.74.25-1.11v-.44a.9.9 0 0 0-.07-.35c.06.34-.05.82-.13 1.03-.1.32-.24.6-.54.73-.37.16-.5-.05-.65-.27a3.16 3.16 0 0 0-.08-.12c-.07-.09-.16-.11-.27-.14l-.15-.04c-.23-.09-.36-.22-.38-.4-.04-.31.28-.61.58-.75.27-.13.57-.26.9-.37a.92.92 0 0 1 .3-.06 1.2 1.2 0 0 0-.53.03c-.5.1-.96.29-1.39.54-.33.2-.59.51-.59.88 0 .35.19.6.57.74a.9.9 0 0 0 .18.05Z" fill="#ED216E"/></svg>