<!-- by TradingView --><svg width="18" height="18" viewBox="0 0 18 18" xmlns="http://www.w3.org/2000/svg"><path fill="#F0F3FA" d="M0 0h18v18H0z"/><circle cx="11" cy="9" r="2" fill="#010504"/><path d="M10.94 8.9c-.56.56-1.3.72-1.66.36-.36-.36-.2-1.1.36-1.66.56-.55 1.3-.71 1.66-.36.36.36.2 1.1-.36 1.66Z" fill="#717179"/><path d="M10.59 8.56c-.42.43-.99.55-1.26.28-.27-.28-.15-.84.27-1.26.43-.43.99-.55 1.26-.28.27.28.15.84-.27 1.26Z" fill="#C9CDD0"/><path d="M11 5H5v8h6v-1a3 3 0 1 1 0-6V5Z" fill="#072472"/><path d="M4 10c3.17-2.25 7.62-2.59 9.69-2.47.17.01.31-.11.31-.27 0-.14-.13-.25-.28-.26C7.16 6.88 4.57 9.37 4 10Z" fill="#010504"/></svg>