<!-- by TradingView --><svg xmlns="http://www.w3.org/2000/svg" width="18" height="18"><path fill="#F0F3FA" d="M0 0h18v18H0z"/><circle cx="9" cy="9" fill="url(#ateytc2ja)" r="5"/><path d="M5.06 6.28c.1-.07.14-.17.21-.27.04-.05.17-.22.25-.17 0 .02-.04.1-.02.12.09.09.07.14.11.14.1.02.1-.23.15-.3.05-.1.06-.2.1-.3.12-.19.3-.35.45-.52.06-.06.18-.21.29-.2-.15.24-.28.16-.12.35.05.05-.04.1-.03.13.02.1.15-.2.16-.22.1-.15.3-.21.45-.3l.3-.18c.07-.05.18-.08.26-.12.08-.03.17-.08.24-.13.04-.02.29-.06.25-.12-.02-.04-.29 0-.34 0l-.26.04a5.04 5.04 0 00-2.82 2.24.63.63 0 00-.05.15c.14-.13.28-.23.42-.34z" fill="url(#bteytc2ja)"/><path d="M13.7 7.31A5 5 0 008.95 4c-.06.03-.13.09-.09.15.03.04.15.03.17.06.08.1-.1.06-.07.13-.06.03-.16.06-.08.13.03.02.08.01.13.02.25.04-.2.27-.07.44.14.15-.17.07-.19.08-.03-.06-.15-.01-.18.04-.06.11-.3.21-.43.21-.06 0-.1-.06-.18-.04a1.1 1.1 0 00-.2.1c-.06.04-.03.13-.07.19l-.12.13c-.08 0-.28-.02-.3.07.06 0 .13.19-.01.27-.06-.07-.22.12-.32.03-.07.06-.1.18-.1.27-.06.35.26.17.05.36-.2.18-.8.98-.74 1.33.01.07.05.07.02.15-.13.38.07.52.3.92.04.04.16.17.2.17.08.02.21-.02.21-.11.22-.06.29.04.48-.12.17-.14.34-.25.46 0 .1.2.13.06.3.02.14-.03.22.12.23.24.01.08-.05.15-.05.22 0 .1.13.21.2.27.24.19.2.12.3.32a.9.9 0 01.08.34c.01.13-.13.2-.17.3-.02.08-.01.12 0 .2.02.04.12.07.17.1.13.04.19.11.33.14.22.05 0 .05 0 .15.1.05-.1.14-.02.22.04.03.1.01.13.04.05.05.05.15.1.22.14 0 .2.23.2.34.07.01.14.02.14.1.07.02.05-.06.07-.1.04-.08.1-.16.18-.18.14-.04.26-.13.4-.2.06-.02.1-.04.14-.1.04-.05 0-.27-.07-.28.02-.1.29-.12.37-.22.04-.06.05-.1.02-.15l-.07-.14c-.05-.05-.12-.03-.13-.1-.02-.09.08-.08.14-.1.17-.05.18-.18.25-.3.06-.1.1-.15.08-.3-.02-.14-.03-.26-.19-.3-.03-.08-.16-.13-.17-.2-.05-.02-.27.02-.18-.1.12-.16.2-.12.28-.3.08-.15.3-.26.3-.44-.1 0 0-.07 0-.12.11-.02.05-.11.08-.18.08-.12.25-.2.26-.39h-.02c0-.1.07-.17.09-.26.01-.08.07-.22.03-.29-.25-.04-.02-.79-.1-.71 0-.2-.41-.24.12-.36.05 0 .15-.05.12.06.08 0 .21.02.26.07-.02.16.45.02.42.2.06.03 0 .06.02.1.07.18.34.25.34.45 0 .04-.03.08-.01.11.03.06.06.03.1.06.08.06.03.14.13.18.59 0 .21-.6.68-.3z" fill="url(#cteytc2ja)"/><path d="M5.62 12.47a1.95 1.95 0 00-.25-.43c-.06-.08-.14-.26-.01-.32.09-.04.12-.04.07-.16a.3.3 0 00-.14-.15c-.32-.22-.04-.76-.07-1.05-.04-.37-.68-.28-.76-.74-.03-.1.05-.28-.07-.36-.06-.03-.12.02-.17-.02-.05-.04-.05-.15-.04-.2.04-.23-.08-.55-.12-.77A5 5 0 005.98 13h.1c-.16-.16-.36-.3-.46-.53z" fill="url(#dteytc2ja)"/><defs><linearGradient id="ateytc2ja" x1="4.88" y1="2.4" x2="13.01" y2="13.34" gradientUnits="userSpaceOnUse"><stop offset=".19" stop-color="#BAD8E4"/><stop offset=".55" stop-color="#fff" stop-opacity=".34"/><stop offset=".73" stop-color="#fff" stop-opacity=".4"/><stop offset=".98" stop-color="#6A8EA3"/></linearGradient><linearGradient id="bteytc2ja" x1="5.84" y1="4.17" x2="8.44" y2="7.99" gradientUnits="userSpaceOnUse"><stop offset=".21" stop-color="#344F75"/><stop offset=".37" stop-color="#93B1DF"/></linearGradient><linearGradient id="cteytc2ja" x1="9.87" y1="4" x2="10.62" y2="12.21" gradientUnits="userSpaceOnUse"><stop offset=".02" stop-color="#344F75"/><stop offset=".13" stop-color="#6581BE"/><stop offset=".29" stop-color="#849BC8"/><stop offset=".47" stop-color="#94B3D4"/><stop offset=".62" stop-color="#9ABCD9"/><stop offset=".83" stop-color="#728BC2"/></linearGradient><linearGradient id="dteytc2ja" x1="3.19" y1="7.45" x2="5.89" y2="13.27" gradientUnits="userSpaceOnUse"><stop offset=".32" stop-color="#4C688C"/><stop offset=".93" stop-color="#728BC2"/></linearGradient></defs></svg>