<!-- by TradingView --><svg width="18" height="18" viewBox="0 0 18 18" xmlns="http://www.w3.org/2000/svg"><path d="M0 9a9 9 0 1 1 18 0A9 9 0 1 1 0 9Z" fill="#F0F3FA"/><path d="m8.58 4.04-.2.02c.07.16.15.33.2.48.26.6.48 1.09.69 1.44l1.84-.25-.51-1.47A5.03 5.03 0 0 0 9 4l-.42.04Zm-1.75.48a5.33 5.33 0 0 0-.78.44l.08.22c.1.4.24.78.37 1.19l.33-.06c.6-.07 1.95-.28 1.95-.28-.08-.3-.38-1.6-.5-1.97-.5.07-.99.24-1.45.46Zm4.14.26V4.4l-.15-.06.15.43Zm0 0 .35.94.3-.93c-.24-.14-.49-.3-.65-.38v.37Zm.35.94.68-.67c-.1-.09-.26-.16-.38-.26l-.3.93Zm0 0 1.28-.19c-.08-.09-.31-.29-.6-.48l-.68.67Zm-6.71.92 1.52-.22v-.24C6 5.85 5.9 5.46 5.8 5.15c-.37.27-1 1.03-1.2 1.5Zm7.4-.83-.38.06-.22.03.22.6.37.96.08.2c.44-.02 1-.1 1.68-.2a5.08 5.08 0 0 0-1-1.74l-.76.1Zm-1.04.15-1.6.22c.62.98 1.04.78 1.6-.05.04-.06.07-.13.13-.19l-.13.02Zm0 .78c-.08.24-.08.44 0 .59.1.16.3.27.66.31v-.59l-.38-1.02c-.13.28-.23.52-.28.7Zm-4.84-.32.07-.02a1.04 1.04 0 0 0-.07-.22v.24Zm2.45-.1-1.73.25-.11.02.1.05c.9.43 1.45.63 1.74.47.19-.12.26-.37.23-.84l-.23.04Zm-2.45.36-1.67.26a4.85 4.85 0 0 0-.4 2.83c.85-.24 1.53-.45 2.07-.63l.7-.26v-.39l-.56-1.83-.14.02Zm.7.8v-.6c-.08-.03-.15-.09-.22-.13l.22.73Zm0 0 .39 1.23c1.22-.57.9-1.03-.4-1.83v.6Zm4.8.16.23.02c-.08-.2-.15-.43-.23-.61v.6Zm-4.8 1.24c.04-.02.07-.04.1-.04l-.1-.35v.39Z" fill="url(#a0udi1dr2)"/><path d="m13.48 7.62-.08.03-.21.07c-.28.09-.52.18-.74.27a1.8 1.8 0 0 1-.2.1l.2.51.51 1.35.23-.07.3-.11.47-.17v-.05c.02-.18.04-.35.04-.54 0-.52-.07-1.02-.22-1.5l-.3.11ZM7.6 10l-.2-.67h.2c.34 0 .6.06.74.15.34.22.3.67 0 1.37l-.13.29-.16.34-.45-1.48Zm.72 1.48a.38.38 0 0 0 .02-.04c.5-.81.87-1.26 1.24-1.27.24 0 .5.2.78.66l-.95.33-1.07.37-.07.04a.35.35 0 0 1 .05-.09Zm4.1-1.07-.67.24-.52.18-.26.1c.05.27.12.6.22 1l.04.18.33 1.2a4.96 4.96 0 0 0 1.74-1.77l-.15-.38-.17-.45a50 50 0 0 0-.16-.45l-.4.15Zm.77-.26.3-.11.45-.17a3.22 3.22 0 0 1-.48 1.42l-.27-.74-.15-.37.15-.03Zm-5 1.75.15-.05c.76-.26 1.48-.52 2.15-.8a14.08 14.08 0 0 1 .87 1.95l.13.3a4.76 4.76 0 0 1-2.5.68h-.15l-.5-1.6-.14-.48Zm4.24-2.16c.07.06.17.11.26.17l-.06-.16a56.68 56.68 0 0 1-.4-1.05l-.19-.51c-.87.48-.6.9.39 1.55Zm-8.36.15a35.06 35.06 0 0 1 3.02-.52c.18.55.35 1.13.51 1.7l.2.67-.2.07-.83.3-.33.11c-.32.11-.65.22-.98.35a5.14 5.14 0 0 1-1.39-2.68Zm7.16-.24c-.28.07-.37.37-.3 1l.3-.12.9-.3.3-.1.2-.08a2.2 2.2 0 0 1-.05-.02l-.15-.07a2.85 2.85 0 0 0-1.05-.35l-.08.02c-.02 0-.04 0-.07.02Zm-4.46 2.79.83-.3.32-.1.14.48.28.97a5.13 5.13 0 0 0 .15.52h-.15a4.6 4.6 0 0 1-1.57-.48c-.46-.22-.85-.5-1.03-.72l1.03-.37Z" fill="url(#b0udi1dr2)"/><defs><linearGradient id="a0udi1dr2" x1="4.32" y1="5.85" x2="8.49" y2="10.24" gradientUnits="userSpaceOnUse"><stop stop-color="#008050"/><stop offset=".61" stop-color="#9EBB4F"/><stop offset="1" stop-color="#E7E248"/></linearGradient><linearGradient id="b0udi1dr2" x1="11.58" y1="12.03" x2="12.1" y2="8.47" gradientUnits="userSpaceOnUse"><stop stop-color="#4A5760"/><stop offset="1" stop-color="#687B89"/></linearGradient></defs></svg>