<!-- by TradingView --><svg width="18" height="18" viewBox="0 0 18 18" xmlns="http://www.w3.org/2000/svg"><path fill="#F0F3FA" d="M0 0h18v18H0z"/><path d="M14.96 7h-2.41c0 1.95-2.1 4.47-5.22 4.47a3.02 3.02 0 0 1-3.21-2.93c0-3.08 3.2-4.3 4.8-4.53C7.06 3.84 3 5.5 3 9.75c0 3.42 3.26 4.26 4.9 4.25 5.12 0 7.46-4.46 7.06-7Z" fill="url(#a34b5sf3x)"/><path d="M4.66 9h1.5c.1-.93.84-3.08 3.1-3.08.69-.04 2.06.26 2.06 1.82 0 1.67-1.42 2.71-2.14 3.02.94-.3 2.8-1.45 2.8-3.7 0-2.24-2-2.72-3-2.68-2.9 0-4.63 3.07-4.32 4.62Z" fill="url(#b34b5sf3x)"/><defs><linearGradient id="a34b5sf3x" x1="7.52" y1="13.78" x2="7.38" y2="3.86" gradientUnits="userSpaceOnUse"><stop stop-color="#192F4E"/><stop offset=".34" stop-color="#814A47"/><stop offset=".73" stop-color="#EA6427"/><stop offset=".97" stop-color="#F0F3FA"/></linearGradient><linearGradient id="b34b5sf3x" x1="8.3" y1="4.37" x2="8.3" y2="10.76" gradientUnits="userSpaceOnUse"><stop stop-color="#E6652B"/><stop offset=".54" stop-color="#5E3E4B"/><stop offset=".8" stop-color="#1A2F4A"/><stop offset="1" stop-color="#F0F3FA"/></linearGradient></defs></svg>