<!-- by TradingView --><svg width="18" height="18" viewBox="0 0 18 18" xmlns="http://www.w3.org/2000/svg"><path fill="#F0F3FA" d="M0 0h18v18H0z"/><path d="M10.61 7.48c-.19-.03-.33.02-.44.15a.17.17 0 0 0-.04.12c0 .32.01.62.03.92 0 .18-.06.21-.2.1a.17.17 0 0 0-.12-.03c-.08 0-.09.03-.04.09.09.09.2.12.38.1a.83.83 0 0 0 .36-.12c.04-.03.05-.06.04-.1a1.02 1.02 0 0 1-.03-.35h-.01a.38.38 0 0 0-.04 0h-.01c.02-.2 0-.37-.06-.53-.02-.06 0-.1.06-.1l.38-.08c.34.08.52.33.53.73 0 .02.01.04.04.04h.06c.02 0 .04-.01.04-.04 0-.05-.02-.1-.04-.13-.05-.06-.03-.09.04-.08.07 0 .13.03.17.07.26.24.52.45.8.62.07.04.1.1.09.17a.19.19 0 0 1-.12.16c-.26.1-.54.12-.83.06a.07.07 0 0 1-.05-.03v-.05c0-.02.02-.03.04-.03l.44-.06c.02-.01.03-.02.04-.05a.05.05 0 0 0-.03-.05l-.43-.21c-.06-.03-.1-.01-.14.05l-.08.23a.28.28 0 0 1-.22.2c-.11.03-.2 0-.28-.08a.84.84 0 0 0-.27-.2.25.25 0 0 0-.24 0c-.17.1-.34.15-.52.17-.03 0-.04.02-.05.05 0 .03.01.05.04.06l.85.36c.05.02.08 0 .08-.05s.03-.07.08-.06l.53.1h.15l.35-.11c.04-.02.08-.01.12.01.14.1.27.07.39-.06a.14.14 0 0 1 .08-.05.1.1 0 0 1 .09.03c.15 0 .28-.06.37-.17a.44.44 0 0 1-.02-.03c-.01-.03 0-.05.03-.05l.04-.01c.2-.17.38-.33.53-.48.33-.34.38-.3.13.1l-.37.6a.24.24 0 0 1-.1.1.6.6 0 0 0-.35.43l-.43 1.82a.45.45 0 0 1-.36.37.86.86 0 0 1-.34.02c-.22-.04-.31-.17-.29-.4.03-.2-.05-.4-.25-.6h-.02l-.03.02c-.04.02-.05.05-.02.09.11.16.08.28-.1.36-.12.05-.12.1 0 .14l.17.07v.02l-.02.04c-.01.03-.03.03-.06.02a.46.46 0 0 0-.34-.01c-.05.02-.07.05-.06.1.04.29-.02.5-.2.65a.37.37 0 0 0-.22.02c-.08.03-.08.06 0 .07a.8.8 0 0 0 .32-.1c-.14.34-.19.61-.14.81.02.05 0 .1-.02.14l-.28.34a.24.24 0 0 1-.16.1c-.09 0-.17 0-.25-.04-.05-.02-.07-.06-.06-.1.03-.2.04-.39.03-.56 0-.16.07-.23.22-.24h.29c.01 0 .02 0 .01-.02l-.02-.04-.04-.02-.16.04c-.04.01-.07 0-.1-.04l-.02-.08c-.1-.2-.15-.36-.17-.47-.02-.19.04-.33.19-.43a.15.15 0 0 0 .06-.11l.03-.36c.24.2.44.25.6.16.06-.03.07-.07.04-.13-.03-.07-.11-.12-.24-.16-.08-.02-.13-.05-.15-.08-.01-.03 0-.03.02-.01.08.05.15.05.21.02.14-.09.13-.15-.02-.2-.14-.06-.2-.14-.16-.23.05.02.08.01.09-.01.02-.06.01-.08-.03-.08 0-.03-.01-.05-.03-.06-.04-.02-.07 0-.08.03a.1.1 0 0 1-.02.05c-.04.03-.06.03-.09-.01a.65.65 0 0 1-.06-.51c.02-.06 0-.09-.06-.1a.75.75 0 0 0-.36.08h-.05a.1.1 0 0 0-.08.05c-.45.85-.93 1.7-1.43 2.57-.1.17-.2.26-.3.27a.87.87 0 0 1-.33-.1 2.62 2.62 0 0 0-.16-.08c-.3-.13-.4-.37-.33-.73 0-.03.01-.03.02 0 .01.1.01.2-.01.28-.01.05 0 .08.02.12.08.11.17.17.27.19.06 0 .14 0 .26-.04a.67.67 0 0 1 .33-.03c.05 0 .1 0 .12-.05l1.4-2.49c.1-.2.2-.42.28-.7.04.17.04.32.02.45-.02.1.02.15.12.12l.1-.03c.09-.02.1-.07.06-.14-.1-.13-.12-.25-.06-.37a.1.1 0 0 0-.03-.12c-.03-.04-.09-.05-.16-.04a.82.82 0 0 1 0-.34c.01-.13-.04-.22-.16-.26l-.55-.18c-.1-.04-.16 0-.16.12l.01.63c0 .04 0 .08-.02.12-.02.03-.04.06-.07.06-.08.02-.08.05 0 .1.12.07.15.17.08.3a.22.22 0 0 1-.1.08c-.16.09-.22.24-.18.46a.94.94 0 0 0-.48-.43c-.02 0-.03 0-.02.02 0 .02.02.02.04.02s.03 0 .03.02l.07.3c.02.08-.01.12-.09.1h-.07c-.04 0-.05-.03-.05-.06 0-.05 0-.08-.03-.11-.04-.05-.07-.04-.08.02a.8.8 0 0 0 .02.46.2.2 0 0 1-.03.07.3.3 0 0 1-.06 0 .08.08 0 0 1-.05-.07l-.1-.4-.02-.01-.04-.01c-.02 0-.04 0-.04.03v.2c0 .02 0 .04-.02.05a.07.07 0 0 1-.05.02c-.04 0-.07-.02-.08-.07l-.02-.17c-.02-.11-.05-.12-.1-.02l-.1.2a.14.14 0 0 1-.13.08.25.25 0 0 1-.13-.03.13.13 0 0 1-.06-.12v-.13c0-.03-.01-.04-.04-.05-.04 0-.06.04-.07.13 0 .03 0 .05.02.08.08.09.06.16-.05.21-.1.05-.12.12-.05.21.02.04.06.07.11.07.05.01.08 0 .1-.06a.28.28 0 0 1 .22-.2l.02.01.01.04c.01.04 0 .06-.04.06-.04.01-.06.03-.06.07 0 .04.01.07.05.07l.28.04c.04 0 .07.03.07.08.01.08.05.15.1.2l.27.84c.03.07 0 .09-.06.06l-.71-.3a.17.17 0 0 1-.11-.17v-.6c0-.07-.03-.09-.09-.06l-.34.15V11c0-.1-.05-.15-.15-.16l-.06-.01c-.09-.01-.13.03-.13.13 0 .16-.06.25-.2.27-.04 0-.07.03-.08.08 0 .08.04.14.13.18l.07 1.4c0 .03 0 .05-.04.07a.23.23 0 0 1-.22 0l-.65-.3c-.05-.02-.07-.06-.05-.11.13-.3.22-.63.27-.97.03-.2 0-.39-.1-.57l-.3-.5a.14.14 0 0 0-.13-.08h-.83c-.06 0-.09-.03-.08-.09.05-.25.17-.6.35-1.07.2-.5.3-.87.33-1.1.03-.32.03-.64 0-.99a.2.2 0 0 0-.04-.1.75.75 0 0 1-.14-.6c.01-.06.04-.07.09-.04l.42.32c.04.03.08.03.11 0 .12-.1.13-.24.04-.43a.34.34 0 0 0-.19-.18l-.38-.14a.2.2 0 0 1-.13-.14l-.11-.36c-.02-.06 0-.1.06-.13a.13.13 0 0 1 .08 0c.04.02.06.05.05.09 0 .03-.02.05-.05.06-.02 0-.03 0-.03.03.03.32.22.5.6.52.05 0 .07-.02.05-.08l-.02-.07a.14.14 0 0 0-.11-.1l-.29-.06c-.1-.01-.1-.04 0-.07l.19-.07c.08.06.17.06.27 0 .2-.1.39-.12.59-.07.16.05.16.08-.01.09-.23 0-.38.05-.44.12-.11.13-.1.16.07.1.15-.05.3-.08.45-.1.06 0 .1-.04.1-.1.02-.1.11-.14.27-.13.02 0 .03.01.03.03.02.03 0 .05-.03.06-.06 0-.1.02-.14.06a.04.04 0 0 0 0 .04c0 .02.01.03.03.03.18 0 .35 0 .51-.02h.15c.09.03.14.08.17.16.02.05.05.06.1.06l.07-.04.04.01c.03.03.03.05 0 .08-.15.1-.21.23-.18.4.01.08 0 .14-.06.19a.22.22 0 0 0-.08.12c-.01.06.01.1.07.12l1.55.4c.2.05.37-.02.48-.21l.6-1a.28.28 0 0 1 .16-.12h.09c.06.03.07.07.03.13l-.55.8c-.02.04-.01.07.02.09.3.16.61.25.93.27a.1.1 0 0 1 .06-.03c.04-.01.06-.03.06-.07 0-.03 0-.06-.02-.09.08-.1.11-.23.1-.37l.25-.1a.12.12 0 0 0 .08-.1c0-.05 0-.1-.05-.13l-.3-.22a.1.1 0 0 1-.05-.12c.03-.12.05-.25.04-.37-.01-.14.05-.23.18-.27l.28-.07c.07-.02.08-.05.02-.1-.15-.1-.3-.07-.44.09-.3.32-.66.5-1.08.52a.09.09 0 0 1-.09-.05.1.1 0 0 1 0-.1c.07-.1.16-.16.28-.2a3.7 3.7 0 0 0-.12.1c-.04.2.01.23.16.1l.28-.18a.96.96 0 0 0 .44-.46l1.12-.02c.23 0 .4.13.52.4.03.05.01.07-.04.05l-.1-.03a.08.08 0 0 1-.07-.06c-.05-.2-.2-.27-.41-.19a.35.35 0 0 0-.23.03c-.06.03-.05.05.01.06.06.01.13 0 .21-.04.12.04.23.1.33.17.12.1.2.15.26.15.14.02.24-.03.3-.17.12-.28.26-.55.41-.8.13-.21.32-.38.57-.52h.05l.05.04c.03.03.03.05 0 .07-.28.15-.5.34-.63.58a.12.12 0 0 0-.01.11.1.1 0 0 0 .09.07c.1.02.2-.02.3-.12 0-.02 0-.01 0 0a.43.43 0 0 1-.24.29.12.12 0 0 0-.07.1c-.01.08 0 .15.06.22.04.05.03.07-.03.06-.13-.03-.24.02-.33.15a.75.75 0 0 0-.12.36l-.05.98c0 .1.04.18.14.22.33.14.56.3.71.51.14.19.28.36.45.53.04.04.04.09-.02.13l-.15.1c-.05.03-.1.03-.13-.02l-.5-.74a.11.11 0 0 0-.1-.05c-.07 0-.13.04-.18.11-.04.06-.03.11.04.14.18.1.25.24.2.43 0 .06.01.11.06.14l.3.2c.05.03.05.07 0 .1l-.1.06a.12.12 0 0 1-.16-.02c-.54-.47-1.06-.89-1.57-1.24a1 1 0 0 1-.33-.4c-.03-.05-.07-.06-.12-.03-.07.04-.1.1-.1.16 0 .13-.02.2-.03.23Z" fill="#010101"/><path d="M13.13 4.45h.02a.48.48 0 0 1-.1.17c-.02.02-.04.03-.06.01a.05.05 0 0 1-.03-.03c0-.03 0-.06.03-.07l.14-.08Zm-6.09.62c.12.07.23.1.25.06.01-.02-.08-.1-.2-.16-.12-.06-.23-.09-.25-.06-.01.03.08.1.2.16Z" fill="#010101"/><path d="M12.34 5.26c-.04 0-.06-.01-.05-.06.04-.1.1-.18.2-.2.08-.02.1 0 .1.09-.03.09-.11.15-.25.17Z" fill="#CECECE"/><path d="M10.25 4.98a.96.96 0 0 1-.44.46 1.8 1.8 0 0 0-.28.18c-.15.13-.2.1-.16-.1l.12-.1.76-.44Z" fill="#FDFDFD"/><path d="M11.27 5.13c.02.02.01.04-.01.05a.36.36 0 0 1-.2.04c-.07 0-.08-.03-.02-.06a.35.35 0 0 1 .23-.03Z" fill="#A3A5A2"/><path d="M7.28 5.25c.02-.04.04-.04.07-.01.02.01.03.04.03.07 0 .02 0 .04-.03.06-.03.01-.05 0-.07-.01-.03-.03-.03-.07 0-.11Zm-.94.02c-.02.06 0 .09.06.1.05 0 .07-.03.06-.08 0-.02-.02-.03-.06-.03.21-.06.34 0 .4.17.02.05.05.08.1.1.06.04.13.06.2.06.05 0 .07.04.06.09-.01.05-.05.1-.12.15l-.32-.23a.13.13 0 0 1-.05-.13c0-.02 0-.03-.02-.04-.04-.05-.09-.05-.14 0-.07.06-.14.07-.22 0a.17.17 0 0 0-.13-.03l-1.23.17c.08-.15.3-.24.67-.29.28-.04.53-.04.74-.01Z" fill="#010101"/><path d="M10.99 5.6a.12.12 0 0 0-.08-.07.11.11 0 0 0-.1.02.59.59 0 0 1-.3.13c-.09.02-.1 0-.03-.07.24-.2.53-.27.87-.21.04 0 .07.03.07.07 0 .06-.02.09-.06.1l-.32.1c-.01 0-.03 0-.04-.02a.25.25 0 0 1 0-.05Z" fill="#FDFDFD"/><path d="M7.04 5.83c.02.01.03.04.03.09a.15.15 0 0 1-.07.04c-.05 0-.08-.02-.1-.06a.23.23 0 0 0-.17-.15.36.36 0 0 0-.15-.01 2.5 2.5 0 0 1-.51.02c-.02 0-.03-.01-.04-.03V5.7a.19.19 0 0 1 .15-.07c.04 0 .05-.02.03-.05a.04.04 0 0 0-.03-.03c-.16-.01-.25.03-.27.13 0 .06-.04.1-.1.1-.14.02-.3.05-.46.1-.15.06-.17.03-.06-.1.06-.07.2-.11.44-.12.17-.01.17-.04 0-.09a.79.79 0 0 0-.58.08c-.1.05-.19.05-.27 0 .02-.05.04-.07.05-.07l1.23-.17c.05-.01.1 0 .13.03.08.07.15.06.22 0 .05-.05.1-.05.14 0l.02.04c0 .06.01.1.05.13l.32.23Z" fill="#636868"/><path d="M12.24 5.58a.23.23 0 0 1-.18.17c-.08.02-.09 0-.03-.05l.16-.15c.06-.06.07-.04.05.03Z" fill="#CECECE"/><path d="M12.74 5.55c-.08.24-.11.5-.08.75 0 .03-.01.04-.04.04h-.04c-.02-.01-.03-.02-.03-.04v-.53c0-.04 0-.09.04-.12a.49.49 0 0 1 .14-.11c.02-.01.02 0 .01.01Z" fill="#010101"/><path d="M11.37 5.87a1.2 1.2 0 0 0-.22.15l-.14.23c-.11.23-.2.22-.28-.03-.03-.12-.12-.19-.27-.2-.07-.02-.08-.05-.02-.1a.13.13 0 0 1 .1-.03c.06 0 .11-.01.15-.06.08-.1.24-.15.47-.12l.18.01c.19 0 .2.05.03.15Z" fill="#FDFDFD"/><path d="M6.5 6.4c.02-.07.08-.1.17-.06.1.04.11.1.01.15-.18.12-.4.17-.63.16a.12.12 0 0 1-.1-.07 1.1 1.1 0 0 0-.31-.35c-.08-.07-.09-.14-.01-.2a.65.65 0 0 1 .25-.16c.1-.03.14.01.14.12-.02.26.1.43.35.5.07.01.11-.01.13-.08Z" fill="#CECECE"/><path d="M10.86 5.93c-.02.04-.03.07-.02.08.02.01.04-.01.07-.05.02-.05.03-.08.02-.1-.02 0-.05.03-.07.07Z"/><path d="m6.8 6.12-.03.02c-.07 0-.12-.04-.14-.11a.08.08 0 0 1 .02-.1c.04-.04.08-.04.12 0 .06.06.07.12.02.2Z" fill="#A3A5A2"/><path d="M8.41 6.8a.6.6 0 0 0-.1.2 12.06 12.06 0 0 1-.05.07h-.05c-.02 0-.03-.02-.03-.04a.54.54 0 0 1 .1-.22l.67-.85c0-.02.02-.02.04 0a6.75 6.75 0 0 1-.57.85Z" fill="#010101"/><path d="M11.45 6.26a.22.22 0 0 1-.2.15c-.05 0-.09-.02-.1-.08-.03-.1 0-.19.07-.25a.9.9 0 0 1 .28-.13c.07-.02.1 0 .1.08a.22.22 0 0 1-.08.13.23.23 0 0 0-.07.1Z" fill="#FDFDFD"/><path d="M6.35 6.24c.1.03.18 0 .2-.04 0-.05-.06-.1-.15-.13-.1-.03-.18-.01-.2.04 0 .04.06.1.15.13Z" fill="#CECECE"/><path d="M5.24 6.33c.05.07.13.09.18.05.05-.04.05-.13 0-.2-.05-.06-.13-.08-.18-.04-.05.04-.05.12 0 .19Z" fill="#636868"/><path d="M11.86 6.73a.52.52 0 0 1-.23.2c-.04.02-.06 0-.07-.04 0-.08.03-.14.09-.19a.26.26 0 0 1 .18-.05c.03 0 .05-.01.06-.05.02-.06 0-.1-.06-.1s-.08-.04-.08-.1c0-.02 0-.04.02-.04h.05l.33.28c.06.06.05.1-.04.1a.57.57 0 0 1-.18-.04c-.03 0-.06 0-.07.03Z" fill="#CECECE"/><path d="M15.63 6.77c-.46.53-.9.96-1.33 1.28a.26.26 0 0 1-.23.04c-.07-.02-.08-.05-.02-.1.46-.4.92-.8 1.37-1.25.1-.1.27-.21.49-.33a.08.08 0 0 1 .06 0l.03.02c0 .03 0 .04-.02.05a1.3 1.3 0 0 0-.35.29Z" fill="#010101"/><path d="M10.37 6.64a.54.54 0 0 1-.1.37c-.01.03-.04.03-.08.02a.37.37 0 0 1-.11-.16.16.16 0 0 1 .03-.16c.05-.07.14-.1.26-.07Z" fill="#FDFDFD"/><path d="M5.06 6.9c.02 0 .03.03.01.05l-.02.03c-.07.12-.17.13-.31.05L4.69 7c-.14-.09-.17-.2-.1-.31l.02-.03c.01-.03.03-.03.06-.02l.39.25Z" fill="#A3A5A2"/><path d="M5.25 6.84c-.04 0-.05-.03-.05-.06a.16.16 0 0 1 .12-.14c.05-.01.1 0 .14.04.05.04.05.08 0 .12a.28.28 0 0 1-.21.04Z" fill="#636868"/><path d="m6.06 7.2-.07-.02c.08-.06.1-.16.03-.28-.01-.02 0-.03.02-.03.09.01.17-.01.25-.07.04-.03.08-.03.13 0 .06.04.08.1.07.16 0 .07.02.12.08.15.03.01.06.04.08.07.04.06.03.11-.04.14-.12.05-.18.02-.2-.08a.12.12 0 0 0-.07-.08c-.1-.05-.2-.03-.28.05Z" fill="#FDFDFD"/><path d="m5.42 8.4-.37-.52c-.03-.3-.02-.52.03-.66.12-.35.23-.36.34 0 .05.14 0 .27-.13.37-.04.03-.05.07-.03.12l.37.63c.02.04.03.07.02.1-.02.04-.06.06-.1.04a.42.42 0 0 1-.13-.07Z" fill="#CECECE"/><path d="M5.5 7.06c0-.07.02-.1.1-.08.05 0 .09.04.11.08.03.04.02.08-.02.11a.66.66 0 0 1-.05.05c-.06.04-.1.03-.11-.05l-.02-.1Zm4.77-.05.02.09c0 .04-.02.06-.06.07a.1.1 0 0 0-.06.03c0-.08 0-.14.02-.17.04.02.07.01.08-.02Z" fill="#636868"/><path d="m11.4 7.37.01.04c.03.06.01.09-.06.07a.3.3 0 0 1-.2-.15c-.03-.06-.02-.1.02-.15.08-.06.16-.1.24-.12.1-.02.11 0 .05.08a.33.33 0 0 0-.04.08.28.28 0 0 0-.02.15Z" fill="#FDFDFD"/><path d="M8.05 8.24a.46.46 0 0 0-.2-.14c0-.08-.02-.11-.08-.12l-.27-.02c-.06 0-.1-.03-.11-.1l-.01-.03c-.01-.03 0-.05.01-.08a.07.07 0 0 1 .07-.02h.12c.08.01.1-.02.04-.08a.12.12 0 0 1-.04-.08c0-.02 0-.03-.02-.04H7.5a.77.77 0 0 1-.6.25c-.15 0-.16-.05-.04-.15.26-.21.58-.28.95-.2.04 0 .06-.01.06-.05V7.3c0-.02-.01-.03-.04-.03-.23 0-.46 0-.7.02a.16.16 0 0 0-.12.05h-.04c-.03-.01-.03-.02 0-.04l.38-.2a.22.22 0 0 1 .13-.02l.28.03c.07.01.13.05.18.1.1.13.24.2.41.23.07.01.09.05.06.1 0 .02-.02.04-.05.04-.03.01-.06 0-.09-.01-.22-.13-.4-.1-.54.12-.05.07-.03.1.05.12a.1.1 0 0 1 .08.06c.02.05.06.07.11.08.1 0 .19.06.25.16.02.04.06.08.1.1l.4.27c.04.03.05.07.03.12a.16.16 0 0 1-.08.06c-.06 0-.09-.01-.1-.07a.07.07 0 0 0-.04-.06c-.04-.02-.06 0-.06.04 0 .07 0 .15.04.21.03.09 0 .13-.08.15l-.39.06c-.03 0-.05 0-.06-.04a.18.18 0 0 0-.07-.1c-.04-.04-.04-.07 0-.1.02-.02.04-.02.06 0 .15.12.29.1.42-.03.07-.07.06-.1-.03-.08l-.2.04c-.05 0-.07-.01-.07-.05v-.05c0-.04.01-.05.05-.05h.16c.07 0 .08-.03.03-.08a1.1 1.1 0 0 0-.3-.2Z" fill="#A3A5A2"/><path d="M11.91 7.13c.17-.06.32 0 .47.19.05.07.06.15.03.23a.22.22 0 0 1-.18.15c-.19.03-.39 0-.6-.08-.04-.02-.06-.06-.06-.11l.03-.32c0-.06.04-.08.1-.07l.11.02h.1Z" fill="#FDFDFD"/><path d="m6 7.18.06.03a.27.27 0 0 0-.06.07c-.03.05-.01.08.04.09.09 0 .16.05.22.12.04.05.03.08-.04.08a.74.74 0 0 1-.24-.05c-.07-.02-.08 0-.03.05l.04.06h-.04a.06.06 0 0 0-.05.06c0 .02 0 .04.02.07a.47.47 0 0 1-.23-.26c-.04-.07-.01-.12.06-.14.1-.03.18-.1.24-.18Z" fill="#636868"/><path d="M11.9 7.31h.03c.04.06.03.1-.03.14-.05.02-.07 0-.07-.04 0-.03.02-.06.06-.1Z"/><path d="M10.61 7.48c.1.03.19.08.26.17l-.38.07c-.06.02-.08.05-.06.1.06.17.08.35.06.54h.01a.4.4 0 0 1 .04 0h.01c0 .12 0 .24.03.35.01.04 0 .07-.04.1a.83.83 0 0 1-.36.12c-.17.02-.3-.01-.38-.1-.05-.06-.04-.09.04-.1.04 0 .08.02.12.04.14.11.2.08.2-.1l-.04-.92c0-.05.02-.09.05-.12.1-.13.25-.18.44-.15Z" fill="#FDFDFD"/><path d="M6 7.63c.16.06.28.08.34.05a.08.08 0 0 1 .1 0l.22.17c.01.02.02.03.01.06 0 .02-.01.03-.04.03a.95.95 0 0 1-.71-.18.1.1 0 0 1-.02-.07c0-.03.02-.05.05-.05l.04-.01Zm2.78.03a.23.23 0 0 0-.07.09c-.12.07-.2.1-.25.06-.04-.03-.04-.06 0-.08a.77.77 0 0 1 .32-.07Z" fill="#A3A5A2"/><path d="m8.72 7.96-.06-.04c-.02-.01-.02-.03-.02-.05l.05-.04c.04 0 .06.02.06.05 0 .06.03.1.08.11.07.02.1.07.07.14a.13.13 0 0 1-.1.08c-.18.03-.4-.06-.67-.28l-.16-.13c-.08-.06-.07-.09.02-.1a.9.9 0 0 1 .23.02c.04 0 .08.03.1.07.07.12.18.22.33.28l.07-.01c.05-.03.05-.07 0-.1Z" fill="#A3A5A2"/><path d="M8.78 7.66c.31.05.6.16.87.33.06.03.08.08.08.14 0 .12.05.21.15.27.06.04.06.06 0 .07-.13.02-.22-.02-.28-.11a.13.13 0 0 1 0-.14l.01-.04a.09.09 0 0 0-.05-.07l-.85-.36a.23.23 0 0 1 .07-.09Z" fill="#FDFDFD"/><path d="M5.74 7.76c.07.14.29.26.64.35l.1.03c.1.03.1.06 0 .1-.1.04-.2.02-.3-.06a.09.09 0 0 0-.08-.02.09.09 0 0 0-.06.06.1.1 0 0 0 0 .08c.02.03.05.05.08.06l.33.09c.02 0 .04.02.04.05 0 .02 0 .04-.02.06-.16.11-.27.08-.36-.09a4.82 4.82 0 0 0-.4-.72h.03Zm1.1.35c-.11.05-.13.03-.05-.06l.16-.18a.1.1 0 0 1 .14-.02l.25.16c.05.02.05.06.01.1l-.03.02h-.03a.52.52 0 0 0-.45-.02Z" fill="#A3A5A2"/><path d="M11.26 8.89c0 .04-.02.05-.06.04h-.05c-.05-.02-.08-.05-.09-.11L11 7.94c-.01-.13.02-.14.1-.05.15.15.2.48.17 1Z" fill="#CECECE"/><path d="M5.42 8.4c-.1.1-.24.02-.4-.22-.07-.11-.06-.21.03-.3l.37.53Z" fill="#636868"/><path d="M7.8 8.18c.07.1.13.17.21.23 0 .08-.07.1-.18.06a.66.66 0 0 1-.31-.2c-.06-.05-.05-.1.02-.14.1-.06.18-.04.27.05Z" fill="#FDFDFD"/><path d="M7.85 8.1c.08.03.15.08.2.14-.04 0-.06.06-.04.17a.84.84 0 0 1-.2-.23.1.1 0 0 1 .04-.08Z" fill="#636868"/><path d="M7 8.42a.14.14 0 0 0-.1-.1c-.07-.03-.07-.05.01-.06.1-.02.22 0 .33.03.07.02.08.05.04.1a.28.28 0 0 0-.06.11.2.2 0 0 1-.13.14l-.37.1c-.08.03-.1 0-.09-.08a.3.3 0 0 1 .1-.15c.04-.04.1-.04.16 0 .1.05.14.02.11-.1Z" fill="#A3A5A2"/><path d="m7.52 8.6-.15.07-.06-.01a.05.05 0 0 1-.01-.06.36.36 0 0 1 .1-.17c.03-.02.07-.03.1 0 .18.12.28.27.29.47 0 .05-.02.07-.06.06h-.06c-.03 0-.04-.02-.04-.05v-.23c0-.08-.04-.1-.11-.07Zm-1.29.3a.14.14 0 0 1 .06-.02c.09 0 .1 0 .01.04l-.24.1a.15.15 0 0 1-.14.01.62.62 0 0 0-.5 0c-.05.02-.07 0-.07-.05l-.01-.19c0-.1.03-.12.12-.08l.2.1c.08.03.1.01.08-.07a.14.14 0 0 0-.09-.1c-.04-.02-.05-.04-.01-.07l.03-.04h.01c.18.09.33.2.45.35.03.04.06.04.1.02Zm1.02-.12.02-.02c.04-.03.04-.02.02.02-.08.18-.2.24-.38.2-.08-.02-.08-.05-.01-.1a.51.51 0 0 1 .22-.06c.05 0 .09-.02.13-.04Zm1.33.25A.14.14 0 0 1 8.71 9c.03 0 .04.02.04.04 0 .03 0 .05-.03.06-.05.02-.1.02-.13 0-.03-.03-.03-.05 0-.07Zm-1.75.2c-.06.07-.08.17-.03.29a.27.27 0 0 1-.1-.03c-.04-.02-.08-.01-.11.02a.2.2 0 0 0-.05.16 1.86 1.86 0 0 1 0-.56c0-.04.03-.07.06-.1.03-.02.07-.03.11 0 .04.03.07.08.1.14l.02.08Z" fill="#CECECE"/><path d="M5.93 9.26c.05.04.05.08-.02.1a.79.79 0 0 1-.47.02c-.13-.03-.15-.1-.05-.18.15-.12.32-.1.54.06Z" fill="#A3A5A2"/><path d="M10.6 9.22c.1 0 .16-.03.16-.06s-.07-.05-.16-.05c-.08 0-.15.03-.15.06s.07.05.16.05Z" fill="#010101"/><path d="M6.8 9.52c-.05-.12-.04-.22.03-.3.08-.03.14-.05.17-.04.08.04.13.1.15.2.01.08 0 .16-.07.22-.05.05-.14.02-.28-.08Z" fill="#FDFDFD"/><path d="M12.99 9.25a.48.48 0 0 1-.37.17c.06-.17.18-.22.37-.17Z" fill="#CECECE"/><path d="M8.63 9.31c.02-.03.05-.04.09-.03.02.01.04.03.04.06s-.01.06-.04.07c-.04.02-.07.01-.1-.02-.02-.02-.02-.05 0-.08Z" fill="#A3A5A2"/><path d="M9.7 9.56c.03.05.04 0 .05-.14.08-.01.14 0 .17.04a.1.1 0 0 1 .03.12c-.06.12-.04.24.06.37.04.07.03.12-.05.14l-.1.03c-.1.03-.15-.01-.13-.12.02-.13.02-.28-.02-.44Zm-2.9-.04c.04.1.13.15.25.17.04 0 .08.03.1.06.12.15.27.2.45.13a6.68 6.68 0 0 0 .77-.32c-.22.16-.46.29-.73.38-.06.02-.08.07-.04.13a.1.1 0 0 1 0 .1c-.02.05-.03.05-.02 0a.3.3 0 0 0 0-.1.12.12 0 0 0-.1-.1c-.19-.06-.32 0-.4.17a.08.08 0 0 1-.07.05.59.59 0 0 1-.23-.04c-.05-.01-.08 0-.08.06 0 .15-.09.21-.24.2-.06-.02-.08-.05-.05-.1a.18.18 0 0 1 .08-.09.12.12 0 0 0 .06-.12l-.01-.43a.2.2 0 0 1 .05-.16c.03-.03.07-.04.1-.02l.11.03Zm-1.5.61-.03-.43c0-.07.03-.1.1-.11l.48-.05c.07-.01.11.02.11.1l.02.5c0 .07-.03.1-.1.1l-.5-.01c-.05 0-.09-.04-.09-.1Z" fill="#FDFDFD"/><path d="M6.26 9.64c-.02.1-.02.2 0 .3 0 .05-.01.07-.06.07h-.06c-.03 0-.04-.02-.04-.05v-.37l.01-.02.05-.02c.03 0 .05 0 .07.02.03.02.03.04.03.07Z" fill="#CECECE"/><path d="M12.42 9.59c.01-.02.03-.02.04-.02.05.03.07.08.05.14-.01.02-.03.04-.05.04-.02 0-.04 0-.05-.03a.12.12 0 0 1 .01-.13Zm-.55.28a.16.16 0 0 1-.02-.15c.02-.07.06-.08.12-.05l.32.2c.04.02.09.03.13 0a.28.28 0 0 1 .24 0c.06.04.06.06 0 .1l-.24.11a.13.13 0 0 0-.08.12l-.08 1.56c0 .03-.02.05-.05.05l-.29-.03c-.02 0-.02 0-.02-.03l.22-1.57c.02-.15-.01-.17-.1-.04a2.8 2.8 0 0 0-.35.83.18.18 0 0 1-.15.15.18.18 0 0 1-.2-.08c-.1-.14-.08-.3.08-.46.19-.19.34-.39.48-.6.02-.04.02-.08 0-.11Zm-.93.68c.04.1.01.14-.1.1l-.12-.03c-.09-.02-.13-.08-.13-.17v-.36c0-.06.02-.1.08-.1l.08.01c.07 0 .1.04.1.1 0 .16.02.3.09.45Z" fill="#FDFDFD"/><path d="M8.6 10.5c-.08.22-.17.41-.26.57-.1.18-.15.17-.17-.04a.1.1 0 0 1 .03-.07c.06-.05.05-.1-.02-.12a.37.37 0 0 0-.23 0 .87.87 0 0 1-.02-.45c.01-.06.04-.07.08-.02.02.03.03.06.03.1 0 .04.01.06.05.07h.07c.08.02.1-.02.09-.1l-.07-.3c0-.02-.01-.03-.03-.02-.02 0-.04 0-.04-.02s0-.03.02-.02c.19.07.35.21.48.43Z" fill="#A3A5A2"/><path d="M5.7 10.68c-.01 0-.02 0-.03-.02-.06-.09-.05-.17.02-.24.03-.03.06-.03.1 0 .07.05.16.08.26.1.04 0 .06.02.07.05 0 .05 0 .08-.03.1a.07.07 0 0 1-.05 0 1.4 1.4 0 0 0-.33 0Z" fill="#CECECE"/><path d="M7.92 10.92c.06.1.06.17 0 .25-.07.08-.18.16-.33.26a.31.31 0 0 1-.1-.2c0-.05-.03-.08-.07-.08l-.28-.04c-.04 0-.06-.03-.05-.07 0-.04.02-.06.06-.07.04 0 .05-.02.04-.06v-.04l-.03-.01a.27.27 0 0 0-.22.2c-.02.05-.05.07-.1.06a.16.16 0 0 1-.11-.07c-.06-.09-.05-.16.05-.2.1-.06.13-.13.05-.22a.1.1 0 0 1-.02-.08c.01-.09.03-.13.07-.13.03 0 .04.02.04.05v.13c0 .05.02.09.06.12a.3.3 0 0 0 .13.03c.06 0 .1-.03.13-.08l.1-.2c.05-.1.08-.1.1.02l.02.17c.01.05.04.07.08.07.02 0 .03 0 .05-.02a.07.07 0 0 0 .03-.05v-.2c0-.03 0-.04.03-.03h.05s.02.01.02.03l.09.39c0 .03.02.05.05.06a.3.3 0 0 0 .06.01Z" fill="#A3A5A2"/><path d="M5.47 10.5c.04.02.05.04.03.08 0 .02-.02.03-.04.03s-.03 0-.04-.02v-.05c0-.03.02-.04.05-.03Z"/><path d="M6.36 10.62a.62.62 0 0 1 .25 0c.02 0 .04.02.03.05v.05c-.01.03-.03.05-.07.04a.82.82 0 0 1-.22-.08c-.07-.03-.06-.05 0-.06Z" fill="#A3A5A2"/><path d="M5.41 10.73c.02-.06.05-.07.1-.03.04.03.06.07.03.11-.02.05-.05.06-.09.02a.13.13 0 0 1-.04-.1Z" fill="#CECECE"/><path d="m6.55 11.35-.49.13c-.09-.03-.13-.1-.13-.17 0-.05.04-.08.09-.08.13-.02.2-.1.2-.27-.01-.1.03-.14.12-.13h.06c.1.02.15.07.15.17v.35Z" fill="#636868"/><path d="M5.77 11.03c-.1.15-.07.28.07.38a.1.1 0 0 1 .04.11c-.03.16-.08.3-.15.42-.1.17-.08.31.05.45.04.04.07.1.07.16s-.02.08-.08.08l-.31-.03c-.06 0-.08-.04-.07-.1.1-.31.17-.65.21-1.01a.56.56 0 0 0-.09-.4c-.02-.04-.01-.07.02-.1.18-.13.33-.16.46-.1.05.03.05.06 0 .08a.11.11 0 0 1-.1.02c-.05-.02-.1 0-.12.04Zm4.43.94c.1.07.2.06.24 0 .04-.06 0-.16-.08-.22-.09-.06-.19-.06-.23 0-.04.06 0 .16.08.22Z" fill="#FDFDFD"/><path d="M12.09 12.8c.05.04.1.05.17.04a.1.1 0 0 1 .1.05c.06.08.05.15 0 .22-.04.04-.04.07 0 .09.16.1.31.2.46.33.26.23.22.34-.13.32a1.43 1.43 0 0 1-.83-.38.19.19 0 0 1-.06-.1l-.27-1.13c-.02-.1.01-.13.1-.1.03.01.05.04.07.07.02.06.05.08.1.07a.4.4 0 0 1 .21 0c.05.02.08.05.1.1a.4.4 0 0 1-.04.32c-.02.04-.02.07.02.1Z" fill="#010101"/><path d="m12.27 12.36-.05-.15c0-.04 0-.05.04-.05h.06c.03 0 .04 0 .04.03l.03.46c0 .07-.03.09-.08.07l-.07-.03c-.04-.01-.05-.04-.04-.08a.52.52 0 0 1 .06-.16.11.11 0 0 0 .01-.1Z" fill="#010101"/><path d="M11.94 12.6a.13.13 0 0 0 0-.18c-.05-.04-.13-.03-.18.03-.04.05-.05.13 0 .18.05.04.13.03.18-.02Z" fill="#FDFDFD"/><path d="M10.14 12.65a.32.32 0 0 1-.13-.09c-.03-.04-.03-.05.02-.04.06 0 .1.04.14.08.07.06.06.08-.03.05Z" fill="#CECECE"/><path d="M12.53 13.55c-.18-.03-.39-.1-.64-.2-.01 0-.02-.02-.01-.04l.01-.04c0-.02.02-.03.04-.03.23.07.44.15.62.26.08.05.08.07-.02.05Z" fill="#FDFDFD"/></svg>