<!-- by TradingView --><svg width="18" height="18" viewBox="0 0 18 18" xmlns="http://www.w3.org/2000/svg"><path fill="#F0F3FA" d="M0 0h18v18H0z"/><path fill-rule="evenodd" d="m13.07 11.6.35-.26-.83-.16c-.23.4-.54.78-.94 1.1.53-.18 1-.41 1.42-.69Zm-.34-.69c.32.06.64.12.96.2.6-.57.96-1.25 1-1.97h-.44l.1-.28h.35a3.03 3.03 0 0 0-1.16-2.1c-.2.07-.46.14-.78.22.1.18.17.38.23.6h-.3a3.92 3.92 0 0 0-.22-.53c-.4.08-.85.17-1.35.24l.08.28h-.3a5.26 5.26 0 0 0-.09-.25c-.51.06-1.07.1-1.66.1v.15h-.3v-.14c-.57 0-1.17-.05-1.74-.11l-.1.25H6.7l.1-.29c-.49-.06-.95-.13-1.36-.2-.1.16-.2.32-.28.5h-.33c.08-.2.18-.38.3-.56-.32-.06-.59-.11-.78-.16-.63.58-1 1.27-1.05 2h.56l-.17.28H3.3c.05.73.42 1.42 1.05 2l.77-.18a4.02 4.02 0 0 1-.32-.53h.34c.09.16.19.32.3.47.4-.07.87-.14 1.38-.2a5.66 5.66 0 0 1-.1-.27h.31l.1.24c.54-.06 1.12-.1 1.72-.1v-.14h.3v.14c.38 0 .95.03 1.6.09l.07-.23h.31l-.08.26c.44.04.9.1 1.37.17l.01-.03c.07-.13.13-.27.18-.4h.32a4.7 4.7 0 0 1-.2.48Zm-.1-4.2c.25-.05.46-.11.64-.16a5.15 5.15 0 0 0-1.36-.74c.25.23.5.53.72.9ZM10 5.35l.77.13a2.6 2.6 0 0 1-.5.21l-.27-.34Zm-.86-.05.41.01c.12.12.26.27.41.46-.23.05-.5.09-.82.1v-.57Zm-.7.01.4-.01v.56a4.03 4.03 0 0 1-.8-.11c.15-.18.28-.32.4-.44Zm-1.18.16c.24-.05.48-.09.74-.12l-.26.31a4.27 4.27 0 0 1-.48-.19Zm-2.34.95c.38-.26.82-.48 1.3-.65a6.1 6.1 0 0 0-.93 1l-.68-.13.3-.22Zm0 5.18a5.08 5.08 0 0 1-.32-.22l.7-.15c.39.48.84.86 1.22 1.13a6.32 6.32 0 0 1-1.6-.76Zm1.75 1.1C4.52 12.09 3 10.66 3 9c0-2.2 2.69-4 6-4s6 1.8 6 4c0 1.8-1.79 3.33-4.25 3.83l-.04.02v-.01a8.82 8.82 0 0 1-4.03-.15Zm4.2-.25-.22.11c-.22.05-.44.08-.67.1.12-.13.23-.28.33-.43.19.06.38.13.57.22Zm-.86-.3c-.14.2-.3.39-.47.56l-.4.01v-.7c.22 0 .53.05.87.13ZM8.85 12v.71h-.26a3.85 3.85 0 0 1-.58-.57c.27-.07.56-.12.84-.14Zm-1.79.5c.34.07.68.13 1.04.17a4.9 4.9 0 0 1-.4-.43l-.64.25ZM10.16 6a4.8 4.8 0 0 1-1.01.13v1c.55 0 1.07-.04 1.56-.1-.16-.4-.36-.74-.56-1.03Zm.49 4.93c-.61-.05-1.14-.08-1.5-.08v.86c.26.01.63.06 1.03.17.2-.31.34-.63.47-.95Zm-.17 1.03c.2-.33.35-.67.48-1 .41.03.86.09 1.31.16a3.6 3.6 0 0 1-1.09 1.14 4.34 4.34 0 0 0-.7-.3Zm-1.63-.25v-.86c-.55 0-1.1.04-1.6.08.17.37.37.7.57.96.33-.1.68-.17 1.03-.18ZM7.52 12a5.72 5.72 0 0 1-.59-1.02c-.47.05-.9.11-1.29.18.42.49.91.87 1.27 1.09.17-.09.38-.17.61-.25Zm-1.9-5.18c.4.07.84.13 1.3.19a6.54 6.54 0 0 1 .65-1.12 4.1 4.1 0 0 1-.67-.3 5.7 5.7 0 0 0-1.28 1.23ZM7.87 6a6.9 6.9 0 0 0-.63 1.05c.53.06 1.08.1 1.61.1v-1a4.4 4.4 0 0 1-.98-.15Zm4.45.8c-.38.08-.82.16-1.3.22a5.85 5.85 0 0 0-.57-1.08c.31-.1.54-.23.67-.33.34.17.82.56 1.2 1.19Z" fill="#02368C"/><path d="m6.5 8-.3.5h-.61l-.61 1.25H14l-.3.25H3.5c-.46-.13.3-.63.92-1.38.49-.6.7-.62 1.01-.62h1.08Z" fill="#E70207"/><path d="M9.25 8h2.25l-.3.52H10l-.3.53h1.35l-.3.52H8.5L9.25 8ZM11.75 8H14l-.3.52h-1.2l-.3.53h1.35l-.3.52H11L11.75 8Z" fill="#E7010B"/><path fill-rule="evenodd" d="M6.3 9.57h.9l.18-.48.42.48h.6l.15-.26h-.3l-.15-.26h.6L9.15 8H6.9l-.6 1.57Zm1.4-1.3-.2.52h.75l.3-.53H7.7Z" fill="#E7010B"/></svg>