<!-- by TradingView --><svg width="18" height="18" viewBox="0 0 18 18" xmlns="http://www.w3.org/2000/svg"><path fill="#F0F3FA" d="M0 0h18v18H0z"/><path d="M7.93 7.09c-.46-.3.44-.85.95-1.09-6.27 2.47-6.3 4.66-5.54 5.44 1.91 2.1 10.7-2.17 11.66-5.08-4.78 4.17-9.37 4.9-10.51 4-.92-.73-.13-1.52.38-1.82-.46.58-.2.97 0 1.09 3.06 1.3 6.5-1.63 7.84-3.27C10.6 8 6.78 9.45 6 8.72c-.6-.58.13-1.2.58-1.45-.46.44-.2.79 0 .9.92.59 3.18-1.08 4.2-1.99-.76.42-2.4 1.2-2.86.9Z" fill="url(#a)"/><defs><linearGradient id="a" x1="12.71" y1="6.54" x2="3.97" y2="12.03" gradientUnits="userSpaceOnUse"><stop stop-color="#EB330E"/><stop offset="1" stop-color="#930008"/></linearGradient></defs></svg>