<!-- by TradingView --><svg width="18" height="18" viewBox="0 0 18 18" xmlns="http://www.w3.org/2000/svg"><path fill="#F0F3FA" d="M0 0h18v18H0z"/><path fill-rule="evenodd" d="M9.78 4.15C9.5 4.05 9.24 4 9 4s-.5.05-.78.15L3.54 5.8c-.35.12-.53.36-.54.7a581.76 581.76 0 0 0 0 5c0 .34.19.58.54.7l4.68 1.65c.28.1.54.15.78.15s.5-.05.78-.15l4.68-1.65c.35-.12.53-.36.54-.7a485.36 485.36 0 0 0 0-5c0-.34-.19-.58-.54-.7L9.78 4.15Zm.63 1.11 3.36 1.07c.07.02.13.06.17.12.04.06.06.13.06.2v4.7c0 .07-.02.14-.06.2-.04.05-.1.1-.17.12l-3.36 1.07a.3.3 0 0 1-.28-.06.35.35 0 0 1-.13-.27V5.6a.35.35 0 0 1 .13-.27.31.31 0 0 1 .28-.06Zm-4.5 1.02c-.07.2 0 .38.16.42.15.04.32-.08.39-.27.06-.2-.01-.38-.16-.42-.15-.04-.33.08-.4.27Zm-.84.01c-.05.18.03.35.16.38.13.03.28-.1.33-.28.04-.18-.03-.35-.16-.38-.14-.02-.29.1-.33.28Zm-.57.72c-.12-.02-.19-.17-.16-.34.04-.17.16-.29.28-.27.12.02.19.17.16.34-.04.17-.16.3-.28.27Zm2.21-.26c-.07.2.02.4.2.45.17.05.36-.08.43-.28s-.01-.4-.19-.46c-.17-.04-.37.08-.44.29Zm-2.75.88c-.1-.01-.18-.15-.16-.31.02-.16.12-.29.23-.28.1.02.18.15.16.32-.02.16-.12.28-.23.27Zm1.1-.1c-.02.19.07.35.2.36.15.02.28-.1.31-.29.03-.18-.06-.34-.2-.35-.14-.02-.27.1-.3.29Zm2.5.62c-.2-.04-.31-.25-.26-.46.06-.21.26-.36.46-.32.2.04.32.25.26.46-.05.22-.26.36-.45.32ZM5.9 7.88c-.03.19.08.36.24.38.16.02.31-.12.34-.31.03-.2-.08-.37-.24-.39-.16-.02-.31.12-.34.32Zm-1.34.48c-.12 0-.21-.15-.2-.32.01-.17.12-.3.25-.29.12 0 .2.15.2.32-.02.17-.13.3-.25.29Zm-1.08-.24c-.01.16.06.28.17.29.1 0 .19-.12.2-.27 0-.16-.07-.29-.18-.29-.1 0-.19.12-.2.27Zm4.43 1.3c-.21 0-.38-.2-.38-.42 0-.23.17-.42.39-.42.21 0 .39.19.38.42 0 .23-.17.42-.39.42ZM6.26 9c0 .2.14.37.31.37.18 0 .32-.17.32-.37 0-.2-.14-.37-.32-.37-.17 0-.31.16-.31.37Zm-.94.33c-.14 0-.26-.15-.26-.33 0-.18.12-.33.26-.34.14 0 .26.15.26.34 0 .18-.12.33-.26.33ZM4.08 9c0 .17.09.3.2.3.12 0 .22-.13.22-.3 0-.17-.09-.3-.2-.3-.12 0-.22.13-.22.3Zm-.54.27c-.1 0-.19-.12-.19-.27 0-.15.09-.28.19-.28s.18.13.18.28c0 .15-.08.27-.18.27Zm-.08.6c.01.16.1.28.2.27.1 0 .19-.13.18-.28-.01-.15-.1-.27-.2-.27s-.19.13-.18.28Zm1.14.38c-.12.01-.23-.12-.25-.29-.02-.16.07-.3.2-.32.12 0 .23.12.25.29.01.17-.07.31-.2.32Zm1.29-.13c.02.2.18.34.34.32.16-.02.27-.2.24-.39-.02-.19-.18-.33-.34-.31-.16.01-.27.19-.24.38Zm1.87.5c-.2.04-.4-.1-.46-.31-.05-.22.07-.42.27-.46.2-.04.4.1.46.32.05.21-.07.42-.27.45Zm-2.7-.16c.03.18.17.31.31.3.14-.02.23-.18.2-.36-.02-.18-.16-.31-.3-.3-.14.02-.23.18-.2.36Zm-1.02.49c-.11.01-.22-.1-.25-.26-.02-.16.05-.3.16-.32.11-.01.22.1.25.27.02.16-.05.3-.16.3Zm2.67.3c.07.2.26.33.44.29.17-.05.26-.25.2-.45-.07-.2-.26-.34-.44-.3-.18.05-.26.25-.2.46Zm-2.1.35c-.11.02-.24-.1-.27-.27-.03-.17.04-.32.16-.34.12-.02.25.1.28.27.03.17-.04.32-.16.34Zm1.3.11c.06.2.23.32.38.28.16-.04.23-.22.17-.42-.06-.19-.24-.32-.39-.28-.15.04-.23.23-.16.42ZM5.4 12c-.14.02-.29-.1-.33-.28-.05-.18.02-.35.16-.38.14-.03.28.1.33.28.04.18-.03.35-.16.38Z" fill="#005BAC"/></svg>