<!-- by TradingView --><svg width="18" height="18" viewBox="0 0 18 18" xmlns="http://www.w3.org/2000/svg"><path fill="#F0F3FA" d="M0 0h18v18H0z"/><path d="M13.64 7.11a.34.34 0 0 0-.56-.11c-.1.1-.12.24-.07.37.21.52.37 1.08.37 1.63A4.51 4.51 0 0 1 9 13.38c-.42 0-.85-.06-1.27-.2l3.67-3.94a.34.34 0 0 0 0-.48.34.34 0 0 0-.48 0l-3.88 4.15a4.57 4.57 0 0 1-2.41-3.88A4.51 4.51 0 0 1 9 4.63c.46 0 .92.07 1.37.21L6.76 8.42a.34.34 0 0 0 0 .48.34.34 0 0 0 .48 0l3.92-3.84.06-.06a.33.33 0 0 0 .1-.3.32.32 0 0 0-.19-.23A5 5 0 1 0 9 14a5.05 5.05 0 0 0 4.64-6.89Z" fill="#215085"/><path d="M9.92 8.08a.28.28 0 0 0-.4 0l-2.44 2.43a.28.28 0 0 0 0 .4.28.28 0 0 0 .4 0L9.93 8.5a.28.28 0 0 0 0-.4Z" fill="#8CC541"/></svg>