<!-- by TradingView --><svg width="18" height="18" viewBox="0 0 18 18" xmlns="http://www.w3.org/2000/svg"><path fill="#F0F3FA" d="M0 0h18v18H0z"/><path d="m14.09 7.41-.74 4.19h-8.7l-.76-4.23s3.01.83 5.1-.97c0 0 1.66 1.8 5.1 1.01Z" fill="#2D2B72"/><path d="M3.6 7S7.15 8 9 6c0 0 1.72 2 5.4 1l-.3.38C10.63 8.2 9 6.4 9 6.4c-1.98 1.85-5.1 1-5.1 1L3.6 7Z" fill="url(#a33o55qcp)"/><path d="m14.4 7-.9 5-.15-.4.75-4.2.3-.4Z" fill="url(#b33o55qcp)"/><path d="m3.6 7 .9 5 .15-.4-.75-4.2-.3-.4Z" fill="url(#c33o55qcp)"/><path d="M13.35 11.6h-8.7l-.15.4h9l-.15-.4Z" fill="url(#d33o55qcp)"/><path d="M7.27 7.6H9.9L9.62 9h-2.6s-.15.03-.11-.2l.14-.95s.03-.28.22-.25Z" fill="#CD141A"/><path d="M11 7.67v1.02l-.15.24s-.1.15-.25 0l-.37-.43s-.1-.14-.23.01l-.35.4s-.08.14-.2 0L9 8.44s-.09-.12-.21.01l-.43.35s-.12.16-.28-.05l-.26-.37s-.09-.09.05-.2l.46-.44s.13-.11.22 0l.43.41s.06.08.14 0l.61-.5s.08-.1.18 0l.46.5s.1.12.22 0l.32-.4s-.03-.1.08-.08Z" fill="#DDB456"/><path d="M9 7a.5.5 0 1 0 0-1 .5.5 0 0 0 0 1ZM14.5 8a.5.5 0 1 0 0-1 .5.5 0 0 0 0 1ZM3.5 8a.5.5 0 1 0 0-1 .5.5 0 0 0 0 1Z" fill="#E6B45D"/><path fill="#D9D9D9" d="M6 10h6v1H6z"/><defs><linearGradient id="a33o55qcp" x1="3.6" y1="6.8" x2="14.4" y2="6.8" gradientUnits="userSpaceOnUse"><stop offset=".05" stop-color="#FFBA3F"/><stop offset=".5" stop-color="#FFF9EF"/><stop offset=".5" stop-color="#FFB431"/><stop offset="1" stop-color="#fff"/></linearGradient><linearGradient id="b33o55qcp" x1="13.28" y1="9.32" x2="14.4" y2="9.32" gradientUnits="userSpaceOnUse"><stop stop-color="#fff"/><stop offset="1" stop-color="#FFAD29"/></linearGradient><linearGradient id="c33o55qcp" x1="3.61" y1="9.33" x2="4.7" y2="9.33" gradientUnits="userSpaceOnUse"><stop stop-color="#fff"/><stop offset="1" stop-color="#FFB739"/></linearGradient><linearGradient id="d33o55qcp" x1="4.52" y1="11.82" x2="13.46" y2="11.82" gradientUnits="userSpaceOnUse"><stop stop-color="#E6A432"/><stop offset="1" stop-color="#FB4"/></linearGradient></defs></svg>