<!-- by TradingView --><svg width="18" height="18" viewBox="0 0 18 18" xmlns="http://www.w3.org/2000/svg"><path fill="#F0F3FA" d="M0 0h18v18H0z"/><path d="M9.94 4C11.63 4 15 4.89 15 8.43 15 12.86 9.86 14 8.14 14 6.43 14 3 12.88 3 9.7 3 6.5 6.54 4 9.94 4ZM9 5h-.2v8H9v-1.21c0 .03 0 .06.03.08.1.1.14.08.15.06l.31-.66c.09.24.43.73 1.07.73 1.4 0 2.32-1.41 2.32-2.23a1.4 1.4 0 0 0-.64-1.18c.93-.37 1.76-.96 1.76-1.51C14 6.52 13.72 6 12.88 6c-.84 0-1.62.46-1.96.66-.33.2-.86.68-.86 1.2 0 .42.33.87.5 1.04-.34.47-.8 1.29-1 1.64 0-.19-.05-.55-.1-.48-.06.07-.06.56-.05.79l-.16.3c-.1.17-.25.47-.25.64V5ZM4 7v.44h.36v3.12H4V11h1.08v-.44h-.36V9.22h1.09v-.44H4.72V7.44h1.09v.49h.36V7H4Zm2.17 2.67v.48c0 .57.67.85 1.03.85.35 0 1.13-.24 1.13-1.1 0-.68-.62-.97-.93-1.08l-.02-.01c-.23-.1-.67-.3-.67-.7 0-.3.12-.67.6-.67.4 0 .55.3.55.41v.3h.37v-.3c0-.61-.53-.85-.95-.85-.41 0-.93.32-.93 1.02s.46.98.97 1.23c.5.25.65.42.65.7 0 .12-.2.6-.77.6-.46 0-.67-.33-.67-.45v-.43h-.36Zm4.5-.51 1.77-2.9c1.06-.27 1.34.38 1.34.6 0 .22-.26.68-1 1.06-.72.38-1.34.61-1.47.65-.13.03-.24.3.18.19.43-.12 1-.1 1 .94 0 1.03-1.18 2.05-1.9 2.05-.56 0-.88-.47-.97-.71.22-.42.74-1.38 1.05-1.88Zm-.49-1.21c.02.23.32.64.46.81.37-.68 1.17-1.9 1.53-2.42-1.25.44-2 1.31-1.99 1.6Z" fill="#94C83D"/></svg>