<!-- by TradingView --><svg width="18" height="18" viewBox="0 0 18 18" xmlns="http://www.w3.org/2000/svg"><path fill="#F0F3FA" d="M0 0h18v18H0z"/><path d="M5.6 5H4v8h1.6c.86 0 1.71-.28 2.43-.8l.66-.53-3.44-2.5 1.88-1.55c.55-.45 1.3-.48 1.88-.08l1.87 1.3-.73.6a.53.53 0 0 1-.62.05l-1.18-.73a.4.4 0 0 0-.47.02l-.44.39 1.58.99c.53.36 1.22.34 1.73-.07l1.56-1.25-4.28-3.05A4.18 4.18 0 0 0 5.6 5Z" fill="#EC232D"/><path d="M12.4 13H14V5h-1.6c-.86 0-1.71.28-2.43.8l-.73.52 3.5 2.52-1.87 1.54c-.55.45-1.3.48-1.88.08l-1.87-1.3.73-.6a.53.53 0 0 1 .62-.05l1.18.73a.4.4 0 0 0 .47-.02l.44-.39-1.58-.99a1.44 1.44 0 0 0-1.73.07L5.72 9.16l4.25 3.05c.72.52 1.57.79 2.43.79Z" fill="#135DA8"/></svg>