<!-- by TradingView --><svg width="18" height="18" viewBox="0 0 18 18" xmlns="http://www.w3.org/2000/svg"><path fill="#F0F3FA" d="M0 0h18v18H0z"/><path d="m6.08 10.6.14 1.12c0 .03 0 .06-.02.08a.1.1 0 0 1-.06.05c-.6.16-1.22.2-1.85.1-1.53-.2-2.4-1.46-2.28-3.14.18-2.42 2.43-3.3 4.26-2.56l.04.05a.1.1 0 0 1 .01.07l-.28 1.11v.01l-.01.01a.02.02 0 0 1-.02 0 2.2 2.2 0 0 0-1.08-.19c-.75.04-1.28.52-1.4 1.37-.2 1.37.71 2.31 1.93 2.03a8.54 8.54 0 0 0 .6-.14l.02.01v.02ZM8.29 7.33c-.3.05-.55.31-.34.62.09.12.47.28.69.36.93.34 1.7.93 1.57 2.1-.19 1.68-2.24 1.76-3.32 1.44-.17-.05-.3-.1-.4-.17a.13.13 0 0 1-.05-.06.15.15 0 0 1 0-.09l.27-1.08.01-.02.02-.01a.04.04 0 0 1 .03 0c.47.24 1.34.5 1.79.23.21-.13.3-.36.16-.61-.04-.08-.17-.17-.38-.26-.67-.28-1.5-.58-1.78-1.35-.45-1.26.42-2.23 1.52-2.4.64-.09 1.28-.01 1.91.24.03 0 .04.03.03.06l-.3 1.2c0 .03-.02.04-.05.03a2.2 2.2 0 0 0-1.38-.23ZM15.15 8.77c-.04.02-.04.04 0 .06.4.18.64.5.66 1a2 2 0 0 1-.87 1.77c-.43.27-.92.4-1.48.4a2888.43 2888.43 0 0 0-1.94-.02l-.01-.02v-.02l.9-5.9.02-.03.03-.01h1.86c.97.01 2.03.37 1.57 1.79-.14.42-.38.75-.74.98ZM13.54 7.1c-.02 0-.03 0-.03.03l-.19 1.18a.05.05 0 0 0 .01.04l.01.02h.02c.26.01.5 0 .74-.03.4-.06.73-.5.57-.99-.12-.34-.89-.25-1.13-.25Zm-.4 2.38-.2 1.34c0 .03 0 .05.04.05.5.02.81 0 .96-.03.4-.1.62-.38.64-.83.04-.72-.99-.58-1.4-.57l-.02.01-.01.03Z" fill="#0061AC"/></svg>