<!-- by TradingView --><svg width="18" height="18" viewBox="0 0 18 18" xmlns="http://www.w3.org/2000/svg"><path fill="#F0F3FA" d="M0 0h18v18H0z"/><path d="m10.47 4.1.81 3.3a.14.14 0 0 1-.02.11l-.7.88a.13.13 0 0 1-.13.05.13.13 0 0 1-.1-.1l-.81-3.3a.14.14 0 0 1 .03-.12l.7-.87a.13.13 0 0 1 .12-.05c.02 0 .04.02.06.04.02.01.03.04.04.06Z" fill="#E35F14"/><path d="m14 4.74-.24 2.9a.15.15 0 0 1-.08.12l-.93.47a.14.14 0 0 1-.14-.01.15.15 0 0 1-.06-.14l.24-2.78a.15.15 0 0 1 .07-.1l.92-.6a.14.14 0 0 1 .2.06c.02.03.02.05.02.08Z" fill="#BD261E"/><path d="m9.2 8.58-.06.5c-.05.4-.2.44-.45.14a55.34 55.34 0 0 0-1.85-2.06c-.26-.28-.37-.6-.33-1l.06-.5c.05-.4.2-.44.46-.14.56.67 1.17 1.35 1.83 2.04.27.28.38.63.34 1.02Z" fill="#F5B900"/><path d="M7.93 11.27 4.86 9.64a.8.8 0 0 1-.42-.61l-.1-.8c-.04-.27.06-.34.29-.21L7.5 9.58a.92.92 0 0 1 .45.59l.23.89c.07.27-.01.33-.25.2Z" fill="#E35F14"/><path d="M10.6 10.35c-.78.57-.89 1.6-.6 2.47a.07.07 0 0 1 0 .06.06.06 0 0 1-.06.03h-.49a.13.13 0 0 1-.11-.07 2.85 2.85 0 0 1-.24-2.35c.3-.96 1.34-1.52 2.26-1.6a3.6 3.6 0 0 1 2.62.9.1.1 0 0 1 0 .07.1.1 0 0 1-.01.04l-.4.45c-.03.05-.07.06-.12.03-.95-.49-1.95-.69-2.85-.03ZM7.5 12.01l.55.69c.17.2.12.3-.14.3H4.32a.9.9 0 0 1-.37-.1.88.88 0 0 1-.3-.25l-.55-.67c-.17-.21-.12-.32.15-.31H6.8a.9.9 0 0 1 .38.1c.12.06.22.14.3.24Z" fill="#BD261E"/></svg>