<!-- by TradingView --><svg width="18" height="18" viewBox="0 0 18 18" xmlns="http://www.w3.org/2000/svg"><path fill="#F0F3FA" d="M0 0h18v18H0z"/><path d="M15.42 9.62h-.84l-.14.38H14l.75-2h.5l.75 2h-.45l-.13-.38Zm-.12-.32-.3-.84-.3.84h.6ZM12 9c0-.32.06-.56.19-.74.12-.17.33-.26.62-.26s.5.09.62.26c.12.18.19.42.19.74 0 .3-.07.55-.2.73-.12.18-.32.27-.61.27-.3 0-.5-.09-.62-.27A1.28 1.28 0 0 1 12 9Zm1.2 0c0-.14 0-.25-.03-.34a.42.42 0 0 0-.11-.22c-.06-.06-.14-.09-.25-.09-.11 0-.2.03-.26.09a.45.45 0 0 0-.11.22 1.87 1.87 0 0 0 0 .68c.02.1.06.17.11.23.06.05.15.08.26.08.1 0 .2-.03.25-.08.06-.06.1-.14.12-.23L13.2 9ZM10 9c0-.32.06-.56.19-.74.12-.17.33-.26.62-.26s.5.09.62.26c.12.18.19.42.19.74 0 .3-.07.55-.2.73-.12.18-.32.27-.61.27-.3 0-.5-.09-.62-.27A1.28 1.28 0 0 1 10 9Zm1.2 0c0-.14 0-.25-.03-.34a.42.42 0 0 0-.11-.22c-.06-.06-.14-.09-.25-.09-.11 0-.2.03-.26.09a.45.45 0 0 0-.11.22 1.87 1.87 0 0 0 0 .68c.02.1.06.17.11.23.06.05.15.08.26.08.1 0 .2-.03.25-.08.06-.06.1-.14.12-.23L11.2 9ZM8.03 8.56a.52.52 0 0 1 .2-.41c.14-.1.31-.15.53-.15.14 0 .27.02.37.07.1.04.18.1.23.18.06.08.09.17.09.26 0 .12-.04.21-.1.29a.47.47 0 0 1-.23.15v.01c.11.04.2.1.27.17.06.09.1.2.1.32a.54.54 0 0 1-.33.48.95.95 0 0 1-.39.07.93.93 0 0 1-.55-.15A.54.54 0 0 1 8 9.4h.4c.01.09.04.16.1.21a.4.4 0 0 0 .27.08c.1 0 .18-.03.23-.08a.26.26 0 0 0 .08-.2c0-.1-.03-.18-.11-.22a.7.7 0 0 0-.35-.07h-.09v-.3h.09c.28 0 .42-.1.42-.26a.22.22 0 0 0-.08-.18c-.05-.04-.12-.06-.22-.06-.09 0-.16.02-.21.07a.26.26 0 0 0-.09.17h-.41ZM7 8v2h-.42V8H7ZM5.27 10c-.15 0-.28-.02-.4-.07a.64.64 0 0 1-.27-.2.51.51 0 0 1-.1-.31h.44c.01.08.04.14.1.19.05.05.12.07.22.07s.17-.02.23-.07c.05-.04.08-.1.08-.17a.2.2 0 0 0-.06-.14.38.38 0 0 0-.14-.09 2.03 2.03 0 0 0-.23-.07 2.88 2.88 0 0 1-.33-.11.6.6 0 0 1-.22-.17.46.46 0 0 1-.08-.3.5.5 0 0 1 .09-.3.57.57 0 0 1 .26-.19.97.97 0 0 1 .38-.07c.2 0 .38.05.51.15.14.1.21.23.23.4h-.46a.21.21 0 0 0-.1-.16.34.34 0 0 0-.21-.07.3.3 0 0 0-.2.06c-.05.04-.07.1-.07.17 0 .06.02.1.05.14l.14.08.23.07.33.11c.08.04.16.1.22.17.06.08.09.17.09.3 0 .1-.03.2-.09.29a.6.6 0 0 1-.25.21.92.92 0 0 1-.4.08ZM2 9a.95.95 0 0 1 .5-.87c.17-.09.34-.13.54-.13.23 0 .43.06.6.17.17.11.3.27.36.46h-.47a.47.47 0 0 0-.2-.2.6.6 0 0 0-.3-.08.63.63 0 0 0-.31.08.56.56 0 0 0-.22.23.73.73 0 0 0-.08.34c0 .13.03.24.08.34.05.1.12.18.22.23.09.05.2.08.32.08a.6.6 0 0 0 .29-.07.5.5 0 0 0 .2-.21H4a.88.88 0 0 1-.36.46c-.17.11-.37.17-.6.17-.2 0-.37-.04-.53-.13a.98.98 0 0 1-.38-.35A1 1 0 0 1 2 9Z"/></svg>