<!-- by TradingView --><svg width="18" height="18" xmlns="http://www.w3.org/2000/svg"><path fill="#FC211A" d="M0 0h18v18H0z"/><path d="M7 10.502v1.363c-.496.146-.929.23-1.382.23-1.709 0-2.9-1.147-2.9-3.201.021-1.74 1.005-3.06 2.935-3.06.77 0 1.347.21 1.347.273v1.29c-.19-.105-.662-.336-1.157-.336-1.013 0-1.48.711-1.48 1.854 0 1.006.516 1.912 1.508 1.912.58 0 1.129-.23 1.129-.325zm3.286-1.945l-.706-.314c-.528-.231-.64-.448-.64-.752 0-.356.285-.556.76-.556.454 0 1.026.147 1.3.294V6.076c-.475-.189-1.057-.23-1.5-.23-1.255 0-2.141.628-2.141 1.74 0 .827.26 1.543 1.23 1.92l.348.137c.454.178.717.283.717.67 0 .367-.21.63-.812.63-.57 0-1.339-.315-1.528-.43v1.362c.295.073.97.22 1.676.22 1.37 0 2.299-.65 2.299-1.939 0-.87-.465-1.358-1.003-1.599zM13 11V6h-1.347v6H15v-1h-2z" fill="#fff"/></svg>