<!-- by TradingView --><svg width="18" height="18" viewBox="0 0 18 18" xmlns="http://www.w3.org/2000/svg"><path fill="#F0F3FA" d="M0 0h18v18H0z"/><path d="m6.73 13 .12-2.65L4 13h2.73Z" fill="#CCC"/><path d="m6.73 13 .12-2.65c2.54.62 5.82 2.03 7.15 2.65H6.73Z" fill="url(#a)"/><path d="m7.01 9.35.12-1.11-2.85 3.35L4 12.67l3.01-3.32Z" fill="#CCC"/><path d="M13.65 11.38a81.33 81.33 0 0 0-6.52-3.14L7 9.34a61.3 61.3 0 0 1 6.97 3.15l-.33-1.11Z" fill="url(#b)"/><path d="m7.37 7.2.12-1.08-2.66 3.84-.28 1.09L7.37 7.2Z" fill="#CCC"/><path d="M13.13 9.68 7.5 6.12 7.37 7.2l6.11 3.6-.35-1.13Z" fill="url(#c)"/><path d="m7.62 5 .14-1a34 34 0 0 1-2.52 3.83L5 8.76A29 29 0 0 0 7.62 5Z" fill="#CCC"/><path d="M12.72 7.58A49.56 49.56 0 0 1 7.76 4l-.14 1L13 8.55l-.28-.98Z" fill="url(#d)"/><defs><linearGradient id="a" x1="14" y1="11.68" x2="6.73" y2="11.68" gradientUnits="userSpaceOnUse"><stop stop-color="#EBF7FF"/><stop offset="1" stop-color="#45B4FF"/></linearGradient><linearGradient id="b" x1="13.98" y1="10.36" x2="7.01" y2="10.36" gradientUnits="userSpaceOnUse"><stop stop-color="#EBF7FF"/><stop offset="1" stop-color="#45B4FF"/></linearGradient><linearGradient id="c" x1="13.48" y1="8.47" x2="7.38" y2="8.47" gradientUnits="userSpaceOnUse"><stop stop-color="#EBF7FF"/><stop offset="1" stop-color="#45B4FF"/></linearGradient><linearGradient id="d" x1="13" y1="6.28" x2="7.62" y2="6.28" gradientUnits="userSpaceOnUse"><stop stop-color="#EBF7FF"/><stop offset="1" stop-color="#45B4FF"/></linearGradient></defs></svg>