<!-- by TradingView --><svg width="18" height="18" fill="none" xmlns="http://www.w3.org/2000/svg"><path fill="#F0F3FA" d="M0 0h18v18H0z"/><path fill-rule="evenodd" clip-rule="evenodd" d="m8.035 8.414-.443-.783H6.516l.222.392.316.56h.965l.443.781.223-.392L9 8.414h-.965Zm-.016.168-.965.001.443.782h.965l-.443-.783Zm.538-.95h-.965l.443.782H9l-.443-.783ZM9.015 5h.98l.49.817.491.867-.49.865-.047.083h1.076l.537-.95-.76-1.341L10.535 4H7.497l-.76 1.342-.76 1.342.538.948H7.59l-.047-.083-.49-.865.49-.867.49-.817h.981Z" fill="#48B048"/><path fill-rule="evenodd" clip-rule="evenodd" d="m11.942 8.583.49.865.49.867-.49.866-.49.819h-1.96l-.443-.737-.222.393-.317.558.443.784h3.038l.76-1.342.759-1.342-.76-1.342-.76-1.342h-.964l-.222.392-.317.559.965.002Zm-.98 0h-.98l-.443.782h.995l.443-.782h-.016Zm-.966-.169.443-.782h-.996L9 8.414h.996Zm.98.17.317-.56.222-.392h-1.076l-.443.782H9l.317.559.222.392.443-.782h.994Z" fill="#EF4036"/><path fill-rule="evenodd" clip-rule="evenodd" d="M8.461 11.267 9 10.315l-.537-.952-.538.951.537.953ZM9.54 9.363l-.001.002-.223-.392L9 8.415l-.317.558-.22.39h1.076Zm-.54.952.54.95.537-.949-.538-.95-.54.95Zm0 0-.538.952.539.947.539-.949-.54-.95.539-.95v-.002H8.463l.537.952ZM7.054 8.584l-.317-.56-.222-.391h-.996l-.76 1.342L4 10.316l.76 1.342L5.52 13h3.037L9 12.214l-.539-.947-.443.733h-1.96l-.49-.816-.49-.865.49-.867.49-.865h.996v-.003Z" fill="#7B301B"/></svg>