<!-- by TradingView --><svg width="18" height="18" viewBox="0 0 18 18" xmlns="http://www.w3.org/2000/svg"><path fill="#F0F3FA" d="M0 0h18v18H0z"/><path d="M11.16 11.46c0 .36-1.66.46-2.16.47 1.2.22 2.62-.12 2.62-.42 0-.64-2.05-.95-2.05-1.25 0-.17.2-.42.7-.62.97-.5 1.73-1.1 1.73-1.95C12 6.31 9.9 6 9.46 6c-.36 0-.88.11-1.1.17C7.4 6.15 7.07 6.7 7 7c.96 0 1.23-.35 1.44-.57a6 6 0 0 1 1.02-.1c.9 0 1.97.57 1.97 1.2 0 .62-.33.9-.7 1.17C10.32 8.96 9 9.74 9 10.3c0 .58 2.16.7 2.16 1.15Z" fill="#005C9F"/><path fill-rule="evenodd" d="M14 4H4v10h10V4Zm-5 9.47a4.47 4.47 0 1 0 0-8.94 4.47 4.47 0 0 0 0 8.94Z" fill="#005C9F"/><path d="M6 8h4v.12c-1.43 0-1.83.97-1.85 1.35v1.98c0 .3.46.49.69.55H7.16c.23-.06.7-.26.7-.55V9.47C7.82 9.09 7.42 8.12 6 8.12V8Z" fill="#005C9F"/></svg>