<!-- by TradingView --><svg width="18" height="18" viewBox="0 0 18 18" xmlns="http://www.w3.org/2000/svg"><path fill="#F0F3FA" d="M0 0h18v18H0z"/><path fill-rule="evenodd" d="M14.95 6 7.4 4h-.12L3 10.73v.04L8.46 15h.06l3.9-2.67a.27.27 0 0 0 .1-.12L15 6.09a.07.07 0 0 0-.02-.08h-.03ZM8.8 11.91l.48-1.48c.07-.17.1-.16.1.01v1.51c0 .03.01.05.04.05h1.52c.04 0 .06-.02.06-.07V7.11c0-.07-.04-.1-.1-.1H9.29c-.92 0-1.51.6-1.8 1.43a.2.2 0 0 1-.11.12c-.57.26-.86.7-.87 1.3-.04 1.34.92 2.07 2.16 2.14.06 0 .1-.03.13-.09Zm.56-1.73-.03.03c-1.1.56-2.05-.24-1.89-1.45 0-.03.02-.05.04-.07a.1.1 0 0 1 .07-.03l1.72.01c.07 0 .1.04.1.1V10.19Z" fill="#FC5200"/></svg>