<!-- by TradingView --><svg width="18" height="18" viewBox="0 0 18 18" xmlns="http://www.w3.org/2000/svg"><path fill="#F0F3FA" d="M0 0h18v18H0z"/><path d="M4.61 6.67a5.83 5.83 0 0 0 1.27 6.96 5.14 5.14 0 0 0 3.38 1.34v.01c-.72.06-1.4 0-2.05-.2-3.53-1.01-5.27-5.23-3.52-8.63a5.57 5.57 0 0 1 8.8-1.65 6.22 6.22 0 0 1 1.28 1.7l-.01-.01a5.32 5.32 0 0 0-2.91-2.23A5.27 5.27 0 0 0 4.6 6.67Z" fill="#C20102"/><path d="M7.52 9.47c0-.04-.02-.05-.05-.02-.32.31-.69.4-1.09.24-.61-.22-.86-.87-.69-1.48.22-.76.95-.92 1.63-.82.35.05.62.2.82.46.42.54.43 1.57.23 2.19-.15.47-.45.76-.9.89-.35.1-.7.1-1.06-.02a1 1 0 0 1-.67-.69c-.01-.03 0-.05.04-.06l.83-.1h.02c.01 0 .02 0 .02.02.06.13.07.22.21.3.21.12.46-.03.53-.22.09-.23.13-.45.13-.7Zm-.48-.28a.4.4 0 0 0 .18-.05.5.5 0 0 0 .15-.14.66.66 0 0 0 .1-.2.78.78 0 0 0-.02-.48.66.66 0 0 0-.11-.2.5.5 0 0 0-.17-.13.4.4 0 0 0-.37.02.5.5 0 0 0-.15.14.66.66 0 0 0-.1.2.78.78 0 0 0 .02.48c.03.07.07.14.12.2.04.05.1.1.16.12a.4.4 0 0 0 .19.04ZM10 8.66c0-.04.01-.05-.02-.03a3.22 3.22 0 0 1-.97.48.03.03 0 0 1-.01-.02v-.73l.01-.03.03-.01c.53-.16.86-.4 1.16-.93a.05.05 0 0 1 .04-.03h.72c.03 0 .04.02.04.04v3.56c0 .03-.01.04-.03.04h-.89c-.01 0-.03 0-.04-.02l-.04-.03v-2.3ZM13 8.66c0-.04.01-.05-.02-.03a3.22 3.22 0 0 1-.97.48.03.03 0 0 1-.01-.02v-.73l.01-.03.03-.01c.53-.16.86-.4 1.16-.93a.05.05 0 0 1 .04-.03h.72c.03 0 .04.02.04.04v3.56c0 .03-.01.04-.03.04h-.89c-.01 0-.03 0-.04-.02l-.04-.03v-2.3Z" fill="#0070AC"/><path fill="#0070AC" fill-opacity=".7" d="M6 12h8v1H6z"/></svg>