<!-- by TradingView --><svg width="18" height="18" viewBox="0 0 18 18" xmlns="http://www.w3.org/2000/svg"><path fill="#181B1E" d="M0 0h18v18H0z"/><path d="M9.79 5c-1.13 0-2.08.79-2.42 1.15C4.44 7.43 6.77 14 9.07 14 11.34 14 14 12.26 14 9.4 14 6.53 11.2 5 9.79 5Z" fill="#0077B7"/><path d="m5.94 5 3.34 2c-.8-.2-1.34-.02-1.54.05.1.08.43.38.43.54a.4.4 0 0 1-.43.41c-.23 0-.35-.1-.38-.16-.37.37.07.64.38.64.3 0 .17 0 .88-.13.56-.1.83-.16.94-.16-.27.1-.68.67-.94 1.74-.22.86-.47 1.35-.62 1.46.7-.14.68-.43 1-1.28.24-.67.53-1.07.65-1.11h.59c.33 0 .55-.4.55-.92 0-.53-.12-.83-.12-1.5s.26-1 .5-1 .33.19.33.62-.05.5-.27 1.1c-.17.47-.15.9-.11 1.05a14 14 0 0 1 .94-.66c.17-.1.35-.27.41-.37 0 .28-.18.64-.63 1.03a2.4 2.4 0 0 0-.62.86c.19-.29.83-.75 1.25-.97.34-.18.56-.45.7-.63-.05.34-.12.66-.83 1.19-.7.53-.7.85-.7.85.78-.85 1.75-.9 2.08-.88-.95.39-1.52 1.01-1.66 1.31.48-.5.8-.68 1.05-.68s.62.2.62.53c0 .54-.35.88-.97.88-.6 0-1.26-.45-1.54-.73.26.79 1.32 1.38 1.78 1.6-.56 0-1.67-.45-2-.68.11.7.72 1.3 1 1.55-1.03-.13-1.43-.58-1.53-1.59-.11-1.3-.64-1.6-.91-1.6.49.68.27 1.54.27 1.9 0 1.32.69 2.16 1.02 2.42-.18.1-.76.32-1.7.32C5 14 4 9.23 4 8.16c0-1.07.38-1.87.82-2.2.35-.25.88-.74 1.12-.96Z" fill="#fff"/></svg>