<!-- by TradingView --><svg width="18" height="18" viewBox="0 0 18 18" xmlns="http://www.w3.org/2000/svg"><path fill="#F0F3FA" d="M0 0h18v18H0z"/><path d="M4.66 11.75A6.72 6.72 0 0 1 4.1 9c0-.97.2-1.9.59-2.75.08-.18.31-.54.7-1.08.07-.1.05-.16-.08-.16h-.13a.6.6 0 0 0-.48.2A5.93 5.93 0 0 0 3 9c0 1.37.72 2.75 1.67 3.8.13.14.28.21.47.21h.13c.13 0 .15-.05.08-.15-.38-.55-.61-.91-.7-1.1Zm8.7 1.08A5.41 5.41 0 0 0 15 9c0-1.42-.55-2.7-1.64-3.83a.55.55 0 0 0-.4-.17h-.24c-.15 0-.18.06-.1.18A6.12 6.12 0 0 1 13.9 9c0 1.45-.4 2.65-1.26 3.82-.09.12-.06.18.1.18h.23c.16 0 .3-.06.4-.17ZM9 7.64c-.02 0-.03 0-.04.02A3.3 3.3 0 0 1 6.38 9a.5.5 0 0 1-.4-.19l-.24-.27c-.12-.14-.1-.22.07-.25 1.25-.2 2-.97 2.28-1.98l.02-.15a.32.32 0 0 0-.03-.12C8.07 6.01 8.02 6 7.92 6H6.1C6.02 6 6 6 6 5.93v-.76a.19.19 0 0 1 .04-.12.14.14 0 0 1 .05-.03h.01A.1.1 0 0 1 6.14 5h5.72l.05.01c.02 0 .03.02.05.04l.03.05v.06l.01.76c0 .08-.03.08-.09.08h-1.84c-.09 0-.14.01-.16.04a.32.32 0 0 0-.02.12c0 .05 0 .1.02.15a2.66 2.66 0 0 0 2.28 1.97c.16.03.19.11.07.25l-.23.27a.5.5 0 0 1-.4.2 3.3 3.3 0 0 1-2.6-1.34c0-.01-.01-.02-.03-.02Zm-.7 2.73.03.06v2.42c0 .1.03.15.12.15h1.08c.1 0 .14-.05.14-.14V10.5c0-.04.02-.09.05-.12a.16.16 0 0 1 .12-.05h2.35c.1 0 .14-.05.14-.15v-.72c0-.1-.04-.13-.13-.13H6.45c-.18 0-.31-.05-.49-.11a8.21 8.21 0 0 0-.2-.06.11.11 0 0 0-.08.06l-.01.05v.93a.14.14 0 0 0 .13.13h2.4a.1.1 0 0 1 .08.03l.01.01Z" fill="#004F9A"/></svg>