<!-- by TradingView --><svg width="18" height="18" viewBox="0 0 18 18" xmlns="http://www.w3.org/2000/svg"><path fill="#F0F3FA" d="M0 0h18v18H0z"/><path d="m11.12 14.61-.02.01-.3.1-.05.02-.03.01a5.99 5.99 0 0 1-7.71-6.01 5.78 5.78 0 0 1 .1-.87v-.02a10.39 10.39 0 0 1 .2-.77l.02-.05V7l.02-.04.01-.03.02-.05v-.02l.05-.1.02-.05.03-.07.03-.06v-.02l.03-.05V6.5l.05-.08.01-.03.01-.02v-.02a.61.61 0 0 0 .05-.07 1.52 1.52 0 0 0 .06-.13l.03-.04.02-.04.01-.03L3.8 6l.02-.02a6 6 0 1 1 8.1 8.27c-.03 0-.04.02-.06.03l-.15.08c-.2.1-.39.18-.59.25Z" fill="#ED3024"/><ellipse cx="9" cy="9" rx="3.36" ry="3.34" fill="#fff" fill-opacity=".8"/><path d="M9.15 6.7h-.33l-.1.01-.12.02h-.02l-.2.05h-.04a.07.07 0 0 1-.05.02l-.03.01a.15.15 0 0 1-.05.02l-.03.01a.94.94 0 0 1-.05.02l-.12.05H8c0 .02-.01.02-.03.02a.59.59 0 0 0-.04.02l-.02.02a1.49 1.49 0 0 0-.16.09l-.15.1a.11.11 0 0 1-.03.03l-.02.03h-.01a.74.74 0 0 0-.09.08l-.02.02-.02.02a1.44 1.44 0 0 1-.13.13c0 .02 0 .02-.02.03l-.01.01c0 .01 0 .02-.02.02v.02l-.02.01v.02l-.02.02-.03.04-.01.01-.06.09-.01.02-.01.02-.04.06-.02.03v.01l-.05.1a3.67 3.67 0 0 0-.05.1v.03l-.03.06-.02.08-.03.07v.02a.2.2 0 0 1-.02.07v.04l-.02.03v.02a2.5 2.5 0 0 0-.05.38v.14a2.53 2.53 0 0 0 .04.44v.03l.02.07v.01l.03.12v.02c.02.01.02.03.02.05l.01.02.02.06v.02c.02 0 .02.02.02.04l.01.02a.1.1 0 0 1 .02.05l.01.01.09.18.03.06.03.04v.01l.01.02h.01l.03.05.11.16.08.08.15.15.01.01.05.04.03.03.03.02.04.03.05.04.04.03a.1.1 0 0 1 .04.03h.02l.01.01.03.02.08.05h.02l.2.1c.03 0 .04 0 .06.02h.01l.06.02.02.01a.2.2 0 0 1 .07.02l.04.01.05.01a2.43 2.43 0 0 0 1 .02l.1-.02h.05l.05-.02.04-.01.03-.01.04-.02.04-.01.12-.05a.09.09 0 0 1 .05-.02h.02a.11.11 0 0 1 .04-.03.08.08 0 0 1 .05-.02.09.09 0 0 1 .04-.03h.01l.03-.02a.28.28 0 0 1 .05-.03l.02-.01.02-.02.03-.02.05-.03.07-.05.05-.05.03-.02.1-.08.03-.03.06-.06a2.48 2.48 0 0 1 .07-.08l-.31-.32-.02.01-.02.03-.03.01c0 .02-.02.03-.03.04a.62.62 0 0 0-.04.03.52.52 0 0 1-.06.05.11.11 0 0 1-.04.04h-.02l-.01.02h-.01a.16.16 0 0 1-.07.06.17.17 0 0 1-.06.04H10l-.01.02h-.02l-.01.01a.08.08 0 0 1-.04.03l-.07.04a.11.11 0 0 1-.04.02.09.09 0 0 1-.05.02.08.08 0 0 1-.05.02l-.01.01a1.4 1.4 0 0 1-.25.08l-.04.01a.38.38 0 0 1-.13.03 1.73 1.73 0 0 1-.46.01h-.06l-.06-.01-.1-.02a1.7 1.7 0 0 1-1.23-1.12v-.02a.2.2 0 0 1-.02-.06l-.02-.04a.08.08 0 0 1 0-.05l-.02-.05-.01-.06v-.02l-.01-.03v-.02l-.01-.02v-.03a.13.13 0 0 1 0-.05l-.01-.06a2.23 2.23 0 0 1 .01-.5l.01-.05c0-.04.01-.08.03-.11v-.03a2.6 2.6 0 0 1 .18-.43l.03-.06.02-.03v-.02l.02-.02.02-.03h.01l.03-.06a1.57 1.57 0 0 0 .06-.06l.06-.07.03-.04.02-.01a2.84 2.84 0 0 1 .28-.22.06.06 0 0 1 .03-.02l.02-.01a.1.1 0 0 1 .03-.02.06.06 0 0 1 .04-.02h.02a2.02 2.02 0 0 0 .18-.08.1.1 0 0 1 .05-.02l.01-.01a.2.2 0 0 1 .08-.02h.01a.26.26 0 0 1 .1-.03h.03a1.92 1.92 0 0 1 .71.01l.06.02.07.02.06.02a1.04 1.04 0 0 0 .09.03l.04.02.03.01a.1.1 0 0 1 .05.03.1.1 0 0 1 .04.02l.1.06.03.01.04.03a2.65 2.65 0 0 1 .28.2l.04.05.05.05.02-.02a.1.1 0 0 1 .04-.04l.02-.02a4.09 4.09 0 0 1 .15-.16l.1-.11v-.03l-.02-.02-.02-.02-.02-.02-.02-.01a2.73 2.73 0 0 0-.24-.2l-.04-.03-.02-.01a1.95 1.95 0 0 0-.22-.13l-.06-.03H10a1.4 1.4 0 0 0-.11-.06l-.04-.01h-.01l-.04-.02-.04-.01-.14-.05h-.04l-.05-.02-.09-.01-.07-.01H9.3l-.02-.01-.14-.02Zm.08 1.1-.04-.01a.74.74 0 0 0-.31-.03l-.1.02a.09.09 0 0 1-.03.02h-.03l-.1.05-.06.05a.14.14 0 0 1-.04.03s0 .02-.02.02c0 .01 0 .02-.02.02v.01l-.02.03-.03.04v.01l-.03.05c0 .03-.01.05-.03.08v.03l-.01.1v.14l.01.03.02.07v.03l.02.02.01.04a.91.91 0 0 0 .27.31l.32.26.05.04c.02 0 .04.02.05.04l.08.08c.05.06.08.12.09.18a.3.3 0 0 1 0 .1l-.02.07-.01.03a.26.26 0 0 1-.11.1.1.1 0 0 1-.07.03H9a.2.2 0 0 1-.04 0 .3.3 0 0 1-.2-.13l-.02-.03-.02-.03-.02-.04v-.03l-.04-.11v-.04l-.01-.02h-.02l-.03.02h-.02a.29.29 0 0 1-.1.03.19.19 0 0 1-.07.02h-.03a.19.19 0 0 1-.07.03.02.02 0 0 0-.01 0v.08c.02.02.02.05.03.08l.01.04.02.04a.66.66 0 0 0 .13.24l.02.01c0 .01 0 .02.02.02l.01.02.03.02.03.02.02.02c.02 0 .03 0 .04.02l.06.02.09.03a.4.4 0 0 0 .05 0l.06.02h.2l.07-.01.04-.01.13-.05a.07.07 0 0 1 .04-.02l.03-.02v-.01l.1-.08.03-.05.01-.01.01-.02a.59.59 0 0 0 .08-.17.86.86 0 0 0 .02-.2v-.07l-.03-.07a.65.65 0 0 0-.1-.23A7.6 7.6 0 0 0 9 8.73a.97.97 0 0 1-.18-.17.35.35 0 0 1-.07-.14V8.4l-.01-.03v-.06l.02-.07s0-.02.02-.02a.24.24 0 0 1 .1-.09.08.08 0 0 1 .05-.02h.14l.04.03a.3.3 0 0 1 .1.1v.02l.02.01v.02l.01.02c.02.01.02.03.02.05v.01c.02.02.03.04.03.07v.02h.02a.19.19 0 0 1 .06-.02h.03a.15.15 0 0 1 .05-.02h.02l.02-.02a5.33 5.33 0 0 0 .15-.04h.01v-.02l-.02-.06v-.02l-.01-.01a.08.08 0 0 1-.01-.04l-.02-.04-.01-.02a.8.8 0 0 0-.07-.13.61.61 0 0 0-.28-.22Z" fill="#FF0001"/><path d="M9 4.97c-1.46 0-2.74.78-3.46 1.94l-.85-.52a5.05 5.05 0 0 1 8.62 0l-.85.52A4.05 4.05 0 0 0 9 4.97Zm-3.9 5.2a4.05 4.05 0 0 0 7.8 0l.95.28a5.05 5.05 0 0 1-9.7 0l.96-.29Z" fill="#E7E7E7"/></svg>