<!-- by TradingView --><svg width="18" height="18" viewBox="0 0 18 18" xmlns="http://www.w3.org/2000/svg"><path fill="#F0F3FA" d="M0 0h18v18H0z"/><path d="M9.1 14c-.72 0-1.4-.12-2.03-.36A4.85 4.85 0 0 1 4 9a4.93 4.93 0 0 1 1.46-3.6A5.42 5.42 0 0 1 9.12 4c.82 0 1.55.15 2.2.44.67.29 1.23.71 1.68 1.27l-1.4 1.33a3.2 3.2 0 0 0-1.08-.84 3.24 3.24 0 0 0-2.5-.07c-.37.14-.7.36-.96.63A3 3 0 0 0 6.2 9a3 3 0 0 0 .85 2.24c.27.27.59.49.95.63a3.23 3.23 0 0 0 2.51-.05c.4-.2.76-.49 1.08-.87l1.4 1.32c-.45.57-1 1-1.67 1.29-.66.3-1.4.44-2.22.44Z" fill="#2C544B"/></svg>