<!-- by TradingView --><svg width="18" height="18" viewBox="0 0 18 18" xmlns="http://www.w3.org/2000/svg"><path fill="#F0F3FA" d="M0 0h18v18H0z"/><path d="M4 4h8v9H4V4Z" fill="#FFB413"/><path d="M6 5h8v8H6V5Z" fill="#EC5303"/><path fill="#EB3C01" d="M6 5h6v8H6z"/><path d="M5 6h8v8H5V6Z" fill="#BA1C21"/><path fill="#930018" d="M5 6h7v7H5z"/><path d="M6 7.92c0-.5.44-.92.98-.92h.04c.54 0 .98.41.98.92v.1c0 .12-.11.23-.25.23S7.5 8.15 7.5 8v-.04a.5.5 0 0 0-.5-.5.5.5 0 0 0-.5.5v2.11c0 .28.22.5.5.5a.5.5 0 0 0 .5-.5v-.04c0-.13.11-.23.25-.23s.25.1.25.23v.04c0 .5-.44.92-.98.92h-.04c-.54 0-.98-.41-.98-.92V7.92Zm2.5-.71c0-.12.1-.21.2-.21H9v4h-.3a.2.2 0 0 1-.2-.2V7.2ZM9.7 7a.2.2 0 0 0-.2.2v3.6c0 .1.1.2.2.2h.3V9h1v1.8c0 .1.1.2.2.2h.3V7h-.3a.2.2 0 0 0-.2.2v1.34h-1V7h-.3Z" fill="#F0F3FA"/></svg>