<!-- by TradingView --><svg width="18" height="18" viewBox="0 0 18 18" xmlns="http://www.w3.org/2000/svg"><path fill="#F0F3FA" d="M0 0h18v18H0z"/><path d="M12.59 10.54v-.04a.06.06 0 0 0-.03-.03h-.04a2.12 2.12 0 0 1-1.86 1.67c-.11.06-.21.07-.3.04l-.24-.2c-.34-.26-.45-.57-.35-.92.05-.16 0-.18-.12-.06a8.35 8.35 0 0 1-2.28 1.64c-.77.38-1.53.46-2.3.24a2.8 2.8 0 0 1-.84-.45c-.4-.3-.8-.54-1-.87a1.42 1.42 0 0 1-.16-1.19 8.31 8.31 0 0 1 4.32-5.03c.42-.22.84-.33 1.26-.34.35 0 .72.18 1.03.29.16.06.28.12.38.18.74.45.84 1.13.3 2.04a.27.27 0 0 1-.1.1.3.3 0 0 1-.14.03h-.07c-.04 0-.07 0-.1-.02a.21.21 0 0 1-.08-.06.18.18 0 0 1-.02-.18c.39-.85.32-1.27-.19-1.26-.7.01-1.32.2-1.84.56a9.37 9.37 0 0 0-3.17 3.78c-.22.48-.26 1.37.4 1.67.54.24 1.13.25 1.78.02.91-.33 1.85-.84 2.81-1.53.25-.18.44-.4.56-.66a32 32 0 0 0 .5-1.09c.1-.23.02-.28-.22-.16l-.4.2a.09.09 0 0 1-.06 0h-.03l-.01-.03c-.04-.07-.03-.12.02-.16.4-.37.87-.63 1.4-.78.22-.06.4-.05.54.05.22.15.26.35.14.6-.25.49-.48.99-.71 1.49-.1.23-.16.4-.17.5 0 .36.13.41.42.16.8-.7 1.44-1.7 2-2.57.12-.19.3-.24.52-.15l.69.26.1.07c.03.03.05.06.06.1a.24.24 0 0 1-.04.22 7.1 7.1 0 0 0-1.36 2.78c-.03.15.03.23.2.22a5.17 5.17 0 0 0 .82-.6c.04-.04.08-.04.11 0l.04.05v.05c-.25.35-.62.66-1.1.94-.38.22-.9.35-1.25.03-.38-.33.08-1.28.18-1.6Z" fill="#6A0167"/></svg>