<!-- by TradingView --><svg width="18" height="18" viewBox="0 0 18 18" xmlns="http://www.w3.org/2000/svg"><path fill="#09173A" d="M0 0h18v18H0z"/><path d="M8.04 6.02c-.6.07-1.15.26-1.82.62a8.38 8.38 0 0 0-2.03 1.68c-.27.3-.6.78-.78 1.13a3.06 3.06 0 0 0-.4 1.54c.05.43.22.72.52.88.1.06.37.13.5.13.08 0 .28-.03.44-.07a3.62 3.62 0 0 0 .92-.42l-.41.19c-.27.1-.48.13-.73.13-.35 0-.57-.08-.77-.3-.07-.06-.16-.2-.2-.3a1.9 1.9 0 0 1 .1-1.27 5.9 5.9 0 0 1 1.5-2.18 8.7 8.7 0 0 1 1.73-1.26 3.16 3.16 0 0 1 1.47-.35c.48.02.84.15.99.37.13.18.18.5.11.83A6.17 6.17 0 0 1 8.5 8.8a16.1 16.1 0 0 1-1.46 1.95l-.64.74-.3.36c0 .05 0 .1.03.1l.35-.33c.15-.13.34-.33.84-.84.9-.95.93-.97 1.45-1.42.66-.56.96-.8 1.23-.96.38-.24.56-.32.8-.36.13-.02.23 0 .3.04.08.05.1.18.07.34l-.2.57c-.29.66-.63 1.2-1.38 2.14-.39.48-.47.6-.47.63 0 .05.06.09.14.08.05 0 .07-.03.26-.23a42.78 42.78 0 0 1 2.2-2.14 16.75 16.75 0 0 1 3.3-2.33c.3-.15.33-.16.5-.18.08 0 .17-.02.2-.03a.8.8 0 0 0 .26-.17c.03-.04.03-.04 0-.05-.07-.06-.26-.07-.4-.03-.36.1-.73.3-1.17.6a29.4 29.4 0 0 0-3.96 3.25c-.12.11-.14.13-.16.12l-.02-.03.08-.16.29-.49c.4-.68.47-.8.62-1.1.11-.24.16-.36.18-.5a.7.7 0 0 0 0-.32c-.05-.18-.15-.23-.4-.23a.6.6 0 0 0-.26.03c-.28.1-.92.56-1.56 1.1l-.66.54c-.13.1-.29.22-.3.21-.01-.02.04-.15.1-.28l.23-.38c.34-.5.41-.62.55-.9.23-.49.34-.82.36-1.1a.99.99 0 0 0-.37-.83c-.24-.17-.62-.24-1.09-.18Z" fill="#F0F3FA"/></svg>