<!-- by TradingView --><svg width="18" height="18" viewBox="0 0 18 18" xmlns="http://www.w3.org/2000/svg"><path fill="#F0F3FA" d="M0 0h18v18H0z"/><path d="M5.53 5H5V8.73h.53v-3.2h3.2V5h-3.2ZM5.53 9.27v3.2h3.2V13H5V9.27h.53ZM12.47 9.27v3.2h-3.2V13H13V9.27h-.53ZM9.27 5.53V5H13V8.73h-.53v-3.2h-3.2ZM11 7.49l-.43.5a1.85 1.85 0 0 0-1.22-.39c-.84 0-1.5.54-1.5 1.4 0 .86.66 1.4 1.5 1.4.67 0 1.1-.26 1.22-.39l.43.5c-.16.16-.7.49-1.65.49C7.56 11 7 10.1 7 9s.56-2 2.35-2c.95 0 1.5.33 1.65.49Z" fill="#C2202D"/></svg>