<!-- by TradingView --><svg width="18" height="18" viewBox="0 0 18 18" xmlns="http://www.w3.org/2000/svg"><path fill="#F0F3FA" d="M0 0h18v18H0z"/><path d="M9.25 3c1.7.1 3.09.75 4.18 1.93a6.02 6.02 0 0 1-.69 8.76A6 6 0 0 1 3 9h1a5 5 0 1 0 4.74-5c-.06 0-.1-.02-.1-.08V3h.6Z" fill="#009EE3"/><path d="M6.45 11.59a3.62 3.62 0 0 0 5.34-.26c.58-.7.9-1.29.89-2.26 0-.03.01-.07.04-.07h.87c.03 0 .05.03.06.06.07 2.15-1.21 3.7-3.26 4.35a4.63 4.63 0 0 1-5.81-5.74 4.77 4.77 0 0 1 4.74-3.3c.03 0 .03.02.03.05v.88c0 .03-.02.05-.05.05-.98 0-1.97.3-2.66.9a3.62 3.62 0 0 0-.19 5.34Z" fill="#00B3EC"/><path d="M10.74 6.24a3.3 3.3 0 0 0-2.18-.47c-2.83.36-3.82 3.95-1.64 5.76a3.32 3.32 0 0 0 4.52-.35v-.01a.09.09 0 0 0-.03-.07l-.63-.55c-.05-.04-.09-.04-.13 0a2.26 2.26 0 0 1-3.48-.22 2.26 2.26 0 0 1 1.49-3.57c.72-.12 1.4.11 2.02.7h.04l.7-.62V6.8c-.19-.2-.41-.4-.68-.55Z" fill="#5EC7F2"/></svg>