<!-- by TradingView --><svg width="18" height="18" viewBox="0 0 18 18" xmlns="http://www.w3.org/2000/svg"><path fill="#F0F3FA" d="M0 0h18v18H0z"/><circle cx="9" cy="9" r="6" fill="#9DC0E0"/><path d="M9 14.67A5.67 5.67 0 1 0 9 3.33a5.67 5.67 0 0 0 0 11.34Zm0-.34A5.33 5.33 0 1 0 9 3.67a5.33 5.33 0 0 0 0 10.66Z" fill="#fff"/><circle cx="9" cy="9" r="5.33" fill="#71A9D7"/><circle cx="9" cy="9" r="4.8" fill="#006AAB"/><path fill-rule="evenodd" d="M6.68 6C5.75 6 5 6.71 5 7.6v2.8c0 .89.75 1.6 1.68 1.6h4.64c.93 0 1.68-.71 1.68-1.6V7.6c0-.89-.75-1.6-1.68-1.6H6.68Zm.36 1C6.46 7 6 7.39 6 7.87v2.26c0 .48.46.87 1.04.87h3.92c.58 0 1.04-.39 1.04-.87V7.87c0-.48-.46-.87-1.04-.87H7.04Z" fill="#fff"/><path d="m10 9 4 2.35-.3.65L10 9.86V9Z" fill="#fff"/></svg>