<!-- by TradingView --><svg width="18" height="18" viewBox="0 0 18 18" xmlns="http://www.w3.org/2000/svg"><path fill="#F0F3FA" d="M0 0h18v18H0z"/><path fill-rule="evenodd" d="M4 4h10v10H4V4Zm5.52 3.86c.33.1.61.3.82.57l.35-.2a2.1 2.1 0 0 0-1.14-.79l-.01-.31c-.01-.06.16-.23.2-.26a1.01 1.01 0 0 0 .29-.41 3.2 3.2 0 0 1 1.6 1.21l.35-.2a3.61 3.61 0 0 0-1.88-1.42c0-.36-.2-.7-.53-.9a1.07 1.07 0 0 0-1.62.89c-.8.23-1.48.74-1.94 1.42l.35.2c.4-.57.98-1 1.66-1.22a1 1 0 0 0 .3.43l.07.08c.15.16.25.28.35.43-.58.07-1.09.38-1.42.83l.35.2c.3-.37.75-.62 1.26-.64l.01.04.01.03c.14.35.12 1.36.12 1.36s.33-.24.42-1.01l.03-.33Zm2.98 2.36a1.06 1.06 0 0 1-.05 1.82c-.33.18-.71.17-1.03.01-.59.54-1.36.9-2.22.94v-.4a3.2 3.2 0 0 0 1.9-.8 1 1 0 0 1-.24-.49c-.01-.07-.07-.27-.12-.29-.02 0-.1-.04-.25-.13-.34.34-.79.57-1.29.62v-.4c.36-.05.69-.21.94-.44l-.3-.22c-.63-.46-.67-.87-.67-.87a5.94 5.94 0 0 0 1.29.6h.05a1.63 1.63 0 0 0 .04-1.39l.35-.2a2.04 2.04 0 0 1 .04 1.63c.17-.01.32-.04.53-.08l.11-.02c.1-.04.2-.05.3-.06.08 0 .16 0 .24.02a3.17 3.17 0 0 0-.28-2.05l.35-.2a3.49 3.49 0 0 1 .31 2.4Zm-4.87.1.03-.03c.24-.3 1.13-.79 1.13-.79s-.38-.16-1.1.16l-.33.15a1.64 1.64 0 0 1 .1-1.05l-.36-.2A2.03 2.03 0 0 0 6.98 10l-.24.16c-.04.03-.28-.03-.32-.04a1.09 1.09 0 0 0-.54-.04 3.08 3.08 0 0 1 .28-2.07l-.36-.2a3.52 3.52 0 0 0-.3 2.43 1.06 1.06 0 0 0 .58 1.96c.18 0 .35-.05.5-.12.59.53 1.36.87 2.2.92v-.4a3.19 3.19 0 0 1-1.88-.78c.05-.06.1-.13.13-.2v-.01c.05-.09.08-.18.1-.28l.02-.09c.07-.2.12-.35.2-.51.34.43.85.72 1.43.77v-.4c-.5-.06-.92-.34-1.19-.73h.01l.03-.04Z" fill="#C7151E"/></svg>