<!-- by TradingView --><svg width="18" height="18" viewBox="0 0 18 18" xmlns="http://www.w3.org/2000/svg"><path fill="#F0F3FA" d="M0 0h18v18H0z"/><path d="M9.02 5.9c1.2 0 2.09.7 2.38 1.05a4.97 4.97 0 0 0-4.29-2.94c-1.32 0-2.31.57-2.92 1.29-.62.71-.76 1.32-.66 2.56.11 1.24 1.95 3.45 2.85 3.58.72.1 2.04.12 2.6.1-1.04 0-3.1-.79-3.1-2.7 0-1.92 1.65-2.95 3.14-2.95Z" fill="url(#a)"/><path d="M8.97 5.89c-1.2 0-2.09.7-2.39 1.06A4.99 4.99 0 0 1 10.88 4c1.33 0 2.32.58 2.94 1.3.61.7.76 1.32.65 2.56-.1 1.25-1.95 3.46-2.85 3.59-.72.1-2.04.12-2.61.1 1.04 0 3.1-.8 3.1-2.71 0-1.92-1.64-2.95-3.14-2.95Z" fill="url(#b)"/><path d="M3.87 5.72c-.25.77-.4 2.65.97 4 1.71 1.69 3.07 1.86 4.16 1.86 1.09 0 2.45-.17 4.16-1.86a4.08 4.08 0 0 0 .97-4c.3.35.87 1.38.87 2.71 0 4.08-3.68 5.55-5.98 5.57h-.04C6.68 13.98 3 12.5 3 8.43c0-1.33.58-2.36.87-2.7Z" fill="url(#c)"/><defs><linearGradient id="a" x1="6.94" y1="11.03" x2="9.68" y2="6.71" gradientUnits="userSpaceOnUse"><stop stop-color="#9B0018"/><stop offset="1" stop-color="#DF002E"/></linearGradient><linearGradient id="b" x1="7.18" y1="7.27" x2="11.14" y2="9.16" gradientUnits="userSpaceOnUse"><stop stop-color="#9B0018"/><stop offset="1" stop-color="#DF002E"/></linearGradient><linearGradient id="c" x1="14.49" y1="9.3" x2="5.96" y2="6.91" gradientUnits="userSpaceOnUse"><stop stop-color="#9B0018"/><stop offset="1" stop-color="#DF002E"/></linearGradient></defs></svg>