<!-- by TradingView --><svg width="18" height="18" viewBox="0 0 18 18" xmlns="http://www.w3.org/2000/svg"><path fill="#F0F3FA" d="M0 0h18v18H0z"/><path d="m4.5 7.25-.01-1.09v-.02l.03-.01H4.88l.01.03v2.56l-.83.95H2.54V7.5l-.02-.02-.02-.02H2v-.05l1.3-1.41.02-.01.02.01 1.1 1.27h.05v-.03Zm-1.87.17v.02c-.01.02 0 .03.02.03h1.33c.02 0 .04-.01.03-.03v-.02l-.67-.76-.02-.01-.02.01-.67.76ZM3.06 9h-.01l-.01-.02v-.04L3.88 8v-.04l-.01-.02h-.91l-.02.02-.01.02v1.24l.03.01h.92l.6-.69.01-.02v-.52l-.02-.01h-.03L3.57 9 3.55 9h-.49Z"/><path d="M5 9.17V6.04l.02-.03h.02L5.38 6l.02.01.01.03v3.63H4.67l-.01-.03V9.22l.03-.01h.28L5 9.2v-.02ZM8.1 8.03v.01l.01.01h.03l.84-1.02H9v.01L9 7.7 9 7.73l-.86 1.03a.14.14 0 0 0-.04.1v.26l.02.04.04.02h.83c.01 0 .02 0 .02.02v.46l-.02.01H6.02L6 9.67V9.2c0-.02.01-.03.03-.03h.8c.05 0 .07-.03.07-.1-.01-.13.02-.25-.08-.36-.31-.36-.52-.65-.8-.98A.06.06 0 0 1 6 7.7v-.66h.01l.84 1.01.01.01h.02v-.02l.01-2c0-.03.01-.04.03-.04h.36c.03 0 .05.02.05.05v3.09c0 .02 0 .04.03.04h.27c.02 0 .04-.02.04-.04V6h.02L8.06 6c.02 0 .03.01.03.04v1.99ZM11.25 9.06l.44.55.01.02v.02l-.01.02h-.46l-.02-.01-.27-.32h-.04l-.27.32h-.02l-.45.02h-.01l-.02-.03v-.02l.01-.02.45-.55V9h-.25l-.51.66H9.8l-.44.02-.02-.01v-.06l.45-.55V9h-.44v-.01l-.01-.01v-.4h1.35l.02-.02V8.41l-.02-.01H9.53l-.02-.02v-.02l-.01-.32v-.02L9.54 8h1.16l.02-.02v-.21l-.02-.01H9.47l-.02-.01V6.01L9.47 6h2.9l.02.01v1.75l-.02.01h-1.22l-.02.01v.02l-.01.17v.02l.02.01h1.17l.02.02v.37h-1.18l-.02.02-.01.02v.1l.01.03.02.01h1.3c.02 0 .03 0 .03.02l.01.02V9l-.03.01h-.4l-.02.02v.02l.01.02.45.55v.06h-.47l-.02-.01-.52-.65-.02-.01h-.22v.06Zm-1.08-1.94-.01-.01v-.5l.01-.02h.02l.02.01.46.56h.03l.02-.01V6.4l-.01-.02-.02-.01H9.86V7.34l.02.01h.43l.01-.02v-.04l-.15-.16Zm1.45-.52.01-.01h.02l.01.01v.53l-.14.15v.06h.45l.02-.01V7.3l.01-.9c0-.02-.01-.03-.03-.03h-.82c-.01 0-.03.01-.03.03v.75l.02.02h.01l.02-.01.45-.56ZM15.21 7.58c-.04.05-.04.08.03.08h.59c.04 0 .06.03.06.07V9.6c0 .05-.02.08-.06.08h-1.99c-.01 0-.02-.01-.02-.03v-.44c0-.02 0-.03.03-.03h1.6c.02 0 .04-.02.04-.06V8.2c0-.03-.01-.04-.03-.04h-2.63c-.05 0-.06-.02-.02-.06l1.29-1.54c.03-.04.03-.06-.02-.06h-.92c-.03 0-.04-.01-.04-.04v-.42l.01-.03.02-.01h2.55c.05 0 .07.03.06.08v.75c0 .1-.01.2-.07.26-.14.16-.34.32-.48.49Zm.11-.73.01-.02V6.5H14.74l-.92 1.1h-.01v.03l.01.01.02.01h.74l.02-.01.72-.8Z"/><path d="M15.1 8.57h-2.25a.03.03 0 0 0-.04.04v.3c0 .02.02.03.04.03h2.25c.02 0 .03-.01.03-.03v-.3a.03.03 0 0 0-.03-.04Z"/><path d="M16 10v2H2v-1.94c0-.03.02-.05.05-.05L16 10Z" fill="#EE3523"/></svg>