<!-- by TradingView --><svg width="18" height="18" viewBox="0 0 18 18" fill="none" xmlns="http://www.w3.org/2000/svg">
<rect width="18" height="18" fill="#F0F3FA"/>
<path fill-rule="evenodd" clip-rule="evenodd" d="M12 8H6V14H12V8ZM7 8.99999V13H9.12458C10.2294 13 11.125 12.218 11.125 11.2534V10.7466C11.125 9.78195 10.2294 8.99999 9.12458 8.99999H7ZM8 9.99999V12H9.11512C9.76477 12 10 11.6369 10 11.189V10.811C10 10.3631 9.76477 9.99999 9.11512 9.99999H8Z" fill="black"/>
<path fill-rule="evenodd" clip-rule="evenodd" d="M7.97228 5.01447C7.97228 4.04264 8.65403 3.26656 8.99491 3C9.33821 3.28487 10.0248 4.08659 10.0248 5.01447C10.0248 5.84955 9.33821 6.10309 8.99491 6.12548C8.65403 6.11327 7.97228 5.87397 7.97228 5.01447ZM6.95546 7.60508C6.14422 6.91353 5.98153 5.95812 6.00158 5.56686C6.48367 5.56656 7.64147 5.73104 8.41602 6.39131C9.11311 6.98556 8.83618 7.57199 8.61058 7.79093C8.35782 7.98382 7.67293 8.2167 6.95546 7.60508ZM11.9984 5.56686C12.0185 5.95812 11.8558 6.91353 11.0445 7.60508C10.3271 8.2167 9.64218 7.98382 9.38942 7.79093C9.16382 7.57199 8.88689 6.98556 9.58398 6.39131C10.3585 5.73104 11.5163 5.56656 11.9984 5.56686Z" fill="url(#paint0_linear_229_28685)"/>
<defs>
<linearGradient id="paint0_linear_229_28685" x1="9" y1="3" x2="9" y2="8" gradientUnits="userSpaceOnUse">
<stop offset="0.400436" stop-color="#65C96C"/>
<stop offset="0.899004" stop-color="#009D59"/>
</linearGradient>
</defs>
</svg>
