<!-- by TradingView --><svg width="18" height="18" viewBox="0 0 18 18" xmlns="http://www.w3.org/2000/svg"><path fill="url(#a)" d="M0 0h18v18H0z"/><path d="M9.14 5C4.47 5 2.44 7.31 2 8.47c2.06-2.1 4.8-2.74 7.14-2.74 2.33 0 5.86.96 5.86 2.74 0 1.43-3.34 2.3-5 2.5V6.46h-.7v5.22c4.5-.21 6.7-1.99 6.7-3.2C16 7.26 14.08 5 9.14 5Z" fill="#FFF8F8"/><path d="M8.86 13c4.67 0 6.7-2.31 7.14-3.47-2.06 2.1-4.8 2.74-7.14 2.74-2.33 0-5.86-.96-5.86-2.74 0-1.43 3.34-2.3 5-2.51v4.13l.7.25V6.33C4.2 6.54 2 8.32 2 9.53 2 10.74 3.92 13 8.86 13Z" fill="#FFF8F8"/><defs><linearGradient id="a" x1="9" y1="0" x2="9" y2="18" gradientUnits="userSpaceOnUse"><stop stop-color="#FF5350"/><stop offset=".3" stop-color="#FFA4A5"/><stop offset=".65" stop-color="#FF4440"/><stop offset="1" stop-color="#FF9385"/></linearGradient></defs></svg>