<!-- by TradingView --><svg width="18" height="18" viewBox="0 0 18 18" xmlns="http://www.w3.org/2000/svg"><path fill="#F0F3FA" d="M0 0h18v18H0z"/><path d="M8.99 5.6c.47 0 .86-.36.86-.8 0-.44-.39-.8-.86-.8-.48 0-.86.36-.86.8 0 .44.38.8.86.8Z" fill="#A2ACB5"/><path d="M10.17 7.57c-.4.34-.77.7-1.12 1.07-.02.01-.03.04-.03.08-.03 0-.05 0-.06.02-.3.35-.52.74-.67 1.16-.1.29-.13.62-.1 1 .08.7.35 1.3.8 1.79a1 1 0 0 1-.27.16 3.32 3.32 0 0 1-1.77-2.14c-.21-.9-.06-1.76.45-2.58.07-.12.22-.3.44-.57l1.15-.95c.01 0 .04 0 .07-.03.9-.7 1.64-1.28 2.24-1.73.02-.01.02-.03.01-.05l-.04-.08a.8.8 0 0 1-.07-.17c-.02-.06 0-.11.04-.15.05-.04.1-.04.16 0l.16.14c.43.38.74.66.9.87.07.08.09.16.05.24a.76.76 0 0 1-.16.21 5.9 5.9 0 0 1-.61.52l-1.57 1.2Z" fill="#D27929"/><path d="m8.99 6.61-1.15.95c-.54-.39-1.07-.78-1.6-1.19a6.99 6.99 0 0 1-.65-.57c-.15-.16-.15-.3 0-.47.23-.24.52-.51.88-.83a.44.44 0 0 1 .26-.12.1.1 0 0 1 .08.04c.02.02.03.05.02.08-.03.1-.08.2-.14.28-.03.03-.02.06.01.09L9 6.6Z" fill="#1D508F"/><path d="M9.03 12.99c.11-.09.2-.13.26-.14a2.7 2.7 0 0 0 1.77-.44c1.26-.85 1.74-2 1.42-3.46-.1-.51-.39-.95-.84-1.3-.1-.09-.26-.19-.46-.3-.07-.05-.1-.11-.07-.19s.09-.1.17-.06c.4.17.8.37 1.19.62a2.97 2.97 0 0 1 1.5 3.05c-.04.4-.17.77-.37 1.11-.2.34-.47.64-.8.9-.57.42-1.22.66-1.98.72-.13 0-.28-.01-.45-.06-.45-.12-.9-.28-1.34-.45Z" fill="#D27929"/><path d="M8.72 12.85A.99.99 0 0 0 9 12.7a3.1 3.1 0 0 0 .82-2.31 2.9 2.9 0 0 0-.8-1.66c0-.04 0-.07.03-.08.35-.37.72-.73 1.12-1.07.65.7.97 1.5.97 2.36 0 1.27-.62 2.25-1.85 2.92-.06 0-.15.05-.26.14-.59.2-1.08.36-1.47.47-.16.04-.34.05-.55.03a3.69 3.69 0 0 1-1.5-.51 2.93 2.93 0 0 1-1.46-2.1 2.82 2.82 0 0 1 .97-2.76 6.6 6.6 0 0 1 1.62-.99.3.3 0 0 1 .2-.01c.07.01.1.05.08.11a.17.17 0 0 1-.08.1c-.2.13-.35.22-.44.3-.26.2-.47.42-.62.67-.14.25-.25.53-.3.86-.21 1.13.13 2.1 1.02 2.93.6.55 1.34.8 2.22.76Z" fill="#1D508F"/></svg>