<!-- by TradingView --><svg xmlns="http://www.w3.org/2000/svg" width="18" height="18" viewBox="0 0 18 18"><path fill="#F0F3FA" d="M0 0h18v18H0z"/><path fill-rule="evenodd" d="M9.01 15c1.1 0 2-2.69 2-6s-.9-6-2-6-2 2.69-2 6 .9 6 2 6zm-.12-.18c.99 0 1.79-2.59 1.79-5.78 0-3.19-.8-5.77-1.8-5.77-.98 0-1.78 2.58-1.78 5.77 0 3.2.8 5.78 1.79 5.78z" fill="url(#ag5deehsa)"/><path fill-rule="evenodd" d="M8.87 15c1.03 0 1.86-2.63 1.86-5.88 0-3.24-.83-5.87-1.86-5.87-1.03 0-1.86 2.63-1.86 5.87 0 3.25.83 5.88 1.86 5.88zm.02-.63c.82 0 1.48-2.38 1.48-5.3 0-2.93-.66-5.3-1.48-5.3s-1.48 2.37-1.48 5.3c0 2.92.66 5.3 1.48 5.3z" fill="url(#bg5deehsa)"/><path fill-rule="evenodd" d="M3.68 11.5c.46 1 3.23.71 6.17-.66 2.95-1.37 4.96-3.3 4.5-4.3-.47-1-3.23-.7-6.18.67-2.95 1.37-4.96 3.29-4.5 4.3zm.1-.18c.42.9 3.06.55 5.9-.77 2.83-1.31 4.8-3.1 4.38-4-.42-.9-3.05-.56-5.89.76-2.84 1.31-4.8 3.1-4.38 4z" fill="url(#cg5deehsa)"/><path fill-rule="evenodd" d="M3.62 11.37c.43.94 3.12.6 6-.74 2.9-1.34 4.89-3.18 4.46-4.12-.43-.93-3.13-.6-6.02.74-2.88 1.35-4.88 3.2-4.44 4.12zm.55-.13c.35.75 2.76.37 5.39-.85 2.62-1.22 4.47-2.82 4.12-3.58-.34-.75-2.76-.37-5.38.85-2.63 1.22-4.48 2.82-4.13 3.58z" fill="url(#dg5deehsa)"/><path fill-rule="evenodd" d="M14.36 11.37c.45-1.01-1.58-2.91-4.54-4.25-2.97-1.33-5.74-1.6-6.19-.58-.45 1 1.58 2.9 4.55 4.24 2.96 1.33 5.73 1.6 6.18.59zm-.21.03c.4-.9-1.58-2.67-4.43-3.95-2.85-1.29-5.5-1.6-5.9-.7-.4.9 1.58 2.68 4.43 3.96 2.85 1.28 5.5 1.6 5.9.7z" fill="url(#eg5deehsa)"/><path fill-rule="evenodd" d="M14.3 11.5c.42-.94-1.58-2.76-4.48-4.07-2.9-1.3-5.6-1.6-6.02-.66-.42.94 1.6 2.75 4.5 4.06 2.9 1.3 5.58 1.6 6 .66zm-.56-.29c.33-.74-1.52-2.3-4.14-3.49C6.98 6.54 4.6 6.2 4.25 6.94c-.34.75 1.52 2.32 4.13 3.5 2.62 1.18 5.02 1.52 5.36.78z" fill="url(#fg5deehsa)"/><ellipse cx="7.73" cy="4.71" rx=".68" ry=".68" fill="url(#gg5deehsa)"/><ellipse cx="5.41" cy="11.81" rx=".68" ry=".68" fill="url(#hg5deehsa)"/><ellipse cx="13.67" cy="10.12" rx=".68" ry=".68" fill="url(#ig5deehsa)"/><defs><linearGradient id="ag5deehsa" x1="9.01" y1="3" x2="9.01" y2="15" gradientUnits="userSpaceOnUse"><stop offset=".09" stop-color="#15367B"/><stop offset=".25" stop-color="#283C76"/><stop offset=".46" stop-color="#93B8E4"/><stop offset=".78" stop-color="#253C72"/><stop offset="1" stop-color="#1C316B"/></linearGradient><linearGradient id="bg5deehsa" x1="8.87" y1="3.27" x2="8.87" y2="15" gradientUnits="userSpaceOnUse"><stop offset=".21" stop-color="#15367B"/><stop offset=".48" stop-color="#8DAED1"/><stop offset=".69" stop-color="#6D788C"/><stop offset=".95" stop-color="#6D758A"/></linearGradient><linearGradient id="cg5deehsa" x1="14.35" y1="6.54" x2="3.67" y2="11.49" gradientUnits="userSpaceOnUse"><stop offset=".09" stop-color="#15367B"/><stop offset=".23" stop-color="#283C76"/><stop offset=".46" stop-color="#99AAC4"/><stop offset=".78" stop-color="#253C72"/><stop offset="1" stop-color="#1C316B"/></linearGradient><linearGradient id="dg5deehsa" x1="14.05" y1="6.53" x2="3.61" y2="11.36" gradientUnits="userSpaceOnUse"><stop offset=".21" stop-color="#15367B"/><stop offset=".48" stop-color="#899FB9"/><stop offset=".69" stop-color="#6D788C"/><stop offset=".95" stop-color="#2A407C"/></linearGradient><linearGradient id="eg5deehsa" x1="3.63" y1="6.54" x2="14.37" y2="11.35" gradientUnits="userSpaceOnUse"><stop offset=".09" stop-color="#15367B"/><stop offset=".23" stop-color="#283C76"/><stop offset=".46" stop-color="#97AABA"/><stop offset=".78" stop-color="#253C72"/></linearGradient><linearGradient id="fg5deehsa" x1="3.81" y1="6.77" x2="14.31" y2="11.48" gradientUnits="userSpaceOnUse"><stop offset=".21" stop-color="#15367B"/><stop offset=".48" stop-color="#7E97B5"/><stop offset=".69" stop-color="#435B89"/><stop offset=".95" stop-color="#2A407C"/></linearGradient><linearGradient id="gg5deehsa" x1="7.93" y1="4.03" x2="7.4" y2="5.21" gradientUnits="userSpaceOnUse"><stop stop-color="#F2D179"/><stop offset="1" stop-color="#B3871B"/></linearGradient><linearGradient id="hg5deehsa" x1="5.6" y1="11.12" x2="5.08" y2="12.31" gradientUnits="userSpaceOnUse"><stop stop-color="#F2D179"/><stop offset="1" stop-color="#B3871B"/></linearGradient><linearGradient id="ig5deehsa" x1="13.87" y1="9.44" x2="13.34" y2="10.62" gradientUnits="userSpaceOnUse"><stop stop-color="#F2D179"/><stop offset="1" stop-color="#B3871B"/></linearGradient></defs></svg>