<!-- by TradingView --><svg width="18" height="18" xmlns="http://www.w3.org/2000/svg"><path fill="#EB891A" d="M0 0h18v18H0z"/><path fill-rule="evenodd" d="M9 14.5a4.5 4.5 0 001.348-8.795 2.333 2.333 0 00-.28.283c-.102.111-.233.255-.37.369-.143.12-.377.28-.679.28-.298 0-.534-.159-.679-.276-.139-.112-.273-.253-.379-.364l-.03-.032a2.312 2.312 0 00-.275-.261A4.5 4.5 0 009 14.5zM7.616 5.678l.004.002a.021.021 0 01-.004-.002zm2.775-.001l-.003.001a.018.018 0 01.003-.001zM9 15a5 5 0 001.403-9.8c-.23-.068-.463.186-.701.447-.222.243-.448.49-.683.49-.234 0-.468-.246-.699-.488-.248-.261-.492-.517-.723-.45A5 5 0 009 15z" fill="#00933F"/><path d="M7.853 9.531H4.589c0 4.02 3.013 4.902 4.52 4.84 3.411 0 4.4-3.232 4.268-4.84H10.2c-.402 0-.955.489-1.206.733-.437-.552-.96-.718-1.142-.733z" fill="#fff"/><path d="M4.339 9.281h3.524l.01.001c.222.018.702.176 1.14.624.112-.099.245-.207.386-.306.224-.155.518-.319.802-.319h3.406l.019.23c.07.855-.155 2.12-.845 3.18-.697 1.07-1.87 1.928-3.668 1.93-.798.031-1.986-.184-2.98-.94-1.01-.766-1.794-2.068-1.794-4.15v-.25zm.504.5c.06 1.79.756 2.867 1.592 3.502.886.673 1.955.867 2.663.838h.01c1.612 0 2.638-.758 3.254-1.704a4.953 4.953 0 00.776-2.636h-2.937c-.118 0-.3.08-.517.23a4.27 4.27 0 00-.515.432l-.198.193-.172-.217c-.386-.487-.834-.624-.958-.638H4.843z" fill="#00933F"/><path d="M10.082 9.055c-.607.274-.973.551-1.082.655-.542-.454-.672-.345-1.197-.655-.524-.31-.585-.973-.55-1.266.94-.095 1.553.596 1.742.953.453-.893 1.3-1.008 1.668-.953.06.308.027.992-.58 1.266z" fill="#00933F"/><path d="M9.829 7.684c-.47.254-.745.51-.829.607-.42-.42-.528-.32-.933-.607-.406-.288-.453-.903-.426-1.175.727-.088 1.201.553 1.347.884.35-.828 1.006-.934 1.29-.884.046.286.02.92-.45 1.175z" fill="#00933F"/><path d="M9.829 6.293c-.47.277-.745.558-.829.663-.42-.46-.528-.35-.933-.663-.406-.314-.453-.986-.426-1.282.727-.097 1.201.603 1.347.965.35-.905 1.006-1.02 1.29-.965.046.311.02 1.004-.45 1.282z" fill="#00933F"/><path d="M8.028 3.77c-.192.453.654 1.046.985 1.229.415-.32 1.144-.838.957-1.23-.133-.276-.515-.09-.652 0C9.313 3.48 9.256 3 8.963 3c-.28 0-.311.547-.297.77-.47-.2-.595-.101-.638 0z" fill="#00933F"/></svg>