<!-- by TradingView --><svg width="18" height="18" viewBox="0 0 18 18" xmlns="http://www.w3.org/2000/svg"><path fill="#F0F3FA" d="M0 0h18v18H0z"/><path d="M10.4 4.4c.38 0 .77.11 1.17.36.86.52 1.5 1.24 1.92 2.15.45.97.6 1.95.45 2.95a4.73 4.73 0 0 1-1.32 2.67c-.25.25-.52.44-.83.57-.73.32-1.61.34-2.65.06a7.38 7.38 0 0 1-1.69-.69c-.04-.02-.03-.03.01-.02a4.13 4.13 0 0 0 2.9-.67 3.53 3.53 0 0 0 1.3-1.75 3.88 3.88 0 0 0-.75-3.81 3.15 3.15 0 0 0-1.62-.89c-.83-.18-1.68-.27-2.55-.27-.04 0-.04 0 0-.03l.24-.1a3.37 3.37 0 0 1 .64-.18L8 4.6l.03-.03c.15-.32.41-.5.79-.55.19-.02.36-.03.53 0a6 6 0 0 1 1.13.26l-.1.1c-.02.02-.02.03 0 .03Z" fill="#DF2128"/><path d="M4.57 11.47A5.28 5.28 0 0 1 4 9.22a4.68 4.68 0 0 1 .98-2.97c.41-.53.9-.9 1.47-1.13.05-.02.05 0 .02.03a6.96 6.96 0 0 0-1.09 1.77 10.45 10.45 0 0 0-.81 4.55Z" fill="#FDD100"/><path d="M5.7 11.4a6.84 6.84 0 0 0 1.37 2.27 3.34 3.34 0 0 1-2.26-3.48 3.34 3.34 0 0 1 .49-1.4c-.04.91.1 1.78.4 2.6Z" fill="#F08519"/><path d="M5.9 11.14c.53.8 1.22 1.4 2.05 1.78a6.8 6.8 0 0 0 3.26.64 4.9 4.9 0 0 1-2.9.34 2.83 2.83 0 0 1-1.63-1.06 5.14 5.14 0 0 1-.78-1.7Z" fill="#EA5B3E"/></svg>