<!-- by TradingView --><svg width="18" height="18" viewBox="0 0 18 18" xmlns="http://www.w3.org/2000/svg"><path fill="#00A8E3" d="M0 0h18v18H0z"/><path d="M8 5a1 1 0 0 1 1.98-.2c.53-.5 1.2-.8 1.95-.8C13.63 4 15 5.57 15 7.5S13.62 11 11.93 11c-.73 0-1.4-.29-1.93-.77V13a1 1 0 0 1-1.98.2c-.53.5-1.2.8-1.95.8C4.37 14 3 12.43 3 10.5S4.38 7 6.07 7c.73 0 1.4.29 1.93.77V5Zm2 3.01c.19.9.86 1.55 1.65 1.55.95 0 1.71-.92 1.71-2.06 0-1.14-.76-2.06-1.7-2.06-.8 0-1.47.66-1.66 1.55V8Zm-2 3V10c-.19-.9-.86-1.55-1.65-1.55-.95 0-1.71.92-1.71 2.06 0 1.14.76 2.06 1.7 2.06.8 0 1.47-.66 1.66-1.55Z" fill="#fff"/></svg>