<!-- by TradingView --><svg xmlns="http://www.w3.org/2000/svg" width="18" height="18"><path fill="#E83434" d="M0 0h18v18H0z"/><path d="M9.46 3.51l-1.36.81h-.13c-.98 0-1.78.83-1.78 1.85 0 .87.57 1.6 1.35 1.8l.18.51c-.68-.2-2.14-.5-2.47-.16-.38.39-.36.93-.33 1.49v.2c-.1.39-.1 1.16.68 1.18.2 0 .64-.13.74-.73.19-.25.4-.82-.26-1 0-.13.06-.4.35-.36.29.03.68.16.83.22.22.6.67 1.86.73 2.24a3.36 3.36 0 01-2.19 0c-.2-.09-.53-.22-.73.13l-.51 1.24c-.12.31-.12 1.02.62 1.07.18 0 .61-.1.74-.87a5.6 5.6 0 002.93-1.03 3.4 3.4 0 012.74 1.1c.16.17.41.43.73.43.31 0 .5-.26.7-.7.17-.36.47-1.12.6-1.45.15-.39.08-1.3-.81-1.43-.28-.04-.94.1-1.15 1.29a3.07 3.07 0 00-1.53-.3 8.4 8.4 0 00-.47-1.4c.34.03 1.1 0 1.45-.33.36-.33.5-.82.51-1.02.28-.01.87-.1 1.02-.59h1.77c.05 0 .14-.04.21-.17l.36-.64c.03-.08.05-.23-.15-.24h-4.77c-.1 0-.27.06-.11.35.1.2.2.32.25.4l.06.08c.02.05.1.15.21.15h.1c-.01.3-.12.85-.5.97a3.7 3.7 0 01-1.25.07l-.3-.74a1.85 1.85 0 001.23-1.76c0-.5-.19-.96-.5-1.29.61-.58.4-1.22.36-1.3-.04-.1-.12-.09-.15-.07z" fill="#fff"/></svg>