<!-- by TradingView --><svg width="18" height="18" viewBox="0 0 18 18" xmlns="http://www.w3.org/2000/svg"><path fill="#F0F3FA" d="M0 0h18v18H0z"/><path d="M8.69 4.23c0-.13.14-.23.31-.23.17 0 .31.1.31.23v1.42c0 .12-.14.22-.31.22-.17 0-.31-.1-.31-.22V4.23ZM8.69 6.73c0-.13.14-.23.31-.23.17 0 .31.1.31.23v1.42c0 .12-.14.22-.31.22-.17 0-.31-.1-.31-.22V6.73ZM5.02 6.34A.3.3 0 0 1 5 5.97c.08-.11.22-.13.32-.04l1.1 1.04c.1.1.12.26.04.37-.08.11-.23.13-.32.04l-1.1-1.04ZM6.21 13.64a.24.24 0 0 0 .12.33c.13.06.3.01.36-.1l.72-1.39a.24.24 0 0 0-.12-.33.27.27 0 0 0-.35.11l-.73 1.38ZM11.79 13.64c.06.12 0 .27-.12.33a.27.27 0 0 1-.36-.1l-.72-1.39a.24.24 0 0 1 .12-.33.27.27 0 0 1 .35.11l.73 1.38ZM4.29 10.87c-.13.03-.25-.06-.28-.2-.03-.14.04-.3.17-.33l1.4-.4c.13-.03.26.06.29.2.03.15-.05.3-.17.33l-1.41.4ZM13.71 10.87c.13.03.25-.06.28-.2.03-.14-.04-.3-.17-.33l-1.4-.4c-.13-.03-.26.06-.29.2-.03.15.05.3.17.33l1.41.4ZM6.9 7.9a.3.3 0 0 1-.04-.37c.08-.1.23-.13.33-.03l1.1 1.03c.1.1.11.26.03.37-.08.12-.22.13-.32.04L6.9 7.91ZM7.46 11.45a.24.24 0 0 0 .12.34c.13.06.3 0 .36-.12l.72-1.37a.24.24 0 0 0-.12-.34.27.27 0 0 0-.35.12l-.73 1.37ZM6.48 10.24c-.13.04-.25-.05-.29-.2-.03-.14.05-.29.18-.32l1.4-.4c.13-.04.25.05.29.2.03.14-.05.29-.18.32l-1.4.4ZM10.54 11.45c.06.13 0 .28-.12.34a.27.27 0 0 1-.36-.12l-.72-1.37a.24.24 0 0 1 .12-.34.27.27 0 0 1 .35.12l.73 1.37ZM11.52 10.24c.13.04.25-.05.29-.2.03-.14-.05-.29-.18-.32l-1.4-.4c-.13-.04-.25.05-.29.2-.03.14.05.29.18.32l1.4.4ZM12.98 6.34a.3.3 0 0 0 .03-.37c-.08-.11-.22-.13-.32-.04l-1.1 1.04a.3.3 0 0 0-.04.37c.08.11.23.13.32.04l1.1-1.04ZM11.1 7.9a.3.3 0 0 0 .04-.37c-.08-.1-.23-.13-.33-.03l-1.1 1.03a.3.3 0 0 0-.03.37c.08.12.22.13.32.04l1.1-1.03ZM8.69 12.08c0-.15.14-.27.31-.27.17 0 .31.12.31.27v1.65c0 .15-.14.27-.31.27-.17 0-.31-.12-.31-.27v-1.65ZM6.84 5.29c-.07-.12 0-.27.13-.33s.29 0 .35.12l.72 1.38c.06.12 0 .27-.13.33-.14.06-.3 0-.36-.12L6.84 5.3ZM4.8 8.6c-.12-.03-.2-.17-.17-.32s.15-.24.28-.21l1.4.38c.13.04.21.19.18.34-.02.14-.15.24-.28.2l-1.4-.38ZM5.64 11.98c-.1.1-.1.26-.02.37.08.1.23.12.33.03l1.1-1.05c.1-.1.1-.25.02-.36a.22.22 0 0 0-.33-.03l-1.1 1.04ZM12.36 11.98c.1.1.1.26.02.37a.22.22 0 0 1-.33.03l-1.1-1.05a.28.28 0 0 1-.02-.36c.08-.11.23-.13.33-.03l1.1 1.04ZM13.2 8.6c.12-.03.2-.17.17-.32s-.15-.24-.28-.21l-1.4.38c-.13.04-.21.19-.18.34.02.14.15.24.28.2l1.4-.38ZM11.16 5.29c.07-.12 0-.27-.13-.33a.28.28 0 0 0-.35.12l-.72 1.38c-.06.12 0 .27.13.33.14.06.3 0 .36-.12l.71-1.38Z" fill="#26B6E0"/></svg>