<!-- by TradingView --><svg width="18" height="18" viewBox="0 0 18 18" xmlns="http://www.w3.org/2000/svg"><path fill="#F0F3FA" d="M0 0h18v18H0z"/><path d="M9.15 10.43c-1.4.45-3.69 2.46-4.76 3.51a.22.22 0 0 1-.28.03c-.09-.06-.11-.18-.05-.26 1.08-1.44 3-4.26 2.8-5.13-.17-.87-1.9-2.7-2.82-3.6a.13.13 0 0 1 0-.2.17.17 0 0 1 .21-.02c2.2 1.4 3.91 1.79 4.5 1.8 1-.14 3.11-1.68 4.16-2.51a.22.22 0 0 1 .25-.01c.09.06.1.17.04.25-1.5 1.87-2 3.41-2.07 3.96.07 1.01 1.83 2.84 2.82 3.74.07.07.07.18-.01.24a.2.2 0 0 1-.23.01 11.69 11.69 0 0 0-4.56-1.81Z"/></svg>