<!-- by TradingView --><svg width="18" height="18" fill="none" xmlns="http://www.w3.org/2000/svg"><path fill="#F0F3FA" d="M0 0h18v18H0z"/><path fill-rule="evenodd" clip-rule="evenodd" d="M9.214 5h1.119c.442 0 .74.391.651.878l-.225 1.244c-.088.478-.523.878-.973.878H8.667c-.442 0-.74-.391-.651-.878l.225-1.244c.088-.487.53-.878.973-.878Z" fill="#E60E0F"/><path fill-rule="evenodd" clip-rule="evenodd" d="M6.022 5H4.54s-.916-.008-1.16.916c-.11.415-.378.844-.38 1.277C3 7.5 3.093 8 3.699 8h1.365s1.968.34 1.494 2.521c-.219 1.004-.552 1.503-.557 2.404-.003.52.19 1.075 1.03 1.075h1.9s1.234-.126 1.537-1.487c.294-1.362.408-1.74.408-1.74s.431-2.398 2.606-2.398h.316s.743.059.923-.69c.077-.317.295-.825.28-1.164-.009-.198-.109-.521-.664-.521h-.961s-.687-.025-.875.731l-.153.62S11.767 9 9.935 9h-2.15c-.222 0-1.502-.375-1.15-2.047l.327-.877C6.959 6.079 7 5.945 7 5.77 7 5.443 6.838 5 6.022 5Z" fill="#FEB800"/></svg>