<!-- by TradingView --><svg width="18" height="18" viewBox="0 0 18 18" xmlns="http://www.w3.org/2000/svg"><path fill="#F0F3FA" d="M0 0h18v18H0z"/><path d="M14 4H4v2.42c.34-.2.9-.42 1.56-.42a3.4 3.4 0 0 1 1.59.4c.29-.2.8-.4 1.54-.4.41 0 1.03.1 1.55.38a1.7 1.7 0 0 1 .95 1.58 1.69 1.69 0 0 1-.24.58l.98 1.01c.11.12.08.3-.06.37l-.5.28.13.27c.05.09.03.19-.05.26l-.08.08.07.08c.1.1.07.25-.04.34l-.01.01v.02c0 .03 0 .05.02.06a.56.56 0 0 1 .08.63.4.4 0 0 1-.18.16c-.14.07-.32.11-.5.11H9.9c-.4 0-.54.25-.54.6 0 .24.15.48.43.7.27.2.6.37.82.45l-.02.03H14V4Zm-3.93 10a3.35 3.35 0 0 1-.47-.3c-.3-.22-.58-.53-.58-.89 0-.42.35-.89.87-.88h.92c.18 0 .3 0 .37-.04a.15.15 0 0 0 .07-.05.26.26 0 0 0 .03-.14c0-.1-.04-.17-.09-.22a.34.34 0 0 1-.08-.2c0-.08.02-.16.1-.23l.02-.01-.07-.08a.23.23 0 0 1 .01-.32l.08-.07-.13-.27c-.06-.11-.01-.25.1-.31l.5-.28-.98-1a.23.23 0 0 1-.02-.3c.12-.18.18-.4.2-.5 0-.66-.37-1.07-.82-1.32a2.99 2.99 0 0 0-1.4-.3c-.67 0-1.03.17-1.24.32a1.64 1.64 0 0 1 .6 1.34 1.68 1.68 0 0 1-.25.58l.99 1.02c.11.11.08.29-.06.36l-.5.28.13.27c.04.09.02.2-.05.26l-.08.08.07.08c.09.1.07.25-.04.34h-.02v.03l.02.06a.56.56 0 0 1 .09.63.4.4 0 0 1-.18.16 1.2 1.2 0 0 1-.5.12H6.73c-.12 0-.24 0-.33.07-.11.09-.22.24-.22.5s.2.5.47.71c.27.21.6.37.81.45l-.02.05h2.63Zm-3.1 0c-.17-.09-.34-.2-.5-.31-.3-.23-.56-.54-.56-.9 0-.33.13-.55.31-.69a.9.9 0 0 1 .53-.17h.93c.18 0 .3-.01.37-.05a.15.15 0 0 0 .06-.06.26.26 0 0 0 .03-.13c0-.1-.04-.17-.08-.22a.34.34 0 0 1-.08-.2c0-.08.01-.16.1-.23l.01-.01-.07-.08a.23.23 0 0 1 .02-.32l.08-.07-.13-.27c-.06-.11-.02-.24.1-.3l.5-.28-.98-1.01a.23.23 0 0 1-.03-.3c.12-.18.19-.39.2-.49 0-.66-.36-1.07-.82-1.32a3 3 0 0 0-1.4-.3c-.73 0-1.3.25-1.56.43V14h2.96Z" fill="#004F9A"/></svg>