<!-- by TradingView --><svg width="18" height="18" viewBox="0 0 18 18" xmlns="http://www.w3.org/2000/svg"><path fill="#F0F3FA" d="M0 0h18v18H0z"/><path d="M8.23 6.48c1.12-.86 1.43-1.89 1.44-2.3l.52.97c0 1.28-.02 3.83 0 3.8.02-.05.98-1.23 1.45-1.8l.38 2.35c-.6.32-2.01 1.12-2.79 1.78-.78.66-1.7 1.87-2.07 2.4v-1.1c.73-1.34 1.92-3.91.9-3.44-1.02.47-2.13 1.99-2.56 2.69-.09-1.52 1.33-4.27 2.73-5.35Z" fill="url(#a)"/><path d="M5 9.91c0 .95.34 1.73.52 2 .1-1.96 1.94-3.39 3.09-5.23.91-1.47.65-3.07.4-3.68-.42.66-1.43 2.2-2.1 3.13C6.1 7.3 5 8.72 5 9.91Z" fill="url(#b)"/><path d="m9.24 4.2-.4.84C8.57 5.6 8 6.28 7.4 6.99c-.55.65-1.12 1.33-1.5 2a4.8 4.8 0 0 0-.4 2.91c.07-1.32.94-2.4 1.85-3.54.44-.54.88-1.09 1.25-1.68.53-.86.66-1.76.63-2.49Z" fill="url(#c)"/><path d="M6.59 11.3c-.63 1.52.13 2.21.59 2.37 0-.66.96-2.08 1.63-2.86.54-.62 1.7-1.6 2.22-2.02h-.66c.06-.07.23-.47.4-1.54.19-1.08-.64-2.53-1.08-3.12-.03.38-.14 1.32-.39 2.1a6.08 6.08 0 0 1-1.22 1.98l.51.08a9.21 9.21 0 0 0-2 3Z" fill="url(#d)"/><path d="M7.16 13.66c-.1-.47-.14-1.23.13-2.13.38-1.25 1.8-2.64 2.46-3.18.2-.55.55-1.86.35-2.65-.13-.48-.3-.93-.44-1.26l.03-.3c.44.58 1.27 2.03 1.09 3.1a4.56 4.56 0 0 1-.41 1.55h.66c-.52.41-1.68 1.4-2.22 2.02-.67.78-1.63 2.2-1.63 2.86h-.02Z" fill="url(#e)"/><path d="M9.78 11.23c-1.32 1.42-1.6 2.39-1.59 2.7 2.78.5 4.81-1.7 4.81-3.65 0-1.57-.92-2.73-1.37-3.12 0 1.26-.2 2.3-1.85 4.07Z" fill="url(#f)"/><path d="M8.19 13.9a6.5 6.5 0 0 0 2.95-2.05c1.16-1.35.87-3.45.49-4.65v-.04A4.35 4.35 0 0 1 13 10.28c0 1.95-2.03 4.15-4.8 3.65l-.01-.03Z" fill="url(#g)"/><defs><linearGradient id="a" x1="10.7" y1="7.38" x2="6.27" y2="11.54" gradientUnits="userSpaceOnUse"><stop stop-color="#DC500A"/><stop offset="1" stop-color="#762B05"/></linearGradient><linearGradient id="b" x1="9.39" y1="4.21" x2="7.2" y2="11.93" gradientUnits="userSpaceOnUse"><stop stop-color="#FFE607"/><stop offset="1" stop-color="#FF650B"/></linearGradient><linearGradient id="c" x1="5.56" y1="10.84" x2="8.43" y2="5.99" gradientUnits="userSpaceOnUse"><stop stop-color="#FFE312"/><stop offset="1" stop-color="#FFF418" stop-opacity="0"/></linearGradient><linearGradient id="d" x1="6.62" y1="12.23" x2="8.28" y2="4.85" gradientUnits="userSpaceOnUse"><stop stop-color="#FF700A"/><stop offset="1" stop-color="#FFEE18"/></linearGradient><linearGradient id="e" x1="6.98" y1="12.26" x2="9.6" y2="4.47" gradientUnits="userSpaceOnUse"><stop stop-color="#FFD210"/><stop offset="1" stop-color="#FFF010"/></linearGradient><linearGradient id="f" x1="8.19" y1="13.78" x2="11.49" y2="7.82" gradientUnits="userSpaceOnUse"><stop offset=".02" stop-color="#FF6D0A"/><stop offset="1" stop-color="#FFDE0A"/></linearGradient><linearGradient id="g" x1="7.86" y1="14.68" x2="11.28" y2="6.85" gradientUnits="userSpaceOnUse"><stop offset=".02" stop-color="#FFB70E"/><stop offset=".64" stop-color="#FFF418"/><stop offset="1" stop-color="#FFEF15"/></linearGradient></defs></svg>