<!-- by TradingView --><svg width="18" height="18" viewBox="0 0 18 18" xmlns="http://www.w3.org/2000/svg"><path fill="#F0F3FA" d="M0 0h18v18H0z"/><path d="m10.56 12.52.1-.05c.34-.15.65-.28.91-.56.36-.36.44-.75.22-1.15-.27-.5-.83-.73-1.32-.9-.07-.02-.07-.02 0-.02.64.08 1.66.39 1.99 1 .3.55-.14 1.01-.6 1.26a5 5 0 0 1-1.03.39 1.03 1.03 0 0 1-.3.03h.03ZM5.47 11.46c.27.65 1.33.97 1.95 1.09.01 0 .02 0 .02-.02v-.02c-.51-.16-.9-.4-1.18-.76-.65-.86.42-1.67 1.2-1.85v-.02c-.01-.02-.02-.02-.03-.02-.52.08-.98.23-1.39.46-.39.23-.76.66-.57 1.14Z" fill="#0705A5"/><path fill-rule="evenodd" d="M10.3 9.44c-.06 0-.08-.03-.06-.09.13-.37.08-.73-.13-1.07a46.45 46.45 0 0 0-.57-.94 6.96 6.96 0 0 1 1.04-1.24.05.05 0 0 0-.02-.04 6.48 6.48 0 0 1-1.53-2.04.03.03 0 0 0-.05 0A6.66 6.66 0 0 1 7.44 6.1v.01c.39.35.72.74 1.02 1.17.01.02.02.05 0 .08l-.53.83a1.3 1.3 0 0 0-.16 1.21.04.04 0 0 1-.02.03h-.02c-1.15.06-2.25.24-3.29.55-.4.11-.75.3-1.06.53-.39.3-.53.8-.18 1.2.17.18.37.33.6.44a9.8 9.8 0 0 0 3.59.8c1.52.1 3.09.07 4.6-.16.7-.1 3.59-.67 2.9-1.95-.25-.48-1-.77-1.49-.9-.99-.29-2.02-.45-3.1-.5Zm-5.68 2.27c.42.6 1.5.9 2.19 1.03 1.23.22 2.48.25 3.75.1.87-.11 1.9-.33 2.58-.9.87-.72.16-1.57-.61-1.87a8.35 8.35 0 0 0-2.34-.52c-.02 0-.04 0-.05.03a1.2 1.2 0 0 1-1.03.62c-.55.03-.98-.18-1.28-.63a.05.05 0 0 0-.05-.03c-.7.07-1.36.2-1.99.4-.73.24-1.78.89-1.17 1.77Z" fill="#0705A5"/></svg>