<!-- by TradingView --><svg width="18" height="18" viewBox="0 0 18 18" xmlns="http://www.w3.org/2000/svg"><path fill="#F0F3FA" d="M0 0h18v18H0z"/><path d="M4.7 7H3v4h1.7C6.13 11 7 10.03 7 9c0-.94-.71-2-2.3-2Zm-.08 3.5H3.57v-3H4.6c1.18 0 1.84.72 1.84 1.5 0 .48-.44 1.5-1.8 1.5ZM8.5 11H8V7h.5v4ZM9.57 9c0 .85.84 1.5 1.87 1.5.57 0 1.1-.2 1.56-.46v.61a3.8 3.8 0 0 1-1.61.35C9.73 11 9 9.88 9 9.06 9 7.87 10.02 7 11.43 7c.54 0 1.07.14 1.57.33v.6a3.45 3.45 0 0 0-1.58-.43c-.98 0-1.85.68-1.85 1.5Z"/><path d="M15 9h-1v1h1V9Z" fill="#ACA9AA"/></svg>