<!-- by TradingView --><svg width="18" height="18" viewBox="0 0 18 18" xmlns="http://www.w3.org/2000/svg"><path fill="#F0F3FA" d="M0 0h18v18H0z"/><path fill-rule="evenodd" d="M11.56 7.55 7.98 9l-2.14.87c-.2.08-.4.12-.64.12H3.18c-.14 0-.21-.14-.17-.26l1.6-4.37a.69.69 0 0 1 .13-.24.41.41 0 0 1 .3-.13h2a1.4 1.4 0 0 1 .75.2l3.76 2.1c.1.07.16.19 0 .25ZM5.54 7.4l.34-.92a.7.7 0 0 1 .1-.19.4.4 0 0 1 .27-.16c.31-.04.6.02.87.16l1.76.93a.2.2 0 0 1 .1.1v.02a.15.15 0 0 1-.1.12L6.23 8.58c-.2.08-.4.14-.6.15h-.27a.23.23 0 0 1-.14-.03c-.1-.07-.1-.16-.06-.26l.38-1.04Zm6.99 3.6c-.18 0-.3.02-.39.05l-.42.68c-.09.22-.4.28-.64.27h-.5a.87.87 0 0 1-.3-.13c-.28-.2-.55-.37-.81-.53-.26-.17-.52-.33-.79-.52-.07-.05-.12-.1-.1-.2a.15.15 0 0 1 .1-.1c.55-.23 1.15-.45 1.75-.68.63-.23 1.26-.47 1.84-.71.23-.1.45-.13.7-.13h1.44c.2 0 .34-.05.4-.24.03-.05.05-.13.08-.22l.1-.29c.04-.11-.03-.25-.16-.25H12.4c-.26 0-.48.02-.7.1l-5.63 2.25c-.13.05-.18.2-.07.3l2.53 2.07c.21.18.38.28.65.28h3.49c.25 0 .38-.13.47-.35l.35-.87.22-.53a.17.17 0 0 0-.09-.22.38.38 0 0 0-.16-.03h-.94Z"/></svg>