<!-- by TradingView --><svg width="18" height="18" viewBox="0 0 18 18" xmlns="http://www.w3.org/2000/svg"><path fill="#F0F3FA" d="M0 0h18v18H0z"/><path d="m8.55 4.32-.04.36.12 1.01c.1.26.43.3.68.35l.26.07c.14.08.28.12.42.1.05 0 .06-.02.04-.06A.4.4 0 0 1 9.97 6c.01-.52.02-1.05.01-1.57.1-.04.17-.09.22-.14.03 0 .06.02.08.03-.04.38-.08.75-.1 1.1-.03.21 0 .45.05.73.23.12.55.15.95.08.08.04.15.05.2.03a.1.1 0 0 0 .07-.09l.09-1.36.4.21c.08.35.07.58-.05.7 3.35 5.06-3.36 7.7-5.82 7.23-1.07-5.4-.14-5.2.1-5.76l.42-.42.12-.12c.13-.04.2-.1.24-.19a.11.11 0 0 0-.01-.11.55.55 0 0 0-.4-.24c.24-.16.5-.29.78-.36l.6-.03c.05 0 .07-.03.07-.07 0-.12.04-.23.1-.34.11-.21.07-.5.05-.74.12-.12.26-.2.41-.24Z" fill="#C1122D"/><path d="M10.2 4.28a.75.75 0 0 1-.22.14l-.81-.07a.2.2 0 0 0-.18.07l-.27.37c-.03.03-.05.03-.08 0a.24.24 0 0 1-.03-.17c.01-.13 0-.23-.06-.3a.97.97 0 0 0-.41.24h-.08l-.17.2c-.52-.3-1.14-.3-1.4.34a.5.5 0 0 0-.16-.15c-.12-.05-.14-.03-.07.08.02.02.05.06.11.1l-.05.03c-.02 0-.03.03-.03.06l.02.1c.01.05 0 .07-.05.08a1.8 1.8 0 0 1-.57.02 3.1 3.1 0 0 1-.93-.4c.4-.28.83-.5 1.31-.67.03.03.02.07-.02.11-.13.13-.1.17.08.13l1.05-.23c.02 0 .04-.02.05-.03a.08.08 0 0 0 .02-.06c0-.07.04-.15.12-.22a7.28 7.28 0 0 1 2.83.23Z" fill="#EF1945"/><path d="M7.37 4.05c-.08.07-.13.15-.12.22l-.02.06a.08.08 0 0 1-.05.03l-1.05.23c-.18.04-.2 0-.08-.13.04-.04.05-.08.02-.11.41-.15.85-.25 1.3-.3Z" fill="#F15E56"/><path d="M8.6 4.62c.01.05 0 .08-.02.11-.02.02-.04 0-.07-.05l.04-.36c.05.07.07.17.06.3Z" fill="#F69A9B"/><path d="M9.98 4.42c.01.52 0 1.05-.01 1.57 0 .03.02.09.06.16.02.04 0 .06-.03.06a.67.67 0 0 1-.43-.1c.27-.46.35-.95.25-1.48a.12.12 0 0 0-.07-.1 1 1 0 0 0-.34-.07c-.11-.01-.21.06-.3.21-.1.17-.17.35-.2.54a.27.27 0 0 1-.16.1.1.1 0 0 0-.08.06c-.04.1-.06.2-.04.32l-.12-1c.03.04.05.06.07.04.02-.03.03-.06.03-.1 0 .06 0 .12.03.16.03.03.05.03.08 0l.27-.37a.2.2 0 0 1 .18-.07l.81.07ZM11.54 4.8l-.1 1.36a.1.1 0 0 1-.05.09c-.06.02-.13.01-.21-.03.1.02.17.02.2-.02s.03-.07 0-.1c-.18-.3-.05-.8 0-1.12a.1.1 0 0 0-.05-.1c-.32-.2-.55-.16-.7.12a.14.14 0 0 0-.02.11l.15.52c-.11.1-.2.21-.26.34-.05.02-.1 0-.15-.05-.03-.03-.06-.02-.08.01a.62.62 0 0 0-.04.2 2.68 2.68 0 0 1-.06-.71l.11-1.11c.44.12.86.29 1.26.49Z" fill="#F15E56"/><path d="m9.57 6.11-.26-.07c.36-.38.49-.85.36-1.4-.01-.04-.04-.06-.08-.06h-.26a.09.09 0 0 0-.08.05l-.33.58c.02-.2.08-.37.18-.54.1-.15.2-.22.3-.21a1 1 0 0 1 .35.08c.04.02.06.05.07.09.1.53.02 1.02-.25 1.48Z" fill="#F1676F"/><path d="M8.14 4.56c.02.24.06.53-.05.74a.73.73 0 0 0-.1.34c0 .04-.02.07-.06.07l-.61.03c-.09 0-.14-.02-.15-.06.03-.13.09-.2.18-.22.35-.17.6-.46.74-.86 0-.02 0-.03-.03-.04h.08Z" fill="#F79983"/><path d="m7.89 4.76-.16.22c-.31-.27-.63-.28-.95-.02-.06.06-.08.12-.03.2.12.2.32.3.6.25v.05c-.1.02-.15.09-.18.22-.2-.08-.36-.17-.47-.26.09-.07.01-.17-.22-.32.27-.63.9-.64 1.4-.34Z" fill="#F1676F"/><path d="M9.3 6.04c-.24-.05-.57-.1-.67-.35a.61.61 0 0 1 .04-.32.1.1 0 0 1 .08-.06.27.27 0 0 0 .17-.1l.33-.58a.09.09 0 0 1 .08-.05h.26c.04 0 .07.02.08.06.13.55 0 1.02-.36 1.4Z" fill="#F79983"/><path d="m7.73 4.98-.38.43c-.28.04-.48-.04-.6-.25-.05-.08-.03-.14.03-.2.32-.26.64-.25.95.02ZM11.18 6.22c-.4.07-.72.04-.95-.08 0-.1.02-.16.04-.2.02-.04.05-.05.08-.02.05.05.1.07.15.05.37-.18.61-.48.71-.9.01-.03 0-.05-.02-.06a.22.22 0 0 0-.1-.02.17.17 0 0 0-.14.07.17.17 0 0 0-.03.14c.03.16-.02.3-.16.43l-.15-.52a.14.14 0 0 1 .01-.11c.16-.28.4-.32.7-.12a.1.1 0 0 1 .06.1c-.05.32-.18.82 0 1.11.03.04.03.07 0 .1-.03.05-.1.05-.2.03ZM6.48 5.1c.23.15.3.25.22.32l-.33-.29a.54.54 0 0 1-.1-.1c-.08-.1-.06-.13.06-.08.04.03.1.08.15.15Z" fill="#F69A9B"/><path d="M10.5 5.97a.95.95 0 0 1 .26-.34c.14-.13.2-.27.16-.43a.18.18 0 0 1 .03-.14.17.17 0 0 1 .13-.07c.04 0 .08 0 .1.02.03.01.04.03.03.06-.1.42-.34.72-.7.9Z" fill="#FBD9C0"/><path d="m13.38 6.11-1.3.17-.05.04-.14-.62c.12-.1.13-.34.05-.69.53.31 1.02.68 1.44 1.1Z" fill="#E073A8"/><path d="M6.55 6.1c.17.03.3.1.39.24.02.03.03.07.01.11-.03.09-.11.15-.24.2.11-.08.14-.16.07-.23a.49.49 0 0 0-.29-.16.51.51 0 0 0-.3.06l-.61.3c-.11-.24-.12-.46-.01-.65.01-.04.05-.05.09-.04l.89.17Z" fill="#DD1564"/><path d="m13.38 6.11.06.06-.04.25c0 .05-.03.08-.06.1-.11.06-.25.07-.43.03a6.38 6.38 0 0 1-.83-.27l1.3-.17Z" fill="#C9559C"/><path d="M13.44 6.17c.32.32.6.68.83 1.05-.01.07-.04.1-.07.1a.4.4 0 0 0-.15-.17.11.11 0 0 0-.1-.02c-.48.17-.8.33-1.23.2l.2-.15c.1-.01.17-.07.22-.16.03-.04.02-.06-.03-.07l-1-.22-.08-.4.05-.05c.27.1.55.2.83.27.18.04.32.03.43-.03a.12.12 0 0 0 .06-.1l.04-.25Z" fill="#E10C54"/><path d="m6.71 6.64-.12.12-.57-.03a.1.1 0 0 1-.06-.03l-.04-.04a.1.1 0 0 0-.1-.03.9.9 0 0 0-.35.16.2.2 0 0 0-.1-.01l.2-.15.62-.31a.51.51 0 0 1 .3-.06c.12.02.22.07.3.16.06.07.03.15-.08.22Z" fill="#FBD9C0"/><path d="M5.7 5.42a3.1 3.1 0 0 1-.94-.4 4.27 4.27 0 0 0-1.34 1.52c.24.2.41.44.53.7.1.23.14.46.17.69.06.4.11.8.54 1.08l.42.24c.3.18.51.63.62.96l-.01-.57-.05-.38a.07.07 0 0 1 .02-.05.06.06 0 0 1 .04-.02h.05c.03 0 .05.02.05.05-.02.13 0 .26.03.4v-.7c-.18-.57.06-1.11.28-1.62l.06-.14-.61-.1-.44-.04h-.03a.05.05 0 0 1-.01-.06l.02-.02.26-.18.22-.15c-.11-.25-.12-.47-.01-.66.01-.04.05-.05.09-.04l.89.17c.23-.16.49-.29.77-.36-.09 0-.14-.02-.15-.06-.2-.08-.36-.17-.47-.26l-.33-.29-.05.03c-.02 0-.03.03-.03.06l.02.1c.01.05 0 .07-.05.08a1.8 1.8 0 0 1-.57.02Z" fill="#E10C54"/><path d="M3.42 6.54c.24.2.41.44.53.7.28.62.04 1.33.71 1.77l.42.24c.3.18.51.63.62.96.01.04 0 .1-.01.15-.16.04-.24.15-.23.32a.1.1 0 0 0 .06.08c.06.03.14.04.22.03v.14c-.02.04-.04.07-.09.07l-.66.1a.2.2 0 0 0-.16-.03.05.05 0 0 0-.03.03V11.25l-.28.53a5.56 5.56 0 0 1-1.29-2.06c-.36-1.1-.3-2.22.2-3.18Z" fill="#DD1564"/><path d="m6.59 6.76-.42.42-.61-.1c.1 0 .17-.01.22-.05.05-.04.05-.06-.02-.07l-.3-.06c-.04-.01-.05-.03-.03-.07a.9.9 0 0 1 .4-.2.1.1 0 0 1 .09.03l.04.04a.1.1 0 0 0 .06.03l.57.03Z" fill="#F15E56"/><path d="M12.93 7.18c-.15-.21-.36-.25-.63-.12-.04.01-.07 0-.09-.03a.85.85 0 0 1-.1-.3l1 .22c.05.01.06.03.03.07a.31.31 0 0 1-.21.16Z" fill="#E073A8"/><path d="M5.36 6.78a.2.2 0 0 1 .11.01.1.1 0 0 0-.04.04c-.02.04-.01.06.03.07l.3.06c.07 0 .07.03.02.07-.05.04-.13.05-.22.04l-.44-.03h-.03a.04.04 0 0 1-.01-.06l.02-.02.26-.18Z" fill="#FDD451"/><path d="m14.2 7.32.15.31c-.76-.04-1.24.3-1.46 1.02 0 .04 0 .08.02.1.12.15.25.27.4.35a.14.14 0 0 0 .12 0l.88-.33c.18.42.2.82.07 1.22-.01.04 0 .06.04.07l.3.05a.08.08 0 0 1 .07.09 3.4 3.4 0 0 1-.62 1.57.32.32 0 0 1-.31.14 1.4 1.4 0 0 1-.93-.4l-.36-.33a1 1 0 0 0-.14-.1.41.41 0 0 0-.17-.04c-.28-.02-.55-.1-.82-.22.35-.32.6-.7.74-1.16.2.82.15.04.08-.24.02-.19.07-.36.14-.5.11-.14.2-.3.26-.5a1.89 1.89 0 0 0 .34-.66c0-.04 0-.06-.05-.06h-.55c-.03 0-.05-.02-.05-.06 0-.04.03-.09.07-.14l.3-.17c.43.13.75-.03 1.23-.2.03-.01.07 0 .1.02.07.04.12.1.15.17Z" fill="#BE3387"/><path d="M14.86 8.61a8.1 8.1 0 0 0-.07 1.8c0 .13.04.14.1.02l.06-.15c-.1.66-.36 1.28-.77 1.81-.39.5-.9.92-1.49 1.23l-1.05-.52c-.13-.46-.07-.87.17-1.24.02-.04.01-.06-.02-.08-.35-.15-.74-.2-1.16-.15l.81-.51c.27.12.54.2.82.22.07 0 .13.02.17.04l.14.1.36.32c.3.28.54.38.93.41.13.01.23-.04.31-.14.34-.47.54-1 .62-1.57 0-.02 0-.04-.02-.06a.08.08 0 0 0-.05-.03l-.3-.05c-.04 0-.05-.03-.04-.07.14-.4.11-.8-.07-1.22.4-.1.42-.47.04-1.14l-.15-.3c.03-.01.06-.04.07-.1.27.44.47.9.6 1.38Z" fill="#A21D70"/><path d="M12.42 7.5c-.04.05-.07.1-.07.14 0 .04.02.06.05.06h.55c.04 0 .06.02.05.06-.06.22-.16.42-.29.6.1-.15.1-.3.02-.42a.09.09 0 0 0-.1-.05c-.09.01-.2.04-.3.1-.03-.1-.04-.2-.05-.27-.02-.12.03-.2.14-.22ZM14.35 7.63c.38.67.36 1.05-.04 1.14l-.88.33a.14.14 0 0 1-.12 0c-.15-.08-.28-.2-.4-.34a.11.11 0 0 1-.02-.1c.22-.73.7-1.07 1.46-1.03Z" fill="#C9559C"/><path d="M12.71 8.36a.2.2 0 0 1-.05.07c-.07.02-.15-.02-.23-.13-.03-.03-.04-.02-.05.02l-.03.29-.02-.63c.1-.05.21-.08.3-.09.04 0 .07.01.1.05.08.13.07.27-.02.42Z" fill="#FBE4EC"/><path d="M12.66 8.43c-.06.19-.15.35-.26.48a.43.43 0 0 1-.05-.3l.03-.3c0-.03.02-.04.05 0 .08.1.16.14.23.12Z" fill="#D782B6"/><path d="M14.86 8.61c.15.56.18 1.13.1 1.67l-.07.15c-.06.12-.1.11-.1-.02a8.1 8.1 0 0 1 .07-1.8Z" fill="#881956"/><path d="m5.83 9.63.1 1.88c-.07.02-.12 0-.16-.07a1.47 1.47 0 0 1-.78-.34l.66-.1c.05 0 .07-.03.08-.07a.37.37 0 0 0 0-.14.57.57 0 0 0-.04-.43c.02-.05.02-.1 0-.15v-.57l-.05-.38a.07.07 0 0 1 .02-.05.06.06 0 0 1 .04-.02h.05c.03 0 .05.02.05.05-.02.13 0 .26.03.4ZM12.26 9.42c.01.05.04.07.07.08v.02l-.01.02c-.02.02-.01.04 0 .05l.43.26a.05.05 0 0 1 .02.04.05.05 0 0 1 0 .04l-.25.24a.14.14 0 0 1-.13.04.14.14 0 0 1-.1-.1l-.11-.45.08-.24Z" fill="#A3114B"/><path d="M6.97 10.6c-.1.13-.09.23.07.3a.1.1 0 0 1 .06.1l.01.12a.19.19 0 0 1-.1 0c-.02 0-.04-.02-.06-.06-.1-.2-.22-.4-.37-.6 0-.02.01-.05.04-.09l.02-.01.02-.01h.02l.02.02a.7.7 0 0 0 .27.23Z" fill="#FBE4EC"/><path d="m7.11 11.12.09.02a.4.4 0 0 0-.16 0c-.04 0-.06.03-.06.07v.97c0 .04-.02.07-.05.1a.28.28 0 0 1-.09.05c-.04.02-.07 0-.08-.03a.4.4 0 0 0-.34-.21l.16-1.63c.15.2.27.4.37.6.02.04.04.06.06.07l.1-.01Z" fill="#A3114B"/><path d="m6.97 10.6.76.4a.93.93 0 0 1-.18.15.25.25 0 0 1-.17.03 1.1 1.1 0 0 1-.18-.04l-.09-.02-.01-.13a.1.1 0 0 0-.06-.08c-.16-.08-.18-.18-.07-.31Z" fill="#D782B6"/><path d="m7.73 11 .81.34c-.05.14-.02.25.1.36a.3.3 0 0 1-.2.16.95.95 0 0 0-.14-.36.1.1 0 0 0-.1-.06h-.3c-.1-.02-.2.02-.28.1a.64.64 0 0 0-.2.52s0 .03-.02.05c0 .01 0 .02-.02.02-.06.05-.05.06.05.05l.24-.03a.7.7 0 0 1-.34.09c-.24.1-.35-.15-.34-.75v-.28c0-.04.01-.06.05-.07a.4.4 0 0 1 .16 0l.18.04c.06 0 .12 0 .17-.03a.93.93 0 0 0 .18-.14ZM5 11.1c.22.19.48.3.77.34.27 0-.12.1.16.23 0-.05 0-.05 0 0-.08.1-.14.2-.19.34a.36.36 0 0 1-.13.17.35.35 0 0 1-.2.07L5 12.24c-.17-.14-.33-.3-.48-.46l.27-.53a.12.12 0 0 0 .01-.08v-.07l.03-.03a.2.2 0 0 1 .16.03Z" fill="#6A247C"/><path d="m11.64 12.8-.43-.06a1.12 1.12 0 0 1-.42-.28c.13-.3.04-.67-.27-1.11l.1-.02c.43-.05.82 0 1.17.15.03.02.04.04.02.08-.24.37-.3.78-.17 1.24Z" fill="#881956"/><path d="m8.54 11.34.77.17c.21.22.45.4.71.54l.3.26.01.02a.05.05 0 0 1 0 .05l-.03.02-.43.19-.12-.17a.9.9 0 0 0-.21-.32c-.04-.04-.05-.03-.04.02l.03.14c0 .04 0 .06-.05.06-.26-.01-.47.03-.62.11-.06.04-.08.02-.04-.03l.05-.1c.03-.03.02-.06-.03-.1a.47.47 0 0 1-.2-.5c-.12-.1-.15-.22-.1-.36Z" fill="#4A2C7E"/><path d="M10.52 11.35c.31.44.4.8.27 1.1l-.35-.15.06.02c.04 0 .06-.02.04-.07a.63.63 0 0 0-.4-.32c-.04-.02-.07 0-.06.05v.05c-.02 0-.04 0-.06.02-.26-.14-.5-.32-.7-.54.45.02.85-.03 1.2-.16Z" fill="#BE3387"/><path d="M8.44 11.86h-.08c-.08-.12-.2-.17-.32-.14a.11.11 0 0 0-.08.06c-.08.17-.07.25.03.23l-.32.14-.24.03c-.1.01-.11 0-.05-.05l.02-.02c.02-.02.02-.04.02-.05 0-.22.06-.4.2-.53a.36.36 0 0 1 .28-.1l.3.01a.1.1 0 0 1 .1.06c.07.1.12.23.14.36Z" fill="#AA66AB"/><path d="M7.33 12.24c.14.37.31.7.63.91.69.48 1.46.92 2.27.17l.13.23c.08.14.2.27.35.4-1.07.13-2.2.02-3.28-.35a1.11 1.11 0 0 0-.22-.43.18.18 0 0 0-.1-.06.77.77 0 0 1-.33-.18l.13-.42c.01-.05 0-.08-.04-.1-.11-.05-.28-.02-.51.1-.02-.2 0-.33.06-.42a.4.4 0 0 1 .34.21c.01.04.04.05.08.03a.28.28 0 0 0 .1-.05.13.13 0 0 0 .04-.1v-.69c0 .6.11.85.35.75Z" fill="#434FA0"/><path d="m5.94 11.66.26 1.25c.02.05.03.06.06 0a.48.48 0 0 0 .04-.2c.01.2.06.36.12.47-.52-.26-1-.58-1.42-.94h.4c.07 0 .15-.01.2-.06.07-.04.11-.1.14-.17.05-.13.11-.25.2-.35Z" fill="#38224D"/><path d="M9.75 12.42c-.54.18-.94.32-1.1.86-.02.05 0 .1.03.13l.17.2c.06.06.15.07.29.05.38-.07.68-.26.9-.58l.19.24c-.8.75-1.58.3-2.27-.17a1.75 1.75 0 0 1-.63-.91.7.7 0 0 0 .34-.09l.32-.14.37-.15h.08a.3.3 0 0 0 .2-.16c-.03.21.03.38.2.5.05.04.06.07.03.1l-.05.1c-.04.05-.02.06.04.03.15-.08.36-.12.62-.11.04 0 .06-.02.05-.06l-.03-.14c-.01-.05 0-.06.04-.02.09.08.16.19.21.32Z" fill="#5A78BC"/><path d="m8.36 11.86-.37.15c-.1.02-.11-.06-.03-.23a.11.11 0 0 1 .08-.06c.13-.03.24.02.32.14Z" fill="#FBE4EC"/><path d="m10.08 12.03.36.27.35.16c.1.1.23.2.42.28l-.04 1.12-.46.08a1.23 1.23 0 0 1-.35-.39c.13-.03.24-.07.35-.13a.12.12 0 0 0 .05-.1c.02-.16 0-.32-.06-.48a.1.1 0 0 0-.03-.04.1.1 0 0 0-.05-.02l-.66-.05-.09-.14.44-.2.02-.01v-.02a.05.05 0 0 0-.01-.05l-.3-.26a.12.12 0 0 1 .06-.02Z" fill="#894294"/><path d="m6.78 12.93-.14.36-.22-.1c-.06-.12-.1-.28-.12-.48 0-.1.02-.18.06-.2.23-.12.4-.15.51-.1.04.02.05.05.04.1l-.13.42Z" fill="#1A2140"/><path d="m9.75 12.42.12.17.09.14c0 .13.04.24.09.35-.23.32-.53.51-.91.58-.14.02-.23 0-.29-.05l-.17-.2a.13.13 0 0 1-.03-.13c.16-.54.56-.68 1.1-.86Z" fill="#74AADD"/><path d="m10.36 13.55-.13-.23-.18-.24a.89.89 0 0 1-.1-.35l.67.05a.1.1 0 0 1 .05.02.1.1 0 0 1 .03.04c.06.16.08.32.06.49a.13.13 0 0 1-.05.1c-.1.05-.22.1-.35.12Z" fill="#C493C3"/><path d="m11.64 12.8 1.05.52c-.46.25-.97.43-1.52.54l.04-1.12.43.06Z" fill="#6A247C"/><path d="M7.43 13.6c-.27-.09-.53-.2-.8-.31l.15-.36c.1.09.21.15.34.18.03 0 .07.03.1.06.1.12.16.26.21.43Z" fill="#74AADD"/><path d="M9.13 5.27c.08-.22.15-.38.21-.49.1-.15.15-.13.16.04.01.16 0 .33-.04.52 0 .05-.04.07-.09.06l-.18-.04c-.06 0-.08-.04-.06-.1Z" fill="#FBD9C0"/><path d="M7.39 5.13a.55.55 0 0 1-.43-.01.09.09 0 0 1-.05-.07.09.09 0 0 1 .03-.08c.1-.08.22-.11.38-.08.1.02.13.09.1.2 0 .02-.01.03-.03.04Z" fill="#FBF4C6"/><path d="M14.38 8.35c-.29.25-.64.41-1.05.47l-.07-.01a.12.12 0 0 1-.05-.07.85.85 0 0 1-.04-.4c0-.04.03-.08.06-.1.32-.25.7-.35 1.14-.32.05 0 .07.03.08.07.04.16.01.28-.07.36Z" fill="#D782B6"/><path d="M8.34 12.5c.03 0 .06.03.07.06v.1l-.03.08a.4.4 0 0 1-.2.22.33.33 0 0 1-.27 0H7.9a.33.33 0 0 1-.12-.08.36.36 0 0 1-.08-.12.4.4 0 0 1 0-.3l.04-.07a.13.13 0 0 1 .07-.07.13.13 0 0 1 .1 0l.43.17Z" fill="#74AADD"/><path d="M12 9.12v-.06c0-2.12-.4-3.59-.59-4.06-.06 1.13-.17 1.9-.23 2.19a3.38 3.38 0 0 0-1.73-.93c-1.63-.33-3.16.56-3.42 2L6 8.66v.02c0 2.14.07 3.85.27 4.33.05-.9.32-1.71.46-2.16l.1-.27c.43.45 1.03.78 1.72.92 1.63.34 3.16-.56 3.42-2l.03-.37Z" fill="#fff"/><path d="M7 7.42c0-.3.22-.42.5-.42s.5.12.5.42v.91h2v-.91c0-.3.22-.42.5-.42s.5.12.5.42v3.2c0 .3-.22.38-.5.38s-.5-.09-.5-.38v-1.4H8v1.4c0 .3-.22.38-.5.38s-.5-.09-.5-.38v-3.2Z" fill="#1D254A"/></svg>