<!-- by TradingView --><svg width="18" height="18" viewBox="0 0 18 18" xmlns="http://www.w3.org/2000/svg"><path fill="#F0F3FA" d="M0 0h18v18H0z"/><circle cx="9" cy="9" r="6" fill="#0367B5"/><circle cx="8.2" cy="7.93" r="4.16" fill="#0C76C0"/><circle cx="8.12" cy="7.69" r="3.06" fill="#408CCA"/><circle cx="7.75" cy="7.26" r="2" fill="#80A8D9"/><path d="M13.8 9.14h-1.12a.16.16 0 0 1-.1-.04.14.14 0 0 1-.05-.1v-.98c0-.05.03-.08.08-.08h1.1a.08.08 0 0 1 .06.02.07.07 0 0 1 .02.06v1.12Z" fill="#E00313"/><path d="M11.18 4.54a6 6 0 0 0-1.34-.46 5.9 5.9 0 0 0-2.07.07c-.16.04-.3.09-.46.16-.13.04-.26.1-.4.16a4.96 4.96 0 0 0 3.19 9.34c1.07-.22 2.8-.94 2.67-2.3-.09-.94-1.07-1.33-1.86-1.5l-.8-.17c-.3-.07-.6-.18-.87-.35-.13-.08-.19-.18-.18-.33.04-.61.67-.97 1.24-.95.51.02.99.16 1.42.43l.59.4a.03.03 0 0 0 .03 0 .03.03 0 0 0 .02-.03V7.82a.07.07 0 0 0-.05-.07l-.74-.31a4.06 4.06 0 0 0-1.62-.19c-1.15.12-2.06.85-2.08 2.05.08.74.61 1.06 1.25 1.32l.12.05c.37.11.74.2 1.12.27.32.06 1.13.26 1.18.66.06.52-1.01.89-1.41.98a3.96 3.96 0 0 1-4.38-1.74c-.2-.34-.34-.71-.43-1.1a3.78 3.78 0 0 1 3.62-4.52l.47.04c.86.1 1.6.46 2.22 1.07v.02c.33.34.56.63.75 1.06.07.14.15.18.3.18h.94c.03 0 .07-.05.07-.08v-.03a4.68 4.68 0 0 0-2.5-2.94Z" fill="url(#a)"/><path d="M10.55 10.98c.31-.23.57-.52.76-.86a4.6 4.6 0 0 0-.4-.1l-.8-.18c-.31-.07-.6-.18-.87-.35-.13-.08-.19-.18-.18-.33.04-.61.67-.97 1.24-.95.46.02.89.13 1.29.35-.07-.48-.27-.9-.56-1.26a3.97 3.97 0 0 0-1.09-.05C8.8 7.37 7.9 8.1 7.87 9.3c.08.74.61 1.06 1.25 1.32l.12.05a11.46 11.46 0 0 0 1.3.3Z" fill="url(#b)"/><defs><linearGradient id="a" x1="6.24" y1="4.93" x2="11.16" y2="12.96" gradientUnits="userSpaceOnUse"><stop stop-color="#F8F5FB"/><stop offset="1" stop-color="#8CAADC"/></linearGradient><linearGradient id="b" x1="8.28" y1="7.61" x2="10.77" y2="9.11" gradientUnits="userSpaceOnUse"><stop stop-color="#F8F9F4"/><stop offset="1" stop-color="#B4C6E8"/></linearGradient></defs></svg>