<!-- by TradingView --><svg width="18" height="18" viewBox="0 0 18 18" xmlns="http://www.w3.org/2000/svg"><path fill="#F0F3FA" d="M0 0h18v18H0z"/><path fill-rule="evenodd" d="M9 14c3.31 0 6-2.24 6-5s-2.69-5-6-5-6 2.24-6 5 2.69 5 6 5Zm0-.31c3.15 0 5.7-2.1 5.7-4.69 0-2.59-2.55-4.69-5.7-4.69-3.15 0-5.7 2.1-5.7 4.69 0 2.59 2.55 4.69 5.7 4.69Z" fill="#D9D9D9"/><path d="m7.78 5.9-.41.26a.13.13 0 0 1-.08.02c-.1 0-.2.01-.31.06-.04-.41.08-.74.35-.99.27-.24.43-.4.46-.46.02-.04.03-.03.04 0 .08.25.11.44.11.58 0 .19-.05.36-.16.53Z" fill="#ABCF6F"/><path d="m7.78 5.9-.2.26a.05.05 0 0 0 0 .05c0 .02.02.03.04.03.16.01.3-.02.44-.09a.95.95 0 0 1 .38-.13c.39-.02.73.14 1.04.47-.17 0-.28 0-.34.05-.02 0-.02.02 0 .03l.4.42c.02.03.01.04-.02.05h-.08l-.03-.01a.92.92 0 0 0-.38-.24c-.2-.04-.39-.08-.58-.1-.05-.02-.09 0-.1.06-.02.02-.01.05 0 .1a1.58 1.58 0 0 1-.44-.52c-.01-.03-.04-.05-.07-.04l-.58.1c-.15.02-.15.04 0 .07.5.09.9.38 1.18.88a1.1 1.1 0 0 1-.42-.21.09.09 0 0 0-.09-.02.1.1 0 0 0-.06.07v.07c0 .03 0 .05-.03.07a.06.06 0 0 1-.07 0l-.83-.37a.15.15 0 0 0-.1 0l-.08.01-.04.07-.08.13-.24-.46c-.01-.03-.03-.04-.06-.03a4.94 4.94 0 0 0-2.03 1.5.14.14 0 0 1-.11-.06c.7-.9 1.58-1.48 2.65-1.74.11-.03.15-.07.13-.13.1-.05.2-.06.3-.06.04 0 .06 0 .09-.02l.4-.26Z" fill="#60AE53"/><path d="M9.48 6.5c.16.16.25.38.26.67 0 .04-.02.06-.06.05-.2-.05-.48-.1-.83-.14a.97.97 0 0 1-.5-.23c-.01-.05-.02-.08 0-.1.01-.06.05-.08.1-.07l.58.11c.1.03.23.1.38.24l.03.01h.08c.03 0 .04-.02.01-.05l-.4-.42v-.03c.07-.04.18-.06.35-.05ZM8.44 7.34c.14.24.18.51.14.82l-.09.01c.04-.07 0-.12-.12-.14l-.7-.17c-.43-.1-.77-.34-1.03-.7l.08-.13c.03.1.07.15.15.19.03.01.06 0 .06-.04.02-.14-.03-.22-.17-.22l.09-.02.1.01.82.38c.02.01.05 0 .07-.01a.07.07 0 0 0 .03-.07v-.07a.1.1 0 0 1 .06-.07c.03-.01.06 0 .09.02.12.1.26.17.42.21Z" fill="#ABCF6F"/><path d="m6.72 7.03.04-.07c.14 0 .2.08.17.22 0 .04-.03.05-.06.04-.08-.04-.12-.1-.15-.2Z" fill="#E6EDA9"/><path fill-rule="evenodd" d="M10.68 9.92a.5.5 0 0 1 .25-.06c.12 0 .2.06.23.1-.03-.1-.1-.31-.09-.38l.1-.29c.1.09.2.2.27.31l.08-.07.2-.2.08.25a.44.44 0 0 1-.03.37v-.01c.03-.04.08-.08.2-.08.13 0 .3.08.36.12a1.58 1.58 0 0 1-.3-.37 5.33 5.33 0 0 1-.12-.41l.2-.1-.14-.23-.12.1-.14-.53.06-.22a.62.62 0 0 1-.3.08c-.15 0-.21-.06-.23-.08l.08.22-.2.53-.08-.1-.17.24.17.1-.14.4-.22.31Zm.56-.81.2.25.21-.2-.21-.6-.2.55Zm-3.53.76c.06-.12.2-.38.23-.4.03.12.16.38.4.38.32 0 .4-.12.4-.25 0-.12-.1-.27-.36-.34-.26-.06-.58-.14-.58-.5s.22-.53.55-.53c.26 0 .36.08.38.11l.14-.02-.1.44H8.7c-.02-.1-.13-.31-.35-.31-.23 0-.29.12-.29.17-.01.09.03.27.32.31.36.06.62.36.62.6 0 .25-.36.47-.6.47-.25 0-.34-.07-.42-.15-.06-.07-.2-.01-.27.02Zm-3.76-1.6.21.07a.68.68 0 0 1 .33-.07c.22 0 .63.18.63.76 0 .59-.38 1.03-.67 1.03-.12 0-.17-.01-.22-.03-.07-.02-.11-.03-.28.03.03-.06.08-.23.08-.38v-1.1l-.08-.3Zm.3.28v1.23c.01.03.06.1.2.1.17 0 .41-.17.41-.82 0-.52-.28-.62-.41-.6a.37.37 0 0 0-.2.1Zm1.08-.28c.06.02.17.05.28.05a.5.5 0 0 0 .24-.05l-.1.22v1.23l.08.21a.59.59 0 0 0-.26-.08c-.1 0-.2.06-.24.08l.1-.21V8.49l-.1-.22Zm1.06.05a.94.94 0 0 1-.28-.05l.1.22v1.23l-.1.21a.51.51 0 0 1 .24-.08c.1 0 .21.06.26.08l-.09-.21v-.3l.22-.33.33.65-.1.2c.11-.07.3-.09.47 0l-.16-.26-.42-.75.27-.4.16-.14.16-.12c-.15.05-.43.03-.53 0l.07.22-.47.72V8.5l.11-.22a.5.5 0 0 1-.24.05Zm2.82-.05c.04.02.13.05.23.05s.18-.04.2-.05l-.1.22V9c.09.02.19.03.3.03.1 0 .18-.01.25-.03V8.5l-.1-.22c.05.02.14.05.24.05.1 0 .18-.04.2-.05l-.1.22v1.23l.08.21a.43.43 0 0 0-.21-.08.37.37 0 0 0-.2.08l.09-.21v-.47a1.42 1.42 0 0 0-.54 0v.47l.07.21a.43.43 0 0 0-.21-.08.37.37 0 0 0-.2.08l.09-.21V8.49l-.1-.22Zm1.65 3.16-.17.29c.04-.04.15-.11.28-.11.13 0 .26.07.3.11l-.17-.3v-.77c.12.26.45.8.55.91l.4.4v-1.74l.14-.24a.91.91 0 0 1-.32.09.39.39 0 0 1-.22-.07l.13.25v1.02l-.62-1.05.18-.24a.72.72 0 0 1-.3.09c-.1 0-.26-.05-.32-.07l.14.2v1.23Zm1.48-.17-.18.43.18-.06c.12.12.36.15.48.15.2-.01.6-.14.6-.5 0-.45-.5-.55-.71-.58-.17-.03-.21-.17-.21-.25 0-.13.02-.24.26-.24.24 0 .5.33.59.49-.03-.07-.1-.24-.1-.38 0-.13.1-.23.15-.26l-.25.1a.59.59 0 0 0-.39-.18c-.38 0-.49.32-.5.47 0 .48.27.62.53.64.26.02.4.13.4.26 0 .14-.08.3-.37.3-.24 0-.42-.26-.48-.4ZM7.72 10h1.22v.52c-.06-.13-.22-.4-.4-.4h-.4v.63h.34l.2-.2c-.05.06-.08.12-.05.26.02.12.09.26.12.33l.02.04c-.04-.08-.17-.25-.34-.25h-.29v.7h.28c.08.02.28 0 .43-.32l.14.43H7.72l.2-.21v-.6a.8.8 0 0 0-.28.1c.04-.08.13-.24.28-.28v-.57l-.2-.18Zm2.7 0H9.22l.2.18v.57c-.15.04-.25.2-.28.29a.8.8 0 0 1 .27-.1v.59l-.19.2h1.27l-.14-.42c-.16.32-.36.34-.44.32h-.27v-.7h.29c.17 0 .3.17.33.25l-.01-.04c-.04-.07-.1-.21-.12-.33-.03-.14 0-.2.04-.27l-.2.2h-.33v-.61h.4c.18 0 .34.26.4.39V10Zm-4.73.33c0-.1.05-.2.07-.24l-.16.04a.72.72 0 0 0-.36-.11c-.45 0-.8.31-.8.9 0 .6.5.81.74.81.2 0 .3-.04.31-.06l.23.1v-.82l.13-.18a.53.53 0 0 1-.23.04.67.67 0 0 1-.25-.04l.12.18v.57c-.02.03-.1.09-.25.09-.2 0-.55-.21-.55-.66 0-.46.17-.78.55-.78.3 0 .36.28.36.41h.16a.55.55 0 0 1-.07-.25Zm.41 1.4.2-.28v-.4h-.2l.2-.14v-.63l-.15-.13c.05-.05.25-.15.58-.15.41 0 .64.23.64.45s-.2.36-.4.44c.07.2.24.6.31.66.07.06.18.12.22.14a.82.82 0 0 0-.3.24l-.47-1H6.5v.52l.14.28a.44.44 0 0 0-.26-.09.62.62 0 0 0-.29.09Zm.4-1.54v.6c.37.04.65-.11.65-.34 0-.28-.35-.34-.44-.34a.43.43 0 0 0-.2.08Z" fill="#828A61"/><path fill-rule="evenodd" d="M10.83 9.73a.5.5 0 0 0-.25.07l.22-.32.15-.42a1.45 1.45 0 0 0-.18-.1l.17-.24.1.11.19-.55-.09-.22c.02.03.08.08.23.08.14 0 .26-.05.3-.08l-.06.22c.04.15.1.35.14.55l.12-.1.14.23-.2.1.13.42c.05.11.22.3.3.37a.85.85 0 0 0-.36-.12c-.13 0-.18.05-.2.08.08-.13.05-.3.03-.36l-.09-.25-.2.2a.45.45 0 0 1-.08.07 1.03 1.03 0 0 0-.27-.31l-.1.29c0 .06.06.28.1.38a.33.33 0 0 0-.24-.1Zm.85.08-.01.02.01-.02Zm-.34-.6-.2-.24.2-.56.22.6-.22.2Zm-3.5.12c-.03.03-.17.29-.23.42.07-.04.22-.1.28-.03.08.08.17.15.41.15.25 0 .6-.22.6-.47 0-.25-.25-.55-.62-.61-.28-.05-.33-.23-.31-.32 0-.05.06-.17.28-.17.23 0 .33.2.36.32h.07l.1-.46-.15.03c-.02-.04-.12-.11-.38-.11-.32 0-.55.17-.55.54 0 .36.33.44.58.5.26.07.37.23.37.35 0 .13-.09.25-.4.25-.25 0-.37-.26-.4-.4ZM4.06 8.19l-.2-.07.07.3v1.13c0 .15-.05.32-.08.39.17-.07.22-.06.28-.03.05.01.1.03.22.03.29 0 .68-.45.68-1.05 0-.6-.42-.77-.64-.77a.67.67 0 0 0-.33.07Zm.1 1.46V8.4c.08-.07.16-.1.19-.1.14-.01.41.09.41.62 0 .66-.24.83-.41.83-.14 0-.18-.07-.2-.1ZM5.5 8.16a.93.93 0 0 1-.27-.04l.1.21V9.6l-.1.21a.5.5 0 0 1 .24-.08c.1 0 .2.06.25.08l-.08-.21V8.33l.1-.22a.49.49 0 0 1-.24.05Zm1.31-.05c.1.04.38.05.54 0l-.16.13-.16.13-.28.41.42.77.16.25a.52.52 0 0 0-.46 0l.1-.19-.33-.66-.23.33v.3l.09.22a.58.58 0 0 0-.26-.08.5.5 0 0 0-.24.08l.1-.21V8.33l-.1-.21c.06.02.17.04.28.04.13 0 .22-.03.24-.05l-.1.22v.74l.46-.74-.07-.22Zm3.31.05a.64.64 0 0 1-.23-.04l.09.21v.54c-.07.02-.15.03-.25.03s-.21-.02-.29-.04v-.53l.1-.22c-.03.02-.1.05-.2.05a.64.64 0 0 1-.24-.04l.09.21V9.6l-.09.21a.37.37 0 0 1 .2-.08c.08 0 .17.06.21.08l-.07-.21V9.1l.29-.02c.09 0 .18 0 .25.02v.48l-.09.21a.37.37 0 0 1 .2-.08c.08 0 .17.06.21.08l-.07-.21V8.33l.09-.22c-.02.02-.1.05-.2.05Z" fill="#BED24D"/><path d="M8.84 9.94H7.63l.19.18v.57c-.14.03-.24.2-.27.28a.8.8 0 0 1 .27-.1v.58l-.2.2H8.9l-.14-.42c-.15.32-.35.35-.43.32h-.27v-.69h.29c.17 0 .29.16.33.25l-.02-.04c-.03-.07-.1-.21-.12-.32-.02-.15 0-.2.05-.27l-.2.2h-.33v-.61h.4c.18 0 .34.25.4.38v-.51Zm3.22 1.63.19-.41c.05.12.23.38.47.38.3 0 .37-.17.37-.3 0-.12-.14-.22-.4-.24-.26-.02-.52-.16-.52-.61 0-.15.12-.45.5-.45a.6.6 0 0 1 .39.16l.25-.09c-.05.03-.15.12-.15.25s.06.3.1.36c-.1-.15-.35-.46-.6-.46-.23 0-.26.1-.26.23 0 .07.04.2.21.23.21.03.72.12.72.56 0 .34-.4.46-.61.48-.11 0-.36-.03-.47-.15l-.19.06ZM9.11 9.94h1.22v.51c-.06-.13-.22-.38-.4-.38h-.4v.6h.34l.2-.19c-.05.07-.08.12-.05.27.02.1.09.25.12.32l.02.04c-.04-.09-.17-.25-.34-.25h-.29v.69h.28c.08.03.28 0 .43-.32l.14.43H9.11l.2-.21v-.58a.8.8 0 0 0-.28.1c.04-.09.13-.25.28-.28v-.57l-.2-.18Zm-3.45.1a.46.46 0 0 0-.07.24c0 .1.05.2.07.24H5.5c0-.13-.06-.4-.36-.4-.37 0-.55.31-.55.74 0 .42.36.62.55.62.15 0 .24-.06.26-.08v-.54l-.12-.17a.7.7 0 0 0 .24.05c.12 0 .2-.03.23-.05l-.13.17v.78l-.22-.1c-.02.02-.11.06-.31.06-.25 0-.75-.2-.75-.76s.35-.86.8-.86c.15 0 .3.08.36.11l.16-.04Zm.54 1.3-.2.26a.65.65 0 0 1 .3-.09c.12 0 .22.06.26.09l-.15-.27v-.48h.22l.47.93c.1-.11.24-.2.3-.22a1.13 1.13 0 0 1-.21-.13 3.15 3.15 0 0 1-.32-.63c.2-.07.4-.2.4-.4 0-.21-.23-.43-.64-.43-.33 0-.52.09-.58.14l.15.12v.6l-.19.12h.19v.38Zm.2-.63v-.56a.45.45 0 0 1 .21-.08c.1 0 .44.06.44.32 0 .21-.28.36-.65.32Zm4.23.87.17-.28v-1.15l-.14-.19c.06.02.21.06.32.06.11 0 .24-.05.3-.08l-.18.22.6 1v-.97l-.12-.23c.02.02.1.06.21.06.12 0 .27-.05.33-.08l-.12.22v1.65l-.08-.07a5.8 5.8 0 0 1-.34-.31 6.5 6.5 0 0 1-.55-.86v.73l.18.28a.57.57 0 0 0-.3-.1.49.49 0 0 0-.28.1Z" fill="#65882E"/></svg>