<!-- by TradingView --><svg width="18" height="18" viewBox="0 0 18 18" xmlns="http://www.w3.org/2000/svg"><path fill="#F0F3FA" d="M0 0h18v18H0z"/><path d="M7.17 6.28c0-.6.42-1.28.64-1.54.02-.02.02-.04-.19 0-.25.05-1.84 1.04-2.41 1.62A4.06 4.06 0 0 0 4.3 9.5c.22 1.13 1.2 1.32 1.75 1.32.56 0 1.57-.77 1.57-2.05 0-1.27-.45-1.74-.45-2.5Z" fill="url(#axz2jisks)"/><path d="m8.45 4.16-.23.43c-.13.25-.4.92-.4 1.55 0 .34.1.6.23.95l.05.15c.15.42.3.91.3 1.64a2.3 2.3 0 0 1-.65 1.71c-.4.39-.93.57-1.48.57a2.5 2.5 0 0 1-1.41-.45A2.13 2.13 0 0 1 4 8.88c0-1.1.55-2.1 1.32-2.9a6.58 6.58 0 0 1 2.66-1.67l.47-.15Zm-2.84 2.1a3.87 3.87 0 0 0-1.2 2.62c0 .77.31 1.23.69 1.5.39.29.86.38 1.17.38.45 0 .88-.15 1.2-.45.31-.3.53-.77.53-1.43a4.15 4.15 0 0 0-.34-1.65c-.12-.34-.24-.68-.24-1.09 0-.47.12-.94.25-1.3-.72.3-1.46.8-2.06 1.41Z" fill="#14316A"/><path d="M12.56 8.48c.5.34.83 1.06.94 1.39 0 .02.02.04.1-.15.1-.24.16-2.08 0-2.87a4.14 4.14 0 0 0-2.14-2.51c-1.08-.46-1.8.22-2.1.67-.32.46-.25 1.7.83 2.43 1.08.72 1.74.61 2.37 1.04Z" fill="url(#bxz2jisks)"/><path d="m13.62 10.71-.24-.43a3.82 3.82 0 0 0-1.08-1.2c-.28-.19-.57-.26-.93-.35l-.15-.04A4.77 4.77 0 0 1 9.66 8 2.32 2.32 0 0 1 8.6 6.5c-.1-.53.05-1.07.36-1.51a2.23 2.23 0 0 1 3.2-.55 4.29 4.29 0 0 1 1.7 2.7 6.3 6.3 0 0 1-.1 3.1l-.13.46Zm-.17-3.47a3.9 3.9 0 0 0-1.53-2.46c-.65-.44-1.22-.44-1.66-.3-.46.16-.8.49-.98.74-.26.37-.37.8-.29 1.23.08.42.35.86.9 1.23a4.36 4.36 0 0 0 1.58.66c.36.1.71.18 1.06.42.4.26.73.63.95.93.15-.75.16-1.62-.03-2.45Z" fill="#14316A"/><path d="M7.9 12.06c-.55.28-1.36.22-1.7.16-.02-.01-.04 0 .09.16.16.2 1.8 1.12 2.59 1.34.8.23 2.35.04 3.27-.68.91-.72.63-1.65.37-2.14-.26-.48-1.43-1-2.58-.4-1.16.6-1.37 1.21-2.05 1.56Z" fill="url(#cxz2jisks)"/><path d="M5.38 11.93h.5c.28 0 1.01-.08 1.59-.38.3-.15.5-.37.75-.63l.11-.12c.3-.32.68-.69 1.34-1.03.67-.34 1.3-.4 1.85-.23.53.17.95.54 1.2 1.02.18.33.34.86.25 1.43-.09.58-.44 1.18-1.24 1.6-1 .51-2.17.5-3.24.2a6.6 6.6 0 0 1-2.75-1.52l-.36-.34Zm3.22 1.48c1 .28 2.06.28 2.94-.18.7-.36.96-.84 1.03-1.3.07-.46-.06-.92-.2-1.19-.22-.4-.56-.69-.98-.82a2 2 0 0 0-1.53.2 4.3 4.3 0 0 0-1.34 1.06c-.25.27-.5.53-.86.72-.43.22-.91.34-1.3.39.61.48 1.4.9 2.24 1.12Z" fill="#14316A"/><defs><linearGradient id="axz2jisks" x1="4.78" y1="8.08" x2="7.93" y2="8.46" gradientUnits="userSpaceOnUse"><stop stop-color="#577EA8"/><stop offset="1" stop-color="#C7CEE1"/></linearGradient><linearGradient id="bxz2jisks" x1="12.39" y1="5.53" x2="10.35" y2="7.92" gradientUnits="userSpaceOnUse"><stop stop-color="#577EA8"/><stop offset="1" stop-color="#C7CEE1"/></linearGradient><linearGradient id="cxz2jisks" x1="10.63" y1="13.29" x2="9.54" y2="10.37" gradientUnits="userSpaceOnUse"><stop stop-color="#577EA8"/><stop offset="1" stop-color="#C7CEE1"/></linearGradient></defs></svg>