<!-- by TradingView --><svg width="18" height="18" viewBox="0 0 18 18" xmlns="http://www.w3.org/2000/svg"><path fill="url(#a)" d="M0 0h18v18H0z"/><path d="m9 11.92-.68.9a.46.46 0 0 1-.37.18H4.23a.23.23 0 0 1-.18-.36l2.72-3.67-2.72-3.6A.23.23 0 0 1 4.23 5h3.82c.14 0 .28.07.36.18l.59.8.59-.8A.46.46 0 0 1 9.95 5h3.82c.19 0 .3.21.18.36l-2.72 3.61 2.72 3.67c.12.15 0 .36-.18.36h-3.72a.46.46 0 0 1-.37-.18l-.68-.9Z" fill="#fff"/><path d="m7.21 8.67-2.25-3h2.93l.85.98L7.2 8.67Z" fill="#CACACB"/><path d="m10.83 8.67 2.25-3h-2.93l-.85.98 1.53 2.02ZM7.21 9.33l-2.25 3h2.93l.85-.98L7.2 9.33Z" fill="#585656"/><path d="m10.83 9.33 2.25 3h-2.93l-.85-.98 1.53-2.02Z" fill="#CACACB"/><path d="m9.03 10.83-1.2-1.5h2.34l-1.14 1.5ZM9.03 7.17l-1.2 1.5h2.34l-1.14-1.5Z" fill="#959495"/><defs><linearGradient id="a" x1="3.35" y1="3.12" x2="21.9" y2="24.43" gradientUnits="userSpaceOnUse"><stop stop-color="#1A1E21"/><stop offset="1" stop-color="#06060A"/></linearGradient></defs></svg>