<!-- by TradingView --><svg width="18" height="18" viewBox="0 0 18 18" xmlns="http://www.w3.org/2000/svg"><path fill="#F0F3FA" d="M0 0h18v18H0z"/><path d="M14 4v10H4L14 4ZM8 4h2v1H8z" fill="#342F2B"/><path d="M6.71 4.94h4.58L13 13H5l1.71-8.06Z" fill="#A9A49E"/><path d="M8.38 13H5l.3-1.47c.43-.42.92-.86 1.2-1.11L8.38 13Z" fill="#726D69"/><path d="M11.7 6.87 13 13H5.92l5.79-6.13Z" fill="#79746E"/><path d="M10.25 4.94 8.38 7.05l4.31 4.34-1.34-6.45h-1.1Z" fill="#98928C"/><path fill="#C2BEB8" d="M6 13h6v1H6z"/><path d="M4.75 7.65c0 .15.32.18.5.18.94 0 1.38-.6 1.38-1.31 0-.7-.44-1.35-1.4-1.35-.18 0-.48.03-.48.18v2.3ZM4 7.92c.33-.04.38-.15.38-.41V5.49c0-.25-.04-.38-.38-.4V5h1.1C6.24 5 7 5.62 7 6.51 7 7.37 6.24 8 5.15 8H4v-.08Zm3 0c.36-.05.33-.31.33-.59V5.5c0-.24-.04-.39-.33-.4V5h.7l.82 2.29L9.3 5h.7v.08c-.3.03-.33.18-.33.41v2.02c0 .23.05.38.33.4V8H9v-.08c.31-.03.33-.21.33-.46V5.42L8.43 8h-.05L7.5 5.52l-.01 1.81c0 .27 0 .54.34.59V8H7v-.08Zm2 5c.36-.05.33-.31.33-.59V10.5c0-.24-.04-.39-.33-.4V10h.7l.82 2.29.78-2.29h.7v.08c-.3.03-.33.18-.33.41v2.02c0 .23.05.38.33.4V13h-1v-.08c.31-.03.33-.21.33-.46v-2.04l-.9 2.58h-.05l-.88-2.48-.01 1.81c0 .27 0 .54.34.59V13H9v-.08ZM7 10h2v.77h-.1c-.07-.34.04-.58-.47-.58H8.2v2.32c0 .26.05.38.4.4V13H7.4v-.08c.4-.03.4-.2.4-.46v-2.27h-.23c-.34 0-.41.24-.47.58H7V10Z" fill="#4281AE"/></svg>