<!-- by TradingView --><svg width="18" height="18" viewBox="0 0 18 18" xmlns="http://www.w3.org/2000/svg"><path fill="#F0F3FA" d="M0 0h18v18H0z"/><path fill-rule="evenodd" d="M6 16V2h6v14H6ZM7 6l.74-3h.73L9 4.54 9.53 3h.73L11 6h-.8l-.28-1.46L9.35 6h-.73l-.51-1.46L7.85 6H7Zm0 1v4h1.95c.69.03 2.05-.33 2.05-2.01C11 7.29 9.64 6.96 8.95 7H7Zm1 1v2h.98C9.32 10 10 9.84 10 9c0-.85-.68-1.02-1.02-1H8Zm3 4-.74 3h-.73L9 13.46 8.47 15h-.73L7 12h.8l.28 1.46.57-1.46h.73l.51 1.46.26-1.46H11Z" fill="#F36824"/></svg>