<!-- by TradingView --><svg width="18" height="18" viewBox="0 0 18 18" xmlns="http://www.w3.org/2000/svg"><path fill="#F0F3FA" d="M0 0h18v18H0z"/><path d="M3 6h3.23C7.6 6 8.5 7.2 8.5 8.67H3.55c-.3 0-.55-.27-.55-.6V6ZM3 12h3.23C7.6 12 8.5 10.8 8.5 9.33H3.55c-.3 0-.55.27-.55.6V12Z" fill="#0065AC"/><path d="M9 9.33h2.28c.23 0 .42.21.42.47v1.74c0 .25-.19.46-.42.46H9V9.33Z" fill="#00AADF"/><path d="M9 6v2.67h2.5c.44 0 .8.38.8.86v1.88c0 .33.24.59.54.59H15V8.53C15 7.13 13.95 6 12.65 6H9Z" fill="#00AADF"/></svg>