<!-- by TradingView --><svg width="18" height="18" viewBox="0 0 18 18" xmlns="http://www.w3.org/2000/svg"><path fill="#CE1041" d="M0 0h18v18H0z"/><path d="M10.07 12.6a4.18 4.18 0 0 1-.68.33v.04c.1.42.14.86.1 1.3-.04.47-.45.88-.97.67-.7-.27-1.15-1.66-1.32-2.3A3.86 3.86 0 0 1 5.6 8.47 3.65 3.65 0 0 1 7 6.32V6.3c-.35-1.34.63-2.51 2.07-2.57h.01l.01-.02c.28-.96 1.7-.94 1.93.04.06.28-.01.54-.21.8v.04c.5.75.52 1.52.04 2.29v.03a4.03 4.03 0 0 1 .56 4.1c-.01.02 0 .04.01.06.4.44 1.42 1.72.95 2.32-.57.72-1.86-.38-2.27-.78h-.04Zm.82-8.67c0-.2-.08-.4-.24-.55a.85.85 0 0 0-.59-.23.85.85 0 0 0-.59.23.77.77 0 0 0-.24.55c0 .21.09.41.24.56.16.15.37.23.6.23.21 0 .42-.08.58-.23a.77.77 0 0 0 .24-.56Zm-.24 2.4c-.79.32-1.46-.62-.84-1.2.2-.18.44-.24.74-.18.02 0 .02 0 .01-.02l-.09-.12h-.03a1 1 0 0 1-1.34-.66l-.01-.02h-.02c-1.25 0-2.08 1.22-1.56 2.3.34.72 1.2 1.11 2 .9a1.72 1.72 0 0 0 1.17-.98l-.01-.01h-.02Zm.36-.67a.61.61 0 0 0-.2-.45.67.67 0 0 0-.47-.18.7.7 0 0 0-.47.18.64.64 0 0 0-.2.45.6.6 0 0 0 .2.45.67.67 0 0 0 .47.19.7.7 0 0 0 .48-.19.63.63 0 0 0 .2-.45Zm-.03 4.23c-.24.47-.93.55-1.3.15-.31-.34-.25-.82.12-1.11.01-.01.02-.02 0-.04l-.23-.37a.04.04 0 0 0-.03-.02c-.62.06-1-.46-1.34-.84a.7.7 0 0 0-.18-.14c-.35-.2-.63-.46-.83-.8 0-.02-.01-.02-.03 0a3.49 3.49 0 0 0-1.18 3.44c.19.95.8 1.9 1.77 2.3.99.4 2.05.05 2.73-.71a3.63 3.63 0 0 0 .11-4.52c0-.01-.02-.02-.03 0l-.37.27a.04.04 0 0 0-.02.03c-.03.33-.1.66-.4.88v.03l.22.37h.03c.7-.19 1.3.45.96 1.08ZM9.92 7.62c-.46.18-.89.2-1.36.1-.02 0-.03.01-.01.02.18.22.5.52.78.57.4.06.6-.36.61-.67 0-.02 0-.03-.02-.02Zm1 1.92a.6.6 0 0 0-.18-.43.66.66 0 0 0-.46-.18.66.66 0 0 0-.45.18.6.6 0 0 0-.2.43c0 .16.08.32.2.43a.66.66 0 0 0 .91 0 .6.6 0 0 0 .18-.43Zm-.48 2.83c.24.27 1.04.87 1.42.87.77 0-.49-1.63-.64-1.8h-.02c-.2.34-.45.64-.75.9-.02 0-.02.02 0 .03ZM8.6 14.53c.21.18.42.03.46-.19.1-.42.02-.91-.07-1.32 0-.02-.02-.03-.03-.02-.43.05-.84 0-1.24-.14-.01 0-.02 0-.01.02.17.56.44 1.28.89 1.65Z" fill="#231F20"/><path d="M10.9 3.93c0 .21-.1.41-.25.56a.85.85 0 0 1-.59.23.85.85 0 0 1-.59-.23.77.77 0 0 1-.24-.56c0-.2.09-.4.24-.55a.85.85 0 0 1 .6-.23c.21 0 .42.08.58.23.16.14.24.35.24.55Zm-.22 0c0-.15-.07-.3-.18-.4a.63.63 0 0 0-.44-.18.63.63 0 0 0-.43.17.57.57 0 0 0-.19.42c0 .15.07.3.19.41a.63.63 0 0 0 .87 0 .57.57 0 0 0 .18-.41Z" fill="#fff"/><path d="M10.68 3.94c0 .15-.07.3-.18.41a.63.63 0 0 1-.44.17.63.63 0 0 1-.43-.17.57.57 0 0 1-.19-.41c0-.16.07-.3.19-.42a.63.63 0 0 1 .43-.17c.17 0 .32.06.44.17.11.11.18.26.18.42Zm-.1 0a.47.47 0 0 0-.16-.35.53.53 0 0 0-.36-.14.53.53 0 0 0-.36.14c-.1.1-.15.22-.15.34 0 .13.06.26.15.35.1.09.23.14.36.14.14 0 .27-.05.36-.14.1-.1.15-.22.15-.35Z" fill="#231F20"/><path d="M10.06 4.42a.5.5 0 0 0 .51-.49.5.5 0 0 0-.5-.48.5.5 0 0 0-.52.48c0 .27.23.49.51.49ZM9.8 5.13c-.6.58.06 1.52.86 1.2a.02.02 0 0 1 .02.01v.02c-.25.52-.64.84-1.17.98-.8.2-1.66-.19-2-.9-.52-1.09.31-2.3 1.56-2.31h.02v.02a1 1 0 0 0 1.35.65.03.03 0 0 1 .03.01l.1.12c0 .01 0 .02-.02.02-.3-.06-.55 0-.74.18Zm-.37.08c0-.2-.08-.38-.22-.52a.8.8 0 0 0-.55-.21.8.8 0 0 0-.55.21.72.72 0 0 0-.17.8.73.73 0 0 0 .42.4.81.81 0 0 0 .85-.16.73.73 0 0 0 .22-.52Z" fill="#fff"/><path d="M9.43 5.21a.7.7 0 0 1-.22.52.78.78 0 0 1-.55.22.81.81 0 0 1-.55-.22.73.73 0 0 1-.23-.52c0-.2.09-.38.23-.52a.8.8 0 0 1 .55-.21c.2 0 .4.07.55.21.14.14.22.33.22.52Zm-.1 0a.6.6 0 0 0-.2-.45.67.67 0 0 0-.47-.19.69.69 0 0 0-.48.2.62.62 0 0 0-.2.44c0 .17.08.33.2.45a.69.69 0 0 0 .74.14.67.67 0 0 0 .36-.35.6.6 0 0 0 .05-.24Z" fill="#231F20"/><path d="M9.33 5.21a.6.6 0 0 1-.2.45.67.67 0 0 1-.47.19.69.69 0 0 1-.48-.19.62.62 0 0 1-.2-.45c0-.17.08-.33.2-.45a.69.69 0 0 1 .74-.14.67.67 0 0 1 .36.35.6.6 0 0 1 .05.24Zm-.53-.18a.28.28 0 0 0-.09-.2.31.31 0 0 0-.21-.08.31.31 0 0 0-.22.08.28.28 0 0 0-.09.2c0 .08.04.15.1.2.05.06.13.1.2.1.09 0 .17-.04.22-.1a.28.28 0 0 0 .1-.2Z" fill="#fff"/><path d="M8.5 5.32a.3.3 0 0 0 .3-.29.3.3 0 0 0-.3-.28.3.3 0 0 0-.3.28c0 .16.13.3.3.3Z" fill="#231F20"/><path d="M11.01 5.66a.6.6 0 0 1-.2.45.67.67 0 0 1-.47.19.7.7 0 0 1-.47-.19.64.64 0 0 1-.2-.45.6.6 0 0 1 .2-.45.67.67 0 0 1 .47-.18.7.7 0 0 1 .48.18.63.63 0 0 1 .2.45Zm-.6-.16a.28.28 0 0 0-.08-.2.31.31 0 0 0-.22-.1.31.31 0 0 0-.21.1.28.28 0 0 0-.07.3.29.29 0 0 0 .17.16.32.32 0 0 0 .33-.06.29.29 0 0 0 .09-.2Z" fill="#fff"/><path d="M10.11 5.78a.3.3 0 0 0 .3-.28.3.3 0 0 0-.3-.3.3.3 0 0 0-.3.3c0 .16.14.28.3.28Z" fill="#231F20"/><path d="M9.68 10.04c.37.4 1.06.32 1.3-.15.34-.63-.26-1.27-.96-1.07h-.01l-.02-.01-.23-.37.01-.03c.3-.22.37-.55.4-.88 0-.02.01-.03.02-.03l.37-.28h.03a3.63 3.63 0 0 1-.11 4.53 2.42 2.42 0 0 1-2.73.7 3.09 3.09 0 0 1-1.77-2.29 3.49 3.49 0 0 1 1.18-3.45h.03c.2.35.48.62.83.81a.7.7 0 0 1 .18.14c.35.38.72.9 1.34.84.01 0 .03 0 .03.02l.24.37v.04c-.38.3-.44.77-.13 1.11Z" fill="#fff"/><path d="M8.56 7.73c.47.1.9.07 1.36-.11.02 0 .03 0 .02.02-.01.3-.2.73-.6.67-.3-.05-.61-.35-.8-.57 0-.01 0-.02.02-.01ZM10.92 9.54a.6.6 0 0 1-.18.43.66.66 0 0 1-.46.18.66.66 0 0 1-.45-.18.6.6 0 0 1-.2-.43.6.6 0 0 1 .2-.43.66.66 0 0 1 .45-.18c.17 0 .34.06.46.18a.6.6 0 0 1 .18.43Zm-.12 0a.48.48 0 0 0-.16-.35.53.53 0 0 0-.36-.14.53.53 0 0 0-.36.14.48.48 0 0 0 0 .7.53.53 0 0 0 .73 0c.1-.1.15-.22.15-.35Z" fill="#fff"/><path d="M10.8 9.54c0 .13-.06.25-.16.34-.1.1-.22.15-.36.15a.53.53 0 0 1-.36-.15.48.48 0 0 1-.15-.34c0-.13.05-.25.15-.35a.53.53 0 0 1 .73 0c.1.1.15.22.15.35Zm-.11 0a.37.37 0 0 0-.12-.28.41.41 0 0 0-.29-.11c-.1 0-.21.04-.29.11a.38.38 0 0 0-.12.28c0 .1.04.2.12.27a.42.42 0 0 0 .45.09.41.41 0 0 0 .22-.21l.03-.15Z" fill="#231F20"/><path d="M10.28 9.93a.4.4 0 0 0 .41-.4.4.4 0 0 0-.41-.38.4.4 0 0 0-.41.39c0 .21.18.39.41.39ZM11.86 13.24c-.38 0-1.18-.6-1.42-.87v-.03c.3-.26.56-.56.76-.9h.02c.15.17 1.41 1.8.64 1.8ZM8.59 14.53a3.62 3.62 0 0 1-.9-1.65c0-.02 0-.02.02-.02.4.14.81.19 1.24.14.01 0 .02 0 .03.02.1.4.16.9.07 1.32-.04.22-.25.37-.46.19Z" fill="#fff"/></svg>