<!-- by TradingView --><svg width="18" height="18" viewBox="0 0 18 18" xmlns="http://www.w3.org/2000/svg"><path fill="#0035B1" d="M0 0h18v18H0z"/><path fill="#FFCD31" d="M4 7h1v5H4zM6 7h1v5H6zM7.5 7H8v5h-.5V7ZM9.5 7h.5v5h-.5V7ZM11 7h1v5h-1zM13 7h1v5h-1z"/><path d="M4.5 6.82H5V12h-.5V6.82ZM6.5 6.9H7V12h-.5V6.9ZM8 7h.5v5H8V7ZM10 7h.5v5H10V7ZM11.5 7h.5v5h-.5V7ZM13.5 7h.5v5h-.5V7Z" fill="#FFF8D7"/><path d="M3.67 12h10.66v.27H3.67V12Z" fill="#9E8F78"/><path fill="#FEE79A" d="M3.33 12.27h11.33v.36H3.33z"/><path fill="#C5CAC9" d="M3 12.64h12V13H3z"/><path d="M15 7H3l6-2 6 2Z" fill="#FEE79A"/><path d="M13.59 6.8H4.4L9 5.2l4.59 1.6Z" fill="#FFCD31"/></svg>