<!-- by TradingView --><svg width="18" height="18" viewBox="0 0 18 18" xmlns="http://www.w3.org/2000/svg"><path fill="#F0F3FA" d="M0 0h18v18H0z"/><path d="M7.8 5.16a.37.37 0 0 0 .08.41c.71.68 1.41 1.2 1.08 2.16-.66 1.89-3.02 2.13-4.73 2.2a.16.16 0 0 1-.1-.04.16.16 0 0 1-.07-.1c-.2-1.3.07-2.5.82-3.56C5.86 4.83 7.1 4.28 8.74 4c.2-.03.23.02.08.15-.28.25-.86.62-1.02 1Z" fill="#034693"/><path d="M12.7 8.64c-.36-1.63-1.83-1.75-2.97-2.62-.92-.69.13-2.03 1-1.66a4.94 4.94 0 0 1 2.68 6.97A4.83 4.83 0 0 1 9.3 14a5.7 5.7 0 0 1-2.16-.33c-.36-.1-.35-.21 0-.31 1.96-.53 4.1-1.46 5.2-3.24.25-.4.46-.99.35-1.47Z" fill="#047F49"/></svg>