<!-- by TradingView --><svg width="18" height="18" viewBox="0 0 18 18" xmlns="http://www.w3.org/2000/svg"><path fill="#F0F3FA" d="M0 0h18v18H0z"/><path d="M9.88 9.98V10h2.33l.02-.01.01-.02.39-.94a.04.04 0 0 1 .03-.03H15l.01.01-1.55 3.91c0 .02-.06.08-.08.08H11.2a.02.02 0 0 1-.02-.01v-.02l.33-.96V12h-.99c-.35 0-.6-.01-.74-.04a2.03 2.03 0 0 1-1.03-.56h-.03c-.39.32-.83.5-1.32.57-.28.03-.58.03-.88.03H3.04c-.04 0-.05-.02-.03-.06l.88-1.93v-.02l.03.01h2.87c.36 0 .65-.14.88-.41.06-.08.13-.17.19-.33.02-.06.27-1.2.44-1.65a.57.57 0 0 0 .04-.23C8.32 7.01 7.98 7 7.69 7H4.94c-.03 0-.04-.02-.02-.05l.72-1.92.02-.02h.02L7.88 5c.58 0 1.07.2 1.49.6 0 .02.01.02.02.01.42-.32.88-.52 1.38-.58a5 5 0 0 1 .75-.01 320.14 320.14 0 0 1 1.96.1l-.84 1.84-.02.03H10.72c-.02 0-.03.01-.04.04l-.8 2.95Z" fill="red"/></svg>