<!-- by TradingView --><svg width="18" height="18" viewBox="0 0 18 18" xmlns="http://www.w3.org/2000/svg"><path fill="#0073BE" d="M0 0h18v18H0z"/><path fill-rule="evenodd" d="M14 9A5 5 0 1 1 4 9a5 5 0 0 1 10 0Zm-5.31 4.36v-.27a5.09 5.09 0 0 0-.68.16c.22.05.45.1.68.11Zm-1.17-.28a7.78 7.78 0 0 1 1.17-.3v-.64c-.77.05-1.52.27-2.02.45.27.2.55.36.85.49Zm-1.12-.72c.5-.2 1.39-.48 2.29-.54v-1.25c-1.4.03-2.6.29-3.28.49.25.5.59.94.99 1.3Zm-1.12-1.59c.7-.2 1.94-.48 3.4-.52v-.94H4.96c.03.52.15 1.01.33 1.46ZM4.95 8.7h3.74v-.94a14.1 14.1 0 0 1-3.41-.5c-.18.44-.3.93-.33 1.44Zm.46-1.74c.7.2 1.9.45 3.28.48V6.18a8.32 8.32 0 0 1-2.3-.53c-.4.37-.74.8-.98 1.3Zm1.25-1.53c.5.18 1.27.4 2.03.44v-.63a5.15 5.15 0 0 1-1.2-.3c-.3.13-.57.3-.83.5Zm1.33-.66a7.99 7.99 0 0 0 .7.15v-.27c-.24.02-.48.06-.7.12Zm1.97 8.5c-.21.05-.43.08-.65.1v-.27c.23.03.45.1.65.16Zm.46-.16c-.29-.13-.7-.27-1.1-.33v-.63c.74.04 1.51.25 2.04.43-.3.21-.6.4-.94.53Zm1.21-.77a8.74 8.74 0 0 0-2.32-.5v-1.26c1.3.03 2.53.25 3.3.44-.24.5-.58.95-.98 1.32Zm1.1-1.61c-.79-.2-2.06-.43-3.42-.47v-.94h3.74c-.03.5-.14.97-.31 1.4Zm.32-2.03H9.31v-.94a15.8 15.8 0 0 0 3.42-.48c.18.44.29.92.32 1.42Zm-.44-1.7c-.76.18-1.98.41-3.3.44V6.18a8.32 8.32 0 0 0 2.3-.53c.41.37.75.82 1 1.33Zm-1.27-1.57c-.5.18-1.27.4-2.03.44v-.63c.41-.06.81-.2 1.09-.34.33.13.65.31.94.53Zm-1.4-.68c-.19.07-.4.14-.63.17v-.27c.22.02.43.05.63.1Z" fill="#F0F3FA"/></svg>