<!-- by TradingView --><svg width="18" height="18" viewBox="0 0 18 18" xmlns="http://www.w3.org/2000/svg"><path fill="#F0F3FA" d="M0 0h18v18H0z"/><path fill-rule="evenodd" d="M13.69 9.95c.06-.03.09-.1.1-.17a3.64 3.64 0 0 0 0-1.56c-.01-.07-.04-.14-.1-.17A.37.37 0 0 0 13.5 8h-1.88c-.2 0-.37.17-.37.38v1.24c0 .21.17.38.38.38h1.87c.07 0 .13-.02.19-.05Zm-1.03 2.27a.35.35 0 0 0-.1-.54L10.7 10.6a.38.38 0 0 1-.19-.33V7.73c0-.14.08-.27.2-.33l1.93-.97c.2-.1.27-.36.13-.53a4.87 4.87 0 0 0-7.52 0c-.14.17-.08.43.13.53l1.92.97c.13.06.21.19.21.33v2.55c0 .14-.07.26-.19.33l-1.87 1.07a.35.35 0 0 0-.1.54 4.86 4.86 0 0 0 7.32 0ZM4.31 8.05c-.06.03-.09.1-.1.17a3.64 3.64 0 0 0 0 1.56c.01.07.04.14.1.17.06.03.12.05.19.05h1.88c.2 0 .37-.17.37-.38V8.38c0-.21-.17-.38-.38-.38H4.5a.37.37 0 0 0-.19.05ZM9 15A6 6 0 1 0 9 3a6 6 0 0 0 0 12Z" fill="#211F20"/></svg>