<!-- by TradingView --><svg width="18" height="18" viewBox="0 0 18 18" xmlns="http://www.w3.org/2000/svg"><path fill="#F0F3FA" d="M0 0h18v18H0z"/><path d="M4 7.33c0-.25.2-.33.43-.33H7v7H4.76a.77.77 0 0 1-.76-.8V7.34Z" fill="url(#avskqdmjo)"/><path d="M11 7H5.08c-.37 0-.73.28-1.04.48L4 7.5c0-.26.01-.52.14-.74.1-.17.24-.33.38-.46l1.9-1.84c.31-.3.73-.46 1.16-.46h3.2c.12 0 .22.1.22.23V7Z" fill="url(#bvskqdmjo)"/><path d="M11 11V4.9c0-.32-.27-.64-.47-.9h.17c.43 0 .83.18 1.13.49l1.72 1.8c.29.3.45.7.45 1.13V11h-3Z" fill="url(#cvskqdmjo)"/><path d="M7 11h5.95c.36 0 .71-.28 1.01-.48l.04-.02v.5c0 .16-.28.48-.51.7l-1.85 1.84c-.3.3-.7.46-1.12.46H7v-3Z" fill="url(#dvskqdmjo)"/><defs><linearGradient id="avskqdmjo" x1="5.5" y1="7.1" x2="5.5" y2="14" gradientUnits="userSpaceOnUse"><stop stop-color="#B11116"/><stop offset="1" stop-color="#ED1C24"/></linearGradient><linearGradient id="bvskqdmjo" x1="11.2" y1="5.75" x2="4" y2="5.75" gradientUnits="userSpaceOnUse"><stop stop-color="#B11116"/><stop offset="1" stop-color="#ED1C24"/></linearGradient><linearGradient id="cvskqdmjo" x1="12.27" y1="4" x2="12.27" y2="11" gradientUnits="userSpaceOnUse"><stop stop-color="#ED1C24"/><stop offset="1" stop-color="#B11116"/></linearGradient><linearGradient id="dvskqdmjo" x1="7" y1="12.25" x2="14" y2="12.25" gradientUnits="userSpaceOnUse"><stop stop-color="#B11116"/><stop offset="1" stop-color="#ED1C24"/></linearGradient></defs></svg>