<!-- by TradingView --><svg width="18" height="18" viewBox="0 0 18 18" xmlns="http://www.w3.org/2000/svg"><path fill="#F0F3FA" d="M0 0h18v18H0z"/><path d="M6.68 4 9 5.73 4 7.38 6.68 4ZM11.32 4 9 5.73l5 1.65L11.32 4ZM7.33 8.01 4 7.38 9 16 7.33 8.01Z" fill="#F4AF13"/><path d="M10.68 8.01 14 7.38 9 16l1.68-7.99Z" fill="#F4AF13"/><path d="M4 7h10v.33H4V7ZM4 8h10v.33H4V8ZM8.33 9v3H8V9z" fill="#2C233E"/><path d="M11 10.43C11 9.64 10.33 9 9.5 9S8 9.64 8 10.43V12h.33v-1.65c0-.58.53-1.05 1.17-1.05.64 0 1.17.47 1.17 1.05V12H11v-1.57Z" fill="#2C233E"/><path d="M10.33 10.42a.83.83 0 0 0-.83-.82.83.83 0 0 0-.83.82V12H9v-1.6c0-.28.22-.5.5-.5s.5.22.5.5V12h.33v-1.58ZM13.24 9.6a.9.9 0 0 0-.9.9c0 .5.4.9.9.9H14v-.3h-.79c-.3 0-.54-.27-.54-.6 0-.33.24-.6.54-.6h.8v-.3h-.77Z" fill="#2C233E"/><path d="M13.17 9a1.5 1.5 0 0 0 0 3H14v-.3h-.79A1.2 1.2 0 0 1 12 10.5c0-.66.54-1.2 1.21-1.2H14V9h-.83ZM7.33 7v3.33H7V7zM6.67 7v2h-.33V7z" fill="#2C233E"/><path fill-rule="evenodd" d="M5.67 11.33a1 1 0 1 0 0-2 1 1 0 0 0 0 2Zm0-.33a.67.67 0 1 0 0-1.33.67.67 0 0 0 0 1.33Z" fill="#2C233E"/><path d="M6.67 9a1.67 1.67 0 1 0 .33.33v1a1.33 1.33 0 1 1-.33-.88V9Z" fill="#2C233E"/></svg>