<!-- by TradingView --><svg width="18" height="18" viewBox="0 0 18 18" xmlns="http://www.w3.org/2000/svg"><path fill="#F0F3FA" d="M0 0h18v18H0z"/><path d="M9.78 11.3c-.48.87.2 2.16.6 2.7-.3-1.88 2.43-2.42 3.33-3.5.73-.86-.1-2.7-.6-3.5.1.36.18 1.18-.3 1.62-.6.53-2.42 1.61-3.03 2.69Z" fill="url(#a5qzemaxf)"/><path d="M4.82 6.88C5.5 6.2 7 5 8.4 5c1.41 0 1.93.5 2.85.5.73 0 1.34-.17 1.75-.25-.3.58-1.29 1.75-2.76 1.75-1.84 0-2.46-.75-3.68-.75-.85 0-1.45.37-1.74.63Z" fill="url(#b5qzemaxf)"/><path d="M6.43 11.08C4.06 10.15 3.86 7.98 4.06 7c0 1.4 2.96 1.17 4.44 3.2 1.27 1.76-.2 3.41-.89 3.8.6-.58 1.19-1.98-1.18-2.92Z" fill="url(#c5qzemaxf)"/><defs><linearGradient id="a5qzemaxf" x1="13.25" y1="7" x2="10.78" y2="13.93" gradientUnits="userSpaceOnUse"><stop stop-color="#567C47"/><stop offset=".24" stop-color="#359A4C"/><stop offset=".47" stop-color="#96B665"/><stop offset=".69" stop-color="#429E50"/><stop offset="1" stop-color="#369C54"/></linearGradient><linearGradient id="b5qzemaxf" x1="5.63" y1="6.25" x2="12.97" y2="5.5" gradientUnits="userSpaceOnUse"><stop stop-color="#EC5D25"/><stop offset="1" stop-color="#F6971A"/></linearGradient><linearGradient id="c5qzemaxf" x1="6.43" y1="7" x2="6.43" y2="14" gradientUnits="userSpaceOnUse"><stop stop-color="#2692CF"/><stop offset=".51" stop-color="#2656A3"/><stop offset="1" stop-color="#162F69"/></linearGradient></defs></svg>