<!-- by TradingView --><svg width="18" height="18" viewBox="0 0 18 18" xmlns="http://www.w3.org/2000/svg"><path fill="#F0F3FA" d="M0 0h18v18H0z"/><path d="M5.45 12.59a.65.65 0 0 1 0-.91l2.06-2.1H4.64C4.29 9.59 4 9.37 4 9s.29-.59.64-.59h4.31a.64.64 0 0 1 .64.65v4.3c0 .35-.24.64-.59.64s-.59-.29-.59-.64V10.6l-2.06 1.98a.63.63 0 0 1-.9 0Z" fill="#171D35"/><path d="M9 7.24c-.32 0-.59-.3-.59-.67v-1.9c0-.37.27-.67.59-.67.33 0 .59.3.59.66v1.91c0 .37-.26.67-.59.67ZM10.77 9c0-.32.3-.59.66-.59h1.9c.37 0 .67.27.67.59 0 .32-.3.59-.66.59h-1.91c-.37 0-.66-.27-.66-.59Zm-.4-2.3a.66.66 0 0 0 .93.93l1.33-1.33a.66.66 0 1 0-.93-.93L10.37 6.7Zm-.1 3.67a.66.66 0 0 0 0 .93l1.34 1.33a.66.66 0 0 0 .93-.93l-1.34-1.33a.66.66 0 0 0-.93 0ZM6.7 7.63a.66.66 0 1 0 .93-.93L6.3 5.37a.66.66 0 0 0-.93.93L6.7 7.63Z" fill="#ED5B61"/></svg>