<!-- by TradingView --><svg width="18" height="18" viewBox="0 0 18 18" xmlns="http://www.w3.org/2000/svg"><path fill="#F0F3FA" d="M0 0h18v18H0z"/><path d="M5 14V4.71l1-.65.66 6.24 6.54.76c-1.02 1.9-3.57 2.9-4.57 2.94H5Z" fill="#201613"/><path d="M10.22 9.74a3.04 3.04 0 0 0 2.95-3.83c.52.73.83 1.63.83 2.59 0 2.49-2.05 4.5-4.57 4.5H6V4h2.9a3.01 3.01 0 0 0-1.74 2.72 3.04 3.04 0 0 0 3.06 3.02Z" fill="#B11038"/><ellipse cx="10.58" cy="6.01" rx="3.06" ry="3.02" fill="#C11B40"/><ellipse cx="9.9" cy="5.37" rx="2.02" ry="2.01" fill="#D16D6C"/><ellipse cx="9.94" cy="5.39" rx="1.61" ry="1.59" fill="#E4AAA3"/><ellipse cx="9.89" cy="5.39" rx="1.07" ry="1.06" fill="#fff"/></svg>