<!-- by TradingView --><svg width="18" height="18" viewBox="0 0 18 18" xmlns="http://www.w3.org/2000/svg"><path fill="#F0F3FA" d="M0 0h18v18H0z"/><path d="M5 6v6H3.5V7.58H3V6h2Zm0 6v-1.33c.77-.2 1.34-.87 1.34-1.67 0-.8-.57-1.47-1.34-1.67V6c.77 0 1.47.29 2 .76V6h4.5v.7c.47-.44 1.07-.7 1.73-.7.68 0 1.3.27 1.77.72l-.86.84c-.21-.19-.47-.3-.76-.3-.74 0-1.35.78-1.35 1.74s.6 1.74 1.35 1.74c.27 0 .53-.1.74-.28l.88.84c-.47.44-1.1.7-1.77.7-1.5 0-2.7-1.34-2.7-3 0-.77.26-1.47.68-2H10v5H8.5V7H7.24A3 3 0 0 1 5 12Z" fill="#005399"/></svg>