<!-- by TradingView --><svg width="18" height="18" viewBox="0 0 18 18" xmlns="http://www.w3.org/2000/svg"><path fill="#F0F3FA" d="M0 0h18v18H0z"/><path d="M9.03 8.09c-.16 0-.32-.04-.48-.1a.32.32 0 0 1-.12-.12 1.93 1.93 0 0 0-.03-.04h-.03c-.02 0-.03 0-.03.02a.05.05 0 0 0 0 .06l.14.19c.02.02.04.03.07.02.08-.03.16-.01.23.06.01.02.02.04 0 .06a.58.58 0 0 1-.22.26.95.95 0 0 1-.31.14c-.03.01-.05 0-.06-.02l-.35-.68v-.01h-.06v.03c.09.3.22.56.4.77l.04.02h.22c.04 0 .05.02.04.05-.06.13-.19.3-.38.5l-.16.18-.8.01c-.14 0-.26-.01-.38-.04-.06-.1-.07-.2-.03-.29.03-.04.02-.08-.03-.1-.13-.09-.23-.12-.32-.1a3.91 3.91 0 0 1-.43.05.73.73 0 0 1-.17-.17c-.03-.04-.05-.04-.06 0l-.02.1c-.01-.39.05-.77.18-1.13.1-.18.2-.28.3-.3l.54-.07c.03 0 .05 0 .06.04 0 .04.02.09.05.13.01.01.02.03.04.03l.25.15c.02.01.04 0 .06-.02l.04-.07c.02-.03.04-.04.07-.02.14.08.3.1.46.07.04 0 .06-.02.06-.06v-.16c0-.03-.02-.04-.05-.04a.73.73 0 0 1-.24-.01.08.08 0 0 1-.05-.04.2.2 0 0 1-.03-.07c-.02-.13-.07-.15-.16-.06l.02.1c.01.03 0 .04-.03.03-.03 0-.06-.02-.08-.06a.74.74 0 0 0-.35-.39c-.02 0-.04 0-.04.03v.03c0 .02.01.03.03.04l.2.16.01.02v.03c0 .03 0 .03-.02.02a1.34 1.34 0 0 1-.31-.24.08.08 0 0 0-.07-.02c-.17.02-.28.12-.34.3l-.05.05-.05.03h-.15c.05-.17.1-.3.17-.4A3.16 3.16 0 0 1 8.06 5.8c.12-.03.28-.04.5-.04.02 0 .03.01.04.04l.43 2.3Z" fill="url(#a)"/><path d="m11.74 7.31-.08.22c-.03.16-.11.26-.24.3-.06.02-.1 0-.12-.06l-.04-.13c-.02-.07 0-.1.06-.12.22-.06.29-.21.2-.45a.12.12 0 0 0-.06-.06l-.1-.07c-.02-.02-.04-.04-.04-.06 0-.06.02-.09.06-.09.02 0 .03 0 .04.02l.32.5ZM6.17 7.52v-.07l.03-.01.05-.03a.08.08 0 0 0 .05-.05c.06-.18.17-.28.34-.3.03 0 .05 0 .07.02.08.1.19.17.3.24.02.01.03 0 .03-.02v-.03l-.01-.02-.2-.16a.06.06 0 0 1-.03-.04v-.03c0-.03.02-.04.04-.03.16.08.28.2.35.39.02.04.05.06.08.06.03.01.04 0 .03-.03l-.02-.1c.09-.09.14-.07.16.06l.03.07c0 .02.03.03.05.04.09.01.17.02.24 0 .03 0 .05.02.05.05v.16c0 .04-.02.06-.06.06a.68.68 0 0 1-.46-.07c-.03-.02-.05-.01-.07.02l-.04.07c-.02.03-.04.03-.06.02l-.25-.15a.11.11 0 0 1-.04-.03.3.3 0 0 1-.05-.13c0-.03-.03-.05-.06-.04l-.55.08Z" fill="#1162B1"/><path d="M12.08 8.12a4.7 4.7 0 0 0-.2-.54c-.02-.08-.08-.09-.16-.04h-.06l.08-.23c.8-.14 1.68-.19 2.65-.13.52.03.93.14 1.23.34.39.27.48.64.27 1.12a1.6 1.6 0 0 1-.16.3c-.34.46-.72.84-1.15 1.15-.88.64-1.93 1.22-3.14 1.76l-.84.38c-.34.14-.63.26-.86.34a16.88 16.88 0 0 0-.97.4c-.3.06-.3.02-.03-.1.55-.24 1.1-.5 1.65-.78a8.96 8.96 0 0 0 2.3-1.64c.22-.25.39-.52.5-.82.05-.17.08-.33.07-.48 0-.2-.06-.35-.17-.45a2.18 2.18 0 0 0-1.01-.58Z" fill="#AADEEC"/><path d="m6.2 7.44-.03.01v.07c-.09.01-.18.11-.29.3.03-.2.08-.32.17-.38h.15Z" fill="#66E2FC"/><path d="M12.08 8.12c.09.52.08 1.02-.04 1.5 0 .04-.03.04-.05.03-.18-.13-.4-.2-.66-.24-.03 0-.04.01-.03.04l.06.05.15.08.11.13c.07.07.16.08.28.02.02-.01.05 0 .07.01.02.02.02.04.02.07a3.17 3.17 0 0 1-3.74 2.1 3.17 3.17 0 0 1-2.23-1.73l.66-.1c.02 0 .04 0 .05.02l.27.85c.01.02.03.04.06.04.17 0 .3-.05.4-.14.06-.06.13-.17.22-.34a8.23 8.23 0 0 1 .07-.19c-.02-.09.02-.16.09-.2.13-.08.18-.18.15-.3l1.41-.43.02-.01v-.02c0-.02-.01-.03-.03-.02l-1.45.14.16-.18c.2-.2.32-.37.38-.5.01-.03 0-.05-.04-.05h-.22c-.02 0-.03 0-.04-.02-.18-.21-.31-.47-.4-.77v-.03h.06l.35.69c.01.02.03.03.06.02.1-.02.2-.07.31-.14.12-.09.2-.17.23-.26l-.01-.06c-.07-.07-.15-.1-.23-.06-.03 0-.05 0-.07-.02l-.14-.2a.05.05 0 0 1 0-.05c0-.02.01-.02.03-.03l.03.01.03.04c.04.06.08.1.12.11.16.07.32.1.48.1.16.11.26.22.29.34.03.15.09.3.16.44 0 .02.02.02.05.02.02-.01.03-.03.03-.05 0-.2.11-.39.31-.53.06-.04.1-.04.15.02l.27.36a.1.1 0 0 0 .07.04c.06.02.11.06.15.13.01.03.03.04.06.03.03 0 .06-.04.09-.08a.12.12 0 0 0 .01-.1.72.72 0 0 0-.11-.2c-.03-.04-.03-.07 0-.11 0-.03.03-.04.05-.03.24.05.39-.03.45-.25a.77.77 0 0 0-.05-.33 8.54 8.54 0 0 1-.05-.14l-.03-.01c-.03-.02-.04-.04-.02-.07l.05-.02c.09.01.15.06.2.13a.9.9 0 0 1 .1.28c0 .02.01.03.03.02l.33-.1.05-.05a.64.64 0 0 0 .05-.28c.08-.05.14-.04.17.04.07.18.14.36.19.54Z" fill="#1162B1"/><path d="M10.96 8.85c.05.06.08.12.09.18v.05c-.02.04-.03.06-.05.04a.05.05 0 0 1-.02-.03.68.68 0 0 0-.07-.2.42.42 0 0 1-.09-.2v-.04c.02-.04.04-.06.05-.04.02 0 .02.02.03.03a.7.7 0 0 0 .06.2Z" fill="#fff"/><path d="M6.76 9.45c-.36 0-.7-.07-1.01-.19l-.05-.32.02-.1c.01-.04.03-.04.06 0 .05.07.1.12.17.17.01.01.03.02.05.01l.38-.05c.09-.03.2 0 .32.08.05.03.06.07.03.11-.04.09-.03.18.03.29Z" fill="#1162B1"/><path d="m10.34 8.85.15.3v.02l-.02.03c0 .02-.02.02-.03 0a.7.7 0 0 1-.13-.35h.03Z" fill="#fff"/><path d="M9.1 9.07c.01.04.05.06.08.05.03 0 .04-.05.03-.1-.02-.03-.06-.06-.09-.05-.03.01-.04.06-.02.1Z" fill="#AADEEC"/><path d="M5.34 9.1c-.54-.25-.73-.67-.59-1.27a3 3 0 0 1 .87-1.15c.72-.6 1.51-1.1 2.36-1.51a28.5 28.5 0 0 1 2.66-1.14l-.05-.02h-.04c-.72.24-1.6.56-2.63.97a25.35 25.35 0 0 0-3.65 1.79A8.5 8.5 0 0 0 2.75 7.9c-.28.26-.5.54-.64.84a.96.96 0 0 0-.1.35v.37c.13.3.35.51.68.62.36.13.73.2 1.09.2.73.04 1.47 0 2.2-.1l.04-.01.66-.1c.02 0 .04 0 .05.02v-.03l.04-.02L7.9 9.8l.1.02 1.4-.43.02-.01v-.02c0-.02-.01-.03-.03-.02l-1.45.14-.8.01c-.14 0-.26-.01-.38-.04-.36 0-.7-.07-1.01-.19a1.29 1.29 0 0 1-.41-.16Z" fill="url(#b)"/><path d="m10.38 9.33.3-.22c.03-.03.04-.02.04.02a.8.8 0 0 1-.05.33c-.04.06-.09.08-.16.06-.1-.03-.16-.07-.16-.13 0-.02 0-.05.03-.06ZM10.84 9.4l.08-.03c.04-.01.05 0 .03.03l-.09.15c-.01.03-.03.03-.06.01-.03-.02-.03-.05-.02-.1.02-.03.03-.05.06-.06ZM8.37 9.9l-.12.4c0 .02-.01.03-.02.03l-.07.05a.04.04 0 0 1-.05 0 .04.04 0 0 1-.02-.04l.03-.3.01-.03.17-.15c.01-.02.03-.02.05-.01.02.01.03.03.02.05ZM11.42 10.1c.03.12.06.12.12.02a.88.88 0 0 1 .05-.1c.05-.06.06-.05.05.02l-.08.41c-.03.1-.11.22-.25.34a.05.05 0 0 1-.06.01l-.1-.05a.08.08 0 0 0-.07 0l-.4.2c-.02 0-.04 0-.05-.02l-.16-.31c-.02-.06-.01-.1.05-.12l.33-.17a.17.17 0 0 0 .08-.07l.1-.2c.03-.03.06-.04.1-.03.07 0 .14-.04.21-.14a.08.08 0 0 1 .05-.04c.02 0 .04 0 .05.02l.02.02c.02.02.02.05 0 .08-.03.07-.05.11-.04.14Z" fill="#fff"/><defs><linearGradient id="a" x1="6.36" y1="8.54" x2="8.64" y2="7.29" gradientUnits="userSpaceOnUse"><stop offset=".27" stop-color="#E8F5FD"/><stop offset="1" stop-color="#F0F3FA"/></linearGradient><linearGradient id="b" x1="2.71" y1="8.74" x2="8.48" y2="6.32" gradientUnits="userSpaceOnUse"><stop stop-color="#66E2FC"/><stop offset="1" stop-color="#0BD2F9"/></linearGradient></defs></svg>