<!-- by TradingView --><svg width="18" height="18" viewBox="0 0 18 18" xmlns="http://www.w3.org/2000/svg"><path fill="url(#a)" d="M0 0h18v18H0z"/><path d="M8 13V9.79L4.02 7.41 4 7.4V6h.02L9 9.02 8.98 15 4 12v-1.41L8 13s0 .01 0 0ZM13 7.93l-1.5.82v-1.3l2.48-1.44H14V12l-1 .58V7.93Z" fill="#B8BE40"/><path d="m9 4.4 3.36 2.02h.01l1.15-.69L8.99 3l-4.5 2.72 1.15.7h.01l.92-.56L9 4.4Z" fill="url(#b)"/><path d="M9 5.3 6.4 6.87c-.01 0-.01 0 0 0l1.14.7a.01.01 0 0 0 .01 0L9 6.69l1.07.65.39.23 1.16-.7L9 5.3Z" fill="url(#c)"/><path d="m9 8.45.72-.43L9 7.59l-.71.43.71.43Z" fill="url(#d)"/><path d="M4 9.7V8.3l3 1.89v1.4L4 9.7Z" fill="#B8BE40"/><defs><linearGradient id="a" x1="3.35" y1="3.12" x2="21.9" y2="24.43" gradientUnits="userSpaceOnUse"><stop stop-color="#1A1E21"/><stop offset="1" stop-color="#06060A"/></linearGradient><linearGradient id="b" x1="9" y1="3" x2="9" y2="8.45" gradientUnits="userSpaceOnUse"><stop stop-color="#EDDE96"/><stop offset="1" stop-color="#B8BE33"/></linearGradient><linearGradient id="c" x1="9" y1="3" x2="9" y2="8.45" gradientUnits="userSpaceOnUse"><stop stop-color="#EDDE96"/><stop offset="1" stop-color="#B8BE33"/></linearGradient><linearGradient id="d" x1="9" y1="3" x2="9" y2="8.45" gradientUnits="userSpaceOnUse"><stop stop-color="#EDDE96"/><stop offset="1" stop-color="#B8BE33"/></linearGradient></defs></svg>