<!-- by TradingView --><svg width="18" height="18" viewBox="0 0 18 18" xmlns="http://www.w3.org/2000/svg"><path fill="#F0F3FA" d="M0 0h18v18H0z"/><path fill-rule="evenodd" d="M3 14h5.84a5.8 5.8 0 0 0 5.1-4.23L15 4H9.2c-1.35-.04-4.3.87-5.33 4.83L3 14Zm6.78-5h1.2c.37 0 .7-.25.75-.6l.03-.18c.02-.11-.07-.22-.2-.22h-.69l.15-.6c.04-.19.28-.4.48-.4h.26c.32 0 .55-.13.64-.43l.1-.35c.03-.1-.07-.22-.2-.22h-.6c-.93 0-1.73.64-1.88 1.5l-.23 1.3c-.02.1.07.2.2.2Zm-.66 1.05.55-2.84c.02-.09-.12-.21-.2-.21h-.15c-.49 0-.79.04-.87.54L8.36 8h-.58C5.95 8 5.5 10.05 5.5 10.4v.04c0 .4 0 1.56 1.55 1.56 1.3 0 1.72-.6 2.07-1.95ZM7.42 9h.8l-.15 1.15c-.06.5-.4.85-.8.85-.44 0-.8-.2-.8-1 0-.55.5-1 .95-1Zm2.56 2.53h-.7c-.08 0-.15-.1-.13-.2l.2-1.29c.04-.3.25-.51.5-.51h.68c.08 0 .15.1.13.2l-.18 1.28c-.04.3-.25.52-.5.52Z" fill="#D91D2E"/></svg>