<!-- by TradingView --><svg width="18" height="18" viewBox="0 0 18 18" xmlns="http://www.w3.org/2000/svg"><path fill="#F0F3FA" d="M0 0h18v18H0z"/><ellipse cx="9" cy="9.17" rx="6" ry="3.83" fill="url(#aaumay11x)"/><ellipse cx="9" cy="8.83" rx="6" ry="3.83" fill="url(#baumay11x)"/><path d="M6.32 12.27c-.4-.59-1.06-1.6-1.32-2.23-.37-.9-.27-1.92 1.25-3.05.95-.7 2.69-1.45 3.93-1.92l.53.09c-.42.15-1.23.48-2.15 1-1.36.77-2.28 1.68-2.41 2.52-.13.81 1.07 2.56 2.35 3.97a8.69 8.69 0 0 1-2.18-.38Z" fill="#214599"/><path d="m10.98 5.21.52.14c-.74.33-1.86.88-2.53 1.35-1.01.72-1.15 1.38-1.15 1.78 0 .4.14.82.99 1.88.64.8 1.58 1.7 2.05 2.12-.58.12-1.2.19-1.84.19a33.6 33.6 0 0 1-1.73-2.13c-.61-.86-.79-1.4-.79-1.76 0-.36.2-1.34 1.82-2.27a18.83 18.83 0 0 1 2.66-1.3Z" fill="#E9222C"/><path d="M12.21 5.6c-1.7.72-2.62 1.38-2.8 2.57-.13.93 2.08 2.76 3.34 3.66-.43.21-.9.4-1.4.53-1.1-.78-3.14-2.57-3.14-3.93 0-1.37 2.28-2.56 3.5-3.02l.5.18Z" fill="#12994A"/><defs><linearGradient id="aaumay11x" x1="3.09" y1="9.61" x2="14.97" y2="7.35" gradientUnits="userSpaceOnUse"><stop stop-color="#A2A3A5"/><stop offset=".15" stop-color="#F8F8F8"/><stop offset=".45" stop-color="#767C7E"/><stop offset="1" stop-color="#DDDEE0"/></linearGradient><linearGradient id="baumay11x" x1="9" y1="5" x2="9" y2="12.67" gradientUnits="userSpaceOnUse"><stop stop-color="#CBCCCE"/><stop offset=".44" stop-color="#FDFDFD"/><stop offset=".75" stop-color="#BBBDBF"/></linearGradient></defs></svg>