<!-- by TradingView --><svg width="18" height="18" viewBox="0 0 18 18" xmlns="http://www.w3.org/2000/svg"><path fill="#F0F3FA" d="M0 0h18v18H0z"/><path fill-rule="evenodd" d="M6.75 6.8c.1.3.25.8.25 1.24 0 .63-.51 2.21-1.84 2.21-.94 0-1.5-.88-1.5-1.84C3.66 7.46 5.06 5 7.94 5c.96 0 1.7.54 1.95.75.3-.23 1.12-.7 2-.75.06 0 .11.05.11.12 0 .06-.05.11-.11.12a2.4 2.4 0 0 0-1.6.77c.36.37 1.15 1.35 1.15 2.27 0 .2-.02.45-.07.72h.77c.05.02.04.12 0 .15l-.16.04c-.08.01-.1.04-.11.1 0 .04 0 .2.03.46l.1 1.4s.8-1.14 1.14-1.73c.06-.08.07-.12.07-.15 0-.04-.02-.05-.11-.08l-.15-.04c-.04-.04-.03-.13.03-.15h1c.03.04.03.12-.02.15l-.12.03c-.14.03-.21.05-.28.13-.09.1-.31.4-.55.76-.37.54-.73 1.1-1.08 1.64l-.17.25a.28.28 0 0 1-.15.04c-.05 0-.12-.04-.12-.04s-.1-1.54-.17-2.3a2.3 2.3 0 0 0-.03-.32C10.94 10.55 9.9 12 7.13 12H3.31c-.17 0-.31-.15-.31-.32 0-.21.18-.36.37-.32l1.79.41c.46-.12 1.55-.88 2.16-2.59a6.98 6.98 0 0 1 2.36-3.27 4.02 4.02 0 0 0-1.74-.62c-.8 0-3.25.76-3.25 3.3 0 .79.34 1.22.9 1.22.44 0 1.22-.69 1.22-1.95 0-.32-.06-.6-.2-1a.09.09 0 0 1 .03-.1.07.07 0 0 1 .1.04ZM10 6.17c.1.12.31.56.31 1.3 0 .92-.73 4.38-3.57 4.38h-1.2a5.67 5.67 0 0 0 2.86-2.6C9 7.9 9.72 6.64 10 6.18Zm4.33 4.54-.12.17.1.37c.07.3.1.33.13.33.05 0 .15-.15.22-.29.03-.03.1-.03.12.03-.09.32-.28.68-.53.68-.17 0-.25-.16-.3-.36l-.09-.3-.22.31c-.18.26-.32.35-.46.35-.1 0-.18-.09-.18-.23 0-.17.13-.41.23-.41.04 0 .06.06.09.14.02.07.05.08.08.08.01 0 .1-.07.27-.3l.13-.19-.12-.44c-.02-.09-.05-.18-.08-.18-.04 0-.09.03-.2.24-.05.02-.1 0-.11-.06.05-.19.25-.65.54-.65.1 0 .18.1.23.3l.1.35.13-.2c.2-.3.35-.45.52-.45.12 0 .19.13.19.25 0 .21-.09.4-.2.4-.03 0-.06-.05-.08-.1-.01-.07-.04-.12-.1-.12-.04 0-.15.1-.29.28Z" fill="url(#a)"/><defs><linearGradient id="a" x1="9" y1="5" x2="9" y2="12" gradientUnits="userSpaceOnUse"><stop stop-color="#14327B"/><stop offset="1" stop-color="#0C2052"/></linearGradient></defs></svg>