<!-- by TradingView --><svg width="18" height="18" viewBox="0 0 18 18" xmlns="http://www.w3.org/2000/svg"><path fill="#F0F3FA" d="M0 0h18v18H0z"/><path d="M8.24 13.3c2.3 0 4.76-2.14 4.76-4.3 0-2.5-2.52-4.38-5.2-4.38-.37 0-.54.03-.65.09-.1.06-.15.18-.15.38v7.54c0 .66.7.66 1.24.66ZM5 4.3c0-.2.1-.3.3-.3h1.88C10.4 4 14 5 14 9.12c0 2.19-1.76 4.3-4.06 4.8-.3.05-.7.08-1.16.08H5.3c-.2 0-.31-.14-.31-.42 0-.45.33-.3.64-.35.31-.02.36-.26.36-.53V5.2c0-.36-.18-.54-.53-.55h-.21c-.17 0-.25-.11-.25-.35Z" fill="#E31F29"/></svg>