<!-- by TradingView --><svg width="18" height="18" viewBox="0 0 18 18" xmlns="http://www.w3.org/2000/svg"><path fill="#F0F3FA" d="M0 0h18v18H0z"/><path fill-rule="evenodd" d="M11.02 12v-.43h.73c.16 0 .25-.15.25-.36V6.43h-.07L9.83 12h-.69L7.25 6.43h-.68c.58.46 1.04 1.31 1.04 2.62-.02.98-.47 2.95-2.2 2.95H2v-.43h.32c.32 0 .68-.33.68-.74V7.21c0-.4-.36-.74-.68-.74H2V6H9.28v.43h-.7l1.36 3.6 1.46-3.6h-1.08V6h4.86v1.29h-.1c-.05-.37-.28-.86-.68-.86H13v2.14h1.48V8H15v2h-.52v-.57H13v1.78c0 .2.26.36.42.36h1.44L15.5 10H16l-.54 2h-4.44ZM4 7.1c.02-.24.13-.7.44-.7.4 0 1.56.44 1.56 2.46s-.87 2.59-1.56 2.59a.5.5 0 0 1-.44-.53V7.11Z" fill="url(#avt4bkone)"/><defs><linearGradient id="avt4bkone" x1="4.31" y1="13.85" x2="15.91" y2="9.14" gradientUnits="userSpaceOnUse"><stop stop-color="#0B5CB1"/><stop offset=".48" stop-color="#1195E9"/><stop offset=".99" stop-color="#0B5CB1"/></linearGradient></defs></svg>