<!-- by TradingView --><svg width="18" height="18" viewBox="0 0 18 18" xmlns="http://www.w3.org/2000/svg"><path fill="#F0F3FA" d="M0 0h18v18H0z"/><path d="M11.95 3.84c-.38.06-.75 0-1.1-.15a.4.4 0 0 1-.07-.04.3.3 0 0 0-.1-.06 6.43 6.43 0 0 0-5.14.86l-.37.2a1.4 1.4 0 0 0-.2.13c-.08.07-.14.11-.19.13h-.02l-.03.01V4.9l-.02-.03c.34-.38.7-.68 1.11-.91.47-.27 1-.5 1.58-.7 1-.33 2.04-.33 3.1 0 .55.16 1.03.36 1.45.6Z" fill="#FDA727"/><path d="M11.95 3.84c.3.13.51.26.66.37.47.37.95.88 1.44 1.53.1.14.24.43.41.85-.1.07-.2.1-.3.08a.06.06 0 0 1-.04-.04 1.38 1.38 0 0 0-.25-.38c-.12-.13-.29-.37-.5-.72-.1-.15-.18-.27-.26-.34a3.31 3.31 0 0 0-.38-.32.04.04 0 0 0-.04 0 .03.03 0 0 0-.02.03v.04a.3.3 0 0 0-.08.07c.02-.04.02-.06 0-.09a5.73 5.73 0 0 0-.62-.6c-.2-.16-.43-.28-.68-.37-.5-.18-1-.3-1.48-.38-.5-.08-1-.08-1.51 0-.71.1-1.37.28-1.97.57-.22.1-.43.26-.61.48v-.06c0-.03 0-.04-.04-.04a.3.3 0 0 0-.13.07c-.2.19-.42.37-.64.55a1.4 1.4 0 0 0-.34.3 8.66 8.66 0 0 0-1.05 1.92.6.6 0 0 1-.37.34l.01-.04c.11-.48.21-.82.3-1.05.12-.28.25-.53.4-.73.07-.09.13-.17.18-.26.07-.1.13-.19.2-.26l.47-.5.01.03c0 .04 0 .05.01.03h.05l.2-.14c.08-.07.14-.11.2-.14l.36-.19c.08-.04.2-.1.35-.2a6.43 6.43 0 0 1 4.8-.65.3.3 0 0 1 .09.05.4.4 0 0 0 .07.04c.35.16.72.2 1.1.15Z" fill="#E47031"/><path d="M12.59 5a5.1 5.1 0 0 1-1.03.36c-.03 0-.04.02-.04.05 0 .02.02.03.05.04h-.06l-5.13-.02c-.08 0-.1.03-.04.1l.07.03.02.13c-.2-.1-.34-.14-.44-.14-.4 0-.4.05-.03.17.17.06.29.1.37.15a.7.7 0 0 1 .28.3c.1.2.15.44.14.71a33.82 33.82 0 0 0-.01.07 1.08 1.08 0 0 0-.04-.27c-.05-.24-.12-.4-.19-.48a1.19 1.19 0 0 0-.37-.27.21.21 0 0 0-.15 0 3.1 3.1 0 0 1-.73.16l-.6.05V6c.1-.14.19-.28.26-.43.1-.17.18-.3.26-.4.17-.2.35-.38.54-.56.18-.22.39-.38.61-.48.6-.29 1.26-.48 1.97-.58a5.16 5.16 0 0 1 1.5 0c.49.08.98.21 1.49.39.25.09.48.21.68.37.16.13.37.33.62.6.02.03.02.05 0 .09Z" fill="#FA9B5F"/><path d="M5.72 4.62c-.19.18-.37.36-.54.56-.08.1-.17.23-.26.4-.07.15-.16.3-.26.43a3.2 3.2 0 0 0-.37.59 6.43 6.43 0 0 0-.55 1.54c-.02.1-.01.25.02.42l.02.31a2.64 2.64 0 0 0 .03.4c.02.1.02.2 0 .27-.03.12-.05.24-.04.37v1.08l-.15.73a6.41 6.41 0 0 1-.6-3.27c.34-.36.6-.83.8-1.4.17-.44.3-.73.41-.9l.68-1.01c.22-.18.43-.36.64-.56a.3.3 0 0 1 .13-.06c.03 0 .05 0 .04.04v.06ZM14.46 6.59l.07.18.07.22c.03.1.05.19.08.24l.1.25a5.52 5.52 0 0 1-.26 3.94c-.12-.34-.16-.65-.13-.92.03-.19.04-.33.03-.41.06-.24.09-.44.08-.58 0-.2-.04-.22-.12-.03l-.29.71c-.12.32-.23.54-.34.69a3 3 0 0 1-.65.65.07.07 0 0 1-.06 0 .06.06 0 0 1-.04-.03 1.23 1.23 0 0 1-.09-.51c0-.11.04-.28.1-.5a5.06 5.06 0 0 0 .26-1.24c.04-.1.22-.46.55-1.05.12-.22.17-.48.15-.77a1.27 1.27 0 0 0-.14-.47 8.79 8.79 0 0 1-.22-.46 1.28 1.28 0 0 0-.18-.26 4.2 4.2 0 0 1-.06-.07.72.72 0 0 1-.11-.28 1.32 1.32 0 0 0-.35-.65l-.24-.3V4.9c0-.02 0-.03.02-.04h.04c.14.1.26.21.38.33.08.07.16.19.26.34.21.35.38.59.5.72.12.14.2.26.25.38l.05.04c.08.01.18-.01.3-.08Z" fill="#8C4025"/><path d="m12.67 4.94.24.3c.08.14.15.28.21.43.03.07.05.14.06.22l.04.2a2 2 0 0 1-.12 1.24 9.7 9.7 0 0 1-.6.9l-.24.25c-.08.09-.18.22-.3.4-.1.17-.19.29-.25.36a.2.2 0 0 1-.2.08l-1.23-.23c-.15-.19-.23-.34-.23-.48 0-.18 0-.37.03-.55.01-.05.03-.1.07-.13l.49-.35c.17-.12.34-.3.5-.52a.1.1 0 0 0 0-.08.61.61 0 0 0-.1-.28c-.1-.15-.22-.28-.37-.38l-.07-.02c-.04-.02-.05-.07-.03-.16.47.22.7.57.7 1.06 0 .04.01.06.04.08.03.01.06 0 .08-.01a.24.24 0 0 0 .1-.12c.03.03.07.04.11.02.03 0 .05-.02.05-.05a2.54 2.54 0 0 0-.08-1.67c-.03 0-.05-.02-.05-.04 0-.03.01-.05.04-.05.36-.09.7-.2 1.03-.35a.3.3 0 0 1 .08-.07Z" fill="#F88929"/><path d="m4.91 5.14-.68 1.01c-.11.17-.24.46-.4.9-.2.57-.47 1.04-.8 1.4l.12-.75a.6.6 0 0 0 .37-.34c.28-.7.63-1.35 1.05-1.92.06-.09.18-.19.34-.3ZM14.42 10.09a.3.3 0 0 0-.19.2c-.25.69-.65 1.29-1.2 1.79-.1.09-.22.18-.37.27l-.4.24a.98.98 0 0 1-.5.19c-.29 0-.5 0-.63-.05-.22-.06-.21-.1.02-.1.04 0 .14 0 .28-.03.28.02.51 0 .71-.06.08-.56.1-1.11.06-1.65V10.24c0-.1.02-.2.04-.3.03-.11.05-.23.06-.35a.2.2 0 0 1 .03-.08 3.42 3.42 0 0 0 .02-.53c0-.1.02-.22.06-.38l.09-.37c.33-.47.53-.77.6-.9a2.05 2.05 0 0 0 .12-1.23l-.04-.2a.89.89 0 0 0-.06-.23 4.52 4.52 0 0 0-.2-.43c.17.18.28.4.34.65.03.13.06.22.1.28l.07.07c.1.11.15.2.18.26.06.15.14.3.22.46a1.32 1.32 0 0 1 0 1.24c-.34.6-.52.95-.56 1.05a5.06 5.06 0 0 1-.26 1.23c-.06.23-.1.4-.1.5 0 .2.02.37.09.52 0 .02.02.03.04.04l.06-.01a3 3 0 0 0 .65-.65c.1-.15.22-.37.34-.69l.29-.7c.08-.2.12-.19.12.02 0 .14-.02.34-.08.58Z" fill="#B14419"/><path d="M11.51 5.44a279.65 279.65 0 0 1 .08 1.3 10.76 10.76 0 0 1 .06.38c0 .03-.02.05-.05.05a.12.12 0 0 1-.12-.02l-.05-.55a.61.61 0 0 0-.16-.4 1.94 1.94 0 0 0-.6-.39c-.08-.03-.2-.06-.34-.08a2.35 2.35 0 0 1-.19-.04 1.98 1.98 0 0 0-.4-.05H8.6c-.15 0-.3.03-.41.08a.32.32 0 0 0-.05.04 103.4 103.4 0 0 0 0 1.54.5.5 0 0 1 .02.17c-.09.37-.09.76 0 1.15l.76.03c.16 0 .32-.03.47-.09.3-.18.45-.48.44-.88.01-.1.05-.15.12-.18.03-.01.05 0 .05.03a12 12 0 0 1-.05.78c-.02.23 0 .44.04.62.01.06.02.13 0 .23a20.12 20.12 0 0 1-.01 1.09c0 .02-.01.03-.04.03H9.9a.06.06 0 0 1-.05-.04.1.1 0 0 1 0-.07c0-.17 0-.3-.04-.38l-.15-.36a.73.73 0 0 0-.22-.32.96.96 0 0 0-.9-.16 1.04 1.04 0 0 0-.39 0c-.02 0-.03.02-.03.04-.06.84-.05 1.53.01 2.08.03.24.14.5.33.8l.17.1.18.09c.5.13 1.01.2 1.53.2a1 1 0 0 0 .36-.08c.23-.03.43-.11.6-.26.5-.3.74-.76.75-1.37.02-.04.08-.05.15-.01v.35c-.07.3-.1.63-.07.97l-.05.56c0 .05-.03.08-.08.08l-4.95-.02c-.2 0-.45.02-.78.06-.15.02-.29.01-.42-.02.1-.05.2-.09.3-.1.19-.01.36-.08.51-.19.27-.13.4-.45.4-.97V8.83c0-.24 0-.54.03-.91a8.73 8.73 0 0 0-.07-1.6c-.05-.21-.1-.37-.17-.47a.79.79 0 0 0-.44-.3.53.53 0 0 1-.07-.03c-.05-.06-.04-.09.04-.09l5.13.01Z" fill="#FDFDFC"/><path d="m11.57 5.45.02.33c0 .12.01.23.03.33.05.32.06.64.02.97l-.05-.35a279.54 279.54 0 0 0-.08-1.29l.06.01Z" fill="#FBC892"/><path d="M6.43 5.7c.14.04.24.13.3.25A1.96 1.96 0 0 1 6.97 7v4.28c0 .28-.09.55-.25.82-.05.06-.09.1-.12.1-.02 0-.03 0-.04-.02a.04.04 0 0 1 0-.04c.12-.28.18-.6.18-.95a104.55 104.55 0 0 1 .01-4.32c0-.27-.04-.51-.14-.71a.7.7 0 0 0-.28-.3c-.08-.04-.2-.1-.37-.15-.37-.12-.36-.18.03-.17.1 0 .24.05.44.14Z" fill="#A47340"/><path d="m6.66 12.23.06-.12c.16-.27.25-.54.25-.82V7a1.96 1.96 0 0 0-.24-1.07.55.55 0 0 0-.3-.25l-.02-.13c.2.06.35.16.44.29.07.1.12.26.17.47a8.74 8.74 0 0 1 .07 1.6l-.03.9v2.44c0 .52-.13.84-.4.97Z" fill="#FBC892"/><path d="M11.43 6.6a.96.96 0 0 0-.39-.42c-.35-.19-.8-.3-1.35-.34H8.16l.02-.12c.12-.05.26-.08.41-.08h1.15c.16 0 .29.02.4.05l.19.04c.15.02.26.05.34.08.25.11.45.24.6.38.1.1.15.24.16.41Z" fill="#D4CABA"/><path d="m8.18 5.72-.02.12c0 .03.02.06.04.09.1.07.19.12.27.14.3.07.67.12 1.12.16.16.31.12.6-.11.87a.22.22 0 0 1-.1.06.16.16 0 0 0-.06.04 1.5 1.5 0 0 1-.48.32 5.6 5.6 0 0 1-.6.2c-.04.02-.06.05-.06.1l-.03.8c-.09-.39-.09-.78 0-1.15a.5.5 0 0 0-.02-.16 103.4 103.4 0 0 1 0-1.54.32.32 0 0 1 .05-.05Z" fill="#FDE4A2"/><path d="m11.43 6.6.05.55a.24.24 0 0 1-.09.12.07.07 0 0 1-.08 0 .07.07 0 0 1-.04-.07c0-.5-.23-.84-.7-1.06l-.32-.08-.9-.12-1.15-.01a.14.14 0 0 1-.04-.1l1.53.01c.54.04 1 .15 1.35.34.16.08.29.22.4.42Z" fill="#E47031"/><path d="M6.74 8.03c-.9-.12-1.77-.33-2.6-.65 0-.12.02-.22.05-.28a8.92 8.92 0 0 0 .26-.63.76.76 0 0 1 .21-.33l.6-.05c.26-.03.5-.08.73-.16.05-.02.1-.02.15 0 .1.04.23.13.37.27.07.08.14.24.2.48v.04c.02.07.03.15.03.23v1.08ZM9.34 5.94l.52.16.02.02v.02s-.01.02-.03.02l-.26.07c-.45-.04-.82-.1-1.12-.16a.68.68 0 0 1-.27-.14l1.14.01Z" fill="#FBC892"/><path d="M10.57 6.14c-.02.1-.01.14.03.16l.07.02c.15.1.27.23.37.38.06.09.1.18.1.28a.1.1 0 0 1 0 .08c-.16.22-.33.4-.5.52l-.49.35a.2.2 0 0 0-.07.13 3.4 3.4 0 0 0-.03.55c0 .14.08.3.23.48.04.16.11.3.2.43.12.14.18.25.2.32.07.27.05.53-.1.77l-.28.5c-.19.31-.2.65-.02 1.01.02.03.04.05.08.05h.34a1 1 0 0 1-.36.1 5.9 5.9 0 0 1-1.53-.21.59.59 0 0 1-.18-.09 1.2 1.2 0 0 0-.17-.1 1.93 1.93 0 0 0-.14-.47 3.2 3.2 0 0 1-.13-.7 70.9 70.9 0 0 1-.02-1.6c.4 0 .72.11.98.35.14.11.24.26.3.42l.16.5c0 .04.02.05.06.04l.11-.04c.03 0 .05-.02.05-.05l.01-.15a.1.1 0 0 0 0 .07c.02.02.03.03.06.03l.03.01c.03 0 .04 0 .04-.04a20.13 20.13 0 0 0-.03-1.93 10.7 10.7 0 0 0 .05-.78c0-.03-.02-.04-.05-.03-.07.03-.1.09-.12.18-.08-.01-.14 0-.19.05-.03.03-.05.08-.05.16 0 .22-.09.4-.26.55a.06.06 0 0 0-.02.07c.01.03.04.05.08.05-.15.06-.3.1-.47.1-.25 0-.5-.02-.76-.04l.03-.8c0-.05.02-.08.06-.1a4.46 4.46 0 0 0 .6-.2c.2-.1.36-.2.48-.32a.16.16 0 0 1 .06-.04.22.22 0 0 0 .1-.06.71.71 0 0 0 .1-.87l.27-.07c.02 0 .02-.01.03-.02v-.02l-.02-.02-.52-.16c.31.03.62.07.91.12l.32.08Z" fill="#F9BA66"/><path d="M4.66 6v.14c-.1.1-.17.2-.21.33l-.09.26-.17.37a.71.71 0 0 0-.06.28c-.08.17-.13.36-.15.58-.07.14-.1.3-.07.45 0 .03.02.05.03.07a4 4 0 0 1 .53.73c.26.45.46.85.62 1.2.1.23.14.47.1.74-.04.31-.2.48-.46.5-.13.02-.3.01-.49-.01a1.7 1.7 0 0 0-.47-.65V9.91c0-.13 0-.25.04-.37a.64.64 0 0 0 0-.27 1.95 1.95 0 0 1-.03-.4c0-.13 0-.24-.02-.3a1.14 1.14 0 0 1-.02-.43c.1-.5.29-1.01.55-1.54.11-.23.23-.43.37-.6Z" fill="#E47031"/><path d="M4.13 7.38c.84.32 1.71.53 2.6.65l.02-.04c-.02 1.07-.03 2.14-.01 3.21 0 .35-.06.67-.18.95v.04l.04.02c.03 0 .07-.04.12-.1l-.06.12a.97.97 0 0 1-.51.19c0-.81-.05-1.62-.16-2.41-.03-.29-.1-.52-.18-.69-.1-.2-.26-.37-.46-.49l-.92-.5c-.16-.08-.31-.2-.45-.37.02-.22.07-.41.15-.58Z" fill="#F79D53"/><path d="M9.82 7.68c.01.4-.14.7-.44.88-.04 0-.07-.02-.08-.05 0-.03 0-.05.02-.07a.72.72 0 0 0 .26-.55c0-.08.02-.13.05-.16.05-.05.1-.06.19-.05Z" fill="#A47340"/><path d="M3.98 7.96c.14.16.29.29.45.37l.92.5c.2.12.35.28.46.5.08.16.15.4.18.68.11.8.16 1.6.16 2.41-.1.01-.2.05-.3.1a.2.2 0 0 0-.15.02c-.02.02-.03.04-.02.07.04.1.1.15.21.15.56 0 .93.02 1.1.04-.1.04-.12.09-.1.12.17.24.4.42.7.53-.18.14-.37.24-.59.31a3.93 3.93 0 0 1-.8-.45A27.72 27.72 0 0 0 5 12.34a3.3 3.3 0 0 1-.66-.66.04.04 0 0 0-.03-.01.04.04 0 0 0-.03.02l-.01.04-.02-.1c.2.03.36.04.49.03.26-.03.42-.2.46-.51.04-.27 0-.51-.1-.75-.16-.34-.36-.74-.62-1.19a4 4 0 0 0-.53-.73.13.13 0 0 1-.03-.07.72.72 0 0 1 .07-.45ZM12.5 8.23a8.2 8.2 0 0 1-.1.37c-.03.16-.05.28-.04.38a3.42 3.42 0 0 1-.03.53.2.2 0 0 0-.03.08c0 .12-.03.24-.06.35-.02.1-.04.2-.04.3v.3c-.07-.04-.13-.03-.15.01a.67.67 0 0 0-.38.22c-.02.02-.02.04 0 .07l.03.03c.02.02.02.05.01.08a2.8 2.8 0 0 1-.09.25c-.12.22-.26.44-.41.64-.02.02-.02.05 0 .06.02.02.05.03.09.02-.17.15-.37.23-.6.26l-.34-.01a.08.08 0 0 1-.08-.05c-.17-.36-.17-.7.02-1.01l.29-.5c.14-.24.16-.5.09-.77a1.1 1.1 0 0 0-.2-.32c-.09-.13-.16-.27-.2-.43l1.22.23a.2.2 0 0 0 .21-.08l.25-.35a3.82 3.82 0 0 1 .54-.66Z" fill="#F28842"/><path d="M9.85 10.17h-.01c-.04-.18-.1-.36-.18-.53a.3.3 0 0 0-.1-.11.24.24 0 0 1-.05-.06c-.17-.24-.35-.39-.52-.42l-.45-.1c.35-.1.65-.04.9.16.1.07.16.18.22.32l.15.36c.03.09.05.21.04.38Z" fill="#D4CABA"/><path d="M8.18 8.95v.15c0 .51 0 1.04.02 1.6a3.2 3.2 0 0 0 .12.7c.07.15.12.3.14.47-.19-.3-.3-.56-.33-.8-.06-.55-.07-1.24-.01-2.08 0-.02 0-.04.03-.04h.03Z" fill="#FDE4A2"/><path d="m8.54 8.95.45.1c.17.03.35.18.52.42l.05.06a.3.3 0 0 1 .1.11c.08.17.14.35.18.53l-.01.15c0 .03-.02.04-.05.05l-.11.04c-.04 0-.06 0-.06-.04l-.17-.5a.98.98 0 0 0-.29-.42c-.26-.24-.59-.35-.98-.35v-.15c.13-.02.25-.02.37 0Z" fill="#A47340"/><path d="M14.42 10.09c0 .08 0 .22-.03.41-.03.27.01.58.12.92l-.3.59c-.13.22-.24.4-.36.56-.15.2-.34.42-.57.69-.07.08-.18.18-.34.3l-.07.05c-.7.5-1.22.81-1.58.96-.73.3-1.5.44-2.31.43-1.19 0-2.23-.3-3.12-.88a5.6 5.6 0 0 1-1.93-1.82 1.28 1.28 0 0 1-.17-.28l-.14-.3.15-.73c.22.19.37.4.47.65l.02.09.25.59c.11.27.21.46.3.57a4.5 4.5 0 0 0 2.12 1.4c.3.1.6.18.88.23.57.08 1.15.1 1.74.08a3.9 3.9 0 0 0 1.4-.33c.37-.12.75-.3 1.13-.5.35-.2.65-.46.91-.78a5.18 5.18 0 0 0 .62-.99c.05-.18.01-.2-.12-.06a9.8 9.8 0 0 1-.7.66c-.24.14-.47.3-.68.47-.21.16-.37.27-.47.32-.16.08-.33.15-.54.2-.05.01-.1 0-.14-.05a.83.83 0 0 1-.13-.3 2.43 2.43 0 0 1-.04-.4c0-.02-.02-.04-.04-.04a1.14 1.14 0 0 0-.44 0 19.61 19.61 0 0 0-4.42-.04c-.1 0-.17-.06-.2-.16-.02-.02-.01-.04.01-.06a.2.2 0 0 1 .15-.02c.13.03.27.04.42.02.17.03.33.05.5.05a145.75 145.75 0 0 0 3.8 0l.86.01-.28.03c-.23 0-.24.04-.02.1.14.04.34.06.62.05.16 0 .33-.07.5-.2l.4-.23c.16-.09.28-.18.38-.27.55-.5.95-1.1 1.2-1.8a.3.3 0 0 1 .2-.2Z" fill="#CA7A4B"/><path d="M12.05 10.55a1.5 1.5 0 0 1-.75 1.37c-.04 0-.07 0-.09-.02-.02-.01-.02-.04 0-.06.15-.2.29-.42.41-.64l.1-.25c0-.03 0-.06-.02-.08l-.03-.03c-.02-.03-.02-.05 0-.07.1-.12.23-.19.38-.22Z" fill="#B14419"/><path d="m12.14 12.54-.01-.68c-.03-.34 0-.66.07-.97.04.54.02 1.09-.06 1.65Z" fill="#CA7A4B"/><path d="m7 13.76.29.19a3.29 3.29 0 0 1-1.59-.8 5.27 5.27 0 0 0-.48-.35c-.2-.13-.23-.1-.1.1.2.3.58.6 1.15.9a5.06 5.06 0 0 0 3.35.65l1.34-.18c-.45.2-.92.3-1.4.33-.6.03-1.18 0-1.75-.08a7.1 7.1 0 0 1-1.71-.59 4.5 4.5 0 0 1-1.3-1.04 3 3 0 0 1-.29-.57 22 22 0 0 0-.25-.6v-.03l.04-.02.03.01c.2.25.41.47.66.66a28.6 28.6 0 0 1 1.21.97c.16.13.43.28.8.45Z" fill="#F79D53"/><path d="m12.13 11.86.01.68c-.2.06-.43.08-.7.06a42.38 42.38 0 0 1-1.72-.01H6.77c-.17 0-.33-.02-.5-.05.33-.04.58-.06.78-.06 1.65 0 3.3 0 4.95.02.05 0 .08-.03.08-.08l.05-.56Z" fill="#D4CABA"/><path d="m10.96 14.27-1.34.19a5.07 5.07 0 0 1-3.35-.65 3.22 3.22 0 0 1-1.15-.9c-.13-.2-.1-.24.1-.1.15.09.31.2.48.34a3.29 3.29 0 0 0 1.59.8c.73.18 1.4.24 2.02.18.8-.09 1.6-.33 2.42-.74.36-.18.71-.44 1.06-.8.26-.21.5-.43.7-.66.13-.13.17-.1.12.07a5.18 5.18 0 0 1-.62.99c-.26.32-.56.58-.91.77-.38.22-.76.39-1.12.5Z" fill="#F9BA66"/><path d="M12.79 12.6c-.35.35-.7.61-1.06.8-.81.4-1.62.64-2.42.73a5.8 5.8 0 0 1-2.02-.18L7 13.76c.22-.07.41-.17.59-.3a10 10 0 0 0 1.32.11c.42 0 .77-.07 1.05-.21a.6.6 0 0 0 .35-.57c.12-.02.27-.02.44 0 .02.01.04.03.04.06a94.3 94.3 0 0 1 .04.4c.03.1.07.2.13.29.04.05.09.06.14.05.2-.05.38-.12.54-.2.1-.05.26-.16.47-.32.21-.17.44-.33.68-.47Z" fill="#D99443"/><path d="M10.3 12.8a.6.6 0 0 1-.34.56c-.28.14-.63.21-1.05.21-.31 0-.75-.04-1.32-.12-.3-.1-.53-.29-.7-.53-.02-.03 0-.08.1-.12.28-.03.57-.05.87-.05a73.31 73.31 0 0 1 2.45.04Z" fill="#F9BA66"/></svg>