<!-- by TradingView --><svg width="18" height="18" viewBox="0 0 18 18" xmlns="http://www.w3.org/2000/svg"><path fill="#F0F3FA" d="M0 0h18v18H0z"/><path fill-rule="evenodd" d="M7.81 7.68c-.02 0-.03.04-.02.06.25.27.47.56.68.89.1.14.14.3.16.5.05.55-.03 1.06-.23 1.52a.63.63 0 0 1-.36.33c-.47.2-.97.36-1.48.47a.88.88 0 0 0-.63.47c-.06.11-.02.2.11.27.42.22.97-.15 1.26-.45l.15-.16c.15-.15.24-.25.4-.29.08-.01.12.02.12.1v.37c.01.16.12.19.23.22.07.02.14.04.19.09.12.12.19.17.36.2.07.01.13.04.18.08.16.12.2.13.4.1.13-.04.37.09.33.27-.02.12-.06.24-.2.27-.13.02-.28.03-.4-.08-.1-.1-.23-.12-.36-.13a.8.8 0 0 1-.35-.1c-.1-.07-.18-.11-.26-.15-.15-.08-.28-.14-.44-.31a.1.1 0 0 0-.14 0l-.55.44c-.3.24-.61.35-.93.32-.74-.06-.83-.91-.53-1.46.12-.2.17-.28.4-.36.51-.16 1-.33 1.45-.5.32-.13.53-.37.64-.72.01-.06-.04-.11-.1-.1a.48.48 0 0 0-.16.06c-.66.48-1.34.81-2.04 1.01a.94.94 0 0 1-.4.03.1.1 0 0 1-.05-.03.1.1 0 0 1-.02-.06c-.02-.21.05-.37.2-.47.04-.03.18-.07.41-.11.35-.07.68-.22 1-.45.4-.28.72-.56.96-.82.11-.12 0-.4-.16-.26-.51.45-.83.7-.95.75l-.86.43c-.11.06-.22.1-.34.11-.04 0-.08 0-.1-.03a.16.16 0 0 1-.07-.1c-.04-.32.12-.44.38-.57a7.04 7.04 0 0 0 1.4-.9c.1-.08.18-.19.22-.33.03-.09 0-.2-.1-.23-.07-.01-.13 0-.18.06-.36.38-.72.68-1.2.83l-.53.18c-.3.1-.4-.3-.2-.44.07-.06.4-.27 1-.62.14-.09.13-.15-.04-.17l-.1-.01c-.13-.02-.33-.04-.46-.11-.21-.14-.29-.72-.3-1.02a4.55 4.55 0 0 0-.1-.78.86.86 0 0 1 0-.3c.05-.33.24-.5.55-.49 1.21 0 2.06.03 2.71.06.2 0 .38.08.53.23.06.05.1.17.11.37 0 .34-.04 1.07-.25 1.63-.07.2-.2.37-.43.36-.16 0-.28 0-.5.03ZM7.53 5.7c.12.02.25 0 .38 0 .09-.02.17-.03.26-.03a.1.1 0 0 1 .07.04c.07.08.13.17.17.27.03.07-.01.17-.08.16a29.7 29.7 0 0 0-1.45-.04c-.28 0-.57.06-.84.12l-.29.06-.1-.01c-.03-.02-.04-.08-.01-.11.26-.33.56-.5.9-.52.41-.01.74 0 1 .06ZM6.16 7.19c.24.03.47.03.7 0l.41.03c.26.02.54.05.73-.06a4.31 4.31 0 0 0 .41-.3.14.14 0 0 0 0-.11.1.1 0 0 0-.03-.04.48.48 0 0 0-.3-.1c-.46-.02-1.08 0-1.87.08a.92.92 0 0 0-.56.22l-.02.04a.11.11 0 0 0 0 .08l.03.03c.14.1.27.1.41.12h.1Z" fill="#C81628"/><path fill-rule="evenodd" d="M10.8 6.86c.07-.03.19-.04.35-.04.04 0 .05.02.03.06a1 1 0 0 1-.1.18.73.73 0 0 0-.12.24l-.02.17c0 .1 0 .22-.06.3a.42.42 0 0 1-.44.2c-.07-.02-.14-.06-.2-.1l-.07-.05h-.04a.06.06 0 0 0-.03.02c-.05.1-.08.19-.1.29-.08.28.09.52.35.49.16-.02.3-.04.4-.07.13-.03.27 0 .25.18-.02.2-.01.36.04.47.06.17.04.34.01.49 0 .04-.03.06-.07.07a1.2 1.2 0 0 1-.54 0 .1.1 0 0 1-.05-.05l-.07-.13c-.07-.14-.14-.28-.33-.21a.1.1 0 0 0-.06.05c-.1.22-.08.76-.05 1.02.04.52.13.98.6 1.18.24.1.5.11.76.13l.2.01c.22.02.44-.01.66-.1.19-.08.32-.15.37-.4l.04-.29.26-1.52c.01-.1-.05-.18-.14-.19l-.2-.01c-.04 0-.07.02-.07.06a.75.75 0 0 1-.14.35c-.1.13-.4.1-.6.07a9.82 9.82 0 0 0-.1-.03.17.17 0 0 1-.04-.2l.04-.08c.06-.09.13-.2.11-.28a1.46 1.46 0 0 1-.02-.55c.01-.08.06-.12.13-.12l.78.05c.12 0 .21-.1.3-.2l.15-.16.03-.02V8.1c-.03-.16-.11-.23-.25-.22-.23.02-.41 0-.54-.04a.5.5 0 0 0-.18-.03h-.07c-.1.02-.22.03-.28-.02-.06-.06-.14-.19-.07-.27.06-.07.1-.15.08-.23a.08.08 0 0 0-.04-.07c-.13-.08-.27-.17-.28-.33 0-.05.02-.07.05-.06l1.14.07c.13 0 .14-.12.14-.24 0-.05 0-.1.02-.13.1-.3.15-.58.19-.83.01-.15 0-.53-.18-.57a5.45 5.45 0 0 0-2.2-.04c-.1.02-.25.07-.43.15-.1.05-.21.02-.32 0-.1-.03-.2-.06-.3-.02-.28.12-.15.81.22.72l.4-.08c.09 0 .17-.02.25-.04.15-.03.3-.04.46-.03a16 16 0 0 0 1.28-.09c.08 0 .16.04.25.14l.02.03v.04c-.05.12-.13.18-.26.19l-1.61.18c-.22.03-.78.2-.96.3-.18.1-.27.27-.25.52.06 1.15.06 2.14-.01 2.95a8.6 8.6 0 0 1-.23 1.37.87.87 0 0 0-.04.3c.02.14.13.3.27.28.08-.01.15-.1.15-.2v-.05c0-.12 0-.2.02-.3.19-.83.3-1.42.34-1.78a18.85 18.85 0 0 0 .06-2.3c.17-.34.4-.38.64-.43.1-.02.2-.04.31-.08Zm1.58 3.56c0-.05-.06-.09-.13-.09l-1.9.08c-.07 0-.12.04-.12.09v.01c0 .07.03.13.07.2.14.19.44.3.73.29l.63-.03c.3 0 .58-.14.68-.34a.37.37 0 0 0 .04-.2v-.01Z" fill="#C81628"/><path fill-rule="evenodd" d="M13.54 4.33H4.46a.13.13 0 0 0-.13.13v9.08c0 .07.06.13.13.13h9.08c.07 0 .13-.06.13-.13V4.46a.13.13 0 0 0-.13-.13ZM4.5 4a.5.5 0 0 0-.5.5v9c0 .27.23.5.5.5h9a.5.5 0 0 0 .5-.5v-9a.5.5 0 0 0-.5-.5h-9Z" fill="#C81628"/></svg>