<!-- by TradingView --><svg xmlns="http://www.w3.org/2000/svg" width="18" height="18"><path fill="#0093DD" d="M0 0h18v18H0z"/><path d="M11.16 4H7.04l-.38 1.25-.23.75h1.59c1.2.06 3.02-.59 3.14-2zm-.93 2.64l-.08.25h1.04c1.27 0 2.42-.64 3.23-1.59h.01A3.4 3.4 0 0115 7.32a3.1 3.1 0 01-.76 1.9 4.26 4.26 0 00-2.9-1.4l-1.47.01-.06.23h.15c1.29-.05 3 .53 3.6 1.78-.46.31-.99.58-1.53.7-.29-1.26-1.84-1.91-2.98-2.08H4.22l.72-2.24h4.28c1.22-.15 2.67-.86 2.88-2.19.54 0 1.17.28 1.6.58-.58 1.4-2.1 1.85-3.47 2.02zm-5.54 5.07c.27-.88.54-1.75.82-2.71h2.77c1.21.04 2.77.28 3 1.6H9.1l-.34 1.13c-.23.76-.45 1.53-.74 2.27H4v-.06l.69-2.23z" fill="#fff"/></svg>