<!-- by TradingView --><svg width="18" height="18" viewBox="0 0 18 18" xmlns="http://www.w3.org/2000/svg"><path fill="#F0F3FA" d="M0 0h18v18H0z"/><path fill-rule="evenodd" d="M9 14A5 5 0 1 0 9 4a5 5 0 0 0 0 10Zm2.65-7.93.35.24C11.44 7.54 9.77 10 7.54 10 7.02 10.02 6 9.68 6 8.1 6 6.15 7.34 5 8.57 5c.98 0 1.18.78 1.16 1.16-.04.57-.66 1.76-2.86 1.95 0 .42.2 1.24.98 1.24.97 0 2.02-.6 3.8-3.28ZM6.9 7.62c.16-.71.69-2.12 1.55-2.12.16 0 .48.1.48.56 0 1.05-1.35 1.47-2.03 1.56Zm4.25.71c-.3 0-.4.3-.4.45.24-.08.36-.06.5-.03.08.01.16.03.28.03.27 0 .38-.3.4-.45-.2.12-.3.1-.44.05-.09-.02-.19-.05-.34-.05Z" fill="#3D2EC5"/><path opacity=".5" fill="#F0F3FA" d="M6 10h6v2H6z"/></svg>