<!-- by TradingView --><svg width="18" height="18" viewBox="0 0 18 18" xmlns="http://www.w3.org/2000/svg"><path fill="#F0F3FA" d="M0 0h18v18H0z"/><path d="M15 11H3v-.32C3 7.54 5.7 5 9 5s6 2.54 6 5.68V11Z"/><path d="M14.83 10.83v-.16c0-3.04-2.6-5.5-5.83-5.5-3.22 0-5.83 2.46-5.83 5.5v.16h11.66Z" fill="url(#azm3ybany)"/><path d="M10.21 9.97c-.04.14.02.74.06 1.03H6.83v-.4c0-.14.35-.48.53-.63h.42c.22 0 .42-.31.45-.4.02-.07-.07-.22-.12-.28l-.14.17c-.02-.26-.3-.35-.3-.49s.05-.23.1-.34c-.6.2-1.43 1.2-1.82 1.68l-.05-.08-.14.2-.09-.12a.77.77 0 0 1-.22.2c-.07.03-.14-.08-.17-.14-.03.05-.1.14-.2.14.07-.2-.02-.33-.08-.37L6.32 8.7l-.05-.06-.31.26h-.11a5 5 0 0 1 .47-.52c-.2.02-.53.18-.67.26-.04-.06-.13-.17-.2-.17 1.26-.57 2-1.32 2.27-1.52.28-.2 1.23-.45 1.4-.54.17-.09.09-.8.76-.8.3 0 .7.34.7.46 0 .09-.06.19-.09.23 0-.06-.02-.18-.13-.18-.14 0-.34.15-.34.29 0 .14.17.49.17.89 0 .54-.41.81-.62.88l-.42.46c.08.07.25.23.25.34 0 .12-.18.24-.28.29.11.15.36.47.45.51.11.06.22-.2.3-.4.19.07.44.26.54.34a.51.51 0 0 0-.2.26Z" fill="url(#bzm3ybany)"/><defs><linearGradient id="azm3ybany" x1="9" y1="5.17" x2="9" y2="10.83" gradientUnits="userSpaceOnUse"><stop stop-color="#F8F63B"/><stop offset="1" stop-color="#FF5B25"/></linearGradient><linearGradient id="bzm3ybany" x1="7.74" y1="5.6" x2="7.74" y2="11" gradientUnits="userSpaceOnUse"><stop stop-color="#423851"/><stop offset="1" stop-color="#241E20"/></linearGradient></defs></svg>