<!-- by TradingView --><svg width="18" height="18" viewBox="0 0 18 18" xmlns="http://www.w3.org/2000/svg"><path fill="#F0F3FA" d="M0 0h18v18H0z"/><path d="M12.43 10.67A3.77 3.77 0 0 1 9 13a3.77 3.77 0 0 1-3.43-2.33h.94a3 3 0 0 0 4.98 0h.94Zm.07-3.17A3.78 3.78 0 0 0 9 5a3.78 3.78 0 0 0-3.5 2.5h.9a3 3 0 0 1 5.2 0h.9Z" fill="#D9B766"/><path d="M8.49 8.25a.06.06 0 0 1 .08.01l.34.46c.02.03.02.06 0 .09a.06.06 0 0 1-.09-.02l-.34-.45a.06.06 0 0 1 0-.09Zm1 0a.06.06 0 0 0-.09.01l-.34.46a.06.06 0 0 0 0 .09c.03.02.07.01.09-.02l.34-.45a.06.06 0 0 0 0-.09Zm-.92 1.49a.06.06 0 0 1-.08 0 .06.06 0 0 1-.01-.08l.34-.45a.06.06 0 0 1 .08-.02c.03.03.03.06.01.09l-.34.46Zm.91 0a.06.06 0 0 1-.08 0l-.34-.46a.06.06 0 0 1 0-.09.06.06 0 0 1 .09.02l.34.45c.02.03.02.07 0 .09Zm-1.34-.8c-.03 0-.05.03-.05.06s.02.06.05.06h.5c.03 0 .06-.03.06-.06s-.03-.06-.06-.06h-.5ZM9.3 9c0-.03.03-.06.06-.06h.5c.03 0 .05.03.05.06s-.02.06-.05.06h-.5c-.03 0-.06-.03-.06-.06Zm-.3.11c.06 0 .1-.05.1-.11a.11.11 0 0 0-.1-.11c-.06 0-.1.05-.1.11s.04.11.1.11ZM11 8v2h2.21c.32-.54.84-.96 1.06-1H16V8h-5ZM7 8v2H4.79c-.32-.54-.84-.96-1.06-1H2V8h5Z" fill="#1D2087"/></svg>