<!-- by TradingView --><svg width="18" height="18" viewBox="0 0 18 18" xmlns="http://www.w3.org/2000/svg"><path fill="#2BA739" d="M0 0h18v18H0z"/><path d="M9.9 9.57c-.6.08-1.47.03-1.83 0 .1-.12.33-.39.33-.55 0-.16-.17-.3-.25-.36-.13-.1-.4-.39-.4-.73 0-.35.16-.58.24-.66l.28-.24h-.01l.67-.57h.01L11.82 4C11 5.1 9.36 7.36 9.36 7.63c0 .26.18.49.27.56.16.17.47.57.47.83a.9.9 0 0 1-.2.55ZM3 9.46a4.53 4.53 0 0 1 3.22-1.82c-.27.17-.8.65-.8 1.25 0 .74 1.01 1.33 3.48 1.33 1.97 0 3.94-.61 4.68-.92-.57.54-2.41 1.61-5.14 1.61-3.42 0-4.27-.95-4.5-1.45H3ZM5.4 14l2.04-3H8.7l-3.3 3Zm7.18-5.9c0-.55-.8-1-2.74-1.08l.38-.57c2.87.1 3.63.8 3.84 1.19H15a4.79 4.79 0 0 1-3.22 1.47c.27-.14.8-.53.8-1.02Zm-8.16-.35A8.7 8.7 0 0 1 8.7 6.47l-.68.58c-1.58.13-3 .5-3.6.7Z" fill="#fff"/></svg>