<!-- by TradingView --><svg width="18" height="18" viewBox="0 0 18 18" xmlns="http://www.w3.org/2000/svg"><path fill="#F0F3FA" d="M0 0h18v18H0z"/><path d="M8.54 4.9c.42.68.5 1.41.18 1.64-.32.22-.92-.15-1.34-.83-.42-.69-.5-1.42-.18-1.64.32-.23.92.14 1.34.83ZM9.46 6.38c-.42.68-.5 1.41-.18 1.64.32.22.92-.15 1.34-.83.42-.69.5-1.42.18-1.65-.32-.22-.92.15-1.34.84ZM8.54 10.81c.42.69.5 1.42.18 1.65-.32.22-.92-.15-1.34-.84-.42-.68-.5-1.41-.18-1.64.32-.22.92.15 1.34.83ZM9.46 12.3c-.42.68-.5 1.41-.18 1.63.32.23.92-.14 1.34-.83.42-.68.5-1.41.18-1.64-.32-.22-.92.15-1.34.83ZM8.54 7.85c.42.69.5 1.42.18 1.65-.32.22-.92-.15-1.34-.83-.42-.69-.5-1.42-.18-1.65.32-.22.92.15 1.34.83ZM9.46 9.33c-.42.69-.5 1.42-.18 1.65.32.22.92-.15 1.34-.83.42-.69.5-1.42.18-1.65-.32-.22-.92.15-1.34.83Z" fill="#DC890D"/></svg>