<!-- by TradingView --><svg width="18" height="18" viewBox="0 0 18 18" xmlns="http://www.w3.org/2000/svg"><path fill="#F0F3FA" d="M0 0h18v18H0z"/><path d="M10.28 5.17c0 .14-.1.05-.08.1 0 .03.02.06.04.08l.61.56.04.02h.03l.52-.18.02-.02V5.7l-.01-.01s-1.45-.3-1.17-.51c.81 0 2.1.8 2.8 1.43.12.1.24.26.35.44.06.1.17.25.33.42.1.11.24.21.38.2h1.67c.08.01.18.05.19.15v2.41c.01.11-.05.11-.11.11h-.9c-.6 0-1 0-1.33.49-.28.4-.46.65-.84.91-.68.49-1.31.85-1.9 1.08-.15.06-.36.1-.63.13-.7.06-1.3.08-1.75.04a6.7 6.7 0 0 1-2.42-.63 6.42 6.42 0 0 1-1.66-1.34c-.12-.14-.18-.28-.26-.45-.07-.16-.18-.23-.33-.23H2.1c-.03 0-.05-.03-.07-.05A.14.14 0 0 1 2 10.2V7.76c0-.02 0-.04.02-.05.01-.02.03-.04.05-.04h1.6a1 1 0 0 0 .39-.1.15.15 0 0 0 .06-.06 4.8 4.8 0 0 1 2.62-2.1c1-.35 1.98-.47 2.96-.38.18.02.4.02.58.14Z" fill="#E7DB59"/><path d="m8.5 5.22-.57.87c0 .01 0 .02-.02.02H7.9L7.25 6s-.02 0-.02-.02l-.02-.02v-.03l.02-.02.72-.65.02-.01.49-.1h.02l.02.03a.05.05 0 0 1 0 .05ZM8.72 5.15h.5l.04.01a.1.1 0 0 1 .03.04l.54.81a.11.11 0 0 1 .01.11.1.1 0 0 1-.03.04.09.09 0 0 1-.05.02H8.17l-.04-.02a.1.1 0 0 1-.04-.04.11.11 0 0 1 0-.11l.56-.82a.1.1 0 0 1 .03-.03h.04ZM9.95 5.23l.78.7.01.01v.04h-.02l-.69.13h-.01L10 6.1l-.6-.89a.03.03 0 0 1 0-.04h.02l.01-.01.5.06h.02ZM10.22 5.23l.98.32.25.13.01.01v.04l-.02.02-.52.18h-.03c-.02 0-.03 0-.04-.02l-.61-.56a.14.14 0 0 1-.04-.08c-.02-.05 0-.06.03-.04ZM7.73 5.32l-.66.61-.02.01h-.02l-.55-.21-.02-.02a.05.05 0 0 1 0-.05l.02-.02 1.2-.4h.04l.02.02v.03l-.01.03ZM6.24 5.79l.66.24.01.01.01.01v.03l-.54.55-.02.01h-.01l-.84-.36-.01-.01a.03.03 0 0 1 0-.04l.72-.44a.03.03 0 0 1 .02 0ZM12.39 6.28l-.8.36h-.03l-.54-.56-.01-.01a.04.04 0 0 1 0-.03l.02-.01.68-.24a.03.03 0 0 1 .02 0l.66.43.01.01a.04.04 0 0 1 0 .04l-.01.01ZM7.07 6.08l.73.15.01.01.02.02a.05.05 0 0 1 0 .04l-.35.62-.02.02h-.02l-.9-.23-.02-.01-.01-.02v-.04l.52-.55.02-.01h.02ZM11.4 6.71l-.9.23h-.02l-.03-.03-.34-.6a.05.05 0 0 1 0-.07h.03l.71-.16h.02l.02.02.52.53.01.02v.05l-.03.01ZM8.97 6.32a7.85 7.85 0 0 0 1-.05l.03.05.32.57c.03.06.02.09-.04.1-.5.06-.94.1-1.32.1-.37 0-.8-.04-1.3-.1-.07-.02-.09-.05-.05-.1l.32-.58a.1.1 0 0 1 .04-.04 7.87 7.87 0 0 0 1 .05ZM4.37 7.54a3.65 3.65 0 0 1 .99-1.16h.04l.82.37v.04l-.7.82a.15.15 0 0 1-.12.06h-.96c-.09 0-.11-.04-.07-.13ZM11.69 6.76a37.01 37.01 0 0 0 .9-.37 3.29 3.29 0 0 1 .99 1.23.05.05 0 0 1-.03.04H12.5a.11.11 0 0 1-.09-.04 8.55 8.55 0 0 0-.72-.86ZM5.63 7.62l.71-.8a.03.03 0 0 1 .03 0l.99.25a.03.03 0 0 1 .02.02.03.03 0 0 1 0 .02l-.28.53-.01.02H5.64l-.01-.01a.03.03 0 0 1 0-.03ZM10.83 7.64l-.26-.5-.01-.03V7.1l.02-.01.01-.01.96-.24a.04.04 0 0 1 .05.01l.66.75a.05.05 0 0 1 0 .07H10.84l-.02-.02ZM8.96 7.23a8.94 8.94 0 0 0 1.46-.1.1.1 0 0 1 .05.04l.23.44a.04.04 0 0 1 0 .04l-.02.01H7.27a.03.03 0 0 1-.04-.01V7.6l.23-.44a.1.1 0 0 1 .04-.04 8.95 8.95 0 0 0 1.46.1ZM15.7 9.95V10l-.04.01H2.34l-.03-.01-.02-.04v-1.9c0-.02 0-.03.02-.04L2.34 8h13.32l.03.01.02.04v1.9ZM12.28 10.42l-.67.81-.02.02h-.03l-.97-.26-.02-.01a.05.05 0 0 1-.02-.04v-.03l.28-.53.02-.02.02-.03h1.37l.03.01.01.02v.06ZM6.24 11.27a.02.02 0 0 1 0 .02l-.86.38h-.04a3.6 3.6 0 0 1-.99-1.28l.01-.03.02-.02h1.03c.04 0 .09.02.12.06.19.26.43.55.71.87ZM7.1 10.35l.27.57a.04.04 0 0 1 0 .04l-.02.01-.98.27h-.02l-.01-.02-.7-.83v-.03l.01-.02H7.1l.01.01ZM8.96 10.33a571.6 571.6 0 0 1 1.76.02v.01l-.27.55c0 .02-.02.03-.04.03a9.78 9.78 0 0 0-1.45-.13c-.48 0-.98.06-1.44.13-.02 0-.03 0-.04-.02l-.27-.56a.02.02 0 0 1 0-.02h1.75ZM12.72 11.56c-.1.08-.16.13-.29.06a4.78 4.78 0 0 0-.72-.33v-.02l.01-.02.72-.88a.09.09 0 0 1 .07-.04h1.01l.03.01.02.02a.07.07 0 0 1 0 .07c-.22.44-.5.82-.85 1.13ZM8.96 10.95c.43 0 .85.02 1.27.08.1.01.13.06.07.15l-.31.54a.12.12 0 0 1-.05.04 5.58 5.58 0 0 0-1.96 0 .12.12 0 0 1-.04-.04l-.32-.54c-.05-.09-.02-.14.08-.15a9.6 9.6 0 0 1 1.26-.08ZM6.53 11.31l.9-.23h.03l.02.02.35.63a.05.05 0 0 1-.01.06H7.8l-.73.15h-.01l-.02-.01-.53-.54v-.02l-.01-.02.01-.03h.02ZM10.85 11.94l-.7-.15h-.03l-.01-.03a.06.06 0 0 1 0-.05l.34-.6.03-.02h.03l.87.22.03.01.01.03v.03l-.01.02-.52.53-.02.01h-.02ZM5.53 11.74l.8-.36h.04l.55.56V12L6.9 12l-.68.24H6.2l-.68-.44-.02-.01a.04.04 0 0 1 0-.04l.02-.01ZM11.7 12.23l-.68-.23v-.01l-.01-.02v-.02l.54-.56a.03.03 0 0 1 .03-.01l.82.36h.01v.02a.03.03 0 0 1 0 .03l-.7.44a.03.03 0 0 1-.01 0ZM9.2 12.88h-.47a.1.1 0 0 1-.05 0 .1.1 0 0 1-.03-.04l-.55-.81a.12.12 0 0 1 0-.12.1.1 0 0 1 .03-.04.1.1 0 0 1 .06-.02l1.56-.01a.1.1 0 0 1 .05.01.1.1 0 0 1 .04.05.12.12 0 0 1 0 .11l-.56.83a.1.1 0 0 1-.03.03.1.1 0 0 1-.05.01ZM8 12.8l-.8-.7v-.05h.02l.68-.14h.02l.01.02.57.88a.04.04 0 0 1 0 .05h-.03l-.45-.05H8ZM9.41 12.81l.6-.88v-.01h.02l.68.13h.02v.05l-.79.7h-.01l-.49.06h-.01l-.02-.01a.04.04 0 0 1 0-.04ZM7.67 12.76c-.28-.07-.54-.15-.78-.23-.12-.04-.26-.13-.4-.15-.09-.02-.1-.04-.02-.08.21-.1.4-.17.56-.2.02 0 .05 0 .07.03l.6.56c.07.07.06.1-.03.07ZM10.21 12.7l.64-.6h.05l.53.18.02.02v.06l-.02.02-1.18.41h-.03a.05.05 0 0 1-.02-.02v-.04l.01-.03Z" fill="#064087"/><path fill="#E7DB59" d="M3 8.56h12v.87H3z"/></svg>