<!-- by TradingView --><svg width="18" height="18" viewBox="0 0 18 18" xmlns="http://www.w3.org/2000/svg"><path fill="#F0F3FA" d="M0 0h18v18H0z"/><path d="M9.92 6.76c.73-.99.73-2.25.64-2.76.87.89.92 2.14.85 2.85-.3 2.9-2.84 4.93-4.07 5.58a3.76 3.76 0 0 0-.12-.25c-.35-.67-1.15-2.23-.07-2.88a7.69 7.69 0 0 0 2.77-2.54Zm.14-2.54C10 4 9.92 4.1 9.88 4.18c-.62 1.63-3.82 2.28-4.7 2.44-.71.13-.92.33-.99.45-.34.6-.14 1.97 0 2.58.39-.07 3.3-1.06 4.73-2.46 1.43-1.4 1.2-2.67 1.14-2.97Zm1.36.43c-.06-.1-.12-.28.1-.08a4.16 4.16 0 0 1 1.44 2.7c.17 1.58-.18 4.62-1.99 7.23l-1.03-1.23c-.29-.34-.69-1.2 0-1.94.85-.93 2-2.74 2.05-4.7.01-.33-.08-1-.57-1.98Z" fill="#E75603"/></svg>