<!-- by TradingView --><svg width="18" height="18" viewBox="0 0 18 18" xmlns="http://www.w3.org/2000/svg"><path fill="#F0F3FA" d="M0 0h18v18H0z"/><path d="M8 4.71v3.67h1.7c.23 0 .39-.1.49-.3.1-.2.17-.6.23-.88.03-.13.13-.2.3-.2.07 0 .21.03.28.05v2.92l-.26.03c-.18 0-.29-.07-.32-.2-.06-.28-.14-.3-.23-.5a.5.5 0 0 0-.5-.3H8v3.77c0 .44.68.53.99.53h.94c1.2 0 1.92-.72 2.45-1.66.04-.07.12-.1.26-.1.11 0 .25.07.36.13-.1.2-.2.42-.27.69l-.21.76c-.07.24-.14.45-.21.62-.08.17-.17.26-.29.26H5.03L5 13.76c0-.14.06-.22.17-.24.32-.06.83-.27.83-.65v-7.7c0-.2-.08-.35-.25-.42-.16-.08-.1-.16-.58-.24-.11-.02-.17-.1-.17-.25v-.13L5.04 4h7c.14 0 .24.08.3.25.1.33.15.81.24 1.34.05.26.13.48.26.66-.1.06-.2.1-.31.1-.15 0-.25-.05-.3-.14-.48-.93-1.12-1.5-2.29-1.5H8Z" fill="#016A6E"/></svg>