<!-- by TradingView --><svg xmlns="http://www.w3.org/2000/svg" width="18" height="18" viewBox="0 0 18 18"><path fill="#F0F3FA" d="M0 0h18v18H0z"/><path d="M11.54 12.1c-2.2-.7-4.54 0-4.54 0 2.5.65 4.54 0 4.54 0Zm.62-1.89c-2.71-.86-5.17 0-5.17 0 3.1.8 5.17 0 5.17 0Zm.63-2.27c-2.72-.87-5.66 0-5.66 0 3.34.86 5.66 0 5.66 0Zm1.21.9c-1.4 0-3.06.3-3.06.3s1.68.33 3.06.33v1.48c-1.61 0-3.3.27-3.3.27s1.64.21 3.3.21V14H4v-.69c2.36 0 3.84-.45 3.84-.45s-1.48-.43-3.84-.43v-.69c3.22 0 4.66-.64 4.66-.64s-1.44-.53-4.66-.53V9.7c4.42.03 5.74-.68 5.74-.68S8.42 8.46 4 8.46V4h10v2.65c-1.31 0-2.93.3-2.93.3s1.6.32 2.93.32v1.57Z" fill="#005093"/></svg>