<!-- by TradingView --><svg width="18" height="18" viewBox="0 0 18 18" xmlns="http://www.w3.org/2000/svg"><path fill="#F0F3FA" d="M0 0h18v18H0z"/><path d="M7.34 5.96c0 .03-.02.06-.04.09a38.32 38.32 0 0 1-.8.83c-.1.02-.2.05-.27.11-.03.02-.03.04.01.04h.17c.03 0 .03 0 .02.03a.33.33 0 0 1-.24.14c-.05 0-.08.01-.1.03-.01.01 0 .03.02.03l.05.01c.08.02.09.05 0 .09-.29.12-.52.28-.7.5l-.39.35-.29.25c-.04.05-.12.1-.23.17l-.17.12-.69.76c-.08.09-.13.08-.16-.04l-.02-.08a.4.4 0 0 1 .06-.33c.2-.28.58-.64 1.13-1.1a14.67 14.67 0 0 0 .88-.75c.57-.5.98-.88 1.23-1.15a584 584 0 0 1 1.61-1.71l.15-.2c.16-.2.42-.2.78-.01.2.1.48.3.82.58l.07.05c.06.05.14.13.23.24.12.13.23.23.3.29.12.07.27.23.46.47l.2.24c.12.13.23.25.32.37l.3.38c.36.4.68.8.97 1.22A36.3 36.3 0 0 0 14 9.3c-.18.13-.19.13-.01.01-.22-.2-.5-.49-.86-.87l-.18-.24a.58.58 0 0 0-.25-.2c-.03-.01-.04-.04-.03-.07.01-.07-.02-.12-.1-.14a.08.08 0 0 1-.06-.04.82.82 0 0 0-.23-.25 8.42 8.42 0 0 0-.58-.59.23.23 0 0 0-.14-.16l-.1-.06c0-.03 0-.06.05-.1.01-.02.02-.04 0-.07-.05-.09-.11-.14-.17-.16-.04-.02-.05 0-.03.03.02.05.06.1.11.14.03.02.02.03 0 .04h-.05c-.08-.03-.15-.1-.21-.2v-.05l.03-.02v-.02c-.01-.04-.04-.06-.07-.07-.06 0-.07.02-.04.06l.02.03c.03.03.02.04-.02.02a.49.49 0 0 1-.17-.15c-.03-.03-.02-.05.01-.07l.05-.02c.03 0 .03-.03 0-.05-.1-.08-.2-.17-.28-.28a.93.93 0 0 0-.22-.2c-.12-.08-.2-.14-.24-.19a1.79 1.79 0 0 0-.3-.3 2.6 2.6 0 0 1-.27-.22 1.91 1.91 0 0 0-.92-.55l-.09.01a.1.1 0 0 0-.04.06l-.04.06-.31.38-.32.38c-.14.16-.24.3-.3.44a.11.11 0 0 1-.05.05.87.87 0 0 0-.23.21.11.11 0 0 0-.02.08Z" fill="#094F09"/><path d="m12.45 10.38.02-1.27c0-.37-.04-.7-.14-.97-.02-.07 0-.09.08-.06l.06.02a.2.2 0 0 1 .13.14 3 3 0 0 1 .11.88 1757.36 1757.36 0 0 1-.1 2.87 8.41 8.41 0 0 0-.05.51h-.03l-.01-.01V12.15a37.22 37.22 0 0 1-.07-1.77ZM5.45 12.06c.04.2.1.39.17.57.03.07 0 .09-.06.07l-.06-.01c-.08-.02-.13-.06-.16-.13-.06-.19-.1-.4-.12-.64l.01-.68.04-1.06.06-1.59c.02-.38.06-.38.1 0 .02.1.03.28.03.57a3928.93 3928.93 0 0 0 0 2.9ZM7.18 12.75c.03.03.07.03.1.02.19-.05.34-.08.48-.07.04 0 .1 0 .17-.03a.6.6 0 0 1 .14-.03c.2-.02.47-.02.8-.02a.1.1 0 0 1 .08.03c.05.06.13.08.23.08.04 0 .04-.01.02-.03a.21.21 0 0 0-.17-.05v-.04l.02-.01a.7.7 0 0 1 .23.03.1.1 0 0 0 .08-.01.23.23 0 0 1 .2 0c.07.03.13.05.18.05.21.02.37.02.49 0a.99.99 0 0 1 .29-.02c.14.01.24 0 .31-.01a.46.46 0 0 1 .28.02l.18.03a.5.5 0 0 0 .13-.04l.13-.04c.1 0 .28-.05.55-.14.1-.03.13 0 .1.1l-.04.09c-.04.1-.1.15-.2.18a3.65 3.65 0 0 1-1.44.14c-.1-.02-.23-.01-.37 0-.1.03-.3.02-.56 0a3.2 3.2 0 0 0-.34-.02c-.11 0-.23 0-.34-.03a3.1 3.1 0 0 0-.61-.03h-.46a1.96 1.96 0 0 0-.46 0c-.07.01-.18 0-.34-.03a1.73 1.73 0 0 0-.32-.03 2.71 2.71 0 0 1-.7-.08L6 12.74v-.01H7.1c.02 0 .04-.01.05-.03l.01-.03c.01-.01.02-.02.04 0l.01.02v.02h-.03c-.02.02-.02.03 0 .04Z" fill="#094F09"/><path d="M7.46 12.66c-.07.06-.13.07-.17.04-.03-.02-.03-.03 0-.04l.09-.02c.1-.03.17-.04.21-.02l.02.01-.02.02h-.08l-.05.01Z" fill="#094F09"/></svg>