<!-- by TradingView --><svg xmlns="http://www.w3.org/2000/svg" width="18" height="18"><path fill="#F0F3FA" d="M0 0h18v18H0z"/><path d="M14.02 7.68c.63.12 1.5.05 1.97-.41.1-.1-.44.73-1.3 1.2a6.75 6.75 0 01-3.95.62c.07-1.04-.86-1.76-1.78-1.76-.82 0-1.44.53-1.65 1.24a6.29 6.29 0 00-2.5.15C5.1 7.15 6.7 6.08 8.96 6c2.26-.07 3.43 1.36 5.06 1.68z" fill="#51B848"/><path d="M4.1 9.69c-.63.11-1.37.77-1.65 1.02-.26.23-.64-.28-.34-.5a8.8 8.8 0 012.86-1.37c1.35-.26 2.68.12 4.2.63a9.1 9.1 0 003.77.53c-.76 1.53-2.6 2-3.87 2a4.8 4.8 0 01-3.5-1.31c-.46-.49-.75-1.12-1.46-1z" fill="#007356"/></svg>