<!-- by TradingView --><svg width="18" height="18" viewBox="0 0 18 18" xmlns="http://www.w3.org/2000/svg"><path fill="#F0F3FA" d="M0 0h18v18H0z"/><path d="M9.48 4.69c.04-.35-.02-.85.25-1.09.08-.36.64-.28.55-.51-.05-.15-.32-.08-.43-.05-.08.02-.85.27-1.15.31l-.37-.1c-.5.06-.77.46-1.04.77-.22.27-.53.91-.28 1.3l-.04.25.55.82c.2.14.22.25.42.38l.13.2c.17.1.66.1.75.03.8.08.7-1.57.95-1.92a.69.69 0 0 0-.29-.4ZM6.07 9.65c.17-.05.45-.07.6-.15.24-.12 1.07-.72.8-1.2-.08-1-1.28-.15-1.78-.5-.52-.07-1.1-1.06-1.26-1.49-.06-.17-.03-.1-.11-.24 0-.01-.06.05-.06.03-.15.18-.12.34-.14.78l-.2-.02c-.02.16-.03.25-.1.33l-.05.08c-.13-.04-.06.02-.12-.1-.47.03-.43.52-.65.8.01.9 1.77 2.02 3.07 1.68m5.83-2.79c-.76.13-1.23.38-1.52.58-.2.15-.26.25-.3.3-.05.07-.08.2-.06.34.03.15.08.3.2.38.95-.08 2.58-.14 2.9.67l.05.2c.31-.08.08-.05.54.02.1.02.37-.04.54-.08.08-.02.12-.1.12-.1v-.11s.15 0 .22-.05c.44-.07.2-.28.41-.52-.13-1.51-1.65-1.86-3.1-1.63Zm-1.67 3.3c-.21.18-.3.14-.44.4 0 0 .02.04 0 .04.14.26.44.37.66.56.07.06.26.38.34.41.1.12.17.45.24.45.07.1-.01.32.06.4 0 .4-.05.43-.12.5l.04.13c.02.02.17.13.24.12.21 0 1.08.69 1.15.82.62.05.57-.15 1-.33.12-.05.2 0 .28-.09.08-.08.09-.25.16-.33.01-1.56-2.07-3.03-3.6-3.08m-2.45.37c-.08.1-.32.13-.39.24-.1.16-.33.53-.51.7-.59.58-1.84.87-2.46.33-.04 0-.02.02.03.18.04.3.28.99.2 1.16.05.2.11.13.22.24.07.07.1.26.18.31.1 0 .19 0 .28-.02l.06.16.36-.02c.07.01.27.12.33.14l.4-.03c.32.08.59-.05.84-.23.15-.1.31-.09.44-.2.19-.17.44-.49.55-.7.3-.55.2-1.85-.08-2.17-.1-.12-.22-.12-.45-.1Z" fill="#E74E0F"/></svg>