<!-- by TradingView --><svg width="18" height="18" viewBox="0 0 18 18" xmlns="http://www.w3.org/2000/svg"><path fill="#F0F3FA" d="M0 0h18v18H0z"/><path d="M11.3 13.77c-.02-.27-.28-.48-.6-.48a.62.62 0 0 0-.54.29H8v-.59h1.7c.16 0 .28-.11.28-.25 0-.13-.12-.24-.27-.24H8V12h3.04c.15 0 .27-.1.27-.24 0-.14-.12-.25-.27-.25H8.08c-.08-.22-.3-.28-.59-.28-.33 0-.6.24-.6.54 0 .28.24.5.55.53v.3h-.06c-.15 0-.27.11-.27.25 0 .13.12.24.27.24h.06v.49h-.06c-.15 0-.27.04-.27.18 0 .13.12.24.27.24H10.16c.1.17.3.36.54.36.32 0 .58-.21.6-.49a.22.22 0 0 0 0-.1ZM10.6 14.56h-3l.5.28c.18.1.39.16.6.16h.83c.22 0 .44-.06.63-.17l.43-.27ZM7.99 10.5h-.5c-.02-.73-.04-1.43-.52-2.03-.45-.57-.89-1.1-1.02-1.84.16-.1.27-.26.27-.45 0-.3-.27-.53-.61-.53-.34 0-.61.24-.61.53 0 .24.17.43.4.5.14.83.61 1.44 1.11 2.06.44.56.42 1.25.43 1.92 0 .19.17.34.38.34H8c.15 0 .28-.1.28-.24 0-.14-.13-.25-.28-.25Z" fill="#0D7BCA"/><path d="M12.19 4.33A3.95 3.95 0 0 0 9.21 3a3.79 3.79 0 0 0-3.2 1.38h-.07c-.34 0-.6.23-.6.53 0 .3.26.54.6.54.34 0 .61-.24.61-.54 0-.1-.03-.19-.08-.27.4-.52 1.25-1.18 2.73-1.15 1.15.02 2 .5 2.55 1.14.55.63.77 1.4.67 1.96-.26 1.48-1.52 2.35-1.65 3.92h-.2a.62.62 0 0 0-.53-.3c-.34 0-.61.25-.61.55 0 .3.27.53.6.53.24 0 .45-.12.55-.29h.34c.22 0 .39-.15.4-.33.07-1.6 1.39-2.48 1.65-4a2.97 2.97 0 0 0-.78-2.34Z" fill="#0D7BCA"/><path d="m8.6 7.88-.1-.02a1.35 1.35 0 0 1 .04-2.62v-.17c-.56.11-1.02.52-1.18 1.1a1.53 1.53 0 0 0 1.32 1.9l-.07-.19ZM10.17 5.8a1.52 1.52 0 0 0-1.12-.75l.06.19a1.35 1.35 0 0 1 1.05 1.67 1.34 1.34 0 0 1-1.02.96l.02.17a1.5 1.5 0 0 0 1.02-2.24ZM10.29 8.73l-.81-.47.17-.06c.18-.07.35-.17.5-.29l.14-.11v.93ZM9.9 4.91l-.16-.07a1.87 1.87 0 0 0-.55-.15l-.18-.02.66-.67.23.91ZM7.71 5.2v-.93l.8.47-.16.06c-.18.07-.35.17-.5.29l-.14.11ZM7.17 6.49l-.67-.66.91-.23-.07.16a1.72 1.72 0 0 0-.15.55l-.02.18Z" fill="#0D7BCA"/><path d="m6.77 7.79.47-.8.06.16c.07.18.17.35.29.5l.11.14h-.93ZM8.33 9l-.24-.91.17.07a1.85 1.85 0 0 0 .56.15l.17.02-.66.67ZM10.76 6.02l-.06-.17a1.81 1.81 0 0 0-.29-.5l-.1-.13h.92l-.47.8ZM10.59 7.4l.07-.16a1.7 1.7 0 0 0 .15-.55l.02-.18.67.66-.91.24ZM8.84 6.81l.65.14-.76-2.65v1.88l-.77-.22L9.1 8.44l-.27-1.63Z" fill="#0D7BCA"/></svg>