<!-- by TradingView --><svg width="18" height="18" viewBox="0 0 18 18" xmlns="http://www.w3.org/2000/svg"><path fill="#F0F3FA" d="M0 0h18v18H0z"/><path d="M13 3H5v9.24c0 .41.3.76.67.76h2.5c.13.34.48.47.83.47s.7-.13.83-.47h2.5c.37 0 .67-.35.67-.76V3Z" fill="#00AFEE"/><path fill-rule="evenodd" d="M12.67 6.63a3.29 3.29 0 0 0-3.34-3.31V10a3.29 3.29 0 0 0 3.34-3.37Zm-1 0c0-1.13-.53-1.88-1.34-2.05v4.1c.82-.23 1.34-.91 1.34-2.05Z" fill="#fff"/><path d="M8.67 3.32a3.29 3.29 0 0 0-3.34 3.31A3.29 3.29 0 0 0 8.67 10V6.47h-1V8.4c-.6-.35-1-1.01-1-1.77 0-1.13.91-2.05 2-2.05V3.32ZM6.47 12.55l1.92.1c.04.15.2.45.61.45h.01c.4 0 .58-.3.61-.44l1.92-.1c-.24-.05-.44-.11-.62-.17-.27-.08-.51-.15-.8-.15-.54 0-.96.36-1.11.54a1.55 1.55 0 0 0-1.11-.54c-.3 0-.53.07-.8.15a5.3 5.3 0 0 1-.63.16Z" fill="#fff"/><path d="M8.13 10.26c.21 0 .68.1.87.44.19-.35.66-.44.87-.44h1.85l.95 2.2h-.87c-.28 0-.54-.09-.8-.18-.27-.09-.55-.18-.86-.18-.47 0-.96.29-1.14.44a2.08 2.08 0 0 0-1.14-.44c-.3 0-.58.1-.86.18-.26.1-.52.18-.8.18h-.87l.95-2.2h1.85Z" fill="#fff"/><path fill="#E20000" fill-opacity=".7" d="M5 13h8v2H5z"/></svg>