<!-- by TradingView --><svg width="18" height="18" viewBox="0 0 18 18" xmlns="http://www.w3.org/2000/svg"><path fill="#F0F3FA" d="M0 0h18v18H0z"/><path d="M7.65 7.38 5 4.98c.27-.46.82-.85 1.07-.98l2.4 2.35c.17.18.29.37.34.47l.02.03v.74h-.76c-.06 0-.3-.13-.42-.2Zm2.7 0L13 4.98A3.06 3.06 0 0 0 11.93 4l-2.4 2.35c-.17.18-.29.37-.34.47l-.02.03v.74h.76c.06 0 .3-.13.42-.2ZM5 10.54l2.65-2.35C7.76 8.12 8 8 8.07 8h.76v.72l-.02.03c-.05.09-.17.27-.35.45l-2.4 2.3c-.24-.13-.8-.5-1.06-.96Zm5.35-2.35L13 10.54c-.27.46-.82.83-1.07.96l-2.4-2.3c-.17-.18-.29-.36-.34-.45l-.02-.03V8h.76c.06 0 .3.12.42.2ZM7.44 11v1.7c0 .22.2.3.42.3h2.3c.23 0 .4-.08.4-.3V11l.94.92v.87c0 .67-.55 1.21-1.23 1.21H7.73c-.68 0-1.23-.54-1.23-1.21v-.87l.94-.92Z" fill="#007CC3"/></svg>