<!-- by TradingView --><svg width="18" height="18" viewBox="0 0 18 18" xmlns="http://www.w3.org/2000/svg"><path fill="#F0F3FA" d="M0 0h18v18H0z"/><path d="M3.87 5h10.26c.48 0 .87.4.87.88V13H3V5.88c0-.48.4-.88.87-.88Z" fill="#112B64"/><path d="M8 6h1v1H8V6ZM8 8h1v4H8V8ZM10 8h1v4h-1V8Z" fill="#F0F3FA"/><path d="M10 12h2.6c1.08 0 2.4-.84 2.4-1.87V7.87C15 6.84 13.77 6 12.7 6H10v1h1.97C13.5 7 14 8.17 14 9.05c0 .87-.5 1.95-2.03 1.95H10v1ZM3 6h2.52C6.33 6 7 6.67 7 7.5s-.67 2-1.48 2H3v-1h2c.53 0 1-.3 1-.8S5.52 7 5 7H3V6Z" fill="#F0F3FA"/><path d="M3 8.5h2.52c.81 0 1.48 1.17 1.48 2 0 .83-.67 1.5-1.48 1.5H3v-1h2.5c.24 0 .5-.24.5-.74s-.3-.76-.5-.76H3v-1Z" fill="#F0F3FA"/></svg>