<!-- by TradingView --><svg width="18" height="18" viewBox="0 0 18 18" xmlns="http://www.w3.org/2000/svg"><path d="M0 9a9 9 0 1 1 18 0A9 9 0 1 1 0 9Z" fill="#D40086"/><path d="M7.07 10.5H9.5v1H6.1c-.19 0-.6-.2-.6-.49V5h1v4.95c0 .25.28.55.57.55ZM5 5H4v6.97c0 .56.5 1.03 1.09 1.03H9.5v-1H5.75c-.45 0-.75-.36-.75-.64V5Zm2 0h1v3.65c0 .17.13.35.4.35h1.1v1H7.48C7.13 10 7 9.8 7 9.59V5Zm3.93 2.5H8.5v-1h3.4c.19 0 .6.2.6.49v6h-1V8.06c0-.25-.28-.55-.57-.55ZM13 13h1V6.03C14 5.47 13.5 5 12.91 5H8.5v1h3.75c.45 0 .75.36.75.64V13Zm-2 0h-1V9.35c0-.17-.13-.35-.4-.35H8.5V8h2.02c.35 0 .48.2.48.41V13Z" fill="#fff"/></svg>