<!-- by TradingView --><svg width="18" height="18" fill="none" xmlns="http://www.w3.org/2000/svg"><path fill="#0000C8" d="M0 0h18v18H0z"/><path fill-rule="evenodd" clip-rule="evenodd" d="M9 11.446A3.135 3.135 0 0 1 7.212 12c-.888 0-1.688-.417-2.251-1H2v-.6h2.493c-.21-.38-.269-.645-.293-1.1H2l.001-.6h2.2c.056-.338.13-.81.292-1.1H2V7h2.96c.564-.583 1.364-1 2.252-1 .667 0 1.284.205 1.788.554A3.135 3.135 0 0 1 10.787 6c.888 0 1.689.417 2.252 1H16v.6h-2.493c.161.29.251.762.306 1.1H16v.6h-2.187c-.024.455-.095.72-.306 1.1H16v.6h-2.96c-.564.583-1.364 1-2.252 1A3.135 3.135 0 0 1 9 11.446Zm-.502-.433a2.479 2.479 0 0 1-1.286.355c-1.346 0-2.437-1.06-2.437-2.368 0-1.308 1.091-2.368 2.437-2.368.472 0 .913.13 1.286.355A2.942 2.942 0 0 0 7.7 9c0 .774.302 1.48.798 2.013Zm1.004-4.026a2.479 2.479 0 0 1 1.285-.355c1.347 0 2.438 1.06 2.438 2.368 0 1.308-1.091 2.368-2.438 2.368-.471 0-.912-.13-1.285-.355A2.942 2.942 0 0 0 10.3 9c0-.774-.302-1.48-.798-2.013ZM9 7.39c.403.422.65.988.65 1.61 0 .622-.247 1.188-.65 1.61A2.324 2.324 0 0 1 8.35 9c0-.622.247-1.188.65-1.61Z" fill="#fff"/></svg>