<!-- by TradingView --><svg width="18" height="18" viewBox="0 0 18 18" xmlns="http://www.w3.org/2000/svg"><path fill="#F0F3FA" d="M0 0h18v18H0z"/><path d="M9.27 13a4.08 4.08 0 0 0 2.29-.84 5.1 5.1 0 0 0-2.3-.76V13Zm0-2c1.02.05 1.94.46 2.61.88.54-.5.93-1.15 1.12-1.88H9.27v1Zm0-3v-.8A5.61 5.61 0 0 0 12 6.23c.48.48.82 1.09 1 1.76H9.27Zm-.41 0H5.13c.17-.67.52-1.28 1-1.76.67.44 1.65.9 2.73.95V8Zm-3.73 2h3.73v1a5.55 5.55 0 0 0-2.62.88A3.99 3.99 0 0 1 5.13 10Zm4.14-3.2a5.18 5.18 0 0 0 2.43-.85c-.66-.55-1.5-.9-2.43-.95v1.8ZM8.86 5v1.8a5.18 5.18 0 0 1-2.44-.85c.67-.55 1.51-.9 2.44-.95Zm-2.3 7.16a5.1 5.1 0 0 1 2.3-.76V13a4.08 4.08 0 0 1-2.3-.84Z" fill="#FE1721"/><path fill-rule="evenodd" d="M14 8.3H4a.7.7 0 1 0 0 1.4h10a.7.7 0 1 0 0-1.4ZM4 8a1 1 0 1 0 0 2h10a1 1 0 1 0 0-2H4Z"/><path d="M5 9.5v-1h8v1H5Z" fill="#5F5C5C"/></svg>