<!-- by TradingView --><svg width="18" height="18" viewBox="0 0 18 18" xmlns="http://www.w3.org/2000/svg"><path fill="#F0F3FA" d="M0 0h18v18H0z"/><path fill-rule="evenodd" d="M3.91 7.08 3 13h9.1c.95 0 1.78-.87 1.97-2.07L15 5H5.89c-.96 0-1.8.87-1.98 2.08Zm.87.47L4.06 12h7.6c.75 0 1.4-.64 1.54-1.54L13.95 6H6.33c-.75 0-1.4.65-1.55 1.55Zm.46.13c.06-.4.35-.68.7-.68h.39l-.63 4H4.7l.53-3.32ZM6.88 7h.98l-.63 4h-.99l.64-4Zm1.98 0H8.4l-.63 4h.95l.54-3.42c.05-.3-.14-.58-.4-.58Zm.9.73c.1-.43.4-.73.75-.73h2.6l-.12 1H9.72l.04-.27Zm3.1.77H9.62l-.15 1h3.25l.14-1ZM9.36 10h3.25l-.03.17c-.06.5-.39.84-.77.83h-2.1c-.25 0-.45-.33-.4-.67l.05-.33Z" fill="#0777BC"/></svg>