<!-- by TradingView --><svg width="18" height="18" viewBox="0 0 18 18" xmlns="http://www.w3.org/2000/svg"><path fill="#F0F3FA" d="M0 0h18v18H0z"/><path d="M8.85 5.06C7.1 5.06 5.35 6.3 4.7 6.9l.77-2.55 1.36-1a6.58 6.58 0 0 1 3.26-.27c2.87 1.4 3.27 3.2 3.1 3.93-.7-.65-2.57-1.95-4.34-1.95Z" fill="url(#avgojizqf)"/><path d="M3 9.35a6.26 6.26 0 0 1 3.86-6.01c-.42.37-2.44 1.8-1.94 5.82a5.08 5.08 0 0 0 4.22 4.51l-1.28 1C6.24 14.45 3 13.08 3 9.35Z" fill="url(#bvgojizqf)"/><path d="M8.96 15a6.7 6.7 0 0 1-3.9-1.4c.26.06 1.06.2 2.23.2 3 0 5.77-1.75 5.77-5.68 0-3.15-2.02-4.66-3.03-5.03C11.1 3.09 15 4.82 15 8.95 15 13.07 11.17 15 8.96 15Z" fill="url(#cvgojizqf)"/><path d="M12 10v.55h-1.2c-.8 0-1.45-.65-1.45-1.45v-.2c0-.8.65-1.44 1.45-1.44H12V8h-1.2c-.3 0-.52.38-.52.68v.68c0 .3.23.64.53.64H12Zm-4.27 0v.54h-1c-.8 0-1.43-.5-1.43-1.35V9c0-.86.64-1.5 1.42-1.5h1V8h-.87c-.29 0-.53.43-.53.75v.01h1.4v.58h-1.4v.13c0 .32.24.53.53.53h.88Zm.52.54v-3H9v3h-.75Z" fill="#415968"/><defs><linearGradient id="avgojizqf" x1="5.77" y1="5.14" x2="12.17" y2="6.95" gradientUnits="userSpaceOnUse"><stop offset=".45" stop-color="#8DC73F"/><stop offset="1" stop-color="#CAE5A6"/></linearGradient><linearGradient id="bvgojizqf" x1="2.06" y1="5.15" x2="6.63" y2="14.4" gradientUnits="userSpaceOnUse"><stop offset=".39" stop-color="#C41430"/><stop offset="1" stop-color="#E19083"/></linearGradient><radialGradient id="cvgojizqf" cx="0" cy="0" r="1" gradientUnits="userSpaceOnUse" gradientTransform="matrix(4.20178 2.50549 -2.3547 3.9489 10.23 10.3)"><stop stop-color="#327A9C"/><stop offset="1" stop-color="#005A84"/></radialGradient></defs></svg>