<!-- by TradingView --><svg width="18" height="18" fill="none" xmlns="http://www.w3.org/2000/svg"><path fill="#F0F3FA" d="M0 0h18v18H0z"/><path d="M13.565 6.983a4.96 4.96 0 0 1 .104 3.81 5.008 5.008 0 0 1-6.471 2.87 4.963 4.963 0 0 1-1.648-1.048 4.924 4.924 0 0 1-1.11-1.6 4.945 4.945 0 0 1 .36-4.734 4.999 4.999 0 0 1 1.804-1.669A5.042 5.042 0 0 1 8.995 4a5.221 5.221 0 0 1 2.04.411l-.756.77a4.199 4.199 0 0 0-1.285-.224c-.795 0-1.573.234-2.235.673a4 4 0 0 0-1.482 1.793 3.784 3.784 0 0 0-.229 2.307 3.985 3.985 0 0 0 1.102 2.046 4.05 4.05 0 0 0 4.384.866 4.017 4.017 0 0 0 1.806-1.472c.442-.656.678-1.429.678-2.219.009-.436-.068-.869-.227-1.275l.775-.693Z" fill="#005369"/><path fill-rule="evenodd" clip-rule="evenodd" d="M11.306 5.28a1.006 1.006 0 0 1 1.626.346c.048.122.07.252.068.382a.987.987 0 0 1-.63.921 1.006 1.006 0 0 1-1.304-.568.987.987 0 0 1-.066-.386.992.992 0 0 1 .306-.696ZM10.5 7a.5.5 0 1 0 .5.5.477.477 0 0 0-.5-.5ZM9.387 8.229a.375.375 0 0 0-.279.106.363.363 0 0 0-.108.274.375.375 0 0 0 .11.276.386.386 0 0 0 .427.086.387.387 0 0 0 .21-.213.375.375 0 0 0 .026-.149.425.425 0 0 0-.125-.257.437.437 0 0 0-.262-.123Z" fill="#0DB3C9"/></svg>