<!-- by TradingView --><svg width="18" height="18" viewBox="0 0 18 18" xmlns="http://www.w3.org/2000/svg"><path fill="#F0F3FA" d="M0 0h18v18H0z"/><path d="M3.74 8.31 3 9.06l.74.74.75-.74-.75-.75Zm5.27 5.2-.75.75.75.74.74-.74-.74-.75Z" fill="url(#axzl1vnqg)"/><path transform="rotate(-45.02 18.88 -8.82)" fill="url(#bxzl1vnqg)" d="M0 0h3.51v1.05H0z"/><path transform="rotate(-45.02 14.4 -7.01)" fill="url(#cxzl1vnqg)" d="M0 0h2.2v1.05H0z"/><path d="M5.53 6.63 3.97 8.18l.74.75 1.56-1.56-.74-.74Zm5.2 5.22L9.19 13.4l.74.74 1.56-1.56-.74-.74Z" fill="url(#dxzl1vnqg)"/><path d="m8.97 3-.74.74.74.75.75-.75L8.97 3Zm.92.9-.75.74 4.2 4.2.74-.75-4.2-4.2Z" fill="url(#exzl1vnqg)"/><path d="m7.13 11.68 1.72 1.72-.74.75-4.2-4.2.75-.74 1.73 1.73L8.12 9.2l.74.74-1.73 1.73Z" fill="url(#fxzl1vnqg)"/><path transform="rotate(-45.02 10.62 -3.6)" fill="url(#gxzl1vnqg)" d="M0 0h1.05v8.41H0z"/><defs><linearGradient id="axzl1vnqg" x1="7.84" y1="10.53" x2="6.09" y2="12.27" gradientUnits="userSpaceOnUse"><stop stop-color="#CADFF0"/><stop offset="1" stop-color="#5E8292"/></linearGradient><linearGradient id="bxzl1vnqg" x1="4.32" y1=".24" x2=".05" y2=".49" gradientUnits="userSpaceOnUse"><stop stop-color="#CADFF0"/><stop offset="1" stop-color="#5E8292"/></linearGradient><linearGradient id="cxzl1vnqg" x1="2.86" y1=".4" x2=".04" y2=".4" gradientUnits="userSpaceOnUse"><stop stop-color="#CADFF0"/><stop offset="1" stop-color="#5E8292"/></linearGradient><linearGradient id="dxzl1vnqg" x1="9.58" y1="7.77" x2="6.48" y2="11.01" gradientUnits="userSpaceOnUse"><stop stop-color="#CADFF0"/><stop offset="1" stop-color="#5E8292"/></linearGradient><linearGradient id="exzl1vnqg" x1="11.98" y1="4.99" x2="10.78" y2="6.3" gradientUnits="userSpaceOnUse"><stop stop-color="#CADFF0"/><stop offset="1" stop-color="#5E8292"/></linearGradient><linearGradient id="fxzl1vnqg" x1="9.13" y1="8.65" x2="5.86" y2="11.95" gradientUnits="userSpaceOnUse"><stop stop-color="#CADFF0"/><stop offset="1" stop-color="#5E8292"/></linearGradient><linearGradient id="gxzl1vnqg" x1="1.84" y1="4.25" x2="-.01" y2="4.37" gradientUnits="userSpaceOnUse"><stop stop-color="#CADFF0"/><stop offset="1" stop-color="#5E8292"/></linearGradient></defs></svg>