<!-- by TradingView --><svg width="18" height="18" viewBox="0 0 18 18" xmlns="http://www.w3.org/2000/svg"><path fill="#004B85" d="M0 0h18v18H0z"/><path d="M11.25 6.75 12 6 9 3 6 6l3 3 .75-.75L7.5 6l.38-.38 1.68 1.7.75-.76-1.68-1.69L9 4.5l2.25 2.25ZM6.75 11.25 6 12l3 3 3-3-3-3-.75.75L10.5 12l-.38.38-1.68-1.7-.75.76 1.68 1.69-.37.37-2.25-2.25Z" fill="#F5FFFF"/><path d="m12 6 3 3-3 3-.75-.75L13.5 9l-.38-.38-1.68 1.7-.75-.76 1.69-1.69L12 7.5 9.75 9.75 9 9l3-3ZM8.25 8.25 9 9l-3 3-3-3 3-3 .75.75L4.5 9l.38.38 1.68-1.7.75.76-1.68 1.69.37.37 2.25-2.25Z" fill="#F5FFFF"/></svg>