<!-- by TradingView --><svg width="18" height="18" viewBox="0 0 18 18" xmlns="http://www.w3.org/2000/svg"><path fill="#005B52" d="M0 0h18v18H0z"/><path fill-rule="evenodd" d="M9 3 3 9h2.73a3.4 3.4 0 0 1 6.54 0H15L9 3Zm3 8H6.85c-.1.56-.01 1.78 1.84 2.25 1.88.41 2.98-.71 3.3-1.33-.61 2.32-2.98 2.09-3.3 2.06h-.02c-.19-.02-.3-.04-.44-.07l-.09-.02A2.92 2.92 0 0 1 6 11C5.99 10.39 6.66 8 9.17 8c2.01 0 2.73 2.16 2.83 3Zm-1.1-.32H6.87c0-.53.54-2.01 2.18-2.01 1.32 0 1.78 1.38 1.87 2.01Z" fill="#E2DDCC"/></svg>