<!-- by TradingView --><svg width="18" height="18" viewBox="0 0 18 18" xmlns="http://www.w3.org/2000/svg"><path fill="#F0F3FA" d="M0 0h18v18H0z"/><path fill-rule="evenodd" d="M3 8.33c0-1.65.8-2.9 1.21-3.33C7.46 5 8.42 6.59 8.5 7.38v2.17c-.17.02-.67-.02-1.3-.18s-1.98-.47-2.58-.6c-.02 1.86 1.03 1.85 2.25 1.83h.33c1.08 0 1.11.93 1 1.38 0 0-2.3.15-3.4-.3C3.73 11.21 3 10.4 3 8.32Zm2.47-1.85c-.65 0-.74.57-.7.86-.02.27.38.8 2.06.8 0-1.42-.55-1.66-1.36-1.66Zm4.03.7V14H11v-2.23c2.75 0 4-1.25 4-3.27 0-1.62-.48-3-.73-3.5-3.54 0-4.65 1.45-4.77 2.18Zm1.5-.17v3.51c1.97 0 2.48-.74 2.49-1.1V6.47s0-.3-.87-.3c-.7 0-1.37.56-1.62.83Z" fill="#75A303"/></svg>