<!-- by TradingView --><svg width="18" height="18" viewBox="0 0 18 18" xmlns="http://www.w3.org/2000/svg"><path fill="#F0F3FA" d="M0 0h18v18H0z"/><path d="M15 9.04a5.93 5.93 0 0 1-5.38 5.93 6.03 6.03 0 0 1-6.62-6 6.02 6.02 0 0 1 8.93-5.22A5.94 5.94 0 0 1 15 9.04ZM5.14 8H5.1l-.01-.02a.05.05 0 0 1-.01-.05 4.02 4.02 0 0 1 5.2-2.72 4.05 4.05 0 0 1 2.61 2.7.1.1 0 0 1-.01.04.1.1 0 0 1-.04.04.1.1 0 0 1-.04 0H11.4a.04.04 0 0 0-.03.02l-.01.02v.02l.2.92v.02l.03.01h2.36a.07.07 0 0 0 .05-.02l.02-.03v-.03a5.04 5.04 0 0 0-9.04-2.87 4.85 4.85 0 0 0-.7 4.62 5.03 5.03 0 0 0 8.21 1.9 5.42 5.42 0 0 0 1.39-2.48.1.1 0 0 0-.02-.05.1.1 0 0 0-.03-.03.1.1 0 0 0-.05 0h-.75c-.08 0-.13.03-.15.1a4.08 4.08 0 0 1-5.03 2.75 4.05 4.05 0 0 1-2.7-2.58 4.3 4.3 0 0 1-.18-1.26A.06.06 0 0 1 5 9H6.4a.07.07 0 0 0 .05-.02.07.07 0 0 0 .01-.05c0-.28.08-.62.19-.87.01-.04 0-.06-.04-.06H5.14Zm3.85.37H9c.13-.05.27-.12.4-.2a.14.14 0 0 0 .07-.13V6.63a.08.08 0 0 1 .03-.06l.03-.01h.03c.54.14 1 .42 1.39.84a.2.2 0 0 0 .14.07h.94c.05 0 .07-.03.04-.07a3.5 3.5 0 0 0-6.18 0c-.03.04-.02.07.03.07h.94a.2.2 0 0 0 .15-.07 2.74 2.74 0 0 1 1.42-.84h.03c0 .02.01.02.02.03v1.45c0 .06.03.1.07.13a2.5 2.5 0 0 0 .43.2Zm0 1.4c.05 0 .1-.02.14-.04.32-.17.58-.3.79-.38a.32.32 0 0 1 .37.09c.03.03.06.07.07.12l.76 2.21v.01h.02l.68-.71a.1.1 0 0 0 .03-.1L11 8.5c-.16-.45-.44-.57-.84-.37-.22.1-.58.3-1.09.56a.25.25 0 0 1-.09 0h-.1l-1.08-.56c-.4-.2-.68-.08-.83.37l-.85 2.46a.1.1 0 0 0 .03.1l.68.7v.01h.02l.76-2.22a.36.36 0 0 1 .18-.2.32.32 0 0 1 .26-.01c.21.09.47.21.8.38.04.02.08.04.13.04Zm0 2.76c.18 0 .32-.01.42-.03.04 0 .07-.03.07-.09v-2.4a.1.1 0 0 0-.01-.05.09.09 0 0 0-.04-.03.08.08 0 0 0-.09 0c-.18.12-.3.18-.36.18-.05 0-.17-.06-.36-.18a.08.08 0 0 0-.09 0 .09.09 0 0 0-.03.03.1.1 0 0 0-.01.05l.02 2.41c0 .05.03.08.07.09l.42.02Z" fill="#1B3F7E"/></svg>