<!-- by TradingView --><svg width="18" height="18" viewBox="0 0 18 18" xmlns="http://www.w3.org/2000/svg"><path fill="#F0F3FA" d="M0 0h18v18H0z"/><path d="M13 14c-.63-1-.5-2.7-.5-3.81 0-4-2.86-6.19-5.44-6.19H5.03s.28 1.16.53 3.16 1.53 5.25 4.57 5.25c-1.06-.88-1.48-3-1.73-4s-.45-1.88-1.62-3.1c1.34.5 1.87 1.53 2.37 3.1.5 1.56 1.45 3.06 2.6 4.59H9.92C6.5 13 5.17 10.29 5.2 7c-.18.69-.21.77-.21 1.4C5 11.76 7.1 14 9.92 14H13Z" fill="url(#am5hfyvm3)"/><defs><linearGradient id="am5hfyvm3" x1="3.69" y1="5.55" x2="14.24" y2="14.82" gradientUnits="userSpaceOnUse"><stop offset=".25" stop-color="#BCCA47"/><stop offset=".75" stop-color="#1C4625"/></linearGradient></defs></svg>