<!-- by TradingView --><svg width="18" height="18" viewBox="0 0 18 18" xmlns="http://www.w3.org/2000/svg"><path fill="#0B6743" d="M0 0h18v18H0z"/><path d="M13 11v.65c0 .75-.5 1.35-1.22 1.35H6.3C5.58 13 5 12.4 5 11.65v-5.3C5 5.6 5.58 5 6.29 5H10v.65C10 6.4 9.64 7 8.92 7H7v1h3v.65C10 9.4 9.27 10 8.56 10H7v1h4V8.9c0-.74.73-1.44 1.45-1.44H13V11Z" fill="#fff"/><path d="M13 5.12c-.42.69-.26.93-.74 1.75-.54.9-1.4.76-1.72.66l-.07.38a.1.1 0 0 1-.1.1.1.1 0 0 1-.1-.13c.27-1.59 1.1-2.11 1.4-2.26l.13-.05-.12.05c-.35.15-.66.39-.9.7-.2.26-.38.58-.52.95-.15-.3-.3-.92.3-1.66.8-.97 2.44-.5 2.44-.5Z" fill="#74B844"/></svg>