<!-- by TradingView --><svg width="18" height="18" viewBox="0 0 18 18" xmlns="http://www.w3.org/2000/svg"><path fill="#F0F3FA" d="M0 0h18v18H0z"/><path d="M4 10.36C4 6.6 8.06 4 10.08 4c-3.19.78-5.12 3.8-5.12 6.06 0 2.25 1.8 3.31 3.35 3.31s3.1-.91 3.69-1.24A6.47 6.47 0 0 1 7.57 14C5.24 14 4 12.4 4 10.36Z" fill="#754196"/><path d="M11.52 4C9.94 4 8.52 5.09 8 5.67c.7-.53 1.9-1 2.9-1 .99 0 2.2.6 2.2 2.59 0 3.65-2.85 5.22-3.9 5.74 3.4-.82 4.8-4.3 4.8-6.05C14 5.19 12.92 4 11.52 4Z" fill="#AD77B5"/><path fill-rule="evenodd" d="M9.62 6C8.42 6.04 6 6.8 6 9.6c0 1.08.46 2.4 2.63 2.4s3-1.14 3-1.55c0-.2-.17-.32-.44-.32-.18 0-.45.15-.73.35-.45.3-1.03.6-1.77.6-.33 0-1.2-.3-1.2-1.54l.01-.16h3c.5 0 1.5-.11 1.5-1.15C12 6.93 11.25 6 9.62 6Zm.88 2.63c0-1.05-.32-1.5-1.14-1.5-.85 0-1.46.63-1.73 1.5h2.87Z" fill="#68A143"/></svg>