<!-- by TradingView --><svg width="18" height="18" viewBox="0 0 18 18" xmlns="http://www.w3.org/2000/svg"><path fill="#F0F3FA" d="M0 0h18v18H0z"/><path d="M2 9c0-2.2 1.75-4 3.92-4 2.16 0 3.9 1.8 3.9 4s-1.74 4-3.9 4A3.96 3.96 0 0 1 2 9Zm3 .33h2.66C7.73 8.17 7.13 7 5.88 7 4.76 7 4 7.83 4 9c0 1.18.72 2 1.88 2 .83 0 1.43-.44 1.72-1.33h-.9c-.06.23-.38.54-.79.54-.56 0-.87-.22-.9-.88Zm1.63-.66h-1.6c.01-.3.2-.86.82-.86.45 0 .68.3.78.86Z" fill="#0C3484"/><path d="M12.09 13C14.25 13 16 11.2 16 9c0-2.21-1.75-4-3.91-4a3.96 3.96 0 0 0-3.92 4c0 2.2 1.75 4 3.92 4Zm-.67-5.35c.25-.44.62-.65 1.03-.65 1.04 0 1.3.64 1.3 1.6V11h-1V8.8c0-.65-.19-.9-.6-.9-.5 0-.73.3-.73 1.06V11h-1V7h1v.65Z" fill="#17B1E6"/></svg>