<!-- by TradingView --><svg width="18" height="18" viewBox="0 0 18 18" xmlns="http://www.w3.org/2000/svg"><path fill="#F0F3FA" d="M0 0h18v18H0z"/><path d="M8.92 4h.15c.13 0 .23.02.3.04l4.33 1.1c.11.03.21.08.27.18.03.06.03.23.03.3l-4.68 1.2v6.56l4.68-1.2v.36c0 .05 0 .08-.02.1-.03.11-.14.18-.25.21l-4.33 1.1c-.1.03-.2.05-.33.05h-.15c-.13 0-.22-.02-.27-.03L4.3 12.86c-.15-.04-.28-.1-.3-.26V5.4c.03-.17.17-.23.33-.27l4.3-1.1c.07-.01.17-.03.3-.03ZM5.56 5.42l3.43.88H9l3.43-.88c.01 0 .01 0 0 0L9 4.53h-.02a11807.9 11807.9 0 0 0-3.43.88Zm3.13 1.4L4.63 5.78v1.8l4.05 1.04v-1.8ZM4.63 9.96 8.68 11V9.22L4.64 8.18v1.78Zm0 2.38 4.05 1.04V11.6l-4.05-1.03v1.77Z" fill="#003142"/><path d="M14 5.62v1.8l-2.5.62v.58l2.5-.6v1.79l-2.5.62V11l2.5-.6v1.79l-4.68 1.19V6.8L14 5.62Z" fill="#00D0CE"/><path d="M14 7.43v.6l-2.5.6v-.6l2.5-.6ZM14 9.8v.6l-2.49.6h-.01v-.57l.01-.02L14 9.8Z" fill="#003142"/></svg>