<!-- by TradingView --><svg width="18" height="18" viewBox="0 0 18 18" xmlns="http://www.w3.org/2000/svg"><path fill="#F0F3FA" d="M0 0h18v18H0z"/><path d="M14 4H4v1H9.86c.49 0 .89.42.89.94v.29c0 .32-.15.6-.39.77.24.17.39.45.39.77v.3c0 .51-.4.93-.9.93H4v5h10V7.18h-2.46V9H11V5h.54v1.64H14V4ZM4 8.45h3V5.55H4v1.09h1.79v.54H4v1.27Zm3.54-2.9h2.08c.33 0 .6.24.6.54 0 .3-.27.55-.6.55H7.54v-1.1Zm0 1.63h2.08c.33 0 .6.29.6.64 0 .35-.27.63-.6.63H7.54V7.18Z" fill="url(#a)"/><defs><linearGradient id="a" x1="9" y1="4" x2="9" y2="14" gradientUnits="userSpaceOnUse"><stop offset=".69" stop-color="#2B78D9"/><stop offset=".77" stop-color="#F2F8FF"/><stop offset=".84" stop-color="#479136"/></linearGradient></defs></svg>