<!-- by TradingView --><svg width="18" height="18" viewBox="0 0 18 18" xmlns="http://www.w3.org/2000/svg"><path fill="#F0F3FA" d="M0 0h18v18H0z"/><path d="M8.02 6.94a774.53 774.53 0 0 0-3.81 1.7 172.11 172.11 0 0 1 .14-1.67c.04-.37.17-.65.4-.84.08-.07.35-.2.8-.4a1275.44 1275.44 0 0 0 3.1-1.4c.44-.2.71-.3.82-.32.3-.04.6.04.93.25a188.27 188.27 0 0 1 1.41.97c0 .01 0 .02-.02.03L8.02 6.94Zm1.44 3.02-3.52 1.58c-.4.17-.67.26-.82.27-.32.02-.6-.1-.86-.37a.96.96 0 0 1-.26-.76 50 50 0 0 1 .14-1.33h.04c.2.14.35.22.48.25.17.05.36.02.55-.06a1183.02 1183.02 0 0 1 6.66-2.98c.2-.09.32-.2.4-.36.06-.12.1-.3.12-.52 0-.02 0-.03.02-.03h.03l1.11.76c.26.18.4.41.44.68a1 1 0 0 1-.26.87c-.1.1-.36.25-.75.42L9.46 9.96Zm-.7 3.97A413.5 413.5 0 0 0 13.1 12a1 1 0 0 0 .45-.47c.06-.1.1-.3.13-.6l.16-1.53c0-.04-.01-.06-.05-.04a1553.11 1553.11 0 0 1-7.57 3.38c-.04.02-.04.04 0 .07l1.31.87c.25.17.44.27.56.3.26.05.48.04.67-.04Z" fill="url(#a)"/><defs><linearGradient id="a" x1="4" y1="11.66" x2="14" y2="12.02" gradientUnits="userSpaceOnUse"><stop stop-color="#FF9C08"/><stop offset="1" stop-color="#FDCA01"/></linearGradient></defs></svg>