<!-- by TradingView --><svg width="18" height="18" viewBox="0 0 18 18" xmlns="http://www.w3.org/2000/svg"><path fill="#F0F3FA" d="M0 0h18v18H0z"/><path d="m9.38 13.94-.37.01A5 5 0 0 1 4 8.98a5.02 5.02 0 0 1 9.37-2.47l-1.42-.44-.34 1.05C11.11 6 10.15 5.25 9 5.25 7.27 5.25 6 6.93 6 9c0 2.07 1.27 3.75 3 3.75.28 0 .55-.05.81-.13l-.43 1.32Z" fill="#32B146"/><path d="M8.83 13.95c.06-.06.16-.13.16-.3 0-.07-.06-.25-.15-.5a6.67 6.67 0 0 1-.46-1.97c0-.94.2-1.94 1.63-3.51.56-.7.84-1.38.84-2.1 0-.6-.32-1.3-.49-1.57A4.96 4.96 0 0 1 14 9.03c0 3.18-2.32 4.6-3.95 4.97a8.85 8.85 0 0 0 2.76-5.59c-.23.62-.71 1.95-.8 2.15-.87-.11-1.32-.84-1.57-1.25 0 .77.98 1.48 1.24 1.64a18.84 18.84 0 0 1-2.3 2.98c-.16.02-.41.02-.55.02Z" fill="url(#awhxd4sb2)"/><path d="M12.75 8.26c0-1.72-1.3-3.47-1.86-4.1.79.37 2.8 2.42 2.8 4.7 0 3.08-2.1 4.56-3.13 4.83.71-1.04 2.19-3.72 2.19-5.43Z" fill="#32B146"/><defs><linearGradient id="awhxd4sb2" x1="8.39" y1="10.93" x2="14" y2="10.93" gradientUnits="userSpaceOnUse"><stop stop-color="#069043"/><stop offset="1" stop-color="#02561B"/></linearGradient></defs></svg>