<!-- by TradingView --><svg width="18" height="18" viewBox="0 0 18 18" xmlns="http://www.w3.org/2000/svg"><path fill="url(#ahmhjco4e)" d="M0 0h18v18H0z"/><ellipse cx="6" cy="5.5" rx="2" ry="1.5" fill="#A4C400"/><ellipse cx="9.34" cy="9" rx="3.09" ry="2" fill="#A4C400"/><path d="M12.86 7.05c.11-.08.27-.06.35.04A3 3 0 0 1 14 8.9c.02.57-.19 1.08-.5 1.5a4.38 4.38 0 0 1-3.09 1.66v2.7c0 .13-.11.24-.25.24a.25.25 0 0 1-.25-.24v-2.64c-2.81.24-4.4-1.06-4.88-1.9a.23.23 0 0 1 .1-.32.26.26 0 0 1 .34.1c.4.68 1.87 1.95 4.66 1.62.27-.04.56-.08.87-.15a3.87 3.87 0 0 0 2.09-1.34c.26-.36.42-.76.4-1.21 0-.45-.2-.96-.67-1.53a.23.23 0 0 1 .04-.34Z" fill="#fff"/><defs><linearGradient id="ahmhjco4e" x1="3.35" y1="3.12" x2="21.9" y2="24.43" gradientUnits="userSpaceOnUse"><stop stop-color="#1A1E21"/><stop offset="1" stop-color="#06060A"/></linearGradient></defs></svg>