<!-- by TradingView --><svg width="18" height="18" fill="none" xmlns="http://www.w3.org/2000/svg"><path fill="#F0F3FA" d="M0 0h18v18H0z"/><path fill-rule="evenodd" clip-rule="evenodd" d="M7 4h3.333S11 4.489 11 5.583c0 1.095-.885 2.94-1.51 3.417.01 0 .163-.623.177-1.424C9.684 6.555 9.233 5.273 7 4Z" fill="#00ABCC"/><path fill-rule="evenodd" clip-rule="evenodd" d="M13 14H9.497S7 11.738 7 10.023C7 8.308 8.88 7 9 7c0 0-.562.617-.5 1.826.06 1.183.948 2.9 4.5 5.174ZM9 14H6.632s-.613-.72-.632-1.808c-.006-.33.316-.942.632-1.192.025 0-.424 1.716 2.368 3Z" fill="#F36F20"/></svg>