<!-- by TradingView --><svg xmlns="http://www.w3.org/2000/svg" width="18" height="18" viewBox="0 0 18 18"><path fill="url(#akfp5n2oh)" d="M0 0h18v18H0z"/><path d="M7.95 6C4.68 6 2.62 7.01 2 7.51c1.83-1 4.74-1.02 5.55-1.02.8 0 6.16.3 6.16 2.64 0 1.87-3.19 2.7-4.78 2.87 5.99-.33 6.44-2.71 5.9-3.62-.54-.9-2.8-2.38-6.88-2.38zm-.46 1.16c-2.17 0-3.53.69-3.94 1.03 1.2-.68 3.14-.7 3.67-.7.54 0 4.08.2 4.08 1.79 0 1.27-2.1 1.82-3.16 1.94 3.96-.22 4.27-1.83 3.9-2.45-.35-.6-1.84-1.6-4.55-1.6zM4.42 8.68a4.2 4.2 0 0 1 2.46-.63c1.69 0 2.62.62 2.84 1 .23.37.04 1.37-2.43 1.51.65-.07 1.97-.42 1.97-1.2 0-.98-2.21-1.1-2.55-1.1-.33 0-1.53 0-2.29.42z" fill="#fff"/><defs><linearGradient id="akfp5n2oh" x1="9" y1="0" x2="9" y2="18" gradientUnits="userSpaceOnUse"><stop stop-color="#036DA4"/><stop offset=".77" stop-color="#080024"/></linearGradient></defs></svg>