<!-- by TradingView --><svg width="18" height="18" viewBox="0 0 18 18" xmlns="http://www.w3.org/2000/svg"><path fill="#F0F3FA" d="M0 0h18v18H0z"/><path d="M11.24 13.47a5 5 0 1 0-1.52.48 6.3 6.3 0 0 1-2.15-2.22c-.49.18-.96.31-1.38.4.46-.2.87-.43 1.24-.67a4.75 4.75 0 0 1-.46-1.84C6.84 7 9.1 5.51 10.25 5.1v.32c-1.18.39-2.38 2.33-2.5 4.21 0 .5.06 1 .2 1.46a5.95 5.95 0 0 0 2.3-5.67v-.32c1.9 3.42-.04 5.43-2.14 6.4.45.97 1.38 1.73 3.13 1.98Z" fill="#00006C"/><path d="m7.57 11.73-.14-.27c.19-.12.36-.25.52-.38l.16.42-.54.23Z" fill="#DC0000"/></svg>