<!-- by TradingView --><svg width="18" height="18" viewBox="0 0 18 18" xmlns="http://www.w3.org/2000/svg"><path fill="#F0F3FA" d="M0 0h18v18H0z"/><path d="M12.48 6.25c-.02.14-.25.69-.67 1.64-.31.72-.83 1.1-1.56 1.15-.48.03-1.03.04-1.66.03-.13 0-.17-.07-.12-.2a4.69 4.69 0 0 1 3.37-2.8c.26-.06.48-.08.68-.06.04 0 .05.03.03.08-.03.05-.06.09-.07.16ZM14.76 9.1c-.96-.02-1.72-.06-2.3-.1-.5-.04-.5-.7-.39-1.1a58.25 58.25 0 0 0 .58-1.88.07.07 0 0 1 .04-.02c.6 0 1.32.25 1.74.7.55.58.7 1.35.45 2.3-.01.07-.06.1-.12.1ZM8.1 8.47l-.16.5-.02.02L7.9 9H3.86l-.01-.02a.05.05 0 0 1-.01-.05l.85-2.9.02-.02.03-.01h4.22l.01.02a.05.05 0 0 1 .01.05l-.48 1.7-.02.02-.03.01H6.12l-.02.03-.15.5a.06.06 0 0 0 0 .05l.03.02h2.1l.01.02a.05.05 0 0 1 .01.05ZM5.42 10.43c-.02.05 0 .07.05.07h2.8l.03-.01.02-.03v-.94c0-.03 0-.05.02-.06a17.75 17.75 0 0 1 1.95.04c.32.03.51.14.5.5-.04.74-.24 1.3-.43 1.95 0 .03-.03.05-.06.05H3.07a.07.07 0 0 1-.06-.03.07.07 0 0 1 0-.06l.75-2.52.05-.07a.12.12 0 0 1 .08-.02h3.87c.04 0 .06.12.04.17l-.1.37c-.03.06-.07.06-.13.06H5.61c-.06 0-.1.06-.12.12l-.07.4ZM14.62 9.2h.1l.03.02.02.02a.08.08 0 0 1 0 .06A4.53 4.53 0 0 1 10.5 12s-.02 0-.02-.02a.06.06 0 0 1 0-.05c.24-.84.63-1.9 1.34-2.35.15-.1.38-.17.69-.23.58-.1 1.29-.15 2.12-.14Z" fill="#008BD2"/></svg>