<!-- by TradingView --><svg width="18" height="18" viewBox="0 0 18 18" xmlns="http://www.w3.org/2000/svg"><path fill="#F0F3FA" d="M0 0h18v18H0z"/><path d="m5.62 8.68-.74 1.27-.59-1.27.6.32.73-.32ZM8.41 13.74l.3-.63-.3-.64 1.18.64-1.18.63ZM9.44 5.53l-.3-.64.3-.63-1.18.63 1.18.64Z" fill="#006CB5"/><path d="m9.66 5.63-.3-.61A4 4 0 0 1 12.88 8h-.59a3.43 3.43 0 0 0-2.62-2.37ZM8.26 5.07l.95.5H9a3.43 3.43 0 0 0-3.4 2.95l-.6.26a4 4 0 0 1 3.26-3.71ZM12.28 10a3.43 3.43 0 0 1-3.66 2.4l1 .55A4 4 0 0 0 12.88 10h-.59Z" fill="#006CB5"/><path d="M8.48 12.97a4 4 0 0 1-3.38-3.1c.29-.5.5-.74.81-1.19H10v.64H5.59a3.43 3.43 0 0 0 2.59 3.01l.3.64Z" fill="#006CB5"/><path d="M7.53 9.47 4 15l4.26-5.37.15 1.26.88-1.42H7.53ZM10.03 8.53H7.97L9.3 6.79v1.26L14 3l-3.97 5.53Z" fill="#EC6521"/></svg>