<!-- by TradingView --><svg width="18" height="18" viewBox="0 0 18 18" xmlns="http://www.w3.org/2000/svg"><path fill="#05376C" d="M0 0h18v18H0z"/><path d="M7.74 9v2H7.1v1h2.2v-1h-.63V9.4h.23c.41 0 .73.24.73.79v.9c0 .64.19.91.64.91h2.2v-1h-.52l.16-.8h.96l.16.8h-.45v1H15v-1h-.36l-.43-2h-1.36l.1.47h-.7l.12-.47h-.84L11 11h-.07c-.11-.09-.14-.16-.14-.49v-.5c0-.63-.18-.85-.75-1l.02-.01H7.74ZM3.63 9v2H3v1h3.79V9.6h-.95V11H4.58V9.3h.63v.73h.32V9h-1.9Z" fill="#FFFFFB"/><path fill-rule="evenodd" d="M10.2 9H8V7.2h-.58V6h2.19c.86 0 1.13.45 1.13 1.67 0 .68-.07 1.07-.53 1.33ZM9 8.7V7.2h.33c.3 0 .4.19.4.75 0 .55-.13.75-.4.75H9Z" fill="#FFFFFB"/><path d="M5.84 9h-1.9V7.2h-.62V6H7v2.4h-.84V7.2H4.9v1.71h.63V8.1h.31V9ZM14.53 9l-.5-3h-1.56l-.63 3h.9l.24-1.02.23 1.02h1.32Z" fill="#FFFFFB"/></svg>