<!-- by TradingView --><svg width="18" height="18" viewBox="0 0 18 18" xmlns="http://www.w3.org/2000/svg"><path fill="#F0F3FA" d="M0 0h18v18H0z"/><path d="M6.86 7.4c.12.65.46 1.15 1.03 1.5a3.31 3.31 0 0 0 1.07.43 3.23 3.23 0 0 0 .06.33c-.47-.07-.9-.23-1.3-.45a2.6 2.6 0 0 1-.75-.65 6.06 6.06 0 0 1-.36-.67 3.35 3.35 0 0 1 .03-2.7h.01l.01.02c-.06.29-.05.59.01.89.1.4.31.7.66.91.07.05.2.1.4.15.44.12.8.34 1.12.65a.06.06 0 0 1 0 .09l-.18.18c-.04.03-.07.03-.1 0a2.82 2.82 0 0 0-.29-.24 2.4 2.4 0 0 0-1.4-.49.04.04 0 0 0-.02.03v.02ZM9.28 7.36a.31.31 0 0 1-.24-.11c-.04-.04-.05-.08-.05-.11v-.09A.1.1 0 0 0 8.97 7a1.1 1.1 0 0 1-.17-.43.03.03 0 0 0-.03-.01.34.34 0 0 1-.4-.1c-.02-.02-.02-.03 0-.04l.1-.04c.05-.03.05-.05 0-.07a.26.26 0 0 1-.17-.17c-.07-.19-.04-.35.1-.49.08-.1.1-.08.05.05-.02.04 0 .1.03.2.07.16.19.24.35.22a4.34 4.34 0 0 1 .9 0c.17.02.28-.06.35-.23.04-.08.05-.15.03-.2-.05-.12-.03-.13.06-.04.13.14.16.3.1.5a.26.26 0 0 1-.17.16c-.06.02-.06.04 0 .07l.08.04c.03 0 .03.02.01.04a.34.34 0 0 1-.4.1.03.03 0 0 0-.02 0l-.01.02a1.1 1.1 0 0 1-.17.42.1.1 0 0 0-.02.05v.09c0 .03 0 .07-.04.1a.3.3 0 0 1-.25.12Zm.89-1.57c-.02 0-.03 0-.03.02.02.14-.03.24-.16.31a.53.53 0 0 1-.27.07.04.04 0 0 0-.05.06c.02.06.04.1.09.13h.05c.02-.04.07-.06.13-.06a.3.3 0 0 0 .13-.05c.16-.1.2-.25.16-.44l-.01-.01-.04-.03Zm-1.41.55.06.03h.04c.04-.06.04-.11 0-.15a.07.07 0 0 0-.05-.03.43.43 0 0 1-.34-.17c-.04-.06-.05-.14-.07-.2-.01-.01-.02-.02-.04 0-.03 0-.04.02-.04.06-.01.27.12.42.39.44l.05.02Zm.7.53L9.5 7V7h.02l.01.01c.02 0 .02 0 .02-.02 0-.07.04-.14.1-.21a.62.62 0 0 0 .09-.3.06.06 0 0 0-.02-.04.31.31 0 0 1-.09-.18c0-.02-.01-.03-.03-.03h-.16c-.02 0-.03 0-.02-.03V6.2c0-.02 0-.03-.02-.03h-.23c-.02 0-.04 0-.04.02l.03.03v.03h-.02l-.03-.01a.31.31 0 0 0-.12-.06c-.02-.01-.03 0-.04.02v.13l-.08.13a.11.11 0 0 0-.01.05c0 .06.01.11.04.17l.05.14c0 .02.02.03.03.04.04.03.06.07.07.12 0 .03.02.04.04.02.03 0 .05-.04.06-.1 0-.03.02-.03.03-.01.03.02.03.03.03.04-.04.05-.03.08.05.08.13.02.2-.02.18-.1v-.03c.02-.03.03-.03.04 0Zm-.83-.34c.06 0 .11-.02.14-.05.04-.05.03-.06-.03-.06a1.61 1.61 0 0 1-.23 0c-.06 0-.07.02-.03.06.03.03.08.05.15.05Zm1.46-.1c-.05-.02-.12 0-.2 0h-.06l-.02.06c0 .02.02.03.04.03.1.02.18 0 .25-.05v-.01a.02.02 0 0 0 0-.03h-.01Zm-.8.65a.24.24 0 0 1-.11-.03c-.04-.02-.07-.01-.1.01l.01.05c.03.03.05.06.05.1 0 .02.02.03.04.02a.38.38 0 0 1 .1-.02.4.4 0 0 1 .1.02c.03 0 .04 0 .05-.03 0-.03.02-.06.04-.09.02-.02.02-.03 0-.05-.02-.03-.05-.03-.08-.01a.23.23 0 0 1-.1.03Z"/><path fill-rule="evenodd" d="M10.72 3.74a4.74 4.74 0 0 1 3.89 3.37 5.13 5.13 0 0 1 .03 2.84.09.09 0 0 1-.06-.06 71.92 71.92 0 0 1-.45-.87c-.04-.07-.05-.12-.04-.16.27-.77.24-1.54-.09-2.3a2.85 2.85 0 0 0-.7-1.02A2.44 2.44 0 0 0 10.88 5c-.42.11-.81.23-1.17.35-.22.07-.39.1-.51.1-.47 0-.9-.28-1.05-.7-.16-.45.08-.98.56-1.09.32-.07.6.01.82.26.12.13.14.27.06.42a.37.37 0 0 1-.47.18.43.43 0 0 0-.12-.04c-.02 0-.03.01-.01.03.1.11.2.15.32.14a.5.5 0 0 0 .33-.22c.17-.23.1-.45-.1-.64a.97.97 0 0 0-.86-.27c-.25.03-.5.12-.72.25-.63.39-1.02.93-1.19 1.64-.08.35-.03.69.17 1.02.17.24.38.4.62.47.56.17 1.03.42 1.4.75.04.04.07.1.07.2.01.03.04.04.08.03a3.17 3.17 0 0 1 2.42-.47 3.91 3.91 0 0 1 2.74 2.18c.3.64.4 1.58-.02 2.2-.24.36-.63.62-1.06.64-.38.01-.65-.17-.8-.54-.2-.47.1-.96.58-1.05.18-.03.32.03.42.18.06.1.07.2.03.31-.03.08-.1.13-.17.2l-.03.02c-.07.05-.06.06.02.05.15-.02.25-.11.3-.27.05-.18 0-.34-.15-.47-.2-.16-.4-.19-.65-.07a.92.92 0 0 0-.53.84c-.02.4.1.77.38 1.1.1.1.18.19.25.24l.02.04-.01.03a4.74 4.74 0 0 1-3.12 1.73 5.34 5.34 0 0 1-4.3-1.38c-.05-.04-.04-.07.02-.07.2 0 .43-.01.72-.04.23-.02.38.02.53.19.55.62 1.27.95 2.12.98a3.1 3.1 0 0 0 1.85-.44c.83-.57 1.06-1.6 1.2-2.5.05-.24.1-.4.15-.5.28-.54.93-.82 1.49-.5.23.14.37.37.4.64.02.4-.17.67-.6.81a.49.49 0 0 1-.24.01.35.35 0 0 1-.23-.53 2 2 0 0 1 .09-.14c.1-.1.1-.1-.03-.05-.36.17-.26.69.1.8.1.04.22.04.35 0 .4-.1.66-.46.77-.84.05-.17.07-.37.04-.6a2.53 2.53 0 0 0-.88-1.72c-.46-.4-.96-.46-1.5-.2-.06.04-.21.15-.43.34-.37.3-.8.52-1.3.64-.02 0-.03-.01-.04-.06l-.1-.22.03.42c.02.5-.08.97-.31 1.4-.47.9-1.21 1.5-2.22 1.78-.76.22-1.57.26-2.32-.02-.66-.25-1.25-.7-1.34-1.4-.04-.3 0-.55.1-.75a.86.86 0 0 1 1.18-.33c.2.11.32.28.38.49.09.34-.08.81-.54.68-.17-.05-.21-.2-.24-.36 0-.08-.03-.09-.05 0-.14.46.47.63.77.35.32-.3.22-.81-.07-1.1-.48-.45-1.13-.5-1.75-.3H3.5a4.41 4.41 0 0 1-.24-2.7.37.37 0 0 0-.15-.09c-.2.99-.12 1.94.23 2.85.02.06.07.1.15.11.03.01.09 0 .16-.03.11-.05.22-.08.32-.1.08 0 .1.02.04.08-.35.42-.54.87-.39 1.4.1.37.33.69.68.95l1.2.93A5.9 5.9 0 0 0 8.8 15a6.45 6.45 0 0 0 2.68-.6c.62-.3 1.13-.72 1.52-1.25a.26.26 0 0 0 .06-.17l-.38-.36c-.1-.1-.1-.14.02-.1.61.18 1.13.03 1.56-.46.23-.26.36-.57.4-.92.07-.69.16-1.32.28-1.88.05-.27.07-.52.05-.75a7.46 7.46 0 0 0-.32-1.7 4.75 4.75 0 0 0-2-2.5 5.37 5.37 0 0 0-2.02-.74c-.1-.02-.16.02-.18.1a2.4 2.4 0 0 1-.14.51c-.02.06-.04.06-.06 0-.14-.46-.4-.9-.9-1.05A1.91 1.91 0 0 0 8.7 3c-.11 0-.31.06-.6.15-.12.04-.27.11-.4.18l-.13.07c-.1.04-.23.1-.41.14a6.3 6.3 0 0 0-1.51.61A5.39 5.39 0 0 0 3.1 7.47c.06.02.1.05.15.1.2-.87.6-1.61 1.19-2.24A5.36 5.36 0 0 1 7.1 3.8c.06-.01.06 0 .03.04-.24.27-.45.56-.65.86-.04.07-.1.1-.18.1-.75.1-1.33.48-1.82 1.05-.28.34-.49.67-.6.99-.19.5-.21 1-.08 1.47.24.81.96 1.4 1.6 1.93l.09.07c.2.17.34.39.4.66a.98.98 0 0 1-.65 1.16.82.82 0 0 1-.69-.1c-.29-.17-.4-.44-.35-.8a.5.5 0 0 1 .13-.28c.2-.2.58-.11.64.18l.03.1c.02.07.04.07.05 0 .09-.38-.4-.58-.7-.42a.5.5 0 0 0-.21.28c-.08.2-.08.42.01.65.12.28.28.5.5.63.57.36 1.18.5 1.84.42.4-.05.7-.17.93-.35.3-.24.45-.55.46-.94 0-.07-.03-.25-.08-.53a3 3 0 0 1 .1-1.43.03.03 0 0 1 .02 0l.16.07.1-.02c-.38-.22-.63-.38-.76-.47A3.2 3.2 0 0 1 6.19 5.9c.11-.59.35-1.13.7-1.62.23-.31.51-.57.84-.77.34-.2.67-.31.98-.33.56-.04 1.24.3 1.36.87.15.72-.77 1.28-1.35.76-.15-.13-.21-.34-.1-.53.12-.18.3-.2.56-.08h.04l.02-.02v-.01l.01-.02a.03.03 0 0 0-.02-.03c-.19-.1-.38-.16-.56 0-.25.2-.28.43-.11.68.3.42.95.38 1.34.11.37-.25.53-.6.7-1l.06-.13a.05.05 0 0 1 .06-.03ZM6 5.84l.26-.8.02-.03c.02-.01.02-.03.01-.04l-.01-.02h-.03c-.82.17-1.45.6-1.9 1.3-.16.27-.27.47-.32.6-.59 1.37.38 2.4 1.4 3.2a2 2 0 0 1 .4.38c.2.29.28.62.25 1 0 .09-.05.2-.15.34-.23.33-.55.51-.94.54-.09.01-.1.03-.01.07.54.26 1.1.33 1.7.21.59-.12 1.02-.48 1.01-1.1 0-.13-.01-.28-.05-.48-.08-.47-.07-.91.04-1.38.02-.07-.04-.15-.1-.18a3.13 3.13 0 0 1-1.42-1.8c-.14-.45-.21-.93-.21-1.43 0-.08.01-.2.05-.37Zm5.28-.75c1.24-.2 2.05.48 2.55 1.5a2.73 2.73 0 0 1 .12 2.15.04.04 0 0 1-.04 0h-.01l-.24-.3a3.9 3.9 0 0 0-2.45-1.22 3.35 3.35 0 0 0-2.02.42h-.04c-.29-.28-.62-.5-1-.67l-.59-.23a1.02 1.02 0 0 1-.65-.7c-.03-.2-.03-.4.02-.61.16-.64.51-1.13 1.07-1.48.04-.02.05-.01.03.03-.1.24-.13.47-.08.7.14.6.7.94 1.32.93.12 0 .3-.05.55-.12.44-.15.95-.32 1.46-.4Zm-4.54 8.22v.01c.38.43.84.72 1.4.87.59.17 1.17.17 1.76.02.8-.22 1.31-.87 1.56-1.62.15-.45.26-.89.34-1.32.04-.23.1-.4.15-.5.1-.14.23-.26.4-.35.48-.28.94-.25 1.36.08.09.06.17.17.23.26.05.08.07.07.06-.02-.03-.39-.13-.74-.3-1.04a2.2 2.2 0 0 0-.66-.78 1.04 1.04 0 0 0-1.02-.15c-.14.06-.33.17-.57.35a5 5 0 0 1-.99.59c-.24.1-.38.2-.4.47a2.94 2.94 0 0 1-.68 1.71 4.1 4.1 0 0 1-2.64 1.42Z" fill="url(#a)"/><path d="m9.22 6.56-.12-.12c-.03-.03-.03-.04 0-.03.06 0 .1.04.14.1v.04l-.02.01ZM9.43 6.56v.03l.02.01h.04a.38.38 0 0 1 .12-.1c.04-.02.05-.01.04.02l-.02.05c0 .03-.03.05-.06.06-.05.01-.08.05-.1.11 0 .03-.01.03-.02 0l-.07-.19c-.01-.02 0-.03.01-.05l.1-.05c.02-.02.03-.02.01.01a.79.79 0 0 1-.07.1ZM8.98 6.6a1.88 1.88 0 0 1-.03-.06c-.02-.06 0-.08.05-.03l.16.1c.02 0 .03.01.03.03 0 .05 0 .07-.03.08-.02.01-.03 0-.05-.01a.13.13 0 0 0-.08-.06.07.07 0 0 1-.05-.04ZM11.51 8.01a2.18 2.18 0 0 0-1.39-.04 2.93 2.93 0 0 0-1.36.9l-.32-.1c.21-.27.45-.5.7-.7.34-.25.7-.42 1.1-.5a3.62 3.62 0 0 1 3.38 1.32l-.03.01a2.05 2.05 0 0 0-1.07-.48c-.46-.06-.84.06-1.15.37l-.23.22c-.29.24-.6.4-.97.5-.03 0-.05 0-.07-.04l-.07-.25v-.04c.01-.02.02-.03.04-.03a2.58 2.58 0 0 0 1.47-1.1.04.04 0 0 0-.01-.03h-.02Z"/><path d="M9.03 7.86c.01.03.04.04.08.03l-.32.26c-.12.1-.21.18-.27.27a9.07 9.07 0 0 1-.26.4v.02c.15.1.31.14.49.15.13.01.19.01.28-.1.25-.3.55-.53.88-.65a3.05 3.05 0 0 1 1.42-.16.02.02 0 0 1 0 .03c-.14.18-.27.32-.4.43-.29.22-.6.4-.93.52a.1.1 0 0 0-.05.04.1.1 0 0 0-.01.07l.07.45-.1-.22-.1-.46a1.27 1.27 0 0 0-.2-.45.05.05 0 0 0-.05 0c-.18.13-.34.28-.5.47V9c.03.02.06.04.07.08.08.16.12.37.13.62.01.31 0 .55-.03.72a1.75 1.75 0 0 1-.5.95H8.7a.05.05 0 0 1-.03-.02c-.3-.42-.3-1.02-.16-1.49.02-.03 0-.06-.03-.07l-.4-.2.1-.02.27.12c.08.04.17.06.25.06a3.58 3.58 0 0 1 .47.03.03.03 0 0 0 .01-.03c0-.22-.04-.43-.12-.63a.1.1 0 0 0-.04-.05.1.1 0 0 0-.07-.02.91.91 0 0 1-.71-.16 2.9 2.9 0 0 0-.28-.2 1.87 1.87 0 0 1-.87-1.1.04.04 0 0 1 .02-.03h.02c.52-.05 1.07.27 1.42.63l.03.01h.04l.41-.35Z"/><path d="M6.57 5.7c-.02.55.22 1.02.7 1.4a3.04 3.04 0 0 1 1.5.76.04.04 0 0 1 0 .03L8.65 8a.04.04 0 0 1-.05 0 2.54 2.54 0 0 0-1.77-.7.06.06 0 0 0-.03.03v.02c.03.25.1.48.2.7a2.65 2.65 0 0 0 1.85 1.31c.02 0 .04.02.05.04l.04.15a.02.02 0 0 1-.03.03 3.18 3.18 0 0 1-1.86-1.03c-.1-.11-.17-.24-.23-.38a3.2 3.2 0 0 1-.4-1.29 3.76 3.76 0 0 1 .11-1.23h.01a.06.06 0 0 1 .01.01l.01.02v.02Z" fill="url(#b)"/><path d="M12.59 8.07c.23.14.44.3.63.48.01.01.01.02-.01.01a.42.42 0 0 1-.12-.04l-.1-.05c-.56-.2-1.14-.18-1.6.2-.32.37-.7.62-1.16.76-.04.01-.07 0-.08-.04l-.05-.12c-.01-.04 0-.06.04-.08.4-.13.75-.33 1.07-.62l.26-.28.15-.25a.05.05 0 0 0 0-.03.04.04 0 0 0 0-.02.05.05 0 0 0-.03-.02 2.3 2.3 0 0 0-1.99.15 3.55 3.55 0 0 0-.86.67l-.17-.05a.01.01 0 0 1-.01 0 .01.01 0 0 1 0-.02c.22-.26.46-.48.72-.65.38-.3.8-.45 1.22-.48.73-.05 1.43.1 2.09.48Z" fill="url(#c)"/><path d="M8.65 11.65c.42-.36.69-.83.76-1.37a2.74 2.74 0 0 0-.19-1.37l.01-.01.24-.23a.01.01 0 0 1 .01 0 .01.01 0 0 1 .01 0c.2.52.3 1 .3 1.45-.02.34-.09.65-.23.94-.08.17-.22.38-.42.63A3.53 3.53 0 0 1 6.87 13c-.03 0-.03 0 0-.02l.27-.14c.3-.15.53-.36.73-.65.13-.2.2-.44.2-.74 0-.07-.03-.22-.1-.46-.1-.4-.1-.81 0-1.21.01-.05.04-.06.09-.05l.23.07c.05 0 .06.04.05.08a2.34 2.34 0 0 0 .27 1.77.04.04 0 0 0 .03 0h.01ZM6.1 9.3c0-.06.04-.1.12-.1h.03l.13.07.05.01.16-.03c.05-.01.1 0 .16.01a28.85 28.85 0 0 1 .19.06l.02-.01c.1-.08.2-.08.3.02.02.03.03.06.03.1 0 .05-.02.1-.05.12l-.02.02c0 .03 0 .06.05.08a.05.05 0 0 1 .02.05c0 .05.01.1.04.13a.1.1 0 0 1 .02.06v.21a12.53 12.53 0 0 1-.11.23.5.5 0 0 1-.16.16l-.24.18-.24.11h-.05a.37.37 0 0 1-.12-.07 1.56 1.56 0 0 0-.18-.19.7.7 0 0 1-.18-.18 1.45 1.45 0 0 0-.09-.18c-.11-.18-.02-.46.13-.6a.03.03 0 0 0 0-.03.03.03 0 0 0-.01-.02c-.04-.02-.06-.04-.06-.07-.01-.03 0-.06.03-.09a.09.09 0 0 0 .03-.05Zm.03.04H6.1c-.01 0-.02.01-.02.03 0 .05.02.09.05.11.05.03.06.01.05-.03-.02-.07 0-.12.05-.14.07-.04.06-.06-.01-.06-.05-.01-.08.02-.1.08Zm.93.17c.02.03.04.04.07.04l.05-.02a.1.1 0 0 0 .04-.05.09.09 0 0 0-.02-.1l-.07-.07-.02-.02h-.03c-.04 0-.08.02-.1.07l-.02.01-.02.01-.33.03c-.02 0-.03.01-.03.03-.03.08-.06.14-.1.17-.02.01-.03 0-.02-.02.02-.08.01-.14-.02-.19-.01-.02 0-.03.02-.02.09.04.15.03.2-.02a.05.05 0 0 1 .05-.01l.07.02.04-.01v-.03l-.02-.02a.28.28 0 0 0-.12-.03c-.12 0-.24.02-.34.05a.12.12 0 0 0-.04.02.1.1 0 0 0-.03.03.1.1 0 0 0 0 .04v.04c0 .01 0 .03-.04.06l-.15.16a.09.09 0 0 0-.02.05.3.3 0 0 1-.03.1.2.2 0 0 0 0 .15c.04.16.12.3.25.4.01.01.02.01.02-.01v-.02c0-.02.01-.03.03-.02.09.02.18.02.27 0 .03 0 .04-.02.04-.04v-.1c0-.02.02-.04.05-.03.06 0 .11-.01.16-.04l.02-.01.1-.2-.01-.04c-.05-.03-.06-.06-.04-.1a.08.08 0 0 0 0-.06c0-.02-.01-.04-.03-.05-.02 0-.03 0-.03.02v.03c0 .02-.01.03-.03.03h-.04l-.01-.01V9.7l-.02-.01c-.04 0-.09.03-.14.1a.05.05 0 0 1-.04.02.06.06 0 0 1-.05-.03l-.01-.02a.05.05 0 0 0-.06-.02c-.07.01-.1.06-.1.13 0 .02-.01.02-.03 0-.03-.02-.04-.06-.02-.1 0-.03 0-.05-.03-.05h-.03c-.03 0-.05.02-.05.05-.02.13.02.22.14.28h.05c.09-.02.14.01.17.1a.06.06 0 0 1-.01.05c-.04.04-.1.06-.17.06a.06.06 0 0 1-.05-.03l-.04-.06a.08.08 0 0 0-.04-.03c-.03-.01-.07-.05-.1-.11a.38.38 0 0 1 .02-.37.08.08 0 0 1 .06-.04.08.08 0 0 1 .07.03c.05.05.09.05.14.02.02-.02.04-.01.05 0l.02.02h.04a.39.39 0 0 1 .15-.05l.05.01c.01.02.03.02.06 0l.03-.04c0-.02.02-.02.04-.01.08.03.13.07.16.11l.02.12c0 .04 0 .09.02.12v.05a.7.7 0 0 1-.28.35.05.05 0 0 1-.05 0l-.07-.03h-.01a.04.04 0 0 0-.03 0h-.01l-.07.13-.04.03c-.02 0-.05 0-.1-.04l-.04.01v.04c.03.08.1.13.19.14.04 0 .1-.02.16-.05.1-.06.18-.1.24-.18a.35.35 0 0 1 .08-.09c.06-.03.1-.12.16-.21.03-.06.03-.11 0-.16l-.02-.02V9.9l.03-.04a.04.04 0 0 0 0-.04l-.11-.22a.14.14 0 0 0-.04-.04.19.19 0 0 1-.04-.04V9.5h.02Zm-.56.9v.02h.03v-.01H6.5Z"/><path d="M7.07 9.48c-.05-.01-.06-.05-.05-.1.01-.02.02-.03.05-.02a.2.2 0 0 1 .1.06c.02.02.02.03 0 .05-.02.02-.05.03-.1.01ZM6.73 9.86c.02 0 .04-.02.04-.05a.05.05 0 0 0-.04-.04.05.05 0 0 0-.05.04c0 .03.02.05.05.05ZM10.58 10.12c-.07.02-.1.06-.1.12 0 .02 0 .03.02.01.05-.02.07-.07.08-.13.13.04.2-.07.28-.09.03 0 .04 0 .03.02a.23.23 0 0 1-.05.07c-.13.07-.2.11-.23.14a.86.86 0 0 0-.13.17.04.04 0 0 0 0 .05c.07.08.1.2.18.27l.16.12c.05.03.07.02.05-.04-.03-.1-.05-.2-.05-.26 0-.02 0-.03.03-.02.02 0 .03.02.04.04l.02.09c.01.07.04.15.08.24v.05a.2.2 0 0 1-.1.04.04.04 0 0 1-.03 0l-.11-.07h-.03v.04l.09.05c.02.01.02.03.02.05 0 .04.03.07.1.08.01 0 .03.02.03.04l.03.06c0 .01 0 .02-.02.03l-.12.04c-.01 0-.02 0-.02-.02v-.13l-.01-.03a5.01 5.01 0 0 1-.2-.19c-.03 0-.03 0-.03-.02 0-.06-.05-.1-.13-.1a.1.1 0 0 1-.05-.03.46.46 0 0 1-.2-.39l-.02-.05a.32.32 0 0 1 .02-.35h.02c.01 0 .02 0 .01.02a.37.37 0 0 0-.03.12c0 .1.03.11.07 0a.34.34 0 0 1 .06-.1c.08-.1.1-.09.04.03l-.06.15c-.02.05-.02.08 0 .1.04.05.06.04.07-.03 0-.04 0-.09.03-.13a13.64 13.64 0 0 1 .17-.25h.05v.02l-.06.17Zm-.11.63v-.06a.47.47 0 0 0-.07-.11.63.63 0 0 0-.08-.1c-.02-.03-.04-.04-.05-.03v.06a.47.47 0 0 0 .07.11c.02.04.05.08.08.1.02.03.04.04.05.03Z"/><path d="M11.15 11.42h.01l.02-.01v-.03a.48.48 0 0 1-.04-.21c0-.02 0-.04.02-.05.05-.04.1-.05.15-.03l.02-.01v-.06a.24.24 0 0 0-.21 0c-.01 0-.02 0-.02-.02V11c.05-.02.09-.04.1-.1a3.55 3.55 0 0 0 .12-.35l.03.01a.03.03 0 0 1 .02.02.03.03 0 0 1 0 .02l-.08.26v.02l.02.01.02.01h.02c.1-.08.22-.14.26-.26.03-.05.05-.1.1-.15a.03.03 0 0 0 0-.04.82.82 0 0 0-.39-.32l-.03-.05c0-.03 0-.04.03-.03.03 0 .06.02.08.05.06.04.1.05.18.05.02 0 .03.01.03.03.01.04.03.07.06.09.02.01.03 0 .03-.02 0-.06-.02-.09-.07-.1h-.02l-.01-.02-.06-.16c0-.02 0-.03.02-.03h.02c.02 0 .03.01.04.03l.11.18c.05.07.04.1.05.2 0 .03.02.04.05.03.13-.07.17-.17.11-.3l.01-.03h.02l.02.01c.06.14.06.24 0 .32a.09.09 0 0 0-.02.06c0 .2-.08.33-.27.41-.01.01-.02.03-.01.04v.08a.34.34 0 0 1-.24.19v-.02l.01-.02c.08-.02.12-.05.13-.08.04-.1 0-.13-.1-.08-.03.01-.05.05-.07.1l-.03.03-.03.01-.02.01v.02a.03.03 0 0 0 .02.03c.03.01.04.04.02.08a.06.06 0 0 0-.01.05 2 2 0 0 1 .05.24c.02.1.01.17-.02.24a.93.93 0 0 1-.21.3.1.1 0 0 0-.03.04v.04c-.02.02-.03.03-.05.01a3.75 3.75 0 0 1-.12-.1.43.43 0 0 0-.13-.15 3.14 3.14 0 0 1-.1-.39c0-.02 0-.06.03-.12 0-.03.02-.03.03 0l.03.08a.65.65 0 0 0 .29.62h.01v-.01c-.01-.06.01-.1.08-.13a.07.07 0 0 0 .04-.04l.1-.27v-.04a.54.54 0 0 1-.02-.23c0-.02 0-.04-.02-.04l-.03-.01c-.03 0-.04 0-.04-.03v-.09c.01-.02 0-.03-.02-.03l-.04.02c-.02 0-.03.02-.02.04.05.21.07.34.07.38 0 .07-.05.16-.14.24-.01.02-.03.02-.04 0-.1-.1-.14-.2-.12-.31a.1.1 0 0 1 .04-.07c.02-.01.02-.03 0-.04v-.03c0-.02.02-.03.04-.02.02.02.06.03.12.04Zm.56-.67s.03 0 .05-.03a.56.56 0 0 0 .11-.15.44.44 0 0 0 .03-.05v-.06s-.03 0-.05.03a.56.56 0 0 0-.11.15.42.42 0 0 0-.03.05v.06Zm-.55.8a.02.02 0 0 0-.01-.02h-.01c-.05-.02-.08 0-.09.03v.02a.04.04 0 0 0 .04.03c.03 0 .05-.02.07-.06Z"/><path d="m11.87 10.13.02.1c0 .05-.02.05-.04 0a2.3 2.3 0 0 0-.07-.16c-.02-.06-.01-.06.03-.03.02.02.04.05.05.09Z"/><path d="M9.68 9.62a3.9 3.9 0 0 0-.2-.8c-.01-.04-.03-.05-.06-.02l-.09.09a.08.08 0 0 0-.02.08c.15.39.2.8.18 1.24a2.2 2.2 0 0 1-.85 1.53c-.02.02-.05.01-.08-.03a2.35 2.35 0 0 1-.29-1.79c.01-.04 0-.07-.05-.09L8.1 9.8c-.05-.01-.09 0-.1.06-.08.36-.07.74.04 1.13.06.24.1.4.1.47 0 .2-.03.4-.12.59-.15.3-.36.54-.62.7-.11.07-.1.1.03.05a3.13 3.13 0 0 0 1.61-1.1c.22-.29.38-.52.46-.7.2-.42.25-.88.17-1.38Z" fill="url(#d)"/><defs><linearGradient id="a" x1="9" y1="3" x2="9.92" y2="14.84" gradientUnits="userSpaceOnUse"><stop stop-color="#185C0B"/><stop offset="1" stop-color="#36920E"/></linearGradient><linearGradient id="b" x1="6.39" y1="5.96" x2="8.63" y2="9.49" gradientUnits="userSpaceOnUse"><stop stop-color="#E1E1E1"/><stop offset="1" stop-color="#595959"/></linearGradient><linearGradient id="c" x1="13" y1="8.4" x2="9.43" y2="8.58" gradientUnits="userSpaceOnUse"><stop stop-color="#CFCFCF"/><stop offset="1" stop-color="#5A5A5A"/></linearGradient><linearGradient id="d" x1="8" y1="12.93" x2="9.72" y2="9.58" gradientUnits="userSpaceOnUse"><stop stop-color="#C4C4C4"/><stop offset="1" stop-color="#5C5C5C"/></linearGradient></defs></svg>