<!-- by TradingView --><svg width="18" height="18" viewBox="0 0 18 18" xmlns="http://www.w3.org/2000/svg"><path fill="#F0F3FA" d="M0 0h18v18H0z"/><path d="M9.8 12.95a4.73 4.73 0 0 1-3.56-1.85c-.16-.52 1.37-1.98 2.15-2.65l3.84-.28.85 2.83a3.74 3.74 0 0 1-3.28 1.95ZM4.5 9.82a3.97 3.97 0 0 0 .98 2.78c-1.16-2.16.56-6.07 1.56-7.75-.6.71-2.5 3.19-2.54 4.97Z" fill="#A1D1ED"/><path d="M12.14 8.34a9.66 9.66 0 0 0-2.71-4.61c-1.03.3-3.05 3.3-3.93 4.76-.2.98.4 2.15.73 2.6 1.54-2.4 4.59-2.84 5.9-2.75Z" fill="#06A6E1"/><path d="M13.48 10.63c-.2.36-.75.95-1 1.2a10.45 10.45 0 0 0-1.74-6.57c2.04 2.32 2.68 4.55 2.74 5.38Z" fill="#0056B7"/><path d="M9.54 15a4.3 4.3 0 0 0 3.95-4.36c-.15.27-.72.9-1 1.18-.62 1.44-1.84 2.21-3.58 2.34-1.4.1-2.77-.83-3.29-1.31a4.21 4.21 0 0 0 3.92 2.14Z" fill="#06A6E1"/><path d="M5.5 8.87C5.54 6.44 7.65 3.95 8.7 3c.24.22.7.67.7.73a16.78 16.78 0 0 0-3.9 5.14Z" fill="#0056B7"/></svg>