<!-- by TradingView --><svg width="18" height="18" viewBox="0 0 18 18" xmlns="http://www.w3.org/2000/svg"><path fill="url(#a)" d="M0 0h18v18H0z"/><path d="M6 4c1.01.18 1.75 1.07 1.75 2.44v2.94a3.38 3.38 0 0 0 1.54 2.74c-.63.52-1.8.75-2.26.8A3.8 3.8 0 0 1 6 10.37V4Z" fill="url(#b)"/><path d="M7.75 9.37A4.85 4.85 0 0 1 9.4 9c.63 0 1.17.2 1.36.28.05-.37.08-1.48-.18-2.38-.34-.12-.7-.18-1.08-.18-.47 0-1.05.12-1.46.3l-.05.29c-.1.57-.24 1.47-.24 2.05Z" fill="url(#c)"/><path d="M7.03 12.92A3.4 3.4 0 0 0 9.5 14a3.6 3.6 0 0 0 3.5-3.7c0-1.65-1.02-2.9-2.42-3.39 0 0 .63 2.57.05 3.83-.72 1.58-1.91 2-3.6 2.18Z" fill="url(#d)"/><defs><linearGradient id="a" x1="18" y1="9" x2="0" y2="9" gradientUnits="userSpaceOnUse"><stop stop-color="#807AE7"/><stop offset="1" stop-color="#E1CBF1"/></linearGradient><linearGradient id="b" x1="7.65" y1="4" x2="7.65" y2="12.92" gradientUnits="userSpaceOnUse"><stop stop-color="#0304E3"/><stop offset="1" stop-color="#CEB6EC"/></linearGradient><linearGradient id="c" x1="10.79" y1="7.89" x2="7.88" y2="7.89" gradientUnits="userSpaceOnUse"><stop stop-color="#0304E3"/><stop offset="1" stop-color="#CEB6EC"/></linearGradient><linearGradient id="d" x1="11.65" y1="7.57" x2="7.99" y2="13.38" gradientUnits="userSpaceOnUse"><stop stop-color="#CEB6EC"/><stop offset="1" stop-color="#0304E3"/></linearGradient></defs></svg>