<!-- by TradingView --><svg width="18" height="18" viewBox="0 0 18 18" xmlns="http://www.w3.org/2000/svg"><path fill="#F0F3FA" d="M0 0h18v18H0z"/><path d="M9.45 4c.51.53.96 1.03 1.34 1.5.19.22.18.4-.02.54-.35.68-.13 1.18.67 1.5l.12.87c-.23.39-.34.83-.33 1.34-1.17 1.84-2.27 2.51-4.49 2.88l-.29-.54c-.04-.53.14-.94.54-1.23.6-.43 1-.91 1.2-1.46.75-.55 1-1.28.77-2.17-.29-1.12-1.2-1.55-2.7-1.31-.3-.04-.7 0-1.19.12A5.32 5.32 0 0 1 9.45 4Z" fill="#085185"/><path d="M14 8.22v.8l-1.13-.7c-.46-.26-.9-.23-1.31.09l-.12-.87c.28.06.57.04.88-.07.09-.03.14-.1.15-.19.13-.94-.44-1.35-1.7-1.24.2-.14.2-.32.02-.54A25.1 25.1 0 0 0 9.45 4c2.87.3 4.14 2 4.55 4.22Z" fill="#0B206E"/><path d="M8.19 9.4c-.17-.5-.42-.71-.81-.8a1.76 1.76 0 0 0-.84.02c-.63.41-.52.8-.56 1.43-.02.24-.15.34-.4.3-.93-.17-.84-1.67-.5-2.24.31-.53 2.25-1.32 1.17-2.2 1.52-.23 2.42.2 2.71 1.32A1.9 1.9 0 0 1 8.2 9.4Z" fill="#0580A7"/><path d="M6.25 5.92c1.08.87-.86 1.66-1.17 2.2-.34.56-.43 2.06.5 2.23.25.04.38-.06.4-.3.04-.62-.1-1.1.53-1.51l.84-.02c.4.08.67.38.84.88-.2.55-.6 1.03-1.2 1.46-.4.29-.58.7-.54 1.23l-2.07-1.03a4.93 4.93 0 0 1 .7-5.02c.48-.12.88-.16 1.17-.12Z" fill="#B3BDC2"/><path d="M10.77 6.04c1.26-.11 1.83.3 1.7 1.24a.22.22 0 0 1-.15.2c-.3.1-.6.12-.88.06-.8-.32-1.02-.82-.67-1.5ZM14 9.02c0 2.69-1.84 4.88-4.7 4.98a5.3 5.3 0 0 1-2.87-.65 4.94 4.94 0 0 1-2.05-2.3l2.07 1.04.3.54c1.17 1.07 2.38 1.24 3.62.52.32-.2.44-.53.6-.85.13-.24.2-.5.23-.75.06-.58.07-1.19.03-1.8-.01-.5.1-.95.33-1.34.41-.32.85-.35 1.31-.08.39.22.76.45 1.13.69Z" fill="#6D7A80"/><path d="M11.23 9.75c.04.61.03 1.22-.03 1.8-.03.26-.1.5-.22.75-.17.32-.29.66-.61.85-1.25.72-2.45.55-3.63-.52 2.22-.37 3.32-1.04 4.49-2.88Z" fill="#0B206E"/></svg>