<!-- by TradingView --><svg width="18" height="18" viewBox="0 0 18 18" xmlns="http://www.w3.org/2000/svg"><path fill="#F0F3FA" d="M0 0h18v18H0z"/><path d="M7 3.17c0-.1.09-.17.19-.17h3.62c.1 0 .19.07.19.17V4H7v-.83ZM10.77 8.11c.3.17.3.6 0 .78L7 11V6l3.77 2.11Z" fill="#1C3869"/><path d="M6 13.12c0 .49.42.88.95.88h4.7c.31 0 .47-.35.25-.55L6 7v6.12Z" fill="url(#acnlddo40)"/><path d="M6 4.88c0-.49.42-.88.95-.88h4.7c.31 0 .47.34.25.55L6 10V4.87Z" fill="url(#bcnlddo40)"/><defs><linearGradient id="acnlddo40" x1="10.21" y1="14" x2="6.98" y2="9.25" gradientUnits="userSpaceOnUse"><stop stop-color="#32B47A"/><stop offset="1" stop-color="#1F5554"/></linearGradient><linearGradient id="bcnlddo40" x1="5.84" y1="5.97" x2="11.87" y2="5.05" gradientUnits="userSpaceOnUse"><stop stop-color="#32B47A"/><stop offset="1" stop-color="#224D2C"/></linearGradient></defs></svg>