<!-- by TradingView --><svg width="18" height="18" viewBox="0 0 18 18" xmlns="http://www.w3.org/2000/svg"><path fill="#F0F3FA" d="M0 0h18v18H0z"/><path d="M9.91 12.64c-.9.12-1.9.02-3.02-.3-.27-.07-.57-.18-.45-.46.26-.61.49-1.21.7-1.79.03-.09.1-.13.2-.13.6-.02 1.2 0 1.8.05.72.06 1.23-.23 1.54-.87.22-.46-.3-.8-.75-.8-.8.02-1.55.1-2.24.27-.1.02-.14-.01-.12-.1.12-.5.23-1.02.34-1.57.03-.12.1-.22.23-.29a8.58 8.58 0 0 1 4.65-.96c.25 0 .46-.05.63-.18.35-.25.72-.73.53-1.16-.1-.2-.27-.31-.51-.33-2.1-.13-4.03.3-5.72 1.47a.6.6 0 0 0-.24.33 32.2 32.2 0 0 1-2.35 6.2c-.28.57-.1 1.06.53 1.37a5.4 5.4 0 0 0 4.54.2c.48-.64-.1-.97-.29-.95Z" fill="#231F20"/></svg>