<!-- by TradingView --><svg xmlns="http://www.w3.org/2000/svg" width="18" height="18"><path fill="#008738" d="M0 0h18v18H0z"/><path d="M14.45 9a5.45 5.45 0 11-10.9 0 5.45 5.45 0 0110.9 0z" fill="#fff"/><path fill-rule="evenodd" d="M6.92 5.4A8.39 8.39 0 018.8 3.7v2.14a8.6 8.6 0 01-2-.29l.12-.15zm-.52.03a6.72 6.72 0 01-1.37-.6l-.2.35a7 7 0 001.33.6A6.01 6.01 0 005.14 8.8H3.25v.4h1.88c.03 1.23.42 2.3 1 3.18-.54.19-.98.4-1.3.59l.2.34c.33-.2.78-.4 1.33-.59.74 1 1.7 1.72 2.62 2.16l.04-.1h.09l.04.1a7.22 7.22 0 002.57-2.1c.37.15.73.32 1.1.53l.2-.34c-.35-.2-.7-.38-1.06-.52.6-.9 1.01-1.99 1.04-3.25h1.7v-.4H13a6.04 6.04 0 00-1.07-3.1c.36-.14.73-.31 1.09-.52l-.2-.35c-.38.22-.75.4-1.13.54a8.5 8.5 0 00-2.53-2.25l-.06.12h-.07l-.06-.12A8.5 8.5 0 006.4 5.43zm6.2 3.37a5.68 5.68 0 00-1.06-2.95c-.8.26-1.6.38-2.34.4V8.8h3.4zm-3.8 0V6.24a9.02 9.02 0 01-2.24-.34c-.56.82-.97 1.8-1.02 2.9H8.8zm-3.27.4H8.8v2.7c-.84.02-1.61.17-2.28.36a5.66 5.66 0 01-.99-3.06zm3.67 0h3.4a5.67 5.67 0 01-1.03 3.11 7.98 7.98 0 00-2.37-.4V9.2zm-.4 5.14a6.83 6.83 0 01-2.03-1.74 8.6 8.6 0 012.03-.3v2.04zm.4.07v-2.1c.68 0 1.4.11 2.12.34a6.82 6.82 0 01-2.12 1.76zm2.09-8.9A7.94 7.94 0 009.2 3.6v2.23a7.62 7.62 0 002.09-.33z" fill="#FE3501"/><path d="M15 9A6 6 0 113 9a6 6 0 0112 0zm-2.14 3.86a5.45 5.45 0 10-7.72-7.72 5.45 5.45 0 007.72 7.72z" fill="#FE3501"/><path d="M10.63 10.63l-1.18-.56L9 12.44l-.44-2.37-1.18.56.56-1.18L6.22 9l1.73-.44-.56-1.19 1.18.57.44-2.39.44 2.39 1.18-.57-.56 1.19 1.71.44-1.71.44.56 1.18" fill="#008738"/><path d="M9.02 12.55c-2.43 0-3.32-2.08-3.46-3.12l-1.24.2c.32 1.69 1.66 4.16 4.7 4.16 3.05 0 4.34-2.77 4.6-4.16l-1.18-.2c-.12 1.04-.98 3.12-3.42 3.12z" fill="#008738"/></svg>