<!-- by TradingView --><svg width="18" height="18" viewBox="0 0 18 18" xmlns="http://www.w3.org/2000/svg"><path fill="#0F2733" d="M0 0h18v18H0z"/><path d="M7.4 4A2.36 2.36 0 0 0 5 6.3v5.4C5 12.97 6.08 14 7.4 14h4.5c.61 0 1.1-.47 1.1-1.05 0-.58-.49-.95-1.1-.95H7.2c-.11 0-.2-.28-.2-.4V10h3.03c.6 0 .97-.38.97-.96S10.64 8 10.03 8H7V6.2c0-.12.09-.2.2-.2h2.02c.6 0 1.1-.37 1.1-.95S9.81 4 9.21 4H7.4ZM12 6a1 1 0 1 0 0-2 1 1 0 0 0 0 2Z" fill="url(#ataplphoc)"/><defs><linearGradient id="ataplphoc" x1="5" y1="9" x2="13.72" y2="9" gradientUnits="userSpaceOnUse"><stop stop-color="#3DDA7F"/><stop offset="1" stop-color="#148A70"/></linearGradient></defs></svg>