<!-- by TradingView --><svg width="18" height="18" viewBox="0 0 18 18" xmlns="http://www.w3.org/2000/svg"><path fill="#181B1E" d="M0 0h18v18H0z"/><path d="M13.66 9.5c.12-.21.34-.79.34-1.36C14 7.42 13.52 5 9.84 5S4 7.95 4 10.07 6.18 13 8.5 13c2.31 0 4.03-.92 4.83-2.57h-2.78c-.27.31-1.06.86-2.06.86-1.24 0-2.14-.58-2.14-1.45l.03-.34H13.66ZM9.84 6.43c.99 0 1.62.68 1.77 1.57H6.98a3.29 3.29 0 0 1 2.86-1.57Z" fill="url(#a3ofh3spj)"/><defs><linearGradient id="a3ofh3spj" x1="13.63" y1="6.71" x2="4.19" y2="11.6" gradientUnits="userSpaceOnUse"><stop offset=".07" stop-color="#FFF795"/><stop offset=".17" stop-color="#FFF441"/><stop offset=".69" stop-color="#FFF200"/><stop offset=".89" stop-color="#FFF795"/></linearGradient></defs></svg>