<!-- by TradingView --><svg width="18" height="18" viewBox="0 0 18 18" xmlns="http://www.w3.org/2000/svg"><path fill="#181B1E" d="M0 0h18v18H0z"/><path d="M4 9a5 5 0 0 1 3.44-4.75v.58a4.45 4.45 0 0 0 2.02 8.6v.55l-.47.02A5 5 0 0 1 4 9Z" fill="#fff"/><path d="M8.69 5.01a4 4 0 0 0 0 7.98v-.57a3.44 3.44 0 0 1 0-6.84V5Zm4.06 5.38a3.99 3.99 0 0 0 0-2.78v2.78Z" fill="#999"/><path d="M9.06 4c-.23 0-.46.02-.69.05v.53a4.48 4.48 0 0 1 2.19 8.62v.56A5 5 0 0 0 14 9c0-2.76-2.21-5-4.94-5Z" fill="#999"/><path d="M9 5a4 4 0 1 1 0 8v-.56a3.44 3.44 0 1 0 0-6.88V5Z" fill="#fff"/><path fill="#fff" d="M9 5.56h.46v8.13H9z"/><path fill="#999" d="M8.38 4.09h.47v2.73h-.47zM8.06 8.69v.5H5.41v-.5h2.65ZM8.13 11.19h.56v1.25h-.56z"/></svg>