<!-- by TradingView --><svg width="18" height="18" viewBox="0 0 18 18" xmlns="http://www.w3.org/2000/svg"><path fill="#F0F3FA" d="M0 0h18v18H0z"/><path d="M15.04 6H16c-.32 1.96-.76 4-1.11 6h-.99c-.33-1.36-.76-2.6-1.11-3.93-.29 1.28-.54 2.6-.79 3.93h-1.1l1.2-6h1.08c.36 1.3.74 2.58 1.1 3.89.29-1.25.5-2.6.76-3.89Z" fill="#242022"/><path d="M10.67 6h1.26a432.2 432.2 0 0 1-3.31 6h-1.6c-.22-2.02-.56-4-.74-6h1.97c.18 1.14.32 2.32.5 3.46C9.4 8.4 10.01 7.12 10.67 6Z" fill="#EC1E25"/><path d="M3.21 6h2.8l-.23 1H4.04c-.14.44-.2.97-.31 1.44h1.61c-.08.36-.14.78-.22 1.12h-1.6L3.23 11h2.13l-.24 1H2l1.21-6Z" fill="#242022"/></svg>