<!-- by TradingView --><svg width="18" height="18" viewBox="0 0 18 18" xmlns="http://www.w3.org/2000/svg"><path fill="#F0F3FA" d="M0 0h18v18H0z"/><path d="m4.54 4-.02.04c-.7 1.57-.7 1.68 0 3.25l3 6.7.01-.03c.7-1.57.7-1.68 0-3.25L4.54 4Zm2.97 0-.01.04c-.7 1.57-.7 1.68 0 3.25l2.99 6.7.01-.03c.7-1.57.7-1.68 0-3.25L7.51 4Zm2.96.04.02-.04 2.99 6.7c.7 1.58.7 1.69 0 3.26l-.02.04-3-6.7c-.7-1.58-.7-1.7 0-3.26Zm3 3.25c.7-1.57.7-1.68 0-3.25L13.46 4l-.75 1.67.72 1.73.04-.1Zm-8.95 6.67c-.7-1.57-.7-1.68 0-3.25l.05-.1.72 1.72L4.54 14l-.02-.04Z" fill="#1400C8"/></svg>