<!-- by TradingView --><svg width="18" height="18" viewBox="0 0 18 18" xmlns="http://www.w3.org/2000/svg"><path fill="#F0F3FA" d="M0 0h18v18H0z"/><path d="M13 6c-4.72 2.51-6.94 6.6-7.5 8.5 1.95-3.83 5.6-6 7.14-6.73.12.23.36.79.36 1.25 0 3.59-3.42 4.35-4.13 4.35a4.5 4.5 0 0 1-1.41-.16c-.11.1-.35.34-.47.48.7 1.15 1.23 1.88 1.51 2.31-.03-.56-.49-1.42-.73-2.16.3.07.97.16 1.31.16a5.23 5.23 0 0 0 4.18-2.26c.78-1.22.74-2.37.74-3.03 0-.94-.62-2.07-1-2.71Z" fill="#A39256"/><path d="M15 4.5c-5.54 1.49-8.5 6.24-9.29 8.3A5.03 5.03 0 0 1 9.04 4c1.6 0 2.5.66 2.95 1H12c-.12.05-.41.18-.6.28-.6-.5-1.36-.8-2.06-.8-2 0-3.33 1.76-3.72 2.55 1.63-.79 3.9-1.46 4.35-1.46a12.7 12.7 0 0 0-4.75 2.8c0 .28.13.91.35 1.29A17.75 17.75 0 0 1 15 4.5Z" fill="#6C6E68"/></svg>