<!-- by TradingView --><svg width="18" height="18" viewBox="0 0 18 18" xmlns="http://www.w3.org/2000/svg"><path fill="#1D386B" d="M0 0h18v18H0z"/><path fill-rule="evenodd" d="M14.68 6.27H3.32v5.46h11.36V6.27ZM3 6v6h12V6H3Z" fill="#F0F3FA"/><path d="M7.93 8.02h.02L7.97 8C8 8 8 8.03 8 8.08v.51c-.01 0 0 .01 0 0 0 0 .25-.59.98-.59.44 0 .61.59.61.59s.3-.59.9-.59c.77 0 1 .5 1 1v1.43c0 .35.3.3.47.39.02 0 .03.06.03.08 0 .03 0 .09-.03.1h-1.4c-.02-.01-.03-.07-.03-.1 0-.02.01-.07.03-.08.18-.1.43-.06.43-.4V9c0-.38-.32-.46-.5-.46-.2.02-.66.22-.66.46v1.5c0 .32.05.22.23.32l.02.08c0 .03 0 .09-.02.1H9c-.02-.01-.03-.07-.03-.1 0-.02.01-.07.03-.08.17-.1.34-.07.34-.4V9c0-.34-.38-.46-.65-.46-.2 0-.5.2-.69.46l.01 1.43c0 .32.3.29.46.39.02 0 .03.06.03.08 0 .03 0 .09-.03.1H7.13c-.03-.01-.03-.07-.03-.1 0-.02 0-.07.03-.08a.3.3 0 0 1 .1-.03c.15-.03.27-.14.27-.36V8.87c0-.2-.23-.2-.34-.25-.02 0-.03-.01-.03-.06 0-.02 0-.04.03-.06l.77-.48ZM4 9.69C4 8.58 4.9 8 5.91 8 6.2 8 7 8.13 7 8.56c0 .26-.44.15-.62.07-.25-.1-.37-.35-.67-.35-.63 0-.96.69-.96 1.22 0 .64.44 1.13 1.13 1.13.34 0 .55-.3.8-.48.07-.05.2-.03.26.01.08.05.07.11.02.17a2 2 0 0 1-1.47.67C4.74 11 4 10.46 4 9.69ZM12.66 11c-.03 0-.03-.06-.03-.08 0-.02 0-.07.03-.08.18-.08.34-.1.34-.4V8.77c0-.18-.28-.18-.4-.22-.02 0-.04-.01-.04-.05 0-.02.01-.04.05-.06.32-.14.57-.29.89-.44.02 0 .07.01.07.06v2.38c0 .3.19.32.37.4.02 0 .03.06.03.08 0 .02 0 .08-.03.08h-1.28ZM13.52 7.36a.5.5 0 1 1-1 0 .5.5 0 0 1 1 0Z" fill="#F0F3FA"/></svg>