<!-- by TradingView --><svg width="18" height="18" viewBox="0 0 18 18" xmlns="http://www.w3.org/2000/svg"><path fill="#F0F3FA" d="M0 0h18v18H0z"/><path d="M2 6.57c0-.31.2-.57.44-.57h13.12c.24 0 .44.26.44.57v4.86c0 .31-.2.57-.44.57H2.44c-.24 0-.44-.26-.44-.57V6.57Z" fill="#B8BDC0"/><path d="M3 7.47c0-.26.18-.47.4-.47h11.2c.22 0 .4.2.4.47v3.06c0 .26-.18.47-.4.47H3.4c-.22 0-.4-.2-.4-.47V7.47Z" fill="#231F20"/><path d="M3.46 7.6h2.33v.7H4.16c-.08 0-.12.08-.12.17 0 .08.04.18.12.18h1.15v.7H4.16c-.08 0-.12.06-.12.14 0 .09.04.2.12.2H5.8v.7H3.46c-.16 0-.3-.14-.3-.31V7.92c0-.17.14-.31.3-.31ZM5.92 7.6h1.02l.52.7.52-.7H9L7.98 9.02 9 10.4H7.94l-.48-.66-.48.66H5.92l1.02-1.38-1.02-1.4Z" fill="#B8BDC0"/><path fill-rule="evenodd" d="M12.08 7.6c-.17 0-.3.15-.3.32v2.16c0 .17.13.31.3.31h2.5c.15 0 .28-.14.28-.31V7.92c0-.17-.13-.31-.29-.31h-2.5Zm.83.7c-.11 0-.2.12-.2.26v.88c0 .14.09.26.2.26h.83c.11 0 .2-.12.2-.26v-.88c0-.14-.09-.26-.2-.26h-.83Z" fill="#B8BDC0"/><path d="M11.63 7.6H9.29c-.16 0-.29.15-.29.32v2.16c0 .17.13.31.3.31h2.32v-.7h-1.4c-.18 0-.22-.1-.22-.25v-.88c0-.14.04-.26.23-.26h1.4v-.7Z" fill="#B8BDC0"/></svg>