<!-- by TradingView --><svg width="18" height="18" viewBox="0 0 18 18" xmlns="http://www.w3.org/2000/svg"><path fill="#F0F3FA" d="M0 0h18v18H0z"/><path d="m12.6 5-9.12 8H3l9.12-8h.48Z" fill="#E21C08"/><path d="m13.08 5-9.12 8h-.48l9.12-8h.48Z" fill="#FDA42C"/><path d="m13.56 5-9.12 8h-.48l9.12-8h.48Z" fill="#FFEA81"/><path d="m14.04 5-9.12 8h-.48l9.12-8h.48Z" fill="#A0D958"/><path d="M14.52 5 5.4 13h-.48l9.12-8h.48Z" fill="#77BAF2"/><path d="m15 5-9.12 8H5.4l9.12-8H15Z" fill="#7723A2"/><path d="M7.46 7.18c.19-.24.5-.24.68 0l2.88 3.75c.19.25.19.64 0 .89-.19.24-.5.24-.68 0L7.46 8.07a.76.76 0 0 1 0-.89Z" fill="#004A99"/><path d="M13.06 6.11c.04.1.02.24-.05.3l-6.43 5.56c-.07.06-.16.03-.2-.08-.04-.1-.02-.24.05-.3l6.43-5.56c.07-.06.16-.03.2.08Z" fill="#004A99"/></svg>