<!-- by TradingView --><svg width="18" height="18" viewBox="0 0 18 18" xmlns="http://www.w3.org/2000/svg"><path fill="#F0F3FA" d="M0 0h18v18H0z"/><path fill-rule="evenodd" d="M13.14 12.09c.18-.19.15-.46-.06-.62-.22-.17-.44-.12-.65.07-.35.31-.92.6-1.43.6-.97 0-1.87-.77-2.1-1.71h4.55c.3 0 .55-.25.55-.55C14 8.27 12.6 7 11 7a3 3 0 1 0 2.14 5.09Zm-.05-2.52A2.26 2.26 0 0 0 11 7.86c-.97 0-1.87.77-2.1 1.71h4.2Z" fill="#2C478C"/><path d="M4 6.69A.7.7 0 0 1 4.72 6h1.56c.4 0 .72.3.72.69v1.62a.7.7 0 0 1-.72.69H4.72A.7.7 0 0 1 4 8.31V6.69Z" fill="#612877"/><path d="M5 10.47c0-.26.22-.47.49-.47h1.02c.27 0 .49.21.49.47v1.06c0 .26-.22.47-.49.47H5.5a.48.48 0 0 1-.49-.47v-1.06Z" fill="#982781"/><path d="M11.5 4.92c0-.23.19-.42.42-.42h.66c.23 0 .42.19.42.42v.66c0 .23-.19.42-.42.42h-.66a.42.42 0 0 1-.42-.42v-.66ZM7 13.39c0-.22.18-.39.4-.39h1.2c.22 0 .4.17.4.39v1.22c0 .22-.18.39-.4.39H7.4a.39.39 0 0 1-.4-.39V13.4Z" fill="#C72884"/><path d="M8 3.8c0-.45.35-.8.79-.8h1.42c.44 0 .79.35.79.8v1.4c0 .45-.35.8-.79.8H8.8A.79.79 0 0 1 8 5.2V3.8Z" fill="#406EB3"/></svg>