<!-- by TradingView --><svg width="18" height="18" viewBox="0 0 18 18" xmlns="http://www.w3.org/2000/svg"><path fill="#2B7AE8" d="M0 0h18v18H0z"/><path d="m8.88 8.1-.66.73-.65-.71.23-.26.67-.75a.33.33 0 0 1 .12-.08c.04-.02.1-.03.14-.03h.98a.1.1 0 0 1 .04.01l.03.03a.07.07 0 0 1 0 .08l-.9.99ZM13.67 7c-.46 0-.92.12-1.3.34a2.1 2.1 0 0 0-.86.9c-.18.36-.22.76-.13 1.15.09.39.31.74.64 1.02.32.28.74.47 1.2.55.44.08.91.04 1.34-.11.43-.15.79-.41 1.05-.74.25-.33.39-.71.39-1.11 0-.53-.25-1.04-.68-1.41A2.54 2.54 0 0 0 13.67 7Zm0 3.13c-.26 0-.52-.06-.74-.19-.21-.12-.38-.3-.48-.5a.98.98 0 0 1-.08-.66c.05-.22.18-.42.36-.58.19-.16.42-.27.68-.31.26-.04.52-.02.76.06.24.09.45.23.6.42.14.19.22.4.22.63 0 .3-.14.59-.39.8-.25.21-.58.33-.93.33Zm-2.05-2.4v-.65c0-.05-.02-.08-.06-.08h-.15c-1.39.06-2 .9-2 1.9v1.59l-.53-.6-.66-.73-.65.72.23.25.67.76a.37.37 0 0 0 .26.11h1.6c.04 0 .07-.02.1-.04.03-.03.03-.06.03-.1V9.02c0-.5.23-1.07 1.06-1.14.08 0 .1-.08.1-.15Zm-8.25.9h1.89c.03 0 .05 0 .07.02.02.02.03.04.03.07v.56c0 .02 0 .04-.02.06a.1.1 0 0 1-.07.02h-1.9c-.03 0-.06 0-.08-.02a.14.14 0 0 1-.06-.07.73.73 0 0 1 0-.56.14.14 0 0 1 .06-.06.17.17 0 0 1 .08-.02ZM8 8.9 6.41 7.15C6.33 7.06 6.25 7 6.1 7H4.19a2.4 2.4 0 0 0-1.55.61c-.4.37-.63.87-.63 1.38 0 .52.23 1.02.63 1.39.4.37.96.6 1.55.62h1.94c.13 0 .2-.07.29-.16l1.58-1.75a.14.14 0 0 0 .04-.1.14.14 0 0 0-.04-.1Zm-1.27.16-.9.9a.15.15 0 0 1-.06.03L5.7 10H4.2c-.33 0-.65 0-.88-.2-.24-.22-.38-.5-.38-.8 0-.3.14-.6.38-.8.23-.2.53-.2.86-.2h1.58l.05.05.9.87a.1.1 0 0 1 .03.07.1.1 0 0 1-.02.07Z" fill="#fff"/></svg>