<!-- by TradingView --><svg width="18" height="18" viewBox="0 0 18 18" xmlns="http://www.w3.org/2000/svg"><path fill="#F0F3FA" d="M0 0h18v18H0z"/><path fill-rule="evenodd" d="M4.2 9.5h3.37c.24 0 .57-.06.87-.24.33-.2.56-.55.56-1.01 0-.46-.23-.8-.56-1-.3-.2-.63-.25-.87-.25H4.71c-.34 0-.78.13-1.13.46C3.22 7.8 3 8.31 3 9c0 .7.22 1.2.58 1.54.35.33.8.46 1.13.46h3.72c.31 0 .57-.22.57-.5s-.26-.5-.57-.5H4.7a.48.48 0 0 1-.3-.14.82.82 0 0 1-.2-.36Zm.22-1.36a.82.82 0 0 0-.21.36h3.36a.43.43 0 0 0 .2-.06.15.15 0 0 0 .06-.05.27.27 0 0 0 .03-.14.27.27 0 0 0-.03-.14.15.15 0 0 0-.06-.05.43.43 0 0 0-.2-.06H4.71a.48.48 0 0 0-.3.14Z" fill="#2095D2"/><path d="M10.59 8c-.33 0-.59-.22-.59-.5s.26-.5.59-.5h3.53a.6.6 0 0 1 .54.3c.1.2.04.41-.13.55L12.01 10h2.4c.33 0 .59.22.59.5s-.26.5-.59.5H10.6a.6.6 0 0 1-.55-.3.45.45 0 0 1 .13-.55L12.7 8h-2.11Z" fill="#2095D2"/></svg>