<!-- by TradingView --><svg width="18" height="18" viewBox="0 0 18 18" xmlns="http://www.w3.org/2000/svg"><path fill="#F0F3FA" d="M0 0h18v18H0z"/><circle cx="5" cy="5" r="1" fill="#4FAE53"/><path d="M5 7H4v4.9c0 1.16.98 2.1 2.2 2.1H14v-1H6.3c-.7 0-1.3-.54-1.3-1.22V7Z" fill="#4FAE53"/><path d="M13 5V4H8.1C6.94 4 6 5.01 6 6.26V12h1V6.31C7 5.6 7.55 5 8.22 5H13Z" fill="#4FAE53"/><path d="M8 9.09V8l4.4 3.14H14V12h-2.04L8 9.09Z" fill="#4FAE53"/><path d="M8.33 6.76v-.42C12.14 5.52 14 6.27 14 7.6c0 1.95-4 3.74-6 4.39v-.49c1.4-.74 4.33-2.53 4.33-3.76 0-1.22-2.76-1.17-4-.99Z" fill="#EAB203"/></svg>