<!-- by TradingView --><svg width="18" height="18" viewBox="0 0 18 18" xmlns="http://www.w3.org/2000/svg"><path fill="#F0F3FA" d="M0 0h18v18H0z"/><path d="M4.4 6h9.2a.4.4 0 0 1 .35.2c.08.14.06.3-.02.43l-1 1.66c-.3.45-.75.71-1.28.71H8.46l.85 1h1.76c.14 0 .26.08.33.2.06.12.06.27-.02.4L9.35 13.8a.4.4 0 0 1-.34.19.4.4 0 0 1-.34-.19l-4.6-7.16a.42.42 0 0 1-.02-.43c.07-.14.2-.22.36-.22ZM6 13a1 1 0 1 1-2 0 1 1 0 0 1 2 0Z" fill="url(#am3zkx10w)"/><defs><linearGradient id="am3zkx10w" x1="9" y1="6" x2="9" y2="14" gradientUnits="userSpaceOnUse"><stop stop-color="#B8BAB7"/><stop offset=".67" stop-color="#7D848C"/></linearGradient></defs></svg>