<!-- by TradingView --><svg width="18" height="18" viewBox="0 0 18 18" xmlns="http://www.w3.org/2000/svg"><path fill="#002359" d="M0 0h18v18H0z"/><path fill-rule="evenodd" d="m12.8 9.14.34.01h.2c.31-.02.66-.03.66.18 0 .18-.3.49-1.35.52L11.72 14H4l1.42-6.3s-.2-.28-.2-1.03c0-.47.2-1.2.26-1.37.06-.17.25-.28.53-.23L6.25 4h7.71L12.8 9.14Zm.17.51c-1.92.22-3.3-1.07-3.3-1.07s.2-.4.8-.25c1.48 1.05 2.6.97 2.82.95a1.38 1.38 0 0 1 .16 0c.18-.02.34-.02.35.04.03.08-.13.25-.83.33Zm-6.25 1.2-1.51.49-.32-.05.72-3.23c.47.66 1.31 1.47 3.28 1.47l.05.57-.15.5.77 1.16.02.72-.36.84-.02.33-1.2-.94.82-.47-2.1-1.4Zm2.41-4.23.43.38-1.07.15.64-.53Zm2.52 2.2a2.47 2.47 0 0 0-.22-1c-.11-.22-.6-.78-.6-.78l.02-.28a8.2 8.2 0 0 0-1.34-1.32C8.88 5.27 8.3 5.3 8.3 5.3l-.4.2-1.87-.25s-.3-.05-.36.1c-.06.15-.26.84-.26 1.32v.01c0 .33-.01 2.5 3.76 2.5 0 0 .24-.17.3-.48l-.19-.16s.3-.65 1.16-.49c0 0 .76.57 1.2.76Zm-.35 3.34s-.1.08-.25.08c-.6 0-.65-.57-.65-.57a5.9 5.9 0 0 1 .14-1.35c.05-.27.08-.49.07-.57l-.05-.35s.5.3 1.1.37c0 0-.01.19-.07.32l-.2.43c-.21.43-.48.97-.46 1.14.02.17.16.23.34.18 0 0 .05.11.03.32Zm-4.6-1.07v1l-.58 1.3.16.3h1.38l-.15-.3.33-1.54-1.15-.76Z" fill="#E4AF02"/></svg>