<!-- by TradingView --><svg width="18" height="18" viewBox="0 0 18 18" xmlns="http://www.w3.org/2000/svg"><path fill="#F0F3FA" d="M0 0h18v18H0z"/><path d="M9.87 4.07c.02-.06.1-.09.15-.06l2.92 1.6c.05.03.08.1.05.16-.03.07-.1.1-.15.06L9.92 4.24c-.06-.03-.08-.1-.05-.17Z" fill="#353535"/><path d="M5.05 7.87a.31.31 0 0 1 .07-.41l4.6-3.4c.12-.1.29-.07.38.07.08.13.05.32-.08.41l-4.6 3.4c-.12.1-.29.07-.37-.07ZM9.87 7.1c.02-.06.1-.09.15-.06l2.92 1.58c.05.03.08.1.05.17-.03.06-.1.09-.15.06L9.92 7.27c-.06-.03-.08-.1-.05-.17Z" fill="#353535"/><path d="M5.05 10.87a.3.3 0 0 1 .07-.4l4.6-3.39c.12-.09.29-.06.38.08a.3.3 0 0 1-.08.4l-4.6 3.39c-.12.09-.29.06-.37-.08ZM9.87 10.07c.02-.06.1-.09.15-.06l2.92 1.6c.05.03.08.1.05.16-.03.07-.1.1-.15.06l-2.92-1.59c-.06-.03-.08-.1-.05-.17Z" fill="#353535"/><path d="M5.05 13.87a.31.31 0 0 1 .07-.41l4.6-3.4c.12-.1.29-.07.38.07.08.13.05.32-.08.41l-4.6 3.4c-.12.1-.29.07-.37-.07ZM9.87 8.6c.02-.06.1-.09.15-.06l2.92 1.6c.05.02.08.1.05.16-.03.07-.1.1-.15.06l-2.92-1.6c-.06-.02-.08-.1-.05-.16Z" fill="#353535"/><path d="M5.05 12.4a.31.31 0 0 1 .07-.41l4.6-3.41c.12-.1.29-.06.38.08.08.13.05.32-.08.4l-4.6 3.42c-.12.09-.29.05-.37-.08ZM9.87 5.52c.02-.06.1-.09.15-.06l2.92 1.6c.05.03.08.1.05.17-.03.06-.1.08-.15.05L9.92 5.7c-.06-.03-.08-.1-.05-.17Z" fill="#353535"/><path d="M5.05 9.32a.31.31 0 0 1 .07-.41l4.6-3.4c.12-.1.29-.07.38.07.08.14.05.32-.08.41l-4.6 3.4c-.12.1-.29.07-.37-.07Z" fill="#353535"/></svg>