<!-- by TradingView --><svg width="18" height="18" viewBox="0 0 18 18" xmlns="http://www.w3.org/2000/svg"><path fill="#F0F3FA" d="M0 0h18v18H0z"/><path fill-rule="evenodd" d="M5.29 4.31h7.42v9.38H5.3V4.3ZM5 14V4h8v10H5Zm1.62-3.65-.58.59c-.12.23.05.2.15.14.1-.1.37-.32.72-.44s.83.54 1.02.89v1.18h.58c.02 0 .04-.02.07-.05.05-.04.12-.1.22-.1.15 0 .24.05.3.15h1.45c.14 0 .2.06.27.14.07.07.14.15.3.15.3 0 .3-.15.3-.3 0-.07-.04-.1-.07-.14-.04-.04-.08-.08-.08-.15 0-.07.04-.11.08-.15.03-.03.07-.07.07-.14 0-.12-.39-.25-.58-.3H9.09v-.88c0-.45.3-.6.58-.6.17 0 .24 0 .3.03l.14.12c.15.15.3-.14.3-.3a.53.53 0 0 0-.08-.21.53.53 0 0 1-.07-.22c0-.1.12-.07.25-.04.07.02.13.04.18.04.15 0 .44-.15.3-.15-.15 0-.59-.3-.59-.44 0-.15 0-.3-.14-.3-.12 0-.15.2-.15.3l-.15.3c-.1 0-.29-.04-.29-.16 0-.11.2-.34.3-.44v-.3h.72c.28 0 .32.13.35.21.02.05.03.1.09.1.14 0 .29 0 .43-.15.15-.15-.29-.3-.43-.3h-.73c-.12 0-.24-.2-.29-.3h1.45c.15 0 .44 0 .44-.14 0-.15-.15-.3-.3-.3-.1 0-.33.1-.43.15h-1.01c.27-.28.43-.5.55-.66l.17-.22c.1-.1.25-.07.43-.04.1.02.2.04.3.04.29 0 .29-.3.29-.45 0-.05 0-.09-.02-.11-.02-.03-.1-.03-.27-.03-.3 0-.3-.15-.3-.3 0-.12-.19-.15-.28-.15.21-.21.19-.27.16-.34l-.02-.1c0-.06.05-.12.1-.17.07-.1.14-.18.05-.27-.1-.1-.36.25-.55.5l-.18.24c-.14.14-.14-.3-.14-.45 0-.14-.3-.44-.44-.29-.15.15-.15.3 0 .59.1.2.13.26.14.33v.11c0 .12-.63.42-1.04.61l-.26.13c-.18.09-.78.93-1.29 1.64-.33.48-.63.9-.75 1.01-.23.24-.2.5-.14.6a.47.47 0 0 0-.15.29Zm4.36-3.84c.08 0 .15-.06.15-.14a.15.15 0 0 0-.15-.15.15.15 0 0 0-.14.15c0 .08.06.14.14.14ZM8.22 8.87c-.05.1-.12.33 0 .44l.18.15c.13.1.26.2.26.3v.59c.04.05.17.14.29.14.11 0 .14-.3.14-.44v-.3c0-.04-.06-.2-.29-.44l-.15-.15c-.22-.23-.39-.4-.43-.29Zm.3 2.07c0-.1.02-.3.14-.3.11 0 .14.2.14.3v.88c0 .1.06.3.3.3h1.45c.1 0 .29.03.29.14 0 .12-.2.15-.3.15H8.8c-.1 0-.29-.06-.29-.3v-1.17Z" fill="#62121D"/></svg>