<!-- by TradingView --><svg width="18" height="18" viewBox="0 0 18 18" xmlns="http://www.w3.org/2000/svg"><path fill="#F0F3FA" d="M0 0h18v18H0z"/><path fill-rule="evenodd" d="M5.6 5.47A1.24 1.24 0 1 0 5.6 3c-.69 0-1.25.55-1.25 1.23 0 .68.56 1.24 1.25 1.24ZM15 8.64a4.6 4.6 0 0 1-6.41 4.23A2.3 2.3 0 0 1 6.29 15 2.29 2.29 0 0 1 4 12.72c0-1.21.95-2.2 2.14-2.28a4.6 4.6 0 0 1 4.25-6.38A4.6 4.6 0 0 1 15 8.64Zm-4.61 2.12a2.12 2.12 0 1 0 0-4.24 2.12 2.12 0 1 0 0 4.24ZM7.55 12.7a1.24 1.24 0 1 1-1.24-1.24c.68 0 1.24.56 1.24 1.24Z" fill="url(#a)"/><defs><linearGradient id="a" x1="13.94" y1="4.99" x2="4.39" y2="13.91" gradientUnits="userSpaceOnUse"><stop stop-color="#EFA34C"/><stop offset="1" stop-color="#F16941"/></linearGradient></defs></svg>