<!-- by TradingView --><svg width="18" height="18" fill="none" xmlns="http://www.w3.org/2000/svg"><path fill="#F0F3FA" d="M0 0h18v18H0z"/><g opacity=".6"><circle cx="9" cy="9" r="8.875" stroke="#E0E3EB" stroke-width=".25"/><rect x="3.05" y="5.05" width="11.9" height="7.9" rx=".95" stroke="#E0E3EB" stroke-width=".1"/><rect x="2.05" y="6.05" width="13.9" height="5.9" rx=".95" stroke="#E0E3EB" stroke-width=".1"/><rect x="4.05" y="4.05" width="9.9" height="9.9" rx=".95" stroke="#E0E3EB" stroke-width=".1"/><rect x="5.05" y="3.05" width="7.9" height="11.9" rx=".95" stroke="#E0E3EB" stroke-width=".1"/><rect x="6.05" y="2.05" width="5.9" height="13.9" rx=".95" stroke="#E0E3EB" stroke-width=".1"/></g><path d="M9 15c3.305 0 6-2.695 6-6 0-3.303-2.695-6-6-6S3 5.697 3 9c0 3.305 2.695 6 6 6z" fill="#000"/><path d="M9 14c2.81-.015 5-2.099 5-5.001S11.871 4 9 4C6.126 4 4.01 6.117 4 8.999 3.99 11.88 6.189 14.015 9 14z" fill="#F0F3FA"/><path d="M9 12.953A3.962 3.962 0 0012.952 9a3.96 3.96 0 00-3.954-3.95A3.96 3.96 0 005.047 9 3.961 3.961 0 009 12.953z" fill="#000"/><path d="M5.667 7.248a3.775 3.775 0 013.248-2.014A5.582 5.582 0 017.387 6.66c-.357.218-.74.387-1.146.49-.19.048-.38.078-.574.097zm2.788 5.482A3.78 3.78 0 015.232 9c0-.517.106-1.012.296-1.463.005.09.01.179.02.266.093.927.432 1.876.947 2.742a7.644 7.644 0 001.96 2.184zm4.017-5.193c.19.45.296.946.296 1.463a3.78 3.78 0 01-3.224 3.73 7.643 7.643 0 001.96-2.185c.523-.877.864-1.84.952-2.779.007-.076.013-.152.016-.229zM9.083 5.234a3.776 3.776 0 013.25 2.014 3.888 3.888 0 01-.48-.075 4.11 4.11 0 01-1.24-.512 5.614 5.614 0 01-1.53-1.427z" fill="#E1001D"/><path d="M6.168 7.259h5.664a4.155 4.155 0 01-1.264-.523A5.669 5.669 0 019 5.267a5.61 5.61 0 01-1.567 1.469 4.16 4.16 0 01-1.264.523zm.899 2.111H6.021a7.3 7.3 0 00.551 1.128 7.443 7.443 0 002.064 2.252c.054.006.106.01.16.013.03-.18.015-1.014.01-1.053a.294.294 0 00-.118-.086.556.556 0 00-.17-.026.802.802 0 00-.172.017 1.164 1.164 0 00-.171.048c-.06.019-.108.037-.16.037-.056 0-.108-.02-.168-.078l-.032-.03c-.044-.044-.089-.089-.14-.089a.529.529 0 01-.167-.02.352.352 0 01-.136-.077c-.087-.084-.087-.2-.085-.296 0-.04 0-.074-.008-.089-.01-.024-.05-.054-.098-.082a1.452 1.452 0 00-.158-.082.32.32 0 01-.168-.175.613.613 0 01-.035-.234.422.422 0 00-.004-.099.122.122 0 00-.02-.056l-.002-.002c-.026-.03-.054-.061-.075-.1a.301.301 0 01-.037-.147c0-.05.015-.093.039-.125a.147.147 0 01.112-.061c.093-.004.184.085.242.145.005.004.009.01.015.013a.768.768 0 00.089.082.29.29 0 00.095.048.54.54 0 00.156.011h.008a.304.304 0 01.178.038c.047.028.08.072.114.143.037.075.067.075.12.075a.311.311 0 01.06 0c.121.005.151.06.2.152.007.015.014.03.024.043a.52.52 0 00.054.082.278.278 0 00.044.04c.02.012.04.016.062.021.037.008.08.017.147.06.04.026.069.063.09.106.018.04.03.085.038.13.02.09.036.17.067.229.03.058.077.102.162.134l.002-.032c.015-.279.02-.456.006-.573-.011-.106-.041-.16-.097-.197-.171-.12-.35-.238-.514-.346a5.098 5.098 0 00-.428-.252.67.67 0 00-.065-.009l-.07-.004h-.023a.53.53 0 01-.326-.083.394.394 0 01-.141-.16.212.212 0 01.003-.18l.015-.027c.012-.022.017-.032-.002-.05a.394.394 0 01-.09-.127zm1.508 0h-.983c.024.032.06.04.097.049a.353.353 0 01.117.04.282.282 0 01.086.079.342.342 0 01.054.127l.007.04c.008.041.013.07.063.108.187.138.367.255.53.363.118.075.226.146.321.214l-.002-.002.006.002a.353.353 0 00-.004-.074 1.377 1.377 0 00-.02-.1 2.42 2.42 0 01-.28-.382.514.514 0 01-.061-.305.248.248 0 01.045-.127.13.13 0 01.024-.032zm1.969 0H9.401a.777.777 0 01-.05.058.513.513 0 01.082.125.344.344 0 01.035.154.46.46 0 01-.113.278c-.058.076-.13.141-.2.199a.518.518 0 000 .195c.002 0 .004.002.006.004h.006c.002 0 .002 0 .003-.002h.002l.116-.065c.229-.129.502-.281.768-.475a.166.166 0 00.05-.06.237.237 0 00.014-.085.284.284 0 01.143-.24.278.278 0 01.155-.026c.044 0 .087.002.106-.026l.02-.034zM9.18 12.765c.061-.004.122-.008.184-.015a7.445 7.445 0 002.064-2.252 7.3 7.3 0 00.551-1.128h-.929a.37.37 0 01-.031.056.76.76 0 01-.066.084c-.037.045-.038.106-.038.166 0 .115 0 .228-.185.301a.825.825 0 01-.16.045c-.046.01-.09.01-.147.01-.04.003-.08.005-.115.01a.24.24 0 00-.099.036l-.234.135c-.24.138-.53.306-.663.423a.315.315 0 00-.106.2c-.02.109-.024.276-.017.55l.002.045c.004.001.024-.01.048-.02a.66.66 0 00.138-.098.25.25 0 00.067-.078l.01-.052c.024-.117.059-.294.154-.355a.332.332 0 01.149-.047.375.375 0 00.095-.02c.013-.004.026-.038.04-.077.036-.093.079-.206.232-.212.018-.002.037-.002.055-.002.071 0 .129 0 .168-.078a.332.332 0 01.108-.141c.043-.03.095-.037.171-.036h.02c.056.002.166.006.224-.007a.113.113 0 00.076-.049.49.49 0 01.04-.042l.021-.023c.049-.05.09-.093.177-.09a.23.23 0 01.097.021c.037.02.063.056.063.12 0 .035-.014.08-.035.122a.538.538 0 01-.08.123l-.002.002a.199.199 0 00-.032.078.522.522 0 00-.016.134.61.61 0 01-.024.216.263.263 0 01-.157.16c-.031.015-.067.026-.098.037-.067.023-.133.045-.157.08-.01.013-.013.058-.018.108-.01.097-.019.213-.095.265a.305.305 0 01-.138.048c-.05.007-.104.007-.164.007a.163.163 0 00-.08.03.53.53 0 00-.104.1c-.112.137-.203.096-.317.045l-.08-.033c-.042-.013-.087-.028-.135-.037a.557.557 0 00-.135-.015.611.611 0 00-.184.022.287.287 0 00-.123.08c-.01.07-.009.66-.007.784.002.087.005.175.017.264z" fill="#00417F"/><path d="M12.39 7.347H5.61a5.83 5.83 0 00.377 1.936h1.057v-.007c0-.019 0-.037.004-.054a.185.185 0 01.067-.117.19.19 0 01.12-.038.37.37 0 01.177.045.29.29 0 01.102.099.54.54 0 01.037.072h1.033a.729.729 0 01-.086-.154.563.563 0 01-.044-.26.276.276 0 01.05-.14.457.457 0 01.093-.1l-.006-.027c-.039-.164-.09-.378.214-.577a.634.634 0 01.056-.264.321.321 0 01.188-.162h.03a.331.331 0 01.195.175c.038.074.05.17.043.283.26.251.168.448.116.554a.509.509 0 01.141.307.583.583 0 01-.065.278.78.78 0 01-.047.087h1.132a.596.596 0 00.022-.037.294.294 0 01.092-.099.256.256 0 01.117-.037.324.324 0 01.095.01.242.242 0 01.1.05.155.155 0 01.05.104v.01h.942a5.83 5.83 0 00.378-1.937z" fill="#FFED00"/><path d="M9.086 12.767c-.03.002-.057.002-.087.002-.035 0-.07 0-.104-.002.003-.043.005-.129.007-.171.004-.105.004-.224.004-.33l.002-.052c0-.097 0-.208-.002-.307a1.45 1.45 0 00-.017-.227l-.01-.019a.37.37 0 00-.16-.119.597.597 0 00-.202-.031.863.863 0 00-.188.016c-.06.013-.115.03-.183.052-.052.017-.094.034-.132.032-.033 0-.067-.013-.108-.052l-.028-.028c-.057-.058-.117-.115-.204-.115a.464.464 0 01-.14-.017.244.244 0 01-.102-.058c-.06-.056-.058-.152-.058-.229 0-.052 0-.097-.015-.13a.363.363 0 00-.132-.119 1.583 1.583 0 00-.17-.086.228.228 0 01-.12-.128.493.493 0 01-.028-.2c0-.037 0-.077-.006-.113a.174.174 0 00-.046-.106l.001.002c-.022-.026-.046-.052-.063-.084a.22.22 0 01-.026-.104c0-.03.01-.054.022-.07.013-.017.03-.029.045-.029.054-.001.129.071.177.12a.94.94 0 00.114.104.33.33 0 00.128.063c.074.017.13.015.177.015h.007c.06-.002.1.004.13.022.03.019.054.052.082.108.062.125.11.125.201.123h.054c.071.004.092.043.125.108l.026.044c.02.038.043.07.063.094a.252.252 0 00.068.061c.033.019.059.024.087.03.03.007.065.015.12.048a.17.17 0 01.055.069.539.539 0 01.033.11c.02.098.036.18.075.253.039.076.1.136.21.175.054.02.082.011.103-.023.015-.022.015-.048.016-.087.015-.283.023-.463.008-.588-.017-.136-.058-.207-.136-.259-.173-.119-.352-.24-.518-.346a4.57 4.57 0 00-.44-.26l-.012-.004a.758.758 0 00-.154-.015H7.61c-.094-.004-.186-.006-.277-.069a.315.315 0 01-.11-.12.122.122 0 01.002-.109l.011-.024c.036-.063.052-.091-.018-.156a.282.282 0 01-.064-.082.164.164 0 01-.022-.077.21.21 0 01.004-.037c.004-.03.017-.05.033-.061a.11.11 0 01.067-.02l.04.003a.335.335 0 01.093.03.191.191 0 01.07.069c.02.033.03.06.04.083.01.025.018.047.035.071.043.067.097.08.156.093.03.008.062.013.091.032a.16.16 0 01.058.054.235.235 0 01.04.095l.008.035c.01.062.017.104.097.164.184.138.369.257.536.365.116.076.224.145.317.212.015.01.028.017.04.02.015.004.03.004.045 0a.061.061 0 00.037-.028c.006-.007.008-.014.012-.022a.322.322 0 000-.126c-.006-.045-.012-.1-.032-.14a2.296 2.296 0 01-.274-.372.436.436 0 01-.052-.257.182.182 0 01.03-.086c.034-.048.086-.074.136-.104a.773.773 0 01-.179-.251.495.495 0 01-.039-.22.204.204 0 01.035-.097.493.493 0 01.12-.113c-.019-.086-.047-.17-.043-.257.003-.158.113-.255.24-.335a.682.682 0 01.045-.273.239.239 0 01.126-.114.27.27 0 01.132.125.544.544 0 01.03.28c.088.08.171.178.175.304.002.09-.043.162-.076.242a.38.38 0 01.115.134.478.478 0 01.047.154.505.505 0 01-.058.233.766.766 0 01-.205.264c.05.05.099.1.129.168a.274.274 0 01.026.115.378.378 0 01-.093.225c-.056.073-.13.138-.2.196-.027.044-.027.102-.027.154 0 .045.003.09.013.123a.05.05 0 00.01.022c.01.017.025.03.044.038.02.007.042.01.065.005a.07.07 0 00.024-.011c.052-.03.084-.046.115-.065.231-.129.51-.285.778-.48a.213.213 0 00.079-.097.338.338 0 00.022-.117c0-.036.011-.067.026-.093a.22.22 0 01.07-.073c.029-.017.071-.015.11-.015.071.002.138.004.183-.065a.95.95 0 00.045-.076l.048-.084a.218.218 0 01.063-.07.148.148 0 01.077-.023.21.21 0 01.069.006.157.157 0 01.06.03c.014.01.021.025.021.044a.066.066 0 01-.002.026.188.188 0 01-.035.073.624.624 0 01-.058.074c-.06.07-.06.147-.06.223 0 .086 0 .17-.128.218a.689.689 0 01-.143.043c-.04.006-.08.007-.134.01-.045.001-.086.001-.128.009a.354.354 0 00-.13.046l-.232.136c-.243.14-.538.309-.679.432a.393.393 0 00-.132.25c-.022.116-.028.29-.019.57.002.08.026.116.067.127.036.01.07-.007.11-.028a.732.732 0 00.158-.11c.049-.043.086-.089.093-.123l.012-.055c.02-.103.05-.257.115-.3.03-.019.07-.024.113-.032a.436.436 0 00.114-.026c.048-.016.069-.069.091-.126.026-.07.058-.153.153-.157.018-.002.037-.002.052-.002.102 0 .184 0 .248-.126.027-.056.048-.09.074-.108h.002c.026-.017.061-.02.12-.02l.021.002c.06.001.175.005.246-.012.07-.015.091-.039.125-.078a.27.27 0 01.031-.035l.024-.024c.034-.036.062-.066.112-.064.019 0 .041.002.056.01.01.005.017.018.017.042a.391.391 0 01-.091.186l.001-.001a.272.272 0 00-.055.119.74.74 0 00-.02.158.56.56 0 01-.018.184.187.187 0 01-.11.11.596.596 0 01-.09.034c-.08.027-.159.054-.2.113-.024.034-.03.087-.035.15-.008.079-.015.17-.058.2a.229.229 0 01-.1.033c-.043.008-.093.008-.151.008a.228.228 0 00-.129.044.578.578 0 00-.124.118c-.07.084-.133.056-.213.02-.028-.013-.055-.026-.087-.035a1.117 1.117 0 00-.145-.041.743.743 0 00-.363.01.384.384 0 00-.171.115l-.01.018a3.08 3.08 0 00-.013.447v.091c0 .088 0 .186.002.277l.002.088c.002.045.006.132.01.177z" fill="#39A642"/><path d="M10.791 10.584c-.21.253-.398.348-.564.433-.134.07-.253.13-.36.267-.012.014-.038.018-.053.005-.015-.013-.017-.037-.005-.05.117-.15.244-.214.385-.287.16-.082.339-.175.542-.417a.04.04 0 01.052-.004.038.038 0 01.003.053zm-3.506-.119c.203.25.381.344.541.428.14.074.265.14.38.288.011.015.015.038-.006.052-.018.011-.04.008-.052-.007-.104-.136-.223-.2-.355-.268-.166-.088-.354-.184-.566-.447a.04.04 0 01.006-.052c.014-.013.04-.01.052.006z" fill="#000"/></svg>