<!-- by TradingView --><svg width="18" height="18" viewBox="0 0 18 18" xmlns="http://www.w3.org/2000/svg"><path fill="#7DD8EB" d="M0 0h18v18H0z"/><path d="M5 4v5l1.33-1.05.27.79.53-3.69.54 2.63.26-.52L8.47 9 9 5.58l.53 2.63.54-2.1.26 2.36.54-2.36L11.93 9H13V4H5Z" fill="#70220E"/><path d="M5 14v-4h1l.33-1 .54 1.32.26-2.37.27 2.37.27-.8.26 1.85.54-1.84.26.79L9 8.47l.27 1.85.26-.8.27.53.27-1.31.43 2.76.37-3.29.63 1.79H13v4H5Z" fill="#70220E"/><path d="M6.33 7.95 6 10l.33-1 .54 1.32.26-2.37.27 2.37.27-.8.26 1.85.54-1.84.26.79L9 8.47l.27 1.85.26-.8.27.53.27-1.31.43 2.76.37-3.29.63 1.79-.63-3.9-.54 2.37-.26-2.36-.54 2.1L9 5.58 8.47 9l-.54-1.84-.26.52-.54-2.63-.53 3.69-.27-.8Z" fill="#F8FFFF"/></svg>