<!-- by TradingView --><svg width="18" height="18" viewBox="0 0 18 18" xmlns="http://www.w3.org/2000/svg"><path d="M0 9a9 9 0 1 1 18 0A9 9 0 1 1 0 9Z" fill="#F0F3FA"/><path fill-rule="evenodd" d="M4 6.8A2.8 2.8 0 0 1 6.8 4h4.4A2.8 2.8 0 0 1 14 6.8v4.4a2.8 2.8 0 0 1-2.8 2.8H6.8A2.8 2.8 0 0 1 4 11.2V6.8Zm1-.02C5 5.79 5.77 5 6.73 5h4.53c.96 0 1.74.8 1.74 1.79V9a4.73 4.73 0 0 0-1.99-.5H6.73A1.7 1.7 0 0 1 5 6.78ZM11.27 13c.96 0 1.73-.8 1.73-1.78a1.7 1.7 0 0 0-1.73-1.72H7C6.28 9.5 5.63 9.29 5 9v2.21C5 12.2 5.78 13 6.74 13h4.53Z" fill="#622300"/></svg>