<!-- by TradingView --><svg width="18" height="18" viewBox="0 0 18 18" fill="none" xmlns="http://www.w3.org/2000/svg">
<rect width="18" height="18" fill="#F0F3FA"/>
<path fill-rule="evenodd" clip-rule="evenodd" d="M2 10.8006C2 10.8006 10.3641 10.3621 16 10.7713C16 10.7713 13.6794 11.0204 9 11C7.06917 10.9915 4.73673 10.9372 2 10.8006Z" fill="#005DA9"/>
<path fill-rule="evenodd" clip-rule="evenodd" d="M4 12.5523L4.5 13C4.5 13 10.2088 7.5 15 5C15 5 10.7782 6.11552 4 12.5523Z" fill="#005DA9"/>
<path fill-rule="evenodd" clip-rule="evenodd" d="M3 10H3.66825L6.84106 6H6.17281L3 10Z" fill="#9D9D9D"/>
<path fill-rule="evenodd" clip-rule="evenodd" d="M7.28556 8L6.88059 8.52326H4.69418L5.07275 8H7.28556Z" fill="#9D9D9D"/>
<path fill-rule="evenodd" clip-rule="evenodd" d="M9.00002 6L8.68326 6.53717H6.2496L6.64363 6H9.00002Z" fill="#9D9D9D"/>
<path fill-rule="evenodd" clip-rule="evenodd" d="M15 6L13.7872 10H13.1592L14.3226 6.33975L9.98323 9.99212H9.41174L14.2239 6H15Z" fill="url(#paint0_linear_5825_209720)"/>
<path fill-rule="evenodd" clip-rule="evenodd" d="M11.9448 7.99609H14.0193V8.37829H11.7983L11.9448 7.99609Z" fill="url(#paint1_linear_5825_209720)"/>
<defs>
<linearGradient id="paint0_linear_5825_209720" x1="12.2059" y1="6" x2="12.2059" y2="10" gradientUnits="userSpaceOnUse">
<stop stop-color="#181B1E"/>
<stop offset="1" stop-color="#181B1E"/>
</linearGradient>
<linearGradient id="paint1_linear_5825_209720" x1="12.9088" y1="7.99609" x2="12.9088" y2="8.37829" gradientUnits="userSpaceOnUse">
<stop stop-color="#181B1E"/>
<stop offset="1" stop-color="#181B1E"/>
</linearGradient>
</defs>
</svg>
