<!-- by TradingView --><svg width="18" height="18" viewBox="0 0 18 18" xmlns="http://www.w3.org/2000/svg"><path fill="#F0F3FA" d="M0 0h18v18H0z"/><path d="M2 7h4.9l.35.09L8.65 6l1.74 1h4.56l1.05.54V11H2V7Z" fill="url(#a)"/><path d="M9.7 7H9v4h1.41V8.43h2.1l-.92.52V11H13V8.43h1.54l-.95.6V11H15V7H9.71Z" fill="url(#b)"/><path d="M7.25 6.71 8.65 6v5h-1.4V6.71Z" fill="url(#c)"/><path d="M2 7h5v1H3.4v1h3.5l-.98 1H3.4v1H2V7Z" fill="url(#d)"/><defs><linearGradient id="a" x1="9" y1="6" x2="9" y2="11" gradientUnits="userSpaceOnUse"><stop stop-color="#00055E"/><stop offset="1" stop-color="#000221"/></linearGradient><linearGradient id="b" x1="9.19" y1="7.17" x2="12.76" y2="11.44" gradientUnits="userSpaceOnUse"><stop stop-color="#FFA600"/><stop offset="1" stop-color="#FF6A00"/></linearGradient><linearGradient id="c" x1="7.95" y1="6" x2="7.95" y2="11" gradientUnits="userSpaceOnUse"><stop stop-color="#FFB800"/><stop offset="1" stop-color="#FF9400"/></linearGradient><linearGradient id="d" x1="4.49" y1="7.08" x2="4.49" y2="10.98" gradientUnits="userSpaceOnUse"><stop stop-color="#FFBF00"/><stop offset="1" stop-color="#FF9000"/></linearGradient></defs></svg>