<!-- by TradingView --><svg width="18" height="18" viewBox="0 0 18 18" xmlns="http://www.w3.org/2000/svg"><path fill="#F0F3FA" d="M0 0h18v18H0z"/><path d="M7.24 13.84c-.2 0-.93-.55-1.27-.82.66-.23 1.73-1.34 2.18-1.87.26.39.72.91.91 1.12a5.83 5.83 0 0 1-1.82 1.57ZM7.16 7.44c0-.63.17-1.28.25-1.53-.51.58-1.62 1.87-1.94 2.37-.33.5-.3.97-.24 1.14.65-.67 1.93-2 1.93-1.98Z" fill="#013668"/><path d="M7.14 8.62c-.2-2.06.55-3.41.95-3.83l.25 1.16c-.08.11 0 .54 0 1.33 0 2.26 2.48 4.67 3.77 5.64-.37.57-1.1 1-1.35 1.08-1-.74-3.37-2.81-3.62-5.38Z" fill="#FAD046"/><path d="M8.58 6.17c0-1.36.28-2.5.42-2.89l.53-.2c.53 2.05 1.84 3.47 2.88 4.56.83.86.58 1.59.36 1.84a9.42 9.42 0 0 1-3.05-3.81v.7c.72 2.47 2.8 3.86 2.92 3.96.13.1.36.44.36.78 0 .63-.24.88-.36.92-2.43-1.44-4.06-4.15-4.06-5.86Z" fill="#FAD046"/><path d="M9.06 3c.2 0 .36.1.4.16-.2.62-.66 1.9-.76 2.1-.1.22-.28.54-.36.67-.1-.33-.3-1.02-.27-1.1.04-.1.46-1.39.48-1.49.03-.1.26-.34.51-.34ZM10.82 7.54l-.8-1.25a7.43 7.43 0 0 1-.98 3.33c.22.61.77 1.2 1.02 1.43.64-1.17.76-2.8.76-3.51ZM9.08 7.86c-.03-.37-.33-1.36-.48-1.8-.4 2.3-3.6 4.23-3.6 4.63 0 .32.26 1.12.36 1.4a14.87 14.87 0 0 0 3.72-4.23Z" fill="#013668"/></svg>