<!-- by TradingView --><svg width="18" height="18" viewBox="0 0 18 18" xmlns="http://www.w3.org/2000/svg"><path fill="#F0F3FA" d="M0 0h18v18H0z"/><path d="M7.13 5.46c-.38 0-.68.29-.9.58a1.25 1.25 0 1 1 0-1.58c.22.3.52.58.9.58.37 0 .67-.29.9-.58a1.25 1.25 0 0 1 1.94 0c.23.3.53.58.9.58.38 0 .68-.29.9-.58a1.25 1.25 0 1 1 0 1.58c-.22-.3-.52-.58-.9-.58-.37 0-.67.29-.9.58a1.25 1.25 0 0 1-1.94 0c-.23-.3-.53-.58-.9-.58Zm5.62 4.79a1.25 1.25 0 1 0 0-2.5 1.25 1.25 0 0 0 0 2.5ZM5.25 14a1.25 1.25 0 1 0 0-2.5 1.25 1.25 0 0 0 0 2.5Zm5-1.25a1.25 1.25 0 1 1-2.5 0 1.25 1.25 0 0 1 2.5 0Zm2.5 1.25a1.25 1.25 0 1 0 0-2.5 1.25 1.25 0 0 0 0 2.5ZM6.22 9.79c.23-.3.53-.58.9-.58.38 0 .68.29.9.58a1.25 1.25 0 1 0 0-1.58c-.22.3-.52.58-.9.58-.37 0-.67-.29-.9-.58a1.25 1.25 0 1 0 0 1.58Z" fill="url(#a)"/><defs><linearGradient id="a" x1="5.67" y1="5.67" x2="14" y2="12.33" gradientUnits="userSpaceOnUse"><stop stop-color="#11569F"/><stop offset="1" stop-color="#B0DEF1"/></linearGradient></defs></svg>