<!-- by TradingView --><svg width="18" height="18" viewBox="0 0 18 18" xmlns="http://www.w3.org/2000/svg"><path fill="#007CCA" d="M0 0h18v18H0z"/><path fill-rule="evenodd" d="m7.6 14.7.15-.09c.07-.04.22-.06.45-.03a6.2 6.2 0 0 0 4.67-1.3 5.44 5.44 0 0 0 .97-7.7 8.43 8.43 0 0 0-1.22-1.2.35.35 0 0 1-.1-.14l-.05-.15c-.24-.63-.44-1.18-1.22-1.08-.21.03-.36.13-.54.25l-.17.1a.24.24 0 0 1-.16.04 58 58 0 0 0-.62-.08 5.95 5.95 0 0 0-6.71 4.77c-.3 2.52.77 4.3 2.7 5.66a.3.3 0 0 1 .1.15c.24.7.52 1.31 1.36 1.03.16-.06.28-.14.4-.22Zm1.3-7.27c-.53-.69-1.23-.14-1.6.4a7.62 7.62 0 0 0-1.35 3.6c0 .1-.05.47-.12 1.13 0 .07-.04.09-.1.04A4.55 4.55 0 0 1 4.7 6.4 5.25 5.25 0 0 1 9.89 4.2l.04.06a.16.16 0 0 1 .02.13 28.54 28.54 0 0 0-.88 3c-.03.14-.09.15-.17.04Zm1.13-.6c-.31 1.2-.29 2.25.05 2.36.34.1.87-.79 1.19-1.99.31-1.2.3-2.25-.05-2.35-.34-.1-.87.78-1.19 1.98Zm1.45 2.56c-.3.6-.8 1.35-1.46 1.5-.22.06-.44-.13-.62-.29a4.73 4.73 0 0 0-.1-.07c-.06-.05-.1-.04-.11.04a25.85 25.85 0 0 1-.84 3.03l.01.05.03.03.04.01a5.18 5.18 0 0 0 3.96-1.16 4.83 4.83 0 0 0 1.65-2.92 4.72 4.72 0 0 0-1.46-4.08.1.1 0 0 0-.06.01.1.1 0 0 0-.04.04 9.46 9.46 0 0 1-1 3.81Zm-3.3 1.76c-.2.8-.36 1.3-.44 1.51a.73.73 0 0 1-.48.43c-.15.05-.26 0-.34-.15-.28-.52-.05-1.6.1-2.15.15-.56.5-1.6 1-1.89.13-.07.25-.05.35.08.16.2.23.41.2.63-.04.23-.17.74-.38 1.54Z" fill="#fff"/></svg>