<!-- by TradingView --><svg width="18" height="18" viewBox="0 0 18 18" xmlns="http://www.w3.org/2000/svg"><path fill="#F0F3FA" d="M0 0h18v18H0z"/><path fill-rule="evenodd" d="M10.77 11.31c-.23.04-.52.13-.88.3-.15.09-.26.17-.33.23-.28.24-.44.55-.46.92-.03.43.25.79.5 1.12l.03.04a.05.05 0 0 1-.01.07l-.03.01h-.05l-.03-.01a3.35 3.35 0 0 1-.5-.6 1.22 1.22 0 0 1-.22-.87c.05-.4.22-.72.5-.98.3-.29.72-.49 1.25-.6.28-.07.56-.11.85-.16.47-.08.95-.16 1.4-.32.5-.17.8-.5.86-.98.04-.29.04-.6-.12-.82l-.11-.18a.12.12 0 0 1-.01-.08c.12-.68.03-1.45-.59-1.88l-.24-.16c-.16-.1-.3-.19-.45-.33a3.12 3.12 0 0 0-.45-.37 1.95 1.95 0 0 0-1.7-.3l-.58.26a.12.12 0 0 1-.08 0l-.51-.13a1.78 1.78 0 0 0-1.64.36 3.39 3.39 0 0 0-.41.44.49.49 0 0 1-.1.03c-1.15.18-1.9.79-1.73 2a.63.63 0 0 1-.05.3c-.2.33-.33.6-.41.83a2.5 2.5 0 0 0-.13 1.38c.17.81 1.1 1.36 1.9 1.44.54.05 1.05-.02 1.53-.22.33-.14.54-.56.26-.85-.2-.22-.53-.17-.84-.1-.49.12-.89.16-1.2.13-.51-.05-.8-.52-.6-1 .1-.2.2-.36.36-.5.64-.6 1.47-.8 2.34-.77.02 0 .03 0 .04-.02l.02-.03c.01-.25.05-.48.12-.69.01-.03 0-.05-.03-.05a2.7 2.7 0 0 0-1.37.04c-.04.01-.05.06-.03.09.19.18.43.31.73.4l.35.1c.04 0 .04.08 0 .08a1.79 1.79 0 0 1-1.32-.64.07.07 0 0 1 .03-.1 2.18 2.18 0 0 1 1.72-.15c.03 0 .06 0 .08-.02a.6.6 0 0 1 .6-.2c.17.03.15-.44.16-.5 0-.07.13-.02.13.03 0 .15-.05.3-.13.46-.02.02 0 .06.02.08l.14.13h.06c.16-.04.36-.07.58-.06.05 0 .07.02.07.07V8c0 .03-.01.04-.04.04h-.56c-.04 0-.06.02-.05.06.04.22 0 .42-.14.6a.1.1 0 0 0-.02.08c0 .05.02.1.04.15.12.36.07.76-.1 1.09-.1.2-.2.4-.36.56a.09.09 0 0 1-.13-.02 3.39 3.39 0 0 1-.56-1.36 4.11 4.11 0 0 0-1.28.17 2.2 2.2 0 0 0-1.06.7c-.1.11-.25.4-.19.56.12.36.49.37.82.34.16-.01.48-.08.96-.2.18-.05.41-.01.68.1.32.14.46.55.35.87a.85.85 0 0 1-.43.52c-.77.36-1.57.42-2.4.16-.74-.22-1.48-.84-1.57-1.64-.1-.82.22-1.52.66-2.2.07-.1.03-.2 0-.3a1.02 1.02 0 0 1-.02-.1c-.13-.56-.03-1.02.28-1.4a2.12 2.12 0 0 1 1.66-.65.14.14 0 0 0 .12-.07c.42-.69 1.05-.97 1.89-.84.2.03.41.1.64.2a.17.17 0 0 0 .16 0l.48-.27a1.92 1.92 0 0 1 2.07.36c.13.11.27.28.44.5l.06.05.3.1c.83.3 1.16 1.16.93 1.95a9.6 9.6 0 0 0-.07.26c0 .03 0 .05.02.07.37.46.45.97.26 1.54-.2.59-.84.89-1.43 1.02-.47.1-1.03.21-1.7.31ZM8.6 8.1l.49.43a.02.02 0 0 0 .03 0 .32.32 0 0 0 .06-.37.34.34 0 0 0-.08-.1l-.01-.01a.35.35 0 0 0-.25-.09.34.34 0 0 0-.23.1l-.01.02a.02.02 0 0 0 0 .01.02.02 0 0 0 0 .01Zm-.18.25-.1.48a.07.07 0 0 0 .03.08.08.08 0 0 0 .07.01l.46-.14a.07.07 0 0 0 .03-.13l-.36-.34a.08.08 0 0 0-.13.04Zm.23 1.9-.33-.95a.1.1 0 0 1 0-.08.1.1 0 0 1 .07-.06l.58-.2c.08-.03.15.03.15.1-.02.5-.07.73-.26 1.2-.04.09-.17.08-.2 0Z" fill="url(#a)"/><defs><linearGradient id="a" x1="13.71" y1="8.34" x2="4.35" y2="10.68" gradientUnits="userSpaceOnUse"><stop stop-color="#B320A2"/><stop offset=".43" stop-color="#8E79CF"/><stop offset="1" stop-color="#47A9CE"/></linearGradient></defs></svg>