<!-- by TradingView --><svg width="18" height="18" viewBox="0 0 18 18" xmlns="http://www.w3.org/2000/svg"><path fill="#F0F3FA" d="M0 0h18v18H0z"/><path d="M5.03 10.64a2.81 2.81 0 0 0-1.68.42c.48 0 .83.31.9.42-.5.29-.62.81-.62 1.2.66-.41 1.5-.15 2.13-.15.63 0 .94-.45.94-.84 0-.4-.62-1-1.67-1.05Z" fill="url(#aukccafo3)"/><path d="M3.5 11.02a1.27 1.27 0 0 1 .78.43l.03.05-.04.03c-.45.25-.57.7-.59 1.07a1.9 1.9 0 0 1 1.02-.2c.18 0 .35.02.52.04h.03l.5.03c.62 0 .9-.42.9-.78a.55.55 0 0 0-.1-.3c-.07-.1-.18-.2-.31-.3-.28-.21-.69-.37-1.2-.4-.7-.03-1.25.17-1.53.33Zm-.17 0c.22-.17.86-.47 1.7-.43.54.02.96.2 1.25.4.15.1.26.23.34.34.08.12.12.24.12.36 0 .43-.33.89-.98.89l-.51-.03H5.2c-.17-.03-.34-.04-.5-.05-.37-.01-.74.03-1.06.23l-.06.04v-.09c0-.39.1-.91.58-1.22a1.16 1.16 0 0 0-.82-.35H3.2l.13-.1Z" fill="#231F20"/><path d="M13.02 10.64c.84-.04 1.47.26 1.68.42-.48 0-.83.31-.9.42.5.29.62.81.62 1.2-.66-.41-1.49-.15-2.12-.15-.64 0-.94-.45-.94-.84 0-.4.6-1 1.66-1.05Z" fill="url(#bukccafo3)"/><path d="M14.54 11.02a1.27 1.27 0 0 0-.77.43l-.03.05.05.03c.44.25.57.7.58 1.07a1.9 1.9 0 0 0-1.02-.2 7.8 7.8 0 0 0-.55.04l-.5.03c-.62 0-.9-.42-.9-.78 0-.08.03-.18.1-.3.07-.1.18-.2.32-.3.27-.21.68-.37 1.2-.4.7-.03 1.24.17 1.52.33Zm.19 0a2.85 2.85 0 0 0-1.71-.43c-.54.02-.96.2-1.25.4-.15.1-.26.23-.34.34a.66.66 0 0 0-.12.36c0 .43.33.89.99.89l.5-.03h.04c.17-.03.34-.04.51-.05.37-.01.73.03 1.05.23l.06.04v-.09c0-.39-.1-.91-.58-1.22.04-.05.13-.12.24-.18.15-.1.35-.17.58-.17h.16l-.13-.1Z" fill="#231F20"/><path d="m5.19 11.3-.24-1.34c.22-.27.75-.41.98-.45l1.12.3-.38 1.33-1.48.16Z" fill="url(#cukccafo3)"/><path d="m5.93 9.46 1.17.3-.4 1.43-1.55.16-.25-1.4.02-.03c.12-.14.31-.25.5-.32.2-.08.39-.12.5-.14h.01ZM5 9.98l.23 1.26 1.42-.15L7 9.84l-1.06-.27c-.12.01-.3.06-.48.13s-.35.16-.46.28ZM12.5 10.83c.2.05.31.12.36.17l.05-.09c-.06-.05-.2-.13-.4-.19a2.9 2.9 0 0 0-.83-.1v.1c.35 0 .62.05.82.1Z" fill="#231F20"/><path d="m12.86 11.3.25-1.34c-.23-.27-.76-.41-.99-.45l-1.11.3.37 1.33 1.48.16Z" fill="url(#dukccafo3)"/><path d="m12.12 9.46-1.17.3.4 1.43 1.55.16.25-1.4-.01-.03a1.26 1.26 0 0 0-.51-.32c-.2-.08-.38-.12-.5-.14h-.01Zm.94.52-.23 1.26-1.42-.15-.35-1.25 1.06-.27c.12.01.3.06.48.13s.35.16.46.28Z" fill="#231F20"/><path d="m8.34 5.06.2.4c-.25.33-.82.25-.8.1.02-.13-.07-.21-.12-.24l.2-.05a.79.79 0 0 1 0-.34c.08.08.28.13.32.23 0-.12.06-.26.09-.31l.1.2Z" fill="url(#eukccafo3)"/><path d="M9.71 5.06a7.2 7.2 0 0 0-.2.4c.25.33.82.25.8.1-.02-.13.08-.21.13-.24l-.2-.05a.79.79 0 0 0 0-.34c-.09.08-.28.13-.33.23a.74.74 0 0 0-.09-.31l-.1.2Z" fill="url(#fukccafo3)"/><path d="m9.82 4.74-.03.09-.11.2-.2.4-.01.03.02.03c.13.18.34.25.52.25.09 0 .17 0 .23-.04a.22.22 0 0 0 .08-.05.13.13 0 0 0 .03-.1c0-.05 0-.08.03-.11a.23.23 0 0 1 .07-.07l.13-.07-.29-.07.01-.12a.6.6 0 0 0-.02-.2l-.02-.07-.05.05a2.2 2.2 0 0 1-.17.1.67.67 0 0 0-.1.06.81.81 0 0 0-.08-.23l-.04-.08Zm.02.26c.02.05.03.11.03.16l.08.03c0-.02.02-.03.04-.05a.59.59 0 0 1 .09-.06l.04-.02a2.85 2.85 0 0 0 .1-.05v.1l-.02.15-.01.05.14.04-.02.02a.27.27 0 0 0-.05.2l-.05.04a.49.49 0 0 1-.2.03.58.58 0 0 1-.44-.2 6.87 6.87 0 0 1 .25-.48l.02.04ZM8.24 4.74l.03.09.1.2c.08.13.17.32.2.4l.02.03-.02.03a.65.65 0 0 1-.53.25.56.56 0 0 1-.23-.04.22.22 0 0 1-.07-.05.13.13 0 0 1-.03-.1c0-.05-.01-.08-.03-.11a.23.23 0 0 0-.08-.07l-.12-.07.28-.07V5.1c-.01-.06 0-.14.01-.2l.03-.07.04.05.07.05.06.02L8 5a.67.67 0 0 1 .1.06.81.81 0 0 1 .08-.23l.05-.08ZM8.22 5a.56.56 0 0 0-.03.16l-.09.03a.14.14 0 0 0-.04-.05.59.59 0 0 0-.13-.08 2.69 2.69 0 0 1-.09-.05v.1l.02.15v.05l-.13.04.01.02c.04.05.06.11.05.2l.05.04c.05.02.12.03.2.03.16 0 .33-.06.44-.2a6.88 6.88 0 0 0-.25-.48.8.8 0 0 0-.01.04Z" fill="#231F20"/><path d="M6.33 8.65c0 3.51 1.02 3.88 2.73 4.3 1.7-.42 2.73-.79 2.73-4.3 0-2.81-1.84-3.3-2.73-3.2-.89-.1-2.73.39-2.73 3.2Z" fill="#EAC364"/><path fill-rule="evenodd" d="M7.38 6c-.56.45-1.01 1.26-1.01 2.65 0 1.75.26 2.7.71 3.27.46.57 1.21.76 2.06.97.85-.2 1.44-.4 1.9-.97.45-.57.71-1.52.71-3.27 0-1.39-.46-2.2-1.01-2.65a2.9 2.9 0 0 0-3.36 0Zm1.68-.6a2.4 2.4 0 0 0-1.73.51c-.58.48-1.05 1.32-1.05 2.74 0 1.76.26 2.75.74 3.34.48.6 1.26.8 2.11 1l.01.01h.01c.85-.21 1.47-.41 1.95-1 .48-.6.74-1.6.74-3.35 0-1.42-.47-2.26-1.06-2.74a2.4 2.4 0 0 0-1.72-.51Z" fill="#231F20"/><path d="M8.77 4.48c.07-.08.2-.3.27-.4.06.1.19.32.26.4.09.1.09.16.04.32.07-.21.22-.23.29-.21a.22.22 0 0 0-.09.18c0 .06.02.1.04.15.02.06.05.1.05.2 0 .15-.11.38-.18.46a.75.75 0 0 0-.1.21h-.62a.75.75 0 0 0-.1-.2.96.96 0 0 1-.18-.48c0-.08.02-.13.04-.19.02-.04.04-.09.04-.15 0-.1-.05-.17-.08-.18.06-.02.21 0 .28.2-.04-.15-.04-.2.04-.3Z" fill="url(#gukccafo3)"/><path d="m9.04 4 .03.06.26.39c.04.05.07.1.08.15a.25.25 0 0 1 .23-.06l.12.03-.11.06c-.02.02-.07.06-.07.14 0 .05.02.08.04.13s.05.12.05.21c0 .1-.03.2-.07.29a.9.9 0 0 1-.12.22.7.7 0 0 0-.1.2v.02H8.7l-.01-.03a.7.7 0 0 0-.1-.19.9.9 0 0 1-.12-.22.83.83 0 0 1-.07-.29c0-.1.03-.16.05-.2V4.9a.3.3 0 0 0 .04-.13c0-.08-.04-.12-.06-.14l-.11-.06.12-.03c.05-.02.14-.01.22.06.01-.06.04-.1.08-.15l.26-.4.04-.05Zm0 .18c-.07.1-.17.27-.23.34-.05.05-.06.08-.06.1l.02.16-.08.04c-.03-.1-.09-.15-.14-.17a.3.3 0 0 1 .03.12.4.4 0 0 1-.05.18.36.36 0 0 0-.04.16c0 .07.02.16.06.24.03.09.07.16.1.2.05.05.09.14.1.19h.56a.76.76 0 0 1 .11-.2c.03-.03.07-.1.1-.19a.71.71 0 0 0 .06-.24.36.36 0 0 0-.04-.16c-.02-.05-.04-.1-.04-.18a.3.3 0 0 1 .02-.12c-.05.02-.1.07-.14.17l-.08-.04a.43.43 0 0 0 .03-.15c0-.03-.02-.06-.06-.11a3.93 3.93 0 0 1-.23-.34Z" fill="#231F20"/><path d="M10.79 9.1c0 1.53-.79 2.77-1.75 2.77-.97 0-1.75-1.24-1.75-2.78 0-1.53.78-2.77 1.75-2.77.96 0 1.75 1.24 1.75 2.77Z" fill="#816532"/><path fill-rule="evenodd" d="M10.2 11c.3-.49.5-1.16.5-1.9 0-.75-.2-1.42-.5-1.9-.3-.49-.71-.78-1.16-.78-.45 0-.87.29-1.17.77-.3.49-.5 1.16-.5 1.9 0 .75.2 1.42.5 1.9.3.49.72.78 1.17.78.45 0 .86-.3 1.16-.77Zm-1.16.87c.96 0 1.75-1.24 1.75-2.78 0-1.53-.79-2.77-1.75-2.77-.97 0-1.75 1.24-1.75 2.77 0 1.54.78 2.78 1.75 2.78Z" fill="#231F20"/><path d="M6.57 9.15c0-1.89.74-2.83 1.11-3.07l.15.16.27-.03a4.15 4.15 0 0 0-1.08 2.94c0 2.45 1.35 2.85 2.02 2.75a.68.68 0 0 1-.64.42c-.48 0-1.83-.81-1.83-3.17Z" fill="#F9E3A0"/><path d="m7.69 6.02.16.16.4-.04-.13.11a4.1 4.1 0 0 0-1.05 2.9c0 1.21.33 1.9.74 2.29.4.38.9.46 1.22.4h.08l-.03.08a.72.72 0 0 1-.68.45c-.25 0-.72-.21-1.13-.72-.4-.5-.75-1.31-.75-2.5 0-1.9.75-2.87 1.14-3.12l.03-.01Zm-.01.12c-.37.26-1.07 1.18-1.07 3 0 1.17.33 1.95.72 2.44.4.5.85.69 1.07.69.3 0 .47-.18.56-.3-.35.02-.81-.08-1.2-.45-.44-.4-.78-1.13-.78-2.37 0-1.45.6-2.45.98-2.87l-.14.01-.14-.15Z" fill="#231F20"/><path d="M11.55 9.15c0-1.89-.74-2.83-1.11-3.07l-.16.16-.26-.03a4.15 4.15 0 0 1 1.07 2.94c0 2.45-1.34 2.85-2 2.75.04.14.24.42.63.42.48 0 1.83-.81 1.83-3.17Z" fill="#F9E3A0"/><path d="m10.43 6.02-.16.16-.4-.04.12.11a4.1 4.1 0 0 1 1.06 2.9c0 1.21-.33 1.9-.74 2.29-.4.38-.9.46-1.22.4H9l.03.08c.06.16.27.45.67.45.26 0 .73-.21 1.14-.72.4-.5.75-1.31.75-2.5 0-1.9-.75-2.87-1.14-3.12l-.03-.01Zm.01.12c.37.26 1.07 1.18 1.07 3a3.8 3.8 0 0 1-.73 2.44c-.4.5-.84.69-1.07.69a.64.64 0 0 1-.55-.3c.34.02.81-.08 1.2-.45.44-.4.78-1.13.78-2.37 0-1.45-.6-2.45-.99-2.87l.15.01.14-.15ZM7.68 7.55l-.37-.4.79-.34L8.38 8l-.37.24v-.4c0-.18-.22-.26-.33-.28Z" fill="#231F20"/><path d="M7.9 5.6c.12.08.24.19.24.3 0 .16-.13.3-.2.34h.1c.1-.1.35-.29.58-.29.23 0-.02 3.51-.17 5.27l-1.23.57.24.34h3.38c.1-.1.2-.2.28-.33l-.27-.37c-.2-.05-.61-.32-.61-1.08V6.24l-.28-.34c-.02-.07 0-.22.15-.26a.1.1 0 0 0 .02-.02c-.41-.17-.83-.2-1.14-.17-.29-.03-.69 0-1.08.15Z" fill="#231F20"/><path d="M3.8 9.01a.6.6 0 0 1-.08.03.63.63 0 0 0 .37-.29c.11-.2.16-.28.29-.28.13 0 .2.13.17.28-.02.16-.22.24-.3.21-.07-.02-.31.01-.45.05Z" fill="#97722F"/><path d="M3.95 9.27a.6.6 0 0 1-.08.03.63.63 0 0 0 .37-.29c.12-.2.16-.28.3-.28.12 0 .19.13.17.29-.03.15-.22.23-.31.2-.07-.02-.31.01-.45.05Z" fill="#97722F"/><path d="M4.22 9.54a.6.6 0 0 1-.08.03.63.63 0 0 0 .37-.29c.1-.21.15-.3.28-.3.14 0 .2.14.18.3-.02.15-.22.23-.3.2-.08-.01-.32.02-.45.06Z" fill="#97722F"/><path d="M4.4 9.7a.59.59 0 0 0-.09.02c.02 0 .05 0 .08-.02.1-.02.25-.03.36.04.19.1.26.15.37.06.11-.08.11-.23.03-.35-.1-.12-.3-.07-.36.01-.05.06-.26.19-.4.24ZM3.54 8.71a.59.59 0 0 1-.08.02l.08-.02a.6.6 0 0 0 .31-.22c.13-.2.18-.27.3-.26.14.01.2.15.16.3-.03.16-.23.22-.32.18-.07-.03-.31-.02-.45 0ZM3 8.05c.09.04.1.05 0 0 .12.03.3.04.43-.02.23-.1.32-.13.44-.03.13.09.12.24 0 .36-.1.1-.34.03-.41-.05A1.8 1.8 0 0 0 3 8.05Z" fill="#97722F"/><path d="M3.6 7.31c.07.07.1.08 0 0 .09.1.2.27.24.44.06.27.09.38.22.45.14.07.23-.03.25-.2.01-.18-.17-.37-.27-.39a1.85 1.85 0 0 1-.44-.3ZM4.74 6.26c.02.11.03.14 0 0 .02.15.02.36-.04.52-.1.27-.12.37-.05.52.07.16.2.15.3.03.1-.13.05-.41-.02-.5a2.56 2.56 0 0 1-.2-.57ZM3.96 6.32c.09.05.1.07 0 0a1 1 0 0 1 .29.4c.1.26.13.36.27.4.14.06.23-.06.22-.23 0-.18-.2-.33-.3-.34-.08 0-.33-.14-.48-.23ZM5.51 5.53c-.03.1-.03.13 0 0-.02.14-.02.36.04.52.1.26.13.36.06.52-.07.16-.2.15-.3.02-.1-.12-.06-.4.01-.5.05-.06.15-.37.2-.56ZM7.24 5c-.08.1-.1.12 0 0-.1.14-.2.35-.22.53-.04.3-.06.42-.21.54-.15.12-.29.05-.33-.13-.05-.17.15-.42.27-.48.09-.04.35-.3.5-.45Z" fill="#97722F"/><path d="M6.34 5.08c-.01.13-.02.16 0 0 0 .16.02.4.1.54.13.25.17.35.11.55-.05.2-.2.24-.31.15-.13-.1-.1-.42-.04-.55.05-.1.12-.47.14-.7Z" fill="#97722F"/><path d="M6.02 5.7c.01.12.02.15 0 0 .03.15.1.34.2.44.16.17.22.24.22.43s-.1.28-.22.24c-.12-.04-.18-.33-.16-.46.02-.1-.01-.45-.04-.65Z" fill="#97722F"/><path d="M5.76 6.12c.03.11.04.14 0 0 .06.13.17.3.28.37.18.12.25.17.3.35.03.19-.05.3-.17.3-.12-.01-.23-.27-.24-.4 0-.1-.1-.43-.17-.62Z" fill="#97722F"/><path d="M5.67 6.54c.04.1.05.14 0 0 .06.13.17.3.28.37.19.12.26.17.3.35.03.18-.04.3-.16.3-.13-.01-.24-.28-.25-.4 0-.1-.1-.43-.17-.62Z" fill="#97722F"/><path d="M5.63 7.01c.03.11.04.14 0 0 .06.13.16.3.28.37.18.12.25.17.3.35.03.19-.05.3-.17.3-.12 0-.24-.27-.24-.4 0-.1-.1-.43-.17-.62ZM6.82 6.54c-.04.1-.05.14 0 0a.96.96 0 0 1-.28.37c-.19.12-.26.17-.3.35-.03.18.04.3.16.3.13-.01.24-.28.25-.4 0-.1.1-.43.17-.62Z" fill="#97722F"/><path d="M7.06 6.34c-.06.08-.08.1 0 0a.8.8 0 0 1-.37.22c-.2.03-.29.05-.38.2-.09.16-.05.3.07.35.11.05.3-.15.34-.27a3 3 0 0 1 .34-.5ZM5.58 7.38c.04.1.05.14 0 0 .06.13.17.3.28.37.19.12.26.16.3.35.04.18-.04.3-.16.3-.12-.01-.24-.28-.25-.4 0-.1-.1-.43-.17-.62Z" fill="#97722F"/><path d="M5.4 7.7c.04.1.05.13 0 0 .07.12.18.29.29.36.18.12.26.17.3.35.03.19-.05.3-.17.3-.12 0-.23-.27-.24-.4 0-.1-.1-.43-.17-.62ZM7.44 5.77c-.08.09-.1.1 0 0a.8.8 0 0 1-.43.2c-.24 0-.34 0-.45.17-.1.16-.06.33.07.4s.35-.12.4-.25c.05-.1.27-.37.41-.52ZM3.79 7.04c.09.02.11.02 0 0 .11.04.28.14.37.26.16.22.23.3.38.28.14 0 .2-.15.14-.31-.05-.16-.29-.23-.38-.2-.08.03-.35 0-.51-.03Z" fill="#97722F"/><path d="M4 7.47c.1.01.12.02 0 0 .12.04.28.13.38.26.16.21.23.29.37.28.15-.01.2-.15.15-.32-.06-.16-.3-.23-.38-.2-.08.04-.35.01-.51-.02Z" fill="#97722F"/><path d="M4.18 7.89c.1.01.12.02 0 0 .12.04.28.13.38.26.16.21.22.29.37.28.15-.01.2-.15.14-.32-.05-.16-.28-.23-.38-.2-.07.03-.35.01-.5-.02Z" fill="#97722F"/><path d="M4.18 8.26c.1.01.12.01 0 0 .12.04.28.13.38.26.16.2.22.29.37.28.15-.02.2-.16.14-.32-.05-.16-.28-.23-.38-.2-.07.03-.35 0-.5-.02Z" fill="#97722F"/><path d="M4.36 8.78c.09.02.11.02 0 0 .11.04.27.13.37.26.16.21.23.29.38.28.14-.01.2-.15.14-.32-.05-.16-.29-.23-.38-.2-.08.04-.35.01-.51-.02Z" fill="#97722F"/><path d="M4.44 9.1c.1.01.12.01 0 0 .12.03.28.13.38.25.16.22.22.3.37.28.15 0 .2-.15.15-.31-.06-.16-.3-.23-.39-.2-.07.03-.35 0-.5-.03Z" fill="#97722F"/><path d="M5.1 9.1c.06.02.08.03 0 0a.7.7 0 0 1 .23.26c.09.19.12.26.23.28.1.03.16-.07.15-.2-.02-.12-.18-.22-.25-.22-.06 0-.25-.07-.36-.13Z" fill="#97722F"/><path d="M5.06 8.73c.06.03.08.04 0 0a.7.7 0 0 1 .23.26c.08.19.12.26.23.28.1.03.16-.06.14-.2-.01-.12-.17-.22-.24-.21-.06 0-.25-.08-.36-.13ZM5.06 8.3c.06.04.08.05 0 0a.7.7 0 0 1 .23.27c.08.2.12.26.23.29.1.02.16-.07.14-.2-.01-.13-.17-.23-.24-.22-.06 0-.25-.08-.36-.13ZM4.92 7.73c.08.04.1.05 0 0 .1.07.21.2.27.33.1.23.14.32.26.35.12.03.19-.09.17-.25-.02-.15-.2-.28-.28-.27-.07 0-.29-.09-.42-.16Z" fill="#97722F"/><path d="M4.88 7.31c.07.04.1.05 0 0 .09.07.2.2.27.33.1.23.13.32.26.35.12.03.18-.09.17-.24-.02-.16-.2-.29-.28-.28-.07 0-.3-.09-.42-.16Z" fill="#97722F"/><path d="M4.7 6.79c.1.04.12.05 0 0a1 1 0 0 1 .32.38c.12.26.16.37.31.4.15.03.22-.1.2-.28-.02-.19-.23-.33-.33-.32-.08 0-.34-.1-.5-.18Z" fill="#97722F"/><path d="M4.92 6.16c.04.11.05.14 0 0 .07.13.2.31.34.4.24.14.33.2.36.39.03.18-.09.28-.25.25-.17-.02-.29-.3-.28-.42 0-.1-.1-.43-.17-.62Z" fill="#97722F"/><path d="M5.97 6c-.03.11-.04.14 0 0-.06.14-.19.31-.33.4-.24.15-.33.2-.36.39-.03.18.09.28.25.26.16-.03.29-.3.28-.43 0-.1.1-.43.16-.62ZM5.89 6.79c-.03.08-.04.1 0 0a.74.74 0 0 1-.24.28c-.16.1-.22.14-.24.27-.02.13.06.2.17.18.11-.02.2-.21.2-.3 0-.07.06-.3.1-.43ZM5.93 7.26c-.03.08-.03.1 0 0a.74.74 0 0 1-.23.28c-.16.1-.23.14-.25.27-.02.13.06.2.18.18.1-.02.2-.2.19-.3 0-.06.06-.3.11-.43ZM4.79 7.05c.04.07.05.09 0 0 .04.1.08.25.07.38-.02.2-.02.29.05.38.08.1.17.06.22-.06.05-.12-.04-.3-.1-.35a1.67 1.67 0 0 1-.24-.35ZM14.2 9.01a.6.6 0 0 0 .08.03.63.63 0 0 1-.37-.29c-.11-.2-.16-.28-.29-.28-.13 0-.2.13-.17.28.02.16.22.24.3.21.07-.02.31.01.45.05Z" fill="#97722F"/><path d="M14.05 9.27a.6.6 0 0 0 .07.03.63.63 0 0 1-.37-.29c-.1-.2-.15-.28-.28-.28-.13 0-.2.13-.18.29.03.15.22.23.31.2.07-.02.31.01.45.05Z" fill="#97722F"/><path d="M13.78 9.54a.6.6 0 0 0 .08.03.63.63 0 0 1-.37-.29c-.1-.21-.15-.3-.28-.3-.14 0-.2.14-.18.3.02.15.22.23.3.2.08-.01.32.02.45.06Z" fill="#97722F"/><path d="m13.6 9.7.09.02a.34.34 0 0 1-.08-.02c-.1-.02-.25-.03-.36.04-.19.1-.26.15-.37.06-.11-.08-.11-.23-.03-.35.1-.12.3-.07.36.01.05.06.26.19.4.24ZM14.46 8.71l.08.02a.6.6 0 0 1-.4-.25c-.12-.19-.17-.26-.3-.25-.13.01-.18.15-.15.3.03.16.24.22.32.18.07-.03.31-.02.45 0ZM15 8.05c-.09.04-.1.05 0 0a.73.73 0 0 1-.43-.02c-.23-.1-.32-.13-.44-.03-.13.09-.12.24 0 .36.1.1.34.03.41-.05.05-.07.3-.2.46-.26Z" fill="#97722F"/><path d="M14.4 7.31c-.07.07-.1.08 0 0-.09.1-.2.27-.24.44-.06.27-.09.38-.22.45-.14.07-.23-.03-.25-.2-.01-.18.17-.37.27-.39.08-.01.31-.18.44-.3ZM13.26 6.26c-.02.11-.03.14 0 0-.02.15-.02.36.04.52.09.27.12.37.05.52-.07.16-.2.15-.3.03-.1-.13-.05-.41.02-.5.05-.07.15-.38.2-.57Z" fill="#97722F"/><path d="M14.04 6.32c-.09.05-.1.07 0 0a1 1 0 0 0-.29.4c-.1.26-.13.36-.27.4-.14.06-.23-.06-.22-.23 0-.18.2-.33.3-.34.08 0 .33-.14.48-.23ZM12.49 5.53c.03.1.03.13 0 0 .02.14.02.36-.04.52-.1.26-.13.36-.06.52.07.16.2.15.3.02.1-.12.06-.4-.01-.5a2.57 2.57 0 0 1-.2-.56ZM10.76 5c.08.1.1.12 0 0 .1.14.2.35.22.53.04.3.06.42.21.54.15.12.29.05.33-.13.05-.17-.15-.42-.27-.48-.09-.04-.35-.3-.5-.45Z" fill="#97722F"/><path d="M11.66 5.08c.01.13.02.16 0 0 0 .16-.02.4-.1.54-.13.25-.17.35-.11.55.05.2.2.24.31.15.13-.1.1-.42.04-.55-.05-.1-.12-.47-.14-.7Z" fill="#97722F"/><path d="M11.98 5.7c-.01.12-.02.15 0 0-.03.15-.1.34-.2.44-.16.17-.22.24-.22.43s.1.28.22.24c.12-.04.18-.33.16-.46-.02-.1.01-.45.04-.65Z" fill="#97722F"/><path d="M12.24 6.12c-.03.11-.04.14 0 0a.96.96 0 0 1-.28.37c-.18.12-.25.17-.3.35-.03.19.05.3.17.3.12-.01.23-.27.24-.4 0-.1.1-.43.17-.62Z" fill="#97722F"/><path d="M12.33 6.54c-.04.1-.05.14 0 0a.96.96 0 0 1-.28.37c-.19.12-.26.17-.3.35-.03.18.04.3.16.3.13-.01.24-.28.25-.4 0-.1.1-.43.17-.62Z" fill="#97722F"/><path d="M12.38 7.01c-.04.11-.05.14 0 0a.96.96 0 0 1-.29.37c-.18.12-.25.17-.3.35-.03.19.05.3.17.3.12 0 .23-.27.24-.4 0-.1.1-.43.18-.62ZM11.18 6.54c.04.1.05.14 0 0 .06.13.17.3.28.37.19.12.26.17.3.35.03.18-.04.3-.16.3-.13-.01-.24-.28-.25-.4 0-.1-.1-.43-.17-.62Z" fill="#97722F"/><path d="M10.94 6.34c.06.08.08.1 0 0 .1.1.24.2.37.22.2.03.29.05.38.2.09.16.05.3-.07.35-.11.05-.3-.15-.34-.27a3 3 0 0 0-.34-.5ZM12.42 7.38c-.04.1-.05.14 0 0a.96.96 0 0 1-.28.37c-.19.12-.26.16-.3.35-.04.18.04.3.16.3.12-.01.24-.28.25-.4 0-.1.1-.43.17-.62Z" fill="#97722F"/><path d="M12.6 7.7c-.04.1-.05.13 0 0a.96.96 0 0 1-.29.36c-.18.12-.26.17-.3.35-.03.19.05.3.17.3.12 0 .23-.27.24-.4 0-.1.1-.43.17-.62ZM10.56 5.77c.08.09.1.1 0 0 .1.1.29.2.43.2.24 0 .34 0 .45.17.1.16.06.33-.07.4s-.35-.12-.4-.25c-.05-.1-.27-.37-.41-.52ZM14.21 7.04c-.09.02-.11.02 0 0a.84.84 0 0 0-.37.26c-.16.22-.23.3-.38.28-.14 0-.2-.15-.14-.31.05-.16.29-.23.38-.2.08.03.35 0 .51-.03Z" fill="#97722F"/><path d="M14 7.47c-.1.01-.12.02 0 0a.84.84 0 0 0-.38.26c-.16.21-.23.29-.37.28-.15-.01-.2-.15-.15-.32.06-.16.3-.23.38-.2.08.04.35.01.51-.02Z" fill="#97722F"/><path d="M13.82 7.89c-.1.01-.12.02 0 0a.84.84 0 0 0-.38.26c-.16.21-.22.29-.37.28-.15-.01-.2-.15-.14-.32.05-.16.28-.23.38-.2.07.03.35.01.5-.02Z" fill="#97722F"/><path d="M13.82 8.26c-.1.01-.12.01 0 0a.84.84 0 0 0-.38.26c-.16.2-.22.29-.37.28-.15-.02-.2-.16-.14-.32.05-.16.28-.23.38-.2.07.03.35 0 .5-.02Z" fill="#97722F"/><path d="M13.64 8.78c-.09.02-.11.02 0 0a.84.84 0 0 0-.37.26c-.16.21-.23.29-.38.28-.14-.01-.2-.15-.14-.32.05-.16.29-.23.38-.2.08.04.35.01.51-.02Z" fill="#97722F"/><path d="M13.56 9.1c-.1.01-.12.01 0 0a.84.84 0 0 0-.38.25c-.16.22-.22.3-.37.28-.15 0-.2-.15-.15-.31.06-.16.3-.23.39-.2.07.03.35 0 .5-.03Z" fill="#97722F"/><path d="M12.9 9.1c-.06.02-.08.03 0 0a.7.7 0 0 0-.23.26c-.09.19-.12.26-.23.28-.1.03-.16-.07-.15-.2.02-.12.18-.22.25-.22.06 0 .25-.07.36-.13Z" fill="#97722F"/><path d="M12.94 8.73c-.06.03-.08.04 0 0a.7.7 0 0 0-.23.26c-.08.19-.12.26-.23.28-.1.03-.16-.06-.14-.2.01-.12.17-.22.24-.21.06 0 .25-.08.36-.13ZM12.94 8.3c-.06.04-.08.05 0 0a.7.7 0 0 0-.23.27c-.08.2-.12.26-.23.29-.1.02-.16-.07-.14-.2.01-.13.17-.23.24-.22.06 0 .25-.08.36-.13ZM13.08 7.73c-.08.04-.1.05 0 0a.86.86 0 0 0-.27.33c-.1.23-.14.32-.26.35-.12.03-.19-.09-.17-.25.02-.15.2-.28.28-.27.07 0 .29-.09.42-.16Z" fill="#97722F"/><path d="M13.12 7.31c-.07.04-.1.05 0 0a.86.86 0 0 0-.27.33c-.1.23-.13.32-.26.35-.12.03-.18-.09-.17-.24.02-.16.2-.29.28-.28.07 0 .3-.09.42-.16Z" fill="#97722F"/><path d="M13.3 6.79c-.1.04-.12.05 0 0a1 1 0 0 0-.32.38c-.12.26-.16.37-.31.4-.15.03-.22-.1-.2-.28.02-.19.23-.33.33-.32.08 0 .34-.1.5-.18Z" fill="#97722F"/><path d="M13.08 6.16c-.04.11-.05.14 0 0-.07.13-.2.31-.34.4-.24.14-.33.2-.36.39-.03.18.09.28.25.25.16-.02.29-.3.28-.42 0-.1.1-.43.17-.62Z" fill="#97722F"/><path d="M12.03 6c.03.11.04.14 0 0 .06.14.19.31.33.4.24.15.33.2.36.39.03.18-.09.28-.25.26-.16-.03-.29-.3-.28-.43 0-.1-.1-.43-.16-.62ZM12.11 6.79c.03.08.04.1 0 0 .05.1.14.22.23.28.17.1.23.14.25.27.02.13-.06.2-.17.18-.12-.02-.2-.21-.2-.3 0-.07-.06-.3-.1-.43ZM12.07 7.26c.03.08.03.1 0 0 .05.1.13.22.23.28.16.1.23.14.25.27.02.13-.06.2-.18.18-.1-.02-.2-.2-.19-.3 0-.06-.06-.3-.11-.43ZM13.21 7.05c-.04.07-.05.09 0 0a.9.9 0 0 0-.07.38c.02.2.02.29-.05.38-.08.1-.17.06-.22-.06-.05-.12.04-.3.1-.35.05-.04.18-.23.24-.35Z" fill="#97722F"/><path d="M7.37 7.05v-.2c.6 0 1.07-.6 1.23-.9h1.29v4.2c0 .9.58 1.26.87 1.33v.31H7.24v-.31c.69-.21.84-1.07.83-1.47V7.86c0-.63-.46-.8-.7-.81Z" fill="#0A4733"/><path d="M7.37 7.05v-.2c.6 0 1.07-.6 1.23-.9h1.29v4.2c0 .9.58 1.26.87 1.33v.31H7.24v-.31c.69-.21.84-1.07.83-1.47V7.86c0-.63-.46-.8-.7-.81Zm.88 2.96c0 .23-.04.58-.18.9-.1.27-.29.52-.56.67h2.97c-.35-.18-.77-.62-.77-1.44V6.16H8.7c-.1.16-.25.35-.44.52-.13.11-.28.22-.46.29a.9.9 0 0 1 .12.08c.2.16.34.42.34.81v2.15Z" fill="#fff"/><path d="m7.7 10.46-.06-.84H6.37l-.35.84c0 .04.07.13.28.13.27 0 .6-.29.92-.29.33 0 .33.24.42.4.05-.05.06-.18.06-.24Z" fill="url(#hukccafo3)"/><path d="M6.34 9.57h1.34l.07.88a.7.7 0 0 1-.02.15c0 .04-.03.1-.07.14l-.04.03-.02-.05a.98.98 0 0 1-.05-.12v-.01a.63.63 0 0 0-.06-.12c-.05-.06-.11-.12-.27-.12-.15 0-.31.07-.47.14l-.03.02c-.14.06-.28.13-.42.13a.45.45 0 0 1-.24-.05.18.18 0 0 1-.08-.12v-.02l.36-.88Zm.06.1-.33.79.03.03c.04.02.1.05.2.05.12 0 .25-.07.4-.13l.02-.01c.16-.08.33-.15.5-.15.18 0 .27.06.33.15l.07.14v.02l.02.03v-.02c.02-.04.02-.08.02-.11l-.06-.79H6.4Z" fill="#231F20"/><path d="m10.26 10.46.07-.84h1.27l.35.84c-.01.04-.08.13-.29.13-.26 0-.59-.29-.92-.29-.32 0-.32.24-.41.4-.05-.05-.07-.18-.07-.24Z" fill="url(#iukccafo3)"/><path d="M11.62 9.57H10.3l-.07.88.01.15c.01.04.03.1.07.14l.04.03.02-.05a.97.97 0 0 0 .06-.12v-.01a.64.64 0 0 1 .06-.12c.04-.06.11-.12.26-.12a1.17 1.17 0 0 1 .5.16c.14.06.29.13.42.13.11 0 .19-.02.24-.05a.18.18 0 0 0 .09-.12v-.02l-.37-.88Zm-.05.1.33.79-.04.03a.37.37 0 0 1-.2.05c-.11 0-.24-.07-.4-.13l-.02-.01a1.24 1.24 0 0 0-.5-.15c-.17 0-.27.06-.33.15a.73.73 0 0 0-.07.14v.02l-.02.03v-.02a.57.57 0 0 1-.01-.11l.06-.79h1.2Z" fill="#231F20"/><path d="M6.08 10.48c.09-.14.45-.7 2.9-.85 2.43.16 2.8.7 2.88.85.02.02.03.04.04.03.05-.05.1-.14.11-.19.02-.25.04-.85.04-1.3C11.68 8.19 9.85 8 8.97 8c-.87 0-2.71.19-3.08 1.04 0 .44.03 1.04.04 1.3.02.04.06.13.11.18.01 0 .02 0 .04-.03Z" fill="url(#jukccafo3)"/><path fill-rule="evenodd" d="M5.93 9.04c0 .43.03 1.02.04 1.27a.58.58 0 0 0 .08.13.8.8 0 0 1 .15-.17c.09-.08.22-.17.43-.26a7.34 7.34 0 0 1 2.34-.43c1.23.08 1.93.26 2.34.43.21.09.34.18.43.26a.8.8 0 0 1 .16.17.58.58 0 0 0 .07-.13c.01-.25.04-.84.04-1.27-.09-.2-.26-.35-.49-.49a3.27 3.27 0 0 0-.83-.31 7.33 7.33 0 0 0-3.44 0c-.3.08-.6.18-.83.31-.23.14-.4.3-.49.49Zm3.04-1.1a7.4 7.4 0 0 0-1.74.2c-.3.07-.6.18-.85.32-.24.14-.43.32-.53.54v.03c0 .44.02 1.05.04 1.3v.01l.05.1c.02.04.04.08.08.11l.04.01.03-.01.02-.04-.03-.03.03.03a.7.7 0 0 1 .14-.16c.08-.07.2-.15.4-.24.41-.17 1.1-.35 2.32-.42 1.22.07 1.91.25 2.31.42.2.09.33.17.41.24a.7.7 0 0 1 .14.16l.03.04.03.01.03-.01a.36.36 0 0 0 .09-.1.7.7 0 0 0 .04-.1v-.02c.02-.25.05-.86.05-1.3V9c-.1-.23-.3-.41-.54-.55a3.35 3.35 0 0 0-.85-.32 7.4 7.4 0 0 0-1.74-.2Z" fill="#231F20"/><path d="M9.04 8.36c-1.62 0-2.78.57-3.12.86l-.05-.1c.36-.29 1.53-.86 3.17-.86a5.2 5.2 0 0 1 3.03.8l-.05.08a5.14 5.14 0 0 0-2.98-.78ZM9.04 9.36a5.3 5.3 0 0 0-3.08.85l-.05-.08c.36-.3 1.5-.88 3.13-.88s2.67.53 3 .8l-.05.08a5 5 0 0 0-2.95-.77Z" fill="#231F20"/><defs><linearGradient id="aukccafo3" x1="3.66" y1="12.19" x2="6.76" y2="12.19" gradientUnits="userSpaceOnUse"><stop offset=".13" stop-color="#F6DA8F"/><stop offset=".56" stop-color="#A17C38"/></linearGradient><linearGradient id="bukccafo3" x1="14.4" y1="12.19" x2="11.29" y2="12.19" gradientUnits="userSpaceOnUse"><stop offset=".13" stop-color="#F6DA8F"/><stop offset=".56" stop-color="#A17C38"/></linearGradient><linearGradient id="cukccafo3" x1="5.14" y1="10.86" x2="7.09" y2="10.86" gradientUnits="userSpaceOnUse"><stop offset=".13" stop-color="#F6DA8F"/><stop offset=".56" stop-color="#A17C38"/></linearGradient><linearGradient id="dukccafo3" x1="12.91" y1="10.86" x2="10.96" y2="10.86" gradientUnits="userSpaceOnUse"><stop offset=".13" stop-color="#F6DA8F"/><stop offset=".56" stop-color="#A17C38"/></linearGradient><linearGradient id="eukccafo3" x1="8.51" y1="5.27" x2="7.59" y2="5.27" gradientUnits="userSpaceOnUse"><stop stop-color="#B58D3B"/><stop offset="1" stop-color="#F8E29F"/></linearGradient><linearGradient id="fukccafo3" x1="9.54" y1="5.27" x2="10.46" y2="5.27" gradientUnits="userSpaceOnUse"><stop stop-color="#B58D3B"/><stop offset="1" stop-color="#F8E29F"/></linearGradient><linearGradient id="gukccafo3" x1="8.42" y1="5.24" x2="9.61" y2="5.24" gradientUnits="userSpaceOnUse"><stop offset=".4" stop-color="#E2B551"/><stop offset="1" stop-color="#F9E3A0"/></linearGradient><linearGradient id="hukccafo3" x1="6.86" y1="9.62" x2="6.86" y2="10.69" gradientUnits="userSpaceOnUse"><stop stop-color="#816532"/><stop offset="1" stop-color="#B5965C"/></linearGradient><linearGradient id="iukccafo3" x1="11.1" y1="9.62" x2="11.1" y2="10.69" gradientUnits="userSpaceOnUse"><stop stop-color="#816532"/><stop offset="1" stop-color="#B5965C"/></linearGradient><linearGradient id="jukccafo3" x1="5.89" y1="9.62" x2="12.05" y2="9.62" gradientUnits="userSpaceOnUse"><stop stop-color="#A17C38"/><stop offset=".35" stop-color="#F6DF9A"/><stop offset=".66" stop-color="#F8E19C"/><stop offset="1" stop-color="#A17C38"/></linearGradient></defs></svg>