<!-- by TradingView --><svg width="18" height="18" viewBox="0 0 18 18" xmlns="http://www.w3.org/2000/svg"><path fill="#F0F3FA" d="M0 0h18v18H0z"/><circle cx="9" cy="9" r="6" fill="#150F71"/><path fill-rule="evenodd" d="M7.46 12.6v-.55c.52-.3.55-.76.54-1.03.4-.13.86-.46.86-1.12 0-.3-.15-.56-.26-.7h-.33a1.55 1.55 0 0 0-.08-.13c-.15-.27-.46-.63-.83-.63-.56 0-.49.35-.22.45.08.03.22.07.38.1.19.06.4.11.59.18l.13.05.03.01a1.14 1.14 0 0 1 .22.12c.28.21.28.53.28.73 0 .2-.3.92-1.16.92-.32 0-.62-.15-.72-.22l-.23.22h-.39V9.7h.39v.11c.14.24.54.72.95.72.51 0 .69-.44.15-.53H7.7a2.5 2.5 0 0 1-.98-.3 1.4 1.4 0 0 1-.22-.17 1 1 0 0 1-.24-.6c.01-.31.24-.93 1.1-.93.28 0 .57.12.68.18l.15-.12h.39l.08 1.1h.09l-.1-1.5H8.2L8 7.86v-1.2c0-.26 0-.38-.27-.38H7v-.64a6.7 6.7 0 0 0 3.2-2.04l.35.34-.55.63v3.19h-.92l-.1 1.53h.12L9.22 8h2.59l.12 1.3h-.4c-.05-.26-.19-.73-.42-.87a.26.26 0 0 0-.14-.04v2.1h.43V11H10c.03.56.38.93.73 1.05v.55H7.46ZM9.7 9.28h-.17c.04-.56.26-.79.43-.86a.34.34 0 0 1 .11-.03h.01v2.1h-.4v.48h-.14v-.68h.32V8.78h-.16v.5Zm-3.3.56h.12l.02.04c.08.13.22.32.4.48.17.16.4.3.66.3.28 0 .52-.12.59-.32a.3.3 0 0 0-.07-.3.6.6 0 0 0-.35-.16h-.03c-.43-.07-.7-.11-.96-.29h-.02a1.46 1.46 0 0 1-.17-.15.9.9 0 0 1-.2-.52c0-.13.05-.33.2-.5.14-.15.37-.3.76-.3.26 0 .53.12.62.17l.08.04.19-.14h.22l.07.89h-.2c-.06-.13-.17-.3-.31-.44a.97.97 0 0 0-.67-.32.82.82 0 0 0-.36.07.32.32 0 0 0-.19.21c-.01.1.02.19.07.25.05.07.12.12.21.16l.3.09.1.02a17.16 17.16 0 0 1 .66.2l.26.13c.23.17.23.43.23.63 0 .02-.01.09-.05.17a1.04 1.04 0 0 1-.98.62c-.29 0-.56-.13-.65-.2l-.09-.06-.26.26h-.2V9.84Zm4.85.79h-.42V8.26h.13c.13 0 .23.06.31.14.08.07.14.17.2.27.07.17.12.35.16.5h.14l-.1-1.04H9.35l-.1 1.04h.16c.09-.69.44-.92.7-.91h.13v2.37h-.42v.23h1.44v-.23Zm-6.2-.08c.07.01.22.02.36 0a.39.39 0 0 0 .32-.38c0-.2-.21-.62-.5-.62-.3 0-.3.3-.3.45 0 .13.08.42.13.55Zm-.2-.83c-.04.33.06 1.15.7 1.84.82.85 1.62 1.71 3.37 1.71a4.71 4.71 0 0 0 3.53-1.71c.45-.61.7-1.14.57-1.84l1.38.31c.02.19.02.68-.2 1.14l-.02.05c-.32.69-1.56 3.4-5.34 3.4-3.1 0-4.58-2.04-4.94-3.06-.14-.27-.39-.91-.25-1.36l1.2-.48Zm7.63.83c.15.02.3.01.36 0 .04-.13.13-.42.13-.55 0-.16 0-.45-.3-.45s-.5.42-.5.62.13.36.31.38Z" fill="#F0F3FA"/><path opacity=".5" d="m11.86 12.54.56.64a4.48 4.48 0 0 0 1.37-1.87l-.73-.43c-.12.24-.54.91-1.2 1.66Zm-7.68-.91.69-.46c.45.75 1.78 2.26 3.45 2.26 1.67 0 2.62-.36 2.9-.54l.38.94c-.4.21-1.51.63-2.9.63a5.16 5.16 0 0 1-4.52-2.84Z" fill="#130F7E"/></svg>