<!-- by TradingView --><svg width="18" height="18" viewBox="0 0 18 18" fill="none" xmlns="http://www.w3.org/2000/svg">
<rect width="18" height="18" fill="#F0F3FA"/>
<path fill-rule="evenodd" clip-rule="evenodd" d="M9.14218 8.99997C9.54343 7.86345 10.3735 6.72853 11.3294 5.81161C12.145 5.0294 13.09 4.36965 13.9997 4H4V13.9097L4.09572 13.8739C4.63656 13.672 5.89554 13.1391 6.66453 12.6168C7.16437 12.2773 7.59526 11.954 7.98567 11.4634C8.27158 11.1042 8.54569 10.6422 8.7998 9.99997H6V8.99997H9.14218ZM6.07735 14H14V4.99924C13.3371 5.32826 12.6302 5.83656 11.9816 6.4587C11.1813 7.22624 10.5116 8.12712 10.1373 8.99997H13V9.99997H9.7901C9.47894 10.8749 9.12243 11.5148 8.72037 12.02C8.24194 12.6211 7.71752 13.0073 7.1961 13.3615C6.86904 13.5836 6.47325 13.8025 6.07735 14Z" fill="#016BFF"/>
</svg>
