<!-- by TradingView --><svg width="18" height="18" viewBox="0 0 18 18" xmlns="http://www.w3.org/2000/svg"><path fill="#F0F3FA" d="M0 0h18v18H0z"/><path d="M5.25 12c-.96-1.34 1.11-3.91 2.05-4.84.93-.92 3.5-2.94 4.7-1.84-1.45-.36-3.3.8-4.5 2.07C6.23 8.58 5 10.45 5.25 12Z" fill="url(#aisfveu1e)"/><path d="M12.75 12c.96-1.34-1.11-3.91-2.05-4.84-.93-.92-3.5-2.94-4.7-1.84 1.45-.36 3.3.8 4.5 2.07 1.27 1.19 2.5 3.06 2.25 4.61Z" fill="url(#bisfveu1e)"/><path d="M4 9c.18-1.62 3.62-2 5-2s4.82.38 5 2c-.9-1.27-3.17-1.74-5-1.7-1.83-.04-4.1.43-5 1.7Z" fill="url(#cisfveu1e)"/><path d="M12.24 5c.42 1.1-.58 3.21-2.36 4.96C8.1 11.7 6.02 12.6 5 12.09l.32.37c1.01 1.12 3.45.44 5.45-1.51 2-1.96 2.8-4.46 1.8-5.59L12.24 5Z" fill="url(#disfveu1e)"/><path d="M5.76 5c-.42 1.1.58 3.21 2.36 4.96C9.9 11.7 11.98 12.6 13 12.09l-.32.37c-1.01 1.12-3.45.44-5.45-1.51-2-1.96-2.8-4.46-1.8-5.59L5.76 5Z" fill="url(#eisfveu1e)"/><path d="M14 9c-.42 1-2.54 1.76-5 1.76S4.42 10 4 9v.45C4 10.86 6.24 12 9 12s5-1.14 5-2.55V9Z" fill="url(#fisfveu1e)"/><defs><linearGradient id="aisfveu1e" x1="10.93" y1="4.11" x2="3.83" y2="10.4" gradientUnits="userSpaceOnUse"><stop stop-color="#815B33"/><stop offset=".08" stop-color="#724D2F"/><stop offset=".29" stop-color="#E9C37E"/><stop offset=".58" stop-color="#7A5538"/><stop offset=".69" stop-color="#F9E788"/><stop offset=".91" stop-color="#65481D"/><stop offset="1" stop-color="#7A512A"/></linearGradient><linearGradient id="bisfveu1e" x1="7.07" y1="4.11" x2="14.18" y2="10.4" gradientUnits="userSpaceOnUse"><stop stop-color="#815B33"/><stop offset=".08" stop-color="#724D2F"/><stop offset=".29" stop-color="#E9C37E"/><stop offset=".58" stop-color="#7A5538"/><stop offset=".69" stop-color="#F9E788"/><stop offset=".91" stop-color="#65481D"/><stop offset="1" stop-color="#7A512A"/></linearGradient><linearGradient id="cisfveu1e" x1="14" y1="7.38" x2="4" y2="7.38" gradientUnits="userSpaceOnUse"><stop stop-color="#815B33"/><stop offset=".08" stop-color="#724D2F"/><stop offset=".29" stop-color="#E9C37E"/><stop offset=".58" stop-color="#7A5538"/><stop offset=".69" stop-color="#F9E788"/><stop offset=".91" stop-color="#65481D"/><stop offset="1" stop-color="#7A512A"/></linearGradient><linearGradient id="disfveu1e" x1="12.65" y1="5.46" x2="5.11" y2="12.21" gradientUnits="userSpaceOnUse"><stop stop-color="#815B33"/><stop offset=".08" stop-color="#724D2F"/><stop offset=".29" stop-color="#E9C37E"/><stop offset=".58" stop-color="#7A5538"/><stop offset=".69" stop-color="#F9E788"/><stop offset=".91" stop-color="#65481D"/><stop offset="1" stop-color="#7A512A"/></linearGradient><linearGradient id="eisfveu1e" x1="5.35" y1="5.46" x2="12.89" y2="12.21" gradientUnits="userSpaceOnUse"><stop stop-color="#815B33"/><stop offset=".08" stop-color="#724D2F"/><stop offset=".29" stop-color="#E9C37E"/><stop offset=".58" stop-color="#7A5538"/><stop offset=".69" stop-color="#F9E788"/><stop offset=".91" stop-color="#65481D"/><stop offset="1" stop-color="#7A512A"/></linearGradient><linearGradient id="fisfveu1e" x1="14" y1="9.58" x2="4" y2="9.58" gradientUnits="userSpaceOnUse"><stop stop-color="#815B33"/><stop offset=".08" stop-color="#724D2F"/><stop offset=".29" stop-color="#E9C37E"/><stop offset=".58" stop-color="#7A5538"/><stop offset=".69" stop-color="#F9E788"/><stop offset=".91" stop-color="#65481D"/><stop offset="1" stop-color="#7A512A"/></linearGradient></defs></svg>