<!-- by TradingView --><svg width="18" height="18" viewBox="0 0 18 18" fill="none" xmlns="http://www.w3.org/2000/svg">
<rect width="18" height="18" fill="#F0F3FA"/>
<path d="M4 5V13H5.41484L7.24964 8.99999H6.5613C6.24318 8.99999 6.01281 8.96869 5.68647 9.04828C5.36012 9.12787 4.96522 9.24491 4.87197 9.22852C4.77873 9.21214 4.82085 9.10002 5.07429 8.78755C5.27703 8.53758 5.73244 8.39019 5.9348 8.38461H7.4811L7.6724 7.91404C8.62888 5.81854 11.2643 5.30107 12.3791 5.30107C13.2709 5.30107 13.8313 5.35393 14 5.38037V5H4Z" fill="#004287"/>
<path d="M8.95502 8.99998L7.30176 13H14V5.80766H12.9181C12.285 5.73763 11.3235 5.74764 10.5262 6.33783C9.88834 6.80998 9.40057 7.915 9.23642 8.40849H12.1208C12.0082 8.79262 11.1203 8.97664 10.6903 8.99998H8.95502Z" fill="#008131"/>
<ellipse cx="13.7576" cy="6.07672" rx="1.24194" ry="0.769229" fill="#F25212"/>
</svg>
