<!-- by TradingView --><svg width="18" height="18" viewBox="0 0 18 18" xmlns="http://www.w3.org/2000/svg"><path fill="#F0F3FA" d="M0 0h18v18H0z"/><path d="M7.38 4.91a.2.2 0 1 1-.4 0 .2.2 0 0 1 .4 0ZM10.95 13.48a.85.85 0 0 0-.2-.27c-.32-.28-.52-.08-.63.24a.21.21 0 0 0 0 .15.2.2 0 0 0 .1.1c.2.1.41.1.65-.02a.15.15 0 0 0 .08-.2Z" fill="#039AA6"/><path d="M9.48 6.06A38.75 38.75 0 0 0 9.18 3l-.9.02c.14 1.15.22 1.9.23 2.26.05 1.16-.78 1.7-1.85 1.64A1.15 1.15 0 0 1 6 6.63c-.47-.4-.22-1.33.06-1.77l.01-.01a.05.05 0 0 1 .06 0l.03.03-.12.31c-.26.63.04 1.15.72 1.22.54.05 1-.1 1.4-.44.1-.09.14-.23.12-.42l-.28-2.5a5.94 5.94 0 0 0-4.9 6.9c.3 0 .57-.06.8-.18.53-.28 1.07-.7.94-1.33-.04-.2-.1-.2-.18-.03 0 .03-.06.05-.15.09-.24.08-.42.05-.54-.1-.25-.33 0-.88.24-1.16.09-.1.17-.17.24-.19.04 0 .08 0 .11.02.2.12.33.3.4.56.23.87.12 2.08-.78 2.55-.34.17-.7.06-1.04-.08a5.8 5.8 0 0 0 1.58 3.03l.63.67c.05-.45.15-.85.3-1.2.05-.12.13-.25.25-.4 0-.02.02-.02.04-.01h.03c.03.02.04.04.02.07-.42.8-.63 1.67.37 2.1.77.32 1.81-.06 2.58-.46.1-.05.17-.11.22-.18a.1.1 0 0 0-.02-.14.1.1 0 0 0-.04-.02l-.26-.02c-.45-.04-1.15-.1-1.23-.47-.15-.75.43-1.44 1.06-1.8.21-.13.83-.37.83.07 0 .17-.04.32-.1.46l-.02.02-.01.01h-.02a.06.06 0 0 1-.05-.01c-.4-.37-1.41.4-1.47.81 0 .04 0 .07.02.1.2.27.73.31 1.08.34h.12c.66.06.47.74.15 1.04-.35.34-.76.6-1.25.79a5.98 5.98 0 0 0 6.75-7.74c.03.57.04 1.13.03 1.67a3.1 3.1 0 0 1-.12.77.04.04 0 0 1-.05 0h-.01a2.97 2.97 0 0 1-.26-3.21.99.99 0 0 0 0-.24l-.04-.23c-.13-.1-.2-.2-.25-.26-.34-.53-.77-1-1.29-1.4-.02.12-.1.2-.22.2-.28.03-.5.07-.7.11-.76.18-1.42.8-1.39 1.64.04.91.8 1.13 1.58 1.17a5.5 5.5 0 0 0 1.17-.03.08.08 0 0 1 .03 0v.01a.1.1 0 0 1 .04.07c0 .02-.02.03-.06.04a4.11 4.11 0 0 1-1.22.34c-2.16.21-2.2-2.52-.75-3.32.1-.07.1-.1-.02-.13a1.47 1.47 0 0 0-.87.12c-.04.01-.06 0-.07-.04-.02-.06.01-.13.08-.21.04-.13.14-.21.31-.24.34-.1.65-.04.96.01.28.05.57.1.87.04A6.4 6.4 0 0 0 9.59 3l.1 1.44v.14a3.63 3.63 0 0 1-.14 1.53.04.04 0 0 1-.02 0 .04.04 0 0 1-.03 0 .1.1 0 0 1-.02-.05Zm-2.14-.77c-.08.07-.17.1-.26.08-.09-.02-.16-.1-.2-.2a.6.6 0 0 1-.01-.35.6.6 0 0 1 .17-.3c.09-.07.18-.1.27-.08.09.02.16.1.2.2.04.1.04.22.01.35a.6.6 0 0 1-.18.3Zm-2.1.69c.12 0 .16-.06.13-.17a.68.68 0 0 0-.5-.52c-.04 0-.05-.03-.04-.07V5.2a.2.2 0 0 1 .33-.11c.53.47.55 1.33-.44 1.2a.12.12 0 0 1-.08-.05v-.01h-.01V6.2h-.01a.12.12 0 0 1 0-.02v-.11a.09.09 0 0 1 .04-.08.09.09 0 0 1 .04-.01h.54Zm6.83 0a.1.1 0 0 1-.02.03l-.18.21a.1.1 0 0 1-.15 0l-.23-.2a.1.1 0 0 1-.03-.07.1.1 0 0 1 0-.05h.01l.01-.02.19-.21a.1.1 0 0 1 .15 0l.22.2a.1.1 0 0 1 .03.11Zm-3 .02.07.7c.1 1.13.13 2.02.08 2.67 0 .08-.04.18-.12.32-.02.04-.04.03-.05-.01a84.14 84.14 0 0 0-.27-2.79c-.04-.4.01-.61.22-.91a.04.04 0 0 1 .08.01Zm4.52.79c.1 0 .15-.06.12-.16a.6.6 0 0 0-.44-.45c-.03-.01-.05-.03-.04-.07v-.03a.17.17 0 0 1 .12-.13.17.17 0 0 1 .17.03c.47.43.49 1.19-.39 1.06a.11.11 0 0 1-.1-.1v-.08a.08.08 0 0 1 .09-.07h.47ZM5.43 8.06l.15-.15c.04-.04.03-.07-.01-.1-.45-.21.04-.71.3-.88a.2.2 0 0 1 .16-.03.19.19 0 0 1 .12.12c.02.04 0 .1-.05.2-.02.03-.05.04-.09.03a.48.48 0 0 0-.24-.02c-.1.03-.15.08-.15.16v.01a.11.11 0 0 0 .05.08c.21.13.43.12.66-.05a.08.08 0 0 1 .07-.01c.02 0 .02.01.01.03a.66.66 0 0 1-.18.22l-.78.49h-.02a.02.02 0 0 1-.01-.02v-.05l.01-.03Zm1.42.26c-.2-.18-.08-.62.09-.78.03-.03.03-.05-.01-.07h-.1c-.05.02-.06 0-.05-.04.03-.07.07-.1.12-.1.18 0 .34.02.5.03.03 0 .04.01.04.04v.03c0 .04-.02.06-.07.06-.26-.01-.45.1-.54.35-.05.14-.04.26.05.34.13.13.26.13.41.12h.2c.07.01.08.04 0 .07-.24.13-.46.1-.64-.05Zm7.07-.93c.1.19.14.3.15.35.02.07.02.19-.01.35-.03.14-.03.26-.02.36.07.55.14 1.2.2 2 .08.98-.36 1.56-1.32 1.73-.44.08-.82 0-1.13-.22-.54-.37-.3-1.3-.04-1.78v-.02l.08-.03a.04.04 0 0 1 .02 0 .04.04 0 0 1 .04.03v.03l-.17.44c-.2.71.36 1.08 1 1.06.33-.01 1.31-.26 1.3-.75-.01-.3-.1-1.18-.3-2.62L13.66 8c-.06-.23 0-.44.2-.62.02-.03.05-.03.07 0Zm-.85 1c-.27.01-.43.04-.48.08a.88.88 0 0 1-.8.16.05.05 0 0 1-.03-.05v-.06l.01-.02h.02a2.2 2.2 0 0 0 .77-.09l.02-.02a.05.05 0 0 0-.02-.05c-.03-.03-.1-.06-.19-.07a.07.07 0 0 1-.05-.03c-.06-.09-.03-.12.1-.09a15.12 15.12 0 0 0 .69.16v.04l-.01.03h-.03ZM11.3 9.7a.12.12 0 0 0 0-.09 1.49 1.49 0 0 0-.66-.87c-.07-.05-.12-.04-.2-.04h-.07c-.04 0-.06-.01-.05-.06.08-.42.34-.6.68-.26.48.46.71 1.04.38 1.68-.15.29-.84.32-1.14.31-.14 0-.22-.07-.23-.2l-.03-.2c-.01-.14.05-.2.19-.15.31.08.67.06 1.06-.06.03 0 .05-.03.07-.06Zm-4.22.1c.13.23.22.36.26.41.07.11.13.1.15-.03.12-.54.15-1.01.12-1.41a.85.85 0 0 1 .15-.49.07.07 0 0 1 .05-.01.07.07 0 0 1 .06.04l.14.36-.01.1-.03.06c-.06.1-.14.22-.14.33-.03.49-.14.94-.32 1.36a.13.13 0 0 0 0 .1c.09.22.24.97-.13 1.05-.29.06-.6.1-.93.1-.06 0-.1-.03-.1-.1v-.32c0-.05.03-.08.08-.09.38-.07.65-.28.82-.63a.1.1 0 0 0 0-.1 4.26 4.26 0 0 0-1.12-1.35.07.07 0 0 0-.08-.01l-.12.07a.07.07 0 0 1-.08 0c-.31-.2-.53-.47-.38-.87a.1.1 0 0 1 .14-.04c.6.36 1.1.85 1.47 1.48Zm6.14.22a.44.44 0 0 0 .1-.35c-.02-.05-.04-.06-.09-.04l-.1.06a.14.14 0 0 1-.1.02c-.4-.07-.19-.55.02-.72a.17.17 0 0 1 .03-.01.14.14 0 0 1 .14 0l.04.05c.28.52.23 1.27-.35 1.54-.13.06-.3.03-.54-.1-.04-.02-.04-.03 0-.03.36 0 .65-.13.85-.42Zm-4.3-.01c-.24.6.4.56.7.35a.17.17 0 0 0 .05-.07.17.17 0 0 0 .01-.09l-.14-1.16A.04.04 0 0 1 9.56 9h.01L9.6 9h.04a.07.07 0 0 1 .05 0 .07.07 0 0 1 .03.06c0 .27.02.63.06 1.07.04.42-.4.6-.76.53-.32-.06-.23-.43-.13-.67 0-.01.01-.02.03-.01.01.01.02.02.01.03Zm-4.54 1.33c-.45.8.6.84.98.54a.33.33 0 0 0 .12-.3l-.18-1.56a.1.1 0 0 1 .01-.06l.01-.01c.13-.13.19-.1.18.07 0 .32.02.7.1 1.13v.43c-.03.53-.5.8-.99.71-.52-.08-.54-.63-.3-.99h.06v.01h.01v.03Zm6.2.27c0-.01-.03-.02-.06-.01l-.07.01a1.8 1.8 0 0 0-.23.23.09.09 0 0 1-.06 0 .08.08 0 0 1-.03-.01l-.27-.24a.12.12 0 0 1-.04-.08c0-.04.01-.07.03-.09l.25-.27c.06-.06.1-.06.15.01a.9.9 0 0 0 .19.2c.01.02.04.02.07.02.04 0 .06 0 .08-.02a.89.89 0 0 0 .17-.21c.04-.07.1-.08.15-.02l.26.26c.02.02.04.05.04.08 0 .04-.02.07-.04.09l-.25.25a.08.08 0 0 1-.06.03.08.08 0 0 1-.06-.03 1.9 1.9 0 0 0-.21-.2Zm.47 2.29c-.3.62-1.35.47-1.18-.28.1-.4.27-.76.54-1.08a.12.12 0 0 1 .1-.05c.13 0 .25.04.34.13.38.34.45.77.2 1.28Z" fill="#039AA6"/><path d="M4.26 8c.13.05.27.01.31-.1.05-.1-.01-.23-.14-.28-.12-.06-.26-.02-.31.09-.05.1.02.23.14.29Z" fill="#039AA6"/></svg>