<!-- by TradingView --><svg width="18" height="18" viewBox="0 0 18 18" xmlns="http://www.w3.org/2000/svg"><path fill="#F0F3FA" d="M0 0h18v18H0z"/><path d="M3.26 5.75c.3-.32.87-.75 2.35-.75 1.45 0 2.73 1.25 4.57 3.43l.13.16c1.75 2.08 2.49 2.96 4.69 3.2-.31.23-.84.31-1.18.31-1.12 0-2.67-.6-4.8-3.3A9.7 9.7 0 0 0 6.17 6.2a4.67 4.67 0 0 0-2.92-.44Zm-.23.27a.35.35 0 0 1-.03.02c1.06.19 2.01.37 4.24 2.82l.31.35C9.35 11.19 11 13 12.46 13c1.35 0 2.33-.31 2.51-.92-.35.19-.84.25-1.15.25-1.21 0-2.82-.67-4.98-3.38A9.48 9.48 0 0 0 6.08 6.4a4.6 4.6 0 0 0-3.05-.37Z" fill="#E60012"/><path d="M6.88 5.18c1.13.6 2.6 1.82 3.26 2.73.83 1.14 2.52 2.87 3.74 3.42C14.53 10.7 15 9.92 15 9.1 15 6.83 12.2 5 8.74 5c-.65 0-1.27.06-1.86.18Z" fill="url(#a)"/><path d="M11.12 12.82c-.9-.67-2.1-1.64-3.25-2.89-1.33-1.42-2.7-2.71-3.88-3.26-.62.64-1 1.41-1 2.24C3 11.17 5.72 13 9.06 13c.62 0 1.5-.06 2.07-.18Z" fill="url(#b)"/><defs><linearGradient id="a" x1="6.57" y1="5.42" x2="14.99" y2="6.01" gradientUnits="userSpaceOnUse"><stop stop-color="#BBB9D6"/><stop offset=".86" stop-color="#062C87"/></linearGradient><linearGradient id="b" x1="6.27" y1="7.46" x2="5.62" y2="10.19" gradientUnits="userSpaceOnUse"><stop stop-color="#9A96C0"/><stop offset="1" stop-color="#1E2F7C"/></linearGradient></defs></svg>