<!-- by TradingView --><svg width="18" height="18" viewBox="0 0 18 18" xmlns="http://www.w3.org/2000/svg"><path fill="#F0F3FA" d="M0 0h18v18H0z"/><path fill-rule="evenodd" d="M10.04 4.51 9 4l-1.04.51h-1.2l.48.95c-.43.16-.83.38-1.2.64-.9-1-2.2-2.27-2.54-1.93-.4.39.5 1.14 1 1.47C4 5.31 3 4.76 3 5.15c0 .27.32.56.63.77-.08 0-.13.06-.13.22 0 .39.67.82 1 .98-.33-.16-1-.4-1 0 0 .27.32.56.63.77-.08 0-.13.06-.13.22v.98l.07.14A4.96 4.96 0 0 0 9 15a4.96 4.96 0 0 0 4.93-5.77L14 9.1v-.98c0-.16-.05-.22-.13-.22.31-.2.63-.5.63-.77 0-.4-.67-.16-1 0 .33-.16 1-.6 1-.98 0-.16-.05-.22-.13-.22.31-.2.63-.5.63-.77 0-.4-1 .16-1.5.5.5-.34 1.4-1.1 1-1.48-.34-.34-1.64.94-2.54 1.93a5.01 5.01 0 0 0-1.2-.64l.48-.95h-1.2Zm.43.86.29-.56h-.8L9 4.33l-.96.48h-.8l.29.56a5.07 5.07 0 0 1 2.94 0Zm1.29.96a4.73 4.73 0 0 0-5.52 0l.13.15a4.53 4.53 0 0 1 5.26 0l.13-.15Zm1.74 3.75A4.47 4.47 0 0 1 9 14.5a4.47 4.47 0 0 1-4.5-4.43l-.19-.37a4.62 4.62 0 0 0 4.69 5 4.67 4.67 0 0 0 4.69-5l-.19.37ZM9 14.2c2.32 0 4.2-1.85 4.2-4.13A4.17 4.17 0 0 0 9 5.94a4.17 4.17 0 0 0-4.2 4.14A4.17 4.17 0 0 0 9 14.2Zm3.5-4.13v.2c0 1.9-1.57 3.44-3.5 3.44a3.47 3.47 0 0 1-3.5-3.63v-.04A3.48 3.48 0 0 1 9 6.82a3.48 3.48 0 0 1 3.5 3.24v.02Zm-.5.98.17-.33c-.1.64-.39 1.22-.8 1.67l-.37-.36c.4 0 .83-.65 1-.98Zm-4.5.98c-.27.27-.56.4-.76.46a3.13 3.13 0 0 1-.9-1.77l.16.33c.4.79 1.17.98 1.5.98ZM9 7.13c-.64 0-1.24.19-1.75.51.3.04.56.17.25.48-.5.49-.5 1.47 0 1.47.4 0 .83-.49 1-.98L8 8.1c.17-.16.6-.49 1-.49.33 0 1 .1 1 .5h-.5c0 .49.1 1.47.5 1.47.48 0 .95-.45 1-1.77a3.22 3.22 0 0 0-2-.69Z" fill="#1D3D7C"/></svg>