<!-- by TradingView --><svg width="18" height="18" viewBox="0 0 18 18" xmlns="http://www.w3.org/2000/svg"><path fill="#F0F3FA" d="M0 0h18v18H0z"/><path d="M10.92 6h.12c.16.1.3.22.45.4.25.3.47.58.66.85l1.34 1.91c.25.37.48.66.67.9a6.67 6.67 0 0 0 .8.82c.06.03.06.06-.01.06-.76.06-1.54.07-2.35.05-.4-.02-.78-.07-1.16-.16a2.95 2.95 0 0 1-.35-.13.7.7 0 0 1-.3-.25.52.52 0 0 1-.08-.48c.06-.2.14-.36.23-.5l.36-.53a.77.77 0 0 0 .11-.25v-.07a.1.1 0 0 0-.03-.06c-.06-.05-.16-.08-.29-.08a1.92 1.92 0 0 0-.3.03c-.64.1-1.22.33-1.73.67a.64.64 0 0 0-.16.17.99.99 0 0 0-.13.23 1.45 1.45 0 0 1-.66.87c-.15.1-.34.18-.56.26a6.74 6.74 0 0 1-1.22.27v-.02c.55-.23 1-.44 1.33-.64.2-.12.39-.27.56-.44.13-.14.24-.3.32-.49.08-.18.13-.39.17-.63a.49.49 0 0 1 .07-.2c.42-.64.85-1.23 1.29-1.77.2-.26.41-.47.62-.65a1 1 0 0 1 .23-.14Z" fill="#02446F"/><path d="M6.77 7.12c-.14.1-.27.23-.38.39L5.7 8.55a7.47 7.47 0 0 1-1.35 1.57l-.01-.01v-.01a14.4 14.4 0 0 1 .58-.66l.28-.38c.16-.23.26-.5.31-.8a124.19 124.19 0 0 0 .88-1.03l.26-.25c.12-.1.24-.1.35-.01.18.15.36.32.54.52l.82.87c.09.09.18.17.27.23.02.02.03.04.02.07-.11.47-.28.83-.5 1.08a.56.56 0 0 1-.53.2c-.02-.01-.02-.02-.02-.05.02-.09 0-.13-.07-.13-.1 0-.21.02-.35.08-.08.04-.2.1-.34.2h-.01c-.34.22-.7.47-1.09.76-.08.07-.09.06-.01-.04.3-.39.6-.83.87-1.32a.43.43 0 0 0 .06-.2c0-.05 0-.12-.02-.22-.02-.11-.02-.2-.02-.26.01-.1.04-.19.1-.26l.3-.43a.46.46 0 0 0 .1-.25c0-.09-.01-.18-.04-.28a1.04 1.04 0 0 0-.27-.42h-.04Z" fill="#9ED8FF"/><path d="M4.79 8.78v-.2c-.02-.18-.08-.21-.17-.1l-.38.48a5.5 5.5 0 0 1-.53.47l-.3.22c-.14.11-.27.28-.4.5-.1.16-.25.3-.45.44-.12.08-.3.17-.52.27-.05.03-.05.02-.01-.03a32.69 32.69 0 0 0 1.9-2.03l.26-.29c.1-.11.23-.23.37-.34.24-.18.45-.13.61.15l.04.03c.07 0 .14-.02.2-.07.04-.03.05-.01.04.05-.04.2-.1.37-.2.54-.12.2-.27.41-.45.62a12.24 12.24 0 0 1-.59.63.17.17 0 0 1-.11.05h-.15c-.1 0-.11-.06-.02-.14l.16-.14c.14-.12.24-.21.3-.28.1-.11.2-.22.26-.34.08-.14.13-.3.14-.5Z" fill="#C0C1C3"/></svg>