<!-- by TradingView --><svg width="18" height="18" viewBox="0 0 18 18" xmlns="http://www.w3.org/2000/svg"><path fill="#F0F3FA" d="M0 0h18v18H0z"/><path d="M7.81 13.73 3 9h5.17l4.77 4.66c.13.13.04.34-.14.34H8.48c-.25 0-.5-.1-.67-.27Z" fill="#007E31"/><path d="M7.81 4.27 3 9h5.17l4.77-4.66c.13-.13.04-.34-.14-.34H8.48c-.25 0-.5.1-.67.27Z" fill="url(#adwrdwt4y)"/><path d="M15 8h-3.38l-1.17 1.3 1.64 1.7L15 8Z" fill="#A4C42B"/><defs><linearGradient id="adwrdwt4y" x1="12.76" y1="4.34" x2="3.87" y2="9.05" gradientUnits="userSpaceOnUse"><stop stop-color="#007E31"/><stop offset=".63" stop-color="#A4C42B"/></linearGradient></defs></svg>