<!-- by TradingView --><svg width="18" height="18" viewBox="0 0 18 18" xmlns="http://www.w3.org/2000/svg"><path fill="#F0F3FA" d="M0 0h18v18H0z"/><path d="M6.38 7H2v4h4.38V7Zm-2.2.32.03.01c1.04.01 1.87.76 1.87 1.67 0 .92-.84 1.66-1.88 1.67h-.04C3.13 10.66 2.3 9.9 2.3 9c0-.91.84-1.66 1.87-1.67h.03ZM3.14 8c.13-.1.29-.18.45-.23-.05.07-.11.14-.16.23h-.29Zm-.53.83c.02-.17.1-.34.2-.5h.47c-.05.15-.08.32-.1.5H2.6Zm.2.84c-.1-.16-.18-.33-.2-.5h.57c.02.14.05.32.1.5H2.8Zm.77.56a1.69 1.69 0 0 1-.44-.23h.3c.03.08.08.16.14.23ZM5.24 10c-.1.08-.23.15-.37.2.04-.06.09-.12.13-.2h.24Zm.54-.83c-.03.17-.1.34-.2.5h-.46c.04-.15.07-.32.08-.5h.58Zm-.2-.84c.1.16.17.33.2.5H5.2a2.03 2.03 0 0 0-.1-.5h.47ZM4.95 8h.28a1.7 1.7 0 0 0-.45-.23l.17.23Zm-1.37.33c-.06.15-.1.31-.12.5h.57v-.5H3.6ZM4.04 8H3.8c.08-.1.17-.18.25-.24V8Zm.3.33v.5h.57a1.6 1.6 0 0 0-.12-.5h-.46ZM4.57 8h-.25v-.24c.08.06.17.14.25.24Zm.33 1.17h-.58v.5h.48c.05-.14.09-.3.1-.5Zm-.27.83h-.3v.27c.1-.05.2-.14.3-.27Zm-.6.24V10h-.26c.07.1.16.18.26.24Zm-.45-.57h.45v-.5h-.57c.01.14.05.32.12.5Z" fill="#3596D2"/><path d="M5.5 7.67c-.3 0-1 .1-1.46.5-.47.4-.48 1.27-.44 1.66l1.9-2.16Z" fill="#A8CF38"/><path d="M3.6 9.83c.3 0 1-.1 1.46-.5.47-.4.49-1.27.44-1.66L3.6 9.83Z" fill="#83C15A"/><path d="M6.38 7H16v4H6.37V7Z" fill="#F01823"/><path fill="#D9D9D9" d="M7 8h8v2H7z"/></svg>