<!-- by TradingView --><svg width="18" height="18" viewBox="0 0 18 18" xmlns="http://www.w3.org/2000/svg"><path fill="url(#a)" d="M0 0h18v18H0z"/><path fill-rule="evenodd" d="M5 6v-.16C5 5.22 5.45 4 6.98 4c.87 0 1.4.3 1.54.44l-.53 1c-.07-.13-.34-.37-.85-.37-.64 0-.67.6-.67.88V6H8v1H6.47v3.91L5 9.11V7H4V6h1Zm4.5 1.7V7H8v6.1L9.5 15v-2.7c.48.44 1.1.7 1.76.7 1.51 0 2.74-1.34 2.74-3s-1.23-3-2.74-3c-.67 0-1.28.26-1.76.7Zm0 2.3a1.5 1.5 0 1 0 3 0 1.5 1.5 0 0 0-3 0Z" fill="#fff"/><defs><linearGradient id="a" x1="9" y1="0" x2="9" y2="18" gradientUnits="userSpaceOnUse"><stop stop-color="#F4C156"/><stop offset="1" stop-color="#ED7E30"/></linearGradient></defs></svg>