<!-- by TradingView --><svg width="18" height="18" viewBox="0 0 18 18" xmlns="http://www.w3.org/2000/svg"><path fill="#F0F3FA" d="M0 0h18v18H0z"/><path d="M6.22 6.78h.01l3.7-3.75c.01 0 .01 0 0 0v-.01L8.82 3 6.22 6.78ZM5.5 8.63A4220.74 4220.74 0 0 0 6.74 3.5l-.94.55a1405.94 1405.94 0 0 0-.3 4.57Zm6.32-4.95h.03l.94.56v.01L7.77 5.7a394.94 394.94 0 0 1 4.05-2Zm-8 2.67a532.71 532.71 0 0 0 2.08 4.08 3533.22 3533.22 0 0 1-1.54-5.07l-.54.95v.04ZM14.3 6a195.28 195.28 0 0 1 .45.85l-5-1.33c-.08-.02-.08-.03 0-.02a1318.28 1318.28 0 0 1 4.46.36c.02.01.04.03.06.07l.03.07Zm.69 2.79a919.76 919.76 0 0 0-3.76-2.57v.01A718.67 718.67 0 0 1 15 9.94l.01-1.1c0-.01 0-.03-.02-.04Zm-.5 3.11-.52.96a22824.87 22824.87 0 0 0-1.59-5.04 1180.91 1180.91 0 0 1 2.1 4.08Zm-9.94-1.48a472.66 472.66 0 0 1 2.2 1.54v-.01a895.33 895.33 0 0 1-3.72-3.74L3 9.32a705.31 705.31 0 0 0 1.54 1.1Zm8.08-.85.02-.06a1261.47 1261.47 0 0 1-.15 4.5l-.93.58h-.01l1.07-5.02Zm-1.85 3.28a463.17 463.17 0 0 1 1.1-1.65l-3.68 3.76.01.02L9.3 15s.02 0 .03-.02l1.45-2.12Zm-7.43-1.47c-.01-.01 0-.02.01-.01l5.06 1.21c.07.02.07.02 0 .02l-4.48-.25c-.02 0-.03 0-.03-.02l-.56-.95Zm4.86 2.13a263.98 263.98 0 0 1 2.2-1.06 25049.6 25049.6 0 0 0-5.06 1.38l.92.56c.02.02.04.02.06 0l1.88-.88Z" fill="#093C71"/></svg>