<!-- by TradingView --><svg width="18" height="18" viewBox="0 0 18 18" xmlns="http://www.w3.org/2000/svg"><path fill="url(#awiipjros)" d="M0 0h18v18H0z"/><path fill-rule="evenodd" d="M7.2 8.38h-.19v.12h.1v.24h.14v2.17h.25v-.95h3.02v.95h.23v-.95h.16V9.8h-.16v-.9h.16v-.16h-.16.14V8.5h.1v-.12h-.24v-.06h.16v-.16h-.2c-.17-.88-.87-1.59-1.72-1.59-.93 0-1.69.82-1.79 1.81Zm3.32 1.42v-.9H7.5v.9h3.02Zm0-1.21v.15H7.5V8.6c0-.1 0-.18.02-.27h2.98c.02.09.02.18.02.27Zm-.05-.43a1.54 1.54 0 0 0-1.46-1.23c-.7 0-1.3.52-1.46 1.23h2.92Zm-7.44.88V8.1c0-.21.16-.38.37-.38.2 0 .36.17.36.38v.94h-.73Zm-.06.06H2.7V7.82l.27.23c.03-.22.2-.4.43-.4.23 0 .42.2.42.45v1h-.85Zm.85-1.05.28-.23V9.1h-.28V8.05ZM5.4 13l.02-1H2v-.5h3.42l.05-2.35-.15-.18c-.19.08-.59.4-.64 1.02-.08-.3-.11-.92.4-1.07-.14-.04-.46-.01-.64.44 0-.3.15-.82.83-.56-.1-.18-.42-.44-.85-.06.1-.22.42-.57.9-.16-.08-.15-.34-.45-.72-.47.2-.15.68-.26.93.44.25-.7.73-.59.93-.44-.38.02-.64.32-.72.47.48-.41.8-.06.9.16-.43-.38-.75-.12-.85.06.67-.26.84.27.83.56-.18-.45-.5-.48-.64-.44.51.15.48.78.4 1.07a1.2 1.2 0 0 0-.64-1.02l-.15.18.05 2.35h6.73l.05-2.35-.14-.18c-.2.08-.59.4-.64 1.02-.08-.3-.12-.92.4-1.07-.14-.04-.46-.01-.65.44 0-.3.16-.82.84-.56-.1-.18-.42-.44-.86-.06.1-.22.43-.57.9-.16-.07-.15-.33-.45-.71-.47.2-.15.68-.26.93.44.24-.7.73-.59.93-.44-.38.02-.64.32-.72.47.48-.41.8-.06.9.16-.43-.38-.75-.12-.86.06.68-.26.84.27.84.56-.18-.45-.5-.48-.64-.44.5.15.48.78.4 1.07a1.2 1.2 0 0 0-.64-1.02l-.15.18.05 2.35H16v.5h-3.39l.02 1H12.34l.02-1h-6.7l.01 1H5.4Zm8.84-4.9v.94h.73V8.1c0-.21-.16-.38-.36-.38-.2 0-.37.17-.37.38Zm-.33 1h1.12v-1a.43.43 0 0 0-.42-.44c-.22 0-.4.17-.43.39l-.27-.23V9.1Zm1.4-1.28-.28.23V9.1h.28V7.82Z" fill="#fff"/><path opacity=".7" d="M7.3 7.96v2.71h3.36v-2.7l-.56-.87-1.13-.4-1.03.4-.64.86Z" fill="url(#bwiipjros)"/><path opacity=".7" d="M7.5 5h3v.5H14v1h2v5.25h-.5V7h-2V6H10v-.5H8V6H4.5v1h-2v4.75H2V6.5h2v-1h3.5V5Z" fill="#fff"/><defs><linearGradient id="awiipjros" x1="3.35" y1="3.12" x2="21.9" y2="24.43" gradientUnits="userSpaceOnUse"><stop stop-color="#1A1E21"/><stop offset="1" stop-color="#06060A"/></linearGradient><linearGradient id="bwiipjros" x1="7.3" y1="8.83" x2="10.82" y2="8.83" gradientUnits="userSpaceOnUse"><stop offset=".08" stop-color="#fff" stop-opacity="0"/><stop offset=".2" stop-color="#fff" stop-opacity="0"/><stop offset=".33" stop-color="#fff" stop-opacity="0"/><stop offset=".38" stop-color="#fff"/><stop offset=".44" stop-color="#fff" stop-opacity="0"/><stop offset=".5" stop-color="#fff"/><stop offset=".61" stop-color="#fff"/><stop offset=".67" stop-color="#fff" stop-opacity="0"/><stop offset=".72" stop-color="#fff"/><stop offset=".78" stop-color="#fff" stop-opacity="0"/><stop offset=".89" stop-color="#fff" stop-opacity="0"/></linearGradient></defs></svg>