<!-- by TradingView --><svg xmlns="http://www.w3.org/2000/svg" width="18" height="18" viewBox="0 0 18 18"><path fill="#F47721" d="M0 0h18v18H0z"/><path d="M5.5 5a.5.5 0 0 0-.5.5v2.74c0 .27.23.5.5.5h1.52a2 2 0 0 1 1.72-1.72V5.5a.5.5 0 0 0-.5-.5H5.5zm0 4.27h1.52a2 2 0 0 0 1.72 1.71v1.52a.5.5 0 0 1-.5.5H5.5a.5.5 0 0 1-.5-.5V9.77c0-.27.23-.5.5-.5zm3.77 3.23v-1.52a2 2 0 0 0 1.71-1.7h1.52c.28 0 .5.22.5.5v2.72a.5.5 0 0 1-.5.5H9.77a.5.5 0 0 1-.5-.5zm3.23-3.76h-1.52a2 2 0 0 0-1.7-1.72V5.5c0-.27.22-.5.5-.5h2.72c.28 0 .5.23.5.5v2.74a.5.5 0 0 1-.5.5zM9 10.34a1.33 1.33 0 1 0 0-2.67 1.33 1.33 0 0 0 0 2.67z" fill="#fff"/></svg>