<!-- by TradingView --><svg width="18" height="18" viewBox="0 0 18 18" xmlns="http://www.w3.org/2000/svg"><path fill="#F0F3FA" d="M0 0h18v18H0z"/><path d="M12.85 13c-.97.8-2.23 1.3-3.6 1.3A5.4 5.4 0 0 1 3.72 9a5.4 5.4 0 0 1 5.51-5.3c1.38 0 2.64.5 3.6 1.3h1.05a6.34 6.34 0 0 0-4.65-2A6.12 6.12 0 0 0 3 9c0 3.31 2.8 6 6.24 6 1.85 0 3.51-.77 4.65-2h-1.04Z" fill="#B3963B"/><path d="M9 6c-.21 0-.53.05-.82.25-.3.2-.51.56-.51 1.08V8H7v.67h.67V12h.66V8.67H9V8h-.67v-.67c0-.3.12-.46.24-.54A.8.8 0 0 1 9 6.67V6Z" fill="#B3963B"/><path d="M15 6h-4l2 3 2-3Z" fill="url(#a)"/><path d="M15 12h-4l2-3 2 3Z" fill="url(#b)"/><defs><linearGradient id="a" x1="13" y1="6" x2="13" y2="9" gradientUnits="userSpaceOnUse"><stop stop-color="#AF904C"/><stop offset="1" stop-color="#F2C645"/></linearGradient><linearGradient id="b" x1="13" y1="12" x2="13" y2="9" gradientUnits="userSpaceOnUse"><stop stop-color="#AF904C"/><stop offset="1" stop-color="#F2C645"/></linearGradient></defs></svg>