<!-- by TradingView --><svg width="18" height="18" viewBox="0 0 18 18" xmlns="http://www.w3.org/2000/svg"><path fill="#F0F3FA" d="M0 0h18v18H0z"/><path d="M5 14v-1.33l8-.17V5h1v9H5Z" fill="#575C55" fill-opacity=".6"/><path fill-rule="evenodd" d="M13 4H4v9h9V4Zm-.76 1.33c.45-.14.76-.37.69-.51-.07-.14-.5-.14-.95 0-.45.14-.76.36-.69.5.07.14.5.14.95 0Zm-1.8 1.49c.54-.13.91-.53.83-.9-.08-.38-.58-.58-1.13-.45-.54.12-.91.53-.83.9.08.37.58.58 1.13.45Zm-.16.81c.07.36-.38.79-1.02.95-.63.16-1.2 0-1.28-.36-.07-.36.38-.78 1.02-.94.64-.16 1.21 0 1.28.35Zm1.16 2.73c.72-.17 1.24-.6 1.16-.95-.09-.36-.75-.51-1.47-.34-.73.17-1.25.59-1.16.95.08.35.74.5 1.47.34Zm-.17.94c.1.45-.54.98-1.45 1.19-.9.2-1.73.01-1.84-.43-.1-.45.55-.98 1.45-1.19.91-.2 1.73-.02 1.84.43Z" fill="#0202FF"/></svg>