<!-- by TradingView --><svg width="18" height="18" viewBox="0 0 18 18" xmlns="http://www.w3.org/2000/svg"><path fill="#F0F3FA" d="M0 0h18v18H0z"/><path d="M2 10.6h.75l.26-1.39H4.1l.1-.61H3.12l.1-.6h1.14l.1-.6H2.59L2 10.6Zm5.47-3.2h-.74l-.28 1.42-.02.13c-.09.48-.19 1.03-.62 1.03-.27 0-.4-.2-.4-.45l.04-.28.01-.07.34-1.79h-.76l-.31 1.62c-.03.15-.06.35-.06.6 0 .74.49 1 1.11 1 1.02 0 1.23-.74 1.42-1.75l.27-1.47Zm2 0c.53 0 .83.1.98.16l-.18.63a1.2 1.2 0 0 0-.69-.18c-.74 0-1.04.59-1.04 1.17 0 .55.31.81.76.81.27 0 .5-.06.7-.17l-.08.67c-.17.06-.49.12-.74.12-.89 0-1.4-.6-1.4-1.45 0-1.03.65-1.77 1.69-1.77Zm1 3.2h.74l.24-1.37h.88l-.25 1.38h.75l.57-3.22h-.74l-.22 1.2h-.88l.22-1.2h-.74l-.58 3.22Zm4.68-3.2c.34 0 .66.03.85.13l-.18.62a1.28 1.28 0 0 0-.61-.14c-.3 0-.53.05-.53.3 0 .17.17.25.38.35.31.14.7.3.7.87 0 .85-.72 1.08-1.36 1.08a2.8 2.8 0 0 1-.86-.16l.18-.64c.14.11.44.18.68.18.23 0 .6-.05.6-.37 0-.21-.2-.3-.43-.4-.3-.13-.66-.29-.66-.79 0-.8.63-1.04 1.24-1.04ZM11.39 3.14l-.26 1.3s-.7-.21-1.19-.19a6.54 6.54 0 0 0-4.82 2.6S6.35 3.21 10.25 3c.44-.02 1.14.14 1.14.14Z" fill="#0059AA"/><path d="m8.33 6.08.27-1.34s.17-.1.86-.16c3.37-.26 4.14 2.47 4.14 2.47s-.86-1.33-3.23-1.41c-1.33-.05-2.04.44-2.04.44Z" fill="#EC1B24"/><path d="m6.53 14.86.26-1.3s.7.21 1.18.19c3.18-.17 4.83-2.6 4.83-2.6S11.56 14.79 7.66 15c-.43.02-1.13-.14-1.13-.14Z" fill="#0059AA"/><path d="m9.58 11.92-.27 1.34s-.17.1-.85.16c-3.38.26-4.14-2.46-4.14-2.46s.85 1.32 3.22 1.4a3.56 3.56 0 0 0 2.04-.44Z" fill="#EC1B24"/></svg>