<!-- by TradingView --><svg width="18" height="18" viewBox="0 0 18 18" xmlns="http://www.w3.org/2000/svg"><path fill="#F0F3FA" d="M0 0h18v18H0z"/><path fill-rule="evenodd" d="M9 14a5 5 0 0 0 5-5h1V8h-1.1a4.96 4.96 0 0 0-.44-1.26c.16-.3.28-.6.37-.86a.5.5 0 0 0 .14-.55c.08-.48.01-.85-.22-1.08-.43-.43-1.35-.29-2.49.29A5 5 0 0 0 4.1 8H3v1h1c0 .81.2 1.58.54 2.26-.58 1.14-.72 2.06-.29 2.49.43.43 1.35.29 2.49-.29.68.35 1.45.54 2.26.54Zm4.37-8.02-.15.34a5.03 5.03 0 0 0-1.54-1.54c.81-.4 1.44-.48 1.73-.2.1.11.16.25.17.43a.5.5 0 0 0-.2.98ZM12.18 8c.23-.31.43-.61.61-.9a4.28 4.28 0 0 0-8.02.9H6V6h.4l.6.64.6-.64H8v2h2V6h2v.43h-1.41V7h1.01v.43h-1.01V8h1.6ZM7.6 6.58V8H6.41V6.58l.59.65.6-.65Zm5.4 1L12.7 8h.4a4.34 4.34 0 0 0-.13-.42ZM13.21 9h-1.26c-.27.33-.56.67-.87 1H12v2H8.95c-.52.41-1.02.77-1.5 1.06A4.3 4.3 0 0 0 13.22 9Zm-4.98 3c-.44.33-.86.62-1.25.86A4.34 4.34 0 0 1 4.66 9h6.73c-.29.33-.6.67-.92 1H6v.75h1v-.25h-.67v-.25H8v1.5H6.33v-.25H7v-.25H6V12h2.24Zm1.02-.25h2.4v-1.5h-.8a21.59 21.59 0 0 1-1.6 1.5Zm.97-1.5c-.56.56-1.13 1.06-1.67 1.5h-.23v-1.5h1.9Zm-5.45 1.43c.4.62.92 1.15 1.54 1.54-.81.4-1.44.48-1.73.2-.3-.3-.2-.93.19-1.74Z" fill="#90701B"/></svg>