<!-- by TradingView --><svg width="18" height="18" viewBox="0 0 18 18" xmlns="http://www.w3.org/2000/svg"><path fill="#F0F3FA" d="M0 0h18v18H0z"/><path d="M11.97 4.1c.1.33.14.61.13.82-.02.4-.22.73-.6 1.01-.22.2-.44.33-.64.4-.52.18-1.03.37-1.53.58a8.8 8.8 0 0 0-2.1 1.25c-1.4 1.15-1.86 2.55-1.4 4.19.1.36.32.82.65 1.37a3.93 3.93 0 0 1-.93-5.08c.13-.24.48-.69 1.03-1.35.35-.43.64-.87.85-1.34.22-.5.33-1 .32-1.46 0-.6-.21-1.16-.63-1.68a4.31 4.31 0 0 0-.83-.8h.04c.33.22.57.42.74.6a2.94 2.94 0 0 1 .58 3.4c-.16.36-.32.66-.5.9-.24.35-.51.7-.8 1.03-.22.25-.36.52-.53.76v.02h.02c.44-.56.98-1.02 1.62-1.4a10.95 10.95 0 0 1 2.66-1.2c.45-.16.77-.32.96-.46.52-.4.7-.9.56-1.54a3.37 3.37 0 0 1-.05-.27c-.01-.04 0-.05.05-.02l.33.26Z" fill="#EC8B2E"/><path d="M11.97 4.1c.62.6.96 1.3 1.02 2.07a4.46 4.46 0 0 1-1.3 3.46 9.64 9.64 0 0 1-2.93 2.1c-.64.3-1.14.6-1.58 1.06-.39.42-.5.84-.3 1.27.04.1.02.12-.06.02l-.34-.36a6.02 6.02 0 0 1-.65-1.37c-.46-1.64 0-3.04 1.4-4.2a6.5 6.5 0 0 1 1.32-.87c.25-.13.5-.26.78-.37.06.04.1.09.11.13-.72.32-1.32.67-1.79 1.05a4.06 4.06 0 0 0-1.48 4.02 2.12 2.12 0 0 1 .1.42l.01.01h.02c0-.15-.01-.29-.05-.42a1.38 1.38 0 0 1-.06-.4V11c.08.13.23.25.4.19l.13-.05c.04-.01.04 0 .03.02l-.34.48c-.02.01-.01.02.01.03h.04a.04.04 0 0 1 .05 0c.33.3.69.5 1.17.3a9.3 9.3 0 0 0 3-2.38 4.4 4.4 0 0 0 .9-2.86 10 10 0 0 0-.07-.8c.37-.3.57-.63.59-1.02 0-.21-.04-.49-.13-.83Z" fill="#3B9F43"/><path d="M11.5 5.93c.04.27.06.54.07.81a4.4 4.4 0 0 1-.9 2.87 9.3 9.3 0 0 1-2.99 2.38c-.48.2-.84 0-1.17-.31l-.02-.01h-.07c-.02 0-.03 0-.01-.02l.34-.48c.01-.02 0-.03-.03-.02l-.13.05c-.17.06-.31-.06-.4-.19a3.89 3.89 0 0 1 1.28-2.58c.05-.04.12-.1.2-.21l.22-.2a7.1 7.1 0 0 1 1.08-.68 3740.99 3740.99 0 0 1 .77-.4h-.02l-.28.1c0-.04-.05-.09-.11-.13.5-.21 1.01-.4 1.53-.58.2-.07.42-.2.65-.4Z" fill="#52AB41"/><path d="M6.19 11.01v.7c0 .14.02.27.06.4.04.14.06.28.05.43h-.02l-.02-.01a2.12 2.12 0 0 0-.09-.42 4.84 4.84 0 0 1-.08-1.16c.11-1.15.63-2.1 1.56-2.86a7.96 7.96 0 0 1 1.8-1.05l.27-.1h.02v.01l-.77.39a7.1 7.1 0 0 0-1.3.88c-.08.1-.15.17-.2.2A3.89 3.89 0 0 0 6.2 11Z" fill="#F1EA44"/><path d="M12.76 8.99c.05 1.07-.42 1.96-1.4 2.68a7.7 7.7 0 0 1-1.4.75 6.3 6.3 0 0 0-1.73 1.1 2 2 0 0 0-.7 1.39c0 .11-.04.12-.1.02-.17-.3-.24-.62-.22-.95.02-.32.15-.61.37-.88.27-.33.59-.6.96-.8l1.14-.6a6.67 6.67 0 0 0 2.99-2.73c.06-.09.09-.08.09.02Z" fill="#EC8B2E"/><path d="M7.12 9.73c-.1.05-.18.1-.23.15-.07.06-.07.05-.02-.01a.59.59 0 0 1 .19-.16 4.3 4.3 0 0 1 1.24-.44l.02.02c0 .01 0 .02-.02.02-.44.1-.83.23-1.18.42Z" fill="#F1EA44"/></svg>