<!-- by TradingView --><svg width="18" height="18" viewBox="0 0 18 18" xmlns="http://www.w3.org/2000/svg"><path fill="#F0F3FA" d="M0 0h18v18H0z"/><path d="M5.9 14.22a2.93 2.93 0 0 1-1.37-1c.19-.92.74-1.68 2.03-3.14A5.83 5.83 0 0 1 12 8.34l-1.38 1.42c-2.57-.02-4.2 2.95-4.71 4.46Z" fill="url(#a)"/><path d="M15 9a6 6 0 0 1-7.14 5.9c-.36-.15-.71-.42-.71-.88 0-.12.01-.25.03-.36l.06.02a1.07 1.07 0 0 1-.04-.06A4.96 4.96 0 0 1 11.79 10c.3 0 .52.06.75.17l-1.1 1.2c-.8.2-2.44.93-2.44 1.84 0 .3.41.64 1.5.51h.18A5 5 0 1 0 4 9.21c.97-1.29 3.48-3.75 6.12-3.75.3 0 .59.04.88.1L9.47 7.24c-.64-.05-2.69.8-5.04 3.76l-.03-.02.01.02c-.22.3-.49.7-.6 1A6 6 0 1 1 15 9Z" fill="url(#b)"/><defs><linearGradient id="a" x1="12.05" y1="8.49" x2="5.01" y2="13.52" gradientUnits="userSpaceOnUse"><stop stop-color="#FD2D3F"/><stop offset=".58" stop-color="#F77F69"/><stop offset="1" stop-color="#FC3442"/></linearGradient><linearGradient id="b" x1="5.12" y1="4.71" x2="12.38" y2="13.52" gradientUnits="userSpaceOnUse"><stop stop-color="#0176A8"/><stop offset=".32" stop-color="#0189C4"/><stop offset=".85" stop-color="#015C83"/></linearGradient></defs></svg>