<!-- by TradingView --><svg width="18" height="18" viewBox="0 0 18 18" xmlns="http://www.w3.org/2000/svg"><path fill="#F0F3FA" d="M0 0h18v18H0z"/><path d="M4.98 6a5.34 5.34 0 0 1 2.68-1.82 4.91 4.91 0 0 1 3.23.18c.1.04.1.06 0 .08-1.99.32-3.95.85-5.88 1.6-.06.03-.07.01-.03-.04Zm6.47 3.28a7.66 7.66 0 0 1-2.21 4.63.28.28 0 0 1-.16.08h-.22a5.02 5.02 0 0 1-4.5-6.9.17.17 0 0 1 .12-.1c1.2-.36 2.36-.56 3.48-.63.44-.02.9 0 1.4.1.78.12 1.34.43 1.7.92.34.48.47 1.1.39 1.9Zm-.6 4.28c-.08.09-.06.11.05.06a5.42 5.42 0 0 0 1.52-1 4.89 4.89 0 0 0 1.54-3c.07-.6.04-1.2-.1-1.82 0-.07-.03-.07-.04 0a14.79 14.79 0 0 1-2.97 5.76Z" fill="#D7000F"/></svg>