<!-- by TradingView --><svg width="18" height="18" viewBox="0 0 18 18" xmlns="http://www.w3.org/2000/svg"><path fill="#F0F3FA" d="M0 0h18v18H0z"/><path d="M9.37 5.9c.15-.08.3-.1.45-.09.16.03.3.1.4.24.17.23.2.5.12.79l-.02.01h-.04l-.01-.02a.92.92 0 0 0-.06-.12c-.02-.03-.03-.03-.03 0-.02.22-.1.42-.25.6l-.03.01c-.02 0-.02 0-.03-.02l-.08-.14-.01-.01h-.02l-.11.13a.34.34 0 0 1-.15.08h-.03l-.02-.03-.04-.22c-.01-.05-.03-.05-.04 0a1.9 1.9 0 0 1-.22.37l-.02.01H9.1a.8.8 0 0 1-.2-.24h-.02c-.18.14-.47.21-.88.2h-.01v-.4L8 6.87c.02-.08.06-.13.1-.16.04-.03.03-.04-.01-.05a.73.73 0 0 1-.26-.08.04.04 0 0 1-.02-.03l.01-.04c.1-.08.18-.17.26-.27v-.02l-.02-.02-.29-.02-.01-.01v-.02c.08-.15.17-.28.29-.38v-.03a.03.03 0 0 0-.02-.02.36.36 0 0 1-.15-.07l-.01-.01v-.02a3.32 3.32 0 0 1 .65-.38l.02-.01-.01-.02-.15-.07a.04.04 0 0 1-.03-.05c0-.02.02-.03.04-.04.09-.03.19-.05.29-.05.1 0 .2.02.29.05.3.11.43.33.41.65 0 .06-.01.12-.03.17-.02.03 0 .03.02.02Z" fill="#C8B04C"/><path d="M9.75 5.6a.22.22 0 0 1 0-.2.16.16 0 0 1 .09-.08.13.13 0 0 1 .12 0c.03.02.06.04.07.07.02.03.02.06.02.1l-.03.08a.22.22 0 0 1-.07.08.02.02 0 0 0 0 .03c.05.03.1.04.13.02.2-.08.24-.22.15-.41-.05-.1-.04-.1.03-.02.05.07.07.13.07.21 0 .08-.03.14-.09.2-.1.09-.2.1-.3.06a.31.31 0 0 0-.14-.03.6.6 0 0 1-.16-.01.6.6 0 0 1-.15-.06.06.06 0 0 1-.03-.04.22.22 0 0 1 0-.13l.01-.01h.02c.06.08.13.13.23.17.03 0 .04 0 .03-.04ZM7.65 5.56a.4.4 0 0 1-.07-.27l.01-.02h.03l.22.2c.02 0 .02.03.02.05 0 .02 0 .04-.02.05l-.02.02a.03.03 0 0 0-.01.04c.02.06.06.1.12.11l.01.02v.02l-.12.15c-.08.12-.16.2-.21.25-.02.02-.02.02-.03 0a.7.7 0 0 1 .04-.31v-.04a.06.06 0 0 0-.03-.03l-.1-.06a.04.04 0 0 1-.02-.04c0-.02.02-.04.03-.04l.13-.04.02-.02v-.04Z" fill="#C8B04C"/><path d="m9.88 5.6-.04-.01c-.04-.07-.05-.12-.02-.16.02-.05.06-.06.12-.05l.03.03c.04.07.01.14-.09.19Z" fill="#fff"/><path d="m11.54 5.4-.54.4.01.03h.02l.54-.4v-.01l-.01-.02h-.02ZM7.12 5.47l.12-.05h.03c.01 0 .02 0 .03.02l.02.04v.03c0 .02-.02.02-.03.03l-.07.01h-.09l-.03-.01-.01-.03V5.5l.03-.02ZM7.47 5.57c.03.04.08.05.1.03.03-.02.02-.07-.02-.1-.03-.04-.08-.05-.1-.03-.03.02-.02.07.02.1ZM11.71 5.48l-.49.34v.01l.01.02h.02l.48-.34v-.03h-.02ZM7.32 5.55c.01-.01.02-.02.04 0 .06.02.08.06.06.11 0 .02-.01.02-.03.03h-.13c-.02 0-.03 0-.04-.02v-.03l.02-.02a.31.31 0 0 0 .08-.07ZM11.9 5.58l-.76.41a.02.02 0 0 0 0 .03c0 .01.01.02.02.01l.76-.42a.02.02 0 0 0 0-.02c0-.02-.02-.02-.03-.01ZM15.83 6.23c.06.14.1.29.12.44 0 .01 0 .03-.02.04-.01.02-.02.02-.01 0l-.01-.06a1.2 1.2 0 0 0-.69-.67 2 2 0 0 0-.89-.13c-.32.03-.66.07-1.01.14a25.04 25.04 0 0 0-2.63.76c-.04.02-.05 0-.05-.03v-.07l.02-.04a.07.07 0 0 1 .04-.02l.27-.1.16-.04.19-.06.58-.28c.14-.07.28-.13.43-.17.57-.16 1.13-.27 1.67-.34.4-.05.75-.04 1.04.03.4.1.66.3.79.6ZM7.04 5.7c.07 0 .13-.02.13-.05 0-.03-.05-.06-.12-.06-.07 0-.13.01-.14.04 0 .03.06.06.13.06Z" fill="#C8B04C"/><path d="M8.58 7a.04.04 0 0 0-.03-.03h-.04l-.24.23h-.02v-.02l.25-.29a.04.04 0 0 0 .01-.04.04.04 0 0 0-.03-.03.31.31 0 0 1-.08-.02c-.04-.02-.04-.03 0-.03h.18c.03 0 .05-.02.07-.05a.5.5 0 0 1 .15-.13l.01-.03s0-.02-.02-.02a.66.66 0 0 0-.27-.08H8.5v-.02c.1-.02.2-.01.3 0 .04.02.1 0 .16-.07a.94.94 0 0 0 .13-.13.07.07 0 0 0 .01-.05.07.07 0 0 0-.02-.05 1.2 1.2 0 0 0-.53-.29c-.06-.01-.06-.02 0-.02.2 0 .38.07.52.22v.01h.02v-.04c-.04-.14-.1-.27-.2-.4l.01-.03h.04c.13.14.21.28.24.44 0 .02.02.04.04.05a.1.1 0 0 0 .07.02c.11-.02.2-.02.27-.02.1 0 .18.03.25.08a16.29 16.29 0 0 1-.25-.01l-.18.01a.04.04 0 0 0-.03.03l.01.04c.11.1.2.22.24.36l-.02.01h-.01a.95.95 0 0 0-.29-.34.07.07 0 0 0-.05-.01l-.04.01-.18.18c-.04.05-.05.1-.04.14.04.1.05.2.03.32L9 6.92h-.02V6.9l-.07-.23a.04.04 0 0 0-.03-.03l-.04.01a.76.76 0 0 0-.16.17.17.17 0 0 0-.03.08v.12c0 .06-.01.06-.04.01A.37.37 0 0 1 8.58 7Z" fill="#fff"/><path d="M10.9 5.83a.28.28 0 0 0-.12.09.1.1 0 0 1-.1.04c-.03-.02-.03-.03-.02-.05l.1-.15h.01l.17-.11.03-.01h.02l.01.02v.02a.5.5 0 0 0-.07.12c0 .02 0 .02-.02.03ZM10.8 6.14c.16-.06.32-.09.47-.07l.05-.01a14.17 14.17 0 0 0 .77-.4l.01.02v.02a7.43 7.43 0 0 1-.79.39.68.68 0 0 1-.53.1h-.01v-.03l.04-.02ZM7.42 5.75l.02.01v.01c0 .03-.02.05-.04.06a.1.1 0 0 1-.07.02h-.01a.1.1 0 0 1-.07-.03.09.09 0 0 1-.02-.07c0-.02.01-.02.02-.02l.17.02ZM7.15 5.85l.13.04.02.01c.02.04.02.07.01.11 0 .02-.01.02-.03.02-.1-.02-.16-.07-.19-.13 0-.02-.01-.03-.03-.03a.1.1 0 0 1-.08-.05c-.03-.04-.01-.06.03-.07l.1.01c.04.01.05.04.03.07v.02ZM10.52 5.98c.1-.08.16-.16.14-.18-.02-.02-.11.02-.2.1-.1.06-.17.14-.15.17.02.02.12-.02.21-.1ZM10.8 5.97v-.02l.02-.02c.1-.04.17-.06.24-.07.06-.01.1 0 .11.01v.01c.01.02-.01.05-.07.09a1.1 1.1 0 0 1-.2.1h-.06l-.04-.1ZM7.36 6.09l-.01-.01v-.02A.1.1 0 0 1 7.39 6a.07.07 0 0 1 .06-.01c.03 0 .04.02.05.04 0 .02.01.04 0 .07l-.01.02h-.02l-.1-.03ZM10.69 6l-.29.1a.06.06 0 0 0-.04.07v.01c.02.03.05.05.09.04l.28-.09a.06.06 0 0 0 .04-.08.07.07 0 0 0-.08-.05ZM7.5 6.86h-.28c-.01 0-.02 0-.03-.02l-.01-.03a.53.53 0 0 1 .11-.21l.01-.03-.01-.03a1.85 1.85 0 0 1-.32-.37c-.06-.09-.03-.11.07-.08l.53.2c.07.02.12.03.17 0a.41.41 0 0 1 .21-.03h.02v.03l-.18.16a.16.16 0 0 0-.05.06.12.12 0 0 0 0 .07c0 .03 0 .05.03.06l.07.04c.01 0 .02 0 .02.02l.01.02-.05.3a.7.7 0 0 1-.1.19.98.98 0 0 0-.07.13c0 .01 0 .02-.02.02-.01 0-.02 0-.03-.02a.6.6 0 0 1-.07-.21l-.01-.24c0-.02 0-.03-.03-.03Z" fill="#C8B04C"/><path d="M15.58 6.42c0 .01 0 .03.02.04v.03h-.02a2.76 2.76 0 0 0-1.63-.19v.01h.02a3.82 3.82 0 0 1 1.16.15c.23.06.47.19.73.38l.01.03v.02c0 .02-.01.02-.02 0a4 4 0 0 0-.92-.32 2.32 2.32 0 0 0-.9 0c-.1.03-.1.04 0 .03.36 0 .68.04.99.12.34.1.63.23.87.42v.03h-.02c-.3-.14-.61-.25-.92-.3a2.59 2.59 0 0 0-.97.01v.01H14a6.53 6.53 0 0 0 .37 0c.3.03.56.08.78.15.26.08.49.19.7.33.01.01.02.04.01.06v.02a3.9 3.9 0 0 0-.88-.3 2.74 2.74 0 0 0-.95 0v.01c0 .01 0 .02.02.02.31-.01.62.02.9.09.32.07.6.19.85.34.02.02.02.03.01.06v.01a.03.03 0 0 1-.04.01c-.2-.1-.4-.16-.59-.2-.35-.1-.7-.12-1.04-.07a.16.16 0 0 0-.07.03c-.02.01-.02.02 0 .02.5-.01.95.07 1.39.24.1.04.2.1.31.17v.08l-.42-.15a2.62 2.62 0 0 0-1.27-.09v.02a4.07 4.07 0 0 1 1.6.36l.02.02v.07h-.01c0 .01-.02.02-.03.01a2.86 2.86 0 0 0-1.56-.18c-.01.01 0 .02.01.02.55-.02 1.06.1 1.55.33l-.01.09h-.06c-.48-.2-.97-.25-1.48-.17a4.68 4.68 0 0 1 1 .15c.14.03.3.09.46.17l.02.03-.02.1h-.02a.79.79 0 0 0-.19-.08 2.79 2.79 0 0 0-1.1-.1c-.04 0-.09.01-.13.03-.03.01-.03.02 0 .02.5-.02.98.07 1.44.27a.23.23 0 0 0 0 .12 6.36 6.36 0 0 1-.34-.08 2.13 2.13 0 0 0-.35-.07 3.66 3.66 0 0 0-.75.02l.57.05c.3.04.58.12.85.24-.01.05-.01.1 0 .14a2.5 2.5 0 0 0-1.36-.14c-.07.01-.07.02 0 .02.46 0 .9.07 1.32.24.02 0 .03.02.03.04v.08c0 .02-.01.03-.03.02a2.57 2.57 0 0 0-.98-.14 7.56 7.56 0 0 1-.36.01v.01l.01.01c.53.02.99.11 1.37.27.01 0 .02.01.02.03v.1h-.01a3.18 3.18 0 0 0-.65-.14 2.31 2.31 0 0 0-.65 0c-.1.03-.1.04 0 .04a123.15 123.15 0 0 1 .58.05l.29.06.04.01.27.1.17.05c.01 0 .03.02.05.06l.02.05v.02c0 .02-.01.02-.03.02a8.15 8.15 0 0 1-.38-.11c-.1-.03-.2-.04-.27-.05a3.4 3.4 0 0 0-.82.01c.3.02.57.05.8.1a3.52 3.52 0 0 1 .79.27l.04.06.06.16v.02a2 2 0 0 0-.98-.3 6.12 6.12 0 0 0-1.95.17l-.72.17c-.01-.05-.05-.06-.1-.03a6.08 6.08 0 0 1-.45.43.58.58 0 0 1-.15.08l-.08.04a.72.72 0 0 1-.2.08 2.8 2.8 0 0 1-.42.06c-.05 0-.13 0-.24-.02a.92.92 0 0 0-.33.02.55.55 0 0 0-.27.04l-1 .37a15.34 15.34 0 0 1-2.65.7c-.7.1-1.26.14-1.66.1a6.83 6.83 0 0 1-.82-.11c-.26-.05-.5-.15-.74-.28.35.05.66.08.92.07.17 0 .17-.01 0-.04h-.01a12.9 12.9 0 0 1-.85-.18l-.44-.14c-.05-.02-.1-.07-.14-.16.43.12.75.2.98.22.2.02.38.02.55 0 .07-.01.07-.02 0-.03a5.33 5.33 0 0 1-1.67-.46l-.04-.1.06.01a4.88 4.88 0 0 0 1.2.3 5.04 5.04 0 0 0 .48-.02.05.05 0 0 0-.04-.02 4.28 4.28 0 0 1-1.68-.47.06.06 0 0 1-.03-.05v-.02l.01-.01h.02c.26.1.49.17.68.21a3.45 3.45 0 0 0 .96.09c.04-.02.03-.03 0-.03a4.3 4.3 0 0 1-1.62-.47l-.02-.06h.05l.42.13a3.24 3.24 0 0 0 1.17.12c-.61-.08-1.12-.21-1.52-.41a.05.05 0 0 1-.03-.05v-.04c0-.02 0-.02.02-.02l.43.14a3.97 3.97 0 0 0 1.1.11v-.02l-.01-.01a4.77 4.77 0 0 1-1.48-.38.04.04 0 0 1-.02-.04v-.09a3.5 3.5 0 0 0 1.5.25v-.02h-.01a4.94 4.94 0 0 1-1.45-.4v-.05c0-.01 0-.02.02-.02h.02c.25.08.49.13.7.17a3.3 3.3 0 0 0 .74.02v-.01h-.01a4.57 4.57 0 0 1-1.42-.34c-.02-.01-.04-.03-.03-.06V9.7l.03-.01.54.15a2.9 2.9 0 0 0 .86.05v-.01c0-.01 0-.02-.02-.02a4.5 4.5 0 0 1-1.45-.36v-.07c0-.03 0-.05.02-.04.37.13.76.2 1.18.23.09 0 .18 0 .28-.02v-.02l-.02-.01a4.4 4.4 0 0 1-1.34-.3.42.42 0 0 1-.18-.12v-.05l.03-.01c.25.08.46.13.65.17a3.56 3.56 0 0 0 .8.05c.08 0 .08-.02 0-.03a5.02 5.02 0 0 1-1.55-.4l-.02-.06c0-.04 0-.06.02-.05.35.13.72.22 1.12.26h.42c.1-.02.1-.03 0-.04a4.21 4.21 0 0 1-1.64-.45l-.04-.1c0-.02.02-.02.06 0 .01.02.03.02.05.03.29.1.55.18.77.22a3.18 3.18 0 0 0 .83.04v-.02c-.12 0-.24-.02-.38-.04a9.21 9.21 0 0 1-.47-.1c-.3-.07-.61-.2-.94-.39a.64.64 0 0 1-.08-.22c0-.02 0-.02.02-.01a4.4 4.4 0 0 0 1.95.53 9.64 9.64 0 0 0 2.83-.27c.62-.14 1.24-.32 1.86-.54.04-.02.08-.02.11 0l.15.08h.12c.03 0 .06-.03.1-.06a.76.76 0 0 1 .08-.04.23.23 0 0 1 .08-.03c.09 0 .19-.03.29-.06h.04a.3.3 0 0 0 .31-.05c.11-.1.2-.22.26-.35 0-.02.02-.03.03-.04l.3-.15c.66-.24 1.33-.46 2-.64a10 10 0 0 1 1.15-.23c.3-.04.59-.05.87-.03.34.02.64.13.9.34Z" fill="#DE0514"/><path d="M3.26 6.57a3.71 3.71 0 0 1-.6-.17 13.65 13.65 0 0 0-.1-.28 3.84 3.84 0 0 0 1.93.25l.27.01c.12.01.21.04.28.1.06.06.1.14.1.26.01.04 0 .05-.02 0a.4.4 0 0 0-.13-.13.35.35 0 0 0-.19-.05c-.15 0-.31 0-.48.03-.34.06-.7.05-1.06-.02ZM10.62 6.32c.11 0 .2-.04.2-.06 0-.03-.1-.04-.2-.03-.12 0-.22.04-.21.06 0 .03.1.04.21.03ZM6.7 6.4l.18-.15.02-.01.03.01.08.09v.05l-.13.1a.04.04 0 0 1-.04 0l-.12-.04a.03.03 0 0 1-.02-.02v-.04Z" fill="#C8B04C"/><path d="m15.58 6.42.22.25c.03.05.06.1.06.17a2.2 2.2 0 0 0-.73-.38 5.06 5.06 0 0 0-1.17-.15v-.02a2.76 2.76 0 0 1 1.63.2c.02-.01.02-.02.01-.03a.06.06 0 0 1-.02-.04Z" fill="#F79255"/><path d="m7.11 6.46.08.08.02.03-.01.04-.04.04a.05.05 0 0 1-.06.02l-.14-.05a.05.05 0 0 1-.03-.04c0-.02 0-.04.02-.05l.09-.07.04-.01.03.01ZM6.48 6.73l.13-.19a.07.07 0 0 1 .05-.03h.05l.08.05a.07.07 0 0 1 .03.1l-.1.14a.07.07 0 0 1-.05.03h-.13a.07.07 0 0 1-.06-.03.06.06 0 0 1 0-.07Z" fill="#C8B04C"/><path d="M15.87 6.87c.03.1.05.17.04.2a5.96 5.96 0 0 1-.06.36c0-.02 0-.05-.02-.06a2.4 2.4 0 0 0-.7-.33 3.93 3.93 0 0 0-1.15-.15v-.02c.32-.06.64-.06.97 0a3.32 3.32 0 0 1 .93.3h.01v-.03a2.37 2.37 0 0 0-.87-.42 3.6 3.6 0 0 0-.98-.12c-.11 0-.12 0 0-.03.28-.05.57-.05.89 0a4 4 0 0 1 .94.32v-.02Z" fill="#F79255"/><path d="M5.08 7.1c-.23.24-.52.35-.86.35-.2 0-.37-.01-.54-.04-.25-.05-.5-.12-.76-.2l-.03-.03a.55.55 0 0 0-.05-.19l-.12-.38c0-.02 0-.02.02-.02.34.1.6.14.77.16a3.11 3.11 0 0 0 1.13-.07.6.6 0 0 1 .2 0c.08.02.13.04.18.08.05.03.08.08.1.14 0 .06 0 .13-.04.2Z" fill="#DE0514"/><path d="m6.91 6.67.09.01.08.04c.02.02.03.04.03.07 0 .03-.03.05-.06.06l-.2.1a.04.04 0 0 1-.06-.01.05.05 0 0 1 0-.04.51.51 0 0 1 .1-.21l.02-.02ZM6.39 7.03l.07-.13a.05.05 0 0 1 .06-.02l.15.03c.02 0 .03.02.03.04s0 .04-.02.05l-.1.07h-.01l-.12.03c-.02 0-.04 0-.06-.02a.05.05 0 0 1 0-.05ZM7.06 6.93l.1.02.03.03.01.04-.02.08c0 .02-.01.03-.03.04a.06.06 0 0 1-.04 0l-.2-.01-.04-.02a.06.06 0 0 1-.02-.07L6.88 7l.14-.07h.04ZM7.44 6.98v.15l-.01.03-.03.02-.11.01c-.02 0-.04 0-.05-.02a.05.05 0 0 1 0-.04L7.25 7c0-.02.02-.03.03-.03l.08-.03h.05l.02.04ZM5.07 7.1a.42.42 0 0 1-.08.24.86.86 0 0 1-.53.26c-.33.06-.65.05-.97-.02l-.7-.18a1.9 1.9 0 0 0-.72-.03c-.02 0-.02.01-.03.02l.01.04a.33.33 0 0 0 .17.07h.3-.17c-.09 0-.1.03-.02.06.47.22.95.36 1.44.43.34.04.7.06 1.08.06.02 0 .05-.02.06-.05 0 .03.02.04.04.04a10.26 10.26 0 0 0 2.1-.31c.2-.01.41-.05.63-.13.05-.02.09 0 .13.02l.13.08c.03.01.03.02 0 .03-.69.22-1.38.38-2.1.48-.51.08-1.1.1-1.75.07a5.3 5.3 0 0 1-1.98-.56c-.03-.02-.06-.07-.08-.14A1.27 1.27 0 0 1 2 7.34c0-.08.03-.14.1-.16.22-.06.45-.05.7.02.05.02.07 0 .06-.05l-.02-.16c.03.06.05.12.05.19a6.58 6.58 0 0 0 .79.23c.17.03.35.05.54.04.34 0 .62-.11.85-.34ZM6.75 7.25l-.01.01a.23.23 0 0 1-.03.04.08.08 0 0 1-.04.01c-.06.01-.12 0-.18-.01a.04.04 0 0 1-.03-.02v-.04c.02 0 .03-.02.04-.04a.5.5 0 0 1 .1-.08.18.18 0 0 1 .13-.03c.02 0 .04.02.05.04.01.02.01.05 0 .07 0 .02-.02.03-.03.05Z" fill="#C8B04C"/><path d="M15.85 7.45a3.78 3.78 0 0 1-.07.43h-.02a1.68 1.68 0 0 0-.31-.17c-.44-.17-.9-.25-1.39-.24-.02 0-.02 0 0-.02a.16.16 0 0 1 .07-.03c.34-.05.7-.03 1.04.06a3.54 3.54 0 0 1 .61.21l.02-.01v-.01c.01-.03 0-.04-.01-.06a2.75 2.75 0 0 0-.85-.34 3.63 3.63 0 0 0-.92-.1v-.02c.35-.06.66-.06.95 0 .27.05.56.15.88.3Z" fill="#F79255"/><path d="m6.88 7.2.2.02c.02 0 .03.01.04.03v.04l-.06.1c0 .03-.03.04-.05.03l-.22-.03a.05.05 0 0 1-.04-.03v-.05l.08-.1a.05.05 0 0 1 .05-.02ZM7.22 7.27l.22-.04h.03l.02.03.02.08v.03l-.02.02-.3.08h-.04a.03.03 0 0 1-.01-.05l.05-.13c0-.01.01-.02.03-.02Z" fill="#C8B04C"/><path d="M4.97 7.69a.38.38 0 0 0-.04.23L4.91 8c-.01.03-.04.05-.06.05-.38 0-.74-.02-1.08-.06-.5-.07-.97-.21-1.44-.43-.07-.03-.07-.05.02-.05l.17-.01a6.47 6.47 0 0 1 .8.2h.01a.3.3 0 0 1 .08 0c.21.06.43.1.65.1.05 0 .1 0 .18-.02l.1-.01.14-.03h.02l.26-.1c.09-.05.17-.1.23-.17.03-.04.05-.03.03.02l-.05.2Z" fill="#DE0514"/><path d="M12.44 7.7v.03c0 .07 0 .14-.02.2v-.14c-.1-.2-.28-.28-.56-.24l-.03.02a.13.13 0 0 0-.01.09l-.01.14-.01.45.01.01c.27 0 .47-.12.61-.33a.53.53 0 0 0 .02-.2v-.02Zm-1.4.34-.01-.08a.2.2 0 0 0-.01-.1H11l-.01.02-.02.02c-.1.07-.2.15-.28.25v.03h-.01c-.04 0-.06-.03-.06-.07 0-.06-.03-.1-.1-.14l-.01-.01v-.02c.42-.5.94-.8 1.57-.86.22-.03.42 0 .6.06a.75.75 0 0 1 .42.37c.04.12.05.25.04.37l-.11.19a.27.27 0 0 1-.1.1 5.67 5.67 0 0 1-.18.13h.01a1.6 1.6 0 0 1 .45.17c.25.16.35.39.32.67l-.13.26-.01.01c-.2.16-.43.25-.67.29a14.53 14.53 0 0 0-2.11.45l-.01-.02v-.18l.28-.17c.08-.05.13-.16.13-.32l.02-1.22.01-.2Z" fill="url(#aar2kzlcd)"/><path d="M12.42 7.79a.74.74 0 0 0-.6-.13l.01-.09.03-.02c.28-.04.47.03.56.24ZM15.75 7.96l-.04.18-.02.01v-.03a3.4 3.4 0 0 0-1.62-.39v-.01c.46-.08.88-.04 1.27.1.07.01.2.06.41.14Z" fill="#F79255"/><path d="M13.14 7.88c.08.14.08.3.02.46v.03c.04.04.06.07.05.1a1.6 1.6 0 0 0-.44-.17h-.02c-.03 0-.03 0 0-.02l.19-.11a.27.27 0 0 0 .1-.1l.1-.2ZM11.03 7.96l.01.08v.2a.29.29 0 0 0-.12.04.15.15 0 0 0-.06.05c-.02.05-.06.06-.11.04l-.02-.03c.02-.1.04-.15.08-.17a3.8 3.8 0 0 0 .15-.13c.02-.06.04-.09.07-.08Z" fill="#570137"/><path d="M15.7 8.19c0 .08-.02.14-.05.18-.49-.24-1-.35-1.55-.33-.02 0-.02 0 0-.02 0-.01 0-.02.02-.02.49-.08 1-.01 1.53.2h.03l.02-.01ZM2.21 8.2a3.35 3.35 0 0 0 1.05.4 9.2 9.2 0 0 0 .73.15c-.27.01-.54 0-.8-.05a5.22 5.22 0 0 1-.89-.24.8.8 0 0 1-.09-.27Z" fill="#F79255"/><path d="M9.34 8.52v.04h.02l.01.01c.04.05.08.11.1.19a.12.12 0 0 1-.05-.06c-.06-.13-.18-.2-.33-.2-.17 0-.3.07-.39.2a.97.97 0 0 0-.23.36 1.3 1.3 0 0 0-.06.83c0 .07.02.16.07.26.05.09.11.15.2.2a.4.4 0 0 0 .27.03.65.65 0 0 0 .34-.18c.09-.09.16-.2.2-.33a1.44 1.44 0 0 0-.12-1.3l-.02-.01-.01-.02v-.02Zm-1.63.71a2.32 2.32 0 0 1 .67-.88 1.95 1.95 0 0 1 1.02-.4c.3-.03.55.07.76.3.16.2.24.46.22.77 0 .2-.05.42-.15.64a2.5 2.5 0 0 1-.4.62v.04l.3.14c.2.08.44.12.74.14.26 0 .5-.04.7-.15l.22-.12a.52.52 0 0 0 .14-.12.38.38 0 0 1 .13-.05l.08.07.02.03c0 .04-.02.07-.05.1l-.01.03a.3.3 0 0 1-.03.1l-.16.2a.12.12 0 0 1-.06.05.07.07 0 0 0-.03.02 4.14 4.14 0 0 0-.34.21h-.04c-.12.06-.23.1-.33.1a2.78 2.78 0 0 1-.86-.02l-.1-.01a10.43 10.43 0 0 1-.88-.31h-.1c-.2.09-.37.13-.53.15-.18.02-.36 0-.54-.07a18.05 18.05 0 0 0-.34-.21c-.09-.16-.14-.3-.17-.46-.05-.31-.01-.62.12-.91Z" fill="url(#bar2kzlcd)"/><path d="m15.64 8.46-.08.42a3.29 3.29 0 0 0-1.44-.29 2.79 2.79 0 0 1 1.24.07l.18.08h.02l.01-.1-.01-.03a2.29 2.29 0 0 0-.46-.17 4.68 4.68 0 0 0-1-.15c.51-.08 1-.02 1.48.17h.06ZM9.42 8.7a.62.62 0 0 0-.3-.1.54.54 0 0 0-.21.03 4.3 4.3 0 0 1-.2.07c.08-.13.21-.2.38-.2.15 0 .27.07.33.2ZM2.34 8.55c.54.27 1.08.42 1.64.45.1.01.1.02 0 .03a1.7 1.7 0 0 1-.42 0c-.4-.03-.77-.12-1.11-.25-.02 0-.03 0-.02.05a.85.85 0 0 1-.09-.28ZM12.73 8.93c-.14-.1-.23-.16-.28-.17-.09-.03-.2-.04-.33-.03l-.33.03v-.08l.03-.02c.22-.06.43-.07.65-.01l.02.01c0 .02.02.02.03.03.1.03.17.11.21.24Z" fill="#F79255"/><path d="M8.4 9.9a1.3 1.3 0 0 1 .1-.93c.05 0 .08 0 .1-.03l.05-.06c.1-.09.23-.14.36-.18h.14l.14.04c.02 0 .03.01.03.03v.01l-.03.01c-.31.02-.53.14-.66.36-.1.18-.18.43-.22.74Z" fill="#570137"/><path d="M12.73 8.93c.02.15-.06.27-.24.37-.19.1-.4.13-.63.11l-.03-.01-.03-.03h.03v-.02a2.85 2.85 0 0 1 .05-.35l.04-.01.29-.03c.11 0 .2 0 .29.03h.03a.04.04 0 0 0 .01-.05l-.03-.03a.6.6 0 0 0-.42-.08c-.08.01-.17.02-.27 0h-.03v-.07l.33-.03c.13-.01.24 0 .33.03.05.01.14.07.28.17Z" fill="#DE0514"/><path d="M11.79 8.74v.08l.03.02h.27a.6.6 0 0 1 .42.07c.02 0 .03.02.03.03v.04c-.02.01-.03.02-.04.01a.86.86 0 0 0-.3-.03 2.76 2.76 0 0 0-.32.04l-.01.03a2.85 2.85 0 0 0-.04.34h-.03a.1.1 0 0 1-.03-.06c0-.18 0-.37.02-.57Z" fill="#570137"/><path d="m15.56 9-.02.16c-.27-.12-.55-.2-.85-.24a5.63 5.63 0 0 0-.57-.05c.26-.04.5-.04.75-.02.1 0 .21.03.35.07l.34.08ZM2.44 8.88A4 4 0 0 0 4 9.3c.07.01.07.02 0 .03l-.15.02a5.74 5.74 0 0 1-1.34-.22v.04l-.07-.28Z" fill="#F79255"/><path d="M10.38 9.02v.02c0 .02.01.02.03 0h.01c.01 0 .02 0 .02.02a1.8 1.8 0 0 1-.21 1.06 1.1 1.1 0 0 0-.13.23v.08c0 .02.02.02.03.02.01 0 .02 0 0 0v.01l-.3-.14v-.04l.02-.02a2.5 2.5 0 0 0 .38-.6c.1-.22.15-.44.15-.64ZM7.48 11a.27.27 0 0 1-.18-.02.13.13 0 0 1-.07-.07 88.43 88.43 0 0 1-.02-1.74c.07.03.15 0 .26-.08a.06.06 0 0 1 .05-.01c.02 0 .04.02.04.04s0 .05-.03.09a.28.28 0 0 1-.07.06c-.13.08-.2.18-.2.31a756.75 756.75 0 0 1 .01 1.22c0 .05.03.1.07.13.04.03.09.05.14.06Z" fill="#570137"/><path d="M7.21 10.8V9.17c.05-.1.1-.15.17-.17.02 0 .03-.01.04-.03a.3.3 0 0 1 .09-.1.05.05 0 0 0 .02-.05l-.01-.16-.01-.03h-.03a16.86 16.86 0 0 1-1.44.43l.01.21c.12 0 .22 0 .31.06.04.02.06.05.05.08l.02.51c0 .02 0 .02-.02.03a35.5 35.5 0 0 1-.9.18c-.02 0-.03-.01-.03-.03l.01-.5a.19.19 0 0 1 .06-.09c.03 0 .03-.01 0 0 .06-.06.11-.11.18-.15l.05-.03.02-.03V9.1l-.02-.02h-.03c-.31.05-.6.07-.84.07a18.1 18.1 0 0 0-.6.02c-.02.1 0 .18.06.26.09 0 .16.03.2.1.06.05.1.11.13.2l.22-.06a35.94 35.94 0 0 1 .43-.15.5.5 0 0 0 .14-.08h.04l.02.02-.02-.02h-.04a.5.5 0 0 1-.14.08 5.19 5.19 0 0 1-.65.2l.02.17a387.51 387.51 0 0 1-.03 1.55c0 .02-.01.03-.03.03-.08 0-.16 0-.24.02H4.4v.02l.03.23c.45.02.9 0 1.35-.04.08-.01.1-.1.06-.24l-.01-.03H5.8c-.15.02-.24-.01-.3-.1v-.6a.3.3 0 0 1 0-.1v-.05l.03-.03a.85.85 0 0 1 .1-.02l.77-.16c.02-.01.04.01.03.07.02.2.02.4 0 .61 0 .08-.03.15-.09.2a.8.8 0 0 1-.2.11.03.03 0 0 0-.01.03.47.47 0 0 0 .01.23c.46-.1.92-.24 1.38-.38.06-.01.08-.09.07-.24 0-.01 0-.02-.02-.02h-.08a.27.27 0 0 1-.2-.01.13.13 0 0 1-.06-.07.31.31 0 0 1-.02-.1Z" fill="url(#car2kzlcd)"/><path d="M15.54 9.3c0 .24.03.49.12.73l-.01.05c-.02-.04-.04-.05-.05-.06l-.17-.06a2.33 2.33 0 0 0-.6-.16l-.3-.04h-.28c-.11-.01-.11-.02 0-.04.2-.04.42-.04.65-.01.21.02.43.07.65.15.01 0 .02 0 .02-.02v-.09a4.01 4.01 0 0 0-1.4-.3v-.02l.35-.01c.3-.02.63.03.97.14.03 0 .04 0 .04-.02v-.08c0-.02-.01-.03-.03-.04a3.49 3.49 0 0 0-1.32-.24c-.07 0-.07 0 0-.02a2.5 2.5 0 0 1 1.36.14Z" fill="#F79255"/><path d="M13.53 9.14a.4.4 0 0 1 .08.23c0 .2-.08.35-.23.46-.07.05-.14.1-.23.13a1.61 1.61 0 0 1-.45.1 5.22 5.22 0 0 0-.5.08l-.14.02a.38.38 0 0 0-.13.05c-.34.05-.68.13-1 .24a.3.3 0 0 1-.13.01c-.01 0-.02 0-.03-.02a.07.07 0 0 1-.01-.05c0-.01 0-.02.02-.03l.2-.08a43.21 43.21 0 0 1 .99-.24l.29-.03.1-.02a.24.24 0 0 1 .12-.02h.03a.24.24 0 0 1 .1-.03h.08l.23-.08c.16-.06.3-.14.42-.27.02-.02.04-.09.06-.2l.13-.25Z" fill="#570137"/><path d="M2.51 9.16c.03.05.1.08.18.12a4.4 4.4 0 0 0 1.37.31l-.01.02c-.1.02-.2.02-.28.02A4.1 4.1 0 0 1 2.6 9.4c-.02 0-.03 0-.04.04l-.05-.28ZM6.05 9.27c.12 0 .22 0 .31.06.04.02.06.05.05.08-.22 0-.34-.05-.36-.14ZM5.73 9.36c0 .1-.06.15-.17.14.05-.05.1-.1.17-.14ZM13.39 9.41l-.03.04c-.16.19-.37.3-.63.35a13.06 13.06 0 0 1-.83.14l-.4.1-.77.2a.1.1 0 0 1-.08 0 .1.1 0 0 1-.05-.06.5.5 0 0 1 0-.23V10.15h.04c.1 0 .2-.03.3-.07a4 4 0 0 1 .58-.15 14.54 14.54 0 0 1 1.2-.23c.24-.04.46-.13.67-.29ZM2.57 9.51a4.5 4.5 0 0 0 1.47.38v.01c-.3.03-.58 0-.86-.05a5.55 5.55 0 0 1-.57-.14v.06c0 .03 0 .05.03.06a4.57 4.57 0 0 0 1.43.34c0 .02 0 .03-.02.03-.24.01-.48 0-.72-.04a4.97 4.97 0 0 1-.73-.17v.07l.01.04a4.94 4.94 0 0 0 1.44.37l-.01.01a3.5 3.5 0 0 1-1.5-.25l.02-.12a7.77 7.77 0 0 0 0-.6Z" fill="#F79255"/><path d="M5.54 10.12H5.5c-.01 0-.02 0-.02-.02l.01-.5c.01.03.02.04.04.05l.04-.02a.86.86 0 0 1 .21-.09c.02 0 .03 0 .04.02.03.06 0 .1-.06.14-.17.09-.24.23-.22.42Z" fill="#570137"/><path d="m15.68 10.13.1.2.02.12-.04-.06a5.37 5.37 0 0 0-1.59-.39 3.4 3.4 0 0 1 1.5.15v-.02ZM2.54 10.23v.1l.03.03.23.1a4.77 4.77 0 0 0 1.27.3v.01l-.01.01a3.97 3.97 0 0 1-1.53-.26c-.02 0-.02 0-.02.02v.04c0 .02 0 .03.03.05a4.44 4.44 0 0 0 1.51.4v.01l-.01.02c-.4.02-.78-.03-1.15-.14a77.5 77.5 0 0 1-.47-.13l.12-.56ZM6.43 10.45a4.75 4.75 0 0 1-.94.19v-.05l.04-.03a.83.83 0 0 1 .1-.02l.77-.16c.02-.01.04.01.03.07Z" fill="#F79255"/><path d="m15.16 11.55-.02-.02-.03-.01-.16-.01c-.29-.02-.5-.02-.65-.02-.24 0-.46.01-.65.05-.16.02-.3.06-.43.12a1.2 1.2 0 0 0-.38.23.88.88 0 0 0-.15.2c.03-.27.2-.46.49-.6.36-.15.73-.22 1.13-.2l.83.03a2 2 0 0 0 .42-.03.97.97 0 0 0 .38-.13c.02-.02.02-.03 0-.05l-.18-.1c-.22-.1-.43-.15-.62-.17-.4-.04-.82-.04-1.25.02-.38.04-.73.1-1.05.18-.03 0-.05.03-.06.06v-.02a33.8 33.8 0 0 0-3.13.92c-.66.24-1.3.45-1.94.62-.48.13-.94.22-1.37.28-.48.07-.95.1-1.4.1-.38 0-.77-.05-1.15-.15-.3-.08-.55-.19-.78-.33a1.66 1.66 0 0 1-.56-.58 1.05 1.05 0 0 1-.14-.62h.02l.01.02c0 .1.02.2.06.28.12.29.33.52.63.7.26.16.57.27.93.33.59.1 1.25.12 1.99.03 1.03-.13 2.15-.41 3.35-.86a44.64 44.64 0 0 1 1.15-.43c.19.03.37.04.56.03a1.37 1.37 0 0 0 1.04-.5 13.9 13.9 0 0 1 1.59-.32 6.17 6.17 0 0 1 1.5-.02c.29.03.53.1.75.24.03.02.05.05.07.1a1.1 1.1 0 0 1 .03.2c.03.12 0 .2-.08.26a.72.72 0 0 1-.32.12 3.05 3.05 0 0 1-.39.02c-.02 0-.03.01-.04.03Z" fill="#C8B04C"/><path d="M5.5 11.34v-.6l.18-.02c.23-.03.46-.07.69-.14l.05.01c.02.01.02.03.02.05a1.42 1.42 0 0 0-.02.09l-.24.03a2.9 2.9 0 0 1-.61.12v.28l-.02.01c0 .07 0 .12-.05.17Z" fill="#570137"/><path d="M7.75 10.6a20.42 20.42 0 0 1 .35.2c.18.07.36.1.54.08.16-.02.33-.06.54-.15a.15.15 0 0 1 .1 0 .5.5 0 0 1 .08.03l.06.03a10.45 10.45 0 0 0 .83.26 2.78 2.78 0 0 0 .87.03c.09-.02.2-.05.32-.1h.04l.03-.02a4.14 4.14 0 0 1 .3-.2l.04-.02.06-.05-.02.05a1.45 1.45 0 0 1-1.22.47 4.1 4.1 0 0 0-.17-.02 7.85 7.85 0 0 1-1.29-.36.32.32 0 0 0-.11.03c-.17.07-.33.12-.48.13-.16.02-.32 0-.49-.05a.63.63 0 0 1-.38-.35Z" fill="#F79255"/><path d="m12.22 10.67-.17.25a1.37 1.37 0 0 1-1.04.5 2.75 2.75 0 0 1-.77-.1.92.92 0 0 1 .34 0c.1 0 .18.02.23.01.15-.01.29-.03.43-.06a.72.72 0 0 0 .19-.08l.08-.04a.58.58 0 0 0 .14-.08 6.08 6.08 0 0 0 .46-.43c.05-.03.09-.02.1.03Z" fill="#570137"/><path d="m2.42 10.8.02.05a4.3 4.3 0 0 0 1.62.47c.04 0 .04.01 0 .03h-.05c-.32.01-.62-.02-.9-.09a5.91 5.91 0 0 1-.72-.2v.02c0 .02.01.04.03.05l.28.14a4.28 4.28 0 0 0 1.4.33c.02 0 .03 0 .04.02.02.02.01.03-.01.02a3.65 3.65 0 0 0-.48 0l-.2-.02a4.9 4.9 0 0 1-1.05-.28.91.91 0 0 1 .02-.55Z" fill="#F79255"/><path d="M15.75 11.01c-.14.05-.31.08-.5.1a5.95 5.95 0 0 1-.82-.02l-.3.01c-.3.03-.52.07-.7.12a1.4 1.4 0 0 0-.59.32.9.9 0 0 0-.13.18c-.02.02-.02.01-.02 0 0-.21.03-.42.09-.62 0-.04.02-.06.05-.06.33-.08.68-.14 1.06-.18.43-.06.85-.06 1.25-.02.2.02.4.08.61.17Z" fill="#DE0514"/><path d="M8.81 11.07c.12-.03.22-.07.3-.12.06-.03.1-.03.15 0l.04.03c.04.02.04.04 0 .06-.2.08-.36.13-.51.16-.18.02-.35.01-.52-.04-.02 0-.03-.02-.04-.05v-.01l.01-.02h.02c.18.04.37.04.55-.01Z" fill="#570137"/><path d="M7.52 11.25c0 .07-.01.1-.04.12-.5.15-.9.26-1.24.34-.05.01-.08-.02-.1-.08.46-.1.92-.24 1.38-.38Z" fill="#F79255"/><path d="M6.32 11.8a52.88 52.88 0 0 0 1.26-.38h.04l.02.03v.08a.1.1 0 0 1-.06.05 11.7 11.7 0 0 1-1.25.34c-.06-.02-.08-.05-.04-.1l.03-.02Z" fill="#570137"/><path d="M2.44 11.43a4.15 4.15 0 0 0 1.67.46c.07 0 .07.02 0 .03-.17.02-.36.02-.55 0-.23-.02-.55-.1-.98-.22-.06-.03-.1-.12-.14-.27Z" fill="#F79255"/><path d="m15.16 11.55.03.65-.01.02h-.02a1.35 1.35 0 0 0-.45-.15 5.05 5.05 0 0 0-.54-.05c-.12 0-.26.03-.42.06a9.77 9.77 0 0 0-.47.12c-.09.03-.17.04-.25.04-.1 0-.18 0-.25-.04-.03-.01-.06-.05-.09-.11l.15-.2c.1-.1.22-.17.37-.23.14-.06.28-.1.44-.12.2-.04.41-.05.65-.05.14 0 .36 0 .65.02h.16l.03.02.02.02Z" fill="#DE0514"/><path d="M5.78 11.71c.02.07 0 .1-.04.1a9.5 9.5 0 0 1-1.26.04c-.04 0-.05-.03-.05-.1.45.02.9 0 1.35-.04Z" fill="#F79255"/><path d="m5.46 11.94.36-.07c.04-.01.07 0 .1.04v.02c0 .05-.02.08-.07.1a2.4 2.4 0 0 1-.4.05 8.06 8.06 0 0 1-.85 0c-.04 0-.05-.03-.04-.06 0-.04.02-.05.05-.05H4.91a2.37 2.37 0 0 0 .32-.01l.23-.02Z" fill="#570137"/><path d="M2.72 11.86a15.68 15.68 0 0 0 .87.25l.42.07h.01c.17.03.17.04 0 .04-.26 0-.57-.02-.92-.07-.04-.01-.1-.05-.2-.12a.5.5 0 0 1-.18-.17Z" fill="#F79255"/><path d="M12.78 12.26c.07.09.19.13.34.11.15 0 .34-.05.58-.12a2.05 2.05 0 0 1 1.43.12c.04.03.07.07.08.11l.02.18c.01.05 0 .05-.04.02a1.23 1.23 0 0 0-.65-.24 2.03 2.03 0 0 0-.7.03c-.23.06-.46.1-.69.13a.34.34 0 0 1-.27-.08.48.48 0 0 1-.14-.24c-.02-.07 0-.07.04-.02Z" fill="#C8B04C"/><defs><linearGradient id="aar2kzlcd" x1="11.11" y1="7.62" x2="11.95" y2="10.18" gradientUnits="userSpaceOnUse"><stop stop-color="#F5E3C5"/><stop offset=".6" stop-color="#fff"/></linearGradient><linearGradient id="bar2kzlcd" x1="8.88" y1="8.34" x2="9.79" y2="11.12" gradientUnits="userSpaceOnUse"><stop stop-color="#F4E3C5"/><stop offset=".36" stop-color="#fff"/></linearGradient><linearGradient id="car2kzlcd" x1="5.11" y1="9.39" x2="5.89" y2="11.78" gradientUnits="userSpaceOnUse"><stop stop-color="#F4E3C5"/><stop offset=".35" stop-color="#fff"/></linearGradient></defs></svg>