<!-- by TradingView --><svg width="18" height="18" viewBox="0 0 18 18" xmlns="http://www.w3.org/2000/svg"><path fill="#F0F3FA" d="M0 0h18v18H0z"/><path d="M9.62 5.15c.12-.2.19-.38-.08-.49a.8.8 0 0 0-.37-.03L9 4.64a.04.04 0 0 1-.02-.01.03.03 0 0 1-.01-.03.56.56 0 0 1 .06-.16c.08-.1.14-.23.2-.35l.01-.02.03-.02c.04-.02.09-.05.14-.05h3.08c.21 0 .38.1.5.3.07.1.07.23 0 .36-.05.12-.12.24-.2.36L8.28 13c-.09.15-.07.28.07.38a.3.3 0 0 0 .2.07 4.76 4.76 0 0 1 .42.02h.01l.01.02c.01.04 0 .07-.02.1-.08.1-.14.21-.2.32a.18.18 0 0 1-.15.1h-3.2c-.2 0-.36-.06-.46-.23-.1-.16 0-.4.09-.55l4.58-8.08Zm-4.42-.3A1.59 1.59 0 0 1 6.55 4h1.7c.03 0 .04.03.03.06L5.19 9.5c-.07.13-.2.36-.06.49.06.06.19.14.28.1l.34-.1c.05-.02.07 0 .07.05l-.01.26c0 .06-.04.11-.1.14a14.57 14.57 0 0 1-.83.34c-.1.05-.2.1-.3.13a.63.63 0 0 1-.42.01.83.83 0 0 1-.47-.37l-.49-.83c-.2-.34-.25-.7-.15-1.07.04-.16.12-.32.22-.48L5.2 4.84Zm7.29 3.04a.29.29 0 0 1 .41.17c.04.1-.02.26-.07.34L9.8 13.82a.27.27 0 0 0-.04.15.04.04 0 0 0 .02.02.04.04 0 0 0 .02.01h1.63c.17 0 .32-.02.44-.05.29-.07.53-.22.73-.46.1-.12.2-.29.28-.43l1.96-3.41c.2-.4.23-.85.04-1.25l-.01-.03-.14-.26-.4-.66a.85.85 0 0 0-.4-.4c-.29-.1-.49-.04-.78.1h-.01a8.4 8.4 0 0 1-.84.37c-.13.05-.1.27-.1.39a3.71 3.71 0 0 1 .03.06.05.05 0 0 0 .04.01c.08-.02.15-.05.23-.09Z" fill="#CF111B"/></svg>