<!-- by TradingView --><svg width="18" height="18" viewBox="0 0 18 18" xmlns="http://www.w3.org/2000/svg"><path fill="#F0F3FA" d="M0 0h18v18H0z"/><path fill-rule="evenodd" d="M9 11c3.87 0 7-.9 7-2s-3.13-2-7-2-7 .9-7 2 3.13 2 7 2ZM5.55 8h-1.8v.49h1.54c-.2.5-.96.92-1.31 1.06l.45.45c1.04-.51 1.47-1.28 1.55-1.6L5.55 8Zm.7.48V8h1.74l.44.37c-.2.5-.7.93-.91 1.08l.15.13-.43.42-.9-.94.44-.38.39.35c.26-.18.46-.44.53-.55H6.25Zm3.17.23.03.43H8.7v.43h.8l.02.43h.74l-.04-.43h.7v-.43h-.74l-.04-.43h.78V8.3h-.82L10.06 8h-.69l.02.29h-.7v.42h.73ZM11.33 8h1.75v.43h-1.75V8Zm3.5.71h-1.16v.43h1.16v-.43ZM11.18 9v-.43h1.78l.43.38c-.46.58-1.17.94-1.47 1.05l-.5-.47c.55-.08.92-.4 1.03-.53h-1.27Z" fill="#008FD0"/></svg>