<!-- by TradingView --><svg width="18" height="18" viewBox="0 0 18 18" xmlns="http://www.w3.org/2000/svg"><path fill="#F0F3FA" d="M0 0h18v18H0z"/><path d="M10.38 3A11.4 11.4 0 0 1 12 8.96c0 2.38-.7 4.5-1.68 6.04l-1.38-1.5a8.1 8.1 0 0 0 1.3-4.54c0-1.58-.39-3.25-1.26-4.47L10.38 3ZM9.32 8.97c0-1.54-.42-2.92-1.08-4l-.95 1c.59.82.86 1.94.86 3 0 1.07-.28 2.2-.89 3.06l.93 1a7.59 7.59 0 0 0 1.13-4.06Zm-2 .01c0-.98-.28-1.86-.7-2.55l-.6.64c.37.52.54 1.24.54 1.91 0 .68-.18 1.4-.56 1.95l.59.64c.42-.66.72-1.57.72-2.59Z" fill="#952456"/></svg>