<!-- by TradingView --><svg width="18" height="18" viewBox="0 0 18 18" xmlns="http://www.w3.org/2000/svg"><path fill="#F0F3FA" d="M0 0h18v18H0z"/><ellipse cx="9" cy="9" rx="7" ry="4" fill="url(#a)"/><ellipse cx="9" cy="9" rx="6.65" ry="3.8" fill="url(#b)"/><path d="M14.24 7.35c0 .49-2.39-.14-5.24-.14s-5.25.9-5.25 0c0-.62 2.4-1.82 5.25-1.82s5.24 1.05 5.24 1.96Z" fill="url(#c)"/><path d="M13.32 11.3c0-.33-1.96.42-4.32.42-2.35 0-4.33-.92-4.33-.34 0 .4 1.97 1.16 4.33 1.16 2.35 0 4.32-.66 4.32-1.25Z" fill="url(#d)"/><path fill-rule="evenodd" d="M9.57 6.02v.06h-.28v.3H9.18v-.66h.4v.07h-.3V6l.27.01ZM7.7 5.9c.03-.01.05-.04.04-.07 0-.03-.04-.05-.07-.04-.03 0-.05.04-.04.07 0 .02.04.04.07.04Zm3.65.58-.27-.04h-.03v-.01l.08-.58-.09-.02-.1.66.4.06.01-.07Zm-2.88.02a.44.44 0 0 0 .28.01c.13-.04.15-.16.15-.28a5.5 5.5 0 0 1-.02-.4H8.8V5.9c0 .02 0 .02-.02 0a.18.18 0 0 0-.13-.06c-.18 0-.27.15-.25.3.02.1.1.18.2.19a.2.2 0 0 0 .2-.08v.1c-.02.07-.06.1-.13.12a.32.32 0 0 1-.19-.03v.02l-.02.04v.01Zm.32-.37a.72.72 0 0 0 0-.11.13.13 0 0 0-.06-.1.14.14 0 0 0-.1-.02c-.09.01-.13.1-.13.18 0 .09.04.16.14.17.04 0 .07 0 .1-.02a.13.13 0 0 0 .05-.1Zm1.22.2h.01v.07l.08.01a10.6 10.6 0 0 1 .02-.48h-.09a16.8 16.8 0 0 1-.02.33c-.03.06-.1.09-.16.07-.07-.01-.09-.07-.08-.14a41.72 41.72 0 0 1 0-.28H9.7c-.02.14-.02.23-.02.29 0 .09.02.17.11.2.1.02.17 0 .23-.06Zm1.53-.3c.04 0 .06-.03.06-.06s-.02-.06-.05-.06c-.04 0-.07.02-.07.05 0 .03.03.06.06.06Zm.25.11v-.03c0-.04.02-.07.05-.1.03-.02.07-.02.13.01l.03-.05v-.01c-.1-.05-.22-.04-.27.05a.27.27 0 0 0-.04.11H11.61l-.02.05a.01.01 0 0 0 .01.01l.06.01-.03.18-.05.22h.01l.08.02h.01l.08-.4.12.02.02-.05-.01-.01-.1-.02-.01-.01Zm-3.83-.12c.05-.07.12-.1.22-.09.08.01.14.09.14.17l.03.3-.1.01-.02-.3c0-.05-.04-.1-.1-.1a.14.14 0 0 0-.15.1v.06a28.28 28.28 0 0 1 .01.26H7.9a32.25 32.25 0 0 0-.03-.47h.08v.06h.01Zm2.6-.06a.2.2 0 0 0-.22.06v-.07h-.09a4.5 4.5 0 0 1-.04.47h.09a55.81 55.81 0 0 0 .04-.32.14.14 0 0 1 .16-.07.1.1 0 0 1 .07.06c.02.02.02.05.02.07a109.44 109.44 0 0 1-.02.3h.08a130.69 130.69 0 0 1 .03-.35.17.17 0 0 0-.12-.15Zm-3.95.39.05.24-.1.02-.06-.3-.34.06v.01l.06.3-.1.02-.02-.12-.08-.4-.03-.13.09-.02.06.26.34-.06-.04-.26v-.01l.08-.02h.01l.08.4Zm1.1.1h.08v-.01l-.04-.46h-.09l.03.41.01.06h.01Zm-.23-.05-.02.07v.01h-.01l-.08.01a.01.01 0 0 1-.01 0l-.1-.2-.15-.24v-.01l.1-.01a22 22 0 0 0 .2.36l.01-.08a37.74 37.74 0 0 0 .09-.32h.09l-.12.4Zm4 .17.03-.15.06-.3V6.1l-.1-.02-.06.34-.02.13.09.02Zm.58.13c.07.02.13.02.18 0v-.05h-.13c-.1-.03-.18-.09-.16-.2v-.01l.36.08c.02-.06.03-.1.02-.15a.18.18 0 0 0-.13-.15c-.1-.03-.22-.01-.29.08a.3.3 0 0 0-.05.22c0 .05.03.1.08.13l.12.05Zm-.03-.4a.2.2 0 0 0-.06.07l.26.06h.01c.01-.07-.01-.12-.06-.15a.15.15 0 0 0-.15.02Zm-4.94-.02.05.23-.01.02h-.08l-.01-.05a.21.21 0 0 1-.15.1c-.09 0-.18-.04-.19-.13 0-.04.01-.08.03-.1.07-.07.15-.1.25-.11v-.02c-.01-.07-.05-.1-.13-.08-.05 0-.09.02-.12.05h-.01l-.03-.04v-.01a.37.37 0 0 1 .2-.07c.06 0 .12.01.15.06.03.03.04.06.04.1l.01.05Zm-.26.07c.05-.03.1-.05.16-.05H7v.03c.01.03.02.06.01.08a.13.13 0 0 1-.15.1c-.04-.02-.06-.04-.06-.08 0-.03 0-.06.03-.08Z" fill="#fff"/><path d="M3.3 8.52v1.6h.2v-.83h1.69v-.17h-1.7v-.55c0-.4.34-.73.76-.73h1.22v-.17h-1.3a.87.87 0 0 0-.87.85Zm2.03-.19v1.24c0 .42.36.76.8.76h.07c.44 0 .8-.34.8-.76V8.33h-.17v1.22c0 .35-.3.63-.66.63a.65.65 0 0 1-.66-.63V8.33h-.18ZM9 8.8v1.63l-.2-.28V8.81c0-.38-.25-.66-.69-.66-.43 0-.78.3-.78.69v1.32h-.2V8.81c0-.45.42-.83.94-.83h.09c.52 0 .84.35.84.8Zm.33 1.54v-1.9c.01-.25.23-.76 1.01-.76.79 0 .99.51 1 .77 0 .1-.02.25-.08.4.15-.1.33-.17.57-.17.52 0 .83.3.92.46l-1.42.94-.1-.13 1.27-.84a.78.78 0 0 0-.63-.28.86.86 0 0 0-.86.87c0 .59.65.83.91.83a.9.9 0 0 0 .82-.85h.16c0 .36-.28 1-.98 1-.86 0-1.09-.65-1.09-.97 0-.12.04-.3.12-.46-.14.09-.34.15-.6.15H9.7v-.16h.64c.26-.02.8-.16.8-.73 0-.53-.56-.7-.83-.68-.26.01-.78.16-.78.68v1.59l-.2.24Zm3.67 0V8.61c0-.32.22-.94 1.02-.94.73 0 .96.64.98.96 0 .35-.2 1.04-.99 1.04a.95.95 0 0 1-.65-.24v-.19c.08.1.32.29.67.29.44 0 .8-.41.8-.88a.85.85 0 0 0-.83-.83c-.38 0-.83.27-.83.89v1.62H13Z" fill="#fff"/><circle cx="4.51" cy="8.5" fill="#FEF102" r=".17"/><circle cx="6.17" cy="9.17" fill="#FEF102" r=".17"/><circle cx="8.17" cy="9.17" fill="#FEF102" r=".17"/><circle cx="10.33" cy="8.5" r=".17" fill="#FEF102"/><circle cx="14" cy="8.67" fill="#FEF102" r=".17"/><defs><linearGradient id="a" x1="2.31" y1="7.92" x2="12.43" y2="13.52" gradientUnits="userSpaceOnUse"><stop stop-color="#F7F7F7"/><stop offset="1" stop-color="#565251"/></linearGradient><linearGradient id="b" x1="9" y1="5.2" x2="9" y2="12.8" gradientUnits="userSpaceOnUse"><stop stop-color="#009FD8"/><stop offset="1" stop-color="#1E2C6B"/></linearGradient><linearGradient id="c" x1="8.89" y1="5.53" x2="8.99" y2="7.23" gradientUnits="userSpaceOnUse"><stop stop-color="#82C7EE"/><stop offset="1" stop-color="#2594C9" stop-opacity="0"/></linearGradient><linearGradient id="d" x1="8.17" y1="13.61" x2="8.09" y2="11.06" gradientUnits="userSpaceOnUse"><stop offset=".51" stop-color="#009FE1"/><stop offset="1" stop-color="#083671"/></linearGradient></defs></svg>