<!-- by TradingView --><svg width="18" height="18" viewBox="0 0 18 18" fill="none" xmlns="http://www.w3.org/2000/svg">
<rect width="18" height="18" fill="#F0F3FA"/>
<path d="M4.25092 8.02307C4.94178 8.02307 5.50183 7.46302 5.50183 6.77216C5.50183 6.08129 4.94178 5.52124 4.25092 5.52124C3.56005 5.52124 3 6.08129 3 6.77216C3 7.46302 3.56005 8.02307 4.25092 8.02307Z" fill="#FF6D00"/>
<path fill-rule="evenodd" clip-rule="evenodd" d="M8.50921 9.85943C8.55996 9.77059 8.62273 9.69261 8.69751 9.6255C8.75305 9.57566 8.82815 9.53065 8.90318 9.48569C8.96599 9.44804 9.02876 9.41043 9.07996 9.37003C9.46657 9.06524 9.69239 8.6729 9.75743 8.19302C9.77508 8.0628 9.78911 7.98146 9.79949 7.949C9.95917 7.45263 10.659 7.25361 11.0132 7.67065C11.6635 8.43587 12.7127 8.70626 13.645 8.30183C14.4341 7.95947 14.9692 7.18708 14.9986 6.32817C15.0376 5.19189 14.2218 4.19313 13.0776 4.02438C11.828 3.83991 10.6627 4.72287 10.5105 5.98116C10.446 6.51342 10.0108 7.00746 9.42444 6.7939C9.29636 6.7473 9.18051 6.66302 9.07448 6.58588C9.00705 6.53682 8.94358 6.49066 8.88348 6.45891C8.38406 6.19498 7.88074 6.16084 7.37354 6.35649C6.37788 6.74056 5.9707 7.92592 6.49296 8.84554C6.68458 9.18285 6.97687 9.42629 7.33654 9.59233C7.58385 9.70657 7.54806 9.9729 7.55877 10.2126V13.2654C7.5589 13.2722 7.565 13.2623 7.55877 13.2654C7.00106 13.5404 6.92137 14.2538 7.34998 14.7126C7.86523 15.2637 8.80169 14.9772 8.92048 14.2366C8.97111 13.9218 8.85875 13.6176 8.62313 13.4021C8.31846 13.2504 8.40055 12.6348 8.48526 12.3587C8.54465 12.1648 8.6535 12.055 8.8383 11.9481C9.2558 11.7064 9.94028 11.4051 10.2512 11.5925C10.8067 12.1217 11.7006 12.079 12.1933 11.4868C12.6801 10.9016 12.5662 10.0315 11.9446 9.58864C11.2201 9.07248 10.2312 9.41407 9.94028 10.2357C9.90315 10.3405 9.87674 10.408 9.86103 10.4384C9.73504 10.6821 9.50954 10.9635 9.21413 10.9823C8.81279 11.0079 8.46773 10.8301 8.40113 10.4165C8.37101 10.2291 8.40704 10.0434 8.50921 9.85943Z" fill="url(#paint0_linear_229_5568)"/>
<defs>
<linearGradient id="paint0_linear_229_5568" x1="10.6323" y1="4" x2="12.0078" y2="14.6627" gradientUnits="userSpaceOnUse">
<stop stop-color="#0193FE"/>
<stop offset="1" stop-color="#0FC8EA"/>
</linearGradient>
</defs>
</svg>
