<!-- by TradingView --><svg width="18" height="18" viewBox="0 0 18 18" xmlns="http://www.w3.org/2000/svg"><path fill="#F0F3FA" d="M0 0h18v18H0z"/><path d="M11.9 8.23c.08-.12.15-.2.23-.25l1.19-.1a.06.06 0 0 0 .05-.05V7.8L13 6.92a.08.08 0 0 1 0-.07.07.07 0 0 1 .07-.04h1.24a.05.05 0 0 0 .05-.04l.34-1.43c.01-.04 0-.06-.05-.05l-2.52.75a.07.07 0 0 0-.05.06l.01.03.22.45c.02.05 0 .08-.05.1l-.78.15-.17-.17.66-.17c.04 0 .05-.03.03-.06l-.26-.45a.06.06 0 0 1 .03-.09l2.9-.85a1.32 1.32 0 0 1 .3-.04.04.04 0 0 1 .03.03v.02l-.46 1.92a.09.09 0 0 1-.08.07h-1.03c-.09 0-.12.04-.08.12l.37.88a.04.04 0 0 1 0 .04l-.02.01h-.01l-1.78.14Z" fill="#029ED2"/><path d="m12.13 7.98-.65-1.15.78-.16c.06-.01.07-.04.05-.1l-.22-.44a.07.07 0 0 1 .02-.08l.02-.01 2.52-.75c.04-.01.06 0 .05.05l-.34 1.43a.05.05 0 0 1-.05.04h-1.24a.07.07 0 0 0-.06.04.08.08 0 0 0-.01.07l.37.88a.06.06 0 0 1 0 .05.06.06 0 0 1-.05.03l-1.2.1Z" fill="#AAE9E2"/><path d="m11.31 6.66.17.17.65 1.15a.66.66 0 0 0-.22.25l-.76 1.03a.14.14 0 0 0-.02.13c.04.11.03.23-.02.34a.2.2 0 0 0-.02.08v1.07c0 .05.02.11.06.16l.5.63c.05.05.07.1.07.17v1.1a.06.06 0 0 1-.02.04.06.06 0 0 1-.04.02H9.7c-.04 0-.06-.02-.07-.05l-.34-1.26a.59.59 0 0 1 0-.28l.32-1.57a.43.43 0 0 0-.08-.34c-.2-.3-.36-.6-.46-.9l-.1-.44-.08-.2a.69.69 0 0 1 .21-.44 5.46 5.46 0 0 0 .47-.5L9.55 7c-.05-.02-.11 0-.2.04l.08-.19.25.06c.03.01.05 0 .07-.02a.87.87 0 0 1 .47-.34c.03 0 .05-.02.07-.04.12-.13.25-.22.4-.29.1-.04.18-.02.23.08l.2.35a.1.1 0 0 0 .08.05c.04 0 .08 0 .11-.04Z" fill="#010102"/><path d="m10.63 6.94-.22-.32a.07.07 0 0 1 .01-.1l.27-.2a.07.07 0 0 1 .1.02l.27.38a.07.07 0 0 1 0 .06.07.07 0 0 1-.03.05l-.32.13a.07.07 0 0 1-.08-.02Z" fill="#CADCDC"/><path d="m11.82 7.77-.03-.02-.51.02a.13.13 0 0 1-.12-.06.14.14 0 0 1-.01-.13l.14-.34-.02-.02h-.02c-.1.12-.21.34-.36.37a.93.93 0 0 1-.51-.03.1.1 0 0 1-.07-.06.11.11 0 0 1 0-.1c.06-.09.13-.16.22-.2a14.35 14.35 0 0 0 .78-.37c.02 0 .04.02.05.04l.59 1.03v.07c-.3.4-.6.81-.89 1.23a.65.65 0 0 0-.06.23c0 .02-.02.03-.04.02-.39-.15-.8-.05-1.21.03-.03 0-.06 0-.08-.03a2.34 2.34 0 0 1-.54-1.09c-.01-.09 0-.1.07-.03.13.15.24.34.46.17l.17-.16a.1.1 0 0 1 .06-.04c.18-.01.3-.1.39-.24a.13.13 0 0 1 .06-.06l.2-.1c.02 0 .03-.01.04-.03l.02-.07a.03.03 0 0 0-.03-.04h-.01l-.14.08a.13.13 0 0 1-.14-.01.13.13 0 0 1-.04-.04l-.39-.68a.1.1 0 0 1 0-.08.5.5 0 0 1 .4-.37c.04 0 .07 0 .08.04l.19.32-.01.04c-.12.08-.21.15-.28.23-.15.19 0 .36.2.41a1.18 1.18 0 0 0 .6 0 .05.05 0 0 1 .03.05v.06c0 .02 0 .03-.02.05l-.17.13a.04.04 0 0 0 0 .06l.02.03a.06.06 0 0 0 .04.02.05.05 0 0 0 .04-.02c.1-.1.2-.17.33-.19a3.86 3.86 0 0 0 .52-.12Z" fill="#CADCDC"/><path d="m9.43 6.85-.07.2c-.62.13-1.05.24-1.29.3-.98.28-1.98.64-2.74 1.24-.2.16-.42.4-.52.64-.2.46-.13.88.2 1.27.3.34.74.57 1.3.7.8.17 1.59.22 2.35.13.06 0 .1-.03.13-.06a.41.41 0 0 0 .06-.16 34.9 34.9 0 0 1 .09-.61.06.06 0 0 0-.04-.02l-2.1-.1h-.01c-.01-.02 0-.03.01-.03a102.72 102.72 0 0 0 2.58-.15.1.1 0 0 1 .06.13 12.03 12.03 0 0 0-.46 1.4l-.03.01c-1.24.14-2.43.2-3.57.2-.73-.01-1.47-.22-1.94-.79a1.8 1.8 0 0 1-.34-1.78c.17-.53.5-.98 1.03-1.36a6.4 6.4 0 0 1 1.69-.88c1.17-.4 2.38-.5 3.61-.28Z" fill="#0C379D"/><path d="m9.8 8.13-.4-.64a.13.13 0 0 1 .02-.16l.16-.16a.12.12 0 0 1 .2.03l.38.72a.13.13 0 0 1-.05.17l-.15.08a.12.12 0 0 1-.16-.04ZM9.32 7.59l.38.6a.1.1 0 0 1-.02.14l-.12.09a.1.1 0 0 1-.13-.01l-.4-.46A.1.1 0 0 1 9 7.83l.14-.24a.1.1 0 0 1 .08-.05.1.1 0 0 1 .09.05Z" fill="#CADCDC"/><path d="m8.88 7.97.08.19-.93.37C8 8.54 8 8.57 8 8.6l.07.47a.1.1 0 0 1-.06.1l-.8.3c-.17.07-.17.09.02.07a34.1 34.1 0 0 0 1.92-.26.06.06 0 0 0 0-.06l-.29-.5a.05.05 0 0 1 .03-.06h.02c.07 0 .12-.02.16-.06.1.3.26.6.46.9l-3.74.47h-.03l-.02-.02c-.06-.1-.05-.16.04-.2a50.4 50.4 0 0 1 2.04-.77v-.05a2.06 2.06 0 0 1-.07-.49c0-.04.02-.07.06-.08l1.08-.4Z" fill="#029ED2"/><path d="m8.96 8.16.1.44a.17.17 0 0 1-.16.05.05.05 0 0 0-.04.02.05.05 0 0 0 0 .05l.28.5a.06.06 0 0 1-.04.09c-.67.1-1.3.18-1.88.23-.19.02-.2 0-.02-.07l.8-.3a.1.1 0 0 0 .06-.1L8 8.6c0-.03.01-.06.04-.07l.93-.37Z" fill="#AAE9E2"/><path d="m11.09 11.14.48.58c.03.03.04.07.04.1v1.02a.05.05 0 0 1-.05.04H9.75a.04.04 0 0 1-.04-.02l-.34-1.19a.34.34 0 0 1 0-.15l.36-1.83a.14.14 0 0 1 .1-.1c.3-.08.8-.16 1.11-.02a.07.07 0 0 1 .04.07v1.2c.01.12.04.22.1.3Z" fill="#CADCDC"/></svg>