<!-- by TradingView --><svg width="18" height="18" viewBox="0 0 18 18" xmlns="http://www.w3.org/2000/svg"><path fill="#F0F3FA" d="M0 0h18v18H0z"/><path d="M9 3 7 4.38V7h.86L9 6.21l1.14.79H11V4.38L9 3Z" fill="url(#a)"/><path d="m12.28 14 .72-2.02L11.76 10l-.6.43-.4 1.17-1.17-.02L9 12 10.24 14h2.04Z" fill="url(#b)"/><path d="M5.72 14 5 11.98 6.24 10l.6.43.4 1.17 1.17-.02L9 12 7.76 14H5.72Z" fill="url(#c)"/><path d="M3 7.73 4.75 6.5 7 7.25l-.25.7-1.01.7.34 1.15-.25.7-2.27-.75L3 7.73Z" fill="url(#d)"/><path d="M15 7.73 13.25 6.5 11 7.25l.25.7 1.01.7-.34 1.15.25.7 2.27-.75.56-2.02Z" fill="url(#e)"/><defs><linearGradient id="a" x1="9" y1="3" x2="9" y2="7" gradientUnits="userSpaceOnUse"><stop stop-color="#F1AA17"/><stop offset="1" stop-color="#FBD698"/></linearGradient><linearGradient id="b" x1="10.53" y1="11.05" x2="12.49" y2="13.9" gradientUnits="userSpaceOnUse"><stop stop-color="#FBD698"/><stop offset="1" stop-color="#F1AA17"/></linearGradient><linearGradient id="c" x1="7.47" y1="11.05" x2="5.51" y2="13.9" gradientUnits="userSpaceOnUse"><stop stop-color="#FBD698"/><stop offset="1" stop-color="#F1AA17"/></linearGradient><linearGradient id="d" x1="2.95" y1="7.29" x2="6.41" y2="8.15" gradientUnits="userSpaceOnUse"><stop stop-color="#F1AA17"/><stop offset="1" stop-color="#FBD698"/></linearGradient><linearGradient id="e" x1="15.05" y1="7.29" x2="11.59" y2="8.15" gradientUnits="userSpaceOnUse"><stop stop-color="#F1AA17"/><stop offset="1" stop-color="#FBD698"/></linearGradient></defs></svg>