<!-- by TradingView --><svg xmlns="http://www.w3.org/2000/svg" width="18" height="18" viewBox="0 0 18 18"><path fill="#F0F3FA" d="M0 0h18v18H0z"/><path d="M7 5.67v4.6c0 .54.02 1.13.4 1.52.93.91 2.25.96 3.15.07.4-.4.46-.86.45-1.65V5.65h-.01c-.6-.1-.92-.14-1.51-.15V10.2c0 .19-.15.52-.49.52-.31 0-.51-.2-.51-.52V5.5c-.4 0-1.02.09-1.48.17Zm6.27 2.36c.28.13.62.28.77.46.63.77-.37 1.21-.95 1.47L13 10V7.91l.27.12Zm-1.69 4.12a7.85 7.85 0 0 0 3.36-1.38c.77-.6 1.06-1.21 1.06-1.8 0-1.23-1.4-2.32-2.9-2.8a13.4 13.4 0 0 0-1.52-.4v6.38Zm-5.15 0C4.95 12.03 2 10.75 2 8.96c0-1.73 2.88-3.06 4.43-3.2v1.77c-.58 0-2.11.5-2.49 1-.52.7.4 1.14.9 1.4L5 10V8.24h1.43v3.91Z" fill="#272A2F"/></svg>