<!-- by TradingView --><svg width="18" height="18" viewBox="0 0 18 18" fill="none" xmlns="http://www.w3.org/2000/svg"><path fill="#F0F3FA" d="M0 0h18v18H0z"/><g opacity=".6" stroke="#969696"><circle cx="9" cy="9" r="8.88" stroke-width=".25"/><rect x="3.05" y="5.05" width="11.9" height="7.9" rx=".95" stroke-width=".1"/><rect x="2.05" y="6.05" width="13.9" height="5.9" rx=".95" stroke-width=".1"/><rect x="4.05" y="4.05" width="9.9" height="9.9" rx=".95" stroke-width=".1"/><rect x="5.05" y="3.05" width="7.9" height="11.9" rx=".95" stroke-width=".1"/><rect x="6.05" y="2.05" width="5.9" height="13.9" rx=".95" stroke-width=".1"/></g><path d="m5.5 7.5-2-.5.5 2 1.5-1.5Z" fill="#23426D"/><path d="M14 9a5 5 0 0 1-8.82 3.23l.53-.35A4.36 4.36 0 0 0 13.38 9a4.37 4.37 0 0 0-8.7-.68l-.68.6A5 5 0 0 1 14 9Z" fill="#23426D"/><path d="M9 10a1 1 0 0 0 .69-.28l2.75 1.75.34-.6L10 9.1 10 9a1 1 0 1 0-1.97.25l-2.92 1.76a4.36 4.36 0 0 1-.48-2.2L4 9.36c.07.97.42 1.87.96 2.6a99.5 99.5 0 0 1 3.45-2.14A1 1 0 0 0 9 10Z" fill="#757577"/><path d="M8.5 11h1v1h-1v-1Z" fill="#757577"/></svg>