<!-- by TradingView --><svg width="18" height="18" viewBox="0 0 18 18" xmlns="http://www.w3.org/2000/svg"><path fill="#F0F3FA" d="M0 0h18v18H0z"/><path d="M4 7.2v2.84c.58-.87 2.62-1.66 3.71-2.09.87-.34 1.12-1.04 1.13-1.34V4H7.23c-.46 1.2-1.62 1.4-2.4 1.99-.62.47-.81 1-.83 1.2Z" fill="url(#aq1ivkybg)"/><path d="M9.16 6.63V4h1.75c0 .64.88 1.28 1.4 1.62.51.34 1.69.74 1.69 1.65 0 .72-1.4 1.38-2.11 1.62l-1.9-1.07a1.54 1.54 0 0 1-.83-1.19Z" fill="url(#bq1ivkybg)"/><path d="M14 10.69V7.75c-.58.9-2.62 1.72-3.71 2.16-.87.36-1.12 1.08-1.13 1.4V14h1.61c.46-1.24 1.62-1.45 2.4-2.06.62-.48.81-1.04.83-1.25Z" fill="url(#cq1ivkybg)"/><path d="M8.84 11.37V14H7.1c0-.64-.88-1.28-1.4-1.62-.51-.34-1.69-.74-1.69-1.65 0-.72 1.4-1.38 2.11-1.62l1.9 1.07c.65.36.83.94.83 1.19Z" fill="url(#dq1ivkybg)"/><defs><linearGradient id="aq1ivkybg" x1="3.91" y1="8.18" x2="9.06" y2="6.65" gradientUnits="userSpaceOnUse"><stop stop-color="#E4D504"/><stop offset=".31" stop-color="#F2BB00"/><stop offset="1" stop-color="#F38D04"/></linearGradient><linearGradient id="bq1ivkybg" x1="13.74" y1="6.86" x2="9.73" y2="6.76" gradientUnits="userSpaceOnUse"><stop stop-color="#F48E04"/><stop offset="1" stop-color="#F0CD01"/></linearGradient><linearGradient id="cq1ivkybg" x1="14.09" y1="9.67" x2="8.91" y2="11.16" gradientUnits="userSpaceOnUse"><stop stop-color="#E4D504"/><stop offset=".31" stop-color="#F2BB00"/><stop offset="1" stop-color="#F38D04"/></linearGradient><linearGradient id="dq1ivkybg" x1="4.26" y1="11.14" x2="8.27" y2="11.24" gradientUnits="userSpaceOnUse"><stop stop-color="#F48E04"/><stop offset="1" stop-color="#F0CD01"/></linearGradient></defs></svg>