<!-- by TradingView --><svg width="18" height="18" viewBox="0 0 18 18" xmlns="http://www.w3.org/2000/svg"><path fill="#F0F3FA" d="M0 0h18v18H0z"/><path d="M7.8 4.4a2.03 2.03 0 0 1 2.43 0l2.94 2.2c.46.34.75.85.83 1.4h-1.57a1.2 1.2 0 0 0-.4-.52L9.7 5.75c-.41-.31-.97-.31-1.39 0L5.96 7.48c-.42.31-.6.86-.43 1.36l.9 2.81c.03.13.1.25.17.35l.72 2H7.2c-.9 0-1.7-.6-1.98-1.48L4.1 8.98c-.28-.88.03-1.84.76-2.38l2.93-2.2Z" fill="#FF9E45"/><path d="M7.23 9.48h6.47L13.18 11H7.76l-.53-1.52ZM8 12.48h4.82A2.3 2.3 0 0 1 10.63 14h-2.1L8 12.48Z" fill="#83366C"/></svg>