<!-- by TradingView --><svg width="18" height="18" viewBox="0 0 18 18" xmlns="http://www.w3.org/2000/svg"><path fill="#F0F3FA" d="M0 0h18v18H0z"/><path d="M2 8.36c0-.2.16-.36.36-.36H6.3v.29H2.38c-.05 0-.1.03-.1.08v1.26c0 .05.05.09.1.09H5.9c.05 0 .09-.04.09-.1v-.48H4v-.28h2.3v.78c0 .2-.19.36-.39.36H2.36A.36.36 0 0 1 2 9.64V8.36ZM6.7 8.27c0-.15.13-.27.29-.27h4.31v.29H7.09c-.06 0-.09.01-.09.06v.43c0 .05.03.08.09.08H11c.16 0 .29.13.29.27v.6c0 .15-.13.27-.3.27H6.7v-.29h4.21c.05 0 .09-.01.09-.06v-.43c0-.05-.04-.08-.09-.08H7c-.16 0-.3-.12-.3-.27v-.6ZM11.7 8.36c0-.2.17-.36.37-.36H16v.28h-3.91c-.05 0-.09.04-.09.1v1.24c0 .05.04.1.09.1H16V10h-3.93a.36.36 0 0 1-.37-.36V8.36Z" fill="#4C4C4C"/></svg>