<!-- by TradingView --><svg width="18" height="18" viewBox="0 0 18 18" xmlns="http://www.w3.org/2000/svg"><path fill="#F0F3FA" d="M0 0h18v18H0z"/><path d="m6.76 12.34-.24.3c-.24-.13-.42-.26-.67-.26-.24 0-.34.07-.34.17 0 .11.1.13.59.22.48.08.75.27.75.61 0 .34-.45.62-.92.62-.37 0-.77-.24-.93-.36l.24-.36c.15.1.4.3.7.3.24 0 .5-.05.5-.2 0-.15-.07-.19-.63-.27-.57-.09-.73-.28-.73-.51 0-.24.18-.6.77-.6.47 0 .8.23.92.34ZM10.77 12.34l-.25.3c-.24-.13-.42-.26-.67-.26-.24 0-.34.07-.34.17 0 .11.1.13.59.22.48.08.75.27.75.61 0 .34-.45.62-.92.62-.37 0-.77-.24-.93-.36l.24-.36c.15.1.4.3.7.3.24 0 .5-.05.5-.2 0-.15-.07-.19-.63-.27-.57-.09-.73-.28-.73-.51 0-.24.18-.6.77-.6.47 0 .8.23.92.34Z" fill="#5C5A5B"/><path d="m8.23 12.67.46.66h-.92l.46-.66Z" fill="#E40210"/><path d="M8.54 12.5V12H7v2h.46v-1.5h1.08ZM11 12h.44l1.06 1.33V12h.5v2h-.44l-1.06-1.33V14H11v-2Z" fill="#5C5A5B"/><ellipse cx="5.47" cy="5.67" rx=".34" ry=".33" fill="#E40210"/><path d="M13 7.65c.46.39.69.76.59 1.05-.25.68-2.27.65-4.53-.08-2.25-.73-3.89-1.89-3.65-2.57.05-.14.17-.25.35-.33l-.15-.25c-.3.1-.5.25-.58.45C4.75 6.72 6.53 8 9 8.8c2.47.8 4.7.81 4.97.02.14-.4-.24-.93-.98-1.46v.29ZM7.74 5.62l.1-.2a7.05 7.05 0 0 0-1.68-.06l.13.22c.4-.05.89-.04 1.45.04Z" fill="#E40210"/><path d="M11.52 10.04a3.22 3.22 0 0 0 1.64-2.79 3.27 3.27 0 0 0-4.14-3.13l2.5 5.92ZM8.18 4.47a3.22 3.22 0 0 0-1.49 3.7l1.49-3.7Z" fill="#E40210"/><path fill-rule="evenodd" d="m8.71 3-3.24 8h6.48L8.71 3Zm1.32 5.97.92.22-2.24-5.52-1.68 4.16c.16.1.4.22.71.36L8.71 6l1.32 2.97Z" fill="#E40210"/></svg>