<!-- by TradingView --><svg width="18" height="18" viewBox="0 0 18 18" xmlns="http://www.w3.org/2000/svg"><path fill="#F0F3FA" d="M0 0h18v18H0z"/><ellipse cx="9" cy="4.61" rx=".33" ry=".31" fill="#999"/><rect x="5" y="4" width="3" height=".31" rx=".15" fill="#999"/><rect x="5.33" y="4.61" width="2.67" height=".31" rx=".15" fill="#999"/><rect x="5.67" y="5.22" width="2.33" height=".31" rx=".15" fill="#999"/><rect width="3" height=".31" rx=".15" transform="matrix(-1 0 0 1 13 4)" fill="#999"/><rect width="2.67" height=".31" rx=".15" transform="matrix(-1 0 0 1 12.67 4.61)" fill="#999"/><rect width="2.33" height=".31" rx=".15" transform="matrix(-1 0 0 1 12.33 5.22)" fill="#999"/><path d="M8.83 5.53h.34v3.36h-.34V5.53ZM8.83 10.57h.34v1.53h-.34v-1.53ZM8.83 13.47h.34V15h-.34v-1.53Z" fill="#999"/><path d="M8 13.32c0 .49.44.71.67.76l-.34.61c-.16-.1-.53-.42-.66-.91-.14-.5.05-.92.16-1.07-.66-.3-1-.77-1-1.53 0-.61.34-1.07.5-1.22a2.55 2.55 0 0 1-1.16-1.99c0-1.59 1.44-2.29 2.16-2.44v.3C7.5 6 6.33 6.9 6.5 7.97 6.67 9.04 8.17 9.2 9 9.2c.83 0 2.5-.3 2.5-1.22 0-.73-1.22-.91-1.83-.91V5.53c1 .15 2.33 1.07 2.33 2.29S10.17 9.5 9 9.5a1.87 1.87 0 0 0-1.83 1.68c0 .61 1 1.07 2 1.07s1.66-.46 1.66-1.07c0-.49-1.1-.71-1.66-.76.53 0 1.22-.3 1.5-.46.4.12.5.86.5 1.22 0 1.22-1.34 1.38-2 1.38-.67 0-1.17.15-1.17.76Z" fill="#174C90"/><path d="m10.33 12.86-.83.3c.22 0 .67.07.67.31 0 .25-.34.41-.5.46v.3c.27-.1.83-.4.83-.76s-.11-.56-.17-.6Z" fill="#174C90"/><path d="M8.33 7.06V5.79C7 6.25 6.53 7.06 6.5 7.67c.8-.5 1.56-.61 1.83-.61ZM10 10.26c1.6-.4 2-1.68 2-2.29-.28.56-1.65 1.53-2.83 1.53-1.67 0-1.9.97-2 1.53.66-.46 1-.3 2.83-.77ZM9.5 13.17a1.91 1.91 0 0 0 1.67-1.84 2.3 2.3 0 0 1-2 1.23c-1 0-1.17.3-1.17.76.27-.25 1-.15 1.5-.15ZM9.83 14.7c0-.16 0-.31-.16-.46.4-.13.83-.46.83-.77 0 .44-.39 1.02-.67 1.22Z" fill="#CCC"/></svg>