<!-- by TradingView --><svg width="18" height="18" viewBox="0 0 18 18" xmlns="http://www.w3.org/2000/svg"><path fill="#F0F3FA" d="M0 0h18v18H0z"/><path d="M14 4v10H4V4h10Zm-.5.5h-9v9h9v-9Z" fill="#670000"/><path d="M13 5H5v8h8V5Z" fill="#670000"/><path d="M8 8.3V7.27S7.4 7 6.68 7C5.74 7 5 7.8 5 8.28v1.73s.46.99 1.55.99C7.63 11 8 10.33 8 10.33v-.88h.35V9H6.73v.45h.7v.75s-.18.4-.8.4c-.63 0-.89-.8-.89-1.48 0-.68.17-1.72.94-1.72.76 0 .98.86.98.86L8 8.3ZM13 7H9.6v1h.48l.56-.6H12L9.6 11H13v-1h-.54l-.14.6h-1.5L13 7.4V7Z" fill="#F0F3FA"/><path d="M8.38 8.72c.03.09.1.23.22.43l.77 1.2c-.14.24-.33.34-.78.34-.34 0-.64-.36-.72-.66h-.34c.04.47.63.97 1.06.97.35 0 .59-.23.83-.55l.02.03.09.11c.08.12.15.2.18.23.07.06.13.11.19.14.06.02.13.04.2.04.4 0 .52-.28.06-.28a.3.3 0 0 1-.2-.08c-.06-.06-.17-.2-.33-.46.2-.38.39-.87.71-1.05v-.07h-.7l-.01.02v.05c.08.02.16.1.16.22a1.39 1.39 0 0 1-.22.72l-.32-.52a.59.59 0 0 0-.05-.08l-.03-.04-.02-.04a3.65 3.65 0 0 1-.18-.3.77.77 0 0 0 .28-.26c.05-.1.08-.22.08-.37a.61.61 0 0 0-.12-.4.43.43 0 0 0-.36-.16c-.17 0-.3.06-.4.17a.58.58 0 0 0-.13.38c0 .08.02.17.06.27Zm.68.08c-.04.1-.1.16-.16.2a2.5 2.5 0 0 1-.26-.39.72.72 0 0 1-.07-.29c0-.08.03-.15.07-.21.06-.06.11-.09.2-.09.07 0 .14.04.2.12.06.09.08.2.08.36 0 .1-.02.2-.06.3Z" fill="#F0F3FA"/></svg>