<!-- by TradingView --><svg width="18" height="18" viewBox="0 0 18 18" xmlns="http://www.w3.org/2000/svg"><path fill="#F0F3FA" d="M0 0h18v18H0z"/><path fill-rule="evenodd" d="M13.88 6.21A6.5 6.5 0 0 0 11.9 6H6.1c-.92 0-1.58.08-1.96.22-.68.24-1.23.66-1.66 1.26C2.16 7.92 2 8.43 2 9c0 .58.16 1.08.47 1.52.43.6.98 1.02 1.66 1.27a6.5 6.5 0 0 0 1.96.21h5.82a6.5 6.5 0 0 0 1.97-.22 3.43 3.43 0 0 0 1.65-1.26c.31-.44.47-.95.47-1.52 0-.58-.16-1.08-.47-1.52a3.43 3.43 0 0 0-1.65-1.27Zm.8 1.17a2.92 2.92 0 0 0-2.02-.78H5.34c-.78 0-1.45.26-2.02.78a2.1 2.1 0 0 0-.74 1.52c-.01.46.11.86.37 1.2.26.36.59.65.98.87a3.86 3.86 0 0 0 1.9.43h6.34a4.03 4.03 0 0 0 1.9-.42c.4-.23.72-.52.98-.87s.38-.75.37-1.2a2.1 2.1 0 0 0-.74-1.53Z" fill="#409AAD"/><path d="M7.23 9.53h-.65c-.03 0-.05 0-.06-.03a.09.09 0 0 1-.03-.06v-.51c0-.05.02-.07.07-.07h1.82a.24.24 0 0 1 .24.24v1.65c0 .1-.04.13-.13.13H8.1c-.1 0-.14-.04-.14-.14 0-.08-.05-.12-.15-.14a.26.26 0 0 0-.17.04c-.43.25-.98.43-1.48.34-.98-.18-1.7-.66-1.81-1.7-.05-.49.02-.93.25-1.3.53-.82 2-1.25 2.9-.8.36.18.65.4.89.67.17.2.16.38-.03.54a.18.18 0 0 1-.12.05h-.66a.13.13 0 0 1-.12-.07c-.33-.59-.79-.75-1.38-.49-.33.15-.46.56-.52.9-.09.52.06.95.43 1.28.25.22.62.16.93.16.21 0 .36-.1.44-.3l.05-.11c.07-.19.01-.28-.18-.28ZM10.74 7.73v.89l.05.02h1.59c.04 0 .05.03.05.07v.54l-.02.02-.02.01H10.8c-.02 0-.03.02-.04.03a.07.07 0 0 0-.02.04v.92c0 .04.01.06.05.06h2.14l.04.03.02.05v.54l-.01.02-.02.01-.03.02H9.67c-.02 0-.04 0-.05-.02a.07.07 0 0 1-.01-.05V7.07c0-.02 0-.04.02-.05A.06.06 0 0 1 9.67 7h3.28l.02.02.02.02V7.63l-.02.02-.02.01H10.8l-.02.01-.02.02-.02.02v.02Z" fill="#409AAD"/></svg>