<!-- by TradingView --><svg width="18" height="18" viewBox="0 0 18 18" fill="none" xmlns="http://www.w3.org/2000/svg">
<rect width="18" height="18" fill="#F0F3FA"/>
<path d="M5.2177 7.0001H2V8H5.09882C5.93194 8 6.32762 8.29666 6.4782 8.46544L7.36548 7.95909C6.78851 7.17962 5.69323 6.99499 5.2177 7.0001Z" fill="url(#paint0_linear_229_19501)"/>
<path fill-rule="evenodd" clip-rule="evenodd" d="M7.99992 9V9.35293V9.46259V11H5.20338C4.30238 10.9431 3.75852 10.3771 3.69976 9.63724C3.65275 9.04536 3.94133 8.61284 4.0915 8.47056H2.84315C2.56893 8.94862 2.59831 9.67518 2.64728 9.97871C2.945 11.6481 4.4754 12.0212 5.20338 11.9991H7.99992V12H10.7199C11.4508 12 12.0434 11.4074 12.0434 10.6765C12.0434 10.0633 11.6264 9.54747 11.0605 9.39718C11.5155 9.19839 11.7151 8.81288 11.7723 8.40274C11.8238 8.03367 12.2185 7.99169 12.4094 8H12.9999V12H13.9999V8H14.7194C14.9768 7.44638 15.6804 7.09144 15.9999 7H6.41862C7.18564 7.2394 7.59189 7.77764 7.69913 8H9.8419C10.1122 7.9813 10.654 8.02244 10.6591 8.47132C10.6643 8.9202 10.1164 9.00208 9.8419 9H7.99992ZM10.4999 10H8.99992V11H10.4999C10.7761 11 10.9999 10.7762 10.9999 10.5C10.9999 10.2239 10.7761 10 10.4999 10ZM6.99994 9.05923H4.99994V10H5.99994V10.5294H6.99994V9.05923Z" fill="#1D143E"/>
<defs>
<linearGradient id="paint0_linear_229_19501" x1="2" y1="7.35404" x2="6.90695" y2="8.09792" gradientUnits="userSpaceOnUse">
<stop stop-color="#25807B"/>
<stop offset="0.565195" stop-color="#236268"/>
<stop offset="1" stop-color="#1F1A3C"/>
</linearGradient>
</defs>
</svg>
