<!-- by TradingView --><svg width="18" height="18" viewBox="0 0 18 18" xmlns="http://www.w3.org/2000/svg"><path fill="#F0F3FA" d="M0 0h18v18H0z"/><path d="M7.4 7.98c.4-.5.98-.8 1.61-.8.63 0 1.2.33 1.59.82H13c-.1-.3-.2-.6-.35-.86-.02-.03-.04-.05-.06-.05-.03 0-.05 0-.07.02a.9.9 0 0 1-.58.22.89.89 0 0 1-.66-.3 1.1 1.1 0 0 1-.07-1.36.16.16 0 0 0 .02-.08.1.1 0 0 0-.04-.07A4.02 4.02 0 0 0 10.05 5c-.03 0-.05 0-.07.02a.13.13 0 0 0-.04.06c-.07.51-.47.9-.94.9-.46 0-.86-.4-.93-.9a.1.1 0 0 0-.03-.06C8.02 5 7.99 5 7.96 5c-.4.11-.78.28-1.13.52-.02.02-.04.04-.04.07 0 .03 0 .05.02.08.28.4.24.99-.1 1.35a.87.87 0 0 1-1.22.1c-.02-.02-.05-.03-.07-.02a.1.1 0 0 0-.06.04c-.15.28-.27.56-.36.86h2.4v-.02ZM10.39 10a2 2 0 0 1-1.4.6c-.53 0-1-.23-1.38-.6H5c.07.22.17.43.27.63.01.03.03.05.06.05.02 0 .05 0 .07-.02a.85.85 0 0 1 .58-.22c.25 0 .49.12.67.33.33.4.37 1.04.08 1.49-.01.02-.02.05-.01.08 0 .04.02.06.04.08.36.26.75.45 1.15.57.03.01.06 0 .08-.01a.15.15 0 0 0 .04-.07c.06-.57.47-.98.95-.98s.9.42.95.98c0 .03.02.06.04.07.02.02.04.02.06.02h.02c.4-.12.8-.3 1.16-.56.02-.02.04-.04.04-.07a.1.1 0 0 0-.02-.09c-.3-.45-.26-1.09.09-1.49a.88.88 0 0 1 .67-.33c.21 0 .42.08.59.24.02.02.05.03.07.03a.1.1 0 0 0 .06-.05c.12-.22.21-.44.29-.68h-2.61Z" fill="#9A999A"/><path opacity=".7" fill="#F08000" d="M2 8h14v2H2z"/></svg>