<!-- by TradingView --><svg width="18" height="18" viewBox="0 0 18 18" xmlns="http://www.w3.org/2000/svg"><path fill="#F0F3FA" d="M0 0h18v18H0z"/><path fill-rule="evenodd" d="M14.13 5.9a5.99 5.99 0 1 0-10.26 6.19 5.99 5.99 0 0 0 10.26-6.2Zm-.51 5.01a4.95 4.95 0 0 0-1.08-5.45 4.95 4.95 0 0 0-5.45-1.08A4.95 4.95 0 0 0 4 9a4.95 4.95 0 0 0 3.09 4.62 4.95 4.95 0 0 0 5.45-1.08c.46-.47.83-1.01 1.08-1.63Z" fill="#682970"/><path fill-rule="evenodd" d="M9.83 12h-.8C9 12 9 11.99 9 11.97l.87-5.95c0-.01 0-.02.02-.02h1.2c.02 0 .03 0 .03.02l.88 5.95c0 .02 0 .03-.03.03h-.87c-.01 0-.02 0-.02-.02l-.13-1.08-.03-.08h-.9c-.02 0-.03.07-.03.08l-.13 1.08c0 .01-.01.02-.03.02Zm.64-4.88v.01a714.3 714.3 0 0 0 .35 3 37.89 37.89 0 0 1-.73-.03 749.6 749.6 0 0 0 .38-2.97ZM7.4 9.75h.55l.04.02v1.1c0 .3-.4.38-.64.38-.33 0-.57-.15-.57-.39V7.1c0-.28.27-.36.47-.35a35.75 35.75 0 0 0 .34 0c.24.01.4.22.4.42v.81L8 8h.73c.01 0 .03 0 .04-.02v-1a.95.95 0 0 0-.37-.76 1.39 1.39 0 0 0-.9-.22c-.38 0-.66.02-.83.07a.84.84 0 0 0-.6.5c-.05.15-.08.44-.08.86v3.48c0 .44.15.76.45.94.1.06.24.1.4.12a4.71 4.71 0 0 0 .92.02c.66-.04 1-.39 1-1.03A121.62 121.62 0 0 0 8.75 9H7.4c-.02 0-.03.01-.03.03v.7c0 .01.01.02.04.02Z" fill="#3194C6"/></svg>