<!-- by TradingView --><svg width="18" height="18" viewBox="0 0 18 18" xmlns="http://www.w3.org/2000/svg"><path fill="url(#a)" d="M0 0h18v18H0z"/><path d="M12 10.09c.05 0 .08-.04.1-.12.26-1.2.5-2.4.74-3.62.04-.23.18-.35.4-.35h1.11c.2 0 .3.1.31.31l.34 5.56c0 .08-.03.11-.1.11h-.75c-.07 0-.11-.03-.12-.11l-.3-4.95a.06.06 0 0 0-.03-.05c-.06-.02-.1.02-.12.12a398.8 398.8 0 0 1-.68 3.35c-.1.52-.44.69-.9.69s-.8-.17-.9-.69L10.4 7c-.02-.1-.06-.14-.12-.12a.06.06 0 0 0-.04.05l-.27 4.95c0 .08-.05.12-.12.12H9.1c-.07 0-.1-.04-.1-.11l.31-5.57c.02-.2.12-.3.31-.3L10.74 6c.22 0 .35.11.4.34a161 161 0 0 0 .75 3.62c.02.08.05.12.1.12ZM6.11 11.04V9.4a.1.1 0 0 0-.02-.07.08.08 0 0 0-.06-.03H5.6a.3.3 0 0 1-.24-.11l-.49-.6c-.07-.1-.05-.13.05-.13h1.56c.35 0 .52.19.52.58v2.88c0 .05-.02.08-.07.08H4.55c-1.05 0-1.41-.87-1.5-1.93-.06-.66-.06-1.3-.02-1.94.1-1.23.54-1.96 1.68-2.1a4.49 4.49 0 0 1 2.07.22c.08.02.1.08.09.17l-.1.44-.07.1a.13.13 0 0 1-.1.02 4.9 4.9 0 0 0-1.81-.04c-1.14.22-.9 2.69-.7 3.5.09.41.35.65.77.7.38.04.78.04 1.18 0 .05-.01.07-.04.07-.1Z" fill="#fff"/><defs><linearGradient id="a" x1="3.35" y1="3.12" x2="21.9" y2="24.43" gradientUnits="userSpaceOnUse"><stop stop-color="#1A1E21"/><stop offset="1" stop-color="#06060A"/></linearGradient></defs></svg>