<!-- by TradingView --><svg width="18" height="18" viewBox="0 0 18 18" xmlns="http://www.w3.org/2000/svg"><path fill="#F0F3FA" d="M0 0h18v18H0z"/><path fill-rule="evenodd" d="M9 14A5 5 0 1 0 9 4a5 5 0 0 0 0 10ZM7.38 6c-.3 0-.88 0-1.2-.63C6.19 6 6.2 7 7.39 7h3.18v2.31H9.18c-.28 0-.43-.02-.71-.31l-.02.08-.02.1c-.03.13-.05.26-.05.45 0 .45.08.92.8.93H12V6H7.38Zm3.24 6h.13c.32-.02.8-.04 1.06.5 0-.61 0-1.5-1.2-1.5H7.45V8.69h1.38c.28 0 .43.02.71.31l.02-.08.02-.1c.03-.13.05-.26.05-.45 0-.45-.08-.92-.8-.93H6V12h4.62Z" fill="#2B549F"/></svg>