<!-- by TradingView --><svg width="18" height="18" viewBox="0 0 18 18" xmlns="http://www.w3.org/2000/svg"><path fill="#F0F3FA" d="M0 0h18v18H0z"/><path d="M7.46 4c.46 0 .9.1 1.3.27a3.37 3.37 0 0 0-2.09 3.14 3.4 3.4 0 0 0 2.1 3.15c-.4.18-.85.44-1.3.44A3.51 3.51 0 0 1 4 7.4C4 5.37 5.58 4 7.46 4ZM14 7.4c0 2.05-1.58 3.6-3.46 3.6-.46 0-.9-.26-1.3-.43v-.01a3.4 3.4 0 0 0 2.09-3.15c0-1.46-.87-2.6-2.1-3.13v-.01c.4-.17.85-.27 1.3-.27A3.35 3.35 0 0 1 14 7.4Zm-5.23 6.35c-.36.17-.76.25-1.17.25-1.4 0-2.7-.66-3.07-2H7c.27.89.91 1.39 1.76 1.75ZM13.48 12c-.38 1.34-1.66 2-3.07 2-.41 0-.8-.09-1.17-.24.84-.37 1.5-.87 1.75-1.76h2.49Z" fill="url(#ab3whebjw)"/><defs><linearGradient id="ab3whebjw" x1="9" y1="4" x2="9" y2="14" gradientUnits="userSpaceOnUse"><stop stop-color="#0D8"/><stop offset="1" stop-color="#409"/></linearGradient></defs></svg>