<!-- by TradingView --><svg width="18" height="18" viewBox="0 0 18 18" xmlns="http://www.w3.org/2000/svg"><path fill="#F0F3FA" d="M0 0h18v18H0z"/><path d="M13.73 7h-.93l-.8 5h2.81l.19-1h-1.91l.64-4ZM8.82 7H12l-.25 1H9.6l-.17 1h2.07l-.22 1H9.27l-.33 2H8l.82-5Z" fill="#187ABD"/><path fill-rule="evenodd" d="M10.54 11.82c2.74-.57 4.73-2.3 4.43-3.85-.3-1.55-2.76-2.36-5.5-1.79-2.75.57-4.74 2.3-4.44 3.85.3 1.55 2.76 2.36 5.5 1.79Zm-1.87-.42c1.87.03 5.8-.81 5.77-3.38 0-2.02-3.69-2-4.94-1.74C7 6.8 5.18 8.3 5.43 9.65c.2 1.02 1.51 1.75 3.24 1.75Z" fill="#889588"/><path d="m7.38 8 .2-1H5.78c-1.1 0-2 .62-2.45 1.4a2.56 2.56 0 0 0-.31 1.6c.55.27 1.17.35 1.43.35A1.31 1.31 0 0 1 4 9.29c0-.88.97-1.18 1.43-1.29h1.95Z" fill="#187ABD"/><path d="M7.2 9H8l-.66 3h-.81l.15-.67c-.35.3-.97.67-1.67.67-1.07 0-1.79-.9-1.95-1.61.27.14 1.02.43 1.83.43.84 0 1.33-.42 1.63-.82H5.35l.25-1h1.6Z" fill="#3EA44B"/></svg>