<!-- by TradingView --><svg width="18" height="18" viewBox="0 0 18 18" xmlns="http://www.w3.org/2000/svg"><path fill="#F0F3FA" d="M0 0h18v18H0z"/><circle cx="9" cy="9" r="5" fill="#064274"/><path d="M11.5 4.67a4.97 4.97 0 0 0-1.73-.61c-.35.25-.6.5-.46.56.16.08.12.24.08.4-.04.15-.08.3.08.39.08.04.18.1.27.17.27.18.55.37.67.14a.8.8 0 0 1 .3-.31c.13-.08.24-.16.32-.32.06-.12.2-.22.34-.32l.13-.1ZM4.85 11.8A5 5 0 0 1 8.98 4c0 .25-.05.54-.14.62-.15.16-.62.63-1.09.79a6.4 6.4 0 0 1-.2.06c-.35.1-.56.16-.42.56.07.21-.02.3-.1.37-.09.09-.16.16.1.41.22.23.26.41.3.56.04.17.07.3.32.38.15.05.29.08.43.11.31.08.6.14.82.36.13.13.24.18.31.21.1.05.16.08.16.26 0 .25-.21.52-.31.62-.21.1-.66.35-.79.47-.15.16-.78.16-.62 0 .16-.16.62-1.1.31-.94-.15.08-.23.24-.29.36-.06.11-.1.2-.18.11l-.11-.15c-.12-.18-.24-.36-.35 0-.16.46-.47 1.09-.47.78 0-.23-.09-.2-.2-.18a.48.48 0 0 1-.12.02.98.98 0 0 0-.28.1c-.17.08-.34.15-.34.06 0-.16 0-.32-.16-.47-.06-.07-.1-.1-.14-.1-.04 0-.08.08-.17.25-.13.25-.26.94-.31 1.26l-.09.92Zm7.2-6.76a5 5 0 0 1 1.89 4.74h-.25c-.5 0-.55-.13-.6-.26-.04-.07-.07-.15-.18-.2l-.29-.16c-.09-.07-.16-.14-.34-.32-.2-.2-.27-.2-.41-.22-.09-.02-.2-.03-.37-.09-.38-.13-.45-.05-.63.16l-.15.15a.89.89 0 0 0-.22.4c-.05.13-.08.23-.25.23-.23 0-.2-.17-.18-.38l.02-.25c0-.18-.16-.36-.29-.51-.1-.11-.18-.2-.18-.27 0-.09.2-.18.41-.27.16-.06.3-.13.38-.2.12-.12.26.06.3.16.11-.1.32-.34.32-.47 0-.08-.13-.17-.3-.27-.16-.1-.33-.2-.48-.35-.19-.2-.1-.21.01-.23.07-.01.15-.02.15-.09 0-.1.46.1.85.27.26.1.5.2.55.2.16 0 .31-.15.16-.31a1.7 1.7 0 0 0-.14-.12c-.14-.11-.3-.23-.17-.35.07-.08.07-.2.07-.31 0-.12 0-.24.08-.31.07-.07.16-.21.25-.37Z" fill="url(#abg4pfiii)"/><path d="m13.06 9.08-1.56 1.01v.47l.63-.31v.78l.62-.31v-.86l.31-.23v-.55Zm-.31 1.8-.63.3v.32l.63-.31v-.31Zm-.63.93v-.15l.63-.32v.16l-.63.31Zm-5 0v-1.4l.63.3v.63c.25.13.73.16.94.16v-.78h.62v1.4H8.7v-.15c-.25 0-.73-.1-.94-.16v.16l-.63-.16Zm.63.31-.63-.15v.31l.63.16v-.31Zm-.63.32.63.15v.16l-.63-.16v-.15Zm1.57-.16h.62v.31H8.7v-.3Zm0 .47v.16h.62v-.16H8.7Zm2.81-2.03c0-.1-.13-.31-.63-.31s-1.04.41-1.25.62c-.2.21-.25.9.63.78.2-.05.66-.12.78 0l.63-.31c-.06-.1-.22-.31-.47-.31l-.35.03c-.24.04-.49.07-.59-.03-.05-.05-.1-.19.16-.31.25-.13.41.05.46.15l.63-.31Zm-1.88 1.56.63-.15c0 .05.1.12.47 0 .37-.13.36-.16.31-.16l.63-.31c.05 0 .09.06-.16.3l-1.4.48c-.16 0-.48-.03-.48-.16Zm1.88-.15-1.25.46c.05.06.53-.03.78-.15.25-.13.47-.26.47-.31Zm-5.16-1.41.63.31c0-.26-.19-.87-.94-1.25-.94-.47-1.1-.47-1.25.31v.16l.78.63c0-.32.1-.91.47-.79.38.13.37.47.31.63Zm-.3.39v-.23l.93.46v.47l-.47-.15v-.32l-.47-.23Zm.93 1.02v-.16a6.9 6.9 0 0 1-2.19-1.4v.15c.5.5 1.67 1.14 2.19 1.4Zm-1.94-.84-.1-.1 1.57.94c-.1 0-.28-.07-.78-.32-.4-.2-.56-.38-.69-.52Z" fill="#FFFDFF"/><defs><linearGradient id="abg4pfiii" x1="4" y1="8.69" x2="14" y2="8.53" gradientUnits="userSpaceOnUse"><stop stop-color="#71503D"/><stop offset=".21" stop-color="#CFC8C2"/><stop offset=".33" stop-color="#717E60"/><stop offset=".64" stop-color="#546552"/><stop offset=".76" stop-color="#C5C0C2"/><stop offset="1" stop-color="#A66753"/></linearGradient></defs></svg>