<!-- by TradingView --><svg xmlns="http://www.w3.org/2000/svg" width="18" height="18" viewBox="0 0 18 18"><path fill="#F0F3FA" d="M0 0h18v18H0z"/><path d="M15.79 10.52c-.43-.4-1.34-.72-2.69-.97l-.06.09c1.05.22 1.74.5 2.13.86 1.08.98-2.2 1.83-5.54 2.3l-.16.2c4.05-.46 7.43-1.44 6.32-2.48Z" fill="#E6A811"/><path d="m12.72 10.58-.07.09c.13.03.22.05.22.12 0 .31-2.43.64-3.4.69-3.04.14-6.06-.88-6.14-2.33-.08-1.46 2.42-2.76 5.58-2.9.53-.03.83-.04 1.32 0l.13-.16c-.73-.1-1.42-.11-2.24-.07C4.42 6.2 1.92 7.6 2 9.2c.09 1.6 4.04 2.7 7.5 2.47 2.6-.16 4.49-.77 3.22-1.1Z" fill="#E6A811"/><path d="M7.06 8.47H8.7l-.39 1.89H6.75c-.41 0-.75-.02-1.06-.27-.32-.25-.42-.66-.31-1.2.2-1.05.84-1.55 1.93-1.55h1.6l-.13.67H7.2c-.47 0-.72.28-.84.88-.05.32-.03.52.07.63.08.09.21.17.42.17h.88l.1-.54h-.91l.13-.68Zm2.25 1.89.57-3v-.02h2.78l-.07.38a.36.36 0 0 1-.33.28h-1.41l-.1.5h1.69l-.12.62H10.6l-.1.5h1.72l-.14.74H9.31Z" fill="#231F20"/></svg>