<!-- by TradingView --><svg width="18" height="18" viewBox="0 0 18 18" xmlns="http://www.w3.org/2000/svg"><path fill="#F0F3FA" d="M0 0h18v18H0z"/><path d="M10.38 8.26c-.46 0-.77.4-.87.6-.1-.06-.38-.15-.73-.15s-.63.49-.73.73a3.02 3.02 0 0 0-1.01-.15c-1.4 0-1.75 1.18-1.75 1.77v.73c-.12.24-.24.4-.29.45 0 .35.1.73.15.88.34.12.53.05.58 0 0-.83.97-1.13 1.45-1.18v.88c.23.12.73.05.87 0 0-.24-.11-.76 0-.88.12-.12.25.05.3.15-.24.23-.3 1.17-.3 1.62 0 .1.1.29.44.29.35 0 .53-.2.58-.3-.11-.58.34-1.32.58-1.61.59.23.63.98.59 1.32 0 .1.08.3.43.3s.44-.2.44-.3v-.3c0-.58-.3-1.02-.44-1.17-.14-.15-.43-.73-.14-1.03.29-.3.29-.3.43-.73.15-.44.44-.3.59-.3.14 0 .14 0 0-.3-.12-.23-.05-.29 0-.29.93-.11 1.35-1.03 1.45-1.47-.58.6-.92.74-1.02.74.05-.15.15-.53.15-.88 0-.44-.88-.68-1.02-1.03-.12-.28.14-.32.29-.3 0-.35-.3-.54-.44-.59-.14.2-.4.71-.29 1.18.15.59.88 1.03.58 1.32-.29.3-.29 0-.87 0Z" fill="#D0AD54"/><path d="M10.24 5.18c0 .47-.49.78-.73.88.29-.59 0-1.62.29-1.62.3 0 .44.15.44.74Z" fill="#EC1D24"/><path d="M8.75 4.1c.45.17.6.79.61 1.08-.46-.51-1.54-.56-1.45-.87.1-.3.28-.4.84-.2Z" fill="#5ABE3C"/><path d="M7.62 5.17c.3-.37.9-.3 1.16-.23-.61.28-1.05 1.28-1.28 1.1-.24-.2-.26-.4.12-.87Z" fill="#2650A9"/><path d="M8.56 6.67c-.21-.46.1-1 .3-1.2-.02.7.72 1.57.44 1.7-.27.14-.48.07-.74-.5Z" fill="#39393A"/></svg>