<!-- by TradingView --><svg width="18" height="18" viewBox="0 0 18 18" xmlns="http://www.w3.org/2000/svg"><path fill="#F0F3FA" d="M0 0h18v18H0z"/><path fill-rule="evenodd" d="M14 14V4H4v10h10Zm-7.67-2.12v.45l-.02.02c-.1.08-.21.1-.34.1-.18.01-.35-.03-.47-.2-.1-.15-.14-.37-.15-.57v-.4c.01-.2.06-.42.16-.55.1-.13.22-.19.38-.19.12 0 .26.04.34.14a.63.63 0 0 1 .12.31H7c-.04-.47-.24-.77-.6-.9-.2-.08-.44-.1-.64-.09-.46.04-.84.32-1 .84-.08.26-.09.52-.08.8.01.52.18.95.57 1.19.3.18.65.2.98.14A1.34 1.34 0 0 0 7 12.6v-1.2H5.86V11.88h.46Zm2.85-.55 1 1.66V13h-.85l-.64-1.1v-.01l-.35.32V13l-.01.01h-.66v-3h.66v1.3h.01L9.3 10h.89v.01l-1 1.31v.01ZM12.22 10a24.42 24.42 0 0 1-.51.01l-.34 1.82c0 .04-.01.04-.02 0l-.28-1.82-.6-.01v.01L11 13h.01l.62.01a987.88 987.88 0 0 0 .35-1.68A1074.58 1074.58 0 0 0 12.3 13h.63v-.01l.54-2.98h-.6l-.29 1.82c0 .04-.01.04-.02 0l-.34-1.82V10Z" fill="#000058"/><path d="M10.73 4c.03 0 .02.02 0 .05A8331.12 8331.12 0 0 1 8 7.75V6.73l2-2.73h.72ZM11.72 4c.02 0 .02.01 0 .02v.01A5720.6 5720.6 0 0 1 8 9.1v-.98c0-.02 0-.04.02-.05L10.99 4h.73Z" fill="#FD8B04"/></svg>