<!-- by TradingView --><svg width="18" height="18" viewBox="0 0 18 18" xmlns="http://www.w3.org/2000/svg"><path fill="#F0F3FA" d="M0 0h18v18H0z"/><path d="M7.48 5.28A2.64 2.64 0 0 0 6.3 5h-.27c-.45.01-.85.1-1.18.3-.44.24-.71.61-.8 1.12L4 6.7v4.56c0 .1.02.2.04.3.09.53.37.92.84 1.17.32.17.7.26 1.13.27h.31c.3-.02.52-.05.68-.1.72-.2 1.15-.62 1.3-1.24.05-.16.09-.43.09-.8V8.61l-.05-.02H6.4a.02.02 0 0 0-.02 0v1.07c0 .01 0 .02.02.02H7v1.29c0 .39-.07.8-.54.91a1.1 1.1 0 0 1-.76-.09.57.57 0 0 1-.22-.25.84.84 0 0 1-.1-.36V7.02c0-.25.04-.43.08-.53.08-.19.24-.31.47-.37.14-.03.3-.04.49-.01.45.06.58.44.58.81v.54h1.39v-.52c0-.21-.04-.4-.08-.58-.12-.5-.4-.85-.83-1.08Zm6.5-.28H9.38v.99l.01.01h1.6l.02.02v6.95c0 .02 0 .02.02.03a24 24 0 0 0 1.34-.03V6.02c0-.01 0-.02.02-.02h1.6c.01 0 .02 0 .02-.02v-.97L13.99 5Z" fill="#1D2B55"/></svg>