<!-- by TradingView --><svg width="18" height="18" viewBox="0 0 18 18" xmlns="http://www.w3.org/2000/svg"><path fill="#F0F3FA" d="M0 0h18v18H0z"/><path d="M4.37 11s-.39.02-.71-.03a1.84 1.84 0 0 1-1.5-1c-.17-.25-.25-1.18 0-1.72a2 2 0 0 1 2-1.24c.23.01.48.1.73.14h.03c.62-.35 1.03.8.7 1.21a.5.5 0 0 1-.71.04c-.24-.24-.37-.5-.72-.6a.5.5 0 0 0-.43.1c-.52.38-.34 1.38-.06 1.82.14.22.33.42.62.42.23 0 .35-.48.04-.47-.16.01-.3-.02-.35-.2-.16-.6.95-.62 1.26-.6.21 0 .5.07.65.13.46.18.16.85-.08.61h-.01c-.21.82-.7 1.27-1.46 1.38ZM12.42 10.96c-.2.04-1.15.13-1.67-.24-.3-.15-.41-.76-.4-1.04 0-.24.13-.34.38-.32.1.01.27.28.35.42.2.3.68.54 1 .34.2-.11.03-.31-.1-.35a5.45 5.45 0 0 1-.7-.28c-.21-.1-.38-.3-.53-.46a1.09 1.09 0 0 1 .07-1.58c.53-.49 1.07-.53 1.74-.35.11.03.2.07.25.1h.03c.14-.14.3-.12.45.03.27.28.62 1.02.03 1.17-.15.03-.25-.02-.36-.13-.3-.27-.52-.5-.86-.5-.3.07-.14.42.13.5.68.21 1.39.43 1.47 1.25.07.8-.6 1.28-1.28 1.44ZM13.88 10.65c-.09-.28.35-.4.37-.68V8.64c0-.34-.03-.56-.06-.68-.05-.18-.23-.22-.32-.36-.1-.14-.07-.28.08-.4.26-.24 1.06-.2 1.41-.18.3.01.67.07.64.5 0 0 0 .02-.02.03-.07.08-.18.1-.24.17-.15.18-.14.43-.14.69v1.5c0 .3.44.4.4.68-.05.27-.4.37-.61.4-.1 0-1.35.1-1.51-.34Z" fill="#2A4C7C"/><path d="M8.37 7c1.24 0 1.92 1 1.77 2.26-.1.9-.7 1.67-1.56 1.74h-1.8c-.4 0-.89 0-.8-.51 0-.11.17-.12.25-.14.01 0 .02 0 .03-.02.06-.12.11-.27.11-.31V7.83c0-.23-.52-.21-.28-.66l.03-.03A.88.88 0 0 1 6.48 7h1.9Zm.34 2.26c.02-.68 0-1.53-.83-1.57 0 0-.02 0-.02.02a.94.94 0 0 0-.03.2v2.2c0 .02 0 .06.03.1 0 .01 0 .02.02.03.2.13.31.11.47-.04.25-.23.35-.6.36-.94Z" fill="#2A4C7C"/></svg>