<!-- by TradingView --><svg width="18" height="18" viewBox="0 0 18 18" xmlns="http://www.w3.org/2000/svg"><path fill="url(#a3ja3aj2d)" d="M0 0h18v18H0z"/><path d="M9 11v4l-4.44-2.84a1.16 1.16 0 0 1-.56-.97V7.6L9 11Z" fill="url(#b3ja3aj2d)"/><path d="M4 7.55v3.25c0-.48 1.06-1.13 1.6-1.4L9 7.2V3L4.83 6c-.52.38-.83.95-.83 1.55Z" fill="url(#c3ja3aj2d)"/><path d="M14 7.55v3.25c0-.48-1.06-1.13-1.6-1.4L9 7.2V3l4.17 3c.52.38.83.95.83 1.55Z" fill="url(#d3ja3aj2d)"/><path d="M9 11v4l4.44-2.84c.35-.23.56-.59.56-.97V7.6L9 11Z" fill="url(#e3ja3aj2d)"/><defs><linearGradient id="a3ja3aj2d" x1="3.35" y1="3.12" x2="21.9" y2="24.43" gradientUnits="userSpaceOnUse"><stop stop-color="#1A1E21"/><stop offset="1" stop-color="#06060A"/></linearGradient><linearGradient id="b3ja3aj2d" x1="4" y1="11.47" x2="9.23" y2="11.38" gradientUnits="userSpaceOnUse"><stop stop-color="#FBC638"/><stop offset=".55" stop-color="#F9D07C"/><stop offset="1" stop-color="#FEE1AA"/></linearGradient><linearGradient id="c3ja3aj2d" x1="4" y1="7.08" x2="9.23" y2="6.99" gradientUnits="userSpaceOnUse"><stop stop-color="#F7BC4B"/><stop offset=".33" stop-color="#E2A92D"/><stop offset=".6" stop-color="#FEF7C0"/><stop offset=".82" stop-color="#F7C35B"/><stop offset="1" stop-color="#F4B43F"/></linearGradient><linearGradient id="d3ja3aj2d" x1="14" y1="7.08" x2="9.23" y2="6.98" gradientUnits="userSpaceOnUse"><stop stop-color="#DCA220"/><stop offset=".4" stop-color="#ECC566"/><stop offset=".6" stop-color="#FEF7C0"/><stop offset=".82" stop-color="#FBD37E"/><stop offset="1" stop-color="#F5A927"/></linearGradient><linearGradient id="e3ja3aj2d" x1="14" y1="11.47" x2="9" y2="11.38" gradientUnits="userSpaceOnUse"><stop stop-color="#FBC638"/><stop offset=".4" stop-color="#FED370"/><stop offset="1" stop-color="#FEC615"/></linearGradient></defs></svg>