<!-- by TradingView --><svg width="18" height="18" viewBox="0 0 18 18" xmlns="http://www.w3.org/2000/svg"><path fill="#F0F3FA" d="M0 0h18v18H0z"/><path d="M8.22 11 7 14h4l-1.22-3H8.22Z" fill="#6D74B3"/><path d="M8.22 7 7 4h4L9.78 7H8.22Z" fill="#C0C3C4"/><path d="M7 8.22 4 7v4l3-1.22V8.22Z" fill="#EFEFEF"/><path d="m10 9 4-2v4l-4-2Z" fill="#FFDC32"/><path d="M7.75 6.72 6.64 4 4 6.64l2.72 1.11 1.03-1.03Z" fill="#E1E1E1"/><path d="M11.28 10.25 14 11.36 11.36 14l-1.11-2.72 1.03-1.03Z" fill="#4C5BA1"/><path d="M11.28 7.75 14 6.64 11.36 4l-1.11 2.72 1.03 1.03Z" fill="#A0A0A0"/><path d="M7.75 11.28 6.64 14 4 11.36l2.72-1.11 1.03 1.03Z" fill="#8A8DC1"/></svg>