<!-- by TradingView --><svg width="18" height="18" viewBox="0 0 18 18" xmlns="http://www.w3.org/2000/svg"><path fill="#F0F3FA" d="M0 0h18v18H0z"/><path d="m6.73 6 5.74 2.62-.4 1.75-5.74-2.62.4-1.75Z" fill="url(#aqerpuitq)"/><path d="m6.2 8.63 5.47 2.62-.4 1.75-5.47-2.62.4-1.75Z" fill="url(#bqerpuitq)"/><path d="M6.15 8.63h6.32l-.35 1.75H5.8l.35-1.75Z" fill="url(#cqerpuitq)"/><path d="M5.35 11.25h6.32L11.32 13H5l.35-1.75Z" fill="url(#dqerpuitq)"/><path d="M6.68 6H13l-.35 1.75H6.33L6.68 6Z" fill="url(#eqerpuitq)"/><path d="M8.17 4.43c.07-.26.28-.43.52-.43h1.96c.24 0 .4.27.33.54l-.14.46H8l.17-.57Z" fill="url(#fqerpuitq)"/><defs><linearGradient id="aqerpuitq" x1="12.46" y1="8.7" x2="6.33" y2="8.7" gradientUnits="userSpaceOnUse"><stop stop-color="#919196"/><stop offset="1" stop-color="#B9C2C7"/></linearGradient><linearGradient id="bqerpuitq" x1="11.66" y1="11.33" x2="5.8" y2="11.33" gradientUnits="userSpaceOnUse"><stop stop-color="#919196"/><stop offset="1" stop-color="#B9C2C7"/></linearGradient><linearGradient id="cqerpuitq" x1="12.47" y1="8.63" x2="5.8" y2="8.63" gradientUnits="userSpaceOnUse"><stop stop-color="#1A2F4C"/><stop offset="1" stop-color="#3A7DAA"/></linearGradient><linearGradient id="dqerpuitq" x1="11.67" y1="11.25" x2="5" y2="11.25" gradientUnits="userSpaceOnUse"><stop stop-color="#1A2F4C"/><stop offset="1" stop-color="#3A7DAA"/></linearGradient><linearGradient id="eqerpuitq" x1="13" y1="6" x2="6.33" y2="6" gradientUnits="userSpaceOnUse"><stop stop-color="#1A2F4C"/><stop offset="1" stop-color="#3A7DAA"/></linearGradient><linearGradient id="fqerpuitq" x1="11" y1="4.62" x2="8" y2="4.62" gradientUnits="userSpaceOnUse"><stop stop-color="#919196"/><stop offset="1" stop-color="#B9C2C7"/></linearGradient></defs></svg>