<!-- by TradingView --><svg width="18" height="18" viewBox="0 0 18 18" xmlns="http://www.w3.org/2000/svg"><path fill="#F0F3FA" d="M0 0h18v18H0z"/><path d="M5.17 14.68c-.39-.3 0-2.2 0-2.2.17-1.59.21-3.18.13-4.78-.03-.55-.01-.89.07-1.03.2-.37.45-.54.9-.52a.06.06 0 0 0 .04-.02l.02-.03V3.91c0-.37.16-.7.49-.84.1-.05.2-.07.32-.07h3.72c.1 0 .2.02.3.07.1.05.2.11.26.2a.9.9 0 0 1 .17.3c.04.1.08.22.08.34V6c0 .1.05.15.14.15.4-.01.59.15.8.48.1.15.13.47.1.95-.13 1.95-.05 3.94.25 5.96.06.38.05.66-.02.83-.16.43-.53.63-.96.63h-1.37c-.3 0-.49-.1-.63-.2-.54-.35-.5-1-.54-1.75 0-.1-.06-.17-.16-.17H8.7c-.09 0-.13.06-.14.16-.03.53-.06.86-.09 1-.14.72-.4.92-1.02.96H5.75c-.48-.11-.45-.22-.58-.32ZM9.01 4c.1 0 .18.02.25.06a204.18 204.18 0 0 1 1.63.82c.05 0 .11-.05.11-.1v-.81c0-.13-.17-.26-.28-.26H7.24a.23.23 0 0 0-.17.07.28.28 0 0 0-.07.19v.8c0 .08.05.12.11.1.24-.13.82-.4 1.64-.8A.54.54 0 0 1 9.01 4Zm-.4 1.47H9.44l.04-.03a.14.14 0 0 0 .04-.1v-.02a.58.58 0 0 0-.14-.38.49.49 0 0 0-.16-.11.45.45 0 0 0-.19-.05h-.07a.47.47 0 0 0-.35.16c-.09.1-.14.24-.14.38v.02c0 .03.01.07.03.1.03.02.06.03.1.03Zm1.05 6.7c.1 0 .2.04.27.1.07.08.12.17.13.28l.13 1.42c.01.09.05.17.11.24.07.06.15.08.23.08h1.5c.13 0 .24-.08.28-.21a.33.33 0 0 0 0-.13 30.92 30.92 0 0 1-.27-6.86c-.03-.1-.14-.2-.24-.2h-.6a.2.2 0 0 1-.14-.07.22.22 0 0 1-.06-.15v-.84c0-.1-.04-.17-.12-.21l-.54-.28c-.07-.04-.11 0-.11.09l.05 1.87c0 .03 0 .06.02.1a.2.2 0 0 0 .07.07c.2.11.42.15.66.1a.25.25 0 0 1 .23.06l.07.1.02.14c-.08 1.86-.01 3.75.22 5.53.02.13-.04.19-.16.19h-.45c-.04 0-.08 0-.1-.03a.18.18 0 0 1-.06-.11 39.99 39.99 0 0 1-.2-5 .24.24 0 0 0-.05-.08.22.22 0 0 0-.07-.05.2.2 0 0 0-.08-.03H7.6a.22.22 0 0 0-.16.07.26.26 0 0 0-.06.17c.04 1.68-.03 3.3-.2 4.91 0 .04-.01.08-.04.11a.14.14 0 0 1-.1.04h-.47c-.12 0-.17-.07-.15-.2.23-1.77.3-3.66.23-5.53 0-.04 0-.09.02-.13a.29.29 0 0 1 .07-.1.26.26 0 0 1 .1-.06.25.25 0 0 1 .13 0c.24.05.46.01.66-.1a.2.2 0 0 0 .06-.08.2.2 0 0 0 .03-.1l.05-1.87c0-.1-.03-.12-.11-.08l-.55.25c-.08.04-.12.1-.12.2v.9c0 .12-.1.19-.2.2h-.6c-.1 0-.2.09-.23.19a30.87 30.87 0 0 1-.28 6.86.33.33 0 0 0 .06.25.27.27 0 0 0 .22.1h1.5c.08 0 .16-.02.22-.09.06-.06.1-.14.11-.23l.14-1.42c0-.1.06-.2.13-.28.07-.07.17-.1.27-.1h1.32Zm-.14-6.01a.18.18 0 0 0-.05-.12.15.15 0 0 0-.1-.05h-.74c-.07 0-.13.02-.16.1l-.01.06v.2c0 .04.01.09.04.12s.07.06.11.06h.75l.06-.01.05-.04a.18.18 0 0 0 .05-.12v-.2Zm.05 1.07c0-.1-.09-.2-.19-.2h-.77a.19.19 0 0 0-.18.12l-.01.08v.15c0 .05.02.1.05.14.04.04.09.07.14.07h.77l.07-.02a.19.19 0 0 0 .06-.04.2.2 0 0 0 .06-.15v-.15Z" fill="#E60012"/><path d="m7.98 11.39.05-2.31.03-.06A.08.08 0 0 1 8.1 9H9.9c.02 0 .04 0 .05.02l.03.06.05 2.3a.08.08 0 0 1-.05.08l-.03.01H8.06a.08.08 0 0 1-.06-.02.08.08 0 0 1-.02-.06Zm1.35-1.61a.07.07 0 0 0-.02-.05.07.07 0 0 0-.04-.02h-.54a.06.06 0 0 0-.05.02l-.01.02V10.7l.01.05.05.02h.54l.04-.02a.07.07 0 0 0 .02-.05v-.92Z" fill="#E60012"/></svg>