<!-- by TradingView --><svg width="18" height="18" viewBox="0 0 18 18" xmlns="http://www.w3.org/2000/svg"><path fill="#F0F3FA" d="M0 0h18v18H0z"/><path d="M12.56 4.94c.02.04.03.09 0 .13l-.03.03a.08.08 0 0 1-.06.01c-.1-.02-.18-.05-.26-.09a6.87 6.87 0 0 0-2.96-.81c-.28-.01-.55-.02-.81-.01a6.69 6.69 0 0 0-3.57 1.2l-.66.49c-.04.03-.1.09-.15.17C4 6.12 4 6.11 4 6.04c0-.05.02-.08.05-.11a6.87 6.87 0 0 1 3.91-1.9c.5-.05 1-.04 1.5.03a9.28 9.28 0 0 1 2.86.83c.07.03.14.05.21.04l.03.01Z" fill="#96C158"/><path d="m9.46 6.29-.17-.06a.5.5 0 0 0-.24-.25l-.01-.03.01-.02c.1-.02.14-.09.12-.19 0-.03-.02-.04-.05-.05a.2.2 0 0 0-.2.09l-.03.01h-.03a.32.32 0 0 0-.14-.09c-.06-.01-.1.01-.14.07a.07.07 0 0 1-.05.03c-.03 0-.05 0-.06-.02a.15.15 0 0 0-.09-.03H8.3c-.05.02-.09.02-.11 0-.03 0-.03-.02 0-.03a.21.21 0 0 1 .11-.01l.03-.01v-.03a.49.49 0 0 0-.12-.16.33.33 0 0 0-.19-.08.16.16 0 0 1-.13-.08c-.04-.06-.1-.08-.16-.06l-.05.01c-.06.02-.08.05-.04.1.09.14.18.24.28.33.03.02.02.04-.02.04l-.06.01c-.05.01-.1 0-.12-.05a.56.56 0 0 0-.27-.19 1.3 1.3 0 0 0-.33-.06c-.1 0-.17-.07-.22-.17 0-.03 0-.05.03-.06a4.86 4.86 0 0 1 2.86-.28 4.85 4.85 0 0 1 2.74 1.56 4.63 4.63 0 0 1 .89 1.62c.01.09-.02.1-.09.04a2.88 2.88 0 0 1-.09-.09c-.1-.1-.18-.17-.24-.2a1.8 1.8 0 0 0-.79-.23c-.27-.01-.55.02-.82.1-.2.07-.41.21-.66.44-.17.16-.2.13-.1-.07.06-.11.14-.23.24-.33a.14.14 0 0 0 .02-.16.44.44 0 0 1-.05-.2.06.06 0 0 0-.03-.05.06.06 0 0 0-.06 0 .36.36 0 0 0-.2.27v.01h-.03c-.01 0-.02 0-.02-.02.01-.27.14-.42.37-.43.04 0 .07-.01.1-.04a.55.55 0 0 0 .15-.26v-.05a.07.07 0 0 0-.05-.03c-.16-.05-.28-.1-.38-.15a.93.93 0 0 1-.3-.26c-.07-.08-.12-.07-.16.02-.02.05-.06.07-.1.07a.09.09 0 0 1-.07-.04l-.03-.04a.62.62 0 0 0-.06-.08.25.25 0 0 0-.08-.06c-.17-.07-.3-.1-.37-.09-.06.02-.08.04-.06.07Z" fill="#3689C3"/><path d="m14.76 7.11-.7-.1a1.2 1.2 0 0 1-.69-.37 1.91 1.91 0 0 1-.43-.67l-.2-.54c-.04-.12-.04-.23 0-.31.03-.1.12-.15.27-.14l.43.05c.14.02.27.05.38.1.26.09.47.26.62.5l.17.3c.05.12.1.23.12.33a7.6 7.6 0 0 0 .26.89.03.03 0 0 1-.04 0 1.1 1.1 0 0 0-.19-.04Z" fill="#96C158"/><path d="M13.84 6.25c-.16-.2-.3-.35-.42-.47a3.8 3.8 0 0 0-.45-.39c-.07-.05-.06-.08.03-.07l.12.03c.35.18.62.47.82.9.01.02 0 .03-.03.03a.1.1 0 0 1-.07-.03Z" fill="#fff"/><path d="M4.22 8.64a.13.13 0 0 1-.03-.11c.09-.5.29-.97.6-1.45.29-.44.64-.83 1.05-1.17a.14.14 0 0 1 .1-.04c.03 0 .06.02.09.04.1.1.18.21.26.35.04.06.05.12.04.19a8.3 8.3 0 0 0-.09 1.19.11.11 0 0 1-.08.03c-.35-.01-.65.02-.88.09-.29.08-.53.24-.72.46a9.51 9.51 0 0 0-.34.42ZM9.29 6.23l.17.06.25.53v.07a.6.6 0 0 0-.02.43c.02.05 0 .07-.05.05a.34.34 0 0 1-.06-.03.25.25 0 0 1-.1-.12l-.07-.17A.07.07 0 0 0 9.35 7a1.45 1.45 0 0 1-.65-.28c-.1-.08-.13-.17-.09-.29.03-.07.1-.16.2-.26a.07.07 0 0 1 .07-.02l.4.08Z" fill="#398AB1"/><path d="M5.92 10.65c.16 0 .33-.06.52-.17.22-.13.38-.3.47-.53.03-.1-.07-.1-.12-.1l-1.04.01c-.1 0-.15-.05-.15-.16v-.14c0-.08.05-.12.13-.12l1.77-.01c.02 0 .03 0 .04.02l.02.04c0 .22-.05.46-.15.71-.08.21-.24.42-.47.61-.4.33-.86.44-1.41.34-.32-.05-.6-.19-.83-.4-.24-.23-.4-.5-.47-.8-.1-.46-.09-.83.05-1.13.32-.68.87-1.05 1.64-1.07.15 0 .27 0 .35.02.46.1.82.37 1.08.81.01.02.01.04 0 .07 0 .02-.02.04-.04.04h-.5a.22.22 0 0 1-.16-.07c-.61-.6-1.55-.3-1.85.44-.08.18-.1.37-.07.57.03.19.1.36.22.52.11.16.25.28.42.37.18.1.36.14.55.13ZM12.3 8.33a1.2 1.2 0 0 0-.92.18c-.17.1-.3.25-.38.44a1.2 1.2 0 0 0-.11.56c0 .2.06.39.15.56.1.18.24.31.42.41.48.26.92.22 1.32-.11a.43.43 0 0 1 .2-.1h.2c.13 0 .23-.01.3-.03h.04l.02.04a.2.2 0 0 1-.05.15l-.29.33c-.26.25-.59.4-.98.42a1.7 1.7 0 0 1-1.55-.66c-.24-.3-.36-.67-.36-1.1 0-.29.09-.58.28-.87a1.73 1.73 0 0 1 1.43-.8 1.7 1.7 0 0 1 1.5.84c.03.02.03.05.01.07a.07.07 0 0 1-.06.04H13.13a.56.56 0 0 1-.29-.1 1.4 1.4 0 0 0-.54-.27Z" fill="#5C895C"/><path d="M6.04 8.96c.01.04.03.08.07.1a.7.7 0 0 0 .1.08c.03.01.04.03.03.06 0 .06-.05.11-.12.11-.2 0-.38.01-.56 0-.04 0-.08 0-.1.03a.13.13 0 0 0-.05.1l.01.46c0 .03.01.05.03.06a.1.1 0 0 0 .07.03l.86.01c.06 0 .12.03.17.09.02.01.02.04.02.06 0 .03-.01.05-.03.06a.98.98 0 0 1-.66.24.96.96 0 0 1-.95-.68.8.8 0 0 1-.05-.34c0-.1.04-.22.09-.34.17-.4.48-.6.93-.61a.1.1 0 0 1 .08.03.1.1 0 0 1 .02.07c0 .14 0 .27.04.38Z" fill="#398AB1"/><path d="M11.15 9.88c-.09-.2-.12-.4-.08-.61.03-.23.13-.41.3-.54.19-.15.4-.23.63-.25a.88.88 0 0 1 .68.22l.12.1c.05.02.1.04.14.04.18.02.36.02.55 0a.1.1 0 0 1 .07.02l.03.06.03.29a20.07 20.07 0 0 1-.04.87 5.37 5.37 0 0 1-.58.02.33.33 0 0 0-.17.03.98.98 0 0 0-.15.1l-.07.06c-.2.15-.44.2-.72.15a.92.92 0 0 1-.74-.56Z" fill="#3689C3"/><path d="M10.18 12.04c-.02 0-.03 0-.03.02-.14 0-.24-.05-.29-.15a.66.66 0 0 1-.04-.32c0-.05-.02-.08-.08-.08l-.4-.03c-.11 0-.14-.05-.1-.14v-.02c.05-.1.12-.13.22-.13.22.02.46.02.7 0 .04 0 .07-.02.1-.04a.13.13 0 0 0 .04-.1v-.16c0-.03.02-.05.06-.04l.2.03c.03 0 .04 0 .06-.02a.05.05 0 0 0 .01-.06.08.08 0 0 0-.06-.05c-.13-.03-.21-.1-.26-.18a.2.2 0 0 0-.07-.07.11.11 0 0 0-.07-.02c-.13.01-.25.02-.38 0-.3-.02-.6-.02-.89 0-.08 0-.11-.04-.11-.11v-.32c0-.07.03-.1.1-.09.08.02.15 0 .2-.04a.5.5 0 0 1 .28-.07c.1 0 .19 0 .3.02.04.01.07.04.08.08.06.16.14.3.24.43.03.03.07.05.12.04.03 0 .04-.01.03-.04-.02-.1-.06-.2-.1-.3a.62.62 0 0 1-.08-.32c0-.1.03-.22.08-.32a.15.15 0 0 1 .07-.08h.06c.02.01.03.03.03.05 0 .53.19.98.55 1.35l.06.09.01.03.04.04.4.17c.34.15.69.2 1.03.17.37-.04.68-.17.94-.4l.19-.18c.04-.04.05-.03.03.02-.09.24-.2.48-.31.73a.37.37 0 0 1-.13.14 1.3 1.3 0 0 1-.18.1c-.06.03-.08.01-.05-.05a.26.26 0 0 0 .02-.14.1.1 0 0 0-.05-.08.1.1 0 0 0-.1 0 .75.75 0 0 0-.2.13.07.07 0 0 1-.07.02l-.1-.04a1.3 1.3 0 0 0-.2-.05.56.56 0 0 0-.22.01c-.22.05-.44.1-.68.12-.27.03-.45.14-.54.34a.14.14 0 0 1-.09.08.14.14 0 0 1-.12-.01c-.1-.06-.18-.04-.25.04Z" fill="#398AB1"/><path d="M10.15 12.06c0-.01.01-.02.03-.02.22.01.33.12.31.32-.01.12-.1.24-.27.36a.36.36 0 0 0-.11.13.88.88 0 0 0-.05.15l-.04.11c0 .03 0 .05.02.07l.35.32c.02.02.04.03.07.03.1.02.2.02.3.01l.03.01v.04c0 .01 0 .02-.02.02a5.06 5.06 0 0 1-3.72.04 4.74 4.74 0 0 1-2.84-3.2c-.04-.1-.02-.11.05-.04l.1.1c.14.17.25.28.33.35.13.12.27.2.42.25.19.07.37.12.56.14.21.03.4.03.57-.01.2-.05.38-.11.54-.18.07-.03.16-.1.28-.2l.14-.1c.1-.07.13-.05.1.06-.01.07 0 .14.03.2.03.05.08.1.14.13l.4.23c.17.07.32.12.45.13h.13a.53.53 0 0 1 .1-.02.1.1 0 0 1 .07.02 1 1 0 0 0 .3.17 2.68 2.68 0 0 0 .4.1c.07.02.14.05.19.1.17.2.36.3.58.32.07 0 .09-.04.06-.14Z" fill="#3689C3"/><path d="m8.53 10.7 1.25.01c.12 0 .17.06.16.19l-.03.2c0 .05-.04.09-.09.09H7.98c-.04 0-.1-.03-.1-.07v-3.3c0-.04.05-.06.09-.06l1.9-.01c.05 0 .08.03.07.08v.33c0 .06-.03.08-.08.08H8.53v.89h1.05c.02 0 .04 0 .05.02l.02.06-.04.34c0 .05-.03.08-.08.07h-1v1.09Z" fill="#5C895C"/></svg>