<!-- by TradingView --><svg width="18" height="18" viewBox="0 0 18 18" xmlns="http://www.w3.org/2000/svg"><path fill="#F0F3FA" d="M0 0h18v18H0z"/><path d="M12.43 12.72a5.08 5.08 0 0 1-5.3.9 4.98 4.98 0 0 1 1.55-9.6 5.01 5.01 0 0 1 4.17 1.68c.01.02 0 .04-.01.05l-1.44.92h-.06a3.21 3.21 0 0 0-2.95-.88 3.27 3.27 0 0 0-.96 6.07c.94.52 1.96.56 3.05.1a.29.29 0 0 1 .22 0l1.7.62.04.02a.09.09 0 0 1 .01.09l-.02.03Z" fill="#00A0E2"/><path d="M12.67 8.9c.73 0 1.33-.59 1.33-1.32 0-.73-.6-1.32-1.33-1.32-.73 0-1.33.6-1.33 1.32 0 .73.6 1.32 1.33 1.32ZM13.4 12.86c-.36-.3-.96-.59-1.8-.85-.72-.21-1.5-.5-2.35-.85-.18-.08-.4-.23-.67-.46-.81-.72-.91-2.06-.7-3.1.01-.09.06-.1.14-.06.71.46 1.18.7 1.4.76 1.12.27 2.01.54 2.67.82 1.71.72 2 2.36 1.89 4.02 0 .1-.05.13-.14.08-.05-.04-.2-.15-.44-.36Z" fill="#3A3086"/></svg>