<!-- by TradingView --><svg width="18" height="18" viewBox="0 0 18 18" xmlns="http://www.w3.org/2000/svg"><path fill="#F0F3FA" d="M0 0h18v18H0z"/><path fill-rule="evenodd" d="M13.5 11c1.38 0 2.5-.9 2.5-2s-1.12-2-2.5-2-2.5.9-2.5 2 1.12 2 2.5 2Zm0-.67c.83 0 1.5-.6 1.5-1.33 0-.74-.67-1.33-1.5-1.33S12 8.27 12 9c0 .74.67 1.33 1.5 1.33Z" fill="#00519F"/><path d="M4.5 11C5.88 11 7 10.1 7 9c0-.09 0-.18-.02-.27H4.52c-.14 0-.25.15-.25.34 0 .19.11.34.25.34h1.4c-.18.53-.75.92-1.42.92-.83 0-1.5-.6-1.5-1.33 0-.74.67-1.33 1.5-1.33.4 0 .77.14 1.04.36h1.15A2.65 2.65 0 0 0 4.5 7C3.12 7 2 7.9 2 9s1.12 2 2.5 2ZM7.78 7h.32L9 9.36 9.9 7h.32l.78 4h-.78l-.4-2.02-.67 1.68h-.3l-.68-1.68L7.78 11H7l.78-4Z" fill="#00519F"/></svg>