<!-- by TradingView --><svg width="18" height="18" viewBox="0 0 18 18" xmlns="http://www.w3.org/2000/svg"><path fill="#F0F3FA" d="M0 0h18v18H0z"/><path d="m6.08 10.16-.54.82c-.77.08-1.43-.1-1.96-.57a1.61 1.61 0 0 1-.53-.94c-.09-.41-.06-.81.07-1.2.26-.73.99-1.1 1.81-1.22a5.51 5.51 0 0 1 2.04.12l.01.06L6.9 8a.01.01 0 0 1-.02 0c-.4-.18-.82-.25-1.27-.22-.99.07-1.59.61-1.4 1.55.12.58.68.9 1.32.92.2.01.38-.02.55-.09Z" fill="#003975"/><path d="M7.13 8.75a1.74 1.74 0 0 1 0 .04l-.46.7-1.23.01c-.03 0-.04-.01-.04-.04v-.68c0-.02.01-.03.03-.03h1.7Z" fill="#003975"/><path d="m9.02 8.54-.62.9-.22-.32-.01-.01a.03.03 0 0 0-.03 0h-.01l-1.3 1.85a.15.15 0 0 1-.08.04H5.5l.57-.84.53-.76c.49-.73.98-1.42 1.5-2.18a.02.02 0 0 1 .03 0l.88 1.32Z" fill="#ED1C24"/><path fill-rule="evenodd" d="M11.53 9.7 12.6 11V9.42h.64c.01 0 .02 0 .02.02l.63 1.53c.01.02.03.03.05.03h1.04a.03.03 0 0 0 .02-.01.02.02 0 0 0 0-.02l-.76-1.7a.03.03 0 0 1 0-.04h.01c.59-.24.85-.86.65-1.41-.2-.53-.6-.8-1.21-.8C13.1 7 12.39 7 11.58 7c-.03 0-.05 0-.05.03V9.7Zm1.08-1.93-.01.03v.9l.01.04.03.01h.88c.27 0 .41-.3.41-.46V8.2c0-.16-.13-.46-.4-.46h-.9l-.02.02Z" fill="#003975"/><path d="M12.6 11h-1.18l-.02-.02-.02-.02-1.4-1.84a.03.03 0 0 0-.03 0h-.01l-.26.37v.05h-.01c-.02 0-.02 0-.03.02l-.59.84c-.01.01 0 .03.01.04-.03 0-.05 0-.06.02a7.53 7.53 0 0 1-.41.54H7.37l-.01-.01a.02.02 0 0 1 0-.02L8.4 9.44l.62-.9.89-1.3v-.01a.03.03 0 0 1 .04 0L12.6 11Z" fill="#FAA61A"/><path d="m9.68 9.54.96 1.42V11h-.01l-.02.01H9.48a.1.1 0 0 1-.05-.01.08.08 0 0 1-.03-.03l-.34-.52a19.72 19.72 0 0 0 .62-.9Z" fill="#ED1C24"/></svg>