<!-- by TradingView --><svg width="18" height="18" viewBox="0 0 18 18" fill="none" xmlns="http://www.w3.org/2000/svg">
<rect width="18" height="18" fill="#F0F3FA"/>
<path fill-rule="evenodd" clip-rule="evenodd" d="M7.21824 11C8.07335 11 8.76655 10.3284 8.76655 9.5C8.76655 8.67157 8.07335 8 7.21824 8C6.36313 8 5.66992 8.67157 5.66992 9.5C5.66992 10.3284 6.36313 11 7.21824 11ZM7.21834 10.3C7.63282 10.3 7.96881 9.94186 7.96881 9.50003C7.96881 9.0582 7.63282 8.70003 7.21834 8.70003C6.80387 8.70003 6.46787 9.0582 6.46787 9.50003C6.46787 9.94186 6.80387 10.3 7.21834 10.3Z" fill="#D29D01"/>
<path fill-rule="evenodd" clip-rule="evenodd" d="M10.8332 11C11.8602 11 12.6927 10.2088 12.6927 9.23278C12.6927 8.25678 11.8602 7.46558 10.8332 7.46558C9.80617 7.46558 8.97363 8.25678 8.97363 9.23278C8.97363 10.2088 9.80617 11 10.8332 11ZM10.8333 10.2966C11.3952 10.2966 11.8507 9.82034 11.8507 9.23279C11.8507 8.64524 11.3952 8.16894 10.8333 8.16894C10.2714 8.16894 9.81596 8.64524 9.81596 9.23279C9.81596 9.82034 10.2714 10.2966 10.8333 10.2966Z" fill="#2548A2"/>
<path fill-rule="evenodd" clip-rule="evenodd" d="M3.94382 11C4.559 11 5.10744 10.7259 5.46361 10.2979V8.76225H4.90263C4.90263 8.76226 4.90264 8.76226 4.90264 8.76227H3.92423V9.50819H4.69392V9.8673C4.50733 10.0802 4.2404 10.2135 3.94397 10.2135C3.37984 10.2135 2.92253 9.73075 2.92253 9.13526C2.92253 8.53976 3.37984 8.05702 3.94397 8.05702C4.26026 8.05702 4.54297 8.20877 4.73033 8.44706L5.3094 7.80809C4.95837 7.47562 4.47607 7.27039 3.94382 7.27039C2.87028 7.27039 2 8.10529 2 9.1352C2 10.1651 2.87028 11 3.94382 11Z" fill="#D29D01"/>
<path d="M13 7.46558V11H13.7527V8.75397L15.13 11H15.7651V7.46558H15V9.65933L13.5843 7.46558H13Z" fill="#2548A2"/>
<path d="M10.0491 6.00014C7.08932 5.98946 5.22758 6.60108 4.30762 7.11905C5.08267 7.11905 5.45424 7.59667 5.62577 7.72322C6.39823 7.34356 7.81946 6.66976 10.709 6.60108C13.5985 6.5324 15.0556 6.99719 16.0005 7.39717C15.1623 6.83121 13.853 6.01385 10.0491 6.00014Z" fill="#D29D01"/>
</svg>
