<!-- by TradingView --><svg width="18" height="18" viewBox="0 0 18 18" xmlns="http://www.w3.org/2000/svg"><path fill="#3A3A3A" d="M0 0h18v18H0z"/><path d="M8.86 9.36c-1.18 0-1.57.29-1.62.43-.1-.76.41-1.07.68-1.13h4.34s-.27.47-.38.7H8.86Z" fill="url(#arylgdtpu)"/><path d="m12.65 8-.48.82H8.49L9.89 8h2.76Z" fill="url(#brylgdtpu)"/><path d="M7.95 9.43c-.33.05-.6.2-.68.26l-.11-.45L8.47 8h2.92a7.55 7.55 0 0 0-3.44 1.43Z" fill="#AA7F40"/><path d="M11.18 10.45h-3.3c-.35.16-.4.43-.37.55h3.38l.29-.55Z" fill="url(#crylgdtpu)"/><path d="M8 11.82c-.45-.06-.5-.59-.5-.82h3.4l-.78 1.43-1.8.17.5-.78H8Z" fill="url(#drylgdtpu)"/><path d="m8.49 12.34-.18.25.8.08 1.08-.37.17-.32a3.8 3.8 0 0 1-1.87.36Z" fill="#5A2F0E"/><path d="M8.24 12.55c.8 0 1.63-.15 1.95-.22l-.93 1.53c-.11.04-.46.14-.83.14-2.68 0-3.47-2.06-3.43-3.1C5 9.04 6.96 8 8.13 8h3.64l-.6.05c-2.99.25-4.5 2.06-4.5 2.85 0 .69.57 1.65 1.57 1.65Z" fill="url(#erylgdtpu)"/><path d="M9.53 13.4c-1.4.07-3.8-.31-3.8-2.35 0-2.08 3.12-2.82 4.99-3.05h-2.6C6.97 8 5 9.04 5 10.9c-.04 1.04.75 3.1 3.43 3.1.37 0 .72-.1.83-.14l.27-.45Z" fill="url(#frylgdtpu)"/><path d="M8.83 5C5.66 5 5.05 7.05 5.01 8.07a4.5 4.5 0 0 1 2.96-1.5h5.2L14 5H8.83Z" fill="url(#grylgdtpu)"/><path d="M13.46 6H8.67a4.17 4.17 0 0 0-3.65 2.06v.14c.9-1.11 2.32-1.16 2.92-1.2h5.07l.45-1Z" fill="url(#hrylgdtpu)"/><defs><linearGradient id="arylgdtpu" x1="7.83" y1="9.44" x2="11.17" y2="8.18" gradientUnits="userSpaceOnUse"><stop stop-color="#C09F5D"/><stop offset="1" stop-color="#E5D3A4"/></linearGradient><linearGradient id="brylgdtpu" x1="8.71" y1="8.48" x2="11.3" y2="8.93" gradientUnits="userSpaceOnUse"><stop stop-color="#CBA864"/><stop offset="1" stop-color="#E3D29F"/></linearGradient><linearGradient id="crylgdtpu" x1="7.5" y1="10.73" x2="10.86" y2="10.79" gradientUnits="userSpaceOnUse"><stop stop-color="#B0884A"/><stop offset="1" stop-color="#D7C08C"/></linearGradient><linearGradient id="drylgdtpu" x1="7.55" y1="11.04" x2="9.03" y2="12.75" gradientUnits="userSpaceOnUse"><stop stop-color="#C0A067"/><stop offset="1" stop-color="#A2773D"/></linearGradient><linearGradient id="erylgdtpu" x1="9" y1="12.86" x2="5.6" y2="12.36" gradientUnits="userSpaceOnUse"><stop stop-color="#E6D8AD"/><stop offset="1" stop-color="#BE9862"/></linearGradient><linearGradient id="frylgdtpu" x1="5.12" y1="11.44" x2="8.71" y2="8.9" gradientUnits="userSpaceOnUse"><stop stop-color="#B38A52"/><stop offset="1" stop-color="#E9D9B3"/></linearGradient><linearGradient id="grylgdtpu" x1="12.91" y1="5.64" x2="9.55" y2="8.13" gradientUnits="userSpaceOnUse"><stop stop-color="#E5CE82"/><stop offset="1" stop-color="#E4D1A2"/></linearGradient><linearGradient id="hrylgdtpu" x1="5.01" y1="7.15" x2="13.41" y2="7.15" gradientUnits="userSpaceOnUse"><stop stop-color="#C39F60"/><stop offset="1" stop-color="#EDDEAF"/></linearGradient></defs></svg>