<!-- by TradingView --><svg width="18" height="18" viewBox="0 0 18 18" fill="none" xmlns="http://www.w3.org/2000/svg">
<rect width="18" height="18" fill="#F0F3FA"/>
<path fill-rule="evenodd" clip-rule="evenodd" d="M6.5 8C7.88071 8 9 7.10457 9 6C9 4.89543 7.88071 4 6.5 4C5.11929 4 4 4.89543 4 6C4 7.10457 5.11929 8 6.5 8ZM5.24151 9H7.6527L8.86342 10.4301C8.53851 11.613 7.6014 13.983 6.45223 13.9999C5.30307 14.0169 4.33859 11.6271 4 10.4301L5.24151 9ZM10.2585 9L9 10.2885V12.9168C9.00706 13.0471 9.19837 13.4009 9.90709 13.4077H10.7759C10.9009 13.4077 11.2206 13.5261 11.5 14C11.7794 13.5261 12.0991 13.4077 12.2241 13.4077H13.0929C13.8016 13.4009 13.9929 13.0471 14 12.9168V10.2885L12.7415 9H11.5H10.2585ZM12.4029 4L13.6875 5.14961V6.79528L12.4029 8H10.7262L9.44986 6.79528V5.14961L10.7262 4H12.4029Z" fill="#A29061"/>
</svg>
