<!-- by TradingView --><svg width="18" height="18" viewBox="0 0 18 18" fill="none" xmlns="http://www.w3.org/2000/svg">
<rect width="18" height="18" fill="#F0F3FA"/>
<path d="M6.71028 7.35909H10.5441C10.5666 7.35909 10.5699 7.37317 10.5541 7.38698L8.79008 8.97597C8.78254 8.9827 8.7736 8.98804 8.76376 8.99168C8.75391 8.99532 8.74337 9.00001 8.73272 9L6.70807 9C6.67976 9 6.66667 9.02875 6.66667 9.05408V11.3144C6.66667 12.3576 7.33471 13.2734 8.49406 13.494C10.644 13.903 12.1999 11.7126 10.8828 10.1479C10.8534 10.1131 10.8214 10.1111 10.7868 10.142L8.02629 12.3064C8.02437 12.3082 8.02188 12.3094 8.01915 12.3099C8.01643 12.3104 8.0136 12.3102 8.01104 12.3092C8.00847 12.3083 8.00629 12.3066 8.00478 12.3046C8.00327 12.3025 8.0025 12.3 8.00258 12.2975L8 10.3193C8 10.3022 8.02151 10.2876 8.03512 10.2754L10.6655 8.22696C10.6763 8.21723 10.6904 8.21087 10.7056 8.20883C10.7208 8.20678 10.7363 8.20916 10.7499 8.21561C12.0022 8.81366 12.7305 9.71995 12.9345 10.9345C13.2958 13.081 11.3483 15.0103 8.9568 15C8.56594 14.9983 8.13004 14.924 7.64909 14.7769C6.23438 14.3447 5.24326 13.1787 5.04691 11.8829C5.0197 11.7023 5.00184 11.374 5 10.898V6.84877C5.00331 6.07209 5.13019 5.39903 5.57804 4.73979C6.88796 2.8124 9.85748 2.3836 11.7211 3.97397C12.5547 4.68518 12.9871 5.58884 13 6.68495V9.29822C12.9996 9.36632 12.975 9.37142 12.9345 9.31352C12.5474 8.76053 12.004 8.3036 11.3951 7.94273C11.379 7.93315 11.3657 7.9202 11.3566 7.90505C11.3475 7.88989 11.3333 7.873 11.3333 7.85589V6.51964C11.2588 5.07414 9.6521 4.0932 8.20505 4.56413C7.24647 4.87648 6.72848 5.63046 6.67112 6.54876C6.65347 6.83002 6.65439 7.00013 6.67388 7.33271C6.67498 7.35343 6.68711 7.35909 6.71028 7.35909Z" fill="url(#paint0_linear_229_6125)"/>
<defs>
<linearGradient id="paint0_linear_229_6125" x1="5" y1="9" x2="13" y2="9" gradientUnits="userSpaceOnUse">
<stop stop-color="#E6C86E"/>
<stop offset="1" stop-color="#C1A832"/>
</linearGradient>
</defs>
</svg>
