<!-- by TradingView --><svg width="18" height="18" viewBox="0 0 18 18" xmlns="http://www.w3.org/2000/svg"><path fill="#F0F3FA" d="M0 0h18v18H0z"/><path d="M9.37 13.39c-.17.21-.43.3-.78.28a.32.32 0 0 0-.17.04c-.5.28-1.04.34-1.61.15a.3.3 0 0 0-.18 0c-.54.16-1.4.28-1.84-.2a.2.2 0 0 1-.05-.18l.15-.72c.01-.08-.01-.14-.08-.18-.7-.4-.95-1.04-.74-1.92.15-.61.5-.95 1.06-1.01.04 0 .08-.02.11-.05a.25.25 0 0 0 .07-.1.27.27 0 0 0-.02-.25 3 3 0 0 1-.39-2.73c.34-.84.99-1.22 1.94-1.14.06 0 .11-.02.16-.06l.37-.43c.5-.56 1.1-.86 1.8-.89 1-.04 1.82.4 2.43 1.31.04.06.09.08.15.07 1.1-.17 2 .43 2.2 1.64.1.54.05 1.05-.12 1.51-.2.53-.5 1.05-.94 1.56-.26.31-.38.7-.63.93a.18.18 0 0 0-.05.18c.08.35.14.9.18 1.67.01.21-.03.37-.12.47a.87.87 0 0 1-.44.27c-.47.1-1.94.3-2.32-.22-.04-.06-.09-.06-.14 0Zm.06-.2v.03a.96.96 0 0 0 .05-.38c0-.06-.03-.07-.06-.01-.05.1-.05.2 0 .33v.03Z" fill="#181977"/><path d="M9.2 10.9c.43-.22.21-.9-.03-1.16l-.92-.94c-.2-.22-.28-.44-.22-.66.06-.22 0-.28-.2-.18a.37.37 0 0 0-.21.28c-.01.1.02.13.1.12h.06c.04 0 .07.03.08.08.07.3.22.57.44.78.25.24.44.43.55.56.04.04.03.07-.02.1-.26.12-.46.26-.6.41-.05.06-.08.05-.09-.03-.1-.74-.4-1.42-1.1-1.59-.41-.1-.85.11-1.26.34a.2.2 0 0 1-.15.02.22.22 0 0 1-.13-.1c-.51-.8-.68-1.9-.02-2.69.4-.47.91-.61 1.55-.42.06.02.1 0 .13-.06.46-.86 1.09-1.32 1.89-1.4 1.01-.1 1.81.34 2.4 1.31.04.06.08.08.14.07.95-.15 1.59.14 1.9.88.44 1 .06 2.21-.64 3-.32.35-.49.84-.84 1.17a.22.22 0 0 1-.16.07.8.8 0 0 1-.47-.18.16.16 0 0 1-.06-.08.18.18 0 0 1 0-.1 2.9 2.9 0 0 0-.13-1.56c-.14-.38-.04-.53-.02-.87a.1.1 0 0 0 0-.06c-.02-.02-.04-.03-.06-.02l-.02.03c-.16.38-.19.76-.1 1.14.27 1 .02 2.15-.98 2.47-.55.18-1.41.16-1.57-.62-.1-.46.05-.73.43-.82a.2.2 0 0 1 .18.04c.15.11.17.3.07.58-.04.1-.01.12.07.08Z" fill="#FFF000"/><path d="M6.7 6.74c-.37-.14-.47-.28-.86-.05-.15.09-.18.05-.09-.1.23-.41.58-.5 1.02-.26.09.05.12.12.1.23l-.02.09c0 .02 0 .03-.02.05a.13.13 0 0 1-.04.04.1.1 0 0 1-.1 0ZM12.4 6.58h-.68c-.05 0-.08-.02-.08-.08v-.08c0-.03.01-.05.03-.08a.13.13 0 0 1 .06-.05c.51-.19.85-.08 1.02.34a.08.08 0 0 1-.01.07l-.03.02h-.04a.3.3 0 0 1-.1-.07.24.24 0 0 0-.17-.07ZM8.13 7.03c.14 0 .26-.13.26-.28 0-.16-.12-.28-.26-.28s-.26.12-.26.28c0 .15.12.28.26.28ZM10.4 6.99c.13 0 .25-.13.25-.28 0-.16-.12-.28-.26-.28s-.25.12-.25.28c0 .15.11.28.25.28Z" fill="#181977"/><path d="M6.55 11.66c-.03 0-.05.03-.03.07l.03.1c0 .02.02.03.03.02l.34-.08h.09l.07.04c.22.2.45.3.7.33.09.01.16.05.21.12.06.06.09.14.09.23v.93c0 .04-.02.07-.03.1a.15.15 0 0 1-.08.06c-.28.08-.62.1-1.02.02a.2.2 0 0 1-.09-.03.22.22 0 0 1-.06-.07.25.25 0 0 1-.03-.18 1 1 0 0 0 .04-.3.14.14 0 0 0-.04-.1.12.12 0 0 0-.08-.03H6.6a.1.1 0 0 0-.08.03.13.13 0 0 0-.03.09v.44c0 .03-.01.06-.03.08a.12.12 0 0 1-.05.04c-.41.15-.83.16-1.26.02-.06-.02-.09-.06-.08-.14l.05-.78c0-.06.02-.13.07-.18.22-.3.41-.57.56-.84.21-.38.18-.72-.09-1-.09-.1-.2-.12-.33-.08-.17.07-.17.11 0 .14.18.02.28.14.32.34.07.34-.23.78-.44 1.04a.34.34 0 0 1-.45.08c-.35-.23-.51-.6-.48-1.1.06-.71.38-1.08.98-1.09.03 0 .06 0 .08-.02a.18.18 0 0 0 .06-.07c.38-.73 1.32-1.27 2-.76.53.41.56 1.2.51 1.89 0 .08.03.14.09.18.16.1.28.27.37.47v.08l-.03.06a.68.68 0 0 1-.76.08c-.36-.18-.49-.55-.6-.93a.45.45 0 0 0-.07-.15.36.36 0 0 0-.12-.1.27.27 0 0 0-.15-.03c-.04 0-.09.02-.13.05-.06.05-.09.12-.08.2.01.08.05.13.12.14.12.02.2.06.25.13.04.05.05.12.03.18-.04.14-.13.23-.29.28Z" fill="#A2BBE1"/><path d="M6.2 9.85c.1-.06.14-.17.1-.24-.03-.07-.14-.08-.24-.02-.1.07-.15.18-.11.25.04.07.15.08.24.01Z" fill="#181977"/><path d="M9.34 12.41c-.27.11-.38.3-.31.58.04.2-.04.33-.25.36l-.13.02c-.2.03-.32-.08-.35-.33l-.09-.64a.43.43 0 0 1 .13-.37.39.39 0 0 1 .36-.09c1 .28 1.8-.03 2.43-.92.04-.06.09-.08.15-.06.39.11.63.2.7.68.04.37.07.79.1 1.27 0 .07-.02.14-.06.2a.3.3 0 0 1-.16.12c-.58.17-1.2.2-1.86.1a.23.23 0 0 1-.14-.08.27.27 0 0 1-.06-.17v-.32a.4.4 0 0 0-.04-.17.37.37 0 0 0-.1-.14.32.32 0 0 0-.32-.04Z" fill="#FFF000"/></svg>