<!-- by TradingView --><svg width="18" height="18" viewBox="0 0 18 18" xmlns="http://www.w3.org/2000/svg"><path fill="#F0F3FA" d="M0 0h18v18H0z"/><path d="M9 4h4.99l-1.3 1.33H9A3.66 3.66 0 1 0 12.67 9h-2c0-.55-.26-1.03-.67-1.33h3.82A5 5 0 1 1 8.99 4Z" fill="#FB0300"/><path d="M9.03 12A3 3 0 0 0 12 9.3h-.6a2.4 2.4 0 1 1-2.38-2.7h3.2l.4-.6h-3.6a3 3 0 0 0 0 6Z" fill="#0B7DA6"/><path d="M9 11c1.02 0 1.89-.75 2.03-1.71h-.58A1.47 1.47 0 0 1 9 10.43a1.43 1.43 0 1 1 0-2.86h2.2L11.6 7H9a2 2 0 1 0 0 4Z" fill="#0B7DA6"/></svg>