<!-- by TradingView --><svg width="18" height="18" viewBox="0 0 18 18" xmlns="http://www.w3.org/2000/svg"><path fill="#F0F3FA" d="M0 0h18v18H0z"/><path d="M6.48 4.7c-.06.13-.1.27-.2.38a2.95 2.95 0 0 1-.81.71c-.02 0-.04-.01-.04-.04.04-.13.05-.26.1-.39.12-.32.25-.62.5-.86l.53-.5c.03-.01.07 0 .07.04 0 .23-.06.45-.15.66ZM4.85 6.24c-.17-.46-.08-.84.02-1.3.07-.3.17-.52.3-.77a.03.03 0 0 1 .06 0c.04.12.07.24.09.37.06.44.01.89-.13 1.34-.06.17-.14.32-.24.48h-.03a.46.46 0 0 1-.07-.12ZM4.34 7.52c-.13-.14-.18-.4-.2-.58-.04-.51 0-1 .13-1.45a.81.81 0 0 1 .08-.18l.02-.02a.04.04 0 0 1 .04 0v.02c.38.64.26 1.54-.02 2.2v.01l-.02.01a.03.03 0 0 1-.03-.01ZM6.3 5.58a2.33 2.33 0 0 1-.9 1.31c-.17.1-.35.19-.53.25-.01.01-.04 0-.03-.02.1-.38.27-.7.53-.95.27-.27.57-.48.89-.62.02-.01.04 0 .04.03ZM3.7 6.78c.19.22.32.5.4.78.06.3.1.6.12.9 0 .03-.05 0-.07 0a1.44 1.44 0 0 1-.44-.47c-.2-.35-.3-.73-.33-1.15l-.02-.29c-.01-.08.02-.1.08-.04l.27.27ZM4.38 9.17a3.32 3.32 0 0 1 .8-2.04c.03-.01.04 0 .04.02a2.64 2.64 0 0 1-.37 1.65c-.1.18-.25.3-.43.4-.02 0-.04-.01-.04-.03ZM4.13 9.8a2.65 2.65 0 0 1-.7-1.22 7.9 7.9 0 0 1-.12-.55c0-.02.02-.04.04-.02.29.2.57.44.71.76.17.37.29.76.34 1.16 0 .02-.01.04-.03.03a.77.77 0 0 1-.24-.16ZM4.92 10.94a3.74 3.74 0 0 1-.1-1.85c0-.04.05-.05.07-.02.15.2.25.41.3.67.1.49.11 1 .02 1.51 0 .02-.02.03-.03.02a.7.7 0 0 1-.26-.33ZM4.02 10.66A2.06 2.06 0 0 1 3 9.48h.03c.21.08.47.2.77.38.15.08.28.18.39.3.2.22.35.46.45.73.01.05 0 .06-.05.05a5.58 5.58 0 0 1-.58-.28ZM5.74 11.88a5.05 5.05 0 0 1-.3-1.07c-.01-.06 0-.07.05-.03a4.62 4.62 0 0 1 .86.9 3.7 3.7 0 0 1 .37 1.3c0 .02-.03.03-.04.02a3.6 3.6 0 0 1-.94-1.12ZM5.44 12.44c0-.02-.02-.04-.05-.05l-.53-.31-.33-.23a1.89 1.89 0 0 1-.67-.86c0-.03.01-.06.04-.05.33.1.67.23.96.42.34.23.62.47.85.82l.14.16c.06.06-.02.12-.07.1a.9.9 0 0 0-.14 0c-.02 0-.04.03-.02.05a.3.3 0 0 0 .12.08c.2.09.54.17.62.4.01.03 0 .05-.03.05-.5.08-1 .07-1.5-.03-.3-.06-.66-.21-.83-.49-.01-.02 0-.05.02-.05l.2-.03c.38-.04.78-.02 1.19.05.02 0 .03 0 .03-.03Z" fill="#302D2E"/><path d="M8.37 13.76c-.29-.2-.57-.4-.85-.63a2.28 2.28 0 0 1-.36-.37c-.12-.16-.23-.3-.3-.45-.02-.02-.01-.04 0-.05.13-.03.35.05.47.1.26.12.5.26.72.44l.37.31c.16.15.42.45.36.7-.04.22-.16.33-.34.43-.19.1-.41.16-.62.2-.38.05-.76.06-1.15.01-.1-.01-.2-.02-.3-.05v-.02c.23-.43.9-.54 1.32-.56h.68c.04 0 .02-.05 0-.06Z" fill="#302D2E"/><path d="M7.5 13.43c.04.02.16.08.1.13-.19.13-.38.2-.6.24-.57.1-1.16.08-1.73-.07-.05-.01-.06-.08-.02-.11.35-.25.72-.34 1.14-.36.38-.02.75.04 1.1.17ZM8.8 14.14c.02-.01.03 0 .02.01a.9.9 0 0 1-.17.34c-.17.18-.38.37-.6.5-.01.02-.03 0-.04-.02-.01-.15.13-.31.24-.38l.38-.26c.06-.06.1-.15.18-.2ZM11.52 4.7c.06.13.1.27.2.38a2.95 2.95 0 0 0 .81.71c.02 0 .04-.01.04-.04-.04-.13-.05-.26-.1-.39a2.23 2.23 0 0 0-.5-.86l-.53-.5c-.03-.01-.07 0-.07.04 0 .23.06.45.15.66ZM13.15 6.24c.17-.46.08-.84-.02-1.3-.07-.3-.17-.52-.3-.77a.03.03 0 0 0-.06 0c-.04.12-.07.24-.09.37-.06.44-.01.89.13 1.34.06.17.14.32.24.48h.03a.47.47 0 0 0 .07-.12ZM13.66 7.52c.13-.14.18-.4.2-.58.04-.51 0-1-.13-1.45a.8.8 0 0 0-.08-.18l-.02-.02h-.04v.02c-.38.64-.26 1.54.02 2.2v.01a.03.03 0 0 0 .04 0h.01ZM11.7 5.58c.16.51.46 1.03.9 1.31.17.1.35.19.53.25.01.01.04 0 .03-.02-.1-.38-.27-.7-.53-.95a3.06 3.06 0 0 0-.89-.62c-.02-.01-.04 0-.04.03ZM14.3 6.78c-.19.22-.32.5-.4.78-.06.3-.1.6-.12.9 0 .03.05 0 .07 0 .17-.13.33-.28.44-.47.2-.35.3-.73.33-1.15l.02-.29c.01-.08-.02-.1-.08-.04-.1.08-.18.18-.27.27ZM13.62 9.17a3.32 3.32 0 0 0-.8-2.04c-.03-.01-.04 0-.04.02a2.64 2.64 0 0 0 .37 1.65c.1.18.25.3.43.4.02 0 .04-.01.04-.03ZM13.87 9.8c.33-.33.58-.76.7-1.22l.12-.55c0-.02-.02-.04-.04-.02-.29.2-.57.44-.71.76-.17.37-.29.76-.34 1.16 0 .02.01.04.03.03.09-.04.17-.1.24-.16ZM13.08 10.94c.21-.58.2-1.24.1-1.85 0-.04-.05-.05-.07-.02-.15.2-.25.41-.3.67-.1.49-.11 1-.02 1.51 0 .02.02.03.03.02a.7.7 0 0 0 .26-.33ZM13.98 10.66A2.06 2.06 0 0 0 15 9.48h-.03c-.21.08-.47.2-.77.38-.15.08-.28.18-.39.3-.2.22-.35.46-.45.73-.01.05 0 .06.05.05.18-.07.37-.17.58-.28ZM12.26 11.88c.13-.35.25-.69.3-1.07.01-.06 0-.07-.05-.03a4.62 4.62 0 0 0-.86.9 3.7 3.7 0 0 0-.37 1.3c0 .02.03.03.04.02a3.6 3.6 0 0 0 .94-1.12ZM12.56 12.44c0-.02.02-.04.05-.05l.53-.31.33-.23c.3-.23.53-.51.67-.86 0-.03-.01-.06-.04-.05-.33.1-.67.23-.96.42a2.8 2.8 0 0 0-.85.82l-.14.16c-.06.06.02.12.07.1a.9.9 0 0 1 .14 0c.02 0 .04.03.02.05a.3.3 0 0 1-.12.08c-.2.09-.54.17-.62.4-.01.03 0 .05.03.05.5.08 1 .07 1.5-.03.3-.06.66-.21.83-.49.01-.02 0-.05-.02-.05a4.54 4.54 0 0 0-1.39.03c-.02 0-.03-.01-.03-.04Z" fill="#302D2E"/><path d="M9.63 13.76c.29-.2.57-.4.85-.63.15-.13.27-.25.36-.37.12-.16.23-.3.3-.45.02-.02.01-.04 0-.05-.13-.03-.36.05-.47.1-.26.12-.5.26-.72.44l-.37.31c-.16.15-.42.45-.36.7.04.22.16.33.34.43.19.1.41.16.62.2.38.05.76.06 1.15.01.1-.01.2-.02.3-.05v-.02c-.23-.43-.9-.54-1.32-.56h-.68c-.04 0-.02-.05 0-.06Z" fill="#302D2E"/><path d="M10.5 13.43c-.04.02-.16.08-.1.13.19.13.38.2.6.24.57.1 1.16.08 1.73-.07.05-.01.06-.08.02-.11a2.05 2.05 0 0 0-1.14-.36c-.38-.02-.75.04-1.1.17ZM9.2 14.14c-.02-.01-.03 0-.02.01.05.15.1.27.17.34.17.18.38.37.6.5.01.02.03 0 .04-.02.01-.15-.13-.31-.24-.38a4.91 4.91 0 0 1-.38-.26c-.06-.06-.1-.15-.18-.2Z" fill="#302D2E"/><path fill-rule="evenodd" d="M9.14 9.26c0-.01 0-.04-.02-.04h-.01a1.7 1.7 0 0 1-.8.25c-.15 0-.3-.13-.4-.3-.09-.19-.07-.46-.02-.68 0-.05 0-.07-.05-.07-.38-.02-.82-.26-.84-.85 0-1.1 1.45-1.63 1.92-1.56h.01l.01.02.01.13c0 .02 0 .03-.02.03-.6.03-1.73.57-1.73 1.4 0 .4.46.63.75.6.05 0 .09-.07.11-.13.06-.15.15-.3.26-.44.62-.78 1.37-1.4 2.23-1.54.18-.03.45.03.45.34 0 .87-1.4 1.4-1.84 1.62a4.2 4.2 0 0 1-.85.32c-.15.04-.24.46-.24.63 0 .23.17.28.33.28.33-.01.68-.21.96-.45l.53-.48.1-.13h.05l.06.11c.02.03.02.05 0 .07a10.04 10.04 0 0 0-.77 1.1c0 .04 0 .06.03.05.19-.01.47-.3.6-.46l.03-.01.03.01.06.1v.03c-.25.32-.55.5-.87.65-.08.04-.14.13-.2.21-.17.25-.34.5-.57.65-.22.15-.47.27-.72.28-.15 0-.36-.03-.38-.28-.01-.36.36-.56.56-.63l.83-.3a.36.36 0 0 0 .18-.16 3.32 3.32 0 0 1 .23-.37Zm.48-1.69a9.7 9.7 0 0 1-1.15.53c-.03-.01-.04-.03-.02-.07.47-.77 1.42-1.69 2.2-1.74.04 0 .16 0 .17.09.1.47-.97 1.07-1.2 1.2Zm-1.75 2.79c-.08.04-.4.2-.36.37.02.09.13.07.18.07.36-.02.67-.31.9-.68.03-.04.02-.06-.01-.06-.24.02-.5.18-.7.3Z" fill="#8A8B8D"/></svg>