<!-- by TradingView --><svg width="18" height="18" viewBox="0 0 18 18" xmlns="http://www.w3.org/2000/svg"><path fill="#F0F3FA" d="M0 0h18v18H0z"/><path d="M12.94 6.57c1.02-.03 1.67.41 1.96 1.33.2.64.1 1.24-.29 1.78-.36.5-.89.85-1.59 1.04-.1.03-.16.1-.18.2l-.28 1.7c0 .02 0 .02-.02.02l-.08-.02c-.02 0-.03-.01-.03-.03-.01-.71.02-1.4.1-2.08a.24.24 0 0 1 .11-.17l.21-.14c1.01-.66 1.43-1.34 1.24-2.03-.15-.57-.78-.85-1.88-.84h-.2c-.1 0-.14-.04-.13-.14a1.9 1.9 0 0 0-.84-1.82c-.93-.7-1.9-.6-2.9.3-.08.08-.17.08-.27 0-.25-.22-.54-.3-.88-.25-.82.14-1.36.62-1.64 1.43-.02.07-.07.1-.14.09-.5-.05-.87.1-1.11.48-.33.5-.4 1.02-.24 1.57.16.56.52.95 1.08 1.17.28.1.57.12.87.05.56-.14 1.15-.2 1.75-.18.02 0 .03 0 .03.03s-.01.05-.04.05c-.52.05-1.03.19-1.55.4-.14.07-.2.17-.17.31l.3 1.48a.1.1 0 0 1-.03.1h-.02c-.02 0-.04 0-.06-.02-.26-.46-.51-.94-.75-1.42a.31.31 0 0 0-.18-.17 4.13 4.13 0 0 1-1.64-.9c-.38-.41-.52-1-.42-1.76.15-1.13.72-1.77 1.71-1.92.1-.02.16-.07.2-.15.65-1.27 1.7-1.69 3.13-1.26.07.02.14 0 .2-.04.78-.6 1.68-.72 2.7-.35 1 .37 1.62 1.06 1.85 2.08.02.06.05.09.12.08Z" fill="#6285CE"/><path d="M9.53 8.96c.22-.65.42-1.13.6-1.43.26-.44.32-.42.18.08l-.39 1.37c-.03.12-.1.16-.22.14l-.08-.01c-.1-.02-.12-.07-.1-.15ZM7.75 7.34c.32.55.56 1.1.7 1.64.03.1 0 .14-.1.14h-.06c-.12 0-.2-.06-.23-.18L7.6 7.35v-.02l.05-.02c.04-.01.07 0 .09.03ZM11.75 8.24c.1-.1.13-.09.07.04-.15.3-.35.64-.61 1.02a.12.12 0 0 1-.14.06l-.23-.04c-.1-.02-.12-.07-.05-.14l.96-.94ZM6.7 9.13c-.04-.1-.12-.22-.22-.4a4.9 4.9 0 0 1-.24-.42c-.06-.13-.04-.15.07-.04l.88.86c.1.1.08.16-.05.19-.2.05-.35-.01-.44-.2Z" fill="#181959"/><path d="M9.1 11.8c.02-.06.07-.13.14-.23.31-.48.47-.86.49-1.14 0-.12.04-.13.1-.01.12.24.1.49-.08.73-.23.3-.4.62-.54.97-.05.12-.1.12-.12 0l-.03-.13a.26.26 0 0 1 .03-.2Z" fill="#6285CE"/><path d="M8.95 11.03a.19.19 0 0 1 .02-.15c.04-.08.07-.08.11 0 .1.17.08.34-.03.5-.17.24-.33.5-.46.77-.05.1-.09.1-.12 0l-.07-.16a.1.1 0 0 1 .02-.09c.2-.28.38-.58.53-.87ZM10.29 10.93c.08.14.07.28-.03.43-.18.25-.34.5-.48.76-.02.04-.05.05-.1.02l-.07-.07c-.02-.01-.03-.03-.02-.06.13-.29.28-.55.46-.77.07-.09.1-.18.1-.28 0-.17.05-.18.14-.03Z" fill="#0D3269"/><path d="M7.07 12.76c0 .1.06.16.17.18 1.23.16 2.5.17 3.82.03.67-.07.68-.17.02-.31a5.43 5.43 0 0 0-.58-.1v-.05c0-.04.02-.06.06-.06.56 0 1.1.1 1.6.32.17.08.17.15 0 .22a5.4 5.4 0 0 0-.62.32c-.48.28-.88.43-1.18.45-.73.04-1.44.05-2.13.03-.23 0-.45-.08-.65-.21a7.4 7.4 0 0 0-1.09-.6c-.13-.05-.13-.12-.01-.2a.96.96 0 0 1 .45-.14c.09-.01.14.03.14.12Z" fill="#6285CE"/></svg>