<!-- by TradingView --><svg width="18" height="18" viewBox="0 0 18 18" xmlns="http://www.w3.org/2000/svg"><path fill="url(#a35b1dbhf)" d="M0 0h18v18H0z"/><path fill-rule="evenodd" d="M10 13v-3h.82l1.38 3H14l-1.36-3.05C13 9.84 14 9.4 14 8.57V6.5c0-.83-.97-1.5-1.83-1.5h-6.6C4.7 5 4 5.67 4 6.5v5c0 .83.7 1.5 1.57 1.5H10Zm-3.5-3V8.69h5.3c.11 0 .2-.2.2-.32V6.7a.2.2 0 0 0-.2-.2h-1.6a.2.2 0 0 0-.2.2V8H8.53V6.7c0-.11-.1-.2-.2-.2H6.18a.2.2 0 0 0-.19.2v4.6c0 .11.09.2.2.2h2.12c.11 0 .2-.09.2-.2V10H6.5Z" fill="url(#b35b1dbhf)"/><defs><linearGradient id="a35b1dbhf" x1="3.35" y1="3.12" x2="21.9" y2="24.43" gradientUnits="userSpaceOnUse"><stop stop-color="#1A1E21"/><stop offset="1" stop-color="#06060A"/></linearGradient><linearGradient id="b35b1dbhf" x1="4.43" y1="5.6" x2="13.52" y2="13.11" gradientUnits="userSpaceOnUse"><stop stop-color="#A86339"/><stop offset=".3" stop-color="#FBD664"/><stop offset=".45" stop-color="#F1D87C"/><stop offset=".56" stop-color="#898289"/><stop offset=".63" stop-color="#ABA7A8"/><stop offset=".79" stop-color="#F1F5F4"/><stop offset="1" stop-color="#A09FA4"/></linearGradient></defs></svg>