<!-- by TradingView --><svg width="18" height="18" viewBox="0 0 18 18" xmlns="http://www.w3.org/2000/svg"><path fill="#F0F3FA" d="M0 0h18v18H0z"/><path d="M8.56 7.06c.16.02.19 0 .21-.16.03-.22.12-.6.3-.99.21-.42.54-.87 1-1.18a4.98 4.98 0 0 1 1.5-.64c.41-.09.79-.1 1.1-.08.67.06 1.04.25 1.22.49.07.09.1.2.11.27 0 .12-.05.28-.22.43a3.3 3.3 0 0 1-1.03.5c-.51.17-1.22.35-1.91.51-.6.13-.92.25-1.2.34-.46.15-.6.6-.32.75a7.9 7.9 0 0 1 3.5 4.25c.3 1.06.11 2.08-.5 2.36-.6.28-1.4-.12-1.96-.7a5.56 5.56 0 0 1-1.26-2.18 9.49 9.49 0 0 1-.42-2.73v-.45c.02-.17-.44-.31-.94 0-.56.36-1.12 1.01-1.44 1.39l-.54.66c-.27.34-.57.68-.84.88-.4.3-1.06.41-1.52.09-.26-.18-.4-.52-.4-.87 0-.24.06-.46.18-.68.15-.26.4-.55.8-.88a7.16 7.16 0 0 1 1.75-.98c1.02-.4 2.1-.53 2.83-.4Z" fill="#19AAF8"/></svg>