<!-- by TradingView --><svg width="18" height="18" viewBox="0 0 18 18" xmlns="http://www.w3.org/2000/svg"><path fill="#F0F3FA" d="M0 0h18v18H0z"/><path fill-rule="evenodd" d="M7.15 5.2c.6.62 3.3 1.34 3.73-.2a5.64 5.64 0 0 1 2.17 1.08c.15.13.25.25.28.35.09.27-.08.44-.29.6l-.78.6-1.03.8a.57.57 0 0 1-.36.13c-.23 0-.44-.08-.67-.16-.22-.08-.45-.16-.7-.16-.63 0-1.5.28-1.5 1 0 .6.7 1.06 1.21 1.17.14.03.5.05.75.07.02 0 .04-.01.04-.03V9.5c.02-.4.33-.5.66-.5h2.15l.55-.01c.3 0 .63.18.63.55V10c.02.55.02.81-.18 1.36a3.94 3.94 0 0 1-1.53 1.83c-1.16.75-2.5.94-3.86.73a5.55 5.55 0 0 1-3.31-1.7c-.28-.3-.53-.69-.74-1.15a4.01 4.01 0 0 1 .01-3.38c.2-.41.44-.78.73-1.1A5.41 5.41 0 0 1 7.15 5.2Zm-.98 1.9c-.14.1-.27.25-.35.36-.09.12-.26.18-.38.11-.21-.11-.25-.27-.1-.46a2.35 2.35 0 0 1 .96-.74c.23-.1.4-.05.5.16.05.11-.04.25-.18.31-.14.06-.32.15-.45.26ZM5 7.93h.04c.15.04.24.16.2.28l-.05.18c-.03.12-.17.2-.32.16h-.04c-.14-.04-.23-.16-.2-.28l.05-.18c.04-.12.18-.2.32-.16Z" fill="#EC001F"/><path d="M11.15 5.73c-.09.3-.16.6-.23.9a.18.18 0 0 1-.13.14 7.23 7.23 0 0 1-3.58 0c-.06-.01-.1-.06-.12-.14l-.17-.68-.34-1.23c0-.02-.02-.03-.04-.03-.2 0-.35-.05-.45-.18-.33-.44.32-1 .7-.55.1.12.13.27.07.45 0 .02 0 .03.02.04l1.22.57h.01L8.12 5l.65-1.16v-.04c-.34-.27-.25-.77.2-.8.37-.04.6.36.4.66a.94.94 0 0 1-.13.15v.04L9.88 5h.03l1.21-.56c.02-.01.03-.02.02-.04l-.03-.12c0-.22.1-.37.27-.45.2-.08.36-.04.5.1.27.28.07.74-.32.75h-.1c-.01.01-.03.02-.03.04l-.28 1Z" fill="#008D40"/></svg>