<!-- by TradingView --><svg width="18" height="18" viewBox="0 0 18 18" xmlns="http://www.w3.org/2000/svg"><path fill="#F0F3FA" d="M0 0h18v18H0z"/><path d="M9.45 4.64a.29.29 0 0 0-.25-.16h-.34c-.42.08-.84.18-1.26.32a4.16 4.16 0 0 0-2.89 3.29 4.6 4.6 0 0 0 .19 2.45c.29.78.78 1.44 1.46 1.95.33.25.6.43.8.55a2.92 2.92 0 0 0 .74.31c.11.04.2.05.27 0a4.53 4.53 0 0 0 1.9.2c.35-.05.69-.15 1-.3.42-.19.8-.42 1.13-.68.12-.1.24-.24.33-.4a.8.8 0 0 0 0-.72c.26-.46.58-.88.96-1.27.06.61-.12 1.2-.53 1.76a4.98 4.98 0 0 1-6.3 1.5A4.97 4.97 0 0 1 4 9.12 4.93 4.93 0 0 1 6.42 4.7a4.9 4.9 0 0 1 6.26 1.03c.02.02.02.04 0 .06-.03.04-.07.04-.12 0a4.46 4.46 0 0 0-3.11-1.15Z" fill="#0A5890"/><path d="m9.45 4.64-.16.02c-.78.04-1.47.28-2.08.71a.88.88 0 0 0-.28.14c-.33.28-.62.6-.9.96a4.6 4.6 0 0 0-.66 3.95c.3.95.83 1.71 1.58 2.29.33.25.74.47 1.22.65-.07.04-.16.03-.27 0l-.16-.06a2.92 2.92 0 0 1-.58-.26c-.2-.12-.47-.3-.8-.55a4.23 4.23 0 0 1-1.46-1.95 4.6 4.6 0 0 1 .8-4.51c.52-.58 1.15-1 1.9-1.23.42-.14.84-.24 1.26-.31.08-.02.2-.02.34-.01.1 0 .19.06.25.16Z" fill="#0970AE"/><path d="M9.29 4.66c.5.16.94.4 1.32.75l.06.09-.01.06a.05.05 0 0 1-.06 0A2.75 2.75 0 0 0 6.82 7.1c.02 0 0 .01-.04.05-.28.26-.5.57-.66.95 0-.48.1-.93.27-1.35.2-.47.47-.93.82-1.38.61-.43 1.3-.67 2.08-.71Z" fill="#9B999A"/><path d="M7.38 9.93c-.08-.02-.17-.1-.25-.23a2.92 2.92 0 0 1-.4-2.34.48.48 0 0 1 .08-.16v-.03c0-.02-.02-.02-.03-.02.04-.04.06-.05.04-.05.43-.34.9-.53 1.4-.58l.1.01c.05.01.08.04.09.09.02.05 0 .09-.02.12a.31.31 0 0 1-.1.07 2.17 2.17 0 0 0-.9 3.12Z" fill="#256DBD"/><path d="M6.78 7.15c.01 0 .02 0 .03.02v.03a.48.48 0 0 0-.08.16 2.92 2.92 0 0 0 .4 2.35c.08.13.17.2.25.22.13.2.3.37.5.5.42.3.88.45 1.4.47 0 .02 0 .03-.02.05a31.86 31.86 0 0 1-.76.02 2.5 2.5 0 0 1-1.84-1.1 3.19 3.19 0 0 1-.54-1.77c.16-.38.38-.7.66-.95Z" fill="#103863"/><path d="M13.3 9.45a17.1 17.1 0 0 0-1.26 1.64c.2.08.36.2.49.36a.8.8 0 0 1 0 .73.55.55 0 0 0-.16-.48c-.2-.2-.4-.34-.6-.4a15.86 15.86 0 0 1-.4-.17c0-.06-.03-.1-.08-.1-.31-.1-.57-.27-.77-.5-.02-.02-.04-.02-.06 0l-.19.11a3 3 0 0 1-.9.36l-.11-.05c.02-.02.03-.03.02-.05.1 0 .17 0 .21-.02.33-.1.63-.26.91-.48.02-.02.03-.04.02-.06-.25-.57-.17-1.07.23-1.51.17-.18.37-.3.61-.38a1.5 1.5 0 0 1 1.46.26c.25.2.44.44.57.74Z" fill="#233069"/><path d="M13.3 9.45c.1.23.16.47.19.73-.38.39-.7.81-.97 1.27a1.13 1.13 0 0 0-.48-.36c-.02 0-.02-.02-.01-.03.39-.56.81-1.1 1.26-1.61Z" fill="url(#a)"/><path d="M11.41 11.17c-.02 0-.03 0 0 .02h-.1l-.53-.16a1 1 0 0 1-.51-.39l.2-.12.04.01c.2.23.47.4.78.5.05 0 .08.04.08.1l.04.04Z" fill="#757273"/><path d="M6.39 6.75c.2-.47.47-.93.82-1.38a.88.88 0 0 0-.28.14c-.33.28-.62.6-.9.96a4.6 4.6 0 0 0-.66 3.95c.13.1.24.22.33.38a6.7 6.7 0 0 0 .23.32l.3.33c.36.36.8.6 1.3.73.52.13 1.05.15 1.58.04l.23-.06.52-.16c.35-.15.68-.33 1-.54a.89.89 0 0 0 .29-.28l.03-.02.14.02-.54-.15a1 1 0 0 1-.5-.39 3 3 0 0 1-.92.36l-.1-.05a31.87 31.87 0 0 1-.76.02 2.5 2.5 0 0 1-1.84-1.1 3.19 3.19 0 0 1-.54-1.77c0-.48.1-.93.27-1.35Z" fill="url(#b)"/><path d="M5.8 10.96a6.92 6.92 0 0 1-.1-.16c-.09-.16-.2-.29-.33-.38.31.95.84 1.71 1.58 2.29a4.58 4.58 0 0 0 2.33.87c.27.02.53.01.79-.03.35-.05.69-.15 1-.3.42-.19.8-.42 1.13-.68.13-.1.24-.24.33-.4a.55.55 0 0 0-.16-.47c-.2-.2-.4-.34-.6-.4a15.2 15.2 0 0 1-.36-.11h-.1l-.13-.03c-.01 0-.02 0-.03.02a.9.9 0 0 1-.29.28c-.32.21-.65.39-1 .54l-.52.16-.23.06c-.53.1-1.06.1-1.58-.04a2.86 2.86 0 0 1-1.6-1.06c-.05-.05-.09-.1-.12-.16Z" fill="url(#c)"/><defs><linearGradient id="a" x1="12.41" y1="10.55" x2="12.95" y2="10.97" gradientUnits="userSpaceOnUse"><stop stop-color="#233069"/><stop offset=".49" stop-color="#455FCF"/><stop offset=".89" stop-color="#0A5890"/></linearGradient><linearGradient id="b" x1="5.44" y1="7.8" x2="11.03" y2="9.76" gradientUnits="userSpaceOnUse"><stop stop-color="#2745A1"/><stop offset=".43" stop-color="#256DBD"/><stop offset="1" stop-color="#9B999A"/></linearGradient><linearGradient id="c" x1="11.6" y1="11.8" x2="8.93" y2="13.56" gradientUnits="userSpaceOnUse"><stop stop-color="#8797B9"/><stop offset="1" stop-color="#274C8D"/></linearGradient></defs></svg>