<!-- by TradingView --><svg width="18" height="18" viewBox="0 0 18 18" xmlns="http://www.w3.org/2000/svg"><path fill="#695FFF" d="M0 0h18v18H0z"/><path d="M7 6.5v5h3.01c.29 0 .49-.02.6-.05.33-.1.58-.3.75-.62v-.03L9.01 9.63A.03.03 0 0 1 9 9.6v-.58C9 9.01 9 9 9.02 9H14v.02l.01 1.61a3.1 3.1 0 0 1-1.04 2.57c-.46.41-1 .67-1.6.76-.16.03-.41.04-.76.04H7.06A3.14 3.14 0 0 1 4 10.65V7.4c0-.34 0-.59.04-.76A3.12 3.12 0 0 1 7.16 4h3.69a3.12 3.12 0 0 1 3.09 2.53l-.01.01-3.08 1.54c-.01 0-.02 0-.01-.02.16-.64-.21-1.3-.84-1.5a2.74 2.74 0 0 0-.69-.06H7Z" fill="#fff"/></svg>