<!-- by TradingView --><svg width="18" height="18" viewBox="0 0 18 18" fill="none" xmlns="http://www.w3.org/2000/svg">
<rect width="18" height="18" fill="#F0F3FA"/>
<path d="M9.99965 7.33333V13H11.9996V7.33333H12.9996V6H11.9996V5.20163C12.0353 4.50309 12.7075 4.52919 12.9996 4.62955V3.12408C10.8722 2.54598 10.0195 4.12773 9.99965 4.99087V6H9.31447V7.33333H9.99965Z" fill="#EF492F"/>
<path fill-rule="evenodd" clip-rule="evenodd" d="M8.16082 5.68794C8.21798 4.2027 9.23258 4.23155 9.73274 4.43163V5.61815C8.94392 5.48414 8.74672 5.97178 8.74672 6.23235C9.08968 6.66787 9.17543 7.34442 9.17543 7.62825C9.18686 9.85053 7.08429 9.95941 6.03158 9.73607C5.37423 10.6713 6.23164 10.8109 7.07477 10.8388C7.91789 10.8667 9.57555 11.0343 9.63271 12.7652C9.68987 14.4961 8.17511 14.9707 6.68893 14.9986C5.20275 15.0265 4.05953 14.6217 4.00237 13.4771C3.95664 12.5614 4.58351 12.1091 4.90265 11.9974C3.61082 10.8919 4.5454 9.75933 5.17417 9.33125C4.2596 8.80639 4.19291 7.75388 4.27388 7.29323C4.65114 4.94811 7.02236 5.24591 8.16082 5.68794ZM7.30338 7.57938C7.30338 8.2077 7.03467 8.71704 6.70319 8.71704C6.37172 8.71704 6.10301 8.2077 6.10301 7.57938C6.10301 6.95107 6.37172 6.44172 6.70319 6.44172C7.03467 6.44172 7.30338 6.95107 7.30338 7.57938ZM5.71722 12.3743C6.1888 12.4023 7.18625 12.4721 7.40346 12.5279C7.67498 12.5977 7.9322 12.7652 7.91791 13.1281C7.90362 13.4911 7.46062 13.7144 6.71753 13.7144C5.97444 13.7144 5.1599 13.4631 5.71722 12.3743Z" fill="#F9AE37"/>
</svg>
