<!-- by TradingView --><svg width="18" height="18" viewBox="0 0 18 18" xmlns="http://www.w3.org/2000/svg"><path fill="#F0F3FA" d="M0 0h18v18H0z"/><path d="m11.2 6.5 1.49-.96c.14-.09.14-.3 0-.39l-3.53-2.1a.31.31 0 0 0-.32 0l-4.68 2.8a.35.35 0 0 0-.16.3v5.65c0 .12.06.24.16.3l4.68 2.85c.1.07.22.07.32 0l4.68-2.85c.1-.06.16-.18.16-.3V9.98c0-.17-.18-.28-.33-.2l-4.5 2.76a.31.31 0 0 1-.33 0l-2.68-1.63c-.2-.12-.16-.42-.16-.66V7.37c0-.12.05-.24.16-.3l2.68-1.63c.1-.06.22-.06.32 0l1.7 1.06c.1.07.23.07.34 0Z" fill="#28589A"/><path d="M7 10.66V8.81c0-.17.18-.28.33-.2l1.52.8c.09.04.2.04.28 0l4.53-2.75c.15-.09.34.02.34.2v1.85c0 .1-.05.2-.14.24l-4.73 2.87a.28.28 0 0 1-.28 0l-1.7-.9a.29.29 0 0 1-.15-.26Z" fill="#5588C7"/></svg>