<!-- by TradingView --><svg width="18" height="18" viewBox="0 0 18 18" xmlns="http://www.w3.org/2000/svg"><path fill="#F0F3FA" d="M0 0h18v18H0z"/><path d="M9 13.67V5.65c0-.36.32-.65.71-.65h2.58c.4 0 .71.3.71.65v5.66c0 1.48-1.31 2.69-2.93 2.69h-.72c-.2 0-.35-.15-.35-.33Z" fill="url(#a51kyooou)"/><path fill-rule="evenodd" d="M9.33 5.7v7.92c0 .05.04.08.09.08h.72c1.47 0 2.53-1.1 2.53-2.45V5.71c0-.23-.13-.41-.38-.41H9.77c-.24 0-.44.18-.44.4ZM9 5.66v8.02c0 .18.16.33.35.33h.72C11.7 14 13 12.8 13 11.3V5.66c0-.36-.32-.65-.71-.65H9.71c-.4 0-.71.3-.71.65Z" fill="url(#b51kyooou)"/><path d="M7.67 12c.18 0 .33-.15.33-.32V5.32A.33.33 0 0 0 7.67 5h-.1A3.54 3.54 0 0 0 4 8.5C4 10.43 5.6 12 7.58 12h.09Z" fill="url(#c51kyooou)"/><path d="M7.52 11.7h.1c.04 0 .07-.03.07-.07V5.38a.08.08 0 0 0-.08-.08h-.09a3.15 3.15 0 0 0-3.21 3.2c0 1.8 1.38 3.2 3.21 3.2Zm.48-.02c0 .17-.15.32-.33.32h-.1A3.54 3.54 0 0 1 4 8.5C4 6.57 5.6 5 7.58 5h.09c.18 0 .33.15.33.32v6.36Z" fill="url(#d51kyooou)"/><defs><linearGradient id="a51kyooou" x1="9.13" y1="5.76" x2="12.28" y2="11.86" gradientUnits="userSpaceOnUse"><stop stop-color="#FAFEFF"/><stop offset="1" stop-color="#5F7487"/></linearGradient><linearGradient id="b51kyooou" x1="11" y1="5" x2="11" y2="14" gradientUnits="userSpaceOnUse"><stop stop-color="#82878A"/><stop offset="1" stop-color="#5E6C6F"/></linearGradient><linearGradient id="c51kyooou" x1="4.95" y1="6.47" x2="7.09" y2="11.09" gradientUnits="userSpaceOnUse"><stop stop-color="#F8F8FA"/><stop offset="1" stop-color="#607588"/></linearGradient><linearGradient id="d51kyooou" x1="6" y1="5" x2="6" y2="12" gradientUnits="userSpaceOnUse"><stop stop-color="#82878A"/><stop offset="1" stop-color="#5E6C6F"/></linearGradient></defs></svg>