<!-- by TradingView --><svg width="18" height="18" viewBox="0 0 18 18" xmlns="http://www.w3.org/2000/svg"><path fill="#F0F3FA" d="M0 0h18v18H0z"/><path d="M7 9a4 4 0 1 0 8 0H7Z" fill="url(#a)"/><path d="M3 9a4 4 0 1 1 8 0H3Z" fill="url(#b)"/><path d="M7 9a4 4 0 1 1 8 0H7Z" fill="url(#c)"/><path d="M3 9a4 4 0 1 0 8 0H3Z" fill="url(#d)"/><defs><linearGradient id="a" x1="13.13" y1="9" x2="8.9" y2="13.03" gradientUnits="userSpaceOnUse"><stop offset=".23" stop-color="#AEB6C8"/><stop offset=".65" stop-color="#646A76"/></linearGradient><linearGradient id="b" x1="10.08" y1="5" x2="4.92" y2="8.64" gradientUnits="userSpaceOnUse"><stop offset=".4" stop-color="#CA9140"/><stop offset=".8" stop-color="#E2C76C"/></linearGradient><linearGradient id="c" x1="15" y1="7" x2="7" y2="7" gradientUnits="userSpaceOnUse"><stop offset=".33" stop-color="#ADB4C7"/><stop offset=".67" stop-color="#D4D5D1"/></linearGradient><linearGradient id="d" x1="9.29" y1="11" x2="3" y2="11" gradientUnits="userSpaceOnUse"><stop offset=".21" stop-color="#D3D4D0"/><stop offset=".57" stop-color="#E3C563"/></linearGradient></defs></svg>