<!-- by TradingView --><svg width="18" height="18" viewBox="0 0 18 18" xmlns="http://www.w3.org/2000/svg"><path fill="#F0F3FA" d="M0 0h18v18H0z"/><path fill-rule="evenodd" d="M15 9A6 6 0 1 1 3 9a6 6 0 0 1 12 0Zm-4.23 3.5c.77-1 1.33-2.03 1.68-3.12.29-.89.5-1.8.65-2.75.02-.09-.01-.1-.08-.05a15.5 15.5 0 0 0-2.6 2.6.67.67 0 0 0-.18.51c0 .6-.05 1.19-.15 1.76-.01.04 0 .05.03.04l.03-.01a.05.05 0 0 0 .03-.03l.12-.24c.68-1.17 1.23-2.1 1.65-2.78.06-.1.13-.2.2-.27l.02-.01c.01 0 .02.01.01.02-.22.45-.45.88-.7 1.31l-1.86 3.29a.43.43 0 0 1-.17.07c-.1.03-.11 0-.05-.07.19-.25.33-.57.42-.96.1-.38.15-.72.18-1.03.04-.66.06-1.17.06-1.54-.01-.38-.05-.75-.11-1.11a15.31 15.31 0 0 0-.96-3.28 10.83 10.83 0 0 0-1.02 5.6c.03.47.1.94.22 1.43.09.35.24.65.46.93.01.01 0 .02-.01.03-.13 0-.2-.01-.26-.06L5.83 8.23V8.2l.02-.04h.01c.27.4.58.88.92 1.46a201.23 201.23 0 0 1 1.11 1.9l.03-.01a.05.05 0 0 0 .01-.06 3.84 3.84 0 0 1-.14-.93l-.03-.98a.38.38 0 0 0-.08-.22A14.85 14.85 0 0 0 5 6.59c-.06-.06-.1-.04-.08.05.17 1.2.47 2.36.91 3.48a10 10 0 0 0 1.42 2.39 4.72 4.72 0 0 1-3.02-4.44 4.78 4.78 0 1 1 6.55 4.43Zm-1.86.34.02.01h.14l.02-.01.01-.02v-1.03c0-1.34-.02-2.62-.04-3.57-.02-.94-.04-1.48-.07-1.49a41.1 41.1 0 0 0-.07 1.47 141.57 141.57 0 0 0-.02 3.59v1.05Z" fill="#317245"/><path d="M8.38 12.78c-.4-.02-.78-.11-1.14-.27a10 10 0 0 1-1.42-2.39 15.09 15.09 0 0 1-.91-3.48c-.01-.1.02-.1.08-.05 1.02.81 1.94 1.71 2.7 2.74.04.06.07.14.07.22 0 .23 0 .56.03.98.02.38.06.69.14.93v.06h-.05l-.01-.01c-.25-.43-.6-1.05-1.1-1.88a30.28 30.28 0 0 0-.92-1.46l-.02.04v.02l2.55 4.55Z" fill="#97AA3F"/><path d="M10.77 12.5c-.39.19-.77.28-1.15.27l1.86-3.29a28.75 28.75 0 0 0 .69-1.33h-.02l-.2.28a164.9 164.9 0 0 0-1.8 3.05h-.03c-.03.02-.04 0-.03-.03.1-.57.15-1.16.15-1.76 0-.23.03-.32.18-.51a15.5 15.5 0 0 1 2.6-2.6c.07-.05.1-.04.08.05-.14.95-.36 1.86-.65 2.75a10.14 10.14 0 0 1-1.68 3.12Z" fill="#499245"/></svg>