<!-- by TradingView --><svg width="18" height="18" viewBox="0 0 18 18" xmlns="http://www.w3.org/2000/svg"><path fill="#F0F3FA" d="M0 0h18v18H0z"/><path d="M9 15a5.78 5.78 0 0 1-4.24-1.76A5.78 5.78 0 0 1 3 9c0-1.66.59-3.07 1.76-4.24A5.78 5.78 0 0 1 9 3c1.66 0 3.07.59 4.24 1.76A5.78 5.78 0 0 1 15 9c0 1.66-.59 3.07-1.76 4.24A5.78 5.78 0 0 1 9 15Zm.02-.32c1.57 0 2.9-.56 4-1.68a5.48 5.48 0 0 0 1.66-4.02c0-1.57-.57-2.9-1.68-4.01a5.47 5.47 0 0 0-4.02-1.65c-1.57 0-2.9.56-4.01 1.68a5.48 5.48 0 0 0-1.65 4.02c0 1.57.56 2.9 1.68 4.01a5.47 5.47 0 0 0 4.02 1.65Z" fill="#91CD2E"/><path d="m11.54 9.27-.47.61a7.63 7.63 0 0 0-1.56-4.4 3.7 3.7 0 0 0-.92-.85 2.07 2.07 0 0 0-1.8-.3v-.04c.67-.3 1.34-.26 2.02.13.38.2.7.5 1 .85a7.8 7.8 0 0 1 1.73 4Z" fill="#91CD2E"/><path d="m11.55 10.09-.55.64c-.47.45-.99.86-1.54 1.21l-.72-.19.43-.29a7.83 7.83 0 0 0 1.9-1.58l.47-.6a4.3 4.3 0 0 0 1.04-3.15c-.05-.42-.21-.78-.5-1.07a2.85 2.85 0 0 1-.1-.12c-.12-.14-.1-.15.04-.04.7.54.99 1.3.86 2.29-.1.78-.44 1.58-.99 2.4l-.34.5Z" fill="#0D280B"/><path d="m8.74 11.75.72.19 1.3.18-.18.45a10 10 0 0 1-1.84-.3l-.68-.24A7.76 7.76 0 0 1 5.5 10.4 4 4 0 0 1 4.53 9a2.51 2.51 0 0 1-.13-1.64 2.2 2.2 0 0 1 1.52-1.53c.05 0 .05 0 0 .03l-.29.17c-.4.24-.67.54-.84.9-.17.39-.2.8-.1 1.24a4.55 4.55 0 0 0 2.1 2.65c.62.4 1.27.7 1.95.92Z" fill="#0B6826"/><path d="M11.55 10.09c0 .7-.1 1.38-.3 2.05l-.16.41c-.16.41-.39.76-.7 1.04-.42.37-.89.56-1.42.57a2.45 2.45 0 0 1-1.48-.48v-.01c.01-.01.02-.02.03 0 .87.48 1.63.46 2.28-.07.33-.27.59-.61.78-1.03l.18-.45c.13-.45.21-.91.24-1.39l.55-.64Z" fill="#91CD2E"/><path d="m8.06 12.03.68.24c-.6.3-1.17.47-1.75.52a2.71 2.71 0 0 1-1.75-.37c-.68-.44-1.01-1.15-1-2.13 0-.01.01-.02.03-.02l.02.02c.08 1.26.68 1.95 1.8 2.07.65.07 1.3-.04 1.97-.33Z" fill="#0D280B"/><path d="m11.1 12.55.15-.41c.46 0 .92-.08 1.38-.26a2.22 2.22 0 0 0 1.38-1.37h.01c.02.01.02.02.02.04a2.29 2.29 0 0 1-1.35 1.65c-.51.23-1.04.35-1.6.35Z" fill="#0B6826"/></svg>