<!-- by TradingView --><svg width="18" height="18" viewBox="0 0 18 18" xmlns="http://www.w3.org/2000/svg"><path fill="#F0F3FA" d="M0 0h18v18H0z"/><path d="M12 8V5c-.33.25-1 .94-1 1.7s.67 1.18 1 1.3ZM12 8V5c.33.25 1 .94 1 1.7s-.67 1.18-1 1.3ZM12 8v3c-.33-.25-1-.94-1-1.7s.67-1.18 1-1.3ZM12 8v3c.33-.25 1-.94 1-1.7s-.67-1.18-1-1.3ZM13 8h3c-.25-.33-.94-1-1.7-1s-1.18.67-1.3 1ZM13 8h3c-.25.33-.94 1-1.7 1s-1.18-.67-1.3-1ZM11 8H8c.25-.33.94-1 1.7-1s1.18.67 1.3 1ZM11 8H8c.25.33.94 1 1.7 1s1.18-.67 1.3-1Z" fill="#008547"/><path d="M8 11.68c0 .04-.02.06-.05.08a6.17 6.17 0 0 1-1.7.24C4.4 12 3 10.85 3 9c0-1.88 1.49-3 3.32-3 .55 0 1.02.07 1.48.18.03 0 .06.02.07.04.02.02.03.04.03.07.03.4.1.8.1 1.2h-.24c-.1-.78-.92-1.1-1.64-1.1C4.72 6.4 4 7.47 4 8.76c0 1.6.96 2.7 2.64 2.7.15 0 .2 0 .36-.02V9.78c0-.15 0-.39-.2-.43a.62.62 0 0 0-.25-.01h-.07l-.03-.28A15.9 15.9 0 0 1 7.85 9c.1 0 .15.05.15.16v2.52Z" fill="#008547"/></svg>