<!-- by TradingView --><svg width="18" height="18" viewBox="0 0 18 18" xmlns="http://www.w3.org/2000/svg"><path fill="#EC554E" d="M0 0h18v18H0z"/><path d="M7.28 4h1.64c1.49 0 3.18.66 3.18 2.39 0 1-.62 1.9-1.6 2.17 1.4.2 2.5 1.29 2.5 2.75 0 1.9-1.75 2.69-3.42 2.69H7.87v-.13l.01-.26v-.12h1.64c1.4 0 2.38-.84 2.38-2.28 0-1.35-.92-2.2-2.22-2.4a6.4 6.4 0 0 0-1.1-.1V8.6c.23 0 .48-.03.75-.08.28-.04.54-.14.8-.28.63-.36.87-1.05.87-1.74 0-1.3-.88-2.03-2.14-2.03H7.43a.62.62 0 0 0-.05-.12 2.06 2.06 0 0 0-.07-.23L7.28 4ZM8 4v10H7V4h1Zm-.91 8.96V14H6l.01-.14h.18c.26 0 .4-.09.58-.26.18-.18.28-.4.28-.64h.04Zm0-7.92h-.04c0-.5-.37-.9-.86-.9h-.18L6 4h1.09v1.04Z" fill="#fff"/></svg>