<!-- by TradingView --><svg width="18" height="18" viewBox="0 0 18 18" xmlns="http://www.w3.org/2000/svg"><path fill="#254483" d="M0 0h18v18H0z"/><path d="m9 4 .26.74L9 5.7l-.26-.95L9 4ZM7.33 5l.67.45-.33.55L7 5.55 7.33 5ZM10.67 5l-.67.45.33.55.67-.45-.33-.55ZM5.19 7l.81.42-.19.58L5 7.58 5.19 7ZM12.81 6l-.81.42.19.58.81-.42-.19-.58Z" fill="#F0F3FA"/><path fill-rule="evenodd" d="M8.92 5.58c.23 0 .6.3.6.75v.2L9 6.26l-.47.27a1.48 1.48 0 0 1-.05-.36c0-.48.3-.58.44-.58Zm-1.2 1.39.8-.45c.11.41.37.84.58.84.25 0 .38-.36.41-.82l.5.27-.01.16c0 .44.11 1.03.43 1.03.24 0 .44-.2.53-.65l.2.12-.15.31c-.04.1.09.22.37.22.23 0 .37-.06.47-.15L15 9.63 9 13 3 9.63l4.01-2.26c.09.74.53 1.13.8 1.13.3 0 .21-.48-.04-1.4l-.04-.13Zm0 0c-.19-.62-.38-.74-.46-.72-.15 0-.26.45-.26.85l.01.27.72-.4Zm4.13.88c.12-.12.15-.3.15-.5 0-.3-.2-.35-.31-.35-.2 0-.4.24-.53.47l.69.38Zm-.9-.5c.04-.14.05-.3.05-.5 0-.63-.23-.85-.46-.85-.4 0-.52.41-.54.81l.96.54Zm.39 2.45c.42.28.66.65.66.97 0 .7-.6.83-1.01.83-.18 0-.37-.05-.58-.1a3.59 3.59 0 0 0-.94-.15c-.38 0-.85.22-1.24.4a2.2 2.2 0 0 1-.69.25c-.35 0-.54-.35-.54-.72 0-.48.52-.99.89-1.35.17-.17.32-.32.36-.4C8.8 8.28 9.37 8 9.78 8c.41 0 .55.28.6.6.15.7.36.82.73 1.06l.23.14ZM6.38 9c.2.02.62.19.62.64 0 .2-.1.36-.25.36-.23 0-.75-.37-.75-.73 0-.14.15-.27.38-.27Z" fill="#F0F3FA"/></svg>