<!-- by TradingView --><svg width="18" height="18" viewBox="0 0 18 18" xmlns="http://www.w3.org/2000/svg"><path d="M0 9a9 9 0 1 1 18 0A9 9 0 1 1 0 9Z" fill="#F0F3FA"/><path d="M9.54 11.7h.32c.1 0 .14-.04.14-.2v-5c0-.14-.05-.2-.14-.2h-.02l-.3.01v-.3h3.34L13 6v1.56h-.2c0-.45-.1-.77-.27-.97-.17-.2-.45-.3-.83-.3h-.61c-.06 0-.1.04-.1.13v2.42h.57c.18 0 .33-.1.44-.27.11-.19.17-.26.17-.57h.2v2h-.2c0-.3-.06-.42-.17-.6-.12-.19-.26-.28-.44-.28H11v2.4c0 .06 0 .1.03.15.04.04.08.03.12.03h.34v.3H9.54v-.3ZM5.22 10c.13 1.2.53 1.65 1.47 1.65.47 0 .85-.52.86-1.15 0-.5-.1-.83-.63-1.07l-.89-.4a1.68 1.68 0 0 1-.72-.57 1.47 1.47 0 0 1-.24-.85c0-.29.06-.56.18-.8.13-.25.3-.44.55-.59.25-.15.54-.22.89-.22a2.8 2.8 0 0 1 .87.18l.25.1a.64.64 0 0 0 .5.02 7.24 7.24 0 0 0 .02 1.38H8.1c0-.42-.12-.76-.37-1.02s-.43-.32-.8-.32c-.57 0-.93.37-.93 1.02 0 .32.07.74.54.94l.8.36c.45.2.76.43.95.68.19.24.28.55.28.93 0 .34-.07.64-.22.9a1.6 1.6 0 0 1-1.43.83 3.32 3.32 0 0 1-.9-.13c-.3-.1-.54-.14-.69-.14-.05 0-.1 0-.16.02l-.17.03V10h.22Z"/><path fill="#7B7B7B" d="M5 4h8v1H5zM5 13h8v1H5z"/></svg>