<!-- by TradingView --><svg xmlns="http://www.w3.org/2000/svg" width="18" height="18"><path fill="url(#a4jqujizf)" d="M0 0h18v18H0z"/><path d="M7.86 6.3c.4-.26.88-.33 1.22-.33.6 0 1.26.3 1.62.8l-.8.59c-.16-.22-.5-.39-.82-.39-.23 0-.5.06-.68.17-.16.1-.29.26-.28.6 0 .25.13.4.4.56l.47.2.07.02a3.4 3.4 0 01.46.19c.15.07.42.2.65.44.28.29.49.7.49 1.27 0 .56-.24.99-.59 1.25-.33.26-.72.36-1.04.36a2.6 2.6 0 01-2.24-1.13l.81-.59c.44.62.97.72 1.43.72.14 0 .3-.05.43-.15.1-.08.2-.2.2-.46 0-.31-.1-.47-.2-.57-.1-.1-.23-.17-.38-.25l-.06-.03a2.32 2.32 0 00-.26-.1l-.1-.04c-.18-.06-.4-.14-.61-.26-.44-.23-.92-.66-.93-1.43-.01-.69.3-1.16.74-1.44zM11 6v6h1V6h-1zM3 7.9c0-.94.68-1.72 1.58-1.87v1.02A.85.85 0 004 7.9v2.2c0 .41.23.73.58.85v1.02A1.9 1.9 0 013 10.1V7.9zm2.8 2.2c0 .41-.24.73-.59.85v1.02a1.9 1.9 0 001.58-1.87V9H5v1h.8v.1zm-.1-2.63l.9-.39a1.9 1.9 0 00-1.39-1.05v1.02c.22.07.39.22.49.42zM12.16 12H13v-1a1 1 0 001-1V8a1 1 0 00-1-1V6a2 2 0 012 2v2a2 2 0 01-2 2h-.84z" fill="#fff"/><defs><linearGradient id="a4jqujizf" x1="3.35" y1="3.12" x2="21.9" y2="24.43" gradientUnits="userSpaceOnUse"><stop stop-color="#1A1E21"/><stop offset="1" stop-color="#06060A"/></linearGradient></defs></svg>