<!-- by TradingView --><svg width="18" height="18" viewBox="0 0 18 18" xmlns="http://www.w3.org/2000/svg"><path fill="#F0F3FA" d="M0 0h18v18H0z"/><path d="M11.09 3s-2.71.19-4.33 1.23c-1.62 1.03-2.1 2.24-2.1 3.42 0 1.19.52 2.42 1.38 2.95.86.52 1.95.84 3.63.7 0 0-1.23-.88-1.38-2.78a5.94 5.94 0 0 1 1-3.74C9.93 3.88 11.1 3 11.1 3Z" fill="#003894"/><path d="M10 7.89v3.88c0 .63-.48 2.42-2.7 1.89 0 0 1.12 2.05 3.67 1.08 1.25-.48 2.01-1.84 2.03-3.22.02-1.68-.68-3.39-3-3.63" fill="#003894"/><path d="M9.13 11.59s-.78 1.35-1.6 1.75c-.81.4-2.9.61-3.43-1.46-.44-1.75.68-2.54.68-2.54s-.02 1.57 1.02 2.2c1.01.62 2.31.66 3.33.04" fill="#00A73C"/></svg>