<!-- by TradingView --><svg width="18" height="18" viewBox="0 0 18 18" xmlns="http://www.w3.org/2000/svg"><path fill="#F0F3FA" d="M0 0h18v18H0z"/><path d="M6.75 5c3.5 0 6.18 1.7 7.08 2.55h-.33l-1.16 1.88-.27-1.88H7.4l-.24.53c-.12-.21-.59-.72-1.52-.72-1.97 0-2.4 1.4-2.37 2.07a2.94 2.94 0 0 1-.66-1.6C2.6 7.64 2.38 5 6.75 5Z" fill="#E77A16"/><path d="M11.23 12.97c-3.22 0-6-1.63-6.98-2.44a2.14 2.14 0 0 0 1.77-.36v.28h.76l.43-1.63H5.5l-.2.67h.57a1 1 0 0 1-.76.3.6.6 0 0 1-.61-.44c0-.59.4-1.18.96-1.18.45 0 .56.34.57.47h1.23l-.05-.37H8.3l-.52 2.18h1.26l.54-2.18h1.14l.13-.54.63 2.72h1.27l1.64-2.4c1.07 1.08 1.12 2.02 1.12 2.33 0 .3-.23 2.59-4.27 2.59Z" fill="#173881"/><path d="M2 8.08c0-.95.63-1.78.94-2.07-.19.21-.56.92-.56 2.07 0 1.44 2.52 4 6.78 4.92C3.36 11.95 2 9.28 2 8.08Z" fill="#173881"/><path d="M16 9.92c0 .95-.63 1.78-.94 2.07.19-.21.56-.92.56-2.07 0-1.44-2.52-4-6.78-4.92C14.64 6.05 16 8.72 16 9.92Z" fill="#E77A16"/></svg>