<!-- by TradingView --><svg width="18" height="18" viewBox="0 0 18 18" xmlns="http://www.w3.org/2000/svg"><path fill="#F0F3FA" d="M0 0h18v18H0z"/><path d="m10.52 3.6-3.3 1.52-.49 1.25 3.8-1.75 3.23 1.43-.55-1.3-2.69-1.16Z" fill="url(#a)"/><path d="M13.92 6.28 10.5 5.02l-1.22.54L13.19 7l1.29 3.3L15 9l-1.08-2.72Z" fill="url(#b)"/><path d="m14.46 10.55-1.53-3.3-1.25-.5 1.75 3.8L12 13.8l1.29-.56 1.16-2.69Z" fill="url(#c)"/><path d="m11.77 13.92 1.26-3.43-.54-1.22-1.44 3.92-3.3 1.29 1.31.52 2.71-1.08Z" fill="url(#d)"/><path d="m7.48 14.43 3.3-1.53.49-1.25-3.8 1.74-3.23-1.42.55 1.3 2.69 1.16Z" fill="url(#e)"/><path d="m4.08 11.78 3.42 1.26 1.22-.54-3.91-1.45-1.29-3.3L3 9.06l1.08 2.72Z" fill="url(#f)"/><path d="m3.58 7.48 1.53 3.32 1.25.48-1.75-3.8 1.43-3.24-1.3.56-1.16 2.68Z" fill="url(#g)"/><path d="M6.22 4.08 4.96 7.51l.54 1.22 1.45-3.92 3.3-1.29L8.94 3 6.22 4.08Z" fill="url(#h)"/><defs><linearGradient id="a" x1="13.1" y1="3.59" x2="7.24" y2="6.36" gradientUnits="userSpaceOnUse"><stop offset=".43" stop-color="#114884"/><stop offset=".96" stop-color="#47C8F0"/></linearGradient><linearGradient id="b" x1="15.74" y1="8.1" x2="9.63" y2="5.93" gradientUnits="userSpaceOnUse"><stop offset=".43" stop-color="#114884"/><stop offset=".96" stop-color="#47C8F0"/></linearGradient><linearGradient id="c" x1="14.46" y1="13.13" x2="11.67" y2="7.27" gradientUnits="userSpaceOnUse"><stop offset=".43" stop-color="#114884"/><stop offset=".96" stop-color="#47C8F0"/></linearGradient><linearGradient id="d" x1="9.96" y1="15.74" x2="12.14" y2="9.63" gradientUnits="userSpaceOnUse"><stop offset=".43" stop-color="#114884"/><stop offset=".96" stop-color="#47C8F0"/></linearGradient><linearGradient id="e" x1="4.9" y1="14.43" x2="10.76" y2="11.65" gradientUnits="userSpaceOnUse"><stop offset=".43" stop-color="#114884"/><stop offset=".96" stop-color="#47C8F0"/></linearGradient><linearGradient id="f" x1="2.26" y1="9.96" x2="8.37" y2="12.13" gradientUnits="userSpaceOnUse"><stop offset=".43" stop-color="#114884"/><stop offset=".96" stop-color="#47C8F0"/></linearGradient><linearGradient id="g" x1="3.58" y1="4.91" x2="6.37" y2="10.77" gradientUnits="userSpaceOnUse"><stop offset=".43" stop-color="#114884"/><stop offset=".96" stop-color="#47C8F0"/></linearGradient><linearGradient id="h" x1="8.04" y1="2.26" x2="5.86" y2="8.37" gradientUnits="userSpaceOnUse"><stop offset=".43" stop-color="#114884"/><stop offset=".96" stop-color="#47C8F0"/></linearGradient></defs></svg>