<!-- by TradingView --><svg width="18" height="18" viewBox="0 0 18 18" xmlns="http://www.w3.org/2000/svg"><path fill="#F0F3FA" d="M0 0h18v18H0z"/><g opacity=".7" fill="#0137F9"><path opacity=".7" d="M4 7.06v4.72l2-1.46V7.1l2.5 1.36c.31.2.7.19 1.02 0L12 7.09v3.49L9.01 12.2l.32-.85 1.67-.77v-.56L8.46 8.87v.5l-1.04.65c-.3.19-.42.52-.42.87v1.25c0 .38.16.73.5.9l1.64.85a1 1 0 0 0 .92 0l3.4-1.83a1 1 0 0 0 .54-.9V7.05c0-.35-.18-.68-.49-.87l-1.54-.93a.98.98 0 0 0-1.03.01l-1.39.88c-.33.2-.75.2-1.07-.02L7.2 5.26a.98.98 0 0 0-1.03-.03l-1.66.95a1 1 0 0 0-.51.88Z"/><path opacity=".5" d="m9.06 5.7-1.6-.93L9 4l1.5.84-1.44.85Z"/></g></svg>