<!-- by TradingView --><svg width="18" height="18" viewBox="0 0 18 18" xmlns="http://www.w3.org/2000/svg"><path fill="#F0F3FA" d="M0 0h18v18H0z"/><path fill-rule="evenodd" d="M16 10.2c-.81-.54-3.47-1.66-7.59-1.77.2-.3.86-1.08 1.17-1.43l-2.2 1.5c-1.71.13-5.2.72-5.38 2.03 0 .21.13.47.84.47.72 0 2.9-.42 5-2.4-.36.45-.79 1.05-.79 1.5 0 .43.31.65.71.63l-.02-.03a.72.72 0 0 1-.2-.53c0-.3.2-.84.54-1.17 1.29-.02 4.68.24 7.92 1.2Zm-9.63-1c-1.31.13-3.92.58-4.08 1.31l.02.02c.08.06.09.07.37.07.3 0 1.77-.18 3.7-1.4Z" fill="#015A48"/></svg>