<!-- by TradingView --><svg width="18" height="18" viewBox="0 0 18 18" xmlns="http://www.w3.org/2000/svg"><path fill="#F0F3FA" d="M0 0h18v18H0z"/><path fill-rule="evenodd" d="M10.74 3.6C10.24 3.2 9.67 3 9 3c-.66 0-1.24.2-1.74.6-.49.4-.82.93-.99 1.59-.01.05-.04.07-.09.06-1.38-.09-2.36.45-2.93 1.61a2.65 2.65 0 0 0-.19 1.73c.16.78.62 1.4 1.4 1.86.04.03.06.07.04.12a2.76 2.76 0 0 0 2.03 3.88c.86.17 1.67-.07 2.43-.72a.07.07 0 0 1 .04-.02 2.77 2.77 0 0 0 4.34-.55c.48-.76.53-1.62.16-2.58-.02-.06 0-.1.05-.13a2.76 2.76 0 0 0 1.2-3.58c-.57-1.17-1.55-1.7-2.93-1.61-.05 0-.08-.02-.1-.07a2.93 2.93 0 0 0-.98-1.58Zm-.1 1.1A1.85 1.85 0 0 0 9 3.82c-.7 0-1.25.3-1.64.88-.18.27-.28.57-.31.88-.04.33.02.65.16.96.06.14.04.16-.09.06a2 2 0 0 0-1.28-.54c-.48-.02-.91.13-1.3.45-.35.28-.57.62-.67 1.02a1.97 1.97 0 0 0 .72 2.02c.33.25.71.39 1.15.41l.19-.01.17-.02c.1 0 .1.02.02.07-.45.26-.76.62-.93 1.06-.17.46-.16.92.03 1.39a1.95 1.95 0 0 0 1.79 1.22c.38 0 .73-.09 1.05-.28.34-.2.6-.5.76-.87.09-.2.12-.52.08-.94-.03-.45-.2-.84-.47-1.17a2.62 2.62 0 0 0-.94-.54 2.56 2.56 0 0 1-1.79-2.2c0-.05.02-.06.07-.06l.87.17c.38.07.66.15.85.23.8.36 1.29 1 1.46 1.91 0 .06.02.08.05.08.03 0 .04-.02.05-.08.17-.91.65-1.55 1.46-1.9.18-.1.47-.17.85-.24l.87-.17c.05 0 .07.01.06.06a2.56 2.56 0 0 1-1.31 1.98c-.08.05-.24.12-.48.22-.5.2-.8.38-.93.54-.28.33-.44.72-.47 1.17-.04.42 0 .73.08.94a1.92 1.92 0 0 0 1.8 1.15 1.95 1.95 0 0 0 1.83-2.61c-.17-.45-.48-.8-.93-1.06-.08-.05-.08-.07.02-.07.04 0 .1 0 .17.02l.2.01a2.03 2.03 0 0 0 1.8-1.32c.14-.37.16-.74.06-1.11a1.9 1.9 0 0 0-.67-1.02 1.89 1.89 0 0 0-1.3-.45c-.48.02-.9.2-1.29.53-.12.11-.15.1-.08-.06.14-.3.2-.62.16-.95-.03-.32-.14-.6-.31-.88Z" fill="#3DB132"/><path d="M9 8a1 1 0 1 0 0-2 1 1 0 0 0 0 2Z" fill="#E60112"/></svg>