<!-- by TradingView --><svg width="18" height="18" viewBox="0 0 18 18" xmlns="http://www.w3.org/2000/svg"><path fill="#F0F3FA" d="M0 0h18v18H0z"/><path fill-rule="evenodd" d="M3.63 7.33 3 10.67h.5L4 8.33h1.5v2h-.75v.34H6V8H4l.25-.67H6.5V7H3.25v.33h.38Zm4-.33-.25 1h.5L8 7.67h1v.66H7.75c-.2 0-.25.23-.25.34v1h-.25V10H9v.67h.5V10h1.25v-.33H9.5v-1h1.25v-.34H9.5v-.66h1.25v-.34H8.12L8.26 7h-.63Zm.62 1.67H9v1H8V9c0-.27.17-.33.25-.33ZM13 7v.17h-1.5v.33H13v.17h-1.25V8H13v.33h-1.5v.34H15v-.34h-1.5V8h1.25v-.33H13.5V7.5h1.25v-.33H13.5V7H13Zm-1 4h-.25V9h2.75c.2 0 .25.22.25.33v1.34c0 .26-.17.33-.25.33h-.25v-.67h-2v.34c0 .26-.17.33-.25.33Zm2.25-1.67V10h-.75v-.67h.75Zm-1.25 0V10h-.75v-.67H13Z" fill="#00A5A8"/></svg>