<!-- by TradingView --><svg width="18" height="18" viewBox="0 0 18 18" xmlns="http://www.w3.org/2000/svg"><path fill="#F0F3FA" d="M0 0h18v18H0z"/><path d="M8.14 6.78v-.9l.98.45-.98.45ZM9.86 11.22v.9l-.98-.45.98-.45Z" fill="#E7E05B"/><path d="M4.71 7.67V5.89L3 6.78l1.71.89Z" fill="#038ECA"/><path d="M13.29 7.67V5.89l1.71.89-1.71.89Z" fill="#D23D1F"/><path d="M6.43 6.78V5l-1.72.89 1.72.89Z" fill="#008DDC"/><path d="M11.57 6.78V5l1.72.89-1.72.89Z" fill="#E68013"/><path d="M8.14 7.67V5.89l-1.71.89 1.71.89Z" fill="#E4DE03"/><path d="M9.86 7.67V5.89l1.71.89-1.71.89Z" fill="#F4C702"/><path d="M9.86 7.67V5.89l-1.72.89 1.72.89Z" fill="#FFE004"/><path d="M9.86 9.44V7.67l-1.72.89 1.72.88Z" fill="#FCE301"/><path d="M9.86 11.22V9.44l-1.72.9 1.72.88Z" fill="#FFDE03"/><path d="M8.14 12.11v-1.78l-1.71.9 1.71.88Z" fill="#DDE100"/><path d="M9.86 12.11v-1.78l1.71.9-1.71.88Z" fill="#FBBE00"/><path d="M6.43 13v-1.78l-1.72.9 1.72.88Z" fill="#0391D0"/><path d="M11.57 13v-1.78l1.72.9-1.72.88Z" fill="#E58715"/><path d="M4.71 12.11v-1.78l-1.71.9 1.71.88Z" fill="#058AD6"/><path d="M13.29 12.11v-1.78l1.71.9-1.71.88Z" fill="#CF3B20"/><path d="M4.71 10.33V8.56L3 9.44l1.71.9Z" fill="#0292D5"/><path d="M13.29 10.33V8.56l1.71.88-1.71.9Z" fill="#CA3E1C"/><path d="M4.71 7.67V5.89l1.72.89-1.72.89Z" fill="#08B2EF"/><path d="M13.29 7.67V5.89l-1.72.89 1.72.89Z" fill="#D85312"/><path d="M6.43 6.78V5l1.71.89-1.71.89Z" fill="#55AFC5"/><path d="M11.57 6.78V5l-1.71.89 1.71.89Z" fill="#F49B00"/><path d="M8.14 8.56V6.78l1.72.89-1.72.89Z" fill="#FEEB02"/><path d="M8.14 10.33V8.56l1.72.88-1.72.9Z" fill="#FFEC03"/><path d="M8.14 12.11v-1.78l1.72.9-1.72.88Z" fill="#FFEB03"/><path d="M6.43 13v-1.78l1.71.9-1.71.88Z" fill="#54AED2"/><path d="M11.57 13v-1.78l-1.71.9 1.71.88Z" fill="#F09807"/><path d="M4.71 12.11v-1.78l1.72.9-1.72.88Z" fill="#04AFE5"/><path d="M13.29 12.11v-1.78l-1.72.9 1.72.88Z" fill="#DA560A"/><path d="M3 11.22V9.44l1.71.9-1.7.88Z" fill="#038CD2"/><path d="M15 11.22V9.44l-1.71.9 1.7.88Z" fill="#A12A20"/><path d="M4.71 10.33V8.56l1.72.88-1.72.9Z" fill="#03ACF9"/><path d="M13.29 10.33V8.56l-1.72.88 1.72.9Z" fill="#DB4E23"/></svg>