<!-- by TradingView --><svg width="18" height="18" viewBox="0 0 18 18" xmlns="http://www.w3.org/2000/svg"><path fill="#F0F3FA" d="M0 0h18v18H0z"/><path d="M4.06 7C2.92 7 2 7.9 2 9s.92 2 2.06 2H6l-.33-.67H4c-.74 0-1.34-.61-1.34-1.33 0-.72.6-1.33 1.34-1.33H6L5.67 7h-1.6Z" fill="#E11D1E"/><path d="M9 7h-.17l-1.65 3.3L6.17 8h-.84l1.34 3h1l1.66-3.33h3V7H9Z" fill="#E11D1E"/><path fill="#E11D1E" d="M10.67 8v3H10V8zM13.6 8.67v-1h2.26c.08 0 .14-.07.14-.15v-.03c0-.27-.2-.49-.46-.49H13v4h2.54c.26 0 .46-.22.46-.49v-.03c0-.08-.06-.15-.14-.15H13.6v-1h2.1v-.66h-2.1Z"/></svg>