<!-- by TradingView --><svg width="18" height="18" viewBox="0 0 18 18" xmlns="http://www.w3.org/2000/svg"><path fill="#F0F3FA" d="M0 0h18v18H0z"/><path d="M13.45 7.56c.18.08.36.15.55.2V4.05c0-.03-.03-.04-.06-.04H9.38a.04.04 0 0 0-.05.04v.84c0 .08-.02.12-.1.12h-.45c-.05 0-.1-.04-.11-.09v-.85c0-.02 0-.03-.02-.04A.06.06 0 0 0 8.61 4H4.05c-.02 0-.05.01-.05.04v3.81a.08.08 0 0 0 .04.07.07.07 0 0 0 .07 0l.24-.16c.18-.12.36-.24.56-.33a9.42 9.42 0 0 1 4.63-1.08c.5.01 1 .08 1.48.2.04.01.07.03.09.05.02.03.03.07.02.11 0 .02-.01.03-.03.04a1.09 1.09 0 0 0-5.08 1.16c-.22.6.4.9.86 1.1.21.1.47.18.76.24a11.3 11.3 0 0 0 3.7-.03c.43-.08.86-.24 1.28-.46.26-.13.42-.24.48-.33.32-.47-.43-.7-.79-.8a5.97 5.97 0 0 0-1.73-.3c-.05 0-.06-.03-.04-.08l.01-.03a.07.07 0 0 1 .06-.04c.46-.05.76-.07.88-.05.5.04.96.12 1.4.24.15.04.33.1.56.2ZM14 13.9v-4c-.52.32-.91.54-1.18.64-.67.25-1.52.46-2.54.62a8.2 8.2 0 0 1-5.49-1v-.01c-.25-.15-.52-.3-.79-.48v4.23c0 .02.01.05.03.07.02.02.04.04.07.04h4.57v-1.17c0-.11.1-.16.2-.16h.3c.1 0 .16.05.16.16V14h4.54a.1.1 0 0 0 .08-.03v-.01c.03-.02.05-.05.05-.07Z" fill="#EA1C26"/></svg>