<!-- by TradingView --><svg width="18" height="18" viewBox="0 0 18 18" xmlns="http://www.w3.org/2000/svg"><path fill="#F0F3FA" d="M0 0h18v18H0z"/><path fill="url(#asw2vnk21)" d="M3 6h12v3H3z"/><path fill="#182780" d="M3 9h12v3H3z"/><path d="m6.18 7.47.03.44c0 .01 0 .02-.02.02-.03 0-.05 0-.08-.02a1.78 1.78 0 0 0-.65-.12c-.36 0-.68.14-.86.44a.9.9 0 0 0-.04.82c.18.46.63.6 1.1.48l.03-.02.01-.03v-.51l-.01-.02h-.57c-.01 0-.02 0-.02-.02V8.5H6.3l.01.02v1.31l-.01.02-.03.02-.47.09a2.3 2.3 0 0 1-.96-.04c-.5-.13-.8-.42-.9-.88a1.97 1.97 0 0 1-.03-.44c.04-.7.54-1.2 1.3-1.24.24-.01.41 0 .52.01l.46.1ZM13.8 8.04l.12.02c.05 0 .07.03.07.07a6.22 6.22 0 0 1-.01.34.04.04 0 0 1-.03 0 1.19 1.19 0 0 0-.43-.08c-.13 0-.25 0-.32.12-.13.2.39.31.5.35.15.04.28.14.34.28.12.24.04.52-.16.68-.33.26-.85.19-1.23.1h-.02v-.01a2.48 2.48 0 0 1 0-.42.02.02 0 0 1 .03 0c.18.1.37.13.57.12.3-.01.43-.3.08-.4-.25-.07-.6-.14-.68-.4-.08-.25 0-.53.23-.67.15-.08.32-.13.53-.14l.4.04ZM7.5 9.12v.02H6.6l-.01-.02v-.38l.03-.01h.84c.02 0 .03 0 .03.03v.36ZM9.9 9.67V8.08c0-.04-.02-.05-.06-.05a2 2 0 0 1-.47-.01h-.02V8.2c0 .06-.01.07-.06.02-.26-.25-.74-.28-1.05-.08-.32.2-.44.56-.44.9.05.53.33 1 1 .92.2-.02.36-.1.47-.23.03-.03.04-.03.04 0 .03.2-.03.47-.23.57-.1.05-.2.08-.32.07a1.89 1.89 0 0 1-.71-.17l-.01.02v.41l.01.03.03.02c.6.19 1.46.2 1.74-.43.06-.15.08-.38.08-.57Zm-.59-.86c.02.07.03.15.02.23a.63.63 0 0 1-.17.39.45.45 0 0 1-.16.1.38.38 0 0 1-.37-.05.52.52 0 0 1-.14-.16.71.71 0 0 1-.07-.51.62.62 0 0 1 .12-.24c.05-.06.1-.1.17-.13a.38.38 0 0 1 .2-.04c.12.02.23.09.31.2.05.06.08.13.1.2Z" fill="#F0F3FA"/><path fill-rule="evenodd" d="M11.82 8.08A2.45 2.45 0 0 0 11.4 8h-.22c-.23.01-.47.06-.72.12l-.02.03V8.58h.05c.12-.05.24-.1.35-.13.18-.05.5-.07.66 0 .12.07.2.16.21.3v.02h-.04c-.21 0-.42 0-.63.02-.3.01-.54.1-.72.26a.63.63 0 0 0-.13.4c0 .12.05.21.12.29.23.22.53.3.91.24.2-.04.36-.12.48-.26.02-.01.03-.01.03.01a1.18 1.18 0 0 1 0 .25V10h.02l.5.01h.02v-.01l.02-.02V8.73c-.02-.27-.13-.55-.48-.65Zm-.5 1.01c-.21.02-.5.11-.48.32.03.2.25.22.44.2.29-.02.44-.29.46-.5v-.02h-.02a3 3 0 0 0-.4 0Z" fill="#F0F3FA"/><defs><linearGradient id="asw2vnk21" x1="3" y1="7.5" x2="14.99" y2="8.67" gradientUnits="userSpaceOnUse"><stop stop-color="#0F2E7F"/><stop offset=".36" stop-color="#2A63A0"/><stop offset=".79" stop-color="#68ACE0"/><stop offset="1" stop-color="#E9F4FA"/></linearGradient></defs></svg>