<!-- by TradingView --><svg width="18" height="18" viewBox="0 0 18 18" xmlns="http://www.w3.org/2000/svg"><path fill="#F0F3FA" d="M0 0h18v18H0z"/><path fill-rule="evenodd" d="M4.57 5.47a4.12 4.12 0 0 0 4 3.53 4.07 4.07 0 0 0-4-3.53ZM9.09 9h.41v2.6c0 .31.25.56.62.56H11V13H8.87c-.48 0-.87-.33-.87-.73V9H9.09Zm0 0a4.07 4.07 0 0 1 4-3.53 4.12 4.12 0 0 1-4 3.53Zm2.41 0h-1v1h1v3H13v-3h1V9h-2.5ZM6.2 9H4v4h2.3c.63 0 1.15-.48 1.15-1.08 0-.48-.32-.88-.77-1.03a1 1 0 0 0 .6-.89c0-.55-.49-1-1.09-1Zm-.36.83h-.46v.67h.46c.12 0 .23-.15.23-.33 0-.19-.1-.34-.23-.34Zm.12 1.67h-.58v.67h.58c.15 0 .28-.15.28-.34 0-.18-.13-.33-.28-.33Z" fill="#008141"/><circle cx="9" cy="5" r="2" fill="#F46F22"/></svg>