<!-- by TradingView --><svg width="18" height="18" viewBox="0 0 18 18" xmlns="http://www.w3.org/2000/svg"><path fill="#B60005" d="M0 0h18v18H0z"/><path d="M6 7.73 6.6 7H4.8c-.6.06-1.8.55-1.8 2 0 1.82.75 2 1.2 2h1.5l.45-2.18c-.2.06-.78.29-.9.73l-.08.36h-.45c-.34 0-.92-.06-.82-.91.07-.62.27-.9.75-.9h.58A1 1 0 0 0 6 7.72ZM7.8 11l.51-3.4c.05-.35.3-.6.6-.6h.69v2.18l.6-1.73c.09-.27.3-.45.55-.45h.95l-.51 3.4c-.05.35-.3.6-.6.6h-.39l.45-2.73-.75 2.27c-.09.28-.31.46-.56.46H9V8.1l-.36 2.3c-.05.35-.3.6-.59.6H7.8ZM15 7a1.31 1.31 0 0 1-.9 1.1h-.75c-.3 0-.6.17-.75.9-.12.58.35.9.6.9h1.5c-.12.88-.45 1.1-.6 1.1h-1.2c-1.08 0-1.25-1.4-1.2-2 .24-1.75 1.1-2 1.5-2H15ZM7.52 7h.28l-.57 3.4c-.05.35-.33.6-.65.6H6.3l.57-3.4c.05-.35.33-.6.65-.6Z" fill="#fff"/></svg>