<!-- by TradingView --><svg width="18" height="18" xmlns="http://www.w3.org/2000/svg"><path fill="#F0F3FA" d="M0 0h18v18H0z"/><path d="M6.647 6C4.4 6.062 3.28 7.128 3 7.653c.735-.807 3.118-1.054 5.206-.26 1.67.635 2.912.733 3.323.703C13.2 8.054 14.54 6.759 15 6.117c-1.382 1.015-3.853 1.067-5.456.482C8.262 6.13 7.078 6.004 6.647 6z" fill="#15673F"/><path d="M6.647 7.95C4.4 8.013 3.28 9.08 3 9.604c.735-.807 3.118-1.055 5.206-.26 1.67.634 2.912.732 3.323.702C13.2 10.004 14.54 8.71 15 8.068c-1.382 1.015-3.853 1.067-5.456.481-1.282-.468-2.466-.594-2.897-.599z" fill="#0B9740"/><path d="M6.647 9.9C4.4 9.962 3.28 11.028 3 11.553c.735-.807 3.118-1.055 5.206-.26 1.67.635 2.912.732 3.323.702 1.671-.041 3.01-1.336 3.471-1.978-1.382 1.015-3.853 1.067-5.456.481-1.282-.468-2.466-.594-2.897-.598z" fill="#36B449"/></svg>