<!-- by TradingView --><svg xmlns="http://www.w3.org/2000/svg" width="18" height="18"><path fill="#F0F3FA" d="M0 0h18v18H0z"/><path d="M3 11l.13.34c.75 1.8 3.99 2.2 7.22.9 3.23-1.3 5.24-3.8 4.49-5.58-.76-1.8-3.99-2.2-7.22-.9a10.56 10.56 0 00-2.36 1.3v1.22a9.08 9.08 0 016.77-2.24c1.15.15 1.7.53 1.88.98.2.44.13 1.15-.58 2.04a8.27 8.27 0 01-3.35 2.31c-1.49.6-2.93.73-4.04.59-1.15-.15-1.72-.51-1.9-.96H3z" fill="#FEBF00"/><path d="M9.4 8H7.28l-.53 1H8.9l.5-1z" fill="#FEBE00"/><path d="M8.92 9H6.74l-.28.48h.82l-.3.64c-1.56.24-1.96-.41-1.98-.76-.02-1.51 3.17-3.02 5.37-3.32L10.9 5C8.37 5 3.47 6.98 3.6 9.47c.1 1.67 2.85 1.66 4.43 1.4L8.92 9z" fill="#006CB5"/></svg>