<!-- by TradingView --><svg width="18" height="18" viewBox="0 0 18 18" xmlns="http://www.w3.org/2000/svg"><path d="M0 9a9 9 0 1 1 18 0A9 9 0 0 1 0 9Z" fill="#F0F3FA"/><path d="M10.11 4c.31 0 1.62-.14 3.52 1.64 2.23 2.1 1.23 5.23.53 6.1-.7.89-2.1 2.26-4.6 2.26C8.3 14 3 13.88 3 10.11c0-3.28 2.17-4.8 3.7-4.8 1.52 0 1.01 3.06.94 3.62-.07.56.17 1.34.91 1.34.76 0 1.3-.57 1.3-1.62 0-1.05-.57-1.65-1.3-2.33C7.8 5.62 8.5 4 10.1 4Z" fill="#88418D"/><path d="M8.78 11.87c.1-.1.04-.05.02-.2l-.02-.23-.33.16c-.18.1-.34.45-1.12.44-.3-.01-.54-.22-.67-.34-.11-.1-.33-.33-.44-.37-.19.46-.2.5-.29 1.05-.13.82.07 1.05.75 1.32.54.21 1.46.16 2.09.16.2 0 .1.05.34 0 .25-.05.63-.03.74-.06.19-.06.68 0 1.27-.63l.2-.22c.16-.17.2-.3.32-.55.62-1.23-.38-1.4-1.2-1.31-.28.03-.57.3-.77.4-.37.2-.32.37-.89.38Z" fill="#AC7DB1"/><path d="M13.83 6.17C13.5 6 13 5 10.69 4.2c-.17-.18-2.1-.3-1.7 1.49.03.14.13.26.2.4.1.16.1.46.33.55.4.14.75.23 1 .15.38-.11.86-.09 1.27-.1.65-.01.91.1 1.64.3.15.03 1.2.51.89-.17-.08-.17-.26-.6-.5-.66Z" fill="#A573AA"/><path d="M4.05 7.3c.1.01.18.08.46.1.37.03.16-.07.96.1.26.05.46.3.63.42.5.38.72 2.17 1.07 2.5.68.64.4-.81.4-1.16.02-.8.15-1.36.13-2.14-.03-.76-.3-1.46-.9-1.58C5.67 5.29 4.1 6.7 4.06 7.3Z" fill="#AC7DB1"/><path d="M12.54 5.08c.1.22.29.24.44.64-.24-.13-3.98-1.4-.67-.78l-.04-.12-.71-.3c-.55-.1-.78-.2-1.2-.13-.46.08-.76.51-.5.74.2.33.09.44.5.62.38.16.36.05.53.1.55.16.4.03.6.1.17.04.55.04.74.08.21.05.8.27 1.03.3.14.02.13.08.26.06.16-.02.19-.1.1-.28-.1-.2-.8-.95-1.08-1.03ZM7.16 9.4l.13-.09.08-.27c.15-.55.22-1.6.15-2.16-.04-.43-.35-.9-.67-1.01-.3-.1-.14-.03-.56-.07-.3-.02-1.03.36-1.25.7-.08.12.05.27.19.28.28.01.66.2.9.34.52.34.62 1.2.79 1.67.01.07.24.58.24.61Z" fill="#D6C2DC"/><path d="M8.11 12.58c-.07-.01-.05-.08-.08-.15-.1-.28-.66.15-1.33 0-.33-.06-.34.01-.34.42 0 .42.04.46.37.63.34.16 1.1.15 1.46.12.53-.05 1.59-.1 1.94-.38.23-.18.48-.36.6-.7l.06-.2c0-.02.25-.36-.13-.46-.67-.17-1 .24-1.9.53-.1 0-.58.11-.65.2Z" fill="#CDB5D4"/><path d="M7.15 8.36c.13-.12.22-.57.24-.81.01-.13-.04-.42-.03-.52 0-.26-.2-.64-.4-.82-.15-.14-.13-.1-.32-.13-.54-.07-.39.06-.76.17.22.29.1.19.4.4.3.23.5.81.61 1.15.07.2.23.45.26.56ZM12.54 5.08l-.23-.14c-.37-.06-.46-.42-1.31-.42-.5 0-.33.43-.15.64l.02.03c.13.15.12.08.2.1l.4.1c.42.12.86.2 1.3.32.13.02.25.01.16-.15-.1-.22-.32-.32-.39-.48Z" fill="#F7F2F7"/><path d="M6.71 13.29c.12.1.45.11.62.1.62-.01.84.01 1.37-.11.1-.03.18-.01.28-.02.17 0 .25-.09.7-.14.25-.02 1.03-.7.6-.97-.16-.12-.37-.01-.51.04-.02 0-1.83.6-1.99.57-.32-.05.1-.05-.19-.18l-.76.09c-.42.03-.28.47-.12.62Z" fill="#DECEE2"/></svg>