<!-- by TradingView --><svg width="18" height="18" viewBox="0 0 18 18" fill="none" xmlns="http://www.w3.org/2000/svg">
<rect width="18" height="18" fill="#1B5EA8"/>
<path fill-rule="evenodd" clip-rule="evenodd" d="M9.00001 7.75002V13.1667C8.85456 13.7833 8.15274 14.7733 6.5091 15C6.45058 14.9866 6.54181 14.8851 6.77459 14.6262C7.02397 14.3488 7.4358 13.8908 8.00002 13.1667V12.9731C6.03353 13.1667 5.01456 12.4243 5.00002 11.2909V8.02043C5.06668 7.6482 5.49092 7.04002 6.65456 7.00002H8.00001C8.29092 7.02224 9.00001 7.16668 9.00001 7.75002ZM7.22893 7.7065L8.00002 8.26309V11.7418L7.22893 12.12L6.00002 11.3689V8.33266L7.22893 7.7065Z" fill="#FFB309"/>
<path d="M9.99999 7.95165L9.99999 12.6747C10.5206 13.2601 10.7954 12.9245 10.9962 12.6794L11 12.6747L11 8.00002H12.1426C12.6114 7.51142 12.3379 7.11338 12.1426 6.99962H11.6772C10.9327 6.53977 11.3107 6.22647 11.5807 5.77141C11.9312 5.25647 12.6252 4.82257 12.6941 4.33397C12.7631 3.84538 12.2977 3.99867 12.0564 4.13638L11.3891 4.74545C10.9583 5.21249 10.3536 5.50786 10.2675 6.13656C10.1985 6.63952 9.99999 6.99962 9.60902 7.14332C9.07129 7.57443 9.64954 7.81992 9.99999 7.95165Z" fill="white"/>
</svg>
