<!-- by TradingView --><svg width="18" height="18" viewBox="0 0 18 18" xmlns="http://www.w3.org/2000/svg"><path fill="#F0F3FA" d="M0 0h18v18H0z"/><path d="M9.24 3.02c.48.58.84 1.16 1.09 1.75.44 1.04-.43 2.25-1.17 3.06-.02.02-.03.02-.05 0a90 90 0 0 0-.14-.15A4.43 4.43 0 0 1 7.7 5.64c-.33-1.23.62-1.97 1.5-2.63h.05Zm-1 4.87c.02.09-.01.14-.1.17-1.37.38-2.41.08-3.13-.93a4.36 4.36 0 0 1-.64-2.22l.02-.03a.08.08 0 0 1 .07-.01c.27.09.56.15.84.21.37.08.73.16 1.01.3a3.36 3.36 0 0 1 1.93 2.5Zm4.41-2.51c-1.54-.25-2.47 1.26-2.74 2.58-.02.09.01.14.1.16 1.45.25 2.7-.15 3.76-1.2.23-.22.38-.56.45-1 0-.06-.02-.1-.07-.13a6.42 6.42 0 0 0-1.5-.41ZM7.83 9.03c-.38.6-.98 1.4-1.74 1.64-1.5.5-2.3-.19-3.08-1.34a.08.08 0 0 1 0-.06c0-.02 0-.04.02-.05a4.82 4.82 0 0 1 1.77-.91c.2-.06.61-.04 1.2.06.5.08 1.1.26 1.79.53.06.02.08.07.04.13Zm2.44.16c.89 1.87 2.97 1.68 4.67 1.16.02 0 .04-.02.05-.04a.08.08 0 0 0 0-.06c-.3-1.05-.95-1.67-1.95-1.86a3.33 3.33 0 0 0-2.74.69.1.1 0 0 0-.03.12Zm-.8.68c.02-.04.05-.05.1-.04 1.06.37 1.9.81 2.5 1.73.39.6.37 1.58.33 2.3a.08.08 0 0 1-.03.06.08.08 0 0 1-.07 0l-.07-.01c-1.12-.38-2.15-.74-2.8-1.66-.42-.6-.2-1.7.05-2.38ZM6.26 14h.1c.64-.2 1.14-.42 1.52-.67 1.22-.82 1.2-2.22.69-3.44a.06.06 0 0 0-.04-.04.07.07 0 0 0-.05 0c-.88.37-1.35.58-1.42.62-.44.25-1.22.86-1.24 1.4-.03.68.1 1.36.37 2.06l.07.07Z" fill="#FE0308"/></svg>