<!-- by TradingView --><svg width="18" height="18" viewBox="0 0 18 18" xmlns="http://www.w3.org/2000/svg"><path fill="#00C0FB" d="M0 0h18v18H0z"/><path d="M7.98 11 7 12h4l-.98-1H7.98ZM5 13l.9-1h2.2l.9 1H5Zm4 0 .9-1h2.2l.9 1H9Z" fill="#FF4"/><path d="M10 9.8c0-.07.03-.11.1-.14l.03-.02c.02 0 .03-.06.04-.16l.02-.43a8.96 8.96 0 0 0-.04-.7l-.04-.02c-.06-.03-.1-.07-.1-.13 0-.07.04-.12.12-.15.08-.03.2-.05.36-.05.17 0 .28.01.35.04.07.03.1.07.1.14 0 .06-.03.1-.09.14l-.01.01a.1.1 0 0 0-.05.07V8.64c0 .07 0 .1.03.12l.14.02c.12 0 .19 0 .22-.02s.04-.06.04-.13V8.6l-.01-.16c-.01-.05-.02-.08-.04-.09l-.03-.02c-.05-.03-.08-.07-.08-.13 0-.07.04-.12.11-.15s.2-.04.38-.04c.17 0 .28.01.35.04.07.03.1.08.1.14 0 .06-.03.1-.1.14a.42.42 0 0 0-.04.04c-.02.01-.03.05-.04.13a7.58 7.58 0 0 0 .03 1.15l.04.03c.05.03.08.07.08.13 0 .07-.03.12-.1.15a.93.93 0 0 1-.35.05c-.16 0-.28-.02-.36-.05-.07-.03-.1-.08-.1-.14 0-.06.03-.12.1-.16.03-.02.04-.05.05-.1v-.27c0-.07 0-.12-.03-.13l-.14-.02c-.12 0-.2 0-.23.02s-.05.07-.05.15c0 .1 0 .17.02.23 0 .06.02.1.03.1l.03.03c.05.04.08.08.08.13 0 .07-.04.12-.11.15-.08.04-.2.05-.37.05a.88.88 0 0 1-.33-.05c-.07-.03-.11-.08-.11-.14ZM6.7 9.15h.37a2.73 2.73 0 0 0-.12-.28c-.03-.07-.05-.1-.07-.1-.02 0-.04.03-.06.08a4 4 0 0 0-.11.3Zm-.7.68c0-.07.04-.11.1-.14l.04-.01c.05-.02.12-.16.2-.41a19.52 19.52 0 0 1 .15-.38c.13-.36.2-.6.23-.72 0-.07.02-.11.05-.13C6.8 8 6.85 8 6.91 8a.4.4 0 0 1 .18.03c.05.03.09.06.13.12l.15.28a11.69 11.69 0 0 1 .33.87c.08.2.13.32.16.35l.04.02c.07.03.1.07.1.13 0 .07-.04.12-.11.15a1 1 0 0 1-.37.05c-.18 0-.32-.02-.39-.04-.07-.03-.1-.07-.1-.14v-.07a.12.12 0 0 1 .06-.05.18.18 0 0 0 .06-.03.06.06 0 0 0 .02-.05c0-.04-.03-.06-.08-.08a.97.97 0 0 0-.27-.03c-.1 0-.17.01-.2.03-.04.01-.06.04-.06.08 0 .03 0 .04.02.06l.06.03c.02 0 .04.02.05.04.02.02.02.04.02.07 0 .06-.03.1-.09.14a.67.67 0 0 1-.27.04.6.6 0 0 1-.26-.04C6.03 9.93 6 9.88 6 9.83ZM8.5 9h1l-.2.62h-1L8.5 9Z" fill="#FF4B47"/><path d="M4.8 5.72c.54-.54 1.2-.98 1.92-1.27l.17.66c.37-.17.75-.3 1.16-.39l-.16-.62a6.03 6.03 0 0 1 2.24 0l-.16.63c.41.08.8.22 1.16.4l.17-.67c.71.3 1.35.72 1.9 1.25l-.56.58c.28.32.52.67.72 1.05l.64-.67c.46.7.79 1.5.93 2.36h-1a5.87 5.87 0 0 1 .06 1.26H15a6.21 6.21 0 0 1-.65 2.5l-.76-.62c-.11.29-.25.57-.41.83l-.72-.94A4.02 4.02 0 0 0 9 6a4.02 4.02 0 0 0-3.46 6.06l-.71.94c-.16-.26-.3-.54-.42-.83l-.76.62A6.21 6.21 0 0 1 3 10.3h1a5.95 5.95 0 0 1 .08-1.26h-1c.13-.85.45-1.65.92-2.34l.63.66c.2-.38.44-.73.72-1.05l-.56-.58Z" fill="#4E3C93"/><path d="M4.23 11c-.05-.3-.08-.63-.08-.95A4.92 4.92 0 0 1 9 5a4.92 4.92 0 0 1 4.85 5.05c0 .32-.03.64-.08.95h-.75c.07-.3.1-.63.1-.95 0-2.37-1.8-4.3-4.12-4.3a4.18 4.18 0 0 0-4.12 4.3c0 .32.03.64.1.95h-.75Z" fill="#fff" fill-opacity=".5"/></svg>