<!-- by TradingView --><svg width="18" height="18" viewBox="0 0 18 18" xmlns="http://www.w3.org/2000/svg"><path fill="#F0F3FA" d="M0 0h18v18H0z"/><path d="m7.64 9.13 1.61.68c.07.03.08.08.04.14l-1.5 2.39a.06.06 0 0 0 0 .06c.36.72.94 1.35 1.71 1.53a2.35 2.35 0 0 0 2.65-1.24c.53-1 .29-2.24-.58-2.94a1.97 1.97 0 0 0-.48-.27.06.06 0 0 1-.01-.07c.52-.87 1.14-1.85 1.86-2.94.11-.17.2-.36.28-.54l.14-.28a.46.46 0 0 1 .08-.11l.06-.07v-.02l-.01-.02h-.02c-.2 0-.55.01-1.07.05-.2.01-.32.07-.41.23a225.42 225.42 0 0 0-2.04 3.2h-.03l-1.73-.74a.05.05 0 0 1-.03-.08l1.62-2.5a.05.05 0 0 0 0-.05 2.7 2.7 0 0 0-1.8-1.49 2.26 2.26 0 0 0-2.14.64c-.94.95-1.06 2.54.05 3.42a6.38 6.38 0 0 0 .61.45.04.04 0 0 1 0 .03L4 12.45a.03.03 0 0 0 .01.03h.02l1.35-.1a.16.16 0 0 0 .12-.07l2.03-3.14a.1.1 0 0 1 .05-.04h.06Zm.94-3.52a.94.94 0 0 0-.45.35 1345.72 1345.72 0 0 0-1 1.57.08.08 0 0 1-.09.03c-.3-.15-.58-.3-.7-.61-.47-1.14.82-2.4 1.92-1.64a4.16 4.16 0 0 1 .33.28.02.02 0 0 1-.01.02Zm1.87 4.78a.08.08 0 0 1 .12-.03l.2.13a1.21 1.21 0 0 1 .54.8 1.3 1.3 0 0 1-.18.96l-.03.05c-.19.29-.47.5-.8.57-.33.08-.67.02-.94-.16l-.2-.13a.08.08 0 0 1-.04-.05.08.08 0 0 1 0-.06l1.33-2.08Z" fill="#282EA3"/></svg>