<!-- by TradingView --><svg width="18" height="18" viewBox="0 0 18 18" xmlns="http://www.w3.org/2000/svg"><path fill="#F0F3FA" d="M0 0h18v18H0z"/><path d="m9.59 7.3-.62-1.14 1.13-2.14.02-.01a.04.04 0 0 1 .06.01l4.81 8.9a.05.05 0 0 1-.02.07l-.03.01h-.53a.14.14 0 0 1-.14-.08l-3.83-7.09-.02-.01a.04.04 0 0 0-.05.01L9.6 7.3ZM8.63 6.7h.04l.02.03.55 1-.64 1.21-.04.04-.04.02h-1.1l-.01-.01H7.4a.02.02 0 0 1 0-.03L8.63 6.7Z" fill="#D6261E"/><path d="M10.53 8.93c.03.05.01.07-.04.07h-.54c-.07 0-.12-.02-.15-.08-.61-1.15-1.13-1.98-1.73-3.1l-.02-.02a.04.04 0 0 0-.05.01l-3.77 7.13a.11.11 0 0 1-.04.04.12.12 0 0 1-.06.02H3.06c-.06 0-.07-.02-.05-.07l4.7-8.9.03-.02a.06.06 0 0 1 .08.02l2.71 4.9Z" fill="#27166D"/><path d="m6.08 9.9.14.07.02.02v2.57l-.22.22a.06.06 0 0 0-.01.05c.02.1.1.16.26.16h1.05c.07 0 .1-.03.1-.1V9.67a.08.08 0 0 0-.05-.04H6.34c-.12-.02-.21.01-.3.08a.12.12 0 0 0-.03.1.12.12 0 0 0 .07.1Zm2.46 1.38c-.06-.02-.06-.04-.01-.06l.23-.1c.56-.22.63-.92.15-1.27-.26-.2-.75-.25-1.18-.22-.03 0-.05.02-.06.04a.44.44 0 0 0 0 .23.07.07 0 0 0 .06.05l.04.01c.14.05.23.08.25.23v.68c-.02.16-.11.2-.27.22a.07.07 0 0 0-.06.03.27.27 0 0 0-.02.22 7.76 7.76 0 0 0 .1.08c.16.07.25.11.25.33v.62c0 .2-.09.3-.29.31a.06.06 0 0 0-.05.04.44.44 0 0 0 0 .23l.01.03.04.02c.64.02 1.43-.09 1.54-.77.08-.5-.27-.81-.73-.95Z" fill="#27166D"/><path d="M11.69 11.27c-.05-.01-.06-.04 0-.06l.23-.1c.56-.21.62-.91.15-1.27-.27-.2-.76-.25-1.19-.22-.03 0-.04.02-.05.04a.44.44 0 0 0 0 .23.07.07 0 0 0 .05.05l.04.01c.15.05.24.08.25.23.02.23.02.46 0 .68-.01.16-.11.2-.27.22a.07.07 0 0 0-.06.04.27.27 0 0 0-.02.21c.01.03.03.04.05.05l.05.03c.16.07.26.11.26.33v.62c0 .2-.1.3-.3.32a.06.06 0 0 0-.05.04.44.44 0 0 0 0 .23s0 .02.02.03l.03.01c.65.02 1.44-.09 1.54-.76.08-.5-.27-.82-.73-.96ZM9.23 9.91l.14.06.03.02v2.55l-.01.02-.21.22a.06.06 0 0 0-.02.05c.02.1.1.16.26.16h1.05c.07 0 .11-.03.11-.1V9.67a.09.09 0 0 0-.05-.04H9.5c-.12-.02-.22.01-.3.08a.12.12 0 0 0-.04.1.12.12 0 0 0 .07.1Z" fill="#27166D"/></svg>