<!-- by TradingView --><svg width="18" height="18" viewBox="0 0 18 18" xmlns="http://www.w3.org/2000/svg"><path fill="#F0F3FA" d="M0 0h18v18H0z"/><path d="m7.42 10.19.55.51c0 .02.02.03.03.05v3.13c0 .03-.01.06-.03.08a.1.1 0 0 1-.07.04H5.1c-.02 0-.05-.04-.07-.06a.13.13 0 0 1-.03-.09v-9.7c0-.04.01-.07.03-.09.02-.02.05-.06.07-.06h2.8a.1.1 0 0 1 .07.04c.01.02.03.05.03.08v3.77c0 .03.02.06.04.09.02.02.04.02.07.02H9.9c.03 0 .05.01.07-.01a.13.13 0 0 0 .03-.08V4.14c0-.03.02-.06.04-.09.01-.02.04-.05.07-.05h2.79l.07.04.03.09v9.74l-.03.09-.07.04h-2.8c-.02 0-.05-.03-.06-.05a.13.13 0 0 1-.03-.09v-3.74c0-.03-.02-.06-.04-.09A.1.1 0 0 0 9.9 10H7.54c-.08 0-.18 0-.15.13l.03.06Z" fill="#0575BA"/></svg>