<!-- by TradingView --><svg width="18" height="18" viewBox="0 0 18 18" xmlns="http://www.w3.org/2000/svg"><path fill="#F0F3FA" d="M0 0h18v18H0z"/><path d="m9.66 7.61-.84 2.92-.02.04a3.5 3.5 0 0 1-4.3 2.3A3.44 3.44 0 0 1 2.14 8.6c-.5 1.8.7 3.67 2.08 4.07a3.25 3.25 0 0 0 4.1-2.24l.02-.04.85-2.91v-.05a3.49 3.49 0 0 1 4.32-2.3 3.44 3.44 0 0 1 2.35 4.28c.5-1.82-.7-3.68-2.08-4.08a3.25 3.25 0 0 0-4.1 2.24l-.02.04Z" fill="#0172BD"/><path d="M3.27 8.78h.75L4.33 8h.53l-.82 2h-.53l.36-.9h-.73l-.37.9h-.53l.81-2h.54l-.32.78ZM5.78 8.23l-.69 1.04h.6l.09-1.04ZM6.16 10h-.5l.01-.44h-.79l-.27.44h-.54l1.49-2h.69l-.09 2ZM7.75 8v1.49L8.35 8h.47L8 10h-.68V8.34L6.66 10h-.47L7 8h.75ZM10.04 9.7c.4 0 .51-.05.62-.3l.3-.74a.51.51 0 0 0 .04-.2c0-.11-.1-.17-.27-.17h-.34L9.82 9.7h.22ZM9.97 8h.9c.46 0 .66.13.66.42 0 .1-.03.23-.1.43l-.29.66c-.1.22-.21.34-.38.4a1.6 1.6 0 0 1-.58.09H9.16l.81-2ZM13.02 8.71c.04-.1.07-.18.07-.25 0-.13-.1-.19-.3-.19-.25 0-.37.1-.5.4l-.25.61c-.03.1-.07.23-.07.28 0 .1.14.18.33.18.23 0 .33-.1.47-.41l.25-.62Zm-1.23-.13c.1-.23.17-.34.32-.42.18-.1.43-.16.75-.16.52 0 .78.13.78.38 0 .08-.03.2-.09.33l-.32.8a.68.68 0 0 1-.33.38c-.15.08-.3.11-.55.11-.61 0-.93-.13-.93-.39 0-.1.04-.25.13-.46l.24-.57ZM14.32 8.82l.92-.82h.61l-1.04.9.38 1.1h-.55l-.36-1.1-.45 1.1h-.54l.82-2h.54l-.33.82Z" fill="#00A76D"/></svg>