<!-- by TradingView --><svg width="18" height="18" viewBox="0 0 18 18" xmlns="http://www.w3.org/2000/svg"><path fill="#F0F3FA" d="M0 0h18v18H0z"/><path d="m6.12 7-.06.36h.85c.24.01.61.18.61.84 0 .89-.51.98-.94.98l.22-1.45H6L5.45 11h.78l.28-1.52h.71c.37 0 .67-.17.77-.26-.01-.68.25-1.3.39-1.51C8.1 7.18 7.62 7 7.4 7H6.12ZM2 11l.57-3.27h.82l-.55 2.9h.87c.36-.08 1.07-.61 1.07-2 0-.89-.62-1.21-.94-1.27H2.63L2.7 7h1.45c.48.03 1.46.38 1.46 1.54 0 1.75-1.11 2.37-1.67 2.46H2Z" fill="#1A64AF"/><path d="M11.78 5C9.4 5 8.45 7.5 8.27 8.74A2.87 2.87 0 0 1 9.9 7.38c.32-.56 1.26-1.68 2.45-1.68 1.19 0 2 .8 2.25 1.2h.1A3.1 3.1 0 0 0 11.79 5Z" fill="url(#a)"/><circle cx="14.75" cy="7.25" r=".25" fill="#1B9DDB"/><path fill-rule="evenodd" d="m13.91 11 .6-3.38.43.6-.1.53c.13-.19.34-.38.6-.38.53 0 .63.5.52 1.13L15.7 11h-.54l.29-1.72c.03-.15 0-.44-.3-.44-.14 0-.27.1-.37.22L14.42 11h-.51Zm-4.79-.75.27-1.5h-.4l.13-.38h.34l.08-.44.56-.3-.11.75h.44l-.14.37h-.36l-.24 1.66c-.05.46.21.4.35.32-.12.22-.38.27-.5.27-.45 0-.47-.5-.42-.75Zm2.9-.75h-1.19c-.13.62 0 1.14.44 1.14.35 0 .53-.2.57-.3-.03.22-.2.66-.68.66-.6 0-.93-.36-.93-1 0-.63.27-2 1.2-2 .75 0 .7 1 .58 1.5Zm-.42-.43h-.7c.05-.3.23-.83.51-.83.29 0 .24.53.19.83ZM13.04 11c.53 0 .74-.4.78-.6-.6.39-1.02.36-1.02-.6 0-.97.37-1.56.7-1.56.27 0 .35.48.36.72l.22-.57c-.05-.13-.25-.39-.58-.39-1.03 0-1.3 1.26-1.3 1.8 0 .53.18 1.2.84 1.2Z" fill="#221816"/><defs><linearGradient id="a" x1="14.62" y1="6.42" x2="9.77" y2="8.68" gradientUnits="userSpaceOnUse"><stop stop-color="#2379AC"/><stop offset="1" stop-color="#D8DFF1"/></linearGradient></defs></svg>