<!-- by TradingView --><svg width="18" height="18" viewBox="0 0 18 18" xmlns="http://www.w3.org/2000/svg"><path fill="#F0F3FA" d="M0 0h18v18H0z"/><path d="M9.32 3a6 6 0 0 1 5.43 4.3A6.03 6.03 0 0 1 9.32 15h-.64a5.93 5.93 0 0 1-2.64-.78A5.94 5.94 0 0 1 3 9.25V8.6A6 6 0 0 1 8.69 3h.63Zm2.74 1.42a5.53 5.53 0 0 0-7.72 1.66 5.49 5.49 0 0 0 .79 6.8l.01-.01 2.91-2.9c.03-.03.03-.06.01-.09-.07-.1-.19-.2-.25-.29a3.43 3.43 0 0 1 4.25-5.17ZM5.84 13.5a5.46 5.46 0 0 0 6.24.05 5.48 5.48 0 0 0 .85-8.4c-.02-.03-.05-.03-.08 0l-2.9 2.9a.04.04 0 0 0-.01.06 3.43 3.43 0 0 1-4.1 5.4Z" fill="#005BAC"/></svg>