<!-- by TradingView --><svg width="18" height="18" viewBox="0 0 18 18" xmlns="http://www.w3.org/2000/svg"><path fill="#007EBC" d="M0 0h18v18H0z"/><path fill-rule="evenodd" d="M9 13 2 8.95 9 5l7 3.95L9 13Zm0-.72L3.25 8.96l5.73-3.24h.02l5.73 3.24-5.73 3.32h-.02Zm-1-2.4c0-.85-.66-1.6-1-1.88h.7c.55.66.76 1.36.8 1.63v.04h1v-.04c.04-.27.25-.97.8-1.63h.7c-.34.27-1 1.03-1 1.87V11h-.5v-.8h-1v.8H8V9.87Zm.16-1.64c0 .26.17.76.73.76.7 0 .82-.41.82-.7 0-.3-.32-.56-.6-.62-.3-.07-.46-.16-.46-.38s.26-.23.33-.23.32.1.32.39h.41c.01-.26-.12-.8-.73-.8-.76 0-.76.6-.76.68 0 .08.05.43.67.64.14.03.41.12.41.4 0 .34-.66.35-.7-.14h-.44Z" fill="#fff"/></svg>