<!-- by TradingView --><svg width="18" height="18" fill="none" xmlns="http://www.w3.org/2000/svg"><path fill="#106138" d="M0 0h18v18H0z"/><path d="M6.043 6.426c-1.009-.318-2.467.378-3.07.766.1.586.802 1.934 2.104 2.315 1.627.477 2.257-.665 2.37-.954.086-.223-.143-1.729-1.404-2.127Z" fill="url(#a)"/><path d="M10.614 5.646C10.63 4.611 9.523 3.451 8.967 3c-.544.267-1.657 1.316-1.65 2.645.01 1.66 1.312 1.915 1.626 1.935.244.016 1.65-.639 1.67-1.934Z" fill="url(#b)"/><path d="M12.921 9.472c1.011-.311 1.789-1.704 2.051-2.361-.43-.42-1.8-1.123-3.087-.698-1.61.531-1.447 1.82-1.367 2.118.061.232 1.14 1.33 2.403.941Z" fill="url(#c)"/><path d="M9.712 12.712c.581.866 2.164 1.22 2.882 1.288.297-.519.617-1.998-.151-3.094-.96-1.37-2.185-.867-2.457-.71-.211.12-1 1.433-.274 2.516Z" fill="url(#d)"/><path d="M8.181 12.712c-.58.866-2.163 1.22-2.882 1.288-.297-.519-.616-1.998.152-3.094.96-1.37 2.185-.867 2.457-.71.21.12 1 1.433.273 2.516Z" fill="url(#e)"/><defs><linearGradient id="a" x1="8.449" y1="8.902" x2=".754" y2="6.346" gradientUnits="userSpaceOnUse"><stop stop-color="#DFBD4E"/><stop offset="1" stop-color="#DFBD4E" stop-opacity="0"/></linearGradient><linearGradient id="b" x1="9.335" y1="8.865" x2="8.966" y2=".824" gradientUnits="userSpaceOnUse"><stop stop-color="#DFBD4E"/><stop offset="1" stop-color="#DFBD4E" stop-opacity="0"/></linearGradient><linearGradient id="c" x1="9.999" y1="8.865" x2="16.493" y2="7.168" gradientUnits="userSpaceOnUse"><stop stop-color="#DFBD4E"/><stop offset="1" stop-color="#DFBD4E" stop-opacity="0"/></linearGradient><linearGradient id="d" x1="9.888" y1="9.976" x2="13.504" y2="15.729" gradientUnits="userSpaceOnUse"><stop stop-color="#DFBD4E"/><stop offset="1" stop-color="#DFBD4E" stop-opacity="0"/></linearGradient><linearGradient id="e" x1="8.302" y1="9.976" x2="3.91" y2="15.544" gradientUnits="userSpaceOnUse"><stop stop-color="#DFBD4E"/><stop offset="1" stop-color="#DFBD4E" stop-opacity="0"/></linearGradient></defs></svg>