<!-- by TradingView --><svg width="18" height="18" viewBox="0 0 18 18" xmlns="http://www.w3.org/2000/svg"><path fill="#F0F3FA" d="M0 0h18v18H0z"/><path d="M15 9c0 .53-.15 1.04-.46 1.53-.3.5-.73.92-1.3 1.3-.56.37-1.2.66-1.94.87a8.58 8.58 0 0 1-4.6 0c-.73-.2-1.38-.5-1.94-.87-.57-.38-1-.8-1.3-1.3-.3-.49-.46-1-.46-1.53s.15-1.04.46-1.53c.3-.5.73-.92 1.3-1.3A6.69 6.69 0 0 1 6.7 5.3a8.58 8.58 0 0 1 4.6 0c.73.2 1.38.5 1.94.87.57.38 1 .8 1.3 1.3.3.49.46 1 .46 1.53Z" fill="#EDF23C"/><path d="M14.76 9c0 .5-.15.98-.44 1.44-.3.46-.71.87-1.25 1.22-.54.36-1.17.63-1.87.82a8.4 8.4 0 0 1-4.42 0c-.7-.19-1.32-.46-1.87-.82a4.11 4.11 0 0 1-1.24-1.22c-.3-.46-.44-.94-.44-1.44s.14-.98.44-1.44c.29-.47.7-.87 1.24-1.23a6.48 6.48 0 0 1 1.87-.82 8.4 8.4 0 0 1 4.42 0c.7.2 1.33.47 1.87.82.54.36.95.76 1.25 1.23.29.46.44.94.44 1.44Z" fill="#017CC1"/><path d="M7.22 10.96c-.03.08-.01.1.06.04.2-.16.37-.38.5-.65.1-.2.2-.48.28-.81l.29-1.16c.12-.46.25-.78.4-.98.36-.44.82-.63 1.39-.55.06.01.07.03 0 .05a2 2 0 0 0-1.16 1.4l-.39 1.5c-.1.42-.3.75-.59 1-.3.26-.64.38-1.02.36-.2 0-.32-.08-.37-.21a.43.43 0 0 1 0-.35c.04-.1.1-.16.2-.2a.3.3 0 0 1 .27.03c.1.05.15.15.18.3a.4.4 0 0 1-.03.2v.03Z" fill="#FFF708"/><path d="M7.57 7.59c-.04 0-.1-.05-.17-.14a.28.28 0 0 1-.06-.27c.02-.1.07-.17.16-.23a.33.33 0 0 1 .26-.08c.1.02.2.1.27.22.16.3.1.54-.19.72a2 2 0 0 1-.76.23.08.08 0 0 0-.06.04.1.1 0 0 0-.01.09.4.4 0 0 0 .34.3c.24.04.47.06.7.06.04 0 .05.02.04.05l-.24.86c-.01.03-.03.06-.07.06-.63.08-1.12-.24-1.46-.96a.46.46 0 0 0-.1-.17A20.27 20.27 0 0 0 4.24 8l-.01-.03.01-.02c.98 0 1.91-.04 2.8-.14.2-.03.38-.06.54-.11.17-.06.17-.1-.01-.1ZM10.72 7.2c.03-.08 0-.1-.07-.06-.48.31-.79.77-.94 1.37-.16.68-.3 1.18-.39 1.48-.12.37-.3.67-.56.88a1.3 1.3 0 0 1-.93.3c-.1 0-.1-.02 0-.06.41-.14.72-.54.92-1.2L9.1 8.5c.14-.56.37-.97.7-1.23.34-.28.78-.36 1.3-.24.07.02.12.07.15.16.05.15.04.27-.02.36a.27.27 0 0 1-.24.11.3.3 0 0 1-.25-.11c-.06-.1-.07-.2-.03-.35Z" fill="#FFF708"/><path d="M13.53 9.2v.04c.03.2-.06.3-.25.3H9.74c-.03 0-.04-.01-.04-.04l.22-.95c.01-.06.04-.09.09-.1a2901.29 2901.29 0 0 1 3.56-.48c.1 0 .18.04.26.1.05.06.07.12.06.19l-.08.14a.58.58 0 0 0-.07.4v.08c-.04.12-.11.2-.21.26-.02 0-.02.03 0 .06Z" fill="#FFF708"/><path d="M6.6 8.3c.06 0 .1-.04.1-.1 0-.07-.04-.13-.1-.13-.06 0-.1.06-.1.12 0 .07.04.12.1.12Z" fill="#017CC1"/><path d="M11.67 10.4v-.3c0-.04.01-.06.04-.06h.03c.03 0 .04.02.04.05v.5c0 .23-.06.25-.18.05a4.76 4.76 0 0 1-.14-.26c-.04-.06-.06-.06-.06.02v.3c0 .03 0 .05-.04.05h-.03c-.03 0-.05-.02-.05-.05a23.83 23.83 0 0 1 .01-.65.07.07 0 0 1 .07-.02c.03 0 .05.02.06.04l.2.34c.03.07.05.06.05-.02ZM10 10.32h.09c.03 0 .04-.03.04-.06v-.17c0-.04.02-.06.06-.06h.03c.03 0 .05.02.05.05v.63c0 .03-.02.04-.04.04h-.04c-.04 0-.06-.02-.06-.06v-.2c.01-.03 0-.05-.03-.06a1.02 1.02 0 0 0-.18 0c-.03.01-.05.03-.05.06l.01.2c0 .04-.01.07-.05.07h-.04c-.02 0-.04-.02-.04-.04v-.63c0-.04.01-.06.04-.06h.03c.04 0 .05.02.05.06v.18c0 .03.02.04.05.05h.09ZM10.52 10.63a.2.2 0 0 1-.11.13h-.05a.05.05 0 0 1-.01-.06l.22-.6a.11.11 0 0 1 .05-.07c.06-.03.1 0 .13.06l.21.61c.01.03 0 .05-.03.05h-.03c-.03 0-.05-.02-.06-.05-.04-.1-.13-.14-.28-.1-.02 0-.03.01-.04.03ZM12.53 10.45c0 .08-.02.16-.08.22a.26.26 0 0 1-.2.1h-.06a.26.26 0 0 1-.2-.1.32.32 0 0 1-.09-.22v-.1c0-.1.03-.17.09-.23.05-.07.12-.1.2-.1h.06c.08 0 .14.03.2.1.05.06.08.13.08.22v.1ZM12.7 10.03h-.01c-.04 0-.06.03-.06.07v.58c0 .04.02.07.06.07.04 0 .07-.03.07-.06v-.6c0-.03-.03-.06-.06-.06Z" fill="#EDF23C"/><path d="M12.25 10.15h-.05c-.09 0-.15.06-.15.15v.16c-.01.1.05.17.14.17h.05c.08 0 .15-.07.15-.16v-.16c0-.09-.06-.16-.14-.16ZM10.59 10.45c-.02 0-.02-.02-.02-.04l.07-.15c.02-.03.04-.03.05 0l.04.18c.01.04 0 .05-.03.04l-.11-.03Z" fill="#017CC1"/></svg>