<!-- by TradingView --><svg width="18" height="18" viewBox="0 0 18 18" xmlns="http://www.w3.org/2000/svg"><path fill="#F0F3FA" d="M0 0h18v18H0z"/><path d="M15.52 9.8c-.06.12-.17.24-.32.37-.3.25-.76.5-1.37.71-1.2.44-2.9.71-4.8.71s-3.6-.27-4.82-.7a4.5 4.5 0 0 1-1.37-.72c-.3-.26-.4-.48-.4-.67 0-.19.1-.41.4-.67.3-.25.76-.5 1.37-.71 1.21-.44 2.91-.71 4.81-.71 1.9 0 3.6.27 4.81.7.61.22 1.07.47 1.37.72.16.14.27.27.33.38H16C15.6 7.97 12.63 7 9.02 7 5.14 7 2 8.12 2 9.5S5.14 12 9.02 12c3.59 0 6.55-.96 6.97-2.2h-.47Z" fill="#00BBDE"/><path d="M4 8h.59v1.09H6.4V8H7v3h-.59V9.72H4.6V11H4V8ZM12.53 11c-.97 0-1.48-.33-1.53-.98h.68c.03.2.1.34.24.42.13.08.34.12.62.12.52 0 .77-.13.77-.4 0-.11-.05-.2-.16-.26a1.8 1.8 0 0 0-.58-.16l-.36-.05c-.74-.12-1.12-.4-1.12-.86 0-.25.12-.45.36-.6.24-.15.57-.23 1-.23.96 0 1.45.32 1.48.96h-.66c-.02-.2-.09-.33-.22-.4a1.17 1.17 0 0 0-.6-.13c-.22 0-.39.04-.5.1-.12.07-.18.16-.18.29 0 .1.05.2.15.26.1.05.27.1.5.14l.37.05c.42.07.73.17.92.3.2.13.29.32.29.55 0 .28-.13.5-.39.65-.25.15-.61.23-1.08.23Z" fill="#00BBDE"/><path d="M11 11 9 4l-2 7h1l1-4.14L10 11h1Z" fill="#0066B3"/></svg>