<!-- by TradingView --><svg width="18" height="18" viewBox="0 0 18 18" xmlns="http://www.w3.org/2000/svg"><path fill="#F0F3FA" d="M0 0h18v18H0z"/><path d="M2 7.3a11.05 11.05 0 0 1 9.07-1.04c4.47 1.29 4.68 4.03 3.17 5.74A3.14 3.14 0 0 0 16 9.24C16 7.28 13.6 5 8.78 5 4.92 5 2.65 6.54 2 7.3ZM6.55 7H4.96c.17.12.16.41.14.54l-.76 3.82c-.06.28-.27.54-.38.64h1.57a.98.98 0 0 1-.12-.64L5.68 10h1.04l-.28 1.36c-.05.28-.27.54-.37.64h1.57c-.15-.2-.14-.5-.12-.64.24-1.22.74-3.7.8-3.9.07-.2.26-.4.34-.46H7.07c.16.12.16.41.14.54L6.91 9H5.9l.33-1.54c.06-.2.25-.4.33-.46Zm2.24 5c.09-.08.27-.3.3-.57.05-.26.4-2.76.57-3.98 0-.11-.05-.35-.19-.45h1.88c.28 0 .85.2.85 1 0 .72-.5 1.05-.75 1.13.21.02.65.27.65 1.14 0 1.08-.65 1.73-1.73 1.73H8.8Zm1.88-4.28-.16 1.16c.22.14.61-.08.61-.6 0-.4-.11-.54-.17-.56h-.28Zm-.28 1.86-.23 1.7c.32.2.9-.12.9-.87 0-.6-.17-.8-.25-.83h-.42Z" fill="#012D9A"/></svg>