<!-- by TradingView --><svg width="18" height="18" viewBox="0 0 18 18" xmlns="http://www.w3.org/2000/svg"><path fill="#F0F3FA" d="M0 0h18v18H0z"/><path d="M15.18 9.54c.08-.2.12-.41.12-.63 0-1.79-2.82-3.24-6.3-3.24S2.7 7.12 2.7 8.9c0 1.44 1.83 2.67 4.35 3.09.3-.08.78-.15 1.94-.32l2.62-.4c2.23-.35 3.22-1.13 3.57-1.74Z" fill="url(#a)"/><path d="M6.3 12.42c-1 .33-1.37.77-1.51 1.58.29-.23 1.43-.74 3.68-.94 2.33-.21 4.29-.77 5.41-1.44C15.2 10.93 16 9.95 16 8.87 16 6.73 12.87 5 9 5S2 6.73 2 8.86c0 1.53 1.6 2.84 3.93 3.47l.7-.2c-2.47-.5-4.28-1.78-4.28-3.27 0-1.93 3-3.53 6.65-3.53 3.64 0 6.65 1.6 6.65 3.53 0 .35-.16.7-.34 1.01-.5.65-1.7 1.37-4.24 1.72-1.6.22-3.22.38-4.78.83Z" fill="url(#b)"/><path fill="#F0F3FA" fill-opacity=".8" d="M4 8h10v2H4z"/><defs><linearGradient id="a" x1="2.98" y1="7.95" x2="15.26" y2="9.75" gradientUnits="userSpaceOnUse"><stop offset=".05" stop-color="#CF1628"/><stop offset=".29" stop-color="#E9192C"/><stop offset=".76" stop-color="#ED1A2D"/><stop offset=".93" stop-color="#CF1628"/></linearGradient><linearGradient id="b" x1="2.35" y1="7.39" x2="15.7" y2="10.15" gradientUnits="userSpaceOnUse"><stop stop-color="#FFC930"/><stop offset=".35" stop-color="#EFA319"/><stop offset=".62" stop-color="#FAE658"/><stop offset="1" stop-color="#FCB62E"/></linearGradient></defs></svg>