<!-- by TradingView --><svg xmlns="http://www.w3.org/2000/svg" width="18" height="18" viewBox="0 0 18 18"><path fill="#F0F3FA" d="M0 0h18v18H0z"/><path d="M13.5 7.55c-.11-.29-.24-.54-.33-.67l.26-.16c.1.16.24.42.35.73.12.31.22.67.22 1h-.3c0-.28-.09-.6-.2-.9zM12.17 12.8a5.3 5.3 0 0 1-3.13 1.1v-.3a4.62 4.62 0 0 0 4.66-4.88h.3a4.9 4.9 0 0 1-1.83 4.07z" fill="#006400"/><path d="M5.24 6.27a5.02 5.02 0 0 0-.93 3.08l-.3.01A5.3 5.3 0 0 1 5 6.1C5.82 5 7.2 4.21 9.39 4.21v.3c-2.1 0-3.39.74-4.15 1.76zM4.83 11.24l-.25.16A3.3 3.3 0 0 1 4 9.75h.3c0 .56.36 1.24.53 1.49z" fill="#2866B1"/><path d="M9.5 4.74V4a5.63 5.63 0 0 1 4.04 2.38l-.78.45a5.54 5.54 0 0 0-3.25-2.09z" fill="#18A94A"/><path d="M5.09 11.12c-.21.16-.64.49-.67.53a5.58 5.58 0 0 0 4 2.35v-.8c-1.87 0-3-1.39-3.33-2.08z" fill="#2866B1"/><path d="M8.52 5.95c-1.08-.6-2.15-.06-2.55.28.25 0 .38.23.5.45.11.21.22.41.44.37a6.79 6.79 0 0 0 1.6-1.1zM4.78 9.22V7.84c.2.02.65.08.78.15.15.09.16-.43-.17-.47l-.16-.01c-.18-.02-.21-.02-.2-.13.03-.13.36-.33.72-.33.28 0 .83.75 1.08 1.12-.27.08-.84.3-.99.52-.07.11-.1.24-.13.35-.05.15-.08.28-.22.32-.18.05-.55-.07-.7-.14zm.03.56l.68.6c.14.12.18.22.1.27-.1.05-.02.36.07.46l.05.04c.13.14.45.47.4.63l-.02.06c-.04.12-.05.16.02.21.08.06.39.36.5.54.1.14 1-.99 1.43-1.57a15.6 15.6 0 0 0-1.43-.8c-.07-.02-.19-.03-.32-.04-.26-.02-.56-.05-.7-.2-.23-.2-.71-.41-.78-.2zm2.75-1.9c.21-.24-.09-.4-.26-.46.16-.01.59-.02.96.06.47.1.72-.17.85-.38.06-.1-.1-.06-.33 0-.27.05-.62.14-.8.05-.33-.16.28-.53.72-.57.23-.03.74.02 1.27.06.45.04.92.08 1.22.08.36 0 .6-.14.76-.23.13-.08.2-.12.26-.04.1.17 1.02 1.96 1.02 2.38 0 .29-.1.57-.18.78l-.07.23c-.02.1 0 .2.04.3.03.12.05.2 0 .25-.09.09-.45-.36-.46-.65-.01-.23.17-.18.22-.17h.01l-.03-.07c-.05-.14-.17-.49-.5-.54-.31-.05-.52.5-.59.78-.1-.2-.34-.68-.48-.91-.17-.3-1-.16-.9 0 .08.12.38.2.52.23l-.59.4s-.79-.8-.79-.67c0 .1.53.74.8 1.05-.46.67-1.41 2.01-1.56 2.01-.19 0-.4-1.45-.4-1.71 0-.27-.52-.3-.76-.3-.23 0-.55-.1-.55-.54 0-.36.19-.57.29-.63.01-.16.1-.53.31-.78zm1.87.5c-.06-.23-1.68-.37-1.72-.35.2.13.69.43.88.52.25.12.9.06.84-.17z" fill="#18A94A"/></svg>