<!-- by TradingView --><svg width="18" height="18" viewBox="0 0 18 18" xmlns="http://www.w3.org/2000/svg"><path fill="#F0F3FA" d="M0 0h18v18H0z"/><path d="M10.47 8.7V6.11c0-.23-.04-.4-.1-.52a.46.46 0 0 0-.29-.26 1.87 1.87 0 0 0-.57-.08c-.02 0-.02 0-.02-.02v-.2c0-.02 0-.03.02-.03h4.45c.02 0 .02.01.02.03v.2a.04.04 0 0 1 0 .02.04.04 0 0 1-.03.01c-.3-.01-.7 0-.85.32-.05.12-.1.28-.1.5v5.83l.05.26c.06.34.22.52.59.54h.33c.02 0 .03.01.03.03v.2l-.01.03-.03.03H9.53c-.02 0-.03-.03-.03-.05v-.2c0-.01.01-.03.04-.03.3.02.73-.04.86-.37.05-.12.07-.27.07-.46V9.07a.03.03 0 0 0-.01-.01h-.02c-.3.05-.5.16-.76.36-.64.5-1.05.8-1.23.9a1.08 1.08 0 0 1-.9.16v.01a.04.04 0 0 0-.02.03v1c0 .25.02.48.06.69.1.5.48.53.9.51a.02.02 0 0 1 0 .01l.01.01v.23c0 .02 0 .03-.03.03h-4.4c-.04 0-.06-.02-.06-.07v-.14c0-.04.02-.06.06-.06.48 0 .77-.11.84-.32.07-.24.1-.5.1-.78v-5.5c0-.17-.03-.33-.1-.5-.1-.32-.6-.39-.89-.36a.02.02 0 0 1-.01 0A.02.02 0 0 1 4 5.25V5L4.03 5h4.44c.02 0 .03.01.03.03v.2c0 .02 0 .03-.02.03-.6-.03-.83.13-.89.48-.1.54-.04.99-.05 1.57 0 .07 0 .13-.02.17a.1.1 0 0 1-.05.06c-.31.19-.77.45-1.19.8-.34.28-.71.44-1.13.5-.06 0-.06.02-.02.05.56.39 1.1.36 1.62-.08.1-.09.41-.31.93-.68.4-.3.8-.46 1.3-.3a2.32 2.32 0 0 1 .7.37.02.02 0 0 1 0 .02h-.02c-.49-.11-.91.08-1.3.37l-.97.76c-.28.22-.6.34-.95.35-.07 0-.08.02-.02.07.3.21.61.3.96.25.08-.01.22-.07.43-.17.12-.06.26-.15.4-.26.35-.28.66-.55 1.04-.77.38-.23.78-.25 1.2-.1.02.02.03 0 .03-.02Z" fill="#042663"/></svg>