<!-- by TradingView --><svg width="18" height="18" viewBox="0 0 18 18" xmlns="http://www.w3.org/2000/svg"><path fill="#F0F3FA" d="M0 0h18v18H0z"/><path d="M7 5c.14 0 .27.04.38.1.1.08.2.17.24.29l.65 1.6.65 1.6c.1.27.1.55 0 .81L8.27 11l-.65 1.61a.6.6 0 0 1-.24.28A.71.71 0 0 1 7 13H5.5a.54.54 0 0 1-.36-.13.44.44 0 0 1-.15-.33V5.46c0-.12.05-.24.15-.33.1-.08.23-.13.36-.13h1.5Z" fill="#2E47E5"/><path d="M10.62 5.1c.11-.06.25-.1.38-.1h1.49c.13 0 .26.05.36.13.1.09.15.2.15.33v7.08c0 .12-.05.24-.15.33a.54.54 0 0 1-.36.13H11a.71.71 0 0 1-.38-.1.6.6 0 0 1-.24-.29l-.65-1.6-.65-1.6c-.1-.27-.1-.55 0-.81L9.73 7l.65-1.61a.6.6 0 0 1 .24-.28Z" fill="#2E47E5"/></svg>