<!-- by TradingView --><svg xmlns="http://www.w3.org/2000/svg" width="18" height="18" viewBox="0 0 18 18"><path fill="#46A4E1" d="M0 0h18v18H0z"/><path fill-rule="evenodd" d="M12.02 9.9H12c-.45 0-.88-.09-1.26-.26.36.25.66.58.88.96L9.02 15 6.4 10.57c.22-.37.51-.69.86-.93-.38.17-.8.27-1.25.27l-2.54-4.3h5.2a2.9 2.9 0 0 1-.93 3.75 3.03 3.03 0 0 1 2.52 0 2.94 2.94 0 0 1-.94-3.74h5.24L12.02 9.9Zm-2.7-4.28A3 3 0 0 1 12 4c1.66 0 3 1.32 3 2.95a2.98 2.98 0 0 1-2.98 2.96l-.4.69A2.98 2.98 0 0 1 9 15c-1.66 0-3-1.32-3-2.95 0-.54.14-1.04.4-1.48L6 9.91c-1.66 0-3-1.32-3-2.96A2.98 2.98 0 0 1 6 4a3 3 0 0 1 2.68 1.62h.64Z" fill="#fff"/></svg>