<!-- by TradingView --><svg width="18" height="18" viewBox="0 0 18 18" xmlns="http://www.w3.org/2000/svg"><path fill="#F0F3FA" d="M0 0h18v18H0z"/><path d="M11.72 8c-.16.45.51.85.81 1.07l.01.01v.02h-.02c-.89-.4-1.64-1.03-2.5-1.46-.24-.11-.41-.01-.6.12-.44.3-.89.6-1.34.88-.3.19-.13.43.07.57a5.58 5.58 0 0 0 1 .59v.01c-.76-.14-1.3-.48-2.1-.95-.44-.25-.91-.43-1.4-.18-.53.26-1.15.64-1.8.95a4.55 4.55 0 0 1-1.84.43c1.3-.38 2.48-1.16 3.66-1.82.37-.22.6-.3.97-.12l.37.15c.72.28 1.82-.64 2.48-1.1.29-.2.49-.24.8-.04.21.14.46.35.7.42.18.06.41.03.6.04.16.02.32.08.47.19.95.66 1.9 1.21 2.85 1.67a5.93 5.93 0 0 0 1.06.38c-1.48-.21-2.76-.98-4-1.79a.41.41 0 0 0-.22-.07c-.02 0-.02.01-.03.02Z" fill="#9F8C5A"/><path d="M11.68 10.43c.15.19 1.28.27 1.55.29h.01a.02.02 0 0 1 0 .04c-.75.12-1.53.2-2.33.23-.36.02-.72 0-1.08-.04a.75.75 0 0 1-.38-.17.06.06 0 0 1-.02-.03c-.06-.25.43-.36.6-.4.34-.06.67-.13 1-.23.1-.03.17-.06.25-.12a.06.06 0 0 0 .02-.05l-.01-.03-.03-.02c-.49-.17-1.11-.21-1.63-.25a.53.53 0 0 1-.14-.03c-.01 0-.01 0 0 0 .6-.02 1.2 0 1.8.05.3.03.8.07 1.05.28a.08.08 0 0 1 .02.06v.03l-.02.02c-.1.12-.47.22-.63.27l-.03.02a.06.06 0 0 0 0 .08Z" fill="#183A61"/></svg>