<!-- by TradingView --><svg width="18" height="18" viewBox="0 0 18 18" xmlns="http://www.w3.org/2000/svg"><path fill="#F0F3FA" d="M0 0h18v18H0z"/><path d="M2 6v4.99c0 .56.38 1.01.86 1.01H4V9.75h1v1.24A1 1 0 0 0 6 12h1V7.01A1 1 0 0 0 6 6H5v2.7c-.17-.25-.4-.45-.73-.45H4V7.01C4 6.45 3.33 6 2.86 6H2Z" fill="#008CD2"/><path d="M11.26 6.33c.13.07.19.23.19.4v.54c0 .14-.09.23-.2.23h-1.07C9.49 7.5 9 8.23 9 9s.5 1.35 1.18 1.35h1.16c.12 0 .21.11.21.25v1.06a3.3 3.3 0 0 1-1.63.34c-1.48 0-2.67-1.34-2.67-3s1.2-3 2.67-3c.58 0 .96.12 1.34.33Z" fill="#FDB825"/><path d="M15.65 6.72c0-.16-.06-.32-.2-.4A2.61 2.61 0 0 0 14.1 6c-1.48 0-2.65 1.34-2.65 3s1.17 3 2.65 3c.72 0 1.5-.17 1.9-.39V9.25c0-.45-.33-.81-.73-.81h-.84c-.3 0-.53.31-.53.65 0 .35.22.66.53.66h.17v.6h-.24c-.69 0-1.16-.62-1.16-1.38 0-.77.47-1.47 1.16-1.47h1.09c.12 0 .2-.1.2-.24v-.54Z" fill="#EF5189"/><path d="M9.68 9.34c-.33.66-.66 1.36-.94 2.06.42-.6.82-1.26 1.17-1.92 0 .76.03 1.56.1 2.32.1-.75.15-1.55.16-2.32.34.66.72 1.33 1.11 1.96a17.7 17.7 0 0 0-.89-2.1c.6.37 1.22.74 1.83 1.06-.52-.47-1.11-.92-1.7-1.32.68 0 1.39-.03 2.06-.1-.67-.12-1.38-.18-2.07-.19a19.9 19.9 0 0 0 1.71-1.32c-.39.2-1.06.6-1.84 1.08.42-.87.74-1.65.9-2.11-.25.4-.66 1.11-1.12 1.97A25 25 0 0 0 10 6.08c-.03.48-.07 1.33-.09 2.33-.46-.84-.9-1.54-1.17-1.93.18.44.52 1.2.96 2.07-.78-.47-1.47-.82-1.88-1 .35.27.99.73 1.75 1.25-.88.03-1.64.11-2.07.18.42.04 1.17.09 2.06.1-.58.39-1.19.81-1.74 1.25.63-.27 1.27-.62 1.86-1Z" fill="#F0F3FA"/></svg>