<!-- by TradingView --><svg width="18" height="18" viewBox="0 0 18 18" xmlns="http://www.w3.org/2000/svg"><path fill="#21578B" d="M0 0h18v18H0z"/><path d="M14.49 12.96c.05.03.1.04.16.04.12 0 .25-.06.3-.17.06-.09.06-.11.03-.2-.03-.08-.08-.13-.16-.19L9.05 9.43l1.87-1.84a.44.44 0 0 0 .08-.24c0-.17-.15-.35-.33-.35a.35.35 0 0 0-.25.1L8.64 8.85 6.68 3.23A.37.37 0 0 0 6.34 3c-.03 0-.07 0-.1.02a.34.34 0 0 0-.24.32c0 .03 0 .06.02.09L7.9 8.8 5.5 8.04A.37.37 0 0 0 5.35 8c-.17 0-.35.14-.35.32 0 .13.08.22.18.29l2.72.87-2.82 2.93a.44.44 0 0 0-.08.24c0 .18.15.35.34.35a.3.3 0 0 0 .24-.1l2.76-2.85.98 2.73c.06.14.2.22.33.22.2 0 .35-.16.35-.34l-.01-.1-.88-2.4 5.38 2.8Z" fill="#F0F3FA"/></svg>