<!-- by TradingView --><svg width="18" height="18" viewBox="0 0 18 18" xmlns="http://www.w3.org/2000/svg"><path fill="#F0F3FA" d="M0 0h18v18H0z"/><path d="M13.12 7.24c-.09.02-.18.05.16.43.4.45.77 1.18.71 1.63 0 0-.03-.72-.96-1.37 0 0-.56-.42-.67-.52 0 0-.69-.4.44-.54a4.38 4.38 0 0 0-2.07-1.35c.2-.15.42-.28.65-.4 0 0-.92-.51-2.47-.2l.23-.46c-.73.1-1.44.39-2.04.84.1 0 .2.04.27.1.09.05.16.13.2.22.16.3-.22.47-.3.48a4.06 4.06 0 0 0-.66.38c-.13.09-.3.2-.13.4l.07.08s.71-.32.98-.35c0 0 .27-.01.05.12-.22.14-.39.24-.49.52a10.4 10.4 0 0 0-.12.37c-.04.1-.13.24-.2.04a2.8 2.8 0 0 0-.22-.45c-.32.2-.61.45-.88.73l-.22.25c-.03.03-.09.13.1.26.19.16.35.37.46.6 0 0 .19.46.3.55 0 0 .24.45.75-.1 0 .14-.03.28-.1.4-.11.13-.55.12-.81-.15a5.3 5.3 0 0 1-.55-.71l-.05-.07c-.1-.15-.17-.25-.3-.3l-.15-.05c-.04-.01-.27-.14-.08-.4 0 0 .36-.56 1.37-1.2l-.2-.16c-.05-.05-.17-.14-.01-.31a3.62 3.62 0 0 1 .87-.66c.06-.03.29-.14-.11-.4 0 0-.36-.14-.5-.08 0 0 1.49-1.78 3.9-1.34l-.4.32s1.53.08 2.53.8c0 0-.7.2-.86.32.85.37 1.6.98 2.14 1.76 0 0-.5-.1-.58-.05a.25.25 0 0 1-.05.02ZM7.1 6.93c-.15.06-.29.13-.42.22a6.18 6.18 0 0 0 .11.3c.04.06.08.01.1-.04.05-.15.12-.3.2-.43.06-.05 0-.05 0-.05Zm-1.73 5.91a2.52 2.52 0 0 0-.48-.05c-.3.09-.41.12-.52.52-.1.4.25.35.25.35l1.8.1c.53-1.14.78-1.32 1.02-1.5l.1-.06c.25-.2.74-.18 1.02-.17h.07c.27 0 .38-.04.38-.49 0-.13.04-.25.1-.36a.7.7 0 0 1 .26-.26c.3-.15.9.04.9.04-.76.03-.92.94-.92.94-.1.52-.49.44-.49.44h-.4c-.76.12-1.09.48-1.09.48-.46.3-.85 1.18-.85 1.18H4.37c-.4.02-.37-.3-.37-.3 0-.13.01-.26.04-.38.04-.34.43-.68.43-.68.6-.46 1.07-.03 1.07-.03.25.28.43-.09.57-.38l.04-.1c.15-.29.62-1.37.62-1.37a8.68 8.68 0 0 1 1.14-1.64c1.22-1.11 2.4-.7 2.4-.7l-.06.03-.3.07c-.31.1-.61.21-.9.36-.36.18-1 .78-1 .78a7.83 7.83 0 0 0-1.27 1.87l-.28.55c-.11.22-.23.43-.36.64-.27.38-.55.23-.7.15a.65.65 0 0 0-.07-.03Z"/></svg>