<!-- by TradingView --><svg width="18" height="18" viewBox="0 0 18 18" xmlns="http://www.w3.org/2000/svg"><path fill="#F0F3FA" d="M0 0h18v18H0z"/><path d="M9.89 3.95a3.56 3.56 0 0 0-.67-.02 2 2 0 0 0-.64.15c-.25.11-.46.27-.63.48-.15.18-.28.41-.4.7l-.14-.06V5.2c.19-.51.42-.93.7-1.23.13-.15.27-.27.41-.34a.9.9 0 0 1 .52-.12c.15.02.3.07.46.15.13.08.26.18.39.3Z" fill="#E97421"/><path d="M9.89 3.95c.13.13.26.27.37.43a2.95 2.95 0 0 0-.4-.17 1.75 1.75 0 0 0-1.08.01 1.58 1.58 0 0 0-.83.68c-.08.12-.16.27-.22.43l-.18-.07c.12-.29.25-.52.4-.7.17-.21.38-.37.63-.48a2 2 0 0 1 .64-.15c.2-.02.42 0 .67.02Z" fill="#EF8C19"/><path d="M10.26 4.38c.28.38.49.8.64 1.26-.03.18-.06.34-.1.47-.07.29-.22.55-.45.79l-.15-.12c.13-.15.22-.3.28-.42a1.39 1.39 0 0 0-.1-1.38c-.1-.14-.22-.25-.36-.34a1.32 1.32 0 0 0-1.67.25c-.12.14-.23.33-.33.56l-.3-.12c.07-.16.15-.3.23-.43a1.6 1.6 0 0 1 1.36-.77c.19 0 .37.03.55.08.12.04.25.1.4.17Z" fill="#F29914"/><path d="m10.2 6.78-.16-.12c.07-.08.12-.17.18-.25.1-.17.17-.35.2-.55.01-.2-.02-.39-.1-.57a1.03 1.03 0 0 0-.66-.58c-.2-.06-.4-.06-.6-.01-.21.05-.39.14-.52.29-.12.13-.23.3-.34.55l-.18-.09c.1-.23.21-.42.33-.56a1.32 1.32 0 0 1 2.03.09c.1.12.16.27.2.43a1.4 1.4 0 0 1-.1.95c-.06.13-.15.27-.28.42Z" fill="#F5A70F"/><path d="m10.04 6.66-.33-.24c.09-.1.16-.19.2-.27.06-.1.1-.21.1-.32a.74.74 0 0 0-.07-.42.62.62 0 0 0-.29-.29.73.73 0 0 0-.35-.07.72.72 0 0 0-.59.35c-.05.08-.1.19-.15.32l-.36-.18a2 2 0 0 1 .34-.55c.13-.15.3-.24.52-.3.2-.04.4-.04.6.02a1.02 1.02 0 0 1 .66.58c.08.18.11.37.09.57-.02.2-.08.38-.2.55-.05.08-.1.17-.17.25Z" fill="#F7B10B"/><path d="M9.7 6.42a12.3 12.3 0 0 0-1.14-.7c.05-.13.1-.24.15-.32a.72.72 0 0 1 .59-.35c.13 0 .24.02.35.07.13.06.23.16.3.3.06.12.08.26.07.4a.82.82 0 0 1-.1.33 1.5 1.5 0 0 1-.21.27Z" fill="#FECD02"/><path d="M13.55 6.23c-.14-.1-.24-.18-.32-.22-.47-.25-.96-.3-1.47-.15-.16.04-.32.12-.5.22a9.25 9.25 0 0 0-.18-.82 5.02 5.02 0 0 1 1.23-.16c.22 0 .41.04.58.1.2.07.36.19.47.34.07.09.12.2.15.32s.04.24.04.37Z" fill="#E97421"/><path d="M5.97 5.23c-.17.09-.32.18-.45.27-.29.2-.48.48-.6.81-.1.33-.1.66 0 1 .06.17.12.33.21.5l-.23.14c-.06-.1-.11-.22-.16-.33a1.96 1.96 0 0 1 .34-2.1l.24-.25c.21-.04.43-.05.65-.04Z" fill="#EF8C19"/><path d="m7.43 5.53.24.28c.17.21.29.5.37.86l-.2.05a2.18 2.18 0 0 0-.32-.73 1.3 1.3 0 0 0-.56-.44 1.4 1.4 0 0 0-1.33.15c-.2.14-.35.32-.45.55-.1.24-.13.48-.1.74.03.22.1.46.23.72l-.18.1a2.9 2.9 0 0 1-.2-.5c-.1-.34-.1-.67 0-1 .1-.33.3-.6.6-.81.12-.1.27-.18.44-.27.5.02.98.12 1.46.3Z" fill="#F29914"/><path d="m5.32 5.27-.24.25a1.96 1.96 0 0 0-.34 2.1l.16.33-.07.04H4.8a5.04 5.04 0 0 1-.37-.74c-.16-.37-.22-.7-.2-1a.93.93 0 0 1 .55-.82c.17-.08.35-.14.53-.16Z" fill="#E97421"/><path d="m7.83 6.72-.2.06a2.5 2.5 0 0 0-.16-.45 1.11 1.11 0 0 0-.7-.61 1.2 1.2 0 0 0-.94.1c-.15.1-.27.2-.36.34-.1.16-.17.34-.19.55-.01.19.02.38.09.57a3 3 0 0 0 .14.33l-.2.1c-.12-.26-.2-.5-.23-.72-.03-.26 0-.5.1-.74.1-.23.25-.41.45-.55a1.4 1.4 0 0 1 1.33-.14c.23.09.41.23.56.43.12.16.23.4.31.73Z" fill="#F5A70F"/><path d="M8.16 5.85c.1.25.17.5.23.77l-.35.05a2.13 2.13 0 0 0-.61-1.14c.25.09.5.2.73.32Z" fill="#EF8C19"/><path d="m7.62 6.78-.56.17a1.14 1.14 0 0 0-.23-.51.53.53 0 0 0-.3-.17.57.57 0 0 0-.57.23c-.06.1-.1.2-.09.33 0 .09.03.18.07.26.03.07.08.15.15.24l-.58.28c-.05-.1-.1-.2-.14-.33-.07-.2-.1-.38-.08-.57a1.07 1.07 0 0 1 .54-.88c.14-.09.29-.14.46-.15a1.2 1.2 0 0 1 .9.27c.12.1.2.23.28.38.06.12.1.27.15.45Z" fill="#F7B10B"/><path d="M10.9 5.64c.1.27.17.55.22.84-.14.24-.3.47-.48.69l-.29-.27c.23-.24.38-.5.46-.79l.09-.47ZM13.55 6.23c0 .1 0 .22-.02.33a4.46 4.46 0 0 0-.3-.21 1.66 1.66 0 0 0-.72-.28c-.27-.03-.53 0-.77.1a2.4 2.4 0 0 0-.43.23l-.06-.32c.19-.1.35-.18.5-.22a1.87 1.87 0 0 1 1.8.37Z" fill="#EF8C19"/><path d="M8.39 6.62a5.26 5.26 0 0 0-.23-.77 6.4 6.4 0 0 1 1.16.8 1.75 1.75 0 0 0-.45-.06 5.94 5.94 0 0 0-.48.03Z" fill="#E97421"/><path d="m13.53 6.56-.04.24a4.55 4.55 0 0 0-.27-.24 1.4 1.4 0 0 0-1.58-.15l-.3.18-.03-.2c.15-.09.3-.17.43-.22.24-.1.5-.13.77-.1.26.04.5.13.73.28l.3.21Z" fill="#F29914"/><path d="M7.06 6.95c-.33.11-.65.24-.97.38a1.39 1.39 0 0 1-.15-.24.69.69 0 0 1-.07-.26.54.54 0 0 1 .34-.52.53.53 0 0 1 .61.13c.1.1.19.27.24.51Z" fill="#FECD02"/><path d="m13.5 6.8-.08.27a3.85 3.85 0 0 0-.27-.28c-.2-.2-.44-.3-.7-.34-.28-.03-.53.03-.77.18-.1.06-.2.14-.3.24l-.04-.28.3-.18a1.4 1.4 0 0 1 1.57.15l.28.24Z" fill="#F5A70F"/><path d="m13.42 7.07-.07.21c-.2.53-.49 1-.85 1.44a2.58 2.58 0 0 1-.43-.07 1.33 1.33 0 0 1-.62-.35l-.01-.54c0-.2-.03-.5-.07-.9.1-.09.21-.17.31-.23.24-.15.5-.21.76-.18.27.03.5.14.7.34l.28.28Z" fill="#F7B10B"/><path d="M11.12 6.48a6.3 6.3 0 0 1 .1 1.47 1.84 1.84 0 0 0-.25-.41c-.08-.1-.18-.22-.33-.37.18-.22.34-.45.48-.7Z" fill="#E97421"/><path d="M12.32 8.14a.58.58 0 1 0 0-1.16.58.58 0 0 0 0 1.16Z" fill="#FECD02"/><path d="M6.73 7.94a3.48 3.48 0 0 0-.59-.38 6.37 6.37 0 0 1 1.22-.33c-.16.1-.29.24-.4.39l-.23.32Z" fill="#E97421"/><path d="M6.14 7.56c.21.1.4.23.6.38l-.2.3c-.25-.2-.56-.35-.9-.45l.5-.23Z" fill="#EF8C19"/><path d="M9.16 7.58c-.11.1-.2.19-.26.28a.8.8 0 0 0-.1.68.68.68 0 0 0 .43.43c.1.04.22.05.34.03A.7.7 0 0 0 10 8.8c.1-.1.18-.24.25-.43.05.1.08.2.1.3-.12.16-.24.28-.35.35-.14.1-.3.16-.46.17a.88.88 0 0 1-.6-.15.83.83 0 0 1-.33-.52.98.98 0 0 1 .01-.48c.03-.13.1-.28.2-.45h.34Z" fill="#F5A70F"/><path d="M8.82 7.58c-.1.17-.16.32-.2.45a.98.98 0 0 0-.01.48c.04.22.16.4.33.52.18.12.38.17.6.15a.92.92 0 0 0 .46-.17c.12-.07.23-.2.36-.35l.03.27c-.16.13-.3.23-.43.3-.16.07-.33.11-.5.11-.23 0-.43-.06-.6-.19a.94.94 0 0 1-.37-.5 1.18 1.18 0 0 1-.04-.53c.03-.15.08-.32.16-.5l.2-.04Z" fill="#F29914"/><path d="M10.25 8.36c-.07.19-.16.33-.25.43a.7.7 0 0 1-.43.21.74.74 0 0 1-.34-.03.67.67 0 0 1-.43-.43.8.8 0 0 1 .1-.68c.06-.09.15-.18.26-.28a1.4 1.4 0 0 1 1.1.78Z" fill="#F7B10B"/><path d="M8.61 7.62a1.9 1.9 0 0 0-.16.5c-.02.18-.01.36.04.52.06.22.19.39.36.51.18.13.38.19.6.19.18 0 .35-.04.51-.11.13-.07.27-.17.44-.3 0 .14-.02.28-.05.42-.2.1-.38.16-.54.2a1.41 1.41 0 0 1-1.07-.18 1.22 1.22 0 0 1-.54-.82A1.37 1.37 0 0 1 8.21 8l.06-.24c.1-.06.22-.11.34-.15Z" fill="#EF8C19"/><path d="m8.27 7.77-.06.24a1.37 1.37 0 0 0 .18 1 1.31 1.31 0 0 0 .86.55c.18.04.37.03.56 0 .16-.05.34-.11.54-.21a1.4 1.4 0 0 1-1.3 1.03 1.4 1.4 0 0 1-1.2-.6 1.4 1.4 0 0 1-.18-1.26 1.4 1.4 0 0 1 .6-.75Z" fill="#E97421"/><path d="M5.63 7.8c.35.1.66.24.92.45l-.09.17a2.29 2.29 0 0 0-1.19-.43l.36-.2Z" fill="#F29914"/><path d="M9.25 8.14c-.11.11-.1.3 0 .4.12.1.3.1.4-.03.11-.11.1-.3 0-.4a.28.28 0 0 0-.4.03Z" fill="#FECD02"/><path d="M5.27 8a2.29 2.29 0 0 1 1.2.42l-.1.23c-.2-.16-.39-.26-.55-.32-.2-.07-.41-.08-.63-.04a1.06 1.06 0 0 0-.8.68c-.1.26-.1.51-.02.77a1.07 1.07 0 0 0 .75.75c.15.04.34.07.59.09l-.03.1c-.42 0-.74-.09-.97-.25a1.19 1.19 0 0 1-.45-.6c-.06-.2-.08-.39-.06-.58.02-.16.07-.35.15-.57.28-.27.59-.5.92-.69Z" fill="#F5A70F"/><path d="M13.9 10.85c.06-.16.1-.31.14-.46a2 2 0 0 0-.1-1.2 1.9 1.9 0 0 0-.33-.51 3.18 3.18 0 0 0-.47-.42l.04-.06h.02c.37.25.68.52.91.8.2.24.32.47.37.7.07.31-.02.6-.26.87-.1.11-.2.2-.32.28Z" fill="#E97421"/><path d="M6.36 8.65 6.21 9c-.11-.1-.22-.17-.3-.22a.95.95 0 0 0-.37-.12.75.75 0 0 0-.58.15.71.71 0 0 0-.26.53c-.01.17.02.33.1.46.1.14.21.24.38.3.15.06.37.07.64.04l-.11.44a2.63 2.63 0 0 1-.6-.09 1.07 1.07 0 0 1-.75-.75c-.07-.26-.06-.51.03-.77a1.06 1.06 0 0 1 .8-.68c.22-.04.43-.03.63.04.16.06.34.16.54.32Z" fill="#F7B10B"/><path d="M13.14 8.26c.19.14.35.28.47.42a1.9 1.9 0 0 1 .43 1.71c-.03.15-.08.3-.14.46-.1.08-.23.16-.36.22l.2-.39a1.82 1.82 0 0 0-.7-2.26l.1-.16Z" fill="#EF8C19"/><path d="m12.5 8.72-.15.18a2.51 2.51 0 0 1-.48-.12c-.16-.06-.3-.15-.43-.25V8.3l.23.17c.12.08.25.14.4.18.12.03.26.05.43.07Z" fill="#F5A70F"/><path d="M13.54 11.07a5.16 5.16 0 0 1-2.1.46 3 3 0 0 1-.73-.74l.33-.26c.15.2.3.35.45.45a1.32 1.32 0 0 0 1.5 0 1.2 1.2 0 0 0 .49-.8c.05-.28 0-.56-.12-.82a1.22 1.22 0 0 0-.25-.34 2.4 2.4 0 0 0-.33-.26l.25-.34.2.15a1.82 1.82 0 0 1 .5 2.12l-.19.38ZM12.34 8.9l-.15.17a4.95 4.95 0 0 1-.76-.29l.01-.25c.13.1.27.19.43.25.13.05.29.09.47.12Z" fill="#F29914"/><path d="M6.21 9c-.14.38-.27.75-.39 1.14-.27.03-.49.02-.64-.04a.72.72 0 0 1-.37-.3.76.76 0 0 1-.11-.46c.02-.22.1-.4.27-.53a.75.75 0 0 1 .57-.15c.12 0 .24.05.36.12.1.05.2.12.31.22Z" fill="#FECD02"/><path d="M4.35 8.68c-.08.22-.13.4-.15.57-.02.2 0 .39.06.58.08.24.23.44.45.6.23.16.55.25.97.25l-.07.35a3.73 3.73 0 0 1-.52-.09c-.27-.06-.5-.18-.7-.35-.2-.18-.34-.4-.43-.65-.06-.15-.1-.37-.14-.64.16-.22.33-.43.53-.62Z" fill="#F29914"/><path d="M12.78 8.76c.14.1.25.18.33.26a1.33 1.33 0 0 1 .2 1.62 1.2 1.2 0 0 1-.75.54 1.32 1.32 0 0 1-1.07-.2c-.15-.1-.3-.25-.45-.45l.18-.15c.1.12.19.22.28.3.25.23.54.32.89.27a.98.98 0 0 0 .8-.63c.07-.2.08-.4.03-.6-.04-.2-.13-.37-.27-.53a2.23 2.23 0 0 0-.3-.27l.13-.16Z" fill="#F5A70F"/><path d="M11.43 8.78c.24.12.5.22.76.3l-.3.3-.52-.25.06-.35Z" fill="#EF8C19"/><path d="m6.76 9.85-.71.4a6.43 6.43 0 0 1 .55-1.34c0 .14 0 .3.04.46l.12.48Z" fill="#E97421"/><path d="M12.65 8.92c.12.1.22.18.3.27.14.16.23.33.27.53.05.2.03.4-.04.6a.98.98 0 0 1-.8.63c-.34.05-.63-.04-.88-.27a2.38 2.38 0 0 1-.28-.3l.18-.15c.12.16.24.28.36.35.14.1.3.15.47.15.2 0 .37-.06.5-.17a.72.72 0 0 0 .25-.47.83.83 0 0 0-.31-.8l-.2-.14.18-.23Z" fill="#F7B10B"/><path d="M11.89 9.37a6.18 6.18 0 0 1-.8.6c.07-.11.13-.25.18-.4.03-.1.07-.25.1-.44l.52.24Z" fill="#E97421"/><path d="M12.46 9.15c.09.05.16.1.2.15.26.2.36.47.32.79-.03.2-.11.35-.25.47a.73.73 0 0 1-.5.17.84.84 0 0 1-.47-.15c-.12-.07-.24-.2-.36-.35.37-.34.73-.7 1.06-1.08Z" fill="#FECD02"/><path d="M3.82 9.3c.04.27.08.49.14.64a1.55 1.55 0 0 0 1.13 1c.16.04.33.07.52.09l-.03.16c-.2-.01-.36-.03-.47-.05a1.7 1.7 0 0 1-1.26-.97 3.07 3.07 0 0 1-.2-.55l.17-.32Z" fill="#EF8C19"/><path d="m5.58 11.2-.06.36a4.94 4.94 0 0 1-1.32-.38c-.51-.27-.74-.63-.7-1.07.02-.17.07-.33.15-.5.06.22.12.41.2.56.25.53.68.85 1.26.97.11.02.27.04.47.05Z" fill="#E97421"/><path d="m6.76 9.85.1.27c-.18.1-.33.2-.46.3a2.16 2.16 0 0 0-.5.56c.03-.24.08-.48.15-.72.23-.15.47-.28.71-.4Z" fill="#EF8C19"/><path d="m6.98 10.37-.34.2a1.4 1.4 0 0 0-.54.62 1.44 1.44 0 0 0 .1 1.34c.09.14.2.26.35.36a1.48 1.48 0 0 0 1 .22c.3-.04.6-.18.91-.43l.13.15-.4.28a1.66 1.66 0 0 1-2.1-.36 5.38 5.38 0 0 1-.21-.28c-.08-.49-.07-.99.01-1.5l.12-.16a3.78 3.78 0 0 1 .85-.7l.12.26Z" fill="#F29914"/><path d="m6.98 10.37.13.27c-.23.12-.4.24-.52.37-.15.16-.24.35-.28.58-.02.14-.01.27.02.4a1.03 1.03 0 0 0 .42.64 1.15 1.15 0 0 0 .98.1c.17-.06.35-.16.53-.3l.2.25c-.3.25-.61.4-.9.43a1.48 1.48 0 0 1-1.01-.22 1.26 1.26 0 0 1-.55-.87c-.05-.3-.02-.57.1-.83.11-.26.3-.47.54-.63.12-.07.23-.14.34-.19Z" fill="#F5A70F"/><path d="m7.11 10.64.23.4c-.1.05-.2.1-.28.16a.68.68 0 0 0-.26.29.63.63 0 0 0 .1.68c.06.07.15.12.24.15.1.03.2.04.3.03.1-.02.2-.06.3-.12.07-.05.15-.12.22-.2l.3.4c-.18.14-.36.24-.53.3-.2.07-.4.09-.6.05a1.02 1.02 0 0 1-.65-.42 1.14 1.14 0 0 1-.17-.77c.04-.23.13-.42.28-.58.12-.13.3-.25.52-.37Z" fill="#F7B10B"/><path d="M10.7 10.79a3 3 0 0 0 .74.74h-.4a3.5 3.5 0 0 1-.54-.6l.2-.14Z" fill="#EF8C19"/><path d="M8.63 11.36c-.08.26-.13.53-.16.81a6.53 6.53 0 0 1-.73-1.28c.11.1.25.19.42.27.11.06.27.12.47.2ZM10.5 10.92c.16.22.34.42.55.6a6.4 6.4 0 0 1-1.43-.24c.14-.02.3-.07.45-.14l.43-.22Z" fill="#E97421"/><path d="M7.34 11.05c.19.34.4.66.62.98-.07.08-.15.15-.23.2a.68.68 0 0 1-.59.1.57.57 0 0 1-.39-.44.63.63 0 0 1 .04-.4.68.68 0 0 1 .27-.3l.28-.14Z" fill="#FECD02"/><path d="m8.63 11.36.32.1A2.12 2.12 0 0 0 9 12.8c-.2-.2-.37-.4-.53-.63.03-.28.08-.55.16-.81Z" fill="#EF8C19"/><path d="M9.18 11.5c-.04.2-.06.37-.07.51 0 .19.03.36.08.5.12.35.35.6.67.75.22.1.44.13.69.1a1.23 1.23 0 0 0 1.12-.85c.07-.2.1-.46.12-.78l.26-.01c0 .18-.01.34-.03.46-.02.17-.05.32-.1.46-.1.26-.25.48-.46.66-.2.17-.45.28-.73.34a4 4 0 0 1-.52.06 4.53 4.53 0 0 1-1.2-.9 2.12 2.12 0 0 1-.05-1.34l.22.04Z" fill="#F29914"/><path d="M9.4 11.55a1.7 1.7 0 0 0-.04.78c.04.2.13.35.25.5.13.13.29.22.47.28a1.21 1.21 0 0 0 .92-.1c.18-.1.32-.25.41-.43.08-.18.13-.37.14-.6v-.25h.24c-.01.32-.05.59-.12.79-.1.26-.25.47-.47.62-.19.13-.4.2-.65.23-.25.02-.47-.02-.69-.11-.32-.15-.55-.4-.67-.74a1.42 1.42 0 0 1-.08-.5c0-.15.03-.32.07-.51l.21.04Z" fill="#F5A70F"/><path d="M9.84 11.62c-.05.12-.08.23-.1.33 0 .12 0 .24.04.34.04.14.13.25.24.33.1.08.23.12.37.13.13 0 .26-.02.37-.09a.64.64 0 0 0 .28-.3c.08-.16.1-.37.05-.63h.46v.25c-.01.23-.06.42-.14.6-.1.18-.23.33-.4.43a1.21 1.21 0 0 1-.92.1 1.03 1.03 0 0 1-.48-.29c-.12-.14-.2-.3-.26-.5a1.7 1.7 0 0 1 .04-.78l.45.08Z" fill="#F7B10B"/><path d="M9.84 11.62c.42.06.84.1 1.25.1.05.27.03.48-.05.65a.64.64 0 0 1-.28.3.69.69 0 0 1-.37.08.69.69 0 0 1-.37-.13.65.65 0 0 1-.24-.33.75.75 0 0 1-.03-.34c.01-.1.04-.2.1-.33Z" fill="#FECD02"/><path d="M12.4 12.24c-.03.1-.06.24-.12.4-.16.54-.5.94-1.04 1.2a8.9 8.9 0 0 1-.27.13 2.66 2.66 0 0 1-.76-.27c.17 0 .35-.03.52-.06.28-.06.52-.17.73-.34.21-.18.36-.4.46-.66.05-.14.08-.29.1-.46.02-.12.03-.28.03-.46l.31-.03.01.01.03.54Z" fill="#EF8C19"/><path d="M12.4 12.24c0 .29-.04.56-.1.83-.04.16-.1.31-.2.46a.9.9 0 0 1-.48.41c-.19.07-.4.08-.65.03.1-.04.19-.08.27-.13.53-.26.88-.66 1.04-1.2.05-.16.1-.3.11-.4Z" fill="#E97421"/><path d="m8.59 12.83.22.24c-.14.14-.29.26-.44.38-.16.07-.28.12-.36.14-.56.18-1.1.14-1.62-.12l-.24-.11a2.88 2.88 0 0 1-.27-.89c.07.1.14.2.22.28.29.35.65.54 1.09.57.36.04.7-.04 1-.21.12-.07.26-.17.4-.28Z" fill="#EF8C19"/><path d="M8.37 13.45a2.7 2.7 0 0 1-1.06.52c-.15.03-.3.03-.45 0a.86.86 0 0 1-.42-.22c-.11-.1-.2-.23-.29-.39l.24.12a2.15 2.15 0 0 0 1.98-.03Z" fill="#E97421"/></svg>