<!-- by TradingView --><svg width="18" height="18" viewBox="0 0 18 18" xmlns="http://www.w3.org/2000/svg"><path fill="#F0F3FA" d="M0 0h18v18H0z"/><path fill-rule="evenodd" d="M15.83 9.08c0 .9-.85 1.77-2.06 2.42A10.3 10.3 0 0 1 9 12.55a10.3 10.3 0 0 1-4.77-1.05c-1.2-.65-2.06-1.52-2.06-2.42 0-.9.85-1.77 2.06-2.42 1.2-.65 2.9-1.19 4.77-1.19 1.88 0 3.56.54 4.77 1.2 1.2.64 2.06 1.5 2.06 2.4Zm.17 0C16 11.16 12.87 13 9 13s-7-1.84-7-3.92S5.13 5 9 5s7 2 7 4.08ZM7.4 9c0 1.1-.86 2-1.9 2-1.05 0-1.9-.9-1.9-2s.85-2 1.9-2c1.04 0 1.9.9 1.9 2Zm-.96 0c0 .55-.42 1-.95 1a.98.98 0 0 1-.94-1c0-.55.42-1 .94-1 .53 0 .95.45.95 1Zm3 2h-.86V8H7.54v-.67c0-.18.13-.33.29-.33h2.34c.16 0 .3.15.3.33V8H9.43v3Zm4.34-3.5c-.15-.17-.63-.5-1.36-.5-.9 0-1.81.67-1.81 2s1.06 2 1.81 2c.6 0 1.16-.33 1.36-.5l-.24-.44c-.1-.2-.36-.23-.53-.1-.15.11-.31.2-.44.2-.7 0-1-.33-1-.66h1.15v-.83h-1.16c0-.34.32-.67.86-.67.22 0 .4.04.55.1.2.08.46.04.57-.16l.24-.44Z" fill="#1769B2"/></svg>