<!-- by TradingView --><svg width="18" height="18" viewBox="0 0 18 18" xmlns="http://www.w3.org/2000/svg"><path fill="#1ABEE5" d="M0 0h18v18H0z"/><path d="M11.73 12H6.27c-.15 0-.27.1-.27.23v2.54c0 .13.12.23.27.23h5.46c.15 0 .27-.1.27-.23v-2.54c0-.13-.12-.23-.27-.23Z" fill="#E8243F"/><path d="M8.96 4.86c-.77 0-1.43.17-1.96.65V3.5C7 3.22 6.72 3 6.44 3H5.5a.5.5 0 0 0-.5.5c0 .26.23.5.5.5H6v6.51c0 .27.34.49.61.49.28 0 .39-.22.39-.5V7.95c0-1.15.86-2.09 1.97-2.1 1.11 0 2.02.94 2.03 2.1v2.57c0 .27.22.49.5.49a.5.5 0 0 0 .5-.5V7.94c-.01-1.7-1.37-3.07-3.04-3.07Z" fill="#fff"/></svg>