<!-- by TradingView --><svg width="18" height="18" viewBox="0 0 18 18" xmlns="http://www.w3.org/2000/svg"><path fill="url(#ag1stfwdf)" d="M0 0h18v18H0z"/><path d="M3 8.56v-.88c1.3-.12 2.5.18 3.62.9.06.03.09.01.1-.05a6.6 6.6 0 0 1 2.16-4.47c.09-.08.17-.08.26 0a6.6 6.6 0 0 1 2.16 4.47.1.1 0 0 0 .09.04 5.8 5.8 0 0 1 3.51-.91.1.1 0 0 1 .1.1 5.9 5.9 0 0 1-1.8 4.5c-1.12 1.1-2.27 1.82-3.83 1.62-.2-.02-.42-.01-.64.04-.81.19-1.6.05-2.36-.41A6.68 6.68 0 0 1 3 8.56Zm5.77-3.93c-.35.27-.71.76-.9 1.16-.03.04-.02.09.01.12l.89.9c.05.06.08.05.08-.03V4.67c0-.07-.03-.08-.08-.04Zm.4.04v2.12a.06.06 0 0 0 .04.06.06.06 0 0 0 .07-.03 2.94 2.94 0 0 1 .9-.9.12.12 0 0 0 .01-.09.12.12 0 0 0-.02-.04L9.3 4.62a.08.08 0 0 0-.14.05ZM7.1 8.49c.69.19 1.1.38 1.67.79.04.03.07.02.07-.04 0-1.3-.02-2.2-1.12-3.01-.05-.04-.09-.03-.11.03-.32.67-.51 1.37-.6 2.1 0 .03 0 .06.02.08.02.03.05.05.07.05Zm3.17-2.25C9.13 7.06 9.2 7.9 9.14 9.19a.07.07 0 0 0 .1.06 5.13 5.13 0 0 1 1.58-.75.17.17 0 0 0 .13-.18 6.32 6.32 0 0 0-.54-2.05c-.03-.06-.08-.07-.13-.03ZM3.6 7.92a.05.05 0 0 0-.04.08l1.28 1.3a.05.05 0 0 0 .1-.05l-.09-1.2A.05.05 0 0 0 4.82 8l-1.2-.08Zm9.43 1.34a.05.05 0 0 0 .07.06l.03-.02 1.3-1.29a.05.05 0 0 0-.04-.09l-1.22.06a.05.05 0 0 0-.05.05l-.09 1.23Zm.29.22a.05.05 0 0 0 .04.1l1.15-.03a.05.05 0 0 0 .05-.05l.21-1.33a.05.05 0 0 0-.09-.04l-1.36 1.35Zm-9.7.1c.35-.1.64-.02.99.01a.06.06 0 0 0 .05-.1L3.4 8.23a.07.07 0 0 0-.12.07l.15 1.15a.15.15 0 0 0 .2.13Zm2.8 1.17c.2-.57.3-1.15.26-1.75a.18.18 0 0 0-.11-.16l-1.21-.61c-.08-.04-.12-.02-.13.07a2.37 2.37 0 0 0 1.18 2.46.02.02 0 0 0 .01-.01Zm4.89-1.76c-.03.59.05 1.16.24 1.72.02.05.05.07.1.03a2.55 2.55 0 0 0 1.14-2.48.1.1 0 0 0-.13-.04l-1.26.63a.18.18 0 0 0-.1.14Zm-2.5.86c-.05-.48-1.4-.97-1.72-1.04-.07 0-.1.02-.1.1l.07 1.66a.13.13 0 0 0 .1.12 4.12 4.12 0 0 1 1.6.72.07.07 0 0 0 .07-.06c.03-.5.02-1-.02-1.5Zm.35-.01v1.51c0 .1.03.1.1.06.46-.34.97-.58 1.53-.71.06-.02.1-.06.1-.13l.13-1.68a.08.08 0 0 0-.03-.07.08.08 0 0 0-.07-.01 3.88 3.88 0 0 0-1.74.94.22.22 0 0 0-.02.09Zm-3.09 1.11a2.47 2.47 0 0 0-2.44-1.1.09.09 0 0 0-.04.1c.24.6.55 1.15.94 1.66a.1.1 0 0 0 .14.02c.41-.27.86-.44 1.34-.52.1-.02.12-.07.06-.16Zm5.83.16c.57.13.94.24 1.47.52a.1.1 0 0 0 .08.01.1.1 0 0 0 .06-.04l.88-1.52a.16.16 0 0 0-.12-.24 2.5 2.5 0 0 0-2.41 1.15c-.04.06-.03.1.04.12Zm-.78-.23-.07.28c-.02.08.01.12.09.11h.06a.09.09 0 0 0 .06-.03.08.08 0 0 0 .02-.06l-.07-.55c-.01-.06-.03-.07-.06 0a6.59 6.59 0 0 1-.04.25Zm-4.27.4c.03 0 .05-.04.06-.1a.6.6 0 0 0-.1-.37.18.18 0 0 0-.06-.04.06.06 0 0 0-.05 0c-.03 0-.05.04-.05.1-.01.05 0 .12.02.19a.6.6 0 0 0 .08.17l.06.05h.04Zm1.95.8c-.03-.49-1.17-.96-1.55-1.04h-.02a.04.04 0 0 0-.02.04c.16.97.64 1.74 1.44 2.3a.13.13 0 0 0 .2-.11c0-.4-.02-.8-.05-1.2Zm.36-.02v1.24a.06.06 0 0 0 .03.05.07.07 0 0 0 .07 0 3.44 3.44 0 0 0 1.48-2.24c.01-.06 0-.08-.06-.06-.56.15-1.05.43-1.45.84a.25.25 0 0 0-.07.17Zm3.98-.24c-.47-.3-.99-.46-1.55-.48-.05 0-.1.01-.15.05-.3.23-.55.51-.75.84-.06.09-.04.15.06.19l1.2.49a.12.12 0 0 0 .13-.02l1.07-.92c.06-.05.06-.1-.01-.15Zm-7.35.97c.1.09.22.1.36.06l1.1-.44c.04-.01.05-.04.03-.07-.17-.4-.42-.71-.77-.96a.2.2 0 0 0-.13-.04 3.25 3.25 0 0 0-1.55.5.1.1 0 0 0 .02.13l.94.82Zm5.78.22-1-.33a.12.12 0 0 0-.14.03l-.88.83a.07.07 0 0 0 .04.12c.72.05 1.38-.1 2-.47.13-.07.13-.14-.02-.18Zm-3.15.6-.96-.88a.13.13 0 0 0-.14-.03l-.97.35c-.09.03-.1.07-.02.12a3.1 3.1 0 0 0 2.09.52l.02-.02a.05.05 0 0 0-.02-.06Z" fill="#5DB55D"/><defs><linearGradient id="ag1stfwdf" x1="3.35" y1="3.12" x2="21.9" y2="24.43" gradientUnits="userSpaceOnUse"><stop stop-color="#1A1E21"/><stop offset="1" stop-color="#06060A"/></linearGradient></defs></svg>