<!-- by TradingView --><svg width="18" height="18" viewBox="0 0 18 18" xmlns="http://www.w3.org/2000/svg"><path fill="#F0F3FA" d="M0 0h18v18H0z"/><path d="M12.78 6.97v-.01h-.01l-.01-.01c-1.43.03-2.55.07-3.38.12a6.7 6.7 0 0 0-2.74.64c-1.03.57-1.47 1.44-1.78 2.49-.3 1.03-.55 1.95-.76 2.77-.01.02-.03.03-.05.03H3v-.03l.94-3.5c.35-1.3.95-2.5 2.12-3.26 1.17-.77 2.67-.9 4.06-.98 1.74-.1 3.35-.18 4.83-.23.03 0 .04.01.04.04-.22.94-.47 1.82-.75 2.64-.29.83-.63 1.56-1.03 2.21-.63 1.01-1.5 1.7-2.62 2.1-.72.24-1.52.34-2.38.36a939.77 939.77 0 0 0-3.4.1l.15-.52.03-.02 2.75-.09c.29 0 .64-.06 1.06-.15 2.46-.55 3.37-2.6 3.97-4.7Z" fill="#00ABBB"/></svg>