<!-- by TradingView --><svg width="18" height="18" viewBox="0 0 18 18" xmlns="http://www.w3.org/2000/svg"><path fill="#F0F3FA" d="M0 0h18v18H0z"/><path d="M12 10.9c.49-.05.62-.18.62-.56V7.66c0-.37-.13-.52-.62-.55V7h2.12v.11c-.46.02-.75.14-.75.5v2.9c0 .13.04.22.21.24l.17.01h.33c.5 0 .88-.04 1.1-.13.22-.09.43-.31.64-.68H16L15.66 11H12v-.1ZM2 10.9c.56-.06.77-.22.77-.63V7.66c0-.37-.27-.52-.77-.55V7h2.3v.11c-.5.03-.76.18-.76.55v1.07h1.92V7.66c0-.37-.26-.52-.77-.55V7H7v.11c-.5.03-.77.18-.77.55v2.68c0 .38.27.51.77.55V11H4.7v-.1c.56-.06.76-.22.76-.63V9H3.54v1.34c0 .38.26.52.77.55V11H2v-.1ZM7 10.9c.56-.06.77-.22.77-.63V7.66c0-.37-.27-.52-.77-.55V7h2.3v.11c-.5.03-.76.18-.76.55v1.07h1.92V7.66c0-.37-.26-.52-.77-.55V7H12v.11c-.5.03-.77.18-.77.55v2.68c0 .38.27.51.77.55V11H9.7v-.1c.56-.06.76-.22.76-.63V9H8.54v1.34c0 .38.26.52.77.55V11H7v-.1Z"/></svg>