<!-- by TradingView --><svg xmlns="http://www.w3.org/2000/svg" width="18" height="18" viewBox="0 0 18 18"><path fill="#F0F3FA" d="M0 0h18v18H0z"/><path d="M3.5 6.58L8.04 4l4.5 1.6 1.86 4.18-4.4 2.95-5.52-1.92-.96-4.23z" fill="#D9DADB"/><path d="M3.5 7.6V6.57l.99 4.21-.05 1.23L3.5 7.6z" fill="#707173"/><path d="M10 13.92L4.44 12l.04-1.22L10 12.7v1.23z" fill="#919394"/><path d="M14.39 9.78L10 12.7v1.22l4.47-3.13-.08-1.01z" fill="#BBBDBE"/><path d="M12.5 14a2.82 2.82 0 0 1-1.86-.56l1.06-.75c.4-1.83-2.44-3.95-3.9-4.78 1.84.5 3.36 2.17 3.9 2.95-.65-2.07-2.97-3.25-4.05-3.58 2.62.24 4.6 2.94 5.28 4.27-.37-3.01-3.58-4.97-5.14-5.57l1.62.45-.25-.24 1.01.36-.72-.63c4.03 1.63 5.05 4.88 5.05 6 0 1.14-.72 2.06-2 2.08z" fill="#004185"/></svg>