<!-- by TradingView --><svg width="18" height="18" viewBox="0 0 18 18" fill="none" xmlns="http://www.w3.org/2000/svg">
<rect width="18" height="18" fill="#F0F3FA"/>
<path fill-rule="evenodd" clip-rule="evenodd" d="M12.9844 11.6563C12.9844 8.09375 10.6004 6.34375 7.29689 6.34375C5.64591 6.34375 4.3388 6.44596 3.25647 7.52751C3.94697 4.98307 6.27291 3.11167 9.03594 3.11167C12.343 3.11167 15 5.79259 15 9.09966C15 10.7626 13.3665 12.9306 12.272 14.0156C12.4119 13.5083 12.9844 12.2081 12.9844 11.6563Z" fill="#43A6B0"/>
<path fill-rule="evenodd" clip-rule="evenodd" d="M13.423 6.26494C10.4419 4.75481 6.80963 5.93036 5.31009 8.89059C4.56067 10.37 4.47626 11.8328 4.96095 13.297C3.69777 12.1618 3.08459 10.7389 3.05613 9.08308C2.99751 5.67304 5.68504 3.0024 9.07901 3.00008C11.6423 3.00008 13.9124 4.82902 14.7031 7.25019C14.3088 6.89292 13.921 6.51719 13.423 6.26494Z" fill="url(#paint0_linear_4885_130289)"/>
<path fill-rule="evenodd" clip-rule="evenodd" d="M6.37691 13.4475C9.68045 13.4475 12.3585 10.7694 12.3585 7.46588C12.3585 5.81489 11.6896 4.32013 10.6081 3.23779C13.1525 3.92829 15 6.25423 15 9.01726C15 12.3243 12.343 15 9.03593 15C7.37299 15 5.82808 14.317 4.74304 13.2225C5.2504 13.3624 5.82508 13.4475 6.37691 13.4475Z" fill="url(#paint1_linear_4885_130289)"/>
<path fill-rule="evenodd" clip-rule="evenodd" d="M5.57103 5.69488C5.57103 8.99843 7.27228 12.3399 10.5812 12.3399C12.2349 12.3399 13.705 11.7066 14.7891 10.625C14.0974 13.1694 11.7948 15 9.0273 15C5.71484 15 3 12.3244 3 9.01729C3 7.35435 4.68971 5.18636 5.786 4.10132C5.64588 4.60868 5.57103 5.14305 5.57103 5.69488Z" fill="#86CDFB"/>
<path fill-rule="evenodd" clip-rule="evenodd" d="M12.2466 8.62329C11.9515 10.1286 11.0918 11.4315 9.89703 12.3026C10.1176 12.3272 10.3418 12.3399 10.5689 12.3399C11.3499 12.3399 12.096 12.1902 12.7799 11.918C12.9234 10.7634 12.7227 9.62542 12.2466 8.62329Z" fill="#5CB4DB"/>
<path fill-rule="evenodd" clip-rule="evenodd" d="M9.89701 12.3025C8.42273 13.3774 6.5113 13.7047 4.75903 13.2269C5.0882 13.5599 5.45613 13.8544 5.8555 14.1033C6.78045 14.672 7.91712 14.9987 9.06997 15C11.8279 15 14.0995 13.1502 14.789 10.6094C13.512 11.8855 11.6816 12.502 9.89701 12.3025Z" fill="url(#paint2_linear_4885_130289)"/>
<path fill-rule="evenodd" clip-rule="evenodd" d="M5.85427 8.01447C5.64984 8.28762 5.46624 8.58208 5.30683 8.89677C4.57051 10.3503 4.48742 11.9647 4.94785 13.4097C3.76799 12.3161 3 10.7529 3 9.01723C3 6.87052 4.21681 4.94472 5.84375 3.90625C5.70387 4.41361 5.56689 5.143 5.56689 5.69483C5.56689 6.48109 5.6631 7.26948 5.85427 8.01447Z" fill="#209CDE"/>
<defs>
<linearGradient id="paint0_linear_4885_130289" x1="12.5751" y1="4.22223" x2="5.26454" y2="5.98278" gradientUnits="userSpaceOnUse">
<stop offset="0.710666" stop-color="#A7E6F0"/>
</linearGradient>
<linearGradient id="paint1_linear_4885_130289" x1="9.88348" y1="6.25" x2="15.8125" y2="8.75" gradientUnits="userSpaceOnUse">
<stop offset="0.4279" stop-color="#1177A9"/>
<stop offset="0.845651" stop-color="#082544"/>
</linearGradient>
<linearGradient id="paint2_linear_4885_130289" x1="9.77801" y1="10.5894" x2="12.625" y2="15.9375" gradientUnits="userSpaceOnUse">
<stop offset="0.276163" stop-color="#0F549F"/>
<stop offset="0.743589" stop-color="#050615"/>
</linearGradient>
</defs>
</svg>
