<!-- by TradingView --><svg width="18" height="18" viewBox="0 0 18 18" fill="none" xmlns="http://www.w3.org/2000/svg">
<rect width="18" height="18" fill="url(#paint0_linear_229_5919)"/>
<path fill-rule="evenodd" clip-rule="evenodd" d="M9 14C11.7614 14 14 11.7614 14 9C14 6.23858 11.7614 4 9 4C6.23858 4 4 6.23858 4 9C4 11.7614 6.23858 14 9 14ZM9 15C12.3137 15 15 12.3137 15 9C15 5.68629 12.3137 3 9 3C5.68629 3 3 5.68629 3 9C3 12.3137 5.68629 15 9 15Z" fill="white"/>
<path fill-rule="evenodd" clip-rule="evenodd" d="M7 6H8V9H10V6H11V12H10V10H8V12H7V10H6V9H7V6Z" fill="#F65A43"/>
<defs>
<linearGradient id="paint0_linear_229_5919" x1="3.34858" y1="3.12159" x2="21.9042" y2="24.4339" gradientUnits="userSpaceOnUse">
<stop stop-color="#1A1E21"/>
<stop offset="1" stop-color="#06060A"/>
</linearGradient>
</defs>
</svg>
