<!-- by TradingView --><svg width="18" height="18" viewBox="0 0 18 18" xmlns="http://www.w3.org/2000/svg"><path fill="#F0F3FA" d="M0 0h18v18H0z"/><path d="m9.76 14 2.71-10-7.94 6.42 1.94.46-1.17.98 1.54.33-1.05.85 3.97.96Z" fill="#009F41"/><path d="M12.3 8.03c.46.2 1.4.67 1.4 1.47 0 .8-.94 1.25-1.4 1.47-.96.43-2.3.7-3.8.7s-2.84-.27-3.8-.7c-.46-.22-1.4-.68-1.4-1.47 0-.8.94-1.26 1.4-1.47.94-.43 2.24-.7 3.69-.7L8.77 7H8.5C5.46 7 3 8.11 3 9.5 3 10.88 5.46 12 8.5 12S14 10.88 14 9.5c0-.88-.98-1.65-2.47-2.1l-.08.31c.3.1.59.2.84.32Z" fill="#EA5550"/></svg>