<!-- by TradingView --><svg width="18" height="18" viewBox="0 0 18 18" xmlns="http://www.w3.org/2000/svg"><path fill="#F0F3FA" d="M0 0h18v18H0z"/><path d="m7.76 9.89 2.42-.22.4-1.66c.26-.98.53-1.87.76-2.42.6-1.45 1.68-2.59 2.42-2.59.15 0 .24.1.24.26 0 .3-.1.66-.3.92-.08-.2-.17-.24-.4-.24-.43 0-.7.17-.91.63a8.83 8.83 0 0 0-.59 1.9l-.77 3.09c.34-.04.6-.16.87-.44l.05.03c-.29.54-.6.85-1.06 1.04-.1.3-.16.6-.24.91-.13.47-.33.99-.33 1.5 0 .22.06.4.14.4.08 0 .34-.26.66-.7l.13.13c-.09.17-.24.37-.4.54l-.2.2c-.15.14-.53.83-.7.83-.06 0-.15-.1-.25-.26a1.6 1.6 0 0 1-.24-.77c0-.83.32-1.72.51-2.5l.05-.17a5.51 5.51 0 0 0-2.4.16c-.27 1.03-.42 2.3-1.16 3 .26-.09.37-.1.56-.1.15 0 .3.04.46.04.14 0 .32-.08.48-.22l.04.04-.05.1-.07.15c-.15.3-.19.33-.57.33l-.76.03c-.48.03-.63.08-1.04.17.02-.17.02-.2.05-.3.32-.27.38-.43.54-.9.19-.58.37-1.15.51-1.75.18-.71.34-1.43.5-2.14l.3-1.47.06-.23c-.2-.04-.3-.05-.46-.05-1.4 0-2.47.86-2.47 1.8 0 .37.13.78.38 1.22.22.37.47.62.62.62.06 0 .13-.03.26-.13-.28.48-.57.77-.8.77-.52 0-1-.83-1-1.75 0-1.47 1.28-2.75 2.4-3.05.24-.06.67-.12 1.27-.2.38-.04.6-.07 1.05-.14-.45 1.08-.67 2.44-.96 3.59Z"/></svg>