<!-- by TradingView --><svg xmlns="http://www.w3.org/2000/svg" width="18" height="18"><path fill="url(#aljixamth)" d="M0 0h18v18H0z"/><path d="M13.72 8.35c-.73-3.37-3.95-3.62-5.58-3.37C6.36 5.25 4 6.42 4 9.18c0 2.77 2.44 3.08 3.01 3.08.42 0 .88-.15 1.05-.22.03 0 .09.07.08.38 0 .31-.17.94-.25 1.21-.02.1-.06.31 0 .36.07.04.17-.02.22-.06.4-.41.85-1.37 1.08-1.8.36-1.09 1.54-.93 2.3-1.09 1.88-.4 2.38-1.96 2.23-2.7z" fill="#fff"/><path d="M12.49 4c-.18 0-.32.12-.32.28v.98c.01.14.15.26.32.26.16 0 .3-.12.3-.26l.01-.98c0-.16-.14-.28-.31-.28z" fill="#F5861F"/><path d="M14.35 4.69a.323.323 0 00-.43-.03l-.73.68c-.1.1-.1.28.02.4.12.11.3.13.41.04l.74-.68c.11-.1.1-.29-.01-.41zM6.51 7.64c-.15 0-.3.13-.31.3v.6h-.63v-.6c0-.17-.15-.3-.31-.3s-.3.15-.32.31V9.8c.03.15.17.25.32.26.16 0 .31-.13.31-.28v-.63h.63v.6c0 .17.17.3.31.31.17 0 .32-.15.32-.3V7.94c0-.17-.15-.3-.32-.3zm6.08.01a.32.32 0 00-.4.18l-.33 1.18-.34-1.18a.32.32 0 00-.4-.18.3.3 0 00-.19.39l.61 1.76c.05.14.15.26.32.26.16 0 .26-.12.31-.26l.61-1.76a.3.3 0 00-.2-.39zm-3.56.59h.31V9.8c0 .15.18.27.32.27.15 0 .31-.12.31-.27V8.24h.32c.17 0 .31-.14.31-.3a.3.3 0 00-.3-.3H8.99a.3.3 0 00-.28.3c.01.16.15.3.32.3z" fill="#0DB14B"/><path d="M14.73 6.12h-1.02c-.15 0-.28.14-.28.3 0 .17.13.3.28.3h1.02a.3.3 0 00.27-.3.3.3 0 00-.27-.3zM8.31 9.56l-.57-.5a.38.38 0 00-.48 0 .28.28 0 000 .42l.57.5c.13.11.34.1.47 0 .13-.12.13-.3.01-.42z" fill="#EE619A"/><path d="M8.28 7.73a.38.38 0 00-.47-.02l-.57.5a.28.28 0 000 .43c.14.12.36.12.49 0l.57-.5a.28.28 0 00-.02-.41z" fill="#F5861F"/><defs><linearGradient id="aljixamth" x1="14.35" y1="1.89" x2="3.13" y2="16.05" gradientUnits="userSpaceOnUse"><stop stop-color="#DFDE13"/><stop offset="1" stop-color="#A4BA23"/></linearGradient></defs></svg>