<!-- by TradingView --><svg width="18" height="18" viewBox="0 0 18 18" xmlns="http://www.w3.org/2000/svg"><path fill="#F0F3FA" d="M0 0h18v18H0z"/><path fill-rule="evenodd" d="M9 14A5 5 0 1 0 9 4a5 5 0 0 0 0 10ZM4.57 7.47a4.69 4.69 0 0 1 8.87.02c-.29-.3-.66-.49-1.08-.49H5.6c-.39 0-.74.18-1.02.47Zm4.8-.07h3c.74 0 1.32.68 1.32 1.6s-.58 1.6-1.33 1.6h-3c.39-.36.64-.95.64-1.6a2.2 2.2 0 0 0-.64-1.6ZM8.4 11H5.59c-.39 0-.74-.18-1.02-.47a4.69 4.69 0 0 0 8.87-.02c-.29.3-.66.49-1.08.49H8.41Z" fill="#183783"/><path d="M7.51 6c-.26-.04-.33.26-.52.38l-.02.01a.05.05 0 0 1-.05-.04c0-.1 0-.2.02-.28v-.04a.2.2 0 0 0-.06-.07l-.01-.03c-.02-.03 0-.07.04-.07.18-.05.33-.03.48-.18a2.74 2.74 0 0 0 .3-.38c.02-.07-.08-.08-.12-.06-.17.07-.34.1-.5.21l-.28.17c-.08.04-.12.01-.12-.08V5.5c0-.05.01-.1.04-.13a.25.25 0 0 1 .1-.1c.3-.15.7-.33 1.04-.23.15.05.1.25.04.33l-.2.23c-.07.06-.04.22.06.15a.8.8 0 0 0 .22-.25c.08-.13.18-.25.29-.34.03-.03.05-.02.07.02a.2.2 0 0 1-.02.14c-.04.1-.11.15-.18.2a.11.11 0 0 0-.04.08c-.02.07.08.12.06.2-.02.08-.07.16-.16.18-.16.04-.23.1-.27.28a.15.15 0 0 1-.18.12.05.05 0 0 1-.03-.03c-.04-.08-.03-.18.03-.28.02-.04 0-.06-.03-.06ZM9.32 5.6H9.3l-.32.32c-.04.04-.02.1.03.1.18.03.36.06.54.12.04.01.06.06.03.1-.1.17-.26.16-.42.11a1.57 1.57 0 0 0-.76-.01.06.06 0 0 1-.07-.06c0-.2.23-.26.38-.3a.2.2 0 0 0 .1-.07A7.93 7.93 0 0 1 9.66 5l.05.01c.11.08.21.19.36.13.18-.07.38-.14.57-.14.02 0 .03 0 .05.02l.02.04.03.23c0 .02.03.04.05.03.16-.05.3-.17.45-.25h.04c.01 0 .02 0 .03.02.07.13-.03.21-.14.25-.23.1-.47.2-.71.33a.07.07 0 0 0-.04.07c.01.04.03.07.08.09.2.08.39.19.55.32.09.07.1.14.04.22a.05.05 0 0 1-.04.02.23.23 0 0 1-.12-.03l-.65-.38a.06.06 0 0 0-.08.02c-.08.14-.16.3-.32.36a.05.05 0 0 1-.07-.05c-.03-.13.14-.28.22-.37.1-.1.01-.24.19-.32.11-.05.2-.12.26-.22s.04-.14-.08-.1c-.15.05-.29.11-.42.2a.44.44 0 0 1-.3.06.06.06 0 0 0-.05.04c-.04.08-.08.23-.2.2-.12-.03-.08-.12-.1-.2ZM6.99 11.46c-.04.05-.05.1-.03.15H7c.12-.07.14-.23.32-.2l.04.01c.03.05.04.1.02.15l-.03.03c-.1.04-.2.1-.3.16a.18.18 0 0 0-.08.2c0 .02.01.03.03.04.26.05.24-.05.38-.19a.07.07 0 0 1 .1 0c.1.1 0 .2-.04.29-.06.11-.38.09-.51.08-.04 0-.06.08-.02.08.2 0 .38-.01.58-.03.08 0 .13.02.16.09.05.1-.17.1-.23.1a2.87 2.87 0 0 0-.5-.02c-.02 0-.04.02-.04.05l.01.47c0 .05-.02.08-.07.08s-.12 0-.12-.06v-.46c0-.04-.04-.06-.07-.05-.17.04-.34.08-.5.1-.08.02-.13-.05-.14-.12 0-.07.03-.1.1-.1l.31.01c.07.01.15 0 .24-.03l.03-.04c.03-.13.12-.2.04-.34v-.05c0-.02.01-.05.03-.07.08-.08.07-.25.05-.34-.01-.06-.08-.08-.12-.05a.4.4 0 0 0-.2.3c0 .05.01.09.05.12.03.03.07.02.1.01.02 0 .04.02.04.04 0 .06-.04.1-.1.13-.02 0-.03.02-.03.04.02.1-.03.16-.14.17l-.04-.01c-.04-.05-.04-.1-.01-.15a.22.22 0 0 0 .02-.2c-.01-.02-.04-.03-.07-.01l-.19.12a.07.07 0 0 1-.06.02.03.03 0 0 1-.02-.05c.08-.09.17-.16.22-.25l.12-.2c.04-.06.05-.12.07-.2l.04-.02c.1.02.22.06.32.06a.3.3 0 0 1 .14.01c.06.03.08.08.05.13ZM8.84 11.96c-.1-.03-.19-.03-.25-.12-.02-.04 0-.09.04-.09l.26-.02c.02 0 .04-.02.05-.03.06-.12.05-.28.04-.4 0-.03.01-.04.03-.04l.18.06c.06.03.07.07.05.13l-.05.15c0 .04.03.07.07.06.12-.05.3-.11.39.05.05.11-.02.33-.03.46-.01.25-.1.5-.26.74-.05.1-.16.14-.22.02a.78.78 0 0 0-.14-.18c-.04-.04-.01-.1.04-.1l.14.03.05-.01a.3.3 0 0 0 .1-.15c.06-.2.1-.4.11-.62 0-.05-.02-.09-.07-.1-.15-.03-.25.05-.3.2-.08.29-.27.57-.57.83a.17.17 0 0 1-.1.04c-.07 0-.08-.03-.04-.08.07-.1.15-.16.2-.26l.26-.4a.27.27 0 0 0 .04-.13c0-.02 0-.03-.02-.04ZM11 12.2c-.05 0-.1 0-.15-.03-.03 0-.06.02-.06.05 0 .07 0 .13-.03.2l-.18.33a.6.6 0 0 1-.21.23c-.02 0-.03 0-.04-.02 0-.04 0-.07.03-.1.16-.25.27-.53.34-.84.03-.15 0-.31.04-.45.01-.04.04-.06.08-.06l.29.02c.02 0 .03-.02.02-.04a.27.27 0 0 1-.02-.2c.03-.08.19.04.21.07.05.05.1.08.17.07.07-.01.19.13.08.15l-.27.03c-.07.01 0 .1.04.1l.18.03.04.03c.03.04.06.08.1.1.08.07.08.12-.01.15l-.13.05c-.03 0-.04.04-.02.07l.12.17c.03.04.01.1-.03.12l-.1.02v.04c.03.13.33.2.43.22a.1.1 0 0 1 .07.05c.02.03.01.05-.01.06-.16.1-.3.08-.45-.05a6.06 6.06 0 0 1-.26-.25c-.03-.04-.04-.03-.03.02.03.14.05.24 0 .39-.04.08-.14.1-.17 0-.03-.08-.06-.18-.02-.27.04-.1.05-.23.03-.37L11 12.2Z" fill="#183783"/><path d="m10.98 12.44-.01.21-.15.2c-.02.03-.04.04-.07.01-.05-.04-.04-.13 0-.18.03-.05.1-.34.11-.34.05 0 .1.04.12.1Z" fill="#183783"/></svg>