<!-- by TradingView --><svg width="18" height="18" viewBox="0 0 18 18" xmlns="http://www.w3.org/2000/svg"><path fill="#F0F3FA" d="M0 0h18v18H0z"/><path fill-rule="evenodd" d="M9 13c3.31 0 6-1.8 6-4s-2.69-4-6-4-6 1.8-6 4 2.69 4 6 4ZM4.5 9c0-1.1.94-2 2.1-2h2.1v1.43H7.05c-.41 0-.75.27-.75.66 0 .4.34.62.75.62H8.7L7.5 11h-.9c-1.16 0-2.1-.9-2.1-2Zm6.3.51V7L9 8.49V11l1.8-1.49ZM13 7v2.51L11.2 11V8.49L13 7Z" fill="#1A3880"/><path opacity=".8" d="M9 8.19V7h1.5L9 8.19ZM11.2 8.19V7h1.5l-1.5 1.19Z" fill="#FFA05F"/></svg>