<!-- by TradingView --><svg width="18" height="18" viewBox="0 0 18 18" xmlns="http://www.w3.org/2000/svg"><path fill="#F0F3FA" d="M0 0h18v18H0z"/><path d="M7.93 3.27 7.42 4l-.03.03L7 4.2a.07.07 0 0 1-.08-.02.08.08 0 0 1-.03-.08l.15-.5c0-.02.01-.04.03-.05l.75-.4c.03-.01.07 0 .1.03.02.03.02.06 0 .1ZM8.53 3.7c.3-.18.49-.41.43-.51-.06-.1-.35-.05-.65.13-.3.18-.49.4-.43.51.07.1.35.04.65-.14ZM9.92 3.47l-.56.3h-.03L9 3.83a.1.1 0 0 1-.1-.05.1.1 0 0 1 0-.12l.31-.32a.1.1 0 0 1 .07-.04l.6-.02c.05 0 .08.03.1.08 0 .05 0 .09-.06.11ZM6.45 4.49l-.3.19a.08.08 0 0 1-.09 0 .09.09 0 0 1-.04-.07l-.03-.45c0-.03.01-.06.03-.07l.68-.63c.04-.03.07-.04.11 0 .04.02.05.05.04.1l-.36.89a.1.1 0 0 1-.04.04ZM10.36 3.94c.3-.04.52-.14.51-.25 0-.1-.26-.16-.55-.13-.3.04-.53.14-.52.25.01.1.26.16.56.13ZM11.13 4.28c.28 0 .5-.06.5-.16.01-.1-.22-.17-.5-.18-.28 0-.5.07-.5.16-.01.1.22.18.5.18Z" fill="#AE4913"/><path d="M12.6 6.08a4.06 4.06 0 0 1 .2.39h-.03l-.28-.35a4.16 4.16 0 0 0-3.71-1.65 4.3 4.3 0 0 0-2.34.94c-.8.63-1.28 1.5-1.41 2.58-.08.64 0 1.26.27 1.87.25.58.62 1.1 1.13 1.54.22.2.46.33.7.42.05.01.07.04.07.09v.05c0 .03-.01.06-.04.08a.08.08 0 0 1-.1 0 4.38 4.38 0 0 1-1.83-5.87 4.06 4.06 0 0 1 2.4-1.92 4.4 4.4 0 0 1 2.66 0c.96.3 1.73.91 2.31 1.83Z" fill="#1D6D31"/><path d="m12.21 4.56-.54-.1a.14.14 0 0 0-.17.11v.02c-.01.07.04.14.11.16l.55.1c.07.01.14-.04.16-.11v-.01a.14.14 0 0 0-.11-.17ZM8.75 5.17c.22.14.45.19.5.1.06-.1-.07-.28-.3-.43-.22-.14-.45-.19-.5-.1-.06.1.07.28.3.43ZM9.55 5.21c.2.18.41.26.48.18.08-.08-.02-.3-.22-.47-.19-.18-.4-.26-.48-.18-.07.08.03.3.22.47ZM10.3 5.3c.15.2.33.31.41.25.08-.06.02-.27-.13-.48-.15-.2-.34-.31-.42-.25-.08.06-.02.27.14.47ZM7.98 5.37c.27.08.53.06.56-.05.03-.11-.17-.27-.45-.35-.28-.08-.53-.05-.56.06-.03.1.17.26.45.34ZM12.28 5c.01-.02.02-.03.04-.02l.1.05c.37.2.53.32.5.39l-.04.06c-.03.06-.23 0-.59-.2l-.1-.05c-.02 0-.02-.02-.01-.03l.1-.2ZM10.99 5.52c.1.2.24.32.33.28.08-.05.08-.24-.02-.43-.1-.2-.24-.32-.33-.28-.08.05-.08.24.02.43ZM7.24 5.77c.31.02.57-.06.58-.18.01-.12-.23-.24-.55-.27-.31-.02-.57.06-.58.18-.01.12.24.24.55.27ZM12.32 6.6a1.91 1.91 0 0 1-.14-.05 3.7 3.7 0 0 0-.55-.57.27.27 0 0 1-.1-.26c.02-.1.07-.15.16-.17.03 0 .06.02.1.08l.05.1c.03.22.13.35.31.39.06.01.1.05.12.1.06.21.2.38.43.5.1.05.14.02.14-.09-.01-.14.05-.23.2-.27.18-.05.33.07.45.36.02.05 0 .07-.05.04l-.25-.1c-.2-.09-.25-.03-.15.16a1 1 0 0 1 .14.44c0 .07-.03.09-.08.03l-.35-.35a.13.13 0 0 0-.12-.04l-.1.01c-.04 0-.07-.02-.08-.07l-.03-.15a.11.11 0 0 0-.1-.1ZM12.75 5.66c.02-.02.03-.03.05-.01h.02c.35.24.5.39.45.46l-.01.02c-.05.08-.25 0-.6-.23l-.01-.01c-.02-.02-.03-.03-.01-.05l.11-.18Z" fill="#AE4913"/><path d="M12.06 6.86a4.18 4.18 0 0 1 .9 4.84 4.17 4.17 0 0 1-2.5 2.14 4.38 4.38 0 0 1-4.2-.8.48.48 0 0 0-.1-.12c-.26-.23-.5-.5-.7-.83-.07-.13-.18-.16-.31-.09-.2.1-.35.04-.45-.18-.16-.31-.1-.37.18-.15l.1.04c.06.03.1.04.16.04h.28c.07 0 .11.03.14.08.13.31.39.6.75.9.48.37 1.05.64 1.72.8.6.15 1.21.15 1.86 0 .9-.21 1.64-.65 2.22-1.3.64-.73.98-1.57 1-2.52.02-1.01-.36-1.91-1.14-2.71-.03-.03-.03-.07 0-.11.02-.02.05-.03.1-.03Z" fill="#1D6D31"/><path d="M6.37 12.25h-.26c-.05 0-.08-.02-.08-.08a1.1 1.1 0 0 0-.09-.35c-.02-.06-.06-.08-.12-.08a.4.4 0 0 1-.17-.02c-.06-.03-.08-.08-.06-.14.06-.22-.07-.36-.37-.43-.27-.07-.39-.26-.34-.6 0-.05.04-.06.1-.02l.72.7a1.26 1.26 0 0 1 .15.29c.02.06.06.1.1.13.14.08.26.19.36.33a.2.2 0 0 0 .13.08c.3.05.45.24.45.55a.2.2 0 0 1-.09.15c-.05.05-.1.05-.16.01a.2.2 0 0 1-.11-.14l-.05-.29c-.01-.06-.05-.09-.1-.09Z" fill="#AE4913"/><path fill-rule="evenodd" d="M11.98 6.89c.01-.02.04-.03.08-.03a3.5 3.5 0 0 0-2.02-1.02 3.68 3.68 0 0 0-2.83.59c-.67.5-1.09 1.1-1.25 1.76-.3 1.27.01 2.37.93 3.3.04.05.07.04.1 0 .05-.1.05-.19 0-.27a1.8 1.8 0 0 1-.17-.6 2.78 2.78 0 0 0-.2-.75c-.13-.26-.07-.31.18-.15.08.04.14.17.19.37.07.3.12.61.13.92 0 .1.05.16.13.2l.1.04c.05.02.08 0 .07-.06-.03-.26-.04-.6-.03-1.03 0-.1-.01-.2-.04-.28a1.99 1.99 0 0 0-.1-.27c-.17-.35-.09-.42.26-.23.05.03.1.13.13.3.13.52.14 1.05.03 1.6-.03.1.05.17.21.2.04 0 .05.03.04.07l-.03.05c0 .02-.01.03-.03.02l-.5-.03a.1.1 0 0 0-.1.06.1.1 0 0 0 0 .12l.12.22c.07.11.16.15.28.12.1-.02.22 0 .37.1.08.04.2.08.34.09a7 7 0 0 0 1.49 0c.34-.05.74-.22 1.2-.5.06-.04.13-.1.2-.18.1-.1.18-.17.26-.2.05-.03.1-.06.13-.1 1.15-1.46 1.18-2.92.1-4.39a.44.44 0 0 1-.22-.17c-.03-.04-.02-.07.02-.1.03 0 .06 0 .1.03.07.05.11.11.13.18l.2.13c-.04-.03-.04-.07 0-.11Zm-2.67.84c-.06-.02-.1-.02-.12.01-.04.06-.07.06-.1.03-.06-.08-.13-.12-.2-.12-.08 0-.1.03-.07.1.19.43.32.88.38 1.34 0 .06 0 .1-.04.15-.08.12-.08.27 0 .45.02.06 0 .1-.04.14-.12.09-.15.24-.08.45.02.05.05.09.1.1.15.07.27.1.38.1.06-.01.08.01.05.07a.8.8 0 0 1-.17.23c-.04.04-.08.04-.12 0l-.25-.25c-.04-.05-.08-.04-.1.02-.12.3-.05.5.2.6.1.04.19.04.28 0 .22-.08.33-.24.33-.46v-.38c.04-.31.06-.78.03-1.4A1.9 1.9 0 0 0 9.4 7.8a.2.2 0 0 0-.09-.07Zm.05.7-.02.04a.72.72 0 0 1-.04-.18c.01-.16.07-.18.16-.04.04.05.01.1-.06.14a.1.1 0 0 0-.04.04Zm.1.3c0-.03.02-.06.04-.1.03-.06.06-.06.09 0l.02.06c.02.05 0 .08-.04.1-.06.02-.1.01-.1-.04v-.03Zm.07.54-.02-.01-.17-.04c-.13-.03-.16.01-.08.13.06.1.15.12.28.07.09-.04.08-.1-.01-.15Zm-.3.56.33.07c.06.02.07.05.03.09l-.1.1c-.04.04-.09.04-.14 0a.43.43 0 0 1-.17-.21c-.01-.05 0-.06.05-.05Zm1.93 1.33c.05.04.1.03.13-.03a5.52 5.52 0 0 0 .06-.36c.04-.5.16-.88.35-1.11.03-.04.08-.05.13-.03l.06.02c.06.03.07.07.04.13-.17.27-.26.52-.26.75-.01.18-.05.36-.13.53a.94.94 0 0 1-.7.58l-.1.04a.09.09 0 0 1-.1-.02c-.06-.06-.05-.09.04-.08h.06c.03-.01.04-.03.05-.07a4 4 0 0 0-.08-.72c-.08-.5 0-.96.23-1.38a.22.22 0 0 1 .2-.13h.07c.07 0 .1.04.07.1-.21.53-.26 1.1-.15 1.73 0 .02.01.04.03.05Zm-2.43-.68c-.04.1-.02.23.06.4.08.16.12.28.13.36.04.24.13.52.25.82.02.04 0 .06-.04.06h-.08a2.73 2.73 0 0 1-.28-.68c-.1-.6-.21-.99-.35-1.15a.27.27 0 0 1-.06-.17v-.02c-.01-.41-.04-.7-.07-.88a1.8 1.8 0 0 0-.36-.77.11.11 0 0 1-.02-.11.11.11 0 0 1 .09-.08l.05-.01c.13-.02.22.02.29.13.16.26.28.52.35.78a6.54 6.54 0 0 1 .14 1.02c0 .05-.03.15-.1.3Zm-.2-.46a.04.04 0 1 0 0-.08.04.04 0 0 0 0 .08Zm1.3 1.28c-.1.13-.15.32-.17.58 0 .02-.01.03-.03.03-.03 0-.04 0-.05-.02-.07-.18-.02-.4.16-.65s.36-.36.56-.35c.02 0 .03 0 .04.03 0 .02 0 .04-.03.05-.24.1-.4.2-.49.33Z" fill="#038A44"/><path d="M5.18 11.3v.02a.26.26 0 0 1-.18.13.37.37 0 0 1-.25-.05l-.06-.03a.37.37 0 0 1-.17-.19.26.26 0 0 1 .01-.23h.02l.63.34ZM5.49 12.47l-.38-.21a.14.14 0 0 0-.18.05l-.03.06a.14.14 0 0 0 .06.18l.37.2c.06.05.15.02.18-.04l.03-.06a.14.14 0 0 0-.05-.18ZM7.16 12.89c.14.2.32.3.42.24.09-.07.05-.28-.1-.48-.13-.2-.32-.3-.41-.24-.1.06-.05.28.09.48ZM10.5 12.95c.3.03.56-.05.57-.17.01-.13-.23-.25-.53-.28-.3-.03-.56.05-.57.17-.02.12.22.25.53.28ZM7.9 13.11c.18.2.4.3.49.2.09-.07.02-.3-.16-.5s-.4-.29-.48-.2c-.1.08-.02.3.15.5ZM8.74 13.28c.22.15.46.2.53.1s-.05-.32-.27-.47c-.22-.15-.45-.2-.52-.1-.08.1.04.31.26.47ZM9.61 13.22c.27.1.53.1.57-.02.04-.11-.14-.29-.4-.4-.28-.1-.53-.1-.58.02-.04.11.14.29.41.4ZM6.23 13.15c.02 0 .02.01.01.02v.01a.28.28 0 0 1-.19.18c-.1.03-.2.02-.31-.02l-.06-.02a.49.49 0 0 1-.25-.19c-.06-.08-.07-.17-.04-.25v-.01c0-.01.01-.02.02-.01l.82.29ZM6.93 13.87c-.04.1-.01.14.09.14h.58c.07 0 .1.03.12.1.02.06.02.13 0 .22-.01.03 0 .05.03.04l.78-.14a.1.1 0 0 1 .1.04.1.1 0 0 1 .01.1l-.02.08a.31.31 0 0 1-.15.16c-.21.11-.46.15-.73.1a.2.2 0 0 1-.13-.07c-.14-.17-.33-.24-.58-.2-.04 0-.09 0-.12-.04a.3.3 0 0 1-.1-.23c0-.06-.04-.1-.1-.11-.27-.06-.5-.16-.7-.29-.15-.1-.14-.15.03-.16.34-.03.6 0 .82.1.08.05.1.1.07.16ZM11.49 13.57c.1.08.15.2.14.34 0 .14-.05.28-.15.4l-.14.18c-.1.12-.22.2-.36.24a.39.39 0 0 1-.35-.07l.86-1.09ZM9.63 14.87c.22-.3.48-.58.8-.81.1-.09.17-.06.2.08l.01.08a.38.38 0 0 1-.11.35c-.16.17-.44.3-.82.41-.14.05-.17 0-.08-.11ZM9.56 14.19h.03v.02c.06.1.05.2 0 .31a.67.67 0 0 1-.3.28l-.12.07a.66.66 0 0 1-.4.08c-.12-.01-.21-.06-.26-.16v-.04l1.05-.56Z" fill="#AE4913"/></svg>