<!-- by TradingView --><svg width="18" height="18" viewBox="0 0 18 18" xmlns="http://www.w3.org/2000/svg"><path fill="#F0F3FA" d="M0 0h18v18H0z"/><path d="M12.72 5.19a.5.5 0 0 1 .28.43v3.93a.5.5 0 0 1-.28.44.6.6 0 0 1-.56 0l-1.88-.98a.51.51 0 0 1-.28-.44V6.61a.5.5 0 0 1 .28-.44l1.88-.98a.6.6 0 0 1 .56 0ZM10.84 14.93l1.88-.98a.5.5 0 0 0 .28-.44v-1.96a.5.5 0 0 0-.28-.44l-1.88-.98a.6.6 0 0 0-.56 0 .5.5 0 0 0-.28.44v3.92a.5.5 0 0 0 .28.44.6.6 0 0 0 .56 0" fill="#BBBCC0"/><path d="M7.72 3.07A.5.5 0 0 1 8 3.5V7.5a.5.5 0 0 1-.28.44.6.6 0 0 1-.56 0l-1.88-1A.51.51 0 0 1 5 6.5V4.51a.5.5 0 0 1 .28-.45l1.88-1a.6.6 0 0 1 .56 0ZM5.84 12.87l1.88-1a.5.5 0 0 0 .28-.44V9.45A.5.5 0 0 0 7.72 9l-1.88-.99a.6.6 0 0 0-.56 0 .5.5 0 0 0-.28.44v3.98a.5.5 0 0 0 .28.44.6.6 0 0 0 .56 0" fill="#AB7B18"/></svg>