<!-- by TradingView --><svg width="18" height="18" viewBox="0 0 18 18" xmlns="http://www.w3.org/2000/svg"><path fill="#F0F3FA" d="M0 0h18v18H0z"/><path d="M11 4a2.9 2.9 0 0 0-2.9 2.17C8.02 6.46 8 7 8 7.5V8h2V6h2v3.63c1.26-.36 2-1.31 2-2.63 0-1.63-1.3-3-3-3ZM7 14a2.9 2.9 0 0 0 2.9-2.17c.07-.29.1-.83.1-1.33V10H8v2H6V8.37C4.74 8.73 4 9.69 4 11c0 1.7 1.22 3 3 3Z" fill="url(#aulgl2bj0)"/><defs><linearGradient id="aulgl2bj0" x1="3.71" y1="11.13" x2="14.1" y2="6.5" gradientUnits="userSpaceOnUse"><stop offset=".15" stop-color="#94C12E"/><stop offset=".19" stop-color="#8DC137"/><stop offset=".24" stop-color="#7BC04F"/><stop offset=".32" stop-color="#5EBF77"/><stop offset=".41" stop-color="#36BDAE"/><stop offset=".5" stop-color="#04BBF1"/><stop offset=".59" stop-color="#05B7ED"/><stop offset=".67" stop-color="#08ABE0"/><stop offset=".76" stop-color="#0C98CC"/><stop offset=".85" stop-color="#117DAF"/><stop offset=".95" stop-color="#185B8A"/><stop offset="1" stop-color="#1D4370"/></linearGradient></defs></svg>