<!-- by TradingView --><svg width="18" height="18" viewBox="0 0 18 18" xmlns="http://www.w3.org/2000/svg"><path fill="#F0F3FA" d="M0 0h18v18H0z"/><path d="M3 6.1V6h3v.1h-.13c-.37 0-.87.28-.87.63V8.7h3V6.73c0-.35-.53-.63-.9-.63H7V6h3v.1h-.13c-.37 0-.87.28-.87.63v4.52c0 .34.5.62.87.62H10V12H7v-.13h.1c.37 0 .9-.28.9-.62V9H5v2.25c0 .34.5.62.87.62H6V12H3v-.13h.1c.37 0 .9-.28.9-.62V6.73c0-.35-.53-.63-.9-.63H3Zm12 1.96h-.15c-.1-.58-.6-1.75-1.8-1.75-1.5 0-2.05 1.41-2.05 2.64 0 1.23.76 2.5 2.18 2.5 1.14 0 1.69-.74 1.82-1.1v.6c-.2.35-.96 1.05-2.3 1.05-1.65 0-2.7-1.42-2.7-2.98C10 7.45 11.1 6 13.05 6c.39 0 .72.1 1 .18.18.05.35.1.47.1.25 0 .33-.19.33-.28H15v2.06Z" fill="#031D4F"/></svg>