<!-- by TradingView --><svg width="18" height="18" viewBox="0 0 18 18" xmlns="http://www.w3.org/2000/svg"><path fill="#F0F3FA" d="M0 0h18v18H0z"/><path d="M3.6 6.02c-.09 0-.23.03-.31.05-.66.16-1.07.5-1.24 1.04L2 7.25v3.4l.05.16c.2.7.71 1.1 1.5 1.17.27.03 10.56.03 10.8 0 .39-.04.75-.16 1.02-.33.34-.23.55-.57.6-1 .04-.23.04-3.03 0-3.25-.06-.44-.28-.83-.61-1.07a1.87 1.87 0 0 0-.95-.31c-.24-.03-10.59-.02-10.81 0Zm11.05.35c.4.1.7.33.85.67.12.29.15.3.15 2 0 1.64-.03 1.69-.13 1.92-.14.32-.46.55-.93.66l-.17.04-5.32.04c-3.84 0-5.38-.03-5.53-.04-.54-.06-.9-.29-1.08-.7-.13-.28-.15-.26-.14-2.06l.03-1.65.06-.15c.14-.34.4-.57.82-.69.3-.09.12-.11 5.85-.11l5.38.03.16.04Z" fill="#003087"/><path d="M4.14 7.03a.1.1 0 0 0-.03.07c0 .04 0 .04.1.04.29 0 .36.1.3.4-.02.15-.86 2.83-.93 3.01-.1.22-.18.29-.46.32-.08 0-.1.01-.1.05-.04.08-.07.08.75.08.6 0 .77 0 .78-.02.04-.1.03-.1-.2-.14-.15-.03-.2-.08-.2-.22s.04-.26.28-1.04L4.61 9l.9-.01c.84 0 .9 0 .88.04l-.22.72c-.22.68-.27.83-.34.94-.05.09-.16.14-.31.16-.14.01-.2.04-.2.1 0 .04.05.04.78.04.83 0 .8 0 .8-.1 0-.02-.02-.03-.19-.05-.17-.02-.25-.09-.25-.21 0-.09.1-.41.5-1.7.4-1.3.47-1.5.56-1.63.07-.09.22-.15.37-.17.1 0 .12-.01.14-.05.04-.1.06-.09-.77-.09l-.79.01-.04.07-.01.06h.09c.14 0 .25.03.3.08.09.1.06.27-.2 1.07-.08.27-.15.42-.15.43H4.68l.17-.48c.17-.57.26-.81.34-.92.06-.09.2-.16.36-.17.11-.01.12-.02.13-.06.01-.03.01-.06 0-.07C5.68 7 5.41 7 4.92 7c-.65 0-.75 0-.78.03Zm4.08 0c-.05.08-.03.1.1.12.22.02.34.08.44.23l.06.07-.44 1.44-.47 1.54c-.05.13-.13.29-.18.33a.57.57 0 0 1-.3.1c-.13.02-.14.02-.17.09l-.01.05H8.5l.02-.06c.02-.06 0-.08-.1-.08a.57.57 0 0 1-.15-.04c-.12-.04-.15-.12-.12-.3.04-.23.8-2.74.82-2.7l.6 1.63c.33.89.61 1.52.63 1.54l.06.01c.05-.01.02.17.8-2.39l.37-1.16a.5.5 0 0 1 .48-.31c.06 0 .08-.01.1-.05.04-.1.05-.09-.6-.09l-.64.01-.04.07c-.01.06-.01.06.07.06.13 0 .24.03.28.08.06.06.06.2 0 .43-.04.2-.7 2.35-.72 2.4 0 .02-.2-.46-.57-1.48l-.57-1.54C9.2 7 9.16 7 8.72 7c-.45 0-.48 0-.5.03Zm4.22-.02c-.02.01-.03.04-.04.07-.02.06-.02.06.07.06.34 0 .42.1.34.44-.06.22-.87 2.79-.94 2.96a.86.86 0 0 1-.1.2c-.06.07-.18.11-.32.12-.12.02-.15.03-.15.1V11h1.01c.96 0 1.02-.02 1.18-.05.29-.07.47-.15.67-.31.14-.12.19-.17.27-.3.11-.2.16-.34.18-.54.03-.36-.17-.67-.52-.85l-.11-.05.14-.05c.34-.1.58-.27.73-.5.3-.48.14-1.02-.38-1.22-.28-.11-.32-.12-1.2-.12h-.83Zm1.57.26c.15.04.24.1.31.23.06.1.07.14.08.3.01.3-.09.53-.32.72-.21.17-.46.24-.86.24l-.25-.01.46-1.49c.05-.04.43-.04.58 0Zm-.54 1.77c.35.1.53.37.5.78a.94.94 0 0 1-.54.79c-.22.12-.3.13-.7.13l-.36-.01a100.4 100.4 0 0 1 .5-1.7c.02-.04.43-.03.6.01Z" fill="#AF272F"/></svg>