<!-- by TradingView --><svg width="18" height="18" viewBox="0 0 18 18" xmlns="http://www.w3.org/2000/svg"><path fill="#F0F3FA" d="M0 0h18v18H0z"/><path d="m12.85 11.41.25-.98h1.17l.2-.86H13.3l.1-.28h1.4l.2-.86h-2.5l-.74 2.98h1.09Z" fill="#231F20"/><path d="M4.97 5.17h7.95l-.16.72H4.8l.17-.72Z" fill="#E52629"/><path d="m11.66 11.41-.4 1.59H3l1.42-6.29h2.76c.63 0 1.4.45 1.13 1.37l-.08.35h.69l-.76 2.99h-.94l.3-1.12h-.94l-.23.88.51.16c1.23.47 1.36.6 2.36.56a5.56 5.56 0 0 0 1.48-.34l-.73-1.2-.37.25-.2.8h-.96l.76-2.98h.68l.15-.7c.07-.43-.1-.76-.83-.61l.04-.23.01-.05c.08-.6-.18-.7-.6-.7H4.58L4.83 5h8.26l-.8 3.5-.03.02h.02l-1.5 1.18.88 1.71Zm-.27.05v.03c-.23.12-1.37.6-2.18.63-1 .04-1.13-.1-2.35-.56-.2-.08-.39-.14-.56-.18l-.01.03h-1l.05-.17c-.38-.01-.69.04-.92.09-.48.1-.88.42-.88.42v-.07l-.13.6c.13-.08.46-.26.83-.34.48-.1 1.28-.26 2.38.17 1.23.46 1.49.64 2.35.6.8-.03 1.95-.5 2.17-.62l.14-.07.16-.57-.05.01ZM7.97 8.52l.12-.47C8.31 7.25 7.72 7 7.2 7H4.61l-.65 2.83c.16-.1.41-.23.69-.29.27-.06.66-.14 1.15-.1l.26-1.01h1l-.27 1h.93l.24-.91ZM5.75 9.65c-.46-.03-.83.05-1.1.1-.3.08-.59.23-.74.34l-.13.56c.16-.1.42-.24.7-.3.27-.06.64-.12 1.11-.08l.16-.62Zm-.21.83a3.7 3.7 0 0 0-1.05.08 2.4 2.4 0 0 0-.77.34l-.13.6c.11-.08.45-.3.84-.39.24-.05.56-.1.97-.08l.14-.55Zm4.59-1.96-.01.05-.04.17-.07.34.96-.65h1.12l.73-3.14H5l-.14.57h3.78c.5 0 .92.2.84.98v.02c.64-.03.86.48.78.87l-.14.79Zm1.1 3.77-.09.04c-.14.08-.48.23-1.07.38h1.05l.1-.42Zm-3.58.42a23 23 0 0 1-1.03-.36 3.91 3.91 0 0 0-2.38-.17c-.48.1-.9.38-.9.38v-.02l-.03.17h4.34Z" fill="#231F20"/></svg>