<!-- by TradingView --><svg width="18" height="18" viewBox="0 0 18 18" xmlns="http://www.w3.org/2000/svg"><path fill="#F0F3FA" d="M0 0h18v18H0z"/><path d="M9.07 3c.18.1.31.25.4.44.26 1.62-1.1 2.43-2.4 3.1a.45.45 0 0 1-.25.05.23.23 0 0 0 .02-.1c0-.02 0-.05.02-.07L8.8 3h.27Z" fill="#00E600"/><path d="M11.33 6.77 3.37 8.6 6.82 6.6c.1 0 .18 0 .25-.04 1.3-.68 2.66-1.49 2.4-3.1l1.86 3.32Z" fill="#06048C"/><path d="m11.33 6.77 3.3 1.82c.17.09.27.17.32.25.21.37-.28.58-.54.72 0-.07-.04-.1-.1-.08-2.55.6-5.09 1.18-7.64 1.75L3.1 9.25A.17.17 0 0 1 3 9.1c-.01-.26.11-.42.37-.5l7.96-1.83Z" fill="#00E600"/><path d="m14.4 9.56-3.3 1.9c-.76.28-1.4.67-1.93 1.16a2.4 2.4 0 0 0-.73 1.77l-1.77-3.16c2.55-.57 5.1-1.15 7.63-1.75.07-.02.1 0 .1.08Z" fill="#06048C"/><path d="M11.1 11.45c.03.1.02.17 0 .21l-1.75 3.15a.36.36 0 0 1-.1.12.39.39 0 0 1-.31.06.4.4 0 0 1-.15-.06.86.86 0 0 1-.35-.54 2.4 2.4 0 0 1 .73-1.77 5.85 5.85 0 0 1 1.94-1.17Z" fill="#00E600"/></svg>