<!-- by TradingView --><svg width="18" height="18" viewBox="0 0 18 18" xmlns="http://www.w3.org/2000/svg"><path fill="#F0F3FA" d="M0 0h18v18H0z"/><path d="M8 3c-2.84.48-5 2.99-5 6a6.06 6.06 0 0 0 5 6v-3.24c-.8-.3-1.44-.94-1.73-1.76H7.9c.27.3.67.5 1.11.5v-3c-.44 0-.84.2-1.12.5H6.27C6.56 7.2 7.2 6.54 8 6.24V3Z" fill="#6651A2"/><path d="M10 3c2.84.48 5 2.99 5 6a6.06 6.06 0 0 1-5 6v-3.24c.8-.3 1.44-.94 1.73-1.76H10.1c-.27.3-.67.5-1.11.5v-3c.44 0 .84.2 1.12.5h1.61A2.93 2.93 0 0 0 10 6.24V3Z" fill="#34B44A"/></svg>