<!-- by TradingView --><svg width="18" height="18" viewBox="0 0 18 18" xmlns="http://www.w3.org/2000/svg"><path fill="#F0F3FA" d="M0 0h18v18H0z"/><path d="M8.93 3c.1 1.02-.7 2.26-1.51 3.3a5.78 5.78 0 0 0-.98 2.67c.2-.47 1.69-2.11 2.36-3.23.54-.9.3-2.2.13-2.74Z" fill="url(#ax4e3dqic)"/><path d="M9.92 6.08c0-.97-.09-1.22-.6-2.34.68 2.15-3.18 4.9-3.3 7.62-.09 1.8 1.4 2.5 2.1 2.64-.92-.92-.97-2.5-.45-3.76C8.19 9 9.92 7.3 9.92 6.08Z" fill="url(#bx4e3dqic)"/><path d="m8.84 10.1 1.68-2.57a5.44 5.44 0 0 1 1.66 3.59c0 1.56-1.46 2.88-2.44 2.88s-1.5-1.28-1.5-2.14c0-.68.4-1.45.6-1.75Z" fill="url(#cx4e3dqic)"/><path d="M4 11.75c-.1-.76 1.3-1.78 2-2.2-.41.46-1.3 1.36-1.43 1.94-.12.58 3 .03 5.11-1.14 2.13-1.18 3.9-2.6 3.65-2.98-.2-.31-1.76-.13-2.51 0 .8-.37 2.53-.92 3.02-.22.6.88-.51 2.03-2.92 3.59-2.8 1.82-6.79 1.95-6.91 1Z" fill="url(#dx4e3dqic)"/><defs><linearGradient id="ax4e3dqic" x1="6.64" y1="7.56" x2="9.6" y2="3.7" gradientUnits="userSpaceOnUse"><stop stop-color="#EF843A"/><stop offset=".48" stop-color="#F7B531"/><stop offset="1" stop-color="#EFE652"/></linearGradient><linearGradient id="bx4e3dqic" x1="5.71" y1="4.92" x2="11.03" y2="4.63" gradientUnits="userSpaceOnUse"><stop offset=".29" stop-color="#E61931"/><stop offset=".71" stop-color="#EF843A"/></linearGradient><linearGradient id="cx4e3dqic" x1="9.09" y1="10.06" x2="12.1" y2="12.81" gradientUnits="userSpaceOnUse"><stop stop-color="#529CAD"/><stop offset=".24" stop-color="#296B9C"/><stop offset=".72" stop-color="#3152AD"/><stop offset="1" stop-color="#10296B"/></linearGradient><linearGradient id="dx4e3dqic" x1="7.61" y1="8.7" x2="9.63" y2="12.3" gradientUnits="userSpaceOnUse"><stop stop-color="#8B898F"/><stop offset=".77" stop-color="#E7EDF0"/></linearGradient></defs></svg>