<!-- by TradingView --><svg width="18" height="18" fill="none" xmlns="http://www.w3.org/2000/svg"><path fill="#F0F3FA" d="M0 0h18v18H0z"/><path fill-rule="evenodd" clip-rule="evenodd" d="M8 4.008C5.716 4.481 4 6.538 4 9s1.716 4.52 4 4.992v-1.118a4.002 4.002 0 0 1 0-7.748V4.008Zm2 1.118V4.008c2.284.473 4 2.53 4 4.992 0 2.466-1.72 4.52-4 4.992v-1.118a4.002 4.002 0 0 0 0-7.748Z" fill="#E60012"/><path fill-rule="evenodd" clip-rule="evenodd" d="M8 6v7H7V6.673L8 6Z" fill="url(#a)"/><path fill-rule="evenodd" clip-rule="evenodd" d="M10 5h1v6.31L10 12V5Z" fill="url(#b)"/><path fill-rule="evenodd" clip-rule="evenodd" d="M8 8.694 10 8v1.301L8 10V8.694Z" fill="#E60012"/><defs><linearGradient id="a" x1="7.35" y1="5.943" x2="7.35" y2="12.943" gradientUnits="userSpaceOnUse"><stop offset=".024" stop-color="#E60012" stop-opacity="0"/><stop offset=".359" stop-color="#E60012"/></linearGradient><linearGradient id="b" x1="10.719" y1="5" x2="10.719" y2="12" gradientUnits="userSpaceOnUse"><stop offset=".714" stop-color="#E60012"/><stop offset="1" stop-color="#E60012" stop-opacity="0"/></linearGradient></defs></svg>