<!-- by TradingView --><svg width="18" height="18" viewBox="0 0 18 18" xmlns="http://www.w3.org/2000/svg"><path fill="#F0F3FA" d="M0 0h18v18H0z"/><path d="M13.98 8.45c-.23.04-.5.07-.83.07-.5 0-1.17-.1-1.87-.19-.78-.1-1.6-.21-2.28-.21v.82c.35-.01 1.22 0 1.82.14a11.18 11.18 0 0 0 3.18.2l-.05.5c-.22.04-.49.06-.8.06-.5 0-1.17-.09-1.87-.18-.78-.1-1.6-.22-2.28-.22v.82c.35 0 1.22.01 1.82.15a11.18 11.18 0 0 0 2.91.22c-.07.2-.15.4-.24.58l-.34.01c-.5 0-1.17-.09-1.87-.18-.78-.1-1.6-.22-2.28-.22v.82c.35 0 1.22.01 1.82.14.7.16 1.45.24 2.16.26-.13.17-.27.33-.42.48l-1.28-.16c-.78-.1-1.6-.21-2.28-.21v.82c.35-.01 1.22 0 1.82.14.27.06.54.1.81.14a5 5 0 1 1 2.34-4.8Z" fill="#023F98"/></svg>