<!-- by TradingView --><svg width="18" height="18" viewBox="0 0 18 18" xmlns="http://www.w3.org/2000/svg"><path fill="#893027" d="M0 0h18v18H0z"/><path d="M11.2 4.06a13.9 13.9 0 0 0-3.67 6.18c-.13.45-.26.78-.38.98l-.56.87c-.3.46-1.06 1.48-1.5.7-.08-.16-.1-.45-.08-.9.06-.67.16-1.3.32-1.87.33-1.16.8-2.3 1.43-3.4.57-.99 1.27-1.84 2.1-2.55A.27.27 0 0 1 9.04 4h2.15l.02.02a.04.04 0 0 1-.01.04ZM5.15 13.2c.32.17.62.12.9-.16.23-.22.43-.45.6-.7.21-.31.64-1.04 1.28-2.19.39-.68.83-1.25 1.34-1.7.71-.62 1.93-.53 2.78-.33.17.04.17.07 0 .09-.5.05-.9.34-1.2.85-.25.43-.75 1.35-1.5 2.75-.45.85-1.28 2.07-2.2 2.17-.62.07-1.64-.12-2.02-.76-.02-.03-.01-.04.02-.02Zm7.14.7.36-1.43c.27-1.1.38-2.07.34-2.9a2.15 2.15 0 0 0-.43-1.14.15.15 0 0 0-.1-.06c-.4-.06-.75.03-1.06.27a.23.23 0 0 0-.07.1.26.26 0 0 0-.01.15c.1.46.1.95 0 1.49-.2 1.05-.52 2.22-.93 3.5-.03.07 0 .11.07.11h1.73a.1.1 0 0 0 .06-.02.12.12 0 0 0 .04-.07Z" fill="#FEFEFF"/></svg>