<!-- by TradingView --><svg width="18" height="18" viewBox="0 0 18 18" xmlns="http://www.w3.org/2000/svg"><path fill="#F0F3FA" d="M0 0h18v18H0z"/><path d="M6.43 5.94c-.7.22-1.35.8-1.97 1.21a185.72 185.72 0 0 1-1.48.02c-.1 0-.17.04-.22.14a6738.27 6738.27 0 0 0-.02 3.65c0 .1.04.18.11.22.04.02.08.03.13.03h1.1v1.02h9.88v-1.01l.02-.01L15 11.2c.14 0 .25-.08.25-.25V7.42c0-.11-.05-.19-.14-.23-.05-.03-.13-.03-.2-.03h-1.29a.2.2 0 0 1-.1-.03c-.65-.44-1.36-1.03-2.1-1.24h-.01c-.3.41-.7.64-1.2.68-.61.04-1.18.05-1.7.01l-.42-.02h-.43c-.1 0-.18.01-.26.03a.86.86 0 0 0-.54.59c0 .02 0 .02-.02 0a.32.32 0 0 1-.01-.07 1.27 1.27 0 0 1 .2-.58c.1-.1.2-.23.33-.29a.95.95 0 0 1 .23-.05c.05-.01.1-.02.13-.01h.36l.86.05c.4 0 .8-.01 1.21-.06a1.73 1.73 0 0 0 1.12-.81 3 3 0 0 0 .34-.85c.1-.06.18-.13.26-.2h.01v.01a2.75 2.75 0 0 1-.18 1.04c.7.23 1.37.65 2 1.06h1.72c.33 0 .59.34.59.71v4.1c0 .25-.08.46-.26.6a.61.61 0 0 1-.42.13h-.57c-.02 0-.02 0-.02.02v.9c0 .08-.04.12-.11.12H3.38c-.06 0-.1-.04-.1-.11v-.92H2.8a1 1 0 0 1-.35-.04.67.67 0 0 1-.43-.5 1.21 1.21 0 0 1 0-4.5.7.7 0 0 1 .25-.38.6.6 0 0 1 .4-.13H4.3c.02 0 .03 0 .04-.02a8.23 8.23 0 0 1 2.33-1.13c-.12.2-.2.42-.23.67Z" fill="#FFF100"/><path d="m11.64 4.04-.02.07c-.15.36-.36.66-.61.9a2.1 2.1 0 0 1-.96.44l-.34.07a7 7 0 0 1-.81.04l-.46-.01-.46-.01c-.2.07-1.51.39-1.22 1.53-.71-.92-.1-1.8-.1-1.8.17-.27.92-.76 1.68-.7l1.25.04c.16 0 .3 0 .43-.02a3.52 3.52 0 0 0 1.62-.55Z" fill="url(#a)"/><path d="M11.26 5.35a3 3 0 0 0 .42-1.32c0-.04 0-.04-.03-.01v.01l-.03.08c-.15.36-.36.66-.61.9a2.1 2.1 0 0 1-.96.44l-.34.07a7 7 0 0 1-.81.04l-.46-.01-.46-.01-.33.05c-.3.07-.65.23-.84.52-.18.28-.16.64-.03.95v.01h-.02c.02.02.04.04.06.04a1.27 1.27 0 0 1 .2-.58l.04-.03c.08-.1.17-.2.3-.26l.19-.05a5.86 5.86 0 0 0 .16-.01h.36l.86.05c.4 0 .8-.01 1.21-.06a1.73 1.73 0 0 0 1.12-.81Z" fill="url(#b)"/><path d="M6.43 5.94v.18c0 .25.06.48.16.7.04.1.1.18.17.26l.06.03.01.07c.01.02.02.02.02 0a.87.87 0 0 1 .54-.59l.26-.04h.43l.41.03c.53.04 1.1.03 1.71-.01.5-.04.9-.27 1.2-.68a7.7 7.7 0 0 1 2.12 1.07.2.2 0 0 0 .09.03h1.42c.06 0 .14 0 .2.03.09.05.13.12.13.23v3.77c0 .17-.1.25-.25.25h-1.1v1.02l-.02.02H4v-1.04H2.88c-.05 0-.1 0-.13-.02a.24.24 0 0 1-.11-.22V7.25c0-.04 0-.07.02-.1.05-.1.13-.15.22-.15H4.4c.02 0 .04 0 .06-.02a7.97 7.97 0 0 1 1.97-1.04Z" fill="#E60012"/><path d="M12.87 10.07a84.26 84.26 0 0 0-.8.8.49.49 0 0 1-.24.05h-.87l.05-.25v-.01h.31c.04 0 .07 0 .1-.03a259.05 259.05 0 0 1 .6-.55h-.88v-.01l.04-.25h.46l.02-.02.58-.49.04-.01h.7l.03-.2v-.01h-.65c-.16.16-.33.27-.52.27a3.7 3.7 0 0 0-.4.01 2886.45 2886.45 0 0 1-1.94.01l-.17 1.24c-.03.23-.17.3-.36.3a89.03 89.03 0 0 0-.86 0l.03-.26h.47l.17-1.28H7.61a.32.32 0 0 1-.32-.3V8.9l.13-.93c.03-.28.37-.45.6-.53a3.5 3.5 0 0 1 1.58-.13l.63.09c.32.04.65.03.95-.06.01 0 .02 0 .01.02l-.05.43v.02h-.02c-.22.11-.46.15-.7.12-.3-.04-.58-.12-.85-.2a1.83 1.83 0 0 0-1.13.08.6.6 0 0 0-.3.25 30.71 30.71 0 0 1-.13.82c-.03.15.02.22.14.22a171.43 171.43 0 0 1 .67 0l.12-.95.01-.01h.7l-.12.95a.01.01 0 0 0 0 .01h2.04l.02-.01.52-.48h-.82l-.01-.01.03-.24.01-.01h3.78v.01l-.03.23-.01.01h-2.11l-.03.01-.21.23c-.01 0 0 0 0 0h.81c.07 0 .13.02.17.05.07.03.06.14.05.2-.02.1-.03.14-.03.22h.01l.54-.46h.78c.01 0 .01 0 0 0l-.83.75v.01h.08v.01l.36 1.03h.14l.01.02-.03.24-.01.01h-.37c-.16 0-.38.03-.45-.2a50.25 50.25 0 0 1-.3-.98l-.12.94c-.03.2-.27.24-.41.24h-.72l.03-.25.02-.01h.36v-.01l.08-.57c0-.01 0-.02-.01 0Z" fill="#fff"/><path d="M13.69 7.7h1.22c.08 0 .25.02.24.15a13.54 13.54 0 0 0-.05.32h-.62l.03-.19-.01-.01h-2.53l-.02.18v.01h-.62c0-.1.02-.19.03-.28.01-.13.17-.17.26-.17a271.37 271.37 0 0 1 1.3 0l.04-.33h.76l.01.01-.04.3Zm-8.87.89.45-1.12h.63l-.11.33h1.26c.16 0 .18.12.15.26-.05.25-.1.42-.13.63l-.02.02h-.61V8.7l.13-.62v-.01h-.89c-.07.18-.16.34-.25.58a.3.3 0 0 1-.28.2 26.18 26.18 0 0 0-.45-.02l.03-.22.01-.01h.07l.01-.01Z" fill="#fff"/><path d="M4.28 8.08v-.01h-1v-.02l.02-.23.01-.01h1.65c0 .07-.02.13-.03.2 0 .04 0 .07-.02.1a603.8 603.8 0 0 0-.7 1.4l.37 1.4v.01h-.63l-.14-.57h-.02c-.05.12-.1.23-.17.35-.07.14-.14.22-.28.22a70.24 70.24 0 0 0-.5-.01l.04-.23v-.02H3l.02-.01.56-1.14V9.5l-.31-1.15h.61l.02.01.09.31.3-.58ZM5.9 9.51c-.16.41-.31.83-.48 1.24-.03.1-.09.16-.16.17h-.6a.01.01 0 0 1 0-.01l.02-.24.02-.01h.12l.02-.01.8-2.14.02-.01h.62v.01l-.19.5v.01h.38v.01l.19 1.62h.56l.4-1.1v-.01h.7c-.11.32-.26.74-.4 1.08-.08.24-.22.3-.44.3H6.34c-.1 0-.24.04-.29-.11a457.03 457.03 0 0 0-.15-1.3Z" fill="#fff"/><path d="m12.97 9.32-.07.57h-.61l.67-.57h.01Z" fill="#E60012"/><path d="M10.66 10.62c.02.12.1.19.19.24v.06h-.66c-.11 0-.2-.06-.22-.22a2941.96 2941.96 0 0 1-.12-1.16h.69a327.6 327.6 0 0 0 .12 1.08Z" fill="#fff"/><defs><linearGradient id="a" x1="7.73" y1="5.28" x2="10.38" y2="5.12" gradientUnits="userSpaceOnUse"><stop stop-color="#fff"/><stop offset="1" stop-color="#A9CF52"/></linearGradient><linearGradient id="b" x1="6.88" y1="6.4" x2="11.28" y2="5.38" gradientUnits="userSpaceOnUse"><stop stop-color="#DAE248"/><stop offset="1" stop-color="#094"/></linearGradient></defs></svg>