<!-- by TradingView --><svg width="18" height="18" viewBox="0 0 18 18" xmlns="http://www.w3.org/2000/svg"><path fill="#F0F3FA" d="M0 0h18v18H0z"/><path d="M4.62 9.23v2.22c.01.21-.04.52-.33.55h-.8V9.5l-.47.13a.13.13 0 0 1 0-.14.16.16 0 0 1 .05-.05.19.19 0 0 1 .08-.03c.28-.07.34-.23.34-.48-.02-.97-.01-1.95-.01-2.93h1.14v2.86c.92-.27 1.95-.36 2.92-.35V6h1.12v1.69a3.4 3.4 0 0 1 2.31-1.61c.5-.1 1-.1 1.5 0 .48.11.93.32 1.3.62a2.98 2.98 0 0 1 1.18 2.09c.06.8-.34 1.73-.93 2.35L15 12h-1.64c-.12 0-.22-.17-.34-.26a3.55 3.55 0 0 1-2.48.08 3.25 3.25 0 0 1-1.87-1.51v1.26c0 .28-.15.43-.46.43h-.67V9.13c-.95-.11-1.97-.03-2.92.1Zm5.14.53c.17.6 1.17 1.36 2.3 1.15.5-.1.94-.34 1.26-.69.31-.34.48-.78.47-1.22 0-.9-.69-1.86-2.1-1.93A2.16 2.16 0 0 0 9.58 8.7c1.29.44 2.34.86 3.37 1.62-.3.29-.5.39-.95.46-.1.01-.22 0-.31-.05-.25-.12-.47-.29-.72-.4-.38-.2-.78-.37-1.2-.56Z" fill="#0191D9"/><path d="M3 9.67v-.3c.8-.4 3.07-1.11 5.75-.8 1.95.21 3.36.98 4.43 1.8-.43.4-1.03.53-1.28.56-.87-.58-2.04-1.2-3.35-1.56a9.91 9.91 0 0 0-5.55.3Zm10 2.09.26.24H15l-.32-.3-.62-.6a3.2 3.2 0 0 1-1.07.66Z" fill="#F59500"/></svg>