<!-- by TradingView --><svg width="18" height="18" viewBox="0 0 18 18" xmlns="http://www.w3.org/2000/svg"><path fill="#F0F3FA" d="M0 0h18v18H0z"/><circle cx="8.96" cy="8.95" fill="#FFFBE0" r="5.86"/><path fill-rule="evenodd" d="M15 9a5.94 5.94 0 0 1-1.76 4.24A5.91 5.91 0 0 1 9 15a5.94 5.94 0 0 1-4.24-1.76A5.91 5.91 0 0 1 3 9a5.94 5.94 0 0 1 1.76-4.24A5.9 5.9 0 0 1 9 3a5.94 5.94 0 0 1 4.24 1.76A5.91 5.91 0 0 1 15 9ZM4.8 11.49a.2.2 0 0 0-.08.2.2.2 0 0 0 .12.16c.53.24.95.2 1.26-.09.28-.26.44-.67.43-1.21V5.89c.01-.34.18-.61.45-.82a3.4 3.4 0 0 1 1.57-.65 4.57 4.57 0 0 1 1.71.08 6.07 6.07 0 0 1 2.97 1.64 4.6 4.6 0 0 1 1.32 3.38c-.03.6-.16 1.2-.4 1.79-.24.58-.5 1.11-.92 1.6-.23.26-.23.22-.23-.12V7.41c0-.18 0-.34.11-.47.09-.1.07-.18-.05-.24a1.3 1.3 0 0 0-1.11-.07c-.37.15-.48.45-.48.88 0 0 .03 3.23 0 4.84 0 .31-.27.58-.5.8-.2.19-.46.33-.8.42a6.2 6.2 0 0 1-2.21.22 5.2 5.2 0 0 1-2-.57 4.78 4.78 0 0 1-1.58-1.32 5.31 5.31 0 0 1-.95-2c-.2-.82-.16-1.65.12-2.51.26-.83.59-1.56 1.2-2.17a.1.1 0 0 1 .12-.03c.05.02.13.06.13.1v5.61c0 .24-.02.44-.2.59Zm6.22.33c.15-.11.13-.17-.06-.18a1.3 1.3 0 0 1-1.26-.9c-.08-.22-.14-.5-.18-.84-.02-.2-.03-.51-.04-.93a5.02 5.02 0 0 0-.19-1.48c-.32-.77-1.01-1.08-2.08-.92a.54.54 0 0 0-.23.09c-.14.09-.13.15.03.18.44.07.77.26.99.56.2.3.3.66.27 1.1-.04.79-.01 1.5.1 2.12A1.9 1.9 0 0 0 9.35 12c.27.14.54.2.82.17.3-.02.58-.14.84-.35Z" fill="url(#ahepjsiaw)"/><defs><linearGradient id="ahepjsiaw" x1="9" y1="3" x2="9" y2="15" gradientUnits="userSpaceOnUse"><stop stop-color="#B32936"/><stop offset=".5" stop-color="#E05628"/><stop offset="1" stop-color="#AA2832"/></linearGradient></defs></svg>