<!-- by TradingView --><svg width="18" height="18" viewBox="0 0 18 18" xmlns="http://www.w3.org/2000/svg"><path fill="#F0F3FA" d="M0 0h18v18H0z"/><path d="m9.44 3.02.32.63a6.27 6.27 0 0 0-2.71.51c-.94.4-1.63.98-2.09 1.72-.4.66-.57 1.42-.5 2.3.06.8.3 1.54.72 2.24.28.45.66.7 1.16.76.08.58.34 1.07.79 1.46a3.5 3.5 0 0 0 2.44.95c.18 0 .2-.04.03-.13a1.84 1.84 0 0 1-.68-.69.19.19 0 0 1 .14-.07c.17.27.4.49.67.66.15.09.2.21.14.38a.95.95 0 0 1-.35.45c-.42.32-.93.55-1.54.71-.16.03-.39-.01-.68-.1A5.94 5.94 0 0 1 3.1 8.02a6.04 6.04 0 0 1 6.35-5Z" fill="#1074BC"/><path d="M9.5 3.02c.25.3.48.5.7.62l.88.98c.36.44.64.93.83 1.46.23.63.2 1.24-.1 1.83-.26.52-.7.98-1.31 1.39-.64.4-1.16.92-1.57 1.54a5.4 5.4 0 0 0-2.21-1.2c.17-.29.5-.69 1.01-1.19l.4-.4 1.1-1.4c.37-.54.61-1.14.72-1.8l-.02-.69-.13-.38a.43.43 0 0 0-.04-.13l-.32-.63c.08.02.1.01.06 0Z" fill="#F0F3FA"/><path d="M8.52 14.97c.6.03 1.13-.03 1.6-.2a3.25 3.25 0 0 0 2.12-2.33c.52-.37.97-.82 1.34-1.33.31-.42.54-.78.68-1.1.18-.4.27-.8.3-1.23.03-.67-.01-1.24-.13-1.7-.13-.51-.4-.99-.8-1.42a7.97 7.97 0 0 0-1.19-1.08c-.68-.49-1.42-.8-2.24-.94a2.57 2.57 0 0 1-.7-.62 6.01 6.01 0 0 1 4.83 8.79 6.06 6.06 0 0 1-4.03 3.1c-.37.1-.96.11-1.78.06Z" fill="#1074BC"/><path d="m9.76 3.65.04.13c-.67.16-1.31.36-1.93.63-.8.34-1.4.82-1.81 1.46-.45.7-.58 1.47-.39 2.3.13.53.43 1.1.9 1.72-.2.4-.28.83-.24 1.3a1.5 1.5 0 0 1-1.15-.77 4.98 4.98 0 0 1-.72-2.25c-.07-.87.1-1.63.5-2.3a4.38 4.38 0 0 1 2.08-1.7 6.27 6.27 0 0 1 2.72-.52Z" fill="#1780C4"/><path d="M12.23 12.44c.07-.35.07-.67.01-.96-.1-.47-.34-.83-.72-1.09a1.7 1.7 0 0 0-2.06.1c-.48.4-.68.95-.6 1.67l.2.54c-.06 0-.1.03-.14.07-.37-.6-.36-1.25 0-1.93.42-.62.94-1.13 1.58-1.54.01.1-.02.19-.1.27-.04.04-.04.07 0 .1.47.28.97.49 1.5.6.37.08.72-.1 1.03-.55.24-.35.4-.74.48-1.17.28-1.56-.1-2.73-1.15-3.52-.4-.3-.79-.43-1.19-.41l-.87-.98c.81.14 1.56.45 2.24.94.4.3.8.65 1.2 1.08.4.43.66.9.79 1.42.12.46.16 1.03.12 1.7-.02.43-.12.83-.3 1.23a6.21 6.21 0 0 1-2.02 2.43ZM9.8 3.78l.13.38c-1.01.02-1.8.32-2.39.9-.63.66-.78 1.47-.43 2.44.15.43.49.61 1.01.55-.08.1-.21.23-.39.4-.5.5-.84.9-1.01 1.2l-.15.24a4.64 4.64 0 0 1-.9-1.73c-.19-.82-.06-1.59.39-2.29a3.88 3.88 0 0 1 1.8-1.46c.63-.27 1.27-.47 1.94-.63Z" fill="#1C8DCC"/><path d="m9.93 4.16.02.7c-.37 0-.68.07-.92.2-.23.13-.4.33-.52.6-.12.3-.12.55 0 .78.12.23.36.3.71.22l-1.1 1.4c-.52.05-.86-.13-1.01-.56-.35-.97-.2-1.78.43-2.43.58-.6 1.38-.9 2.39-.9Z" fill="#2D9DD2"/><path d="M10.5 9.3a3.7 3.7 0 0 0 1.3-1.39c.3-.59.34-1.2.11-1.83a4.81 4.81 0 0 0-.83-1.46c.4-.02.79.12 1.18.41 1.05.79 1.43 1.96 1.15 3.52-.08.43-.24.82-.48 1.17-.31.45-.66.63-1.03.55a4.6 4.6 0 0 1-1.5-.6c-.03-.03-.04-.06 0-.1.08-.08.11-.17.1-.27ZM9.95 4.86c-.1.65-.35 1.25-.73 1.8-.35.09-.6.01-.72-.22-.11-.23-.11-.49 0-.77.12-.28.3-.48.53-.6.24-.14.55-.2.92-.21Z" fill="#3DA8D7"/><path d="M8.93 10.84c-.37.68-.38 1.33-.01 1.93.2.32.42.55.68.69.16.09.15.13-.03.13a3.5 3.5 0 0 1-2.44-.95c-.45-.4-.71-.88-.8-1.46a2.4 2.4 0 0 1 .24-1.29l.14-.24a5.4 5.4 0 0 1 2.22 1.19Z" fill="url(#a)"/><path d="M12.24 11.48c.06.3.06.61 0 .96a3.25 3.25 0 0 1-2.11 2.32c-.48.18-1.01.24-1.61.2-.15.04-.33.02-.54-.06.6-.16 1.12-.4 1.54-.7.18-.14.3-.3.36-.46.05-.17 0-.3-.14-.38-.28-.17-.5-.4-.68-.66l-.2-.54c.23-.41.52-.6.9-.58.55.04.98.06 1.27.05.41 0 .82-.06 1.21-.15Z" fill="url(#b)"/><defs><linearGradient id="a" x1="9.21" y1="11.11" x2="8.02" y2="13.59" gradientUnits="userSpaceOnUse"><stop stop-color="#F0F3FA"/><stop offset="1" stop-color="#7A7B7B"/></linearGradient><linearGradient id="b" x1="10.13" y1="11.48" x2="10.13" y2="14.98" gradientUnits="userSpaceOnUse"><stop stop-color="#F0F3FA"/><stop offset="1" stop-color="#7A7B7B"/></linearGradient></defs></svg>