<!-- by TradingView --><svg width="18" height="18" viewBox="0 0 18 18" xmlns="http://www.w3.org/2000/svg"><path fill="#F0F3FA" d="M0 0h18v18H0z"/><path d="M9.94 9.71c.14.37.37.65.67.86a1.72 1.72 0 0 0 1.96 0 2 2 0 0 0 .62-.74c.13-.27.2-.55.19-.86a1.99 1.99 0 0 0-.76-1.5c-.24-.18-.5-.3-.8-.32a1.7 1.7 0 0 0-1.34.4 1.8 1.8 0 0 0-.66 1.4 3.33 3.33 0 0 1-.48 1.85c-.22.35-.48.66-.81.93a3.2 3.2 0 0 1-2.13.77 3.31 3.31 0 0 1-2.6-1.22A3.34 3.34 0 0 1 3 9.27a3.46 3.46 0 0 1 1.08-2.8 3.16 3.16 0 0 1 2.45-.96c.93.04 1.7.4 2.35 1.1.02.01.02.03 0 .05-.4.49-.66 1.03-.77 1.63-.01.05-.03.05-.05 0a1.9 1.9 0 0 0-.66-.85c-.3-.22-.65-.32-1.03-.3-.5.01-.93.22-1.27.61-.36.4-.51.88-.46 1.43.05.57.31 1.03.78 1.38.3.23.64.33 1.03.32.4 0 .74-.13 1.02-.37.48-.4.72-.9.73-1.5l.01-.45c.06-.38.14-.7.26-.95.34-.74.84-1.3 1.5-1.7a3.1 3.1 0 0 1 1.94-.4c.8.09 1.47.41 2.04.98a3.48 3.48 0 0 1 .43 4.5c-.32.47-.73.84-1.22 1.12-.32.18-.67.3-1.06.35a3.32 3.32 0 0 1-2.99-1.04v-.06c.43-.5.69-1.05.78-1.64.01-.06.03-.06.05 0Z" fill="#1E1E1E"/></svg>