<!-- by TradingView --><svg width="18" height="18" viewBox="0 0 18 18" xmlns="http://www.w3.org/2000/svg"><path fill="#F0F3FA" d="M0 0h18v18H0z"/><path d="M9.27 5C7.38 5 5.64 6.41 5 7.12a8.6 8.6 0 0 1 3.96-1.3c.91-.02 1.6.16 1.96.35a5.7 5.7 0 0 0-1.3 2.74 2.71 2.71 0 0 1 1.5-.1c-1.5 1.2-2.28 3.96-2.48 5.19C10 10.43 12.11 8.84 13 8.49c-.7-.42-1.93-.4-2.45-.33a5.24 5.24 0 0 1 2.09-1.93A4.63 4.63 0 0 0 9.27 5Z" fill="#D7000F"/><path d="m7.56 14.84-.47-.14c.36-1.05.5-2.84.5-4.71 0-1.88-.76-1.9-1-1.9-.2 0-.6 0-.77.02a3 3 0 0 1 1.3-.31c1 0 1.37.8 1.37 2.04 0 2.55-.62 4.5-.93 5Z" fill="#D7000F"/><path d="M7.15 14.71A6 6 0 1 1 14.2 12H13a5 5 0 1 0-5.43 1.8l-.42.91Z" fill="#D7000F"/><path d="M13.73 14.53v-.84h.1l.36-.69h.79l-.79 1.06h-.2l-.26.47ZM13 15v-2.63h.8V15H13Zm1.2 0-.34-.78.35-.5L15 15h-.8ZM11.8 13.89V15H11v-2h.8v.4c.09-.26.24-.4.5-.4.42 0 .7.34.7.74V15h-.8v-1.11c0-.2-.02-.31-.2-.31-.18 0-.2.14-.2.3ZM9.68 15c-.36 0-.68-.18-.68-.57 0-.43.39-.59.77-.61.35-.03.43-.07.43-.18 0-.1-.04-.16-.17-.16-.14 0-.24.06-.26.18h-.69c.04-.48.54-.66.96-.66.38 0 .96.16.96.64V15h-.8v-.3c-.13.22-.28.3-.52.3Zm.24-.44c.17 0 .28-.1.28-.28v-.16l-.16.06-.08.01c-.12.02-.25.07-.25.2 0 .11.09.17.21.17Z" fill="#D7000F"/></svg>