<!-- by TradingView --><svg width="18" height="18" viewBox="0 0 18 18" xmlns="http://www.w3.org/2000/svg"><path fill="#F0F3FA" d="M0 0h18v18H0z"/><path d="M6.04 8.01c0 1.41 2.51 1.75 2.55 1.76-.32.2-1.3.42-2.6-.28-1.31-.7-1-1.97-.67-2.53L6.8 5.38c.3.17.89.52.89.56-.55.2-1.65.9-1.65 2.07Z" fill="url(#a)"/><path d="M7.86 5.8a3.9 3.9 0 0 0-1.72 1.67l.98.71c.08-.21.34-.7.74-1.01.4-.3 2.56-1.13 3.59-1.5l-.71-.75c-.55.08-1.88.37-2.88.88Z" fill="url(#b)"/><path d="M11.98 10.13c0-1.4-2.5-1.74-2.55-1.75.32-.2 1.3-.42 2.6.28 1.32.7 1 1.97.67 2.52l-1.48 1.59c-.3-.17-.88-.52-.88-.57.55-.2 1.64-.9 1.64-2.07Z" fill="url(#c)"/><path d="M10.17 12.35a3.9 3.9 0 0 0 1.71-1.67l-.98-.72c-.08.22-.34.71-.73 1.02-.4.3-2.56 1.13-3.6 1.5l.72.74c.54-.08 1.88-.36 2.88-.87Z" fill="url(#d)"/><path d="M4.38 8a1.5 1.5 0 0 0 0 2l2.27 2.46c2.65-.4 4.4-1.83 4.4-2.73 0-.76-1.2-1.28-1.81-1.45 1.62.03 3.55.63 3.55 1.82 0 .34-.04.65-.15.95l.98-1.05c.5-.55.5-1.45 0-2l-2.2-2.38c-2.7.37-4.5 1.83-4.5 2.74 0 .76 1.21 1.28 1.82 1.45-1.62-.03-3.55-.63-3.55-1.82 0-.38.05-.73.18-1.06L4.38 8ZM6.7 5.5a12.5 12.5 0 0 1 3.24-1.48L9 3 6.7 5.5Zm4.43 7.2-.84.47c-.94.47-1.66.74-2.16.88L9 15l2.13-2.3ZM7.2 8.37c0-.67.5-.86.5-.86-.38.77.85 1.14 1.48 1.19.62.05 1.57.5 1.57 1.06 0 .45-.33.8-.5.93.25-.88-.6-1.14-1.32-1.26-.72-.13-1.73-.4-1.73-1.06Z" fill="#D0111B"/><path d="M7.66 7.53v.02c-.11.37.04.65.34.91.31.27.94.4 1.9.83.94.43.42 1.36.38 1.36.25-.76-.76-1.33-1.09-1.42-.32-.08-1.62-.5-1.73-.86-.1-.32.15-.72.2-.82v-.02Z" fill="url(#e)"/><defs><linearGradient id="a" x1="5.6" y1="7.67" x2="6.97" y2="9.87" gradientUnits="userSpaceOnUse"><stop stop-color="#E8E9E8" stop-opacity="0"/><stop offset="1" stop-color="#C7BCBC"/></linearGradient><linearGradient id="b" x1="11.45" y1="5.56" x2="7.22" y2="8.27" gradientUnits="userSpaceOnUse"><stop stop-color="#F2F2F0" stop-opacity="0"/><stop offset=".61" stop-color="#9E9F9F"/><stop offset="1" stop-color="#F2F2F1" stop-opacity="0"/></linearGradient><linearGradient id="c" x1="12.42" y1="10.47" x2="11.06" y2="8.27" gradientUnits="userSpaceOnUse"><stop stop-color="#E8E9E8" stop-opacity="0"/><stop offset="1" stop-color="#C7BCBC"/></linearGradient><linearGradient id="d" x1="6.58" y1="12.58" x2="10.8" y2="9.87" gradientUnits="userSpaceOnUse"><stop stop-color="#F2F2F0" stop-opacity="0"/><stop offset=".61" stop-color="#9E9F9F"/><stop offset="1" stop-color="#F2F2F1" stop-opacity="0"/></linearGradient><linearGradient id="e" x1="7.33" y1="8" x2="10.53" y2="10.08" gradientUnits="userSpaceOnUse"><stop stop-color="#BEC8C7"/><stop offset=".48" stop-color="#E5E5E5"/><stop offset="1" stop-color="#D1D2D2"/></linearGradient></defs></svg>