<!-- by TradingView --><svg width="18" height="18" viewBox="0 0 18 18" xmlns="http://www.w3.org/2000/svg"><path fill="#F0F3FA" d="M0 0h18v18H0z"/><path d="M8 8H4l2 4h4L8 8Z" fill="url(#a)"/><path d="M10.15 12H6l9-7-4.85 7Z" fill="url(#b)"/><path d="m6 12 2.88-2.24L10 12H6Z" fill="#E60012"/><path d="M11.53 7.3 8.98 9.33l-.78-1.7h-.76A2.03 2.03 0 0 1 9.5 5.67c1.01 0 1.85.7 2.03 1.63Z" fill="url(#c)"/><defs><linearGradient id="a" x1="6.33" y1="7.83" x2="8.83" y2="12" gradientUnits="userSpaceOnUse"><stop stop-color="#E60013"/><stop offset=".54" stop-color="#E85239"/><stop offset="1" stop-color="#E94D39"/></linearGradient><linearGradient id="b" x1="13.96" y1="5.83" x2="10.67" y2="11.68" gradientUnits="userSpaceOnUse"><stop stop-color="#E60013"/><stop offset=".77" stop-color="#E8422C"/><stop offset="1" stop-color="#EA5F44"/></linearGradient><linearGradient id="c" x1="9.5" y1="5.67" x2="9.5" y2="9.86" gradientUnits="userSpaceOnUse"><stop stop-color="#E53A14"/><stop offset=".47" stop-color="#F6D964"/><stop offset=".77" stop-color="#E8802A"/></linearGradient></defs></svg>