<!-- by TradingView --><svg width="18" height="18" viewBox="0 0 18 18" xmlns="http://www.w3.org/2000/svg"><path fill="#F0F3FA" d="M0 0h18v18H0z"/><path d="M13.36 11.46a5 5 0 1 0-8.71 0l.22-.17C6.15 10.3 8.07 8.84 8.5 6H8l1-2 1 2h-.5c.2 1.28 1.7 3.55 3.86 5.46Zm-.2.32-.35-.09C11.37 11.31 10.19 11 9 11s-2.37.31-3.8.7l-.35.08a5 5 0 0 0 8.3 0Z" fill="url(#a)"/><defs><linearGradient id="a" x1="9" y1="4" x2="9" y2="14" gradientUnits="userSpaceOnUse"><stop stop-color="#F5E06B"/><stop offset=".35" stop-color="#A2CA24"/><stop offset=".64" stop-color="#00A06B"/><stop offset="1" stop-color="#0095BE"/></linearGradient></defs></svg>