<!-- by TradingView --><svg width="18" height="18" viewBox="0 0 18 18" xmlns="http://www.w3.org/2000/svg"><path fill="#F0F3FA" d="M0 0h18v18H0z"/><path fill-rule="evenodd" d="M13.45 9.2a2.54 2.54 0 0 0 0-2.6 3.56 3.56 0 0 0-1.04-1.1 5.2 5.2 0 0 0-1.55-.74 6.49 6.49 0 0 0-5.23.74c-.45.31-.8.68-1.04 1.1a2.54 2.54 0 0 0 0 2.6c.24.41.6.78 1.04 1.1.45.32.97.56 1.56.74a6.49 6.49 0 0 0 5.22-.74c.45-.32.8-.69 1.04-1.1ZM9.54 4.8c0 .21.04.41.13.61l.97-.22c.06-.01.06-.03 0-.07a2.94 2.94 0 0 0-3.25.01c-.05.03-.05.06.01.07l1.02.22.13-.03c.02 0 .02 0 .02.03-.15.47-.1.93.14 1.38l.38.63c.1.16.13.34.1.55a.92.92 0 0 1-.83.85.97.97 0 0 1-.7-.19 1.12 1.12 0 0 1-.43-.68H5.97c-.02 0-.03 0-.03.03.04.56.17 1.06.41 1.51 0 .02.02.02.04.02a9.21 9.21 0 0 1 1.38-.33l-.4-.56c-.05-.07-.04-.1.02-.07.03 0 .07.05.13.11a8.72 8.72 0 0 1 .29.3c.06.06.13.1.21.12.17.04.37.08.59.11.07.01.14.03.22.07.09.05.14.1.14.16v.76c0 .04-.01.07-.05.08l-.4.11-.05-.01a.15.15 0 0 0-.14-.05 5.93 5.93 0 0 0-.98.3l.01.03a2.92 2.92 0 0 0 3.34-.03l-.01-.02c-.3-.12-.62-.22-.94-.28-.09-.02-.16 0-.2.05a.04.04 0 0 1-.04.01l-.4-.1c-.05-.01-.07-.05-.07-.1l.02-.68c0-.16.1-.25.31-.28l.08-.01c.2-.03.36-.06.46-.09.17-.04.29-.1.35-.18a6.23 6.23 0 0 1 .41-.4h.02c.01 0 .02.01 0 .03l-.4.58-.01.02a7.97 7.97 0 0 1 1.37.33c.02 0 .04 0 .05-.02.25-.46.38-.96.39-1.5 0-.01 0-.02-.02-.02h-1.18a2.4 2.4 0 0 0-.1.2c-.14.27-.37.49-.7.64-.26.12-.56.2-.91.23-.07 0-.08-.01-.03-.05.25-.2.4-.46.47-.78a.25.25 0 0 0 0-.13C9.59 8 9.55 7.98 9.5 8l-.23.05c-.01 0-.03 0-.04-.02A.05.05 0 0 1 9.22 8c.02-.15 0-.3-.06-.44-.03-.1-.1-.23-.22-.4a.08.08 0 0 1-.01-.05c0-.08.05-.14.14-.18a.52.52 0 0 1 .22-.03l.02-.01v-.02c-.19-.24-.3-.45-.36-.66-.06-.24-.03-.49.09-.74.1-.25.25-.48.41-.69.06-.07.09-.06.09.04ZM7.7 4.77l-.77.2c-.05.02-.05.04 0 .06l.18.1c.03 0 .06 0 .09-.02a3.78 3.78 0 0 1 .53-.33c0-.01-.01-.02-.03-.01Zm3.38.2c.04.02.04.03 0 .05l-.18.1a.08.08 0 0 1-.1-.01 3.75 3.75 0 0 0-.5-.33c0-.01 0-.02.02-.02l.76.22Zm-5.82 1a19.21 19.21 0 0 0 .91.32h.04c.21-.4.48-.74.8-1.02.02-.02.01-.03 0-.04l-.28-.14a5.22 5.22 0 0 0-1.46.9Zm7.46 0c-.28.11-.58.22-.88.31l-.04-.01a3.4 3.4 0 0 0-.79-1c-.02-.02-.02-.03 0-.05l.28-.13a5.18 5.18 0 0 1 1.45.88h-.02Zm-2.73 0 .6.62 1.06-.25c.03 0 .04-.02.02-.05a3.5 3.5 0 0 0-.83-1 5.1 5.1 0 0 1-1.14.25c.1.18.19.32.29.42ZM8.3 5.52c-.36.31-.64.67-.85 1.07l-1.1-.25c-.02 0-.03-.02-.02-.04.23-.42.5-.75.85-1.02a5.85 5.85 0 0 0 1.13.24Zm4.52.54-.92.34c-.01 0-.02.01-.01.03.2.43.3.89.3 1.37 0 .01.01.02.03.02h1.43c.02 0 .03 0 .03-.04a2.66 2.66 0 0 0-.8-1.7c-.01-.02-.04-.03-.06-.02Zm-6.7.35v.03c-.19.43-.29.88-.3 1.36 0 .02 0 .03-.03.03H4.38c-.03 0-.04-.02-.04-.04.06-.66.32-1.23.8-1.7.02-.03.04-.03.07-.02l.91.34ZM7.2 7.84c-.01-.38.05-.75.2-1.11l-1.09-.26c-.03-.01-.05 0-.07.03-.18.45-.28.88-.3 1.3 0 .02.02.04.05.04H7.2Zm3.71 0v-.02c.1-.4.03-.78-.22-1.13l1.03-.24c.03 0 .05 0 .06.03.19.42.3.85.31 1.31 0 .03-.01.05-.04.05H10.9Zm-4.68 1.7a3.5 3.5 0 0 1-.4-1.55c0-.02 0-.03-.02-.03H4.38c-.02 0-.03.01-.03.03.03.7.35 1.34.96 1.89h.04l.87-.31c.01 0 .02-.02 0-.03Zm5.59-.01c.25-.47.38-.99.4-1.54 0-.02 0-.03.02-.03h1.42c.02 0 .03.01.03.03-.03.7-.35 1.33-.96 1.88a.03.03 0 0 1-.04 0l-.86-.31c-.02 0-.02-.02-.01-.03Zm-2.25.61v.01c.46.08.87.2 1.24.36l.05-.01c.29-.23.53-.51.74-.84.02-.02.01-.03 0-.04-.4-.12-.8-.21-1.2-.28l-.06-.01c-.14-.03-.25-.02-.32.03l-.41.25a.14.14 0 0 0-.06.13l.02.4Zm-1.12.02c-.45.07-.85.2-1.21.35h-.06c-.28-.23-.53-.51-.73-.84-.02-.02-.01-.03 0-.04.4-.11.78-.2 1.19-.27l.06-.01c.14-.03.24-.02.31.02.2.12.34.2.41.26.05.03.07.07.06.12l-.02.4v.01Zm4.12-.17-.02-.01a16.88 16.88 0 0 0-.81-.3c-.2.35-.44.64-.74.87-.02.02-.02.03 0 .04l.25.14h.05a4.62 4.62 0 0 0 1.27-.74Zm-7.07 0a17.25 17.25 0 0 1 .81-.3c.2.35.45.64.74.87.02.02.02.03 0 .04l-.24.13A4.61 4.61 0 0 1 5.49 10h.01Zm4.84 1.05.74-.21c.04-.02.04-.03 0-.05l-.17-.09a.08.08 0 0 0-.1.01 3.6 3.6 0 0 1-.49.32l.02.02Zm-3.36-.2c-.04-.02-.04-.03 0-.05l.17-.09a.08.08 0 0 1 .09.01 3.55 3.55 0 0 0 .49.3c0 .02 0 .03-.02.03l-.73-.2Z" fill="#171578"/><path d="M9.67 5.41c0 .06.03.1.05.12.09.18.18.32.28.42a173.04 173.04 0 0 0 .7.74c.24.35.31.72.2 1.13v.01c.01.02.01.02.01 0-.05.06-.05.1-.02.13a2.4 2.4 0 0 0-.1.2c-.14.27-.37.49-.7.64-.26.12-.56.2-.91.23-.07 0-.08-.01-.02-.05.24-.2.4-.46.46-.78a.25.25 0 0 0 0-.13C9.6 8 9.55 7.98 9.5 8l-.23.05c-.01 0-.03 0-.04-.02A.05.05 0 0 1 9.22 8c.02-.15 0-.3-.06-.44-.03-.1-.1-.23-.22-.4a.08.08 0 0 1-.01-.05c0-.08.05-.14.14-.18a.52.52 0 0 1 .22-.03l.02-.01v-.02c-.19-.24-.3-.46-.36-.66-.06-.24-.03-.49.09-.74.1-.25.25-.48.41-.69.06-.07.09-.06.09.04 0 .2.04.4.13.6Z" fill="#E52328"/><path d="M7.23 7.96c.02-.02.01-.06-.02-.12-.02-.38.04-.75.2-1.11.05-.03.07-.08.06-.13.2-.4.48-.76.84-1.07.08-.02.11-.06.1-.11l.14-.03c.02 0 .02 0 .02.03-.15.47-.1.93.14 1.38l.38.63c.1.16.13.34.11.55a.92.92 0 0 1-.84.85.97.97 0 0 1-.7-.19 1.12 1.12 0 0 1-.43-.68ZM6.54 12.6c.15.08.29.11.4.09l.04.01c.05.06.17.1.37.11.02 0 .03 0 .04-.02a.07.07 0 0 0 .01-.07c-.05-.14-.08-.3-.07-.48a.7.7 0 0 1 .09-.26v-.05l-.02-.02-.25-.08c-.02 0-.03 0-.05.02a.06.06 0 0 0 0 .05l.02.15c.01.03 0 .04-.02.04a.27.27 0 0 1-.15-.04c-.03-.01-.03-.03-.01-.06l.05-.1a.07.07 0 0 0 .01-.04.06.06 0 0 0-.03-.05.44.44 0 0 0-.26-.07c-.02 0-.03.02-.04.03v.06c.04.08.04.18 0 .32a.84.84 0 0 1-.15.3.1.1 0 0 0-.02.09c0 .03.02.05.04.06Zm.44.03c-.04 0-.07-.1-.06-.21 0-.12.04-.2.08-.2s.06.1.06.2c-.01.12-.05.22-.08.21Zm3.9 0c.07.1.15.15.26.15.1 0 .18-.05.25-.14.07-.1.11-.21.11-.35a.56.56 0 0 0-.1-.34c-.08-.1-.16-.15-.26-.15s-.19.05-.26.15c-.07.1-.1.2-.1.34s.03.25.1.35Zm.3-.3c-.04.03-.11-.03-.15-.13-.04-.1-.03-.2.01-.23.05-.03.12.03.16.13.04.1.04.2-.01.23Zm-3.2.2c-.05.02-.1 0-.17-.04a.07.07 0 0 1-.03-.05.46.46 0 0 1 .07-.35.06.06 0 0 0 .01-.06c0-.02-.01-.03-.03-.03l-.25-.08c-.02 0-.04 0-.05.02a.07.07 0 0 0-.01.06c.04.13.04.28.01.44-.03.17 0 .3.08.39.04.04.1.06.18.08.08.02.15.02.2.01.08-.01.15-.07.2-.18a.61.61 0 0 0 .04-.26.8.8 0 0 1 .09-.38c0-.03 0-.04-.02-.06-.05-.03-.13-.04-.24-.03-.04.01-.05.04-.04.08.03.1.05.19.05.28 0 .1-.03.15-.09.17Zm2.62-.12c-.1.09-.18.1-.22.04-.05-.08-.05-.16 0-.24.04-.1.12-.1.21 0 .02.02.03.03.05.02.02 0 .03-.02.03-.04a.37.37 0 0 0 .02-.17c0-.02-.01-.03-.03-.04-.27-.1-.45-.01-.55.24a.6.6 0 0 0-.05.32c.01.09.05.17.11.23s.13.1.2.1c.1.02.18 0 .26-.05.1-.05.13-.14.1-.27l-.01-.09c-.02-.08-.06-.1-.12-.05Zm-1.77 0a.28.28 0 0 0-.03.1c0 .03 0 .04-.02.04-.1 0-.16-.05-.2-.14a.09.09 0 0 1-.01-.07c.03-.08.07-.13.13-.14.02 0 .04 0 .06.02l.1.1h.03c.07-.05.1-.12.07-.22 0-.04-.02-.05-.05-.05h-.15a.34.34 0 0 0-.26.04.42.42 0 0 0-.17.25c-.03.1-.04.2-.02.3.01.1.05.17.1.24.11.15.26.18.44.08l.17-.12c.03-.02.04-.05.03-.1l-.03-.14c0-.03 0-.05.02-.06a.2.2 0 0 0 .04-.11c0-.03 0-.04-.03-.04h-.19c-.01 0-.02 0-.03.03Zm.6.33.06.1c.02.03.02.05.01.08 0 .03-.02.04-.04.05a.5.5 0 0 1-.32.01c-.02 0-.04-.03-.04-.06s0-.05.02-.07a.8.8 0 0 0 .2-.33c.04-.16.04-.29-.02-.38v-.04c0-.02 0-.03.02-.03h.03c.1-.03.18-.04.23-.04.09.01.15.06.18.15l.03.1c.08.22.15.39.24.5.02.01.02.04.02.06 0 .03-.02.05-.04.06a.58.58 0 0 1-.35.07.07.07 0 0 1-.05-.04.1.1 0 0 1-.01-.07l.04-.21-.01-.05c-.05-.06-.1-.07-.16-.04a.11.11 0 0 0-.06.08c0 .04 0 .07.02.1Zm.1-.34c.03 0 .06-.03.06-.07a.06.06 0 0 0-.07-.06.07.07 0 0 0-.06.07c0 .04.03.06.07.06Z" fill="#E52328"/><path fill-rule="evenodd" d="M6.02 12.94c1.07.31 2.06.46 2.98.46.92 0 1.91-.15 2.98-.46.02 0 .03 0 .03.02v.38l.01.05c.12.15.38.14.79-.04a22 22 0 0 0 1.18-.58v-.04a2.84 2.84 0 0 1-.26-.26.71.71 0 0 0-.36-.22c-.04-.01-.06-.03-.05-.07a.88.88 0 0 1 .11-.34c.09-.15.15-.31.19-.49l-.01-.02h-.03l-1.04.52h-.02l-.14-.65a.11.11 0 0 0-.06-.08.1.1 0 0 0-.09 0 10.5 10.5 0 0 1-3.23.61c-.91 0-2-.2-3.23-.61a.1.1 0 0 0-.1 0 .11.11 0 0 0-.05.08l-.14.65h-.02l-1.05-.52H4.4v.03c.03.17.09.33.18.49.06.11.1.22.11.33 0 .04-.01.06-.05.07a.71.71 0 0 0-.36.23c-.08.09-.17.18-.26.25v.04c.44.23.83.42 1.18.58.41.18.67.2.79.04a.08.08 0 0 0 .01-.04v-.38c0-.02.01-.03.03-.03Zm-.57-.3c1.28.42 2.47.63 3.55.63a11.38 11.38 0 0 0 3.56-.67l-.3-1.33c0-.02-.02-.02-.03-.02-1.2.41-2.28.62-3.23.62-.95 0-2.03-.2-3.23-.61-.02-.01-.03 0-.04.02l-.3 1.33c0 .01 0 .02.02.03Zm-.7-.69a.7.7 0 0 1 .04.33c0 .04-.02.06-.04.07l-.1.03a.57.57 0 0 0-.2.1l-.21.22c-.02.01-.02.03 0 .04l.06.03c.88.47 1.39.66 1.54.59a.06.06 0 0 0 .04-.06.06.06 0 0 0-.04-.06L5.42 13c-.12-.08-.16-.18-.14-.3a34.53 34.53 0 0 1 .15-.7l-.8-.4c-.05-.02-.07-.01-.04.03l.02.04.15.29Zm8.46.33c0 .03.02.05.04.06l.1.04c.1.03.17.06.2.1l.21.21c.02.02.01.03 0 .04l-.07.03c-.86.47-1.37.67-1.52.59a.06.06 0 0 1-.04-.06c0-.02.01-.04.04-.05l.42-.26c.11-.08.15-.17.13-.3a32.55 32.55 0 0 0-.15-.7l.8-.39c.05-.02.06-.01.04.03l-.03.04-.14.29a.7.7 0 0 0-.03.33Zm-7.33.7c0-.04 0-.07-.05-.08l-.4-.14H5.4v.03l.03.05.03.02.36.22c.03.03.05.01.06-.03v-.07Zm6.3-.09.4-.13.02.01v.03l-.03.04-.03.02-.35.21c-.04.03-.06.01-.06-.03v-.06c-.01-.05 0-.08.05-.09Z" fill="#171578"/></svg>