<!-- by TradingView --><svg width="18" height="18" viewBox="0 0 18 18" xmlns="http://www.w3.org/2000/svg"><path fill="#F0F3FA" d="M0 0h18v18H0z"/><path d="M12 4h1.54L15 8h-1.54L12 4ZM11 14H9.41L8 10.5h1.59L11 14ZM11.47 14h1.6L15 8.64h-1.6L11.48 14ZM8.7 14H7.16L5 8.64h1.55L8.71 14Z" fill="#074097"/><path d="M9 4H7.59L5.12 9.57h1.4L9 4ZM11.47 4h-1.5L7.58 9.36h1.5L11.47 4Z" fill="#074097"/><path d="M5.05 4h1.48L4.48 9l2.05 5H5.05L3 9l2.05-5Z" fill="#074097"/><path fill="#074097" d="M3.71 8.64H14.3v1.07H3.71z"/></svg>