<!-- by TradingView --><svg xmlns="http://www.w3.org/2000/svg" width="18" height="18" viewBox="0 0 18 18"><path fill="#005B66" d="M0 0h18v18H0z"/><path d="M12.28 11.6a3.88 3.88 0 0 0 .96-3.1c.48 1.62.23 3.29-.8 4.4-1.66 1.73-4.64 1.39-6.68-.76-2.04-2.16-2.35-5.3-.7-7.04 1.03-1.09 2.6-1.35 4.14-.86-1.1-.14-2.16.2-2.94 1.01-1.46 1.55-1.3 4.2.37 5.96 1.67 1.76 4.19 1.93 5.65.4Zm-.17-6.56c.17-.11.43-.21.6-.16-.56-.57-1.31-1.05-2.05-.57l-3.4 2.42c-.16.12-.43.22-.6.17.57.56 1.32 1.04 2.05.56l3.4-2.42Zm2.3 2.4c.16-.12.42-.22.59-.17-.56-.56-1.3-1.04-2.04-.56L9.54 9.13c-.16.11-.42.21-.59.16.56.57 1.3 1.04 2.04.57l3.42-2.42Z" fill="#fff"/></svg>