<!-- by TradingView --><svg width="18" height="18" viewBox="0 0 18 18" xmlns="http://www.w3.org/2000/svg"><path fill="#F0F3FA" d="M0 0h18v18H0z"/><path d="m6.8 4.46-.02.01v.01c-.03.13-.1.21-.22.24a.88.88 0 0 1-.37.03c-.34-.06-.12-.43-.14-.66l.01-.33c.04-.55.32-.7.73-.75.32-.05.57.07.77.36.04.06.06.13.07.22v.25l-.16.73c-.03.2-.14.33-.22.49a.32.32 0 0 0-.02.25l.12.34.05.07c.06.04.14.09.17.17.04.13.05.24 0 .35-.07.18-.1.28-.1.31 0 .03.02.05.05.05.06 0 .13 0 .18.02.14.05.19.35.34.37.08 0 .16 0 .23-.03.06-.03.13-.06.2-.11.12-.07.16-.03.12.12a13.37 13.37 0 0 0-.33 1.4c-.12.92-.14 1.85-.06 2.8.01.14.04.31.08.5.1.37.17.64.5.73.02 0 .05.02.07.05.02.02.03.05.03.09L9 13.87c0 .04 0 .07-.04.08a.48.48 0 0 1-.26.05c-.17-.01-.31-.04-.45-.08-.02 0-.04-.02-.04-.05a.33.33 0 0 1 .01-.26c.04-.07.13-.1.18-.17a.1.1 0 0 0 0-.07 14.24 14.24 0 0 1-.36-4.06 8.18 8.18 0 0 1 .14-1.13.12.12 0 0 0-.02-.05.1.1 0 0 0-.04-.03h-.05c-.13.03-.22.03-.35-.06a6.95 6.95 0 0 0-.36-.23l-.01.01-.02.02v.03l.06.6c.05 1.3.13 2.98.24 5.05 0 .05-.02.09-.06.1l-.05.03a.05.05 0 0 1-.05 0l-.02-.03-.01-.03a356.1 356.1 0 0 0-.16-3.52l-.1-1.93c-.01-.1-.02-.34 0-.48a.51.51 0 0 0-.06-.27c-.13-.27-.28-.44-.29-.78a20.91 20.91 0 0 1 .03-1.17L7 5.26a.2.2 0 0 0 .01-.22c-.11-.16-.18-.35-.2-.56l-.01-.02ZM9.32 4.45c.17-.3.44-.55.77-.4.25.1.43.23.56.38.25.28.3.6.18.97-.04.13-.06.22-.04.26.03.1.06.2.1.27.02.03.02.06.02.1l-.05.08c-.13.1-.27.24-.4.43-.06.09-.17.15-.32.17a.97.97 0 0 1-1.12-1.07l.04-.32-.01-.09c-.05-.09-.2-.14-.25-.25-.1-.2-.1-.39.02-.56.02-.03.04-.03.07-.01.14.1.27.12.37.09.03 0 .05-.03.06-.05ZM10.34 7.33c-.17.29-.3.7-.46 1.13-.05.14-.15.2-.29.17l-.66-.1a.23.23 0 0 1-.16-.1.25.25 0 0 1-.03-.2l.29-1.11a.16.16 0 0 1 .07-.1.15.15 0 0 1 .11-.01 3.07 3.07 0 0 0 1.11.15c.01.01.03.02.03.04.02.04.02.09-.01.13ZM10.5 9.95c0 .21-.06.39-.21.52a.07.07 0 0 0-.03.05v.45c0 .02-.01.03-.03.03h-.04c-.03 0-.05-.01-.05-.04 0-.16 0-.38-.05-.57a5.33 5.33 0 0 1-.06-1.34l.04-.02c.2 0 .3.08.3.24 0 .12.07.14.2.07l.17-.1c.12-.05.16-.14.13-.26-.03-.1 0-.24.07-.4.03-.08 0-.14-.08-.2-.1-.04-.18-.02-.23.05a.76.76 0 0 0-.13.34c0 .1-.07.12-.17.09l-.13-.04c-.11-.04-.16-.11-.15-.21.08-.53.27-1.05.57-1.56a.1.1 0 0 1 .05-.04c.02-.01.04-.01.07 0 .1.02.2.07.3.14.33.23.55.53.67.88.06.2.2.34.26.5.1.23-.1.55-.15.7-.17.48-.68.64-1.24.66-.02 0-.04 0-.05.02a.06.06 0 0 0-.02.04ZM10.8 14.96c-.32.1-.75.01-1.02-.24a.63.63 0 0 1-.16-.38 55.17 55.17 0 0 0-.34-2.06c0-.02 0-.04.02-.06a.14.14 0 0 1 .04-.04.11.11 0 0 1 .06-.02c.3 0 .55-.14.76-.41l.02-.02h.03l.02.02v.03c.04.59.13 1.28.29 2.06.06.34.15.4.32.67.08.13.09.26.03.4a.1.1 0 0 1-.06.05Z" fill="#1E1715"/></svg>