<!-- by TradingView --><svg width="18" height="18" viewBox="0 0 18 18" xmlns="http://www.w3.org/2000/svg"><path fill="#F0F3FA" d="M0 0h18v18H0z"/><path d="M8.5 5.43a4.06 4.06 0 1 1 0 8.13 4.06 4.06 0 0 1 0-8.13Zm0-.43a4.5 4.5 0 1 0 0 9 4.5 4.5 0 0 0 0-9Z" fill="#D00A43"/><path d="M11.78 5a2.2 2.2 0 0 0-2.06 1.39 2.28 2.28 0 0 0 .49 2.45A2.21 2.21 0 0 0 14 7.25c0-.6-.23-1.17-.65-1.6A2.2 2.2 0 0 0 11.78 5Zm0 4.16a1.87 1.87 0 0 1-1.74-1.18 1.93 1.93 0 0 1 .4-2.08 1.88 1.88 0 0 1 3.22 1.35c0 .5-.2.99-.55 1.35-.35.36-.83.56-1.33.56Z"/></svg>