<!-- by TradingView --><svg width="18" height="18" viewBox="0 0 18 18" xmlns="http://www.w3.org/2000/svg"><path fill="#F0F3FA" d="M0 0h18v18H0z"/><path d="M11.98 6h-1.36l-.02.02v.96c0 .01 0 .02.02.02h1.36C12 7 12 7 12 6.98v-.96c0-.01 0-.02-.02-.02Z" fill="#EC1D25"/><path d="M10.58 7H9.02C9.01 7 9 7 9 7.02v3.96c0 .01 0 .02.02.02h1.56c.01 0 .02 0 .02-.02V7.02c0-.01 0-.02-.02-.02ZM13.37 7a158.81 158.81 0 0 1 .76.02L16 10.98a.02.02 0 0 1 0 .02h-1.48l-1.13-2.73-.02-.01-.02.01c-.5 1.06-.78 1.99-1.12 2.73h-1.49v-.02l1.88-3.96a449.78 449.78 0 0 1 .76-.02ZM5.2 7a86.4 86.4 0 0 1 .7.02l.56 2.53c.02.08.04.08.06 0l.6-2.53v-.01h1.26c.02 0 .02 0 .02.02l-.94 3.95c0 .01-.01.02-.03.02H5.68v-.02a344.87 344.87 0 0 1-.48-1.84l-.02.01A303.03 303.03 0 0 1 4.7 11H2.96c-.01 0-.02 0-.02-.02L2 7.03C2 7 2 7 2.02 7h1.25l.01.02.6 2.53c.02.08.04.08.06 0l.55-2.53.01-.01H5.2Z" fill="#004B8D"/></svg>