<!-- by TradingView --><svg width="18" height="18" viewBox="0 0 18 18" xmlns="http://www.w3.org/2000/svg"><path fill="#F0F3FA" d="M0 0h18v18H0z"/><path d="M12.18 14h-.37c-.58-.25-.8-.68-.81-1.3v-2.63c0-.03.01-.05 0-.07-.03-.02-.05 0-.08 0H7.1c-.01 0-.02-.03-.03-.02a.1.1 0 0 0-.05.05l-.02.03v2.71c-.06 1.36-1.41 1.61-2 .39V4.83c.46-1.27 1.94-1.03 2 .37v2.6c0 .12.06.2.17.2h3.68c.1 0 .15-.07.15-.17V5.1c.01-.67.27-1.07.98-1.09.05 0 .15.01.28.04.52.1.74.48.74 1.02v7.78c-.01.58-.2.96-.82 1.15Z" fill="#FF5340"/></svg>