<!-- by TradingView --><svg width="18" height="18" viewBox="0 0 18 18" xmlns="http://www.w3.org/2000/svg"><path fill="#F0F3FA" d="M0 0h18v18H0z"/><path d="M11.39 4.64a.44.44 0 0 0-.23-.24.46.46 0 0 0-.33-.03l-.75.23c-.21.1-.38-.08-.37-.29v-.88c0-.23-.23-.43-.48-.43h-.46c-.24 0-.48.2-.48.43v.88c.01.2-.15.38-.37.3l-.76-.24a.45.45 0 0 0-.34.03.43.43 0 0 0-.21.25l-.09.25a.4.4 0 0 0 .13.45l.15.08.8.22a.29.29 0 0 1 .21.19.27.27 0 0 1-.06.28l-.55.72a.4.4 0 0 0 .1.58l.27.17a.49.49 0 0 0 .63-.1l.54-.65a.33.33 0 0 1 .27-.14.33.33 0 0 1 .27.14l.52.65a.48.48 0 0 0 .63.1l.26-.17a.4.4 0 0 0 .18-.26.4.4 0 0 0-.07-.32l-.56-.73a.27.27 0 0 1-.06-.27.28.28 0 0 1 .22-.19l.8-.23a.41.41 0 0 0 .25-.2.4.4 0 0 0 .03-.32l-.1-.26Z" fill="#ED6D00"/><path d="M8.59 8.14 6.5 14h5L9 7l-.41 1.14ZM9 9.5c.45 1.25 1.12 2.9 1.34 3.5H7.66c.22-.6.9-2.25 1.34-3.5Z" fill="#898989"/></svg>