<!-- by TradingView --><svg width="18" height="18" viewBox="0 0 18 18" xmlns="http://www.w3.org/2000/svg"><path fill="#F0F3FA" d="M0 0h18v18H0z"/><ellipse cx="8.55" cy="8.72" rx="3.36" ry="3.39" fill="#5E602F"/><path d="M9.42 9.71c-1.16 1-2.82 1.02-3.7.06-.89-.97-.66-2.55.5-3.54 1.17-1 2.83-1.02 3.71-.05.89.96.66 2.54-.5 3.53Z" fill="#99A039"/><path d="M8.36 8.58c-.93.82-2.16.95-2.74.3-.58-.67-.3-1.87.63-2.7.93-.82 2.16-.95 2.74-.29.58.66.3 1.86-.63 2.69Z" fill="#C6D731"/><path d="m13.7 9-1.9.32c-.96 1.88-2.16 2.92-4.44 2.92-1.81 0-2.44-2.56-2.17-3.29a4.2 4.2 0 0 1 .67-2.24c.62-.91 1.75-1.3 2.3-1.36.09-.1.48-.17 1.2-.17 1.6 0 2.37 1.17 2.55 1.8l-.68.23 1.63.83L14 6.29l-.55.14c-.33-.8-1.5-2.43-3.5-2.43C5.95 4 4 8.45 4 10.28A3.67 3.67 0 0 0 7.77 14c3.64 0 5.48-3.23 5.94-5Z" fill="url(#a)"/><defs><linearGradient id="a" x1="5.91" y1="5.97" x2="9.92" y2="13.47" gradientUnits="userSpaceOnUse"><stop stop-color="#6D6968"/><stop offset="1" stop-color="#C2C1C6"/></linearGradient></defs></svg>