<!-- by TradingView --><svg width="18" height="18" viewBox="0 0 18 18" xmlns="http://www.w3.org/2000/svg"><path fill="#F0F3FA" d="M0 0h18v18H0z"/><path d="M2 7.7c0-.39.3-.7.67-.7h12.66c.37 0 .67.31.67.7v2.6c0 .39-.3.7-.67.7H2.67a.68.68 0 0 1-.67-.7V7.7Z" fill="#00ADFC"/><path d="M2.25 7.83c0-.32.25-.58.55-.58h2.4c.3 0 .55.26.55.58v2.34c0 .32-.25.58-.55.58H2.8a.56.56 0 0 1-.55-.58V7.83Z" fill="#FC3727"/><path d="m3.37 7.2-.88 1.58.88 1.63.8-1.43V10h.46v-.75c0-.1.02-.25.23-.25.2 0 .21.19.2.3v.7h.42v-.89c0-.14-.1-.44-.5-.44-.22 0-.4.17-.47.24 0-.07-.07-.22-.29-.24L3.37 7.2Z" fill="#F0F3FA"/><path d="M3.39 8.5c.12 0 .21-.11.21-.25S3.5 8 3.4 8c-.13 0-.22.11-.22.25s.1.25.22.25Zm-.22.17V10h.43v-.92c.08-.08.23-.2.32-.2.11 0 .2.09.23.13l.14-.2c-.02-.05-.1-.13-.25-.13-.18 0-.34.1-.44.17v-.18h-.43Z" fill="#00A6EB"/><path opacity=".5" fill="#F0F3FA" d="M6 8h9v2H6z"/></svg>