<!-- by TradingView --><svg width="18" height="18" viewBox="0 0 18 18" xmlns="http://www.w3.org/2000/svg"><path fill="#F0F3FA" d="M0 0h18v18H0z"/><path fill-rule="evenodd" d="M5 4.54v8.92c0 .3.27.54.6.54h6.8c.33 0 .6-.24.6-.54V4.54c0-.3-.27-.54-.6-.54H5.6c-.33 0-.6.24-.6.54Zm2.67 6.29c0 .1-.1.17-.21.17H5.78c-.33 0-.6.25-.6.55v1.81c0 .3.2.47.53.47h6.6c.33 0 .5-.24.5-.54v-1.74c0-.3-.26-.55-.59-.55h-1.59c-.1 0-.3-.07-.3-.17v-6.6c0-.05-.04-.08-.09-.05l-4.57 3.7c-.05.03-.02.12.04.12h1.75c.1 0 .2.06.2.16v2.67Z" fill="#FD0002"/><path opacity=".5" fill="#FD0002" d="M6 12h6v1H6z"/></svg>