<!-- by TradingView --><svg width="18" height="18" viewBox="0 0 18 18" xmlns="http://www.w3.org/2000/svg"><path fill="#181B1E" d="M0 0h18v18H0z"/><path d="M11.5 5.9v-.64L9 4 4 6.52v1.87L5.25 9v-.63l-.63-.3V6.85L5 6.66v1.15l.63.36V6.35L9 4.65l2.5 1.25ZM9.62 13.07v-1.19l1.87-.94.63.28-1.87.92v.62l2.49-1.22.63.3L9 14l-2-1v-.66l2 1.04.62-.31Z" fill="#FCD232"/><path d="M14 11.52v-5l-2-1.04V7.9l.63.38v-1.9l.74.43v3.76L12 9.98V8.71l-.5-.33v-1.9L9 5.27 6.5 6.49v1.9l1.87.92v-.62L7 8.05v-.64l1.37.62v-.6l-1.34-.59L9 5.9l1.88.94-1.26.6v.59l1.26-.61v.64l-1.26.6v.6l1.26-.57.6.33-1.86.91v.6l1.88-.93v.68l2.5 1.24ZM6 10.56v.58l2.5 1.2v-.59l-1.88-.91v-1.2l1.88.87v-.6L6 8.73v1.24L4 9v2.41l2.5 1.2v-.58l-1.88-.92V9.92l1.38.64Z" fill="#FCD232"/></svg>