<!-- by TradingView --><svg width="18" height="18" viewBox="0 0 18 18" xmlns="http://www.w3.org/2000/svg"><path fill="#F0F3FA" d="M0 0h18v18H0z"/><path d="M15 9A6 6 0 1 1 3 9a6 6 0 0 1 12 0Zm-5.3 4.84c0 .22.2.38.4.34a5.3 5.3 0 0 0 0-10.36.33.33 0 0 0-.4.34v.6c.87.02 1.83.15 2.3.24l-.13 2.1a.62.62 0 0 1-.34-.1c.09-1-.18-1.88-1.94-1.88-2.05 0-3.06 1.92-3.06 3.84 0 1.6 1.08 2.79 1.47 3.18v.78c-.9-.11-2.88-1.06-2.88-3.96 0-2.64 1.78-3.66 3.17-4.02v-.78a.33.33 0 0 0-.4-.34 5.3 5.3 0 0 0 0 10.36c.22.04.4-.12.4-.34V6.3c.29-.16.75-.3 1.42-.29v3.35h3v.36h-.36c-.2 0-.35.17-.35.39v1.83c0 .2.17.37.35.37v.3l-2.35.64v-.32l.24-.25a.4.4 0 0 0 .17-.33V10.1c0-.22-.15-.4-.35-.4h-.35v4.14Z" fill="url(#ait10otvt)"/><defs><linearGradient id="ait10otvt" x1="9" y1="3" x2="9" y2="15" gradientUnits="userSpaceOnUse"><stop stop-color="#906F3F"/><stop offset=".51" stop-color="#B9935A"/><stop offset="1" stop-color="#906F3F"/></linearGradient></defs></svg>