<!-- by TradingView --><svg width="18" height="18" viewBox="0 0 18 18" xmlns="http://www.w3.org/2000/svg"><path fill="#F0F3FA" d="M0 0h18v18H0z"/><path d="M4 10.76A2.3 2.3 0 0 0 6.35 13c.82 0 1.57-.4 2-1.05l-.76-.47c-.27.4-.73.65-1.24.65-.79 0-1.45-.62-1.45-1.39 0-.75.65-1.38 1.45-1.38.52 0 .98.25 1.25.68l.78-.46A2.39 2.39 0 0 0 6.35 8.5C5.07 8.52 4 9.52 4 10.76ZM9.63 10.76A2.3 2.3 0 0 0 11.96 13c.82 0 1.56-.4 2-1.05l-.77-.47c-.27.4-.73.65-1.21.65-.8 0-1.44-.62-1.44-1.39 0-.75.65-1.38 1.44-1.38.5 0 .97.25 1.24.68l.77-.46a2.37 2.37 0 0 0-2.01-1.08 2.33 2.33 0 0 0-2.37 2.26ZM8 5a1 1 0 1 1-1-1c.54.01 1 .45 1 1Z" fill="#44B049"/><path d="m5.6 8 3.7-1.9 1.69 2.09L9.17 9.4S8.04 8.05 5.61 8Z" fill="#44B049"/></svg>