<!-- by TradingView --><svg width="18" height="18" viewBox="0 0 18 18" xmlns="http://www.w3.org/2000/svg"><path fill="#F0F3FA" d="M0 0h18v18H0z"/><path d="M2 8.43h.5V11H2V8.43ZM2.3 7c.15 0 .28.13.28.29 0 .15-.13.28-.29.28A.29.29 0 0 1 2 7.3c0-.16.13-.29.3-.29Z" fill="#8DC63F"/><path d="M8 7h.46l3.04 3.17V7h.5v4h-.46L8.5 7.8V11H8V7Z" fill="#58585A"/><path fill-rule="evenodd" d="M4 7v4h1.86C7.04 11 8 10.12 8 9.04v-.08C8 7.88 7.04 7 5.86 7H4Zm.5 3.5h1.4c.82 0 1.6-.7 1.6-1.47v-.06c0-.77-.78-1.47-1.6-1.47H4.5v3Z" fill="#58585A"/><path d="M12.57 11H12l1.71-4h.58L16 11h-.57L15 10H13v-.01L12.57 11Zm.67-1.57h1.52L14 7.63l-.76 1.8Z" fill="#58585A"/></svg>