<!-- by TradingView --><svg width="18" height="18" viewBox="0 0 18 18" xmlns="http://www.w3.org/2000/svg"><path fill="#F0F3FA" d="M0 0h18v18H0z"/><path d="M8 9.53H7V13h1V9.53ZM13.57 8.39a1.22 1.22 0 0 0-.91-.39H8.5v5h4.18A1.32 1.32 0 0 0 14 11.64v-2.3a1.36 1.36 0 0 0-.43-.95ZM13 11.64c0 .3-.13.36-.44.36h-3.2V9h3.2c.25 0 .44.2.44.43v2.2ZM3 9h1.06A3.92 3.92 0 0 1 8 5.08V4a5 5 0 0 0-5 5Zm1.5 0h1.12A2.38 2.38 0 0 1 8 6.63V5.52A3.48 3.48 0 0 0 4.5 9ZM8 9H6.17C6.17 7.99 7 7.16 8 7.18V9Z" fill="#2470BC"/></svg>