<!-- by TradingView --><svg width="18" height="18" viewBox="0 0 18 18" xmlns="http://www.w3.org/2000/svg"><path fill="#1D2A5D" d="M0 0h18v18H0z"/><path d="m7.92 12 .46-2.54c-.57.45-1.6 1.11-2.57 1.11-1.17 0-1.26-1.05-1.16-1.58L2 11.14v-.36L6.04 7.7c-.14.5-.24 1.5.53 1.66.87.18 1.39.03 1.9-.4l.4-2.17.95-.8h1.96c-.47.33-1.36.5-1.74.54L9.55 8.4c.83.34 2.51.7 4.2.01.1.52.69 1.55 2.25 1.52v.22c-.95.24-2.86.54-2.87-.22l-.88.86a.26.26 0 0 1-.32.02l-.46-.3a.18.18 0 0 1-.03-.29l.93-.92c-.88.14-2.6.36-3.1.19L8.62 12h-.7ZM3.96 7.71h.74l1.53-1.14H5.5L3.96 7.71Zm9.22 1.52V9l-.71.65a.16.16 0 0 0 0 .24c.08.08.22.06.28-.03l.43-.63Z" fill="#fff"/></svg>