<!-- by TradingView --><svg xmlns="http://www.w3.org/2000/svg" width="18" height="18"><path fill="url(#azb11rxpb)" d="M0 0h18v18H0z"/><path d="M12.94 8.7l-.33 4.21H9.53a6.17 6.17 0 01-3.95-1.76c-.57-.53-.72-4.36 1.08-5.54 1.44-.94 4.78-.91 6.28-.78l-.4 2.67H11V6H8.85c-.65.03-.85.64-.85.85v1.58c.08 2.42 1.83 3.66 3 3.81V10H9.66l-.13-1.3h3.4z" fill="url(#bzb11rxpb)"/><path d="M4 9.14c0-4.85 6.07-5 9-4.38l-1.02.63c-.82-.17-1.81-.2-2.2-.18-3.66.08-4.03 2.57-3.95 3.93.16 2.71 2.73 3.76 3.95 3.76h2.83l-.06.6H8.33C4.92 13.1 4 10.5 4 9.14z" fill="url(#czb11rxpb)"/><defs><linearGradient id="azb11rxpb" x1="3.35" y1="3.12" x2="21.9" y2="24.43" gradientUnits="userSpaceOnUse"><stop stop-color="#1A1E21"/><stop offset="1" stop-color="#06060A"/></linearGradient><linearGradient id="bzb11rxpb" x1="6.83" y1="5.53" x2="11.97" y2="12.97" gradientUnits="userSpaceOnUse"><stop stop-color="#E7891F"/><stop offset=".75" stop-color="#F6C439"/></linearGradient><linearGradient id="czb11rxpb" x1="8.5" y1="4.5" x2="11.78" y2="13.22" gradientUnits="userSpaceOnUse"><stop stop-color="#FED94A"/><stop offset="1" stop-color="#F6C439"/></linearGradient></defs></svg>