<!-- by TradingView --><svg xmlns="http://www.w3.org/2000/svg" width="18" height="18" viewBox="0 0 18 18"><path fill="#F0F3FA" d="M0 0h18v18H0z"/><path d="m11.8 13.21-.45.24-1.58-.3.9.6A5.03 5.03 0 0 1 4 9c-.01-1.09.34-2.09.93-2.9l.22 1.03.05-1.38c.2-.24.43-.46.68-.66l.08 1.15A4.08 4.08 0 0 0 4.89 9a4.15 4.15 0 0 0 6.1 3.66l1.15.31c-.11.09-.23.17-.34.24Zm1.3-1.19c-.14.19-.3.36-.46.52l-1.18-.17c.26-.18.5-.4.72-.63l1 .12-.08.16Zm.74-1.35-.22.52-1.08.08c.18-.26.32-.54.44-.84l.92-.07-.06.31Zm.07-3.14.05.2-.83.36c-.06-.26-.14-.5-.24-.74l.73-.38.29.56Zm-1.18-1.98c.17.17.33.36.47.56l-.72.53c-.14-.2-.3-.39-.47-.56l.72-.53ZM11.31 4.5c.25.12.49.26.71.42l-.63.65a4.18 4.18 0 0 0-.7-.38l.62-.7Zm-1.68-.49c.27.03.53.08.79.15l-.46.8c-.27-.06-.55-.09-.84-.1l.5-.85Zm-1.68.1c.27-.07.54-.1.82-.12l-.32.92c-.3.04-.58.12-.85.22l.35-1.03Zm-1.56.62c.25-.15.52-.29.8-.4L7.05 5.4c-.29.16-.56.35-.8.57l.14-1.22Zm.56 1.4a3.51 3.51 0 0 0 2.11 6.39c.91 0 1.74-.34 2.38-.89l-1.4-.18A2.66 2.66 0 0 1 6.38 9c0-1.03.6-1.93 1.49-2.36l.37-1.07c-.33.08-.63.2-.91.35l-.47 1.33-.1.37.2-1.46Zm1.82-.66-.53.91-.15.14a2.7 2.7 0 0 1 1.09-.18l.47-.84a3.64 3.64 0 0 0-.88-.03Zm1.49.19-.66.73c.26.05.5.14.74.27l.63-.66a3.58 3.58 0 0 0-.71-.34Zm1.27.77-.73.54c.18.15.35.33.49.53L12 7c-.14-.2-.3-.39-.47-.55Zm.83 1.19-.8.41c.09.21.14.43.17.66l.85-.37a3.48 3.48 0 0 0-.22-.7Zm.28 1.42-.91.26c-.04.3-.12.58-.25.84l1.05-.29c.07-.26.1-.53.1-.81Zm.54.64.82-.23v-.8l-.77.21a4.21 4.21 0 0 1-.05.82Zm-.87.78-1.07.07c-.3.4-.7.73-1.17.91l1.68-.12c.23-.26.42-.54.56-.86Z" fill="#D50E17"/></svg>