<!-- by TradingView --><svg width="18" height="18" viewBox="0 0 18 18" xmlns="http://www.w3.org/2000/svg"><path fill="#4C4C4C" d="M0 0h18v18H0z"/><path d="M14 4H4v3.33h.67l-.67.9V14h6a4 4 0 0 0 3.98-3.58l-.09.04c-.22.1-.48.2-.72.2-.27 0-.46-.08-.63-.16l-.05-.01a2.29 2.29 0 0 0-.2-.08 2.33 2.33 0 0 1-4.6-.14c-.26-.06-.5-.1-.69-.1-.4 0-.74.18-.97.36A4 4 0 0 0 7.35 13H5V8.44L6 6.5H5V5h8l.03 2.4A4 4 0 0 0 6 10.13c.26-.17.6-.3 1-.3.2 0 .43.03.67.08a2.33 2.33 0 0 1 4.66.15c.12.03.21.07.3.11l.04.02c.17.08.3.13.5.13.16 0 .37-.07.57-.17.1-.04.18-.09.26-.14V4Z" fill="#fff"/></svg>