<!-- by TradingView --><svg width="18" height="18" viewBox="0 0 18 18" xmlns="http://www.w3.org/2000/svg"><path fill="#F0F3FA" d="M0 0h18v18H0z"/><path d="M9 4c-.43 0-.85.06-1.25.16a.62.62 0 0 1-.6.78.63.63 0 0 1-.55-.32c-.37.2-.7.45-1 .73a.62.62 0 0 1-.34 1.15.63.63 0 0 1-.46-.2 4.8 4.8 0 0 0-.55 1.14h.06c.35 0 .63.28.63.62a.63.63 0 0 1-.93.55 5.04 5.04 0 0 0 .2 1.8.63.63 0 0 1 1.05.46c0 .34-.26.6-.59.63.2.33.42.64.68.91a.63.63 0 0 1 1.16.34c0 .18-.07.34-.2.46.36.23.74.4 1.15.54v-.06c0-.35.28-.63.62-.63a.63.63 0 0 1 .56.93A5.1 5.1 0 0 0 10 13.9a.63.63 0 0 1 .59-.84c.28 0 .52.2.6.45a5.03 5.03 0 0 0 2.43-2.5h-2.4A3 3 0 1 1 9 6V4Z" fill="#5B4D5E"/><path d="M7.44 8.06H6.5v2.5h.94l.31-.31h.31v.31h.63l.31-.31h.31v.31h.63l.31-.31h.31v.31h.63l.31-.31h.31v.31h.94l.31-.31h.31v.31H14V8.53l-.94 1.1h-.31v-.94l-.94.93h-.31V8.37l-.94 1.25h-.31V8.37l-.94 1.25H9V8.37L7.75 9.62h-.31V8.06Z" fill="#36C500"/><path d="M9.63 6.19a2.3 2.3 0 0 0-2.35 1.87h.16c.1-.15.31-.47.93-.47 1.26 0 1.1.78 3.76.78 1.37 0 1.82-1.14 1.87-1.71-.25.37-1.25.46-1.72.46.25-.12.42-.67.47-.93-.16.1-.56.31-.94.31-.47 0-.78-.31-2.19-.31Z"/></svg>