<!-- by TradingView --><svg width="18" height="18" viewBox="0 0 18 18" xmlns="http://www.w3.org/2000/svg"><path fill="#F0F3FA" d="M0 0h18v18H0z"/><path d="M13.5 4.5v9h-9v-9h9ZM14 4H4v10h10V4Z" fill="#013B49"/><path d="m5.28 8.6.66-.3H6V11h-.72V8.6Z" fill="#013B49"/><ellipse cx="5.64" cy="7.4" rx=".36" ry=".4" fill="#013B49"/><path d="M10 9H8.94c-.03 0-.04.02-.04.03l-.03.23c0 .02.01.03.04.03h.34v1.4l-.3.03c-.84 0-1.2-.85-1.2-1.59 0-1.22.5-1.84 1.18-1.84a1 1 0 0 1 .88.47h.05l-.04-.58C9.55 7.1 9.27 7 8.98 7c-1.06-.01-2 .83-1.98 2-.01 1.17.9 2 1.98 2 .36-.02.73-.16 1.02-.38V9ZM11 7h1.03c.51 0 .97.5.97 1.12.01.81-.6 1.17-1.18 1.16-.1 0-.16.04-.15.17V11H11V7Zm.67 1.98.2.02c.37.03.5-.46.48-.85 0-.4-.08-.91-.47-.88h-.1c-.06 0-.12.05-.11.14v1.57Z" fill="#013B49"/></svg>