<!-- by TradingView --><svg width="18" height="18" viewBox="0 0 18 18" xmlns="http://www.w3.org/2000/svg"><path fill="#F0F3FA" d="M0 0h18v18H0z"/><circle cx="9" cy="9" r="5" fill="#7F7EAD"/><path d="m12.66 12.03-.46-1.44c.4-1.52.28-3.38-1.14-4.32.1 0 .2-.03.32-.1a.1.1 0 0 1 .07 0l.3.08c.08.03.16-.05.14-.14-.08-.33-.2-.55-.35-.66l-.98-.76c-.15-.12-.36-.07-.47.07-.23.32-.24.24-.58.33-.22.05-.35.04-.39-.04-.02-.04 0-.1.05-.1l.49-.1a.12.12 0 0 0 .06-.2c-.15-.17-.31-.24-.5-.22-.22.03-1.1.41-1.2.57-.1.16-.23.29-.39.38-.16.1-.27.26-.23.45.01.04.04.07.09.07l.7.04c-.5.11-.93.33-1.29.65l-1.1-.12-.2-.1c-.12-.08-.13-.25-.03-.35l.54-.48c.3-.26.3-.6.74-.78a4.3 4.3 0 0 1 1.98-.47h.82c.22-.02.41.01.58.1.24.1.54.12.79.23a4.75 4.75 0 0 1 2.24 2.13.28.28 0 0 1-.02.3c-.3.4-.38.87-.25 1.43.01.07.06.14.14.18.07.05.15.08.23.1.07 0 .15-.05.15-.13V8.1c0-.15.2.06.2.15 0 .27.01.51.04.75.14.91-.34 2.1-.81 2.82a.56.56 0 0 1-.28.2Z" fill="#C6CAE2"/><path d="M11.06 6.27c1.42.94 1.55 2.8 1.14 4.32-.17-.46-.4-.87-.7-1.23-.36-.44-.86-.6-1.32-.86a.14.14 0 0 1-.07-.1.15.15 0 0 1 .04-.13l.48-.48c.16-.16.14-.28-.07-.38l-.06-.03a.52.52 0 0 0-.6.08l-.4.34a.1.1 0 0 1-.08.03.1.1 0 0 1-.06-.03c-.24-.25-.49-.5-.76-.73-.45-.4-1.08-.44-1.7-.48.36-.32.8-.54 1.3-.65.21-.08.39-.2.53-.36a.11.11 0 0 1 .19.03c.09.23.24.38.45.44l.11.08c.08.09.2.31.37.67.03.07.12.1.26.1.04 0 .06-.01.06-.06v-.12c0-.06.02-.1.06-.14.19-.17.34-.36.45-.58a.12.12 0 0 1 .18-.03c.07.07.14.17.2.3Z" fill="#E5EDF7"/><path d="m4.76 6.38 1.03.09 1.11.12c.62.04 1.25.09 1.7.48.27.23.52.48.76.73.03.03.1.03.13 0l.4-.34c.19-.16.4-.19.6-.08l.07.03c.2.1.23.22.07.38l-.48.48a.15.15 0 0 0 .03.23c.46.26.96.42 1.32.86.3.36.53.77.7 1.23l.46 1.44c.06.01.1.09.14.22-.04.1.21.78.03.76-.13-.02-.32-.27-.42-.36l-.12-.13c-.35-.78-.7-1.4-1.06-1.86-.4-.52-.99-.88-1.76-1.07a.18.18 0 0 0-.13.01c-.34.2-.8.4-1.35.66-.34.15-.67.45-1 .6-.08.03-.14-.06-.09-.12l.33-.33c.05-.05 0-.13-.06-.12l-.47.07c-.07.01-.41-.09-.21-.17.63-.27 1.1-.57 1.43-.88.09-.09.2-.22.3-.42.27-.42-.24-1.03-.56-1.19-.26-.13-.84-.32-1.73-.58L4.56 6.6l-.05-.08c-.03-.04-.01-.08.04-.09l.21-.05Z" fill="#23317A"/><path d="M5.93 7.12c.9.26 1.47.45 1.73.58.32.16.83.77.57 1.2-.12.19-.22.32-.3.4-.33.32-.8.62-1.44.89-.19.08.13.18.21.17l.47-.07h.05c.04.03.05.09.01.12l-.33.33c-.05.06.01.15.08.12.34-.15.67-.45 1-.6C8.56 10 9 9.79 9.35 9.6a.18.18 0 0 1 .13-.01c.77.19 1.36.55 1.76 1.07.36.46.71 1.08 1.06 1.86-.3.34-.7.56-1.17.67a.14.14 0 0 1-.17-.17c.03-.11.11-.2.25-.26.3-.14.51-.26.66-.37.05-.04-.1-.12-.15-.1-.32.16-.62.32-.95.3-.4-.02-.64.41-.89.5-.32.1-.57.2-.74.3-.22.13-.4.2-.53.23-.41.06-.9.18-.96-.3 0-.05.05-.1.1-.08l.72.2c.13.05.07-.19 0-.23-.4-.2-.83-.34-1.3-.42-.05-.01-.1 0-.14.01l-.28.13c-.08.04-.14 0-.18-.1l-.01-.07c0-.1.03-.15.12-.16a.9.9 0 0 1 .18-.03c.18 0 .2-.05.07-.17-.09-.08-.2-.2-.34-.38-.05-.07-.04-.17.04-.2.04-.03.09-.09.13-.18.06-.15-.12-.34-.07-.53a.1.1 0 0 0-.05-.11 1.37 1.37 0 0 0-.43-.14c-.23-.1-.54-.41-.79-.38-.2.02-.37.03-.48.02a.12.12 0 0 0-.11.05c-.03.05-.03.12 0 .2.02.05.06.09.12.13.2.13.3.32.3.58 0 .05-.03.07-.08.06-.1-.01-.16-.04-.19-.08a2.9 2.9 0 0 1-.53-2.05c0-.02.02-.04.03-.03l.02.01c.08.09.12.18.13.26.02.16.14.26.24.36l.04.03c.05 0 .1-.03.1-.08 0-.3-.06-.55-.16-.78A.28.28 0 0 0 4.6 9a.15.15 0 0 1-.14-.12l-.04-.21c-.02-.1.01-.14.11-.12.1.02.24.08.41.18.2.11.25-.4.27-.47.01-.03.03-.06.06-.08.08-.06.3-.1.3-.23v-.23c0-.05 0-.1.03-.13l.33-.46Z" fill="#E5EDF7"/><path d="M7.09 11.24h-.02a.14.14 0 0 0-.09.18l.3.88c.02.08.1.12.17.1l.02-.01c.07-.03.11-.1.09-.18l-.3-.88a.14.14 0 0 0-.17-.09Z" fill="#7F7EAD"/></svg>