<!-- by TradingView --><svg width="18" height="18" viewBox="0 0 18 18" xmlns="http://www.w3.org/2000/svg"><path fill="#F0F3FA" d="M0 0h18v18H0z"/><path d="M11.63 4h1.04l-1.63 3H10l1.63-3Z" fill="#F41F2D"/><path d="M12.63 4h1.04l-1.64 3H11l1.63-3Z" fill="#25265F"/><path d="M7.63 11h1.04l-1.63 3H6l1.63-3Z" fill="#F41F2D"/><path d="M8.63 11h1.04l-1.64 3H7l1.63-3Z" fill="#25265F"/><path d="M11.47 11H10l.27-.8h.37l.95-2.4h-.37l.3-.8h2.4c.4 0 1.1.2 1.08.94 0 .14-.03.29-.1.44a2.2 2.2 0 0 1-2.03 1.38h-1.3l-.2.44h.37l-.27.8Zm1.67-1.94c.52 0 .87-.25 1.03-.68.16-.42-.07-.58-.59-.58h-1.26l-.49 1.26h1.3ZM9.11 11h-.49l-1.5-2.68-.75 1.88h.37l-.27.8H5l.27-.8h.37l.98-2.4h-.37l.27-.8h.86l1.5 2.68.75-1.88h-.37l.27-.8H11l-.27.8h-.37L9.11 11ZM4.48 11H3l.27-.8h.37l.98-2.4h-.37l.27-.8H6l-.27.8h-.37l-.98 2.4h.37l-.27.8Z" fill="#0B0E0F"/></svg>