<!-- by TradingView --><svg width="18" height="18" viewBox="0 0 18 18" xmlns="http://www.w3.org/2000/svg"><path fill="#F0F3FA" d="M0 0h18v18H0z"/><path d="M14.56 6.92a3.88 3.88 0 0 1 .39 1.26 4.78 4.78 0 0 1-1.52 4.13 6.29 6.29 0 0 1-4.03 1.68 6.41 6.41 0 0 1-5.4-2.3 6.1 6.1 0 0 0 3.13 1.9c2.72.73 5.78-.28 7.14-2.65a4.72 4.72 0 0 0 .06-4.44l.23.42Z" fill="#565656"/><path d="M12.39 6.06 7.07 8.33c.15-.94-.29-1.87-.81-2.7.61-.25 1.3-.54 2-.6 1.51-.14 2.9.2 4.13 1.03Z" fill="#2B84B0"/><path d="M13.24 6.67c1.2 1.6.94 3.65-.53 5-1.25-1.35-3-2.64-4.84-2.83l5.37-2.17Z" fill="#5FA439"/><path d="M6.07 9.39c-.03-.03-.04-.07-.01-.1.3-.4.42-.83.36-1.3A5.7 5.7 0 0 0 5.7 6C4.59 6.79 3.9 7.97 4 9.29c.06.6.26 1.15.6 1.63a4.94 4.94 0 0 0 3.39 2c1.29.21 2.54.01 3.74-.6-.31-.33-.61-.73-.93-1.04a7.56 7.56 0 0 0-1.99-1.36 7.31 7.31 0 0 0-1.5-.38c-.3-.04-.62-.02-.96.05-.03 0-.06 0-.08-.02l-.21-.18Z" fill="#DE4442"/><path d="M12.14 8.24h-.7c.42-.14.89-.33 1.3-.49L12.35 9c0-.22-.07-.48-.11-.7 0-.03-.05-.07-.1-.06Z" fill="#FDFDFD"/><path d="m11.66 9.31-.87-.59.97-.35-.41.42.3.52ZM12.44 9.07l.3-.38-.12.94-.86-.64.5.13c.08.02.14 0 .18-.05Z" fill="#FDFDFD"/></svg>