<!-- by TradingView --><svg width="18" height="18" viewBox="0 0 18 18" xmlns="http://www.w3.org/2000/svg"><path fill="#F0F3FA" d="M0 0h18v18H0z"/><path d="M11.13 7.88a6.42 6.42 0 0 0-4.22-1.14c.44-1.8 1.24-2.62 2.3-2.62 1.06 0 2.16 1.12 3.2 2.55C13.86 8.7 14 10.1 14 10.52c0 .35-.22.74-.33.9.15-.97-.41-2.07-2.54-3.54Z" fill="url(#a)"/><path d="M8.88 4c.22 0 .45.07.53.11-1.23-.17-2.6 1.35-2.6 4.07 0 2.17.67 3.35 1 3.65-.23.1-.89.3-1.62.3-1.59 0-2.1-.83-2.15-1.24-.13-.4-.02-1.79 1.46-4.08C7.34 3.95 8.62 4 8.88 4Z" fill="url(#b)"/><path d="M8.74 13c-3.94 0-4.79-1.48-4.72-2.22.24 1.37 2.3 1.8 4.82.66a6.69 6.69 0 0 0 3.27-2.8c1.5 1.2 1.68 2.25 1.57 2.63 0 .58-1 1.73-4.94 1.73Z" fill="url(#c)"/><defs><linearGradient id="a" x1="7.58" y1="5.99" x2="13.63" y2="10.94" gradientUnits="userSpaceOnUse"><stop stop-color="#549754"/><stop offset=".09" stop-color="#599F49"/><stop offset=".35" stop-color="#73B84E"/><stop offset=".51" stop-color="#9FCD6B"/><stop offset="1" stop-color="#B8D0A0"/></linearGradient><linearGradient id="b" x1="6.71" y1="4" x2="6.71" y2="12.13" gradientUnits="userSpaceOnUse"><stop stop-color="#D6EEEE"/><stop offset=".3" stop-color="#CBECFB"/><stop offset=".69" stop-color="#77C8DB"/><stop offset="1" stop-color="#10719E"/></linearGradient><linearGradient id="c" x1="13.23" y1="10.59" x2="5.63" y2="13.5" gradientUnits="userSpaceOnUse"><stop stop-color="#283A86"/><stop offset=".58" stop-color="#50ACDF"/><stop offset="1" stop-color="#47B4D3"/></linearGradient></defs></svg>