<!-- by TradingView --><svg width="18" height="18" viewBox="0 0 18 18" xmlns="http://www.w3.org/2000/svg"><path fill="#000058" d="M0 0h18v18H0z"/><path d="M9.09 5H3.9c-.5 0-.91.44-.91.97v.06c0 .53.4.97.91.97H9.1c.5 0 .91-.44.91-.97v-.06c0-.53-.4-.97-.91-.97Z" fill="#3D8AF8"/><path d="M13.02 5h-1.04a.96.96 0 0 0-.98.94v.12c0 .52.43.94.97.94h1.05c.54 0 .98-.41.98-.93v-.13a.96.96 0 0 0-.98-.94Z" fill="#CCCCCD"/><path d="M6.03 8H4.97a.95.95 0 0 0-.97.94v.12c0 .52.44.94.98.94h1.05c.54 0 .97-.42.97-.94v-.13A.96.96 0 0 0 6.03 8Z" fill="#8F7AFA"/><path d="M14.09 7.99H8.9c-.5 0-.9.45-.9.98v.06c0 .53.4.97.9.97l5.18-.01c.5 0 .91-.44.91-.97v-.06c0-.54-.4-.97-.91-.97Z" fill="#FF5E76"/><path d="M10.09 11H4.9c-.5 0-.91.44-.91.97v.06c0 .53.4.97.91.97h5.18c.5 0 .91-.44.91-.97v-.06c0-.53-.4-.97-.91-.97Z" fill="#06D64B"/><path d="M13.5 11h.21c.25 0 .43 0 .54.04A1.04 1.04 0 0 1 15 12c0 .22-.07.42-.21.6-.14.18-.32.3-.54.36-.1.03-.29.04-.54.04a12.39 12.39 0 0 0-.42 0c-.25 0-.43 0-.54-.04-.22-.06-.4-.18-.54-.36a.95.95 0 0 1 0-1.2c.14-.18.32-.3.54-.36.1-.03.29-.04.54-.04h.21Z" fill="#F7873F"/></svg>