<!-- by TradingView --><svg width="18" height="18" viewBox="0 0 18 18" fill="none" xmlns="http://www.w3.org/2000/svg">
<rect width="18" height="18" fill="#F0F3FA"/>
<path d="M9.18531 3C9.84057 3.01565 10.5178 3.14565 11.1312 3.38411C11.1431 3.38874 11.1467 3.39697 11.142 3.40879L10.4251 5.241C10.4152 5.26672 10.3972 5.27483 10.3712 5.26533C9.98819 5.12675 9.59302 5.04646 9.18566 5.02444C9.18113 5.02418 9.17688 5.02219 9.17377 5.0189C9.17066 5.0156 9.16894 5.01124 9.16895 5.00672L9.17069 3.01426C9.17069 3.01235 9.17107 3.01047 9.17181 3.00872C9.17254 3.00697 9.17363 3.00538 9.17499 3.00405C9.17635 3.00273 9.17797 3.00168 9.17974 3.00099C9.18151 3.00029 9.18341 2.99996 9.18531 3Z" fill="#CAE4EF"/>
<path d="M7.37051 5.41129C7.34042 5.41824 7.32572 5.42948 7.32642 5.44501C6.98652 5.49124 6.59593 5.80373 6.34248 6.03107C6.33804 6.03518 6.33214 6.03737 6.32605 6.03717C6.31996 6.03698 6.31414 6.03442 6.30984 6.03002L4.91622 4.60346C4.9065 4.5935 4.90685 4.58388 4.91726 4.57461C5.35958 4.17765 5.85514 3.84499 6.40393 3.57664C6.46828 3.54513 6.52753 3.52056 6.58169 3.50295C6.59396 3.49878 6.60264 3.50272 6.60773 3.51477C6.85748 4.11149 7.10885 4.70682 7.36183 5.30075C7.37641 5.33528 7.37931 5.37213 7.37051 5.41129Z" fill="#C4E1C5"/>
<path d="M7.94083 4.41175C8.13576 4.41175 8.29377 4.25374 8.29377 4.05881C8.29377 3.86389 8.13576 3.70587 7.94083 3.70587C7.74591 3.70587 7.58789 3.86389 7.58789 4.05881C7.58789 4.25374 7.74591 4.41175 7.94083 4.41175Z" fill="#019E53"/>
<path d="M11.8236 5.11763C12.0186 5.11763 12.1766 4.95961 12.1766 4.76468C12.1766 4.56976 12.0186 4.41174 11.8236 4.41174C11.6287 4.41174 11.4707 4.56976 11.4707 4.76468C11.4707 4.95961 11.6287 5.11763 11.8236 5.11763Z" fill="#03A6D3"/>
<path d="M13.0538 7.17396C12.7959 6.76912 12.46 6.42858 12.0459 6.15235L13.319 4.86726C13.3215 4.86469 13.3245 4.86266 13.3279 4.86129C13.3312 4.85992 13.3348 4.85925 13.3384 4.85932C13.342 4.85938 13.3455 4.86018 13.3488 4.86167C13.3521 4.86315 13.3551 4.8653 13.3576 4.86796C13.8168 5.36086 14.189 5.91297 14.4742 6.52429C14.4825 6.54213 14.4776 6.55499 14.4596 6.56287L13.0538 7.17396Z" fill="#CAE4EF"/>
<path d="M12.0456 6.15247C12.4596 6.42869 12.7956 6.76923 13.0535 7.17407C13.4164 7.8132 13.4557 8.45568 13.1715 9.10153L12.9399 9.51309C12.8226 9.66488 12.7023 9.80102 12.5792 9.92152C12.5639 9.93636 12.5621 9.93473 12.5736 9.91666C13.5173 8.43448 12.2039 6.95821 10.9714 6.26544C9.87944 5.65122 8.58337 5.33282 7.3262 5.44509C7.3255 5.42957 7.3402 5.41833 7.37029 5.41138C8.95001 5.07803 10.6655 5.28798 12.0456 6.15247Z" fill="#03A6D3"/>
<path d="M7.95249 6.62517L7.62891 5.88338C7.94103 5.74747 8.44237 5.57888 8.77325 5.63207C8.78101 5.63331 8.78807 5.63728 8.79316 5.64327C8.79825 5.64926 8.80104 5.65687 8.80102 5.66474L8.80276 6.37976C8.80276 6.39088 8.79732 6.39702 8.78644 6.39818C8.49711 6.42993 8.21913 6.50559 7.95249 6.62517Z" fill="#019E53"/>
<path d="M10.1109 6.03176L9.91552 6.53335C9.67812 6.45503 9.43435 6.40567 9.18422 6.38528C9.17381 6.38458 9.16872 6.37902 9.16895 6.36859L9.17242 5.75368C9.17245 5.75023 9.17324 5.74683 9.17473 5.74373C9.17623 5.74063 9.17839 5.73791 9.18106 5.73578C9.18373 5.73364 9.18683 5.73214 9.19014 5.73139C9.19346 5.73064 9.19689 5.73065 9.20019 5.73143C9.51603 5.80652 9.81961 5.90663 10.1109 6.03176Z" fill="#60B7DB"/>
<path d="M7.62897 5.88336L7.95255 6.62515C7.73035 6.72896 7.52597 6.86024 7.33941 7.01898C7.32876 7.02802 7.31858 7.02767 7.30886 7.01794L6.75543 6.46768C6.74525 6.45772 6.7456 6.4481 6.75647 6.43883C7.02335 6.20825 7.31418 6.0231 7.62897 5.88336Z" fill="#48B075"/>
<path d="M4.76505 6.52943C4.95997 6.52943 5.11799 6.37141 5.11799 6.17649C5.11799 5.98156 4.95997 5.82355 4.76505 5.82355C4.57013 5.82355 4.41211 5.98156 4.41211 6.17649C4.41211 6.37141 4.57013 6.52943 4.76505 6.52943Z" fill="#019E53"/>
<path d="M10.1105 6.0318C10.4545 6.17107 10.7757 6.33931 11.0743 6.53652C11.0771 6.53833 11.0794 6.54075 11.0811 6.54358C11.0828 6.54641 11.0839 6.5496 11.0842 6.5529C11.0846 6.55619 11.0842 6.55953 11.0831 6.56265C11.0819 6.56577 11.0801 6.5686 11.0778 6.57093L10.7004 6.94912C10.6909 6.95862 10.6808 6.95932 10.6702 6.95121C10.4366 6.773 10.1849 6.63373 9.91504 6.53339L10.1105 6.0318Z" fill="#03A6D3"/>
<path d="M6.61393 8.03084L5.85254 7.72461C6.00484 7.35198 6.20957 7.0192 6.46672 6.72629C6.47575 6.71586 6.48512 6.71552 6.49484 6.72525L7.04965 7.27759C7.05914 7.28709 7.05961 7.29717 7.05104 7.30783C6.86518 7.53702 6.71948 7.77802 6.61393 8.03084Z" fill="#019E53"/>
<path d="M12.0647 7.58316L11.4075 7.88245C11.295 7.65164 11.1488 7.43346 10.969 7.22791C10.9606 7.21864 10.9609 7.2096 10.9697 7.2008L11.3853 6.78507C11.3909 6.77944 11.3984 6.77607 11.4063 6.77563C11.4142 6.77518 11.4219 6.77767 11.428 6.78263C11.7147 7.01066 11.8967 7.2008 12.0647 7.58316Z" fill="#60B7DB"/>
<path d="M5.12379 8.1831C5.0025 8.35482 4.89302 8.63593 4.79535 8.84264L3.01079 8.84194C3.00931 8.84195 3.00785 8.84165 3.0065 8.84106C3.00515 8.84048 3.00393 8.83962 3.00292 8.83854C3.00191 8.83747 3.00113 8.8362 3.00063 8.83481C3.00014 8.83342 2.99993 8.83194 3.00002 8.83047C3.03335 8.16238 3.17049 7.42463 3.41144 6.80103C3.41216 6.79915 3.41325 6.79743 3.41465 6.79597C3.41605 6.79451 3.41774 6.79334 3.41961 6.79253C3.42148 6.79173 3.4235 6.79129 3.42556 6.79126C3.42761 6.79123 3.42966 6.7916 3.43158 6.79234L5.28454 7.51605C5.28752 7.51722 5.29023 7.51898 5.29251 7.52123C5.29479 7.52349 5.2966 7.52618 5.29783 7.52916C5.29906 7.53214 5.29968 7.53535 5.29967 7.53859C5.29965 7.54183 5.29899 7.54504 5.29773 7.54803C5.21417 7.74153 5.15619 7.95322 5.12379 8.1831Z" fill="#C4E1C5"/>
<path d="M11.2055 9.0038C11.2055 9.57796 10.9777 10.1286 10.5721 10.5346C10.1666 10.9406 9.61664 11.1687 9.04316 11.1687C8.46969 11.1687 7.91969 10.9406 7.51418 10.5346C7.10867 10.1286 6.88086 9.57796 6.88086 9.0038C6.88086 8.42964 7.10867 7.879 7.51418 7.473C7.91969 7.06701 8.46969 6.83893 9.04316 6.83893C9.32712 6.83893 9.6083 6.89492 9.87064 7.00372C10.133 7.11251 10.3714 7.27198 10.5721 7.473C10.7729 7.67403 10.9322 7.91268 11.0409 8.17534C11.1495 8.43799 11.2055 8.7195 11.2055 9.0038ZM9.69623 9.30343C9.27868 8.95166 8.81749 8.59791 8.40364 8.2422C8.25782 8.11706 7.94014 8.02113 7.94049 8.33119V9.69796C7.94049 9.97388 8.30156 9.95843 8.29405 9.68031V8.72395C8.29408 8.71091 8.30198 8.68557 8.31184 8.69408C8.74259 9.06023 9.26861 9.42695 9.70283 9.79425C9.82608 9.89853 10.0584 9.91268 10.0588 9.69786V8.27835C10.0584 8.06736 9.7438 8.0976 9.71845 8.22586C9.70688 8.28472 9.7026 8.35077 9.7056 8.424L9.70582 9.29578C9.70582 9.30992 9.70711 9.31247 9.69623 9.30343ZM7.58817 8.26862C7.58817 8.06636 7.23523 8.07723 7.23523 8.26862V9.72786C7.23523 9.93011 7.58817 9.91924 7.58817 9.72786V8.26862ZM10.7646 8.26897C10.7646 8.07101 10.4117 8.08206 10.4117 8.26897V9.72681C10.4117 9.91883 10.7646 9.92938 10.7646 9.72681V8.26897Z" fill="#1B191A"/>
<path d="M12.0642 7.58313C12.2195 7.92795 12.3169 8.29757 12.3565 8.69198C12.3579 8.70542 12.3519 8.71214 12.3384 8.71214H11.6623C11.6473 8.71214 11.6391 8.70473 11.6377 8.6899C11.6092 8.4139 11.5324 8.14474 11.4072 7.88242L12.0642 7.58313Z" fill="#03A6D3"/>
<path d="M13.9408 8.29414C14.1358 8.29414 14.2938 8.13612 14.2938 7.9412C14.2938 7.74627 14.1358 7.58826 13.9408 7.58826C13.7459 7.58826 13.5879 7.74627 13.5879 7.9412C13.5879 8.13612 13.7459 8.29414 13.9408 8.29414Z" fill="#1B191A"/>
<path d="M5.85269 7.72461L6.61384 8.03085C6.53007 8.25424 6.47338 8.47532 6.44377 8.69407C6.44215 8.70612 6.43532 8.71215 6.42329 8.71215L5.65173 8.71667C5.63137 8.71667 5.62223 8.70659 5.62431 8.68643C5.65694 8.34462 5.73306 8.02401 5.85269 7.72461Z" fill="#48B075"/>
<path d="M6.02096 11.6734C5.59831 11.3974 5.25887 11.0722 5.00264 10.698C4.60777 10.079 4.53857 9.42992 4.79502 8.75071C4.8927 8.544 5.00218 8.35479 5.12347 8.18307L5.43142 7.84729C5.45596 7.82064 5.45851 7.82261 5.43906 7.8532C4.47109 9.37291 5.83729 10.862 7.1028 11.5517C8.24066 12.1716 9.46902 12.4329 10.7879 12.3355C10.8064 12.3341 10.8066 12.3356 10.7886 12.3401C9.19602 12.7123 7.42673 12.5271 6.02096 11.6734Z" fill="#154788"/>
<path d="M6.6101 9.96491C6.36715 10.0884 6.11968 10.197 5.8677 10.2906C5.71429 9.90107 5.62949 9.50492 5.61329 9.10216C5.6132 9.09932 5.61368 9.09649 5.6147 9.09383C5.61572 9.09118 5.61727 9.08876 5.61924 9.08672C5.62122 9.08467 5.62358 9.08305 5.6262 9.08194C5.62881 9.08083 5.63162 9.08026 5.63446 9.08026H6.40637C6.42141 9.08026 6.42928 9.08779 6.42997 9.10286C6.44501 9.39438 6.50505 9.68173 6.6101 9.96491Z" fill="#154788"/>
<path d="M12.1443 10.1846C11.9226 10.1123 11.7056 10.0263 11.4932 9.92667C11.5876 9.66365 11.643 9.38696 11.6594 9.0966C11.6601 9.08571 11.6659 9.08026 11.6768 9.08026H12.3435C12.359 9.08026 12.3665 9.08802 12.3661 9.10355C12.3533 9.47178 12.2794 9.83213 12.1443 10.1846Z" fill="#5A5A5A"/>
<path d="M12.9405 9.51301L13.2139 9H14.9276C15.0003 9 15.0008 9.10736 15.0003 9.12544C14.9876 9.82528 14.8557 10.5011 14.6046 11.153C14.6004 11.1637 14.593 11.1669 14.5823 11.1627L12.7315 10.4373C12.719 10.4324 12.715 10.4237 12.7196 10.4112C12.8229 10.1262 12.8965 9.82678 12.9405 9.51301Z" fill="#C1C1C1"/>
<path d="M4.059 10.1756C4.25392 10.1756 4.41194 10.0208 4.41194 9.82975C4.41194 9.63874 4.25392 9.48389 4.059 9.48389C3.86407 9.48389 3.70605 9.63874 3.70605 9.82975C3.70605 10.0208 3.86407 10.1756 4.059 10.1756Z" fill="#019E53"/>
<path d="M11.493 9.92664C11.7055 10.0263 11.9226 10.1123 12.1444 10.1846C12.0022 10.5574 11.795 10.9006 11.5225 11.2142C11.5213 11.2156 11.5198 11.2167 11.5181 11.2176C11.5164 11.2184 11.5145 11.2188 11.5127 11.2189C11.5108 11.219 11.509 11.2186 11.5073 11.2179C11.5055 11.2172 11.504 11.2162 11.5027 11.2149L11.0264 10.7383C11.0176 10.7295 11.0173 10.7203 11.0254 10.7108C11.2228 10.4775 11.3787 10.2161 11.493 9.92664Z" fill="#1B191A"/>
<path d="M6.60983 9.96497C6.70519 10.1972 6.83469 10.4197 6.99834 10.6327C7.00505 10.6411 7.00458 10.649 6.99695 10.6567L6.64003 11.0144C6.62869 11.0257 6.61643 11.0267 6.60323 11.0172C6.31761 10.81 6.07226 10.5678 5.86719 10.2907C6.11925 10.197 6.36679 10.0885 6.60983 9.96497Z" fill="#51639E"/>
<path d="M5.00338 10.698C5.2596 11.0723 5.59904 11.3974 6.02169 11.6734L4.62806 13.0718C4.62546 13.0744 4.62235 13.0765 4.61892 13.0779C4.61549 13.0793 4.61182 13.0799 4.60813 13.0799C4.60443 13.0798 4.60078 13.079 4.59741 13.0775C4.59403 13.076 4.591 13.0738 4.58848 13.0711C4.11075 12.5497 3.80036 12.0137 3.48476 11.3856C3.47805 11.3721 3.48152 11.3625 3.49518 11.3567L5.00338 10.698Z" fill="#B7BBD4"/>
<path d="M8.01191 11.4082C7.94828 11.5185 7.90501 11.6312 7.8821 11.7464C7.55654 11.6155 7.24151 11.4517 6.93701 11.2552C6.92683 11.2487 6.92602 11.2412 6.93458 11.2326L7.23827 10.9285C7.24307 10.9237 7.24949 10.9209 7.25621 10.9207C7.26293 10.9205 7.26943 10.9229 7.27437 10.9274C7.49326 11.1263 7.73911 11.2865 8.01191 11.4082Z" fill="#154788"/>
<path d="M10.3362 12.0777L10.0508 11.4231C10.2966 11.3107 10.5262 11.169 10.7396 10.998C10.7435 10.995 10.7484 10.9934 10.7533 10.9937C10.7582 10.9939 10.7629 10.996 10.7663 10.9994L11.2389 11.4721C11.2486 11.4821 11.2484 11.4916 11.2382 11.5006C10.9637 11.7437 10.663 11.9361 10.3362 12.0777Z" fill="#5A5A5A"/>
<path d="M8.01164 11.4081C8.25876 11.5096 8.5163 11.5765 8.78424 11.6087C8.79489 11.6101 8.80032 11.6161 8.80055 11.6268L8.80298 12.0324C8.80299 12.0345 8.80253 12.0365 8.80164 12.0384C8.80075 12.0402 8.79945 12.0418 8.79785 12.0431C8.79625 12.0444 8.79438 12.0452 8.79238 12.0457C8.79038 12.0461 8.78831 12.0461 8.78632 12.0456C8.48182 11.9736 8.18032 11.8738 7.88184 11.7464C7.90474 11.6312 7.94801 11.5184 8.01164 11.4081Z" fill="#51639E"/>
<path d="M10.0506 11.4231L10.3359 12.0776C10.1186 12.1754 9.97185 12.2261 9.8957 12.2295C9.77071 12.2351 9.53405 12.2024 9.1857 12.1315C9.17713 12.1299 9.17285 12.1247 9.17285 12.1159L9.17459 11.6397C9.17457 11.6353 9.17621 11.6311 9.17917 11.6278C9.18213 11.6246 9.1862 11.6226 9.19056 11.6223C9.48683 11.597 9.77349 11.5306 10.0506 11.4231Z" fill="#1B191A"/>
<path d="M13.2358 12.1765C13.4307 12.1765 13.5887 12.0184 13.5887 11.8235C13.5887 11.6286 13.4307 11.4706 13.2358 11.4706C13.0408 11.4706 12.8828 11.6286 12.8828 11.8235C12.8828 12.0184 13.0408 12.1765 13.2358 12.1765Z" fill="#1B191A"/>
<path d="M11.7016 11.9351L13.1123 13.3495C13.1141 13.3513 13.1155 13.3534 13.1165 13.3557C13.1174 13.3581 13.1179 13.3606 13.1179 13.3631C13.1178 13.3657 13.1173 13.3682 13.1163 13.3705C13.1152 13.3728 13.1138 13.3749 13.1119 13.3766C12.6071 13.8466 12.0399 14.2216 11.4103 14.5018C11.4077 14.5029 11.4049 14.5035 11.4021 14.5036C11.3992 14.5037 11.3964 14.5032 11.3938 14.5022C11.3912 14.5012 11.3888 14.4997 11.3868 14.4978C11.3848 14.4959 11.3833 14.4936 11.3822 14.491L10.5903 12.6783C10.5873 12.6715 10.5871 12.6639 10.5897 12.657C10.5923 12.6501 10.5975 12.6445 10.6042 12.6414C11.0006 12.46 11.3616 12.2244 11.687 11.9347C11.6891 11.9329 11.6918 11.9319 11.6945 11.932C11.6972 11.9321 11.6998 11.9332 11.7016 11.9351Z" fill="#C1C1C1"/>
<path d="M6.78142 14.5845C6.77951 14.5838 6.77777 14.5827 6.77629 14.5813C6.77481 14.5799 6.77362 14.5783 6.7728 14.5764C6.77197 14.5746 6.77153 14.5726 6.77149 14.5706C6.77145 14.5686 6.77181 14.5666 6.77255 14.5647L7.51518 12.712C7.51803 12.7049 7.52361 12.6992 7.53072 12.6962C7.53783 12.6931 7.54588 12.6929 7.55313 12.6956C7.96877 12.8553 8.39954 12.9474 8.84545 12.972C8.85751 12.9727 8.86353 12.9788 8.86353 12.9904V14.9658C8.86353 14.9895 8.8516 15.0008 8.82772 14.9999C8.1215 14.9723 7.4394 14.8339 6.78142 14.5845Z" fill="#B7BBD4"/>
<path d="M6.17716 13.4757C6.37208 13.4757 6.5301 13.3207 6.5301 13.1295C6.5301 12.9383 6.37208 12.7833 6.17716 12.7833C5.98224 12.7833 5.82422 12.9383 5.82422 13.1295C5.82422 13.3207 5.98224 13.4757 6.17716 13.4757Z" fill="#154788"/>
<path d="M9.88393 14.1625C10.0733 14.1625 10.2268 14.0087 10.2268 13.8191C10.2268 13.6294 10.0733 13.4756 9.88393 13.4756C9.69454 13.4756 9.54102 13.6294 9.54102 13.8191C9.54102 14.0087 9.69454 14.1625 9.88393 14.1625Z" fill="#1B191A"/>
</svg>
