<!-- by TradingView --><svg width="18" height="18" viewBox="0 0 18 18" xmlns="http://www.w3.org/2000/svg"><path fill="#EF7123" d="M0 0h18v18H0z"/><path d="M8.74 5.39c.1.05.2.02.29-.1l.51-.56c.09-.09.2-.19.36-.3.17-.1.33-.17.46-.2.14-.04.31-.06.52-.06.15 0 .28.04.4.1.18.09.32.18.43.27.04.03.03.04-.01.03a2.97 2.97 0 0 0-.56-.02.8.8 0 0 0-.56.17 1.3 1.3 0 0 0-.31.3.07.07 0 0 0-.02.04c0 .02.01.04.03.05.08.06.2.03.3-.01l.18-.08c.43-.13.86-.2 1.3-.21.31-.01.6.06.86.23.02 0 .02.01 0 .02l-.43.08a3.7 3.7 0 0 1-.68.13l.02.02.2.06c.36.11.67.27.94.49.5.39.81.9.95 1.54.09.38.1.76.05 1.15a8.54 8.54 0 0 1-.86 2.57 26.63 26.63 0 0 1-.76 1.41l.32-1.06.05-.15c0-.01 0-.01 0 0a4.68 4.68 0 0 1-1.3 1.17 18.84 18.84 0 0 1-1.49.88 9.5 9.5 0 0 0 .53-.72c.09-.15.17-.3.24-.5.02-.03 0-.04-.03-.02l-.35.2-.55.3c-.64.36-1.29.64-1.98.83-.04.01-.05 0-.02-.02a8.04 8.04 0 0 0 1.03-1.04c.02-.02.01-.03-.01-.02l-.36.18-.92.41c-.7.24-1.4.45-2.1.63-.31.08-1.1.35-1.41.42l.97-.43c.36-.16.72-.33 1.07-.51.46-.21.97-.47 1.55-.79.67-.36 1.24-.7 1.8-1.14l.96-.75c.87-.7 1.9-1.72 1.9-2.98.01-.53-.28-.96-.73-1.16-.27-.13-.56-.2-.86-.22-.42-.02-.83 0-1.22.08a3.8 3.8 0 0 0-1.6.8 6.74 6.74 0 0 0-.71.66c-.11-.09-.22-.19-.35-.24a8.06 8.06 0 0 1-.23-.09.2.2 0 0 1-.11-.1c-.06-.13-.04-.24.05-.33.09-.1.24-.23.46-.4a2.15 2.15 0 0 0 .61-.75L7.45 6l-.3.42c-.1.07-.17.15-.25.25a.27.27 0 0 0-.04.19c.13 0 .24-.04.34-.14l.2-.3.52-.75c.16-.23.28-.39.37-.48.14-.16.3-.28.46-.38l.62-.4c.16-.13.3-.26.4-.4.03-.03.05-.03.04.02a.5.5 0 0 1-.12.24c-.16.2-.36.38-.6.56l-.17.1a.58.58 0 0 0-.23.2c-.05.08-.03.16.05.25ZM5.27 7.82a.4.4 0 0 1-.2-.3c-.02-.1-.02-.18.01-.26.12-.3.36-.54.63-.7l.15-.08.3-.21a68.73 68.73 0 0 0 .6-.5l.08-.1a5.55 5.55 0 0 0 .8-1.08h.01a4.23 4.23 0 0 1-1.13 1.68c-.2.18-.44.37-.73.6a2.4 2.4 0 0 0-.3.28v.01c.05.07.11.12.19.15l.03.03.01.04a.4.4 0 0 1-.15.35c-.09.08-.19.1-.3.09Z" fill="#FEFEFE"/><path d="M6.92 8.47a1 1 0 0 1-.2.38c-.07.07-.19.13-.26.2-.04.05-.03.09.02.12l.21.13v.01c0 .04-.02.06-.04.06-.17 0-.31 0-.41-.03-.07-.01-.1-.07-.09-.16a.69.69 0 0 1 .14-.3c.18-.2.32-.34.3-.6 0-.12-.06-.2-.16-.26-.06-.03-.15-.03-.26-.01a1.9 1.9 0 0 0-.7.42c-.14.12-.27.26-.4.4a3.72 3.72 0 0 1-.66.55.29.29 0 0 1-.16.02.25.25 0 0 1-.14-.1A1.08 1.08 0 0 1 4 9.07c.05-.11.15-.17.3-.16l.25-.01a.6.6 0 0 0 .3-.12l1-.94c.16-.14.35-.2.53-.2.3 0 .58.2.59.56 0 .08-.02.17-.05.27ZM9.83 8.86c-.45.18-.9.3-1.37.39a2.7 2.7 0 0 1-.47.04c-.2 0-.4-.04-.59-.14a.7.7 0 0 1-.32-.46v-.01c.25.1.5.16.76.18.44.05.88.04 1.33-.03a8.07 8.07 0 0 0 2.23-.71c-.51.28-1.03.52-1.57.74Z" fill="#FEFEFE"/><path d="M5.4 9.83c-.04 0-.07.01-.08.05-.08.07-.16.16-.3.1-.04-.08-.03-.17.06-.27l.03.13.01.01a.02.02 0 0 0 .02 0 .15.15 0 0 0 .09-.09.24.24 0 0 0 .04-.1l.01-.1a.27.27 0 0 1 .17-.19l.08-.02-.02.03c-.1.06-.15.19-.03.26.03.02.06.01.1 0a.14.14 0 0 0 .06-.06c.07-.1.1-.22.08-.35v-.06l.05-.05a.84.84 0 0 1 .16-.1c.08-.03.1-.02.03.03l-.1.1a.21.21 0 0 0-.06.14c0 .1-.02.19-.05.28-.03.11-.06.2-.19.23a.74.74 0 0 1-.16.03Z" fill="#FEFEFE"/><ellipse cx="9.82" cy="7.38" rx=".72" ry=".74" fill="#FEFEFE"/></svg>