<!-- by TradingView --><svg width="18" height="18" viewBox="0 0 18 18" xmlns="http://www.w3.org/2000/svg"><path fill="#F0F3FA" d="M0 0h18v18H0z"/><path fill-rule="evenodd" d="M12.45 4.33h-6.9c-.67 0-1.22.55-1.22 1.24v6.86c0 .69.55 1.24 1.22 1.24h6.9c.67 0 1.22-.55 1.22-1.24V5.57c0-.69-.55-1.24-1.22-1.24ZM5.55 4C4.7 4 4 4.7 4 5.57v6.86C4 13.3 4.7 14 5.55 14h6.9c.85 0 1.55-.7 1.55-1.57V5.57C14 4.7 13.3 4 12.45 4h-6.9Z" fill="#013D71"/><path d="M6.06 5C5.47 5 5 5.46 5 6.04v4.33c1.47 0 5.42-.58 5.22-3.87.38.61.56 2.2-1.74 3.63-1.27.8-2.5.98-3.48.91v.45c1.76-.14 5.22-1.09 5.46-4 .18.68.05 2.4-1.97 3.56a9.4 9.4 0 0 1-3.4 1.34c.05.1.1.17.16.24 1.78-.2 5.16-1.32 5.4-4.2.18.68-.14 2.63-2.16 3.79l-.7.4-.64.38h4.79c.59 0 1.06-.46 1.06-1.04V6.04C13 5.46 12.53 5 11.94 5H6.06Z" fill="#013D71"/><circle cx="10.5" cy="7.5" r="1.5" fill="#F7E018"/></svg>