<!-- by TradingView --><svg width="18" height="18" viewBox="0 0 18 18" xmlns="http://www.w3.org/2000/svg"><path fill="#F0F3FA" d="M0 0h18v18H0z"/><path d="M2.5 7H2v4h.5V7Z" fill="#9E1224"/><path d="M5 8.5H4V9h1v-.5ZM7.15 9.12c.63 0 .95-.16.95-.88 0-.65-.34-.97-1.02-.97H6.5v1.85h.65ZM6 7h1.15c.96 0 1.54.44 1.54 1.22 0 .64-.35.92-.88 1.1L9 11h-.63l-1.1-1.6H6.5V11H6V7Z" fill="#382424"/><path d="M10 11V7h2v.3h-1.5v1.59h1.17v.28H10.5V11H10ZM15.4 7 14 8.75l-.5.43V7H13v4h.5V9.53l.47-.39L15.4 11H16l-1.67-2.22L15.8 7h-.4Z" fill="#21211F"/></svg>