<!-- by TradingView --><svg width="18" height="18" viewBox="0 0 18 18" xmlns="http://www.w3.org/2000/svg"><path fill="#F0F3FA" d="M0 0h18v18H0z"/><path d="M6.5 6.56a.84.84 0 0 1-.62.26.84.84 0 0 1-.63-.26A.9.9 0 0 1 5 5.9a.9.9 0 0 1 .25-.65.84.84 0 0 1 .63-.26c.24 0 .45.1.62.26.17.18.25.4.25.65a.9.9 0 0 1-.25.65Zm.75 4.77c-.3-.07-.83-.3-.82-.74V7.88c0-.5-.23-.88-.71-.88-.49 0-.72.38-.72.88V10.66c.03.94.58 1.74 1.35 2.12.3.14.8.22 1.14.22.35 0 .68-.08.97-.22a2.42 2.42 0 0 0 1.35-2.01c-.41.28-1.9.69-2.56.56Zm4-4.33c.56 0 .98.2 1.29.59.3.4.45.9.46 1.54v2.99c0 .27-.07.49-.2.65a.66.66 0 0 1-.54.23.67.67 0 0 1-.53-.23.94.94 0 0 1-.2-.65V9.45c0-.54-.25-1.05-.81-1.05-.52 0-.85.52-.85 1.05v.98l-.11.06c-.29.16-.64.35-1.4.5.05-.1.12-.26.12-.4V7.94c0-.28.04-.5.18-.65a.66.66 0 0 1 .53-.23c.39 0 .62.2.7.6h.02c.3-.44.75-.66 1.35-.66Z"/></svg>