<!-- by TradingView --><svg width="18" height="18" viewBox="0 0 18 18" xmlns="http://www.w3.org/2000/svg"><path fill="#F0F3FA" d="M0 0h18v18H0z"/><path fill-rule="evenodd" d="M5 14V7.33c.02-1.06.86-3.4 4.08-4.33 1.3.36 3.92 1.73 3.92 4.33V14H5Zm1-1V7.58c.01-.87.7-2.8 3.06-3.58.96.3 2.94 1.43 2.94 3.58V13H6Z" fill="url(#aqvu3mqip)"/><path fill-rule="evenodd" d="M7 13V7.54C7 6.87 7.43 5.6 9.04 5c.65.23 1.96.9 1.96 2.54V13H7Zm.68-1.3V8.05c0-.52.34-1.6 1.34-2.06.4.18 1.3.78 1.3 2.06v3.63H7.68Z" fill="#CFD1D0"/><path fill-rule="evenodd" d="M7.67 12h2.66V7.13c-.05-.28-.39-.9-1.35-1.13-.38.08-1.17.42-1.3 1.13V12Zm.33-.5h2V7.26c-.04-.23-.29-.58-1.02-.76-.3.07-.88.2-.98.76v4.24Z" fill="url(#bqvu3mqip)"/><defs><linearGradient id="aqvu3mqip" x1="3.91" y1="14.34" x2="10.08" y2="4.87" gradientUnits="userSpaceOnUse"><stop offset=".1" stop-color="#004D77"/><stop offset="1" stop-color="#0097CA"/></linearGradient><linearGradient id="bqvu3mqip" x1="7.67" y1="12.09" x2="9.81" y2="5.91" gradientUnits="userSpaceOnUse"><stop offset=".64" stop-color="#00742F"/><stop offset="1" stop-color="#05A34D"/></linearGradient></defs></svg>