<!-- by TradingView --><svg width="18" height="18" viewBox="0 0 18 18" xmlns="http://www.w3.org/2000/svg"><path fill="#F0F3FA" d="M0 0h18v18H0z"/><path fill-rule="evenodd" d="M6.18 9.15v.02l-.01.82c0 .15-.03.42-.06.82l-.07.72a8.9 8.9 0 0 1-.1.72l-.21 1.38-.07.36-.07.34a1.4 1.4 0 0 0-.02.33c.03.19.1.29.25.31.14.02.36.05.48 0 .09-.03.13-.15.16-.25.05-.2.07-.41.1-.61 0-.12.02-.23.03-.34.03-.16.05-.33.06-.49a11.61 11.61 0 0 1 .16-1.6l.1-1.64c0-.29.04-.53.08-.81 0-.04.03-.07.07-.07h.27c.02 0 .03 0 .05.02l.02.04a24.21 24.21 0 0 1 .33 2.08l.05.26c.03.16.06.33.06.46.01.14.03.28.07.41.03.12.06.26.07.41.01.1.05.21.08.3l.05.23.1.52c.03.1.06.23.08.4.03.2.09.4.17.58.03.06.07.1.11.1.17.04.6.03.65-.2.06-.23 0-.54-.06-.73l-.11-.34c-.2-.74-.34-1.41-.42-2l-.14-.82a12.17 12.17 0 0 1-.25-1.73.07.07 0 0 1 .05-.03l.43-.02a.9.9 0 0 0 .3-.08c.25-.1.28-.35.24-.6-.03-.23-.17-.26-.36-.3h-.18l-.04-.01a.2.2 0 0 0-.13-.02l-.11.01c-.26.02-.5.04-.72.08-.16.02-.15-.14-.15-.28v-.05c0-.06 0-.13-.02-.22a1.6 1.6 0 0 1-.02-.32v-.15a9.67 9.67 0 0 1 .03-1.24c.05-.02.1 0 .16.03.19.15.3.34.34.6l.04.2c.02.1.04.16.03.2v.47c0 .1.03.17.1.21.18.11.52.2.72.09.04-.03.07-.07.08-.13.05-.19.05-.38 0-.58-.06-.22-.13-.48-.23-.78a5.67 5.67 0 0 1-.19-.4c-.05-.1-.1-.2-.16-.28a5.61 5.61 0 0 1-.3-.49 3.5 3.5 0 0 0-.6-.43c-.06-.03-.1-.08-.1-.13a.97.97 0 0 1 .07-.44.33.33 0 0 0 .02-.19 2.29 2.29 0 0 1-.02-.44c0-.11 0-.2-.03-.24a.33.33 0 0 0-.21-.16A1.65 1.65 0 0 0 6.85 3l-.2.1c-.08.03-.1.08-.1.16-.04.3 0 .6.1.9.02.08.02.18 0 .3-.02.04-.01.08 0 .11v.06c0 .02 0 .03-.02.04a2.72 2.72 0 0 0-.73.56c-.07.15-.15.3-.25.46-.06.08-.1.16-.13.23l-.08.17c-.05.07-.1.17-.13.3l-.18.6c-.07.23-.07.45-.03.68.02.07.05.12.1.13l.16.06.18-.01.27-.09c.1-.05.18-.1.2-.25L6 7.11c0-.05 0-.14.03-.25l.05-.25a.82.82 0 0 1 .4-.61c.07-.04.14-.03.21.04l.02.03.01.24A14.75 14.75 0 0 0 6.7 8c0 .04 0 .08-.02.11a.05.05 0 0 1-.03.03 54.55 54.55 0 0 1-1.4.09c-.1 0-.18.06-.21.14-.04.1-.08.53.06.6.11.07.25.11.4.13a8.2 8.2 0 0 0 .68.05Zm4.4-2.9.01.03a.07.07 0 0 0 .06.03l.03-.01a.2.2 0 0 1 .13-.03l.13.01.99.03c.1 0 .24-.04.25-.16.03-.25.01-.57-.04-.95a2.77 2.77 0 0 1 0-.63c.01-.14.1-.44.26-.47.17-.04.31.03.4.2.08.12.13.26.16.4.02.1.03.25.02.44 0 .56 0 1.1.02 1.62l-.01.46c-.02.31-.02.66-.02.97l-.01.6-.05.28c-.02.1-.05.2-.1.26-.04.06-.08.12-.11.2-.1.18-.37.3-.53.34-.51.13-1.02.12-1.52-.03l-.05-.02c-.18-.05-.32-.1-.4-.23a.89.89 0 0 0-.12-.16.54.54 0 0 1-.14-.27l-.12-.77a14.41 14.41 0 0 1-.1-1.63l-.01-.06c-.02-.07-.04-.15-.03-.22v-.04l.01-.11c-.02-.3-.02-.59 0-.88l-.01-.51c0-.15.02-.28.05-.43v-.04c.03-.15.15-.34.3-.35.04 0 .07 0 .11.03.26.17.36.45.37.75v.6c0 .13.01.3.05.5v.11c0 .05 0 .1.02.14Zm.16 2.52c-.14-.08-.21-.22-.23-.41a5.01 5.01 0 0 1 .04-.9c.07-.18.31-.27.5-.27.25 0 .51.02.77.06.1.02.2.07.26.16.02.02.05.1.1.26.02.08.02.17.01.27v.11c-.03.27-.05.5-.2.68-.05.06-.15.11-.31.15-.25.06-.45.08-.6.07-.11 0-.18-.02-.2-.06a.7.7 0 0 0-.14-.12Z" fill="#DE0010"/></svg>