<!-- by TradingView --><svg width="18" height="18" viewBox="0 0 18 18" xmlns="http://www.w3.org/2000/svg"><path fill="#F0F3FA" d="M0 0h18v18H0z"/><path d="m8.58 8.15 1.13-.32c.04-.01.08 0 .1.03l.25.48c.03.05.01.08-.06.1-.54.06-1.13.14-1.75.23-.08.02-.12.03-.15.1a4.9 4.9 0 0 0-.57 2.37v2.1c0 .58.04 1.17.07 1.73 0 .02-.01.03-.04.03h-.3c-.03 0-.04-.01-.04-.03l-.17-1.53c-.09-.72-.13-1.41-.12-2.07 0-.85.12-1.73.45-2.54 0-.02-.01-.03-.03-.03l-1.3.18c-.03 0-.05-.01-.05-.05 0-.03.04-.06.07-.07l1.4-.4c.13-.04.17-.13.23-.23a3.07 3.07 0 0 1 2.4-1.35c.35-.04.67-.1.96-.28.16-.1.15-.25-.05-.3-.32-.1-.65-.1-.99-.07l-2.97.24c-.1.01-.3.01-.35-.07-.13-.2-.26-.55 0-.7A8.15 8.15 0 0 1 8.39 5c.37-.1 1.62-.24 1.86-.55.15-.2.39-.7-.03-.82-.14-.03-.26 0-.34.1-.2.23-.37.41-.53.55-.08.07-.19.1-.32.08-.32-.06-.21-.38-.09-.55.16-.2.45-.73.74-.78.47-.08.87.02 1.19.3.26.22.37.48.33.78a.77.77 0 0 1-.37.54c-.44.3-.88.45-1.46.6-.6.15-1.23.26-1.76.53-.08.04-.13.08-.15.13-.03.07.36.09.42.08.5-.03 1-.08 1.5-.16s.84-.12 1.04-.12c.4 0 .75.07 1.06.2.46.2.74.63.32.99-.28.24-.62.36-1.02.37l-.45.02c-.7.08-1.29.36-1.74.83 0 0-.02.04 0 .03Z" fill="#262324"/></svg>