<!-- by TradingView --><svg width="18" height="18" viewBox="0 0 18 18" xmlns="http://www.w3.org/2000/svg"><path fill="#F0F3FA" d="M0 0h18v18H0z"/><path d="M9 3a6 6 0 1 1 0 12A6 6 0 0 1 9 3Z" fill="#C02F23"/><path d="M8.63 5.63a3 3 0 1 1 0 6 3 3 0 0 1 0-6Z" fill="#D56F36"/><path d="M8.5 6a2.5 2.5 0 1 1 0 5 2.5 2.5 0 0 1 0-5Z" fill="#E38934"/><path d="M8.25 6.37a1.87 1.87 0 1 1 0 3.75 1.87 1.87 0 0 1 0-3.75Z" fill="#E2A243"/><path d="M8 7a1 1 0 1 1 0 2 1 1 0 0 1 0-2Z" fill="#FFD746"/><path fill-rule="evenodd" d="M15 9A6 6 0 1 0 3 9a6 6 0 0 0 12 0Zm-2 0a4 4 0 1 0-8 0 4 4 0 0 0 8 0Z" fill="url(#a5yhasa43)"/><path opacity=".3" d="M8.31 4.04A5.01 5.01 0 0 0 4.6 6.69l.48.3a4.45 4.45 0 0 1 3.24-2.37v-.58ZM4 9.09c0-.68.13-1.33.37-1.93l.53.22a4.59 4.59 0 0 0 1.42 5.32l-.33.47A5.13 5.13 0 0 1 4 9.09Zm6.95 4.7a5.1 5.1 0 0 0 3.01-4h-.57a4.52 4.52 0 0 1-2.73 3.5l.29.5Zm1.35-8.54c.97.86 1.6 2.1 1.7 3.49h-.57a4.55 4.55 0 0 0-1.51-3.07l.38-.42Zm-1.38-.88A4.9 4.9 0 0 0 9.35 4v.58c.44.03.86.13 1.26.29l.3-.5Z" fill="url(#b5yhasa43)"/><path d="m11.74 5.81.78-.44.35 3-.74.37-.39-2.93ZM9.61 6.85l-.87.36.13 3.03.72-.35.01-1.35.45 1.11.6-.22-.01-1.7.37 1.5.73-.35-.64-2.76-.81.36-.15 1.67-.53-1.3ZM8 7.99l.17.83-.29.04c-.83.21-.52 1.2-.15 1.2.38 0 .56-.4.56-.4l.09.96c-.68.73-1.88.4-1.88-1.1S8 8 8 8ZM5.37 9.2l.77-.45.35 3-.74.38-.38-2.93Z" fill="#8B8993"/><path d="m11.63 5.7.77-.45.35 3-.74.38-.38-2.93ZM9.48 6.73l-.87.36.13 3.04.72-.35.01-1.35.45 1.1.6-.21-.01-1.71.37 1.5.73-.34L10.98 6l-.81.36-.15 1.67-.53-1.3ZM7.87 7.87l.17.84-.29.03c-.83.22-.52 1.2-.14 1.2.37 0 .55-.4.55-.4l.09.96c-.67.73-1.88.4-1.88-1.1s1.5-1.53 1.5-1.53Zm-2.62 1.2.78-.45.34 3-.74.38-.38-2.93Z" fill="url(#c5yhasa43)"/><path fill-rule="evenodd" d="M9 14.7A5.7 5.7 0 1 0 9 3.3a5.7 5.7 0 0 0 0 11.4Zm0 .3A6 6 0 1 0 9 3a6 6 0 0 0 0 12Z"/><defs><linearGradient id="a5yhasa43" x1="13.69" y1="5.06" x2="4.31" y2="12.56" gradientUnits="userSpaceOnUse"><stop offset=".07" stop-color="#fff"/><stop offset=".39" stop-color="#8C8C8C"/><stop offset=".85" stop-color="#fff"/></linearGradient><linearGradient id="b5yhasa43" x1="9" y1="4" x2="9" y2="13.8"><stop offset="1" stop-color="#181B1E"/></linearGradient><linearGradient id="c5yhasa43" x1="12.75" y1="5.44" x2="4.88" y2="12" gradientUnits="userSpaceOnUse"><stop offset=".07" stop-color="#ECECEC"/><stop offset=".3" stop-color="#8A8887"/><stop offset=".46" stop-color="#FBF9F5"/><stop offset=".62" stop-color="#45453D"/><stop offset=".77" stop-color="#fff"/></linearGradient></defs></svg>