<!-- by TradingView --><svg width="18" height="18" viewBox="0 0 18 18" xmlns="http://www.w3.org/2000/svg"><path fill="#F0F3FA" d="M0 0h18v18H0z"/><path d="m9.96 4 .41.03a3 3 0 0 1 1.04.39 2.84 2.84 0 0 1 .46.37l-.66.64h-.02A1.6 1.6 0 0 0 10.4 5a2.28 2.28 0 0 0-.7-.06c-.17.01-.27.01-.4.04a7.37 7.37 0 0 0-5.06 3.98c-.09.2-.16.4-.21.6-.12.47-.12 1 .02 1.46.05.17.11.31.2.44.2.3.5.5.88.58.2.04.43.03.63 0 .22-.03.43-.08.61-.14a17.83 17.83 0 0 0 1.6-.69c-.02-1.2.82-2.25 1.81-2.89a2.3 2.3 0 0 1 1.17-.42c.3 0 .53.1.71.31.2.24.23.6.16.88a2 2 0 0 1-.31.69 6.45 6.45 0 0 1-1.22 1.19 9.12 9.12 0 0 1-1.22.78c.12.14.27.23.46.27.18.04.35.06.5.05.35-.01.68-.07 1-.18a6.09 6.09 0 0 0 3.19-2.32l.77.5v.01a7 7 0 0 1-4.02 2.8c-.28.07-.57.1-.9.12h-.16c-.19 0-.38-.03-.57-.07-.2-.04-.4-.12-.58-.23a1.54 1.54 0 0 1-.55-.54H8.2c-.45.22-.95.45-1.46.61a5.4 5.4 0 0 1-1.19.23h-.17c-.4-.01-.76-.1-1.1-.29a2.25 2.25 0 0 1-1.11-1.36c-.1-.3-.16-.62-.17-.94v-.3a4.37 4.37 0 0 1 .49-1.77 8.28 8.28 0 0 1 4.98-4.12c.41-.13.85-.2 1.3-.22h.19Zm-1.2 6.77.02.01h.02c.1-.03.18-.06.25-.1a7.97 7.97 0 0 0 1.58-1.22l.22-.28c.07-.12.15-.28.04-.4-.1-.1-.3-.07-.43-.02a2.1 2.1 0 0 0-.44.24 3.5 3.5 0 0 0-1.12 1.3c-.06.13-.18.36-.14.47Z" fill="#0C025F"/><path d="M13.02 7.36c.3-.3.4-.69.2-.88-.2-.2-.6-.12-.91.17-.3.3-.4.69-.2.88.19.2.6.12.9-.17Z" fill="#929199"/></svg>