<!-- by TradingView --><svg width="18" height="18" viewBox="0 0 18 18" xmlns="http://www.w3.org/2000/svg"><path fill="#F0F3FA" d="M0 0h18v18H0z"/><path d="m8.86 10.14-1.1-.12-.11-.02H7.6a.48.48 0 0 0-.21.05.43.43 0 0 0-.17.15l-2.16 3.25c-.1.15-.09.3.04.4l.11.08a.34.34 0 0 0 .45-.03l3.25-3.35c.03-.04.06-.1.07-.15a.32.32 0 0 0 0-.16.15.15 0 0 0-.05-.07.17.17 0 0 0-.08-.03ZM6.03 4.23a.28.28 0 0 0-.01.23l1.69 4.32c.04.1.17.22.3.22.05 0 .1-.02.14-.06l.7-.84.07-.1a.4.4 0 0 0 .02-.45L6.8 4.2a.34.34 0 0 0-.13-.13.4.4 0 0 0-.19-.06c-.04 0-.08 0-.11.02l-.15.05a.34.34 0 0 0-.11.06.3.3 0 0 0-.08.1ZM14.6 10c.2 0 .34-.08.37-.24.02-.07.04-.16.02-.24a.31.31 0 0 0-.26-.21l-4.98-.82a.45.45 0 0 0-.18.01c-.08.03-.19.08-.2.17 0 .03 0 .05.02.07l.45.94c.04.1.1.2.22.26a.5.5 0 0 0 .24.06h4.3Z" fill="#0081FD"/></svg>