<!-- by TradingView --><svg width="18" height="18" viewBox="0 0 18 18" xmlns="http://www.w3.org/2000/svg"><path fill="#F0F3FA" d="M0 0h18v18H0z"/><path d="M4.67 4.77v8.44c0 .04.02.08.06.08h2c.11 0 .19.04.22.15l.15.4c.03.1 0 .16-.11.16H4.03c-.02 0-.03-.01-.03-.04V4.03c0-.02.01-.03.03-.03h9.21a1 1 0 0 1 .38.08c.03 0 .04.02.05.05 0 .03-.01.05-.03.07-.64.46-1.58.51-2.82.51H4.74c-.05 0-.07.02-.07.06Zm6.32 1.58 2.54-1.09h.04v.04l-4.08 8.65-.02.02H7.59c-.01 0-.02 0-.02-.02L5.53 6.57c-.01-.03 0-.04.03-.03l1.87.48c.01 0 .02 0 .02.02l1.27 5.63.02.02c.02 0 .03 0 .03-.02l2.2-6.3c0-.01 0-.02.02-.02Zm2.34 6.91c0 .02-.01.03-.03.03h-2.88c-.1 0-.16.04-.2.14l-.2.4c-.05.12-.01.17.1.17h3.83c.03 0 .05-.02.05-.05V6.8a.65.65 0 0 0-.05-.25.07.07 0 0 0-.06-.05c-.03 0-.06 0-.08.03-.18.27-.23.56-.3.87l-.06.32c-.09.38-.12.83-.12 1.36v4.18Z" fill="#1860C5"/></svg>