<!-- by TradingView --><svg width="18" height="18" viewBox="0 0 18 18" xmlns="http://www.w3.org/2000/svg"><path fill="#F0F3FA" d="M0 0h18v18H0z"/><path d="m8 4-1 .22V5l1-.22V4ZM11 4l-1 .22V5l1-.22V4Z" fill="#2B2B2A"/><path fill-rule="evenodd" d="M13 8.98c0-3.34-4.01-2.97-4.01-2.97S5 6.16 5 10.2c0 3.87 3.07 3.82 3.72 3.8a4.16 4.16 0 0 1 .21 0c.5.02 1.35.04 2.44-.81l.36-.28c.93-.69 1.27-.94 1.27-3.92Zm-1 .68c0-3.04-3.32-2.64-3.32-2.64s-1.62.03-2.2.47c-.57.43-.68 2.96-.07 4.28C6.98 13.01 8.34 13 9.75 13h.28c1.51 0 1.97-.3 1.97-3.34Z" fill="#2B2B2A"/></svg>