<!-- by TradingView --><svg width="18" height="18" viewBox="0 0 18 18" xmlns="http://www.w3.org/2000/svg"><path fill="#F0F3FA" d="M0 0h18v18H0z"/><path d="M10.88 6.71A9.7 9.7 0 0 1 4.15 4c.77 1.61 3.09 5.02 6.25 5.75 2-1 2.9-3.06 3.1-3.97-.72.73-2.05.93-2.62.93Z" fill="url(#a4bv4l5ra)"/><path d="M9.3 15C6.54 11.97 4.62 6.56 4 4.23c.66 1.59 2.8 4.94 6.18 5.72L9.31 15Z" fill="url(#b4bv4l5ra)"/><path d="m10.53 9.99-.96 4.92c.64-.93 2.28-3.8 3.73-7.82a6.14 6.14 0 0 1-2.77 2.9Z" fill="#2C386A"/><defs><linearGradient id="a4bv4l5ra" x1="5.22" y1="5.38" x2="8.23" y2="9.97" gradientUnits="userSpaceOnUse"><stop offset=".04" stop-color="#134C9B"/><stop offset=".48" stop-color="#0D85C1"/><stop offset="1" stop-color="#104B91"/></linearGradient><linearGradient id="b4bv4l5ra" x1="2.73" y1="8.48" x2="8.94" y2="13.5" gradientUnits="userSpaceOnUse"><stop stop-color="#0064B6"/><stop offset=".55" stop-color="#0D96CC"/><stop offset="1" stop-color="#174A8B"/></linearGradient></defs></svg>