<!-- by TradingView --><svg width="18" height="18" viewBox="0 0 18 18" xmlns="http://www.w3.org/2000/svg"><path fill="url(#a4zxapb4j)" d="M0 0h18v18H0z"/><path d="M4.55 6.7a.85.85 0 1 0 0-1.7.85.85 0 0 0 0 1.7ZM14 9.02A2.89 2.89 0 0 0 11 6C9.15 6 8 7.33 8 9.02 8 10.68 9.17 12 11 12c1.83 0 3-1.3 3-2.98Zm1 0A3.86 3.86 0 0 1 11.02 13 3.87 3.87 0 0 1 7 9.02 3.9 3.9 0 0 1 11.02 5 3.88 3.88 0 0 1 15 9.02ZM4 8h1v5H4V8Z" fill="#fff"/><defs><linearGradient id="a4zxapb4j" x1="3.35" y1="3.12" x2="21.9" y2="24.43" gradientUnits="userSpaceOnUse"><stop stop-color="#1A1E21"/><stop offset="1" stop-color="#06060A"/></linearGradient></defs></svg>