<!-- by TradingView --><svg width="18" height="18" viewBox="0 0 18 18" xmlns="http://www.w3.org/2000/svg"><path fill="#F0F3FA" d="M0 0h18v18H0z"/><path d="m8.94 4.41.83.04-.15.08.27 1.11.88-.83-.06-.18.67.35-.23.03-1.2 1.05.03.14-.5-.1.14-.11-.52-1.46-.16-.12Zm-1.1.18c-.48.13-1.15.51-1.42.69l.17.04.56 1.17-.02.18.54-.3-.15-.05-.21-.48.5-.21.52.41-.03.14.56-.11-.17-.1-.45-.51c.22-.1.7-.4.5-.73-.17-.27-.67-.2-.9-.14Zm-.56 1-.2-.42.82-.32c.13-.04.39-.08.44.08.04.15-.1.26-.17.3l-.9.36Zm-1.77.49.84.96v.2l.52-.41-.18-.04-.7-1.12.03-.16-.68.57h.17Zm6.69 4.7c-.02-.2-.07-.74-.07-1.21.01-.6.47-1.2.96-1.2.48 0 .65.65.65 1.25 0 .48-.22.93-.33 1.1l.05.2-.37-.35c.12-.1.37-.45.37-1 0-.69-.3-.7-.43-.7-.12 0-.8.1-.62 1.45l.23.05.12-.62-.12-.06h.39l-.1.06-.17 1.18-.12-.15-.34-.1-.1.1Zm-1.17-4-.4-.26.13-.06.76-1.25v-.16l.52.4h-.13l-.88 1.19v.15Zm.17.18.27.31.03-.11.76-.71A4 4 0 0 1 12 7.93h-.14l.2.47.03-.13 1.35-.55.12.08-.25-.64-.07.22-.83.37a5 5 0 0 0 .23-1.5c-.06 0 .11-.03.18-.03l-.5-.56v.16L11.3 6.94l-.1.02Z" fill="#4BCF22"/><path d="M4 11.46a.61.61 0 0 1 .11-.18l.05.07c.02.05.04.11.07.09.05-.04.13-.23.11-.37a1.08 1.08 0 0 0-.38-.7c-.15-.13-.24-.23-.24-.41 0-.14-.04-.35-.08-.55a4.96 4.96 0 0 1-.05-.31c-.03-.24-.09-1.06.05-1.25.04-.06.12-.12.2-.19.17-.13.35-.28.36-.47 0-.26.1-.35.19-.44 0-.02.02-.03.03-.04.05-.05.15-.2.26-.36l.36-.48.2-.18c.2-.15.43-.35.46-.43a13 13 0 0 1 .15-.3l.1-.05c.11-.04.35-.14.78-.35C7.26 4.3 7.8 4.1 8 4.03h1.78l.79.23c.4.1.86.32.94.37l.05.05c.03.03.04.05.12.04a.9.9 0 0 0 .22-.05c.06.08.19.27.31.39.05.05.1.08.15.11.12.07.24.15.37.4.1.2.19.3.3.43.1.13.23.28.4.53.31.51.58 1.2.58 1.23 0 .03 0 .29.06.39.05.07.06.24.07.42v.15c.01.16.05.21.1.28l.09.14c.1.18.2.5.1.52-.07 0-.1-.08-.12-.15l-.05-.1c-.05-.04-.12.53-.12.63 0 .04 0 .05-.02.06-.02.02-.05.05-.05.25v.16c.02.24.02.44-.19.65-.26.26-.57.77-.54.93.03.13-.15.27-.36.44l-.18.15c-.23.2-.51.46-.62.58.02.06.04.2-.08.2-.15 0-.44.13-.67.28-.2.11-.3.15-.43.2l-.1.03-.38.11c-.24.07-.52.14-.64.2-.2.1-.77.1-.9-.02-.1-.1-.28-.1-.44-.1h-.12c-.08 0-.18.02-.3.04-.15.03-.33.07-.44.03-.09-.03-.12-.1-.15-.15-.04-.07-.07-.12-.17-.07a.48.48 0 0 0-.17.13c-.03.04-.05.06-.1.02-.07-.08-.3-.31-.67-.55a2.69 2.69 0 0 1-.57-.4l-.3-.38-.02-.04a1.4 1.4 0 0 0-.23-.13c-.11-.06-.22-.11-.22-.13 0-.02-.04-.11-.14-.11-.09 0-.18.03-.2.1v.01c-.02.05-.03.06-.08.05-.06-.03-.13-.05-.13 0 0 .02.01.03.04.06a6.5 6.5 0 0 0 .4.47c.06.08.11.13.11.15 0 .03.1.06.15.07-.04.04-.1.12 0 .16l.13.01c.08 0 .18 0 .32.13.12.1.17.23.22.34.03.1.07.17.12.19.04.02.1.02.15.02.1 0 .22 0 .34.1.1.1.13.2.16.28.02.08.04.14.1.18l.03.01c.15.09.48.28 1.23.25.79-.04 1.39-.22 1.22-.3-.08-.03-.18-.03-.25-.04-.09 0-.13 0-.06-.04l.02-.02c.13-.07.29-.15.38-.09l.05.04c.06.06.13.13.46.16.39.03.69 0 .99-.05h.03c.25-.04.71-.32.92-.46l1.08-.67c.17-.11.53-.35.56-.4a.79.79 0 0 0 .13-.35v-.1c-.02-.07-.04-.12.09-.23l.08-.07c.21-.17.59-.47.63-.7.04-.27.11-.43.25-.65.13-.21.2-.43.2-.86 0-.26-.04-.47-.07-.63-.02-.1-.04-.2-.04-.28 0-.22 0-.52.13-.7.13-.17.2-.3.16-.54-.02-.24-.13-.28-.27-.3-.13-.03-.06-.17 0-.27v-.01c.06-.1.07-.73-.27-1.2-.34-.46-.72-.97-.76-.98-.02 0-.02 0-.03.02 0 .02-.02.05-.1.02-.04-.01-.1-.09-.19-.2-.12-.16-.3-.39-.57-.58-.26-.19-.4-.25-.48-.29a.33.33 0 0 1-.15-.1.56.56 0 0 1-.1-.14c-.12-.15-.26-.36-.41-.38a.87.87 0 0 1-.2-.07c-.1-.05-.19-.08-.28-.03l-.05.04c-.1.06-.15.09-.23.06l-.07-.04a.5.5 0 0 0-.26-.06h-.02c-.18 0-.42 0-.51-.09-.09-.1-.12-.1-.19-.09-.07.01-.16-.08-.18-.18-.02-.09-.07-.1-.16-.1l-.1-.03a4.68 4.68 0 0 0-1.07.02c-.13.01-.25.02-.34.1l-.04.04c-.08.08-.1.1-.2.1a.35.35 0 0 0-.16.03.6.6 0 0 1-.16.05h-.17c-.05 0-.1 0-.1.03s.02.05.04.07c.02.04.05.08 0 .15-.06.1-.29.26-.32.18-.02-.05 0-.07.03-.1A.31.31 0 0 0 7 3.61c.07-.12-.03-.15-.09-.12a.39.39 0 0 0-.07.06.67.67 0 0 1-.2.15c-.14.06-.33.1-.5.11a1.2 1.2 0 0 0-.58.32c-.03.04-.02.04 0 .05 0 0 .02.01 0 .09-.06.13-.19.14-.25.1-.04-.03-.12.05-.29.22l-.19.2c-.3.29-.68.86-.8 1.3-.04.18-.04.29-.04.37 0 .12 0 .18-.16.34l-.2.18c-.08.06-.1.07-.11.2-.01.1 0 .19.02.27.02.14.04.27-.02.38l-.08.13c-.12.2-.3.5-.38.88-.07.38-.06.94-.05 1.18.03.13.15.42.36.56l.17.1c.15.1.25.17.31.26.1.13.1.17.07.32s.01.22.07.2Zm2.2-1.21a.82.82 0 0 0-.02-.38c-.02-.06-.05-.07-.06-.08-.03-.02-.05-.03-.07-.15a3.2 3.2 0 0 1 .05-.79c0-.09.07-.42.15-.58a.78.78 0 0 1 .12-.19.55.55 0 0 0 .11-.19c.05-.11.12-.3.23-.44.06-.1.26-.26.42-.39.14-.11.26-.2.28-.25.04-.07.21-.14.37-.2l.12-.06c.17-.08.53-.14.63-.13l.26-.03a1.5 1.5 0 0 1 .87.08c.05.04.15.06.27.09a1.78 1.78 0 0 1 .85.4c.03.05.04.11.05.18l.03.15.03.1c.01.05.01.07.06.08.02 0 .04 0 .06-.02.03-.01.06-.03.09.02s.03.1.04.14v.04l.05.02c.04 0 .1.01.1.05.02.03.02.07.02.1l.01.11.07.02c.07.02.16.05.2.14.07.13.17.4.19.55 0 .08.02.12.04.16l.05.14a3 3 0 0 1 .05.9 3.85 3.85 0 0 1-.4.89l-.08.11-.06.15c-.03.08-.06.15-.1.16h-.01c-.06 0-.15 0-.17.07v.06c.01.04.02.08-.09.12-.07.02-.17.1-.28.17-.14.1-.3.22-.45.27a.8.8 0 0 0-.19.1c-.07.05-.13.08-.37.1l-.15.02c-.27.02-.37.03-.4 0h-.03c-.02-.01-.04-.02 0-.08l.02-.05c-.01 0-.05.02-.1-.04l-.02-.03c-.07-.07-.11-.12.04-.1.17.03.24.01.63-.12.3-.1.58-.24.68-.29.02-.01.07-.02.08.03.01.07.14-.12.2-.23.05-.11.15-.19.3-.23.08-.02.08-.05.08-.1a.26.26 0 0 1 .04-.14c.08-.17.36-.7.38-.9l.03-.19c.02-.15.05-.3 0-.48a.8.8 0 0 0-.1-.24c-.02-.04-.03-.06 0-.08.01-.03.05-.06.09-.08l.06-.04-.04-.02a.24.24 0 0 1-.19-.1c-.06-.1-.05-.14-.05-.18v-.04c0-.06-.06-.2-.13-.27-.06-.06-.15-.14-.1-.21v-.01c.04-.07.06-.1 0-.14-.04-.02-.07-.02-.1-.02-.04 0-.08 0-.11-.05a2.18 2.18 0 0 0-1.03-.7 7 7 0 0 0-1.1-.15h-.15c-.12-.01-.22-.02-.31.03a.42.42 0 0 0-.08.06c-.04.03-.06.05-.18.06h-.04c-.16.02-.2.03-.26.08-.05.05-.16.2-.2.28-.16.07-.52.34-.76.81-.18.36-.24.56-.27.67-.02.08-.03.11-.05.12l-.06.02c-.05 0-.07 0-.07.06.02.09.06.2.13.19.03 0 .02-.04.02-.07 0-.03 0-.05.01-.04.05 0 .06.21.03.34-.03.12 0 .3.03.36 0 .02.02.03.03.04.02.03.05.06.06.18.01.16.07.38.14.49.07.1.15.21.2.25h.05c.04 0 .07 0 .06.06 0 .03 0 .06-.02.1-.02.08-.04.15.02.16a.3.3 0 0 0 .13-.04c.04-.02.07-.03.08 0v.05c-.02.04-.03.1.03.12h.07c.03 0 .06 0 .11.04l.07.08c.03.05.07.1.2.14.1.03.16.03.22.03.05 0 .1 0 .13.04l.02.01c.07.07.2.2.34.23l.2.01c.05 0 .09 0 .11.02l.05.03c.05.02.11.06.16.14l.06.08c.04.05.05.06-.03.07-.12.02-.52.05-.79-.04a3.45 3.45 0 0 1-.6-.26c-.03 0-.04-.04-.06-.07-.03-.05-.06-.11-.14-.13h-.1c-.04.01-.07.01-.14-.05l-.1-.08a.32.32 0 0 1-.14-.16c-.04-.13-.07-.14-.14-.17-.08-.04-.11-.15-.12-.24 0-.07-.08-.13-.17-.2l-.08-.07c-.12-.1-.22-.25-.2-.36Z" fill="#4BCF22"/><path d="M8.15 8.32a.76.76 0 0 1-.17-.43c0-.28.2-.47.45-.56.25-.1.54-.1.67.09.14.18.05.53-.1.85-.15.32-.32.36-.45.36-.12 0-.22-.06-.4-.31Zm-1.12-.01a.61.61 0 0 0-.1.53c0 .36.43.52.73.52s.32-.27.32-.7c0-.45-.18-.68-.46-.68-.24 0-.3.07-.42.23l-.07.1Zm2.3.07c-.03.22.03.65.54.65.64 0 .74-.76.74-.96 0-.2-.02-.55-.48-.55-.45 0-.8.52-.8.86Zm.78 1.12c-.23.15-.25.34-.23.42 0 .18.13.27.51.27s.61-.27.61-.5c0-.25-.03-.44-.25-.44s-.36.06-.64.25Zm-2.6.08c.08-.01.27-.04.43-.1.15-.05.34-.26.42-.35.03-.06.16-.18.4-.18.31 0 .41.11.56.3a1 1 0 0 1 .26.63c.01.23.23.45.34.53.07.05.21.2.21.35 0 .2-.19.34-.62.34-.25 0-.45-.13-.63-.25a1 1 0 0 0-.39-.19c-.18-.02-.33 0-.46.04a1 1 0 0 1-.25.03c-.21 0-.64-.26-.64-.56 0-.29.11-.54.38-.6Z" fill="#CDBC24"/><path opacity=".7" d="M5.8 12.35a4.19 4.19 0 0 1-.76-4.77l.9.44c-.33.66-.75 2.23.58 3.65.63.66 1.57.87 2.54.78a4.64 4.64 0 0 0 2.32-.83l.64.78a5.6 5.6 0 0 1-2.86 1.04 4 4 0 0 1-3.36-1.09Z" fill="#757575"/></svg>