<!-- by TradingView --><svg xmlns="http://www.w3.org/2000/svg" width="18" height="18" viewBox="0 0 18 18"><path fill="#FF0006" d="M0 0h18v18H0z"/><path d="M4.83 6.24C6.02 6.68 8.6 6.44 9 2v2.94c.09 3.2-2.75 2.2-4.17 1.3zm4.61-2.26c.18 1.2 1.66 3.1 6.15 1.13L12.81 6.7C9.76 8.43 9.3 5.6 9.44 3.98zm4.53 2.94c-1.02.74-2.05 2.88 2.03 5.51l-2.87-1.45c-3.14-1.58-.74-3.37.84-4.06zM9 16c.41-4.45 3.03-4.68 4.25-4.24-1.45-.9-4.34-1.9-4.25 1.3V16zm-.44-1.67c-.18-1.2-1.66-3.1-6.14-1.13l2.78-1.59c3.05-1.73 3.51 1.09 3.36 2.72zM2 5.44c4.08 2.92 3.05 5.3 2.03 6.12 1.58-.77 3.98-2.75.84-4.51L2 5.45z" fill="#fff"/></svg>