<!-- by TradingView --><svg xmlns="http://www.w3.org/2000/svg" width="18" height="18"><path fill="#F0F3FA" d="M0 0h18v18H0z"/><path fill-rule="evenodd" d="M3.8 11.35c-.86-1-1.51-4.1.74-5.86l2.41-1.85a4 4 0 014.44.06c.4.22 1.31.94 1.76 2.08.21.15.73.58 1.08 1.11.45.67 1.71 3.09-.48 5.41l-2.3 1.85a4.5 4.5 0 01-5.06.13A4.14 4.14 0 014.8 12.3c-.24-.17-.78-.6-1.01-.95zm3.36-6.72c2.18-1.34 3.88-.24 4.46.48-2.43-.43-3.54.55-4.75 1.6l-.43.38c-.89.75-.54 1.82-.26 2.26.86 1.16 2.05.76 2.53.42l1.62-1.28c.24-.2.86-.36 1.23.09.51.6.22 1.08-.09 1.37l-1.32 1.11a4.93 4.93 0 01-2.49 1.12 3.5 3.5 0 01-3.27-1.84c-.96-1.66.07-3.43.71-4.1l2.06-1.6zm2.63 7.7c-1.2.9-2.77.78-3.4.6 1.76 1.94 4.1.8 5.04 0 1.45-.96 3.85-3.09 1.74-5.83-1.92-2.5-4.75-.78-5.55.06l-.22.2c-.38.32-.9.77-.53 1.47.4.74 1.17.4 1.48.16l1.18-.94c.46-.42 1.78-.92 2.57-.16.94.9.45 2.08.1 2.53-.3.27-1.2 1.02-2.4 1.92z" fill="#FDCC00"/></svg>