<!-- by TradingView --><svg width="18" height="18" viewBox="0 0 18 18" xmlns="http://www.w3.org/2000/svg"><path fill="#F0F3FA" d="M0 0h18v18H0z"/><path d="M7.01 12.47a4 4 0 1 1 3.98 0v-1.22A3 3 0 0 0 9 6a3 3 0 0 0-1.99 5.25v1.22Z" fill="#008738"/><path d="M7 8.38v3.08c.39-.72 1.32-2.16 1.93-2.16.6 0 1.63 1.44 2.07 2.16V8.38c-.4-.64-1.4-1.92-2.07-1.92-.68 0-1.57 1.28-1.93 1.92Z" fill="#008738"/><path d="M9.6 11.54c0 .2-.05.44-.21.65l.03.1c-.19.07-.42.09-.65 0l-.12.09a1.02 1.02 0 0 1-.23-.66l-.09-.06c.12-.17.29-.33.54-.41l.03-.12c.21.06.43.18.6.4h.1Zm-1.33.22c.02.36.17.95.68 1.27l-.05.15c-.02.04.02.08.06.07l.5-.13c.03-.01.05-.05.03-.08l-.22-.48a.05.05 0 0 0-.1 0l-.1.16a1.2 1.2 0 0 1-.38-.29c.33.1.98.18 1.47-.23l.13.1c.04.03.08 0 .09-.03l.03-.52a.05.05 0 0 0-.06-.06l-.52.06a.05.05 0 0 0-.04.09l.13.15c-.08.08-.21.18-.38.26.2-.3.42-.86.2-1.42l.14-.09a.05.05 0 0 0 0-.09l-.49-.2a.05.05 0 0 0-.07.04l-.1.52c-.02.04.02.08.06.06l.18-.07c.05.09.1.23.13.4-.23-.28-.7-.65-1.28-.6l-.05-.16a.05.05 0 0 0-.09-.02l-.33.4a.05.05 0 0 0 .02.08l.46.26h.03c-.24.18-.46.45-.54.8h-.17a.05.05 0 0 0-.04.08l.28.43c.02.03.06.04.08.01l.39-.36a.05.05 0 0 0-.03-.09l-.19-.04c.01-.11.05-.27.14-.43Zm.11-.65c.1-.02.25-.03.41 0-.12.05-.26.12-.4.22v-.22Z"/><path fill-rule="evenodd" d="M3.15 8.47a5.91 5.91 0 0 0 1.23 4.07 5.55 5.55 0 0 0 4.51 2.34 5.6 5.6 0 0 0 4.84-2.4 6.5 6.5 0 0 0 1.14-4h-1.06a4.89 4.89 0 0 1-1.76 4.17 4.84 4.84 0 0 1-3.16 1.07 4.35 4.35 0 0 1-3.73-1.95 5.7 5.7 0 0 1-.97-3.3H3.15Zm-.1-.12C2.64 10.85 4.83 15 8.89 15c4.8 0 6.33-4.32 6.09-6.65h-1.3l.01.12c.13 4-3.18 5.25-4.8 5.13-3.37 0-4.67-3.2-4.59-5.13l.01-.12H3.05Z" fill="#008738"/><path opacity=".5" d="M5.48 5.39a12.2 12.2 0 0 0-1.4 2.35l-.97-.4c.2-.46.76-1.59 1.53-2.59l.84.64ZM8.7 4.04c-1.46.27-2.56.9-2.89 1.15l-.65-.83A8.5 8.5 0 0 1 8.51 3l.2 1.03ZM12.07 5.15a6.28 6.28 0 0 0-2.96-1.1L9.18 3c.65.04 2.22.36 3.52 1.31l-.63.84ZM13.8 7.76a6.55 6.55 0 0 0-1.37-2.34l.76-.73c.38.4 1.22 1.46 1.63 2.75l-1.01.32ZM13.26 12.73a5.63 5.63 0 0 1-4.54 2A4.9 4.9 0 0 1 4.7 12.7a7.47 7.47 0 0 1-1.38-3.32l.7-.1c.1.8.49 2 1.24 3a4.2 4.2 0 0 0 3.47 1.75c1.94 0 3.19-.78 4-1.75a6.74 6.74 0 0 0 1.36-3.01l.7.12c-.18.9-.6 2.23-1.52 3.34Z"/></svg>