<!-- by TradingView --><svg width="18" height="18" viewBox="0 0 18 18" xmlns="http://www.w3.org/2000/svg"><path fill="#F0F3FA" d="M0 0h18v18H0z"/><path fill-rule="evenodd" d="M11.5 8.33H14v1.34h-2.5l2.16 1.25-.66 1.16-2.17-1.25L12.08 13l-1.16.67-1.25-2.17V14H8.33v-2.5l-1.25 2.16L5.92 13l1.25-2.17L5 12.08l-.66-1.16L6.5 9.67H4V8.33h2.5L4.34 7.08 5 5.92l2.17 1.25L5.92 5l1.16-.66L8.33 6.5V4h1.34v2.5l1.25-2.16 1.16.66-1.25 2.17L13 5.92l.66 1.16-2.16 1.25Zm-.51.66a1.99 1.99 0 1 1-3.98 0 1.99 1.99 0 0 1 3.98 0Z" fill="#F7514D"/></svg>