<!-- by TradingView --><svg width="18" height="18" viewBox="0 0 18 18" xmlns="http://www.w3.org/2000/svg"><path fill="#F0F3FA" d="M0 0h18v18H0z"/><path d="M4.06 5H14v2.23a4.33 4.33 0 0 0-2.1-.62c-1.12 0-2.9.57-2.9 2.83C9 11.71 11.07 12 11.49 12h.16c.37.02.96.03 1.35-.29V10h-1.97c.08-.3.46-1 1.33-1H14v3.02a4.7 4.7 0 0 1-2.77.98C9.63 13 7 12 7 9S5.34 5 4.06 5ZM4 13h2V7.65C5.97 7.1 5.52 6 4 6v7Z" fill="url(#as51bsdbl)"/><path d="M14 5.46V5H7.13l-1.85.26c.12.06.24.12.35.2l2.77-.44-2.45.67c.09.07.17.15.24.24l2.73-.75-2.55.95.15.22 2.75-1.09L6.8 6.94l.05.15 2.77-1.65c-.4.37-1.78 1.96-2.41 2.72.52-.32 2.25-1.84 3.05-2.55-.63.67-1.85 2.75-2.39 3.7.86-.93 2.19-2.86 2.75-3.7l.2 1.18.15-.05.26-1.4.77 1.28c.12 0 .25.01.37.03l-.89-1.39 2.11 1.76.4.21v-.27l-1.96-1.7L14 6.49v-.4l-1.6-.91 1.6.7v-.31l-1.12-.48 1.12.37Z" fill="url(#bs51bsdbl)"/><defs><linearGradient id="as51bsdbl" x1="8.03" y1="12.22" x2="11.77" y2="4.06" gradientUnits="userSpaceOnUse"><stop offset=".07" stop-color="#114489"/><stop offset="1" stop-color="#1DB4DD"/></linearGradient><linearGradient id="bs51bsdbl" x1="11.18" y1="4.69" x2="11.91" y2="7.88" gradientUnits="userSpaceOnUse"><stop stop-color="#BFE5F9"/><stop offset="1" stop-color="#BFE5F9" stop-opacity="0"/></linearGradient></defs></svg>