<!-- by TradingView --><svg width="18" height="18" viewBox="0 0 18 18" xmlns="http://www.w3.org/2000/svg"><path fill="#F0F3FA" d="M0 0h18v18H0z"/><path d="m9.72 11.34-.92.98c-.2.22-.4.26-.6.15a.66.66 0 0 1-.29-.43c-.05-.2-.05-.41-.01-.64 1-2 .36-1.31 1.76-.64.03 0 .05.02.05.04v.54ZM11.72 10.15a1 1 0 0 0-.2.46h.01v.01h.02c.15-.02.29.02.4.14.15.14.2.3.16.5-.05.25-.19.4-.43.47a4.4 4.4 0 0 1-.85.15c-.25.02-.4-.1-.45-.37.02-.03.05-.04.1-.04.4-.04-.3-1.69.73-2.24.02-.07.05-.07.09-.02l.35.52a.2.2 0 0 1 .02.18c-.02.07 0 .15.05.24ZM8.9 5.95C7.07 7.3 7.84 9.88 7.35 11.49a.71.71 0 0 1-.37.17.39.39 0 0 1-.34-.11.98.98 0 0 1-.33-.66 5.6 5.6 0 0 1-.06-.7.05.05 0 0 0-.03 0c-.63.05-.7-.42-.74-.92a3.22 3.22 0 0 1 2-3.14c.33-.15.65-.27 1.02-.3.13-.02.26.02.38.12ZM11.82 6.7c-.41-.05-.12.12-.3.37a.94.94 0 0 0-.15.26c-.01.02-.02.03-.05.03l-.14-.01a.07.07 0 0 1-.06-.05 2.73 2.73 0 0 0-.73-.9c.18-.12.41-.26.7-.42.2-.1.37-.12.55.01.23.17.29.4.18.72Z" fill="#00EFFB"/><path d="M8.9 5.95a2.33 2.33 0 0 1 2.22 1.36c0 .02.03.03.06.04h.14c.03.01.04 0 .05-.02a.94.94 0 0 1 .15-.26c.06-.09.08-.16.04-.26a.1.1 0 0 1 .1-.12l.16.02c.3.1.3.36.24.65 0 .02-.02.04-.04.05l-.13.08c-.02.01-.02.03 0 .04.1.15.14.33.14.55 0 .14-.06.3-.15.45a.07.07 0 0 0 0 .06c.03.08.04.16.03.24-.01.11-.02.3 0 .48 0 .16 0 .32-.03.5V10c0 .05 0 .09-.03.12-.03.06-.07.08-.13.04-.06-.09-.07-.17-.05-.24a.2.2 0 0 0-.02-.18l-.35-.52c-.04-.05-.07-.05-.09.02-.08.32-.24.6-.48.83a.06.06 0 0 0-.01.06 57.76 57.76 0 0 0 .22.81v.03c0 .02-.02.02-.03.03l-.08.06a.05.05 0 0 0-.02.05c.02.1 0 .2-.1.3v.07c.01.02.03.03.05.03.06 0 .1 0 .1.04.01.02 0 .04-.02.05a.73.73 0 0 1-.24.07.07.07 0 0 1-.08-.07v-.09c0-.02-.02-.04-.04-.03-.05 0-.08.01-.1.04-.14.05-.21.14-.21.28 0 .02-.01.04-.03.05a.4.4 0 0 1-.26.07c-.08-.02-.09-.05-.01-.1a.5.5 0 0 0 .07-.09.04.04 0 0 0 0-.05l-.1-.08a.17.17 0 0 1-.04-.06l-.08-.19-.01-.54a.04.04 0 0 0-.05-.04c-.38.08-.74.08-1.08 0a.12.12 0 0 0-.13.16c.03.1.04.2.04.3 0 .14 0 .24.03.3.04.13.12.22.24.27.03 0 .03.05 0 .06a.5.5 0 0 1-.2.05.1.1 0 0 1-.06-.02l-.6-.48a.29.29 0 0 0-.12-.13c-.02-.01-.04 0-.05.01l-.18.3v.05c.03.03.13.12.06.16h-.2c-.04-.01-.06-.03-.05-.07a.58.58 0 0 0 0-.23c.02-.28 0-.55-.07-.83-.03-.13-.13-.22-.2-.3a.26.26 0 0 1-.05-.15c0-.02-.02-.03-.04-.03l-.02.01a4.97 4.97 0 0 0-.27.85c0 .02-.02.03-.04.03-.06 0-.1-.03-.13-.1-.03-.08 0-.2-.01-.3-.04-.19-.05-.36-.05-.52 0-.02-.01-.04-.03-.05a.58.58 0 0 1-.14-.16.1.1 0 0 1-.01-.07l.05-.36c.02-.07-.06-.15-.1-.21-.26-.35-.08-.81.13-1.13.05-.06-.12-.09-.14-.11a.06.06 0 0 1 0-.07c.07-.15.2-.45.34-.54.06-.04.15-.06.26-.04l.19.05c.02.03.05.04.08.04.1 0 .11-.15.1-.22 0-.04-.02-.04-.04-.01a.46.46 0 0 0-.06.11c0 .02-.01.03-.02.03l-.04.01v-.1c.1-.18.2-.39.33-.54a2.3 2.3 0 0 1 1.51-.83Z"/><path d="M11.88 9.81c.02-.18.03-.34.02-.5-.01-.18 0-.37.01-.48a.43.43 0 0 0-.03-.24.07.07 0 0 1 0-.06c.1-.16.14-.31.15-.45.11-.09.2-.13.28-.12.07 0 .13.06.16.19.07.27.12.83-.1 1.08-.15.2-.32.39-.5.58Z" fill="#00EFFB"/><path d="M9.67 6.19a.62.62 0 0 1-.51.03c-.09-.03-.21-.02-.38.04a.1.1 0 0 1-.13-.05l-.02-.03c-.03-.05-.02-.08.04-.1.27-.06.51-.07.72-.03.63.11 1.12.44 1.48.98a2.64 2.64 0 0 1 .41 1.21.03.03 0 0 1-.03.02h-.01l-.05-.02a.1.1 0 0 1-.07-.1.3.3 0 0 0-.01-.07c-.05-.1-.09-.1-.13 0l-.01.07c0 .03-.02.06-.03.07l-.19.34a.08.08 0 0 1-.08.04c-.07 0-.1-.06-.08-.15.05-.16.07-.31.05-.45l.01-.06.06-.13a.13.13 0 0 0-.05-.16l-.2-.13c-.03-.02-.03-.04-.03-.06a.95.95 0 0 1 .13-.34c.13-.2.04-.37-.2-.4l-.1-.02a.15.15 0 0 1-.09-.04 8.3 8.3 0 0 1-.46-.47h-.04Z" fill="#71F667"/><path d="M10.43 9.15a.19.19 0 0 1-.05-.06c0-.05-.02-.1-.05-.17a.4.4 0 0 0-.27-.2c-.21-.1-.29.04-.4.2a.26.26 0 0 0-.04.22c.04.16.1.27.19.35v.04c-.28.14-.47.27-.76.28a.1.1 0 0 1-.06-.02.42.42 0 0 0-.21-.09c-.03 0-.05 0-.06.03a.53.53 0 0 1-.28.17c-.02 0-.04 0-.06-.02l-.17-.26a.08.08 0 0 1-.02-.07l.1-.38v-.02c0-.04-.05-.07-.08-.09-.02 0-.02-.01-.01-.03l.1-.23c.04-.08-.07-.1-.13-.12-.02-.01-.03-.03-.01-.05a.1.1 0 0 1 .06-.04c.23-.04.23-.04.32-.24a.09.09 0 0 1 .06-.05l.26-.1c.07-.02.09.07.15.08a.1.1 0 0 0 .1-.04.04.04 0 0 0 0-.05L9 7.91a.09.09 0 0 0-.03-.04c-.04-.02-.13-.05-.15-.09l-.17-.36c-.04-.08-.17-.08-.2.02-.02.06 0 .17-.08.22-.03.01-.04 0-.04-.02-.04-.16-.12-.32.06-.4a.1.1 0 0 1 .06-.01h.17c.02 0 .04-.02.05-.05l.05-.2c.02-.06.04-.06.06 0 .03.1.08.2.1.33.03.12.07.23.14.31.04.05.12.04.15-.01l.08-.2a.1.1 0 0 1 .04-.05c.08-.06.15-.14.13-.24-.02-.17 0-.36-.11-.48-.1-.12-.23-.12-.36 0l-.15.1c-.02.02-.04.02-.05 0a.63.63 0 0 0-.25-.15c-.05-.02-.07-.06-.05-.1v-.07a.27.27 0 0 0-.15-.19c-.02 0-.02-.04 0-.05l.17-.07c.03-.01.06 0 .07.04.04.1.08.17.14.2.04.02.1.01.2-.01.18-.05.31-.05.4 0 .14.07.25-.02.4-.09l.06.01c.04.04.08.13.13.17.12.1.21.2.28.32.01.02.03.03.06.03l.21.02c.08.01.12.05.12.13 0 .06-.02.09-.04.1-.02 0-.05 0-.05-.03a.19.19 0 0 0-.03-.1.06.06 0 0 0-.06-.02c-.32.07-.22.38-.12.62 0 .02.02.03.04.04.12.01.24.07.36.17a.05.05 0 0 1 0 .07c-.08.11-.12.6-.1.74 0 .2.19.17.33.02.04-.1.1-.2.15-.26.02-.02.04-.02.06 0l.09.08c.01.02 0 .06-.03.07-.05.03-.21.17-.27.2-.34.09-.38.24-.43.52Z" fill="#A5FAFE"/><path d="M8.3 7.78c.12 0 .2-.17.22-.27 0-.07.08-.03.1.01.06.18.28.36.3.5.01.03 0 .04-.02.05l-.37.15a.08.08 0 0 0-.05.04c-.02.05-.05.2-.12.2-.18.02-.3.11-.35.29-.01.06-.1.07-.12 0-.02-.06-.02-.16-.08-.2a2.21 2.21 0 0 0-.37-.18h-.06a.2.2 0 0 0-.09.15c0 .08.04.14.09.2.04.08.04.18.1.26.07.09-.02.14-.1.08a9.7 9.7 0 0 0-.18-.27c-.1-.17 0-.42-.06-.61 0-.02-.05-.08-.12-.17-.06-.09-.07-.2-.01-.32 0-.02.02-.04.04-.05a.4.4 0 0 0 .2-.16.58.58 0 0 0 .03-.19c0-.1.06-.18.18-.23.2-.08.29-.23.24-.44l.01-.06c.12-.13.26-.24.44-.31.03-.01.05 0 .07 0 .03.03.13.1.14.14v.2c.01.1.2.13.26.16.03.01.04.03.04.06 0 .1-.03.2-.08.3a.06.06 0 0 1-.07.03c-.12-.03-.21 0-.28.1-.05.07-.06.15-.03.24.01.07-.01.3.1.3ZM9.25 7.28c-.08.07-.1.11-.13.23-.02.04-.07.05-.1.02a.26.26 0 0 1-.06-.13 1.7 1.7 0 0 0-.13-.44.1.1 0 0 1 0-.1c.08-.11.28-.33.42-.17.03.03.05.09.06.17l.03.29c0 .05-.06.1-.1.13Z" fill="#71F667"/><path d="M7.6 6.65c.07.06 0 .19-.05.24l-.01.02c-.05.05-.16.15-.23.09v-.01l.28-.34Z" fill="#A5FAFE"/><path d="m11.46 7.3.24-.32a.12.12 0 0 1 .2.02l.1.2c.03.05 0 .12-.04.15l-.3.2a.12.12 0 0 1-.18-.05l-.03-.07a.12.12 0 0 1 .01-.12Z" fill="#E1BDA8"/><path d="M10.4 7.08c-.05.1-.08.17-.07.22.01.15-.02.16-.08.02a.4.4 0 0 1-.04-.22c.01-.09.07-.12.17-.1.03.02.04.05.03.08Z" fill="#71F667"/><path d="M11.57 8.02 11.55 8a.02.02 0 0 0-.02 0h-.01v.02c0 .14-.03.27-.1.38-.03.09-.06.08-.06-.01 0-.3-.05-.6-.17-.93 0-.02 0-.04.03-.04.15-.02.18.1.25.19a.1.1 0 0 0 .05.03c.1.02.17 0 .22-.04.07-.07.12-.04.16.07.1.27.07.53-.06.77a.67.67 0 0 1-.48.36c-.08.01-.09-.01-.04-.07a1.1 1.1 0 0 0 .26-.7h-.01Z" fill="#fff"/><path d="M6.82 8.18c0 .02-.02.02-.04.02-.09-.02-.13-.12-.11-.2v-.04a.18.18 0 0 1 .07-.1.15.15 0 0 1 .12-.03c.02 0 .04 0 .03.02l-.07.33Z" fill="#E1BDA8"/><path d="M7.5 9.35c.02.05.07.1.12.15v.04c-.02.03-.05.05-.1.04-.11 0-.22-.02-.31-.05a.06.06 0 0 1-.05-.04c-.18-.45-.26-.9-.24-1.37 0-.1.04-.1.1-.03.05.07.07.15.07.25a9.8 9.8 0 0 0 .01.43l.2.3.05.04c.08.06.14.14.16.24Z" fill="#A5FAFE"/><path d="M6.67 8.79c.01-.02 0-.03-.02-.04l-.05.01c-.16.26-.14.49.06.69.1.1.08.13-.05.07a.75.75 0 0 1-.33-.28c-.21-.32-.02-.77.21-1.05.02-.02.04-.02.06-.01l.26.11c.02.01.03.03.03.05.02.39.1.76.24 1.12.03.08 0 .1-.07.06a1.88 1.88 0 0 0-.3-.13c-.06-.03-.11-.1-.13-.22a.69.69 0 0 1 .1-.38Z" fill="#fff"/><path d="M10.47 9.32c-.01-.03 0-.05.02-.07a.1.1 0 0 0 .03-.06l.02-.27a.15.15 0 0 1 .16-.13c.24.01.23-.18.42-.23.05-.02.1-.08.12-.12 0-.03.02-.03.04-.01.02.02.03.03.03.05 0 .11-.06.18-.16.25-.15.1-.2.28-.33.4-.05.04-.11.09-.19.13a.62.62 0 0 1-.16.06Z" fill="#71F667"/><path d="m7.79 8.64.03.13a.06.06 0 0 1-.03.07l-.19.1a.06.06 0 0 1-.08-.04l-.14-.37a.06.06 0 0 1 .05-.08h.03l.3.15a.06.06 0 0 1 .03.04Z" fill="#A5FAFE"/><path d="M11.38 8.9c.1-.03.28-.12.37-.21.07-.09.1-.07.1.05-.03.22-.03.48-.02.76a1.26 1.26 0 0 1-.04.29.02.02 0 0 1-.03 0 8.6 8.6 0 0 1-.44-.69c-.06-.11-.04-.18.06-.2Z" fill="#fff"/><path d="M10.37 9.34a.09.09 0 0 0-.01.07c.01.05.02.1 0 .15 0 .02 0 .03-.03.03-.02 0-.03-.02-.03-.04-.03-.27-.04-.59-.3-.75-.03-.02-.03-.04 0-.05l.06-.03c.25.06.37.5.3.62Z" fill="#525151"/><path d="M8 8.9c.1-.02.23-.11.23-.1l-.4.46a.3.3 0 0 1-.19.09.09.09 0 0 1-.1-.09c0-.27.24-.34.47-.37Z" fill="#fff"/><path d="M10.21 9.28v.05a.35.35 0 0 1-.24.13c-.16.03-.24-.15-.27-.29-.03-.09 0-.16.05-.2.02-.02.04-.02.06 0 .11.15.3.16.4.3Z" fill="#623828"/><path d="M8.05 9.55h-.14a.06.06 0 0 1-.06-.05v-.12c0-.02 0-.04.02-.05l.23-.2c.04-.04.11 0 .1.07l-.09.3c0 .03-.03.05-.06.05Z" fill="#E1BDA8"/><path d="M10.5 9.43c.15-.06.28-.15.4-.26a.04.04 0 0 1 .03-.01l.02.01v.02l.01.06a5.49 5.49 0 0 0-.34.5l-.14-.25v-.02a.05.05 0 0 1 .03-.05Z" fill="#fff"/><path d="M10.84 9.56c-.13.2-.22.4-.19.42.04.02.17-.14.3-.35.14-.21.23-.4.2-.42-.04-.02-.17.14-.3.35Z" fill="#71F667"/><path d="M9.09 9.9c.28-.05.57-.17.85-.36a.49.49 0 0 1 .12-.04c.06-.01.1.04.08.1-.08.14-.2.3-.37.46a.07.07 0 0 1-.08 0 .95.95 0 0 0-.6-.1c-.02.01-.04-.06 0-.06ZM6.64 10.12l-.24-.16-.02-.02v-.03l.04-.33a.05.05 0 0 1 .06-.05h.02l.79.41a.05.05 0 0 1 .03.06.05.05 0 0 1-.05.05l-.6.08h-.03ZM7.3 9.89l-.32-.2-.01-.03A.04.04 0 0 1 7 9.61l.41.03c.03 0 .05.04.04.07l-.1.17a.04.04 0 0 1-.06 0ZM8.4 10.75c.01.04-.02.08-.07.08a3.9 3.9 0 0 0-.6-.04c-.12 0-.39-.03-.38-.19 0-.28.05-.58.14-.9l.05-.04c.14-.03.33-.04.55-.03.03 0 .05 0 .06.03l.16.24c.06.1.14.12.23.06.1-.07.13-.05.06.06-.28.51-.31-.06-.2.73ZM9.74 10.22a.1.1 0 0 1 .03-.05c.12-.1.24-.23.36-.4a.14.14 0 0 1 .09-.05c.02 0 .03 0 .03.04 0 .07-.03.13-.01.2l.07.52c0 .09-.05.25.07.27a.1.1 0 0 0 .11-.07 1 1 0 0 0 .03-.32 5.7 5.7 0 0 0-.08-.67c0-.01.03-.02.03 0 .17.4.3.8.4 1.17a.1.1 0 0 1-.08.11c-.21.04-.4.13-.58.29a.45.45 0 0 1-.16.09.77.77 0 0 1-.18.04.06.06 0 0 1-.07-.07l-.01-.68c0-.19-.05-.42-.05-.42Z" fill="#fff"/><path d="M11.73 9.97c0 .05 0 .1.02.1s.04-.04.05-.09c.01-.05 0-.1-.02-.1-.01 0-.04.04-.05.09Z" fill="#A5FAFE"/><path d="M8.9 10.22a.61.61 0 0 0-.18-.19.02.02 0 0 1 0-.03l.78.08c.09 0 .14.05.15.13l.05.28c.02.09.02.15-.01.17-.1.07-.13.05-.11-.06l.02-.14v-.03l-.01-.03a.68.68 0 0 0-.25-.17c-.1-.04-.24 0-.36.02-.03 0-.06 0-.08-.03Z" fill="#71F667"/><path d="M8.75 10.14c.1.17.18.26.4.18.13-.04.24 0 .33.1.02.01.02.04.02.06l-.02.2c0 .02-.01.03-.03.04a1.84 1.84 0 0 1-.96-.06l-.02-.03-.05-.2.01-.05.22-.25a.06.06 0 0 1 .1 0Z" fill="#A5FAFE"/><path d="M7.25 10.45a.4.4 0 0 1-.13-.27c0-.03.02-.05.05-.05l.1.01c.02 0 .03.02.03.04l-.03.26c0 .02 0 .02-.02 0ZM6.82 10.25l-.15.5c0 .03-.05.03-.05 0 0-.05-.13-.56-.04-.55.03 0 .24-.02.24.04ZM7.77 11.12c-.02-.03-.05-.02-.06.01l-.2.4c-.04.05-.06.04-.06-.02l-.03-.68c0-.02 0-.03.03-.02.12.04.2.07.32.07.17 0 .35 0 .54.02.02 0 .04.02.05.04.05.12.08.2.06.25-.05.2.04.34.08.5.01.05 0 .06-.05.02l-.48-.36c-.09-.06-.14-.18-.2-.23ZM9.9 11.47a.65.65 0 0 0 .33-.13 2.03 2.03 0 0 1 .45-.28.07.07 0 0 1 .06.04v.03c.01.26-.18.17-.34.26a1.9 1.9 0 0 1-.4.17c-.05 0-.09-.01-.11-.04-.02-.03-.02-.05.02-.05Z" fill="#fff"/><path d="m9.36 8.8.62-.94c.03-.05.08-.07.15-.04l.03.02v.03c0 .12.02.2.07.24.04.04.06.08.06.14l.02.3c0 .03-.02.05-.05.05l-.02-.01c-.13-.1-.24-.17-.33-.21a.06.06 0 0 0-.07.03c-.13.21-.27.44-.44.67-.11.15-.24.29-.38.4a.1.1 0 0 1-.15-.03.28.28 0 0 1-.03-.15c0-.02-.01-.03-.04-.03-.07-.01-.17.07-.2-.04-.09-.23-.1-.4-.07-.5l.05-.05.25-.1c.05-.03.1 0 .14.03.02 0 .04 0 .06-.02l.23-.25c.06-.1.18-.35.35-.74a.29.29 0 0 1 .13-.12l.07-.02c.05 0 .07.03.05.08L9.3 8.77c0 .02.04.05.05.04Z" fill="#00EFFB"/><path fill-rule="evenodd" d="M9 15A6 6 0 1 0 9 3a6 6 0 0 0 0 12Zm0-.23A5.77 5.77 0 1 0 9 3.23a5.77 5.77 0 0 0 0 11.54Z" fill="#303030"/><path d="M7 14.04a5.42 5.42 0 1 1 4.96-.5l-.8-1.17a4 4 0 1 0-3.45.42l-.7 1.25Z" fill="#303030" fill-opacity=".5"/></svg>