<!-- by TradingView --><svg width="18" height="18" viewBox="0 0 18 18" xmlns="http://www.w3.org/2000/svg"><path fill="#F0F3FA" d="M0 0h18v18H0z"/><path d="M12.32 5.26a5.05 5.05 0 0 0-6.71.04l1.83 1.9a2.47 2.47 0 0 1 2.51-.37l-.21 1 2.58-2.57ZM12.79 5.73a5.05 5.05 0 0 1-.13 6.71l-1.88-1.86a2.51 2.51 0 0 0 .4-2.5l-1 .18 2.6-2.53ZM5.23 12.3a5.05 5.05 0 0 1 .1-6.72l1.89 1.85a2.47 2.47 0 0 0-.4 2.5l1-.2-2.6 2.56ZM5.69 12.76a5.05 5.05 0 0 0 6.71-.06l-1.84-1.9a2.47 2.47 0 0 1-2.51.37l.22-1-2.58 2.59Z" fill="#0E3883"/></svg>