<!-- by TradingView --><svg width="18" height="18" viewBox="0 0 18 18" xmlns="http://www.w3.org/2000/svg"><path fill="url(#a)" d="M0 0h18v18H0z"/><path fill-rule="evenodd" d="M2 7h1v4H2V7Zm2 0h-.75v1H4v3h1V8h.75V7H4Zm5 2c0 1.1-.5 2-1.5 2S6 10.1 6 9s.45-2 1.5-2S9 7.9 9 9Zm-.93 0c0 .61-.19 1.11-.57 1.11-.38 0-.57-.5-.57-1.11 0-.61.17-1.11.57-1.11.4 0 .57.5.57 1.11ZM9.5 7h1v1.35L11.32 7h1.1l-.99 1.6 1.04 2.4h-1.04l-.61-1.41-.32.51v.9h-1V7ZM14 7h-1v4h1v-.86l.32-.5.6 1.36H16l-1.06-2.37L15.96 7h-1.1L14 8.43V7Z" fill="#F7F7F7"/><defs><linearGradient id="a" x1="3.35" y1="3.12" x2="21.9" y2="24.43" gradientUnits="userSpaceOnUse"><stop stop-color="#1A1E21"/><stop offset="1" stop-color="#06060A"/></linearGradient></defs></svg>