<!-- by TradingView --><svg width="18" height="18" viewBox="0 0 18 18" xmlns="http://www.w3.org/2000/svg"><path fill="#F0F3FA" d="M0 0h18v18H0z"/><path d="M8.27 5.85c.22-.43.47-.92 1.04-.89.25.01.46.08.63.21.08.06.2.23.34.5a4292.93 4292.93 0 0 0 2.65 5.15c.07.2.06.42-.02.64-.16.4-.5.53-1 .54H3.98l-.02.04v.01l-.47.92v.01h.01c5.12.02 8.09.02 8.91 0 .18 0 .36-.04.55-.14a1.82 1.82 0 0 0 1.02-1.8 2.4 2.4 0 0 0-.28-.8c-.26-.5-1.1-2.12-2.55-4.86-.25-.48-.48-.8-.68-.97a1.9 1.9 0 0 0-2.79.5L5.76 8.58a619.34 619.34 0 0 0-.7 1.41h1a369.07 369.07 0 0 1 2.17-4.08l.04-.07Zm.95.98a.1.1 0 0 1 .04-.04c.08-.04.15-.02.2.08.3.61.95 1.84 1.93 3.68.05.1.04.17-.04.23a.12.12 0 0 1-.06.01H4.64l-.02.01-.47.89a.02.02 0 0 0 0 .02H11.98c.29 0 .69-.28.68-.61 0-.12-.02-.2-.04-.26-.82-1.58-1.73-3.32-2.75-5.23a.62.62 0 0 0-1.09 0L7.53 8.06a106.75 106.75 0 0 1-.97 1.94V10h1.02l.03-.04 1.6-3.13Z" fill="#004EA1"/></svg>