<!-- by TradingView --><svg width="18" height="18" viewBox="0 0 18 18" xmlns="http://www.w3.org/2000/svg"><path fill="#F0F3FA" d="M0 0h18v18H0z"/><path fill-rule="evenodd" d="M9 5c-1.33 0-2.17.28-3.39 1.43a.15.15 0 0 0-.11-.04c-.06 0-.48.4-.74.82a1 1 0 0 1 .1.08c-.1.14-.3.46-.36.61l.02.02c.04.05.09.1.09.15 0 .06-.04.08-.1.08-.03 0-.07-.04-.09-.06.03 0 .08-.02.08-.06 0-.07-.07-.09-.1-.09-.04 0-.12.08-.13.13 0 .04-.18.48-.27.7l.64.15c.13.01.4-.04.53-.3l.3-.6c.03-.03.09-.1.17-.1.1 0 .16.1.16.17 0 .06-.05.17-.16.17-.08 0-.12-.03-.12-.04-.1.15-.3.5-.34.71.08-.03.13-.03.18-.03h.02l.1.03c.09.03.2.07.3.07.16 0 .4-.02.6-.35A3.12 3.12 0 0 1 9 7.12c1.6 0 2.43 1.2 2.63 1.53.2.33.43.35.6.35.1 0 .2-.04.28-.07a.41.41 0 0 1 .1-.03h.04c.04 0 .09 0 .17.03-.05-.2-.24-.56-.34-.71 0 .01-.04.04-.12.04-.1 0-.16-.11-.16-.17 0-.06.05-.17.16-.17.08 0 .14.07.16.1.05.1.18.33.3.6.14.26.41.31.54.3l.64-.15-.27-.7c0-.05-.09-.13-.12-.13-.04 0-.1.02-.1.09 0 .04.04.06.07.06-.02.02-.06.06-.1.06-.05 0-.09-.02-.09-.08s.05-.1.1-.15l.01-.02a3.76 3.76 0 0 0-.36-.6c.01-.03.06-.06.1-.09a2.84 2.84 0 0 0-.74-.82.15.15 0 0 0-.11.04C11.17 5.28 10.33 5 9 5Zm0 1.16c.56 0 1.9.23 2.81 1.2l.08-.13A4.06 4.06 0 0 0 9 6c-1.46 0-2.53.82-2.89 1.23l.08.13A4.13 4.13 0 0 1 9 6.16Z" fill="#FCB600"/><path fill="#231F20" fill-opacity=".5" d="M4 9h10v3H4z"/></svg>