<!-- by TradingView --><svg width="18" height="18" viewBox="0 0 18 18" xmlns="http://www.w3.org/2000/svg"><path fill="#F0F3FA" d="M0 0h18v18H0z"/><path d="M14 7.55V8.8c0 .02-.02.03-.03.03H9.22c-.03 0-.04-.01-.04-.04V4.04c0-.03.02-.04.04-.04h3.72c.37 0 .66.15.88.45.07.1.12.21.15.33.02.07.03.2.03.36v2.41Z" fill="url(#am45htdmr)"/><path d="M11.63 5.48a.42.42 0 1 0 0-.84.42.42 0 0 0 0 .84Z" fill="#fff"/><path d="M8.82 8.8c0 .02-.02.02-.03.02H4.04c-.02 0-.04-.01-.04-.03v-3.6c0-.24.02-.4.06-.5.06-.17.17-.33.3-.45.15-.12.32-.2.5-.23l.4-.01h3.52c.03 0 .04.02.04.04V8.8Z" fill="url(#bm45htdmr)"/><path d="M6.92 6.11H8.2c.02 0 .02.01.02.03v.76c0 .02 0 .02-.02.02H6.92c-.01 0-.02.01-.02.03v1.27l-.01.01H6.1c-.02 0-.02 0-.02-.02V6.95c0-.02-.01-.03-.03-.03H4.8c-.01 0-.02 0-.02-.02v-.75c0-.03.01-.04.04-.04h1.25l.02-.01-.01-1.24c0-.05.02-.07.06-.07h.74c.02 0 .03 0 .03.03L6.9 6.09c0 .02 0 .02.02.02ZM10.61 5.66a.3.3 0 1 0 0-.6.3.3 0 0 0 0 .6ZM12.56 5.99a.3.3 0 1 0 0-.6.3.3 0 0 0 0 .6ZM11.96 6.17l-.01.01.01 1.95a.2.2 0 0 1-.05.14l-.03.01c-.21.02-.42.02-.63 0-.05 0-.08-.03-.1-.08a77 77 0 0 1 0-.7h.08c.08-.01.13-.03.15-.05.05-.04.04-.12 0-.23a12.3 12.3 0 0 0-.18-.36.32.32 0 0 1-.04-.15 122.06 122.06 0 0 0-.01-.56.1.1 0 0 0-.05.03c-.28.26-.55.38-.82.35-.02 0-.02-.01-.01-.02l.14-.28.03-.02c.16-.05.3-.14.42-.25.12-.13.24-.23.35-.3.12-.08.3-.1.54-.08.17.01.32.12.45.32l.27.41c.08.14.19.26.33.38l.03.06-.03.21c0 .02 0 .02-.02.02a1.01 1.01 0 0 1-.4-.26 3.05 3.05 0 0 1-.4-.53.05.05 0 0 0-.02-.02Z" fill="#fff"/><path d="M10.89 5.8c.02 0 .02.02 0 .04a.87.87 0 0 1-.42.3.26.26 0 0 0-.14.08 76.57 76.57 0 0 1-.5.5c-.03.03-.07.03-.12 0-.07-.03-.1-.08-.09-.15 0-.03.04-.07.08-.13l.6-.6a.32.32 0 0 1 .14-.1.59.59 0 0 1 .45.05ZM13.13 6.93c-.22-.2-.4-.37-.53-.52-.08-.1-.15-.2-.2-.3 0-.03 0-.05.04-.06.18-.02.31.02.4.13.16.2.32.37.5.54.07.08.08.15 0 .22-.06.06-.14.06-.2 0ZM10.1 7.44a.53.53 0 0 1-.2-.05c-.04-.01-.05-.04-.04-.07a6.26 6.26 0 0 1 .4-.73c.23.02.43-.02.6-.15.04-.03.08-.02.1.03l.38.83v.08a.08.08 0 0 1-.07.04 3.34 3.34 0 0 0-.2.02h-.96ZM12.18 6.62a.87.87 0 0 0-.06.06.06.06 0 0 1-.05.02c-.03 0-.04-.01-.04-.03l.03-.22c.01-.02.02-.02.03 0l.09.13v.04ZM12.2 6.63v-.01h.02c.14.19.33.33.56.42l.01.02v1.1c0 .05-.02.08-.04.11l-.02.02c-.16.03-.32.03-.49 0-.04-.02-.05-.04-.05-.08V6.63ZM10.87 8.17c0 .05-.03.08-.1.09h-.41c-.04-.01-.06-.03-.06-.07v-.66l.01-.02h.54c.02 0 .03 0 .03.02v.64Z" fill="#fff"/><path d="m8.82 9.3-.01-.1-.03-.02H4.03c-.02 0-.03.01-.03.03v3.77c0 .36.16.64.48.86.16.1.32.16.5.16a2861.93 2861.93 0 0 0 3.83-.01l.01-4.68Z" fill="url(#cm45htdmr)"/><path d="M14 12.55c0 .38-.02.6-.04.68a1.03 1.03 0 0 1-.98.77 36.55 36.55 0 0 0-.56 0 3818.2 3818.2 0 0 1-3.23-.02l-.01-4.75c0-.03.01-.05.04-.05h4.73c.03 0 .05.02.05.05v3.32Z" fill="url(#dm45htdmr)"/><path d="M11.52 10h.03a1.05 1.05 0 0 1 1.58.16c.12.18.18.38.18.6 0 .29-.14.63-.4 1.03-.13.2-.29.4-.48.63a27.86 27.86 0 0 1-.91.95 6.67 6.67 0 0 1-1.46-1.7c-.1-.17-.18-.35-.25-.54-.1-.32-.08-.62.07-.9.15-.29.4-.45.73-.5.33-.04.63.05.9.27ZM7.9 11.05c.03.58-.06 1.14-.26 1.67-.12.3-.26.52-.45.66-.04.03-.05.02-.04-.03.08-.36.07-.67-.04-.94-.13-.33-.38-.48-.75-.44-.32.03-.53.21-.62.54a1.9 1.9 0 0 0 0 .87c0 .02 0 .03-.02.02a1.26 1.26 0 0 1-.45-.63 4.15 4.15 0 0 1-.28-1.87c.02-.32.1-.59.23-.8.16-.27.4-.4.7-.35.16.02.33.07.48.15.03.02.06.02.09 0 .14-.08.29-.13.44-.15.34-.05.6.08.76.4.13.23.2.53.22.9Z" fill="#fff"/><path d="M6.44 10.08c.34-.21.6-.23.77-.06v.03c-.4.21-.91.23-1.56.06-.02 0-.03-.02-.02-.04.07-.13.2-.18.37-.15.13.02.27.07.4.16h.04Z" fill="#27257D"/><defs><linearGradient id="am45htdmr" x1="11.59" y1="4" x2="11.59" y2="8.82" gradientUnits="userSpaceOnUse"><stop offset=".1" stop-color="#26237A"/><stop offset=".97" stop-color="#080043"/></linearGradient><linearGradient id="bm45htdmr" x1="6.41" y1="4" x2="6.41" y2="8.82" gradientUnits="userSpaceOnUse"><stop stop-color="#919397"/><stop offset="1" stop-color="#454547"/></linearGradient><linearGradient id="cm45htdmr" x1="6.41" y1="9.18" x2="6.41" y2="14" gradientUnits="userSpaceOnUse"><stop stop-color="#27257D"/><stop offset="1" stop-color="#080043"/></linearGradient><linearGradient id="dm45htdmr" x1="11.59" y1="9.18" x2="11.59" y2="14" gradientUnits="userSpaceOnUse"><stop offset=".15" stop-color="#8E9094"/><stop offset="1" stop-color="#4A4A4C"/></linearGradient></defs></svg>