<!-- by TradingView --><svg width="18" height="18" viewBox="0 0 18 18" xmlns="http://www.w3.org/2000/svg"><path fill="#F0F3FA" d="M0 0h18v18H0z"/><path d="M10.92 5.11a4.27 4.27 0 0 0-3.44.7c-.13.1-.25.23-.36.39l-.28.44c-.2.37-.3.78-.3 1.22.05.37.15.72.3 1.06.02.12.08.2.18.26.2.1.34.2.41.27a.4.4 0 0 1-.18.06l.2.21.66.54 1 .52.55-.08c.6-.06 1.34-.14 1.62-.48-.48-.27-1.6-.9-1.86-1.33a2.3 2.3 0 0 1-.34-.83c-.15-.87.35-1.61 1.2-1.95l.37-.13a2.85 2.85 0 0 1 1.65.03l-.29-.45v-.04a4.47 4.47 0 0 0-1.1-.41Z" fill="url(#a)"/><path d="M12.48 6.88c-.52-1.38-2.71-1.7-3.74-1.7a4.31 4.31 0 0 1 3.52.49 4.02 4.02 0 0 1 1.9 3.46l-1.9.78c.3-.44.75-1.65.22-3.03Z" fill="url(#b)"/><path d="M5.84 9.58a.1.1 0 0 1-.04 0A3.74 3.74 0 0 1 6.2 7.3l.01.01a3.9 3.9 0 0 0-.36 2.28Z" fill="#0E4E9C"/><path d="M6.84 8.92s.72-.62 1.03-.21c.3.4-.38.8-.62.8-.36.12-.6.34-.74.68-.14.33-.03.66.13.98-.09.04-.16.04-.22 0A3.64 3.64 0 0 1 5.8 9.6a.1.1 0 0 0 .04-.01l.2.76c0 .02.02.03.04.03l.02-.02c0-.57.25-1.05.74-1.43Z" fill="#0E4E9C"/><path d="M15 8.69v-.01h-.02a22.9 22.9 0 0 1-9.1 2.51 3.01 3.01 0 0 1-1.48-.23c-.34-.16-.49-.4-.43-.75.04-.24.24-.52.4-.7a5.75 5.75 0 0 1 .82-.71h-.01c-.55.32-1.06.69-1.53 1.1-.21.2-.46.48-.57.74-.18.41-.06.72.37.9.22.1.41.17.59.19.67.07 1.5.1 2.26 0 3.4-.54 5.9-1.5 8.7-3.04Z" fill="url(#c)"/><path d="M7.63 9.08c.08 0 .16-.04.16-.11s-.06-.13-.14-.14c-.08 0-.15.05-.16.12 0 .06.06.12.14.13Z" fill="#fff"/><path d="M12.56 12.13a4.07 4.07 0 0 0 1.6-3c-.48.25-1.54.75-1.96.93-.07.15-.15.27-.25.36l-.43-.1-1.52.54a.14.14 0 0 1-.1.04l-.03.01-.01.03.01.03c.58.11 1.13.09 1.65-.09.07-.02.08 0 .03.05a3.83 3.83 0 0 1-4.53.64l-.23.09a4.38 4.38 0 0 0 5.77.46Z" fill="url(#d)"/><defs><linearGradient id="a" x1="11.49" y1="8.03" x2="7.64" y2="5.98" gradientUnits="userSpaceOnUse"><stop stop-color="#6985B7"/><stop offset="1" stop-color="#094B99"/></linearGradient><linearGradient id="b" x1="9.32" y1="5.26" x2="12.86" y2="9.54" gradientUnits="userSpaceOnUse"><stop stop-color="#3B68AB"/><stop offset=".48" stop-color="#C4CCDF"/><stop offset="1" stop-color="#5270AC"/></linearGradient><linearGradient id="c" x1="3" y1="10.23" x2="15" y2="10.23" gradientUnits="userSpaceOnUse"><stop stop-color="#285C96"/><stop offset=".52" stop-color="#5B7CB1"/></linearGradient><linearGradient id="d" x1="13.18" y1="9.54" x2="11.47" y2="12.29" gradientUnits="userSpaceOnUse"><stop stop-color="#3F68AA"/><stop offset="1" stop-color="#1F54A2"/></linearGradient></defs></svg>