<!-- by TradingView --><svg width="18" height="18" viewBox="0 0 18 18" xmlns="http://www.w3.org/2000/svg"><path fill="#F0F3FA" d="M0 0h18v18H0z"/><path d="M9 3c.08 0 .16.04.22.13a347.67 347.67 0 0 1 1.32 1.72.03.03 0 0 1-.02.02L9.67 5a.34.34 0 0 0-.21.13l-.44.58a.47.47 0 0 0-.02 0h-.01l-.45-.58a.34.34 0 0 0-.21-.13l-.85-.14a.03.03 0 0 1-.02-.02.03.03 0 0 1 0-.02l1.31-1.7C8.84 3.04 8.92 3 9 3Z" fill="#33B5AA"/><path d="M6 5.08h.02a191.96 191.96 0 0 0 2.2.3.2.2 0 0 1 .06.05l.46.6v.06c-.17.23-.37.43-.35.62l.34 1.89-.01.1c-.02 0-.05 0-.1-.03a86.16 86.16 0 0 0-1.76-.9c-.18-.07-.45.05-.72.13a.05.05 0 0 1-.05-.02l-.46-.6a.2.2 0 0 1-.03-.16A179.86 179.86 0 0 0 6 5.08ZM12 5.08c.02 0 .02.01.02.02a163.57 163.57 0 0 0 .38 2.1.2.2 0 0 1-.04.08l-.45.6a.05.05 0 0 1-.06.02c-.27-.08-.53-.2-.7-.12a88.35 88.35 0 0 0-1.87.91c-.02-.01-.02-.04-.01-.1L9.6 6.7c.03-.18-.18-.39-.34-.6a.04.04 0 0 1 0-.06l.46-.61a.2.2 0 0 1 .14-.08 195.26 195.26 0 0 0 2.15-.27Z" fill="#7CC4C3"/><path d="M5.7 8.03v.01l-.71.23a.33.33 0 0 0-.2.15l-.4.73v.01h-.02a.03.03 0 0 1-.03 0L3.07 7.43C3 7.35 2.99 7.26 3 7.2c.03-.08.1-.13.2-.17a379.77 379.77 0 0 1 2.1-.67l.02.01v.01l-.12.82c-.02.09 0 .17.06.24l.44.58v.02ZM12.3 8.02l.43-.59a.31.31 0 0 0 .06-.24l-.12-.82v-.02h.04l2.08.67c.1.03.17.09.2.16.02.08 0 .16-.06.25a301.31 301.31 0 0 1-1.3 1.74l-.02-.02-.4-.73a.34.34 0 0 0-.2-.16l-.7-.22a.12.12 0 0 0-.01-.02Z" fill="#33B5AA"/><path d="m9.03 6.4.18.3v.01l-.18 1.06-.01.02a.03.03 0 0 1-.04 0v-.02l-.2-1.08a.03.03 0 0 1 0-.02l.2-.28H9a.03.03 0 0 1 .03 0h.01ZM7.05 8.6a4.59 4.59 0 0 1-.36-.06c-.17-.03-.23-.14-.3-.27-.01-.02 0-.03.02-.05.15-.06.25-.13.44-.03l.85.42c.07.04.06.06-.01.06-.21 0-.45-.05-.64-.07ZM10.94 8.6c-.18.01-.42.08-.63.07-.08 0-.08-.02-.02-.06l.86-.43c.18-.09.28-.03.44.04.02.01.03.03.02.05-.07.13-.13.24-.3.27l-.37.05ZM13.87 10.58l-.02.02a186.5 186.5 0 0 0-1.96 1c-.03 0-.06 0-.09-.02l-.74-.23-.02-.01-.01-.03c0-.27.03-.56-.1-.69A88.38 88.38 0 0 0 9.45 9.2c0-.02.03-.03.09-.04 1.15-.15 1.8-.25 1.98-.28.19-.03.33-.28.5-.5l.02-.02h.03l.74.23a.21.21 0 0 1 .13.11 163.86 163.86 0 0 0 .93 1.88ZM4.13 10.58v-.02a177.73 177.73 0 0 0 .99-1.92.21.21 0 0 1 .07-.04l.74-.23h.03l.03.01c.17.22.3.47.5.5.16.04.82.13 1.98.28.05.01.08.02.09.04 0 .02-.02.05-.05.08a85.4 85.4 0 0 0-1.44 1.35c-.13.13-.09.41-.1.68v.03l-.03.02-.74.23a.21.21 0 0 1-.17-.01 188.48 188.48 0 0 0-1.9-1ZM9 9.51c.02 0 .04.03.07.07.5 1 .8 1.58.89 1.72.09.17.38.22.65.3a.05.05 0 0 1 .03.05v.75a.2.2 0 0 1-.06.15A181.7 181.7 0 0 0 9 13.98l-.03-.01a191.45 191.45 0 0 0-1.6-1.49.2.2 0 0 1-.01-.08v-.78l.03-.01c.27-.09.56-.14.65-.3A84.62 84.62 0 0 0 9 9.5Z" fill="#7CC4C3"/><path d="M7.18 11.17v-.3a.03.03 0 0 1 0-.02l.93-.78a.03.03 0 0 1 .04 0v.03l-.56 1.02-.01.01h-.01l-.36.06H7.2a.03.03 0 0 1-.01-.02ZM10.64 10.87v.33a.03.03 0 0 1-.03.02h-.01l-.34-.11a.03.03 0 0 1-.02-.02l-.46-.97v-.02l.01-.02a.03.03 0 0 1 .04 0l.8.77v.02Z" fill="#7CC4C3"/><path d="M11.01 11.75h.01l.74.22c.08.02.18.02.25-.02l.95-.36a.03.03 0 0 1 .04.02v2.11c0 .11-.06.19-.13.23-.07.05-.15.06-.26.03-.66-.2-1.54-.41-2.27-.63l-.01-.01v-.01a.03.03 0 0 1 0-.03l.57-.6c.06-.05.1-.13.1-.22v-.71l.01-.01ZM6.99 11.76v.72c.01.09.04.17.1.23l.58.6a.03.03 0 0 1 0 .02v.01h-.01c-.74.23-1.6.44-2.27.64-.11.03-.2.03-.26-.02a.28.28 0 0 1-.13-.23V11.59a.03.03 0 0 1 .04 0l.94.36c.08.04.17.04.25.02l.74-.22a.24.24 0 0 0 .02 0Z" fill="#33B5AA"/></svg>