<!-- by TradingView --><svg width="18" height="18" viewBox="0 0 18 18" xmlns="http://www.w3.org/2000/svg"><path fill="#F0F3FA" d="M0 0h18v18H0z"/><path fill-rule="evenodd" d="M4.71 10.53a50.6 50.6 0 0 0 3.26 2.99c.51.42 1.35.63 2 .36.27-.11.45-.33.64-.59.77-1.02 1.46-2 2.07-2.92.3-.44.59-.94.9-1.5.1-.2.19-.43.23-.66.1-.6.17-1.15.19-1.64.09-2.34-2.1-2.66-4.03-2.55-.67.04-1.34.21-2.02.52a12.81 12.81 0 0 0-3.58 2.4c-.34.32-.58.66-.73 1.03-.45 1.07.28 1.79 1.02 2.5l.05.06Zm5.7-1.97c.38-.28.59-.66.59-1.06s-.21-.78-.59-1.06A2.38 2.38 0 0 0 9 6c-.53 0-1.04.16-1.41.44C7.2 6.72 7 7.1 7 7.5s.21.78.59 1.06c.37.28.88.44 1.41.44.53 0 1.04-.16 1.41-.44ZM9 8.87c-.55 0-1-.61-1-1.37 0-.76.45-1.38 1-1.38s1 .62 1 1.38c0 .76-.45 1.38-1 1.38ZM8.94 11a.1.1 0 0 0 .05-.02l.04-.03c.52-.72 1.17-1.09 1.94-.9.48.11.78.41 1.02.92.02.02.01.03-.01.03H9.05a.1.1 0 0 0-.05.01 3.45 3.45 0 0 1-.38.43c-.58.58-1.22.7-1.92.4-.3-.14-.52-.4-.7-.8 0-.03 0-.04.03-.04h2.9Z" fill="#005DA3"/></svg>