<!-- by TradingView --><svg width="18" height="18" viewBox="0 0 18 18" xmlns="http://www.w3.org/2000/svg"><path fill="#F0F3FA" d="M0 0h18v18H0z"/><path d="M13.5 6H15v6h-1.5V6ZM10.97 10.67c-.93 0-1.37-.82-1.37-1.67s.42-1.67 1.35-1.67c.6 0 1.03.09 1.1.67h1.45c-.04-1.39-1.33-2-2.53-2A2.86 2.86 0 0 0 8.1 8.43c-.18 1.14-.33 1.8-.37 1.96a1.97 1.97 0 0 1-.97 1.4c-.15.08-.3.15-.46.2h1.8V9.58A2.86 2.86 0 0 0 10.97 12c1.4 0 2.45-.85 2.53-2.33h-1.44c-.06.66-.41 1-1.09 1ZM3.22 10.95a2.32 2.32 0 0 1-.22-.39V12h1.76l-.2-.05c-.65-.28-1-.53-1.34-1Z" fill="#005A49"/><path d="M8.13 6.03 7.1 10.17c-.14.55-.5.94-.97 1.12-.39.15-.87.15-1.36 0-.55-.18-1-.55-1.22-1.01-.18-.38-.23-.8-.12-1.27l.13-.5.25.09-.12.49c-.1.38-.06.74.09 1.04.19.4.57.72 1.06.87.84.26 1.72.05 1.96-.9L7.82 6h-.34L6.5 9.9c-.07.3-.17.5-.39.64-.48.3-1.18.1-1.2.08-.02 0-.6-.19-.85-.67-.12-.24-.14-.51-.06-.8l.11-.44.27.1-.1.41c-.06.23-.07.42.01.59.19.38.67.52.67.52h.01s.6.21 1-.04c.15-.1.23-.25.29-.46L7.22 6H3v2.31l.23.09-.16.65c-.29 1.38.65 2.33 1.7 2.64.57.16 1.15.12 1.63-.12.36-.17.8-.53.98-1.25.04-.2.39-1.52.77-3.06V6.04l-.02-.01Z" fill="#005A49"/></svg>