<!-- by TradingView --><svg width="18" height="18" viewBox="0 0 18 18" xmlns="http://www.w3.org/2000/svg"><path fill="#F0F3FA" d="M0 0h18v18H0z"/><path d="M9 12.37c-2.16-.02-4.02-1.77-4-3.82 0-1.4.88-2.72 2.17-3.39l.08.3A2.94 2.94 0 0 0 6 8 2.95 2.95 0 0 0 9 11a2.94 2.94 0 0 0 3-2.99c0-1-.38-1.98-1.26-2.55l.09-.3c1.29.67 2.18 2 2.17 3.39.02 2.05-1.84 3.8-4 3.82m2-4.76c.02 1.16-.77 2.2-2 2.2s-2.02-1.04-2-2.2c0-.63.12-1.24.61-1.65.34.42.82.6 1.38.6.55.01 1.04-.17 1.38-.58.49.4.63 1.01.63 1.63Zm-.15-3.04A1.85 1.85 0 0 0 9 3c-.93 0-1.74.69-1.85 1.57A4.93 4.93 0 0 0 4 9.1 5 5 0 0 0 9 14a5 5 0 0 0 5-4.89 4.93 4.93 0 0 0-3.15-4.54" fill="#E60012"/></svg>