<!-- by TradingView --><svg width="18" height="18" viewBox="0 0 18 18" xmlns="http://www.w3.org/2000/svg"><path fill="#F0F3FA" d="M0 0h18v18H0z"/><path d="M6.9 4c1.02.2 1.55.78 1.6 1.75.02.43-.15.83-.51 1.2-.41.42-.89.6-1.44.54A1.74 1.74 0 0 1 5.22 4.9c.26-.47.7-.78 1.3-.91h.37Z" fill="#F0B13B"/><path d="M9.76 8.28c-.5.7-1.05 1.34-1.65 1.93a6.15 6.15 0 0 1-2.09 1.35c-.12.05-.39.04-.8-.02a.15.15 0 0 1-.09-.04l-.67-.67c-.03-.02-.02-.03.02-.03.35.04.73-.03 1.12-.23a8.47 8.47 0 0 0 3.06-2.63 262.9 262.9 0 0 0 2.2-2.98h.02l.02.02.67.73c.02.02.02.04 0 .06-.3.42-.6.84-.92 1.26l-.9 1.25Z" fill="#3879B1"/><path d="m12.76 6.91-1.62 2.33a15.33 15.33 0 0 1-1.2 1.54c-.46.52-.97.98-1.54 1.4-.42.3-.9.51-1.4.63-.16.03-.36.01-.5 0a.14.14 0 0 1-.08-.04l-.7-.7c-.04-.04-.03-.06.02-.05.59.02 1.14-.15 1.67-.5a9.6 9.6 0 0 0 2-1.79 67.1 67.1 0 0 0 2.62-3.6h.04l.02.03.66.71a.03.03 0 0 1 0 .04Z" fill="#3879B1"/><path d="m5.01 7.32.7.76c.03.03.03.06.01.09-.44.62-.75 1.3-.93 2.03-.01.04-.03.06-.07.07a.9.9 0 0 1-.57-.03.12.12 0 0 1-.07-.08c-.1-.3-.1-.63 0-.95A7.04 7.04 0 0 1 5 7.3h.01Z" fill="#33B1E1"/><path d="m13.3 7.35.69.74v.06c-.34.45-.99 1.33-1.93 2.65a13.2 13.2 0 0 1-2.02 2.24 4.6 4.6 0 0 1-1.3.8c-.3.12-.65.17-1.04.16l-.05-.02-.67-.66c-.06-.06-.05-.1.03-.1.5 0 .98-.15 1.45-.44a9.1 9.1 0 0 0 2.44-2.22c.7-.92 1.48-1.98 2.33-3.2.02-.04.05-.04.07-.01Z" fill="#3879B1"/><path d="M6.5 8.81a60.17 60.17 0 0 0 .37.4v.02l-.02.02c-.44.37-.9.68-1.4.95-.1.06-.17.08-.2.05s-.01-.1.04-.23a9.55 9.55 0 0 1 .83-1.58h.02l.02.01.35.36Z" fill="#33B1E1"/></svg>