<!-- by TradingView --><svg width="18" height="18" viewBox="0 0 18 18" xmlns="http://www.w3.org/2000/svg"><path fill="#F0F3FA" d="M0 0h18v18H0z"/><path d="M11.82 6c.75 0 1.47.32 2 .88.12.13.18.32.18.49 0 .33-.27.76-.6.76a.54.54 0 0 1-.42-.19c-.31-.32-.72-.4-1.16-.44-.93 0-1.45.6-1.45 1.5s.52 1.64 1.45 1.64c.45 0 .85-.22 1.16-.55.12-.12.26-.19.42-.19.34 0 .6.41.6.74 0 .17-.06.36-.18.49a2.7 2.7 0 0 1-2 .87C10.2 12 9 10.57 9 9c0-1.56 1.2-3 2.82-3ZM4.49 6c-.27 0-.49.32-.49.72 0 .4.22.72.49.72H6.5V10.21c.02.45-.14.61-.51.61a2 2 0 0 1-1.12-.34c-.18-.11-.31-.2-.45-.15-.35.12-.57.75-.3 1 .38.33 1 .67 1.87.67 1.04 0 2.04-.7 2-1.82V7.44h.52c.27 0 .49-.32.49-.72 0-.4-.22-.72-.49-.72H4.49Z"/></svg>