<!-- by TradingView --><svg width="18" height="18" viewBox="0 0 18 18" xmlns="http://www.w3.org/2000/svg"><path fill="#F0F3FA" d="M0 0h18v18H0z"/><path fill-rule="evenodd" d="M9.02 4A.11.11 0 0 1 9 4a4.82 4.82 0 0 0-5 5 4.82 4.82 0 0 0 4.98 5H9a4.82 4.82 0 0 0 5-5 4.82 4.82 0 0 0-4.98-5Zm2.48 5c0-1.65-.96-3-2.5-3-1.55 0-2.5 1.36-2.5 3 0 1.65.96 3 2.5 3 1.55 0 2.5-1.36 2.5-3Z" fill="#0076BC"/><path d="M9 7h.46c.03 0 .03.02.03.05v1.42h.02v.01h.01l.01.01h1.42c.03 0 .05.02.05.05a66.46 66.46 0 0 1 0 .92c0 .03-.02.05-.05.05H9.52v.01l-.03.01v1.42c0 .03 0 .05-.03.05a49.7 49.7 0 0 1-.92 0c-.03 0-.05-.02-.05-.05V9.52h-.01l-.01-.01H7.05c-.03 0-.05-.02-.05-.05a67.45 67.45 0 0 1 0-.92c0-.03.02-.05.05-.05h1.43v-.01l.01-.01V7.05c0-.03.02-.05.05-.05H9Z" fill="#EC3237"/></svg>