<!-- by TradingView --><svg width="18" height="18" viewBox="0 0 18 18" xmlns="http://www.w3.org/2000/svg"><path fill="#F0F3FA" d="M0 0h18v18H0z"/><path d="m6.16 8.24 3.27 2.22 2.4-1.8A2.94 2.94 0 0 0 8.97 6c-1.34 0-2.47.95-2.8 2.24Z" fill="#F15E28"/><path fill-rule="evenodd" d="M9 15A6 6 0 1 0 9 3a6 6 0 0 0 0 12Zm0-1.5c.95 0 1.84-.3 2.56-.8L4.52 8.56 4.5 9A4.5 4.5 0 0 0 9 13.5Zm1.6-3.17 2.1 1.22a4.48 4.48 0 0 0 .78-3l-2.88 1.78Zm-5.65-3.3 4.12 2.4 4-2.37a4.5 4.5 0 0 0-8.12-.03Z" fill="#293B8F"/></svg>