<!-- by TradingView --><svg width="18" height="18" viewBox="0 0 18 18" xmlns="http://www.w3.org/2000/svg"><path fill="#E22B2B" d="M0 0h18v18H0z"/><path d="M5 4h8v7.23a4.3 4.3 0 0 1-.46 1.7A3.73 3.73 0 0 1 9 15c-1.04 0-1.84-.3-2.45-.75-.46-.35-.8-.78-1.04-1.23A4.31 4.31 0 0 1 5 11.24V4Zm.62.69v5.77l.61-.6V4.69h-.61Zm1.23 0v5.48l-1.22 1.2c.02.25.1.57.22.89l1.61-1.87V4.7h-.61Zm1.23 0v5.98l-1.92 2.21c.14.23.32.44.53.63l2-2.43v-6.4h-.61Zm1.23 0v1.57l1.4-1.57h-1.4Zm2.28 0L9.3 7.58v.8l3.07-3.5v-.2h-.8Zm.8 1.12L9.3 9.31v1.1l3.07-3.3v-1.3Zm0 2.26-1.1 1.17 1.1 1.17V8.07Zm-.02 3.28-1.52-1.63-.48.51 1.8 1.96c.12-.3.18-.6.2-.84Zm-.5 1.47-1.95-2.11-.49.52 1.9 2.26c.22-.2.4-.43.55-.67Zm-1.06 1.06L9 11.72 7.2 13.9c.46.25 1.04.42 1.79.42s1.34-.17 1.8-.43Z" fill="#FEFEFE"/></svg>