<!-- by TradingView --><svg width="18" height="18" viewBox="0 0 18 18" xmlns="http://www.w3.org/2000/svg"><path fill="#F0F3FA" d="M0 0h18v18H0z"/><path d="M6.1 7.38H5.68a.06.06 0 0 1-.04-.02.05.05 0 0 1-.01-.04c0-.1.11-.2.2-.23h.06c.38 0 .72-.02 1.03-.09.05 0 .08.01.08.06 0 .02-.01.05-.04.08-.08.08-.3.14-.41.16-.04.01-.06.03-.07.07-.03.14-.12.33-.16.43-.1.3-.26.58-.37.87-.04.1-.1.18-.16.29-.19.36-.48.7-.85.9-.24.14-.5.17-.75.11-.13-.03-.2-.1-.19-.23v-.02h.02a.04.04 0 0 1 .03 0c.3.16.66 0 .9-.2.34-.3.56-.68.77-1.1.12-.25.2-.5.3-.75l.1-.28-.02-.01ZM6.34 9.29h-.02a.78.78 0 0 0-.03.27c0 .18.16.25.33.25.11 0 .23-.03.3-.07a9.02 9.02 0 0 0 .18-.1l.02.02v.01a.1.1 0 0 1-.02.05c-.16.2-.4.29-.65.28-.06 0-.12 0-.17-.02a.43.43 0 0 1-.3-.21c-.08-.15-.04-.37.03-.52.08-.17.19-.31.33-.43a.82.82 0 0 1 .78-.14c.1.02.1.12.1.21 0 .19-.16.33-.35.38-.17.04-.37.07-.53.02Zm.55-.55c-.01-.02-.04-.02-.08-.02-.16.02-.35.23-.4.36l-.04.11.01.02c.08.02.16.02.25.01.16-.02.25-.1.3-.22.02-.07.03-.22-.04-.26Z" fill="#FF192D"/><path d="M7.33 9.8c-.13-.22.02-.44.13-.66.06-.12.15-.25.16-.39.01-.09-.08-.1-.16-.11l-.01-.01v-.01a1.88 1.88 0 0 1 .54 0l.01.02c0 .06-.02.11-.04.16l-.3.63c-.03.05-.09.27.03.3l.04-.01c.08-.04.16-.1.22-.17.15-.17.26-.32.34-.46l.2-.36c.07-.11.17-.12.3-.1.03 0 .05.03.05.05v.02l-.08.1a5.63 5.63 0 0 1-.64.94c-.22.26-.45.44-.75.59-.13.06-.28.11-.47.15a.8.8 0 0 1-.52-.06.19.19 0 0 1-.11-.12l-.01-.03c0-.05.01-.07.07-.05.07.02.18.08.27.1.27.04.6-.1.75-.3a.25.25 0 0 0 .05-.06c.01-.04-.05-.12-.07-.15ZM8.94 9.8c-.13-.22.03-.44.13-.66.06-.12.15-.25.17-.39 0-.09-.09-.1-.17-.11l-.01-.01v-.01a1.88 1.88 0 0 1 .55 0v.02c0 .06-.01.11-.04.16l-.3.63c-.02.05-.09.27.03.3l.04-.01c.09-.04.16-.1.22-.17.15-.17.26-.32.34-.46l.2-.36c.08-.11.17-.12.3-.1.03 0 .05.03.05.05v.02c-.03.03-.06.06-.07.1a5.62 5.62 0 0 1-.64.94c-.23.26-.46.44-.76.59-.12.06-.28.11-.47.15a.8.8 0 0 1-.52-.06.19.19 0 0 1-.1-.12l-.02-.03c0-.05.02-.07.07-.05.08.02.18.08.28.1.26.04.59-.1.75-.3A.25.25 0 0 0 9 9.96c.02-.04-.05-.12-.07-.15ZM11.03 9.8l-.01-.01h-.03c-.1.08-.18.15-.3.18l-.2.02c-.08 0-.16 0-.24-.03-.1-.02-.12-.14-.12-.22 0-.18.04-.34.12-.48.13-.24.33-.44.6-.56.17-.07.46-.07.63-.05a3.2 3.2 0 0 0 .26.03v.01c-.07.13-.1.28-.18.43l-.22.5a.76.76 0 0 0-.04.17c-.02.08.03.11.09.12.03 0 .08 0 .12-.02.01-.01.02 0 .03.01v.04c0 .01 0 .02-.02.03a.88.88 0 0 1-.24.03.27.27 0 0 1-.17-.06c-.04-.03-.05-.08-.08-.14Zm.34-1v-.02h-.02a.68.68 0 0 0-.45.1c-.19.12-.3.31-.38.5-.01.04-.14.39.01.43l.16.01c.12 0 .25-.04.3-.14.07-.11.12-.24.18-.39.06-.17.15-.32.2-.5ZM12.62 8.74c0 .03 0 .03.03 0 .1-.09.24-.12.4-.09.16.03.13.22.1.32.08-.1.13-.15.23-.23.12-.1.3-.13.45-.08.1.03.16.13.17.21.01.21-.2.6-.2.6l-.09.19-.1.2.01.02.14.01v.02a6.5 6.5 0 0 0-.24.07c-.07.02-.13.02-.21.02l-.02-.02c-.02-.1.1-.28.1-.28l.19-.42.14-.3c.03-.08.01-.13-.05-.18-.14-.1-.33.1-.37.19l-.13.24-.28.65s-.06.11-.12.12h-.25c-.02 0-.04-.02-.03-.04.04-.05.09-.17.09-.17s.21-.5.33-.72c.03-.06.1-.32-.06-.32a.28.28 0 0 0-.2.1c-.1.1-.2.3-.2.3l-.28.6-.08.2c-.02.03-.07.05-.12.05h-.18c-.03 0-.06-.03-.04-.05l.53-1.17c0-.01 0-.03-.03-.03l-.08-.02c-.02 0-.02 0-.01-.02s.06-.03.14-.04c.1-.01.32-.05.32.07Z" fill="#FF192D"/><path d="M12.85 11.88c1.71-.59 2.83-1.55 2.83-2.64C15.68 7.44 12.7 6 9 6 5.31 6 2.32 7.45 2.32 9.24c0 1 .95 1.9 2.45 2.5-1.3-.59-2.13-1.43-2.13-2.33 0-1.66 2.88-2.98 6.32-2.98 3.44 0 6.4 1.32 6.4 2.98 0 .97-1 1.88-2.5 2.47Z" fill="url(#a)"/><path d="M2 9.18c0-1.62 2.55-2.6 3.82-2.9-1.36.38-3.67 1.5-3.67 2.96 0 1.17 1.43 2.14 2.14 2.47C3.03 11.21 2 10.35 2 9.18ZM16 9.18c0-1.62-2.55-2.6-3.82-2.9 1.36.38 3.67 1.5 3.67 2.96 0 1.17-1.43 2.14-2.14 2.47 1.26-.5 2.29-1.36 2.29-2.53Z" fill="#CE7934"/><path d="M5 11h8v.57H5V11Z" fill="#383435" fill-opacity=".5"/><path d="M8.8 12c2.21 0 3.68-.2 4.2-.29H5c.38.1 1.57.29 3.8.29Z" fill="#CE7934"/><defs><linearGradient id="a" x1="8.96" y1="6" x2="8.96" y2="11.69" gradientUnits="userSpaceOnUse"><stop stop-color="#DD9937"/><stop offset=".22" stop-color="#FEEB7B"/><stop offset=".58" stop-color="#D3862B"/><stop offset=".81" stop-color="#FFF07E"/><stop offset="1" stop-color="#CE8027"/></linearGradient></defs></svg>