<!-- by TradingView --><svg width="18" height="18" viewBox="0 0 18 18" xmlns="http://www.w3.org/2000/svg"><path fill="#F0F3FA" d="M0 0h18v18H0z"/><path d="M12.9 10.44c.27-1.15 1.51-1.4 2.1-1.38-1.3.39-1.25 1.38-1.17 2.39.09 1-1.32 3.55-4.82 3.55-2.8 0-4.6-1.95-5.16-2.93 1.64.74 2.56.86 2.82.83a38.69 38.69 0 0 1-3.23-1.75 7.12 7.12 0 0 1-.43-2.83A8.7 8.7 0 0 0 6 11a14.8 14.8 0 0 1-2.76-3.86c.31-1.02 1.17-2 1.56-2.37.36 3.15 1.32 4.33 1.75 4.52a10.95 10.95 0 0 1-.93-5.15c1-.57 2-.91 2.39-1a9.94 9.94 0 0 0-.77 3.38c0 .72.15 1.34.22 1.48a12.55 12.55 0 0 1 1.55-5c1.45.15 2.27.5 2.5.66C9.61 5.34 8 8.49 8 10c0 1.52.83 3.1 2.55 3.1 1.72 0 2.03-1.23 2.35-2.66Z" fill="#C19227"/><path d="M12.57 9.25c.24-.53 1.93-.72 2.08-.53-1.73.28-1.47.95-1.84.98-.3.03-.32-.27-.24-.45Z" fill="#C19227"/><path d="M14.41 6.53c.42.77.57 1.55.59 1.85-3.36-.66-5.16 1.08-5.65 2.03.4-2.6 3.54-3.67 5.06-3.88Z" fill="#C19227"/><path d="M12.28 4c.74.55 1.48 1.36 1.72 1.66-4.28 1.6-5 3.67-5 4.7 0 .82.12 1.38.2 1.64-.19-.28-.55-.9-.55-1.86 0-3.03 2.42-5.38 3.63-6.14Z" fill="#C19227"/></svg>