<!-- by TradingView --><svg width="18" height="18" viewBox="0 0 18 18" xmlns="http://www.w3.org/2000/svg"><path fill="#4494DE" d="M0 0h18v18H0z"/><path d="M6 5H4v8h2v-3h1.38l-.34-.29a.13.13 0 0 1 0-.18 4.6 4.6 0 0 1 .85-.65c.09-.03.2-.07.31-.02.11.06.14.16.14.25v.05a.77.77 0 0 1 .22-.1c.1-.02.22 0 .31.08.09.1.1.21.1.32a.7.7 0 0 1-.02.08L9 9.52c.1-.04.22-.06.33-.03.06.02.1.06.15.1.03.05.05.1.06.16 0 .05 0 .1-.02.15l.08-.03c.12-.06.16-.07.3.02.08.06.16.1.23.11h.13a.1.1 0 0 0 .06-.05v-.01a.4.4 0 0 0-.05-.1 2.07 2.07 0 0 0-.38-.41l-.56-.48a.13.13 0 0 1 .17-.2c.15.12.37.3.56.49l.32.27c.06.04.15.09.23.12l.1.02h.02c.01-.01.02-.04.01-.1a.44.44 0 0 0-.03-.11l-1.34-1.1-1.24-.13A.13.13 0 0 1 8.06 8c.1-.08.23-.2.33-.33a1 1 0 0 0 .17-.26c.03-.08.01-.1 0-.11-.01-.02-.05-.04-.11-.04a.8.8 0 0 0-.24.05 1.9 1.9 0 0 0-.21.1V8H6V5Zm2 2.11.12-.05c.1-.03.22-.06.32-.06s.22.02.3.1c.1.1.1.22.08.33l.41-.22a.13.13 0 0 1 .06-.01H10v-.24l1.5.04c.15 0 .5.12.5.5s-.35.5-.5.5H10v-.55h-.68l-.75.4-.13.14.99.1c.02 0 .05.01.07.03l1.4 1.14.03.04a.7.7 0 0 1 .07.23c0 .09 0 .21-.1.3a.27.27 0 0 1-.19.07.55.55 0 0 1-.15-.02c.01.04.02.08 0 .12H12c.6 0 2-.8 2-2.5S13 5 12 5H8v2.11Zm2 3.12a1 1 0 0 1-.23-.12c-.08-.02-.18.02-.31.12a1.51 1.51 0 0 0-.33.36.13.13 0 0 1-.2-.16l.12-.16c.08-.1.15-.21.19-.32a.4.4 0 0 0 .04-.18v-.02l-.03-.01c-.04-.02-.09-.01-.16.01a.85.85 0 0 0-.21.15 1.96 1.96 0 0 0-.38.43.13.13 0 0 1-.2-.15l.16-.22.17-.3a.8.8 0 0 0 .08-.23c0-.07 0-.1-.02-.1 0-.02-.02-.03-.07-.02a.64.64 0 0 0-.2.11c-.17.11-.33.28-.43.4a.13.13 0 0 1-.2-.16c.08-.1.19-.25.25-.4a.45.45 0 0 0 .05-.15v-.02c-.01 0-.04 0-.1.03a4.16 4.16 0 0 0-.67.5l.47.38H8v.17c.27.2.53.39.71.48.32.16 1.04.09 1.29.02v-.44Zm0 .7c-.35.08-1.03.13-1.4-.06a4.53 4.53 0 0 1-.6-.39V13l2-.04v-2.03Z" fill="#fff"/></svg>