<!-- by TradingView --><svg width="18" height="18" viewBox="0 0 18 18" xmlns="http://www.w3.org/2000/svg"><path fill="#F0F3FA" d="M0 0h18v18H0z"/><path d="M5.9 7.68c.14.14.34.19.52.28.6.33 1.14.63 1.62.92.16.1.2.21.15.36-.06.15-.14.3-.25.45-.33.44-.66.85-1 1.23-.13.14-.3.18-.52.1a153.64 153.64 0 0 1-2.78-.88c-.28-.08-.89-.27-.53-.64C5.14 7.43 6.8 5.71 8.1 4.36c.23-.25.52-.44.9-.32 1.1.36 2.11.69 3.03.97.32.1.44.3.18.57A130.55 130.55 0 0 1 10 7.6c-.32.28-.67.56-1.03.8a.63.63 0 0 1-.51.08 9.27 9.27 0 0 1-.8-.23 94.13 94.13 0 0 1-1.77-.59v.01Z" fill="#E57E13"/><path d="M12.22 10.36h.01v-.02A24.19 24.19 0 0 1 9.9 9.04c-.11-.08-.14-.18-.08-.3.1-.18.21-.37.35-.55.27-.37.55-.72.83-1.04.17-.2.38-.25.64-.17l2.9.92c.14.05.27.1.4.17l.04.05c.04.13.02.25-.08.36l-5.17 5.33c-.27.28-.54.18-.92.06-1.01-.31-1.97-.62-2.87-.92a.56.56 0 0 1-.26-.17.15.15 0 0 1-.03-.16c.04-.08.1-.16.18-.23.34-.32.66-.65 1.01-.96l.66-.6c.55-.5 1.07-.93 1.55-1.26.14-.1.31-.13.5-.07.85.23 1.6.48 2.28.73.12.05.25.09.4.12Z" fill="#08589F"/></svg>