<!-- by TradingView --><svg width="18" height="18" viewBox="0 0 18 18" xmlns="http://www.w3.org/2000/svg"><path fill="#F0F3FA" d="M0 0h18v18H0z"/><path d="M5.67 11.8c-.54.16-1.08.23-1.63.19-.97-.08-1.7-.8-1.9-1.7-.22-.98-.2-2.07.2-2.98a2.1 2.1 0 0 1 1.73-1.27c1.42-.21 2.76.4 2.91 1.9 0 .04-.01.06-.05.06H5.5a.06.06 0 0 1-.02-.04c-.1-.4-.36-.6-.77-.71-.61-.16-1.12.44-1.25.94-.1.37-.12.8-.05 1.28.08.6.33 1.18.99 1.3.65.12 1.1-.38 1.23-.94a.03.03 0 0 0 0-.02L5.6 9.8l-.01-.01h-.54c-.03 0-.05 0-.05-.02V8.56l.01-.03h1.95c.02 0 .04 0 .04.02v3.44l-.03.01h-1.2l-.04-.02a.07.07 0 0 1-.03-.05v-.03l.02-.06a.03.03 0 0 0-.01-.04h-.04Z" fill="#42314F"/><path d="M9.06 7.75c.02.25.32.34.52.39l1.36.28c.74.16 1.31.52 1.36 1.32.06.89-.11 1.63-1.05 2.02-.76.32-1.86.31-2.63 0-.72-.28-1.08-1-1.05-1.72 0-.03.01-.04.04-.04h1.5c.02 0 .04.02.04.04.09.4.23.73.7.74.24 0 .51-.01.7-.16.34-.28.3-.8-.2-.89l-1.3-.24c-.68-.13-1.22-.47-1.38-1.14a2.11 2.11 0 0 1 .22-1.56c.5-.73 1.5-.86 2.37-.76 1.05.12 1.84.85 1.88 1.93 0 .05-.03.04-.06.04h-1.4l-.05-.01a.08.08 0 0 1-.03-.05c-.05-.29-.23-.66-.52-.73-.44-.12-1.04 0-1.02.54Z" fill="#679AC8"/><path d="m14.72 7.67.62-1.3c0-.01 0-.04-.02-.04h-1.5c.02-.14.05-.33.23-.33a173.88 173.88 0 0 0 1.94.02.04.04 0 0 1 0 .04l-.77 1.58a.05.05 0 0 1-.04.03h-.46Z" fill="#42314F"/><path d="M13.81 6.33h1.51a.03.03 0 0 1 .03.02v.02l-.73 1.53-.05.07a.14.14 0 0 1-.09.03h-1.94a.04.04 0 0 1-.03-.02.04.04 0 0 1 0-.04l.76-1.57c.01-.02.03-.04.05-.04h.5Z" fill="#679AC8"/></svg>