<!-- by TradingView --><svg width="18" height="18" viewBox="0 0 18 18" xmlns="http://www.w3.org/2000/svg"><path fill="#F0F3FA" d="M0 0h18v18H0z"/><path d="M9.09 3A2.03 2.03 0 0 0 6.9 5.34c.4-.41.96-.58 1.36-.54 2.54.28 2.8 2.9 2.62 4.17C12.3 8.25 11.48 3 9.1 3Z" fill="#3E6D9A"/><path d="M7.66 3.43c.5-.17 1.2-.26 1.94.05 1.3.54 2.18 3.55 1.3 5.48 1.38-.7.58-5.96-1.81-5.96-.63 0-1.1.17-1.43.43Z" fill="#1B2C39"/><path d="M3.2 6.67c-.73 1.66.68 2.6 1.47 2.78a1.5 1.5 0 0 1-.01-1.39c1.24-2.1 3.91-1.33 5.1-.68-.18-1.48-5.64-2.8-6.56-.71Z" fill="#4273A7"/><path d="M3.08 8.07c.02-.5.2-1.14.79-1.66 1.03-.93 4.32-.55 5.88.97-.17-1.48-5.63-2.8-6.55-.71a1.95 1.95 0 0 0-.12 1.4Z" fill="#1B2C39"/><path d="M14.95 7.43c-.48-1.74-2.2-1.69-2.95-1.39.52.26.84.73.9 1.1.35 2.39-2.27 3.29-3.63 3.44 1.08 1.08 6.28-.97 5.68-3.15Z" fill="#4876AE"/><path d="M12.69 5.89c.92.36 2.1.97 1.9 2.13-.15.85-1.32 1.95-2.72 2.56 1.68-.55 3.45-1.83 3.08-3.15-.36-1.31-1.43-1.6-2.26-1.54Z" fill="#1B2C39"/><path d="M12.42 13.73c1.6-1 .98-2.52.43-3.08a1.6 1.6 0 0 1-.81 1.16C9.76 12.9 8 10.86 7.4 9.7c-.73 1.31 3.03 5.27 5.02 4.02Z" fill="#5482CD"/><path d="M5.14 13.58c1.57 1.03 2.85-.07 3.21-.75a1.77 1.77 0 0 1-1.45-.29c-1.9-1.6-.53-3.88.4-4.83-1.58-.16-4.12 4.58-2.16 5.87Z" fill="#5682CD"/><path d="M5.35 7.26C4 7.84 4 8.72 4.27 9.31c.14.07.28.11.4.14a1.5 1.5 0 0 1-.01-1.39c.2-.33.43-.6.7-.8Z" fill="#1D3247"/><path d="M6.9 8.17c-.72.66-1.5 1.8-1.3 3.24.19 1.42 1.46 1.76 2.54 1.73.09-.1.16-.21.21-.31a1.77 1.77 0 0 1-1.45-.29c-1.65-1.38-.85-3.27 0-4.37Z" fill="#172A40"/><path d="M11.17 12.09c-1.85.29-3.25-1.38-3.77-2.39-.12.23-.12.55 0 .9 1.49 1.87 2.93 1.86 3.77 1.49Zm1.61-1.17c.03-.09.06-.18.07-.27.54.55 1.13 2.02-.33 3.01.8-.98.59-2.1.26-2.74Z" fill="#172A40"/></svg>