<!-- by TradingView --><svg width="18" height="18" viewBox="0 0 18 18" xmlns="http://www.w3.org/2000/svg"><path fill="#F0F3FA" d="M0 0h18v18H0z"/><path d="M7.85 3.32c.08-.43.15-.43.23 0 .41 2.2 3.58 1.77 3.88 4.23 0 .02 0 .02-.02.03h-.06c-.05.02-.08 0-.1-.06-.33-2-4.6-.25-3.93-4.2Z" fill="#BD191E"/><path d="M7.82 11.9c.68.38 2.27.26 2.02-.9-.1-.49-.02-.52.27-.11.98 1.42-.54 2.64-1.98 2.7-1.12.04-2-.4-2.62-1.3-1.26-1.84-.03-4.2 2.01-5.04a4.43 4.43 0 0 1 4.08.3c.01.03.01.06-.01.07a.08.08 0 0 1-.06.02c-1.67-.4-3.01 0-4.03 1.19-.75.88-.83 2.45.32 3.08Z" fill="#B3945F"/><path d="M9.1 14.04c1.47-.25 2.37-1.5 2.12-3.04-.22-1.31-2.06-2.04-2.53-.43a.32.32 0 0 0 .03.25l.2.39c.04.07.02.1-.06.1a.15.15 0 0 1-.11-.06c-.46-.5-.6-1.03-.44-1.58.37-1.26 1.8-1.62 2.9-1.22A2.64 2.64 0 0 1 13 10.96c.1 2.67-2.09 4.3-4.53 4a4.1 4.1 0 0 1-3.12-2.13l.01-.05.06-.04c.01-.02.03-.02.04 0a3.74 3.74 0 0 0 3.65 1.3Z" fill="#BD191E"/></svg>