<!-- by TradingView --><svg width="18" height="18" viewBox="0 0 18 18" xmlns="http://www.w3.org/2000/svg"><path fill="#F0F3FA" d="M0 0h18v18H0z"/><path d="M12.6 6.76c-1.5.6-4.48 2.73-4.62 6.2a9.66 9.66 0 0 1-.82-.12 8.57 8.57 0 0 1 5.14-6.23c-1.96.44-5.6 2.28-6.45 5.87C4.14 11.88 3 10.76 3 9.5 3 7.57 5.69 6 9 6s6 1.57 6 3.5c0 1.42-1.43 2.64-3.5 3.19a3.53 3.53 0 0 1-.64-1.98c0-1.57 1.33-3 2.04-3.64-2.66 1.55-3.11 3.8-3.11 4.73 0 .49.13.89.27 1.15-.22.03-.44.04-.66.05-.1-.24-.21-.6-.21-1 0-.68.36-3.26 3.41-5.24Z" fill="#00519F"/><circle cx="6.5" cy="7.5" r="1.5" fill="#EB0821"/><circle cx="6.45" cy="7.05" r=".75" fill="#FCB57F"/></svg>