<!-- by TradingView --><svg width="18" height="18" viewBox="0 0 18 18" xmlns="http://www.w3.org/2000/svg"><path fill="#F0F3FA" d="M0 0h18v18H0z"/><path d="m13.93 5.19 1.9 2.03c.06.07.17.02.17-.08V5.16c0-.09-.07-.16-.15-.16H14c-.09 0-.13.12-.07.19ZM2 7.58V12h.8c.27 0 .6-.26.6-.58V10h1.76c.19 0 .34-.2.34-.46V9H3.4V8h1.77c.18 0 .33-.37.33-.58V7h-3c-.28 0-.5.26-.5.58ZM6 7v5h.75c.32 0 .58-.31.58-.7v-.97h1.34c.73 0 1.33-.8 1.33-1.7C10 7.73 9.4 7 8.67 7H6Zm1.5 1h.55c.25 0 .45.34.45.75s-.2.75-.45.75H7.5V8Zm2.83-1c-.18 0-.33.22-.33.49V8h1.5v4h.97c.3 0 .53-.29.53-.64V8h1.17c.18 0 .33-.22.33-.49V7h-4.17Z" fill="#A01423"/></svg>