<!-- by TradingView --><svg width="18" height="18" viewBox="0 0 18 18" xmlns="http://www.w3.org/2000/svg"><path fill="#F0F3FA" d="M0 0h18v18H0z"/><path fill-rule="evenodd" d="M3.5 7.82a1.68 1.68 0 0 0 0 2.37L7.8 14.5c.66.66 1.72.66 2.38 0l4.32-4.32c.65-.66.65-1.72 0-2.37l-4.32-4.33a1.68 1.68 0 0 0-2.38 0L3.5 7.82Zm4.12-1.34a3.52 3.52 0 0 1 1.46-3.1c-1.12 3.5-.02 5.15.67 5.62h-1.1c-.28-.22-.89-.9-1.03-2.52Zm0 5.22a3.5 3.5 0 0 0 1.46 3.1c-1.12-3.5-.02-5.33.67-5.8h-1.1c-.28.22-.89 1.1-1.03 2.7Z" fill="#27B1DE"/></svg>