<!-- by TradingView --><svg width="18" height="18" viewBox="0 0 18 18" xmlns="http://www.w3.org/2000/svg"><path fill="#F0F3FA" d="M0 0h18v18H0z"/><path d="M9.82 8.67h2.36v-1.6c0-.47 0-.9-.46-.9h-.2V6H14v.16h-.2c-.58 0-.8.43-.8.9v3.88c0 .47.22.9.8.9h.2V12h-2.48v-.16h.2c.46 0 .46-.43.46-.9V9H9.82v1.94c0 .47.05.9.46.9h.2V12H8v-.16h.2c.57 0 .8-.43.8-.9V7.07c0-.48-.22-.9-.8-.9H8V6h2.49v.16h-.21c-.46 0-.46.44-.46.9v1.61ZM4.73 6.16V6h2.6v.16h-.22c-.24 0-.43.07-.54.21-.07.1-.1.32-.1.67V9.9c0 .44-.06.8-.16 1.07s-.27.51-.52.72c-.24.2-.54.3-.88.3-.28 0-.5-.07-.67-.2-.16-.13-.24-.29-.24-.46 0-.14.04-.25.11-.32a.5.5 0 0 1 .35-.14c.1 0 .18.03.25.1.08.06.18.22.3.48.06.15.15.23.26.23.08 0 .16-.04.22-.14.08-.1.11-.26.11-.5V7.03c0-.3-.02-.5-.06-.59a.4.4 0 0 0-.19-.19.85.85 0 0 0-.4-.1h-.22Z"/></svg>