<!-- by TradingView --><svg width="18" height="18" viewBox="0 0 18 18" xmlns="http://www.w3.org/2000/svg"><path fill="#175496" d="M0 0h18v18H0z"/><path fill-rule="evenodd" d="M13 11.98c1.23-.73 2-1.8 2-2.98v-.12l-2 1.52v1.58Zm-.03.02H11v-1.6L9.58 9.2V6l2.3 1.6 1.58-1.28A7.59 7.59 0 0 0 9 5a7.9 7.9 0 0 0-3.97 1H9.1L7.78 9H9v.36H5.44l.2-.36H4V6.79c-.63.63-1 1.4-1 2.21 0 .93.48 1.8 1.29 2.48l.16-.3H9V12H5.03A7.9 7.9 0 0 0 9 13a7.9 7.9 0 0 0 3.97-1ZM5.24 9.73H9v.36H5.04l.2-.36ZM9 10.82v-.37H4.85l-.2.37H9Zm3-2.52 2-1.5a4.57 4.57 0 0 0-.26-.25L12 7.85v.45Zm2.42-1.02L12 9.04V8.6L14.2 7l.22.28ZM12 9.78l2.74-1.95c-.05-.1-.1-.21-.17-.32L12 9.34v.43Zm0 .7 2.91-2.16a2.88 2.88 0 0 0-.11-.36L12 10.04v.44Z" fill="#fff"/></svg>