<!-- by TradingView --><svg width="18" height="18" viewBox="0 0 18 18" xmlns="http://www.w3.org/2000/svg"><path fill="#F0F3FA" d="M0 0h18v18H0z"/><path d="m6.92 4.53-1.8-.08c-.26.35-.8 1.06-.8 1.14 0 .08-.26 1.32-.2 1.42.05.09.63.62.91.88l1.89-3.36Z" fill="#00426A"/><path d="m3.07 9.83.69-1.02c.6.56 1.82 1.7 1.85 1.78.04.08.3 1.05.43 1.53l-2.17-.73-.8-1.56ZM12.81 13.3l-1.27.06c.13-.8.42-2.4.47-2.47l1.08-1.2.6 2.1-.88 1.52ZM11.07 3.5l1.03 1.05C11.4 5 9.83 5.67 9.74 5.7l-1.66.06.55-2.18 2.44-.08Z" fill="#004943"/><path d="m5.96 12.81 1 1.42c.45 0 1.38-.02 1.44-.06.07-.05 1.27-.6 1.32-.7.04-.09.15-.84.2-1.21l-3.96.55ZM14.05 9.45l.79-1.53c-.24-.37-.62-1.41-.7-1.44-.08-.03-1.26-.46-1.39-.44-.1 0-.84.3-1.2.44l2.5 2.97Z" fill="#00426A"/><path d="M5.42 8a21.16 21.16 0 0 0 3.38 2.98c-.98.51-2.75.63-3.51.63C4.54 10.49 3.03 8.17 3 7.86c-.03-.38.13-.96.71-1.9A5.7 5.7 0 0 1 5.17 4.4c-.31.48-.9 1.58-.7 2.14.18.56.7 1.2.95 1.45Z" fill="url(#a)"/><path d="M11.7 6.4c-1.73.31-3.46.99-4.11 1.29a8.27 8.27 0 0 1 1.1-3.2c1.3-.06 3.97-.14 4.24-.01.34.17.76.59 1.3 1.54.42.75.6 1.63.63 1.97-.26-.5-.92-1.52-1.49-1.65a4.53 4.53 0 0 0-1.68.05Z" fill="url(#b)"/><path d="M9.94 12.3c.6-1.64.9-3.47.96-4.17a8.47 8.47 0 0 1 2.35 2.54c-.62 1.15-1.95 3.48-2.21 3.64-.33.21-.93.36-2.08.34-.91 0-1.8-.3-2.13-.43.59.02 1.87-.04 2.28-.46.41-.42.73-1.15.83-1.47Z" fill="url(#c)"/><path d="M8.22 5.4a19.37 19.37 0 0 0-1 4.31 8.96 8.96 0 0 1-2.47-2.6c.65-1.17 2.01-3.57 2.28-3.74.34-.21.94-.37 2.1-.37.92 0 1.73.4 2.06.54-.6-.02-1.65-.01-2.07.42a4.7 4.7 0 0 0-.9 1.45Z" fill="url(#d)"/><path d="M12.62 9.86A19.93 19.93 0 0 0 9.3 7.03a11 11 0 0 1 3.51-.73c.72 1.07 2.17 3.35 2.19 3.65.02.37-.15.93-.74 1.85a5.91 5.91 0 0 1-1.48 1.53c.32-.47.92-1.55.75-2.08a4.25 4.25 0 0 0-.91-1.39Z" fill="url(#e)"/><path d="M6.34 11.56c1.8-.32 3.5-.91 4.17-1.2A8.97 8.97 0 0 1 9.5 13.3c-1.36.05-4.15.13-4.44 0-.35-.17-.79-.59-1.35-1.54a5.48 5.48 0 0 1-.66-1.97c.27.5.97 1.52 1.55 1.65.59.13 1.4.2 1.75.12Z" fill="url(#f)"/><defs><linearGradient id="a" x1="2.84" y1="5.37" x2="5.89" y2="12.17" gradientUnits="userSpaceOnUse"><stop offset=".03" stop-color="#23B4C7"/><stop offset=".24" stop-color="#A2D9ED"/><stop offset=".51" stop-color="#51C2EA"/><stop offset="1" stop-color="#06475D"/></linearGradient><linearGradient id="b" x1="15.13" y1="5.6" x2="7.9" y2="5.01" gradientUnits="userSpaceOnUse"><stop offset=".03" stop-color="#23B4C7"/><stop offset=".24" stop-color="#A2D9ED"/><stop offset=".51" stop-color="#51C2EA"/><stop offset="1" stop-color="#06475D"/></linearGradient><linearGradient id="c" x1="8.87" y1="15.64" x2="12.87" y2="9.53" gradientUnits="userSpaceOnUse"><stop offset=".03" stop-color="#23B4C7"/><stop offset=".24" stop-color="#A2D9ED"/><stop offset=".51" stop-color="#51C2EA"/><stop offset="1" stop-color="#06475D"/></linearGradient><linearGradient id="d" x1="9.23" y1="1.99" x2="5.11" y2="8.27" gradientUnits="userSpaceOnUse"><stop offset=".03" stop-color="#99D058"/><stop offset=".24" stop-color="#D6E27E"/><stop offset=".51" stop-color="#8FBF38"/><stop offset="1" stop-color="#005F47"/></linearGradient><linearGradient id="e" x1="15.1" y1="12.35" x2="12.17" y2="5.87" gradientUnits="userSpaceOnUse"><stop offset=".03" stop-color="#89BA2D"/><stop offset=".24" stop-color="#CDE393"/><stop offset=".51" stop-color="#93C446"/><stop offset="1" stop-color="#005C4F"/></linearGradient><linearGradient id="f" x1="2.76" y1="12.18" x2="10.3" y2="12.82" gradientUnits="userSpaceOnUse"><stop offset=".03" stop-color="#A0C97D"/><stop offset=".24" stop-color="#D7DB87"/><stop offset=".51" stop-color="#99CA3D"/><stop offset="1" stop-color="#005C44"/></linearGradient></defs></svg>