<!-- by TradingView --><svg width="18" height="18" viewBox="0 0 18 18" xmlns="http://www.w3.org/2000/svg"><path fill="#F0F3FA" d="M0 0h18v18H0z"/><path d="M12.99 5.63A2141.6 2141.6 0 0 1 7.62 7.1c-.19.05-.35.2-.48.46a.82.82 0 0 0-.07.59c.04.16.14.34.29.54.6.77 1.18 1.56 1.77 2.35.05.07.04.1-.04.06L5.74 9.8a.35.35 0 0 1-.16-.12L4.33 8a1.66 1.66 0 0 1-.32-1.19 1.59 1.59 0 0 1 .6-1.06c.18-.15.49-.28.92-.4 1.7-.44 3.36-.9 5-1.35a.2.2 0 0 1 .17.03L13 5.58l.01.03s0 .02-.02.02Z" fill="#D2111B"/><path d="M4.99 12.42a.03.03 0 0 1-.01-.02l.01-.02 5.28-1.45a.92.92 0 0 0 .4-.22c.11-.1.19-.22.23-.36a.9.9 0 0 0 .03-.44c-.03-.15-.09-.3-.2-.44a337.1 337.1 0 0 0-1.87-2.5c-.02-.02-.02-.04 0-.05 0-.02.02-.02.04-.02l3.3 1.29c.12.04.22.12.3.23.3.43.63.86.97 1.3.28.35.44.66.5.93a1.65 1.65 0 0 1-.2 1.18 1.6 1.6 0 0 1-.98.71L7.5 14a.29.29 0 0 1-.24-.04L5 12.42Z" fill="#014098"/></svg>