<!-- by TradingView --><svg width="18" height="18" viewBox="0 0 18 18" xmlns="http://www.w3.org/2000/svg"><path fill="#F0F3FA" d="M0 0h18v18H0z"/><path d="M13.4 7.91a.08.08 0 0 0-.06.03.07.07 0 0 0-.02.05v.88c0 .04 0 .07-.03.1a.17.17 0 0 1-.1.03h-.7c-.04 0-.08 0-.08-.03v-.98a.08.08 0 0 0-.08-.08l-.72-.01a.12.12 0 0 0-.12.12l.01.9a.08.08 0 0 1-.08.08h-.64c-.06 0-.09.01-.09-.04V7.53a.07.07 0 0 1 .02-.05.07.07 0 0 1 .05-.02h1.59c.04 0 .06-.01.06-.06v-.1c0-.06-.02-.15-.07-.15h-1.68c-.17 0-.2-.02-.3-.14a3.1 3.1 0 0 0-2.62-1.2 3.28 3.28 0 1 0 .53 6.54 2.76 2.76 0 0 0 1.43-.56c.15-.12.3-.26.46-.43a.36.36 0 0 1 .13-.08h.07v.01a.03.03 0 0 1 0 .03 4.26 4.26 0 0 1-2.52 1.63c-.28.05-.7.06-1.24.04a3.97 3.97 0 0 1-3.39-2.73 4.03 4.03 0 0 1 6.16-4.51c.4.29.74.66 1.08 1.03l.07.04c.02.01.04.03.07.03h4.23c.08 0 .12.06.12.14v.07c0 .06-.03.1-.1.1h-1.41c-.08 0-.12.03-.12.11v.08c0 .08.04.11.12.11h1.46c.07 0 .11.04.11.1v1.36a.08.08 0 0 1-.08.08h-.6c-.06 0-.08-.04-.08-.1v-.86c0-.08-.04-.12-.12-.13a5.24 5.24 0 0 0-.73 0Z" fill="#D8232D"/><path d="m12.05 8.38-.3-.11a.1.1 0 0 1-.06-.09v-.1a.1.1 0 0 1 .06-.09.1.1 0 0 1 .04 0l.27.03a.1.1 0 0 1 .08.08l.03.17a.1.1 0 0 1-.07.11.1.1 0 0 1-.05 0Zm1.55-.33.28-.06a.1.1 0 0 1 .11.06.1.1 0 0 1 .01.04v.12a.1.1 0 0 1-.08.1l-.3.06a.1.1 0 0 1-.12-.07.1.1 0 0 1 0-.05l.03-.12a.1.1 0 0 1 .07-.08Zm-1.83.53.3.02a.1.1 0 0 1 .1.1v.17a.1.1 0 0 1-.09.1.1.1 0 0 1-.05-.01l-.23-.09a.1.1 0 0 1-.05-.04l-.07-.1a.1.1 0 0 1 .04-.14.1.1 0 0 1 .05-.01Zm1.84.04.28-.05a.1.1 0 0 1 .1.12l-.02.12a.1.1 0 0 1-.07.07l-.28.08a.1.1 0 0 1-.12-.11l.03-.15a.1.1 0 0 1 .08-.08Zm-.1 1.78h-2.28a.11.11 0 0 1-.08-.03.12.12 0 0 1-.04-.07v-.13c-.02-.08.02-.12.1-.12h2.28c.09 0 .13-.04.13-.13v-.18a.13.13 0 0 0-.02-.09.11.11 0 0 0-.08-.03H11.2c-.08 0-.1-.04-.1-.12v-.04c0-.03.02-.07.04-.09a.14.14 0 0 1 .1-.04l.35-.02h2.34c.12 0 .23 0 .35.03.03 0 .06.02.08.04.02.03.03.06.03.1v1.58a.1.1 0 0 1-.03.06c-.01.02-.03.03-.06.03h-3.07c-.1 0-.14-.05-.14-.15v-.02c0-.1.05-.13.14-.13h2.26c.08 0 .13-.06.13-.14v-.18c0-.09-.04-.13-.12-.13Z" fill="#D8232D"/><path fill-rule="evenodd" d="M9.1 8.61a.08.08 0 0 1-.02.06.07.07 0 0 1-.05.02H7.08a.07.07 0 0 1-.06-.02.08.08 0 0 1-.02-.05v-1.8a.08.08 0 0 1 .02-.05.07.07 0 0 1 .05-.03h1.95a.07.07 0 0 1 .06.02.08.08 0 0 1 .02.05v1.8Zm-1.36-1.4c0-.04.03-.07.07-.07h.5c.04 0 .07.03.07.08v.26c0 .04-.03.08-.07.08h-.5a.07.07 0 0 1-.07-.08v-.26Zm.06.65a.07.07 0 0 0-.07.07v.27c0 .04.03.07.07.07h.5c.04 0 .07-.03.07-.07v-.27a.07.07 0 0 0-.07-.07h-.5Zm0 3.06a.08.08 0 0 1-.02.05.07.07 0 0 1-.05.03H5.78a.07.07 0 0 1-.07-.05v-.03L5.7 9.08a.08.08 0 0 1 .02-.05.07.07 0 0 1 .05-.03h1.95a.07.07 0 0 1 .06.02.08.08 0 0 1 .02.06v1.84ZM6.44 9.49c0-.05.03-.08.07-.08h.5c.04 0 .07.03.07.08v.27c0 .04-.03.08-.07.08h-.5a.08.08 0 0 1-.07-.08v-.27Zm.06.67a.08.08 0 0 0-.07.07v.28c0 .04.03.07.07.07H7c.04 0 .07-.03.07-.07v-.28a.08.08 0 0 0-.07-.07h-.5Zm4 .76a.08.08 0 0 1-.02.05.07.07 0 0 1-.05.03H8.48a.07.07 0 0 1-.07-.05v-.03L8.4 9.08a.08.08 0 0 1 .02-.05.07.07 0 0 1 .05-.03h1.95a.07.07 0 0 1 .06.02.08.08 0 0 1 .02.06v1.84ZM9.14 9.49c0-.05.03-.08.07-.08h.5c.04 0 .07.03.07.08v.27c0 .04-.03.08-.07.08h-.5a.08.08 0 0 1-.07-.08v-.27Zm.06.67a.08.08 0 0 0-.07.07v.28c0 .04.03.07.07.07h.5c.04 0 .07-.03.07-.07v-.28a.08.08 0 0 0-.07-.07h-.5Z" fill="#D8232D"/></svg>