<!-- by TradingView --><svg width="18" height="18" viewBox="0 0 18 18" xmlns="http://www.w3.org/2000/svg"><path fill="#181B1E" d="M0 0h18v18H0z"/><path d="M5 10c0-2.11 2-3.55 3-4-1.76 1.28-2.34 2.91-2.34 4 0 1.07.73 1.75 1.7 1.97C5.88 12.14 5 11.54 5 10Z" fill="#fff"/><path d="M10.2 6.86 14 4c-1.94 8.15-5.33 10-7.48 10C4.36 14 4 11.63 4 11.24c0-.38.05-1.15.3-1.93-.09 1.98.52 3.75 2.22 3.75 2.75 0 4.45-4 4.45-4.9 0-.73-.53-1.17-.77-1.3Z" fill="#fff"/><path d="M6 9.98A5.93 5.93 0 0 1 10 5C7.88 6.43 6.73 8.22 6.73 9.98c0 1.4.83 1.8 1.24 1.84-.06.06-.3.18-.68.18-.86 0-1.35-1.02-1.28-2.02Z" fill="#fff"/></svg>