<!-- by TradingView --><svg width="18" height="18" viewBox="0 0 18 18" xmlns="http://www.w3.org/2000/svg"><path fill="#F0F3FA" d="M0 0h18v18H0z"/><path d="M2.65 7h3.48c.48 0 .87.39.87.87s-.3.89-.72 1.05c.28.17.48.48.48.83 0 .7-.56 1.25-1.25 1.25H2l.65-4Zm.38 3.2h2.23c.27 0 .49-.22.49-.49 0-.2-.17-.38-.38-.38h-2.2l-.14.87Zm.38-2.31-.13.78h2.24c.24 0 .44-.2.44-.44a.34.34 0 0 0-.34-.34h-2.2ZM12 7l-1.07 1h-2.3c-.15.01-.5.12-.56.33.05-.57.53-1.32 1.36-1.33H12ZM8.63 7C8.09 7.18 7 7.86 7 9.1A1.8 1.8 0 0 0 8.63 11h1.8l1.21-1H9.21c-.48-.05-1.5-.52-1.5-1.51 0-.85.64-1.35.92-1.49Z" fill="#2F009E"/><path d="m16 7-1.07 1h-2.3c-.15.01-.5.12-.56.33.05-.57.53-1.32 1.36-1.33H16Zm-3.37 0c-.54.18-1.63.86-1.63 2.1a1.8 1.8 0 0 0 1.63 1.9h1.8l1.21-1h-2.43c-.48-.05-1.5-.52-1.5-1.51 0-.85.64-1.35.92-1.49Z" fill="#2F009E"/></svg>