<!-- by TradingView --><svg width="18" height="18" viewBox="0 0 18 18" xmlns="http://www.w3.org/2000/svg"><path fill="#F0F3FA" d="M0 0h18v18H0z"/><path d="m7.51 8.77-1.17.56c-.2.78-.21 2.34 1.41 2.34 2.03 0 5-2.67 5-5 0-.9-.56-2.67-2.81-2.67A6.12 6.12 0 0 0 4 10.33c.05 1.23.81 3.67 3.44 3.67 2.62 0 5.05-2.33 5.93-3.5l-1.09 1 1.45-2.4c.12-.17.2-.32.27-.43l-.27.44c-.28.42-.7.94-1.14 1.22l.16-.66c-.05.22-.25.73-.63 1 0 .05-.06.23-.3.5-.32.33-.48.5-.63.5-.06 0-.17.07-.29.15-.18.13-.4.28-.5.18-.15-.17-.93.17-.62.17.31 0 0 .5-.31.5-.25 0-.52-.11-.63-.17-.15.06-.65.17-1.4.17-.94 0-2.35-.84-2.35-2.34 0-1.2.21-1.72.32-1.83L6.5 8l1.01.77.08-1.1 1.1-.34.94.67-.94.33-.16 1-1.1.5.08-1.06Zm3.2-.1-1.09.5L9.79 7l1.1-.33.93.66-.94.34-.15 1Z" fill="#004EA1"/></svg>