<!-- by TradingView --><svg width="18" height="18" viewBox="0 0 18 18" xmlns="http://www.w3.org/2000/svg"><path fill="#F0F3FA" d="M0 0h18v18H0z"/><path fill="#AB020B" d="M6 3h6v2H6z"/><path d="M7.28 6.95c-.07 0-.13-.05-.12-.11l.1-.7c.01-.1.33-.06.4-.06 1.1 0 2.19-.02 3.28-.08.04 0 .06.03.06.06l-.11.74c0 .05-.05.09-.1.1-.42.07-.77.25-.79.6v4.2c0 1.73-.66 2.7-2.52 3.3h-.04l-.02-.02-.4-.46c-.03-.05-.03-.1.02-.14.71-.62.95-1.18.96-2.08.02-1.87 0-3.5 0-4.85 0-.54-.15-.58-.72-.5Z" fill="#041089"/></svg>