<!-- by TradingView --><svg width="18" height="18" viewBox="0 0 18 18" xmlns="http://www.w3.org/2000/svg"><path fill="#F0F3FA" d="M0 0h18v18H0z"/><path fill-rule="evenodd" d="M9 14c3.31 0 6-2.24 6-5s-2.69-5-6-5-6 2.24-6 5 2.69 5 6 5Zm4-5.63c-.85.53-3.07 1.6-5.17 1.6-.85 0-1.38-.28-1.38-.6 0-.31.59-.96 1.77-1.37C7.32 8 5 8.57 5 9.75c0 .6.66 1.25 2.27 1.25 1.6 0 3.92-.57 5.28-1.83-.05-.07-.27.03-.37.08.25-.18.77-.61.82-.88ZM8 9l1.1-3.27A5.08 5.08 0 0 0 11 5c-.08.22-.33.96-.7 2.14C9.94 8.32 8.62 8.87 8 9Zm1 0c.54-.06 1.73-.48 2.14-1.64.4-1.16.74-2.06.86-2.36-.2.14-.65.44-.86.5l-.54 1.61A3.13 3.13 0 0 1 9 9Z" fill="#DC0023"/></svg>