<!-- by TradingView --><svg width="18" height="18" viewBox="0 0 18 18" xmlns="http://www.w3.org/2000/svg"><path fill="#F0F3FA" d="M0 0h18v18H0z"/><path d="m10.44 12.66-1.01-1.4 1.42-1.12c0 .54.48.37.61.22l2.25-2.03c.27-.22.83-.46 1.15.08.33.54 0 .98-.2 1.13l-2.96 3.14a.77.77 0 0 1-1.26-.02Z" fill="url(#a)"/><path d="M6.86 13c2.13 0 3.85-1.8 3.85-4 0-.31-.03-.62-.1-.91l-.6.62a.2.2 0 0 1-.3 0 .23.23 0 0 1 0-.31l.76-.8A3.87 3.87 0 0 0 6.86 5 3.93 3.93 0 0 0 3 9c0 2.2 1.73 4 3.86 4Z" fill="url(#b)"/><path d="M9.43 11.98A3.77 3.77 0 0 1 6.86 13 3.93 3.93 0 0 1 3 9.07c.37.2.95.37 1.71.37a3.9 3.9 0 0 0 2.58-1.1l.33-.35.13-.16 2.26-2.34a1.56 1.56 0 0 1 2.26 0l.37.37-.1.04c-.5.22-1 .6-1.33.94L9.7 8.4a.23.23 0 0 0 0 .31.2.2 0 0 0 .3 0l1.5-1.55a3.97 3.97 0 0 1 1.46-.95l1.27 1.32c-.4-.08-.82 0-1.17.36-.3.3-.8.91-1.35 1.56a37.06 37.06 0 0 1-2.3 2.53Z" fill="url(#c)"/><defs><linearGradient id="a" x1="10.24" y1="12.39" x2="15.08" y2="8.82" gradientUnits="userSpaceOnUse"><stop stop-color="#F8B800"/><stop offset="1" stop-color="#ED6D00"/></linearGradient><linearGradient id="b" x1="4.07" y1="6.56" x2="9.21" y2="6.76" gradientUnits="userSpaceOnUse"><stop stop-color="#FCC802"/><stop offset=".52" stop-color="#FAC400"/><stop offset="1" stop-color="#F59500"/></linearGradient><linearGradient id="c" x1="12.64" y1="6.78" x2="4.56" y2="11.63" gradientUnits="userSpaceOnUse"><stop stop-color="#FBCE01"/><stop offset=".31" stop-color="#E82511"/></linearGradient></defs></svg>