<!-- by TradingView --><svg width="18" height="18" viewBox="0 0 18 18" xmlns="http://www.w3.org/2000/svg"><path fill="#F0F3FA" d="M0 0h18v18H0z"/><path d="M3 6.97c0-.54.38-.97.85-.97h10.3c.47 0 .85.43.85.97v4.06c0 .54-.38.97-.85.97H3.85c-.47 0-.85-.43-.85-.97V6.97Z" fill="#ED1B24"/><path fill-rule="evenodd" d="M14.15 6.16H3.85c-.4 0-.71.36-.71.81v4.06c0 .45.31.81.7.81h10.31c.4 0 .71-.36.71-.81V6.97c0-.45-.31-.81-.7-.81ZM3.85 6c-.47 0-.85.43-.85.97v4.06c0 .54.38.97.85.97h10.3c.47 0 .85-.43.85-.97V6.97c0-.54-.38-.97-.85-.97H3.85Z" fill="url(#a)"/><path fill-rule="evenodd" d="M6.67 7.71V7h-.34v.71H4V8h2.33v.43h-2v.28h4.34v-.28h-2V8H9v-.29H6.67Zm-2 1.58h3.66V11H8v-.29H5V11h-.33V9.29ZM8 10.43v-.86H5v.86h3ZM12.13 7l-.26.04c.02.19.04.37.08.53h-1.42V8.2c0 .21-.21.7-.53 1.14l.17.24c.14-.15.51-.56.6-1.14h.82l-.02.47a.1.1 0 0 1-.1.1h-.5l.04.29h.44c.2 0 .37-.17.38-.37l.04-.78H10.8v-.28h1.21c.12.44.29.78.46 1.03a3.6 3.6 0 0 1-.6.38l.2.3c.23-.1.44-.24.63-.4.28.28.56.4.76.4h-2.93v1.14H10V11h4v-.29h-.53V9.57c.36 0 .5-.48.53-.73l-.27-.13c-.04.4-.27.59-.33.58-.17-.08-.32-.2-.46-.35.24-.24.43-.5.53-.65l-.3-.15c-.11.2-.27.38-.44.54-.16-.25-.3-.54-.4-.82H14v-.29h-.67l.14-.16-.46-.4-.25.22.36.34h-.88c-.06-.22-.1-.42-.1-.57ZM10.8 9.86h.53v.85h-.53v-.85Zm.8 0v.85h.8v-.85h-.8Zm1.07.85h.53v-.85h-.53v.85Z" fill="url(#b)"/><defs><linearGradient id="a" x1="15" y1="9" x2="3" y2="9" gradientUnits="userSpaceOnUse"><stop stop-color="#C0903D"/><stop offset="1" stop-color="#EAC971"/></linearGradient><linearGradient id="b" x1="4.31" y1="7.43" x2="11.59" y2="13.58" gradientUnits="userSpaceOnUse"><stop stop-color="#C99A4D"/><stop offset=".65" stop-color="#FFF4B7"/><stop offset="1" stop-color="#DCBF75"/></linearGradient></defs></svg>