<!-- by TradingView --><svg width="18" height="18" viewBox="0 0 18 18" xmlns="http://www.w3.org/2000/svg"><path fill="#BB5E42" d="M0 0h18v18H0z"/><path d="M5.4 5.87c.58-.71 1.6-.55 2.04.25l.07.06a.04.04 0 0 0 .05 0l.01-.03v-.02c-.25-1.4 1.4-2.1 2.14-.92.16.25.2.57.1.93 0 .03.01.06.04.07a.1.1 0 0 0 .09 0 .1.1 0 0 0 .04-.04c.47-.93 1.7-.96 2.13.01 0 .01 0 .02.02.02a.04.04 0 0 0 .04 0l.01-.02.89-1.96c.1-.23.43-.43.68-.3.36.2.25.71.15 1.03A167.27 167.27 0 0 1 13 7.77l.01.04c.23.3.4.6.4.99 0 .45-.37.86-.75 1.05a.12.12 0 0 0-.07.1c.01.5.07 1.01.17 1.57.1.6.28 1.46.53 2.59.13.56-.5.86-.83.4-.1-.12-.2-.31-.3-.57l-.94-2.12c-.05-.13-.1-.12-.12.02-.24 1.33-.37 2.05-.4 2.15-.04.24-.12.48-.23.7a.54.54 0 0 1-.22.23c-.47.27-.72-.19-.82-.59l-.57-2.47a.24.24 0 0 0-.06-.12h-.02a.05.05 0 0 0-.04 0l-.01.03c-.17 1-.31 1.94-.57 2.81-.05.17-.2.36-.4.4-.4.09-.6-.23-.68-.6l-.45-2.14a2.56 2.56 0 0 0-.2-.55.05.05 0 0 0-.04 0l-.02.02-.1.25a185.3 185.3 0 0 1-.96 2.34c-.31.72-1.14.46-.96-.34.2-.89.38-1.77.53-2.65a6.54 6.54 0 0 0 .03-1.44.11.11 0 0 0-.04-.04c-.8-.4-1.23-1.3-.45-2.03a.15.15 0 0 0 .04-.15 7.5 7.5 0 0 1 .08-4.13c.1-.33.29-.59.67-.5.28.06.28.4.25.66l-.1.9c-.04.31-.04.74 0 1.27 0 .05.02.06.05.02Zm1.13 5.4c.28.13.37.41.44.72l.15.7c.03.18.05.18.06 0 .04-.87.09-1.49.01-2.35a19.18 19.18 0 0 0-.4-2.51.09.09 0 0 0-.06-.04h-.04c-.66.22-1.33-.17-1.53-.86a7.26 7.26 0 0 1-.1-3.28v-.16c-.03-.09-.06-.09-.09 0a6.86 6.86 0 0 0 .05 4.62c.05.14.13.28.24.42.27.38.65.75.22 1.2l-.13.15a.11.11 0 0 0-.02.07c.02.64-.02 1.26-.14 1.87-.15.8-.3 1.57-.47 2.3 0 .06 0 .12.02.17l.02.02a.05.05 0 0 0 .07-.02 62.96 62.96 0 0 0 1.14-2.74c.08-.18.34-.39.56-.28Zm3.9 1.87c.06-.22.13-.61.23-1.17.04-.23.1-.54.34-.64.3-.12.47.08.59.36l1.02 2.3c.05.12.12.22.18.3a.05.05 0 0 0 .06.02l.02-.02.01-.03v-.2c-.28-1.1-.49-2.18-.64-3.26-.04-.3-.06-.57-.05-.81 0-.03-.01-.06-.03-.08l-.12-.15c-.2-.23-.24-.5-.09-.8.07-.14.18-.28.32-.42.04-.04.1-.12.12-.2l.16-.59c.32-.92.64-1.86.93-2.8.06-.19.1-.38.11-.59l-.01-.04a.06.06 0 0 0-.03-.02c-.02 0-.04 0-.06.02l-.2.36c-.4.96-.75 1.7-1.02 2.21-.34.65-.66 1.03-1.37.98-.05 0-.13-.04-.2-.06-.03 0-.05.01-.05.04a10.48 10.48 0 0 0-.33 2.76l.06 2.53c0 .14.02.14.06 0ZM9.46 5.8a.8.8 0 0 0-.22-.54.73.73 0 0 0-1.05 0 .8.8 0 0 0 0 1.1.73.73 0 0 0 1.05 0 .8.8 0 0 0 .22-.56Zm-2.32.82a.78.78 0 0 0-.49-.72.8.8 0 0 0-.86.17.78.78 0 0 0 .56 1.34.8.8 0 0 0 .56-.23.78.78 0 0 0 .23-.56Zm4.66.04c0-.2-.07-.4-.21-.55a.73.73 0 0 0-1.22.25.8.8 0 0 0 .16.84.74.74 0 0 0 .53.23c.2 0 .39-.08.53-.23a.79.79 0 0 0 .21-.54ZM8.55 11.3c.3-.18.57.07.65.37.16.61.36 1.45.6 2.5a1.28 1.28 0 0 0 .14.38h.02a.04.04 0 0 0 .04 0l.02-.1-.1-2.44a22 22 0 0 1-.02-2.19c.03-.62.15-1.35.35-2.2 0-.03 0-.05-.02-.07-.2-.26-.33-.47-.35-.82a.16.16 0 0 0-.07-.11.15.15 0 0 0-.13-.03c-.15.05-.29.21-.43.28-.36.19-.73.19-1.1 0-.15-.08-.26-.21-.4-.3a.12.12 0 0 0-.13 0 .13.13 0 0 0-.04.05.13.13 0 0 0-.02.06c-.01.32-.13.59-.35.8a.1.1 0 0 0-.03.1 17.65 17.65 0 0 1 .4 6.17c-.02.33-.06.72.01.8.02.02.05.03.07.02.02 0 .04 0 .06-.02a65.84 65.84 0 0 0 .6-2.8c.03-.18.09-.36.23-.45ZM4.63 8.34c-.05-.13-.1-.13-.15 0l-.06.16a.45.45 0 0 0 .03.38c.13.25.44.62.7.53.02 0 .04-.01.05-.03a.13.13 0 0 0 .04-.1l-.02-.06c-.19-.3-.43-.5-.59-.88Zm8.16.09c0 .1-.01.24-.1.33-.2.18-.47.43-.38.64.04.09.1.1.18.06.47-.26.6-.6.42-1.05-.01-.02-.03-.04-.07-.04-.03 0-.05.02-.05.06Z" fill="#fff"/></svg>