<!-- by TradingView --><svg width="18" height="18" viewBox="0 0 18 18" xmlns="http://www.w3.org/2000/svg"><path d="M0 9a9 9 0 1 1 18 0A9 9 0 1 1 0 9Z" fill="#F0F3FA"/><path d="M11.63 3H6.37c-.37 0-.72.15-.97.38s-.4.56-.4.91v9.42c0 .35.15.68.4.91.25.23.6.38.97.38h5.26c.38 0 .72-.15.97-.38s.4-.56.4-.91V4.29c0-.35-.15-.68-.4-.91-.25-.23-.6-.38-.97-.38Zm-5.26.32h5.26c.6 0 1 .5 1 .97v9.42c0 .5-.39.97-1 .97H6.37c-.63 0-1-.44-1-.97V4.29c0-.53.37-.97 1-.97Zm2.64 6.33L6.09 4.63l.77 8.74L9 9.65Zm0 0 2.15 3.72.75-8.74L9 9.65Z" fill="#002D69"/></svg>