<!-- by TradingView --><svg width="18" height="18" viewBox="0 0 18 18" xmlns="http://www.w3.org/2000/svg"><path fill="#F0F3FA" d="M0 0h18v18H0z"/><path d="m3 11.64.08.36h6.45l-.08-.3.62-5.34H14L13.77 6H7.43l.23.28-.83 5.36H3ZM8.8 6.3l.3.24-.58 4.95-.41.2.7-5.4Z"/><path d="M11.77 12H9.74c-.1 0-.17-.11-.15-.23l.3-1.63c.02-.08.08-.14.15-.14h2c.1 0 .17.1.15.22l-.28 1.63c-.01.09-.07.15-.14.15Z" fill="#F2C703"/><path d="M12.54 10.64h.83c.1 0 .2-.08.21-.2L14 8.3c.02-.16-.08-.3-.22-.3h-2.6c-.1 0-.2.08-.22.19L10.8 9h2l-.26 1.64Z" fill="#F2C703"/></svg>