<!-- by TradingView --><svg width="18" height="18" viewBox="0 0 18 18" xmlns="http://www.w3.org/2000/svg"><path fill="#F0F3FA" d="M0 0h18v18H0z"/><path d="m11.71 8.88.14-.02.68 4.3c-.13.23-.28.44-.46.63a4.43 4.43 0 0 1-3.72 1.15c-.31-.05-.6-.14-.87-.26a2.95 2.95 0 0 1-1.45-1.44l.46-5.65a2169.78 2169.78 0 0 1-.62.17l-.17-.05a.77.77 0 0 1-.31-.23 1.2 1.2 0 0 1-.22-.43 3.52 3.52 0 0 1-.1-.85L5 6.16a9.74 9.74 0 0 1 .68-.45 4.36 4.36 0 0 0-.18-.6 1.13 1.13 0 0 0-.24-.36A1.27 1.27 0 0 1 5 4.57l.12-.17c.08.04.15.08.21.14l.05.03c.09.04.19.08.3.1.18.05.4.07.59.07a27.36 27.36 0 0 0 .6.03c.09 0 .17.02.25.04a.58.58 0 0 1 .22.1l.06-1.16a2.02 2.02 0 0 1-.35-.09l.06-.2a1.68 1.68 0 0 0 1.05 0A2.15 2.15 0 0 0 8.94 3l.17.12c.12.08.25.15.39.2a1.53 1.53 0 0 0 1.23-.04l.09.19a2 2 0 0 1-.43.14l.03.82h-.18a52.97 52.97 0 0 0 .16 1.59 1.07 1.07 0 0 1 .38.27l-.36-1.74.2-.05h.01l.1.44a1.26 1.26 0 0 1 .93-.3l-.02.2c-.25 0-.47.05-.67.19a1.48 1.48 0 0 0-.2.16l.24 1.1v.01l-.18.04c.08.12.13.25.15.4l.03.3a26 26 0 0 1 .03.4.5.5 0 0 0 .11.26h.3l-.1-.84h.02l-.35-.1.05-.2.77.2a.85.85 0 0 1 .05-.48c.06-.16.18-.31.3-.43a1 1 0 0 0 .07-.06.27.27 0 0 0 .05-.07c.03-.07.01-.15-.02-.22a.56.56 0 0 0-.04-.08.93.93 0 0 1-.11-.26.73.73 0 0 1 .01-.4 1.15 1.15 0 0 1 .26-.42h-.25c-.22 0-.45.03-.67.1a1.68 1.68 0 0 0-.59.32l-.13-.16c.24-.2.52-.34.83-.41l.42-.06a4.3 4.3 0 0 1 .9.03 43.63 43.63 0 0 0-.3.27c-.1.1-.2.22-.25.36a.52.52 0 0 0-.01.35.77.77 0 0 0 .09.19c.04.07.07.14.08.21.02.11 0 .22-.05.3a.5.5 0 0 1-.07.1l-.08.08a1 1 0 0 0-.2.25.64.64 0 0 0-.09.35c0 .07.02.15.05.22l.08.22-.6-.15.12 1h-.61a.53.53 0 0 1-.18-.19.78.78 0 0 1-.06-.2 1.52 1.52 0 0 1-.03-.27 4.71 4.71 0 0 0-.07-.6.62.62 0 0 0-.24-.33.87.87 0 0 0-.98-.05l-.1-.18a1.24 1.24 0 0 1 .39-.15.19.19 0 0 1-.05-.02l-.07-.04a.48.48 0 0 1-.2-.5c.04-.25.29-.4.54-.36a1.35 1.35 0 0 1 .05 0l-.04-.4a1.2 1.2 0 0 0-.54.04 2.3 2.3 0 0 0-.46.2 1.1 1.1 0 0 0-.49-.15c-.34-.01-.64.18-.88.42l-.1-.1h-.01a5081.4 5081.4 0 0 1-.1 1.8c.03.11.09.21.17.3.1.1.23.17.36.22l.27.07.36.03a3.6 3.6 0 0 0 .85-.08 1.56 1.56 0 0 1-.97-.33.74.74 0 0 1-.27-.24.52.52 0 0 1-.07-.3.76.76 0 0 1 .04-.2l.2.06a.62.62 0 0 0-.02.12c-.01.1.01.19.08.26.03.04.07.07.12.1.06.04.12.08.2.1.1.05.22.09.34.12l.27.07c.04 0 .1.02.15.04l.15.1.08.13.07.18c.07.19.16.36.25.52.18.28.43.54.75.64.5.15 1.01-.1 1.36-.45a2.27 2.27 0 0 0 .37-.5.62.62 0 0 1-.19.12.6.6 0 0 1-.38 0 1.83 1.83 0 0 1-.12-.05.86.86 0 0 1-.07-.2.5.5 0 0 1 .26-.55.6.6 0 0 1 .1-.04.79.79 0 0 1 .83.23 2.32 2.32 0 0 1-1.29 1.58Zm-3.25-5.3.03.92a1.26 1.26 0 0 1 .56.12 2.22 2.22 0 0 1 .4-.18l-.03-.92a2.27 2.27 0 0 1-.47-.25 2.6 2.6 0 0 1-.5.3Zm1.28.03-.1-.02.02.8v.01l.1-.01-.02-.78Zm.22.03.02.75a1.7 1.7 0 0 1 .22.04l-.02-.8h-.22Zm-1.82.07.02.84a1.05 1.05 0 0 1 .11-.03l-.03-.86a1.86 1.86 0 0 1-.15.05h.04Zm-.2.94h.01l-.03-.9a12.24 12.24 0 0 0-.3.01l-.06 1.17c.12-.1.25-.2.39-.28Zm-1.22 2.8-.47 5.7v.01a8.35 8.35 0 0 0 .88.26l.4-6.06h.04a.85.85 0 0 1-.32-.52v-.06a6962.5 6962.5 0 0 0 .06-1.15l-.08.03a.46.46 0 0 0-.3-.28.96.96 0 0 0-.3-.04 66.89 66.89 0 0 1-.44-.03.7.7 0 0 1-.24-.09l.11-.17.14.04.19.02a36.42 36.42 0 0 1 .53.05.7.7 0 0 1 .4.24l.03-.45-.13.13a.31.31 0 0 0-.1-.05 3.94 3.94 0 0 0-.48-.06c-.25 0-.36 0-.55-.02a2.84 2.84 0 0 1-.46-.07l.11.25c.1.25.14.5.2.8l.05.23c.06.26.18.52.37.73.18.19.4.3.67.31a1.35 1.35 0 0 0 .36-.02l.04.2c-.11.03-.22.04-.33.04a1.2 1.2 0 0 1-.9-.4c-.1-.1-.19-.22-.25-.35a2.22 2.22 0 0 1-.23-.73l-.35.22a1.84 1.84 0 0 1 .43.5 1.23 1.23 0 0 1 .13.85l.64-.16.02.09.13.01Zm3.32-2.2-.01-.02c-.14-.03-.31.04-.33.2a.3.3 0 0 0 0 .13.43.43 0 0 1 .35-.17l-.01-.15Zm.13.66a.54.54 0 0 1-.06.03h.06v-.03ZM5.72 7.48l.02-.23c0-.15-.03-.3-.1-.44a1.4 1.4 0 0 0-.36-.43c0 .16.03.32.06.47.03.15.08.3.17.44a.6.6 0 0 0 .2.2Zm6.75.13.13.15a2.03 2.03 0 0 0 .16-.39.59.59 0 0 0-.34-.12c-.16-.01-.36.06-.4.24a.4.4 0 0 0 .02.2c.1.04.2.05.29.01a.94.94 0 0 0 .14-.1ZM9.5 7.59a3.88 3.88 0 0 1-1.16.06 1.8 1.8 0 0 1-.61-.18l-.4 6a8.03 8.03 0 0 0 3.72-.12l-.34-4.42a1.5 1.5 0 0 1-.64-.48 3.4 3.4 0 0 1-.5-.95.34.34 0 0 0-.04-.07.14.14 0 0 0-.06-.05l.04.2Zm1.44 1.4.33 4.3a11.46 11.46 0 0 0 1-.32l-.63-4.07c-.23.09-.47.12-.7.08Zm.3 4.54-.27.78a3.56 3.56 0 0 0 1.27-1.09c-.33.12-.66.22-1 .3Zm-3.86.86a43.3 43.3 0 0 0-.22-.74 8.7 8.7 0 0 1-.8-.22 2.7 2.7 0 0 0 1.02.96Zm.27.13c.7.3 1.47.33 2.2.18a4.36 4.36 0 0 0 .85-.26l.3-.85H11a8.29 8.29 0 0 1-3.59.1l.25.83Z" fill="#1B154B"/><path d="M7.91 5.7a.46.46 0 0 1 .67-.5.46.46 0 0 1 .2.57v.05a.28.28 0 0 1-.09.13.45.45 0 0 1-.3.12.4.4 0 0 1-.17-.02l-.07-.03a.4.4 0 0 1-.12-.1.45.45 0 0 1-.12-.23Zm.67-.19a.24.24 0 0 0-.2-.14.24.24 0 0 0-.26.25c0 .03 0 .06.02.09.08-.15.28-.23.44-.2Z" fill="#1B154B"/><path d="m7.9 5.47.05 1.49h-.21l-.06-1.48H7.89ZM10.09 6.4a.25.25 0 0 0-.21.1.7.7 0 0 0-.07.1l-.18-.1c.05-.1.12-.2.21-.26a.46.46 0 0 1 .25-.06v.21Z" fill="#1B154B"/><path d="M7.8 12.18a.46.46 0 0 1-.19-.3.41.41 0 0 1 .15-.38 1491.65 1491.65 0 0 0 1.38-.61c.1-.02.18 0 .27.03l.08.04a2926 2926 0 0 1 1.11.53.5.5 0 0 1 .1.1c.03.03.05.06.06.1.06.18-.04.36-.18.48a.25.25 0 0 1-.05.03l-.9.42a.4.4 0 0 0-.06.03c-.14.1-.3.13-.48.08a.79.79 0 0 1-.17-.07 1375.12 1375.12 0 0 1-1.12-.48Zm1.82.39a988.86 988.86 0 0 1 .92-.43c.16-.12.26-.32.14-.5a.42.42 0 0 0-.19-.16 572.27 572.27 0 0 1-1.07-.5.4.4 0 0 0-.28-.04 1067.82 1067.82 0 0 1-1.36.6.4.4 0 0 0-.1.14c-.07.16 0 .34.12.45l.04.02a1309.07 1309.07 0 0 0 1.24.53.52.52 0 0 0 .48-.07l.03-.02.03-.02Z" fill="#E51E25"/><path d="M7.86 12.12c-.15-.11-.21-.3-.12-.46a.39.39 0 0 1 .1-.1A1595.6 1595.6 0 0 0 9.11 11c.1-.03.2-.02.3.03.02 0 .03.02.05.03l.97.42.09.05c.1.07.17.17.15.3 0 .1-.07.2-.15.26a.39.39 0 0 1-.03.03l-.04.02-.88.38-.05.03a.54.54 0 0 1-.43.06.77.77 0 0 1-.16-.06.9.9 0 0 0-.07-.03l-.96-.39a.21.21 0 0 1-.05-.02Z" fill="#E51E25"/></svg>