<!-- by TradingView --><svg width="18" height="18" viewBox="0 0 18 18" xmlns="http://www.w3.org/2000/svg"><path fill="#F0F3FA" d="M0 0h18v18H0z"/><path fill-rule="evenodd" d="M3 6.97v4.06c.12.32.56.97 1.39.97h9.22a1.5 1.5 0 0 0 1.39-.97V6.97A1.5 1.5 0 0 0 13.61 6H4.4A1.5 1.5 0 0 0 3 6.97Zm1.39-.37a1.1 1.1 0 0 0-.49.48v3.84c.11.23.36.44.49.48h9.22c.13-.04.38-.25.49-.48V7.08a1.1 1.1 0 0 0-.49-.48H4.4ZM10 8v2H5v-.5h4.41v-1H5V8h5Zm2 0h1v.5h-1v1h1v.5h-1.5V8h.5Z" fill="#1F2C5C"/><path d="M9 6v.6h4V6H9Zm4 6v-.6H9v.6h4Zm-4-2h1V8H9v.5h.41v1H9v.5Zm4-1.5V8h-1.5v2H13v-.5h-1v-1h1Z" fill="#EF822B"/></svg>