<!-- by TradingView --><svg width="18" height="18" viewBox="0 0 18 18" xmlns="http://www.w3.org/2000/svg"><path fill="#F0F3FA" d="M0 0h18v18H0z"/><path d="M11.67 8.2V2l.42 6.62c.57.68.91 1.54.91 2.48 0 2.15-1.8 3.9-4 3.9s-4-1.75-4-3.9c0-1.86 1.33-3.4 3.11-3.8v-4l.4 3.93a4.14 4.14 0 0 1 1.38.07V2.43l.4 4.98c.52.17.98.44 1.38.78Z" fill="#323F84"/><path d="M11.67 8.2c-.03 3.84-1.47 5.92-2.6 6.8H9c-1.9 0-3.5-1.3-3.9-3.05C7.37 11.72 7.77 9 7.68 7.42c.15-.05.3-.1.44-.13.32 3.75-1.05 5.26-1.79 5.54 2.56 0 3.14-3.6 3.12-5.6.15.01.3.03.44.07-.02 4.44-1.49 6.4-2.22 6.83 2.9-.83 3.57-4.39 3.56-6.27.15.1.3.21.44.33Z" fill="url(#a)"/><defs><linearGradient id="a" x1="8.38" y1="7.22" x2="8.38" y2="15" gradientUnits="userSpaceOnUse"><stop stop-color="#B1DEED"/><stop offset=".49" stop-color="#ECF6F8"/><stop offset="1" stop-color="#87BFD9"/></linearGradient></defs></svg>