<!-- by TradingView --><svg width="18" height="18" viewBox="0 0 18 18" xmlns="http://www.w3.org/2000/svg"><path fill="#01AD8D" d="M0 0h18v18H0z"/><path d="M2.44 10.29c.52.2 1.08-.08 1.28-.64.05-.14.06-.37.07-.68V7.41c0-.56.6-.52.6-.05v1.8c-.01 1.3-1.06 2.14-2.16 1.74-.4-.15-.25-.79.21-.61ZM7.76 7.36c0-.47.61-.47.61-.04V9.1c0 .83-.34 1.42-1.02 1.75-.94.45-2.02-.16-2.28-1.19A3.29 3.29 0 0 1 5 8.9V7.36c0-.17.09-.34.25-.35.34-.04.36.22.36.51v1.54c0 .22.03.39.07.51.35 1.04 1.69 1 2.02-.01.04-.13.06-.29.06-.49V7.36ZM10.86 9.83l1.3-2.65c.18-.38.7-.1.48.35l-1.49 3.2c-.18.38-.44.35-.61-.02l-1.5-3.24c-.17-.36.31-.7.54-.24a790.43 790.43 0 0 1 1.28 2.6ZM14.2 8.17v-.01h-.02l-1.2 2.5c-.07.14-.13.23-.16.27-.24.22-.57-.1-.4-.46l1.48-3.24c.13-.28.41-.32.55-.03l1.51 3.3c.14.3-.15.61-.39.44a.6.6 0 0 1-.14-.21c-.42-.85-.83-1.7-1.23-2.56Z" fill="#fff"/></svg>