<!-- by TradingView --><svg width="18" height="18" viewBox="0 0 18 18" xmlns="http://www.w3.org/2000/svg"><path fill="#F0F3FA" d="M0 0h18v18H0z"/><path d="M5 5.57c0-.31.26-.57.57-.57h2.86c.31 0 .57.26.57.57v2.86c0 .31-.26.57-.57.57H5.57A.57.57 0 0 1 5 8.43V5.57Z" fill="#E51F38"/><path d="M5 10.57c0-.31.26-.57.57-.57h2.86c.31 0 .57.26.57.57v2.86c0 .31-.26.57-.57.57H5.57a.57.57 0 0 1-.57-.57v-2.86Z" fill="#B0B0B0"/><path d="M9.11 9A.11.11 0 0 1 9 8.89 4.05 4.05 0 0 1 12.89 5c.06 0 .11.05.11.11V8.9c0 .06-.05.11-.11.11H9.1Z" fill="#E51F38"/><path d="M9.11 10a.11.11 0 0 0-.11.11A4.05 4.05 0 0 0 12.89 14c.06 0 .11-.05.11-.11V10.1a.11.11 0 0 0-.11-.11H9.1Z" fill="#B0B0B0"/></svg>