<!-- by TradingView --><svg width="18" height="18" viewBox="0 0 18 18" xmlns="http://www.w3.org/2000/svg"><path fill="#F0F3FA" d="M0 0h18v18H0z"/><path d="M9 10a3.3 3.3 0 0 0 1.1-1.1 2.72 2.72 0 0 0 0-2.8A3.3 3.3 0 0 0 9 5c-.47.29-.84.66-1.1 1.1a2.72 2.72 0 0 0 0 2.8c.26.44.63.81 1.1 1.1ZM9.08 13c.56.03 1.13-.05 1.65-.25s1-.5 1.37-.88c.37-.39.64-.85.78-1.34.14-.5.16-1.02.04-1.52a3.98 3.98 0 0 0-1.65.24c-.52.2-1 .5-1.37.88a3.2 3.2 0 0 0-.78 1.34c-.14.5-.16 1.02-.04 1.52Z" fill="#007549"/><path d="M8.92 13a3.98 3.98 0 0 1-1.65-.25c-.52-.2-1-.5-1.37-.88a3.2 3.2 0 0 1-.78-1.34A3.02 3.02 0 0 1 5.08 9c.56-.04 1.13.04 1.65.24.52.2 1 .5 1.37.88.37.39.64.85.78 1.34.14.5.16 1.02.04 1.52Z" fill="#007549"/><path fill-rule="evenodd" d="M5.67 13.99A6 6 0 1 0 12.33 4 6 6 0 0 0 5.67 14ZM9 14A5 5 0 1 0 9 4a5 5 0 0 0 0 10Z" fill="#9AC712"/></svg>