<!-- by TradingView --><svg width="18" height="18" viewBox="0 0 18 18" xmlns="http://www.w3.org/2000/svg"><path fill="#F0F3FA" d="M0 0h18v18H0z"/><path d="M14 12.95c0 .01 0 .02-.02.03a.06.06 0 0 1-.04.02H4.06c-.02 0-.03 0-.04-.02a.05.05 0 0 1-.02-.03v-7.9c0-.01 0-.02.02-.03A.06.06 0 0 1 4.06 5h9.88c.02 0 .03 0 .04.02l.02.03v7.9ZM9.1 5.79a3.27 3.27 0 0 1 3.13-.18 3 3 0 0 1 1.57 1.95c.01.01.02 0 .02-.01v-2.3l-.03-.06a.1.1 0 0 0-.06-.02h-6c-.01 0-.02 0-.02.03v1.17c0 .04-.02.06-.06.06h-.61L7 6.42 7 6.39V5.21c0-.03-.02-.04-.04-.04h-.1l-.03.01-.01.04v1.16l-.02.03a.05.05 0 0 1-.04.02h-.68V6.4l-.01-1.13c0-.07-.04-.1-.1-.1h-.06a.08.08 0 0 0-.03.07V6.4l-.01.02H5.13a.05.05 0 0 1-.02-.04V5.22a.05.05 0 0 0-.01-.04.06.06 0 0 0-.04-.01H5c-.04 0-.13.01-.13.05v1.2H4.2c-.04 0-.06.03-.06.06v.47c0 .04.02.05.07.05h.64l.02.01V8.43h-.64c-.06 0-.09.04-.09.1v.4c0 .06.03.08.08.08h.63l.02.01v3.81l.03.01h1.86a.02.02 0 0 0 0-.04 5.56 5.56 0 0 1-1.64-3.77.04.04 0 0 1 .03-.02H5.86l.01.03a4.82 4.82 0 0 0 .99 2.5 8.56 8.56 0 0 0 1.16 1.3h5.75l.03-.01.01-.03v-1.07l-.01-.01a.04.04 0 0 0-.04 0 4.9 4.9 0 0 1-1.54.76c-.19.05-.42.08-.6.1l-.1.02c-.18.03-.36.04-.52.05a5.98 5.98 0 0 1-1.48-.15c-1.66-.39-3.23-1.77-3.44-3.46 0-.02 0-.03.03-.03h.7l.05.01.02.04c.15 1.26 1.38 2.14 2.5 2.58.2.08.49.15.88.2a4.25 4.25 0 0 0 3.54-1.16.08.08 0 0 0 .01-.05v-1.8c0-.04 0-.04-.02 0l-.06.18-.06.19c-.26.62-.66 1.1-1.23 1.45a3.13 3.13 0 0 1-4.14-.82 2.82 2.82 0 0 1-.53-1.75c.02-.91.57-1.76 1.33-2.28Zm4 2.38c0-.58-.24-1.14-.66-1.55a2.35 2.35 0 0 0-3.24 0 2.14 2.14 0 0 0 0 3.1 2.35 2.35 0 0 0 3.24 0c.42-.41.67-.97.67-1.55Zm-.4 0a1.7 1.7 0 0 1-.54 1.25 1.86 1.86 0 0 1-1.3.52 1.9 1.9 0 0 1-1.31-.52A1.73 1.73 0 0 1 9 8.17c0-.46.19-.91.54-1.24a1.9 1.9 0 0 1 2.6 0c.36.33.55.78.55 1.24Zm-.34 0c0-.37-.16-.74-.44-1a1.53 1.53 0 0 0-2.43.46 1.37 1.37 0 0 0 .32 1.55 1.5 1.5 0 0 0 1.05.42c.4 0 .78-.15 1.06-.42.28-.26.44-.63.44-1ZM5.16 7h.68c.02 0 .03.02.03.04v1.35c0 .02-.01.04-.03.04h-.68a.04.04 0 0 1-.04-.04V7.04c0-.02.02-.04.04-.04Zm1.6 0H6.1a.04.04 0 0 0-.03.04v1.35c0 .02.01.04.03.04h.67c.02 0 .04-.02.04-.04V7.04A.04.04 0 0 0 6.76 7Zm4.66.52c0 .3-.26.54-.57.54a.55.55 0 0 1-.56-.54c0-.3.25-.53.56-.53.31 0 .57.24.57.53Zm-1.19 1.53c.32 0 .57-.24.57-.54 0-.3-.25-.54-.57-.54a.55.55 0 0 0-.56.54c0 .3.25.54.56.54Zm1.84-.54c0 .3-.25.54-.56.54a.55.55 0 0 1-.57-.54c0-.3.26-.54.57-.54.31 0 .56.24.56.54Z" fill="#FD0002"/></svg>