<!-- by TradingView --><svg xmlns="http://www.w3.org/2000/svg" width="18" height="18"><path fill="#010066" d="M0 0h18v18H0z"/><path fill-rule="evenodd" d="M11.94 4.25c2.06.55 1.8 2.8 1.41 3.86-.15-.87-.82-.85-1.03-.67a2.1 2.1 0 00-.87-1.06c-.23-.1-.61-.13-.85-.13-.2-.01-.6-.1-.6-.4-.01-.29.43-.35.66-.35 1.07 0 1.64 1.04 1.79 1.56-.36-1.79-2.04-1.8-2.37-1.8H10c-.32 0-.72 0-1.66.2-.8.17-1.12-.16-1.12-.34-.11-.83 1.3-1.1 1.98-1.12A3.65 3.65 0 0113 7.1a3.03 3.03 0 00-1.35-2.53c-.24-.25.08-.38.28-.32zM9.77 8.5c-.43.09-.87.11-1.04.11.32.26.2.6.1.74.05.02.2.05.32.06.15 0 .45-.1.44-.32 0-.18-.23-.26-.34-.28l.56-.14c.04-.02.11-.06.1-.12 0-.06-.1-.06-.14-.05zM7.33 6.66c-.14.15-.07.36-.03.44.12-.21.25-.26.28-.24.03.01.12-.01.16-.02l.62-.23c.2.01.25.25.25.37-.04.55-.57.78-1.02.97-.12.05-.24.1-.34.16-.17.09-.33.18-.47.3-1.7-.67-1.16-2.14-.68-2.8-.6-.08-1.79.24-1.7 2.27.07 2.02 1.62 2.52 2.39 2.51.4.5.98.97 1.34 1.21.07.04.1.14.1.18L8.03 13c-.02.12-.1.17-.13.18a.36.36 0 00-.22 0 .94.94 0 01-.3.03v.07l.47-.02c-.14.04-.45.1-.57.1-.12 0-.16.07-.16.1l.02.2a1 1 0 01.17.13l-.03-.24.48-.14c-.22.11-.29.22-.3.26 0 .2.2.24.3.22-.12-.1-.14-.2-.14-.22l.31-.2c.12-.1.37-.28.43-.26.07.02.19-.01.24-.03-.1.1-.22.1-.27.08-.03.04-.1.1-.17.1-.06.01-.14.1-.17.14a.19.19 0 00-.06.2c-.02.16.12.22.2.23-.12-.09-.05-.2 0-.23a.57.57 0 00.23-.13c.09-.08.28-.19.36-.23 0 .04-.13.12-.2.16 0 .04-.02.05-.05.08l-.08.09c-.06.08-.02.14 0 .15 0 .14.09.14.13.13-.05-.05-.02-.1 0-.13.03-.02.1-.07.1-.12.03-.07.38-.46.67-.42.24.04.24.2.2.29.14-.03.2-.12.2-.16 0-.1-.04-.3-.3-.3h-.47l.05-.37c.24-.03.34-.13.36-.18a.55.55 0 01-.33 0c.1-.45.2-.67.23-.73.53.03.78-.12.84-.2-.28.08-.63.03-.78 0-.28-.15-.46-.41-.5-.52h-.27l.26-.07a2.13 2.13 0 01-.21-.31 4.8 4.8 0 002.25.9 4.69 4.69 0 01-1.25-.78c1.21.73 1.97.54 2.2.36-.78-.03-1.15-.25-1.23-.36 1.67-.26 2.56-1.46 2.7-2.3.1-.65-.17-.97-.31-1.04-.2-.12-.61-.23-.6.24 0 .47-.17.99-.25 1.2-.27.97-1.8 1.64-2.9 1.65-.87 0-1.23-.61-1.3-.92.39.68.9.83 1.12.83h.21c.28 0 .4 0 .86-.16l.07-.03c.44-.17.81-.3 1.04-.48l.08-.07c.33-.25.56-.43.74-.94l.07-.19c.1-.26.16-.4.07-1.03.02-.62-.51-1-.7-1.07a1.52 1.52 0 01-.62 1.88c1.15-1.53.37-2.03-.16-2.1.61.8.06 1.68-.3 2.02.13-.03.19-.01.2 0 .21.09.12.42.05.57-.06.25-.31.43-.43.48-.14.28-.54.39-.72.4-.51.21-.98.07-1.16-.03a.25.25 0 01-.13.08c-.2-.07-.17-.25-.14-.33.08.32.18.27.23.2V9.6c.23.34.85.26 1.13.17l.23-.05c.16-.03.25-.05.45-.27.07-.09.14-.13.2-.17.11-.06.2-.12.27-.33l.03-.09c.02-.05.04-.08.04-.3 0-.24-.17-.18-.26-.13-.23.2-.7.35-.9.4.19.08.21.23.2.3-.13.42-.63.36-.87.27a.82.82 0 01-.48.12c.38-.06.54-.26.56-.44.03-.17-.07-.5-.56-.51-.39 0-.5.5-.51.75-.04-.2 0-.7.51-1.12.51-.4.68-.83.7-.99l.19.3c-.01-.46-.08-.66-.12-.7l.26.24c-.17-.47-.38-.65-.46-.69h.28A2.72 2.72 0 008.05 6c-.07 0-.07-.02-.03-.11.04-.08.02-.1 0-.11-.18-.01-.42.11-.47.26a.46.46 0 01-.14.2c-.03-.06-.06-.07-.08-.07-.1.05-.04.23 0 .32-.03.03-.01.13 0 .18zm.8 4.24l-.38.08H8l.23.25-.17.08.14-.02c.08.1.28.33.37.4.1.08.21.04.25.03l.02-.01c.02.15-.25.15-.38.13l-.14.62c.03.05.25.06.36.07-.07.12-.29.15-.4.14l-.05.4c0 .04.23.03.34.03.1.05.15 0 .16-.02l.19-1.2c.05-.14 0-.2-.04-.22a3.8 3.8 0 01-.82-.68l.06-.08zM4 9.07c.27.14.85.61 1.06 1.4.2.8 1.22 1.16 1.7 1.24.21-.12.72-.27 1.04.06.4.42-.02.99-.44 1-.43.02-.81-.3-.84-.47-.52-.17-1.58-.65-1.74-1.27A8.41 8.41 0 004 9.07zm.76 2.6c-.33-.28-.64-.7-.76-.86 0 .12.4.7.6.98.16.61.47.92.6 1 .55.15.51.38.43.47.1.3.4.88.89.7.6-.21.17-.85-.2-1.22-.29-.3-.86-.38-1.11-.39-.01-.1-.12-.4-.45-.68zm9.08-3.54c-.04.16-.17.55-.38.83-.22.28-.23.65-.21.8a1 1 0 01-.55.86c-.45.23-.3.62-.17.8 0 .09-.06.24-.3.13-.11-.12-.36-.28-.5 0-.19.36.26.6.67.5.4-.1.44-.47.45-.64.01-.16.23-.44.55-.68.26-.2.4-.8.44-1.1l-.3.46c.03-.3.16-1.02.45-1.56a.37.37 0 00-.15-.4zm-3.02 4.41c.48-.02.8-.32.91-.47-.03.25-.2.76-.53.8a2.3 2.3 0 00-.75.21c-.16 0-.55-.02-.77-.06-.28-.04-.34-.41-.1-.48.18-.05.27.1.29.18l.03-.01c.21-.08.36-.14.92-.17zm3.14-.97c-.17.2-.63.6-1.1.68-.49.08-.83.52-.95.74-.1-.04-.38-.06-.76.25-.2-.02-.57.02-.57.3 0 .29.44.41.66.44.15 0 .5-.05.76-.26.25-.22.53-.58.64-.73.08-.12.33-.37.64-.43.3-.06.58-.69.68-1z" fill="#fff"/></svg>