<!-- by TradingView --><svg xmlns="http://www.w3.org/2000/svg" width="18" height="18"><path fill="#00A4EC" d="M0 0h18v18H0z"/><path fill-rule="evenodd" d="M8 14v-.61h.69V11.9c-.08.65-1.61 1.37-2.8.35-.41-.35-.82-1.25-.13-2.3-.53-.02-1.7-.45-1.76-1.77a1.85 1.85 0 011.68-1.75 1.74 1.74 0 01.85-2.27c.49-.25 1.78-.3 2.41.82a1.9 1.9 0 012.43-.82c.52.2 1.3 1.04.79 2.27.54-.01 1.84.45 1.84 1.75 0 1.41-1.16 1.77-1.84 1.77.28.46.6 1.64-.17 2.33-.8.73-2.3.48-2.68-.38v1.49H10V14H8zm.69-7.25v4.6c-.15-.25-.6-.68-1.12-.33.32 0 .73.26.67.61-.09.5-1.06.97-1.91.33-.48-.37-.61-1.57.18-1.93.15-.07.53-.05.7.6.15-.28.23-.89-.63-1.07.13-.26.23-.85-.45-1.1.08.09.21.32.2.57-.02.31-.33.47-.68.47-.3 0-1.13-.47-1.13-1.25 0-.93.82-1.3 1.13-1.3.32 0 .68.1.68.45-.01.11-.06.37-.2.55.26-.07.72-.37.45-1.05.21-.05.63-.3.63-.84-.1.15-.37.45-.69.45-.3-.01-.5-.52-.5-.81-.02-.27.11-.9.84-1.2.41-.18 1.44-.13 1.67.85.04.16-.03.45-.38.56-.03.03-.17.06-.46 0 .22.22.79.5 1.24-.15.2.29.75.72 1.3.15-.2.05-.65.03-.83-.23-.32-.45.56-1.52 1.6-1.19.27.1.83.48.89 1.27 0 .25-.1.65-.59.75-.11.02-.34-.08-.6-.45-.06.2 0 .67.68.9-.06.3-.05.9.5.99a.98.98 0 01-.18-.55c0-.28.21-.45.6-.45.38 0 1.22.42 1.22 1.22 0 .73-.63 1.29-1.22 1.33-.17 0-.53-.07-.6-.47a.86.86 0 01.19-.57c-.24.05-.66.34-.5 1.04-.37.09-1.02.45-.68 1.14.03-.22.2-.66.6-.66.47 0 .68.64.71 1.04.03.4-.28 1.13-1.08 1.2-.81.06-1.46-.59-1.63-1.83.32-.1 1.02-.69 1.63-2.28l-.14-.08c-.21.33-.75 1.08-1.25 1.47-.1.08-.24.15-.24-.23V6.75H8.7z" fill="#fff"/></svg>