<!-- by TradingView --><svg width="18" height="18" viewBox="0 0 18 18" xmlns="http://www.w3.org/2000/svg"><path fill="#F0F3FA" d="M0 0h18v18H0z"/><path d="M13.32 11.52a5 5 0 1 0-8.51.21c.15-.14.28-.33.28-.54 0-.47.16-.78.32-1.1.07-.15.11-.27.15-.39.04-.11.08-.23.16-.39L5.9 9c.14-.2.28-.42.28-.62 0-.12-.05-.22-.09-.3-.06-.14-.1-.23.09-.33.31-.16.31-.31.31-.62 0-.19.1-.26.2-.33.06-.04.11-.08.11-.14 0-.16 0-.47.16-.63.06-.06.07-.2.09-.34.02-.22.03-.44.22-.44.18 0 .26.16.32.3.05.09.09.17.15.17.08 0 .12-.21.15-.37.03-.15.05-.25.08-.1.08.31.24.63.4.47.07-.07.14-.24.2-.37.06-.16.1-.27.1-.1 0 .25.22.31.32.31.05-.26.19-.72.31-.47.08.15.05.26.03.34-.03.09-.04.13.13.13.18 0 .2-.05.22-.1.02-.03.03-.05.1-.05s.1.04.15.07c.04.04.08.08.15.08.08 0 .08-.04.08-.08 0-.03 0-.07.08-.07s.12.04.16.07c.04.04.07.08.15.08.07 0 .08-.05.1-.11.01-.1.03-.2.21-.2.23 0 .3.17.37.38l.1.25c.09.16.13.24.14.32.02.07.02.15.02.3 0 .16.08.2.16.23.07.04.15.08.15.24 0 .12-.04.21-.08.3-.07.13-.11.23.08.32.2.1.21.2.23.33a.9.9 0 0 0 .09.3c.06.14.16.18.24.22.1.04.16.07.07.25l-.07.13c-.13.23-.2.36.07.5.15.07.12.14.08.24-.04.1-.09.22.07.38.32.31.47.47.47.62 0 .13 0 .68.26.96Z" fill="#F4021A"/><path d="m9.03 6.5.13.18c.08.1.2.27.3.47.1.2.18.41.18.6 0 .21-.12.41-.25.58-.12.15-.26.28-.36.36a3.16 3.16 0 0 1-.13.74c.23-.07.51-.14.78-.18.15-.03.3-.04.43-.03.06 0 .11.01.16.03.05.02.1.06.12.1.03.06.02.12 0 .17a.4.4 0 0 1-.13.11c-.1.06-.25.12-.42.18-.26.08-.58.16-.85.21a20.67 20.67 0 0 1 1.42 1.04c.05.05.1.1.12.14a.2.2 0 0 1 .03.07.1.1 0 0 1-.03.1.42.42 0 0 1-.3.13.95.95 0 0 1-.4-.12 13.7 13.7 0 0 1-1.47-1.13c-.07.17-.18.37-.3.54-.08.1-.16.19-.24.25-.08.05-.18.1-.28.04-.07-.03-.1-.1-.1-.16 0-.07 0-.14.03-.22.05-.16.14-.35.25-.55.1-.2.22-.4.33-.56l.05-.09.17-.3c.04-.08.1-.14.17-.17a.2.2 0 0 1 .21.02c.06.05.1.12.1.2l.01.12a7.23 7.23 0 0 0 .11-.68c-.13-.1-.3-.34-.3-.78 0-.32.12-.52.24-.7l.02-.02c.11-.16.2-.28.2-.47V6.5Zm-.08 2.06c.1-.08.22-.2.32-.32.13-.16.21-.33.21-.48 0-.16-.07-.36-.16-.55l-.17-.29c-.04.13-.11.24-.19.34l-.02.04a1 1 0 0 0-.22.6c0 .4.14.59.23.66Zm-.45.6c-.02.02-.06.05-.1.11l-.17.31-.05.08-.33.56c-.1.2-.19.38-.23.52a.49.49 0 0 0-.03.17c0 .03.01.04.02.04.02.01.06.01.12-.03a.97.97 0 0 0 .2-.21c.14-.2.26-.44.34-.61l.04-.1.08.07a34.76 34.76 0 0 0 1.24 1l.27.18c.15.07.25.1.33.1.06 0 .11-.02.17-.07a5.07 5.07 0 0 0-.53-.47c-.36-.27-.81-.57-1.11-.77l-.16-.1.18-.03a8.2 8.2 0 0 0 1.01-.24c.16-.06.3-.11.38-.16a.25.25 0 0 0 .08-.07v-.02s0-.02-.04-.03a.4.4 0 0 0-.12-.02c-.1-.01-.24 0-.4.02-.3.05-.64.14-.87.22h-.28l.03-.1c.04-.1.04-.18.04-.24-.01-.06-.03-.09-.05-.1H8.5Z" fill="#F4021A"/><path d="M12.28 11.28a4 4 0 0 1-6.56 0L5 12a5 5 0 0 0 8 0l-.72-.72Z" fill="#F74D5E"/></svg>