<!-- by TradingView --><svg width="18" height="18" viewBox="0 0 18 18" xmlns="http://www.w3.org/2000/svg"><path fill="#F0F3FA" d="M0 0h18v18H0z"/><circle cx="9" cy="9" r="6" fill="#F2C38D"/><circle cx="9" cy="9" r="4.74" fill="#FDCE97"/><path d="M8.98 6.08c1.32 0 2.76.5 3.31.76v4.25c-.82.3-2.5.73-3.3.73a4.19 4.19 0 0 0-.02 0c-.87 0-2.49-.43-3.3-.73V6.84a9.2 9.2 0 0 1 3.3-.76Z" fill="#FFE0C0"/><path fill="#D88D4D" d="M7 4h4v10H7z"/><path fill-rule="evenodd" d="M9 5h-.02C6.99 5 4.83 5.7 4 6.04v5.83c1.23.41 3.68 1.01 4.98 1.01H9c1.21 0 3.74-.6 4.98-1V6.03C13.14 5.69 10.98 5 9 5Zm0 1c-1.2 0-2.5.53-3 .79v4.44c.74.31 2.21.77 3 .77.73 0 2.26-.46 3-.77V6.79C11.5 6.53 10.2 6 9 6Z" fill="#F99540"/></svg>