<!-- by TradingView --><svg width="18" height="18" viewBox="0 0 18 18" xmlns="http://www.w3.org/2000/svg"><path fill="#F0F3FA" d="M0 0h18v18H0z"/><path d="M14.4 6.08c.01-.01.01-.01 0 0-.46.17-.9.39-1.33.63a6.44 6.44 0 0 0-1.61 1.3c-.21.26-.4.57-.48.9-.08.32-.08.64.01.95.05.18.12.34.21.5.1.17.2.33.33.48a5.93 5.93 0 0 0 1.15 1.07c.02.04-.05.09-.05.09h-1.27l-.02-.03a6.18 6.18 0 0 1-1.07-1.5 3.14 3.14 0 0 1-.2-.58c-.1-.47-.1-.93.05-1.38.12-.37.32-.7.55-1a4.39 4.39 0 0 1 .53-.55A6 6 0 0 1 12.6 6h2.94l.03.01c.02.02.02.05.02.07l-.04.04-.32.31c-.22.25-.43.51-.6.8-.2.32-.36.68-.46 1.06-.17.65-.11 1.28.18 1.87a3.13 3.13 0 0 0 .55.81c.32.35.69.64 1.07.89.04.02.04.1 0 .12a.08.08 0 0 1-.04.02h-2.55l-.03-.04c-.04-.02-.04-.07-.02-.1 0-.01.02-.02.05-.02a1.26 1.26 0 0 0 .47-.15.43.43 0 0 0 .14-.15c.09-.13.02-.3-.06-.42a3.01 3.01 0 0 1-.66-2.3c.04-.47.17-.92.34-1.34a6.37 6.37 0 0 1 .79-1.4Z" fill="#004EA2"/><path d="m3 8.85.01-.1c.16-1.4 1.43-2.28 2.48-2.72L5.56 6h1.57c.02 0 .04 0 .05.02.02.03.01.07 0 .1h-.04C6 6.43 4.28 7.14 3.89 8.56c-.1.36-.08.73.06 1.1.06.13.12.26.2.38.23.35.52.63.83.86a5.89 5.89 0 0 0 2.18.98l.03.02.01.05c0 .07-.04.06-.1.06H5.54c-.05 0-.1-.05-.14-.06l-.08-.01c-1.07-.47-2.2-1.36-2.3-2.78H3v2.75c0 .04-.02.07-.04.08a1014.69 1014.69 0 0 1-.86.02c-.04 0-.07-.01-.1-.05V6.1l.01-.06A.07.07 0 0 1 2.07 6h.83l.06.01c.03.03.04.06.04.1a672.49 672.49 0 0 1 0 2.74Zm0 .04v-.01c0-.01 0-.01 0 0Z" fill="#008F87"/><path d="m10.43 6 .02.02c.03.02.04.06.02.09l-.05.02a7.44 7.44 0 0 0-1.76.73A4.22 4.22 0 0 0 7.5 7.9c-.17.24-.3.52-.36.82-.09.53.1 1.03.38 1.42a4.58 4.58 0 0 0 1.41 1.14 7.26 7.26 0 0 0 1.56.6v.06c0 .03-.02.05-.05.05-.13 0-.67.03-1.61 0-.07 0-.11-.06-.15-.06-.02 0-.05 0-.08-.02a5.4 5.4 0 0 1-1.7-1.16c-.26-.29-.49-.64-.61-1.03a2.12 2.12 0 0 1 .2-1.85c.23-.41.55-.75.9-1.03.43-.34.9-.6 1.4-.8.02-.02.04-.03.07-.03h1.58Z" fill="#C2131C"/></svg>