<!-- by TradingView --><svg width="18" height="18" viewBox="0 0 18 18" xmlns="http://www.w3.org/2000/svg"><path fill="#F0F3FA" d="M0 0h18v18H0z"/><path opacity=".7" fill-rule="evenodd" d="M5.9 4.06 5.8 4l-.03.12c-.06.28-.4.99-1.33 1.44l-.06.03v.06c.03.18.03.47-.01.76-.04.3-.14.57-.3.72L4 7.2l.08.07c.27.21.81.85.81 1.69 0 .54-.02.79-.04 1.01v.04c-.02.21-.04.42-.04.85 0 .47.17.96.45 1.38.28.42.66.77 1.08.95.4.18.91.42 1.39.72.44.28.84.6 1.1.99.04.06.1.1.18.1.09 0 .16-.05.2-.13.23-.38.91-1.12 2.33-1.68h.01c.27-.18.66-.51.98-.92.31-.4.56-.9.52-1.42-.08-.95-.11-1.65-.12-1.89.01-.18.08-.5.23-.82.15-.32.38-.65.73-.87L14 7.2l-.1-.07c-.18-.14-.27-.4-.31-.7-.04-.29-.02-.59.01-.77l.02-.08-.08-.02c-.36-.1-.67-.36-.9-.64-.25-.29-.41-.6-.5-.79l-.02.01-.05-.08-.05.03c-.44.26-1.03.31-1.6.27a5.64 5.64 0 0 1-1.43-.3l-.03-.02-.03.02a3.41 3.41 0 0 1-3.03 0Zm3.12 10.8H9h.01Zm-.01-.17h.02l-.02.04-.02-.04h.02ZM5.44 5.25Zm7.16.33a.1.1 0 0 1-.06.05l-.08.02c-.21.05-.36.08-.55.59-.14.36.26.69.57.93.16.13.3.24.3.32.05.24-1.56 0-1.77-.13l-.17-.11c-.27-.18-.67-.45-.86-.45-.23 0-.37.82-.4 1.28l-.29 5.48H8.12c.42-.98.42-5.92.42-6.07 0-.12-.38-.51-.56-.7-.1.24-.39.7-.84.7-.2 0-.42.02-.6.05-.33.03-.6.06-.68-.05a6.74 6.74 0 0 1-.23-1.18c-.05-.32-.1-.64-.15-.87-.18.17-.4.33-.67.47.02.18.02.44-.02.7-.04.25-.12.52-.27.7.3.27.77.88.77 1.68 0 .52-.02.76-.05.97V10c-.02.2-.04.39-.04.79s.16.83.4 1.2c.25.38.6.68.95.85.38.17.87.4 1.34.68.44.29.87.63 1.12 1.05.19-.38.86-1.16 2.32-1.73.24-.16.59-.46.87-.83.29-.37.5-.8.46-1.22-.08-.9-.1-1.58-.11-1.8.01-.2.08-.52.23-.84.14-.3.35-.6.66-.83a1.25 1.25 0 0 1-.27-.7 2.9 2.9 0 0 1 0-.7c-.2-.08-.4-.2-.57-.34Z" fill="#5F3A6D"/></svg>