<!-- by TradingView --><svg width="18" height="18" viewBox="0 0 18 18" xmlns="http://www.w3.org/2000/svg"><path fill="#F0F3FA" d="M0 0h18v18H0z"/><path d="M7 4v6.11c-1.05-.28-3.13-1.35-3-3.4C4.15 4.69 6.07 4.07 7 4Z" fill="#1B718D"/><path d="M7 11.81v-6.8c-.5.86-3 2.39-3 3.4 0 1.02.34 1.53 1 2.04.54.41 1.56 1.08 2 1.36Z" fill="#96AFCE"/><path d="M4.19 7.88a8.5 8.5 0 0 1 1.59-1.63C6.3 5.78 6.8 5.35 7 5.02v5.1c-.83-.23-2.3-.95-2.81-2.24Z" fill="#7B9FB6"/><path d="M11 14V7.89c1.05.28 3.13 1.35 3 3.4-.14 2.03-2.06 2.65-3 2.71Z" fill="#339180"/><path d="M11 6.19v6.8c.5-.86 3-2.39 3-3.4 0-1.02-.34-1.53-1-2.04-.54-.41-1.56-1.08-2-1.36Z" fill="#69C28A"/><path d="M13.81 10.12a8.5 8.5 0 0 1-1.59 1.63A6.8 6.8 0 0 0 11 12.98v-5.1c.83.23 2.3.95 2.81 2.24Z" fill="#4EA684"/><path d="M10 7.45a3.6 3.6 0 0 1-2-1.73C8 4.34 9.33 4 10 4v3.45Z" fill="#D19329"/><path d="M10 7.45a6.28 6.28 0 0 1-2-1.73v4.83c.57.28 1.57 1.27 2 1.73V7.45Z" fill="#E7BA27"/><path d="M10 12.28c0-.56-1.33-1.38-2-1.73V14c1.37 0 1.9-1.15 2-1.72Z" fill="#D19329"/></svg>