<!-- by TradingView --><svg width="18" height="18" viewBox="0 0 18 18" xmlns="http://www.w3.org/2000/svg"><path fill="#F0F3FA" d="M0 0h18v18H0z"/><path d="M8.53 6.64c.03-.04.02-.06-.03-.05a1.2 1.2 0 0 1-.8-.18 1.8 1.8 0 0 1-.46-.51c-.06-.08-.04-.14.06-.18l.05-.01c.08-.03.13-.01.16.07.06.13.13.23.23.3.2.13.4.23.61.29.04 0 .09-.02.1-.07 0-.2.08-.34.23-.43.43-.27.8.26.44.58-.03.03-.08.07-.16.11-.02.02-.02.05 0 .06.24.09.44.03.62-.16.05-.05.05-.13.06-.19 0-.02.02-.03.05-.03l1.38.3c.05 0 .08-.01.1-.06a16.12 16.12 0 0 0 .28-1.38c.02-.04.06-.08.12-.11a.64.64 0 0 0 .36-.53c.02-.22-.07-.42-.27-.61-.16-.15-.47-.16-.67-.13a.13.13 0 0 1-.12-.05c-.3-.4-.71-.53-1.17-.21a.1.1 0 0 1-.11 0c-.33-.3-.8-.22-1.07.1-.2.26-.14.63.03.87.02.03.03.07.02.1l-.3 1.54c0 .06-.08.1-.14.06-.22-.1-.38-.26-.5-.49a.06.06 0 0 1 .03-.07l.18-.1c.02-.02.04-.01.06.02.04.1.08.17.11.19.03 0 .04 0 .04-.02L8.3 4.6l-.01-.05c-.27-.45-.25-.85.04-1.2a1 1 0 0 1 1.04-.31l.26.1h.07c.47-.21.9-.14 1.27.2.1.1.16.1.3.1.2 0 .37.07.54.19.35.24.48.57.4 1-.06.27-.2.36-.43.57-.03.03-.06.1-.09.2-.12.47-.23.94-.32 1.42-.01.03-.04.04-.07.04l-1.39-.3-.1.01a.14.14 0 0 0-.06.06c-.12.22-.33.33-.6.31-.18 0-.32-.08-.47-.12l-.07.01-.16.09c-.08.05-.15-.1-.08-.16l.16-.12Z" fill="#D8311C"/><path d="M9.67 5.52c-.25-.05-.32-.26-.24-.53l.05-.07a.1.1 0 0 1 .07-.02c.34.01.62.1.94.24.07.03.1.08.1.17.02.15-.02.26-.1.33a.08.08 0 0 1-.06.01c-.27-.02-.5-.08-.76-.13ZM10.54 11.04c.09.14.2.21.32.2.05 0 .16-.03.33-.1.18-.07.35-.12.53-.16.03 0 .07.01.08.05.03.05.1.2.2.45.02.04.09.09.2.14l.48.22c.13.05.2.11.24.2.1.26-.22.46-.42.6-.02.01-.03.03-.02.05l.2.6v.02a7.8 7.8 0 0 1-1.61.57c-.4.07-.78.06-1.14-.05-.06-.02-.2-.1-.45-.27-.19-.13-.3-.28-.44-.43a.12.12 0 0 0-.12-.03l-2.7.9c-.03 0-.04 0-.06-.02-.13-.16-.12-.46-.35-.58-.21-.1-.62-.18-.76-.38-.18-.27.15-.51.39-.63.02 0 .03-.02.03-.04-.03-.22-.1-.4-.2-.56a.1.1 0 0 1-.02-.05c0-.05.03-.1.08-.11l2.09-.7a.1.1 0 0 0 .06-.03.24.24 0 0 0 .02-.2c0-.03-.02-.04-.04-.05l-.51-.06a.08.08 0 0 1-.08-.1l.05-.37c0-.02 0-.03-.03-.04l-.98-.12c-.13-.01-.43-.1-.45-.25a2.06 2.06 0 0 0-.17-.48c-.04-.08-.03-.18.03-.29.1-.2.26-.28.47-.26.66.1 1.27.17 1.85.23.02 0 .03 0 .02-.03a1.7 1.7 0 0 1-.19-.9 5.2 5.2 0 0 1 .19-1.04.1.1 0 0 0-.05-.05c-.34-.21-.6-.48-.78-.8-.04-.06-.02-.11.05-.14l.1-.03c.06-.02.1 0 .12.05.11.27.36.51.65.65.1.04.18.09.26.14a352.01 352.01 0 0 1-.25 1.1c-.04.16-.04.34 0 .55l.2.37c.07.12.16.22.28.3.27.16.44.26.52.29.13.04.35.07.69.07.63.01 1.08-.23 1.35-.72.09-.16.15-.37.17-.64a6.68 6.68 0 0 0 .06-.7.04.04 0 0 1 .04 0c.2.1.32.18.5.2a.9.9 0 0 0 .55-.13c.05-.03.08-.02.1.03l.05.15c.02.05 0 .08-.04.1a1.55 1.55 0 0 1-.88.09.05.05 0 0 0-.03.02l-.01.02c-.03.5-.18 1.01-.52 1.37-.02.01 0 .05.02.05.54.08 1.07.13 1.6.17.17 0 .3.03.37.08.18.1.27.33.2.52a.87.87 0 0 1-.17.2.67.67 0 0 0-.16.23c-.1.24-.46.2-.68.18l-.85-.07c-.03 0-.04 0-.05.03a1 1 0 0 0-.03.27c0 .12-.05.17-.17.16-.02 0-.38-.1-.33-.02ZM5.67 8.98c-.07 0-.13.06-.1.13l.22.52a.1.1 0 0 0 .08.06l1 .12a.1.1 0 0 0 .07-.02.1.1 0 0 0 .04-.06l.08-.54a.1.1 0 0 0-.08-.1l-1.31-.11Zm2.1.23c0-.02-.01-.03-.03-.03l-.36-.04-.03.02-.15 1.13s0 .02.02.02l.24.04s.02 0 .02-.02l.28-1.12Zm.89 3.33c.06-.05.12-.06.18 0 .15.12.35.32.58.58a1.56 1.56 0 0 0 1.7.44l.54-.18c.02 0 .04-.03.03-.05l-.54-1.4c-.02-.04 0-.06.04-.08.06-.02.12-.03.14.04l.53 1.34c.02.03.06.05.1.04l.3-.1c.05-.03.07-.07.05-.12l-.66-1.7a.07.07 0 0 0-.1-.04c-.18.09-.38.15-.6.18-.18.03-.32 0-.43-.07a2.52 2.52 0 0 1-.29-.35c-.14-.19-.15-.36-.14-.57.03-.3.1-.6.2-.89.02-.06 0-.08-.07-.06l-.17.06c-.1.04-.15.1-.17.2l-.08.41c0 .03-.02.05-.06.04l-1.5-.18a.1.1 0 0 1-.07-.12l.17-.5-.01-.02-.27-.15-.01.01-.15.58c-.1.37-.13.75-.12 1.13 0 .01 0 .03-.02.03-.48.21-.96.39-1.45.53-.05.01-.07.04-.05.1.13.38.31.75.44 1.14l.07.23v.08c-.04.05-.14.07-.17 0l-.54-1.4c0-.02-.02-.03-.05-.02l-.36.13a.04.04 0 0 0-.02.05l.69 1.77c0 .01.01.02.02.01l2.38-.78c.02-.01.03-.03.03-.06s-.03-.07-.1-.11c-.07-.05-.07-.1-.01-.15l.02-.02Zm2.26-2.9a.1.1 0 0 0-.08-.1l-.18-.03a.1.1 0 0 0-.1.08l-.17 1c-.01.04.02.1.08.1l.22.03a.1.1 0 0 0 .11-.08l.12-1Zm-1.3.12-.02-.02-1.03-.15c-.01 0-.02 0-.02.02l-.03.16c0 .01 0 .02.02.02l1.03.15.02-.01.03-.17Zm2.45.27a.33.33 0 0 1-.06.12.07.07 0 0 0-.02.06c.04.19.24.24.4.14.03-.02.06-.07.08-.15.03-.1.1-.18.18-.24a.1.1 0 0 0 .04-.05.1.1 0 0 0-.09-.15l-1.36-.16a.03.03 0 0 0-.04.02l-.07.55c0 .07.02.1.1.12l.41.05c.08 0 .11-.03.09-.1-.02-.07 0-.15.04-.25a.06.06 0 0 1 .05-.04c.07 0 .14 0 .22.03.03 0 .04.02.03.05Zm.24 2.28a.06.06 0 0 0 .08.03l.24-.13a.06.06 0 0 0 0-.1l-.35-.19c-.04-.02-.1.02-.08.07l.1.32Zm-6.96.56.01.02.4.19c.01 0 .04-.01.03-.03l-.17-.4a.03.03 0 0 0-.04-.01l-.21.08-.02.02v.13Z" fill="#D8311C"/><path d="m10.03 6.98-.06.03c-.17.05-.21 0-.13-.15 0-.02.05-.03.14-.05.24-.05.44.01.59.18.04.05.04.1 0 .14l-.02.02c-.05.03-.09.03-.13-.02-.08-.1-.25-.2-.39-.15ZM11.35 7.01c.16.1.28.17.47.08.08-.04.14-.03.2.05l.02.06c.04.07.02.11-.06.13-.41.12-.76.08-.97-.31a.05.05 0 0 1 0-.06l.02-.01.03-.01c.1 0 .2.01.29.07ZM8.6 7.93c.22 0 .4-.17.4-.38 0-.2-.18-.38-.4-.38-.22 0-.4.17-.4.38s.18.38.4.38ZM10.2 8.31c.22 0 .4-.17.4-.38 0-.2-.18-.38-.4-.38-.22 0-.4.17-.4.38s.18.38.4.38ZM8.82 8.68c.43.14.84.11 1.26-.1h.05c.02 0 .03.01.05.03.03.04.03.08 0 .13-.25.37-.87.37-1.23.28a.9.9 0 0 1-.33-.17l-.33-.23c-.09-.05-.11-.12-.07-.21.03-.07.09-.14.16-.07.18.16.27.28.44.34ZM8.44 10.49c-.03.23.05.4.26.51.26.14.37.12.65.1.08 0 .12.03.12.1l-.01.04a.15.15 0 0 1-.12.08c-.34.06-.61 0-.81-.17a.85.85 0 0 1-.3-.9c0-.03.03-.05.08-.04l1.42.16c.05 0 .07.03.07.07l-.01.06c0 .04-.03.06-.07.06h-.27c-.43-.06-.75-.1-.96-.1-.03 0-.04 0-.05.03ZM10.68 12.03l-.7.57c-.04.03-.08.03-.13 0a.12.12 0 0 1-.03-.03c-.03-.04-.02-.08.02-.11l.87-.71a.11.11 0 0 1 .07-.03.3.3 0 0 1 .2.07l.02.06c0 .1-.03.2-.07.3l-.32.66c-.02.04-.05.06-.1.05-.05 0-.08-.05-.07-.08l.25-.74c0-.02 0-.03-.01-.01Z" fill="#D8311C"/></svg>