<!-- by TradingView --><svg width="18" height="18" xmlns="http://www.w3.org/2000/svg"><path fill="url(#paint0_linear)" d="M0 0h18v18H0z"/><path d="M12.052 6H11v.884s-.2.338-.897.256C8.837 6.992 7.03 5.273 7.03 5.273c-.593 1.163-.109 3.164 1.155 3.182.473.006 1.057.005 1.455.003a.437.437 0 00.462.444v.196a.438.438 0 00-.461.448H8.185c-1.155 0-1.713 2.052-1.152 3.286 0 0 1.709-1.542 2.95-1.84.816-.195 2.016.273 2.016.273V12h1c-.564 1.55-2.244 3-3.887 3-1.316 0-2.001-.373-2.683-1.362A2.559 2.559 0 016 12.335V5.877C6 4.572 6.808 3 8.472 3c2.3 0 3.38 1.716 3.58 3z" fill="#fff"/><path d="M10.406 9.63a.313.313 0 01-.304.321.313.313 0 01-.303-.32c0-.178.136-.322.303-.322.168 0 .304.144.304.321zm.004-1.228a.313.313 0 01-.303.32.313.313 0 01-.303-.32c0-.178.136-.321.303-.321.168 0 .304.143.304.32z" fill="#fff"/><defs><linearGradient id="paint0_linear" x1="3.349" y1="3.122" x2="21.904" y2="24.434" gradientUnits="userSpaceOnUse"><stop stop-color="#1A1E21"/><stop offset="1" stop-color="#06060A"/></linearGradient></defs></svg>