<!-- by TradingView --><svg width="18" height="18" viewBox="0 0 18 18" xmlns="http://www.w3.org/2000/svg"><path fill="#F0F3FA" d="M0 0h18v18H0z"/><path d="m8.22 6.3 2.26-1.28a.14.14 0 0 1 .18.03l1.85 2.05c.06.08.05.14-.03.19l-1.7.98c-.1.07-.1.13.01.18a3.6 3.6 0 0 1 1.8 1.88c.21.5.45 1.09.8 1.5.06.06.12.07.18.02l.15-.11a.14.14 0 0 1 .18 0l.06.06c.05.05.05.1 0 .15l-1.2.96a.25.25 0 0 1-.3.02 1.97 1.97 0 0 1-.78-.88c-.52-1.15-.98-2.52-2.35-2.75-.16-.03-.25.05-.25.22v1.54c0 .14.05.23.18.28l.96.4c.1.03.2.02.27-.06a.21.21 0 0 1 .21-.05c.17.05.19.13.05.24l-1.3 1.1a.15.15 0 0 1-.18.01c-1.49-.95-3.28-.88-4.86-.32-.49.16-.54.07-.15-.28A4.92 4.92 0 0 1 6.5 11.2c.08-.02.1-.07.1-.15-.23-1.21-1.23-1.92-2.28-2.3a.08.08 0 0 1-.03-.02.08.08 0 0 1 0-.1s0-.02.02-.02l2.16-1.3c.07-.03.1-.1.1-.17l.01-.57c0-1.1-1.26-.86-1.89-.81-.27.02-.3-.05-.06-.2 1-.7 3.1-.98 3.42.66.02.1.08.13.17.08Zm1.31-.36a.06.06 0 0 0-.08-.01l-.32.2a.07.07 0 0 0-.03.02v.03l-.02 2.66v.03l.03.03a.06.06 0 0 0 .06 0l1.85-1.1.03-.03v-.03a.07.07 0 0 0 0-.06L9.52 5.94Zm-1.37 5.11c0 .02-.02.07 0 .08 0 .02.02.02.03.02l.47.06a.06.06 0 0 0 .04-.02l.02-.02v-.02l.03-4.71-.01-.03a.06.06 0 0 0-.02-.03.06.06 0 0 0-.07 0l-.46.3c-.01 0-.02 0-.02.02l-.01.03v4.32ZM6.58 7.72l-.01-.04a.06.06 0 0 0-.02-.02.06.06 0 0 0-.07 0l-.81.5a.06.06 0 0 0-.02.02.07.07 0 0 0 .02.09l.82.52a.06.06 0 0 0 .07 0l.02-.03V7.72Z"/></svg>