<!-- by TradingView --><svg width="18" height="18" viewBox="0 0 18 18" xmlns="http://www.w3.org/2000/svg"><path fill="#F0F3FA" d="M0 0h18v18H0z"/><path d="M8.73 3c.52 0 .87.02 1.04.04a6.02 6.02 0 0 1 .48 11.83 5.93 5.93 0 0 1-4.53-.85 5.87 5.87 0 0 1-2.57-3.66 6.1 6.1 0 0 1 1.1-5.03A6 6 0 0 1 8.1 3.05 12.57 12.57 0 0 0 8.73 3Z" fill="#69E2FB"/><path d="M14.78 8.96a5.73 5.73 0 0 1-1.67 4.1 5.73 5.73 0 0 1-6.3 1.29 5.72 5.72 0 0 1-3.14-3.12 5.73 5.73 0 0 1 1.22-6.3 5.73 5.73 0 0 1 6.3-1.3 5.72 5.72 0 0 1 3.14 3.12c.3.7.45 1.44.45 2.21Z" fill="#F51328"/><path d="M14.57 9.01a5.53 5.53 0 0 1-3.45 5.15 5.52 5.52 0 0 1-6.08-1.23 5.54 5.54 0 0 1-1.18-6.1 5.53 5.53 0 0 1 5.16-3.42 5.5 5.5 0 0 1 3.94 1.65A5.54 5.54 0 0 1 14.57 9Z" fill="#FEFA09"/><path d="M5.82 4.67a5.34 5.34 0 0 1 6.97.52 5.3 5.3 0 0 1 1.55 4.22 5.32 5.32 0 0 1-3.49 4.62 5.27 5.27 0 0 1-5.35-.97 5.25 5.25 0 0 1-1.82-4.71 6.5 6.5 0 0 1 2.14-3.68Z" fill="#70D0F6"/><path d="M13.37 9a4.33 4.33 0 0 1-2.7 4.04 4.34 4.34 0 0 1-4.77-.96 4.33 4.33 0 0 1-1.28-3.1 4.33 4.33 0 0 1 2.7-4.04 4.34 4.34 0 0 1 4.78.96A4.33 4.33 0 0 1 13.37 9Z" fill="#F51328"/><path d="M13.17 8.99a4.14 4.14 0 0 1-2.57 3.86 4.12 4.12 0 0 1-4.55-.9 4.13 4.13 0 0 1-1.22-2.96A4.14 4.14 0 0 1 7.4 5.13a4.12 4.12 0 0 1 4.55.9A4.13 4.13 0 0 1 13.17 9Z" fill="#FEFA09"/><path d="M12.96 8.92a3.93 3.93 0 0 1-2.38 3.7 3.92 3.92 0 0 1-4.33-.77 3.92 3.92 0 0 1-.94-4.3 3.92 3.92 0 0 1 3.61-2.52 3.91 3.91 0 0 1 3.7 2.38c.22.48.33.98.34 1.5Z" fill="#70D0F6"/><path d="m8.47 5.51.1-.14s.01-.02.03-.02l.02-.01c.02 0 .04 0 .05.02v.05l-.09.11c-.02.03-.01.06.01.1l.16.15c.02.02.03.02.04-.01a.83.83 0 0 0 0-.38v-.03c.03-.04.06-.04.1-.02l.02.06c-.02.1.03.15.15.15.02 0 .03-.01.03-.04l.04-.15c0-.03.02-.03.04-.03l.04.01.02.03c-.03.15-.03.26-.01.36.01.07.04.08.08.01l.04-.1c.09-.17.15-.29.2-.33.08-.07.11-.05.09.05a.7.7 0 0 0 .02.27l.02.13.04.07h.04c.01 0 .02 0 .02-.02l.1-.3c.01-.03.03-.04.05-.05h.07c.02.01.03.03.03.05v.16c0 .02 0 .02-.03.02-.04-.01-.07 0-.09.05l-.05.14c0 .02-.02.03-.04.03-.12.02-.22-.04-.3-.18-.02-.02-.04-.03-.06 0l-.09.09a.06.06 0 0 1-.06.01c-.06-.02-.1-.02-.15 0H9.1a.04.04 0 0 1-.02-.03v-.13c0-.04-.01-.06-.05-.06h-.06c-.03 0-.05.02-.06.05l-.03.14-.02.03c-.16.04-.26.01-.3-.1-.05-.09-.08-.09-.1.01v.11c0 .02-.02.03-.04.03s-.04 0-.05-.02a.1.1 0 0 1-.02-.05c0-.11-.02-.21-.04-.3-.04-.12 0-.14.09-.09l.03.1c0 .02.01.02.03 0ZM7.83 5.64l-.13-.03c-.02 0-.02-.02 0-.03 0-.02.02-.04.03-.04l.3-.09c.01 0 .03 0 .03.02l.01.02c0 .02 0 .03-.02.04-.05.02-.08.05-.08.1v.03l.1.25-.01.05-.02.01a.05.05 0 0 1-.05.01.05.05 0 0 1-.03-.03l-.1-.28a.05.05 0 0 0-.03-.03Z" fill="#F51328"/><path d="M9.47 5.59c-.02.04 0 .09.02.1.03 0 .06-.03.07-.08.01-.05 0-.09-.02-.1-.03 0-.06.03-.07.08Z" fill="#70D0F6"/><path d="M10.08 5.73h.02c.08-.14.13-.2.14-.2.02 0 .03.02.03.04v.06a.57.57 0 0 0-.11.35c0 .02 0 .02-.02.02h-.07c-.03 0-.04-.01-.05-.04a.45.45 0 0 1 0-.24c0-.03.02-.03.04-.01l.02.02ZM7.62 5.96a.34.34 0 0 0-.1-.01c-.04 0-.08 0-.09-.02-.09-.06-.1-.13-.05-.21.06-.07.13-.1.22-.1.03 0 .03.01.01.04a.37.37 0 0 1-.1.1c-.02 0-.03.02-.02.04l.03.03.04.01c.13-.02.2.03.23.16 0 .03 0 .04-.02.05l-.5.3c-.04.02-.07.01-.1-.03L7 6c-.02-.04-.02-.07.01-.08l.16-.1c.02 0 .04 0 .05.02l.02.02c.01.02.01.03-.02.04a.21.21 0 0 0-.1.09c-.02.02-.01.04.01.05l.04.03c.02 0 .04 0 .05-.02L7.24 6c.02-.02.04-.02.06 0l.02.02v.04a.11.11 0 0 1-.07.06c-.03 0-.04.03-.03.06v.03c.01.03.03.04.06.02l.13-.06c.11-.05.19-.1.23-.15.01-.03 0-.04-.02-.05ZM10.44 5.6h.02c.03.01.04.05.04.1 0 .06-.02.11-.06.18l-.01.02a.42.42 0 0 1-.11.14c-.05.04-.08.05-.1.03h-.01v-.02l.23-.45ZM10.68 6.01a2.9 2.9 0 0 1-.12.21c0 .02-.02.02-.04.01l-.02-.01c-.02-.02-.03-.03-.01-.06.05-.08.06-.15.03-.22v-.02c.08-.01.13-.06.17-.15 0-.03.03-.03.05-.02l.02.01c.02 0 .03.02.02.04l-.1.21ZM11.05 6.27h-.02c-.07 0-.13.03-.18.12-.01.02-.03.02-.05 0l-.02-.01c-.01-.01-.02-.02 0-.04a3.01 3.01 0 0 1 .27-.36c.01-.02.03-.02.04 0l.02.01c.02.02.02.04 0 .06-.06.06-.08.13-.06.2v.02ZM6.37 7.01c0 .02.01.03.03.02.02 0 .03 0 .03-.02 0-.08-.04-.16-.11-.24-.07-.08-.09-.14-.06-.21 0-.03.02-.04.05-.05a.1.1 0 0 1 .07 0l.32.15c.1.05.11.02.05-.06a1.42 1.42 0 0 0-.2-.24.07.07 0 0 1-.02-.07c.01-.06.06-.08.13-.06l.18.08h.04v-.06a.43.43 0 0 1-.1-.1C6.78 6 6.82 6 6.9 6.1l.2.25c.04.04.04.07 0 .1-.01.02-.04.03-.08.02a.25.25 0 0 1-.1-.05.24.24 0 0 0-.08-.05c-.07-.02-.09.01-.04.09l.09.12v.05a.14.14 0 0 1-.08.05.05.05 0 0 0-.03.04c0 .03-.02.04-.05.04h-.05c-.1.02-.18-.02-.2-.11 0-.03-.02-.04-.05-.03H6.4l-.02.03c0 .05.03.08.1.08.02 0 .03.01.04.04l.03.16c0 .02 0 .03-.02.05a.39.39 0 0 0-.14.23c-.02.08-.07.11-.15.11l-.01-.02.01-.04.08-.13a.04.04 0 0 0 0-.04.04.04 0 0 0-.04-.02c-.04 0-.1.03-.15.08a.07.07 0 0 1-.05.02c-.08 0-.12-.05-.13-.14-.01-.08.01-.14.07-.19.07-.06.1-.04.08.06l-.02.03-.02.03c0 .03 0 .04.02.06.01.02.03.02.05 0l.09-.06a.06.06 0 0 1 .05-.02c.06.01.09.03.1.06ZM11.08 6.28h.02c.07 0 .13-.03.18-.11.01-.03.03-.03.05-.02l.02.02c.02.01.02.03 0 .04a2.9 2.9 0 0 1-.27.36c-.01.02-.02.02-.04 0l-.02-.01c-.02-.02-.02-.04 0-.05.07-.07.09-.14.06-.21v-.02ZM11.7 6.39v.16c.02.12-.03.23-.17.32-.07.05-.15.03-.24-.05-.09-.09-.1-.17-.06-.25.09-.14.19-.2.3-.19h.15l.01.01Z" fill="#F51328"/><path d="M11.37 6.54c-.07.07-.08.17-.03.23.05.05.15.03.22-.04.07-.08.08-.18.03-.23-.05-.05-.15-.03-.22.04Z" fill="#70D0F6"/><path d="M11.85 6.94c-.06.01-.1.04-.13.09 0 .02-.02.03-.04.03-.08 0-.13 0-.15-.02-.07-.05-.06-.08.02-.1.1 0 .19-.04.3-.1a.12.12 0 0 1 .1 0c.06.02.08.06.05.12-.08.14-.18.26-.3.37h-.02l-.01-.02c0-.14.06-.23.16-.26.02-.01.03-.02.03-.05l.01-.03c0-.02 0-.03-.02-.03Z" fill="#F51328"/><path d="M9.47 8.6c.01-.05 0-.08-.05-.1-.12-.05-.3-.06-.52-.03-.17.03-.34.07-.51.13a.14.14 0 0 1-.13-.01c-.1-.06-.18-.12-.24-.19-.07-.06-.06-.1.03-.08.17.02.34.02.5 0 .21 0 .38-.05.5-.1a.13.13 0 0 0 .08-.1c0-.05 0-.09-.03-.12a.41.41 0 0 0-.25-.15c-.48-.1-1.02-.17-1.61-.22-.02 0-.03-.01-.02-.03v-.02l2.42.09c.37 0 .48.17.33.5-.01.03 0 .06.03.08l.03.02c.1.08.18.14.22.19.07.08.08.15.04.22-.1.15-.3.22-.6.23a21.85 21.85 0 0 1-1.32-.01v-.02c0-.02 0-.02.02-.03.36-.02.68-.07.96-.14.07-.02.1-.05.12-.1Z" fill="#2754A3"/><path d="M10.36 8.28c.1 0 .19-.08.19-.19 0-.1-.09-.19-.19-.19s-.18.09-.18.2c0 .1.08.18.18.18ZM8.05 9.36a.88.88 0 0 0 .12-.1c.1-.08.18-.13.25-.12h2.37c.05 0 .06.02.05.07-.1.3-.21.56-.36.79a1.84 1.84 0 0 1-1.57.87c-.39 0-.7-.12-.95-.36a2.14 2.14 0 0 1-.55-.9 5.34 5.34 0 0 1-.24-1.51l.09.25c.15.44.3.74.43.9.04.05.1.1.16.11.08.03.14.03.2 0Z" fill="#2754A3"/><path d="m4.04 8.87.05-.12c.01-.07.03-.07.06 0l.04.08.04.04.14.03c.02 0 .02.02.01.04l-.04.02c-.05.02-.07.06-.07.11s.02.1.04.14v.03l-.02.01a.42.42 0 0 0-.14-.11H4.1l-.08.06c-.05.04-.07.03-.05-.03.03-.1 0-.18-.09-.25-.03-.02-.02-.03.01-.03h.1c.02 0 .04 0 .05-.02ZM13.69 8.99a.11.11 0 0 1-.07-.06c-.01-.02 0-.04.02-.03.12.01.18-.04.19-.16 0-.03 0-.03.03-.02l.02.02.01.02c.03.1.1.15.2.13.03 0 .04.01.01.04a.24.24 0 0 0-.07.26c0 .03 0 .04-.02.03l-.12-.08c-.03-.01-.05-.01-.07 0l-.1.09h-.02v-.04c.02-.05.03-.1.02-.16A.06.06 0 0 0 13.7 9Z" fill="#F51328"/><path d="M9.14 9.38c-.14.27-.3.45-.49.56a.74.74 0 0 1-.71.03.39.39 0 0 1-.2-.22c-.02-.05-.01-.06.03-.04.25.1.45.1.6-.04.05-.04.1-.09.15-.16l.09-.1a.07.07 0 0 1 .05-.02l.48-.01Z" fill="#70D0F6"/><path d="m9.62 9.4-.03.11c-.13.25-.3.44-.48.57-.21.14-.44.2-.7.2a.65.65 0 0 1-.24-.07l-.22-.11-.06-.08.01-.05h.04c.25.11.5.1.71-.03.2-.1.35-.3.49-.56l.48.01Z" fill="#F51328"/><path d="m7.95 10.1.22.1c.1.05.18.07.24.08.26 0 .49-.06.7-.2.19-.13.35-.32.48-.57a.26.26 0 0 0 .03-.12h.55l.03.01v.03c-.17.46-.47.8-.9.99-.56.25-1 .14-1.35-.32Z" fill="#70D0F6"/><path d="M11.21 11.47c0 .1.07.16.14.16.08 0 .15-.07.14-.16 0-.1-.06-.16-.14-.16-.08 0-.14.07-.14.16ZM7.74 12.33c.09 0 .16-.07.16-.16a.16.16 0 0 0-.16-.17.16.16 0 0 0-.16.17c0 .09.07.16.16.16ZM10.16 12.28c.07.06.17.06.22 0 .06-.06.05-.16-.01-.22-.07-.07-.16-.07-.22 0-.06.05-.05.15.01.22Z" fill="#FEFA09"/><path d="M12.8 12.27c.02.02.02.04 0 .06l-.02.03a.14.14 0 0 1-.1.06c-.04 0-.08-.01-.11-.04l-.06-.05a.15.15 0 0 1-.05-.1c0-.04 0-.08.03-.11l.03-.03c.02-.03.04-.03.06 0l.22.18Z" fill="#70D0F6"/><path d="M9 12.57c.09 0 .16-.08.16-.16a.16.16 0 0 0-.16-.17.16.16 0 0 0-.15.17c0 .08.07.16.15.16Z" fill="#FEFA09"/></svg>