<!-- by TradingView --><svg width="18" height="18" viewBox="0 0 18 18" xmlns="http://www.w3.org/2000/svg"><path fill="#F0F3FA" d="M0 0h18v18H0z"/><path d="M3 6h2v2.04l-1.76 3.38c-.08.1-.24.22-.24-.1V6Zm0 5.67c.01.1.11.31.42.33h1.42c.12 0 .4-.06.5-.33l.48-.92-.89-1.6 1.4-2.78c.02-.04.04-.12-.03-.16-.08-.06-.18.01-.18.03l-2.79 5.37c-.03.06-.15.19-.33.06ZM7.84 6H6.37c.18.1.15.29.1.36L5.13 9.08l1.05 1.96c.67.94 1.83.58 2.33.29-.3 0-.5-.27-.56-.4L6.9 9.03 8 6.94c.34-.63.04-.88-.15-.93Zm2.87.56A2.04 2.04 0 0 0 9.51 6c-.66-.03-1.43.53-1.56 1.78-.02.3.07 1.07.63 1.7.56.64.51 1.34.42 1.62-.14.32-.78.89-2.25.58.1.11.49.34 1.27.32H9c.68.03 2.06-.28 2.12-1.67.02-.3-.1-1.1-.8-1.9-.86-1.01-.76-2 .4-1.87ZM12.43 6h-2.06c.74.24.9.82.9 1.09v2.88c.08 1.02.82 1.43 1.45 1.4.5-.02.84-.24.94-.34-.29-.02-.32-.25-.32-.37V7.1c0-.9-.61-1.1-.9-1.09ZM16 10c.05.64-.1 1.95-1.12 2h-2.23c-.3 0-.97-.23-1.25-1.2.11.21.53.8 1.25.8.9-.01 1.29-.53 1.29-1.6h2.06Z" fill="#DA241F"/></svg>