<!-- by TradingView --><svg width="18" height="18" viewBox="0 0 18 18" xmlns="http://www.w3.org/2000/svg"><path fill="#F0F3FA" d="M0 0h18v18H0z"/><path fill="url(#a)" d="M3 7h2v4H3z"/><path d="M5 7H3v.31c.46.27 1.37 1.29 1.96 3.69H5V7Z" fill="url(#b)"/><path d="M9 7H6.97L5 9l1.97 2H9L7.03 9 9 7Z" fill="url(#c)"/><path d="M12 11h2.04L16 9l-1.96-2H12l1.96 2L12 11Z" fill="url(#d)"/><path d="m9.02 9.86-.94-1L9.95 7h1.87l-2.8 2.86Z" fill="url(#e)"/><path d="m8.1 8.86 2.73-1.33V7h-.88L8.08 8.85l.02.01Z" fill="url(#f)"/><path d="m12.08 8.14.93 1L11.15 11H9.27l2.8-2.86Z" fill="url(#g)"/><path d="m13 9.14-2.73 1.33V11h.88L13 9.15 13 9.14Z" fill="url(#h)"/><defs><linearGradient id="a" x1="5.17" y1="8.37" x2="3.92" y2="10.96" gradientUnits="userSpaceOnUse"><stop stop-color="#F5EAA2"/><stop offset=".46" stop-color="#AF7A2C"/></linearGradient><linearGradient id="b" x1="4" y1="7" x2="4" y2="11" gradientUnits="userSpaceOnUse"><stop stop-color="#F5EAA2"/><stop offset=".52" stop-color="#AF7A2C"/></linearGradient><linearGradient id="c" x1="9" y1="7.22" x2="8.23" y2="8.66" gradientUnits="userSpaceOnUse"><stop stop-color="#EAD68A"/><stop offset="1" stop-color="#C59136"/></linearGradient><linearGradient id="d" x1="12" y1="10.78" x2="12.77" y2="9.34" gradientUnits="userSpaceOnUse"><stop stop-color="#EAD68A"/><stop offset="1" stop-color="#C59136"/></linearGradient><linearGradient id="e" x1="9.07" y1="9.8" x2="9.07" y2="8.58" gradientUnits="userSpaceOnUse"><stop stop-color="#E0C16C"/><stop offset="1" stop-color="#C69237"/></linearGradient><linearGradient id="f" x1="8.08" y1="8.7" x2="9.89" y2="7.36" gradientUnits="userSpaceOnUse"><stop stop-color="#E9D991"/><stop offset="1" stop-color="#C79337"/></linearGradient><linearGradient id="g" x1="12.02" y1="8.2" x2="12.02" y2="9.42" gradientUnits="userSpaceOnUse"><stop stop-color="#E0C16C"/><stop offset="1" stop-color="#C69237"/></linearGradient><linearGradient id="h" x1="13.01" y1="9.3" x2="11.2" y2="10.64" gradientUnits="userSpaceOnUse"><stop stop-color="#E9D991"/><stop offset="1" stop-color="#C79337"/></linearGradient></defs></svg>