<!-- by TradingView --><svg width="18" height="18" fill="none" xmlns="http://www.w3.org/2000/svg"><path fill="#ED1C24" d="M0 0h18v18H0z"/><path fill-rule="evenodd" clip-rule="evenodd" d="M12.921 5.087c.373-.157.512-.066.535 0l-.243.137c-1 .565-2.722 1.539-3.33 2.172-.66.689-.246 1.19.772 1.252 1.018.063 1.735.413 1.802.626l.016.047c.077.215.203.567-.9 1.58-.949.872-3.285 2.21-4.334 2.771-.203.14-.62.397-.662.306-.043-.091.017-.178.052-.21 1.21-.881 3.707-2.744 4.026-3.144.4-.5.321-.838-1.089-1.001-1.024-.118-1.393-.461-1.472-.662l.133 2.32c.037.344.068 1.06-.101 1.173-.107-.004-.367-.152-.55-.719-.182-.567-.718-2.726-.963-3.734-.149-.498-.252-1.545.533-1.75.784-.204.907.823.87 1.362L8.08 8.73c.167-1.642 4.39-3.454 4.841-3.644ZM9 5.332c.661 0 1.297.069 1.892.195l-.409.295A7.002 7.002 0 0 0 9 5.666c-2.761 0-5 1.567-5 3.5 0 1.62 1.576 2.984 3.714 3.381l-.33.314C4.853 12.41 3 10.927 3 9.167 3 7.05 5.686 5.333 9 5.333Zm3.478.71-.483.32C13.212 7 14 8.019 14 9.165c0 1.752-1.839 3.202-4.24 3.459l-.484.373C12.46 12.905 15 11.227 15 9.168c0-1.289-.995-2.43-2.522-3.124Z" fill="#fff"/></svg>