<!-- by TradingView --><svg width="18" height="18" viewBox="0 0 18 18" xmlns="http://www.w3.org/2000/svg"><path fill="#F0F3FA" d="M0 0h18v18H0z"/><path fill-rule="evenodd" d="M5.08 4.73c.13-.03.4-.06.4.09 0 .07-.02.11-.03.15-.02.06-.04.1.02.22.1.18.5.54.5.36l-.03-.2c-.02-.15-.04-.31.02-.44.05-.09-.06-.16-.2-.23-.13-.08-.29-.18-.29-.32 0-.27 0-.37.3-.46.29-.09.58.1.48.28-.1.18.1.27.3.36.06.03.12.08.18.13.13.1.24.18.3.06.05-.09 0-.21-.06-.31-.05-.12-.1-.2.07-.15.15.05.25 0 .34-.05.08-.05.15-.09.24-.04.11.05.1.01.06-.07-.02-.07-.06-.18-.06-.3 0-.27.1-.82.3-.64.19.18.48.1.58 0 .1-.1.58-.27.68-.1.05.1.17.1.3.1.12 0 .24 0 .29.1.05.1-.1.2-.24.28-.1.07-.2.13-.15.17.04.04.13.03.23.02.13-.02.25-.03.25.07s-.13.17-.25.23c-.1.05-.18.1-.14.14.1.09.59.36.59.18s0-.64.1-.55l.1.13c.06.1.12.2.19.15.04-.04.05-.1.05-.15.02-.09.02-.15.14-.04.08.08.08.01.08-.08 0-.14-.01-.34.22-.28.39.09.58.27.68.45.05.09 0 .2-.03.29-.04.11-.08.21.03.26.2.1.59.1.68.1.03 0 .1-.06.19-.13.21-.16.52-.4.6-.15l.07.34c.04.25.08.48.22.67.06.08.17.17.27.26.24.18.48.37.21.56-.25.18-.26.2-.28.35-.02.08-.04.2-.1.39-.12.32-.23.36-.33.39-.07.02-.12.04-.16.15-.04.1-.1.18-.14.23-.08.1-.11.14.14.14.19 0 .3-.18.42-.33.1-.17.2-.31.36-.22.29.18.29.44.1.86-.2.42-.69.8-.98.6l-.14-.08c-.2-.15-.32-.23-.64 0-.14.1-.2.18-.27.27-.1.15-.21.28-.7.46-.63.22-1.11.27-1.28.27-.22.16-.68.55-.68.92 0 .2-.02.46-.04.73-.03.31-.06.66-.06 1.01 0 .18-.01.39-.03.58-.04.5-.08.96.13 1.16.22.2.39.15.63.07l.25-.07c.39-.1 1.56-.37 1.76 0l.08.14c0 .01-.24-.2-.87-.14-.87.1-1.56.27-1.07.37.24.04.54 0 .79-.03.27-.04.48-.07.48.03s-.64.12-1.1.13c-.33 0-.57.01-.36.05.14.03.31.05.48.06.38.05.73.09.59.21-.07.07-.1.1-.14.1-.07.02-.16-.04-.54-.1-.32-.05-.61-.2-.86-.34a1.3 1.3 0 0 0-.5-.2c-.15 0-.34.12-.52.25-.19.13-.36.25-.46.2-.09-.04-.1-.1-.11-.15-.01-.06-.02-.12-.19-.12-.12 0-.33.04-.56.1-.33.06-.69.14-.8.08-.09-.04-.1-.1-.1-.15-.02-.07-.03-.12-.2-.12-.29 0-.68-.19-.48-.19l.18.02c.15.02.33.05.6-.02l.3-.07c.13-.02.26-.02.67-.02.2 0 .37.03.5.05.3.04.44.06.58-.32.1-.27.05-.45.01-.6-.04-.15-.07-.27.08-.41.16-.15.15-.27.13-.4a.64.64 0 0 1 .07-.43l.04-.07c.17-.3.23-.42-.04-.93a2.68 2.68 0 0 1-.23-.64c-.07-.28-.13-.52-.36-.74-.1-.1-.2-.2-.27-.3-.2-.22-.32-.38-.6-.25-.16.07-.37.12-.57.16-.33.07-.64.13-.7.3-.03.07-.04.14-.06.22-.06.24-.11.47-.33.33-.15-.09-.2-.16-.25-.23a.73.73 0 0 0-.24-.23c-.3-.18-.3-.36-.3-.55 0-.18 0-.64.3-.64s.49-.11.68-.33c.13-.15.3-.2.47-.24l.21-.07c.2-.09 0-.55-.29-.46-.1.04-.2.14-.3.24-.2.18-.39.37-.58.13-.15-.2-.34-.16-.5-.12-.15.03-.28.06-.37-.06-.14-.2-.09-.34-.04-.47.02-.06.04-.12.04-.17 0-.07-.05-.13-.1-.2-.1-.12-.2-.27 0-.45.16-.14.26-.03.38.11.1.12.22.26.4.26.13 0 .24.02.34.04.21.03.34.05.34-.13l.01-.17c.02-.24.03-.5-.2-.66l-.19-.1c-.25-.15-.5-.3-.5-.44 0-.15.26-.37.4-.46Zm3.7 5.5a1.63 1.63 0 0 1 0-.73c.05-.13.02-.3 0-.45-.02-.16-.05-.33 0-.46l.07-.27c.08-.36.2-.84.42-.56.29.37.29.46.1.83-.16.29-.46 1.22-.59 1.65Zm-.88-1.1c.13.25.41.8.49 1.01l.06.19c.1.3.23.68.23.46 0-.1-.04-.23-.09-.36-.07-.21-.16-.46-.1-.74.1-.46 0-.83-.1-.92-.08-.07-.36.21-.49.37Zm1.37.56c-.24.29-.3.91-.3 1.19.23-1.06.46-1.2.68-1.33.07-.04.14-.08.2-.14.22-.2.68-.35 1.11-.49l.45-.15c.5-.18.1-.64-.29-.55l-.53.17c-.28.1-.56.2-.74.2-.16 0-.23.23-.32.5-.06.2-.13.44-.26.6Zm-.63 2.34c.1-.07.22-.16.14-.7l.2-.09c-.04.22-.1.7-.1.92l.02.27c.02.14.04.25-.02.37-.1.18-.4.46-.4.28 0-.19 0-.28.1-.46.06-.1.03-.22 0-.32-.02-.1-.04-.19 0-.23a.42.42 0 0 1 .06-.04Zm-.25 1.69c0 .14-.07.36-.1.45l.2-.09c.14-.06.13-.13.11-.26l-.02-.2v-.36c0-.06-.08-.04-.17-.02a.59.59 0 0 1-.12.02c-.05 0-.02.08.02.18.04.09.08.2.08.28Zm.49-.46h-.1v.91l.3.1c-.04-.03-.1-.15-.1-.37s-.07-.52-.1-.64Z" fill="#97062F"/></svg>