<!-- by TradingView --><svg width="18" height="18" viewBox="0 0 18 18" xmlns="http://www.w3.org/2000/svg"><path fill="url(#ahvabh4vz)" d="M0 0h18v18H0z"/><path d="M6 4a1 1 0 1 1 0 2 1 1 0 0 1 0-2ZM9 4a1 1 0 1 1 0 2 1 1 0 0 1 0-2Z" fill="#ED1B2E"/><path d="M11.45 7H13v6h-1.55V7ZM5 7h1.51v2L7.9 7h1.9L8.14 9.14l2.3 3.86H8.56l-1.44-2.5-.62.8V13H5V7Z" fill="#fff"/><path d="M12 4a1 1 0 1 1 0 2 1 1 0 0 1 0-2Z" fill="#ED1B2E"/><defs><linearGradient id="ahvabh4vz" x1="3.35" y1="3.12" x2="21.9" y2="24.43" gradientUnits="userSpaceOnUse"><stop stop-color="#1A1E21"/><stop offset="1" stop-color="#06060A"/></linearGradient></defs></svg>