<!-- by TradingView --><svg width="18" height="18" viewBox="0 0 18 18" xmlns="http://www.w3.org/2000/svg"><path fill="#F0F3FA" d="M0 0h18v18H0z"/><path fill-rule="evenodd" d="M15 9A6 6 0 1 1 3 9a6 6 0 0 1 12 0Zm-.53 0A5.47 5.47 0 1 1 3.53 9a5.47 5.47 0 0 1 10.94 0ZM12 6H9.97l-.12.17V6H9.7v.42l-.2.3V6h-.17v.98l-.24.36V6h-.16v1.6l-.2.3V6h-.17v2.15l-.2.3V6H8.2v2.7l-.2.3V6H6v6h2V9l.19.3V12h.16V9.55l.2.3V12h.17v-1.9l.2.3V12h.16v-1.34l.24.36V12h.17v-.73l.2.3V12h.16v-.17l.12.17H12l-1.41-2.05v-1.9L12 6ZM9.93 9l.12-.18v.36L9.93 9Zm.49-.71-.2.3v.83l.2.3V8.28ZM8 9Zm-.33-1h.16v2h-.16V8ZM7.5 8v2h-.24V8h.24Zm-.4 0v2h-.2V8h.2Zm-.37 0v2h-.2V8h.2Zm-.36 0v2h-.2V8h.2Zm4.96 0h-.16v2h.16V8ZM11 8h-.17v2H11V8Zm.5 0h.17v2h-.17V8Zm.5 0h-.16v2H12V8Z" fill="#BF9F62"/></svg>