<!-- by TradingView --><svg width="18" height="18" viewBox="0 0 18 18" xmlns="http://www.w3.org/2000/svg"><path fill="#F0F3FA" d="M0 0h18v18H0z"/><path d="m13.72 5.37-3.28 3.1c-.02.01-.02.03-.01.05l1 2.92c.04.13.11.2.24.2a35.17 35.17 0 0 1 .77.02l-.4 1.3-.01.01H12L9.04 13 9 12.99a.07.07 0 0 1-.02-.03l-.06-.14-1-2.97c-.01-.05-.03-.05-.04 0l-.94 3.01c-.05.15-.1.13-.22.13h-2.7L4 12.96v-.02l2.49-7.9.02-.02.02-.01L9.35 5h.01l.01.02v.03L8.1 9.13c-.01.06 0 .07.04.03l3.04-2.89 1.21-1.15c.13-.12.2-.11.39-.11a74.27 74.27 0 0 1 1.21.02v.03c0 .03-.01.06-.04.08l-.23.23Z"/></svg>