<!-- by TradingView --><svg width="18" height="18" viewBox="0 0 18 18" xmlns="http://www.w3.org/2000/svg"><path fill="#F0F3FA" d="M0 0h18v18H0z"/><path d="M9.89 8.6h-.45c-.1-.2-.29-.2-.53-.2-.24 0-.47.06-.47.2 0 .17.33.22.64.26.73.1.92.27.92.54 0 .26-.26.6-1 .6-.82 0-1-.39-1-.6h.49c0 .14.15.2.52.2.36 0 .55-.02.55-.16s-.23-.2-.65-.27C8.5 9.09 8 9 8 8.62c0-.42.43-.62.97-.62.72 0 .9.4.92.6Z" fill="#010066"/><path fill-rule="evenodd" d="M14 6H4v6h10V6Zm-.5.55h-9v4.9h9v-4.9Z" fill="#010066"/><path d="M5 8h.44v.85l1-.85H7l-.93.83L7 10h-.56l-.69-.9-.3.28V10H5V8ZM11 10V8h.5l1.06 1.4V8H13v2h-.5l-1.06-1.4V10H11Z" fill="#010066"/></svg>