<!-- by TradingView --><svg width="18" height="18" viewBox="0 0 18 18" xmlns="http://www.w3.org/2000/svg"><path fill="#F0F3FA" d="M0 0h18v18H0z"/><path d="M11.4 4h2.39l-.8.9s.44.47.67 1.06A6 6 0 0 1 14 7.5h-1.3s0-1.3-.02-1.54c-.07-.76-.55-1.64-1.28-1.96Zm-1.38 10H4l4.15-5.66s.77.78 1.6.8c.81 0 1.38-.26 1.63-.4l.38-.23L10.02 14Zm-.86-8.79-.53-.67h1.77l-1.24.67Zm-1 2.56a2.32 2.32 0 0 0 1.9 1.03 2.4 2.4 0 0 0 2.35-2.45c0-1.04-.64-2-1.52-2.35H8.5l-.09.2a.48.48 0 0 0 0 .3H4.73s-.2.16-.34.33-.2.3-.2.3a.61.61 0 0 1 .19-.04c.36 0 .65.3.65.68a.66.66 0 0 1-.78.66s.06 0 .14.2c.07.2.44.56.44.56l.88-.33 2.44.91Z" fill="#A40003"/><path d="m12.16 8-1.88 6h2.03c1.35-3.12 1.72-5.3 1.73-6h-1.88Z" fill="#A40003" fill-opacity=".6"/></svg>