<!-- by TradingView --><svg width="18" height="18" viewBox="0 0 18 18" xmlns="http://www.w3.org/2000/svg"><path fill="#F0F3FA" d="M0 0h18v18H0z"/><path d="M9.88 9 12 6.74v-.53L9.35 9l1.86 2.65H9.7L8.47 10l-3.22 3.31.19.38 3.03-3.06L9.5 12H12L9.88 9ZM6.35 10.06l5.78-5.97.22.32L6 10.98V5h2v2.7l-.35.3V5.37h-1.3v4.69Z" fill="#9A8C67"/><path d="M9 15a6 6 0 0 0 3.25-11.05l-.33.36a5.52 5.52 0 0 1-5.78 9.41l-.37.34c.94.6 2.04.94 3.23.94Zm-3.64-1.23.33-.34A5.52 5.52 0 0 1 11.36 4l.45-.31a6 6 0 0 0-6.45 10.07Z" fill="#9A8C67"/></svg>