<!-- by TradingView --><svg width="18" height="18" viewBox="0 0 18 18" xmlns="http://www.w3.org/2000/svg"><path fill="#F0F3FA" d="M0 0h18v18H0z"/><path d="M8.6 3.01V6.1L7.33 3.5l.54 2.87-1.85-2.52 1.3 2.91-2.4-2.17A5.98 5.98 0 0 1 8.6 3.01Zm.08 0 .58 3.14.8-2.73-.27 2.95 1.84-2.6-1.03 2.77 2.18-1.85-1.57 2.39 2.58-1.45-2.15 2.1 2.84-1.03L12 8.34l2.92-.24A6 6 0 0 0 8.68 3Zm6.26 5.12-2.83.91 2.87.51a6.1 6.1 0 0 0-.04-1.42Zm.03 1.49-2.86.19 2.55 1.17c.16-.43.26-.89.3-1.36Zm-.5 1.85-2.63-.97 2.12 1.88a6 6 0 0 0 .51-.91Zm-.92 1.44-2.53-2.2h-.12l2.04 2.82c.21-.2.42-.4.6-.62Zm-1.16 1.04-1.91-3.24h-.16l1.31 3.68a6 6 0 0 0 .76-.44Zm-1.5.75-.97-4h-.14l.13 4.23c.34-.05.67-.13.98-.23Zm-1.77.3.18-4.3h-.16l-.9 4.25a6.07 6.07 0 0 0 .88.05Zm-1.52-.16 1-4.13h-.16l-1.66 3.87c.26.1.54.19.82.26Zm-1.49-.58L8 10.71h-.16l-2.28 3.2c.18.13.36.25.55.35Zm-1.17-.84 2.21-2.71h-.2L4.4 12.85c.17.2.35.4.54.57Zm-.83-.95 2.03-1.83-2.53 1a6 6 0 0 0 .5.83Zm-.64-1.13L6 9.75l-2.8.19 2.87-1.01-3.05-.37a6.09 6.09 0 0 0 .45 2.78Zm-.44-2.9 3.11-.05-2.72-1.33 2.95.63-2.43-1.92c-.5.79-.83 1.7-.91 2.68ZM4 5.69l2.85 1.46-1.98-2.49c-.33.31-.62.66-.87 1.03Z" fill="#FF8920"/><path opacity=".5" fill="#FF8920" d="M6 9h6v1.5H6z"/></svg>