<!-- by TradingView --><svg width="18" height="18" viewBox="0 0 18 18" xmlns="http://www.w3.org/2000/svg"><path fill="#F0F3FA" d="M0 0h18v18H0z"/><path d="M15 7h1v4h-1l-1-2.23V7l1 2.23V7Zm-2 0h1v4h-1V7Z" fill="#3165AA"/><path fill-rule="evenodd" d="M10.4 7 9 10.99h1.13l.23-.8h1.28l.23.8H13L11.6 7h-1.2Zm.6.98-.41 1.41h.82L11 7.98Z" fill="#3165AA"/><path d="M9.43 7.76c.08.1.21.2.4.34.97.64 1.83 1.37 2.1 2.42a2.3 2.3 0 0 1-.48 2.07c-.32.4-.73.75-1.22 1.05-.96.58-2.02 1.02-3.17 1.32 2.2-.63 5.32-2.12 4.72-4.41 0-.02-.02-.03-.04-.03s-.05 0-.04.02c.17.84-.06 1.6-.7 2.27-.36.38-.8.7-1.33.99-1.03.55-2.17.95-3.42 1.2 1.99-.5 4.55-1.54 5.08-3.32 0-.01-.02-.02-.03 0-.08.27-.19.5-.33.7-.5.68-1.27 1.2-2.13 1.6-.7.31-1.45.56-2.24.76.78-.2 1.51-.48 2.21-.8a4.9 4.9 0 0 0 1.94-1.5c.42-.6.53-1.23.33-1.91l-.04.01c.13.64-.03 1.22-.5 1.74A6.8 6.8 0 0 1 7.3 14c1.5-.52 3.14-1.3 3.38-2.75-.26.9-1.21 1.51-2.18 1.93-.8.35-1.63.62-2.5.82.67-.2 1.36-.43 2.06-.72.58-.24 1.1-.53 1.57-.87 0 0 0-.02-.02-.01a15 15 0 0 1-2.65 1.13c.5-.19.98-.4 1.43-.64.17-.09.32-.2.45-.32 0 0 0-.02-.02-.01-.73.33-1.5.6-2.28.84.64-.23 1.26-.5 1.85-.8.3-.15.6-.33.87-.52.33-.23.56-.52.68-.86a.9.9 0 0 0-.15-.73c-.58-.85-1.85-1.3-2.75-1.9C6.32 8.17 6 7.7 6 7.04 6.02 5.38 8.32 3.7 10 3l1.36 2.12c-1.4.4-2.86 1.48-1.93 2.64Z" fill="#87B851"/><path fill="#3165AA" d="M6 7h1v4H6zM4.2 7h1.37l-1.2 1.48 1.3 2.5H4.3L3.62 9.4l-.62.77V11H2V7h1v1.61L4.2 7Z"/></svg>