<!-- by TradingView --><svg width="18" height="18" viewBox="0 0 18 18" xmlns="http://www.w3.org/2000/svg"><path fill="#23408A" d="M0 0h18v18H0z"/><path d="M6.6 8.62 4 7.68v.84l2.6.1ZM8.36 7.15 8.44 6H8l.35 1.15ZM6.6 9.4 4 9.5v.84l2.6-.95ZM8.39 10.83 8.04 12h.44l-.09-1.17ZM7.98 10.76 7.27 12h.5l.21-1.24ZM7.22 7.63 6.09 6H4.98l2.24 1.63ZM6.56 9 4 8.62v.8L6.56 9ZM4 7.61l2.73.64L4 6.61v1Z" fill="#FDBA2F"/><path d="M6.6 8.62 4 7.68v.84l2.6.1ZM8.36 7.15 8.44 6H8l.35 1.15ZM7.94 7.23 7.75 6h-.5l.7 1.23ZM6.6 9.4 4 9.5v.84l2.6-.95ZM7.56 7.4 6.99 6h-.7l1.27 1.4ZM6.94 7.92 4.88 6H4v.53l2.94 1.39ZM6.96 10.1 4 11.5v.5h.91l2.05-1.9ZM8.39 10.83 8.04 12h.44l-.09-1.17ZM6.12 12l1.13-1.62L5 12h1.11ZM6.74 9.76 4 10.4v1.02l2.74-1.66ZM7.6 10.6 6.32 12h.7l.56-1.4Z" fill="#FDBA2F"/><path d="m14.35 11.85-2.67-3.83 1.3-1.2a2.2 2.2 0 0 1 1.48-.67h.23V6h-2.31v.15h.16c.35 0 .47.08.47.2 0 .14-.2.33-.4.51L10.59 8.8V6.15h.78V6H9v2.03l.27-.45-.15.77.63-.5-.42.67.78-.27-.64.5.83-.01L9.5 9l.79.26h-.83l.64.5-.78-.28.42.67-.63-.5.15.76L9 9.96V12h2.31v-.16h-.72v-2.8l.1-.12 1.99 2.93h-.7V12H15v-.15h-.65Z" fill="#fff"/></svg>