<!-- by TradingView --><svg width="18" height="18" viewBox="0 0 18 18" xmlns="http://www.w3.org/2000/svg"><path fill="#F0F3FA" d="M0 0h18v18H0z"/><path d="M9 8.96V4.01L4.04 4C4 4 4 4.01 4 4.04V9h4.96C9 9 9 8.99 9 8.96Zm-3.57-3.2V4.74c0-.03.01-.04.04-.04l.76.04c.01 0 .02.01.02.03 0 .02 0 .03-.02.03-.07.02-.09.06-.09.12v3.68c0 .02-.03.03-.05.03h-.62c-.03 0-.04-.01-.04-.03v-.77c0-.01 0-.02-.02 0a10.17 10.17 0 0 0-.8.36l-.26-.63c-.01-.02 0-.04.02-.05l1.03-.34c.02 0 .03-.01.03-.03v-.61c0-.02 0-.04-.03-.04h-.65c-.02 0-.04 0-.04-.02v-.66c0-.02.02-.03.04-.03h.64c.03 0 .04-.01.04-.04Zm1.82.13c.18-.12.33-.25.5-.39l.17-.15h.04l.43.55c.02.02.01.03 0 .04h-.01A.65.65 0 0 0 8.2 6l-.1.06a8.79 8.79 0 0 1-.88.54v1.22c0 .03 0 .05.02.07a.1.1 0 0 0 .07.03h.35a.1.1 0 0 0 .1-.06c.05-.16.08-.31.08-.65v-.03l.01-.01h.02c.18.12.36.2.56.26.02 0 .03.02.03.04-.02.3-.06.55-.13.75-.1.27-.3.4-.61.41l-.7-.01c-.34-.04-.52-.3-.52-.77V4.74c0-.02.01-.03.03-.03l.78.04c.04 0 .05.02.02.05a.23.23 0 0 1-.09.06l-.03.03v.99c0 .02.02.03.04.01Z" fill="#E73A18"/><path fill-rule="evenodd" d="M11.54 5.73c-.06-.02-.06-.03 0-.03.3-.03.56 0 .8.11.27.13.44.32.53.58.08.26.09.5.02.75-.07.25-.21.45-.42.6-.24.17-.52.28-.84.34l-.02.01v.02c.15.16.28.33.4.51 0 .02.02.03.04.02.37-.09.68-.22.93-.4.3-.23.49-.5.58-.84.06-.22.1-.46.08-.7a1.8 1.8 0 0 0-.15-.67c-.22-.48-.6-.78-1.17-.9-.36-.07-.7-.08-1.03 0-.33.06-.62.19-.86.38-.26.2-.44.45-.57.75a2.1 2.1 0 0 0-.13 1.03c.03.28.12.5.27.67a.8.8 0 0 0 .65.26c.43-.02.76-.3 1-.85.15-.37.26-.83.32-1.4 0-.02 0-.03.02-.03l.09-.04c.04-.03.04-.05-.01-.06a6.44 6.44 0 0 1-.53-.11Zm-.25.05c0-.02 0-.03-.03-.02-.54.2-.83.6-.89 1.16-.01.12 0 .24.02.36.03.17.1.26.2.27.08.02.18-.02.27-.13a.97.97 0 0 0 .17-.28c.14-.39.23-.84.26-1.36Z"/><path d="M11.41 11.53a4.1 4.1 0 0 1-1.45 2.1H9.9c-.13-.2-.3-.36-.48-.5-.02-.02-.02-.03 0-.04a3.2 3.2 0 0 0 1.27-1.6 6 6 0 0 0 .34-2.1c0-.02.01-.03.03-.03l.76.06c.07.01.08.03.02.07a.18.18 0 0 1-.07.03c-.02 0-.03.02-.03.04v.11c-.01.08-.02.14-.01.18.05.71.23 1.34.51 1.88a3.06 3.06 0 0 0 1.31 1.34v.02c-.18.15-.33.33-.44.54 0 .01-.02.02-.04 0a3.5 3.5 0 0 1-1.52-1.82l-.11-.28c-.01-.03-.03-.03-.04 0ZM5.18 10.67h-.03a3.9 3.9 0 0 0-.6-.7c-.02-.01-.02-.02 0-.03l.43-.34h.05c.23.2.44.41.63.65v.05l-.48.37Z"/><path fill-rule="evenodd" d="M6.4 11.13v.01h-.6l-.01.01V11.5h1.08c.02 0 .04 0 .04.03v.08c0 .02-.01.03-.03.03h-.85l-.01.02v.4l.01.02h.84c.03 0 .04 0 .04.03v.06c0 .03-.01.04-.03.04H5.86v.45h1.02c.02 0 .03.01.03.04v.2c0 .02 0 .03.02.03h.57c.02 0 .03-.01.03-.04v-.19c0-.02.01-.04.04-.04h1.02v-.44H7.54l-.02-.04v-.08c0-.02 0-.02.02-.02h.87c.01 0 .02-.01.02-.03l.04-.39c0-.01 0-.02-.02-.02h-.91c-.01 0-.02 0-.02-.02v-.1c0-.01 0-.02.02-.02h1.08l.01-.01V11.14h-.6c-.03 0-.04 0-.02-.03l.11-.23a.06.06 0 0 1 .06-.03c.03 0 .05-.01.06-.05 0-.02.02-.01.03-.01h.35l.01-.02v-.49l-.01-.01H7.6c-.02 0-.03-.01-.03-.03v-.14c0-.02.02-.03.03-.03h.77c.01 0 .02 0 .02-.02v-.31l-.02-.03H7.6c-.02 0-.03 0-.03-.02v-.17c0-.02.01-.03.03-.03.04 0 .07-.02.09-.05.01-.02 0-.04-.02-.04l-.78-.04c-.02 0-.03 0-.03.03v.3c0 .02 0 .02-.02.02h-.69v.36h.68c.02 0 .03.01.03.03v.15c0 .02 0 .02-.02.02H5.79v.51h.5v.02l.11.33Zm1.12-.34h-.6c-.01 0-.02 0-.01.02l.1.32.01.01h.4l.11-.33-.01-.02Z"/><path d="M4.83 11.74H4.4c-.02 0-.03-.01-.03-.03v-.54c0-.02.01-.03.03-.03H5.4c.02 0 .03.01.03.03v1.4c0 .01 0 .03.02.05.1.14.3.24.47.3.13.04.3.06.52.07a20.24 20.24 0 0 0 2.2-.03c-.08.2-.15.39-.19.58 0 .02-.01.03-.04.03-.7.03-1.41.03-2.12 0-.48-.01-.83-.16-1.06-.45a13.28 13.28 0 0 1-.46.38.33.33 0 0 0-.07.12c0 .02-.02.02-.03.02-.01 0-.02 0-.03-.02L4.36 13c0-.02 0-.03.02-.05l.47-.32c.02 0 .02-.02.02-.03v-.82c0-.03-.01-.04-.04-.04Z"/><path fill-rule="evenodd" d="M13.88 4.12H4.12v9.76h9.76V4.12Zm-9.81-.05v9.86h9.86V4.07H4.07Z"/><path d="M4 4v10h10V4H4Zm.12.12h9.76v9.76H4.12V4.12Z"/></svg>