<!-- by TradingView --><svg width="18" height="18" viewBox="0 0 18 18" xmlns="http://www.w3.org/2000/svg"><path fill="#F0F3FA" d="M0 0h18v18H0z"/><path d="M7.54 5.37a.04.04 0 0 1-.02.03.03.03 0 0 1-.04 0h-.01l-.01-.03-.15-1.79c0-.05.02-.08.07-.08h.2c.05 0 .08.03.08.09l-.12 1.78ZM8.33 3.76c-.02 0-.04 0-.06.02a.1.1 0 0 0-.03.04L7.7 5.44l-.02.03h-.05a.02.02 0 0 1-.01-.03l.34-1.9.01-.03H8l3.42.01c.06 0 .1.04.09.11 0 .08-.03.11-.12.11l-3.06.02ZM7.32 5.4l-.04-.01a46.23 46.23 0 0 0-.4-1.62v-.03a.42.42 0 0 1 .13-.04h.15l.02.04a46.55 46.55 0 0 0 .18 1.63c0 .02-.02.03-.04.03Z" fill="#D8D9D9"/><path d="M6.96 4.96c-.1.05-.2.07-.3.04l-.35-1c-.01-.04 0-.06.04-.06h.19c.04 0 .07.02.09.07l.33.95ZM11.24 5.03a3.2 3.2 0 0 1-.78.14c-.78.04-1.62.03-2.5-.04L8.45 4a.1.1 0 0 1 .03-.04.1.1 0 0 1 .05-.02h3.15v.02a.03.03 0 0 1 0 .03l-.45 1.04Z" fill="#2C8AC8"/><path d="M7.02 6.12c.08.04.11.09.1.15L5.84 9.65l-.02.03a.07.07 0 0 1-.05.02l-2.2-.06c-.04 0-.05-.02-.04-.06l.07-.18a.1.1 0 0 1 .03-.04.1.1 0 0 1 .06-.02l1.91.05c.02 0 .04 0 .05-.03.1-.16.12-.28-.03-.43a87.27 87.27 0 0 1-1.3-1.4l.01-.07L5.46 4.5v-.02a.04.04 0 0 1 .04 0h.01l1.51 1.64Z" fill="#21C2BD"/><path d="M4.07 7.58c-.02.07 0 .12.04.17.32.26.58.54.88.76a3.73 3.73 0 0 1 .44.43l-.01.01h-.03L3.78 7.92a.09.09 0 0 1-.04-.05v-.05l1.23-3.25c.02-.05.05-.06.1-.05l.06.02c.06.01.08.05.06.1L4.07 7.59Z" fill="#D8D9D9"/><path d="M12.23 9.8c-.27-.19-.33-.51-.45-.9l-.54-1.78a1.54 1.54 0 0 0-.12-.31c-.06-.1-.12-.19-.2-.27l-.15-.19-.01-.06c-.02-.05-.01-.11.03-.17l1.7-1.35c.03-.02.05-.02.06.02l.07.21c0 .03 0 .05-.02.07l-1.52 1.19a.06.06 0 0 0-.03.04c0 .1.03.2.08.3l.05.03 1.94.25a.1.1 0 0 1 .05.02.1.1 0 0 1 .03.05l.94 3.07v.03l-.01.01h-.02l-1.88-.25Z" fill="#476D2D"/><path d="M7.95 5.13c.89.07 1.73.08 2.51.04.24 0 .5-.06.78-.14-.14.34-.3.67-.47 1-.01.03 0 .06.02.09-.04.06-.05.12-.03.17v.05h-.01c0-.1-.05-.16-.16-.15a115 115 0 0 1-3.4-.02c-.04 0-.06.03-.07.1.01-.06-.02-.11-.1-.15.05 0 .06-.06.01-.17-.13-.3-.25-.63-.36-.95.1.03.2.01.3-.04l.28.87.04.04c.1.03.2.03.29.01a.1.1 0 0 0 .07-.06l.3-.7Z" fill="#73ADDA"/><path d="M11.41 6.27c-.09.04-.1.02-.04-.05a.9.9 0 0 1 .22-.18l1.19-.75c.06-.04.12-.03.16.03l.06.1c.04.06.03.1-.03.14l-1.56.71ZM11.56 6.3l1.6-.66c.05-.02.08 0 .1.05l.06.2c.02.05 0 .08-.05.1l-1.69.4-.02-.01-.01-.02-.01-.01a.04.04 0 0 1 0-.04h.02ZM13.2 6.63c-.35-.03-.76 0-1.13-.04a8.84 8.84 0 0 1-.61-.09v-.02c.07-.02.18 0 .25-.02a38.33 38.33 0 0 1 1.73-.19l.03.05 1.02 3.32c.03.08 0 .13-.08.15a.15.15 0 0 1-.12-.01.12.12 0 0 1-.06-.07l-.91-2.98a.15.15 0 0 0-.05-.07.14.14 0 0 0-.07-.03Z" fill="#D8D9D9"/><path d="M12.23 9.8c-.1.01-.2 0-.28-.02-.07-.03-.09 0-.05.07a.2.2 0 0 0 .07.06c.08.05.15.1.21.16a.47.47 0 0 1-.26-.14.12.12 0 0 0-.16-.01l-.27.23c-.04.03-.04.06-.02.1.01 0 .03.02.05.01h.04c-.05.07-.06.17 0 .32-.23-.07-.44.06-.63.2l-1.74 1.27a.66.66 0 0 1-.24.09c-.05.01-.1.06-.11.15a.84.84 0 0 1-.04-.26l.03-.23 2.92-2.02a.06.06 0 0 0 .02-.04.07.07 0 0 0 0-.05c-.05-.07-.05-.15-.07-.22a75.68 75.68 0 0 1-.43-1.42l-.24-.66a1.06 1.06 0 0 1-.03-.17l-.05-.17c-.08-.2-.14-.42-.18-.7l.15.19c.08.08.14.17.2.27.04.07.08.18.12.31l.54 1.78c.12.39.18.71.45.9Z" fill="#DF9D6B"/><path d="m5.25 9.06-1.69-.52c-.05-.02-.07-.06-.05-.11l.07-.2c.02-.05.05-.06.1-.04l1.6.79V9l.01.02a.04.04 0 0 1-.01.03.03.03 0 0 1-.03 0ZM5.38 9.2c0 .02-.02.03-.06.02l-1.75-.18c-.04 0-.06-.03-.05-.08a1.03 1.03 0 0 0 .03-.18c0-.05.03-.06.08-.05l1.7.42c.04.01.05.03.05.05Z" fill="#D8D9D9"/><path d="m8.83 11.8-.03.23c0-.04 0-.08-.02-.1-.01-.02-.03-.03-.05-.02-.01.01-.03.03-.04.07-.16-.17-.3-.21-.42-.13a.71.71 0 0 0-.37.09c-.15-.33-.57-.51-.75-.67-.48-.42-.94-.76-1.39-1.04a1.83 1.83 0 0 0-.53-.2c.2-.15.42-.23.65-.24.03 0 .06 0 .08.02l.07.05a62.01 62.01 0 0 0 1.17.84 17.63 17.63 0 0 0 1.43 1.05.3.3 0 0 0 .2.05Z" fill="#FEE18C"/><path d="m12.18 10.07 1.41 1.05c.03.02.04.05 0 .07l-.14.11c-.04.03-.07.03-.11 0l-1.52-1.14a.05.05 0 0 0-.06-.01.61.61 0 0 0-.2.11h-.04c-.02 0-.04 0-.05-.02-.02-.03-.02-.06.02-.1l.27-.22a.12.12 0 0 1 .16.01c.07.08.16.12.26.14Z" fill="#BD511E"/><path d="M5.23 10.02c.22.05.4.12.53.2.45.29.91.63 1.39 1.05.18.16.6.34.74.67l-1.46.85a.11.11 0 0 1-.14 0l-2.5-1.9h-.01a.02.02 0 0 1 0-.03l1.45-.84Z" fill="#FDC33F"/><path d="m11.55 10.58.28 1.79a.08.08 0 0 1-.04.08l-2.6 1.81h-.02a.03.03 0 0 1-.02-.02l-.31-1.95c.02-.09.06-.14.11-.15.1-.02.18-.05.24-.1.58-.4 1.16-.83 1.74-1.25.19-.15.4-.28.62-.21Z" fill="#BD511E"/><path d="M12.12 12.42c-.14-.44-.25-.9-.36-1.34a4.92 4.92 0 0 1-.07-.59l.79 1.96a.07.07 0 0 1-.02.08l-2.78 1.94c-.08.05-.13.04-.18-.02v-.01c-.06-.06-.06-.12 0-.16l2.6-1.81a.04.04 0 0 0 .02-.05ZM12.02 10.5l1.22 1.1c.04.03.05.07 0 .1l-.13.14c-.03.04-.06.04-.1 0l-1.05-1.29v-.03a.03.03 0 0 1 .02-.03.03.03 0 0 1 .04 0ZM11.9 10.62l1.13 1.47v.03l-.27.19h-.01a.02.02 0 0 1-.01 0l-.93-1.67v-.02a.02.02 0 0 1 .01 0h.06a.02.02 0 0 1 .01 0ZM7.9 12.1h.02a.02.02 0 0 1 0 .02.02.02 0 0 1 0 .02L6.55 13.5h-.03l-2.84-2.14v-.02l.1-.15a.02.02 0 0 1 .03 0l2.6 1.91h.03l1.44-1a.02.02 0 0 1 .02 0Z" fill="#D8D9D9"/><path d="m8.7 11.98-.08.2v.06c0 .09 0 .16-.04.22v.06l-.05.23c-.16.63-.28 1.07-.36 1.32-.02.06-.06.08-.11.04l-.09-.06c-.06-.03-.08-.09-.06-.16.16-.6.34-1.22.54-1.83.02-.07-.04-.14-.18-.21.12-.08.26-.04.42.13Z" fill="#FDC33F"/><path d="m8.04 12.26-.92 1.57c-.03.05-.07.06-.12.02l-.17-.12c-.04-.03-.04-.07 0-.11l1.14-1.4.02-.01h.04l.01.02a.04.04 0 0 1 0 .03ZM7.97 12.9c-.06.2-.19.53-.38 1.02-.02.06-.06.08-.12.04l-.12-.07c-.05-.03-.07-.08-.03-.14l.64-1.15c.02-.04.04-.04.06 0 .04.1-.02.21-.05.3Z" fill="#D8D9D9"/></svg>