<!-- by TradingView --><svg width="18" height="18" viewBox="0 0 18 18" xmlns="http://www.w3.org/2000/svg"><path fill="#F0F3FA" d="M0 0h18v18H0z"/><path d="M15.14 6.5c.02.02.03.01.03-.02V6.2c0-.02 0-.03.02-.03h.55l.02.01v1.9c0 .02 0 .03-.03.03h-.55V7.8l-.02-.04-.58-.63a.85.85 0 0 0-.4-.23.05.05 0 0 1-.03-.03l-.46-.82v-.02a.04.04 0 0 1 .02-.03h.01c.52-.02 1.05.1 1.42.49ZM14.04 6.89l-.32.04h-.03l-.63-.77a.03.03 0 0 1-.01-.03V6.1h.02l.51-.1h.03l.45.83a.03.03 0 0 1 0 .03v.01l-.02.01ZM5.52 6.98a.01.01 0 0 0 0-.01l-.01-.01h-.68c-.02 0-.03-.01-.03-.03v-.9L4.81 6 4.82 6h2.5l.08.02 2.38 1.5c.03 0 .05.03.06.05l.33.72v.03h-.02v.01l-1.63-.28a.05.05 0 0 1-.03-.02.48.48 0 0 1-.06-.12c-.02-.09-.04-.09-.06 0l.02.08a.03.03 0 0 1 0 .03h-.02l-.68-.12h-.07a21.02 21.02 0 0 1-.02-.6c0-.28-.34-.4-.55-.33a.97.97 0 0 0-.31.23l-.6.56a.25.25 0 0 1-.11.04.59.59 0 0 0-.36.18h-.04l-.5-.52v-.08l.39-.4ZM9.18 6.01l.58 1.39a.02.02 0 0 1 0 .01h-.02l-2.2-1.38h-.01a.02.02 0 0 1 0-.03h1.64l.01.01ZM12.03 7h-.36c-.02 0-.03.02-.03.04v1.01l-.03.03-.16.1h-.02l-.6-.63a.12.12 0 0 1-.03-.08V7c0-.01 0-.02-.02-.02h-.43a.12.12 0 0 1-.08-.04.13.13 0 0 1-.04-.08v-.83l.01-.02H12.14l.01.01v.77c0 .01 0 .02.02.02.02-.01.04-.01.07 0l1.04.64h.01v.02c.12.4.38.47.7.64.19.1.18.13-.03.09l-2.06-.4c-.03 0-.04-.03-.04-.06.03-.25.1-.48.18-.7.01-.02 0-.03-.01-.03Z" fill="#003F96"/><path d="M12.23 6.7a1.56 1.56 0 0 1 .74-.54H13l.65.8a.03.03 0 0 1 0 .03.58.58 0 0 0-.32.38v.01a.02.02 0 0 1-.03 0l-1.05-.64c-.02-.01-.02-.02 0-.04ZM2.49 6.98H2L2 6.94v-.88c0-.02 0-.03.02-.03.06-.01.11 0 .16.03l1.8 1.17.01.04v.75l-1.45-.21-.02-.02v-.79c0-.02-.02-.03-.03-.03ZM3.97 7.17 2.32 6.05V6h1.61l.5.62.02.02v.32l-.01.01-.02.01H4.01a.02.02 0 0 0 0 .03v.13L4 7.16a.02.02 0 0 1-.03.01ZM4.06 6h.36l.03.03v.39s-.02.02-.03.01l-.37-.4V6ZM4.89 7.7v-.03l.18-.2h.03l.5.56v.03c0 .03-.02.04-.04.03l-.67-.4ZM10.82 8.04l-.02-.02V7.6h.01l.57.6c.02.04.02.08.01.1a.04.04 0 0 1-.02.03.04.04 0 0 1-.03 0l-.52-.3ZM5.51 8.27l-.99-.15-.01-.01a.02.02 0 0 1 0-.03l.32-.33h.02l.69.4.01.02-.01.09-.01.01h-.02ZM11.88 7.86l2.29.44c.06.01.1.07.1.13 0 .02-.02.03-.03.03l-2.19.22h-.02L12 8.66a1.97 1.97 0 0 1-.14-.8.02.02 0 0 1 .01 0ZM4.46 8.18l1.04.16h.01v.02l.05.21a.02.02 0 0 1 0 .02h-.01l-3.02.31a.02.02 0 0 1-.01 0v-1a.02.02 0 0 1 0-.01.02.02 0 0 1 .01 0l1.45.22h.01v.51l.02.01a.02.02 0 0 0 .02 0l.41-.44a.02.02 0 0 1 .02 0ZM8.39 9.08l-.77.11H7.6l-.01-.02v-1.2h.01l.78.12.01.01v.98h-.01ZM10.82 8.11l.5.29c.03.02.03.05.02.1 0 .02-.02.03-.04.03l-.47-.07-.02-.01v-.32l.01-.02ZM10.22 8.42l.17.37v.01l-.01.01-1.43.2h-.01l-.4-.86a.02.02 0 0 1 0-.02h.02l1.65.28h.01ZM10.85 8.52l.44.08.02.02a.04.04 0 0 1 0 .05h-.02l-.44.1a.03.03 0 0 1-.03-.02l-.01-.01v-.19a.04.04 0 0 1 0-.02.04.04 0 0 1 .04-.01ZM12.1 8.75l2.18-.22c.03 0 .04.02.04.04s-.02.03-.03.04l-1.8.68h-.04a.09.09 0 0 1-.05-.02 2.14 2.14 0 0 1-.33-.5l.01-.01h.01Z" fill="#003F96"/><path d="M15.2 11.6h.02v-.38c-.05-.41-.09-.78-.1-1.12-.03-.36-.08-.66-.1-1.03a5.87 5.87 0 0 0-.05-.3c.11-.18.27-.21.46-.1a1 1 0 0 1 .4.43c.25.52.2 1.21.01 1.74-.12.34-.31.66-.6.84-.11.08-.17.15-.33.2a2.93 2.93 0 0 1-.69.1l-.01-.02a.04.04 0 0 1 0-.03c.04-.22.12-.5.17-.79a.37.37 0 0 1 .07-.16l.09-.13a.69.69 0 0 0 .01-.54v-.04c.05-.16.1-.36.14-.62.05-.26.14-.53.17-.81 0-.03.01-.04.04-.05h.02c.01 0 .02 0 .02.02l.26 2.8ZM2.5 9.64l2.24-.74c.05.02.1.03.16 0a3.27 3.27 0 0 1 .52-.16c.05-.02.13 0 .16-.05l.01-.01a.04.04 0 0 1 .04 0h.01l.14.15v.04a23 23 0 0 0-.92.82l-.01-.01-.02-.02-.13-.29-.02-.02a.06.06 0 0 0-.05-.01h-.02c-.21.16-.4.3-.55.44a.24.24 0 0 0-.09.2 5.44 5.44 0 0 1-.01.53l-.03.02c-.14.05-.3.23-.43.34l-.3.28-.41.36c-.05.05-.12.11-.2.12h-.53c-.04 0-.06-.05-.06-.08v-.65c0-.02.01-.03.03-.03H2.51V9.64ZM13.45 9.8l.02.01.01-.01c.15-.18.32-.3.48-.45a11.94 11.94 0 0 1 .6-.52l.05.02c.02.01.02.02.01.04l-.57 1.1c-.01.02-.02.03-.04.02a13.19 13.19 0 0 1-.74-.23 2.4 2.4 0 0 1-.74-.4.05.05 0 0 1 0-.04l.02-.01c.13-.07.25-.08.38-.14.1-.05.34-.13.73-.27.1-.03.29-.1.55-.21.13-.06.18-.06.24.07v.03l-1.02.95c-.02.01-.02.02 0 .04h.02Z" fill="#B9E2F5"/><path d="m4.74 8.9-2.23.74v-.65s0-.02.02-.02l2.72-.28c.12-.01.12 0 0 .04l-.51.17ZM11.34 8.84l-.53.17a.46.46 0 0 1 0-.16l.03-.03.47-.06c.02 0 .03 0 .03.02v.06Z" fill="#003F96"/><path d="M14.7 8.9a3.39 3.39 0 0 0 .04-.08h.03l.01.03v.22a21.83 21.83 0 0 0-.29 1.19l-.37-.21c-.03-.02-.03-.04-.02-.08l.18-.32c.11-.21.27-.46.37-.7l.02-.02c.02 0 .03-.02.03-.03ZM10.81 9.01l.53-.17c.05.08.04.14-.02.19a3.34 3.34 0 0 0-.47.47c-.04.03-.05.03-.05-.03l.01-.46Z" fill="#B9E2F5"/><path d="m9.47 9.44-.23.08H9.2c-.02 0-.04 0-.04-.02l-.19-.4.01-.03 1.42-.2c.01 0 .02 0 .03.02l.09.2-.01.02-1.05.33Z" fill="#003F96"/><path d="M5.98 8.9v.01c-.04.1-.08.21-.14.3a21.47 21.47 0 0 0-.71 1.09l-.01-.01-.24-.53v-.02c0-.01 0-.02.02-.02l.06-.03.03-.03a10.58 10.58 0 0 1 .93-.77c.02 0 .04 0 .06.02ZM7.66 10.03l.76-.29V10.85c0 .02.01.03.03.03h.47c.05 0 .08.03.08.08v.58c0 .06-.04.09-.1.09H6.55v-.02l-.28-2.14s0-.01 0 0h-.03l-.01.01.27 2.12c0 .02-.01.02-.03.03H5.5l-.02-.03c.12-.45.21-.93.34-1.46l.2-.87v-.22l.02-.01a.04.04 0 0 1 .03 0c.04 0 .06.04.08.08a24.84 24.84 0 0 0 .1.26l.09.09.6 1.1c.08.14.14.21.2.24.1.04.45.03.46-.16a12.98 12.98 0 0 0 .02-.53.16.16 0 0 0 .04-.09ZM9.24 9.5l.23-.07c.1.01.19 0 .28-.03l.2-.07a27.15 27.15 0 0 0 .62-.15l.04.05.1.31v.04a9.57 9.57 0 0 1-.94.95l.01.02a.01.01 0 0 0 .01 0 .01.01 0 0 0 .01 0 999.34 999.34 0 0 1 1.54-1.47c.03-.03.06-.04.1-.02.03 0 .07.03.11.09v.03l-1.26 2.37v.02l.01.01h.03l.02-.01L11.6 9.2h.02c.02 0 .02 0 .02.02 0 .26-.01.49-.05.68a39.94 39.94 0 0 0-.29 1.71h-1.02c-.1.01-.12 0-.15-.08l-.9-1.9v-.13Z" fill="#B9E2F5"/><path d="m5.34 10.84-.14-.4a.16.16 0 0 1 0-.16l.73-1.12.02-.01c.04-.02.05 0 .04.06l-.32 1.3-.16.78-.08.3-.02.02-.02.02h-.55l-.02-.02-.02-.03v-.64l.02-.05a.06.06 0 0 1 .05-.02h.45c.03 0 .03 0 .02-.03Z" fill="#B9E2F5"/><path d="m8.37 9.8-.7.23c-.05.02-.07.02-.07-.02V9.3c0-.03.01-.04.03-.05l.76-.1a.02.02 0 0 1 .02 0 .02.02 0 0 1 .01.02v.6c0 .02-.02.03-.05.04Z" fill="#003F96"/><path d="M13.43 11.11h-.02l-.37.7-.03.03h-.04l-.3-.19a.03.03 0 0 0-.03 0 .03.03 0 0 0-.02.02l-.04.07c0 .02-.02.03-.04.03h-.5l-.02-.01V9.83h.52c.03 0 .05.01.05.05 0 .06.01.11.05.17.15.27.32.52.51.75a1.3 1.3 0 0 0 .5.3 1.48 1.48 0 0 0 .67.02.02.02 0 0 1 .01.03 48.76 48.76 0 0 1-.16.78c0 .05-.04.07-.09.07a3.5 3.5 0 0 1-1-.16v-.01l.37-.7v-.01h-.02ZM11.62 10.06l.03.08v1.41c0 .06-.04.09-.1.09h-.1c-.05 0-.08-.04-.07-.1a34.47 34.47 0 0 1 .17-1.05c.01-.15.04-.29.07-.43Z" fill="#B9E2F5"/><path d="m12.76 10.4-.67.6v.03l.01.02h.02l.67-.61v-.02l-.01-.02h-.02Z" fill="#fff"/><path d="M4.02 10.87h.49c.04 0 .06.03.06.07l-.01.24c-.01.14-.14.25-.2.37-.03.05-.07.08-.14.08H2.86c-.05 0-.06-.03-.02-.06l.54-.52c.08-.08.18-.12.25-.2a2.36 2.36 0 0 1 .33-.29v.26l.02.04.04.01ZM4.51 11.41l.02-.02.03.01v.02a.78.78 0 0 0 0 .19.02.02 0 0 1-.01.01H4.4c-.02 0-.02 0 0-.02l.11-.19Z" fill="#B9E2F5"/></svg>