<!-- by TradingView --><svg width="18" height="18" viewBox="0 0 18 18" xmlns="http://www.w3.org/2000/svg"><path fill="#F0F3FA" d="M0 0h18v18H0z"/><path d="M9.4 6.41a18.07 18.07 0 0 0-2.7 2 .03.03 0 0 1-.02-.02v-.02c.1-.32.24-.62.4-.9a8.02 8.02 0 0 1 2.06-2.3 6.38 6.38 0 0 1 2.17-1.07c.21-.06.51-.15.72-.07.3.11.44.33.42.66a.5.5 0 0 1-.27.42c-.18.1-.38.2-.61.28-.18.06-.54.22-1.1.46-.33.14-.69.33-1.07.56Z" fill="#E0DF13"/><path d="M5.52 9.51a3.11 3.11 0 0 1-.09-4.09c.1-.11.19-.19.27-.21a.6.6 0 0 1 .36-.01c.23.06.37.21.42.46 0 .04 0 .09-.03.14-.4.79-.66 1.6-.8 2.43a11.03 11.03 0 0 0-.13 1.28Z" fill="#8EC416"/><path d="M11.98 7.87c-.14-.02-.28-.06-.43-.06h-.53c-.23.01-.74.06-1.52.14l-.56.09c-.08 0-.08-.01-.02-.05a8.87 8.87 0 0 1 4.36-1.3 8.18 8.18 0 0 1 1.46.05c.19.05.33.38.22.55a.8.8 0 0 1-.23.2c-.53.36-1.12.52-1.78.48a7.97 7.97 0 0 1-.97-.1Z" fill="#FAB519"/><path d="m8.33 11.66-.02.01v2.3l-.01.01-.01.01-.02.01H7.04L7 13.99 7 13.97V9.04c.02 0 .02-.04.03-.04h1.22l.03.04c.01.01.03.02.03.04v2.31l.03.02c.13 0 .19 0 .29-.08l2.56-2.3a.13.13 0 0 1 .09-.03h.67c.06 0 .07.02.02.05L9.8 10.97c-.16.15-.28.2-.1.39.62.66 1.35 1.7 2.17 2.57a.3.3 0 0 1 .03.04c.02.02.01.03-.02.03h-1.32a.17.17 0 0 1-.12-.05l-1.85-2.27a.05.05 0 0 0-.04-.02h-.2ZM4.86 10.4c.14.11.33.26.4.43v.05l-.04.03a.29.29 0 0 1-.16.04 2.53 2.53 0 0 1-1.33-.47c-.2-.13-.88-.6-.7-.88.04-.06.1-.07.2-.04l.5.17c.4.12.78.39 1.13.67Z" fill="#25AB32"/></svg>