<!-- by TradingView --><svg width="18" height="18" viewBox="0 0 18 18" xmlns="http://www.w3.org/2000/svg"><path fill="#F0F3FA" d="M0 0h18v18H0z"/><path d="M10.71 8.74a.38.38 0 0 1 .68 0l1.21 2.03a.5.5 0 0 1 .07.24c0 .25-.2.49-.46.49H9.88c-.42 0-.68.49-.47.87l1.24 2.35a.51.51 0 0 0 .9 0l3.39-6c.17-.32-.05-.72-.4-.72H7.8c-.26 0-.45-.23-.46-.47a.5.5 0 0 1 .07-.27l1.37-2.64a.4.4 0 0 1 .7.01l1.3 2.72c.1.2.28.28.45.28.18 0 .35-.1.46-.28l1.25-2.55a.55.55 0 0 0 .07-.26c0-.28-.2-.54-.5-.54H5.46c-.27 0-.46.18-.46.5 0 .07.02.15.06.23l3.42 6.15c.14.28-.04.62-.34.62H5.79c-.27 0-.46-.23-.46-.49a.5.5 0 0 1 .07-.24l1.22-2.04C6.8 8.4 6.58 8 6.22 8H3.47c-.35 0-.57.4-.4.73l3.38 6a.51.51 0 0 0 .9 0l3.37-5.99Z" fill="#EB1C2E"/></svg>