<!-- by TradingView --><svg width="18" height="18" viewBox="0 0 18 18" fill="none" xmlns="http://www.w3.org/2000/svg">
<rect width="18" height="18" fill="#F0F3FA"/>
<path d="M11.7774 10C11.6545 10 11.5537 10.1102 11.5397 10.2503C11.2738 12.9003 9.09047 13.8548 8 14C11.0442 13.9359 11.9167 11.6264 11.9995 10.2621C12.0083 10.1169 11.9042 10 11.7774 10Z" fill="#FFB936"/>
<path d="M8.6875 9.6988C8.6875 10.3735 8.56358 10.8474 8.53125 11C8.6444 10.751 9 10.1422 9 9.6988C9 8.03614 7.49678 7 6.1875 7C5.26339 7 4.41338 7.8095 4.05463 8.26636C3.97737 8.36475 3.98427 8.50149 4.06136 8.6C4.12379 8.67977 4.21793 8.71761 4.3125 8.71429C4.38586 8.71171 4.45946 8.68437 4.51871 8.63262C4.89785 8.30147 5.54208 7.8 6.42993 7.8C7.83619 7.8 8.6875 8.85542 8.6875 9.6988Z" fill="#FFB936"/>
<path d="M13.6999 7.00511C12.5159 7.18414 12.0674 8.44575 12 9C12.5201 8.11411 13.3255 7.70245 13.7626 7.56146C13.9105 7.51377 14.0313 7.41533 13.9928 7.25163C13.9609 7.11646 13.8232 6.97068 13.6999 7.00511Z" fill="#FFB936"/>
<path d="M13.5316 4.0172C11.5537 4.66384 10.9733 6.93244 11.0009 8C11.498 6.09194 12.9285 4.98108 13.7503 4.56693C13.9115 4.48569 14.033 4.3837 13.992 4.2289C13.9483 4.06422 13.7178 3.95631 13.5316 4.0172Z" fill="#FFB936"/>
<path d="M5.29622 6.96936C5.85537 6.53537 6.68557 6.53075 7 6.65929C6.44312 5.67797 5.62256 5.98658 5.16945 6.34707C5.06846 6.42742 5.00199 6.52921 5.00002 6.70611C4.99762 6.92267 5.17196 7.06581 5.29622 6.96936Z" fill="#FFB936"/>
<path d="M6.91039 14C5.44516 14 4.35962 13.6249 4 13.4374L4.20072 13.1811C4.35962 13.2936 5.0086 13.5833 6.33333 13.5833C8.91756 13.5833 9.78261 10.2588 9.78261 8.93667C9.78261 8.06465 9.11828 6.46125 7.81362 5.67362C7.00892 5.18782 6.13386 4.83974 5.81967 4.50939C5.76784 4.45489 5.74706 4.39262 5.75 4.33185C5.75612 4.20531 5.86508 4.08529 6.01064 4.05553C8.24615 3.59857 11 6.02696 11 8.93667C11 12.0028 8.74194 14 6.91039 14Z" fill="#FFB936"/>
</svg>
