<!-- by TradingView --><svg width="18" height="18" viewBox="0 0 18 18" xmlns="http://www.w3.org/2000/svg"><path fill="#F0F3FA" d="M0 0h18v18H0z"/><path fill-rule="evenodd" d="M15.98 8.93 9.08 5h-.24L2 8.9v.15L8.93 13H9l6.99-3.99.01-.02a.05.05 0 0 0 0-.05l-.01-.01Zm-7 3.12L14.33 9l.01-.01a.04.04 0 0 0 0-.04l-.01-.01-5.35-3.05a.03.03 0 0 0-.03 0L3.6 8.94l-.01.01a.04.04 0 0 0 0 .04V9l5.36 3.05a.03.03 0 0 0 .03 0Zm.22-6.54c.02-.18-.06-.35-.24-.36-.18 0-.26.17-.24.36a1.41 1.41 0 0 1 .01.29h.02a2.57 2.57 0 0 1 .2-.1h.02a2.63 2.63 0 0 1 .2.1h.01v-.01c0-.08 0-.17.02-.28Zm-.6-.25a4.16 4.16 0 0 0-.57.36c.07.04.14.11.21.21.08.12.19.15.3.09.1-.06.15-.18.12-.32a.9.9 0 0 1-.03-.32c0-.02 0-.03-.02-.02Zm1 .17.28.15v.04a.73.73 0 0 0-.2.21c-.08.11-.18.14-.29.09-.1-.06-.15-.17-.12-.31a.88.88 0 0 0 .02-.31c0-.02 0-.03.03-.02l.28.15Zm-1.84.94a4.24 4.24 0 0 0 .55-.36.72.72 0 0 1-.2-.2c-.08-.1-.19-.14-.3-.08-.1.06-.13.18-.1.31.03.12.04.23.03.32 0 .01 0 .02.02.01Zm2.1-.16-.26-.16c-.01-.01-.02-.02 0-.03a.7.7 0 0 0 .2-.2c.07-.11.17-.14.28-.09.1.06.14.17.1.3a.85.85 0 0 0-.01.3c0 .02 0 .03-.03.02l-.27-.14ZM7.6 5.84a4.26 4.26 0 0 0-.57.35c.07.04.14.11.2.21.09.11.2.15.3.09.1-.06.15-.18.12-.32a.9.9 0 0 1-.02-.31c0-.02-.01-.03-.03-.02Zm2.98.15.28.17c.02.01.02.02 0 .03a.73.73 0 0 0-.2.21c-.08.11-.19.15-.3.09-.1-.06-.14-.18-.1-.31a.88.88 0 0 0 .02-.32c0-.02 0-.03.02-.02l.28.15Zm-3.83.95a3.94 3.94 0 0 0 .57-.35.74.74 0 0 1-.21-.2c-.08-.12-.18-.15-.29-.1-.1.07-.14.18-.11.32.02.12.03.22.02.31 0 .02 0 .03.02.02Zm4.11-.16-.27-.15c-.02-.02-.02-.03 0-.04a.71.71 0 0 0 .2-.2c.07-.11.18-.14.28-.09.1.06.14.17.11.3a.87.87 0 0 0-.02.31c0 .02 0 .03-.02.02l-.28-.15Zm-4.27-.37a4.03 4.03 0 0 0-.56.36c.07.04.14.1.21.2.08.11.19.14.29.08.1-.06.14-.17.11-.3a.88.88 0 0 1-.02-.32c0-.02-.01-.03-.03-.02Zm5 .15.28.17v.03a.73.73 0 0 0-.21.21c-.08.1-.18.14-.29.08-.1-.06-.14-.18-.11-.31a.89.89 0 0 0 .02-.32c0-.01.01-.02.03-.02l.28.16Zm0 .64a4 4 0 0 0 .58.29c0-.1 0-.2.02-.32.03-.13 0-.24-.11-.3-.1-.06-.2-.03-.28.08a.72.72 0 0 1-.2.21c-.02.01-.02.02 0 .04Zm-5.55.16-.28.15c-.02.01-.03 0-.03-.01.01-.1 0-.2-.02-.32-.04-.13 0-.25.1-.3.11-.07.22-.04.3.07.06.1.13.17.2.21.02 0 .02.02 0 .04l-.27.16Zm-.45-.38a4.16 4.16 0 0 0-.56.35c.07.05.14.12.2.21.08.12.19.15.3.09.1-.06.14-.18.11-.31A.9.9 0 0 1 5.62 7c0-.02 0-.03-.03-.02Zm7 .15.29.17v.03a.74.74 0 0 0-.21.21c-.08.12-.19.15-.3.09-.1-.06-.14-.18-.1-.32a.89.89 0 0 0 .02-.32c0-.01 0-.02.03-.01l.28.15Zm-7.83.95a4.45 4.45 0 0 0 .55-.35.72.72 0 0 1-.2-.2c-.08-.11-.18-.14-.29-.09-.1.06-.14.18-.11.31.03.12.03.22.02.31 0 .02.01.03.03.02Zm8.12-.16-.28-.15v-.04a.72.72 0 0 0 .2-.2c.08-.12.18-.15.28-.1.1.06.15.18.12.3a.88.88 0 0 0-.02.32c0 .02 0 .02-.02.02l-.28-.15Zm-8.63.2c.08.1.18.13.28.07.1-.06.15-.18.11-.3a.88.88 0 0 1-.02-.32c0-.02 0-.02-.03-.02a4.43 4.43 0 0 0-.55.36c.07.04.14.1.21.2Zm9.35-.42.28.16c.01.02.02.03 0 .04a.73.73 0 0 0-.2.21c-.08.11-.19.14-.29.08-.1-.05-.15-.17-.11-.3a.88.88 0 0 0 .02-.32c0-.01 0-.02.02-.02l.28.15Zm0 .63a3.95 3.95 0 0 0 .58.3c-.01-.1 0-.2.02-.31.04-.14 0-.25-.1-.31-.11-.06-.22-.03-.3.08a.71.71 0 0 1-.2.2v.04Zm-9.56.16-.27.16c-.02 0-.03 0-.03-.02.01-.09 0-.19-.03-.3-.03-.14 0-.25.11-.31.1-.06.2-.03.28.07.07.1.14.16.21.2v.04l-.27.16Zm-.45-.38a4.14 4.14 0 0 0-.56.38c.08.04.15.1.22.2.08.1.18.14.29.07.1-.06.14-.18.1-.31a.9.9 0 0 1-.02-.32c0-.01-.01-.02-.03-.02Zm11.02.16.28.17v.04a.73.73 0 0 0-.21.2c-.08.12-.19.15-.3.09-.1-.07-.14-.18-.1-.32a.9.9 0 0 0 .02-.32c0-.02 0-.02.03-.02l.28.16ZM3.3 9.02c-.04 0-.06-.02-.06-.04v-.03l.08-.05v-.04c-.04-.02-.08-.07-.12-.1-.06-.07-.11-.12-.16-.14a.34.34 0 0 0-.45.25c-.1.36.31.65.55.35a.86.86 0 0 1 .17-.16.03.03 0 0 0 0-.03H3.3Zm12.04-.05c0 .27-.23.44-.45.34a.5.5 0 0 1-.14-.12l-.14-.12c-.05-.03-.04-.04 0-.05.05-.01.08-.03.08-.06 0-.02-.03-.04-.07-.05-.05-.01-.05-.03-.01-.06l.14-.11a.5.5 0 0 1 .15-.12c.22-.09.44.09.44.35Zm.47 0v-.01l-.4-.22v.02l.02.2c0 .05 0 .12-.03.22 0 .01 0 .02.02.01a3.86 3.86 0 0 0 .39-.22Zm-13.32 0c0 .04 0 .11.03.21 0 .02 0 .02-.02.02a3.88 3.88 0 0 1-.39-.24l.4-.22v.02l-.02.21Zm1.11.76v-.06c0-.03 0-.07.02-.1a.6.6 0 0 0 .02-.21c-.03-.12-.1-.2-.24-.22l-.04.01a.9.9 0 0 0-.16.16c-.06.06-.1.09-.17.12l-.05.03v.02l.6.33c.01.01.02 0 .02-.01v-.07Zm11.02-.06-.28.16c-.02 0-.03 0-.03-.02a.9.9 0 0 0-.03-.32c-.04-.14 0-.25.1-.32.11-.06.22-.03.3.08.07.1.14.16.22.2v.04l-.28.18ZM4.29 9.6a4.16 4.16 0 0 0-.57-.29c.01.09 0 .2-.02.3-.03.14 0 .25.1.31.11.06.22.03.3-.08.06-.09.13-.16.2-.2V9.6Zm9.9-.29c-.03.07 0 .14 0 .22.04.12.06.25-.05.36-.19.17-.32-.02-.44-.19v-.01a.1.1 0 0 1 0-.12.39.39 0 0 1 .13-.1l.06-.03a1 1 0 0 1 .28-.15.02.02 0 0 1 .01.02Zm-10.17.76a4.05 4.05 0 0 0 .58.28c-.01-.09 0-.2.02-.3.03-.14-.01-.25-.12-.3-.1-.07-.2-.03-.28.07a.71.71 0 0 1-.2.21v.04Zm9.59.17-.28.15c-.02 0-.03 0-.03-.02a.9.9 0 0 0-.02-.32c-.03-.13.01-.25.12-.3.1-.07.2-.03.28.08.07.1.14.17.21.21.02 0 .01.02 0 .04l-.28.16Zm-.44-.39a4.07 4.07 0 0 0-.57.36c.07.04.14.12.21.21.08.11.19.15.3.08.1-.06.14-.17.1-.3a.9.9 0 0 1-.02-.33c0-.02 0-.02-.02-.02Zm-8.15.16.27.16v.04a.72.72 0 0 0-.2.2c-.08.11-.19.15-.3.09-.1-.06-.13-.18-.1-.31a.88.88 0 0 0 .02-.31c0-.02 0-.03.03-.02l.28.15Zm0 .63a4.1 4.1 0 0 0 .57.3c0-.1 0-.2.03-.32.03-.13-.01-.25-.12-.3-.1-.06-.2-.03-.28.08a.72.72 0 0 1-.2.2c-.02.01-.02.02 0 .04Zm7.6.17-.28.16c-.02 0-.03 0-.03-.02.01-.09 0-.2-.03-.31-.03-.13 0-.25.11-.3.1-.07.2-.04.28.07.07.1.14.16.21.2v.03l-.27.17Zm-.46-.38a4.4 4.4 0 0 0-.55.36c.07.04.14.1.2.2.09.11.2.14.3.08.1-.06.14-.17.1-.31a.89.89 0 0 1-.02-.32c0-.01 0-.02-.03-.01Zm-6.15.16.27.16c.02.01.02.02 0 .03a.71.71 0 0 0-.2.2c-.08.12-.18.15-.28.09-.1-.06-.15-.18-.12-.3a.87.87 0 0 0 .03-.32c0-.02 0-.02.02-.02l.28.16Zm0 .62a4.17 4.17 0 0 0 .59.3c-.01-.1 0-.2.02-.32.03-.13 0-.25-.11-.3-.1-.06-.21-.03-.29.08a.73.73 0 0 1-.2.2c-.02.01-.02.02 0 .04Zm5.6.17-.28.15c-.01 0-.02 0-.02-.02.01-.09 0-.2-.02-.3-.04-.14 0-.26.1-.31.11-.06.22-.03.3.08.06.1.13.16.2.2v.04l-.28.16Zm-4.32-.06a4.36 4.36 0 0 0-.57-.3c0 .09 0 .2-.03.31-.03.14 0 .25.11.31.1.06.21.03.29-.08.06-.1.13-.16.2-.2.02-.01.02-.02 0-.04Zm3.6-.16.27-.16c.02 0 .03 0 .03.02-.01.1 0 .2.03.32.03.13 0 .25-.11.3-.1.07-.21.04-.3-.07a.73.73 0 0 0-.2-.2c-.02-.01-.02-.02 0-.04l.27-.17Zm-3.87.62a3.99 3.99 0 0 0 .58.3c-.01-.1 0-.2.02-.32.03-.14 0-.25-.11-.3-.1-.06-.21-.03-.29.08a.73.73 0 0 1-.2.2c-.02.02-.01.03 0 .04Zm3.59.17-.27.16c-.02 0-.03 0-.03-.02 0-.09 0-.2-.03-.3-.03-.14 0-.26.1-.32.11-.06.22-.03.3.08.06.1.13.16.2.2.02.01.02.02 0 .04l-.27.16ZM8.3 11.9a4.03 4.03 0 0 0-.58-.3c.01.1 0 .2-.02.32-.04.14 0 .25.11.31.1.06.21.03.29-.08.06-.1.13-.17.2-.21.02-.01.01-.02 0-.04Zm1.58-.15.28-.16c.02 0 .03 0 .03.02-.01.09 0 .2.02.31.04.13 0 .25-.1.31s-.21.03-.3-.07a.72.72 0 0 0-.2-.2c-.02-.02-.02-.03 0-.04l.27-.17Zm-1.85.62a3.9 3.9 0 0 0 .59.3c-.02-.1-.01-.2.02-.32.03-.13-.01-.25-.12-.3-.1-.07-.21-.03-.29.08a.73.73 0 0 1-.2.2c-.02.02-.02.03 0 .04Zm1.58.18-.29.15c-.02 0-.02 0-.02-.02.01-.09 0-.2-.03-.31-.03-.14.01-.26.12-.31.1-.06.21-.03.29.08.06.1.13.17.2.2.02.02.02.03 0 .04l-.27.17Zm-.64-.28h-.02a2.92 2.92 0 0 1-.22-.1l-.01.3c-.02.18.06.35.24.34.19 0 .26-.17.24-.36a1.42 1.42 0 0 1-.02-.29.01.01 0 0 0-.02 0l-.2.1ZM6 8v2h.35v-.7l.2-.2.77.9h.5l-.97-1.15.92-.85h-.49l-.93.85V8H6Zm2.12 2V8H9.7v.33H8.47v.5h1.05v.34H8.47v.5h1.24V10H8.1Zm2.12 0V8h1.14a.6.6 0 0 1 .62.59.6.6 0 0 1-.62.58h-.8V10h-.34Zm1.14-1.67h-.8v.5h.8c.15 0 .27-.1.27-.25a.26.26 0 0 0-.27-.25Z" fill="#242423"/></svg>