<!-- by TradingView --><svg width="18" height="18" viewBox="0 0 18 18" xmlns="http://www.w3.org/2000/svg"><path fill="#3B455C" d="M0 0h18v18H0z"/><path d="M4 8.83a4.94 4.94 0 0 1 2.42-4.2 4.53 4.53 0 0 0-1.13 1.7l1.26-.95.35.76c-.93 1.17-.95 2.29-.93 3.06.03.77.96 3.07 3.06 2.98 2.11-.1 3.09-1.54 3.04-3.35a3.3 3.3 0 0 0-1.66-2.69c-1.58-.7-2.68.56-2.86-.76C7.4 4.3 8.48 4.02 9.03 4c3.92.34 4.95 3.1 4.97 4.43 0 3.08-1.6 4.44-2.22 4.54 1.48-1.52 1.55-2.92 1.4-3.42-1.05 3.84-3.82 4.18-5.08 3.87.14.26 1.6.25 2.3.2a6.7 6.7 0 0 1-1.68.38C6.48 13.95 4 11.72 4 8.83Z" fill="#fff"/></svg>