<!-- by TradingView --><svg width="18" height="18" viewBox="0 0 18 18" xmlns="http://www.w3.org/2000/svg"><path fill="#F0F3FA" d="M0 0h18v18H0z"/><path d="M5.19 8.08H4.05c-.02 0-.04-.01-.04-.04-.02-.67 0-1.28.06-1.83 0-.08.06-.14.17-.16.04 0 .06-.03.06-.07l.07-1.82c0-.05.03-.07.07-.06A82.19 82.19 0 0 0 13.63 4a.04.04 0 0 1 .01.03V6l.02.04c.02.02.04.02.05.02h.25c.03 0 .04.02.04.04v1.97h-1.16c-.04 0-.05.02 0 .04a7.39 7.39 0 0 0 1.15.51l.01.02V11.05l-.02.02h-.05l-.63-.24a.04.04 0 0 0-.03 0l-.01.02v1.21c0 .35-.04.65-.11.9-.15.5-.49.8-1.02.92-.4.08-.77.12-1.22.12H4.97c-.08 0-.11-.04-.11-.1v-3.1c0-.02 0-.02-.02-.02l-.79.2a.04.04 0 0 1-.03 0 .04.04 0 0 1-.02-.03V8.62l.01-.02.02-.02c.35-.11.65-.23.93-.34l.23-.14c.02-.02.01-.02 0-.02Z" fill="#201716"/><path d="M11.52 7.7h-.01v.01l-.01.02c.58.49 1.22.86 1.94 1.1.1.05.12.1.12.2a63.22 63.22 0 0 1 0 1.4l-.03.02a.06.06 0 0 1-.06 0l-.55-.27a.06.06 0 0 0-.05 0 .06.06 0 0 0-.03.05v1.9c.02 1.3-.96 1.48-2.2 1.48h-5.3c-.04 0-.06-.01-.06-.05v-3.41a.03.03 0 0 0-.02-.03h-.03l-.76.34a.05.05 0 0 1-.05 0l-.01-.02V8.96c0-.02 0-.05.02-.07A5.2 5.2 0 0 0 6.4 7.8c.07-.06.05-.09-.04-.09H4.45a.06.06 0 0 1-.05-.02.05.05 0 0 1-.01-.04l.04-1.1.02-.05a.08.08 0 0 1 .06-.02h3.43c.04 0 .06-.02.06-.06V5.9c0-.01 0-.03-.02-.04a.06.06 0 0 0-.04-.02H4.83l-.04-.01V4.56a.06.06 0 0 1 .01-.04.06.06 0 0 1 .04-.02 65.44 65.44 0 0 0 8.35-.06.05.05 0 0 1 .02.03v1.24c0 .02 0 .03-.02.04h-.03l-3.08.07c-.05 0-.08.03-.08.09v.5c0 .01 0 .03.02.04.01.02.03.02.05.02h3.43c.02 0 .03 0 .04.02l.02.04v1.12c0 .01 0 .02-.02.03a.06.06 0 0 1-.04.02h-1.98Z" fill="#D72829"/><path d="M10 8.95v-.87c0-.1.04-.1.1-.03l.34.39c.12.14.3.3.51.47.08.06.06.09-.04.09h-.85l-.04-.01a.04.04 0 0 1-.02-.04ZM8 8.02v.95a.02.02 0 0 1-.02.02L7.02 9A.02.02 0 0 1 7 8.98v-.01L7.98 8A.02.02 0 0 1 8 8ZM10.94 10H7.06c-.03 0-.06.03-.06.07v.86c0 .04.03.07.06.07h3.88c.03 0 .06-.03.06-.07v-.86c0-.04-.03-.07-.06-.07ZM10.93 12H7.07c-.04 0-.07.04-.07.08v.84c0 .04.03.08.07.08h3.86c.04 0 .07-.04.07-.08v-.84c0-.04-.03-.08-.07-.08Z" fill="#201716"/></svg>