<!-- by TradingView --><svg width="18" height="18" viewBox="0 0 18 18" xmlns="http://www.w3.org/2000/svg"><path fill="#F0F3FA" d="M0 0h18v18H0z"/><path fill-rule="evenodd" d="M4.31 12.73c-.01.02-.01.05.01.1l.1.08c.02.03.02.06-.02.08l-.03.02c-.03.02-.06.01-.08-.03a.33.33 0 0 0-.14-.13c-.03-.02-.04-.04 0-.06a.2.2 0 0 1 .07-.04c.02 0 .03-.01.04-.03v-.05a6 6 0 1 1 .23.25c0-.09-.04-.16-.12-.2H4.3Zm1.43-6.9c0-.07.03-.12.09-.16.02-.01.04 0 .05.02.01.04.02.08.01.13 0 .02-.01.04-.04.04l-.05.02c-.04 0-.06-.01-.06-.05Zm.8 3.37c-.11-.28-.16-.51-.16-.7l.03-.76c0-.08 0-.17-.03-.26a.73.73 0 0 1-.03-.27c.02-.11.04-.12.09-.01.04.12.11.25.2.4 0 .02.01.02.03.01l.02-.01c.03-.02.04-.04.02-.07a3.59 3.59 0 0 1-.31-.73l-.03.01c-.17.19-.37.3-.61.36l-.06-.01-.37-.21H5.3l-.34.2c-.02 0-.03 0-.04-.02V7.1c-.02-.03 0-.04.02-.05.05 0 .1-.03.12-.05a.05.05 0 0 0 .02-.05l-.01-.03c-.02-.02-.04-.02-.06-.01l-.36.2c-.09.05-.16.04-.22-.05a.75.75 0 0 1-.03-.05c-.05-.1-.02-.18.08-.23.27-.14.5-.28.67-.43a.12.12 0 0 0 .03-.05c.06-.2.22-.28.47-.24.03 0 .05 0 .05-.04 0-.01.01-.02.03-.02.02-.02.03 0 .03.02v.07c0 .03.01.04.04.04h.28c.04 0 .06-.02.06-.05v-.2c0-.02.01-.05.04-.06.06-.03.13 0 .2.09h.04c.09-.1.21-.15.37-.13.03 0 .04.02.04.05 0 .05-.03.11-.07.18h-.03c-.01 0-.02 0-.02-.02 0-.07-.02-.1-.07-.12-.04 0-.08 0-.11.05a.35.35 0 0 0-.06.3c0 .03.02.05.04.06a2.57 2.57 0 0 1 .96 1c.16.28.33.5.5.65.03.04.1.08.21.13.16.07.26.14.3.2.1.15.22.24.35.29.11.04.27.05.48.03.44-.04.85 0 1.24.1a1.68 1.68 0 0 0 .73-.04l.33-.07c.12 0 .22.01.3.05.07.03.15.05.25.06.33.03.63.13.9.3a.1.1 0 0 0 .08.01l.46-.09c.05 0 .08.01.08.06V9c0 .07-.04.11-.1.13a.7.7 0 0 1-.38-.01c-.02 0-.03 0-.03.02v.02l.01.01a1.03 1.03 0 0 0 .47.02v.02l-.02.01-.33.1a.03.03 0 0 0-.03.04v.02l.03.01c.08 0 .13.03.15.07.02.03 0 .04-.03.04h-.28c-.03 0-.04.02-.04.05 0 .03.02.06.06.07a.6.6 0 0 1 .09.04c.03.02.03.04 0 .04-.23.04-.45.04-.65 0a1.32 1.32 0 0 1-.43-.2c-.4-.26-.76-.4-1.06-.44-.03 0-.05 0-.07.02-.03.03-.03.05 0 .07l.3.24c.06.05.1.15.13.32.05.23.05.46.02.7-.01.11 0 .2.02.24.14.24.3.26.48.07a.11.11 0 0 1 .06-.03c.15-.03.23.02.25.17.03.2.05.55.08 1.03 0 .04.02.05.05.05h.03c.02 0 .02 0 .02-.02l-.02-.28c0-.02 0-.03.03-.04l.25-.06c.11-.04.2-.03.24 0 .1.08.11.2.07.34-.03.07-.06.08-.1.01l-.12-.21c0-.02-.03-.03-.05-.02h-.02c-.03.02-.04.04-.03.07l.1.32c.01.1-.03.14-.13.14h-.28c-.1 0-.16-.05-.18-.14-.07-.2-.11-.37-.14-.48a1 1 0 0 0-.14-.34.49.49 0 0 0-.28-.2h-.29a.81.81 0 0 1-.58-.2c-.25-.23-.4-.37-.42-.41-.03-.04-.06-.05-.1-.02-.13.08-.27.16-.45.24-.15.07-.32.1-.5.12-.46.03-.9.05-1.34.04-.17 0-.2-.06-.07-.18l.08-.07c.02-.02.02-.04 0-.05a.09.09 0 0 0-.06-.02c-.04 0-.08.01-.1.04l-.38.35a2.51 2.51 0 0 1-.53.37 3.3 3.3 0 0 0-.49.33 145.7 145.7 0 0 0-.6.52l-.41.08a.1.1 0 0 0-.06.04c-.14.17-.26.3-.37.36a.71.71 0 0 1-.49.1.04.04 0 0 1-.03-.02v-.04c.1-.11.27-.24.53-.37l.12-.06c.13-.07.25-.17.37-.3l.33-.38a.42.42 0 0 1 .15-.1c.05-.03.1-.05.12-.08l.49-.44c.12-.1.21-.21.28-.32l.2-.37c.01-.05.02-.09.01-.11a.09.09 0 0 0-.07-.07c-.03 0-.06 0-.08.03l-.12.17c-.02.02-.04.03-.07.02-.05-.01-.08-.05-.07-.1.03-.17.04-.29.04-.36 0-.03-.02-.04-.05-.04h-.03a.18.18 0 0 0-.07.12l-.08.4c0 .03-.02.04-.05.03-.2-.08-.3-.22-.28-.44 0-.08.03-.17.07-.27.04-.07.03-.15-.01-.25L6.2 9.3a.07.07 0 0 1 .01-.08.07.07 0 0 1 .08-.03l.22.03c.02 0 .03 0 .02-.02Zm1.58-1.9-.1-.16c0-.03 0-.04.03-.04h.13c.01 0 .02 0 .02-.02v-.02c0-.02 0-.04-.03-.04h-.26A.1.1 0 0 1 7.84 7a.32.32 0 0 1-.1-.13c0-.02 0-.04.02-.06l.04-.02c.03-.01.03-.03.02-.05-.01-.02-.03-.04-.05-.04a.66.66 0 0 1-.38-.2c-.05-.07-.17-.11-.36-.14-.03 0-.04 0-.02.03a.5.5 0 0 0 .37.25c.02 0 .04.02.06.04l.15.26a.2.2 0 0 0 .04.05l.12.09a.1.1 0 0 1 .03.05c.05.18.13.33.26.44l.2.24.08.13c.01.02.03.03.05.03h.33c.02 0 .03-.01.03-.03-.02-.06-.06-.1-.12-.12a.07.07 0 0 1-.05-.06c0-.03.01-.05.04-.05h.03c.03 0 .05-.01.04-.04a.17.17 0 0 0-.03-.07.06.06 0 0 0-.05-.03h-.27c-.04 0-.06-.02-.07-.06l-.01-.03c-.01-.04 0-.05.04-.06.07 0 .14 0 .19-.02.15-.03.14-.06 0-.08a1.2 1.2 0 0 0-.3 0c-.02 0-.04 0-.05-.03Zm-1.84 3.3c-.04.1-.02.2.04.22.06.02.14-.04.18-.14.04-.1.02-.2-.04-.22-.06-.03-.14.03-.18.13Zm3.39.3-.3.28a.06.06 0 0 1-.05.02l-.21-.03c-.02 0-.04 0-.05.02a.8.8 0 0 0-.11.37c0 .21-.05.38-.15.48-.15.15-.42.34-.81.58a.64.64 0 0 0-.2.21c-.05.09-.02.13.08.13h.08c.1 0 .17-.04.22-.12.06-.1.16-.2.3-.27a.99.99 0 0 0 .2-.16c.1-.1.18-.15.26-.18.14-.06.27-.13.4-.22a.1.1 0 0 0 .03-.08v-.47c0-.08.03-.15.08-.2l.3-.3c.02-.02.02-.04 0-.05l-.01-.02c-.02-.02-.04-.02-.06 0Zm-1.94.73c.03-.04.02-.06-.03-.05-.1.02-.17 0-.2-.05v-.04l.04-.01h.22c.03 0 .05-.02.06-.04l.04-.07c.01-.02.02-.02.04-.02s.03 0 .04.02l.02.02c.02.03.02.05 0 .08a.9.9 0 0 0-.16.26l-.1.32-.05.05c-.26.1-.46.17-.6.2a.69.69 0 0 1-.33-.02.07.07 0 0 1-.05-.05l-.03-.07c0-.03-.03-.04-.05-.03l-.1.02c-.04.01-.07 0-.1-.04a.09.09 0 0 1 .01-.1l.2-.26c.08-.1.12-.1.12.05V12c0 .04.02.07.04.1.03.02.06.03.1.03h.3c.03 0 .05-.01.07-.04l.12-.2a.1.1 0 0 1 .1-.06h.13c.02 0 .04-.01.05-.03l.1-.18Zm.08 1.51c0-.03-.02-.05-.05-.05l-.3.01c-.03 0-.04.02-.04.05 0 .06.02.1.05.13.04.04.09.05.14.05h.02c.05 0 .09-.02.13-.05a.17.17 0 0 0 .05-.13v-.01ZM6.17 6.16 6 6.33a.06.06 0 0 1-.04.02h-.2c-.04-.01-.1 0-.16.04l-.34.2c-.04.03-.03.05.02.05l.5-.01c.18-.02.3-.05.35-.11a.71.71 0 0 1 .24-.18c.02-.01.03-.03.02-.05a.36.36 0 0 0-.07-.13c-.05-.05-.1-.05-.15 0Zm-.58.07c0 .05-.04.1-.1.1-.06 0-.11-.04-.12-.1 0-.04.05-.08.1-.08.07 0 .12.03.12.08Zm1.05.53a.4.4 0 0 0-.1-.08c-.05-.02-.07-.06-.07-.1l.01-.14c.01-.05.03-.06.07-.04.2.13.28.31.24.56 0 .02-.02.03-.04.02-.07-.02-.1-.08-.09-.16 0-.02 0-.05-.02-.06ZM4.5 7c-.04-.02-.05-.08-.03-.13.03-.05.09-.07.13-.05.04.03.05.08.02.13-.03.05-.08.07-.12.05Zm2.41 1.1h.03c.02 0 .03.02.03.05v.63c0 .04.02.07.06.09a.1.1 0 0 0 .1 0l.29-.17a.12.12 0 0 0 .04-.05c.06-.1.15-.14.28-.12.03 0 .06.03.07.06 0 .04 0 .07-.03.1l-.37.33a.59.59 0 0 1-.28.16l-.28.07c-.03.02-.05 0-.05-.03.03-.35 0-.71-.1-1.09-.02-.06 0-.11.07-.14.02 0 .05 0 .06.02l.02.05.06.04Zm.18 1.47c.15-.01.3-.04.46-.1a.6.6 0 0 0 .22-.12c.08-.08.19-.15.32-.23.05-.03.1-.11.12-.24l-.01-.07a.33.33 0 0 0-.06-.04c-.02-.01-.04 0-.05.02-.1.18-.23.3-.36.35-.3.1-.48.19-.58.24-.05.02-.09.07-.1.15 0 .03.01.04.04.04Zm2.68-.44.67.01c.02 0 .03 0 .03.02v.18c0 .01-.01.02-.03.02l-.47-.07h-.01l-.2-.12v-.02l.01-.02Zm.55.42c-.2.18-.35.39-.43.6 0 .03-.02.04-.04.05a.63.63 0 0 1-.28.07.1.1 0 0 0-.07.02l-.26.21c-.14.15-.11.2.1.15.21-.05.39-.1.52-.16.2-.1.33-.22.36-.38.04-.16.1-.32.17-.46a.07.07 0 0 0 0-.06v-.03c-.02-.03-.04-.03-.07 0ZM7.5 10.61c-.23.17-.44.36-.62.54-.07.07-.14.13-.21.17-.04.02-.07.03-.1.02-.04-.01-.05-.03-.04-.06a.73.73 0 0 1 .32-.37c.12-.07.2-.14.25-.22a.66.66 0 0 1 .11-.14c.04-.04.1-.06.18-.07l.21-.03a.7.7 0 0 0 .2-.16h.05c.02 0 .03.01.03.04v.03a.35.35 0 0 1-.31.22.12.12 0 0 0-.07.03Zm4.7.38c-.03.03-.1.02-.14-.03-.03-.05-.03-.12 0-.15.05-.03.11-.01.15.03.04.05.04.12 0 .15Zm-3.01.85a.88.88 0 0 0-.04-.16c-.02-.04-.01-.06.02-.08l.05-.02c.02-.02.03-.01.03.02v.4c0 .02-.01.04-.04.04h-.03c-.01 0-.02-.01-.01-.02a.56.56 0 0 0 .02-.18Zm-3.43.12c-.04 0-.05-.08-.03-.15.03-.08.07-.13.11-.12.04.01.05.08.03.16-.02.07-.07.12-.11.11Zm1.76.08v.05c0 .03-.01.04-.04.05a.1.1 0 0 1-.06-.01c-.02-.02-.03-.03-.03-.06.02-.05.05-.07.1-.07.02 0 .03.02.03.04Z" fill="#2F3293"/></svg>