<!-- by TradingView --><svg width="18" height="18" viewBox="0 0 18 18" xmlns="http://www.w3.org/2000/svg"><path fill="#F0F3FA" d="M0 0h18v18H0z"/><path d="M5 8.33V6H4v6h1V9.82l.4-.53L6.9 12H8L5.94 8.58 7.88 6H6.67L5 8.33Z"/><path fill-rule="evenodd" d="M11.07 6c-.59 0-.96.11-1.07.22V12h1.73c.87 0 2.27-.35 2.27-1.73 0-.84-.84-1.26-1.27-1.36.36-.1.77-.43.77-1.37C13.5 6.22 12.15 6 11.07 6ZM11 7h.5c.55 0 1 .34 1 .76 0 .43-.45.77-1 .77H11V7Zm.94 2.48H11V11h.94c.58 0 1.06-.34 1.06-.76s-.48-.76-1.06-.76Z"/></svg>