<!-- by TradingView --><svg width="18" height="18" viewBox="0 0 18 18" xmlns="http://www.w3.org/2000/svg"><path fill="#F0F3FA" d="M0 0h18v18H0z"/><path d="M9.01 14.25a5.24 5.24 0 1 0-5.23-5.02c.51-.5 1.99-1.35 4.22-1.65V4.32l5.83 4.5L8 13.56v-3.7c-.74.09-2.49.57-2.49 1.81 0 1 .8 1.75 1.43 2.15.63.28 1.34.43 2.07.43Z" fill="#80827F"/><path d="M8.42 9.47c-1.45 0-3.28.8-3.28 2.32 0 1.18.99 2.05 1.54 2.38-1.13.01-3.4-.56-3.4-2.99 0-2.42 3.53-3.17 5.14-3.24V5.17l4.71 3.65-4.71 3.92V9.47Z" fill="#64BB46"/><path d="M15 9a6.01 6.01 0 0 1-7 5.92v-.39A5.63 5.63 0 1 0 9.01 3.37c-2.76 0-5.05 2-5.52 4.63H3a6.06 6.06 0 0 1 12 1Z" fill="#66BB43"/></svg>