<!-- by TradingView --><svg width="18" height="18" viewBox="0 0 18 18" xmlns="http://www.w3.org/2000/svg"><path fill="#F0F3FA" d="M0 0h18v18H0z"/><path d="M4 11.49v-3.6l1-.86 1 .85v3.54a.5.5 0 1 0 .24-.36V9.02L6.51 9A2.5 2.5 0 1 1 4 11.5v-.01ZM7.66 14h2.84v-2H9.15c-.12.49-.58 1.57-1.5 2Z" fill="#136AB1"/><path d="M4.01 6.3v1.2L5 6.61l1 .9v-.94c0-.31.1-.57.4-.57h5.18c.3 0 .42.26.42.57v4.87c0 .3-.12.56-.42.56H11v2h.82c1.2 0 2.18-1.07 2.18-2.34V6.29c0-1.26-.98-2.3-2.18-2.3H6.2A2.24 2.24 0 0 0 4 6.3Z" fill="#A7A6A7"/></svg>