<!-- by TradingView --><svg width="18" height="18" viewBox="0 0 18 18" xmlns="http://www.w3.org/2000/svg"><path fill="#F0F3FA" d="M0 0h18v18H0z"/><path d="M3 4.96c1.2.6 4.1 1.03 6-1.96a4.63 4.63 0 0 0 6 1.96c-2 2.29-4.84.64-6-.47-1.16 1.1-4 2.76-6 .47Z" fill="#E7A21F"/><path d="M7.42 7.33v1.8l-.63-.64v-.97c0-.41-.43-.73-.76-.74-.34-.01-.73.23-.73.66 0 .34.13.57.2.64l1.92 2.25v1a1.64 1.64 0 0 1-1.4 1.03c-1.04-.06-1.4-.98-1.44-1.43v-1.7l.63.77v.93c0 .22.31.7.82.7.5-.02.7-.43.71-.7a1 1 0 0 0-.16-.52L5.1 8.66c-.17-.15-.51-.58-.52-.96-.01-.5.22-1.58 1.53-1.58.99 0 1.28.83 1.31 1.21Z" fill="#18315F"/><path d="M7.25 6h3.4l-.48.67h-.54V9h.8l-.41.67h-.39v1.62l.95-.96v.94l-.95.97v.46H8.37v-.4l-.95-.96v-1l.95 1V9.67h-.44L7.46 9h.9V6.67H7.8L7.25 6Z" fill="#E7A21F"/><path d="M10.35 12.4V6.14l.65.66V9h1.34V6.8l.66-.65v6.24l-.66-.6V9.66H11v2.11l-.65.61Z" fill="#18315F"/><path d="M4.27 12.33h9.43l.59.67H3.72l.55-.67Z" fill="#E7A21F"/></svg>