<!-- by TradingView --><svg width="18" height="18" viewBox="0 0 18 18" xmlns="http://www.w3.org/2000/svg"><path fill="#F0F3FA" d="M0 0h18v18H0z"/><path d="M9.7 5.95v-.01l-.02-.01h-.02a8.32 8.32 0 0 0-1.03 1.39.09.09 0 0 1-.04.01H8.4l-.01-.02a.03.03 0 0 1 0-.03c.39-.66.74-1.17 1.22-1.69a.06.06 0 0 0 .01-.06 1.68 1.68 0 0 0-.36-.72l-.03-.01H9.2a7.08 7.08 0 0 0-2.35 2.48c-.02.03-.04.05-.08.05h-.16l-.02-.01-.01-.01a.03.03 0 0 1 0-.03 8 8 0 0 1 2.34-2.7v-.02c-1.49-.48-3.2 1.56-3.88 2.72-.02.03-.04.06-.08.05H4.8c-.03 0-.04-.02-.02-.05.3-.53.63-1.02 1.01-1.47.86-1.02 2.48-2.32 3.83-1.6h.04c.53-.21 1.06-.3 1.6-.09l.18.09h.04c.34-.14.63-.2.87-.2 1.72-.05 2.02 1.88 1.78 3.3l-.01.01-.03.01h-.85l-.02-.03v-.01c.25-1.13.2-2.98-1.39-2.8v.01l-.01.01a.03.03 0 0 0 0 .03c.62.72.63 1.85.5 2.76l-.01.03h-.88l-.03-.04c.2-.79.23-1.87-.33-2.49l-.02-.01H11l-.6.42-.01.02v.03c.2.64.2 1.38.1 2.05 0 .03-.03.02-.05.02H9.6c-.02 0-.03 0-.02-.03.09-.45.13-.91.1-1.35Zm1.04-1.35v-.02A1.45 1.45 0 0 0 10 4.5v.01a.03.03 0 0 0 0 .03c.1.12.19.25.25.39.01.02.03.02.04 0l.45-.33ZM8.96 13.37c-.02.04-.01.05.02.04 1.27-.38 2.3-1.53 3.02-2.72l.05-.02h1l.02.04c-.4.72-.87 1.36-1.4 1.91-.8.82-2.1 1.71-3.23 1.26l-.18-.1-.05.01c-.56.25-1.19.3-1.74 0a.07.07 0 0 0-.05 0 .75.75 0 0 0-.1.04c-1.01.4-2.04.13-2.45-1.06a4.6 4.6 0 0 1-.13-2.05c0-.03.02-.05.05-.05H3.86l.02.02v.04a4.2 4.2 0 0 0-.07.92c0 .52.1 1.08.44 1.43.45.48 1.06.38 1.6.15l.02-.01a.03.03 0 0 0 0-.02v-.01a4 4 0 0 1-.32-2.48c0-.02.02-.04.04-.04h.1v.02a.03.03 0 0 1 .01.03c-.15.78-.16 1.75.35 2.36.02.02.04.03.07.01a5.55 5.55 0 0 0 1.22-1.04 5.34 5.34 0 0 1 .04-1.37h.1c.03 0 .04.01.03.04a4.82 4.82 0 0 0-.05 1.22 10.06 10.06 0 0 0 .95-1.27h1.03a.02.02 0 0 1 0 .03 8.82 8.82 0 0 1-1.68 2.2c-.02 0-.02.02 0 .04l.12.15a7.09 7.09 0 0 0 2.35-2.42h1s.03.03.02.04c-.44.81-.99 1.53-1.65 2.15a4.67 4.67 0 0 1-.64.51Zm-1.83.04.53-.17.02-.04a.25.25 0 0 0-.07-.14h-.03c-.3.22-.46.33-.45.35Z" fill="#E3BC00"/><path fill="#E51A29" fill-opacity=".6" d="M3 8h12v2H3z"/></svg>