<!-- by TradingView --><svg width="18" height="18" viewBox="0 0 18 18" xmlns="http://www.w3.org/2000/svg"><path fill="#F0F3FA" d="M0 0h18v18H0z"/><path fill-rule="evenodd" d="M15 9A6 6 0 1 1 3 9a6 6 0 0 1 12 0Zm-.23 0A5.77 5.77 0 1 1 3.22 9a5.77 5.77 0 0 1 11.55 0Zm-9.8 3c-.06-.03-.08-.07-.05-.13.4-.86.73-1.68.97-2.47a73.12 73.12 0 0 0 1.37-5.24c-.03-.09-.09-.11-.17-.08A5.32 5.32 0 0 0 3.75 9.5a5.29 5.29 0 0 0 9.72 2.3c.09-.14.04-.2-.14-.2a.25.25 0 0 0-.12.05 4.5 4.5 0 0 1-1.87.76c-.84.1-1.62-.12-2.33-.68-1.6-1.26-1.77-3.24-.23-4.63.36-.33.74-.55 1.14-.65.52-.14 1.1.03 1.55.3.84.48 1.01 1.6.36 2.29-.48.5-1.43.23-1.9-.14-.37-.3-.32-.6-.25-1a12.14 12.14 0 0 0 .02-.22.09.09 0 0 0-.05-.04.17.17 0 0 0-.07 0 .1.1 0 0 0-.1.05c-.26.73-.17 1.33.3 1.81.4.43 1.07.53 1.72.58 1.64.11 2.29-1.67 2.4-2.94 0-.06 0-.13-.03-.19a5.2 5.2 0 0 0-3.99-3.13.1.1 0 0 0-.04.06l-.57 2.55c-.01.04-.03.08-.07.1-1.59.95-2.25 2.85-1.17 4.46.02.03.03.07.02.1-.08.34-.2.64-.38.9-.08.13-.21.19-.36.21-.8.14-1.58.07-2.35-.2Z" fill="#006BB6"/></svg>