<!-- by TradingView --><svg width="18" height="18" viewBox="0 0 18 18" xmlns="http://www.w3.org/2000/svg"><path fill="#F0F3FA" d="M0 0h18v18H0z"/><path d="M6.86 8.3c-.04.03-.05.02-.04-.04l1.07-4.15.01-.02h.02a6.85 6.85 0 0 1 5.16 1.25l-.01.02h-.02c-2.29.5-4.35 1.48-6.19 2.94ZM5.2 5.2 3.69 11.2v.02l-.02.01h-.02l-.02-.02C2.3 8.98 3.22 6.5 5.16 5.16c.04-.03.06-.02.05.03Z" fill="#046FB1"/><path d="M7.2 13.78c-.1-.03-.1-.05 0-.07 1.42-.31 2.79-.75 4.12-1.3.84-.36 1.65-.81 2.4-1.35.35-.24.69-.52.87-.87.16-.3-.06-.57-.32-.68a4.4 4.4 0 0 0-1.88-.21c-.9.05-1.75.07-2.53.06-.52 0-1.69-.08-.97-1.04.27-.35.66-.7 1.17-1.03a11.58 11.58 0 0 1 3.5-1.51c.06.03.12.07.17.13 2.14 2.35 1.44 5.48-1.1 7.07a7.02 7.02 0 0 1-5.42.8Z" fill="#20A538"/><path d="M6.57 13.58a8.77 8.77 0 0 1-.98-.48v-.05l.54-2.12c0-.02.02-.03.05-.03.35.09.7.12 1.03.12l2.21-.05c.3 0 1.71-.05 1.7.41-.03.53-1.18 1.05-1.57 1.2-.84.35-1.76.68-2.77 1.01a.3.3 0 0 1-.21-.01Z" fill="#0260A2"/></svg>