<!-- by TradingView --><svg width="18" height="18" viewBox="0 0 18 18" xmlns="http://www.w3.org/2000/svg"><path fill="#F0F3FA" d="M0 0h18v18H0z"/><path fill-rule="evenodd" d="M4 6.3A2.3 2.3 0 0 1 6.3 4h5.4A2.3 2.3 0 0 1 14 6.3v5.4a2.3 2.3 0 0 1-2.3 2.3H6.3A2.3 2.3 0 0 1 4 11.7V6.3Zm8.06 1.21a5.66 5.66 0 0 0 .02.39l.04.1a.3.3 0 0 1 .02.17v.07l.17.34.02.04a.6.6 0 0 1 .04.1l.05.1c.1.08.18.17.24.26l.11.26c.06.13.13.26.22.38v.03l-.01.03a13.64 13.64 0 0 1-.36.2c-.04 0-.04-.02-.02-.04l.01-.01c.14-.14.23-.24.09-.42l-.07-.1-.1-.14-.22-.2a.9.9 0 0 1-.16-.18 7.32 7.32 0 0 0-.32-.38c-.04 0-.1.05-.12.08-.1.13-.22.26-.37.39-.04.04-.06.1-.06.15v.8c0 .07-.1.07-.15.07h-.02a47.12 47.12 0 0 1-.48-.02l.03-.12v-.08a.53.53 0 0 1 .09-.17l.18-.3a.5.5 0 0 0 .07-.23.9.9 0 0 1 .02-.13c0-.03.03-.06.06-.09a9.54 9.54 0 0 1 .53-.75.2.2 0 0 0 .04-.11v-.36c0-.03-.02-.05-.03-.06l-.02-.02-.03.01c-.1.12-.18.2-.34.26-.08.02-.07.08-.07.13l-.01.09a71.34 71.34 0 0 1-.37.62c-.08.2-.14.4-.2.61l-.01.09c-.05.2-.1.43-.36.48a.4.4 0 0 1-.33-.07.27.27 0 0 1-.09-.13l-.16-.4c-.05-.12-.08-.26-.11-.4a4.16 4.16 0 0 0-.06-.25 2.72 2.72 0 0 0-.23-.42c-.03-.04-.07-.09-.07-.15a12.34 12.34 0 0 1 .02-.26c.15.08.3.16.44.21.07.03.12.07.18.11l.11.08c.05.02.1.03.15.02.03-.01.04-.05.02-.08a.19.19 0 0 1-.05-.1.06.06 0 0 0-.05-.04.72.72 0 0 1-.26-.11c-.12-.1-.23-.17-.33-.24a.98.98 0 0 1-.17-.15v-.01c.07-.08.12-.14.03-.23l-.17-.18a.24.24 0 0 1-.05-.18l.02-.01h.06c.05 0 .09-.07.11-.12a.5.5 0 0 1 .02-.04v-.12a.26.26 0 0 0 .03-.12c0-.04-.02-.05-.05-.07l-.02-.01a.34.34 0 0 0-.25-.08c-.18.02-.24.17-.27.32l-.01.14c0 .08-.02.16-.04.24-.07.26-.26.47-.44.68L8 7.91a.11.11 0 0 0-.03.07S7.98 8 8 8h.6s.02.02.01.03a.4.4 0 0 0-.04.16l.01.12.02.1a.5.5 0 0 1-.07.39c-.03.05-.07.06-.13.06h-.97a.1.1 0 0 0-.05 0 37.51 37.51 0 0 0-.76 1.08.11.11 0 0 1-.1.06h-1.5C5 10 5 9.99 5.02 9.97L8 6.3c.15-.2.53-.3.77-.3a1181.56 1181.56 0 0 1 2.51 0v.15l-.02.02c-.12.05-.24.1-.22.24l.01.04c.01.02.03.05.01.08-.02.04-.03.08 0 .12l.03.14.02.03h.04l.1-.01c.02 0 .03 0 .03.02l-.03.08a.2.2 0 0 1-.05.07c-.07.08-.1.12-.12.2-.02.07-.05.13-.09.19l-.02.05-.02.05c-.02.04-.04.1-.07.12-.12.07-.23.16-.33.26-.06.06-.17.08-.27.1l-.08.01a.03.03 0 0 0-.02.03c0 .04-.01.09-.05.12-.01.02-.02.05 0 .08 0 .02.01.02.02.02h.2c.04-.01.12-.08.2-.14l.12-.1a3.06 3.06 0 0 0 .59-.36c.07-.04.12-.12.16-.19l.04-.06.09-.16a.68.68 0 0 1 .1-.17c.07-.07.1-.13.1-.22l-.01-.02a.05.05 0 0 0-.05-.02l-.09.01h-.02l-.01-.02a.52.52 0 0 1-.02-.13v-.1c0-.05 0-.1-.03-.15v-.02a.3.3 0 0 1 .1-.12c.12-.07.27-.02.35.07.09.09.05.21 0 .32-.04.1-.06.18.01.27l.08.08.3.42c.05.08.1.2.14.32l.08.29.05.13a.6.6 0 0 1 .05.14c0 .04 0 .06-.05.06l-.02-.01c0-.05-.01-.07-.06-.07l-.02-.01-.01-.09a.74.74 0 0 0-.07-.22 4.12 4.12 0 0 1-.11-.25.53.53 0 0 0-.12-.16 1.46 1.46 0 0 1-.04-.05c-.08-.09-.12-.08-.12.02ZM9.62 10l-.02-.04-.02-.09a.27.27 0 0 0-.03-.08 2.2 2.2 0 0 1-.3-.61.93.93 0 0 0-.09-.22c-.06-.1-.1-.18-.15-.24l-.04-.07a.77.77 0 0 0-.04-.07.02.02 0 0 0-.02 0v.01l-.03.09c-.02.05-.03.1-.06.14a.7.7 0 0 0-.13.33v.77c0 .06.04.09.1.09h.81l.02-.01Z" fill="url(#a)"/><path fill="#F0F3FA" fill-opacity=".5" d="M5 11h8v1H5z"/><defs><linearGradient id="a" x1="9" y1="4" x2="9" y2="13.97" gradientUnits="userSpaceOnUse"><stop stop-color="#D71718"/><stop offset="1" stop-color="#BA1B21"/></linearGradient></defs></svg>