<!-- by TradingView --><svg width="18" height="18" viewBox="0 0 18 18" xmlns="http://www.w3.org/2000/svg"><path fill="#F0F3FA" d="M0 0h18v18H0z"/><path d="M7.3 14.35c-2.44-2.38-2.87-6.47-2.77-8.22.9-.14 3.05-.63 4.45-1.5.74.4 2.67 1.26 4.42 1.5 0 4.98-1.96 7.47-2.63 8.22 2.96-2.44 3.37-6.92 3.2-8.85a16.51 16.51 0 0 1-5-1.5A15.69 15.69 0 0 1 4 5.5c-.06 5.43 1.7 7.49 3.3 8.85Z" fill="#183A5D"/><path fill-rule="evenodd" d="M9.12 5.8h.16v4.8l.08.1c.58 0 1.15-.01 1.64-.04v-.13a2.9 2.9 0 0 0-1-.27c-.2.01-.17.21-.15.35v.04c-.55-.59-.8-2.1 1.15-3.68v-.26h.15v3.72l.14.2c.4-.03.73-.08.92-.14-.2.15-.64.54-.72.9 0 0-.03.03-.08.03-.04 0-.07-.02-.1-.04l-.07-.03-.04-.02c-.11-.07-.43-.25-1.02-.25-.54 0-.93.13-1.18.24H6.76L5.38 9.83l.02.01c-.18-.53-.05-1.71 1.85-2.41v-.1h.15v.57c.33-.55.87-1.14 1.72-1.74v-.37Zm2.03 4.8v.05h.07a2.49 2.49 0 0 0-.07-.04Zm-.15-.42V7c-.78 1-.66 2.03 0 3.18Zm-1.88.17V6.3a4.39 4.39 0 0 0 0 4.06Zm0 .36v-.13a4 4 0 0 0-1.42-.43c-.26.01-.23.26-.2.43v.05a1.65 1.65 0 0 1-.1-.13v.1c.02 0 .04.03.06.04v.05a6.21 6.21 0 0 0-.06-.04v.06h1.72Zm.16-.05v.05h.07a1.6 1.6 0 0 0-.07-.05Zm-2.03.04h-.56c-.36-.32-.96-.7-1.26-.85.23-.02.88.1 1.82.7v.15Zm0-.27c-.72-.87-.38-2.09 0-2.8v.57a2.26 2.26 0 0 0 0 2.06v.17Z" fill="#C2A176"/><path d="M7.37 11.7c-1.3 0-1.59-.78-1.57-1.16-.13.93.71 1.56 1.6 1.56.9 0 2.02-.47 3.04-.52.82-.04 1.23.25 1.34.4-.1-.28-.56-.84-1.52-.84-1.2 0-1.27.56-2.89.56Z" fill="#183A5D"/><path d="M10.67 11.81c-.67-.02-1.69.3-2.11.46a9.24 9.24 0 0 1 2.01-.31c.58.02 1.03.38 1.18.56-.08-.23-.4-.69-1.08-.7Z" fill="#183A5D"/><path opacity=".7" d="M8 14h2v1H8v-1Z" fill="#183A5D"/></svg>