<!-- by TradingView --><svg width="18" height="18" viewBox="0 0 18 18" xmlns="http://www.w3.org/2000/svg"><path fill="#F0F3FA" d="M0 0h18v18H0z"/><path fill-rule="evenodd" d="M4.1 7h.67l.08.01c.03.03.02.08.01.12v.01l-.08.49-.07.37v.03c0 .03-.02.07-.01.09.01.03.06-.03.09-.06.29-.36.58-.71.89-1.04C5.7 7 5.72 7 5.74 7h.81c.04 0 .07.06.07.06s-.72.83-1 1.18a.1.1 0 0 0-.01.11C5.88 8.93 7.59 13 7.59 13s3.2-1.5 4.3-1.49a7.52 7.52 0 0 1 2.25.34c.05 0 .1-.04.15-.07a3.98 3.98 0 0 0 1.56-1.82c.12-.35.17-.72.14-1.08C15.67 5.86 11.37 5 8.97 5c-.3 0-.59.01-.87.03-2.3.13-5.88 1.22-6.1 3.93-.07 1.4 1.06 2.5 2.22 3.11a8.54 8.54 0 0 0 2.32.84S4.92 8.96 4.73 8.56l-.02-.03c-.01-.04-.03-.09-.06-.09l-.03.12c-.03.1-.08.5-.12.84l-.07.48v.02c0 .04-.01.09-.04.1H3.55c-.06-.02-.04-.11-.03-.18l.01-.03.19-1.2c.07-.53.15-1.06.23-1.52C3.97 7 4.03 7 4.1 7Zm6.64.75h.84c.04 0 .08.02.05.07l-1.47 1.92L10 10h2.44c.02 0 .02-.02.02-.04l.07-.66c0-.02 0-.05-.02-.05h-1.12c-.03 0-.04-.02-.02-.05l1.6-2.08a.3.3 0 0 0 .03-.08V7a.32.32 0 0 0-.1-.01h-2.06l-.03.02-.08.68.01.05Zm2.27 2.24L13 9.95l.42-2.9v-.03h.01c0-.01 0-.02.02-.02h1.53v.02l.02.03-.08.66c0 .02-.01.05-.03.05l-.86-.01-.06.38h.78l.02.01v.04l-.08.63h-.81l-.08.41.01.03h.83l.01.02.01.03-.09.67-.01.03H13ZM9.69 8.86l.12-.67.13-.73.05-.35a.3.3 0 0 0 .01-.05C10 7 9.99 7 9.95 7h-.67c-.05 0-.09 0-.1.06l-.06.24-.14.78-.07.41-.01.11c-.03.17-.06.35-.16.48s-.27.17-.44.17c-.22 0-.47-.12-.43-.38.03-.27.08-.53.12-.8l.07-.41.07-.44V7.2l.01-.03c.01-.05.02-.12-.01-.14A.25.25 0 0 0 8 7H7.6c-.09 0-.25 0-.27.03a.3.3 0 0 0-.02.1l-.1.61-.07.4A8.68 8.68 0 0 0 7 9.16c.06.57.5.79 1.03.84.8.08 1.51-.31 1.66-1.13Z" fill="#E20012"/></svg>