<!-- by TradingView --><svg width="18" height="18" viewBox="0 0 18 18" xmlns="http://www.w3.org/2000/svg"><path fill="#F0F3FA" d="M0 0h18v18H0z"/><path d="M5.16 8.87a1736.56 1736.56 0 0 0 1.77 2.06.06.06 0 0 1-.03.06l-.03.01H5.63a.05.05 0 0 1-.05-.02c0-.01-1.48-1.6-1.58-1.73v1.7c0 .02-.02.05-.05.05h-.89c-.02 0-.03 0-.04-.02a.06.06 0 0 1-.02-.04V7.06c0-.02 0-.03.02-.04A.06.06 0 0 1 3.06 7h.89c.03 0 .05.02.05.06v1.58A168.4 168.4 0 0 1 5.32 7h1.1a.06.06 0 0 1 .04.03.06.06 0 0 1 0 .06l-1.3 1.78ZM15.94 11h-1.27a.06.06 0 0 1-.04-.02L13 9.25v1.7c0 .02-.01.05-.05.05h-.9s-.02 0-.03-.02a.06.06 0 0 1-.02-.04V7.06c0-.02 0-.03.02-.04a.06.06 0 0 1 .04-.02h.9c.02 0 .04.02.04.06v1.58l1.2-1.48.11-.14.02-.02H15.5l.02.03a.05.05 0 0 1 0 .06l-1.33 1.78a1753.02 1753.02 0 0 0 1.8 2.06v.04l-.02.02-.03.01Zm-4.8-4H10a210.37 210.37 0 0 1-1 2.21l-.86-1.9A74.67 74.67 0 0 0 8 7L7.96 7H6.84l-.03.03a.05.05 0 0 0 0 .05l.91 1.83 1.02 2.06.03.02.03.01h.4l.03-.01.03-.02.97-1.95.96-1.94a.05.05 0 0 0 0-.05L11.16 7 11.13 7Z" fill="#DA2128"/></svg>