<!-- by TradingView --><svg width="18" height="18" viewBox="0 0 18 18" xmlns="http://www.w3.org/2000/svg"><path fill="#F0F3FA" d="M0 0h18v18H0z"/><path d="M12.7 3.28c.3.28.38.73.23 1.06-.05.13-.23.32-.52.6l-3.87 3.6a.14.14 0 0 1-.1.03 127.95 127.95 0 0 1-1.43-.01V7.23c0-.04 0-.06.03-.09l3.88-3.6c.29-.27.5-.43.64-.48.36-.13.84-.05 1.13.22Z" fill="#EE1D23"/><path d="M6 9h1c.05 0 .08.01.11.04l2.87 2.23c.03.02.03.04 0 .06l-1.15 1-.04.01h-.03l-2.44-1.8c-.07-.06-.2-.03-.32 0V12H4.06c-.04 0-.06.03-.06 0V7c-.03 0 0-.03 0 0h2v2c0 .02-.01 0 0 0Z" fill="#231F20"/><path d="M11 7h1.95l.04.01.01.03v5.85l-.01.02-2.5 2.08a.05.05 0 0 1-.04.01h-.02l-.01-.01-1.4-1.17-.02-.01a.03.03 0 0 1 0-.03l.01-.01L11 12.19v-.01l.01-.02V7Z" fill="#231F20"/></svg>