<!-- by TradingView --><svg width="18" height="18" viewBox="0 0 18 18" xmlns="http://www.w3.org/2000/svg"><path fill="#F0F3FA" d="M0 0h18v18H0z"/><path d="M5.74 5c1.06.05 1.83.63 2.32 1.5.41.73.94 1.67 1.94 1.76.55.04 1.06-.1 1.52-.4.28-.2.48-.36.73-.6.26-.25.48-.39.8-.49.44-.13.98-.07 1.34.19.38.27.59.65.61 1.12v.16c-.03.42-.16.8-.37 1.17a5.2 5.2 0 0 1-2.1 2.02 8.1 8.1 0 0 1-2.82.85 7.46 7.46 0 0 0 .38 1.72H8.23l.16-.55a8.05 8.05 0 0 0 .2-1.13 7.15 7.15 0 0 1-2.67-.58l-.4-.18a5.42 5.42 0 0 1-1.47-1.17A4.05 4.05 0 0 1 3 7.47a2.55 2.55 0 0 1 2.13-2.43L5.45 5h.3Zm.82 2.54c0-.24-.1-.47-.28-.64a1 1 0 0 0-.69-.26 1 1 0 0 0-.68.26.88.88 0 0 0-.28.64c0 .25.1.48.28.65a1 1 0 0 0 .68.26 1 1 0 0 0 .69-.26c.18-.17.28-.4.28-.65Z" fill="#6BB340"/></svg>