<!-- by TradingView --><svg width="18" height="18" viewBox="0 0 18 18" xmlns="http://www.w3.org/2000/svg"><path fill="#F0F3FA" d="M0 0h18v18H0z"/><path d="M8.69 8.27C6.83 5.4 5 5.02 4.32 5.18c1.9-.77 4.33 1.08 5.3 2.1l-.93.99Z" fill="url(#aai5mq1e5)"/><path d="m10.7 8.58-.9 1.07c.6.74 2.11 2.04 3.45 1.4-.86-.12-2.06-1.7-2.56-2.47Z" fill="url(#bai5mq1e5)"/><path d="M14.78 8.82c0-2.16-1.36-2.72-2.04-2.73 1.09-.03 3.26.46 3.26 2.73 0 2.43-2.12 2.82-3.18 2.7.65 0 1.96-.54 1.96-2.7Z" fill="url(#cai5mq1e5)"/><path d="m9.35 9.9-.91-1.04c.1-.1.56-.5 1.73-1.67 1.16-1.17 2.56-1.06 3.1-.8-1 .1-3.04 2.38-3.92 3.5Z" fill="url(#dai5mq1e5)"/><path d="M3.17 9.4c0-1.75 1.2-2.45 1.79-2.58C4.7 6.82 2 6.82 2 9.4c0 2.07 2.24 2.53 3.36 2.5-.73-.1-2.19-.75-2.19-2.5Z" fill="url(#eai5mq1e5)"/><path d="M5.95 7.89c-.31-.5-.88-.83-1.12-.93 1.03-.23 2.06.52 2.44.93.51.54 1.82 1.95 2.98 3.28a5.79 5.79 0 0 0 3.6 1.81c-5.1.33-7.51-4.46-7.9-5.1Z" fill="url(#fai5mq1e5)"/><path d="M7.31 10.1a6.13 6.13 0 0 1-2.19 1.52c.51.09 1.81.07 2.91-.7l-.72-.82Z" fill="#005DA3"/><defs><linearGradient id="aai5mq1e5" x1="5.55" y1="5" x2="8.46" y2="8.01" gradientUnits="userSpaceOnUse"><stop stop-color="#34AFE4"/><stop offset="1" stop-color="#0086CB"/></linearGradient><linearGradient id="bai5mq1e5" x1="9.91" y1="9.21" x2="12.13" y2="11.1" gradientUnits="userSpaceOnUse"><stop stop-color="#0075BB"/><stop offset="1" stop-color="#0060A7"/></linearGradient><linearGradient id="cai5mq1e5" x1="14.37" y1="6.09" x2="14.37" y2="11.55" gradientUnits="userSpaceOnUse"><stop stop-color="#0067AD"/><stop offset="1" stop-color="#9ADAF8"/></linearGradient><linearGradient id="dai5mq1e5" x1="10.2" y1="7.65" x2="12.11" y2="5.63" gradientUnits="userSpaceOnUse"><stop stop-color="#0080C5"/><stop offset="1" stop-color="#9CDCF9"/></linearGradient><linearGradient id="eai5mq1e5" x1="3.68" y1="6.82" x2="3.68" y2="11.91" gradientUnits="userSpaceOnUse"><stop stop-color="#0064AB"/><stop offset="1" stop-color="#57B9E9"/></linearGradient><linearGradient id="fai5mq1e5" x1="6.2" y1="7.5" x2="10.51" y2="11.56" gradientUnits="userSpaceOnUse"><stop stop-color="#006BB1"/><stop offset="1" stop-color="#0097D9"/></linearGradient></defs></svg>