<!-- by TradingView --><svg width="18" height="18" viewBox="0 0 18 18" xmlns="http://www.w3.org/2000/svg"><path fill="#F0F3FA" d="M0 0h18v18H0z"/><path fill-rule="evenodd" d="M11.71 4H6.3a.02.02 0 0 0-.02.03L8.45 8c.07.14.05.27-.07.39-.12.12-.25.14-.39.07A1863.71 1863.71 0 0 1 4 6.28v5.42a.02.02 0 0 0 .01.02h.02L8 9.55c.14-.07.27-.05.39.07.12.13.14.25.07.39A1857.93 1857.93 0 0 1 6.28 14h5.43l.01-.01v-.02L9.55 10c-.07-.14-.05-.26.07-.39.12-.12.25-.14.39-.07A1835.63 1835.63 0 0 1 14 11.72V6.29a.02.02 0 0 0-.02-.02h-.01L10 8.46c-.14.07-.27.05-.39-.07-.12-.12-.14-.25-.07-.39a1850.86 1850.86 0 0 1 2.17-3.98ZM9.27 7.8l1.15-3.1a.29.29 0 0 0-.04-.26.3.3 0 0 0-.25-.13H7.86c-.05 0-.1 0-.15.03a.3.3 0 0 0-.16.22c-.01.05 0 .1.01.14l1.13 3.1c.02.05.06.1.11.14a.31.31 0 0 0 .35 0 .3.3 0 0 0 .12-.14Zm-4.55-.26 3.05 1.15c.05.02.1.06.14.11a.32.32 0 0 1 0 .36.3.3 0 0 1-.15.11L4.71 10.4a.29.29 0 0 1-.27-.04.3.3 0 0 1-.13-.25V7.83c0-.05.02-.1.04-.15a.3.3 0 0 1 .1-.1.29.29 0 0 1 .27-.04Zm5.51 1.7 3.07 1.14a.28.28 0 0 0 .26-.04.3.3 0 0 0 .09-.1.3.3 0 0 0 .04-.14V7.83a.3.3 0 0 0-.12-.24.28.28 0 0 0-.26-.04l-3.07 1.13a.29.29 0 0 0-.14.1.3.3 0 0 0 .13.45ZM9 9.73a.75.75 0 1 0 0-1.5.75.75 0 0 0 0 1.5Zm-.28.5L7.56 13.3a.28.28 0 0 0-.01.14c.02.16.15.25.3.25h2.28c.15 0 .28-.08.3-.24.01-.05 0-.1-.01-.14l-1.13-3.08a.3.3 0 0 0-.11-.14.31.31 0 0 0-.35 0 .3.3 0 0 0-.11.14Z" fill="#005AAB"/></svg>