<!-- by TradingView --><svg width="18" height="18" viewBox="0 0 18 18" xmlns="http://www.w3.org/2000/svg"><path fill="#F0F3FA" d="M0 0h18v18H0z"/><path fill-rule="evenodd" d="m15.97 6.1.02.07.01.1v5.54l-.03.11-.04.1-.04.06-.05.07-.06.08-.06.05-.06.05-.08.05-.07.03-.08.04-.07.02-.1.02h-.12l-12.31.01-.11-.02-.1-.02-.12-.04-.12-.06-.1-.07-.06-.06-.07-.09-.06-.09-.04-.07-.01-.05-.02-.06-.02-.1V6.2l.02-.09.03-.07.03-.07.04-.07.03-.05.04-.04.05-.06.06-.05.05-.03.04-.03.05-.03.06-.03.07-.03.1-.02.05-.02.11-.01h12.39l.1.02.08.03.08.03.09.04.08.04.04.04.06.04.06.07.04.05.03.04.03.06.03.06.03.07Zm-1.03 2.47.03.13.03.22v.15l-.03.25-.04.15-.07.17-.07.16-.08.13-.1.14-.13.15-.14.15-.16.15-.18.14-.17.12-.2.13-.24.13-.2.11-.28.13-.28.1-.27.1-.24.08-.3.09-.3.07-.35.08-.3.05-.34.05-.28.04-.35.03-.33.02-.44.01H8.56l-.32-.02-.35-.03-.32-.04-.29-.03-.48-.09-.4-.09-.25-.06-.25-.07-.28-.09-.28-.1-.24-.1-.22-.1-.15-.07-.15-.08-.2-.12-.24-.15-.22-.16-.2-.18-.19-.18-.15-.18-.11-.17-.1-.18-.07-.17-.06-.18-.02-.13L3 9.07v-.11l.01-.15.03-.15.03-.13.04-.11.05-.12.08-.14.08-.12.08-.12.1-.12.12-.13.15-.14.16-.14.17-.12.22-.15.18-.1.24-.13.21-.1.22-.1.28-.1.24-.1L6 6.4l.26-.07.26-.06.26-.06.27-.05.25-.04.47-.06.45-.03.37-.02.28-.01h.43l.48.03.38.03.33.03.41.06.31.06.44.1.34.09.38.12.2.07.28.1.27.13.22.1.2.11.2.13.22.15.17.13.16.14.12.12.13.14.11.15.1.14.08.17.06.13.05.14Z" fill="#112F55"/><path d="M11.81 7H9.94C9.3 7 9 7.33 9 8.03L9 9h1v-.71c0-.26.02-.28.24-.29h1.03c.35 0 .73.06.73.53V9.6c0 .3-.4.4-.81.4H11V8.33h-.65c-.07 0-.12 0-.11.12v1.19c-.01.28-.34.36-.66.35l-.27.01v1h2.46c.92 0 1.23-.5 1.23-1.33V8.43C13 7.33 12.54 7 11.81 7ZM6.73 7h-.88C5.38 7 5 7.5 5 8v1h.71v-.72c0-.2.19-.28.35-.28H7V7h-.27Z" fill="#E61F19"/><path d="M8.8 10s-.2-.02-.37-.32a18.6 18.6 0 0 1-.5-1.05l.02-.03.03-.02.84-.58H9V7H7.29v.97l.12.1-.7.53v-.27H6.2a.2.2 0 0 0-.2.2v.8c0 .31-.14.67-.5.67h-.21v1H7v-1c-.13-.07-.19-.1-.18-.34v-.03l.3-.28.16.31c0 .16-.02.25-.14.34v1H9v-1h-.2Z" fill="#E61F19"/></svg>