<!-- by TradingView --><svg width="18" height="18" viewBox="0 0 18 18" xmlns="http://www.w3.org/2000/svg"><path fill="#F0F3FA" d="M0 0h18v18H0z"/><ellipse cx="5" cy=".67" rx="5" ry=".67" transform="rotate(45 -1.88 10.12)" fill="#4EA1DA"/><path d="M12.56 12.5c-.26.26-3.93 3.19-7.1.02-3.17-3.17-.24-6.84.03-7.1.26-.26 2.05 1.1 4 3.06 1.96 1.96 3.33 3.75 3.07 4.02ZM13.6 10.86c-.24.23-1.88-1.02-3.67-2.8-1.79-1.8-3.04-3.44-2.8-3.68.23-.23 1.87 1.02 3.66 2.8 1.79 1.8 3.04 3.44 2.8 3.68Z" fill="#4EA1DA"/><path d="M13.9 9.78c-.22.21-1.67-.89-3.24-2.46C9.1 5.75 8 4.3 8.2 4.08c.22-.21 1.67.89 3.24 2.46C13 8.11 14.1 9.56 13.9 9.78ZM13.98 8.4c-.14.14-1.24-.73-2.45-1.95C10.3 5.24 9.44 4.14 9.58 4c.15-.15 1.25.72 2.46 1.94 1.22 1.21 2.09 2.31 1.94 2.46ZM13.06 6.13c-.09.08-.42-.12-.76-.45-.33-.34-.53-.67-.45-.76.08-.08.42.12.75.46.34.33.54.67.46.75Z" fill="#4EA1DA"/></svg>