<!-- by TradingView --><svg width="18" height="18" viewBox="0 0 18 18" xmlns="http://www.w3.org/2000/svg"><path fill="#F0F3FA" d="M0 0h18v18H0z"/><path d="m11.55 8.98.5.5.94.75c.12.1.23.2.18.34a.3.3 0 0 1-.17.2 4.39 4.39 0 0 1-3.24-1.9 2.98 2.98 0 0 1-.25-.52c-.02-.03-.05-.04-.09-.03l-.26.1c-.04.02-.05.05-.04.1.27.6.63 1.1 1.1 1.45l.58.47c.5.42.75.95.73 1.58 0 .02.02.03.04.02.54-.06.9.12 1.08.56.08.2.06.41-.06.6-.3.52-.98.64-1.48.25l-.14-.14c-.01-.02-.03-.02-.05 0-.34.32-.73.52-1.17.6a4.87 4.87 0 0 1-3-.39c-.41-.19-.78-.45-.7-.9a.7.7 0 0 1 .69-.58c.04 0 .08 0 .12-.02.02 0 .03-.02.02-.04a3.35 3.35 0 0 1-.02-1.58c.1-.4.34-.96.34-1.5v-.52c0-.02-.01-.04-.03-.05a2.1 2.1 0 0 1-.9-.95A2.67 2.67 0 0 1 6.2 5.2c.16-.41.63-.1.9-.1l.19-.01c.46-.12.8-.21 1.19-.2.04 0 .06 0 .04-.04-.07-.13-.08-.23-.03-.3.13-.2.7.13.82.2.02.02.04.01.05 0 .22-.2.32-.37.5-.67a.1.1 0 0 1 .04-.04c.12-.05.24-.04.39.04.36.18.63.4.83.65.07.09.22.23.24.35.01.06-.03.13-.12.19l-.68.42c-.03 0-.03.02-.01.04.13.13.45.46.26.62-.08.07-.22.06-.43-.04l-.02.01.05.45.03.01c.56.04 1.07.13 1.52.27l1.15.37c.38.12.91.24 1.58.35.19.03.3.19.31.35 0 .2-.17.3-.36.36a4.75 4.75 0 0 1-3.95-.5c-.04-.03-.04-.02-.02 0l.88 1ZM10.5 5.46a12.47 12.47 0 0 0 .6-.39v-.03a2.62 2.62 0 0 0-.99-.83c-.03-.01-.06 0-.07.02-.11.2-.24.38-.4.56l-.2.18a.07.07 0 0 1-.07.01.49.49 0 0 1-.17-.06c-.19-.1-.32-.18-.39-.2-.12-.06-.14-.03-.06.06.31.38.74.75 1.28 1.1.13.09.3.17.5.25.1.03.1.01.05-.06-.07-.1-.33-.28-.33-.38 0-.08.19-.2.25-.23Z"/></svg>