<!-- by TradingView --><svg width="18" height="18" viewBox="0 0 18 18" xmlns="http://www.w3.org/2000/svg"><path fill="#F0F3FA" d="M0 0h18v18H0z"/><path fill-rule="evenodd" d="M3.2 6.89c.01.69.24 1.33.68 1.9v.05A2.55 2.55 0 0 0 3 10.9a.03.03 0 0 0 .03 0c.4-.18.88-.2 1.27.03.5.3.67.9.44 1.43-.1.2-.25.39-.47.56-.05.04-.04.07.01.1.62.29 1.25.4 1.9.32a.16.16 0 0 1 .16.11c.13.37.32.7.59.95l.4.4c.09.08.17.13.29.19l.04.02a.03.03 0 0 0 .03 0 .03.03 0 0 0 .01-.02l.07-.32c.14-.5.63-.93 1.18-.89.52.04.9.36 1.07.85a6.13 6.13 0 0 1 .12.34h.03a3.76 3.76 0 0 0 1.28-1.42 3.22 3.22 0 0 0 2.09-.35.03.03 0 0 0-.01-.02 3.5 3.5 0 0 1-.28-.26c-.39-.4-.43-1-.13-1.44.25-.36.7-.53 1.14-.5.13 0 .26.07.4.13a.05.05 0 0 0 .07-.05 2.78 2.78 0 0 0-.53-1.79c-.02-.02-.02-.04 0-.06l.05-.07c.2-.26.45-.6.54-.89A4.52 4.52 0 0 0 15 7.13a.03.03 0 0 0-.03-.01 2.9 2.9 0 0 0-.2.06c-.14.04-.3.1-.45.09-.42 0-.74-.16-.96-.45-.43-.59-.21-1.3.36-1.71l.01-.02a.05.05 0 0 0 0-.04l-.01-.02a1.5 1.5 0 0 0-.36-.16 3.74 3.74 0 0 0-1.49-.22.06.06 0 0 1-.02-.02l-.11-.24c-.06-.15-.13-.3-.22-.42a3.44 3.44 0 0 0-1.05-.95.03.03 0 0 0-.01.02c-.02.38-.17.69-.45.92-.5.41-1.24.35-1.63-.14a1.46 1.46 0 0 1-.31-.8.04.04 0 0 0-.03-.02H8c-.6.33-1.03.83-1.32 1.45-.01.02-.03.03-.05.03a3.2 3.2 0 0 0-2.17.32.03.03 0 0 0 0 .03c.47.4.8.93.5 1.55-.21.42-.7.7-1.18.64a1.79 1.79 0 0 1-.56-.17.03.03 0 0 0-.03.02v.02Zm7.48-3.19c-.25.47-.6.76-1.03.88a1.56 1.56 0 0 1-1.85-.94.04.04 0 0 0-.05 0c-.29.24-.51.55-.67.91-.02.06 0 .1.05.13a2.75 2.75 0 0 1 1.6 3.07c-.01.07.01.1.08.11 2.42.35 3.67-2.54 1.97-4.17a.07.07 0 0 0-.1.01ZM5.17 4.96c.29.46.37.9.25 1.32-.23.77-.94 1.2-1.75 1.1a.04.04 0 0 0-.03.02.04.04 0 0 0-.01.03c.07.37.22.72.46 1.03.04.06.08.06.14.03a2.83 2.83 0 0 1 3.5.2c.05.04.1.03.14-.02 1.54-1.9-.37-4.42-2.66-3.8a.07.07 0 0 0-.04.03.07.07 0 0 0 0 .06Zm7.7 1.82a1.57 1.57 0 0 0 1.66.88.05.05 0 0 1 .03.04v.02c-.18.8-.64 1.37-1.37 1.73-.55.27-1.22.32-1.8.13a2.32 2.32 0 0 1-1.47-1.36.06.06 0 0 1 .04-.05 2.71 2.71 0 0 0 1.81-1.73 2.63 2.63 0 0 0 .14-1.34.07.07 0 0 1 .06-.05 2.58 2.58 0 0 1 1.06.1.05.05 0 0 1 .02.05v.02c-.35.52-.4 1.04-.17 1.56ZM9.9 8.98a5.28 5.28 0 0 1-.38-.71.07.07 0 0 0-.04-.01c-.28.03-.55.01-.81-.05a.1.1 0 0 0-.06.01.09.09 0 0 0-.04.04c-.12.26-.28.5-.48.7a.08.08 0 0 0-.01.1 9.45 9.45 0 0 1 .38.7h.05c.28-.03.57-.03.85.03a.1.1 0 0 0 .1-.06c.1-.24.25-.47.44-.68a.07.07 0 0 0 0-.08Zm-5.13 1.8c-.32-.3-.75-.44-1.29-.4a.07.07 0 0 1-.05-.03.06.06 0 0 1-.02-.06c.53-2.28 3.68-2.74 4.65-.51.02.06 0 .1-.06.12a2.76 2.76 0 0 0-1.82 2.95c0 .07-.02.1-.09.11a2.47 2.47 0 0 1-1.15-.1.04.04 0 0 1 0-.04c.46-.66.42-1.48-.17-2.04Zm9.02-1.25a2.82 2.82 0 0 1-3.6-.22A2.22 2.22 0 0 0 9.63 11a2.5 2.5 0 0 0 3.17 2.12c.05-.02.06-.04.03-.08-.37-.6-.4-1.18-.07-1.72.24-.39.65-.63 1.1-.71.1-.02.24-.02.36-.02h.13c.02 0 .03-.01.03-.03a2.52 2.52 0 0 0-.47-1.03.11.11 0 0 0-.12 0Zm-4.73 3.86a1.57 1.57 0 0 0-1.6.98.05.05 0 0 1-.04.01l-.02-.01a2.42 2.42 0 0 1-.84-2.04 2.35 2.35 0 0 1 2.7-2.2.06.06 0 0 1 .03.05v.02c-.19.9.02 1.7.62 2.41a2.69 2.69 0 0 0 1.11.78.07.07 0 0 1 .02.08 2.52 2.52 0 0 1-.63.86h-.02a.05.05 0 0 1-.04-.02 1.57 1.57 0 0 0-1.29-.92Z" fill="#009641"/></svg>