<!-- by TradingView --><svg width="18" height="18" viewBox="0 0 18 18" xmlns="http://www.w3.org/2000/svg"><path fill="#F0F3FA" d="M0 0h18v18H0z"/><path fill-rule="evenodd" d="M13.92 13.48c.04-.1.08-.21.08-.32v-8.3a.85.85 0 0 0-.52-.78.86.86 0 0 0-.32-.08h-8.3a.84.84 0 0 0-.78.52.86.86 0 0 0-.08.32v8.3a.85.85 0 0 0 .52.78c.1.04.21.08.32.08h8.3a.85.85 0 0 0 .78-.52ZM8.37 7.3 7 9.12V5.05C7 5.02 6.98 5 6.95 5H5.57C5.2 5 5 5.2 5 5.57v7.38c0 .03.03.05.05.05h1.38c.3 0 .57-.14.57-.46v-1.5l1.25 1.55c.18.22.38.4.63.41h1.77l.01-.02v-.04L8.5 10.21a.06.06 0 0 1 0-.07l2.15-3.06a.04.04 0 0 0 0-.05L10.65 7 10.62 7H8.99a.8.8 0 0 0-.62.3ZM12 7h-.95c-.03 0-.05-.02-.05-.05V5.72c0-.4.17-.67.56-.72a37.42 37.42 0 0 1 1.39 0c.03 0 .05.02.05.05v1.23c0 .4-.17.67-.56.72H12Zm1 5.45v-4.4c0-.02-.02-.03-.05-.04a13 13 0 0 0-1.48.01c-.19.02-.32.09-.4.2-.04.07-.06.18-.07.33v4.4c0 .02.02.03.05.04.73.02 1.22.01 1.48-.01.19-.02.32-.09.4-.2.04-.07.06-.18.07-.33Z" fill="#1969A8"/></svg>