<!-- by TradingView --><svg width="18" height="18" viewBox="0 0 18 18" xmlns="http://www.w3.org/2000/svg"><path fill="#F0F3FA" d="M0 0h18v18H0z"/><path fill-rule="evenodd" d="M7.35 12.94a.17.17 0 0 1-.22.1l-.63-.3a.18.18 0 0 1-.09-.22l.97-2.26a.17.17 0 0 1 .22-.1l4.61 2.1c.05.02.1.02.15 0 .22-.1.46-.1.69 0 .43.2.63.71.44 1.16a.84.84 0 0 1-1.6-.07.2.2 0 0 0-.1-.12l-3.66-1.67a.17.17 0 0 0-.23.1l-.55 1.28Zm5.56-.36c.26.12.38.43.27.7a.5.5 0 0 1-.68.27.54.54 0 0 1-.26-.7.5.5 0 0 1 .67-.27ZM10.34 5.06a.17.17 0 0 1 .22-.1l.63.3c.08.03.12.13.08.22l-.96 2.26a.17.17 0 0 1-.22.1l-4.61-2.1a.19.19 0 0 0-.16 0c-.2.1-.46.1-.68 0a.9.9 0 0 1-.44-1.16.84.84 0 0 1 1.59.07c.02.06.05.1.1.12l3.67 1.67c.09.04.19 0 .23-.1l.55-1.28Zm-5.57.36a.54.54 0 0 1-.26-.7.5.5 0 0 1 .68-.27c.26.12.37.43.26.7a.5.5 0 0 1-.68.27Z" fill="#42B7DD"/><path fill-rule="evenodd" d="M5.02 7.46a.18.18 0 0 1-.08-.23l.27-.65a.17.17 0 0 1 .23-.09l2.18 1c.09.03.13.14.1.23l-2.03 4.75a.2.2 0 0 0 0 .16c.1.22.1.48 0 .71a.84.84 0 0 1-1.13.45.9.9 0 0 1 .07-1.64.2.2 0 0 0 .12-.1l1.61-3.8c.04-.08 0-.18-.09-.22l-1.25-.57Zm.36 5.74a.5.5 0 0 1-.68.27.54.54 0 0 1-.26-.7.5.5 0 0 1 .67-.27c.26.12.38.43.27.7ZM12.97 10.68c.1.04.13.14.1.23l-.28.65a.17.17 0 0 1-.23.09l-2.18-1a.18.18 0 0 1-.1-.23l2.03-4.75a.2.2 0 0 0 0-.16.9.9 0 0 1 0-.71.84.84 0 0 1 1.12-.45.9.9 0 0 1-.06 1.64.2.2 0 0 0-.12.1l-1.61 3.8c-.04.08 0 .19.08.22l1.25.57Zm-.35-5.74a.5.5 0 0 1 .68-.27c.26.12.37.43.26.7a.5.5 0 0 1-.67.27.54.54 0 0 1-.27-.7Z" fill="#949494"/><path d="M7.89 13a.18.18 0 0 1-.09-.24l.28-.64a.17.17 0 0 1 .22-.1l2.19 1c.08.04.12.14.09.23l-.28.64a.17.17 0 0 1-.22.1l-2.2-1ZM9.8 5c.09.05.12.15.09.24l-.28.64a.17.17 0 0 1-.22.1l-2.19-1a.18.18 0 0 1-.09-.23l.28-.64A.17.17 0 0 1 7.6 4l2.19 1Z" fill="#949494"/><path d="M4.98 8.01a.17.17 0 0 1 .22-.09l.63.29c.08.04.12.14.08.23l-.96 2.26a.17.17 0 0 1-.22.09l-.63-.29a.18.18 0 0 1-.09-.23l.97-2.26ZM13.02 10.13a.17.17 0 0 1-.22.09l-.63-.29a.18.18 0 0 1-.08-.23l.96-2.26a.17.17 0 0 1 .22-.09l.63.29c.08.04.12.14.09.23l-.97 2.26Z" fill="#42B7DD"/></svg>