<!-- by TradingView --><svg width="18" height="18" viewBox="0 0 18 18" xmlns="http://www.w3.org/2000/svg"><path fill="#4D4D4D" d="M0 0h18v18H0z"/><path d="M3 11.7h12v.3H3v-.3Z" fill="#CAA33F"/><path d="M8.24 6.23C8.2 6.07 8.1 6 8.05 6c-.19.03.19 1.67.3 2.32.11.65.19.93.38.93.18 0 .3-.03.33-.14.04-.12-.78-2.69-.82-2.88ZM8.58 10.15c0 .52.95.78 1.42.85-.71-.54-.52-.7-.52-.96 0-.2-.28-.24-.42-.23.04-.3-.03-.42-.18-.42s-.23.06-.23.14c0 .07.1.26.15.34-.07.04-.22.15-.22.28ZM14.76 10.65c-.46.23-.95.35-1.46.35-1.3 0-2.3-.87-2.3-2.01C11 7.85 11.98 7 13.28 7c.5 0 1.08.1 1.48.37 0-.1 0-.18.02-.23.02-.06.1-.1.22-.1v1.21h-.18a1.48 1.48 0 0 0-1.5-1.07c-1.1 0-1.32 1-1.32 1.81 0 .83.16 1.83 1.3 1.83.75 0 1.25-.35 1.5-1.07h.2V11l-.14-.01c-.07-.03-.1-.16-.1-.34ZM3 7h1.91C6.08 7 7 7.79 7 9c0 1.19-.94 2-2.1 2H3v-.17h.53V7.17H3V7Zm1.9.17h-.57v3.66h.58c.9 0 1.09-.63 1.09-1.86 0-.9-.05-1.8-1.1-1.8Z" fill="#fff"/></svg>