<!-- by TradingView --><svg width="18" height="18" viewBox="0 0 18 18" xmlns="http://www.w3.org/2000/svg"><path fill="#F0F3FA" d="M0 0h18v18H0z"/><path d="m8.48 3.17-.45 7.64c0 .1.07.19.18.19h2.22c.1 0 .17-.08.17-.18v-.31c0-.1-.07-.18-.17-.18h-.49a.18.18 0 0 1-.18-.17l-.34-6.99c0-.1-.09-.17-.18-.17h-.58c-.1 0-.17.07-.18.17Zm-.45 5.08v.48c0 .15-.13.27-.27.27H5.82c-.19 0-.32-.21-.23-.4L7.2 5.1c.03-.06.09-.1.16-.1H8c.1 0 .17.09.17.19l-.04 1.23a.2.2 0 0 1-.12.17c-.38.16-1 .44-1.28 1.16-.05.11.04.25.15.25h.87c.14 0 .27.1.27.25ZM4.5 13h9c.37 0 .61-.45.45-.84l-1.73-4a.25.25 0 0 0-.23-.16h-1.7c-.18 0-.29.17-.29.39v.36c0 .21.11.25.3.25h.91c.15 0 .26.11.24.28-.13 1-.76 2.58-2.55 2.58-1.44 0-2.1-1.32-2.31-2.2-.03-.14-.14-.23-.26-.23h-.85c-.1 0-.18.05-.22.14l-1.2 2.58c-.18.39.06.85.44.85Zm5.36-6.75-.05-.97c-.01-.15.1-.28.25-.28h.51c.1 0 .19.06.23.15l1 2.13c.08.18-.04.39-.23.39h-.32a.18.18 0 0 1-.15-.1c-.3-.55-.78-.9-1.09-1.07a.3.3 0 0 1-.15-.25Z" fill="#E80014"/></svg>