<!-- by TradingView --><svg width="18" height="18" viewBox="0 0 18 18" xmlns="http://www.w3.org/2000/svg"><path fill="#F0F3FA" d="M0 0h18v18H0z"/><path d="M9.18 14.83c.45-.38.84-.86 1.16-1.46 1.36-2.5 1.42-6.67-.2-9.1a.3.3 0 0 1-.04-.22.3.3 0 0 1 .05-.1.27.27 0 0 1 .08-.09l.17-.1a.2.2 0 0 1 .15-.04c.05.01.09.04.12.08.41.53.64.85.7.95a9.92 9.92 0 0 1 .88 5.41 6.75 6.75 0 0 1-1.81 4.27c-.1.1-.1.18 0 .24l.28.21c.1.08.1.12-.03.12a1.3 1.3 0 0 1-.59-.17.41.41 0 0 0-.27-.04c-.14.02-.28.06-.42.12-.4.15-.67.08-1-.07a.4.4 0 0 0-.28-.02c-1.32.35-2.3-.06-2.95-1.25a9.65 9.65 0 0 1-.53-8.14c.37-1.05 1.25-2.18 2.3-2.4.29-.06.32.01.1.23a6.73 6.73 0 0 0-1.92 3.8c-.47 2.72-.02 6.02 2.1 7.81.02.02.05.04.1.04.03 0 .06-.02.1-.05 2.18-2.07 2.62-5.7 1.84-8.56-.06-.23-.05-.45.03-.67l.2-.56c.1-.24.19-.25.28 0a10.1 10.1 0 0 1-.2 8.26.3.3 0 0 0 .01.3c.12.2.08.39-.11.57-.08.07-.17.07-.25 0-.16-.15-.36-.09-.57.2-.08.1-.07.2.04.27l.26.18c.07.05.14.05.22-.02Z" fill="#002776"/><path d="M8.94 3.17a4.15 4.15 0 0 0-1.51 1.98 9.94 9.94 0 0 0 .47 8.6c.06.1.05.2-.02.27l-.19.21c-.08.09-.15.1-.22.01-1.51-1.7-1.88-4.11-1.63-6.5a6.52 6.52 0 0 1 1.89-4.28.13.13 0 0 0-.01-.11.11.11 0 0 0-.04-.04l-.16-.1a.09.09 0 0 1-.03-.05.1.1 0 0 1 0-.07.14.14 0 0 1 .09-.08.1.1 0 0 1 .05 0 .1.1 0 0 1 .04 0c.23.16.47.2.71.15.39-.1.6-.14.64-.14.32.01.57.07.76.16a.28.28 0 0 0 .25 0c.16-.08.32-.14.49-.17.18-.03.2.02.06.15-.97.9-1.6 2.05-1.9 3.44-.38 1.77-.36 3.44.07 5.02.07.26.06.51-.03.75l-.17.52a.18.18 0 0 1-.07.09.16.16 0 0 1-.2 0 .19.19 0 0 1-.06-.1 10.06 10.06 0 0 1 .23-8.19.3.3 0 0 0 0-.27c-.1-.24-.07-.45.12-.63.09-.07.15-.1.19-.08.07.03.13.07.19.12.08.07.15.07.22-.02l.22-.28c.06-.09.05-.17-.04-.24l-.16-.13c-.07-.06-.16-.06-.25.01ZM14 9.01c0 2.08-.73 5.37-2.91 5.95-.29.07-.32 0-.1-.2 1.54-1.45 2.1-3.6 2.1-5.75s-.54-4.31-2.06-5.77c-.22-.2-.2-.27.1-.2 2.18.6 2.88 3.9 2.87 5.97Z" fill="#002776"/></svg>