<!-- by TradingView --><svg width="18" height="18" viewBox="0 0 18 18" xmlns="http://www.w3.org/2000/svg"><path fill="#F0F3FA" d="M0 0h18v18H0z"/><path d="M4 8.69h.44V8.4l.17-.15.16.15v.12h.18L5 8.41V9h.33v-.22h.1v-.66l.17-.48.18.48v.66h.55V9h.34V7.84l.1-.5.15.39v.65h.07V4.4A4.75 4.75 0 0 0 4 8.69Zm9.99.31v-.26a4.88 4.88 0 0 0-5.37-4.73V9h.47v-.22h.24V9h.17v-.31h.99v-.62l.22-.21v-.49h.08v.49l.21.2v.63h.33V8.2h.34v.28l.25-.24v.24h.25v-.13l.24.23v.26h.27l.13-.16H13v-.1h.33v.26h.17v-.79h.17V9h.32Z" fill="#E3D1AB"/><path d="M8.33 9.8V2l.67.88v6.44c0 .52.4.79.94.79h4.1l.96.65H9.47c-.6 0-1.14-.38-1.14-.96Z" fill="#4C4D4F"/><path d="M7.67 9.34V4.2h.01l.65-.1v5.25c0 .84.81 1.42 1.71 1.42H14c-.09.22-.2.44-.31.65h-9.2c-.12-.21-.23-.43-.32-.65h1.77c.9 0 1.73-.58 1.73-1.42Zm-2.98 2.39.24.32h8.3c.1-.1.17-.2.25-.32H4.7Zm8.41.49H5.07l.31.32h7.41l.31-.32Zm-.49.48H5.56c.13.12.27.23.42.33h6.22c.14-.1.28-.21.41-.33Zm-.66.49H6.22a5.4 5.4 0 0 0 5.73 0Z" fill="#E09D26"/></svg>