<!-- by TradingView --><svg width="18" height="18" viewBox="0 0 18 18" xmlns="http://www.w3.org/2000/svg"><path fill="#00A3E0" d="M0 0h18v18H0z"/><path fill-rule="evenodd" d="m11.5 13 1.5-1v-1.94l-2.2-1.5.82-.51L14 9.54v2.97L11.5 14 9 12.33 6.5 14 4 12.5v-3l2.5-1.67V4.5L9 3l2.5 1.5v3l-.94.5V5L9 4.17 7.44 5V8.53l.56.34v-3.7l1-.5 1 .5v3.16l-.69.54V5.83L9 5.67l-.31.16v3.5l2.88 1.85.24-.13v-.28L9.53 9.33l.72-.5c.8.51 1.51.98 2.34 1.5v1.34l-1.09.66c-1.73-1.1-3.26-2.24-5-3.33L5 10v2l1.5 1 1.62-1.13-.4-.24-1.22.7-1.1-.6v-1.4l1.1-.66c1.72 1.1 3.26 2.24 5 3.33Zm-5.07-2.29.23.16v.31l-.23.15-.24-.15v-.31l.24-.16Z" fill="#F0F3FA"/></svg>