<!-- by TradingView --><svg width="18" height="18" viewBox="0 0 18 18" xmlns="http://www.w3.org/2000/svg"><path fill="#F0F3FA" d="M0 0h18v18H0z"/><path fill-rule="evenodd" d="M4.48 5 7.6 6.03l4.26-.81.65 1.3L15 6.7l-.35 2.61-1.92 1.71V9.34h-1.05L10.35 11l.54 1.07 1.32-.38-.8 1.81-1.54.51h-.41l-1.1-.94-1.49.32L3 6.88l1.83-.33L4.48 5Zm.43 1.86-1.4.25 2.92 4.91-1.52-5.16Zm2.15 6.16 1.16-.26-.43-3.56-2.46-2.06 1.73 5.88Zm-1.9-6.43-.24-1.11 2.52.83.3 2.43-2.57-2.15Zm2.99 2.9.4 3.31 1.03.89h.23l1.26-.42-.41-.95-.63-1.25L8.15 9.5Zm2.03 1.2 1.22-1.47-.95-1.21-1.36.8 1.1 1.88ZM8.94 8.52 7.87 6.38l1.4.14.98 1.24-1.3.76Zm1.78-.67.9 1.12 1.8-2.07-.97-.06-1.73 1Zm1.42-1.36-.46-.91-2.98.57 3.44.34Zm-4.28.6.23 1.95 1.48 1.23-.84-1.45-.87-1.74Zm4.05-.3-1.38.8-.81-1.02 2.19.21Zm1.8.25-1.75 2h2.4l.1-.74-.74-1.26Zm.82.74.1-.8-.6-.04.5.84Zm-.45 1.56h-1.03v.96l1.03-.96Zm-3.06 3.01.27.61.35-.78-.62.17Z"/></svg>