<!-- by TradingView --><svg xmlns="http://www.w3.org/2000/svg" width="18" height="18"><path fill="#F0F3FA" d="M0 0h18v18H0z"/><path d="M8.6 13L3.13 8.84A.34.34 0 013 8.52c.11-.63.44-2.54.55-3.25.03-.15.04-.43-.05-.52l4.31 2.47 6.11.86c.17.02.3.14.35.3.2.69.43 1.37.5 1.57.01.03 0 .06-.04.07l-2.97.8-1.38 1.91c-.41.57-1.23.69-1.79.26z" fill="url(#a1r232hrc)"/><path d="M11.76 10.82l-1.38 1.91c-.41.57-1.23.69-1.79.26L3.48 9.11l1.96-2.03c.09-.1.22-.14.36-.13l1.24.17 1.18.16 5.7.8c.17.02.3.14.35.3.2.68.47 1.36.56 1.56 0 .04 0 .07-.04.08l-3.03.8z" fill="url(#b1r232hrc)"/><path d="M15 10.03c.01.02-3.24.79-3.24.79l1.9-2.78.26.04c.17.02.3.14.35.3.25.8.62 1.55.73 1.65z" fill="url(#c1r232hrc)"/><defs><linearGradient id="a1r232hrc" x1="3.8" y1="5.45" x2="6.88" y2="8.51" gradientUnits="userSpaceOnUse"><stop stop-color="#CF0"/><stop offset="1" stop-color="#F5FF00"/></linearGradient><linearGradient id="b1r232hrc" x1="13.57" y1="8" x2="4.04" y2="9.7" gradientUnits="userSpaceOnUse"><stop stop-color="#0BAFBF"/><stop offset="1" stop-color="#81E81F"/></linearGradient><linearGradient id="c1r232hrc" x1="14.25" y1="8.75" x2="12.22" y2="10.86" gradientUnits="userSpaceOnUse"><stop stop-color="#849EA0"/><stop offset="1" stop-color="#54A0A4"/></linearGradient></defs></svg>