<!-- by TradingView --><svg width="18" height="18" viewBox="0 0 18 18" xmlns="http://www.w3.org/2000/svg"><path fill="#F0F3FA" d="M0 0h18v18H0z"/><path d="M8.9 15c2.9-.53 5.1-3 5.1-5.95A6.17 6.17 0 0 0 7.72 3c-1.22 0-2.36.33-3.32.91.73-.2 1.93-.3 2.7.37 0-.13-.12-.47-.59-.84.32 0 1.05.19 1.38.95.13-.2.56-.5 1.27-.24-.27.09-.8.53-.75 1.54-.43-.44-1.5-1.24-2.28-.97-.98.35-2.65 1.53-1.19 2.31-.32.25-.96.96-.94 1.8.23-.55.99-1.64 2.13-1.62-.58-.2-1.64-.72-1.19-1.27.56-.69 1.08-1.14 1.75-1 .52.1 1.02.5 1.2.69-.47-.18-1.52-.42-1.85.06-.42.6-.07.78.33 1 .4.22.5.35.32 1.15-.14.64-.18.93-.18 1 .16-.45.68-1.42 1.5-1.8-.16-.11-.5-.38-.55-.61.15.03.54.05.89-.15l.14-.09c.36-.22.64-.4 1.5.16a3.3 3.3 0 0 0-1.4-1.07c.03-.27.25-.78.98-.64-.2.07-.58.32-.48.64.1-.12.47-.28 1.07.08-.2.02-.57.09-.49.22.08.14.77.69 1.1.95l.09.68c.49.26 1.6.98 2.14 1.78-.17 0-.51.01-.6.1-.12.1-.6.03-.87-.17-.05.11-.08.38.27.47.43.12.51.42.51.87.08-.05.24-.26.22-.67.04 0 .23-.13.31-.2-.05.33-.25 1.02-.7 1.17-.2.19-.75.57-1.37.6-.79.02-.94-.42-.93-.66 0-.24.25-.63.5-.77-.56.1-1.73.1-2-.59-.1.16-.25.6 0 1.12-.39.1-1.23.06-1.4-.82-.29.47-.64 1.58.27 2.23 1.14.82 1.52 1.28 1.46 2.05.3-.19.85-.8.68-1.71.46.51.98 1.81-.45 2.99Zm-.22-7.69c.38-.09 1.2-.2 1.37 0 .01.04.02.15-.1.3l.24.34c-.4-.19-1.28-.58-1.51-.64Zm-2.56.8c-.7.17-2.04.96-1.88 2.76.08.41.5 1.37 1.5 1.92.99.54 1.88 1.21 2.2 1.48-.07-.21-.54-.91-1.82-2.02-1.6-1.38-1.26-3.2 0-4.14Zm4.59 3.75c-.14-.29.86-.78 1.38-1-.02.03-.02.16.16.5.17.35-.14.82-.31 1-.1-.43-.45-.4-.76-.39-.21.02-.4.03-.47-.11Z" fill="#EDA900"/></svg>