<!-- by TradingView --><svg width="18" height="18" viewBox="0 0 18 18" xmlns="http://www.w3.org/2000/svg"><path fill="#F0F3FA" d="M0 0h18v18H0z"/><path d="M8.29 9.67c-.01-.06-.06-.13-.03-.15.16-.09.54-.25.82-.25.36 0 .28.32.25.42-.02.1 0 .11 0 .22 0 .1-.07.12-.16.16-.08.04-.02.07.05.13s.04.15.04.21c0 .07.02.05.12.03.1-.02.1.03.22.03.11 0 .06.08.14.1a.9.9 0 0 0 .2.02c.07 0 .05-.05.1-.09.05-.04.03.06.06.12.03.05.02.02.14 0 .11-.03.05.07.04.12 0 .04-.17 0-.26.02s-.1.01 0 .07c.1.05.03.07 0 .13s-.12.04-.24.03c-.12 0-.1-.02-.18-.1a.76.76 0 0 0-.32-.2.65.65 0 0 0-.3.03c-.09.02-.16-.03-.2-.1-.05-.08-.07 0-.13.07-.06.08-.13.1-.2.1-.08 0-.14-.05-.1-.15.03-.1-.09-.02-.12 0a.56.56 0 0 1-.32.05c-.12-.02-.03-.04-.14-.05l-.29-.02c-.1-.01-.15-.12-.1-.12.05 0 .32-.03.4 0 .07.03.04 0 .13-.03.09-.02.16-.05.3-.06.14 0 .08.01.13-.02.06-.03.16-.25.18-.3.03-.04-.07 0-.15-.02-.09-.01 0-.13-.06-.16-.05-.04.02-.04.03-.1.01-.07-.04-.1-.05-.14Z" fill="#5B3A17"/><path d="M7.21 8.37c.04.08.09.05.1.14 0 .08-.06.1-.09.1-.07.06 0 .11.05.17.04.07-.1.17-.2.22-.1.06-.02.17.05.26.07.08.07.07.08.2 0 .12.19-.01.28.03.1.05-.07.2-.05.28.02.07.14-.02.2 0 .05.01.03.1.1.15.09.05.13-.17.16-.18.03-.01.06.08.11.1.06.02.08-.09.09-.18 0-.1.12-.1.2-.08.07.03.08.07.2.12.13.04.05 0 .07-.08.01-.08.06.08.16.1.1.02.03-.04.08-.12.05-.07.07.02.21-.02.14-.03.1-.05.18-.04.09 0 .07.08.1.16.02.07.31.2.46.22.14.03.08-.05.18-.06.1-.01.11-.05.18-.1.06-.07.12-.03.19-.04.07-.02.06-.02.07-.1.01-.08.1-.09.16-.14.08-.06-.02-.05-.08-.16-.07-.1.04-.16.28-.23.24-.06.2-.27.13-.38-.08-.1.08-.09.13-.16.06-.08-.2-.3-.33-.37-.13-.08-.1-.12-.09-.2.02-.07.12-.07.13-.16.01-.1 0-.14-.1-.18-.09-.04-.08.1-.2.09-.1-.02-.01-.08.12-.12.12-.05-.01-.17-.06-.24-.06-.07-.16-.03-.24-.02-.07.01-.05-.04-.17-.12-.12-.08-.06.01-.17.05-.1.03-.08 0-.06-.1.02-.12-.04-.12-.15-.13-.12-.01-.05.08-.1.08-.04 0-.06-.05-.14 0-.08.05-.05.08-.18.06-.14-.02.01-.06.1-.12.08-.06-.05-.08-.16-.07-.12.01-.1.12-.21.07-.13-.04-.13 0-.18.1-.04.09-.16.17-.27.16-.1 0-.05-.09-.12-.14-.06-.06-.14.05-.24.09-.1.04-.11.03-.16.16-.06.13-.07.03-.24.02-.16 0-.08.15-.16.14-.09-.01-.06.06-.14.19-.08.12-.13.03-.27.08-.15.04-.04.1-.11.17-.08.08-.14.1-.04.15.1.05.07-.08.17 0 .11.08-.05.1 0 .18Z" fill="url(#am1qbhqiz)"/><path fill-rule="evenodd" d="M9 14c3.87 0 7-2.24 7-5s-3.13-5-7-5-7 2.24-7 5 3.13 5 7 5Zm0-.31c3.54 0 6.42-2.1 6.42-4.69 0-2.59-2.88-4.69-6.42-4.69S2.58 6.41 2.58 9c0 2.59 2.88 4.69 6.42 4.69Z" fill="#698958"/><path fill-rule="evenodd" d="M9 12c2.2 0 4-1.34 4-3s-1.8-3-4-3-4 1.34-4 3 1.8 3 4 3Zm0-.19c2.03 0 3.67-1.26 3.67-2.81S11.03 6.19 9 6.19C6.97 6.19 5.33 7.45 5.33 9S6.97 11.81 9 11.81Z" fill="#364445"/><path d="M3.25 10V8.57h.6c.03 0 .1.05.1.16V9c0 .03-.03.1-.05.12.03.01.1.07.1.2v.48c0 .06-.03.2-.13.2h-.62Zm.25-.97v-.17h.2c.03 0 .05.05.05.1v.19c0 .04-.02.13-.07.16v.12h.02c.01 0 .05 0 .05.05v.16c0 .02-.03.07-.05.07h-.2v-.4h.1v-.28h-.1Z" fill="#608758"/><path d="M3.58 8.15v.3h-.16v-.01c0-.08-.02-.15-.09-.15-.07 0-.08.07-.08.15v.7h.25v-.28h.19v.4c0 .09-.06.17-.12.17h-.45c-.07 0-.12-.08-.12-.16V8.15c0-.08.05-.15.12-.15h.35c.06 0 .11.07.11.15Z" fill="#283B42"/><path d="M14.25 10V8.57h.6c.03 0 .1.05.1.16V9c0 .03-.03.1-.05.12.03.01.1.07.1.2v.48c0 .06-.03.2-.13.2h-.62Zm.25-.97v-.17h.2c.03 0 .05.05.05.1v.19c0 .04-.02.13-.07.16v.12h.02c.01 0 .05 0 .05.05v.16c0 .02-.03.07-.05.07h-.2v-.4h.1v-.28h-.1Z" fill="#608758"/><path d="M14.58 8.15v.3h-.16v-.01c0-.08-.03-.15-.09-.15-.07 0-.08.07-.08.15v.7h.25v-.28h.19v.4c0 .09-.06.17-.12.17h-.45c-.07 0-.12-.08-.12-.16V8.15c0-.08.05-.15.12-.15h.35c.06 0 .11.07.11.15Z" fill="#283B42"/><path opacity=".7" d="M5.4 7c.24-.32 1.39-1.23 3.51-1.23s3.47.9 3.81 1.27l.82-.9A6.7 6.7 0 0 0 8.9 4.52c-2.4 0-3.9 1.02-4.41 1.67l.9.8Zm0 4.11c.24.32 1.39 1.22 3.51 1.22s3.47-.9 3.81-1.26l.82.9a6.7 6.7 0 0 1-4.63 1.61c-2.4 0-3.9-1.02-4.41-1.66l.9-.8Z" fill="#283B42"/><defs><linearGradient id="am1qbhqiz" x1="7.86" y1="7.48" x2="10.51" y2="9.38" gradientUnits="userSpaceOnUse"><stop offset=".49" stop-color="#6CA232"/><stop offset="1" stop-color="#476533"/></linearGradient></defs></svg>