<!-- by TradingView --><svg width="18" height="18" viewBox="0 0 18 18" xmlns="http://www.w3.org/2000/svg"><path fill="#F0F3FA" d="M0 0h18v18H0z"/><path d="M5.37 10.02v.03c.04.55.18 1.09.33 1.62H4V9.33h-.55c-.15 0-.34-.08-.42-.2-.08-.13 0-.3.09-.4.1-.12.23-.22.38-.32.31-.2.64-.36.98-.5a.28.28 0 0 0 .1-.08A5.34 5.34 0 0 1 8.37 6c.05 0 .05 0 0 .03-1.59.77-3.16 1.8-3 3.99Z" fill="#094"/><path d="M12.3 10.2c.26-.21.49-.46.68-.74v-.04A5.74 5.74 0 0 0 10.2 7.4c-.01 0-.02 0 0 0l.22.21c.44.5.63 1.12.57 1.84-.03.25-.1.5-.21.74-.27.57-.74.98-1.3 1.1-1 .21-1.95-.5-2.19-1.62a2.47 2.47 0 0 1 .41-1.93c-.4.2-.66.4-1.12.73-.14.1-.28.18-.42.26-.2.1-.18-.07-.1-.22a3.86 3.86 0 0 1 3.38-2.19c2.11-.05 4.07 1.24 5.55 2.77v.02c-1.35 1.59-3.3 2.92-5.36 2.88-.4 0-1.04 0-1.63-.53h.01a5.38 5.38 0 0 0 4.3-1.27ZM9.14 8.03h.1c.01 0 .02 0 .01-.02l-.11-.87L9 8c0 .02 0 .03.02.03l.1-.01Zm-.48-.84v.01l.1.9h.01l.21-.06.01-.01c-.11-.3-.2-.55-.33-.84Zm.62.84v.02a2.08 2.08 0 0 1 .23.05 10.15 10.15 0 0 0 .07-.85l-.3.78Zm-1.02-.6c-.02-.02-.02-.02-.01 0l.27.8c0 .02.02.03.04.01l.15-.1c.01-.01.02-.03 0-.05-.13-.23-.29-.45-.45-.66Zm2.12.34c0-.02-.01-.02-.02-.01-.1.09-.16.17-.28.26-.04.02-.04.04-.08.02a.32.32 0 0 0-.16-.02h-.01V8a6.7 6.7 0 0 1 .19-.58c-.18.22-.28.4-.44.62-.02.03-.03.06-.03.1v.02a.57.57 0 0 0-.13.47c.03.15.1.26.2.33.15.12.3.12.48.02.01 0 .02 0 .02.02l.02.01h.02c.3-.16.67-.27.67-.27a4.74 4.74 0 0 1-.53-.04.6.6 0 0 0 .02-.18c0-.02 0-.03.02-.05.06-.07.26-.15.31-.3-.11 0-.3.15-.34.16h-.02a.6.6 0 0 0-.13-.2V8.1c.05-.09.24-.23.22-.34Zm-2.52-.05c-.02-.01-.02-.01 0 0l.47.72h.03l.14-.15v-.03l-.64-.54Zm-.29.43.59.56c.02.02.01.03 0 .02l-.74-.09v.01c.23.07.47.25.7.37.02 0 .02.01 0 .02-.24.04-.54.04-.76.13-.01 0-.01 0 0 0l.74.16c.02 0 .02 0 0 .02l-.7.35v.01l.78-.1h.01l.01-.01a1.3 1.3 0 0 1-.05-.6.92.92 0 0 1 .06-.25v-.01a1.01 1.01 0 0 1 .12-.24l-.01-.02c-.21-.09-.53-.25-.75-.33Zm2.57 1.04v.1l.01.03.76-.12c0-.02-.67-.13-.75-.14-.02 0-.03 0-.03.02v.11Zm.73.54c-.23-.1-.47-.24-.73-.37h-.01l-.06.24v.01l.01.01c.27.05.52.09.79.1Zm-.49.9c.01 0 .01 0 0 0-.11-.24-.28-.47-.42-.7 0-.01 0-.02.01 0l.6.24.1.05c.02.01.02 0 0 0l-.1-.1-.49-.48h-.04v.02a1.17 1.17 0 0 1-.37.48 3.86 3.86 0 0 0-.2.11l-.2.06a6.7 6.7 0 0 1-.37-.02.96.96 0 0 1-.16-.06 1.32 1.32 0 0 1-.45-.44 11.23 11.23 0 0 1-.1-.15l-.6.54c-.01.02-.01.02.01.01l.69-.3c.02 0 .02 0 .01.02l-.45.74h.01c.19-.19.4-.34.6-.5.03-.02.04-.02.03 0l-.24.73.01.02c.01 0 .02 0 .03-.02l.4-.56c.04-.04.05-.04.04.02a16.78 16.78 0 0 0-.05.76c.09-.24.22-.49.3-.74.01-.02.02-.02.02 0 .03.26.14.8.14.8a8.06 8.06 0 0 1 .13-.79c.09.27.22.51.3.77.02.04.02.04.02 0l-.07-.86c0-.02 0-.02 0 0 .15.2.3.53.5.7v-.01a20.51 20.51 0 0 1-.25-.83c.18.15.4.4.61.5Z" fill="#094"/></svg>