<!-- by TradingView --><svg width="18" height="18" viewBox="0 0 18 18" xmlns="http://www.w3.org/2000/svg"><path fill="#F0F3FA" d="M0 0h18v18H0z"/><path d="M11.69 4.84c.47.37.77.86.98 1.36.21.51.27 1.04.32 1.6.01.41.03.9-.05 1.32-.14.93-.43 1.87-.76 2.74-.14.21-.26.47-.36.7-.38.78-1.23 1.21-2.02 1.4-.59.06-1.23.09-1.75-.15a3.17 3.17 0 0 1-1.62-1.43 3.74 3.74 0 0 1-.25-1.92c0-.13-.04-.24-.14-.3-.33-.26-.95-.23-1-.8-.1-.31 0-.66.04-.98.15-.7.42-1.35.69-2 .26-.6.58-1.2 1.1-1.66.53-.35.79-.47 1.5-.63.48-.11.99-.1 1.49-.06.63.1 1.34.35 1.83.8ZM9.2 4.56c-.77 0-1.36.2-1.97.54-.33.77-.93 1.49-1.13 2.3-.16.4-.32.8-.4 1.23-.04.17-.03.34-.04.52 0 .32.62.42.83.54.22.1.33.34.42.54.07.19.02.42.04.62-.05.48 0 .99.22 1.38.34.52.86.95 1.4 1.12.3.12.64.07.95.08.3.03.77-.35 1-.51.31-.22.58-.56.73-.9a7.93 7.93 0 0 0 1.1-3.7c-.01-.76-.05-1.5-.34-2.13a2.56 2.56 0 0 0-.9-1.11 3.55 3.55 0 0 0-1.9-.52Z" fill="#8FB130"/><path d="M8.32 5.15c.3-.09.62-.12.95-.15.44 0 .8.12 1.14.27.2.12.42.23.56.38 0 .02.03.02.03.04 0 .18-.09.3-.4.31-.18-.07-.27-.2-.41-.3a1.65 1.65 0 0 0-1.27-.3c-.28.05-.6.11-.89.14 0-.03-.09-.17.04-.3l.25-.1ZM9.84 11.08c.03-.03.08-.04.12-.08.02 0 .02.02.04.01-.06.05-.04.34 0 .4-.12.1-.23.25-.36.34a.91.91 0 0 1-.6.25A1.6 1.6 0 0 1 8 11.58c.23-.18.09-.26.52-.17.27.08.6.13.87 0 .16-.08.32-.16.45-.33ZM9.63 6c.09-.03.16.06.24.07.15.1.13.22.13.34-.07.06-.3.54-.36.54-.07.1-.2.02-.3 0-.17-.02-.38-.2-.33-.36.25-.16.04-.36.4-.52l.22-.06Z" fill="#8FB130"/></svg>