<!-- by TradingView --><svg width="18" height="18" viewBox="0 0 18 18" xmlns="http://www.w3.org/2000/svg"><path fill="#181B1E" d="M0 0h18v18H0z"/><path d="M9 14A5 5 0 1 0 9 4a5 5 0 0 0 0 10Z" fill="url(#a)"/><path d="m7.8 5 1.36 2.44c.03.07.1.13.17.18a.67.67 0 0 0 .52.06.58.58 0 0 0 .23-.12l2.12-1.94-1.84 2.62a.22.22 0 0 0-.04.12c0 .05.02.09.04.12.02.04.06.07.1.1.04.02.09.04.14.04L14 9l-3.26.36a.2.2 0 0 0-.1.03.16.16 0 0 0-.06.08.12.12 0 0 0 0 .09c0 .03.02.05.05.07l1.31 1.15-1.42-.63a.33.33 0 0 0-.17-.03.36.36 0 0 0-.16.04.32.32 0 0 0-.11.1.23.23 0 0 0-.03.15l.4 2.59-1.1-2.16a.73.73 0 0 0-.26-.28.95.95 0 0 0-.39-.15 1.06 1.06 0 0 0-.42.02.92.92 0 0 0-.37.2l-1.88 1.63L7.81 9.9a.35.35 0 0 0 .07-.2.35.35 0 0 0-.04-.21.44.44 0 0 0-.17-.16.57.57 0 0 0-.23-.08L4 8.87l3.46-.25c.04 0 .07-.02.1-.03a.2.2 0 0 0 .07-.08.12.12 0 0 0 0-.08.2.2 0 0 0-.05-.09l-1.3-1.18 1.57.65.1.01c.04 0 .07-.01.1-.03a.18.18 0 0 0 .07-.06.14.14 0 0 0 .01-.09L7.8 5Z" fill="#fff"/><defs><linearGradient id="a" x1="4.59" y1="11.63" x2="15.67" y2="3.69" gradientUnits="userSpaceOnUse"><stop stop-color="#2EB5D1"/><stop offset="1" stop-color="#008BAA"/></linearGradient></defs></svg>