<!-- by TradingView --><svg width="18" height="18" fill="none" xmlns="http://www.w3.org/2000/svg"><path fill="#F0F3FA" d="M0 0h18v18H0z"/><path d="M11 14v-1.105L7 14h4ZM11 12.302v-1.618l-4 1.085v1.659l4-1.126ZM10.713 10.014v-1.42l-3.38.953v1.455l3.38-.988ZM10.408 7.011H7.633v1.582l2.775-.725v-.857ZM8.965 4c-.693.028-1.031.678-1.113 1h2.296c-.106-.345-.49-1.027-1.183-1ZM8.491 5.505H9.51v.989H8.491z" fill="#40474D"/><path fill-rule="evenodd" clip-rule="evenodd" d="M6.8 6.061 5 5.131l.188-.43 2.697 1.36-2.701 1.286-.18-.473L6.8 6.061ZM11.17 6.061 13 5.144l-.188-.443-2.697 1.36 2.701 1.286.18-.46-1.826-.826Z" fill="#6FC5CC"/></svg>