<!-- by TradingView --><svg width="18" height="18" viewBox="0 0 18 18" xmlns="http://www.w3.org/2000/svg"><path fill="#F0F3FA" d="M0 0h18v18H0z"/><path d="M10.91 4c-2.38 0-3.73 1-4.1 1.5 3.9-1.6 4.68 0 4.68 1.11a8.4 8.4 0 0 1-1.19 4.27c-.88 1.35-2.29 2.49-3.66 2.49s-1.8-.44-1.86-.55c.17.4.86 1.18 2.3 1.18C12.3 14 14 8.98 14 7.73S13.9 4 10.91 4Z" fill="url(#a)"/><path d="M11.19 12.5c-.37.5-1.72 1.5-4.1 1.5C4.1 14 4 11.52 4 10.27S5.7 4 10.92 4c1.43 0 2.11.54 2.5 1.17-.09-.12-.72-.54-2.06-.54-1.37 0-2.78 1.14-3.66 2.49a8.4 8.4 0 0 0-1.2 4.27c0 1.12.79 2.7 4.69 1.12Z" fill="#009844"/><defs><linearGradient id="a" x1="9.39" y1="4" x2="9.39" y2="14" gradientUnits="userSpaceOnUse"><stop stop-color="#3732A2"/><stop offset="1" stop-color="#9EC4FA"/></linearGradient></defs></svg>