<!-- by TradingView --><svg width="18" height="18" viewBox="0 0 18 18" xmlns="http://www.w3.org/2000/svg"><path fill="#F0F3FA" d="M0 0h18v18H0z"/><path d="M7.1 7.8a.57.57 0 0 0-.25-.18 3.83 3.83 0 0 0-3.47.1c-.03.01-.03.04 0 .09l-.13-.04a.05.05 0 0 1-.04-.02V7.7a19.23 19.23 0 0 1 .4-1.17 6.02 6.02 0 0 1 4.63-3.48 5.9 5.9 0 0 1 5.09 1.78 6 6 0 0 1 1.34 6.07.25.25 0 0 1-.1.08 3.6 3.6 0 0 1-3.39-.1 9 9 0 0 1-1.07-.67c-.29-.21-.62-.48-1-.81-.81-.7-1.44-1.23-1.9-1.59-.03-.02-.07-.03-.12-.01Z" fill="url(#acj0a1rbl)"/><path d="M8.96 4.29a4.6 4.6 0 0 1-3.25 1.58l-.18-.02c-.05 0-.06-.03-.02-.06.47-.47.99-.84 1.54-1.1a4.72 4.72 0 0 1 1.82-.45c.06 0 .1.02.1.05Z" fill="#2D4C51"/><path d="M5.7 5.87a4.6 4.6 0 0 0 3.26-1.58c.02-.02.04-.03.08-.02l.02.02v.03a6.14 6.14 0 0 1-.89.83 11.42 11.42 0 0 1-.82.49l-.13.05c-.1.05-.2.08-.3.11-.04 0-.1.03-.17.05a1.38 1.38 0 0 1-.4.09 10.83 10.83 0 0 1-.95.07c-.03 0-.04-.02-.03-.04v-.03c.01-.04.04-.06.09-.06l.25-.01Z" fill="#F0F3FA"/><path d="M13.72 8.83h-1.49l-.01.02v.03l.35.07h-.01v.02l.01.01c0 .02 0 .03-.02.03l-.33-.03V9c-.01.02 0 .03.01.03l2.4.54c-.62.17-1.03.26-1.23.3a3.8 3.8 0 0 1-1.62-.14 4.88 4.88 0 0 1-1.66-.92l.02.02.41.23c.18.08.33.15.47.19.38.1.68.05.9-.16.1-.1.15-.2.14-.32a3.07 3.07 0 0 0-1.19-2.37c-.27-.22-.6-.38-1-.48-.02 0-.04 0-.06.02-.3.54-.78.97-1.45 1.3a.05.05 0 0 1-.06 0l-.63-.53c0-.03.01-.05.04-.07a6.1 6.1 0 0 0 2.54-2.17c.02-.03.05-.04.08-.03a4.88 4.88 0 0 1 3.1 2.88c.18.47.29.95.32 1.46 0 .02 0 .04-.03.05Z" fill="#2D4C51"/><path d="M14.64 9.57h.16l.04.03c.02.01.02.02.01.04 0 0 0 .02-.02.02-.53.14-1.03.26-1.5.35-.51.1-1.05.04-1.63-.16a5.23 5.23 0 0 1-1.48-.8c-.46-.35-1-.8-1.61-1.38a14.02 14.02 0 0 0-1.04-.9.05.05 0 0 1-.02-.04c0-.04.01-.06.04-.06.02 0 .03 0 .04.02l.04.02.63.52c.02.02.04.02.07 0A3.24 3.24 0 0 0 9.8 5.95c.02-.02.04-.03.06-.02.4.1.73.26 1 .48.76.61 1.16 1.4 1.2 2.37 0 .12-.05.23-.15.32-.22.21-.52.27-.9.16a8.27 8.27 0 0 1-.9-.43 4.88 4.88 0 0 0 1.67.91c.54.16 1.08.2 1.61.13.2-.03.61-.12 1.24-.3Z" fill="#F0F3FA"/><path d="M7.1 7.8a1.9 1.9 0 0 0-.96.4.08.08 0 0 1-.08.02 1.66 1.66 0 0 0-.39-.09c-.53-.04-1.04.01-1.53.15a.13.13 0 0 1-.12-.02l-.63-.45c-.04-.05-.04-.08 0-.1a3.83 3.83 0 0 1 3.46-.09c.11.05.2.1.24.18ZM13.62 12.75a5.99 5.99 0 0 1-7.38 1.6A5.95 5.95 0 0 1 3.02 9.3c.34-.17.7-.31 1.08-.42a3.52 3.52 0 0 1 3.25.6 30.85 30.85 0 0 1 1.37 1.2c.36.36.64.62.83.79.31.27.62.5.9.68a4 4 0 0 0 3.14.54c.06-.01.07 0 .03.05Z" fill="#2D4C51"/><path d="M13.72 8.83c.08.06.08.1 0 .14a66.73 66.73 0 0 1-.86.02 1.16 1.16 0 0 1-.3-.04l-.33-.07c-.01 0-.02 0-.02-.02v-.01l.02-.02h1.49Z" fill="#F0F3FA"/><defs><linearGradient id="acj0a1rbl" x1="3.21" y1="7.18" x2="15.62" y2="7.18" gradientUnits="userSpaceOnUse"><stop stop-color="#CECECE"/><stop offset=".17" stop-color="#CBCAC8"/><stop offset=".25" stop-color="#DEDEDE"/><stop offset=".34" stop-color="#CDCDCD"/><stop offset=".6" stop-color="#A7A7A7"/><stop offset="1" stop-color="#D6D6D6"/></linearGradient></defs></svg>