<!-- by TradingView --><svg width="18" height="18" viewBox="0 0 18 18" xmlns="http://www.w3.org/2000/svg"><path fill="#F0F3FA" d="M0 0h18v18H0z"/><path d="M9.04 6a7.9 7.9 0 0 0 1.05 1.37l-.01.04a18 18 0 0 1-1.16 1.41c-.44.5-.8.9-1.08 1.24-.12.16-.27.35-.33.54-.14.44-.06.84.24 1.2.42.5 1.19.69 1.85.45.86-.3 1.25-1.15.82-1.87a12.16 12.16 0 0 0-.7-.88v-.02l1.1-1.36h.04c.3.28.57.57.82.86.38.46.7 1.03.8 1.58a3.42 3.42 0 0 1-.03 1c-.17.69-.55 1.25-1.14 1.7-.74.54-1.6.79-2.58.73a3.78 3.78 0 0 1-1.55-.42 3.15 3.15 0 0 1-1.44-1.46c-.14-.3-.22-.56-.23-.8a5.8 5.8 0 0 1 0-.7c0-.11.03-.23.08-.36.14-.4.34-.78.61-1.12.4-.51.83-.92 1.33-1.4a10.1 10.1 0 0 0 1.43-1.76v-.03a6.63 6.63 0 0 0-.74-.84 1.96 1.96 0 0 1-.47-.63 1 1 0 0 1 .2-1.02c.21-.25.5-.4.87-.44.27-.03.52 0 .76.1.43.2.7.56.72.98.03.53-.43.93-.8 1.3a3.67 3.67 0 0 0-.47.58l.01.04Z" fill="#00A0E9"/></svg>