<!-- by TradingView --><svg width="18" height="18" viewBox="0 0 18 18" xmlns="http://www.w3.org/2000/svg"><path fill="#F0F3FA" d="M0 0h18v18H0z"/><path d="M6.79 5.8c.16-.77.5-2.32.51-2.42l1.26 1.5h.9l.35 2.6 2.7-2.6.25 1.33 1.01.25-1.4 1.7 1.4.34-2.24 1.8 1.5 1.57-1.91-.15-.6.86-1.05-.86-1.38 1.38H5.61l1.18-1.78-2.86-.24 1.4-1.23-1.4-.94-.41-1.27 1.25-.35L7.3 8.5 5.8 5.8h.99Z" fill="#8B0304"/><path d="M6.99 3.35a6.01 6.01 0 0 0-3.77 4.04l1.58-.44 1.74.83-1.28-2.3h1.27l.46-2.13ZM3.17 7.59a6.02 6.02 0 0 0 .22 3.54l1.42-1.25-1.14-.76-.5-1.53Zm.31 3.77a6 6 0 1 0 9.25-7.06l.3 1.65 1.3.32-1.4 1.7 1.54.37L12 10.32l1.84 1.93-2.57-.2-.68 1-1.1-.9-1.27 1.26h-3.2l1.2-1.81-2.74-.24Zm9.21-7.09a5.97 5.97 0 0 0-5.14-1.1l1.16 1.4h1.04l.3 2.25 2.64-2.55Z" fill="#1C3F95"/></svg>