<!-- by TradingView --><svg width="18" height="18" viewBox="0 0 18 18" xmlns="http://www.w3.org/2000/svg"><path fill="#001EFF" d="M0 0h18v18H0z"/><path fill-rule="evenodd" d="M2.58 5c-.43 1.05-.81 3.4 1.14 4.34-.07.31-.22.97-.3 1.12 0 .04-.02.07-.04.1-.07.17-.14.34-.36.34-.27 0-.23-.39-.21-.47 0-.1.08-.33.15-.53l.1-.32c.02-.12-.01-.43-.4-.56-.31-.1-.57.14-.66.27l.16.08-.13.48h.13c-.03.2.13.38.2.45l.13-.63.06.14c.15-.12.1-.45.05-.6.18-.05.27.32.16.6a6.6 6.6 0 0 0-.2.65c-.01.23.07.7.48.7.4 0 .6-.38.65-.57.19.5-.07.65-.23.66.05.26-.03.35-.1.43l-.07.09c-.06.11 0 .26.03.32 0-.11.05-.23.08-.27-.05.3.04.49.09.54a.28.28 0 0 1 .1-.25c-.05.35.12.5.21.53v-.22c.13.34.33.27.41.19l.25.07c-.01-.08-.06-.21-.08-.27l.34.28a.83.83 0 0 0-.13-.46l.21.21c0-.6-.42-.46-.63-.32-.12-.07-.15-.3-.15-.4l.22-.39.23.07c-.07-.28.08-.61.11-.69.03-.06-.02-.23-.05-.3l.08-.02c.15.02.47.06.56.1.08.04.01.5-.03.72l.06.12c.16.12.2.22.25.3.06.11.09.18.5.18.53 0 .77-.32.81-.48h.08c.48.77 1.2 1.4 2.26 1.67.62-.09 1.5-.55 2.14-1.66.05.16.28.47.81.47.41 0 .44-.07.5-.19a.71.71 0 0 1 .25-.29l.06-.12c-.04-.22-.11-.68-.03-.72.1-.04.41-.08.56-.1l.08.02c-.03.07-.08.24-.05.3.03.08.18.4.11.69l.23-.07.22.38c0 .11-.03.34-.15.41-.21-.14-.63-.28-.63.32l.2-.21a.83.83 0 0 0-.12.46l.34-.28c-.02.06-.07.19-.08.27l.25-.07c.08.08.28.15.4-.2v.23c.1-.03.27-.18.22-.53.04.03.11.12.1.25.05-.05.14-.23.1-.54.02.04.07.16.07.27.04-.06.1-.2.03-.32l-.07-.09c-.07-.08-.15-.17-.1-.43-.16-.01-.42-.16-.23-.66.05.2.25.56.65.56s.5-.46.49-.69a6.59 6.59 0 0 0-.21-.65c-.11-.28-.02-.65.16-.6-.04.15-.1.48.05.6l.06-.14.12.63c.08-.07.24-.26.2-.45h.14l-.13-.48.16-.08c-.09-.13-.35-.37-.66-.27-.39.13-.42.44-.4.56l.1.32c.07.2.15.43.15.53.02.08.06.47-.2.47-.23 0-.3-.17-.37-.34a9.64 9.64 0 0 1-.33-1.22c1.94-.95 1.56-3.29 1.13-4.34l-1.25 2.09c-.04.04-.1.2-.06.4l.02.09c.06.24.12.47-.25.6-.41.13-.54-.09-.15-.93h.2c.06-.19.14-.66-.05-1.06.16.1.5.1.56-.67l-.28.17-.17-.16-.11.12-.12-.07.09-.15-.3-.17-.08.15-.14-.07.05-.15-.28-.1-.06.47c-.07.02-.22.1-.22.16-.15-.03-.43.02-.38.4 0-.07.11-.15.44.07.32.21.35.24.33.23-.14.04-.44.1-.59-.02-.03.1-.03.28.26.29l.2-.05c0 .06-.06.2-.35.25-.3.05-.34.04-.32.02l-.48-.28-.05-.42L11.3 6H6.57l-.43.2-.06.42-.49.3c.02 0-.02.02-.32-.03-.3-.06-.35-.19-.34-.25l.2.05c.28-.01.28-.2.25-.29-.15.12-.45.06-.59.02-.02.01.01-.02.34-.23.32-.22.42-.14.43-.07.05-.38-.23-.43-.38-.4 0-.07-.14-.14-.21-.16l-.07-.47-.28.1.05.15-.14.07-.08-.15-.3.17.09.15-.12.07-.11-.12-.17.16-.28-.17c.07.77.4.77.56.67-.2.4-.11.87-.04 1.06h.2c.38.84.25 1.06-.16.92-.37-.12-.31-.35-.25-.6l.02-.08c.04-.2-.02-.36-.06-.4L2.58 5Zm3.45 2.1-.14.15c.04.02.08.05.12.1l.02-.26Zm-.01 1.29a.65.65 0 0 0-.23-.04l.25.3-.02-.26Zm.21 1.43a.86.86 0 0 1-.1.16l.15.04c.04.12.07.24.12.35-.15.07-.24.21-.18.34.08.17.06.33.04.38-.17-.13-.45-.14-.57-.12l.09-.26.26.08c-.03-.01-.12-.12-.23-.43-.1-.29-.24-.33-.43-.38l-.24-.08c-.26-.11-.33-.26-.34-.33.17-.2.44-.4.55-.48l.21.15c.1-.08.12-.3.12-.4l.36.37c-.42.03-.38.37-.3.54.08-.13.26-.33.4-.32l.09.39Zm5.74-2.73.02.26a.84.84 0 0 1 .12-.1l-.14-.16Zm.02 1.3c0 .08 0 .17-.02.25l.24-.3a.66.66 0 0 0-.22.04Zm-.2 1.47.1-.43c.13.01.3.2.38.32.07-.17.11-.51-.3-.54l.35-.37c0 .1.02.32.12.4l.21-.15c.11.08.38.28.55.48 0 .07-.08.22-.34.33l-.24.08c-.2.05-.33.09-.43.38-.11.31-.2.42-.23.43l.26-.08.1.26c-.13-.02-.41 0-.58.12a.58.58 0 0 1 .04-.38c.05-.11-.01-.24-.13-.31l.11-.39.11-.03a.85.85 0 0 1-.07-.12Zm-6.7-3.5a.6.6 0 0 1 .4-.15c.18.01.29-.09.32-.14-.02.12-.1.35-.33.3a1.04 1.04 0 0 0-.39-.02Zm7.82 0a.6.6 0 0 0-.4-.15c-.18.01-.29-.09-.32-.14.02.12.1.35.33.3.23-.04.36-.03.39-.02Z" fill="#fff"/><path d="m7.5 11 .56-3h1.86l.58 3h-3Z" fill="#001EFF" fill-opacity=".8"/></svg>