<!-- by TradingView --><svg width="18" height="18" viewBox="0 0 18 18" xmlns="http://www.w3.org/2000/svg"><path fill="#F0F3FA" d="M0 0h18v18H0z"/><path d="M9.6 10.53c0 .3.12.39.38.25l1.65-.87a.75.75 0 0 0 .3-.3l.44-.75c.42-.72.63-.66.63.19v4.72c0 .2-.09.27-.27.21-.14-.04-.23-.18-.27-.4-.05-.36-.25-.53-.59-.5-2.42.2-4.95.33-7.6.42-.1 0-.16-.02-.2-.06A.26.26 0 0 1 4 13.3c-.02-.1 0-.17.1-.21.37-.19.62-.34.75-.46.2-.2.34-.46.4-.81.45-2.27.88-4.33 1.3-6.17.06-.26-.03-.41-.27-.47-.46-.1-.76-.18-.91-.22-.1-.03-.16-.08-.17-.15-.03-.15.03-.23.17-.24L11 4c.21-.02.25.06.1.22-.31.38-.72.66-1.23.83-.19.07-.28.22-.28.44v5.04Z" fill="#2196F3"/></svg>