<!-- by TradingView --><svg width="18" height="18" viewBox="0 0 18 18" xmlns="http://www.w3.org/2000/svg"><path fill="#F0F3FA" d="M0 0h18v18H0z"/><path d="m9.09 5 .17.2c.14.17.32.4.5.69h-1.5c.17-.27.34-.49.48-.65l.2-.24a7.93 7.93 0 0 1 .15 0Zm.59.03c.51.13 1.16.4 1.73.86h1.17a7.1 7.1 0 0 0-2.9-.86Zm1.22.86a4.8 4.8 0 0 0-1.14-.53c.12.15.24.33.36.53h.78Zm-.61.3h1.02l.03.03c.43.36.8.84 1 1.45h-1.46a6.3 6.3 0 0 0-.6-1.48Zm-.34 0H8.07a6.2 6.2 0 0 0-.63 1.48h3.13a6.16 6.16 0 0 0-.62-1.48Zm.62 3.85H7.42a7.3 7.3 0 0 0 .7 1.77h1.74a8.29 8.29 0 0 0 .7-1.77Zm-.88 2.07h-1.4a5 5 0 0 0 .45.65l.2.24h.09l.23-.28c.12-.14.27-.35.43-.6Zm-.53.89a7.26 7.26 0 0 0 3.42-.89h-1.14c-.7.57-1.52.78-2.04.85l-.24.04Zm1.76-.89c-.4.26-.83.4-1.19.5a7 7 0 0 0 .3-.5h.9Zm.41-.3H10.2a8.64 8.64 0 0 0 .68-1.77h1.51c-.2.82-.6 1.38-1.06 1.77Zm.43 0h1.29c.69-.48 1.2-1.1 1.46-1.77H12.7a3.69 3.69 0 0 1-.94 1.77Zm.9-4.14h1.72a4.13 4.13 0 0 0-1.33-1.48h-1.3c.39.38.72.87.91 1.48Zm-4.15 5.32a4.22 4.22 0 0 1-1.99-.88h-1.1c.86.49 1.93.8 3.1.88Zm-1.49-.88c.43.28.88.44 1.25.53l-.33-.53h-.92Zm.76-.3H6.63a3.3 3.3 0 0 1-1.03-1.77h1.52a7.53 7.53 0 0 0 .66 1.77Zm-.65-4.14c.14-.55.36-1.06.6-1.48h-1a3.33 3.33 0 0 0-1.07 1.48h1.47Zm-1.78 0c.2-.61.54-1.1.94-1.48H4.95c-.59.41-1.04.91-1.33 1.48h1.73Zm1.28-1.78H5.42c.86-.5 1.94-.81 3.12-.88-.53.1-1.26.38-1.9.88Zm.52 0h.75l.34-.5c-.34.1-.72.27-1.09.5ZM5.3 10.04c.16.76.5 1.34.9 1.77H4.96a3.96 3.96 0 0 1-1.46-1.77h1.8Z" fill="#1260A1"/><path d="M3 8h12v1.5H3V8Z" fill="#1260A1" fill-opacity=".6"/></svg>