<!-- by TradingView --><svg width="18" height="18" viewBox="0 0 18 18" xmlns="http://www.w3.org/2000/svg"><path fill="#F0F3FA" d="M0 0h18v18H0z"/><path d="M14 5H8.3v.6h5.28v-.01l.22 4.4h.03L14 5Zm-2.64 6.8-3.96-.24V5.3h-.6v6.74l4.56-.2v-.04Zm1.33-5.17H8.3V6.2h4.8l-.17 4.45h-.02l-.21-4.02Zm-2.64 6.18-3.72-.2V6.2H5.9v6.86l4.15-.2v-.05ZM5 14V7.1h.42v6.31c0 .05 0 .12.06.14h.07l2.06.12 1.1.06c.03 0 .06.01.07.04a.17.17 0 0 1-.08.03L5 14Zm6.65-6.49c.03 0 .06 0 .08.02.03.02.03.06.03.09a343.36 343.36 0 0 0 .2 3.74h.01l.17-4.26H8.3v.41h3.35Z" fill="#1A8B49"/></svg>