<!-- by TradingView --><svg width="18" height="18" viewBox="0 0 18 18" xmlns="http://www.w3.org/2000/svg"><path fill="#FFF200" d="M0 0h18v18H0z"/><path d="M14.77 11.29c-.24.43-.6.72-1.06.93-.25.12-.5.21-.77.3-.98.29-2 .42-3.04.46-.8.03-1.58.02-2.33-.03a13.7 13.7 0 0 1-1.6-.22 7.54 7.54 0 0 1-1.68-.51c-.43-.2-.78-.46-1.02-.86a1.96 1.96 0 0 1 .23-2.32 293.67 293.67 0 0 1 3.64-4.18c.08-.08.15-.16.22-.21a2.4 2.4 0 0 1 3.35.06l.44.48c1.17 1.3 2.32 2.64 3.42 3.95a1.96 1.96 0 0 1 .2 2.15Z"/><path fill-rule="evenodd" d="M7.4 7.2v-.01l-.57.55h-.3l.81-.8.01-.01a1.64 1.64 0 0 1 1.84-1.79 1.66 1.66 0 0 1 1.34.99h-.22l-.01-.01a1.47 1.47 0 0 0-2.36-.33c-.25.26-.38.57-.39.94h.01l.88-.84c.07-.07.15-.11.24-.14a.85.85 0 0 1 .26-.03h.39c.09 0 .16 0 .23.03.45.14.55.7.17.98v.01c.38.29.29.84-.17.99a.65.65 0 0 1-.2.02 20.2 20.2 0 0 0-.47 0V7.3a.58.58 0 0 1-.47-.46h-.67L7.59 7a.02.02 0 0 0 0 .02c.08.41.36.77.74.96.38.2.83.2 1.21.06.33-.13.58-.36.75-.67l.02-.01h.22a1.69 1.69 0 0 1-2.22.84c-.43-.19-.77-.56-.9-1Zm1.48-1.02c-.22.04-.42.21-.46.44l-.01.01h-.43l.6-.58a.4.4 0 0 1 .3-.12h.01v.25Zm.24 0a.6.6 0 0 1 .38.24H9.18l-.07-.03H9.1V6.64h.24c.12 0 .24-.03.32-.12.2-.23.03-.58-.28-.58a12.03 12.03 0 0 0-.28 0v.25Zm-.24.9c-.35-.13-.34-.56 0-.7l.01.01v.69h-.01Zm.33-.03h.28a.6.6 0 0 1-.38.25v.24h.21c.08 0 .14 0 .2-.02a.35.35 0 0 0 0-.65.44.44 0 0 0-.17-.03 4.63 4.63 0 0 1-.24.01v.23s0 .01 0 0l.08-.03h.02Z" fill="#FFF200"/><path d="M13.71 10.88c-.31.2-.85.14-1.15-.06v-.02l.04-.4c.18.15.39.23.62.24.07 0 .14 0 .2-.03.1-.03.19-.13.14-.24-.03-.07-.13-.12-.2-.14-.17-.05-.34-.08-.5-.15-.13-.05-.27-.17-.3-.32a.58.58 0 0 1 .1-.52c.19-.23.53-.26.8-.23.16.02.3.07.44.15v.02l-.11.32h-.02c-.2-.11-.46-.19-.68-.11-.14.05-.21.25-.05.34l.24.08c.16.03.3.08.41.13.16.06.28.2.3.39a.55.55 0 0 1-.28.55ZM5.74 10.59l-.05.4V11H4.27V9h.42v1.58h1.05ZM8.68 9.42h-.62L8.1 9V9H9.7l.05.41H9.1V11h-.42V9.41h-.01ZM10.87 10.5c.3.2.66-.02.66-.39v-1.1l.02-.01h.4v1.07c0 .1 0 .2-.02.27a.85.85 0 0 1-.75.66.85.85 0 0 1-.9-.69A133.37 133.37 0 0 0 10.27 9h.4V10.13c0 .15.08.29.2.37ZM7.5 10.7a1.01 1.01 0 0 0 0-1.4.96.96 0 0 0-1.37 0 1.01 1.01 0 0 0 0 1.4.96.96 0 0 0 1.38 0Zm-.1-.7a.6.6 0 0 1-.58.6.6.6 0 0 1-.59-.6c0-.33.26-.6.59-.6a.6.6 0 0 1 .58.6Z" fill="#FFF200"/></svg>