<!-- by TradingView --><svg xmlns="http://www.w3.org/2000/svg" width="18" height="18" viewBox="0 0 18 18"><path fill="#F0F3FA" d="M0 0h18v18H0z"/><path d="M9.24 10.43c.34.21.63.47.86.75.23.29.55.64.99.89.42.22.95.32 1.62.05h.02a.12.12 0 0 1 .11 0l.04.02c.13.06.17.19.04.32l-.08.08c-.17.15-.53.39-.99.45a2.3 2.3 0 0 1-1.26-.25c-.43-.2-.83-.54-1.16-.94-.4-.47-.9-.69-1.39-.78a3.76 3.76 0 0 0-1.92.15c-.32.22-.7.45-1.03.61-.27.14-.51.23-.69.21l-.13-.02h-.02a.54.54 0 0 1-.19-.17c-.04-.07-.07-.17-.05-.26 0-.07.01-.13.05-.22v-.02c.23-.53 1.53-.94 1.7-1 .6-.35 1.9-1.46 3.2-2.68 1.5-1.39 3-2.9 3.48-3.53.06-.07.12-.09.21-.09.1.02.15.08.2.17l.01.17c-.02.2-.13.6-.59 1.09a53.54 53.54 0 0 1-4.67 4.61c.21 0 .4.02.65.04.34.04.69.17 1 .35Z" fill="#2B2A29" fill-opacity=".9"/></svg>