<!-- by TradingView --><svg width="18" height="18" viewBox="0 0 18 18" xmlns="http://www.w3.org/2000/svg"><path fill="url(#a0wueat4c)" d="M0 0h18v18H0z"/><path d="M12.13 4.34a.17.17 0 0 0-.13.16v9.26c0 .07-.03.13-.08.18-.1.09-.39.05-.52.05-.1 0-.16-.05-.17-.16-.02-.3.52-.06.46-.4V4.57c0-.16-.13-.26-.3-.26-.15 0-.4-.03-.4.21v9.42c0 .04 0 .06-.03.06H7.07l-.04-.02c-.01-.02-.03-.03-.03-.05v-9.4c0-.25-.34-.22-.52-.2-.1.01-.17.09-.17.2v8.95c0 .14.22.19.34.18.12-.01.1.11.08.22-.01.03.05.06.03.08a.15.15 0 0 1-.1.04h-.44c-.25 0-.22-.42-.22-.59V4.68c0-.1 0-.35-.14-.37h-.37c-.12.01-.18.1-.18.22v9c0 .08.06.12.15.13h.18c.03 0 .06.01.08.03.02.01.03.04.03.06.01.05.01.1 0 .14 0 .03-.01.05-.03.07l-.07.04h-.43c-.18-.01-.22-.16-.22-.32v-9.4c0-.15.1-.28.25-.28h7.5c.27 0 .25.24.25.48v9.26c0 .07-.03.14-.1.2-.1.1-.3.05-.43.05a.07.07 0 0 1-.08-.04.25.25 0 0 1-.01-.2c.05-.16.31-.06.31-.29V4.61c0-.1-.01-.25-.14-.27a1.4 1.4 0 0 0-.42 0ZM7.45 7.93c.55-.28.9-.82.93-1.44V4.52c0-.12-.06-.2-.18-.2h-.68c-.13 0-.22.08-.22.21v3.23c0 .04.03.08.04.12a.08.08 0 0 0 .04.05.08.08 0 0 0 .07 0Zm1.84-3.45c0-.08-.07-.17-.14-.17h-.28c-.08 0-.15.08-.15.16v.02c0 .08.06.13.14.13h.28c.06 0 .12 0 .14-.06l.01-.06v-.02Zm1.25-.17h-.75c-.08 0-.17.1-.17.18v1.88c.01.67.38 1.18.93 1.52.05.03.09.02.12-.02a.09.09 0 0 0 .02-.06V4.56c0-.1-.03-.25-.15-.25Zm-3.05 4a.32.32 0 0 0-.19.28v.92c0 .05.04.1.08.13.03.03.07.05.12.05h3.01c.1 0 .18-.09.18-.18v-.96c0-.1-.05-.21-.15-.26a2.14 2.14 0 0 1-1.23-1.92v-1.2c0-.12-.06-.18-.17-.2-.13-.02-.44-.07-.45.17V6.2c.02.73-.52 1.77-1.2 2.12Zm3.2 1.89a.2.2 0 0 0-.06-.14c-.04-.03-.08-.06-.13-.06h-3c-.04 0-.09.03-.12.06-.04.04-.08.09-.08.14v1.62c0 .05.04.1.08.13.03.03.08.05.13.05h2.99c.05 0 .1-.02.13-.05a.2.2 0 0 0 .06-.13V10.2Zm0 2.3a.2.2 0 0 0-.06-.13.18.18 0 0 0-.13-.05H7.51c-.05 0-.1.02-.13.05-.04.04-.08.09-.08.14v.98c0 .05.04.1.08.13a.2.2 0 0 0 .13.07h2.99a.2.2 0 0 0 .13-.07.2.2 0 0 0 .06-.13v-.98Z" fill="url(#b0wueat4c)"/><defs><linearGradient id="a0wueat4c" x1="3.35" y1="3.12" x2="21.9" y2="24.43" gradientUnits="userSpaceOnUse"><stop stop-color="#1A1E21"/><stop offset="1" stop-color="#06060A"/></linearGradient><linearGradient id="b0wueat4c" x1="5" y1="9" x2="13" y2="9" gradientUnits="userSpaceOnUse"><stop stop-color="#865931"/><stop offset="1" stop-color="#AD7D4C"/></linearGradient></defs></svg>