<!-- by TradingView --><svg width="18" height="18" viewBox="0 0 18 18" xmlns="http://www.w3.org/2000/svg"><path fill="#F0F3FA" d="M0 0h18v18H0z"/><path d="M8.32 10.1a12.51 12.51 0 0 1 .87.35c-.2-.03-.44-.1-.7-.2-.19-.07-.33-.11-.42-.12a1.94 1.94 0 0 1-.62-.16.08.08 0 0 0-.06 0c-.1.04-.18.05-.25 0a.05.05 0 0 0-.06 0c-.05.04-.1.04-.16.02a13.3 13.3 0 0 0-.75-.26 3.4 3.4 0 0 0-1.2-.28c-.06 0-.06 0-.02.03a.9.9 0 0 0 .14.05c.15.05.24.12.26.2.01.02 0 .03-.01.02L3.7 9.48h-.02v.03h-.01v.01a4.55 4.55 0 0 0 .93.24l-.01.03-.08.03H4.5l-.39-.1c-.04-.01-.06 0-.03.05s.1.08.19.1a58.85 58.85 0 0 1 .45.08V10l-.14.02c-.04 0-.05.02 0 .03l.46.1a1.11 1.11 0 0 1 .31.1c.03.01.05 0 .07-.01l.05-.05c.02-.02.03-.02.05 0 .05.06.11.1.2.1l.18.03a229.5 229.5 0 0 1 2.19.6l-.01.02c-.81-.23-1.7-.43-2.66-.58-.02 0-.04 0-.05.03v.03c-.01.04 0 .07.04.08l2.86.84c.64.18 1.23.39 1.8.62.22.1.41.15.58.17.14.02.28.06.42.11.36.16.67.26.92.31.1.02.24.07.4.14.18.07.31.12.4.13a7.5 7.5 0 0 1 .82.13.35.35 0 0 0-.13-.09c-.5-.13-.93-.26-1.28-.4a5.84 5.84 0 0 1-1.64-.94c-.16-.13-.3-.29-.43-.47-.2-.3-.2-.62 0-.97.14-.25.37-.5.7-.73.44-.32.95-.63 1.52-.92a.86.86 0 0 0 .3-.25l.48-.62c.2-.27.46-.43.75-.46.14-.02.15-.05 0-.1-.1-.03-.22-.08-.36-.15a.14.14 0 0 0-.07-.02h-.28c-.02 0-.04.01-.05.03l-.02.02h-.06c-.7-.31-1.42-.6-2.19-.87-.04-.01-.07-.04-.07-.07 0-.03 0-.04.03-.03a14.65 14.65 0 0 1 1.78.69h.01l.01-.03c0-.02 0-.03-.02-.04-.62-.3-1.2-.54-1.73-.7a.6.6 0 0 1-.29-.18.26.26 0 0 0-.1-.08l-.12-.05c-.48-.13-.95-.24-1.4-.34a.76.76 0 0 1-.25-.1.52.52 0 0 0-.29-.08c-.03 0-.04.01-.04.05v.15c0 .03.01.05.03.07.07.04.15.08.24.1a17.79 17.79 0 0 0 .45.12v.02l-.4-.07c-.09-.01-.09 0-.01.04.15.08.32.14.51.17.15.03.3.08.44.15a.67.67 0 0 0 .23.07h.03c.15.01.26.05.32.12.02.02.02.03 0 .02-.6-.14-1.15-.25-1.67-.32-.03 0-.05 0-.07.03-.09.16-.06.28.08.37.05.03.05.07.02.1l-.18.25a.05.05 0 0 1-.06.02 95.34 95.34 0 0 0-1.43-.24c-.27-.06-.47-.1-.6-.11-.14-.01-.24.05-.3.17-.02.07-.05.1-.07.12-.08.05-.07.08.02.09a.2.2 0 0 1 .18.13l.04.06.13.11c.02.01.03.03.03.05a.8.8 0 0 1-.11.45.06.06 0 0 0-.01.06c0 .02.02.03.04.04.23.04.4.08.55.13.12.04.11.05 0 .04l-.5-.04c-.06 0-.1.02-.12.07-.02.05-.01.08.03.1l.25.1c.05.02.05.03 0 .03l-.17.01c-.08 0-.09.04-.02.1.1.07.2.13.3.17.05.01.05.02 0 .02l-.2.02-.02.02v.02c0 .02 0 .03.02.03l.25.07c.13.04.23.07.3.07.4.06.68.15.86.28.1.06.2.1.35.12.01 0 .03 0 .04.02.01.03 0 .04-.02.04-.1 0-.19.02-.27.04a.48.48 0 0 1-.25.02 22.58 22.58 0 0 1-.99-.25c-.14.02-.15.06 0 .1a11.85 11.85 0 0 0 .75.26v.05l-.77-.12c-.06 0-.15-.03-.28-.07a1.7 1.7 0 0 0-.36-.08c-.02 0-.04 0-.06.02-.12.08-.23.07-.32-.02a.12.12 0 0 1-.04-.13c.02-.05.05-.07.1-.08.13 0 .3.03.5.1l.1.02c.06 0 .1 0 .1-.02.07-.1.05-.12-.05-.1-.07.03-.14.02-.21-.03a.1.1 0 0 0-.06-.02h-.38c-.04 0-.05-.02-.05-.05l-.01-.06c-.03-.02-.05-.02-.07 0l-.02.03a.06.06 0 0 1-.07.01l-.2-.05c-.01 0-.02 0-.03.02v.04c.06.1.16.15.3.12.04-.01.05 0 .03.04l-.05.11c-.01.02-.03.03-.05.02l-.22-.12a.07.07 0 0 0-.07 0h-.03c-.03.02-.05.01-.05-.02l-.01-.08c0-.04.01-.05.04-.06h.02c.03 0 .04-.02.04-.04 0-.03-.01-.04-.04-.05l-.52-.06-.5-.1a4.45 4.45 0 0 0-.94-.15 1.9 1.9 0 0 0-.11-.1C3 7.9 2.99 7.9 3 7.95c0 .03.03.07.06.13a.1.1 0 0 1 .02.06c-.01.1.02.14.1.15l.65.08c.03 0 .04.02.05.05.01.03.04.08.1.15.02.03.01.05 0 .07l-.05.05c-.02.02-.02.04.02.05l.2.03c.01 0 .02 0 .02.02v.03c0 .02 0 .02-.02.03a.4.4 0 0 1-.22-.06.09.09 0 0 1-.05-.06.35.35 0 0 0-.11-.16c-.03-.03-.05-.02-.06.01a.2.2 0 0 0 0 .08c0 .02 0 .04.03.04.04.01.07.03.08.06.01.03 0 .04-.02.05h-.02c-.02 0-.02 0-.02.03 0 .01 0 .02.02.02.06.01.08.03.08.06 0 .08.05.12.14.13.2.02.38.1.5.2.03.02.04.02.04-.01.02-.1.07-.14.14-.1.09.05.27.13.56.23.08.04.22.07.42.11.3.07.52.14.64.2.07.05.14.07.22.08h.2l.4.05 1.2.28Zm3.2-3.64a.25.25 0 0 1-.18-.1c-.02-.03-.01-.04.02-.04.02 0 .04 0 .05.03l.04.02.11.02c.18.02.3.06.4.12v.03l-.02.03c0 .01-.01.02-.02.01a4.4 4.4 0 0 0-.22-.09l-.18-.03ZM4.44 8.53l-.49-.12v-.02l.02-.02.82.16c.03 0 .04.02.02.04-.07.08-.15.09-.24.03a.59.59 0 0 0-.13-.07Zm.5-.05H4.9c-.02.02-.02.03 0 .05h.05c.02-.02.02-.03 0-.05Zm.95.54c.02 0 .03-.01.03-.02 0 0-.01-.02-.03-.02-.02 0-.03.01-.03.02l.03.02Zm-.94.79.47.23.01.03-.02.04c0 .01-.01.02-.02.01l-.47-.23c-.01 0-.02-.02-.01-.03l.02-.04.02-.01Zm3.06.52c.06.02.11.03.12.01 0 0-.04-.04-.1-.06-.06-.02-.11-.03-.12-.02 0 .02.04.04.1.07Z" fill="#29166E"/><path d="M3.68 9.32v-.03l.01-.02.05.01v.03c-.02.02-.04.02-.06 0ZM5.03 10.43c.01.01.03 0 .05-.02.02-.01.04-.02.06 0l.1.05c.04.03.05.01.03-.03-.04-.08-.1-.11-.21-.1-.09.02-.1.06-.03.1ZM9.59 11.9a3 3 0 0 1 .88.29 2.4 2.4 0 0 0 .53.17c.17.04.3.08.38.13a16.74 16.74 0 0 1-1.23-.33 4.26 4.26 0 0 1-.57-.22c-.05-.03-.05-.04 0-.03Z" fill="#29166E"/></svg>