<!-- by TradingView --><svg width="18" height="18" viewBox="0 0 18 18" xmlns="http://www.w3.org/2000/svg"><path fill="#F0F3FA" d="M0 0h18v18H0z"/><path d="M3 5v.17h.62c.31 0 .44.28.44.62v5.44c0 .34-.13.62-.44.62H3V12h4.5l.44-1.47H7.8l-.36.92c-.1.24-.33.4-.57.4H5.35c-.31 0-.59-.28-.59-.62V5.79c0-.34.28-.62.59-.62h.36V5H3Zm4.94 0v.14h.24c.32 0 .47.28.47.62v5.48c0 .34-.15.62-.47.62h-.24V12h2.24v-.14h-.25c-.32 0-.58-.28-.58-.62v-2.4c0-.2.23-.28.41-.28h3.4c.2 0 .43.08.43.27v2.41c0 .34-.35.62-.67.62h-.24V12H15v-.14h-.25c-.32 0-.46-.28-.46-.62V5.76c0-.34.14-.62.46-.62H15V5h-2.32v.14h.24c.32 0 .67.28.67.62V7.9c0 .2-.24.42-.42.42h-3.4c-.2 0-.42-.22-.42-.42V5.76c0-.34.26-.62.58-.62h.25V5H7.94ZM15 12.82H3V13h12v-.18Z" fill="#211D1E"/></svg>