<!-- by TradingView --><svg width="18" height="18" viewBox="0 0 18 18" xmlns="http://www.w3.org/2000/svg"><path fill="#F0F3FA" d="M0 0h18v18H0z"/><path d="M4.57 7.18 3.7 5.65l4.72-1.1 5.75 1.1-.58 1.32-.36 4.44-3.98 2.11-4.28-2-.4-4.34Z" fill="url(#a)"/><path d="M14.92 5.3 9 4v.36l5.18 1.37-.59 1.39h.52l.81-1.44a.34.34 0 0 0 .08-.2c0-.1-.05-.17-.08-.2Z" fill="url(#b)"/><path d="M8.99 4.35v-.17L3.43 5.42l-.23-.18-.2.18v.16l.43.11.97 1.43h.15l-.8-1.15v-.33L9 4.35Z" fill="url(#c)"/><path d="m3.47 5.47-.27-.23L9 4v.21L3.47 5.47Z" fill="url(#d)"/><path d="M3.43 5.66 3 5.58l.89 1.59h.54L3.43 5.66Z" fill="#53524E"/><path d="m4.28 5.92-.54-.2v.24l.81 1.2h.43l-.7-1.24Z" fill="url(#e)"/><path d="M9 4.35 3.77 5.62l-.02.13.51.2L9 4.98v-.64Z" fill="url(#f)"/><path d="m4.01 10.33-.1-3.16H5v3c0 .93.56 1.42.86 1.55l3.15 1.31V14l-3.15-1.27a4.33 4.33 0 0 1-1.44-1.01c-.29-.42-.4-1.1-.4-1.4Z" fill="url(#g)"/><path d="m4.07 9.86-.11-2.7h.45c.04 1.14.17 3.49.31 3.94.14.45.6.73.82.82L9 13.38v.53a70.07 70.07 0 0 1-3.83-1.64c-.4-.25-.7-.56-.87-1a6.33 6.33 0 0 1-.24-1.4Z" fill="url(#h)"/><path d="m13.96 10.33.1-3.2H13v3.03c0 .94-.58 1.43-.87 1.56L9 13.03V14l3.12-1.27c.35-.16 1.13-.6 1.42-1.01.29-.42.4-1.1.4-1.4Z" fill="url(#i)"/><path d="m13.95 9.86.15-2.75h-.45a35.22 35.22 0 0 1-.35 3.99c-.14.45-.6.73-.82.82l-3.47 1.46v.53c1.14-.47 3.5-1.44 3.82-1.64.41-.25.7-.56.88-1 .13-.34.22-1.08.24-1.4Z" fill="url(#j)"/><path d="M14.14 5.63 9 4.31V5l4.72.94-.66 1.2h.58c.19-.35.52-1.07.6-1.2.07-.13-.03-.25-.1-.3Z" fill="url(#k)"/><path d="m14.26 5.75-.57.2-.66 1.2h.62c.17-.34.53-1.04.59-1.13.05-.1.04-.22.02-.26Z" fill="url(#l)"/><path d="M9 7H5.12l-.45-.96L9 5.34V7Z" fill="url(#m)"/><path d="M9 7h3.88l.45-.96L9 5.34V7Z" fill="url(#n)"/><path d="M5.67 6v.67h.66v-.2H5.9V6h-.23Zm1 0v.57c0 .05.05.1.11.1h.77c.07 0 .12-.05.12-.1V6H7.4v.49h-.48V6h-.26ZM9 6.57V6h.26v.49h.49V6H10v.57c0 .05-.05.1-.12.1h-.76c-.07 0-.12-.05-.12-.1ZM7.78 6l.35.37v.3h.3v-.31L8.8 6h-.33l-.17.22L8.13 6h-.35Zm2.66.66h-.29l.33-.65h.38l.32.65h-.29l-.04-.1h-.37l-.04.1Zm.1-.27h.25l-.09-.24h-.07l-.09.24Zm.8.27v-.65h.43l.28.48V6h.28v.65h-.43l-.32-.47v.47h-.25Z" fill="#FEFEFE"/><path d="M8.17 7.17h-1.5v1.5h-1.5l.11 1.66h1.39V8.67h1.5v1.66h1.66V8.67H8.17v-1.5Zm0 3.16h-1.5v1.5h1.5v-1.5Zm1.66-3.16h1.5v1.5h1.5l-.11 1.66h-1.39V8.67h-1.5v-1.5Zm1.5 3.16h-1.5v1.5h1.5v-1.5Zm-1.5 1.5H8.17v.62l.87.38.8-.38v-.62Z" fill="url(#o)"/><defs><linearGradient id="a" x1="4.87" y1="8.61" x2="12.97" y2="8.61" gradientUnits="userSpaceOnUse"><stop stop-color="#221713"/><stop offset=".47" stop-color="#221715"/><stop offset=".6" stop-color="#1A100E"/><stop offset="1" stop-color="#231814"/></linearGradient><linearGradient id="b" x1="9.26" y1="4.31" x2="13.85" y2="6.95" gradientUnits="userSpaceOnUse"><stop stop-color="#92918F"/><stop offset="1" stop-color="#5D5D5D"/></linearGradient><linearGradient id="c" x1="6.33" y1="5.11" x2="6.08" y2="7.34" gradientUnits="userSpaceOnUse"><stop stop-color="#F7F7F7"/><stop offset=".31" stop-color="#BDBBBC"/><stop offset=".73" stop-color="#979596"/><stop offset=".94" stop-color="#DDDBDC"/></linearGradient><linearGradient id="d" x1="8.78" y1="4.1" x2="2.54" y2="5.64" gradientUnits="userSpaceOnUse"><stop stop-color="#F7F7F7"/><stop offset=".81" stop-color="#5D5C5A"/></linearGradient><linearGradient id="e" x1="4.32" y1="5.72" x2="4.32" y2="7.12" gradientUnits="userSpaceOnUse"><stop offset=".14" stop-color="#777978"/><stop offset="1" stop-color="#FFFFFB"/></linearGradient><linearGradient id="f" x1="8.93" y1="5" x2="6.45" y2="5" gradientUnits="userSpaceOnUse"><stop stop-color="#959595"/><stop offset="1" stop-color="#fff"/></linearGradient><linearGradient id="g" x1="4.07" y1="7.81" x2="9.69" y2="11.89" gradientUnits="userSpaceOnUse"><stop stop-color="#605E5F"/><stop offset=".23" stop-color="#898989"/><stop offset=".47" stop-color="#5D5D5D"/><stop offset="1" stop-color="#A9A6A3"/></linearGradient><linearGradient id="h" x1="9.01" y1="10.31" x2="7.55" y2="13.16" gradientUnits="userSpaceOnUse"><stop stop-color="#BFBBB8"/><stop offset=".22" stop-color="#7E7D7B"/><stop offset=".61" stop-color="#BFBFBF"/><stop offset="1" stop-color="#E4E4E4"/></linearGradient><linearGradient id="i" x1="13.9" y1="7.81" x2="9.52" y2="13.61" gradientUnits="userSpaceOnUse"><stop stop-color="#FDFFFE"/><stop offset=".31" stop-color="#8E8D8D"/><stop offset=".47" stop-color="#FFFEFF"/><stop offset=".67" stop-color="#6E6A67"/><stop offset="1" stop-color="#FDFDFD"/></linearGradient><linearGradient id="j" x1="15.9" y1="12.58" x2="9.38" y2="13.88" gradientUnits="userSpaceOnUse"><stop offset=".13" stop-color="#4E4A49"/><stop offset=".31" stop-color="#888"/><stop offset=".55" stop-color="#E3E3E3"/><stop offset=".72" stop-color="#C7C3C2"/><stop offset=".86" stop-color="#FBFBFB"/><stop offset=".97" stop-color="#C3C2C0"/></linearGradient><linearGradient id="k" x1="9.06" y1="4.65" x2="13.32" y2="6.2" gradientUnits="userSpaceOnUse"><stop stop-color="#E3E2E0"/><stop offset="1" stop-color="#B5B1B0"/></linearGradient><linearGradient id="l" x1="13.65" y1="5.75" x2="13.65" y2="7.15" gradientUnits="userSpaceOnUse"><stop stop-color="#EDEDED"/><stop offset="1" stop-color="#C3C9C9"/></linearGradient><linearGradient id="m" x1="4.98" y1="6.39" x2="8.85" y2="6.39" gradientUnits="userSpaceOnUse"><stop stop-color="#058C40"/><stop offset="1" stop-color="#018E40"/></linearGradient><linearGradient id="n" x1="13.02" y1="6.39" x2="9.15" y2="6.39" gradientUnits="userSpaceOnUse"><stop stop-color="#058C40"/><stop offset="1" stop-color="#017E3C"/></linearGradient><linearGradient id="o" x1="8.71" y1="12.1" x2="9.75" y2="12.1" gradientUnits="userSpaceOnUse"><stop offset=".19" stop-color="#fff"/><stop offset=".43" stop-color="#C2BDB9"/><stop offset=".91" stop-color="#F6F8F7"/></linearGradient></defs></svg>