<!-- by TradingView --><svg width="18" height="18" viewBox="0 0 18 18" xmlns="http://www.w3.org/2000/svg"><path fill="#F0F3FA" d="M0 0h18v18H0z"/><path d="M5 10.23V5h-.33C4.3 5 4 5.28 4 5.62v6.76c0 .34.3.62.67.62h8.66c.37 0 .67-.28.67-.62v-1.23l-.92.86a.7.7 0 0 1-.88.05l-1.74-1.2a.7.7 0 0 0-.87.06L8.41 12a.7.7 0 0 1-.87.05l-2.27-1.34a.6.6 0 0 1-.27-.49Z" fill="#920005"/><path d="M13.33 5H8v5.88c0 .1.13.16.22.1l2.04-1.65c.24-.2.59-.2.84-.03l1.77 1.23a.7.7 0 0 0 .87-.06l.26-.24V5.62c0-.34-.3-.62-.67-.62Z" fill="#920005"/></svg>