<!-- by TradingView --><svg width="18" height="18" viewBox="0 0 18 18" xmlns="http://www.w3.org/2000/svg"><path fill="#F0F3FA" d="M0 0h18v18H0z"/><path d="M2 7h4v.52H2V7Zm.67 1.5H6V9H2.67V8.5ZM6 10H3.33v.52H6V10Zm-2 1.48h2V12H4v-.52ZM12.57 7H16v.52h-3.43V7ZM12 8.5h3.43V9H12V8.5Zm3 1.5h-2.63v.52H15V10Zm-2.54 1.48h1.85V12h-1.85v-.52ZM8.75 12.5v.33c0 .1-.07.17-.17.17H7.34a.33.33 0 0 1-.34-.34v-6.5c0-.08.07-.16.17-.16h.34c.08 0 .17.08.17.17v6.16h.9c.1 0 .17.08.17.16ZM10 6.67V9h1.21c.1 0 .17.1.17.19v.33c0 .09-.07.17-.17.17h-1.2v3.14c0 .1-.09.17-.19.17h-.34a.17.17 0 0 1-.17-.17v-6.5c0-.17.16-.33.34-.33h1.56c.1 0 .17.08.17.17v.34c0 .09-.07.16-.17.16h-1.2Z" fill="#4A494C"/></svg>