<!-- by TradingView --><svg width="18" height="18" viewBox="0 0 18 18" xmlns="http://www.w3.org/2000/svg"><path fill="#F0F3FA" d="M0 0h18v18H0z"/><path d="M10 12.95c-.56-.15-1.15-.02-2.06-.6A3.91 3.91 0 0 1 6.3 7.72c.13-.4.3-.62.43-.95-.24-.08-.39-.28-.65-.38a4.44 4.44 0 0 0-.78 2.39A4.7 4.7 0 0 0 10 13.7v-.75Z" fill="#0AAEFF"/><path d="M10 14.26a5.36 5.36 0 0 1-5.26-4.54l-.74.1c-.02.58.43 1.66.67 2.08A6.04 6.04 0 0 0 10 15v-.74ZM10 3a6.5 6.5 0 0 0-4.05 1.5A6 6 0 0 0 4 8c.17.09.54.15.78.13A5.29 5.29 0 0 1 10 3.78V3ZM8.07 10.63c-.13-.3-.42-.53-.5-1.23A2.5 2.5 0 0 1 10 6.55v-.74c-1.42 0-2.39.85-2.85 1.76-.58 1.12-.38 2.73.37 3.5.18-.07.44-.3.55-.44Z" fill="#0AAEFF"/><path d="M10 4.35c-1.35.07-1.81.3-2.83.92.1.2.31.42.45.64.33-.15.61-.37 1.03-.53.42-.15.89-.24 1.35-.22v-.8Z" fill="#0AAEFF"/><path d="M9.53 7.6c-.3-.17-.53-.02-.53.32v2.54c0 .34.23.49.53.32l2.25-1.27c.3-.17.3-.45 0-.62L9.53 7.6Z" fill="#FF3030"/></svg>