<!-- by TradingView --><svg width="18" height="18" viewBox="0 0 18 18" xmlns="http://www.w3.org/2000/svg"><path fill="#055A5F" d="M0 0h18v18H0z"/><path d="M8.9 5H10v4h-.67V5.84L7.82 9h-.66l-1.5-3.16V9H5V5h1.1l1.4 3.04L8.9 5ZM6.23 12.06c-.01-.2.06-.4.16-.57.13-.21.34-.34.54-.5-.11-.12-.28-.3-.37-.49a.92.92 0 0 1-.1-.48.93.93 0 0 1 .3-.59c.2-.17.48-.25.78-.25.28 0 .5.1.67.25a.9.9 0 0 1 .3.58.89.89 0 0 1-.17.54c-.13.2-.33.36-.54.48l.64.66.51-.54.16.62-.3.3.91.93H8.9l-.48-.48c-.13.12-.28.26-.44.33-.21.1-.43.16-.67.15-.27-.02-.55-.1-.75-.28-.18-.17-.3-.42-.32-.66ZM7.06 10c-.02.11.02.24.08.34.06.12.18.19.29.31.1-.07.32-.19.4-.34.06-.1.07-.21.05-.31a.36.36 0 0 0-.13-.21.46.46 0 0 0-.28-.1.42.42 0 0 0-.22.06.43.43 0 0 0-.19.25Zm-.19 2c0 .1.05.22.13.3a.62.62 0 0 0 .7.08c.13-.06.25-.18.32-.25l-.7-.73c-.2.12-.27.17-.36.3-.06.08-.1.2-.09.3ZM12.79 10.54a.99.99 0 0 0-.38-.58c-.22-.14-.5-.2-.76-.18-.31.02-.66.12-.87.34-.25.26-.36.66-.34 1.01.02.35.17.73.43.97.22.2.55.3.84.3.28 0 .55-.05.76-.2.2-.14.34-.33.38-.56h-1.39v-.55h2.04V13h-.51l-.09-.5c-.16.18-.28.27-.45.34-.27.12-.54.16-.87.16-.54 0-.96-.21-1.29-.53a1.78 1.78 0 0 1-.57-1.35c0-.6.18-1.05.55-1.4.36-.35.83-.54 1.43-.54.51 0 .91.1 1.26.37.28.22.5.64.54 1h-.71Z" fill="#fff"/></svg>