<!-- by TradingView --><svg width="18" height="18" viewBox="0 0 18 18" xmlns="http://www.w3.org/2000/svg"><path fill="#F0F3FA" d="M0 0h18v18H0z"/><path d="M12.67 6H15v.34h-.28c-.3 0-.39.22-.39.5v4.31c0 .27.1.55.4.55H15v.3h-2.33v-.3h.37c.3 0 .3-.27.3-.54V9H10v2.21c0 .24.37.49.63.49h.04v.3H8.45v-.3h.16c.26 0 .39-.25.39-.49v-4.3L6.9 12h-.28L4.5 6.66v4.3c0 .38.3.68.71.68h.46V12H3v-.36h.24c.41 0 .76-.3.76-.67V6.8c0-.2-.2-.37-.42-.37H3V6h2.28l1.82 4.4 1.77-3.96-.27-.14V6h2.07v.3h-.17c-.19 0-.5.28-.5.45V8.5h3.33V6.83c0-.27 0-.49-.29-.49h-.37V6Z"/></svg>