<!-- by TradingView --><svg width="18" height="18" viewBox="0 0 18 18" xmlns="http://www.w3.org/2000/svg"><path fill="#F0F3FA" d="M0 0h18v18H0z"/><path fill-rule="evenodd" d="M2 7v3.5h.63V8.18c.09-.16.2-.31.34-.31.23 0 .28.28.28.42v2.12h.63v-2.1c.1-.2.24-.44.4-.44.23 0 .38.28.39.42v2.12h.62V8.04c0-.38-.2-.98-.72-.98-.4 0-.63.43-.69.65v.12c-.05-.36-.2-.77-.62-.77-.32 0-.53.27-.63.49V7H2Zm3.76.23V8c.12-.1.47-.3.77-.3.29 0 .43.22.47.54-.38.03-1.24.16-1.24 1.2 0 1.14.76 1.26 1.26.83v.23h.63V8.12C7.65 7.75 7.5 7 6.7 7c-.38 0-.8.15-.94.23Zm1.26 2.46v-.8c-.5.08-.62.39-.63.56-.01.13.02.4.33.4.13 0 .23-.06.3-.16ZM10 9.33v.89c-.08.1-.35.28-.76.28-.5 0-1.24-.41-1.24-1.76C8 7.4 8.7 7 9.24 7a.9.9 0 0 1 .76.38v.9h-.1c-.08-.22-.2-.5-.66-.5-.5 0-.5.63-.49 1.06v.06c0 .43.12.83.5.83.37 0 .6-.24.64-.4H10Z" fill="url(#a)"/><path fill-rule="evenodd" d="M14.86 10.63c-.12.2-.25.27-.38.2a.18.18 0 0 1-.1-.15c0-.02 0-.03-.02-.03h-.04l-.27.32c-.05.05-.08.07-.1.07-.11 0-.18-.07-.2-.2l-.04-.23c0-.05-.03-.06-.07-.02l-.25.27c-.02.02-.04.02-.05 0a.1.1 0 0 1-.01-.05v-.04c.22-.28.42-.55.6-.82.03-.05.07-.07.12-.06l.03.01c.04 0 .05.03.03.07-.1.21-.14.46-.14.73 0 .02 0 .04.02.05l.05-.01c.15-.14.25-.3.32-.46.02-.06.08-.09.16-.08.03 0 .05.03.05.07 0 .1.01.2.05.28.01.02.03.04.06.04s.05 0 .06-.03c.21-.34.39-.68.53-1.03.01-.02.03-.03.05-.03h.06c.03 0 .04.01.03.05l-.23.84c-.06.17-.1.33-.1.48 0 .15-.04.3-.1.48l.02.02h.02c.07-.18.11-.36.13-.55a1.75 1.75 0 0 1 .15-.49c.11-.27.2-.26.29.02 0 .04.05.13.13.25.03.04.05.04.08 0l.13-.12c.01-.02.03-.02.04 0 .02 0 .03.01.03.03v.02a.74.74 0 0 1-.26.3c-.05.03-.1.02-.15-.03l-.16-.17a.05.05 0 0 0-.05-.02.05.05 0 0 0-.04.04c-.06.14-.14.43-.24.85a1.1 1.1 0 0 1-.1.27c-.13.2-.2.17-.2-.08 0-.24.02-.45.05-.61.01-.07.03-.21.04-.44 0-.04 0-.05-.03 0Zm-4.42-.08-.18.17H2V11h8.32l.19-.31.06-.06c.04-.03.06-.02.07.02.02.11.08.21.17.3.04.04.04.08.01.13-.12.16-.21.32-.28.47a.68.68 0 0 0-.03.24c0 .07.02.13.07.17.05.04.1.05.16.03a.8.8 0 0 0 .31-.19c.27-.24.3-.5.13-.8-.03-.04-.03-.08 0-.12.2-.19.37-.39.5-.6.04-.06.09-.07.14-.03.08.05.11.14.1.27a1.5 1.5 0 0 1-.1.4c-.01.04 0 .07.02.1.02.02.05.02.08.01.2-.08.4-.2.56-.36.06-.06.08-.05.06.04-.01.1 0 .17.03.24.05.07.11.1.2.08a.64.64 0 0 0 .3-.14c.15-.12.26-.29.33-.48a.37.37 0 0 0-.01-.31c-.05-.1-.14-.13-.25-.11-.03 0-.06-.01-.07-.04-.02-.05-.05-.07-.1-.07a.1.1 0 0 0-.08.04c-.2.26-.42.5-.66.73-.15.15-.19.13-.1-.07l.03-.25a.38.38 0 0 0-.14-.33c-.12-.1-.23-.13-.33-.1a.12.12 0 0 0-.07.08c-.1.24-.26.5-.5.78-.05.06-.1.05-.13-.02l-.11-.2a.22.22 0 0 1 .03-.26c.16-.2.29-.35.37-.48.14-.23.09-.3-.15-.22a54.06 54.06 0 0 0-.65.91l-.04.06Zm2.43-.08c-.1.15-.12.32-.05.36.06.05.2-.04.29-.2.09-.16.11-.32.05-.37-.07-.04-.2.05-.3.2Zm-2.1 1.34c.29-.16.37-.36.26-.6-.02-.04-.05-.04-.07 0-.1.1-.2.23-.27.36-.04.07-.06.13-.05.17.01.08.06.1.13.07Z"/><defs><linearGradient id="a" x1="6" y1="7" x2="6" y2="10.5" gradientUnits="userSpaceOnUse"><stop offset=".09" stop-color="#F42901"/><stop offset=".54" stop-color="#CC3B22"/><stop offset=".79" stop-color="#F5917B"/></linearGradient></defs></svg>