<!-- by TradingView --><svg width="18" height="18" viewBox="0 0 18 18" xmlns="http://www.w3.org/2000/svg"><path fill="#F0F3FA" d="M0 0h18v18H0z"/><path d="M8.37 8.03c-.3.11-.23.45.09.45.73 0 1.43.04 2.11.11.3.03.67.15.83.44.03.06.06.14.07.25.04.29.04.6-.01.91-.08.46-.42.65-.82.71a11.3 11.3 0 0 1-2.67.04c-.4-.06-.72-.12-.88-.5a2.25 2.25 0 0 1-.08-.82l.03-.02H8.1a.08.08 0 0 1 .06.03.09.09 0 0 1 .02.07c-.03.2.06.3.27.3.44.03.96.03 1.57.02.08 0 .16-.02.23-.06.19-.1.13-.33 0-.42a.98.98 0 0 0-.52-.08c-.47.02-.91.01-1.34 0-.35-.02-.67-.04-.93-.18-.5-.28-.45-.79-.44-1.3 0-.33.13-.56.36-.69.1-.05.3-.1.65-.17C8.48 7.04 9 7 9.6 7a4.43 4.43 0 0 1 1.23.2c.45.15.55.65.52 1.1 0 0 0 .02-.02.03a.06.06 0 0 1-.04.02h-.99l-.02-.02c-.05-.08-.07-.2-.13-.25a.47.47 0 0 0-.32-.12 9.97 9.97 0 0 0-1.08 0c-.14 0-.26.02-.38.07Z" fill="#018FD5"/><path fill-rule="evenodd" d="M15.94 10.05c.04-.24.06-.59.06-1.05 0-.46-.02-.8-.06-1.04-.08-.46-.3-.74-.64-.84C14.89 7 14.53 7 14.07 7h-.14c-.46 0-.82 0-1.22.11-.35.1-.57.38-.65.84-.04.24-.06.59-.06 1.05 0 .46.02.8.06 1.04.08.46.3.74.64.84.41.12.77.12 1.23.12h.14c.46 0 .81 0 1.22-.11.35-.1.57-.38.65-.84Zm-1.51-1.98a5.18 5.18 0 0 0-.86 0c-.14 0-.39.05-.5.2-.16.24-.15.62-.14.94.02.4.17.63.46.7a3.32 3.32 0 0 0 1.2 0c.3-.06.45-.28.47-.68.01-.33.03-.7-.14-.95-.1-.15-.35-.2-.49-.2Z" fill="#01A998"/><path fill-rule="evenodd" d="m6.66 10.15-.34-.24-.02-.02v-.03c.02-.46.02-.94.01-1.46 0-.42-.06-.76-.33-1.04-.17-.18-.44-.24-.67-.29C5.1 7.03 4.85 7 4.56 7c-.42 0-.82.01-1.2.04-.24.01-.46.05-.66.12a.82.82 0 0 0-.51.46c-.18.4-.2.93-.19 1.44 0 .5.04.93.19 1.3.18.43.6.54.98.58.28.02.72.04 1.3.04.31 0 .63-.03.96-.08.16-.02.32-.08.46-.18a.08.08 0 0 1 .04-.02c.02 0 .03 0 .05.02l.31.23h.04l.03-.03.32-.68a.08.08 0 0 0 0-.05v-.02l-.02-.02Zm-2.62-.91v-.02l.31-.68c.03-.05.06-.06.1-.03l.83.6.02.01h.02l.02-.03V8.97c-.02-.38-.04-.78-.42-.86a6.42 6.42 0 0 0-1.28-.04c-.24.02-.45.09-.54.35-.05.16-.08.34-.08.53 0 .5.07.88.54.95.4.05.82.06 1.23.03.02 0 .02 0 .02-.03a.17.17 0 0 0-.06-.1 12.04 12.04 0 0 1-.71-.56Z" fill="#ED1B24"/></svg>