<!-- by TradingView --><svg width="18" height="18" viewBox="0 0 18 18" xmlns="http://www.w3.org/2000/svg"><path fill="#74070C" d="M0 0h18v18H0z"/><path opacity=".7" d="M5.3 4c.15.09.43.39.43.88 0 .3-.05.38-.1.48-.07.1-.14.22-.18.64h4.93c.09-.2.46-.47 1.32-.47 1.06 0 2.3.96 2.3 2.96 0 1.05-.73 1.58-1.43 2.09-.65.48-1.27.93-1.27 1.77.19.13.57.45.57.61 0 .17-.62.26-.94.28-.17.25-.94.76-2.61.76s-2.28-.6-2.38-.9c.12-.13.41-.48.6-.86l.17-.34c.12-.28.2-.47.46-.49l-.3-.34v-.37l.46-.58-.36-.39V9.3c.23-.28.68-1.07.68-1.93-.48-.1-1.54-.43-1.92-1.06H5l.21-.43a1.6 1.6 0 0 1-.13-.68c0-.2.05-.31.1-.44.05-.17.12-.36.12-.76Zm5.2 2.34c-.13.22-.63.75-1.6 1.08.04.34.28 1.18.83 1.83v.4l-.33.52.44.52v.38l-.32.28c.14.07.44.32.55.82h.11c-.02-.14.07-.55.6-1.1l1.6-1.72c.2-.19.6-.8.6-1.75s-1.24-.94-1.86-.81l-.62-.45Z" fill="#fff"/></svg>