<!-- by TradingView --><svg width="18" height="18" viewBox="0 0 18 18" xmlns="http://www.w3.org/2000/svg"><path fill="#F0F3FA" d="M0 0h18v18H0z"/><path fill="#FFED02" d="M2 10h14v1H2z"/><path d="M7.68 7.39H2V10h14V7.39h-5.68c-.24.34-.74.58-1.32.58-.58 0-1.08-.24-1.32-.58Z" fill="#E11F25"/><path d="M15.7 8.91v.02l-.02.01a28.62 28.62 0 0 1-.76.02c-.01.03-.02.08-.04.09h-.04v-.03a18.8 18.8 0 0 1 0-.51h.04l.02.02.02.06.05.02a29.78 29.78 0 0 1 .73.01V8.91ZM2.3 8h2.9L2.3 9.67V8Z" fill="#FEF6F4"/><ellipse cx="9" cy="7" rx="2" ry="1" fill="#2C2C2C"/><path d="M5 8.5h9v1H5v-1Z" fill="#FEF6F4" fill-opacity=".5"/></svg>