<!-- by TradingView --><svg width="18" height="18" xmlns="http://www.w3.org/2000/svg"><path fill="#E31837" d="M0 0h18v18H0z"/><path d="M9.053 6C6.046 6 3.337 7.115 3.028 8.609c-.206.993.748 2.012 2.205 2.609 1.705-1.683 3.634-3.463 6.15-4.686-2.294 1.603-3.985 3.364-5.364 4.975.464.131.97.252 1.507.319.774-1.3 1.636-2.915 4.183-5.267-1.85 2.416-2.713 3.851-3.46 5.368 2.753.268 5.957-.107 6.72-2.734.33-1.593-2.05-3.012-5.31-3.173-.204-.01-.405-.02-.606-.02zm-.108.243a14.75 14.75 0 012.177.132c-2.366.92-4.034 1.861-6.23 3.213.02.023-1.733-.277-.472-1.853.952-1.19 2.955-1.472 4.525-1.492zm3.09.44s1.602.22 1.997 1.761c.434 1.697-3.68 2.377-3.956 2.123.76-1.999.986-2.016 1.96-3.884z" fill="#fff"/></svg>