<!-- by TradingView --><svg width="18" height="18" viewBox="0 0 18 18" xmlns="http://www.w3.org/2000/svg"><path fill="#142431" d="M0 0h18v18H0z"/><path d="M7.28 8.26a6.09 6.09 0 0 0-.67 1.87H3v-.01c.19-.58.49-1.08.9-1.49.44-.44.94-.71 1.5-.8.65-.11 1.27.02 1.86.39l.04-.01c.25-.44.55-.78.9-1a1.5 1.5 0 0 1 1.27-.2c.36.1.68.32.97.67h.02l.02-.01c.17-.44.37-.79.6-1.06.33-.38.67-.53 1.04-.46.36.07.7.36 1 .88.21.36.39.8.53 1.29a10.54 10.54 0 0 1 .33 1.81h-2.47c-.01 0-.02 0-.02-.02a5.23 5.23 0 0 0-1.02-2.38h-.02c-.26.7-.44 1.49-.53 2.38 0 .01-.01.02-.03.02H8.71c-.02 0-.03 0-.03-.02-.13-.38-.31-.73-.54-1.05a2.98 2.98 0 0 0-.83-.81h-.03Z" fill="#fff"/></svg>