<!-- by TradingView --><svg width="18" height="18" viewBox="0 0 18 18" xmlns="http://www.w3.org/2000/svg"><path fill="#F0F3FA" d="M0 0h18v18H0z"/><path fill="url(#a)" d="M4 5h2.5v8H4z"/><path fill="url(#b)" d="M11.5 5H14v8h-2.5z"/><path d="M7 9.33h2V13H7V9.33Z" fill="url(#c)"/><path d="m7 5 2 3v1H7V5Z" fill="url(#d)"/><path d="M11 5 9 8v1h2V5Z" fill="url(#e)"/><path d="M9 9.33h2V13H9V9.33Z" fill="url(#f)"/><defs><linearGradient id="a" x1="5.25" y1="5" x2="5.25" y2="13" gradientUnits="userSpaceOnUse"><stop stop-color="#EC2550"/><stop offset="1" stop-color="#9C1734"/></linearGradient><linearGradient id="b" x1="12.75" y1="5" x2="12.75" y2="13" gradientUnits="userSpaceOnUse"><stop stop-color="#EC2550"/><stop offset="1" stop-color="#9C1734"/></linearGradient><linearGradient id="c" x1="9" y1="9.18" x2="6.73" y2="12.78" gradientUnits="userSpaceOnUse"><stop stop-color="#000002"/><stop offset="1" stop-color="#A2A6A9"/></linearGradient><linearGradient id="d" x1="9" y1="8.85" x2="7" y2="8.88" gradientUnits="userSpaceOnUse"><stop stop-color="#000002"/><stop offset="1" stop-color="#A2A6A9"/></linearGradient><linearGradient id="e" x1="9" y1="8.85" x2="11" y2="8.88" gradientUnits="userSpaceOnUse"><stop stop-color="#A2A6A9"/><stop offset="1" stop-color="#000002"/></linearGradient><linearGradient id="f" x1="11.19" y1="9.18" x2="8.92" y2="12.78" gradientUnits="userSpaceOnUse"><stop stop-color="#000002"/><stop offset="1" stop-color="#A2A6A9"/></linearGradient></defs></svg>