<!-- by TradingView --><svg width="18" height="18" viewBox="0 0 18 18" xmlns="http://www.w3.org/2000/svg"><path fill="#F0F3FA" d="M0 0h18v18H0z"/><path d="M12.26 8h2.32c.47 0 1.42.2 1.42 1.04C16 10.1 14.5 12 12.3 12H10l.19-.33c.15.05.52.03.77-.4l1.48-2.58c.06-.13.1-.38-.33-.38l.15-.31Zm1.48.3-1.71 3.02c-.06.11-.1.34.24.34.43 0 1.19-.15 1.63-.84l.24-.37c.36-.52.66-.96.66-1.52 0-.54-.7-.65-1.06-.64Z" fill="#5F6062"/><path d="M2.21 11.54 2 12h2.36l.2-.46c-.2-.03-.61-.14-.61-.33s.16-.58.23-.76L5.7 7l-.52 5 4.19-4.86c-.59 1.27-1.8 4.06-1.92 4.19-.13.13-.56.2-.79.23l-.22.44h2.59l.15-.52c-.3 0-.26-.21-.2-.32l1.68-3.82c.07-.17.26-.56.4-.69.15-.12.55-.17.73-.18L12 6H9.59L6.77 9.56 7.23 6H4.77l-.2.45c.71-.03.6.5.47.76-.35.74-1.15 2.65-1.54 3.47-.4.81-1.02.91-1.29.86Z" fill="#B20837"/></svg>