<!-- by TradingView --><svg width="18" height="18" viewBox="0 0 18 18" xmlns="http://www.w3.org/2000/svg"><path fill="#F0F3FA" d="M0 0h18v18H0z"/><path fill-rule="evenodd" d="M8.72 15h.58A6.03 6.03 0 0 0 14 9.34V4.02a.02.02 0 0 0-.01-.02H4L4 4.03v4.3l.01 1.15A6.08 6.08 0 0 0 8.71 15Zm4.6-10.35H4.68a.02.02 0 0 0-.01.02v4.14a5.15 5.15 0 0 0 2.45 4.79 6.52 6.52 0 0 0 1.88.75 6.52 6.52 0 0 0 1.88-.75 5.15 5.15 0 0 0 2.45-4.8V4.67a.02.02 0 0 0-.01-.01Z" fill="#0E77BC"/><path fill-rule="evenodd" d="M9 14.06a5.98 5.98 0 0 1-1.74-.7 4.81 4.81 0 0 1-2.26-4.47 3092 3092 0 0 1 .01-3.88H9a3069.53 3069.53 0 0 0 4 0v3.87a4.81 4.81 0 0 1-2.26 4.47 5.99 5.99 0 0 1-1.73.71ZM7.5 8.13h.02A278.3 278.3 0 0 0 8.32 7L8.34 7h.99V10L9.3 10H8.34V8.36c0-.04-.01-.04-.03-.01l-.15.2a25.42 25.42 0 0 1-.66.9s-.02 0-.02-.02c-.3-.4-.51-.7-.64-.89l-.14-.2c-.02-.02-.03-.02-.03.01V10l-.03.01h-.95l-.01-.01-.01-.01V7L5.7 7h1l.02.02a265.37 265.37 0 0 0 .8 1.1ZM12.65 7H9.66v.73l.02.01h.97v2.22l.01.03.02.01h.95l.02-.01V7.77l.01-.02h.97l.02-.02v-.72Z" fill="#0E77BC"/></svg>