<!-- by TradingView --><svg width="18" height="18" viewBox="0 0 18 18" xmlns="http://www.w3.org/2000/svg"><path fill="#F0F3FA" d="M0 0h18v18H0z"/><path fill="#015497" d="M4 4h10v10H4z"/><path d="M12.7 5.36a6.3 6.3 0 0 0-7.4 0c.8.5 2.41 1.94 2.55 3.65.14 1.71-1.64 3.11-2.55 3.6a5.77 5.77 0 0 0 7.4 0c-.84-.6-2.5-2.14-2.53-3.6-.02-1.46 1.67-3.04 2.52-3.65Z" fill="#fff" fill-opacity=".5"/><path d="M9.1 6C12 5.96 12.9 7.26 13 8h-1.27A2.94 2.94 0 0 0 9.1 6.35c-1.72 0-2.67 1.42-2.66 1.89.01.37.24.56.36.62h5.06c.65.02 1 .32 1.07.83.06.52-.57 2.25-4.02 2.3C6.15 12.06 5.15 10.75 5 10h1.35c.28.67.95 1.57 2.64 1.57 1.85 0 2.6-1.41 2.6-1.88.01-.37-.3-.5-.46-.51H6.35c-.99-.01-1.28-.5-1.28-.89 0-.38.44-2.24 4.04-2.29Z" fill="#F0F3FA"/></svg>