<!-- by TradingView --><svg width="18" height="18" viewBox="0 0 18 18" xmlns="http://www.w3.org/2000/svg"><path fill="#F0F3FA" d="M0 0h18v18H0z"/><path d="M15 7a2 2 0 0 0-2 2h1a1 1 0 0 1 1-1V7Z" fill="#C5B277"/><path fill-rule="evenodd" d="M7 11a2 2 0 1 0 0-4 2 2 0 0 0 0 4Zm0-2.75L6.25 9l.75.75.75-.75L7 8.25Z" fill="#C5B277"/><path fill-rule="evenodd" d="M11 11a2 2 0 1 0 0-4 2 2 0 0 0 0 4Zm0-2.75-.75.75.75.75.75-.75-.75-.75Z" fill="#C5B277"/><path d="M3 11a2 2 0 1 0 0-4v1a1 1 0 0 1 0 2v1ZM15 9a2 2 0 0 0-2 2h1a1 1 0 0 1 1-1V9Z" fill="#C5B277"/></svg>