<!-- by TradingView --><svg width="18" height="18" viewBox="0 0 18 18" xmlns="http://www.w3.org/2000/svg"><path fill="#F0F3FA" d="M0 0h18v18H0z"/><path d="M2 7.32v3.4c0 .1.05.2.13.26.18.13.42.34.6.56.08.1.2.15.3.14l2.03-.18c.23-.04.75-.06.96.15l.1.1c.33.35 1.18 1.22 2.8 1.25A6.4 6.4 0 0 0 9 13a3.83 3.83 0 0 0 2.93-1.35c.22-.2.74-.19.98-.15l2.04.18c.12 0 .23-.05.3-.14.2-.22.44-.43.62-.56a.32.32 0 0 0 .13-.26v-3.4c0-.1-.05-.2-.14-.26a4.17 4.17 0 0 1-.6-.6.34.34 0 0 0-.3-.13c-.56.03-1.55.1-2.05.17-.57.07-.8-.1-.88-.18A4.27 4.27 0 0 0 8.96 5c-1.04 0-1.87.26-2.94 1.32-.09.09-.4.25-.96.18-.5-.07-1.48-.14-2.04-.17-.1 0-.21.04-.28.12-.14.18-.37.43-.6.61a.34.34 0 0 0-.14.26Z" fill="#2292A4"/><path d="M5.13 10.4c.13 0 .29-.06.35-.1.12.03.15.13.1.2-.05.06-.2 0-.45 0-.2 0-.23-.15-.22-.22.02.04.08.12.22.12ZM13.12 10.4a.91.91 0 0 1-.36-.1c-.12.03-.15.13-.1.2.05.06.2 0 .46 0 .2 0 .22-.15.21-.22-.01.04-.08.12-.21.12Z" fill="#fff"/><path opacity=".5" fill="#fff" d="M7 10h4v1H7z"/><path opacity=".7" fill="#F0F3FA" d="M5 7h8v2H5z"/></svg>