<!-- by TradingView --><svg width="18" height="18" viewBox="0 0 18 18" xmlns="http://www.w3.org/2000/svg"><path fill="#F0F3FA" d="M0 0h18v18H0z"/><path d="m3.27 10.1 1.26-2.8c.04-.04.13-.12.2-.07-.27.67-.9 2.15-1.16 2.63a.53.53 0 0 1-.3.23ZM9.78 8.3c-.47.69-.93 1.06-1.1 1.15.2 0 .63-.2 1.28-1.1.64-.9 1.11-1.05 1.27-1.11-.21-.07-.87.19-1.45 1.05Z" fill="#B58416"/><path d="M10.14 8.43c-.39.53-.81.93-.98 1.02.34-.02.84-.52 1.32-1.16.48-.65.98-1 .94-1.03-.25-.03-.8.52-1.28 1.17Z" fill="#6B6B6B"/><path d="M10.68 8.25c-.34.45-.77.8-.94.92.14-.04.53-.22.9-.7.37-.46.8-.95.96-1.1.03-.02.07-.06 0-.06-.09 0-.49.37-.92.94Z" fill="#B58416"/><path d="M11.18 8c-.2.28-.58.66-.75.82.27-.16.45-.36.75-.73.24-.3.49-.56.6-.66l-.05-.02c-.1.08-.34.32-.55.6Z" fill="#6B6B6B"/><path d="M12.86 8.7c-.62-1.38-1.22-1.54-1.63-1.45.8.11 1.32 1.31 2 2.8.68 1.48 1.3 1.95 1.66 1.95.3 0 .44-.16.47-.24-.1.06-.3.06-.37.06-.82-.19-1.72-2.24-2.13-3.12Z" fill="#B58416"/><path d="M11.96 7.23c-.1 0-.22.05-.27.06.44 0 1 .54 1.6 1.92 1.13 2.55 1.8 2.47 1.93 2.47.1 0 .16-.03.18-.05a.67.67 0 0 1 .1-.18c-.68.15-1.22-.72-2.03-2.44-.82-1.7-1.4-1.78-1.51-1.78Z" fill="#6B6B6B"/><path d="M12.35 7.14a.82.82 0 0 0-.38.09c.36-.04.91-.06 1.9 2.13.7 1.58 1.37 2 1.7 2l.1-.01.1-.2c-.79.22-1.61-1.64-2.17-2.75-.55-1.1-1.04-1.26-1.25-1.26Z" fill="#B58416"/><path d="M12.74 6.9c-.23 0-.56.21-.66.28.79-.37 1.16.13 1.97 1.7.83 1.85 1.58 2.13 1.84 2.04l.11-.2c-.52.1-.96-.25-1.8-1.95-.85-1.7-1.19-1.86-1.46-1.86ZM6.34 5.64c-.23 0-.41.3-.52.45.06-.05.12-.14.26-.14.35 0 .74.4 1.3 1.76.46 1.09.93 1.61 1.1 1.71a.4.4 0 0 0 .17-.2c-.2-.13-.5-.57-1.1-2.03-.59-1.45-.93-1.55-1.21-1.55Z" fill="#6B6B6B"/><path d="M6.75 5c-.34 0-.72.55-.87.82.4-.5.55-.5.7-.5.16 0 .67.07 1.17 1.53A7.6 7.6 0 0 0 8.8 8.98a.27.27 0 0 0 .15-.21A9 9 0 0 1 8 6.7C7.52 5.47 7.17 5 6.75 5Z" fill="#B58416"/><path d="M3.08 9.36c-.44.93-.9 1.76-1.08 2.06.27-.12.65-.55 1.26-1.93.49-1.1.91-1.82 1.06-2.04a.57.57 0 0 1 .37-.12c.23 0 .62.17 1.25 1.25.83 1.46 1.41 1.51 1.58 1.51.17 0 .32-.11.42-.18-.76.1-1.37-1.17-1.52-1.44-.16-.28-.8-1.56-1.32-1.56-.8 0-1.47 1.28-2.02 2.45Z" fill="#6B6B6B"/><path d="m4.07 9.14.78-1.82.21-.1-.7 1.53-.3.39Z" fill="#6B6B6B"/><path d="M5.76 6.27c-.27 0-.48.3-.58.46a.73.73 0 0 1 .37-.09c.22 0 .58.23 1.23 1.62.65 1.38 1.3 1.51 1.36 1.51.06 0 .15-.09.15-.13-.45-.1-.95-1.1-1.36-2.05-.42-.93-.83-1.32-1.17-1.32Z" fill="#B58416"/><path d="M8.98 8.74c-.6.8-.95 1.15-1.04 1.16.28 0 .98-.71 1.43-1.35.37-.51.69-.75.85-.87l.05-.13c-.15 0-.55.18-1.3 1.19Z" fill="#6B6B6B"/></svg>