<!-- by TradingView --><svg xmlns="http://www.w3.org/2000/svg" width="18" height="18" viewBox="0 0 18 18"><path fill="#173882" d="M0 0h18v18H0z"/><path d="M7.02 10.02a3.93 3.93 0 0 1-2.1-1.6c-.15-.22-.23-.37-.23-.37-.04-.06-.1-.19-.2-.28-.12-.1-.19-.02-.28.05-.1.06-.18-.01-.23-.07-.09-.08-.16-.08-.16-.01 0 .08.07.15 0 .25-.02.03-.05.05-.11.05-.18 0-.33-.29-.46-.42-.02-.02-.05-.02-.06.01 0 .05 0 .12-.02.12-.05.01-.13-.15-.18-.2l-.12-.08c-.16-.05-.17-.09-.29-.22a1 1 0 0 0-.2-.17c-.03 0-.04.02-.04.04 0 .01 0 .04-.02.04l-.11-.06-.15-.1c-.04 0-.05.02-.06.06 0 .04.03.04.03.04.05 0 .07.05.1.07.02.01.04.07.13.09.1.02.13.07.15.11.12.26.2.43.2.5 0 .06-.07.07-.15-.12l-.13-.23a.39.39 0 0 0-.08-.1.52.52 0 0 0-.18-.05C2 7.36 2 7.38 2 7.4c0 .02.03.04.07.07.18.15.26.29.34.49.06.14.16.38.23.5.56 1.08 1.45 2.24 3.5 2.24a5.4 5.4 0 0 0 2.25-.52l.22-.1c-.14.07-.93.13-1.59-.07z" fill="url(#ajkslfayb)"/><path d="M7.04 9.94c2 .52 2.69-.88 3.16-1.42l.12-.14.1-.1a7.42 7.42 0 0 1-5.5.13c.04.04.95 1.22 2.12 1.53z" fill="url(#bjkslfayb)"/><path d="M4.93 8.42a4.3 4.3 0 0 1-.24-.37l-.07-.12c-.03-.04-.06-.12-.14-.1-.12.04-.15.57.03 1.12a1.6 1.6 0 0 0 .57.71v-.01-.01c-.04-.03-.27-.22-.35-.54-.05-.19-.04-.27 0-.3h.05l.13.12c.35.31.79.74 1.34.81-.43-.26-.87-.7-1.32-1.31z" fill="#D10806"/><path d="M7.87 10.37c-.58.21-1.16.3-1.73.3a3.32 3.32 0 0 1-3.02-1.56s.33.43.68.63c.28.17.54.16.7 0 1.1.97 2.2.96 3.37.63z" fill="#D10806"/><path d="M14.13 7.88a3.48 3.48 0 0 0-2.57-.28c-1.1.38-1.52 1.54-2.34 2.17.48-.3.81-.56.93-.65.33-.27 1.63-1.12 2.48-1.05.52.03.8.35.8.35l.02.02c.1.13.18.28.35.41.58.46.92.06 1.27.48.26.34.3.53.32.78 0 .25-.16.73-.3.89h.09l.12-.19a2 2 0 0 0 .12-1.54c-.31-.97-1.26-1.37-1.3-1.4z" fill="url(#cjkslfayb)"/><path d="M12.71 7.97c-.53-.15-1.28-.15-1.7.15-.06.03-.18.13-.18.19 0 .04.05.04.14.08.09.01.13.03.13.05 0 .01 0 .02-.03.04l-.09.05c-.32.17-.5.27-.82.54-.13.11-.52.45-1.12.8 1.83-1 2.38-1.43 3.36-1.5.52-.04.96.02 1.06.06-.01 0-.23-.3-.75-.46z" fill="url(#djkslfayb)"/><path d="M14.15 7.84a2.95 2.95 0 0 0-3.73.44l-.1.1-.12.14c-.48.55-1.2 1.57-2.5 1.5-.21 0-.43-.04-.66-.1-1.16-.35-2.08-1.46-2.1-1.5.7 1 1.41 1.48 2.05 1.68.34.1.64.14.91.14s.5-.04.72-.12c.9-.32 1.36-1.22 2.03-1.86.27-.26.58-.47.95-.6a3.39 3.39 0 0 1 2.54.23c0-.01.5.24 0-.05z" fill="#173882"/><path d="M14.77 10.72c.04-.04.03-.2.03-.2s-.06-.1-.13-.08c-.06.02-.06.13-.05.23.02.1.12.09.15.05z" fill="#fff"/><path d="M15.27 10.6c.28-.42.25-.87.25-.87 0-.46-.18-.92-.71-1.3.45.37.74 1 .61 1.55l-.05.2c-.04.16-.08.28-.18.46l-.12.05c-.08.09-.14.1-.18.12l-.3.1c-.1.02-.25 0-.3-.04-.05-.05-.04-.09-.03-.13.02-.05-.02-.05-.02-.05-.07 0-.07.07-.07.07 0 .01.03.1.13.2.1.08.2.08.22.08a.2.2 0 0 1 .13.04c.05.04.05.09.05.15 0 .12-.06.1-.17.25l-.14.23c-.02.04-.05.05-.07.06-.02.01-.02.02-.06.09-.02.05-.02.08.02.08s.1-.06.1-.09l.05-.07.06-.08.05-.05.08-.06a.23.23 0 0 0 .07-.06c.01-.01.06-.05.09-.05s.05.03.05.11a.8.8 0 0 1-.05.25l-.13.24-.07.12-.1.11-.01.03c-.02.04 0 .08.03.08s.07-.01.1-.04l.05-.11.02-.06c.06-.13.13-.2.2-.32a.88.88 0 0 0 .16-.56L15 11.1c.02-.2.11-.31.26-.51z" fill="#fff"/><defs><linearGradient id="ajkslfayb" x1="4.02" y1="8.83" x2="8.99" y2="10.81" gradientUnits="userSpaceOnUse"><stop stop-color="#F94447"/><stop offset=".95" stop-color="#FFE121"/></linearGradient><linearGradient id="bjkslfayb" x1="5.09" y1="9.53" x2="13.41" y2="8.27" gradientUnits="userSpaceOnUse"><stop offset=".02" stop-color="#DC9A34"/><stop offset=".12" stop-color="#E5C238"/><stop offset=".2" stop-color="#EBDA3B"/><stop offset=".25" stop-color="#FFF441"/><stop offset=".6" stop-color="#BCFF43"/><stop offset=".64" stop-color="#AAFF47"/></linearGradient><linearGradient id="cjkslfayb" x1="11.03" y1="8.09" x2="14.59" y2="10.65" gradientUnits="userSpaceOnUse"><stop stop-color="#81B90A"/><stop offset=".14" stop-color="#5EB547"/><stop offset=".41" stop-color="#27AEA7"/><stop offset=".53" stop-color="#15ACC6"/><stop offset=".63" stop-color="#0BAAD8"/><stop offset=".71" stop-color="#07AADF"/><stop offset=".75" stop-color="#08A4DA"/><stop offset=".8" stop-color="#0A94CB"/><stop offset=".86" stop-color="#0D79B2"/><stop offset=".93" stop-color="#173882"/></linearGradient><linearGradient id="djkslfayb" x1="11.22" y1="9.07" x2="10.9" y2="8.32" gradientUnits="userSpaceOnUse"><stop stop-color="#2AACC7"/><stop offset=".52" stop-color="#157696"/><stop offset=".95" stop-color="#003D62"/></linearGradient></defs></svg>