<!-- by TradingView --><svg width="18" height="18" viewBox="0 0 18 18" xmlns="http://www.w3.org/2000/svg"><path fill="#F0F3FA" d="M0 0h18v18H0z"/><path fill-rule="evenodd" d="M15 9A6 6 0 1 1 3 9a6 6 0 0 1 12 0Zm-2.92-4.67c.14.1.28.22.44.37.55.55 1.26 1.27 1.4 2.08a.7.7 0 0 1 .01.24c-.03.15-.13.22-.28.21a.69.69 0 0 1-.27-.06 9.76 9.76 0 0 1-1.62-.97 7.03 7.03 0 0 1-2.01-2.35 1.11 1.11 0 0 1-.04-.22c0-.07 0-.13.02-.17.06-.1.2-.12.31-.1.26.06.5.14.73.24.46.2.9.44 1.3.73Zm-6.16 0c-.14.1-.28.22-.44.37-.55.55-1.26 1.27-1.4 2.08a.7.7 0 0 0-.01.24c.03.15.13.22.28.21.1 0 .18-.02.27-.06.59-.28 1.13-.6 1.62-.97a7.03 7.03 0 0 0 2.01-2.35l.04-.22a.3.3 0 0 0-.02-.17c-.06-.1-.2-.12-.31-.1-.26.06-.5.14-.73.24-.46.2-.9.44-1.3.73ZM9.1 6c-.05-.01-.12.03-.15.06-.56.62-1.19 1.12-1.85 1.6a.35.35 0 0 0-.09.1c-.02.02-.01.04.01.07.05.05.12.08.2.09a12.04 12.04 0 0 0 3.73-.16c.04-.04.06-.09.04-.13 0-.03-.03-.06-.07-.1A9.78 9.78 0 0 1 9.1 6Zm-3.28 5.57c-.25-.1-.57-.25-.67-.5a.25.25 0 0 1 0-.19c.05-.13.12-.24.19-.36l.12-.22c.06-.1.13-.13.24-.13.27 0 .57.03.9.06h.94c.43 0 .7-.05.75-.46.02-.14-.02-.23-.16-.28-.22-.07-.4-.07-.7-.06h-.1c-.27 0-.56.05-.86.1-.42.06-.85.12-1.22.07-.22-.02-.52-.13-.64-.32-.1-.17.01-.43.09-.58a.03.03 0 0 0 0-.03c-.03-.05-.15 0-.18 0l-.06.03c-.21.08-.46.17-.7.18l-.33-.03c-.02 0-.03 0-.03.02-.04.19-.05.39-.04.6.02.67.24 1.32.5 1.95.15.34.34.66.65.9.22.16.48.23.76.2.62-.07 1.24-.15 1.83-.26l.24-.02c.29-.02.7-.05.76-.16a4.65 4.65 0 0 0 .05-.57c0-.06-.1-.1-.17-.1-.37 0-.72.06-1.08.1-.24.04-.47.08-.7.1a.83.83 0 0 1-.38-.04Zm6.36 0c.25-.1.57-.25.67-.5a.25.25 0 0 0 0-.19c-.05-.13-.12-.24-.19-.36l-.12-.22c-.06-.1-.13-.13-.24-.13-.27 0-.57.03-.9.06h-.94c-.43 0-.7-.05-.75-.46-.02-.14.02-.23.16-.28.22-.07.4-.07.7-.06h.1c.27 0 .56.05.86.1.42.06.85.12 1.22.07.22-.02.52-.13.64-.32.1-.17-.01-.43-.09-.58v-.03c.03-.05.15 0 .18 0l.06.03c.21.08.46.17.7.18l.33-.03c.02 0 .03 0 .04.02.03.19.04.39.03.6a5.68 5.68 0 0 1-.5 1.95 2.1 2.1 0 0 1-.65.9c-.22.16-.48.23-.76.2-.62-.07-1.24-.15-1.83-.26l-.24-.02c-.29-.02-.7-.05-.76-.16a4.64 4.64 0 0 1-.05-.57c0-.06.1-.1.17-.1.37 0 .72.06 1.08.1.24.04.47.08.7.1.16 0 .28 0 .38-.04Zm-5.1 2.74c.67.2 1.35.34 2.06.34.72 0 1.62-.14 2.24-.51.07-.05.1-.1.09-.18a.1.1 0 0 0-.06-.07 5.24 5.24 0 0 0-2.12-.3c-.64.01-1.22.15-1.82.28l-.4.09c-.1.02-.16.04-.18.15-.01.04 0 .08.03.11.05.05.1.08.16.1Z" fill="#D80010"/></svg>