<!-- by TradingView --><svg width="18" height="18" viewBox="0 0 18 18" xmlns="http://www.w3.org/2000/svg"><path fill="#F0F3FA" d="M0 0h18v18H0z"/><path d="M9 5.85c.05 0 .1 0 .15-.03.35-.12.67-.34 1-.53l.43-.25a.64.64 0 0 1 .52.05c.07.03.07.05 0 .06-.16 0-.24 0-.36.07-.53.29-1.08.63-1.65.88A.24.24 0 0 1 9 6.1l-.1-.01c-.56-.25-1.11-.6-1.64-.88-.12-.07-.2-.06-.35-.08-.08 0-.08-.02-.01-.06.19-.09.36-.1.52-.04.03 0 .17.09.44.25.32.2.64.41 1 .53.04.02.1.03.14.03Z" fill="#1C61A5"/><path d="M9 6.38c.15 0 .33-.07.47-.15l1.43-.8c.17-.1.3-.16.38-.18.14-.02.28.01.43.1.07.03.07.06-.01.06a.8.8 0 0 0-.37.1l-1.2.7c-.25.14-.5.28-.76.4a.88.88 0 0 1-.73 0 7.65 7.65 0 0 1-.76-.4l-1.2-.7a.8.8 0 0 0-.37-.1c-.08 0-.08-.02-.01-.06a.63.63 0 0 1 .43-.1c.08.02.2.08.38.17l1.43.82c.14.07.32.14.47.14Z" fill="#282727"/><path d="M9 7c.2 0 .4-.08.57-.17l1.74-.99c.2-.11.43-.27.6-.27.14 0 .25.04.36.1.07.04.07.07-.02.07a.75.75 0 0 0-.36.1L9.75 7.07c-.2.1-.5.24-.75.24a1.7 1.7 0 0 1-.75-.25L6.11 5.84a.75.75 0 0 0-.36-.1c-.08 0-.09-.03-.02-.07.1-.06.23-.1.36-.1.18 0 .4.16.6.27l1.74.99c.17.1.38.18.57.18Z" fill="#1C61A5"/><path d="M9 7.6c.28 0 .53-.06.77-.2a5529.68 5529.68 0 0 1 2.6-1.47c.17-.05.34-.01.51.1.04.02.03.04 0 .05-.08.02-.19 0-.29.06a357.3 357.3 0 0 1-2.73 1.55 1.73 1.73 0 0 1-1.72 0A363.45 363.45 0 0 1 5.4 6.12c-.1-.04-.2-.04-.28-.05-.04-.01-.04-.03-.01-.05.18-.12.35-.15.5-.1.05 0 .2.09.44.23L8.23 7.4c.24.13.5.2.77.2ZM13.06 6.48l.25-.15h.03c.02.01.04.02.04.04v4.91c0 .05-.03.07-.08.04l-.17-.1a.12.12 0 0 1-.05-.04.11.11 0 0 1-.02-.06V6.48ZM4.94 6.38a1155.07 1155.07 0 0 1 0 4.32c.06.34.3.62.58.77L9 13.44c.05.12.02.22-.07.3-1.05-.58-2.14-1.22-3.2-1.8-.28-.16-.6-.37-.85-.65a.94.94 0 0 1-.25-.66V6.67c0-.09.03-.19.02-.29.01-.03.04-.03.09-.02.04.01.13-.03.2.02Z" fill="#282727"/><path d="M13.69 6.77c0-.12-.07-.21-.13-.29-.05-.06-.03-.07.05-.03.12.06.26.16.34.29a.5.5 0 0 1 .05.25v4.6c0 .01-.01.02-.03.02l-.25-.12a.07.07 0 0 1-.03-.07V6.77Z" fill="#1C61A5"/><path d="M12.12 7v3.6c0 .07-.02.08-.07.05l-.16-.09a.13.13 0 0 1-.05-.04.12.12 0 0 1-.02-.06V7.14c.1-.08.2-.13.3-.14Z" fill="#282727"/><path d="M11.39 12.48c.12-.16.1-.26.11-.5v-1.32c0-.4-.3-.72-.61-.9-.53-.3-1.3-.54-1.59-.7l-.01-.01a.04.04 0 0 1 .01-.06l.18-.1a.1.1 0 0 1 .11 0c.42.22 1.13.42 1.43.6.4.25.8.6.8 1.13l-.01 1.32a.6.6 0 0 1-.07.3.77.77 0 0 1-.32.28c-.02.01-.03 0-.04-.02v-.02Z" fill="#1C61A5"/><path d="M10.74 12.76c.09-.11.13-.16.13-.3V11a.86.86 0 0 0-.3-.72 2.77 2.77 0 0 0-.48-.35s-.54-.2-1.25-.6c-.04-.02-.04-.05 0-.08l.17-.1a.12.12 0 0 1 .12 0c.53.28 1.14.53 1.46.75.37.25.6.56.6 1.03l-.01 1.42c0 .2-.25.37-.4.45-.07.04-.08.03-.04-.04Z" fill="#282727"/><path d="M10.12 13.07c.05-.1.13-.15.13-.3v-1.61c0-.4-.46-.7-.78-.88A59.39 59.39 0 0 0 8.3 9.6v-.02l.02-.02.2-.13a.05.05 0 0 1 .06 0l1.06.6c.2.12.37.25.52.41.2.2.42.44.41.72v1.44c0 .15-.08.26-.23.37a.69.69 0 0 1-.2.13c-.02 0-.03 0-.01-.03Z" fill="#1C61A5"/><path d="m7.69 9.91.22-.13a.05.05 0 0 1 .05 0c.39.2.75.42 1.1.62.27.16.7.42.83.74.03.08.05.21.05.39v1.39c0 .13-.04.24-.12.32-.08.08-.2.15-.31.21h-.03v-.03c.1-.12.15-.21.15-.28V11.5c-.01-.4-.5-.72-.83-.9a776.06 776.06 0 0 0-1.13-.66v-.01l.02-.02Z" fill="#282727"/><path d="m6.17 7 .02.25v2.49c0 .23.02.39.06.48.38.72.72.78 2.78 1.94a.5.5 0 0 1-.01.34L6.8 11.26c-.31-.17-.7-.55-.86-.89a1.2 1.2 0 0 1-.06-.47V6.86c.1 0 .22.05.3.15Z" fill="#282727"/><path d="M13.36 6.32c-.16.1-.44.22-.59.34a.05.05 0 0 0-.02.04v4.26c0 .04-.02.05-.05.03l-.22-.15a.1.1 0 0 1-.04-.09V6.88c0-.04-.02-.05-.05-.04-1.52 1-.9.54-2.34 1.37-.29.17-.5.27-.66.3-.28.05-.55.05-.81-.01a2.99 2.99 0 0 1-.73-.34c-.16-.1-.32-.26-1-.65-.02-.02-.04 0-.04.03v2.14c0 .29.06.52.26.72.14.13.29.23.45.33.42.22.7.4 1.22.7.17.1.19.08.05-.07-.11-.11-.29-.22-.45-.32l-1.26-.72c-.03-.02-.03-.04 0-.06l.17-.1a.13.13 0 0 1 .14 0c.4.2.8.43 1.2.68.3.2.71.52.72.92v1.51c0 .17-.15.3-.28.41a.9.9 0 0 1-.17.11.6.6 0 0 0-.17.1.53.53 0 0 1-.35.11.81.81 0 0 1-.32-.12L4.86 12.1c-.32-.18-.68-.46-.81-.81a1.44 1.44 0 0 1-.05-.45V6.98c0-.06 0-.14.03-.2a.8.8 0 0 1 .35-.35c.02 0 .03 0 .04.02v.02l-.01.02c-.08.09-.1.16-.1.22v4.22c0 .24.08.43.25.6.16.15.33.27.5.36l3.34 1.87a.3.3 0 0 0 .16.05h.17c.04.02.07 0 .1-.02a.71.71 0 0 0 .16-.65c-.02-.06-.07-.1-.16-.16-.93-.5-1.82-1.03-2.75-1.56-.17-.1-.34-.22-.51-.38-.22-.2-.33-.46-.33-.78l.01-3.57c0-.06-.02-.1-.06-.12a2.62 2.62 0 0 0-.46-.2c-.04-.01-.07 0-.09.03l-.01-.02.01-.04c.13-.07.22-.12.35-.1.15 0 .31.05.47.14.93.54 1.74 1.07 2.67 1.6.44.25.87.31 1.29.2.13-.04.45-.2.96-.5l2.46-1.4c.15-.09.32-.08.52.04ZM9 11.96a.26.26 0 0 0-.13-.12c-.72-.4-1.13-.65-1.57-.91a2.77 2.77 0 0 1-.53-.4c-.28-.29-.27-.52-.27-.96V7.43a.17.17 0 0 0-.08-.15c-.2-.14-.58-.44-.83-.48-.02 0-.03 0-.03.03v3.33c0 .17.02.3.06.37.13.29.4.5.67.65.26.15 1.1.66 2.66 1.54.02 0 .04 0 .05-.02v-.74Z" fill="#1C61A5"/></svg>