<!-- by TradingView --><svg width="18" height="18" viewBox="0 0 18 18" xmlns="http://www.w3.org/2000/svg"><path fill="#F0F3FA" d="M0 0h18v18H0z"/><path d="M5 13h-.45l-.04-.01-.01-.04V5.97l-.5-.9a.05.05 0 0 1 .02-.06L4.05 5h2.63a.05.05 0 0 1 .05.03l2.6 4.76a.05.05 0 0 0 .03.03.05.05 0 0 0 .05-.03l2.62-4.76a.05.05 0 0 1 .04-.03h1.88l.04.01.01.04v7.9l-.01.04-.04.01h-1.9a.05.05 0 0 1-.05-.05V6.62a.05.05 0 0 0-.07-.04.05.05 0 0 0-.02.02l-3.53 6.33a.05.05 0 0 1-.05.02.05.05 0 0 1-.04-.02l-3.16-5.8a.05.05 0 0 0-.02-.03c-.03-.01-.11.01-.11.05v5.8c0 .03.02.05 0 .05Z" fill="#0C2D68"/></svg>