<!-- by TradingView --><svg width="18" height="18" viewBox="0 0 18 18" xmlns="http://www.w3.org/2000/svg"><path fill="#F0F3FA" d="M0 0h18v18H0z"/><path d="M12.62 6c.35 0 .63.05.85.16.22.1.42.23.61.37.07.05.13.08.16.08.1 0 .17-.28.2-.61h.2v2h-.23c-.13-.78-.35-1.4-1.02-1.68a1.9 1.9 0 0 0-.79-.17c-1.28 0-1.79 1.54-1.79 2.86 0 1.95.61 2.83 1.94 2.83.2 0 .36-.03.5-.08.3-.13.75-.27.75-.62v-.79c0-.67-.48-.77-1-.78v-.16h2v.16c-.4.02-.41.28-.41.7V12h-.17a2 2 0 0 0-.06-.42c-.03-.1-.09-.16-.16-.16-.03 0-.06 0-.1.03-.25.13-.46.32-.73.44-.2.07-.44.11-.7.11C11.18 12 10 10.97 10 9.1 10 7.3 11.13 6 12.62 6Z" fill="#F7941D"/><path d="M9 6v.17c-.17 0-.3.03-.4.07a.3.3 0 0 0-.17.2c-.03.1-.05.24-.05.45v4.18c0 .57.18.7.62.72V12H7.06v-.21c.43-.03.61-.15.61-.72V6.44l.03.02L5.84 12H5.7L3.8 6.54v4.44c0 .63.22.78.7.81V12H3v-.21c.46-.03.62-.24.62-.8v-4.1c0-.2-.02-.36-.05-.45a.3.3 0 0 0-.18-.2A1.07 1.07 0 0 0 3 6.17V6h1.36l1.73 5.03-.13.07L7.67 6H9Z" fill="#EE1720"/></svg>