<!-- by TradingView --><svg width="18" height="18" viewBox="0 0 18 18" xmlns="http://www.w3.org/2000/svg"><path fill="#F0F3FA" d="M0 0h18v18H0z"/><path d="M3.55 12 3 11.09C6.35 7.95 10.1 8 11 8c-4.57.95-6.87 3.06-7.45 4Z" fill="#B8C952"/><path d="M10.25 6c2.75 0 4.98.63 5.75.94-.76-.07-2.63-.22-4-.22-4.8 0-8.14 2.19-9.21 3.28-.14-.25-.5-.89-.79-1.44C3.34 7.39 6.8 6 10.25 6Z" fill="#397FBF"/><path d="M13 10h.62v1.49H15V12h-2v-2ZM10 12v-2H11.59c.26.03.35.16.35.52 0 .29-.05.4-.21.46.2.05.27.16.27.48 0 .29-.06.44-.2.5-.1.03-.12.04-.65.04H10Zm.46-1.21h.68c.18 0 .25 0 .28-.03.03-.01.05-.06.05-.14 0-.08-.02-.13-.07-.14H10.46v.3Zm0 .73h.69c.29 0 .29 0 .32-.02.04-.02.06-.07.06-.15 0-.1-.02-.14-.08-.15l-.3-.01h-.69v.33ZM6 10h.98l.52 1.3.53-1.3H9v2h-.53l.01-1.5H8.4L7.73 12h-.45l-.67-1.5h-.1l.02 1.5H6v-2Z"/></svg>