<!-- by TradingView --><svg width="18" height="18" viewBox="0 0 18 18" xmlns="http://www.w3.org/2000/svg"><path fill="#F0F3FA" d="M0 0h18v18H0z"/><path d="M9 6c-1.5 0-2.86.73-3.56 1.25-.07.05-.04.19.04.17 1.43-.28 2.61-.07 3.46 1.24.03.05.09.05.12 0 .84-1.25 2.53-1.32 3.49-1.21.07.01.1-.13.04-.18A6.32 6.32 0 0 0 9 6Z" fill="#F1E800"/><path d="M5.68 8C4.06 8 2.55 9.67 2 10.5A4.24 4.24 0 0 1 5.68 9a5.69 5.69 0 0 1 4.06 3c-.56-1.5-2.03-4-4.06-4Z" fill="#4EB848"/><path d="M12.32 8c1.62 0 3.13 1.67 3.68 2.5A4.24 4.24 0 0 0 12.32 9a5.69 5.69 0 0 0-4.06 3c.56-1.5 2.03-4 4.06-4Z" fill="#2B2F74"/></svg>