<!-- by TradingView --><svg width="18" height="18" viewBox="0 0 18 18" xmlns="http://www.w3.org/2000/svg"><path fill="#F0F3FA" d="M0 0h18v18H0z"/><path d="M4 7.67v-.78L6.83 4h4.34L14 6.89v.78h-1.7A3.48 3.48 0 0 0 9 5a3.48 3.48 0 0 0-3.3 2.67H4ZM5.67 9.65H4.26l.14.47-.4.51.52.92.59-.22.41.53-.09.56.64.68.54-.45.7.45v.58l.9.32.32-.67h.67l.34.67.98-.32.1-.58.7-.34.49.43.64-.54-.13-.8.45-.52.52.22.55-.92-.46-.5.26-.48h-1.2a3.68 3.68 0 0 1-3.54 2.68c-1.95 0-3-1.75-3.23-2.68Z" fill="#020286"/><path d="M5.88 8.65c0 1.13.52 1.85.78 2.07l.3-1.55h.18c.1 1.03.92 1.77 1.6 1.77s1.37-.36 1.37-.97c0-.62-.75-.96-1.19-1-.44-.05-2.04-.23-2.04-1.38s.71-1.94 2.16-1.94c1.16 0 1.82.33 2 .5-.24-.28-1-.82-2-.82-2.27 0-3.16 1.9-3.16 3.32Z" fill="#0097FF"/><path d="M8.87 11.27c-1.3 0-2.02-.36-2.22-.55.19.43.91 1.28 2.35 1.28 1.79 0 3.13-1.53 3.13-3.3 0-1.4-.74-2.3-1.11-2.56l-.3 1.26h-.12c-.05-.5-.4-1.45-1.21-1.45-.81 0-1.36.37-1.36.86 0 .5.27.67 1.56 1.02s1.72.73 1.72 1.58c0 .84-.82 1.86-2.44 1.86Z" fill="#F4040D"/></svg>