<!-- by TradingView --><svg width="18" height="18" fill="none" xmlns="http://www.w3.org/2000/svg"><path fill="url(#a)" d="M0 0h18v18H0z"/><path fill-rule="evenodd" clip-rule="evenodd" d="M6 13a4 4 0 1 0 0-8 4 4 0 0 0 0 8Zm0-2a2 2 0 1 0 0-4 2 2 0 0 0 0 4Z" fill="#DF2125"/><path fill-rule="evenodd" clip-rule="evenodd" d="M12 13a4 4 0 0 0 3.874-5H12v2h1.732a2 2 0 0 1-3.044.51l-1.274 1.542c.697.591 1.6.948 2.586.948Zm0-8c1.098 0 2.092.442 2.815 1.158l-1.528 1.31a2 2 0 0 0-3.282 1.402l-.02-.042-1.518 2.048A4 4 0 0 1 12 5Z" fill="#DF2125"/><defs><linearGradient id="a" x1="9" y1="0" x2="9" y2="18" gradientUnits="userSpaceOnUse"><stop stop-color="#181B1E"/><stop offset="1" stop-color="#181B1E"/></linearGradient></defs></svg>