<!-- by TradingView --><svg width="18" height="18" viewBox="0 0 18 18" xmlns="http://www.w3.org/2000/svg"><path fill="#F0F3FA" d="M0 0h18v18H0z"/><path d="M14.9 6.63C12.13 6.75 10.68 6 8.05 6c-2.67 0-3.94.58-3.94.58a.18.18 0 0 0-.07.07.22.22 0 0 0-.03.1v6.12c0 .04.01.07.03.1a.1.1 0 0 0 .08.03h.78a.1.1 0 0 0 .08-.04.13.13 0 0 0 .03-.09v-.28c0-.04.01-.07.03-.09a.1.1 0 0 1 .08-.04h.3a.1.1 0 0 0 .09-.03.13.13 0 0 0 .03-.1v-.6c0-.04 0-.07.03-.1a.1.1 0 0 1 .08-.03h.26a.1.1 0 0 1 .08.04c.02.02.02.05.02.09v.14c0 .04.02.07.04.1a.1.1 0 0 0 .08.03h.68c.13 0 .2-.08.2-.18v-.61a.2.2 0 0 1 0-.09l.05-.07a.16.16 0 0 1 .06-.04l.07-.01h.56c.43 0 .6.07.77-.44.17-.5.45-.36.88-.36h.72c1.13 0 .96-1.12 2.69-1.73.85-.3 1.6-.89 2.15-1.68.05-.08.1-.16-.04-.16Z" fill="url(#a)"/><defs><linearGradient id="a" x1="4" y1="9.5" x2="15" y2="9.5" gradientUnits="userSpaceOnUse"><stop stop-color="#ED7700"/><stop offset=".5" stop-color="#D7000F"/><stop offset="1" stop-color="#ED7700"/></linearGradient></defs></svg>