<!-- by TradingView --><svg width="18" height="18" viewBox="0 0 18 18" xmlns="http://www.w3.org/2000/svg"><path fill="#21515F" d="M0 0h18v18H0z"/><path d="M8.12 7.64c.88-.63 1.9-1.86 2.01-2.8A2.37 2.37 0 0 0 9.47 3S8.9 5.18 5.3 7.78c0 0 .39-.14 1.33-.14h1.48Z" fill="#A8C32F"/><path d="M4.83 13h2.22a3.25 3.25 0 0 0 2.11-1.02l2.96-2.82a.72.72 0 0 0 .02-.95.58.58 0 0 0-.44-.21H6.58c-1.07 0-1.62.3-2.56.85L3 9.43h6.9S7.11 12.23 4.83 13Z" fill="#F7F7F5"/><path d="M14.5 13c-.07-.32-.23-.6-.46-.83-.62-.6-1.24-.6-2.25-.6h-1.52l-.97.88c-.45.46-.78.5-.88.55h6.08Z" fill="#A8C32F"/></svg>