<!-- by TradingView --><svg width="18" height="18" viewBox="0 0 18 18" xmlns="http://www.w3.org/2000/svg"><path fill="#F0F3FA" d="M0 0h18v18H0z"/><path d="M9.3 4.43a1.97 1.97 0 0 0-2.54.08c-.64.55-.9 1.34-1 2.17-.05.4-.08.93-.09 1.32H8V6.49c0-.48-.04-.83.51-.82h1.54l.02-.01c-.13-.5-.38-.9-.76-1.23Z" fill="url(#a)"/><path d="M12.33 10.11c.35-.1.73-.32.99-.55 1.04-.9.82-2.36-.2-3.15-.79-.62-2.01-.72-2.98-.73-.03 0-.14.02-.14.04v1.8c.07.19.3.3.49.36.3.04.6.04.91 0 .26-.02.42-.03.5-.01.28.06.43.26.43.61v1.63Z" fill="url(#b)"/><path d="M5.67 7.93v1.2c0 .02 0-.01 0 0 0 .21 0 .44.07.63.08.19.3.24.48.24h1.04c.08 0 .17 0 .27.03.36.11.48.52.47.86v1.44c-.44-.01-.96-.04-1.4-.1a4.53 4.53 0 0 1-1.1-.29 2.4 2.4 0 0 1-1.24-1.06 1.95 1.95 0 0 1 .01-1.97c.3-.5.85-.84 1.4-.98.02 0 0-.02 0 0Z" fill="url(#c)"/><path d="M10 10v.96c0 .74.07 1.37-.8 1.37H7.92c.09.32.22.6.4.85.99 1.33 2.8.94 3.5-.42.14-.26.23-.5.28-.7.14-.59.22-1.22.22-1.9 0-.03.02-.14 0-.16H10Z" fill="url(#d)"/><path d="M8 10.95a7.5 7.5 0 0 0 2 0v-.4c.01-.74.11-1.42-.48-2.06-.24-.25-.58-.34-.9-.46A.5.5 0 0 0 8.39 8H5.67v1.14c0 .01 0-.02 0 0 0 .2 0 .43.08.62.07.19.29.24.47.24h1.04c.08 0 .17 0 .27.03.36.11.47.58.47.92Z" fill="url(#e)"/><path d="M9.98 11.9c.04-.23.02-.48.02-.95a7.5 7.5 0 0 1-2 0v1.38h1.1c.35.01.8-.03.88-.43Z" fill="url(#f)"/><defs><linearGradient id="a" x1="6.45" y1="5.45" x2="8.06" y2="6.57" gradientUnits="userSpaceOnUse"><stop stop-color="#028037"/><stop offset="1" stop-color="#02A43D"/></linearGradient><linearGradient id="b" x1="13.13" y1="6.78" x2="11.08" y2="8.99" gradientUnits="userSpaceOnUse"><stop stop-color="#35337C"/><stop offset="1" stop-color="#7767AF"/></linearGradient><linearGradient id="c" x1="6.67" y1="8.61" x2="4.96" y2="11.04" gradientUnits="userSpaceOnUse"><stop stop-color="#079DE9"/><stop offset="1" stop-color="#005898"/></linearGradient><linearGradient id="d" x1="8.87" y1="10.94" x2="10.73" y2="12.9" gradientUnits="userSpaceOnUse"><stop stop-color="#56B2C1"/><stop offset="1" stop-color="#096467"/></linearGradient><linearGradient id="e" x1="9.41" y1="8.32" x2="6.92" y2="11.17" gradientUnits="userSpaceOnUse"><stop stop-color="#BBDFF7"/><stop offset=".25" stop-color="#F7FFFF"/><stop offset="1" stop-color="#A5DBF5"/></linearGradient><linearGradient id="f" x1="9.41" y1="8.32" x2="6.92" y2="11.17" gradientUnits="userSpaceOnUse"><stop offset=".25" stop-color="#F7FFFF"/><stop offset="1" stop-color="#A5DBF5"/></linearGradient></defs></svg>