<!-- by TradingView --><svg width="18" height="18" viewBox="0 0 18 18" xmlns="http://www.w3.org/2000/svg"><path fill="#F0F3FA" d="M0 0h18v18H0z"/><path d="M3 8.3v3.06c0 .36.25.64.56.64.3 0 .44-.28.44-.64V8.3c0-.1.06-2.04 1.26-2.04.96 0 1.26 1.18 1.24 1.77v3.32c0 .36.17.65.49.65.31 0 .51-.3.51-.65V8.03c-.01-.59.26-1.77 1.18-1.77.92 0 1.31 1.13 1.32 1.7v3.38c0 .37.1.66.43.66.31 0 .57-.3.57-.66V8.55C11 6.73 9.82 6 8.68 6c-.9 0-1.5.83-1.7 1.24A2.03 2.03 0 0 0 5.11 6C3.54 6 3.05 7.53 3 8.3Z" fill="#6D747C"/><path d="M15.46 6.03a.1.1 0 0 0-.16.02l-1.74 2.34-1.5-2.14a.54.54 0 0 0-.82-.11.7.7 0 0 0-.1.9l1.67 2.36-1.79 2.4a.12.12 0 0 0 .02.17.1.1 0 0 0 .16-.02l1.75-2.35 1.52 2.15c.2.28.56.33.8.11a.7.7 0 0 0 .1-.9L13.7 8.58l1.78-2.39a.12.12 0 0 0-.02-.16Z" fill="#6B91C8"/></svg>