<!-- by TradingView --><svg width="18" height="18" viewBox="0 0 18 18" xmlns="http://www.w3.org/2000/svg"><path fill="#F0F3FA" d="M0 0h18v18H0z"/><path d="M9.55 5H5v5h3.67c.46 0 .82.18.9.66.04.16.05.53.05.78 0 .64 0 1.51.11 2.14.05.16.1.3.18.42H13v-.13a.69.69 0 0 1-.2-.12 1.1 1.1 0 0 1-.25-.67 4.15 4.15 0 0 1-.02-.37v-1.13c0-.6-.13-1.08-.39-1.42-.26-.35-.74-.55-1.44-.6v-.02c1.2-.15 1.9-.93 1.9-2.15C12.6 5.64 11.1 5 9.56 5ZM8.48 8.8H8V6.7h.47c.71 0 1.23.27 1.23 1.05 0 .72-.54 1.07-1.22 1.07Z" fill="#25529A"/><path d="M8 10v4H5l3-4Z" fill="#DF7537"/></svg>