<!-- by TradingView --><svg width="18" height="18" viewBox="0 0 18 18" xmlns="http://www.w3.org/2000/svg"><path fill="#F0F3FA" d="M0 0h18v18H0z"/><path d="M10.72 8.9c-.08.07-.08.14 0 .2A3.3 3.3 0 0 1 12 11.7c.05 2.18-1.92 3.73-3.78 3.2-1.55-.45-2.5-2.12-2.14-3.82.01-.07.04-.08.09-.03a53.4 53.4 0 0 1 1.29 1.31c.33.36.62.58.86.64.79.22 1.47-.55 1.34-1.45a1.3 1.3 0 0 0-.4-.7l-1.5-1.47a6.89 6.89 0 0 1-1.4-1.64c-1.41-3.08 2-6.2 4.49-4 1.57 1.38 1.41 3.83-.13 5.16Zm-.58-2.64c0-.33-.12-.65-.33-.88A1.1 1.1 0 0 0 9 5c-.31 0-.6.13-.82.37a1.3 1.3 0 0 0-.24 1.35c.05.16.14.3.24.4a1.06 1.06 0 0 0 1.24.27c.15-.05.27-.15.38-.26.1-.12.19-.25.25-.4.05-.16.08-.32.08-.48Z"/></svg>