<!-- by TradingView --><svg xmlns="http://www.w3.org/2000/svg" width="18" height="18" viewBox="0 0 18 18"><path fill="#F0F3FA" d="M0 0h18v18H0z"/><path d="M11.9 10.47c-.43.5-.94.85-1.47 1.03h4.1l.32-1.5H13.2l.8-3.5h-2.21c.12.07.23.15.34.24.91.84.81 2.51-.22 3.73zm-3.53.7c.16.14.35.25.54.33H6.45l.6-2.13-1.4 2.13h-1l-.3-2.13-.54 2.13H2.5l1.07-5h1.77l.23 2.24L7.05 6.5h2.77c-.44.2-.87.5-1.23.93-1.03 1.23-1.13 2.9-.22 3.73zm1.45-1.06c.38.16.9-.23 1.14-.87.25-.65.15-1.3-.23-1.46-.38-.16-.9.23-1.15.87-.25.65-.14 1.3.24 1.46z" fill="#113977"/><path d="M9.14 11.57c.42-.66.88-1.85 1.11-2.93.19-.9.32-1.78.4-2.29l.04-.25a.9.9 0 0 1-.12-.36c0-.04.03-.12.07-.2.07-.17.16-.38.11-.54.13.2.33.7.06 1.1l-.06.03c-.04.59-.13 1.32-.28 2.07.09-.19.24-.25.4-.28.1-.02.24-.12.37-.2l.21-.12c-.03.42-.48 1.02-1.03.83a9.74 9.74 0 0 1-1.2 3.3h-.16l.08-.16zm1.64-4.58c.47.09.74-.47.7-.8a1.5 1.5 0 0 0-.14.12c-.09.09-.2.19-.26.21-.14.06-.27.15-.29.38V7zm-.91-.8c.02.27.18.82.65.78v-.1c0-.22-.12-.33-.26-.4l-.4-.28zm.32 2.11c-.6.05-.8-.62-.82-.97.11.09.36.28.5.36.17.09.32.21.32.5v.11zM9.9 9.63c-.66.06-.88-.7-.9-1.08.11.1.4.31.54.4.2.1.36.23.36.55v.13zm-.53 1.25c-.66.06-.88-.78-.91-1.2.12.1.4.34.55.43.2.11.36.27.36.62v.15zm1.61-.57c-.1.43-.73 1.11-1.3.74l.07-.13c.15-.31.37-.37.59-.38.1 0 .26-.07.4-.13l.24-.1zm-.85-.55c.62.24 1.03-.42 1.16-.78a4.5 4.5 0 0 1-.63.22c-.21.04-.4.13-.5.43l-.03.13zM9.5 6.3H3.63V6H9.5v.3zM8.84 12H2.5v-.3h6.34v.3zM15.5 6.3h-3.73V6h3.73v.3zM14.37 12H9.49v-.3h4.88v.3z" fill="#1CA728"/></svg>