<!-- by TradingView --><svg width="18" height="18" viewBox="0 0 18 18" xmlns="http://www.w3.org/2000/svg"><path fill="#F0F3FA" d="M0 0h18v18H0z"/><path d="M5.62 7.37c.1-.4.33-.7.7-.89.21-.1.26-.07.14.11L6.4 7.81c-.09 2 .5 3.71 1.73 5.16.68.78 1.73 1.37 2.67.8 1.07-.66 1.25-2.65 1.02-3.7a8.23 8.23 0 0 0-2.7-4.38c-.24-.21-.22-.4.04-.56l.08-.04a.77.77 0 0 1 .84.03 8.84 8.84 0 0 1 3.48 5.03c.17.65.3.64.37-.03.24-2.03-.24-3.62-1.42-4.79-1.12-1.09-2.34-1.51-3.68-1.26-.31.06-.73.29-1.25.7a.5.5 0 0 1-.27.1c-1.28.11-2.2.7-2.78 1.75a5 5 0 0 0-.24 4 4.4 4.4 0 0 0 2.4 2.68.04.04 0 0 0 .03-.06 7.36 7.36 0 0 1-1.11-5.87Zm4.24 4.95c-.3.1-.9-.8-1.31-2.02-.43-1.22-.52-2.3-.22-2.4.3-.1.9.8 1.32 2.02.42 1.22.51 2.3.2 2.4Z" fill="#06348B"/></svg>