<!-- by TradingView --><svg width="18" height="18" viewBox="0 0 18 18" xmlns="http://www.w3.org/2000/svg"><path fill="#F0F3FA" d="M0 0h18v18H0z"/><path d="M9 3a6 6 0 0 0-6 5.98V9a6 6 0 1 0 6-6Zm-1.5.57c.45-.13.93-.2 1.43-.2h.14A1.94 1.94 0 0 1 10.91 5a1.97 1.97 0 0 1-.36 1.45 3 3 0 0 0-.83-.35 1.07 1.07 0 0 0 .16-1.45c-.2-.27-.52-.45-.88-.45-.63 0-1.23.12-1.78.35-.16.06-.3.13-.45.2a4.83 4.83 0 0 0-2 2.01c-.48.11-.9.36-1.2.72A5.66 5.66 0 0 1 7.5 3.57Zm3.79 1.64c.62.37 1.13.88 1.5 1.5h-.08c-.5 0-.98.16-1.36.45a2.69 2.69 0 0 0-.5-.5c.28-.39.45-.86.45-1.36l-.01-.1Zm2.05 2.9a1.07 1.07 0 0 0-1.72.88 2.6 2.6 0 0 1-1.02 2.08 2.13 2.13 0 0 0-.78-.5c.32-.16.58-.43.75-.74.13-.25.2-.54.2-.83A1.93 1.93 0 0 1 13 7.09c.16.32.28.67.35 1.03Zm.1.85v.07A.73.73 0 0 1 11.98 9a.73.73 0 0 1 1.44-.04Zm-2.6 2.39c.2-.15.37-.32.51-.51.38.28.85.44 1.36.44h.08a4.42 4.42 0 0 1-1.5 1.5v-.08c0-.5-.16-.97-.44-1.35Zm-1.12.55a1.06 1.06 0 0 0-.71-.27 2.6 2.6 0 0 1-2.08-1.03c.21-.22.39-.48.5-.77a1.77 1.77 0 0 0 1.59.96 1.94 1.94 0 0 1 1.93 1.92l-.02.3c-.33.15-.67.26-1.03.34.12-.19.2-.4.2-.64a1.2 1.2 0 0 0-.38-.81Zm0 .81c0 .37-.28.68-.64.72h-.14a.72.72 0 0 1-.65-.72c0-.4.33-.72.73-.72.38 0 .7.32.7.72Zm-3.01.07a4.47 4.47 0 0 1-1.51-1.5h.09c.5 0 .98-.17 1.35-.45.15.2.32.36.51.52-.28.38-.45.85-.45 1.35l.01.08Zm-1.42-2.7c.32 0 .6-.14.8-.37l.03-.04.06-.07.01-.03.02-.03.04-.06c0-.01 0-.03.02-.04 0-.02 0-.03.02-.05v-.02l.01-.04.02-.06v-.01l.01-.04v-.09c0-.02 0-.04.02-.05V9a2.6 2.6 0 0 1 1.02-2.08c.22.22.48.4.78.51-.32.16-.58.43-.74.74-.14.25-.21.53-.21.83a1.9 1.9 0 0 1-.78 1.53c-.32.24-.71.38-1.15.38-.1 0-.2 0-.3-.02a4.45 4.45 0 0 1-.34-1.03c.2.14.42.21.66.21ZM4.57 9v-.05A.73.73 0 0 1 6 8.99c0 .4-.32.71-.72.71-.4.01-.72-.3-.72-.7Zm2.58-2.35c-.19.15-.35.32-.5.5A2.3 2.3 0 0 0 5.3 6.7h-.07c.37-.6.88-1.12 1.49-1.5v.09c0 .5.16.97.44 1.36ZM8.3 6.1c.19.17.44.27.72.27a2.6 2.6 0 0 1 2.07 1.02c-.22.22-.39.48-.5.78a1.73 1.73 0 0 0-.74-.74c-.24-.13-.53-.2-.83-.2A1.94 1.94 0 0 1 7.1 5c.33-.16.67-.27 1.03-.35-.13.18-.2.4-.2.64-.02.31.13.6.36.8Zm-.01-.81c0-.4.3-.7.68-.73h.08a.73.73 0 1 1-.76.73Zm2.14 3.7a1.42 1.42 0 1 1-2.84 0c0-.78.64-1.41 1.42-1.41.78 0 1.42.64 1.42 1.42Zm-6.86 1.5a5.59 5.59 0 0 1-.2-1.41V8.9A1.94 1.94 0 0 1 5.01 7.1c.09-.02.19-.02.28-.02.43 0 .83.14 1.16.39a3 3 0 0 0-.35.82 1.1 1.1 0 0 0-1.45-.16c-.27.2-.45.51-.45.87V9a4.74 4.74 0 0 0 2.56 4.24c.11.47.38.88.73 1.19a5.66 5.66 0 0 1-3.93-3.94Zm6.95 3.94c-.45.13-.93.2-1.43.2h-.14a1.94 1.94 0 0 1-1.84-1.64c-.02-.09-.02-.19-.02-.29 0-.43.15-.83.38-1.15a3 3 0 0 0 .83.34 1.07 1.07 0 0 0-.16 1.45c.18.25.46.42.79.45h.18a4.79 4.79 0 0 0 4.15-2.57c.47-.1.89-.37 1.19-.72a5.65 5.65 0 0 1-3.93 3.93ZM14.64 9v.07A1.93 1.93 0 0 1 13 10.89c-.1.02-.19.02-.29.02-.43 0-.83-.14-1.15-.38a3 3 0 0 0 .34-.82 1.07 1.07 0 0 0 1.45.15c.27-.2.46-.51.46-.87a4.7 4.7 0 0 0-.56-2.23 4.82 4.82 0 0 0-2.01-2.01c-.11-.47-.38-.9-.73-1.2a5.65 5.65 0 0 1 4.13 5.36V9Z"/></svg>