<!-- by TradingView --><svg xmlns="http://www.w3.org/2000/svg" width="18" height="18"><path fill="#F0F3FA" d="M0 0h18v18H0z"/><path d="M9.29 3.81l1.36 2c-.44-.3-.78 0-.9.17L6.6 10.15c-.79.81-1.64.39-1.86-.07L4 8.52V8.5v.02c.17.33.58.2.74-.02.94-1.31 2.95-4.1 3.46-4.69.5-.56.94-.24 1.09 0z" fill="#9B4A0C"/><path d="M11.28 6.65l1.36 2c-.44-.3-.78 0-.9.17l-3.61 4.72c-.79.81-1.64.39-1.86-.07l-.73-1.56-.01-.01v.01c.17.33.58.21.74-.01.94-1.32 3.41-4.66 3.93-5.25.48-.56.93-.24 1.08 0z" fill="#B79D4C"/><path d="M14 11.84c0 1.31-.8 2.16-1.95 2.16a1.5 1.5 0 010-3c1.19 0 1.74 0 .97-1.86.98 1.14.98 2.3.98 2.7z" fill="#949293"/></svg>