<!-- by TradingView --><svg width="18" height="18" viewBox="0 0 18 18" xmlns="http://www.w3.org/2000/svg"><path fill="url(#aqsk3krb2)" d="M0 0h18v18H0z"/><path d="M6.53 5.94a3.13 3.13 0 0 0 .34.47l.07.06a.2.2 0 0 0 .1.03l.1-.02.13-.04a5.07 5.07 0 0 1 3.45 0 3.7 3.7 0 0 0 .24.06.2.2 0 0 0 .1-.03.42.42 0 0 0 .07-.06l.13-.15c.08-.1.16-.24.21-.32l-.2-.15a2.86 2.86 0 0 1-.3.4.2.2 0 0 1-.02.03h-.04a3.5 3.5 0 0 1-.12-.05c-.1-.03-.23-.08-.4-.12-.33-.1-.79-.19-1.37-.19a10.88 10.88 0 0 0-.04 0 5.27 5.27 0 0 0-1.77.31 3.59 3.59 0 0 1-.16.05l-.03-.02a2.86 2.86 0 0 1-.29-.41l-.2.15Zm.52.28Zm3.9 0ZM7.3 8.65c.05-.02.12 0 .14.03l.13.17h2.86l.13-.17c.02-.03.1-.05.15-.03.05.02.07.07.04.1l-.13.18c-.04.04-.1.07-.17.07h-2.9c-.07 0-.13-.03-.17-.07l-.13-.17c-.03-.04-.01-.09.04-.1Z" fill="#99D1A1"/><path fill-rule="evenodd" d="M3.24 8.32c0 .05 0 .06.02.07 0 0 .03.02.08.02.09 0 .22-.02.32-.07h.01a20.8 20.8 0 0 1 5.27-.77h.02c.95 0 3.31.16 5.35.76h.01c.12.06.25.09.34.08.05 0 .07-.01.08-.02l.03-.07-.02-.03a3.3 3.3 0 0 0-.39-.45 8 8 0 0 0-5.41-2.19 7.79 7.79 0 0 0-5.7 2.64l-.01.03Zm5.7-2.9a8.03 8.03 0 0 0-5.9 2.76.3.3 0 0 0-.04.14c0 .1.03.18.1.24.06.05.14.08.22.08.14.01.3-.03.43-.09 2-.6 4.3-.75 5.2-.75.93 0 3.27.15 5.29.75.12.06.3.1.44.1.07-.01.16-.04.22-.1a.3.3 0 0 0 .1-.23c0-.05-.02-.1-.04-.14a3.5 3.5 0 0 0-.43-.5 8.25 8.25 0 0 0-5.56-2.25h-.02Z" fill="#99D1A1"/><path d="M4.12 9c.07 0 .14.04.14.1.22 1.8 1.7 3.26 3.63 3.67.07.01.11.08.1.14-.02.06-.09.1-.16.09-2.04-.44-3.6-1.98-3.83-3.87 0-.07.05-.12.12-.13Zm5.9 3.9c-.02-.05.02-.12.1-.13 1.93-.41 3.4-1.87 3.62-3.66 0-.07.07-.11.14-.11s.13.06.12.13c-.23 1.9-1.79 3.43-3.83 3.87-.07.01-.14-.03-.16-.1ZM9 4.22a4.8 4.8 0 0 0-3.77 1.73.14.14 0 0 1-.17.03c-.06-.03-.08-.1-.04-.15A5.07 5.07 0 0 1 9 4c1.64 0 3.1.72 3.98 1.83.04.05.02.12-.04.15a.14.14 0 0 1-.17-.03A4.8 4.8 0 0 0 9 4.22ZM5.93 8.65c.06 0 .12.05.12.11.12 1.05.76 2 1.64 2.47.05.03.08.1.05.16a.11.11 0 0 1-.15.06 3.52 3.52 0 0 1-1.77-2.67c0-.07.04-.12.1-.13Zm4.33 2.74a.12.12 0 0 1 .05-.16 3.28 3.28 0 0 0 1.63-2.47c0-.07.06-.11.12-.1.07 0 .11.05.1.12a3.51 3.51 0 0 1-1.74 2.66.11.11 0 0 1-.16-.05ZM7.02 7.3a.12.12 0 0 1-.09.15l-2.38.48a.11.11 0 0 1-.14-.1.12.12 0 0 1 .1-.13l2.38-.48c.06-.02.12.03.13.09ZM10.98 7.3c-.01.07.03.13.09.15l2.39.48c.06 0 .11-.03.13-.1a.12.12 0 0 0-.1-.13l-2.38-.48a.11.11 0 0 0-.13.09Z" fill="#99D1A1"/><path d="M5.22 9c.07 0 .13.05.13.11.1.84.44 1.6.97 2.18.04.05.04.13 0 .17a.11.11 0 0 1-.17 0 4.12 4.12 0 0 1-1.03-2.33c0-.07.04-.12.1-.13Zm6.46 2.46a.13.13 0 0 1 0-.17c.53-.58.88-1.34.97-2.18 0-.06.06-.11.13-.11.06 0 .1.06.1.13-.1.9-.47 1.7-1.03 2.33a.11.11 0 0 1-.17 0ZM7.67 9.36c-.06.02-.1.08-.08.14l1.02 4.18c.1.43.67.43.78 0L10.4 9.5c.01-.06-.02-.12-.08-.14-.05-.02-.11.02-.13.08l-1.02 4.18a.2.2 0 0 1-.06.11V9.47c0-.06-.05-.1-.11-.1s-.1.04-.1.1v4.28a.2.2 0 0 1-.1-.13L7.8 9.44c-.01-.06-.07-.1-.12-.08ZM8.25 8.44c0 .08-.07.15-.16.15a.15.15 0 0 1-.15-.15c0-.09.07-.15.15-.15.09 0 .16.06.16.15ZM10.06 8.44c0 .08-.07.15-.15.15a.15.15 0 0 1-.16-.15c0-.09.07-.15.16-.15.08 0 .15.06.15.15ZM6.48 8.44c0 .08-.07.15-.15.15a.15.15 0 0 1-.15-.15c0-.09.07-.15.15-.15.08 0 .15.06.15.15ZM6.83 9.15c0 .08-.06.15-.15.15a.15.15 0 0 1-.15-.15c0-.08.07-.15.15-.15.09 0 .15.07.15.15ZM7.19 9.87c0 .08-.07.15-.15.15a.15.15 0 0 1-.16-.15c0-.09.07-.16.16-.16.08 0 .15.07.15.16ZM7.54 10.58c0 .08-.07.15-.15.15a.15.15 0 0 1-.15-.15c0-.08.06-.15.15-.15.08 0 .15.07.15.15ZM11.47 8.44c0 .08.07.15.15.15.09 0 .16-.07.16-.15a.15.15 0 0 0-.16-.15.15.15 0 0 0-.15.15ZM11.12 9.15c0 .08.07.15.15.15.08 0 .15-.07.15-.15a.15.15 0 0 0-.15-.15.15.15 0 0 0-.15.15ZM10.76 9.87c0 .08.07.15.16.15.08 0 .15-.07.15-.15a.15.15 0 0 0-.15-.16.15.15 0 0 0-.16.16ZM10.41 10.58c0 .08.07.15.15.15.09 0 .16-.07.16-.15a.15.15 0 0 0-.16-.15.15.15 0 0 0-.15.15ZM9.15 8.44c0 .08-.07.15-.15.15a.15.15 0 0 1-.15-.15c0-.09.07-.15.15-.15.08 0 .15.06.15.15Z" fill="#99D1A1"/><path fill-rule="evenodd" d="M8.21 4.71c-.45.03-.9.2-1.1.47a5.6 5.6 0 0 0-.51.1c-.06.02-.09.07-.06.1.03.04.1.06.16.04l.53-.1A17.5 17.5 0 0 1 9 5.16a17.5 17.5 0 0 1 2.3.26c.06.02.13 0 .16-.04.03-.03 0-.08-.06-.1a5.6 5.6 0 0 0-.52-.1c-.2-.27-.64-.44-1.1-.47H8.22Zm-.18.37-.6.06c.13-.1.34-.22.65-.26l-.05.2Zm.24-.02.05-.2h.56v.16c-.17 0-.38.02-.61.04Zm1.7.02.6.06a1.3 1.3 0 0 0-.65-.26l.05.2Zm-.24-.02-.05-.2h-.56v.16c.17 0 .38.02.61.04Z" fill="#99D1A1"/><defs><linearGradient id="aqsk3krb2" x1="3.38" y1="2.25" x2="13.82" y2="16.39" gradientUnits="userSpaceOnUse"><stop stop-color="#4AA0F1"/><stop offset="1" stop-color="#2D55D7"/></linearGradient></defs></svg>