<!-- by TradingView --><svg width="18" height="18" viewBox="0 0 18 18" xmlns="http://www.w3.org/2000/svg"><path fill="#F0F3FA" d="M0 0h18v18H0z"/><path d="M3.74 5.45A2.31 2.31 0 0 1 4 5v2.76h-.72c.01-.43.06-.85.14-1.27.07-.36.17-.72.32-1.05ZM4 8H3v2h1V8Z" fill="#969696"/><path d="M5 8h10v2H5V8Z" fill="url(#aaf3twjp1)"/><path d="M3.73 12.54c-.13-.3-.22-.6-.29-.92a8.1 8.1 0 0 1-.15-1.39H4V13h-.01c-.1-.14-.19-.29-.26-.45Z" fill="#969696"/><path fill="#163444" d="M5 6h10v1.7H5z"/><path d="M5 10.38h10V12H5v-1.62Z" fill="#C2AA3B"/><defs><linearGradient id="aaf3twjp1" x1="4.99" y1="9" x2="14.99" y2="9" gradientUnits="userSpaceOnUse"><stop stop-color="#9E9E9E"/><stop offset=".42" stop-color="#C3C3C3"/><stop offset="1" stop-color="#545454"/></linearGradient></defs></svg>