<!-- by TradingView --><svg width="18" height="18" viewBox="0 0 18 18" xmlns="http://www.w3.org/2000/svg"><path fill="#F0F3FA" d="M0 0h18v18H0z"/><path d="M13 5.1c0-.05-.07-.1-.11-.1-.02 0-.04 0-.05.02L8.99 7.49 5.15 5.02c-.05-.04-.1-.02-.13.03C5 5.07 5 5.1 5 5.1v7.8c0 .05.05.1.1.1h1.77c.05 0 .13-.05.13-.1V8.6l1.91 1.16.1.03.1-.03 3.84-2.42c.05-.02.05-.06.05-.12V5.1Z" fill="#003B7E"/><path d="M12.94 8.21a.1.1 0 0 0-.1 0l-1.78 1.17c-.04.03-.06.05-.06.14v3.38c0 .05.05.1.1.1h1.8c.05 0 .1-.05.1-.1V8.3c-.02-.05-.03-.08-.06-.1Z" fill="#F9AE00"/></svg>