<!-- by TradingView --><svg width="18" height="18" viewBox="0 0 18 18" xmlns="http://www.w3.org/2000/svg"><path fill="#F0F3FA" d="M0 0h18v18H0z"/><path d="M9 6.96a1.68 1.68 0 0 1 1.22-.4c.3.03.58.14.82.32.47.33.6.85.6 1.4v1.1c0 .3.27.52.57.56l.2-.01a.58.58 0 0 0 .44-.39 3.92 3.92 0 0 0-5.73-3.96 3.9 3.9 0 1 0 4.42 6.4.97.97 0 0 1 .44-.22.67.67 0 0 1 .25 0c.09.02.16.05.23.1.06.05.1.1.13.18.02.07.03.14.02.21a.63.63 0 0 1-.14.33 9.04 9.04 0 0 1-.53.46 5.16 5.16 0 0 1-2.19.9 5.17 5.17 0 0 1-2.95-.46 4.94 4.94 0 0 1-1.88-1.62 4.93 4.93 0 0 1-.67-4.38 5 5 0 0 1 7.13-2.88 5.06 5.06 0 0 1 2.6 4.7 2.2 2.2 0 0 1-.38 1.08 1.55 1.55 0 0 1-1.27.65 1.7 1.7 0 0 1-.84-.18 1.59 1.59 0 0 1-.63-.58 1.6 1.6 0 0 1-.25-.87V8.2c0-.07 0-.13-.02-.18a.56.56 0 0 0-.38-.35.52.52 0 0 0-.66.4v.15a81.15 81.15 0 0 1-.02 2.1.54.54 0 0 1-.38.38.56.56 0 0 1-.27 0 .5.5 0 0 1-.24-.12.55.55 0 0 1-.18-.4v-.02a1761 1761 0 0 0 0-2.05.56.56 0 0 0-.2-.34.52.52 0 0 0-.37-.12.53.53 0 0 0-.32.13.51.51 0 0 0-.17.3 1 1 0 0 0-.01.17v1.92a.54.54 0 0 1-.7.53c-.2-.06-.29-.24-.32-.45a589.5 589.5 0 0 1-.01-2.03v-.17A1.56 1.56 0 0 1 8 6.56a1.64 1.64 0 0 1 1 .4Z" fill="#EA262A"/></svg>