<!-- by TradingView --><svg width="18" height="18" viewBox="0 0 18 18" xmlns="http://www.w3.org/2000/svg"><path fill="#F0F3FA" d="M0 0h18v18H0z"/><circle cx="9" cy="9" fill="#004F9E" r="6"/><path d="M3.07 9.92a6 6 0 0 0 10.79 2.6 2.47 2.47 0 0 0-1.1-.4h-.02a5.4 5.4 0 0 0-1.61-1.07l.02-.1h.03c.7-.3 1.12-.83 1.21-1.5.07-.55-.07-1.1-.38-1.55v-.02c.09-.64-.03-1.3-.33-1.88a2.24 2.24 0 0 0-1-.95c-.1-.39-.6-.69-1.14-.67-.42 0-.87.21-1.04.53a2.94 2.94 0 0 0-1.91 2.32 2 2 0 0 0-.27 2.97 9.5 9.5 0 0 0-1.84.2h-.02a2.5 2.5 0 0 0-1.39-.48Z" fill="#323435"/><path d="M3.15 10.34a2.15 2.15 0 0 1 1.41.7v.01a2.22 2.22 0 0 1 .37 2.36c-.38-.35-.71-.75-.99-1.18a2.39 2.39 0 0 0-.76-1.75 6 6 0 0 1-.03-.14ZM13.6 12.86l-.15.16c-.06-.1-.12-.2-.2-.3l-.03-.06c.13.06.26.12.38.2Z" fill="#fff"/><path d="M10.53 14.8a22.1 22.1 0 0 1-3.93-.75c-.43-.13-.86-.29-1.27-.47a2.67 2.67 0 0 0-.43-2.83l-.03-.03a9.04 9.04 0 0 1 1.57-.13l-.03.02.3.06c.09.03.2.12.33.2.16.13.34.25.45.27.04 0 .13-.02.03-.09-.03-.02-.27-.23-.18-.34a.1.1 0 0 1 .12-.05c.3.08.55.12.64.13h.11s0-.03-.05-.05a4.07 4.07 0 0 1-1.33-.58 1.66 1.66 0 0 1-.66-1.52 1.6 1.6 0 0 1 .63-1.07c.13-.08.27-.15.42-.2.16-.05-.08-.1-.12-.1-.08-.01-.08-.09-.02-.3a2.46 2.46 0 0 1 1.6-1.68c.12-.05.24-.09.37-.12.16-.02.1-.1-.09-.12 0 0-.06 0-.03-.04a.45.45 0 0 1 .1-.08c.15-.1.34-.15.53-.16.37 0 .7.2.73.4 0 0 .02.03-.03.04-.04 0-.13.03-.03.08l.04.01.23.1h.02c.28.14 1.16.68 1.1 2.2v.13l-.01.13c-.08 0-.12.02-.06.08l.21.27c.2.35.3.76.25 1.17a1.44 1.44 0 0 1-.75 1.06c-.29.16-.6.28-.93.36-.09.01-.05.13.36.12.04 0 .11 0 .14.05.04.1-.04.26-.22.37-.17.1-.03.11.19.05.08 0 .17.03.24.06a4.89 4.89 0 0 1 2.13 1.87 6 6 0 0 1-2.64 1.48Z" fill="#fff"/><path d="M9.95 9.47a.94.94 0 0 1-.36.04c-.12-.01-.24-.04-.35-.09a1.13 1.13 0 0 1-.31-.24c.43.12.89.16 1.34.12-.1.08-.2.14-.32.18Zm.95-.57c-.04 0-.05.03-.04.04l.02.02-.05.03c-.1.04-.2.08-.31.1-.27.06-.55.07-.82.05-.45-.04-.89-.14-1.3-.31l-.12-.05-.05-.02a.09.09 0 0 0-.12.08.1.1 0 0 0 .06.1c.11.05.23.1.35.13.1.06.18.13.26.22a1.2 1.2 0 0 0 1.07.39 1 1 0 0 0 .37-.14l.23-.18.14-.1.34-.16c0 .04 0 .07.02.08.02 0 .05-.05.07-.1a.2.2 0 0 0 0-.1.15.15 0 0 0-.1-.08h-.02ZM8.42 7.37c.02-.17.12-.7.54-.66a.47.47 0 0 1 .43.48v.02a.97.97 0 0 1-.15.63.38.38 0 0 1-.26.22h-.02a.62.62 0 0 0 .28-.5c.02-.32-.12-.59-.34-.6a.33.33 0 0 0-.27.12.19.19 0 0 1 .01.37.15.15 0 0 1-.14-.12.83.83 0 0 0-.03.16c-.02.17.02.34.12.48a.28.28 0 0 1-.04-.04.72.72 0 0 1-.13-.35v-.21Zm.05.63c.04.06.1.1.17.13a.7.7 0 0 0 .19.03H9c.26 0 .5-.4.51-.8 0-.36-.04-.64-.3-.79a.59.59 0 0 0-.44-.06.52.52 0 0 0-.3.26 1.3 1.3 0 0 0-.14.4c-.04.13-.04.28-.02.42.01.15.07.29.16.4V8Zm2.6-.28-.07.2a.72.72 0 0 1-.21.3.27.27 0 0 1-.12.05.64.64 0 0 0 .26-.5c.03-.3-.11-.58-.32-.6a.32.32 0 0 0-.27.13c.07 0 .13.07.14.17a.17.17 0 0 1-.13.19.15.15 0 0 1-.14-.12.82.82 0 0 0-.03.16.66.66 0 0 0 .14.5.42.42 0 0 1-.15-.24.98.98 0 0 1 .03-.64V7.3a.46.46 0 0 1 .52-.35c.4.07.37.6.34.77v.01Zm.09-.6a.52.52 0 0 0-.23-.32.56.56 0 0 0-.33-.07.44.44 0 0 0-.09.02c-.28.09-.4.34-.47.68-.1.38.03.82.27.9.06.01.1.03.16.03h.19c.07 0 .13-.03.2-.07.1-.1.2-.22.25-.35.05-.14.08-.28.09-.42 0-.14 0-.28-.04-.42" fill="#323435"/><path d="M8.3 8.61c0-.04-.06-.04-.08-.04a.4.4 0 0 0-.13.03.3.3 0 0 0-.19.25c0 .01 0 .02.02.03a.05.05 0 0 0 .05.01.03.03 0 0 0 .02-.03c0-.03.02-.06.04-.09.06-.05.13-.09.21-.1.03 0 .06-.03.05-.06" fill="#323435"/></svg>