<!-- by TradingView --><svg width="18" height="18" viewBox="0 0 18 18" xmlns="http://www.w3.org/2000/svg"><path fill="#F0F3FA" d="M0 0h18v18H0z"/><path fill-rule="evenodd" d="M11.06 12.86v.33l-.02.02-1.6.79a.02.02 0 0 1-.01 0l-1.48-.67v-.01l-.01-.02v-1.52h-.02l-1.07.75a.02.02 0 0 1-.03 0l-.48-.71v-.01a.02.02 0 0 0-.02 0H6.3l-.76.59h-.02L4 11.8v-.01L4 11.77v-6.1h.01L5.51 5h.02l1.44.58v.02l.73 2.1.02.01a.02.02 0 0 0 .02 0l.47-.52v-.01l4.5-2.1a.02.02 0 0 1 .02 0l1.26.58.01.02V7.3h-.02l-.85.42h-.01V12.08l-.02.02-1.65.88h-.01l-.35-.13c-.01 0-.03 0-.03.02Zm-5.59-2.9v2.14s0 .02-.02.01l-1.15-.48V5.84l.01-.01a.02.02 0 0 1 .02 0l1.06.41h.01v.01l1.33 3.47h.01v.01h.02L8.1 7.5h.02l1.16.43h.01v5.81a.02.02 0 0 1 0 .02h-.01l-1.15-.55-.01-.01v-2.46h-.03l-1.26 1.37H6.8L5.5 9.94c-.02-.02-.04 0-.04 0ZM11 8.7v3.9l.01.01.34.15h.02V8.5h-.02l-.34.18-.01.02Z" fill="#1462AD"/></svg>