<!-- by TradingView --><svg width="18" height="18" viewBox="0 0 18 18" xmlns="http://www.w3.org/2000/svg"><path fill="#F0F3FA" d="M0 0h18v18H0z"/><path d="m14 6.72-1.41 1 .5.84 1.41.08-.5-1.92ZM12.88 9.39l1.5-.03-.4 1.67-1.4-.84.3-.8ZM12.42 10.53l-.96.91-.14 1.06 1.33.3 1.1-.44-.38-1.2-.95-.63ZM9.35 11.89h1.16l.55 1.61-1.37.2-.34-1.81ZM6.89 12.58l1.04-.7.87.48.17 1.17-.87.47-1.24-.47.03-.95ZM5.1 12.25l1.67-1.7.3 1.23-1.02 1.39-.96-.92ZM4.1 10.8l1.31-.83.67.4-.99 1.35-.98-.91ZM3.5 8.8l2 .06-.2.61-1.57.67L3.5 8.8ZM3.9 7.17l1.63.3.03.86-1.77.14.12-1.3ZM4.34 5.92l.93-.42.98.14-.06.94-.63.73-.84-.53-.38-.86ZM6.02 4.58 7.26 4l.55 1.53-.78.44-1.01-1.39ZM7.96 4.3l.8-.3.93.22-.08.75-.7.7s-.66-.42-.66-.48c0-.05-.3-.88-.3-.88ZM10.65 4.28l1.45.58-1.04 1.33-.87-.27.46-1.64ZM11.49 5.89l.84-.67 1.1.42.2.97-.92.67-1.05-.34-.17-1.05ZM8.3 9.36l.35-.86.64-.67.64.73.31.8-1 .17-.93-.17Z" fill="#3AC200"/><path d="m6.05 8.83.9-.3.83.14-.14.89-.55.6-.75-.58-.3-.75ZM7.23 10.44l1.13-.8.87.28-1.01 1.44-.99-.92ZM9.38 10.25l.92-.7.81.48.18 1.1-.87.43-1.1-.42.06-.89ZM10.6 8.56l1.2-1.03.79 1.55-1.39.5-.6-1.02ZM10.27 8.14l1.16-.95-1.19-.8-.8 1.22.83.53ZM7.61 6.2l1.3-.28.67.02-.38 1.2-.34.53-.9-.9-.35-.58ZM6.74 6.72l-.6 1.34 1.85.22.29-.72v-.03l-1.54-.8Z" fill="#008DE2"/></svg>