<!-- by TradingView --><svg width="18" height="18" viewBox="0 0 18 18" xmlns="http://www.w3.org/2000/svg"><path fill="#012E5B" d="M0 0h18v18H0z"/><path d="M7.61 5.74c-.64.51-2.71 3.4-3.61 4.72l1.63 1.15C6.87 9.58 7.9 8.12 9.16 7.04c.94-.8 2.07-.57 2.52-.34-.24-1.1-1.4-1.67-2.4-1.7-.73-.02-1.26.4-1.58.67l-.09.07Zm-1.49 6.05-.06.1L7.66 13l.4-.65c.97-1.61 1.53-2.53 2.65-3.5.93-.8 1.81-.38 2.27-.14-.42-.96-1.17-1.65-2.16-1.68-.68-.02-1.32.53-1.68.84L8.98 8c-.62.5-1.96 2.47-2.86 3.8ZM14 13c-.84-.18-2.71-.67-3.48-1.22-.95-.68-.44-1.77 0-2.09.2-.16.7-.47 1.22-.44.65.03 1.53.41 2.26 3.75Z" fill="#fff"/></svg>