<!-- by TradingView --><svg width="18" height="18" viewBox="0 0 18 18" xmlns="http://www.w3.org/2000/svg"><path fill="#F0F3FA" d="M0 0h18v18H0z"/><path d="M5.66 6.13c.3-.44.7-.82 1.17-1.1l.53.73s-1 .9-1.08.81a8.76 8.76 0 0 0-.62-.44ZM5.09 9a3.6 3.6 0 0 1 0-1.63c.4.11 1.18.36 1.18.36L5.92 8.8l-.83.22Zm1.78 2.4c-.5-.3-.94-.7-1.26-1.19l.87-.48.85.92-.46.76Zm3.07.48a4.19 4.19 0 0 1-1.74.03c.04-.34.11-.77.18-.88l1.38-.15.18 1Zm2.49-1.74c-.3.49-.72.9-1.22 1.21l-.4-.65v-.1l.83-.93.79.47Zm.45-2.89a3.6 3.6 0 0 1 .05 1.64l-.84-.18-.19-1.08.98-.38ZM11.13 5c.48.29.9.67 1.2 1.12l-.68.4-.92-.82.4-.7Z" fill="#181B1E"/><path d="M7.56 5.35a3.26 3.26 0 1 0 2.88-.03v.83a2.53 2.53 0 1 1-2.88.04v-.84Z" fill="#181B1E"/><path d="m8 4 1-1 1 1v5H8V4Z" fill="#F5CC16"/><path d="M3 9a6 6 0 0 0 12 0h-1c-.15 2.53-2.33 5-5 5s-4.85-2.47-5-5H3Z" fill="#ED1C24"/></svg>