<!-- by TradingView --><svg width="18" height="18" viewBox="0 0 18 18" xmlns="http://www.w3.org/2000/svg"><path fill="url(#a)" d="M0 0h18v18H0z"/><path fill="#1E1E1E" d="M4 4h10v.6H4zM4 13.4h10v.6H4v-.6Z"/><path d="M12.14 11.51v-.65H14v1.54a3.14 3.14 0 0 1-1.83.6c-.45 0-.84-.08-1.17-.25a1.7 1.7 0 0 1-.75-.73 2.17 2.17 0 0 1-.25-1.03c0-.4.1-.76.28-1.08.19-.31.46-.55.82-.72.27-.13.62-.19 1.02-.19.54 0 .95.1 1.25.3.3.2.49.48.57.84l-.85.14a.81.81 0 0 0-.34-.45 1.1 1.1 0 0 0-.63-.16c-.37 0-.67.1-.9.32-.22.22-.33.54-.33.97 0 .45.11.8.34 1.03.22.23.52.34.89.34a1.96 1.96 0 0 0 1.01-.33v-.49h-1ZM4 9V5h1.25L6 7.73 6.75 5H8v4h-.78V5.85L6.4 9h-.8l-.82-3.15V9H4ZM9 5h5v3.5H9V5ZM4 9.5h5V13H4V9.5Z" fill="#F8D374"/><defs><linearGradient id="a" x1="9" y1="0" x2="9" y2="18" gradientUnits="userSpaceOnUse"><stop stop-color="#656565"/><stop offset="1" stop-color="#F0F0F0"/></linearGradient></defs></svg>