<!-- by TradingView --><svg width="18" height="18" viewBox="0 0 18 18" xmlns="http://www.w3.org/2000/svg"><path fill="#F0F3FA" d="M0 0h18v18H0z"/><path d="M13 6.84V11h1V6.8C14 4.7 12.77 3 10.83 3H10C8.35 3 7 4.46 7 6.27h1C8 4.99 8.61 4 10.02 4h.75C12.25 4 13 5.24 13 6.84Z" fill="#A4A7AC"/><path d="M5.44 6.42 6.47 6l1.14.81v1.3l-.92.48V7.37l-1.25-.95Zm2.33-.4h.98l.6 1.02-.49 1.04-.9.07.45-.96-.64-1.17Zm2.96.97-.77-.47-.08 1.21-.85.53.76.38.9-.57.04-1.08Zm.75 1.12.3.67-.58.73h-.92l-.34-.6h.86l.68-.8Zm.52 2.46V9.9l-.89.42-.65-.35v.68l.68.45.86-.52Zm-.15 1.2-.35.61-1.02.08-.36-.7.34-.6.4.6 1 .01Zm-1.62 2.28.8-.33-.9-.69.1-.82-.8.32-.2.9 1 .62Zm-1.1.78-.99-.02-.72-1.08.67-.83.98.02-.52.8.59 1.1ZM4.08 7.48l-.54.93 1.66.13.84 1.04.41-.92-.9-1.12-1.47-.06ZM3 11.1v-1.07l1.49-.67 1.46.67.08 1.07-1.36-.63L3 11.1Zm.56 1.97.73.83.86-1.48 1.48-.31-.8-.78-1.58.34-.7 1.4ZM6.76 15l-.92-.36-.08-1.33 1.08-.86.95.3-1 .8L6.76 15Z" fill="url(#a2whqjqmo)"/><defs><linearGradient id="a2whqjqmo" x1="2.88" y1="10.5" x2="12.37" y2="10.31" gradientUnits="userSpaceOnUse"><stop offset=".48" stop-color="#133457"/><stop offset="1" stop-color="#9AB66C"/></linearGradient></defs></svg>