<!-- by TradingView --><svg width="18" height="18" viewBox="0 0 18 18" xmlns="http://www.w3.org/2000/svg"><path fill="#F0F3FA" d="M0 0h18v18H0z"/><path d="M10.6 4.32c.02.07-.03.1-.14.09a.6.6 0 0 1-.11-.03 26.58 26.58 0 0 0-1.33-.26L8.9 4.1c-.01 0-.03.01-.03.03v.02l.03.03.04.03a1.55 1.55 0 0 0-.34-.04l-.52.03a.85.85 0 0 0-.27.05 2.41 2.41 0 0 1-.28.11v.01c.02.01.02.02 0 .02l-.06-.01-.05.02a.27.27 0 0 1-.17.02.9.9 0 0 1 .26-.13c.07-.03.09-.04.04-.05l.64-.15.35-.05c.06 0 .14 0 .26-.02.15-.02.26-.02.33-.02.52.02 1 .13 1.48.32Z" fill="#4C2409"/><path d="m10.22 4.34.15.1.03.04v.1c-.03-.09-.07-.12-.12-.1-.02 0-.03 0-.03.03l-.01.03c-.01.01-.02.02-.04 0a1.3 1.3 0 0 0-.49-.14h.07c.02-.01.02-.02 0-.04a.3.3 0 0 0-.26-.07c-.02 0-.03 0-.03.03 0 .02-.01.03-.03.03h-.08l-.13-.03.15.02c.01 0 .02 0 .02-.02V4.3c0-.01 0-.02-.02-.02l-.46-.07a.53.53 0 0 1-.04-.03l-.03-.03v-.02c0-.02.02-.03.03-.03a3.42 3.42 0 0 0 .3.03l1.02.21Z" fill="#B58818"/><path d="m8.94 4.2.46.08c.01 0 .02 0 .02.02v.02c0 .01 0 .02-.02.02l-.15-.02a2.26 2.26 0 0 0-.8-.02 4.1 4.1 0 0 0-1.86.64l-.17.1c-.35.3-.59.49-.7.6-.13.13-.3.36-.53.67l-.3.52c0 .02-.02.03-.03.05-.1.18-.15.32-.17.4l-.06.18-.07.25-.07.21a10.42 10.42 0 0 0-.22 1.02c-.03.4 0 .7.09.92.03.07.04.17.05.3a3.52 3.52 0 0 0 .02.17c.06.08.08.15.08.24l.01.05c.02.01.04.05.07.1l.06.15c0 .03.02.06.04.1l.05.1a1.03 1.03 0 0 0 .28.49c.09.09.15.2.18.31l-.45-.57a.07.07 0 0 1-.01-.05c0-.03 0-.05-.02-.07a1.3 1.3 0 0 1-.14-.26c-.03-.1-.06-.16-.09-.18a.06.06 0 0 1-.03-.05.12.12 0 0 0-.03-.08.06.06 0 0 1-.01-.05l-.01-.07a.29.29 0 0 1-.05-.2c0-.02 0-.03-.02-.03h-.02l-.01-.03v-.03c0-.1 0-.17-.02-.21-.06-.23-.1-.47-.1-.7 0-.03-.02-.03-.04-.03h-.02l-.04.05v.2l.01-.58c.07-.02.11-.1.12-.24 0-.12 0-.2.02-.25l.1-.49a4.25 4.25 0 0 1 .2-.58c.05-.15.1-.29.17-.42l.21-.41a5.55 5.55 0 0 1 1.5-1.66l.47-.28.02-.03c0-.02.02-.02.04-.02.1-.03.2-.07.3-.13.06.01.12 0 .17-.02l.05-.02h.07v-.02l.27-.1a.85.85 0 0 1 .27-.06l.52-.03c.1 0 .22.01.34.04Z" fill="#876210"/><path d="M6.04 5.12a.78.78 0 0 1 .39-.24A5.55 5.55 0 0 0 4.22 8.7c0 .14-.05.22-.12.24v-.4c-.01-.02-.02-.03-.03-.02l-.02.01a2.67 2.67 0 0 1 .2-.85 6.74 6.74 0 0 1 .55-1.16.34.34 0 0 1-.03.05c-.02.02-.03.02 0 0l.11-.18c.05-.05.14-.19.26-.4.28-.46.56-.8.83-1 .14-.1.35-.26.6-.47a4.99 4.99 0 0 1 .5-.24l-.01.02c-.4.21-.75.45-1.05.7-.1.1-.2.21-.3.37 0 .02 0 .03.01.02a.32.32 0 0 0 .1-.08c.07-.07.14-.13.22-.18Z" fill="#DDC477"/><path d="M7.55 4.24c.05 0 .03.02-.04.05a.9.9 0 0 0-.26.13 1.62 1.62 0 0 1-.34.15l-.02.03-.46.28a.78.78 0 0 0-.4.24c.12-.13.25-.24.38-.31a15.07 15.07 0 0 0 .83-.49c.02 0 .03 0 0 .02h-.02v.02h.05l.28-.12Z" fill="#FEF068"/><path d="m9.25 4.32.13.03.33.05c.17.02.33.07.49.15l.04-.01V4.5c0-.02.02-.03.04-.04.05-.01.09.02.11.1.07.05.15.09.24.11a.1.1 0 0 0 .05 0c.07-.02.12 0 .18.07.05.07.13.1.23.09h.05l.1.08c.06.05.12.09.17.11.1.05.2.1.27.18.03.04.08.08.16.13l.16.12.37.4c0 .02 0 .04-.02.05h-.05c-.07-.05-.12-.07-.16-.05-.15.22-.35.38-.58.5v-.24c0-.05.03-.08.08-.08.08 0 .13-.04.16-.1.03-.06.03-.13-.02-.19a.48.48 0 0 0-.15-.12c-.02-.01-.04 0-.06.01l-.41.47c-.02.02-.01.03.01.03h.08l.34-.4h.04c.07.04.1.09.1.14 0 .02 0 .04-.02.05a.4.4 0 0 1-.18.05c-.04 0-.05.02-.05.05v.36c-.21.18-.43.22-.66.12a1.24 1.24 0 0 0-.25-.2 1.5 1.5 0 0 1-.15-.1l-.2-.16a1.67 1.67 0 0 0-.4-.19c-.17-.05-.3-.06-.4-.01h-.05l-.09-.04c-.01 0-.02 0-.02.02-.01.09-.04.13-.09.12a.6.6 0 0 0-.45.12v.01h.02c.1-.05.21-.1.33-.1l.05.01c.02.03.03.06.02.1l.01.01.02-.01h.03c.04.1.09.15.13.18l.49.38v.03c-.04.02-.1.01-.15-.02l-.35-.34a.73.73 0 0 0-.25-.18l-.01.02v.01c.06.03.09.08.1.13 0 .03 0 .09-.02.16l-.02.09c0 .04 0 .07.03.08h.04l.04-.03c.02-.02.04-.01.05 0 .11.15.15.3.1.5 0 .02-.01.03-.04.02-.15 0-.3.01-.44.06a.05.05 0 0 0-.03.03c-.02.1 0 .2.03.29.02.04.01.08-.03.1l-.01.02c-.05.03-.09.02-.12-.02L8.6 7.4v-.05a.14.14 0 0 1 .06-.04c.02 0 .02-.02 0-.03l-.16-.1a.06.06 0 0 0-.05 0 .3.3 0 0 0-.16.1c-.02.03-.02.06 0 .1.02.02.05.04.1.05a.4.4 0 0 1 .27.14c.06.08.13.11.21.1.08-.02.13-.08.13-.18v-.16c0-.02.01-.03.03-.03a.7.7 0 0 1 .25-.03c.02 0 .03.02.04.03.02.02.02.04.01.06a.7.7 0 0 1-.21.34.04.04 0 0 0-.01.04c0 .01 0 .02.02.03h.06c.05 0 .07.02.06.05l-.08.29a.37.37 0 0 0 0 .19v.11c0 .1.03.17.07.21.02.02.02.04.02.07 0 .02-.01.02-.03.02h-.12c-.02-.01-.03 0-.03.02v.02c0 .03 0 .04.03.04.05 0 .08.04.08.1l-.14.23a.9.9 0 0 0-.31.16.11.11 0 0 0-.04.05l-.01.05a.48.48 0 0 1-.05.12c-.08.12-.14.25-.18.38 0 .02 0 .04.03.04h.03c.03 0 .06 0 .07-.04l.24-.48.04-.03h.06v.01a2.02 2.02 0 0 0-.15.3c.01.1.05.1.1.02l.09-.12c.22.03.4-.09.55-.37a.48.48 0 0 0 .06-.27c0-.03 0-.04-.02 0l-.06.1a.05.05 0 0 1-.06.02h-.01c-.03 0-.03-.01-.02-.03l.1-.23a.1.1 0 0 0 .02-.04l.03-.32v-.03a.6.6 0 0 1-.04-.14c0-.03 0-.03.02 0 .03.04.07.14.13.31v.05l-.1.25.01.01h.02c.01-.02.02-.02.02 0 .02.34-.09.59-.34.76a3.8 3.8 0 0 0-.23.16l.01.02h.02l.32-.2-.11.13a.77.77 0 0 0-.08.16.9.9 0 0 1-.06.17.2.2 0 0 1-.13.1c-.28.07-.55.1-.81.1a.14.14 0 0 1-.1-.05 3.6 3.6 0 0 1-.18-.2c-.22-.25-.46-.3-.73-.14-.06.04-.1.1-.14.19a.74.74 0 0 0-.06.24c0 .02 0 .03.02.04l.04.02.24-.04c-.08.04-.25.1-.5.14-.16.03-.28.13-.37.31-.06.15-.1.32-.08.5 0 .02 0 .03.02.04l.05.01c.13-.03.24-.08.33-.13a17.76 17.76 0 0 0 1.12-.79.6.6 0 0 1-.17.26 8.92 8.92 0 0 1-1.13.75h-.03a.94.94 0 0 0-.4.1l-.53.29c-.07.03-.1.07-.1.13-.01.05.01.1.06.15.25.23.48.4.7.51l.36.19c.02.07-.04.08-.18 0l-.16-.07a2.3 2.3 0 0 1-.5-.31l-.42-.35c-.1-.08-.16-.15-.17-.22a.78.78 0 0 0-.18-.32 1.03 1.03 0 0 1-.28-.48.48.48 0 0 0-.05-.1.45.45 0 0 1-.04-.1.54.54 0 0 0-.06-.14 1.4 1.4 0 0 0-.07-.11.07.07 0 0 1-.01-.05.37.37 0 0 0-.08-.24 3.5 3.5 0 0 1-.02-.17.94.94 0 0 0-.05-.3 2.11 2.11 0 0 1-.1-.91 10.42 10.42 0 0 1 .23-1.03l.07-.2c0-.07.03-.15.07-.26l.06-.17c.02-.1.08-.23.17-.4l.03-.06.6-.22.41.34c.01.01.02.02.04 0h.02v-.02l-.33-.3a.03.03 0 0 1-.01-.04s.01-.02.03-.02h.24l.39-.01.04-.02.41-.39a.4.4 0 0 0 .28-.26l.38-.13a.5.5 0 0 0 .08-.26c0-.02.01-.03.03-.04l.24-.06v-.02l-.02-.03H7.7a.37.37 0 0 1-.22.08c-.02 0-.03-.02-.03-.04l.04-.24c0-.03.02-.03.04-.01l.44.4h.04l.01-.02v-.03l-.51-.43a3.2 3.2 0 0 0 .93-.76c.28-.04.55-.03.81.02Z" fill="#F1E120"/><path d="m9.71 4.4-.33-.05h.08c.02 0 .03-.01.03-.03 0-.02.01-.03.03-.04.1 0 .2.02.26.08.02.02.02.03 0 .04H9.7Z" fill="#4C2409"/><path d="M8.44 4.3a4.35 4.35 0 0 1-.93.76 1.1 1.1 0 0 0-.12.7l-.37.13a.42.42 0 0 0-.13-.36c-.07-.07-.16-.09-.28-.05-.2.07-.28.2-.27.4-.2.02-.37.1-.51.24L5.8 6.1c-.02 0-.03 0-.03.02v.02c-.2.02-.4.07-.59.16.22-.31.4-.54.53-.67.11-.11.35-.3.7-.6H6.76c.11-.02.2-.06.26-.1.09-.09.18-.2.27-.35a4.1 4.1 0 0 1 1.15-.3Z" fill="#CAA018"/><path d="M14 9.03c-.02-.09-.05-.11-.1-.07a.07.07 0 0 0-.03.04l-.03.2a7.6 7.6 0 0 0-.03-1.16 6.41 6.41 0 0 0-.73-1.8c-.09-.13-.23-.29-.44-.45 0-.01-.03-.02-.08-.01h-.02c-.03.03-.04.05 0 .08a3.04 3.04 0 0 1 .85 1.9.16.16 0 0 0-.05.06c0 .02 0 .03.02.03l.1.04.01.02.05.18-.01.04c-.04.06-.04.1.02.13l.02.04v.1c0 .02 0 .04.02.05l.02.06-.01.04-.12.08a.4.4 0 0 1-.17-.05c.02-.03.03-.06.02-.09-.01-.02-.02-.02-.03 0-.11.14-.23.16-.36.04h-.05a.21.21 0 0 1-.05-.04c-.01-.02-.01-.03.01-.04l.11-.03.3-.02c.03 0 .04-.02.04-.04 0-.03-.03-.04-.09-.05l-.56.08c-.2.08-.32.21-.36.4l-.07.3c-.03.13-.09.27-.18.42l-.28.42c-.2.03-.34 0-.4-.07.43-.43.64-.95.63-1.55a.57.57 0 0 0-.03-.16c-.03-.08-.05-.08-.05 0 0 .09 0 .18.02.27l-.09.05-.05-.66c0-.02-.01-.03-.03-.02h-.02c-.02 0-.02.01-.02.03l.06.6a5.65 5.65 0 0 1-.1-.58c.01-.05.05-.06.1-.06.02 0 .03.02.04.04a.3.3 0 0 0 .08.1c.01.02.02.01.01 0a.91.91 0 0 0-.2-.37l-.03-.03c-.05-.06-.08-.16-.1-.3l.01-.06c.14-.2.24-.4.3-.64l.16-.1c.18-.08.33-.2.47-.34.04.02.05.05.05.1 0 .02 0 .03.02.04l.08.02c.02 0 .03 0 .03-.02 0-.03 0-.06-.03-.08a19.01 19.01 0 0 0-.21-.19l-.07-.1a31.02 31.02 0 0 0-.53-.51c-.08-.05-.13-.1-.16-.13a.87.87 0 0 0-.27-.18.85.85 0 0 1-.17-.11 1.3 1.3 0 0 0-.1-.07.08.08 0 0 0-.05-.01c-.1 0-.18-.02-.23-.09-.06-.06-.11-.09-.18-.07a.1.1 0 0 1-.05 0 .79.79 0 0 1-.24-.1v-.1a.06.06 0 0 0-.02-.04l-.15-.1.13.04a.6.6 0 0 0 .1.03c.12.01.17-.02.16-.09l.6.32.08.02c.02 0 .04.02.05.04a.2.2 0 0 0 .04.03l.17.1a.1.1 0 0 1 .03.02l.07.06.05.02a17.72 17.72 0 0 0 .44.33 5.37 5.37 0 0 1 .9.78c.14.14.24.29.31.43.14.27.28.61.44 1.02.08.22.14.47.17.73l.03.04.01.05v.72Z" fill="#804D05"/><path d="M7.3 4.59c-.1.15-.2.26-.28.34a.48.48 0 0 1-.26.1c-.07.01-.17.02-.31.01h-.03l.17-.1c.3-.19.53-.3.7-.35Z" fill="#B58818"/><path d="M8.4 5.47h-.04V4.8h.02l.5.46h.02l.01-.01v-.47l.02-.01h.02l.02.01v.6l-.01.01h-.02l-.5-.45h-.02v.51c0 .02-.01.02-.02.02Z" fill="#4C2409"/><path d="M11.01 5.05c0 .03.03.05.04.04.02 0 .03-.03.03-.06-.01-.02-.03-.04-.05-.04l-.02.06Z" fill="#CAA018"/><path d="m10.8 5.8.06-.17c0-.01.01-.02.03-.02h.01c.03 0 .04.02.03.04l-.07.16c-.02.04-.05.06-.1.05a.6.6 0 0 1-.23-.09.28.28 0 0 1-.13-.2c-.02-.07.01-.14.08-.2a.58.58 0 0 1 .54-.13l.02.02v.03c0 .02-.02.03-.04.02a.72.72 0 0 0-.33.02c-.1.03-.16.08-.18.15-.03.07 0 .15.09.22.06.05.11.09.17.11.02 0 .03 0 .04-.02Z" fill="#804D05"/><path d="M7.01 5.89a.4.4 0 0 1-.28.26c-.2 0-.34-.1-.4-.27 0-.2.09-.33.28-.4.12-.04.21-.02.28.05.1.1.14.22.13.36Z" fill="#070505"/><path d="M6.44 5.94c.08.14.25.2.38.13s.17-.25.1-.39c-.08-.14-.25-.2-.38-.13s-.17.24-.1.39ZM11.84 5.6c.04.03.07.05.08.04l-.05-.07c-.04-.03-.07-.05-.08-.04l.05.07Z" fill="#CFB320"/><path d="M11.56 6.36c-.03.04-.06.06-.08.03v-.36c0-.03.01-.05.05-.05a.4.4 0 0 0 .18-.05.05.05 0 0 0 .02-.05c0-.05-.03-.1-.1-.14h-.04l-.34.4a.04.04 0 0 1-.04 0h-.04c-.02 0-.03-.01-.01-.03l.41-.47c.02-.02.04-.02.06 0 .06.03.11.07.15.11.05.06.05.13.02.19-.03.06-.08.1-.16.1-.05 0-.08.03-.08.08v.24Z" fill="#876210"/><path d="M13.83 8.13a61.4 61.4 0 0 1 0 .73v.23c0 .01 0 .02-.02.03a.03.03 0 0 1-.03.01h-.02c-.02 0-.03-.02-.03-.04a7.08 7.08 0 0 0-.02-.38v-.14h-.01l-.01.34-.01-.7c0-.01 0-.02-.02-.02h-.01l-.02.03.01.11v.05l-.03.81c-.07.01-.12 0-.14-.02-.02-.01-.02-.03 0-.05l.06-.06a.05.05 0 0 0 .01-.05c0-.07.01-.15.05-.22.02-.03.01-.04-.02-.06-.06-.02-.1-.05-.11-.1l.12-.08a.04.04 0 0 0 .01-.04.13.13 0 0 0-.02-.06.08.08 0 0 1-.02-.05v-.1c0-.02 0-.03-.02-.04-.06-.03-.06-.07-.02-.13a.05.05 0 0 0 0-.04l-.04-.18a.03.03 0 0 0-.02-.02l-.1-.04c-.01 0-.02-.01-.01-.03l.05-.07a.04.04 0 0 0 .02-.04l-.01-.1a.98.98 0 0 0-.05-.2 2.56 2.56 0 0 1-.06-.24l-.07-.24c-.15-.4-.38-.76-.69-1.07-.03-.03-.02-.05.01-.08h.1c.2.17.35.33.44.47a6.41 6.41 0 0 1 .73 1.79l.02.1Z" fill="#FEF068"/><path d="M10.82 6.5a.85.85 0 0 0-.14.09c-.05.04-.04.06.02.06.12 0 .24.02.38.07-.1-.04-.18-.03-.22.02a.2.2 0 0 0-.04.12.78.78 0 0 1-.14.4c-.08.14-.12.24-.13.3-.02.11.01.2.11.28.2.17.36.34.48.52.16.24.21.45.16.63-.03.13-.08.26-.15.41-.1.18-.18.3-.27.38a5.52 5.52 0 0 1-.54.4c-.04.02-.1.1-.2.22a25.5 25.5 0 0 0-.58 1.75 1.15 1.15 0 0 1 .07-.49c.08-.2.13-.35.15-.45.05-.14.07-.28.09-.43 0-.01 0-.02-.02-.02l-.01-.01c-.01-.03-.02-.02-.03 0l-.04.14c0 .01 0 .02-.02 0l-.01-.02c.07-.24.1-.47.09-.7 0-.04 0-.07.03-.1a.13.13 0 0 1 .1-.04c.4 0 .73-.15.96-.48.17-.23.26-.48.27-.75 0-.07-.03-.12-.1-.14a1.37 1.37 0 0 1-.21-.09 1 1 0 0 0-.32-.1c-.03 0-.05 0-.07.03l-.13.16c-.17.2-.28.36-.32.48-.05.18-.1.4-.15.69l-.05-.13a.07.07 0 0 0-.04-.03.43.43 0 0 1-.1-.07c-.03-.04-.08-.05-.15-.04a.28.28 0 0 0-.15.08l-.32.2h-.02v-.02c-.01 0-.01 0 0 0 .06-.06.14-.11.22-.16.25-.17.36-.42.34-.75 0-.03 0-.03-.02-.02l-.02.01V8.9l.1-.25V8.6a2.4 2.4 0 0 0-.14-.3c-.02-.04-.02-.04-.02 0l.03.13v.03l-.02.32a.1.1 0 0 1-.01.04l-.11.23c-.01.02 0 .03.02.03h.01c.03 0 .04 0 .06-.03l.06-.1c.01-.03.02-.02.02 0 .01.1 0 .2-.06.28-.15.28-.33.4-.55.37l.34-.2c.08-.04.12-.13.12-.26 0-.02 0-.02-.02-.03-.02 0-.03-.02-.03-.03l.02-.12c0-.02 0-.03-.02-.04a.12.12 0 0 0-.08 0 .6.6 0 0 0-.01-.43c0-.01 0-.02-.02-.02h-.01c-.02 0-.03.02-.03.03 0 .07.02.12.03.14.05.09.03.12-.07.1-.01-.01-.03 0-.06.01v.03c.05.04.07.08.06.13 0-.06-.03-.1-.08-.1-.02 0-.04-.01-.03-.04v-.02c0-.02.01-.03.03-.03l.12.01c.02 0 .03 0 .03-.02 0-.03 0-.05-.02-.07-.04-.04-.06-.1-.06-.2l-.01-.12a.37.37 0 0 1 0-.2l.08-.28c.01-.03 0-.05-.06-.05.08-.03.13-.07.16-.12l.16-.32c.02-.02.03-.02.04 0a.3.3 0 0 0 .08.08h.02v-.01c.02-.02.02-.03.01-.04-.02-.04-.03-.08-.02-.12 0-.02.03-.06.06-.1a.43.43 0 0 0 .05-.07c.05-.1.04-.15-.02-.15l-.06-.27c.06.03.1.04.14.02a61.7 61.7 0 0 0-.48-.4.53.53 0 0 1-.13-.19h-.03l-.01.01h-.01c0-.05-.01-.08-.03-.1a.05.05 0 0 0-.05-.02.79.79 0 0 0-.33.1h-.01v-.01a.6.6 0 0 1 .44-.12c.05 0 .08-.03.09-.12 0-.02 0-.03.02-.02l.09.04h.04c.1-.05.24-.04.41.01a1.67 1.67 0 0 1 .6.35l.15.1c.12.08.2.14.25.2ZM12.37 5.85l.07.1c-.2.12-.37.28-.5.48-.21.22-.43.4-.66.56l-.04-.01v-.01c-.02-.03-.02-.04 0-.06.12-.08.3-.22.53-.42.21-.18.34-.4.37-.63.04-.02.1 0 .16.05h.05l.02-.06Z" fill="#CFB320"/><path d="M12.14 5.86c-.03.24-.16.45-.37.63-.23.2-.41.34-.53.42-.02.02-.02.03 0 .06v.01c.01.01.03.02.04 0 .23-.15.45-.33.66-.55.17-.18.35-.32.54-.44l.17.15c.03.02.04.05.03.08 0 .02-.01.03-.03.02l-.08-.02-.02-.04c0-.05-.01-.08-.05-.1a.5.5 0 0 0-.26.11c-.06.05-.13.12-.2.23l-.18.1-.4.52c-.02.02-.04.02-.06.02L11.23 7a.06.06 0 0 1-.04-.03l-.11-.25a1.08 1.08 0 0 0-.38-.07c-.06 0-.07-.02-.02-.06a.85.85 0 0 1 .14-.08c.23.1.45.06.66-.12.02.03.05.01.08-.03.23-.12.43-.28.58-.5Z" fill="#E6CE1C"/><path d="M6.34 5.88c.05.18.19.27.4.27l-.42.39a.07.07 0 0 1-.04.02h-.4l.18-.02c.02 0 .02 0 0-.02l-.03-.01c-.16 0-.3 0-.42.04l-.13-.01c-.03 0-.04 0-.03.03 0 .01.02.03.05.04l-.61.22.3-.52c.2-.09.4-.14.6-.16l.46.39h.03l.01-.01V6.5l-.46-.4a.82.82 0 0 1 .5-.23Z" fill="#CFB320"/><path d="M12.48 6c-.2.1-.37.25-.54.43.13-.2.3-.36.5-.48l.04.04Z" fill="#CAA018"/><path d="m5.83 6.12.46.4-.01.02h-.03l-.46-.39v-.02c0-.01 0-.02.02-.02h.02Z" fill="#070505"/><path d="M9.32 6.32c0 .15.04.27.15.37.03.03.04.04.04.06v.5h.01l.02.01c.01 0 .02 0 .03-.02l.16-.3c.06-.01.07.04.02.14 0 .02-.02.04-.05.07a.34.34 0 0 0-.06.1c-.01.04 0 .08.02.12v.04l-.01.01h-.02a.3.3 0 0 1-.08-.08c-.01-.02-.03-.02-.04 0l-.16.32c-.03.05-.08.09-.16.12h-.06a.04.04 0 0 1-.02-.03l.01-.04a.7.7 0 0 0 .21-.34V7.3a.06.06 0 0 0-.05-.03.7.7 0 0 0-.25.03c-.02 0-.03.01-.03.03v.16c0 .1-.05.16-.13.18-.08.01-.15-.02-.21-.1a.4.4 0 0 0-.28-.14.12.12 0 0 1-.1-.06V7.3a.3.3 0 0 1 .17-.1h.05l.16.1c.02.01.02.02 0 .03a.14.14 0 0 0-.06.04v.05l.14.19c.03.04.07.05.12.02l.01-.01c.04-.03.05-.07.03-.11a.45.45 0 0 1-.03-.29c0-.02.02-.03.03-.03.14-.05.29-.07.44-.06.03 0 .04 0 .04-.03a.55.55 0 0 0-.1-.48c-.01-.02-.03-.03-.05-.01l-.04.03a.04.04 0 0 1-.04 0c-.02-.01-.03-.04-.03-.08l.02-.09a.52.52 0 0 0 .02-.16c-.01-.05-.04-.1-.1-.13v-.03h.01c.1.04.18.1.25.18Z" fill="#CAA018"/><path d="m9.32 6.32.35.34.06.27-.16.31c0 .02-.02.02-.03.02h-.02v-.01l-.01-.5c0-.02-.01-.03-.04-.06a.46.46 0 0 1-.15-.37Z" fill="#E6CE1C"/><path d="M12.8 6.54c.04-.03.06-.07.04-.1-.02-.01-.06 0-.1.03-.03.03-.04.07-.03.09.02.02.06 0 .1-.02Z" fill="#CFB320"/><path d="M12 6.72a.12.12 0 0 1-.04-.1c.01-.04.03-.07.06-.1V6.5a.16.16 0 0 1 .12-.04c.04 0 .07.01.1.04v.01l-.24.2Z" fill="#A87314"/><path d="M11.86 6.52a1.9 1.9 0 0 1-.29.64.07.07 0 0 0-.01.05c.02.15.05.25.1.31l.02.03c.13.15.2.27.21.37 0 .01 0 .02 0 0a.3.3 0 0 1-.09-.1.05.05 0 0 0-.04-.04c-.05 0-.09.01-.1.06a5.65 5.65 0 0 0 .11.59l.05.04.09-.05.06-.11c0 .6-.2 1.12-.63 1.55-.3.05-.58.18-.85.38l-.31.28c-.02.02-.03.02-.03 0 0-.09.08-.19.22-.3a2.33 2.33 0 0 1 .36-.26h-.02l-.01.02c-.21.1-.4.24-.56.42.1-.12.16-.2.2-.23l.11-.07c.18-.13.33-.23.43-.32.1-.07.18-.2.27-.38.07-.15.12-.28.15-.4.05-.2 0-.4-.16-.64a2.38 2.38 0 0 0-.48-.52c-.1-.07-.13-.17-.11-.28 0-.06.05-.16.13-.3l.06-.09a.78.78 0 0 0 .08-.31c0-.05.01-.1.04-.12.04-.05.12-.06.22-.02l.11.25.04.03.17.06c.02 0 .04 0 .06-.02l.4-.52Z" fill="#B58818"/><path d="M13.03 6.85c.01 0 .03.02.03.05 0 .02 0 .03-.02.04H13c-.03.02-.04 0-.03-.02l.01-.03c.01-.02.02-.04.05-.04Z" fill="#DDC477"/><path d="m5.67 7.36-.54-.26c-.02-.01-.04 0-.05.02-.01.02 0 .04.01.05l.55.26c.02 0 .04 0 .05-.02 0-.02 0-.04-.02-.05Z" fill="#4C2409"/><path d="M10.31 7.3c.1.02.18 0 .18-.03 0-.04-.07-.07-.16-.08-.1-.01-.18 0-.18.04 0 .03.07.07.16.08Z" fill="#A36711"/><path d="M12.47 7.53c-.04.1-.03.17.03.22.06.06.14.08.23.06.11-.02.24-.06.39-.13h.03l.02.02v.03c-.15.09-.29.14-.4.15-.18.03-.3-.03-.36-.16s-.03-.25.1-.34a1.53 1.53 0 0 1 .42-.17c.01 0 .02 0 .02.02v.04c-.14.06-.23.1-.27.1-.11.05-.18.1-.2.16Z" fill="#DDC477"/><path d="M7 7.84c.06-.1.17-.16.3-.18.05 0 .09 0 .12.03.04.04.05.07.05.12 0 .12-.06.18-.18.18-.02 0-.03 0-.02-.03v-.02l.05-.04c.07 0 .1-.03.09-.08-.01-.05-.04-.08-.1-.07-.09 0-.17.03-.22.09a.05.05 0 0 0-.02.04c0 .02.02.04.05.06l.02.04c0 .02-.03.04-.05.05-.03.01-.05.01-.07 0a.06.06 0 0 1-.01-.06c0-.02-.01-.03-.03-.04a2.57 2.57 0 0 0-.38-.05c-.12.01-.22.12-.3.34l-.01.01-.03.01c-.02 0-.02 0-.02-.02.07-.26.24-.4.5-.41.01 0 .03 0 .03-.02v-.06c-.08-.06-.11-.13-.1-.2 0-.02.02-.04.03-.05a.46.46 0 0 1 .2-.08h.02l.03.03.01.02h-.01c-.1.02-.18.05-.21.1a.05.05 0 0 0 0 .05l.05.14c0 .02.02.03.04.04l.12.07H7Z" fill="#B58818"/><path d="M6.99 7.48v-.04c.05 0 .07.01.09.04v.05a.2.2 0 0 1-.1.09h-.05a.05.05 0 0 1-.02-.04c0-.04.02-.06.06-.06.02 0 .02-.02.02-.04ZM6.2 7.74c-.05-.1-.04-.18.03-.23.05-.04.14-.06.24-.05.03 0 .04.01.05.03v.09c-.02.01-.03.02-.05 0-.06-.04-.12-.05-.18-.02a.05.05 0 0 0-.03.04v.15l-.03.02c-.01 0-.02 0-.03-.02ZM5.79 7.97a.83.83 0 0 1 .23-.2c.03-.02.05-.02.05.02v.02c0 .02 0 .03-.02.03l-.14.1a.05.05 0 0 0-.02.05c0 .01 0 .03.02.04l.3.26v.07c-.01.01-.02.02-.03 0l-.39-.34c-.01-.02-.02-.03 0-.05Z" fill="#B58818"/><path d="M4.93 8.4c.1.07.22.14.36.2.02 0 .02.02.01.04v.01c0 .02-.02.02-.03.01l-.54-.3c-.03-.03-.03-.04.01-.04a.3.3 0 0 1 .05 0l.05-.01.3-.1.02-.02v-.03l-.27-.23c-.06-.05-.06-.07.01-.06.03 0 .06 0 .1-.02a.35.35 0 0 1 .09-.02c.12-.01.25-.03.37-.06l.02.01v.04c-.12.03-.26.05-.42.06A.08.08 0 0 0 5 7.9v.05l.27.24v.02l-.01.01-.32.09c-.06.02-.07.04-.01.08Z" fill="#4C2409"/><path d="m11.82 8.47-.06-.04-.06-.61c0-.02 0-.03.02-.03h.02c.02 0 .03 0 .03.02l.05.66Z" fill="#A36711"/><path d="m11.97 8.3-.06.12a1.18 1.18 0 0 1-.02-.26c0-.1.02-.1.05-.01.02.03.02.08.03.16Z" fill="#876210"/><path d="M7.4 8.42c.08.02.12 0 .13-.1a.1.1 0 0 0-.06-.1c-.08-.03-.14-.03-.2 0s-.09.1-.07.18c0 .01 0 .02-.02.02h-.02c-.04-.12-.02-.2.08-.26a.2.2 0 0 1 .12-.03l.13.02a.1.1 0 0 1 .08.07c.03.08.03.15 0 .2-.03.06-.09.1-.17.1l-.03-.03v-.04c-.02-.03 0-.04.02-.03Z" fill="#B58818"/><path d="M13.84 9.2v.04h-.01c0-.01 0-.01 0 0l-.05.27-.03.12a.7.7 0 0 1-.05.15l-.05.13c-.12.43-.32.9-.6 1.42-.08.14-.17.27-.28.39-.4.41-.82.75-1.26 1.01-.5.29-.9.5-1.24.62a4.3 4.3 0 0 1-1.66.23c-.23 0-.4-.02-.52-.03a2.63 2.63 0 0 1-.45-.09l-.92-.3c-.16-.05-.3-.12-.44-.19a3.6 3.6 0 0 1-.4-.24 4.4 4.4 0 0 1-1.06-1.16c-.24-.4-.43-.82-.57-1.27a5.3 5.3 0 0 1-.16-.8v-.19c0-.02.02-.04.04-.04h.02c.02-.01.04 0 .04.02 0 .23.04.47.1.7a.85.85 0 0 1 .02.24l.01.03h.02c.02 0 .03.01.02.03 0 .07 0 .14.05.2v.07l.02.05c.02.02.03.05.03.08 0 .02.01.04.03.05.03.02.06.08.1.18.01.06.06.15.13.26l.02.07.01.05.45.57c.01.07.07.14.17.22l.42.35c.1.09.27.2.5.3l.16.08c.14.08.2.07.18 0 .27.08.53.2.77.35.06.03.15.06.27.07a.14.14 0 0 1 .16.03l.05.01c.04 0 .09 0 .15.02l.13.02.1.01c.07.01.13.02.16.01a4.72 4.72 0 0 1 .47-.04.25.25 0 0 1 .1-.03 3.02 3.02 0 0 0 .37 0v.03a.2.2 0 0 1-.12.1c-.02 0-.02 0-.03.02v.03l.01.01.9-.15a.64.64 0 0 0 .3-.16l.01-.02c-.02-.02-.03-.03-.05-.02l-.22.1-.04-.01c-.04-.04-.08-.06-.13-.05 0 0-.02 0-.03-.02v-.03c.05-.08.1-.1.15-.06l.05.01c.1 0 .18-.01.24-.04a7.73 7.73 0 0 0 .56-.13c.05-.01.08-.03.1-.05.02-.09 0-.1-.08-.06a.28.28 0 0 0-.04.03.05.05 0 0 1-.04.02l-.16-.02h-.01v-.02c.15-.09.24-.16.26-.21.03-.07.02-.08-.05-.06a.94.94 0 0 0-.34.24.52.52 0 0 1-.14.1l-.1.05h-.02l-.02-.01v-.03a.13.13 0 0 0 .02-.12.04.04 0 0 0-.04-.03c-.02 0-.04 0-.06.02a.07.07 0 0 1-.04.02h-.06l.07-.04a.04.04 0 0 0 .02-.05c0-.04-.04-.07-.1-.09.03-.05.02-.09 0-.12h-.05l-.18.1-.02.04.03.04h.03l-.2.27c-.02.04-.01.07.03.1.04.01.08 0 .14-.04a.22.22 0 0 1-.1.13.06.06 0 0 1-.04.01 1.7 1.7 0 0 0-.1-.01.7.7 0 0 1-.19-.05.27.27 0 0 1-.13-.14 4.94 4.94 0 0 1-.13-.37c.05-.07.11-.09.18-.05.02.01.02.02.02.04-.03.1-.02.2.02.29.01.02.03.02.05.01l.02-.01v-.02a.8.8 0 0 1-.02-.28l.01-.04.27-.3a.08.08 0 0 1 .04-.03c.05 0 .1-.04.12-.08a.49.49 0 0 0 .05-.12l.04-.12a2.9 2.9 0 0 1-.08.28c-.02.05 0 .07.05.08-.04 0-.07.03-.06.05 0 .08.04.12.1.13.04 0 .08-.01.12-.05.15-.12.22-.2.23-.22l.5-.97a3.8 3.8 0 0 1 .4-.58c.1-.1.2-.19.3-.24.08-.04.2-.09.35-.13a3.66 3.66 0 0 0 .46-.16c.34-.13.64-.1.92.09a.36.36 0 0 1-.1.17v.02l.05.04.01.04c0 .06-.04.1-.1.1a.08.08 0 0 0-.06.04.08.08 0 0 0-.01.07v.17a.4.4 0 0 1-.07.1.47.47 0 0 0-.07.14.48.48 0 0 0-.02.18c0 .05.01.05.03 0a4.84 4.84 0 0 1 .35-.66c.07-.13.13-.3.19-.52.1-.38.15-.63.17-.75l.01-.33v-.34h.02V8.81l.02.28c0 .02.01.03.03.04h.05l.01-.04.01-.23.02-.2a65.7 65.7 0 0 0 0 .55Z" fill="#DF9C1A"/><path d="M13.69 8.9v.34l-.18.75a2.57 2.57 0 0 1-.35.82l-.19.37c-.02.04-.03.04-.03 0 0-.08 0-.13.02-.19a.46.46 0 0 1 .07-.13.4.4 0 0 0 .07-.11.32.32 0 0 0 0-.17l.01-.07a.08.08 0 0 1 .06-.04c.06 0 .1-.04.1-.1l-.01-.04-.04-.04v-.02c.04-.05.07-.1.09-.17 0-.04.03-.07.08-.1a.08.08 0 0 0 .03-.05c.01-.04 0-.07-.06-.08-.02 0-.03-.02 0-.03l.01-.01.03-.04.12-.3v-.04a.03.03 0 0 0-.04-.01h-.03c-.02 0-.02-.01 0-.03a.18.18 0 0 0 .07-.14c0-.02 0-.03.02-.04l.07-.04.04-.8-.01-.06a.19.19 0 0 1 0-.1V8.2h.04l.01.7Z" fill="#4C2409"/><path d="M9.35 8.22c-.02.03-.02.06 0 .08.02.02.06.02.08 0 .02-.03.02-.07 0-.09-.02-.02-.05-.01-.08.01ZM9.83 8.26l.11-.03c.04 0 .05 0 .04.05l-.06.14c0 .02-.02.02-.04.02s-.03 0-.03-.02l-.03-.13.01-.03Z" fill="#B58818"/><path d="M7.22 8.88a.3.3 0 0 0 .12-.14l-.01-.04-.18-.1h-.03a.3.3 0 0 0-.2.15v.05l.01.04c.02.04.03.07.02.1-.04.17-.15.24-.32.2a.09.09 0 0 1-.07-.05.08.08 0 0 1 0-.08l.12-.09c.02-.01.02 0 .01.02L6.65 9a.05.05 0 0 0 0 .06c0 .02.02.03.04.03.12 0 .19-.06.2-.17.01-.02 0-.03-.01-.04a.92.92 0 0 1-.19-.1c-.04-.03-.08-.03-.13 0a.66.66 0 0 0-.12.12.52.52 0 0 1-.1.09c-.08.05-.18.02-.29-.1a.06.06 0 0 1-.01-.05c0-.01 0-.03.03-.04a2.46 2.46 0 0 1 .12-.06c.03.01.03.02.02.04l-.06.06a.05.05 0 0 0-.01.05c0 .02.02.04.05.05.05.02.1.02.14 0a.16.16 0 0 0 .07-.12c.01-.04 0-.09-.05-.14a.2.2 0 0 0-.15-.09c-.03 0-.09 0-.17.02l-.08.02H5.9a.35.35 0 0 1-.14-.15v-.05l.16-.14h.03v.03c.02.01.01.02 0 .03l-.12.07a.04.04 0 0 0-.02.03l.01.04c.03.03.07.05.12.06a.1.1 0 0 0 .05 0c.09-.03.16-.04.2-.03.02 0 .03 0 .04-.02l.01-.02.04-.02c.01 0 .03 0 .03.02l.14.25c.02.02.03.02.05 0 .1-.08.21-.07.32.03l.03.01.03-.02c.03-.14.13-.22.28-.24l.05.01.14.12c.05.05.06.11.02.18-.03.07-.08.11-.15.12a.57.57 0 0 0-.1.03h-.04v-.04c.02-.04.05-.05.1-.04h.04Z" fill="#CAA018"/><path d="M12.94 8.42c-.08 0-.17.01-.25.03-.04 0-.06-.01-.06-.06l.55-.08h.01c.06 0 .09.02.09.05 0 .02-.01.03-.03.04l-.3.02Z" fill="#DDC477"/><path d="M12.63 8.4c0 .04.02.06.06.05.08-.02.17-.03.25-.03l-.11.03c-.02 0-.02.02-.01.04 0 .02.02.03.04.05.04.08.1.12.21.14.11.01.18-.02.22-.1a.4.4 0 0 0 .17.05c.01.05.05.08.11.1.03.02.04.03.02.06a.39.39 0 0 0-.05.22l-.01.05-.06.06c-.02.02-.02.04 0 .05.02.03.07.03.14.02l-.07.04a.04.04 0 0 0-.02.04c0 .06-.03.1-.07.14-.02.02-.02.03 0 .03h.03l.04.01v.04l-.12.3-.03.04h-.01c-.03.02-.02.03 0 .04.06.01.07.04.06.08 0 .02-.02.03-.03.05-.05.03-.08.06-.08.1a.92.92 0 0 0-.92-.09l-.04.02c-.18.07-.32.12-.42.14a1.5 1.5 0 0 0-.36.13c-.09.05-.18.13-.29.24l.46-.61c.1-.13.19-.27.28-.42.1-.15.15-.29.18-.42l.07-.3c.04-.19.16-.32.36-.4Z" fill="#A36711"/><path d="M9.56 12.15a.73.73 0 0 1-.24.08.1.1 0 0 0-.04.02.3.3 0 0 1-.1.05h-.03V12.11c0-.03 0-.04-.02-.05a.05.05 0 0 0-.05-.01.39.39 0 0 1-.26.04c-.17-.04-.17-.06.01-.06.1 0 .22-.02.35-.06.01 0 .03-.01.03-.03l.2-.59.09-.4c.09-.16.15-.33.19-.51a.51.51 0 0 0-.02-.22.65.65 0 0 1-.02-.15c0-.03-.01-.03-.03-.02-.02.01-.02.04 0 .1H9.6c-.02-.02-.03-.04-.03-.07 0-.01 0-.02.02-.03l.25-.06.03-.04.02-.13c.05-.28.1-.51.15-.69.04-.12.15-.28.32-.48l.13-.16a.07.07 0 0 1 .07-.04 1 1 0 0 1 .32.11l.2.09c.08.02.12.07.11.14-.01.27-.1.52-.27.75-.23.33-.55.49-.95.48a.13.13 0 0 0-.1.04.13.13 0 0 0-.04.1 1.76 1.76 0 0 1-.1.7l.02.02c.01.02.02.01.02 0l.04-.13c.01-.03.02-.04.03-.01l.01.01c.01 0 .02 0 .02.02-.02.15-.04.29-.09.43a7.94 7.94 0 0 1-.18.54c-.03.09-.04.22-.04.4Z" fill="#E6CE1C"/><path d="m9.3 8.9-.2.29h-.02c-.03 0-.04-.02-.03-.06l.14-.23c.01-.05 0-.1-.06-.13v-.03l.06-.02c.1.03.12 0 .07-.09a.38.38 0 0 1-.03-.14c0-.01 0-.02.03-.03h.01c.01 0 .02 0 .02.02a.6.6 0 0 1 0 .43Z" fill="#B58818"/><path d="M13.29 8.58c-.04.08-.1.11-.22.1-.1-.02-.17-.06-.2-.14v-.01h.05c.13.12.25.1.36-.04.01-.02.02-.02.03 0 0 .03 0 .06-.02.09Z" fill="#DDC477"/><path d="M4.1 8.93v.57l.01.13c.05.32.1.54.14.67.14.45.33.87.57 1.27a3.61 3.61 0 0 0 1.9 1.6l.92.3.45.08.52.03a4.3 4.3 0 0 0 1.66-.23c.33-.12.75-.33 1.24-.62.44-.26.86-.6 1.26-1.01.1-.12.2-.25.28-.39a7.19 7.19 0 0 0 .8-2.12l.02-.2c0-.03.01-.04.03-.05.05-.04.08-.02.1.07 0 .3-.05.6-.14.9a5.47 5.47 0 0 1-1.08 2.1 6.05 6.05 0 0 1-1.62 1.2l-.25.11a2.52 2.52 0 0 0-.28.15 11.27 11.27 0 0 1-.44.18c-.12.05-.25.09-.4.11l-.23.05-.38.06a26.45 26.45 0 0 1-1.06 0 .14.14 0 0 0-.05-.02 2.1 2.1 0 0 1-.38-.06c-.25-.09-.62-.22-1.1-.41-.3-.13-.56-.27-.77-.43-.08-.07-.26-.22-.52-.47a3.63 3.63 0 0 1-.81-1.05c-.1-.2-.2-.48-.33-.85a5.69 5.69 0 0 1-.11-2.08h.02c.01-.02.02-.01.02 0l.01.41Z" fill="#070505"/><path d="M7.3 9.52c.55-.23 1.04-.48 1.5-.77.02-.02.04 0 .03.03v.03a.1.1 0 0 1-.04.08c-.37.27-.93.57-1.7.9-.26.12-.5.35-.71.7-.01.01-.02.01-.03-.01-.02-.11.01-.24.1-.38.08-.11.18-.2.3-.28.18-.12.37-.22.56-.3Z" fill="#FEF068"/><path d="M10 8.82h-.02c-.01 0-.03 0-.04.02l-.1.28c0 .02 0 .04.02.04.02.01.04 0 .05-.01l.1-.28c0-.02 0-.04-.02-.05Z" fill="#B58818"/><path d="m8.97 9.6-.08.11c-.06.09-.1.08-.11-.03l.02-.06a2.02 2.02 0 0 1 .13-.24h-.06a.05.05 0 0 0-.04.03l-.24.48a.07.07 0 0 1-.07.04h-.03c-.03 0-.04-.02-.03-.04.04-.13.1-.26.18-.38a.48.48 0 0 0 .05-.12v-.05l.05-.05a.9.9 0 0 1 .3-.16c0 .04.01.07.04.07l.02-.01.2-.28h.08c.02.01.02.02.02.04 0 .04 0 .08-.02.12 0 .01 0 .02.03.03.01 0 .02.01.02.03 0 .13-.04.22-.12.27l-.34.2Z" fill="#FEF068"/><path d="m9.89 9.83-.02.13c0 .02-.02.03-.03.04l-.25.06a.03.03 0 0 0-.02.03c0 .03 0 .05.03.07h.01v-.1c.03-.01.04 0 .04.02 0 .03 0 .08.02.15.03.09.03.16.02.22a1.93 1.93 0 0 1-.28.65H9.4l.1-.28v-.02l-.18.05-.07-.01a.09.09 0 0 1-.04-.07c-.01-.1.04-.17.17-.22h.01c.01 0 .01 0 0 0a1.8 1.8 0 0 0-.3 0v-.02l.02-.01c.18.03.34-.03.47-.18v-.04L9.5 10l.24-.1.03-.03a.21.21 0 0 0-.02-.13.07.07 0 0 0-.04-.04.27.27 0 0 0-.22.01c-.04.02-.08.08-.1.16l-.1.3v-.4l.12-.13c.04-.04.1-.07.15-.08.07-.01.12 0 .16.04l.1.07.03.03.05.13Z" fill="#A87314"/><path d="m8.5 9.63-.2.48c0 .02-.02.03-.04.03l-.03-.01-.01-.04a.7.7 0 0 1 .23-.5c0-.01.02-.02.03 0h.02v.04Z" fill="#FEF068"/><path d="M9.49 10a.39.39 0 0 0-.07.14.21.21 0 0 1-.1.16c-.02 0-.02.02-.02.03v.02h.02l.21-.05.02.01v.05l-.15.1a.3.3 0 0 1-.17.03l-.53-.02c-.06 0-.26.01-.6.06-.01 0-.03 0-.04-.02l-.02-.04c.01-.03.04-.05.07-.05a1 1 0 0 1 .18 0h.39c.1 0 .17-.02.23-.04.13-.04.25-.11.36-.2.04-.1.08-.2.1-.3.03-.1.07-.15.1-.17a.27.27 0 0 1 .23-.01c.02 0 .03.02.04.04.02.04.03.09.02.13 0 .02-.02.03-.03.04l-.24.09Z" fill="#E6CE1C"/><path d="m9.29 9.77-.02.4c-.11.1-.23.17-.36.21a.75.75 0 0 1-.23.03l-.17.01H8.3a1 1 0 0 0-.18 0c-.03 0-.06.02-.07.05l.02.04.05.02a4.53 4.53 0 0 1 1.12-.04.3.3 0 0 0 .17-.03l.14-.1c.01-.01.02-.02.01-.04v-.01l-.02-.01-.2.06-.03-.01v-.02l.01-.03c.06-.03.1-.08.11-.16.01-.04.03-.1.07-.14l.1.3-.01.04c-.13.15-.29.21-.47.18l-.02.01v.02a1.8 1.8 0 0 1 .3 0c-.14.05-.2.12-.18.22 0 .03.02.05.04.07.02.01.04.02.07 0l.17-.04c.02 0 .02 0 .02.02l-.11.27.01.01h.01a.36.36 0 0 1 .08-.13l-.1.4a.17.17 0 0 1-.04.04H9.3a.22.22 0 0 1-.03-.11.58.58 0 0 0-.04-.33.68.68 0 0 1-.25-.35.1.1 0 0 0-.05-.05.09.09 0 0 0-.07 0 1.5 1.5 0 0 1-.4.06.44.44 0 0 0-.3.11.93.93 0 0 0-.19.29c-.1.04-.24.13-.38.26l-.09.08c-.1.08-.22.15-.34.2l-.35.1-.36.09c-.23.08-.53.2-.89.36-.05-.05-.07-.1-.07-.15 0-.06.04-.1.1-.13l.55-.29a.94.94 0 0 1 .38-.1h.04a8.9 8.9 0 0 0 1.13-.75.6.6 0 0 0 .17-.26.7.7 0 0 0-.2-.24c-.12-.09-.21-.1-.29-.06-.05.04-.07.11-.08.22l-.24.04c-.02 0-.03 0-.04-.02a.05.05 0 0 1-.02-.04c0-.08.02-.16.06-.24a.38.38 0 0 1 .14-.19c.27-.16.5-.11.73.14l.19.2c.02.03.05.04.09.04.26.01.53-.02.81-.1a.2.2 0 0 0 .13-.1.9.9 0 0 0 .06-.16.77.77 0 0 1 .08-.16Z" fill="#CAA018"/><path d="m11.74 9.93-.46.61-.1.14-.3.44-.5.97c0 .02-.08.1-.23.22-.04.04-.08.06-.12.05-.06-.01-.1-.05-.1-.13 0-.02.02-.04.06-.05l.02-.02c.15-.03.25-.1.32-.2.15-.25.26-.53.31-.87 0-.01 0-.02-.01 0l-.1.09.54-.83v-.02a.17.17 0 0 0-.09.03s-.01 0 0 0v-.03l.08-.06c.02-.01.02-.02 0-.03H11a.18.18 0 0 1-.08-.04c-.02 0-.02-.02 0-.03.12-.05.24-.1.36-.12.06 0 .07 0 .02.04l-.02.01a.03.03 0 0 0-.02.04l.02.05.06.02c.06 0 .12-.02.16-.04a.13.13 0 0 0 .06-.1c.01-.07-.01-.1-.08-.1-.35.01-.7.16-1.02.43a.8.8 0 0 0-.18.27 2.4 2.4 0 0 1-.08.15c-.11.2-.18.34-.2.44-.02.1-.05.19-.09.27a.97.97 0 0 0-.06.27c0 .07-.05.11-.11.13-.02 0-.03 0-.03-.03l-.01-.06.4-1.19h.01l-.08.19h.03a.83.83 0 0 1 .17-.29c.07-.05.1-.1.13-.16a.47.47 0 0 1 .1-.13l.03-.02c.27-.2.55-.33.85-.38.06.08.2.1.4.07Z" fill="#876210"/><path d="m10.49 10.24-.03.02a.47.47 0 0 0-.1.13.56.56 0 0 1-.13.16.83.83 0 0 0-.17.3h-.03v-.01l.08-.18v-.01l-.41 1.2v.05c.01.02.02.03.04.03.06-.02.1-.06.11-.13a.97.97 0 0 1 .06-.27c.04-.08.07-.17.09-.27.02-.1.09-.25.2-.44l.08-.15a.8.8 0 0 1 .18-.27c.33-.27.67-.42 1.02-.43.07 0 .1.03.08.1 0 .04-.02.08-.06.1a.37.37 0 0 1-.16.04c-.03 0-.04 0-.06-.02a.09.09 0 0 1-.02-.05c0-.02 0-.03.02-.04h.02c.05-.04.04-.06-.02-.05l-.36.12c-.02.01-.02.02 0 .03.02.02.05.03.08.03-.22.1-.4.24-.52.45a.36.36 0 0 1-.06.06 5.62 5.62 0 0 0-.44 1.2.49.49 0 0 1-.05.12.19.19 0 0 1-.12.08.08.08 0 0 0-.04.03l-.27.3a.07.07 0 0 0-.01.04c0 .1 0 .2.03.28l-.01.02-.02.01c-.02.01-.04.01-.05-.01a.42.42 0 0 1-.02-.29c0-.02 0-.03-.02-.04-.07-.04-.13-.02-.18.05a4.95 4.95 0 0 0 .13.37c.03.07.07.12.13.14l.19.05.1.01h.04a.22.22 0 0 0 .1-.14l.23-.2h.06l.04-.03.06-.02c.02 0 .03.01.04.03.02.04.01.08-.01.12v.04h.04l.1-.05a.52.52 0 0 0 .13-.1c.1-.1.21-.18.34-.24.07-.02.08 0 .05.06-.02.05-.1.12-.26.21v.02l.17.02c.02 0 .03 0 .04-.02a.28.28 0 0 1 .04-.03c.08-.05.1-.03.07.06 0 .02-.04.04-.09.05a7.69 7.69 0 0 1-.85.16c-.05-.04-.1-.02-.15.06v.03l.03.02c.05 0 .09.01.13.05h.04l.22-.1c.02 0 .03 0 .04.02l.01.01v.02c-.1.09-.2.14-.32.16a27.38 27.38 0 0 1-.9.14v-.03c0-.01.01-.02.03-.02a.2.2 0 0 0 .12-.1v-.03l-.02-.01h-.35c-.02 0-.06.01-.1.04a4.8 4.8 0 0 0-.47.05c-.03 0-.09 0-.16-.02a.79.79 0 0 0-.1 0l-.13-.03a.34.34 0 0 0-.15-.02l-.05-.01a.14.14 0 0 0-.16-.03.16.16 0 0 1 .07-.04c.02 0 .02 0 0-.02l-.09-.07h.02v-.02l-.25-.3h.03c.01 0 .02 0 .03-.02v-.03l-.22-.31c-.01-.02 0-.04.01-.05a4.69 4.69 0 0 0 .72-.84c.15-.2.33-.35.54-.47.08-.05.18-.06.3-.03.1.03.2.08.29.15l.16.1c0 .05.02.09.03.11.02.02.03.02.05.01a.17.17 0 0 0 .04-.05l-.19.59c0 .02-.02.03-.03.03-.13.04-.25.06-.35.06-.18 0-.18.02 0 .06.07.02.15 0 .25-.04h.05c.02.02.03.03.03.06l-.02.14.01.03h.03a.3.3 0 0 0 .1-.04.1.1 0 0 1 .04-.02.73.73 0 0 0 .24-.08c.06-.26.14-.52.23-.79a26.82 26.82 0 0 1 .35-.96c.16-.18.35-.32.56-.43h.03s.01 0 0 0l-.36.24c-.14.12-.21.22-.22.3 0 .03.01.03.03.01l.3-.28Z" fill="#A87314"/><path d="M7.87 10.44a17.76 17.76 0 0 1-1.11.79c-.1.05-.2.1-.34.13h-.05a.05.05 0 0 1-.02-.05c-.01-.18.02-.35.08-.5.09-.18.2-.28.37-.31.25-.05.42-.1.5-.14 0-.1.03-.18.08-.22.08-.05.17-.03.28.06.1.08.17.15.2.24Z" fill="#FEF068"/><path d="m11 10.23.06.01c.02 0 .02.02 0 .03l-.08.06v.02c-.01.01 0 .01 0 0a.17.17 0 0 1 .08-.02c.02 0 .02 0 .01.02l-.54.83-.14.3-.15.3a13.78 13.78 0 0 0-.25.4c-.05 0-.07-.03-.05-.08l.08-.28a5.62 5.62 0 0 1 .4-1.08.36.36 0 0 0 .06-.06c.12-.2.3-.35.52-.45Z" fill="#E6CE1C"/><path d="m9.24 10.97-.17-.05a.72.72 0 0 0-.82.1 2.22 2.22 0 0 0-.45.5c0 .03.01.03.03.02l.08-.07a.37.37 0 0 1-.1.14.11.11 0 0 0-.02.05c0 .02-.03.04-.06.07a2.66 2.66 0 0 0-.19.22c-.11.15-.2.25-.27.3-.03.03-.05.03-.08.01-.02 0-.03-.02-.01-.04l.04-.02c.02 0 .03-.02.05-.03.11-.13.2-.26.28-.38a.51.51 0 0 0 .06-.2.7.7 0 0 1 .13-.3l.24-.26a.93.93 0 0 1 .18-.29c.08-.07.18-.1.3-.1.16-.01.3-.04.41-.08l.07.01a.1.1 0 0 1 .05.05c.04.14.13.26.25.35Z" fill="#A87314"/><path d="M4.16 10.6c.12.37.23.65.33.85.2.38.46.73.8 1.05l.53.47c.21.16.47.3.78.43.47.19.84.32 1.09.4.07.03.2.05.38.07.01 0 .03 0 .05.02a26.45 26.45 0 0 0 1.06 0c.09 0 .21-.03.38-.06l.23-.05c.15-.02.28-.06.4-.1a11.08 11.08 0 0 0 .97-.45l.53-.33c.5-.32.86-.61 1.1-.87.19-.21.42-.55.67-1.02a1.67 1.67 0 0 1-.36.7.08.08 0 0 0-.01.05c0 .03-.01.04-.02.05l-.24.27-.03.04-.04.02a.1.1 0 0 0-.04.03.76.76 0 0 0-.09.1.47.47 0 0 1-.1.1 2.74 2.74 0 0 1-.49.4l-.56.41c-.08.06-.16.12-.26.16a26.8 26.8 0 0 0-.53.25l-.16.07-.18.08c-.41.12-.7.2-.87.22-.33.04-.73.05-1.23.02-.2 0-.4-.05-.61-.1l-.82-.26A3.86 3.86 0 0 1 5.69 13c-.23-.2-.45-.43-.66-.66-.1-.1-.19-.22-.27-.34a5.03 5.03 0 0 0-.27-.41.08.08 0 0 0-.05-.07 5.88 5.88 0 0 1-.28-.92Z" fill="#7C8FA9"/><path d="M9.07 10.92c.02.01.03.02.03.04l-.04.01a.71.71 0 0 0-.59.02c-.21.1-.4.27-.56.48l-.08.07c-.02.01-.03.01-.03-.01v-.03c.11-.16.26-.32.45-.47a.72.72 0 0 1 .82-.1Z" fill="#DDC477"/><path d="M9.06 10.97c.12.11.14.18.06.22a.84.84 0 0 0-.29-.15c-.12-.03-.22-.02-.3.03a1.8 1.8 0 0 0-.58.52c-.31.42-.54.68-.68.79-.02.01-.02.03 0 .05l.2.3c.02.02.02.03.01.04 0 .02-.02.02-.03.02h-.03a.7.7 0 0 1-.33-.53.06.06 0 0 0-.02-.05.2.2 0 0 0-.14-.02c-.02 0-.03 0-.03.03-.01.05 0 .11.03.16a.83.83 0 0 0 .16.17l.07.1c.07.13.14.23.2.3.07.06.17.11.3.16l.08.07c.02.01.02.02 0 .02a.16.16 0 0 0-.07.04.66.66 0 0 1-.27-.07c-.24-.16-.5-.27-.77-.35l-.36-.19c-.22-.1-.45-.28-.7-.5.36-.16.66-.29.89-.37l.36-.1c.15-.03.27-.06.35-.1a1.15 1.15 0 0 0 .43-.27c.14-.13.27-.21.38-.26l-.24.27a.7.7 0 0 0-.13.3.51.51 0 0 1-.06.2 2.79 2.79 0 0 1-.33.4.14.14 0 0 0-.04.02c-.02.02-.01.03 0 .04.04.02.06.02.09 0 .07-.06.16-.16.27-.3a2.66 2.66 0 0 1 .28-.35.37.37 0 0 0 .09-.14c.16-.21.35-.37.56-.48.2-.09.39-.1.59-.02Z" fill="#804D05"/><path d="M9.24 10.97c.04.1.06.22.04.33l-.16-.11c.08-.04.06-.11-.06-.22l.04-.01c0-.02 0-.03-.03-.04l.17.05Z" fill="#A36711"/><path d="m10.01 12.16.23-.38c.06-.08.1-.18.15-.3l.14-.3.1-.1c.01 0 .02 0 .01.01a2.4 2.4 0 0 1-.31.87.47.47 0 0 1-.32.2Z" fill="#B58818"/><path d="m7.42 12.79.25.3v.02h-.02a.83.83 0 0 1-.28-.17 1.28 1.28 0 0 1-.2-.29.46.46 0 0 0-.12-.14.83.83 0 0 1-.12-.13.24.24 0 0 1-.03-.16c0-.02.01-.03.03-.03.05-.01.1 0 .14.02l.02.05a.7.7 0 0 0 .33.53Z" fill="#CFB320"/><path d="M10.13 12.57a.48.48 0 0 0-.2.07l-.02-.01a.05.05 0 0 1-.03-.04l.02-.04.18-.1h.05c.02.03.03.07 0 .12Z" fill="#876210"/><path d="M10.13 12.57c.06.02.1.05.1.1l-.02.04-.07.05-.23.2c-.06.04-.1.05-.14.03-.04-.02-.05-.05-.02-.09l.19-.26a.48.48 0 0 1 .2-.07Z" fill="#F1E120"/><path d="m7.8 12.97.22-.02.03-.02.12-.11c.02-.03.05-.03.08 0l.08.1c.02.03.01.05-.02.07a.98.98 0 0 0-.08.05.17.17 0 0 1-.09.03.61.61 0 0 1-.43-.11c-.03-.02-.03-.03 0-.03.02 0 .02 0 .03.02l.05.02Z" fill="#E6CE1C"/></svg>