<!-- by TradingView --><svg width="18" height="18" viewBox="0 0 18 18" xmlns="http://www.w3.org/2000/svg"><path fill="#F0F3FA" d="M0 0h18v18H0z"/><path d="M15 14H3c.98-.33 3.57-1 6.13-1 2.55 0 4.98.67 5.87 1Z" fill="#009E58"/><path d="M8.61 12 5.5 5.27v5.34c0 .64.19 1.17.93 1.17h.28V12H4v-.22h.28c.73 0 .72-.55.72-1.17V5.4c0-.8-.18-1.17-1-1.17V4h2.2l2.82 6.26L11.9 4H14v.22h-.17c-.74 0-.83.55-.83 1.17v5.22c0 .64-.01 1.17.73 1.17H14V12h-3.3v-.22h.27c.74 0 1.03-.55 1.03-1.17V5.27L8.8 12H8.6Z" fill="#1855A5"/></svg>