<!-- by TradingView --><svg width="18" height="18" viewBox="0 0 18 18" xmlns="http://www.w3.org/2000/svg"><path fill="#F0F3FA" d="M0 0h18v18H0z"/><path d="m9.01 5.4.01.03a1638.84 1638.84 0 0 1 1.12.66 2.75 2.75 0 0 1 .9.96A376.47 376.47 0 0 1 9.26 8.1a.77.77 0 0 0-.28.5.8.8 0 0 0-.28-.54 375.63 375.63 0 0 0-1.74-1.03l-1.6-.94h-.01l-.06-.03L5.23 6h-.01l-.02-.02a.07.07 0 0 0-.04-.02h-.01v-.01l-.03-.01-.01-.01H5.1l-.01-.01a.11.11 0 0 0-.03-.02l-.02-.01-.02-.01L5 5.87H5l-.01-.01-.02-.01-.02-.01-.02-.02h-.01l-.05-.03h-.01v-.01l-.77-.45a.39.39 0 0 1 .02-.04.65.65 0 0 1 .25-.22 1159.75 1159.75 0 0 1 1.76-1.02.8.8 0 0 1 .33-.06c.12 0 .23.04.33.1L9 5.4Z" fill="#0D357F"/><path d="m13.91 5.37-2.79 1.64h-.01v.01l-.03.01-.01.01-.03.01A2.88 2.88 0 0 0 10 6.01a1570.37 1570.37 0 0 0-.98-.6 1570.4 1570.4 0 0 1 2.26-1.34.76.76 0 0 1 .71.08 1560.69 1560.69 0 0 1 1.76 1.04c.06.05.11.11.15.18Z" fill="#C8161D"/><path d="m4.09 5.34.76.45h.02v.01l.05.03h.01l.02.01.01.01.01.01h.01l.02.01v.01h.02v.01h.01l.01.01h.01l.04.03h.02v.01h.01l.02.02h.01l.01.01.03.02h.01l.02.01.07.05.06.03 1.6.94a2.92 2.92 0 0 0-.37 1.36v1.25a2825.22 2825.22 0 0 1-2.3-1.33.77.77 0 0 1-.28-.58V5.63a.85.85 0 0 1 .09-.29ZM11.4 9.66l-1 .6a2.73 2.73 0 0 1-1.42.36 3233.52 3233.52 0 0 1 0-2.04l.06-.2a.77.77 0 0 1 .22-.29 377.32 377.32 0 0 0 1.82-1.05l.02-.02h.02l2.8-1.65.03.06a.75.75 0 0 1 .05.28 779.83 779.83 0 0 1 0 2.07.85.85 0 0 1-.28.51 1951.18 1951.18 0 0 0-2.32 1.37Z" fill="#FABE00"/><path d="M9 8.58V14h-.07a.69.69 0 0 1-.28-.1l-1.66-.96c-.26-.16-.49-.41-.49-.73V8.38a2.9 2.9 0 0 1 .47-1.36A374.97 374.97 0 0 1 8.7 8.05c.07.05.13.12.18.21.06.1.1.2.12.32Z" fill="#C8161D"/><path d="M11.5 9.6v2.6c0 .32-.25.57-.52.73a2956.7 2956.7 0 0 1-1.77 1.03.82.82 0 0 1-.17.03S9 14.01 9 14v-3.36a2.66 2.66 0 0 0 1.4-.38l1.1-.66Z" fill="#0D357F"/></svg>