<!-- by TradingView --><svg width="18" height="18" viewBox="0 0 18 18" xmlns="http://www.w3.org/2000/svg"><path fill="#F0F3FA" d="M0 0h18v18H0z"/><path d="M9 10.31c.05 0 .09-.02.1-.07l1.8-5.07c.04-.11.13-.17.27-.17h.88c.14 0 .22.06.25.18l1.7 7.37c.03.16-.05.26-.24.29l-.97.15c-.14.02-.22-.02-.25-.14L11.5 8.28c-.06-.22-.12-.22-.2 0L9.71 12.8c-.03.1-.1.15-.21.17-.1.02-.27.02-.5.02-.23 0-.4 0-.5-.02-.1-.02-.18-.08-.21-.17l-1.6-4.53c-.08-.21-.14-.2-.2.01l-1.03 4.57c-.03.12-.11.17-.25.14l-.97-.15c-.2-.03-.27-.12-.23-.28l1.68-7.38c.03-.12.1-.18.25-.18h.88c.14 0 .23.06.26.17l1.81 5.07c.02.05.05.07.1.07Z"/></svg>