<!-- by TradingView --><svg width="18" height="18" viewBox="0 0 18 18" xmlns="http://www.w3.org/2000/svg"><path fill="#F0F3FA" d="M0 0h18v18H0z"/><path d="M13.33 10.09v.02l.02.02c.07.02.1.06.08.12v.02l-.02.01h-.03a1.4 1.4 0 0 0-.53-.08.3.3 0 0 0-.2.08h-.02c-.05.04-.07.03-.07-.01a21.85 21.85 0 0 0 .02-.38.03.03 0 0 1 .03 0l.15.12.03.02h.28c.04 0 .07-.02.1-.05.24-.3.37-.54.55-.94.18-.4.47-.76.82-1 .14-.1.29-.15.45-.22.42-.17.68-.44.96-.8.03-.03.04-.03.05.01l-.02.08-.3.77c-.16.38-.25.78-.52 1.1-.09.1-.2.2-.35.3-.38.27-.83.44-1.24.6-.12.04-.22.09-.24.21ZM8.15 8.63v.91c0 .22-.04.52-.06.68v.17a6.06 6.06 0 0 0 .4 1.34l.02-.01a4.3 4.3 0 0 0 .26-.97v-.3l-.07-.42c-.04-.26-.04-.48-.07-.75l-.02-.33c-.01-.5.01-.97.08-1.4.01-.1.08-.16.2-.15.3.02.5.05.6.08.17.05.25.2.28.38.14.8.15 1.6.04 2.41l.01.22a8.42 8.42 0 0 0 .35 1.15l.02.01c.01 0 .02 0 .03-.02.1-.2.17-.43.23-.67a.49.49 0 0 0 .01-.2l-.05-.33a16.8 16.8 0 0 1-.1-1.47l.02-.96a1.3 1.3 0 0 1 .04-.2.05.05 0 0 1 .04-.02h.02c.24.12.47.27.7.44.04.03.07.07.08.11.03.08.05.16.06.25.07.59.07 1.19.01 1.8a1.38 1.38 0 0 0 .19.67c.01.02.03.01.04-.01l.09-.28c.1-.53.12-1.1.05-1.69 0-.08.03-.12.12-.12.07 0 .1.02.14.08.14.2.26.4.35.64.04.1.08.17.19.19l.02.01.01.03v.4l-.01.03c-.14.2-.26.4-.36.62-.01.02-.02.02-.03 0l-.02-.08c0-.14.04-.27.03-.4 0-.22 0-.4-.1-.58 0-.02 0-.02-.01 0l-.01.05a7.38 7.38 0 0 1-.23 1.63.35.35 0 0 1-.07.13c-.15.19-.3.34-.47.46-.14.1-.22-.02-.3-.12h-.03l-.01.01c-.07.2-.17.5-.36.59-.23.1-.46.2-.7.25-.13.04-.16-.04-.24-.15a2.76 2.76 0 0 1-.2-.4c-.01-.05-.03-.05-.05 0-.05.14-.22.65-.37.65-.32.02-.61 0-.86-.03-.22-.04-.35-.45-.44-.66h-.01a.02.02 0 0 0-.02 0c-.05.13-.14.52-.37.44a3.7 3.7 0 0 1-.57-.23c-.1-.05-.16-.14-.25-.25a1.4 1.4 0 0 1-.25-.51 6.35 6.35 0 0 0-.17-.5v.02c-.11.18-.36.46-.56.27-.41-.4-.77-.73-1.2-.99a.56.56 0 0 1-.14-.1.36.36 0 0 1 .09-.56c.06-.04.15-.1.26-.15a2 2 0 0 0 .61-.52l.03-.02c.03 0 .06 0 .1.02l.01.02c.06.23.05.5 0 .74-.04.14-.14.21-.1.4.03.2.1.39.17.57l.06.09.02.01h.03a.06.06 0 0 0 .04-.02c.14-.16.25-.35.34-.56a.42.42 0 0 0 .03-.23l-.08-.52a2.94 2.94 0 0 1-.05-.5v-.5c.01-.08.04-.16.1-.21a4 4 0 0 1 .56-.45h.02c.19.22.18.56.17.82l-.03.7c0 .1 0 .22.02.33l.14.72a7.2 7.2 0 0 0 .32 1.02h.03v-.02c.09-.2.15-.38.2-.56a.53.53 0 0 0 0-.24A9.39 9.39 0 0 1 7 7.8c0-.08.04-.13.11-.15.27-.1.53-.18.78-.22.03 0 .05.01.08.04a4.59 4.59 0 0 1 .17 1.15Zm.61-.83a8.65 8.65 0 0 0 .94 4.9c.03.06.08.09.16.07a2.24 2.24 0 0 0 .62-.27v-.01a3.9 3.9 0 0 1-.5-1.04l-.19-.64a8.36 8.36 0 0 1-.24-1.74 5.9 5.9 0 0 1 .03-1.4.07.07 0 0 0-.04-.04c-.2-.08-.4-.12-.63-.11l-.08.01-.02.02-.05.25ZM7.82 9a7.56 7.56 0 0 1 .04-1.43h-.02a19.9 19.9 0 0 0-.68.21l-.02.03a.58.58 0 0 0-.05.19 8.95 8.95 0 0 0 .07 2.05c.14.96.43 1.87.86 2.74.06.11.23.11.36.12a7.88 7.88 0 0 0 .5 0 .1.1 0 0 0 0-.08 9.76 9.76 0 0 1-.94-2.57c-.03-.16-.04-.33-.06-.5-.03-.2-.04-.55-.06-.76Zm3.2-.76c-.16-.13-.32-.26-.5-.36a.04.04 0 0 0-.06.01v.02c-.04.62-.05 1.26.01 1.9.04.46.09.89.2 1.24a8.73 8.73 0 0 0 .4.96l.04.02h.05a1.34 1.34 0 0 0 .43-.4v-.03l-.23-.51c-.12-.3-.2-.63-.25-.97l-.04-.58c-.03-.37 0-.62.03-.98 0-.15.03-.24-.08-.32ZM6.36 9.6a5.81 5.81 0 0 1-.13-1.33.03.03 0 0 0-.02 0c-.12.07-.23.15-.33.23a.3.3 0 0 0-.1.24l-.01.61c0 .17.02.34.06.52.13.72.3 1.4.53 2.05.12.38.4.5.74.64l.12.03a.01.01 0 0 0 .01-.01.01.01 0 0 0 0-.01 7.32 7.32 0 0 1-.74-2.17c-.04-.27-.06-.54-.13-.8Zm5.51-.4v.05a2.56 2.56 0 0 1 .3 1.23l.02.01h.02l.13-.16c.05-.07.04-.27.03-.35l-.01-.03a1.15 1.15 0 0 1-.16-.2l-.23-.48a.22.22 0 0 0-.07-.07h-.03Zm-6.65 1.9c-.1-.2-.19-.44-.26-.74-.06-.27-.04-.52.02-.77.01-.04 0-.05-.03-.02l-.32.27c-.12.09-.27.13-.4.18-.19.08-.16.26-.01.37.13.1.32.2.43.27.2.15.38.34.57.52.03.04.05.03.04-.02a.29.29 0 0 0-.04-.07Z" fill="#FFAC35"/><path d="M4 7.2C4.54 6.68 6.25 5 8.59 5 10.9 5 12.48 6.49 13 7.3l-.72.62a4.6 4.6 0 0 0-3.7-1.88c-1.98 0-3.46 1.43-4 1.96L4 7.2Z" fill-opacity=".7"/></svg>