<!-- by TradingView --><svg width="18" height="18" viewBox="0 0 18 18" xmlns="http://www.w3.org/2000/svg"><path fill="#F0F3FA" d="M0 0h18v18H0z"/><path d="M10.13 6H8.28L7.06 7.43 5.83 6H4.18c-.1 0-.18.07-.18.17v5.66c0 .1.08.17.18.17h1.64c.1 0 .18-.07.18-.17V9l1.06 1.37L8 9v2.83c0 .1.08.17.18.17h1.64c.1 0 .18-.07.18-.17V7.18c0-.1.09-.18.2-.18h.6c.11 0 .2.08.2.18v4.65c0 .1.08.17.18.17h1.64c.1 0 .18-.07.18-.17V7h1.82c.1 0 .18-.07.18-.17v-.66c0-.1-.08-.17-.18-.17h-2.95a1 1 0 0 1-1.74 0Z" fill="#03729C"/></svg>