<!-- by TradingView --><svg xmlns="http://www.w3.org/2000/svg" width="18" height="18" viewBox="0 0 18 18"><path fill="#F0F3FA" d="M0 0h18v18H0z"/><path fill-rule="evenodd" d="M7.85 11.35c-.28-.09-.32-.45-.34-.69l-.43-3.98c-.01-.13-.03-.18-.07-.18-.05 0-.07.05-.1.1l-1.85 4.08L3.12 6.6c-.03-.07-.05-.1-.1-.1-.03 0-.05.05-.06.12l-.45 4.22v.03c-.03.24-.06.48-.26.51l-.19.02c-.03 0-.06.02-.06.04 0 .04.04.06.1.06h1.12c.08 0 .12-.02.12-.06 0-.02-.03-.04-.05-.04-.04 0-.13 0-.24-.03a.2.2 0 0 1-.17-.2l.01-.33.25-3.01h.03L4 9.68a114.24 114.24 0 0 0 .8 1.62c.07.15.1.2.14.2.04 0 .06-.05.13-.2l.07-.16L6.7 7.76h.02l.3 3.37c.02.12 0 .23-.02.23-.03.01-.05.02-.05.05 0 .03.03.08.18.09H9.3c.1 0 .14-.01.14-.05 0-.03-.03-.04-.07-.04-.07 0-.16 0-.24-.03-.06-.03-.08-.1-.08-.15a28.5 28.5 0 0 1 .48-1.46c.3-.09.65-.14 1.06-.13.24 0 .46-.01.68-.05l.4 1.12c.1.26.17.45.17.54 0 .04-.01.1-.08.13a.72.72 0 0 1-.24.03c-.04 0-.06.01-.06.04 0 .04.05.05.17.05h2.85c.07 0 .1-.02.1-.05 0-.02-.01-.04-.05-.04l-.28-.03c-.2-.03-.23-.17-.25-.36V6.86c0-.06.02-.13.06-.14.34-.15.86.06 1.1.3.33.37.35.81.35 1.03 0 .6-.48 1.08-1.1 1.08-.13 0-.16 0-.16.06 0 .03.03.04.06.04h.14c.9 0 1.55-.63 1.55-1.57 0-.35-.18-.64-.32-.78-.1-.1-.38-.38-1.17-.38h-1.5c-.08 0-.11.01-.11.05 0 .03.03.04.05.04.06 0 .17 0 .22.02.16.04.16.11.16.26v1.28c-.32.26-.87.6-1.71.79l-.8-2.04v-.03c-.12-.29-.15-.37-.22-.37-.05 0-.07.06-.16.26l-.1.23c-.14.3-.4.93-.75 1.8l-.07.17-.18.45a3.36 3.36 0 0 0-1.48 1.95h-.01Zm.02 0c.13.05.25.06.33.06.06 0 .17-.02.26-.08s.18-.17.35-.6l.31-.79a2.66 2.66 0 0 0-1.25 1.42Zm1.87-2.12c.25-.09.53-.15.85-.16.16 0 .32-.02.47-.04l-.6-1.65c-.17.42-.46 1.15-.72 1.85Zm2.07.21.56 1.44c.14.37.24.44.46.5a.87.87 0 0 0 .22.03l.18-.03c.1-.02.1-.1.1-.2V8.32c-.3.37-.8.85-1.52 1.12Z" fill="#E10717"/></svg>