<!-- by TradingView --><svg width="18" height="18" viewBox="0 0 18 18" xmlns="http://www.w3.org/2000/svg"><path fill="#F0F3FA" d="M0 0h18v18H0z"/><path d="m9.81 6.4.36.03-.17-.08a2.86 2.86 0 0 0-1.71-.08 2.86 2.86 0 0 0-2.02 3.05 2.82 2.82 0 0 0 .72 1.55c.05.07.18.19.37.34 1.04.8 2.32.66 3.36 0 .49-.31.7-.86.98-1.34-.5.43-1 .7-1.65.7a2.3 2.3 0 0 1-2.13-1.54c-.28-.77-.18-1.82.4-2.43.32-.35 1.14-.38 1.5-.2Z" fill="#054FA2"/><path d="M8.97 6.17c.35-.04 1.11.13 1.16.28-.64.28-1.4.67-1.5 1.4-.1.58.05 1.16.54 1.53.21.16.43.27.64.3.64.13 1.32-.08 1.68-.65.13-.2.23-.43.29-.68a3.4 3.4 0 0 1-.08 1.52c-.5.43-1 .7-1.65.7a2.3 2.3 0 0 1-2.13-1.54c-.28-.77-.18-1.82.4-2.43.08-.1.2-.2.33-.3a.3.3 0 0 1 .13-.07c.06 0 .14-.07.19-.06Z" fill="#0086CC"/><path d="M10.17 6.43c.35.18.57.3.66.38.3.25.54.56.71.92.1.21.18.42.24.62-.06.25-.16.48-.29.68-.36.57-1.04.78-1.68.66a1.55 1.55 0 0 1-.64-.31c-.49-.37-.63-.95-.55-1.53.12-.81.96-1.46 1.55-1.42Z" fill="#00B3F0"/><path d="M9.85 7.38c.38-.14.7-.06.97.25.28.31.19.78-.06 1.09a.28.28 0 0 1-.12.09c-1.16.62-1.82-1.06-.8-1.43Z" fill="#96D9F9"/><path d="m7.25 5.1.08-.03c.25-.12.46-.2.63-.24.77-.17 1.54-.02 2.3-.16.28-.05.55-.13.84-.24.12-.04.24-.11.35-.2.15-.1.3-.2.45-.27.09-.04.1-.09.14-.17l.01-.02a.04.04 0 0 0-.02-.06c-.28-.16-.52-.25-.9-.4l-.08-.04a3 3 0 0 0-.56-.15c-5-.94-9.55 4-6.51 9.14.15.26.75 1.05 1.02 1.2 0 .02.01.01 0 0V8.43c0-1.76.91-2.7 2.25-3.32Z" fill="url(#a)"/><path d="M8.37 14.98c-.27-.03-1.74-.37-1.84-.6V12.5c0-.02 0-.04.01-.03a9.4 9.4 0 0 0 .75.41c3.2 1.33 6.3-1.39 5.99-4.46-.1-.87-.58-1.55-.94-2.32a3.49 3.49 0 0 1-.18-1.94c.03-.09.08-.14.14-.2l.05-.05h.04a6.23 6.23 0 0 0 .18.16 6.1 6.1 0 0 1-4.2 10.9Z" fill="url(#b)"/><defs><linearGradient id="a" x1="9.88" y1="3.89" x2="3.57" y2="10.81" gradientUnits="userSpaceOnUse"><stop stop-color="#039DF2"/><stop offset="1" stop-color="#004CA1"/></linearGradient><linearGradient id="b" x1="9.88" y1="3.89" x2="3.57" y2="10.81" gradientUnits="userSpaceOnUse"><stop stop-color="#039DF2"/><stop offset="1" stop-color="#004CA1"/></linearGradient></defs></svg>