<!-- by TradingView --><svg width="18" height="18" viewBox="0 0 18 18" xmlns="http://www.w3.org/2000/svg"><path fill="#F0F3FA" d="M0 0h18v18H0z"/><path d="M5.8 13H3l4.6-4.14C8.87 7.76 11.78 5 13.2 5 14.64 5 15 6.29 15 6.93c-.09-.18-.4-.55-1.02-.55-.77 0-1.82 1.06-2.55 1.65C10.4 8.86 5.8 13 5.8 13Z" fill="#014584"/><path d="M8.36 13H6.57L9.9 9.97c1.28-1.1 2.81-2.76 3.58-2.76 1.22 0 1.27.92 1.27 1.38a1.1 1.1 0 0 0-.76-.28c-.41 0-1.7 1.1-2.3 1.66L8.36 13Z" fill="#014584"/><path d="M10.4 13H9.13l3.06-3.03c.77-.83 1.28-1.1 1.53-1.1.82 0 1.02.73 1.02 1.1 0-.1-.1-.28-.5-.28-.41 0-1.03.55-1.28.83L10.4 13Z" fill="#014584"/></svg>