<!-- by TradingView --><svg width="18" height="18" viewBox="0 0 18 18" xmlns="http://www.w3.org/2000/svg"><path fill="#2E2F81" d="M0 0h18v18H0z"/><path d="M5.53 6H3v1.04c.22 0 .32.33.32.46v3c0 .31-.16.45-.32.45V12h2.53v-1.05c-.22 0-.32-.28-.32-.45V8.85L6.04 12h.55l.83-3.15v1.65c0 .2-.26.45-.42.45V12h2.63v-1.05c-.22 0-.31-.34-.31-.52v-3c0-.3.22-.38.31-.38V6H7.11l-.8 2.4L5.54 6ZM10 6h2.37c1.31 0 2.32.6 2.32 1.5s-.52 1.35-.78 1.35c.3 0 1.09.45 1.09 1.35 0 1.2-.53 1.8-1.84 1.8H10v-1.04c.09-.05.25-.21.25-.53v-3c0-.13-.04-.39-.25-.39V6Zm2 1.2v1.2h.5c.22 0 .5-.18.5-.6 0-.52-.37-.6-.5-.6H12Zm0 2.4v1.2h.5c.31 0 .5-.15.5-.6 0-.45-.34-.6-.5-.6H12Z" fill="#fff"/></svg>