<!-- by TradingView --><svg width="18" height="18" viewBox="0 0 18 18" xmlns="http://www.w3.org/2000/svg"><path fill="#F0F3FA" d="M0 0h18v18H0z"/><path d="M9 14a5 5 0 1 0-3.46-1.4V8.46C5.69 6.82 7.19 5.54 9 5.54c1.91 0 3.46 1.41 3.46 3.16 0 1.74-1.55 3-3.46 3l-.38-.02v2.3c.12.02.25.02.38.02Zm-.77-.06V8.62c0-.4.33-.77.77-.77s.77.36.77.77c0 .4-.33.76-.77.76-.13 0-.26 0-.38-.04v1.97H9c1.62 0 3.08-1.22 3.08-2.7 0-1.47-1.46-2.69-3.08-2.69S5.98 7.22 5.98 8.7v4.29c.65.49 1.42.82 2.25.95Z" fill="#BEB6AA"/></svg>