<!-- by TradingView --><svg width="18" height="18" viewBox="0 0 18 18" xmlns="http://www.w3.org/2000/svg"><path fill="#F0F3FA" d="M0 0h18v18H0z"/><path d="M5.46 12.33h1.66c-.45-.07-1.45-.54-1.45-1.53V7.26c0-.82.75-1.6 1.56-1.6h5.25c.45 0 1.4.4 1.52 1.6C14 4.98 12.14 4 10.57 4h-3.3A3.27 3.27 0 0 0 4 7.27v3.71c0 .86.97 1.28 1.46 1.35Z" fill="url(#a)"/><path d="M12.54 5.67h-1.66c.45.07 1.45.54 1.45 1.53v3.54c0 .82-.75 1.6-1.56 1.6H5.52c-.45 0-1.4-.4-1.52-1.6C4 13.02 5.86 14 7.43 14h3.3c1.8 0 3.27-1.46 3.27-3.27V7.02c0-.86-1-1.35-1.46-1.35Z" fill="url(#b)"/><path d="M7 7v4h.83V7.98L8.61 11h.8l.76-3.02V11H11V7H9.72l-.7 2.7L8.36 7H7Z" fill="#E70101"/><defs><linearGradient id="a" x1="6.42" y1="14.49" x2="14.71" y2="6.51" gradientUnits="userSpaceOnUse"><stop stop-color="#8F0500"/><stop offset=".73" stop-color="#EB1B07"/><stop offset="1" stop-color="#F37B2F"/></linearGradient><linearGradient id="b" x1="14.39" y1="7.54" x2="4.19" y2="12.23" gradientUnits="userSpaceOnUse"><stop stop-color="#4F4932"/><stop offset=".23" stop-color="#9D9483"/><stop offset=".69" stop-color="#A79E8C"/><stop offset="1" stop-color="#D9D4C9"/></linearGradient></defs></svg>