<!-- by TradingView --><svg width="18" height="18" viewBox="0 0 18 18" xmlns="http://www.w3.org/2000/svg"><path fill="#F0F3FA" d="M0 0h18v18H0z"/><path d="M15 6.74v.9h-.46l-.19-.28.32-.81.33.19ZM3.63 7.36l6.82-.81.33.27.65.82h-7.4l-.4-.28ZM3.63 11.71 14.68 11l.32.2v.8H4.04l-.42-.29Z" fill="#4B4E53"/><path d="m13.18 8.33-.35.05 1.19-1.93h-.84l-.45-.18.68-.15-.04.06h.82l.16-.18.33.18v.27l-1.04 1.6.86.1.18-.15.32.16v2.48H3.92L2.38 9.53v-.06l1.46.74h10.73V8.33h-1.4Z" fill="#4B4E53"/><ellipse cx="11.7" cy="6.61" rx=".14" ry=".12" fill="#0075BB"/><ellipse cx="12.28" cy="6.61" rx=".14" ry=".12" fill="#0075BB"/><ellipse cx="12.87" cy="6.61" rx=".14" ry=".12" fill="#0075BB"/><ellipse cx="13.34" cy="6.61" rx=".14" ry=".12" fill="#0075BB"/><ellipse cx="13.07" cy="6.93" rx=".14" ry=".12" fill="#0075BB"/><ellipse cx="12.54" cy="6.93" rx=".14" ry=".12" fill="#0075BB"/><ellipse cx="11.97" cy="6.93" rx=".14" ry=".12" fill="#0075BB"/><ellipse cx="12.34" cy="7.3" rx=".14" ry=".12" fill="#0075BB"/><ellipse cx="12.87" cy="7.3" rx=".14" ry=".12" fill="#0075BB"/><ellipse cx="12.62" cy="7.61" rx=".14" ry=".12" fill="#0075BB"/><path d="M12.22 6.17 11.87 6l-.1.17-1.08-.14-.02-.03 1.54 2.05H4L2 9.15h.33l1.66-.69h8.73v-.4l-1.31-1.62h.8v-.26Z" fill="#4B4E53"/><path d="M14.35 6h-1.63v.27h1.14l-1.03 1.7v.46h1.52v1.66H3.65L2 9.3v.06l1.66 1.01h11.02V8h-1.42l1.09-1.73V6Zm-10.72.55h6.81l.66.81H3.63v-.81Zm11.05 0v.81h-.33l.33-.81Zm0 4.45H3.63v.73h11.05V11Zm-4.01-5h1.2v.28h-.82l1.35 1.7v.36H3.62L2 9.14v-.15L3.63 8h8.24l-1.2-1.73V6Z" fill="url(#aesst5thz)"/><path d="m14.03 8.66-.2-.14-9.8 1.27.14.21h9.86V8.66Z" fill="#0A5A8B"/><path d="m4.08 8.52-1.43.72 1.43.73h9.74V8.52H4.08Z" fill="#0376BA"/><path fill="#F0F3FA" d="M4.17 9h8.67v.57H4.17z"/><defs><linearGradient id="aesst5thz" x1="14.6" y1="8.86" x2="2" y2="8.86" gradientUnits="userSpaceOnUse"><stop stop-color="#636469"/><stop offset="1" stop-color="#989DA0"/></linearGradient></defs></svg>