<!-- by TradingView --><svg xmlns="http://www.w3.org/2000/svg" width="18" height="18"><path fill="url(#anipkhwoh)" d="M0 0h18v18H0z"/><path d="M13.64 8.74V8.3c0-2.16-1.48-4.8-4.52-4.8a4.73 4.73 0 00-4.76 4.67v.56s-1.14.6-1.86.93c0 1.1 2.05 4.84 6.5 4.84s6.5-3.66 6.5-4.82c-.56-.32-1.86-.94-1.86-.94z" fill="#EADCCD"/><path d="M7.54 10.98h.74v-.41h-.23l.59-2.97.56 3.38h.47L8.65 5.21 8.24 7.4l-.13.68a.6.6 0 01-.28-.41c-.03-.23-.03-.45.04-.72a.7.7 0 00-.37.13l.03-.13c.02-.05.12-.17.12-.17s-.39.08-.47.32c-.08.23-.39.64-.39.64s.36.1.48.3c.07.13.1.26.13.5l.04.26c.06.4.4.5.43.5l-.33 1.68z" fill="#182133"/><path d="M10.52 10.98h-.75v-.41H10l-.6-2.9-.56 3.31h-.46l1.02-5.8.48 2.54a.86.86 0 01.6-.26c.5 0 .78.56.78.77-.22-.08-.34-.03-.34-.03a.6.6 0 01.3.62s-.16-.15-.34-.12c.16.12.2.27.2.47a.63.63 0 00-.77.13l-.15-.18.36 1.86z" fill="#C61A32"/><path d="M8.99 13.07a5 5 0 01-4.31-2.26l1.27-.83s.9 1.58 3.04 1.58c2.13 0 3-1.58 3-1.58l1.45.83a5.21 5.21 0 01-4.45 2.26z" fill="#182133" fill-opacity=".7"/><path d="M12.15 9.04c.03-.16.07-.32.07-.49 0-2.16-1.33-3.74-3.24-3.74-1.9 0-3.24 1.56-3.24 3.72 0 .19.04.34.08.53l-2.07 1.16c.8 1.79 2.84 3.4 5.23 3.4a5.9 5.9 0 005.33-3.4l-2.16-1.18zm2.65 1c0 .67-1.74 3.97-5.82 3.97-4.33 0-5.84-3.97-5.84-3.97l2.18-1.17-.01-.09-.02-.43c0-2.27 1.57-4.03 3.7-4.03 2.12 0 3.72 1.72 3.72 4.04 0-.17 0 .38-.03.51l2.12 1.17z" fill="#182133"/><defs><linearGradient id="anipkhwoh" x1="3.35" y1="3.12" x2="21.9" y2="24.43" gradientUnits="userSpaceOnUse"><stop stop-color="#1A1E21"/><stop offset="1" stop-color="#06060A"/></linearGradient></defs></svg>