<!-- by TradingView --><svg width="18" height="18" viewBox="0 0 18 18" xmlns="http://www.w3.org/2000/svg"><path fill="#F0F3FA" d="M0 0h18v18H0z"/><path d="m9.21 6.16.12-3.12c0-.03.02-.04.05-.04l1.14.22c.04.01.05.03.03.06L9.5 6.24c0 .02-.03.03-.05.02l-.21-.06c-.02 0-.03-.02-.03-.04ZM7.34 3.6l.7 2.57c.01.02 0 .03-.01.04l-.2.06-.02-.02-1.42-2.17.01-.04.9-.45c.02 0 .03 0 .04.02ZM10.76 6.85l1.48-2.17c.01-.02.03-.02.04 0l.7.74c.02.01.02.03 0 .04L10.96 7h-.04l-.15-.13c-.01 0-.02-.02 0-.03ZM11.25 9.4c0 .76-.26 1.4-.77 1.95-.52.54-1.13.8-1.86.8-.72 0-1.34-.26-1.85-.8A2.74 2.74 0 0 1 6 9.39c0-.76.26-1.41.77-1.95a2.46 2.46 0 0 1 1.85-.81c.73 0 1.34.27 1.86.81.5.54.77 1.2.77 1.95Z" fill="#311211"/><path d="M9.58 11.77c-.02-.13.01-.23.1-.3.39-.35.61-.77.66-1.28a1.98 1.98 0 0 0-.9-1.98c-.7-.46-1.4-.46-2.1.02-.55.4-.84.97-.87 1.75 0 .03-.01.04-.04.04-.07 0-.1.06-.12.17-.18-.73-.06-1.4.35-2.01a2.27 2.27 0 0 1 2.7-.88 2.47 2.47 0 0 1 1.5 2.1 2.49 2.49 0 0 1-1.28 2.37Z" fill="#D1D1D2"/><path d="M9.58 11.77a2.21 2.21 0 0 1-2.41-.23c-.44-.35-.73-.8-.86-1.35.01-.11.05-.17.12-.17.03 0 .04-.01.04-.04.02-.78.32-1.36.88-1.75.7-.48 1.39-.48 2.09-.02.69.46 1 1.12.9 1.98-.05.5-.27.93-.67 1.28-.08.07-.11.17-.1.3Z" fill="#EEF1F8"/><path d="M9.37 10.16c0 .31-.1.57-.3.8a1 1 0 0 1-.76.32 1 1 0 0 1-.76-.33c-.2-.22-.3-.48-.3-.79 0-.31.1-.57.3-.8a1 1 0 0 1 .76-.32 1 1 0 0 1 .75.33c.2.22.31.48.31.79Z" fill="#CA400E"/><path d="M8.97 9.66c-.17-.12-.35-.11-.53.03.02-.03.01-.05 0-.07-.02-.02-.03-.03-.05-.03l-.3-.06-.09.01c-.19.1-.3.27-.34.53-.03.2.01.39.13.54.12.15.27.23.47.24.3 0 .52-.14.67-.42a.14.14 0 0 0 .02-.08v-.05l.15-.14c.09.09.08.22-.01.4-.22.4-.52.58-.9.51a.86.86 0 0 1-.57-.34.89.89 0 0 1-.1-.97c.17-.34.45-.5.84-.5.32 0 .52.13.61.4Z" fill="#FBAF1B"/><path d="M8.39 9.6c-.2-.02-.3.03-.3.12-.1-.05-.17-.03-.23.07-.04.07-.03.13.02.17-.05-.01-.08.02-.09.1-.01.2.04.36.16.5.12.12.27.17.45.14a.53.53 0 0 0 .37-.28l.19-.12-.01.05c0 .03 0 .06-.02.08-.15.28-.38.42-.67.42a.59.59 0 0 1-.47-.24.69.69 0 0 1-.13-.54c.04-.26.15-.44.34-.53a.13.13 0 0 1 .08 0l.3.05Z" fill="#CA400E"/><path d="M8.97 9.66c.12.14.17.31.13.5l-.15.14-.18.12c-.2-.01-.35-.1-.43-.26-.08-.16-.04-.32.1-.47.18-.14.35-.15.53-.03Z" fill="#EEF1F8"/><path d="M8.39 9.6c.01 0 .03 0 .05.02.01.02.01.04 0 .07-.14.15-.18.3-.1.47.08.16.22.25.43.26a.53.53 0 0 1-.37.28.46.46 0 0 1-.46-.15.64.64 0 0 1-.15-.5c0-.07.03-.1.09-.09.05.04.1.06.15.05.05 0 .09-.04.1-.1a.23.23 0 0 0-.03-.19c-.01-.1.09-.14.29-.13Z" fill="#040609"/><path d="M8.1 9.72c.04.07.05.13.03.2-.01.05-.05.08-.1.1-.05 0-.1-.02-.15-.06-.06-.04-.06-.1-.02-.17.06-.1.14-.12.24-.07Z" fill="#EEF1F8"/><path d="m9.38 12.5-2.29-.4a.3.3 0 0 0-.34.24v.02a.3.3 0 0 0 .24.36l2.29.41a.3.3 0 0 0 .34-.25v-.01a.3.3 0 0 0-.24-.36ZM9.15 13.2l-2.04-.36a.3.3 0 0 0-.33.25v.01a.3.3 0 0 0 .23.36l2.04.37a.3.3 0 0 0 .34-.25v-.02a.3.3 0 0 0-.24-.35ZM8.89 13.96l-1.76-.32a.3.3 0 0 0-.34.25v.01a.3.3 0 0 0 .24.36l1.76.32a.3.3 0 0 0 .33-.25v-.02a.3.3 0 0 0-.23-.35ZM8.13 15l-.73-.2-.03-.01-.33-.26c-.03-.02-.04-.05-.02-.09.01-.03.04-.05.08-.04l1.66.3c.04.01.06.03.06.08 0 .04-.01.06-.05.07l-.61.15h-.03Z" fill="#311211"/></svg>