<!-- by TradingView --><svg width="18" height="18" viewBox="0 0 18 18" xmlns="http://www.w3.org/2000/svg"><path fill="#DCF49E" d="M0 0h18v18H0z"/><path d="M4 6.47v5.06l.47.28V9.66c.03-.65.36-1.93 1.37-1.93 1 0 1.69 1.48 1.83 2.22v3.38s.73.45 1.16.67V4l-1.16.71v1.38L6.5 5.54v.85l-.3.22V5.36l-1.03.53v.72l-.51-.22v.72h-.34V6.3L4 6.47ZM5.6 11l-.93.61v-1.59c0-1.54.8-1.95 1.2-1.96-.2.2-.27.64-.28.84v2.1ZM14 6.47v5.06l-.47.28V9.66c-.03-.65-.36-1.93-1.37-1.93-1 0-1.69 1.48-1.83 2.22v3.38s-.73.45-1.16.67V4l1.16.71v1.38l1.16-.55v.85l.3.22V5.36l1.03.53v.72l.51-.22v.73h.34V6.3l.33.17ZM12.4 11l.93.61v-1.59c0-1.54-.8-1.95-1.21-1.96.2.2.27.64.28.84v2.1Z" fill="#055554"/></svg>