<!-- by TradingView --><svg width="18" height="18" viewBox="0 0 18 18" xmlns="http://www.w3.org/2000/svg"><path fill="#F0F3FA" d="M0 0h18v18H0z"/><path d="M9 4a4.99 4.99 0 0 1 4.97 5.1l-.02-.01-.68-.7a.38.38 0 0 1-.1-.18A4.3 4.3 0 0 0 9 4.76 4.3 4.3 0 0 0 4.82 8.2a.38.38 0 0 1-.09.18 64.13 64.13 0 0 1-.72.7L4 9.06A4.99 4.99 0 0 1 9 4Zm-.06 4.3v.02a.02.02 0 0 0 .03 0l.01-.01c.37-.51.82-.99 1.43-1.1.8-.15 1.62.51 2.15 1.05.38.4.8.85 1.27 1.4A9.98 9.98 0 0 0 15 10.8a3.7 3.7 0 0 1-1.13-.38c-.09-.05-.35-.24-.78-.56a9.1 9.1 0 0 0-1.2-.78c-.5-.27-1.05-.4-1.57-.21a2.52 2.52 0 0 0-1.33 1.33h-.03l-.02-.02c-.1-.2-.2-.38-.33-.54-.28-.36-.57-.6-.86-.72-.64-.27-1.25-.1-1.83.23-.26.14-.51.3-.77.5l-.84.62c-.39.26-.75.37-1.18.48-.14.04-.16 0-.04-.09l.42-.38c.16-.15.62-.65 1.38-1.52.12-.14.4-.4.8-.79.34-.31.7-.54 1.09-.69.91-.34 1.67.29 2.17 1.03Zm-2.4 5.05c.76.44 1.58.65 2.47.65a4.99 4.99 0 0 0 4.74-3.49.09.09 0 0 0-.03-.04l-.54-.39-.03-.01a.06.06 0 0 0-.06.04 4.26 4.26 0 0 1-5.61 2.84A4.26 4.26 0 0 1 4.9 10.1a.06.06 0 0 0-.05-.02l-.03.01-.53.39a.09.09 0 0 0-.04.1 4.99 4.99 0 0 0 2.3 2.77Z" fill="#024795"/></svg>