<!-- by TradingView --><svg width="18" height="18" viewBox="0 0 18 18" xmlns="http://www.w3.org/2000/svg"><path fill="#F0F3FA" d="M0 0h18v18H0z"/><path d="M14.6 6v1.98h-.16a2.36 2.36 0 0 0-.3-.9 1.32 1.32 0 0 0-.58-.54 1.6 1.6 0 0 0-.79-.2c-.3 0-.56.09-.76.27a.8.8 0 0 0-.3.6c0 .18.06.34.19.49.18.2.62.49 1.3.84.57.3.95.51 1.16.67.2.15.36.33.47.54.11.2.17.43.17.65 0 .44-.18.81-.53 1.13-.35.31-.8.47-1.37.47a3.03 3.03 0 0 1-1.06-.19 2.6 2.6 0 0 0-.55-.14.25.25 0 0 0-.17.07c-.05.04-.08.13-.1.26h-.16v-1.97h.16c.08.41.18.72.31.93.13.2.33.37.6.5.27.14.56.21.88.21.37 0 .66-.1.88-.28.21-.19.32-.4.32-.66a.85.85 0 0 0-.12-.43 1.41 1.41 0 0 0-.38-.4c-.12-.08-.43-.26-.95-.54a9.6 9.6 0 0 1-1.1-.66 1.81 1.81 0 0 1-.5-.54 1.38 1.38 0 0 1 .33-1.71c.34-.3.76-.45 1.27-.45.32 0 .66.07 1.02.22.16.07.28.11.35.11.08 0 .14-.02.19-.06a.57.57 0 0 0 .12-.27h.16Zm-8.37 6L4 6.95v4.01c0 .45.16.88.7.88h.2V12H3v-.16h.2c.45 0 .45-.45.45-.88V7.04c0-.57-.05-.88-.65-.88V6h1.54l1.98 4.7L8.46 6H10v.16h-.19c-.23 0-.4.08-.5.23-.05.1-.08.31-.08.65v3.92c0 .37.04.6.11.69.1.12.26.19.47.19H10V12H7.69v-.16h.2c.22 0 .39-.08.48-.23.06-.1.09-.31.09-.65v-4L6.36 12h-.13Z"/></svg>