<!-- by TradingView --><svg width="18" height="18" viewBox="0 0 18 18" xmlns="http://www.w3.org/2000/svg"><path fill="#F0F3FA" d="M0 0h18v18H0z"/><path fill-rule="evenodd" d="M14 9A5 5 0 1 1 4 9a5 5 0 0 1 10 0Zm-2 0c0 1.81-.35 3-.78 3-.43 0-.78-1.19-.78-3s.35-3 .78-3c.43 0 .78 1.19.78 3Zm-3 3c.55 0 1-1.12 1-2.5S9.55 7 9 7 8 8.12 8 9.5 8.45 12 9 12Zm-2-2c0 1.1-.22 2-.5 2s-.5-.9-.5-2 .22-2 .5-2 .5.9.5 2Zm2.89-3.01A1.27 1.27 0 0 0 9 6.57c-.32 0-.63.16-.9.43C6.89 6.91 6 6.61 6 6.28c0-.4 1.3-.72 2.92-.72a9 9 0 0 1 2.08.22c-.19.22-.35.63-.48 1.13L9.9 7Z" fill="#933047"/></svg>