<!-- by TradingView --><svg width="18" height="18" viewBox="0 0 18 18" xmlns="http://www.w3.org/2000/svg"><path fill="#F0F3FA" d="M0 0h18v18H0z"/><path d="M8.92 4 7.7 7.28c.12-.08.28-.2.34-.26L9 4.5v5.05h-.33v.17h1.15v-.09c.03-.26.13-.5.17-.61l.01-.02V4.15h.87V4H8.92ZM5.8 9.71H4v-.24h.71V4.22H4v-.2h2.09l1.36 3.6a4.4 4.4 0 0 0-.7 1.62L5 4.7v4.76h.79v.24ZM4.7 10v3H8v-.43H5V10h-.29Zm8.58-5v2.8H13V5.42h-2.57V5h2.86ZM8.82 7v.83c-.1.07-.5.45-.5 1.4v1.7c-.02.53.25 1.58 1.5 1.65v.26C8.87 12.72 7 11.94 7 9.76 7 8.26 8.28 7.3 8.82 7Zm1.3 2.76c0-.7.44-1.3.66-1.51-.4 1.37 1.07 1.91 1.45 2.01h.01c.4.11 1.76.47 1.76 1.7 0 1.24-1.03 2-1.97 2-.6 0-.91-.13-1.15-.23-.14-.06-.25-.1-.37-.1-.23 0-.22.19-.22.32V14H10v-2.14h.3c.05 1.2.96 1.9 1.65 1.9.7 0 1.36-.33 1.36-.98 0-.66-.56-1-1.59-1.35-1.02-.34-1.6-.81-1.6-1.67Zm.15-3.02v.2c.32.13.95.8.95 2.46.09.1.33.3.6.41l.6.24c.1-.8-.18-2.58-2.15-3.3Zm.48 5.95a.29.29 0 0 1-.2-.28c.48-.28.55-.79.55-1.03.14.11.56.29.76.37-.27.43-.85.8-1.11.94Zm1.4-4.81c.15.08.51.24.8.24.28 0 .35-.11.35-.2h.16V9.5h-.16c.05-.15.08-.5-.2-.73l-.95-.88Z" fill="#413962"/></svg>