<!-- by TradingView --><svg width="18" height="18" viewBox="0 0 18 18" xmlns="http://www.w3.org/2000/svg"><path fill="#F0F3FA" d="M0 0h18v18H0z"/><path d="m8.98 4.02 4.92 2.34c.05.02.1.09.1.14-.02 1.66 0 3.29 0 4.95 0 .11-.08.21-.24.29l-4.8 2.24a.16.16 0 0 1-.15 0l-4.72-2.33c-.04-.02-.06-.05-.06-.1L4 6.57a.31.31 0 0 1 .17-.26L8.8 4.02a.2.2 0 0 1 .18 0Z" fill="#153B24"/><path d="m6.77 7.06 2.08-2.57.02-.02a.05.05 0 0 1 .04 0l.02.02L11 7.06a.04.04 0 0 1 0 .04l-.01.02h-4.2l-.02-.02a.04.04 0 0 1 0-.04Z" fill="#F8A743"/><path d="m13.26 6.52-1.75.65h-.03a.05.05 0 0 1-.03-.01L9.66 4.83a.05.05 0 0 1 0-.06l.04-.01h.03l3.53 1.67c.01 0 .02 0 .02.02a.05.05 0 0 1 0 .05l-.02.02Z" fill="#5248F7"/><path d="m4.7 6.45 3.41-1.7a.05.05 0 0 1 .06.01l.02.03-.01.03-1.86 2.34c0 .01-.01.02-.03.02h-.03L4.7 6.53c-.01 0-.02 0-.03-.02v-.04l.02-.02Z" fill="#ED5F34"/><path d="m11.7 7.41 1.9-.7a.06.06 0 0 1 .04 0s.02 0 .02.02v3.98l-.04.02h-.03a.05.05 0 0 1-.02-.03l-1.9-3.22a.04.04 0 0 1 0-.04l.01-.02h.02ZM6.3 7.47h.02l.01.02a.03.03 0 0 1 0 .03L4.37 10.8c-.03.04-.04.04-.04 0V6.84c0-.05.12-.08.17-.06l1.8.68Z" fill="#F8A743"/><path d="M8.84 11.63 6.7 7.51a.05.05 0 0 1 0-.05l.02-.02h4.4l.02.02v.05l-2.19 4.12-.02.02a.06.06 0 0 1-.06 0l-.02-.02Z" fill="#ED5F34"/><path d="m11.5 7.82 2 3.46a.05.05 0 0 1 0 .04l-.02.02-.02.01-4.23.52H9.2l-.02-.02v-.05l2.22-3.98.02-.02a.06.06 0 0 1 .05 0l.02.02Z" fill="#377D33"/><path d="M4.52 11.3 6.3 7.9l.02-.02a.05.05 0 0 1 .05 0l.02.02 2.14 3.84a.04.04 0 0 1 0 .05l-.03.02h-.02l-3.92-.43h-.02l-.01-.02a.04.04 0 0 1 0-.04Z" fill="#5248F7"/><path d="m5.16 11.76 3.45.44c.04 0 .06.03.06.07v1.2c0 .04-.02.06-.05.05L5.15 11.8c-.07-.04-.06-.05.01-.04Z" fill="#377D33"/><path d="M9 13.49v-1.27l.01-.04.04-.01 3.43-.36h.04l.02.04v.03l-.02.02-3.44 1.63a.06.06 0 0 1-.05 0L9 13.5 9 13.5Z" fill="#ED5F34"/></svg>