<!-- by TradingView --><svg width="18" height="18" viewBox="0 0 18 18" xmlns="http://www.w3.org/2000/svg"><path fill="#F0F3FA" d="M0 0h18v18H0z"/><path fill-rule="evenodd" d="M9.42 6c.34 0 .58.29.58.64v3.03l2.19-3.41c.11-.15.3-.26.49-.26h.47A2.95 2.95 0 0 1 16 8.99 2.96 2.96 0 0 1 13.12 12h-.53c-.33 0-.58-.29-.59-.63V8.58l-2.09 3.16a.6.6 0 0 1-.49.26c-.33 0-.4-.3-.42-.64V8.5l-2.48 3.24a.62.62 0 0 1-.5.26c-.33 0-.53-.31-.52-.67V8.5l-2.4 3.23a.61.61 0 0 1-.49.27.63.63 0 0 1-.61-.64c0-.14.04-.27.12-.38l3.41-4.72h.01A.6.6 0 0 1 6.03 6c.27 0 .49.29.49.64v3.03l2.41-3.41c.11-.15.3-.26.49-.26Zm4.02 5H13V7h.47c.91 0 1.5 1.04 1.5 2s-.62 2-1.53 2Z" fill="#AC1A24"/></svg>