<!-- by TradingView --><svg width="18" height="18" viewBox="0 0 18 18" xmlns="http://www.w3.org/2000/svg"><path fill="#F0F3FA" d="M0 0h18v18H0z"/><path d="M4 5h10v8H4V5Z" fill="#0E2050"/><path fill-rule="evenodd" d="M12.5 6.5h-7v5h7v-5Zm-8-1v7h9v-7h-9Z" fill="#fff"/><path fill-rule="evenodd" d="M12.5 6.5h-7v5h7v-5ZM5 6v6h8V6H5Z" fill="#E30613"/><path d="M8 9.96c-.01.07 0 .13.04.2.03.06.07.12.13.17.06.05.13.09.2.11a.7.7 0 0 0 .24.04V9.09C8 9.1 8 9.65 8 9.65h-.8v-1.5H7l.59-.66.54.65h-.15v.43h.62v-.92h-.2L8.98 7l.6.65h-.2v.92h.64v-.43h-.2l.6-.65.58.65h-.2v1.52h-.78s0-.57-.62-.57v1.38c.08 0 .16-.01.24-.04a.63.63 0 0 0 .2-.1c.06-.06.1-.12.14-.18a.44.44 0 0 0 .04-.2h.83c-.05.28-.2.54-.44.74-.4.32-1.41.31-1.41.31s-.98 0-1.4-.3a1.1 1.1 0 0 1-.44-.75H8Z" fill="#fff"/></svg>