<!-- by TradingView --><svg width="18" height="18" viewBox="0 0 18 18" xmlns="http://www.w3.org/2000/svg"><path fill="#F0F3FA" d="M0 0h18v18H0z"/><path d="M4 4.04c.94.08 3.25-.03 5-1.04a9.64 9.64 0 0 0 5 1.04v6.62c-.23 2.44-2.18 4.28-5 5.34-2.82-1.06-4.77-2.9-5-5.34V4.04Z" fill="#253473"/><path fill-rule="evenodd" d="M8.87 14.94c-.65-.3-1.6-.88-2.38-1.68A4.94 4.94 0 0 1 5 10V6.58l.05-.04c.34-.26.93-.48 1.63-.53.7-.05 1.51.05 2.32.43.8-.38 1.62-.48 2.32-.43.7.05 1.3.27 1.63.53l.05.04v3.41c0 1.21-.67 2.45-1.5 3.27a8.49 8.49 0 0 1-2.37 1.68L9 15l-.13-.06ZM5.26 9.85V6.72c.29-.2.8-.4 1.44-.44.65-.05 1.41.05 2.17.4v3.17H5.26Zm3.61.28H5.26a4.78 4.78 0 0 0 1.4 2.94 8.32 8.32 0 0 0 2.21 1.58v-4.53Zm.26 4.52c.62-.3 1.48-.85 2.2-1.58a4.78 4.78 0 0 0 1.41-2.95H9.13v4.53Zm0-4.8h3.61V6.72c-.29-.2-.8-.4-1.44-.44a4.43 4.43 0 0 0-2.17.4v3.17Z" fill="#fff"/><path d="M8.5 12a1 1 0 1 1-2 0 1 1 0 0 1 2 0ZM12 8a1 1 0 1 1-2 0c0-.55 1-1 1-1s1 .45 1 1ZM7.34 8.57c-.52.46-1.1.57-1.28.25-.19-.32.08-.94.6-1.4.52-.45 1.1-.56 1.28-.24.19.32-.08.94-.6 1.4ZM10 13c1.2-.4 1.83-1.5 2-2h-1l-1 1v1Z" fill="#fff"/><path fill="#fff" fill-opacity=".8" d="M6 5h6v1H6z"/></svg>