<!-- by TradingView --><svg width="18" height="18" viewBox="0 0 18 18" xmlns="http://www.w3.org/2000/svg"><path fill="#F0F3FA" d="M0 0h18v18H0z"/><path fill-rule="evenodd" d="M9 4c.3 0 .54.66.6.88.05.27-.15.46-.34.62a.1.1 0 0 0-.03.1c.12.85.37 1.89.92 2.57.58.72 1.3.5 1.8-.16.37-.5.58-1.08.62-1.74 0-.04-.01-.07-.03-.1-.26-.44-.2-.83.17-1.15a.19.19 0 0 1 .22-.02l.06.05c.32.46.17.75-.13 1.16a.14.14 0 0 0-.03.09c.02.63.15 1.5.55 1.92.24.27.84.22 1.1.11.38-.16.63-.45.75-.88v-.09c-.2-.46-.25-.92.23-1.2.3-.18.5.06.53.34.05.43-.19.62-.47.83a6.57 6.57 0 0 0-.18.17l-1.7 5.46-.01.03-.03.01H4.4l-.03-.01-.02-.03L2.66 7.5a.12.12 0 0 0-.03-.05l-.15-.11c-.28-.22-.52-.4-.47-.84.02-.27.22-.51.53-.34.48.28.43.74.24 1.2a.14.14 0 0 0-.01.1c.12.42.37.71.75.87.26.11.86.16 1.1-.11.4-.43.53-1.29.55-1.92 0-.04 0-.07-.03-.1-.3-.4-.45-.7-.13-1.15a.19.19 0 0 1 .28-.03c.38.32.43.7.17 1.15a.17.17 0 0 0-.03.1c.04.66.25 1.24.63 1.74.5.65 1.2.88 1.8.16.54-.68.79-1.72.91-2.58a.1.1 0 0 0-.03-.09c-.19-.16-.4-.35-.33-.62.05-.22.3-.88.59-.88Zm1.56 6.53c-.05-.06-.07-.05-.07.01v1.32c0 .09-.05.13-.15.13h-.17a.19.19 0 0 1-.12-.04.12.12 0 0 1-.05-.1V9.12c0-.08.05-.12.14-.12h.2c.1 0 .15.04.15.11v1.17c0 .06.02.07.06.02l1.2-1.2a.35.35 0 0 1 .14-.08.42.42 0 0 1 .18-.01h.09c.13.02.16.07.07.16l-1.19 1.19c-.02.02-.02.04 0 .07l1.28 1.42c.06.07.04.11-.07.13l-.19.02a.29.29 0 0 1-.26-.1l-1.24-1.37Zm-2.96.85h-.03l-.01-.01L6.5 9.12c-.03-.06-.11-.1-.24-.11a1.57 1.57 0 0 0-.43 0 .2.2 0 0 0-.1.06.15.15 0 0 0-.04.1v2.71c0 .08.04.11.12.11h.25c.09 0 .13-.03.13-.1V9.51c0-.12.03-.12.08-.01l1.07 2.44c0 .02.03.03.08.04l.17.01h.16c.05-.02.07-.03.08-.05l1.08-2.44c.05-.1.07-.1.07 0v2.37c0 .08.05.11.14.11h.24c.08 0 .13-.03.13-.1V9.18a.15.15 0 0 0-.05-.1.2.2 0 0 0-.1-.06c-.1-.02-.25-.02-.42-.01-.13.01-.21.05-.24.1a287.97 287.97 0 0 1-1.08 2.27Z" fill="#D1221F"/></svg>