<!-- by TradingView --><svg width="18" height="18" viewBox="0 0 18 18" xmlns="http://www.w3.org/2000/svg"><path fill="#F0F3FA" d="M0 0h18v18H0z"/><path d="m3.07 5.38 4.76 6.59c.3.45.9 1.01 1.96 1.03h.37c.13 0 .33-.05.12-.34L7.97 9.43a.73.73 0 0 1 .04-.77l2.45-3.33c.05-.08.1-.26-.15-.3a2.45 2.45 0 0 0-2.3.98L6.9 7.58c-.05.05-.18.13-.31 0l-.91-1.3a3.17 3.17 0 0 0-2.4-1.26c-.15.01-.4.1-.21.36Zm2.24 5h1.11c.09.02.21.11 0 .4-.2.29-.7.96-.93 1.26-.24.3-.97.91-2 .96h-.38c-.06 0-.15-.06-.09-.2l1.38-1.85c.13-.19.5-.56.91-.56Z" fill="#FF5959"/><circle cx="11.45" cy="8.58" r=".77" fill="#013A71"/><path d="m13.38 8.68-2.2-3.3c-.27-.4.1-.4.32-.36.9.12 1.43.65 1.88 1.25l1.52 2.28c.18.28.08.6 0 .74l-1.8 2.64c-.66.8-1.54 1.15-1.93 1.05-.3-.08-.13-.4 0-.55l2.21-3.22c.16-.21.07-.44 0-.53Z" fill="#013A71"/></svg>