<!-- by TradingView --><svg width="18" height="18" viewBox="0 0 18 18" xmlns="http://www.w3.org/2000/svg"><path fill="#F0F3FA" d="M0 0h18v18H0z"/><path d="m5 5.28 2.04 9.67.71-12.86L5 5.28Z" fill="url(#a)"/><path d="M11.33 6.3V12h1.39l-1.39-5.7Z" fill="url(#b)"/><path d="m11.33 4.67 1.69 6.6.5-5.17-2.19-1.43Z" fill="url(#c)"/><path d="M13.42 10H14l-.24-3.78-.34 3.78Z" fill="url(#d)"/><path d="M8 15V2l3 2.11V15H8Z" fill="url(#e)"/><defs><linearGradient id="a" x1="6.25" y1="2.15" x2="6.25" y2="14.89" gradientUnits="userSpaceOnUse"><stop stop-color="#872B28"/><stop offset="1" stop-color="#E11719"/></linearGradient><linearGradient id="b" x1="11.73" y1="6.3" x2="11.81" y2="11.91" gradientUnits="userSpaceOnUse"><stop stop-color="#872B28"/><stop offset="1" stop-color="#E11719"/></linearGradient><linearGradient id="c" x1="12.63" y1="4.78" x2="12.7" y2="10.58" gradientUnits="userSpaceOnUse"><stop stop-color="#872B28"/><stop offset="1" stop-color="#E11719"/></linearGradient><linearGradient id="d" x1="13.72" y1="6.52" x2="13.6" y2="10.14" gradientUnits="userSpaceOnUse"><stop stop-color="#872B28"/><stop offset="1" stop-color="#E11719"/></linearGradient><linearGradient id="e" x1="9.5" y1="2" x2="9.5" y2="15" gradientUnits="userSpaceOnUse"><stop stop-color="#E11219"/><stop offset="1" stop-color="#872B28"/></linearGradient></defs></svg>