<!-- by TradingView --><svg width="18" height="18" viewBox="0 0 18 18" xmlns="http://www.w3.org/2000/svg"><path fill="#F0F3FA" d="M0 0h18v18H0z"/><path d="M6.1 11.46H3.38c-.05 0-.08-.04-.06-.08l2.91-6.03c.22-.45.9-.47 1.15-.03l1.56 2.82c.03.05.1.05.12 0l1.56-2.82c.25-.44.93-.42 1.15.03l2.9 6.03c.03.04 0 .08-.05.08h-2.57a.06.06 0 0 1-.05-.03l-.87-1.46c-.03-.04-.1-.04-.12 0l-1.44 2.7c-.24.44-.9.44-1.14 0L7 9.98c-.02-.04-.09-.04-.11 0l-.72 1.45a.06.06 0 0 1-.06.03Z" fill="#009C4D"/><path d="m10.42 12-.16.3H15V12h-4.58ZM7.58 12l.16.3H3V12h4.58Z"/></svg>