<!-- by TradingView --><svg width="18" height="18" viewBox="0 0 18 18" xmlns="http://www.w3.org/2000/svg"><path fill="#F0F3FA" d="M0 0h18v18H0z"/><path d="M9.35 5.72v1.06l2.1-1.06-.82-.62-1.28.62Zm0 1.67v1.7l3.85-1.92-1.75-.85-2.1 1.07Zm.02 4.16V9.78l3.5-1.84 1.75.87-5.25 2.74Zm-.02.61v1.77L16 10.4l-1.75-.87-4.9 2.64Z" fill="#231F20"/><path d="M8.65 5.79v1.06l-2.1-1.06.82-.62 1.28.62Zm0 1.67v1.7L4.8 7.24l1.75-.85 2.1 1.07Zm0 4.16V9.85L5.16 8l-1.76.87 5.25 2.74Zm0 .61V14L2 10.46l1.75-.87 4.9 2.64Z" fill="#B9C5CC"/><path d="M8.65 4v1.1L7.6 4.51 8.65 4ZM9.35 4v1.1l1.05-.59L9.35 4Z" fill="#EB2E2E"/></svg>