<!-- by TradingView --><svg width="18" height="18" viewBox="0 0 18 18" xmlns="http://www.w3.org/2000/svg"><path fill="#F0F3FA" d="M0 0h18v18H0z"/><path d="M12.03 7.15c.13.12.17.27.13.43a.48.48 0 0 1-.3.33.57.57 0 0 1-.2.03l-.16.01c-.24.06-.38.2-.42.42-.01.05 0 .17.03.34a.78.78 0 0 1-.32.82.81.81 0 0 1-.55.16.8.8 0 0 1-.53-.24.8.8 0 0 1-.07-1.07c.2-.27.47-.37.82-.32.17.03.29.04.34.03.22-.03.36-.17.42-.41l.02-.16c0-.09 0-.16.02-.2a.48.48 0 0 1 .34-.3c.16-.04.31 0 .43.13Z" fill="#EFC260"/><path d="m8.45 9.96.02-.02.03-.03a1.89 1.89 0 0 0-2.04-3.09c-.24.09-.4.13-.46.14a.7.7 0 0 1-.52-.2.7.7 0 0 1-.25-.5l.07-.4c.06-.31 0-.6-.2-.88a1.1 1.1 0 0 0-.78-.47 1.19 1.19 0 0 0-.98.32 1.17 1.17 0 0 0-.32.97c.04.33.2.6.47.78.27.2.57.26.89.2l.4-.07c.2.01.36.1.5.25s.2.33.2.52c0 .07-.05.22-.14.46-.2.54-.16 1.07.11 1.56a1.9 1.9 0 0 0 3 .46Zm.18-1.36a1.5 1.5 0 1 1 0 0Z" fill="#C0D5C4"/><path d="M11.62 9.83c.05.15.03.29-.06.4-.16.2-.35.25-.58.13a1.69 1.69 0 0 0-1.48-.13c-.4.15-.7.43-.91.83-.03.05-.06.12-.09.23-.05.17-.1.28-.17.33-.1.08-.22.1-.36.09-.14-.03-.23-.08-.28-.15-.06-.13-.11-.2-.15-.24a.75.75 0 0 0-.54-.2c-.2 0-.37.09-.5.25-.15.2-.2.4-.14.62.06.23.2.39.44.47.3.1.58.03.8-.24a.74.74 0 0 0 .07-.13c.06-.1.15-.17.3-.19a.5.5 0 0 1 .34.07c.08.05.13.1.14.17a1.71 1.71 0 0 0 2.37 1.21 1.77 1.77 0 0 0 .93-1.07A1.6 1.6 0 0 0 11.6 11a.61.61 0 0 1-.1-.29c0-.17.09-.3.25-.38a.35.35 0 0 1 .27-.04c.37.1.65.01.84-.27a.85.85 0 0 1 .2-.22c.17-.11.34-.1.5.02.04.03.1.1.18.22a.68.68 0 0 0 .62.29.68.68 0 0 0 .57-.38c.08-.17.1-.34.04-.52a.63.63 0 0 0-.32-.39.7.7 0 0 0-.94.26.65.65 0 0 1-.13.16c-.13.1-.26.13-.39.09a.6.6 0 0 1-.3-.26.7.7 0 0 0-.98-.23.67.67 0 0 0-.29.77Zm-.16 1.98c0 .74-.6 1.34-1.35 1.34a1.35 1.35 0 1 1 1.35-1.34Z" fill="#EF9569"/></svg>