<!-- by TradingView --><svg width="18" height="18" viewBox="0 0 18 18" xmlns="http://www.w3.org/2000/svg"><path fill="#F0F3FA" d="M0 0h18v18H0z"/><path d="M6.5 13H4c.56-.2.77-5.42 1-8h2.5c.1.7-.42 5.63-1 8Z" fill="url(#auu3kye2z)"/><path d="M13.22 9.29c.2 1.85.62 3.28.78 3.71h-2.5c-.5-.41-.7-5.5-1-8H13c.08.69.02 2.43.22 4.29Z" fill="url(#buu3kye2z)"/><path d="M7.5 13H10c.67 0 2.7-7.09 3-8h-2.5c-1.32 2.12-1.77 5.6-3 8Z" fill="url(#cuu3kye2z)"/><path d="M7.5 5H5c1.4 4.43 1.4 5.43 2.5 8H10c-.94-2.86-1.56-5.43-2.5-8Z" fill="url(#duu3kye2z)"/><path d="M4 13h2.5c.12-.48.24-1.08.34-1.72.18.53.39 1.08.66 1.72H10c.28 0 .67-.76 1.07-1.82.12.97.26 1.68.43 1.82H14c-.16-.43-.58-1.86-.78-3.71-.12-1.13-.15-2.2-.17-3.04 0-.54-.02-.98-.05-1.25h-2.5c-.74 1.19-1.19 2.7-1.64 4.24A70.19 70.19 0 0 0 7.5 5H5l-.16 2.13c-.19 2.6-.4 5.72-.84 5.87Z" fill="#ACADAF" fill-opacity=".3"/><defs><linearGradient id="auu3kye2z" x1="5.87" y1="5" x2="5.87" y2="13" gradientUnits="userSpaceOnUse"><stop stop-color="#898889"/><stop offset=".27" stop-color="#838385"/><stop offset=".49" stop-color="#A3A4A5"/><stop offset=".7" stop-color="#999B9C"/><stop offset="1" stop-color="#BFC1C2"/></linearGradient><linearGradient id="buu3kye2z" x1="12.13" y1="5" x2="12.13" y2="13" gradientUnits="userSpaceOnUse"><stop stop-color="#8D888A"/><stop offset=".38" stop-color="#B0AFB0"/><stop offset=".69" stop-color="#7F7F81"/><stop offset="1" stop-color="#C1C2C4"/></linearGradient><linearGradient id="cuu3kye2z" x1="10.16" y1="5" x2="10.16" y2="13" gradientUnits="userSpaceOnUse"><stop stop-color="#D2D2D2"/><stop offset=".22" stop-color="#A0A0A6"/><stop offset=".36" stop-color="#8B8B8F"/><stop offset=".61" stop-color="#5F5F61"/><stop offset=".82" stop-color="#AFAFB1"/><stop offset="1" stop-color="#C2C2C3"/></linearGradient><linearGradient id="duu3kye2z" x1="7.75" y1="5" x2="7.75" y2="13" gradientUnits="userSpaceOnUse"><stop stop-color="#A5A5A7"/><stop offset=".26" stop-color="#E6E6EA"/><stop offset=".46" stop-color="#6A6A6F"/><stop offset=".71" stop-color="#777779"/><stop offset="1" stop-color="#A5A5A7"/></linearGradient></defs></svg>