<!-- by TradingView --><svg width="18" height="18" viewBox="0 0 18 18" xmlns="http://www.w3.org/2000/svg"><path fill="#F0F3FA" d="M0 0h18v18H0z"/><path d="M4 5.08C4 4.48 4.5 4 5.12 4h7.76C13.5 4 14 4.48 14 5.08v7.84c0 .6-.5 1.08-1.12 1.08H5.12A1.1 1.1 0 0 1 4 12.92V5.08Z" fill="red"/><path fill-rule="evenodd" d="m4.83 4.45.13.4c1.35.05 3.2.82 3.2.82s-1.71-.36-3.06-.4l.13.4c.65.04 2.06.21 3.07.47-.76-.03-2.1-.07-2.98-.07l.18.45c.55-.02 1.47-.04 2.27.01a6.9 6.9 0 0 0-1.6 1.77 3.79 3.79 0 0 0-.24 3.55 3.3 3.3 0 0 0 3.09 1.88 3.3 3.3 0 0 0 3-1.88c.5-1.07.45-2.42-.25-3.55a6.88 6.88 0 0 0-1.58-1.75c.84-.08 1.8-.06 2.38-.03l.18-.45c-.96 0-2.39.06-3.08.1v-.01c1-.29 2.49-.45 3.18-.5l.13-.4c-1.35.05-2.97.4-2.97.4s1.75-.76 3.1-.8l.14-.41c-.83.04-2.5.36-4.17 1.34a10.01 10.01 0 0 0-4.25-1.34Zm6.36 7.02a2.9 2.9 0 0 0-.2-2.7 6.54 6.54 0 0 0-2.02-1.99c-.8.52-1.54 1.2-2.02 1.98a2.9 2.9 0 0 0-.2 2.71c.42.9 1.3 1.36 2.27 1.35a2.37 2.37 0 0 0 2.17-1.35Z" fill="#B3B3B3"/><path d="M4.72 4.37h.11c.84.04 2.6.37 4.25 1.33a9.78 9.78 0 0 1 4.17-1.32h.1l-.18.55h-.05a7.95 7.95 0 0 0-2.15.48c.58-.1 1.33-.2 2-.22h.12l-.19.55h-.05c-.53.04-1.53.14-2.42.31.72-.02 1.64-.05 2.32-.05h.12l-.25.6h-.05c-.55-.03-1.4-.05-2.18 0a6.83 6.83 0 0 1 1.45 1.66c.7 1.16.76 2.53.25 3.62a3.37 3.37 0 0 1-3.07 1.92 3.38 3.38 0 0 1-3.16-1.92 3.86 3.86 0 0 1 .24-3.62c.4-.64.9-1.2 1.47-1.66-.74-.04-1.56-.03-2.06 0h-.06L5.21 6h.11c.6 0 1.44.01 2.14.03-.84-.15-1.75-.26-2.23-.29h-.05l-.19-.56h.11a17.32 17.32 0 0 1 2.2.25l-.25-.08a8.5 8.5 0 0 0-2.09-.42h-.05l-.19-.56Zm3.44 1.3-.01.07h-.02l-.06-.02a20.03 20.03 0 0 0-2.87-.38l.09.26c.67.04 2.03.21 3.02.47l-.02.14c-.72-.03-1.99-.06-2.86-.06l.12.3a21 21 0 0 1 2.22 0l.2.02-.16.12a6.82 6.82 0 0 0-1.58 1.75A3.71 3.71 0 0 0 6 11.82a3.23 3.23 0 0 0 3.03 1.83 3.22 3.22 0 0 0 2.93-1.83 3.71 3.71 0 0 0-.24-3.48 6.8 6.8 0 0 0-1.56-1.73L10 6.49l.19-.02a18.6 18.6 0 0 1 2.33-.02l.12-.3c-.95 0-2.3.06-2.96.09h-.03l-.16-.11.16-.05c.99-.28 2.43-.44 3.14-.48l.08-.26a16.4 16.4 0 0 0-2.77.38l-.06.02h-.01L10 5.67l-.03-.07.02-.01a6.27 6.27 0 0 1 .28-.11c.18-.08.45-.17.75-.27.6-.2 1.36-.4 2.03-.43l.08-.25c-.85.06-2.44.4-4.02 1.32l-.04.03-.03-.03a10.05 10.05 0 0 0-4.12-1.32l.09.25c.67.03 1.45.23 2.07.43a15.5 15.5 0 0 1 1.08.38h.01l-.02.08Zm1.85 0-.03-.07.04.14-.01-.07Zm-1.85 0 .03-.07-.04.14.01-.07Zm.81 1.02.04.03c.8.52 1.56 1.2 2.05 2 .55.91.58 1.97.2 2.78a2.44 2.44 0 0 1-2.24 1.4c-.99 0-1.9-.48-2.33-1.4a2.97 2.97 0 0 1 .2-2.77 6.62 6.62 0 0 1 2.04-2.01l.04-.03Zm0 .18c-.77.51-1.5 1.17-1.96 1.93a2.82 2.82 0 0 0-.19 2.64c.4.86 1.26 1.32 2.2 1.3a2.3 2.3 0 0 0 2.1-1.3c.36-.77.33-1.77-.2-2.64a6.44 6.44 0 0 0-1.95-1.93Z"/><path d="m8.21 12.67.08.13h-.01l-.02.02a2.4 2.4 0 0 1-.38.17c-.25.1-.59.18-.94.18v-.15a2.6 2.6 0 0 0 1.25-.33l.02-.01ZM11.5 11.89a1.84 1.84 0 0 0-.25-.68l.13-.08c.14.21.22.48.27.73.04.25.05.5.05.65h-.15c0-.15 0-.38-.05-.62ZM10.7 8.44l.06-.14.04.02a3.76 3.76 0 0 1 .46.26c.3.18.69.45 1.05.82l-.1.1a5.65 5.65 0 0 0-1.48-1.05h-.02l-.01-.01ZM9.34 5.92c.18-.11.49-.26.64-.32l.06.14c-.15.05-.45.2-.62.3l-.08-.12ZM10.9 7.3a6.03 6.03 0 0 0-2.7-1.1l.02-.15c1 .14 2.18.63 2.78 1.14l-.1.11Z"/><path d="M10.18 6.67c-.2-.18-.93-.69-1.2-.85l.08-.13c.27.17 1 .68 1.22.86l-.1.12ZM8.27 6.65a4.93 4.93 0 0 0-.7-.05v-.15c.17 0 .44 0 .72.05.28.04.57.12.77.25l-.09.12a1.84 1.84 0 0 0-.7-.22Z"/><path d="M9.4 6.3C8.84 6 8.3 5.77 8 5.7l.05-.15c.3.1.86.32 1.42.6.56.3 1.13.63 1.45.95l-.11.1c-.3-.3-.85-.62-1.41-.9ZM10.09 7.2a5.05 5.05 0 0 0-1.35-.42l.01-.15c.28.02.83.18 1.4.43s1.17.6 1.58 1.03l-.11.1a5 5 0 0 0-1.53-1ZM12.26 10.76a3.34 3.34 0 0 0-.9-.84l.08-.13c.37.23.76.6.95.89l-.13.08ZM10.38 12.87c.06-.23.1-.45.1-.58h.14c0 .15-.03.38-.09.61-.06.23-.14.48-.23.64l-.13-.07c.08-.15.16-.38.21-.6ZM7.21 12.03l.01.15h-.13c-.07 0-.18 0-.31-.03-.26-.05-.61-.15-.96-.38l.08-.13a2.38 2.38 0 0 0 1.3.4h.01ZM6.67 11.05l-.08.13h-.01l-.02-.02a2.64 2.64 0 0 1-.37-.3c-.21-.21-.48-.51-.66-.88l.13-.07a3.09 3.09 0 0 0 .98 1.13l.02.01h.01ZM9.35 12.75l.14.06v.01a1.76 1.76 0 0 1-.22.36c-.14.2-.36.45-.67.62l-.07-.14a1.89 1.89 0 0 0 .77-.8l.04-.08.01-.02ZM7.42 7.36c-.05.31-.1.7-.13 1.01h-.15a12.81 12.81 0 0 1 .22-1.55v-.04l.15.03v.04a19.09 19.09 0 0 0-.1.5ZM8.31 7.02c-.04.14-.07.28-.07.36h-.15a2.83 2.83 0 0 1 .23-.8l.13.07c-.04.08-.1.22-.14.37ZM6.39 8.1c-.05.62.1 1.2.24 1.64l-.14.05a4.72 4.72 0 0 1-.25-1.7l.15.01Z"/><path d="M11.18 10.26a2.2 2.2 0 1 1-4.42 0 2.2 2.2 0 0 1 4.42 0Z" fill="#fff"/><path d="M8.97 8.13a2.13 2.13 0 1 0 0 4.26 2.13 2.13 0 0 0 0-4.26ZM6.7 10.26a2.28 2.28 0 1 1 4.56 0 2.28 2.28 0 0 1-4.56 0Z"/><path d="M7.42 10.45A2.44 2.44 0 0 1 8.89 8l.07.13a2.29 2.29 0 0 0-1.4 2.32c.08.88.61 1.7 1.39 1.96l-.05.14c-.84-.28-1.4-1.16-1.48-2.09ZM10.53 10.45A2.44 2.44 0 0 0 9.05 8l-.07.13a2.29 2.29 0 0 1 1.4 2.32c-.07.88-.61 1.7-1.39 1.96l.05.14c.85-.28 1.41-1.16 1.49-2.09Z"/><path d="M8.9 12.47V8.05h.15v4.42H8.9Z"/><path d="M11.18 10.34H6.76v-.15h4.42v.15ZM10.9 9.2c-1.17.57-2.69.5-3.85 0l.06-.13a4.7 4.7 0 0 0 3.72 0l.07.13ZM7.05 11.35a4.85 4.85 0 0 1 3.84 0l-.06.14a4.7 4.7 0 0 0-3.72 0l-.06-.14Z"/></svg>