<!-- by TradingView --><svg width="18" height="18" viewBox="0 0 18 18" xmlns="http://www.w3.org/2000/svg"><path fill="#F0F3FA" d="M0 0h18v18H0z"/><path d="M4.03 13h9.94a.03.03 0 0 0 .03-.02v-.03L9.03 4.02 9 4a.03.03 0 0 0-.04.02L4 12.95a.03.03 0 0 0 0 .03l.02.02h.01Zm9.46-.34c.01.01 0 .05-.03.05H4.53l-.01-.02H4.5a.03.03 0 0 1 0-.03l4.47-8.04V4.6a.03.03 0 0 1 .04 0l4.47 8.05Zm-8.74-.07h8.52v-.02a.03.03 0 0 0 0-.03L9.04 4.89H9a.03.03 0 0 0-.04 0l-4.25 7.65a.03.03 0 0 0 .01.04h.02Zm4.2-6.03-.01.01-.28 1.03h-.01l-.02.01-.97.01h-.01l-.01-.01a.03.03 0 0 1 0-.03l1.33-2.41.01-.01a.03.03 0 0 1 .04 0l1.34 2.42a.03.03 0 0 1-.01.04H9.34l-.02-.02L9 6.57l-.01-.02a.03.03 0 0 0-.03 0Zm.33 1.17h.86v.05l-.67.5h-.01v.03l.26.8v.04a.03.03 0 0 1-.04 0l-.66-.5a.03.03 0 0 0-.04 0l-.66.5a.03.03 0 0 1-.03 0l-.01-.01v-.02l.26-.8v-.03l-.01-.01-.68-.5v-.05h.86l.01-.01.24-.82.02-.02a.03.03 0 0 1 .03 0l.01.02.25.81v.02Zm-2.4 3.13-.72.83c-.03.03-.02.04.02.04l1.03-.24c.03 0 .05 0 .07.04l.48.86a.04.04 0 0 1-.01.05H4.98a.03.03 0 0 1-.02-.01.03.03 0 0 1 0-.03l2.59-4.65c.01-.03.03-.03.06-.02l.8.58.02.02v.02l-.29.9a1.1 1.1 0 0 1-.21.39 199.73 199.73 0 0 1-.59.66h-.02l-.84-.42c-.07-.04-.1-.02-.05.06l.45.86.01.03-.01.03Zm3.89.66 1.06.18s.01 0 0 0v-.01l-.7-.82a.09.09 0 0 1 0-.1l.46-.84c.03-.05.02-.06-.03-.04l-.9.4h-.02l-.02-.01-.54-.63c-.1-.12-.18-.26-.23-.4a36.97 36.97 0 0 1-.27-.9l.02-.02.8-.6h.02a.02.02 0 0 1 .02 0l2.6 4.67a.03.03 0 0 1 0 .03.03.03 0 0 1-.03.01h-2.74c-.04 0-.05-.02-.03-.05l.47-.84.02-.03h.04Zm-.62.92a1103.49 1103.49 0 0 1-2.33-.03l.06-1.02c0-.02 0-.04.02-.06a.08.08 0 0 1 .05-.03l.95-.2c.07 0 .08-.03 0-.06l-.9-.42c-.03 0-.05-.03-.04-.07l.18-1.08c0-.02.01-.05.04-.07a51.53 51.53 0 0 1 .84-.64c.25.2.51.4.8.65.03.02.04.04.05.07l.17 1.07c0 .04 0 .06-.04.08l-.9.4c-.08.04-.07.06 0 .08l.95.2c.02 0 .04.01.05.03l.02.05.06 1.03c0 .02 0 .02-.03.02Zm-2.27-1.77v.01l.75.33.01.01a.03.03 0 0 1 0 .03l-.02.01-.79.16h-.01v.03l-.08.83v.01l-.02.01H7.7v-.01l-.4-.73-.01-.01h-.02l-.78.18h-.02v-.01a.03.03 0 0 1 0-.04l.54-.6a.03.03 0 0 0 0-.04l-.4-.71a.03.03 0 0 1 0-.04h.03l.73.35h.03l.53-.63.01-.01h.02v.01l.01.02-.1.83v.01Zm2.74-.22h.03l.71-.38h.05a.04.04 0 0 1 0 .06l-.43.7a.05.05 0 0 0 0 .05l.58.6v.05l-.02.01h-.02l-.78-.2h-.03s-.02 0-.02.02l-.37.74-.01.02a.04.04 0 0 1-.05-.01l-.01-.03-.05-.83-.01-.03-.02-.01-.8-.13-.02-.01-.01-.03v-.03l.02-.02.75-.3c.01 0 .02 0 .02-.02v-.02l-.12-.83V9.8l.03-.01h.05l.5.65.03.02Z" fill="#660233"/></svg>