<!-- by TradingView --><svg width="18" height="18" viewBox="0 0 18 18" xmlns="http://www.w3.org/2000/svg"><path fill="#F0F3FA" d="M0 0h18v18H0z"/><path fill-rule="evenodd" d="M6 4c-1.1 0-2 .94-2 2.1v5.8c0 .78.4 1.45 1 1.82V7.86l2-1.48V14h5c1.1 0 2-.94 2-2.1V6.1c0-1.16-.9-2.1-2-2.1H6Zm4.5 6.82L9 8.25V5.56l1.5-1.29v6.55Zm-3-4.5v3.87l1.6 2.97 1.4-1.5h-.23L7.5 6.32Zm3.48 3.25V8.33h1.6l-1.43 1.34-.17-.1ZM11 6.18V4.67h1c.83 0 1.5.42 1.5 1.58 0 .93-.64 1.55-.96 1.75h-.69c.8-1.44-.23-1.81-.85-1.82Z" fill="#014A8E"/></svg>