<!-- by TradingView --><svg width="18" height="18" viewBox="0 0 18 18" xmlns="http://www.w3.org/2000/svg"><path fill="#F0F3FA" d="M0 0h18v18H0z"/><path fill-rule="evenodd" d="M13.88 11c-.8 1.77-2.6 3-4.72 3A5.08 5.08 0 0 1 4 9c0-2.76 2.3-5 5.16-5a5.2 5.2 0 0 1 4.12 2h-.83a4.5 4.5 0 0 0-.45-.4V6H7.62v1h4.57c1 0 1.81.8 1.81 1.79v1.65h-.63V8.72c0-.58-.52-1.1-1.1-1.1H4.84c-.14.44-.22.9-.22 1.38H10V7.75h.63V9H13v.63h-2.38V10H13v.63h-1.06V11h1.94Zm-1.1.63a4.58 4.58 0 0 1-5.15 1.49v-2.5H11V11H8v.63h4.78Zm-2.78-2V10H7.62v-.38H10Zm-3 0V10H4.74a4.22 4.22 0 0 1-.07-.38H7Zm0 3.22a4.45 4.45 0 0 1-2.05-2.22H7v2.22ZM7 6v1H5.13c.2-.37.44-.7.73-1H7Zm.63-.63v-.12H7v.13h-.38a4.62 4.62 0 0 1 5.07 0H7.63ZM6.8 8H4.94v.63H6.8V8Zm.63 0H9.3v.63H7.44V8Zm5.43 0H11v.63h1.88V8Z" fill="#E60012"/></svg>