<!-- by TradingView --><svg width="18" height="18" viewBox="0 0 18 18" xmlns="http://www.w3.org/2000/svg"><path fill="#F0F3FA" d="M0 0h18v18H0z"/><path d="M4.34 11H3.13c-.1 0-.16-.13-.11-.23l2-3.7a.13.13 0 0 1 .1-.07H6.5c.04 0 .08.03.1.07l1.23 2.36c.02.04.07.07.11.07h.29c.04 0 .08-.03.1-.07l1.23-2.36A.13.13 0 0 1 9.67 7H15l-.4.46a.12.12 0 0 1-.09.04h-1.16a.13.13 0 0 0-.12.08l-1.65 3.34a.13.13 0 0 1-.11.08h-1.43c-.1 0-.17-.12-.12-.22l1.51-3.06c.05-.1-.01-.22-.11-.22H10.1a.13.13 0 0 0-.11.07l-1.87 3.36a.13.13 0 0 1-.1.07h-.73a.13.13 0 0 1-.1-.07L5.95 8.57a.13.13 0 0 0-.11-.07h-.07a.13.13 0 0 0-.11.07l-1.22 2.36a.13.13 0 0 1-.11.07Z" fill="#008099"/></svg>