<!-- by TradingView --><svg width="18" height="18" viewBox="0 0 18 18" xmlns="http://www.w3.org/2000/svg"><path fill="#F0F3FA" d="M0 0h18v18H0z"/><path fill-rule="evenodd" d="m12.52 12.55.23-.25c.8-.9 1.25-2.08 1.25-3.27A2318.04 2318.04 0 0 0 13.99 4h-2.73l-.01.01v.51l-.01.01A4.99 4.99 0 0 0 4 8.98 2301.03 2301.03 0 0 0 4 14h2.73a.01.01 0 0 0 .01-.01v-.5a.01.01 0 0 1 .02-.02 4.99 4.99 0 0 0 5.76-.93Zm-5.27-1.17v-.88h4.15c.12 0 .23-.04.32-.1a.6.6 0 0 0 .16-.87.66.66 0 0 0-.54-.26 2397.74 2397.74 0 0 1-4.1-.02l.01-.18v-.22a1.8 1.8 0 0 1 3.03-1.12c.07.05.13.13.18.2l.05.05c.08.1.18.16.29.2.34.12.7-.07.8-.41a.6.6 0 0 0-.1-.54 4.24 4.24 0 0 0-.55-.57A3.05 3.05 0 0 0 6 9.16v2.06c0 .16 0 .27.03.33a.62.62 0 0 0 1.22-.17Z" fill="#0073B9"/></svg>