<!-- by TradingView --><svg width="18" height="18" viewBox="0 0 18 18" xmlns="http://www.w3.org/2000/svg"><path fill="#F0F3FA" d="M0 0h18v18H0z"/><path fill-rule="evenodd" d="M12.58 8.87c.97.34 1.37.97 1.2 1.87-.08.5-.33.94-.72 1.3-.4.37-.86.61-1.37.72a8.9 8.9 0 0 1-1.84.23L4.12 13l-.05-.01a.12.12 0 0 1-.04-.04.14.14 0 0 1-.03-.1l1.3-7.7c0-.04.02-.08.05-.1a.17.17 0 0 1 .1-.05h5.7c.8 0 1.99.16 2.54.88s.32 1.68-.34 2.25a3.7 3.7 0 0 1-.78.51c-.18.09-.17.16 0 .23ZM8 6.78l.01-.03.04-.02h1.57c.22 0 .43.02.61.15.08.06.14.12.18.2.04.06.07.14.07.22v.1c0 .07-.02.15-.06.22a.62.62 0 0 1-.18.2c-.16.11-.39.18-.59.18H8.04a.05.05 0 0 1-.02-.02v-.02L8 6.78ZM7.69 9.6v.03l-.02 1.47.01.04c.01.01.04.04.06.04h1.5c.17 0 .34-.01.5-.05.15-.04.3-.09.41-.16a.88.88 0 0 0 .29-.24c.06-.09.1-.18.1-.28v-.1c0-.2-.13-.39-.37-.53a1.87 1.87 0 0 0-.91-.25H7.72l-.02.02-.01.01Z" fill="#265AA6"/></svg>