<!-- by TradingView --><svg width="18" height="18" viewBox="0 0 18 18" xmlns="http://www.w3.org/2000/svg"><path fill="#F0F3FA" d="M0 0h18v18H0z"/><path d="M2 8.99C2 7.89 2.89 7 3.99 7h1.66v1H4a1 1 0 1 0 0 2h1.65v.97H4c-1.1 0-1.99-.89-1.99-1.98ZM12.35 9c0-1.1.9-2 2-2H16v1h-1.6a1 1 0 0 0 0 2H16v1h-1.65a2 2 0 0 1-2-2Zm-6.7 0c0-1.1.9-2 2-2H9.3v1H7.76a1 1 0 0 0-.89.54H9v.92H6.87a1 1 0 0 0 .89.54H9.3v1H7.65a2 2 0 0 1-2-2Zm3.96-2h1.66c.43 0 .73.34.73.77V11h-1V8.19c0-.17-.31-.19-.48-.19H9.6V7Z" fill="url(#apclavzug)"/><path d="M12 6.57 13 6v.9l-1 .57v-.9Z" fill="url(#bpclavzug)"/><defs><linearGradient id="apclavzug" x1="9.78" y1="11" x2="9.78" y2="7" gradientUnits="userSpaceOnUse"><stop stop-color="#E6450B"/><stop offset="1" stop-color="#AB2D31"/></linearGradient><linearGradient id="bpclavzug" x1="13" y1="6.19" x2="11.86" y2="7.16" gradientUnits="userSpaceOnUse"><stop stop-color="#910D84"/><stop offset=".53" stop-color="#601B86"/><stop offset="1" stop-color="#339ADB"/></linearGradient></defs></svg>