<!-- by TradingView --><svg width="18" height="18" viewBox="0 0 18 18" xmlns="http://www.w3.org/2000/svg"><path fill="#F0F3FA" d="M0 0h18v18H0z"/><path d="M6.65 6.9a4.33 4.33 0 0 1-1.22-.4.08.08 0 0 0-.05.03 3.5 3.5 0 0 0-.48 1 .11.11 0 0 1-.1.08c-.14.02-.27.03-.4.02-.1-.01-.12-.06-.1-.14 1.18-3.25 5-4.6 7.72-2.45.8.63 1.36 1.46 1.7 2.46.02.08-.01.13-.1.13h-.35c-.08 0-.13-.05-.15-.13a3.3 3.3 0 0 0-.49-.97.09.09 0 0 0-.1-.02c-.39.19-.77.32-1.16.4-.04 0-.06.03-.05.07.01.17.05.35.12.5.03.1 0 .14-.09.14l-.33.01c-.1 0-.15-.04-.17-.14l-.06-.35c-.01-.05-.04-.06-.09-.05a7.61 7.61 0 0 1-3.39 0c-.04-.01-.07 0-.08.05l-.05.32c-.02.12-.1.17-.2.17h-.29c-.1 0-.14-.06-.1-.17.06-.16.1-.32.11-.48 0-.04-.02-.07-.05-.07Zm4.02-1.87c.05-.01.05-.04.03-.07a.5.5 0 0 0-.24-.17 4.33 4.33 0 0 0-2.93 0 .4.4 0 0 0-.2.16c-.03.04-.02.06.02.07 1.1.25 2.2.25 3.32 0Zm-4.11.28a.05.05 0 0 0-.05.01l-.69.63A.05.05 0 0 0 5.8 6a.05.05 0 0 0 .04.03l1.02.4h.04l.02-.01.42-.82a.05.05 0 0 0-.01-.06h-.02l-.75-.23Zm5.64.72a.03.03 0 0 0 .02-.02.03.03 0 0 0-.01-.03l-.7-.68a.03.03 0 0 0-.04-.01l-.76.25a.03.03 0 0 0-.02.04l.43.84.01.02h.03l1.04-.4Zm-4.7.38c-.07.1-.04.17.08.2.97.13 1.91.13 2.83-.01.1-.02.13-.07.08-.16l-.3-.6c-.04-.09-.1-.13-.2-.12-.64.08-1.26.08-1.88 0-.05 0-.1 0-.15.03a.29.29 0 0 0-.12.1l-.34.56ZM9.52 9.36a.07.07 0 0 0 0-.06l-.03-.02h-.02l-.42-.03c-.08 0-.11-.05-.1-.13v-.09c0-.06.04-.1.1-.1h.99c.06 0 .1.04.1.11a4.5 4.5 0 0 1-.03.95h-.05l-.5-.08h-.1c-.42.14-1.32.17-1.52-.4-.16-.46-.17-1.12.33-1.34a1.65 1.65 0 0 1 1.56.05c.13.08.22.18.28.31.03.07 0 .11-.06.13-.16.04-.32.04-.47.01a.13.13 0 0 1-.06-.02.14.14 0 0 1-.04-.05c-.15-.3-.56-.26-.8-.17-.35.15-.37.79-.1 1.03.24.22.5.24.8.08.07-.04.12-.1.14-.18ZM12.62 9.77a.3.3 0 0 0 .13.1c.05.03.06.07 0 .1-.17.14-.35.05-.5-.05a.12.12 0 0 0-.1-.01c-.8.2-1.89.06-1.77-1.11.1-1.14 2.8-1.1 2.45.41-.04.17-.16.3-.22.47a.09.09 0 0 0 0 .09Zm-.93-.43a.1.1 0 0 1 .02-.08l.03-.03h.04l.4.07a.05.05 0 0 0 .04-.01l.01-.02v-.02c.04-.26.01-.49-.07-.68a.18.18 0 0 0-.09-.09c-.3-.15-.61-.14-.94 0a.13.13 0 0 0-.07.08c-.18.48-.05 1.18.59 1.08.1-.01.12-.07.1-.17l-.06-.13ZM3.07 9.4c-.14.27-.32.63-.66.6h-.36c-.06 0-.07-.02-.03-.07.26-.3.42-.66.72-.93.03-.03.03-.05 0-.08l-.6-.81c-.06-.07-.04-.11.04-.1L2.63 8c.04 0 .07.01.1.03.03.02.06.04.08.08l.25.33.02.03a.07.07 0 0 0 .07 0l.02-.02.24-.3A.39.39 0 0 1 3.69 8h.35c.1 0 .12.04.05.13l-.56.74a.08.08 0 0 0 0 .1l.67.93c.05.07.04.1-.04.1h-.42c-.13 0-.23-.09-.3-.2l-.28-.4c-.03-.06-.06-.05-.09 0ZM5.9 8.95v.94c0 .04 0 .1-.05.11h-.47c-.03 0-.07-.08-.07-.1V8.1a.1.1 0 0 1 .02-.06l.02-.02.03-.02h.44c.04 0 .07.04.1.07l.43.48c.16.18.26.4.43.57h.03l.01-.02v-.9c0-.1 0-.2.08-.2h.38c.09 0 .13.04.13.14v1.75c0 .08-.04.12-.12.1-.2 0-.51.02-.63-.19a3.3 3.3 0 0 0-.7-.89c-.05-.04-.07-.02-.07.04ZM14.91 9.65h.17c.22 0 .31-.13.31-.38V8.1c0-.06.04-.1.1-.1h.42c.06 0 .09.04.09.1v1.02c0 .18-.02.35-.06.49-.14.47-1.07.42-1.42.34-.46-.1-.53-.37-.52-.83V8.06a.1.1 0 0 1 .02-.03l.03-.02.03-.01h.43c.06 0 .08.04.08.1v1.17c0 .25.1.38.32.38ZM4.82 9.9a.1.1 0 0 1-.02.07l-.03.02-.03.01h-.36c-.05 0-.08-.05-.1-.1a5.88 5.88 0 0 1 .03-1.8c.01-.06.05-.1.1-.1H4.8l.03.03.01.04a4.66 4.66 0 0 0-.03 1.83ZM13.22 9.87c.09-.54.08-1.17-.04-1.71-.02-.09 0-.16.09-.16h.32c.09 0 .13.04.15.13.07.6.09 1.17.04 1.73 0 .04-.02.07-.04.1a.13.13 0 0 1-.1.04h-.32c-.08 0-.11-.04-.1-.13ZM10.8 10.83l.14-.58c0-.03.02-.06.05-.08a.14.14 0 0 1 .09-.03l.3.01c.11 0 .15.06.12.17l-.22.66a.07.07 0 0 0 .04.09 8.44 8.44 0 0 1 1.26.42.1.1 0 0 0 .06-.04c.26-.39.46-.8.6-1.2.01-.07.05-.1.12-.1h.35c.09 0 .12.05.08.13-.52 1.37-1.46 2.75-2.67 3.27-1.36.58-2.73.6-4.09.06-1.39-.56-2.33-1.93-2.8-3.33-.02-.08.01-.12.1-.12h.38l.09.03.05.08c.1.4.25.78.47 1.15.02.04.05.06.09.08l.11-.01c.35-.16.73-.3 1.12-.4.02 0 .04-.02.05-.04a.1.1 0 0 0 .01-.07l-.16-.69c-.02-.09.01-.14.1-.14h.31c.1 0 .17.06.2.17l.08.49c0 .02.01.04.03.05l.06.02a10.6 10.6 0 0 1 3.4 0c.04.01.07 0 .08-.05Zm-.27.62a9.02 9.02 0 0 0-2.97-.02c-.1.02-.12.07-.07.15l.38.61c.04.08.11.11.2.1a9.12 9.12 0 0 1 2.05 0c.17-.27.3-.55.4-.84Zm-4.66.5a.08.08 0 0 0-.05.06.09.09 0 0 0 .03.08l.7.6a.08.08 0 0 0 .08 0l.63-.25a.08.08 0 0 0 .04-.04.09.09 0 0 0 0-.07l-.37-.74a.08.08 0 0 0-.05-.04h-.05l-.96.4Zm5.56.79a.03.03 0 0 0 .04 0l.75-.72V12a.03.03 0 0 0-.01-.04l-1.04-.43a.03.03 0 0 0-.04.02l-.4.81v.04l.7.33Zm-.8.29a6 6 0 0 0-3.26 0c-.11.04-.11.08 0 .1.36.1.7.26 1.06.32.55.07 1.17.06 1.7-.14.15-.06.32-.11.5-.15.14-.04.14-.08 0-.13Z" fill="#BE2A22"/></svg>