<!-- by TradingView --><svg width="18" height="18" viewBox="0 0 18 18" xmlns="http://www.w3.org/2000/svg"><path fill="#181B1E" d="M0 0h18v18H0z"/><path d="M3 7.62A6.33 6.33 0 0 1 5.56 7C7.11 7 8 7.66 8 8.96V12H7V8.84C7 8.34 6.19 8 5.6 8c-.4 0-1.14.1-1.6.3V12H3V7.62ZM11 7V6h1V5h1v1h1v1h-1v3.56c0 .44.5.44.94.44H14v.86c0 .14-.13.14-.5.14-1.18 0-1.5-.57-1.5-1.67V7h-1ZM9.13 11.13c.09-.09.21-.13.38-.13.15 0 .27.05.36.14.09.1.13.21.13.36 0 .14-.04.26-.13.36-.09.1-.21.14-.36.14-.17 0-.29-.05-.38-.14A.51.51 0 0 1 9 11.5c0-.15.04-.27.13-.37ZM9.5 7c-.16 0-.28.05-.37.14A.5.5 0 0 0 9 7.5c0 .15.04.27.13.36.09.1.21.14.38.14.15 0 .27-.05.36-.14A.5.5 0 0 0 10 7.5a.5.5 0 0 0-.13-.36A.47.47 0 0 0 9.5 7ZM15.13 7.14c.09-.1.21-.14.38-.14.15 0 .27.05.36.14.09.1.13.21.13.36a.5.5 0 0 1-.13.36c-.09.1-.21.14-.36.14-.17 0-.29-.05-.38-.14A.5.5 0 0 1 15 7.5a.5.5 0 0 1 .13-.36ZM15.5 11c-.16 0-.28.04-.37.13a.5.5 0 0 0-.13.36c0 .13.04.24.11.33.08.09.17.14.3.16 0 .11-.04.23-.12.36a.82.82 0 0 1-.28.28V13c.29-.07.53-.25.71-.54.19-.28.28-.6.28-.96a.51.51 0 0 0-.13-.36c-.08-.1-.2-.14-.36-.14Z" fill="#F0F3FA"/></svg>