<!-- by TradingView --><svg width="18" height="18" viewBox="0 0 18 18" xmlns="http://www.w3.org/2000/svg"><path fill="#F0F3FA" d="M0 0h18v18H0z"/><path d="M4 5.99 9.01 3 14 5.99v5.98L9.01 15 4 11.97V5.99Z" fill="url(#aecrhbekr)"/><path d="M4 5.99 9.01 3 14 5.99v5.98L9.01 15 4 11.97V5.99Z" fill="url(#becrhbekr)" fill-opacity=".2"/><path d="M14 8.97v3l-3.12 1.9-2.21.15.77-.9-2.5-2 .75-.4-.6-1.45 1.45.43v-.9l1.63 1.26-.73-2.5.92.38.98-2.55 1.04 2.55 1-.39-.76 2.5L14 8.98Z" fill="url(#cecrhbekr)"/><defs><linearGradient id="aecrhbekr" x1="8.31" y1="3" x2="10.41" y2="14.39" gradientUnits="userSpaceOnUse"><stop stop-color="#0E66A6"/><stop offset=".56" stop-color="#05253E"/><stop offset="1" stop-color="#0C4169"/></linearGradient><linearGradient id="becrhbekr" x1="14" y1="8.78" x2="4" y2="8.98" gradientUnits="userSpaceOnUse"><stop offset=".09" stop-color="#166EA9"/><stop offset=".51" stop-color="#89CDFF"/><stop offset=".93" stop-color="#155E93"/></linearGradient><linearGradient id="cecrhbekr" x1="8.38" y1="6.35" x2="12.55" y2="13.12" gradientUnits="userSpaceOnUse"><stop stop-color="#EDF8EE"/><stop offset=".51" stop-color="#818189"/><stop offset="1" stop-color="#A0A09D"/></linearGradient></defs></svg>