<!-- by TradingView --><svg width="18" height="18" viewBox="0 0 18 18" xmlns="http://www.w3.org/2000/svg"><path fill="#F0F3FA" d="M0 0h18v18H0z"/><path d="M9.76 4.03c.06.1.13.2.21.26.39.4.62.85.71 1.38l-.27-.03a.73.73 0 0 0-.31-.1 3.3 3.3 0 0 0-.72-1.23.13.13 0 0 0-.1-.04 3.95 3.95 0 0 0-3.15.89c-.02.02-.02.04.01.05l.05.02c-.05.04-.06.08-.04.12 0 .03 0 .06-.03.08-.02.01-.05.02-.09.01C6 5.44 6 5.42 6 5.4s0-.03-.02-.04c-.03-.02-.06-.01-.07.03-.02.04 0 .08.03.1.02 0 .03.02.03.05 0 .1-.07.15-.18.18l-.27.13c-.14.07-.17.04-.08-.08.04-.07.06-.18.05-.34a4.88 4.88 0 0 1 2.7-1.4c.26-.04.8-.04 1.58 0Z" fill="#6BCEEF"/><path d="M13.69 7.25a5.42 5.42 0 0 1-1.25 2.63l-.38-.67c-.02-.04-.02-.07.02-.1l.08-.05.15-.13c.4-.48.33-.91-.18-1.31l-.5-.18-.45-.04c.09.02.17 0 .24-.04l.2-.13c.5-.2 1-.38 1.52-.53.03 0 .03-.02.02-.05a4.58 4.58 0 0 0-3.19-2.36.88.88 0 0 1-.21-.26 4.99 4.99 0 0 1 3.93 3.22Z" fill="#0079C0"/><path d="M10.1 5.54c-.18.15-.42.17-.72.04a1.34 1.34 0 0 0-.9-.93 1.6 1.6 0 0 0-1.05.04c-.42.15-.66.4-.71.75l-.1.03a.17.17 0 0 1-.1-.01c-.07-.03-.13-.01-.18.05-.02.03-.05.03-.08 0a.11.11 0 0 1-.04-.04.05.05 0 0 1 0-.06.05.05 0 0 1 .07-.02c.14.05.23-.02.28-.2 0-.04 0-.06-.03-.09a.08.08 0 0 0-.1 0l-.25.13-.05-.02c-.03-.01-.03-.03 0-.05a3.95 3.95 0 0 1 3.24-.85c.33.36.57.77.72 1.23Z" fill="#9BD6F0"/><path d="M11.18 7.4c-.04 0-.08 0-.13.04l-.3-.04c-.05 0-.06-.03-.05-.06l.16-.9a.42.42 0 0 0 .15-.12c.05-.06.1-.09.17-.1l.07.01c.04.02.05.05.03.1-.1.2-.08.4.05.6.03.04.04.04.06 0a.7.7 0 0 0-.03-.5.1.1 0 0 1 .01-.1.1.1 0 0 1 .09-.06c.11 0 .18-.07.22-.2a.15.15 0 0 0 0-.1c-.03-.04-.03-.07-.03-.1 0-.04.03-.06.08-.05.07.02.1.01.12-.01.02-.03 0-.06-.03-.07l-.47-.16a.15.15 0 0 0-.12 0 .98.98 0 0 1-.55.09 2.5 2.5 0 0 0-.7-1.38 4.58 4.58 0 0 1 3.18 2.36c.01.03 0 .04-.02.05-.52.15-1.02.33-1.52.53l-.2.12a.37.37 0 0 1-.24.05Z" fill="#00B4E2"/><path d="M9.38 5.58a.51.51 0 0 1-.22-.08.12.12 0 0 0-.1-.01l-.28.07c-.03 0-.04 0-.03-.04.01-.03.03-.04.05-.03.09 0 .15-.04.2-.13.02-.04 0-.07-.03-.08l-.2-.07a.08.08 0 0 0-.1.03c-.06.06-.14.07-.25.04-.1-.03-.22-.01-.34.07a.1.1 0 0 1-.1 0c-.06-.02-.11 0-.13.07v.02c-.02.1-.03.17-.05.2-.03.02-.04.02-.05-.02l.01-.07c.01-.04 0-.07-.04-.09a.1.1 0 0 0-.08-.01.1.1 0 0 0-.08.07.28.28 0 0 1-.26.2c-.05.05-.1.07-.13.05-.04-.02-.04-.05 0-.07l.33-.19a.07.07 0 0 0 .04-.07.1.1 0 0 0-.01-.05c-.02-.03-.05-.03-.07-.01-.22.17-.47.19-.74.06.05-.35.29-.6.7-.75a1.6 1.6 0 0 1 1.07-.04c.44.15.74.46.89.93Z" fill="#B6DEF2"/><path d="M6.72 5.44c.27.13.52.1.74-.06.02-.02.05-.02.07.01v.05c0 .03 0 .06-.03.07l-.33.2c-.04.01-.04.04 0 .06.03.02.08 0 .13-.05.14.57.33 1.1.59 1.62a.1.1 0 0 0 .09.06h.47c.07 0 .13.03.16.1l-.05.03c0-.02-.01-.04-.03-.05a18.14 18.14 0 0 1-1.35-.02c-.04 0-.07.04-.09.13.12.1.3.17.52.22L7.6 9.37l-1.7-1.9a.5.5 0 0 1-.08-.32c.18-.11.2-.18.07-.22l-.1-1.2c.11-.04.17-.1.18-.2a.05.05 0 0 0-.03-.05c-.04-.01-.05-.05-.03-.1.01-.03.04-.04.07-.02L6 5.4c0 .02.02.04.04.04l.09-.01c.03-.02.04-.05.03-.08-.02-.04 0-.08.04-.12l.26-.14a.08.08 0 0 1 .09.01c.02.03.03.05.03.09-.05.18-.14.25-.28.2-.03 0-.05 0-.06.02a.05.05 0 0 0 0 .06c0 .02.01.03.03.04.03.03.06.03.08 0 .05-.06.11-.08.17-.05.04.01.08.02.11 0l.1-.02Z" fill="#00AADC"/><path d="M7.18 5.26c.1-.05.19-.11.17-.14-.01-.04-.11-.02-.22.03s-.2.12-.18.15c.01.03.11.01.23-.04Z" fill="#9BD6F0"/><path d="M9.38 5.58c.3.13.54.11.72-.04.13.02.23.05.3.1l.04.79-.26.36c-.02.03-.02.07.02.1.05.04.12.05.2.03.04-.01.06 0 .06.05l-.07.46c-.13.04-.33.05-.6.04-.04 0-.07.02-.08.07-.04.02-.03.05.03.08.01.05.06.09.13.12-.07.12-.08.23-.03.32l.03.07c0 .03 0 .06-.02.08-.04.05-.06.05-.06-.01-.01-.1-.05-.16-.1-.19a.32.32 0 0 1-.09-.1l-.25-.04c-.1 0-.17.03-.22.1-.02.05-.01.08.03.09l.18.01c.05.01.06.04.01.08-.05.05-.06.11-.03.17l-.88.57a.1.1 0 0 1-.1 0 .3.3 0 0 0-.1-.02l.04-.97c0-.04.02-.08.05-.1a.5.5 0 0 1 .22-.11.1.1 0 0 0 .08-.08.13.13 0 0 0-.02-.11.17.17 0 0 0-.16-.1h-.47a.1.1 0 0 1-.1-.06 7.34 7.34 0 0 1-.58-1.62c.13-.01.21-.08.26-.2a.1.1 0 0 1 .08-.07.1.1 0 0 1 .08.01c.04.02.05.05.04.09 0 .05-.01.07 0 .07 0 .04.01.04.04.01.02-.02.03-.09.04-.19v-.02c.03-.07.08-.09.14-.06a.1.1 0 0 0 .1-.01c.12-.08.23-.1.34-.07.11.03.2.02.24-.04a.08.08 0 0 1 .1-.03l.2.07c.05.01.06.04.04.08-.05.09-.11.13-.2.13-.02 0-.04 0-.05.03-.01.03 0 .05.03.04l.28-.07c.04-.01.07 0 .1.01.07.05.14.08.22.08Z" fill="#00B4E2"/><path d="M5.48 5.43c0 .16-.01.27-.05.34-.09.12-.06.15.08.08l.27-.13.1 1.21c-.1.1-.13.17-.07.22 0 .13.03.24.09.31l-.04.06a.47.47 0 0 0-.16-.05l-.85.02-.04-.75c0-.04 0-.08.03-.12.1-.18.14-.38.12-.58l.52-.61ZM10.86 6.45l-.42-.02-.03-.79.27.03c.18.03.37 0 .55-.08a.15.15 0 0 1 .12 0l.47.15c.04.01.04.04.03.07-.02.02-.05.03-.12.01-.05 0-.07.01-.08.06 0 .02 0 .05.02.09.02.03.02.07 0 .1-.03.13-.1.2-.21.2a.1.1 0 0 0-.09.05.1.1 0 0 0 0 .1.7.7 0 0 1 .02.5c-.02.05-.04.05-.06.01-.13-.2-.15-.4-.05-.6.02-.05.01-.08-.03-.1a.14.14 0 0 0-.07 0 .22.22 0 0 0-.17.09c-.04.06-.1.1-.15.13Z" fill="#0092D4"/><path d="M4.96 6.04c.02.2-.02.4-.12.58a.22.22 0 0 0-.03.12l.04.75c0-.03-.01-.01-.03.05l-.24-.18c-.03-.03-.06-.02-.07.02-.2.6-.31 1.2-.32 1.8a.38.38 0 0 1-.17.26c.01-.04 0-.08-.02-.1v-.67c.09-.98.4-1.86.96-2.63Z" fill="#029CDB"/><path d="m10.44 6.43.42.02-.16.89c-.01.03 0 .05.04.06l.31.04c-.18.04-.4.04-.66 0l.07-.47c0-.04-.02-.06-.06-.05a.21.21 0 0 1-.2-.04c-.04-.02-.04-.06-.02-.1l.26-.35ZM5.57 6.97a.43.43 0 0 0-.04.16l-.03.13c-.03.06-.05.09-.08.1-.13.07-.16.04-.11-.1l.12-.39c.02-.06.08-.1.18-.1.03-.01.06 0 .07.03.02.03.02.06 0 .08l-.05.03a.15.15 0 0 0-.06.06Z" fill="#6BCEEF"/><path d="M14 8.65v.69a5.04 5.04 0 0 1-3.54 4.49 3.77 3.77 0 0 1-1.42.17c-.46 0-.8-.02-1.02-.06a4.86 4.86 0 0 1-1.64-.65c1.56-.05 2.74-.19 3.54-.41a4.47 4.47 0 0 0 2.82-2.03c.18-.03.32-.1.44-.22.02-.03.02-.05 0-.07l-.03-.03c0-.05-.04-.07-.1-.08-.17 0-.29-.02-.38-.05l-.23-.52c.58-.62 1-1.5 1.25-2.63.16.46.26.92.31 1.4Z" fill="#1352A4"/><path d="M4.82 7.54c.02.02.03.04.02.05-.02.05 0 .09.07.1.18.05.34.13.47.24.09.12.12.28.1.46l-.28-.3a.07.07 0 0 1-.02-.07l.01-.03c.01-.03 0-.04-.02-.05l-.13-.04c-.03-.02-.05 0-.05.03-.02.24.05.38.21.41a.1.1 0 0 1 .08.08c.02.15-.02.25-.15.3a2.3 2.3 0 0 1-.45.18c-.04 0-.05.03-.03.07l.08.1c.05 0 .08.03.1.09.01.05 0 .11-.03.17l-.22.45c-.05.09-.06.23-.03.45.02.16.02.31.02.47a3.91 3.91 0 0 1-.38-1.51c0-.61.11-1.21.32-1.8.01-.05.04-.06.07-.03l.24.18Z" fill="#0079C0"/><path d="m11.18 7.4.44.04-.09.25a.8.8 0 0 0-.63-.04.1.1 0 0 0-.07.08c-.07.44-.05.87.06 1.26.28.04.52.04.72-.01.04.2.05.4 0 .6l-.18-.3a.16.16 0 0 0-.08-.07.81.81 0 0 0-.46-.03.08.08 0 0 0-.07.07c-.09.5-.04.93.16 1.3.18 0 .3.04.35.11 0 .06-.03.08-.07.08a11.3 11.3 0 0 0-1.32.03c-.1-.05-.1-.1 0-.14a.54.54 0 0 0 .3-.3c0-.03 0-.05-.04-.04-.02 0-.04.02-.05.05-.01-.08-.05-.13-.11-.13.12-.26.18-.43.18-.52.04-.59.03-1.17-.01-1.74-.01-.11-.05-.2-.13-.24a.95.95 0 0 0-.27-.1l-.07-.02-.03-.05c0-.05.04-.08.08-.07.27.01.46 0 .6-.04.26.05.48.05.66 0a.17.17 0 0 1 .13-.03Z" fill="#A3A5A8"/><path d="m5.7 7.47-.03.73c-.05.75-.04 1.5.05 2.22l.05.28-.68.08a.1.1 0 0 1-.02-.03c-.01-.04 0-.06.03-.07a.59.59 0 0 0 .29-.3c.03-.06.05-.2.06-.37v-.12c.03-.5.04-1 .02-1.5a.64.64 0 0 0-.09-.46c-.05-.22-.23-.33-.54-.34.01 0 0-.03-.02-.05.02-.06.03-.08.03-.05l.85-.02Z" fill="#EBECEE"/><path d="m8.56 7.53-.03.06a.09.09 0 0 1-.06.02c-.16.02-.25.1-.26.26-.06.53-.07 1.1-.03 1.74.03.35.15.6.36.75l.3.16-.13.28a2.34 2.34 0 0 1-1.57-1.12c.08-.14.14-.31.17-.5.22.29.31.35.28.19L7.6 7.8c-.1-.14-.27-.21-.52-.22.02-.09.05-.13.09-.13a18.13 18.13 0 0 0 1.35.02c.02.01.03.03.03.05Z" fill="#A3A5A8"/><path d="M12.13 7.62c.32.3.4.65.24 1.06-.05.13-.18.25-.41.37-.04.02-.05.05-.03.08l.74 1.27c.09.03.21.05.37.05.07 0 .1.03.1.08-.37.3-.7.3-.97 0a2.83 2.83 0 0 1-.55-.95c.04-.2.03-.4-.01-.6.33-.23.42-.51.27-.84a.67.67 0 0 0-.35-.45l.1-.25.5.18Z" fill="#D4D5D7"/><path d="m5.86 7.52.94 1.06-.1.66L5.68 8.2l.03-.73c.07.01.12.03.16.05Z" fill="#A3A5A8"/><path d="M7.59 9.37c.03.16-.06.1-.28-.2l-.51-.59-.94-1.06.04-.06 1.69 1.9Z" fill="#1352A4"/><path d="M8.61 7.5c.03.04.03.07.02.11a.1.1 0 0 1-.08.08.5.5 0 0 0-.22.1.14.14 0 0 0-.05.11l-.04.97v.24c0 .32.01.52.02.62.03.23.12.44.28.63-.21-.15-.33-.4-.36-.75-.04-.63-.03-1.21.03-1.74.01-.16.1-.24.26-.26.02 0 .04 0 .06-.02a.12.12 0 0 0 .03-.06l.05-.03ZM7.1 7.59c.24 0 .41.08.51.22-.23-.05-.4-.13-.52-.22ZM4.84 7.59c.31 0 .5.12.54.34-.13-.11-.3-.2-.47-.24-.07-.01-.09-.05-.07-.1ZM10.21 7.95c-.1-.16-.2-.23-.34-.21-.07-.03-.12-.07-.13-.12V7.6l.07.02c.13.03.22.06.27.1.08.05.12.13.13.24ZM11.53 7.7c.19.1.3.24.35.44-.2-.33-.47-.47-.82-.43-.11.02-.17.08-.17.2v1.08c-.11-.4-.13-.82-.06-1.26a.1.1 0 0 1 .07-.08.8.8 0 0 1 .63.04ZM12.44 9.88l.23.52-.74-1.27c-.02-.03 0-.06.03-.08.23-.12.37-.24.41-.37a.9.9 0 0 0-.24-1.06c.51.4.57.83.18 1.31a.73.73 0 0 1-.15.13l-.08.05c-.04.03-.04.06-.02.1l.38.67Z" fill="#1B1F27"/><path d="M11.88 8.14c.15.33.06.6-.27.84-.2.05-.44.05-.72.01V7.91c0-.12.06-.18.17-.2.35-.04.62.1.82.43Z" fill="#0092D4"/><path d="M10.21 7.95c.04.57.05 1.15.01 1.74 0 .09-.06.26-.18.52-.3.32-.7.42-1.2.31l-.3-.16c-.16-.2-.25-.4-.28-.63l-.01-.62c.1-.04.17-.03.23.03.03.03.06.03.1.02a.7.7 0 0 1 .17-.06c.32-.06.53-.22.63-.5.02-.06 0-.15-.06-.28.04.03.07.01.1-.03a.18.18 0 0 1 .1-.06c.1-.03.16-.1.17-.22.05.03.09.09.1.19 0 .06.02.06.06.01a.15.15 0 0 0 .02-.08c0-.01 0-.04-.03-.07-.05-.1-.04-.2.03-.32.13-.02.25.05.34.21Z" fill="#029CDB"/><path d="M5.47 8.39a15.16 15.16 0 0 1-.08 2 .59.59 0 0 1-.3.29c-.02.01-.03.03-.02.07 0 0 0 .02.02.03-.06 0-.05.03 0 .09.01 0 .03.02.05.01l.95-.02-.86 1.08a3.5 3.5 0 0 1-.66-1.24c0-.16 0-.31-.02-.47-.03-.22-.02-.36.03-.45l.22-.45a.23.23 0 0 0 .02-.17c-.01-.06-.04-.08-.09-.08a.5.5 0 0 1-.08-.1c-.02-.05-.01-.07.03-.08.13-.03.28-.09.45-.17.12-.06.17-.16.15-.31a.1.1 0 0 0-.08-.08c-.16-.03-.23-.17-.21-.4 0-.04.02-.06.05-.04l.13.04c.02 0 .03.02.02.05v.03c-.02.03-.01.05.01.07l.27.3Z" fill="#00AADC"/><path d="m5.67 8.2 1.04 1.04.43.44c.42.64.94 1.01 1.57 1.12.65.08 1.13-.08 1.44-.46.01-.03.03-.05.05-.05.04 0 .05 0 .03.04a.54.54 0 0 1-.3.3c-.1.04-.1.09 0 .14h.1c.47-.04.88-.05 1.23-.03.04 0 .06-.02.07-.08.04 0 .07.02.09.06.02.04.02.06.01.07a.15.15 0 0 1-.13.06 8 8 0 0 0-1.2.02.34.34 0 0 1-.22-.06.12.12 0 0 0-.1-.02c-.67.2-1.24.18-1.72-.09a3.02 3.02 0 0 1-.87-.84l-.68-.71-.68-.72c-.03-.03-.06-.03-.08 0-.04.06-.04.16-.02.3l.07 1.67-.08.02c-.09-.73-.1-1.47-.05-2.22Z" fill="#1B1F27"/><path d="M9.32 8.32c.06.13.08.22.06.28-.1.28-.31.44-.63.5a.71.71 0 0 0-.18.06c-.03.01-.06 0-.09-.02-.06-.06-.14-.07-.23-.03l-.01-.24a.3.3 0 0 1 .1.03.1.1 0 0 0 .1 0l.88-.58Z" fill="#0092D4"/><path d="M6.5 9.15a.62.62 0 0 0-.18.64c0 .04 0 .04-.04.02a.83.83 0 0 1-.3-.68v-.3c0-.05-.01-.07-.05-.09a.43.43 0 0 0-.2-.01c-.02-.14-.02-.24.02-.3.02-.03.05-.03.08 0l.68.72Z" fill="#029CDB"/><path d="m6.8 8.58.51.6c-.03.19-.09.36-.17.5l-.43-.44.09-.66Z" fill="#D4D5D7"/><path d="m6.5 9.15.69.7-.98.78a.2.2 0 0 0-.14-.06.36.36 0 0 1-.14-.04.47.47 0 0 1-.13-.13l-.07-1.67c.08-.01.14 0 .2.01.04.02.06.04.06.08l-.01.31c-.01.26.09.49.3.68.03.02.04.02.04-.02a.62.62 0 0 1 .19-.64Z" fill="#00B4E2"/><path d="M11.62 9.58c.13.37.31.7.55.95.27.3.6.3.98 0l.03.03c.02.02.02.04 0 .07a.75.75 0 0 1-.44.22.63.63 0 0 1-.53-.16 4.29 4.29 0 0 1-.7-1.18c-.09-.22-.27-.3-.54-.21a.08.08 0 0 0-.07.07c-.04.39-.02.78.08 1.17-.2-.36-.25-.8-.16-1.29 0-.04.03-.06.07-.07a.81.81 0 0 1 .46.03c.03.01.06.04.08.07l.19.3Z" fill="#1B1F27"/><path d="M4.2 9.19c.02.55.15 1.05.37 1.5.15.49.37.9.66 1.25.65.2 1.3.35 1.96.46.35.05.7.05 1.04-.01.16-.03.35-.13.6-.32h.01c.08-.07.16-.07.23 0 .21.2.47.3.78.29l.3.15c.1.16.24.2.41.12a.64.64 0 0 0 .25-.27c.36-.65.82-1.2 1.4-1.67.16.14.34.19.53.16a4.47 4.47 0 0 1-2.82 2.03c-.8.22-1.98.36-3.54.41a5.05 5.05 0 0 1-2.36-3.85.38.38 0 0 0 .17-.25Z" fill="#0D5EAD"/><path d="M12.21 10.7a5.66 5.66 0 0 0-1.4 1.66.64.64 0 0 1-.25.27c-.17.08-.3.04-.4-.12l.06-1.1c0-.06-.03-.1-.1-.1h-.08c-.08 0-.13.04-.13.13l-.06.92c-.31 0-.57-.09-.78-.29-.07-.07-.15-.07-.23 0h-.01c-.25.19-.44.3-.6.32-.34.06-.69.06-1.04 0-.66-.1-1.3-.25-1.96-.45l.86-1.08c.26.04.34-.01.24-.16-.1-.02-.13-.05-.12-.07l.98-.77c.3.4.6.68.87.84.48.27 1.05.3 1.72.1.03-.02.07-.02.1 0 .08.06.15.08.22.07a8 8 0 0 1 1.2-.02c.05 0 .1-.01.13-.06.01-.01 0-.03-.01-.07-.02-.04-.05-.05-.09-.06-.05-.07-.17-.1-.35-.12a3.3 3.3 0 0 1-.08-1.17c.01-.04.03-.06.07-.07.27-.09.45-.01.55.2.23.54.46.94.7 1.2Z" fill="#0079C0"/><path d="M5.8 10.4c.04.06.08.1.13.13.03.02.07.03.14.04.06 0 .1.02.14.06-.02.02.02.05.12.07a.9.9 0 0 1-.56 0l-.05-.28.08-.02Z" fill="#A3A5A8"/><path d="M5.77 10.7c.2.06.39.06.56 0 .1.15.02.2-.24.16l-.95.02-.05-.01c-.05-.06-.06-.08 0-.09l.68-.08Z" fill="#1B1F27"/><path d="m10.15 12.51-.3-.15.06-.92c0-.09.04-.13.13-.13h.08c.07 0 .1.04.1.1l-.07 1.1ZM8.87 13.65l-.82-.04a.06.06 0 0 0-.07.05v.01c0 .04.03.07.06.07l.82.05c.03 0 .06-.03.06-.06v-.01a.06.06 0 0 0-.05-.07Z" fill="#0092D4"/></svg>