<!-- by TradingView --><svg width="18" height="18" viewBox="0 0 18 18" xmlns="http://www.w3.org/2000/svg"><path fill="#F0F3FA" d="M0 0h18v18H0z"/><path fill-rule="evenodd" d="M9 14.65a5.65 5.65 0 1 0 0-11.3 5.65 5.65 0 0 0 0 11.3ZM9 15A6 6 0 1 0 9 3a6 6 0 0 0 0 12Z" fill="#160B4D"/><path fill-rule="evenodd" d="M9 14.12A5.12 5.12 0 1 0 9 3.88a5.12 5.12 0 0 0 0 10.24Zm0 .17A5.3 5.3 0 1 0 9 3.71a5.3 5.3 0 0 0 0 10.58Z" fill="#160B4D"/><path d="M12.5 9h-1.28c-.15 0-.26-.11-.2-.22l.28-.67c.03-.06.11-.11.2-.11h1.28c.15 0 .26.11.2.22l-.28.67c-.03.06-.11.11-.2.11Z" fill="url(#a5olamroe)"/><path d="M5.98 10.85h-.5c-.35 0-.59-.43-.43-.8L6.3 7.3c.08-.18.25-.3.43-.3h2.24c.3 0 .52.3.56.63.04.37.18.72.52.72.46 0 .71-.27.82-.47.03-.06.08-.11.15-.11.1 0 .18.13.13.24l-.28.61a.49.49 0 0 1-.43.3h-.22a.5.5 0 0 0-.46.36c-.2.55-.46 1.32-.57 1.57-.17.38.17.57.69.57.41 0 .74-.25.86-.38l.98-.92a.16.16 0 0 1 .12-.04c.13 0 .2.15.15.28l-.6 1.34a.49.49 0 0 1-.44.3H8.55c-.27 0-.44-.31-.32-.58l.04-.08c.1-.23-.05-.5-.27-.5-.24 0-.39-.28-.27-.51.36-.7.82-1.62.93-1.98.14-.47-.17-.58-.34-.58H7.2c-.17 0-.33.1-.41.26l-.45.79c-.12.21.02.49.24.49.23 0 .37.27.25.49l-.45.79a.48.48 0 0 1-.41.26Z" fill="#0C0459"/><path d="M5.13 10.67c.1-.05.18-.12.26-.2.2-.23.64-.79 1-1.26a.35.35 0 0 1-.04-.4l.45-.78a.48.48 0 0 1 .4-.26h1.12c.1 0 .26.04.33.18.27-.17.56-.4.77-.63-.1-.19-.26-.32-.46-.32H6.72a.49.49 0 0 0-.43.3l-1.24 2.76a.6.6 0 0 0 .08.61Z" fill="url(#b5olamroe)" fill-opacity=".6"/><path d="M7.85 10.8 9 8.54c.04-.1.01-.24-.37-.13-.14.4-.57 1.26-.91 1.92-.1.17-.03.38.12.47Z" fill="url(#c5olamroe)" fill-opacity=".6"/><defs><linearGradient id="a5olamroe" x1="11.57" y1="8" x2="12.18" y2="8.99" gradientUnits="userSpaceOnUse"><stop stop-color="#FAC7C3"/><stop offset="1" stop-color="#620206"/></linearGradient><linearGradient id="b5olamroe" x1="6.36" y1="7.76" x2="8.71" y2="9.3" gradientUnits="userSpaceOnUse"><stop stop-color="#CAC8E0"/><stop offset="1" stop-color="#5F5792"/></linearGradient><linearGradient id="c5olamroe" x1="6.36" y1="7.76" x2="8.71" y2="9.3" gradientUnits="userSpaceOnUse"><stop stop-color="#CAC8E0"/><stop offset="1" stop-color="#5F5792"/></linearGradient></defs></svg>