<!-- by TradingView --><svg width="18" height="18" viewBox="0 0 18 18" xmlns="http://www.w3.org/2000/svg"><path fill="#F0F3FA" d="M0 0h18v18H0z"/><path d="M8.32 3h1.39l.2.8.73.3.77-.77 1.18.7-.2.79.6.6.78-.2.9 1.37-.6.6.16.75.77.38v1.36l-.78.39-.14.56.6.6-.9 1.33h-.76l-.46.46v.77l-1.13.68-.59-.4-.59.15-.38.78H8.5l-.39-.78-.58-.14-.77.58-1.36-.68.2-.96-.59-.44-.8.2-.69-1.36.58-.77-.14-.55L3 9.9V8.32l.78-.39.14-.56-.59-.58.7-1.38.97.2.42-.42-.2-.77L6.6 3.5l.58.58.76-.3.4-.79Zm.23.38-.35.7-1.12.45L6.54 4l-.89.6.18.72-.7.7-.9-.17-.44.87.54.54-.23.94-.72.36V9.6l.9.18.24.95-.55.73.44.88.7-.17.91.69-.18.91.89.45.73-.55.92.23.36.72h.9l.36-.72.91-.23.53.36.75-.45v-.72l.67-.67h.73l.6-.92-.52-.53.23-.93.72-.36v-.9l-.72-.36-.23-1.13.53-.52-.6-.89-.72.18-.9-.9.18-.72-.7-.41-.73.73-1.14-.45-.17-.7h-.87Z" fill="#D24D2C"/><path fill-rule="evenodd" d="M9 13.13a4.12 4.12 0 1 0 0-8.25 4.12 4.12 0 0 0 0 8.25Zm0 .37a4.5 4.5 0 1 0 0-9 4.5 4.5 0 0 0 0 9Z" fill="#898383"/><path fill-rule="evenodd" d="M9 13a4 4 0 1 0 0-8 4 4 0 0 0 0 8Zm-.6-7H8v.83h.4V6ZM8 7.67h.4v1.5h-.2v.2h.2V10H8L6.4 8.08V10H6V7.87h.2v-.2H6v-.42h.4L8 9.17v-1.5Zm2.8 1.91V10h-.4c-.13 0-.4-.08-.4-.42V7.67h.4v1.08h-.2v.2h.2v.43c0 .06.04.2.2.2h.2ZM12 10h-.8v-.42h.8V10Zm-6 1v-.42h.8V11H6Zm1.2-.42V11H12v-.42H7.2Zm2.2-2.25H9V10h.4V8.33ZM10 6h.4v.83H10V6ZM8.6 7H7.2v.46h1.2c.32 0 .4.2.4.33V8h.8v-.2c0-.34.13-.34.2-.34h1V7h-1l-.2-.17h-.8L8.6 7Z" fill="#179939"/></svg>