<!-- by TradingView --><svg width="18" height="18" viewBox="0 0 18 18" xmlns="http://www.w3.org/2000/svg"><path fill="#F0F3FA" d="M0 0h18v18H0z"/><path d="M8.82 3.73c.01.04.04.06.07.06h3.07c.05 0 .09-.05.07-.1l-.19-.64a.08.08 0 0 0-.07-.05H8.7c-.05 0-.09.05-.07.1l.2.63Zm.44 1.24a.08.08 0 0 1-.08-.06L9 4.28c-.01-.05.02-.1.07-.1h3.07c.03 0 .06.02.07.06l.2.63c.01.05-.02.1-.08.1H9.26Zm.29 1.13c0 .03.04.05.07.05h3.07c.05 0 .08-.05.07-.1l-.2-.63a.08.08 0 0 0-.07-.06H9.43c-.06 0-.1.06-.08.1l.2.64Zm.24.45c-.05 0-.09.05-.07.1l.19.63c0 .03.04.05.07.05h3.07c.05 0 .09-.05.07-.1l-.2-.63a.08.08 0 0 0-.06-.05H9.79Zm3.76.78a.09.09 0 0 0-.04.09l.8 3.25c.02.06.08.08.12.05l.54-.37a.09.09 0 0 0 .03-.1L14.2 7c-.02-.05-.08-.08-.12-.05l-.53.38Zm-1.04.8c0-.04 0-.08.03-.1l.54-.37c.04-.03.1 0 .11.05l.8 3.25c.01.03 0 .07-.03.1l-.53.37c-.05.03-.1 0-.12-.05l-.8-3.26Zm-.97.6a.09.09 0 0 0-.03.1l.8 3.25c.01.06.07.08.11.05l.54-.37a.09.09 0 0 0 .03-.1l-.8-3.25c-.02-.05-.07-.08-.12-.05l-.53.38Zm-.36.38c0-.05-.07-.08-.11-.04l-.54.37a.09.09 0 0 0-.03.1l.8 3.25c.02.05.08.08.12.05l.53-.38a.09.09 0 0 0 .04-.1l-.8-3.25ZM9.31 11.7c.05.03.05.1 0 .13l-2.64 1.91a.08.08 0 0 1-.1 0l-.54-.4a.08.08 0 0 1 0-.13l2.65-1.91a.08.08 0 0 1 .1 0l.53.4Zm.38.35a.08.08 0 0 1 .1 0l.53.4c.05.03.05.1 0 .13l-2.65 1.91a.08.08 0 0 1-.09 0l-.54-.4a.08.08 0 0 1 0-.13l2.65-1.91Zm1.1.75a.08.08 0 0 0-.09 0L8.05 14.7a.08.08 0 0 0 0 .13l.54.4c.03.02.07.02.1 0l2.64-1.9a.08.08 0 0 0 0-.14l-.54-.4Zm.92.75a.08.08 0 0 1 .1 0l.53.4c.05.03.05.1 0 .13L9.7 15.98a.08.08 0 0 1-.1 0l-.53-.4a.08.08 0 0 1 0-.13l2.65-1.9Zm-7.83-5.1c0 .04 0 .08.04.1l2.56 1.77c.04.03.1 0 .11-.05l.16-.66c0-.03 0-.07-.04-.09L4.15 7.74c-.04-.03-.1 0-.11.05l-.16.66Zm-.26 1.33a.09.09 0 0 1-.03-.09l.16-.66c0-.05.07-.07.1-.04l2.57 1.77c.03.02.04.06.03.09l-.15.66c-.01.05-.07.08-.11.05L3.62 9.77Zm-.32 1.15c-.01.03 0 .07.03.09l2.56 1.77c.04.03.1 0 .11-.05l.16-.65c0-.04 0-.07-.03-.1l-2.57-1.77c-.04-.03-.1 0-.1.05l-.16.66Zm-.03.53c-.04-.03-.1 0-.11.04l-.16.66c0 .04 0 .07.04.1l2.56 1.77c.04.03.1 0 .11-.05l.16-.66c0-.03 0-.07-.04-.09l-2.56-1.77Zm1.76-7.27c.05 0 .08.06.07.1l-.95 2.98c-.01.03-.04.07-.08.07h-.62c-.05 0-.09-.07-.07-.12l.95-2.97a.08.08 0 0 1 .07-.06h.63Zm.47.06c.01-.03.04-.06.08-.06h.62c.05 0 .09.06.07.11l-.95 2.98c0 .03-.04.06-.07.06h-.63c-.05 0-.08-.06-.07-.11l.95-2.98Zm1.25-.06c-.03 0-.06.04-.07.07l-.95 2.97c-.02.05.02.11.07.11h.62c.04 0 .07-.02.08-.06l.95-2.97c.01-.05-.02-.12-.07-.12h-.63Zm1.1.07c.01-.03.04-.07.08-.07h.62c.05 0 .09.07.07.12l-.95 2.98a.08.08 0 0 1-.07.05h-.63c-.05 0-.08-.05-.07-.1l.95-2.98Z" fill="#A30C33"/></svg>