<!-- by TradingView --><svg width="18" height="18" viewBox="0 0 18 18" xmlns="http://www.w3.org/2000/svg"><path fill="#F0F3FA" d="M0 0h18v18H0z"/><path d="M14 9A5 5 0 1 1 4 9a5 5 0 0 1 10 0Z" fill="url(#avxgzcv0r)"/><path d="M8.16 7.45c.25.28.54.5.85.68l1.56.85c.4.22.9.63 1.53 1.23.22 1.1-.07 1.94-.87 2.52-.85.6-2.01.7-3.12.57-.86-.1-1.59-.53-2.17-1.3a.63.63 0 0 1 .2-.55.1.1 0 0 0 .03-.07v-.05c0-.03 0-.06.02-.08.03-.05.07-.06.13-.05.64.65 1.18 1.4 2.1 1.68.14.09.3.13.46.13.83-.02 1.53.15 1.92-.8.1-.25.02-.55-.24-.91a2.24 2.24 0 0 0-1.16-1.28c-.9-.43-1.98-.87-2.74-1.52a2.13 2.13 0 0 1-.81-1.87c.05-.68.48-1.13 1-1.5a4.17 4.17 0 0 1 1.94-.67c1.25-.02 2.16.28 3 1.33.16.2.18.42.07.66a.15.15 0 0 1-.07.07c-.19.08-.35.05-.48-.09-.38-.4-.68-.83-1.14-1.13a2.6 2.6 0 0 0-1.33-.47c-1.09-.04-2.24.8-1.4 2 .14.2.38.4.72.62Z" fill="#F0F3FA"/><path d="M8.16 7.45c.83.27 1.7.66 2.59 1.15.76.42 1.2.96 1.35 1.61a8.31 8.31 0 0 0-1.53-1.23L9 8.13a3.2 3.2 0 0 1-.85-.68ZM6.32 11.2c-.06-.01-.1 0-.13.05a.15.15 0 0 0-.02.08v.05a.1.1 0 0 1-.03.07.63.63 0 0 0-.2.55c-.22-.17-.51-.47-.42-.77.1-.34.6-.37.8-.03ZM10.56 11.3c.26.36.34.66.24.9-.39.96-1.1.8-1.92.8a.82.82 0 0 1-.46-.12c.52.03 1.03-.14 1.54-.49a.98.98 0 0 0 .37-.44l.23-.65Z" fill="#BDBDBD"/><defs><linearGradient id="avxgzcv0r" x1="14" y1="9" x2="4" y2="9" gradientUnits="userSpaceOnUse"><stop stop-color="#3283B9"/><stop offset=".47" stop-color="#56A7D0"/><stop offset="1" stop-color="#3283B9"/></linearGradient></defs></svg>