<!-- by TradingView --><svg width="18" height="18" viewBox="0 0 18 18" xmlns="http://www.w3.org/2000/svg"><path fill="#F0F3FA" d="M0 0h18v18H0z"/><path d="m12.41 4.38-3.45.01a.73.73 0 0 1-.36-.1L8.08 4l.2 2h4.6a.8.8 0 0 0 .8-.81c0-.45-.82-.81-1.27-.81Z" fill="#1880C4"/><path d="M8.78 10.31s-.7-1.35-3.47-1.67c-.5-.05-2.39-.02-1.7-1.15.34-.62 1.04-.91 1.72-.92h7.33c.35 0 1.15-.44 1.34-.85l-.88 4.7s-.17.55-.95.58H8.72l.06-.69Z" fill="#1880C4"/><path d="m3 8.17 2.17 4.6s.31.74 1.04.78c0 0 1.82.02 2.73 1.35.1.15.38.14.37-.08l-.53-4.5s-.09.2-.38.25c-.05 0-.09-.03-.14-.06-.88-.53-1.2-1.33-3.2-1.46C3.45 9 3.14 8.44 3 8.17Z" fill="#EC0B8B"/></svg>