<!-- by TradingView --><svg width="18" height="18" viewBox="0 0 18 18" xmlns="http://www.w3.org/2000/svg"><path fill="#F0F3FA" d="M0 0h18v18H0z"/><path d="M7.54 2c.13.65.22 2.48-.37 4.58C6.43 9.21 8.26 11 10.03 11c1.77 0 3-1.33 2.97-5.56a2.44 2.44 0 0 1-2.49 2.22c-2.25 0-1.28-3.3.69-3.28-.03-.06-.18-.17-.5-.17-.4 0-2.04.6-2.04 2.54s1.97 2.16 3.15 1.5A1.99 1.99 0 0 1 9.88 9.8c-1.6 0-2.3-1.7-2.04-2.83.27-1.13.56-4.47-.3-4.97Zm-.82 5.35c-.13.2-.37.8-.37 1.55 0 .93 1.06 1.72 1.74 2.2.69.48 1.62 1.2 1.62 2.82 0 1.3-.62 1.93-.93 2.08.16-.31.47-1.11.47-1.84 0-.72-1.5-2.05-2.24-2.63-.7-.56-1.72-2.2-.3-4.18Zm-.63-1.6.09 1.19c.74-1.06.6-2.09.44-2.47L6.1 5.74Zm2.52-1.01V3.9l.47-.97c.01.28 0 .93-.21 1.29-.21.35-.26.49-.26.52Z" fill="url(#aqz02dsgz)"/><defs><linearGradient id="aqz02dsgz" x1="5.84" y1="7.13" x2="9.59" y2="13.47" gradientUnits="userSpaceOnUse"><stop stop-color="#48BA8B"/><stop offset="1" stop-color="#2A4795"/></linearGradient></defs></svg>