<!-- by TradingView --><svg width="18" height="18" viewBox="0 0 18 18" xmlns="http://www.w3.org/2000/svg"><path fill="#F0F3FA" d="M0 0h18v18H0z"/><path fill-rule="evenodd" d="M14 11.86V5.09C14 4.5 13.51 4 12.91 4H5.1C4.49 4 4 4.49 4 5.1v7.8c0 .61.49 1.1 1.09 1.1h7.82c.6 0 1.09-.49 1.09-1.1v-1.04Zm-.37.25V5.23a.82.82 0 0 0-.81-.82H5.3a.82.82 0 0 0-.82.82v7.53c0 .45.37.82.82.82h7.52c.45 0 .81-.37.81-.82v-.65ZM7.01 11H5.5v-.28h.14c.2 0 .36-.15.36-.35v-2.8c0-.14-.1-.26-.27-.26H5.5V7h1.3L9 9.73V7.57c0-.14-.14-.26-.3-.26h-.23V7h2.5c.62 0 1.35.33 1.35 1 0 .55-.44.85-.66.94.28.09.84.42.84 1 0 .8-.87 1.04-1.31 1.06H9L6.48 7.9v2.47c0 .2.11.35.32.35H7V11ZM10 7.32v1.5c.49.05 1.46-.03 1.46-.69 0-.81-1.15-.81-1.46-.81Zm0 1.84v1.28c0 .1.08.32.38.32.37 0 1.2-.02 1.2-.69 0-.66-.63-.9-1.58-.9Z" fill="#820024"/></svg>