<!-- by TradingView --><svg width="18" height="18" viewBox="0 0 18 18" xmlns="http://www.w3.org/2000/svg"><path fill="#F0F3FA" d="M0 0h18v18H0z"/><path d="m14.09 9.56-.02.15a5.12 5.12 0 0 1-10.19-.79v-.2l.21.03c.6.1 1.16.46 1.6.85.24.2.44.42.61.63a3.04 3.04 0 0 0-2.13-2.35l-.16-.05.05-.16a5.12 5.12 0 0 1 10.02.74l.03.24-.24-.04a3.5 3.5 0 0 1-1.58-.86c-.22-.2-.42-.42-.6-.62a3.06 3.06 0 0 0 2.25 2.38l.15.05Zm-2.6-2.7a3.22 3.22 0 0 0 2.4 2.82 4.94 4.94 0 0 1-9.83-.76l.18.04a4.36 4.36 0 0 1 2.29 1.87l-.01-.33a3.2 3.2 0 0 0-2.3-2.78 4.94 4.94 0 0 1 9.69.71 4.4 4.4 0 0 1-2.44-1.9l.01.33ZM9 14.82A5.82 5.82 0 1 0 9 3.18a5.82 5.82 0 0 0 0 11.64ZM15 9A6 6 0 1 1 3 9a6 6 0 0 1 12 0Z" fill="#3F3D38"/><path d="M13.9 9.68a3.22 3.22 0 0 1-2.43-3.15l.19.27a4.4 4.4 0 0 0 2.25 1.63 4.9 4.9 0 0 0-.03-.18 4.94 4.94 0 0 0-9.65-.53 3.2 3.2 0 0 1 2.3 3.11 4.36 4.36 0 0 0-2.47-1.9 5.03 5.03 0 0 0 0 .17 4.94 4.94 0 0 0 9.83.58Z" fill="#0391FE"/><path fill-rule="evenodd" d="M7.9 12.13 7.76 12c-.25-.26-.42-.42-.49-.63.05.06.1.1.14.1.09 0 .09-.04.09-.07 0-.01.02 0 .09.07.14.14.17-.18.17-.35-.05-.06-.2-.14-.35 0-.14.14-.17-.06-.17-.18h-.01l-.01-.12c-.03-.42-.08-1.05.12-1.37.01.1.13.26.25.26.07 0 .13.02.2.04.08.04.15.06.15-.04s-.04-.1-.1-.1c-.08 0-.16 0-.25-.08l-.18-.18c.18-.17.35-.3.53-.44.18-.13.35-.26.53-.44.16-.15.31-.38.45-.58.18-.26.33-.48.43-.48l.16-.01c.05-.02.1-.06.2-.16.14-.15.29-.18.35-.18.1-.1.14-.15.2-.16.03-.02.08-.02.15-.02.18 0 .35 0 .35-.17 0-.07.05-.11.1-.16.1-.07.2-.15.08-.37-.18-.36-.53-.7-1.06-.53-.53.17-1.4.88-1.59 1.23l-.18.42c-.25.59-.69 1.6-1.23 2.4-.6.9-.69 1.29-.7 1.28v-.04c0-.18.7-1.41.88-1.59.18-.17 1.23-2.47 1.23-2.64 0-.18 1.24-1.24 1.6-1.24.35 0 .87 0 1.05.53.06.12.18.32.18.18v-.53s.17.88 0 .88c-.09 0-.13 0-.16.02-.02.02-.02.07-.02.16 0 .07-.06.11-.13.16-.1.07-.22.16-.22.37 0 .15-.07.2-.12.23l-.02-.06a.57.57 0 0 1-.04-.17c0-.11-.07-.02-.16.1-.06.09-.12.18-.2.25-.1.1-.07.15-.04.2.02.04.05.08.05.15v.18c0 .1.07.01.16-.12.06-.07.12-.17.2-.24v.18c0 .07-.03.14-.06.2-.03.09-.06.15.05.15.18 0 1.06.36.88.53-.07.08-.11.03-.18-.05a.83.83 0 0 0-.7-.3c.18.12.53.39.53.53 0 .09.09.18.16.24.06.07.1.11.02.11-.09 0-.09-.04-.09-.09 0-.04 0-.08-.09-.08s-.04.08 0 .17c.05.1.09.18 0 .18-.18 0-.18-.18-.18-.35 0-.07.03-.11.05-.15.04-.06.06-.1-.05-.2-.17-.18-.35-.18-.52 0l-.08.08c.01.01.13-.03.25.09.18.18.53.7.35.7-.08 0-.08-.13-.08-.24 0-.1 0-.2-.1-.1-.08.08-.08.21-.08.32 0 .11 0 .2-.09.2-.08 0-.05-.07 0-.17.04-.11.1-.26 0-.36-.17-.17-.35-.35-.53-.35-.09 0-.13.09-.17.18-.05.08-.1.17-.18.17h-.08c0 .02.08.06.08.18 0 .09.09.18.15.24.07.07.11.11.03.11-.07 0-.2-.08-.33-.16-.2-.14-.45-.3-.56-.2-.1.12-.01.16.12.22.08.03.17.07.24.14.17.18.35.36 0 .18-.36-.18-.53-.18-.53 0 0 .09.04.13.09.18.04.04.08.08.08.17v.35c0-.11-.03-.35-.17-.35-.07 0-.14-.02-.2-.05-.09-.03-.16-.06-.16.05 0 .07.08.11.17.16.14.07.3.15.19.37-.1.19-.14.03-.19-.13-.04-.15-.08-.3-.17-.22-.17.17-.53.53-.35.7l.09.1c0 .02-.02.05.09.26.17.35.24.6.17.7-.05.1-.02.16 0 .18l-.35-.35c.09 0 .13.04.16.06 0 .01 0 .02.01.01v-.07c0-.18 0-.53-.17-.53-.06 0-.14.03 0 .17.1.1.03.2-.02.27a.43.43 0 0 0-.02.04Zm2.51-4.37c.35.18.88 0 .88-.17 0-.08-.06-.06-.17-.02-.13.05-.33.12-.53.02l-.1-.05c0 .07 0 .15-.08.22Zm-.7-.35c-.15 0-.06.12 0 .18 0 .14.11.06.17 0 .06-.06.18-.21.18-.35 0-.1-.05-.05-.11.02-.07.06-.16.15-.24.15ZM9 7.94c0-.06.04-.18.18-.18h.35v.18c0 .09 0 .13-.02.16-.02.02-.07.02-.16.02-.07 0-.12-.07-.16-.13-.05-.08-.1-.15-.19-.05Zm-.18.88c.06 0 .18-.03.18-.17 0-.18 0-.36.18-.36l.25-.04c.2-.03.4-.07.28.04-.1.1-.22.1-.33.1-.12 0-.2 0-.2.08 0 .18-.18.53-.36.53-.14 0-.06-.12 0-.18Zm-.17-.35c0-.14-.12.06-.18.18.09 0 .09.09.09.17 0 .1 0 .18.09.18.11 0 .08-.16.04-.31-.02-.08-.04-.16-.04-.22Zm-.36.35c.06 0 .18.04.18.18 0 .07.03.13.05.2.03.09.06.15-.05.15-.18 0-.35-.53-.18-.53ZM7.94 9c0-.14-.12.06-.18.18 0 .14.12.3.18.35.06 0 0-.18 0-.18V9Zm-.35.88c0-.14-.24-.06-.35 0v.36c0 .1.06.08.16.04a.56.56 0 0 1 .19-.04c.09 0 .13.04.17.08.05.05.1.1.18.1.18 0 0-.18-.18-.36-.08-.09-.13-.09-.15-.09H7.6l-.01-.09Zm-.35.7c.17.13.52.33.52.18 0-.17 0-.35-.17-.35-.12 0-.16.16-.17.21v.02-.05c0-.18-.18-.18-.18 0Z" fill="#41403B"/></svg>