<!-- by TradingView --><svg xmlns="http://www.w3.org/2000/svg" width="18" height="18"><path fill="#3B3940" d="M0 0h18v18H0z"/><path d="M9 3H6v3h3v3H6v6h6v-3H9V9h3V3H9z" fill="#F5F5F7"/><path d="M9 3H6v3h3v3H6v6h6v-3H9V9h3V3H9z" fill="url(#a2u5hlzbo)" fill-opacity=".2"/><path d="M6 3H3v12h3V9h3v3h3v3h3V3h-3v6H9V6H6V3z" fill="url(#b2u5hlzbo)"/><defs><linearGradient id="a2u5hlzbo" x1="3" y1="9" x2="15" y2="9" gradientUnits="userSpaceOnUse"><stop/><stop offset="1" stop-opacity="0"/></linearGradient><linearGradient id="b2u5hlzbo" x1="13.5" y1="3" x2="13.5" y2="16.5" gradientUnits="userSpaceOnUse"><stop offset=".02" stop-color="#B48D45"/><stop offset=".06" stop-color="#A98138"/><stop offset=".1" stop-color="#A37B31"/><stop offset=".16" stop-color="#A1792F"/><stop offset=".34" stop-color="#A57F3C"/><stop offset=".52" stop-color="#A0782E"/><stop offset=".72" stop-color="#AF8A3E"/><stop offset="1" stop-color="#A57F3C"/></linearGradient></defs></svg>