<!-- by TradingView --><svg xmlns="http://www.w3.org/2000/svg" width="18" height="18" viewBox="0 0 18 18"><path fill="#F0F3FA" d="M0 0h18v18H0z"/><path d="M8.86 6.76c-1.45.85-2.3 1.95-2.3 3.08 0 1.2.97 2.16 2.17 2.16h.35c1.39 0 2.52-1.67 2.52-3.06v-.61c-.07-2.2-.53-3.38-.8-4.3L10.79 4c0 .35-.12 1.7-1.93 2.76Z" fill="url(#ap42qucsr)"/><path d="M11.76 6.76c-1.45.85-2.3 1.95-2.3 3.08 0 1.2.97 2.16 2.17 2.16h.35c1.4 0 2.52-1.67 2.52-3.06v-.61c-.07-2.2-.53-3.38-.8-4.3V4c0 .35-.13 1.7-1.94 2.76Z" fill="url(#bp42qucsr)"/><path d="M11.5 6.93c-1.3.82-2.04 1.85-2.04 2.9 0 .7.33 1.33.84 1.73a3.5 3.5 0 0 0 1.3-2.62v-.61a14.7 14.7 0 0 0-.1-1.4Z" fill="url(#cp42qucsr)"/><path d="M3.5 9.84c0-1.13.86-2.23 2.3-3.08C7.61 5.71 7.73 4.35 7.73 4l.01.02.12.4c.27.87.63 2 .68 3.9v.62c0 1.39-1.13 3.06-2.52 3.06h-.35a2.2 2.2 0 0 1-.6-.09c-.07.5.03 1.62.09 2.09h-.51c0-.85.07-1.79.11-2.2A2.16 2.16 0 0 1 3.5 9.84Z" fill="url(#dp42qucsr)"/><path d="M5.66 9.61c-.07.14-.16.31-.24.5a4.95 4.95 0 0 1-.82-1.74c.01.4.16 1.35.68 2.06l-.52 1.38A2.17 2.17 0 0 1 3.5 9.84c0-1.14.86-2.24 2.3-3.08C7.59 5.72 7.74 4.39 7.75 4v.01c.16 1-.17 2.11-.62 3.08-.14-.32-.22-.6-.26-.77 0 .21.05.57.16.97-.23.49-.5.93-.73 1.31a5.1 5.1 0 0 1-.53-1.33c0 .31.1.96.38 1.57l-.2.31-.28.45Z" fill="url(#ep42qucsr)"/><path d="M8.45 7.02c-1.2.8-1.9 1.8-1.9 2.82 0 .66.3 1.26.78 1.66a3.53 3.53 0 0 0 1.22-2.56v-.62a14.9 14.9 0 0 0-.1-1.3Z" fill="url(#fp42qucsr)"/><defs><linearGradient id="ap42qucsr" x1="9.08" y1="4" x2="9.08" y2="12.01" gradientUnits="userSpaceOnUse"><stop offset=".26" stop-color="#A9CCE8"/><stop offset="1" stop-color="#1B80C1"/></linearGradient><linearGradient id="bp42qucsr" x1="10.36" y1="6.88" x2="13.53" y2="11.27" gradientUnits="userSpaceOnUse"><stop stop-color="#FFCA00"/><stop offset="1" stop-color="#F18A01"/></linearGradient><linearGradient id="cp42qucsr" x1="10.53" y1="6.93" x2="10.53" y2="11.56" gradientUnits="userSpaceOnUse"><stop stop-color="#FAB500"/><stop offset="1" stop-color="#EE7D01"/></linearGradient><linearGradient id="dp42qucsr" x1="4.38" y1="7.79" x2="7.56" y2="12.7" gradientUnits="userSpaceOnUse"><stop stop-color="#B0BB08"/><stop offset="1" stop-color="#5D891E"/></linearGradient><linearGradient id="ep42qucsr" x1="4.17" y1="7.69" x2="5.69" y2="10.72" gradientUnits="userSpaceOnUse"><stop stop-color="#89A626"/><stop offset="1" stop-color="#638D1F"/></linearGradient><linearGradient id="fp42qucsr" x1="7.55" y1="7.02" x2="7.55" y2="11.5" gradientUnits="userSpaceOnUse"><stop stop-color="#8EB9E0"/><stop offset=".68" stop-color="#157CC0"/></linearGradient></defs></svg>