<!-- by TradingView --><svg width="18" height="18" viewBox="0 0 18 18" xmlns="http://www.w3.org/2000/svg"><path fill="#F0F3FA" d="M0 0h18v18H0z"/><path d="M12.3 5.23c.46-.28.91-.33 1.35 0 .37.27.62.63.74 1.09a3.4 3.4 0 0 1-.93 3.27 4.4 4.4 0 0 1-1.08.78c-.32.52-.68.9-1.07 1.17-.9.59-1.82.61-2.75.07a6.2 6.2 0 0 1-.75-.48 1.7 1.7 0 0 1-1.1.57c-.34.04-.66 0-.97-.12a4.87 4.87 0 0 1-1.83-1.34 3.8 3.8 0 0 1-.55-.75A2.98 2.98 0 0 1 3 8.02c0-.5.3-.87.85-.82.2.02.4.07.59.15.42.18.8.4 1.16.67a68.45 68.45 0 0 1 1.94 1.49 9.26 9.26 0 0 0 1.64-1.24.74.74 0 0 0 .16-.22l.47-.98c.28-.59.62-1.21 1.13-1.62.37-.3.88-.42 1.32-.22h.04Zm.21.13v.03c.18.17.32.37.4.6.17.4.25.84.25 1.33a6.13 6.13 0 0 1-.54 2.65c.39-.25.7-.52.92-.8a3.22 3.22 0 0 0 .6-2.92c-.1-.3-.28-.57-.55-.8-.33-.28-.7-.31-1.08-.09ZM9.78 7.68c.03 0 .18-.16.45-.44.69-.73 1.08-1.15 1.2-1.26a5.93 5.93 0 0 1 .63-.59h-.01l-.01-.02a1.1 1.1 0 0 0-.87.18c-.27.2-.5.45-.7.77a8.39 8.39 0 0 0-.7 1.36Zm-1.26 2.47a.02.02 0 0 0 0 .01v.01h.01a3.9 3.9 0 0 0 3.7 0c.49-.86.73-1.9.71-2.88-.01-.58-.14-1.37-.61-1.76a.05.05 0 0 0-.07 0c-.23.17-.46.38-.7.62-.44.46-1.3 1.4-2.01 2.08a.63.63 0 0 0-.14.2c-.28.6-.58 1.18-.89 1.72ZM7.28 9.6 5.49 8.2c-.39-.29-.8-.52-1.2-.69-.23-.09-.63-.17-.84-.02-.35.24-.22.93-.14 1.28a.02.02 0 0 0 .02.01h.02a.8.8 0 0 1 .61-.33c.26-.01.5.01.71.09.58.2 1.11.52 1.61.96a37.11 37.11 0 0 1 .47.4l.55-.27a.01.01 0 0 0 0-.02l-.02-.01ZM4.7 8.79c-.24-.1-.49-.13-.73-.1-.3.02-.6.2-.48.55.08.2.25.36.42.47.66.43 1.39.55 2.2.37a5.79 5.79 0 0 0 .34-.1v-.01c-.2-.2-.41-.38-.62-.54a4.44 4.44 0 0 0-1.13-.64Zm4.26-.04-.52.42c-.15.12-.4.28-.72.48v.03l.56.38.04-.01L9 8.78c.03-.06.02-.06-.03-.03Zm-.78 1.52a.01.01 0 0 0 0-.02l-.68-.46a.01.01 0 0 0-.02 0l-.57.27a.01.01 0 0 0 0 .03l.87.73h.01l.4-.55Zm-4.12-.22h-.02v.01c.36.4.75.75 1.17 1.02.32.21.65.34.98.4a1.51 1.51 0 0 0 1.43-.5l-.95-.81h-.04c-.4.13-.78.2-1.16.2a2.83 2.83 0 0 1-1.41-.32Zm4.34.3H8.4l-.41.6v.02c.41.31.86.6 1.35.74.77.22 1.54-.06 2.12-.57.2-.17.37-.36.53-.59.02-.02.01-.03-.02-.02-.45.17-.9.32-1.37.34a4.37 4.37 0 0 1-2.2-.52Z" fill="url(#a)"/><defs><linearGradient id="a" x1="2.7" y1="11.32" x2="13.88" y2="11.32" gradientUnits="userSpaceOnUse"><stop offset=".41" stop-color="#1EACE6"/><stop offset="1" stop-color="#E72D84"/></linearGradient></defs></svg>