<!-- by TradingView --><svg xmlns="http://www.w3.org/2000/svg" width="18" height="18"><path fill="#F0F3FA" d="M0 0h18v18H0z"/><ellipse rx=".34" ry="1.92" transform="scale(-1.0225 .97697) rotate(-45 3.635 9.223)" fill="#BCBDC0"/><ellipse rx=".69" ry="3.89" transform="matrix(-.72302 -.69082 -.72302 .69082 7.002 6.494)" fill="#939598"/><ellipse rx="1.16" ry="5.48" transform="matrix(-.5305 -.84768 -.86828 .49607 8.9 10.19)" fill="#00AEEF"/><ellipse rx="1.17" ry="6.56" transform="scale(-1.0225 .97697) rotate(-45 5.953 14.775)" fill="#EC008C"/><ellipse rx="1.14" ry="4.75" transform="matrix(0 -1 -1 0 8.91 12.86)" fill="#FFDE00"/><ellipse rx="1.15" ry="4.95" transform="matrix(-.30056 -.95376 -.96102 .27648 8.9 11.54)" fill="#8CC63F"/><path d="M8.29 9.2c-2.63 1.5-4.48 3.16-4.15 3.7l4.05-2.34c1.5-1.3 2.27-2 2.84-2.7-.8.32-1.8.8-2.74 1.35z" fill="#2E3092"/><path d="M9.52 11.12c-2.62 1.5-5.03 2.28-5.36 1.74l4.03-2.3c1.9-.6 2.96-.7 3.4-.73-.68.52-1.12.75-2.07 1.3z" fill="#00A650"/><path d="M6.4 11.91c.52-.1 1.5-.14 1.94-.15-.51.28-1.5.68-1.94.85-1.42.55-2.07.43-2.22.3.6.1 1.73-.63 2.22-1z" fill="#009A4E"/><path d="M8.18 10.56c-1.34.42-4.14 1.59-4.04 2.34.45.3 2.59-1.04 4.04-2.34z" fill="#363639"/></svg>