<!-- by TradingView --><svg width="18" height="18" viewBox="0 0 18 18" xmlns="http://www.w3.org/2000/svg"><path fill="url(#aiw100rfi)" d="M0 0h18v18H0z"/><path d="M5.4 5h7.2L14 7.53 10.38 14H7.62L4 7.53 5.4 5Zm.27.5L4.58 7.53 7.9 13.5h2.2l3.32-5.97-1.09-2.03H5.67Z" fill="#2F5BBA"/><path d="M8.22 10 8 9.47 8.78 8h.44L10 9.47l-.22.53H8.22ZM11.5 6h-5L7 7h4l.5-1ZM12.5 8l-2 4-.5-1 1.5-3h1ZM5.5 8l2 4 .5-1-1.5-3h-1Z" fill="#2F5BBA"/><defs><linearGradient id="aiw100rfi" x1="3.35" y1="3.12" x2="21.9" y2="24.43" gradientUnits="userSpaceOnUse"><stop stop-color="#1A1E21"/><stop offset="1" stop-color="#06060A"/></linearGradient></defs></svg>