<!-- by TradingView --><svg width="18" height="18" viewBox="0 0 18 18" xmlns="http://www.w3.org/2000/svg"><path fill="#F0F3FA" d="M0 0h18v18H0z"/><path d="M6.64 4.08c-.06-.18.46 0 .46 0 .25.01 1.59 1.77 1.59 1.77.23.25.58.92.58.92.58.8.66.89.66.89-.32.9-1.02-.5-1.02-.5-.19-.75-.42-1-.42-1-.42-.34-.74-1.01-.74-1.01-.07-.25-.65-.71-.65-.71-.4-.25-.46-.36-.46-.36Zm6.6.63c.54-.27.73 0 .73 0 .1.22-.1.27-.18.29h-.02c-.05-.28-.23-.04-.23-.04-.14.2-.38.12-.38.12l-.57.76c-.2.3-.86.92-.86.92-.23.43-.6.8-.6.8-.15 0-.45-.35-.45-.35.23-.15 1.15-1.2 1.15-1.2.68-1.12 1.42-1.3 1.42-1.3Zm-3.12 1.84s-1.23.13-.43.6l.25.05.83.65s.32-.01.08-.24l-.72-.63.03-.04c.09-.1.32-.34-.04-.4Zm-.4 1.58c.55-.12.28-.6.28-.6 0-.26.23-.04.23-.03.62.66.78.42.78.42.01-.23.24-.25.24-.25.57.47.37.63.37.63-.23.1-.8 1.52-.8 1.52.39.5-1.38 1.43-1.38 1.43a8.9 8.9 0 0 1-2.04.96c-.34.3-1.71.6-1.71.6l-2.62.88c-.53-.07 2.21-1.08 2.21-1.08.9-.57 1.7-.78 1.7-.78 2.86-.78 3.02-1.71 3.02-1.71-.04-.2.23-.52.23-.52.44-.39.5-.66.5-.66.08-.38-.19 0-.19 0a5.9 5.9 0 0 1-.87 1.12c-.02.25-.24.55-.24.55l-1 .66c-.98.44-.54.02-.54.02 1.38-.84 1.34-1.21 1.34-1.21.14-.58.41-.61.41-.61 1.09-.7.09-1.34.09-1.34Z" fill="#009EE0"/><path d="M9 4a5 5 0 1 0 0 10A5 5 0 0 0 9 4Zm0 9.54a4.53 4.53 0 1 1-.01-9.07A4.53 4.53 0 0 1 9 13.54Z" fill="#009EE0"/></svg>