<!-- by TradingView --><svg width="18" height="18" viewBox="0 0 18 18" xmlns="http://www.w3.org/2000/svg"><path fill="#F0F3FA" d="M0 0h18v18H0z"/><path d="M9.93 3.45a1 1 0 0 0 .25.6c.59.68 1.26 1.38 2 2.1l.78.8.67.67c.13.1.26.25.4.41l.4.4c.12.14.18.33.17.57 0 .04-.02.06-.03.07a.15.15 0 0 1-.09.03l-.54-.15a37 37 0 0 0-2.13-.48l-1.35-.34a.12.12 0 0 1-.07-.04l-.15-.27c-.28-.62-.48-1.22-.63-1.8 0-.04-.02-.05-.05-.05l-.02.01V6c-.1.63-.26 1.26-.47 1.89-.03.1-.07.1-.1 0a7.9 7.9 0 0 1-.49-1.99c0-.08-.02-.08-.04 0a11.04 11.04 0 0 1-.81 2.24H7.6a3.7 3.7 0 0 0-.93.2c-.23.08-.45.15-.67.2-.85.1-1.69.3-2.5.58-.05-.02-.1-.02-.14.01a.15.15 0 0 1-.07.03l-.14.02c-.04.01-.06.03-.08.05a.22.22 0 0 0-.03.08c-.11-.45.02-.86.39-1.22a494.61 494.61 0 0 0 4.52-4.52c.21-.2.39-.33.53-.4.52-.28 1-.18 1.45.3Z" fill="#026DB6"/><path d="M9.93 3.45a421.8 421.8 0 0 1 4.8 4.82c.22.22.3.52.26.89l-.36-.03c-.02-.03-.07-.04-.15-.03.04 0 .06-.01.09-.03L14.6 9c.01-.24-.05-.43-.17-.56l-.4-.41c-.14-.16-.27-.3-.4-.41-.2-.19-.42-.4-.67-.67-.25-.27-.5-.53-.78-.8a36.05 36.05 0 0 1-2-2.1 1 1 0 0 1-.25-.6Z" fill="#144E82"/><path d="M11.81 8.47a3 3 0 0 1 .61.4c.58.5.25.98-.28 1.28-.37.22-.8.37-1.29.46a10.1 10.1 0 0 1-2.7.15l-.65-.09a5.3 5.3 0 0 1-1.66-.51c-.19-.1-.38-.3-.57-.6A.71.71 0 0 1 5.43 9c.12-.14.31-.3.57-.46l.67-.21a3.7 3.7 0 0 1 .96-.2l.02-.03c.36-.76.62-1.5.79-2.21.02-.08.03-.08.04 0 .07.66.23 1.32.49 1.99.03.1.07.1.1 0a12.73 12.73 0 0 0 .49-1.9c.03-.01.04 0 .05.04.15.58.35 1.18.63 1.8l.15.27.07.04 1.35.34ZM6 9.29c-.03.25.1.47.37.67.05.03.09.02.12-.02.33-.4.62-.84.86-1.33l.13-.17a.03.03 0 0 0-.01-.05h-.02c-.67.09-1.16.39-1.45.9Zm5.1-.75-.45-.14h-.02c-.06 0-.07.05-.03.13.14.26.41.69.82 1.27.14.21.28.2.4-.02l.1-.16c.13-.22.1-.41-.08-.59-.25-.24-.5-.41-.75-.5Zm-2.06 1.65a.02.02 0 0 1-.02 0 .02.02 0 0 1-.02 0l-.54-.86a.02.02 0 0 0-.03-.01h-.01l-.62 1.09c-.05.08-.03.13.07.14l.74.07c.3.03.54.03.73.01a41.93 41.93 0 0 0 .84-.1.13.13 0 0 0 .04-.18l-.63-1c-.03-.03-.05-.03-.07 0l-.48.84Z" fill="#fff"/><path d="M7.35 8.6c-.5.08-.94.3-1.35.7a1.84 1.84 0 0 1 1.47-.9.03.03 0 0 1 0 .04l-.12.17ZM11.1 8.54c.24.08.49.25.74.5.18.17.2.36.08.58l-.1.16c-.12.23-.26.23-.4.02-.4-.58-.68-1-.82-1.27-.04-.08-.03-.13.03-.13h.02c.15.03.26.08.44.14Z" fill="#1D6232"/><path d="M14.48 9.1c.08 0 .13 0 .15.03-.1.21-.22.4-.39.56a203.16 203.16 0 0 0-3.23 3.3.95.95 0 0 0 .03.47L9.9 14.57a1.5 1.5 0 0 1-.45.32c-.47.2-.88.12-1.24-.23L3.43 9.89c-.17-.17-.3-.37-.4-.59l.04-.08c.02-.02.04-.04.08-.05l.14-.02c.02 0 .05-.01.07-.03.04-.03.09-.03.14 0-.08.04-.1.1-.08.17.03.06.1.17.16.23l1.31 1.32 2.98 2.96c.02.02.04.02.06 0 .72-.84 1.3-1.75 1.75-2.74.01-.02 0-.04-.03-.04h-.71c-.24 0-.48-.02-.72-.05l-.72-.1c-.4-.06-.8-.17-1.21-.33a2.2 2.2 0 0 1-.79-.5c-.17-.16-.25-.32-.23-.48.19.3.38.5.57.6a5.3 5.3 0 0 0 1.66.51l.65.1c.23.02.44.04.65.04.62.01 1.3-.05 2.05-.2.49-.09.92-.24 1.29-.46.53-.3.86-.78.28-1.29a3 3 0 0 0-.6-.4 37.05 37.05 0 0 1 2.12.49l.54.15Z" fill="#1D6232"/><path d="m14.63 9.13.36.03c-.06.3-.24.61-.54.9a779.74 779.74 0 0 1-3.41 3.4.95.95 0 0 1-.03-.48c0-.02.01-.05.03-.07 1.06-1.08 2.12-2.16 3.2-3.22.17-.16.3-.35.4-.56Z" fill="#6B9E4B"/><path d="M6 8.54c-.26.16-.45.32-.57.46a.71.71 0 0 0-.16.56c-.02.16.06.32.23.48.22.22.49.39.79.5a6.36 6.36 0 0 0 1.93.43c.24.03.48.05.72.04l.71.01c.03 0 .04.02.03.04-.45.99-1.03 1.9-1.75 2.74-.02.02-.04.02-.05 0l-2.99-2.96-1.3-1.32a.98.98 0 0 1-.17-.23c-.03-.07 0-.13.08-.18.81-.28 1.65-.48 2.5-.57Z" fill="url(#a)"/><path d="M7.35 8.6c-.24.5-.53.95-.86 1.34-.03.04-.07.05-.12.02-.27-.2-.4-.42-.37-.67.4-.38.86-.61 1.35-.68Z" fill="url(#b)"/><path d="m9.04 10.19.48-.83c.02-.04.04-.04.07 0l.63 1a.13.13 0 0 1 0 .12.13.13 0 0 1-.1.07l-.78.08c-.2.02-.44.02-.73-.01l-.74-.07c-.1 0-.12-.06-.07-.14l.62-1.08a.02.02 0 0 1 .03-.01h.01l.54.87h.01a.02.02 0 0 0 .02 0h.01Z" fill="url(#c)"/><defs><linearGradient id="a" x1="6.82" y1="8.54" x2="9.76" y2="11.18" gradientUnits="userSpaceOnUse"><stop stop-color="#8DBF45"/><stop offset="1" stop-color="#1D6232"/></linearGradient><linearGradient id="b" x1="6.82" y1="8.54" x2="9.76" y2="11.18" gradientUnits="userSpaceOnUse"><stop stop-color="#8DBF45"/><stop offset="1" stop-color="#1D6232"/></linearGradient><linearGradient id="c" x1="6.82" y1="8.54" x2="9.76" y2="11.18" gradientUnits="userSpaceOnUse"><stop stop-color="#8DBF45"/><stop offset="1" stop-color="#1D6232"/></linearGradient></defs></svg>