<!-- by TradingView --><svg width="18" height="18" viewBox="0 0 18 18" xmlns="http://www.w3.org/2000/svg"><path fill="#F0F3FA" d="M0 0h18v18H0z"/><path fill-rule="evenodd" d="m8.55 5.03-.13.13c-.03.03-.05.03-.05-.01v-.1A.05.05 0 0 0 8.32 5h-.96c-.03 0-.05 0-.06.03l-.63.63a.07.07 0 0 0-.02.08 1 1 0 0 1 .03.48c-.02.08-.05.08-.07 0l-.33-1.15a.1.1 0 0 0-.1-.07H4.73a.13.13 0 0 0-.1.04l-.58.6c-.03.02-.05.04-.05.07v.8c0 .02.02.03.04.03h.23c.13-.02.14.01.06.1l-.3.33a.1.1 0 0 0-.03.08v5.88l.02.03.01.02.03.02h.92c.03 0 .06-.02.08-.04l1.24-1.12.02-.01h.02a.04.04 0 0 1 .02.03l.3 1.05c.01.03.03.09.06.09h.85a.1.1 0 0 0 .05 0l.03-.02.21-.2c.1-.1.14-.08.12.06l-.01.06c-.01.04 0 .1.04.1h3.59c.04 0 .06 0 .08-.02l.73-.76a.11.11 0 0 0 .02-.04V8.3c0-.05.04-.08.09-.09.25-.02.49 0 .67.05.03 0 .05 0 .07-.02l.71-.72a.1.1 0 0 0 .03-.07v-.8a.1.1 0 0 0-.1-.11h-.5c-.07 0-.08-.03-.03-.08l.6-.56.02-.03.01-.03v-.8c0-.02-.01-.03-.04-.03h-2.6a.18.18 0 0 0-.13.05l-.22.23c-.03.03-.05.02-.06-.02a.28.28 0 0 1 .02-.18.06.06 0 0 0-.02-.07L10.92 5h-2.3a.1.1 0 0 0-.07.03Zm2.1 1.24-.04.19c-.01.06.01.1.07.1h.53c.06 0 .07.01.03.05l-.58.56a.1.1 0 0 0-.04.08v3.9H10l-.01-.03V6.61c0-.03.02-.05.04-.06h.02c.04 0 .07 0 .15.04l.06.01.04-.02.28-.34c.05-.05.07-.04.05.03Zm-3.2-1.11a9.87 9.87 0 0 0-.44.43l.01.02h.46c.02 0 .05-.01.08-.04l.09-.08a14.7 14.7 0 0 0 .36-.33v-.02l-.02-.02h-.45c-.02 0-.05 0-.09.04Zm-3.1.4.5-.42H5.9l.01.02a.03.03 0 0 1 0 .03l-.5.42H4.36l-.02-.02a.03.03 0 0 1 .01-.03Zm4.37-.43-.46.43v.06H10.15l.46-.44a.03.03 0 0 0 0-.04v-.01H8.71Zm2.22.44.47-.44a.03.03 0 0 1 .02 0H13.59l.01.01a.03.03 0 0 1 0 .03l-.46.44H10.94a.03.03 0 0 1 0-.04Zm-4.83-.34-.59.59a.04.04 0 0 0 0 .03A240.96 240.96 0 0 1 6.63 9.6h.03c.01 0 .02 0 .02-.02l-.01-2.31c0-.2-.03-.38-.1-.56a31.92 31.92 0 0 1-.47-1.48Zm1.88.53.02.03c.02.05.05.1.05.15v6.43c0 .02 0 .03-.02.05v.02a.16.16 0 0 1-.05.06l-.18.16c-.04.03-.06.02-.06-.03V5.82c0-.04.01-.07.04-.1l.42-.42a.05.05 0 0 1 .07 0l.02.03c.02.02.02.03 0 .04l-.3.3c-.02.03-.03.06 0 .09Zm5.73-.45a16.05 16.05 0 0 0-.43.48V6.2l.02.01a.04.04 0 0 0 .04 0 11.13 11.13 0 0 0 .42-.48v-.4a.04.04 0 0 0-.01-.03.04.04 0 0 0-.04 0Zm-3.14.47c.05.06.05.12 0 .18l-.22.23c-.06.06-.08.05-.08-.03v-.34c0-.03.01-.07.04-.1l.41-.41a.04.04 0 0 1 .06.02l.02.05a.1.1 0 0 1-.03.1l-.19.19a.08.08 0 0 0-.02.05l.01.06Zm-.99.76H9.01L9 6.58V11.76a.03.03 0 0 0 .03 0h.02l.56-.48h.01V6.54l-.03-.01Zm-4.72.43h-.51c-.06 0-.07-.02-.03-.06l.3-.3c.09-.09.16-.08.21.04.05.1.07.19.08.27 0 .03-.02.05-.05.05Zm8.28.17.46-.37.01-.01v-.02l-.01-.02H11.4l-.46.38-.01.01v.02l.01.02h2.21Zm.27.09a15.68 15.68 0 0 1 .35-.36h.02l.02.01v.47c0 .02-.01.05-.04.08l-.09.1a13.78 13.78 0 0 1-.35.35.04.04 0 0 1-.04-.02V7.4c0-.02.01-.05.04-.08l.09-.1Zm-7.23 4.35L5.06 7.42C5.02 7.3 5 7.3 5 7.43v5.23a.02.02 0 0 0 .02.02.02.02 0 0 0 .02 0l1.14-1.06v-.04ZM11.6 8h.54l.03.01.01.03v4.11l-.01.03-.54.53a.05.05 0 0 1-.04 0 .05.05 0 0 1-.03-.03V8.04l.01-.03.03-.01Zm-1.04 4.04V11.47h-.81l-.51.55-.01.02v.02l.01.01h1.31l.01-.03Z" fill="#F08200"/></svg>