<!-- by TradingView --><svg width="18" height="18" viewBox="0 0 18 18" xmlns="http://www.w3.org/2000/svg"><path fill="#F0F3FA" d="M0 0h18v18H0z"/><circle cx="9" cy="9" r="5" fill="#E3A417"/><path d="M8.46 4.03c.05.31.13.64.24.98.4 1.25 2.52 4.4 4.11 2.8.96-.95-1.18-2.17-2.12-2.7l-.09-.05a.14.14 0 0 0-.2.12c0 .04.02.08.06.1.46.3 2.41 1.6 1.91 2.1C11.22 8.51 9.54 5.6 9.3 4.81A6.4 6.4 0 0 1 9.1 4a5.04 5.04 0 0 0-.63.03Zm5.42 6.06A7.19 7.19 0 0 1 9.04 8.6 7.15 7.15 0 0 1 6.8 4.5a5 5 0 0 0-.57.33A7.7 7.7 0 0 0 8.65 9.1a7.82 7.82 0 0 0 5.04 1.64c.08-.21.14-.42.2-.64Zm-1.25 2.35a7.97 7.97 0 0 1-5-1.5c-1.34-1-2.38-2.89-2.8-4.7-.17.26-.32.53-.43.8a8.9 8.9 0 0 0 2.85 4.4 8.9 8.9 0 0 0 4.64 1.64 5 5 0 0 0 .74-.64ZM9.26 14a6.28 6.28 0 0 1-3.2-1.18A5.52 5.52 0 0 1 4 9a5 5 0 0 0 5.26 5Z"/></svg>