<!-- by TradingView --><svg width="18" height="18" viewBox="0 0 18 18" xmlns="http://www.w3.org/2000/svg"><path fill="#F0F3FA" d="M0 0h18v18H0z"/><path d="M9 5.8c1.36.73 2.47 1.88 2.47 3.3 0 1.94-1.05 3.52-2.76 3.9H14V5a5.5 5.5 0 0 1-2.62.92c-.8 0-1.77-.07-2.38-.12ZM6.23 5H4v1.57C4.31 5.93 5.04 5.04 6.23 5Zm-.2 8c-.97-.21-1.68-.81-2.03-2.34V13h2.04ZM4 10c.2-.8.96-2 2.56-2C7.8 8 8.4 8.73 8.4 9.46c0 .72-.58 1.36-.97 1.54.14-.4.24-.91.24-1.4 0-.5-.2-1.1-1.32-1.1-1.11 0-1.77.76-1.77 1.94s1.3 2.4 2.55 2.4c1.25 0 2.86-1.07 2.86-3.64a3.4 3.4 0 0 0-3.39-3.53c-1.1 0-2.08.89-2.61 1.7V10Z" fill="#E6BE07"/></svg>