<!-- by TradingView --><svg width="18" height="18" viewBox="0 0 18 18" xmlns="http://www.w3.org/2000/svg"><path fill="#F0F3FA" d="M0 0h18v18H0z"/><path d="m14 7-.63-2.26-.1.78A6.6 6.6 0 0 0 9 4c-2.01.02-4 1.05-5 2.75l.25.14a6.37 6.37 0 0 1 4.51-2.15 5.65 5.65 0 0 1 2.95.76c.27.16.5.4.73.6h-.94L14 7Z" fill="#0994D9"/><path d="m4 11 .63 2.26.1-.78A6.6 6.6 0 0 0 9 14c2.01-.02 4-1.05 5-2.75l-.25-.14a6.37 6.37 0 0 1-4.51 2.15 5.65 5.65 0 0 1-2.95-.76c-.27-.16-.5-.4-.73-.6h.94L4 11ZM12.3 7h.7v4h-.7V9.33H10.7V11H10V7h.69v1.67h1.62V7Z" fill="#8FD300"/><path d="M7.33 7H8v4h-.43L5.8 8.6V11H5V7h.4l1.93 2.53V7Z" fill="#0994D9"/></svg>