<!-- by TradingView --><svg width="18" height="18" viewBox="0 0 18 18" xmlns="http://www.w3.org/2000/svg"><path fill="#F0F3FA" d="M0 0h18v18H0z"/><path d="M4.94 12 3 10.2l3.88-3.4L9 8.4l2.3-1.6 3.7 3.4-1.59 1.8-2.3-2-1.93 2-2.12-2-2.12 2Z"/><path d="M4.94 11.6 3 9.7l2.12-.64-.18 2.54Z" fill="#71BF45"/><path d="M5.12 9.06 3 9.69 4.76 8l.36 1.06Z" fill="#009A4E"/><path d="M5.12 9.06 4.76 8l1.77 1.7-1.41-.64Z" fill="#005B34"/><path d="m6.53 9.7-1.59 1.9.18-2.54 1.41.63Z" fill="#009A4E"/><path d="M7.06 9.6 5.12 7.7l2.12-.64-.18 2.54Z" fill="#71BF45"/><path d="m7.24 7.06-2.12.63L6.88 6l.36 1.06Z" fill="#009A4E"/><path d="M7.24 7.06 6.88 6l1.77 1.7-1.41-.64Z" fill="#005B34"/><path d="m8.65 7.7-1.6 1.9.19-2.54 1.4.63Z" fill="#009A4E"/><path d="M9.18 11.6 7.24 9.7l2.11-.64-.17 2.54Z" fill="#71BF45"/><path d="m9.35 9.06-2.11.63L9 8l.35 1.06Z" fill="#009A4E"/><path d="M9.35 9.06 9 8l1.76 1.7-1.4-.64Z" fill="#005B34"/><path d="m10.77 9.7-1.6 1.9.18-2.54 1.42.63Z" fill="#009A4E"/><path d="M11.3 9.6 9.34 7.7l2.12-.64-.18 2.54Z" fill="#71BF45"/><path d="m11.47 7.06-2.12.63L11.12 6l.35 1.06Z" fill="#009A4E"/><path d="M11.47 7.06 11.12 6l1.76 1.7-1.4-.64Z" fill="#005B34"/><path d="M12.88 7.7 11.3 9.6l.18-2.54 1.41.63Z" fill="#009A4E"/><path d="m13.41 11.6-1.94-1.9 2.12-.64-.18 2.54Z" fill="#71BF45"/><path d="m13.59 9.06-2.12.63L13.24 8l.35 1.06Z" fill="#009A4E"/><path d="M13.59 9.06 13.24 8 15 9.7l-1.41-.64Z" fill="#005B34"/><path d="m15 9.7-1.59 1.9.18-2.54 1.41.63Z" fill="#009A4E"/></svg>