<!-- by TradingView --><svg width="18" height="18" viewBox="0 0 18 18" xmlns="http://www.w3.org/2000/svg"><path fill="url(#aajqzumaw)" d="M0 0h18v18H0z"/><path fill-rule="evenodd" d="m3.99 9 3.1-3.03L8.5 7.36 6.83 9l1.68 1.64-1.42 1.4L3.99 9ZM9 11.13 7.09 13 3 9l4.09-4L9 6.87 10.91 5 15 9l-4.09 4L9 11.13Zm.5-3.77 1.41-1.4L14.01 9l-3.1 3.03-1.42-1.39L11.17 9 9.5 7.36Zm-.5.48L10.18 9 9 10.16 7.82 9 9 7.84Z" fill="#F39834"/><defs><linearGradient id="aajqzumaw" x1="3.35" y1="3.12" x2="21.9" y2="24.43" gradientUnits="userSpaceOnUse"><stop stop-color="#1A1E21"/><stop offset="1" stop-color="#06060A"/></linearGradient></defs></svg>