<!-- by TradingView --><svg width="18" height="18" viewBox="0 0 18 18" xmlns="http://www.w3.org/2000/svg"><path fill="#F0F3FA" d="M0 0h18v18H0z"/><path d="M7.58 5.15v6.23c0 .03 0 .05.02.06a.1.1 0 0 0 .05.04c.42.12.72.25 1.11.38.07.02.1.06.08.12l-.02.02c-.05-.08-.15-.12-.3-.14a3.85 3.85 0 0 0-.76-.06 5.86 5.86 0 0 0-1.6-.27.16.16 0 0 1-.11-.06c-.03-.03-.18-.04-.18-.09V5.34l.15-.28c0-.04.02-.05.05-.05l1.51.14Z" fill="#65B722"/><path d="M9.9 6.14H9V12h-.2c.02-.05.02-.12-.05-.14-.39-.12-.7-.24-1.11-.36a.1.1 0 0 1-.05-.04.1.1 0 0 1-.02-.06V5L9.9 6.14Z" fill="#0957A4"/><path d="M6 5.2v6.08c0 .04.03.14.06.17.03.04.05.07.1.08.52.01 1.05.1 1.59.27l-3.27-.2c-.03 0-.05-.03-.05-.07V5.12L6 5.2Z" fill="#F60"/><path d="M4.43 5.49v6.05c0 .04.09.06.12.06l3.2.2c.15-.01.4 0 .77.05.14.02.24.08.3.15H3.04L3 11.99 3 11.96V5.54l.01-.04.04-.01h1.38Z" fill="#D90016"/><path d="M9 12V6h6v5.98a.02.02 0 0 1-.02.02H9Z"/></svg>