<!-- by TradingView --><svg width="18" height="18" viewBox="0 0 18 18" xmlns="http://www.w3.org/2000/svg"><path fill="#F0F3FA" d="M0 0h18v18H0z"/><path d="M9.34 3c3.14.21 5.5 2.5 5.66 5.45v.4l-.1.82c-.4.36-.84.67-1.33.92.51-1.13.58-2.26.2-3.37a5.05 5.05 0 0 0-5.56-3.23 5.07 5.07 0 0 0-3.16 1.77 4.5 4.5 0 0 0-.84 4.28c.28.83.77 1.55 1.48 2.16l-.82.56A5.44 5.44 0 0 1 4.9 4.5 6.07 6.07 0 0 1 8.66 3h.68Z" fill="#F7941C"/><path d="M9.07 4.34A5.08 5.08 0 0 1 9.7 9.2a3.77 3.77 0 0 0-2.02-3.27l1.35-1.6c.02-.02.03-.02.04 0Z" fill="#0C4DA2"/><path d="M9.46 4.7a7.52 7.52 0 0 1 2.49 5.45c.01.83-.1 1.68-.43 2.45l-.04.03c-.33.04-.65.04-.97 0l-1.16-.18c-.91-.12-1.46-.21-2.22-.02-.06.02-.06 0-.01-.03 1.84-1.26 3.26-3.16 3.06-5.4a5.22 5.22 0 0 0-.72-2.3Z" fill="#00A1E4"/><path d="M14.9 9.67c-.06.3-.14.6-.25.88a.64.64 0 0 1-.15.24 7.24 7.24 0 0 1-2.05 1.28l.2-.2c.38-.4.69-.82.92-1.28.49-.25.93-.56 1.33-.92Z" fill="#0C4DA2"/><path d="m5.64 13.29-.03.01c.62-.5 1.33-.78 2.15-.84.33-.02.71 0 1.15.07l1.43.23c.37.06.82.06 1.35 0a4.43 4.43 0 0 0 2.78-1.44v.01c-.27.8-.81 1.38-1.63 1.76-.44.2-.9.3-1.37.3-.79 0-1.56-.21-2.35-.47a4.92 4.92 0 0 0-.86-.18 3.78 3.78 0 0 0-2.62.54Z" fill="#00A1E4"/><path d="m4.87 12.76.82-.56.59.42v.03c-.3.15-.56.34-.79.56-.01.02-.03.02-.04 0l-.58-.45Z" fill="#0C4DA2"/><path d="M6.1 13.1c.5-.2.96-.28 1.35-.27.84.03 1.52.27 2.4.55.37.12.67.2.9.23.8.12 1.58 0 2.32-.36.3-.15.57-.36.8-.63.04-.04.04-.04.02.02a2.6 2.6 0 0 1-1.22 1.27c-.55.23-1.1.33-1.7.21-.77-.14-1.38-.43-2.17-.79a4.4 4.4 0 0 0-2.45-.27c-.08.01-.19.06-.29.07-.03 0-.04 0 0-.02h.01a.1.1 0 0 0 .03 0Z" fill="#00A1E4"/><path d="M12.73 14.3c-.25.36-.66.67-1.12.7a1.8 1.8 0 0 1-.96-.2c-.38-.2-.66-.4-1.07-.7-.35-.26-.7-.48-1.07-.66a3.4 3.4 0 0 0-1.3-.35c.68-.04 1.33.23 1.93.52.77.38 1.26.65 1.82.8.57.17 1.2.1 1.75-.13.03-.01.03 0 .02.02Z" fill="#00A1E4"/><path fill="#0C4DA2" d="M5 8h4v1H5z"/></svg>