<!-- by TradingView --><svg width="18" height="18" viewBox="0 0 18 18" xmlns="http://www.w3.org/2000/svg"><path fill="#F0F3FA" d="M0 0h18v18H0z"/><path fill="#D9D9D9" d="M5 5h8v8H5z"/><path d="M8.65 7.6c.3-.27.72-.6 1.54-.6.86 0 1.44.7 1.44 1.2v1.76c.02.16.04.38.37.38V11H9.63v-.66c.12-.06.37-.25.37-.48V8.74c-.04-.14-.24-.43-.75-.43a.72.72 0 0 0-.6.32v1.3c.05.08.2.27.34.35V11H6.5v-.58c.23-.08.5-.3.5-.58v-1.6a1.42 1.42 0 0 1-.05-.1c-.08-.16-.18-.38-.45-.38V7h2.15v.6Z" fill="#82263F"/><path fill-rule="evenodd" d="M9.15 7.23a2.2 2.2 0 0 0-.5.37v-.59H6.5v.75c.27 0 .37.22.45.38l.05.1v1.6c0 .27-.27.5-.5.58V11H9v-.72a1.2 1.2 0 0 1-.35-.35v-1.3a.72.72 0 0 1 .6-.32c.51 0 .71.29.75.43v1.12c0 .23-.25.42-.37.48V11H12v-.65c-.33 0-.35-.22-.36-.39l-.01-.1V8.2c0-.5-.58-1.2-1.44-1.2-.45 0-.78.1-1.04.23Zm0-.55v-.17H6v1.75h.45l.05.1v1.47l-.03.03a.37.37 0 0 1-.13.1l-.34.1v1.44h3.5v-.01h3V9.84h-.37V8.2c0-.42-.23-.85-.56-1.15a2 2 0 0 0-1.38-.55c-.42 0-.76.07-1.04.18Zm.2 3.24.05-.02.04-.03a.39.39 0 0 0 .06-.05v-.95c-.02-.02-.1-.06-.25-.06a.2.2 0 0 0-.1.02v.94a.83.83 0 0 0 .06.06l.03.02.12.07Zm-2.85-.1Z" fill="#fff"/><path fill="#E8712D" d="M5 4h8v1H5zM5 13h8v1H5z"/></svg>