<!-- by TradingView --><svg width="18" height="18" viewBox="0 0 18 18" xmlns="http://www.w3.org/2000/svg"><path fill="#FFFFE8" d="M0 0h18v18H0z"/><path fill-rule="evenodd" d="M13.83 4.17H4.17v9.66h9.66V4.17ZM4 4v10h10V4H4Z" fill="#604D46"/><path fill-rule="evenodd" d="M13.5 4.5h-9v9h9v-9Zm-9.17-.17v9.34h9.34V4.33H4.33Z" fill="#604D46"/><path d="M6 13v.33h2.33V13H8v-.33h-.33v-.34h-.34V12H7v.33h-.33v.34h-.34V13H6ZM6 5v-.33h2.33V5H8v.33h-.33v.34h-.34V6H7v-.33h-.33v-.34h-.34V5H6ZM12 13v.33H9.67V13H10v-.33h.33v-.34h.34V12H11v.33h.33v.34h.34V13H12ZM12 5v-.33H9.67V5H10v.33h.33v.34h.34V6H11v-.33h.33v-.34h.34V5H12ZM5 9.67h-.33V12H5v-.33h.33v-.34h.34V11H6v-.33h-.33v-.34h-.34V10H5v-.33ZM5 8.33h-.33V6H5v.33h.33v.34h.34V7H6v.33h-.33v.34h-.34V8H5v.33ZM13 9.67h.33V12H13v-.33h-.33v-.34h-.34V11H12v-.33h.33v-.34h.34V10H13v-.33ZM13 8.33h.33V6H13v.33h-.33v.34h-.34V7H12v.33h.33v.34h.34V8H13v.33Z" fill="#B30503"/><path fill-rule="evenodd" d="M10 8H8v2h2V8Zm-2.67-.67v3.34h3.34V7.33H7.33Z" fill="#F7CA26"/><path fill-rule="evenodd" d="M8.33 8.33v.34L8 9l.33.33v.34h.34L9 10l.33-.33h.34v-.34L10 9l-.33-.33v-.34h-.34L9 8l-.33.33h-.34Zm.36.55-.29-.2V8.4h.26l.16.32c-.06.04-.1.1-.13.16Zm-.02.06-.31-.2-.27.26.28.28.32-.16a.33.33 0 0 1-.02-.18Zm.05.24-.32.16v.26h.26l.16-.32a.34.34 0 0 1-.1-.1Zm.16.13-.16.32.28.28.28-.28-.16-.32a.33.33 0 0 1-.24 0Zm.3-.03.16.32h.26v-.26l-.32-.16a.34.34 0 0 1-.1.1Zm.13-.16.32.16L9.9 9l-.28-.28-.32.16a.33.33 0 0 1 0 .24Zm-.03-.3.32-.16V8.4h-.26l-.16.32c.04.03.08.06.1.1Zm-.16-.13.16-.32L9 8.1l-.28.28.16.32a.33.33 0 0 1 .24 0Zm.15.31a.27.27 0 1 1-.54 0 .27.27 0 0 1 .54 0Z" fill="#A02A28"/><path fill-rule="evenodd" d="M9.67 7.33V7h.66v-.33h.34V6H11v-.33h.33v-.34h.34V5H12l.33-.33h1V6H13v.33h-.33v.34h-.34V7H12v.33h-.67V8H11v.33h-.33v-1h-1Zm2.66-2v-.5h.84v1h-.5v-.5h-.34Z" fill="#008204"/><path fill="#080005" d="M10.67 7H11v.33h-.33zM11 6.67h.33V7H11zM11.33 6.33h.33v.33h-.33zM11.67 6H12v.33h-.33zM12 5.67h.33V6H12zM12.33 5.33h.33v.33h-.33z"/><path fill-rule="evenodd" d="M9.67 10.67V11h.66v.33h.34V12H11v.33h.33v.34h.34V13H12l.33.33h1V12H13v-.33h-.33v-.34h-.34V11H12v-.33h-.67v-.34H11V10h-.33v.67h-1Zm2.66 2v.5h.84v-1h-.5v.5h-.34Z" fill="#008204"/><path fill="#080005" d="M10.67 11H11v-.33h-.33zM11 11.33h.33V11H11zM11.33 11.67h.33v-.33h-.33zM11.67 12H12v-.33h-.33zM12 12.33h.33V12H12zM12.33 12.67h.33v-.33h-.33z"/><path fill-rule="evenodd" d="M8.33 7.33V7h-.66v-.33h-.34V6H7v-.33h-.33v-.34h-.34V5H6l-.33-.33h-1V6H5v.33h.33v.34h.34V7H6v.33h.67V8H7v.33h.33v-1h1Zm-2.66-2v-.5h-.84v1h.5v-.5h.34Z" fill="#008204"/><path fill="#080005" d="M7.33 7H7v.33h.33zM7 6.67h-.33V7H7zM6.67 6.33h-.33v.33h.33zM6.33 6H6v.33h.33zM6 5.67h-.33V6H6zM5.67 5.33h-.33v.33h.33z"/><path fill-rule="evenodd" d="M8.33 10.67V11h-.66v.33h-.34V12H7v.33h-.33v.34h-.34V13H6l-.33.33h-1V12H5v-.33h.33v-.34h.34V11H6v-.33h.67v-.34H7V10h.33v.67h1Zm-2.66 2v.5h-.84v-1h.5v.5h.34Z" fill="#008204"/><path fill="#080005" d="M7.34 11H7v-.33h.33zM7 11.34h-.33V11H7zM6.66 11.66h-.33v-.33h.33zM6.34 12H6v-.33h.33zM6 12.34h-.33V12H6zM5.66 12.66h-.33v-.33h.33z"/></svg>