<!-- by TradingView --><svg width="18" height="18" viewBox="0 0 18 18" xmlns="http://www.w3.org/2000/svg"><path fill="#AF0028" d="M0 0h18v18H0z"/><path fill-rule="evenodd" d="m8.81 3 1.15 2.77L12.6 4.3l-.66 2.81 3.06.24-2.38 1.7L15 11.02l-3.28.13.74 2.57-2.39-1.36L8.92 15l-1.18-2.7-2.39 1.44.76-2.64L3 10.85l2.4-1.78L3 7.16l3.1-.12-.9-2.78 2.61 1.47 1-2.73Zm.02.92.83 2.02-.74.42-.81-.46.72-1.98Zm.02 2.77L8 6.21 7.6 7.3l-1.04.04.23.7H8.3l.55-1.35Zm.13 0 .51 1.35h1.76L9.9 9.14l.61 1.62-1.6-1.05-1.59 1.05.62-1.62L6.8 8.1l.08.28-.96.72.9.72-.3 1 .97.08.4.93.92-.55 1.09.62.44-1 .94-.04-.3-1.05 1.09-.78-.78-.65.23-.98-1.31-.1-.43-1.05-.8.46ZM5.8 4.98 7.7 6.04 7.36 7l-.9.03-.67-2.05ZM3.88 7.44l2.33-.09.29.9-.84.62-1.78-1.43Zm.01 3.16 1.77-1.31.79.63-.25.86-2.31-.18Zm2.01 2.43.55-1.9.81.06.35.8-1.7 1.04Zm3.02 1.12-.88-2.03.79-.47.95.54-.86 1.96Zm3-1.11-1.72-.98.38-.86.8-.03.54 1.87Zm2.22-2.3-2.5.1-.27-.92.97-.69 1.8 1.5Zm-.05-3.15-1.73 1.23-.68-.57.2-.83 2.2.17Zm-3.63-.6 1.14.09.5-2.14-2.02 1.14.38.91Zm-1.93 1.3.39-.86.34.86h1.12l-.85.77.35.93-.96-.64-.97.64.35-.92-.78-.78h1.01Z" fill="#FDF8F9"/></svg>