<!-- by TradingView --><svg width="18" height="18" viewBox="0 0 18 18" xmlns="http://www.w3.org/2000/svg"><path fill="#F0F3FA" d="M0 0h18v18H0z"/><path d="M6.3 4.39 4.8 10h.4c.24 0 .45-.2.51-.45l1.17-4.33c.02-.06.07-.1.14-.1.05 0 .1.03.13.09l1.14 2.98-1.42 5.33c-.07.24.12.48.37.48h3.97c.26 0 .48-.08.56-.32l.01-.06H8.16c-.25 0-.44-.32-.37-.57l.48-1.8h2.7c.25 0 .48-.12.57-.35l.01-.02H8.84c-.12-.01-.34-.08-.4-.27l.32-1.21c.14.33.3.49.38.54l.02.03.04.03h.32c.13 0 .24-.13.28-.27l.34-1.36h4.83L15 9a6 6 0 1 1-4.34-5.77L9.46 8h-.74L7.23 4.33C7.16 4.14 6.98 4 6.8 4h-.02c-.22 0-.41.17-.47.39Zm5.06-.9L10.23 8h4.69a6 6 0 0 0-3.56-4.52ZM9.17 9.1l-.2-.5.06-.23h.33l-.19.73Z" fill="#D90C18"/></svg>