<!-- by TradingView --><svg width="18" height="18" viewBox="0 0 18 18" xmlns="http://www.w3.org/2000/svg"><path fill="#F0F3FA" d="M0 0h18v18H0z"/><path d="M11.55 9.34c-.1 0-.14-.03-.14-.16v-1c0-.45.22-.75.62-.8.2-.04.4-.03.59-.03h2.3c.07 0 .08.02.08.1v.42c0 .1-.03.13-.12.13H12.3c-.2 0-.3.13-.3.36v.25c-.01.05 0 .07.05.06h2.78c.13 0 .16.03.16.18V9.9c0 .35-.18.59-.48.7a1.2 1.2 0 0 1-.4.06h-2.64c-.06 0-.07-.02-.07-.08v-.43c0-.13.02-.16.13-.16H14.16c.14-.03.22-.12.24-.28v-.24c0-.1-.03-.14-.12-.14h-2.73ZM7.2 8.37v-.95c0-.05.01-.07.06-.07h.42c.1 0 .12.03.12.14V9c0 .52.17.85.62.98.42.12.83.12 1.24-.03.38-.14.54-.47.54-.92V7.52c0-.16.02-.17.16-.17h.38c.05 0 .06 0 .06.06 0 .59.01 1.18-.01 1.77-.03.7-.35 1.17-.98 1.38a2.79 2.79 0 0 1-1.93-.14 1.33 1.33 0 0 1-.64-1c-.07-.37-.02-.74-.04-1.05Z" fill="#57585A"/><path d="M4.37 11.1h.37c.1 0 .16.06.21.14.3.48.67.9 1.1 1.26.64.51 1.36.84 2.15.97a4.77 4.77 0 0 0 4.82-2.22c.07-.1.15-.15.27-.15h.32A5.2 5.2 0 0 1 9.37 14a5.19 5.19 0 0 1-5-2.89ZM4.36 6.86C5.42 5.03 6.95 3.98 9.03 4c2.05.02 3.55 1.06 4.58 2.86v.03h-.44c-.06 0-.1-.07-.14-.12A4.87 4.87 0 0 0 9.68 4.5a4.76 4.76 0 0 0-4.7 2.21c-.08.13-.17.2-.32.19h-.29l-.01-.04Z" fill="#E31937"/><path d="m6.82 7.34-.02.03-.04.04-2.75 3.1a.44.44 0 0 1-.36.16h-.63c0-.03.02-.04.03-.05l.01-.01 2.77-3.1c.1-.12.2-.17.34-.17h.65ZM3 7.34h.33c.16 0 .3 0 .46.02a.3.3 0 0 1 .17.1l.65.73c.06.06.06.12 0 .19l-.14.14-.17.2c-.02.03-.04.04-.07 0L3 7.34Zm3.7 3.33h.1v-.02l-.6-.68-.6-.67c-.03-.04-.05-.02-.07 0l-.1.12-.2.23c-.07.06-.06.13 0 .2l.62.69c.07.08.16.13.27.13H6.71Z" fill="#57585A"/></svg>