<!-- by TradingView --><svg width="18" height="18" viewBox="0 0 18 18" xmlns="http://www.w3.org/2000/svg"><path fill="#F0F3FA" d="M0 0h18v18H0z"/><path d="M4 5a1 1 0 0 1 1-1h8a1 1 0 0 1 1 1v8a1 1 0 0 1-1 1H5a1 1 0 0 1-1-1V5Z" fill="#E7DE59"/><path d="m7.38 6 1.27 1.82h.03l.16-.02a.03.03 0 0 0 .02-.03l.22-2.17c0-.02 0-.03-.02-.03h-.32A2.62 2.62 0 0 0 7.38 6ZM10.62 5.97a2.26 2.26 0 0 0-1.47-.38v.18l.01.08v.19a91.12 91.12 0 0 0 .1 1.76l.18.04a.04.04 0 0 0 .04-.02l1.14-1.83v-.02ZM5.6 7.01 7.28 6a.01.01 0 0 1 .01 0l1.05 1.95a.01.01 0 0 1 0 .02h-.02L5.6 7.03a.01.01 0 0 1 0-.02ZM10.3 8.52l1.83-1.07a.01.01 0 0 0 0-.02c-.31-.64-.79-1.1-1.42-1.38l-.03.01-.82 1.98a.03.03 0 0 0 0 .03 38.51 38.51 0 0 1 .44.45ZM4 8.9v-1l1.45-.83h.02l2.19 1.28a.01.01 0 0 1 0 .02l-.67.4a103.79 103.79 0 0 1-2.97.15L4 8.9ZM14 8.97V7.58a7057.9 7057.9 0 0 1-2.02 1.26 68.26 68.26 0 0 0 1.9.12l.12.01ZM4 10.5V9.05l2.24.1c.03 0 .03 0 0 .02l-.02.01a1495.92 1495.92 0 0 0-2.2 1.32v-.02H4ZM14 10.19V9.05a1.72 1.72 0 0 1-.29.02 533.71 533.71 0 0 0-2.41.12 82.82 82.82 0 0 1-.68.42l2.07 1.35a.04.04 0 0 0 .04 0L14 10.2ZM8.24 9.92l-.89 2.01v.01h-.02c-.54-.3-1-.75-1.31-1.29-.01-.02 0-.04.01-.05a5699.07 5699.07 0 0 0 1.9-1.07l.3.37h.01v.02ZM9.8 10.05l.92 2.05h.01l1.84-1.09v-.02l-2.36-1.2-.4.24v.01ZM7.44 11.97l1.14-1.86a.01.01 0 0 1 .01 0l.24.02a4.34 4.34 0 0 1 .03.16 977.94 977.94 0 0 1 .17 2.09 4.53 4.53 0 0 1-.38 0 2.84 2.84 0 0 1-1.2-.4v-.01ZM10.26 11.4l-.59-1.12a2.36 2.36 0 0 1-.07-.15h-.03l-.28.02v.01l-.1 2.25a.01.01 0 0 0 .01.01c.29 0 .57-.03.85-.1a2.11 2.11 0 0 0 .57-.23l-.36-.7Z" fill="#B93129"/></svg>