<!-- by TradingView --><svg width="18" height="18" viewBox="0 0 18 18" xmlns="http://www.w3.org/2000/svg"><path fill="#F0F3FA" d="M0 0h18v18H0z"/><circle cx="9" cy="9" r="5" fill="#003B95"/><ellipse cx="9.01" cy="9.14" rx="4.33" ry="4.86" fill="url(#apsn24blk)"/><path d="M4.38 10.9c.84-.47 2.27-1.47 2.74-2.5 0 .61-.46 2.13-2.16 3.55a5 5 0 0 1-.58-1.04Zm1.46 1.97a6.66 6.66 0 0 0 2.08-3.59c.1.72 0 2.5-1.22 4.16-.3-.16-.6-.35-.86-.57Zm2.53 1.1.7-5.65.62 5.63a5.05 5.05 0 0 1-1.32.01Zm2.93-.53a6.09 6.09 0 0 1-1.21-4.16 6.66 6.66 0 0 0 2.07 3.6 5 5 0 0 1-.86.56Zm1.74-1.5c-1.7-1.41-2.15-2.93-2.16-3.54.47 1.03 1.9 2.02 2.74 2.5a5 5 0 0 1-.58 1.05Z" fill="url(#bpsn24blk)"/><path d="m9.01 4.54.16.47h.5l-.4.3.15.47-.4-.3-.41.3.15-.48-.4-.29h.5l.15-.47ZM7.08 6.07l.16.48h.5l-.4.29.15.48-.4-.3-.41.3.15-.48-.4-.3h.5l.15-.47ZM10.97 6.07l.15.48h.5l-.4.29.15.48-.4-.3-.4.3.15-.48-.4-.3h.5l.15-.47Z" fill="#fff"/><defs><linearGradient id="apsn24blk" x1="9.01" y1="4.28" x2="9.01" y2="14" gradientUnits="userSpaceOnUse"><stop stop-color="#73B2E2"/><stop offset=".46" stop-color="#0057A8"/><stop offset=".72" stop-color="#003B95"/></linearGradient><linearGradient id="bpsn24blk" x1="9" y1="8.32" x2="9" y2="14" gradientUnits="userSpaceOnUse"><stop stop-color="#FFFFFE"/><stop offset="1" stop-color="#9ED8F7"/></linearGradient></defs></svg>