<!-- by TradingView --><svg width="18" height="18" viewBox="0 0 18 18" xmlns="http://www.w3.org/2000/svg"><path fill="#F0F3FA" d="M0 0h18v18H0z"/><path d="M9 10.85c.38 0 .57-.12.57-.47V7.57c0-.34-.23-.4-.57-.42V7h1.68l1.3 2.74h.06L13.22 7H15v.15c-.43.03-.57.16-.57.54v2.62c0 .37.14.53.57.54V11h-2.2v-.15c.35-.01.49-.1.49-.44V7.52h-.05L11.73 11h-.18L9.89 7.59h-.03v2.68c0 .4.23.56.69.58V11H9v-.15ZM3 10.85c.33-.01.59-.1.59-.42V7.57c0-.32-.26-.4-.59-.42V7h2.37v.15c-.33.02-.6.09-.6.42v1.18h1.47V7.57c0-.33-.27-.4-.6-.42V7H8v.15c-.33.02-.59.1-.59.42v2.86c0 .32.26.4.59.42V11H5.65v-.15c.33-.01.59-.1.59-.42V9H4.76v1.43c0 .33.26.4.6.42V11H3v-.15Z" fill="#4FADE9"/></svg>