<!-- by TradingView --><svg width="18" height="18" viewBox="0 0 18 18" xmlns="http://www.w3.org/2000/svg"><path fill="#F0F3FA" d="M0 0h18v18H0z"/><path d="m5.01 7.34 1.41.81L4.07 11H2l3.01-3.66ZM10.94 11l-1.57-.6 2.6-3.4H14l-3.06 4Z" fill="#231815"/><path d="M2.59 7.83c.22-.15.89-.46 1.7-.46.47 0 .99.23 1.55.6.55.38 1.12.9 1.68 1.46A4.95 4.95 0 0 0 10.93 11a7.9 7.9 0 0 0 2.92-.76l-.23.76.9-.7.92.7-.35-1.12.91-.69h-1.13l-.34-1.12-.35 1.12h-1.13l.8.6c-1.14.52-2.15.84-2.92.84-.79 0-2.04-.37-3.13-1.48a11.95 11.95 0 0 0-1.74-1.52A3.24 3.24 0 0 0 4.28 7c-.9 0-1.64.3-1.91.49l.22.34Z" fill="#E60012"/></svg>