<!-- by TradingView --><svg width="18" height="18" viewBox="0 0 18 18" xmlns="http://www.w3.org/2000/svg"><path fill="#F0F3FA" d="M0 0h18v18H0z"/><path d="M2.91 7h1.23l1.4 2.25L6.12 7H7l-.88 4H5.09L3.45 8.4l-.6 2.6H2l.91-4Z" fill="#1C5133"/><path fill-rule="evenodd" d="M9.41 7H8L7 11h3.06c1.21 0 1.6-.67 1.6-1.27 0-.59-.4-.78-.54-.83.17-.03.88-.18.88-1.03 0-.7-.84-.87-1.26-.87H9.42Zm-.17.72L8.6 10.3h.77c.32 0 .97-.11.97-.6 0-.36-.38-.4-.6-.4h-.28l-.4-.73h.81c.25.01.8-.08.8-.5 0-.17-.17-.34-.4-.34H9.25Z" fill="#1C5133"/><path d="M12.65 7.77a.93.93 0 0 1 .89-.77H16l-.16 1h-2.08l-.2 1h2.1l-.16 1h-1.64l-.32-.89-.38 1.89H12l.65-3.23Z" fill="#1C5133"/></svg>