<!-- by TradingView --><svg width="18" height="18" viewBox="0 0 18 18" xmlns="http://www.w3.org/2000/svg"><path fill="#F0F3FA" d="M0 0h18v18H0z"/><path d="M12.77 11c.13-.1.24-.22.24-.4L13 7.43a.87.87 0 0 0-.23-.43h1.14c.64 0 1.09.33 1.09 1.04 0 .61-.22.88-.75 1 .55.7.94 1.54 1.75 1.96h-.55a.66.66 0 0 1-.48-.15c-.43-.4-.7-1.06-1.1-1.6l-.2-.32c.7-.1.89-.39.89-.86 0-.43-.14-.6-.74-.6h-.2v3.13c0 .18.12.3.25.4h-1.1ZM6.69 11c.2-.1.27-.22.31-.4V7.43c0-.19-.12-.3-.3-.43h1.15a.85.85 0 0 0-.23.43v1.1h1.76v-1.1c-.03-.18-.11-.3-.23-.43h1.15c-.13.13-.3.24-.3.43v3.17c.04.17.17.3.31.4h-1.2c.14-.1.27-.22.27-.4V9.15H7.62v1.45c0 .17.13.3.26.4h-1.2ZM2 11c.13-.09.3-.21.3-.38l.01-3.2c0-.19-.14-.3-.27-.42h.68L5 9.62v-2.2A.68.68 0 0 0 4.79 7h1.14c-.1.12-.3.24-.3.41v3.6a1.5 1.5 0 0 1-.96-.8L2.93 8.23v2.39c0 .18.13.29.28.38H2Z" fill="#16145F"/><path fill-rule="evenodd" d="M10.58 8.97c0 .17.1.35.27.54-.21.21-.46.44-.46.79 0 .44.4.7.77.7a.8.8 0 0 0 .7-.44c.15.15.32.4.52.44h.39c0-.06 0-.1-.11-.18-.13-.08-.35-.33-.65-.62l.07-.17-.12-.09-.07.14c-.2-.2-.39-.39-.57-.6.15-.15.3-.32.3-.57 0-.3-.25-.47-.5-.47-.28 0-.54.2-.54.53Zm1.13 1.45-.64-.67c-.15.14-.3.28-.3.52 0 .27.22.43.45.43.2 0 .4-.1.49-.28Zm-.6-1.16c-.08-.1-.22-.21-.22-.35 0-.13.1-.18.21-.18.12 0 .22.05.22.18 0 .14-.13.26-.22.35Z" fill="#16145F"/></svg>