<!-- by TradingView --><svg width="18" height="18" viewBox="0 0 18 18" xmlns="http://www.w3.org/2000/svg"><path fill="#F0F3FA" d="M0 0h18v18H0z"/><path d="M13.3 10.66c.45-2.13.69-4.25.7-6.39 0-.42-.19-.21-.23-.13-.22.46-.43.84-.63 1.14-.3.45-.67.82-1.1 1.1a.13.13 0 0 1-.15 0 9.33 9.33 0 0 0-3.12-1.64c-1.51-.46-3-.7-4.46-.74-.4 0-.41.04-.03.15a12.58 12.58 0 0 1 7.54 6.92c.17.39.31.86.44 1.3l.2.6c.03.1.06.1.1 0 .3-.8.59-1.6.74-2.31ZM4.7 7.34a31.39 31.39 0 0 0-.7 6.39c0 .42.19.21.23.13.22-.46.43-.84.63-1.14.3-.46.67-.82 1.1-1.1a.13.13 0 0 1 .15 0 9.33 9.33 0 0 0 3.12 1.64c1.51.46 3 .7 4.46.74.4 0 .41-.04.03-.15a12.58 12.58 0 0 1-7.54-6.92c-.17-.39-.31-.86-.44-1.3l-.2-.6c-.03-.1-.06-.1-.1 0-.3.8-.59 1.6-.74 2.31Z" fill="#DD4800"/></svg>