<!-- by TradingView --><svg width="18" height="18" viewBox="0 0 18 18" xmlns="http://www.w3.org/2000/svg"><path fill="url(#aeahiw25g)" d="M0 0h18v18H0z"/><path d="M10.76 4c-.35 0-.68.1-1 .26-.3.17-.56.42-.77.72-.28-.41-.66-.71-1.11-.87a2.04 2.04 0 0 0-1.37.01c-.44.16-.82.47-1.1.89-.27.4-.41.9-.41 1.41V7h1.71v-.59c0-.35.36-.64.68-.62.31 0 .62.3.61.64V8.7h1.44v-.34a2.06 2.06 0 0 0 2.32.23c.37-.2.68-.51.9-.9a2.56 2.56 0 0 0-.33-2.98c-.42-.44-.98-.7-1.57-.7Zm0 3.03a.55.55 0 0 1-.4-.18.65.65 0 0 1-.16-.45c0-.16.06-.32.17-.43.11-.12.26-.18.4-.18.08 0 .16.02.23.05a.64.64 0 0 1 .35.59c-.01.17-.07.32-.18.43a.55.55 0 0 1-.41.17Z" fill="url(#beahiw25g)"/><path d="M10.8 9.17c-.34 0-.66.08-.96.23-.3.15-.56.38-.77.65A2.26 2.26 0 0 0 8 9.13c-.43-.18-.84-.21-1.29-.08V7.44H5V14h1.71v-2.64c.02-.34.4-.6.7-.6.32 0 .6.3.59.65V14h1.44v-.5a2.09 2.09 0 0 0 2.9-.2c.42-.45.66-1.06.66-1.7 0-.64-.23-1.26-.64-1.71a2.13 2.13 0 0 0-1.57-.72Zm-.02 3.04a.53.53 0 0 1-.22-.05.57.57 0 0 1-.18-.13.63.63 0 0 1-.17-.44.67.67 0 0 1 .16-.44c.06-.06.12-.1.19-.14a.53.53 0 0 1 .22-.05c.15 0 .3.07.4.19.11.12.18.27.18.44 0 .17-.07.32-.18.44a.56.56 0 0 1-.4.18Z" fill="url(#ceahiw25g)"/><defs><linearGradient id="aeahiw25g" x1="3.35" y1="3.12" x2="21.9" y2="24.43" gradientUnits="userSpaceOnUse"><stop stop-color="#1A1E21"/><stop offset="1" stop-color="#06060A"/></linearGradient><linearGradient id="beahiw25g" x1="9.44" y1="3.45" x2="8.95" y2="12.38" gradientUnits="userSpaceOnUse"><stop stop-color="#99DAF3"/><stop offset=".26" stop-color="#5EC9E6"/><stop offset="1" stop-color="#3B54A4"/></linearGradient><linearGradient id="ceahiw25g" x1="9.9" y1="3.54" x2="9.03" y2="12.46" gradientUnits="userSpaceOnUse"><stop offset=".26" stop-color="#5EC9E6"/><stop offset="1" stop-color="#3B54A4"/></linearGradient></defs></svg>