<!-- by TradingView --><svg width="18" height="18" viewBox="0 0 18 18" xmlns="http://www.w3.org/2000/svg"><path fill="#122C49" d="M0 0h18v18H0z"/><path d="M9 4v5.61c-.24 0-.49.02-.74.04-.61.06-1.26.22-1.85.44-.03 0-.05 0-.08.03h-.01l-.07.02h-.02c-.03.04-.09.04-.12.06a4.3 4.3 0 0 0-1.52.93.07.07 0 0 1-.07.01H4.5c-.02-.03-.05-.06-.06-.1-.1-.18-.18-.38-.25-.57l-.32-.78c-.34-.87-.6-1.63-.88-2.46a.02.02 0 0 1 .01-.02l.31-.15h.05c.11.16.23.31.36.44a3.08 3.08 0 0 0 2.04 1.07c.46.02.95-.29 1.25-.62.13-.15.28-.3.38-.44a7.63 7.63 0 0 0 .77-1.4l.24-.63c.17-.48.27-.97.39-1.46A.02.02 0 0 1 8.82 4H9Z" fill="#B2B5BA"/><path d="M9 9.61v-5.6h.2l.02.01c.1.46.2.93.35 1.38.16.5.37 1.03.64 1.5.22.38.43.69.73 1 .33.37.67.65 1.2.67.22.01.42-.01.62-.07.17-.05.36-.12.52-.21a3.76 3.76 0 0 0 1.11-.9l.25-.32a.02.02 0 0 1 .03-.01l.32.15v.02a42.87 42.87 0 0 1-1.46 3.85c-.02.03-.05.1-.09.06a5.91 5.91 0 0 0-2.7-1.32A6.81 6.81 0 0 0 9 9.61Z" fill="#E0E0E0"/><path d="M8.96 11.05V13.99l-.02.01H8.82v-1.86a.02.02 0 0 0 0-.01l-.38-.33v-.02l.22-.74a254.06 254.06 0 0 1 .3-.86v.87Z" fill="#7B7F83"/><path d="m9.33 11.04.24.74v.01l-.4.35V14l-.01.01h-.11v-1.58h-.01v-.01a4.47 4.47 0 0 0 0-.48v-1.75l.01-.01.03.05.25.82Z" fill="#E0E0E0"/><path d="m8.66 11.04-.22.74v.02l.37.33h.01v.28c-.32 0-.63-.03-1.11-.06l-.26-.02c-.48-.04-.89-.14-1.33-.24-.25-.06-.48-.15-.72-.24-.18-.06-.34-.16-.5-.24-.1-.06-.2-.15-.3-.23a4 4 0 0 1 1.22-.82c.92.31 1.88.45 2.84.48ZM9.16 12.4v-.25l.01-.01.4-.35-.24-.75a9.79 9.79 0 0 0 2.86-.48 4.12 4.12 0 0 1 1.18.82v.01c-.1.07-.19.17-.29.22-.16.08-.31.17-.48.23-.3.1-.48.18-.73.24l-.57.14c-.34.07-.7.12-1.05.14l-1.09.05Z" fill="#B2B5BA"/><path d="m6.1 14-1.36-2.23v-.01l1.24 1.09-.16.46.41.68V14h-.12Z" fill="#E0E0E0"/><path d="m12.16 13.31-.15-.46 1.22-1.09h.02L11.86 14h-.12v-.01l.41-.67Z" fill="#7B7F83"/><path d="m12 14 1.34-2.19-.37 1.57-.51.1-.33.52H12Z" fill="#E0E0E0"/><path d="m5.02 13.38-.38-1.56h.01l1.33 2.17V14h-.12l-.34-.54-.5-.08Z" fill="#7B7F83"/></svg>