<!-- by TradingView --><svg width="18" height="18" viewBox="0 0 18 18" xmlns="http://www.w3.org/2000/svg"><path fill="#F0F3FA" d="M0 0h18v18H0z"/><path d="M7.38 5.34c.34-.24.74-.35 1.2-.34.82.02 1.22.5 1.22 1.46 0 .26-.03.48-.09.67-.05.15-.24.58-.56 1.3A10.8 10.8 0 0 1 10.8 6.9a2.5 2.5 0 0 1 1.36-.56c.56 0 .84.2.84.68 0 .18-.04.37-.12.56-.52 1.04-1.16 2.23-1.8 3.57a.9.9 0 0 0-.1.35c0 .12.03.18.11.18.4 0 .99-.54 1.24-.79.07-.06.16-.1.28-.1.13 0 .2.04.2.14 0 .08-.06.19-.18.32-.32.38-.82.74-1.28 1.1-.59.44-1.2.66-1.56.66-.57 0-.79-.53-.79-1.02 0-.22.04-.41.11-.58.4-.73.98-1.5 1.53-2.66.06-.15.1-.28.1-.38 0-.17-.07-.25-.21-.25-.13 0-.3.09-.5.26-.46.39-1.05.93-1.77 1.96-.31.68-.86 2-1.33 2.34-.31.22-.68.33-1.11.33-.26 0-.4-.1-.4-.28 0-.75.64-1.59.97-2.26.96-1.9 1.56-3.07 1.73-3.5.06-.14.1-.28.1-.4 0-.35-.18-.53-.53-.53-.1 0-.19.02-.28.06-.2.12-.4.19-.73.51-.34.33-.92.73-1.15 1.2-.2.4-.53-.11-.53-.11S6.24 6.25 6.61 5.9c.38-.33.77-.57.77-.57Z" fill="#E4A534"/></svg>