<!-- by TradingView --><svg width="18" height="18" viewBox="0 0 18 18" xmlns="http://www.w3.org/2000/svg"><path fill="#F0F3FA" d="M0 0h18v18H0z"/><path fill-rule="evenodd" d="M14 4H4v10h10V4Zm-2.36 1.1a.38.38 0 0 1 .53.01c.14.15.14.38-.02.52l-1.88 1.72a.75.75 0 0 0-.27.53v4.76c0 .2-.13.36-.34.36a.37.37 0 0 1-.37-.36V7.88c0-.4.17-.78.47-1.06l1.88-1.72Zm-5.81.01a.4.4 0 0 1 .54-.01l1.91 1.72c.3.28.48.66.48 1.06v4.76c0 .2-.17.36-.38.36a.37.37 0 0 1-.38-.36V7.88c0-.2-.08-.39-.24-.53L5.85 5.63a.35.35 0 0 1-.02-.52Zm-.72.72a.36.36 0 0 1 .51 0l1.82 1.82a.36.36 0 0 1-.52.52L5.11 6.35a.36.36 0 0 1 0-.52Zm7.78 0a.36.36 0 0 0-.51 0l-1.82 1.82a.36.36 0 1 0 .52.52l1.81-1.82a.36.36 0 0 0 0-.52Z" fill="#949597"/><circle cx="12" cy="12" r="1" fill="#EC2029"/></svg>