<!-- by TradingView --><svg width="18" height="18" viewBox="0 0 18 18" xmlns="http://www.w3.org/2000/svg"><path fill="#F0F3FA" d="M0 0h18v18H0z"/><path d="m13.45 5.38-.29-.07V5.3L13.13 5V5h-.02l-.15.25h-.01l-.29-.08v.02l.18.22v.01l-.16.24v.01h.01l.27-.1h.01l.19.23h.01l-.01-.3.28-.1v-.02Zm-2.08.66 1.24-.57h.02v.03l-1.24.58-.03-.01.01-.03Zm-.21.2h.3v.01l-.24.18.1.28c0 .01 0 .01 0 0l-.25-.16h-.01l-.23.18h-.01l.08-.28v-.01l-.25-.16v-.01l.3-.02.08-.28h.01l.1.27h.02ZM9.15 7.28l1.58-.83.03.01-.01.03-1.58.82h-.03l.01-.03Zm2.24-.04.23.19v.01l-.3-.01h-.01l-.1.27h-.02l-.08-.28-.3-.02v-.02l.24-.15V7.2l-.07-.28v-.01H11l.23.18h.01l.25-.15h.01l-.1.28Zm-2.07.19h-.3l-.1-.28-.1.28H8.5v.02l.24.17-.09.28v.01h.02l.24-.17.25.17s.01 0 0 0l-.09-.29.25-.17v-.02Zm2.09.15c-.02 0-.02.01-.02.02l.13.5h.02c.01 0 .02 0 .01-.02l-.12-.49a.02.02 0 0 0-.02 0ZM7 8.52l1.5-.8h.03v.03l-1.51.8h-.03L7 8.52Zm7.7-.42h.3v.02l-.24.17.09.28v.01h-.02l-.24-.17-.24.17h-.01l.08-.28v-.01l-.24-.17V8.1h.3l.01-.01.1-.28.1.28Zm-5.77-.19.03.01.15.5v.03H9.1l-.02-.01-.16-.5.01-.03Zm4.06.33h.31v.01l-.24.18.09.28v.01h-.01l-.25-.17-.25.17s-.01 0 0 0l.08-.29-.24-.18h.3v-.01l.1-.28h.02l.09.28Zm-.75.01h-.3l-.1-.28h-.01l-.1.28h-.3v.02l.24.17-.1.28v.01h.02l.24-.17.25.17s.01 0 0 0L12 8.44v-.01l.24-.17v-.01Zm-7.95.2.27-.1h.01l-.16.24v.01l.18.23v.01l-.3-.08-.17.25H4.1l-.01-.3-.29-.08v-.01l.28-.1V8.2l.19.23Zm1.22.08h-.3l-.1-.28-.1.28h-.32v.01l.25.18-.09.28v.01h.01l.24-.17h.01l.24.17h.01l-.09-.29.25-.18Zm8.67-.22-.78.01a.02.02 0 0 0-.02.02c0 .01.01.02.03.02h.77c.02 0 .03-.02.03-.03a.02.02 0 0 0-.03-.02Zm-4.45.34-.3-.02-.07-.28-.01-.01h-.01l-.1.27h-.02l-.29-.02-.01.01v.01l.23.18v.02l-.11.26v.01h.01l.25-.15h.01l.22.19h.02V9.1l-.07-.28v-.01l.25-.15v-.02Zm-2.95.03.26.14v.01l-.3.03v.01l-.06.29h-.02l-.12-.27h-.01l-.3.04V8.9l.22-.2-.13-.27h.01l.26.14h.01l.22-.2h.01l-.06.29Zm5.4-.22.33-.05.02.02-.01.02-.33.04-.02-.01.01-.02Zm-.81.04-3.44 2.14v.02c0 .01.01.02.02 0l3.44-2.13V8.5h-.02Zm1.94.02.92.4v.03h-.02l-.92-.4v-.02l.02-.01Zm-7.08.1-.73.1a.02.02 0 0 0-.02.02s.02.02.03.01l.73-.08.02-.02a.02.02 0 0 0-.03-.02Zm8.72.66-.23-.2.12-.27V8.8l-.27.15-.23-.2s-.01 0 0 0l.05.3-.26.15v.01l.3.03.07.3h.01l.13-.28.3.03v-.01ZM8.98 8.8l-1.27.67c-.01 0-.02.02-.01.03h.02L9 8.84V8.8h-.02Zm-6.2.62 1.12-.6h.02v.03l-1.13.6h-.02v-.03Zm4.62-.05.28-.09h.01v.01l-.18.24.18.24v.01l-.3-.09-.18.24H7.2v-.3l-.3-.1.3-.1v-.3h.01l.18.24Zm-4.59.34-.25-.14v-.01l.06-.29H2.6l-.22.2-.26-.15H2.1l.12.27v.01L2 9.8h.01l.3-.02.12.27h.01l.07-.29.3-.03V9.7Zm4.68.14s-.02 0-.02.02v.56l.02.02c.01 0 .02 0 .02-.02v-.56c0-.01 0-.02-.02-.02Zm4.9.57-.3.04h-.01l-.13-.27h-.02l-.04.3h-.01l-.3.04v.01l.26.14s.01 0 0 0l-.04.3h.01l.21-.2h.01l.26.13h.01l-.13-.27.22-.2v-.02Zm-4.64.4.28.1-.28.09h-.01l-.01.3H7.7l-.16-.24-.3.08v-.02l.18-.22v-.02l-.16-.23v-.01l.28.1h.01l.18-.24h.01v.3Zm2.14.4 1.72-.44.03.01c0 .01 0 .02-.02.03l-1.72.43-.02-.01.01-.03Zm-.8.22-1.15-.37-.02.01.01.02 1.16.38.02-.01-.01-.03Zm.84.01-.29-.07-.02-.3H9.6l-.15.25h-.01l-.29-.07v.02l.18.22-.15.25v.01l.28-.1h.01l.19.22h.01l-.02-.3.28-.11v-.02Zm2.15.07h.3v.01l-.24.17v.01l.1.28h-.02l-.24-.16h-.01l-.24.17h-.01v-.01l.09-.28-.24-.18v-.01h.3l.1-.28h.01l.1.27v.01Zm-2.2.13 1.66.08s.02 0 .02.02c0 .01-.01.02-.03.02l-1.64-.08a.02.02 0 0 1-.02-.02c0-.01 0-.02.02-.02Z" fill="#081F3C"/></svg>