<!-- by TradingView --><svg width="18" height="18" viewBox="0 0 18 18" xmlns="http://www.w3.org/2000/svg"><path fill="#F0F3FA" d="M0 0h18v18H0z"/><path d="M13.58 5a1.88 1.88 0 0 0 1.41 1.42v.05l-.03.02c-.72.18-1.18.63-1.4 1.34-.01.04-.03.04-.06.03a.05.05 0 0 1-.02-.03 1.84 1.84 0 0 0-1.38-1.37.04.04 0 0 1-.03-.02V6.4l.03-.02c.74-.2 1.21-.65 1.42-1.38h.06ZM8.92 9.99l-.38-1.4v-.01l-1.12-.96a.01.01 0 0 1 0-.03h.01l3.14-.23a.01.01 0 0 1 .01 0v.02L8.94 9.99l-.01.01h-.01v-.01ZM5.58 13A1.5 1.5 0 0 0 7 11.42 1.5 1.5 0 0 0 5.42 10 1.5 1.5 0 0 0 4 11.58 1.5 1.5 0 0 0 5.58 13Z" fill="#4FC6E0"/></svg>