<!-- by TradingView --><svg width="18" height="18" viewBox="0 0 18 18" xmlns="http://www.w3.org/2000/svg"><path fill="#F0F3FA" d="M0 0h18v18H0z"/><path d="M9.39 8.7c1.03-.38 2-.92 2.82-1.68A4.2 4.2 0 0 1 14.92 6c.04 0 .06.02.07.06v.05c.01.02 0 .04-.02.04-.8.07-1.62.41-2.19 1.03a6.16 6.16 0 0 1-2.07 1.56c-.48.2-1.02.12-1.53.14C9 8.9 9 8.86 9.17 8.8l.22-.09Z" fill="#D8251E"/><path d="m10.56 7.99-.03-.01v-.03c.46-.34.8-.65 1.05-.95.5-.6 1.12-.99 1.88-.97.13 0 .14.04 0 .08-.52.21-.98.34-1.4.77-.45.45-.95.82-1.5 1.1ZM12.61 8.42a.4.4 0 0 1 0 .2c-.01.05-.05.08-.1.09-.4.04-.52.42-.77.69a3.74 3.74 0 0 1-2.92 1.21.27.27 0 0 0-.22.11A3.87 3.87 0 0 1 6.8 12c-.08.03-.1 0-.03-.06l.44-.41c.03-.03.03-.05 0-.07l-.05-.05H7.1a3.05 3.05 0 0 1-.7.53h-.07c-.49-.17-.92-.5-1.36-.8-.1-.07-.1-.1.03-.1a5.45 5.45 0 0 0 3-.86.08.08 0 0 0 .04-.07v-.02a.06.06 0 0 0-.03-.04h-.03a3.3 3.3 0 0 1-1.87-.36.97.97 0 0 0-.47-.11 3.59 3.59 0 0 0-1.45.31l-.03-.05c0-.02 0-.03.02-.04.56-.3 1.15-.51 1.77-.63.57-.1 1.23-.02 1.77.08.73.14 1.41.26 2.06.36.17.03.18 0 .03-.1-.23-.14-.5-.21-.82-.2-.22 0-.45-.03-.67-.1-1.27-.32-2.65-.5-3.82.25-.42.27-.9.45-1.46.53-.03 0-.04 0-.05-.03V9.9l.04-.03c.73-.29 1.3-.82 2.04-1.1.44-.16.84-.23 1.22-.21.68.03 1.43.16 2.11.38.34.1.82.15 1.46.13a2.8 2.8 0 0 0 1.61-.51h.16a.2.2 0 0 0-.05.14c0 .04.01.06.04.07.03.02.06.01.1-.01a.24.24 0 0 0 .06-.1.16.16 0 0 0 0-.11l-.09-.03c.03-.05.06-.08.1-.1l.24.04c.2-.06.4-.08.57-.04Z" fill="#D8251E"/></svg>