<!-- by TradingView --><svg width="18" height="18" viewBox="0 0 18 18" fill="none" xmlns="http://www.w3.org/2000/svg">
<rect width="18" height="18" fill="#F0F3FA"/>
<path fill-rule="evenodd" clip-rule="evenodd" d="M9 14C11.7614 14 14 11.7614 14 9C14 6.23858 11.7614 4 9 4C6.23858 4 4 6.23858 4 9C4 11.7614 6.23858 14 9 14ZM9 15C12.3137 15 15 12.3137 15 9C15 5.68629 12.3137 3 9 3C5.68629 3 3 5.68629 3 9C3 12.3137 5.68629 15 9 15Z" fill="#1D283A"/>
<path d="M10.1346 6.00418H7.31404L6.95297 7.34615H10.0881C10.3413 7.34615 10.4068 7.55619 10.4068 7.70144C10.4068 7.86743 10.2933 8 10.0052 8H6.77636L6.37109 9.3591H10.1346C11.0885 9.3591 11.8758 8.66189 11.927 7.77175C11.9823 6.8113 11.1638 6.00418 10.1346 6.00418Z" fill="#1D283A"/>
<path d="M8.00391 11C8.00391 11.5523 7.55619 12 7.00391 12C6.45162 12 6.00391 11.5523 6.00391 11C6.00391 10.4477 6.45162 10 7.00391 10C7.55619 10 8.00391 10.4477 8.00391 11Z" fill="#E6012C"/>
<path d="M11.9267 12H9.59774C9.51594 10.5167 8.13977 10.0486 7.46191 10H9.90448C11.3768 10.0917 11.8661 11.3715 11.9267 12Z" fill="#1D283A"/>
</svg>
