<!-- by TradingView --><svg width="18" height="18" viewBox="0 0 18 18" xmlns="http://www.w3.org/2000/svg"><path fill="#F0F3FA" d="M0 0h18v18H0z"/><path d="m5.5 4.67 1.9 1.12v2.25L5.5 9.17 3.6 8.04V5.8l1.9-1.12ZM7.8 8.75l1.9 1.12v2.25l-1.9 1.13-1.9-1.13V9.87l1.9-1.12ZM12.49 8.75l1.9 1.12v2.25l-1.9 1.13-1.9-1.13V9.87l1.9-1.12Z" fill="#ED1D27"/><path d="M5.5 4 8 5.49v2.77l2.1 1.28 2.37-1.37L15 9.63v2.94L12.47 14l-2.37-1.35L7.85 14l-2.5-1.43V9.8L3 8.42V5.5L5.5 4Zm.16 5.8v2.6l2.19 1.25 2.1-1.25V9.8L7.85 8.5 5.65 9.8ZM7.7 8.26v-2.6L5.5 4.34l-2.2 1.3v2.6l2.2 1.29 2.2-1.28Zm2.55 1.54v2.6l2.22 1.26 2.22-1.26V9.8L12.47 8.5 10.25 9.8Z" fill="#797979"/></svg>