<!-- by TradingView --><svg width="18" height="18" viewBox="0 0 18 18" xmlns="http://www.w3.org/2000/svg"><path fill="#F0F3FA" d="M0 0h18v18H0z"/><path d="M9.31 13.78c.46.34 1.46-.99 1.9-1.7h.5c-.53 1.02-1.86 3.03-3.02 2.92-1.16-.12-2.8-3.82-3.47-5.65-.56-1.46-1.52-4.5-.88-4.95.63-.45 3.01.38 4.12.85l-.77.45c-.75-.34-2.16-.73-1.85.54.4 1.58 2.9 7.12 3.47 7.54Z" fill="url(#a)"/><path d="M13.4 5.6c.19 1.7-1.36 5.02-2.15 6.46-.08.25-.12.66.34.25.45-.4 1.74-3.74 2.33-5.36a1.52 1.52 0 0 0-.51-1.36Z" fill="url(#b)"/><path d="M4.25 12.51c.78 1.31 5.39.24 7.6-.45l.76-1.5c-1.45.27-4.71.8-6.17.76-1.45-.04-1.4-.82-1.2-1.21-.65.25-1.76 1.09-.99 2.4Z" fill="url(#c)"/><path d="M3 11.13c-.07 2.03 2.68 2.24 4.07 2.09-3.35 0-2.7-1.66-1.96-2.49.31-1.51 3.26-3.36 4.69-4.1l2.73 1.16-2.34-1.35c.66-.37 2.15-1.05 2.88-.82.72.22.81 1.32.76 1.83.28-.78.55-2.5-.56-3.19-1.4-.84-4.16.54-5.89 1.53-1.73.99-4.3 2.8-4.38 5.34Z" fill="url(#d)"/><path d="M15 9.54c-.04-2.28-5.02-4.07-7.5-4.68 4.46 2.45 6.2 4 6.25 4.68.04.55-.78.87-1.2.96l-.73 1.59c2.5-.68 3.16-1.98 3.18-2.55Z" fill="url(#e)"/><defs><linearGradient id="a" x1="4.28" y1="4.49" x2="9.09" y2="14.77" gradientUnits="userSpaceOnUse"><stop stop-color="#ADD574"/><stop offset=".12" stop-color="#8EC545"/><stop offset=".21" stop-color="#64AC56"/><stop offset=".56" stop-color="#173F63"/><stop offset=".84" stop-color="#358B40"/><stop offset="1" stop-color="#3A8B48"/></linearGradient><linearGradient id="b" x1="13.61" y1="6.16" x2="14.27" y2="11.75" gradientUnits="userSpaceOnUse"><stop offset=".02" stop-color="#70A02A"/><stop offset=".69" stop-color="#A9BD32"/><stop offset="1" stop-color="#2E893F"/></linearGradient><linearGradient id="c" x1="12.84" y1="10.59" x2="12.02" y2="13.51" gradientUnits="userSpaceOnUse"><stop offset=".03" stop-color="#99BE30"/><stop offset=".63" stop-color="#7AA241"/><stop offset="1" stop-color="#79A042"/></linearGradient><linearGradient id="d" x1="13.21" y1="8.19" x2="9.07" y2="15.02" gradientUnits="userSpaceOnUse"><stop stop-color="#144965"/><stop offset=".29" stop-color="#3B7F89"/><stop offset=".47" stop-color="#6AAD4F"/><stop offset=".56" stop-color="#7AA241"/><stop offset=".68" stop-color="#FEFEFE"/><stop offset=".77" stop-color="#C0D789"/></linearGradient><linearGradient id="e" x1="13.92" y1="11.61" x2="7.19" y2="10.18" gradientUnits="userSpaceOnUse"><stop stop-color="#00703A"/><stop offset=".64" stop-color="#ACD670"/><stop offset=".8" stop-color="#FCFFFE"/><stop offset=".92" stop-color="#C6EA98"/></linearGradient></defs></svg>