<!-- by TradingView --><svg width="18" height="18" viewBox="0 0 18 18" xmlns="http://www.w3.org/2000/svg"><path fill="#F0F3FA" d="M0 0h18v18H0z"/><path d="m9 4.33 3.75 1.34v6L9 13.33 5.25 12V5.62L9 4.33Z" fill="url(#a)"/><path d="m7.9 4 1.1.33s-2.53.9-3.75 1.3V5l2.66-1Z" fill="#88BBF9"/><path d="m12.16 4.84-.26.55L7.9 4h2.02l2.24.84Z" fill="#016ADB"/><path d="M14 6.17s-1.46-.56-2.1-.78l.26-.55.42.15L14 6.17Z" fill="#025ABE"/><path d="M14 6.16v5.83l-1.25-.32v-6l1.25.49ZM4.94 5.67v6.52l-.94.58V6l.94-.33Z" fill="#529AF8"/><path d="M14 11.86v.8l-1.25-1 1.25.2Z" fill="#00285B"/><path d="m5.25 12 2.97 1-1.72.67-2.5-.92L5.25 12Z" fill="#025ABE"/><path d="M14 12.67 10.56 14l2.5-2.1.94.77Z" fill="#88BBF9"/><path d="m8.22 13 2.3 1h-3.2s-.54-.23-.82-.33L8.22 13Z" fill="#2479DF"/><path d="M5.25 5v.64L4 6l1.25-1Z" fill="#00285B"/><defs><linearGradient id="a" x1="9" y1="4.33" x2="9" y2="13.33" gradientUnits="userSpaceOnUse"><stop stop-color="#ECFCFF"/><stop offset="1" stop-color="#B3D4FF"/></linearGradient></defs></svg>