<!-- by TradingView --><svg width="18" height="18" viewBox="0 0 18 18" xmlns="http://www.w3.org/2000/svg"><path fill="#F0F3FA" d="M0 0h18v18H0z"/><path d="M9 10h-.03c-.41.01-.81.24-.9.35.47.3.77.57.77.93 0 .36-.35.72-.5.83-.2 0-.34.24-.34.34 0 .1.05.35.21.54A2.93 2.93 0 0 1 9 14l.01-.01c.07-.19.27-.53.78-1 .17-.2.22-.44.22-.54 0-.1-.15-.34-.35-.34-.15-.11-.51-.47-.51-.83s.31-.64.8-.93c-.1-.1-.51-.34-.94-.35ZM8.5 3v6c-.33-.7-1-2.44-1-3.69A3 3 0 0 1 8.5 3ZM2 11l5 .77c-.63.13-2.15.33-3.19.17A2.8 2.8 0 0 1 2 11ZM16 11l-5 .77c.63.13 2.15.33 3.19.17A2.8 2.8 0 0 0 16 11ZM9.5 3v6c.33-.7 1-2.44 1-3.69A3 3 0 0 0 9.5 3ZM2 10.34 7 11a11.8 11.8 0 0 0-2.95-.96 3.33 3.33 0 0 0-2.05.3ZM16 10.34 11 11a11.8 11.8 0 0 1 2.95-.96c1.04-.14 1.8.14 2.05.3ZM4 7l4 4c-.63-.3-2.11-1.1-2.94-1.93A3.37 3.37 0 0 1 4 7ZM4 6l4 4c-.3-.65-1.13-2.17-1.96-3A3.07 3.07 0 0 0 4 6ZM14 7l-4 4c.63-.3 2.11-1.1 2.94-1.93A3.37 3.37 0 0 0 14 7ZM14 6l-4 4c.3-.65 1.13-2.17 1.96-3A3.07 3.07 0 0 1 14 6Z" fill="#A39161"/></svg>