<!-- by TradingView --><svg width="18" height="18" viewBox="0 0 18 18" xmlns="http://www.w3.org/2000/svg"><path fill="#F0F3FA" d="M0 0h18v18H0z"/><path d="M14 5.92a.06.06 0 0 0-.03-.03L8.94 3.01a.11.11 0 0 0-.11 0l-1.57 1a.08.08 0 0 0-.02.02.1.1 0 0 0-.01.08c0 .01 0 .02.02.03 2.88 3.36 3.5 6.42 1.71 10.66a.14.14 0 0 0 .04.17c.02.02.04.03.07.03.03 0 .06 0 .08-.02l4.7-2.97a.34.34 0 0 0 .11-.13.36.36 0 0 0 .04-.17V5.92Zm-1.46 2.35a.12.12 0 0 0-.03-.08l-.89-.92a.24.24 0 0 1-.06-.14c-.24-1.9-1.94-2.63-3.53-2.75L8 4.36a.07.07 0 0 1-.02-.07c0-.02.01-.03.02-.03l.83-.52a.11.11 0 0 1 .12 0l4.29 2.47c.04.03.1.06.1.11l.02 5.15c0 .05-.02.15-.06.17L10 13.73a.01.01 0 0 1 0-.02 65.2 65.2 0 0 1 2.16-2.2c.33-.33.35-.69.06-1.08a.13.13 0 0 1-.02-.12.7.7 0 0 0-.05-.6.16.16 0 0 1 0-.16.5.5 0 0 0-.05-.56c-.03-.04-.03-.08 0-.11l.42-.53a.13.13 0 0 0 .02-.08ZM4 11.86c0 .14.06.24.18.3l4.24 2.44c.06.04.11.03.15-.04 1.78-3.9 1.01-7.08-1.7-10.13a.18.18 0 0 0-.1-.06c-.04 0-.09 0-.12.02l-2.6 1.64a.12.12 0 0 0-.05.1v5.73ZM7.09 9.4l.5.43c1.13 1.02 1.48 2.36 1.05 4.03-.02.1-.08.12-.16.07l-3.64-2.11a.32.32 0 0 1-.17-.28V6.5c0-.06.03-.1.08-.13l.61-.45a.05.05 0 0 1 .06 0l.02.03v.03C5.1 7.7 6.05 8.51 7.1 9.4Z" fill="#95C93F"/></svg>