<!-- by TradingView --><svg width="18" height="18" viewBox="0 0 18 18" xmlns="http://www.w3.org/2000/svg"><path fill="#F0F3FA" d="M0 0h18v18H0z"/><path d="M2 7h1l2 2.48V7h1v4H5L3 8.55V11H2V7Z" fill="#706F6F"/><path d="M8.38 9 7 7h1.12L9.5 9l-1.38 2H7l1.38-2Z" fill="#77B100"/><path d="M9.76 8.71 11 7h-1l-.75 1.01.5.7ZM9.76 9.29 11 11h-1l-.75-1.01.5-.7ZM16 7.65l-.67.65a1.5 1.5 0 0 0-1-.44c-.58 0-1.33.34-1.33 1.09s.56 1.2 1.2 1.2c.53 0 .72-.2.8-.3v-.28h-1v-.86h2v1.65c-.22.22-.9.64-1.8.64-1.28 0-2.2-.89-2.2-2.05C12 7.78 13.08 7 14.33 7c.83 0 1.46.44 1.67.65Z" fill="#706F6F"/></svg>