<!-- by TradingView --><svg width="18" height="18" viewBox="0 0 18 18" xmlns="http://www.w3.org/2000/svg"><path fill="#F0F3FA" d="M0 0h18v18H0z"/><path d="M13 14H5V9.67h.03c.32-.51.5-.87.56-1.07.21-.79.45-1.63 1-2.3a.2.2 0 0 1 .18-.08l.77.06c.26.03.52-.08.77-.32.03-.02.03-.04.02-.07l-.12-.26a.12.12 0 0 0-.05-.06c-.24-.1-.44-.43-.28-.67a.08.08 0 0 0 0-.07c-.2-.58-.07-1.36.55-1.61.25-.1.5-.17.74-.21.47-.08 1 .42 1.2.76.07.13.09.28.04.47-.07.3-.1.59-.12.85 0 .12-.06.22-.16.3a.08.08 0 0 0-.03.07c0 .14.01.32.16.44.08.06.16.15.25.27.01.02.03.03.05.03l1.7.41a.09.09 0 0 1 .07.05c.05.1.08.24.09.38.02.38.06.7.12.96.02.1.15.47.4 1.08.01.03.03.04.06.04V14ZM9.4 7.15c-.22.38-.1.96-.15 1.4a22 22 0 0 0-.1 3.4c0 .04.03.06.07.06h1.18a.04.04 0 0 0 .03-.02.04.04 0 0 0 0-.03c-.3-.88-.53-1.78-.66-2.7-.13-1-.05-1.98.25-2.95.03-.11.02-.12-.04-.02-.14.25-.36.44-.65.57-.03.01-.03.03-.02.05l.1.16v.08Zm-.54-.1c-.03-.06 0-.12 0-.18l-.01-.06a1.12 1.12 0 0 1-.34-.33.02.02 0 0 0-.03.02 19.5 19.5 0 0 1-.22 2.07 4.8 4.8 0 0 1-.62 1.77 7 7 0 0 0-.67 1.36.23.23 0 0 0 .22.3h1.2c.03 0 .04 0 .04-.03a13.47 13.47 0 0 1 .5-4.68 6.12 6.12 0 0 0-.07-.23Z" fill="#112A6A"/></svg>