<!-- by TradingView --><svg width="18" height="18" viewBox="0 0 18 18" fill="none" xmlns="http://www.w3.org/2000/svg">
<rect width="18" height="18" fill="#F0F3FA"/>
<path fill-rule="evenodd" clip-rule="evenodd" d="M6 12C7.65685 12 9 10.6569 9 9C9 7.34315 7.65685 6 6 6C4.34315 6 3 7.34315 3 9C3 10.6569 4.34315 12 6 12ZM6 10C6.55228 10 7 9.55228 7 9C7 8.44772 6.55228 8 6 8C5.44772 8 5 8.44772 5 9C5 9.55228 5.44772 10 6 10Z" fill="black"/>
<path fill-rule="evenodd" clip-rule="evenodd" d="M10 6H13.2632C14.2224 6 15 6.77761 15 7.73684C15 8.23453 14.7907 8.68334 14.4552 9C14.7907 9.31666 15 9.76546 15 10.2632C15 11.2224 14.2224 12 13.2632 12H10V9.47368V8.52632V6ZM14 7.5C14 7.77614 13.5523 8 13 8C12.4477 8 12 7.77614 12 7.5C12 7.22386 12.4477 7 13 7C13.5523 7 14 7.22386 14 7.5ZM14 10.5C14 10.7761 13.5523 11 13 11C12.4477 11 12 10.7761 12 10.5C12 10.2239 12.4477 9.99999 13 9.99999C13.5523 9.99999 14 10.2239 14 10.5Z" fill="black"/>
</svg>
