<!-- by TradingView --><svg width="18" height="18" viewBox="0 0 18 18" xmlns="http://www.w3.org/2000/svg"><path fill="#F0F3FA" d="M0 0h18v18H0z"/><ellipse cx="12.33" cy="4.32" rx=".33" ry=".32" fill="#EE7A00"/><path d="M15 6.5c0 .18-.15.32-.33.32a.33.33 0 0 1-.34-.32c0-.18.15-.32.34-.32.18 0 .33.14.33.32ZM15 7.5c0 .18-.15.32-.33.32a.33.33 0 0 1-.34-.32c0-.18.15-.32.34-.32.18 0 .33.14.33.32Z" fill="#EE7A00"/><circle cx="13.5" cy="4.5" r=".5" fill="#EE7A00"/><path fill-rule="evenodd" d="M9 14a5 5 0 0 0 4.46-7.27.63.63 0 0 0 .2-.47c0-.36-.3-.65-.66-.65-.1 0-.19.02-.27.06A4.99 4.99 0 0 0 4 9a5 5 0 0 0 5 5Zm3.73-8.33c-.23.1-.4.33-.4.59 0 .35.3.64.67.64.18 0 .34-.06.46-.17-.2-.39-.45-.74-.73-1.06Z" fill="#EE7A00"/><path d="m8.2 4 .65.96 1.15-.3-.75.9.65.96-1.1-.41-.75.89.06-1.15L7 5.45l1.15-.3L8.2 4Z" fill="#30AE4A"/><path fill="#D9D9D9" d="M5 8h8v2H5z"/></svg>