<!-- by TradingView --><svg width="18" height="18" xmlns="http://www.w3.org/2000/svg"><path fill="#8C0005" d="M0 0h18v18H0z"/><path d="M8.688 13V4.453l-1.161 6.234h-2.97c-.32-1.058-.287-2.485.154-3.5.666-1.598 2.26-2.755 3.976-2.845v-.34a4.984 4.984 0 00-3.164 1.425c-.998.963-1.559 2.364-1.521 3.758.035.543.163 1.306.361 1.815h3.55L8.4 7.284v3.952c-1.277.007-3.942 0-3.942 0l.163.356s1.776-.01 2.61 0c-.56.4-1.05.939-1.31 1.59.109.055.218.11.325.169.355-.764.972-1.414 1.755-1.724.1-.039.292-.037.399-.035.003 0-.003 0 0 0v.537c-.704.235-1.379.816-1.573 1.55.12.027.229.097.348.13.186-.55.686-1.052 1.225-1.265V13c-.289.23-.487.626-.494 1h2.243c-.007-.393-.197-.797-.524-1.013v-.443c.553.2.946.636 1.137 1.198.124-.027.246-.059.367-.096a2.3 2.3 0 00-1.504-1.541v-.513c.133-.001.219-.015.344.038.75.316 1.371.925 1.712 1.67.117-.045.233-.094.35-.142-.264-.656-.774-1.147-1.323-1.566h2.573l.16-.356c-1.29 0-2.527-.007-3.816 0V7.42l.54 3.579h3.485s.094-.201.128-.3c.197-.683.282-1.535.184-2.244a5.021 5.021 0 00-1.491-3.033C11.633 4.58 10.485 4.09 9.312 4v.347a4.579 4.579 0 013.045 1.432 4.692 4.692 0 011.237 2.423c.133.723.093 1.78-.104 2.485h-2.958l-1.22-6.234V13h-.624z" fill="#fff"/></svg>