<!-- by TradingView --><svg width="18" height="18" viewBox="0 0 18 18" xmlns="http://www.w3.org/2000/svg"><path fill="#F0F3FA" d="M0 0h18v18H0z"/><path d="M13.99 13.21a.79.79 0 0 1-.8.79l-8.4-.01a.79.79 0 0 1-.79-.8l.01-8.4a.79.79 0 0 1 .8-.79l8.4.01a.79.79 0 0 1 .79.8l-.01 8.4Z" fill="#ED1D25"/><path d="M10.66 5.28c-1.58-.52-3.56-.36-4.7.9-.93 1.02-1.11 2.53-.85 3.86a3.38 3.38 0 0 0 2.3 2.71c.78.26 1.6.31 2.44.18 1.55-.24 2.53-1.08 2.95-2.52.52-1.81.1-4.4-2.14-5.13ZM8.9 7.82h.2c.6 0 1.09.45 1.08 1v.38c0 .55-.5 1-1.09.99h-.2c-.6 0-1.08-.46-1.08-1.01v-.37c0-.55.5-1 1.1-1Z" fill="#FFE500"/></svg>