<!-- by TradingView --><svg width="18" height="18" viewBox="0 0 18 18" xmlns="http://www.w3.org/2000/svg"><path fill="#F0F3FA" d="M0 0h18v18H0z"/><path d="M14 4v3.62c-.2-.34-.4-.63-.6-.86a3.91 3.91 0 0 0-5.13-.61A3.79 3.79 0 0 0 6.85 8c-.02.04-.03.04-.04 0l-.15-.78a1.3 1.3 0 0 0-.15-.46.59.59 0 0 0-.49-.26H4V4h10Z" fill="#009A74"/><path d="M14 8.83v.32a2.44 2.44 0 0 1-1.96 2.3A2.5 2.5 0 0 1 9.2 8.02a2.5 2.5 0 0 1 4.8.8ZM5.78 7.57a.36.36 0 1 0 0-.71.36.36 0 0 0 0 .71Z" fill="#C50019"/><path d="M14 10.87v3.09l-.03.04H4V6.88c.24.07.38.23.43.47l1.1 5.57.04.08h2.2c.02 0 .01-.08 0-.1l-.23-1.2c0-.05 0-.06.04-.02a3.9 3.9 0 0 0 6.34-.74.66.66 0 0 0 .04-.1c0-.03.01-.03.02 0l.02.03Z" fill="#C50019"/></svg>