<!-- by TradingView --><svg width="18" height="18" viewBox="0 0 18 18" xmlns="http://www.w3.org/2000/svg"><path fill="#F0F3FA" d="M0 0h18v18H0z"/><path d="M9.6 12a3.94 3.94 0 0 1-3.9-2.71v1.14l1.5 1.43 2.4.57 3-1.14V9c-.24 2.4-2.1 3-3 3Z" fill="#818181"/><path fill-rule="evenodd" d="M9 13c3.31 0 6-1.8 6-4s-2.69-4-6-4-6 1.8-6 4 2.69 4 6 4Zm.45-.86c2.4 0 3.15-1.34 3.15-3 0-1.65-1.5-3.42-3.75-3.27-1.74 0-3.15.57-3.15 2.85 0 1.65 1.05 3.42 3.75 3.42Z" fill="url(#a5ncqo5en)"/><path d="M7.86 7H7v.18h.14c.23 0 .29.24.29.37v2.9c0 .3-.2.37-.29.37H7V11h1.14v-.18H8c-.23 0-.29-.24-.29-.37V8.1l1 2.91H9l1-3.1v2.55c0 .3-.19.37-.29.37h-.14V11H11v-.18c-.23 0-.29-.37-.29-.55V7.73c0-.44.2-.55.29-.55V7h-1L9 9.73 7.86 7Z" fill="url(#b5ncqo5en)"/><defs><linearGradient id="a5ncqo5en" x1="9" y1="5" x2="9" y2="13" gradientUnits="userSpaceOnUse"><stop stop-color="#BDBEC0"/><stop offset=".16" stop-color="#B4B5B9"/><stop offset=".24" stop-color="#8D8E92"/><stop offset=".55" stop-color="#F4F2F3"/><stop offset=".66" stop-color="#333"/><stop offset=".83" stop-color="#7D7E82"/><stop offset="1" stop-color="#C2C2C4"/></linearGradient><linearGradient id="b5ncqo5en" x1="9" y1="7" x2="9" y2="11" gradientUnits="userSpaceOnUse"><stop stop-color="#87888A"/><stop offset=".08" stop-color="#5F6064"/><stop offset=".27" stop-color="#D9D9D9"/><stop offset=".52" stop-color="#F5F5F5"/><stop offset=".7" stop-color="#282828"/><stop offset=".86" stop-color="#4F4F51"/><stop offset="1" stop-color="#868688"/></linearGradient></defs></svg>