<!-- by TradingView --><svg width="18" height="18" viewBox="0 0 18 18" xmlns="http://www.w3.org/2000/svg"><path fill="#F0F3FA" d="M0 0h18v18H0z"/><ellipse cx="13.12" cy="10.58" rx=".45" ry=".42" fill="#68C0CA"/><ellipse cx="11.68" cy="9.28" rx=".45" ry=".42" fill="#68C0CA"/><ellipse cx="14.55" cy="10.58" rx=".45" ry=".42" fill="#68C0CA"/><ellipse cx="13.12" cy="9.28" rx=".45" ry=".42" fill="#68C0CA"/><ellipse cx=".45" cy=".42" rx=".45" ry=".42" transform="matrix(-1 0 0 1 5.33 10.16)" fill="#68C0CA"/><ellipse cx=".45" cy=".42" rx=".45" ry=".42" transform="matrix(-1 0 0 1 8.03 7.58)" fill="#13AEAA"/><ellipse cx=".45" cy=".42" rx=".45" ry=".42" transform="matrix(-1 0 0 1 6.77 8.87)" fill="#68C0CA"/><ellipse cx=".45" cy=".42" rx=".45" ry=".42" transform="matrix(-1 0 0 1 9.47 6.2)" fill="#13AEAA"/><ellipse cx=".45" cy=".42" rx=".45" ry=".42" transform="matrix(-1 0 0 1 9.47 5)" fill="#13AEAA"/><ellipse cx=".45" cy=".42" rx=".45" ry=".42" transform="matrix(-1 0 0 1 3.9 10.16)" fill="#68C0CA"/><ellipse cx=".45" cy=".42" rx=".45" ry=".42" transform="matrix(-1 0 0 1 6.6 7.58)" fill="#13AEAA"/><ellipse cx=".45" cy=".42" rx=".45" ry=".42" transform="matrix(-1 0 0 1 5.33 8.87)" fill="#68C0CA"/><ellipse cx=".45" cy=".42" rx=".45" ry=".42" transform="matrix(-1 0 0 1 8.03 6.2)" fill="#13AEAA"/><ellipse cx="10.36" cy="8" rx=".45" ry=".42" fill="#13AEAA"/><ellipse cx="11.79" cy="8" rx=".45" ry=".42" fill="#13AEAA"/><ellipse cx="10.36" cy="6.62" rx=".45" ry=".42" fill="#13AEAA"/></svg>