<!-- by TradingView --><svg width="18" height="18" viewBox="0 0 18 18" xmlns="http://www.w3.org/2000/svg"><path fill="#F0F3FA" d="M0 0h18v18H0z"/><path fill-rule="evenodd" d="M9 15A6 6 0 1 0 9 3a6 6 0 0 0 0 12Zm0-1a5 5 0 0 0 4.98-5.42h-2.51a2.51 2.51 0 0 1 0 .84H13.15a4.17 4.17 0 1 1-.17-1.67h.86A5 5 0 1 0 9 14Zm0-8.33c1.4 0 2.6.86 3.1 2.08h-.93a2.5 2.5 0 1 0 0 2.5h.92A3.33 3.33 0 1 1 9 5.67Z" fill="url(#a)"/><defs><linearGradient id="a" x1="5.74" y1="4.19" x2="13.14" y2="12.9" gradientUnits="userSpaceOnUse"><stop stop-color="#08B4FF"/><stop offset="1" stop-color="#3D7AFC"/></linearGradient></defs></svg>