<!-- by TradingView --><svg width="18" height="18" viewBox="0 0 18 18" xmlns="http://www.w3.org/2000/svg"><path fill="#F0F3FA" d="M0 0h18v18H0z"/><path d="M10.76 3.3v5.67c.01.5-.65.72-1.05.74H8.59c-.1-.67.02-1 .37-1.4l.17-.04c.06-.01.22-.08.22-.15v-5c0-.07.07-.13.14-.12l1.27.3Z" fill="#4179AC"/><path d="M7.2 4.7c-.54.07-1.1.32-1.68.75A7.14 7.14 0 0 0 3 9.1a5.74 5.74 0 0 1 2.28-4.9A5.86 5.86 0 0 1 8.6 3.04c.03 0 .05.01.05.05v1.28c0 .03-.02.05-.05.06l-1.4.29ZM14.99 8.48c-.51 2.23-1.68 3.72-3.5 4.48a5 5 0 0 0 2.05-3.1c.2-1.07.05-2.1-.47-3.06a4.21 4.21 0 0 0-2.3-2.09V3.3c.91.27 1.6.6 2.28 1.22a5.83 5.83 0 0 1 1.94 3.96Z" fill="#305A8E"/><path d="M8.63 6H7.37c-.2 0-.37.17-.37.36v.3c0 .19.17.35.37.35h1.26c.2 0 .37-.17.37-.36v-.3c0-.2-.17-.35-.37-.35Z" fill="#4179AC"/><path d="M9 8.3c-.35.4-.45.72-.35 1.38v3.92H7.24c-.03-1.03 0-3.75 0-4.8 0-.3.17-.5.35-.5H9Z" fill="#305A8E"/><path d="M14.99 8.48a5.95 5.95 0 0 1-5.6 6.46c-.02 0-.04-.02-.04-.04v-1.25c0-.02 0-.03.02-.04 0-.02.08-.02.1-.03a7.79 7.79 0 0 0 2.02-.62c1.82-.76 2.99-2.25 3.5-4.48Z" fill="#4179AC"/><path d="M10.67 11H9.34a.33.33 0 0 0-.34.33v.34c0 .18.15.33.33.33h1.34c.18 0 .33-.14.33-.33v-.33a.33.33 0 0 0-.33-.33Z" fill="#305A8E"/><path d="M7.2 4.7c-.75.38-1.36.84-1.8 1.39a4.6 4.6 0 0 0-.42 5.22c1.37 2.39 2.32 1.96 3.67 2.27V15a6.21 6.21 0 0 1-4.82-2.85 5.11 5.11 0 0 1-.82-3.05 7.14 7.14 0 0 1 2.5-3.65 3.58 3.58 0 0 1 1.7-.74Z" fill="#4179AC"/></svg>