<!-- by TradingView --><svg width="18" height="18" viewBox="0 0 18 18" xmlns="http://www.w3.org/2000/svg"><path fill="#F0F3FA" d="M0 0h18v18H0z"/><path d="m11.4 6.06-2.05 4.02c-.2.39-.48.66-.85.81-.17.07-.43.1-.78.1l-.79.01c-.03 0-.04-.01-.02-.04L9.12 6.6c.11-.22.22-.36.32-.44a.78.78 0 0 1 .5-.16h1.42c.04 0 .05.02.03.06ZM15 7.05a590 590 0 0 1-1.72 3.57 1.6 1.6 0 0 1-.52.6c-.23.17-.46.26-.7.27h-.48c-.03 0-.04-.01-.02-.04l1.93-4c.08-.18.2-.3.37-.38.1-.05.25-.07.47-.07a82.06 82.06 0 0 1 .67.02v.03ZM9 11.96l1.87-4.01a.82.82 0 0 1 .34-.37c.1-.05.24-.08.43-.08h1.23c.03 0 .04.02.02.05l-1.58 3.4c-.23.5-.58.82-1.06.98-.14.05-.34.07-.61.07h-.62c-.02 0-.03-.01-.01-.04Z" fill="#EE2F42"/><path fill-rule="evenodd" d="M4.74 10.93c.59.1 1.2.1 1.82-.04.03 0 .05-.02.06-.04l1.37-2.79a.1.1 0 0 0 0-.08 1.7 1.7 0 0 0-.77-1.1 3.81 3.81 0 0 0-3.23-.07c-.27.14-.48.32-.62.53-.14.21-.24.44-.29.7-.1.48-.1.95 0 1.4.1.5.33.86.67 1.1.27.2.6.32.99.4ZM6.7 7.86c-.16-.18-.55-.27-1.16-.27-.6 0-.99.09-1.15.27-.17.18-.26.48-.26.89 0 .41.09.7.26.9.16.17.55.26 1.15.26.61 0 1-.09 1.16-.27.17-.18.26-.48.26-.9 0-.4-.09-.7-.26-.88Z" fill="#212423"/></svg>