<!-- by TradingView --><svg width="18" height="18" viewBox="0 0 18 18" xmlns="http://www.w3.org/2000/svg"><path fill="#F0F3FA" d="M0 0h18v18H0z"/><path d="M12.31 6.76c-.09.14-.12.25-.1.35a33.86 33.86 0 0 1-1.28 3.7l-.68-.2c.02-.23.02-.44 0-.65a140.66 140.66 0 0 1-.16-2c-.04-.3-.1-.6-.2-.88a1.68 1.68 0 0 0-.17-.7C9.3 5.3 8.49 4.81 7.29 4.92c-1.05.1-1.58 1.36-1.58 2.26-.11.06-.2.1-.28.09-.12-.97.15-1.8.8-2.5a3.3 3.3 0 0 1 1.3-.61 6.31 6.31 0 0 1 3.07.05c1.69.45 1.86 1.2 1.71 2.55Z" fill="#00AFEF"/><path d="M9.72 6.38c-1.36.19-2.7.45-4.01.8 0-.9.53-2.17 1.58-2.26 1.2-.1 2.01.38 2.43 1.46Z" fill="#2A3959"/><path d="M9.72 6.38c.1.22.17.45.18.7A24.1 24.1 0 0 0 6.94 9.2l-.54.55c-.82.98-.68 2.24.36 2.99.16.11.36.18.59.2a6 6 0 0 0 .63.03c.38 0 .73-.09 1.08-.26l.26.18c-.99.65-1.91.78-2.77.39a4.07 4.07 0 0 1-1.53-1.4 5.9 5.9 0 0 1-.89-1.9c-.35-1.3 0-2.33 1.3-2.71.08 0 .17-.03.28-.1 1.32-.34 2.65-.6 4-.79Z" fill="#A8CF45"/><path d="M12.31 6.76c1.15.56 1.94 1.71 1.62 2.98a6.3 6.3 0 0 1-1.13 2.3 3.83 3.83 0 0 1-1.78 1.37c-.47.16-.92.1-1.33-.18-.12-.09-.25-.2-.37-.34l-.26-.18A35.45 35.45 0 0 1 6.4 9.75l.54-.55c.96.51 2.18 1.2 3.3 1.4l.69.2c.62.1 1.15 0 1.6-.3.97-.63 1.15-1.86.44-2.79a2.04 2.04 0 0 0-.76-.6c-.02-.1.01-.21.1-.35Z" fill="#FFCC29"/><path d="M10.93 10.8c.5-1.2.93-2.44 1.28-3.69.32.15.57.35.76.6.7.93.53 2.16-.44 2.8-.45.29-.98.39-1.6.3Z" fill="#CC7145"/><path d="M6.4 9.75a35.44 35.44 0 0 0 2.66 2.96c-.35.17-.7.26-1.08.26a6 6 0 0 1-.63-.03 1.18 1.18 0 0 1-.59-.2c-1.03-.75-1.18-2.01-.36-3Z" fill="#00A859"/></svg>