<!-- by TradingView --><svg width="18" height="18" viewBox="0 0 18 18" xmlns="http://www.w3.org/2000/svg"><path fill="#F0F3FA" d="M0 0h18v18H0z"/><path fill-rule="evenodd" d="M9.42 8.32c-.05 0-.06.01 0 .02.2.04.35.16.46.34l.79 1.29-.01.03H8.99l-.02-.03a95.4 95.4 0 0 0-.54-1.1c-.14-.3-.37-.53-.72-.53a.05.05 0 0 0-.04.04l-.44 1.6-.03.02H5.7c-.01 0-.02 0-.01-.03l1.08-3.94A.04.04 0 0 1 6.81 6h2.98c.22 0 .44.05.66.15.48.22.7.63.56 1.15-.16.6-.72.93-1.31 1l-.28.02ZM8.14 6.77h.7c.25 0 .45.05.6.13.16.1.19.28.09.44-.13.22-.46.28-.7.28a24.2 24.2 0 0 1-.95-.02V7.6l.21-.78c0-.03.03-.04.05-.04Zm4 3.6v.01a13.84 13.84 0 0 1-5.68 1.76c-.42.02-.85.01-1.29-.04-.7-.1-1.64-.4-1.9-1.1-.24-.62.24-1.32.68-1.76a7.61 7.61 0 0 1 1.87-1.35V7.7c0-.02 0-.02-.02-.01a8.8 8.8 0 0 0-1.53 1c-.5.4-1.03.96-1.2 1.58l-.07.3c-.05.84.76 1.37 1.52 1.58.48.12.97.18 1.48.18.73-.01 1.45-.1 2.16-.25a14.3 14.3 0 0 0 4.13-1.6V10.43h.01c.17.17.28.37.33.6a11.85 11.85 0 0 1 .24 1.98l.05-.63c.03-.34.07-.7.14-1.1.02-.12.06-.27.13-.48.07-.21.2-.35.4-.42.43-.14.88-.25 1.37-.35.05 0 .05-.02 0-.03a9.37 9.37 0 0 1-1.46-.4c.31-.26.56-.57.76-.91.29-.5.36-1.15-.02-1.6-.2-.25-.47-.44-.8-.57a4.63 4.63 0 0 0-1.46-.3 7.76 7.76 0 0 0-.92-.01l.06.15v.01h.02c.36 0 .72.02 1.06.05.72.07 1.94.39 2.1 1.2.05.3 0 .6-.15.88-.2.37-.46.7-.8 1h-.03c-.15-.21-.22-.5-.26-.75a14.79 14.79 0 0 1-.2-1.73c-.03.5-.08 1.04-.16 1.61-.04.23-.1.44-.17.64a.62.62 0 0 1-.28.34l-.4.14a9.08 9.08 0 0 1-1.11.27 10.1 10.1 0 0 1 1.4.37Zm.71.04c-.2 0-.35-.18-.36-.41 0-.23.16-.42.35-.42.2 0 .35.18.36.41 0 .23-.16.42-.35.42Zm-.65-.02.05.02c.02 0 .02 0 0 .01s-.04 0-.06-.02c0 0 0-.01 0 0Z" fill="#E50012"/></svg>