<!-- by TradingView --><svg width="18" height="18" viewBox="0 0 18 18" xmlns="http://www.w3.org/2000/svg"><path fill="#F0F3FA" d="M0 0h18v18H0z"/><path d="M8.04 7.78A15.51 15.51 0 0 1 3 9.95 8.42 8.42 0 0 0 12 4a15.43 15.43 0 0 1-3.96 3.78Z" fill="url(#a)"/><path d="M9.14 11.49c-.01.39.12.77.38 1.05a1.46 1.46 0 0 0 1.96-.02c.25-.3.37-.67.35-1.06a1.3 1.3 0 0 0-1.33-1.38 1.31 1.31 0 0 0-.98.4c-.25.27-.38.63-.38 1Zm-1.14 0c0-.32.06-.64.19-.93a2.42 2.42 0 0 1 1.33-1.35 2.4 2.4 0 0 1 1.88-.02 2.54 2.54 0 0 1 1.6 2.27c0 .34-.07.68-.19 1-.11.3-.3.58-.53.8-.22.25-.49.44-.8.55-.32.13-.66.2-1 .19-.33 0-.66-.06-.96-.19-.3-.13-.59-.32-.83-.55a2.97 2.97 0 0 1-.5-.82c-.13-.3-.2-.63-.19-.95" fill="#225ED3"/><defs><linearGradient id="a" x1="2.61" y1="10.2" x2="8.19" y2="1.68" gradientUnits="userSpaceOnUse"><stop stop-color="#FFEB40"/><stop offset=".42" stop-color="#00B2BF"/><stop offset=".75" stop-color="#2169E8"/><stop offset="1" stop-color="#002199"/></linearGradient></defs></svg>