<!-- by TradingView --><svg width="18" height="18" viewBox="0 0 18 18" xmlns="http://www.w3.org/2000/svg"><path fill="#F0F3FA" d="M0 0h18v18H0z"/><path d="M10.36 4.02c0 .03.07.04.14.04.08 0 .13.02.13.05v.1c.01.03.05.06.1.07.19.02.24.04.24.11 0 .1-.08.16-.15.14-.04-.02-.1.02-.19.1-.14.15-.2.14-.18-.02.02-.1.01-.1-.1-.08-.07.01-.1 0-.1-.02 0-.08-.08-.02-.1.07-.02.12-.1.17-.17.1-.04-.03-.05-.08-.03-.2.02-.13.01-.16-.04-.2-.1-.05-.1-.05-.12.12a.5.5 0 0 1-.15.3c-.26.3-.46.24-.25-.07a.49.49 0 0 0 .07-.17c0-.03.03-.1.07-.15.08-.12.08-.14-.03-.09-.08.03-.1.06-.08.12.02.08-.06.2-.1.15-.01-.01-.05.03-.08.1-.06.13-.16.2-.28.2-.1 0-.18-.08-.12-.14l.12-.11.08-.08-.08.02c-.05.02-.1 0-.12-.03-.05-.07-.35 0-.42.1-.08.1-.07.16.02.09.08-.07.32-.08.35-.03.03.06-.02.15-.08.17-.04.01-.08.06-.1.11-.05.12-.12.14-.27.09-.1-.03-.14-.07-.16-.14-.02-.05-.03-.08-.03-.05 0 .05-.15.06-.18 0s-.07-.03-.1.08c0 .06-.03.12-.04.13-.02.01-.03.06-.03.1 0 .05-.03.12-.06.16a.54.54 0 0 0-.1.2c-.04.16-.11.2-.29.17-.08-.02-.11 0-.19.08a.47.47 0 0 1-.25.15c-.2.05-.3.14-.48.36-.1.14-.11.17-.08.23.06.1.04.14-.07.2a.54.54 0 0 0-.16.12.5.5 0 0 1-.21.12c-.15.05-.17.06-.24.24-.1.22-.2.3-.43.33-.1.01-.17.04-.17.05l.06.1c.1.1.08.2-.06.32a.43.43 0 0 1-.2.1c-.06 0-.14.05-.25.17l-.26.25-.1.09.09-.02c.06-.02.1 0 .13.05s.05.06.09.04c.08-.06.15-.04.18.06l.07.19c.05.1.37.5.53.64.1.1.12.1.29.08.24-.03.27.02.18.3l-.08.2.06.44c.04.33.08.5.15.66.05.11.1.22.12.23.05.04.04.19-.02.25-.1.1-.35.17-.81.25-.5.08-.58.1-1.06.34-.22.1-.38.21-.48.32-.09.08-.22.2-.29.24-.12.08-.13.1-.11.2.01.09 0 .1-.06.13-.07.02-.17.15-.24.31-.02.06.2.1.52.12.25.01.37.03.45.08.28.17.64.2 1.11.1.39-.07.82-.04 1.03.09.14.08.2.09.68.1.29 0 .62.03.73.04.17.02.25.01.5-.07.32-.11.48-.11 1.11-.03.98.14 1.34.15 1.4.06.03-.04.03-.06-.04-.13-.06-.05-.08-.1-.07-.2.02-.25.14-.3.7-.24.5.04.56.01.23-.14a2.2 2.2 0 0 1-.37-.23c-.06-.05-.14-.1-.17-.1s-.1-.05-.17-.11a3.9 3.9 0 0 0-.62-.46 3.43 3.43 0 0 1-.34-.23.8.8 0 0 0-.45-.2 1.88 1.88 0 0 1-.65-.18c-.12-.07-.17-.07-.42-.05-.82.07-.88.07-.92 0a.23.23 0 0 1-.03-.13c0-.07.05-.1.18-.15a.83.83 0 0 0 .43-.26c.11-.14.28-.59.36-.94.05-.25.09-.36.17-.46.12-.15.17-.16.58-.08.3.07.5.08.45.03a1.4 1.4 0 0 0-.43-.14c-.22-.04-.26-.18-.07-.27.07-.03.15-.02.35.04.15.04.34.07.42.07.11 0 .16.02.17.06.03.09.02.25-.01.37-.03.1-.03.13.04.23.04.06.09.14.1.18.01.04.03.08.05.08.03 0 0-.1-.07-.24-.07-.14-.07-.25 0-.33.06-.08.09-.07.24.12.13.17.14.17.19.1.03-.06.05-.07.1-.04.07.06.1.27.03.3-.08.03-.06.07.04.12.05.03.1.1.14.19.05.12.07.14.12.12a.95.95 0 0 1 .24-.02c.16 0 .17 0 .12-.05l-.09-.05-.04-.08c-.02-.05-.05-.07-.11-.07-.13 0-.19-.04-.19-.1 0-.05.07-.1.22-.18.21-.09.24-.1.34-.05.1.05.55.05.6.01.02 0-.01-.07-.07-.13-.08-.09-.1-.1-.15-.07-.08.06-.22.05-.4 0-.08-.03-.28-.1-.45-.14-.38-.1-.44-.15-.44-.33 0-.2.09-.27.34-.29.26-.01.4.07.47.27.06.19.15.22.41.17.25-.05.37-.02.42.12.02.08.05.1.2.1.23.02.32 0 .16-.06-.13-.04-.2-.14-.16-.2a.73.73 0 0 1 .23-.08c.16-.04.27-.04.59 0 .34.04.4.04.48-.01a.54.54 0 0 1 .23-.06c.14 0 .1-.04-.09-.08-.08-.02-.1-.01-.11.05-.02.07-.04.08-.22.05l-.4-.02h-.19l-.08-.15-.08-.14-.09.1c-.1.13-.25.18-.35.12-.1-.07-.07-.14.11-.21.1-.04.1-.04-.05-.04-.08 0-.23.02-.34.05-.14.04-.2.05-.25.02-.08-.05-.08-.09-.02-.15.1-.09.03-.08-.1.02a.47.47 0 0 1-.55 0c-.12-.08-.13-.08-.3-.03a.82.82 0 0 1-.33.03c-.2-.03-.54-.2-.58-.31-.04-.07-.03-.1.07-.2.24-.26.47-.3.83-.15.2.09.22.09.44.05l.67-.07c.48-.03.7-.1.32-.1-.33-.01-.42-.13-.19-.25.06-.03.08-.05.06-.05a.95.95 0 0 0-.28.13c-.39.2-.6.23-.57.07.02-.08 0-.08-.08-.05-.14.04-.35.04-.39-.01-.05-.06-.05-.27 0-.32.09-.07.51-.24.7-.26.1-.02.3-.01.42 0 .13.03.41.04.62.05.2 0 .4.02.44.04.06.02.08 0 .1-.08.04-.1.04-.1.25-.07.15.02.22.04.26.1.04.06.05.06.24-.05.17-.1.24-.12.44-.12.28-.01.36-.04.36-.14 0-.04.06-.15.14-.25a.8.8 0 0 0 .15-.2c0-.02-.08-.05-.18-.07-.13-.03-.16-.05-.17-.12-.01-.1.07-.15.38-.2.27-.03.3-.07.18-.17a.55.55 0 0 1-.14-.2.59.59 0 0 0-.45-.36l-.25-.06c-.09-.01-.1-.1-.01-.18.07-.07.08-.12.03-.12-.02 0-.06-.04-.1-.08-.05-.08-.06-.08-.16-.04-.23.12-.42.04-.39-.15.02-.08.01-.11-.04-.12-.03-.01-.07-.06-.09-.11-.03-.08-.06-.09-.18-.09a.78.78 0 0 1-.25-.04c-.1-.04-.11-.04-.17.02-.04.04-.09.06-.14.04-.06-.01-.08 0-.1.07-.02.12-.11.15-.23.08-.05-.03-.12-.05-.15-.03-.04 0-.1 0-.12-.03-.03-.03-.06-.03-.1 0-.13.08-.27-.06-.14-.14.04-.03.03-.04-.06-.04a.34.34 0 0 1-.18-.06c-.06-.05-.07-.05-.15.02-.05.04-.11.07-.14.07a.06.06 0 0 0-.06.06c0 .09-.1.09-.18 0-.07-.07-.08-.1-.04-.14a.55.55 0 0 1 .2-.12c.08-.03.16-.09.18-.13.02-.04.08-.1.15-.14.06-.04.1-.07.07-.07a.76.76 0 0 0-.2.1.74.74 0 0 1-.22.11c-.08 0-.1-.07-.04-.14.05-.06.04-.07-.07-.1-.24-.04-.68-.06-.65-.02Zm.56 1.53c.02.07-.05.15-.2.24-.13.07-.25.1-.25.04 0-.06.1-.2.21-.26.14-.09.22-.1.24-.02Zm.48.17c.14.07.2.08.57.07.36 0 .42 0 .43.05.02.05.05.06.17.04.18-.03.3.04.23.14-.03.03-.07.06-.1.06a.56.56 0 0 0-.19.11c-.16.13-.25.14-.27.04-.01-.04-.04-.08-.06-.08a.08.08 0 0 1-.07-.05c-.01-.05-.07-.06-.4-.03-.35.02-.4.01-.41-.04a.28.28 0 0 0-.11-.12c-.1-.05-.12-.15-.06-.23.06-.06.1-.05.27.04Zm1.55.41c.04.06-.04.17-.13.17a.31.31 0 0 0-.1.02c-.03.02-.06 0-.07-.04-.05-.14.21-.27.3-.15Zm.26.06c.1.04.11.16.03.22a.59.59 0 0 1-.28.04c-.08 0-.04-.15.06-.22.12-.09.1-.08.2-.04Zm.27.34c.01.08-.12.14-.21.11-.08-.02-.1-.14-.02-.19.07-.04.22 0 .23.08Zm-2.71.4c.05.1-.25.58-.37.58s-.03-.27.17-.54c.07-.09.16-.1.2-.05Zm-1.8.04c.18.09.07.2-.3.29-.22.05-.28.02-.18-.13.12-.18.33-.25.49-.16Zm-.66.22c.03.08-.09.27-.2.34-.14.09-.4.07-.4-.04a.3.3 0 0 1 .06-.14c.1-.15.5-.27.54-.16Zm1.87.11c.01.08-.28.43-.35.43-.1 0-.05-.16.1-.34.16-.18.23-.2.25-.09Zm-.44-.01c.08.05-.05.25-.24.35-.2.12-.44.16-.44.08 0-.22.52-.56.68-.43Zm-.81.2c0 .06-.09.26-.14.3a.95.95 0 0 1-.25.1c-.29.08-.45.16-.5.26-.03.05-.08.24-.12.42-.07.37-.13.46-.3.5-.1.02-.23-.03-.23-.09l.13-.25c.12-.18.14-.24.14-.43.01-.27.08-.36.34-.45l.41-.15c.12-.04.26-.12.32-.17.1-.1.2-.12.2-.04Zm-1.54.1c0 .14-.17.32-.3.32-.11 0-.01-.3.12-.36.12-.06.18-.05.18.04Zm-.59.14c0 .05-.05.18-.1.28l-.08.2.06.24c.08.33.1.55.05.62-.06.08-.17.05-.18-.05-.02-.12-.06-.1-.15.06l-.07.15h-.27c-.32 0-.4-.06-.4-.29 0-.17.08-.26.3-.33a.49.49 0 0 0 .33-.36c.06-.22.1-.3.17-.31.04-.02.11-.1.16-.17.1-.17.2-.19.18-.04Zm4.49.17-.08.05.07-.02a.6.6 0 0 0 .13-.06c.04-.02.04-.03 0-.03a.3.3 0 0 0-.13.06Zm-1.78.2c.08.07.05.18-.05.25-.14.1-.2.1-.26-.03-.06-.14-.06-.19 0-.25.07-.05.24-.04.31.03Zm-.63.05c0 .04.02.1.05.12.04.03.04.06 0 .14-.01.05-.05.1-.07.1l-.25.1c-.23.08-.3.07-.3-.06 0-.15.09-.28.29-.38.21-.12.28-.12.28-.02Zm-2.95.17c.1.04.1.17.02.2-.24.07-.35.06-.35-.06 0-.07.11-.18.2-.18l.13.04Zm3.87.61c.42.33.61.62.49.76-.07.08-.09.07-.18-.07-.19-.29-.36-.45-.51-.5-.21-.04-.39-.14-.39-.2 0-.08.08-.13.24-.13.13 0 .2.03.35.14Zm-2 .52a.2.2 0 0 1 .1.1c.03.08-.13.5-.24.62-.14.17-.34.08-.32-.15 0-.1 0-.11-.08-.12a.24.24 0 0 1-.14-.08c-.05-.07-.05-.08.01-.2.06-.1.08-.11.31-.15l.27-.05.1.03Zm-1.28.37c-.02.34-.15.73-.24.73-.06 0-.16-.34-.13-.49.02-.16.22-.43.31-.42.06.01.07.03.06.18Zm4.47-.01c.16.02.23.1.15.15a.83.83 0 0 1-.23.05c-.15.02-.19.01-.27-.06-.06-.06-.08-.1-.07-.15.02-.05.05-.06.16-.04l.26.05Z" fill="#659541"/></svg>