<!-- by TradingView --><svg width="18" height="18" viewBox="0 0 18 18" xmlns="http://www.w3.org/2000/svg"><path fill="#F0F3FA" d="M0 0h18v18H0z"/><path d="M9 13a4 4 0 0 0 4-4h1v5H9v-1Z" fill="#008BA8"/><path d="M9 4H4v10h5v-1a4 4 0 0 1 0-8V4Z" fill="#1C4A7C"/><path d="m13.66 9.3.33.03a5.07 5.07 0 0 0 0-.66l-.33.02c-.02-.2-.04-.4-.08-.6l.32-.07c-.04-.21-.1-.42-.16-.63l-.32.1c-.07-.18-.14-.37-.23-.55l.3-.15a5 5 0 0 0-.33-.57l-.28.19a4.68 4.68 0 0 0-.37-.49l.25-.22c-.14-.16-.3-.32-.46-.46l-.22.25a4.69 4.69 0 0 0-.49-.37l.19-.28a5 5 0 0 0-.57-.33l-.15.3a4.64 4.64 0 0 0-.56-.23l.1-.32c-.2-.07-.4-.12-.62-.16l-.07.32c-.2-.04-.4-.06-.6-.08l.02-.33a5.08 5.08 0 0 0-.66 0l.02.33c-.2.02-.4.04-.6.08l-.07-.32c-.21.04-.42.1-.63.16l.1.32c-.18.07-.37.14-.55.23l-.15-.3a5 5 0 0 0-.57.33l.19.28c-.17.11-.33.24-.49.37l-.22-.25c-.16.14-.32.3-.46.46l.25.22c-.13.16-.26.32-.37.49l-.28-.19a5 5 0 0 0-.33.57l.3.15c-.09.18-.16.37-.23.56l-.32-.1c-.07.2-.12.4-.16.62l.32.07c-.04.2-.06.4-.08.6l-.33-.02a5.08 5.08 0 0 0 0 .66l.33-.02c.02.2.04.4.08.6l-.32.07c.04.21.1.42.16.63l.32-.1c.07.18.14.37.23.55l-.3.15c.1.2.21.39.33.57l.28-.19c.11.17.24.33.37.49l-.25.22c.14.16.3.32.46.46l.22-.25c.16.13.32.26.49.37l-.19.28a5 5 0 0 0 .57.33l.15-.3c.18.09.37.16.56.23l-.1.32c.2.07.4.12.62.16l.07-.32c.2.04.4.06.6.08l-.02.33a5.07 5.07 0 0 0 .66 0l-.02-.33c.2-.02.4-.04.6-.08l.07.32c.21-.04.42-.1.63-.16l-.1-.32c.18-.07.37-.14.55-.23l.15.3a5 5 0 0 0 .57-.33l-.19-.28c.17-.11.33-.24.49-.37l.22.25c.16-.14.32-.3.46-.46l-.25-.22c.13-.16.26-.32.37-.49l.28.19a5 5 0 0 0 .33-.57l-.3-.15c.09-.18.16-.37.23-.56l.32.1c.07-.2.12-.4.16-.62l-.32-.07c.04-.2.06-.4.08-.6ZM13 9a4 4 0 1 1-8 0 4 4 0 0 1 8 0Z" fill="#38A345"/><path fill="#0896A7" fill-opacity=".7" d="M6 8h6v2H6z"/></svg>