<!-- by TradingView --><svg width="18" height="18" viewBox="0 0 18 18" xmlns="http://www.w3.org/2000/svg"><path fill="#F0F3FA" d="M0 0h18v18H0z"/><path fill-rule="evenodd" d="m8.52 3-.73.38-1.53.8-.67.34-1.72.9-.6.32 4.05 2.04 1.2-.62V3ZM3 6.4v5.2l4-2.02V8.42L3 6.4Zm.27 5.87.72.37 1.5.78.66.35 1.64.85.73.38v-4.16l-1.2-.62-4.05 2.04ZM9.48 15l.39-.2 1.6-.83.65-.35 1.74-.9.8-.42-4.05-2.05-1.13.6V15ZM15 11.67V6.33l-4 2.02v1.3l4 2.02Zm-.34-5.97-4.05 2.05-1.13-.6V3l.39.2 1.75.91.66.35 1.71.89.67.35Zm-2.96-.37 1.16.6-2.36 1.23 1.2-1.83Zm-1.83-.95 1.17.6-1.17 1.79v-2.4Zm-3.06.69.98-.51v2.09L6.8 5.07ZM4.99 6l1.16-.6 1.1 1.77L4.98 6Zm-.86 2.77V7.67l2.06 1.06-2.06.05Zm0 1.69v-.98l1.98-.05-1.98 1.03Zm1.94 2.08-.95-.5 1.93-1-.98 1.5Zm1.72.9-1.06-.56 1.06-1.6v2.15Zm3.12-.37-1.04.54V11.4l1.04 1.68Zm1.82-.95-1.16.6-1.1-1.77 2.26 1.17Zm1.14-2.87v1.36l-2.5-1.3 2.5-.06Zm0-1.74v1.04l-2.1.04 2.1-1.08Z" fill="#896F49"/></svg>