<!-- by TradingView --><svg width="18" height="18" viewBox="0 0 18 18" xmlns="http://www.w3.org/2000/svg"><path fill="#F0F3FA" d="M0 0h18v18H0z"/><path d="M4.86 6C4.38 6 4 6.45 4 7s.38 1 .86 1H8v3.13c0 .48.45.87 1 .87s1-.39 1-.87V8h3.14c.48 0 .86-.45.86-1s-.38-1-.86-1H4.86Z" fill="url(#ays0qzli4)"/><circle cx="6" cy="10" r="2" fill="#0064C3"/><circle cx="6" cy="10" r="1" fill="#00BDFF"/><path d="M5.68 9.68c-.43.44-1.01.57-1.3.29-.28-.28-.15-.86.29-1.3.44-.44 1.02-.57 1.3-.29.28.28.15.87-.29 1.3Z" fill="#90D4FF"/><path d="M12 8.76c0-.42-.45-.76-1-.76s-1 .34-1 .76V11.24c0 .26.17.49.43.63.13.08.28.13.44.13h2.26c.48 0 .87-.45.87-1s-.39-1-.87-1H12V8.76Z" fill="#FF6313"/><defs><linearGradient id="ays0qzli4" x1="13.97" y1="9" x2="4" y2="9" gradientUnits="userSpaceOnUse"><stop stop-color="#65A328"/><stop offset=".13" stop-color="#90D82D"/><stop offset=".51" stop-color="#DAEF16"/><stop offset=".85" stop-color="#93D82E"/><stop offset="1" stop-color="#70B42A"/></linearGradient></defs></svg>