<!-- by TradingView --><svg width="18" height="18" viewBox="0 0 18 18" xmlns="http://www.w3.org/2000/svg"><path fill="#F0F3FA" d="M0 0h18v18H0z"/><path d="M11 9.85C11.03 8.36 12.32 7 13.74 7 14.6 7 15 7.55 15 8.43h-1c.01-.36-.18-.68-.53-.68-.86 0-1.41 1.15-1.44 1.92 0 .34.18.58.52.58.39 0 .75-.26.95-.58h1c-.55.76-1.26 1.33-2.2 1.33-.69 0-1.32-.38-1.3-1.15ZM7 11l1.3-4H11l-.26.86H8.97l-.25.64h1.46l-.25.79H8.46l-.28.85H10l-.26.86H7ZM3.4 10.75a.97.97 0 0 1-.39-.7c-.04-.3.02-.65.16-1.05.15-.4.34-.75.6-1.05.25-.3.55-.53.88-.7A2.4 2.4 0 0 1 5.72 7c.38 0 .68.09.9.25.2.17.33.4.37.7.04.3-.01.65-.16 1.05-.14.4-.34.75-.6 1.06-.25.3-.55.53-.88.7-.33.16-.69.24-1.07.24a1.4 1.4 0 0 1-.89-.25Zm1.9-.83c.22-.22.4-.53.55-.92.14-.4.17-.7.1-.92-.07-.21-.23-.33-.5-.33s-.52.12-.75.33c-.22.22-.4.53-.54.92-.14.4-.18.7-.12.92.07.22.24.33.51.33s.52-.11.75-.33Z" fill="#0095E1"/></svg>