<!-- by TradingView --><svg width="18" height="18" fill="none" xmlns="http://www.w3.org/2000/svg"><path fill="#7E0626" d="M0 0h18v18H0z"/><path fill-rule="evenodd" clip-rule="evenodd" d="M5.707 9c-.068 0-.09.031-.045.102.339.501.658 1.008.979 1.518l.21.333V11c-.023-.024-.05-.041-.079-.06a.4.4 0 0 1-.078-.058c-.613-.495-1.254-.953-1.895-1.411-.587-.42-1.174-.84-1.74-1.287-.004-.005-.01-.01-.017-.015-.027-.02-.063-.047-.027-.103A.217.217 0 0 1 3.172 8h4.213c.094.002.099.002.138-.124.023-.082.05-.19.079-.296l.078-.296c.023-.083.05-.172.079-.26a6.73 6.73 0 0 0 .078-.26l.135-.427.135-.497c.022-.094.05-.183.078-.272.028-.089.056-.177.079-.272.022-.083.05-.172.078-.26.028-.09.056-.178.079-.26l.134-.427c.045-.166.09-.331.157-.497.023-.095.05-.183.079-.272.028-.089.056-.178.078-.272 0-.052.024-.116.045-.174l.022-.063c0-.024.045-.071.068-.071a.547.547 0 0 1 .033.02c.023.013.034.02.034.004.034.094.062.189.09.284.028.094.056.189.09.284.022.083.05.165.078.248.028.083.056.166.079.249.033.13.072.26.112.39.039.13.078.26.112.39.022.084.05.167.078.25.028.082.056.165.079.248.026.109.059.21.09.307.025.072.048.143.067.214.022.094.05.183.078.272.028.089.056.177.079.272.034.13.073.254.112.379.04.124.079.248.112.378l.135.426c.022.048.052.24.052.286 0 .048.068.095.113.095H11c-.11.055-.219.105-.327.154-.315.143-.623.284-.907.53a103.32 103.32 0 0 1-.762-2.461h-.045c-.036.057-.058.13-.077.193l-.013.044-.134.426c-.045.094-.068.189-.09.284a3.969 3.969 0 0 1-.112.497c-.023.095-.05.184-.079.273a3.807 3.807 0 0 0-.078.272c-.018.065-.035.136-.053.207-.027.111-.055.222-.082.309-.011.023-.017.053-.022.083-.006.03-.011.059-.023.082 0 .071-.045.111-.112.111H5.707Zm7.39.077c-.581.22-1.139.483-1.673.791-.13.069-.252.146-.37.221-.072.045-.141.09-.21.13a43.81 43.81 0 0 1-.535.462c-.18.154-.36.308-.534.462-.418.373-.79.791-1.115 1.23a7.727 7.727 0 0 0-.999 1.737c-.116.308-.232.637-.325.945-.038.132-.07.271-.101.414a9.71 9.71 0 0 1-.085.355.32.32 0 0 0-.024.087c-.006.029-.012.059-.022.089v-.461l.035-.308.034-.308c.012-.099.03-.192.047-.286.017-.093.035-.187.046-.285a4.18 4.18 0 0 1 .116-.572c.047-.198.117-.395.186-.593.047-.11.093-.226.14-.34.046-.116.093-.232.14-.341.208-.44.44-.858.72-1.253a8.233 8.233 0 0 1 1.788-1.868 7.445 7.445 0 0 1 2.02-1.121A3.974 3.974 0 0 1 13.816 8h2.091c.046 0 .093.044.093.066 0 .022-.023.066-.046.088a1.655 1.655 0 0 1-.186.066c-.418.132-.813.242-1.231.351-.488.154-.976.308-1.44.506Z" fill="#fff"/></svg>