<!-- by TradingView --><svg width="18" height="18" viewBox="0 0 18 18" xmlns="http://www.w3.org/2000/svg"><path fill="#F0F3FA" d="M0 0h18v18H0z"/><path d="m10.3 5.75-.65-1.5-.65 2 .65 1.25.65-1.75Z" fill="url(#a)"/><path d="M11.83 5.75H10.3L9.65 7.5h1.52l.66-1.75Z" fill="url(#b)"/><path d="m9.65 4.25.65 1.5h1.53l-.66-1.5H9.65Z" fill="url(#c)"/><path d="m6.83 4-.66 1.5.87 2.25L7.7 6l-.87-2Z" fill="url(#d)"/><path d="m7.7 6-.66 1.75h2.18L9.87 6H7.7Z" fill="url(#e)"/><path d="m6.83 4 .87 2h2.17L9 4H6.83Z" fill="url(#f)"/><path d="m10.7 6-.83 2 .87 2 .65-2-.69-2Z" fill="url(#g)"/><path d="m11.39 8-.65 2h2.17l.65-2H11.4Z" fill="url(#h)"/><path d="m10.7 6 .7 2h2.16l-.81-2H10.7Z" fill="url(#i)"/><path d="M5.52 6 4.8 4.5l-.8 2L4.65 8l.87-2Z" fill="url(#j)"/><path d="M7.48 6H5.52l-.87 2 2.03-.25.8-1.75Z" fill="url(#k)"/><path d="M4.8 4.5 5.6 6h1.88l-.8-1.5H4.8Z" fill="url(#l)"/><path d="M12.26 10.5 11.4 9l-.87 2.15.87 1.35.87-2Z" fill="url(#m)"/><path d="M14 10.5h-1.74l-.87 2h1.83l.78-2Z" fill="url(#n)"/><path d="m11.4 9 .86 1.5H14L13.22 9h-1.83Z" fill="#02C1F5"/><path d="M4.98 6.5 4.22 9l.8 2.5L5.8 9l-.81-2.5Z" fill="url(#o)"/><path d="m5.8 9-.78 2.5h2.56L8.35 9H5.79Z" fill="url(#p)"/><path d="M4.98 6.5 5.79 9h2.56l-.96-2.5H4.98Z" fill="#D8E04D"/><path d="m8.67 9-.76 2.5.8 2.5.78-2.5L8.67 9Z" fill="url(#q)"/><path d="M9.49 11.5 8.72 14h2.56l.76-2.5H9.5Z" fill="url(#r)"/><path d="m8.67 9 .82 2.5h2.55L11.08 9h-2.4Z" fill="#D8E04D"/><path d="m7.04 11.5-.87-2-.87 2.46L6.4 14l.64-2.5Z" fill="url(#s)"/><path d="M9.22 11.5H7.04L6.4 14h1.96l.87-2.5Z" fill="url(#t)"/><path d="m6.17 9.5.87 2h2.18l-.92-2H6.17Z" fill="#02C1F5"/><defs><linearGradient id="a" x1="9.65" y1="4.25" x2="9.65" y2="7.5" gradientUnits="userSpaceOnUse"><stop stop-color="#167EE1"/><stop offset="1" stop-color="#2F4670"/></linearGradient><linearGradient id="b" x1="11.17" y1="5.75" x2="9.66" y2="7.29" gradientUnits="userSpaceOnUse"><stop stop-color="#167EE1"/><stop offset="1" stop-color="#2F4670"/></linearGradient><linearGradient id="c" x1="11.17" y1="4.25" x2="9.89" y2="5.77" gradientUnits="userSpaceOnUse"><stop stop-color="#54D0FF"/><stop offset="1" stop-color="#D7EDFA"/></linearGradient><linearGradient id="d" x1="6.93" y1="4" x2="6.93" y2="7.75" gradientUnits="userSpaceOnUse"><stop stop-color="#86BB2F"/><stop offset="1" stop-color="#23733E"/></linearGradient><linearGradient id="e" x1="7.91" y1="6.25" x2="9.15" y2="7.33" gradientUnits="userSpaceOnUse"><stop stop-color="#7DB031"/><stop offset="1" stop-color="#114326"/></linearGradient><linearGradient id="f" x1="7.7" y1="6" x2="9.21" y2="4.46" gradientUnits="userSpaceOnUse"><stop stop-color="#F5F7E1"/><stop offset="1" stop-color="#E5E994"/></linearGradient><linearGradient id="g" x1="10.8" y1="6" x2="10.8" y2="9.5" gradientUnits="userSpaceOnUse"><stop stop-color="#86BB2F"/><stop offset="1" stop-color="#23733E"/></linearGradient><linearGradient id="h" x1="11.72" y1="8.1" x2="12.88" y2="9.11" gradientUnits="userSpaceOnUse"><stop stop-color="#7DB031"/><stop offset="1" stop-color="#114326"/></linearGradient><linearGradient id="i" x1="11.52" y1="7.87" x2="12.93" y2="6.42" gradientUnits="userSpaceOnUse"><stop stop-color="#F5F7E1"/><stop offset="1" stop-color="#E5E994"/></linearGradient><linearGradient id="j" x1="4.8" y1="4.5" x2="4.8" y2="7.75" gradientUnits="userSpaceOnUse"><stop stop-color="#167EE1"/><stop offset="1" stop-color="#2F4670"/></linearGradient><linearGradient id="k" x1="6.68" y1="6" x2="5.19" y2="7.85" gradientUnits="userSpaceOnUse"><stop stop-color="#167EE1"/><stop offset="1" stop-color="#2F4670"/></linearGradient><linearGradient id="l" x1="6.68" y1="4.5" x2="5.46" y2="6.27" gradientUnits="userSpaceOnUse"><stop stop-color="#54D0FF"/><stop offset="1" stop-color="#D7EDFA"/></linearGradient><linearGradient id="m" x1="11.32" y1="9" x2="11.32" y2="12.5" gradientUnits="userSpaceOnUse"><stop stop-color="#167EE1"/><stop offset="1" stop-color="#2F4670"/></linearGradient><linearGradient id="n" x1="13.22" y1="10.5" x2="11.49" y2="12.34" gradientUnits="userSpaceOnUse"><stop stop-color="#167EE1"/><stop offset="1" stop-color="#2F4670"/></linearGradient><linearGradient id="o" x1="5.1" y1="6.5" x2="5.1" y2="10.88" gradientUnits="userSpaceOnUse"><stop stop-color="#86BB2F"/><stop offset="1" stop-color="#23733E"/></linearGradient><linearGradient id="p" x1="6.18" y1="9.13" x2="7.61" y2="10.31" gradientUnits="userSpaceOnUse"><stop stop-color="#7DB031"/><stop offset="1" stop-color="#114326"/></linearGradient><linearGradient id="q" x1="8.79" y1="9" x2="8.79" y2="13.38" gradientUnits="userSpaceOnUse"><stop stop-color="#86BB2F"/><stop offset="1" stop-color="#23733E"/></linearGradient><linearGradient id="r" x1="9.88" y1="11.63" x2="11.31" y2="12.81" gradientUnits="userSpaceOnUse"><stop stop-color="#7DB031"/><stop offset="1" stop-color="#114326"/></linearGradient><linearGradient id="s" x1="6.21" y1="9.5" x2="6.21" y2="13.5" gradientUnits="userSpaceOnUse"><stop stop-color="#167EE1"/><stop offset="1" stop-color="#2F4670"/></linearGradient><linearGradient id="t" x1="8.3" y1="11.5" x2="6.61" y2="13.61" gradientUnits="userSpaceOnUse"><stop stop-color="#167EE1"/><stop offset="1" stop-color="#2F4670"/></linearGradient></defs></svg>