<!-- by TradingView --><svg width="18" height="18" viewBox="0 0 18 18" xmlns="http://www.w3.org/2000/svg"><path fill="#F0F3FA" d="M0 0h18v18H0z"/><path fill-rule="evenodd" d="M5.78 13.54a3.3 3.3 0 0 1-1.22-1.15 3.76 3.76 0 0 1-.54-1.66c-.06-.62.01-1.27.21-1.93a7.12 7.12 0 0 1 4.34-4.5 4.51 4.51 0 0 1 3.65.16c.5.27.91.66 1.22 1.15.3.48.48 1.04.54 1.66.06.62-.01 1.27-.21 1.93a7.12 7.12 0 0 1-4.34 4.5c-1.32.45-2.63.4-3.65-.16Zm5.13-8.05c-.38.52-.33 1.14.1 1.39.45.25 1.11.03 1.5-.49.37-.52.32-1.14-.12-1.4-.43-.24-1.1-.02-1.48.5Zm-3.36 5.57c-.46-.25-.75-.71-.8-1.27-.06-.57.13-1.19.52-1.73.38-.55.93-.97 1.53-1.18.6-.2 1.2-.19 1.65.07.46.25.75.7.8 1.27.06.56-.13 1.18-.51 1.73-.39.54-.94.96-1.54 1.17-.6.21-1.19.19-1.65-.06Zm.54-2.56c-.42.6-.35 1.3.16 1.57.5.28 1.25.02 1.67-.57.41-.6.35-1.3-.16-1.57-.5-.28-1.25-.02-1.67.57Z" fill="#D82329"/></svg>