<!-- by TradingView --><svg width="18" height="18" viewBox="0 0 18 18" xmlns="http://www.w3.org/2000/svg"><path fill="#F0F3FA" d="M0 0h18v18H0z"/><path d="M9.05 3h-.09a6.03 6.03 0 0 0-5.4 8.53A6 6 0 1 0 9.04 3Zm-.53 6.54c.14-.1.28-.18.35-.34a.01.01 0 0 0 0-.01.01.01 0 0 0-.02 0c-.2.08-.37.12-.5.12h-.1c-.2 0-.43 0-.63.05-.85.18-1.66.89-2.2 1.56a7.76 7.76 0 0 0-.83 1.25 5.43 5.43 0 1 1 7.93.96c.39-.76.37-1.71.13-2.5-.19-.62-.67-.6-1.04-.17-.37.43-.6.92-.7 1.48l-.1.88a9.73 9.73 0 0 1-.21 1.37 5.33 5.33 0 0 1-2.58.13c.4-1.05.7-2.17.74-3.3.02-.48-.03-1-.28-1.44v-.02l.04-.02Zm1.68-2.5a.9.9 0 0 1 .43-.04.02.02 0 0 1-.01.03 1.2 1.2 0 0 0-.5.27c-.02.03-.02.05 0 .08a3.32 3.32 0 0 1 1.12 1.14c.2.36.28.72.34 1.13.01.04.03.05.07.03l.02-.04c.26-.69.39-1.73-.33-2.2-.06-.05-.05-.07.02-.06.22.02.42.09.6.2.04.02.05.01.05-.03a2.48 2.48 0 0 0-.89-1.49.02.02 0 0 1 .02-.02c.18-.04.61-.22.65-.42.01-.04 0-.05-.04-.04-.37.15-.72.1-1.07-.04l-.03-.01c-.55-.21-1-.38-1.59-.34-.63.04-1.49.36-1.83.94-.32.55.34 1.1.8 1.23.72.22 1.43-.04 2.13-.3l.04-.01ZM8.9 6.18c.2.05.42.1.63.01a.01.01 0 0 1 .01.02c-.05.15-.38.2-.52.2a.03.03 0 0 0-.03.04v.06c0 .07 0 .14-.02.2-.14.4-.86.36-1.01.02-.1-.21.08-.46.27-.55.22-.12.45-.06.67 0Zm-.44.63a.24.24 0 1 0 0-.48.24.24 0 0 0 0 .48ZM7.37 7.91c.38 0 .38-.22.12-.42-.22-.17-.4-.38-.54-.62-.1-.16-.2-.14-.36-.06-.2.1-.35.25-.46.44a1.17 1.17 0 0 0 .15 1.33.01.01 0 0 0 .02-.01c-.02-.1-.13-.65.04-.65h1.03Z" fill="#19212E"/></svg>