<!-- by TradingView --><svg width="18" height="18" viewBox="0 0 18 18" xmlns="http://www.w3.org/2000/svg"><path fill="#F0F3FA" d="M0 0h18v18H0z"/><path d="M7.8 5a4.11 4.11 0 0 0-2.6 7l.98-.98A2.7 2.7 0 0 1 7.79 6.4v2.5c0 .16.13.3.3.3a.3.3 0 0 0 .28-.3V6.4H7.8V5Zm.57 1.4c.64.05 1.22.33 1.65.75l.98-.98A4.1 4.1 0 0 0 8.37 5v1.4Z" fill="#5C5855"/><path fill-rule="evenodd" d="M9.37 12c.76 0 1.37-.67 1.37-1.5S10.13 9 9.37 9C8.61 9 8 9.67 8 10.5S8.61 12 9.37 12Zm0-.6c.42 0 .76-.4.76-.9s-.34-.9-.76-.9-.76.4-.76.9.34.9.76.9ZM12.72 9h-2.13v.6h.81V12h.6V9.6h.72V9Zm-.3 3h.55l.19-.6h1.1l.19.6H15l-.95-3H13.36l-.95 3Zm1.64-1.2h-.7l.35-1.1.35 1.1Z" fill="#940700"/></svg>