<!-- by TradingView --><svg xmlns="http://www.w3.org/2000/svg" width="18" height="18"><path fill="#E30613" d="M0 0h18v18H0z"/><path d="M3.63 12.56c1.47 2.19 5.07 2.37 8.04.4 2.96-1.96 4.18-5.33 2.7-7.52-1.47-2.19-5.07-2.37-8.04-.4-2.97 1.96-4.18 5.33-2.7 7.52zm7.7-.09c-2.6 1.72-5.75 1.56-7.04-.35C3 10.2 4.06 7.25 6.66 5.52c2.6-1.71 5.76-1.55 7.05.36 1.29 1.92.23 4.87-2.37 6.6zm-6.39-.85c1.12 1.65 3.84 1.79 6.08.3 2.24-1.48 3.16-4.03 2.04-5.68-1.11-1.66-3.83-1.8-6.07-.3-2.25 1.48-3.16 4.02-2.05 5.68zm5.26-1.86c-.91 1.29-2.19 1.96-2.85 1.5-.66-.46-.46-1.88.45-3.17S10 6.13 10.65 6.6c.66.46.46 1.88-.45 3.17zm-.67-.36c-.67.94-1.47 1.53-1.79 1.31-.31-.22-.03-1.16.64-2.1.67-.95 1.47-1.54 1.79-1.32.31.22.03 1.16-.64 2.1z" fill="#fff"/></svg>