<!-- by TradingView --><svg width="18" height="18" viewBox="0 0 18 18" xmlns="http://www.w3.org/2000/svg"><path fill="#F0F3FA" d="M0 0h18v18H0z"/><path d="M6 9.5v1.7c0 .08.02.12.07.16.21.16.4.3.6.47.08.07.17.07.27.07v.1H4v-.11c.24.08.77-.32.94-.53.05-.03.06-.07.06-.13V6.78c0-.07-.02-.1-.06-.14-.24-.25-.52-.31-.74-.5-.05-.03-.12-.03-.2-.05v-.08h2.51C7.4 6 9 6.13 9 7.7 9 9.21 7.98 9.5 7.36 9.5H6Zm0-.22h1c.63-.15 1-.96 1-1.61 0-.79-.52-1.44-1.29-1.46H6v3.07Z" fill="#1CB6C7"/><path d="m11.06 9.5 1.46-.48c.66-.21 1.28-.57 1.29-1.35C13.82 6.4 12.4 6 11.3 6c-.46 0-.95.05-1.37.26-.47.24-.96.74-.94 1.37.01.5.35.92.87.94.46.01.9-.31.9-.86 0-.41-.35-.7-.75-.71-.22 0-.48.07-.68.15l.03-.1c.1-.24.26-.41.46-.55.42-.3.88-.39 1.36-.3.7.11.81.83.81 1.51 0 .44.02.86-.31 1.15-.16.13-.33.25-.51.35-.39.22-.78.4-1.14.66A2.52 2.52 0 0 0 9 12h.13l.04-.24c.1-.47.39-.77.8-.73.2.02.4.13.6.25.3.18.58.39.88.53.25.12.5.19.76.19.3 0 .6-.1.89-.28.53-.33.8-.86.88-1.55L14 9.8h-.1c-.04.19-.07.37-.12.55-.05.18-.17.34-.34.36-.2 0-.23-.02-.34-.06-.22-.09-.45-.2-.67-.32a2.37 2.37 0 0 0-1.09-.33 2.6 2.6 0 0 0-1.77.82l-.3.34c0-.04.02-.08.03-.1.13-.4.38-.68.66-.93.33-.3.71-.49 1.1-.63Z" fill="#1CB6C7"/></svg>