<!-- by TradingView --><svg width="18" height="18" viewBox="0 0 18 18" xmlns="http://www.w3.org/2000/svg"><path fill="#F0F3FA" d="M0 0h18v18H0z"/><path d="M9.25 6.22a12.96 12.96 0 0 1-3.21 3.62.34.34 0 0 1-.15.07 31.43 31.43 0 0 0-1.66.34c.82-.6 1.6-1.24 2.36-1.94a14.48 14.48 0 0 0 2.75-3.3c.5 1.46 1.54 3.8 3.12 3.97l.03.01a6.53 6.53 0 0 0 1.81 1.58 3.88 3.88 0 0 1-1.95-1.27c-1.48-.14-2.5-1.7-3.1-3.08Z" fill="#D19B2E"/><path d="M4.71 10.36a17.45 17.45 0 0 1 11.22 1.6c.1.05.1.05 0 .02-3.53-1.3-8.66-1.3-11.9-.75l-1.96.52c-.09.02-.1 0-.01-.05.46-.36.99-.8 1.47-1.02.39-.18.67-.22 1.18-.32Z" fill="url(#aqzpo0uep)"/><defs><linearGradient id="aqzpo0uep" x1="14" y1="11.26" x2="2.92" y2="11.14" gradientUnits="userSpaceOnUse"><stop stop-color="#9C9EA1"/><stop offset="1" stop-color="#CBCDCE"/></linearGradient></defs></svg>