<!-- by TradingView --><svg width="18" height="18" viewBox="0 0 18 18" xmlns="http://www.w3.org/2000/svg"><path fill="#58585A" d="M0 0h18v18H0z"/><path d="M6 4h3.86c.55 0 1.04.07 1.45.22A2.38 2.38 0 0 1 13 6.59c0 .44-.1.97-.31 1.32-.2.36-.47.65-.8.86-.33.22-.68.4-1.07.52-.55.16-1.1.18-1.66.16A6.22 6.22 0 0 1 8 9.35v2.57c0 .68.05 1.57.59 2.08H6c1-.5 1-1.42 1-2.26V5.66c0-.7-.32-1.43-1-1.66Zm4.43 4.9c.24-.09.47-.22.68-.4.22-.18.4-.42.52-.73.13-.3.2-.79.2-1.18 0-.69-.2-1.23-.58-1.6a1.76 1.76 0 0 0-1.37-.54H8v4.47c.48.14.66.1 1.16.12.43 0 .85.02 1.27-.13Z" fill="#fff"/></svg>