<!-- by TradingView --><svg width="18" height="18" viewBox="0 0 18 18" xmlns="http://www.w3.org/2000/svg"><path fill="#27343C" d="M0 0h18v18H0z"/><path d="M4.59 9.45h.58v-.79c0-.16-.2-.35-.27-.35-.08 0-.31.2-.31.35v.8ZM5.35 9.45h.55v-.79c0-.16-.2-.35-.28-.35-.07 0-.27.2-.27.35v.8ZM6.07 9.45h.58v-.79c0-.16-.23-.35-.3-.35-.08 0-.28.2-.28.35v.8ZM11.35 9.45h.6v-.79c0-.15-.2-.35-.28-.35-.07 0-.32.2-.32.35v.8ZM12.12 9.45h.56v-.79c0-.15-.2-.35-.28-.35-.08 0-.28.2-.28.35v.8ZM12.85 9.45h.56v-.79c0-.15-.2-.35-.29-.35-.07 0-.27.2-.27.35v.8ZM7.53 9.48h.6v-.82c0-.15-.2-.35-.29-.35-.07 0-.31.2-.31.35v.82ZM8.73 9.48h.55v-.82c0-.16-.2-.35-.28-.35-.07 0-.27.2-.27.35v.82ZM9.88 9.45h.6v-.79c0-.16-.24-.35-.32-.35-.08 0-.28.2-.28.35v.8ZM4.62 11.55h.55v-.82c0-.16-.2-.35-.27-.35-.08 0-.28.19-.28.35v.82ZM5.35 11.55h.55v-.82c0-.16-.2-.35-.28-.35-.07 0-.27.19-.27.35v.82ZM6.07 11.55h.56v-.82c0-.16-.2-.35-.28-.35-.08 0-.28.19-.28.35v.82ZM11.4 11.55h.55v-.82c0-.16-.2-.35-.28-.35-.07 0-.27.19-.27.35v.82ZM12.12 11.55h.56v-.82c0-.16-.2-.35-.28-.35-.08 0-.28.19-.28.35v.82ZM12.85 11.55h.55v-.82c0-.16-.2-.35-.28-.35-.07 0-.27.19-.27.35v.82Z" fill="#fff"/><path d="M4 12h10V7.55h-.17v-.51h.13v-.3h-3.08v-.83l-1-.59v.34L9 5l-.87.66v-.34l-1.02.59v.84H4.04v.29h.13v.5H4V12Zm5.88-5.9H8.12V6l.87-.66.9.66v.09Zm-1.76.56V6.4h.37l-.37.26Zm1.76 0L9.5 6.4h.38v.26Zm-2.53.42V6.07l.46-.28V6.8l-.46.27Zm3.29 0-.46-.27V5.79l.46.28v1.01Zm-.2.27h-2.9L9 6.48l1.45.87ZM7.09 9.82h-2.8V7.86h2.8v1.96Zm6.62-.05h-2.8v-1.9h2.8v1.9Zm-4.5 1.64h-.4v-.59c0-.1.15-.26.2-.27.03.01.2.16.2.27v.6ZM6.48 7.55H4.44v-.51H7.1v.2l-.62.3Zm1.82 3.95h-.19v-.68c0-.16-.2-.35-.28-.35-.07 0-.27.2-.27.35v.68H7.4V7.68h.91v3.82Zm1.16 0h-.05v-.75c0-.21-.32-.46-.42-.46-.1 0-.42.25-.42.46v.75h-.05V7.68h.94v3.82Zm4.1-3.95H11.5l-.62-.32v-.2h2.68v.52ZM10.6 11.5h-.16v-.68c0-.16-.2-.35-.28-.35-.08 0-.28.2-.28.35v.68H9.7V7.68h.91v3.82Zm-3.51.18h-2.8V10.1h2.8v1.58Zm6.62 0h-2.8V10.1h2.8v1.58Zm-3.1.08H7.4v-.04h3.2v.04Z" fill="#fff"/></svg>