<!-- by TradingView --><svg width="18" height="18" viewBox="0 0 18 18" xmlns="http://www.w3.org/2000/svg"><path fill="#F0F3FA" d="M0 0h18v18H0z"/><path d="M6 14V6.26c0-.81.73-1.55 1.51-1.55h3.02c.79 0 1.47.74 1.47 1.55v5.63a1.5 1.5 0 0 1-1.47 1.48H8.67V12h1.68c.57 0 .98-.54.98-1.12V6.24c0-.47-.32-.81-.77-.81H7.53c-.45 0-.86.34-.86.8V14h5.1A2.28 2.28 0 0 0 14 11.67V6.33C14 5.04 13 4 11.77 4H6.23A2.28 2.28 0 0 0 4 6.33v5.5c0 1.2.85 2.17 2 2.17Zm2.67-2.68V6.26c0-.16.15-.3.33-.3.18 0 .33.14.33.3v4.65c0 .23-.2.41-.45.41h-.21Z" fill="#9F7D4F"/></svg>