<!-- by TradingView --><svg width="18" height="18" viewBox="0 0 18 18" xmlns="http://www.w3.org/2000/svg"><path fill="#F0F3FA" d="M0 0h18v18H0z"/><path d="M10.12 7.93c.71-.35.84-1.07.82-1.82 0-.46-.14-.86-.47-1.18a1.7 1.7 0 0 0-1.07-.5 7.82 7.82 0 0 0-.99-.05v-.36h.01L8.43 4h.38a4.82 4.82 0 0 1 3.36 1.1 5.03 5.03 0 0 1-2.44 8.85c-.57.07-1.15.05-1.73-.08v-5.1c0-.44.13-.53.56-.6l.98-.12c.26-.02.45-.07.58-.13ZM7.15 4.67h.37v3.25l-.37.06-.01-.01V4.68h.01ZM7.8 7.9l.3-.1.02-.01V4.8l-.01-.02-.31-.1h-.02l-.02.02V7.87l.01.02h.03Zm-.86.12-.37.05h-.02V4.81l.01-.01.37-.11h.02V8l-.01.01Zm2.04-2.27a1.01 1.01 0 0 0-.62-.88h-.01l-.01.01V7.68l.01.02a.04.04 0 0 0 .04 0c.36-.26.56-.6.6-1 .02-.29.02-.6 0-.96ZM6.24 8.16l-.27.25c-.02.03-.03.02-.03-.01V5.1l.01-.02.4-.23v3.22c0 .02 0 .04-.02.04a.27.27 0 0 0-.09.04Zm-.5-2.95-.4.38h-.01V12.4l.4.44h.03V5.2a.02.02 0 0 0-.03 0Zm-.6 7-.4-.58V6.37l.4-.58v-.01h.03V12.23h-.03Zm-.55-.88V8.99a3092.3 3092.3 0 0 1-.02-2.33l-.16.32a5 5 0 0 0 .18 4.35Z" fill="#EE1C23"/></svg>