<!-- by TradingView --><svg width="18" height="18" viewBox="0 0 18 18" xmlns="http://www.w3.org/2000/svg"><path fill="#F0F3FA" d="M0 0h18v18H0z"/><path d="m6.08 5-2.03 5.84c-.19.55.15 1.16.65 1.16h1.04l1.8-5.25H9.9c.29 0 .48.34.37.66l-.72 2.35c-.05.15-.17.24-.3.24H7.5l-.48 1.4h2.76c.5 0 .96-.38 1.15-.94l.95-2.8C12.3 6.39 11.54 5 10.39 5H6.08Z" fill="#87888C"/><path d="M12.81 7.99c.26-.76-.06-1.64-.25-1.99.5.34.93.86 1.24 1.44.29.53.23 1.16.02 1.73L12.35 13h-5.7C5.5 13 4.7 11.81 5.1 10.7L5.9 8.5c.2-.55.7-.78 1.27-.78h2.6L9.22 9H7.26a.14.14 0 0 0-.14.1l-.63 1.84c-.14.38.14.79.53.79h4.36l1.43-3.74Z" fill="#274382"/></svg>