<!-- by TradingView --><svg width="18" height="18" viewBox="0 0 18 18" xmlns="http://www.w3.org/2000/svg"><path fill="#F0F3FA" d="M0 0h18v18H0z"/><path d="M9.42 5c-.87 0-1.67.55-2.1 1.44L4.98 11.4c-.55.9-1.06 1.09-1.55 1.27l-.27.1-.03.02c-.16.06-.16.21 0 .21h3.26a2.1 2.1 0 0 0 1.85-1.28L9 10h3.67C13.96 10 15 9 15 7.5S13.96 5 12.67 5H9.42Z" fill="#F28D01"/><path d="M11.5 5.63h1.83L13.69 7h-1.82l-.36-1.38Z" fill="url(#a)"/><path d="M9.38 6.56 11 7.63l-.56 1.12-1.62-1.07.56-1.12Z" fill="url(#b)"/><path d="m10 7 .53-2h1.34l-.53 2H10Z" fill="url(#c)"/><path d="M10 9.07 11.49 8l1 .81-1.48 1.06-1.01-.8Z" fill="url(#d)"/><path d="m13.3 7 .7 1.73-1.16.77-.7-1.73L13.28 7Z" fill="url(#e)"/><defs><linearGradient id="a" x1="13.69" y1="6.25" x2="11.51" y2="6.25" gradientUnits="userSpaceOnUse"><stop stop-color="#F28D01"/><stop offset="1" stop-color="#FEFFFF"/></linearGradient><linearGradient id="b" x1="10.65" y1="8.17" x2="9.16" y2="6.91" gradientUnits="userSpaceOnUse"><stop stop-color="#FEFFFF"/><stop offset="1" stop-color="#F28D01"/></linearGradient><linearGradient id="c" x1="11.02" y1="5.11" x2="10.64" y2="6.87" gradientUnits="userSpaceOnUse"><stop stop-color="#F28D01"/><stop offset="1" stop-color="#FEFFFF"/></linearGradient><linearGradient id="d" x1="11.81" y1="8.31" x2="10.51" y2="9.5" gradientUnits="userSpaceOnUse"><stop stop-color="#FEFFFF"/><stop offset="1" stop-color="#F28D01"/></linearGradient><linearGradient id="e" x1="13.49" y1="9.29" x2="12.67" y2="7.46" gradientUnits="userSpaceOnUse"><stop stop-color="#F28D01"/><stop offset="1" stop-color="#FEFFFF"/></linearGradient></defs></svg>