<!-- by TradingView --><svg width="18" height="18" viewBox="0 0 18 18" xmlns="http://www.w3.org/2000/svg"><path fill="#F0F3FA" d="M0 0h18v18H0z"/><path d="M6.01 11.8a.06.06 0 0 0 .01.05.05.05 0 0 0 .04.01h.04l.02-.01c.11-.54.2-.89.28-1.05.39-.83 1-1.17 1.82-1.02.38.07.72.28 1.02.64a3.7 3.7 0 0 1 .55 1.56l-.02.01-.02.01-3.44-.01H4.05c-.06 0-.07-.02-.02-.06A316.36 316.36 0 0 1 11.97 4l.02.02.01.03v7.9c0 .02 0 .05-.03.05h-.04l-.02-.05a3.54 3.54 0 0 0-2.08-3.4c-1.2-.57-2.65.01-3.29 1.27-.3.6-.47 1.25-.53 1.98Z" fill="#980E1F"/></svg>