<!-- by TradingView --><svg width="18" height="18" viewBox="0 0 18 18" xmlns="http://www.w3.org/2000/svg"><path fill="#F9CF00" d="M0 0h18v18H0z"/><path d="M9.31 4.81V4c.1.07.32.2.53.2.11 0 .17-.02.23-.03.08-.02.16-.04.35-.04.35 0 .64.18.77.26-.28 0-.55.13-.81.26-.25.12-.5.24-.76.24a.55.55 0 0 1-.3-.08ZM9 6l-.63.29v.73l-.42.05-.2.03v-.6l-.63-.3-.62.3v.82c-.32.08-.67.17-.94.26v-.62L5.1 6.6l-.6.3c-.08 1.34-.23 2.68-.38 4.03L4 12h3V9.51c0-1.06.8-1.93 2-1.93s2 .87 2 1.93c0 1.07-.8 1.94-2 1.94-.1 0-.21 0-.31-.02V9.85c.09.05.2.08.31.08a.6.6 0 0 0 .63-.6.6.6 0 0 0-.63-.59.6.6 0 0 0-.62.6V12H14l-.5-5.1-.59-.3-.47.35v.63c-.18-.06-.41-.11-.64-.17l-.3-.07v-.92l-.63-.22-.62.22v.7l-.24-.05-.38-.05V6.3L9 6Z" fill="#007D3B"/><path d="M9 4h.2v2.5H9V4Z" fill="#007D3B"/></svg>