<!-- by TradingView --><svg width="18" height="18" viewBox="0 0 18 18" xmlns="http://www.w3.org/2000/svg"><path fill="#F0F3FA" d="M0 0h18v18H0z"/><path fill-rule="evenodd" d="M4 9V7h1.06c.39 0 .68.27.68.65v.04c0 .38-.3.64-.68.64h-.71V9H4Zm.35-1.67H5c.2 0 .38.14.38.31v.05c0 .17-.17.31-.38.31h-.66v-.67ZM6.07 9h-.42l.9-2h.43l.9 2h-.4l-.16-.33h-1.1L6.06 9Zm.7-1.59.4.92h-.8l.4-.92ZM8.17 7v2h.35v-.67h.38l.63.67h.49l-.65-.68a.68.68 0 0 0 .55-.66.68.68 0 0 0-.7-.66H8.17Zm.35.33h.69c.2 0 .36.15.36.34 0 .18-.16.33-.36.33h-.69v-.67ZM10.26 7h.35v.87l.83-.87h.47l-.9.96L12 9h-.5l-.9-.9V9h-.34V7Z" fill="#008CD3"/><path d="M12.7 7.35V7h1.75v.35h-.7V9h-.35V7.35h-.7ZM12.35 7H12V9h.35V7.01Z" fill="#3A3A3C"/><path opacity=".3" fill="#3A3A3C" d="M5 10h8v1H5z"/><path fill-rule="evenodd" d="M2.45 6C2.2 6 2 6.18 2 6.4v5.2c0 .22.2.4.45.4h13.1c.25 0 .45-.18.45-.4V6.4c0-.22-.2-.4-.45-.4H2.45Zm-.02.12c-.15 0-.28.12-.28.26v5.24c0 .14.13.26.28.26h13.14c.15 0 .28-.12.28-.26V6.38c0-.14-.13-.26-.28-.26H2.43Zm.62.63c0 .08-.08.15-.17.15-.1 0-.18-.07-.18-.15 0-.08.08-.15.17-.15.1 0 .18.07.18.15Zm12.07.15c.1 0 .18-.07.18-.15 0-.08-.08-.15-.18-.15-.1 0-.17.07-.17.15 0 .08.08.15.18.15ZM3.05 11.25c0 .08-.08.15-.17.15-.1 0-.18-.07-.18-.15 0-.08.08-.15.17-.15.1 0 .18.07.18.15Zm12.07.15c.1 0 .18-.07.18-.15 0-.08-.08-.15-.18-.15-.1 0-.17.07-.17.15 0 .08.08.15.18.15Z" fill="#3A3A3C"/></svg>