<!-- by TradingView --><svg width="18" height="18" viewBox="0 0 18 18" xmlns="http://www.w3.org/2000/svg"><path fill="#F0F3FA" d="M0 0h18v18H0z"/><path d="M10.22 5.11c.01.04-.02 0 .03.04l.06.03.17.06c-.02-.05.03-.1-.23-.13V5c.14 0 .3.06.37.17.07.11.12.28.23.32.11-.03.08-.1.2-.16.09 0 .6.4.72.5.06.05.03.01.07.08-.16 0-.01 0-.08.05.3-.03.6-.03.91-.06.16 0 .25-.02.4-.06.22-.05.68-.22.4.42a3.7 3.7 0 0 0-.18.4c-.14.34-.36.55-.44.71.05-.01.02-.07.12.2A4.2 4.2 0 1 1 4.8 9.03c0-.44.07-.89.21-1.34.09-.27.04-.24.1-.2-.15-.35-.38-.65-.36-1.25 0-.35.22-.3.48-.22.22.07.32.16.57.2l.08.02c.02-.14.4-.44.51-.53.21-.16.84-.61 1.1-.6-.04-.26.06-.36.14-.52-.4.14-.27.05-.3.25l-.32.1c-.04-.2.02-.91.04-1.14l.34-.11.32.37c.25.3.2.3.4.3l-.06-.8.1-.03c.2-.05.5-.1.67 0 .36.22 0 .58 0 .58.03.1.18.26.25.33V4.4l.14-.99.35.05-.03.32c.19-.06.25-.2.38-.3l.3.19c-.08.13-.36.26-.45.4.05.09.12.14.21.23.2.19.1.16.14.26.46-.14.09-.5.25-.7.03-.04.2-.2.3-.2.06 0 .25.12.3.16-.04.1-.22.1-.26.25-.02.13.08.28.03.43a.55.55 0 0 1-.25.24c-.14.04-.21-.08-.32-.13.08.3.06.1.06.5Zm1.05-1.52c-.21-.01-1.01-.49-2.52-.43a5.86 5.86 0 0 0 .18 11.68 5.9 5.9 0 0 0 5.92-5.86 5.85 5.85 0 0 0-2.67-4.88c-.11-.07-.38-.2-.44-.3-.06-.11-.24-.33-.35-.36l-.12.15Z" fill="#481416"/><path d="M6.86 10.37c-.18.34-.68 1.13-.61 1.63.05.02.16.1.17.15.13-.03.01.03.05-.05.03-.06.01-.17.02-.25.09-.81.93-.15.9.9l.22.08c.15.01.05.02.08-.05-.07-.57.34-.39.15.13l.19.03c.26 0 .3-.34.61-.35.12.1.11.25.08.46h.1l.22-.5s-.16-.27.04-.18c.26.22.85.4 1.16.08-.08-.02-.47.08-.87-.1a.84.84 0 0 1-.3-.22c-.06-.09-.17-.26-.1-.39.07.2.15.35.3.44.13.1.35.17.56.18.45.02.95-.21.97-.55 0-.03-.02-.74-.04-.77 0-.62-.16-1.26-.13-1.44.06-.25.14-.42.25-.6.14-.25-.04-.45.21-.67v-.05c-.07-.52-.02-.66-.37-.91-.27-.2-.46-.36-.6-.68-.17-.38-.16-.45-.86-.4-.53.05-.61.03-.84.45-.16.29-.28.55-.71.58-.4.02-.65-.28-.85-.44-.3-.25-.42-.33-.9-.39-.47-.06-.9-.3-.97-.24-.14.2.1.76.17.91.28.56.73.86 1.33.96.5.1.52.04.77.33.05.59-.1 1.34-.4 1.92Z" fill="#EEA61C"/><path d="M7.53 5.09c.1.38.4.2.23.94l-.17.8c-.02.08-.03.17-.1.22-.3.26-.5-.62-1.1-.72a3.01 3.01 0 0 0-.59-.05c-.25-.05-.8-.35-.93-.25-.12.2-.02.66.04.87.11.36.29.54.33.66.1.07.12.22.63.5l.52.2c.14.03.42.06.55.12.07.04.05.05.13.12.18.16.17.5.12.72-.07.36-.29.62-.48.9-.18.28-.35.6-.49.9-.1.24-.22.67-.24.7l.14.12.13.16c-.07-.5.43-1.29.61-1.63.38-.73.51-.78.43-1.81h.12c.09.03.03-.02.06.05 0 .03.08.14.08-.02l-.03-.04c.17-.03.36-.02.45.1-.06.18-.27.15-.37.26l-.07-.04-.02-.01c0 .14-.08.17-.02.3.13-.06-.05-.08.34-.22.16-.06.27-.1.26-.32-.04-.45-.58-.18-.83-.17-.25-.29-.28-.24-.77-.33a1.7 1.7 0 0 1-1.33-.96c-.08-.15-.3-.7-.17-.91.08-.06.5.18.97.24.48.06.6.14.9.39.2.16.46.46.85.44.43-.03.55-.3.7-.58.24-.42.32-.4.85-.44.7-.06.69.01.86.39.14.32.33.48.6.68.35.25.3.39.38.9.03 0 .04.03.04-.14a2 2 0 0 0 .96-.26c.7-.35 1.1-1.07 1.36-1.78.16-.43-.36-.16-.78-.14-.27.02-.64.06-.9.04-.07.03-.2.04-.36.12-.62.31-.68.65-.8.73 0-.09-.03-.12-.04-.22-.05-.27-.15-.34-.32-.55-.27-.33-.11-.53-.1-.96 0-.37-.05-.68-.43-.69-.15 0-.28.1-.34.2-.08.18.02.3.03.47.04.16.06.41-.02.58-.28.6-.95.2-.95-.2v-.38c-.02-.2 0-.32-.1-.47-.27-.43-.8-.12-.82.47Z" fill="#481516"/><path d="M8.72 13.05c.05.07.3 0 .31 0-.01-.1.1-.32.14-.4.09.02.19.08.29.1.63.18.89-.27.96-.33.07-.05.05-.03.13-.07a.6.6 0 0 0 .34-.44c.08-.26-.13-.48-.06-.63.14-.29-.06-.23-.03-.47.09-.63-.3-.84.08-1.69.03-.07.04-.06.07-.15.12.03.07.06.2.07-.02-.14-.05-.09-.08-.2-.1.04-.13 0-.23-.06-.08-.06-.14-.08-.14-.2.1-.12.28-.13.4-.05.06-.05.16-.04.26-.06.18-.03.19-.05.2-.12l-.47-.02c-.2.04-.45.02-.5.23-.05.19.2.3.3.38.04.08.05.03 0 .05-.12.19-.2.36-.26.6-.07.35-.04.41 0 .74-.08-.03-.06-.05-.14-.09l-.15-.05c-.35-.1-.47-1.12-.38-1.54.06-.24.17-.35.29-.5.53-.67-.04-.77-.2-.97-.3-.34.2-.89-.8-.77-.22.02-.41.12-.44.34-.06.38.1.36-.2.6-.5.37.06.77.25.96.22.24.45.7.5 1.06.16.92-.25.75-.28 1.24.13-.07.27-.32.52-.23.35.12-.22.78.44.62.1-.21-.04-.47.17-.59.2-.12.42.06.46.22.03.14-.02.21.04.36s.07.13-.02.27c-.1.2.12.31.1.55-.01.34-.5.57-.96.55-.2-.01-.43-.09-.57-.18a.8.8 0 0 1-.3-.44c-.06.13.05.3.11.39.07.08.18.16.3.22.4.18.8.08.87.1-.3.31-.9.14-1.16-.08-.51-.44-.17-.87-.16-1.18.02-.24-.24-.27-.42-.37-.5-.27-.05-.55-.4-1.18l-.15-.25c-.04-.08-.07-.21-.12-.27-.01.38.3.53.33.91.04.53-.11.64.3.91.12.09.33.1.34.28.02.28-.47.65.24 1.33l-.22.5h-.1Z" fill="#481516"/><path d="m11.27 3.59.12-.15c.1.03.29.25.35.36.06.1.33.23.44.3a5.85 5.85 0 0 1 1.43 8.5 6.2 6.2 0 0 1-4.68 2.24 5.78 5.78 0 0 1-5.16-3.24c-1.92-4 .98-8.3 4.97-8.44 1.52-.06 2.32.42 2.53.43ZM8.94 15a5.95 5.95 0 0 0 5.8-4.21c.2-.71.34-1.76.23-2.53l-.05-.23c-.02-.29-.05-.29-.1-.47a5.88 5.88 0 0 0-.81-1.88 6.24 6.24 0 0 0-1.64-1.65c-.15-.1-.43-.25-.5-.34-.09-.14-.3-.4-.48-.4-.1 0-.15.03-.17.12-.1-.01-.32-.11-.43-.15A6.1 6.1 0 0 0 8 3.08c-.47.07-.6.13-1.02.26-.1.03-.08.04-.14.06-.25.11-.38.14-.64.28l-.35.21c-.48.29-.84.62-1.23 1-.19.2-.33.4-.49.6l-.15.22-.06.11c-.14.23-.22.35-.34.6a6.38 6.38 0 0 0-.52 1.71l-.03.34c-.07.53 0 1.4.13 1.93.06.2.1.38.18.57l.1.27.1.26c.1.18.16.33.26.49.1.16.17.3.28.45a6.3 6.3 0 0 0 1.94 1.77c.16.1.32.17.5.25.72.35 1.61.54 2.42.54Z" fill="#050404"/><path d="M12.77 7.37c-.02.1-.02.12.03.21l.08.24c.06.17.1.34.12.53l.07.55c.02.23-.09.88-.14 1.11l-.08.25a4.15 4.15 0 0 1-2.73 2.64c-.36.09-.62.15-1.09.15-.02 0-.27.07-.31 0-.08 0-.64-.06-.7-.1l-.18-.04c-.07-.03-.08-.02-.13-.03-.02 0-.07 0-.08-.04l-.02-.01-.23-.09c-.15-.12-.44-.23-.72-.43l-.11-.08-.13-.08c-.01-.05-.12-.13-.18-.15l-.12-.16-.14-.13c-.12-.2-.25-.28-.55-.79a4.46 4.46 0 0 1-.37-.98L5 9.66c-.01-.12-.04-.16-.05-.3a4.49 4.49 0 0 1 .25-1.78l-.06-.06-.04-.03c-.06-.05-.01-.08-.1.19a4.2 4.2 0 1 0 7.96-.11c-.1-.28-.07-.22-.12-.2h-.08Z" fill="#050404"/><path d="M10.84 6.97c.2-.1.2-.18.65-.34.25-.09.6-.17.88-.17-.05.05.03 0-.07.05a15.9 15.9 0 0 1-.27.1c-.25.12-.7.43-.79.63.23.02.7-.16.88-.23-.05.23-.66.4-.85.5l-.03.03c.07.06.23.05.35.04.12 0 .21-.05.31-.06-.22.2-.37.27-.77.33v.2c.7 0 1.78-1.08 2.1-1.71.25-.49-.08-.3-.38-.24-.63.13-1.03-.09-1.57.33-.12.1-.4.35-.44.54Z" fill="#EEA61C"/><path d="M8 10.63c.01-.26.03-.42-.18-.5-.49-.2-1.17.56-1.03 1.06.03.12.27.26.35.37.12.14.25.25.5.14.48-.22.3-.52.35-1.07Z" fill="#481416"/><path d="m7.6 12.83.03.01c.01.03.06.03.08.04.05.01.06 0 .13.03.14-.1.28.03.44-.25a2 2 0 0 0 .2-1.16c-.03-.15-.17-.37-.36-.3-.12.09-.1.22-.17.39-.06.16-.12.21-.2.33-.18.26-.22.73-.06.86-.03.07.07.06-.08.05Zm-.98-5.24-.74-.33c-.1-.06-.13-.1-.22-.14.1.14.13.19.27.32l.26.18.05.03.04.04c-.16 0-.25-.06-.38-.08.14.34.8.15 1.01.28.15.1.15.25.3.24.07-.1.07-.25.07-.37 0-.2-.05-.2-.16-.3-.45-.46-1.07-.87-1.81-.82.06.07.5.25.72.4.2.13.53.38.6.55Z" fill="#481416"/><path d="m6.94 14.18.1-.15c.03-.07.02-.1.1-.13 0 .11-.01.27.02.34.06.07.18.1.25.02.12-.14.08-.17.21-.21l-.03.33c.07.06.24.12.34.12.02-.21 0-.47 0-.69v-.35c0-.12-.06-.12-.2-.14-.13.15-.23.35-.31.37l-.01-.47-.22-.07c-.07.08-.1.16-.15.24-.1.16-.38.56-.41.7.09.04.2.08.31.09Z" fill="#FCFCFB"/><path d="m6.42 12.15.13.08.11.08c.28.2.57.31.72.43.04-1.04-.8-1.7-.89-.89 0 .08 0 .2-.02.25-.04.08.08.02-.05.05Z" fill="#481416"/><path d="M9 13.8c0-.16 0-.16-.05-.3l-.72-.03c-.03.25-.1.84-.07 1.06l.73.04c.05-.1.08-.13.08-.24-.24-.02-.47.03-.48-.12.08-.1.31-.02.44-.04a.56.56 0 0 0-.05-.26l-.37-.04v-.09c.28-.06.47.12.5.02Z" fill="#FAF9F9"/><path d="m3.93 9.93-.37.05c.04.13.17.17.25.3l-.05.37c.08-.02.31-.16.36-.16.06 0 .23.13.35.16l-.06-.37c.06-.1.22-.2.25-.3l-.36-.05-.17-.35-.2.35Zm9.76 0-.38.05c.04.07.16.18.25.27.02.14-.03.27-.04.4.1-.03.29-.16.34-.16.07 0 .26.13.37.16l-.07-.37c.09-.12.2-.16.27-.3-.1-.02-.34-.02-.39-.08-.07-.08-.09-.26-.18-.31l-.17.34Z" fill="#EEA61C"/><path d="M11.37 12.82c0 .16.18 1 .24 1.12.08-.02.2-.11.27-.15l-.01-.17.28-.2c.1.08.16.14.41-.1-.05-.1-.75-.6-.9-.68-.08.03-.22.13-.29.18Zm-2.33.74.03.32.06.7.33-.03v-.33c.16.05.2.2.32.3l.29-.03c0-.12-.2-.25-.25-.38.05-.1.15-.16.15-.27.04-.57-.66-.3-.93-.28Zm-3.58-.24c.22.22.27.15.37.1.08.02.12.06.19.1.12.09.09.08.08.24.12.07.18.16.3.17.06-.15.26-.96.26-1.1-.08-.05-.19-.14-.29-.18l-.47.32-.24.16c-.08.05-.17.1-.2.19Z" fill="#FCFCFB"/><path d="M8.56 8.78c-.13.02-.28-.1-.3.04-.02.18.3.4.39.47.13.12.06.16.15.26.28-.05.21-.92-.04-1.1-.25-.17-.17.25-.2.33ZM7.78 7.5c-.46.16.2.88.55.86.29-.02-.06-.43-.1-.5-.1-.12-.26-.42-.45-.36Z" fill="#481416"/><path d="M11.34 13.82c-1.17-.02.2-.47-.5-.72-.17.1-.4.38-.3.7.06.22.43.36.73.3.06-.06.07-.18.07-.28ZM5.97 4.31l.5.95.3-.14c-.03-.11-.1-.18-.14-.3.1-.13.24-.12.26-.34a.34.34 0 0 0-.15-.3c-.3-.2-.54.06-.77.13ZM10 13.4c-.02.07.2.9.24 1.02a.8.8 0 0 0 .35-.09l-.25-1.02c-.1 0-.27.05-.35.1Z" fill="#FCFCFB"/><path d="m8.55 4.96-.01-.15c.1 0 .53-.03.65-.01l.07.02v.12c.1-.07.02.03.04-.22.01-.09.04-.11.06-.18-.17-.1-.53 0-.6-.03-.05-.06-.23-.29-.3-.3-.02.1 0 .13 0 .21 0 .13-.05.12-.06.17.14.19.05.28.15.37Z" fill="#471416"/><path d="M8.74 9.73c-.05-.22-.3-.52-.47-.57-.01.26.17.37.21.59.04.22-.07.5 0 .7.3.02.33-.44.26-.72Z" fill="#481416"/><path d="m10.47 5.24.1.15c.07.15.16.28.34.24.1-.02.1-.07.18-.12.07.1.3.22.48.36.08.06.08.1.19.08.07-.05-.09-.04.08-.05-.04-.07-.01-.03-.07-.08-.13-.1-.63-.5-.73-.5-.12.06-.08.13-.2.16-.1-.05-.15-.2-.22-.32-.07-.1-.23-.16-.37-.17v.12c.26.03.2.08.22.13Zm-4.59.99c.07.03.07.02.17.02.03-.13.37-.37.48-.46.25-.19.5-.35.78-.48l.22-.1-.04-.11c-.26-.01-.89.44-1.1.6-.12.09-.5.4-.51.53Z" fill="#050404"/><path d="M9.17 9.18c-.1.05-.1.15-.14.27-.04.16-.27.85 0 .9.18.05.27-.62.24-.89-.03-.24-.03-.23-.1-.28Z" fill="#481416"/><path d="M11.14 4.67c.1-.14.47-.74.52-.9-.05-.06-.2-.22-.27-.23l-.4.86c0 .1.1.23.15.27Z" fill="#FCFCFB"/><path d="M7.58 9.22c-.22.16-.21.86.14.78.3-.07.12-.6-.14-.78Zm2.82-.97c.21.13.41-.08.48-.24.1-.25-.07-.5-.29-.5-.07.17-.02.24-.05.42-.03.2-.16.13-.14.32Z" fill="#481416"/><path d="M10.46 9.3c.04-.18-.08-.33 0-.6.02-.1.06-.18.01-.27-.15-.28-.43.23-.32.52.04.1.18.37.31.35Z" fill="#481315"/><path d="m11.76 5.95.03.04c.25.02.62-.02.89-.04.42-.02.94-.3.78.14-.26.7-.67 1.24-.67 1.25l-.01.03h.07c.08-.17.3-.38.44-.73l.17-.4c.29-.63-.17-.46-.39-.4-.15.03-.24.04-.4.05l-.9.06Z" fill="#F1EDED"/><path d="M10.06 9.22c-.02.2.05.37.1.53.08.22.1.36.23.37.21-.25-.1-.91-.33-.9Z" fill="#481416"/><path d="M9.38 11.26c-.02-.14-.07-.18-.05-.33.08.05.05.08.13.15.3-.08.08-.66-.2-.43-.19.15-.2.56.12.6Z" fill="#020202"/><path d="M8.03 12.94c.05.05.61.1.69.11.03-.21.04-.35-.08-.46-.3 0-.35.36-.61.35Z" fill="#461215"/><path d="M5.11 7.49c.02 0 .02 0 .04.03l.06.06.03-.02c-.04-.12-.22-.3-.33-.66-.06-.21-.17-.67-.05-.87.14-.1.7.2.94.25V6.2c-.25-.04-.36-.13-.57-.2-.26-.08-.47-.13-.48.22-.02.6.21.9.36 1.26Z" fill="#F1EDED"/><path d="M10.9 5.33c.07-.04.2-.21.24-.32a1.27 1.27 0 0 0-.17-.29.9.9 0 0 0-.29.4c.03.12.1.19.22.21Z" fill="#FCFCFB"/><path d="M10.35 11.17c.28.14.28-.43.12-.54-.25-.18-.42.28-.14.38.07-.07 0-.06.1-.11.1.18-.05.11-.08.27Z" fill="#020202"/><path d="M11.07 8.84c.07-.1.02-.26.02-.3a.28.28 0 0 0-.39.03c0 .13.06.15.14.2.1.07.13.11.23.07Z" fill="#0A0807"/><path d="M7.47 8.63v-.02c-.01.12-.02.17.04.25l.02.01.07.04c.1-.11.3-.08.37-.26-.1-.12-.28-.13-.45-.1.03.1-.01.06-.04.09Zm1.08-3.67c.23 0 .44-.05.71-.02v-.12L9.2 4.8c-.12-.02-.54.01-.65 0v.16Z" fill="#020202"/><path d="M8.87 10.41c-.2.06-.18.41 0 .46.1-.1.12-.37 0-.46Z" fill="#481416"/><path d="M9.43 13.96c.13 0 .18-.05.2-.18-.09-.07-.07-.09-.22-.07l.02.25ZM8.45 3.95c.23 0 .26-.3-.05-.24l.05.24Zm-2.08.45c.03.12.05.14.13.18.07-.04.06-.03.09-.11l-.02-.03-.05-.07-.15.02Z" fill="#461112"/><path d="M11.78 13.34c.1 0 .14-.02.17-.1a.3.3 0 0 0-.18-.1l.01.2Z" fill="#481516"/><path d="M7.5 4.37c0-.1-.05-.15-.15-.18v.22l.15-.04Z" fill="#440E11"/><path d="M9.42 4.46c.06-.01.12-.06.18-.09-.04-.07-.07-.1-.14-.12l-.04.21Z" fill="#481516"/></svg>