<!-- by TradingView --><svg width="18" height="18" viewBox="0 0 18 18" xmlns="http://www.w3.org/2000/svg"><path fill="#F0F3FA" d="M0 0h18v18H0z"/><path fill-rule="evenodd" d="M4 4.55c0-.3.25-.55.55-.55h8.9c.3 0 .55.25.55.55v8.9c0 .3-.25.55-.55.55h-8.9a.55.55 0 0 1-.55-.55v-8.9Zm7 4.95c0 .83-.9 1.5-2 1.5s-2-.67-2-1.5S7.9 8 9 8s2 .67 2 1.5Zm1.9-3.07L9.2 5 5 6.47V13h2v-.52c.6.3 1.31.52 2.07.52C11.25 13 13 11.38 13 9.6c0-1.8-1.75-3.25-3.93-3.25a4.4 4.4 0 0 0-2.87.98l.27.2A3.98 3.98 0 0 1 9 6.67c1.99 0 3.6 1.34 3.6 3 0 1.65-1.61 3-3.6 3-.86 0-1.64-.25-2.26-.67H6.6v.67H5.4V6.66l3.79-1.3 3.5 1.35.21-.28Z" fill="#434343"/><path d="M4 8.41c0-.22.15-.41.33-.41.19 0 .34.19.34.41V9.6c0 .22-.15.41-.34.41-.18 0-.33-.19-.33-.41V8.4Z" fill="#E73436"/></svg>