<!-- by TradingView --><svg width="18" height="18" viewBox="0 0 18 18" fill="none" xmlns="http://www.w3.org/2000/svg">
<rect width="18" height="18" fill="#F0F3FA"/>
<path fill-rule="evenodd" clip-rule="evenodd" d="M8 4H8.78261H10H12C13.1046 4 14 4.89543 14 6C14 7.10457 13.1046 8 12 8H10V11H8L8 8.27273C7.29204 8.27273 6 8.84348 6 11C6 13.6957 8.17204 13.7273 8.88 13.7273C9.44637 13.7273 9.84661 13.5266 10 13.4203V11H12V11.2727C11.04 11.2727 11 11.4488 11 11.5455V13.4203C10.9054 13.46 10.8107 13.5079 10.7098 13.5588L10.7098 13.5589C10.3194 13.756 9.83647 14 8.91398 14C7.46265 14 4 13.6812 4 10.9855C4 8.82899 6.65487 8.09662 8 8L8 4ZM10 7.71436H10.2857C11.2325 7.71436 12 6.94684 12 6.00007C12 5.0533 11.2325 4.28578 10.2857 4.28578H10V7.71436Z" fill="#86774E"/>
</svg>
