<!-- by TradingView --><svg width="18" height="18" viewBox="0 0 18 18" xmlns="http://www.w3.org/2000/svg"><path fill="#F0F3FA" d="M0 0h18v18H0z"/><path d="M8.9 14.94a7.4 7.4 0 0 1-3.24-2.96v-.01h-.01a4.53 4.53 0 0 1-.15-.27v-.01c-.1-.17-.21-.42-.3-.7h.38c.02.08.13.38.3.72l.01.02a7.08 7.08 0 0 0 3.13 2.89h.03a7.05 7.05 0 0 0 3.08-2.82c.2-.38.33-.72.36-.8h.37c-.08.27-.2.52-.29.69l-.02.04h.01c-.4.7-.9 1.34-1.45 1.89a6.35 6.35 0 0 1-1.94 1.32l-.13.06-.13-.06ZM12.93 5.63l.06.26c.12.45.18 1.25.2 1.7l-.33-.02c-.02-.41-.08-1.17-.18-1.59l-.02-.06a11.97 11.97 0 0 0-7.24 0l-.02.06c-.1.42-.16 1.17-.18 1.59l-.34.01c.03-.44.09-1.24.2-1.69l.07-.26a12.53 12.53 0 0 1 7.78 0ZM2.38 8.8c.26.33.64.55.99.68.6.22 1.02.12 1.63-.08v-.61c-.4.06-.77.14-1.07.14-.37 0-.92-.03-1.29-.1-.1-.01-.17-.03-.26-.03ZM7 8.47a.88.88 0 0 0-.16-.26.93.93 0 0 0-.6-.23c-.43-.02-.88.07-1.4.02-.3-.02-.63-.06-.96-.13C2.91 7.64 2.78 7.5 2 7c-.02.31.34.84.66 1.09.72.53 1.28.59 2.1.57L5 8.65v-.18h2ZM5 9.59l-.3.1c-.27.1-.32.18-.58.22l-.4.06c-.16.02-.32.02-.45.05.61.6 1.1.47 1.73.13V9.6ZM4.15 10.84c.4.15.85.16.85.07v-.58l-.85.51ZM15.62 8.8c-.26.33-.64.55-.99.68-.6.21-1.02.12-1.63-.07v-.62c.4.06.77.14 1.07.14.37 0 .92-.03 1.29-.1.1-.01.17-.03.26-.03ZM11 8.47a.87.87 0 0 1 .16-.26.93.93 0 0 1 .6-.23c.43-.02 1.11.07 1.64.02.3-.02.4-.06.72-.13.97-.23 1.1-.37 1.88-.87.02.31-.34.84-.66 1.09-.72.53-1.3.59-2.12.57H13v-.19h-2ZM13 9.6l.28.1c.26.09.34.17.6.2l.4.07c.16.02.32.02.45.05-.6.6-1.1.47-1.73.14V9.6ZM13.85 10.84c-.4.15-.35.16-.85.08v-.57c.57.33.69.38.85.5Z" fill="#162F54"/><path d="M9.75 8a.76.76 0 0 1-.08-.54c.07-.07.3-.02.47-.06.02.03.01.05 0 .12.11-.03.18-.14.2-.3.02-.25-.15-.34-.3-.44-.15-.1-.03-.22-.44-.3-.28-.05-.85-.06-1 .12-.1.05-.27.5-.3.82-.04.3-.03.37-.1.58h1.55Zm-.41-1.22c.1-.02.18-.02.26.05-.08.07-.21.09-.26-.05Z" fill="#162F54"/><path d="M6.01 10 6 9.97v-.53H6.41c.06 0 .1-.04.1-.09 0-.05-.04-.1-.1-.1H6V9L6.01 9h.41c.27 0 .39.16.39.35 0 .19-.12.33-.39.33h-.1l-.02.01v.28L6.3 10H6Zm.8-.03L7.15 9 7.17 9h.3l.02.01.33.96-.01.03h-.3l-.01-.03-.04-.13h-.29l-.03.13-.02.03h-.3v-.03Zm.58-.37-.07-.26-.08.26h.15Zm.96.4.01-.03v-.68H8.6l.02-.02V9L8.6 9h-.78l-.02.01v.26l.02.01h.23V9.97l.02.03h.28Zm1.22 0 .01-.03-.16-.36a.3.3 0 0 0 .15-.27c0-.19-.13-.34-.38-.34h-.41l-.02.01v.25h.31c.15 0 .2.04.2.09 0 .05-.04.08-.1.08h-.4V10h.28l.02-.03v-.3h.05l.13.3s0 .03.02.03h.3Zm.13-.03.01.03H10l.01-.03V9L9.99 9H9.7l-.01.01v.96Zm.95.03c.18 0 .33-.08.38-.24a.75.75 0 0 0 .03-.26c0-.12 0-.18-.03-.26-.05-.16-.2-.24-.38-.24s-.33.08-.38.24a.75.75 0 0 0-.03.26c0 .12 0 .18.03.26.05.16.2.24.38.24Zm0-.26c-.05 0-.08-.03-.1-.07a.64.64 0 0 1 0-.17v-.18c.02-.03.05-.06.1-.06.04 0 .08.02.1.06v.35c-.02.04-.06.07-.1.07Zm1.08.26.01-.01v-.7H12l.01-.02V9L11.99 9h-.8v.28h.24l.01.01v.7l.01.01h.28Z" fill="#DF1E26"/><path d="M7 10h4v1H7v-1Z" fill="#6793D5"/></svg>