<!-- by TradingView --><svg width="18" height="18" viewBox="0 0 18 18" xmlns="http://www.w3.org/2000/svg"><path fill="#F0F3FA" d="M0 0h18v18H0z"/><path d="M9 4.25c.1-.04.16-.1.17-.2A.05.05 0 0 1 9.19 4a.05.05 0 0 1 .04 0c.2.04.4.12.58.24.03.02.03.03 0 .05a.14.14 0 0 0-.04.15c.04.14.13.2.27.2.03 0 .06.01.08.04l.81 1.06c.03.04.02.04-.02.03L9.2 5.05c-.03-.01-.04-.03-.04-.06 0-.1-.04-.18-.14-.23a.08.08 0 0 1-.04-.07v-.38c0-.03 0-.05.04-.06Z" fill="#097E95"/><path d="M8.7 4.07c0 .07.05.13.1.17.03.02.04.04.04.07l.01.38c0 .03-.01.05-.04.07-.11.04-.16.13-.16.24v.04l-.04.02-1.6.7c-.04.02-.05 0-.02-.03l.74-1.02a.12.12 0 0 1 .06-.05c.07-.02.14 0 .2-.06.08-.07.1-.15.06-.25a.05.05 0 0 1 .02-.06c.15-.12.32-.21.53-.27.05-.01.08 0 .1.05Z" fill="#309A42"/><path d="M12.04 5.37c-.08.03-.13.1-.12.18 0 .03-.02.05-.04.06l-.5.2a.07.07 0 0 1-.07-.01.27.27 0 0 0-.17-.07.08.08 0 0 1-.07-.03l-.82-1.1a.12.12 0 0 1 .04-.18.14.14 0 0 1 .07-.02c.67-.01 1.39.32 1.7.9.01.03 0 .05-.02.07Z" fill="#0C6E8E"/><path d="m6.51 5.8-.45-.2A.09.09 0 0 1 6 5.54a.2.2 0 0 0-.08-.14c-.03-.03-.03-.05-.01-.08.34-.57.98-.82 1.66-.82l.04.01.03.03a.07.07 0 0 1 0 .08l-.8 1.08a.11.11 0 0 1-.06.04l-.23.07a.06.06 0 0 1-.04 0Z" fill="#309A42"/><path d="M7.02 5.97 7 5.96v-.01L7 5.89l.04-.03a99.82 99.82 0 0 0 1.7-.7l.01.02a.02.02 0 0 1 0 .01l-.52.85a.09.09 0 0 1-.07.04.27.27 0 0 0-.18.07.08.08 0 0 1-.08.03l-.9-.21Z" fill="#56A041"/><path d="m9.91 6.18-.29-.14h-.01l-.54-.85a.03.03 0 0 1 0-.04h.03l1.82.75.02.01a.03.03 0 0 1 0 .03l-.02.01-.99.24h-.02ZM8.86 6.4v-.03h.03V5.3c-.02-.02-.02-.05 0-.07a.03.03 0 0 1 .03-.01h.01l.01.01.52.81a.19.19 0 0 1-.06.27.22.22 0 0 1-.1.03c-.1.01-.2.03-.28.06a.2.2 0 0 1-.1.01h-.06Z" fill="#06909E"/><path d="M8.86 6.37v.04l-.35-.08a.22.22 0 0 1-.09-.05.2.2 0 0 1-.06-.07.2.2 0 0 1 .01-.18l.42-.69c.05-.07.07-.06.07.02v1.01Z" fill="#70A541"/><path d="M12.02 5.74c.1.06.3.06.34-.07 0-.04.02-.05.06-.03.36.14.6.37.75.68.12.25.18.5.18.72 0 .03-.01.05-.03.08a.14.14 0 0 1-.05.05.16.16 0 0 1-.15-.01l-1.72-1.1a.07.07 0 0 1-.02-.04.07.07 0 0 1 0-.07l.03-.02.5-.2a.12.12 0 0 1 .11 0Z" fill="#0C6E8E"/><path d="M4.66 7.15c-.03 0-.04 0-.04-.03.02-.6.32-1.2.92-1.4a.1.1 0 0 1 .08.02c.1.07.2.06.3-.01l.04-.02H6l.47.21a.1.1 0 0 1 .04.03l.02.05-.01.04a.1.1 0 0 1-.04.04L4.86 7.17a.08.08 0 0 1-.07 0 .54.54 0 0 0-.13-.02Z" fill="#309A42"/><path d="m6.99 6.09.88.2c.03.01.05.03.06.07.02.1.1.17.22.18a.1.1 0 0 1 .08.06l.48 1.1A513.62 513.62 0 0 1 6.97 6.1c0-.02 0-.03.02-.02Z" fill="#70A541"/><path d="m9.97 6.3.95-.21a.03.03 0 0 1 .03 0v.02l-.01.04-1.8 1.6c-.07.06-.09.05-.05-.03l.54-1.14a.06.06 0 0 1 .05-.04c.13 0 .21-.07.24-.19 0 0 0-.02.02-.03a.08.08 0 0 1 .03-.02Z" fill="#06909E"/><path d="M8.6 7.92H7.06a.3.3 0 0 1-.2-.08.26.26 0 0 1-.08-.18V6.28c0-.12.05-.13.13-.05l1.72 1.62c.04.05.03.07-.03.07Z" fill="#70A541"/><path d="m6.48 6.28-1 1.53a.14.14 0 0 1-.2.02l-.35-.3a.18.18 0 0 1-.03-.22.19.19 0 0 1 .06-.07l1.48-1c.07-.05.08-.03.04.04Z" fill="#309A42"/><path d="M11.1 7.78a.22.22 0 0 0-.11.1l-.03.03a.07.07 0 0 1-.03.01H9.2c-.04 0-.04-.01-.02-.04l1.86-1.65c.04-.03.05-.02.05.02a17.56 17.56 0 0 0 .03 1.47c0 .02-.01.04-.04.06Z" fill="#06909E"/><path d="M12.5 7.82 11.4 6.25c-.03-.05-.02-.06.03-.03l1.59 1.02a.18.18 0 0 1 .08.13.17.17 0 0 1-.06.15l-.33.32a.15.15 0 0 1-.18.02.14.14 0 0 1-.05-.04Z" fill="#0C6E8E"/><path d="m5.6 7.85 1.03-1.59c.02-.03.03-.03.03.01L6.65 7.7c0 .01 0 .03-.02.05a.1.1 0 0 1-.04.03.18.18 0 0 0-.13.13c-.01.03-.03.05-.07.06l-.67.07-.07-.01a.12.12 0 0 1-.05-.04.11.11 0 0 1 0-.13Z" fill="#56A041"/><path d="M11.44 7.9c-.02-.08-.07-.12-.16-.14l-.02-.02v-.02l-.02-1.44c0-.05 0-.06.04-.01l1.07 1.6a.1.1 0 0 1 0 .1.11.11 0 0 1-.04.05.12.12 0 0 1-.07 0l-.73-.07c-.02 0-.03 0-.04-.02a.08.08 0 0 1-.03-.04Z" fill="#097E95"/><path d="m8.8 7.6-.48-1.08a.02.02 0 0 1 0-.03l.07-.07h.03l.42.1.02.02v1.04l-.01.02H8.8Z" fill="#70A541"/><path d="m8.92 6.54.51-.13h.02l.01.01.05.07v.02l-.56 1.22-.01.02a.03.03 0 0 1-.04 0v-1.2h.02Z" fill="#049CA3"/><path d="m13.4 7.6.04-.03c.03-.02.05-.01.07.01.27.27.34.72.28 1.08a.1.1 0 0 1-.02.05.1.1 0 0 1-.14.02l-.78-.58a.18.18 0 0 1-.06-.21.18.18 0 0 1 .05-.07l.3-.28a.07.07 0 0 1 .08-.01l.08.02a.1.1 0 0 0 .1 0Z" fill="#0C6E8E"/><path d="M4.27 8.7c-.05 0-.07-.03-.08-.08a1.3 1.3 0 0 1 .32-1.01.07.07 0 0 1 .07-.03.4.4 0 0 0 .17 0c.03 0 .06 0 .08.02l.31.29c.05.04.05.1.02.14a.06.06 0 0 0-.01.07c.03.06.01.11-.04.16l-.6.46a.1.1 0 0 1-.14 0 .23.23 0 0 0-.1-.03Z" fill="#309A42"/><path d="M6.95 8.04h1.71l.02.01v.01l.01.02v.01l-.76.64a.03.03 0 0 1-.02 0L7.7 8.7h-.01l-.75-.61v-.04h.02Z" fill="#A5AF41"/><path d="m10.18 8.7-.25.05a.03.03 0 0 1-.02-.01l-.77-.65v-.03l.02-.01h1.8v.04l-.77.6Z" fill="#049CA3"/><path d="m6.46 8.18-.93 1c-.04.05-.05.04-.05-.01v-.75c.01-.06.03-.12.08-.16.04-.05.1-.08.16-.09l.69-.09c.1-.01.12.02.05.1Z" fill="#56A041"/><path d="M12.45 9.22 11.4 8.11l-.01-.01v-.02h.03l.89.1h.01l.14.13h.01v.01l.03.89v.01l-.01.01a.03.03 0 0 1-.03 0Z" fill="#097E95"/><path d="M6.64 8.2c.07 0 .1 0 .17-.03h.06l.66.56.04.05v.07c0 .02-.02.04-.04.05a.13.13 0 0 1-.06.03l-1.86.4c-.03 0-.04 0-.02-.03l1-1.07a.1.1 0 0 1 .05-.03Z" fill="#70A541"/><path d="M11.07 8.16c.08.02.1.05.2.04.03 0 .05 0 .08.02l1.03 1.08v.02h-.02l-1.97-.4a.13.13 0 0 1-.06-.02.12.12 0 0 1-.03-.06.11.11 0 0 1 .04-.11l.67-.55a.07.07 0 0 1 .06-.02Z" fill="#06909E"/><path d="m8.03 8.81.71-.61a.07.07 0 0 1 .06-.02l.03.01.01.03.01.03a26.6 26.6 0 0 1-.01 1.58.03.03 0 0 1-.03 0l-.77-.75A.08.08 0 0 1 8 9v-.16l.01-.02.01-.02Z" fill="#A5AF41"/><path d="m9.8 9.07-.83.8h-.02a.04.04 0 0 1-.04-.01l-.01-.02V8.28c0-.02 0-.04.02-.05a.1.1 0 0 1 .04-.04.11.11 0 0 1 .12.02l.72.6a.18.18 0 0 1 .06.13.17.17 0 0 1-.05.13Z" fill="#049CA3"/><path d="m12.62 9.14-.02-.74.02-.07a.15.15 0 0 1 .07-.06.16.16 0 0 1 .15.02l.61.46.05.05a.13.13 0 0 1-.02.14.15.15 0 0 1-.05.04l-.6.28a.16.16 0 0 1-.14 0 .14.14 0 0 1-.05-.06.14.14 0 0 1-.02-.06Z" fill="#0C6E8E"/><path d="m5.3 9.22-.13.04h-.05l-.6-.3a.07.07 0 0 1-.02-.01.06.06 0 0 1 .02-.09l.73-.56a.07.07 0 0 1 .07 0c.01 0 .02 0 .03.02v.03l-.01.81-.01.04-.04.02Z" fill="#309A42"/><path d="m7.09 10.44-1.49-.9-.01-.02a.05.05 0 0 1 0-.06h.03l1.87-.4a.15.15 0 0 1 .14.04l.04.06v.07l-.31 1.11-.04.07a.18.18 0 0 1-.15.06.19.19 0 0 1-.08-.03Z" fill="#70A541"/><path d="M10.26 9.1c.03-.04.07-.06.12-.05a2047.56 2047.56 0 0 1 1.98.41.04.04 0 0 1 0 .07l-1.56.92a.18.18 0 0 1-.22-.03.16.16 0 0 1-.04-.07L10.2 9.2c0-.03 0-.05.03-.07a.15.15 0 0 0 .03-.03Z" fill="#06909E"/><path d="M13.47 10.81h-.05a.07.07 0 0 1-.06-.04l-.57-1.12a.06.06 0 0 1 .01-.07.31.31 0 0 0 .05-.14c0-.03.02-.05.05-.06l.6-.27.07.01c.08.06.16.07.24.03.03 0 .05 0 .07.03.24.62.13 1.19-.32 1.7-.03.04-.04.04-.04 0v-.03c0-.02-.02-.04-.05-.04Z" fill="#0C6E8E"/><path d="M5.15 9.59c.03 0 .03.03.02.07l-.52 1.08a.07.07 0 0 1-.07.04c-.08 0-.14.04-.18.1-.01.03-.03.04-.05.01a1.58 1.58 0 0 1-.2-1.67.08.08 0 0 1 .08-.05c.07 0 .13-.02.19-.05a.1.1 0 0 1 .1 0l.54.25.03.03.01.03.01.09c0 .03.02.05.04.07Z" fill="#309A42"/><path d="m7.95 9.16.75.72c.03.02.02.04 0 .06a.14.14 0 0 0-.07.14c0 .03 0 .05-.04.06l-1.05.37a.08.08 0 0 1-.07-.02.07.07 0 0 1-.02-.07l.34-1.22a.1.1 0 0 1 .02-.04.1.1 0 0 1 .1-.03.1.1 0 0 1 .04.03Z" fill="#A5AF41"/><path d="m9.18 10.1-.06-.14a.07.07 0 0 1 .02-.09l.79-.72.03-.02a.09.09 0 0 1 .08.02l.02.03.36 1.23v.05s0 .02-.02.03a.09.09 0 0 1-.08.02l-1.1-.36a.08.08 0 0 1-.05-.04Z" fill="#049CA3"/><path d="m5.55 9.65 1.51.91.02.03a.06.06 0 0 1 0 .06l-.03.02-.68.23a.1.1 0 0 1-.05 0 .09.09 0 0 1-.04-.02.22.22 0 0 0-.2-.07c-.02 0-.05-.01-.06-.04l-.5-1.1c-.01-.03 0-.04.03-.02Z" fill="#56A041"/><path d="m12.43 9.66-.53 1.12c0 .02-.02.03-.04.03h-.11a.08.08 0 0 0-.07.03.12.12 0 0 1-.14.06 25.9 25.9 0 0 1-.74-.25.05.05 0 0 1 .01-.08l1.6-.93c.03-.02.04-.01.02.02Z" fill="#097E95"/><path d="M4.76 10.82 5.3 9.7l.01-.02h.06l.03.03.5 1.1a.12.12 0 0 1 0 .12.13.13 0 0 1-.1.06l-.92.01-.07-.01a.12.12 0 0 1-.04-.04.12.12 0 0 1-.01-.12Z" fill="#309A42"/><path d="m13.2 10.91-.04.06a.07.07 0 0 1-.05.02h-.99a.1.1 0 0 1-.05-.02.1.1 0 0 1-.04-.03.1.1 0 0 1 0-.1l.55-1.15c.01-.03.03-.04.06-.02l.06.1.53 1.05v.05l-.02.02-.01.02Z" fill="#0C6E8E"/><path d="m10.3 10.71-1.15.5a.19.19 0 0 1-.17 0 .18.18 0 0 1-.06-.07.17.17 0 0 1-.02-.08v-.73l.01-.02a.06.06 0 0 1 .05 0c.04 0 .08 0 .11-.04a.06.06 0 0 1 .07-.01 53.46 53.46 0 0 0 1.16.4h.01v.04l-.02.01Z" fill="#049CA3"/><path d="m8.69 11.2-1.1-.53h-.01a.02.02 0 0 1 0-.03l1.05-.37a.18.18 0 0 1 .15.02l.05.06c.02.02.02.05.02.07v.67a.1.1 0 0 1 0 .06.11.11 0 0 1-.05.04.12.12 0 0 1-.11 0Z" fill="#A5AF41"/><path d="m8.63 11.34.03.21a.04.04 0 0 1 0 .03l-.44.57-.02.01a.05.05 0 0 1-.04 0l-.01-.02-.67-1.3a.04.04 0 0 1 .01-.04l.03-.01h.02l1.06.52h.02v.03Z" fill="#70A541"/><path d="m10.83 10.8.67.22c.12.04.13.1.04.17L10 12.54c-.03.02-.05.02-.08 0l-.15-.16a.07.07 0 0 1-.01-.09l.73-1.34c.03-.05.08-.07.14-.07.04 0 .06-.02.09-.04a.1.1 0 0 1 .1-.03Z" fill="#06909E"/><path d="M7.27 10.9h.05c.04 0 .06.01.07.04l.69 1.32c.01.03 0 .05-.01.08l-.15.2c-.02.02-.04.02-.07 0l-1.5-1.37a.07.07 0 0 1 0-.1 30.34 30.34 0 0 1 .71-.25c.05-.03.09-.01.12.03.01.02.02.03.04.03a.1.1 0 0 0 .05.02Z" fill="#70A541"/><path d="m10.4 10.85-.74 1.34a.03.03 0 0 1-.03.01l-.55-.63a.02.02 0 0 1 0-.03l.06-.17.01-.01 1.21-.54h.02a.02.02 0 0 1 .01.03Z" fill="#06909E"/><path d="m7.19 13.65-.05.02c-.67.11-1.31-.23-1.48-.88a.12.12 0 0 0-.1-.09c-.68-.17-1.01-.64-.98-1.39v-.03l.03-.02.19-.12a.16.16 0 0 1 .08-.02l.89-.02a.18.18 0 0 1 .14.06.16.16 0 0 1 .03.15l-.3 1.01c0 .02-.02.04-.03.05a.13.13 0 0 1-.06.04.22.22 0 0 0-.17.15c-.01.03 0 .04.03.05.12.03.26.04.3.18h.01l.02.02a.03.03 0 0 0 .03-.01c.1-.12.09-.23-.02-.34l-.02-.03v-.04l.34-1.1.01-.02h.03l.03.01.86 2.07v.06l-.06.14a.08.08 0 0 0 .02.09l.04.02a.1.1 0 0 0 .05 0 .25.25 0 0 1 .14 0Z" fill="#309A42"/><path d="M13.32 11.25h.03c.03 0 .04.02.04.05 0 .63-.28 1.05-.85 1.26-.05.01-.06 0-.04-.04.02-.04 0-.07-.04-.1a1.03 1.03 0 0 1-.13-.06.08.08 0 0 1-.03-.04l-.32-1a.17.17 0 0 1 .03-.16.2.2 0 0 1 .15-.07l.97.03a.07.07 0 0 1 .05.02l.05.06c.02.03.05.04.09.05Z" fill="#0C6E8E"/><path d="M6.27 11.3c-.01-.04 0-.04.02-.02l1.48 1.35a.05.05 0 0 1 .01.08l-.47.6a.1.1 0 0 1-.05.03.11.11 0 0 1-.1-.01.1.1 0 0 1-.04-.04l-.85-2Z" fill="#56A041"/><path d="m11.64 11.3-.87 2.02-.03.03a.1.1 0 0 1-.09.01.1.1 0 0 1-.04-.02l-.55-.64-.01-.02v-.01l1.58-1.37c.02-.02.03-.02.01 0Z" fill="#097E95"/><path d="m12.19 12.8.02-.01c.01 0 .02 0 .01.02-.17.53-.68.75-1.23.8-.03 0-.04-.02-.05-.04a.3.3 0 0 0-.05-.12.08.08 0 0 1 0-.08l.9-2.08c.02-.03.04-.03.05 0l.33 1.06a.07.07 0 0 1-.02.07c-.13.13-.12.25.02.38h.01Z" fill="#0C6E8E"/><path d="m8.9 13.38-.03.04a.06.06 0 0 1-.05 0 147.97 147.97 0 0 0-.57-1.12l.5-.64c.07-.09.1-.08.1.03l.02 1.2c0 .16-.04.31 0 .48h.03Z" fill="#70A541"/><path d="M8.87 13.42c0-.01 0-.03.03-.04v-1.66c0-.1.03-.12.1-.04l.56.64a.06.06 0 0 1 0 .07l-.53.98c-.04.08-.1.1-.16.05Z" fill="#06909E"/><path d="m8.17 12.44.34.66c.03.05.02.05-.02.02l-.5-.45v-.04l.15-.2h.03Z" fill="#56A041"/><path d="m9.33 13.1.33-.6a.03.03 0 0 1 .02-.02h.02l.14.15v.05l-.5.43c-.03.03-.03.03-.01-.01Z" fill="#097E95"/><path d="M7.14 13.67c.02 0 .04 0 .05-.02l.15.07c.03 0 .05 0 .05-.03a.35.35 0 0 0 0-.22.08.08 0 0 1 .01-.08l.49-.62h.03l.8.72c.02.03.02.05 0 .08-.04.09-.02.17.06.24.03.03.03.05-.01.06-.58.22-1.12.16-1.63-.2Z" fill="#56A041"/><path d="M10.53 13.65h.03c.03 0 .03 0 0 .01-.52.3-1.05.35-1.6.16-.06-.01-.06-.02 0-.02.02 0 .04 0 .05.02a.08.08 0 0 0 .08.02l.03-.02.02-.03a.31.31 0 0 0 0-.25.08.08 0 0 1-.01-.05l.02-.04.78-.67a.02.02 0 0 1 .02 0h.01l.53.62a.06.06 0 0 1 0 .08c-.04.05-.05.1-.02.15.01.03.03.04.06.02Z" fill="#097E95"/></svg>