<!-- by TradingView --><svg width="18" height="18" viewBox="0 0 18 18" xmlns="http://www.w3.org/2000/svg"><path fill="#F0F3FA" d="M0 0h18v18H0z"/><path fill-rule="evenodd" d="M11.59 13.02c-.8.62-1.77.98-2.83.98A4.88 4.88 0 0 1 4 9c0-2.76 2.13-5 4.76-5 1.06 0 2.04.36 2.83.98v-.72c0-.15.1-.26.24-.26h1.93c.13 0 .24.11.24.26v9.48c0 .15-.1.26-.24.26h-1.93a.25.25 0 0 1-.24-.26v-.72ZM11.13 9c0 1.38-1.06 2.5-2.37 2.5A2.44 2.44 0 0 1 6.38 9c0-1.38 1.06-2.5 2.38-2.5A2.44 2.44 0 0 1 11.13 9Z" fill="url(#a)"/><defs><linearGradient id="a" x1="4" y1="8.5" x2="14" y2="8.5" gradientUnits="userSpaceOnUse"><stop stop-color="#00C2F9"/><stop offset="1" stop-color="#00155C"/></linearGradient></defs></svg>