<!-- by TradingView --><svg width="18" height="18" viewBox="0 0 18 18" xmlns="http://www.w3.org/2000/svg"><path fill="#F0F3FA" d="M0 0h18v18H0z"/><path d="M6 13.4V4h3.65C10.77 3.96 13 5.5 13 7.6c0 2.4-2.23 3.35-3.35 3.4H8.8v3.91L6 13.41Z" fill="#EFD40A"/><path fill-rule="evenodd" d="M9.65 11c1.12-.05 3.35-.5 3.35-3.5C13 5 10.77 3.96 9.65 4H6v9.48L9 15v-4h.65ZM8 13.47V10h1.64C11.06 9.92 12 9.18 12 7.5 12 6.15 11.04 5 9.65 5H7v7.86l1 .61Z" fill="#2A2652"/><path fill-rule="evenodd" d="M9.44 7H9v1h.45c.28 0 .55-.05.55-.5 0-.36-.3-.51-.56-.5Zm.23 2C10.1 8.97 11 8.74 11 7.5c0-1.23-.92-1.52-1.37-1.5H8v3h1.67Z" fill="#2A2652"/></svg>