<!-- by TradingView --><svg width="18" height="18" viewBox="0 0 18 18" xmlns="http://www.w3.org/2000/svg"><path fill="#143C7D" d="M0 0h18v18H0z"/><path d="M7.8 8.33c0-.35-.37-.56-1.09-.56h-2.4V11H3V7h3.64c1.8 0 2.58.43 2.58 1.28 0 .9-.88 1.41-2.54 1.41-.66 0-1.16-.04-1.74-.1l.08-.72a20 20 0 0 0 1.6.07c.76 0 1.17-.21 1.17-.61Zm6.42.67c.49-.2.78-.5.78-.92C15 7.32 14.26 7 12.73 7H9.68v4h3.05c1.53 0 2.27-.32 2.27-1.08 0-.42-.3-.73-.78-.92Zm-1.5 1.3H10.8V7.7h1.93c.68 0 .96.18.96.5 0 .25-.26.4-.66.47-.22.04-.52.05-.83.05h-.33l-.09-.01v.58h.09c.1-.02.22-.02.33-.02.3 0 .61.02.83.06.4.06.66.21.66.47 0 .32-.28.5-.96.5Z" fill="#fff"/></svg>