<!-- by TradingView --><svg width="18" height="18" viewBox="0 0 18 18" xmlns="http://www.w3.org/2000/svg"><path fill="#F0F3FA" d="M0 0h18v18H0z"/><path fill-rule="evenodd" d="M12 7.5V6H9.63c-.97 0-1.82.6-2.27 1.5C7.1 6.62 6.39 6 5.55 6H3v6h1.3v-1.5h1.25c.61 0 1.15-.36 1.5-.9.24 1.37 1.3 2.4 2.58 2.4h2.45l.76-1.18.68-.58V12H15V9.06l1-.9v-.1l-4 2.97v-.02l4-3.23v-.13l-4 3 4-3.21v-.17l-3.71 2.79L16 7v-.09l-3.37 2.54L16 6.67v-.13l-1 .69V6h-1.44l-2.41 4.5H9.6c-.65 0-1.28-.74-1.28-1.49 0-.74.63-1.51 1.28-1.51H12Zm-6.3 0H4.3v1.53h1.4c.3 0 .55-.34.55-.76 0-.43-.24-.77-.54-.77Z" fill="#002D72"/></svg>