<!-- by TradingView --><svg width="18" height="18" viewBox="0 0 18 18" xmlns="http://www.w3.org/2000/svg"><path fill="#F0F3FA" d="M0 0h18v18H0z"/><path d="M13.37 5.82a.44.44 0 0 0-.17.2c0 .03-.03.05-.05.06l-.13.04c-.06.03-.08.09-.04.16a.1.1 0 0 1-.01.1.1.1 0 0 1-.04.04.11.11 0 0 1-.05 0c-.12 0-.18.04-.18.13 0 .03-.01.04-.05.04-.07 0-.13-.02-.17-.07a.12.12 0 0 0-.07-.04c-.11-.03-.2 0-.25.07a.22.22 0 0 0-.12-.05c.1-.26.28-.46.53-.59.25-.12.53-.16.8-.1Z" fill="#6E8A3F"/><path d="M13.53 5.87c-.08.1-.15.2-.2.3a.6.6 0 0 1-.1.15c-.03.05-.08.1-.12.13-.02.02-.04.05-.03.07l.02.23c0 .02.02.03.05.03.04 0 .1.04.2.11h.04v-.03l-.05-.08a.06.06 0 0 1 0-.07.09.09 0 0 1 .06-.04c.03 0 .05 0 .08.02.08.07.16.1.25.13a.1.1 0 0 1 .06.06c.06.11.13.18.22.22l.04.02.01.04a.08.08 0 0 1-.03.08c-.11.1-.14.21-.08.34-.11.14-.27.24-.44.3.1-.13.15-.25.12-.37-.01-.03-.03-.04-.06-.04h-.03c.02-.14-.07-.4-.24-.44a.1.1 0 0 0-.08.01l-.2.1v.02a.41.41 0 0 1-.18.17.34.34 0 0 1 .1-.15h-.01a.9.9 0 0 1-.34-.17c.1.03.19.05.27.03.04 0 .05-.02.02-.05a.12.12 0 0 0-.07-.04.04.04 0 0 1-.03-.02.04.04 0 0 1 0-.04.2.2 0 0 1 .13-.11.36.36 0 0 0 .12-.06c.04-.05.04-.1 0-.16a.1.1 0 0 1 .01-.14.23.23 0 0 0 .09-.09.12.12 0 0 0 0-.11.22.22 0 0 0-.1-.1l.12-.04a.08.08 0 0 0 .05-.06.44.44 0 0 1 .17-.2l.16.05Z" fill="#2B67AB"/><path d="M13.53 5.87a1.07 1.07 0 0 1 .66 1.29c-.05.15-.13.3-.24.42-.06-.13-.03-.24.08-.34l.03-.04a.08.08 0 0 0-.01-.08.09.09 0 0 0-.04-.02.42.42 0 0 1-.22-.22.1.1 0 0 0-.07-.06.68.68 0 0 1-.24-.13.09.09 0 0 0-.08-.02.09.09 0 0 0-.06.04.06.06 0 0 0 0 .07l.05.08v.03h-.05a.51.51 0 0 0-.2-.1c-.02-.01-.04-.02-.04-.04l-.02-.23c0-.02 0-.05.03-.07l.13-.13a.6.6 0 0 0 .1-.15c.04-.1.1-.2.19-.3Z" fill="#0E2360"/><path d="M13.03 6.12c.04.02.07.06.1.1v.11a.23.23 0 0 1-.08.1.1.1 0 0 0-.02.13c.04.06.05.1 0 .16a.36.36 0 0 1-.12.06.2.2 0 0 0-.13.11.04.04 0 0 0 .02.05h.01c.04.01.06.03.08.05.02.03.01.04-.03.05A.52.52 0 0 1 12.6 7a.48.48 0 0 0-.4-.16c-.03 0-.05 0-.06-.04-.02-.07-.01-.16.03-.26.05-.08.14-.1.25-.07.03 0 .06.02.07.04.04.05.1.07.18.07.03 0 .04-.01.04-.04 0-.09.06-.13.18-.12a.11.11 0 0 0 .1-.05.1.1 0 0 0 0-.1c-.04-.07-.02-.13.05-.16Z" fill="#64A7B1"/><path d="M12.04 6.5c.04 0 .08.02.12.05-.04.1-.06.19-.03.26 0 .03.03.05.06.04.16 0 .3.05.4.16a.9.9 0 0 0 .34.16v.01a.34.34 0 0 0-.1.15c0 .07.01.13.05.17.03.02.08.03.16.03.1 0 .2.02.3.06a.1.1 0 0 0 .09 0 .26.26 0 0 0 .11-.11h.03c.03-.01.05 0 .06.03.03.12-.01.24-.12.38a1.17 1.17 0 0 1-1.17-.2 1.05 1.05 0 0 1-.3-1.19Z" fill="#0E2360"/><path d="M13.54 7.48a.27.27 0 0 1-.11.11.1.1 0 0 1-.08 0 .86.86 0 0 0-.31-.06c-.08 0-.13 0-.15-.03-.05-.04-.06-.1-.05-.17.08-.04.13-.1.18-.17v-.01l.2-.1a.1.1 0 0 1 .08-.02c.17.04.26.3.24.45Z" fill="#6E8A3F"/><path d="M4.86 5.7c2.12-.74 4.14-.85 6.38-.53l1 .24.32.1a.02.02 0 0 1 0 .01l.01.01v.01c-.49.27-.92.81-.92 1.68-.1.03-.3-.04-.5-.13-1.6-.47-8.08-1-8.73 2.2-.05.58.13 1.1.54 1.53a.26.26 0 0 0-.06.16c-.2-.21-.34-.38-.42-.49-1.45-2.1.7-4.19 2.38-4.78Zm11 2.5c.15.36.18.77.09 1.23l-.18.55c-.15.32-.35.62-.61.9l-.37.36a7.3 7.3 0 0 1-2.2 1.18 11.04 11.04 0 0 1-4.9.5 9.16 9.16 0 0 1-3.67-1.1c.02-.08.05-.13.09-.14a10.1 10.1 0 0 0 7.54.23c1.97-.68 2.71-1.55 2.04-3.1l-.36-.51a.04.04 0 0 1 0-.03.04.04 0 0 1 .03-.04A1.36 1.36 0 0 0 14.5 6.6c0-.06.01-.08.07-.03.59.42 1.02.97 1.29 1.64Z" fill="url(#a)"/><path d="M13.68 10.4c.29-.04.43 0 .4.13-.07.13-.2.24-.34.33-.18.1-.36.14-.54.14h-1.18c-.3 0-.58-.06-.84-.15h-.08c-.19.09-.34.15-.47.15H8.87c-.3 0-.6-.06-.9-.16a.1.1 0 0 0-.07.01c-.17.1-.37.15-.6.15H5.2c-.28 0-.43-.15-.46-.42l.01-.05.04-.03.38-.17c.27-.11.43-.33.49-.65.01-.1 0-.19-.04-.28a.5.5 0 0 0-.19-.21l-.09-.06c-.2-.12-.33-.08-.4.13-.35 1.05-.74 2.07-1.11 3.09-.01.02-.03.03-.06.03H2.44l-.02-.02v-.04l.48-1.33c0-.06.02-.1.06-.15l1.16-3.2a.1.1 0 0 1 .04-.04.1.1 0 0 1 .06-.02h1.29l.02.02a.05.05 0 0 1 0 .05l-.28.76a.05.05 0 0 0 0 .05l.02.01h.03c.29.01.57.02.84.05.59.05.89.31.9.79.01.44-.3.82-.7 1.02-.08.04-.08.06.02.06h.9c.03 0 .05-.02.04-.05-.15-.6.02-1.09.51-1.44.34-.24.75-.38 1.22-.4a9.03 9.03 0 0 1 1.38 0c.57.07.86.6.51 1.06-.24.32-.77.38-1.1.17a.7.7 0 0 1-.35-.6c0-.03-.02-.05-.05-.05h-.35c-.03 0-.05.02-.06.05l-.3.77c-.06.16-.05.35.14.42.1.04.19.07.25.07h2.02l.04-.01.03-.04.69-1.82.02-.03h1.34a.06.06 0 0 1 .04.04v.03l-.67 1.77a.04.04 0 0 0 .02.06h1.05Z" fill="#183162"/><defs><linearGradient id="a" x1="8.73" y1="4.74" x2="3.37" y2="11.41" gradientUnits="userSpaceOnUse"><stop stop-color="#0A124F"/><stop offset=".53" stop-color="#72C6EB"/><stop offset="1" stop-color="#259E2A"/></linearGradient></defs></svg>