<!-- by TradingView --><svg width="18" height="18" viewBox="0 0 18 18" xmlns="http://www.w3.org/2000/svg"><path fill="#F0F3FA" d="M0 0h18v18H0z"/><path fill-rule="evenodd" d="M2.5 10.07v.13c.18.14.39.18.62.11a.07.07 0 0 0 .04-.06v-.03a.9.9 0 0 1-.06-.13c-.05-.2 0-.22.17-.07l.04.03c.01.01.04.02.08 0l.6-.16c.11-.02.21.03.31.09.03.02.04.04.04.08l-.2.88c-.02.1.02.18.1.24l.7.4a.09.09 0 0 0 .13-.06.6.6 0 0 0-.18-.61c-.03-.03-.06-.03-.1-.01l-.2.14-.01.01h-.03c-.06-.01-.07-.04-.04-.09a.52.52 0 0 0 .08-.28 6.78 6.78 0 0 1 .04-.53.06.06 0 0 1 .05-.02h.03l.78.4c.1.04.16.1.2.14.07.08.15.1.23.1a.1.1 0 0 1 .1.03c.55.56 1.66.48 2.4.28.05-.01.08 0 .1.03l.33.45a.25.25 0 0 0 .16.1l.87.11a.04.04 0 0 0 .03-.01.03.03 0 0 0 0-.04l-.12-.25v-.02h.02c.16.25.29.5.39.77.03.08.09.14.15.2.05.06.11.12.15.2.01.03.1.23.29.6.02.04.04.06.08.05l.69-.13a.05.05 0 0 0 .03-.07c-.08-.2-.24-.33-.49-.36-.03 0-.05 0-.06.03l-.1.18-.02.01a.05.05 0 0 1-.04 0h-.01l-.03-.02a.1.1 0 0 1-.02-.12c.06-.11.02-.21-.12-.31-.03-.02-.04-.05-.02-.08.03-.06.09-.08.17-.06.22.04.4.04.54 0 .12-.04.2-.05.26-.03.13.06.21.1.24.14a14.58 14.58 0 0 1 .88 1.42l.05.02.79.1c.04.02.06 0 .05-.05a.68.68 0 0 0-.47-.58c-.04 0-.06 0-.08.03l-.13.22a.06.06 0 0 1-.06.03.1.1 0 0 1-.03 0 .09.09 0 0 1-.05-.08c0-.1 0-.17-.06-.23a4.73 4.73 0 0 1-.76-1.43.18.18 0 0 0-.15-.12c-.18-.02-.4 0-.62.05-.11.02-.1.04 0 .03l.55-.02c.03 0 .06 0 .1.02l.05.07.2.5v.02h-.03l-.2-.42a.21.21 0 0 0-.21-.12 2.73 2.73 0 0 1-.9-.1.1.1 0 0 1-.04-.07 34.28 34.28 0 0 1 .19-.58c.08-.2.1-.39.1-.54a2.19 2.19 0 0 0-.29-.88c-.02-.04 0-.06.04-.06.2 0 .4.06.59.15l.35.21c.17.1.34.21.5.27.56.2 1.12.14 1.69-.2.02-.01.03-.03.03-.07l-.17-.64c-.03-.1-.08-.17-.17-.2-.05-.02-.12-.01-.23.02-.21.07-.45.12-.73.14l-1.01.06a3.4 3.4 0 0 1-.88-.08.1.1 0 0 0-.1.03.37.37 0 0 1-.16.08c-.03 0-.07 0-.1-.02a.89.89 0 0 0-.47-.1.02.02 0 0 1-.03-.02.02.02 0 0 1 .02-.03c.15-.06.21-.1.3-.22a.13.13 0 0 1 .08-.05c.31-.05.54-.19.69-.42a.16.16 0 0 1 .07-.06c.17-.06.3-.15.4-.27a.06.06 0 0 0 .01-.07l-.01-.03a.04.04 0 0 1 0-.03.04.04 0 0 1 .02-.03.54.54 0 0 0 .28-.23.04.04 0 0 0-.02-.06h-.19c-.01 0-.02 0-.02-.02 0 0 0-.02.02-.02.19-.06.32-.1.4-.15.12-.06.21-.15.27-.26.02-.03.01-.06-.02-.08h-.04l-.04.01h-.06c-.03-.01-.03-.03 0-.05.25-.11.44-.29.57-.52.02-.02.01-.04 0-.06l-.04-.03c-.02-.03-.02-.05.02-.07.26-.13.46-.31.6-.55.01-.03.01-.06-.01-.09-.07-.07-.15-.09-.25-.06.13-.06.3-.18.48-.36a.5.5 0 0 0 .12-.16 5.36 5.36 0 0 1 .43-.8.07.07 0 0 0-.05-.08h-.03c-.26.05-.41.1-.48.13-.17.09-.2.05-.1-.11.07-.11.12-.24.16-.38.02-.09-.01-.12-.1-.09-.52.19-.98.4-1.4.65l-.43.2c-.14.07-.28.15-.41.24L9.7 6.12c-.38.29-.8.66-1.23 1.12-.03.03-.03.06 0 .08.02.03.06.04.13.04a5.3 5.3 0 0 0-.65.72 645.03 645.03 0 0 1-.96 1.24h-.04c-.01-.01-.02-.02 0-.03L8.4 7.4a.08.08 0 0 0 .01-.08.4.4 0 0 1-.02-.24c.02-.08 0-.1-.07-.05l-.1.07c-.04.04-.05.03-.02-.03a.84.84 0 0 0 .08-.72.04.04 0 0 0-.04-.03.04.04 0 0 0-.04.02l-.3.38c-.03.05-.05.04-.05-.01v-.06c-.02-.18-.03-.32-.18-.42-.03-.02-.05-.01-.07.02l-.26.56a.07.07 0 0 1-.08.04l-.03-.02c-.2-.18-.38-.31-.51-.4-.18-.11-.38-.12-.6-.03-.04.01-.06 0-.06-.03-.02-.22-.1-.42-.22-.58-.02-.03-.03-.03-.04.01l-.08.58a.03.03 0 0 1-.03.03.04.04 0 0 1-.03 0c-.08-.11-.2-.2-.35-.29-.06-.03-.08-.02-.04.04l.17.31c.02.03.01.05 0 .07l-.33.32a.16.16 0 0 0-.04.1v.03a.65.65 0 0 1-.1.3c-.13.21-.24.4-.3.58-.03.06-.07.1-.1.14l-.07.06a.11.11 0 0 0-.01.13c.06.12.13.21.22.27.01.01.03.02.05.01.02 0 .04 0 .05-.02l.12-.16a.79.79 0 0 1 .17-.12.68.68 0 0 0 .17-.13h.02c.02 0 .02.01.01.03a1.2 1.2 0 0 1-.3.3c-.15.1-.13.15.05.14.12 0 .2-.07.26-.19a.18.18 0 0 1 .06-.07l.66-.48c.03-.03.05-.02.06.01a.6.6 0 0 1-.05.55c-.3.52-.48.92-.53 1.22 0 .03-.02.04-.05.03l-.43-.25a.06.06 0 0 0-.07 0l-.47.35a.11.11 0 0 1-.1.02l-.21-.08a.17.17 0 0 0-.07 0l-1.06.07L3 9.7l-.51.36Zm10.54-5.42c.1-.1.19-.22.25-.35a.15.15 0 0 0 0-.1c-.01-.1.02-.11.1-.05.02.01.02.05 0 .1-.12.19-.23.33-.34.42h-.02v-.02Zm.02-.43h.07c.04-.04.05-.05.03-.05.02 0 0 .01-.04.04a.07.07 0 0 1-.05.01h-.01Zm.75.45-.06-.07v-.05a.1.1 0 0 1 .05-.02c.04-.01.07 0 .08.04v.09a.04.04 0 0 1-.07.01Zm-.18-.06.04.01-.03.02a.66.66 0 0 1-.2.05h-.04l.04-.03a.66.66 0 0 1 .19-.05Zm-.33.13a9.84 9.84 0 0 0-2.8 1.48l-.24.23c-.1.1-.2.2-.32.29-.07.05-.08.04-.02-.03.1-.12.23-.24.38-.35l.93-.73c.1-.09.2-.15.31-.18.18-.07.3-.11.34-.14a7.4 7.4 0 0 1 1.43-.6v.03Zm-.02.45a1.23 1.23 0 0 0 .5-.48h.02v.01c-.03.12-.1.22-.2.31a.75.75 0 0 1-.32.2l-.01-.01V5.2h.01Zm-.07.1v.03c.05.02.1.02.13 0 .03 0 .03 0 .01.02l-.02.01-.02.01c-.09 0-.18 0-.3-.03-.03 0-.03-.02 0-.03.02-.02.08-.04.17-.04.02 0 .03.01.03.03Zm-.19.15a1.4 1.4 0 0 0-.27-.05c-.04 0-.04.02 0 .04.09.05.18.05.27.01Zm-.54.06c.05-.02.11-.02.18.02.03.02.03.04 0 .05-.05 0-.1 0-.18-.02-.05-.01-.05-.03 0-.05Zm-.1.05.02.05a.02.02 0 0 1 0 .02l-.02.01a31.12 31.12 0 0 1-1.22.63s.02-.03.08-.06a6.8 6.8 0 0 1 .64-.39l.46-.26h.01a.02.02 0 0 1 .02 0Zm.68.6c-.14.11-.21.17-.22.16l.12-.25c.04-.1.1-.12.14-.07.06.04.04.1-.04.16Zm-.7.05h-.04l.04-.01c.34-.13.52-.17.53-.13.01.03-.17.08-.53.14Zm-.1.05h-.05a.1.1 0 0 1 .04-.02c.05-.02.06-.01 0 .02Zm-5.69.58c-.09-.08-.13-.06-.11.04 0 .06 0 .14-.05.24-.01.04-.03.04-.04 0-.01-.07-.03-.1-.06-.11a.29.29 0 0 1-.05-.02l-.02-.02a.59.59 0 0 0-.1-.39c-.03-.05-.02-.06.04-.04.22.08.43.24.64.48.32.35.5.76.54 1.2l-.01.03-.02-.01a2.09 2.09 0 0 0-.76-1.4Zm-1.81.98c.12-.23.26-.46.4-.69l.1-.24c.04-.09.1-.16.2-.2.03-.03.06-.02.07.02.03.06.02.11-.02.16-.29.28-.53.6-.7.97-.02.02-.03.02-.04 0l-.01-.02Zm7.73-1.16c.03-.03.05-.01.04.05l-.02.06a.11.11 0 0 1-.03.04h-.02l-.03-.03c-.02-.01-.02-.03 0-.05a.35.35 0 0 1 .06-.07Zm-5.65.06h.07l.05.02v.04l-.02.01a.16.16 0 0 1-.13-.05v-.02h.03Zm5.35.07.18-.03.01-.01v-.01h-.02a.57.57 0 0 0-.17.05Zm-6.09.24a.2.2 0 0 1-.11-.06.2.2 0 0 1-.06-.11c-.01-.04 0-.05.02-.01l.06.1c.02 0 .05.03.1.06.03.02.03.03-.01.02Zm-.48.02h-.06c-.03-.03-.03-.05 0-.06l.06.02c.03.01.04.02 0 .04Zm1.63 0L7.22 7V7l.04.02v.01h-.01Zm.22.13-.04-.06a.18.18 0 0 0-.06-.05l-.07-.04c-.04-.02-.04-.04 0-.04.1 0 .19.04.25.13a.03.03 0 0 1-.01.05l-.03.01c-.01.02-.03.01-.04 0Zm-1.66-.1c.03.01.04.03.02.05a.3.3 0 0 1-.2.12c-.04 0-.05-.01-.03-.05.05-.1.13-.15.21-.12Zm.53.2c.02-.03.02-.03 0 0-.03.13-.09.25-.16.37l-.02.01h-.04v-.03l.22-.35Zm.48.5c-.08-.11-.15-.23-.2-.36-.02-.03-.01-.04.01 0l.25.34v.02l-.03.01-.03-.01Zm.8-.19.02-.1c0-.01 0-.02-.02-.03l-.02-.02V7.4l.16-.03c.04 0 .06.02.06.06 0 .1.03.18.13.23a.1.1 0 0 1 .05.1.1.1 0 0 1-.07.1c-.09.03-.15.04-.18.03-.05-.02-.05-.03 0-.05.06-.02.1-.06.09-.1 0-.05-.03-.07-.06-.08l-.13-.02c-.03 0-.04-.03-.03-.06Zm.87.28.33-.07c.04 0 .06-.02.06-.06a.3.3 0 0 0-.05-.14c-.02-.04 0-.05.04-.04l.1.06a.13.13 0 0 1-.04.22.73.73 0 0 0-.25.11.09.09 0 0 1-.1.01l-.1-.05c-.03-.02-.03-.03 0-.04ZM5.75 9.31c-.02-.02-.02-.03 0-.02h.01c.08-.12.17-.23.29-.32.15-.12.23-.23.26-.33.1-.3.04-.46-.02-.66-.02-.07-.05-.15-.06-.23-.03-.11-.01-.12.04-.02.1.17.18.4.25.66.03.12-.02.25-.15.36a33.82 33.82 0 0 0-.62.56Zm3.08-.93a.53.53 0 0 0-.29-.09c-.06 0-.07.02-.02.06l.03.04v.09a.28.28 0 0 1-.1.09c-.04.02-.07.03-.08.01-.02-.01-.01-.02 0-.03.1-.03.12-.08.07-.16v-.01l-.17-.1c-.04-.02-.03-.04.01-.04.17 0 .42-.01.42-.23 0-.04.02-.05.05-.03l.03.02c.03.02.05.04.05.08 0 .02-.02.05-.06.08-.1.08-.08.12.04.14a.3.3 0 0 1 .21.13.08.08 0 0 1 0 .1c-.03.05-.12.1-.28.16-.04.02-.05.04-.03.08l.03.04c.02.04.02.08-.02.1a.52.52 0 0 1-.24.14c-.14.03-.15.08-.05.16.02.02.02.05 0 .09 0 .03-.02.05-.04.07a.47.47 0 0 1-.2.08c-.15.02-.16 0 0-.03.03-.01.07-.07.1-.17a.09.09 0 0 0-.01-.1.53.53 0 0 0-.23-.15c-.05-.02-.05-.03 0-.05l.05-.02.03-.03v-.04c-.01-.09-.08-.15-.19-.2-.05-.02-.05-.03 0-.04.14-.02.23.03.3.14.04.08.04.13 0 .14-.13.05-.13.09 0 .14.14.05.26-.01.37-.19V8.8l-.1-.09c-.04-.04-.03-.07.04-.07l.12.02c.04 0 .07 0 .1-.02a.2.2 0 0 0 .1-.17.09.09 0 0 0-.04-.08Zm-4.05-.36c.08-.03.15-.01.23.04.03.02.06.02.08 0l.04-.02c-.07.06-.17.11-.28.16a.06.06 0 0 1-.08-.02l-.01-.03v-.1c0-.02 0-.03.02-.03Zm1.3 1.37v-.02l.55-.47a.13.13 0 0 0 .04-.08l.1-.65c0-.1.02-.1.04 0l.1.55a.2.2 0 0 1-.1.22c-.25.13-.49.29-.7.46-.04.03-.05.02-.04 0Zm1.6-.04a.22.22 0 0 0 .07-.06.12.12 0 0 0 .03-.08c0-.06-.05-.11-.14-.16-.04-.02-.04-.04.01-.04.14 0 .22.05.25.16.02.07 0 .12-.03.15a.29.29 0 0 1-.19.07c-.05 0-.06-.01 0-.04Zm5.9-.02.02-.01h.03c.01.01 0 .02-.02.04h-.01a.02.02 0 0 1-.02-.03Zm-.07 0h-.05.05Zm-2.76.11h-.03.03c.01 0 .02 0 .02-.02v-.01.02l-.02.01Zm1.35.1a.63.63 0 0 0-.35-.04c-.04.01-.04.02 0 .03.1.03.22.03.35 0Zm.04.02s-.02 0-.03-.02c.01.02.02.02.03.02.04 0 .05-.02.03-.02.02 0 .01.01-.03.02Zm-1.2.92v.01h-.03a1.87 1.87 0 0 0-.5-.95v-.01h.06c.02 0 .04 0 .05.02.23.27.37.58.43.93Zm2.04-.1a2.3 2.3 0 0 1-1.39-.55.18.18 0 0 0-.08-.03l-.07-.01c-.02 0-.02-.01 0-.02l.01-.02h.01l.65.34a1.99 1.99 0 0 0 .89.2.04.04 0 0 1 0 .06v.02h-.02ZM5 9.8c.12.06.24.13.36.22.05.04.05.05-.02.04a2.24 2.24 0 0 1-.48-.2v-.02l.01-.02.02-.01h.08L5 9.8h.01Zm4.29.07c-.01.3.07.53.24.7l-.01.03H9.5a.92.92 0 0 1-.27-.58c-.01-.08.01-.13.06-.16Zm-3.13.5c.05.03.1.02.13-.02l.02-.02c.03-.04.04-.03.03.02a.3.3 0 0 1-.07.13c-.03.03-.05.03-.07.01l-.56-.4v-.01l.52.29Zm2.46-.1v-.01l.2-.14a.34.34 0 0 1-.2.15Zm.29.08h.02s0 .02-.04.05a1.04 1.04 0 0 1-.26.18h-.02l.04-.05a1.04 1.04 0 0 1 .26-.18Zm3.3 2.27a.16.16 0 0 0-.04-.05c.03 0 .04.02.05.04.03.08.02.08-.01.01Zm.07.16c0-.02 0-.02.03 0l.02.04c.04.08.03.08-.02.02l-.03-.06Zm.14.23c-.02 0-.03 0-.03-.04 0-.02 0-.02.02-.01a.07.07 0 0 1 .02.03V13Zm.1.11.06.1a.1.1 0 0 1 .04.06c.02.05.01.05-.03.02a.32.32 0 0 1-.1-.17c0-.03 0-.03.03-.01Zm1.23-8v.01c-.13.32-.32.53-.59.63v.04c0 .02.02.02.04.02.25-.1.43-.27.56-.5.04-.07.04-.14 0-.2Zm-2.43 4.21-.08.01-.3-.03c-.02 0-.03-.01-.03-.03a6.59 6.59 0 0 0 .66-.03h.47c.39.02.74-.07 1.2-.19l.36-.08c.05-.02.07 0 .08.05v.05c0 .03-.01.04-.04.04a.3.3 0 0 0-.17.01c-.17.07-.3.1-.4.1a1.7 1.7 0 0 0-.62.06c-.1.03-.28.03-.54 0h-.3l-.29.04Z" fill="#E6290F"/></svg>