<!-- by TradingView --><svg width="18" height="18" viewBox="0 0 18 18" fill="none" xmlns="http://www.w3.org/2000/svg">
<rect width="18" height="18" fill="url(#paint0_linear_5825_208774)"/>
<path fill-rule="evenodd" clip-rule="evenodd" d="M11 7.25V7C11 7 6.33333 7 4 7.00001C4 7.00001 4.83483 7.41131 4.66667 8C4.66667 8 7.04457 7.24292 11 7.25Z" fill="#C8C8C8"/>
<path fill-rule="evenodd" clip-rule="evenodd" d="M11 7.76926V7.4231C11 7.4231 7.54661 7.34489 5 8.46157C5 8.46157 5.90818 8.72604 6 9.50002C6 9.50002 8.10876 7.94669 11 7.76926Z" fill="#C8C8C8"/>
<path fill-rule="evenodd" clip-rule="evenodd" d="M11 8L11 8.34615C11 8.34615 8.96254 8.38196 7.33331 10.4231C7.33331 10.4231 7.17124 9.73077 6.33331 9.73077C6.33331 9.73077 7.54363 8.35804 11 8Z" fill="#C8C8C8"/>
<path fill-rule="evenodd" clip-rule="evenodd" d="M3.33333 6.5C3.58881 5.39795 3 5 3 5H7.99234C11.1808 5 15 5.88574 15 8.0443C15 10.2029 12.6416 10 12.6416 10H10.6667C10.6983 10.5207 10.3333 12 10.3333 12C11.3333 12 11.3333 11.5769 11.3333 11.5769L11.1137 11.5734C11.2298 11.0745 11 10.5385 11 10.5385C11.6336 10.7663 11.9201 11.5769 11.9201 11.5769H11.6667C11.6879 12.5532 10 12.6154 10 12.6154C9.38691 13.9097 8.37974 13.9996 8.24358 13.9996C8.23899 13.9996 8.2333 13.9997 8.22658 13.9998C8.03404 14.0018 7 14.0126 7 12.8802C7 11.9231 9.00652 12.0054 9.00652 12.0054C9.00652 10.7885 7.33333 11 7.33333 11C8.81674 9.20362 10.5342 9 10.5342 9H12.5268C12.6817 9 13.3333 8.81743 13.3333 8.0443C13.3333 7.27117 11.6113 6.5 8.66667 6.5H3.33333ZM7.96548 12.6154H9.00001C8.81616 13.1844 8.17236 13.3077 8.04594 13.3077C7.91951 13.3077 7.66667 13.2413 7.66667 12.9758C7.66667 12.7103 7.96548 12.6154 7.96548 12.6154Z" fill="#C8C8C8"/>
<defs>
<linearGradient id="paint0_linear_5825_208774" x1="9" y1="0" x2="9" y2="18" gradientUnits="userSpaceOnUse">
<stop stop-color="#181B1E"/>
<stop offset="1" stop-color="#181B1E"/>
</linearGradient>
</defs>
</svg>
