<!-- by TradingView --><svg width="18" height="18" viewBox="0 0 18 18" xmlns="http://www.w3.org/2000/svg"><path fill="#F0F3FA" d="M0 0h18v18H0z"/><path d="M12.98 5c1.56.33 2.46 2.08 1.8 3.82-1 2.62-4.13 3.34-6.37 3.07l-.08.01a.15.15 0 0 0-.05.07L7.76 13H3l3.99-8h6Zm1.12.89-.33-.1a.73.73 0 0 0-.67.12 3.69 3.69 0 0 1-3.83.5c-1-.42-2.42-.14-3.1.87-.04.07-.02.11.04.14 1.57.76 2.29 2.13 2.15 4.14 0 .07.02.1.08.08a6.18 6.18 0 0 0 4.65-3.93c.23-.54.59-1.03 1.07-1.47.19-.16.17-.28-.06-.35Z" fill="#004DA2"/></svg>