<!-- by TradingView --><svg width="18" height="18" viewBox="0 0 18 18" xmlns="http://www.w3.org/2000/svg"><path fill="#F0F3FA" d="M0 0h18v18H0z"/><path fill-rule="evenodd" d="M8.58 4v3.66H7.06c0 .42 0 1.23.55 1.68v.85c-.83.04-2.53.28-2.64.84 0 .28.42.7 1.53.7 1.23 0 1.99-.51 2.22-.7V4c.84.56 2.36 2.25 2.5 3.38h-.56A5.9 5.9 0 0 0 9.28 5.4v4.64l.27-.14V7H10v2.34l.24-.43c.2-.36.42-.76.42-.91h.56c-.1.38-.36 1.18-.7 1.63 1.12.09 3.36.47 3.48 1.26.13.98-2.78 2.11-5.14 2.11S4 11.73 4 10.9c0-.68 2.13-1.13 3.2-1.28a3.25 3.25 0 0 1-.7-1.96c0-.85.83-2.82 2.08-3.66ZM8 8.03h.44v2.72L8 10.47V8.03ZM7.33 7H8V5.4A4.18 4.18 0 0 0 7.33 7ZM9 11.03l1.1-.98c.93.04 2.92.28 2.92.98 0 .28-.52.56-1.52.56s-2.13-.32-2.5-.56Z" fill="#00AEEF"/></svg>