<!-- by TradingView --><svg width="18" height="18" viewBox="0 0 18 18" xmlns="http://www.w3.org/2000/svg"><path fill="#F0F3FA" d="M0 0h18v18H0z"/><path d="M4.37 6.7c0 .38-.3.7-.69.7A.69.69 0 0 1 3 6.7c0-.39.3-.7.68-.7.38 0 .69.31.69.7Zm1.47 0c0 .36-.29.65-.64.65a.65.65 0 0 1-.65-.66c0-.36.29-.65.65-.65.35 0 .64.3.64.65Zm.87.61c.33 0 .6-.28.6-.62a.61.61 0 0 0-.6-.61c-.34 0-.61.27-.61.61 0 .34.27.62.6.62Zm2.04-.62c0 .3-.24.54-.53.54a.54.54 0 0 1-.53-.54c0-.3.23-.54.53-.54.29 0 .53.25.53.54Zm.98.47c.25 0 .45-.21.45-.47 0-.25-.2-.46-.45-.46-.26 0-.46.2-.46.46s.2.47.46.47Zm1.93-.46c0 .23-.2.42-.42.42a.42.42 0 0 1-.42-.42c0-.24.19-.43.42-.43.23 0 .42.19.42.43Zm1.09.34c.19 0 .34-.15.34-.35 0-.19-.15-.34-.34-.34a.35.35 0 0 0-.35.34c0 .2.16.35.35.35Zm1.78-.35c0 .15-.12.28-.27.28a.27.27 0 0 1-.27-.28c0-.15.12-.27.27-.27.15 0 .27.12.27.27Zm1.24.24c.13 0 .23-.1.23-.23s-.1-.24-.23-.24-.23.1-.23.24c0 .13.1.23.23.23Zm-11.4 1.3c0 .38-.31.7-.69.7a.69.69 0 0 1-.68-.7c0-.38.3-.7.68-.7.38 0 .69.32.69.7Zm.83.66c.35 0 .64-.3.64-.66a.65.65 0 0 0-.64-.66c-.36 0-.65.3-.65.66 0 .36.29.66.65.66Zm2.11-.66c0 .34-.27.62-.6.62a.61.61 0 0 1-.61-.62c0-.34.27-.62.6-.62.34 0 .61.28.61.62Zm.9.54c.3 0 .54-.24.54-.54 0-.3-.24-.54-.53-.54-.3 0-.53.24-.53.54 0 .3.23.54.53.54Zm1.97-.54c0 .26-.2.47-.45.47a.46.46 0 0 1-.46-.47c0-.26.2-.46.46-.46.25 0 .45.2.45.46Zm1.06.43c.23 0 .42-.2.42-.43a.42.42 0 0 0-.42-.43c-.23 0-.42.2-.42.43 0 .24.19.43.42.43Zm1.85-.43c0 .2-.15.35-.34.35a.35.35 0 0 1-.35-.35.35.35 0 1 1 .69 0Zm1.17.27c.15 0 .27-.12.27-.27a.27.27 0 0 0-.27-.27.27.27 0 0 0-.27.27c0 .15.12.27.27.27ZM16 8.23c0 .13-.1.23-.23.23a.23.23 0 0 1-.23-.23.23.23 0 0 1 .46 0ZM3.68 10.46c.38 0 .69-.3.69-.7 0-.37-.31-.68-.69-.68a.69.69 0 0 0-.68.69c0 .38.3.7.68.7Zm2.16-.7c0 .37-.29.67-.64.67a.65.65 0 0 1-.65-.66c0-.36.29-.66.65-.66.35 0 .64.3.64.66Zm.87.63c.33 0 .6-.28.6-.62a.61.61 0 0 0-.6-.62c-.34 0-.61.28-.61.62 0 .34.27.62.6.62Zm2.04-.62c0 .3-.24.54-.53.54a.54.54 0 0 1-.53-.54c0-.3.23-.54.53-.54.29 0 .53.24.53.54Zm.98.46c.25 0 .45-.2.45-.46s-.2-.47-.45-.47c-.26 0-.46.21-.46.47s.2.46.46.46Zm1.93-.46c0 .24-.2.43-.42.43a.42.42 0 0 1-.42-.43c0-.24.19-.43.42-.43.23 0 .42.2.42.43Zm1.09.34c.19 0 .34-.15.34-.34 0-.2-.15-.35-.34-.35a.35.35 0 0 0-.34.35c0 .19.15.34.34.34Zm1.78-.34c0 .15-.12.27-.27.27a.27.27 0 0 1-.27-.27c0-.15.12-.28.27-.28.15 0 .27.13.27.28Zm1.24.23c.13 0 .23-.1.23-.23s-.1-.24-.23-.24-.23.1-.23.24c0 .13.1.23.23.23Zm-11.4 1.3c0 .39-.3.7-.69.7a.69.69 0 0 1-.68-.7c0-.38.3-.7.68-.7.38 0 .69.32.69.7Zm.83.66c.35 0 .64-.3.64-.65a.65.65 0 0 0-.64-.66c-.36 0-.65.3-.65.66 0 .36.29.65.65.65Zm2.11-.65c0 .34-.27.61-.6.61a.61.61 0 0 1-.61-.61c0-.35.27-.62.6-.62.34 0 .61.27.61.62Zm.9.54c.3 0 .54-.24.54-.54 0-.3-.24-.54-.53-.54-.3 0-.53.24-.53.54 0 .3.23.54.53.54Zm1.97-.55c0 .26-.2.47-.45.47a.46.46 0 0 1-.46-.47c0-.25.2-.46.46-.46.25 0 .45.2.45.46Zm1.06.43a.42.42 0 0 0 0-.85c-.24 0-.42.19-.42.43 0 .23.18.42.42.42Zm1.85-.43c0 .2-.15.35-.34.35a.35.35 0 0 1-.35-.35c0-.19.16-.34.35-.34.19 0 .34.15.34.34Zm1.17.28c.15 0 .27-.12.27-.28a.27.27 0 0 0-.27-.27.27.27 0 0 0-.27.27c0 .16.12.28.27.28ZM16 11.3c0 .13-.1.24-.23.24a.23.23 0 0 1-.23-.24c0-.13.1-.23.23-.23s.23.1.23.23Z" fill="#AF1889"/></svg>