<!-- by TradingView --><svg width="18" height="18" viewBox="0 0 18 18" xmlns="http://www.w3.org/2000/svg"><path fill="#F0F3FA" d="M0 0h18v18H0z"/><path d="M11.73 4.3c.55.37.76.79.76 1.52 0 .9-.5 1.33-2.27 1.98-.6.22-1.1.42-1.11.44-.58.7-.71 1.49-.36 2.11.46.83 1.37.92 2.56.25a5.27 5.27 0 0 0 2.53-2.88 2.77 2.77 0 0 0-2.14-3.64L11.3 4l.43.3Z" fill="#EBA300"/><path d="M9.32 4.43a13.03 13.03 0 0 0-5.06 5.77c-.33.79-.35 2.32-.04 2.88.53.97 1.97 1.23 2.77.5.48-.44.62-.92.72-2.57.06-.91.2-1.9.36-2.56.28-1.15 1.02-2.8 1.53-3.42l.58-.7c.24-.28.25-.31.06-.3-.1 0-.52.18-.92.4Z" fill="#010101"/></svg>