<!-- by TradingView --><svg width="18" height="18" viewBox="0 0 18 18" xmlns="http://www.w3.org/2000/svg"><path fill="#2BA1D3" d="M0 0h18v18H0z"/><path d="M12.67 12.87V4.82L9.64 3l-1.4.74.3.29v.18l-.54.4v.65l-.83-.97-1.67.97.3.17v.23l-.13.16V11l-.67.08v1.76h3.13v.02h4.54Z" fill="#FFFFFE"/><path fill-rule="evenodd" d="M9.34 13h-1V4.82l.52-.47v-.19h-.19v-.13l1.33-.7v.61l3 1.31V13h-.67v-1.58l-2-.29V13H10v-2l-.66.2V13Zm.66-2V4.36l.3.14V11H10Zm.67-6.37V11h.16V6H11v5h.33V6l.35.17v1.35l.17.15V11H12V8h.33v3h.34V5.47l-2-.84Z" fill="#ED1314"/><path d="M10.67 13H12v-1.38l-1.33-.16V13ZM7.67 11.06V13l-2.33-.18V11.4l2.33-.33ZM6 10.54v-5.2h-.15v-.2l1.48-.57v.7l1 .45v4.58l-.33.04v-4.5l-.67-.32v4.9l-.33.03V5.41l-.67-.24v5.37H6Z" fill="#ED1314"/><path fill="#FFFFFE" d="M4 12h10v2H4z"/></svg>