<!-- by TradingView --><svg width="18" height="18" viewBox="0 0 18 18" xmlns="http://www.w3.org/2000/svg"><path fill="#588E22" d="M0 0h18v18H0z"/><path d="M3 7h1l-.1.45c.3-.26.51-.45.92-.45C5.67 7 6 7.79 6 8.53c0 .97-.58 2.2-1.7 2.2-.44 0-.7-.2-.93-.58L3 12H2l1-5Zm.53 2.12c0 .4.2.88.65.88.67 0 .82-.95.82-1.49 0-.4-.09-.84-.54-.84-.66 0-.93.9-.93 1.45ZM6.17 10H7l-.17 1H6l.17-1ZM11.02 11H10l.08-.47c-.3.3-.5.47-.9.47C8.44 11 8 10.35 8 9.5 8 8.4 8.7 7 9.71 7c.46 0 .74.19.97.57L11.02 6H12l-.98 5ZM9 9.23c0 .44.14 1.03.53 1.03.62 0 .9-.82.9-1.45 0-.43-.19-1.08-.58-1.08-.62 0-.85.89-.85 1.5ZM15.92 9.32H13v.1c0 .46.42.85.9.85.37 0 .67-.18.88-.54l1.01.15A2.1 2.1 0 0 1 13.9 11C12.86 11 12 10.3 12 9.22 12 7.92 13.05 7 14.33 7 15.3 7 16 7.66 16 8.65c0 .25-.03.47-.08.67ZM15 8.69c0-.48-.3-.95-.8-.95-.54 0-.98.45-1.09.95H15Z" fill="#fff"/></svg>