<!-- by TradingView --><svg width="18" height="18" viewBox="0 0 18 18" xmlns="http://www.w3.org/2000/svg"><path fill="#F0F3FA" d="M0 0h18v18H0z"/><path d="M8.5 14.6h.04c.8-.02 1.56-.22 2.3-.61.48-.26.87-.51 1.25-.9a5.8 5.8 0 0 0 1.14-1.7 9.55 9.55 0 0 0 .45-1.38l-.02-.01h-3.08v-.01a.02.02 0 0 1-.02-.02l.28-.62h4.1c.02 0 .02 0 .02.02-.16 2-1.3 3.92-3.07 4.88a6.08 6.08 0 0 1-5.32.27A6.13 6.13 0 0 1 3.1 10.1a6.19 6.19 0 0 1 .28-3.17A6.02 6.02 0 0 1 9.8 3.07L5.58 13.22a.02.02 0 0 0 .01.01H7.9c.06 0 .07-.01.02-.05-.64-.45-.83-1.17-.75-1.94l.08-.47.15-.45a16778.4 16778.4 0 0 1 2.99-7.16c.7.19 1.38.47 1.98.87a5.63 5.63 0 0 1 2.24 3A7.46 7.46 0 0 1 14.98 9H8.95a.01.01 0 0 1-.01-.02l.22-.66.01-.02H13.85c.02 0 .03-.02.03-.04 0-.5-.05-.8-.2-1.29a5.91 5.91 0 0 0-1.18-2.14 4.31 4.31 0 0 0-1.7-1.27c-.02 0-.04 0-.05.03L7.8 10.72c-.06.14-.1.27-.11.38-.03.24-.03.46 0 .68.1.8.74 1.28 1.45 1.52.15.05.25.16.18.31-.05.1-.13.1-.25.1H5.8c-.1 0-.1.02-.02.07a6.4 6.4 0 0 0 1.3.65c.47.1.95.16 1.44.17ZM3.45 10.3a6.16 6.16 0 0 0 1.62 2.81l4.12-9.81c.01-.02 0-.04-.02-.04A5.95 5.95 0 0 0 4.02 6.2a5.6 5.6 0 0 0-.58 4.11Z" fill="#CE171F"/></svg>