<!-- by TradingView --><svg width="18" height="18" viewBox="0 0 18 18" xmlns="http://www.w3.org/2000/svg"><path fill="url(#aqakvxrih)" d="M0 0h18v18H0z"/><path d="M6.04 5.34s.28 1.82 3.19.16C12 3.9 15 6.65 15 6.65c-1.15-.28-3.18-1.92-5.96-.33-2.91 1.67-3-.98-3-.98" fill="#fff"/><path d="M4 6.46s.27 1.83 3.17.17c2.76-1.6 5.5 1.12 5.5 1.12-1.34-.39-2.93-1.9-5.7-.3C4.09 9.12 4 6.46 4 6.46Z" fill="#62AF31"/><path d="M5.23 12H4.5l.59-3.89h.03c.24-.07.49-.1.74-.1h.05L5.99 8c.25 0 .5.1.74.27.1.08.2.2.26.36.06.15.1.33.1.51 0 .23-.05.46-.12.66-.08.2-.19.36-.32.48-.28.24-.6.37-.92.37h-.07l-.2-.01h-.02L5.24 12Zm.73-3.2h-.03l-.22.02-.15 1 .16.01h.03c.29 0 .59-.21.59-.62l-.03-.18a.3.3 0 0 0-.08-.13.44.44 0 0 0-.27-.1ZM9.76 9.02l.23-.8-.05-.04A1.6 1.6 0 0 0 9.13 8c-.48-.02-.96.18-1.36.56-.2.2-.35.46-.47.78-.1.3-.16.65-.16 1 0 .24.03.48.1.7.07.2.17.39.3.53.3.3.66.46 1.03.43.33-.01.66-.08.98-.22l.03-.01.33-2.1H8.7l-.13.78h.47l-.1.66a.7.7 0 0 1-.29.05c-.46 0-.71-.28-.72-.87 0-.23.04-.46.11-.66s.18-.37.3-.5c.23-.2.48-.3.74-.28.21 0 .42.04.62.15l.05.02ZM12.76 9.02l.23-.8-.04-.04a1.6 1.6 0 0 0-.82-.18c-.48-.02-.95.18-1.36.56-.2.2-.35.46-.46.78-.11.3-.17.65-.17 1 0 .24.03.48.1.7.07.2.17.39.3.53.3.3.66.46 1.03.43.33-.01.66-.08.98-.22l.03-.01.33-2.1h-1.2l-.13.79h.47l-.1.65a.7.7 0 0 1-.28.05c-.46 0-.72-.28-.72-.87 0-.23.03-.45.1-.66.08-.2.18-.37.3-.5.23-.2.49-.3.74-.28.22 0 .43.04.62.15l.05.02Z" fill="#fff"/><defs><linearGradient id="aqakvxrih" x1="0" y1="9" x2="18" y2="9" gradientUnits="userSpaceOnUse"><stop stop-color="#020E3E"/><stop offset=".44" stop-color="#013370"/><stop offset="1" stop-color="#013472"/></linearGradient></defs></svg>