<!-- by TradingView --><svg width="18" height="18" fill="none" xmlns="http://www.w3.org/2000/svg"><path fill="#F0F3FA" d="M0 0h18v18H0z"/><path fill-rule="evenodd" clip-rule="evenodd" d="M9 14.5a5.5 5.5 0 1 0 0-11 5.5 5.5 0 0 0 0 11Zm0 .5A6 6 0 1 0 9 3a6 6 0 0 0 0 12Z" fill="#0F0E9F"/><path d="m8 8.02 1.012-4.667 1.02 4.667 4.615.98-4.615 1.018-1.02 4.629L8 10.018 3.353 9l4.646-.979Z" fill="#0F0E9F"/><path d="m8.375 8.388.633-2.917.637 2.917 2.884.611-2.884.638-.637 2.892-.633-2.892-2.904-.638 2.904-.611Z" fill="#DF0024"/><path d="m8.702 8.709.301-1.12.357 1.12 1.052.29-1.078.327-.33 1.086-.329-1.086L7.588 9l1.114-.291Z" fill="#F8F400"/></svg>