<!-- by TradingView --><svg width="18" height="18" viewBox="0 0 18 18" xmlns="http://www.w3.org/2000/svg"><path fill="#F0F3FA" d="M0 0h18v18H0z"/><path d="M7.39 5.41a4.84 4.84 0 0 1 3.22 0l.03-.14a4.99 4.99 0 0 0-3.28 0c0 .05.01.1.03.14Zm-.32.12a2 2 0 0 1-.03-.14 5 5 0 1 0 3.92 0 2 2 0 0 1-.03.14 4.86 4.86 0 1 1-3.86 0Z" fill="#2E5A53"/><path d="M9 6.66c.6 0 1.13-.32 1.42-.8a4.55 4.55 0 0 0-2.9-.09c.29.53.84.89 1.48.89Zm-4.7 3.48c0-1.94 1.2-3.6 2.91-4.26a2 2 0 0 0 3.53.1 4.56 4.56 0 1 1-6.45 4.16Zm2.75 3.6c0 .14.02.22.07.26h3.86a.56.56 0 0 0 .01-.26c0-.13-.01-.19-.04-.19-.23 0-.79-.12-.91-.32-.06-.18-.05-.45-.05-.8L10 12l.04-4L7 8.5V9s1-.5 1 .5v2.79c0 .77 0 1.26-.88 1.26-.05 0-.07.06-.07.2Z" fill="#226F5F"/><path d="M8.59 6.6a4.56 4.56 0 0 1 1.2-.14c.26-.14.48-.35.63-.6a4.55 4.55 0 0 0-2.9-.09c.23.41.61.72 1.07.84Zm-.5.17c-.38-.2-.69-.5-.88-.89a4.56 4.56 0 0 0-1.11 7.9 4.55 4.55 0 0 1 1.98-7ZM10.73 6a2 2 0 0 1-.43.5c.81.11 1.56.43 2.18.9a4.58 4.58 0 0 0-1.75-1.4Z" fill="#74757A"/><path d="M10.67 4.99a1.67 1.67 0 1 1-3.34 0 1.67 1.67 0 0 1 3.34 0Zm-1.45 2H9a2 2 0 1 1 .22 0Z" fill="#246D5F"/></svg>