<!-- by TradingView --><svg width="18" height="18" viewBox="0 0 18 18" xmlns="http://www.w3.org/2000/svg"><path fill="#F0F3FA" d="M0 0h18v18H0z"/><path d="M6.86 11.08 4.36 14h9.28l-2.5-2.75-.53 1.03L9 9.02l-1.6 3.26-.54-1.2Z" fill="#9A612A"/><path d="M4.18 9.53c.28.96 1.55 1.55 2.14 1.72l.72-.69.35 1.03.9-1.72c-.78-.28-2.5-1-3.22-1.54a1.57 1.57 0 0 1-.53-1.72C4.36 6.9 4 7.6 4 8.16s.71 1.26 1.07 1.54a3.6 3.6 0 0 1-.9-.17Z" fill="url(#armooss2v)"/><path d="M4.9 6.44c0 1.65 1.06 2.29 1.6 2.4-.86-.55-.95-1.37-.9-1.72.15 1.1 1.85 2.07 2.68 2.41L9 8.33l1.6 3.26c.12-.23.36-.92.36-1.89 0-1.2-1.6-2.4-1.25-3.43.29-.83.96-.92 1.25-.86-.14-.42-.77-.4-1.07-.35-.06-.11-.25-.34-.53-.34-.36 0-.9.17-1.25.17-.29 0-.6-.11-.72-.17.14.55.78.69 1.07.69-.12.11-.35.44-.35.86 0 .51.35.85.35 1.2 0 .27-.12.69-.18.86-.65-.4-2-1.51-2.14-2.75-.14-1.24.42-2.3.72-2.58-.66.4-1.97 1.79-1.97 3.44Z" fill="url(#brmooss2v)"/><path d="M11.86 5.92c-.15.83-1.02 1.6-1.43 1.9.28.54.6 1.25.71 1.54.29-.14.95-.63 1.25-.86-.14.55-.77 1.03-1.07 1.2 0 .42-.12.86-.18 1.03l.18.18c.48-.52 1.5-1.9 1.79-3.27a3.9 3.9 0 0 0-.54-2.92 4.32 4.32 0 0 1-1.07 3.44c.43-.83.42-1.84.36-2.24Z" fill="url(#crmooss2v)"/><path d="M14 8.16a3.1 3.1 0 0 1-1.07.86c-.14.82-1.01 1.83-1.43 2.23 1.43-.55 2.26-2.3 2.5-3.1Z" fill="url(#drmooss2v)"/><defs><linearGradient id="armooss2v" x1="4" y1="7.47" x2="7.61" y2="11.22" gradientUnits="userSpaceOnUse"><stop stop-color="#FFB200"/><stop offset="1" stop-color="#BA261A"/></linearGradient><linearGradient id="brmooss2v" x1="5.07" y1="4.72" x2="10.54" y2="11.28" gradientUnits="userSpaceOnUse"><stop stop-color="#D27C19"/><stop offset=".47" stop-color="#BD1719"/><stop offset="1" stop-color="#B71628"/></linearGradient><linearGradient id="crmooss2v" x1="12.75" y1="4.89" x2="11.25" y2="9.91" gradientUnits="userSpaceOnUse"><stop stop-color="#E28C1C"/><stop offset="1" stop-color="#D42924"/></linearGradient><linearGradient id="drmooss2v" x1="13.46" y1="8.84" x2="11.94" y2="11.13" gradientUnits="userSpaceOnUse"><stop stop-color="#DA8C2D"/><stop offset="1" stop-color="#BC271B"/></linearGradient></defs></svg>