<!-- by TradingView --><svg width="18" height="18" viewBox="0 0 18 18" xmlns="http://www.w3.org/2000/svg"><path fill="#F0F3FA" d="M0 0h18v18H0z"/><path d="M10.55 10.56c1.87.9 3.34.1 3.68-.68.34-.79-.33-1.78-2.05-1.68-1.94.12-4.36 2.4-4.36 2.4s2.75-1.87 4.6-1.72c1.51.13 1.4 1.07.68 1.58-.93.64-2.55.1-2.55.1Z" fill="#00A4C5"/><path d="M14.17 10.42s1.1-1.06.07-2.2c-.67-.72-1.66-.82-2.62-.64-.84.16-1.43.5-1.94.9-.91.66-1.49 1.62-2.85 2.19-2.15.87-3.5-.14-3.66-1.1-.1-.63.48-1.38 1.55-1.3 0 0-.27-.15-.61-.13a.98.98 0 0 0-.87.6c.1-.55.56-.71.56-.71-.58-.12-.8-.67-.8-.67s.9.58 1.42.48c.65-.12.98.23 1 .47.25.2.48.46.48.46s-.55-.34-.89-.39c-.94-.14-1.68.54-1.53 1.18.22.95 1.47 1.34 2.84.83C7.49 10 8.2 8.8 9.34 7.92a4.52 4.52 0 0 1 2.03-1.02c.73-.15 2.44-.18 3.3 1 .97 1.35-.5 2.52-.5 2.52Z" fill="#065F97"/><path d="m8.43 7.08.09-.07c1.56-1.35 3.82-1.3 5.05-.1 0 0-.83-.69-2.62-.44-.6.08-1.12.36-1.6.72-1.03.69-1.88 1.76-2.41 2.22-.78.67-1.65 1.13-2.62.71-.7-.3-.67-.9-.67-.9.17.57.78.9 1.53.77.92-.18 2.02-1.84 3.16-2.82l.1-.09Z" fill="#065F97"/></svg>