<!-- by TradingView --><svg width="18" height="18" viewBox="0 0 18 18" xmlns="http://www.w3.org/2000/svg"><path fill="#F0F3FA" d="M0 0h18v18H0z"/><path d="M8.18 4.16c-.12-.19-.25-.2-.42-.06-.08.02-.12.08-.13.15 0 .02 0 .03.03.03.13 0 .25 0 .36-.04a.7.7 0 0 0 .16-.08ZM8.42 4.42c0 .09.03.17.07.17.05 0 .08-.08.08-.18 0-.1-.04-.17-.08-.17s-.08.08-.07.18ZM8.14 4.54l.02-.1c.05-.15.1-.14.12 0l.01.17v.04l-.03.03a.1.1 0 0 1-.08.02.53.53 0 0 1-.31-.2.02.02 0 0 1 0-.02h.01l.03-.02a.05.05 0 0 1 .07.01l.06.1.02.01a.06.06 0 0 0 .07 0l.01-.04ZM8.8 4.52l.39.08c.07.02.08.04 0 .06l-.2.09a.83.83 0 0 1-.28.08c-.21 0-.23-.07-.05-.18a.5.5 0 0 0 .08-.1s.01-.02.03-.02h.04ZM7.76 4.76l-.22-.1a.13.13 0 0 1-.06-.04.12.12 0 0 1-.02-.06.5.5 0 0 0-.05-.18c-.01-.03-.04-.04-.07-.02a.47.47 0 0 0-.27.26c-.01.02 0 .04.02.05l.4.16a11.08 11.08 0 0 1 .56.1c.06-.01.07-.03 0-.06l-.29-.1ZM9.37 5.27v.01H9.3a.08.08 0 0 1-.02-.02.1.1 0 0 1-.02-.03v-.31l.01-.03a.1.1 0 0 1 .02-.03l.03-.02.03-.01h.01a.02.02 0 0 1 .01 0v.44ZM6.65 5.04v-.02a.23.23 0 0 1 .3-.1l.07.06a.2.2 0 0 1 .03.23.01.01 0 0 1-.02 0l-.38-.17ZM8.97 4.95h-.01c-.05 0-.09.03-.1.08l-.03.85c0 .04.03.08.08.08h.01c.05 0 .09-.03.1-.07l.03-.85c0-.05-.03-.09-.08-.09ZM8.56 4.98h-.12c-.08 0-.15.06-.15.13l-.03.77c0 .07.06.14.14.14h.12c.08 0 .15-.05.15-.13l.03-.77c0-.07-.06-.13-.14-.14ZM8.04 5.07a.08.08 0 0 1 .06.02l.01.02v.02l.02.38c0 .08 0 .15-.03.2-.02.07-.05.1-.08.1h-.1l-.04-.02a.2.2 0 0 1-.03-.06.74.74 0 0 1-.04-.21l-.01-.38v-.03l.02-.02.02-.01h.03l.17-.01Z" fill="#564644"/><path d="M9.97 5.53c.16.04.34-.2.46-.26.08-.04.14-.02.16.06l.08.22v.11a.2.2 0 0 1-.07.1c-.31.23-.57.43-.97.5-.2.02-.44-.03-.64 0a.14.14 0 0 0-.06.02c-.26.17-.62.1-.92.04-.2-.03-.39.02-.55 0-.2 0-.55-.03-.7-.2a.9.9 0 0 0-.27-.2c-.33-.16-.54-.4-.4-.75 0-.02.01-.03.04-.04.34-.01.59.13.95.32l.7.42c.3.2.69.37 1.05.32.33-.05.56-.44.61-.72l.01-.02.02-.02a.07.07 0 0 1 .05 0c.15.02.3.05.45.1ZM6.26 5.95h.01v.01l.04.15a6.2 6.2 0 0 1 .14.68c0 .04 0 .06-.02.06s-.03 0-.05-.04a3.83 3.83 0 0 1-.24-.66L6.1 6v-.01l.16-.04ZM10.14 7.9c.07-.17.15-.38.2-.62.07-.43.12-.82.13-1.18 0-.08.05-.13.14-.14l.05-.01c.05-.02.08 0 .08.06 0 .28-.06.6-.16.94a9.5 9.5 0 0 1-.45 1.18 3.58 3.58 0 0 0-.16.25h-.02l-.01-.02.2-.46Z" fill="#564644"/><path d="M7.55 8.51c.15 0 .3-.01.44-.06.12-.03.38.08.5.15.11.07.25.07.39.04.24-.04.5 0 .79.07.43.12.8-.87.9-1.12a.17.17 0 0 1 .04-.07.2.2 0 0 1 .09-.04l.9-.18a.78.78 0 0 1 .24-.02l1.7.16a.9.9 0 0 1 .35.1l.02.03a.06.06 0 0 1 0 .06l-.02.02c-.64.37-1.2.66-1.66.87-.37.16-.64.14-1.03.17-.06 0-.16.06-.3.16-.08.06-.22.1-.44.14-.68.13-1.3.18-1.91-.13a.78.78 0 0 0-.37-.03c-.53.09-1.02.09-1.45 0-.13-.04-.28-.1-.43-.23a5.19 5.19 0 0 0-.62-.41c-.16-.09-.26-.02-.4.07a.1.1 0 0 1-.05.01c-.13-.01-.27-.05-.37-.08a.68.68 0 0 1-.47-.43l-.23-.57a.25.25 0 0 1 0-.2l.2-.5c.01-.03.03-.04.05-.06a.13.13 0 0 1 .06-.02c.42-.03.8-.1 1.16-.25a.85.85 0 0 0 .21-.15h.07v.03c.06.34.18.64.37.92.14.22.24.42.35.65.04.06.06.11.07.17.04.14.04.32.25.38.2.06.36.16.49.3.03.03.06.05.1.05Z" fill="#564644"/><path d="M6.59 6.23c.27.22.4.21.8.26.03 0 .05.02.07.04a.1.1 0 0 1 .03.07v1.49c0 .1-.05.14-.16.08l-.25-.13a.32.32 0 0 1-.18-.25c-.04-.24-.23-.44-.24-.73-.02-.3-.05-.51-.1-.8-.02-.04 0-.05.03-.03ZM8.77 8.45a5.15 5.15 0 0 0 .46-1.99l.04-.01a2.17 2.17 0 0 0 .95-.2h.03l.01.02v.03c-.02.42-.07.75-.12.99-.09.4-.27.78-.47 1.2l-.02.02H9.6a2.5 2.5 0 0 0-.84-.03v-.03ZM7.84 6.46c.03 0 .06 0 .08.02a.1.1 0 0 1 .06.03c.01.02.02.04.01.06L7.84 8.3c0 .02-.01.03-.03.04h-.08l-.08-.01c-.02-.01-.03-.02-.03-.04l.05-1.72.02-.06a.1.1 0 0 1 .06-.03h.09ZM9.04 6.58a9 9 0 0 1-.3 1.55.88.88 0 0 1-.16.28.08.08 0 0 1-.03.03H8.5l-.44-.15c-.02-.01-.03-.02-.03-.04a16.49 16.49 0 0 1 .17-1.72 1.35 1.35 0 0 0 .81-.08h.02l.02.02v.11ZM5.5 8.45c.13.56.3 1.13.56 1.66.1.21.16.35.17.4a11.93 11.93 0 0 1 .26 1.79h-.03c-.04 0-.06-.03-.07-.07a3.89 3.89 0 0 0-1.08-1.66c-.11-.1-.13-.26-.2-.47-.05-.13-.24-.3-.25-.4a.85.85 0 0 0-.13-.44l-.54-.76A.87.87 0 0 1 4 8.02l.01-.55c0-.05.02-.05.04 0 .09.16.16.32.22.49.07.18.26.28.48.37.23.1.47.13.7.1h.04l.02.02ZM13.89 7.84a.08.08 0 0 1 .1.03l.01.03c0 .8-.05 1.64-.2 2.52-.15.83-.25 1.31-.28 1.45-.07.28-.1.48-.1.6 0 .35-.02.73-.21 1.02a.87.87 0 0 1-.31.24c-.4.21-.6.39-1.1.17a3.17 3.17 0 0 0-1.33-.32c-.12 0-.26.05-.38.07h-.01l-.01-.01-.01-.02v-.01c.22-.3.4-.65.55-1.02.15-.37.28-.7.37-1.02a25.1 25.1 0 0 0 .64-2.69.11.11 0 0 1 .05-.03c.23-.04.45-.1.67-.2.54-.25 1.06-.52 1.55-.8Z" fill="#564644"/><path d="M7.16 12.66c-.13-.15-.26-.12-.43-.14a.08.08 0 0 1-.05-.03.06.06 0 0 1-.01-.04v-.37l-.15-1.1c-.03-.2-.1-.52-.2-.75a12.51 12.51 0 0 1-.62-1.79h.01c.04 0 .08 0 .11.03l.44.33c.27.2.54.22.92.25a4.07 4.07 0 0 0 1.06-.06l.03.01.02.03.01.03.12 1.8c.03.49.06 1-.12 1.47a73.77 73.77 0 0 1-.4.87h-.04c-.36-.1-.48-.27-.7-.54Z" fill="#564644"/><path d="M9 9.2c.43.07.91.06 1.46-.02.27-.05.48-.13.65-.27a.43.43 0 0 1 .26-.09h.03l.02.03.01.02v.03c-.1.42-.2.93-.32 1.52l-.33 1.2a5.68 5.68 0 0 1-.97 2.01.1.1 0 0 1-.07 0 .09.09 0 0 1-.03-.01 1.45 1.45 0 0 0-1.23-.4 31.14 31.14 0 0 0-.35.03l-.01-.02v-.02c0-.02 0-.05.02-.09l.27-.61c.2-.41.2-.71.18-1.2a30.3 30.3 0 0 0-.12-2.32.04.04 0 0 1 .05 0c.16.1.28.18.49.21Z" fill="#564644"/></svg>