<!-- by TradingView --><svg width="18" height="18" viewBox="0 0 18 18" xmlns="http://www.w3.org/2000/svg"><path fill="#F0F3FA" d="M0 0h18v18H0z"/><path d="M3.76 5a.75.75 0 0 0-.76.73v6.54c0 .4.34.73.76.73H5V8.41C5.15 7.4 6.02 6 9.04 6 11.96 6 13 7.59 13 8.63c0 .25-.06.5-.14.7.73.41 1.5 1.34 1.98 3.39.1-.13.16-.28.16-.45V5.73c0-.4-.34-.73-.76-.73H3.76ZM7 13h1.3c.01-1.11-.23-2.86-1.3-3.03V13Zm0-3.03c.11-.07.43-.22.83-.22.5 0 1.8.39 2.31 3-.03-1.03-.37-3.08-1.48-3 .06-.13.34-.38.97-.38.78 0 2.12.82 2.63 3.39.01-1.16-.33-3.45-1.79-3.37.05-.09.2-.22.48-.3.03-.12.05-.26.05-.42 0-.89-1.27-1.27-2-1.27-1.7 0-1.95.84-2 1.15v1.42Z" fill="#1794FE"/></svg>