<!-- by TradingView --><svg width="18" height="18" viewBox="0 0 18 18" xmlns="http://www.w3.org/2000/svg"><path fill="#F0F3FA" d="M0 0h18v18H0z"/><path d="M7.5 8v6H9V3h-.14v2.48c-.99.75-1.32 2-1.36 2.52Z" fill="url(#a)"/><path d="M9.03 4.94C6.6 4.94 5 6.87 4.5 7.84c2.35-2.88 5.83-2.75 7.04-1.3 1.21 1.44.65 2.9-.57 4.35-.98 1.15-3.19 1.45-4.17 1.46 5.04.38 6.2-2.8 6.2-4.04 0-1.26-.94-3.37-3.97-3.37Z" fill="#FF7F26"/><path d="M9.4 14V7.28A4.36 4.36 0 0 0 7.5 6.2V6A4.45 4.45 0 0 1 11 9.68V14H9.4Z" fill="url(#b)"/><defs><linearGradient id="a" x1="8.25" y1="3" x2="8.25" y2="14" gradientUnits="userSpaceOnUse"><stop stop-color="#2896D3"/><stop offset="1" stop-color="#19519F"/></linearGradient><linearGradient id="b" x1="9.25" y1="6" x2="9.25" y2="14" gradientUnits="userSpaceOnUse"><stop stop-color="#2A9BD7"/><stop offset="1" stop-color="#19509F"/></linearGradient></defs></svg>