<!-- by TradingView --><svg width="18" height="18" viewBox="0 0 18 18" xmlns="http://www.w3.org/2000/svg"><path fill="#F0F3FA" d="M0 0h18v18H0z"/><path fill-rule="evenodd" d="M10.98 3.28c-.5-.14-1-.23-1.51-.28h-.42a25.57 25.57 0 0 1-1.61.24c-.22.05-.43.12-.63.2l-.66.35-.04.02-.25.16-.24.15a2.58 2.58 0 0 0-.55.4.94.94 0 0 0-.18.27.5.5 0 0 1-.12.17l-.1.08a.83.83 0 0 0-.19.17.83.83 0 0 1-.12.12l-.16.19-.12.15c-.2.27-.36.5-.46.69-.07.14-.13.28-.16.42L3.1 8.32l-.08.5-.01.09v.4l.03.2c.04.21.06.37.06.48.01.46.11.87.29 1.24a7.49 7.49 0 0 0 2.7 3.04 4.2 4.2 0 0 0 1.6.47c.11 0 .25.04.4.08.35.1.86.15 1.53.17.04 0 .13-.02.24-.06a.1.1 0 0 1 .05 0l.35.07h.28c.02 0 .06 0 .11-.02.2-.03.36-.06.46-.1.18-.05.27-.13.26-.22 0-.04.02-.06.06-.06l.62-.02c.04 0 .08-.02.11-.05a.08.08 0 0 1 .05-.03l.23-.03c.02 0 .03 0 .04-.02a.36.36 0 0 0 .03-.1c0-.06.01-.1.03-.12a.46.46 0 0 1 .12-.14c.22-.12.4-.27.55-.44.07-.07.05-.1-.05-.1a.53.53 0 0 0-.12.04.65.65 0 0 1-.22.04c-.02 0-.03 0-.04-.03-.03-.05-.01-.1.04-.13.03-.02.1-.05.18-.07a.68.68 0 0 0 .15-.06 3.06 3.06 0 0 0 .93-1.25c.04-.1.1-.22.18-.33.17-.27.32-.58.42-.91.19-.57.3-1.15.33-1.75v-.58c-.03-.32-.08-.59-.13-.79a2.69 2.69 0 0 0-.3-.75c-.03-.06-.04-.17-.01-.32.01-.07-.02-.17-.1-.31a17.53 17.53 0 0 0-1-1.48 1.73 1.73 0 0 0-.37-.29l-.32-.23a5.46 5.46 0 0 0-1.8-1.07Zm.98 1.9.18.15c.05.05.1.12.14.19l.08.12c.09.17.16.28.23.35.1.1.22.22.39.35a5.47 5.47 0 0 1 .7 2.7c0 .5-.13 1.03-.4 1.61-.03.06-.09.12-.2.18a.6.6 0 0 0-.12.1c-.11.1-.21.14-.3.14a49.89 49.89 0 0 1-1.45-.07c-.36.1-.73.15-1.1.13a.74.74 0 0 1-.27-.07c-.05-.02-.06-.06-.04-.1.03-.12.15-.21.33-.3a.4.4 0 0 0 .12-.11c.04-.05.08-.06.14-.04l.08.03.23.08c.07.01.15.02.23.01.02 0 .04 0 .05-.02l.05-.07c.03-.04.06-.05.1-.03.2.1.4.1.59.02.07-.03.11-.07.13-.13a.6.6 0 0 0 0-.19c0-.08-.02-.13-.06-.17a.82.82 0 0 0-.27-.13 1.2 1.2 0 0 0-.24-.03l-.14-.01c-.1 0-.17-.07-.2-.17l-.01-.08c-.02-.1.03-.16.14-.17l.22-.01c.01 0 .03-.01.03-.03.08-.13.19-.18.33-.14.13.03.38.05.73.06.13 0 .23-.02.32-.08l.17-.1c.1-.06.22-.1.34-.16.19-.1.25-.21.19-.36-.04-.1-.14-.21-.3-.35a.79.79 0 0 0-.36-.13l-.12-.03a.63.63 0 0 0-.24 0l-.95.07-.22-.04c-.08-.02-.14-.08-.18-.2a.8.8 0 0 1-.04-.28c0-.02 0-.03.02-.05a.64.64 0 0 1 .2-.16c.04-.02.07-.01.09.02.1.16.24.2.42.13.1-.04.26-.14.46-.3a.6.6 0 0 1 .16-.07c.14-.05.23-.12.28-.21.05-.1.06-.22 0-.36a.83.83 0 0 0-.3-.43 4.85 4.85 0 0 1-.75-.65.62.62 0 0 0-.23-.12.94.94 0 0 1-.12-.05 2.28 2.28 0 0 0-.23-.12 1.16 1.16 0 0 0-.47-.2.84.84 0 0 0-.5.13c-.06.03-.1.07-.11.11-.02.07-.02.12 0 .16l.12.08c.05.03.1.06.11.08.11.1.12.2.01.3a.36.36 0 0 1-.15.07.34.34 0 0 1-.17 0A.06.06 0 0 1 9.79 6a.92.92 0 0 0-.35-.5c-.16-.12-.3-.2-.42-.24A1.62 1.62 0 0 1 8.47 5c-.12-.1-.19-.15-.22-.16-.29-.14-.64-.06-1.07.23-.11.08-.2.17-.27.26a.48.48 0 0 0-.06.24c0 .07-.02.12-.03.16 0 .02-.02.03-.03.04-.24.19-.45.34-.64.46-.17.11-.38.25-.62.43a.3.3 0 0 0-.12.14.9.9 0 0 0-.05.18c0 .14.02.3.07.46.03.1.09.19.16.26l.04.04c.1.1.17.17.23.21.1.07.18.1.25.1.18 0 .35.04.52.14h.04l.47-.03c.05 0 .08-.02.1-.07l.06-.25a.1.1 0 0 1 .02-.05.48.48 0 0 1 .1-.08l.2-.1c.09-.05.2-.04.35.02.02 0 .03.02.02.04a.78.78 0 0 1-.11.2c-.08.06-.2.16-.4.29a.8.8 0 0 0-.2.16.81.81 0 0 1-.41.28 2.44 2.44 0 0 1-.58.06c-.41.01-.78-.03-1.11-.12a.12.12 0 0 0-.1 0c-.2.11-.26.28-.16.49l.15.37c.01.04.05.07.11.1.1.03.17.08.22.14.2.27.5.41.87.45.05 0 .13-.02.24-.08a.63.63 0 0 1 .2-.08c.1-.01.2-.04.26-.06.3-.11.6-.15.92-.12.06 0 .1.05.11.12.01.07 0 .13-.03.18-.02.04-.07.06-.15.08-.18.05-.31.08-.39.08l-.58.02c-.1 0-.18.02-.23.05a3.1 3.1 0 0 0-.22.17.12.12 0 0 0-.05.09c0 .04.01.07.04.1.11.12.2.25.29.39.03.06.1.09.18.08h.05c.35-.02.53.03.55.14 0 .08 0 .14-.03.19a11.86 11.86 0 0 0-.67.2c-.12.04-.28.04-.49 0a18.8 18.8 0 0 0-1.03-.17c-.1-.01-.22-.09-.35-.22a1.83 1.83 0 0 1-.52-1.19l-.05-.43a4.05 4.05 0 0 1 .33-2.15c.02-.04.04-.17.06-.37 0-.06.02-.12.03-.16l.03-.08.05-.13a7.2 7.2 0 0 1 .84-1.07l.3-.2h.01c.15-.1.3-.23.42-.42a.04.04 0 0 1 .05-.02h.07a.1.1 0 0 0 .05-.02 1.6 1.6 0 0 1 .3-.26 2.47 2.47 0 0 1 .93-.28c.44-.1.92-.17 1.45-.2.24-.02.49 0 .76.08l.54.16c.2.07.47.17.8.32l.34.18.28.16Zm-2.8 1.95a.1.1 0 0 1-.05.06.1.1 0 0 1-.07.02l-.1-.03a.46.46 0 0 1-.23-.1c-.05-.06-.07-.12-.06-.17V6.9c.01-.06.06-.1.13-.12a.46.46 0 0 1 .25 0l.1.02a.1.1 0 0 1 .07.04.1.1 0 0 1 0 .08l-.04.21Zm1.13 1.23a.37.37 0 0 0 .02-.16c0-.02 0-.04-.02-.05l-.17-.12a.07.07 0 0 0-.05-.02l-.54.07a.09.09 0 0 0-.06.03c-.11.13-.29.22-.52.28-.05.02-.08.05-.08.1 0 .03.01.05.04.05.08.02.16.02.24 0 .1-.05.25-.1.43-.15.06-.02.17 0 .33.04l.1.02c.07.02.13.02.16 0 .06-.02.1-.05.12-.1Zm-.26 1.24a.46.46 0 0 0-.07-.03.04.04 0 0 1-.02-.04l.01-.03.21-.17h.05c.03.04.06.09.08.15l-.01.05c-.1.1-.19.12-.25.07Zm1.32 3.29c.04 0 .1-.03.18-.08.16-.08.3-.22.4-.4.03-.07.02-.12-.03-.17l-.04-.03c-.25-.21-.41-.31-.5-.3h-.67c-.03 0-.12.01-.28.06-.08.03-.2.04-.35.05h-.13c-.09.01-.16.06-.2.15-.06.12-.05.22.03.3l.22.23c.07.05.19.1.35.12l.1.02.2.02.72.03Zm-4.74.15c-.2-.04-.27-.12-.21-.24a.7.7 0 0 1 .27-.25c.06-.04.18-.06.35-.06.12 0 .2 0 .26-.02l.08-.03a.58.58 0 0 1 .32-.03l.22.06c.07.03.12.08.16.14l.01.05v.06c-.01.1 0 .18.04.23l.37.36c.03.03.12.06.25.09.02 0 .04 0 .05.02a.7.7 0 0 0 .23.16c.05.02.15.03.29.05h.04c.05.01.07.04.05.08l-.02.03a.13.13 0 0 1-.1.07l-.85.06c-.02 0-.04-.01-.04-.04-.01-.1-.07-.15-.19-.16-.3 0-.6-.02-.92-.04a.48.48 0 0 1-.27-.11 1.78 1.78 0 0 1-.29-.3.1.1 0 0 1-.03-.06.24.24 0 0 0-.03-.1.06.06 0 0 0-.04-.02Z" fill="#00C4B4"/></svg>