<!-- by TradingView --><svg width="18" height="18" viewBox="0 0 18 18" xmlns="http://www.w3.org/2000/svg"><path fill="url(#ad3vd5dgx)" d="M0 0h18v18H0z"/><path d="m11.66 10.2 1 2.21.21-.23c.54-.65.9-1.42 1.05-2.25a5.03 5.03 0 0 0-7.85-4.98A4.93 4.93 0 0 0 4.04 8.4a4.91 4.91 0 0 0 1.3 4.03s.02.03.04.01l1.8-3.9 1.89-4.1 2.6 5.77Zm-1.17.15L9.05 7.1l-2.8 6.08a4.99 4.99 0 0 0 5.5 0c-.43-.94-.85-1.89-1.26-2.83Z" fill="#27AAE1"/><defs><linearGradient id="ad3vd5dgx" x1="3.35" y1="3.12" x2="21.9" y2="24.43" gradientUnits="userSpaceOnUse"><stop stop-color="#1A1E21"/><stop offset="1" stop-color="#06060A"/></linearGradient></defs></svg>