<!-- by TradingView --><svg width="18" height="18" viewBox="0 0 18 18" xmlns="http://www.w3.org/2000/svg"><path fill="#F0F3FA" d="M0 0h18v18H0z"/><path d="M5.85 8h-1.7a.15.15 0 0 1-.1-.05.16.16 0 0 1-.05-.1v-3.7c0-.03.02-.07.04-.1A.15.15 0 0 1 4.15 4h3.7c.04 0 .08.02.1.05.03.03.05.07.05.1v1.7c0 .03-.02.07-.04.1a.15.15 0 0 1-.11.05h-1.7a.15.15 0 0 0-.1.05.16.16 0 0 0-.05.1v1.7c0 .03-.02.07-.05.1a.15.15 0 0 1-.1.05Z" fill="#0139B2"/><path d="M8 7.8V6.23c0-.11.04-.23.14-.23 1.33 0 2.97-.08 3.97.13 1.29.27 1.96 1.43 1.88 2.69-.1 1.52-1.2 2.72-2.78 2.7H8.14c-.1 0-.14.03-.14.12v2.28l-.02.06a.06.06 0 0 1-.05.02H6.09a.09.09 0 0 1-.06-.03.1.1 0 0 1-.03-.07V8.18c0-.13.06-.18.17-.18H7.8c.12 0 .2-.08.2-.2Zm0 .34v1.38h3.14c.51 0 .97-.18.97-.7v-.05c0-.44-.58-.77-.97-.77H8.12c-.03 0-.06.02-.09.05a.14.14 0 0 0-.03.1Z" fill="#040101"/></svg>