<!-- by TradingView --><svg xmlns="http://www.w3.org/2000/svg" width="18" height="18" viewBox="0 0 18 18"><path fill="#F0F3FA" d="M0 0h18v18H0z"/><path d="M9.43 10.3c.2.08.4.13.61.16l.15.54h.66l.12-.54c.2-.03.4-.08.6-.16l.37.4.6-.33-.15-.54c.16-.13.3-.28.44-.44l.52.17.35-.6-.4-.38c.07-.2.13-.4.16-.6l.54-.12v-.7l-.54-.13c-.03-.2-.08-.4-.16-.6l.4-.37-.33-.6-.54.15c-.13-.16-.28-.3-.44-.44l.17-.52-.6-.35-.38.4c-.2-.07-.4-.13-.6-.16L10.86 4h-.7l-.13.54c-.21.03-.42.09-.61.16l-.4-.39-.58.34.17.52c-.16.13-.31.28-.45.45l-.54-.14-.33.58.4.37c-.07.2-.12.4-.15.6L7 7.2v.66l.54.12c.03.21.09.42.16.61l-.39.4.34.58.52-.17c.13.16.28.31.45.45l-.14.54.58.33.37-.4Zm3.07-2.8a2 2 0 1 1-4 0 2 2 0 0 1 4 0Zm-7.62 5.84.1-.27a1.53 1.53 0 0 1-.56-.59l-.27.1-.15-.4.27-.1a1.55 1.55 0 0 1 .03-.77l-.26-.13.18-.38.26.12c.12-.2.29-.35.48-.47l-.11-.27.38-.17.12.27a1.5 1.5 0 0 1 .78-.02l.1-.26.4.16-.11.26c.24.14.44.35.57.6l.26-.1.15.4-.26.09a1.55 1.55 0 0 1-.03.8l.25.1-.18.4-.25-.12c-.12.19-.3.35-.49.47l.11.26-.38.17-.12-.26a1.5 1.5 0 0 1-.77 0l-.11.27-.4-.16Z" fill="#D93B20"/></svg>