<!-- by TradingView --><svg width="18" height="18" viewBox="0 0 18 18" xmlns="http://www.w3.org/2000/svg"><path fill="#F0F3FA" d="M0 0h18v18H0z"/><path d="M9.85 3.1a5.4 5.4 0 0 0-.24-.1 4.9 4.9 0 0 1 2.45 4.88 4.04 4.04 0 0 0-.63-2.37A4.4 4.4 0 0 0 9.5 3.87l-.2-.08c.68.35 1.24.88 1.62 1.52.37.64.53 1.37.48 2.1a3.9 3.9 0 0 0-.83-1.56 4.2 4.2 0 0 0-1.46-1.07l-.18-.08.27.16c.76.4 1.33 1.04 1.6 1.81.28.77.24 1.61-.1 2.36a3.4 3.4 0 0 1-1.75 1.69 3.7 3.7 0 0 1-2.5.15 1.11 1.11 0 0 0-1.17.22.99.99 0 0 0-.29.72.94.94 0 0 0 .35.7c.1.1.22.16.36.2v.02c1.33.42 2.79.35 4.07-.2a5.36 5.36 0 0 0 2.81-2.78c.53-1.22.55-2.6.04-3.83A5.34 5.34 0 0 0 9.86 3.1Z" fill="#C6168D"/></svg>