<!-- by TradingView --><svg width="18" height="18" viewBox="0 0 18 18" xmlns="http://www.w3.org/2000/svg"><path fill="url(#adcvxnj2t)" d="M0 0h18v18H0z"/><path d="M11.16 6.13a.91.91 0 0 0-.48.17c-.27.18-.49.43-.67.7a6.84 6.84 0 0 0-.6 1.06V8a3.1 3.1 0 0 1 .23-1.3c.23-.55.64-.99 1.17-1.26A4.44 4.44 0 0 1 13 5c-.19.12-.35.32-.47.5-.3.44-.5.92-.7 1.4-.12.34-.32.62-.58.85a2.99 2.99 0 0 1-1.55.67 9.84 9.84 0 0 1 .82-1.71c.15-.23.36-.5.63-.59h.01Z" fill="#33BF54"/><path d="M6.93 12.79a.53.53 0 0 1-.36.2c-.04.01-.1 0-.14 0L5 13l3.1-4L5 5h1.46l.14.01c.17.03.26.12.36.25L13 13h-1.76L9 10.13 6.93 12.8Z" fill="#89F55E"/><defs><linearGradient id="adcvxnj2t" x1="3.35" y1="3.12" x2="21.9" y2="24.43" gradientUnits="userSpaceOnUse"><stop stop-color="#1A1E21"/><stop offset="1" stop-color="#06060A"/></linearGradient></defs></svg>