<!-- by TradingView --><svg width="18" height="18" viewBox="0 0 18 18" fill="none" xmlns="http://www.w3.org/2000/svg">
<rect width="18" height="18" fill="#F0F3FA"/>
<path d="M14.9905 12.2311L14.9752 12.2366C14.9643 12.2404 14.9572 12.2373 14.9538 12.2274C14.8828 12.0233 14.8006 11.8229 14.7071 11.6261C14.4533 11.023 14.1307 10.4515 13.7392 9.91177C13.3585 9.38697 12.9769 9.01277 12.4592 8.565C11.6204 7.83989 10.4959 7.35791 9.317 7.27457C8.7049 7.13834 8.18418 7.05413 7.75485 7.02194C6.78356 6.94932 5.74255 6.98046 4.63183 7.11535C4.26201 6.43995 3.91664 5.75488 3.59571 5.06013C3.59491 5.0583 3.59459 5.05633 3.59478 5.05437C3.59497 5.05241 3.59567 5.05052 3.59681 5.04885C3.59796 5.04717 3.59952 5.04576 3.60138 5.04473C3.60323 5.04369 3.60533 5.04306 3.6075 5.04289C8.16675 4.72675 13.4478 6.11404 14.7071 10.6843C14.8522 11.2118 14.9467 11.7274 14.9905 12.2311Z" fill="#A4BB38"/>
<path d="M9.31682 7.27457C10.2996 7.58286 11.193 8.03034 11.997 8.61703C12.0878 8.68313 12.2461 8.80307 12.472 8.97685C13.4093 9.69795 14.1553 10.6378 14.7069 11.6261C14.8004 11.8229 14.8826 12.0233 14.9536 12.2274C14.957 12.2373 14.9642 12.2404 14.975 12.2366L14.9903 12.2311L14.9999 12.3553C15.0007 12.3656 14.9968 12.3743 14.9881 12.3814L14.864 12.4837C12.781 13.8385 10.2962 13.4086 8.4774 11.9354C6.82376 10.5964 5.63015 8.89466 4.63037 7.12139C4.6308 7.11928 4.63122 7.11727 4.63165 7.11535C5.74237 6.98046 6.78338 6.94933 7.75467 7.02194C8.184 7.05413 8.70471 7.13834 9.31682 7.27457Z" fill="#75AB42"/>
<path d="M4.6304 7.1214C5.63018 8.89467 6.82379 10.5964 8.47743 11.9354C10.2962 13.4086 12.781 13.8386 14.8641 12.4837C14.8481 12.533 14.8202 12.5769 14.7802 12.6154C13.0485 14.2869 10.6469 14.351 8.50804 13.3103C6.9392 12.547 5.52401 11.4436 4.33455 10.2489C3.36857 9.27893 2.71852 8.5883 2.00185 7.68471C2.00092 7.68352 2.00032 7.68214 2.0001 7.6807C1.99987 7.67926 2.00003 7.67779 2.00056 7.67642C2.00109 7.67504 2.00198 7.6738 2.00314 7.67279C2.00431 7.67179 2.00572 7.67104 2.00726 7.67062C2.8657 7.4225 3.74008 7.23943 4.6304 7.1214Z" fill="#B2E7F9"/>
</svg>
