<!-- by TradingView --><svg width="18" height="18" viewBox="0 0 18 18" xmlns="http://www.w3.org/2000/svg"><path fill="#F0F3FA" d="M0 0h18v18H0z"/><path d="M11.18 6.49C8.76 3.69 6.05 3 5 3c.6.42 1.87 1.78.82 4.57-1.04 2.78-.82 4.02-.18 5.22a3.97 3.97 0 0 0 5.06 1.79c2.32-.9 3.52-4.6.48-8.1Z" fill="#00873A"/><path d="M6.04 14.71c.49.52 1.39.22 1.78 0a3.9 3.9 0 0 1-1.37-.96c.16-.5.76-1.44 1.05-1.85l.32.52 1.95-4.04c-1.16.29-3.15 1.11-4 1.49l.27.65a10.03 10.03 0 0 0-.97 2.26l.97 1.93Z" fill="url(#a41stz5il)"/><path d="M11.39 8.98c.72-.95.87-2.08.85-2.53l.72 1.34a5.6 5.6 0 0 1-.72 2.66l.34.5a10.6 10.6 0 0 1-3.9 1.66 13.52 13.52 0 0 0 2.4-4.37l.3.74Z" fill="url(#b41stz5il)"/><defs><linearGradient id="a41stz5il" x1="7.42" y1="8.38" x2="7.16" y2="14.42" gradientUnits="userSpaceOnUse"><stop stop-color="#FBF8FE"/><stop offset="1" stop-color="#3C3233"/></linearGradient><linearGradient id="b41stz5il" x1="12.65" y1="7.42" x2="9.04" y2="12.03" gradientUnits="userSpaceOnUse"><stop stop-color="#454641"/><stop offset="1" stop-color="#FAFBFB"/></linearGradient></defs></svg>