<!-- by TradingView --><svg width="18" height="18" viewBox="0 0 18 18" xmlns="http://www.w3.org/2000/svg"><path fill="#F0F3FA" d="M0 0h18v18H0z"/><path d="M9.63 5.84c-.1-.17-.23-.3-.37-.42-.2-.16-.36-.18-.48-.06L4.26 9.91c-.02.02-.04.02-.05 0A1.62 1.62 0 0 1 4 9.06c0-.3.08-.58.22-.85.08-.15.22-.33.42-.53l3.25-3.27c.24-.23.52-.37.85-.4.3-.03.61.02.93.17a2.2 2.2 0 0 1 1.28 1.73c.05.46-.09.85-.4 1.17h-.03l-.88-.88v-.05c.06-.1.06-.2 0-.3Z" fill="#32425C"/><path d="M5.98 11.6a1.71 1.71 0 0 1-.18-1.11c.07-.39.24-.72.53-1.01A6400.1 6400.1 0 0 1 9.4 6.4l.9.9v.03L7.32 10.3c-.3.3-.34.56-.11.79l.94.94v.05l-.89.89h-.02l-.84-.85a2.3 2.3 0 0 1-.43-.53Z" fill="#32425C"/><path d="m8.43 12.32.04.03c.18.2.32.3.41.34.16.05.32 0 .5-.19l4.37-4.38c0-.02.02-.02.03 0 .2.34.26.72.2 1.13-.08.39-.25.73-.54 1.01l-2.98 3c-.26.27-.46.44-.61.52-.3.16-.61.23-.95.22a1.57 1.57 0 0 1-.9-.31 3.47 3.47 0 0 1-.49-.45v-.04l.88-.88c.01-.02.03-.02.04 0Z" fill="#679A4A"/></svg>