<!-- by TradingView --><svg width="18" height="18" viewBox="0 0 18 18" fill="none" xmlns="http://www.w3.org/2000/svg">
<rect width="18" height="18" fill="#F0F3FA"/>
<path fill-rule="evenodd" clip-rule="evenodd" d="M12.5 14H5.5C4.75561 14 3.98759 13.2444 4 12.5L4 5.5C4 4.7556 4.75561 3.98759 5.5 4H12.5C13.2444 4 14.0124 4.7556 14 5.5V12.5C14 13.2444 13.2444 14 12.5 14Z" fill="#007BC3"/>
<path fill-rule="evenodd" clip-rule="evenodd" d="M5.00424 6.00001C5.00424 5.49448 5.49699 5.00001 5.99644 5.00001C8.48753 5.00001 11.0732 5.01182 12 5.00001C12.9268 4.9882 13 6.00001 13 6.00001C13 6.41251 13.089 6.97446 12.8596 7.33894C12.2512 8.3194 9.96952 8.37846 8.85043 9.0636C6.89474 10.2685 4.89559 12.5247 5.00424 9.06358C5.00424 9.06358 5.00424 7.00002 5.00424 6.00001Z" fill="#009FE3"/>
<path fill-rule="evenodd" clip-rule="evenodd" d="M10 7.45775V8.28169C10 8.51048 9.913 9 9.64017 9H9V7H9.52301C9.75732 7 10 7.05634 10 7.45775ZM11 7.5C11 6.65493 10.554 6 9.68703 6H8.39833C8.14059 6 8 6.19014 8 6.59155V11.493C8 11.831 8.21883 12 8.5 12C8.76846 12 9 11.7956 9 11.5V10H9.64017C10.554 10 11 9.5 10.9992 8.4507L11 7.5Z" fill="white"/>
</svg>
