<!-- by TradingView --><svg width="18" height="18" viewBox="0 0 18 18" xmlns="http://www.w3.org/2000/svg"><path fill="#EA094A" d="M0 0h18v18H0z"/><path d="M11.25 13c-.33.2-.61.21-.73.03-.08-.12-.02-.37.04-.5.47-.93 1.9-2.8 1.9-4.48a6.3 6.3 0 0 0-.7-3.12c-.07-.12-.16-.27-.22-.42a.39.39 0 0 1 .07-.4.32.32 0 0 1 .33-.1h.01c.16.07.36.19.56.35.88.74 1.99 2.39 1.99 3.69 0 2.25-2.31 4.48-3.25 4.96Zm-3.58.4-.01.1a.19.19 0 0 1-.06.08 1.6 1.6 0 0 1-.43.23c-.23.08-.52.15-.93.18-1.58.13-2.67-1.33-2.74-2.3V11.47c.03-.15.1-.3.2-.4.09-.12.21-.2.35-.22a.62.62 0 0 1 .4.05.7.7 0 0 1 .32.3l.03.06.1.2c.08.18.16.39.28.58a2.3 2.3 0 0 0 1.99 1.2c.11.01.2 0 .28-.01h.05c.04 0 .08.02.12.05a.2.2 0 0 1 .05.13Zm2.04-4.28c-.58 1.24-1.77 1.8-2.33 1.34-.55-.46-.94-1.55-.58-2.33.46-1 1.77-1.28 2.5-.88.62.33.78 1.09.41 1.87Zm.63-3.47c-1.49-.8-4.1-.23-5.02 1.77-.72 1.56.06 3.73 1.15 4.65 1.13.94 3.51-.2 4.67-2.67.74-1.58.4-3.1-.8-3.75Z" fill="#fff"/></svg>