<!-- by TradingView --><svg xmlns="http://www.w3.org/2000/svg" width="18" height="18" viewBox="0 0 18 18"><path fill="#F0F3FA" d="M0 0h18v18H0z"/><path d="M6.54 10.72C5.1 12.4 3.23 13 2.4 12.05c-.83-.95-.32-3.08 1.14-4.77C5 5.6 6.85 5 7.68 5.95c.83.95.32 3.08-1.14 4.77z" fill="#DF2128"/><path d="M14.46 10.72C13 12.4 11.15 13 10.32 12.05c-.83-.95-.32-3.08 1.14-4.77C12.9 5.6 14.77 5 15.6 5.95c.83.95.32 3.08-1.14 4.77z" fill="#FCD201"/><path d="M10.66 10.72C9.2 12.4 7.34 13 6.5 12.05c-.83-.95-.32-3.08 1.14-4.77C9.11 5.6 10.96 5 11.8 5.95c.83.95.32 3.08-1.14 4.77z" fill="#2F3489"/><path d="M3.62 7.57h1.91c.2 0 .58.16.58.72 0 .57-.38.7-.58.71h-.88v1.16c.02.06.18.16.46.16v.1H3.62v-.1c.13 0 .38-.02.38-.16V7.83c-.04-.04-.16-.12-.38-.12v-.14zm1.36.14h-.32v1.16h.32c.33 0 .6-.26.6-.58a.59.59 0 0 0-.6-.58zm2.62 2.48V7.96c-.01-.08-.07-.24-.21-.24v-.15h1l.85 1.87.89-1.87h.8v.15c-.11 0-.2.04-.2.24v2.18l.01.04c.01.05.02.1.18.1v.15H9.87v-.14c.1 0 .27-.04.3-.15V8.02l-1.07 2.4h-.2L7.76 7.97v2.23c.05.05.23.1.32.1v.14h-.7v-.14c0 .01.03.04.22-.1zm-.21.1zm4.74 0v.14h2.03c.2-.04.58-.26.58-.78 0-.51-.55-.71-.82-.75.22-.03.67-.21.67-.68 0-.46-.48-.62-.72-.65h-1.74v.14c.23 0 .38.13.43.2v2.16c0 .18-.29.23-.43.23zm1.04-1.44V7.84c.04-.06.16-.16.3-.16.17 0 .44.15.44.58 0 .43-.22.59-.74.59zm.02.27c.04-.05.16-.16.3-.16.16 0 .52.13.52.72 0 .47-.35.6-.53.6a.66.66 0 0 1-.29-.19v-.97z" fill="#fff"/></svg>