<!-- by TradingView --><svg width="18" height="18" viewBox="0 0 18 18" xmlns="http://www.w3.org/2000/svg"><path fill="#F0F3FA" d="M0 0h18v18H0z"/><path d="M14 8.42a4.46 4.46 0 0 1-5.7 4.26v-2.66c.31.22.69.35 1.1.35 1.05 0 1.9-.84 1.9-1.86 0-1.03-.85-1.86-1.9-1.86-1 0-1.8.74-1.9 1.68v2.95l-.22.98A4.4 4.4 0 0 1 5 8.42 4.46 4.46 0 0 1 9.5 4C11.99 4 14 6.15 14 8.42Z" fill="url(#a3uwg4d0n)"/><path d="M5 8.28h2.5v3.14C7.5 12.85 6.42 14 5.08 14H5V8.28Z" fill="url(#b3uwg4d0n)"/><path d="M7.5 8.4v3.09a2.7 2.7 0 0 1-1.41-2.37c0-1.5 1.24-2.71 2.76-2.71.62 0 1.18.2 1.64.53l-.05.01A1.91 1.91 0 0 0 7.5 8.4Z" fill="url(#c3uwg4d0n)"/><path d="M12.32 6.94A3.53 3.53 0 0 1 10 10.29v.98V9H8v4h1.68c.57 0 1.18-.2 1.18-.2a4.5 4.5 0 0 0-.99-8.78c1.06.32 2.4 1.23 2.45 2.92Z" fill="url(#d3uwg4d0n)"/><defs><linearGradient id="a3uwg4d0n" x1="7.03" y1="8.05" x2="11.05" y2="7.16" gradientUnits="userSpaceOnUse"><stop stop-color="#BDA18E"/><stop offset="1" stop-color="#947B65"/></linearGradient><linearGradient id="b3uwg4d0n" x1="6.25" y1="8.28" x2="6.25" y2="14" gradientUnits="userSpaceOnUse"><stop stop-color="#BEA390"/><stop offset="1" stop-color="#BD9C89"/></linearGradient><linearGradient id="c3uwg4d0n" x1="9.14" y1="6.75" x2="8.48" y2="11.05" gradientUnits="userSpaceOnUse"><stop stop-color="#957A65"/><stop offset=".56" stop-color="#BC9C87"/><stop offset=".72" stop-color="#BBA08B"/><stop offset="1" stop-color="#BD9C89"/></linearGradient><linearGradient id="d3uwg4d0n" x1="11.28" y1="4.78" x2="8.27" y2="13.1" gradientUnits="userSpaceOnUse"><stop stop-color="#C7B4A6"/><stop offset=".47" stop-color="#B99984"/><stop offset="1" stop-color="#917862"/></linearGradient></defs></svg>