<!-- by TradingView --><svg width="18" height="18" viewBox="0 0 18 18" xmlns="http://www.w3.org/2000/svg"><path fill="#F0F3FA" d="M0 0h18v18H0z"/><path d="M6.9 4.48c4-.4 5 .93 6.23 1.76.16.17.28.35.36.56.27.7.53 1.38.5 2.16A5.02 5.02 0 0 1 9.3 14c-.5 0-.96 0-1.43-.1-.15-.04-.32-.1-.53-.18-.46-.18-.7-.27-1.06-.51a4.91 4.91 0 0 1-2.18-5.08c.27-1.58 1.36-3 2.81-3.65Z" fill="#CD1623"/><path d="M12.08 5.07c.37.34.66.63.88.88.07.07.12.17.17.29.25.7.62 1.33.66 2.1 0 .26.02.51.04.76.02.3-.02.62-.11.93l-.12.4c-.04.13-.1.26-.16.38a27.67 27.67 0 0 1-.64 1.1 5.15 5.15 0 0 1-2.91 1.76.54.54 0 0 1-.34 0 .53.53 0 0 0-.26-.01c-.42.09-.9-.43-1.31-.46a2.32 2.32 0 0 1-.8-.2 4.04 4.04 0 0 1-1.28-.82c-.14-.16 0-.32-.08-.46-.08-.13-.18-.19-.25-.34-.48-1.17-.55-1.2-.53-1.54a.9.9 0 0 0-.1-.52.34.34 0 0 1 0-.23c.16-.77.75-.17.05-1.05a.06.06 0 0 1-.01-.08c.08-.15.19-.28.26-.45.13-.32.29-.62.49-.9.75-1.04-.2-.21.55-.65.72-.42 1.11-.81 2.01-.9.2-.02.38-.02.56-.01.07 0 .11.04.12.1a.29.29 0 0 0-.06.16c0 .05.02.07.06.06l.17-.04c.03 0 .04-.02.02-.05l-.09-.14c0-.05.04-.07.1-.06 1.04.1 1 .52 2 .87l-.35.43h-.02a.1.1 0 0 1-.05.05c-.27.09-.43.01-.5-.22 0-.03-.02-.04-.04-.03-.15.07-1.02.23-1.03.27a.1.1 0 0 1-.05.05c-.17.09-.3.05-.43-.1-.08-.06-.13-.06-.15 0-.05.2-.16.3-.34.33-.02 0-.04 0-.06-.02-.07-.08-.18-.1-.3-.08-.02-.01-.04-.02-.07-.01l-.07.04c-.09.06-.2.25-.3.34a.14.14 0 0 1-.07.03l-.25.05v.08l-.15.14a.58.58 0 0 0-.1.18c-.05.1-.11.2-.2.27l-.05.04c-.04.17 0 .68-.2.7-.05.02-.06.06-.04.11l.03.45c0 .06.06.1.05.18-.01.07-.11.12-.13.22v.05c.24.26.41.76.5 1.09 0 .02.02.04.04.05.08.05.13.12.15.21.02.09.06.15.13.18.04.03.08.03.13.01.1-.04.2-.03.28.03.04.03 1.07.68 1.13.61.22-.3.46-.3.7 0 .1.13.13-.1.14-.15-.02-.36 0-.74.14-1.07a.55.55 0 0 0 .04-.22c0-.15.06-.28.17-.38a.11.11 0 0 1 .14-.02c.07.04.14.06.22.04.02 0 .03-.02.02-.05V9.8a.24.24 0 0 0-.09-.1 5.3 5.3 0 0 1-.38-.27 1.22 1.22 0 0 1-.35-.23c-.02-.02-.02-.03 0-.03 0-.04 0-.05.03-.04.29.04.57.04.87-.02.08-.01.16 0 .25.02.52.15.33-.04.95.03.1.01.18.05.26.1.1.08.23.14.37.19a.1.1 0 0 1 .06.13.1.1 0 0 1-.04.05c-.14.09-.2.22-.18.4l.01.03a.06.06 0 0 0 .09.02c.1-.07.4.28.6.18.16.1.24.19.23.3-.02.17-.01.35-.09.5-.08.16-.16.32-.26.46-.1.12-.18.25-.25.39-.06.12-.05.13.04.03a3.42 3.42 0 0 0 .94-1.72.1.1 0 0 0 .02-.05c.04-.2.03-.77.18-.88a.22.22 0 0 0 .09-.2l-.08-.96a3 3 0 0 0-1.24-2.08c-.24-.14-.44-.35-.68-.48l-.6-.32c-.3-.16-.6-.26-.89-.47a.18.18 0 0 0-.1-.03 1.4 1.4 0 0 1-.55-.15.11.11 0 0 0-.1 0c-.13.05-.28.1-.44.12a.1.1 0 0 1-.12-.12l.01-.05c.01-.04 0-.05-.03-.04-.1.01-.2.04-.28.1-.13.06-.26.12-.4.16-.65.19-1.03.49-1.66.6a.46.46 0 0 0-.2.1c-.18.14-1.14 1.12-1.11 1.17.04.06.03.13-.01.19-.27.38-.42.83-.44 1.36-.01.15-.05.3-.12.46a.18.18 0 0 0 .01.18c.06.1.03.22-.08.25h-.02c-.07-.02-.24-.5-.23-.54l.01-.27c0-.07.03-.16.08-.24.18-.35.1-.83.35-1.13.12-.15.2-.32.27-.51.08-.25.43-.59.6-.77l.53-.52c.13-.11.3-.23.53-.35.06-.04.16-.12.31-.27a4.85 4.85 0 0 1 5.18.59Z" fill="#940914"/><path d="M10.85 6.48c.03 0 .05.03.04.06-.03.33.32.64.5.88.05.07.11.14.18.2.17.16.39.69.4.98a.1.1 0 0 0 .06.09c.04.01.33.1.46.04.07-.03.1-.07.1-.12l.05-.02c-.03.11.1.22.2.11-.05.45.33.62-.01.93a.15.15 0 0 0-.04.06l-.15.44a.11.11 0 0 0-.03-.02c-.03-.02-.05-.01-.07.01a.05.05 0 0 1-.04.02.09.09 0 0 1-.06-.03c-.16-.18-.2-.14-.36-.03h-.03a.06.06 0 0 1-.07-.05c-.02-.18.04-.31.18-.4a.1.1 0 0 0 .05-.1.1.1 0 0 0-.07-.08 1.2 1.2 0 0 1-.37-.18.54.54 0 0 0-.26-.1c-.3-.04-.6-.05-.9-.07l-.41-.03h-.4c-.15.02-.3 0-.47-.04-.19-.05-.19-.1 0-.16.11-.04.47-.03.48-.2.03-.78.06-.44-.24-.84a.93.93 0 0 1-.14-.22.41.41 0 0 1 .07-.35c.1-.14-.14-.47 0-.76 0-.03 0-.07-.03-.13l.2.05c.08.02.1-.11.18-.13.13-.02.25-.06.36-.1.02-.02.04-.01.05.02.06.23.22.3.49.22.11-.04-.03.02.1.05Z" fill="#F61A29"/></svg>