<!-- by TradingView --><svg width="18" height="18" viewBox="0 0 18 18" xmlns="http://www.w3.org/2000/svg"><path fill="#F0F3FA" d="M0 0h18v18H0z"/><path fill-rule="evenodd" d="m7.73 4 .13 3.23c.76-.12 2.39-.05 3.17 0v.25c-.4-.06-.84-.09-1.32-.09C5.6 7.4 4 9.3 4 10.7 4 12.1 6.41 14 9.46 14a3.83 3.83 0 0 0 1.66-.47c-.35.05-1.17.17-1.66.17-.61 0-4.52-.56-4.52-3 0-1.96 3.18-2.73 4.77-2.88l.29-.01v.43c-.4-.02-1.16-.01-1.94.13l-.09.46c.35.16 1.03.65 1.03 1.3 0 .66-.46 1.03-.72 1.14v1.75l2.55.48.2-1.48-.3.6H9.69l1.66-3.7v-.55l-.32-.13V7.9c1.06.18 2.43.67 3.6 1.78-.2-.6-1.1-1.68-3.09-2.1v-.52L9.2 6.83V6.5l2.57.26V6.5c-.6-.38-2.34-.42-3.18-.39v-.75l3.1.75v-.46l-1.57-.29.17-.41 1.64.41.08-.41L7.73 4ZM6.64 7.6l-.28-1.8.89-1.72.12 3.34-.73.17ZM6 12.27v-3.1h1.64c.33.02 1 .23 1 .89 0 .65-.67.9-1 .93H6.58v1.28H6Zm1.82-1.1H7v.95c0 .54.49.87.73.96l.19-.12c-.08-.25-.23-.82-.27-1.06-.03-.24.1-.64.17-.73Zm-.76-2.17h.6v-.4c-.07 0-.31.03-.6.16v.24Zm2.9 3.35h.66l.28-.65h1.68l.3.65h.78l-1.6-3.19h-.64l-1.46 3.2Zm2.37-1.19-.6-1.33-.59 1.33h1.2ZM14 12v-.54h1l-.24.54H14Z"/></svg>