<!-- by TradingView --><svg width="18" height="18" viewBox="0 0 18 18" xmlns="http://www.w3.org/2000/svg"><path fill="#F0F3FA" d="M0 0h18v18H0z"/><path d="M5.12 6v.35l1.4-.53v3.7c0 .3-.23.36-.34.36h-.71v.18h2.47v-.18h-.7c-.29 0-.36-.23-.36-.35V5.47h-.17L5.1 6Z" fill="#ED1E24"/><path d="M6.88 5.47v.35c.14-.14.65-.17.88-.17.85 0 1.06.59 1.06.88 0 1.06-.53 1.23-.88 1.23a1.8 1.8 0 0 1-.7-.17v.17c.05.06.28.18.7.18.53 0 1.41-.35 1.41-1.41 0-.85-.7-1.06-1.06-1.06H6.9Z"/><path d="M7.23 6.7v-.17h2.12c.53 0 1.41 0 1.41.88 0 .7-1 1.12-1.4 1.24l1.23 1.76c.14.28.7.47.88.53v.18h-1.06L8.65 8.47c1.05 0 1.58-.35 1.58-1.06 0-.56-.58-.7-.88-.7h-.53c-.42 0-.53.23-.53.35v3.53c0 .28.24.35.36.35H9v.18H7.23v-.18h.36c.28 0 .35-.23.35-.35V7.06c0-.28-.24-.35-.35-.35h-.36Z"/><path d="M11.47 8.12c.7 0 1.24.12 1.41.17l-.17 1.06-.18-.17c.18-.7-.35-.89-1.06-.89-.7 0-1.76.53-1.76 1.77 0 1.23.88 2.12 1.76 2.12.7 0 1.12-.36 1.24-.53l.17.17c-.17.18-.74.53-1.41.53-1.24 0-2.3-.88-2.3-2.3 0-1.4 1.42-1.93 2.3-1.93Z"/><path fill-rule="evenodd" d="M9 14.5a5.5 5.5 0 1 0 0-11 5.5 5.5 0 0 0 0 11Zm0 .5A6 6 0 1 0 9 3a6 6 0 0 0 0 12Z"/></svg>