<!-- by TradingView --><svg width="18" height="18" viewBox="0 0 18 18" xmlns="http://www.w3.org/2000/svg"><path fill="#F0F3FA" d="M0 0h18v18H0z"/><path fill-rule="evenodd" d="M14 9A5 5 0 1 0 4 9a5 5 0 0 0 10 0Zm-1 0a4 4 0 1 0-8 0 4 4 0 1 0 8 0Z" fill="#141313"/><path fill-rule="evenodd" d="M15 9a6 6 0 1 0-12 .01A6 6 0 0 0 15 9Zm-.42 0a5.6 5.6 0 1 0-11.14.02A5.6 5.6 0 0 0 14.58 9Z" fill="#141313"/><path d="m8.33 6-.39.39h-.6L6 7.33v1.7l1.33.86h.34v.36s.3-.25.44.03c0 0 .15-.18.13-.28C8.2 9.88 8 9.37 8 9.37l-.2.21-.22-.42.3-.7-.3-.9.46-.5.3-1.06ZM7.67 10.34s.2-.14.3 0c0 0 .05 1.59.36 2.27 0 .03-.66-.77-.66-2.27Z" fill="#181B1E"/><path d="M7.83 7.56s.4.12.33.77c0 0-.35-.12-.33-.77Z" fill="#181B1E"/><path d="m6.33 8.53.5-.59-.25.78-.25-.2ZM6.58 8.72l.5-.58-.25.78-.25-.2Z" fill="#F0F3FA"/><path d="m6.83 8.92.5-.59-.25.78-.25-.2Z" fill="#F0F3FA"/><path d="M8.8 6h.71l.33 1.02-.28.81.44 1.19s-.8.97-.8 3.9l-.13.06L9 13l-.07-.02-.14-.06C8.8 10 8 9.02 8 9.02l.44-1.19-.28-.81L8.5 6h.3Z" fill="#181B1E"/><path d="m9.67 6 .39.39h.6l1.34.94v1.7l-1.31.86h-.36v.36s-.3-.25-.44.03c0 0-.15-.18-.13-.28.03-.12.27-.63.27-.63l.17.21.22-.42-.3-.7.3-.85-.46-.55L9.66 6ZM10.33 10.34s-.2-.14-.3 0c0 0-.05 1.59-.36 2.27 0 .03.68-.77.66-2.27Z" fill="#181B1E"/><path d="M10.17 7.56s-.4.12-.33.77c0 0 .35-.12.33-.77Z" fill="#181B1E"/><path d="m11.67 8.53-.5-.59.25.78.25-.2ZM11.42 8.72l-.5-.58.25.78.25-.2Z" fill="#F0F3FA"/><path d="m11.17 8.92-.5-.59.25.78.25-.2Z" fill="#F0F3FA"/></svg>