<!-- by TradingView --><svg width="18" height="18" viewBox="0 0 18 18" xmlns="http://www.w3.org/2000/svg"><path fill="#F0F3FA" d="M0 0h18v18H0z"/><path d="M7.18 6.43c.21.86-.08 1.64-.7 2.24-.48.48-1.57 1.33-2.26.74-.26-.22-.32-.7-.25-1 .1-.48.43-1.02.7-1.4.15-.23.46-.51.7-.69a8.7 8.7 0 0 1 1.58-.89c.36-.16.7-.26.99-.29a7.37 7.37 0 0 1 2.43.16.09.09 0 0 1 .02.08c0 .02 0 .03-.02.05a10.68 10.68 0 0 0-2.5 3.61l-.58 1.45c-.28.73-1.15 1.33-1.87 1.54a21.35 21.35 0 0 0-1.33.42 6.03 6.03 0 0 1 2.2-8.81A6.74 6.74 0 0 1 8.8 3a6 6 0 0 1 3.85 1.25v.01h-.02c-.64.13-1.28.43-1.89.7-.1.04-.24.02-.37-.02-2.16-.79-4.69-.72-6.24 1.2a3.24 3.24 0 0 0-.73 2.2c.03.85.42 1.39 1.18 1.61.13.04.28.06.43.05.36 0 .61-.05.94-.23.78-.45 1.47-.9 1.75-1.81.2-.66.03-1.18-.5-1.55-.03-.02-.04-.01-.03.02Z" fill="#436E7E"/><path d="M12.95 12.43c-.27.2-.44.5-.72.77-.32.3-.7.43-1.14.38a11.44 11.44 0 0 1-1.86-.36l-1.86-.57a18.12 18.12 0 0 1-1.32-.5.04.04 0 0 1 .02-.03c.47-.32.94-.68 1.41-1.08.58-.5.97-1.16 1.38-1.85A.11.11 0 0 1 9 9.14l.04.03c.19.21.41.4.68.48a2.68 2.68 0 0 0 2.16-.29c.47-.27.8-.63.98-1.08.19-.45.2-.9.01-1.35a4 4 0 0 0-1.4-1.57.09.09 0 0 1 .01-.1c.34-.37 1.04-.92 1.55-.57a.08.08 0 0 1 .02.1c-.2.27-.2.54.01.81.2.23.65.12.84-.04h.01a.01.01 0 0 1 .01 0 6.01 6.01 0 0 1-9.47 7.36.05.05 0 0 1 .01-.04l.02-.02.42-.22a1.3 1.3 0 0 1 1.15.02c.33.15.65.3.98.41.56.22.95.38 1.42.6.54.24 1.31.5 1.76.66.9.3 1.84-.08 2.27-.93.14-.28.3-.6.5-.95.01-.04 0-.05-.03-.02Z" fill="#89B3C3"/><path d="M11.2 5.73a2 2 0 0 1 .77 1.02c.31.95-.52 2.46-1.56 2.56-.4.04-1.05-.03-1.3-.4a.07.07 0 0 1-.01-.06l.52-1.23c.29-.66.57-1 1.13-1.8l.15-.17a.1.1 0 0 1 .06-.03c.04-.01.12.02.23.1Z" fill="#89B3C3"/></svg>