<!-- by TradingView --><svg width="18" height="18" viewBox="0 0 18 18" xmlns="http://www.w3.org/2000/svg"><path fill="#F0F3FA" d="M0 0h18v18H0z"/><path fill-rule="evenodd" d="M10.92 7.33c-.02 0-.04-.04-.04-.06V5.72l.01-.04.04-.01h.87c.06 0 .08.03.1.07l.01.02.04.07a23.27 23.27 0 0 1 .72 1.36c.12.1.34.09.41-.05a.59.59 0 0 0 .04-.24V5.61a.13.13 0 0 0-.03-.08L11.9 4.05a.12.12 0 0 0-.1-.05H9.14a.02.02 0 0 0-.02 0 .02.02 0 0 0 0 .02v1.07a94.68 94.68 0 0 0 0 2.49c0 .04.02.08.05.1l1.23 1.14c.05.04.11.03.17.02H13.97c.02 0 .03-.01.03-.03V7.36a.03.03 0 0 0-.03-.03h-3.05ZM7.4 4.01v3.1l-.02.01h-1.7l-.01-.03v-.92c0-.03 0-.05.03-.07.47-.23.94-.47 1.4-.72.1-.05.16-.1.18-.13.05-.1.05-.28-.08-.34a281.69 281.69 0 0 1-1.53-.03.29.29 0 0 0-.17.07A82.82 82.82 0 0 1 4 6.1V8.9h3.56a.1.1 0 0 0 .07-.02l1.24-1.25a.1.1 0 0 0 .03-.07V4.03A.03.03 0 0 0 8.88 4H7.41l-.01.01Zm-.27 6.7-.01-.02v-.01l-.02-.01H4.05c-.03 0-.05 0-.05-.04V9.11a1050.01 1050.01 0 0 0 3.5-.01c.06 0 .11.02.15.06l1.25 1.17c.02.02.04.06.03.12v.1A406.09 406.09 0 0 1 8.9 14H6.27a.1.1 0 0 1-.06-.03 157.07 157.07 0 0 1-1.29-1.46.25.25 0 0 1-.03-.14v-1.42c0-.1.04-.17.11-.22.06-.03.13-.03.2 0 .07.05.13.1.15.15l.59 1.08.18.33a.06.06 0 0 0 .05.03h.95V10.7Zm5.36 1.18-1.6 1.14v-2.08h1.7a.02.02 0 0 1 .01 0 .02.02 0 0 1 0 .02V13a.03.03 0 0 0 .02.02h.02l1.32-1a.11.11 0 0 0 .04-.09V9.02a.02.02 0 0 0-.02-.02h-3.25c-.09 0-.2 0-.25.06a60 60 0 0 1-1.07 1.27c-.04.04-.08.08-.08.14A17302.73 17302.73 0 0 0 9.35 14l.02.01h1.5l.01-.02v-.87c0-.03.01-.04.04-.02l.15.02a1273.5 1273.5 0 0 1 1.47-.03 178.83 178.83 0 0 1-.02-1.18.03.03 0 0 0-.03-.01Zm-3.06-1.44v3.45a.01.01 0 0 0 .02.01h1.34v-3.03a.01.01 0 0 1 .02 0h1.86a.01.01 0 0 1 .02 0v2.01h.01l1.22-.92a.01.01 0 0 0 0-.02V9.11a.01.01 0 0 0-.01-.01h-3.34l-1.13 1.34ZM11.05 13l1.38-.99h.02v1.01h-1.4a.01.01 0 0 1 0-.01Z" fill="#171718"/></svg>