<!-- by TradingView --><svg width="18" height="18" viewBox="0 0 18 18" xmlns="http://www.w3.org/2000/svg"><path fill="#F0F3FA" d="M0 0h18v18H0z"/><path d="M6.85 8.73c-.23.32-.63.36-.91.1L3.24 6.3a.8.8 0 0 1-.1-1.03c.24-.32.64-.36.92-.1l2.7 2.53a.8.8 0 0 1 .1 1.03Z" fill="#3DB6B6"/><path d="M7.33 7.25 4.9 5.15a.66.66 0 0 1-.08-.92.64.64 0 0 1 .9-.08L8.4 6.42c.17.14.27.35.27.58v6.69H7.33V7.25Z" fill="#3DB6B6"/><path d="M11.15 8.73c.23.32.63.36.91.1l2.7-2.53a.8.8 0 0 0 .1-1.03c-.24-.32-.64-.36-.92-.1l-2.7 2.53a.8.8 0 0 0-.1 1.03Z" fill="#A3D5D6"/><path d="m10.67 7.25 2.43-2.1c.28-.23.31-.64.08-.92a.64.64 0 0 0-.9-.08L9.6 6.42a.76.76 0 0 0-.27.58v6.69h1.34V7.25Z" fill="#A3D5D6"/><path d="M11.46 12.27a4.09 4.09 0 0 0-3.24-7.26l-.86-.73A5 5 0 0 1 14 9.01a5.02 5.02 0 0 1-2.54 4.38v-1.12ZM10.67 13.75v-1c-.42.18-.87.29-1.34.32V14c.47-.02.91-.11 1.34-.25Z" fill="#A3D5D6"/><path d="m6.62 5.83-.77-.58A4.9 4.9 0 0 0 4 9.07c0 2.6 2.06 4.74 4.67 4.93v-.92a3.99 3.99 0 0 1-2.05-7.25Z" fill="#3DB6B6"/></svg>