<!-- by TradingView --><svg width="18" height="18" viewBox="0 0 18 18" xmlns="http://www.w3.org/2000/svg"><path fill="#CC092F" d="M0 0h18v18H0z"/><path fill-rule="evenodd" d="M13.64 13.17c-2.1 2.38-5.87 2.45-8.44.14-2.56-2.3-2.94-6.1-.84-8.48 2.1-2.38 5.87-2.45 8.44-.14 2.56 2.3 2.94 6.1.84 8.48Zm-1.53-.1c-2.64-.15-4.77.08-5.62.17l-.12.01a4.39 4.39 0 0 0 2.67 1.02 4.55 4.55 0 0 0 3.07-1.2Zm1.77-3.14c-.16 2.85-2.65 4.18-3.87 4.5 4.06-.54 4.28-3.73 4.3-4.82.02-1.09-.95-5.15-5.07-5.67-3.3-.42-4.73 1.7-5.04 2.8.29-.53 1-1.8 2.72-2.4a5.4 5.4 0 0 1 4.19.43c1 .53 2.94 2.31 2.77 5.16Zm-4.77 2.89c-1.19 0-2.48.16-2.98.24a5.96 5.96 0 0 1-2.26-4.72c.6-3.77 3.5-4.27 4.88-4.06a5.2 5.2 0 0 1 3.55 8.61c-.9-.41-3.48-.42-3.64-.42H6.24c1.45-.32 3.47-.16 4.3-.04.2-.02.24-.14.23-.2a13.32 13.32 0 0 0-.88-4.28l.54-.77c.83-.22 1.31-.77 1.31-1.02 0-.2-.14-.25-.21-.25-.42 0-1 .68-1.23 1.01a2.3 2.3 0 0 1-.95-.11c.63-.8.3-1.49-.19-1.51-.49-.02-.74.3-.74.82 0 .4.33.72.5.82-.13.13-.64.45-.87.6A2.12 2.12 0 0 0 7 7.6c-.5.18-.83.57-.77.74.05.18.2.2.58.08.3-.1.93-.44 1.2-.6.22.07.5.27.61.36-.39.53-.99 3.62-1 3.7 0 .06.02.13.1.13.07 0 .1-.05.11-.07.35-.89 1.13-2.4 1.48-3.05.53.52 1.04 2.44 1.23 3.34-.22-.04-1.01-.13-2.46-.14-1.82-.02-2.2.26-2.22.42-.02.15 1.14.13 2.55.1a9.25 9.25 0 0 1 2.2.18c-.01.01-.33.03-1.51.03ZM8.05 10.8c.15-.6.54-1.93.83-2.43l.29.28c-.26.48-.84 1.57-1.12 2.15ZM9.7 8.23l-.23.35c.12.14.45.7.82 1.86a7.65 7.65 0 0 0-.59-2.21Zm-.7-.14.32.36.26-.46c-.03-.06-.13-.19-.28-.19-.14 0-.26.2-.3.29ZM6.9 7.9c.34-.18.67-.17.86-.15-.82.48-1.24.6-1.27.53-.04-.08.1-.22.41-.38Zm1.44-.27c.1.04.33.14.45.27.12-.15.39-.45.54-.45.2 0 .28.07.45.28l.38-.52c-.2 0-.66-.03-1-.15-.1.1-.43.35-.82.57Zm3.17-1.48c-.08-.1-.2 0-.4.16-.18.13-.44.44-.55.58.33-.11.47-.21.56-.27l.07-.04c.08-.05.39-.35.32-.43Zm-7.72 3.4c.08.83.83 2.86 3.19 4.32-2.68-1.3-3.24-3.42-3.19-4.32Zm4.9-3.5c0 .44.39.63.46.66.12-.07.35-.44.35-.72 0-.41-.25-.5-.38-.48-.14-.02-.43.07-.43.53Z" fill="#fff"/></svg>