<!-- by TradingView --><svg width="18" height="18" viewBox="0 0 18 18" xmlns="http://www.w3.org/2000/svg"><path fill="#0198D2" d="M0 0h18v18H0z"/><path fill-rule="evenodd" d="M7.03 5h3.94C12.14 5 13 5.86 13 7.03v3.94c0 1.17-.86 2.03-2.03 2.03H7.03A1.97 1.97 0 0 1 5 10.97V7.03C5 5.86 5.86 5 7.03 5ZM4 7.03A3.03 3.03 0 0 1 7.03 4h3.94A3.04 3.04 0 0 1 14 7.03v3.94A3.02 3.02 0 0 1 10.97 14H7.03A3.03 3.03 0 0 1 4 10.97V7.03Zm4-.53H7V7h-.5v1H7v.5h1V8h.5V7H8v-.5ZM9 8V7h1.42c.75 0 1.58.44 1.58 1.5 0 .86-.47 1.5-1.34 1.5H8.37c-.22 0-.37.06-.37.28v1.22a.5.5 0 0 1-.5.5c-.22 0-.5-.22-.5-.5v-1.3C7 9.55 7.54 9 8.27 9h2.15c.16 0 .58-.08.58-.5s-.39-.5-.58-.5H9Z" fill="#fff"/></svg>