<!-- by TradingView --><svg width="18" height="18" viewBox="0 0 18 18" xmlns="http://www.w3.org/2000/svg"><path fill="#F0F3FA" d="M0 0h18v18H0z"/><path d="M12.88 11 12 9.97c1.7-1.24 2.35-2.7 2.35-3.25 0-.43-.25-.63-.37-.68.52-.17 1.02.2 1.02 1.08 0 1.3-1.34 3.15-2.12 3.88ZM8.5 5l5.5 8H3l5.5-8Z" fill="#071B64"/><path d="M6.78 13H5c5.06-8.38 7.07-9 7.89-9 .65 0 1.01.28 1.11.42-2.3-.5-5.77 5.5-7.22 8.58Z" fill="#64A354"/><path d="M8.89 13H7.1c4.3-7.92 5.98-8.33 6.8-8.33.47 0 .68.27.77.41-2.08-.17-4.35 4.89-5.8 7.92Z" fill="#64A354"/></svg>