<!-- by TradingView --><svg width="18" height="18" viewBox="0 0 18 18" xmlns="http://www.w3.org/2000/svg"><path fill="#F0F3FA" d="M0 0h18v18H0z"/><path d="M5 14h3V8.35C8 7.63 8.37 7 9 7c.65 0 1 .6 1 1.27 0 .63-.16 1.06-.7 1.06-.16 0-.3-.13-.3-.33v3c2.27 0 4-1.5 4-4.17C13 5.6 11.08 4 8.94 4A4.07 4.07 0 0 0 5 8v6Z" fill="url(#aabjyjrdy)" fill-opacity=".7"/><defs><linearGradient id="aabjyjrdy" x1="12.96" y1="8.13" x2="5" y2="8.13" gradientUnits="userSpaceOnUse"><stop stop-color="#7BC3A9"/><stop offset="1" stop-color="#3BBCDD"/></linearGradient></defs></svg>