<!-- by TradingView --><svg width="18" height="18" viewBox="0 0 18 18" xmlns="http://www.w3.org/2000/svg"><path fill="#F0F3FA" d="M0 0h18v18H0z"/><path d="M9.51 7.68 7.9 5.66c.01-.17.1-.56.4-.8a4.7 4.7 0 0 1 2.08-.83c.51.03 1.12.24 2.14 1.63 1.01 1.39.99 2.08.99 2.56 0 .38-.15.98-.22 1.24l-1.16 1.3c-.75-.88-2.32-2.71-2.6-3.08Z" fill="url(#a)"/><path d="M13.33 9.25a5.41 5.41 0 0 1-3.49 2.02c-1.67.18-2.6 0-2.89-.12 0 .14.16.62.9 1.44C8.77 13.6 9.25 14 10.6 14s1.98-1.94 2.12-2.43c.12-.4.45-1.71.6-2.32Z" fill="url(#b)"/><path d="M7.3 11.05a4.62 4.62 0 0 0 1.4 2.37c-.44-.3-1.64-1.38-2.19-1.88-.43-.4-1.37-1.33-1.69-1.9-.39-.71-.35-1.28-.27-2.35.09-1.08.54-2.36.8-2.55.27-.19.92-.48 2.58-.64 1.33-.13 2.29-.1 2.6-.08-1.74.15-2.64 2.02-2.89 2.84a10.3 10.3 0 0 0-.34 4.2Z" fill="url(#c)"/><defs><linearGradient id="a" x1="8.34" y1="5.61" x2="13.5" y2="5.61" gradientUnits="userSpaceOnUse"><stop stop-color="#252C5A"/><stop offset=".5" stop-color="#1F64A5"/><stop offset="1" stop-color="#29B1E3"/></linearGradient><linearGradient id="b" x1="8.79" y1="11.69" x2="10.51" y2="14.37" gradientUnits="userSpaceOnUse"><stop stop-color="#0194C7"/><stop offset=".5" stop-color="#4CCBEE"/><stop offset="1" stop-color="#B0DFF0"/></linearGradient><linearGradient id="c" x1="11.1" y1="4.88" x2="7.47" y2="13.41" gradientUnits="userSpaceOnUse"><stop stop-color="#B2E0EF"/><stop offset=".15" stop-color="#A5DEE5"/><stop offset=".24" stop-color="#46C8EA"/><stop offset=".38" stop-color="#29C2EB"/><stop offset=".5" stop-color="#308CC9"/><stop offset=".65" stop-color="#333889"/><stop offset="1" stop-color="#182D57"/></linearGradient></defs></svg>