<!-- by TradingView --><svg width="18" height="18" viewBox="0 0 18 18" xmlns="http://www.w3.org/2000/svg"><path fill="#F0F3FA" d="M0 0h18v18H0z"/><path fill-rule="evenodd" d="M8.72 11.19c3 1.76 5.8 2.34 6.22 1.29.43-1.05-1.65-3.33-4.66-5.09-3-1.76-5.8-2.34-6.22-1.29-.43 1.05 1.65 3.33 4.66 5.09Zm.7-.07c2.48 1.45 4.77 1.92 5.13 1.06.35-.86-1.37-2.73-3.84-4.18-2.47-1.45-4.77-1.92-5.12-1.06-.35.86 1.36 2.73 3.84 4.18Z" fill="#54515C"/><path fill-rule="evenodd" d="M9.76 11c2.41-1.59 3.89-3.91 3.3-5.19-.6-1.27-3.02-1.02-5.44.57-2.4 1.6-3.88 3.91-3.3 5.19.6 1.28 3.03 1.02 5.44-.57Zm.25-.55c2-1.32 3.23-3.24 2.74-4.3-.49-1.05-2.5-.84-4.51.49-2 1.32-3.24 3.24-2.75 4.3.5 1.05 2.51.84 4.52-.49Z" fill="#CA0428"/></svg>