<!-- by TradingView --><svg width="18" height="18" viewBox="0 0 18 18" xmlns="http://www.w3.org/2000/svg"><path fill="#F0F3FA" d="M0 0h18v18H0z"/><path d="M14 5H4v2.38c1.84-1.49 7.4-1.83 9.98-1.8v.22C9.33 5.67 6.45 6.82 5.55 7.4l-.21.96c1.7-1.5 6.01-1.74 8.66-1.72V5Zm0 1.86C9.51 6.77 7.77 7.9 6.88 8.48l-.21.98V8.38H5.33v.01-.93H4V13h10v-2.63c-2.5.1-3.56 1.1-4.11 1.64v.01l-.22.98v-1h-.85c1.02-1.34 3.3-1.84 5.18-1.87v-1c-3 .02-4.26 1.13-4.92 1.72l-.08.07-.15.98V11H7.83C9.03 9.57 12 8.99 14 8.93v-1c-3.61-.1-5.1 1.1-5.86 1.7l-.08.07-.17.98V9.62H6.78c1.41-1.54 5.05-1.93 7.22-1.9v-.86Z" fill="#002D62"/></svg>