<!-- by TradingView --><svg width="18" height="18" xmlns="http://www.w3.org/2000/svg"><path fill="#054D53" d="M0 0h18v18H0z"/><path d="M12.284 9.254c-.673.572-.39 1.474-.113 1.985.346.64-.096 1.58-.701 2.113A4.999 4.999 0 0014 9.157c-.457-.299-1.223-.322-1.716.097z" fill="#00B2C3"/><path d="M8.777 10.693c-.964-.818-1.809-.422-2.385.253-.583.686.221.89 1.32 1.14.829.189.712 1.66.788 1.914.99-1.599.72-2.933.277-3.307z" fill="#38BE52"/><path d="M10.327 5.709c1.645 1.276.199 1.928.199 1.928.934.794 1.878-.726 2.892.142.269.23.44.508.567.807a5.004 5.004 0 00-3.537-4.373c-.757.332-1.06.767-.12 1.496z" fill="#00B5FE"/><path d="M6.355 10.111c-.373-1.02.101-1.489 1.721-2.642 2.047-1.457-1.154-.94.149-2.252.461-.465 1.11-.826 1.588-1.15a5.002 5.002 0 00-5.801 5.265c.754.699 1.69 1.152 2.343.78z" fill="#fff"/></svg>