<!-- by TradingView --><svg width="18" height="18" viewBox="0 0 18 18" xmlns="http://www.w3.org/2000/svg"><path fill="#0C53A4" d="M0 0h18v18H0z"/><path fill-rule="evenodd" d="M9.36 4.4H4V4h9.94l.03.18a5.6 5.6 0 0 1-1 3.8 6.46 6.46 0 0 1-3.2 2.34V15h-.41v-4.55c-.22.07-.44.13-.67.18V15h-.4v-4.28l-.68.1V15h-.4V6.46H4V6h4.28v-.57H4V5h5.36v-.6Zm.4 0V5h2.88v.22c.03.67-.2 1.7-.98 2.62a5.25 5.25 0 0 1-1.9 1.4v.65a6 6 0 0 0 2.88-2.14 5.25 5.25 0 0 0 .94-3.35H9.76Zm-.4 5.63V9.4c-.21.07-.44.15-.67.21v.6c.23-.06.46-.12.67-.2Zm-1.08.28v-.59a9.5 9.5 0 0 1-.67.12v.58l.67-.11Zm-.67-.87.67-.13v-.7c-.2.06-.43.1-.67.13v.7Zm0-1.1c.24-.04.46-.08.67-.14V6.46h-.67v1.88ZM8.7 6.46v1.6c.25-.1.47-.2.67-.33V6.46h-.67Zm1.07 0v1c.43-.34.71-.71.88-1h-.88Zm0 1.5a3.78 3.78 0 0 0 1.39-1.63l.1-.33H9.76v-.57h2.48c-.02.58-.26 1.4-.9 2.15-.36.45-.88.87-1.58 1.21v-.84Zm-.4.24-.67.3v.7c.24-.06.46-.14.67-.23V8.2Zm0-2.77V6h-.67v-.57h.67Z" fill="#fff"/></svg>