<!-- by TradingView --><svg width="18" height="18" viewBox="0 0 18 18" xmlns="http://www.w3.org/2000/svg"><path fill="#F0F3FA" d="M0 0h18v18H0z"/><path d="m5.11 5.63.74.85a5.27 5.27 0 0 1 4.07-2.1c1.9 0 2.8 1.35 2.8 2.45 0 2.4-1.87 3.03-2.8 3.05 2.6.3 4.01-1.31 4.01-2.65 0-1.33-1.25-3.14-4.01-3.14a8.7 8.7 0 0 0-4.8 1.54Z" fill="#FFE334"/><path d="m5.23 5.64.61.72a5 5 0 0 1 1.51-1.33 5.1 5.1 0 0 1 2.57-.74c1.91 0 2.86 1.38 2.86 2.54 0 1.24-.48 2.02-1.08 2.5-.3.23-.64.4-.96.5.9-.04 1.61-.33 2.13-.74.66-.52 1-1.23 1-1.86 0-1.26-1.2-3.06-3.95-3.06a8.7 8.7 0 0 0-4.7 1.47Zm-.15-.09A8.76 8.76 0 0 1 9.92 4C12.7 4 14 5.83 14 7.23c0 .7-.37 1.47-1.06 2.01-.7.54-1.71.87-3.03.72V9.8c.46 0 1.15-.17 1.72-.62.56-.44 1.01-1.17 1.01-2.34 0-1.04-.85-2.36-2.72-2.36-.94 0-1.8.3-2.5.72-.71.41-1.25.93-1.52 1.34l-.04.07L5 5.61l.08-.06Z"/><path d="m9.2 7.72.7-2.98-1.74.92-.41 1.64h-.6a3.66 3.66 0 0 0 3.83 1.52c-.74-.2-1.5-.81-1.78-1.1Z" fill="#00A4E9"/><path d="m10 4.6-.73 3.1c.3.29 1.03.86 1.73 1.05v.15c-.76.22-2.6.22-3.9-1.55L7 7.22h.7l.4-1.62 1.9-1ZM8.22 5.72 7.8 7.37h-.5a3.64 3.64 0 0 0 3.4 1.44 5.1 5.1 0 0 1-1.55-1.03l-.03-.03.68-2.87-1.58.84Z"/><path d="M8.92 9a5.5 5.5 0 0 1-1.46-.87l-1.37 5.8h3.08l1.68-.84h-2.7l-1.21.46 1.13-.96.85-3.6Z" fill="#F60380"/><path d="m7.42 8 .08.08c.17.15.7.55 1.45.85l.05.02-.87 3.68-.82.7.82-.32h2.71l.04.14-1.7.85H6l1.42-6Zm.08.26-1.32 5.6h2.97l1.38-.7H8.16l-1.2.45-.06-.12L8 12.55l.83-3.5c-.63-.27-1.1-.6-1.34-.79Z"/><path d="m5.65 13.92.25-1.14-1.68 1.14h1.43Z" fill="#F60380"/><path d="M6 12.62 5.7 14H4l2-1.38Zm-1.53 1.22H5.6l.2-.9-1.33.9Z"/></svg>