<!-- by TradingView --><svg width="18" height="18" viewBox="0 0 18 18" xmlns="http://www.w3.org/2000/svg"><path fill="#F0F3FA" d="M0 0h18v18H0z"/><path fill-rule="evenodd" d="M13 12.97c0 .02-.01.03-.03.03H5.03c-.02 0-.03-.01-.03-.03V5.03c0-.02.01-.03.03-.03h7.94c.02 0 .03.01.03.03v7.94ZM12.77 9v.28c0 1.58.02 2.77.06 3.54 0 .04-.02.06-.05.06H5.2c-.03 0-.04-.01-.04-.05a3164.43 3164.43 0 0 0 0-7.65c0-.04.01-.05.04-.05h7.57c.03 0 .05.02.05.05-.05.78-.07 1.96-.06 3.55v.27Zm-6.5-3.06v.1c0 .13-.07.2-.2.2H5.7c-.04 0-.07.03-.07.08v.05c0 .05.02.07.06.08.2.03.4.02.58-.05a.15.15 0 0 0 .09-.08.99.99 0 0 0 .07-.49c-.01-.26-.26-.36-.73-.27-.05 0-.08.03-.07.09v.04c0 .04.03.06.06.06h.38c.12 0 .18.07.18.2Zm3.45-.12V7c0 .05.02.08.07.08h.18c.05 0 .09.03.1.08.02.05 0 .1-.06.12a.5.5 0 0 1-.2.05c-.07 0-.1.03-.1.09v1.15c0 .04.02.06.06.06H10c.04 0 .05.02.05.05v.05c0 .06-.03.1-.09.1h-.7c-.07 0-.1-.04-.1-.1v-.04c0-.03.02-.05.05-.05l.27-.03c.04 0 .06-.02.06-.06V7.41c0-.07-.04-.1-.1-.1h-.26c-.04 0-.06-.03-.06-.07v-.06c0-.06.02-.09.08-.1l.27-.02c.04 0 .06-.02.06-.07V5.84c0-.05-.02-.08-.08-.08h-.3c-.05 0-.07-.03-.05-.08v-.05c.02-.06.06-.08.11-.08h.81c.04 0 .06.02.06.05v.06c0 .06-.03.1-.1.1l-.21.02c-.04 0-.05.02-.05.05Zm2.46.4c.05-.01.08-.05.08-.12 0-.07-.03-.1-.08-.1-.26-.03-.77-.02-1.54 0-.05 0-.08-.03-.1-.08a.1.1 0 0 1 0-.06c.04-.07.09-.1.16-.1h1.45c.07 0 .1-.04.1-.11l.01-.06c0-.03-.01-.05-.05-.05-.41-.02-.82-.02-1.21 0-.25 0-.42.03-.51.09-.14.08-.2.24-.2.48 0 .23.06.4.2.47.1.06.26.09.51.1l1.21-.01c.04 0 .05-.02.05-.06v-.05c0-.07-.04-.1-.1-.1H10.7a.15.15 0 0 1-.15-.11.1.1 0 0 1 0-.06c0-.05.04-.08.09-.08.77.02 1.28.02 1.54 0ZM8.15 5.9h-.42c-.04 0-.06-.03-.05-.07a.43.43 0 0 0-.01-.23.1.1 0 0 0-.08-.07.1.1 0 0 0-.06 0c-.04.02-.05.05-.05.1v.21c0 .06-.03.08-.08.08l-.56-.04c-.07 0-.1.03-.12.1v.03c-.02.07 0 .1.07.1h.56c.09 0 .13.04.13.14v.06c0 .07-.03.1-.1.1h-.59c-.05 0-.08.03-.08.09v.04c0 .04.02.06.05.06h.6c.08 0 .13.04.13.13v.03c0 .09-.04.13-.13.13h-.55c-.07 0-.1.04-.1.1v.06c0 .04.02.06.06.06h.62c.07 0 .1.04.1.1v.07c0 .08-.04.13-.13.13h-.58c-.06 0-.08.03-.08.09v.03c0 .07.03.11.1.11h.56c.08 0 .12.04.13.12v.05c-.01.07-.04.1-.08.1L6.8 7.9c-.07 0-.1.03-.1.1a.2.2 0 0 1 0 .04c0 .06.02.1.09.1h.57c.04 0 .06.01.08.05l.06.16c.02.05.05.07.1.07.01 0 .03 0 .05-.02l.06-.1.02-.1c.02-.05.05-.07.1-.07h.38c.05 0 .08-.02.08-.08v-.07c0-.04-.03-.07-.07-.07h-.43c-.07 0-.1-.03-.1-.1v-.07c0-.07.03-.1.1-.1h.45c.07 0 .1-.04.07-.11l-.02-.06c-.01-.03-.04-.05-.07-.05h-.43c-.07 0-.1-.03-.11-.1l-.01-.08c0-.07.03-.11.1-.12l.7-.06c.04 0 .06.02.06.06v1.16c0 .07.03.1.1.1h.03c.04 0 .06-.02.06-.05V7.26l-.01-.33v-.45c.03-.16-.03-.32-.17-.47-.07-.07-.2-.1-.39-.1Zm-.42.5c-.04 0-.06-.02-.05-.06v-.09c0-.11.07-.16.2-.15l.47.03c.12 0 .18.06.18.18v.08c-.01.04-.03.06-.07.06l-.73-.05Zm-.05.26c0-.03.02-.05.06-.05h.41c.18 0 .27.03.27.11v.05c0 .08-.09.12-.27.12h-.41c-.04.01-.05 0-.05-.04v-.19Zm-1.9 2.09v-1.6c0-.15.08-.22.23-.21h.05c.15.02.22.11.21.27-.02.38-.03.72-.02 1.01.01.21.08.37.22.48.09.07.23.1.44.1h1.7c.04 0 .06-.02.06-.06V8.7c0-.06-.03-.09-.08-.09H6.83c-.11 0-.2-.04-.28-.12a.4.4 0 0 1-.11-.28V7.17c0-.1-.04-.2-.12-.29a.39.39 0 0 0-.27-.13h-.03c-.26 0-.4.12-.42.38-.06.62-.05 1.15 0 1.6.02.06.04.08.1.08h.03c.04 0 .06-.02.06-.05Zm5.43-1.47a.2.2 0 0 1-.02.07c-.04.05-.08.07-.14.05-.38-.09-.62.02-.71.32a2.85 2.85 0 0 0-.01 1.05c0 .02.01.03.03.04h.06l.03-.02a.27.27 0 0 0 .1-.23v-.72c0-.14.05-.23.15-.25h.05c.1-.02.14.02.14.12v.93l.1.15c.02.02.05.03.07.02.03-.01.05-.03.05-.06v-.38c0-.11.05-.17.15-.18h.05c.1-.02.15.03.16.13l.03.39c0 .04.03.06.06.07h.05c.06.01.09-.02.09-.08v-.99c0-.12.05-.16.16-.1l.05.03a.3.3 0 0 1 .17.28v.78c0 .05.03.07.07.07h.06c.05 0 .08-.04.08-.09.03-.28.03-.55.01-.8-.02-.26-.14-.42-.38-.5a1.2 1.2 0 0 0-.39 0 .13.13 0 0 1-.13-.05.2.2 0 0 1-.03-.07c-.02-.09.02-.13.1-.13h.77c.03 0 .05-.02.06-.04a.07.07 0 0 0 0-.07l-.05-.07a.12.12 0 0 0-.1-.05h-1.77a.1.1 0 0 0-.1.06.18.18 0 0 0 0 .1c0 .03.02.05.07.06h.75c.09 0 .12.06.11.16Zm.3.5c0 .12-.1.22-.22.22a.21.21 0 0 1-.2-.22c0-.12.09-.22.2-.22.12 0 .21.1.21.22ZM5.7 9.21h1.23c.05 0 .1.04.1.1v.02a.1.1 0 0 1-.1.1H5.7a.1.1 0 0 1-.1-.1v-.02c0-.06.05-.1.1-.1Zm2.22.73c-.06 0-.1.04-.1.1v.07c0 .08.05.12.12.12h.62c.08 0 .12.04.13.11v.06c-.01.05-.04.07-.09.07l-.68-.04c-.18-.02-.27-.11-.27-.3v-.1c0-.2.1-.3.29-.3h.45c.08-.01.12-.06.13-.15 0-.02 0-.04-.03-.08a.15.15 0 0 0-.14-.08h-.6c-.15 0-.25.08-.28.22-.05.23-.07.47-.05.73 0 .07-.02.1-.08.1H7.3c-.04 0-.06-.02-.06-.06 0-.4.02-.67.04-.82.04-.23.17-.36.41-.38.22-.02.45-.02.7 0 .2.02.3.14.3.35v.1c0 .19-.09.28-.27.28h-.5Zm1.29-.7c.05 0 .09.04.09.1v1.08c0 .05-.03.1-.08.1a.09.09 0 0 1-.1-.1V9.33c0-.05.04-.09.09-.09Zm.46 0a.1.1 0 0 0-.1.1v3.01c0 .06.04.11.1.11a.1.1 0 0 0 .1-.1V9.34a.1.1 0 0 0-.1-.1Zm.44 0c.06 0 .1.05.1.1v1.04a.1.1 0 0 1-.1.1.1.1 0 0 1-.1-.1V9.34c0-.05.05-.1.1-.1Zm1.39.06c-.04.12-.09.17-.15.17s-.11-.05-.15-.17c-.04-.12-.1-.13-.16-.01l-.06.1a.1.1 0 0 1-.1.06h-.33c-.06 0-.1.04-.1.1l.01.04c0 .06.04.09.1.08a.98.98 0 0 1 .37.01.1.1 0 0 1 .08.08c.08.27.2.4.34.4s.26-.13.34-.4a.1.1 0 0 1 .08-.08.97.97 0 0 1 .37 0c.06 0 .1-.03.1-.09v-.03c0-.07-.02-.1-.1-.1h-.32a.1.1 0 0 1-.1-.06l-.06-.11c-.07-.12-.12-.11-.16.01Zm-.14.66c-.07.01-.14-.05-.15-.14-.01-.09.03-.17.1-.18.08 0 .15.05.16.14.01.1-.04.17-.11.18Zm-.26.89h-.33c-.05 0-.08-.03-.08-.08v-.04c0-.07.04-.1.1-.11l.35-.03c.05 0 .08-.04.08-.1a.17.17 0 0 0-.03-.1c-.05-.07-.11-.09-.19-.05l-.24.1a.09.09 0 0 1-.1-.02c-.04-.05-.05-.1-.01-.2.02-.06.08-.1.19-.12.03 0 .06-.03.06-.07 0-.02 0-.04-.02-.06a.23.23 0 0 0-.2-.07.2.2 0 0 0-.16.1.52.52 0 0 0-.05.23l-.02 2.1c0 .04.02.07.05.09l.07.04c.05.02.07 0 .07-.05v-1.24c0-.08.04-.12.12-.12h.42c.05 0 .07-.02.05-.07l-.02-.06c-.02-.05-.06-.07-.1-.07Zm.91.19c-.19.04-.37.03-.55 0-.04-.01-.05-.03-.04-.06v-.04c.02-.04.04-.06.08-.06l.44-.04c.06 0 .1-.04.1-.1l.02-.05c.01-.06-.01-.1-.08-.1h-.45c-.08 0-.1-.03-.09-.1l.02-.07c.02-.08.07-.11.15-.1l.39.1c.04.01.07 0 .08-.04.03-.06.02-.11-.04-.17l-.23-.15a.07.07 0 0 1-.03-.06l.03-.06c.08-.05.17-.06.27-.01.1.04.16.13.19.27v.64c.04.53.04 1.05 0 1.57 0 .04-.01.05-.04.05h-.06c-.05 0-.07-.03-.07-.08v-1.27c0-.06-.03-.08-.09-.07ZM7.4 12l1.05-.09c.04 0 .06.01.06.05v.36c0 .08.03.12.1.14h.04c.04.01.06 0 .06-.04v-1.23a.44.44 0 0 0-.12-.32.41.41 0 0 0-.3-.13h-.9c-.04 0-.06.02-.06.07v.08c0 .05.03.07.08.07h.88a.2.2 0 0 1 .19.12l.03.06c.02.02.02.05 0 .08a.08.08 0 0 1-.07.04H7.35a.07.07 0 0 0-.06.04.07.07 0 0 0 0 .08l.02.05a.1.1 0 0 0 .1.05h.9c.1.05.14.1.12.18 0 .05-.04.08-.1.08H7.4c-.06 0-.08.03-.08.08v.1c0 .06.03.09.09.08Zm1.83-1.08a.1.1 0 0 0-.1.1v1.29c0 .05.04.1.09.1a.1.1 0 0 0 .1-.1v-1.3a.1.1 0 0 0-.1-.09Zm.9 0c.05 0 .1.05.1.1l-.01 1.34a.1.1 0 0 1-.1.1.1.1 0 0 1-.1-.1v-1.34c0-.05.05-.1.1-.1Zm.82.6a.6.6 0 0 1 .24-.02c.06.01.07.04.05.1-.04.1-.12.18-.26.22a.14.14 0 0 0-.08.07c-.1.2-.08.38.08.56.02.02.04.03.07.03h.74c.06 0 .1-.04.1-.1v-.05c0-.05-.02-.07-.06-.07h-.7a.12.12 0 0 1-.1-.05.13.13 0 0 1-.03-.1l.01-.06c.02-.06.05-.09.11-.09h.5c.19 0 .28-.1.28-.3v-.1c0-.18-.08-.27-.25-.27h-.74c-.04 0-.07.03-.07.08v.05c0 .08.04.1.11.1Zm.52-.03.11-.02c.07-.01.14.03.15.1v.03a.13.13 0 0 1-.1.16l-.1.02a.13.13 0 0 1-.15-.1v-.03a.13.13 0 0 1 .1-.16Zm-5.1-.73c0 .1.01.18.05.25a.1.1 0 0 0 .1.05c.2 0 .33-.1.37-.33 0-.04.03-.06.08-.06a.07.07 0 0 1 .06.05c.06.2 0 .36-.15.47-.05.04-.14.07-.27.08H6.5a.14.14 0 0 0-.1.07.23.23 0 0 0-.04.18c.01.04.03.07.08.09.18.07.32.04.43-.07.12-.11.18-.09.18.08v.06c0 .3-.01.49-.07.59a.36.36 0 0 1-.33.2l-.57.01c-.15 0-.26-.03-.32-.1a.61.61 0 0 1-.2-.33 1.82 1.82 0 0 1 .01-.47c0-.03.02-.06.05-.07.03-.01.05 0 .08.01.14.12.3.15.46.1a.1.1 0 0 0 .08-.08.21.21 0 0 0-.05-.2.13.13 0 0 0-.1-.06.64.64 0 0 1-.4-.13c-.12-.1-.16-.22-.13-.38 0-.04.03-.07.06-.09h.05c.04 0 .07.03.08.07v.05c.03.11.07.18.12.2.1.06.2.07.25.04.07-.04.1-.1.1-.18 0-.09-.03-.15-.11-.18-.2-.07-.3-.23-.31-.46a.11.11 0 0 0-.07-.1l-.17-.1c-.07-.03-.07-.07-.02-.12a.2.2 0 0 1 .14-.06h1.26c.04 0 .08.01.1.06A.1.1 0 0 1 7 10l-.12.14a.2.2 0 0 0-.06.1c-.04.25-.17.39-.38.44-.04.01-.07.04-.07.08Zm.3-.6c0-.06-.03-.09-.08-.09h-.55c-.05 0-.08.03-.07.09v.01c0 .08.02.15.08.2.06.06.13.1.21.1h.12c.08 0 .15-.04.2-.1a.28.28 0 0 0 .09-.2v-.02Zm.18 1.75c0-.02-.01-.03-.03-.03l-1.02-.01c-.02 0-.03 0-.03.03v.07c0 .08.03.15.08.21.06.06.13.09.21.09h.5c.07 0 .14-.02.2-.08a.28.28 0 0 0 .09-.2v-.08Z" fill="#DA0101"/></svg>