<!-- by TradingView --><svg width="18" height="18" viewBox="0 0 18 18" xmlns="http://www.w3.org/2000/svg"><path fill="#F0F3FA" d="M0 0h18v18H0z"/><path d="m4.55 12.5-.55 1v-5c1.14 0 3.48-.25 3.5-2 .02-1.75-1.72-2-2.36-2H4V4h1.14C7.43 4 9 4.63 9 6.5 9 8.38 7.22 9 6.2 9H4.55v3.5ZM6.23 11.38 4 14l2.43-1.85v1.23l1.42-2 .81.93v-.77l.6.77-1.2 1.23 1.82-1.08L11.7 14l-1.82-2.46-.4.3L8.25 10l-1.42 1.85-.61-.47ZM9.5 4.31V4c2.2 0 4.5.5 4.5 2.5s-2.48 2.34-3.95 2.34c2.57.16 3.51 1.16 3.45 2.1v1.56c0 .63.22 1.19.58 1.19.3 0 .55 0 .74-.16l.18.16c-.44.25-.86.31-1.17.31-2.01 0-1.83-1.47-1.83-3.5C12 9.19 10.11 9 9.5 9v-.31c.86 0 3-.56 3-2.19s-1.78-2.19-2.45-2.19H9.5Z" fill="#D8B129"/></svg>