<!-- by TradingView --><svg width="18" height="18" viewBox="0 0 18 18" xmlns="http://www.w3.org/2000/svg"><path fill="#F0F3FA" d="M0 0h18v18H0z"/><path d="M9 3a6 6 0 1 0 0 12v-1.94a4.06 4.06 0 1 1 0-8.12V3Z" fill="url(#a)"/><path d="M9 3a6 6 0 0 1 0 12v-1.94a4.06 4.06 0 1 0 0-8.12V3Z" fill="url(#b)"/><circle cx="9" cy="6.63" r="1.3" fill="#E30076"/><circle cx="9" cy="6.63" r=".66" fill="#F3AFCB"/><circle cx="9" cy="11.57" r=".98" fill="#E30076"/><circle cx="6.46" cy="9" r=".98" fill="#E30076"/><circle cx="9" cy="11.57" r=".48" fill="#F3AFCB"/><circle cx="11.75" cy="9.15" r=".63" fill="#E30076"/><circle cx="11.75" cy="9.15" r=".25" fill="#F3AFCB"/><circle cx="6.46" cy="9" r=".48" fill="#F3AFCB"/><path d="M11.41 9.1 9.63 7.4l.26-.28 1.79 1.7-.27.27ZM6.9 8.41l1.3-1.3.27.27-1.3 1.3-.27-.27Zm1.48 2.79L6.9 9.69l.27-.27 1.49 1.51-.28.28Z" fill="#E30076"/><defs><linearGradient id="a" x1="6" y1="3" x2="6" y2="15" gradientUnits="userSpaceOnUse"><stop stop-color="#F5F4F9"/><stop offset="1" stop-color="#191877"/></linearGradient><linearGradient id="b" x1="12" y1="3" x2="12" y2="15" gradientUnits="userSpaceOnUse"><stop stop-color="#191877"/><stop offset="1" stop-color="#F2F2F7"/></linearGradient></defs></svg>