<!-- by TradingView --><svg width="18" height="18" viewBox="0 0 18 18" xmlns="http://www.w3.org/2000/svg"><path fill="#0266A4" d="M0 0h18v18H0z"/><path d="M4 12V6l5-3 5 3v6l-5 3-5-3Zm4.3-6.43 1.68.85H10l.63-.4h.02l1.88 1.09c.03.02.07.05.1.05a498.15 498.15 0 0 0 1.04-.01V6.2l-.01-.02L9 3.4 4.33 6.2v.96h1.5l2.45-1.58h.01Zm.52 1.58h3.06c.02 0 .07.02.1 0 .01 0 .01 0 0 0a375.74 375.74 0 0 0-1.36-.82l-.6.44a.03.03 0 0 1-.05 0l-.41-.24h-.02l-.84.6v.02h.12Zm4.85.43H4.33V11.81L9 14.6a.02.02 0 0 0 .02 0l4.64-2.79.02-.01V7.58Z" fill="#fff"/><path d="M8.82 7.15H8.7v-.01l.84-.6h.02l.41.24h.04l.62-.45h.01a364.99 364.99 0 0 1 1.34.83H8.82Z" fill="#9FF0EA"/><path d="M5.84 7.57a159.07 159.07 0 0 1 .55 1.6l.76 1.08c.06.07.08.22.1.3a4834.02 4834.02 0 0 1 .34 1.25 4249.88 4249.88 0 0 1 1.6 1.31 2157.02 2157.02 0 0 1 1.66-2.18 787.59 787.59 0 0 0 .41-1.96c.11-.13 1.2-1.36 1.2-1.38a187.32 187.32 0 0 0 1.21 0v4.21l-.02.01-4.64 2.79a.02.02 0 0 1-.02 0l-4.65-2.8V7.56h1.5Z" fill="#6CDBD5"/><path d="m8.33 7.57-.02.1a46.1 46.1 0 0 0-.16.82l1.16 2.12h.02L9.1 8.64v-.02l.66-1.04h.89l-.94 1.07-.01.03a793.34 793.34 0 0 1 .3 2L9.2 12.3c-.05.1-.03.31-.03.42h.01a2526.86 2526.86 0 0 1 1.46-1.95l.35-1.87a.2.2 0 0 1 .05-.1l1.1-1.23h.34l-1.2 1.4a2121.56 2121.56 0 0 0-2.09 4.15 8154.08 8154.08 0 0 0-1.62-1.37l-.3-1.2c-.03-.08-.05-.23-.1-.3a237.29 237.29 0 0 1-.82-1.18l-.5-1.5h.27a338.72 338.72 0 0 0 2.22 0Z" fill="#D2FFF6"/><path d="M8.32 7.58h1.45l-.66 1.04v.02l.22 1.97h-.01L8.14 8.5v-.03l.17-.88ZM12.14 7.57l-1.1 1.23a.2.2 0 0 0-.06.1 477.05 477.05 0 0 1-.37 1.92 2553.82 2553.82 0 0 0-1.45 1.9c0-.1-.02-.32.03-.42a464.72 464.72 0 0 1 .82-1.66 765.25 765.25 0 0 0-.3-1.99l.94-1.08h1.49Z" fill="#6CDBD5"/></svg>