<!-- by TradingView --><svg width="18" height="18" viewBox="0 0 18 18" xmlns="http://www.w3.org/2000/svg"><path fill="#F0F3FA" d="M0 0h18v18H0z"/><path d="m9.39 3 .25.04a6.8 6.8 0 0 1 2.25.71 5.78 5.78 0 0 1 1.94 1.71 5.96 5.96 0 0 1 1.07 2.56l.1.7v.62l-.07.51a6.5 6.5 0 0 1-.91 2.42 6.06 6.06 0 0 1-4.69 2.72 6.7 6.7 0 0 1-1.94-.2 6 6 0 0 1 .9-11.74c.06-.02.2-.02.3-.05h.8Zm5.29 6A5.68 5.68 0 1 0 3.3 9a5.68 5.68 0 0 0 11.37 0Z" fill="#925A97"/><path d="M10.55 6.73h-.01c-.14 0-.21.08-.21.24v4.05c0 .14.07.21.21.22h.01c.15 0 .22-.07.22-.2V9.69c0-.05.03-.07.08-.07h1.06a.1.1 0 0 1 .06.02l.03.06v1.32c0 .45-.28.69-.71.84-.54.2-1.1.19-1.67-.03-.6-.22-.61-.61-.62-1.17V7.13c.01-.64.38-.98 1.04-1.09.32-.05.66-.05 1 0 .59.1.9.37.94.93A14.01 14.01 0 0 1 11.97 8l-.03.01h-1.06c-.03 0-.05 0-.06-.02a.07.07 0 0 1-.03-.05l-.01-1c0-.14-.08-.2-.23-.2Z" fill="#4E183C"/><path d="M7.32 9.82v2.11l-.01.05a.06.06 0 0 1-.05.02h-1.1c-.1 0-.16-.05-.16-.16V6.3c0-.08 0-.15.02-.2 0-.03.02-.04.04-.05a10.85 10.85 0 0 1 1.4-.01c.66.04 1.34.07 1.35.98L8.8 8.76c-.02.46-.18.8-.63.9-.3.07-.46.1-.8.1l-.03.02a.06.06 0 0 0-.02.04Zm0-2.94v1.99a.1.1 0 0 0 .03.06.1.1 0 0 0 .06.03h.06c.1 0 .2-.3.2-.4V7.18c0-.05 0-.1-.02-.15-.04-.1-.2-.33-.3-.22a.1.1 0 0 0-.02.07Z" fill="#925A97"/></svg>