<!-- by TradingView --><svg width="18" height="18" viewBox="0 0 18 18" xmlns="http://www.w3.org/2000/svg"><path fill="#260347" d="M0 0h18v18H0z"/><path d="M6.1 4h1.07c.21.07.4.17.58.3.06.05.12.05.18.01L8.4 4h.45l.4.31c.06.05.12.05.18 0 .2-.13.42-.24.64-.31h1.03a4 4 0 0 1-.73 1.9.2.2 0 0 1-.17.1H7a.19.19 0 0 1-.18-.1A4.6 4.6 0 0 1 6.1 4ZM9.94 6.51H7.06c-.31 0-.56.2-.56.48V7c0 .27.25.5.56.5h2.88c.3 0 .56-.21.56-.48V7c0-.27-.25-.49-.56-.49ZM9.08 13h-1.3c-.4-.06-.74-.12-.99-.19-.33-.09-.6-.2-.83-.35-.52-.34-.84-.9-.96-1.66v-.63a4.11 4.11 0 0 1 1.54-2.4c.05-.05.1-.05.16-.01.14.1.3.24.46.24h2.57c.18 0 .33-.13.47-.25.05-.05.1-.05.16 0 .57.6 1 .98 1.3 1.72.03.04.02.08 0 .12a.1.1 0 0 1-.1.05h-.09a7.22 7.22 0 0 0-.62-.06c-.23 0-.42.03-.57.09-.39.14-.64.5-.63 1.08v2.02c0 .08 0 .12-.07.13l-.5.1Z" fill="#fff"/><path d="M13.72 10h-3.44c-.15 0-.28.11-.28.25v.5c0 .14.13.25.28.25h3.44c.16 0 .28-.12.28-.26v-.5c0-.13-.13-.25-.28-.25ZM13.74 13h-3.61a.92.92 0 0 1-.02-.9c.04-.07.1-.1.17-.1h3.34c.2 0 .3.08.34.25.1.4.02.65-.22.75Z" fill="#fff"/></svg>