<!-- by TradingView --><svg width="18" height="18" viewBox="0 0 18 18" xmlns="http://www.w3.org/2000/svg"><path fill="#F0F3FA" d="M0 0h18v18H0z"/><path d="M4 9.14h3A2.93 2.93 0 0 1 4 12V9.14Z" fill="#523080"/><path d="M10.56 9.14H7.44c0 1.58 1.4 2.86 3.12 2.86V9.14ZM7 8.86H4A2.93 2.93 0 0 1 7 6v2.86Z" fill="#6A388D"/><path d="M7.44 8.86h3.12C10.56 7.28 9.16 6 7.44 6v2.86ZM11 9.14h3A2.93 2.93 0 0 1 11 12V9.14Z" fill="#523080"/><path d="M14 8.86h-3A2.93 2.93 0 0 1 14 6v2.86Z" fill="#6A388D"/></svg>