<!-- by TradingView --><svg width="18" height="18" viewBox="0 0 18 18" xmlns="http://www.w3.org/2000/svg"><path fill="#F0F3FA" d="M0 0h18v18H0z"/><path d="m12.72 10.92-.39.25c.56.74 1.38 2.1 1.67 2.83-.01-1.03-.86-2.48-1.28-3.08Z" fill="#304EA5"/><path d="m12.2 10 .47-.07A23 23 0 0 1 12.2 6c-.37 1-.15 3.3 0 4Z" fill="#3360B1"/><path d="m12 11.73-.38.27C11 11.22 8.66 9.47 8 9c1.02.35 3.5 2.2 4 2.73Z" fill="#2952A6"/><circle cx="10.5" cy="9.5" r=".5" fill="#3360B1"/><path d="M11.68 5.54c-.46-.16-.97-.3-1.5-.42l1.14 1.91.36-1.49Zm.45.17.33 1.38.5-1.01c-.23-.12-.51-.25-.83-.37Zm-5.61 8.27v-.6l-.87-.18c.3.32.64.62.85.8l.02-.02Zm-1.2-1.19 1.5-.57-1.9-.84c.06.46.12.8.16.95.03.13.12.3.24.46Zm-.43-1.6c-.18-1.66-.21-4.54 1.47-5.7.98-.68 2.4-.66 3.75-.38l.1 2.06-1.82-1.83.67 2.26-2.25-1.45L8.17 8.6l-2.44-1 1.42 1.79-2.26-.14 2.26 1.6-2.26.33Z" fill="url(#a1olv0opw)"/><path d="M11.82 4.94A5.21 5.21 0 0 0 8.88 4C6.24 4 4 6.47 4 9.3c0 1.59.58 2.75 1.2 3.54l.46-.18a5.53 5.53 0 0 1-.29-1.08l-.8-.35.74-.1a5.28 5.28 0 0 1 .06-1.53l-.48-.35.54.03c.1-.44.26-.94.5-1.43l-.2-.25.26.1c.24-.46.56-.9.96-1.3l-.14-.25.25.16c.38-.34.83-.62 1.38-.8l-.05-.17.14.14a4.79 4.79 0 0 1 1.58-.2l-.01-.3.19.3c.47.05.95.19 1.37.35l.16-.69Z" fill="url(#b1olv0opw)"/><path d="m11.97 5.05.19.8c.3.14.55.28.7.4l.14-.2c-.2-.27-.55-.64-1.03-1Z" fill="url(#c1olv0opw)"/><path d="m5.94 13.26-.44-.09c.38.42.77.69 1 .83-.2-.23-.4-.48-.56-.74Z" fill="#E2822C"/><defs><linearGradient id="a1olv0opw" x1="12.27" y1="5.44" x2="4.99" y2="12.7" gradientUnits="userSpaceOnUse"><stop stop-color="#F5D54E"/><stop offset="1" stop-color="#EC9F49"/></linearGradient><linearGradient id="b1olv0opw" x1="11.39" y1="4.57" x2="4.15" y2="11.76" gradientUnits="userSpaceOnUse"><stop stop-color="#F0B348"/><stop offset="1" stop-color="#E2822C"/></linearGradient><linearGradient id="c1olv0opw" x1="11.39" y1="4.57" x2="4.15" y2="11.76" gradientUnits="userSpaceOnUse"><stop stop-color="#F0B348"/><stop offset="1" stop-color="#E2822C"/></linearGradient></defs></svg>