<!-- by TradingView --><svg width="18" height="18" viewBox="0 0 18 18" xmlns="http://www.w3.org/2000/svg"><path fill="#F0F3FA" d="M0 0h18v18H0z"/><path d="M9 12c.04.03.1.12.1.32 0 .24-.06.8-.1 1.06-.01.17 0 .53.2.62H14v-1.03c0-.54-.48-.97-1.07-.97H9Z" fill="url(#apgf1vo1c)"/><path d="M10.66 11.5h2.6c.47-.76.74-1.54.74-2.5a5 5 0 0 0-9.26-2.63h2.8a3 3 0 0 1 3.11 5.13Z" fill="url(#bpgf1vo1c)"/><path d="M8.5 13.97A5 5 0 0 1 4.41 7h2.34a2.99 2.99 0 0 0 1.77 4.96v.59c-.02.27-.08.89-.08 1.15 0 .13.02.22.04.27Z" fill="url(#cpgf1vo1c)"/><defs><linearGradient id="apgf1vo1c" x1="14" y1="13" x2="8.99" y2="13" gradientUnits="userSpaceOnUse"><stop stop-color="#FEFEFE"/><stop offset=".11" stop-color="#176363"/></linearGradient><linearGradient id="bpgf1vo1c" x1="5.94" y1="7.75" x2="11.41" y2="2.17" gradientUnits="userSpaceOnUse"><stop stop-color="#FEFEFE"/><stop offset=".25" stop-color="#176363"/></linearGradient><linearGradient id="cpgf1vo1c" x1="4.47" y1="7" x2="8.48" y2="13.94" gradientUnits="userSpaceOnUse"><stop offset=".01" stop-color="#FCFCFC"/><stop offset=".21"/></linearGradient></defs></svg>