<!-- by TradingView --><svg width="18" height="18" viewBox="0 0 18 18" xmlns="http://www.w3.org/2000/svg"><path fill="#F0F3FA" d="M0 0h18v18H0z"/><path d="M8.1 10.58a24.93 24.93 0 0 0 5.76-1.9l.2-.17c-2 .65-3.85 1.17-5.54 1.42l-.42.65Zm2.37-2.2c1.39-.17 2.82-.4 4.76-.85l.19-.15a52.2 52.2 0 0 1-4.6.45l-.35.54Zm-7.91.38-.56.9c5.86.47 9.98-.66 12.59-1.6l.29-.23c-2.67.71-5.83 1.42-12.32.93ZM12 7l-.31.47c1.27-.06 2.66-.18 4.12-.37L16 7h-4ZM8.52 9.93c-.64.08-1.67.2-2.3.24l-.47.71c.66-.04 1.72-.2 2.35-.3l.42-.65Zm.53 1.42a16.7 16.7 0 0 0 3.75-1.76l.43-.37a27.94 27.94 0 0 1-3.7 1.41l-.48.72Zm.01-2.85c.33-.02 1.06-.1 1.41-.13l.36-.54-1.36.04-.4.63ZM9.31 7H7.63l-.34.52h1.68L9.3 7Zm1.5 0h-1.5l-.34.52h1.5l.34-.52Zm-4.93 4.28-.46.72c1.12-.05 2.61-.36 3.63-.65l.47-.72c-1.08.28-2.59.57-3.64.65ZM3.56 10.2l-.48.76c.48.02 1.77-.03 2.67-.08l.47-.71c-.77.03-2.33.04-2.66.03Zm5.5-1.7.41-.63c-.97 0-2.38.03-3.2 0l-.43.64c.54.02 2.1.03 3.22-.01Zm2.63-1.03-1.22.05.34-.52H12" fill="#FD5000"/></svg>