<!-- by TradingView --><svg width="18" height="18" viewBox="0 0 18 18" xmlns="http://www.w3.org/2000/svg"><path fill="#F0F3FA" d="M0 0h18v18H0z"/><path fill-rule="evenodd" d="M4 4h10v10H4V4Zm5 5.22c0-.77.45-1.2.9-1.45-.33-.21-.69-.57-.69-1.22 0-.99.8-1.55 1.79-1.55 1 0 1.79.56 1.79 1.55 0 .65-.36 1-.7 1.22.46.24.91.68.91 1.45 0 1.18-.9 1.78-2 1.78s-2-.6-2-1.78Zm2-1.83c.49 0 .74-.32.74-.71 0-.38-.25-.7-.74-.7s-.74.32-.74.7c0 .39.25.71.74.71Zm0 2.56c.51 0 .81-.4.81-.86 0-.45-.3-.84-.81-.84s-.81.4-.81.84c0 .47.3.86.81.86ZM5 7.29h1.2c0-.81.4-1.15.89-1.15.4 0 .63.3.63.74 0 .57-.48.97-1.1 1.5-.22.18-.47.38-.71.6A2.63 2.63 0 0 0 5 11h4v-1H6.8c.15-.17.35-.36.57-.55C8.09 8.79 9 7.97 9 6.78 9 5.66 8.25 5 7.13 5 5.73 5 5 5.91 5 7.29Z" fill="#F87820"/><path fill="#FBB079" d="M5 12h8v1H5z"/></svg>