<!-- by TradingView --><svg width="18" height="18" viewBox="0 0 18 18" xmlns="http://www.w3.org/2000/svg"><path fill="#F0F3FA" d="M0 0h18v18H0z"/><path d="M13.67 6.74a1 1 0 1 0-1.35-1.48c-1.35-.64-3.11.02-4 .55a3.63 3.63 0 0 1 3.72.48 1 1 0 0 0 .46.57C14.13 9.68 10.2 12.78 8 14h.65c4.62-2.04 6.08-4.95 5.02-7.26Z" fill="#9E1F4A"/><path d="M9.73 8H10l.46 1.25.46-1.25h.28l-.63 1.67h-.22L9.73 8Zm-.14 0h.3v1.67h-.3V8Zm1.47 0h.3v1.67h-.3V8ZM8.58 9.67h-.33v-.25h.33c.28 0 .42-.25.42-.54v-.09c0-.3-.13-.54-.41-.54h-.35V8h.35c.4 0 .7.33.7.8v.08c0 .46-.3.79-.7.79ZM8.41 8v1.67h-.3V8h.3ZM7.26 9.17l.55.65-.2.18-.55-.66.2-.17Zm.56-.34c0 .49-.3.84-.73.84s-.74-.35-.74-.84c0-.48.31-.83.74-.83.42 0 .73.35.73.83Zm-.3 0c0-.29-.15-.57-.43-.57-.29 0-.44.29-.44.57 0 .3.15.58.44.58.28 0 .44-.29.44-.58Z" fill="#F30509"/><path d="M6 6.01V6a1 1 0 1 0-1.47.88C3.23 8.63 4.46 12.2 6.84 14c-1.13-1.65-2.81-5.06-1.38-6.59.92-.98 3.03-.33 3.54.33C8.47 7 7.27 5.87 6 6.01Z" fill="#7488C9"/></svg>