<!-- by TradingView --><svg width="18" height="18" viewBox="0 0 18 18" xmlns="http://www.w3.org/2000/svg"><path fill="#F0F3FA" d="M0 0h18v18H0z"/><path d="m11.32 5 .12.05c.1.03.1.08 0 .13-.3.15-.55.36-.74.61a5.44 5.44 0 0 0-.54 1.02 2.88 2.88 0 0 1-1.88 1.67c-.13.04-.35.09-.67.15-.8.17-1.4.34-1.77.52-.65.31-1.05.76-1.22 1.35-.24.85.07 1.59.93 2.21.05.04.05.07.01.12-.02.02-.05.03-.08.02C3.87 12.1 3.04 10.94 3 9.34 2.94 6.8 4.27 5.35 7 5h4.32Z" fill="#A4BC1E"/><path d="M10.45 10.39c.48-.04.84-.25 1.1-.64.21-.33.29-.7.22-1.1-.13-.74-.58-1.18-1.36-1.35-.08-.02-.1-.06-.07-.14l.05-.12c.26-.56.47-.95.63-1.16.25-.34.58-.56.99-.68.26-.07.58-.01.96.18.64.33 1.13.8 1.49 1.4a4.1 4.1 0 0 1 .14 3.84c-.3.64-.75 1.15-1.33 1.54a.7.7 0 0 1-.8.02 7.6 7.6 0 0 1-2.04-1.74c-.02-.03-.01-.05.02-.05Z" fill="#239A7B"/><path d="M12.69 12.63c.26.07.43.13.52.17.34.14.33.2-.04.2H7.83c-1.08 0-1.86-.23-2.33-.65a1.71 1.71 0 0 1-.57-1.56c.05-.4.22-.73.53-1 .27-.24.61-.4 1.02-.5a3.4 3.4 0 0 1 2.84.66c.57.43 1.08.89 1.54 1.37a6.25 6.25 0 0 0 1.83 1.3Z" fill="#116FB5"/></svg>