<!-- by TradingView --><svg width="18" height="18" viewBox="0 0 18 18" xmlns="http://www.w3.org/2000/svg"><path d="M0 9a9 9 0 1 1 18 0A9 9 0 0 1 0 9Z" fill="#F0F3FA"/><path d="M11.94 11s.66.67.95 1c.44-.4 1.04-.71 1.11-2.06v-3.2C14 5.77 13.03 5 11.85 5h-5.7C4.97 5 4 5.8 4 6.77v2.58C4 10.11 4 13 8.44 13c1.74 0 1.6.4 2.05 1h1.77c.05 0 .07-.04.07-.1 0-.45-.59-2.4-3.89-2.4-.84 0-2.94 0-2.94-2.15V7.08c0-.38.47-.58.93-.58h5.14c.46 0 .93.2.93.58v2.86c-.04.3 0 .63-.56 1.06Z" fill="url(#abv5luwco)"/><defs><linearGradient id="abv5luwco" x1="3.79" y1="5.15" x2="12.34" y2="15.54" gradientUnits="userSpaceOnUse"><stop offset=".09" stop-color="#05F7FF"/><stop offset=".41" stop-color="#655CFF"/><stop offset=".58" stop-color="#9A02FD"/></linearGradient></defs></svg>