<!-- by TradingView --><svg width="18" height="18" viewBox="0 0 18 18" xmlns="http://www.w3.org/2000/svg"><path fill="#F0F3FA" d="M0 0h18v18H0z"/><path d="M5.56 4.57c0-.31.3-.57.6-.57h.65v.82H6.5V10H7V4.57c0-.31.35-.57.66-.57h4.09c.13 0 .25.05.35.13l.8.66-.5.64-.74-.43H8v.56h5.23c.23 0 .44.25.53.47l.24.66-.73.26-.2-.45H8V7h5.35c.31 0 .65.4.65.72v4.08c0 .13-.04.26-.12.36l-.59.64-.63-.5.34-.58V8h-.56v5.26c0 .25-.15.47-.39.55l-.62.19-.23-.78.3-.16V8H11v5.38c0 .31-.44.62-.75.62H6.08c-.16 0-.31-.12-.42-.24l-.5-.57.6-.55.43.36H10v-.56H4.87c-.2 0-.39-.16-.49-.34L4 11.46l.68-.4.32.44h5V11H4.56c-.3 0-.56-.39-.56-.7V6.36c0-.11.03-.23.1-.32l.67-.79.66.47-.43.72V10h.56V4.57ZM10 10V8H8v2h2Z" fill="#BA0000"/></svg>