<!-- by TradingView --><svg width="18" height="18" viewBox="0 0 18 18" xmlns="http://www.w3.org/2000/svg"><path fill="#F0F3FA" d="M0 0h18v18H0z"/><path d="m9.01 3.02-.32.07c-.02 0-.03.01-.02.03.1.24 0 .4-.19.54a.45.45 0 0 1-.17.08c-.87.2-1.58.36-2.27.87-.46.34-.83.63-1.1.86-.06.05-.13.15-.22.3h-.04c-.15-.14-.28-.3-.39-.48a6.02 6.02 0 0 1 4.4-2.28c.1-.02.21 0 .32.01Z" fill="#ECF6C5"/><path d="m10.9 3.33-.57-.08a.02.02 0 0 0-.02.02c.18.43-.16.58-.52.58-.54 0-1.07-.04-1.62.05l-.44.08a.87.87 0 0 0-.4.22l-.15.04c-.24.06-.46.19-.68.27-.5.18-.8.57-1.14.9-.38.3-.6.5-.67.6l-.5.7a.04.04 0 0 1-.04.01.87.87 0 0 1-.53-.36c.19-.37.41-.73.68-1.07.1.18.23.34.38.48h.04c.09-.15.16-.25.23-.3.26-.23.63-.52 1.1-.86.68-.51 1.39-.68 2.26-.87a.45.45 0 0 0 .17-.08c.2-.14.3-.3.19-.54 0-.02 0-.03.02-.03L9 3.02c.65 0 1.28.1 1.9.31Z" fill="#D8EC8B"/><path d="M10.9 3.33a4 4 0 0 1 1 .44c.09.4.2.76.33 1.08.05.13.02.16-.1.08-.16-.1-.4-.23-.7-.37-.21-.1-.37-.22-.57-.28a5.78 5.78 0 0 0-2.36-.3c-.35.04-.78.15-1.17.22.1-.1.24-.18.4-.22l.44-.08c.55-.1 1.08-.06 1.62-.05.36 0 .7-.15.52-.57a.02.02 0 0 1 .01-.03h.01l.57.08Z" fill="#B8E049"/><path d="M11.9 3.77c.73.4 1.33.91 1.8 1.53-.05.09-.06.2-.03.33l.29 1.18a7.27 7.27 0 0 1-.09 3.9c-.14.3-.28.65-.46.9-.28.4-.61.75-.99 1.06l-.78.64c-.1.09-.2.15-.31.2-.34.14-.72.27-1.12.4a5.78 5.78 0 0 1-3.23-.15c-.5-.17-.97-.4-1.38-.73-.67-.5-1.32-1.08-1.96-1.74a.67.67 0 0 0-.26-.17c-.37-.98-.47-2-.3-3.05.17.27.4.64.76.53A6.83 6.83 0 0 1 5 5.81l.34-.34c.05-.05.05-.07.02-.06.35-.33.64-.72 1.14-.9.22-.08.44-.2.68-.27l.15-.04c.4-.07.82-.18 1.17-.22.81-.09 1.54.06 2.35.3.21.06.37.17.58.28.3.14.54.27.7.37.12.08.15.05.1-.08a6.3 6.3 0 0 1-.33-1.08Z" fill="#97D11E"/><path d="m11.57 4.85-.18-.06c-.01 0-.02 0-.02.02 0 .04.01.09.03.13l.3.54c.05.08.03.1-.05.08-.53-.16-1-.52-1.48-.68a4.1 4.1 0 0 0-2.54.02v.01l-.53.27c-.11.05-.16.1-.26.15l-.17.14c-.05.05-.11.1-.18.14-.09.05-.19.14-.3.26a6.92 6.92 0 0 1-.49.47l-.36.54c-.35.56-.44 1.17-.6 1.77l-.06.1a.1.1 0 0 1-.14-.05c-.1-.16-.21-.3-.34-.41a5 5 0 0 1 .5-1.58c.04.11.1.3.21.33.21.05.44-.4.55-.58.09-.13.17-.24.27-.33.17-.17.3-.33.42-.47.03-.04.07-.06.12-.06v.01h.02c.17-.17.37-.31.61-.43.06-.02.1-.06.15-.1.15-.12.33-.16.52-.23v-.02h-.01l-.22.08c-.02 0-.02 0 0 0a10.17 10.17 0 0 1 1.22-.28c.17-.04.31-.12.43-.24v-.04c-.02-.02-.02-.04 0-.07a.04.04 0 0 0 0-.04c-.02-.07-.08-.12-.18-.16a4.75 4.75 0 0 1 2.76.77Z" fill="#27C370"/><path d="M8.81 4.08c.1.04.16.1.18.16v.04c-.02.03-.02.05 0 .07v.04a.77.77 0 0 1-.43.23 10.17 10.17 0 0 0-1.23.28c0 .01 0 .01 0 0l.22-.08.02.01v.02c-.19.07-.37.1-.52.23a.68.68 0 0 1-.15.1c-.24.12-.44.26-.61.44h-.01V5.6c-.06 0-.1.02-.13.06-.11.14-.25.3-.42.47-.1.09-.18.2-.27.33-.1.17-.34.63-.55.58-.11-.03-.17-.22-.2-.33a4.92 4.92 0 0 1 3.51-2.58c.2-.03.4-.05.6-.05Z" fill="#7CE2B7"/><path d="M11.57 4.85c.28.18.54.39.78.62-.04 0-.08 0-.1.02a.05.05 0 0 0-.03.04c0 .08.01.14.04.19.28.48.47.9.58 1.23.28.9.44 1.7.29 2.6-.04.25-.14.58-.28 1a4.21 4.21 0 0 1-1.51 1.97c-.14.08-.28.16-.41.21-.25.1-.54.27-.8.36-.39.12-.76.17-1.14.24-.58 0-.96-.02-1.15-.05-.2-.04-.46-.13-.8-.26a7.88 7.88 0 0 1-.74-.37l-1.15-.64-.2-.3c.27.08.47.27.65.41.23.18.47.32.7.47a4.24 4.24 0 0 0 1.35.58v-.01A7.08 7.08 0 0 1 5.5 11.9c-.3-.3-.47-.49-.8-.62a5.1 5.1 0 0 1-.5-3c.12.11.23.25.33.41a.1.1 0 0 0 .14.05l.06-.1c.16-.6.25-1.21.6-1.77.2-.32.33-.5.36-.54a10 10 0 0 1 .49-.47c.11-.12.21-.2.3-.26l.18-.14.17-.14c.1-.04.15-.1.26-.15a34.78 34.78 0 0 0 .54-.28h-.02a.7.7 0 0 0-.11.04H7.5v-.01l.05-.02c.18-.06.37-.1.58-.15a4.1 4.1 0 0 1 2.04.12c.49.16.95.52 1.48.68.08.03.1 0 .06-.08-.07-.1-.17-.3-.3-.54a.28.28 0 0 1-.04-.13c0-.02 0-.03.02-.02l.18.06Z" fill="#009B35"/><path d="M13.7 5.3a6 6 0 0 1-9.37 7.46c.47.12.91.31 1.33.55a6.8 6.8 0 0 0 1.6.68c.48.15.85.15 1.5.19.87.05 1.66-.1 2.38-.45.31-.16.6-.32.86-.49a4.76 4.76 0 0 0 1.87-2.53 7.27 7.27 0 0 0 .09-3.9l-.29-1.18a.47.47 0 0 1 .03-.34Z" fill="#57A309"/><path d="M3.08 8.07c.08-.59.27-1.16.54-1.71.14.2.32.31.53.36.02 0 .03 0 .04-.02l.5-.69c.07-.1.3-.3.67-.6.03 0 .03.01-.02.06L5 5.82A6.83 6.83 0 0 0 3.84 8.6c-.36.1-.59-.27-.76-.54Z" fill="#B8E049"/><path d="M12.35 5.47c.4.4.73.87.97 1.38-.04.23-.05.43-.04.61.05.72.09 1.37-.03 2-.1.49-.12.8-.28 1.16-.15.35-.26.56-.32.66-.27.41-.59.78-.95 1.1-.78.67-1.68.99-2.71.95.38-.07.75-.12 1.13-.24.27-.1.56-.26.8-.36.14-.05.28-.13.41-.22a4.21 4.21 0 0 0 1.52-1.97c.14-.4.24-.74.28-.99.15-.9-.01-1.7-.3-2.6-.1-.34-.3-.75-.57-1.23a.38.38 0 0 1-.04-.19.05.05 0 0 1 .02-.04.15.15 0 0 1 .1-.02Z" fill="#017C21"/><path d="M10.74 6.6c-.27-.13-.57-.2-.91-.2L8.2 6.4c-.17 0-.32.06-.46.08a.91.91 0 0 0-.6.37c-.09.15-.22.44-.38.88l-.17.1c-.04.01-.07-.02-.1-.1.13-.33.26-.63.4-.88.17-.35.5-.55.9-.64.11-.03.29-.04.53-.05.92-.03 1.4-.05 2.09.08.2.03.38.1.56.2v.02l-.23.14Z" fill="#7CE2B7"/><path d="m10.74 6.6.21.15.02.5c0 .1-.01.24-.05.4-.16.77-.38 1.5-.64 2.19-.05.13-.08.28.1.3l.06.01h1.25c.01 0 .03 0 .04.03l-.22.2c-.06.05-.1.1-.1.14-.03.1-.04.25-.2.25l-1.47-.01c-.5 0-.9.06-1.27.39l-.33.33c-.01-.04 0-.08.02-.13.12-.28.2-.48.49-.67.2-.14.52-.28.94-.41l.4-.05c.02 0 .03 0 .05-.02.02 0 .02-.01 0-.02l-.12-.07a.05.05 0 0 1-.02-.06.21.21 0 0 0 .01-.09.04.04 0 0 0-.04-.03c-.18 0-.36.04-.54.1l-.27.13c-.24.13-.45.17-.72.24a.78.78 0 0 0-.42.25c-.1.1-.17.11-.3.1a3.22 3.22 0 0 1-.75-.12 2.17 2.17 0 0 1-.58-.33l-.08-.39c0-.14.01-.28.04-.42.13-.6.3-1.18.5-1.75.17-.44.3-.73.4-.88a.91.91 0 0 1 .6-.37c.13-.02.28-.08.45-.08l1.63-.01c.34 0 .64.07.91.2Z" fill="#F0F3FA"/><path d="m10.76 9.9-.32.25-.06-.01c.08-.29.23-.57.3-.81.23-.71.38-1.26.44-1.63.03-.18.01-.45-.06-.8l-.07-.13a.13.13 0 0 1-.02-.03.02.02 0 0 1 0-.03H11c.13.08.24.18.34.29.14.16.09.65.05.85-.13.58-.3 1.16-.49 1.74-.03.1-.08.2-.14.31Z" fill="#051309"/><path d="m10.99 6.77.07.13a.6.6 0 0 1-.09.34l-.02-.49.04.02Z" fill="#858A87"/><path d="M13.32 6.85a5.02 5.02 0 0 1-1.77 6.34A4.74 4.74 0 0 1 5.15 12l1.15.64c.28.15.53.28.75.37.33.13.6.22.8.26.18.03.56.05 1.14.05a3.78 3.78 0 0 0 2.7-.95c.37-.32.7-.69.96-1.1.06-.1.17-.31.32-.66.16-.35.19-.67.28-1.17.12-.62.08-1.27.03-1.99-.01-.18 0-.38.04-.61Z" fill="#035E13"/><path d="M10.38 10.14c-.18-.02-.15-.17-.1-.3.26-.7.48-1.42.64-2.19.04-.16.05-.3.05-.4a.6.6 0 0 0 .09-.35c.07.35.1.62.06.8-.06.37-.2.92-.43 1.63-.08.24-.23.52-.3.81ZM9.72 7.09c.08.13.09.24.03.32l-.03-.14c0-.02-.02-.03-.04-.03h-.1a2.09 2.09 0 0 0-.99 0c-.26.07-.37.3-.46.54-.22.61-.42 1.23-.6 1.86a.81.81 0 0 0 0 .29l-.17-.03c-.04-.34.05-.57.13-.89.13-.46.28-.93.45-1.38.1-.26.22-.5.5-.58.45-.13.88-.11 1.28.04Z" fill="#1A1C1A"/><path d="M9.75 7.92h-.03l-.03-.03c0-.07 0-.14-.02-.22 0-.02-.02-.03-.04-.02-.05.01-.08.05-.1.1-.11.42-.24.74-.39 1.22-.09.28-.15.45-.2.52-.07.13-.14.33-.28.37-.23.07-.49.05-.72.05a.09.09 0 0 0-.09.09c0 .04-.01.09-.05.14a.9.9 0 0 0-.13-.08c-.12-.05-.24.02-.31-.16l.17.03c.1.1.23 0 .25-.09a29.21 29.21 0 0 1 .68-2.14c.05-.12.16-.2.3-.2a3.79 3.79 0 0 1 .86 0c.08-.02.12-.04.13-.09.06-.08.05-.2-.03-.32.1.06.14.12.13.19 0 .1-.05.17-.05.28 0 .12-.02.24-.05.36Z" fill="#009B35"/><path d="M9.75 7.41c0 .05-.05.07-.13.09h-.14a3.79 3.79 0 0 0-.71 0c-.15 0-.26.08-.31.2a29.22 29.22 0 0 0-.68 2.14c-.02.09-.15.2-.25.09a.81.81 0 0 1 0-.3c.18-.62.38-1.24.6-1.85.09-.24.2-.47.46-.54.34-.08.66-.08.98 0h.11c.02 0 .03.01.04.03l.03.14Z" fill="#051309"/><path d="M9.75 7.92c-.17.54-.34 1.07-.53 1.6-.06.2-.15.34-.26.45a.73.73 0 0 1-.38.18c-.2.04-.47.04-.78 0 .04-.06.05-.11.05-.15a.09.09 0 0 1 .06-.09h.03c.23 0 .5.02.72-.05.14-.04.2-.24.29-.37.04-.07.1-.24.19-.52.15-.48.28-.8.4-1.22 0-.05.04-.09.09-.1.02 0 .03 0 .04.02.02.08.03.15.02.22 0 .01.01.02.03.02l.03.01Z" fill="#7CE2B7"/><path d="M6.76 7.74c-.21.57-.38 1.15-.51 1.75-.03.14-.04.28-.04.42v-.2c0-.01-.01-.02-.03-.01h-.03l-.01.02c-.03.13-.07.26-.14.38H6c-.02-.32 0-.6.05-.84.1-.46.25-.96.45-1.51.03.07.06.1.1.08.06-.02.11-.05.17-.09Z" fill="#27C370"/><path d="m10.76 9.9.94.02.04.01a.1.1 0 0 1 .03.03V10l-.03.02a.25.25 0 0 0-.06.02c-.02.02-.03.03-.03.05 0 .02.01.04.04.05l-1.25.01.32-.25Z" fill="#7CE2B7"/><path d="m9.99 10.22-.41-.05h-.03v-.03l-.01-.08c0-.02-.02-.03-.04-.03h-.17c.18-.06.36-.1.54-.1a.04.04 0 0 1 .04.03l-.01.1a.05.05 0 0 0 .02.05l.12.07c.02.01.02.02 0 .02a.13.13 0 0 1-.05.02Z" fill="#858A87"/><path d="M9.33 10.03h.17c.02 0 .03 0 .04.03v.08l.01.02.03.01.4.05-.4.05a2.16 2.16 0 0 0-1.61.97c-.47.04-.88 0-1.25-.16a.93.93 0 0 1-.45-.4.48.48 0 0 1-.06-.18c-.02-.14 0-.2.07-.2.24.17.44.28.59.33.22.06.46.1.75.12.13.01.2 0 .3-.1.13-.13.24-.2.42-.25.27-.07.48-.11.72-.24.1-.05.18-.1.27-.13Z" fill="#051309"/><path d="M13.65 11.34a5.66 5.66 0 0 0 .44-1.27l.02.02a4.05 4.05 0 0 1-.45 1.27h-.01v-.02Z" fill="#6CB20D"/><path d="M8.14 11.48c.1-.12.22-.23.33-.33.36-.33.78-.39 1.27-.39h1.48c.15 0 .16-.13.19-.24 0-.04.04-.09.1-.14l.22-.2c.03-.04.07-.05.13-.03.02.01.03 0 .04-.01a.1.1 0 0 1 .02-.04c.02-.02.03-.02.03 0 .02.17.01.3-.01.38-.08.25-.16.69-.36.75a.67.67 0 0 1-.17.03l-1.8.01c-.44 0-.82.14-1.15.4a.46.46 0 0 1-.38.1c-.02 0-.04-.01-.04-.04-.03-.1 0-.18.1-.25Z" fill="#051309"/><path d="M9.59 10.27c-.42.13-.74.27-.94.4-.3.2-.37.4-.5.68a.15.15 0 0 0-.1.05L8 11.4c-.03 0-.05 0-.07-.03a.05.05 0 0 1 0-.04l.03-.1a2.16 2.16 0 0 1 1.62-.97Z" fill="#27C370"/><path d="M13.87 10.71a4.76 4.76 0 0 1-2.73 3.02c-.72.35-1.51.5-2.38.45-.65-.04-1.02-.04-1.5-.19a6.8 6.8 0 0 1-1.6-.68 5.67 5.67 0 0 0-1.33-.55c-.39-.46-.7-1-.95-1.64.09.03.17.09.26.17.64.66 1.3 1.24 1.96 1.74a4.68 4.68 0 0 0 2 .9 5.79 5.79 0 0 0 2.6-.02c.41-.13.79-.26 1.13-.4.1-.05.2-.11.3-.2l.79-.64c.38-.31.7-.67 1-1.06.17-.25.3-.6.45-.9Z" fill="#6CB20D"/></svg>