<!-- by TradingView --><svg width="18" height="18" viewBox="0 0 18 18" xmlns="http://www.w3.org/2000/svg"><path fill="#F0F3FA" d="M0 0h18v18H0z"/><path fill-rule="evenodd" d="M9 12a3 3 0 1 0 0-6 3 3 0 0 0 0 6Zm0-1a2 2 0 1 0 0-4 2 2 0 0 0 0 4Z" fill="#3BA8F2"/><path d="M11.19 12.93c.14.24.05.55-.2.66A4.98 4.98 0 0 1 4 9a5 5 0 1 1 8.98 3.03c-.17.22-.49.23-.69.04-.2-.19-.2-.5-.05-.73a4 4 0 1 0-1.75 1.37c.26-.1.56-.02.7.22Z" fill="#FFC501"/><path d="M10.31 9.53c.09-.14.16-.3.21-.48-.29.02-.73-.07-.17-.62-.17 0-.53-.1-.56-.46-.04.12-.16.36-.39.36-.22 0-.35-.26-.4-.39-.07.1-.37.27-.91.13.06.22.12.72-.16.98.24.09.6.35.04.74.14-.02.44.07.47.54.22-.23.68-.52.68.18.14-.05.34-.14.55-.29l3.54 3.64c.18.19.47.19.65 0a.49.49 0 0 0 0-.67l-3.55-3.66Z" fill="#DF431A"/></svg>