<!-- by TradingView --><svg width="18" height="18" viewBox="0 0 18 18" xmlns="http://www.w3.org/2000/svg"><path fill="#F0F3FA" d="M0 0h18v18H0z"/><ellipse cx="9" cy="9" rx="7" ry="4" fill="url(#a)"/><path d="M11.8 5.44c.64.19 1.26.44 1.83.8.5.32.95.74 1.21 1.28l.14.37c.3 1.25-.67 2.21-1.64 2.74l-.29.15a8.53 8.53 0 0 1-3.5.83c-.26 0-.48.02-.71.01-.25 0-.43 0-.64-.03a9.32 9.32 0 0 1-2.75-.6 5.44 5.44 0 0 1-1.55-.9c-.67-.58-1.1-1.4-.83-2.3.2-.6.67-1.1 1.18-1.45a6.71 6.71 0 0 1 2.14-.94 10.57 10.57 0 0 1 5.4.04Zm-3.32-.3c-.75.03-1.48.14-2.16.33-.47.13-.9.29-1.3.48-.34.16-.65.35-.91.55-.27.2-.49.43-.66.66-.14.2-.25.41-.32.62-.17.5-.12 1 .15 1.48.16.3.4.6.73.85a4.86 4.86 0 0 0 1.58.89 8.99 8.99 0 0 0 2.98.57 10.92 10.92 0 0 0 3.5-.45c.35-.11.68-.24.98-.39.31-.16.6-.33.85-.52.23-.18.43-.37.6-.57.14-.18.25-.37.34-.57a1.79 1.79 0 0 0-.05-1.56 2.6 2.6 0 0 0-.44-.61c-.24-.26-.55-.5-.91-.72-.34-.2-.72-.38-1.14-.52a9.24 9.24 0 0 0-1.93-.45 11 11 0 0 0-1.89-.07Z" fill="#38438B"/><path d="m8.78 5.2-.01.05-.34.02A5.1 5.1 0 0 1 8 5.3c-.1 0-.2.01-.32.05h-.12l-.58.09c-.37.07-.75.17-1.14.3-.03 0-.05 0-.06-.02l.51-.17c.5-.13 1-.22 1.5-.28l.11-.01.3-.03.11-.01.46-.01ZM12.22 5.7a.1.1 0 0 1-.05.03l-.53-.16c-.67-.17-1.35-.27-2.04-.3l-.02-.05c.9.04 1.79.2 2.64.48Z" fill="#286233"/><path d="M8.43 5.27v.65l-.02.01c-.25.06-.49.16-.71.3v.01l.79.06-.2.05-.64-.07A2.37 2.37 0 0 0 6.6 7.95a.1.1 0 0 1-.05.02c.1-.7.42-1.27.97-1.68v-.02a7.33 7.33 0 0 1-.96-.18 3.2 3.2 0 0 0-.94 2.17H5.6v-.25a3.26 3.26 0 0 1 .91-1.95l-.25-.08-.31-.13-.16-.08a.02.02 0 0 0-.01 0c-.57.2-1.13.47-1.6.84a2.4 2.4 0 0 0-.94 1.37 1.68 1.68 0 0 0-.02.43l.01.04.02.17.02.04v.01c.1.42.35.79.66 1.08l.18.15a5.27 5.27 0 0 0 1.6.87 3.03 3.03 0 0 1 .68-.29A3.29 3.29 0 0 1 5.66 9h.03l.02.01v.03c.1.44.29.85.56 1.22l.17.2h.02a8.02 8.02 0 0 1 1.13-.22 2.45 2.45 0 0 1-.85-1.04L6.66 9c.03 0 .05 0 .06.02.18.51.5.91.94 1.2.01.02.03.02.05.02l.51-.05.14.05-.6.04v.01a2.27 2.27 0 0 0 2.34-.02l-.4-.03a.26.26 0 0 1 .09-.04l.36.03.05-.01c.43-.3.73-.68.91-1.17h1.04l.01.01a3.25 3.25 0 0 1-.68 1.4c.05 0 .12.03.23.06a2.88 2.88 0 0 1 .62.26c.32-.1.62-.24.9-.4.44-.24.85-.54 1.17-.93.19-.23.32-.5.4-.79v-.04l.03-.17v-.04c.02-.3-.03-.57-.16-.84a3.21 3.21 0 0 0-1.4-1.35 6.2 6.2 0 0 0-1.05-.46c-.4.22-.82.34-1.26.43a9.87 9.87 0 0 1-1.37.13 8.67 8.67 0 0 0 1.81-.28 3.24 3.24 0 0 0 .82-.34c.4.14.8.31 1.17.52.6.36 1.17.86 1.41 1.54.13.43.1.84-.07 1.23a3.4 3.4 0 0 1-1.62 1.51 8.15 8.15 0 0 1-3.19.84l-.15.01-.36.02-.57.01a12.58 12.58 0 0 1-2.06-.24 7.8 7.8 0 0 1-1.05-.3c-.59-.21-1.14-.49-1.64-.89a2.66 2.66 0 0 1-.8-1.04 1.7 1.7 0 0 1-.1-.86c.08-.65.57-1.2 1.07-1.56.44-.32.95-.58 1.53-.77l.06.02c.22.13.45.22.7.28h.03c.29-.3.62-.51.98-.68h.13a3.25 3.25 0 0 0-1.06.7 7.46 7.46 0 0 0 1 .18c.22-.15.47-.26.74-.33v-.61a.1.1 0 0 1 .06-.01Zm2.6 5.08.37.08h.03a3.22 3.22 0 0 0 .66-1.33H11.15l-.01.01a2.43 2.43 0 0 1-.87 1.13l.76.11Zm-2.34.3c-.36-.04-.7-.16-1-.34a7.71 7.71 0 0 0-1.2.22 3.46 3.46 0 0 0 .92.68 9.32 9.32 0 0 0 2.3.1l.56-.06c.06 0 .12-.01.18-.04a3.47 3.47 0 0 0 .92-.73l-.33-.08a8.72 8.72 0 0 0-.86-.11c-.45.28-.95.4-1.49.35Zm1.85.57a8.97 8.97 0 0 0 1.7-.41 3.24 3.24 0 0 0-.73-.3l-.07-.01h-.02a3.21 3.21 0 0 1-.88.72Zm-4.77-.43v.01l.02.01a8.86 8.86 0 0 0 1.41.35 3.32 3.32 0 0 1-.78-.63c-.24.07-.46.16-.65.26Z" fill="#38438B"/><path d="m8.84 6.3-.02-.06a317.27 317.27 0 0 1 .01-.9h.7V7.1l-.17-.05c-.66-.17-1.3.18-1.53.79l-.02.01h-.7l-.02-.01C7.3 7 7.96 6.4 8.83 6.3V6.3Z" fill="#ED2024"/><path d="m10.94 6.4.18.23v.01l-.12.13v.02l.02.18v.02a.48.48 0 0 0-.04.1c-.01.07-.15.1-.19.1l-.33-.01-.1-.01-.02-.01-.18-.15v-.02l.12-.27.02-.02a.63.63 0 0 1 .24-.03c.01 0 .02 0 .01-.01l-.01-.12a.02.02 0 0 1 0-.02c.04-.03.08-.04.12-.1a.3.3 0 0 1 .2-.12h.01l.07.1ZM11.2 6.63a.15.15 0 0 0-.06-.05v-.02a.96.96 0 0 1 .2-.2.18.18 0 0 1 .2-.03l.01.02.04.17c.03.1.13.1.14.17 0 .03.02.05.03.07.04.03.15.07.17.13a2.67 2.67 0 0 1 .03.09c-.11.05-.18.07-.26.13l-.08.06h-.24a.04.04 0 0 1-.03-.01l-.17-.22a.07.07 0 0 1-.01-.06l.03-.23v-.02Z" fill="#259245"/><path d="M13.51 8.67H4.95s-.04.07 0 .07h8.52l-.13.26c0 .01.01 0 0 0H4.77s.01 0 0 0l-.85-.67c-.01 0-.01 0 0 0h1.9c.04 0 .08-.02.12-.04.12-.04.37-.12.77-.29h1.1c.25 0 .66-.46.69-.67h1.2v.2c0 .19.06.38.22.47H11.72l.19-.01c.26-.1.53-.43.7-.66h1.71l-.8 1.34Z" fill="#ED2024"/><path d="m10.63 7.4-.08-.03-.02-.02v-.13h.22c.06 0 .1.04.15.07a.04.04 0 0 0 .04.01l.36-.09a.05.05 0 0 1 .04.01l.1.07.04.01h.22v.13l-.07.05h-.02a.94.94 0 0 0-.36-.12 6.05 6.05 0 0 0-.27.1c-.04 0-.08-.04-.12-.04-.07-.02-.15.01-.23-.01Z" fill="#259245"/><path d="M14.2 8.4h.63v.05h-.61l-.03.01-.13.14c-.02.01-.01.02 0 .02h.74v.04h-.86v-.01l.25-.25Z" fill="#286233"/><path d="M10.8 9.16a2 2 0 0 1-1.51 1.12c-.9.13-1.76-.4-2.1-1.27h.79c.45.64 1.29.75 1.87.25l.11-.1.02-.01h.82v.01Z" fill="#ED2024"/><defs><linearGradient id="a" x1="3.02" y1="7.04" x2="15.37" y2="10.74" gradientUnits="userSpaceOnUse"><stop stop-color="#FBA919"/><stop offset=".28" stop-color="#FFCB15"/><stop offset=".52" stop-color="#FFED02"/><stop offset=".66" stop-color="#F5E61C"/><stop offset="1" stop-color="#FBA919"/></linearGradient></defs></svg>