<!-- by TradingView --><svg width="18" height="18" fill="none" xmlns="http://www.w3.org/2000/svg"><path fill="#F0F3FA" d="M0 0h18v18H0z"/><path fill-rule="evenodd" clip-rule="evenodd" d="M10.09 3.614c-.475-.819-1.705-.819-2.18 0l-4.22 7.273a1.362 1.362 0 0 0 .078 1.504l3.36-1.596a3.05 3.05 0 0 1-1.283-2.476c0-1.703 1.421-3.083 3.174-3.083s3.175 1.38 3.175 3.083a3.05 3.05 0 0 1-1.287 2.478l3.324 1.594c.305-.42.376-.993.08-1.504l-4.222-7.273Zm3.147 9.37-3.883-2.698L11.444 13h1.569c.076 0 .151-.005.224-.016ZM9.797 13l-.745-2.902L8.175 13h1.622Zm-3.346 0 2.333-2.786L4.63 12.96c.113.027.233.041.357.041h1.464Z" fill="#0082C8"/><path d="M8.676 8.57H6.85c-.098.652.7 1.522 1.112 1.82l1.075-.524 1.05.524c.883-.492 1.131-1.363 1.145-1.737l-.613-.495v.412l-.971-.589v.59l-.97-.463v.462Z" fill="#005299"/><path opacity=".5" d="m8.197 9.853-.12-.094L9.019 9h.686l.937.759-.1.094H8.197Z" fill="#B0DCFF"/><path fill-rule="evenodd" clip-rule="evenodd" d="M6.615 7.96c.002 1.418.726 2.31 1.064 2.567l-.2.245c-.412-.313-1.188-1.297-1.188-2.82v-.015c.039-.376.225-.93.662-1.392.441-.468 1.131-.833 2.154-.833s1.686.366 2.092.838c.4.464.539 1.019.546 1.395.022.296-.004.774-.151 1.272-.149.502-.424 1.037-.911 1.424l-.206-.241c.42-.334.668-.805.806-1.269.137-.463.16-.907.139-1.167v-.01a1.972 1.972 0 0 0-.472-1.204c-.34-.396-.91-.725-1.843-.725-.934 0-1.536.33-1.915.73-.381.403-.544.887-.577 1.205Z" fill="#CC2215"/></svg>