<!-- by TradingView --><svg width="18" height="18" viewBox="0 0 18 18" xmlns="http://www.w3.org/2000/svg"><path fill="#F0F3FA" d="M0 0h18v18H0z"/><path d="M13.93 12.69a4.2 4.2 0 0 0-1.13-1.92 3.68 3.68 0 0 0-2.07-5.61 3.86 3.86 0 0 0-4.48 1.9c-.26.51-.4 1.08-.4 1.66.63-.12 1.27-.19 1.9-.19a1.84 1.84 0 0 1 .87-1.37 1.92 1.92 0 0 1 2.8.93 1.83 1.83 0 0 1-.16 1.6 8.15 8.15 0 0 0-5.69-.4c-1.9.49-2.8 1.3-3.57 2.28 1.75-.98 2.35-1.48 4.03-1.72A3.7 3.7 0 0 0 8 12.07a3.85 3.85 0 0 0 3 .12 4.73 4.73 0 0 0-2.91-2.38c1.37.14 2.52.68 3.28 1.62.37.46.6 1 .73 1.57H14l-.07-.31" fill="#0D3B6A"/></svg>