<!-- by TradingView --><svg width="18" height="18" viewBox="0 0 18 18" xmlns="http://www.w3.org/2000/svg"><path fill="#0A303D" d="M0 0h18v18H0z"/><path d="M10.47 8.74c.18-.29.29-.63.29-.99a1.9 1.9 0 0 0-1.92-1.88 1.9 1.9 0 0 0-1.92 1.88 1.9 1.9 0 0 0 1.86 1.87l.96 1.78A3.8 3.8 0 0 1 5 7.75 3.8 3.8 0 0 1 8.84 4a3.8 3.8 0 0 1 3.84 3.75 3.7 3.7 0 0 1-1.24 2.76l-.97-1.77Z" fill="#F2F8EE"/><path d="m8.97 9.3-.13.01c-.88 0-1.6-.7-1.6-1.56 0-.86.72-1.56 1.6-1.56.88 0 1.6.7 1.6 1.56 0 .37-.13.7-.34.97l1.17 2.16h.13c.88 0 1.6.7 1.6 1.56 0 .86-.72 1.56-1.6 1.56-.88 0-1.6-.7-1.6-1.56 0-.37.13-.7.35-.97L8.97 9.3Z" fill="#F2F8EE"/><ellipse cx="8.84" cy="7.75" rx=".64" ry=".63" fill="#FAB347"/><ellipse cx="11.4" cy="12.44" rx=".64" ry=".63" fill="#FAB347"/></svg>