<!-- by TradingView --><svg width="18" height="18" viewBox="0 0 18 18" xmlns="http://www.w3.org/2000/svg"><path fill="#F0F3FA" d="M0 0h18v18H0z"/><path fill-rule="evenodd" d="M13.7 11.4c1.2-.69 1.8-1.55 1.8-2.4 0-.85-.6-1.71-1.8-2.4A9.67 9.67 0 0 0 9 5.5c-1.86 0-3.52.43-4.7 1.1C3.1 7.3 2.5 8.16 2.5 9c0 .85.6 1.71 1.8 2.4A9.67 9.67 0 0 0 9 12.5c1.86 0 3.52-.43 4.7-1.1ZM9 13c3.87 0 7-1.8 7-4s-3.13-4-7-4-7 1.8-7 4 3.13 4 7 4Z" fill="#046536"/><path d="M14.61 9c-.18-.5-.64-1.01-1.45-1.46A8.71 8.71 0 0 0 9 6.58c-1.65 0-3.13.38-4.16.96-.8.45-1.27.97-1.45 1.46L3 8.56C3.72 7.1 6.13 6 9 6s5.28 1.09 6 2.56l-.39.44Z" fill="#046536" fill-opacity=".6"/><path d="M8.02 7.18a.76.76 0 0 1 1.02.04L11 9.12l-1.39 1.26-.44-.54.8-.75-1.46-1.42-2.5 2.1.67.75-.5.48L5 9.7l3.02-2.52Z" fill="#FD7B39"/><path d="M9.98 11.82a.76.76 0 0 1-1.02-.04L7 9.88l1.39-1.26.44.54-.8.75 1.46 1.42 2.5-2.1-.67-.75.5-.48L13 9.3l-3.02 2.52Z" fill="#046536"/></svg>