<!-- by TradingView --><svg width="18" height="18" viewBox="0 0 18 18" xmlns="http://www.w3.org/2000/svg"><path fill="#F0F3FA" d="M0 0h18v18H0z"/><path d="m11.56 13.3-.83-.63A4 4 0 0 1 9 13a4 4 0 0 1-3.96-3.14l-.9.25a5 5 0 0 0 7.42 3.18Z" fill="#7FC7D4"/><path d="M13.75 10.54a5 5 0 0 0-8.97-4.21h1.17A3.99 3.99 0 0 1 9 5a3.86 3.86 0 0 1 3.88 4c0 .42.11.82 0 1.2l.87.34Z" fill="#A2B758"/><path d="m4.07 9 1.5 1.04-2.07.52L4.07 9Z" fill="#7FC7D4"/><path d="m13.14 11.5 1.36-1.33-2.07-.23.7 1.56ZM12 8V7H6v1h4.71c.18.11.3.28.3.5 0 .51-.36.5-1.03.5H7l4.94 4.06c.13-.08.47-.32.8-.67l-.66-.53A73.24 73.24 0 0 0 9.74 10h.62c.52-.03 1.58-.09 1.58-1.3 0-.29-.03-.52-.06-.7H12Z" fill="#A2B758"/><path d="m4.11 8.6-.05-.45.13.08.15-.12v.27h.71l.09-.66-.12-.1.25-.24.29.3-.18.04-.08.89H4.1Z" fill="#7FC7D4"/><path d="M3.89 6.84h1.67v.2c-.08.02-.12.23-.13.34l-.13-.13a.41.41 0 0 0-.12.05c0-.11-.04-.2-.06-.22h-.86c-.01.26.03.55.05.66l.11.11-.26.25-.27-.25.14-.05L4 7.31c-.02-.1-.11-.33-.11-.36v-.11Z" fill="#A2B758"/><path fill="url(#au22hlsx4)" d="M6 7h1v4H6z"/><defs><linearGradient id="au22hlsx4" x1="6.5" y1="7" x2="6.5" y2="11" gradientUnits="userSpaceOnUse"><stop offset=".19" stop-color="#A2B758"/><stop offset="1" stop-color="#7FC7D4"/></linearGradient></defs></svg>