<!-- by TradingView --><svg width="18" height="18" viewBox="0 0 18 18" xmlns="http://www.w3.org/2000/svg"><path fill="#F0F3FA" d="M0 0h18v18H0z"/><path fill-rule="evenodd" d="M8 10V8h2v2H8Zm0 1v.97c0 .6.4 1.03 1 1.03s1-.43 1-1.03V11H8Zm3 .97c0 .6.4 1.03 1 1.03s1-.4 1-1-.43-1-1.03-1H11v.97Zm2.36-1.49a2.03 2.03 0 0 1-1.4 3.52c-.58 0-1.1-.25-1.48-.64a2.03 2.03 0 0 1-2.96 0A2.03 2.03 0 0 1 4 11.96c0-.58.25-1.1.64-1.48a2.03 2.03 0 0 1 0-2.96A2.03 2.03 0 0 1 6.04 4c.58 0 1.1.25 1.48.64a2.03 2.03 0 0 1 2.96 0A2.03 2.03 0 0 1 14 6.04c0 .58-.25 1.1-.64 1.48a2.03 2.03 0 0 1 0 2.96ZM11.96 8H11v2h.97c.6 0 1.03-.4 1.03-1s-.43-1-1.03-1Zm0-1C12.58 7 13 6.6 13 6s-.4-1-1-1-1 .43-1 1.03V7h.97ZM10 7v-.97C10 5.43 9.6 5 9 5s-1 .43-1 1.03V7h2Zm-3-.97C7 5.43 6.6 5 6 5s-1 .4-1 1 .43 1 1.03 1H7v-.97ZM6.03 10H7V8h-.97C5.43 8 5 8.4 5 9s.43 1 1.03 1ZM5 11.97c0 .6.4 1.03 1 1.03s1-.43 1-1.03V11h-.97c-.6 0-1.03.36-1.03.97Z" fill="#2D8F2E"/></svg>