<!-- by TradingView --><svg width="18" height="18" viewBox="0 0 18 18" xmlns="http://www.w3.org/2000/svg"><path fill="#F0F3FA" d="M0 0h18v18H0z"/><path d="m10.19 14.02-.22.01a.36.36 0 0 0-.1-.03c-.05-.01-.08 0-.07.06l.03.28c0 .05.02.1.05.13.04.04.05.09.03.14-.02.06-.06.08-.12.09a.8.8 0 0 1-.47-.13c-.05-.04-.1-.03-.14.02-.1.16-.25.29-.45.4a.08.08 0 0 1-.09 0c-.03-.03-.04-.06-.03-.1a.54.54 0 0 0 .03-.19c0-.07-.04-.11-.1-.14a.1.1 0 0 0-.11.01.57.57 0 0 1-.44.11c-.06 0-.08-.04-.07-.1l.1-.49c.03-.08 0-.11-.09-.08l-.19.07c-.08.03-.12 0-.12-.07l-.01-.37c0-.04-.02-.06-.07-.07a.2.2 0 0 0-.07.01c-.07.02-.11 0-.12-.07 0-.06.02-.11.07-.15.27-.18.54-.38.8-.6a.08.08 0 0 0 .03-.1.09.09 0 0 0-.08-.06A3.94 3.94 0 0 1 6 11.4a.2.2 0 0 0-.12-.06c-.06-.01-.08 0-.05.07s.04.16.03.24c-.08.52-.22 1-.41 1.45a.5.5 0 0 1-.2.25.67.67 0 0 1-.3.06c-.08 0-.12.04-.15.1l-.19.41c-.06.13-.14.15-.25.05l-.2-.18a.3.3 0 0 1-.09-.18.3.3 0 0 1 .03-.2l.32-.59c.03-.07.02-.12-.05-.17-.1-.07-.13-.18-.09-.3.03-.1 0-.12-.1-.1-.1.04-.16.1-.19.2-.01.07-.06.1-.13.1l-.42.04c-.06 0-.1-.03-.1-.09a2.77 2.77 0 0 1-.02-.54.93.93 0 0 1 .2-.49c.08-.1.17-.24.26-.45.1-.21.2-.37.28-.47.13-.15.2-.33.23-.56 0-.04-.02-.07-.07-.07-.21-.01-.42 0-.62.06l-.07-.01a.06.06 0 0 1-.02-.06l.02-.32a.16.16 0 0 0-.08-.16l-.36-.22A.15.15 0 0 1 3 9.07c0-.05.02-.1.06-.13l.5-.39c.05-.03.06-.07.03-.12a.23.23 0 0 0-.15-.1c-.06-.01-.08-.04-.03-.1a.53.53 0 0 1 .23-.14c.06-.02.15-.04.28-.05.24-.02.26-.1.07-.24a.89.89 0 0 1-.33-.4.78.78 0 0 1-.04-.48.6.6 0 0 1 .25-.37.8.8 0 0 1 .53-.13c.1 0 .2.04.33.1l.18.07c.08.03.1 0 .09-.07a.1.1 0 0 1 0-.04c0-.06.03-.11.07-.16l.27-.3c.22-.26.4-.44.55-.54a7.9 7.9 0 0 1 1.51-.84.15.15 0 0 0 .1-.12.26.26 0 0 1 .13-.19.16.16 0 0 0 .08-.14l.02-.23c0-.07.04-.1.1-.1.06.01.11.03.16.06.06.03.1.02.1-.05a.95.95 0 0 0-.04-.38c-.07-.23.01-.3.25-.21l.27.1c.06.02.1 0 .13-.05a.58.58 0 0 0 .05-.24c0-.09.04-.11.11-.07.13.06.25.15.35.27.08.1.19.13.3.07a.85.85 0 0 1 .4-.1.1.1 0 0 1 .09.06c.02.04.02.07 0 .1a.53.53 0 0 0-.1.45c0 .05.04.07.1.05l.1-.04a.12.12 0 0 1 .1 0c.02 0 .05.02.06.05.04.06.05.14.03.21-.02.08 0 .14.07.19.07.05.13.11.17.18.04.08.12.15.24.2.5.23 1 .51 1.47.86.1.07.21.2.35.38l.2.26.14.1c.1.05.12.13.07.23-.05.08-.03.1.07.07a22.97 22.97 0 0 0 .46-.18.73.73 0 0 1 .38.02c.17.05.3.14.38.25.08.11.13.24.13.39a.8.8 0 0 1-.11.4.96.96 0 0 1-.32.33c-.17.12-.15.18.05.2.19.02.36.08.54.17.07.04.07.08 0 .12l-.06.02a.15.15 0 0 0-.09.13c0 .06.02.1.06.14l.46.33c.04.03.06.07.05.12-.04.18-.18.3-.41.34-.12.02-.16.1-.13.2l.07.25a.1.1 0 0 1-.03.1.1.1 0 0 1-.1.03c-.2-.05-.42-.07-.64-.06-.05 0-.07.03-.06.08.04.2.11.38.22.5.09.12.17.23.23.35l.46.82a.7.7 0 0 1 .09.26v.25l.01.29c.01.1-.03.15-.15.11a.78.78 0 0 0-.35-.02c-.07.02-.12 0-.15-.07a.57.57 0 0 0-.2-.21.66.66 0 0 1-.22-.24 2.3 2.3 0 0 1-.14-.35.34.34 0 0 0-.1-.13 1 1 0 0 1-.3-.48c-.03-.08-.04-.08-.06 0 0 .06 0 .12.03.17.17.4.38.77.64 1.1.04.05.05.1.04.17 0 .06-.04.1-.1.13a.11.11 0 0 0-.05.06.1.1 0 0 0 0 .08l.3.67c.06.13.04.23-.06.33l-.16.15c-.12.11-.21.1-.29-.04l-.21-.4a.17.17 0 0 0-.16-.1.41.41 0 0 1-.42-.25 5 5 0 0 1-.46-1.85c0-.1-.04-.1-.1-.03a3.85 3.85 0 0 1-2.49 1.37c-.02 0-.04.02-.04.04s0 .03.02.05l.9.67a.1.1 0 0 1 .05.07.1.1 0 0 1-.02.07c-.03.06-.08.08-.14.06-.07-.01-.11.01-.11.08l-.02.35Z" fill="#060505"/><path d="M8.61 4.23c.08-.07.11-.14.1-.2l.15-.63c.01-.05.05-.08.11-.06.13.02.2.1.22.23.02.18.06.36.12.54.02.04.02.1 0 .14a.72.72 0 0 0 .04.48c.04.09.02.17-.05.25-.03.02-.03.05 0 .08l.05.04c.04.04.06.03.08-.02.1-.26.3-.45.63-.57.06-.02.1 0 .11.05.01.03 0 .06-.03.08-.23.13-.42.29-.57.47a.23.23 0 0 1-.13.09c-.45.12-.8.08-1.02-.13a5.43 5.43 0 0 0-.56-.44c-.06-.03-.05-.07 0-.1a.13.13 0 0 1 .11 0c.18.06.32.16.43.3.07.09.16.16.27.2.08.03.1.02.05-.05l-.1-.16c-.03-.04-.02-.09.02-.13.17-.15.16-.3-.03-.46Z" fill="#F0F3FA"/><path d="M8.61 3.95a.5.5 0 0 0-.1.2c-.25-.11-.32-.3-.23-.54.02-.06.06-.08.12-.07.16.01.23.15.21.4ZM9.48 4.11l-.13-.26c-.04-.07-.02-.12.05-.17l.22-.14c.06-.04.1-.03.11.04.04.21 0 .4-.14.55-.04.05-.08.04-.11-.02Z" fill="#F0F3FA"/><path d="M8.61 3.95c.01.05.04.08.1.07.01.07-.02.14-.1.21-.05-.02-.09-.05-.1-.08a.5.5 0 0 1 .1-.2Z" fill="#9D9E9E"/><path d="m8.5 4.47-.4-.3a.1.1 0 0 0-.13.02h-.01c-.04.04-.03.1.01.13l.4.3c.04.03.1.03.14-.01V4.6a.09.09 0 0 0 0-.13ZM9.86 4.48c.15-.12.24-.26.2-.3-.05-.05-.2 0-.35.13-.15.12-.24.25-.2.3.05.05.2-.01.35-.13Z" fill="#F0F3FA"/><path d="M8.86 4.82c.01.1.1.17.19.15.08-.01.14-.1.12-.2-.02-.1-.1-.17-.2-.15-.08.02-.13.1-.11.2Z" fill="#060505"/><path d="M7.1 5.14c.05.02.08 0 .08-.06a.2.2 0 0 1 .08-.16c.13-.1.29-.15.47-.15.06 0 .1.02.12.06.04.06.03.09-.05.1-.09.01-.13.06-.13.15 0 .05.03.08.09.09H8a.92.92 0 0 1 .52.12c.03.02.04.04.04.06 0 .02-.01.04-.03.05-.09.04-.16.03-.23-.02-.13-.12-.25-.12-.36 0a.24.24 0 0 1-.14.07c-.2.03-.39.01-.57-.06a.1.1 0 0 0-.08 0 .08.08 0 0 0-.04.07c0 .03 0 .06.02.09.03.03.07.05.11.04.07-.01.08 0 .03.06a.1.1 0 0 1-.09.03.2.2 0 0 0-.15.05l-.45.36c-.07.05-.12.04-.14-.04a.2.2 0 0 0-.15-.14.15.15 0 0 1-.12-.11l.01-.06c.08-.02.1-.07.09-.14-.03-.1 0-.18.11-.22.18-.08.36-.16.52-.26.06-.03.1-.03.16 0a.1.1 0 0 0 .04.02ZM11.88 5.73l-.02.17c0 .05 0 .1.05.13.06.05.09.12.09.2 0 .06.03.1.1.13l.2.06c.08.02.1 0 .07-.07a1.58 1.58 0 0 0-.49-.62.2.2 0 0 1 .03-.08c.03-.04.07-.05.12-.03.15.09.23.2.24.36 0 .05.02.07.07.09.1.03.18.08.23.16.03.05.06.12.08.23.03.16.08.27.15.34.05.04.05.1 0 .15-.04.05-.1.07-.15.05-.1-.03-.11 0-.05.07.1.13.11.28.04.45-.02.05-.05.06-.08.01-.11-.14-.19-.3-.23-.45-.02-.08.01-.12.1-.1h.05c.04 0 .06 0 .07-.05 0-.09-.02-.15-.08-.19a.14.14 0 0 0-.12-.02l-.11.03-.09-.01a.1.1 0 0 1-.05-.06.8.8 0 0 0-.44-.44c-.08-.03-.08-.07-.02-.12a.07.07 0 0 1 .06 0c.06 0 .1-.03.1-.1a.1.1 0 0 0-.04-.09c-.05-.03-.1-.03-.15.02a.25.25 0 0 0-.05.08.1.1 0 0 1-.08.06.1.1 0 0 1-.1-.02l-.49-.47-.02-.04c.06-.08.08-.13.07-.15 0-.02-.01-.02-.02-.03-.2-.05-.32-.01-.38.1-.03.05-.06.07-.11.05l-.48-.2a.22.22 0 0 0-.17 0l-.18.08c-.03 0-.04 0-.05-.03l-.02-.04c0-.03 0-.05.03-.06.21-.09.37-.12.49-.1.1.03.18.01.26-.04a.08.08 0 0 0 .03-.1c0-.03-.03-.06-.07-.06a.39.39 0 0 1-.16-.08c-.05-.04-.04-.07.02-.08.44-.1.7.06.79.49 0 .04.03.08.07.1.12.09.22.19.29.31.01.03.04.04.07.04.03 0 .06-.01.07-.04a.22.22 0 0 0 .04-.08.22.22 0 0 0-.06-.2.92.92 0 0 0-.32-.23.09.09 0 0 1-.05-.06c0-.03 0-.06.02-.09a.06.06 0 0 1 .05-.02c.02 0 .04.02.05.03.07.15.2.24.38.27.07.01.12.04.16.1.03.04.04.1.03.15 0 .05.02.1.07.12.03.02.06.02.1.02Z" fill="#F0F3FA"/><path d="M6.48 5.59c-.02-.03-.02-.05 0-.07l.02-.01c.12-.1.23-.18.33-.24.1-.05.16-.07.18-.05l.05.05c.02.03 0 .08-.07.17l-.28.28-.02.01c-.03.02-.05.02-.07 0l-.14-.14Z" fill="#060505"/><path d="M9.76 5.55c.03.02.04.05.05.07 0 .02 0 .04-.03.06a.55.55 0 0 1-.15.08c-.08-.1-.24-.14-.5-.12a4.6 4.6 0 0 0-2.47.78c-.23.17-.43.4-.6.69-.15.26-.3.52-.44.8a.25.25 0 0 0-.03.14c0 .06-.02.12-.06.17a.36.36 0 0 0-.08.14c-.15.61-.02 1.02.38 1.22l.3.35c.08.09.06.12-.05.1l-.27-.07c-.06-.01-.1-.04-.1-.1v-.2c0-.03-.03-.06-.07-.06l-.1-.02c-.06 0-.08.01-.07.06a2.98 2.98 0 0 0 1.43 2.04c.36.25.75.43 1.18.55a.6.6 0 0 0 .15.02c.1 0 .17.02.22.06.06.05.13.08.2.08.08 0 .15-.01.21-.05.07-.05.15-.05.22 0 .05.04.1.05.16.04.1-.01.18-.06.24-.14.13 0 .2-.04.19-.11-.01-.12-.1-.19-.25-.2v-.07c0-.04.03-.07.08-.07.1-.02.18.02.23.1.03.05.07.06.12.05.13-.04.24-.09.35-.16.07-.06.07-.11-.02-.15l-.05-.02c-.08-.04-.08-.08 0-.11.05-.02.1-.02.15.01.04.03.1.04.15.04.14 0 .27.02.39.07l-.88.46a.12.12 0 0 1-.1 0l-.05-.01c-.05-.02-.08 0-.09.04 0 .05.06.08.18.1l.08-.01c.5-.18.91-.39 1.25-.63a2.78 2.78 0 0 0 1.17-1.84c0-.07-.01-.08-.07-.04-.1.1-.17.23-.18.42-.15 0-.26-.01-.33-.06a.06.06 0 0 1-.02-.05c0-.02 0-.04.02-.05.28-.19.4-.33.36-.4-.24-.2-.33-.4-.26-.64 0 .06.05.1.13.12-.04.1.01.2.16.3 0 .14.06.21.16.23.08 0 .12-.02.13-.1l.05-.79a.1.1 0 0 0-.06-.1.12.12 0 0 0-.12 0c-.1.04-.15.1-.12.18a.34.34 0 0 0-.22 0c-.1-.07-.13-.13-.12-.19v-.05c0-.04.02-.07.05-.1.11-.07.13-.16.05-.26 0-.03 0-.06-.03-.1-.03-.03-.02-.05.03-.07l.06-.01c.13.07.17.2.12.37l-.03.02a.12.12 0 0 0-.04.02.08.08 0 0 0-.03.08c0 .04.01.09.03.13.05.08.08.08.1-.01a.26.26 0 0 1 .12-.17c.07-.04.09-.1.05-.16l-.08-.17a.1.1 0 0 1 0-.1l.02-.03a.14.14 0 0 0 0-.14 6.76 6.76 0 0 0-.62-.97 3.53 3.53 0 0 0-1.76-1.1.23.23 0 0 1-.07-.05c-.02-.02-.03-.04 0-.07.01-.02.05-.03.1-.03 1.08.3 1.86.9 2.32 1.82.67 1.32.52 2.6-.45 3.82a1.5 1.5 0 0 1-.34.3c-.13.08-.22.15-.28.2-.07.08-.16.15-.26.2-.56.32-1.18.51-1.85.6-.16-.1-.3-.1-.46 0-.3-.08-.58-.16-.85-.25a3.52 3.52 0 0 1-2.56-2.96 1 1 0 0 1-.05-.42 6 6 0 0 1 .3-1.18c.17-.16.27-.35.31-.59a3.72 3.72 0 0 1 2.63-1.6c.4-.07.73-.1 1-.07.06 0 .1.03.14.06.05.05.12.06.2.03Z" fill="#DCDBDB"/><path d="m9.76 5.55.2.04c-.05 0-.09.01-.1.03-.03.03-.02.05 0 .07l.07.04h-.06c-.04 0-.05.02-.03.05.03.07.08.13.15.19-.08 0-.1.04-.1.11a.42.42 0 0 0-.2-.15c0-.09-.02-.15-.06-.17.06-.02.1-.05.15-.08l.03-.06a.18.18 0 0 0-.05-.07Z" fill="#9D9E9E"/><path d="m10.87 5.56.02.04c-.06.07-.12.1-.17.08-.1-.02-.1-.06-.03-.11.03-.02.1-.03.18-.01Z" fill="#DCDBDB"/><path d="m5.67 7.16-.25.45a.65.65 0 0 1-.08-.54c.01-.08-.01-.1-.09-.08h-.02c-.06-.03-.08-.07-.06-.13.01-.06.04-.1.09-.15a.2.2 0 0 0 .07-.19c-.02-.1 0-.18.05-.25.03-.04.08-.09.17-.15.12-.1.2-.18.22-.25a.5.5 0 0 1 .08-.15c.04-.05.1-.09.16-.1.11-.02.13.02.07.1l-.43.58a.05.05 0 0 0 0 .06c.01.03.03.04.06.04h.06c.08 0 .15-.02.18-.1l.16-.28c.04-.08.09-.08.14 0l.1.14c.03.04.02.06-.02.08a.8.8 0 0 0-.43.46c0 .02-.02.04-.05.05h-.07c-.1-.05-.2-.04-.26.04-.05.06-.05.12 0 .18l.15.19Z" fill="#F0F3FA"/><path d="M9.63 5.76c.04.02.06.08.06.17a.1.1 0 0 1-.04.07.73.73 0 0 0-.54-.16.21.21 0 0 1-.14-.04c-.09-.07-.17-.06-.24.02a.21.21 0 0 0-.04.06v.04c0 .02-.01.03-.03.03-.02 0-.03 0-.04-.02a.38.38 0 0 0-.1-.13c-.03-.03-.07-.04-.11-.01l-.17.1a.6.6 0 0 0-.35.07.49.49 0 0 1-.15.05c-.31.05-.57.2-.76.43-.05.1-.1.14-.13.15-.08-.03-.15-.02-.21.05a.11.11 0 0 0-.02.13c.04.1 0 .18-.1.23-.12.06-.23.14-.34.23-.35.31-.27.53.22.66.06-.1.08-.08.08.06 0 .05-.02.1-.04.14a.59.59 0 0 0-.1.36c0 .08-.02.16-.07.22-.1.14-.11.3-.03.47.02.03.02.06 0 .1-.03.04-.07.06-.1.06a.1.1 0 0 1-.09-.05l-.04-.08c.1-.01.1-.1 0-.25L6 8.87c.16-.22.15-.4-.04-.52l-.1-.29c.1-.02.19.06.28.21.05.1.1.1.13-.01a.67.67 0 0 0 .03-.23.12.12 0 0 0-.08-.1l-.2-.1c-.02-.06-.05-.1-.1-.11-.05-.03-.09-.02-.12.03a.59.59 0 0 0-.06.62c.03.06.07.09.12.08a.3.3 0 0 1 .09.23l-.3-.11c-.1-.04-.12-.01-.07.07l.14.25c.01.03.01.05-.01.07l-.03.02c-.04.04-.05.08-.03.12.04.1.12.18.23.22l.08.06.05.18c.02.05 0 .08-.07.07a.25.25 0 0 1-.1-.05c-.4-.2-.53-.6-.38-1.22.02-.05.04-.1.08-.14.04-.05.06-.1.06-.17 0-.05 0-.1.03-.14l.44-.8c.17-.3.37-.52.6-.7a4.6 4.6 0 0 1 2.48-.77c.25-.02.41.02.5.12Z" fill="#060505"/><path d="m9.65 6 .1.12c.02.02.02.04 0 .07a.07.07 0 0 1-.05.05c-.31.03-.6.05-.86.05a.3.3 0 0 1-.29-.18.17.17 0 0 0-.13-.1L8.3 6a.17.17 0 0 1-.06-.1l.17-.1c.04-.03.08-.02.12 0l.1.14c0 .02.01.03.03.02.02 0 .03-.01.03-.03v-.04l.04-.06c.07-.08.15-.09.24-.02.04.03.09.04.14.04.23-.01.4.04.54.16Z" fill="#7F7D7D"/><path d="M9.93 5.73c.7.2 1.29.57 1.76 1.1.14.17.34.5.62.98.02.05.02.1 0 .14l-.02.04a.1.1 0 0 0 0 .1l.08.16c.04.07.02.12-.05.16-.06.04-.1.1-.12.17-.02.09-.05.09-.1.01a.3.3 0 0 1-.03-.13c0-.03 0-.06.03-.08l.04-.02.03-.02c.05-.17.01-.3-.12-.37l-.2-.06.15-.25a.1.1 0 0 0-.01-.13.16.16 0 0 0-.08-.05c-.08-.03-.12-.1-.1-.18 0-.03-.02-.05-.05-.04l-.04.01c-.06.04-.1.03-.15-.01a.76.76 0 0 1-.23-.48 1.62 1.62 0 0 0-1.15-.69l-.2-.12a.64.64 0 0 1-.15-.19c-.02-.03-.01-.05.03-.05h.06Z" fill="#565255"/><path d="M11.88 5.73c.21.16.38.37.49.62.03.07 0 .1-.07.07l-.2-.06c-.07-.03-.1-.07-.1-.13a.25.25 0 0 0-.09-.2.14.14 0 0 1-.05-.13l.02-.17Z" fill="#060505"/><path d="M8.24 5.89c0 .03.03.07.06.1a.5.5 0 0 0-.15.32c0 .06-.04.1-.1.1l-.14.04c-.03 0-.06 0-.08-.03-.02-.02-.02-.04-.01-.06.02-.05 0-.1-.04-.12a.13.13 0 0 0-.1-.02.2.2 0 0 0-.12.08c-.05.07-.12.1-.2.1l-.16-.05a.1.1 0 0 0-.04 0c-.02 0-.03 0-.03.02 0 .04 0 .07.04.1.11.06.14.13.1.2-.11.04-.21-.04-.3-.23.2-.23.46-.38.77-.43l.15-.05a.6.6 0 0 1 .35-.07ZM9.24 6.02l-.01.14c0 .06-.04.08-.1.06a.24.24 0 0 1-.16-.13c-.04-.1 0-.17.12-.2.1-.01.15.03.15.13Z" fill="#DCDBDB"/><path d="M9.7 5.93c.06.02.13.07.2.15 0 .05.03.09.06.1 0 .06-.02.11-.06.15a.28.28 0 0 1-.14.06c-.28.05-.54.08-.8.1a.67.67 0 0 1-.36-.08.18.18 0 0 0-.17 0l-1 .47c0-.18-.03-.33-.08-.48.1 0 .16-.03.2-.1a.2.2 0 0 1 .12-.08c.04-.01.08 0 .11.02.05.03.06.07.04.12v.06c.03.03.06.04.09.03l.14-.03c.06-.02.1-.05.1-.11a.5.5 0 0 1 .15-.32l.12.03c.06 0 .1.04.13.1a.3.3 0 0 0 .29.17c.26 0 .55-.02.86-.05.03 0 .05-.02.06-.05a.06.06 0 0 0-.01-.07L9.65 6a.1.1 0 0 0 .04-.07Z" fill="#565255"/><path d="m9.99 5.97.2.12c.06.1.07.17.03.22-.04.05-.08.05-.13 0l-.13-.12a.22.22 0 0 1-.07-.1c0-.08.02-.12.1-.12Z" fill="#F0F3FA"/><path d="M10.19 6.1c.5.06.88.3 1.15.68-.09.05-.23.03-.42-.05-.1-.01-.18-.08-.22-.2-.03-.1-.1-.13-.2-.1l-.35.11c-.06.02-.08.06-.05.12.03.08.09.13.17.17.03.02.05.02.08 0s.04-.04.03-.07a.35.35 0 0 1 .03-.2c0-.03.03-.04.05-.04l.05.01v.01l.02.36c0 .04.02.08.06.12l.4.38c.04.05.1.07.16.08.2.04.36.13.49.3.03-.02.04 0 .05.04 0 .04.02.06.06.07.04 0 .07 0 .1.02l.2.06-.06.01c-.05.02-.06.04-.03.08.02.03.03.06.03.1a.53.53 0 0 0-.3-.11.13.13 0 0 1-.12-.08c-.02-.04-.04-.06-.08-.05-.07.02-.1.06-.08.13.04.16.14.3.29.4-.12.17-.14.3-.07.4.03.05.03.09.01.13a.32.32 0 0 0-.02.22.7.7 0 0 1-.07.47l-.13.21-.17.46-.26.26c-.16.08-.32.25-.49.5a.19.19 0 0 1-.12.1c-.34.06-.6.2-.79.4a.65.65 0 0 0-.28-.1h-.23a.98.98 0 0 1-.32 0 .26.26 0 0 0-.13 0 .66.66 0 0 0-.37.28.08.08 0 0 0 0 .08c0 .02.03.04.08.05-.02.04-.15.04-.4 0a.18.18 0 0 1-.11-.08c-.06-.08-.07-.15-.03-.22.05-.07.03-.1-.05-.08a.25.25 0 0 0-.15.1c-.23 0-.31.05-.24.14l-.32-.22.32-.06c.1-.03.12-.08.05-.15a.47.47 0 0 1-.1-.23.62.62 0 0 0-.04-.14.4.4 0 0 0-.13-.15c-.2-.16-.43-.47-.7-.92-.02-.06-.07-.07-.12-.04a.06.06 0 0 0-.04.05c0 .07.03.12.1.14.15.04.21.14.21.3 0 .1.04.19.12.25.16.13.28.27.37.42.03.07.04.14.02.2a.3.3 0 0 1-.12.18c-.1.08-.17.06-.19-.03a.82.82 0 0 1-.08-.44c.01-.06-.01-.09-.07-.1-.02 0-.05 0-.08.02l.03-.04c.03-.02.02-.04-.01-.05a.59.59 0 0 1-.3-.22c-.05-.07-.1-.06-.14 0l-.16.28a2.98 2.98 0 0 1-.5-1.18c-.02-.05 0-.07.06-.06l.1.02c.04 0 .06.03.06.07l.02.19c0 .06.03.09.09.1l.27.06c.11.03.13 0 .06-.09l-.3-.35c.03.03.07.04.1.05.05 0 .08-.02.06-.07l-.05-.18c.03-.03.05-.1.06-.2l.04.07a.1.1 0 0 0 .08.05c.04 0 .08-.02.1-.07a.09.09 0 0 0 .01-.1c-.08-.16-.07-.32.03-.46a.32.32 0 0 0 .07-.22c0-.13.02-.25.1-.36a.25.25 0 0 0 .04-.14c0-.14-.02-.16-.08-.06-.06-.2-.08-.34-.06-.41.16-.01.3-.11.45-.3.02-.01.02-.03 0-.05 0-.02-.02-.03-.05-.02l-.1.02L6.8 7l.17.09a.16.16 0 0 0-.06.13c0 .02.02.03.04.04L7 7.25l.42-.37 1.01-.47a.18.18 0 0 1 .17 0c.12.06.24.09.35.08.27-.02.53-.05.8-.1.07-.01.12-.03.15-.06.04-.04.07-.09.06-.14l.13.13c.05.04.09.04.13-.01.04-.05.03-.12-.03-.22Z" fill="#9D9E9E"/><path d="M7.35 6.4c.05.15.08.3.07.48L7 7.25a.05.05 0 0 1-.05 0c-.02 0-.03-.01-.04-.03 0-.05.02-.1.06-.13.2-.09.3-.23.3-.41.04-.08.01-.15-.1-.22-.04-.02-.05-.05-.04-.09 0-.01.01-.02.03-.02a.1.1 0 0 1 .04 0l.15.05Z" fill="#060505"/><path d="M10.92 6.73c.22.32.48.6.79.83.02.02.03.05.01.1 0 .03-.03.07-.08.11a.77.77 0 0 0-.5-.29.3.3 0 0 1-.15-.08l-.4-.38a.17.17 0 0 1-.06-.12l-.01-.36h-.01l-.05-.02c-.02 0-.04 0-.05.03a.35.35 0 0 0-.03.2c0 .04 0 .06-.03.08a.08.08 0 0 1-.08 0 .36.36 0 0 1-.17-.17c-.03-.06-.01-.1.05-.12l.36-.1c.1-.04.16 0 .2.09.03.12.1.19.2.2Z" fill="#565255"/><path d="M6.98 6.44c.08.19.18.27.3.24-.02.18-.12.32-.31.4L6.8 7c.21-.2.23-.34.05-.4.04-.02.08-.07.13-.16Z" fill="#7F7D7D"/><path d="M6.85 6.6c.18.06.16.2-.05.4l-.16.13a.6.6 0 0 1-.28.19c-.06.02-.06.07-.02.16-.02.07 0 .2.06.41-.5-.13-.57-.35-.22-.66.11-.1.22-.17.34-.23.1-.05.14-.13.1-.23a.11.11 0 0 1 .02-.13c.06-.07.13-.08.2-.05Z" fill="#DCDBDB"/><path d="M13.52 6.87c-.08.02-.16.04-.23.04-.08 0-.1-.02-.04-.07.06-.05.13-.07.2-.04.1.03.14 0 .15-.09 0-.05.04-.08.09-.1a.23.23 0 0 1 .17 0c.3.14.43.37.37.7l-.03.03-.04.03c-.04.02-.07.01-.08-.03a.56.56 0 0 0-.4-.46.28.28 0 0 0-.16 0ZM4.44 6.75l-.04.07c-.13.07-.24.14-.34.22a.21.21 0 0 0-.08.11.54.54 0 0 0-.02.12c0 .12.03.13.08.02.08-.15.2-.23.36-.25.18 0 .3.11.38.36.02.1.09.13.19.08l.24.49c.02.06.02.11-.03.17a.29.29 0 0 0-.06.22l-.01.18a.1.1 0 0 1-.05.05c-.04.03-.07.02-.08-.03a.4.4 0 0 0-.16-.22c-.05-.04-.1-.03-.13.02-.03.04-.03.1 0 .18 0 .06-.07.09-.2.07a.66.66 0 0 0-.3-.15l-.04.01a.06.06 0 0 0-.03.04c0 .04.01.07.05.09.1.05.18.11.23.2.02.03.01.04-.02.04-.15 0-.3.05-.43.13-.16.1-.14.14.04.11l.27-.04c.06-.01.1 0 .12.05.02.05.02.1 0 .15a.26.26 0 0 1-.13.12c-.04.02-.06.05-.05.1 0 .02.02.04.04.05.05.01.1 0 .14-.02.07-.03.15-.07.22-.12.05 0 .08.05.1.13l-.03.01c.03.3-.02.42-.18.36 0-.05 0-.09-.03-.13-.02-.04-.05-.06-.1-.06l-.59.05c-.07.01-.1-.02-.08-.1.03-.08.1-.14.19-.18.04-.02.06-.06.04-.1a.1.1 0 0 0-.04-.04.1.1 0 0 0-.06-.02.65.65 0 0 1-.52-.18.11.11 0 0 1-.03-.09c0-.03.01-.06.04-.08.13-.11.28-.2.44-.25a.12.12 0 0 0 .09-.11c0-.05-.01-.09-.04-.12-.13-.13-.1-.2.09-.22.12-.01.23 0 .34.02.08.02.12-.01.11-.1l-.01-.14c-.01-.08.02-.1.1-.07l.59.27c.04.02.06 0 .05-.04l-.04-.13-.01-.03c-.25-.2-.5-.32-.76-.35a.14.14 0 0 1-.12-.07.46.46 0 0 0-.26-.23.16.16 0 0 1-.11-.13c-.05-.3.06-.5.33-.6.17-.07.28-.04.34.1Z" fill="#F0F3FA"/><path d="M11.34 6.78c.02.18.1.34.23.48.04.04.1.05.15.01l.04-.01c.03 0 .05 0 .05.04-.02.09.02.15.1.18-.1.03-.16.1-.19.19.02-.06.01-.1-.01-.11-.31-.23-.57-.5-.8-.83.2.08.34.1.43.05ZM4.44 6.75c.2.03.34.07.4.1s.08.07.06.12a.12.12 0 0 0 0 .13c.08.12.1.24.07.38-.1.05-.17.02-.2-.08-.06-.25-.19-.37-.37-.36l.1-.05c.06-.03.07-.06.04-.1-.03-.07-.08-.09-.14-.07l.04-.07Z" fill="#DCDBDB"/><path d="m10.96 10.08-.67-1.05a.13.13 0 0 1 0-.15l.58-.95a.07.07 0 0 0 0-.07.07.07 0 0 0-.07-.04H9.68a.17.17 0 0 1-.16-.08l-.5-.81a.08.08 0 0 0-.07-.04.08.08 0 0 0-.07.04l-.46.81a.14.14 0 0 1-.13.07l-1.22.01c-.03-.01-.05-.04-.04-.09 0-.02.01-.05.03-.07 1.27-1.21 2.55-1.21 3.84 0 .06.06.09.12.08.2 0 .03.01.07.03.1.35.55.37 1.24.06 2.08-.01.04-.05.06-.11.04Z" fill="#F0F3FA"/><path d="M4.4 6.82c.06-.02.1 0 .14.06.03.05.02.08-.03.1l-.11.06a.42.42 0 0 0-.36.25c-.05.1-.08.1-.08-.02l.02-.12a.21.21 0 0 1 .08-.11c.1-.08.21-.15.34-.22ZM10.96 10.08c.02.03.03.06.03.1 0 .02-.01.03-.04.03-.05 0-.06.01-.03.03-.04-.06-.08-.08-.12-.08a6.7 6.7 0 0 1-1.17 0 .16.16 0 0 0-.16.08l-.5.8a.09.09 0 0 1-.07.05.09.09 0 0 1-.08-.05l-.45-.75a.24.24 0 0 0-.24-.13 7.2 7.2 0 0 1-.97 0 .1.1 0 0 1-.08-.04.08.08 0 0 1 0-.1l.53-.9a.15.15 0 0 0 0-.16l-.6-1.03.06-.1 1.22-.02c.06 0 .1-.02.13-.07l.46-.8a.08.08 0 0 1 .07-.05c.03 0 .06.02.07.04l.5.8c.04.06.09.1.16.1h1.12c.03 0 .06 0 .07.03.01.02.01.05 0 .07l-.58.95a.13.13 0 0 0 0 .15l.67 1.05Z" fill="#060505"/><path d="M13.4 7.04c-.05.02-.09.08-.12.17a.16.16 0 0 0-.02-.06c-.02-.05-.05-.05-.09 0a.38.38 0 0 0-.06.14c-.01.08-.03.08-.05 0V7.2c0-.06.01-.12.04-.18.03-.04.07-.06.12-.05l.19.06Z" fill="#DCDBDB"/><path d="M13.4 7.04c.3-.04.5.07.6.34.01.05 0 .1-.05.13a.43.43 0 0 0-.12.12c-.04.06-.09.07-.15.05a.13.13 0 0 1-.07-.08h-.02a1.6 1.6 0 0 1-.3.2l-.25.17a.43.43 0 0 0-.14.23c0 .04-.02.04-.05.02l-.07-.06c-.03-.03-.04-.07-.02-.1l.27-.54c.14-.02.22-.12.25-.31.03-.09.07-.15.13-.17Z" fill="#F0F3FA"/><path d="m5.67 7.16.12-.03c-.04.24-.14.43-.3.59l-.07-.1.25-.46Z" fill="#7F7D7D"/><path d="m6.64 7.13.1-.02c.03 0 .04 0 .06.02v.06c-.15.18-.3.28-.46.29-.04-.09-.04-.14.02-.16a.6.6 0 0 0 .28-.19Z" fill="#060505"/><path d="M13.28 7.2c-.03.2-.11.3-.25.32l.02-.3v.07c.03.08.05.08.06 0 .01-.06.03-.1.06-.15.04-.04.07-.04.1 0l.01.07Z" fill="#7F7D7D"/><path d="m8.64 7.76.28-.46a.05.05 0 0 1 .04-.02c.02 0 .04 0 .05.02l.28.45v.05a.05.05 0 0 1-.04.02h-.56c-.02.01-.04 0-.05-.01a.04.04 0 0 1 0-.05ZM11.91 7.48c.03 0 .06.02.08.05a.1.1 0 0 1 0 .13l-.15.25a.28.28 0 0 0-.09-.02c-.04 0-.06-.03-.06-.07 0-.04-.02-.06-.05-.05.05-.04.08-.08.08-.1.03-.1.1-.16.2-.2Z" fill="#F0F3FA"/><path d="M6 7.84c0 .07-.05.14-.14.22l.1.29c0 .06-.03.1-.1.1-.06 0-.1-.02-.13-.08a.59.59 0 0 1 .06-.62c.03-.05.07-.06.13-.03.04.01.07.05.08.12Z" fill="#DCDBDB"/><path d="m6 7.84.21.09c.05.02.08.05.08.1 0 .08 0 .16-.03.23-.04.1-.08.1-.13.01-.1-.15-.18-.23-.27-.21.1-.08.14-.15.14-.22Z" fill="#9D9E9E"/><path d="m7.02 7.93.6 1.03c.02.06.02.11 0 .16l-.54.9a.08.08 0 0 0 0 .1.1.1 0 0 0 .08.05c.34.02.66.02.97 0 .11-.01.2.03.24.12l.45.75c.01.03.04.05.08.05.03 0 .06-.02.08-.05l.5-.8a.16.16 0 0 1 .15-.08c.4.03.8.03 1.17 0 .04 0 .08.02.12.08-.26.3-.54.53-.83.67a2.8 2.8 0 0 1-1.65.21 2.4 2.4 0 0 1-1.5-1A2.12 2.12 0 0 1 6.84 8c.01-.04.08-.07.18-.07Z" fill="#F0F3FA"/><path d="M11.99 8.15c.08.1.06.19-.05.27a.11.11 0 0 0-.05.09v.05c-.05-.12-.12-.16-.2-.1a.73.73 0 0 1-.28-.41c-.02-.07 0-.11.08-.13.04 0 .06 0 .08.05.03.05.07.08.13.08.1 0 .2.04.29.1Z" fill="#565255"/><path d="M13.2 9.11c.01-.05 0-.1-.02-.15a.09.09 0 0 0-.05-.05.1.1 0 0 0-.07 0l-.08.05c-.04.02-.07 0-.1-.03-.04-.09-.03-.17.02-.24a.12.12 0 0 0 .01-.12.37.37 0 0 1-.04-.17c0-.05.02-.1.07-.13.19-.12.39-.23.6-.31.1-.04.14-.01.11.08a.28.28 0 0 0 0 .11c0 .06.04.1.1.1l.2-.02c.3-.05.38.05.24.3a.08.08 0 0 0-.01.05c0 .04.02.07.06.1l.48.26a.1.1 0 0 1 .05.08c0 .03 0 .06-.03.08a.62.62 0 0 1-.53.16c-.06 0-.1.01-.12.06l-.01.04c0 .04.02.07.06.1.06.02.11.07.15.12.03.04.04.08.02.11a.1.1 0 0 1-.1.05l-.52-.06c-.06 0-.1.01-.14.05-.15.16-.14.3 0 .44.06.04.1.1.11.15.03.05 0 .1-.05.11-.08.03-.1.07-.06.14a.2.2 0 0 1 0 .21c-.05.08-.1.08-.15 0-.1-.12-.18-.12-.27.01-.04.06-.07.06-.09-.01a1.97 1.97 0 0 0-.26-.6.13.13 0 0 1 0-.14.14.14 0 0 1 .12-.08.4.4 0 0 0 .2-.08c.07-.05.06-.09-.02-.12h-.05c-.04-.01-.07-.03-.08-.07l-.12-.51c0-.04 0-.07.03-.09a.1.1 0 0 1 .1-.02l.14.08c.02.02.04.02.07.01.02 0 .03-.02.04-.05ZM8.22 8.1l-.4.68a.05.05 0 0 1-.04.02c-.02 0-.04 0-.05-.02l-.39-.69a.04.04 0 0 1 0-.05.05.05 0 0 1 .05-.02h.78c.02 0 .04.01.05.03v.05ZM9.3 9.97H8.5a.1.1 0 0 1-.1-.06l-.47-.8a.1.1 0 0 1 0-.1l.54-.94a.1.1 0 0 1 .1-.05h.82a.1.1 0 0 1 .1.05l.5.82a.1.1 0 0 1 0 .1l-.57.93a.1.1 0 0 1-.1.05ZM9.78 8.02h.74c.02 0 .03 0 .04.02v.05l-.4.58a.05.05 0 0 1-.04.03l-.04-.03-.34-.58v-.05l.04-.02Z" fill="#F0F3FA"/><path d="M5.95 8.35c.19.13.2.3.04.52.03-.1.01-.16-.05-.2a.3.3 0 0 0-.09-.22c.08 0 .1-.04.1-.1Z" fill="#9D9E9E"/><path d="M13.09 8.43c-.08.08-.1.18-.04.22.05.04.15 0 .22-.08.08-.08.1-.18.04-.22-.05-.04-.15 0-.22.08ZM11.89 8.56c-.01.06.03.12.12.19l-.11.16c-.07.24.02.45.26.63-.15.08-.27.08-.37 0a.2.2 0 0 1-.06-.14.32.32 0 0 0-.11-.2.32.32 0 0 1 .02-.22.12.12 0 0 0 0-.12c-.08-.11-.06-.24.06-.4.07-.06.14-.02.19.1ZM4.5 8.61c.12.05.17.11.16.2 0 .05-.04.09-.1.1-.04.02-.06.05-.05.09 0 .06.03.1.08.12.04.01.06.03.07.06.02.07 0 .13-.06.2l-.22.11a.19.19 0 0 1-.14.02c-.02 0-.04-.03-.04-.06 0-.04.01-.07.05-.1.06-.02.1-.06.12-.1.03-.06.03-.11 0-.16-.02-.04-.05-.06-.1-.05l-.28.04c-.18.03-.2 0-.04-.1a.78.78 0 0 1 .43-.14c.03 0 .04-.01.02-.04a.54.54 0 0 0-.23-.2c-.04-.02-.05-.05-.05-.1l.03-.03a.06.06 0 0 1 .04-.01c.1.02.2.07.3.15ZM13.68 8.82l.33.14c.1.03.09.07 0 .1a.38.38 0 0 1-.26-.02.16.16 0 0 0-.13 0 .07.07 0 0 0-.04.06c0 .03 0 .05.02.07.09.09.14.18.17.3.01.07-.01.09-.09.06l-.25-.11a.1.1 0 0 1-.06-.1c0-.1.01-.19.06-.28a.13.13 0 0 0-.02-.16.16.16 0 0 0-.07-.04c-.08-.03-.08-.07-.02-.1l.46-.28c.03-.02.06-.02.08 0 .03.03.03.05.01.08a.48.48 0 0 1-.19.16c-.08.04-.08.08 0 .12Z" fill="#060505"/><path d="m4.69 8.54.25.14c.05.03.07.07.06.13a.8.8 0 0 0 .1.63c.03.07.02.13-.03.18-.1.1-.14.23-.1.37-.13.05-.22.13-.26.23-.02.06 0 .08.06.05.1-.05.18-.14.24-.27.05-.04.07-.06.09-.05.05.01.09.04.1.1.03.04.03.1 0 .14l-.24.52c-.03.06-.07.07-.14.04l-.04-.03c-.08-.05-.13-.03-.16.05l-.02.04c-.02.08-.07.09-.13.03-.07-.07-.07-.14-.01-.22.04-.05.03-.1-.02-.15a.07.07 0 0 0-.05-.02l-.05-.01a.05.05 0 0 1-.02-.05c.02-.15.1-.26.23-.33A.07.07 0 0 0 4.6 10c0-.02 0-.04-.02-.06l-.08-.08c.16.06.21-.06.18-.36.04.06.05.1.04.1a.3.3 0 0 0 .01.21l.02.03c.01.02.03.02.04.02.04-.01.06-.03.06-.07.01-.08.03-.14.07-.2.05-.03.07-.1.05-.18-.01-.07-.05-.1-.11-.1a.08.08 0 0 0-.06.04l-.1.14c0-.08-.04-.12-.1-.13.07-.06.1-.12.07-.19a.11.11 0 0 0-.07-.06c-.05-.02-.08-.06-.08-.12 0-.04.01-.07.05-.09.06-.01.1-.05.1-.1.01-.09-.04-.15-.16-.2.12.02.18 0 .19-.07ZM5.94 8.68c.06.03.08.1.05.2l.02.04c-.02.04-.07.06-.16.06-.1.01-.11.05-.05.11.02.03.05.04.08.04.04 0 .07.02.07.05.02.07 0 .11-.08.14a.41.41 0 0 1-.23-.22c-.02-.04-.01-.08.03-.12l.03-.03c.02-.01.02-.03.01-.06l-.14-.25c-.05-.08-.03-.1.07-.07l.3.1Z" fill="#DCDBDB"/><path d="m12.2 9.33.09-.25c.02-.1 0-.21-.06-.33-.03-.08.01-.14.12-.19a.12.12 0 0 1 .12.01.1.1 0 0 1 .06.1l-.05.79c0 .08-.05.1-.13.1-.1-.02-.16-.1-.16-.23Z" fill="#060505"/><path d="M12.23 8.75c.06.12.08.23.06.33-.1-.06-.2-.07-.26-.05-.08-.02-.13-.06-.13-.12l.11-.16a.34.34 0 0 1 .22 0Z" fill="#F0F3FA"/><path d="M6.01 8.92c.1.15.1.24 0 .25-.01.1-.03.18-.06.2l-.08-.05c.07-.03.1-.07.08-.14 0-.03-.03-.05-.07-.05a.11.11 0 0 1-.08-.04c-.06-.06-.05-.1.05-.1.09-.01.14-.03.16-.07Z" fill="#7F7D7D"/><path d="M10.55 9.97H9.7c-.02 0-.03-.01-.04-.03-.02-.02-.02-.03 0-.05l.42-.68a.05.05 0 0 1 .05-.02c.02 0 .04 0 .05.02l.4.68v.05a.05.05 0 0 1-.04.03Z" fill="#F0F3FA"/><path d="M11.62 9.2c.06.06.1.13.1.2.01.05.04.1.07.13.1.09.22.1.37.01.04.08-.08.22-.36.4a.06.06 0 0 0-.02.06c0 .02 0 .04.02.05.07.05.18.06.33.06.01.08-.02.16-.09.24.05-.07 0-.1-.16-.09-.02 0-.05.01-.07.03-.08.04-.1.08-.08.11.04.05.03.08-.03.1-.17.07-.2.13-.08.19a.63.63 0 0 0-.15.17.32.32 0 0 0-.02.14c0 .07-.02.12-.06.15l-.03-.21c0-.06-.04-.08-.1-.07-.09.01-.17.07-.23.17-.05.08-.12.12-.22.12-.01-.12-.1-.11-.27.04a.14.14 0 0 0-.05.14c.01.06.05.1.11.12.18.05.34.02.46-.1.02-.02.04-.02.06 0 .02.01.02.03 0 .05a.63.63 0 0 1-.3.2.95.95 0 0 0-.39-.06.26.26 0 0 1-.15-.04.14.14 0 0 0-.15-.01c-.08.03-.08.07 0 .11l.05.02c.09.04.1.09.02.15-.1.07-.22.12-.35.16-.05.02-.1 0-.12-.05-.05-.08-.12-.12-.23-.1-.05 0-.07.03-.07.07l-.01.08-.05.03c-.04.03-.05.06-.03.1l.04.07c-.02.08-.12.06-.3-.05.05-.1.04-.17-.03-.23-.06-.06-.11-.06-.15.01a.23.23 0 0 1-.05.06c-.08.06-.06.1.04.1.05.02.09.04.1.07-.12-.04-.21-.03-.28.04-.03.03-.07.03-.1 0l-.12-.1c.1-.03.1-.12.05-.29.28-.18.63-.18 1.06 0 .04.02.07 0 .1-.03v-.04a.1.1 0 0 0-.07-.05c-.02 0-.04 0-.04-.02.19-.2.45-.35.8-.42.04-.01.09-.04.11-.08.17-.26.33-.43.5-.5.4.01.5-.07.25-.27l.17-.46.13-.21a.7.7 0 0 0 .07-.47Z" fill="#7F7D7D"/><path d="m7.83 9.35.3.54v.05a.06.06 0 0 1-.05.03h-.65c-.02 0-.03 0-.04-.02a.05.05 0 0 1 0-.06l.34-.54c.01-.02.03-.03.05-.03.02 0 .04.01.05.03Z" fill="#F0F3FA"/><path d="M4.9 9.6c-.06 0-.12 0-.19.02.01-.01 0-.05-.04-.1l.02-.02.1-.14a.08.08 0 0 1 .06-.03c.06-.01.1.02.11.09.02.09 0 .15-.05.19ZM13 9.46c0-.08.04-.1.12-.1h.06c.08.01.13.06.13.14 0 .1-.04.15-.15.15-.12 0-.18-.07-.17-.2ZM10.82 11.62a.63.63 0 0 0 .3-.21c.02-.02.02-.04 0-.05-.02-.02-.04-.02-.06 0a.45.45 0 0 1-.46.1.15.15 0 0 1-.11-.12c-.02-.06 0-.1.05-.14.16-.15.26-.16.27-.04a.25.25 0 0 0-.08.08l.01.06c.01.02.03.02.06.02.09 0 .17-.04.25-.09.05-.03.1-.04.16-.02.05.02.11 0 .18-.06.04-.03.06-.08.06-.15 0-.07 0-.12.02-.14a.63.63 0 0 1 .15-.17c.15.2.29.08.42-.34.07-.08.1-.16.1-.24 0-.19.06-.33.17-.42.06-.04.08-.03.07.04a2.78 2.78 0 0 1-1.17 1.84c-.34.24-.75.45-1.25.63h-.08c-.12 0-.18-.04-.18-.09.01-.04.04-.06.09-.04l.05.02.1-.01.88-.46ZM7.04 11.55a.2.2 0 0 1-.14.13 2.92 2.92 0 0 1-.92-.86l.16-.27c.04-.07.09-.08.14 0 .08.1.18.17.3.2.03.02.04.04.01.06a.15.15 0 0 0-.03.04l-.25-.08c-.08-.02-.1 0-.05.06l.05.08c.03.06.06.1.1.13.12.09.24.2.38.33.02.1.08.1.2.03a.3.3 0 0 0 .11-.17.28.28 0 0 0-.02-.2 1.4 1.4 0 0 0-.37-.43.3.3 0 0 1-.12-.25c0-.16-.06-.26-.2-.3-.08-.02-.11-.07-.1-.14 0-.02 0-.04.03-.05.05-.03.1-.02.13.04.26.45.49.76.7.92.05.04.1.1.12.15l.04.14c.02.1.05.18.1.23.07.07.05.12-.05.15l-.32.06Z" fill="#060505"/><path d="M5.92 10.38c-.06-.04-.09-.1-.08-.17 0-.02 0-.03.03-.04h.05c.1.05.13.13.1.24l-.03.03c-.01.01-.02 0-.02-.01a.08.08 0 0 0-.05-.05Z" fill="#DCDBDB"/><path d="M8.61 10.17h.57c.02 0 .03.01.04.03v.05l-.27.46a.05.05 0 0 1-.04.03c-.03 0-.04 0-.05-.03l-.3-.46a.05.05 0 0 1 0-.05.05.05 0 0 1 .05-.03Z" fill="#F0F3FA"/><path d="M12.04 10.35c-.13.42-.27.53-.42.34-.12-.06-.1-.12.08-.18.06-.03.07-.06.03-.1-.03-.04 0-.08.08-.12a.16.16 0 0 1 .07-.03c.16 0 .21.02.16.1Z" fill="#DCDBDB"/><path d="M11.25 10.34c.24.2.16.28-.26.26l.26-.26Z" fill="#060505"/><path d="M3.96 11.47c.06-.12.07-.21 0-.27a.13.13 0 0 1-.03-.12.8.8 0 0 1 .27-.42c.11-.1.16-.08.13.06l-.03.24c0 .1.04.12.12.05l.06-.05a.12.12 0 0 1 .12-.02.1.1 0 0 1 .08.1c.02.12-.02.23-.12.3a.18.18 0 0 1-.09.04l-.5.09ZM13.7 10.99c0-.1 0-.19-.03-.28-.02-.1.02-.11.1-.06.29.2.36.45.23.74-.04.06-.08.08-.15.04a.26.26 0 0 0-.2-.03.21.21 0 0 1-.16-.04.47.47 0 0 1-.2-.3v-.08a.1.1 0 0 1 .07-.04c.07-.02.13 0 .17.06.02.03.05.05.09.06h.06a.1.1 0 0 0 .02-.07Z" fill="#F0F3FA"/><path d="m12.7 10.75-.17.3c-.1.06-.17.1-.23.1-.1-.01-.1-.04-.03-.09a.8.8 0 0 0 .32-.36c.02-.04.05-.05.09-.02.01.02.02.04.01.07Z" fill="#7F7D7D"/><path d="m6.56 10.85.08-.01c.06 0 .08.03.07.09-.02.11 0 .26.08.44a4.72 4.72 0 0 0-.37-.33.35.35 0 0 1-.1-.13.7.7 0 0 0-.06-.08c-.04-.06-.03-.08.05-.06l.25.08Z" fill="#DCDBDB"/><path d="m12.7 10.75.38.98c-.1.05-.17.11-.19.2a.46.46 0 0 0-.17.2c-.04.07-.12.1-.22.12-.09-.28-.15-.56-.16-.85-.01-.1.02-.12.1-.04v.02c.03.08.04.08.05 0l.04-.33.16-.3ZM5.41 10.8l.04.53c0 .05-.02.1-.05.13a.18.18 0 0 0-.06.17c.02.1.05.1.1.01.04-.1.1-.14.16-.1.03.23-.02.48-.13.75l-.54-.54c.07-.34.23-.65.48-.96Z" fill="#F0F3FA"/><path d="M5.41 10.8c.27.22.34.46.2.73-.07-.03-.13.01-.17.11-.05.1-.08.1-.1-.01a.18.18 0 0 1 .06-.17.17.17 0 0 0 .05-.13l-.04-.54Z" fill="#7F7D7D"/><path d="M11.39 11.15c-.07.06-.13.08-.18.06a.17.17 0 0 0-.16.02.56.56 0 0 1-.25.1c-.03 0-.05-.01-.06-.03a.05.05 0 0 1 0-.06.25.25 0 0 1 .07-.08c.1 0 .17-.04.22-.12.06-.1.14-.16.23-.17.06 0 .1.01.1.07l.03.21Z" fill="#DCDBDB"/><path d="M5.05 10.98c-.17.43-.39.83-.67 1.22-.07.1-.09.1-.07-.02.06-.28.2-.54.4-.76a.8.8 0 0 0 .22-.51l.02-.01H5c.05.01.06.04.05.08Z" fill="#F0F3FA"/><path d="M8.05 11.56a.38.38 0 0 1-.2-.18c-.04-.07-.02-.1.06-.08l.38.11c.08.03.08.06 0 .1a.07.07 0 0 0-.03.05c-.02.05-.05.07-.1.07-.03 0-.06-.01-.07-.04a.1.1 0 0 0-.04-.03Z" fill="#565255"/><path d="m14.07 11.58.05-.11c.01-.04.04-.06.09-.05.06.01.1.05.12.11l.16.7c.02.09-.02.12-.12.09a.92.92 0 0 1-.28-.14c-.05-.03-.1-.09-.17-.17a2.15 2.15 0 0 0-.2-.2c-.05-.04-.06-.09-.03-.14.02-.05.06-.07.11-.05l.14.03c.06.02.1 0 .13-.07ZM3.96 11.47v.14c0 .08.03.1.1.05a.19.19 0 0 1 .11-.04c.12 0 .16.05.1.16-.16.28-.39.47-.7.54-.03.01-.07 0-.1-.03-.02-.03-.02-.06 0-.09.06-.08.09-.2.1-.36a.65.65 0 0 1 .1-.32c.06-.1.16-.1.3-.05Z" fill="#F0F3FA"/><path d="M8.34 11.9c.1-.04.16-.1.2-.15.06.17.04.26-.05.29a.72.72 0 0 1-.75-.18c.03-.14-.01-.21-.14-.24a.25.25 0 0 1 .15-.09c.08-.01.1.01.05.08-.04.07-.03.14.03.22.03.04.07.06.11.07.25.05.38.05.4 0Z" fill="#DCDBDB"/><path d="m7.04 11.55.32.22c.1.05.23.08.38.09.22.2.47.26.75.18l.12.1c.03.03.07.03.1 0 .07-.07.16-.08.28-.04.03-.01.06-.02.1-.01.17.1.27.13.3.05 0 .03.03.07.1.1a.38.38 0 0 1-.25.14c-.06.01-.11 0-.16-.04-.07-.05-.15-.05-.22 0a.32.32 0 0 1-.2.05.32.32 0 0 1-.2-.08c-.06-.04-.13-.06-.23-.06a.6.6 0 0 1-.15-.02c-.43-.12-.82-.3-1.18-.55a.2.2 0 0 0 .14-.13Z" fill="#565255"/><path d="M7.6 11.62c.13.03.17.1.14.24-.15-.01-.27-.04-.38-.1-.07-.08 0-.12.24-.14Z" fill="#F0F3FA"/><path d="m13.08 11.73.04.1c.02.12-.03.18-.13.18.03-.03 0-.05-.1-.08.02-.09.08-.15.19-.2ZM4.93 11.75l.54.54-.19.47-.7-.52.35-.5Z" fill="#7F7D7D"/><path d="M9.08 12.09 9 12.1c-.01-.03-.05-.05-.1-.06-.1-.01-.12-.05-.04-.11a.23.23 0 0 0 .05-.06c.04-.07.1-.07.15-.01.07.06.08.14.03.23ZM13.12 11.83c0 .08.03.15.09.22.04.06.03.08-.04.06h-.03a7.46 7.46 0 0 0-.34.44c-.04.07-.09.07-.14.01a.7.7 0 0 1-.16-.31c.1-.01.18-.05.22-.13v.1c.01.04.04.05.07.01l.2-.22c.1 0 .15-.06.13-.18Z" fill="#DCDBDB"/><path d="M9.42 11.94c.16 0 .24.07.25.19 0 .07-.06.1-.19.11-.06-.03-.1-.07-.1-.1l-.04-.07c-.02-.04-.01-.07.03-.1l.05-.03Z" fill="#060505"/><path d="M12.9 11.93c.08.03.12.05.09.08l-.2.22c-.03.04-.06.03-.07-.01v-.1c.05-.08.1-.15.17-.19Z" fill="#565255"/><path d="M12.78 12.66c.2-.12.35-.27.46-.44.02-.06.06-.06.11-.03.07.05.1.11.12.2a.1.1 0 0 1-.03.1l-.57.5c-.06.06-.1.05-.13-.02l-.04-.1c-.04-.1-.01-.16.08-.21ZM4.58 12.24l.7.52c.03.05.03.12 0 .2-.02.06-.06.07-.12.04-.47-.29-.66-.54-.58-.76Z" fill="#F0F3FA"/><path d="M9.1 12.52c0 .02-.03.03-.06.04-.05 0-.05.02-.02.05l.14.1c-.15.07-.36.07-.63.01.23-.02.27-.08.11-.2.15-.1.3-.1.46 0Z" fill="#565255"/><path d="M9.16 12.7c.11.02.2.05.25.1a5.83 5.83 0 0 0 .64.56c.02.04.02.07 0 .1-.02.02-.05.02-.07 0a2.45 2.45 0 0 1-.73-.59h-.03l-.03.03c-.04.03-.04.06 0 .1.11.1.12.22.01.35a.13.13 0 0 0-.02.12c.09.35.04.71-.15 1.07a.16.16 0 0 1-.12.08c-.05.01-.1 0-.14-.02-.03-.03-.04-.11-.04-.26a1.34 1.34 0 0 0-.23-.6l.16-.17c.04-.03.05-.07.03-.12a.16.16 0 0 0-.1-.1.1.1 0 0 1-.06-.05.09.09 0 0 1-.01-.08l.04-.15c.03-.08.07-.1.13-.03.03.04.04.08.03.13a.1.1 0 0 0 0 .08c.05.09.12.12.2.1.09 0 .14-.05.15-.12a.35.35 0 0 0 0-.17c-.02-.06-.06-.09-.13-.08a.46.46 0 0 1-.32-.04.12.12 0 0 0-.08-.01.12.12 0 0 0-.08.05c-.19.25-.39.41-.6.46-.13.03-.14 0-.05-.08l.72-.64c.27.06.48.06.63-.01ZM13.35 13.2l-.16-.01c-.12 0-.14-.05-.05-.13l.15-.13a.11.11 0 0 1 .11-.03c.04.01.07.04.09.08l.2.6c.02.04.01.08-.02.12-.03.03-.08.04-.14.03a.12.12 0 0 1-.08-.04.1.1 0 0 1-.02-.08l.05-.26c0-.04 0-.07-.03-.1a.14.14 0 0 0-.1-.05ZM4.3 13.56c.1-.15.15-.33.18-.51 0-.05.03-.08.07-.1a.15.15 0 0 1 .13-.01c.1.03.17.08.24.15.05.05.04.07-.04.07-.1-.01-.2.01-.28.07a.2.2 0 0 0-.06.23c.05.1.03.2-.06.25-.05.04-.1.03-.15 0-.05-.05-.06-.1-.03-.15Z" fill="#F0F3FA"/><path d="M9.55 13.38c.19.06.32.16.38.3.05.09.02.12-.08.1a.8.8 0 0 1-.47-.39c-.02-.03-.01-.06.03-.08.05-.02.08-.01.1.03 0 .02.02.03.04.04ZM8.22 13.64c.15-.12.24-.24.2-.29-.04-.04-.19.02-.34.13-.15.11-.24.24-.2.28.04.05.2 0 .34-.12Z" fill="#F0F3FA"/><path d="M8.95 13.62a.4.4 0 0 0-.04.2c0 .06-.02.08-.08.06a.08.08 0 0 1-.04-.05c-.07-.16-.01-.26.17-.3.02-.01.04 0 .05.01.01.03 0 .05-.02.05a.05.05 0 0 0-.04.03Z" fill="#565255"/><path d="M8.5 13.73c.12.17.2.37.23.6a.5.5 0 0 0-.23-.15.88.88 0 0 0-.12-.37c.01-.04.05-.06.12-.08Z" fill="#7F7D7D"/><path d="M9.35 14.28c-.07-.05-.08-.12-.04-.2a.33.33 0 0 0 .04-.26c-.02-.04 0-.05.04-.04l.13.03c.03 0 .05.03.05.06l.06.49c.01.1-.02.12-.1.06l-.18-.14ZM8.38 13.8c.07.14.11.26.12.38-.04.13-.1.2-.18.22-.06.01-.1 0-.1-.06-.07-.22-.02-.4.16-.53Z" fill="#F0F3FA"/><path d="m9.97 14.03.22-.01c0 .12-.05.17-.17.13-.03 0-.05-.02-.06-.04l.01-.08Z" fill="#9D9E9E"/></svg>