<!-- by TradingView --><svg xmlns="http://www.w3.org/2000/svg" width="18" height="18"><path fill="#F0F3FA" d="M0 0h18v18H0z"/><path d="M7.43 4.9l3.96 2.82-4.96-.1c-.66 0-1.71-.4-1.63-1.45.1-1.4 1.18-1.66 1.63-1.66.44 0 .81.26 1 .39z" fill="#3E7DA8"/><path d="M10.35 3.95l1.04 3.55-3-2.33c-.4-.3-.85-1.03-.28-1.64.75-.8 1.54-.47 1.81-.27.28.2.38.53.43.7z" fill="#00963F"/><path d="M12.57 4.79l-.99 2.61-.7-2.73c-.1-.36-.02-1 .6-1.12.84-.15 1.1.39 1.17.63.06.25-.03.49-.08.6z" fill="#EC6708"/><path d="M13.38 6.34l-1.6 1.1.7-1.8c.08-.24.38-.57.78-.4.53.22.46.62.4.78a.68.68 0 01-.28.32z" fill="#312684"/><path d="M13.47 7.5h-1.48l1.24-.8c.16-.12.49-.2.66.07.22.36 0 .58-.11.65a.54.54 0 01-.31.07z" fill="#8D004E"/><path d="M5.88 7.92h5.44l-4.48 3.03c-.58.42-1.85.62-2.42-.25-.85-1.3-.08-2.21.32-2.5.4-.27.9-.28 1.14-.28z" fill="#E40613"/><path d="M6.49 11.53l4.85-3.21-2.06 5.35c-.25.72-1.28 1.65-2.33 1.21-1.58-.66-1.47-1.93-1.3-2.41.17-.49.62-.79.84-.94z" fill="#FCC000"/></svg>