<!-- by TradingView --><svg width="18" height="18" viewBox="0 0 18 18" xmlns="http://www.w3.org/2000/svg"><path fill="#F0F3FA" d="M0 0h18v18H0z"/><path fill-rule="evenodd" d="m6.48 6.67 1.04 1.27a.04.04 0 0 1-.03.06H6.9a.12.12 0 0 1-.09-.04l-.99-1.24c-.04-.05-.11-.07-.2-.04a.05.05 0 0 0-.04.05v1.23c0 .02-.02.04-.04.04h-.5C5 8 5 7.99 5 7.96V5.05c0-.02.01-.04.03-.04.58-.02 1-.01 1.23 0 .47.05.78.46.73.92-.02.3-.2.52-.5.68-.03.02-.03.04-.01.06Zm-.9-1.12a.03.03 0 0 1 .02-.03h.5c.09 0 .17.03.23.08.06.06.1.14.1.22v.04a.28.28 0 0 1-.1.2.32.32 0 0 1-.22.1h-.5a.03.03 0 0 1-.03-.03v-.58Zm6.94 1.2c0 .01 0 .02-.02.02l-.02-.01-1.04-1.72a.08.08 0 0 0-.07-.04h-.32c-.03 0-.04.02-.04.04v2.91c0 .03.01.05.04.05h.5c.02 0 .03-.02.03-.05V6.41c0-.04.02-.05.04-.01.1.13.3.47.61 1 .07.11.13.1.24.1h.07c.1 0 .17.01.24-.1.31-.53.51-.87.6-1 .03-.04.04-.03.04.01v1.54c0 .03.02.05.05.05h.49c.03 0 .04-.02.04-.05v-2.9c0-.03-.01-.05-.04-.05h-.32a.08.08 0 0 0-.07.04l-1.05 1.72ZM9.36 5.02a1.55 1.55 0 0 0-.34 0 .07.07 0 0 0-.06.04l-1.23 2.9c-.01.03 0 .05.04.05h.48c.04 0 .07-.02.09-.06l.23-.57c.01-.02.03-.03.06-.03a19.72 19.72 0 0 1 1.17.03l.24.57c.02.04.05.06.09.06h.48c.04 0 .05-.02.04-.06L9.4 5.05a.07.07 0 0 0-.05-.04Zm-.2.98-.34.8a.02.02 0 0 0 .01.03h.7a.02.02 0 0 0 .02-.02v-.01l-.34-.8a.02.02 0 0 0-.02-.02.02.02 0 0 0-.02.02ZM9 10.75a2.25 2.25 0 1 1-4.5 0 2.25 2.25 0 0 1 4.5 0Zm-2.25 1.48a1.48 1.48 0 1 0 0-2.96 1.48 1.48 0 0 0 0 2.96Zm4.16-2.1a274.02 274.02 0 0 1 2.45 2.84c.02.02.04.03.07.03h.53c.03 0 .04-.01.04-.04V8.51H13.16a.04.04 0 0 0-.04.03v2.82c0 .04-.01.04-.04.01a274.02 274.02 0 0 1-2.45-2.84.08.08 0 0 0-.07-.03h-.53c-.03 0-.04.01-.04.04v4.43a.03.03 0 0 0 .03.03h.8a.04.04 0 0 0 .04-.04v-2.82c0-.04.01-.04.04-.01ZM3.5 13a.5.5 0 1 0 0-1 .5.5 0 0 0 0 1Z" fill="#0E3159"/></svg>