<!-- by TradingView --><svg width="18" height="18" viewBox="0 0 18 18" xmlns="http://www.w3.org/2000/svg"><path fill="#F0F3FA" d="M0 0h18v18H0z"/><path d="M6.02 6H15l-3.02 6H3l3.02-6Z" fill="#00834A"/><path fill-rule="evenodd" d="M8.6 9.4a7.9 7.9 0 0 0 1.74-.77c.39-.24.7-.58.65-1.04a.66.66 0 0 0-.63-.59 1.72 1.72 0 0 0-1.65.84c-.2.3-.4.68-.65 1.15-.07.14-.19.19-.33.22-.05.01-.06.04-.02.07.09.07.1.16.05.26-.26.45-.5.92-.74 1.33-.05.1-.02.13.09.13h.32c.1 0 .17-.04.22-.12l.52-.97c.02-.04.08-.05.1-.01l.65 1.02c.03.05.08.08.14.08h.43c.07 0 .09-.03.05-.09l-.98-1.43c-.02-.03 0-.07.03-.08Zm.62-.73c.52-.23 1.2-.54 1.29-.96.02-.13-.06-.28-.2-.28-.44 0-.79.18-1.06.56-.16.24-.3.49-.43.76-.04.1-.02.12.08.07l.32-.15Z" fill="#fff"/></svg>