<!-- by TradingView --><svg width="18" height="18" viewBox="0 0 18 18" fill="none" xmlns="http://www.w3.org/2000/svg">
<rect width="18" height="18" fill="#00457C"/>
<path fill-rule="evenodd" clip-rule="evenodd" d="M9 5H5V13H7V8C7 6.55118 8.0625 5.30769 9 5ZM11 11C12.6569 11 14 9.65685 14 8C14 6.34315 12.6569 5 11 5C9.34315 5 8 6.34315 8 8C8 9.65685 9.34315 11 11 11ZM11 10C12.1046 10 13 9.10457 13 8C13 7.67835 12.9241 7.37444 12.7892 7.10521L9.93525 9.69332C10.2436 9.8876 10.6087 10 11 10ZM12.1321 6.35106L9.24845 8.9662C9.09012 8.67979 9 8.35042 9 8C9 6.89543 9.89543 6 11 6C11.4203 6 11.8102 6.12962 12.1321 6.35106Z" fill="white"/>
</svg>
