<!-- by TradingView --><svg width="18" height="18" viewBox="0 0 18 18" xmlns="http://www.w3.org/2000/svg"><path fill="#F0F3FA" d="M0 0h18v18H0z"/><path fill-rule="evenodd" d="M8.84 6.9a1.29 1.29 0 1 0 0-2.58 1.29 1.29 0 0 0 0 2.58Zm0 .33a1.61 1.61 0 1 0 0-3.23 1.61 1.61 0 0 0 0 3.23Z" fill="#559767"/><circle cx="12.5" cy="5.5" r="1.5" fill="#559767"/><path fill-rule="evenodd" d="M7 4.65H4.32v9.03H7V4.65Zm-3-.33V14h3.32V4.32H4Z" fill="#559767"/><path d="M8.84 7.23a1.61 1.61 0 0 0 .97-2.9H11V14H8V7c.24.14.53.23.84.23Z" fill="#559767"/></svg>