<!-- by TradingView --><svg width="18" height="18" viewBox="0 0 18 18" xmlns="http://www.w3.org/2000/svg"><path fill="#F0F3FA" d="M0 0h18v18H0z"/><path d="M7.97 5.94C8 6 8.03 6 8.1 6h2.35V4H7.62c-.12 0-.22.09-.21.19l.01.09.33.97.22.69ZM11 6V4.42L11.48 6H11Zm-3.94 4s.75-1.44.81-1.62a.35.35 0 0 0 0-.23c-.15-.47-.29-.84-.43-1.22L7.1 6 5.55 9.5C5.03 10.66 4.5 11.82 4 13h1.56c.23 0 .3-.1.33-.14.09-.21.2-.45.32-.68.13-.27.27-.53.37-.77 0-.05.08-.11.13-.11H9L8.55 10H7.06Zm6.3 1.06c-.03-.06-.06-.06-.11-.06H11v2h2.8c.11 0 .2-.09.2-.19a67.4 67.4 0 0 1-.64-1.75Zm-.82-2.2.62 1.64H11V8.84c0-.05.04-.08.07-.07h1.35c.06 0 .1.04.12.08ZM11 6.5v1.76h1.37l-.52-1.51c-.09-.25-.2-.25-.35-.25H11ZM8.77 8.18 8.21 6.5h2.23v1.69c0 .05-.04.08-.07.08H8.9a.13.13 0 0 1-.13-.1Zm1.67 2.32V8.77H9l.56 1.49c.1.24.2.24.35.24h.53Zm0 .5v1.45L9.86 11h.58Z" fill="#171C5E"/></svg>