<!-- by TradingView --><svg width="18" height="18" viewBox="0 0 18 18" xmlns="http://www.w3.org/2000/svg"><path fill="#F0F3FA" d="M0 0h18v18H0z"/><path d="M14 9c0 2.76-2.56 5-5.71 5a6.3 6.3 0 0 1-3-.74c.65.25 1.36.4 2.1.4 2.9 0 5.24-2.1 5.24-4.66 0-2.57-2.34-4.66-5.23-4.66-.73 0-1.43.13-2.06.37A6.31 6.31 0 0 1 8.29 4C11.44 4 14 6.24 14 9ZM5.45 4.68c-.45.44-.96 1.64.6 2.93 1.96 1.6 2 2.48 2 2.99 0 .5-.12 1.3-1.48 2.27.68-.05 2.2-.54 2.8-2.15.74-2.02 1.35-2.1 1.75-2.13-.3-.3-1.17-.74-2.25 0-.11-.3-.7-1.05-2.08-1.62-1.38-.57-1.46-1.76-1.34-2.3Z" fill="url(#aag2p34gt)"/><defs><linearGradient id="aag2p34gt" x1="12.12" y1="5.37" x2="5.58" y2="12.86" gradientUnits="userSpaceOnUse"><stop stop-color="#2B388F"/><stop offset=".57" stop-color="#2A917B"/><stop offset="1" stop-color="#29B473"/></linearGradient></defs></svg>