<!-- by TradingView --><svg width="18" height="18" viewBox="0 0 18 18" xmlns="http://www.w3.org/2000/svg"><path fill="#FECB00" d="M0 0h18v18H0z"/><path d="M10.75 9.4s.75-.1.75-1.16C11.5 7.07 10.15 7 10.15 7H7v4h1V9.4h1.5l1.25 1.6H12l-1.25-1.6Zm-.79-.6H8v-1h1.97s.53-.07.53.48-.54.52-.54.52Z" fill="#000103"/><path d="M6.26 11.38 6.08 11l-.14.15A3.24 3.24 0 0 0 5 13.3v.03a1.21 1.21 0 0 0 0 .24c0 .16.04.37.14.58.1.21.26.43.53.59.26.16.63.26 1.1.26 1.3 0 2.58-.57 3.53-1.12a12.23 12.23 0 0 0 1.56-1.09l.02-.02h.01l.1-.1-.47-.54-.11.09a11.53 11.53 0 0 1-3.17 1.9c-.74.27-1.21.27-1.45.27a1.7 1.7 0 0 1-.82-.18c-.25-.14-.46-.4-.46-.93a2.87 2.87 0 0 1 .68-1.83l.06-.07ZM11.74 6.62l.18.38.14-.15A3.24 3.24 0 0 0 13 4.7v-.03a1.21 1.21 0 0 0 0-.24 1.63 1.63 0 0 0-.14-.58c-.1-.21-.26-.43-.53-.59a2.12 2.12 0 0 0-1.1-.26c-1.3 0-2.58.57-3.53 1.12a12.22 12.22 0 0 0-1.56 1.09l-.02.02H6.1l-.1.1.47.54.11-.09a11.53 11.53 0 0 1 3.17-1.9 3.96 3.96 0 0 1 1.45-.27c.24 0 .56.03.82.18.25.14.46.4.46.93a2.87 2.87 0 0 1-.68 1.83l-.06.07Z" fill="#F0F3FA"/></svg>