<!-- by TradingView --><svg width="18" height="18" viewBox="0 0 18 18" xmlns="http://www.w3.org/2000/svg"><path fill="#F0F3FA" d="M0 0h18v18H0z"/><path d="M13 10.67H7L6.33 12H13c.8 0 1-1.6 1-2.4-.13.64-.72 1.07-1 1.07Z" fill="#00945A"/><path d="M4 10c0 1.12.67 2.33 1 2.8a2.5 2.5 0 0 1 0-1.2l3-6-1.33-1.2c-.45.87-1.47 2.84-2 3.8C4.13 9.16 4 9.8 4 10Z" fill="url(#ajmvgaxh3)"/><path d="M13 12H6.33l-1 1.2c0 .2.73.8 1 .8H12c1 0 1.5-1.36 1.58-2.16-.13.32-.47.16-.58.16Z" fill="url(#bjmvgaxh3)"/><path d="M6.67 12a3.6 3.6 0 0 0-.34 2c-.5 0-1-.6-1.33-1.2a1.3 1.3 0 0 1 0-1.2l3-6 1.17 1.8c-.67 1.2-2.1 3.8-2.5 4.6Z" fill="url(#cjmvgaxh3)"/><path d="M7.33 4c-.53 0-.77.53-.83.8.4-.16.72.2.83.4l2.9 5.47h2.27L9 4H7.33Z" fill="#D71A20"/><path d="M10.33 4H9l3.4 6.67h1.1c.53 0 .5-.8.5-1.07-.67-1.2-2.1-3.8-2.5-4.6-.4-.8-.94-1-1.17-1Z" fill="url(#djmvgaxh3)"/><defs><linearGradient id="ajmvgaxh3" x1="7.17" y1="4.8" x2="3.97" y2="12.23" gradientUnits="userSpaceOnUse"><stop stop-color="#FFCFBA"/><stop offset=".22" stop-color="#EF2928"/><stop offset="1" stop-color="#D61C1D"/></linearGradient><linearGradient id="bjmvgaxh3" x1="6.67" y1="13.4" x2="12.67" y2="13.4" gradientUnits="userSpaceOnUse"><stop stop-color="#F7F7F5"/><stop offset=".55" stop-color="#D1D1D1"/><stop offset="1" stop-color="#BDBDBD"/></linearGradient><linearGradient id="cjmvgaxh3" x1="8.17" y1="6.8" x2="5.01" y2="13.19" gradientUnits="userSpaceOnUse"><stop stop-color="#E5E6E8"/><stop offset="1" stop-color="#E5E4E7"/></linearGradient><linearGradient id="djmvgaxh3" x1="9.67" y1="4" x2="14.47" y2="9.57" gradientUnits="userSpaceOnUse"><stop stop-color="#02975D"/><stop offset=".56" stop-color="#018F5D"/><stop offset=".73" stop-color="#4AAB8A"/><stop offset="1" stop-color="#DDF1E5"/></linearGradient></defs></svg>