<!-- by TradingView --><svg width="18" height="18" viewBox="0 0 18 18" xmlns="http://www.w3.org/2000/svg"><path fill="#F0F3FA" d="M0 0h18v18H0z"/><path d="M5.04 4.17a22.1 22.1 0 0 1 7.92 0H13V14H5V4.17h.04Zm.22.21v9.3h7.48v-9.3a20.31 20.31 0 0 0-7.48 0Z" fill="#7B7C7C"/><path d="M12.47 13.4H5.5V4.66c2.7-.59 5.76-.24 6.96 0v8.76Z" fill="#A8A958"/><path d="M5.5 4.6c2.7-.6 5.78-.25 6.98 0h.04v8.86H5.46V4.61l.04-.01Zm.08.1v8.65h6.83V4.7a18.94 18.94 0 0 0-6.83 0Z" fill="#777B3B"/><path d="M6.17 13.37h6.26V10.6l-.38-.3c-.23-.44-.86-1.08-1.49-.13-.19.04-.56.23-.54.58-.4-.21-1.25-.4-1.51.51-.13.01-.44.08-.6.3-.21-.42-.79-1.1-1.35-.44l-.4.66v1.6Z" fill="#fff"/><path d="M8.63 12.4V9.17c-.22.06-.64.15-.63 0 .02-.15.3-.28.43-.33L8 8.56l.63-.1-.4-.23.4-.35L8 7.53l.63-.2-.72-.44.72-.37-.4-.12c-.18.12-.56.32-.58.12 0-.12.05-.17.11-.22.07-.06.15-.12.15-.3h.72l-.86-.28.86-.7-.72.1.52-.6-.52.15.52-.46-.33-.3.53-.31-.4-.13c.22-.07.68-.27.8-.47l.53.47H9.2c.16.2.46.65.35.74-.07.07-.16.02-.23-.02s-.12-.07-.12.02c0 .08.08.1.17.14.14.05.28.1.18.32l-.2.16.41.29c0 .18-.06.53-.21.43-.2-.12-.16.19.21.45.37.27-.02.33-.21.3-.2-.05-.35-.03-.35.1 0 .12.54.35.7.32.15-.02.54.35.27.48-.13.06-.23 0-.32-.03-.1-.05-.2-.1-.3.03-.09.1.02.21.17.37.2.2.45.48.45.88-.22-.07-.7-.23-.82-.33-.15-.12-.15.31.2.44.12.04.25.05.35.05.18.01.29.02.17.23-.14.27-.47.11-.62 0l.2.33-.2.35-.2-.21.1 3.13c.99.07 2.28.18 3.07.26v.67H5.57V10.6l.31.37.18-.25.2.4.1-.4.26.25.16.55.25-1.03.33 1.03.18-.55.11.71.16-.4.15.8c.02-.14.07-.41.2-.4.12.02.23.49.27.72h.2Z" fill="#131C1E"/></svg>