<!-- by TradingView --><svg width="18" height="18" viewBox="0 0 18 18" xmlns="http://www.w3.org/2000/svg"><path fill="#132440" d="M0 0h18v18H0z"/><path fill-rule="evenodd" d="M5.71 4A1.7 1.7 0 0 0 4 5.7v6.6c0 .94.77 1.7 1.71 1.7h1.84c.26 0 .44-.22.45-.47v-4.3C8 8.53 8.34 8 9.07 8s1.26.41 1.26 1.13c0 1-.94 1.38-1.17 1.38-.23 0-.4.04-.48.2-.06.13.03.3.07.36l2.6 2.8.07.13h.87A1.7 1.7 0 0 0 14 12.3V5.7c0-.94-.77-1.7-1.71-1.7H5.71Zm6.23 9h.3c.57 0 .76-.19.76-.75v-6.5c0-.56-.19-.75-.76-.75H5.76c-.57 0-.76.19-.76.75v6.5c0 .56.14.75.71.75H7V8.67C7.1 8.08 7.66 7 9.07 7a2.16 2.16 0 0 1 2.31 2.13c0 .76-.32 1.59-1.3 1.94 0 .03.53.57 1.1 1.16l.76.77Z" fill="#fff"/></svg>