<!-- by TradingView --><svg width="18" height="18" viewBox="0 0 18 18" xmlns="http://www.w3.org/2000/svg"><path fill="#F0F3FA" d="M0 0h18v18H0z"/><path d="M7.97 4.62a.8.8 0 0 0 .79-.8.8.8 0 0 0-.79-.82.8.8 0 0 0-.78.81c0 .45.35.81.78.81Z" fill="#B6D64F"/><path d="M8.88 8.35A6.53 6.53 0 0 0 7.34 10a6.43 6.43 0 0 0-.86-2.97h-.01l-.02.02-.16.27c-.01.03-.03.03-.04 0l-.17-.26a.09.09 0 0 1 0-.09 6.08 6.08 0 0 1 1.72-2L7.8 5a6.14 6.14 0 0 1 1.07 3.36Z" fill="#0495D1"/><path d="M12.43 6.74a.8.8 0 0 0 .78-.81.8.8 0 0 0-.78-.81.8.8 0 0 0-.78.81c0 .45.35.81.78.81ZM6.1 7.77a6.26 6.26 0 0 0 .28 5.6l-.05.03a6.2 6.2 0 0 1-2.8-8h.02A5.86 5.86 0 0 1 6.1 7.78Z" fill="#B6D64F"/><path d="M6.55 13.46h-.08a.44.44 0 0 0-.14-.06l.05-.03v-.03a6.26 6.26 0 0 1-.28-5.57l.1.2c.88 1.64 1 3.58.3 5.3-.02.03-.01.04 0 .04v.05a.02.02 0 0 0 .03.02l.07-.05v.02h.03a6.2 6.2 0 0 0 2.95-5.43.03.03 0 0 0-.03 0l-.28.16a.03.03 0 0 1-.03 0v-.01l-.01-.02-.02-.32c0-.03.01-.06.04-.08a5.83 5.83 0 0 1 2.44-.82.05.05 0 0 1 .02.03 6.04 6.04 0 0 1-4.98 6.56h-.18c-.01 0-.02 0-.01.01l.01.03Z" fill="#81C459"/><path d="M8.88 8.35v.23a6.2 6.2 0 0 1-2.28 4.75l-.07.05a.02.02 0 0 1-.02 0 .02.02 0 0 1-.01-.02v-.05a6.12 6.12 0 0 0 .84-3.3.5.5 0 0 0 .17-.18l.11-.2c.36-.48.78-.9 1.26-1.28Z" fill="#306A90"/><path d="M15.22 10.87a.8.8 0 0 0 .78-.8.8.8 0 0 0-.78-.82.8.8 0 0 0-.78.81c0 .45.35.81.78.81Z" fill="#B6D64F"/><path d="M6.47 13.47c0-.02.03-.02.08-.01a5.85 5.85 0 0 0 5.27-3.18l-.01-.01h-.33c-.03 0-.03-.02-.02-.04l.14-.3a.06.06 0 0 1 .06-.04 5.68 5.68 0 0 1 2.51.56.05.05 0 0 1 0 .03 5.79 5.79 0 0 1-7.7 2.99Z" fill="#306A90"/></svg>