<!-- by TradingView --><svg width="18" height="18" viewBox="0 0 18 18" xmlns="http://www.w3.org/2000/svg"><path fill="#F0F3FA" d="M0 0h18v18H0z"/><path fill-rule="evenodd" d="M11.94 5.17c-.1-.23-.39-.23-.5 0L8.9 10.5 8.1 9.22c.72-.54 1.39-1.3 1.39-2.16 0-1.4-.96-1.96-1.44-2.06H4.81c-.45 0-.81.4-.81.91v2.96A6.98 6.98 0 0 0 5.52 13c.31-.64.9-1.09 1.17-1.23a5.67 5.67 0 0 1-1.07-3.24c0-1.04.34-1.45.44-1.57l.02-.03c.05-.06.36-.1.5-.11h1.27c.18 0 .36.14.36.43 0 .23-.1.4-.14.44L6.3 9l1.87 3-.5 1h1.5l.45-1h5.24c.11 0 .19-.15.13-.27l-3.04-6.56Zm.92 5.34-1.22-2.56-1.21 2.55 2.43.01Z" fill="url(#a)"/><path d="M6.42 12.62c-.25.26-.5.42-.57.36-.07-.07.09-.34.34-.6.25-.27.51-.43.57-.37.07.07-.09.34-.34.6Z" fill="#0B2E7D"/><path d="M7.28 13.12c-.05.05-.12.08-.14.07-.01-.02.01-.08.07-.14.05-.06.11-.08.12-.07.02.02 0 .08-.05.14Z" fill="#3E8C48"/><path d="M7 13.19c-.05.05-.12.08-.14.07-.01-.02.01-.08.07-.14.05-.06.11-.08.12-.07.02.02 0 .08-.05.14Z" fill="#54709B"/><path d="M6.9 13.48c-.05.06-.12.08-.14.07 0-.01.01-.08.07-.14.05-.05.11-.08.13-.06 0 .01 0 .08-.06.13Z" fill="#9B100E"/><path d="m7.61 13.43-.33-.35-.05.05.34.35c0 .03.02.05.05.05.02 0 .05-.02.05-.05a.05.05 0 0 0-.05-.05ZM7.34 13.9l-.44-.45-.05.05.44.45c0 .03.02.05.05.05.03 0 .05-.02.05-.05a.05.05 0 0 0-.05-.05Z" fill="#4C95CF"/><path d="m7.12 13.14-.72-.76.2-.2.7.76-.18.2Z" fill="url(#b)"/><path d="m6.83 13.23-.65-.69.18-.2.66.7-.19.19Z" fill="url(#c)"/><path d="m6.74 13.5-.72-.76.19-.2.71.77-.18.2Z" fill="#810100"/><defs><linearGradient id="a" x1="14.72" y1="11.19" x2="4" y2="11.19" gradientUnits="userSpaceOnUse"><stop stop-color="#1662A1"/><stop offset="1" stop-color="#0A2979"/></linearGradient><linearGradient id="b" x1="6.98" y1="12.62" x2="6.79" y2="12.79" gradientUnits="userSpaceOnUse"><stop stop-color="#98C879"/><stop offset="1" stop-color="#0B6A2C"/></linearGradient><linearGradient id="c" x1="6.72" y1="12.75" x2="6.54" y2="12.91" gradientUnits="userSpaceOnUse"><stop stop-color="#B8EAFA"/><stop offset="1" stop-color="#121F5B"/></linearGradient></defs></svg>