<!-- by TradingView --><svg width="18" height="18" viewBox="0 0 18 18" xmlns="http://www.w3.org/2000/svg"><path fill="#F0F3FA" d="M0 0h18v18H0z"/><path d="M11.46 7.28A3 3 0 1 1 9 6l1.46-.82-.53-1.1A4.98 4.98 0 0 0 4 8.97 5.04 5.04 0 0 0 9 14a5.04 5.04 0 0 0 4.24-7.66l-1.78.94Z" fill="url(#a)"/><path d="M11.86 3.68 9.97 3l1.14 2.27L9 6.47l1.92.53L13 5.81l-1.14-2.13Z" fill="#1A0F0D"/><defs><linearGradient id="a" x1="4.61" y1="6.11" x2="13.29" y2="11.37" gradientUnits="userSpaceOnUse"><stop stop-color="#C2C2C3"/><stop offset=".54" stop-color="#CECECF"/><stop offset="1" stop-color="#C5C6C6"/></linearGradient></defs></svg>