<!-- by TradingView --><svg width="18" height="18" viewBox="0 0 18 18" xmlns="http://www.w3.org/2000/svg"><path fill="#F0F3FA" d="M0 0h18v18H0z"/><path fill-rule="evenodd" d="M6.1 4C5.5 4 5 4.45 5 5v3h2.46a1.14 1.14 0 0 1 .56 2.14c.34.14.36.52.37.71v.69c-.02.16.2.29.3.34V12H7.57a4.28 4.28 0 0 1-.14-1.09.53.53 0 0 0-.51-.51H6V12H5v1c0 .55.5 1 1.1 1h5.8c.6 0 1.1-.45 1.1-1V5c0-.55-.5-1-1.1-1H6.1Zm1.1 4.67H6v1.06h1.2a.53.53 0 0 0 0-1.06ZM11.16 8H8.69v4h.93v-1.6h.99c.16 0 .49.14.5.51.03.47.07.88.15 1.09h1.13v-.12h-.01c-.09-.05-.31-.18-.3-.34v-.69c0-.19-.03-.57-.36-.7A1.14 1.14 0 0 0 11.16 8Zm-.27.67H9.62v1.06h1.27a.53.53 0 0 0 0-1.06Z" fill="#83BF4C"/></svg>