<!-- by TradingView --><svg xmlns="http://www.w3.org/2000/svg" width="18" height="18" viewBox="0 0 18 18"><path fill="#F0F3FA" d="M0 0h18v18H0z"/><path d="M6.21 14c-.99-.52-1.13-1.04-1.21-1.56V14h1.21z" fill="#002748"/><path d="M5.47 8.38A1.8 1.8 0 0 1 5 7.44c0 1.45.28 1.64.28 1.64l5.2 4.92h.94a705.72 705.72 0 0 1-5.95-5.62z" fill="#4089B4"/><path d="M5.3 9.98a1.1 1.1 0 0 1-.26-.67c-.1.65.04 1.06.13 1.18L8.87 14h.68A504.8 504.8 0 0 1 5.3 9.98z" fill="#23669B"/><path d="M5.18 11.6a.66.66 0 0 1-.15-.41c-.07.39 0 .71.1.85L7.07 14h.65l-2.55-2.4z" fill="#104B6B"/><path d="M5 4v2.8c0 .18.36.61.54.8l6.8 6.4h1.16a430.73 430.73 0 0 0-6.28-5.86c-.86-.74-.91-1.07-.91-1.33 0-.38.6-.81 1.96-.81 1.7 0 2.61 1.18 2.61 2.04 0 .68-.33 1.34-.44 1.58l1.31 1.36A4.32 4.32 0 0 0 13.5 7.6 3.6 3.6 0 0 0 9.9 4H5z" fill="#499AD4"/></svg>