<!-- by TradingView --><svg width="18" height="18" viewBox="0 0 18 18" xmlns="http://www.w3.org/2000/svg"><path fill="#F0F3FA" d="M0 0h18v18H0z"/><circle cx="3" cy="9" r="1"/><path d="M3.04 10.32A2.67 2.67 0 0 0 5.52 12c1.37 0 2.36-.85 3.27-1.8l1.31-1.3C11.18 7.82 12.03 7 13.06 7 14.12 7 15 8.05 15 9s-.65 2-1.94 2c-1.08 0-1.82-.75-2.54-1.48l-.4-.4-.64.61c1 1.07 2.14 2.27 3.72 2.27 1.87 0 2.8-1.57 2.8-3s-1.26-3-2.8-3c-1.12 0-2.1.7-3.17 1.73-.6.63-1.18 1.2-1.72 1.75C7.6 10.2 7.02 11 5.94 11c-.87 0-1.44-.51-1.73-1.14a1.3 1.3 0 0 1-1.17.46Z"/><path d="M4.2 8.12A2 2 0 0 1 5.93 7c1 0 1.67.87 2.7 1.9l.63-.6C7.95 6.97 6.84 6 5.52 6 4.42 6 3.45 6.74 3 7.68a1.3 1.3 0 0 1 1.2.44Z"/></svg>