<!-- by TradingView --><svg width="18" height="18" viewBox="0 0 18 18" xmlns="http://www.w3.org/2000/svg"><path fill="#F0F3FA" d="M0 0h18v18H0z"/><path d="m3.06 9-.42 2H3.8l.2-1h.6l.52 1H6.3l-.58-1.06c.6-.2 1.05-.82 1.05-1.49 0-.8-.65-1.45-1.45-1.45H3.46l-.19 1h1.75c.34 0 .62.1.62.44 0 .35-.28.56-.62.56H3.06Zm4.77 2h-1.2l.44-2H9.1c.36 0 .65-.21.65-.56 0-.34-.29-.44-.65-.44H7.3l.2-1H9.4c.83 0 1.5.65 1.5 1.45 0 .8-.67 1.55-1.5 1.55H8.04l-.21 1Z" fill="#004F7E"/><path d="M2.17 11.38 2 12h9.46l.6-3.14.75 1.58h.48l1.37-1.58-.62 3.14h1.32l.17-.62h-.3L16 7h-.9l-1.8 2.3-.93-2.3h-.95l-.84 4.38h-8.4Z" fill="#DA0C11"/></svg>