<!-- by TradingView --><svg width="18" height="18" viewBox="0 0 18 18" xmlns="http://www.w3.org/2000/svg"><path fill="#F0F3FA" d="M0 0h18v18H0z"/><path d="M8.04 8.88c-.92.3-1.8.78-2.63 1.44-.18.05-.38.19-.6.42l-1.1 1-.93 1.07a.61.61 0 0 1-.18.14.4.4 0 0 1-.2.05l-.23-.01c-.17-.01-.21-.09-.13-.23a14.73 14.73 0 0 1 4.49-4.54A21.08 21.08 0 0 1 15.87 5c.14-.01.17.04.08.15l-1.68 2.37a.2.2 0 0 1-.15.08c-2.1.08-4.14.5-6.08 1.28Z" fill="#E4007F"/><path d="M5.4 10.32a8.55 8.55 0 0 1 2.64-1.44l5.55-.82c.25-.04.3-.1.44-.3.09-.13.2-.2.32-.23l.9-.2c.12-.02.14.02.07.12L13.8 9.57a.17.17 0 0 1-.13.07l-8.27.68Z" fill="#F8B100"/><path d="M3.5 12c.38-.51 1.31-1.26 1.31-1.26l9.76-.67h.01l.01.02v.03l-1.2 1.77c-.02.02-.05.11-.07.11H3.49Z" fill="#005A49"/></svg>