<!-- by TradingView --><svg width="18" height="18" viewBox="0 0 18 18" xmlns="http://www.w3.org/2000/svg"><path fill="#F0F3FA" d="M0 0h18v18H0z"/><path fill="#C12033" d="M5 5h8v8H5z"/><path d="M13.26 5.25C11.78 4 5.72 7.67 3.06 10.17c8.66-4.57 8.75-4.2 9.2-3.97.28.14.6.96-.84 3.14-1.44 2.19-2.38 4.62-.65 4.62 1.16 0 2.62-1.03 3.17-1.57-2.35.96-4 .07-1.68-3.05 1.86-2.48 1.44-3.76 1-4.1Z" fill="#221F1F"/><path d="M13.26 5.5C11.78 4.28 5.8 8.14 3 10.23c8.66-4.57 8.81-3.99 9.26-3.76.28.14.76.96-.68 3.14-1.43 2.18-2.13 4.4-.67 4.4 1.16 0 2.54-1.08 3.09-1.62-2.85 1.37-4.05.34-1.74-2.78 1.86-2.48 1.44-3.76 1-4.1Z" fill="url(#a1y0pwoiu)"/><defs><linearGradient id="a1y0pwoiu" x1="3.72" y1="11.86" x2="14.43" y2="11.86" gradientUnits="userSpaceOnUse"><stop offset=".03" stop-color="#C18F45"/><stop offset=".18" stop-color="#FCF181"/><stop offset=".51" stop-color="#BF8D43"/><stop offset=".79" stop-color="#FAEF7F"/><stop offset="1" stop-color="#D3AE57"/></linearGradient></defs></svg>