<!-- by TradingView --><svg width="18" height="18" viewBox="0 0 18 18" xmlns="http://www.w3.org/2000/svg"><path fill="#313B44" d="M0 0h18v18H0z"/><path d="M2 6v6h1v-2h1.13l.95 2H6.3L5.27 9.9c.7-.27 1.23-1.08 1.23-1.96C6.5 6.87 5.7 6 4.78 6H2Zm1 3V7h1.56c.52 0 .94.45.94 1s-.42 1-.94 1H3Zm4 3h1v-2h2.5V9H8V7h3V6H7v6Zm5-2.95c-.04-.63.22-2.05 1.76-2.05.28.01 1.1.22 1.38.84L16 7.3C15.72 6.86 14.89 6 13.76 6 12.34 6 11 6.89 11 9.05c0 2.16 1.44 2.95 2.38 2.95.75 0 1.41-.45 1.62-.68V12h1V9h-2v1h.84s-.23 1-1.08 1C12.69 11 12 10.05 12 9.05Z" fill="#fff"/></svg>