<!-- by TradingView --><svg width="18" height="18" viewBox="0 0 18 18" xmlns="http://www.w3.org/2000/svg"><path fill="url(#a3a2ttjeb)" d="M0 0h18v18H0z"/><path d="M5.85 11.9 4 9.4V5.56c0-.3.2-.55.48-.55.28 0 .44.25.44.55v2.02l-.41.48a.6.6 0 0 0-.03.77l1.24 1.51c.04.06.12.06.17.01a.13.13 0 0 0 0-.17l-1.1-1.3a.63.63 0 0 1 .03-.81c.1-.1.23-.16.36-.17.14 0 .29.06.4.17l2.13 2.32c.18.2.29.48.29.77V14H5.85v-2.1ZM12.15 11.9 14 9.4V5.56c0-.3-.2-.55-.48-.55-.28 0-.44.25-.44.55v2.02l.41.48c.2.2.21.55.03.77l-1.24 1.51a.11.11 0 0 1-.17.01.13.13 0 0 1 0-.17l1.1-1.3c.19-.23.18-.6-.03-.81a.52.52 0 0 0-.36-.17.52.52 0 0 0-.4.17l-2.13 2.32c-.18.2-.29.48-.29.77V14h2.15v-2.1Z" fill="#fff"/><path fill-rule="evenodd" d="M9.3 9.96c.7.06 1.5-.45 1.96-.98.34-.45.54-.8.6-1.06.1-.55.16-.96.14-1.22-.05-.63-.3-1.2-.76-1.7a2.9 2.9 0 0 0-2.02-1 3.74 3.74 0 0 0-1.36.17 1.58 1.58 0 0 0-.5.33 9.06 9.06 0 0 0-.69.54c-.13.1-.2.21-.24.34-.07.23-.16.46-.27.69-.1.18-.15.38-.16.6-.01.4.02.77.11 1.1a3.35 3.35 0 0 0 .82 1.33l.2.2c.27.26.6.58.9.6l.77.1c.09 0 .17 0 .26-.02.08-.01.16-.03.25-.02ZM8.06 8.2c-.01-.24.03-.35.13-.34.22.04.4.04.53.01.05 0 .07-.03.08-.08 0-.03-.02-.05-.05-.06-.2-.07-.2-.2-.19-.36 0-.1 0-.19-.03-.27-.02-.06-.04-.06-.06 0a.46.46 0 0 1-.3.32c-.05.02-.08 0-.09-.05l-.02-.21c-.02-.16-.21-.22-.3-.1-.12.15-.22.32-.3.51-.03.12-.19.18-.29.11-.1-.07-.14-.17-.09-.3.15-.36.37-.7.6-1.03l.26-.43c.05-.06.11-.1.2-.12h.02c.08 0 .14.06.14.14 0 .26-.11.36-.24.48l-.15.16a.2.2 0 0 0 .03.3c.12.08.25.1.41.09a.1.1 0 0 0 .09-.07c.12-.25.16-.54.13-.84 0-.04 0-.08.02-.11.05-.1.14-.18.26-.22.04-.02.05-.04.04-.08a.12.12 0 0 0-.1-.1 21.8 21.8 0 0 0-.54-.1c-.05-.01-.06-.04-.03-.09L8.48 5c.13-.17-.2-.23-.29-.28L8.1 4.7l-.03.01c-.02.02-.03.04-.01.06.04.1.17.78-.1.64a.63.63 0 0 1-.33-.4.11.11 0 0 0-.06-.07.1.1 0 0 0-.08-.01c-.38.11-.57.54-.67.91 0 .04.02.08.05.1h.03l.24-.04c.04-.01.09.03.09.08V6c0 .09-.04.14-.12.15l-.25.05a.23.23 0 0 0-.14.09.25.25 0 0 0-.05.16.76.76 0 0 1-.12.46c-.15.25-.06.57.11.77.23.28.45.61.67 1 .2.37.52.56.95.6.72.04 1.36.06 1.9.04.1 0 .08.13.04.17a48.57 48.57 0 0 1-2.05-.02c-.34 0-.57-.23-.8-.44h-.01c-.4-.37-.74-.84-1.04-1.4a.76.76 0 0 1-.08-.44c.02-.22.06-.41.13-.59a8 8 0 0 0 .18-.58l.14-.46c.2-.56.64-.9 1.22-.95.05 0 .08-.04.1-.12.19-.3.46-.34.77-.3.09.01.17 0 .25-.01.2-.05.4-.03.59.06l.94.45c.4.2.72.52.9.96.19.46.28.93.3 1.38 0 .15.01.3.05.44 0 .04 0 .08-.03.1-.1.12-.16.25-.22.39l-.2.35-.57.76a.49.49 0 0 1-.23.15c-.07.02-.18.02-.17-.08l.01-.05.3-.45.31-.37c.15-.16.3-.33.4-.51.06-.12.12-.32.17-.58a.38.38 0 0 0-.05-.3.12.12 0 0 1-.02-.08l-.01-.16c-.1-.42-.23-.79-.35-1.1a.65.65 0 0 0-.36-.38c-.1-.04-.14 0-.15.1 0 .17-.14.28-.28.38-.1.08-.19.18-.32.12l-.5-.22h-.02c-.05-.03-.26-.14-.21.02v.02c.16.24.22.52.17.82a.18.18 0 0 0 .04.15c.12.14.18.3.17.5 0 .03.02.04.05.03.37-.1.19-.45.05-.7a3 3 0 0 1-.05-.11c-.05-.11-.04-.2.04-.28.05-.05.1-.05.17-.02.13.06.24.16.3.3.05.06.14.07.2.02l.22-.25c.08-.1.31-.02.2.08-.14.12-.22.31-.23.57 0 .1.02.16.08.22.02.03.03.06.03.1v.33c0 .1.03.12.1.04a13.49 13.49 0 0 1 .16-.22c.06-.07.17-.02.16.06-.05.25-.13.48-.27.7a.1.1 0 0 1-.08.06c-.07.01-.14 0-.21-.01h-.06c-.1.02-.1.1-.1.19 0 .22 0 .5-.11.7a.18.18 0 0 1-.3.01c-.1-.15-.03-.45.03-.67.02-.1.05-.2.03-.32a.46.46 0 0 0-.06-.16l-.32-.5c-.03-.04-.05-.04-.07 0l-.32.52c-.01.02 0 .06.03.07.07.01.14 0 .22-.02.2-.07.33.1.32.3 0 .17-.1.23-.25.18-.32-.1-.67-.08-1.04.03-.03.02-.04.04-.02.07.06.07.1.15.14.24.03.1.06.1.09 0 .08-.3.51-.2.68-.1.1.04.15.13.16.25 0 .06-.02.1-.1.14a.13.13 0 0 1-.1 0 1.1 1.1 0 0 0-.65-.1c-.2.02-.4 0-.6-.04-.05 0-.1-.06-.06-.13.07-.1.16-.19.28-.24.1-.06.1-.1 0-.15a.9.9 0 0 0-.38-.06Zm-.33-.45h.01c.1-.04.16-.03.19.03 0 .03 0 .05-.02.07-.15.14-.09.34-.03.5.04.13 0 .42-.2.21a.84.84 0 0 1-.2-.57c0-.11.16-.21.25-.24Zm3.14-1.2-.09.36c0 .03.02.07.06.07l.52-.02h.02c.03-.02.05-.06.03-.1l-.29-.51a.06.06 0 0 0-.1-.01l-.14.18-.01.02Z" fill="#fff"/><path d="M8.69 4.54c.19-.25.71-.2.94-.14h.02l.01.03a.1.1 0 0 1 0 .06c-.02.07-.06.12-.1.13a.58.58 0 0 1-.47-.02c-.04-.02-.07-.01-.1.02-.1.08-.18.1-.28.07-.04-.01-.06-.1-.02-.15ZM8.8 5.39a.43.43 0 0 1-.13-.26c0-.03 0-.05.04-.06a.47.47 0 0 1 .22 0 .1.1 0 0 1 .07.1c0 .07-.02.14-.07.2a.09.09 0 0 1-.13.02ZM9.67 5.41h-.22a.13.13 0 0 1-.08-.03.09.09 0 0 1-.03-.07v-.15c0-.06.05-.1.13-.1l.43.04c.07.01.12.08.1.13a.1.1 0 0 1-.05.05l-.2.12a.14.14 0 0 1-.08.01ZM8.84 6.92c-.02-.11-.05-.2-.02-.33a4.22 4.22 0 0 0 .12-.7l.03-.03a.08.08 0 0 1 .08 0c.05.03.08.07.08.13.02.31.04.63.04.94 0 .3-.06.53-.21.72-.08.1-.1.09-.09-.04.03-.22.02-.45-.03-.69Z" fill="#fff"/><defs><linearGradient id="a3a2ttjeb" x1="15.27" y1="3.38" x2="1.93" y2="13.66" gradientUnits="userSpaceOnUse"><stop stop-color="#BE1C42"/><stop offset=".61" stop-color="#F25C7D"/><stop offset="1" stop-color="#FFB4A8"/></linearGradient></defs></svg>