<!-- by TradingView --><svg width="18" height="18" viewBox="0 0 18 18" xmlns="http://www.w3.org/2000/svg"><path fill="#F0F3FA" d="M0 0h18v18H0z"/><path d="M13.51 7.66c-.28.52-.65 1.08-1.1 1.67a46.18 46.18 0 0 1-4.32 4.66l-.02.01h-.02a5.24 5.24 0 0 1-1.67-1.49 2.3 2.3 0 0 1-.15-2.56c.07-.14.25-.37.52-.7.43-.51.78-1.37.32-2-.42-.58-1.11-.67-1.76-.64a7.84 7.84 0 0 0-2.28.45l-.02-.02v-.02c.66-.3 1.27-.53 1.85-.72 1.68-.55 3.3-.93 4.87-1.15.6-.09 1.17-.14 1.74-.15.4 0 .8.02 1.18.08.39.06.7.15.91.29.83.5.3 1.66-.05 2.29Z" fill="url(#a)"/><path d="M5.01 9.52c.73-.22 1.2-.86 1.07-1.43-.15-.56-.86-.84-1.58-.62-.73.22-1.21.86-1.07 1.43.15.57.85.85 1.58.62Z" fill="url(#b)"/><defs><linearGradient id="a" x1="8.5" y1="4.63" x2="11.12" y2="12.79" gradientUnits="userSpaceOnUse"><stop offset=".03" stop-color="#2C4C97"/><stop offset=".29" stop-color="#4F8CC3"/><stop offset=".57" stop-color="#1A2555"/><stop offset="1" stop-color="#2B428A"/></linearGradient><linearGradient id="b" x1="4.5" y1="7.47" x2="5.11" y2="9.49" gradientUnits="userSpaceOnUse"><stop stop-color="#8B9FC8"/><stop offset="1" stop-color="#182451"/></linearGradient></defs></svg>