<!-- by TradingView --><svg width="18" height="18" viewBox="0 0 18 18" xmlns="http://www.w3.org/2000/svg"><path fill="#F0F3FA" d="M0 0h18v18H0z"/><path d="M4 9c1.28-.1 3.7-.52 4.33-1.67C9 6.15 10.06 4.66 11.78 4H6.67A2.67 2.67 0 0 0 4 6.67v2.32ZM4 9.33v1c1.12-.04 3.32-.48 4.33-2-.54.33-2.15.97-4.33 1ZM4 11v1c1.28-.04 3.7-.55 4.33-2.33A7.72 7.72 0 0 1 4 11ZM4 13v1h1.88c.85-.32 2.03-1.05 2.45-2.33A7.17 7.17 0 0 1 4 13Z" fill="#223187"/><path d="M7.04 14h4.3C12.8 14 14 12.8 14 11.33v-2c-1.07.04-3.16.37-4.17 1.5-.34.4-.64.81-.94 1.23-.55.78-1.09 1.53-1.85 1.94Z" fill="#006FBA"/><path d="M14 9V8c-1.23.05-3.65.55-4.67 2.33C9.66 9.9 11.05 9.03 14 9ZM14 7v-.97c-1.33.14-3.69.8-4.67 2.64A9.55 9.55 0 0 1 14 7ZM14 5.36V4h-1.21c-1.05.38-2.62 1.27-3.29 2.83A9.79 9.79 0 0 1 14 5.36Z" fill="#006FBA"/></svg>