<!-- by TradingView --><svg width="18" height="18" viewBox="0 0 18 18" xmlns="http://www.w3.org/2000/svg"><path fill="#F0F3FA" d="M0 0h18v18H0z"/><path fill-rule="evenodd" d="M14.54 11.3A6 6 0 1 0 3.46 6.7a6 6 0 0 0 11.08 4.6Zm-.32-.12A5.65 5.65 0 1 0 3.78 6.85a5.65 5.65 0 0 0 10.44 4.33Z" fill="#D08B0F"/><path fill-rule="evenodd" d="M13.9 11.04A5.3 5.3 0 1 0 4.1 7a5.3 5.3 0 0 0 9.78 4.05ZM9.12 4.38l.6.25a.4.4 0 0 1 .08.68l-.57.45a.4.4 0 0 1-.5 0l-.58-.45a.4.4 0 0 1 .08-.68l.57-.25a.4.4 0 0 1 .32 0ZM6.47 6.42a.24.24 0 0 0 .04.23c.29.4.62.77 1 1.12.2.17.19.33-.02.49l-.28.2c-.2.16-.4.14-.56-.06l-.02-.02c-.51-.6-1.11-1.3-1.22-2.05-.04-.26.1-.46.26-.64.3-.37.69-.43 1.13-.18.47.26.91.56 1.33.92.57.48 1.1.96 1.6 1.42.13.13.13.26-.01.4l-.4.35c-.14.13-.28.12-.4-.03-.2-.26-.47-.5-.73-.72-.14-.13-.28-.25-.4-.38a18.73 18.73 0 0 0-1.24-1.1.06.06 0 0 0-.08.05Zm4.67.33a.22.22 0 0 1 .12-.04c.08 0 .1.03.05.1A20.2 20.2 0 0 1 9.4 8.88c-.17.16-.17.33 0 .49l.37.35c.16.15.3.14.41-.05.12-.18.29-.35.46-.51l.28-.3.35-.4c.56-.63 1.22-1.36 1.33-2.14.05-.41-.37-.8-.71-.9-.26-.09-.54 0-.76.12-.62.36-1.19.76-1.7 1.22-.16.13-.16.27-.02.42l.48.46c.07.07.13.06.2-.01.24-.3.6-.6 1.05-.88Zm-5.33 2c.28.5-.4 1.05-.79 1.26a.1.1 0 0 1-.11-.02 1.26 1.26 0 0 1-.5-1.13c.04-.35.2-.62.47-.8a.13.13 0 0 1 .13-.01c.38.19.65.42.8.7Zm6.45.63.37.37a.52.52 0 0 0 .88-.26l.1-.5c.02-.1.01-.2-.03-.3l-.13-.3a.52.52 0 0 0-.88-.12l-.34.42a.52.52 0 0 0 .03.69Zm-5.77 2.1a.1.1 0 0 0 .14.03c.47-.35.87-.7 1.2-1.05.17-.17.33-.17.48.03l.26.33c.13.17.11.33-.06.47-.41.32-.84.63-1.28.94-.39.27-.91.54-1.34.26-.68-.43-.55-1.13-.14-1.72.38-.55.72-.98 1-1.31.35-.38.74-.8 1.17-1.22.08-.09.16-.09.25-.01.21.17.39.36.53.57a.2.2 0 0 1-.06.29c-.12.07-.24.16-.34.26-.57.57-1.18 1.23-1.8 2-.05.04-.05.09-.01.14Zm3.96-1.3a3.98 3.98 0 0 1 .83 1.03.06.06 0 0 1-.08.04c-.2-.1-.4-.23-.58-.37-.5-.41-1.04-.94-1.63-1.59-.08-.08-.17-.1-.26-.02-.25.2-.43.41-.55.63a.16.16 0 0 0 .05.21c.19.13.38.28.53.45.73.78 1.58 1.5 2.54 1.96.32.15.63.1.93-.13.9-.72-.2-1.99-.82-2.7l-.2-.23c-.14-.16-.28-.17-.43-.02l-.37.37c-.11.12-.11.23 0 .35l.04.03ZM8.72 13.6l-.4-.2a.48.48 0 0 1-.05-.83l.5-.32a.48.48 0 0 1 .51 0l.48.33a.48.48 0 0 1-.1.85l-.57.2a.48.48 0 0 1-.37-.03Z" fill="#D08B0F"/></svg>