<!-- by TradingView --><svg width="18" height="18" viewBox="0 0 18 18" xmlns="http://www.w3.org/2000/svg"><path fill="#5B4B42" d="M0 0h18v18H0z"/><path d="m11.46 9.41.08.5v.04l-.04.03a.09.09 0 0 1-.08-.01c-.6-.42-.77-1-1.36-1.38-.05-.03-.1-.02-.14.02-.03.03-.04.08-.03.14.03.1 0 .11-.1.04-.3-.22-.44-.5-.44-.84 0-.04 0-.07-.03-.1l-.52-.87a.28.28 0 0 0-.17-.12.34.34 0 0 0-.22.01c-.29.12-.7.88-.88 1.15a.12.12 0 0 0-.01.11c0 .02.02.03.03.05.02.01.03.03.06.03.32.14.57.34.74.61.03.04.06.07.12.07l.38.06c.04 0 .07.02.1.05l.6.84.02.03-.02.03h-.07L7.41 8.72c-.05-.03-.1-.02-.12.03-.14.2 0 .33.24.39.51.12.78.5 1.11.8.04.02.07.04.12.04h.28c.04 0 .08.02.1.05l.66.8v.04l-.03.02h-.03a5.04 5.04 0 0 1-2.06-1.26.22.22 0 0 0-.11-.06 1.11 1.11 0 0 1-.75-.63c-.18-.35-.8-.17-.94.16-.02.05 0 .1.05.12l.58.27.08.06.43.57c.03.04.02.06-.04.04a5.05 5.05 0 0 1-1.21-.66c-.24-.17-.46-.25-.74-.16a.12.12 0 0 0-.05.04.08.08 0 0 0 0 .1c0 .02.02.04.04.04.54.2.97.27 1.33.68.19.2.2.46.4.7.06.06.04.08-.04.05l-1.42-.5a.25.25 0 0 1-.12-.1 1.68 1.68 0 0 0-.76-.59.14.14 0 0 0-.12 0L2.11 10.9c-.13.07-.15.06-.04-.03l1.16-1.02a.16.16 0 0 1 .08-.03h.08c.2.06.36.02.5-.14l.9-1.04c.04-.03.07-.04.11-.01l.59.33c.05.03.09.02.1-.03.18-.52.64-.87 1.1-1.22.04-.04.08-.04.12 0l.23.17c.04.04.08.04.12 0 .3-.38 1.2-1.72 1.61-1.86a.15.15 0 0 1 .13 0c1.02.54 1.56 1.33 2.4 1.97a.1.1 0 0 0 .07.03.1.1 0 0 0 .06-.03c.4-.32.71-.1 1 .2.33.36.75.57 1.07.93.3.33.66.59 1.1.78.54.24.94.69 1.36 1.05.06.05.05.07-.04.05-.43-.09-.83-.35-1.11-.46-1-.42-1.42-.54-2-1.38-.24-.34-.6-.47-1-.63a.14.14 0 0 0-.07-.01.13.13 0 0 0-.07.03.1.1 0 0 0-.03.06c0 .03 0 .05.02.07.29.33.7.53.97.88.15.2.32.37.52.54.04.04.03.05-.03.04a3.8 3.8 0 0 1-1.62-.73c-.03-.02-.04-.02-.04.01Z" fill="#FEFDFB"/></svg>