<!-- by TradingView --><svg width="18" height="18" viewBox="0 0 18 18" xmlns="http://www.w3.org/2000/svg"><path fill="#FF5A00" d="M0 0h18v18H0z"/><path d="M12.27 6H4v6h.63V6.63h7.8c.34 0 .95.32.95 1.26 0 .95-.6 1.27-.94 1.27H7.9c-.54 0-1.1.33-1.1.95 0 .61.56.94 1.1.94h5.78v-.63H7.75c-.1 0-.31-.15-.31-.31 0-.17.2-.32.31-.32h4.69c.82 0 1.56-.6 1.56-1.9C14 6.61 13.09 6 12.27 6Zm.06.95h-7.4V12h.63V7.58h6.57c.16 0 .3.16.3.33s-.15.3-.3.3H7.46c-.66 0-1.6.51-1.6 1.9C5.88 11.58 7.1 12 7.86 12h5.84v-.63H7.85c-.4 0-1.35-.29-1.35-1.26 0-1.08.84-1.25.97-1.25h4.86c.5 0 .77-.47.77-.95 0-.44-.29-.96-.77-.96Z" fill="#fff"/></svg>