<!-- by TradingView --><svg width="18" height="18" viewBox="0 0 18 18" xmlns="http://www.w3.org/2000/svg"><path fill="#063E5E" d="M0 0h18v18H0z"/><path fill-rule="evenodd" d="M9 9.5v-.92C9 7.7 8.4 7 7.5 7H4.49C3.65 7 3 7.65 3 8.44V11h1V8.47c0-.28.3-.47.59-.47h.5c-.06.18-.09.37-.09.58v.84C5 10.3 5.6 11 6.5 11H11V8h1v3h1V8h.7c.22 0 .3.07.3.3V11h1V8.48C15 7.66 14.35 7 13.55 7H10v3H6.73c-.29 0-.6-.2-.6-.47V9.5H9ZM6.56 8c-.23 0-.42.16-.42.35v.15h1.59v-.15c0-.2-.2-.35-.43-.35h-.74Z" fill="#fff"/></svg>