<!-- by TradingView --><svg width="18" height="18" viewBox="0 0 18 18" xmlns="http://www.w3.org/2000/svg"><path fill="#F0F3FA" d="M0 0h18v18H0z"/><path fill-rule="evenodd" d="M12.65 4.33h-7.3v9.34h7.3V4.33ZM5 4v10h8V4H5Z" fill="#024E9C"/><path d="M7.5 5 6 6v.33l.52-.16C7 6 7 6.67 7 7v4c0 1.07-.54 1.56-1 1.67V13h2.5a2.26 2.26 0 0 1-1.24-2c0-1.2.45-2.71.74-3.21V5h-.5Z" fill="#004C98"/><path d="M12 8V5.5c0-.27-.5-.5-1-.5-2.09 0-3.5 4-3.5 6 0 1 1.15 2 1.5 2h1.56v-.33A2.02 2.02 0 0 1 8.5 10.5c0-2 1.24-4 2.1-4 .7 0 1 1.06 1.05 1.5H12Z" fill="#004C98"/></svg>