<!-- by TradingView --><svg width="18" height="18" fill="none" xmlns="http://www.w3.org/2000/svg"><path fill="#FF0016" d="M0 0h18v18H0z"/><path fill-rule="evenodd" clip-rule="evenodd" d="M6 11.354h6V14H6v-2.646zM6 3h6v5.531H6V3z" fill="#fff"/><path fill-rule="evenodd" clip-rule="evenodd" d="M2 8.5V12h14V8.5H2z" fill="#fff"/><path fill-rule="evenodd" clip-rule="evenodd" d="M9.302 5.234h-.265v1.687l1.492-.03c.04-.281.294-.801.372-.961l.022-.047c.18-.516.017-.828-.228-.961a.802.802 0 00-.546-.047c-.319.087-.717.242-.847.36zM8.698 5.234h.265v1.687L7.47 6.89c-.04-.281-.294-.801-.372-.961a1.232 1.232 0 01-.022-.047c-.181-.516-.017-.828.228-.961a.802.802 0 01.546-.047c.319.087.717.242.847.36z" fill="#DE0F2C"/><path d="M7.361 6.382l.06-.293-.235.059.235.712.1.576h2.945l.11-.722.1-.176V6.44l.14-.292-.28-.059.04.298-.16-.171-.12.498.17-.05v.118s-.133.078-.25.078c-.2 0-.271-.178-.271-.178s.07-.024.07-.1c0-.076-.07-.093-.07-.093s.037-.042.07-.048c.066-.014.13.112.13.112s.18-.282.07-.352c-.065-.041-.2.015-.2.015s.066-.156.053-.256c-.014-.103-.123-.28-.123-.28s-.13.124-.188.24c-.058.118 0 .281 0 .281s-.108-.11-.182-.112c-.102-.002-.12.127-.12.225 0 .114.06.224.06.224s.044-.093.1-.098c.043-.003.1.05.1.05s-.063.016-.063.092.063.1.063.1-.073.17-.318.17c-.173 0-.282-.173-.282-.173v-.144h.088l.179.127v-.517l-.267.105v-.105l.19-.205h-.61l.191.205v.105l-.267-.105v.517l.182-.127h.085v.144s-.13.154-.31.154c-.23 0-.35-.168-.35-.168s.057-.024.057-.093c0-.068-.07-.083-.07-.083l.07-.048.16.048s.12-.268-.063-.341c-.087-.035-.185.051-.185.051s.038-.176 0-.29c-.038-.115-.178-.244-.178-.244s-.122.178-.135.292c-.012.115.07.259.07.259s-.095-.043-.14-.017c-.165.095-.098.27.018.373 0-.039.018-.071.065-.102.032-.021.122-.03.122.02-.041.013-.065.038-.065.082 0 .044.03.076.065.093-.04.122-.16.168-.253.168-.122 0-.223-.092-.242-.168l.16.049-.16-.498-.16.166z" fill="url(#paint0_linear_3205)"/><path d="M7.498 7.435h3.038s.162 0 .162.181c0 .18-.162.192-.162.192H7.498s-.194-.011-.194-.197c0-.185.194-.176.194-.176z" fill="#728E96"/><path d="M8.696 4h.61v1.945h-.61V4z" fill="url(#paint1_linear_3205)"/><path d="M2.5 9h13v2.5h-13V9z" fill="#FF0016"/><path d="M3.969 9.5H14.03V11H3.97V9.5z" fill="#F8D247"/><defs><linearGradient id="paint0_linear_3205" x1="7.121" y1="7.124" x2="11.007" y2="7.144" gradientUnits="userSpaceOnUse"><stop stop-color="#CD6B32"/><stop offset=".433" stop-color="#FFE490"/><stop offset=".737" stop-color="#F4AC64"/><stop offset=".984" stop-color="#E17E49"/></linearGradient><linearGradient id="paint1_linear_3205" x1="9.015" y1="3.639" x2="9.015" y2="6.189" gradientUnits="userSpaceOnUse"><stop offset=".104" stop-color="#F5C15F"/><stop offset=".296" stop-color="#EBC683"/><stop offset=".528" stop-color="#FEEBB4"/><stop offset=".72" stop-color="#F4D38D"/><stop offset="1" stop-color="#E3AC4D"/></linearGradient></defs></svg>