<!-- by TradingView --><svg width="18" height="18" viewBox="0 0 18 18" xmlns="http://www.w3.org/2000/svg"><path fill="#F0F3FA" d="M0 0h18v18H0z"/><path fill-rule="evenodd" d="M11.28 5.3c0-.25.03-.5.1-.76V4.5a.1.1 0 0 0-.04-.04c-.16-.12-.15-.35.04-.44.05-.02.1-.01.14.02.17.15.17.29 0 .43a.08.08 0 0 0-.02.09c.1.23.17.46.2.7 0 .03.02.03.04.01.07-.05.2-.14.3-.1.17.08.27.18.3.3.02.11-.01.2-.1.28a.05.05 0 0 1-.06 0h-.02l-.01-.04a.26.26 0 0 0-.06-.15c-.21-.26-.46.08-.48.26 0 .04.01.07.06.07h.05c.05 0 .07-.02.07-.06.01-.1.03-.24.17-.21h.01a.04.04 0 0 1 .02.03v.01l-.02.09a.1.1 0 0 0 0 .08c.02 0 .03.02.04.03l.04.01.48.07c.02 0 .04 0 .05-.02a.16.16 0 0 0 .03-.04c0-.02.02-.03.04-.03h.06l.02.06c.02.06.05.11.11.14a.04.04 0 0 0 .04 0l.02-.02V6c-.01-.11-.1-.38-.27-.38l-.06.03-.08.12-.02.02a.05.05 0 0 1-.05-.01l-.02-.02a.31.31 0 0 1 .1-.34.09.09 0 0 1 .05-.02c.13-.01.24.03.34.14.02.02.03.02.04 0 .05-.12.12-.2.18-.3.04-.03.07-.08.1-.13.03-.04.04-.09.04-.14v-.05c0-.02.01-.04.03-.05a.1.1 0 0 1 .05-.03.1.1 0 0 1 .05 0 .1.1 0 0 1 .05.03c.05.07.05.16-.02.21a.38.38 0 0 0-.16.2 13.4 13.4 0 0 1-.24.67c-.04.06-.07.12-.07.2v.02l-.02.02a.06.06 0 0 1-.05 0c-.3-.12-.61-.19-.94-.2a2.47 2.47 0 0 0-1.6.49h-.06a.11.11 0 0 1-.02-.08.1.1 0 0 0-.03-.07 2.47 2.47 0 0 1-.35-.5 6.32 6.32 0 0 0-.12-.2c-.04-.06-.09-.1-.16-.11-.13-.02-.1-.16-.04-.22a.1.1 0 0 1 .05-.03.1.1 0 0 1 .05 0 .1.1 0 0 1 .05.03l.02.04.02.1.05.07c.13.1.25.2.36.33.02.03.04.03.05 0 .1-.15.23-.29.42-.13.05.04.07.03.07-.03 0-.16.07-.3.22-.38.1-.06.2-.05.3.03.05.04.07.03.07-.03Zm-.81.8-.07.17a.07.07 0 0 1-.07.05h-.02l-.01-.03a.47.47 0 0 1 .03-.3c.06-.14.22-.14.3-.02l.01.02a.05.05 0 0 0 .06-.02.18.18 0 0 0 .02-.12c0-.02 0-.02.03 0l.1.04a.06.06 0 0 0 .04 0 .05.05 0 0 0 .02-.05c0-.11.04-.2.13-.27a.15.15 0 0 1 .16-.01c.11.06.26.15.28.28 0 .03-.01.05-.05.06l-.07.01c-.03 0-.05 0-.06-.03a.27.27 0 0 1-.03-.08c0-.08-.08-.12-.16-.1l-.02.02-.01.01a.04.04 0 0 0 0 .04l.07.1a.05.05 0 0 1 0 .06l-.02.02-.5.18c-.02.01-.04 0-.05-.01a.14.14 0 0 0-.05-.04.05.05 0 0 0-.05 0l-.01.02Zm2.07-1.03c0 .1.01.21-.04.31 0 .02-.02.03-.04.02-.2-.12-.15-.23-.1-.36.04-.07.08-.14.06-.22l-.02-.14c0-.06.02-.1.09-.1h.02c.07 0 .1.04.11.1.01.06-.01.1-.04.15a.27.27 0 0 0-.04.13v.1Zm-2.06-.23.01.12c.01.08.02.15.08.23.09.1.12.21.1.34a.08.08 0 0 1-.04.05.09.09 0 0 1-.06.01c-.05 0-.08-.04-.1-.1a3.76 3.76 0 0 1-.07-.33.1.1 0 0 0-.03-.05.8.8 0 0 1-.1-.13.08.08 0 0 1-.02-.06c.01-.09.08-.12.19-.11.02 0 .03.01.04.03ZM8.2 6.3a.39.39 0 0 1-.04-.25v-.01l.02-.01a.03.03 0 0 1 .03 0l.12.1.05.02.3.05c.02 0 .03.02.03.04v.12c-.01 0 0 0 0 0v.01a.02.02 0 0 0 .02 0c.2-.08.43-.13.7-.17.08 0 .1.02.05.09-.07.09-.04.16-.02.23.03.08.06.15 0 .25l-.02.02a.05.05 0 0 1-.05 0l-.01-.02-.07-.1c-.03-.03-.06-.04-.1-.02-.24.1-.26.36 0 .46a.1.1 0 0 0 .06 0c.02 0 .03-.02.05-.04l.05-.1h.05c.14.23.05.63-.32.46-.18-.09-.41-.2-.6-.1a.12.12 0 0 1-.09.02.11.11 0 0 1-.07-.04 1.42 1.42 0 0 1-.31-.97V6.3h.03l.11.01c.04.01.04 0 .03-.02Zm4.6-.02a2.44 2.44 0 0 0-1.74-.07 3.2 3.2 0 0 0-.67.32c-.06.04-.07.1-.03.15l.08.14c.04.06.09.07.15.02l.22-.13a2.66 2.66 0 0 1 1.84-.12c.06.03.1.01.14-.05l.07-.12a.1.1 0 0 0-.02-.12.11.11 0 0 0-.03-.02Zm-3.3 3.36c0 .1.01.1.05 0 .12-.3.12-.6.03-.9-.15-.42-.47-.64-.92-.75a1.75 1.75 0 0 1-1.07-.97c-.02-.05-.03-.05-.04 0-.02.21.15.42.31.57l.22.2c.19.16.38.33.53.53.51.68.56 1.62.1 2.34-.02.01-.03.02-.04.01h-.02v-.01c.13-.26.21-.53.24-.81.01-.16 0-.32-.03-.47-.13-.56-.5-.92-1.1-1.15h-.01v.02c.36.22.69.46.88.8.2.37.18.72.07 1.1-.07.26-.2.46-.4.6l-.01.03v.05l.03.01.42.2a.1.1 0 0 0 .06 0l.1-.02c.1-.03.2-.05.3.05.1.1.1.2.03.3-.05.06-.11.08-.2.07a.88.88 0 0 0-.3 0c-.07.01-.15 0-.2-.07a.59.59 0 0 0-.35-.2c-.15-.02-.54-.11-.53-.3 0-.02.01-.04.03-.05.28-.2.46-.42.5-.78a1.3 1.3 0 0 0-.79-1.35c-.24-.12-.33-.34-.37-.59-.02-.1 0-.2.04-.3l.32-.66a.5.5 0 0 1 .14-.17.08.08 0 0 0 .02-.05c.07-.24.1-.4.32-.57.09-.06.12-.05.09.06a.7.7 0 0 0 .05.53c.1.17.2.3.31.4a3.33 3.33 0 0 0 .65.4c.34.17.68.35.82.7.14.35.17.68.07 1-.15.55-.48 1-.97 1.36a.08.08 0 0 1-.06.01h-.01l-.01-.01v-.02c.09-.17.16-.33.21-.5.2-.52.2-1.06 0-1.6-.06-.2-.2-.39-.4-.58l-.01-.02v-.03h.02l.26.16c.41.28.62.67.63 1.17v.26Zm2.02-2.18.05-.23c0-.02.02-.03.05-.03h.08c.27.02.51.03.63.32.27.65-.08 1.63-.85 1.83-.1.02-.12.1-.14.18-.16.53-.06 1.13.38 1.47.33.25.69.32 1.06.2.45-.13.71-.49.82-.9v-.05l-.01-.01a.04.04 0 0 0-.03-.01h-.02c-.52.28-1.1.27-1.47-.23a.06.06 0 0 1 0-.05l.01-.02.03-.02c1.08-.34 1.99-1.05 1.87-2.22-.05-.51-.47-.92-.99-1.08a.07.07 0 0 0-.07.02l-.01.02-.06.15c0 .03-.03.04-.06.03a2.16 2.16 0 0 0-2.3.51.04.04 0 0 1-.04 0l-.01-.02-.43-.75c-.05-.08-.12-.1-.21-.07-.02.01-.03.02-.03.04l-.06.31c-.02.06 0 .12.02.18l.02.13a.6.6 0 0 1-.24.5c-.04.04-.04.07 0 .1.5.3.67.83.66 1.36-.02.6-.39 1.21-.83 1.64a.06.06 0 0 0-.02.04c0 .01 0 .03.02.04a.9.9 0 0 1 .19.25c0 .02.01.02.02.03l.04.01h1.25c.02 0 .04 0 .05-.02a737.9 737.9 0 0 1 .63-3.65Zm-6.9 1.85a.01.01 0 0 1-.02 0c0-.03.01-.05.03-.06.31-.24.68-.17 1.04-.1.18.03.32-.05.44-.16a7.12 7.12 0 0 0 .76-.83l.02.01.02.02.1.32a.03.03 0 0 1-.01.03h-.02l-.02.01a.43.43 0 0 0-.32.12c-.32.29-.4.66-.34 1.07.01.06 0 .11-.04.15-.12.14-.33 0-.45-.08l-.4-.32c-.23-.22-.47-.26-.8-.18Zm2.04.87v-.06c-.05-.18-.12-.36-.19-.56-.16-.44.47-.96.94-.77.26.11.44.3.53.57.19.54.08.98-.32 1.33a.34.34 0 0 0-.1.19.66.66 0 0 1-.17.34.4.4 0 0 0-.1.26 3.4 3.4 0 0 0 .1 1.09h.03c.04 0 .07-.01.1-.03a.52.52 0 0 1 .14-.03c.2 0 .3.1.3.31 0 .03 0 .05-.04.06l-.14.03c-.27.08-.65.18-.78-.06-.09-.16-.08-.36-.07-.54l.01-.19c0-.24-.1-.48-.2-.72l-.1-.28a.55.55 0 0 1-.02-.26c0-.02 0-.03-.03-.04a4.66 4.66 0 0 1-.38-.2c-.16-.09-.5-.08-.61.1a.9.9 0 0 1-.7.47.1.1 0 0 0-.06.03c-.27.26-.53.58-.44.96 0 .02.02.03.04.03l.12.01c.23.02.4.14.5.37a.04.04 0 0 1 0 .04.05.05 0 0 1-.04.02H4.9a.06.06 0 0 0-.05.04.3.3 0 0 1-.07.07c-.04.03-.08.06-.08.1 0 .06-.03.07-.08.03a.3.3 0 0 0-.16-.08c-.33-.04-.89-.14-.63-.6l.06-.1c.12-.21.24-.4.15-.67a7.57 7.57 0 0 1-.2-.82.8.8 0 0 1 .07-.51c.08-.17.06-.35-.16-.42-.28-.08-.54-.18-.67-.44-.13-.28-.1-.66-.02-.96.04-.17.12-.36.22-.55a.84.84 0 0 0 .09-.36l-.01-.02-.02-.01h-.03a.33.33 0 0 1-.3-.42.93.93 0 0 0 .02-.37l.01-.04.03-.03a.08.08 0 0 1 .08 0c.31.13.43.53.4.82-.04.26-.13.49-.22.72l-.1.3c-.11.3-.1.72.15.97.24.24.79.13 1.1.05a.6.6 0 0 1 .2-.01h.12c.08 0 .16 0 .23.02.15.04.26.12.35.24.16.21.67.72.97.41A.1.1 0 0 1 6.4 10a.11.11 0 0 1 .1 0 .1.1 0 0 1 .03.03l.1.16c.02.02.03.02.04 0ZM5 10.66c.09-.22.17-.42.1-.67-.04-.11-.07-.22-.09-.34 0-.04.01-.05.06-.05a.1.1 0 0 1 .06.04c.19.21.32.65.13.9-.08.12-.18.21-.3.28-.03.02-.04.02-.03-.01l.07-.15Zm6.44 1.93c.06.08.2.1.28.05.06-.03.1-.08.12-.12a.75.75 0 0 1 .04-.06.07.07 0 0 1 .05-.03h.3c.07 0 .1.03.07.1-.16.33-.43.49-.8.47-.3-.01-.52-.18-.54-.44-.04-.36.07-.64.33-.84.4-.3 1.11-.2 1.08.37v.02h-.01l-.02.02H12l-.02-.01h-.01l-.02-.02-.03-.07c-.04-.08-.08-.16-.23-.14-.25.04-.36.53-.26.7Zm-1.01-1-.23 1.36a.04.04 0 0 0 0 .03.05.05 0 0 0 .05.02h.35s.02 0 .02-.02c.02 0 .02-.02.03-.03l.23-1.35a.04.04 0 0 0 0-.04.05.05 0 0 0-.05-.01h-.35l-.04.01-.01.03Zm2.59 1.06h.53a.04.04 0 0 1 .01.04l-.04.27-.01.02-.04.02h-1.01l-.01-.02-.01-.01v-.02l.23-1.36.01-.03.03-.01h.39l.01.01.01.02v.02l-.15 1a.04.04 0 0 0 0 .03.05.05 0 0 0 .04.02Zm-3.15-.31c.07.04.13.1.13.19l-.04.42c0 .03-.02.05-.06.05h-.33l-.01-.01-.02-.01-.01-.02v-.03l.02-.34c0-.02 0-.04-.02-.06-.02-.01-.06-.05-.08-.05h-.23l-.01.03-.08.41c0 .05-.04.08-.09.08h-.3c-.06 0-.08-.03-.07-.07l.22-1.3.01-.04a.1.1 0 0 1 .03-.02.11.11 0 0 1 .08-.02h.28c.23 0 .4 0 .59.04.12.03.21.12.23.23a.47.47 0 0 1-.24.49.02.02 0 0 0 0 .02Zm-.29-.14h-.2c-.06 0-.12-.04-.11-.1l.03-.15c0-.02.01-.04.03-.05a.1.1 0 0 1 .07-.01h.18c.05 0 .08.06.08.1v.1c0 .02-.03.1-.08.1Z" fill="#1E1A17"/></svg>