<!-- by TradingView --><svg width="18" height="18" viewBox="0 0 18 18" xmlns="http://www.w3.org/2000/svg"><path fill="#F0F3FA" d="M0 0h18v18H0z"/><path d="M13.62 10.91a4.96 4.96 0 0 0-1.08-5.45 4.96 4.96 0 0 0-5.45-1.08A4.96 4.96 0 0 0 4 9a4.96 4.96 0 0 0 3.09 4.62 4.96 4.96 0 0 0 5.45-1.08c.46-.47.83-1.01 1.08-1.63ZM9.55 4.75a3.68 3.68 0 0 1 2.22 1.1c.34.38.5.76.47 1.15-.03.36-.25.58-.64.66a2 2 0 0 1-.79 0L8.97 7.3C8.05 7.1 7.13 7 6.18 7a4.4 4.4 0 0 1 3.37-2.26Zm.23 8.49a4.23 4.23 0 0 1-3.9-2.97l.02-.06a.14.14 0 0 1 .08-.09 5.4 5.4 0 0 1 1.8-.31c1.48-.01 2.66-.03 3.54-.05.4-.01.79-.12 1.16-.32.6-.33.95-.88 1.04-1.65.01-.07.03-.07.05 0 .07.17.12.41.15.73.08.88-.15 1.5-.69 1.84a3.22 3.22 0 0 1-2.24.55c-.74-.04-1.28 0-1.6.1-.45.15-.63.47-.52.98.1.55.48.96 1.11 1.25Z" fill="url(#a)"/><path d="M9.55 4.75a4.4 4.4 0 0 0-3.37 2.26c-.45.1-.87.29-1.24.57-.14.1-.28.26-.42.5l-.07.1c-.07.1-.09.1-.07-.03a4.08 4.08 0 0 1 2.47-3.13 4.55 4.55 0 0 1 2.7-.27ZM5.87 10.27a4.23 4.23 0 0 0 3.91 2.97l.68.07c.1.02.1.04 0 .07a4.1 4.1 0 0 1-2.23 0c-.32-.08-.6-.18-.86-.3a4.52 4.52 0 0 1-1.18-.86 2.27 2.27 0 0 1-.38-.5 2.01 2.01 0 0 1-.24-.62c-.04-.27 0-.53.11-.77.03-.08.1-.1.2-.06Z" fill="#22345E"/><defs><linearGradient id="a" x1="13.59" y1="7.94" x2="5.29" y2="12.01" gradientUnits="userSpaceOnUse"><stop stop-color="#219CD7"/><stop offset="1" stop-color="#0E77BA"/></linearGradient></defs></svg>