<!-- by TradingView --><svg width="18" height="18" viewBox="0 0 18 18" xmlns="http://www.w3.org/2000/svg"><path fill="#F0F3FA" d="M0 0h18v18H0z"/><path d="M9 6.64C9 6.2 7.67 6.03 7 6c.34.13 1.03.5 1.03.98s-.18.88-.27 1.02C8.17 7.73 9 7.08 9 6.64Zm2 3.88c0-.6.35-1.26.53-1.52-.32 2.1 2.18 2.88 3.47 3h-2.98c-.3 0-1.02-.74-1.02-1.48Z" fill="#B46516"/><path d="M4 12h6.73a2.3 2.3 0 0 1-.73-1.49c0-1.48 2.32-2.9 2.32-4.11 0-1.15-1.56-1.4-2.86-1.4-.7 0-1.31.07-1.6.1.94 0 2.14.23 2.14.96a2.2 2.2 0 0 1-.75 1.56L4 12Z" fill="#0C41B3"/></svg>