<!-- by TradingView --><svg width="18" height="18" viewBox="0 0 18 18" xmlns="http://www.w3.org/2000/svg"><path fill="#F0F3FA" d="M0 0h18v18H0z"/><path d="m11 11 1.79-4h.94l1.77 4h-.76a.38.38 0 0 1-.36-.23l-.25-.57h-1.74l-.32.58c-.1.22-.29.22-.36.22H11Zm1.79-1.8h.86l-.42-1.05-.44 1.05ZM7 7v1.96c0 .86.2 1.32.62 1.64.4.31.95.4 1.37.4.47 0 1.01-.08 1.4-.4.4-.33.61-.8.61-1.64V7h-1v2.09c0 .6-.4.91-1 .91-.54 0-1-.27-1-.91V7H7ZM5.2 7c.95 0 1.4.4 1.4 1.27 0 .55-.23 1-.73 1.19l.18.27L7 11h-.84a.6.6 0 0 1-.53-.28L4.8 9.55H4V11H3V7h2.2ZM4 8.02v.52h1.28c.19 0 .32-.08.32-.27s-.13-.25-.31-.25H4Z" fill="#4D6E59"/></svg>