<!-- by TradingView --><svg width="18" height="18" viewBox="0 0 18 18" xmlns="http://www.w3.org/2000/svg"><path fill="#162544" d="M0 0h18v18H0z"/><path d="m14.65 11.16.34.3V9.42h-.63v1.2c-.47.5-1.16.82-1.9.82A2.5 2.5 0 0 1 9.95 9a2.5 2.5 0 0 1 2.53-2.45c.65 0 1.26.24 1.72.66h.8A3.2 3.2 0 0 0 12.47 6 3.08 3.08 0 0 0 9.3 9c0 1.66 1.41 3 3.16 3a3.2 3.2 0 0 0 2.18-.84Z" fill="#DFB666"/><path fill-rule="evenodd" d="M3 6c.17.02.23 3.45 0 6h1V9.43h2.16L7.1 12h1.26L7.1 9.16c.32 0 .9-.14.9-1.45C8 6.41 6.79 6 6.16 6H3Zm1 .86V8.6h2.16c.31 0 .84-.02.84-.9 0-.87-.53-.85-.84-.85H4Z" fill="#FAFEFF"/></svg>