<!-- by TradingView --><svg width="18" height="18" viewBox="0 0 18 18" xmlns="http://www.w3.org/2000/svg"><path fill="#F0F3FA" d="M0 0h18v18H0z"/><path d="M17.98-6.95v9.92h2.07v-3.7h1.45l1.4 3.7h2.49L23.6-1.34c.84-.86 1-2.04.97-2.53 0-2.34-1.6-3.03-2.4-3.08h-4.2Z" stroke="#000"/><path fill-rule="evenodd" d="M6 4h3.98c.42.01 1.06.2 1.59.7.7.65.93 1.37.93 2.3 0 .86-.35 1.99-.98 2.58L13.4 14h-2.19l-1.64-4H8v4H6V4Zm2 4V6h1.59c.57 0 .91.43.91 1 0 .57-.34 1-.91 1H8Z" fill="#DD282C" fill-opacity=".7"/></svg>