<!-- by TradingView --><svg width="18" height="18" viewBox="0 0 18 18" fill="none" xmlns="http://www.w3.org/2000/svg">
<rect width="18" height="18" fill="#F0F3FA"/>
<path d="M5.36049 10.1706C5.65487 8.32937 7.44938 7.10515 9.24203 7.45903C10.3327 7.67395 11.2029 8.39283 11.659 9.41557C11.6692 9.43842 11.664 9.44259 11.6433 9.42807C10.542 8.65593 9.09692 8.79674 8.21237 9.82133C7.62083 10.5069 7.4369 11.4606 7.7396 12.3212C8.01011 13.091 8.55205 13.6237 9.36542 13.9192C9.38083 13.9248 9.38052 13.9294 9.3645 13.9331C8.86122 14.0452 8.34778 14.0058 7.85283 13.8933C6.4248 13.5686 5.16731 12.5472 4.52169 11.2364C2.91852 7.97966 5.19365 4.1092 8.84366 4.00221C12.2885 3.90169 14.8335 7.25245 13.7456 10.5884C13.729 10.6399 13.7254 10.639 13.735 10.5856C14.1588 8.25202 12.6661 6.01247 10.3207 5.59189C7.57693 5.09998 5.07904 7.35481 5.34292 10.1701C5.34286 10.1724 5.34373 10.1747 5.34533 10.1764C5.34694 10.1781 5.34915 10.1791 5.35147 10.1791C5.3538 10.1792 5.35606 10.1783 5.35775 10.1767C5.35944 10.1751 5.36042 10.1729 5.36049 10.1706Z" fill="#007BC0"/>
</svg>
