<!-- by TradingView --><svg width="18" height="18" viewBox="0 0 18 18" xmlns="http://www.w3.org/2000/svg"><path fill="url(#afaawavkq)" d="M0 0h18v18H0z"/><path fill-rule="evenodd" d="M9 14A5 5 0 1 0 9 4a5 5 0 0 0 0 10Zm.73-.62c1.8-.32 2.93-2.57 2.52-5.01-.41-2.45-2.2-4.17-4-3.85-1.8.33-2.92 2.57-2.51 5.02.4 2.45 2.2 4.17 4 3.84Z" fill="#fff"/><path d="M14 9a5 5 0 0 1-7.58 4.28l.44-1.17c.77.95 1.82 1.46 2.87 1.27 1.8-.32 2.93-2.57 2.52-5.01a5.22 5.22 0 0 0-1.68-3.14c.48-.1.97-.16 1.46-.21A5 5 0 0 1 14 9Zm-8.19 3.85a5.03 5.03 0 0 1-.2-.18 7.74 7.74 0 0 1-.43-2.47c0-.64.14-1.24.47-1.83a6.04 6.04 0 0 0 .81 3.17c-.2.37-.45.84-.65 1.31Z" fill="#939598"/><path d="M13.71 5.07c-5.05-.1-7.44 2.07-8.06 3.3a6.01 6.01 0 0 0 .8 3.15 13.64 13.64 0 0 1 2.48-3.15 17.77 17.77 0 0 0-2.07 3.74c.63.72.97.95 1.5 1.13 2.35-.79 2.43-2.14 3.05-4.71a5.44 5.44 0 0 1 2.3-3.46Z" fill="#99A93A"/><defs><linearGradient id="afaawavkq" x1="3.35" y1="3.12" x2="21.9" y2="24.43" gradientUnits="userSpaceOnUse"><stop stop-color="#1A1E21"/><stop offset="1" stop-color="#06060A"/></linearGradient></defs></svg>