<!-- by TradingView --><svg width="18" height="18" viewBox="0 0 18 18" xmlns="http://www.w3.org/2000/svg"><path fill="#F0F3FA" d="M0 0h18v18H0z"/><path d="M11.58 5.53a4 4 0 0 0-2.66.56C7.84 6.8 7.6 8.05 7.6 8.05c1.4-1.78 3.42-1.28 3.42-1.28s.21-.15.4-.57c.1-.21.16-.44.16-.67Z" fill="url(#anbabbjek)"/><path d="M8.68 4a3.85 3.85 0 0 0-1.74 2.05 3.2 3.2 0 0 0 .2 2.34C7.1 6.15 9.02 5.3 9.02 5.3s.07-.24-.05-.7a1.63 1.63 0 0 0-.3-.61Z" fill="url(#bnbabbjek)"/><path d="M5.42 4.55a3.77 3.77 0 0 0-.06 2.67 3.3 3.3 0 0 0 1.63 1.7c-1.44-1.74-.47-3.54-.47-3.54s-.1-.24-.47-.52a1.7 1.7 0 0 0-.63-.3Z" fill="url(#cnbabbjek)"/><path d="M3.23 6.94c.1.53.7 1.56 1.62 2.14 1.1.68 2.37.37 2.37.37-2.23-.51-2.6-2.52-2.6-2.52s-.23-.12-.7-.12c-.24 0-.48.04-.7.13Z" fill="url(#dnbabbjek)"/><path d="M3 10.17c.42.35 1.54.8 2.63.7a3.35 3.35 0 0 0 2.09-1.15c-2.08.95-3.64-.4-3.64-.4s-.26.04-.63.33c-.19.14-.34.31-.45.52Z" fill="url(#enbabbjek)"/><path d="M11.5 9.22c-.61-.2-1.26-.35-1.22-.62.04-.23.33-.4.95-.4.7 0 1.4.24 1.92.43l.67-1.13c-.47-.18-1.6-.5-2.72-.5-1.75 0-2.88.67-2.88 1.72 0 1.28 1.37 1.64 2.46 1.96.67.2 1.26.35 1.26.66 0 .42-.73.48-1.04.46-.85-.05-1.62-.44-2.17-.72L8 12.2c.43.25 1.68.8 3.1.81 1.76 0 2.9-.6 2.9-1.82 0-1.25-1.38-1.6-2.5-1.96Z" fill="#007B3D"/><defs><radialGradient id="anbabbjek" cx="0" cy="0" r="1" gradientUnits="userSpaceOnUse" gradientTransform="matrix(3.95757 0 0 3.86927 7.42 8.41)"><stop offset=".6" stop-color="#FC0"/><stop offset="1" stop-color="#F9B000"/></radialGradient><radialGradient id="bnbabbjek" cx="0" cy="0" r="1" gradientUnits="userSpaceOnUse" gradientTransform="matrix(3.1191 -2.41292 2.4 3.1024 7.93 8.99)"><stop offset=".6" stop-color="#FC0"/><stop offset="1" stop-color="#F9B000"/></radialGradient><radialGradient id="cnbabbjek" cx="0" cy="0" r="1" gradientUnits="userSpaceOnUse" gradientTransform="matrix(.9317 -3.76046 3.83557 .9503 7.34 8.87)"><stop offset=".6" stop-color="#FC0"/><stop offset="1" stop-color="#F9B000"/></radialGradient><radialGradient id="dnbabbjek" cx="0" cy="0" r="1" gradientUnits="userSpaceOnUse" gradientTransform="matrix(-1.62878 -3.52695 3.57945 -1.65303 7.62 9)"><stop offset=".6" stop-color="#FC0"/><stop offset="1" stop-color="#F9B000"/></radialGradient><radialGradient id="enbabbjek" cx="0" cy="0" r="1" gradientUnits="userSpaceOnUse" gradientTransform="rotate(-153.15 5.01 3.62) scale(3.93959 3.88796)"><stop offset=".6" stop-color="#FC0"/><stop offset="1" stop-color="#F9B000"/></radialGradient></defs></svg>