<!-- by TradingView --><svg width="18" height="18" viewBox="0 0 18 18" xmlns="http://www.w3.org/2000/svg"><path fill="#F0F3FA" d="M0 0h18v18H0z"/><path d="M4 6.16C4 5.52 4.54 5 5.2 5h7.6c.66 0 1.2.52 1.2 1.16v5.68c0 .64-.54 1.16-1.2 1.16H5.2a1.2 1.2 0 0 1-1.19-1h8.1c.5 0 .89-.42.89-.94V6.94c0-.52-.4-.94-.89-.94H6.9c-.5 0-.89.42-.89.94V9H4V6.16Z" fill="url(#a)"/><path fill="#585858" fill-opacity=".3" d="M4 9h9v2H4z"/><defs><linearGradient id="a" x1="14" y1="9" x2="4" y2="9" gradientUnits="userSpaceOnUse"><stop offset=".24" stop-color="#00BBE0"/><stop offset=".73" stop-color="#8AC544"/></linearGradient></defs></svg>