<!-- by TradingView --><svg width="18" height="18" viewBox="0 0 18 18" xmlns="http://www.w3.org/2000/svg"><path fill="#132F6C" d="M0 0h18v18H0z"/><path d="M10.06 10.75c.09-.48-.16-.8-.73-.95l-1.25-.34c-.92-.24-1.93-.61-2-1.6-.14-1.65 1.09-2.71 2.91-2.83 1.3-.08 2.6 0 3.93.25.07 0 .1.04.07.1l-.36 1.08c0 .02-.02.03-.03.04a18.65 18.65 0 0 0-2.04-.18c-.73-.04-2.38-.08-2.51.82-.08.5.37.78.85.92l1.71.52c.82.26 1.45.7 1.47 1.52.04 1.8-1.3 2.76-3.2 2.87-1.3.08-2.58 0-3.84-.25-.03 0-.05-.03-.04-.06l.38-1.14c0-.02.01-.04.03-.05h.07c.92.15 1.85.21 2.78.2.72-.02 1.66-.15 1.8-.92Z" fill="#fff"/></svg>