<!-- by TradingView --><svg width="18" height="18" viewBox="0 0 18 18" xmlns="http://www.w3.org/2000/svg"><path fill="url(#a)" d="M0 0h18v18H0z"/><path d="M12.03 5.5h.37V8h-.38c-.09-.69-.66-2.21-2.24-2.21-1.98 0-2.1 2.52-2.08 2.96l-1.32-.4c.22-.94 1.2-2.85 3.4-2.85.77 0 1.22.3 1.53.5.16.11.29.2.4.2.27 0 .33-.18.32-.27V5.5ZM10.3 10h3.2v.4l-1.1.35v.66a3.72 3.72 0 0 1-2.53 1.09c-.63 0-1.06-.14-1.2-.22l.31-.12h1.18c.39-.01 1.15-.19 1.15-.8v-.96H10.3V10Z" fill="url(#b)"/><path d="M9.89 7.87H9.6C9.42 6.32 8.42 5.8 7.74 5.8c-.68 0-1.66.17-1.66 1.34 0 1.16 1.81 1.2 2.06 1.26.26.06 2.19.14 2.19 1.79 0 1.64-.95 2.32-2.38 2.32-1.44 0-1.78-.49-1.93-.49-.12 0-.17.1-.19.16v.33h-.34V9.98h.34c.04 1.43.81 2.28 2.12 2.28 1.3 0 1.69-.6 1.69-1.37 0-.76-.25-1.06-1.85-1.38-1.6-.32-2.3-.68-2.3-1.92 0-1.24.78-2.09 1.97-2.09s1.59.61 1.86.61c.22 0 .28-.25.28-.38h.29v2.14Z" fill="#fff"/><path fill-rule="evenodd" d="M9 15A6 6 0 1 0 9 3a6 6 0 0 0 0 12Zm0-.35a5.65 5.65 0 1 0 0-11.3 5.65 5.65 0 0 0 0 11.3Z" fill="#2B2E41"/><defs><linearGradient id="a" x1="3.35" y1="3.12" x2="21.9" y2="24.43" gradientUnits="userSpaceOnUse"><stop stop-color="#1A1E21"/><stop offset="1" stop-color="#06060A"/></linearGradient><linearGradient id="b" x1="12.12" y1="6.59" x2="10.15" y2="12.57" gradientUnits="userSpaceOnUse"><stop stop-color="#63CEEE"/><stop offset="1" stop-color="#333693"/></linearGradient></defs></svg>