<!-- by TradingView --><svg width="18" height="18" viewBox="0 0 18 18" xmlns="http://www.w3.org/2000/svg"><path fill="url(#avlh042zg)" d="M0 0h18v18H0z"/><path fill-rule="evenodd" d="M10.3 8.68c-.1.06-.15 0-.16-.03-.02-.03 0-.18.39-.48s.6-.81.6-.9c.02-.08-.03-.42-.5-.42-.49 0-1 .27-1.57.6-.57.32-1.1.92-1.1 1.34 0 .33.53.45 1 .55l.37.09c.39.1.78.37.93.48a3.6 3.6 0 0 1 1.33-.4c.26 0 .28 0 .28.08 0 .06-.03.11-.05.14-.45 0-1.19.32-1.5.48-.02.57-.06.63-.32 1.06l-.05.08c-.5.82-1.24 1.1-1.6 1.09-.22 0-.63-.06-.63-.37 0-.38.14-.62.68-1.08a8.8 8.8 0 0 1 1.36-.9c-.29-.27-.83-.38-1.17-.45l-.23-.05c-.22-.07-.92-.34-.92-.73 0-.38.12-.83.88-1.42a3.99 3.99 0 0 1 2.35-.94c.62 0 .81.38.83.57 0 .65-1.08 1.53-1.2 1.6Zm-1.66 2.57c.44-.38 1-.76 1.22-.9-.11 1-.93 1.47-1.31 1.66-.38.19-.43.01-.43-.05 0-.07 0-.24.52-.7Zm2.87.28c.01-.04.14-.37.36-.37.21 0 .26.23.26.3 0 .07-.26.49-.5.49s-.18-.27-.12-.42Z" fill="#82BF00"/><path d="M12.15 12.78c.08.07.08.19 0 .24-.85.62-1.9.98-3.04.98A5.06 5.06 0 0 1 4 9c0-2.76 2.29-5 5.11-5A5.1 5.1 0 0 1 14 7.51c.04.1-.04.2-.15.2a.17.17 0 0 1-.16-.1 4.78 4.78 0 0 0-4.57-3.3c-2.65 0-4.8 2.1-4.8 4.7 0 2.58 2.15 4.68 4.8 4.68 1.06 0 2.05-.34 2.85-.91a.16.16 0 0 1 .2 0Z" fill="#FDFDFD"/><defs><linearGradient id="avlh042zg" x1="3.35" y1="3.12" x2="21.9" y2="24.43" gradientUnits="userSpaceOnUse"><stop stop-color="#1A1E21"/><stop offset="1" stop-color="#06060A"/></linearGradient></defs></svg>