<!-- by TradingView --><svg width="18" height="18" viewBox="0 0 18 18" xmlns="http://www.w3.org/2000/svg"><path fill="url(#a)" d="M0 0h18v18H0z"/><path d="M6.58 5c.32.05.56.13.72.24l.56.37c.35.24.6.24 1.05.24a2720.73 2720.73 0 0 0 4.95.04l.15.58-.01.02h-3.13a.01.01 0 0 0-.02.01v.01l.01.01c.26.12.45.22.57.3.07.04.15.06.24.05a406.64 406.64 0 0 1 2.43 0l.15.54c0 .01 0 .02-.02.02h-1.95a.01.01 0 0 0-.01.01v.01l.28.32.02.01h1.75c.01 0 .02 0 .02.02l.15.65v.02a.02.02 0 0 1-.02.01h-1.51c-.02 0-.03.01-.02.03l.15.3.01.01h1.46c.01 0 .02 0 .02.02l.16.64v.02a.02.02 0 0 1-.02 0h-1.45l-.02.02.03.33c0 .01 0 .02.02.02h1.5c.02 0 .03 0 .04.03l.16.6c0 .03 0 .04-.03.04H13.3c-.03 0-.04.01-.04.04-.04.16-.07.42-.1.55a3.9 3.9 0 0 1-7.66-.66c-.02-.21 0-.32 0-.59-.01-.02-.02-.03-.04-.03H4.29c-.02 0-.03 0-.03-.03l-.17-.63a.03.03 0 0 1 0-.02.02.02 0 0 1 .02-.01h1.5c.02 0 .03-.01.03-.02l.12-.45c0-.01 0-.02-.02-.02H4.01c-.01 0-.03 0-.03-.02l-.16-.62c0-.02 0-.03.03-.03l2.26-.02h.01l.02-.01.21-.3H3.77c-.01 0-.02 0-.02-.02l-.15-.52c0-.03 0-.05.04-.05H7c.03 0 .06 0 .08-.02l.38-.3c.02-.02.02-.02 0-.02H3.53L3.5 6.7l-.2-.67c-.01-.02 0-.04.02-.04l3.73.01c.39 0 .73.14 1.02.41.02.02.04.02.07.01l.1-.03c.03 0 .03-.02.02-.04-.39-.64-1.06-.66-1.77-.66h-3.3c-.01 0-.03 0-.03-.03L3 5.05v-.04c-.02 0 0-.02 0 0h3.57Zm2.73 2.07v-.6a.03.03 0 0 0 0-.03.03.03 0 0 0-.03 0c-.42.06-.77.26-1.05.6-.02.02-.01.03.01.03l1.05.02h.01v-.02Zm.18 0h1.01c.02 0 .03 0 .01-.02a1.6 1.6 0 0 0-1-.6.03.03 0 0 0-.02.03v.58Zm-1.52 0a3.13 3.13 0 0 1 .54-.54 4.14 4.14 0 0 0-1.2.54l.63.01a.04.04 0 0 0 .03-.01Zm2.8 0a.04.04 0 0 0 .03.01l.64-.01a.01.01 0 0 0 .01-.02 4.16 4.16 0 0 0-1.23-.5c.2.14.39.32.55.52Zm-3.72.18a.1.1 0 0 0-.06.02 4.17 4.17 0 0 0-.9 1.1l1.2.01c.02 0 .04 0 .04-.03.13-.38.29-.73.49-1.06.02-.03 0-.04-.02-.04h-.75Zm2.26.01a.01.01 0 0 0 0-.01H8.06l-.03.01c-.22.33-.4.7-.52 1.09 0 .02 0 .03.03.03H9.3c.02 0 .02 0 .02-.03V7.26Zm1.9 1.06a4.24 4.24 0 0 0-.5-1.04.06.06 0 0 0-.06-.03H9.52c-.02 0-.03.01-.03.03v1.07c0 .02 0 .03.02.03h1.66c.04 0 .06-.02.04-.06Zm.48-1.07h-.74c-.03 0-.04.01-.02.04.2.33.36.68.48 1.06 0 .02.02.04.04.04h1.21a.02.02 0 0 0 .01-.02v-.01a4.18 4.18 0 0 0-.91-1.09.1.1 0 0 0-.07-.02Zm-4.74 1.4.13.2c.04.16.08.16.12 0l.06-.24c0-.03 0-.04-.04-.04H6c-.02 0-.03 0-.04.02-.2.44-.3.9-.34 1.39 0 .02.01.03.04.03h1.21c.05 0 .05 0 .02-.03l-.2-.15a.07.07 0 0 1-.03-.05c0-.1-.05-.17-.15-.2a.07.07 0 0 1-.05-.05l-.09-.27a.03.03 0 0 1 0-.03l.1-.15v-.03l-.13-.18a.06.06 0 0 0-.07-.02l-.15.03c-.02.01-.05 0-.06-.02l-.02-.02a.03.03 0 0 1 0-.03.03.03 0 0 1 .03-.02c.09-.01.13-.05.14-.11 0-.03.01-.05.05-.04l.47.04c.02 0 .03.02.04.03l.02.08c0 .02.02.03.04.03h.05c.02 0 .03-.02.03-.04l.01-.12c0-.03.02-.04.04-.01Zm1.78 1.14.37-.32a.06.06 0 0 0 .03-.05l-.02-.15c0-.03.01-.04.04-.04l.13-.01s.02 0 .02-.02l.02-.03v-.56c0-.03-.02-.05-.05-.05h-1.4c-.02 0-.02.01-.01.04l.02.06c.02.02 0 .04-.02.05l-.05.02c-.03 0-.03.02-.01.04.03.04.02.08-.02.13-.01.02-.03.02-.04 0l-.25-.3c-.02-.01-.03 0-.04.02l-.04.1c-.01.04 0 .07.02.1l.19.19a.03.03 0 0 1 0 .04c-.08.03-.1.08-.09.14.01.02 0 .04-.02.05-.1.06-.22.08-.22.23l-.03.4c0 .02-.02.04-.04.05a.84.84 0 0 0-.26.25.06.06 0 0 1-.05.03H5.65c-.03 0-.04 0-.04.03.02.48.12.95.31 1.39l.04.02h.84c.03 0 .04.01.04.04v.13l-.03.01h-.76v.01l-.01.01v.01a3.84 3.84 0 0 0 .92 1.1h.79c.04 0 .05 0 .02-.04l-.07-.1c-.02-.03 0-.05.02-.05h.08a.1.1 0 0 1 .1.04l.1.14a.05.05 0 0 0 .04.02h1.25c.02 0 .02-.01.02-.03v-.15c0-.03.02-.05.05-.05h.1c.02 0 .03 0 .03.02v.2h1.22l.03-.01.12-.18a.1.1 0 0 1 .09-.05h.09c.04 0 .05.02.02.05l-.1.16c-.02.02-.01.04.02.04h.79l.05-.02c.36-.32.65-.68.87-1.08.02-.03 0-.04-.02-.04h-1.06a.04.04 0 0 1-.03-.03l-.01-.1c0-.03 0-.04.03-.04h1.18c.02 0 .03-.01.04-.03.2-.45.3-.91.31-1.39 0-.02-.01-.03-.04-.03h-1.65l-.02-.01-.02-.02a.63.63 0 0 0-.34-.3 1.27 1.27 0 0 0-1.18.13.04.04 0 0 1-.06 0A1.05 1.05 0 0 0 9 9.79l-.24.03c-.04 0-.05 0-.02-.03Zm.98-.92a.03.03 0 0 1-.01-.03.03.03 0 0 1 .02-.03l.47-.16c.01 0 .03 0 .04.03l.02.08c0 .02.01.03.03.03l.45-.04c.02 0 .04 0 .05-.02.12-.06.2-.09.34-.04a.9.9 0 0 0 .19.03.03.03 0 0 0 .01-.04l-.03-.08c0-.02-.02-.03-.04-.03H9.52c-.02 0-.03 0-.03.02v.23c-.01.16.16.16.3.16h.01l.01-.02-.01-.03-.09-.06Zm2.59.1a.75.75 0 0 0-.38.01.04.04 0 0 0-.02.04v.01c.03.07.1.14.19.21.02.02.02.04 0 .05l-.16.07c-.02.01-.03.03-.02.05l.03.06c0 .02 0 .04-.02.05a.1.1 0 0 1-.08 0 .08.08 0 0 1-.04-.04.18.18 0 0 0-.02-.04c-.02-.02-.03-.02-.03.02.01.07.04.13.08.18l.02.05c0 .14-.04.24-.12.3-.03.02-.02.02 0 .02H13.11a.03.03 0 0 0 .02-.01v-.01a4.2 4.2 0 0 0-.33-1.4.05.05 0 0 0-.05-.02H11.5c-.02 0-.03 0-.02.02l.03.13c0 .01.01.02.03.02l.73.07c.02 0 .03.01.03.03l.03.1c0 .03 0 .04-.03.03Zm-2.74.38v-.08c.01-.02 0-.03-.02-.04-.02 0-.04.01-.07.05a.1.1 0 0 0 0 .14l.1.1h.05l.04-.05c.02-.02.04-.02.05 0 .03.07.1.1.2.1.02 0 .03 0 .03-.03V9.5c.01-.02 0-.03-.02-.03h-.05c-.03 0-.04-.02-.03-.04v-.07c0-.02 0-.03-.03-.04-.06-.01-.1 0-.13.04a.07.07 0 0 1-.05.03H9.6c-.03 0-.04-.01-.04-.04Zm-2.48.24h-.1c-.02 0-.04.01-.04.04v.14c0 .03.02.06.04.07l.05.03c.03.02.04 0 .04-.02l.03-.24c0-.01 0-.02-.02-.02Zm2.78.3c.01.01.04-.01.1-.07.04-.05.04-.08.01-.1-.03-.03-.06 0-.09.05-.03.07-.04.11-.02.12Zm-1.92 3.27-.02-.02H7.22l-.01.01a.02.02 0 0 0 0 .02 4.48 4.48 0 0 0 1.3.56c-.21-.16-.4-.36-.57-.57Zm1.38 0v-.01H8.2c-.04 0-.04 0-.02.03a1.78 1.78 0 0 0 1.11.65h.01a.03.03 0 0 0 .02-.03v-.64Zm.16 0v.62a.03.03 0 0 0 .04.03 1.7 1.7 0 0 0 1.05-.64c.02-.03.01-.04-.01-.04l-1.07.02a.01.01 0 0 0-.01 0v.01Zm1.32 0a3.39 3.39 0 0 1-.57.58 4.5 4.5 0 0 0 1.3-.6H10.84a.04.04 0 0 0-.04.01Z" fill="#fff"/><path d="M7.59 11.27v.75c0 .1.05.17.16.18.12 0 .18-.05.2-.16l.02-.3c0-.02.01-.03.03-.03h.6c.02 0 .03.02.03.04.03.39-.1.66-.35.82-.4.23-1.09.14-1.3-.32a1.2 1.2 0 0 1-.07-.45 24.91 24.91 0 0 1 0-1.07c0-.21.02-.36.07-.45.22-.46.9-.55 1.3-.31.26.15.38.42.35.81 0 .03-.01.04-.04.04H8c-.02 0-.03-.01-.03-.03l-.03-.3c0-.1-.07-.16-.18-.16-.12.01-.17.07-.17.18v.76Z" fill="#fff"/><path d="M8.7 10.86c.02-.34-.05-.6-.2-.8-.01-.02 0-.04.01-.05.38-.26 1.22-.25 1.4.25.04.1.05.25.05.48 0 .05-.03.08-.08.08H9.4c-.05 0-.08-.03-.07-.09a.8.8 0 0 0-.03-.26c-.03-.1-.09-.14-.19-.13l-.08.01c-.1.04-.14.1-.13.2.02.1.07.18.16.25l.62.48c.3.26.39.57.27.93-.18.54-1.04.58-1.45.32-.02-.01-.02-.03 0-.05.17-.26.17-.36.2-.74 0-.02.01-.03.03-.03h.11c.02 0 .03.01.03.03 0 .2-.01.5.26.45.37-.05.17-.42-.02-.56l-.62-.5a.55.55 0 0 1-.13-.16c-.03-.06-.01-.08.05-.08h.26c.01 0 .03-.01.03-.03Z" fill="#fff"/><path d="M10.8 12.47a.66.66 0 0 1-.93.06c-.01-.01-.02-.03 0-.05a.87.87 0 0 0 .06-1.03l-.21-.23a.08.08 0 0 1-.03-.05l-.02-.24a.04.04 0 0 1 .03-.04h.28c.03 0 .04-.01.04-.03.02-.3-.01-.55-.1-.75a.07.07 0 0 1 .03-.1c.28-.16.59-.2.92-.13.27.05.44.19.52.4a2.23 2.23 0 0 1 .02.53l-.02.01h-.56c-.03 0-.04-.01-.04-.04l-.02-.28c0-.12-.08-.18-.2-.16h-.02c-.12.01-.19.09-.19.22V12c.01.13.07.2.2.2h.01c.13 0 .19-.06.2-.19v-.33c0-.03 0-.04-.04-.04h-.15c-.03 0-.05-.02-.05-.05v-.41c0-.04.02-.06.05-.06h.8c.03 0 .04.02.04.04v1.44c0 .03-.01.05-.04.05h-.5c-.03 0-.04-.02-.04-.05v-.12c0-.04-.02-.05-.05-.01ZM12.26 10.56l.03-.02a.04.04 0 0 1 .04 0l.15.08c.02.01.03.03.02.05v.11c0 .03-.02.03-.04.02-.04-.03-.1-.04-.15-.01-.03.01-.04 0-.04-.03v-.07c.01-.02 0-.04-.02-.04l-.13-.02c-.03 0-.04-.03-.04-.06v-.02c0-.03.02-.04.05-.03l.09.05h.04ZM12.02 11.38c-.05.07-.1.1-.17.1-.02 0-.03 0-.04-.02l-.09-.28c0-.02 0-.04.02-.06a.42.42 0 0 0 .17-.2c0-.02.02-.03.04-.03H12c.01 0 .03 0 .04-.02.02-.05.07-.06.14-.05.02 0 .04.02.03.05l.03.14a.04.04 0 0 0 .03.03c.04 0 .06-.02.05-.07 0-.02 0-.03.03-.04h.03a.05.05 0 0 1 .05.04c.02.08.07.15.16.2a.05.05 0 0 1 .02.06l-.1.3a.04.04 0 0 1-.05.03l-.16-.02a.04.04 0 0 1-.04-.03v-.02c-.02-.03-.03-.04-.05-.04a.15.15 0 0 1-.14-.07c-.01-.03-.03-.03-.04 0Z" fill="#fff"/><defs><linearGradient id="a" x1="3.35" y1="3.12" x2="21.9" y2="24.43" gradientUnits="userSpaceOnUse"><stop stop-color="#1A1E21"/><stop offset="1" stop-color="#06060A"/></linearGradient></defs></svg>