<!-- by TradingView --><svg width="18" height="18" viewBox="0 0 18 18" xmlns="http://www.w3.org/2000/svg"><path fill="#F0F3FA" d="M0 0h18v18H0z"/><path d="m10.9 7-.15.62h.58L10.46 11h.73l.87-3.38h2.77l-.43 2.15c-.12.98.72 1.23 1.16 1.23H16v-.62h-.44c-.58 0-.53-.61-.44-.92L15.71 7H10.9Z" fill="#004B88"/><path d="M13.52 7.92h-.87c-.35.37-.54.98-.59 1.23-.23 1.23.59 1.75 1.02 1.85h.88l.29-.62h-.58c-.94 0-.98-.82-.88-1.23h1.17l.29-.61h-1.17c0-.25.3-.51.44-.62Z" fill="#004B88"/><path d="M6.67 9.5H2V11h3.67l1-1.5Z" fill="#004B88" fill-opacity=".6"/><path d="M9.5 10.5H6L7 9h3.5l-1 1.5ZM2 8V7h8v1H2Z" fill="#004B88" fill-opacity=".6"/></svg>