<!-- by TradingView --><svg width="18" height="18" viewBox="0 0 18 18" xmlns="http://www.w3.org/2000/svg"><path fill="#F0F3FA" d="M0 0h18v18H0z"/><path d="M5.59 12H4.04C3.47 12 3 11.49 3 10.85V10h1.43v.81c0 .19.14.34.3.34.18 0 .32-.15.32-.34v-.49c0-.22-.1-.44-.26-.57L3.37 8.57c-.23-.2-.37-.5-.37-.82v-.6C3 6.5 3.47 6 4.04 6h1.44c.58 0 1.04.51 1.04 1.15V8h-1.3v-.92c0-.17-.23-.3-.38-.3s-.26.13-.26.3v.33c0 .21.07.41.22.55l1.5 1.36c.2.2.33.49.33.79v.74c0 .64-.46 1.15-1.04 1.15Zm3.95 0H7.99c-.58 0-1.04-.51-1.04-1.15V10h1.42v.81c0 .19.14.34.31.34.18 0 .31-.15.31-.34v-.49c0-.22-.1-.44-.26-.57L7.31 8.57c-.23-.2-.36-.5-.36-.82v-.6C6.95 6.5 7.4 6 7.99 6h1.44c.57 0 1.04.51 1.04 1.15V8H9v-.92c0-.17-.06-.3-.21-.3s-.28.13-.28.3v.33c0 .21.09.41.24.55l1.5 1.36c.2.2.33.49.33.79v.74c0 .64-.47 1.15-1.04 1.15ZM11 12V6h1.75l1.02 2.64V6H15v6h-1.6l-1.17-3.07V12H11Z" fill="#2AC4F4"/></svg>