<!-- by TradingView --><svg width="18" height="18" viewBox="0 0 18 18" xmlns="http://www.w3.org/2000/svg"><path fill="#F0F3FA" d="M0 0h18v18H0z"/><path d="M12 8.51h2v4.06a5.59 5.59 0 0 1-2.22.43c-.61 0-1.13-.16-1.54-.49-.4-.33-.72-.8-.93-1.4-.2-.6-.31-1.3-.31-2.13 0-.81.12-1.51.35-2.1.24-.6.58-1.06 1.04-1.39.45-.33 1-.49 1.66-.49a3.54 3.54 0 0 1 1.85.49l-.42 1.23a2.7 2.7 0 0 0-.67-.32 2.27 2.27 0 0 0-.7-.11c-.36 0-.66.1-.9.32-.24.2-.42.52-.55.92-.12.4-.18.9-.18 1.5 0 .54.05 1.01.15 1.42.1.4.25.7.46.93.2.22.47.33.78.33a2.23 2.23 0 0 0 .74-.13V10H12V8.51ZM8 10.62c0 .46-.1.88-.28 1.24-.18.35-.44.63-.77.84-.34.2-.73.3-1.18.3a4.3 4.3 0 0 1-1.2-.17 3.64 3.64 0 0 1-.57-.25v-1.53c.28.19.56.33.86.42.3.1.58.15.83.15.19 0 .34-.04.46-.12a.68.68 0 0 0 .28-.3 1.18 1.18 0 0 0 .02-.88 1.03 1.03 0 0 0-.31-.39 4.27 4.27 0 0 0-.64-.45 6.07 6.07 0 0 1-.6-.41A1.96 1.96 0 0 1 4.15 8a2.9 2.9 0 0 1-.1-.8c-.01-.45.07-.83.24-1.16.17-.33.42-.59.74-.77A2.3 2.3 0 0 1 6.21 5a3.87 3.87 0 0 1 1.76.49l-.4 1.32a3.24 3.24 0 0 0-.7-.34 1.9 1.9 0 0 0-.6-.1c-.17 0-.31.03-.43.1a.64.64 0 0 0-.25.26 1.18 1.18 0 0 0 0 .86c.06.12.16.25.31.37.16.13.38.27.67.44.32.19.58.39.8.6A2.12 2.12 0 0 1 8 10.62Z" fill="#8A0905"/></svg>