<!-- by TradingView --><svg width="18" height="18" viewBox="0 0 18 18" xmlns="http://www.w3.org/2000/svg"><path fill="#F0F3FA" d="M0 0h18v18H0z"/><path fill-rule="evenodd" d="M9.5 12.56c-2.49 0-4.5-1.45-4.5-3.24 0-1.79 2.01-3.24 4.5-3.24S14 7.53 14 9.32c0 1.79-2.01 3.24-4.5 3.24Zm3.85-1.8c-.27.36-.63.68-1.01.91h-1.03c.21-.26.4-.57.53-.91h1.51Zm.12-.17H11.9c.14-.39.2-.81.21-1.26h1.74c0 .44-.14.87-.38 1.26ZM11.89 8c.13.35.2.75.22 1.16h1.73c-.02-.4-.16-.8-.4-1.16H11.9ZM9.6 9.16h2.36c-.02-.41-.1-.81-.23-1.16H9.6v1.16Zm-.18 0V8H7.27a3.8 3.8 0 0 0-.23 1.16h2.38Zm.18-1.33h2.06a2.63 2.63 0 0 0-.6-.83H9.6v.83ZM9.42 7v.83H7.34c.15-.35.36-.58.6-.83h1.48Zm.18-.17h1.27c-.37-.3-.8-.57-1.27-.6v.6Zm-.18-.6v.6h-1.3c.38-.31.82-.58 1.3-.6Zm0 3.1v1.26H7.26a3.77 3.77 0 0 1-.22-1.26h2.38Zm.18 1.26V9.33h2.36c0 .45-.08.88-.22 1.26H9.6Zm-.18.17h-2.1c.15.35.34.66.57.91h1.53v-.91Zm.18.91v-.91h2.08c-.15.35-.34.66-.57.91H9.6Zm-.18.17H8.06c.39.35.86.55 1.36.57v-.57Zm.18.57v-.57h1.34c-.39.34-.85.54-1.34.57ZM7.11 8c-.13.35-.2.75-.22 1.16H5.16c.02-.4.16-.8.4-1.16H7.1Zm-.22 1.33H5.15c0 .44.14.87.38 1.26H7.1c-.14-.39-.2-.81-.21-1.26Zm-1.24 1.43h1.51c.13.34.32.65.53.91H6.66a3.66 3.66 0 0 1-1.01-.91Zm1.31 1.08h.89c.2.21.44.37.69.5a5.3 5.3 0 0 1-1.58-.5Zm4.2 0h.88c-.47.24-1 .4-1.58.5.25-.13.49-.29.7-.5Zm2.16-4h-1.5a2.81 2.81 0 0 0-.56-.84h.99c.12.07.23.07.34.15.3.2.54.43.73.68ZM10.46 6.3c.23.1.44.34.64.52h.83a5.45 5.45 0 0 0-1.47-.52Zm-1.92 0c-.23.1-.44.34-.64.52h-.83c.44-.2.94-.44 1.47-.52ZM6.75 7h1c-.24.26-.43.48-.57.83h-1.5c.2-.25.44-.47.73-.68.1-.08.22-.08.34-.15Z" fill="#193A84"/><path d="M9.17 8.7c-.05.14-.26.3-.36.36.2-.03.65-.07.74-.07.11 0 .25 0 .3.07.06.06.21.1.36.07s.18-.14.24-.14h.7c.2.01.72.27.77.31.04.05.2 0 .29-.04a.69.69 0 0 0 .2-.2v-.2c-.05-.05-.14-.17-.13-.22.02-.06.14.02.2.06.08-.06.24-.2.23-.26-.02-.07-.23-.12-.12-.21.12-.1.38 0 .37-.11 0-.1-.38-.06-.48-.06h-.61a.9.9 0 0 1-.4-.16c-.11-.06-.14.02-.27.07s-.15.09-.25.09h-.38c-.06 0-.1-.11-.18-.1-.08.03-.33.1-.46.1s.11.07.13.17c.02.1-.13 0-.2 0-.08-.01-.12-.09-.24-.17-.12-.1-.01.22 0 .33 0 .09.08.12.12.13a.5.5 0 0 0 .24 0c.17-.03.17.07.23.18.07.1.08.12 0 .16-.07.05-.17-.07-.23-.1-.05-.04-.18 0-.24-.06-.06-.05-.14-.2-.19-.31-.05-.12-.16-.04-.25 0-.1.04-.08.14-.13.31Z" fill="#193A84"/><path d="M11.27 11v-.18a.89.89 0 0 1-.59.18c-.45 0-.68-.2-.68-.6v-.8c0-.4.34-.6 1-.6.67 0 1 .2 1 .6v.1h-.77v-.17c0-.12-.06-.18-.23-.18s-.23.06-.23.18v.94c0 .12.06.18.23.18s.27-.06.27-.18v-.22H11V10h1v1h-.73Z" fill="#193A84"/><path d="M8.67 10.3h.62v.16c0 .13.07.2.2.2s.22-.07.22-.17c0-.08-.08-.16-.22-.24-.22-.12-.42-.22-.57-.33a.49.49 0 0 1-.22-.4c0-.33.3-.52.82-.52s.78.17.78.5v.16h-.6v-.14c0-.12-.06-.18-.2-.18-.1 0-.18.06-.18.14 0 .12.16.2.43.36.23.14.4.23.49.33.06.08.1.18.1.3 0 .33-.31.53-.86.53-.53 0-.81-.2-.81-.55v-.15Z" fill="#193A84"/><path d="M9 10.4c0 .4-.33.6-1 .6-.66 0-1-.2-1-.6v-.8c0-.4.34-.6 1-.6.67 0 1 .2 1 .6v.15h-.77v-.22c0-.12-.06-.18-.23-.18s-.23.06-.23.18v.94c0 .12.06.18.23.18s.23-.06.23-.18v-.27H9v.2ZM7.24 8.6c-.12.17-.05.36 0 .43l-.43.29a1.3 1.3 0 0 0-.26-.29c-.09-.05 0-.24-.13-.2-.14.03-.15-.04-.23-.15a.65.65 0 0 1-.1-.36c0-.12.15-.09.18-.19s-.14-.12-.18-.12c-.05 0-.36.07-.4 0-.03-.06.22-.2.28-.2l.58-.05c.1 0 .06.17.12.25.06.09.08-.2.14-.25.06-.05.18.17.2.32 0 .15.07.05.16 0a.47.47 0 0 0 .15-.15c.05-.08.17-.26.2-.36.02-.12.28 0 .35 0 .07 0 .19.16.25.24a.6.6 0 0 1-.25.2c-.13.05-.4-.01-.24.12.17.14.03.12 0 .19s-.24.08-.39.29Z" fill="#193A84"/><path d="M3.5 9 2 5h4l2 1h6.5L16 9.5h-2l-.12-.62c0-2-3.56-2.75-4.06-2.75C7.02 6.13 5.36 7.7 5 9H3.5Z" fill="#193A84" fill-opacity=".9"/><path d="M9.5 13c2.3 0 4.05-1.35 4.86-2l.64.81c-.9.73-2.87 2.19-5.5 2.19-2.65 0-4.9-1.58-5.5-2.38l.82-.62c.44.58 2.4 2 4.68 2Z" fill="#193A84" fill-opacity=".5"/></svg>