<!-- by TradingView --><svg width="18" height="18" viewBox="0 0 18 18" xmlns="http://www.w3.org/2000/svg"><path fill="#F0F3FA" d="M0 0h18v18H0z"/><path d="M8.56 5 9 3l.44 2c.36 0 1.49.67 2 1a8.54 8.54 0 0 0-2-.25L9.67 7l-.23 4.5v.75c0 .4.3.33.45.25 1.78-.75 2.22-2 2.22-2.75 0-.6-.3-.92-.44-1 .35-.2.44-1.25.44-1.75L13 8.5c0 1.25-.88 3.5-2 4.5-1.11 1-1.78 1.75-2 2-.22-.25-.58-1-2-2S5.07 9.58 5 8.5L5.89 7c0 .6.44 1.42.67 1.75-.36.4-.45.83-.45 1 0 2 1.56 2.5 2 2.75.36.2.45-.08.45-.25v-.75L8.33 7l.23-1.25c-.72 0-1.63.17-2 .25.7-.6 1.63-.92 2-1Z" fill="#0D3246"/></svg>