<!-- by TradingView --><svg width="18" height="18" viewBox="0 0 18 18" xmlns="http://www.w3.org/2000/svg"><path fill="#F0F3FA" d="M0 0h18v18H0z"/><path d="M8 11H4v2h4v-2Z" fill="#BDC3C4"/><path d="M15 11H8v2h7v-2Z" fill="#0068B7"/><path d="M11 8h-1v1h1V8ZM13 8h-1v1h1V8ZM15 8h-1v1h1V8ZM9 5H8v5h1V5ZM5.74 7.04C5.3 6.86 5 6.61 5 6.31c0-.09.04-.18.1-.28.29-.41.92-.13 1.08.02l.47-.66c-.9-.64-1.85-.43-2.3.17-.18.22-.35.48-.35.75 0 .47.33.97 1 1.33.64.36 1 .56 1 .9 0 .07-.02.16-.05.25-.14.4-.79.49-1.4-.04L4 9.47c1.14.88 2.2.54 2.7-.1.2-.26.3-.54.3-.83 0-.56-.39-1.13-1.26-1.5Z"/></svg>