<!-- by TradingView --><svg width="18" height="18" viewBox="0 0 18 18" xmlns="http://www.w3.org/2000/svg"><path fill="#F0F3FA" d="M0 0h18v18H0z"/><path d="M3 11.34C3 7.85 8.33 4.33 11 3c-5.74 3.99-7 6.75-7 7.75S5.18 12 6.16 12c1.28 0 2.94-.65 3.56-1-.7.58-2.71 2-4.58 2S3 12.07 3 11.34Z" fill="#51C6D8"/><path d="M5 10.1C5 8 8.56 5.54 10 5 6.17 7.9 6 9.13 6 9.6c0 .47.28.77.91.77.9 0 2-.41 2.42-.63A4.29 4.29 0 0 1 6.41 11C5.47 11 5 10.84 5 10.1Z" fill="#51C6D8"/><path d="M15 6.66c0 3.49-5.33 7.01-8 8.34 5.74-3.99 7-6.6 7-7.6S12.82 6 11.84 6c-1.28 0-2.94.65-3.56 1 .7-.58 2.71-2 4.58-2S15 5.93 15 6.66Z" fill="#51C6D8"/><path d="M13 7.9C13 10 9.44 12.46 8 13c3.83-2.9 4-4.13 4-4.6 0-.47-.28-.77-.91-.77-.9 0-2 .41-2.42.63A4.29 4.29 0 0 1 11.59 7c.94 0 1.41.16 1.41.9Z" fill="#51C6D8"/></svg>