<!-- by TradingView --><svg width="18" height="18" viewBox="0 0 18 18" xmlns="http://www.w3.org/2000/svg"><path fill="#314E74" d="M0 0h18v18H0z"/><path d="M6.96 3.81c-.03-.27.3-.42.48-.21l1.34 1.53c.04.05.03.13-.02.17a.1.1 0 0 1-.14-.02l-.93-.98c-.15-.2-.45-.06-.43.19v1.59a.1.1 0 0 1-.09.1.1.1 0 0 1-.1-.1l-.1-2.27Zm6.13 6.44a.12.12 0 0 1 0-.14.1.1 0 0 1 .17-.01l1.16 1.38c.2.2 0 .53-.26.47l-2.15-.45a.09.09 0 0 1-.07-.12.09.09 0 0 1 .1-.06l1.47.22c.24.06.4-.24.24-.42l-.66-.87Zm-3.88 2.28-1.19 1.83c-.14.25-.5.14-.5-.14v-2.17a.1.1 0 0 1 .12-.1.1.1 0 0 1 .08.1l.03 1.5c0 .25.28.32.4.1l.9-1.24a.1.1 0 0 1 .07-.04c.08 0 .13.1.09.16ZM7.08 10s-1.78 0-3.36-.58c-.27-.06-.3-.45-.04-.55l2.1-.78c.05-.03.12.02.12.09a.1.1 0 0 1-.06.1l-1.39.58c-.23.09-.2.37.04.42l.15.03h6.3c.12 0 .22-.1.22-.23 0-.12-.1-.23-.22-.23h-2.8c-.47 0-.86-.4-.86-.91 0-.5.39-.92.86-.92h4.2l-.38.69H8.25c-.12 0-.22.1-.22.23 0 .12.1.22.21.23h2.8c.48 0 .87.4.87.91 0 .5-.39.92-.86.92H7.08Zm6.77-4.83c.12-.25-.19-.62-.42-.49l-1.97.9a.1.1 0 0 0-.05.13.1.1 0 0 0 .13.06l1.31-.55c.21-.11.5.18.38.4l-.55 1.03c-.03.05 0 .12.04.15a.1.1 0 0 0 .15-.05l.98-1.58Z" fill="#fff"/></svg>