<!-- by TradingView --><svg width="18" height="18" viewBox="0 0 18 18" xmlns="http://www.w3.org/2000/svg"><path fill="#F0F3FA" d="M0 0h18v18H0z"/><path fill-rule="evenodd" d="M14.75 10.02c-.02-.19-.08-.36-.18-.5-.17-.25-.56-.52-1.5-.52a9.18 9.18 0 0 0-5.64 2.35.5.5 0 0 1-.34.12.47.47 0 0 1-.32-.13.44.44 0 0 1-.13-.31c0-.12.04-.23.14-.32 1.64-1.47 4.09-2.67 6.3-2.67.77 0 1.37.17 1.8.46a2.91 2.91 0 0 0-.44-.46 2.95 2.95 0 0 0-2.01-.62c-1.97 0-4.16 1.14-5.63 2.45a.5.5 0 0 1-.32.13.47.47 0 0 1-.34-.13.44.44 0 0 1-.14-.32c0-.11.05-.22.14-.3 1.64-1.49 4.07-2.72 6.29-2.72 1.14 0 1.96.3 2.57.79a3.43 3.43 0 0 0-2.85-1.5c-1.8 0-3.46.84-5.43 2.1a.48.48 0 0 1-.64-.12.44.44 0 0 1 .12-.62c2.04-1.31 3.88-2.17 5.95-2.17.78 0 1.43.16 1.97.42a3.14 3.14 0 0 0-2.43-1.02c-1.21 0-2.69 0-4.71 1a.5.5 0 0 1-.25.06.47.47 0 0 1-.4-.22.43.43 0 0 1 .16-.61c2.2-1.2 3.83-1.13 5.16-1.13-.76-.33-1.6-.51-2.49-.51A6.08 6.08 0 0 0 3 9c0 3.31 2.76 6 6.16 6a6 6 0 0 0 5.43-3.23.58.58 0 0 0 .05-.27c0-.69-.66-1.09-1.3-1.09-1.84 0-3.26 1.35-4.54 2.47a.5.5 0 0 1-.34.12.47.47 0 0 1-.33-.13.44.44 0 0 1-.13-.31c0-.12.05-.23.14-.32.5-.43 1.1-1.11 1.88-1.57.98-.57 2.17-1 3.32-1 .57 0 1.04.12 1.4.35Zm-4.13 3.57c.46 0 .94-.19 1.6-.54.96-.5 1.62-1.13 1.6-1.56 0-.3-.38-.38-.64-.37-.45 0-1.1.16-1.74.5-.95.5-1.43 1.15-1.44 1.57 0 .31.36.4.62.4Z" fill="#01A5ED"/></svg>