<!-- by TradingView --><svg width="18" height="18" viewBox="0 0 18 18" xmlns="http://www.w3.org/2000/svg"><path fill="#F0F3FA" d="M0 0h18v18H0z"/><path d="M9 5.68c.44 0 .8-.37.8-.84A.82.82 0 0 0 9 4c-.44 0-.8.38-.8.84 0 .47.36.84.8.84ZM7.4 5.37c.28 0 .5-.24.5-.53a.51.51 0 0 0-.5-.52c-.27 0-.5.23-.5.52 0 .3.23.53.5.53ZM10.6 5.37c.27 0 .5-.24.5-.53a.51.51 0 0 0-.5-.52c-.28 0-.5.23-.5.52 0 .3.22.53.5.53Z" fill="#0B8FC9"/><path d="M6.88 10.9c0-.33-.13-.62-.4-.86-.64-.59-1.47-1.15-1.3-2.17.16-.97 1.23-.97 1.96-.76.05 0 .07.04.06.08a2.5 2.5 0 0 0 0 .7l-.03.03h-.03c-.02 0-.03-.01-.03-.03-.03-.22-.08-.44-.29-.56-.54-.3-1.44-.05-1.3.76.05.22.17.42.37.61l.87.8c.39.35.56.79.51 1.31-.1 1.13-1.24 1.37-2.11 1.06a.24.24 0 0 1-.18-.25 10.68 10.68 0 0 1 .05-.8h.03c.03 0 .04.02.04.04-.01.57.28.87.86.92.5.04.93-.35.92-.88Z" fill="#7C7E7E"/><path d="M9.48 9.1h2.68a.05.05 0 0 0 .04-.01v-.02l.02-.03V7.57c0-.34-.14-.52-.48-.48-.03 0-.04-.01-.03-.04v-.03h1.35c.04 0 .05.01.02.05a.07.07 0 0 1-.07.02c-.04 0-.08 0-.11.02-.1.03-.22.16-.22.27v3.74c0 .36 0 .87.52.78h.03l.01.03.01.03a.03.03 0 0 1 0 .02.02.02 0 0 1-.02.01 8.6 8.6 0 0 0-1.42-.01v-.04c0-.03.01-.04.03-.04.38.06.37-.46.38-.7V9.37c0-.02-.02-.03-.03-.04a.05.05 0 0 0-.03-.02H9.48c-.04 0-.07.02-.07.06v1.84c.02.4.02.75.54.68.04 0 .05 0 .04.05l-.02.03c0 .01 0 .02-.02.01a8.67 8.67 0 0 0-1.37 0c-.03 0-.04-.01-.04-.04v-.03c.25 0 .4-.15.4-.42V7.49c0-.3-.17-.45-.48-.41-.01 0-.02 0-.02-.02V7a.03.03 0 0 1 .03 0 11.18 11.18 0 0 0 1.36 0v.03c0 .02-.01.03-.03.03-.19 0-.39.1-.39.32v1.64c0 .05.03.08.07.08Z" fill="#254387"/><path fill="#1B1719" d="M3 12.62h12V13H3zM3 6h12v.37H3z"/></svg>