<!-- by TradingView --><svg width="18" height="18" viewBox="0 0 18 18" xmlns="http://www.w3.org/2000/svg"><path fill="#F0F3FA" d="M0 0h18v18H0z"/><path d="M11.88 4.17a.5.5 0 0 1-.42.83.5.5 0 1 1 .42-.83Z" fill="url(#ay1vzvakd)"/><path d="M10.93 6.04a3.46 3.46 0 0 1-.86.87L9 7.73c-.06.04-.1.1-.14.14a.12.12 0 0 0-.01.1V8c.04.03.09.03.13.02.39-.07.96-.12 1.2.27.53.88-.74 1.63-1.35 2-.2.14-.42.3-.63.52-.6.59-.86 1.3-.76 2.14.02.2.07.42.14.67l-3.59-1.07c.2-.55.54-1 1.01-1.34.34-.26.7-.48 1.08-.66.35-.17.7-.32 1.06-.46l1.34-.52c.32-.13 1.02-.48.88-.91a.14.14 0 0 0-.11-.1.5.5 0 0 0-.2.01l-.52.1c-.5 0-.71-.45-.45-.84.1-.14.24-.26.41-.36.41-.24.8-.48 1.17-.73.4-.26.78-.57 1.13-.9.2-.22.37-.45.49-.69.02-.03.02-.03.02 0-.05.33-.18.62-.37.9Z" fill="#373435"/><path d="M9.66 6.73a2.2 2.2 0 0 0-1.24-.07 2.2 2.2 0 0 0-1.4.96 2.07 2.07 0 0 0 .12 2.46l1.34-.52c.32-.13 1.02-.48.88-.91a.14.14 0 0 0-.11-.1.5.5 0 0 0-.2.01l-.52.1c-.5 0-.71-.45-.45-.84.1-.14.24-.26.41-.36.41-.24.8-.48 1.17-.73Z" fill="url(#by1vzvakd)"/><path d="M10.07 6.91c.42.24.72.56.9.95.29.6.28 1.22-.02 1.84a2.27 2.27 0 0 1-2.75 1.1 3.61 3.61 0 0 1 .66-.53l.03-.02c.63-.4 1.8-1.12 1.29-1.97-.24-.4-.81-.34-1.2-.27-.04.01-.09 0-.12-.02l-.01-.02c-.01-.03 0-.06.01-.1.03-.05.08-.1.14-.14l1.07-.82Z" fill="url(#cy1vzvakd)"/><path d="M9 3v3.61a2.2 2.2 0 0 0-1.98 1 2.07 2.07 0 0 0 .12 2.47c-.36.14-.71.3-1.06.46-.38.18-.74.4-1.08.66-.47.35-.82.8-1 1.34l-1-.3v-.02L9 3Z" fill="url(#dy1vzvakd)"/><path d="M9 10.92c-.25 0-.57-.04-.8-.12-.6.59-.86 1.3-.76 2.14.02.2.07.42.14.67L9 14v-3.08Z" fill="url(#ey1vzvakd)"/><path d="M9.66 6.73c.4-.26.78-.57 1.13-.9L9 3v3.61c.17.01.43.04.66.12Z" fill="url(#fy1vzvakd)"/><path d="M10.93 6.04a3.46 3.46 0 0 1-.86.87c.42.24.72.56.9.95.29.6.28 1.22-.02 1.84A2.33 2.33 0 0 1 9 10.92V14l5.99-1.76v-.02l-4.06-6.18Z" fill="url(#gy1vzvakd)"/><defs><linearGradient id="ay1vzvakd" x1="11.5" y1="4" x2="11.5" y2="5" gradientUnits="userSpaceOnUse"><stop stop-color="#598887"/><stop offset="1" stop-color="#62C3BD"/></linearGradient><linearGradient id="by1vzvakd" x1="10.64" y1="8.76" x2="6.67" y2="8.76" gradientUnits="userSpaceOnUse"><stop stop-color="#BEBFC1"/><stop offset="1" stop-color="#D1D2D4"/></linearGradient><linearGradient id="cy1vzvakd" x1="10.64" y1="8.76" x2="6.67" y2="8.76" gradientUnits="userSpaceOnUse"><stop stop-color="#BEBFC1"/><stop offset="1" stop-color="#D1D2D4"/></linearGradient><linearGradient id="dy1vzvakd" x1="5.97" y1="3" x2="5.97" y2="14" gradientUnits="userSpaceOnUse"><stop stop-color="#5A8786"/><stop offset="1" stop-color="#62C5BF"/></linearGradient><linearGradient id="ey1vzvakd" x1="5.97" y1="3" x2="5.97" y2="14" gradientUnits="userSpaceOnUse"><stop stop-color="#5A8786"/><stop offset="1" stop-color="#62C5BF"/></linearGradient><linearGradient id="fy1vzvakd" x1="11.96" y1="3" x2="11.96" y2="14" gradientUnits="userSpaceOnUse"><stop stop-color="#60C0BA"/><stop offset="1" stop-color="#5A8A88"/></linearGradient><linearGradient id="gy1vzvakd" x1="11.96" y1="3" x2="11.96" y2="14" gradientUnits="userSpaceOnUse"><stop stop-color="#60C0BA"/><stop offset="1" stop-color="#5A8A88"/></linearGradient></defs></svg>