<!-- by TradingView --><svg width="18" height="18" viewBox="0 0 18 18" xmlns="http://www.w3.org/2000/svg"><path fill="#F0F3FA" d="M0 0h18v18H0z"/><path fill-rule="evenodd" d="M14 7.94a5 5 0 1 1-10 .12 5 5 0 0 1 10-.12ZM8.06 6.7a.5.5 0 0 1-.4.08 6.67 6.67 0 0 1-1.7-.6.2.2 0 0 1-.04-.16.2.2 0 0 1 .03-.08c.24-.33.55-.63.94-.91a3.86 3.86 0 0 1 1.18-.59.2.2 0 0 1 .2.1.2.2 0 0 1 .03.08c.06.57.04 1.15-.05 1.73a.5.5 0 0 1-.2.35Zm1.68-.35a.5.5 0 0 0 .2.36c.1.07.22.1.38.07a6.52 6.52 0 0 0 1.67-.55.2.2 0 0 0 .05-.16 3.85 3.85 0 0 0-.93-1 3.76 3.76 0 0 0-1.14-.6.2.2 0 0 0-.22.1 6.8 6.8 0 0 0-.01 1.79Zm-2.3 2.11a.5.5 0 0 1-.05.4 6.76 6.76 0 0 1-1.02 1.44.18.18 0 0 1-.05.01.19.19 0 0 1-.12-.02 3.84 3.84 0 0 1-.64-1.2 3.85 3.85 0 0 1-.2-1.34.2.2 0 0 1 .1-.1.2.2 0 0 1 .11-.01c.55.1 1.08.28 1.6.53a.5.5 0 0 1 .27.3Zm4.37 1.81c.25-.31.45-.7.6-1.14.16-.45.24-.88.24-1.28a.2.2 0 0 0-.07-.15.2.2 0 0 0-.15-.04 6.6 6.6 0 0 0-1.61.5.5.5 0 0 0-.29.3.5.5 0 0 0 .05.4 6.74 6.74 0 0 0 1 1.47.2.2 0 0 0 .16 0 .2.2 0 0 0 .07-.06Zm-2.85-.7c.12 0 .24.05.35.16a6.92 6.92 0 0 1 1.06 1.46.2.2 0 0 1-.13.2c-.38.14-.8.2-1.28.21a3.8 3.8 0 0 1-1.35-.24.2.2 0 0 1-.06-.15 6.76 6.76 0 0 1 1.03-1.47.5.5 0 0 1 .38-.18Zm4.47 3.55-.02-.01-1.25-.45h-.04a.07.07 0 0 0-.03.04l-.02.04a.97.97 0 0 0 .02.62c.03.1.09.18.15.24.07.07.15.12.23.15l.06.03c.09.03.18.04.27.03.1-.01.19-.05.27-.1a.8.8 0 0 0 .22-.2.94.94 0 0 0 .15-.28l.01-.04a.07.07 0 0 0 0-.05l-.02-.02ZM6 12.92c-.2.6-.22.97-.1 1.13.2.26.17.32-.12.18a5.62 5.62 0 0 1-.87-.58.38.38 0 0 1-.04-.28c.01-.05.03-.1.06-.14.25-.34.56-.51.92-.53l.07.02.06.05a.17.17 0 0 1 .02.15Zm3.93 1.2a.19.19 0 0 0-.07-.02l-1.13-.13a.19.19 0 0 0-.14.04.2.2 0 0 0-.07.14v.06a.7.7 0 0 0 .6.77l.15.02a.67.67 0 0 0 .76-.61v-.07a.22.22 0 0 0-.04-.15.2.2 0 0 0-.06-.05Z" fill="#049F50"/></svg>