<!-- by TradingView --><svg width="18" height="18" viewBox="0 0 18 18" xmlns="http://www.w3.org/2000/svg"><path fill="#F0F3FA" d="M0 0h18v18H0z"/><path d="M11.37 13.41c-.47.26-1 .44-1.55.53.2-.59.43-1.37.43-2.36C10.25 9.84 9 8.53 9 6.85c0-1.27.19-2.2.53-2.85.63.07 1.22.25 1.75.52-.3.64-.55 1.42-.55 2.33 0 1.53 1.27 2.7 1.27 4.2 0 .79-.32 1.6-.63 2.36ZM12.86 12.18a5.01 5.01 0 0 0-.33-6.74c-.36.5-.72 1.1-.72 1.8 0 .57.1.98.44 1.65l.22.41c.26.49.53.96.53 1.66 0 .4-.06.81-.14 1.22ZM8.37 4.01c-.57.07-1.12.24-1.61.5A6.96 6.96 0 0 0 6 7.15c0 1.51 1.27 2.68 1.27 4.21 0 .82-.2 1.54-.46 2.13.57.28 1.2.46 1.88.5.2-.5.31-1.29.31-2.42 0-1.06-.2-1.79-.54-2.46-.32-.66-.71-1.38-.71-2.27 0-1.2.29-2.14.62-2.84ZM5.57 12.64A2.9 2.9 0 0 0 6 10.98a4.1 4.1 0 0 0-.47-2.06C5.27 8.43 5 7.96 5 7.26c0-.51.09-1.04.22-1.55a5.01 5.01 0 0 0 .35 6.93Z" fill="#20469B"/></svg>