<!-- by TradingView --><svg width="18" height="18" viewBox="0 0 18 18" xmlns="http://www.w3.org/2000/svg"><path fill="#BBEAFE" d="M0 0h18v18H0z"/><ellipse cx="9" cy="9" rx="7" ry="4" fill="#242672"/><path d="m7.18 8.17.33-.78A2.4 2.4 0 0 0 6.2 7c-.8 0-1.66.39-1.66 1.17 0 .65.49.85.95 1.04l.03.02c.47.2.64.4.64.69 0 .28-.17.46-.64.46s-.8-.29-1-.72l-.52.82c.15.17.67.52 1.52.52s1.45-.41 1.59-.61c.26.56.86.61 1.13.61.36 0 1.04-.15 1.28-.46l.45.46h2l-.42-.54.5-2.92.26-.1c.38 0 .7.37.7.82 0 .74-.62 1.08-.9 1.2.93 0 1.89-.19 1.89-1.31 0-.9-.6-1.14-.9-1.15h-2.15l.16.25-.56 3.26-.04.06c-.1-.07-.28-.21-.54-.46.28-.28.79-.9.79-1.57h-.64c.03.01.1.1.1.3 0 .26-.2.7-.5.99-.32-.34-.96-1.15-.96-1.74 0-.37.2-.7.58-.7.3 0 .52.3.56.44l.32-.61c-.06-.08-.36-.22-.8-.22-.56 0-1.23.4-1.23.98 0 .15.03.31.05.37-.32.04-.9.27-1.15.8a.85.85 0 0 0-.1-.14 2.3 2.3 0 0 0-.9-.56c-.38-.1-.57-.26-.57-.5s.23-.34.57-.34c.33 0 .97.15 1.09.56Zm.97.68c.12.3.49 1.04.99 1.53-.06.1-.27.31-.69.31a.93.93 0 0 1-.94-.9c0-.48.38-.9.64-.94Z" fill="#fff"/></svg>