<!-- by TradingView --><svg width="18" height="18" viewBox="0 0 18 18" xmlns="http://www.w3.org/2000/svg"><path fill="#F0F3FA" d="M0 0h18v18H0z"/><path d="M8.53 3h.28l.07.2c.01.03.03.05.06.05h.24a.07.07 0 0 0 .06-.05l.08-.2h.22a.2.2 0 0 0 .14.06h.02l.02.02a.05.05 0 0 1 0 .05l-.12.25c-.02.03-.01.06.02.08.05.03.1.07.12.13.01.03.03.04.06.02l.18-.1c.05-.03.09-.02.12.02.06.08.1.18.11.29 0 .05 0 .08-.05.1-.16.08-.28.06-.27.3 0 .02.01.04.03.05l.24.11.03.03v.04c0 .09-.02.18-.06.27a.09.09 0 0 1-.06.05c-.08.02-.14 0-.2-.04a.1.1 0 0 0-.09-.01.32.32 0 0 0-.18.18.1.1 0 0 0 .02.1c.04.05.05.1.05.17a.07.07 0 0 1-.04.05l-.17.1a.14.14 0 0 1-.17-.03.15.15 0 0 1-.03-.05l-.08-.17c-.02-.03-.03-.04-.06-.02-.07.06-.13.06-.18 0-.03-.04-.05-.04-.06.02v.04c.02 0 .02.02.02.03l-.02.03a.21.21 0 0 0-.08.14c0 .05-.03.06-.07.04l-.3-.16c-.03-.01-.04-.04-.02-.08a.51.51 0 0 1 .1-.16.08.08 0 0 0 0-.07c0-.02-.01-.03-.04-.03a.1.1 0 0 1-.08-.05c-.07-.1-.17-.11-.3-.02A.07.07 0 0 1 8 4.77L8 4.74l-.1-.3c-.01-.04 0-.06.04-.07a.75.75 0 0 0 .2-.1.06.06 0 0 0 .03-.06v-.17a.1.1 0 0 0-.04-.08.2.2 0 0 0-.14-.04c-.05 0-.07-.02-.07-.07.01-.1.04-.2.07-.32.01-.03.04-.04.07-.04.08 0 .16.03.23.08.02.02.04.02.06 0l.16-.15c.03-.02.03-.05.02-.08-.08-.12-.08-.23 0-.34Z" fill="#F86E1B"/><path d="m8.98 3.56-.11.3-.02.04a.06.06 0 0 1-.04 0h-.29a.06.06 0 0 1-.05-.03.06.06 0 0 1 0-.07l.18-.19.01-.01.24-.11a.06.06 0 0 1 .06 0 .06.06 0 0 1 .02.07ZM9.17 3.84a.32.32 0 0 0-.05-.12c0-.05 0-.11-.03-.18a.04.04 0 0 1 0-.04.04.04 0 0 1 .05-.02c.2.05.35.17.47.35.01.03 0 .05-.03.06a.51.51 0 0 1-.41-.05Z" fill="#020201"/><path d="m9.12 3.72.05.13v.14c0 .03.01.04.04.04.16-.03.25 0 .27.06l-.16.14-.12.01c-.02.01-.03.03-.01.05.11.17.11.25 0 .25l-.12-.1a.39.39 0 0 0-.08-.1c-.02-.02-.05-.02-.07 0l-.09.1a.07.07 0 0 1-.06.02c-.03 0-.05-.03-.05-.07l.04-.1.08-.11c.02-.03.01-.05-.02-.07l-.07-.04c-.06-.03-.06-.06 0-.08a.3.3 0 0 1 .18-.01c.03 0 .05 0 .05-.04.02-.14.07-.21.14-.22Z" fill="#FDCCA8"/><path d="m8.76 4.29-.04.1-.09.2c-.01.04-.03.05-.06.02a.66.66 0 0 1-.17-.58c.01-.03.03-.04.06-.02.13.08.23.17.3.28ZM9.32 4.23l.16-.14.15-.09a.03.03 0 0 1 .04.01v.02a.66.66 0 0 1-.19.58l-.03.02h-.03v-.01c.01-.03.01-.05 0-.07a.81.81 0 0 1-.1-.32Z" fill="#020201"/><path d="m7.17 4.4.16.14c.06.09.12.05.17-.1.09-.05.17-.06.24 0 .02.02.03.04.03.07l-.03.14c-.03.1 0 .18.08.25l.28.27.78.43.14.07h.06l.44-.3c.1.02.15 0 .15-.07l.4-.22c.17-.07.26-.2.25-.4v-.21c0-.03.02-.05.05-.06.1-.02.18 0 .24.09a.11.11 0 0 0 .1.04.11.11 0 0 0 .09-.05.23.23 0 0 1 .1-.08c.07-.05.13-.1.18-.18a.06.06 0 0 1 .06-.03c.05 0 .08.04.08.1 0 .28.2.27.42.23.12.07.18.18.18.31a.5.5 0 0 0-.24.08c-.09 0-.15.05-.18.16 0 .02 0 .02.02.02.22-.03.53.01.57-.28v-.06a.07.07 0 0 1 .07-.04h.13c.01.07.04.12.1.14.03.01.05 0 .07-.01.11-.12.14-.23.09-.33.1-.2.2-.17.3.1l-.05.34c-.03.1-.04.17-.03.23v.04a.03.03 0 0 0 .02 0c.23 0 .35-.07.36-.22-.16-.1-.1-.3.03-.38.1-.06.25-.04.36-.04a.24.24 0 0 1 .17.07.25.25 0 0 1 .07.18v.2c0 .07 0 .13-.04.2l-.15.2c-.03 0-.04 0-.05.03-.02.02-.02.04 0 .07.04.04.1.07.17.06.23.26.43.67.7.84.03.05.06.08.11.08.1 0 .18-.03.24-.08.04-.01.06.05.03.2-.1.18-.24.24-.34.37a.06.06 0 0 0 0 .07c.06.12.18.18.33.17.07 0 .1-.03.1-.08.04 0 .07-.02.11-.04.03-.01.05 0 .05.03v.13c0 .03-.01.05-.03.08a.13.13 0 0 0-.03.09c0 .03-.01.06-.03.08l-.16.17c-.11-.02-.19 0-.23.09a.07.07 0 0 0 0 .07c.04.09.08.18.1.27.02.05.04.07.06.05.02.04.03.09.02.14 0 .03-.02.05-.04.05l-.14.02a.17.17 0 0 0-.12.01.08.08 0 0 0-.05.06c-.01.07.03.14.12.21.1.1.22.14.37.14l.04.02v.05c-.1.15.01.73.18.74l-.01.31c0 .03-.02.04-.05.03a.2.2 0 0 1-.08-.05.06.06 0 0 0-.06-.02.06.06 0 0 0-.04.03v.03c.02.23 0 .45-.06.67-.03.1-.07.2-.14.28l-.15.92c0 .1-.02.16-.06.18-.14.14-.15.36-.2.54a.06.06 0 0 0 .02.07.06.06 0 0 0 .07 0 .3.3 0 0 0 .16-.21c0-.04.05-.05.15-.04a.96.96 0 0 0-.02.38c0 .22-.13.25-.26.4a.08.08 0 0 1-.07.02c-.1 0-.17.01-.25-.04a1.1 1.1 0 0 1-.42-.5c-.2-.43.14-.93-.04-1.35a.09.09 0 0 0-.06-.05.54.54 0 0 1-.27-.2l-.09-.3a.5.5 0 0 1 .23 0c0 .1.69-.12.33-.45a.38.38 0 0 1-.35-.12l-.1-.11a.07.07 0 0 1-.01-.1l.03-.02c.05-.02.09-.05.11-.09.15-.15.2-.3.17-.43.01-.11-.07-.23-.23-.36a.29.29 0 0 1-.12-.22.06.06 0 0 1 .02-.05.06.06 0 0 1 .04-.01c.1.02.17 0 .2-.07a.18.18 0 0 1 .05-.04c.2-.22.26-.45.19-.7-.03-.09-.1-.14-.2-.16a.13.13 0 0 1-.08-.03c-.15-.14-.35-.37-.27-.6a.14.14 0 0 1 .1-.08.13.13 0 0 1 .12.04c.08.08.15.07.22-.02.14-.15.15-.3.03-.46-.1-.28-.24-.52-.43-.71-.17-.18-.23-.2-.16-.04v6.62c0 .12-.03.24-.09.34A4.4 4.4 0 0 1 9.35 15h-.62a4.19 4.19 0 0 1-3.53-2.13.74.74 0 0 1-.09-.36 27283.38 27283.38 0 0 1-.02-6.67h-.04c-.05 0-.08.05-.1.1-.22.22-.37.49-.44.79a.33.33 0 0 0 .05.37c.02.06.13.07.33 0 .07-.02.1.01.1.1v.17l-.2.38-.17.1c-.37.1-.08.95.28.93a.06.06 0 0 1 .05.03.07.07 0 0 1 0 .06.9.9 0 0 1-.27.33.32.32 0 0 0-.12.2c-.02.1 0 .2.05.3.02.05.04.06.05.04.02.02.03.04.03.07.07.06.14.1.22.13 0 0 .02 0 .02.02a.06.06 0 0 1 0 .06l-.01.02a.41.41 0 0 0-.17.16l-.12.07a.12.12 0 0 1-.07.01c-.05 0-.08 0-.1.02-.04-.03-.07 0-.1.11-.02.13.03.22.16.29l.03.03c.11.07.2.07.27 0a.31.31 0 0 1 .17 0c.02 0 .03.02.02.04l-.02.09-.23.29c.02 0 0 .02-.03.03-.2.05.18 1.3-.54 1.9a.4.4 0 0 1-.25.1.3.3 0 0 1-.22-.1.61.61 0 0 1-.18-.4l.05-.23c.01-.03.03-.03.06-.02l.04.04c.04.08.08.12.13.15.03 0 .05 0 .06-.03a.25.25 0 0 0-.02-.18c-.1-.23-.32-.7-.32-.92.02-.17.01-.35-.03-.53l-.18-.37a.15.15 0 0 1-.01-.08c0-.06 0-.11-.03-.14a.83.83 0 0 0 0-.48l-.05.01a.58.58 0 0 0-.2.08c-.03-.04-.04-.1-.02-.2.12-.1.17-.47.29-.63a.04.04 0 0 0 0-.05c0-.02 0-.02-.02-.02.04-.07.03-.15-.01-.25.1-.01.2-.04.3-.1a.13.13 0 0 0 .07-.05l.08-.15c.02-.03.01-.05-.01-.07a.37.37 0 0 0-.24-.07c-.03 0-.04-.01-.05-.03a.2.2 0 0 1 0-.1c.1-.1.19-.4.17-.47a.07.07 0 0 0-.02-.03.07.07 0 0 0-.04-.02c-.04 0-.06.01-.05.04a.9.9 0 0 1-.33-.38.41.41 0 0 1-.02-.25c0-.03.02-.04.04-.02l.1.05c.14.13.28.1.44-.07a.08.08 0 0 0-.05-.14.45.45 0 0 1-.23-.14.63.63 0 0 1-.06-.36c0-.03.01-.04.04-.03.17.13.31.1.42-.07.16-.3.37-.56.63-.77.1 0 .15-.04.16-.11a.97.97 0 0 1-.21-.29c-.05-.1-.02-.23-.03-.35a.24.24 0 0 1 .06-.18.23.23 0 0 1 .17-.08h.25a.25.25 0 0 1 .23.15c.05.1.03.18-.05.26H5L5 5.03a.04.04 0 0 0-.01.04l.01.02c.12.1.25.15.38.15.07-.09-.1-.26-.1-.34.02-.1 0-.18.05-.25a.78.78 0 0 0 .1-.2c0-.04.03-.05.07-.04l.04.01c.03 0 .04.03.05.06l.03.15c-.03.1.01.17.13.21.07-.1.16-.14.28-.11.04 0 .06.03.05.08.05.19.4.4.6.34.03 0 .03-.03.02-.05-.03-.1-.35-.31-.43-.25a.7.7 0 0 1 0-.23c.08-.07.17-.1.24-.07l.21.03c.03 0 .05-.02.07-.04a.2.2 0 0 0 .02-.1l-.01-.04a.43.43 0 0 0 .06-.15.07.07 0 0 1 .05-.05.07.07 0 0 1 .07.03c.06.08.12.14.2.19ZM6.9 5.5h-.03c-.13-.01-.23.03-.3.13a.2.2 0 0 0-.08.05.05.05 0 0 0 .01.07h1.23c.08 0 .1-.01.03-.06a.66.66 0 0 0-.12-.07.98.98 0 0 0-.68-.16c-.02 0-.03.02-.06.05Zm3.41.22.03.03a79.35 79.35 0 0 0 1.22 0l.02-.02a.06.06 0 0 0 0-.06c0-.03-.04-.04-.09-.04-.05-.1-.15-.14-.3-.13-.03 0-.06 0-.08-.02-.21-.1-.57.07-.77.16-.03 0-.04.03-.05.07v.01a.01.01 0 0 0 .01 0h.01ZM5.45 5.7c-.08.05-.07.07.02.07l.64-.04c-.02-.1-.05-.15-.09-.15a.94.94 0 0 0-.57.12Zm6.53-.04-.03.04c-.02.03-.01.05.03.05l.73.01c-.02-.14-.68-.23-.73-.1Zm-6.66 5.29v1.53c0 .08.02.15.05.2a4.22 4.22 0 0 0 7.33-.03.17.17 0 0 0 .03-.09V6l-.01-.03H5.34L5.33 6l-.02 4.9v.02l.01.03Z" fill="#020201"/><path d="m9.07 4.44.11.1.15.14c.03.02.03.04 0 .05a.67.67 0 0 1-.58 0c-.03-.01-.04-.03-.01-.06a.7.7 0 0 1 .33-.23Z" fill="#020201"/><path d="M6.62 4.73a.04.04 0 0 0 .02.04l.28.16A.07.07 0 0 0 7 4.92l.01-.03A.44.44 0 0 0 7 4.62c-.07-.18-.04-.2.1-.08.16.13.14.32.21.5l.03.02h.05l.01-.02v-.02a.42.42 0 0 1 .11-.43.05.05 0 0 1 .05-.01.05.05 0 0 1 .04.04.9.9 0 0 0 .5.7 12.71 12.71 0 0 1 .65.37l-.02.03c0 .02-.02.02-.04.01l-.26-.17c-.05-.03-.1-.03-.14.02-.02.02-.04.02-.07.01l-.22-.1h-.02l-.02.03v.04l.15.1c.05.03.04.04-.01.03a.33.33 0 0 1-.1-.03c-.53-.29-1.23-.52-1.66 0a.05.05 0 0 1-.07 0 .15.15 0 0 1-.04-.14c0-.06-.02-.1-.09-.1a2.8 2.8 0 0 0-1.12.31c-.28.14-.52.55-.7.81-.15.21-.6.5-.81.15-.04-.05-.02-.07.03-.08l.2-.01c.04 0 .05.02.03.05v.06c.01.03.03.03.06.02.22-.1.39-.25.5-.46l-.01-.02-.02-.02a.03.03 0 0 0-.03-.01.03.03 0 0 0-.02.01c-.1.14-.22.26-.36.35a.12.12 0 0 1-.07.02c-.04 0-.05-.02-.02-.05.32-.34.56-.75.98-.97a.06.06 0 0 0 .04-.04.06.06 0 0 0-.02-.05c-.16-.17-.33-.4-.23-.64.04-.1.1-.14.2-.12h.04c.1.01.13.06.09.16-.07.16-.03.28.13.37.15.08.31.05.47.05a.07.07 0 0 0 .06-.03.08.08 0 0 0 .01-.07 2.1 2.1 0 0 1-.08-.3c-.03-.2 0-.2.1-.04l.08.12c.07.09.14.08.2-.02.03-.04.07-.05.11-.01.27.2.54.3.84.29.18-.01.2-.08.06-.2a3.3 3.3 0 0 1-.37-.34c-.03-.03-.03-.05.02-.06.04-.01.09 0 .13.03.02 0 .01.01 0 .01l-.03.04ZM13.29 5.58c.19.1.36.2.49.38.15.2.3.38.44.54.07.09.06.1-.04.06a.8.8 0 0 1-.34-.31c-.01-.03-.03-.03-.06-.02h-.02v.03c.1.22.26.37.47.47a.05.05 0 0 0 .06-.01c.01-.02.02-.03 0-.05a.04.04 0 0 1 0-.04.04.04 0 0 1 .04-.02.5.5 0 0 1 .17 0 .05.05 0 0 1 .04.02.05.05 0 0 1 0 .05c-.04.13-.18.22-.31.17-.22-.08-.36-.16-.41-.24-.16-.2-.31-.42-.47-.64-.26-.37-1.03-.53-1.45-.54-.02 0-.04.02-.05.04l-.01.07c0 .14-.05.16-.15.06-.2-.21-.47-.29-.8-.23-.3.05-.6.16-.89.33h-.03l-.02-.01v-.02l.14-.12c.03-.03.03-.05-.02-.05a.2.2 0 0 0-.16.06.09.09 0 0 1-.1.02.21.21 0 0 1-.05-.02.08.08 0 0 0-.1 0l-.27.18h-.03l-.02-.02V5.7c.15-.12.3-.21.48-.28.32-.14.6-.41.66-.77 0-.06.04-.08.1-.04l.01.02c.03.02.05.04.06.07a.2.2 0 0 1 .01.1 1.09 1.09 0 0 0 .02.25.05.05 0 0 0 .04.02c.04 0 .06-.03.07-.07.02-.16.06-.39.2-.48.12-.08.15-.05.1.09a.56.56 0 0 0-.05.27.08.08 0 0 0 .04.06.07.07 0 0 0 .08 0l.23-.15a.15.15 0 0 0 .06-.08c.02-.04.04-.06.08-.05l.02.01.01.03a.05.05 0 0 1-.01.05l-.43.37a.08.08 0 0 0-.02.08c0 .02.01.03.03.04l.04.02c.36.02.67-.08.93-.3.03-.03.06-.02.08 0l.04.05a.11.11 0 0 0 .07.05.1.1 0 0 0 .09-.03c.06-.06.1-.1.12-.16.07-.17.1-.16.08.02 0 .1-.04.2-.1.32a.07.07 0 0 0 .02.1h.03c.2.04.36.02.51-.05.18-.09.22-.21.13-.38a.1.1 0 0 1 0-.08.1.1 0 0 1 .07-.05c.2-.05.33.1.3.3-.03.19-.16.31-.27.45a.06.06 0 0 0 0 .08l.02.01Z" fill="#F86E1B"/><path d="M7.71 5.14a.02.02 0 0 1 0 .01l-.01.01c-.03.02-.07 0-.1-.02A.38.38 0 0 1 7.5 5l-.02-.02a.46.46 0 0 1-.03-.09.32.32 0 0 1 0-.07v-.07l.03-.03h.03l.2.42ZM10.6 4.83c0 .14-.06.26-.2.35h-.04l-.02-.03V5.1a.54.54 0 0 0 .18-.28c.04-.14.06-.14.07 0Z" fill="#020201"/><path d="M3.45 7.31c.07 0 .14 0 .2-.03.16-.06.2-.21.32-.3.09-.06.11-.04.07.06-.08.18-.25.62-.48.6a.22.22 0 0 1-.19-.16l-.01-.03c-.04-.1 0-.14.1-.14ZM14.62 7.3c.09-.01.12.04.1.15 0 .04-.03.07-.06.1-.14.12-.27.12-.37-.02a2.1 2.1 0 0 1-.28-.54c0-.03 0-.04.03-.04a.1.1 0 0 1 .08.03c.17.2.18.36.5.32ZM13.74 7.43c.07-.05.1-.13.11-.24l.02-.03.03-.02c.03 0 .05.01.07.04.07.18-.2.58-.4.54-.2-.04-.3-.17-.33-.39v-.02h.01a.03.03 0 0 1 .03-.01c.2.07.34 0 .42-.23 0-.02.02-.02.04-.01l.03.02v.01l-.07.32c0 .04 0 .05.04.02ZM4.32 7.41a.04.04 0 0 0 .03-.04v-.02a.5.5 0 0 1-.04-.24c0-.06.02-.06.05 0 .08.17.2.24.37.19.09-.03.12 0 .1.1a.55.55 0 0 1-.1.19c-.05.05-.11.1-.18.12-.22.07-.37-.18-.45-.35a.2.2 0 0 1 .01-.22.04.04 0 0 1 .05-.02.04.04 0 0 1 .03.03l.07.23c.01.03.03.04.06.03ZM3.68 8.22l.05-.42c0-.03.02-.06.04-.08l.2-.2c.02-.04.05-.04.07 0l.17.23c.03.04.03.08 0 .12-.13.18-.24.4-.49.4a.05.05 0 0 1-.04-.03v-.02ZM13.84 7.76l.18-.25c.03-.03.05-.04.08 0l.2.21.03.07.07.4a.07.07 0 0 1-.04.08h-.04c-.24-.03-.37-.22-.48-.43a.08.08 0 0 1 0-.08Z" fill="#F86E1B"/><path d="M3.87 7.87c-.04.1-.05.2-.02.21.03.02.09-.06.13-.16.04-.1.05-.2.02-.22-.03 0-.1.07-.13.17ZM14.09 7.92c.04.1.1.18.13.17.03-.01.02-.11-.02-.22-.04-.1-.1-.18-.13-.17-.04.02-.03.11.02.22Z" fill="#020201"/><path d="M6.37 7.25h5.31v4.34c0 1.08-1.4 1.96-2.46 1.96h-.4c-1.05 0-2.45-.88-2.45-1.96V7.25Z"/><path d="M6.55 7.52h4.93v4.02c0 1-1.3 1.82-2.28 1.82h-.37c-.98 0-2.28-.81-2.28-1.82V7.52Z" fill="#F86E1B" fill-opacity=".7"/><path d="M4.13 8.92c-.14.39-.41.66-.83.81-.1.04-.13 0-.1-.1l.12-.24c.06-.1.15-.16.27-.17.37-.03.54-.4.64-.73 0-.03 0-.04-.03-.05h-.04l-.01.01c-.13.3-.23.52-.56.65-.05.02-.1.01-.13-.03a.05.05 0 0 1-.01-.04c0-.05.02-.07.07-.08.3-.05.31-.3.38-.55 0-.03.02-.06.05-.08l.33-.26c.03-.03.05-.02.05.03-.04.42.1.68.4.76.09.03.1.06.03.12l-.1.1a.2.2 0 0 1-.22.04.43.43 0 0 1-.22-.2.05.05 0 0 0-.05-.02.05.05 0 0 0-.04.03ZM13.9 8.44h-.02c-.03 0-.04 0-.04.03.07.32.27.72.63.75.16.01.28.12.36.32v.05c-.02.03-.03.02-.05 0a.42.42 0 0 0-.34-.23.03.03 0 0 0-.03.01v.05l.03.03c.1.05.19.1.27.18.04.03.08.04.12.04h.02c.02.02.01.04 0 .05l-.03.02h-.03c-.4-.13-.7-.4-.86-.8a.06.06 0 0 0-.02-.03.05.05 0 0 0-.06 0l-.02.02a.23.23 0 0 1-.1.13c-.2.1-.35.05-.45-.15a.03.03 0 0 1 0-.03l.01-.01h.02c.3-.08.45-.33.43-.78 0-.03.02-.04.05-.02l.34.26c.02.02.04.04.04.08.03.28.1.5.4.55l.04.03.01.05c0 .04-.02.06-.05.06-.31.03-.58-.38-.65-.65l-.02-.01Z" fill="#F86E1B"/><path d="m7.87 8.7.45-.45c.02-.02.04-.02.06 0l.35.32a.04.04 0 0 1 0 .04v.02l-.47.49a.72.72 0 0 0-.13.19c-.05.1-.17.12-.25.2l-.5.5c-.01.02-.02.02-.04 0l-.38-.4v-.04l.51-.53a.1.1 0 0 0 .03-.08v-.14c0-.04.01-.06.05-.06.13.02.21.05.32-.06ZM10.99 10.17 9.7 8.85a.03.03 0 0 1 0-.04l.28-.3A.03.03 0 0 1 10 8.5a.03.03 0 0 1 .02 0l1.03 1.05a.03.03 0 0 1 .01.02l-.03.58a.03.03 0 0 1-.01.02.03.03 0 0 1-.03 0Z" fill="#E5A712"/><path d="M13.74 8.78h.02v.05l-.01.04a.2.2 0 0 1-.04.05.28.28 0 0 1-.06.04l-.02.01a.28.28 0 0 1-.06.03.2.2 0 0 1-.06 0h-.05a.07.07 0 0 1-.03-.03.01.01 0 0 1 0-.02l.31-.17ZM4.65 8.95v.01c0 .02-.01.03-.02.03a.12.12 0 0 1-.05.02h-.06a.32.32 0 0 1-.06-.03h-.02a.28.28 0 0 1-.1-.08c-.03-.03-.03-.06-.02-.09h.01l.32.14Z" fill="#020201"/><path d="M4.42 9.32c-.04.25.03.53.28.64a.08.08 0 0 1 .04.06.08.08 0 0 1-.03.08c-.2.15-.45-.02-.56-.21-.14-.26-.12-.5.05-.7.02-.02.04-.02.07 0l.12.07c.02.01.03.03.03.06ZM13.87 9.2c.14.19.17.37.1.54-.1.28-.28.5-.6.38a.08.08 0 0 1-.05-.08.08.08 0 0 1 .04-.07c.23-.13.32-.33.29-.61v-.07a.25.25 0 0 1 .15-.1c.03-.02.06 0 .07.02Z" fill="#F86E1B"/><path d="M8.22 9.4c0-.05.02-.1.04-.15.01-.01.02-.02.03-.01v.02l2.61 2.68a.05.05 0 0 1 0 .07l-.24.27c-.02.03-.05.03-.07 0L8.01 9.57a.03.03 0 0 1 0-.03.03.03 0 0 1 .01-.02l.16-.05c.02 0 .04-.02.04-.05Z" fill="#E5A712"/><path d="M3.3 9.69a.02.02 0 0 1-.01 0 .01.01 0 0 1-.01 0v-.01a.06.06 0 0 1-.01-.04c0-.02 0-.04.02-.06a.49.49 0 0 1 .1-.12l.03-.02a.48.48 0 0 1 .07-.05.32.32 0 0 1 .08-.03h.05c.02 0 .03 0 .04.02a.02.02 0 0 1 0 .02l-.36.29Z" fill="#020201"/><path d="m10.18 9.55-.69.74a.03.03 0 0 1-.02 0h-.02l-.2-.2a.03.03 0 0 1 0-.05l.72-.69a.03.03 0 0 1 .04 0l.16.16.01.02v.02Z" fill="#E5A712"/><path d="M3.61 10.24a.04.04 0 0 0 0-.06h-.06a.57.57 0 0 0-.08.14h-.03a.97.97 0 0 1 0-.41c0-.04.02-.07.05-.08l.38-.23a.04.04 0 0 1 .03 0 .04.04 0 0 1 .03.02c.06.22.12.41.28.57.02.02.03.05.03.08.02.31.16.67.52.61.04 0 .05.01.02.05-.1.15-.24.21-.4.17-.41-.1-.54-.56-.5-.94 0-.04-.02-.06-.06-.06H3.8l-.12.27c-.02.04-.04.04-.06 0a.12.12 0 0 1 0-.13ZM14.18 10.12c0 .3.04.53-.18.78-.2.23-.4.27-.64.13a.13.13 0 0 1-.06-.1c-.01-.03 0-.04.03-.04.37.04.46-.36.5-.64 0-.03.01-.05.03-.08.13-.14.22-.32.27-.52a.06.06 0 0 1 .03-.04.06.06 0 0 1 .05 0l.36.22c.03.01.05.04.06.08.03.12.03.25 0 .4l-.01.01h-.04l-.01-.01a.16.16 0 0 0-.08-.15c-.03-.01-.04 0-.05.02 0 .06 0 .12.03.17v.02l-.03.01h-.03c-.07-.1-.08-.23-.17-.3-.04-.02-.06-.01-.06.04Z" fill="#F86E1B"/><path d="M4.31 9.83c.05.1.1.16.12.14.02 0 0-.09-.04-.18-.05-.09-.1-.15-.12-.14-.02.01 0 .1.04.18ZM13.67 9.8c-.04.08-.05.16-.03.17.02.01.07-.05.11-.14.04-.1.06-.17.04-.18-.03-.01-.08.05-.12.14Z" fill="#020201"/><path d="m8.76 10.51-1.54 1.53a.03.03 0 0 0 0 .04l.24.25h.04l1.54-1.52a.03.03 0 0 0 0-.05l-.24-.25a.03.03 0 0 0-.04 0Z" fill="#E5A712"/><path d="M4.35 11.75c.03.02.06.03.1 0 .07.26.06.5-.02.75a.1.1 0 0 1-.05.06l-.14.08c-.03.01-.04 0-.03-.03 0-.02 0-.04-.02-.05-.05-.03-.07-.01-.07.04l-.01.1c-.03.03-.05.03-.06-.01l-.38-1.3c0-.03.01-.05.03-.04 0 0 0 .02.02.03.02.01.04 0 .04-.03l.08-.4v-.01h.03l.03.58a.04.04 0 0 0 .02.03l.01.01h.05l.01-.03V11.11l.02-.02a.03.03 0 0 1 .03 0l.03.04a.13.13 0 0 1 .04.08l.03.46.01.01h.02c.02 0 .03 0 .03-.02l.03-.33c0-.05.02-.05.04 0 .04.12.06.24.04.36 0 .02 0 .03.02.04l.02.02ZM13.7 11.77a3.1 3.1 0 0 1 .14-.46c.02 0 .03 0 .02.03a.5.5 0 0 0 .04.33l.07-.52a.07.07 0 0 1 .04-.05l.03-.01c.02-.01.03 0 .03.02v.43h.04c.03.01.05 0 .05-.03a6.93 6.93 0 0 0 .03-.6h.02c.02 0 .03.01.03.03a.8.8 0 0 0 .05.37c.05.11.09.2.05.33l-.27.79a1 1 0 0 0-.05.28c0 .06-.02.06-.04.01a.32.32 0 0 1-.04-.1c0-.04-.03-.05-.06-.02h-.07a.1.1 0 0 0-.1-.03c-.03.01-.05 0-.06-.03-.1-.27-.11-.53-.04-.79 0 .02.02.03.04.03l.04-.01ZM14.23 12.79c-.05.06-.07.14-.03.17.04.03.11 0 .16-.06.06-.06.07-.14.03-.17-.03-.03-.1 0-.16.06ZM3.69 12.9c.05.07.12.1.16.06.04-.03.03-.11-.02-.18-.05-.06-.12-.09-.16-.05-.04.03-.03.1.02.17Z" fill="#F86E1B"/></svg>