<!-- by TradingView --><svg xmlns="http://www.w3.org/2000/svg" width="18" height="18"><path fill="#F0F3FA" d="M0 0h18v18H0z"/><path d="M4.93 5.13c-.62.18-.86.66-.9.88l6.38 6.9c.6-.23 1.74-.86 1.63-1.57-.14-.88-1.52-.79-2.25-.85-.73-.05-1.01-.38-1.03-.8-.03-.43.45-1.27.76-1.77s.6-1.01.55-1.39c-.04-.3-.34-.53-.48-.61A36.51 36.51 0 007.4 4.69c-.26-.1-.6-.04-.73 0l-1.74.44z" fill="#017DC5"/><path d="M7.74 7.21l1.97-.64c.1.33-.08.7-.17.85-.24.4-.75 1.3-.86 1.57-.14.33-.27.87.07 1.3.28.36.9.41 1.17.4.59-.04 1.63-.1 1.94.5.32.6-.4 1.22-.79 1.45l-2.4 1.29c-.85.29-1.19-.38-1.25-.73l-.81-4.03C6.45 8.04 7.3 7.4 7.74 7.2z" fill="#ACD5F1"/><path d="M8.38 4.26c-.28.07-.5.22-.57.28.22-.14.49-.08.6-.04l2.36 1.2c.43.22.54.49.54.73s-.1.6-.48 1.26a3.17 3.17 0 00-.49 1.26c0 .22.06.62.98.71.92.1 1.33.56 1.35 1.1.02.42-.19.84-.3.99l.28-.04c.42-1.4 1.28-4.38 1.34-5.11.07-.73-.48-1.05-.78-1.18L9.93 4.04c-.2-.07-.5-.03-.63 0l-.92.22z" fill="#017DC5"/><path d="M12.77 5.64L11.53 6c.2.46-.02.98-.16 1.18-.28.42-.83 1.38-.8 1.83.03.45.78.53 1.13.58.35.05 1.04.36 1.05 1.13.01.78-.62 1.31-.94 1.48.28-.14.92-.48 1.25-.67.34-.19.45-.62.46-.8l.43-3.66c.06-.45.1-.86-.29-1.23a.96.96 0 00-.89-.21z" fill="#ACD5F1"/><path d="M7.24 13.47c.31.47.85.54 1.14.53a.95.95 0 01-.94-.74l-.8-3.93c-.27-1.28.7-1.97 1.21-2.16-.5.09-.86-.15-1-.27l-1.7-1.33a.75.75 0 00-.96.11c-.25.28-.2.71-.15.88l1.01 3.54c.08.26.28.6.37.74l1.82 2.63z" fill="#77B6E2"/></svg>