<!-- by TradingView --><svg width="18" height="18" viewBox="0 0 18 18" xmlns="http://www.w3.org/2000/svg"><path fill="#F0F3FA" d="M0 0h18v18H0z"/><path d="M3.2 7.47a5.65 5.65 0 0 1 .53-1.33 6.3 6.3 0 0 1 1.36-1.68 6.09 6.09 0 0 1 4.97-1.37 6.07 6.07 0 0 1 4.04 2.73 6.84 6.84 0 0 1 .53 1.06 5.8 5.8 0 0 1 .35 2.65 5.53 5.53 0 0 1-.92 2.72 6 6 0 0 1-6.91 2.45 6.1 6.1 0 0 1-3.7-3.4 5.85 5.85 0 0 1-.25-3.83Z" fill="#50AEDD"/><path fill-rule="evenodd" d="M4.06 8.56v.1a4.87 4.87 0 0 0 2.03 4.37 5.37 5.37 0 0 0 2.24.92h.05l.38.04a4.91 4.91 0 0 0 4.34-2.2 4.98 4.98 0 0 0 .4-4.81 4.94 4.94 0 0 0-.38-.68l-.09-.13a4.63 4.63 0 0 0-1.51-1.4 5.03 5.03 0 0 0-5.13.05A5.42 5.42 0 0 0 5.1 5.97a4.95 4.95 0 0 0-1.04 2.59Zm.25-.19a3.5 3.5 0 0 0-.04.5 3.24 3.24 0 0 0 .02.66l.04.28a4.67 4.67 0 0 0 1.48 2.7 4.73 4.73 0 0 0 5.45.67 4.9 4.9 0 0 0 2.32-2.99 5.58 5.58 0 0 0 .13-.83 5.2 5.2 0 0 0-.36-2.18l-.22-.45-.02-.03a5.46 5.46 0 0 0-1.15-1.34A4.91 4.91 0 0 0 9.4 4.33a4.96 4.96 0 0 0-3 .77A4.7 4.7 0 0 0 4.3 8.36Z" fill="#D23554"/><path d="m8.9 5.24-.2-.14v-.01h.25l.02-.02.08-.26h.01a72.68 72.68 0 0 1 .11.27h.23c.02 0 .02 0 0 .01l-.19.15v.02l.1.25c0 .02 0 .03-.02.01l-.21-.16h-.03a20.6 20.6 0 0 0-.23.15l.1-.25-.01-.02ZM7.5 5.65H7.5l-.14.21-.02-.23h-.01l-.24-.03c-.02 0-.02-.01 0-.02l.21-.08c.02 0 .03-.02.02-.03l-.05-.22c0-.02 0-.02.01 0l.17.16h.04a3.76 3.76 0 0 1 .23-.1.96.96 0 0 0-.13.2v.02l.16.15v.01l-.24-.04ZM10.74 5.63v.24c-.01.01-.01.02-.02 0l-.11-.2H10.52a3.51 3.51 0 0 0-.18.02l.15-.15v-.02l-.13-.18c-.02-.03-.02-.03.01-.01l.22.1h.03l.15-.17h.01l-.02.22.01.03.23.1c.01 0 .01 0 0 0l-.07.01-.19.01ZM11.68 6.46l.01-.01a1.9 1.9 0 0 0-.06-.27c0-.02 0-.02.02 0 .02 0 .05.04.08.09a.98.98 0 0 0 .1.1c.01.02.02.02.03.01l.23-.12h.01c0 .02 0 .04-.02.06l-.02.03-.08.14v.05l.17.17v.01l-.25-.05h-.02l-.13.23h-.02l-.01-.25-.02-.02-.25-.05c-.01 0-.01 0 0 0l.23-.12ZM6.28 6.46l.24.1.01.01-.25.05c-.02 0-.02.01-.02.02l-.02.26-.14-.23h-.02a5.68 5.68 0 0 0-.25.04L6 6.53v-.04l-.13-.21c-.01-.02 0-.03.01-.01l.23.11h.02a9.01 9.01 0 0 0 .2-.2l-.05.26v.02Z" fill="#ECE232"/><path d="M9.2 7.5c.02 0 .02-.02.02-.04a.4.4 0 0 0-.17-.22.36.36 0 0 0-.1-.05 2.27 2.27 0 0 1-.17-.04 26.26 26.26 0 0 1-.8-.15 10361.63 10361.63 0 0 0-1.05-.15.91.91 0 0 1-.18-.02c-.03 0-.03-.02-.03-.04 0-.01.02-.03.04-.03h.14a376.72 376.72 0 0 0 3.16.02c.12.02.23.06.31.14.06.05.1.12.12.2a.61.61 0 0 1-.09.47l-.01.02.01.03h.01a4.63 4.63 0 0 1 .34.22c.06.05.1.11.11.18.02.07.01.15-.02.22a.37.37 0 0 1-.15.17 1.8 1.8 0 0 1-.21.11.73.73 0 0 1-.26.06l-.13.01a5.96 5.96 0 0 1-.73 0 264.75 264.75 0 0 1-1.34 0c-.03 0-.04-.02-.05-.04l.07-.02c.05-.01.04-.02 0-.02H8l.08-.02h.05a18.67 18.67 0 0 1 .7-.12 5.14 5.14 0 0 0 .53-.07.74.74 0 0 0 .23-.09.2.2 0 0 0 .06-.06c.03-.06 0-.1-.08-.15a.53.53 0 0 0-.18-.05 2.95 2.95 0 0 0-.98.18 8.1 8.1 0 0 1-.29.11c-.02.01-.04 0-.06-.02a33.82 33.82 0 0 0-.56-.49l.09-.02h.22a10.9 10.9 0 0 0 1-.04l.3-.1a.21.21 0 0 0 .1-.08Z" fill="#334393"/><path d="M11.15 7.27c.04.03.06.08.06.14v.17l-.04.07-.02.02a.2.2 0 0 1-.08.06.3.3 0 0 1-.24.01.25.25 0 0 1-.12-.09.57.57 0 0 1-.05-.08.27.27 0 0 1-.02-.14c0-.05.02-.1.04-.14a.3.3 0 0 1 .1-.09.22.22 0 0 1 .09-.02h.04c.05-.02.1 0 .16.03.03.01.06.03.08.06ZM6.43 7.39c.03.01.04.04.06.07a3.88 3.88 0 0 1 .2.52 2.35 2.35 0 0 0 .07.2 4.28 4.28 0 0 0 .28.6l.1.11c.1.1.2.16.3.2.07.02.13.03.2 0a.37.37 0 0 0 .18-.1.68.68 0 0 0 .14-.17h3.33c.07 0 .1.01.11.04v.05a1.78 1.78 0 0 1-.17.6 2.52 2.52 0 0 1-.23.45 6.75 6.75 0 0 1-.33.47l-.2.2a2.4 2.4 0 0 1-2.4.48 1.49 1.49 0 0 1-.34-.2 2.46 2.46 0 0 1-.68-.76 2.58 2.58 0 0 1-.2-.4 5.02 5.02 0 0 1-.12-.39.4.4 0 0 1-.04-.12l-.02-.04a5.38 5.38 0 0 1-.29-1.54v-.25c0-.03.01-.05.04-.05v.02h.01Z" fill="#334393"/><path d="m3.37 9.05-.06-.04v-.02l.14-.03c.02 0 .03-.01.04-.03l.05-.13h.02l.01.02.06.12c.01.02.03.03.06.03a1.8 1.8 0 0 1 .12.02V9a.6.6 0 0 0-.1.1c-.01.02-.02.04 0 .07a.6.6 0 0 1 .02.11v.01H3.7l-.12-.07h-.03l-.15.07H3.4l.03-.16V9.1l-.05-.05h-.01ZM14.43 8.8l.01.02.06.12a7.47 7.47 0 0 0 .18.06l-.1.1a.05.05 0 0 0-.01.04l.02.15a.78.78 0 0 1-.13-.06h-.07a.78.78 0 0 1-.13.06l.02-.15-.01-.05-.1-.09V9h.01a6.38 6.38 0 0 0 .17-.05 3.35 3.35 0 0 0 .08-.14Z" fill="#D23554"/><path d="m8.04 8.86.27.02a6.33 6.33 0 0 0 .48-.01 290.86 290.86 0 0 0 2.67.01c0 .04-.01.08-.03.1 0 .01 0 .01 0 0v-.05c0-.02 0-.03-.03-.03H8.11c-.02 0-.04 0-.06.02a.52.52 0 0 0-.07.08c0-.05.03-.1.06-.14Z" fill="#50AEDD"/><path d="m9.86 9.26.04.01a5.17 5.17 0 0 1-.47.66 3.55 3.55 0 0 1-.43.36l-.03.02-.17.1a1.34 1.34 0 0 1-.58.08c-.17-.03-.33-.1-.48-.2h-.02v.02l-.02-.02a18.04 18.04 0 0 0-.14-.2.56.56 0 0 1-.15-.22v-.01h.01a1.92 1.92 0 0 0 .14.14v-.02l.1.06v-.01a.42.42 0 0 0-.08-.07.6.6 0 0 1-.06-.05c.05.03.1.07.18.1.2.1.41.1.64 0a5.1 5.1 0 0 0 .24-.13 1.74 1.74 0 0 0 .5-.6l.06-.01h.08a8.16 8.16 0 0 0 .63 0Z" fill="#F02E32"/><path d="m9.08 9.27-.04.07L9 9.4a1.78 1.78 0 0 1-.34.42.5.5 0 0 1-.08.06l-.04.02a5.16 5.16 0 0 1-.2.1c-.23.1-.44.1-.64.01a11.93 11.93 0 0 0-.37-.35c0-.02 0-.02.02 0 .08.07.18.1.29.12.1.02.2.01.28 0 .15-.04.27-.1.36-.2.09-.07.17-.17.25-.29l.03-.02a45.44 45.44 0 0 0 .52 0ZM7.72 10.3h.02c.15.1.31.16.48.2a1.34 1.34 0 0 0 .58-.09l.17-.1s.02 0 .03-.02a1.76 1.76 0 0 0 .43-.36l.14-.16c.12-.16.24-.33.34-.5h.7v.01l-.05.13c-.04.1-.1.2-.16.3a4.4 4.4 0 0 1-.32.44 1.9 1.9 0 0 1-1.52.6 1.64 1.64 0 0 1-.5-.18.74.74 0 0 1-.07-.05 1.05 1.05 0 0 0-.07-.05 5.55 5.55 0 0 1-.2-.16Z" fill="#50AEDD"/><path d="m7.03 12.44.04-.03c.04-.01.06-.03.06-.06v-.08l-.02-.04.03-.07.04-.03v-.02a.9.9 0 0 0-.02-.04.6.6 0 0 1-.03-.07.36.36 0 0 1 .02-.3.46.46 0 0 1 .23-.19c.14-.06.29-.07.45-.02.02 0 .04 0 .06-.02h.09a.22.22 0 0 1 .1.16c.01.08.04.17.08.24v.08l-.01.03c0 .01-.01.02-.03.02h-.07v-.01h-.02l.1.1.03.01h.12l.09-.01a.42.42 0 0 1 .32.03l.03.01.01-.01h.01l.23-.04c.04 0 .07 0 .1.03h.03l.08-.02a.4.4 0 0 1 .22.01l.04.01.11-.01.16-.02.07.03h.02l.1-.02c.1-.02.2 0 .27.05h.03a.1.1 0 0 1 .03-.03h.05l.13-.02.07-.01h.02l.09-.01c.1.02.17.05.2.11s.06.13.07.2c.02.04.03.12.04.22a1.04 1.04 0 0 0 .03.1c.03.02.04.06.01.1a.21.21 0 0 1-.16.12c-.08.01-.14 0-.18-.03a.04.04 0 0 0-.04 0 1 1 0 0 1-.09.02l-.08.01a525.76 525.76 0 0 0-1.72 0 .23.23 0 0 1-.15-.04H8.5a.53.53 0 0 1-.15.04.28.28 0 0 1-.26-.13h-.03a.42.42 0 0 1-.17.1.82.82 0 0 1-.37.03 3.16 3.16 0 0 0-.2-.02l-.03.07c-.03.02-.05.03-.08 0a.15.15 0 0 1-.06-.06 2.48 2.48 0 0 1-.07-.19.42.42 0 0 0-.07-.13.09.09 0 0 1-.02-.07.2.2 0 0 1 .04-.08Z" fill="#ECE232"/><path d="m7.9 11.6.03.01.03-.01h.01c.02.06.04.1.04.15l.03.09-.06.03h-.02a.4.4 0 0 0-.24-.21.35.35 0 0 0-.17-.02.27.27 0 0 0-.16.07l-.02.08c0 .06.04.1.1.12l.29.08c.1.04.18.06.21.09.07.04.12.1.15.2a.4.4 0 0 1 0 .23.5.5 0 0 1-.2.27.48.48 0 0 1-.17.06.65.65 0 0 1-.2 0 7.57 7.57 0 0 1-.25-.03c-.02 0-.03.03-.05.06l-.01.01a188.55 188.55 0 0 0-.15-.34v-.01l.1-.08h.03c.03.07.07.13.12.2a.2.2 0 0 0 .07.05c.05.03.1.04.16.05a.4.4 0 0 0 .16 0c.12-.04.19-.11.21-.24.03-.16-.06-.26-.25-.3a5.6 5.6 0 0 0-.35-.1.23.23 0 0 1-.11-.11.28.28 0 0 1 .06-.33c.1-.09.21-.13.33-.13.1 0 .2.02.29.07Z" fill="#FEFEFE"/><path d="m7.87 11.92-.1-.02a.53.53 0 0 0-.07-.02.76.76 0 0 1-.12-.04.24.24 0 0 1-.1-.06c-.02 0-.01-.02 0-.02a.22.22 0 0 1 .12-.04l.13.03c.07.03.12.09.15.16v.01Z" fill="#50AEDD"/><path d="M8.8 12.76v.01a.28.28 0 0 1-.15.05c-.03 0-.05-.02-.07-.05v-.01l.04-.1H8.6a.32.32 0 0 1-.25.17c-.05 0-.1 0-.14-.04a.2.2 0 0 1-.06-.14c0-.07.03-.12.1-.16a3.13 3.13 0 0 1 .3-.16c.02-.02.02-.04 0-.06a.1.1 0 0 0-.05-.04.09.09 0 0 0-.06 0c-.02 0-.04.02-.05.05h-.01a.15.15 0 0 1-.03-.05v-.02c.01-.03.04-.05.1-.05h.12c.05.01.09.04.1.1a.77.77 0 0 1 .07.38v.07c0 .04.02.06.06.05ZM10.68 12.66h-.02v.03c-.01.02-.04.05-.09.08a.3.3 0 0 1-.21.06.15.15 0 0 1-.1-.06.22.22 0 0 1-.05-.12c0-.03 0-.06.04-.1a.27.27 0 0 1 .08-.07l.28-.13c.01 0 .02-.01.01-.03a.12.12 0 0 0-.04-.08c-.03-.02-.06-.02-.1 0a.05.05 0 0 0-.02.04h-.01a.06.06 0 0 1-.03-.04c0-.03 0-.06.03-.07l.07-.02c.1 0 .18.03.22.1.02.05.04.12.05.21v.02c.02.06.02.13.01.22 0 .04.02.07.07.07v.02a.59.59 0 0 1-.17.03c-.02 0-.04-.01-.05-.03l.02-.08v-.05ZM9.02 12.27a.5.5 0 0 1 .1-.07.31.31 0 0 1 .12-.03c.07 0 .11 0 .14.02a.2.2 0 0 1 .05.09l.01.1v.36c0 .02.02.03.04.05l.02.02h-.25s-.01 0 0 0a.14.14 0 0 0 .03-.04v-.38a.18.18 0 0 0-.03-.1c-.02-.04-.05-.05-.1-.04-.08.02-.12.08-.12.17v.3c0 .03 0 .06.03.08v.01h-.2c-.01 0-.02 0 0 0l.03-.06a8.2 8.2 0 0 0-.02-.52h-.02l-.04-.02v-.02l.17-.03H9l.01.03v.08h.01ZM9.74 12.27l.02-.02a.35.35 0 0 1 .08-.05c.05-.03.1-.04.16-.03.06 0 .1.02.13.08l.01.08V12.47a3.91 3.91 0 0 0 .02.3l.03.01.02.02-.01.01a4.42 4.42 0 0 0-.25 0c.03-.02.04-.05.04-.09a35.42 35.42 0 0 0 0-.39.1.1 0 0 0-.05-.07.08.08 0 0 0-.08-.01.24.24 0 0 0-.1.06.15.15 0 0 0-.03.1v.33c0 .02 0 .04.03.06v.02H9.54v-.01c.02-.02.03-.03.03-.05v-.09l.01-.38c0-.04-.02-.06-.06-.07l-.01-.01v-.02a4.42 4.42 0 0 1 .2-.01v.09h.02Z" fill="#FEFEFE"/><path d="M10.3 12.2c.05.03.08.06.1.1.03.02.04.04.03.05-.01.01-.03.01-.07 0a.54.54 0 0 1-.11-.07l.05-.08ZM8.2 12.29l.02-.08c.01-.02.02-.02.03 0l.1.11c.02.02.02.03 0 .03h-.06a.29.29 0 0 1-.04-.03.2.2 0 0 0-.05-.03Z" fill="#FEFEFE"/><path d="m7.67 12.67-.14-.01a.26.26 0 0 1-.15-.11l-.1-.19a2.08 2.08 0 0 0-.03-.07.14.14 0 0 1 0-.05v-.01c.01-.03.04-.04.08-.02l.08.02a4.47 4.47 0 0 1 .37.12c.03.02.05.05.05.09.01.06 0 .11-.02.15-.03.05-.08.07-.14.08ZM9.87 12.35h-.02a.03.03 0 0 0-.03.03v.34c0 .01 0 .02.02.02h.03c.01 0 .02 0 .03-.02v-.34a.03.03 0 0 0-.03-.03ZM9.16 12.35a.04.04 0 0 0-.05.04v.32c0 .02.02.04.04.04.03 0 .04-.02.05-.04v-.32a.04.04 0 0 0-.04-.04Z" fill="#50AEDD"/><path d="M10.41 12.7c0-.04 0-.09.04-.14a.34.34 0 0 1 .1-.1h.03l.01.01v.01c0 .1 0 .16-.03.19a.16.16 0 0 1-.12.05c-.01 0-.03 0-.03-.02ZM8.35 12.7c-.01-.04 0-.09.04-.14a.25.25 0 0 1 .1-.1c.02 0 .02 0 .03.02.02.06.02.12-.02.17a.15.15 0 0 1-.11.07c-.02 0-.03 0-.04-.02Z" fill="#ECE232"/><path d="M10.5 12.66h-.05v-.01c.02-.06.06-.1.1-.13 0-.01 0 0 0 0a2.03 2.03 0 0 0-.01.1.1.1 0 0 1-.05.04Z" fill="#50AEDD"/><path d="M8.42 12.58c-.03.04-.04.08-.02.09l.07-.05c.03-.04.04-.08.02-.1-.01 0-.04.02-.07.06Z" fill="#334393"/><path opacity=".3" d="M3.38 9.75a5.5 5.5 0 0 0 2.29 3.79 6.16 6.16 0 0 0 2.57 1.03h.06l.43.05a5.67 5.67 0 0 0 5.89-4.87h-.52a4.35 4.35 0 0 1-.1.5 5.22 5.22 0 0 1-2.52 3.23 5.24 5.24 0 0 1-1.82.6A5.16 5.16 0 0 1 3.9 9.74h-.52Zm10.73-1.5v-.02a29.1 29.1 0 0 0-.04-.24 5.25 5.25 0 0 0-.56-1.5l-.01-.02A5.9 5.9 0 0 0 12.24 5a5.36 5.36 0 0 0-2.8-1.12 5.46 5.46 0 0 0-3.28.83A5.12 5.12 0 0 0 3.9 8.25h-.52l.02-.12A5.2 5.2 0 0 1 4.55 5.5a6.2 6.2 0 0 1 1.48-1.3 5.26 5.26 0 0 1 1.65-.68 5.68 5.68 0 0 1 5.94 2.2l.1.16a5.59 5.59 0 0 1 .9 2.36h-.51Z" fill="#334393"/></svg>