<!-- by TradingView --><svg width="18" height="18" viewBox="0 0 18 18" xmlns="http://www.w3.org/2000/svg"><path fill="url(#a)" d="M0 0h18v18H0z"/><path d="M8.37 8.83v.02l2.73-.03.12-.12 2.74-3.58.04-.1L14 5l-2.7.02-.02.02-.1.16-2.8 3.63Zm-3.92-.01-.06.05h-.32l-.02-.02v-.02l2.88-3.75.04-.03h.36v.06l-.06.07-2.82 3.64Zm2.49.03h.99l.03-.03 2.9-3.77v-.02H9.81l-.08.06-.05.1-2.79 3.6v.05h.04Zm-.72-.04v.03l-.16.01h-.6V8.8l2.9-3.74.13-.05h.56l.04.02-.03.08-2.84 3.7ZM11.02 13h.01l.02-.04.08-.07.02-.05 2.77-3.57.04-.07V9.2l-2.67-.01-.05.05-.04.02-2.8 3.63-.02.04-.04.04v.03H11.03Zm-6.94 0 .29-.01.01-.04.09-.08 2.78-3.6v-.03l-.03-.04h-.26l-.07.03-2.8 3.62-.03.02-.02.04-.04.04v.03l.08.01Zm3.94-.16-.15.15H6.86l-.01-.05.04-.08L9.72 9.2l1.06-.03v.05l-2.76 3.6ZM5.45 13h.7l.07-.1v-.02l2.8-3.66-.26-.01h-.41l-.07.04-2.81 3.63v.02l-.04.05-.01.03v.01l.04.01Z" fill="#fff"/><defs><linearGradient id="a" x1="3.35" y1="3.12" x2="21.9" y2="24.43" gradientUnits="userSpaceOnUse"><stop stop-color="#1A1E21"/><stop offset="1" stop-color="#06060A"/></linearGradient></defs></svg>