<!-- by TradingView --><svg width="18" height="18" viewBox="0 0 18 18" xmlns="http://www.w3.org/2000/svg"><path fill="#F0F3FA" d="M0 0h18v18H0z"/><path d="M9.17 3.24c0-.07-.05-.12-.13-.14h-.07c-.1.03-.16.1-.15.2v.17l-.01.03h-.04l-.19-.08c-.1-.04-.18-.03-.2.04-.02.02-.02.05 0 .08a6.48 6.48 0 0 1 .32.24c.04.04.06.08.05.12 0 .05-.05.07-.12.07H8.4a.09.09 0 0 0-.07.04.06.06 0 0 0-.01.07.2.2 0 0 0 .09.1l.57.3c.04.03.07.03.1 0l.52-.32a.22.22 0 0 0 .08-.11V4a.06.06 0 0 0-.05-.02.91.91 0 0 0-.27-.02c-.03 0-.06 0-.08-.02-.02-.02-.02-.05-.01-.07a.28.28 0 0 1 .09-.12l.27-.21c.04-.03.05-.06.02-.1-.04-.07-.1-.08-.2-.05a.89.89 0 0 0-.2.12h-.03c-.02 0-.02-.01-.02-.02a1.58 1.58 0 0 1-.02-.25ZM7 3.78h-.02l-.09-.01a.77.77 0 0 0-.21-.03c-.08 0-.12.04-.13.12l.01.03a.3.3 0 0 0 .12.06l.06.02c.19.05.3.1.34.16.02.02.03.04.02.06 0 .02-.03.04-.05.05l-.25.09a.06.06 0 0 0-.04.04l.01.05c.03.04.08.06.13.08l.61.16c.04 0 .07 0 .1-.03a15 15 0 0 0 .46-.57c0-.03-.01-.05-.04-.07a.1.1 0 0 0-.08-.01l-.27.07a.1.1 0 0 1-.07 0A.07.07 0 0 1 7.57 4a.13.13 0 0 1 .02-.12l.17-.25c.04-.07.04-.12-.02-.16-.06-.04-.12-.03-.18.02a14 14 0 0 1-.2.16.04.04 0 0 1-.03-.02l-.08-.2c-.04-.1-.11-.12-.22-.1l-.01.01c-.1.02-.13.08-.1.16l.09.26v.02Zm4.02.01c.02 0 .05 0 .09-.02l.21-.03c.08.01.12.05.13.13l-.01.03a.3.3 0 0 1-.12.06l-.06.02c-.19.05-.3.1-.35.16a.06.06 0 0 0 0 .06c0 .02.01.04.04.05l.25.09c.02 0 .03.02.04.04l-.01.05a.28.28 0 0 1-.13.08l-.61.15c-.04.01-.07 0-.1-.02a14.93 14.93 0 0 1-.46-.57c0-.03.01-.05.04-.07a.1.1 0 0 1 .08-.01l.27.07a.1.1 0 0 0 .07 0l.04-.05a.13.13 0 0 0-.02-.13l-.17-.24c-.04-.07-.04-.13.02-.16.06-.04.12-.03.18.02a13.92 13.92 0 0 0 .2.16l.03-.03.08-.2c.04-.08.11-.11.22-.08h.01c.1.02.13.08.1.16l-.09.26v.02h.03Zm-5.3 1-.01.01-.09.02a.74.74 0 0 0-.2.05c-.07.03-.1.08-.06.15 0 .01 0 .02.02.03.04.01.09.02.14.01h.07c.19-.02.32-.02.38.01.03.02.04.03.05.06 0 .02 0 .04-.02.06l-.18.17a.05.05 0 0 0-.02.05c0 .02.02.04.04.04.04.02.1.03.15.03l.63-.08c.04 0 .07-.03.07-.06a12.58 12.58 0 0 0 .14-.68.09.09 0 0 0-.06-.05.1.1 0 0 0-.09.02l-.21.16a.09.09 0 0 1-.06.02l-.06-.03a.13.13 0 0 1-.04-.12l.03-.28c0-.08-.03-.13-.1-.14-.07-.01-.12.01-.15.08a10.58 10.58 0 0 1-.1.22l-.04-.01-.18-.15c-.07-.07-.15-.07-.24 0-.08.06-.08.12-.01.19l.2.2v.02Zm6.57.02.09.01c.1.02.17.03.2.05.07.04.1.09.06.16 0 .01 0 .02-.02.03a.34.34 0 0 1-.14.01h-.07a.89.89 0 0 0-.38.01.07.07 0 0 0-.05.05c0 .03 0 .05.02.06l.18.17c.02.02.03.04.02.06 0 .02-.02.03-.04.04a.31.31 0 0 1-.15.03l-.63-.08c-.04 0-.07-.03-.07-.06a13.45 13.45 0 0 1-.14-.68.09.09 0 0 1 .06-.05.1.1 0 0 1 .09.02l.21.16c.02.01.04.02.06.01.02 0 .04 0 .06-.02a.13.13 0 0 0 .04-.12l-.03-.28c0-.08.03-.13.1-.14.07-.02.12.01.15.08a9.95 9.95 0 0 0 .1.22l.04-.01.18-.15c.07-.07.15-.07.24 0 .08.06.08.12.01.19l-.2.2v.02l.01.01Zm-4.37.06h-.03l-.07-.04a.67.67 0 0 0-.18-.09c-.07-.01-.12.01-.16.08v.03c.01.03.04.06.08.09l.05.04c.14.1.23.18.25.23l-.01.06a.08.08 0 0 1-.06.03l-.26.01a.07.07 0 0 0-.06.03.05.05 0 0 0 0 .05c0 .04.04.08.08.1.05.04.21.15.5.32.02.02.06.02.09 0a17.06 17.06 0 0 0 .64-.38.06.06 0 0 0-.01-.07.09.09 0 0 0-.07-.04l-.28-.01-.05-.02a.06.06 0 0 1-.02-.05c0-.05.02-.08.06-.11l.25-.18c.07-.05.08-.1.05-.15-.04-.05-.1-.06-.17-.03a17.32 17.32 0 0 1-.24.09c-.02-.01-.02-.02-.02-.03v-.21c0-.09-.06-.13-.16-.14H8.1c-.1 0-.14.04-.15.12l-.02.26-.01.01Zm2.19.01.07-.04a.66.66 0 0 1 .18-.09c.07-.01.12.01.16.08v.03a.25.25 0 0 1-.08.09l-.05.03c-.14.1-.23.18-.25.24l.01.06.06.03.26.01c.03 0 .05.01.06.03.01.02.02.03 0 .05a.23.23 0 0 1-.08.1c-.05.04-.21.15-.5.32a.09.09 0 0 1-.09 0 17.7 17.7 0 0 1-.64-.38.06.06 0 0 1 .01-.07.09.09 0 0 1 .07-.04l.28-.01c.02 0 .04-.01.05-.03a.06.06 0 0 0 .02-.04c0-.05-.02-.08-.06-.11l-.25-.18c-.07-.05-.08-.1-.05-.15.04-.05.1-.06.17-.03a18.5 18.5 0 0 0 .24.09c.02-.01.02-.02.02-.03v-.21c0-.09.06-.13.16-.14h.02c.1 0 .14.04.15.12l.02.26.01.01h.03ZM4.89 6.05l-.01.02-.07.04a.64.64 0 0 0-.17.13c-.04.05-.03.1.03.16l.03.01c.05 0 .1-.01.13-.04l.06-.03a.85.85 0 0 1 .36-.12c.03 0 .05.01.07.03.01.02.02.04 0 .06l-.07.22.01.06c.01.02.03.02.06.03.05 0 .1-.02.15-.04l.53-.3c.03-.02.05-.04.04-.08a13.48 13.48 0 0 0-.22-.67.1.1 0 0 0-.08-.02.09.09 0 0 0-.07.05l-.11.22c0 .02-.02.03-.04.04a.1.1 0 0 1-.07 0 .16.16 0 0 1-.1-.1l-.11-.26c-.04-.07-.09-.1-.16-.1-.07.02-.1.06-.09.14a13.1 13.1 0 0 1 .01.23h-.04l-.24-.07c-.1-.03-.17 0-.21.09-.04.09-.02.14.08.18l.29.1v.02Zm8.23.03.07.04c.1.05.15.1.17.12.04.06.03.11-.03.17a.05.05 0 0 1-.03 0 .34.34 0 0 1-.13-.03l-.06-.03a.84.84 0 0 0-.36-.12.08.08 0 0 0-.07.03.06.06 0 0 0 0 .06l.07.22v.06a.07.07 0 0 1-.07.02.3.3 0 0 1-.15-.03l-.53-.3c-.03-.02-.05-.05-.04-.08a12.74 12.74 0 0 1 .22-.67.1.1 0 0 1 .08-.02c.03 0 .05.02.07.05l.11.22c0 .02.02.03.04.04a.1.1 0 0 0 .07 0 .16.16 0 0 0 .1-.1l.11-.26c.04-.07.09-.1.16-.1.07.02.1.06.09.14a9.42 9.42 0 0 0-.01.23h.04l.24-.07c.1-.03.17 0 .21.09.05.08.02.14-.08.18l-.28.1-.02.02.01.02Zm-6.25-.03-.02.01-.08.01a.71.71 0 0 0-.2.05c-.07.03-.09.08-.06.15 0 0 .01.02.03.02.04.02.08.02.12.02h.07c.19-.02.31-.01.38.02.02.01.03.03.03.05 0 .02 0 .04-.02.06l-.18.16a.05.05 0 0 0-.01.05c0 .02.01.03.03.04l.15.03.61-.07c.04 0 .06-.02.07-.05a12.15 12.15 0 0 0 .15-.65.08.08 0 0 0-.06-.05.1.1 0 0 0-.08.01l-.21.15a.09.09 0 0 1-.06.02c-.02 0-.04 0-.05-.02a.13.13 0 0 1-.04-.12l.03-.27c.01-.08-.02-.13-.09-.14-.06-.01-.11.01-.14.08a13.06 13.06 0 0 1-.1.2H7.1l-.17-.16c-.07-.06-.15-.06-.23 0-.08.06-.09.12-.02.18l.2.2v.02Zm4.27.02.09.01c.1.01.16.03.2.05.07.03.08.08.06.15 0 0-.01.02-.03.02a.33.33 0 0 1-.13.02h-.06a.85.85 0 0 0-.38.02.07.07 0 0 0-.04.05c0 .02 0 .04.03.06l.17.16c.02.01.03.03.02.05 0 .02-.01.03-.03.04a.3.3 0 0 1-.15.03l-.61-.07c-.04 0-.06-.02-.07-.05a12.2 12.2 0 0 1-.15-.66.08.08 0 0 1 .06-.05.1.1 0 0 1 .08.02l.21.15.06.02.05-.02a.13.13 0 0 0 .04-.12l-.03-.27c-.01-.08.02-.13.09-.14.06-.02.11.01.14.08a8.7 8.7 0 0 0 .1.2h.04l.17-.16c.07-.06.15-.06.23 0 .08.06.09.12.02.18l-.2.2v.02l.03.01Zm-1.88-.19-.06.04h-.03v-.01l-.03-.24c0-.08-.05-.11-.14-.1-.1 0-.15.04-.15.12v.19l-.02.02H8.8c-.04 0-.1-.03-.2-.07-.06-.03-.11-.02-.15.02-.03.05-.01.1.05.14l.22.16c.04.03.06.06.06.1 0 .04-.02.06-.07.07h-.25a.08.08 0 0 0-.06.04.06.06 0 0 0 0 .07c0 .02.02.03.05.05l.52.3c.03.02.06.01.09 0l.45-.29a.2.2 0 0 0 .08-.1v-.04a.07.07 0 0 0-.06-.03H9.3a.08.08 0 0 1-.05-.04.05.05 0 0 1-.01-.05c.02-.05.1-.13.23-.22a4.67 4.67 0 0 0 .12-.11v-.03c-.04-.06-.09-.08-.15-.07a.6.6 0 0 0-.17.08Zm-3.18 1.4v-.03l-.28-.1c-.09-.04-.11-.1-.07-.17v-.01c.05-.09.11-.11.21-.08l.23.07h.03c.02-.01.02-.02.02-.03l-.02-.2c0-.07.02-.11.1-.12.06-.01.1.02.14.1l.1.25c.02.04.05.07.1.1h.06l.04-.04.12-.22a.08.08 0 0 1 .06-.04.1.1 0 0 1 .08.02l.05.07.15.58c0 .03 0 .05-.04.07l-.52.28a.3.3 0 0 1-.15.04.07.07 0 0 1-.05-.03.05.05 0 0 1-.01-.06l.08-.2-.01-.07a.08.08 0 0 0-.06-.03.82.82 0 0 0-.35.12 4 4 0 0 1-.06.03.32.32 0 0 1-.13.03l-.03-.01c-.06-.06-.07-.11-.02-.16A.62.62 0 0 1 6 7.32l.07-.04Zm1.97-.27h-.02l-.07-.04a.68.68 0 0 0-.19-.1c-.07 0-.12.02-.16.08v.03c.02.04.04.07.08.1l.05.03c.15.1.23.18.25.24l-.01.06a.08.08 0 0 1-.06.03h-.26a.07.07 0 0 0-.06.03.05.05 0 0 0 0 .06c.01.04.04.07.08.1l.5.32c.03.02.06.02.1 0a17.07 17.07 0 0 0 .63-.39.06.06 0 0 0 0-.07.09.09 0 0 0-.08-.03l-.27-.02c-.02 0-.04 0-.06-.02a.06.06 0 0 1-.02-.05c0-.04.02-.08.07-.1l.24-.18c.07-.05.09-.1.05-.16-.04-.05-.1-.06-.17-.02a15.34 15.34 0 0 1-.24.08l-.02-.03v-.2c0-.1-.05-.14-.16-.14h-.01c-.1-.01-.15.03-.16.12l-.01.25-.02.02Zm1.92 0 .07-.04a.67.67 0 0 1 .19-.08c.07-.02.12 0 .16.07V7a.25.25 0 0 1-.08.1l-.05.03c-.15.1-.23.18-.25.24v.06l.07.03h.26l.06.03v.06a.23.23 0 0 1-.08.1l-.5.32a.09.09 0 0 1-.1 0 17.12 17.12 0 0 1-.63-.39.06.06 0 0 1 0-.07.09.09 0 0 1 .08-.04l.27-.01c.02 0 .04 0 .06-.02a.06.06 0 0 0 .02-.05c0-.04-.02-.08-.07-.11l-.24-.18c-.07-.05-.09-.1-.05-.15.04-.05.1-.06.17-.03a15.2 15.2 0 0 0 .24.09l.02-.03v-.2c0-.1.05-.14.16-.15h.01c.1 0 .15.04.16.12l.01.26.02.02h.02Zm2.02.32a1.05 1.05 0 0 1-.07-.04v-.03l.28-.11c.09-.04.11-.1.07-.17-.04-.09-.11-.12-.2-.08l-.24.07h-.03c-.02-.01-.02-.02-.02-.03l.02-.2c0-.07-.02-.11-.1-.12-.06-.01-.1.02-.14.09l-.1.26a.15.15 0 0 1-.1.09h-.06a.07.07 0 0 1-.04-.04l-.12-.2a.08.08 0 0 0-.06-.05.1.1 0 0 0-.08.02 12.9 12.9 0 0 0-.2.65c0 .03 0 .05.04.07l.52.28c.05.03.1.04.15.03.02 0 .04 0 .05-.02a.05.05 0 0 0 .01-.06l-.08-.2.01-.07a.08.08 0 0 1 .06-.03c.07 0 .2.04.35.12l.06.02.13.04c.01 0 .02 0 .03-.02.06-.05.07-.1.02-.15a.63.63 0 0 0-.16-.12Zm-7.55.07v-.03l-.31-.06c-.1-.02-.15-.07-.12-.15v-.01c.02-.1.08-.13.19-.12l.25.03.03-.01c.01-.01.02-.02.01-.03l-.07-.2c-.03-.07 0-.11.06-.14.06-.02.12 0 .17.06l.18.25c.03.04.07.06.12.07A.1.1 0 0 0 5 7.05.07.07 0 0 0 5.04 7l.06-.23c.01-.03.03-.05.06-.06a.1.1 0 0 1 .08 0l.07.07.3.55c.02.03.01.06-.02.09l-.45.38a.3.3 0 0 1-.14.06c-.02 0-.04 0-.06-.02a.06.06 0 0 1-.02-.05l.02-.23c0-.02 0-.04-.02-.06a.09.09 0 0 0-.07-.01c-.08 0-.18.07-.33.18l-.05.04a.31.31 0 0 1-.12.06l-.04-.01c-.07-.04-.09-.1-.06-.15a.57.57 0 0 1 .13-.15 1 1 0 0 0 .06-.06Zm9.18.07a1.16 1.16 0 0 1-.06-.06v-.03l.31-.06c.1-.02.15-.07.12-.15v-.01c-.02-.1-.08-.13-.19-.12l-.25.03-.03-.01c-.01-.01-.02-.02-.01-.03l.07-.2c.03-.07 0-.12-.06-.14-.06-.03-.12 0-.17.06l-.18.24a.17.17 0 0 1-.12.08.1.1 0 0 1-.06-.01.07.07 0 0 1-.03-.05l-.06-.24c0-.02-.03-.04-.06-.05a.1.1 0 0 0-.08 0 13.49 13.49 0 0 0-.37.62c-.02.03-.01.06.02.08l.45.39c.04.03.09.05.14.06.02 0 .04 0 .06-.02a.06.06 0 0 0 .02-.05l-.02-.23c0-.02 0-.04.02-.06a.09.09 0 0 1 .07-.02c.08.01.18.07.33.19l.05.04a.3.3 0 0 0 .12.05h.03c.08-.04.1-.1.07-.16a.58.58 0 0 0-.13-.14ZM5.35 8.6v-.02c0-.01 0-.02-.02-.01h-.3c-.11 0-.17-.04-.17-.12v-.01c0-.1.05-.15.15-.16l.25-.02c.02 0 .03 0 .04-.02v-.03l-.13-.17c-.04-.07-.04-.12.02-.15.06-.04.12-.03.19.02l.23.2c.04.04.09.06.14.05.02 0 .04 0 .06-.02a.06.06 0 0 0 .02-.05v-.24c0-.03 0-.05.03-.07a.1.1 0 0 1 .09-.01 15.12 15.12 0 0 1 .52.53c.02.02.03.05 0 .08l-.33.47a.27.27 0 0 1-.12.08h-.06a.06.06 0 0 1-.04-.05l-.04-.23a.07.07 0 0 0-.04-.05.1.1 0 0 0-.07 0c-.07.02-.16.1-.27.24a2.7 2.7 0 0 1-.04.05.28.28 0 0 1-.1.08h-.04c-.08-.03-.11-.07-.1-.14 0-.03.04-.1.09-.17a.95.95 0 0 0 .04-.06Zm7.34.07a.77.77 0 0 1-.04-.06.02.02 0 0 1 .02-.04l.31.01c.1 0 .16-.04.16-.12v-.02c0-.09-.05-.14-.15-.15l-.25-.02c-.02 0-.03 0-.04-.02v-.03l.13-.17c.04-.07.04-.12-.02-.15-.06-.04-.12-.03-.19.02l-.23.2a.19.19 0 0 1-.14.05c-.02 0-.04 0-.06-.02a.06.06 0 0 1-.02-.05v-.24c0-.03 0-.05-.03-.07a.1.1 0 0 0-.09-.01 14.93 14.93 0 0 0-.52.53c-.02.02-.03.05 0 .08l.33.46c.03.04.07.07.12.09h.06a.06.06 0 0 0 .04-.05l.04-.23c0-.02.02-.04.04-.05a.1.1 0 0 1 .07 0c.07.02.16.1.27.24l.04.05c.03.03.06.06.1.07h.04c.08-.02.11-.07.1-.13 0-.04-.04-.1-.09-.17Zm-5.56.08v-.02H7.1l-.27.13c-.1.04-.16.03-.21-.05-.06-.1-.05-.16.04-.2l.21-.12.02-.03c0-.02 0-.03-.02-.03l-.2-.1c-.08-.04-.1-.1-.07-.15.03-.05.1-.07.18-.05l.32.09c.05.01.1 0 .15-.02a.07.07 0 0 0 .04-.04l-.01-.05-.14-.22a.07.07 0 0 1 0-.07.09.09 0 0 1 .06-.04h.1l.66.25c.03.02.05.04.05.08l-.04.54c-.01.05-.03.09-.06.12a.07.07 0 0 1-.06.03c-.03 0-.04-.01-.06-.03l-.16-.19a.08.08 0 0 0-.06-.03c-.03 0-.05.01-.07.03-.05.05-.08.16-.1.32v.06l-.05.1-.04.03c-.08 0-.14-.02-.16-.08a.48.48 0 0 1-.02-.19.9.9 0 0 0 0-.07Zm3.74.08v-.09h.03l.27.13c.1.04.16.02.21-.05v-.01c.06-.08.05-.15-.04-.2l-.21-.12c-.02 0-.02-.01-.02-.03 0 0 0-.02.02-.02l.2-.1c.08-.05.1-.1.07-.15-.03-.05-.1-.07-.19-.05l-.31.09a.2.2 0 0 1-.15-.02.07.07 0 0 1-.04-.04l.01-.05.14-.22a.07.07 0 0 0 0-.07.09.09 0 0 0-.07-.04h-.09l-.66.25c-.03.02-.05.04-.05.07l.04.55c.01.05.03.09.06.12l.06.03c.03 0 .04-.01.06-.03l.16-.19a.09.09 0 0 1 .06-.03c.03 0 .05.01.07.03.05.05.08.15.1.32v.06l.05.1c.01.02.02.02.04.02.08.01.14-.01.16-.07.02-.04.02-.1.02-.2Z" fill="#FDB813"/><path d="M9 8.1a235.43 235.43 0 0 1 .54 0 12.92 12.92 0 0 0-.24 2.5h.68l.02.01v.47c0 .01 0 .02-.02.02H9.3a9.67 9.67 0 0 0 .46 3 79.49 79.49 0 0 1-1.54-.02l.08-.24.08-.25a9.68 9.68 0 0 0 .32-2.5H8v-.48l.02-.01h.68c.02 0 .02-.01.02-.03a12.9 12.9 0 0 0-.25-2.47H9Z" fill="#9E005D"/></svg>