<!-- by TradingView --><svg width="18" height="18" viewBox="0 0 18 18" xmlns="http://www.w3.org/2000/svg"><path fill="#F0F3FA" d="M0 0h18v18H0z"/><circle cx="6" cy="5" r="1" fill="#81C342"/><path d="M7 7.5a1 1 0 1 1-2 0 1 1 0 0 1 2 0Z" fill="#8E4CA3"/><path d="M7 10.5a1 1 0 1 1-2 0 1 1 0 0 1 2 0Z" fill="#1B80C4"/><circle cx="6" cy="13" r="1" fill="#EC4F1C"/><path d="M8 4.25a.25.25 0 0 1 .5 0v9.5a.25.25 0 1 1-.5 0v-9.5ZM13 10.08C13 11.5 11.81 12 10.7 12c-.45 0-1.02-.03-1.7-.1v-1.67h.63c.02.65.44 1.14 1.04 1.14.4 0 1.13-.25 1.13-.79 0-1-1.1-.75-2.08-1.43A1.65 1.65 0 0 1 9 7.72C9 6.48 10.11 6 11.08 6c.39 0 .92.03 1.6.1v1.67h-.52c-.03-.64-.45-1.14-1.04-1.14-.4 0-.92.24-.92.72 0 .3.23.54.69.75.87.38 2.11.7 2.11 1.98Z"/></svg>