<!-- by TradingView --><svg width="18" height="18" viewBox="0 0 18 18" xmlns="http://www.w3.org/2000/svg"><path fill="#F0F3FA" d="M0 0h18v18H0z"/><path d="M8.22 5H9v3.66h-.59V5.64c0-.03-.02-.05-.06-.05A4.17 4.17 0 0 0 4.66 9.2a.04.04 0 0 0 .04.02H9v4.73c0 .03-.02.05-.05.05-.26-.01-.51 0-.77-.02a4.69 4.69 0 0 1-4.06-3.64h.63a4.23 4.23 0 0 0 3.66 3V9.78h-4.4c-.05-.9.13-1.71.55-2.43A4.66 4.66 0 0 1 8.22 5ZM12.36 9.78H9.41v-.55l.02-.01h3.51c.04 0 .05.01.05.05a4.4 4.4 0 0 1-1.73 3.79 4.4 4.4 0 0 1-1.85.82v-.59c0-.01 0-.02.02-.03a4.06 4.06 0 0 0 2.93-3.48Z" fill="#08174E"/><path d="M13 5H9.62v.56h2.82v3.1H13V5Z" fill="#C3A311"/></svg>