<!-- by TradingView --><svg width="18" height="18" viewBox="0 0 18 18" xmlns="http://www.w3.org/2000/svg"><path fill="url(#afvv51n0x)" d="M0 0h18v18H0z"/><path d="M7.74 6.25c-.45 0-.83.37-1.22.6a1 1 0 1 1 0-1.71c.39.24.77.61 1.22.61h.52c.45 0 .83-.37 1.22-.6a1 1 0 1 1 0 1.71c-.39-.24-.77-.61-1.22-.61h-.52ZM10.74 9.25c-.45 0-.83.37-1.22.6a1 1 0 1 1 0-1.71c.39.24.77.61 1.22.61h.52c.45 0 .83-.37 1.22-.6a1 1 0 1 1 0 1.71c-.39-.24-.77-.61-1.22-.61h-.52ZM6.74 12.25c-.45 0-.83.37-1.22.6a1 1 0 1 1 0-1.71c.39.24.77.61 1.22.61h.52c.45 0 .83-.37 1.22-.6a1 1 0 1 1 0 1.71c-.39-.24-.77-.61-1.22-.61h-.52Z" fill="#fff"/><defs><linearGradient id="afvv51n0x" x1="3.35" y1="3.12" x2="21.9" y2="24.43" gradientUnits="userSpaceOnUse"><stop stop-color="#1A1E21"/><stop offset="1" stop-color="#06060A"/></linearGradient></defs></svg>