<!-- by TradingView --><svg width="18" height="18" viewBox="0 0 18 18" xmlns="http://www.w3.org/2000/svg"><path fill="#F0F3FA" d="M0 0h18v18H0z"/><path d="m13.18 6-1.05 6H10.9l1.06-6h1.22ZM15 6l-.17.97H10l.17-.97H15ZM6.3 10.36a.55.55 0 0 0-.04-.36.63.63 0 0 0-.22-.24c-.1-.07-.2-.13-.32-.18-.12-.05-.24-.1-.36-.13a7.32 7.32 0 0 1-.63-.28c-.21-.1-.4-.22-.57-.36a1.28 1.28 0 0 1-.52-1.16c.03-.28.11-.53.26-.74.15-.21.34-.39.58-.52A3.3 3.3 0 0 1 6.06 6c.37 0 .7.08 1 .23A1.63 1.63 0 0 1 8 7.8H6.8a.94.94 0 0 0-.08-.46.6.6 0 0 0-.27-.3.98.98 0 0 0-.47-.11c-.17 0-.33.02-.49.07-.16.05-.3.13-.4.24a.72.72 0 0 0-.21.42c-.03.13 0 .23.05.32.06.1.14.17.25.24.1.06.21.12.33.16l.32.12a5 5 0 0 1 .66.27c.21.11.4.24.56.38a1.43 1.43 0 0 1 .48 1.2 1.57 1.57 0 0 1-.8 1.27c-.23.13-.48.23-.75.3-.27.05-.54.08-.82.08-.3 0-.58-.05-.85-.14-.26-.08-.5-.2-.7-.37a1.67 1.67 0 0 1-.6-1.4h1.23c-.01.16 0 .3.04.43a.74.74 0 0 0 .5.49 1.6 1.6 0 0 0 .92 0 .99.99 0 0 0 .4-.24c.1-.1.18-.24.2-.4Z" fill="#217FC4"/></svg>