<!-- by TradingView --><svg width="18" height="18" viewBox="0 0 18 18" xmlns="http://www.w3.org/2000/svg"><path fill="#F0F3FA" d="M0 0h18v18H0z"/><path d="M11.38 9.5h-.01c-.16-.3-.36-.56-.53-.8l-.04-.04-.01-.02 3.15-1.85.03-.23c.07-.43.03-1.06-.36-1.6-.4-.58-1.11-.96-2.2-.96-1.36 0-2.38.65-3.05 1.42a3.9 3.9 0 0 0-1 2.3c0 .57.21 1.16.4 1.66l.02.03v.01c.23.6.41 1.1.41 1.57 0 .57-.81 1.02-1.3 1.02-1.02 0-1.22-.45-1.68-.68l-.27-.14L3 12.57l.73.38C4.44 13.3 5.4 14 6.82 14c2.31 0 4.05-1.12 4.69-2.31.36-.93-.03-2-.13-2.2Zm-.41.32.07.14a1.8 1.8 0 0 1 .1 1.14c-.05.26-.17.52-.34.77-.62.9-1.95 1.63-3.98 1.63-.87 0-1.44-.42-2.33-.76l-.53-.23 1.03-.74c.5.25.77.74 1.9.74 1.42 0 1.8-.39 1.8-1.52 0-.58-.22-1.17-.44-1.74-.2-.54-.4-1.05-.4-1.53 0-.98 1.18-3.22 3.57-3.22 1.9 0 2.17 1.32 2.06 1.98L11 7.94h-.01l-.22.14.1-.2.34-.64c.13-.26.26-.53.36-.78l.02-.05c.1-.24.16-.48.18-.67.03-.34-.08-.57-.46-.57a1.55 1.55 0 0 0-1.27.7c-.26.38-.4.89-.4 1.46 0 .4.16.75.38 1.1l.33.47.02.01.03.05.04.05c.2.26.38.53.53.8Zm.29-4.02c.08.13.04.36 0 .5l-.7 1.36v.02l-.01.02-.12.23a3.38 3.38 0 0 1-.23-.65 1.46 1.46 0 0 1 0-.36v-.15c.02-.16.12-.42.27-.64.16-.24.37-.43.58-.43h.02c.1 0 .15.04.19.1Z" fill="#F51329"/></svg>