<!-- by TradingView --><svg width="18" height="18" viewBox="0 0 18 18" xmlns="http://www.w3.org/2000/svg"><path fill="#F0F3FA" d="M0 0h18v18H0z"/><path d="M9.87 8.51c-.07-.17-.14-.17-.22 0l-.6 1.44c-.02.08-.08.11-.15.11-.75 0-1.42-.14-2-.4a3.16 3.16 0 0 1-1.5-1.42c-.6-1.12-.52-2.26.21-3.43a3.64 3.64 0 0 1 2.36-1.66c1.86-.43 3.34.05 4.44 1.43.19.23.33.48.43.73.1.26.14.5.13.74-.04.53-.36.9-.96 1.13-.28.1-.53.08-.75-.06-.13-.09-.3-.27-.5-.56a3.7 3.7 0 0 0-.34-.42 1 1 0 0 0-.44-.27 3.6 3.6 0 0 0-1.16-.14c-.44.03-.77.16-1.02.4a.88.88 0 0 0-.22.62c0 .11.04.2.1.29.06.08.15.13.27.15l.26.03c.57.06 1 .12 1.28.17.46.09.86.2 1.2.33a3.5 3.5 0 0 1 1.87 1.76c.24.47.38.95.42 1.44a3.54 3.54 0 0 1-.76 2.57 3.97 3.97 0 0 1-2.76 1.49c-.63.06-1.23 0-1.81-.2a3.38 3.38 0 0 1-2.4-2.69c-.12-.6.08-1.07.6-1.4.2-.11.4-.16.57-.15.2.02.36.11.5.3.25.32.45.55.61.69.26.21.52.34.8.36.04 0 .07.03.1.06.02.04.02.08.02.12l-.26 1.51c0 .05 0 .08.04.1.03.03.07.03.1.01l1.37-.89a.13.13 0 0 1 .17.01c.43.35.87.64 1.34.86a.1.1 0 0 0 .12-.02.13.13 0 0 0 .04-.13l-.34-1.66a.17.17 0 0 1 .04-.15l1.15-1.17a.12.12 0 0 0 .04-.12c-.02-.05-.04-.08-.08-.1a4.73 4.73 0 0 0-1.53-.16c-.07 0-.12-.03-.14-.1l-.64-1.55Z" fill="#282561"/></svg>