<!-- by TradingView --><svg width="18" height="18" viewBox="0 0 18 18" xmlns="http://www.w3.org/2000/svg"><path fill="#F0F3FA" d="M0 0h18v18H0z"/><path d="M14 7.96a2.72 2.72 0 0 1-.65 1.57 9.18 9.18 0 0 1-3.18 2.65c-1.06.54-2.3.88-3.47.81-.87-.05-1.8-.41-2.25-1.05-.52-.74-.53-1.58-.33-2.46.14-.66.36-1.3.67-1.94A15.7 15.7 0 0 1 6.6 4.52a4.38 4.38 0 0 1 1.76-1.35c.9-.32 1.8-.15 2.58.25a5.81 5.81 0 0 1 2.4 2.2c.4.7.7 1.55.66 2.34Zm-9.13 1.1c-.2.88-.24 1.8.21 2.51.83 1.29 2.86 1.2 4.27.59a7.9 7.9 0 0 0 3.7-3.2c.32-.53.42-1.1.3-1.7-.1-.48-.28-.96-.56-1.37a5.46 5.46 0 0 0-2.35-1.97c-.4-.19-.81-.3-1.23-.32-1.17-.08-2.06.67-2.66 1.58a11.94 11.94 0 0 0-1.68 3.88Z" fill="#00418E"/><path d="M12.8 9.63c.35.18.65.4.88.68.23.29.31.57.32.94a3.8 3.8 0 0 1-2.23 3.52 2.6 2.6 0 0 1-1.74.13c-.6-.2-.98-.6-1.26-1.07-.2-.36-.36-.73-.47-1.12l-.2-.8c-.07-.38-.1-.76-.1-1.16.01-.38.13-.84.4-1.14.36-.4.95-.57 1.57-.6 1.08-.06 1.94.2 2.83.62ZM9.02 13.4c.27.48.65.93 1.21 1.14 1.03.38 2.13-.23 2.66-.92.6-.77.83-1.63.69-2.57a1.37 1.37 0 0 0-.58-.9c-.26-.2-.58-.38-.91-.5a5.13 5.13 0 0 0-2.19-.28c-.3.03-.59.1-.83.2-.7.3-.87.9-.8 1.5a6 6 0 0 0 .75 2.33Z" fill="#B69913"/></svg>