<!-- by TradingView --><svg width="18" height="18" viewBox="0 0 18 18" xmlns="http://www.w3.org/2000/svg"><path fill="#F0F3FA" d="M0 0h18v18H0z"/><path fill-rule="evenodd" d="M14.5 8.22v1.12c-.06 1.8-1.01 2.96-2.42 3.98-.19.14-.48.29-.89.44-.09.04-.14.04-.17.01a.14.14 0 0 1-.01-.18 4.72 4.72 0 0 0 2.8-4.33 5.33 5.33 0 0 0-.5-2.51A4.47 4.47 0 0 0 9.76 4.6a.07.07 0 0 0-.03.02.07.07 0 0 0 0 .07l.01.05c0 .02.02.04.04.06l.08.02c.61.04 1.22.24 1.82.63.95.6 1.48 1.36 1.66 2.48.14.9.18 1.88-.17 2.74a5.11 5.11 0 0 1-3.68 3.13c-.9.24-1.81.25-2.72.04-1.1-.25-2.21-1.02-2.6-2.08a.44.44 0 0 1-.02-.27c0-.02.02-.04.04-.06a.14.14 0 0 1 .2.02c.48.67 1.07 1.31 1.84 1.68a4.85 4.85 0 0 0 1.77.44s.02 0 .03-.02a.07.07 0 0 0 0-.07v-.03a.06.06 0 0 0-.06-.04 4.19 4.19 0 0 1-2.16-.87c-.97-.73-1.41-1.43-1.48-2.64a7.02 7.02 0 0 1 .06-1.67 3.8 3.8 0 0 1 1.9-2.6c.25-.16.66-.33 1.22-.51.02 0 .02-.02.02-.04L7.5 5l-.02-.02h-.02A4.3 4.3 0 0 0 4 9.51a.1.1 0 0 1-.03.03.1.1 0 0 1-.1 0l-.02-.01a.26.26 0 0 1-.15-.19c-.37-1.98.85-3.78 2.69-4.58 1.83-.8 3.9-1.1 5.68-.23 1.42.7 2.22 2.2 2.42 3.69Zm-4.13.02.05.07.07.03a6.62 6.62 0 0 1 1.82.6c.02.02.03.05.03.08 0 .09-.06.13-.17.14a34.42 34.42 0 0 0-6.29.97c-.14-.02-.17-.07-.08-.14.37-.32.87-.63 1.48-.94.2-.1.34-.19.4-.27l.14-.23c.1-.2.22-.4.47-.47l1.69-.47c.11-.03.18.01.22.12l.18.51Zm-6.87 1.9v.38a.7.7 0 0 0 .4.53.17.17 0 0 0 .16 0 .16.16 0 0 0 .05-.07.16.16 0 0 0 .02-.08v-.11c-.02-.28-.04-.7-.25-.84-.16-.1-.29-.04-.38.19Z" fill="#EE3A43"/></svg>