<!-- by TradingView --><svg width="18" height="18" viewBox="0 0 18 18" xmlns="http://www.w3.org/2000/svg"><path fill="#F0F3FA" d="M0 0h18v18H0z"/><path fill-rule="evenodd" d="M8.47 3h-.2c.14.12.29.22.44.31.1.05.16.1.21.16l.19.22c.03.04.02.05-.03.04a.31.31 0 0 0-.17 0 .76.76 0 0 0-.14.07l-.07.04a.74.74 0 0 0-.16.12l-.1.1a.05.05 0 0 1-.04 0 .95.95 0 0 0-.77.03c-.12.05-.11.1.02.13.31.09.59.23.83.43.13.1.27.28.42.51v.06c-.06.08-.13.15-.21.22a5.26 5.26 0 0 0-.54.53 6.41 6.41 0 0 0-.42.4.75.75 0 0 0-.58-.51L7 5.82a.42.42 0 0 0-.18 0l-.2.05-.05.01c-.07.02-.07.05 0 .08l.17.06.14.04c.28.11.46.31.53.61.01.02 0 .04-.02.06l-.15.12h-.03l-.15-.2a.36.36 0 0 0-.1-.1.9.9 0 0 1-.06-.03.35.35 0 0 0-.2-.07.43.43 0 0 0-.22.04l-.14.08a.29.29 0 0 0-.08.08c-.1.12-.15.24-.19.35a.53.53 0 0 0-.02.17c0 .03 0 .03.02.01l.28-.2a.43.43 0 0 1 .22-.05c.07 0 .13.02.18.07a.86.86 0 0 1 .13.18c.02.02.01.04 0 .05-.18.17-.37.34-.56.54l-2.3 2.28c-.02.01-.02.03 0 .05l4.94 4.88c.03.03.06.03.08 0L14 10.1v-.03l-3.73-3.7v-.03l.12-.16c.2-.25.45-.32.76-.2.2.07.4.18.58.35.03.02.06.03.1.03l.03-.03V6.3a2.42 2.42 0 0 0-.3-.58.75.75 0 0 0-.36-.28.92.92 0 0 0-.47-.02c-.02 0-.03 0-.05-.02a.05.05 0 0 1 0-.06c.08-.18.21-.34.4-.48a.33.33 0 0 0 .06-.05.3.3 0 0 1 .07-.06l.2-.13c.02-.02.02-.03-.01-.04a.88.88 0 0 0-.48 0 .4.4 0 0 0-.12.06l-.08.06a.8.8 0 0 0-.19.14l-.2.22c-.02.02-.03.02-.03 0a2.7 2.7 0 0 1 .3-.85.69.69 0 0 1 .16-.18.94.94 0 0 0 .1-.1l.17-.16a3.5 3.5 0 0 1 .21-.14c.03-.03.03-.04 0-.04a2.06 2.06 0 0 0-.45-.03.6.6 0 0 0-.27.1.87.87 0 0 0-.23.18l-.24.34-.02.01-.03-.01a4.98 4.98 0 0 0-.17-.38 1.23 1.23 0 0 0-.25-.33 1.56 1.56 0 0 0-.92-.43.93.93 0 0 1-.18-.03Zm1.48 1.36-.05.1c0 .02-.02.02-.03 0-.11-.2-.27-.4-.46-.58a.42.42 0 0 0-.12-.07.1.1 0 0 1-.04-.04c-.09-.15-.19-.27-.29-.37a1.4 1.4 0 0 0-.4-.26.07.07 0 0 1-.03-.04v-.02c.47.06.82.23 1.08.53.12.14.23.36.35.67a.1.1 0 0 1 0 .08Zm.12 1.7-.04.81c0 .05-.02.07-.06.08-.1.01-.2.02-.3 0a.07.07 0 0 1-.05-.02 6.7 6.7 0 0 1 .32-2.34c.09-.26.21-.5.39-.7a.7.7 0 0 1 .33-.23c.1-.03.23-.05.41-.04.04 0 .04 0 0 .02a1 1 0 0 0-.21.16c-.2.2-.34.36-.39.46-.11.23-.2.47-.24.7a23.1 23.1 0 0 0-.16 1.1ZM8.66 4a.6.6 0 0 1 .44.1c.16.1.29.27.38.47.06.13.13.32.2.59.01.03.02.03.03 0l.14-.57v-.05a2.03 2.03 0 0 0-.53-.63c-.23-.18-.45-.16-.68.07-.02.02-.01.03.02.02Zm-.53.32a1.31 1.31 0 0 0-.3-.13 3.4 3.4 0 0 1-.11-.03c-.03-.01-.04-.03 0-.04a.78.78 0 0 1 .39-.07c.16 0 .32.07.5.19a2 2 0 0 1 .68.85l.15.28c.06.13.1.23.15.29.02.03.02.06.02.1l-.07.79c0 .02-.01.02-.02 0a2.76 2.76 0 0 1-.18-.48 1.77 1.77 0 0 0-.56-1.23l-.17-.18a1.97 1.97 0 0 0-.48-.34Zm1.51 1.24a.44.44 0 0 0 0-.29 15.1 15.1 0 0 1-.17-.53 1.75 1.75 0 0 0-.2-.38c-.18-.26-.42-.35-.71-.27l-.02.02.01.02c.14.07.27.18.4.32.11.12.22.26.3.43.14.23.26.46.36.68 0 .03.02.03.03 0Zm1.17-.87c.15-.07.29-.1.41-.1.04 0 .04.02.01.04a.94.94 0 0 1-.08.05.98.98 0 0 0-.1.06.28.28 0 0 0-.06.08.1.1 0 0 1-.03.03c-.22.16-.35.34-.38.54 0 .02-.01.04-.03.05-.13.06-.24.14-.35.23-.02.03-.03.02-.02-.01.04-.13.06-.25.07-.39a3.65 3.65 0 0 1 .46-.52.5.5 0 0 1 .1-.06Zm-.43 1.35c.1-.1.2-.16.3-.18.22-.04.41-.02.6.08.15.07.28.15.4.24.05.03.06.02.04-.03-.05-.11-.1-.23-.18-.34a.78.78 0 0 0-.56-.37c-.1-.01-.2 0-.3.04-.11.03-.2.07-.26.11a.83.83 0 0 0-.2.2.4.4 0 0 0-.07.19 2.03 2.03 0 0 0-.02.34c0 .07.01.07.04.01.06-.11.13-.2.21-.29Zm-1.16.47A.67.67 0 0 0 8.9 6v-.04l.1-.08h.04l.17.17c.04.04.07.08.1.14a4.72 4.72 0 0 0 .17.45c.03.1.05.2.05.27 0 .02 0 .03.02.05l.03.02c.02.02.02.03 0 .04-.06.03-.1.07-.1.13a88.39 88.39 0 0 1 .02 1l.03.04c.02.01.02.03 0 .04a.13.13 0 0 0-.04.1v.94c0 .04.01.07.03.1.02.02.02.03 0 .04a.1.1 0 0 0-.03.08v.9c0 .07.01.13.04.18v.03a.24.24 0 0 0-.04.12v.93c0 .03.02.06.04.08v.05a.5.5 0 0 0-.04.21 316.52 316.52 0 0 0-.02 1.85l-.43.42-.03.01h-.02l-.57-.56a.16.16 0 0 1-.05-.12 46.4 46.4 0 0 1-.02-1.06.05.05 0 0 1 0-.05.59.59 0 0 0 .03-.2v-.87a.09.09 0 0 0-.04-.07c-.02-.02-.02-.04 0-.07a.08.08 0 0 0 .03-.06v-.99c0-.02 0-.04-.02-.06-.02-.02-.02-.04 0-.07a.05.05 0 0 0 .02-.04v-1c0-.02 0-.04-.02-.05l-.03-.04V8.9c.08-.06.11-.13.11-.2a7.39 7.39 0 0 0-.02-1.05.84.84 0 0 1 .13-.16c.05-.05.1-.08.16-.1.14-.07.25-.04.36.08.07.1.15.2.2.33.02.02.03.03.05.03.02 0 .03 0 .04-.02.04-.06.05-.17.02-.34a1.95 1.95 0 0 0-.1-.36c-.04-.12-.12-.19-.24-.2a.87.87 0 0 0-.58.07c-.02.01-.03 0-.03-.02 0-.15.02-.28.05-.38a.45.45 0 0 1 .24-.27h.06c.15.05.28.14.38.25.07.07.1.06.08-.04ZM8.1 8.7c0-.19-.01-.4-.05-.62a4.77 4.77 0 0 1-.05-.39 12.95 12.95 0 0 0-.25-1.1c-.1-.3-.23-.5-.43-.6a.99.99 0 0 0-.57-.08 7.93 7.93 0 0 0 .23.13c.14.06.26.15.35.27.08.11.14.25.17.4a4.38 4.38 0 0 0 .09.45c0 .08.02.15.03.19l.04.28c.04.33.1.66.17.99a.9.9 0 0 1 .02.28c0 .02.01.03.04.03.14-.03.21-.1.21-.23Zm.26-.43v.41c0 .1-.07.19-.21.24H8.1v-.04l.03-.04a9.87 9.87 0 0 0-.17-1.76c0-.28.09-.55.26-.83.06-.1.14-.16.23-.2.17-.05.3-.04.41.02.1.06.18.16.25.32.03.07.01.08-.04.03a.63.63 0 0 0-.25-.15.28.28 0 0 0-.27.05c-.1.09-.17.2-.2.34-.07.4-.08.8-.03 1.23l.01.2v.18ZM6.33 6.92l.21-.07h.05a.5.5 0 0 1 .35.3c.15.3.29.63.4.98.1.24.21.47.35.69l.04.02c.05.02.07 0 .06-.04a6.28 6.28 0 0 1-.11-.54c-.03-.2-.07-.37-.13-.5-.1-.26-.2-.5-.34-.75a1.35 1.35 0 0 0-.28-.38.4.4 0 0 0-.3-.1.4.4 0 0 0-.13.04.64.64 0 0 1-.07.03.2.2 0 0 0-.1.07c-.09.13-.15.24-.19.34-.01.03 0 .04.03.02l.1-.09a.16.16 0 0 1 .06-.02Zm2.36.38c-.1.05-.2.12-.28.22-.02.02-.03.02-.03-.02v-.38c0-.02.01-.03.03-.04a.81.81 0 0 1 .57-.13c.1.02.2.11.25.28.04.12.06.24.06.39 0 .05-.01.06-.04 0a.84.84 0 0 0-.23-.27c-.11-.08-.22-.1-.33-.05Zm1.44-.18v1l-.03.06c-.02.02-.02.04 0 .06l.03.06v1c0 .03-.01.05-.03.06-.02.02-.02.04 0 .06.02.02.03.03.03.06v1.01l-.03.06c-.02.02-.02.04 0 .06l.03.06a137.56 137.56 0 0 0-.02 1c-.02.07-.02.11 0 .14l.02.14a194.04 194.04 0 0 0 .02 1.2 332.66 332.66 0 0 1 3.11-3.05v-.04l-3.14-3.1h-.03l-.04.03V7l.06.06.02.05Zm-.14-.05h-.37a.06.06 0 0 0-.06.06v.98c0 .03.03.06.06.06H10c.03 0 .06-.03.06-.06v-.98a.06.06 0 0 0-.06-.06Zm-2.5.3c0 .05.02.1.05.15.01.03.02.02.02 0 0-.06 0-.11-.02-.16 0-.01 0-.02-.02-.02H7.5l-.02.03Zm-.53.5.13-.12h.02l.01.01.07.16v.02l-.02.01-.2-.05-.02-.01v-.02ZM6.5 9a6.6 6.6 0 0 0-.13.5 2 2 0 0 0 .3-.41c.08-.2.15-.39.24-.57.06-.14.2-.18.42-.1.04 0 .05 0 .04-.04l-.13-.3a.09.09 0 0 0-.05-.04l-.16-.07a.12.12 0 0 0-.07 0 .12.12 0 0 0-.06.03c-.08.08-.14.19-.2.32-.05.11-.08.23-.11.36a3.9 3.9 0 0 1-.1.32Zm-.19.66c.23-.22.39-.43.46-.62l.2-.48a.17.17 0 0 1 .1-.1.29.29 0 0 1 .13-.01c.06 0 .1.02.15.04.05.02.08.05.1.08l.06.1.1.15a.4.4 0 0 0 .12.1c.01.01.02.02 0 .03a.27.27 0 0 0-.03.15v.9c0 .04.01.08.05.1v.04a.1.1 0 0 0-.05.09v.94c0 .04.01.08.04.11l.01.02v.01a.15.15 0 0 0-.05.11v.92c0 .05 0 .09.03.13v.03a.1.1 0 0 0-.03.07v.36c0 .05-.01.06-.05.02l-2.9-2.87c-.02-.01-.02-.02 0-.04a201.57 201.57 0 0 1 1.91-1.88c.07-.06.08-.05.03.02-.07.13-.13.27-.16.41a6.5 6.5 0 0 1-.27.9.21.21 0 0 0 .01.16c.01.02.03.03.04 0Zm3.31-1.42h.36c.03 0 .06.03.06.06v.97c0 .04-.03.07-.07.07h-.35a.06.06 0 0 1-.07-.07v-.97c0-.03.03-.06.07-.06Zm-1.43.73h-.33a.09.09 0 0 0-.09.1v.94c0 .05.04.09.09.09h.34c.04 0 .08-.04.08-.09v-.95a.09.09 0 0 0-.09-.09Zm1.43.44h.36c.03 0 .06.03.06.07v.98c0 .04-.03.06-.06.06h-.36a.06.06 0 0 1-.07-.06V9.5c0-.04.03-.07.07-.07Zm-1.4.76h-.38a.06.06 0 0 0-.07.06v.96c0 .04.03.07.07.07h.38c.03 0 .06-.03.06-.07v-.96a.06.06 0 0 0-.07-.06Zm1.4.44h.36c.03 0 .06.03.06.06v.97c0 .03-.03.06-.06.06h-.37a.06.06 0 0 1-.06-.06v-.97c0-.03.03-.06.06-.06Zm-1.43.74h-.33a.09.09 0 0 0-.09.08v.94c0 .05.04.08.09.08h.33c.05 0 .09-.03.09-.08v-.94a.09.09 0 0 0-.09-.08Zm1.85.57a.25.25 0 0 0-.04-.13h-.02l-.34-.01c-.02 0-.04 0-.06.02a.08.08 0 0 0-.02.06 220.28 220.28 0 0 0 0 1.86 16.18 16.18 0 0 1 .48-.49v-1.31Zm-1.76.67v.9c0 .06-.02.06-.06.02l-.38-.37a.22.22 0 0 1-.07-.16v-.38l.03-.06a.08.08 0 0 1 .05-.02h.36c.05 0 .07.02.07.07Z"/></svg>