<!-- by TradingView --><svg xmlns="http://www.w3.org/2000/svg" width="18" height="18"><path fill="#F0F3FA" d="M0 0h18v18H0z"/><path d="M8.46 8l-.88 4h1.79c.8.02 1.66-.47 1.75-1.38.06-.62-.4-.83-.4-.83a1.15 1.15 0 00.61-1.18c-.1-.61-.9-.61-1.4-.61H8.48zm.28 3.27l.24-1.1h.82c.32.03.4.32.35.6-.06.28-.4.5-.71.5h-.7zm.96-1.82h-.58l.16-.73h.56c.39.01.48.2.45.36-.05.28-.35.37-.59.37zM12.06 8l-.86 4h1l.86-4h-1z" fill="#285BA1"/><path d="M11.57 5C8.97 5 4.5 6.59 2.5 9.54a12.83 12.83 0 018-3.55c2.32-.08 3.76.89 3.1 2.68C15.7 6.19 13.73 5 11.56 5z" fill="#D8383D"/><path d="M5.23 10.54c-.05.49.2.7.54.7.11 0 .28 0 .44-.07.34-.15.43-.56.07-.74-.17-.1-.4-.14-.55-.18h-.04c-.46-.11-.8-.36-.94-.69-.21-.5.13-1.08.55-1.36.33-.23.75-.34 1.17-.34.83 0 1.36.35 1.28 1.14h-.94a.47.47 0 00-.48-.39c-.68 0-.88.65-.2.78.85.17 1.56.4 1.4 1.36-.2.85-1.06 1.25-1.86 1.25s-1.65-.31-1.43-1.46h1z" fill="#285BA1"/></svg>