<!-- by TradingView --><svg width="18" height="18" viewBox="0 0 18 18" xmlns="http://www.w3.org/2000/svg"><path fill="#004260" d="M0 0h18v18H0z"/><path d="M7.06 7.3a.6.6 0 0 0 .01.6c.16.15.43.1.94.1h2.42c.83 0 1.74.14 2.53.47.87.47 1.03 1.17 1.04 1.87.01 1.39-.81 2.32-2.29 2.56l-1.1.1H4v-2h6.35c.35-.04.54-.1.62-.21.08-.23.04-.48-.07-.6a.36.36 0 0 0-.16-.07 2.1 2.1 0 0 0-.18-.05c-.07 0-.13-.02-.2-.03-.82-.06-1.6-.04-2.46-.04-.9 0-1.9-.03-2.75-.41-1.18-.62-1.21-1.73-1.12-2.52.1-.75.79-1.58 1.83-1.81.44-.12.9-.22 1.37-.26H14v2H7.72c-.35.04-.55.14-.66.3Z" fill="#F3F0EC"/></svg>