<!-- by TradingView --><svg width="18" height="18" viewBox="0 0 18 18" xmlns="http://www.w3.org/2000/svg"><path fill="#F0F3FA" d="M0 0h18v18H0z"/><path fill-rule="evenodd" d="M5.55 15c-.52-1.1-1.1-3.82.79-5.92-.8-.95-2.08-3.5-.79-6.08 1.12 0 3.66.73 4.87 3.63A6 6 0 0 1 16 8.97c-.4.86-2.1 2.57-5.58 2.47-.36 1.19-2 3.56-4.87 3.56ZM6.8 8.53a5.69 5.69 0 0 1-.87-4.85c1.07.23 2.83.94 3.8 2.99-.71.25-2.28.97-2.93 1.86Zm8.43.36a5.52 5.52 0 0 0-4.6-1.65c.45 1.01.29 2.75.15 3.5a5.29 5.29 0 0 0 4.45-1.85Zm-9.28 5.47a5.69 5.69 0 0 1 .82-4.86c.66.89 2.24 1.6 2.95 1.83a4.83 4.83 0 0 1-3.77 3.03Zm1.22-5.33A4.95 4.95 0 0 1 10 7.37a4.25 4.25 0 0 1 0 3.26 4.97 4.97 0 0 1-2.84-1.6Z" fill="url(#aewz0ggoq)"/><defs><linearGradient id="aewz0ggoq" x1="16" y1="9" x2="5" y2="9" gradientUnits="userSpaceOnUse"><stop stop-color="#8D064D"/><stop offset=".5" stop-color="#C61C66"/></linearGradient></defs></svg>