<!-- by TradingView --><svg width="18" height="18" viewBox="0 0 18 18" xmlns="http://www.w3.org/2000/svg"><path fill="#F0F3FA" d="M0 0h18v18H0z"/><path d="M10.37 7.45 9.12 6.27a.18.18 0 0 0-.24 0L7.62 7.45a.15.15 0 0 0 0 .22l1.26 1.17c.06.06.17.06.24 0l1.25-1.17a.15.15 0 0 0 0-.22Z" fill="#D6011D"/><path fill-rule="evenodd" d="M9 3c.1 0 .23.04.41.12l2.93 1.34c.04.01.06.04.08.07.01.03.02.06.01.1-.12.62.04 1.19.47 1.68A3.12 3.12 0 0 0 14 7v.04c-.1.6-.27 1.35-.5 2.27l-.12.54a6.47 6.47 0 0 1-4 5.05.96.96 0 0 1-.38.1.96.96 0 0 1-.37-.1 6.48 6.48 0 0 1-3.6-3.56c-.2-.45-.31-1.01-.4-1.49l-.13-.54A29.68 29.68 0 0 1 4 7l.04-.03c.37-.15.81-.38 1.06-.66.43-.5.59-1.05.47-1.68-.01-.04 0-.07.01-.1a.16.16 0 0 1 .08-.07l2.93-1.34C8.77 3.04 8.9 3 9 3Zm-.05 7.6c1.22.13 2.2-.17 2.94-.87.15-.15.2-.12.12.08l-.05.15c-.1.28-.24.7-.38.96a5.42 5.42 0 0 1-2.54 2.39.12.12 0 0 1-.1 0 5.63 5.63 0 0 1-2.1-1.71c-.06-.08-.04-.1.05-.06l.36.18c.17.1.34.19.52.24.5.16 1.01.26 1.55.3a.2.2 0 0 0 .11-.01 2.86 2.86 0 0 0 .98-.83c.08-.09.18-.2.2-.32 0-.05-.02-.07-.08-.06-1.1.22-2.05.07-2.87-.46A3.14 3.14 0 0 1 6.4 9.13c-.33-.84-.29-2 .38-2.73a2.97 2.97 0 0 1 3.72-.68c.65.4 1.15 1.17 1.14 1.9 0 .32-.12.64-.33.96-.42.65-1.08.99-1.98 1-.05 0-.08.01-.09.05l-.03.17c0 .03-.03.05-.08.06l-.27.03c-.05 0-.08.02-.1.05-.13.22-.27.17-.42.13-.09-.03-.18-.06-.27-.03-.1.03-.14.1-.15.19 0 .04.02.07.07.1l.29.12h.05c.02 0 .04 0 .05-.02l.17-.2a.1.1 0 0 1 .1-.05l.33.04h.02l.02.02a.05.05 0 0 1 0 .05l-.11.23c-.02.05 0 .08.05.09Zm.56-.66c.06.09.03.22-.08.3-.1.07-.25.06-.32-.02s-.03-.21.07-.29c.11-.08.26-.07.33.01Z" fill="#0168B7"/></svg>