<!-- by TradingView --><svg width="18" height="18" viewBox="0 0 18 18" xmlns="http://www.w3.org/2000/svg"><path fill="#F0F3FA" d="M0 0h18v18H0z"/><path d="M14 4H4v3.5c.24.07.74.17 1.37.17 1.01 0 2.17-.35 3.36-.71 1.3-.4 2.67-.96 3.97-.96.53 0 .96.05 1.3.12V4Z" fill="#222B64"/><path d="M14 7.67V14H4.67c1.82-.17 3.71-1.97 5.22-3.34l.92-.83A14.4 14.4 0 0 1 14 7.67Z" fill="#478CCA"/><path d="M4 13.67V12c1.48-.02 2.94-.58 5.3-2.47 1.9-1.5 3.77-2.32 4.7-2.36-.87.21-2.82 1.46-5.14 3.79-2.17 2.18-4.08 2.73-4.86 2.7Z" fill="#3E74B2"/><path d="M4 11.66v-1.7c.17.03.35.04.54.04 1.22 0 2.81-.63 4.93-1.95A8.08 8.08 0 0 1 14 6.68h-.05c-.92.13-2.47.34-5.28 2.75C6.5 11.3 4.72 11.7 4 11.66Z" fill="#345C98"/><path d="M4 9.62V7.85c.36.08.83.15 1.4.15 1.21 0 2.33-.35 3.47-.7 1.2-.38 2.42-.97 3.83-.97.47 0 1.06.08 1.3.11-1.14 0-2.5.13-5.01 1.44C6.47 9.2 5.23 9.67 4.64 9.67c-.31 0-.52-.02-.64-.05Z" fill="#2F4580"/></svg>