<!-- by TradingView --><svg width="18" height="18" viewBox="0 0 18 18" xmlns="http://www.w3.org/2000/svg"><path fill="#F0F3FA" d="M0 0h18v18H0z"/><path fill-rule="evenodd" d="M4.43 11.93a.66.66 0 0 1-.07-.25.1.1 0 0 1 .05-.1 7.26 7.26 0 0 1 1.34-.81 3.53 3.53 0 0 1 1.64-.15 12.46 12.46 0 0 1 1.71.37c.5.13 1.03.18 1.59.13.34-.02.86-.1 1.57-.25l.8-.16a2.2 2.2 0 0 1 1.79.45c.13.1.18.07.14-.1-.13-.53-.27-1.02-.43-1.45-.06-.18-.21-.52-.45-1.02-.3-.65-.51-1.12-.62-1.43-.07-.2-.1-.36-.1-.48 0-.14.06-.27.17-.39.03-.03.03-.06-.01-.08l-.96-.5a2.25 2.25 0 0 0-2-.01l-.16.07c-.32.14-.55.22-.7.25-.24.05-.5.03-.78-.04l-.56-.19a5 5 0 0 0-.8-.25 8.65 8.65 0 0 0-3.07.03c-.22.04-.26-.04-.12-.23l.09-.12a.13.13 0 0 0 .02-.11.11.11 0 0 0-.07-.08.95.95 0 0 0-.38-.02c-.04 0-.05.02-.06.06 0 .12.02.24.09.35a7.85 7.85 0 0 1-.04 6.59c-.04.28-.05.6-.03.93 0 .03.02.05.05.05l.32.01c.05 0 .07-.02.07-.07l-.02-.94v-.06Zm.21-4.63-.18-.92c-.06-.31-.1-.3-.12 0v.37a167.55 167.55 0 0 1 .02 4.72h.04c.1-.09.19-.2.24-.33.24-.58.34-1.22.3-1.92-.02-.42-.12-1.06-.3-1.92Z" fill="#3266CC"/><path d="M9.1 7.81s-.02 0-.02.02l-.02.01c-.02 0-.03-.01-.04-.04l.01-.05c.28-.36.8-.42 1.54-.18a.09.09 0 0 1 .04.15l-.17.19c-.05.06-.12.07-.2.04a2.1 2.1 0 0 0-1.14-.14Z" fill="#B3C249"/><path d="m9.66 8.47-.13.25c-.06.1-.14.14-.24.1a1.3 1.3 0 0 1-.6-.38.12.12 0 0 0-.08-.04l-.92-.04v-.02l.9-.06a.1.1 0 0 0 .06-.04l.08-.1c.08-.1.15-.17.2-.2.08-.04.18-.02.3.04l.35.25c.02.02.05.03.08.03l1.37.06c.08 0 .08 0 0 .01l-1.3.09a.09.09 0 0 0-.07.05Z" fill="#FEF901"/><path d="m9.35 8.93.02-.01c.02 0 .03.01.04.03 0 .03 0 .05-.02.06-.28.36-.8.4-1.55.16a.08.08 0 0 1-.05-.06c0-.04 0-.06.02-.09l.17-.19c.05-.06.12-.07.2-.04a2.12 2.12 0 0 0 1.17.14Z" fill="#B3C249"/></svg>