<!-- by TradingView --><svg width="18" height="18" viewBox="0 0 18 18" xmlns="http://www.w3.org/2000/svg"><path fill="#F0F3FA" d="M0 0h18v18H0z"/><path d="M11.42 6H9.8c0-.36 0-1.2-.6-1.2-.47 0-.58.36-.57.55 0 .55.78 1.07 1.17 1.27 1.34.82 1.68 1.87 1.68 2.3 0 1.76-1.52 2.2-2.28 2.2-1.98 0-2.36-1.61-2.3-2.47h1.73v.55c0 .15-.07.6.57.6.52 0 .67-.4.68-.6 0-.85-1-1.2-1.94-1.9s-.88-1.51-.88-1.57c0-.08 0-2.02 2.14-2.02 1.73 0 2.28 1.34 2.23 2.29Z" fill="#EE1D23"/><path d="M3.85 11.83a2.1 2.1 0 0 1 1.43-.47c.48 0 .7.18.92.37.23.18.45.37.97.37s.76-.2.99-.39c.22-.18.43-.35.86-.35.44 0 .63.17.82.35.22.19.44.39.98.39.53 0 .75-.19.97-.37.22-.19.44-.37.96-.37.83 0 1.2.39 1.27.58l-.27.4a1.46 1.46 0 0 0-1.09-.49c-.32 0-.53.15-.76.3-.27.2-.58.4-1.13.4-.57 0-.85-.23-1.1-.43-.2-.16-.37-.3-.65-.3-.29 0-.52.16-.78.33-.3.2-.62.4-1.07.4-.5 0-.9-.23-1.25-.43-.25-.14-.46-.27-.64-.27-.44 0-.76.05-1.22.25l-.21-.27Zm9.67.76c-.2-.08-.45-.14-.77-.14-.52 0-.74.19-.96.37-.22.19-.44.37-.97.37-.54 0-.76-.2-.98-.39-.2-.18-.38-.35-.82-.35-.43 0-.64.18-.86.36-.23.19-.47.38-1 .38-.5 0-.73-.19-.96-.37-.22-.19-.44-.37-.92-.37-.39 0-.7.08-.94.17l.33.37c.2-.03.39-.04.6-.04.19 0 .4.12.65.26.34.2.75.44 1.25.44.45 0 .77-.21 1.07-.41.26-.17.5-.33.78-.33s.45.14.65.3c.25.2.53.44 1.1.44.55 0 .86-.21 1.13-.4.23-.16.44-.3.76-.3.17 0 .33.03.47.07l.39-.43Zm-.96.96c-.4.04-.58.2-.77.36-.22.18-.44.37-.97.37-.54 0-.76-.2-.98-.4-.2-.17-.38-.34-.82-.34-.43 0-.64.17-.86.35-.23.2-.47.39-1 .39-.5 0-.73-.19-.96-.37a1.26 1.26 0 0 0-.92-.37h-.02l.6.47 1.64.69c.29-.08.52-.23.74-.37.26-.17.5-.33.78-.33s.45.14.65.3c.18.15.37.3.68.39l1.62-.68.59-.46Z" fill="#0B4F88"/><path d="M12.52 4.8c-.25.05-.8.3-1.04.42.34 0 1.12 0 1.43.04.4.04.14.47.47.52.33.06.19-.72.51-.72.26 0 .85-.51 1.11-.77-.18.06-.69.21-1.29.27-.6.06-.62.36-.56.5-.11-.1-.39-.32-.63-.26Z" fill="#EE1D23"/><path d="M14.65 9a5.65 5.65 0 1 1-1.96-4.27l.42-.1a6 6 0 1 0 .87 1.02c-.08.14-.16.24-.22.31.56.88.89 1.92.89 3.04Z" fill="#0B4F88"/></svg>