<!-- by TradingView --><svg width="18" height="18" viewBox="0 0 18 18" fill="none" xmlns="http://www.w3.org/2000/svg">
<rect width="18" height="18" fill="#F0F3FA"/>
<path fill-rule="evenodd" clip-rule="evenodd" d="M8.49993 11.986L7.38254 6.24097C7.38176 6.23691 7.38194 6.23271 7.38305 6.22873C7.38416 6.22476 7.38618 6.22114 7.38893 6.21818L8.52793 5.0129C8.53114 5.00923 8.5353 5.00664 8.53989 5.00547C8.54448 5.0043 8.5493 5.00458 8.55374 5.0063C8.55817 5.00801 8.56203 5.01108 8.56482 5.0151C8.56762 5.01913 8.56922 5.02394 8.56944 5.02893L8.9154 11.986H8.49993ZM7.8077 11.9869L6.02084 7.72309C6.0102 7.69833 6.01393 7.67611 6.03202 7.65641L6.74559 6.88834C6.74781 6.88602 6.75054 6.88433 6.75355 6.88344C6.75655 6.88254 6.75972 6.88247 6.76275 6.88323C6.76579 6.88399 6.76859 6.88556 6.77089 6.88778C6.7732 6.89 6.77493 6.89281 6.77592 6.89594L8.34176 11.9869H7.8077ZM7.62103 11.9869L5.51719 8.2692C5.51474 8.26502 5.51141 8.26149 5.50746 8.25888C5.50352 8.25628 5.49906 8.25467 5.49443 8.25418C5.4898 8.25369 5.48512 8.25433 5.48077 8.25606C5.47641 8.25779 5.47248 8.26055 5.4693 8.26414L4.91456 8.89632C4.90981 8.90175 4.90697 8.90874 4.90653 8.91613C4.9061 8.92351 4.90809 8.93082 4.91217 8.93683L6.92076 11.9869H7.62103ZM6.67984 11.9869H5.70136L3.73725 10.2121C3.73276 10.2081 3.72908 10.2031 3.72643 10.1976C3.72379 10.192 3.72224 10.1859 3.72186 10.1797C3.72149 10.1735 3.72231 10.1672 3.72427 10.1614C3.72622 10.1555 3.72928 10.1501 3.73326 10.1455L4.34706 9.42972C4.35112 9.42493 4.35607 9.42109 4.3616 9.41843C4.36714 9.41577 4.37313 9.41436 4.37921 9.41428C4.38529 9.4142 4.39132 9.41546 4.39691 9.41797C4.4025 9.42048 4.40754 9.4242 4.41171 9.42887L6.67984 11.9869ZM3.1011 10.7624L2 11.9873H5.22319L3.13382 10.7574C3.12857 10.7544 3.12256 10.7533 3.11667 10.7542C3.11079 10.7552 3.10533 10.758 3.1011 10.7624Z" fill="url(#paint0_linear_229_4680)"/>
<path fill-rule="evenodd" clip-rule="evenodd" d="M9.07617 11.9861L9.42274 5.02973C9.42541 4.98134 9.4427 4.97458 9.47463 5.00947L10.5817 6.20631C10.6014 6.22713 10.6083 6.25217 10.6025 6.28143L9.50424 11.9861H9.07617ZM11.2562 6.92122L11.961 7.6665C11.9655 7.67158 11.9686 7.67798 11.9697 7.68489C11.9709 7.6918 11.97 7.69891 11.9673 7.70533L10.1992 11.9868H9.65826L11.2003 6.93556C11.202 6.92972 11.2051 6.92444 11.2094 6.92026C11.2136 6.91607 11.2188 6.91311 11.2244 6.91166C11.23 6.91022 11.2359 6.91034 11.2415 6.91201C11.247 6.91369 11.2521 6.91686 11.2562 6.92122ZM12.471 8.26914L10.3778 11.9868H11.0713L13.0808 8.9469C13.0845 8.94136 13.0863 8.93464 13.0858 8.92788C13.0854 8.92112 13.0828 8.91472 13.0784 8.90976L12.5157 8.26407C12.5127 8.26067 12.5091 8.25804 12.505 8.25641C12.5009 8.25478 12.4965 8.25418 12.4921 8.25467C12.4878 8.25517 12.4836 8.25673 12.4799 8.25924C12.4763 8.26176 12.4732 8.26514 12.471 8.26914ZM13.6268 9.42546L14.2685 10.1674C14.2708 10.17 14.2726 10.1731 14.2737 10.1764C14.2748 10.1798 14.2753 10.1833 14.2751 10.1869C14.2748 10.1905 14.2739 10.1939 14.2724 10.1971C14.2708 10.2003 14.2687 10.2031 14.2661 10.2053L12.3071 11.9868H11.2942L13.5908 9.42546C13.5932 9.42288 13.5959 9.42082 13.599 9.41942C13.6021 9.41802 13.6054 9.41729 13.6088 9.41729C13.6122 9.41729 13.6155 9.41802 13.6186 9.41942C13.6217 9.42082 13.6245 9.42288 13.6268 9.42546ZM12.724 11.9868H16.0001L14.9102 10.7827C14.89 10.7613 14.8671 10.7576 14.8416 10.7717L12.724 11.9868Z" fill="url(#paint1_linear_229_4680)"/>
<defs>
<linearGradient id="paint0_linear_229_4680" x1="8.9154" y1="11.9873" x2="5.09141" y2="8.70574" gradientUnits="userSpaceOnUse">
<stop offset="0.148236" stop-color="#B98E40"/>
<stop offset="0.648982" stop-color="#FFD886"/>
<stop offset="1" stop-color="#B98E41"/>
</linearGradient>
<linearGradient id="paint1_linear_229_4680" x1="12.5381" y1="8.11329" x2="9.07977" y2="11.7952" gradientUnits="userSpaceOnUse">
<stop stop-color="#04562C"/>
<stop offset="0.330373" stop-color="#0B7A3D"/>
<stop offset="1" stop-color="#22422B"/>
</linearGradient>
</defs>
</svg>
