<!-- by TradingView --><svg width="18" height="18" viewBox="0 0 18 18" xmlns="http://www.w3.org/2000/svg"><path fill="#F0F3FA" d="M0 0h18v18H0z"/><path d="M11.94 10.94c.18-.26.43-.47.76-.62.04-.02.06-.06.07-.1.02-.1 0-.13-.1-.09l-.15.09a.13.13 0 0 1-.08.01.08.08 0 0 1-.05-.03c-.03-.03-.03-.07 0-.1a.95.95 0 0 1 .6-.44.38.38 0 0 0 .3-.28c.03-.1 0-.12-.07-.07-.12.08-.24.15-.37.21-.1.05-.15.02-.15-.1v-.06a.47.47 0 0 1 .16-.3l.54-.46a.05.05 0 0 0 .01-.04l-.02-.09c0-.03-.02-.03-.05-.02l-.28.22c-.06.05-.12.04-.16-.02a1.4 1.4 0 0 1-.3-.7l-.03-.02h-.05c-.06 0-.08.03-.08.08.03.28.11.52.26.74.04.06.06.14.04.21a.56.56 0 0 1-.1.26.1.1 0 0 1-.1.03c-.05 0-.08-.03-.09-.08l-.1-.46c-.01-.04-.03-.05-.06-.04l-.06.02c-.04.03-.06.06-.05.12.04.24.13.48.27.72.03.06.04.12.03.18a.23.23 0 0 1-.1.15c-.12.07-.19.06-.22-.03-.05-.17-.1-.17-.16 0v.07c.2.4.13.74-.21 1 .02.03 0 .06-.07.07-.06-.05-.07-.08-.04-.07.04-.18.03-.38-.05-.6a.24.24 0 0 1 0-.16c.1-.21.14-.45.14-.73 0-.02 0-.03-.03-.03l-.08-.02c-.02 0-.03 0-.04.02a.06.06 0 0 0-.02.05c.02.23-.04.39-.18.47a.14.14 0 0 1-.16-.01l-.32-.24a.3.3 0 0 1-.11-.19.32.32 0 0 0-.16-.22c-.07-.05-.1-.03-.08.06l.16.6c.01.05 0 .08-.03.11a.08.08 0 0 1-.1 0c-.26-.15-.4-.36-.42-.6 0-.16-.05-.35-.12-.57a9.6 9.6 0 0 0-.25-.68c-.03-.05-.07-.07-.12-.04l-.04.02v.02c.16.37.28.75.38 1.15.01.06 0 .11-.06.14-.03.02-.06.02-.1 0l-.55-.56a.23.23 0 0 1-.06-.13C9.2 8.17 9 7.63 8.7 7.12c-.03-.04-.06-.04-.1-.02l-.03.03v.01c.25.46.43.91.54 1.35.05.2 0 .23-.16.1l-.5-.42a.2.2 0 0 1-.08-.14A4.48 4.48 0 0 0 7.62 6L7.58 6c-.03.03-.04.06-.02.1.33.51.55 1.09.66 1.73 0 .03 0 .06-.03.08H8.1l-.67-.47a.46.46 0 0 1-.2-.32 5.02 5.02 0 0 0-.68-1.83c-.02-.04-.04-.04-.07-.02l-.04.02c-.02.01-.02.03-.01.04.26.41.47.92.63 1.52.04.14.04.27 0 .38a.39.39 0 0 1-.24.26c-.5.2-1 .2-1.5 0-.02 0-.04 0-.05.02l-.02.04c-.01.02-.02.03-.01.05 0 .01.01.03.03.03.67.26 1.3.21 1.86-.15a.11.11 0 0 1 .13 0l.7.43c.22.14.2.23-.04.28a4.9 4.9 0 0 1-.91.16c-.26.01-.49-.02-.7-.1-.02-.01-.04 0-.05.02l-.02.05c0 .03 0 .04.02.05.26.11.6.15 1 .1.26-.03.59-.1 1-.23.06-.02.11 0 .16.04.2.17.4.32.6.46.15.1.14.19-.01.27-.18.1-.37.16-.58.2a4.7 4.7 0 0 1-.56.04l-.43.03c-.03 0-.05.02-.06.05 0 .04 0 .06.04.06.73.08 1.32-.03 1.77-.34.06-.04.1-.03.16 0l.47.39c.02.02.03.04.03.07l-.01.05c-.51.17-1.03.23-1.56.18-.02 0-.03 0-.03.03v.05c0 .04.02.07.06.07.59.06 1.13 0 1.64-.2a.16.16 0 0 1 .17.04l.38.37c.1.1.08.15-.06.16h-.6c-.06 0-.09.04-.08.1.01.04.03.06.07.07.28.03.52.02.74-.04.12-.03.22 0 .32.08l.62.55c.03.07.04.14.01.24-.1.21-.25.41-.43.6a.45.45 0 0 1-.2.12.97.97 0 0 1-.22.02h-.13c-.07 0-.09-.03-.05-.1a.92.92 0 0 1 .88-.51c.03 0 .04-.02.04-.05v-.1c0-.03-.02-.05-.05-.04l-.45.09c-.06 0-.1-.01-.14-.06-.1-.12-.21-.23-.34-.34a.21.21 0 0 0-.2-.04c-.1.03-.1.07-.02.12l.26.16a.2.2 0 0 1 .09.13c0 .06 0 .11-.03.16-.08.15-.14.32-.18.5 0 .04-.03.07-.07.1l-.36.17v.09c.02.03.04.04.07.03l.64-.17c.03-.01.06 0 .07.03.02.03.02.06 0 .09l-.19.2a.29.29 0 0 1-.23.09c-.41 0-.82.07-1.23.24-.04.01-.06.05-.05.1l.02.04c.01.05.04.06.09.05.29-.12.6-.2.94-.24.1 0 .17.02.24.1a.3.3 0 0 1 .06.25l-.06.37c-.01.1.02.13.1.09a.12.12 0 0 0 .06-.06c.14-.24.15-.5.06-.78-.03-.07-.01-.12.04-.16a.88.88 0 0 0 .2-.23c.1-.16.17-.15.2.05a.5.5 0 0 1-.02.24c-.02.04 0 .07.04.07h.07c.04-.2.06-.37.04-.55 0-.06.01-.12.05-.17l.43-.48c.08 0 .13.05.12.17l-.03.49c0 .06-.03.1-.07.14-.03.02-.06.02-.1 0-.06-.05-.1-.03-.12.06a2.3 2.3 0 0 1-.41 1.08.12.12 0 0 1-.1.05h-.12a.15.15 0 0 0-.15.1 2.2 2.2 0 0 1-.49.61.15.15 0 0 1-.15.04l-.1-.03c-.05-.02-.1 0-.13.04-.16.2-.35.31-.58.34a.2.2 0 0 1-.16-.05c-.06-.05-.12-.06-.19-.02-.2.12-.4.26-.56.43-.1.1-.12.08-.1-.06l.09-.6c0-.1.04-.22.1-.34.02-.07.08-.18.16-.32l.18-.36c.12-.3.07-.34-.15-.12-.13.12-.28.22-.48.3-.23.1-.4.12-.53.04a.17.17 0 0 0-.15-.02c-.21.06-.46.08-.72.06-.07 0-.1-.04-.07-.11l.03-.12c.03-.1.07-.18.12-.23.27-.28.49-.6.65-.97.1-.12.24-.18.44-.19.06 0 .07-.02.02-.07-.04-.05-.11-.06-.2-.02a6.7 6.7 0 0 1-.36.13c-.28-.28-.74-.5-1.37-.65-.13-.04-.14-.02-.02.06.18.11.41.2.71.27a.4.4 0 0 1 .2.1l.35.35c.04.04.05.08.03.14-.13.28-.3.52-.51.72a.25.25 0 0 0-.08.14c-.02.12-.1.2-.24.22-.22.03-.4.03-.52 0-.27-.09-.28-.19-.02-.3.32-.16.56-.46.72-.9.16.03.27.02.33-.03.04-.05.03-.07-.03-.06l-.33.03-1.02-.33c-.04 0-.06 0-.05.05v.07c0 .03.01.05.04.05.28.02.53.1.75.25.1.07.12.15.05.25-.15.2-.33.38-.54.52-.13.1-.27.1-.41.01a1.93 1.93 0 0 0-.58-.23c-.07-.02-.08-.05-.03-.1.1-.1.19-.23.27-.38.1-.2.13-.34.1-.45a.48.48 0 0 1 .13-.49c.2-.2.37-.43.5-.67.1-.22.3-.4.57-.56.23-.12.48-.2.76-.26.02 0 .02-.01.03-.03v-.06c.02-.07-.01-.1-.08-.11-.45 0-.87-.1-1.26-.25a.25.25 0 0 1-.14-.14.52.52 0 0 0-.16-.21.83.83 0 0 0-.2-.1.6.6 0 0 1-.28-.18c-.05-.07-.06-.13-.02-.21a.15.15 0 0 0-.01-.17 5.38 5.38 0 0 1-.62-1.14c-.03-.07-.02-.13.04-.18.07-.06.08-.13.02-.2a2.02 2.02 0 0 1-.32-.54.25.25 0 0 1 .01-.22.88.88 0 0 0 .09-.69c-.01-.02 0-.05.01-.07a.07.07 0 0 1 .07-.03c.13 0 .25-.01.38-.06.07-.02.18-.08.31-.15.16-.1.28-.15.38-.18.15-.05.3-.05.47 0h.04c.14 0 .22-.04.23-.12.01-.07.05-.1.12-.09.13.02.25 0 .37-.09.06-.04.11-.03.16.02l.42.4c.06.06.11.06.16 0l.1-.07c.04-.05.1-.06.16-.03.4.21.76.52 1.06.9.1.13.21.18.35.17.05-.01.07-.04.06-.1a1.5 1.5 0 0 1 .23-1.2.3.3 0 0 0 .05-.16l.03-.45c.02-.2.12-.3.3-.31.04 0 .08-.03.1-.07l.3-.59c.03-.06.07-.07.11-.02.25.24.47.5.66.77.04.04.08.06.13.06l.12-.02c.05 0 .1.02.12.08.05.13.08.27.09.43 0 .07.03.08.07.03a.1.1 0 0 1 .06-.04c.1-.02.17.02.21.11.21.42.33.87.37 1.35.01.06.04.11.1.14l.05.01c.06.03.1.09.08.16a172.6 172.6 0 0 1-.13 1.17l.05.01a.1.1 0 0 0 .07 0 .1.1 0 0 0 .05-.07c.07-.33.24-.63.5-.88.04-.04.07-.03.1 0l.08.07c.02.02.05.02.08.01.03 0 .06-.02.07-.05a.7.7 0 0 1 .39-.33c.06-.02.1 0 .12.08.06.24.12.47.2.69.05.2-.01.32-.21.36-.06.01-.1 0-.14-.05a.35.35 0 0 1-.06-.16c0-.07-.04-.11-.09-.13a.11.11 0 0 0-.05-.02c-.05 0-.08.03-.1.07a.11.11 0 0 0 .02.13c.17.19.2.39.07.6-.05.07-.03.08.04.03a1 1 0 0 0 .26-.29.12.12 0 0 1 .12-.06l.33.02c.07 0 .1.05.07.12-.08.28-.18.53-.3.75a.41.41 0 0 0-.06.23c0 .1.04.16.1.2.05.03.06.07.03.11-.13.2-.23.4-.29.62-.02.08 0 .14.06.2.02.01.04.04.04.07 0 .03 0 .06-.02.09A4.3 4.3 0 0 1 12 10.97c-.05 0-.07 0-.06-.03Z" fill="#1E1A1B"/><path d="M10.35 4.48c.12-.13.2-.3.26-.49 0-.02.01-.02.03-.02h.06c.05 0 .07.02.05.08-.09.23-.21.43-.37.61a.22.22 0 0 0-.05.18l.02.24c.02.1 0 .12-.06.02a.64.64 0 0 1-.08-.29.18.18 0 0 0-.08-.14c-.3-.22-.46-.48-.48-.77 0-.17.02-.18.07-.02.1.3.25.51.46.64.06.04.12.02.17-.04Z" fill="#F0F3FA"/><path d="m10.59 5.2.3-.6c.06-.12.08-.11.06.02-.03.23-.13.44-.28.64a.8.8 0 0 0-.17.37c-.03.19.01.38.12.56v.01l-.04.02c-.04.02-.07.01-.1-.03a1.43 1.43 0 0 1-.09-.43.25.25 0 0 0-.1-.2 2.9 2.9 0 0 1-.74-.88c-.01-.02-.01-.05 0-.07l.04-.04h.02l.5.69c.07.09.15.12.26.11.1-.01.17-.07.22-.17ZM5.46 6.07a2.9 2.9 0 0 0-.4-.82c-.03-.02-.02-.04 0-.06l.05-.04c.03-.03.06-.02.08.02l.51 1.09c.04.07.01.1-.06.1a.9.9 0 0 0-.35.06c-.31.12-.63.1-.93-.06-.02 0-.02-.02-.01-.04l.01-.04c.02-.04.04-.05.08-.03a1 1 0 0 0 .97-.03c.05-.04.07-.09.05-.15Z" fill="#F0F3FA"/><path d="M6.3 6.82A2.46 2.46 0 0 0 6.12 6a6.37 6.37 0 0 0-.41-.75v-.04l.05-.03.04.01c.34.47.54.91.63 1.32.05.3.21.5.47.6.02 0 .03.02.02.04-.01.03-.03.03-.05.02a1.9 1.9 0 0 0-.28-.15.2.2 0 0 0-.13 0c-.56.14-1.14.14-1.74-.02-.02 0-.02-.02-.02-.04l.01-.06c.01-.03.03-.05.07-.04.45.14.94.16 1.47.05.05-.01.07-.04.07-.1ZM10.63 7.26c.1.03.12 0 .1-.1l-.14-.42a.3.3 0 0 0-.14-.17 2.92 2.92 0 0 1-1.03-.97l.01-.03.03-.03c.03-.02.06-.02.08.01.22.3.49.57.8.8.18.13.33.1.46-.07a6.17 6.17 0 0 0 .64-1.1c.01 0 .02 0 .03.02l.04.05v.04c-.2.48-.44.9-.74 1.23-.08.1-.1.2-.06.32.03.08.05.17.05.26 0 .19.06.22.18.1.3-.3.54-.63.75-1.02.01-.02.03-.03.06-.01l.04.02c.02.02.02.04.01.06-.23.42-.5.8-.84 1.13a.15.15 0 0 0-.04.14c.02.11.04.23.03.34 0 .03 0 .04-.03.04-.02 0-.03-.01-.03-.04a.7.7 0 0 0-.11-.38.2.2 0 0 0-.13-.08 2.35 2.35 0 0 1-1.31-.94V6.4l.04-.02c.02-.02.04-.02.06 0 .34.43.74.72 1.2.87Z" fill="#F0F3FA"/><path d="m9.9 9.46-.05.11v-.05c.01-.03 0-.05-.02-.07l-.47-.38c-.05-.04-.1-.05-.16-.01-.45.3-1.04.42-1.77.34-.03 0-.05-.02-.04-.06 0-.03.03-.05.06-.05l.43-.03c.25 0 .44-.02.56-.04.2-.04.4-.1.58-.2.15-.08.16-.17.01-.27-.2-.14-.4-.3-.6-.46a.17.17 0 0 0-.17-.04c-.4.12-.73.2-1 .23-.4.05-.73.01-.99-.1-.02 0-.03-.02-.02-.05l.02-.05c0-.02.03-.03.05-.02.21.08.44.11.7.1a4.9 4.9 0 0 0 .9-.16c.26-.05.27-.14.05-.28l-.7-.43a.11.11 0 0 0-.13 0c-.57.36-1.19.41-1.86.15a.05.05 0 0 1-.03-.03v-.05l.03-.04c.01-.01.03-.02.04-.01.5.2 1 .19 1.51 0 .12-.05.2-.14.24-.27a.69.69 0 0 0 0-.38 5.38 5.38 0 0 0-.62-1.56l.04-.02c.03-.02.05-.02.07.02.36.58.58 1.2.69 1.83.02.14.08.25.2.32l.66.47h.08c.02-.02.03-.05.03-.08a4.63 4.63 0 0 0-.66-1.74c-.02-.03-.01-.06.02-.09L7.62 6h.01c.42.62.66 1.3.74 2.04 0 .06.03.1.07.14l.51.43c.16.12.2.09.16-.11a5.58 5.58 0 0 0-.54-1.36l.04-.03c.03-.02.06-.02.09.02.3.5.5 1.05.58 1.64.01.05.03.1.06.13l.55.57ZM4.77 5.69c.04.01.07.04.1.08.04.05.03.06-.02.04a1.35 1.35 0 0 1-.38-.21c-.12-.1-.1-.13.04-.1.05.02.1.06.17.13l.09.06ZM10.91 8.17a1.8 1.8 0 0 1-1.07-.66v-.03l.01-.07c.02-.04.03-.04.06-.01.32.38.67.58 1.05.6.08 0 .15-.02.2-.08.26-.3.45-.6.58-.94.02-.05.05-.05.08-.02l.04.04v.01c-.15.42-.38.78-.69 1.1a.24.24 0 0 0-.07.16c0 .1.02.21.06.31 0 .02 0 .02-.02.02h-.05c-.06 0-.07-.04-.03-.11a.22.22 0 0 0 0-.2.2.2 0 0 0-.15-.12ZM13.45 7.78a.27.27 0 0 1 .1-.08c.07-.03.09-.01.07.06a.31.31 0 0 1-.13.2c-.18.11-.33.24-.46.4-.08.09-.1.08-.04-.03 0-.03.02-.05.03-.08a.17.17 0 0 0 0-.16l-.05-.1c-.1-.18-.16-.32-.2-.42-.06-.18-.07-.32-.03-.43.03-.08.06-.08.1 0 .06.15.11.32.15.5.02.12.09.2.2.23.1.04.2 0 .26-.09Z" fill="#F0F3FA"/><path d="M11.03 9.01a.8.8 0 0 1-.36-.2c-.06-.04-.05-.07.03-.08.07 0 .13.02.2.07.04.04.09.06.14.06.23 0 .36-.16.4-.46.01-.1.04-.1.08-.02.07.13.05.27-.06.4-.07.1-.12.2-.12.33 0 .08 0 .2.03.35l.03.22c0 .1-.01.11-.05.02a1.16 1.16 0 0 1-.08-.27.86.86 0 0 0-.11-.33.21.21 0 0 0-.13-.09Z" fill="#F0F3FA"/><path d="M11.68 10.9a.3.3 0 0 1-.1.02.1.1 0 0 1-.07-.04c-.2-.18-.37-.36-.54-.54a.22.22 0 0 1-.05-.14l-.02-.3c0-.08.02-.1.08-.03.13.14.27.25.43.33.06.02.1.07.11.13l.16.57Z" fill="#1E1A1B"/><path d="M9.17 11.7v-.1c.2-.03.34-.05.45-.05.32 0 .35-.1.1-.31a7.98 7.98 0 0 0-.99-.66c-.03-.02-.04-.05 0-.08l.03-.04a4.8 4.8 0 0 1 1.36.91c.04.04.09.06.15.05l.08-.02c.13 0 .13.03.03.1a.74.74 0 0 1-.24.1.2.2 0 0 0-.13.1c-.13.19-.28.37-.45.55a.08.08 0 0 1-.1.02.07.07 0 0 1-.04-.05l.01-.06.21-.28c.2-.22.16-.3-.12-.2-.05 0-.17.02-.35.02Z" fill="#F0F3FA"/><path d="M9.17 11.6v.1c-.2.43-.45.82-.78 1.16-.01.02-.03.02-.05 0l-.05-.04v-.02c.28-.34.47-.61.6-.84.07-.14.08-.27.01-.38a1.02 1.02 0 0 0-.29-.25 3.78 3.78 0 0 0-1.21-.57c-.01 0-.02-.01-.01-.02v-.05c.02-.05.05-.06.09-.05.63.18 1.19.5 1.69.96Z" fill="#F0F3FA"/><path d="M8.14 12c-.16.39-.38.72-.67.99-.02.02-.04.02-.06 0l-.03-.04v-.03c.27-.28.48-.59.63-.92a.32.32 0 0 0-.09-.37 3.52 3.52 0 0 0-1.5-.71c-.02 0-.03-.01-.03-.03v-.06c0-.02.02-.03.03-.03.68.1 1.24.38 1.7.87.05.04.1.07.15.08.14.03.28.01.44-.05l.02.01v.07c-.19 0-.35.04-.48.1a.2.2 0 0 0-.1.12Z" fill="#F0F3FA"/><path d="M7.36 12.09c.02-.05-.02-.1-.1-.15l.35-.13c.1-.04.17-.03.21.02.05.05.04.07-.02.07-.2.01-.34.07-.44.19ZM5.4 12.42c.22-.05.4-.12.4-.14 0-.03-.2-.01-.43.04-.23.05-.42.12-.41.15 0 .02.2 0 .43-.05ZM9.88 13.3l.1.6c0 .04-.02.06-.06.06h-.07c-.05 0-.07-.02-.05-.07a.56.56 0 0 0-.04-.36.16.16 0 0 0-.14-.1c-.25-.02-.5.05-.71.2-.03.02-.05.02-.07 0l-.02-.04v-.01c.26-.25.56-.39.92-.4.08-.01.13.03.14.11Z" fill="#F0F3FA"/><path d="M9.14 14c.16-.14.29-.28.27-.3-.01-.01-.16.1-.32.24-.17.15-.3.28-.28.3.01.02.16-.09.33-.23Z" fill="#F0F3FA"/></svg>