<!-- by TradingView --><svg width="18" height="18" viewBox="0 0 18 18" xmlns="http://www.w3.org/2000/svg"><path fill="#F0F3FA" d="M0 0h18v18H0z"/><path d="M9.67 5.9a2.26 2.26 0 0 0-.87 2.86c.13.31.58.93 1.57 1.24 1.07.15 1.9-.57 2.32-1.55l1.3-3.12c0-.03-.02-.07-.05-.06l-3 .3a3.8 3.8 0 0 0-1.27.32Zm-.5 2.74c-.57-1.4.34-2.5 1.66-2.64.83-.1 1.66-.17 2.49-.24.02 0 .04.02.03.04-.32.8-.66 1.63-.99 2.4-.54 1.3-2.04 2.12-3.18.44Z" fill="#BBD72D"/><path d="M12.12 8.68a2.1 2.1 0 0 0-2.9.02c-.25.23-.69.86-.67 1.93.2 1.1 1.1 1.7 2.14 1.8 1.09.13 2.18.23 3.26.34.04 0 .06-.04.05-.07l-1.2-2.87a4.06 4.06 0 0 0-.68-1.15Zm-2.67.36c1.1-1 2.39-.43 2.93.82.34.79.66 1.58.98 2.38 0 .02-.01.04-.03.04-.83-.07-1.7-.15-2.52-.24-1.35-.14-2.56-1.36-1.36-3Z" fill="#BCCD8C"/><path d="M6.83 6.9c1.25-.14 2.14.8 2.34 1.79.06.33.06 1.1-.57 1.96-.78.76-1.86.7-2.76.16L3.02 9.08C3 9.06 3 9 3.02 9c.87-.54 1.73-1.07 2.6-1.59.4-.24.92-.48 1.21-.51ZM8.8 8.82c-.34-1.48-1.69-1.8-2.84-1.13-.72.43-1.44.87-2.15 1.33-.02 0-.02.04 0 .05l2.17 1.34c1.17.71 2.85.47 2.82-1.6Z" fill="#43A8AE"/><path d="M10.38 11.9a2.26 2.26 0 0 0-.91-2.86c-.29-.17-1-.4-1.98-.05-.95.52-1.23 1.6-1 2.65.22 1.12.46 2.22.7 3.32 0 .03.05.05.07.03l2.27-2.06a4 4 0 0 0 .85-1.03ZM9.23 9.38c1.25.78 1.13 2.22.15 3.13-.63.58-1.26 1.15-1.9 1.7-.01.02-.04 0-.04-.01l-.56-2.56c-.28-1.36.47-2.94 2.35-2.26Z" fill="#91C0AE"/><path d="M10.38 6.1a2.26 2.26 0 0 1-.91 2.85c-.29.17-1 .4-1.98.06-.95-.53-1.23-1.61-1-2.66.22-1.11.46-2.22.7-3.32 0-.03.05-.04.07-.02l2.27 2.06c.34.3.73.75.85 1.03ZM9.23 8.62c1.25-.8 1.13-2.23.15-3.14a84.25 84.25 0 0 0-1.9-1.7c-.01-.01-.04 0-.04.02l-.56 2.55c-.28 1.37.47 2.94 2.35 2.27Z" fill="#156D80"/><path d="M9.75 7.09c.07 0 .12-.06.12-.13a.13.13 0 0 0-.12-.13.13.13 0 0 0-.13.13c0 .07.06.13.13.13ZM9.6 7.54c.07 0 .13-.06.13-.13a.13.13 0 0 0-.13-.14.13.13 0 0 0-.12.14c0 .07.05.13.12.13Z" fill="#146D80"/><path d="M7.45 7.87c.07 0 .12-.06.12-.13a.12.12 0 0 0-.12-.13.12.12 0 0 0-.12.13c0 .07.05.13.12.13Z" fill="#43A8AE"/><path d="M9.47 7.98c.07 0 .13-.05.13-.13a.13.13 0 0 0-.13-.13.13.13 0 0 0-.13.13c0 .08.06.13.13.13Z" fill="#146D80"/><path d="M7.81 8.14c.07 0 .12-.06.12-.13a.13.13 0 0 0-.12-.13.13.13 0 0 0-.12.13c0 .07.05.13.12.13ZM8.18 8.42c.07 0 .13-.06.13-.13a.13.13 0 0 0-.13-.14.13.13 0 0 0-.13.14c0 .07.06.13.13.13Z" fill="#43A8AE"/><path d="M10.71 9.1c.07 0 .13-.05.13-.12a.13.13 0 0 0-.13-.13.13.13 0 0 0-.12.13c0 .07.06.12.12.12ZM11.17 9.11c.07 0 .12-.06.12-.13a.13.13 0 0 0-.12-.12.13.13 0 0 0-.12.12c0 .07.05.13.12.13Z" fill="#BBD72D"/><path d="M8.19 9.8c.07 0 .13-.05.13-.12a.13.13 0 0 0-.13-.13.13.13 0 0 0-.13.13c0 .07.06.13.13.13ZM7.82 10.08c.07 0 .13-.06.13-.13a.13.13 0 0 0-.13-.13.13.13 0 0 0-.12.13c0 .07.05.13.12.13Z" fill="#91C0AE"/><path d="M9.47 10.24c.07 0 .13-.06.13-.13a.13.13 0 0 0-.13-.13.13.13 0 0 0-.13.13c0 .07.06.13.13.13Z" fill="#BCCD8C"/><path d="M7.45 10.36c.07 0 .13-.06.13-.13a.12.12 0 0 0-.13-.12.12.12 0 0 0-.12.12c0 .07.06.13.12.13Z" fill="#91C0AE"/><path d="M9.5 10.54c-.01.07.03.14.1.15.06 0 .12-.05.13-.12 0-.08-.04-.15-.1-.15-.06-.01-.12.04-.13.12ZM9.63 10.99c0 .07.04.14.1.14.07 0 .13-.05.13-.13 0-.07-.04-.14-.1-.14-.07 0-.13.05-.13.13Z" fill="#BCCD8C"/></svg>