<!-- by TradingView --><svg width="18" height="18" viewBox="0 0 18 18" fill="none" xmlns="http://www.w3.org/2000/svg">
<rect width="18" height="18" fill="#F0F3FA"/>
<path d="M8.99854 4.73347V3C10.3105 3.84946 11.6727 4.7388 12.9991 5.59849L12.9999 7.32205L8.99854 4.73347Z" fill="#495827"/>
<path d="M8.99978 3.00146V4.73662L6.32451 6.39776C6.31707 6.38797 6.30398 6.37732 6.28524 6.36582C5.85858 6.10429 5.4318 5.84312 5.00488 5.58231L8.99978 3.00146Z" fill="#578E44"/>
<path d="M5.00502 5.58246L6.38857 6.3596L5.02139 7.25703C5.01792 7.25931 5.01413 7.26044 5.01003 7.26044H5.00098L5.00502 5.58246Z" fill="#A1CC3A"/>
<path d="M6.39061 6.34686V8.16942L5.00098 7.27126V7.26061H5.01003C5.01413 7.26061 5.01792 7.25948 5.02139 7.2572C5.13614 7.18075 6.39061 6.34686 6.39061 6.34686Z" fill="#578E44"/>
<path d="M8.99982 6.42822L9.00013 7.27563L9.00045 8.12303L7.69237 9.00025L7.69006 9.00408L7.68967 9.00685L6.33789 8.12921C6.33994 8.12835 6.34155 8.12644 6.3427 8.12345C6.34399 8.12033 6.34604 8.11792 6.34887 8.11621L8.99982 6.42822Z" fill="#578E44"/>
<path d="M9 6.42822C10.3273 7.26917 11.6594 8.11117 12.9849 8.95425C12.99 8.95751 12.9931 8.96262 12.9942 8.96958L11.6099 9.92173V8.19029L10.3441 8.9945L9.00061 8.12303L9 6.42822Z" fill="#106BB4"/>
<path d="M5.00058 7.27118L6.32271 8.11773L6.33792 8.12923L7.6897 9.00688L9.00452 9.8596L9.00414 11.5642C9.00414 11.5683 9.00561 11.5717 9.00856 11.5744L9.01415 11.5793C9.01145 11.5891 9.00702 11.592 9.00086 11.5878C7.67289 10.7303 6.34241 9.87032 5.00943 9.00794C5.00656 9.00613 5.00418 9.0035 5.00252 9.00032C5.00086 8.99714 4.99999 8.99353 5 8.98984L5.00058 7.27118Z" fill="#495827"/>
<path d="M11.6088 9.91668L9.01441 11.5793L9.00882 11.5744C9.00587 11.5717 9.00439 11.5683 9.00439 11.5642L9.00478 9.85958L10.3442 8.9945L11.6088 8.18005V9.91668Z" fill="#80BD51"/>
<path d="M13 8.9696L13 12.4163C13 12.4213 12.9989 12.4261 12.9966 12.4304C12.9944 12.4347 12.9912 12.4383 12.9873 12.4408L9 15V13.3088C9.89413 12.7306 10.7702 12.1533 11.6654 11.5772C11.6708 11.5736 11.6776 11.5667 11.6858 11.5563C11.7073 11.5644 12.8508 10.8129 12.9738 10.7334L12.9768 10.7301L12.9779 10.7257L12.9769 10.7213L12.974 10.7181L11.61 9.92034L13 8.9696Z" fill="#A3DAF6"/>
<path d="M11.6089 9.91418L12.9742 10.7181C12.9754 10.7188 12.9764 10.7199 12.9771 10.7213C12.9777 10.7226 12.9781 10.7241 12.9781 10.7257C12.9781 10.7273 12.9777 10.7288 12.9769 10.7301C12.9762 10.7315 12.9752 10.7326 12.974 10.7334L11.6089 11.6165V9.91418Z" fill="#106BB4"/>
<path d="M9.00001 13.3089V15.0001L5 12.4406L5.00001 10.7479L5.00078 10.7449L5.00279 10.7427L5.00553 10.7418L5.00078 10.7449L9.00001 13.3089Z" fill="#106BB4"/>
</svg>
