<!-- by TradingView --><svg width="18" height="18" viewBox="0 0 18 18" xmlns="http://www.w3.org/2000/svg"><path fill="#F0F3FA" d="M0 0h18v18H0z"/><path d="M5.33 4C4.6 4 4 4.6 4 5.33v4.83c.72-.66 2.05-.83 2.67-.83h3c.1 0 .33-.1.33-.5s-.22-.5-.33-.5h-2c-.45 0-1.34-.26-1.34-1.33s.67-1.33 1-1.33h4l-.16.66h-2.5c-.23 0-.67.14-.67.67s.44.67.67.67h1.66c1 0 1.34.5 1.34 1.33 0 .67-.45 1.17-.67 1.33.96.22 2.2 1.37 3 2.25V5.33C14 4.6 13.4 4 12.67 4H5.33Z" fill="#0065B6"/><path d="M12.88 13.98C11.67 10.93 7.28 10 6 10c-.9 0-1.63.16-2 .28v2.39C4 13.4 4.6 14 5.33 14h7.34c.07 0 .14 0 .2-.02Z" fill="#14528F"/></svg>