<!-- by TradingView --><svg width="18" height="18" viewBox="0 0 18 18" xmlns="http://www.w3.org/2000/svg"><path fill="#F0F3FA" d="M0 0h18v18H0z"/><path d="M6 13.45v-1.62c1.25.53 1.9.8 2.62.8.72 0 1.56-.28 1.56-1.2 0-.93-1-1.45-1.62-1.73-.61-.28-2.54-1.05-2.54-3.04 0-2 1.5-2.66 3-2.66a6.3 6.3 0 0 1 2.62.56V6a5.97 5.97 0 0 0-2.12-.6s-1.67-.1-1.67.95c0 1.04 1.2 1.5 2.03 1.94.83.45 2.12 1.32 2.12 2.8 0 1.47-.8 2.91-2.93 2.91-1.71 0-2.76-.37-3.07-.55Z" fill="url(#a)"/><defs><linearGradient id="a" x1="6.64" y1="4" x2="6.64" y2="14" gradientUnits="userSpaceOnUse"><stop stop-color="#00ABE9"/><stop offset="1" stop-color="#0071BD"/></linearGradient></defs></svg>