<!-- by TradingView --><svg width="18" height="18" viewBox="0 0 18 18" xmlns="http://www.w3.org/2000/svg"><path fill="#F0F3FA" d="M0 0h18v18H0z"/><path fill-rule="evenodd" d="M9 14A5 5 0 1 0 9 4a5 5 0 0 0 0 10ZM8 7.5H7V9l-.84-1.5H5v3h1V9l.86 1.5H8v-3Zm3.94 3-.46-.91-.48.91h-1l1-1.61-.84-1.39h1.05l.39.76.36-.76H13l-.92 1.46.93 1.54h-1.06Zm-2.44-3h-1v3h1v-3Z" fill="url(#a)"/><defs><linearGradient id="a" x1="9" y1="14" x2="9" y2="4.25" gradientUnits="userSpaceOnUse"><stop offset=".04" stop-color="#0B2D88"/><stop offset=".22" stop-color="#08B4EA"/><stop offset=".34" stop-color="#06B2E9"/><stop offset=".59" stop-color="#01ADE6"/><stop offset=".67" stop-color="#00A4DF"/><stop offset=".74" stop-color="#0098D6"/><stop offset=".8" stop-color="#0088C9"/><stop offset=".86" stop-color="#0074BA"/><stop offset=".91" stop-color="#005DA8"/><stop offset=".96" stop-color="#044496"/><stop offset="1" stop-color="#0B2D88"/></linearGradient></defs></svg>