<!-- by TradingView --><svg width="18" height="18" viewBox="0 0 18 18" fill="none" xmlns="http://www.w3.org/2000/svg">
<rect width="18" height="18" fill="#1C2045"/>
<path fill-rule="evenodd" clip-rule="evenodd" d="M14 9C14 6.23858 11.7614 4 9 4C6.23858 4 4 6.23858 4 9C4 11.7614 6.23858 14 9 14C11.7614 14 14 11.7614 14 9ZM13 9C13 6.79087 11.2091 5 9 5C6.79087 5 5 6.79087 5 9C5 11.2091 6.79087 13 9 13C11.2091 13 13 11.2091 13 9Z" fill="#F0F3FA"/>
<path fill-rule="evenodd" clip-rule="evenodd" d="M8.34105 4.62961C8.34105 4.62961 6.5 5.24577 6.5 6.94838C6.5 8.651 7.78975 9.12121 8.487 9.70497C9.18424 10.2887 10.0433 10.7877 10.0433 11.6471C10.0433 12.5065 9.37527 13.2458 8.10415 13.1456C6.83304 13.0453 8.487 13.6291 8.487 13.6291L10.0923 13.3048L10.0433 13.1111C10.0433 13.1111 11.5 12.267 11.5 10.9535C11.5 9.64011 10.449 8.74826 9.70314 8.26182C8.95724 7.77537 8 7.3097 8 6.35299C8 5.39628 8.60013 4.9075 9.53269 4.79288C10.4652 4.67827 8.34105 4.62961 8.34105 4.62961Z" fill="#F0F3FA"/>
</svg>
