<!-- by TradingView --><svg width="18" height="18" viewBox="0 0 18 18" xmlns="http://www.w3.org/2000/svg"><path fill="#083388" d="M0 0h18v18H0z"/><path d="M5.24 7.62c.04-.12.07-.11.1 0 .04.27.18.47.41.6.23.14.47.16.72.08A.87.87 0 0 0 7 7.79a.84.84 0 0 0 0-.75c-.24-.47-.61-.64-1.13-.49-.04.01-.05 0-.02-.04a4.05 4.05 0 0 1 2.7-1.48c.04 0 .05-.02.05-.05v-.93c0-.04-.02-.05-.05-.05a4.97 4.97 0 0 0-4.47 4.1 5.07 5.07 0 0 0 .39 3.03c.01.03.04.03.07.01l.75-.52c.02-.01.02-.03.01-.05a4.06 4.06 0 0 1-.07-2.95Zm7.02.62a.83.83 0 0 0 .42-.6c.02-.12.06-.12.1 0 .33.98.3 1.96-.1 2.93 0 .02 0 .04.02.06l.74.52c.03.02.05.01.07-.02a5.04 5.04 0 0 0 .4-3.01 5 5 0 0 0-4.41-4.1c-.04-.01-.06 0-.06.04v.92c0 .04.01.05.04.06 1.09.14 1.98.64 2.68 1.5.03.03.03.04-.02.03-.5-.15-.88.01-1.12.48a.84.84 0 0 0 0 .74c.1.26.28.43.53.51.25.08.49.06.71-.06Zm-5.85 2.18a8.43 8.43 0 0 0 2.67-5.34c0-.02 0-.03.01-.02h.01l.01.02a9 9 0 0 0 3.11 5.94.1.1 0 0 1 0 .02h-.03a7.05 7.05 0 0 0-3.17-.74 7.14 7.14 0 0 0-3.2.62l.59-.5Zm.32 3.03a4.86 4.86 0 0 0 4.57-.02c.7-.37 1.3-.89 1.79-1.57.01-.02.01-.04-.01-.05l-.77-.52h-.04a4.05 4.05 0 0 1-2.62 1.63c-.04 0-.05 0-.02-.04.38-.46.38-.9 0-1.34A.78.78 0 0 0 9 11.3a.78.78 0 0 0-.62.26c-.38.44-.38.88 0 1.34.04.03.03.04-.01.03a4.05 4.05 0 0 1-2.63-1.6c-.01-.01-.03-.02-.05 0l-.76.52c-.02.02-.02.04 0 .06.5.67 1.1 1.19 1.79 1.55Z" fill="#fff"/></svg>