<!-- by TradingView --><svg width="18" height="18" viewBox="0 0 18 18" xmlns="http://www.w3.org/2000/svg"><path fill="#F0F3FA" d="M0 0h18v18H0z"/><path d="M13.27 5c.78.06 1.43.25 1.96.57 1.28.76.75 2.3-.06 3.2C12.55 11.67 8.5 13 4.74 13 3.44 12.92 2 12.37 2 10.84c.35-1.32 1.43-2.38 2.51-3.1A15.58 15.58 0 0 1 13.27 5Z" fill="#1A51A3"/><path d="m12 10.15-.01-.05a.08.08 0 0 0-.04-.03.08.08 0 0 0-.08.01c-.88.74-2.97 1.74-4.05 1.16-.56-.3-.3-1.06.05-1.43.05-.07.13-.05.13.03v1.01c0 .07.05.15.12.15h1.95c.07 0 .33-.07.33-.14v-.75c0-.06-.04-.11-.1-.11H9.08C9.03 10 9 9.99 9 9.93v-.55c0-.02 0-.04.02-.06h1.26c.03 0 .06-.04.08-.06.02-.02.04-.04.04-.07v-.46c0-.07-.05-.1-.12-.1h-.19c-.21 0-.22-.2-.02-.27a4.6 4.6 0 0 1 1.82-.23c.05 0 .08-.02.08-.07v.01c0-.05-.05-.07-.1-.07h-.62c-.1 0-.15-.07-.15-.18v-.68c0-.09.05-.14.13-.14h2.72c.04 0 .05.03.05.06v.9c0 .03-.01.04-.05.04h-.84c-.07 0-.1 0-.1.07v2.57c0 .12-.48.36-.59.36h-.29c-.09 0-.13-.05-.13-.14v-.71Z" fill="#fff"/><path d="M5.8 7.86a.3.3 0 0 0 .02.31c.03.05.08.09.14.1.46.1.82.23 1.09.38 1.01.55.64 2.06-.4 2.3-.95.2-1.85-.15-1.93-1.26 0-.05.02-.08.07-.08h.84l.03.01.01.03c.09.47.32.66.7.56a.37.37 0 0 0 .2-.12.39.39 0 0 0 .08-.2c.03-.19-.03-.32-.18-.4-.48-.23-1.5-.31-1.62-1.13-.15-1.08.71-1.42 1.6-1.35.63.05.99.47 1.08 1.12.01.07-.02.1-.09.1h-.79a.1.1 0 0 1-.06-.01.1.1 0 0 1-.03-.06c-.06-.32-.27-.5-.63-.4a.19.19 0 0 0-.13.1ZM9.08 8c-.02 0-.04 0-.05.02-.02.01-.03.03-.03.05v.42c0 .07.04.1.1.09a.79.79 0 0 1 .38.01c.08.02.08.05 0 .08-.55.24-.97.58-1.38 1.02-.07.07-.1.06-.1-.05V7.1c0-.06.03-.09.08-.09h2.27c.03 0 .05.02.05.05v.9c0 .03-.02.05-.05.05H9.08Z" fill="#fff"/><path d="M12.12 9.83c-.08.1-.12.08-.12-.05V8.4c0-.18.08-.23.23-.15.1.07.19.12.23.18.05.07.1.15.12.24.02.08.02.17 0 .25-.06.32-.2.62-.46.9Z" fill="#E6001C"/></svg>