<!-- by TradingView --><svg width="18" height="18" viewBox="0 0 18 18" xmlns="http://www.w3.org/2000/svg"><path fill="#F0F3FA" d="M0 0h18v18H0z"/><circle cx="9" cy="10" r="4" fill="url(#ab1vlctmn)"/><ellipse opacity=".2" cx="10.47" cy="8.49" rx="1.93" ry="1.95" fill="#fff"/><ellipse opacity=".2" cx="10.47" cy="8.49" rx="1.41" ry="1.42" fill="#fff"/><circle opacity=".2" cx="10.47" cy="8.49" fill="#fff" r="1.06"/><circle opacity=".2" cx="10.47" cy="8.49" fill="#fff" r=".59"/><circle opacity=".2" cx="10.47" cy="8.49" fill="#fff" r=".36"/><path d="M7.96 13.4c-.92 0-1.48-.3-1.65-.45.24.4.91 1.05 1.65 1.05.73 0 2.7-2.22 3.51-3.23a7.56 7.56 0 0 0 1.18-2.19c0-1.13-1.05-2.05-1.58-2.37-.24-.16-.72-.6-.72-1.07 0-.59.16-.84.72-1.25.56-.4.87-.02.89.27.02.3.15.35.36.35.22 0 .43-.07.43-.35 0-.27-.25-.66-1.28-.66-1.02 0-2.76.55-2.76 1.64 0 1.09.68 1.36 1.45 1.79.77.43.93.8 1.22 1.65.29.86-1.14 2.85-2 3.78-.67.75-1.23 1-1.42 1.04Z" fill="url(#bb1vlctmn)"/><defs><linearGradient id="ab1vlctmn" x1="5.54" y1="13.37" x2="10.11" y2="9.28" gradientUnits="userSpaceOnUse"><stop offset=".63" stop-color="#B79432"/><stop offset="1" stop-color="#CAAE69"/></linearGradient><linearGradient id="bb1vlctmn" x1="12.3" y1="4.03" x2="9.49" y2="13.99" gradientUnits="userSpaceOnUse"><stop stop-color="#1F2220"/><stop offset=".18" stop-color="#A52E30"/><stop offset=".33" stop-color="#A12C31"/><stop offset=".67" stop-color="#D4842E"/><stop offset="1" stop-color="#9F2C2F"/></linearGradient></defs></svg>