<!-- by TradingView --><svg width="18" height="18" viewBox="0 0 18 18" xmlns="http://www.w3.org/2000/svg"><path fill="#F0F3FA" d="M0 0h18v18H0z"/><path d="M10 13V5h2.5C14 5 15 6.03 15 7.53c0 1.5-.98 2.47-2.5 2.47h-1.78V9h1.76C13.5 9 14 8.54 14 7.53 14 6.51 13.5 6 12.46 6H11v7h-1ZM7.91 7c-.11-.9-1.09-1-1.87-1-1.1 0-1.84.37-1.84 1.12 0 .63.58.96 1.1 1.14l.51.15.85.21c.22.05.46.13.72.22.87.3 1.62.93 1.62 1.92C9 12.36 7.35 13 6 13s-2.88-.47-3-2h1.04c.08.9 1.2 1 1.95 1C6.84 12 8 11.77 8 10.74c0-.85-.97-1.11-1.63-1.29l-1.03-.27c-1-.27-2.11-.83-2.11-2.01C3.23 5.68 4.79 5 6.07 5c1.22 0 2.77.58 2.82 2H7.9Z" fill="#144C25"/></svg>