<!-- by TradingView --><svg width="18" height="18" viewBox="0 0 18 18" xmlns="http://www.w3.org/2000/svg"><path fill="#F0F3FA" d="M0 0h18v18H0z"/><path d="M5.56 4.03V4h3.7c.03.03.04.07.03.1l-.14.92L9 6.1a32.04 32.04 0 0 1-.28 1.86h.03a204.46 204.46 0 0 1 2.5-3.8.5.5 0 0 1 .18-.16h2.4l.11.03a.1.1 0 0 1 .06.06.1.1 0 0 1 0 .08c-.04.1-.1.19-.15.28a493.2 493.2 0 0 0-2.75 4.52.23.23 0 0 0-.03.18c.23.79.44 1.57.64 2.35a130.17 130.17 0 0 0 .66 2.5H8.39v-.02c-.02-.05 0-.11.03-.17.26-.41.52-.85.77-1.3a.22.22 0 0 0 .02-.17 600.48 600.48 0 0 0-.76-2.49.03.03 0 0 0-.03-.01c-.02 0-.03.01-.03.02l-.03.28-.02.24a300.2 300.2 0 0 0-.54 3.34 1.07 1.07 0 0 1-.08.28H4.14a1.39 1.39 0 0 1-.11-.03c-.02-.01-.03-.03-.03-.05.01-.05.04-.08.1-.08l.32-.04c.08-.01.08-.03 0-.06a1.07 1.07 0 0 0-.28-.07.04.04 0 0 1-.04-.03c0-.02 0-.04.02-.05a.37.37 0 0 1 .15-.06l.19-.02.17-.02c.01 0 .02-.01.02-.03h-.02c-.16 0-.31-.03-.48-.06a.06.06 0 0 1-.05-.06c0-.03 0-.05.04-.07a.6.6 0 0 1 .22-.04.7.7 0 0 0 .2-.03c.04-.01.04-.02 0-.03a2.77 2.77 0 0 0-.37-.07c-.03 0-.04-.02-.04-.05 0-.05.02-.07.07-.08.23-.02.4-.05.5-.1.04 0 .04-.02 0-.02H4.3a.08.08 0 0 1-.08-.07c-.01-.03 0-.05.02-.08a.1.1 0 0 1 .08-.03h.23c.03 0 .05-.02.05-.05 0-.02 0-.03-.03-.03l-.13-.02-.12-.02a.06.06 0 0 1-.05-.05.26.26 0 0 1 .01-.16.06.06 0 0 1 .06-.04c.16 0 .3-.02.44-.05.2-.05.2-.07 0-.08-.13 0-.27 0-.4.03-.07 0-.1-.02-.09-.08v-.02a.1.1 0 0 1 .05-.07.14.14 0 0 1 .07-.03l.52-.05c.01 0 .02 0 .02-.02v-.02c0-.03-.02-.04-.04-.04l-.5-.01a.07.07 0 0 1-.06-.04.1.1 0 0 1-.02-.06l.02-.04a.06.06 0 0 1 .04-.01l.57-.03c.02 0 .04 0 .06-.02a.08.08 0 0 0 .02-.06v-.02l-.01-.02-.58-.03-.02-.02v-.03a.06.06 0 0 1 .04-.03c.2-.02.38-.03.56-.02.04 0 .06-.02.08-.05l.02-.05c.02-.03 0-.05-.03-.06a3.02 3.02 0 0 0-.58-.01c-.02 0-.04 0-.05-.02a.07.07 0 0 1-.03-.04v-.05a.03.03 0 0 1 .03 0l.49-.04c.02 0 .05 0 .07.02.06.03.11.02.15-.02.03-.04.05-.1.04-.15l-.02-.28c0-.04-.01-.06-.05-.06-.03 0-.04.01-.05.03a.06.06 0 0 1-.06.05h-.47c-.05 0-.07-.03-.05-.08a.1.1 0 0 1 .02-.03.18.18 0 0 1 .14-.06.4.4 0 0 0 .22-.04c.05-.04.05-.06-.01-.08a.33.33 0 0 0-.2 0c-.03 0-.05 0-.07-.03a.06.06 0 0 1 0-.06l.05-.13c.01-.02.03-.02.04 0v.02c0 .02 0 .03.02.02l.1-.05a.35.35 0 0 1 .15-.06.4.4 0 0 1 .21.06h.06a.05.05 0 0 0 .03-.04l.02-.24c0-.01.01-.03.03-.03.03-.01.02-.06-.02-.14a.08.08 0 0 0-.08-.04l-.48.02c-.04 0-.06-.02-.04-.06l.02-.03a10.49 10.49 0 0 0 .66-.1.06.06 0 0 0 .01-.04v-.02c0-.03-.03-.05-.06-.05l-.53.01h-.03l-.01-.04v-.04c.2-.04.38-.05.57-.05a.1.1 0 0 0 .07-.02c.03-.03.04-.06.03-.1-.01-.03 0-.05.03-.06.01 0 .02-.01.02-.03.01-.02 0-.04-.03-.05-.07 0-.11.01-.14.07 0 .03-.03.04-.05.04l-.46-.02c-.02 0-.02 0-.02-.02v-.06l.03-.01.43-.01c.03 0 .05-.02.05-.04v-.06l-.02-.02a.06.06 0 0 0-.04-.02l-.41-.04-.02-.02v-.04l.06-.04.36-.02c.02 0 .03-.02.03-.04v-.04c0-.02-.01-.04-.04-.05l-.32-.07c-.02 0-.02-.01-.02-.03l.01-.03a.57.57 0 0 1 .21-.03h.14c.02 0 .03-.02.04-.04 0-.02 0-.03-.02-.05a.08.08 0 0 0-.05-.03 2.2 2.2 0 0 1-.26-.03.06.06 0 0 1-.06-.05c0-.03.02-.06.08-.08h.05l.23.02.03-.01a.04.04 0 0 0 .02-.04l-.01-.04a.06.06 0 0 0-.05-.04l-.2-.03C5 8 4.97 7.97 4.98 7.9v-.02c0-.05.04-.08.09-.06.05 0 .1 0 .15-.03a.06.06 0 0 0 .03-.05c0-.02-.01-.03-.03-.04a.09.09 0 0 0-.04 0h-.03a6.2 6.2 0 0 0-.11 0 .05.05 0 0 1-.02-.03.21.21 0 0 1 .06-.2.05.05 0 0 1 .05-.02c.12.03.23.03.34-.02.07-.04.07-.06-.01-.07-.1-.02-.2-.04-.3-.08a.05.05 0 0 1-.04-.05l.01-.03.03-.02.58-.05c.05 0 .07-.03.06-.08l-.01-.02c-.01-.05-.04-.07-.1-.06-.17.04-.34.06-.52.05-.02 0-.04 0-.04-.03v-.03l.01-.04a.05.05 0 0 1 .04-.02l.55-.02c.02 0 .03 0 .04-.02l.01-.03a.1.1 0 0 0-.03-.08.07.07 0 0 0-.06-.02c-.19.02-.36.01-.53-.01-.02 0-.02-.02-.02-.04v-.02c.02-.03.04-.05.07-.04.17 0 .34 0 .53-.02.05-.01.09-.04.12-.08.02-.04.03-.09.01-.14v-.07a.4.4 0 0 0 .06-.14.1.1 0 0 0 0-.04c-.02-.09 0-.16.09-.23.02-.01.02-.03.01-.06 0-.02-.02-.03-.05-.03l-.64.02c-.02 0-.03 0-.04-.02V5.8c-.01-.04 0-.07.05-.07l.69-.07c.05 0 .08-.03.08-.08v-.03A.1.1 0 0 0 6 5.5c-.19 0-.39 0-.6-.04-.02 0-.03-.02-.03-.04v-.03c0-.01.01-.02.03-.02H6c.03 0 .04-.01.04-.04V5.3a.1.1 0 0 0-.02-.07.1.1 0 0 0-.07-.04 17.28 17.28 0 0 1-.56-.04V5.1c.01-.04.04-.05.08-.05.26.03.46.02.62-.04a.07.07 0 0 0 .04-.07v-.03c0-.02 0-.03-.03-.03-.2.04-.4.03-.6-.01a.1.1 0 0 1-.06-.04v-.05a.07.07 0 0 1 .07-.04h.65c.05 0 .07-.03.06-.08a.07.07 0 0 0-.02-.03.3.3 0 0 0-.17-.08l-.43-.06c-.04 0-.06-.03-.07-.07V4.4l.01-.03.03-.01c.32.02.64 0 .96-.05.1-.01.1-.03 0-.05l-.93-.18h-.01l-.02-.02v-.03Zm.28 2c0 .04-.02.08-.07.1a.45.45 0 0 1-.2.05h-.04c-.08 0-.14 0-.2-.03-.05-.02-.08-.05-.08-.08v-.01l.59-.03Zm-.35.42c.2 0 .35-.04.35-.08 0-.03-.16-.05-.35-.05-.2.01-.35.04-.35.08s.16.06.35.05Zm-.76 3.64a.1.1 0 0 0 .02-.05c0-.05.01-.07.05-.06h.22a.55.55 0 0 1 .2-.02l.02-.01.06-.08v-.02h-.01l-.51.03a.05.05 0 0 0-.06.04.7.7 0 0 0-.02.16c0 .05 0 .06.03.01Zm.25.9a.98.98 0 0 0-.2-.02l-.18-.01c-.14-.04-.14-.06 0-.08l.36-.05h.07l.08.05.02.04-.01.04a.14.14 0 0 1-.14.03Z" fill="#173990"/></svg>