<!-- by TradingView --><svg width="18" height="18" viewBox="0 0 18 18" xmlns="http://www.w3.org/2000/svg"><path fill="#F0F3FA" d="M0 0h18v18H0z"/><path d="m4.9 8 1.1.62L4.1 10 3 9.38 4.9 8ZM9.9 6l1.1.62L9.1 8 8 7.38 9.9 6ZM13.9 8l1.1.62L13.1 10 12 9.38 13.9 8ZM10.97 8l1.03.47-.97.53L10 8.53l.97-.53ZM6.9 9l1.1.62L6.1 11 5 10.38 6.9 9ZM8.9 10l1.1.62L8.1 12 7 11.38 8.9 10Z" fill="#EB1C26"/><path d="M8.78 3h2.38L6.68 6.2c-.29.21-.26.6.04.78l5.57 3.24c.89.52.96 1.66.13 2.26L8.97 15H6.58l4.72-3.37c.28-.2.26-.6-.05-.78L5.71 7.62c-.88-.52-.96-1.65-.14-2.26L8.77 3Z" fill="#0B72BF"/></svg>