<!-- by TradingView --><svg width="18" height="18" viewBox="0 0 18 18" xmlns="http://www.w3.org/2000/svg"><path fill="#F0F3FA" d="M0 0h18v18H0z"/><path d="M13.67 9.32c-.2.36-.34.61-.44.75-.93 1.3-3.01 1.66-4.12.36a.05.05 0 0 1-.01-.05c.08-.35.08-1.44-.33-1.63a.1.1 0 0 0-.13.04.1.1 0 0 0-.02.04c-.02.24.02.75-.42.6-.36-.11-.72-.45-1.15-.79a2.5 2.5 0 0 0-3-.27c0-.5.4-.84.84-1.03 2.2-.92 4.14.46 5.82 1.65.49.34 1.4.89 1.99.46.37-.27.5-.92.47-1.36 0-.02 0-.03-.02-.03-.52-.04-.97-.23-1.14-.72-.11-.3-.06-.6.14-.89.02-.02.02-.01.02 0 .03.86 1.17.44 1.25 1.15v.01a.02.02 0 0 0 .04 0c.13-.57.64-.44 1.03-.66.22-.12.29-.3.39-.57 0-.02.01-.02.02 0 .37.86-.36 1.56-1.17 1.7l-.03.02v.03c.06.39.05.79-.03 1.2ZM8.43 8c-.03-.3-.4-.34-.58-.14a.02.02 0 0 0 0 .03h.01c.21-.05.4 0 .55.12.02.02.02.01.02 0Zm-.36.71c.06 0 .12-.03.17-.08a.32.32 0 0 0 .07-.2.32.32 0 0 0-.07-.2.22.22 0 0 0-.16-.1.22.22 0 0 0-.17.09.32.32 0 0 0-.07.2c0 .08.02.15.06.2.05.06.1.1.17.1Z" fill="#50A7D1"/><path d="M13.67 9.32a4.19 4.19 0 0 1-2.72 3.16l-.5-.22-.15-.16c-.16-.21-1.1-.72-1.28-.37a.06.06 0 0 0 0 .04c.41 1.1 1.3 1.68 2.33 2.2l-.08.01h-.05a3.8 3.8 0 0 1-2.1-1.2h-.38a7.03 7.03 0 0 1-1.91-.38C5.7 12.02 4.42 11.2 4 10.06a.06.06 0 0 1 .01-.05.07.07 0 0 1 .05-.03c.12-.02.24-.01.37.02.02 0 .03 0 .02-.03a5.07 5.07 0 0 1-.1-1.02 1.07 1.07 0 0 1-.3-.58 2.5 2.5 0 0 1 3 .27c.42.34.78.68 1.15.8.44.14.4-.37.42-.6a.1.1 0 0 1 .05-.09.1.1 0 0 1 .1 0c.41.19.4 1.28.33 1.63v.05c1.12 1.3 3.2.93 4.13-.36.1-.14.24-.39.44-.75ZM5.29 8.18a.01.01 0 0 0 0-.01.01.01 0 0 0-.02 0l-.4.05-.02.04a18.21 18.21 0 0 0 .16 2.42l.34.22c.02.01.03 0 .03-.01-.07-.9-.1-1.8-.1-2.71Zm.45.02-.35-.03c-.03 0-.04 0-.04.03a22.6 22.6 0 0 0 .12 2.76l.33.17c.02.01.03 0 .03-.02-.03-.94-.1-1.91-.04-2.85 0-.04-.01-.06-.05-.06Zm.55.18-.4-.15c-.03-.01-.04 0-.05.02v.28c-.01 1 .01 1.86.06 2.62 0 .02.01.03.03.04l.37.15h.01a.01.01 0 0 0 0-.02V8.4l-.01-.02h-.01Zm-1.5-.1c0-.02 0-.03-.03-.02l-.28.1-.02.01v.02a4.88 4.88 0 0 0 .19 2.03l.25.19c.02.01.03.01.03-.02-.1-.77-.15-1.54-.14-2.31Zm2.07.42-.45-.27c-.02-.01-.03 0-.03.02a48.63 48.63 0 0 0 .03 2.92l.37.1.01.01h.01l.01-.01v-.01l.05-2.74V8.7Zm.5.4a2.32 2.32 0 0 0-.43-.32.02.02 0 0 0-.01.02l-.05 2.67c0 .02.01.03.03.04l.36.04c.02 0 .03 0 .03-.02l.08-2.38V9.1Zm.53.38a2.48 2.48 0 0 1-.4-.28c-.04-.02-.06-.02-.06.02l-.09 2.31c0 .03.02.04.05.04l.35-.03c.02 0 .04-.01.04-.04l.11-2.01Zm.83-.2a.43.43 0 0 1-.26.33.04.04 0 0 0-.02.03l-.13 1.58a.01.01 0 0 0 0 .01h.02a2.38 2.38 0 0 0 .43-1.97.02.02 0 0 0-.03 0v.01Zm-.36.37-.38-.1a.03.03 0 0 0-.02 0 .03.03 0 0 0-.01.01l-.12 1.93c0 .02 0 .02.03.02a.91.91 0 0 0 .36-.17.05.05 0 0 0 .02-.04l.14-1.62c0-.02 0-.03-.02-.03Z" fill="#B5D7E4"/><path d="M10.45 12.26c.15.16.3.3.45.41.08.07.12.16.1.27-.01.01 0 .02.01.03.27.13 1.62.86.48 1.03h-.05l-.1-.03c-1.01-.52-1.9-1.1-2.32-2.2a.05.05 0 0 1 0-.04c.18-.35 1.12.16 1.28.37l.15.16ZM7.21 12.53c.52.14 1.02.23 1.53.25.05.08.06.15.06.21l-.01.02-.02.02-.11.03a.01.01 0 0 0-.01.02c.15.12.23.28.24.46 0 .02 0 .04-.02.05-.36.45-1.47-.82-1.66-1.06Z" fill="#50A7D1"/><path d="M6.82 5.4a2.22 2.22 0 0 0-.8-.14c.06-.18.17-.55.17-.59 0-.03.42.04.63.08l-.74-.58.42-.51.68.63-.44-.82.54-.32.47 1-.12-1.06L8.2 3l.12.84.5-.75.54.43c-.33.36-.56.7-.64.82.28-.27.66-.6.82-.72l.4.55c-.35.18-.73.53-.88.68.44-.27.81-.39.94-.42l.28.62c-.41.05-.98.35-1.22.5L9 5.4c-.05 0-.22.12-.57.5-.34.38-.42.87-.42 1.07h-.37l-.07-.48c0-.03-.07.08-.13.08a2.94 2.94 0 0 0-.75-1.1l.14-.07Z" fill="#62BE8E"/></svg>