<!-- by TradingView --><svg width="18" height="18" viewBox="0 0 18 18" xmlns="http://www.w3.org/2000/svg"><path fill="#F0F3FA" d="M0 0h18v18H0z"/><ellipse cx="9" cy="9" rx="6" ry="4" fill="url(#a)"/><ellipse cx="9.5" cy="9" rx="4.5" ry="4" fill="url(#b)"/><path d="M12.1 8h.9l-1.4.81L12.88 10h-.81l-.99-.87-.32.19V10H10V8h.75v.77L12.1 8ZM6 8.63c0-.35.47-.63.8-.63H9v.38H6.96c-.12 0-.21.12-.21.24 0 .13.1.26.21.26h1.36c.3 0 .68.23.68.54 0 .32-.38.58-.68.58H6v-.38h2.09c.09 0 .16-.1.16-.2s-.07-.17-.16-.17h-1.3c-.32 0-.79-.28-.79-.63Z" fill="#504A4E"/><defs><linearGradient id="a" x1="9" y1="5" x2="9" y2="13" gradientUnits="userSpaceOnUse"><stop stop-color="#FFFFFA"/><stop offset=".48" stop-color="#706E6F"/><stop offset="1" stop-color="#fff"/></linearGradient><linearGradient id="b" x1="9.5" y1="5" x2="9.5" y2="13" gradientUnits="userSpaceOnUse"><stop stop-color="#4A6E18"/><stop offset=".34" stop-color="#7ECC1E"/><stop offset=".58" stop-color="#7AC51D"/><stop offset="1" stop-color="#487014"/></linearGradient></defs></svg>