<!-- by TradingView --><svg width="18" height="18" viewBox="0 0 18 18" xmlns="http://www.w3.org/2000/svg"><path fill="#F0F3FA" d="M0 0h18v18H0z"/><path d="M5.04 8c-.04-.37-.39-.33-.69-.33-.28 0-.6.1-.6.48 0 .34.34.42.59.49.58.16 1.36.38 1.36 1.21C5.7 10.66 5 11 4.37 11c-.69 0-1.34-.5-1.37-1.33h.63c.03.42.39.66.74.66.3 0 .73-.08.73-.48 0-.36-.42-.47-.67-.55-.57-.16-1.28-.34-1.28-1.15 0-.77.62-1.15 1.23-1.15.6 0 1.26.25 1.27 1h-.61ZM6.4 11V7h2.1v.67H7v1h1.5v.66H7v1h1.5V11H6.4ZM9.15 7.67V7h2.7v.67H10.8V11h-.6V7.67H9.15ZM15 9c0 1-.5 2-1.5 2S12 10 12 9s.5-2 1.5-2S15 8 15 9Zm-.6 0c0-.63-.24-1.33-.9-1.33s-.9.7-.9 1.33c0 .63.24 1.33.9 1.33s.9-.7.9-1.33Z"/></svg>