<!-- by TradingView --><svg xmlns="http://www.w3.org/2000/svg" width="18" height="18"><path fill="#F0F3FA" d="M0 0h18v18H0z"/><path d="M8.28 6.4H6V4.5h4.36a6.33 6.33 0 00-2.08 1.9z" fill="#EF8201"/><path d="M10.76 10.54c-.34.42-2.97 3.82-5.29 3.43-1.64-.28-.65-2.13.23-2.69 0 0-.9 1.73 1.64.78a7.23 7.23 0 003.15-2.37s.04.43.27.85zm1.49-2.87l.1-.22c.13-.36.27-.79.2-1 0 0-.01-.05-.03-.07a.53.53 0 00-.46-.19.38.38 0 00-.18.06.6.6 0 00-.22.17 3.1 3.1 0 00-.37.53l-.26.51-.1.2h1.32zm-.34 2.39a.47.47 0 01-.26-.31c-.1-.3-.1-.5-.1-.5h.01-.92c0 .3.03.58.12.87 0 0 .3.87.88.92 1.24.1 1.49-1.44 1.49-1.44-.79.68-1.22.46-1.22.46zm-.17-4.35c.2.31.64.35 1 .1.35-.27.48-.73.29-1.04-.2-.31-.65-.35-1-.1-.36.27-.49.73-.3 1.04z" fill="#009844"/><path d="M9.7 7.67a2.74 2.74 0 011.36-1.25V4.53c-.28.04-1.23.53-1.86 1.12a4.8 4.8 0 00-1.4 2.02h1.9zm-2.32 4.18c.79-.33 1.4-.78 1.84-1.2 0-.43.03-.84.05-1.16l.02-.24H7.43c-.17 1-.2 2.02-.2 2.65l.15-.05z" fill="#E50113"/><path fill="#009844" d="M4 8h10v1H4z"/></svg>