<!-- by TradingView --><svg width="18" height="18" viewBox="0 0 18 18" xmlns="http://www.w3.org/2000/svg"><path fill="#F0F3FA" d="M0 0h18v18H0z"/><path d="M5.82 5.2a6.33 6.33 0 0 1 6.36 0l1.13-.88a7.66 7.66 0 0 0-8.62 0l1.13.88ZM5.82 12.8a6.33 6.33 0 0 0 6.37 0l1.12.88a7.66 7.66 0 0 1-8.61 0l1.12-.88ZM12.8 5.82a6.33 6.33 0 0 1 0 6.37l.88 1.12a7.67 7.67 0 0 0 0-8.61l-.88 1.12ZM5.2 5.82a6.33 6.33 0 0 0 0 6.37l-.88 1.12a7.68 7.68 0 0 1 0-8.61l.88 1.12ZM8.52 6.75V7.8s-.46-.47-1.3-.47c-.68 0-.84.34-.83.53 0 .18.1.38.9.75.96.46 1.45 1.06 1.45 1.8 0 .73-.45 1.6-1.69 1.6-1.1 0-1.68-.54-1.68-.54v-1.2a2 2 0 0 0 1.58.79c.67 0 .79-.44.8-.66 0-.22-.19-.53-.53-.7-.42-.2-1.29-.59-1.55-.95s-.3-.61-.3-.9c0-.52.41-1.46 1.8-1.46.95 0 1.35.37 1.35.37ZM10.91 6.38c-.9 0-1.9.37-1.9.37V12H10V7.5c.17-.09.53-.15.98-.15.98 0 1.49.43 1.49.43V6.75s-.56-.38-1.56-.38Z" fill="#231815"/><path d="M12.16 9.1a.64.64 0 1 1-1.29 0 .64.64 0 0 1 1.3 0Z" fill="#E60012"/></svg>