<!-- by TradingView --><svg width="18" height="18" viewBox="0 0 18 18" xmlns="http://www.w3.org/2000/svg"><path fill="#F0F3FA" d="M0 0h18v18H0z"/><path d="M3 9c0 .24.01.47.04.7h.71a5.3 5.3 0 0 1 10-3.04c.42.02.71.15.9.3A6 6 0 0 0 3 9Zm11.8-1.57-.06.05.06-.02v-.03Z" fill="#FDB614"/><path d="M9 15a6 6 0 0 1-5.5-3.61h.77a5.3 5.3 0 0 0 9.88-1.16c.3-.07.58-.24.8-.41A6 6 0 0 1 9 15Z" fill="#7F5923"/><path d="M3.3 11c-.09-.28-.15-.71-.2-1h2.7l.38-.6H4.09L5.38 7h3.06l-.43 1H6l-.38.6H7.6L6.43 11H3.3ZM8.5 9h-.35L7 11h1.11l.74-1.3h.75L10 9H8.5Z" fill="#FDB614"/><path d="M11.06 9.42 10.49 9l-.49.7 1.06-.28Z" fill="#7F5923"/><path d="M15 8.5c0-.68-.47-1.5-1.05-1.5h-4.5L9 8h4.66c.19 0 .34.28.34.5 0 .22-.15.5-.34.5h-1.64l-1.1 2h1.06l.52-1h1.45c.58 0 1.05-.82 1.05-1.5Z" fill="#7F5923"/></svg>