<!-- by TradingView --><svg width="18" height="18" viewBox="0 0 18 18" xmlns="http://www.w3.org/2000/svg"><path fill="#F0F3FA" d="M0 0h18v18H0z"/><path d="M12.35 9.32a.08.08 0 0 0-.07 0 .07.07 0 0 0-.02.02l-.01.03c-.14 1.71-.5 3.37-1.07 4.96-.11.3-.32.65-.71.66-.46.02-1.17.05-1.1-.5a90.29 90.29 0 0 0 .42-4.7.08.08 0 0 0-.03-.04.1.1 0 0 0-.09 0c-.37.19-.84.3-1.16.43l-3.25 1.3c-.4.16-.7.07-.9-.25a3.48 3.48 0 0 1-.33-.64c-.14-.38.26-.68.6-.94A20.2 20.2 0 0 1 8.48 7.4l.01-.03v-.03l-.03-.02c-.85-.48-1.76-.9-2.73-1.27a33.8 33.8 0 0 1-1.25-.48.22.22 0 0 1-.11-.12.19.19 0 0 1 0-.15c.38-.75 1.12-.82 1.92-.67a20.22 20.22 0 0 1 3.85 1.2l.07-.02a.15.15 0 0 0 .05-.05.13.13 0 0 0 .02-.06l.24-1.62c0-.03.02-.05.06-.06.37-.07.64-.02.8.14.63.64.77 1.83.87 2.66.02.18.21.37.4.5.42.32.83.65 1.24 1.01.4.35.68.64.86.88.14.19.42.94.14 1.13-.13.09-.26.1-.4 0a22.2 22.2 0 0 0-2.13-1.03Z" fill="#EB0373"/></svg>