<!-- by TradingView --><svg width="18" height="18" viewBox="0 0 18 18" xmlns="http://www.w3.org/2000/svg"><path fill="#FF4C33" d="M0 0h18v18H0z"/><path d="M7.7 3.15c.33-.06.6-.1.83-.12.3-.03.57-.04.8-.02.59.05 1.17.18 1.77.4a6.04 6.04 0 0 1 3.34 3.04 5.42 5.42 0 0 1 .35.94c.1.31.16.66.19 1.04.02.39.03.74 0 1.06a4.75 4.75 0 0 1-.32 1.52 5.15 5.15 0 0 1-.66 1.33 11.33 11.33 0 0 1-.58.74 50.23 50.23 0 0 1-.67.62l-.15.12-.17.12a5.7 5.7 0 0 1-2.07.92 6.56 6.56 0 0 1-3.35-.18 8.83 8.83 0 0 1-1.42-.72 6.34 6.34 0 0 1-1.56-1.54 8.34 8.34 0 0 1-.74-1.55 6.46 6.46 0 0 1-.02-3.7A5.4 5.4 0 0 1 3.9 5.8a5.14 5.14 0 0 1 1.4-1.55c.19-.14.4-.28.64-.42a8.09 8.09 0 0 1 1.76-.69Z" fill="#fff"/><path d="M8.42 6.08c.11.08.22.2.32.4.07.13.1.3.07.49 0 .09-.03.17-.06.25a.8.8 0 0 1-.12.22c-.38.45-.74.98-1.1 1.6-.27.47-.33.86-.17 1.15.16.3.41.42.75.39.1-.01.18-.05.26-.11a1.38 1.38 0 0 0 .23-.27c.13-.17.2-.35.2-.55 0-.07 0-.13.03-.2.04-.08.08-.13.13-.16a.21.21 0 0 1 .25.02c.06.06.11.13.14.23l.11.41a8.21 8.21 0 0 1 .28 1.1l.1.4c.04.24.1.48.17.71a.7.7 0 0 0 .1.2c0 .01.02.02.04.01.1-.01.14-.06.15-.16v-.4c0-.93-.02-1.86-.05-2.78v-.79c0-.1.04-.19.1-.28a.4.4 0 0 1 .52-.2c.1.04.18.1.25.17a3.02 3.02 0 0 1 .52 3.17 7.72 7.72 0 0 1-.53.83c-.2.26-.54.5-1 .74a3.35 3.35 0 0 1-1.75.28c-.21-.03-.41-.09-.6-.17a5.4 5.4 0 0 1-.44-.22 2.09 2.09 0 0 1-.37-.28c-.22-.2-.43-.43-.6-.68-.08-.1-.15-.24-.2-.38a6 6 0 0 1-.17-.48 2.25 2.25 0 0 1-.09-.55l.01-.57c.01-.14.04-.29.1-.45.04-.16.1-.3.16-.43.22-.43.49-.78.8-1.04a.14.14 0 0 0 .03-.2 1.8 1.8 0 0 1-.16-.25.7.7 0 0 1-.06-.3c0-.16.02-.3.06-.43a.73.73 0 0 1 .25-.36l.2-.14a.68.68 0 0 1 .24-.1 2.5 2.5 0 0 1 .31-.04c.08 0 .15 0 .23.03.15.05.28.11.36.17Z" fill="#3A67DF"/><path d="M9.66 6.83c.07 0 .15.01.26.05.11.05.18.1.21.15l.01.02c.08.14.13.25.15.32.03.13.02.24-.03.34-.04.09-.11.19-.21.29a.54.54 0 0 1-.5.14.57.57 0 0 1-.41-.25.83.83 0 0 1-.13-.35.8.8 0 0 1 .04-.37c.03-.09.12-.17.27-.24a1.18 1.18 0 0 1 .34-.1Z" fill="#3A67DF"/><path d="M11.55 8.98c.23.56.24 1.14.06 1.73-.1.35-.33.72-.67 1.12a.99.99 0 0 1-.42.3l-.04-.01a45.1 45.1 0 0 1-.03-3.56v-.3c0-.04.02-.09.05-.13a.3.3 0 0 1 .12-.1c.16-.06.3-.02.42.12.23.26.4.53.51.83ZM9.74 11.8v.03l.08.3c.03.12.07.21.12.27v.05a.6.6 0 0 1-.3.16 8.65 8.65 0 0 0-.4.1c-.1.02-.2.03-.27.02a.09.09 0 0 1-.05-.03.08.08 0 0 1-.02-.05v-.21l.01-.16-.01-1.46a10.37 10.37 0 0 1 .02-.99V9.8l.01-.17a.23.23 0 0 1 .09-.12.09.09 0 0 1 .07-.02c.02 0 .05.02.06.04.08.14.13.28.16.45.09.46.2.91.32 1.35.05.18.09.34.11.48Z" fill="#fff"/><path d="M14 10.82c-.05 0-.1.01-.14.04a.6.6 0 0 1-.25.1.36.36 0 0 1-.25-.09.08.08 0 0 1-.03-.04.73.73 0 0 1 .08-.54.05.05 0 0 1 .05-.03c.07 0 .13.02.2.05l.03.03v.05l-.03.13c-.03.11 0 .13.1.07a2.77 2.77 0 0 1 .24-.14.26.26 0 0 1 .22.03c.17.1.18.33.01.69-.02.05-.06.06-.1.04l-.16-.06c-.05-.02-.06-.06-.03-.1a.6.6 0 0 0 .08-.2c0-.02 0-.03-.02-.03ZM4.03 10.86a.2.2 0 0 0-.02.09l.02.08.01.06a.1.1 0 0 1-.07.12c-.09.04-.15.02-.18-.06a.7.7 0 0 1-.03-.37.4.4 0 0 1 .2-.3.63.63 0 0 1 .27-.08.53.53 0 0 1 .44.2c.06.06.1.14.12.24a.07.07 0 0 1-.05.08l-.13.05h-.06a.13.13 0 0 1-.06-.09.11.11 0 0 0-.03-.05.33.33 0 0 0-.23-.1.23.23 0 0 0-.12.03.2.2 0 0 0-.08.1ZM13.53 11.6c.04 0 .07-.01.11-.05a.62.62 0 0 0 .1-.12.07.07 0 0 1 .04-.03c.08-.02.15 0 .2.07.03.03.03.05.01.08-.04.07-.08.14-.14.21-.08.1-.15.14-.21.14-.2.02-.34 0-.42-.06-.15-.11-.24-.24-.26-.38a.78.78 0 0 1 .1-.46c.03-.03.05-.04.1-.02l.13.06c.03.02.04.05.03.08l-.08.2v.05l.04.02c.03 0 .05 0 .06-.03a.93.93 0 0 0 .07-.12l.04-.04h.06l.09.03c.04.02.05.05.04.09-.04.09-.08.17-.13.24v.02l.02.01ZM4.83 11.48a.06.06 0 0 0-.03-.02h-.05l-.52.33c-.06.04-.1.03-.14-.03l-.06-.12c-.03-.06-.02-.1.04-.14l.4-.25c.1-.06.18-.1.25-.11a.5.5 0 0 1 .22.02c.1.03.16.07.19.13a.4.4 0 0 1 .02.38.62.62 0 0 1-.27.28l-.43.26c-.02.02-.04.02-.05-.01l-.11-.21.01-.05.04-.02a.86.86 0 0 0 .1-.08.2.2 0 0 0 .07-.09c.03-.12.12-.16.26-.15l.06-.01c.03-.03.04-.07 0-.11ZM13.13 12.3a.24.24 0 0 0 .06-.1l.04-.04h.05l.19.12.02.04-.01.05c-.09.07-.16.15-.24.23-.05.06-.12.08-.2.06a.44.44 0 0 1-.22-.1l-.52-.44c-.03-.03-.03-.05 0-.08l.17-.15a.07.07 0 0 1 .05-.02 3.47 3.47 0 0 0 .5.42c.04.03.07.03.1 0ZM5.2 12.55c0-.04 0-.04-.04-.02l-.2.19c-.04.05-.09.05-.14 0l-.1-.08c-.06-.05-.06-.1 0-.15L5.2 12a.43.43 0 0 1 .14-.1.24.24 0 0 1 .16-.01c.07.02.1.06.1.14 0 .04-.02.11-.06.2a.82.82 0 0 0-.03.1c-.02.12 0 .13.09.04l.12-.14c.04-.07.1-.07.15-.01l.1.1c.04.05.04.1-.01.15a3.91 3.91 0 0 0-.45.47l-.18.18a.04.04 0 0 1-.04.01c-.12-.04-.18-.1-.2-.2 0-.04 0-.1.02-.15a2.07 2.07 0 0 1 .07-.23ZM12.4 12.66l.2.1c.02 0 .03 0 .04.02.06.14.06.26 0 .36a.5.5 0 0 1-.1.12c-.02.02-.06.06-.13.1l-.18.16a.06.06 0 0 1-.05.02c-.02 0-.03 0-.05-.02a28.4 28.4 0 0 1-.4-.5.38.38 0 0 1-.1-.26c0-.1.04-.17.11-.25.11-.12.25-.15.43-.1.05.02.09.05.12.08a.55.55 0 0 1 .06.13c0 .02.02.03.04.04ZM6.04 13.38a.62.62 0 0 0-.07.15c-.01.05-.04.06-.09.03l-.19-.1c-.03-.02-.04-.05-.03-.1a.84.84 0 0 1 .13-.2l.08-.1.25-.4c.03-.05.07-.07.14-.07.05 0 .1.01.16.05.02 0 .03.02.03.05V13c-.01.1.02.11.07.03.05-.06.1-.13.13-.2.02-.03.05-.03.08 0l.15.12c.03.03.03.07.01.1l-.39.64c-.05.1-.13.15-.24.13a.09.09 0 0 1-.08-.05.74.74 0 0 1-.04-.35c.01-.16-.02-.17-.1-.04Z" fill="#FF4C33"/><path d="M12.04 12.71c0 .09.03.15.05.19.03.05.09.07.17.06h.04c.03.04.04.07.03.12-.02.06-.06.07-.11.03a.56.56 0 0 1-.12-.16.58.58 0 0 0-.08-.1 1.41 1.41 0 0 1-.04-.05c-.03-.04-.03-.07 0-.1a.03.03 0 0 1 .04-.01l.02.02Z" fill="#fff"/><path d="m11.42 13.65-.14-.05h-.01v.03l.13.3v.04c0 .02-.01.03-.03.03l-.2.1c-.03 0-.05 0-.07-.03a8.83 8.83 0 0 1-.31-.7v-.15c.02-.11.07-.19.16-.22l.07-.03a.72.72 0 0 1 .1-.04.2.2 0 0 1 .1 0c.22.05.35.17.4.36l.12.24.09.2c.02.04 0 .07-.05.09l-.16.05c-.06.02-.1 0-.12-.06l-.04-.11a.07.07 0 0 0-.04-.05ZM7.98 13.72a.54.54 0 0 1-.16.38.55.55 0 0 1-.94-.38.54.54 0 0 1 .16-.39.55.55 0 0 1 .6-.12.55.55 0 0 1 .3.3c.03.07.04.14.04.2ZM10.42 13.54a.18.18 0 0 0-.12.07.16.16 0 0 0-.03.1c0 .05.02.09.04.13a.3.3 0 0 0 .08.1.2.2 0 0 0 .1.03h.18a.06.06 0 0 1 .06.06l.02.17c0 .04 0 .05-.04.06-.14.01-.28.02-.4.01a.11.11 0 0 1-.07-.02.85.85 0 0 1-.26-.3.7.7 0 0 1-.02-.41c.02-.12.16-.22.41-.3.03-.02.06-.01.08 0 .03 0 .05.03.06.05.03.06.05.12.05.18 0 .02 0 .04-.03.05a.77.77 0 0 1-.11.03Z" fill="#FF4C33"/><path d="M11.13 13.36c.03.04.07.07.1.05.04-.02.05-.07.02-.12-.03-.04-.07-.07-.1-.05-.04.02-.05.07-.02.12Z" fill="#fff"/><path d="m8.78 13.74.03-.22a.1.1 0 0 1 .03-.06.1.1 0 0 1 .06-.02l.17-.01c.04 0 .05.01.05.05a13.51 13.51 0 0 1-.08.9.2.2 0 0 1-.16.13c-.03.01-.07 0-.1-.01a.16.16 0 0 1-.07-.08l-.1-.29-.03-.02a.03.03 0 0 0-.04.02l-.05.27c0 .04-.02.05-.05.05h-.21c-.04 0-.06-.01-.05-.05l.07-.92c0-.03.02-.06.05-.07.08-.04.15-.05.22-.02.06.03.1.09.12.17.02.07.05.13.1.2h.02c.01 0 .02 0 .02-.02Z" fill="#FF4C33"/><path d="M7.22 13.68a.1.1 0 0 1 0-.08.1.1 0 0 1 .05-.05l.06-.02a.3.3 0 0 1 .2 0c.06.02.1.05.12.1.02.06.01.11-.02.17a.3.3 0 0 1-.16.12l-.05.02a.1.1 0 0 1-.08 0 .1.1 0 0 1-.05-.06l-.07-.2Z" fill="#fff"/></svg>