<!-- by TradingView --><svg width="18" height="18" viewBox="0 0 18 18" xmlns="http://www.w3.org/2000/svg"><path fill="#F0F3FA" d="M0 0h18v18H0z"/><path d="M8.57 4.15c.09-.05.14-.1.24-.12.6-.11 1.06.09 1.38.6.3.45.25.91-.12 1.37L8.95 7.34c-.58.7-.95 1.53-1.1 2.48-.03.17-.09.18-.18.04-.9-1.44-1-2.9-.3-4.39.28-.59.68-1.03 1.2-1.32Z" fill="url(#a)"/><path d="M6.49 8.05c.11.8.43 1.5.96 2.1.06.07.05.1-.05.08a3.73 3.73 0 0 1-3.2-3.21c-.1-.62.17-1.18.8-1.3.88-.15 1.32.47 1.38 1.24l.1 1.09Z" fill="url(#b)"/><path d="M8.14 9.83a6.01 6.01 0 0 1 3.73-3.66c.41-.15.88-.18 1.4-.1.98.13 1.58.93 1.14 1.85-.12.26-.35.46-.68.6-.18.08-.47.1-.87.06-.53-.05-.97-.07-1.33-.07A4.43 4.43 0 0 0 8.2 9.93a.05.05 0 0 1-.04-.01c-.02-.03-.02-.06 0-.09Z" fill="url(#c)"/><path d="M8.48 10.14a4.81 4.81 0 0 1 3.9-1.02c.98.15 2.09.7 2.5 1.64.27.6.05 1.22-.47 1.58-.42.3-.86.35-1.32.17-.26-.1-.62-.38-1.07-.85-.48-.5-.81-.81-1-.96-.76-.6-1.6-.77-2.53-.53-.05.02-.06 0-.01-.03Z" fill="url(#d)"/><path d="M3 10.01c0-.49.42-.89.94-.9.4-.02.76.31 1.09.54.64.47 1.35.75 2.13.84.13.02.14.06.03.12a4.2 4.2 0 0 1-2.83.5c-.58-.1-1.36-.46-1.36-1.1Z" fill="url(#e)"/><path d="M7.31 10.92a2.98 2.98 0 0 1-1.87 1.97c-.33.12-.74.18-1.04-.03a.66.66 0 0 1 .17-1.18c.06-.02.28-.03.65-.05a3.42 3.42 0 0 0 1.56-.45c.13-.07.31-.24.5-.3.03 0 .05 0 .03.04Z" fill="url(#f)"/><defs><linearGradient id="a" x1="8.65" y1="5.66" x2="7.77" y2="9.97" gradientUnits="userSpaceOnUse"><stop stop-color="#CF281C"/><stop offset="1" stop-color="#E17749"/></linearGradient><linearGradient id="b" x1="4.92" y1="6.75" x2="6.79" y2="10.28" gradientUnits="userSpaceOnUse"><stop stop-color="#CF281C"/><stop offset="1" stop-color="#E17749"/></linearGradient><linearGradient id="c" x1="11.65" y1="7.4" x2="8.18" y2="9.61" gradientUnits="userSpaceOnUse"><stop stop-color="#CF281C"/><stop offset="1" stop-color="#E17749"/></linearGradient><linearGradient id="d" x1="8.45" y1="10.08" x2="12.81" y2="11.44" gradientUnits="userSpaceOnUse"><stop stop-color="#E17749"/><stop offset="1" stop-color="#CF281C"/></linearGradient><linearGradient id="e" x1="3.49" y1="9.88" x2="6.9" y2="10.56" gradientUnits="userSpaceOnUse"><stop stop-color="#CF281C"/><stop offset="1" stop-color="#E17749"/></linearGradient><linearGradient id="f" x1="7.32" y1="11.23" x2="4.49" y2="12.52" gradientUnits="userSpaceOnUse"><stop stop-color="#E17749"/><stop offset="1" stop-color="#CF281C"/></linearGradient></defs></svg>