<!-- by TradingView --><svg width="18" height="18" viewBox="0 0 18 18" xmlns="http://www.w3.org/2000/svg"><path fill="#F0F3FA" d="M0 0h18v18H0z"/><path d="M9.1 4.11c-.43.15-.76.38-1.38.99-.75.73-1.24.89-1.36.44-.05-.19.18-.42.35-.35.12.04.13-.05.02-.16-.12-.1-.54-.09-.7.04-.66.49-.26 1.64.57 1.64.35 0 .35.08-.02.24-.64.3-1.47-.09-1.04-.48.06-.06.05-.08-.07-.08-.18 0-.4.27-.46.54-.14.71 1.1 1.3 1.92.9.28-.13.28-.13.28.02 0 .4-.54.64-.77.34-.12-.16-.15-.03-.04.22.23.57 1.1.55 1.36-.03.08-.18.08-.18.64.34.3.3.79.7 1.08.9 1.17.83 1.41 1.43.99 2.43-.63 1.49-3.3 1.11-2.98-.43.28-1.41 2.24-1.49 2.25-.08.01.51-.56 1-.67.57-.06-.21-.84-.48-.84-.28 0 .18.3.62.43.62l.48.04c.33.04.35.03.7-.23 1.15-.9-.05-2.6-1.66-2.36-2.16.32-2.27 3.34-.14 3.96l.45.13c.07.02.07.05 0 .12-.06.08-.05.1.12.1.36 0 .56.36.32.58a.44.44 0 0 1-.25.1c-.13 0-.14.01-.03.07.4.22.9-.44.59-.79-.07-.07-.06-.1.02-.1.13 0 .25.2.25.39 0 .11.02.12.1.05.08-.05.1-.15.09-.28-.02-.2-.01-.21.38-.34 2.55-.86 2.56-3.42.03-5.34-1.99-1.5-1.43-3.38.7-2.38.53.24.66.27.66.14 0-.05.02-.1.05-.11.17-.07.29-.44.19-.57a.81.81 0 0 1-.1-.41c0-.87-1.4-1.48-2.51-1.1Z" fill="#150A0E"/></svg>