<!-- by TradingView --><svg width="18" height="18" viewBox="0 0 18 18" xmlns="http://www.w3.org/2000/svg"><path fill="#F0F3FA" d="M0 0h18v18H0z"/><path fill-rule="evenodd" d="M9 13.38a4.38 4.38 0 1 0 0-8.76 4.38 4.38 0 0 0 0 8.75ZM9 14A5 5 0 1 0 9 4a5 5 0 0 0 0 10Z" fill="#FFDD3B"/><path d="M7.69 6H14l-.55.6H11.9L9.7 12H3l.55-.6h2.07L7.7 6Zm-1.47 5.4h3.12l.74-1.8c-.17-.4-.44-.68-.85-.71-.41-.04-.81.11-1.22.11a.96.96 0 0 1-.75-.33L6.22 11.4Zm1.3-3.42c.06.25.24.42.49.42.42 0 .83-.15 1.26-.11.44.04.82.25 1.08.63l.95-2.32H8.05l-.53 1.38Z" fill="#009641"/></svg>