<!-- by TradingView --><svg width="18" height="18" viewBox="0 0 18 18" xmlns="http://www.w3.org/2000/svg"><path fill="#F0F3FA" d="M0 0h18v18H0z"/><path d="M10.04 11.07c-.03.61-.13.96-.17 1.06l.32.95 3.28-1.27c.17-.23.53-.76.53-1.13 0-.45-.3-1.6-1.93-1.6-1.62 0-2 1.23-2.03 2Z" fill="url(#a)"/><path d="M9.26 4c-1.88 0-3.04.83-3.61 1.33L5.02 6.8l-.17 2.24c.17-.27.78-.8 1.86-.8 1.35 0 1.86.8 3.2.8 1.35 0 2.74-.75 2.74-2.15S11.6 4 9.25 4Z" fill="url(#b)"/><path d="M7.25 10.65c-2.4-2.22-2-4.53-1.5-5.41A4.91 4.91 0 0 0 4 8.89 5.11 5.11 0 0 0 9.32 14c2.5 0 4-1.76 4.43-2.63-.38.44-3.51 2.06-6.5-.72Z" fill="url(#c)"/><path d="M5.68 8.43c.28.71.77 1.47 1.57 2.22.9.83 1.8 1.27 2.64 1.46a1 1 0 0 1-.14.27 2.31 2.31 0 0 1-1.9 1.02c-.9 0-1.63-.29-2.27-.81-.34-.33-.64-.7-.88-1.1-.3-.7-.3-1.51 0-2.15.22-.47.63-.75.98-.9Z" fill="#F8971C"/><defs><linearGradient id="a" x1="11.55" y1="9.08" x2="11.95" y2="11.95" gradientUnits="userSpaceOnUse"><stop stop-color="#BEE7FB"/><stop offset="1" stop-color="#0BBDF2"/></linearGradient><linearGradient id="b" x1="5.8" y1="6.59" x2="9.19" y2="10.37" gradientUnits="userSpaceOnUse"><stop stop-color="#5DBB46"/><stop offset="1" stop-color="#D7DF20"/></linearGradient><linearGradient id="c" x1="4.91" y1="5.92" x2="13.95" y2="12.71" gradientUnits="userSpaceOnUse"><stop stop-color="#FCB315"/><stop offset=".21" stop-color="#F57B20"/><stop offset=".68" stop-color="#ED4223"/><stop offset="1" stop-color="#F4BA16"/></linearGradient></defs></svg>