<!-- by TradingView --><svg width="18" height="18" viewBox="0 0 18 18" xmlns="http://www.w3.org/2000/svg"><path fill="#F0F3FA" d="M0 0h18v18H0z"/><path d="M14.43 6.37 15 5H7.39c-.51 0-.97.33-1.2.87l-.84 1.89c.37-.58.97-.75 1.18-.76h7c.38 0 .73-.24.9-.63ZM3.76 11.6 3 13h7.61c.51 0 1.26-.67 1.49-1.2l.65-1.58c-.36.58-.88.77-1.1.78h-7a.97.97 0 0 0-.9.6Z" fill="#E50013"/><path d="M13.13 8h-7.9l-.72 1.5c-.14.23.06.5.37.5h7.92l.7-1.5c.14-.23-.06-.5-.37-.5Z" fill="#1F2D5C"/><path opacity=".5" d="m5.56 8.5-.6 1h7.46l.55-1h-7.4Z" fill="#fff"/></svg>