<!-- by TradingView --><svg width="18" height="18" viewBox="0 0 18 18" xmlns="http://www.w3.org/2000/svg"><path fill="#F0F3FA" d="M0 0h18v18H0z"/><path d="M11 7h.85l1.13 2.9h.04L14.15 7H15v4h-.7V8.25L13.25 11h-.5L11.7 8.25V11H11V7ZM10.3 8.43h-.75c-.06-.35-.24-.64-.62-.75A1.19 1.19 0 0 0 8 7.8c-.17.1-.3.26-.4.47-.1.2-.15.45-.15.74 0 .3.05.55.15.75.1.2.23.36.4.46a1.24 1.24 0 0 0 .93.1.83.83 0 0 0 .63-.67l.75.02a1.55 1.55 0 0 1-1.07 1.24c-.2.07-.42.1-.66.1-.36 0-.68-.08-.96-.24a1.7 1.7 0 0 1-.67-.68c-.16-.3-.24-.66-.24-1.08 0-.42.08-.78.25-1.08.16-.3.38-.52.66-.68a2.12 2.12 0 0 1 1.6-.15c.64.2 1 .71 1.09 1.34ZM5.27 8.14a.56.56 0 0 0-.23-.4.87.87 0 0 0-.51-.14.98.98 0 0 0-.38.06c-.1.05-.19.1-.24.18a.44.44 0 0 0-.03.47.5.5 0 0 0 .15.16l.22.1.23.07.37.09c.15.03.3.08.43.14.13.06.26.13.37.22a.96.96 0 0 1 .35.76 1.05 1.05 0 0 1-.68 1 2 2 0 0 1-.8.15c-.74 0-1.49-.37-1.52-1.14h.7c.02.37.47.54.81.54.16 0 .29-.02.4-.07.12-.05.21-.11.28-.2.07-.08.1-.17.1-.29 0-.1-.03-.18-.09-.25a.66.66 0 0 0-.24-.16c-.1-.05-.23-.09-.37-.13l-.44-.1a1.8 1.8 0 0 1-.77-.38.86.86 0 0 1-.28-.67 1 1 0 0 1 .19-.6c.13-.18.3-.31.51-.4.22-.1.46-.15.74-.15.28 0 .52.05.73.14.2.1.37.23.5.4.11.17.17.38.18.6h-.68Z"/></svg>