<!-- by TradingView --><svg width="18" height="18" viewBox="0 0 18 18" xmlns="http://www.w3.org/2000/svg"><path fill="#000073" d="M0 0h18v18H0z"/><path d="m10.54 7.7.04-.03c.64-.5 1.42-.46 1.68-.42-.1-.3-.58-1.25-1.96-1.25-.78 0-1.3.4-1.59.73-.34.39-.43.85-.44 1.1-.12 1.57-.7 2.33-.9 2.49-.71.56-1.38.53-1.64.48a2 2 0 0 0 2 1.2 2.06 2.06 0 0 0 1.43-.56c.45-.43.65-1.52.67-1.72.1-.97.5-1.85.71-2.03ZM14 6.2a.48.48 0 0 0-.18-.36l-1.07-.79s-.21-.17-.21.1V8.8c0 .23-.07.9-.71 1.43-.79.64-1.62.57-1.91.53.16.3.74 1.23 2.06 1.23 1.21 0 2.03-.96 2.03-1.9l-.01-3.9ZM6.18 7.78a2.44 2.44 0 0 1 1.9-.52A2.27 2.27 0 0 0 6.04 6 2.03 2.03 0 0 0 4 7.97v3.83c0 .23.18.36.18.36l1.08.79s.21.17.21-.1V9.17c0-.23.06-.86.7-1.39Z" fill="#fff"/></svg>