<!-- by TradingView --><svg width="18" height="18" viewBox="0 0 18 18" xmlns="http://www.w3.org/2000/svg"><path fill="#F0F3FA" d="M0 0h18v18H0z"/><path d="M7.1 13.45c.69.49 1.84.57 2.37.55l1.65-.93c.1-.68.27-1.96.1-1.66-.22.38-1.18.84-1.92.84-.44 0-.84-.1-1.09-.2a.31.31 0 0 0-.35.1l-.8.94c-.09.11-.08.28.04.36Z" fill="#FFB52D"/><path d="M12.4 6.09 9.95 8.62a.3.3 0 0 0 0 .43c.5.5 1.2 1.41 1.2 2.18 0 1.67-1.75 2.52-1.82 2.63-.07.1 0 .14.14.14 2.9 0 4.52-2.67 4.52-4.76 0-1.45-.71-2.6-1.2-3.15-.11-.12-.3-.12-.4 0Z" fill="#001DA9"/><path d="M10.9 4.55A4.35 4.35 0 0 0 8.53 4l-1.65.93c-.1.68-.27 1.96-.1 1.66.22-.38 1.18-.84 1.92-.84.44 0 .84.1 1.09.2.12.03.26 0 .35-.1l.8-.94c.09-.11.08-.28-.04-.36Z" fill="#FFB52D"/><path d="m5.6 11.9 2.44-2.52a.3.3 0 0 0 0-.43c-.5-.5-1.2-1.41-1.2-2.18 0-1.67 1.75-2.52 1.82-2.63.07-.1 0-.14-.14-.14C5.62 4 4 6.67 4 8.76c0 1.45.71 2.6 1.2 3.15.11.12.3.12.4 0Z" fill="#001DA9"/></svg>