<!-- by TradingView --><svg width="18" height="18" viewBox="0 0 18 18" xmlns="http://www.w3.org/2000/svg"><path fill="#F0F3FA" d="M0 0h18v18H0z"/><path d="M8.47 6.53c0-.09.02-.13.07-.14l.12-.01c.05 0 .07.02.05.09-.06.17-.1.3-.1.39 0 .04-.03.07-.05.07l-.08-.01c-.05 0-.06-.04-.04-.09a.7.7 0 0 0 .03-.3Z" fill="url(#a)"/><path d="M8.11 6.9c.03.02.04.04.03.08l-.02.18c0 .04-.02.06-.04.04-.09-.04-.13-.08-.14-.12a1.7 1.7 0 0 0-.08-.3.09.09 0 0 1 .02-.1c.03-.02.07-.05.1.02.03.12.04.16.13.2Z" fill="url(#b)"/><path d="M10.43 7v.13c-.01.05-.06.09-.11.07l-.11-.02c-.06 0-.08-.07-.06-.11L10.2 7l.03-.03c.06-.03.2-.09.2.04Z" fill="#469CDD"/><path d="m11.22 7.48-.1-.17c-.05-.07-.1-.1-.15-.12a.33.33 0 0 1-.22-.15c-.06-.1-.04-.13.05-.1.1.05.22.1.33.13.14.04.18.14.14.32-.02.08-.04.1-.05.09Z" fill="url(#c)"/><path fill-rule="evenodd" d="M9.48 7.6c.05.06.09.1.11.15.01.02 0 .03-.02.03h-.39a.05.05 0 0 1-.04-.05c0-.03 0-.08.02-.12.01-.02 0-.05-.01-.06a.55.55 0 0 1-.22-.18.57.57 0 0 0-.4-.22c-.05-.01-.1.04-.08.09.01.04.03.08.06.1l.12.02c.1 0 .17.05.22.15v.07l-.1.14a.09.09 0 0 1-.07.04l-.2.01c-.12.01-.13-.02-.05-.1l.14-.12c.08-.06.07-.1-.03-.1h-.08c-.05.02-.1-.01-.09-.06l.02-.15c0-.04-.01-.05-.05-.05-.02 0-.03.03-.05.06a.12.12 0 0 0 0 .1.06.06 0 0 1-.07.08.62.62 0 0 1-.4-.21 1.2 1.2 0 0 0-.34-.31.1.1 0 0 1-.05-.06 1.12 1.12 0 0 1-.04-.23c0-.11-.06-.16-.17-.14-.15.03-.25.07-.3.12-.07.06-.19-.02-.24.06-.06.1-.11.2-.21.27-.03.02-.02.03.01.04h.15c.13 0 .2.1.22.21.04.24.02.45-.06.65a.07.07 0 0 1-.06.04l-.68.1A.05.05 0 0 1 6 7.94l-.05-.13a.05.05 0 0 0-.08-.02l-.02.06-.01.1c0 .03-.02.05-.05.05-.65.12-2.8.38-2.79 1.35 0 .58 1.04.9 1.48 1.03l.1.06v.12c-.01.08.01.11.08.11h.36c.03 0 .04 0 .04.04v.4c0 .03.02.05.06.05h.11c.03 0 .06-.02.06-.05v-.41c0-.02 0-.03.02-.03.2 0 .37 0 .55.02.45.07 1 .13 1.64.18.07 0 .25.09.52.25.07.04.12.11.17.18.05.07.1.15.2.2.05.02.13.02.2.02h.12c.03.01.05.02.06.04a.2.2 0 0 1-.04.26l-.02.01c-.12.1-.2.16-.19.34l.03.06c.16.1.29.21.38.31.06.07.18.11.25.13.03.02.06.04.04.07l-.1.2a.05.05 0 0 0 0 .04l.02.02h.03a3.69 3.69 0 0 0 1.93-.84l.36-.58a.05.05 0 0 0-.04-.07h-.15a12.16 12.16 0 0 1-.57.08l-.16-.15a.1.1 0 0 0-.07-.03c-.2 0-.4-.05-.6-.15a.1.1 0 0 0-.07 0c-.13.03-.26.04-.4.02a.1.1 0 0 0-.06.02l-.05.03c-.02.02-.04.02-.06 0a.2.2 0 0 0-.08-.05c-.02 0-.04 0-.07.02-.1.06-.17.12-.25.19l-.02.01h-.03a.4.4 0 0 0-.17-.05c-.2-.01-.33-.1-.23-.32a.05.05 0 0 0-.02-.05.52.52 0 0 0-.28-.09c-.08 0-.04-.08-.01-.1.02-.02.04-.03.07-.01.02 0 .1.02.22.02 1.26.04 2.41-.02 3.47-.16.02 0 .03 0 .04.03l.02.25c0 .02.02.04.04.04h.03c.04 0 .06-.02.06-.06l.02-.26c0-.03.03-.04.05-.04.09.01.17.02.27-.02.12-.04.26-.08.42-.1.41-.09.82-.2 1.22-.35.35-.14 1-.41 1-.88.02-.86-1.8-1.17-2.37-1.26a.07.07 0 0 1-.05-.05c-.13-.43-.3-.9-.56-1.24-.03-.04-.06.03-.05.07.04.11.07.23.08.34l.02.06c.03.04.04.08.04.11 0 .04-.01.05-.04.05h-.1c-.03 0-.04.02-.04.05l-.01.44c0 .02-.01.04-.03.04-.04 0-.05-.05-.05-.08 0-.05-.02-.1-.05-.16a.85.85 0 0 1-.13-.52c0-.03.02-.05.05-.04a.2.2 0 0 1 .06.02c.03 0 .04 0 .04-.02 0-.04 0-.07-.03-.1-.01-.02-.03-.02-.05-.01-.07.03-.11.03-.13 0-.01-.02 0-.04.03-.05l.17-.04.02-.03a.24.24 0 0 0-.06-.1.08.08 0 0 1-.02-.07.72.72 0 0 0 0-.25.4.4 0 0 0-.1-.2 3.98 3.98 0 0 0-2.26-1.24 4.2 4.2 0 0 0-2.25.21.2.2 0 0 0-.09.08c-.01.02 0 .03.02.02l.11-.03c.14-.02.16.02.07.13-.06.07-.14.32-.31.39-.03 0-.04 0-.05-.02-.02-.03-.03-.07-.07-.07h-.16c-.16.02-.16.05 0 .09.05 0 .1.02.14.03.04 0 .05.02.04.05-.05.18-.02.26.09.26.03 0 .04 0 .04.04 0 .03 0 .06-.02.09-.04.07-.03.09.05.06.1-.04.26-.27.34-.38.03-.05.1-.1.18-.16l.4-.24a.37.37 0 0 1 .23-.09c.02 0 .1 0 .26-.03.09-.01.06.15.15.13l.52-.09h.02c.14.06.25.06.35.02a.07.07 0 0 1 .07 0l.48.28c.03.03.1.05.22.07.02 0 .04.02.05.04.03.07-.06.11-.1.07-.02 0-.02-.01-.03-.02a.13.13 0 0 0-.07-.08c-.03-.01-.05 0-.05.03-.05.23.07.3.21.38.09.05.18.1.25.2l.14.19c.04.05.13.07.17 0 .02-.04.06-.06.1-.06.08 0 .09-.02.04-.07a.48.48 0 0 0-.15-.1 1.46 1.46 0 0 1-.41-.24c-.03-.02.03-.07.05-.04a.3.3 0 0 0 .15.1c.03.01.05 0 .06-.02l.02-.04c.01-.02.03-.03.06 0 .17.12.34.24.35.45 0 .03-.01.04-.04.04-.1 0-.09.08-.01.08.02 0 .03.02.05.04.17.17.25.35.25.53 0 .04.01.06.05.07l.19.06a.09.09 0 0 1 .03.12c-.06.1-.09.17-.08.2a.05.05 0 0 1-.05.06c-.48-.06-.99-.09-1.5-.1a.06.06 0 0 1-.06-.04.61.61 0 0 1-.08-.46l.07-.32c.01-.06-.24-.25-.28-.28a1.1 1.1 0 0 0-.48-.24l-.04.01a.52.52 0 0 0-.25.35c-.03.14.14.17.24.2a.1.1 0 0 1 .04.04c.08.1.16.18.24.23.02.01.03.03.04.06 0 .1.02.16.1.25Zm-2.8 2.5c-.1-.37-.17-.68-.2-.92v-.3c0-.11.04-.2.08-.3l.2-.32c0-.02-.02-.06-.03-.2 0-.03.03 0 0 0l-.45.1c-.02 0 .01-.02 0 0h-.06a.04.04 0 0 1-.05.03l-.13-.01c-.03 0-.05 0-.05.04 0 .07-.02.14-.03.2 0 .03-.02.05-.05.06a.05.05 0 0 1-.06-.04l-.02-.22c0-.02-.01-.03-.03-.03-.15-.03-.32.1-.47.13-.52.1-2.1.2-2.08 1 0 .56 1.32.83 1.78 1.11.02 0 .03 0 .03-.02v-.35c0-.06.03-.1.09-.1s.14.01.14.1v.33c0 .02.01.05.04.05h.34c.03 0 .04.01.05.03.04.08.12 0 .24.01.42.06.85.19 1.25.21l-.23-.21a.08.08 0 0 1-.02-.06v-.04c0-.04 0-.08-.02-.13a6.33 6.33 0 0 1-.2-.65c-.02-.04-.1-.03-.08.01l.1.5c0 .03-.07.01-.08-.01Zm1.78-1.78-.2-.1a.1.1 0 0 1-.04-.03.34.34 0 0 1-.06-.2c0-.08.04-.11.11-.12h.38c.07-.02.1.02.08.1a.8.8 0 0 0 .01.24.75.75 0 0 1-.04.27c-.05.15-.1.15-.16 0l-.04-.1a.09.09 0 0 0-.04-.06Zm3.4 2.2.03-.3c0-.04.02-.05.05-.05h.05c.02.02.03.04.03.07l.02.27c0 .02.02.04.04.04.22 0 .36-.16.55-.2.47-.1 2.05-.33 2.08-1 .03-.78-1.42-1-1.93-1.09-.03 0-.16-.04-.16 0 .03.17.06.4.08.67.01.22-.07.42-.15.63l-.08.22c0 .02-.02.03-.05.04a.31.31 0 0 1-.26-.12.07.07 0 0 1-.02-.05c0-.08-.03-.2-.1-.36-.08-.18-.09-.4-.04-.67 0-.03 0-.05-.02-.07a.56.56 0 0 1-.1-.42c0-.06-.18-.06-.22-.08-.04-.03-.14.02-.24 0l-1.49-.09-.45-.02c-.23.01-.43-.06-.5-.08-.04-.01-.05 0-.03.03l.1.15c0 .02.02.02.04.02l.07-.02c.02-.01.05 0 .07 0l.4.36c.05.05.04.14.1.18l.12.09c.05.08.03.1-.06.08-.08-.02-.12-.07-.15-.17 0-.02-.01-.03-.04-.02l-.4.16c-.02 0-.02.04-.03.05 0 .01 0 .02.02.01l.15-.03c.07 0 .06.1.11.12h.03c.06-.03.1-.03.13-.02.03.01.03.04 0 .06l-.19.16a.06.06 0 0 1-.06 0c-.16-.07-.2.06-.23.19a13.17 13.17 0 0 0-.55.72c-.04.1-.03.22.04.36.02.03-.03.03-.05.03-.02 0-.03 0-.04-.02a.6.6 0 0 0-.1-.2.32.32 0 0 0-.37-.07H8a1.15 1.15 0 0 0-.38.02.06.06 0 0 0-.05.04l-.07.24c-.05.24.11.38.33.4.03 0 .04 0 .06-.02.04-.06.1-.1.15-.12.03-.01.05 0 .05.03l.04.12c0 .02.02.03.05.03h.46c.22 0 .23-.05.03-.15a.6.6 0 0 0-.34-.02c-.03 0-.01-.05 0-.06.19-.07.4.01.59.09.03 0 .03.02.03.05l-.03.04c-.02.02-.01.04.01.04.05.01.08 0 .12-.03.04-.02.09-.05.16-.02.15.04.31-.09.52-.1.58-.02 1.07-.04 1.54-.1.13-.01.26.08.32.01a.07.07 0 0 1 .06-.03l.17.01c.03 0 .04 0 .04-.02Z" fill="url(#d)"/><defs><linearGradient id="a" x1="8.57" y1="6.38" x2="8.57" y2="6.93" gradientUnits="userSpaceOnUse"><stop stop-color="#D85A28"/><stop offset=".61" stop-color="#469CDD"/><stop offset="1" stop-color="#D12D7D"/></linearGradient><linearGradient id="b" x1="8" y1="6.66" x2="8" y2="7.21" gradientUnits="userSpaceOnUse"><stop offset=".47" stop-color="#449850"/><stop offset="1" stop-color="#D12D7D"/></linearGradient><linearGradient id="c" x1="11" y1="6.93" x2="11" y2="7.48" gradientUnits="userSpaceOnUse"><stop stop-color="#D85A28"/><stop offset=".47" stop-color="#449850"/><stop offset=".76" stop-color="#2252A0"/></linearGradient><linearGradient id="d" x1="9" y1="5" x2="9" y2="13" gradientUnits="userSpaceOnUse"><stop stop-color="#D85A28"/><stop offset=".24" stop-color="#FBF050"/><stop offset=".47" stop-color="#449850"/><stop offset=".61" stop-color="#469CDD"/><stop offset=".76" stop-color="#2252A0"/><stop offset="1" stop-color="#D12D7D"/></linearGradient></defs></svg>