<!-- by TradingView --><svg width="18" height="18" viewBox="0 0 18 18" xmlns="http://www.w3.org/2000/svg"><path fill="#F0F3FA" d="M0 0h18v18H0z"/><path fill-rule="evenodd" d="M10.1 6.48c.53.13 1.07.32 1.64.56.05.02.05.04 0 .07l-.06.04c-.05.03-.05.06 0 .09 1.17.55 1.89 1.18 2.16 1.9.2.55.05 1-.46 1.37-.37.27-.85.45-1.43.54a9.15 9.15 0 0 1-3.2-.09c-.04 0-.06-.03-.04-.06.2-.57.3-1.14.3-1.74 0-.04 0-.08.03-.1.07-.12.16-.22.25-.31a7.6 7.6 0 0 1 2.2-1.52c.05-.03.05-.06 0-.08a13.24 13.24 0 0 0-1.54-.6.05.05 0 0 1 0-.03c0-.04-.02-.07-.06-.08a11.3 11.3 0 0 0-3.42-.47c-1.21.03-2.14.28-2.77.77-.58.45-.8.97-.66 1.57.12.5.46.98 1.03 1.45a8.46 8.46 0 0 0 2.43 1.37c.14.06.14.1 0 .15l-1 .37a.09.09 0 0 0-.06.07l-.36 2.22c0 .06.02.07.07.05.91-.44 1.71-.95 2.4-1.54a7.16 7.16 0 0 0 .69-.72.09.09 0 0 1 .09-.02c1.47.34 2.87.42 4.18.24 1.2-.17 1.98-.58 2.33-1.23.34-.64.15-1.32-.57-2.05-.6-.6-1.4-1.13-2.4-1.56-.06-.03-.06-.05-.01-.08l.14-.07c.25-.12.4-.25.44-.4.23-.78.47-1.61.71-2.49.03-.07 0-.09-.06-.05a60.16 60.16 0 0 0-3 2.39c-.04.04-.03.06.01.07ZM8.74 8.43l.02-.39c.04-.37.4-.85 1.1-1.45l.02-.01c.02-.02.02-.03 0-.04a11.93 11.93 0 0 0-3.5-.44 6 6 0 0 0-1.13.16A3 3 0 0 0 3.84 7c-.33.3-.4.69-.2 1.15.15.36.4.68.76.98a7.97 7.97 0 0 0 2.87 1.49c.17.06.3.08.37.04.48-.24.8-.63.97-1.17.05-.19.1-.54.13-1.05Z" fill="#E60012"/></svg>