<!-- by TradingView --><svg width="18" height="18" viewBox="0 0 18 19" xmlns="http://www.w3.org/2000/svg"><path fill="#F0F3FA" d="M0 .5h18v18H0z"/><path d="M11.89 13.58a5 5 0 1 0-7.54-2.24A4.21 4.21 0 0 1 6.19 9.5c-.21.31-.56 1.03-.31 1.4.3.47 2.8-.15 4.06-.93-.52-.68-1.75-2.03-2.5-2.03s-.73.83-.63 1.25c-.36-.89-.87-2.78 0-3.28 1.1-.63 3.28 1.71 4.07 3.28.41-.26 1.18-.94.93-1.56-.25-.63-.73-.68-.94-.63.47-.16 1.5-.31 1.88.31.47.78-.47 2.03-1.4 2.82.29.88.72 2.58.54 3.45Zm-1.01.56a3.17 3.17 0 0 1-1.25-.89c.2.1.71.22 1.09-.16.37-.37-.05-1.61-.31-2.18-1.05.75-3.43 1.95-4.96 2.1a4.98 4.98 0 0 0 5.43 1.13Z" fill="#C91932"/></svg>