<!-- by TradingView --><svg width="18" height="18" viewBox="0 0 18 18" xmlns="http://www.w3.org/2000/svg"><path fill="#F0F3FA" d="M0 0h18v18H0z"/><path d="M7.31 7.67c.56-1.98 2.93-1.8 4.05-1.46l-.7 1.46c-1.73-.68-1.8.27-1.05.69.6.33.78 1.1.7 1.46-.63 2.62-3.35 2.34-4.64 1.88l.65-1.4c2.04.4 2.7-.4 1.75-1.01-.75-.5-.87-1.26-.76-1.62Zm-1.8-.06L3.65 12H2l1.99-4.39H2.72L3.52 6h3.72l-.7 1.61H5.5ZM12.84 6l-2.6 6h1.46l.97-2.19c.66.27 2.19.38 3-1.34.82-1.73-.12-2.37-.7-2.47h-2.13Zm.6 2.33.15-.7h.71a.35.35 0 0 1 0 .7h-.86Z" fill="#1964CF"/></svg>