<!-- by TradingView --><svg width="18" height="18" viewBox="0 0 18 18" xmlns="http://www.w3.org/2000/svg"><path fill="#0161B7" d="M0 0h18v18H0z"/><path fill-rule="evenodd" d="M9 14A5 5 0 1 0 9 4a5 5 0 0 0 0 10Zm-2.81-1.25c-.21-1.98.31-6 4.06-6.25.52 0 1.56.25 1.56 1.25 0 1.25-1.1 1.56-1.4 1.56-.32 0-.63-.15-.63-.62 0-.38.63-.68.94-.78-.15-.26-.76-.7-1.95-.49.24-.03.72 0 1.17.33-.73.2-2.16.94-2.03 2.19.15 1.56 1.4 2.97 3.28 2.81 1.5-.13 2.19-1.4 2.34-2.03-.2.15-.97.47-2.34.47-1.72 0-2.35-.78-2.5-1.25-.13-.38.15-.78.31-.94-.1.52 0 1.56 1.25 1.56 1.56 0 2.97-1.22 2.97-2.81 0-1.56-1.25-2.5-2.66-2.5-1.4 0-5.94 1.25-4.37 7.5Z" fill="#fff"/></svg>