<!-- by TradingView --><svg width="18" height="18" viewBox="0 0 18 18" xmlns="http://www.w3.org/2000/svg"><path fill="#F0F3FA" d="M0 0h18v18H0z"/><path d="M4 8.8C4 6.6 5.71 4 9 4s5 2.6 5 4.8a2.51 2.51 0 0 1-1.93 2.55A3.16 3.16 0 0 1 8.98 14a3.16 3.16 0 0 1-3.09-2.65A2.52 2.52 0 0 1 4 8.8Z" fill="#458E40"/><path d="M4.3 8.81c0-2.07 1.6-4.5 4.7-4.5s4.7 2.43 4.7 4.5c0 .88-.37 1.49-.85 1.86-.32.26-.69.4-1 .47a2.9 2.9 0 0 1-2.86 2.56 2.9 2.9 0 0 1-2.86-2.56 2.55 2.55 0 0 1-1-.48 2.27 2.27 0 0 1-.84-1.85Z" fill="#F8FFF9"/><path d="M4.59 8.7A4.2 4.2 0 0 1 9 4.6a4.2 4.2 0 0 1 4.41 4.1c0 1.5-1.27 1.94-1.91 1.97l-2.53-.78-2.47.78c-.64-.03-1.91-.47-1.91-1.97Z" fill="url(#a)"/><path d="M7.52 12.83a1.73 1.73 0 0 1-.28-.95c0-1 .8-1.88 1.78-1.88.97 0 1.74.87 1.74 1.88 0 .34-.09.63-.25.9a2.5 2.5 0 0 0 .97-2.12 3.8 3.8 0 0 0-2.46-.9c-.97 0-1.86.28-2.53.86v.18c0 .85.4 1.57 1.03 2.03Z" fill="url(#b)"/><path d="M7.68 11.82a.76.76 0 0 1-.03-.2c0-.32.19-.58.45-.68.1.1.17.23.17.39a.5.5 0 0 1-.48.5l-.1-.01ZM10.38 11.75l.05.2c.05.3-.1.6-.35.74a.51.51 0 0 1-.22-.36.5.5 0 0 1 .4-.57h.12Z" fill="#C2192B"/><path d="M8.7 11.27a.27.27 0 0 0-.2.08c.29.06.24.24.17.32-.08.02-.26.09-.26.23 0 .19.14.28.26.28.13 0 .33-.18.33-.46s-.15-.45-.3-.45ZM9.3 11.58a.27.27 0 0 0-.2.07c.28.06.23.24.16.33-.08.01-.26.08-.26.23 0 .18.14.27.26.27.13 0 .33-.18.33-.46 0-.27-.16-.44-.3-.44Z"/><path fill-rule="evenodd" d="M10.47 11.88A1.5 1.5 0 0 1 9 13.39a1.5 1.5 0 0 1-1.47-1.51c0-.84.66-1.52 1.47-1.52.81 0 1.47.68 1.47 1.52Zm-.19 0A1.3 1.3 0 0 1 9 13.2a1.3 1.3 0 0 1-1.28-1.32c0-.7.53-1.28 1.2-1.32a.66.66 0 0 0 .64.76c.2 0 .37-.08.49-.21.15.22.23.48.23.77Z"/><path d="M8.26 12.6a1.47 1.47 0 0 1-.34-.53l.15-.06c.04.12.14.31.3.47.15.15.36.28.63.28.36 0 .51-.14.54-.18l.13.1c-.07.1-.28.24-.67.24-.32 0-.56-.15-.74-.33Z"/><path fill="#F0F3FA" fill-opacity=".5" d="M6 6h6v3H6z"/><defs><linearGradient id="a" x1="9" y1="4.61" x2="9" y2="10.67" gradientUnits="userSpaceOnUse"><stop stop-color="#99CA78"/><stop offset="1" stop-color="#035E3D"/></linearGradient><linearGradient id="b" x1="8.98" y1="9.76" x2="8.98" y2="13.35" gradientUnits="userSpaceOnUse"><stop stop-color="#04954A"/><stop offset="1" stop-color="#0B6947"/></linearGradient></defs></svg>