<!-- by TradingView --><svg width="18" height="18" viewBox="0 0 18 18" xmlns="http://www.w3.org/2000/svg"><path fill="#F0F3FA" d="M0 0h18v18H0z"/><path d="m7.3 4.58.78 1.37 5.68 3.84.18 1.47c-.2.58-1.1 1.74-3.22 1.74a26.2 26.2 0 0 1-3.92-.16l-1.78-2.67.2-2.47L6.46 5.5c.14-.2.6-.77.83-.93Zm-1 2.13c-.16.85-.27 2.86.65 4.13.75.18 2.28.5 2.34.43.06-.07.57-1.06.81-1.55-.69-.2-2.2-.73-2.7-1.22a5.56 5.56 0 0 1-1.1-1.8Z" fill="url(#agvwwslma)"/><path d="M10.68 9.55C7.83 9.15 6.7 7.59 6.5 6.86a2.15 2.15 0 0 1 .71-1.92c.92-.78 1.44-1 2.06-.92.5.07.98.44 1.16.62.62.45 2.1 1.8 3 3.53.7.91.62 2.46.5 3.12-.05-1.56-1.6-1.6-3.24-1.74Z" fill="url(#bgvwwslma)"/><path d="M4 10.5c0-2.32 2.2-4.93 3.3-5.95-1.4 1.54-1.8 3.61-.93 5.95A3.72 3.72 0 0 0 9.38 13H6.72c-2.1 0-2.69-1.68-2.72-2.5Z" fill="url(#cgvwwslma)"/><path d="M9.21 10.57c-.38.26-1.71.27-2.34.24 1.12 2.03 3.2 1.92 3.64 1.92.44 0 3.02-.3 3.02-1.6 0-1.29-1.85-1.23-2.3-1.24a9.54 9.54 0 0 1-1.25-.2c-.1.19-.4.62-.77.88Z" fill="url(#dgvwwslma)"/><defs><linearGradient id="agvwwslma" x1="5.33" y1="9.16" x2="13.8" y2="9.73" gradientUnits="userSpaceOnUse"><stop stop-color="#382700"/><stop offset=".2" stop-color="#90784C"/><stop offset=".33" stop-color="#FFFBE3"/><stop offset=".54" stop-color="#9D8642"/><stop offset=".71" stop-color="#513C00"/><stop offset="1" stop-color="#F1DDA2"/></linearGradient><linearGradient id="bgvwwslma" x1="6.99" y1="7.24" x2="11.87" y2="4.97" gradientUnits="userSpaceOnUse"><stop stop-color="#472C01"/><stop offset=".29" stop-color="#926D28"/><stop offset=".46" stop-color="#A98E3D"/><stop offset=".66" stop-color="#FFF796"/><stop offset=".8" stop-color="#A18738"/><stop offset="1" stop-color="#665423"/></linearGradient><linearGradient id="cgvwwslma" x1="6.69" y1="4.55" x2="6.69" y2="12.97" gradientUnits="userSpaceOnUse"><stop stop-color="#4B3004"/><stop offset=".26" stop-color="#AD913D"/><stop offset=".4" stop-color="#DCC97A"/><stop offset=".51" stop-color="#FAFA96"/><stop offset=".6" stop-color="#D4BF70"/><stop offset=".73" stop-color="#9C762D"/><stop offset="1" stop-color="#472C01"/></linearGradient><linearGradient id="dgvwwslma" x1="7.72" y1="12.05" x2="11.98" y2="9.41" gradientUnits="userSpaceOnUse"><stop stop-color="#482C01"/><stop offset=".25" stop-color="#815E1E"/><stop offset=".38" stop-color="#C9B054"/><stop offset=".55" stop-color="#FFF490"/><stop offset=".66" stop-color="#CBB359"/><stop offset=".89" stop-color="#825F1D"/><stop offset="1" stop-color="#482C01"/></linearGradient></defs></svg>