<!-- by TradingView --><svg width="18" height="18" viewBox="0 0 18 18" xmlns="http://www.w3.org/2000/svg"><path fill="#F0F3FA" d="M0 0h18v18H0z"/><path d="M2 10.16V7h1v2.96c0 .32.46.54.8.54h2.53l-.5.5H2.88a.86.86 0 0 1-.88-.84ZM11 7.92V11H9.5V7.85c0-.07-.17-.34-.5-.35h-.84l.48-.5h1.48a.9.9 0 0 1 .88.92Z" fill="#0D4DA1"/><path fill-rule="evenodd" d="M4 7.7v2.1c0 .1.15.2.27.2H5.8c.12 0 .2-.1.2-.2V7.2l.2-.17H4l-.39.38.39.28Zm.08-.5-.25.22.34.25v.7h1.66V7.2H4.08Z" fill="#0D4DA1"/><path d="M7 11V7.73L8 7v4H7ZM12 11V7.9l1-.9v4h-1ZM16 7s-2.95 1.98-3 2c1.26-.16 1.55.2 1.5.36V11H16V9.24c0-.3-.25-.57-.55-.57h-.62v-.15L16 7.73V7Z" fill="#0D4DA1"/><path d="m5 5 .24.76H6l-.62.48.24.76L5 6.53 4.38 7l.24-.76L4 5.76h.76L5 5Z" fill="#EE1D23"/></svg>