<!-- by TradingView --><svg width="18" height="18" viewBox="0 0 18 18" xmlns="http://www.w3.org/2000/svg"><path fill="#8A040E" d="M0 0h18v18H0z"/><path d="M6.34 6h-.62v.3c-.33.03-.64.12-.92.26l-.16-.24-.52.33.16.25c-.2.16-.39.36-.54.58l-.26-.13-.28.55.26.13c-.08.21-.13.43-.16.66H3v.62h.3c.03.23.08.45.16.66l-.26.13.28.55.26-.13c.15.22.33.42.54.58l-.16.25.52.33.16-.24c.28.14.6.23.92.26v.3h.62v-.31c.32-.04.63-.14.9-.29l.18.28.53-.33-.2-.3c.23-.2.43-.44.58-.7H6.79A1.57 1.57 0 0 1 4.42 9 1.57 1.57 0 0 1 6.8 7.65h1.54c-.15-.27-.35-.51-.58-.71l.2-.3-.53-.33-.18.28a2.67 2.67 0 0 0-.9-.29V6Z" fill="#CCBEBF"/><path d="M12 8.57V7h-1v4h1V9.58L13.33 11h1.34l-1.84-1.96L15 7h-1.33L12 8.57ZM10.82 7v.75h-2.4c-.16 0-.27.2-.27.36 0 .17.1.36.28.36h1.82c.41 0 .75.47.75.88v.9c0 .42-.34.75-.75.75H7v-.75h2.57c.17 0 .3-.16.3-.33s-.13-.4-.3-.4H7.75c-.41 0-.75-.39-.75-.8v-.97c0-.42.34-.75.75-.75h3.07Z" fill="#BA731F"/></svg>