<!-- by TradingView --><svg width="18" height="18" viewBox="0 0 18 18" xmlns="http://www.w3.org/2000/svg"><path fill="#971433" d="M0 0h18v18H0z"/><path d="m4.26 11.61.19-.1a.11.11 0 0 1 .1 0l.56.3c.21.12.5.18.87.19.31 0 .6-.09.85-.28.26-.2.45-.47.55-.8.14-.43.14-.85.01-1.25a1.7 1.7 0 0 0-.73-.93c-.24-.16-.6-.33-1.08-.51-.12-.05-.23-.11-.34-.18a.97.97 0 0 1-.45-.6.87.87 0 0 1 .1-.65c.1-.2.27-.34.47-.4a.78.78 0 0 1 .67.06c.34.19.6.6.76 1.21.02.07.06.11.12.13.12.03.18-.02.19-.16l-.02-1.2a.1.1 0 0 0-.03-.09.08.08 0 0 0-.09-.02l-.24.07c-.05 0-.12-.02-.2-.1a1.5 1.5 0 0 0-1.1-.3c-.44.05-.77.25-1.02.6-.18.27-.27.6-.26 1a1.62 1.62 0 0 0 .97 1.5c.56.25.9.4 1.02.47.47.24.7.56.69.97 0 .3-.1.55-.26.75a.84.84 0 0 1-.64.33c-.37.01-.7-.13-.98-.43a2.05 2.05 0 0 1-.52-1.06c-.01-.04-.03-.07-.07-.08a.77.77 0 0 0-.28-.01c-.04 0-.06.03-.06.07v1.44c.01.35.1.37.25.06Zm8.06-4.38c.1-.24.14-.23.13.04-.03 1.1-.04 2.34-.03 3.73 0 .37-.17.56-.51.54-.06 0-.1.04-.11.1l-.03.2c-.01.06.01.16.07.16h2c.11 0 .16-.13.16-.25v-.04c-.01-.08-.05-.12-.12-.13h-.01c-.25-.04-.42-.1-.49-.16a2.18 2.18 0 0 0-.04-.04c-.13-.1-.34-.28-.34-.53v-3.6c0-.27.2-.69.5-.77l.38-.09c.08-.01.12-.06.12-.16v-.09c0-.09-.05-.13-.13-.13H12.5c-.08 0-.13.04-.16.12l-1.63 4.33c-.01.03-.03.04-.06.04s-.05-.02-.06-.04L9.01 6.08C9 6.03 8.96 6 8.91 6H7.43c-.07 0-.1.04-.1.12v.12c0 .09.04.13.11.14.13 0 .26.03.4.08.13.06.16.18.16.39V8.1c.01 1.59.02 2.53 0 2.83-.02.4-.2.6-.57.6-.08 0-.12.04-.12.13v.15c0 .09.04.19.11.19h1.6c.02 0 .03-.03.05-.05l.02-.04c.07-.06.1-.14.07-.21-.02-.07-.07-.12-.15-.15a.86.86 0 0 0-.12-.03c-.19-.04-.3-.1-.37-.17a.66.66 0 0 1-.12-.41c0-1.4-.01-2.7-.04-3.9 0-.06.02-.07.06-.05.03.01.04.03.06.07l1.67 4.55c.05.16.13.28.25.36.07.05.12.03.16-.06l1.76-4.68Z" fill="#fff"/></svg>