<!-- by TradingView --><svg width="18" height="18" viewBox="0 0 18 18" xmlns="http://www.w3.org/2000/svg"><path fill="#F0F3FA" d="M0 0h18v18H0z"/><path fill-rule="evenodd" d="M13.12 7.45a4 4 0 0 0-1.37-1.1c-.12-.06-.11-.09.03-.1.31 0 .62.02.92.06.16.02.3 0 .41-.06a.4.4 0 0 0 .2-.34.3.3 0 0 0-.07-.22 4.65 4.65 0 0 0-5.03-1.47 4.3 4.3 0 0 0-2.11 1.4 3.9 3.9 0 0 0-.89 2.5c0 .17-.04.17-.11.03l-.45-.86a.42.42 0 0 0-.34-.23.43.43 0 0 0-.39.14.52.52 0 0 0-.11.18c-.3.77-.38 1.54-.24 2.3.13.73.44 1.36.93 1.92.5.55 1.12.95 1.85 1.2.79.26 1.62.32 2.5.17.46-.07.9-.24 1.3-.51.12-.08.15-.06.08.06-.12.25-.3.49-.51.73-.17.2-.2.39-.06.58.09.13.21.19.38.17a5.06 5.06 0 0 0 1.89-.62c.59-.33 1.06-.76 1.41-1.28a3.8 3.8 0 0 0 .53-3.18 3.93 3.93 0 0 0-.75-1.47Zm-4.49.81L8.27 9.4a.2.2 0 0 0 .06.23c.07.06.15.08.24.06l1.23-.27c.1-.02.16-.08.19-.16a.2.2 0 0 0-.06-.22l-.88-.86a.24.24 0 0 0-.23-.06.22.22 0 0 0-.19.15Z"/><path d="M7.68 9.62c-.43-.04-.92-.2-1.47-.49a.92.92 0 0 1-.53-.79c-.09-1.25.41-2.3 1.5-3.12a4.03 4.03 0 0 1 4.32-.37c.46.23.87.53 1.23.91.1.1.07.15-.07.13-.7-.1-1.36-.05-1.96.13-.63.19-1.18.52-1.64.99a4.01 4.01 0 0 0-1.2 2.47c0 .05-.03.08-.06.1a.16.16 0 0 1-.12.04Z" fill="#EB5828"/><path d="M10.11 13.47c.42-.49.7-1 .85-1.53.16-.57.16-1.14 0-1.7a4.28 4.28 0 0 0-1.8-2.48.12.12 0 0 1-.06-.08c0-.04 0-.07.03-.1.43-.54.98-.9 1.65-1.09a.23.23 0 0 1 .13 0 3.46 3.46 0 0 1 2.58 2.84 3.23 3.23 0 0 1-.67 2.75c-.3.37-.68.68-1.13.94-.45.25-.96.44-1.51.55-.13.02-.15 0-.07-.1Z" fill="#EB5828"/><path d="M7.4 12.6a4.58 4.58 0 0 1-1.72-.58 3.4 3.4 0 0 1-1.7-2.56 4.23 4.23 0 0 1 .16-1.71c.06-.23.15-.24.25-.02.58 1.24 1.5 1.99 2.77 2.24 1.06.2 2.05.1 2.99-.29.07-.03.13-.01.16.06.3.63.36 1.25.2 1.86a.32.32 0 0 1-.1.18c-.87.7-1.87.97-3.01.82Z" fill="#EB5828"/></svg>