<!-- by TradingView --><svg width="18" height="18" viewBox="0 0 18 18" xmlns="http://www.w3.org/2000/svg"><path fill="#F0F3FA" d="M0 0h18v18H0z"/><path d="M16 6h-4v1h1.54v5h.92V7H16V6Z" fill="#23AC3A"/><path d="M6.22 9.7c-.33.7-.7 1.18-1.49 1.18-.96 0-1.7-.93-1.7-1.88H2c0 1.66 1.22 3 2.73 3 1.17 0 1.8-.7 2.37-1.9.38-.76.77-1.42 1.12-2.1.27-.52.78-.88 1.37-.88.73 0 1.34.55 1.52 1.3l.89-.83A2.7 2.7 0 0 0 9.59 6c-1.2 0-2.06.94-2.58 2.02-.38.78-.52 1.01-.79 1.67Z" fill="url(#avvp5jx0a)"/><path d="M6.22 8.3c-.33-.7-.7-1.18-1.49-1.18-.96 0-1.7.93-1.7 1.88H2c0-1.66 1.22-3 2.73-3 1.17 0 1.8.7 2.37 1.9.38.76.77 1.42 1.12 2.1.27.52.78.88 1.37.88a1.6 1.6 0 0 0 1.52-1.3l.89.83A2.7 2.7 0 0 1 9.59 12c-1.2 0-2.06-.94-2.58-2.02-.38-.78-.52-1.01-.79-1.67Z" fill="#23AC3A"/><defs><linearGradient id="avvp5jx0a" x1="2" y1="7.44" x2="12.02" y2="7.44" gradientUnits="userSpaceOnUse"><stop offset=".14" stop-color="#23AC3A"/><stop offset=".5" stop-color="#027A30"/><stop offset=".86" stop-color="#23AC3A"/></linearGradient></defs></svg>