<!-- by TradingView --><svg width="18" height="18" viewBox="0 0 18 18" xmlns="http://www.w3.org/2000/svg"><path fill="#F0F3FA" d="M0 0h18v18H0z"/><path d="M9.94 9.63V8.37h.48c.1 0 .18.02.25.06.07.03.12.08.15.15.04.06.05.13.05.2 0 .09-.01.16-.05.22a.37.37 0 0 1-.15.15.54.54 0 0 1-.25.05h-.32v-.18h.29a.3.3 0 0 0 .14-.03.19.19 0 0 0 .08-.08.25.25 0 0 0 .03-.12c0-.05-.01-.08-.03-.12a.18.18 0 0 0-.08-.08.31.31 0 0 0-.15-.03h-.2v1.06h-.24ZM8.69 9.63V8.37h.24v1.07h.7v.19h-.94ZM8.07 8.73c0-.06-.04-.1-.1-.13a.46.46 0 0 0-.2-.04c-.07 0-.12 0-.17.02a.24.24 0 0 0-.1.06.12.12 0 0 0-.03.08c0 .02 0 .05.02.07a.2.2 0 0 0 .06.04l.1.04.1.02.15.03c.06 0 .12.02.17.04l.16.07c.04.03.08.06.1.1.03.04.04.08.04.14 0 .07-.02.13-.07.18a.48.48 0 0 1-.21.13c-.1.03-.2.04-.33.04a1.1 1.1 0 0 1-.33-.04.5.5 0 0 1-.22-.13.32.32 0 0 1-.08-.2h.29c0 .04.02.08.05.1a.3.3 0 0 0 .12.07l.16.02a.6.6 0 0 0 .17-.02.29.29 0 0 0 .12-.06.12.12 0 0 0 .04-.1.1.1 0 0 0-.04-.07.29.29 0 0 0-.1-.06l-.15-.03-.19-.04a.87.87 0 0 1-.32-.12.24.24 0 0 1-.11-.2c0-.08.02-.14.08-.2.05-.05.12-.09.21-.12s.2-.04.3-.04c.12 0 .22.01.31.04a.5.5 0 0 1 .2.12c.06.06.08.12.08.19h-.28Z" fill="#C41B20"/><path fill-rule="evenodd" d="M9 14A5 5 0 1 0 9 4a5 5 0 0 0 0 10Zm0-1.25a3.75 3.75 0 1 0 0-7.5 3.75 3.75 0 0 0 0 7.5Z" fill="#C41B20"/><path fill-rule="evenodd" d="M12.44 7H5.56v4h6.88V7Zm-.94 1h-5v2h5V8Z" fill="#C41B20"/><path d="M13.58 11a5 5 0 0 1-9.16 0h1.4a3.75 3.75 0 0 0 6.35 0h1.41Z" fill="#172F6B"/></svg>