<!-- by TradingView --><svg width="18" height="18" viewBox="0 0 18 18" xmlns="http://www.w3.org/2000/svg"><path fill="#181B1E" d="M0 0h18v18H0z"/><path d="M11.27 8c1.4 0 2.4.72 2.73 1.08-.35-.03-1.18-.1-1.72-.1-2.04 0-3.63 1.02-5.23 1.02A5.27 5.27 0 0 1 4 8.72c.25.12.91.36 1.58.36C7.62 9.08 9.52 8 11.28 8Z" fill="#fff"/><path d="M8.22 4.5c.16-.3.46-.5.8-.5h1.76l1.1 3.05h-.06c-.45-.05-1.15-.11-1.75.03L9.54 5.3 8.47 7.74c-.72.3-1.52.59-2.22.74L8.22 4.5ZM5.3 10.4 4 13h2.15l.79-1.8a2.8 2.8 0 0 1-1.65-.8Zm5.62-.52.94 3.12H14l-1.15-3.21a3 3 0 0 0-1.94.1Z" fill="#fff"/></svg>