<!-- by TradingView --><svg width="18" height="18" viewBox="0 0 18 18" xmlns="http://www.w3.org/2000/svg"><path fill="#F0F3FA" d="M0 0h18v18H0z"/><path d="M5.56 9.65H7.3l-.87-2.31-.87 2.31Zm2.18 1.17H5.12L4.66 12H3l2.28-6h2.3l2.28 6H8.21l-.47-1.18Z"/><path d="M11.43 10.07c.05.13.12.24.22.34.2.21.51.35.85.35.62 0 1.13-.46 1.13-1.03 0-.56-.5-1.02-1.13-1.02-.2 0-.34.04-.5.13V7.52c.19-.04.31-.06.5-.06 1.38 0 2.5 1.02 2.5 2.27S13.88 12 12.5 12c-1.14 0-2.1-.7-2.4-1.65-.1-.3-.1-.6-.1-.92V5h1.37v4.46c0 .2-.02.4.06.61Z" fill="#F08300"/></svg>