<!-- by TradingView --><svg width="18" height="18" viewBox="0 0 18 18" xmlns="http://www.w3.org/2000/svg"><path fill="#F0F3FA" d="M0 0h18v18H0z"/><path d="M3.19 7.53c-.19-.55-.6-.97-1.12-1.21-.1-.05-.1-.06.01-.04.1.02.2.05.33.04.44-.01.87-.02 1.3 0 .37 0 .65.13.85.36.1.12.21.38.34.78.25.76.53 1.6.82 2.53l.28.76a.23.23 0 0 1-.07.25l-1.19.98c-.04.03-.07.02-.08-.02L3.19 7.53Z" fill="#059EE4"/><path d="M15.71 6.38c-.19.08-.34.13-.47.17l-.46.18c-.6.28-1.05.53-1.38.76l-5.14 4.1a.1.1 0 0 1-.07.02.59.59 0 0 1-.44-.3 67.4 67.4 0 0 1-.34-.7.98.98 0 0 1-.05-.53.08.08 0 0 1 .04-.06L11 7.03c.2-.2.35-.33.46-.4.46-.26.8-.28 1.39-.3.65-.04 1.24-.04 1.76 0 .19 0 .41 0 .67-.02l.68-.01c.05 0 .05 0 0 .02a.41.41 0 0 1-.12.03.47.47 0 0 0-.13.03Z" fill="#FFF005"/><path fill-rule="evenodd" d="m7.2 7.31-.27-.2a.06.06 0 0 1-.03-.05.06.06 0 0 1 .02-.05c.26-.25.56-.45.9-.57l.08.01c.05.04.07.08.07.13 0 .04-.02.08-.07.14L7.71 7c-.07.13-.05.15.07.06l.36-.34a.05.05 0 0 1 .06-.01l.3.12a.16.16 0 0 1 .1.15v.21c0 .2 0 .35.05.52.03.11.05.21.04.3 0 .08.06.13.13.17.02.01.03 0 .03-.02 0-.11.05-.17.14-.18l.19-.02c.28-.03.49-.06.68-.22a25.04 25.04 0 0 0 .93-.8.08.08 0 0 0-.03-.1l-.46-.36a2.26 2.26 0 0 0-1.2-.45c-.47-.05-.81-.04-1.03.03a2.9 2.9 0 0 0-2.15 2.33c0 .03 0 .05.03.05.05.01.1 0 .14-.06.1-.12.17-.3.23-.45l.07-.18a4.97 4.97 0 0 1 .27-.45h.03l.4.24c.06.03.1.02.12-.05l.02-.04c.02-.05.01-.1-.03-.14Zm1.73-.75.09-.03.2-.07c.03-.01.03-.03.02-.04-.2-.22-.73-.17-.98-.1a.05.05 0 0 0-.03.08c.07.08.18.12.28.16l.08.03c.12.05.23.01.34-.03Zm1.5.52-.36.3a.08.08 0 0 1-.12-.02l-.44-.77-.01-.03c.01-.07.06-.1.14-.08.28.02.6.27.8.45a.1.1 0 0 1 .03.08.1.1 0 0 1-.03.07Zm-1.5.65c.02.02.05.02.08.01l.6-.17a.11.11 0 0 0 .08-.13v-.01c-.06-.2-.16-.4-.27-.52-.11-.12-.23-.18-.33-.15l-.05.01c-.1.03-.18.14-.21.3-.03.17-.02.38.04.59.01.04.03.06.05.07Z" fill="#0A63A2"/><path d="m8.23 6.95.52 1.67a.05.05 0 0 1-.02.05L6.25 10.7a.05.05 0 0 1-.08-.03l-.52-1.67a.05.05 0 0 1 .01-.05l2.49-2.04a.05.05 0 0 1 .08.03Z" fill="#E00415"/><path d="M9.15 11.42c.06 0 .06-.03.02-.06a.15.15 0 0 1-.04-.13c0-.04.02-.07.06-.1.18-.19.35-.33.52-.42.04-.02.05-.01.02.03-.1.16-.32.3-.24.51a.07.07 0 0 0 .05.05h.03a1.98 1.98 0 0 0 .96-.65v-.03a.07.07 0 0 0-.03-.05l-.3-.2c-.07-.05-.07-.09 0-.12.05-.03.1-.04.12-.04.1-.01.17 0 .23.04l.18.13c.02.01.04.01.05-.01.11-.2.2-.4.29-.6.08-.22.17-.36.33-.5.07-.05.1-.04.08.05-.25 1.5-1.4 2.5-2.95 2.37a.01.01 0 0 1-.01-.02c.05-.06.1-.11.17-.15.11-.08.35-.09.46-.1ZM6.97 10.74c.25.16.43.36.55.59.05.09.03.11-.06.06a3.12 3.12 0 0 1-.86-.66.1.1 0 0 1 .03-.12l.44-.36a.06.06 0 0 1 .06-.01.06.06 0 0 1 .04.04l.01.04a.1.1 0 0 1-.03.12l-.19.15a.1.1 0 0 0 .01.15Z" fill="#0A63A2"/></svg>