<!-- by TradingView --><svg width="18" height="18" viewBox="0 0 18 18" xmlns="http://www.w3.org/2000/svg"><path fill="#F0F3FA" d="M0 0h18v18H0z"/><path d="M4.6 7.56c-.16.01-.49.13-.49.52 0 .5.29.85 1.29.85.84 0 1.33-.46 1.93-1.05l.34-.32c.62-.58 2.35-2 3.13-2.63.33-.21 1.1-.63 1.55-.63.57 0 .65.58 0 1.28-.51.55-1.97 1.9-2.63 2.5-.14.11-.42.44-.42.85 0 .3.35.25.63.2.18-.03.33-.06.32.03 0 .08-.13.18-.28.3-.26.2-.59.46-.37.74.14.2.46.31.79.43.42.14.83.3.83.6 0 .26-.2.77-.4 1.3-.23.55-.45 1.12-.48 1.47H4V4h8.31c-.95 0-2.24.64-2.71 1.1-.5.47-2.63 2.24-3.63 3.07-.06.06-.26.19-.64.19-.46 0-.49-.18-.21-.44.28-.25-.32-.36-.51-.36ZM12.32 4c.3 0 .58.06.78.22.83.65-.9 2.6-1.79 3.18-.71.47-1 1-1.05 1.21 1.38-.17.77.62.42 1.09l-.06.07c-.27.36-.16.38-.08.34 1.77.51 1.37 1.82.7 3.39-.09.19-.14.36-.16.5h-.73a.8.8 0 0 0 0 .05c0 .65.36 1.18 1.87.85-.47.05-1.25-.09-1.14-.9H14V4h-1.69Z" fill="#EC6C21"/></svg>