<!-- by TradingView --><svg width="18" height="18" viewBox="0 0 18 18" xmlns="http://www.w3.org/2000/svg"><path fill="#F0F3FA" d="M0 0h18v18H0z"/><path fill-rule="evenodd" d="M15 6H3v6h10.8c.66 0 1.2-.6 1.2-1.33V6ZM6.35 7H4v4h5.44c.64 0 1.03-.66 1.03-1.33 0-.68-.39-1.34-1.03-1.34h-.88c-.09 0-.15-.06-.15-.16S8.47 8 8.56 8H13v1.5c0 .38-.17.5-.47.5-.44 0-.59-.26-.59-.33h-.3c0 .26.3.66.89.66.26 0 .76-.16.76-.66v-2H8.56c-.25 0-.44.22-.44.5s.2.5.44.5h.88c.48 0 .74.5.74 1 0 .49-.26 1-.74 1H4.3V7.33h2.06c.11 0 .26.06.39.18.12.12.2.28.2.49 0 .46-.26.77-.37.86l-.25.19.28.1c.1.05.2.19.26.4.04.16.06.31.07.45h-.28v-.17c0-.3-.09-.51-.21-.65A.53.53 0 0 0 6.06 9h-.88l.3.33h.58c.04 0 .11.02.17.09.06.06.12.18.12.41V10H5V8.67h1.06c.09 0 .22-.02.34-.09.12-.06.25-.2.25-.41a.46.46 0 0 0-.25-.42.74.74 0 0 0-.34-.08H4.7v2.66h4.58c.34 0 .6-.29.6-.66 0-.38-.26-.67-.6-.67h-.73c-.46 0-.74-.32-.74-.83 0-.48.32-.84.74-.84h5.15v2.34c0 .73-.6 1-1.18 1-.53 0-1.18-.3-1.18-1h-.3c0 .88.79 1.33 1.48 1.33.74 0 1.47-.4 1.47-1.33V7H8.56c-.58 0-1.03.5-1.03 1.17 0 .68.4 1.16 1.03 1.16h.73c.18 0 .3.14.3.34 0 .19-.12.33-.3.33H7.23a2.7 2.7 0 0 0-.09-.54 1.16 1.16 0 0 0-.25-.48c.17-.2.35-.54.35-.98 0-.32-.14-.58-.31-.74A.87.87 0 0 0 6.35 7Zm-.3 1.33H5V8h1.06c.06 0 .14.01.21.05.06.03.08.07.08.12 0 .04-.02.08-.08.11a.48.48 0 0 1-.21.05Z" fill="#E62129"/></svg>