<!-- by TradingView --><svg width="18" height="18" viewBox="0 0 18 18" xmlns="http://www.w3.org/2000/svg"><path fill="#F0F3FA" d="M0 0h18v18H0z"/><path fill-rule="evenodd" d="m8.45 14.98-.11-2.4A4.12 4.12 0 0 0 7.96 11c-.25-.52-.6-.9-1.05-1.14a4.7 4.7 0 0 0-1.76-.5 28.9 28.9 0 0 1-2.08-.27c-.09-.02-.1-.05-.02-.1.66-.46 1.33-.9 2-1.32a14.3 14.3 0 0 0 2.04-1.6c.37-.34.68-.7.91-1.1.17-.26.26-.56.27-.9 0-.2-.03-.52-.1-.95l-.02-.08.01-.04a15.78 15.78 0 0 1 3.65 2.51c.98.96 1.7 2.11 2.18 3.46.02.05 0 .09-.04.11a6.3 6.3 0 0 0-2.41 1.78l-.14.17c-.42.5-.73.9-.92 1.17a208.38 208.38 0 0 1-2 2.78c-.02.02-.03.01-.03-.01Zm5.18-6.07c-.75.34-1.4.8-1.95 1.38-.42.44-.85.96-1.3 1.56a56.34 56.34 0 0 0-1.55 2.2c-.1.16-.16.14-.16-.05l-.03-1.1c-.07-1.8-.72-2.96-1.97-3.47-.28-.11-.6-.2-.98-.26-.23-.04-.58-.08-1.04-.13l-.8-.08c-.16-.03-.17-.08-.03-.17l1.42-.9c.77-.5 1.47-1.05 2.1-1.65.46-.45.8-.9 1.04-1.34.08-.17.15-.37.18-.59.04-.25.03-.45-.03-.6a.28.28 0 0 1-.03-.12c0-.06.03-.07.07-.05 1.2.6 2.2 1.33 3.05 2.17a9 9 0 0 1 2.04 3.14c0 .03 0 .05-.03.06ZM7.9 6.9c0 .04.02.06.06.06h.84c.04 0 .06-.03.06-.07v-.02a.21.21 0 0 0-.07-.16.25.25 0 0 0-.18-.07h-.46a.25.25 0 0 0-.18.08.21.21 0 0 0-.07.16v.02Zm.93.3.01.01c0 .08-.03.14-.1.19a.38.38 0 0 1-.23.07h-.25a.37.37 0 0 1-.24-.07c-.06-.05-.1-.1-.1-.18l.01-.01h.9Zm-3.48.96a10.07 10.07 0 0 1-.91.55c.06.04.12.06.2.06l.97.1c1.15.15 2 .62 2.57 1.4.53.75.78 1.75.74 3 0 .15.04.16.12.04.55-.81 1.13-1.61 1.74-2.4a7 7 0 0 1 2.5-2.15c.04-.02.05-.05.03-.08a9.72 9.72 0 0 0-4.35-4.62c-.02 0-.03 0-.03.02-.06.45-.22.87-.48 1.27a10.7 10.7 0 0 1-3.1 2.81Zm3.08-.34c-.1-.03-.1-.06 0-.09l.18-.03a.97.97 0 0 0 .3-.08c.1-.05.16-.15.17-.28.03-.27.03-.5 0-.7-.02-.1-.07-.16-.17-.18a2.24 2.24 0 0 0-1.11.01c-.1.03-.16.1-.17.22v.08c-.01.24 0 .4.02.52a.5.5 0 0 0 .3.37.1.1 0 0 1 .07.08.1.1 0 0 1-.02.1c-.17.24-.38.46-.63.66a.16.16 0 0 0-.06.12c0 .05.01.09.05.11.02.02.05.03.07.01.24-.1.45-.32.63-.62a.17.17 0 0 1 .14-.09h.03c.06 0 .07.02.04.07a3 3 0 0 1-.66.81c-.03.03-.04.07-.02.12.03.07.1.07.23.02l.06-.03c.24-.24.44-.52.62-.86.01-.03.04-.04.07-.02l.02.01c.04.03.05.06.03.1-.17.37-.4.7-.7 1a.08.08 0 0 0-.02.08c0 .02.01.05.04.06.1.07.23 0 .4-.21l.14-.2c.12-.17.22-.36.3-.57a.09.09 0 0 1 .05-.06h.06a.1.1 0 0 1 .04.08c0 .2-.05.4-.17.6a3.96 3.96 0 0 1-.38.53c-.04.05-.03.08.03.1l.07.03c.05.01.1 0 .14-.04.18-.18.32-.39.43-.61.12-.27.17-.5.13-.71-.04-.2-.29-.36-.75-.51ZM11 7.43l.04.02a9.67 9.67 0 0 1-.1 0 1.58 1.58 0 0 0-.37 0c-.14.01-.22.08-.26.18a.07.07 0 0 1-.06.05c-.11.02-.18-.03-.19-.13a1.7 1.7 0 0 1 0-.49c.01-.04.03-.06.07-.07h.13c.05-.01.08-.04.09-.1v-.04c0-.06-.02-.1-.07-.1-.4-.06-.65-.03-.77.07a.1.1 0 0 0-.02.1c.01.04.04.07.08.07a.5.5 0 0 1 .17.03c.03.02.05.04.05.08l.03.49c0 .04-.01.07-.05.08l-.22.07a.1.1 0 0 0-.07.08c0 .02 0 .04.02.05.03.04.1.06.21.08l.06.01c.05.01.07.04.06.09l-.03.51c0 .05-.02.08-.06.1a.43.43 0 0 1-.16.06c-.07 0-.1.05-.12.12v.03c.02.05.05.08.1.08l.73-.03a.1.1 0 0 0 .1-.08c0-.07-.02-.1-.08-.13l-.18-.04c-.03-.01-.05-.03-.06-.07a3.08 3.08 0 0 1-.01-.54c0-.12.06-.18.17-.2a.1.1 0 0 0 .09-.04l.03-.05a.09.09 0 0 1 .08-.04h.55l.01.01v.03l-.4.06c-.14.02-.2.1-.18.23.05.43.03.9-.05 1.4-.02.09.02.13.1.12h.05c.07 0 .1-.05.1-.11.03-.43.04-.83.03-1.21 0-.16.08-.23.23-.21.17.02.35.02.52-.02.05 0 .09 0 .12.03.04.04.06.08.06.13l.01 1.23c0 .09.04.14.13.15a.1.1 0 0 0 .03 0c.05 0 .07-.03.07-.09V8.01c0-.1-.05-.15-.13-.17l-.37-.07c-.02 0-.02-.02-.02-.04 0-.01 0-.02.02-.02l.03-.01h.47c.03 0 .06-.02.07-.05a.1.1 0 0 0 0-.09.15.15 0 0 0-.1-.08 1.1 1.1 0 0 0-.5-.02h-.01v-.04l.31-.15a.17.17 0 0 0 .08-.09c.05-.1.07-.25.08-.4.02-.21-.03-.33-.12-.37a.08.08 0 0 0-.08.02.09.09 0 0 0-.04.07l-.01.42c0 .07-.03.1-.1.06a.19.19 0 0 1-.07-.07.35.35 0 0 1-.06-.15l-.03-.41a.09.09 0 0 0-.04-.07.08.08 0 0 0-.07-.01l-.08.02c-.05.02-.08.06-.07.11 0 .17-.02.35-.07.53 0 .03-.02.05-.05.06a.08.08 0 0 1-.08-.01.14.14 0 0 1-.05-.12c0-.13-.02-.26-.05-.38 0-.05-.03-.07-.08-.07h-.04c-.06.03-.08.07-.08.13l.01.48c0 .12.07.21.19.29.07.04.18.08.33.12Zm.18.9c.02.01.03.03.04.06l.03 1.21c0 .07.03.1.1.08h.02c.07-.02.1-.06.09-.13a6.05 6.05 0 0 1-.04-.8v-.48c0-.1-.06-.16-.16-.16h-.28c-.13 0-.2.06-.19.2 0 .37 0 .72-.02 1.03a.5.5 0 0 1-.06.24c-.02.03-.02.05.02.07l.1.04c.04.02.07 0 .08-.05.08-.37.11-.78.11-1.21 0-.07.03-.1.1-.12.01 0 .04 0 .06.02Z" fill="#E60012"/></svg>