<!-- by TradingView --><svg width="18" height="18" viewBox="0 0 18 18" xmlns="http://www.w3.org/2000/svg"><path fill="#F0F3FA" d="M0 0h18v18H0z"/><path d="m5.5 6.12-.34-.97c.13-.1.28-.12.34-.12 5.43 1.2 7.34 3.36 7.34 5.15 0 1.43-.82 2.2-1.22 2.4.26-.23.8-.98.8-2.14 0-2.42-4.61-3.89-6.92-4.32Z" fill="#F8A731"/><path d="M4 5.46C4 4.66 4.66 4 5.47 4h7.06c.81 0 1.47.65 1.47 1.46v7.08c0 .8-.66 1.46-1.47 1.46h-2.9a6.31 6.31 0 0 0 2.23-1h.69c.25 0 .45-.2.45-.45v-7.1c0-.25-.2-.45-.45-.45h-7.1C5.2 5 5 5.2 5 5.45v7.1c0 .25.2.45.45.45h.44l1-2.16-.46.12L8.5 9.59 7.15 13H9c.9-.38 1.67-1 1.67-1.98 0-1.75-2.75-2.38-4.13-2.48l-.77-2.02c2.97.6 6.35 1.65 6.35 4.27 0 2.1-2.67 3.01-4.01 3.2V14H5.46C4.66 14 4 13.35 4 12.54V5.46Z" fill="#0073BA"/></svg>