<!-- by TradingView --><svg width="18" height="18" viewBox="0 0 18 18" xmlns="http://www.w3.org/2000/svg"><path fill="#F0F3FA" d="M0 0h18v18H0z"/><path fill-rule="evenodd" d="m14.95 9.78-.74-.1c-.06.47-.19.91-.36 1.33l.7.29a6 6 0 0 1-.79 1.35l-.6-.45c-.27.36-.6.69-.96.97l.45.59a6 6 0 0 1-1.35.78l-.3-.69c-.4.17-.85.3-1.31.36l.1.74a6.07 6.07 0 0 1-1.57 0l.1-.74c-.47-.06-.91-.19-1.33-.36l-.29.7a6 6 0 0 1-1.35-.79l.45-.6c-.36-.27-.69-.6-.97-.96l-.59.45a6 6 0 0 1-.78-1.35l.69-.3c-.17-.4-.3-.85-.36-1.31l-.74.1a6.06 6.06 0 0 1 0-1.57l.74.1c.06-.47.19-.91.36-1.33l-.7-.29a6 6 0 0 1 .79-1.35l.6.45c.27-.36.6-.69.96-.97l-.45-.59a6 6 0 0 1 1.35-.78l.3.69c.4-.17.85-.3 1.31-.36l-.1-.74a6.06 6.06 0 0 1 1.57 0l-.1.74c.47.06.91.19 1.33.36l.29-.7a6 6 0 0 1 1.35.79l-.45.6c.36.27.69.6.97.96l.59-.45a6 6 0 0 1 .78 1.35l-.69.3c.17.4.3.85.36 1.31l.74-.1a6.07 6.07 0 0 1 0 1.57Zm-2.31.14a3.76 3.76 0 0 0-.06-2.04L10.5 9l2.14.92Zm-.78 1.5-2.11-1.3v2.56a3.75 3.75 0 0 0 2.11-1.26Zm-3.61 1.26a3.75 3.75 0 0 1 0-7.35v7.35Zm1.5-7.35v2.36l2.1-1.13a3.75 3.75 0 0 0-2.1-1.23Z" fill="#B6B6B7"/></svg>