<!-- by TradingView --><svg width="18" height="18" viewBox="0 0 18 18" xmlns="http://www.w3.org/2000/svg"><path fill="#F0F3FA" d="M0 0h18v18H0z"/><path d="M9 7.67V5h-.2c-.04.18-.1.3-.15.36a.32.32 0 0 1-.24.08 1.3 1.3 0 0 1-.44-.14C7.53 5.1 7.1 5 6.7 5c-.64 0-1.16.2-1.58.6a1.89 1.89 0 0 0-.4 2.28c.13.27.34.5.6.73.28.21.74.5 1.38.88.65.36 1.04.6 1.19.71.21.17.37.35.47.54a1.16 1.16 0 0 1-.25 1.45c-.27.25-.63.37-1.1.37-.4 0-.76-.09-1.1-.27-.33-.18-.58-.4-.74-.68a4.1 4.1 0 0 1-.4-1.28H4.5V13h.28c.02-.18.06-.3.11-.35a.3.3 0 0 1 .23-.08c.1 0 .32.06.68.18a3.55 3.55 0 0 0 1.33.25c.7 0 1.26-.2 1.7-.63a2 2 0 0 0-.13-3.1c-.26-.2-.74-.5-1.44-.88a6.14 6.14 0 0 1-1.64-1.13.97.97 0 0 1-.24-.64c0-.3.13-.57.38-.8.25-.25.57-.37.95-.37a2 2 0 0 1 1.73.98c.17.3.29.73.36 1.24H9ZM13 13v-.22h-.25a.86.86 0 0 1-.47-.14.5.5 0 0 1-.22-.25c-.04-.13-.06-.4-.06-.8V6.41c0-.48.04-.79.12-.91.13-.2.34-.3.63-.3H13V5h-3v.22h.25c.16 0 .32.05.47.14.11.07.18.16.21.25.05.13.07.4.07.8v5.17c0 .48-.04.79-.12.91-.13.2-.34.3-.63.3H10V13h3Z" fill="#036"/></svg>