<!-- by TradingView --><svg width="18" height="18" viewBox="0 0 18 18" xmlns="http://www.w3.org/2000/svg"><path fill="#F0F3FA" d="M0 0h18v18H0z"/><path fill-rule="evenodd" d="M15 7H3v4h12V7ZM6.5 8.86c.08-.15.25-.52.25-.86h.75v.29h1.25v.42h-.38C8.3 9.14 7.96 10 7.25 10H6.5v-.29c.38 0 1.13-.2 1.13-1h-.38l-.13.15H6.5ZM4 8.14v.29h1.25v-.29H4Zm0 .57V9h1.25v-.29H4Zm0 .58V10h1.13c.9 0 1.12-1.14 1.12-1.71H6c-.1.68-.54.95-.75 1H4Zm4.25.28V10h.25v-.43h-.25Zm.5 0V10H9v-.43h-.25Zm.38-1.14V8h2.37v.14c-.13 1-1 1.86-1.5 1.86-.4 0-.67-.67-.75-1H10c0 .34.08.43.13.43.3 0 .37-.67.37-1H9.12Zm2.5.43H12l.25-.86h-.38l-.24.86Zm1 0h-.38L12.5 8h.38l-.26.86Zm.5-.86H14c-.2.67-.8 2-1.5 2h-1v-.57h.75c.2 0 .68-.29.88-1.43Z" fill="#003894"/></svg>