<!-- by TradingView --><svg width="18" height="18" viewBox="0 0 18 18" xmlns="http://www.w3.org/2000/svg"><path fill="#F0F3FA" d="M0 0h18v18H0z"/><path fill-rule="evenodd" d="M9 14.65a5.65 5.65 0 1 0 0-11.3 5.65 5.65 0 0 0 0 11.3ZM9 15A6 6 0 1 0 9 3a6 6 0 0 0 0 12Z" fill="#0073B6"/><path fill-rule="evenodd" d="M9 14A5 5 0 1 0 9 4a5 5 0 0 0 0 10ZM5 8h.74v2H5V8Zm.92 1L7.4 8H8.5L7.03 9l1.47 1H7.4L5.91 9ZM13 8v.57h-2.8v.86H13V10H9.5V8H13Zm-.35.71h-2.1v.58h2.1V8.7Z" fill="url(#at0vpgopo)"/><defs><linearGradient id="at0vpgopo" x1="11.47" y1="4.94" x2="7.06" y2="13.59" gradientUnits="userSpaceOnUse"><stop stop-color="#028ECE"/><stop offset=".47" stop-color="#005A9F"/><stop offset="1" stop-color="#62A6D8"/></linearGradient></defs></svg>