<!-- by TradingView --><svg width="18" height="18" viewBox="0 0 18 18" xmlns="http://www.w3.org/2000/svg"><path fill="#F0F3FA" d="M0 0h18v18H0z"/><path d="M10.2 7.2a4.7 4.7 0 0 1-.71-.2 2.64 2.64 0 0 0-.69-.05c-.06 0-.07-.1-.04-.15.28-.26.64-.06.94 0l.27.05c.1.11.26.22.22.36m2.76-1.32a.83.83 0 0 0-.46-.42c-.71-.3-1.3.48-1.98.03a1.05 1.05 0 0 0-1.08-.18c-.24.07-.42-.11-.64-.18-.36-.12-.7.06-1.07.06-.25.04-.18.3-.31.42l-.1.3c-.06.1-.24.11-.25.25a.56.56 0 0 1 .2.5c.1.16.42 0 .47.23 0 .02 0 .04-.02.05a.09.09 0 0 1-.05.03c-.3-.02-.6 0-.9.06-.27.04-.5.19-.78.2-.06 0-.06-.08-.05-.11.2-.3.37-.61.51-.94 0-.17-.1-.32-.06-.51-.03-.09.06-.22-.06-.23-.06.03-.06.1-.1.13h-.01c0-.16.12-.27.14-.43 0-.02-.03-.07-.06-.04-.13.1-.11.04-.14-.1 0-.04-.06 0-.1.05l-.09.22a.73.73 0 0 0-.1.6c.06.1.08.22.08.34-.05.2-.28.36-.43.5-.2.23-.57.49-.5.84.03.06.07.12.13.16.05.05.12.08.19.1.62.15 1.32 0 1.97-.03l.09.05c.07.24-.14.44-.15.67.1.2.27.35.48.43l.13.26c.05.31.66.56.24.87-.54.13-1.06.36-1.53.66-.41.3-.8.71-.67 1.24.07.38.46.63.8.8 1.7.65 3.35-.46 5.08-.03.24.05.46.14.67.26.04-.6-.5-1.08-1.02-1.33-.08-.28-.07-.59-.25-.82a1.42 1.42 0 0 0-.9-.55l.16.3c.08.2.1.42.04.63-.06.2-.18.39-.35.53-.52.46-1.33.45-2.03.39-.2-.05-.53-.04-.54-.3 0-.07.1-.12.14-.14l1.46-.29c.23-.08.44-.22.59-.4.15-.18.25-.4.27-.64.17-.77-.59-1.22-.67-1.91-.02-.23-.1-.52.13-.66.55.05 1.05.26 1.63.13.1-.05.24-.14.24-.26-.03-.44-.48-.69-.76-1 .12-.12.34-.12.54-.11.38 0 .64-.27.96-.4a.4.4 0 0 1 .34.07c.03.03.05.07.05.11v.12a.76.76 0 0 1-.45.26c.05.03.1.05.16.05.15 0 .3-.04.44-.1a.9.9 0 0 0 .33-.3.65.65 0 0 0 0-.51" fill="#023886"/><path fill-rule="evenodd" d="M13 4.42H5c-.22 0-.5.18-.5.52v8.12c0 .34.28.52.5.52h8c.22 0 .5-.18.5-.52V4.94a.51.51 0 0 0-.5-.52ZM5 4c-.55 0-1 .42-1 .94v8.12c0 .52.45.94 1 .94h8c.55 0 1-.42 1-.94V4.94c0-.52-.45-.94-1-.94H5Z" fill="#023886"/></svg>