<!-- by TradingView --><svg width="18" height="18" viewBox="0 0 18 18" xmlns="http://www.w3.org/2000/svg"><path fill="#F0F3FA" d="M0 0h18v18H0z"/><path d="M6.12 6.22c.19.1.3.16.43.05l.02-.02c.07-.07.1-.16.14-.25H7l-.41 2H6.3c.05-.7-.07-1.39-.84-1.4-.38 0-.65.2-.66.66-.03 1.22 1.67 1.67 1.67 3.03 0 1.02-.96 1.73-1.8 1.7-.3 0-.59-.1-.87-.23-.55-.27-.23.24-.69.24H3l.42-2.4h.28c-.05.8-.03 1.78.93 1.8.48.01.77-.3.77-.87 0-1.3-1.44-1.67-1.4-3.07C4.02 6.65 4.59 6 5.31 6c.28 0 .55.06.81.22Z" fill="#00426C"/><path d="m10 10-.31 1H7l.32-1H10Z" fill="#21A9D9"/><path d="m12 10-.3 1H10l.29-1H12Z" fill="#0F8048"/><path d="m15 10-.31 1H12l.32-1H15ZM9.63 6l-.08.3h.05c.17 0 .3.03.3.04v.08L9.55 7.5 8.82 6H7.8l-.08.3h.08c.14 0 .2 0 .28.11a647 647 0 0 1-.63 2.13c-.02.05-.08.17-.34.17h-.04L7 9h1.37l.08-.29h-.04a.99.99 0 0 1-.31-.04V8.6l.47-1.52L9.55 9h.24l.74-2.54c.04-.14.22-.16.39-.16L11 6H9.63Z" fill="#00426C"/><path d="M13 6.63c0-.5-.58-.63-1.05-.63h-1l-.08.3h.02c.1 0 .22 0 .2.11l-.55 2.12c-.02.08-.08.17-.34.17h-.12L10 9h1.44c.66 0 1.33-.37 1.35-1.01a.6.6 0 0 0-.3-.55.9.9 0 0 0 .51-.8Zm-.67.12c0 .36-.27.6-.65.6h-.17c.07-.26.21-.99.21-.99.01-.05.1-.06.19-.06.21.01.42 0 .42.45Zm-1 1.95a.49.49 0 0 1-.17-.02l.02-.07.23-.91h.11c.25 0 .6.04.6.32 0 .41-.35.68-.8.68Z" fill="#00426C"/><path d="M12.4 8.7c.14 0 .27-.04.3-.17l.61-2.11v-.06c0-.04-.02-.06-.09-.06h-.24l.08-.3h1.33l-.08.3h-.08c-.24 0-.3.1-.32.18-.16.68-.34 1.07-.6 2.22h.31c.47 0 .76-.14 1.09-.65l.03-.05H15l-.24 1H12.3l.08-.3Z" fill="#00426C"/></svg>