<!-- by TradingView --><svg width="18" height="18" viewBox="0 0 18 18" xmlns="http://www.w3.org/2000/svg"><path fill="#F0F3FA" d="M0 0h18v18H0z"/><path d="M12.64 9.67C9.73 6.47 9.42 3.89 9.73 3c-1.22.83-3.53 2.86-3.1 4.38.44 1.52 4.25 2.16 6 2.29Z" fill="url(#apdt2kn0t)"/><path d="M5.36 8.33C8.27 11.53 8.4 14.11 8.1 15c1.21-.83 3.53-2.86 3.1-4.38-.44-1.52-4.07-2.16-5.83-2.29Z" fill="url(#bpdt2kn0t)"/><path d="M5 7.57C5 6.05 8.15 3.9 9.73 3c-.97.76-2.91 2.67-2.91 4.19 0 1.9 6.18 1.21 6.18 3.05 0 2.13-3.27 4.06-4.9 4.76.54-.57 3.26-2.67 2.72-4.38C10.27 8.9 5 9.48 5 7.57Z" fill="url(#cpdt2kn0t)"/><defs><linearGradient id="apdt2kn0t" x1="9.52" y1="3" x2="9.52" y2="9.67" gradientUnits="userSpaceOnUse"><stop stop-color="#06AFEA"/><stop offset="1" stop-color="#07A7E5"/></linearGradient><linearGradient id="bpdt2kn0t" x1="7.36" y1="11.19" x2="11.01" y2="10.49" gradientUnits="userSpaceOnUse"><stop stop-color="#CEDEA7"/><stop offset="1" stop-color="#00A04A"/></linearGradient><linearGradient id="cpdt2kn0t" x1="9" y1="15" x2="9" y2="3" gradientUnits="userSpaceOnUse"><stop stop-color="#5EAA5F"/><stop offset=".28" stop-color="#BFD8AE"/><stop offset=".51" stop-color="#E3FFE7"/><stop offset=".68" stop-color="#B0DFFB"/><stop offset=".81" stop-color="#52B2D5"/><stop offset="1" stop-color="#39A1CE"/></linearGradient></defs></svg>