<!-- by TradingView --><svg width="18" height="18" viewBox="0 0 18 18" xmlns="http://www.w3.org/2000/svg"><path fill="#F0F3FA" d="M0 0h18v18H0z"/><path d="M13.45 14c.3 0 .55-.24.55-.54V4.54c0-.3-.24-.54-.55-.54h-8.9c-.3 0-.55.24-.55.54v8.92c0 .3.24.54.55.54h8.9Zm-.13-8.57a2.29 2.29 0 0 1 .3 1.7c0 .07-.02.14-.06.2-.02.12-.07.24-.13.35l-.1.23a11.68 11.68 0 0 1-1.16 1.81c-.11.09-.06.18 0 .28l.04.1.4.95c.36.83.72 1.66 1.06 2.51 0 .02-.02.02-.03.02h-.02a.31.31 0 0 1-.05-.02.18.18 0 0 0-.1-.02l-.04-.02a13.84 13.84 0 0 1-2.58-1.02l-1.07-.48-.1-.03a.92.92 0 0 1-.16.1c-.05.03-.1.05-.14.09-.12.05-.24.12-.36.19-.16.1-.33.19-.5.25-.15.08-.3.14-.45.2l-.2.1c-.71.36-1.65.49-2.45.6a60.23 60.23 0 0 0-.54.07 6.12 6.12 0 0 1-.4.01c-.04 0-.09 0-.08-.04l.82-.73.41-.35 1.44-1.25.1-.1.12-.1c0-.05-.04-.06-.07-.07a.27.27 0 0 1-.04-.02c-.4-.26-.86-.4-1.33-.56-.47-.14-.95-.29-1.34-.56 0-.02.02-.02.04-.02h3.67c.02.02.03.02.05.01H8.38c.03.01.05.02.08 0h.08c.1 0 .21 0 .27-.1l.18-.16c.26-.22.51-.44.76-.68-.02-.08-.05-.15-.09-.22l-.07-.17a11.3 11.3 0 0 1-.32-.72l-.02-.05a2.33 2.33 0 0 1-.2-.66c-.16-.84.18-1.68.83-2.2a2.37 2.37 0 0 1 3.44.58Zm-1.8.6c.22.08.43.27.47.52a.64.64 0 0 1-.15.51c-.22.2-.45.4-.67.57-.03.02-.05-.02-.06-.04l-.14-.32c-.1-.22-.2-.44-.21-.68l.01-.02c.02-.22.17-.4.36-.5l.05-.02c.07-.01.13-.03.2-.02h.13Z" fill="#005EAD"/></svg>