<!-- by TradingView --><svg width="18" height="18" viewBox="0 0 18 18" xmlns="http://www.w3.org/2000/svg"><path fill="#F0F3FA" d="M0 0h18v18H0z"/><path d="M6.74 8.36a1 1 0 0 0-.36-.3.99.99 0 0 0-.66-.1.55.55 0 0 0-.35.24.41.41 0 0 0-.06.23c0 .07.01.14.05.2.03.06.08.1.14.14l.22.11.28.1.48.18c.16.06.31.15.45.26a1.2 1.2 0 0 1 .47 1c0 .24-.04.48-.14.7-.1.2-.22.37-.38.5-.17.13-.36.23-.55.28-.21.07-.43.1-.65.1-.32 0-.63-.06-.93-.18-.28-.1-.54-.28-.75-.51l.71-.77a1.32 1.32 0 0 0 .96.5c.08 0 .16 0 .24-.02a.57.57 0 0 0 .2-.09c.06-.04.1-.1.13-.16a.53.53 0 0 0 .06-.24.4.4 0 0 0-.06-.23.63.63 0 0 0-.18-.17c-.1-.06-.2-.1-.3-.14l-.4-.14c-.14-.04-.28-.1-.41-.17a1.41 1.41 0 0 1-.37-.26 1.2 1.2 0 0 1-.36-.93c0-.24.05-.47.15-.68.1-.18.24-.34.4-.46.17-.13.36-.22.56-.27a2.22 2.22 0 0 1 2.1.5l-.69.78ZM12.8 12h-1l-.84-3.38h-.02L10.11 12h-1L7.9 7H9l.67 3.33h.01L10.43 7h1.06l.76 3.33h.01L12.94 7H14l-1.2 5Z" fill="#00263E"/></svg>