<!-- by TradingView --><svg width="18" height="18" viewBox="0 0 18 18" xmlns="http://www.w3.org/2000/svg"><path fill="#F0F3FA" d="M0 0h18v18H0z"/><path d="M14.1 7.65a4.82 4.82 0 0 1-1.36 4.88A5.45 5.45 0 0 1 9 14a5.47 5.47 0 0 1-3.06-.92h.82c.54.27 1.14.44 1.77.5a6.7 6.7 0 0 1-.44-.5h.32c.19.22.34.38.46.48v-.48h.26v.48c.12-.1.28-.26.47-.48.11 0 .23 0 .34-.02-.19.23-.35.4-.46.51 1.05-.1 2.03-.5 2.81-1.17h-.79l.13-.11.13-.16h.8c.4-.4.72-.84.94-1.34h-1.06l.03-.24h1.13c.17-.46.27-.94.28-1.43h-1.7L12 8.88h1.86a4.35 4.35 0 0 0-.22-1.23h.46Zm-10.22 2.7a4.64 4.64 0 0 1 1.3-4.82C6.18 4.57 7.57 4 8.99 4c1.11 0 2.16.32 3.05.91h-.83a4.93 4.93 0 0 0-1.74-.48l.43.48h-.33a4.61 4.61 0 0 0-.45-.47v.47h-.26v-.47c-.12.1-.27.26-.46.47h-.33a5.47 5.47 0 0 1 .44-.48 5.18 5.18 0 0 0-2.8 1.19h.64c-.09.07-.18.17-.26.25h-.66c-.42.41-.7.81-.93 1.32h.93l-.03.25h-1a4.3 4.3 0 0 0-.28 1.44H5.7l.15.25H4.12c0 .41.08.82.2 1.21h-.44ZM14.2 6.8l-.1.63H8.27c-.15 0-.28.05-.28.26 0 .15.14.2.28.2h1.3c1.4 0 2.6 1.1 2.6 2.45 0 .66-.28 1.28-.77 1.74a2.6 2.6 0 0 1-1.82.66H3.5l.1-.63h5.98c1.1 0 1.98-.73 1.98-1.77 0-1.07-.91-1.82-1.98-1.82h-1.3c-.47 0-.91-.39-.91-.83 0-.46.41-.89.9-.89h5.94Zm-5.94-.8h6.08l-.1.65H8.27c-.3 0-.58.03-.8.24a1.02 1.02 0 0 0 0 1.5c.22.2.5.29.8.29h1.31c.47 0 .9.2 1.23.5a1.58 1.58 0 0 1 0 2.32c-.33.31-.76.48-1.23.48H3.65l.1-.65h5.83c.63 0 1.14-.4 1.14-.99 0-.28-.13-.55-.34-.75-.2-.2-.5-.29-.8-.29h-1.3c-.47 0-.9-.2-1.23-.5a1.58 1.58 0 0 1-.51-1.16c0-.9.78-1.63 1.73-1.63ZM3.8 11.2l.1-.63h5.7c.15 0 .28-.06.28-.2a.26.26 0 0 0-.08-.2.3.3 0 0 0-.2-.07H8.26c-.68 0-1.33-.26-1.81-.72a2.36 2.36 0 0 1-.76-1.73c0-1.35 1.15-2.39 2.57-2.39h6.23l-.1.63H8.27c-.52 0-1.02.07-1.39.43a1.82 1.82 0 0 0 0 2.66c.37.35.87.5 1.4.5h1.3c.24 0 .47.13.63.29.17.16.27.37.27.6a.8.8 0 0 1-.27.59.9.9 0 0 1-.63.24h-5.8Zm7.29-3.54h.27c.05.21.1.43.13.64a3.3 3.3 0 0 0-.3-.21 5.12 5.12 0 0 0-.1-.43Zm-4.18 2.7h-.26a4.29 4.29 0 0 1-.12-.55l.3.19.08.35Z" fill="#00AB4F"/></svg>