<!-- by TradingView --><svg width="18" height="18" viewBox="0 0 18 18" xmlns="http://www.w3.org/2000/svg"><path fill="#F0F3FA" d="M0 0h18v18H0z"/><path fill="#EE4723" d="M4 5h10v2H4zM4 11h10v2H4zM9 8h.63v2H9zM7.63 8h.62v2h-.63v-.88H7V10h-.63V8H7v.75h.63V8ZM11 9.5l.63-1.5H12l-.72 2h-.56L10 8h.37L11 9.5Z"/><path fill-rule="evenodd" d="m13.2 9.25-.23-.63-.23.63h.45Zm.08.25.19.5H14l-.82-2h-.36L12 10h.47l.18-.5h.63Z" fill="#EE4723"/><path d="M5.9 8.09v.28a6.08 6.08 0 0 0-.58-.06h-.48a.26.26 0 0 0-.27.26c0 .13.12.25.27.25h.54A.6.6 0 0 1 6 9.4a.6.6 0 0 1-.62.59h-.24c-.53 0-.92-.06-1.05-.09v-.3l.95.04h.14c.14 0 .25-.1.25-.23a.24.24 0 0 0-.25-.24h-.56A.6.6 0 0 1 4 8.6c0-.33.28-.59.62-.59h.33c.62 0 .9.06.96.09Z" fill="#EE4723"/></svg>