<!-- by TradingView --><svg width="18" height="18" viewBox="0 0 18 18" xmlns="http://www.w3.org/2000/svg"><path fill="#F0F3FA" d="M0 0h18v18H0z"/><ellipse cx="9" cy="9" rx="6" ry="5" fill="#003F98"/><path d="M6.77 9H5.1l2.3-3H9.1L6.77 9Zm1.06 2H6.14l3.51-5h1.72l-3.54 5Zm-1.2 2.5H8.3L13.67 6h-1.73l-5.31 7.5Z" fill="#F0F3FA"/><path d="M5 12.73a5.45 5.45 0 0 1-.95-.9c.3-.22.77-.42 1.42-.42 1.04 0 1.8.32 2.05.48l-.25.29c-.57-.09-1.73-.08-2.27.55ZM15 9.32A4.84 4.84 0 0 1 12.6 13c-1.1.04-2.34-.01-3.39-.3l.34-.47c1.36.08 4.34-.4 5.43-2.91Z" fill="#00AAEB"/></svg>