<!-- by TradingView --><svg width="18" height="18" viewBox="0 0 18 18" xmlns="http://www.w3.org/2000/svg"><path fill="#F0F3FA" d="M0 0h18v18H0z"/><path fill-rule="evenodd" d="M5.99 6.1v-.01c.2-.2.43-.38.68-.52a4.84 4.84 0 0 1 2.58-.56c.21 0 .43.02.64.06a3.76 3.76 0 0 1 2.07.98l.09.04.07-.03a2.15 2.15 0 0 1 .77-.24c.25-.02.47.03.67.15a1.27 1.27 0 0 1 .44.5l.12.3.03.15a3.72 3.72 0 0 1-.02.53 1.45 1.45 0 0 1-1 1.05c-.14.04-.3.05-.45.04a2.68 2.68 0 0 1-.5-.07 4.35 4.35 0 0 1-.67-.25l-1.09-.48a4.05 4.05 0 0 0-2-.25l-.4.12a6.66 6.66 0 0 0-1.48.68 3.5 3.5 0 0 1-.8.3 2 2 0 0 1-.5.04 1.09 1.09 0 0 1-.53-.14 1.44 1.44 0 0 1-.76-1.75c.07-.24.21-.46.42-.6a1.68 1.68 0 0 1 .6-.24h.32c.16 0 .32.05.46.11l.04.02a.5.5 0 0 0 .2.06ZM9.37 6c-.01.36-.1.7-.25 1.04-.03.05-.09.06-.11 0a1.8 1.8 0 0 1-.17-.37c0-.04-.04-.15-.09-.32a1.33 1.33 0 0 1-.05-.37c0-.12 0-.21.08-.3.1-.16.3-.21.45-.1.13.1.15.28.14.42Zm2.1 1.31a3.4 3.4 0 0 1-.54.22.26.26 0 0 1-.1 0c-.03-.04.02-.12.06-.16l.01-.03c.13-.2.28-.37.45-.55a.7.7 0 0 1 .24-.16c.14-.06.36-.08.4.1a.3.3 0 0 1 0 .14c-.02.1-.1.2-.2.26-.08.06-.19.12-.32.18Zm-4.36-.05a4.2 4.2 0 0 0-.42-.49.57.57 0 0 0-.34-.15c-.08 0-.22 0-.26.07-.05.06-.09.17-.06.25a.5.5 0 0 0 .17.2l.14.09.33.15c.14.07.3.13.46.17.04 0 .12.02.14 0 .03-.02.01-.07 0-.1l-.05-.05a3.37 3.37 0 0 1-.1-.14Zm7.02.54c-.05.1-.12.19-.18.28a1.5 1.5 0 0 1-.57.46c-.12.04-.24.08-.39.09a3.55 3.55 0 0 1-.58-.02l-.22-.05a.26.26 0 0 0-.14 0l-.1.04a.38.38 0 0 0-.14.1v.04l.07.04.43.14c.16.04.33.06.5.05a4.41 4.41 0 0 0 .52-.08c.24-.04.47-.13.68-.26.18-.1.33-.25.42-.44.03-.06.04-.1.04-.13l.01-.14c0-.06 0-.1-.02-.15a.62.62 0 0 0-.08-.18.19.19 0 0 0-.1-.07h-.02l-.01.01-.04.11a.72.72 0 0 1-.08.16Zm-8.58.91c.16-.02.31-.06.46-.11.03-.01.06-.02.1 0l.05.02a2.3 2.3 0 0 0 .21.14A2.99 2.99 0 0 1 5 9.06a2.6 2.6 0 0 1-1.05-.39c-.1-.07-.18-.15-.24-.24a.69.69 0 0 1-.12-.6c.03-.09.07-.2.16-.26a.03.03 0 0 1 .04 0c.02.03.03.06.03.1l.01.05c.08.27.23.49.46.66a1.73 1.73 0 0 0 1.26.34Zm2.8-.79a.83.83 0 0 1-.33-.21H8a2.94 2.94 0 0 0-.4.17.03.03 0 0 0 0 .03l.01.01c.06.07.13.12.21.17.18.1.37.18.58.25a2.3 2.3 0 0 0 2-.28 1.13 1.13 0 0 0 .18-.13 6.5 6.5 0 0 0-.36-.17c-.1-.04-.15 0-.24.04l-.02.01a1.94 1.94 0 0 1-.62.22c-.23 0-.44 0-.6-.02a1.7 1.7 0 0 1-.38-.09Zm0 .54a.63.63 0 0 1-.14.09c-.26.13-.57.19-.88.2-.31.02-.64 0-.92-.12a.38.38 0 0 1-.15-.1.02.02 0 0 1 0-.03 17.6 17.6 0 0 1 .43-.2l.2.05a1.55 1.55 0 0 0 1.04-.1h.01l.42.2Zm2.97-.15-.18.06c-.15.03-.31.03-.46 0a1.73 1.73 0 0 1-.44-.1h-.01c-.12.04-.23.1-.34.17l-.03.04c0 .02.02.03.04.04l.08.04a3.97 3.97 0 0 0 .77.2 2.84 2.84 0 0 0 .86-.11l.22-.1c.02-.02.03-.04.02-.06 0-.03-.03-.05-.05-.06a11 11 0 0 0-.31-.1c-.07-.03-.11-.04-.17-.02Zm1.51.92h-.03l-.14.1-.2.15a.12.12 0 0 1-.1.03c-.05-.02-.05-.05-.03-.07a8.66 8.66 0 0 1 .48-.39h.1c.21-.02.38-.03.56-.07a1 1 0 0 0 .25-.08 2.55 2.55 0 0 0 .65-.45c.06-.05.11-.06.2-.06l.4.01c.01 0 .03 0 .03.03l-.01.02-.14.12a15090.37 15090.37 0 0 0-4.65 3.7v-.05l-.01-.06c0-.09 0-.18-.07-.26a.06.06 0 0 1-.02-.05.1.1 0 0 1 .03-.06 31.38 31.38 0 0 1 .92-.74h.11l.44.02c.05 0 .09-.02.1-.05V11a.78.78 0 0 0-.03-.1l-.07-.18c-.02-.05 0-.1.04-.14l.42-.33a.34.34 0 0 1 .14-.05 5.36 5.36 0 0 0 .72-.18c.02-.03.02-.05 0-.08a26.95 26.95 0 0 1-.33-.28c-.02-.02-.06-.05-.04-.09a29.44 29.44 0 0 1 .31-.31v-.01a.03.03 0 0 0-.02-.02h-.01ZM9.1 9.02l-.02.01h-.01l-.1-.16a5.5 5.5 0 0 0-.26-.36.35.35 0 0 1-.12-.04h-.03a2.54 2.54 0 0 1-.32.16 1.42 1.42 0 0 1 .42.62h.16c.06 0 .11.01.15.04l.11.05h.03c.09 0 .17.03.23.06l.09.07c.02.02.05 0 .06-.02a1.27 1.27 0 0 1 .38-.65l.04-.04a.18.18 0 0 0 .03-.04V8.7l-.01-.02a2.02 2.02 0 0 0-.34-.19.29.29 0 0 0-.09.04 3.34 3.34 0 0 0-.4.48Zm-4.56.37c-.05 0-.1.03-.05.07l.5.4.21.14a823.38 823.38 0 0 1 2.6 1.95h.07c.02 0 .03 0 .04-.03 0-.03 0-.05-.03-.07a1.12 1.12 0 0 0-.09-.07l.16-.07h.01l.17.15v.01a1.3 1.3 0 0 0-.08.17.3.3 0 0 0-.01.1.73.73 0 0 0 .01.16v.01h-.01A21165.8 21165.8 0 0 1 3 8.56L3 8.54l.01-.01c.01-.01.03-.02.06-.01a3.48 3.48 0 0 0 .6 0l.02.03c.1.14.24.25.42.35.27.15.58.22.9.22a45.9 45.9 0 0 0 .4.02 1.34 1.34 0 0 1 .25.26l-.01.01-.04.02a1.93 1.93 0 0 0-.52.34.02.02 0 0 1-.03 0 70.22 70.22 0 0 0-.52-.38Zm6.36-.3a1.4 1.4 0 0 1 .26.02l.14.02c.04 0 .06-.02.07-.04a21.4 21.4 0 0 1 .11-.3.02.02 0 0 0-.01 0h-.08a3.51 3.51 0 0 1-.5.05v.24Zm-3.77-.24h.07a.03.03 0 0 1 .03 0c.04.04.06.1.08.15v.04l-.05.02a2.2 2.2 0 0 0-.44.02.99.99 0 0 1-.07-.11c-.02-.04-.06-.1-.02-.14h.04c.12.02.24.03.36.02Zm-1.25.81.02-.02.17-.06.31-.05a8.77 8.77 0 0 1 .58-.07 2.01 2.01 0 0 1 .5-.23v-.01c-.08-.05-.15-.06-.25-.06a2.8 2.8 0 0 0-.56.02 3.55 3.55 0 0 0-1.44.59c-.05.05 0 .08.05.1l.16.02c.3.04.62.06.93.05a.1.1 0 0 0 .08-.04 6.94 6.94 0 0 1 .23-.2l.02-.02a.35.35 0 0 0 .1-.1.03.03 0 0 0-.01-.02h-.01a16.78 16.78 0 0 0-.88.11Zm6.48.2v-.01a7.91 7.91 0 0 0-1.34-.26h-.4a13.5 13.5 0 0 1-.14-.01 3.7 3.7 0 0 0-.26-.1l-.02-.04c0-.06.1-.12.15-.15a1.76 1.76 0 0 1 1.09-.04 5.42 5.42 0 0 1 1 .41c.12.07.22.15.3.23.04.03.05.07.05.11l-.03.03-.08.02a3.81 3.81 0 0 1-1.46.06.29.29 0 0 1-.08-.05l-.17-.13a6.37 6.37 0 0 0-.2-.16c-.05-.04-.03-.05 0-.09a5.74 5.74 0 0 1 1.59.18Zm-5.87.49a.24.24 0 0 1-.06.03c-.02 0-.03 0-.01-.02l.02-.02.25-.17a10.7 10.7 0 0 1 1.09-.61c.13-.06.25-.1.36-.12a.1.1 0 0 0 .06-.02v-.05a.32.32 0 0 0-.22-.11c-.12-.02-.24-.01-.37.02-.3.07-.58.22-.81.42a2.5 2.5 0 0 0-.66.82c-.01.03 0 .06.02.07h.06a3.48 3.48 0 0 0 1.42-.35c.12-.06.2-.1.26-.2l.13-.19a1.58 1.58 0 0 1 .24-.3.03.03 0 0 0 0-.03h-.01l-.02-.01H8.2l-.25.1-.67.3c-.3.15-.53.27-.78.44Zm1.41.99c0 .02 0 .02.02 0l.06-.1a269.55 269.55 0 0 1 1.07-1.7.4.4 0 0 1 .08-.07.1.1 0 0 1 .1 0c.1.05.16.13.16.25v.16c-.03.11-.06.23-.12.34a3.01 3.01 0 0 1-.43.66c-.17.17-.35.34-.54.48a2.71 2.71 0 0 1-.6.34c-.01 0-.02 0-.03-.02v-.31a5.47 5.47 0 0 1 .28-1.13c.08-.18.18-.35.29-.51.07-.1.15-.2.25-.27.1-.09.24-.16.38-.17a.1.1 0 0 1 .07.02c.04.04.05.07.04.12a10.7 10.7 0 0 0-1.08 1.91Zm3.3-.63h-.01l-.05-.01a4.06 4.06 0 0 0-.74-.47 13.88 13.88 0 0 0-.83-.39c-.05-.01-.07.02-.08.05v.1a.6.6 0 0 0 .2.42l.1.07c.19.12.4.22.6.3a4.43 4.43 0 0 0 1.08.22c.03 0 .09 0 .09-.04 0-.03 0-.06-.02-.1l-.07-.14a4.2 4.2 0 0 0-.24-.38 2.52 2.52 0 0 0-1-.77 1.04 1.04 0 0 0-.37-.08c-.1 0-.19.02-.27.08a.1.1 0 0 0-.05.1c0 .03 0 .06.04.07l.06.03.07.02a2.4 2.4 0 0 1 .61.28 7.4 7.4 0 0 1 .89.64Zm-5.16-.52a2.94 2.94 0 0 1-.22-.2h.01l.47.01h.01l.01.02a.02.02 0 0 1 0 .02.88.88 0 0 0-.1.18c-.02.03-.04.06-.08.03a1.3 1.3 0 0 1-.1-.06Zm-.01.28.03-.11v-.02l-.01-.02-.41-.3a.16.16 0 0 0-.09-.02h-.14c-.02 0-.02 0 0 .02l.61.45Zm5.49-.23a.39.39 0 0 1-.13.1h-.01c-.04-.01-.04-.08-.04-.11 0-.02.01-.02.02-.02a.61.61 0 0 1 .16.01v.01Zm.05.27a4.67 4.67 0 0 0 .36-.27c.02-.02.01-.02-.01-.02a1.23 1.23 0 0 1-.23-.01l-.19.18c-.03.04-.05.08 0 .12h.03a.1.1 0 0 0 .04 0Zm-2.43.48h.02a.15.15 0 0 0 .04-.05l.04-.07a1.09 1.09 0 0 1 .36-.43l.03.02a1.41 1.41 0 0 0 .33.21v.01l-.02.02a.61.61 0 0 0-.12.1c-.09.07-.16.17-.23.28l-.11.22c-.02.03-.04.03-.07.02l-.1-.05a.42.42 0 0 0-.3-.03.51.51 0 0 0-.18.08c-.03.02-.05.02-.07 0a.4.4 0 0 1-.08-.11v-.01a3.6 3.6 0 0 0 .3-.32h.05l.06.09.05.02Zm-2.38-.27.13.09a64.32 64.32 0 0 1 .69.47 6.73 6.73 0 0 1 .07-.46l-.43-.3a.04.04 0 0 0-.04 0c-.1.04-.17.05-.3.08l-.05.01a.29.29 0 0 0-.1.04c0 .03 0 .05.03.07Zm.74.84-1.12-.81c-.02-.01-.03-.03-.02-.06.05 0 .1-.02.14-.03a.03.03 0 0 1 .02 0l1 .75a.04.04 0 0 1 0 .03l.02.11c0 .02-.01.02-.03.02H7.5Zm2.49 0c-.03.01-.07.03-.1 0v-.04l.06-.05a33.06 33.06 0 0 1 .66-.53l-.13-.04h-.03l-.78.6-.05.04a2.1 2.1 0 0 1-.04.05c.01.04 0 .08-.01.12v.02a.01.01 0 0 0 0 .01h.07c.1-.02.2-.01.29 0h.05c.01 0 .03 0 .04-.02a38.92 38.92 0 0 0 .9-.7l-.03-.01a.68.68 0 0 1-.19-.05 23.62 23.62 0 0 1-.71.6Zm-.9.42c.2 0 .37-.15.37-.34a.35.35 0 0 0-.36-.35c-.2 0-.36.16-.36.35 0 .19.16.34.36.34Zm-.81-.2a.58.58 0 0 1 .08-.04.37.37 0 0 1 .12-.02h.15v-.13l-.2-.18h-.01l-.34.22a.02.02 0 0 0-.01.02.02.02 0 0 0 0 .01c.04.05.13.1.18.12a.03.03 0 0 0 .03 0Zm.2.71c.2 0 .36-.15.36-.34a.35.35 0 0 0-.36-.35c-.2 0-.36.16-.36.35 0 .19.16.34.36.34Zm1.61-.33c0 .19-.16.34-.36.34a.35.35 0 0 1-.36-.34c0-.2.16-.35.36-.35.2 0 .36.16.36.35Zm-1.02-.08.1-.02h.04a.2.2 0 0 1 .04.06c.02.04 0 .08-.03.1-.01.02-.03.02-.04.02a.48.48 0 0 0-.18 0c-.03.01-.05 0-.06-.04-.01-.05 0-.09.03-.12l.04-.01h.06Zm.4.58c0 .19-.15.34-.35.34a.35.35 0 0 1-.37-.34c0-.2.17-.35.37-.35.2 0 .36.16.36.35Zm-.99-.06a.42.42 0 0 0 .15-.02l.01.01v.14a.38.38 0 0 1-.06-.03l-.02-.02a.48.48 0 0 1-.08-.07v-.01Zm1.13.14a.97.97 0 0 0 .13-.1.01.01 0 0 0 0-.01 4.59 4.59 0 0 0-.15-.04 3.94 3.94 0 0 0 .02.15Z" fill="#019740"/></svg>