<!-- by TradingView --><svg width="18" height="18" viewBox="0 0 18 18" xmlns="http://www.w3.org/2000/svg"><path fill="#181B1E" d="M0 0h18v18H0z"/><ellipse cx="9" cy="9" rx="7" ry="3" fill="#00FF38"/><ellipse cx="9" cy="8.7" rx="6.7" ry="2.7" fill="#000AF7"/><path d="m13 7-1.04.21.24.05c.04.01 0 .07-.03.1l-.23-.01v.12l-.29-.05-.46.17-.38-.18-1.06.45-.24-.12L9 8h.26l.25-.14.27.14 1.03-.46.57.26.25-.13h.26l.21-.1V7.5l.24-.14.16.22L13 7ZM6.74 7.2c.07-.01.32.13.43.2l-.36.4a1.17 1.17 0 0 1-.07-.27c0-.06-.17-.1-.17-.2 0-.09.07-.12.17-.13ZM6.52 6.3h-.5c.03.04.05.23.03.24-.02 0-.12.06-.08.11.04.06.11.25.2.25.08 0 .14-.16.15-.25l.13.11c.02.01.02-.07.07-.1.05-.05.35-.23.35-.27 0-.04-.1-.09-.16-.09-.04 0-.06.13-.1.13-.03 0-.07-.09-.1-.13ZM11.74 6.3h-2.6c0 .03-.04.1-.12.1l-.17-.03c-.07-.02-.16-.05-.23-.05-.13 0-.58.28-.6.33v.06c0 .03-.01.06-.04.08l-.06.05c-.06.03-.14.08-.14.13 0 .08.04.17.14.2.05 0 .1-.02.15-.04.07-.02.13-.05.2-.02.12.05.3.17.28.26 0 .05-.03.06-.05.07-.03.01-.04.02-.03.06.02.08.17.3.3.3.11 0 .43-.24.44-.3 0-.03 0-.06-.02-.1 0-.05-.02-.1.02-.1l.2-.07c.1-.14.34-.44.42-.44.05 0 .1.07.17.13.05.06.1.13.16.13s.12-.07.18-.13c.06-.05.1-.1.14-.1.03 0 .07.04.12.09.08.07.17.16.28.16.12 0 .1-.06.1-.11-.01-.03-.02-.05 0-.05.02-.02.2-.07.3-.09l-.17-.17h.35l-.3-.25c.1-.03.29-.07.34 0 .06.08.13.09.16.09.04 0 .08-.12.08-.19Zm-3.27.36c.08.02.27.08.32.08.03 0 .07-.03.1-.07.06-.04.1-.08.14-.07.06.03.1.14.08.14-.01 0-.07.1-.03.12.03.01.25.29.22.3l-.01.01c-.03.02-.06.04-.09.02l-.03-.06c-.06-.08-.15-.23-.22-.23h-.29c-.08 0-.24-.12-.26-.16-.02-.03.02-.1.07-.08Z" fill="#FBFCFE"/><path fill="#FBFCFE" fill-opacity=".5" d="M4 8h10v2H4z"/></svg>