<!-- by TradingView --><svg width="18" height="18" viewBox="0 0 18 18" xmlns="http://www.w3.org/2000/svg"><path fill="#F0F3FA" d="M0 0h18v18H0z"/><path d="M3.46 8.43c.04-.25.22-.43.43-.43h2.94c.11 0 .2.13.17.26l-.46 2.31c-.04.25-.22.43-.43.43H3.17c-.11 0-.2-.13-.17-.26l.46-2.31Z" fill="#F6821F"/><path d="M5.54 9.36A.48.48 0 0 1 6.02 9h3.8c.12 0 .2.1.17.22l-.53 2.42a.48.48 0 0 1-.48.36h-3.8c-.12 0-.2-.1-.17-.22l.53-2.42Z" fill="#018FCF"/><path d="M14.55 7.55H16L12.43 6 8 7.55h1.1l-.85 3.22c-.03.12.06.23.18.23h4.83c.22 0 .42-.15.47-.37l.82-3.08Z" fill="#F6821F"/></svg>