<!-- by TradingView --><svg width="18" height="18" viewBox="0 0 18 18" xmlns="http://www.w3.org/2000/svg"><path fill="#F0F3FA" d="M0 0h18v18H0z"/><path fill-rule="evenodd" d="m13.96 10.86-.25-.37a.13.13 0 0 1-.02-.09l.01-.04a.1.1 0 0 1 .03-.03l2.24-1.73.02-.03a.08.08 0 0 0-.02-.1L9.02 4.03a.1.1 0 0 0-.11 0L2.04 8.47a.09.09 0 0 0-.03.03.1.1 0 0 0 0 .1l.03.04 2.2 1.59c.03.02.05.05.05.08.01.04 0 .08-.01.1l-.27.5A.18.18 0 0 0 4 11c0 .03.02.05.04.08 1.24 1.45 2.72 2.59 4.47 2.87.6.1 1.26.02 2.02-.24a6.66 6.66 0 0 0 3.46-2.77c0-.04 0-.07-.02-.09Zm-5.45-.95.06.22c0 .06 0 .1-.05.11a.12.12 0 0 1-.05.01c-.05 0-.08-.03-.09-.08-.04-.19-.11-.3-.22-.33-.06-.01-.08.02-.07.1 0 .03.05.13.14.3.03.05.02.09-.03.11-.02.02-.05.01-.08 0a2.5 2.5 0 0 1-.45-.53.04.04 0 0 0-.04-.02l-.04.01c-.02 0-.03 0-.04.02a.08.08 0 0 0-.02.04.1.1 0 0 0 .02.09l.37.45.02.04a.1.1 0 0 1 0 .05l-.03.03a.06.06 0 0 1-.04.02H7.8l-.02-.02a2.2 2.2 0 0 0-.9-.71c-.05-.02-.08 0-.09.06 0 .04.02.07.05.1a13.52 13.52 0 0 1 .81.67.1.1 0 0 1 0 .04.1.1 0 0 1-.03.07l-.04.03h-.05c-.62-.46-.99-.72-1.1-.78-.2-.1-.34-.15-.45-.17-.27-.04-.29.01-.05.16l3.03 1.93c.04.03.08.03.12 0l2.81-1.81c.36-.23.33-.3-.06-.23a14.86 14.86 0 0 0-1.3.87.06.06 0 0 1-.06.02.1.1 0 0 1-.06-.04l-.03-.04v-.03l-.01-.03.01-.03.02-.02.74-.6a.16.16 0 0 0 .05-.06c.01-.04.02-.06.01-.08-.02-.04-.04-.05-.07-.03-.34.17-.64.4-.9.7-.03.03-.05.04-.08.02l-.05-.03c-.03-.01-.03-.03-.01-.05l.4-.56c.03-.03.02-.05 0-.07l-.05-.02a.1.1 0 0 0-.04 0l-.04.01a9.67 9.67 0 0 0-.45.55h-.05c-.06 0-.07-.03-.05-.09l.07-.22c.07-.23.03-.27-.14-.1a.64.64 0 0 0-.12.26c0 .02-.02.02-.04.03l-.07.01c-.04 0-.05 0-.04-.04l.06-.32-.01-.04a.06.06 0 0 0-.04-.02c-.02 0-.05 0-.06.03l-.13.24c-.1.15-.15.13-.15-.06V5.62c0-.12.05-.16.16-.1l.11.06c.1.05.14.14.14.25L9.47 7v.05l.03.04a.1.1 0 0 0 .05.03h.04l.05-.02a.1.1 0 0 0 .05-.04.12.12 0 0 0 .02-.06l.08-1c.01-.11.07-.14.17-.09l.14.09c.1.05.13.14.1.26l-.13.77v.04l.02.04.03.02h.1c.04 0 .07-.02.08-.06l.13-.64c.03-.13.09-.17.2-.11l.12.07c.12.06.15.16.11.28-.05.14-.07.27-.07.4 0 .04.03.06.07.06l.05-.01c.06 0 .1-.05.1-.11l.06-.28c0-.08.05-.1.11-.1.16.04.26.16.3.37 0 .02.02.04.04.06h.06c.15-.03.32 0 .53.1l.04.01a.2.2 0 0 0 .05-.01l.05-.02.05-.04a.11.11 0 0 0 .01-.05v-.06a.1.1 0 0 0-.05-.05l-3.2-2a.1.1 0 0 0-.12 0L5.86 6.9c-.21.14-.2.22.06.26.06 0 .15-.02.26-.09.05-.03.1-.03.14-.01l.11.05c.05.02.08 0 .08-.07 0-.2.1-.34.31-.4.06 0 .1.02.1.09.02.14.05.23.08.28.13.19.19.16.18-.1 0-.06-.01-.14-.04-.24-.03-.11 0-.2.08-.25l.16-.12c.1-.07.15-.04.18.07l.14.66c.01.06.04.1.1.1l.05.01h.03l.03-.02.01-.03v-.03l-.11-.75A.32.32 0 0 1 7.94 6l.09-.06c.12-.1.19-.06.19.1a4.99 4.99 0 0 0 .14 1.08h.08a.1.1 0 0 0 .06-.05.14.14 0 0 0 .02-.08l-.07-1.15c0-.11.04-.2.12-.24l.15-.08c.1-.06.15-.03.15.09l.01 4.47c0 .05-.02.08-.07.08-.1 0-.15-.08-.17-.23 0-.02 0-.03-.02-.03l-.05-.02c-.05-.02-.07-.01-.06.04Zm2.37-1.62a.85.85 0 0 1-.37-.02c-.06-.01-.07-.03 0-.06.04-.03.07-.09.06-.18a.26.26 0 0 0-.09-.17 1.3 1.3 0 0 0-.6-.3h-.06a.13.13 0 0 0-.06.04.16.16 0 0 0-.02.15c.06.16.25.3.57.43.13.06.13.09-.01.1h-.75c-.06-.01-.1.03-.1.1a.3.3 0 0 0 0 .07c.01.1.07.15.16.15h.75c.02 0 .05 0 .06.02.02 0 .04.03.05.05a.15.15 0 0 1 0 .13c-.17.36-.41.42-.63.47a.85.85 0 0 0-.31.12c-.08.05-.1.12-.08.21 0 .03.02.05.04.07a.1.1 0 0 0 .07.02c.6 0 1.04-.3 1.33-.88.07-.14.13-.22.18-.23a.7.7 0 0 1 .32 0c.05.01.07.05.08.1.02.18.01.35 0 .53-.03.18.06.3.26.35.38.1.79.1 1.22-.01.17-.05.26-.18.27-.41 0-.05 0-.1-.03-.14a.18.18 0 0 0-.1-.08c-.18-.04-.3.05-.39.29a.17.17 0 0 1-.09.1.82.82 0 0 1-.45.06.22.22 0 0 1-.14-.09.28.28 0 0 1-.06-.17l-.01-.31c0-.14.06-.21.18-.21l1.01-.02a.1.1 0 0 0 .07-.03.13.13 0 0 0 .04-.07.2.2 0 0 0 0-.07c-.02-.06-.05-.09-.1-.1a2.45 2.45 0 0 0-.6-.02c-.18.02-.2-.04-.05-.17l.34-.3.03-.03a.1.1 0 0 0 0-.08.1.1 0 0 0 0-.03c-.07-.1-.14-.13-.23-.1-.25.05-.46.24-.62.56-.05.1-.1.16-.13.18-.07.04-.16.03-.26-.02a.11.11 0 0 1-.05-.05.18.18 0 0 1-.02-.08v-.51a.18.18 0 0 0-.04-.12.16.16 0 0 0-.11-.06h-.21l-.07.01a.17.17 0 0 0-.06.04.2.2 0 0 0-.04.07.2.2 0 0 0 0 .07l.01.45c0 .1-.05.16-.16.18Zm-6.87.16c0 .05 0 .07.02.08.18.05.26.15.25.28l-.02.05a.1.1 0 0 1-.04.04.1.1 0 0 1-.1 0l-.21-.15c-.21-.14-.38-.25-.38-.31 0-.07.17-.17.4-.3l.21-.13a.1.1 0 0 1 .1 0 .1.1 0 0 1 .04.04l.01.05c0 .13-.08.22-.25.27-.02 0-.03.03-.03.08Zm9.8-.19c.1.04.15.07.18.11.05.05.04.1-.02.13l-.17.12a.15.15 0 0 0-.06.09v.05l.01.05.03.04.02.03.03.02a.08.08 0 0 0 .07-.02c.17-.14.36-.25.55-.33a.1.1 0 0 0 .04-.03.12.12 0 0 0 .01-.11.1.1 0 0 0-.04-.04l-.56-.38c-.04-.03-.08-.03-.12.01-.04.04-.05.09-.05.15 0 .02.01.05.03.07l.05.04ZM8.4 9.52a.33.33 0 0 0 .08-.22V7.8a.33.33 0 0 0-.08-.23.26.26 0 0 0-.2-.09H4.98a.26.26 0 0 0-.2.1.33.33 0 0 0-.07.21V9.3c0 .08.03.16.08.22s.12.1.2.1H8.2c.07 0 .14-.04.2-.1Zm-.42-.34a.29.29 0 0 0 .01-.1V8a.29.29 0 0 0-.06-.18.23.23 0 0 0-.08-.06.2.2 0 0 0-.08-.02h-2.4a.2.2 0 0 0-.1.02.23.23 0 0 0-.07.05.29.29 0 0 0-.07.18v1.1a.29.29 0 0 0 .07.18l.08.06a.2.2 0 0 0 .08.02h2.4a.2.2 0 0 0 .1-.02.23.23 0 0 0 .07-.06.26.26 0 0 0 .05-.08Zm-.22-.26a.8.8 0 0 1-.3-.18c-.05-.05-.05-.08 0-.11s.1-.05.17-.06c.03 0 .05-.03.06-.08l.01-.06v-.05l-.03-.02h-.02c-.26.06-.52.06-.78 0a.12.12 0 0 1-.07-.04.13.13 0 0 1-.02-.11c.02-.06.05-.1.11-.1l.81.02c.05 0 .07-.03.06-.08 0-.06-.04-.1-.1-.12a1.18 1.18 0 0 0-.44-.05c-.65.03-1.23.02-1.72 0-.06-.01-.1.03-.1.12l-.01.06c0 .04.01.06.05.06H6.25l.03.03.01.04a.1.1 0 0 1 0 .04v.05c-.01.03-.03.05-.05.06a.09.09 0 0 1-.06.03l-.75-.03H5.4l-.02.02v.03l-.01.02v.08c0 .07.05.11.12.11h.75c.05 0 .08.03.07.1v.06c0 .04-.02.08-.05.1a.13.13 0 0 1-.1.04H5.35V9c0 .03.02.06.04.08a.1.1 0 0 0 .06.03c.79.05 1.54.05 2.26.01.04 0 .07-.03.1-.08.01-.06 0-.1-.05-.11Zm-.88-.02c.1.02.18-.03.2-.11.01-.09-.05-.17-.15-.19-.1-.02-.18.04-.2.12 0 .08.06.17.15.18Z" fill="#F79E27"/></svg>