<!-- by TradingView --><svg width="18" height="18" viewBox="0 0 18 18" xmlns="http://www.w3.org/2000/svg"><path fill="#F0F3FA" d="M0 0h18v18H0z"/><path fill-rule="evenodd" d="M9 11a2.5 2.5 0 0 0 2.03-3.96H6.97A2.5 2.5 0 0 0 9 11ZM7.1 6.87a2.5 2.5 0 0 1 3.8 0H7.1Zm.28 1.05h3.17v.17H7.38v-.17Zm3.17 1.04H7.38v.17h3.17v-.17ZM8.6 10.01h.7v.17h-.7v-.17ZM4.68 9h.93c.09.34.23.57.31.66l1.24.84a3.32 3.32 0 0 1-.84-2.13c0-.58.22-1.16.33-1.37h-.8c-.08.16-.22.53-.28 1h-.69l-1.19-.67H2L4.68 9ZM16 7h-4.46c.18.34.27.8.3 1h.85v.4l-.9.62c-.17.75-.58 1.3-.77 1.48l2.77-1.77V8h1.09L16 7Zm-9.51 5.5v-1H6.3l-.31.7v.8h6v-.8l-.29-.7h-.22v1h-5Zm.26-1h4.5v.75h-4.5v-.75Z" fill="#DE231A"/></svg>