<!-- by TradingView --><svg width="18" height="18" viewBox="0 0 18 18" xmlns="http://www.w3.org/2000/svg"><path fill="#F0F3FA" d="M0 0h18v18H0z"/><path d="M6.82 7.78c-.22-.1-.5-.2-.8-.2-.33 0-.68.16-.68.5 0 .24.28.41.68.63.56.32.68.68.68 1.03 0 .81-.71 1.26-1.52 1.26-.7 0-1.18-.24-1.18-.24l.16-.62c.16.1.58.29 1.04.29.35 0 .6-.23.6-.57 0-.24-.12-.4-.46-.6-.47-.26-.88-.54-.89-1.02C4.43 7.44 5.24 7 6 7c.34 0 .7.04 1 .16l-.18.62ZM7.79 11h.92l.5-4H8.3l-.5 4ZM12.85 7.77c-.15-.1-.4-.2-.74-.2-.9 0-1.3.9-1.3 1.72.01.66.28 1.14.69 1.14.24 0 .4-.06.4-.06l.28-1.08h-.54l.1-.58H13l-.43 2.1s-.4.19-1.07.19c-.92 0-1.5-.71-1.5-1.71C10 8.07 10.9 7 12.1 7c.3 0 .66.06.9.18l-.15.6Z" fill="#0033A0"/><path d="M9 5.57C5.46 5.57 2.6 7.1 2.6 9c0 1.9 2.86 3.43 6.4 3.43 3.54 0 6.42-1.52 6.42-3.43 0-1.9-2.88-3.43-6.42-3.43ZM16 9c0 2.21-3.12 4-6.99 4C5.12 13 2 11.21 2 9s3.11-4 7-4c3.86 0 7 1.79 7 4Z" fill="#0033A0"/></svg>