<!-- by TradingView --><svg width="18" height="18" viewBox="0 0 18 18" xmlns="http://www.w3.org/2000/svg"><path fill="#F0F3FA" d="M0 0h18v18H0z"/><path d="M15 10.67h-2.7v-4H12c-.72 0-1 .7-1.05 1.06L10.8 12H15v-1.33Z" fill="#1993A2"/><path d="M10.35 6.4c.48 0 .9.18 1.05.27-.6.4-.77.72-.9 2.66C10.35 11.6 8.7 12 8.1 12c-.48 0-.8-.09-.9-.13 1.05-.27.9-1.47 1.05-3.34.15-1.86 1.5-2.13 2.1-2.13Z" fill="#1993A2"/><path d="M7.65 8.54h-1.5c0-.67-.45-.8-.75-.8s-.9 0-.9.4c0 .32.9.57 1.35.66 2.1.4 1.95 1.47 1.95 1.6 0 .13 0 1.6-2.4 1.6C3.48 12 3 10.76 3 10.13h1.5c0 .54.3.8.9.8.6 0 .9-.26.9-.53s-.15-.4-1.65-.66c-1.2-.22-1.5-1.07-1.5-1.47-.12-1.39 1.35-1.64 2.1-1.6 1.8 0 2.35 1.24 2.4 1.87Z" fill="#1993A2"/><path d="M6.15 6c-.36-.53-.35-1.56-.3-2 .6.93 1.65.93 2.25 1.87.56.88-.05 2-.3 2.4C7.8 6.8 6.6 6.67 6.15 6Z" fill="#FCAE42"/></svg>