<!-- by TradingView --><svg xmlns="http://www.w3.org/2000/svg" width="18" height="18"><path fill="#F0F3FA" d="M0 0h18v18H0z"/><path d="M3.11 8.73a.38.38 0 000 .54L4.84 11h4.7c.48 0 .86-.26.86-.72 0-.16-.11-.32-.26-.45-.25-.22-.6-.28-.93-.35A8.7 8.7 0 019 9.44l-.76-.16C7.3 9.05 6.4 8.64 6.4 7.64 6.4 6.64 7.73 6 8.76 6h3.4L9.28 3.11a.38.38 0 00-.54 0L3.11 8.73zM13.16 7h-4.4c-.44 0-.8.3-.8.73s.8.65 1.3.77l.5.14c1 .24 2.24.68 2.24 1.7 0 1-1.41 1.66-2.46 1.66h-3.7l2.9 2.89c.14.15.38.15.53 0l5.62-5.62a.38.38 0 000-.54L13.16 7z" fill="#325A8E"/></svg>