<!-- by TradingView --><svg width="18" height="18" viewBox="0 0 18 18" xmlns="http://www.w3.org/2000/svg"><path fill="#F0F3FA" d="M0 0h18v18H0z"/><path fill-rule="evenodd" d="M12.27 8c.5 0 .81.1 1.13.55V8h.6v4.36c0 .9-.8 1.64-1.71 1.64h-.79v-.55h.68c.6 0 1.22-.66 1.22-1.24v-.68c-.14.55-.63.82-1.13.82-.93 0-1.69-.96-1.69-2.2 0-1.24.76-2.15 1.7-2.15Zm0 .55c.61 0 1.13.68 1.13 1.6 0 .91-.52 1.65-1.13 1.65-.6 0-1.12-.73-1.12-1.65 0-.92.51-1.6 1.12-1.6Z" fill="#007071"/><path d="M8.4 13H9V7.6h4V7H9v-.52c0-.37.43-.88.8-.88H11V5H9.65c-.67 0-1.25.66-1.25 1.32V7H8v.6h.4V13ZM4.61 6.65c0 .88 1.18.92 1.76 1.1.58.19 1 .59 1 1.28 0 1.14-1.03 1.64-1.98 1.64-.45 0-1.01-.06-1.39-.33v-.65c.42.22.92.32 1.38.32.6 0 1.38-.2 1.38-.98 0-.44-.37-.64-.75-.77-.5-.15-1.07-.22-1.52-.53C4.16 7.49 4 7.1 4 6.67c0-.7.43-1.28 1.09-1.46.53-.16 1.49-.22 1.91.23v.5c-.62-.28-1.51-.45-2.07 0a.92.92 0 0 0-.32.71Z" fill="#007071"/></svg>