<!-- by TradingView --><svg width="18" height="18" viewBox="0 0 18 18" xmlns="http://www.w3.org/2000/svg"><path fill="#F0F3FA" d="M0 0h18v18H0z"/><path d="M9.68 4.58 12.5 2c-1.18 1-3.66 3.14-4.22 3.66-.56.52-.24 1.22 0 1.5l2.58 2.38c.75.69.46 1.43.23 1.72l-2.81 3.45c.62-.72 2.25-2.5 3.75-3.88s.93-2.44.47-2.8c-.4-.36-1.41-1.08-2.35-1.94-.85-.78-.7-1.29-.47-1.5Z" fill="#7E7E7E"/><path d="M8.51 6.95c-.37-.34-.23-.86 0-1.07l.7-.65c-.23.22 0 .43.24.65.86.71 2.67 2.24 3.05 2.58.37.35.46.86 0 1.3l-.94 1.07c.37-.52.15-.93 0-1.08L8.5 6.95Z" fill="#C3C3C3" fill-opacity=".6"/><path d="M8.81 5.95c.09-.1.24-.1.33-.02l3.28 2.8c.1.09.1.22.01.3a.25.25 0 0 1-.33.02l-3.28-2.8a.2.2 0 0 1 0-.3Z" fill="#FAFAFA" fill-opacity=".6"/><path d="m6.72 5.88 2.8-2.59c-1.16 1-3.65 3.15-4.21 3.66-.56.52-.23 1.22 0 1.51l2.58 2.37c.75.69.47 1.44.23 1.72L5.31 16c.63-.72 2.25-2.5 3.75-3.88s.94-2.44.47-2.8c-.4-.36-1.4-1.07-2.35-1.94-.84-.78-.7-1.29-.46-1.5Z" fill="#7E7E7E"/><path d="M5.54 8.25c-.37-.35-.23-.87 0-1.08l.7-.65c-.23.22 0 .43.24.65.86.72 2.67 2.24 3.05 2.58.37.35.47.87 0 1.3l-.94 1.07c.37-.51.16-.93 0-1.07l-3.05-2.8Z" fill="#C3C3C3" fill-opacity=".6"/><path d="M5.84 7.24c.09-.09.24-.1.33-.01l3.28 2.8c.1.08.1.21.01.3a.25.25 0 0 1-.33.01l-3.28-2.8a.2.2 0 0 1 0-.3Z" fill="#FAFAFA" fill-opacity=".6"/></svg>