<!-- by TradingView --><svg width="18" height="18" viewBox="0 0 18 18" xmlns="http://www.w3.org/2000/svg"><path fill="#F0F3FA" d="M0 0h18v18H0z"/><path d="M9 6.38c-.07.21-.1.38-.08.51.05.35.17.7.36 1.04l.01.05c0 .02 0 .04-.02.05-.11.11-.2.24-.28.38-.01.04-.04.04-.07 0a4.13 4.13 0 0 1-.8-1.5c-.13-.45 0-.85.37-1.17.19-.17.41-.2.67-.08.32.14.5.3.56.49.13.46.17.8.13 1.03-.09.44-.23.46-.42.06a5.04 5.04 0 0 1-.31-.86c-.03-.12-.07-.12-.11 0Z" fill="url(#a)"/><path d="M9.4 8.31c-.34.3-.34.58 0 .83.07.05.13.05.2-.02l.27-.28a.12.12 0 0 0 .04-.08.12.12 0 0 0-.04-.09l-.35-.35c-.04-.04-.08-.04-.13 0Z" fill="url(#b)"/><path d="M8.56 9.1c-.02 0-.05 0-.07.02l-.36.25a.1.1 0 0 0-.02.13l.2.3.1.1c.03.03.07.05.1.06l.12.02a.2.2 0 0 0 .1-.04l.09-.06a.19.19 0 0 0 .06-.08.27.27 0 0 0 .03-.11c0-.04 0-.08-.02-.13a.48.48 0 0 0-.06-.12l-.21-.3a.09.09 0 0 0-.06-.04Z" fill="url(#c)"/><path d="M8.83 11.86c.05.14.1.14.14 0 .16-.43.08-.9-.24-1.42a.2.2 0 0 1 .02-.25l.16-.16c.1-.1.18-.09.26.02.57.8 1.33 2.21 0 2.68a.26.26 0 0 1-.2-.01c-.82-.4-1.05-1.03-.69-1.9a.1.1 0 0 1 .02-.02.12.12 0 0 1 .16-.03.13.13 0 0 1 .04.06l.33 1.03Z" fill="url(#d)"/><path fill-rule="evenodd" d="M13.13 9a4.12 4.12 0 1 1-8.25 0 4.12 4.12 0 0 1 8.25 0ZM7.7 6.65c.13-1.06.78-1.4 1.92-1.04.4.37.58.82.52 1.34-.03.25-.1.48-.23.7-.08.15-.08.3 0 .43l.2.3c.1.16.19.16.27 0l.51-.95-.48 1.49c.42.42.61.87.56 1.36.02.17 0 .3-.07.36-.06.06-.1.05-.12-.03a4.9 4.9 0 0 0-.67-1.51c-.06-.09-.13-.1-.2-.02l-.32.32c-.05.05-.06.1-.02.17.2.3.39.65.56 1.02.15.32.2.68.14 1.07-.16 1.13-.84 1.45-2.03.97-.4-.48-.51-.98-.37-1.5a7.59 7.59 0 0 1 .25-.7c0-.03 0-.06-.02-.1a1.82 1.82 0 0 0-.32-.5.09.09 0 0 0-.1-.01 2.9 2.9 0 0 0-.5.95c-.05.16-.08.15-.1-.02 0-.16.05-.36.15-.58l.3-.48a.17.17 0 0 0 0-.19l-.28-.47c-.2-.36-.29-.73-.25-1.1 0-.15.03-.24.08-.28.07-.06.1-.04.13.04.14.62.37 1.15.7 1.58.03.04.07.04.1 0l.4-.38a.1.1 0 0 0 .02-.07 1.98 1.98 0 0 1-.74-2.18Z" fill="url(#e)"/><path d="M10.7 3.77a8.9 8.9 0 0 0-1.08-.6c-.6-.29-1-.19-1.58.17-.6.37-1.26.63-1.97.77-.5.1-.83.2-1 .34-.22.17-.39.51-.52 1.02a4.82 4.82 0 0 1-1.41 2.1c-.18.64-.19 1.12-.01 1.45.3.56.44 1.03.44 1.4 0 .16-.02.34-.04.53-.05.38-.1.8.01 1.11.42.62.8.8 1.17.99.3.14.59.28.92.63.18.76 1.2 1.32 1.91 1.32.4 0 .65-.11.88-.22.19-.08.36-.15.57-.15.34 0 .64.08.88.15.14.04.26.08.34.09.75.06 1.06-.04 1.58-.6l.96-1.02 1.19-.8a1.1 1.1 0 0 0 .49-.9c.02-.86.04-1.33.05-1.42.05-.31.18-.7.4-1.15.12-.26.15-.59.1-1-.04-.24-.2-.51-.49-.83a5.05 5.05 0 0 1-1.04-1.77 1.9 1.9 0 0 0-.27-.58c-.25-.3-.41-.46-.47-.47l-2-.56ZM13.88 9a4.87 4.87 0 1 1-9.75 0 4.87 4.87 0 0 1 9.75 0Z" fill="url(#f)"/><defs><linearGradient id="a" x1="4.13" y1="9" x2="14.06" y2="9" gradientUnits="userSpaceOnUse"><stop stop-color="#949398"/><stop offset=".47" stop-color="#C2C2C2"/><stop offset="1" stop-color="#8E8E8E"/></linearGradient><linearGradient id="b" x1="4.13" y1="9" x2="14.06" y2="9" gradientUnits="userSpaceOnUse"><stop offset=".47" stop-color="#C2C2C2"/><stop offset="1" stop-color="#8E8E8E"/></linearGradient><linearGradient id="c" x1="4.13" y1="9" x2="14.06" y2="9" gradientUnits="userSpaceOnUse"><stop stop-color="#949398"/><stop offset=".47" stop-color="#C2C2C2"/></linearGradient><linearGradient id="d" x1="4.13" y1="9" x2="14.06" y2="9" gradientUnits="userSpaceOnUse"><stop stop-color="#949398"/><stop offset=".47" stop-color="#C2C2C2"/><stop offset="1" stop-color="#8E8E8E"/></linearGradient><linearGradient id="e" x1="4.13" y1="9" x2="14.06" y2="9" gradientUnits="userSpaceOnUse"><stop stop-color="#949398"/><stop offset=".47" stop-color="#C2C2C2"/><stop offset="1" stop-color="#8E8E8E"/></linearGradient><linearGradient id="f" x1="4.13" y1="9" x2="14.06" y2="9" gradientUnits="userSpaceOnUse"><stop stop-color="#949398"/><stop offset=".47" stop-color="#C2C2C2"/><stop offset="1" stop-color="#8E8E8E"/></linearGradient></defs></svg>