<!-- by TradingView --><svg width="18" height="18" viewBox="0 0 18 18" xmlns="http://www.w3.org/2000/svg"><path fill="#F0F3FA" d="M0 0h18v18H0z"/><path d="M8.65 4a7.8 7.8 0 0 1 .01.62c.01.4-.2.72-.6.94L5.24 7.05c-.23.11-.38.24-.46.37a.95.95 0 0 0-.13.54c0 .03.02.04.05.03l3.67-1.94a.7.7 0 0 0 .27-.26 59.82 59.82 0 0 0 .03 1.82c0 .41-.06.75-.18 1-.14.3-.39.54-.74.72l-3.7 1.92c-.02.01-.04 0-.04-.02-.02-.38 0-.67.05-.86.08-.27.27-.48.56-.64L7.6 8.18c.36-.19.5-.47.46-.86 0-.02-.02-.03-.04-.01L4.55 9.1c-.19.1-.36.24-.52.42-.02.02-.03.02-.03-.01V7.75c0-.5.06-.89.21-1.15.16-.29.46-.55.9-.77A604.94 604.94 0 0 0 8.61 4h.04Z" fill="#539B34"/><path d="m11.2 9.08-.02-3.73c0-.16-.04-.3-.12-.4-.04-.06-.02-.07.04-.04l1.92 1.01c.66.34.98.83.98 1.46v3.86c0 .03-.02.04-.05.02-.43-.2-.7-.38-.84-.52-.19-.2-.28-.5-.28-.87V6.98c0-.4-.2-.68-.6-.84-.03 0-.04 0-.04.02V9.7c0 .26.06.5.18.72v.01h-.02l-1.62-.84a3.63 3.63 0 0 1-.98-.65 1.5 1.5 0 0 1-.37-.72 4.26 4.26 0 0 1-.05-.86V4.03c0-.02.02-.03.04-.02.25.12.49.25.7.39.3.18.45.46.46.82a73.91 73.91 0 0 1 .04 3.07v.17c.02.27.21.49.58.65.04.02.06 0 .06-.03ZM7.87 10.62c-.02.01-.02.03 0 .04l3.32 1.79c.23.12.46.2.7.22.03 0 .03 0 .01.02-.63.35-1.3.7-2 1.07-.4.21-.8.28-1.22.21a3.8 3.8 0 0 1-1.03-.44c-1.06-.58-2.1-1.14-3.13-1.68-.03-.02-.03-.03 0-.05l.11-.06c.34-.2.59-.31.76-.35.28-.07.57-.03.85.12.87.46 1.83.96 2.86 1.52.18.1.35.13.52.11.14-.02.31-.08.5-.18.03-.01.03-.02 0-.03-1.16-.63-2.35-1.27-3.57-1.91a.6.6 0 0 0-.35-.08c-.07.01-.08 0-.02-.04l1.93-1.04a1.8 1.8 0 0 1 1.81.01 713 713 0 0 0 3.56 1.93c.03.01.03.03 0 .04a5.91 5.91 0 0 1-.87.4c-.28.05-.57 0-.86-.15l-2.92-1.57c-.27-.14-.59-.1-.96.1Z" fill="#073B6C"/></svg>