<!-- by TradingView --><svg width="18" height="18" viewBox="0 0 18 18" xmlns="http://www.w3.org/2000/svg"><path d="M0 9a9 9 0 1 1 18 0A9 9 0 1 1 0 9Z" fill="#F0F3FA"/><path fill-rule="evenodd" d="M15 9.01c0 2.08-1.05 3.9-2.65 4.99h-6.7A6.01 6.01 0 1 1 15 9.01ZM7.15 7.6c0-.49-.23-1.59-1.14-1.6-1.13-.01-1.2 1.46-1.2 1.6-.02.16 0 1.17 1.04 1.55.82.3.85.83.84 1.18-.01.29-.21.81-.7.87-.69.08-.78-.69-.8-.8h-.53c0 .57.27 1.6 1.32 1.6.98 0 1.3-1.14 1.29-1.8-.02-.5-.23-1.45-1.26-1.76-.2-.04-.63-.27-.66-.88 0-.28.13-.76.66-.76.18 0 .53.18.56.8h.58ZM12.08 6c.9.01 1.14 1.11 1.14 1.6h-.58c-.04-.62-.39-.8-.56-.8-.54 0-.67.48-.67.76.04.6.46.84.67.88 1.03.31 1.24 1.26 1.26 1.75.01.67-.31 1.81-1.3 1.81-1.04 0-1.3-1.03-1.31-1.6h.53c.01.11.11.88.79.8.5-.06.7-.58.7-.87.02-.35-.01-.89-.84-1.18a1.58 1.58 0 0 1-1.04-1.54c0-.15.08-1.62 1.21-1.61ZM8.76 6l-1.3 6h.5l.43-2h1.19l.41 2h.54l-1.3-6h-.47Zm.68 3.32h-.9l.45-2.17.45 2.17Z" fill="#255CB0"/></svg>