<!-- by TradingView --><svg width="18" height="18" viewBox="0 0 18 18" xmlns="http://www.w3.org/2000/svg"><path fill="url(#a)" d="M0 0h18v18H0z"/><path d="M11.3 8.73A6.39 6.39 0 0 1 9.79 4h-.77L9 4.5c0 3.33 2.18 6.07 5 6.5v-.68a4.76 4.76 0 0 1-2.7-1.6ZM10.15 4.5c0 2.59 1.67 4.73 3.85 5.14v-.7c-1.65-.4-3.08-2.11-3.08-4.44 0-.17.01-.34.03-.5h-.77c-.02.17-.03.33-.03.5Zm1.16 0c0-.17 0-.33.03-.5h.77a3.9 3.9 0 0 0-.03.5c0 1.55.88 2.68 1.92 3.06v.71c-1.54-.39-2.7-1.93-2.7-3.77ZM14 7.02V4.67c0-.22-.15-.67-.77-.67h-.77c.07.9.46 2.76 1.54 3.02Z" fill="url(#b)"/><path d="M6.7 8.73A6.39 6.39 0 0 0 8.21 4h.77l.02.5c0 3.33-2.18 6.07-5 6.5v-.68a4.76 4.76 0 0 0 2.7-1.6ZM7.85 4.5C7.85 7.1 6.18 9.23 4 9.64v-.7c1.65-.4 3.08-2.11 3.08-4.44 0-.17-.01-.34-.03-.5h.77c.02.17.03.33.03.5Zm-1.16 0c0-.17 0-.34-.03-.5H5.9c.02.16.03.33.03.5 0 1.55-.88 2.68-1.92 3.06v.71c1.54-.39 2.7-1.93 2.7-3.77ZM4 7.02V4.67c0-.22.15-.67.77-.67h.77c-.07.9-.46 2.76-1.54 3.02Z" fill="url(#c)"/><path fill="#9C9C9C" d="M4 12h10v2H4z"/><defs><linearGradient id="a" x1="3.35" y1="3.12" x2="21.9" y2="24.43" gradientUnits="userSpaceOnUse"><stop stop-color="#1A1E21"/><stop offset="1" stop-color="#06060A"/></linearGradient><linearGradient id="b" x1="11.5" y1="4" x2="11.5" y2="11" gradientUnits="userSpaceOnUse"><stop stop-color="#A78F55"/><stop offset="1" stop-color="#655833"/></linearGradient><linearGradient id="c" x1="6.5" y1="4" x2="6.5" y2="11" gradientUnits="userSpaceOnUse"><stop stop-color="#C1A663"/><stop offset="1" stop-color="#655833"/></linearGradient></defs></svg>