<!-- by TradingView --><svg width="18" height="18" viewBox="0 0 18 18" xmlns="http://www.w3.org/2000/svg"><path fill="#000263" d="M0 0h18v18H0z"/><path d="M8.65 4H4v4.65h2.15L4 6.5l1.34-1.34a.2.2 0 0 0-.03.11c0 .2.3.27.45.28-.38 0-.61.48-.68.72v1c0 .24.2.44.43.44h.25v-.68h.38c.3 0 .43-.3.45-.45h-.83v-.3c.06-.1.27-.3.64-.3.38 0 .58.2.64.3V7.7h.68V6.27c0-.18-.21-.4-.32-.5.1-.04.32-.18.32-.44 0-.06-.02-.1-.03-.14l.96.96V4ZM6.5 4l1.01 1.01a.52.52 0 0 0-.17-.05H6c-.21 0-.44.03-.57.12L6.5 4ZM4 9.35V14h2.5L4 11.5l2.15-2.15H4ZM6.5 14h2.15v-2.15L6.5 14Zm2.85 0h2.15l-2.15-2.15V14Zm2.15 0H14v-2.5L11.5 14Zm2.5-2.5V9.35h-2.15L14 11.5Zm0-2.85V6.5l-2.15 2.15H14Zm0-2.15V4H9.35v2.15L11.5 4 14 6.5ZM8.65 8.65h-1.8l1.8-1.8v1.8Zm-1.8.7h1.8v1.8l-1.8-1.8Zm4.3 0h-1.8v1.8l1.8-1.8Zm-1.8-2.5v1.8h1.8l-1.8-1.8Zm2.73-.66.39-.54a2.3 2.3 0 0 0-1.11-.26c-.69 0-1.18.3-1.18.67 0 .37.51.62.92.72l.34.06c.2.04.32.06.32.15 0 .14-.05.28-.53.28-.39 0-.61-.18-.67-.28l-.38.41c.13.12.53.37 1.05.37.64 0 1.24-.42 1.24-.78 0-.35-.4-.54-.89-.6-.48-.06-.69-.17-.69-.3 0-.13.2-.23.47-.23.27 0 .46.13.72.33Zm.39 4.35-.4.53c-.25-.2-.44-.32-.71-.32-.28 0-.46.1-.46.23s.2.24.68.3c.48.05.89.24.89.6s-.6.77-1.24.77c-.52 0-.92-.24-1.05-.36l.38-.41c.06.1.28.28.67.28.48 0 .53-.14.53-.28 0-.1-.12-.12-.32-.15l-.34-.07c-.4-.1-.92-.35-.92-.72s.5-.67 1.18-.67c.54 0 .96.18 1.1.27ZM5.3 12.57V10.6c.17-.11.63-.35 1.16-.35.52 0 1 .36 1.19.54v1.8h-.66v-1.54c-.04-.08-.23-.26-.59-.26s-.46.1-.46.15v1.64H5.3Z" fill="#fff"/></svg>