<!-- by TradingView --><svg width="18" height="18" viewBox="0 0 18 18" xmlns="http://www.w3.org/2000/svg"><path fill="#004A92" d="M0 0h18v18H0z"/><path d="M8.82 14.64v-1.76a3.6 3.6 0 0 0 .36 0v1.76a5.64 5.64 0 0 0 4.49-2.46h-.79c-.12 0-.35-.07-.35-.36v-1.4h-.35v-.18h.35c.5-.23.71-.45 1.06-.89v.89h.7v.17h-.7v1.41c0 .05.02.17.12.3.56-.85.9-1.86.93-2.94h-4.58v-.36h4.58a5.65 5.65 0 0 0-5.46-5.46v1.88a1.2 1.2 0 0 0-.36.26V3.36a5.65 5.65 0 0 0-5.46 5.46H8.6l.01.36H3.36a5.65 5.65 0 0 0 5.46 5.46ZM8.6 8.82h.22V5.5c-.2.22-.35.55-.35 1.03 0 .34.03.8.07 1.33l.06.96Zm.58-3.58v3.58h.88v-2.3c0-.34.28-1.05 1.41-1.05s1.53.24 1.59.35V5.3a5.84 5.84 0 0 0-1.59-.17H9.71c-.15 0-.34.03-.53.12Zm.88 3.94v2.64c0 .49-.3.97-.88 1.05v-3.7h.88Zm-1.45 0h.21v3.7c-.7-.04-2.25-.24-3-.35l-.35-.7c.59.23 1.94.6 2.65.17.5-.3.54-1.54.5-2.82ZM15 9A6 6 0 1 1 3 9a6 6 0 0 1 12 0Zm-3.18 1.41v1.41c0 .06.04.22.18.36h-.88c-.12 0-.36-.07-.36-.36v-1.4h1.06Zm0-.7c0 .2-.23.35-.53.35-.29 0-.53-.16-.53-.35 0-.2.24-.36.53-.36.3 0 .53.16.53.36Z" fill="#FDFFFA"/></svg>