<!-- by TradingView --><svg width="18" height="18" viewBox="0 0 18 18" xmlns="http://www.w3.org/2000/svg"><path fill="#F0F3FA" d="M0 0h18v18H0z"/><path d="M12.6 8.56c0 .26.07.4.36.4.6 0 1.21-.23 1.82-.36.12-.03.18.02.2.14.06.33-.03.91-.4 1.04a1.5 1.5 0 0 1-.36.06l-1.1.11c-.59.08-1.03.32-1.47.7A6.66 6.66 0 0 1 8.39 12c-.09.01-.14-.03-.16-.12v-.02c-.03-.09 0-.14.09-.16.24-.04.48-.1.7-.15 1.23-.3 2.81-1.5 2.41-3.01-.27-1.04-1.98-.77-2.7-.67-.44.05-.64-.19-.63-.48a.8.8 0 0 1 .24-.52c.32-.32.68-.51 1.1-.57.3-.05.51.12.72.32.26.25.45.02.57-.21.16-.32.21-.69.14-.99-.02-.06.03-.11.08-.12 1.34 0 2.62-.05 3.93-.3.03 0 .06.03.05.07l-.4.9a.25.25 0 0 1-.22.16c-.36 0-2.01.09-2.01.57 0 .89 2 .28 2.38.2.26-.06.35.04.26.3l-.12.3c-.1.28-.29.42-.58.43-.42 0-1.64-.07-1.64.63ZM9.56 5.43c-.64.15-1.27.45-1.79.78-.07.04-.13-.07-.14-.1l-.13-.74c0-.03.01-.06.06-.06.71 0 1.38-.02 1.96.02.07 0 .12.08.04.1ZM4.26 6.57A6.4 6.4 0 0 1 7.18 5.3c.07-.02.15.03.16.1l.16.83a.19.19 0 0 1-.06.18 2 2 0 0 0-.59.9.16.16 0 0 1-.17.11c-.81-.14-1.6-.37-2.4-.7-.1-.04-.1-.1-.02-.16ZM4.01 6.9c.81.37 1.68.65 2.6.82.07.02.14.02.28.12l.04.3c0 .04.02.07.04.1l.1.11a.08.08 0 0 1-.05.15c-1.32-.04-2.82.13-3.94.3A.08.08 0 0 1 3 8.72a2.11 2.11 0 0 1 .97-1.83.1.1 0 0 1 .04 0ZM3 9.1c.07-.32 4.41-.49 4.9-.44.08 0 .15.07.15.16l.05.57c0 .07-.04.14-.11.15-1.19.23-2.25.8-3.2 1.74-.13.12-.3.15-.45.05-.67-.43-1.4-1.35-1.34-2.24Z" fill="#053779"/><path d="m10.07 9.57-1.54-.04c-.07 0-.13-.08-.13-.18v-.52c.01-.1.07-.18.14-.18l1.37.09c.04 0 .09.04.1.1l.18.46c.04.12-.03.27-.12.27ZM9.51 10.53l-.82.25a.18.18 0 0 1-.22-.16L8.4 9.9c0-.1.07-.19.17-.18h1.46c.16 0 .23.2.11.3l-.57.49a.17.17 0 0 1-.06.03ZM6.88 11.6c.3.12.8.08 1.12.06.07 0 .1.04.1.11 0 .08 0 .19-.1.2L6.69 12a3.8 3.8 0 0 1-1.86-.42c-.04-.03-.04-.06 0-.1l.7-.55c.7-.54 1.48-.9 2.35-1.06.08-.01.15.06.15.14-.01.26 0 .5.05.73.05.29-.8-.34-.83-.36-.1-.1-.24-.07-.3.06-.13.33-.19.67-.17 1.03 0 .06.04.12.1.14ZM9 13.9c-.08-1.8 3.21-2.66 4.73-2.9.1-.01.18.03.27.05-.1 0-.2.02-.3.05-1.19.37-3.32 1.09-3.67 2.24-.11.35-.46.53-.85.65a.14.14 0 0 1-.09 0c-.06-.02-.09-.05-.09-.1Z" fill="#053779"/></svg>