<!-- by TradingView --><svg width="18" height="18" viewBox="0 0 18 18" xmlns="http://www.w3.org/2000/svg"><path fill="#F0F3FA" d="M0 0h18v18H0z"/><path d="M4 8.41c0 .81.46 1.4.68 1.59a3.3 3.3 0 0 1-.22-1.18c0-1.13.91-1.52 1.37-1.52h2.43v.49c0 .28.47.42.68.23l1.96-1.77a.3.3 0 0 0 0-.44L8.94 4.1c-.22-.2-.68-.05-.68.23v.28H7.12c-1.35 0-1.78 1.33-1.78 1.66.69-.85 1.36-1.1 1.6-1.06H8.8c.21 0 .34-.05.37-.11l.95.97-.95.88-.22-.24H6C4.7 6.7 4 7.4 4 8.41Z" fill="#E82D21"/><path d="M10.96 13.74c.7-.42.98-1.12 1.04-1.4-.11.14-.44.51-.9.8-.3.17-.55.24-.78.23-.53 0-.9-.4-1.04-.66L8.1 10.55l.32-.2c.24-.14.2-.52-.07-.6l-2.4-.74c-.17-.05-.34.06-.38.24l-.56 2.56c-.06.28.22.5.46.36l.3-.18.57 1.06c.62 1.14 1.9.8 2.17.64-1.03-.14-1.45-.6-1.52-.84l-.85-1.56c-.1-.19-.26-.23-.33-.23l.34-1.27 1.18.34-.03.27 1.36 2.5c.59 1.1 1.44 1.37 2.3.84Z" fill="#FA5824"/><path d="M12 5.3c-.71-.4-1.43-.32-1.7-.23.18.02.66.14 1.13.4.97.54.78 1.4.57 1.75l-1.2 2-.32-.18c-.25-.13-.54.08-.47.34l.61 2.4a.3.3 0 0 0 .39.2l2.41-.7a.3.3 0 0 0 .07-.56l-.3-.17.59-.98c.63-1.06-.27-2.02-.55-2.17.42.95.2 1.54.05 1.71l-.86 1.45c-.1.17-.06.33-.03.38l-1.23.3-.31-1.16.24-.1 1.39-2.32c.6-1.02.4-1.87-.49-2.36Z" fill="#FF8126"/></svg>