<!-- by TradingView --><svg width="18" height="18" viewBox="0 0 18 18" xmlns="http://www.w3.org/2000/svg"><path fill="#F0F3FA" d="M0 0h18v18H0z"/><path d="M8.03 8.98c.7.64.71 1.3.63 1.55 0 .01.08.04.36 0 .3-.04.57-.21.67-.29A5.39 5.39 0 0 0 11 6.86C11 4.88 9.85 4 8.57 4a2.4 2.4 0 0 0-2.31 2.37c0 1.23.9 1.8 1.77 2.6Z" fill="url(#a)"/><path d="M7.18 10.08c.7.48 1.3.49 1.53.43l-.14.57c-.34.3-1.34.92-2.7.92-1.35 0-1.8-.85-1.87-1.28 0-1.12.72-1.46 1.4-1.46.68 0 .92.23 1.78.82Z" fill="url(#b)"/><path d="M7.8 11.56c.2-.1.65-.46.85-1.04.25-.01.8-.09 1.07-.32a5.89 5.89 0 0 1-1.92 1.36Z" fill="#8339CA"/><path d="M11.1 10c.34 0 .62.12.72.18l-.16.6c-.57-.33-.98-.1-.98.14 0 .24.3.35.38.38.07.03.88.24.88 1 0 .75-.63 1.02-1.1 1.02-.39 0-.72-.15-.84-.22l.15-.6c.12.06.41.2.68.2.6 0 .54-.48.32-.62-.22-.15-1.1-.28-1.1-1.06S10.68 10 11.1 10Z"/><path d="M12.32 12.83v-2.8H13v2.73c0 .85-.7 1.18-1.05 1.24l-.18-.57c.4-.06.53-.43.55-.6Z"/><defs><linearGradient id="a" x1="8.63" y1="4" x2="9.39" y2="10.2" gradientUnits="userSpaceOnUse"><stop stop-color="#8B9CF6"/><stop offset="1" stop-color="#634CDA"/></linearGradient><linearGradient id="b" x1="4.07" y1="10.76" x2="8.28" y2="10.93" gradientUnits="userSpaceOnUse"><stop stop-color="#FBD6F7"/><stop offset="1" stop-color="#F260CD"/></linearGradient></defs></svg>