<!-- by TradingView --><svg width="18" height="18" viewBox="0 0 18 18" xmlns="http://www.w3.org/2000/svg"><path fill="#F0F3FA" d="M0 0h18v18H0z"/><path fill-rule="evenodd" d="M15 9A6 6 0 1 1 3 9a6 6 0 0 1 12 0Zm-1 0a5 5 0 1 1-5-5v1.38a8.77 8.77 0 0 0-2.38-.13c.97.79 2.33 2.91 0 5.1.55-.19 1.83-.58 2.38-.58v.97l-.55.27H6.23v-.4l-.9-.84v-1.2c0-.1-.13-.3-.33-.3-.24 0-.43.12-.43.26 0 .1.3.24.43.3.01.23 0 .73-.11.86-.1.14-.1.57-.08.76.07.33.24.76.53 1.19.26-.06.62-.11 1.01-.11.38 0 .58.07.77.14h.01c.2.06.38.13.76.13s.54-.05.66-.1l.04-.02.18-.06a1.71 1.71 0 0 1 .9.06l.04.02a2.22 2.22 0 0 0 1.41-.03c.19-.07.38-.14.77-.14.33 0 .6.03.8.08.29-.42.47-.84.56-1.16.01-.12.01-.44-.1-.79-.16-.43-.2-1.1.1-1.1.23 0 .31-.19.32-.28a.41.41 0 0 0-.43-.38c-.4 0-.49.41-.49.67v1.2l-.65.59V11H9.32V9.77c.25.13.8.52.42 1.04l.09-.07c.4-.28 2.04-1.44 2.1-2.76-.05-.75-.68-2-2.6-2.52v-.78c.1-.02.33-.04.33.07 0 .14.22.31.54.31.19 0 .22.12.25.21.02.08.04.14.12.14.15 0 .56.05.75.08-.18-.18-.32-.2-.42-.2-.1-.01-.15-.02-.15-.23 0-.25-.24-.3-.43-.34-.1-.02-.19-.04-.19-.1 0-.13-.14-.3-.55-.3-.26 0-.26-.06-.26-.12v-.19A5 5 0 0 1 14 9Zm-7.96 3.45c.66.59 1.61 1.05 2.93 1.05s2.29-.47 2.98-1.07h-.06c-.36 0-.52.07-.69.13a2.43 2.43 0 0 1-1.55.03l-.04-.01c-.16-.05-.29-.09-.51-.09a1.07 1.07 0 0 0-.43.08l-.04.02c-.15.06-.34.11-.74.11-.41 0-.62-.07-.82-.14h-.02a1.84 1.84 0 0 0-.7-.13c-.1 0-.21 0-.31.02Zm-.2-.19.51-.02c.38 0 .58.07.77.13h.01c.2.07.38.14.76.14s.54-.06.66-.1l.04-.02.18-.06c.09-.02.19-.04.33-.04.26 0 .41.05.57.1l.04.01a2.22 2.22 0 0 0 1.41-.02c.19-.07.38-.14.77-.14h.26c.15-.15.29-.3.4-.45a3.6 3.6 0 0 0-.66-.06c-.36 0-.52.06-.69.12-.18.07-.37.15-.76.15-.4 0-.6-.06-.79-.11l-.04-.02a1.51 1.51 0 0 0-.79-.06l-.15.06-.04.01c-.15.06-.34.12-.74.12-.41 0-.62-.07-.82-.14h-.02a1.84 1.84 0 0 0-.7-.13c-.33 0-.64.04-.88.09.1.15.24.3.38.44Z" fill="#ED1B2F"/></svg>