<!-- by TradingView --><svg width="18" height="18" viewBox="0 0 18 18" xmlns="http://www.w3.org/2000/svg"><path fill="#F0F3FA" d="M0 0h18v18H0z"/><path d="M3 9.98C3.05 11.54 4.43 12 5.51 12 6.6 12 8 11.55 8 9.97c0-.51-.16-.9-.47-1.2a2.86 2.86 0 0 0-1.5-.57l-.66-.1c-.35-.05-.52-.18-.52-.38 0-.25.22-.38.66-.38.49 0 .7.17.74.55h1.6C7.75 6.63 6.95 6 5.45 6c-1.03 0-2.32.37-2.32 1.88 0 1.15.84 1.67 1.7 1.8l.65.1h.07c.25.04.7.1.7.46 0 .27-.23.4-.7.4-.28 0-.48-.05-.61-.15-.14-.1-.21-.26-.23-.51H3ZM15 6h-2.49l-.5 3-.52-3H9v6h1.5V8.06l.85 3.94h1.31l.84-4v4H15V6Z" fill="#E52029"/></svg>