<!-- by TradingView --><svg width="18" height="18" viewBox="0 0 18 18" xmlns="http://www.w3.org/2000/svg"><path fill="#F0F3FA" d="M0 0h18v18H0z"/><path d="M4.67 7.5c0-.6.46-.92 1-.92 1.21.1 1.89.38 2.33.66V6.5A5.76 5.76 0 0 0 5.53 6C4.5 6 3 6.43 3 7.56c0 2.06 3.33 1.27 3.33 2.88 0 .71-.53.96-1.17.96-.78.03-1.5-.01-2.16-.4l.12.73c.76.19 1.49.25 2.19.27C6.48 12 8 11.51 8 10.26 8 8.32 4.67 9 4.67 7.5ZM12.06 6A2.91 2.91 0 0 0 9 9c.07 1.8 1.24 3 3.06 3 1.8 0 2.94-1.14 2.94-3 0-1.84-1.17-3-2.94-3ZM12 11.29c-1.2 0-1.5-1.16-1.5-2.28 0-1.1.48-2.3 1.5-2.3S13.5 7.89 13.5 9c0 1.13-.3 2.29-1.5 2.29Z"/></svg>