<!-- by TradingView --><svg width="18" height="18" fill="none" xmlns="http://www.w3.org/2000/svg"><path fill="url(#a)" d="M0 0h18v18H0z"/><path fill-rule="evenodd" clip-rule="evenodd" d="M4 12c.134 0 2.099 1 5 1 1.466 0 3.181.009 5-1-.067.09-1.532 2-5 2-2.124 0-3.71-.726-5-2ZM9 7h1v4H9V7ZM9 5h1v1H9V5ZM11 6v4.118s-.04.882.75.882H13v-1h-.599s-.4.03-.4-.39V7.5H13v-1h-1l-.25-.5H11ZM5 11h1V8h2V7H6s0-1 1-1c.225 0 .67.022 1 .143V5.142C8 5.106 7.673 5 7 5c-1 0-2 .5-2 1.5V11Z" fill="#F4BF01"/><defs><linearGradient id="a" x1="9" y1="0" x2="9" y2="18" gradientUnits="userSpaceOnUse"><stop stop-color="#181B1E"/><stop offset="1" stop-color="#181B1E"/></linearGradient></defs></svg>