<!-- by TradingView --><svg width="18" height="18" viewBox="0 0 18 18" xmlns="http://www.w3.org/2000/svg"><path fill="#181B1E" d="M0 0h18v18H0z"/><path d="M7.23 6.27a1.01 1.01 0 0 0-1.4.02L3.41 8.67c-.55.53-.55 1.4 0 1.93.54.53 1.43.53 1.97 0l2.47-2.42c.1-.13.4-.29.64-.29.19 0 .42.06.51.1L7.23 6.25v.01ZM12.23 6.27a1.01 1.01 0 0 0-1.4.02L8.41 8.67c-.55.53-.55 1.4 0 1.93.54.53 1.43.53 1.97 0l2.47-2.42c.1-.13.4-.29.64-.29.19 0 .42.06.51.1l-1.77-1.73v.01ZM12 10.4c.29.36.8.6 1.37.6.9 0 1.63-.58 1.63-1.3 0-.1-.02-.22-.05-.33-.17-.5-.98-.46-1.45-.1L12 10.4Z" fill="#FD9F2E"/></svg>