<!-- by TradingView --><svg width="18" height="18" viewBox="0 0 18 18" xmlns="http://www.w3.org/2000/svg"><path fill="#F0F3FA" d="M0 0h18v18H0z"/><path d="M7.53 10.31c-.7 1.1-1.03 1.36-1.5 1.36-.46-.01-1.18-.9-1.18-.9L4 9.7V6.06A2.07 2.07 0 0 1 6.06 4h5.88A2.07 2.07 0 0 1 14 6.06v1.6L12.4 5.51c-.69-1.07-1-1-1-1-.35.02-1.22 1.54-1.22 1.54l-2.66 4.26ZM9.3 9.23c.65-.95 1.3-1.9 2.22-1.99C12.54 7.14 14 9 14 9v2.94A2.07 2.07 0 0 1 11.94 14H6.06a2.07 2.07 0 0 1-2.05-2.07v-1.37l1.5 2.35s.3.59.6.6c.29.03.53-.3.53-.3l2.45-3.68.21-.3Z" fill="#F36F22"/></svg>