<!-- by TradingView --><svg width="18" height="18" viewBox="0 0 18 18" xmlns="http://www.w3.org/2000/svg"><path fill="url(#arydurqnt)" d="M0 0h18v18H0z"/><path d="M4 5h10v8H4V5Z" fill="#FDEC20"/><path d="M9.62 6c-.12-.01-.41.04-.7.4-.27.34-.36.65-.37.76-.03.13 0 .38.33.38.42 0 1-.91 1-1.22 0-.32-.1-.33-.26-.32Zm.65 4.7c.17-.15.4-.38.64-.64v1.07c-.36.4-.94.87-1.52.87-.5 0-.81-.6-1.06-1.08-.2-.4-.37-.73-.57-.55-.35.32-.48.46-.5.49-.12-.18-.29-.6-.07-.86l.93-1.1c.11-.13.4-.4.6-.4.26 0 .37.24.51.87l.07.32c.13.68.3 1.61.97 1.01Z"/><defs><linearGradient id="arydurqnt" x1="3.35" y1="3.12" x2="21.9" y2="24.43" gradientUnits="userSpaceOnUse"><stop stop-color="#1A1E21"/><stop offset="1" stop-color="#06060A"/></linearGradient></defs></svg>