<!-- by TradingView --><svg width="18" height="18" viewBox="0 0 18 18" xmlns="http://www.w3.org/2000/svg"><path fill="#F0F3FA" d="M0 0h18v18H0z"/><path d="M11.4 4v3.3h-.25a4.25 4.25 0 0 0-.43-1.5c-.2-.38-.5-.68-.88-.9a2.34 2.34 0 0 0-1.18-.34c-.79 0-1.46.6-1.46 1.47 0 1.12 1.34 1.77 2.11 2.2 1.2.7 2.69 1.47 2.69 3.11 0 1.6-1.4 2.66-2.84 2.66-.85 0-1.7-.54-2.5-.54-.12 0-.2.03-.27.1s-.11.22-.14.44H6v-3.28h.25c.11.69.27 1.2.46 1.55.45.78 1.46 1.18 2.3 1.18.88 0 1.79-.56 1.79-1.57 0-1.2-1.3-1.77-2.16-2.27C7.5 8.9 6 8.1 6 6.5 6 5.03 7.28 4 8.64 4c.48 0 1 .12 1.53.37.25.12.42.18.52.18.12 0 .21-.04.28-.1.08-.08.14-.23.18-.45h.25Z" fill="url(#afx2wi1qy)"/><defs><linearGradient id="afx2wi1qy" x1="9" y1="4" x2="9" y2="14" gradientUnits="userSpaceOnUse"><stop stop-color="#F52C03"/><stop offset="1" stop-color="#D60404"/></linearGradient></defs></svg>