<!-- by TradingView --><svg width="18" height="18" viewBox="0 0 18 18" xmlns="http://www.w3.org/2000/svg"><path fill="#002D5A" d="M0 0h18v18H0z"/><path d="M11.42 7.31h-.26a4.66 4.66 0 0 0-.44-1.52c-.2-.36-.49-.67-.9-.88a2.43 2.43 0 0 0-1.18-.33c-.47 0-.84.15-1.16.45-.3.3-.47.64-.47 1 0 .31.1.55.3.8.28.36.92.82 1.97 1.4.84.48 1.42.85 1.73 1.09.32.24.56.55.73.91a2.54 2.54 0 0 1-.55 2.98c-.52.52-1.22.79-2.06.79-.26 0-.52-.03-.75-.06-.15-.03-.44-.12-.87-.24a3.32 3.32 0 0 0-.84-.22c-.12 0-.2.03-.26.1-.06.06-.12.2-.15.42H6v-3.28h.32c.11.7.26 1.18.46 1.55.2.33.5.64.9.85.4.21.84.33 1.33.33.56 0 1.02-.15 1.34-.45a1.47 1.47 0 0 0 .32-1.8 2.04 2.04 0 0 0-.58-.66c-.18-.16-.64-.43-1.42-.92-.79-.45-1.34-.82-1.66-1.1a3.13 3.13 0 0 1-.75-.9C6.1 7.28 6 6.92 6 6.52c0-.7.26-1.27.75-1.76a2.6 2.6 0 0 1 1.92-.73c.49 0 .98.12 1.53.37.26.12.44.18.52.18.12 0 .2-.03.3-.12.08-.06.14-.25.17-.46h.23v3.31Z" fill="#fff"/></svg>