<!-- by TradingView --><svg width="18" height="18" viewBox="0 0 18 18" fill="none" xmlns="http://www.w3.org/2000/svg">
<rect width="18" height="18" fill="#F0F3FA"/>
<path d="M8.99999 2L15 13H3L8.99999 2Z" fill="#014685"/>
<path d="M9 4L13.5 12H4.5L9 4Z" fill="#7ECB41"/>
<path fill-rule="evenodd" clip-rule="evenodd" d="M7 9.19942C7 9.8441 7.24592 10.4546 7.53644 11L11.7499 5C10.8258 5 9.97812 5.11579 9.23956 5.53125C7.91831 6.2745 7 7.71731 7 9.19942Z" fill="#014685"/>
<path fill-rule="evenodd" clip-rule="evenodd" d="M8.40632 13.625C7.77426 13.9127 6.94342 13.9999 6.30006 14L10.6563 8C10.912 8.56034 11.0001 9.13137 11.0001 9.70957C11.0001 11.3682 10.0684 12.8684 8.40632 13.625Z" fill="#014685"/>
</svg>
