<!-- by TradingView --><svg width="18" height="18" viewBox="0 0 18 18" xmlns="http://www.w3.org/2000/svg"><path fill="url(#a2atgbe0x)" d="M0 0h18v18H0z"/><path d="M11 6v1.5H8.6v.75h1.6c.64 0 .8.5.8.75v2.25c0 .6-.53.75-.8.75H7v-1.5h2.4v-.75H7.8c-.64 0-.8-.5-.8-.75V6.75c0-.6.53-.75.8-.75H11Z" fill="url(#b2atgbe0x)"/><path fill-rule="evenodd" d="M13.5 5.5h-9v7h9v-7ZM4 5v8h10V5H4Z" fill="url(#c2atgbe0x)"/><defs><linearGradient id="a2atgbe0x" x1="3.35" y1="3.12" x2="21.9" y2="24.43" gradientUnits="userSpaceOnUse"><stop stop-color="#1A1E21"/><stop offset="1" stop-color="#06060A"/></linearGradient><linearGradient id="b2atgbe0x" x1="7.4" y1="6" x2="9.54" y2="12.09" gradientUnits="userSpaceOnUse"><stop offset=".03" stop-color="#987130"/><stop offset="1" stop-color="#A4834E"/></linearGradient><linearGradient id="c2atgbe0x" x1="4.25" y1="9" x2="13.75" y2="9" gradientUnits="userSpaceOnUse"><stop stop-color="#8B6F4D"/><stop offset=".54" stop-color="#F3E9A7"/><stop offset="1" stop-color="#9E713A"/></linearGradient></defs></svg>