<!-- by TradingView --><svg width="18" height="18" viewBox="0 0 18 18" xmlns="http://www.w3.org/2000/svg"><path fill="#F0F3FA" d="M0 0h18v18H0z"/><path fill-rule="evenodd" d="M6 8.33H4V6.2C4 4.98 5.04 4 6.31 4h2.02v3.07c.18.84 1.11 2.36 2.82 2.6H14v2.13c0 1.22-1.04 2.2-2.31 2.2H9.67V11.11a3.58 3.58 0 0 0-2.73-2.78H6ZM10 12v1.67h1.69c1.1 0 1.98-.85 1.98-1.87V10H12v1.58c0 .23-.2.42-.45.42H10ZM6 8H4.33V6.2c0-1.02.87-1.87 1.98-1.87H8V6H6.45C6.2 6 6 6.19 6 6.42V8Zm6 .33h2V6.2C14 4.98 12.96 4 11.69 4H9.67v2.65c0 .93.8 1.68 1.8 1.68H12ZM13.67 8H12V6.42c0-.23-.2-.42-.45-.42H10V4.33h1.69c1.1 0 1.98.85 1.98 1.87V8ZM6 11.58V10H4.33v1.8c0 1.02.87 1.87 1.98 1.87H8V12H6.45c-.25 0-.45-.19-.45-.42Zm.4-1.91h.13c1 0 1.8.75 1.8 1.68V14H6.31A2.26 2.26 0 0 1 4 11.8V9.67h2.4Z" fill="#1E429A"/></svg>