<!-- by TradingView --><svg width="18" height="18" viewBox="0 0 18 18" xmlns="http://www.w3.org/2000/svg"><path fill="#F0F3FA" d="M0 0h18v18H0z"/><path fill="#D9D9D9" d="M3 5h12v1H3zM3 12h12v1H3z"/><path d="M5.28 9.88c-.62-.11-1.96-.75-1.96-1.99.02-.46.4-1.39 1.7-1.39 1.3 0 1.62.99 1.63 1.5h-1.2c-.01-.16-.1-.42-.43-.42-.4 0-.43.35-.43.46 0 .11.6.67 1.41.87l-.72.97ZM3 9.63c-.03.48.16 1.5 1.13 1.8l.57-.92a1 1 0 0 1-.48-.88H3ZM7.9 6.5l-3.3 5h1.5L8 8.82v2.68h1.16L11 8.82v2.68h1V8.06h-1.2v-1.1L9 9.29V6.5H7.9Zm4.6 1.25H11V6.5h4v1.25h-1.5v3.73h-1V7.75Z" fill="#0C4DA2"/></svg>