<!-- by TradingView --><svg width="18" height="18" viewBox="0 0 18 18" xmlns="http://www.w3.org/2000/svg"><path fill="#F0F3FA" d="M0 0h18v18H0z"/><path d="M8.9 3a6 6 0 0 0-4.22 10.17A5.57 5.57 0 0 0 8.42 15c.48-.34.58-1.44.58-2.18 0-1.53-.55-3.72-3-4.7A3.97 3.97 0 0 1 8.9 7c2.83 0 4.5 3.2 5.38 3.85.13.1.25.15.3.15.29-.65.43-1.4.42-2.1A6 6 0 0 0 8.9 3Z" fill="url(#aohz2vnil)"/><path d="M8.74 8.77a.87.87 0 0 0 .9.86.87.87 0 0 0 .59-1.5.88.88 0 0 0-.62-.26.9.9 0 0 0-.87.9Z" fill="#F9841D"/><defs><linearGradient id="aohz2vnil" x1="16.5" y1="9" x2="-6.25" y2="9" gradientUnits="userSpaceOnUse"><stop offset=".1" stop-color="#EE0E18"/><stop offset=".55" stop-color="#FCA71F"/><stop offset=".63" stop-color="#FFCE20"/></linearGradient></defs></svg>