<!-- by TradingView --><svg width="18" height="18" viewBox="0 0 18 18" xmlns="http://www.w3.org/2000/svg"><path fill="#F0F3FA" d="M0 0h18v18H0z"/><path d="M4 10.07v2.22c0 .57.44.71.67.71H14v-1.5c-.17 0-.33.54-1 .54-.67 0-1.17-1.08-1.5-1.08-.33 0-.67.18-1.17.18-.5 0-1.16-1.07-1.66-1.07s-.5.72-1.34.72c-.83 0-1.5-1.61-2.16-1.61-.54 0-1 .6-1.17.9Z" fill="#185633"/><path d="M10.5 9.36c-.27 0-.78.47-1 .71.28.24.67.72 1 .72.24 0 .67-.18 1.17-.18.5 0 1.16 1.25 1.5 1.25.33 0 .5-.72.83-.72V9.36a.72.72 0 0 0-.5-.18c-.33 0-1.33.9-1.83.9s-.84-.72-1.17-.72Z" fill="#185633"/><path d="M11.68 9.9c.2-.5.32-1.04.32-1.61 0-2.17-1.64-3.93-3.67-3.93-2.02 0-3.66 1.76-3.66 3.93 0 .25.02.5.06.73a1.7 1.7 0 0 0-.32.11 4.6 4.6 0 0 1-.08-.84c0-2.37 1.8-4.29 4-4.29 2.21 0 4 1.92 4 4.29 0 .51-.08 1-.24 1.46-.12.06-.3.14-.41.14Z" fill="#F18C20"/><path d="M11.12 9.49c.14-.37.21-.78.21-1.2 0-1.78-1.34-3.22-3-3.22-1.65 0-3 1.44-3 3.22 0 .23.03.45.07.66-.12 0-.23 0-.34.02A3.84 3.84 0 0 1 5 8.29C5 6.3 6.5 4.7 8.33 4.7c1.84 0 3.34 1.6 3.34 3.58 0 .5-.1.99-.28 1.43l-.2-.16-.07-.07Z" fill="#F18C20"/><path d="M10.84 9.27c.1-.3.16-.64.16-.98 0-1.58-1.2-2.86-2.67-2.86S5.67 6.7 5.67 8.29c0 .25.03.5.09.74.34.14.67.53.96.86.25.29.46.54.61.54.17 0 .42-.14.67-.27.25-.13.5-.27.67-.27.26 0 .44.12.5.18.27-.36.9-1.07 1.16-1.07.12 0 .31.12.5.27Z" fill="#F18C20"/></svg>