<!-- by TradingView --><svg width="18" height="18" viewBox="0 0 18 18" xmlns="http://www.w3.org/2000/svg"><path fill="url(#amnifzxnj)" d="M0 0h18v18H0z"/><path d="M10 3.3c.53 1.02.22 1.84-.76 1.97-.21.03-.24.05-.26.18-.04.17.14 1 .36 1.7.32 1.04.28 1.3-.36 2.19-.39.54-.49.7-.64 1.04-.07.14-.07.14-.1.03-.1-.3 0-.6.46-1.47.36-.66.44-.98.36-1.42-.12-.65-.25-1.3-.28-1.34a2.6 2.6 0 0 1-.04-.52c0-.42-.02-.49-.12-.63-.27-.36-.12-.75.43-1.08l.28-.2a.84.84 0 0 1 .2-.13c.09 0 .25-.35.22-.5-.04-.22.07-.13.24.19Zm1.97 2.12c.04.03.04.06.01.06-.06 0-.25.38-.3.6-.2.9-.69 1.44-1.3 1.44-.66 0-.8-.52-.28-1.07.26-.28.27-.3.14-.23-.18.08-.45.36-.58.58-.14.25-.18.26-.23.09-.3-.96.47-1.56 1.93-1.54.35.01.57.04.61.07Zm-4.5.75c.3.11.55.23.64.29l.21.16c.42.3.55.83.32 1.26-.13.23-.21.24-.25.01a1.76 1.76 0 0 0-.5-.78c-.26-.26-.27-.23-.03.17.37.62.3 1.17-.16 1.17-.52 0-.86-.35-1.14-1.18A4.67 4.67 0 0 0 6 6.14c-.12-.16 1.01-.13 1.46.03Z" fill="#8DC53E"/><path d="M11.28 7.97c.07.37-.68 1.68-1.3 2.24-.03.03-.06.09-.06.11 0 .15.73-.63 1.03-1.09.2-.3.22-.32.26-.13.06.26-.2.86-.57 1.3a12.6 12.6 0 0 0-.51.67c-.07.09-.07.1 0 .05.14-.07.67-.67.81-.91.16-.28.26-.29.26-.03 0 .22-.17.57-.41.9-.09.12-.15.23-.15.26 0 .02-.04.06-.08.07-.04.02-.08.05-.08.09 0 .03-.04.1-.1.14-.06.04-.1.1-.1.13 0 .1.6-.53.76-.81.12-.2.18-.17.18.07 0 .2-.26.74-.46.99l-.42.5c-.96 1.15-1.21 1.7-1.04 2.27l.04.2a4.29 4.29 0 0 1-1.4-1.2c-.92-.81-1.18-2.83-.5-3.85.34-.52.41-.53.3-.07-.1.46-.06 1.23.09 1.51.22.44.31.46.38.1a3.16 3.16 0 0 1 .62-1.06c.13-.16.4-.46.63-.67A8.37 8.37 0 0 0 11 8.05c0-.04.17-.25.21-.25.02 0 .06.08.08.17Z" fill="#CD9538"/><defs><linearGradient id="amnifzxnj" x1="3.35" y1="3.12" x2="21.9" y2="24.43" gradientUnits="userSpaceOnUse"><stop stop-color="#1A1E21"/><stop offset="1" stop-color="#06060A"/></linearGradient></defs></svg>