<!-- by TradingView --><svg width="18" height="18" viewBox="0 0 18 18" xmlns="http://www.w3.org/2000/svg"><path fill="#F0F3FA" d="M0 0h18v18H0z"/><path fill-rule="evenodd" d="M9.62 14.89v-.01a.05.05 0 0 1 0-.05.71.71 0 0 0 .07-.3 95.3 95.3 0 0 1 .03-1l.02.06-.05.93c0 .12-.03.22-.08.3v.06h.01Zm.07-1.37c.03-.02.05-.04.05-.07 0-.02-.02-.03-.04-.04l-.16-.01c-.02 0-.04-.02-.04-.05v-.56c0-.02.01-.03.04-.03h.08c.03.01.05 0 .05-.04v-.03c0-.04 0-.06-.04-.06l-.1-.02c-.03 0-.04-.02-.04-.04l.01-.34c0-.03.01-.04.04-.04l.06.02a.1.1 0 0 0 .06 0c.07 0 .08-.05.03-.13l-.27-.04h-.05a.05.05 0 0 0-.02.05v1.35c0 .05.03.08.08.08h.26Zm-.16-2.55Zm.34 3.97a5.98 5.98 0 0 0 4.86-7.72 5.99 5.99 0 0 0-6.35-4.19.4.4 0 0 1-.12.14.06.06 0 0 0-.03.05c0 .05-.02.11-.05.18l.19-.02c.35-.03.61-.04.77-.03 1.37.03 2.55.5 3.56 1.38.38.34.71.7.99 1.1.29.43.5.88.65 1.34l.04.12a10.47 10.47 0 0 1 .19.7 6.57 6.57 0 0 1-.2 2.82h-.04c-.3-.1-.53-.18-.7-.21a1.4 1.4 0 0 0-.72.02c-.2.07-.39.17-.6.3a9.44 9.44 0 0 1-.78.45c-.34.15-.63.17-.88.07a2.16 2.16 0 0 1-.4-.23 3.28 3.28 0 0 0-.79-.4c-.03 0-.05-.03-.05-.07.01-.12.04-.25.08-.4l.15-.37v-.04a.36.36 0 0 1 .13-.16.06.06 0 0 1 .05 0c.1.02.21.02.36.01.08 0 .2-.03.36-.06h.02c.26-.05.5-.18.75-.39.21-.18.4-.4.54-.64l.57-1c.09-.15.19-.28.32-.4.02-.03.02-.04-.02-.04a5.44 5.44 0 0 0-1.72.14c-.31.09-.58.2-.8.36-.25.17-.44.38-.56.63-.17.36-.25.7-.22 1.02.01.1.04.11.1.03.21-.34.46-.65.75-.92.2-.2.44-.36.69-.48l.03.07c.06-.03.1-.06.13-.11l-.01-.03c.01 0 .02 0 0 .03A6.46 6.46 0 0 0 9.58 9.7c-.14.25-.27.58-.4.99-.05.08-.16.1-.32.04a.04.04 0 0 1-.03-.03 1.48 1.48 0 0 0-.13-.43c-.2-.45-.42-.83-.65-1.13a8.65 8.65 0 0 0-.98-1.03c-.02-.08 0-.1.07-.06.28.17.54.37.77.61a5.23 5.23 0 0 1 .64.81c.06.04.08.03.08-.04a2.9 2.9 0 0 0-.24-1.02 1.67 1.67 0 0 0-.68-.73c-.3-.18-.6-.3-.95-.37-.48-.1-.98-.12-1.5-.07-.02 0-.03.01 0 .03.15.15.26.28.33.41l.56.97a2.02 2.02 0 0 0 1.93 1.11l.14-.03.03.01c.18.31.3.63.36.96 0 .05-.01.09-.06.1a4.83 4.83 0 0 0-.57.27c-.2.14-.37.24-.49.3-.18.08-.36.12-.52.12a1.4 1.4 0 0 1-.38-.07 3.42 3.42 0 0 1-.43-.22 11.41 11.41 0 0 1-.76-.46 1.4 1.4 0 0 0-.81-.18c-.27.02-.54.1-.82.23a.1.1 0 0 1-.09 0 .1.1 0 0 1-.05-.06A5.65 5.65 0 0 1 8.18 3.4a.48.48 0 0 0 .05-.18c0-.02.01-.03.03-.05a.4.4 0 0 0 .12-.14A5.98 5.98 0 0 0 3 9.2a5.93 5.93 0 0 0 2.26 4.5 5.99 5.99 0 0 0 2.42 1.15c.73.17 1.46.2 2.2.09Zm-2.75-.33.01-.03a.1.1 0 0 0 .02-.05l.08-1 .22-.01c.03 0 .05-.03.05-.06 0-.02-.02-.04-.04-.04a.44.44 0 0 0-.15-.02l-.04-.01a.05.05 0 0 1-.01-.04v-.57c0-.02.01-.02.03-.02l.09.01c.03 0 .04 0 .05-.03v-.08a.05.05 0 0 0-.05-.04l-.1-.01c-.02 0-.03-.01-.03-.03v-.35c0-.03.02-.04.05-.03l.08.02c.05 0 .08-.01.1-.06v-.03c0-.03-.01-.04-.04-.05l-.21-.05c-.07 0-.1.02-.1.05l-.03 1.37c0 .06.05.09.13.08l-.08 1a.1.1 0 0 1-.02.05v.03Zm.94-5.26a.05.05 0 0 1 0 0Zm1.28 1.32v.05c0 .02 0 .03.02.05-.02-.02-.02-.03-.01-.05l-.01-.04Zm.04.12.02.01-.02-.01ZM8.9 5.74l.05-.43V5.3v.02l-.05.43-.05-.2-.03.45.03.16.03.17c0 .02 0 .03-.03.01a1.06 1.06 0 0 1-.28-.44.83.83 0 0 1 0-.52c.07-.24.19-.44.34-.6a12.86 12.86 0 0 0 .4-.42l.02.02c.02.29.07.58.13.87.1.43-.03.82-.37 1.15h-.02l-.17-.65Zm1.09.9c-.2.1-.35.22-.46.36l-.2.25c-.06.08-.08.07-.07-.03a1 1 0 0 1 .39-.73c.15-.11.35-.2.6-.24a3 3 0 0 1 .66-.05c.09 0 .1.04.04.1-.12.12-.25.29-.38.5-.13.22-.28.4-.46.52-.22.16-.43.2-.64.16-.04-.01-.05-.04-.03-.08.13-.27.27-.46.43-.57.06-.05.1-.1.14-.17.02-.03.01-.04-.02-.02ZM8 6.68l.01-.02c.01-.01.02-.02.03-.01.12.06.23.14.33.24a3.69 3.69 0 0 1 .29.36c.06.08.09.07.08-.03a.97.97 0 0 0-.76-.9 2.91 2.91 0 0 0-1-.1v.02c.16.15.29.3.38.47.1.2.27.38.48.57.2.18.44.24.72.2.04 0 .05-.03.03-.07a2.9 2.9 0 0 0-.3-.45c-.08-.1-.17-.18-.27-.24C8 6.71 8 6.7 8 6.68Z" fill="url(#ao5getyku)"/><path d="m5.66 13.16-.02-.05a.06.06 0 0 0-.04-.02l-.19-.02c-.03 0-.05.01-.05.05l-.07.33c-.01.04-.04.06-.08.04H5.2c-.04-.02-.06-.06-.05-.1.1-.43.18-.85.26-1.29.02-.17.07-.33.13-.47a.07.07 0 0 1 .07-.05c.03 0 .06.01.07.04.02.05.04.1.05.17.06.6.1 1.13.13 1.6 0 .06-.02.1-.07.11h-.03c-.06.01-.09-.02-.09-.08v-.26ZM10.81 12.6l-.01.1-.15.03c-.02 0-.03.01-.03.03l.05.67v.02c-.03.05-.06.06-.08.05a.12.12 0 0 1-.08-.12l-.05-1.45c0-.03 0-.04.02-.05a.38.38 0 0 1 .22-.03c.03 0 .05.02.06.04v.03c0 .03-.01.04-.04.05l-.1.02c-.02 0-.03.02-.03.04l.03.5c0 .02.02.03.04.03.06 0 .11.02.15.04ZM7.96 12.15a.07.07 0 0 0-.06.07l.08 1.15-.03.06a.1.1 0 0 1-.07.02c-.03 0-.05-.03-.05-.07a12.48 12.48 0 0 0-.1-1.22.13.13 0 0 0-.08-.04.05.05 0 0 1-.05-.04l-.01-.03v-.02l.03-.01h.4l.04.02v.05c0 .02 0 .03-.02.03l-.08.03ZM9.09 12.15a.05.05 0 0 0-.03.02l-.01.04.07 1.15c0 .04-.01.07-.05.08h-.03c-.03 0-.05-.02-.05-.05l-.07-1.19-.03-.04a.14.14 0 0 0-.08-.03c-.04 0-.06-.02-.07-.06v-.04l.02-.01h.4c.02 0 .03 0 .05.02v.04c0 .03-.02.04-.04.05l-.08.02ZM7.23 12.03l.2.05c.04 0 .05.02.05.05v.03c-.02.05-.05.07-.1.05l-.08-.01c-.03-.01-.04 0-.04.03l-.01.35c0 .02 0 .03.03.03l.1.01c.03 0 .04.02.05.04v.08c0 .02-.02.03-.05.03l-.1-.01c-.01 0-.02 0-.02.02v.57l.01.04.04.01c.05 0 .1 0 .15.02.02 0 .04.02.04.04 0 .03-.02.05-.05.06l-.22.01c-.08 0-.13-.02-.13-.08 0-.46.01-.91.03-1.37 0-.03.03-.05.1-.05ZM8.51 13.33l.1.01s.02 0 .02.02l.02.03c0 .02-.01.04-.04.05a.73.73 0 0 1-.35 0c-.03 0-.03-.02-.01-.04l.06-.07a.08.08 0 0 0 .02-.06 9.54 9.54 0 0 1-.01-1.08.08.08 0 0 0-.04-.03l-.09-.03a.05.05 0 0 1-.04-.04c0-.03.02-.05.05-.05.13-.02.25 0 .35.04.02 0 .03.03.04.05 0 .03 0 .04-.03.05l-.06.02c-.02.01-.04.03-.04.06l.01 1.03c0 .02.02.04.04.04ZM9.7 12.08c.04.08.03.12-.04.13a.1.1 0 0 1-.06 0 .23.23 0 0 0-.06-.02c-.03 0-.04.01-.04.04v.34c0 .02 0 .03.03.04l.1.02c.03 0 .05.02.05.06v.03c0 .03-.03.05-.06.05h-.08c-.03-.01-.04 0-.04.02v.56c0 .03.02.04.04.05l.16.01c.02 0 .03.02.04.04 0 .03-.02.05-.05.07h-.26c-.05 0-.08-.03-.08-.08V12.1l.02-.04a.05.05 0 0 1 .05-.01l.27.04ZM12.15 12.85v-.15l-.01-.6c0-.01 0-.03.02-.04a.06.06 0 0 1 .04-.02c.04 0 .07 0 .1.02.24.1.36.29.38.54.01.23 0 .42-.04.57-.05.22-.17.34-.34.35-.11 0-.16-.05-.15-.17v-.5Z"/><path d="M5.6 12.17a4.77 4.77 0 0 1 .04.78.04.04 0 0 1-.04.01l-.17-.02c-.04 0-.05-.03-.04-.06.07-.2.12-.44.15-.71.02-.16.04-.16.07 0Z" fill="#93BD48"/><path d="m6.71 12.9.02.58a.06.06 0 0 1-.06.06l-.06-.01a.09.09 0 0 1-.04-.06.76.76 0 0 1-.02-.2c.01-.39.02-.75.01-1.1 0-.1.05-.14.16-.11l.07.02c.1.02.15.09.16.2v.33a.28.28 0 0 1-.19.22.07.07 0 0 0-.05.07ZM6.16 12.9l.01.6c0 .03-.01.04-.05.04H6.1c-.05 0-.08-.04-.08-.09a7.2 7.2 0 0 1 0-.9v-.35c-.01-.1.03-.15.14-.14.03 0 .05 0 .08.02.1.03.15.1.17.21v.32a.3.3 0 0 1-.2.22.06.06 0 0 0-.05.07Z"/><path d="M6.16 12.2h.01c.03 0 .05 0 .07.03.02.02.03.05.03.08v.26c0 .03-.02.06-.04.08a.08.08 0 0 1-.06.03h-.01v-.48Z" fill="#93BD48"/><path d="M12.3 12.22c.07 0 .12.04.16.14.05.1.07.23.07.37v.12c0 .14-.01.27-.05.37-.05.1-.1.15-.16.15h-.01l-.02-1.15Z" fill="#239D4E"/><path d="m12.14 12.7.01.15c-.16.25-.35.3-.55.17a.26.26 0 0 1-.07-.09.34.34 0 0 0-.04-.07c-.03-.02-.04-.02-.06.01a.33.33 0 0 1-.12.16.35.35 0 0 1-.2.06.28.28 0 0 1-.24-.12.4.4 0 0 1-.07-.28l.01-.09c.03 0 .06 0 .07-.03.1-.1.2-.15.31-.12.05.02.1.04.14.08.05.04.08.1.1.15.04.07.06.07.08 0a.25.25 0 0 1 .12-.16c.2-.13.37-.07.51.18Z" fill="#B68132"/><defs><linearGradient id="ao5getyku" x1="3.3" y1="8.26" x2="15" y2="8.26" gradientUnits="userSpaceOnUse"><stop stop-color="#93BD48"/><stop offset="1" stop-color="#239D4E"/></linearGradient></defs></svg>