<!-- by TradingView --><svg width="18" height="18" viewBox="0 0 18 18" xmlns="http://www.w3.org/2000/svg"><path fill="url(#a)" d="M0 0h18v18H0z"/><path d="M9.18 5.53c.44 0 .8-.34.8-.76a.79.79 0 0 0-.8-.77c-.45 0-.8.34-.8.77 0 .42.35.76.8.76Zm-1.93 1.1c.44 0 .8-.34.8-.77a.79.79 0 0 0-.8-.76c-.45 0-.8.34-.8.76 0 .43.35.77.8.77Zm4.47-.76c0 .33-.28.6-.63.6a.62.62 0 0 1-.63-.6c0-.34.28-.6.63-.6s.63.26.63.6ZM5.31 7.66c.44 0 .8-.35.8-.77a.79.79 0 0 0-.8-.77c-.45 0-.81.35-.81.77 0 .42.36.77.8.77Zm4.5-.78c0 .33-.28.6-.63.6a.62.62 0 0 1-.63-.6c0-.33.28-.6.63-.6s.63.27.63.6Zm3.2.46c.27 0 .49-.2.49-.46a.47.47 0 0 0-.48-.46c-.27 0-.49.2-.49.46 0 .25.22.46.49.46Zm-5.13.62c0 .33-.28.6-.63.6a.62.62 0 0 1-.64-.6c0-.33.29-.6.64-.6.35 0 .63.27.63.6Zm3.2.46c.28 0 .5-.2.5-.46a.47.47 0 0 0-.5-.46c-.26 0-.47.2-.47.46s.21.46.48.46ZM6.12 9c0 .42-.36.77-.8.77A.79.79 0 0 1 4.5 9c0-.42.35-.76.8-.76.44 0 .8.34.8.76Zm3.07.6c.35 0 .63-.27.63-.6 0-.33-.28-.6-.63-.6a.62.62 0 0 0-.63.6c0 .33.28.6.63.6Zm4.17-.6c0 .18-.15.32-.33.32a.33.33 0 0 1-.34-.32c0-.18.15-.32.34-.32.18 0 .33.14.33.32Zm-6.1 1.66c.35 0 .63-.27.63-.6 0-.33-.28-.6-.63-.6a.62.62 0 0 0-.64.6c0 .33.29.6.64.6Zm4.32-.6c0 .25-.21.46-.48.46a.47.47 0 0 1-.49-.46c0-.25.22-.46.49-.46s.48.2.48.46Zm-6.26 1.83c.44 0 .8-.35.8-.77a.79.79 0 0 0-.8-.77c-.45 0-.8.35-.8.77 0 .42.35.77.8.77Zm4.5-.77c0 .33-.28.6-.63.6a.62.62 0 0 1-.63-.6c0-.34.28-.6.63-.6s.63.26.63.6Zm3.2.46c.27 0 .49-.2.49-.46a.47.47 0 0 0-.48-.46c-.27 0-.49.2-.49.46 0 .25.22.46.49.46Zm-4.96.58c0 .42-.36.76-.8.76a.79.79 0 0 1-.8-.76c0-.43.35-.77.8-.77.44 0 .8.34.8.77Zm3.04.6c.35 0 .63-.27.63-.6 0-.34-.28-.6-.63-.6a.62.62 0 0 0-.63.6c0 .33.28.6.63.6Zm-1.12.47c0 .43-.36.77-.8.77a.79.79 0 0 1-.82-.77c0-.42.37-.76.81-.76.45 0 .8.34.8.76Z" fill="#fff"/><defs><linearGradient id="a" x1="3.35" y1="3.12" x2="21.9" y2="24.43" gradientUnits="userSpaceOnUse"><stop stop-color="#1A1E21"/><stop offset="1" stop-color="#06060A"/></linearGradient></defs></svg>