<!-- by TradingView --><svg width="18" height="18" viewBox="0 0 18 18" xmlns="http://www.w3.org/2000/svg"><path fill="#12265E" d="M0 0h18v18H0z"/><path d="m9 12 .16-2.65.07-2.02.02-.7V6h.95l-.14 2.63h3.9l.09-2.08V6H15a93.68 93.68 0 0 0-.26 6h-.97c.1-.91.15-1.84.16-2.78h-3.9l-.06 1.8-.02.98H9ZM3.15 11.8c-.04-.6-.1-1.08-.15-1.44a6.15 6.15 0 0 0 1.8.37c.3 0 .54-.03.72-.1.17-.08.26-.18.26-.32 0-.05 0-.1-.03-.14a.53.53 0 0 0-.1-.15 1.29 1.29 0 0 0-.2-.18l-.96-.7-.47-.34a2.79 2.79 0 0 1-.42-.4 1.2 1.2 0 0 1-.18-1.3c.07-.16.18-.31.33-.46.15-.14.34-.27.58-.37.25-.1.5-.18.78-.21.28-.04.56-.06.85-.06.58 0 1.2.05 1.89.17a18.2 18.2 0 0 0 .13 1.38 5.38 5.38 0 0 0-1.53-.28c-.26 0-.48.04-.66.12-.17.09-.26.19-.26.31 0 .06.01.11.04.17l.15.19.3.23.58.39.36.24a4.43 4.43 0 0 1 .68.57c.1.1.17.2.22.28a1.06 1.06 0 0 1 .14.54c0 .25-.07.5-.22.72-.15.23-.35.42-.62.57-.27.15-.57.25-.9.31-.32.06-.66.09-1.01.09-.56 0-1.25-.07-2.1-.2Z" fill="#fff"/></svg>