<!-- by TradingView --><svg width="18" height="18" viewBox="0 0 18 18" xmlns="http://www.w3.org/2000/svg"><path fill="#004023" d="M0 0h18v18H0z"/><path d="M6.73 6.02c.31.25.5.55.53.98h.64c-.01-.4-.12-.7-.33-1a2.1 2.1 0 0 0-.82-.73A2.6 2.6 0 0 0 5.55 5c-.44 0-.84.09-1.2.27-.36.18-.64.42-.85.74-.2.32-.31.68-.31 1.1 0 .5.15.9.47 1.23.31.32.75.57 1.32.75l.87.27c.3.1.56.2.79.33.22.12.4.27.53.45.13.17.19.4.19.66 0 .3-.08.58-.24.81a1.6 1.6 0 0 1-.67.55c-.28.13-.6.2-.96.2a2.3 2.3 0 0 1-.88-.17 1.57 1.57 0 0 1-.65-.49c-.16-.2-.26-.4-.28-.7H3a2.12 2.12 0 0 0 1.2 1.74c.37.17.8.26 1.29.26.52 0 .97-.1 1.35-.29A2.11 2.11 0 0 0 8 10.81a1.8 1.8 0 0 0-.64-1.42c-.2-.16-.4-.3-.63-.4-.23-.1-.47-.2-.7-.26l-.76-.24a4.22 4.22 0 0 1-.52-.2 2.44 2.44 0 0 1-.47-.27 1.28 1.28 0 0 1-.33-.4 1.31 1.31 0 0 1 .1-1.28c.14-.22.34-.4.6-.52.25-.12.55-.18.89-.18.47 0 .87.12 1.19.38ZM9.67 5H9v8h.6V6.56L11.74 13h.52l2.14-6.44V13h.6V5h-.67l-2.3 6.97h-.06L9.67 5Z" fill="#fff"/></svg>