<!-- by TradingView --><svg width="18" height="18" viewBox="0 0 18 18" xmlns="http://www.w3.org/2000/svg"><path fill="url(#ativenqgu)" d="M0 0h18v18H0z"/><path d="m7 5.71-.4 1.66c-.17-.18-.56-.6-.84-.78-.34-.23-.38.12-.38.53 0 .4 1.62.73 1.62 2.66C7 11.72 6.03 12 5.28 12c-.6 0-1.1-.27-1.28-.4l.21-2.13c.19.33.66.99 1.07.99.51 0 .06-.66-.21-.92S4 8.1 4 7.25C4 6.41 4.32 5 5.61 5c1.04 0 1.36.48 1.39.71ZM8 12V5h1v5h1.53v2H8ZM11 12V5h1v5h2v2h-3Z" fill="#fff"/><defs><linearGradient id="ativenqgu" x1="3.35" y1="3.12" x2="21.9" y2="24.43" gradientUnits="userSpaceOnUse"><stop stop-color="#1A1E21"/><stop offset="1" stop-color="#06060A"/></linearGradient></defs></svg>