<!-- by TradingView --><svg width="18" height="18" viewBox="0 0 18 18" fill="none" xmlns="http://www.w3.org/2000/svg">
<rect width="18" height="18" fill="#F0F3FA"/>
<path d="M7.43948 4.1276C7.42106 4.08952 7.36947 4.06731 7.32893 4.08L6.74303 4.31483C6.69512 4.32753 6.64722 4.37196 6.63985 4.41004L6.00972 6.46323C5.99867 6.50449 5.99498 6.56796 6.00972 6.60604L6.82778 9.60808C6.83884 9.64934 6.88674 9.69694 6.92727 9.71281L7.50213 9.99207C7.54635 10.0111 7.59056 9.99524 7.59793 9.95399L8.48601 6.65681C8.49706 6.61556 8.48969 6.55209 8.47495 6.51401L7.43948 4.1276Z" fill="#0D60AA"/>
<path d="M10.9179 12.2928C10.9624 12.2928 11 12.2546 11 12.2095V10.6837C11 10.6386 10.9624 10.6005 10.9179 10.6005H8.0821C8.03763 10.6005 8 10.6386 8 10.6837V12.2095C8 12.2546 8.03763 12.2928 8.0821 12.2928H10.9179Z" fill="#0D60AA"/>
<path d="M7.61903 12.2841C7.66856 12.3049 7.71359 12.2876 7.71359 12.2424V10.7454C7.71359 10.7003 7.67307 10.6482 7.61903 10.6273L6.90755 10.3252C6.85352 10.3043 6.81299 10.3217 6.81299 10.3668V11.867C6.81299 11.9122 6.90305 11.9889 6.95709 12.0132L7.61903 12.2841Z" fill="#0D60AA"/>
<path d="M8.61578 15C8.56788 15 8.52734 14.9635 8.52734 14.9204V13.0796C8.52734 13.0365 8.56788 13 8.61578 13H9.55176C9.60335 13 9.6402 13.0365 9.6402 13.0796V14.9204C9.6402 14.9635 9.59967 15 9.55176 15H8.61578Z" fill="#0D60AA"/>
<path d="M11.9717 6.42205L10.94 4.07244C10.9215 4.0315 10.8699 4 10.822 4H7.77828C7.72669 4 7.70089 4.03465 7.71931 4.07559L8.78795 6.42835C8.80637 6.46614 8.79901 6.52283 8.78427 6.56693L7.90725 9.93071C7.89619 9.9685 7.92936 10 7.98095 10H11.0468C11.0947 10 11.1426 9.9685 11.15 9.93071L11.9939 6.58268C12.0123 6.51339 11.9828 6.44724 11.9717 6.42205Z" fill="#0D60AA" fill-opacity="0.6"/>
</svg>
