<!-- by TradingView --><svg width="18" height="18" viewBox="0 0 18 18" xmlns="http://www.w3.org/2000/svg"><path fill="#F0F3FA" d="M0 0h18v18H0z"/><path d="m9 7.93-.39-.5.54-1.89h2.41l.56-.54H14l-.5 3H11v.5h2.83L13.5 10H11v1h2.78l-.71 2H9V7.93Z" fill="#00A650"/><path d="m4.1 12.3.5-2.1c1.36 1.04 2.28.74 2.28.33 0-.32-.36-.5-.54-.54C5.56 9.86 4 9.2 4 7.66c0-1.94 1.75-2.27 2.1-2.27.3 0 .7.07.86.1L7.1 5l1.72.61-.55 2.01c-1.25-.6-2.09-.34-2.09.04 0 .3.55.46.82.5.66.22 1.99.98 1.99 2.29C9 12.09 7.67 13 6.4 13a4.6 4.6 0 0 1-2.3-.7Z" fill="#EF1923"/></svg>