<!-- by TradingView --><svg width="18" height="18" viewBox="0 0 18 18" xmlns="http://www.w3.org/2000/svg"><path fill="#DD1D1F" d="M0 0h18v18H0z"/><path d="M8.81 4.69S9.92 4 11.51 4c1.15 0 1.96.57 1.96 1.78 0 .53-3.78 4.22-5.4 4.22-.16 0-.32-.03-.46-.07C7.17 9.78 7 9.15 7 8.48c0-1.38.75-2.91 1.81-3.8ZM14 6.8v1.95c0 1.33-1.98 3.23-3.63 4.03C8.18 13.85 7.08 14 6.2 14 4.66 14 4 13.06 4 11.22c0-1.85.8-3.78 1.34-4.85A2.65 2.65 0 0 1 7.45 5 6.78 6.78 0 0 0 6 9.38c0 .75 0 1.8.37 2.62 3.9-.82 5.44-2.63 7.12-4.6l.51-.6Z" fill="#fff"/></svg>