<!-- by TradingView --><svg width="18" height="18" viewBox="0 0 18 18" xmlns="http://www.w3.org/2000/svg"><path fill="#F0F3FA" d="M0 0h18v18H0z"/><path d="M10.06 3.02 9.53 3l-.43.02-.5.07-.46.1a8.58 8.58 0 0 0-.97.36l-.3.15-.2.11a4.34 4.34 0 0 0-.88.7l-.05.06a2.68 2.68 0 0 0-.55.89l-.09.28-.07.36-.03.44.02.38v.13c.01.04.02.04.04 0a1.16 1.16 0 0 0 .07-.25 2.7 2.7 0 0 1 .58-1.05l.04-.03c.14-.15.3-.28.47-.38l.07-.05a3.31 3.31 0 0 1 1.27-.42l.2-.03a4.77 4.77 0 0 1 3.13.6l.16-.54.12-.4.11-.42a73.01 73.01 0 0 1 .2-.77h-.04l-.43-.13-.53-.11-.42-.05Zm2.36.58-.49-.14-.13-.03h-.01l-.08.23-.26.84-.13.4-.13.42-.09.27v.02l.02.01.2.07.13.03.5.14c.05.02.08.02.09 0 0-.03.03-.08.07-.15l.2-.42.07-.17.1-.2.2-.46.32-.66a.02.02 0 0 0 0-.02l-.02-.01-.56-.17ZM8.6 5.11l.47.04.49.06a4.32 4.32 0 0 1 1.26.5l-.3 1.2-.03.13-.15-.13-.29-.2a3.63 3.63 0 0 0-.43-.22l-.07-.02a3.88 3.88 0 0 0-.97-.26l-.44-.05a4.5 4.5 0 0 0-.52-.02l-.44.02a3.48 3.48 0 0 0-1.31.36l-.16.1c0-.09.02-.17.07-.24.06-.1.11-.19.18-.28.18-.26.42-.47.71-.63L7 5.3l.17-.06c.17-.04.33-.08.49-.1l.47-.04h.48Zm3.34.94-.48-.14-.42-.11-.32 1.1-.01.02a.86.86 0 0 0-.05.26c0 .07.05.11.15.15l.18.04.13.01c.1.02.19.01.26-.05a4.83 4.83 0 0 1 .2-.43l.17-.37.2-.45v-.03Z" fill="url(#a1yvqtwgg)"/><path d="M10.54 9.57c-.18-.23-.08-.5.19-.63a.03.03 0 0 1 .02 0l.03.01c.1.05.19.1.26.18.11.12.12.3.03.43-.12.17-.4.17-.53 0Z" fill="url(#b1yvqtwgg)"/><path d="m8.14 6.53-.52-.02-.4.02c-.36.02-.68.1-1 .25l-.26.16-.22.17-.22.23c-.21.27-.32.53-.38.84l-.01.35.03.45.05.35c.06.27.08.58.1.87a866.34 866.34 0 0 0 .06.77c.02.14.1.25.23.33a1.96 1.96 0 0 0 .27.12h.01v-.02a3.1 3.1 0 0 1 0-.8.41.41 0 0 1 .14-.29c.05-.04.13-.05.23-.03.13.05.22.14.28.28.05.12.09.25.11.4l.05.42.02.64.01.02.16.15 1.3 1.26.15.14.22.21.08.08.32.3.2.2.22.2.22.22.21.18c.05.03.15.03.16-.04v-.16l-.03-.47-.02-.56-.02-.37-.02-.35-.02-.47-.02-.34-.03-.81-.01-.18c0-.02 0-.03-.02-.04a.08.08 0 0 0-.03-.02l-.68-.28-.5-.2-.07-.03-.12-.05a.15.15 0 0 1-.06-.03l-.01-.01-.16-.7v-.01h.01l.92.27h.03l.43.13.53.16.2.06h.01v.08l.01.8v.44l-.11.39-.04.14a.07.07 0 0 0 0 .04l.01.03.17.2.36.41c.06.06.12.06.17-.01l.13-.35.02-.04.13-.33v-.08a9.6 9.6 0 0 0-.06-.32 7.5 7.5 0 0 1 0-.5l.04-.8v-.07l.01-.01.32-.18.46-.26a.01.01 0 0 1 .01 0l-.05.55-.37.32a.2.2 0 0 0-.04.06l-.07 2.43v.39l-.02.42v.23c0 .04.03.07.1.07.04 0 .07-.03.07-.07l.06-.26.16-.82.07-.36.1-1.14.02-.1.03-.4.04-.4a3.36 3.36 0 0 1 .05-.32.46.46 0 0 0 .03-.08l.01-.41.03-.42V9.6a18.59 18.59 0 0 1-.05-.24l-.06-.4-.22-.79-.14-.46-.01-.02a.02.02 0 0 0-.01 0h-.01l-.15.07-.16.08c-.1.05-.2.09-.29.1-.22.03-.4-.04-.51-.19a.65.65 0 0 1-.08-.19.85.85 0 0 0-.13-.24c-.08-.1-.17-.19-.28-.26l-.2-.12-.28-.12-.47-.15c-.24-.06-.49-.1-.74-.12l-.2-.02Zm2.47 2.32c-.13-.06-.25-.16-.2-.28.03-.12.2-.17.33-.18.13-.02.25 0 .36.04.02 0 .03.02.02.03l-.03.08a.02.02 0 0 1 0 .01.03.03 0 0 1-.02 0 .03.03 0 0 1-.01 0 .63.63 0 0 0-.35-.03c-.1.02-.17.1-.05.17l.14.08c.11.06.22.12.32.2.28.18.29.58 0 .76a.64.64 0 0 1-.46.07.47.47 0 0 1-.4-.39c-.04-.24.11-.42.34-.54v-.01h.01Z" fill="url(#c1yvqtwgg)"/><defs><linearGradient id="a1yvqtwgg" x1="5" y1="5.19" x2="12.5" y2="4.87" gradientUnits="userSpaceOnUse"><stop stop-color="#EEBA47"/><stop offset="1" stop-color="#F1C761"/></linearGradient><linearGradient id="b1yvqtwgg" x1="5.13" y1="9.37" x2="12.12" y2="9.16" gradientUnits="userSpaceOnUse"><stop stop-color="#1A3811"/><stop offset="1" stop-color="#2E5422"/></linearGradient><linearGradient id="c1yvqtwgg" x1="5.13" y1="9.37" x2="12.12" y2="9.16" gradientUnits="userSpaceOnUse"><stop stop-color="#1A3811"/><stop offset="1" stop-color="#2E5422"/></linearGradient></defs></svg>