<!-- by TradingView --><svg width="18" height="18" viewBox="0 0 18 18" xmlns="http://www.w3.org/2000/svg"><path fill="#F0F3FA" d="M0 0h18v18H0z"/><path d="M4.3 7.07c-1.2 3.55 1.5 5.47 2.93 5.97l.57-1.57C5.27 10.3 5.6 8.14 6.12 7.26c1.71-2.55 4.18-1.53 5.2-.7l1.14-1.12c-2.34-2.4-7.02-1.77-8.16 1.63Z" fill="url(#a)"/><path d="M12.31 5.3c-1.38-.6-3.8-.98-5.41 1.07 1.61-1.37 3.54-.52 4.41.2l1.15-1.13-.15-.14Z" fill="url(#b)"/><path d="M13.7 10.93c1.2-3.55-1.5-5.47-2.93-5.97l-.57 1.57c2.53 1.17 2.2 3.33 1.68 4.21-1.71 2.55-4.18 1.53-5.2.7l-1.14 1.12c2.34 2.4 7.02 1.77 8.16-1.63Z" fill="url(#c)"/><path d="M10.77 4.96c1.43.5 4.13 2.42 2.93 5.97a4.3 4.3 0 0 1-.74 1.36 4.2 4.2 0 0 0-2.13-5.42c-.19-.12-.4-.23-.63-.34l.57-1.57Z" fill="url(#d)"/><path d="M5.69 12.7c1.38.6 3.8.98 5.41-1.07-1.61 1.37-3.54.52-4.41-.2l-1.15 1.13.15.14Z" fill="url(#e)"/><path d="M7.23 13.04c-1.43-.5-4.13-2.42-2.93-5.97.17-.52.43-.97.74-1.36a4.2 4.2 0 0 0 2.13 5.42c.19.12.4.23.63.34l-.57 1.57Z" fill="url(#f)"/><defs><linearGradient id="a" x1="11.49" y1="4.81" x2="5.07" y2="9.37" gradientUnits="userSpaceOnUse"><stop stop-color="#0772B0"/><stop offset="1" stop-color="#001460"/></linearGradient><linearGradient id="b" x1="6.9" y1="5.69" x2="12.46" y2="5.69" gradientUnits="userSpaceOnUse"><stop stop-color="#001B69"/><stop offset="1" stop-color="#0075C3"/></linearGradient><linearGradient id="c" x1="6.51" y1="13.19" x2="12.93" y2="8.63" gradientUnits="userSpaceOnUse"><stop stop-color="#0772B0"/><stop offset="1" stop-color="#001460"/></linearGradient><linearGradient id="d" x1="13.41" y1="11.64" x2="10.85" y2="5.49" gradientUnits="userSpaceOnUse"><stop stop-color="#027FBF"/><stop offset="1" stop-color="#08045B"/></linearGradient><linearGradient id="e" x1="11.1" y1="12.31" x2="5.54" y2="12.31" gradientUnits="userSpaceOnUse"><stop stop-color="#001B69"/><stop offset="1" stop-color="#0075C3"/></linearGradient><linearGradient id="f" x1="4.59" y1="6.36" x2="7.15" y2="12.51" gradientUnits="userSpaceOnUse"><stop stop-color="#027FBF"/><stop offset="1" stop-color="#08045B"/></linearGradient></defs></svg>