<!-- by TradingView --><svg width="18" height="18" viewBox="0 0 18 18" xmlns="http://www.w3.org/2000/svg"><path fill="#F0F3FA" d="M0 0h18v18H0z"/><path d="M13.03 12H2.05c-.04 0-.06-.02-.05-.06l.9-4.4a2.42 2.42 0 0 1 .47-1.02c.28-.35.6-.52.95-.52H15.94c.05 0 .07.03.06.08a251.2 251.2 0 0 0-.8 4c-.1.43-.2.75-.32.95-.2.32-.47.56-.8.73-.32.16-.67.24-1.05.24ZM3.05 7.64a189.4 189.4 0 0 1-.84 4.14c0 .03 0 .05.04.05l1.1.01c3.21.02 6.4.02 9.57 0 .53 0 .97-.12 1.33-.37.37-.26.61-.64.71-1.14a1735.29 1735.29 0 0 1 .82-4.15 3360436.56 3360436.56 0 0 1-9.32-.01H4.48c-.16 0-.3 0-.4.03a.85.85 0 0 0-.35.18c-.34.29-.57.71-.68 1.26Z" fill="#676174" fill-opacity=".89"/><path d="M13.9 6.71v.2c0 .04-.03.09-.07.1h-1.66c-1.04-.02-2.27 1.57-2.85 2.14a4.3 4.3 0 0 1-.97.74c-.13.07-.31.1-.55.11H3.8c-.04 0-.04-.03-.04-.06v-.23c0-.04.01-.04.05-.04H4c.04 0 .07-.05.1-.07.27-.18.59-.26.92-.27.2 0 .4.03.6.1.17.07.33.24.51.24H7c.05 0 .1-.09.14-.13a87.1 87.1 0 0 1 2.08-1.9c.37-.32.73-.6 1.08-.84.14-.09.28-.13.42-.13h3.11c.04 0 .07.01.07.04Z" fill="#EE1D23"/><path d="M7.29 10.83c.15.06.29.17.41.17h.73c.11 0 .2-.1.27-.18l1.94-1.96c.33-.34.7-.66 1.09-.97.1-.08.18-.13.26-.17.1-.03.2-.05.32-.05h2.94c.03 0 .05.01.05.04v.25c0 .03-.02.04-.05.04h-1.51c-.38 0-.87.2-1.47.85l-1.5 1.6c-.23.24-.43.43-.6.56-.27.2-.52.31-.74.32H5.25c-.06 0-.1-.03-.1-.1v-.16c0-.06.04-.07.1-.07.12 0 .16 0 .24-.02l.26-.13a1.82 1.82 0 0 1 1.53-.02Z" fill="#808285"/></svg>