<!-- by TradingView --><svg width="18" height="18" viewBox="0 0 18 18" xmlns="http://www.w3.org/2000/svg"><path fill="#F0F3FA" d="M0 0h18v18H0z"/><path d="M11.66 6.95c-.12-1.06-.63-1.71-1.52-1.95H6.19l-.23.9c-.02.06 0 .1.07.1h3.46c.5 0 .83.34 1.03.73.22.43.08.98-.23 1.3-.3.3-1.11.26-1.71.23l-.37-.02c-.06 0-.08-.03-.06-.1l.41-1.47c.02-.06 0-.08-.05-.08h-.96c-.01 0-.03 0-.04.02a.1.1 0 0 0-.03.05l-.6 2.17c-.02.1-.05.1-.07 0-.15-.6-.48-.78-.97-.83H2.8c-.05 0-.08.02-.09.07l-.26.87a.06.06 0 0 0 0 .04.04.04 0 0 0 .02.01l.02.01h3.15c.13 0 .18.02.17.15V9.3c0 .04-.02.08-.05.11a.13.13 0 0 1-.1.04H2.39c-.05 0-.09.04-.1.1l-.29.79v.11h3.7c.18 0 .44-.02.77-.34.05-.06.07-.04.05.04l-.11.5c0 .03-.02.05-.04.07a12.9 12.9 0 0 1-.34.1c-.47.13-1.03.27-1.48.65a.37.37 0 0 0-.13.22.4.4 0 0 0 .04.26c.4.75 2.73 1 3.45 1.05h1.94l.28-.03c.97-.12 2-.24 2.83-.73.35-.2.4-.48.15-.8a3.36 3.36 0 0 0-1.13-.53 13.26 13.26 0 0 0-4.46-.32v-.04l.29-1.14c0-.04.03-.05.06-.05h1.7c.82-.01 1.33-.16 1.8-.87.04-.08.07-.07.09.02.27 1.81 1.52 1.73 2.77 1.64l.65-.03c.05 0 .1-.03.1-.1l.62-2.26a.06.06 0 0 0-.01-.05l-.02-.01H13.68c-.03 0-.04 0-.05.04l-.23.83c-.01.04 0 .07.04.07h.75c.1 0 .12.05.1.14l-.05.23c-.02.08-.07.12-.14.12h-.15c-.37.03-.93.06-1.16-.16-.41-.4-.45-1.47.04-1.84.13-.1.36-.13.7-.13h2.1c.06 0 .13-.06.15-.12l.22-.7V6.1h-2.65c-.7.01-1.23.34-1.63.88-.03.05-.05.04-.06-.02Zm-5.22 3.8 1-.14c.04 0 .05.01.04.04l-.36 1.37c-.01.04-.03.06-.07.06H6.1c-.04 0-.06-.03-.04-.08l.3-1.18c.02-.04.04-.06.08-.07Zm.6-4.14H4.01a1.25 1.25 0 0 0-1.2.87l.02.02c0 .01 0 .02.02.02h3.88c.04 0 .06 0 .07-.04l.26-.82a.04.04 0 0 0 0-.03l-.02-.02Z" fill="#217FC4"/></svg>