<!-- by TradingView --><svg width="18" height="18" viewBox="0 0 18 18" xmlns="http://www.w3.org/2000/svg"><path fill="#000918" d="M0 0h18v18H0z"/><path d="M11.92 9c0 .04.09.11.2.22.48.48 1.12.96.79 1.76-.07.16-.23.37-.49.62l-1.83 1.8c-.3.3-.52.47-.7.54-.29.1-.6.07-.93-.1-.2-.1-.44-.3-.7-.63-.04-.04-.04-.08 0-.11l.49-.48c.04-.05.08-.04.12 0l.44.43c.14.13.29.12.42-.02l2.28-2.26c.15-.14.15-.29 0-.44A327.32 327.32 0 0 1 10.7 9v-.03l1.32-1.3c.15-.15.15-.3 0-.44L9.74 4.97c-.14-.14-.28-.15-.43-.02-.15.13-.3.27-.44.43-.04.04-.08.04-.12 0l-.5-.48c-.03-.04-.03-.07 0-.11.27-.32.5-.53.7-.63.34-.17.66-.2.95-.1.17.07.4.25.7.53l1.83 1.81c.25.26.41.46.48.62.33.8-.3 1.28-.8 1.77-.1.1-.2.17-.2.21Z" fill="#6BDE93"/><path d="m5.7 7.3 2.2-2.17a.06.06 0 0 1 .07 0l2.7 2.67.02.01a.06.06 0 0 1 0 .05l-.02.01-.53.53a.06.06 0 0 1-.06.01h-.02L7.97 6.33a.06.06 0 0 0-.06-.01h-.02l-.98.97a.06.06 0 0 0-.01.04.05.05 0 0 0 .01.04l3.27 3.23a.06.06 0 0 1 .02.04.06.06 0 0 1-.02.04l-2.2 2.18-.02.01a.06.06 0 0 1-.07 0L4.02 9.03A.06.06 0 0 1 4 8.98l.02-.02.53-.53a.06.06 0 0 1 .06 0h.02l3.26 3.23a.06.06 0 0 0 .04.02.06.06 0 0 0 .04-.02l1-.98a.06.06 0 0 0 0-.04.06.06 0 0 0 0-.04L5.7 7.38a.06.06 0 0 1-.02-.06l.02-.02Z" fill="#FEFFFF"/></svg>