<!-- by TradingView --><svg width="18" height="18" viewBox="0 0 18 18" xmlns="http://www.w3.org/2000/svg"><path fill="#F0F3FA" d="M0 0h18v18H0z"/><circle cx="9" cy="9" r="6" fill="#0D1A93"/><path d="M3.07 6.54c.04-.18.13-.36.28-.52h1.7c.03 0 .05.01.05.05v.44c0 .02-.01.03-.04.03h-2ZM13.9 6c.09.04.17.14.26.3-.3.25-.59.45-.88.61-.39.22-.72.3-.99.28-.52-.06-.87-.31-1.04-.75a.05.05 0 0 0-.05-.03H8.7a.12.12 0 0 0-.09.03c-.34.3-.57.59-.7.87-.1.25-.14.5-.09.75.05.2.15.43.32.67.1.15.28.36.53.65.23.26.4.46.5.6.17.23.29.45.36.65.08.25.1.5.06.74-.04.27-.17.56-.38.85-.19.27-.4.52-.66.75a.1.1 0 0 1-.07.03H5.26c-.05 0-.05-.02-.01-.05.26-.18.52-.4.78-.67.35-.36.6-.73.72-1.1.15-.43.16-.87.02-1.32a14.28 14.28 0 0 0-.45-1.04l-.31-.69c-.1-.25-.17-.48-.19-.68-.03-.25 0-.48.07-.7.08-.25.23-.49.45-.72A.08.08 0 0 1 6.4 6h7.5Z" fill="#F0F3FA"/><path d="M12.57 6.41a.18.18 0 1 0 0-.37.18.18 0 0 0 0 .37Z" fill="#0D1A93"/><path d="M9.29 12.96c.39-.6.59-1.17.6-1.7 0-.6-.2-1.15-.64-1.67l-.65-.8-.06-.08a1.37 1.37 0 0 1-.29-.55.77.77 0 0 1 .1-.59c.12-.21.28-.39.48-.54A.14.14 0 0 1 8.9 7h1.38c.04 0 .05.02.02.05a.99.99 0 0 0-.26.89c.06.26.22.53.5.8.36.36.75.73 1.18 1.11.22.2.42.4.58.62.2.25.35.5.43.72.1.31.11.63.01.95a2.3 2.3 0 0 1-.5.82.1.1 0 0 1-.07.04H9.3l-.02-.01v-.03Z" fill="#F0F3FA"/></svg>