<!-- by TradingView --><svg width="18" height="18" viewBox="0 0 18 18" xmlns="http://www.w3.org/2000/svg"><path fill="#F0F3FA" d="M0 0h18v18H0z"/><path d="M8.26 4.06c.23.13.3.41.17.63L5.9 8.77a.5.5 0 0 1-.66.17.45.45 0 0 1-.17-.63L7.6 4.23a.5.5 0 0 1 .66-.17Z" fill="#01B6EF"/><path d="M9.26 8.06c.23.13.3.41.17.63L6.9 12.77a.5.5 0 0 1-.66.17.45.45 0 0 1-.17-.63L8.6 8.23a.5.5 0 0 1 .66-.17Z" fill="#005A9B"/><path d="M13.76 8.06c.23.13.3.41.17.63l-2.53 4.08a.5.5 0 0 1-.66.17.45.45 0 0 1-.17-.63l2.53-4.08a.5.5 0 0 1 .66-.17Z" fill="#54B452"/><circle cx="10.5" cy="9.5" r=".5" fill="#54B452"/></svg>