<!-- by TradingView --><svg width="18" height="18" viewBox="0 0 18 18" xmlns="http://www.w3.org/2000/svg"><path fill="#F0F3FA" d="M0 0h18v18H0z"/><path fill-rule="evenodd" d="M13.18 8.02a14.73 14.73 0 0 0-.5 0c-.01 0-.02 0-.02-.02v-.05a1 1 0 0 1 .57-.21.1.1 0 0 0 .05-.03.1.1 0 0 0 .03-.05c.03-.12 0-.2-.06-.23a2.38 2.38 0 0 1-1.34-1.84.07.07 0 0 0-.03-.04.06.06 0 0 0-.05-.01c-.65.15-1.29.11-1.91-.11-.25-.09-.45-.11-.6-.07-.35.1-.57.18-.67.25-.17.12-.15.46-.14.68v.1c0 .05.02.1.05.13.49.56.9 1.1 1.09 1.82a.2.2 0 0 1-.01.14l-.23.47c-.02.05-.06.06-.1.04-.3-.13-.49-.27-.55-.43a7.03 7.03 0 0 1-.36-2.1.26.26 0 0 0-.04-.12l-.45-.74c-.2-.34-.48-.42-.77-.5-.1-.02-.19-.05-.29-.09a.2.2 0 0 0-.13 0c-.8.27-1.7.42-2.67.45-.05 0-.06.03-.04.08.2.44.32.96.38 1.55.03.43.04.9.02 1.45 0 .05 0 .1.03.13l.36.65c.23.4.57.4.99.4h.09c.22.01.42-.04.6-.16.17-.1.44-.25.81-.42.46-.2.9-.34 1.33-.4.04 0 .08.01.11.04l.48.36c.04.03.05.07.01.12-.2.3-.42.47-.66.52-.5.12-1.25.2-2.26.26a2.97 2.97 0 0 0-1.2.52.13.13 0 0 0-.01.06v.33c0 .06.02.1.06.13.51.42.86 1 1.04 1.73A7.13 7.13 0 0 1 6.4 14h.01l.02-.01c.6-.7 1.33-1.13 2.2-1.32.2-.04.36-.12.49-.24.36-.34.63-.62.8-.82.17-.18.22-.4.17-.67a.14.14 0 0 0-.07-.1l-.14-.07c-.52-.25-.76-.37-.97-.96-.02-.05-.01-.1.03-.14l.4-.37a.14.14 0 0 1 .12-.03l.72.16c.05.01.09.04.1.09l.57.9c.12.18.24.3.35.36l.15.07c.22.11.42.21.67.12l.27-.08c.18-.05.35-.1.56-.22a3.97 3.97 0 0 1 2.12-.53l.02-.02v-.02l-.01-.02-.14-.07-.01-.01-.01-.01c-.18-.17-.2-.4-.24-.64-.02-.2-.04-.39-.15-.54-.36-.5-.71-.79-1.26-.79Zm-3.64 1c-.02.04-.01.07.02.1l.6.2c.17.04.36.02.56-.08a7.2 7.2 0 0 0 1.66-1.09c.1-.09.1-.13-.04-.12-.76.03-1.54.18-2.35.46-.16.06-.26.12-.3.2a21 21 0 0 0-.15.33Z" fill="#1DAC00"/></svg>