<!-- by TradingView --><svg width="18" height="18" viewBox="0 0 18 18" xmlns="http://www.w3.org/2000/svg"><path fill="#F0F3FA" d="M0 0h18v18H0z"/><path d="M11.6 12.14c.4.3.52.93.26 1.4-.26.47-.8.6-1.2.3L7.7 11.58l-1.07-.81c-.07-.05-.37-.3-.51-.67 0 0-.26-.53.03-1.38 0-.02.1-.28.26-.54l5.2 3.96Z" fill="#31D700"/><path d="m7.22 4.54-.43.33c-.08.07-.5.46-.52 1.35 0 .05-.02.84.62 1.36l1.4 1.04 2.7 2.01.61.46s.45-.63.4-1.4c-.01-.07 0-.5-.52-1.03a14.1 14.1 0 0 0-.54-.41l-1.32-.98-1.05-.78-.4-.3L9.7 5.03c.22-.17.42-.28.51-.44.02-.04.24-.33.17-.8 0-.05-.04-.25-.2-.45 0 0-.17-.3-.58-.34 0 0-.18-.04-.43.08l-.36.26-.7.52-.89.67Z" fill="#0675EB"/><path d="m9 6.3 1.04.7.39.26c.1.06.3.16.61.14.05 0 .46-.05.74-.43.02-.03.22-.27.22-.67 0-.03.02-.36-.24-.7-.02-.03-.23-.3-.66-.39a1.06 1.06 0 0 0-.77.2l-.76.5-.57.4Z" fill="#38D200"/><path d="m9 12.9-1.04-.7-.39-.26c-.1-.06-.3-.16-.61-.14-.05 0-.46.05-.74.43a1.1 1.1 0 0 0-.22.67c0 .03-.02.36.24.7.02.03.23.3.66.39.07.01.41.06.77-.2l.76-.5.57-.4Z" fill="#0375F2"/></svg>