<!-- by TradingView --><svg width="18" height="18" viewBox="0 0 18 18" xmlns="http://www.w3.org/2000/svg"><path fill="url(#a)" d="M0 0h18v18H0z"/><path d="M10.15 8.02c.5.16 1.23.44 2.18.85.33.14.6.4.74.7.15.32.18.68.07 1-.96 2.92-5.97 2.58-8.5 2.15-.52-.1-.73-.38-.6-.87l.06-.3c.02-.08.06-.17.12-.24a.71.71 0 0 1 .8-.21c1.4.52 2.45.67 3.14.46 1.94-.61 1.95-1.2.02-1.78-.12-.03-.61-.22-1.48-.56-.99-.39-1.41-1.07-1.27-2.03.11-.72.79-1.28 2.03-1.69 1.87-.6 3.79-.66 5.77-.16l.2.08c.55.32.7.69.45 1.1a.58.58 0 0 1-.29.23.63.63 0 0 1-.38.02c-1.4-.35-2.4-.45-3.02-.29-1.78.48-1.8.99-.04 1.54Z" fill="#fff"/><defs><linearGradient id="a" x1="3.35" y1="3.12" x2="21.9" y2="24.43" gradientUnits="userSpaceOnUse"><stop stop-color="#1A1E21"/><stop offset="1" stop-color="#06060A"/></linearGradient></defs></svg>