<!-- by TradingView --><svg width="18" height="18" viewBox="0 0 18 18" xmlns="http://www.w3.org/2000/svg"><path fill="#F0F3FA" d="M0 0h18v18H0z"/><path d="M8.25 3h.16c.3.06.47.22.53.5l.02.12v.01a4.99 4.99 0 0 1 .71.29.79.79 0 0 1 1.37-.16c.24.34.16.8-.16 1.05v.02a3.88 3.88 0 0 1 .55.73.98.98 0 0 1 .86-.02.94.94 0 0 1-.32 1.8l-.01.01a5.26 5.26 0 0 1 .02.72c.59.09 1.05.57 1.1 1.15.06.87-.74 1.53-1.6 1.32a1.26 1.26 0 0 1 .3-2.48h.02a5.21 5.21 0 0 0-.03-.73.94.94 0 0 1-.5-1.66v-.02a3.73 3.73 0 0 0-.56-.74.81.81 0 0 1-.5.04.76.76 0 0 1-.59-.84v-.02a5.12 5.12 0 0 0-.7-.29c-.08.24-.3.4-.55.42A.61.61 0 0 1 8.25 3Z" fill="#4ED0F4"/><path d="M7.38 6.1a6.14 6.14 0 0 1 .73-.03c.05-.28.16-.52.35-.7a1.28 1.28 0 0 1 1.36-.32 1.26 1.26 0 0 1-.33 2.44A1.27 1.27 0 0 1 8.1 6.25a6.23 6.23 0 0 0-.73.03.94.94 0 0 1-.27.55.97.97 0 0 1-1.43-.05 3.8 3.8 0 0 0-.75.57.77.77 0 0 1-.8 1.08l-.02.01a5.08 5.08 0 0 0-.29.69.6.6 0 0 1-.11 1.19.62.62 0 0 1-.54-.2.6.6 0 0 1 0-.82c.12-.13.27-.2.47-.2v-.01a4.88 4.88 0 0 1 .3-.7.77.77 0 0 1-.23-1.31.8.8 0 0 1 1.12.11h.01a3.92 3.92 0 0 1 .74-.56.93.93 0 0 1 .2-1.15.97.97 0 0 1 1.3 0c.17.16.27.37.3.6l.01.02Z" fill="#021859"/><path d="M6 10.65a5.84 5.84 0 0 1-.03-.73 1.26 1.26 0 0 1 .2-2.5 1.26 1.26 0 0 1 .86 2.2c-.25.21-.54.32-.88.32a5.72 5.72 0 0 0 .04.72.95.95 0 0 1 .53 1.65v.01a3.84 3.84 0 0 0 .61.75.78.78 0 0 1 1.03.74 5.17 5.17 0 0 0 .73.3.62.62 0 0 1 .71-.31.6.6 0 0 1 .18 1.1.63.63 0 0 1-.49.08.6.6 0 0 1-.46-.7v-.01a4.8 4.8 0 0 1-.7-.28.78.78 0 0 1-1.14.48.76.76 0 0 1-.04-1.32v-.01a3.9 3.9 0 0 1-.58-.72.98.98 0 0 1-.8.08.94.94 0 0 1-.64-.78.95.95 0 0 1 .86-1.06l.01-.01Z" fill="#4ED0F4"/><path d="M10.62 12a5.43 5.43 0 0 1-.74.02 1.29 1.29 0 0 1-2.02.85c-.82-.59-.64-1.84.32-2.2.4-.14.86-.07 1.2.18.32.23.5.56.52.99h.01a5.47 5.47 0 0 0 .72-.03.95.95 0 0 1 .58-.76.97.97 0 0 1 1.1.25h.03a3.85 3.85 0 0 0 .74-.56.76.76 0 0 1 .05-.71c.16-.26.45-.4.75-.37h.02a4.99 4.99 0 0 0 .28-.7.6.6 0 0 1-.2-1.04c.27-.24.7-.18.9.11a.6.6 0 0 1-.04.77.6.6 0 0 1-.46.2h-.02a5.14 5.14 0 0 1-.28.7c.37.16.58.53.48.92-.1.4-.52.65-.94.55a.78.78 0 0 1-.43-.27h-.02a3.96 3.96 0 0 1-.74.56.94.94 0 0 1-.66 1.39.96.96 0 0 1-1.14-.85h-.01Z" fill="#021859"/></svg>