<!-- by TradingView --><svg width="18" height="18" viewBox="0 0 18 18" xmlns="http://www.w3.org/2000/svg"><path fill="#5750B7" d="M0 0h18v18H0z"/><path d="M10.98 3.64 10.74 3l-.24.64-.66.03.51.44-.17.66.56-.37.55.37-.13-.52c.89 0 2.32.36 2.32 1.9 0 1.91-2.27 3.29-3.13 3.81l-.23.14c-.58.37-2.53 1.35-4.33.85-1.79-.5-2.3-3.9 2.7-6.7C6.98 4.9 4 6.87 4 9.62c.04.72.53 2.18 2.22 2.18 2.11 0 3.61-.81 4.94-1.7C12.48 9.23 14 7.74 14 6.07c0-1.68-1.46-2.12-2.72-2.04h-.06l.42-.35-.66-.03Z" fill="#8C8F9E"/><path d="m4.41 12.98 4.34-8.44 2.6 4.9-1.63.85-.97-1.97-2.44 4.66h-1.9Zm5.62-2.07L11.25 13h1.9l-1.58-2.97c-.22.16-.85.58-1.54.88Z" fill="#D9D8D3"/></svg>