<!-- by TradingView --><svg width="18" height="18" viewBox="0 0 18 18" xmlns="http://www.w3.org/2000/svg"><path fill="#004C80" d="M0 0h18v18H0z"/><path d="m11.16 4.94.44-.16c.1-.05.1-.1.04-.19-.14-.16-.3-.31-.48-.45s-.36-.17-.55-.11l-.36.09a.14.14 0 0 0-.11.1c-.02.05-.01.1.03.14l.07.07c.15.15.26.26.35.33.14.11.27.18.4.22a13.01 13.01 0 0 0 .17-.04Zm-.71.25.17-.06c.04-.01.06-.04.05-.09-.02-.1-.05-.17-.1-.2l-.44-.41a.52.52 0 0 0-.48-.14 8.15 8.15 0 0 0-.4.09c-.14.04-.24.08-.32.12a.05.05 0 0 0-.02.05c0 .08.04.15.1.21.16.18.33.35.5.5a.52.52 0 0 0 .54.08l.4-.15Zm-1.72.61-.04.02-.16.06a.38.38 0 0 1-.16 0 .88.88 0 0 1-.5-.28l-.4-.43a.21.21 0 0 1 .1-.34l.76-.2c.1-.03.2-.03.3 0 .12.04.2.09.27.15l.48.47a.2.2 0 0 1 .05.1.75.75 0 0 1 0 .16c0 .02 0 .04-.03.05l-.67.24Zm3.42.13c.15-.06.33-.15.53-.26.02-.01.03-.03.02-.05-.07-.15-.2-.31-.4-.48-.19-.16-.36-.26-.52-.3a.1.1 0 0 0-.06 0l-.53.2a.13.13 0 0 0-.08.1c-.01.04 0 .08.03.12l.55.53c.06.05.12.09.21.12.1.04.19.04.25.02Zm-4.49.26-.52.18a12.68 12.68 0 0 1-.58.18l-.38-.12a.27.27 0 0 1-.13-.1l-.48-.59a.2.2 0 0 1-.04-.1.38.38 0 0 1 .06-.26.16.16 0 0 1 .09-.07l.97-.26a.79.79 0 0 1 .4 0c.14.02.25.09.34.18l.47.51c.04.05.05.1.06.15 0 .09-.03.15-.07.2a.45.45 0 0 1-.19.1Zm3.38.3.62-.3a.14.14 0 0 0 .08-.1.14.14 0 0 0-.03-.13 2.7 2.7 0 0 0-.38-.43 1.46 1.46 0 0 0-.47-.32.34.34 0 0 0-.23.02l-.58.22c-.13.05-.15.15-.05.3l.05.05.5.5c.09.1.23.16.42.2a.1.1 0 0 0 .07-.01Zm-5.69.53c-.35.12-.7.24-1.05.38a.32.32 0 0 1-.21 0 5.82 5.82 0 0 0-.42-.11.17.17 0 0 1-.1-.07L3 6.38a.07.07 0 0 1 0-.08l.15-.28a.18.18 0 0 1 .12-.1c.41-.09.84-.2 1.29-.33a.91.91 0 0 1 .36-.04c.1.01.2.05.34.1.1.04.17.1.22.18.14.2.28.37.43.53a.2.2 0 0 1 .04.2l-.06.2c0 .03-.02.04-.04.05-.16.08-.33.14-.5.2Zm5.23-.4a.21.21 0 0 0-.06-.2l-.59-.6a.51.51 0 0 0-.32-.14.74.74 0 0 0-.37.05c-.2.09-.4.16-.62.23-.08.02-.12.09-.12.2 0 .03 0 .08.02.12a.3.3 0 0 0 .06.1c.17.2.35.4.53.58.08.09.2.15.38.19a.4.4 0 0 0 .26-.04c.23-.1.46-.22.7-.34.07-.03.11-.09.13-.16Zm1.63-.59.54-.26a.1.1 0 0 1 .08-.01c.13.04.26.11.4.22l.35.31c.1.1.17.21.22.34 0 .02 0 .04-.02.06l-.5.33a.08.08 0 0 1-.05.02.66.66 0 0 1-.37-.16c-.2-.17-.38-.35-.57-.54a.35.35 0 0 1-.11-.25c0-.03.01-.05.03-.06Zm-4.46.25h-.01l-.96.36a.11.11 0 0 0-.06.06c-.1.18-.11.32-.04.41l.54.69c.06.07.14.13.26.17a2.21 2.21 0 0 0 .34.08h.06l1.1-.55a.14.14 0 0 0 .08-.08.42.42 0 0 0-.1-.45l-.47-.53a.55.55 0 0 0-.21-.15 1.74 1.74 0 0 0-.25-.07.3.3 0 0 0-.14 0l-.14.06Zm3.36.3.65-.33a.19.19 0 0 1 .13-.01c.12.02.23.08.35.17a3.41 3.41 0 0 1 .45.42c.1.1.18.21.23.36v.06a.1.1 0 0 1-.03.04l-.6.42a.09.09 0 0 1-.07.02c-.22-.03-.37-.1-.46-.18l-.52-.53a.48.48 0 0 1-.16-.39c0-.02.02-.04.03-.05Zm2.97 1.48c.04.04.12.08.23.13.13.06.24.04.32-.04a24.13 24.13 0 0 1 .37-.4c0-.12-.1-.26-.28-.45-.1-.1-.25-.22-.44-.37l-.04-.03a.6.6 0 0 0-.34-.13.1.1 0 0 0-.06.02l-.46.33a.06.06 0 0 0-.03.05c0 .12.05.22.14.31l.59.58Zm-4.26-.3a.5.5 0 0 1-.1-.28c-.02-.13.02-.21.12-.26a22.03 22.03 0 0 0 .82-.4c.18.02.32.08.42.17a20.28 20.28 0 0 1 .66.69c.03.04.05.1.06.14.03.12.02.2-.05.25l-.72.5a.24.24 0 0 1-.23.03 2 2 0 0 0-.1-.03 1 1 0 0 1-.15-.05.43.43 0 0 1-.14-.1l-.6-.66Zm-2.66.19-.63-.8a.18.18 0 0 0-.08-.07l-.38-.11a.3.3 0 0 0-.2 0l-1.53.57a.11.11 0 0 0-.06.07l-.16.4a.1.1 0 0 0 0 .1l.62.9c.04.07.09.1.15.12l.1.03.29.08c.11.02.2.02.26-.02l1.5-.75a.12.12 0 0 0 .07-.1l.06-.36-.01-.06Zm5.83-.57a.08.08 0 0 1 .07-.01c.17.04.3.11.42.22l.44.42c.14.12.23.27.29.43.01.05 0 .1-.03.14l-.5.49c-.07.06-.17.07-.32.02a.82.82 0 0 1-.28-.18l-.56-.59a.6.6 0 0 1-.18-.45c0-.02.01-.04.03-.05l.62-.44Zm-3.87.21-.83.42c-.12.06-.23.12-.33.19a.07.07 0 0 0-.04.05l-.02.36c0 .03 0 .06.02.08l.7.9c.05.05.1.1.18.1l.35.1c.05.01.1 0 .15-.03l1.06-.74a.07.07 0 0 0 .04-.06l-.01-.29a.52.52 0 0 0-.13-.26c-.2-.2-.38-.41-.55-.61a.5.5 0 0 0-.18-.13 1.36 1.36 0 0 0-.2-.07 2.37 2.37 0 0 1-.1-.02.14.14 0 0 0-.11.01Zm3.27 2.7c-.08 0-.2-.04-.4-.12a.67.67 0 0 1-.2-.18 247.41 247.41 0 0 0-.7-.83l-.04-.36c0-.03 0-.06.03-.08l.8-.56a.09.09 0 0 1 .06-.02c.22.03.37.1.47.2l.6.64c.06.05.1.13.14.2l.06.25c0 .05 0 .1-.05.14l-.71.69a.09.09 0 0 1-.06.03Zm-5.2-1.71-1.6.83a.1.1 0 0 0-.06.07l-.13.47c-.01.04 0 .08.02.11l.72 1.11a.4.4 0 0 0 .22.15 1.99 1.99 0 0 0 .41.09c.08.02.15 0 .22-.05l1.48-1.03a.12.12 0 0 0 .05-.09l.03-.4a.23.23 0 0 0-.05-.17l-.69-.89a.2.2 0 0 0-.1-.07l-.46-.14-.06.01Zm3.6 3.25a1.91 1.91 0 0 1-.48-.13.24.24 0 0 1-.12-.08l-.78-1.01a.29.29 0 0 1-.06-.18v-.4c0-.05.02-.1.07-.13l1.05-.74a.1.1 0 0 1 .1-.02l.06.02c.11.02.2.05.25.07.1.04.16.08.21.14.19.22.4.45.6.7.1.1.15.2.17.28l.05.38a.1.1 0 0 1-.03.09l-1.03 1a.06.06 0 0 1-.05.01Zm-.7-.1a43 43 0 0 1-.77-1 .5.5 0 0 0-.22-.16 1.85 1.85 0 0 0-.39-.1.16.16 0 0 0-.13.03L7.1 11.56a.24.24 0 0 0-.1.16l-.03.11-.05.34c0 .13.02.24.07.32l.8 1.24c.06.08.14.13.23.15l.5.12a.1.1 0 0 0 .1-.03l1.45-1.4c.06-.06.08-.16.09-.3 0-.09 0-.21-.03-.37v-.07a.21.21 0 0 0-.05-.1Z" fill="#FFBC01"/></svg>