<!-- by TradingView --><svg width="18" height="18" viewBox="0 0 18 18" xmlns="http://www.w3.org/2000/svg"><path fill="#F0F3FA" d="M0 0h18v18H0z"/><path d="M9.98 4H15l-1.98 3H8l1.98-3Zm-5 7H10l-1.98 3H3l1.98-3ZM12 8H7.55L6 10h4.45L12 8ZM6.64 4H9l-4.2 6C4.7 9.89 4 8.9 4 6.92A2.7 2.7 0 0 1 6.64 4ZM9 14h2.36c.88-.01 2.64-.62 2.64-2.92 0-1.98-.7-2.97-.8-3.08L9 14Z" fill="url(#aandqdr3t)"/><defs><linearGradient id="aandqdr3t" x1="6.08" y1="4" x2="10.62" y2="13.62" gradientUnits="userSpaceOnUse"><stop offset=".15" stop-color="#304C7B"/><stop offset=".48" stop-color="#3599BB"/><stop offset=".74" stop-color="#3E9DB5"/><stop offset=".99" stop-color="#A8CA6B"/></linearGradient></defs></svg>