<!-- by TradingView --><svg width="18" height="18" viewBox="0 0 18 18" xmlns="http://www.w3.org/2000/svg"><path fill="#F0F3FA" d="M0 0h18v18H0z"/><path d="M4.23 10.5A5 5 0 0 0 9.06 14h.6c.52-.63 1.43-2.17 1.84-2.81-.11-.16-.45-.08-.65-.11l-.47.08-.43.05c-1 .06-1.15.21-2.2.01-.1 0-.62-.06-.67-.03-.81.04-2.04-1.16-2.85-.7Zm9.07.2c-.28.27-1.09.24-1.4.35-.03.15-.97 1.73-1.17 2.07-.12.19-.34.51-.4.7a5.05 5.05 0 0 0 3.43-3.29s-.02-.13-.27.01l-.19.16Z" fill="#334972"/><path d="m9.95 11.21.43-.05.47-.08-1.22-.2h1.25l-.94-.63.94.31c-.08-.13-.62-.7-.7-.75a.94.94 0 0 0-.44.2c-.12.1-.1.22-.11.44l-.32.2c-.03.53.86.02.64.56Z" fill="#4B68AE"/><path d="m11.15 9 .34 1.02c.08-.12.16-.75.18-.94.07-.57-.31-.16-.52-.07Z" fill="#4A69AC"/><path d="M7.74 11.22c.28.06.55.19.83.14-.1-.37-.15-.16-.01-.55-.28.05-.53.18-.83.16.05.1.05.15.01.25Zm2.93-1.85.42.58.07.1.1.1-.16-1.1c-.12.07-.34.2-.43.32Z" fill="#4A69AA"/><path d="M8.69 9.13c.2.18.66.17.93.18.02-.24.02-.37-.43-.62-.11.07-.4.34-.5.44Z" fill="#31496E"/><path d="M11.65 11.19c.14-.04.65-.06.41-.5-.05-.1-.17-.14-.32-.12-.14.01-.23.15-.24.3-.02.36.08.27.15.32Z" fill="#354971"/><path d="M4.23 10.5c.34 0 .42-.2.77.04.2.15 1.06.64 1.27.7.19.04.62.04.8-.05l.03-.01c-.15-.14-.23-.23-.35-.25a.53.53 0 0 1-.34-.28c.06-.26.33-.26.3-.44-.05-.26-.1-.1-.22-.23-.01 0-.3-.82-.3-.98 0-.63 1.18-1.81 1.63-1.95.97-.3 1.18-.24 1.5-.24a.74.74 0 0 1 1.03-.56c.08.04.42.42.48.52a.3.3 0 0 1 .05.17c-.02.17-.18.33-.23.47.08.18.21.24.2.43-.2-.09-.09-.2-.34-.23-.27.2-.44.52-.8.27a.64.64 0 0 0-.08.26c-.01.23.3.38.5.6l.42.46.9-.58c-.12-.23-.28-.33-.35-.56.26.11.76.62.9.87-.13.11-.1.07-.19.07v.94c.21-.2.32-.72.5-.94l-.27 1.11c.04-.06.64-.76.71-.8l-.47.9c.36-.11.77-.48 1.1-.59l-.94.83 1.25-.2c-.13.1-.88.3-1.13.43l.74.02.19-.16c.25-.14.27 0 .27 0A5.03 5.03 0 0 0 9 4a5.05 5.05 0 0 0-4.77 6.48Z" fill="#4A68AE"/></svg>