<!-- by TradingView --><svg width="18" height="18" viewBox="0 0 18 18" xmlns="http://www.w3.org/2000/svg"><path fill="#F0F3FA" d="M0 0h18v18H0z"/><path d="M14.95 8.25c-.07.3-.18.5-.31.6-.18.14-.39.1-.63-.1l-.16-1.09a6.91 6.91 0 0 0-2.14-3.38 5.12 5.12 0 0 0-2.85-1.15c-.07 0-.08-.02 0-.05.18-.1.5-.1.93-.04.33.04.65.12.96.22a5.68 5.68 0 0 1 4.2 4.99Z" fill="#34A0E2"/><path d="m13.41 6.78-.05.04a5.27 5.27 0 0 0-2.94-2.36 4.79 4.79 0 0 0-1.65-.31c-1.15.05-2.13.4-2.93 1.04a4.29 4.29 0 0 0-1.56 2.66c-.11-.38-.28-.55-.5-.52-.19.02-.38.18-.6.46.17-1.09.62-2.02 1.36-2.8a5.56 5.56 0 0 1 2.69-1.57c.79-.21 1.58-.21 2.39 0a5.52 5.52 0 0 1 3.8 3.36Z" fill="#0462B4"/><path d="m11.96 8.55-.07.07L8.06 5.7c-.03-.03-.06-.02-.08.02l-.02.05L7.86 7c0 .05-.02.06-.06.02-.03-.03-.07-.04-.1-.01-.07.03-.12.02-.16-.04l-.28-.35-.02-.79c0-.25.1-.5.32-.74.05-.06.1-.06.15 0l.25.32c.08.12.17.21.27.29l3.73 2.86Z" fill="#34A0E2"/><path d="M7.96 5.76 8 7.94l-.22.26c-.03.04-.07.05-.1 0l-.43-.37V6.6l.29.35c.04.06.09.07.15.04.04-.03.08-.02.11.01.04.04.06.03.07-.02l.09-1.23Z" fill="url(#a)"/><path d="M4.28 7.85c-.13.8-.1 1.62.1 2.48-.3-.37-.66-.53-1.08-.5l-.1-.8c0-.02 0-.03-.02-.02h-.01c-.01 0-.02 0-.02.02-.05.25-.05.5.01.77a.19.19 0 0 1-.13 0 5.65 5.65 0 0 1 .16-2.01c.2-.28.4-.44.58-.46.23-.03.4.14.51.52Z" fill="url(#b)"/><path d="m8 7.94.02 2.04c0 .04-.02.06-.06.06l-.65.1c-.04 0-.06 0-.06-.05V7.83l.43.38c.03.04.07.03.1 0L8 7.93Z" fill="#0462B4"/><path d="M14.95 8.25a6.04 6.04 0 0 1-.52 3.38c-.38.1-.62.06-.72-.13-.07-.12-.1-.36-.07-.73.23-.62.36-1.3.37-2.02.24.2.45.24.63.1.13-.1.24-.3.3-.6Z" fill="url(#c)"/><path d="m11.89 8.62.07-.07 1.29 1c.05.04.1.06.15.04l.33-.08h.05c.03.02.02.03-.02.05a12.14 12.14 0 0 1-5.04 1.09c-1.27.02-2.54-.02-3.8-.12-.31-.02-.31-.04 0-.06a67.9 67.9 0 0 0 8.07-.8c.14-.03.16-.09.05-.17l-1.15-.88Z" fill="#1E7EC8"/><path d="M4.39 10.33a4.1 4.1 0 0 0 2.78 2.87 7.18 7.18 0 0 0 3.27.33l.01.05c0 .03 0 .04-.02.05a6.21 6.21 0 0 1-3.79-.02A5.02 5.02 0 0 1 3.3 9.83c.42-.03.78.13 1.09.5Z" fill="#34A0E2"/><path d="m3.16 9.8.22.69a4.9 4.9 0 0 0 2.36 2.82 6.05 6.05 0 0 0 6.08-.26 4.52 4.52 0 0 0 1.82-2.28c-.02.37 0 .61.07.73.1.19.34.23.72.13A6.16 6.16 0 0 1 8.85 15a5.7 5.7 0 0 1-2.6-.66A5.55 5.55 0 0 1 3.03 9.8c.04.02.08.02.13 0Z" fill="#0462B4"/><path d="M12.89 10.87c-.22.71-.65 1.23-1.3 1.56a3.26 3.26 0 0 1-2.74.05l-.78-.32a3.4 3.4 0 0 0-2.35-.06h-.03v-.04a3.36 3.36 0 0 1 2.43-.97c.24 0 .64.06 1.2.19l.75.15c1 .1 1.9-.1 2.73-.62.09-.06.12-.04.09.06Z" fill="#0462B4"/><defs><linearGradient id="a" x1="7.63" y1="7.13" x2="7.63" y2="7.85" gradientUnits="userSpaceOnUse"><stop stop-color="#34A0E2"/><stop offset="1" stop-color="#0462B4"/></linearGradient><linearGradient id="b" x1="3.69" y1="7.86" x2="3.94" y2="9.73" gradientUnits="userSpaceOnUse"><stop stop-color="#0462B4"/><stop offset="1" stop-color="#34A0E2"/></linearGradient><linearGradient id="c" x1="14.71" y1="8.98" x2="14.06" y2="11.09" gradientUnits="userSpaceOnUse"><stop stop-color="#34A0E2"/><stop offset="1" stop-color="#0462B4"/></linearGradient></defs></svg>