<!-- by TradingView --><svg width="18" height="18" viewBox="0 0 18 18" fill="none" xmlns="http://www.w3.org/2000/svg">
<rect width="18" height="18" fill="#F0F3FA"/>
<path d="M4.14232 8.12197C4.12548 7.95618 4.05449 7.82708 3.92935 7.73469C3.80542 7.6423 3.64419 7.59611 3.44566 7.59611C3.30609 7.59611 3.18637 7.61826 3.0865 7.66255C2.98664 7.70685 2.91023 7.76697 2.85729 7.8429C2.80435 7.91884 2.77728 8.00554 2.77607 8.10299C2.77607 8.18399 2.79352 8.25423 2.82841 8.31372C2.86451 8.3732 2.91324 8.42383 2.9746 8.46559C3.03597 8.50609 3.10395 8.54026 3.17855 8.56811C3.25315 8.59595 3.32835 8.61936 3.40415 8.63835L3.75068 8.72947C3.89025 8.76364 4.02441 8.80984 4.15315 8.86806C4.2831 8.92628 4.39921 8.99968 4.50148 9.08828C4.60496 9.17687 4.68678 9.28382 4.74694 9.40911C4.8071 9.53441 4.83718 9.68122 4.83718 9.84955C4.83718 10.0774 4.78183 10.278 4.67114 10.4514C4.56044 10.6235 4.40041 10.7583 4.19105 10.8557C3.9829 10.9519 3.73082 11 3.43483 11C3.14726 11 2.8976 10.9532 2.68583 10.8595C2.47527 10.7659 2.31043 10.6292 2.19131 10.4495C2.0734 10.2697 2.00963 10.0508 2 9.7926H2.65876C2.66839 9.92802 2.70809 10.0407 2.77788 10.1305C2.84766 10.2204 2.93851 10.2875 3.05041 10.3318C3.16351 10.376 3.28985 10.3982 3.42942 10.3982C3.57501 10.3982 3.70255 10.3754 3.81204 10.3299C3.92274 10.283 4.00937 10.2185 4.07193 10.1362C4.1345 10.0527 4.16639 9.95523 4.16759 9.84385C4.16639 9.7426 4.13811 9.65907 4.08276 9.59326C4.02742 9.52618 3.94981 9.4705 3.84994 9.4262C3.75128 9.38064 3.63577 9.34014 3.50342 9.3047L3.08289 9.19079C2.77848 9.10853 2.53784 8.98386 2.36096 8.8168C2.1853 8.64847 2.09746 8.42509 2.09746 8.14665C2.09746 7.91758 2.15642 7.71698 2.27433 7.54485C2.39345 7.37273 2.55528 7.2392 2.75983 7.14428C2.96438 7.04809 3.196 7 3.45469 7C3.71699 7 3.9468 7.04809 4.14413 7.14428C4.34266 7.2392 4.49847 7.37146 4.61158 7.54105C4.72468 7.70938 4.78303 7.90302 4.78664 8.12197H4.14232Z" fill="black"/>
<path d="M5.36484 7H6.18869L7.21568 9.87043H7.259L8.35633 7H9.18302V11H8.54666V8.27005L7.47738 11H6.9973L6.0012 8.26436V11H5.36484V7Z" fill="black"/>
<path d="M10 11V7H11.5097C12.2352 7 12.8182 7.59036 12.8182 8.34029C12.8182 9.10795 12.2163 9.66667 11.5007 9.66667H10.4207V9H11.4104C11.8304 9 12.1818 8.80524 12.1818 8.34029C12.1818 7.85983 11.8162 7.66667 11.4068 7.66667H10.5909V11H10Z" fill="black"/>
<path d="M13.2101 11V7L14.6969 7C15.406 7 16 7.59175 16 8.34029C16 9.10326 15.4203 9.66667 14.6879 9.66667H13.679V9H14.5977C15.0104 9 15.3636 8.8429 15.3636 8.34029C15.3636 7.88653 15.0107 7.66667 14.594 7.66667H13.8464V11H13.2101Z" fill="black"/>
</svg>
