<!-- by TradingView --><svg width="18" height="18" viewBox="0 0 18 18" xmlns="http://www.w3.org/2000/svg"><path fill="#00161E" d="M0 0h18v18H0z"/><path fill-rule="evenodd" d="M9.26 7.53c-.34-.65-1-1.96-1.02-2.02-.01-.07-.22-.28-.3-.14-.29-.48-.97-1.5-1.35-1.64-.06 0-.16.08-.09.27-.18-.33-.6-.99-.78-1-.22-.01-.13.63.33 1.5L4.95 3.2c-.07.06-.2.24-.11.43.09.2.24.42.31.51l-.75-.76c-.06.15-.11.5.12.7.22.2.55.58.68.74L4 3.96c0 .16.03.51.24.69.22.17.73.47.96.6l-1.1-.4c.06.18.26.54.52.66.26.13.4.17.44.18H4.4c.05.18.23.57.5.58.28.02.48-.04.54-.07-.1.08-.4.22-.82.16.06.16.23.49.53.52.3.03.53-.02.61-.05-.07.09-.3.25-.66.16-.02.17.02.54.34.6.24.03.55-.07.78-.17l-.71.35c.08.12.29.33.5.22.26-.14.8-.32.75-.3l-.86.43c.07.13.28.35.54.26.21-.07.38-.14.46-.18l-.58.28c.04.12.2.33.38.3.19-.02.51-.2.65-.3l-.55.44c0 .05.04.16.27.15.13-.01.26-.07.38-.14-.17.13-.35.26-.32.27l.02.03c.04.05.14.18.59.12-.06.15-.07.47.34.57l-.2.1.16.12c-.36.1-1.26.36-1.87.68.02.1.2.3.72.2l-.39.22c.04.1.2.26.49.19.26-.06.5-.24.62-.34-.18.17-.44.48-.26.56.2.09.54-.11.7-.22-.1.13-.25.4-.1.43.14.05.48-.12.63-.2.01.08.06.26.2.33.14.06.38-.1.48-.2 0 .07.03.2.19.2.19 0 .3-.12.3-.34v-.5c.1.2.38.6.62.55.25-.04.44-.32.51-.46.03.1.12.29.32.24.23-.05.57-.54.56-.6 0-.06-.1-.36-.56-.39-.08 0-.25.02-.32.1v-.43c.03.06.14.19.35.19.22 0 .28-.08.28-.12.02.04.1.12.2.12s.16-.08.18-.12c.02.04.08.12.2.12.1 0 .16-.13.17-.19.04.06.14.19.25.19.1 0 .2-.13.23-.19.1.03.32.06.44 0 .13-.05.02-.14-.06-.18.2.05.58.13.6 0 .04-.13-.1-.18-.17-.19.14.02.43.03.5-.04.07-.08-.16-.25-.28-.32.16 0 .49-.05.55-.18.07-.13-.25-.25-.42-.3.19.05.6.09.74-.13.14-.2-.2-.23-.44-.22.23-.02.63-.07.77-.17.18-.14-.44-.25-.82-.27l-.42-.02.35-.22a4.37 4.37 0 0 0-1.3-.14c.04-.08-.23-.2-1.5 0-.04-.17-.29-.5-1.04-.5-.5 0-.76.23-.82.35l-.16-.1Zm-.07.09-.02-.03c-.15-.26-1.26-2.19-2.33-3.41-.05-.03-.15-.1-.24-.08-.1.01 0 .18.26.43.2.2 1.64 2.14 2.33 3.09Zm-.57-.3a71.93 71.93 0 0 0-1.4-1.87c-.35-.43-.5-.6-.6-.63-.1-.02-.24.15.04.46.22.25 1.4 1.46 1.96 2.03Zm-1.7-1.33a4 4 0 0 1 1.23 1.17L6.94 6.4c-.27-.17-.32-.22-.28-.31.03-.1.16-.11.25-.11Zm4.5 2.19c.03-.09.26-.26 1-.26.94 0 1.27.3.98.34-.15.02-.3 0-.48-.03-.14-.03-.3-.05-.5-.05h-1Zm1.41.24a4 4 0 0 0-1.26 0c.21.04.76.14 1.26.26.64.14.67.05.67 0s0-.15-.67-.26Zm-.78.38c.14-.03.53-.06.9.05.45.14.45.24.45.29 0 .05-.03.14-.47-.03-.36-.13-.73-.26-.88-.3Zm-1.86.48c.18.08.2.2.19.24.14-.13.5-.56.5-.84 0-.28-.28-.68-.76-.68-.37 0-.49.31-.5.47 0 .53.35.7.57.8Zm.18-.77c0-.09-.08-.15-.11-.17.13.02.4.11.4.33 0 .22-.14.28-.2.28-.08-.02-.23-.07-.23-.17 0-.07.04-.11.08-.16.03-.03.06-.07.06-.1Zm-1.26.28c.07.19.32.6.71.8-.75.36-.78-.38-.7-.8Zm1.74.35-.2.3.19-.03c.16-.15.48-.47.48-.56 0-.13-.03-.3-.17-.32-.11-.02-.13.04-.13.08.04.01.12.08.13.22.01.14-.2.26-.3.31ZM9 6.03l.25.6h2.92c.19 0 .26.14.26.34v.58H13v-.58c0-.62-.47-.94-1.05-.94H9ZM5 7.85v4.13c0 .56.48 1.02 1.07 1.02H13v-2.47l-.64.13v1.73H6c-.28 0-.36-.1-.36-.37V8.3L5 7.85Z" fill="#fff"/></svg>