<!-- by TradingView --><svg width="18" height="18" viewBox="0 0 18 18" xmlns="http://www.w3.org/2000/svg"><path fill="#F0F3FA" d="M0 0h18v18H0z"/><path d="M11.9 7.36a679.7 679.7 0 0 0-1.3-3.33 1.55 1.55 0 0 0-.9-.9 1.8 1.8 0 0 0-2.13.58c-.08.1-.16.28-.25.51l-1.2 3.11-1.8 4.63-.3.77c-.04.09-.03.16.07.19.04 0 .08 0 .14-.04a624 624 0 0 0 3.13-1.7c.26-.14.43-.26.52-.35.2-.18.34-.4.41-.67a838.95 838.95 0 0 0 .62-2.48c.07-.07.19-.03.2.06l.6 2.47.1.23c.12.2.27.38.46.52l.57.33.5.27.62.34 1.79.97c.05.03.1.05.13.04.07 0 .1-.04.12-.1v-.05l-.92-2.35-1.18-3.05Z" fill="url(#a)"/><path d="M8.52 12.07c.17-.27.27-.56.35-.86.04-.12.23-.1.26 0 .1.35.22.64.35.88.35.53.95.72 1.57.86.08.02.1.14.05.19-.02.02-.05.04-.1.05-.31.07-.65.17-.92.31a1.6 1.6 0 0 0-.72.78c-.1.23-.18.44-.23.63-.01.04-.05.08-.08.08-.12.03-.16-.02-.2-.12-.16-.6-.4-1.13-1.03-1.41-.24-.11-.52-.2-.86-.28-.1-.02-.11-.13-.07-.19.02-.02.06-.04.11-.05.61-.15 1.2-.34 1.52-.87Z" fill="url(#b)"/><defs><linearGradient id="a" x1="9" y1="3" x2="9" y2="15" gradientUnits="userSpaceOnUse"><stop stop-color="#C21D33"/><stop offset=".24" stop-color="#DD2F2E"/><stop offset=".69" stop-color="#FF7036"/><stop offset="1" stop-color="#FFA649"/></linearGradient><linearGradient id="b" x1="9" y1="3" x2="9" y2="15" gradientUnits="userSpaceOnUse"><stop offset=".69" stop-color="#FF7036"/><stop offset="1" stop-color="#FFA649"/></linearGradient></defs></svg>