<!-- by TradingView --><svg width="18" height="18" viewBox="0 0 18 18" xmlns="http://www.w3.org/2000/svg"><path fill="#F0F3FA" d="M0 0h18v18H0z"/><path fill="#E52925" d="M3 6h12v6H3z"/><path fill-rule="evenodd" d="M5.03 7h1.62l.7 1h.06l.7-1h.3l-.88 1.25V11h-.3V8.25l-.7-1H5.18c-.36.16-.89.54-.89.87 0 .34.22.6.44.87s.45.54.45.87c0 .46-.29.89-.75 1.14l-.14-.25c.36-.2.6-.54.6-.89 0-.32-.22-.58-.44-.84-.23-.27-.45-.54-.45-.89 0-.45.54-.91 1.03-1.13ZM8.4 7h.3v3.75h.64L10.18 7h.3l.87 4h-.3l-.38-1.75h-.7L9.6 11H8.4V7Zm1.91.67.3 1.33h-.6l.3-1.33Zm-4.61-.42H6V11h-.3V7.25ZM12.24 7h-.3l-.59 4h.3l.5-3.26.38 1.26h.3l.36-1.26.52 3.26H14l-.59-4h-.3l-.43 1.25L12.24 7Z" fill="#fff"/></svg>