<!-- by TradingView --><svg xmlns="http://www.w3.org/2000/svg" width="18" height="18" viewBox="0 0 18 18"><path fill="#F0F3FA" d="M0 0h18v18H0z"/><path d="M9 15a6 6 0 0 0 5.55-8.3h-2.33c-.1 0-.2.09-.23.19l-.48 1.5c-.04.15.07.3.23.3h1.16c.16 0 .28.15.23.3l-.03.1a.24.24 0 0 1-.23.16h-1.54c-.1 0-.2.07-.23.16l-.61 1.69c-.05.15.06.25.23.25h1.21c.17 0 .29.22.23.37l-.06.13a.24.24 0 0 1-.22.15H8.53c-.34 0-.57-.32-.45-.63l1.76-4.33c.06-.15-.06-.32-.23-.32h-.2c-.1 0-.19.06-.22.15l-2.06 4.98a.24.24 0 0 1-.22.15H3.8A6 6 0 0 0 9 15zm-5.52-3.65A6 6 0 0 1 14.2 6H7.53a.36.36 0 0 0-.34.22l-2.1 5.04c-.03.09-.12.09-.22.09h-1.4z" fill="#19A852"/></svg>