<!-- by TradingView --><svg width="18" height="18" viewBox="0 0 18 18" fill="none" xmlns="http://www.w3.org/2000/svg">
<rect width="18" height="18" fill="#F0F3FA"/>
<path d="M10.3 4C11.7031 4.47396 13.3024 6.06089 13.3 8.09635C13.3 9.03581 12.9909 9.77185 12.7828 10.1445C12.6174 10.4408 12.3756 10.5 12.2213 10.5C11.7806 10.4957 11.6996 9.95631 11.8752 9.60496C12.1013 9.1523 12.3 8.73958 12.3 7.84245C12.3 6.47133 11.5781 5.32031 10.3 4Z" fill="#356D24"/>
<path d="M13.9962 8.31627C13.9962 7.48005 13.8516 6.82031 13.5078 5.99854C14.6094 6.9375 15 8.10945 15 9.04691C15 10.8125 13.5313 13 12.5179 13C12.1231 13 12.0041 12.6822 12 12.4873C11.9975 12.3708 12.0627 12.1563 12.1962 12.0222C13.349 10.8648 13.9962 9.85936 13.9962 8.31627Z" fill="#356D24"/>
<path d="M7.7052 4C6.30217 4.47396 4.70281 6.06089 4.7052 8.09635C4.7052 9.03581 5.01432 9.77185 5.22243 10.1445C5.38785 10.4408 5.62966 10.5 5.78396 10.5C6.22464 10.4957 6.30562 9.95631 6.13008 9.60496C5.90392 9.1523 5.7052 8.73958 5.7052 7.84245C5.7052 6.47133 6.42717 5.32031 7.7052 4Z" fill="#356D24"/>
<path d="M3.99999 8.31627C3.99999 7.48004 4.15369 6.82031 4.49744 5.99854C3.39587 6.9375 2.99999 8.10945 2.99999 9.04691C3 10.8125 4.47399 13 5.48738 13C5.88213 13 5.99588 12.6822 5.99999 12.4873C6.00245 12.3708 5.94259 12.1563 5.809 12.0222C4.65627 10.8648 3.99999 9.85936 3.99999 8.31627Z" fill="#356D24"/>
<path fill-rule="evenodd" clip-rule="evenodd" d="M11.5 10.3241C11.5 11.7206 10.5488 13 8.95002 13C7.22979 13 6.40002 11.7305 6.40002 10.3241C6.40002 9.54444 6.89965 8.71699 7.4155 7.86267C7.50232 7.71889 7.58959 7.57435 7.67502 7.42915C8.1169 6.67813 8.51737 6.00055 8.75328 5.61388C8.79924 5.53855 8.86957 5.50055 8.95002 5.50001C9.03118 5.49946 9.12247 5.53703 9.16916 5.61285C9.19892 5.66115 9.23156 5.71401 9.26675 5.771C9.51306 6.1699 9.88434 6.7712 10.2655 7.42915C10.3426 7.56225 10.4209 7.69452 10.4988 7.82601C11.0094 8.68855 11.5 9.51724 11.5 10.3241ZM10 10.5903C10 11.114 9.62701 11.5938 9.00003 11.5938C8.32543 11.5938 8.00003 11.1177 8.00003 10.5903C8.00003 10.2979 8.19596 9.98762 8.39826 9.66725C8.4323 9.61334 8.46653 9.55913 8.50003 9.50468C8.67331 9.22305 8.83429 8.96896 8.9268 8.82396C8.94431 8.79651 8.96939 8.78228 9.00003 8.7813C9.03274 8.78026 9.07106 8.79434 9.08989 8.82357C9.18323 8.96847 9.34507 9.2227 9.5159 9.50468C9.54614 9.55459 9.57685 9.6042 9.60738 9.6535C9.80763 9.97696 10 10.2877 10 10.5903Z" fill="#FD671B"/>
</svg>
