<!-- by TradingView --><svg width="18" height="18" viewBox="0 0 18 18" xmlns="http://www.w3.org/2000/svg"><path fill="#F0F3FA" d="M0 0h18v18H0z"/><path d="M11.83 6.58h-.03l-2.2 2.9a.1.1 0 0 1-.04.02l-.04.02h-.87l-.02-.02.01-.06.13-.18a594.81 594.81 0 0 0 3.04-3.96h.01l.02.01 3.15 4.13.01.03v.02l-.02.02h-.92l-.02-.02-2.21-2.9ZM3.8 6.43l-.04-.05c-.03-.03 0-.04.03-.04h.6v.65c0 .04-.04.06-.07.07a.5.5 0 0 1-.28 0h-.08c-.02.01-.02.03-.01.05.1.16.22.26.39.3.01.01.06.03.06.05V7.85c0 .05-.01.1.02.14l.07.08.1.13c.06.04.08.03.08-.05V6.37c0-.02.01-.03.03-.03h.53V7c0 .02-.01.03-.03.03-.08 0-.1 0-.18.02a.08.08 0 0 0-.04.02.1.1 0 0 0-.03.03.12.12 0 0 0 0 .1c.12.22.28.4.47.53.09.05.18-.02.19-.13v-.2c0-.02.02-.05.03-.05h.4c.02 0 .03.03.03.05v.43c0 .06.02.1.05.15l.02.02.13.22c.05.06.08.05.08-.04V6.34h.7c.01 0 .02 0 .02.02v.57a.1.1 0 0 1-.01.05L7.03 7a.07.07 0 0 1-.08 0c-.08-.06-.2-.14-.28-.1a.1.1 0 0 0-.05.06v.07c.02.07.06.13.1.19l.84.99c.04.05.1.05.14 0l.01-.02c.03-.05.03-.1-.01-.14l-.59-.62V7.4l.01-.01c.12-.03.17-.1.22-.18a.92.92 0 0 1 .07-.11c.12-.16.4-.31.5-.01.07.22-.17.33-.32.36l-.02.02a.04.04 0 0 0 0 .03l.21.24c.06.05.1.02.16-.01.16-.1.26-.3.21-.5-.08-.4-.4-.66-.75-.54h-.02v-.01l-.01-.02c0-.1-.03-.18-.1-.24-.09-.08-.07-.1.04-.1h.94c.03 0 .05-.02.05-.06v-.2c0-.03-.01-.07-.05-.07H6.28a2.9 2.9 0 0 0-.42-.82c-.11-.16-.34-.19-.5-.17h-.02l-.02.03a.06.06 0 0 0 0 .05c.03.09.07.17.13.24.02.02.03.02.05.02.15-.02.27-.02.37.12.1.13.19.28.25.5 0 .02 0 .03-.02.03H3.05c-.03 0-.05.04-.05.08v.17c0 .05.02.09.06.09h.5v.64c0 .06-.05.1-.1.07L3.42 7c-.07-.06-.15-.13-.23-.13a.1.1 0 0 0-.04.02.11.11 0 0 0-.03.03.14.14 0 0 0-.03.04v.05c0 .09.04.17.1.25.29.33.56.66.81.97.03.03.06.03.08 0l.07-.05.02-.03a.08.08 0 0 0-.02-.08l-.58-.6-.01-.02v-.03h.02c.18-.04.29-.16.33-.38l-.01-.42c0-.1-.05-.15-.1-.2Zm1.82-.1h.42c.02 0 .03.02.03.03v.62L6.05 7h-.42a.03.03 0 0 1-.03-.02v-.62l.02-.02Z" fill="#C83A2B"/><path d="m10.04 9.61 1.75-2.42.01-.01h.03l1.76 2.43v.04l-.01.02h-3.53l-.02-.02a.04.04 0 0 1 .01-.04Z" fill="#1F1B17"/><path d="M4.55 8.99c.13-.05.23-.15.2-.32-.05-.18-.26-.12-.34-.04-.04.04-.08.03-.11 0l-.16-.19v-.01a.05.05 0 0 1 0-.04v-.02c.05-.05.1-.07.17-.08.2-.03.37.02.5.16.15.16.2.44.09.64a.4.4 0 0 1-.3.2c-.38.06-.7-.2-.93-.53l-.01-.03v-.02c0-.04.01-.06.03-.07.03-.02.06-.01.08.02l.23.23a.5.5 0 0 0 .55.1ZM6.22 12.68h.02l2.2-2.97a.08.08 0 0 1 .07-.04h.89l.01.02a.04.04 0 0 1 0 .04l-3.15 4.25c-.03.03-.05.03-.07 0a3623.3 3623.3 0 0 1-3.16-4.3h.87l.07.01.06.05a549.26 549.26 0 0 0 2.2 2.94Z" fill="#C83A2B"/><path d="m8 9.71-1.76 2.35H6.2L4.44 9.71v-.03h3.57a.03.03 0 0 1 0 .03Z" fill="#1F1B17"/></svg>