<!-- by TradingView --><svg width="18" height="18" viewBox="0 0 18 18" xmlns="http://www.w3.org/2000/svg"><path fill="#CE3209" d="M0 0h18v18H0z"/><path d="M4.88 11.23c.1.07.26.14.5.2.23.07.49.1.78.1.29 0 .53-.08.72-.25.2-.16.29-.38.29-.66 0-.42-.26-.77-.78-1.04l-.61-.26c-.28-.1-.47-.19-.59-.24a5.23 5.23 0 0 1-.4-.23c-.15-.1-.27-.2-.36-.3a1.3 1.3 0 0 1-.31-.89c0-.51.2-.91.6-1.21.41-.3.94-.45 1.6-.45.49 0 .95.08 1.38.23a4.26 4.26 0 0 1-.07 1.42l-.52.06c-.07-.63-.15-.99-.25-1.06-.14-.12-.4-.18-.8-.18-.37 0-.67.08-.88.22a.7.7 0 0 0-.31.63c0 .15.03.3.1.42.06.12.18.24.36.34a9.51 9.51 0 0 0 1.05.5 3.76 3.76 0 0 1 1.12.6c.33.26.5.64.5 1.14 0 .5-.2.9-.58 1.22-.38.3-.9.46-1.56.46a4.91 4.91 0 0 1-1.83-.36 4.8 4.8 0 0 1 .08-1.4l.51-.03c.05.4.09.67.12.79.04.11.08.2.14.23ZM10.88 11.23c.1.07.26.14.5.2.23.07.49.1.78.1.29 0 .53-.08.72-.25.2-.16.29-.38.29-.66 0-.42-.26-.77-.78-1.04l-.61-.26c-.28-.1-.47-.19-.59-.24a5.22 5.22 0 0 1-.4-.23c-.15-.1-.27-.2-.36-.3a1.3 1.3 0 0 1-.31-.89c0-.51.2-.91.6-1.21.41-.3.94-.45 1.6-.45.49 0 .95.08 1.38.23a4.25 4.25 0 0 1-.07 1.42l-.52.06c-.07-.63-.15-.99-.25-1.06-.14-.12-.4-.18-.8-.18-.37 0-.67.08-.88.22a.7.7 0 0 0-.31.63c0 .15.03.3.1.42.06.12.18.24.36.34a9.5 9.5 0 0 0 1.05.5 3.76 3.76 0 0 1 1.12.6c.33.26.5.64.5 1.14 0 .5-.2.9-.58 1.22-.38.3-.9.46-1.56.46a4.91 4.91 0 0 1-1.83-.36 4.8 4.8 0 0 1 .08-1.4l.51-.03c.05.4.09.67.12.79.04.11.08.2.14.23Z" fill="#F0F3FA"/></svg>