<!-- by TradingView --><svg width="18" height="18" viewBox="0 0 18 18" xmlns="http://www.w3.org/2000/svg"><path fill="#F0F3FA" d="M0 0h18v18H0z"/><path d="M6.6 6.16h.04l7.48 2.78-.61 1.39-7.4-2.75a2.8 2.8 0 0 0-1.7.07c-.38.16-.77.52-.75 1.46.01.66.48 1.09 1.18 1.22.72.13 1.62-.08 2.24-.75l.01-.01 1-.97 1.72.59-1.48 1.36A4.25 4.25 0 0 1 4.5 11.8c-1.32-.25-2.47-1.17-2.5-2.65-.04-2.36 2.19-3.6 4.6-2.98Zm4.78.1s-.81.32-1.47.83l1.8.68c1.3-.47 2.6.15 2.6 1.37 0 .62-.4 1.25-1.27 1.38a3.9 3.9 0 0 1-3.09-1.05l-1.16 1.05a5.32 5.32 0 0 0 4.44 1.43c1.44-.22 2.74-1.22 2.77-2.75.04-2.35-2.25-3.54-4.62-2.93Zm-3.8 2.45c-.6-.2-2.3-.73-3.25-.85 0 0-.55.51-.45 1.41 0 0 1.86.38 2.45.57l1.25-1.13Z" fill="url(#a)"/><defs><linearGradient id="a" x1="16" y1="9.35" x2="2" y2="9.63" gradientUnits="userSpaceOnUse"><stop stop-color="#424F6A"/><stop offset=".5" stop-color="#3391B5"/><stop offset="1" stop-color="#BDC12D"/></linearGradient></defs></svg>