<!-- by TradingView --><svg xmlns="http://www.w3.org/2000/svg" width="18" height="18"><path fill="#F0F3FA" d="M0 0h18v18H0z"/><path d="M7.18 4.94c.22 0 .4-.1.4-.22s-.18-.22-.4-.22c-.21 0-.4.1-.4.22s.19.22.4.22z" fill="#C91522"/><path d="M4 13h.48l2.88-8.06-.4-.08L4 13z" fill="#C91522"/><path d="M7.36 4.88c.22.3 1.13.8 3.07.31 1.76-.44 3.95-.09 3.73.57l-1.32 4.39c-.87-.44-1.75-.66-4.6-.22-.8.14-2.42.3-2.42.13a5.55 5.55 0 001.36-4.22c-.04-.34-.08-.7.18-.96zm2.78 3.64a1.1 1.1 0 100-2.2 1.1 1.1 0 000 2.2z" fill="#C91522"/></svg>