<!-- by TradingView --><svg width="18" height="18" viewBox="0 0 18 18" xmlns="http://www.w3.org/2000/svg"><path fill="#F0F3FA" d="M0 0h18v18H0z"/><path d="m7.21 4.33 2.73 2.01v.94L5.99 5a5 5 0 0 1 1.22-.67Z" fill="url(#a)"/><path d="M8.43 4.03a5.06 5.06 0 0 1 .98-.01l.53.76v.65l-1.5-1.4Z" fill="url(#b)"/><path d="M5.24 5.7c-.23.27-.44.56-.6.87l5.3 2.27v-.78l-4.7-2.35Z" fill="url(#c)"/><path d="m9.94 9.63-5.8-1.84A5.01 5.01 0 0 0 4 9.03l5.94 1.38v-.79Z" fill="url(#d)"/><path d="m9.94 11.19-5.78-.91c.14.5.34.96.61 1.39l5.17.14v-.62Z" fill="url(#e)"/><path d="M9.99 12.75h-4.3a4.98 4.98 0 0 0 4.25 1.16l.05-1.16Z" fill="url(#f)"/><path d="M9.94 4.78v.63l1.18-.94a4.96 4.96 0 0 0-.82-.3l-.36.61ZM11.98 4.98 9.94 6.34v.94l2.77-1.64a5.03 5.03 0 0 0-.73-.66ZM13.3 6.45 9.94 8.06v.78l3.82-1.36c-.11-.37-.27-.71-.46-1.03ZM13.96 8.33l-4.02 1.3v.78l4.04-1.02a5.1 5.1 0 0 0-.02-1.06ZM13.72 10.65l-3.78.54v.62h3.2c.24-.36.44-.75.58-1.16ZM12.3 12.75H9.95v1.16c.9-.17 1.7-.58 2.37-1.16Z" fill="#003006"/><defs><linearGradient id="a" x1="4.78" y1="8.22" x2="9.94" y2="9.47" gradientUnits="userSpaceOnUse"><stop stop-color="#105D29"/><stop offset="1" stop-color="#74D31D"/></linearGradient><linearGradient id="b" x1="4.78" y1="8.22" x2="9.94" y2="9.47" gradientUnits="userSpaceOnUse"><stop stop-color="#105D29"/><stop offset="1" stop-color="#74D31D"/></linearGradient><linearGradient id="c" x1="4.78" y1="8.22" x2="9.94" y2="9.47" gradientUnits="userSpaceOnUse"><stop stop-color="#105D29"/><stop offset="1" stop-color="#74D31D"/></linearGradient><linearGradient id="d" x1="4.78" y1="8.22" x2="9.94" y2="9.47" gradientUnits="userSpaceOnUse"><stop stop-color="#105D29"/><stop offset="1" stop-color="#74D31D"/></linearGradient><linearGradient id="e" x1="4.78" y1="8.22" x2="9.94" y2="9.47" gradientUnits="userSpaceOnUse"><stop stop-color="#105D29"/><stop offset="1" stop-color="#74D31D"/></linearGradient><linearGradient id="f" x1="4.78" y1="8.22" x2="9.94" y2="9.47" gradientUnits="userSpaceOnUse"><stop stop-color="#105D29"/><stop offset="1" stop-color="#74D31D"/></linearGradient></defs></svg>