<!-- by TradingView --><svg width="18" height="18" viewBox="0 0 18 18" xmlns="http://www.w3.org/2000/svg"><path fill="#F0F3FA" d="M0 0h18v18H0z"/><path d="M5 5h8v8H5v-1h.5v.5h7v-7h-7V6H5V5Z"/><path d="M6.9 10.53 8.1 7.47h.62l1.22 3.06h-.66l-1-2.7h.25l-1 2.7H6.9Zm.6-.61.17-.61h1.4l.17.6H7.5ZM5.1 10.53a2.1 2.1 0 0 1-.62-.1c-.2-.06-.36-.14-.48-.24l.21-.52a1.46 1.46 0 0 0 .9.3c.13.01.23 0 .3-.03a.36.36 0 0 0 .17-.11c.04-.05.06-.1.06-.17a.22.22 0 0 0-.09-.18.63.63 0 0 0-.23-.12l-.3-.08a4.13 4.13 0 0 1-.34-.1 1.39 1.39 0 0 1-.31-.15.74.74 0 0 1-.23-.25.79.79 0 0 1-.09-.39.88.88 0 0 1 .5-.8 1.92 1.92 0 0 1 1.15-.06c.17.05.32.12.44.2l-.19.52a1.52 1.52 0 0 0-.75-.23.82.82 0 0 0-.3.05.35.35 0 0 0-.17.12.29.29 0 0 0-.05.17c0 .07.03.14.09.18.05.05.13.09.22.11a7 7 0 0 0 .65.19c.1.03.21.08.3.14.1.07.17.15.23.25s.1.23.1.38a.85.85 0 0 1-.52.8c-.17.08-.38.12-.64.12Z"/></svg>