<!-- by TradingView --><svg width="18" height="18" viewBox="0 0 18 18" xmlns="http://www.w3.org/2000/svg"><path fill="#F0F3FA" d="M0 0h18v18H0z"/><path d="M13.24 13.24a6 6 0 1 0-8.48-8.48 6 6 0 0 0 8.48 8.48Zm-6.63-2.8a6.55 6.55 0 0 1 1.32.09l.28-.5a.03.03 0 0 0 0-.02H8.2L8.19 10c-1.06-.01-1.83-.23-2.33-.66-.45-.4-.7-1.2-.26-1.72.16-.19.3-.3.4-.36l.35-.2a.1.1 0 0 0 .05-.1 2 2 0 0 1 .37-1.08c.3-.45.77-.84 1.19-1.2l.52-.46a.07.07 0 0 1 .08-.02l2.36.83h.06l.05-.05.16-.37c.03-.08.09-.1.16-.06l.07.04c.08.04.1.1.06.17l-1.15 2.08c-.02.03-.01.05.03.05.5-.04 1.01-.01 1.52.09.74.14 1.33.53 1.77 1.15.05.07.12.24.2.48.3.88-.07 1.92-.68 2.52a8.72 8.72 0 0 1-2.47 1.69l-.05-.01-1.37-.6a.18.18 0 0 0-.12 0l-.21.04c-.81.35-1.5.62-2.2.67l-.17.01c-.19.01-.33.03-.48 0-.43-.1-.84-.3-1.04-.74-.12-.3-.12-.6 0-.88.26-.57.96-.86 1.55-.88Zm3.65-4.33-.08-.05a3.73 3.73 0 0 0-1.65-.66c-.43-.07-1.05.08-1.21.54a.8.8 0 0 0-.03.52c.06.2.23.36.48.45.24.09.49.13.74.13a9.93 9.93 0 0 0 1.38-.14.23.23 0 0 0 .07-.08l.36-.62c.02-.03.01-.05-.02-.07l-.04-.02ZM9.21 8.15l-.33.65c0 .02-.02.03-.04.03-.63.06-1.5.1-2.18-.23-.25-.13-.4-.3-.45-.5-.07-.29.01-.54.25-.75a.08.08 0 0 1 .08-.02.08.08 0 0 1 .05.06c.03.1.07.17.13.23.62.68 1.6.6 2.47.51h.01v.02Zm2.68.78c.11.06.22.16.34.3.1.12.14.26.15.4.01.35-.12.66-.39.9a4.2 4.2 0 0 1-1.06.71c-.1.05-.1.1.01.14l.92.32c.03.01.06 0 .09-.01.33-.26.61-.59.86-1 .2-.35.3-.95.24-1.29-.07-.4-.26-.71-.56-.96-.23-.18-.55-.3-.98-.37a4.83 4.83 0 0 0-1.87.07l-.38.64c0 .02 0 .03.02.02a4.5 4.5 0 0 1 2.6.13Zm-3.4 1.7-.14-.02a.06.06 0 0 1-.05-.07v-.03l.29-.49a.1.1 0 0 1 .09-.05l.4-.04a8.86 8.86 0 0 1 1.82-.05c.3.04.38.27.25.53-.1.25-.35.41-.58.57a6.76 6.76 0 0 0-.25.15h-.1c-.64-.24-1.22-.4-1.73-.5Zm-.28 1.6c.07-.01.12-.04.15-.1a.06.06 0 0 1 .03-.02.06.06 0 0 1 .05 0c.04.02.09.01.13-.04a.05.05 0 0 0-.02-.09c-.32-.12-.66-.23-1.02-.34-.44-.14-.88-.2-1.32-.2-.41.01-.84.27-.72.72.05.18.19.3.4.38.68.25 1.5.05 2.15-.25l.17-.05Z" fill="#DF8230"/></svg>