<!-- by TradingView --><svg width="18" height="18" viewBox="0 0 18 18" xmlns="http://www.w3.org/2000/svg"><path fill="#F0F3FA" d="M0 0h18v18H0z"/><path fill-rule="evenodd" d="M13 12.96V5H5v7.97l.01.02h.02l7.93.01c.03 0 .04-.01.04-.04Zm-2.64-3.22c-.35-.08-.35-.47-.03-.56.47-.12.78.01.96.39.02.04.05.05.1.05h1.27c.03 0 .04 0 .04-.04-.1-.67-.5-1.07-1.2-1.2-.8-.14-2.38-.14-2.7.84-.43 1.28 1 1.6 1.97 1.83l.18.04c.6.14.63.8-.02.88-.52.05-.84-.14-.95-.59a.09.09 0 0 0-.04-.05.1.1 0 0 0-.05-.02h-1.3a.05.05 0 0 0-.04.02l-.01.02v.02c.08.52.3.9.66 1.15.57.39 1.74.4 2.42.23.33-.08.6-.22.82-.43.54-.53.58-1.4 0-1.88-.44-.35-1.1-.5-1.71-.62a20.1 20.1 0 0 1-.37-.08Z" fill="#E60112"/></svg>