<!-- by TradingView --><svg width="18" height="18" viewBox="0 0 18 18" xmlns="http://www.w3.org/2000/svg"><path fill="#F0F3FA" d="M0 0h18v18H0z"/><path d="M4 4v4.05l4.3-1.41L14 6.3V4H4Z" fill="url(#aj5rnzgkj)"/><path d="M4 7.96c0 1.85 2.96 1.88 4.43 1.66-.72-.1-2.18-.5-2.18-1.19 0-1.46 5.17-2.09 7.75-2.22-3.33-.19-10-.1-10 1.75Z" fill="url(#bj5rnzgkj)"/><path d="M14 14V9.95l-4.3 1.41-5.7.33V14h10Z" fill="url(#cj5rnzgkj)"/><path d="M14 10.04c0-1.85-2.96-1.88-4.43-1.66.72.1 2.18.5 2.18 1.19 0 1.46-5.17 2.09-7.75 2.22 3.33.19 10 .1 10-1.75Z" fill="url(#dj5rnzgkj)"/><defs><linearGradient id="aj5rnzgkj" x1="4.35" y1="6.02" x2="14.07" y2="6.02" gradientUnits="userSpaceOnUse"><stop stop-color="#D8251E"/><stop offset=".49" stop-color="#FAC100"/><stop offset="1" stop-color="#DA251C"/></linearGradient><linearGradient id="bj5rnzgkj" x1="5.25" y1="9.57" x2="9.14" y2="5.78" gradientUnits="userSpaceOnUse"><stop stop-color="#D64117"/><stop offset=".42" stop-color="#F5C002"/><stop offset="1" stop-color="#DD251D"/></linearGradient><linearGradient id="cj5rnzgkj" x1="13.65" y1="11.98" x2="3.93" y2="11.98" gradientUnits="userSpaceOnUse"><stop stop-color="#D8251E"/><stop offset=".49" stop-color="#FAC100"/><stop offset="1" stop-color="#DA251C"/></linearGradient><linearGradient id="dj5rnzgkj" x1="12.75" y1="8.43" x2="8.86" y2="12.22" gradientUnits="userSpaceOnUse"><stop stop-color="#D64117"/><stop offset=".42" stop-color="#F5C002"/><stop offset="1" stop-color="#DD251D"/></linearGradient></defs></svg>