<!-- by TradingView --><svg width="18" height="18" viewBox="0 0 18 18" xmlns="http://www.w3.org/2000/svg"><path fill="#F0F3FA" d="M0 0h18v18H0z"/><path d="M9.46 5.6c-.02 0-.03.02-.02.05.17.36.36.72.58 1.1.11.2.21.33.3.4.12.11.25.16.41.15h1.43c.1 0 .11.03.04.1l-.87.88-.08.09c-.18.18-.29.32-.34.41-.07.15-.1.33-.1.56.02.17.08.4.2.7l.43 1.2c.01.04 0 .06-.02.07h-.02l-1.06-1.24a.41.41 0 0 0-.17-.14c-.06-.02-.1 0-.11.08l-.72 4.87c-.03.16-.05.16-.08 0l-.04-.26-.61-4.42a2.32 2.32 0 0 0-.18-.65c-.04-.1-.17-.19-.38-.25-.15-.04-.3-.06-.45-.06-.78 0-1.53.05-2.25.12-.36.03-.36-.02-.03-.15.9-.34 1.75-.74 2.56-1.2.27-.16.5-.36.7-.62.36-.47.62-1.03.78-1.68l-.01-.07c-.02-.03-.04-.03-.06-.03a1.2 1.2 0 0 1-.8-.16.55.55 0 0 1-.25-.31.54.54 0 0 1 .06-.43c.18-.32.5-.54 1-.65.45-.1.84-.07 1.16.08.1.05.17.12.23.2.07.1.1.2.1.31-.03.28-.2.5-.52.7-.25.14-.52.22-.8.25Zm5.2 1.41c.05-.36-.03-.69-.23-1a1.9 1.9 0 0 0-.74-.64c-.2-.1-.48-.2-.85-.29a6.5 6.5 0 0 0-1.66-.16.13.13 0 0 1-.13-.07l-.06-.1c-.04-.06-.03-.09.03-.09.87.01 1.65.14 2.34.4.31.11.62.3.92.55.33.29.55.59.64.9.15.48.09.98-.18 1.51-.2.41-.52.8-.94 1.18-.6.54-1.3.99-2.05 1.34-.04.02-.08.02-.11-.02l-.13-.16c-.04-.06-.04-.1.01-.12a8.54 8.54 0 0 0 2.37-1.7c.45-.5.7-1.01.77-1.53Zm-9.12 4.3c-.85-.13-1.47-.43-1.86-.92-.39-.47-.44-1.03-.17-1.67.12-.3.27-.54.45-.76.43-.52.95-.97 1.56-1.35.8-.5 1.63-.88 2.5-1.15.06-.02.07-.06.03-.13L8 5.23c-.04-.07-.1-.1-.16-.07a8.98 8.98 0 0 0-3.87 2.2c-.35.35-.6.72-.77 1.1-.2.47-.25.9-.11 1.32.14.45.45.83.9 1.14.37.24.8.42 1.3.53 1.05.24 2.12.27 3.21.08.05 0 .06-.04.03-.09l-.05-.11c-.03-.06-.07-.08-.12-.07-.98.16-1.92.18-2.8.05Z" fill="#0074E8"/></svg>