<!-- by TradingView --><svg width="18" height="18" viewBox="0 0 18 18" xmlns="http://www.w3.org/2000/svg"><path fill="#F0F3FA" d="M0 0h18v18H0z"/><path d="M5.67 6.16V3.82l2 1.14V7.3l-2-1.14Z" fill="#F5B04F"/><path d="M5.67 5.74v.42l1.01.58-1.01-1Zm0-.5 2 1.89v-.5l-2-2.33v.95Zm.73-1 1.27 1.93v-.91l-.35-.5-.92-.52Z" fill="#F18F42"/><path d="M5.67 11.71v2.34l2-1.14v-2.34l-2 1.14Z" fill="#F5B04F"/><path d="M5.67 12.13v-.42l1.01-.58-1.01 1Zm0 .5 2-1.88v.5l-2 2.32v-.94Zm.73 1 1.27-1.93v.91l-.35.5-.92.52Z" fill="#F18F42"/><path d="M12.67 6.16V3.82l-2 1.14V7.3l2-1.14Z" fill="#F5B04F"/><path d="M12.67 5.74v.42l-1.02.58 1.02-1Zm0-.5-2 1.89v-.5l2-2.33v.95Zm-.74-1-1.26 1.93v-.91l.34-.5.92-.52Z" fill="#F18F42"/><path d="M12.67 11.71v2.34l-2-1.14v-2.34l2 1.14Z" fill="#F5B04F"/><path d="M12.67 12.13v-.42l-1.02-.58 1.02 1Zm0 .5-2-1.88v.5l2 2.32v-.94Zm-.74 1-1.26-1.93v.91l.34.5.92.52Z" fill="#F18F42"/><path d="M13.57 8.55 15 6.72l-2.2-.33-1.42 1.83 2.2.33Z" fill="#F5B04F"/><path d="m13.82 8.22-.25.33-1.12-.17 1.37-.16Zm.3-.39-2.64.26.3-.4 2.93-.6-.58.74Zm.07-1.23-2.13.74.56-.72.56-.17 1.01.15Z" fill="#F18F42"/><path d="M4.43 8.77 3 6.95l2.2-.33 1.42 1.83-2.2.32ZM4.5 9.18l-1.42 1.83 2.2.33L6.7 9.5l-2.2-.33ZM13.5 9.18l1.42 1.83-2.2.33L11.3 9.5l2.2-.33ZM8 5.03 9.13 3l1.1 1.96L9.1 7 8 5.03Z" fill="#F5B04F"/><path d="m8.2 4.67-.2.36.55 1-.35-1.36Zm.24-.43.74 2.6.24-.43-.52-3-.46.83Zm1.1-.51.1 2.29.45-.8-.04-.6-.5-.9Z" fill="#F18F42"/><path d="M7.9 13.04 9.05 11l1.1 1.96L9 15l-1.1-1.96Z" fill="#F5B04F"/><path d="m9.54 11.89.18 1.84-.47.82v-3.17l.29.5Zm-.71-.5v3.3l-.45-.8.14-1.95.31-.55Z" fill="#F18F42"/><path fill-rule="evenodd" d="m10.57 8.97.53-.59c-.07 0-.22-.06-.28-.26-.08-.24-.27-.66-.95-.74-.12 0-.44.07-.75.37-.3-.3-.62-.37-.74-.37-.69.08-.87.5-.95.74-.06.2-.22.26-.29.26l.53.59a3.66 3.66 0 0 1-.09-.59c-.02-.32.31-.77.8-.75.48.02.64.66.22 1.08-.34.33-.47.77-.5.94-.16-.2 0-.67.09-.89l-.7.9h.33l.64.71c.19.24.52.28.66.27.15.01.48-.04.66-.27l.64-.72h.33l-.7-.89c.1.22.25.7.1.9a1.85 1.85 0 0 0-.5-.95c-.42-.42-.27-1.06.22-1.08.48-.02.81.43.8.75-.03.26-.07.5-.1.59Zm-1.45 1.4c.2 0 .5-.16.53-.56.01-.32-.34-.74-.53-.92-.18.18-.54.6-.52.92.02.4.32.56.52.56Z" fill="#F15F45"/></svg>