<!-- by TradingView --><svg width="18" height="18" viewBox="0 0 18 18" xmlns="http://www.w3.org/2000/svg"><path fill="#F0F3FA" d="M0 0h18v18H0z"/><path d="M7.95 11.62 8 12.88c-.39.08-.73.12-1.03.12C5.52 13 5 11.93 5 10.57V6.25L6.5 5v2h1.39v1H6.5v2.24c0 .67.07 1.47.92 1.47.15 0 .32-.03.53-.09Z" fill="#3D6DB5"/><path d="M9.02 12.74 9 11.6c.52.27 1.09.41 1.52.41.4 0 1.01-.27 1.01-.77 0-.19-.15-.36-.46-.5-.93-.4-2.07-.75-2.07-1.96C9 7.5 10.3 7 11.38 7c.41 0 .88.07 1.4.22l-.11 1a3.9 3.9 0 0 0-1.2-.22c-.38 0-1.02.21-1.02.7 0 .5 1.02.71 1.37.85.71.27 1.18.82 1.18 1.6 0 .78-.49 1.4-1.2 1.66-.36.13-.74.19-1.14.19-.45 0-1-.09-1.64-.26Z" fill="#2EC5F4"/></svg>