<!-- by TradingView --><svg width="18" height="18" viewBox="0 0 18 18" xmlns="http://www.w3.org/2000/svg"><path fill="#F0F3FA" d="M0 0h18v18H0z"/><path d="m8.06 9.84-3.05 5.03c-.03.06 0 .13.07.13h.03l3.85-1.98.32-.91-1.22-2.27Z" fill="url(#ammvtpasl)"/><path d="m7.58 13.73 1.38-.7.32-.92-1.22-2.27-.75 1.24c.49.6.98 1.68.27 2.65Z" fill="#01478F"/><path d="m9.94 8.16 3.05-5.03c.03-.06 0-.13-.06-.13h-.04L9.04 4.99l-.32.91 1.22 2.27Z" fill="url(#bmmvtpasl)"/><path d="m10.42 4.27-1.38.7-.32.92 1.22 2.27.75-1.24c-.49-.6-.98-1.68-.27-2.65Z" fill="#01478F"/><path d="M8.43 11.2 6.66 7.16c-.2-.46-.01-1 .4-1.2l2.95-1.48a2.2 2.2 0 0 0-.39 2l1.79 4.26c.19.45.01 1.01-.4 1.22l-3.05 1.59c.85-.62.66-1.84.47-2.35Z" fill="url(#cmmvtpasl)"/><defs><linearGradient id="ammvtpasl" x1="5.36" y1="14.79" x2="6.64" y2="11.21" gradientUnits="userSpaceOnUse"><stop stop-color="#39BFF2"/><stop offset="1" stop-color="#1C5EAA"/></linearGradient><linearGradient id="bmmvtpasl" x1="12.64" y1="3.21" x2="11.36" y2="6.79" gradientUnits="userSpaceOnUse"><stop stop-color="#39BFF2"/><stop offset="1" stop-color="#1C5EAA"/></linearGradient><linearGradient id="cmmvtpasl" x1="7.62" y1="6.18" x2="10.51" y2="12.32" gradientUnits="userSpaceOnUse"><stop stop-color="#1A70BD"/><stop offset=".42" stop-color="#1A9BDC"/><stop offset=".8" stop-color="#36C3F0"/><stop offset=".9" stop-color="#2F9DD8"/><stop offset="1" stop-color="#2986D3"/></linearGradient></defs></svg>