<!-- by TradingView --><svg width="18" height="18" viewBox="0 0 18 18" fill="none" xmlns="http://www.w3.org/2000/svg">
<rect width="18" height="18" fill="#F0F3FA"/>
<path d="M3 7.41878L3 12.0001C3.62397 11.5753 4.29688 10.0008 4.84375 10.0008C5.39062 10.0008 5.88086 10.9904 6.10938 11.3367C7.10938 12.8524 7.28125 13.3367 8.25 14.7586C8.37618 14.9438 8.48438 14.9992 8.61857 14.9992C8.7141 14.9992 8.76074 14.8714 8.71094 14.7117C8.48438 13.9852 7.37274 11.4507 7.2595 11.1786C7.11894 10.8408 7.42917 10.4829 7.5625 10.1414C7.81036 9.50669 7.55137 9.38949 8.13975 8.73035C8.36824 8.47437 8.47032 8.00079 8.95575 8.00079C9.59245 8.00079 10.029 9.12213 10.3594 9.56195C11.404 10.9526 12.3359 13.0008 12.6875 13.0008C12.8668 13.0008 11.9977 10.0633 11.9977 9.60338C11.9977 9.3215 12.1899 9.00079 12.4609 9.00079C12.8249 9.00079 12.9863 9.14219 13.2344 9.28204C13.6557 9.51962 13.7208 9.46849 14.02 9.87706C14.1768 10.0912 14.3031 10.5114 14.3031 10.5114C14.3031 10.5114 14.5009 11.0008 14.7463 11.0008C14.9918 11.0008 15 10.6334 15 10.6334V7.54149C15 7.02333 14.7555 6.54377 14.3571 6.28055L9.63971 3.20374C9.42755 3.06357 9.23812 2.99589 9 3.00107C8.78936 3.00565 8.52987 3.06724 8.33958 3.1861L3.67038 6.1402C3.25652 6.39871 3 6.88794 3 7.41878Z" fill="#63554A"/>
</svg>
