<!-- by TradingView --><svg xmlns="http://www.w3.org/2000/svg" width="18" height="18" viewBox="0 0 18 18"><path fill="#F0F3FA" d="M0 0h18v18H0z"/><path fill-rule="evenodd" d="M10.5 9.85c.07.04.1.15.05.22a2.2 2.2 0 0 1-1.79.93c-1.22 0-2.21-1-2.21-2.25 0-1.24.99-2.25 2.21-2.25.73 0 1.38.36 1.78.92.06.07.03.18-.05.23l-.84.48c-.06.04-.14.06-.2.01a.85.85 0 0 0-.08-.07.88.88 0 0 0-1.42.68c0 .48.4.87.88.87.24 0 .47-.1.63-.27a.2.2 0 0 1 .21 0l.83.5zM7.73 7.43a1.58 1.58 0 0 1 1.87-.07c.03.03.04.08.01.11a.08.08 0 0 1-.11.02c-.1-.07-.41-.23-.77-.23-.23 0-.6.07-.9.3-.32.24-.57.62-.57 1.27 0 .5.24.86.55 1.09.3.23.68.34.92.34.2 0 .49-.06.78-.24a.08.08 0 0 1 .1.03c.03.04.02.1-.02.12-.31.19-.64.25-.86.25-.28 0-.68-.11-1.02-.37a1.48 1.48 0 0 1-.61-1.22c0-.7.28-1.14.63-1.4zm-1.74-.22l-.52.7c-.06.07-.17.1-.26.04a3 3 0 0 0-.57-.23c-.31-.07-.93-.15-.93.09 0 .23.36.3.86.4l.46.1c.7.17 1.17.63 1.17 1.2 0 .58-.36 1.49-1.93 1.49a3.98 3.98 0 0 1-2.2-.6c-.08-.05-.09-.15-.03-.22l.59-.7c.06-.07.18-.08.26-.02.48.35 1.1.42 1.38.41.13 0 .4-.02.41-.17.02-.15-.2-.23-.32-.26l-.97-.23c-1.05-.28-1.24-.98-1.2-1.3 0-1.17 1.3-1.43 1.96-1.4.85 0 1.49.27 1.8.47.08.05.1.15.04.23zm-2.3-.15c.42-.08.94-.03 1.37.12.05.02.07.07.05.11a.09.09 0 0 1-.11.05 2.5 2.5 0 0 0-1.27-.1c-.39.07-.66.26-.7.58-.02.12 0 .24.08.35.08.12.24.23.55.33l.42.12.27.08c.25.07.5.15.72.25.21.1.4.22.51.38.12.17.13.38.02.6-.22.48-.79.6-1.32.6-.53-.01-1.08-.15-1.34-.26a.09.09 0 0 1-.04-.11.09.09 0 0 1 .11-.05c.23.1.76.24 1.28.24.52.01.98-.11 1.15-.48.1-.19.07-.33 0-.44a1.05 1.05 0 0 0-.45-.33 4.98 4.98 0 0 0-.95-.3v-.01l-.43-.12c-.33-.1-.53-.24-.65-.4a.63.63 0 0 1-.1-.47c.05-.42.41-.65.83-.74zM11.18 11h1.08c.1 0 .18-.08.18-.18V8.81l-.67-1.1v2.6c0 .04-.04.08-.09.08a.09.09 0 0 1-.08-.09V7.45c0-.1.14-.15.2-.05l.84 1.4.02.04.74 1.23c.05.08.17.08.22 0l.96-1.6v.01l.66-1.08c.06-.1.2-.06.2.05v2.85c0 .05-.04.1-.1.1a.09.09 0 0 1-.08-.1V7.71l-.68 1.12v1.99c0 .1.08.18.18.18h1.06c.1 0 .18-.08.18-.18V6.68c0-.1-.08-.18-.18-.18H14.7a.36.36 0 0 0-.3.17l-.77 1.25a.12.12 0 0 1-.22 0l-.77-1.25a.36.36 0 0 0-.3-.17h-1.15c-.1 0-.18.08-.18.18v4.14c0 .1.08.18.18.18z" fill="#3963AF"/></svg>