<!-- by TradingView --><svg width="18" height="18" viewBox="0 0 18 18" xmlns="http://www.w3.org/2000/svg"><path fill="#F0F3FA" d="M0 0h18v18H0z"/><path d="M12.77 11.9c-.43 1.1-1.55 1.79-2.7 2a6.5 6.5 0 0 1-2.7-.08 3.88 3.88 0 0 1-1.33-.61c-.47-.33-1.4-1.35-.89-1.98a.79.79 0 0 1 .48-.3c.53-.09.76.42.96.79.29.55.83.92 1.43 1.1.72.2 1.77.17 2.4-.32.42-.32.6-.94.4-1.43a.87.87 0 0 0-.45-.5c-.22-.09-.46-.17-.73-.24-.5-.11-1.04-.22-1.66-.32a5.36 5.36 0 0 1-1.59-.56 2.47 2.47 0 0 1-1.1-2c-.01-.31 0-.6.06-.9.24-1.2 1.24-2.03 2.38-2.36a5.82 5.82 0 0 1 4 .39c.27.13.43.35.49.64.06.33.06.65 0 .97-.03.13-.11.25-.24.3-.4.12-.67-.19-.85-.5A2.02 2.02 0 0 0 9.3 4.95c-.26 0-.49.02-.7.07-.62.16-1.08.55-1.14 1.22-.04.48.13.88.57 1.06.2.09.43.16.66.22.4.1.81.19 1.24.26.38.06.74.14 1.1.25.99.28 1.75 1 1.93 2.02a3.4 3.4 0 0 1-.18 1.85Z" fill="#EC161A"/></svg>