<!-- by TradingView --><svg width="18" height="18" viewBox="0 0 18 18" xmlns="http://www.w3.org/2000/svg"><path fill="#F0F3FA" d="M0 0h18v18H0z"/><path fill-rule="evenodd" d="M14 9c0-2.69-2.67-3.8-5-3.8S4 6.31 4 9c0 2.69 2.67 3.8 5 3.8s5-1.11 5-3.8Zm-5 4c3.43 0 6-1.8 6-4s-2.57-4-6-4-6 1.8-6 4 2.57 4 6 4ZM7.48 8.79c-.44-.32-.86-.95-.46-1.95C7.63 5.3 9.2 5.4 9.48 5.41c.83.05 1.66.73 1.66 1.54-.14-.31-.58-.93-1.2-.93-.75 0-1.3.3-1.3.93 0 .22.11.39.22.56.07.11.15.23.19.36.03-.1.09-.2.18-.29.34-.41 1-.8 2.08-.43a2.16 2.16 0 0 1 1.54 2.3A1.73 1.73 0 0 1 11.2 11c.33-.14.99-.55.99-1.11 0-.71-.32-1.22-1-1.22-.23 0-.41.1-.6.2-.12.07-.24.14-.38.18.1.03.2.08.3.16.44.31.86.93.46 1.92-.61 1.52-2.18 1.43-2.46 1.41-.82-.05-1.65-.72-1.65-1.52.14.3.58.91 1.19.91.76 0 1.3-.29 1.3-.9 0-.22-.11-.4-.22-.56a1.44 1.44 0 0 1-.19-.36c-.03.1-.1.2-.18.3-.35.41-1.02.8-2.08.42-1.64-.58-1.53-2.04-1.51-2.29.05-.77.79-1.54 1.65-1.53-.33.13-.99.54-1 1.1 0 .7.32 1.2.98 1.21.24 0 .42-.1.6-.2.12-.06.25-.13.39-.16a.97.97 0 0 1-.3-.17Zm.84.19c.32.1.57.35.64.66.1-.3.37-.54.7-.61a.95.95 0 0 1-.63-.65c-.11.3-.38.53-.71.6Z" fill="#CB9836"/></svg>