<!-- by TradingView --><svg width="18" height="18" viewBox="0 0 18 18" xmlns="http://www.w3.org/2000/svg"><path fill="#F0F3FA" d="M0 0h18v18H0z"/><path d="M12.47 6.62c-.32-.19-.93-.6-1.38-.76-.92-.34-2.9-.63-3.6.28-.29.37-.24.78.14 1.25.12.16.4.28.84.37 1.24.27 2.06.46 2.47.58 1.41.42 2.24 1.47 2.03 2.95-.26 1.85-2.17 2.65-3.94 2.7a9.5 9.5 0 0 1-4.01-.75.1.1 0 0 1-.02-.06v-1.9a.12.12 0 0 1 .07-.1.12.12 0 0 1 .12 0c.71.52 1.44.88 2.2 1.1.97.27 2.2.33 3-.25.5-.37.47-1.03.09-1.48-.12-.13-.4-.25-.83-.35-1.18-.26-2-.46-2.43-.59-1.33-.4-2.04-1.2-2.12-2.4-.04-.54.03-1 .21-1.35C5.95 4.59 7.47 4.06 8.9 4a9.4 9.4 0 0 1 3.6.58c.08.03.09.1.09.18v1.77c0 .06-.02.14-.12.08Z" fill="#FC0709"/></svg>