<!-- by TradingView --><svg width="18" height="18" viewBox="0 0 18 18" xmlns="http://www.w3.org/2000/svg"><path fill="#F0F3FA" d="M0 0h18v18H0z"/><path d="M9 9v5c-2-.47-3.68-3.63-4.3-5H9Z" fill="#6D9C2A"/><path d="M9 9v5c2-.47 3.7-3.63 4.32-5H9ZM4 5.18c0 .7.49 2.74.7 3.82H9V4c-2 0-4.17.78-5 1.18Z" fill="#FFF710"/><path d="M14 5.18c0 .7-.47 2.74-.68 3.82H9V4c2 0 4.15.78 4.98 1.18Z" fill="#6D9C2A"/><path d="M4.3 5.28c.28 5.4 3.2 7.82 4.67 8.41a8.78 8.78 0 0 0 3.88-4.3c.67-1.57.87-3.1.85-4.1A12.9 12.9 0 0 0 9 4.28c-1.92 0-3.83.63-4.7 1Zm9.7-.17c.1 2.04-.77 6.67-5 8.89-1.57-.56-4.76-3.11-5-8.89C4.78 4.74 6.88 4 9 4c2.11 0 4.2.74 5 1.11Z" fill="#FFF710"/><path d="M8.8 5a1.72 1.72 0 0 1 1.14.35l.18.1c.05.03.1.04.14.04.06 0 .1-.04.13-.1.03-.08.06-.18.08-.32h.21l-.03.39-.01.59v.97h-.22c-.02-.31-.08-.6-.2-.88-.1-.28-.27-.51-.5-.7-.2-.17-.48-.26-.83-.26-.33 0-.6.1-.82.3-.22.21-.32.48-.32.8 0 .3.07.54.21.74.15.19.34.36.57.52l.79.5c.32.2.6.4.86.6.25.2.45.43.6.67.15.24.22.53.22.88 0 .4-.09.74-.27 1-.18.28-.42.48-.72.61s-.63.2-1 .2a2.19 2.19 0 0 1-1.27-.35c-.14-.1-.24-.14-.32-.14-.06 0-.1.04-.14.1-.02.08-.05.18-.07.32H7l.02-.46v-.72l.02-1.1h.21c.03.37.1.73.2 1.06.13.33.3.6.54.8.24.2.56.3.96.3.2 0 .4-.04.58-.13.19-.08.34-.22.46-.4.12-.2.18-.44.18-.74 0-.26-.06-.49-.19-.68-.12-.2-.29-.38-.5-.54a7.76 7.76 0 0 0-.77-.53c-.3-.18-.57-.37-.82-.56-.26-.2-.46-.41-.62-.66a1.78 1.78 0 0 1-.22-.92c0-.37.08-.68.24-.92.17-.25.39-.43.65-.55.27-.12.56-.18.86-.18Z" fill="#F0F3FA"/></svg>