<!-- by TradingView --><svg width="18" height="18" viewBox="0 0 18 18" xmlns="http://www.w3.org/2000/svg"><path fill="#12152B" d="M0 0h18v18H0z"/><path d="M11.42 5a.72.72 0 0 1-.86.71.72.72 0 0 1-.53-.98.72.72 0 0 1 1.18-.24.72.72 0 0 1 .21.51Z" fill="#968567"/><path d="M9.6 4.75a.65.65 0 0 1-.79.64.66.66 0 0 1-.47-.9.65.65 0 0 1 1.06-.2c.13.12.2.28.2.46Z" fill="#fff"/><path d="M14.11 6.03a.72.72 0 0 1-.86.71.72.72 0 0 1-.53-.98.72.72 0 0 1 1.18-.24.72.72 0 0 1 .21.51ZM13.85 8.46a.72.72 0 0 1-.86.7.72.72 0 0 1-.53-.98.72.72 0 0 1 1.18-.23c.14.13.21.31.21.5ZM13.51 12.84a.63.63 0 0 1-.76.62.64.64 0 0 1-.47-.87.64.64 0 0 1 .6-.39.64.64 0 0 1 .63.64Z" fill="#968567"/><path d="M12.75 5.06a.55.55 0 0 1-.66.53.55.55 0 0 1-.4-.75.55.55 0 0 1 .9-.17c.1.1.16.24.16.39ZM13.06 7.12a.55.55 0 0 1-.66.54.55.55 0 0 1-.4-.75.55.55 0 0 1 1.06.2Z" fill="#3ABFC4"/><path d="M6.6 6.3a.55.55 0 0 1-.66.53.55.55 0 0 1-.4-.75.55.55 0 0 1 .9-.18c.1.1.16.25.16.4Z" fill="#fff"/><path d="M4.11 9.9a.55.55 0 0 1-.66.54.55.55 0 0 1-.4-.75.55.55 0 0 1 .9-.18c.1.1.16.24.16.39Z" fill="#3ABFC4"/><path d="M5.05 8.97a.45.45 0 0 1-.54.44.45.45 0 0 1-.33-.61.45.45 0 0 1 .74-.15.45.45 0 0 1 .13.32Z" fill="#fff"/><path d="M4.84 6.09a.55.55 0 0 1-.66.53.55.55 0 0 1-.4-.74.55.55 0 0 1 .9-.18c.1.1.16.24.16.39Z" fill="#968567"/><path d="M6.65 4.33a.55.55 0 0 1-.66.54.55.55 0 0 1-.4-.75.55.55 0 0 1 .9-.18c.1.1.16.25.16.4Z" fill="#fff"/><path d="M15 8.46a.47.47 0 0 1-.57.46.47.47 0 0 1-.34-.64.47.47 0 0 1 .91.18Z" fill="#3ABFC4"/><path d="M14.12 9.8a.48.48 0 0 1-.57.46.48.48 0 0 1-.35-.65.48.48 0 0 1 .92.19ZM14.7 10.88a.48.48 0 0 1-.58.47.48.48 0 0 1-.35-.65.48.48 0 0 1 .92.18ZM11.94 3.97a.36.36 0 0 1-.43.36.36.36 0 0 1-.27-.5.36.36 0 0 1 .48-.2.36.36 0 0 1 .22.34ZM11.94 6.19a.36.36 0 0 1-.43.35.36.36 0 0 1-.27-.49.36.36 0 0 1 .48-.2.36.36 0 0 1 .22.34Z" fill="#fff"/><path d="M15 9.59a.36.36 0 0 1-.44.35.36.36 0 0 1-.27-.49.36.36 0 0 1 .7.14ZM13.5 10.88a.36.36 0 0 1-.23.33.36.36 0 0 1-.5-.26.36.36 0 0 1 .5-.4.36.36 0 0 1 .22.33ZM12.1 13.97a.36.36 0 0 1-.44.35.36.36 0 0 1-.26-.49.36.36 0 0 1 .59-.12.36.36 0 0 1 .1.26ZM11.11 14.12a.36.36 0 0 1-.43.36.36.36 0 0 1-.28-.28.36.36 0 0 1 .35-.44.36.36 0 0 1 .36.36ZM9.3 13.3a.36.36 0 0 1-.43.35.36.36 0 0 1-.26-.49.36.36 0 0 1 .7.14ZM12.66 11.45a.25.25 0 0 1-.3.24.25.25 0 0 1-.19-.34.25.25 0 0 1 .41-.08c.05.04.08.1.08.18Z" fill="#3ABFC4"/><path d="M11.88 11.6a.25.25 0 0 1-.3.24.25.25 0 0 1-.18-.34.25.25 0 0 1 .4-.08c.05.05.08.11.08.18Z" fill="#968567"/><path d="M10.74 13.45a.25.25 0 0 1-.3.25.25.25 0 0 1-.2-.2.25.25 0 0 1 .11-.25.25.25 0 0 1 .4.2ZM10.02 13.92a.25.25 0 0 1-.3.24.25.25 0 0 1-.1-.45.25.25 0 0 1 .4.2Z" fill="#fff"/><path d="M6.66 13.15a.25.25 0 0 1-.16.23.25.25 0 0 1-.34-.19.25.25 0 0 1 .25-.3.25.25 0 0 1 .25.26Z" fill="#3ABFC4"/><path d="M6.81 13.97a.25.25 0 0 1-.3.24.25.25 0 0 1-.18-.34.25.25 0 0 1 .4-.08.25.25 0 0 1 .08.18ZM8.11 13.76a.2.2 0 0 1-.24.2.2.2 0 0 1-.16-.27.2.2 0 0 1 .34-.07c.04.04.06.09.06.14ZM9.35 14.8a.2.2 0 0 1-.12.18.2.2 0 0 1-.28-.15.2.2 0 0 1 .2-.24.2.2 0 0 1 .2.2Z" fill="#fff"/><path d="M7.38 14.54a.25.25 0 0 1-.15.23.25.25 0 0 1-.24-.44.25.25 0 0 1 .4.2ZM10.23 14.7a.25.25 0 0 1-.3.24.25.25 0 0 1-.2-.2.25.25 0 0 1 .24-.3.25.25 0 0 1 .26.25ZM9.14 14.18a.25.25 0 0 1-.3.24.25.25 0 0 1-.2-.2.25.25 0 0 1 .25-.3.25.25 0 0 1 .23.16l.02.1Z" fill="#968567"/><path d="M8.57 14.59a.4.4 0 0 1-.48.4.4.4 0 0 1-.3-.56.4.4 0 0 1 .53-.22.4.4 0 0 1 .25.38ZM14.27 11.86a.36.36 0 0 1-.44.35.36.36 0 0 1-.26-.5.36.36 0 0 1 .7.15ZM11.89 12.58a.36.36 0 0 1-.43.35.36.36 0 0 1-.27-.49.36.36 0 0 1 .7.14ZM10.86 12.53a.36.36 0 0 1-.23.33.36.36 0 0 1-.47-.47.36.36 0 0 1 .47-.2.36.36 0 0 1 .22.34Z" fill="#3ABFC4"/><path d="M13.43 11.6a.2.2 0 0 1-.12.18.2.2 0 0 1-.27-.14.2.2 0 0 1 .2-.24.2.2 0 0 1 .19.2ZM11.46 13.4a.2.2 0 0 1-.12.18.2.2 0 0 1-.27-.14.2.2 0 0 1 .2-.23.2.2 0 0 1 .2.2ZM10.02 13a.2.2 0 0 1-.24.18.2.2 0 1 1 .18-.33.2.2 0 0 1 .06.14ZM12.45 10.62a.2.2 0 0 1-.12.18.2.2 0 0 1-.26-.25.2.2 0 0 1 .32-.07.2.2 0 0 1 .06.14ZM13.03 10.05a.36.36 0 0 1-.23.34.36.36 0 0 1-.49-.27.36.36 0 0 1 .5-.4.36.36 0 0 1 .22.33Z" fill="#968567"/><path d="M14.68 7.01a.36.36 0 0 1-.43.36.36.36 0 0 1-.27-.5.36.36 0 0 1 .48-.19.36.36 0 0 1 .22.33ZM10.54 3.46a.35.35 0 0 1-.43.35.36.36 0 0 1-.26-.49.35.35 0 0 1 .58-.11c.07.06.1.15.1.25ZM9.04 3.35a.35.35 0 0 1-.43.35.36.36 0 0 1-.26-.48.35.35 0 0 1 .58-.12c.07.07.1.16.1.25ZM8.06 5.42a.35.35 0 0 1-.43.34.36.36 0 0 1-.26-.48.35.35 0 0 1 .58-.11c.07.06.1.15.1.25Z" fill="#3ABFC4"/><path d="M6.97 5.31a.35.35 0 0 1-.43.35.36.36 0 0 1-.26-.48.35.35 0 0 1 .59-.12c.06.07.1.16.1.25ZM7.7 3.77a.35.35 0 0 1-.43.34.36.36 0 0 1-.26-.48.35.35 0 0 1 .58-.11c.07.06.1.15.1.25ZM4.95 7.22a.46.46 0 0 1-.55.45.46.46 0 0 1-.33-.63.46.46 0 0 1 .75-.14.46.46 0 0 1 .13.32Z" fill="#fff"/><path d="M6.5 11.65a.46.46 0 0 1-.55.45.46.46 0 0 1-.36-.36.46.46 0 0 1 .45-.55.46.46 0 0 1 .46.46Z" fill="#3ABFC4"/><path d="M4.25 11.03a.37.37 0 0 1-.45.37.37.37 0 0 1-.3-.3.37.37 0 0 1 .37-.44.37.37 0 0 1 .38.37Z" fill="#fff"/><path d="M5.78 5.26a.35.35 0 0 1-.43.35.36.36 0 0 1-.25-.48.35.35 0 0 1 .58-.12c.06.07.1.16.1.25Z" fill="#968567"/><path d="M5.88 7.37a.35.35 0 0 1-.42.35.36.36 0 0 1-.26-.48.35.35 0 0 1 .58-.12c.07.07.1.16.1.25Z" fill="#3ABFC4"/><path d="M3.71 8.04a.35.35 0 0 1-.42.35.36.36 0 0 1-.26-.48.36.36 0 0 1 .58-.12c.06.07.1.16.1.25Z" fill="#968567"/><path d="M5.1 12.73a.35.35 0 0 1-.42.35.36.36 0 0 1-.26-.48.35.35 0 0 1 .33-.22.36.36 0 0 1 .36.35ZM5.88 13.56a.35.35 0 0 1-.42.35.36.36 0 0 1-.26-.49.36.36 0 0 1 .68.14Z" fill="#3ABFC4"/><path d="M8.21 12.63a.35.35 0 0 1-.42.35.36.36 0 0 1-.26-.49.36.36 0 0 1 .68.14Z" fill="#fff"/><path d="M7.6 13.4a.35.35 0 0 1-.43.35.36.36 0 0 1-.26-.48.35.35 0 0 1 .32-.22.36.36 0 0 1 .36.35Z" fill="#3ABFC4"/><path d="M5.6 8.15a.28.28 0 0 1-.33.27.28.28 0 0 1-.2-.38.28.28 0 0 1 .45-.09c.05.05.08.12.08.2ZM5.8 10.52a.28.28 0 0 1-.33.27.28.28 0 0 1-.2-.38.28.28 0 0 1 .54.1Z" fill="#968567"/><path d="M5.29 11.7a.28.28 0 0 1-.33.27.28.28 0 0 1-.2-.37.28.28 0 0 1 .25-.17.28.28 0 0 1 .28.27Z" fill="#3ABFC4"/><path d="M4.93 10.98a.28.28 0 0 1-.34.27.28.28 0 0 1-.2-.37.28.28 0 0 1 .45-.1c.06.06.09.13.09.2ZM5.96 12.58a.28.28 0 0 1-.33.27.28.28 0 0 1-.2-.38.28.28 0 0 1 .25-.17.28.28 0 0 1 .28.28Z" fill="#fff"/><path d="M7.2 12.17a.28.28 0 0 1-.33.27.28.28 0 0 1-.2-.38.28.28 0 0 1 .25-.17.28.28 0 0 1 .28.28ZM4.25 11.9a.28.28 0 0 1-.33.28.28.28 0 0 1-.2-.38.28.28 0 0 1 .45-.09.28.28 0 0 1 .08.2Z" fill="#968567"/><path d="M4.54 8.04a.25.25 0 0 1-.3.25.26.26 0 0 1-.19-.34.25.25 0 0 1 .42-.09.25.25 0 0 1 .07.18ZM4.85 10.16a.25.25 0 0 1-.3.25.26.26 0 1 1 .3-.25ZM5.37 9.7a.25.25 0 0 1-.3.24.26.26 0 0 1-.2-.34.25.25 0 0 1 .42-.09.25.25 0 0 1 .08.18ZM3.66 8.92a.25.25 0 0 1-.3.25.26.26 0 0 1-.19-.35.26.26 0 0 1 .42-.08c.05.05.07.11.07.18Z" fill="#3ABFC4"/><path d="M3.77 7.17a.25.25 0 0 1-.3.25.26.26 0 0 1-.2-.35.25.25 0 0 1 .42-.08.25.25 0 0 1 .08.18Z" fill="#fff"/></svg>