<!-- by TradingView --><svg width="18" height="18" viewBox="0 0 18 18" xmlns="http://www.w3.org/2000/svg"><path fill="#F0F3FA" d="M0 0h18v18H0z"/><path d="m9.14 11.41 2.02-1.25a.07.07 0 0 1 .08 0l.8.56.01.03a.07.07 0 0 1-.02.09l-2.9 1.77a.07.07 0 0 1-.07 0l-5.03-3.2A.07.07 0 0 1 4 9.34V6.17a.07.07 0 0 1 .03-.06l5.08-3.1a.07.07 0 0 1 .07 0l4.79 2.87a.07.07 0 0 1 .03.05.07.07 0 0 1-.03.06l-.73.6a.07.07 0 0 1-.08.01L9.19 4.2a.07.07 0 0 0-.07 0L5.05 6.7a.36.36 0 0 0-.05.06v2.03l4.07 2.63a.07.07 0 0 0 .07 0ZM7 7.85v1.07l-.01.02h-.01c0 .02-.02.03-.03.03a.06.06 0 0 1-.06 0l-.86-.66A.06.06 0 0 1 6 8.26v-.97a.06.06 0 0 1 .03-.05l3.1-1.94a.06.06 0 0 1 .07 0l3.1 1.9a.06.06 0 0 1 .02.06.06.06 0 0 1-.03.05l-.94.5a.06.06 0 0 1-.06 0L9.2 6.52a.06.06 0 0 0-.07 0l-2.12 1.3-.02.01v.02l.01.01Zm6.97 4.08-.78-.57h-.06L9.16 13.8a.06.06 0 0 1-.06 0L4.1 10.74a.06.06 0 0 0-.08.02L4 10.8v1.06a.06.06 0 0 0 .04.05L9.1 15a.06.06 0 0 0 .06 0l4.81-2.96.02-.02a.07.07 0 0 0-.02-.09Z" fill="#B91D22"/></svg>