<!-- by TradingView --><svg width="18" height="18" viewBox="0 0 18 18" xmlns="http://www.w3.org/2000/svg"><path fill="#F0F3FA" d="M0 0h18v18H0z"/><path d="M5.93 6.28a5.26 5.26 0 0 1 2.04-.9l.06.03c.02.01.03.04.04.06a.2.2 0 0 1 .02.08v.61c0 .1.04.15.14.14l.1-.01.03-.02a.1.1 0 0 0 .03-.02.1.1 0 0 0 .02-.08L8.29 5.1v-.04a.1.1 0 0 0-.03-.04 5.33 5.33 0 0 0-2.46.96.13.13 0 0 0-.06.13l.01.08.02.06.05.04a.1.1 0 0 0 .1-.01Zm4.13-.92h.07c.68.17 1.32.46 1.91.88.09.07.16.05.21-.05l.04-.07v-.05A5.31 5.31 0 0 0 9.83 5c-.08 0-.12.03-.13.12l-.1 1.06.03.09c.02.03.04.04.07.05.1.02.15-.03.18-.14.05-.23.08-.45.07-.65l.01-.08A.17.17 0 0 1 10 5.4a.15.15 0 0 1 .06-.03ZM9 11.4c.03 0 .05 0 .06-.02l.46-.77c.1-.15.3-.38.57-.67.46-.49.87-1.03 1.22-1.63.48-.83.79-1.27 1.38-1.82a.1.1 0 0 1 .07-.03.1.1 0 0 1 .07.03A7.19 7.19 0 0 1 15 11.8c0 .13-.05.19-.16.19h-3.48a.23.23 0 0 1-.15-.06.28.28 0 0 1-.08-.16l-.01-.08c0-.2.08-.37.27-.37h2.71c.36 0 .41-.08.15-.36a5.56 5.56 0 0 1-1.4-3.56c0-.09-.05-.13-.12-.13h-.07c-.11 0-.16.06-.13.18.3 1.6-.09 2.78-1.18 3.52-.15.1-.46.21-.92.34-.44.12-.83.33-1.18.63-.04.03-.12.05-.25.05s-.2-.02-.25-.05c-.35-.3-.74-.5-1.18-.63a3.55 3.55 0 0 1-.92-.34c-1.1-.74-1.49-1.92-1.18-3.52.03-.12-.02-.18-.13-.18h-.07c-.07 0-.11.04-.12.13a5.56 5.56 0 0 1-1.4 3.56c-.26.28-.2.36.16.36h2.7c.19 0 .28.16.27.37v.08a.28.28 0 0 1-.1.16.23.23 0 0 1-.14.06H3.16c-.11 0-.16-.06-.16-.18a7.19 7.19 0 0 1 2.17-5.33.1.1 0 0 1 .07-.03.1.1 0 0 1 .07.03c.6.56.9.99 1.38 1.82.35.6.76 1.14 1.22 1.63a5.16 5.16 0 0 1 1.03 1.44c.01.02.03.02.06.02ZM7.98 9a1.36 1.36 0 0 1-.29-.54c-.07-.22-.1-.42-.07-.62.05-.49-.03-.53-.26-.12a1.1 1.1 0 0 0-.05.9c.1.34.29.56.54.66.4.15.45.06.13-.28Zm2.7-.4c-.1.33-.26.55-.5.66-.38.18-.43.08-.14-.3.13-.16.22-.33.27-.5.06-.18.08-.37.07-.59-.01-.5.08-.54.28-.13.12.25.13.54.03.87ZM9.02 6.68c.07 0 .17-.06.3-.17a.09.09 0 0 1 .1-.01.1.1 0 0 1 .04.04l.02.06v.35c0 .1.04.16.14.16h.13c.02 0 .04 0 .06-.02.02 0 .04-.02.06-.04a.2.2 0 0 0 .04-.13c0-.11.01-.2.05-.23a.1.1 0 0 1 .08-.03.1.1 0 0 1 .07.04c.11.14.18.28.23.42.02.07 0 .12-.06.15-.83.37-1.05 1.02-.68 1.95.03.06.03.13.01.2-.06.22-.07.45-.04.7a.12.12 0 0 1-.03.08.1.1 0 0 1-.03.03h-.05c-.1 0-.16-.08-.15-.23 0-.08-.03-.12-.1-.14a3.65 3.65 0 0 0-.39 0c-.07.02-.1.06-.1.14.01.15-.04.23-.15.24a.1.1 0 0 1-.05-.01.1.1 0 0 1-.03-.03.12.12 0 0 1-.02-.09c.02-.24 0-.47-.05-.7a.31.31 0 0 1 0-.19c.38-.93.16-1.58-.67-1.95-.06-.03-.08-.08-.06-.15.04-.14.12-.28.22-.42a.1.1 0 0 1 .08-.04.1.1 0 0 1 .07.03c.05.04.07.12.06.23a.2.2 0 0 0 .04.13l.05.04.07.02h.13c.1 0 .14-.06.14-.16v-.35c0-.02 0-.04.02-.06a.1.1 0 0 1 .04-.04.09.09 0 0 1 .1.01c.13.11.23.17.3.17Zm0 3c.2 0 .37-.2.37-.43C9.38 9 9.2 8.8 9 8.8c-.2 0-.38.2-.38.43 0 .23.17.42.38.42Z" fill="#945A1D"/></svg>