<!-- by TradingView --><svg width="18" height="18" viewBox="0 0 18 18" xmlns="http://www.w3.org/2000/svg"><path fill="#F0F3FA" d="M0 0h18v18H0z"/><path d="m4.17 11.7 2.26-5.35c.07-.18.14-.42.38-.42.3 0 .6.1.88.26.14.09.19.24.15.4-.06.26-.02.5.13.74a.23.23 0 0 1 .02.2c-.45 1.12-.9 2.28-1.35 3.5-.13.36.38.54.61.56.77.05 1.53-.01 2.27-.2.42-.11.87-.34 1.12-.73.55-.87.17-1.9-.57-2.48l-.97-.7c-.62-.43-1.06-.89-.5-1.61a7.65 7.65 0 0 1 2.05-1.66 1.35 1.35 0 0 1 1.63.14c.15.13.14.26-.03.39-.5.36-2.04 1.23-.87 1.95.55.34 1.23.65 1.74 1.11 1.27 1.14 1.12 3.01-.13 4.12-.55.48-1.19.8-1.93.97-.38.08-.92.12-1.61.1L4.73 13c-.15 0-.29-.03-.42-.08-.48-.17-.3-.86-.14-1.23Z" fill="#D72126"/></svg>