<!-- by TradingView --><svg width="18" height="18" viewBox="0 0 18 18" fill="none" xmlns="http://www.w3.org/2000/svg">
<rect width="18" height="18" fill="#ACA69A"/>
<path d="M4 10.3333V10.6827C4 11.754 4.18368 12.2081 4.74709 12.5458C5.32275 12.8952 6.31492 13 8.85029 13C11.2877 13 12.3165 12.9417 12.8065 12.7671C13.6516 12.4644 13.9946 11.8006 13.9946 10.4498C13.9946 9.36684 13.7864 8.84276 13.223 8.49349C12.6963 8.179 12.1696 8.12082 9.47499 8.03934C7.7479 7.99272 6.57561 7.95775 6.35515 7.89957C6.09792 7.8413 6 7.68998 6 7.3988C6 6.82828 6.65786 6.78167 8.76458 6.78167C10.5283 6.78167 11.1407 6.80497 11.3489 6.92143C11.5327 7.02622 11.5693 7.23582 11.5939 7.66667H13.9946C14.0068 7.51525 13.9946 7.2345 13.9946 7.18788C13.9946 6.26801 13.8108 5.79186 13.3209 5.47747C12.7452 5.1048 11.5817 5 9.2055 5C7.24579 5 6.11888 5.04662 5.64128 5.13977C4.51437 5.37267 4 6.03642 4 7.51525C4 9.22708 4.63686 9.7162 6.65786 9.77438L7.31924 9.79769L8.64209 9.85587L11.1059 9.9258C11.902 9.93745 12 10.0539 12 10.5196C12 11.2067 11.5817 11.2067 8.91148 11.2067C7.15997 11.2067 6.96403 11.1834 6.73132 11.0437C6.53527 10.9273 6.48634 10.7991 6.48634 10.3333H4Z" fill="url(#paint0_linear_5825_209711)"/>
<defs>
<linearGradient id="paint0_linear_5825_209711" x1="9" y1="5" x2="9" y2="13" gradientUnits="userSpaceOnUse">
<stop stop-color="#181B1E"/>
<stop offset="1" stop-color="#181B1E"/>
</linearGradient>
</defs>
</svg>
