<!-- by TradingView --><svg width="18" height="18" viewBox="0 0 18 18" xmlns="http://www.w3.org/2000/svg"><path fill="#002440" d="M0 0h18v18H0z"/><path d="M10 11.67a1.13 1.13 0 0 0-.35-1.09 1.9 1.9 0 0 0-.44-.3l-.48-.26c-.35-.16-.68-.35-1.01-.56a4.8 4.8 0 0 1-.9-.75 3.17 3.17 0 0 1-.64-1.01 3.36 3.36 0 0 1-.2-1.36 3.19 3.19 0 0 1 1.35-2.57A4.3 4.3 0 0 1 9.88 3a2.97 2.97 0 0 1 2.73 1.7c.28.53.4 1.17.4 1.93h-2.22c0-.3-.02-.56-.1-.78a1 1 0 0 0-.34-.52c-.17-.12-.38-.2-.63-.2-.22 0-.43.04-.64.13a1.36 1.36 0 0 0-.86 1.1c-.03.23 0 .42.08.58.09.16.21.3.36.42.16.11.32.21.48.29l.45.2c.35.17.7.37 1.02.6.34.21.63.47.88.77.26.3.45.65.59 1.05.14.4.2.86.17 1.38-.03.6-.17 1.12-.4 1.55-.22.42-.51.77-.87 1.04s-.75.46-1.18.58a4.5 4.5 0 0 1-1.3.18c-.5-.01-.95-.1-1.38-.27a3.26 3.26 0 0 1-1.86-2A4.84 4.84 0 0 1 5 11.04h2.25c-.02.3 0 .57.04.8.05.23.13.42.24.57.11.15.26.27.44.35.17.07.4.1.64.1.22 0 .42-.03.62-.11a1.29 1.29 0 0 0 .78-1.08Z" fill="#fff"/></svg>