<!-- by TradingView --><svg width="18" height="18" viewBox="0 0 18 18" xmlns="http://www.w3.org/2000/svg"><path fill="url(#af1e5qtrp)" d="M0 0h18v18H0z"/><path d="M9 4a5 5 0 1 0 .01 10.01A5 5 0 0 0 9 4Zm4.5 5c0 2.37-2.16 4.5-4.52 4.5A4.62 4.62 0 0 1 4.5 9c0-2.37 2.12-4.5 4.5-4.5 2.37 0 4.5 2.13 4.5 4.5ZM5 8v.5h3.27L6.64 9.94l-.05.04.05.05.36.35.04.05.05-.04L9 8.8l1.9 1.58.06.04.04-.05.36-.35.05-.05-.05-.04L9.73 8.5H13V8H5Zm3.98 1.3.04.03 2.26 1.85.05.04-.05.04-.35.34-.04.05-.05-.04-1.86-1.53-1.87 1.53-.05.04-.04-.05-.35-.34-.05-.04.05-.04 2.26-1.85.05-.04Z" fill="#fff"/><defs><linearGradient id="af1e5qtrp" x1="3.35" y1="3.12" x2="21.9" y2="24.43" gradientUnits="userSpaceOnUse"><stop stop-color="#1A1E21"/><stop offset="1" stop-color="#06060A"/></linearGradient></defs></svg>