<!-- by TradingView --><svg width="18" height="18" viewBox="0 0 18 18" xmlns="http://www.w3.org/2000/svg"><path fill="#670926" d="M0 0h18v18H0z"/><path d="M9.2 6.65c-2.3 0-3.1 1.36-3.6 2.04l.22 1.72.8 1.89 1.42 1.4 1.05.3 1.73-.8 1.33-1.47.45-1.75.06-1.3c-.48-.67-1.7-2.03-3.47-2.03Z" fill="#fff" fill-opacity=".5"/><path d="M10.08 12.67c.38-.32 1.08-1.05 1.08-1.74 0-.9-1.03-1.55-1.95-1.95-.81-.35-2.43-1.09-2.77-2.57-.38.13-.68.26-.85.35-.07.84-.03 2.08.3 3.27l.34-.14c.68-.3 1.32-.58 1.82-.54 1.02.09 1.44.87 1.53 1.25-.64-.3-1-.12-1.81.26a19.82 19.82 0 0 1-1.32.59l.11.19.45-.2c.7-.3 1.35-.6 1.87-.55 1.04.09 1.48.9 1.57 1.3-.66-.32-1.03-.13-1.86.27-.25.12-.55.27-.91.42.38.29.84.5 1.36.62 1.56-.34 3.96-1.36 3.33-6.74-.26-.15-.8-.39-1.54-.56l.02.12-.24-.16a7.98 7.98 0 0 0-3.14 0 3.36 3.36 0 0 0 1.5 1.31c.77.35 2.9 1.3 2.9 2.87 0 1.35-1.14 2.09-1.8 2.33ZM7.4 5.64a9.8 9.8 0 0 1 2.36-.11l-.16-.15c-.19-.23-.6-.61-1.28-.61-.6 0-.87.37-.92.87Zm3.35.02c1.02.19 1.79.51 2.12.7.73 6.1-2.04 7.25-3.83 7.64a4.28 4.28 0 0 1-1.86-.92c-1.38.42-2.89-.6-3.49-1.18.75.41 1.6.23 2.44-.09l-.15-.26c-1.22.13-2.46-.72-2.99-1.23.75.42 1.62.22 2.45-.1-.42-1.4-.47-2.87-.39-3.86a7.19 7.19 0 0 1 1.32-.5c0-1.86 2.33-2.17 3.38-1.6.93.5.95.65.97.78l.01.04c.03.1.01.36 0 .47l.02.1Z" fill="#fff"/></svg>