<!-- by TradingView --><svg width="18" height="18" viewBox="0 0 18 18" xmlns="http://www.w3.org/2000/svg"><path fill="#F0F3FA" d="M0 0h18v18H0z"/><path d="M9.8 13.4c-.08.18.03.25 0 .4-.1-.02-.14.08-.14.2a.47.47 0 0 1-.17.39.2.2 0 0 0-.04.06.23.23 0 0 0-.02.08l-.01.25c0 .05 0 .13.07.11.01 0 .03.03.03.05 0 .03-.05.02-.06.02-.09.02-.1 0-.12-.09-.02-.09 0-.18-.03-.27-.01-.02 0-.1-.04-.09-.02 0-.05.04-.06.06a.51.51 0 0 0-.03.37c.02.03 0 .06-.04.06-.05 0-.1.02-.1-.07l.03-.4.01-.08c0-.02.02-.07 0-.09-.04-.01-.06 0-.1.03-.04.03-.08.1-.1.13-.06.05-.05.15.03.21.02.02.05.03.04.07-.01.03-.06.02-.09.02l-.01.02c-.15.03-.14.04-.17-.1-.02-.1-.07-.2-.02-.31.05-.1-.06-.11-.08-.17-.02-.06-.03 0-.04.03a.7.7 0 0 1-.13.2.3.3 0 0 1-.1.09.26.26 0 0 1-.24 0 .3.3 0 0 1-.1-.09c-.01 0-.03-.02-.02-.04.01-.02.03-.02.05 0l.08.03a.2.2 0 0 0 .17.03c.05-.02.1-.06.13-.12a.62.62 0 0 0 .1-.2.53.53 0 0 1 .15-.3.44.44 0 0 1 .29-.13c.1-.03.22-.02.32.02l.06.02a.1.1 0 0 0 .06-.01.12.12 0 0 0 .05-.05.14.14 0 0 0 .02-.06c0-.1.02-.2.05-.28.02-.06.04-.06.07 0 .09.16.07.17.2 0 0 0 .02-.02.05 0Z" fill="#002F63"/><path d="M9.36 13.66a.2.2 0 0 1 .08.04l.05.08v.01" stroke="#002F63" stroke-width=".23"/><path d="m5.83 4.83.03-.18c.02-.05-.02-.16 0-.21 0-.06-.07-.12 0-.27 0 0 .05.01.11.14a.09.09 0 0 0 .08 0c.04-.02.14-.16.19-.17 0 .11-.03.22-.09.3-.1.18.1.05.1.05s.43-.14.54.3c.11.43.18.4.32.46.15.06-.31.05-.38-.37 0 0-.15.08-.16.15 0 .07.1.09.07.12l-.15.26-.01.06c-.03 0-.07-.03-.1 0-.02.05-.08.1-.1.07-.02-.03.13-.12.15-.18a.3.3 0 0 0 .01-.2.27.27 0 0 0-.12-.16c-.17-.09-.08.1-.1.2l-.13.35c-.03.05-.04.05-.08.04-.04 0-.04-.05.04-.06.09 0 .05-.43.05-.44-.01-.02-.08-.09-.08 0v.48c-.02.01-.14.03-.13 0 0-.03.02-.04.06-.04.04 0-.03-.43-.03-.43s-.1-.06-.09-.27Z" fill="#002F63"/><path d="M4.89 4.1h.04c.05.03.1.03.16.02a.3.3 0 0 0 .14-.08.23.23 0 0 1 .26 0c.04.02.07.06.09.1l.03.15a.83.83 0 0 1-.27.6.09.09 0 0 1-.04.03h-.04a.92.92 0 0 1-.55-.29.3.3 0 0 1-.07-.1.34.34 0 0 1 .04-.34.25.25 0 0 1 .1-.07.22.22 0 0 1 .1-.01Z" fill="#FAC444"/><path d="M5.5 5.83c.13.01.12-.17.1-.2-.01-.04-.16-.05-.12-.11.04-.07 0-.12 0-.15.02-.02-.02-.1 0-.12.01-.01.04-.15 0-.1-.05.03-.16.09-.19.05-.03-.05.05-.11.02-.15-.02-.03-.12.11-.14.11-.03 0-.02.05-.06.05-.04-.01-.03-.1-.06-.04-.03.08-.05.08-.05.08-.32.06-.63.18-.9.37-.15.02-.29.05-.43.1-.18.07-.1-.24-.1-.24-.07.05-.07.25-.04.3.03.07-.04.09-.08.11-.05.03-.01.1-.07.15h-.02a7.6 7.6 0 0 0-.08-.08h-.02l-.02.02V6H3.2c-.06.02-.06.15-.01.16a.1.1 0 0 1 .03.04.12.12 0 0 1 .01.1c0 .03-.02.04-.03.05-.08.06-.1.07-.08.1.02.03.18-.05.18-.05s.17-.13.12-.03c-.04.09 0 .1 0 .08a.7.7 0 0 1 .16-.13c.02 0 .08 0 .1-.04l.03-.04a.1.1 0 0 1 .04-.02c.02 0 .1.02.13-.01.02-.03.07-.06.08-.05 0 0 .1.01.14-.02.02-.03.11-.03.11-.03s.06.08.08.06c.03-.02.05-.07.08-.03l.03.03.04-.01a.48.48 0 0 1 .08-.03c.02 0 .05.07.07.07.02 0 .01-.06.1-.01.1.05.22.05.33 0a.16.16 0 0 1 .2.02c.04.04.14.04.13-.01-.02-.06.02-.09.03-.07 0 .02.17.12.16-.03 0-.15-.38-.15-.4-.16-.03-.01-.03-.11 0-.14.02-.03.21.1.28.1.06-.02-.04-.07.08-.07ZM4.08 10.2a.23.23 0 0 1 .05-.2c.03-.07.02-.1-.04-.15-.12-.09-.13-.13-.1-.28l.03-.18c.04-.16-.05-.27-.13-.38-.03-.03-.05-.01-.07 0a.53.53 0 0 0-.19.24c0 .02-.02.06-.06.05-.03-.01-.03-.06-.02-.09a.34.34 0 0 1 .13-.18c.13-.12.13-.12.07-.3a.69.69 0 0 1-.13.1.4.4 0 0 0-.15.24c0 .02-.01.06-.05.05-.02 0-.02-.04-.02-.06 0-.1.05-.18.1-.24.12-.1.21-.24.28-.38a.34.34 0 0 1 .08-.11.3.3 0 0 1 .12-.07.38.38 0 0 0 .17-.08c.05-.04.1-.1.12-.16.02-.04.07-.19.1-.06.03.02.06 0 .09-.01l.12-.07c.02-.01.08-.07.1-.03.03.04-.01.1-.04.13a.51.51 0 0 0-.1.11.17.17 0 0 0-.01.14c0 .02-.03.03-.06.03-.2.01-.29.16-.27.38v.15c0 .06.01.12.04.18.02.06.06.11.1.15.08.09.12.2.13.32 0 .14-.01.27.1.36a.1.1 0 0 1 .03.03l.02.04c0 .06 0 .13.03.18.02.03.03.06 0 .08l-.02.02H4.6a.08.08 0 0 1-.03-.04v-.04c0-.05-.01-.1-.03-.13a.28.28 0 0 0-.08-.1 1.5 1.5 0 0 1-.18-.23c-.04-.05-.06-.04-.08 0-.04.09-.07.17.02.24l.02.02v.03a.76.76 0 0 1-.16.3ZM6.41 11.06c.05.07.12.13.2.16l.09.05c.03.03.07.06.05.12-.01.05-.06.03-.1.02a2.8 2.8 0 0 1-.25-.1.76.76 0 0 0-.25-.07.19.19 0 0 1-.1-.04.22.22 0 0 1-.08-.1c0-.09-.15-.07-.23-.08-.07 0-.14 0-.2.02-.05 0-.11 0-.06.1.03.03-.01.07-.05.07a.59.59 0 0 1-.47-.09c-.03-.02-.06-.04-.05-.07.06-.07-.02-.13-.02-.18 0-.12-.05-.14-.12-.15a.48.48 0 0 1-.1-.02c-.04-.02-.08-.04-.1-.1l.02-.07a.11.11 0 0 1 .06-.05c0 .14.1.16.18.15.04 0 .07-.01.1-.04a2 2 0 0 1 .66-.3.84.84 0 0 0 .36-.25.13.13 0 0 0 .02-.15.74.74 0 0 1-.03-.42c0-.02 0-.06.03-.07.03-.02.04.03.05.05l.04.08.06.07a.2.2 0 0 0 .24 0c.04-.03.05-.08.06-.13.01-.04.04-.16.07-.1a2.7 2.7 0 0 1 .06 1c-.01.05-.01.12.01.18.04.09.05.19.04.29 0 .03 0 .07.02.1s.05.06.08.06l.22.1.03.03a.1.1 0 0 1 .02.03.11.11 0 0 1 0 .08c-.02.07-.07.04-.1.02-.14-.1-.32-.08-.46-.2ZM7.8 10.78a.27.27 0 0 1-.05-.24c.03-.15-.04-.29-.07-.28-.04 0-.09.08-.13.09a.2.2 0 0 1-.09-.02.2.2 0 0 1-.07-.05l-.04-.07c0-.03.02-.05.03-.07a.16.16 0 0 1 .06-.04c.04-.01-.01-.06-.02-.06a.15.15 0 0 1-.01-.05.5.5 0 0 1 .06-.14c.02-.01-.03-.17-.03-.17l.1.1c.02.06.1 0 .1 0l-.03-.15c0-.02.13.02.16.15.03.14.4.37.4.37s.33-.15.5.12c.1.14.17.3.22.46l.05.09.01.1c.02.02.08.1.07.12a.22.22 0 0 1-.13.06c-.02-.01-.01-.04-.01-.06v-.06c0-.02-.02-.02-.03-.05a.4.4 0 0 0-.04-.12c-.02-.02-.19-.27-.22-.23-.04.05.12.2.12.22 0 .02-.06 0-.08-.03-.02-.03-.12-.19-.15-.18-.03 0-.1 0-.06.21a1.33 1.33 0 0 0 .2.5v.02l-.02.03h-.02c-.04.01-.06.05-.08.04-.01 0-.02 0-.03-.03v-.1c-.01-.01-.04-.05-.06-.02-.01.02-.04.04-.05.02-.02-.01 0-.04 0-.05a.4.4 0 0 0-.03-.19.7.7 0 0 1-.1-.16c-.01-.05-.04-.06-.05-.06l-.1.02c-.02 0-.05-.05-.07 0a.26.26 0 0 0 0 .17l.07.17.09.18c.01.02.04.11 0 .13-.05.03-.06.06-.1.06-.04 0-.07 0-.06-.01l.02-.04c.02 0 .05-.04.03-.08a.4.4 0 0 0-.04-.08c-.05-.1-.1-.2-.13-.3 0-.05-.1-.22-.1-.24Z" fill="#002F63"/><path d="M6.85 11.97a.7.7 0 0 1-.17.4l-.39.42c-.03.04-.06.03-.1 0l-.33-.24a.73.73 0 0 1-.23-.26.82.82 0 0 1-.1-.35.38.38 0 0 1 .03-.2.33.33 0 0 1 .51-.14c.03.01.04.03.06.05.05.09.1.07.15 0 .04-.06.1-.1.16-.11.06-.02.13 0 .18.03.08.03.14.08.18.16.04.07.06.15.05.24Z" fill="#FAC444"/><path d="M9.27 12.58s-.16.04-.18 0a.26.26 0 0 1 0-.23c.05-.05.08-.22.1-.23.03 0 .05-.13.05-.16a.2.2 0 0 1 0-.14c.03-.04.06-.09.1-.12.02-.02.08-.16.12-.16.03 0 .01-.37.03-.42.02-.04.08.06.09.18 0 .13-.02.22.05.2.16-.02.28.07.41-.26.12-.31.22-.3.22-.3s0-.06.03-.06c.04 0 .04.05.07.05.02 0 .02-.04.04-.04.03-.01.14.03.14.08-.01.03-.02.06.05.06.05 0 .08.07.07.08 0 .02-.03.02-.05.05 0 .03-.02.02.01.03.03 0 .06.02.08.03.03.02.04.1.07.1.02.01 0 .12-.03.12l-.03.08-.03.01c-.02.02-.06.06-.08.04-.02-.02-.1-.01-.11-.02a.08.08 0 0 1-.03-.03.1.1 0 0 1-.01-.04v-.08c0-.02 0-.06-.03-.05a.32.32 0 0 0-.07.03s.02.06.01.07l-.03.06.02.25c0 .03.03.08.02.12a.74.74 0 0 0-.02.1c0 .02.04.08.04.12v.12c0 .03.02.12 0 .15 0 .02.06.15.06.19 0 .04-.13.06-.17.05-.03-.01-.04.04-.09.04l-.2-.01a.08.08 0 0 1-.02-.04V12.43c0-.04-.03-.1-.02-.14v-.13c0-.03-.06-.04-.07-.06-.01-.02-.02-.04-.07-.04-.04 0-.04 0-.04.04s0 .1-.02.1c-.01.01-.05.04-.05.08s.03.24 0 .26a.37.37 0 0 1-.12 0h-.04a.08.08 0 0 1-.03-.03v-.1c0-.05-.04-.07-.03-.09.01-.02.03-.01.03-.06a1 1 0 0 0 0-.21c-.02-.03 0-.09-.02-.09-.04 0-.03.1-.05.12l-.09.13c0 .05-.03.09-.06.12a.24.24 0 0 0-.03.15c0 .03.06.08.01.1Z" fill="#002F63"/><path d="M10.22 13.42a.16.16 0 0 1 0-.16.08.08 0 0 1 .04-.04h.06c.04.02.06 0 .08-.02a.1.1 0 0 1 .12-.01c.02 0 .04.02.05.05l.01.07c0 .05-.02.1-.04.14a.34.34 0 0 1-.1.12h-.06a.41.41 0 0 1-.16-.15ZM8.13 13.67c0 .05 0 .1-.04.14a.78.78 0 0 1-.12.15c-.2.22-.38.04-.47-.17a.16.16 0 0 1 0-.1c0-.02.01-.05.04-.07a.16.16 0 0 1 .07-.06h.1a.14.14 0 0 0 .15-.02c.13-.09.26-.02.27.13Z" fill="#FAC444"/><path d="M10.63 12.6c.12-.06.16-.1.16-.26-.02-.07.01-.06.06-.04a.3.3 0 0 0 .17 0c.03.02.06-.04.07-.07.09-.26.25-.5.47-.65.15-.09.33-.12.49-.2a.68.68 0 0 1 .6-.02c.02 0 .05 0 .05.03s-.03.03-.05.03a.42.42 0 0 1-.2-.01c-.06-.01-.12 0-.18.01a.37.37 0 0 0-.14.1l-.09.05c-.02.02-.1.02-.1.06a.4.4 0 0 0 .08.17c.08.08.07.2.1.3.02.03.03.08.03.12 0 .04 0 .07-.03.09-.04.02-.05-.02-.07-.04-.04-.06-.03-.14-.07-.2-.01-.08-.15-.08-.18-.06v.05c0 .15-.05.27-.07.42-.01.03-.02.07-.07.06-.05-.01-.05-.04-.05-.1 0-.04 0-.09.02-.14v-.06c-.02-.02-.04.03-.05.03a.3.3 0 0 0-.1.09 6.05 6.05 0 0 0-.22.66c0 .04-.01.17-.07.1-.02-.07-.05 0-.06.02l-.03.06-.01.03-.02.01a.04.04 0 0 1-.05-.01l-.02-.02a.07.07 0 0 1 0-.04v-.03c.04-.09.08-.18.1-.27.03-.1 0-.19-.1-.17-.03.01-.07.04-.1.02a.79.79 0 0 0-.27-.13Z" fill="#002F63"/><path d="m8.54 9.6.01-.1a.17.17 0 0 1 .07-.08.11.11 0 0 1 .08-.02c.03 0 .05.02.07.04a.1.1 0 0 0 .05.04l.06-.01a.14.14 0 0 1 .1 0c.04.01.07.03.09.07.02.03.02.07.02.11 0 .04-.03.07-.05.1a.5.5 0 0 1-.3.16H8.7l-.02-.02a.55.55 0 0 1-.14-.29Z" fill="#FAC444"/><path d="M8.22 9.15c-.1-.06-.05-.2-.12-.28-.06-.08-.05-.1.04-.1.12 0 .23-.05.33-.13l-.17.04c-.1.01-.25.07-.3.03-.14-.12-.3-.07-.47-.07a.56.56 0 0 1-.4-.12.68.68 0 0 1-.24-.38.14.14 0 0 0-.03-.05.13.13 0 0 0-.04-.03c-.03-.01-.03.08-.04.1-.01.06-.05.03-.08.04a.58.58 0 0 0-.2.09c-.04.02-.11.01-.1.07 0 .03.02.05.04.06l.06.03h.07c.1 0 .13-.03.19.12.01.14.04.27.09.4a.37.37 0 0 1 0 .34c0 .02-.06.04-.04.07l.02.02a.06.06 0 0 0 .05 0l.03-.02c0-.03.04-.1.07-.06.02.04 0 .1-.04.12-.02.01-.04.03-.04.06.11.03.15.01.16-.1a.8.8 0 0 0 0-.16c-.01-.14 0-.17.1-.16.14 0 .3 0 .44-.03l.03.04.04.01c.05.01.1-.03.14-.06.1.03.15.12.23.18l.02.03a.1.1 0 0 1 0 .07l-.03.03c-.02.02-.08.02-.05.06.02.02.06.02.1.01.04 0 .04-.05.05-.08.01-.03 0-.09.03-.08.02 0 .05.06.06.08v.06a.1.1 0 0 1-.03.06c-.02.01-.06.03-.03.06a.1.1 0 0 0 .09 0c.02 0 .04-.01.05-.03a.1.1 0 0 0 0-.06c0-.1.02-.2-.08-.28ZM7.63 6.33h.12c.02 0 .04-.08.02-.08 0 0-.06 0-.05-.01 0-.02.09-.04.07-.05-.01-.02-.08-.05-.05-.06.02 0 .02.03.05 0 .03-.03-.04-.03 0-.05.02-.02 0-.01.05 0l.09-.03c.06 0 .05.01.07 0a.2.2 0 0 1 .18.05c.1.07.1.06.12.07 0 .01.1.1.1.16s.04.16.02.19c-.01.03 0 .05.02.06.07.04.14.1.2.16.03.04.17-.01.22-.03.07-.02.14-.01.2.02.07.02.3-.09.35.2.06.3.16.24.16.24s-.1.06-.13 0c-.03-.04-.06.06-.07.07l-.01.03c-.01 0-.08-.07-.08-.05v.06c.02.01.08.08.08.1 0 .02 0 .06-.03.04-.02-.02-.02-.05-.03-.03-.01.02.02.08.03.1h-.11c-.07.02-.13.03-.2.03-.05 0-.05-.07.01-.07.09 0 .1-.05.07-.08l-.07-.1c-.01-.02-.02-.04-.04-.02s0 .04-.02.05c-.01 0-.03 0-.06-.03-.01-.02-.02-.02-.04 0l-.01.04-.02-.03c-.02-.03-.03-.04-.04-.03-.01.01-.02 0-.02.03s-.04.02-.04.01l-.01-.05c-.02 0-.03.02-.03.04 0 .01 0 .04-.02.02s-.02-.06-.05-.05c-.03 0-.04-.01-.07.06-.02.06-.03 0-.03 0s0-.09-.04-.07c-.03.03-.03.05-.01.1.02.06-.02.06-.03.07l-.02.02v.03c0 .02.01.03-.02.04-.03.01-.25.02-.26 0 0-.02.04-.05.11-.05s0-.17-.01-.17c-.02 0-.08 0-.1-.04 0-.03.02-.07.01-.1 0-.01-.05.02-.07.05V7.1c.02-.03 0-.1-.03-.06a.53.53 0 0 0-.04.12c0 .02-.03-.04 0-.12.02-.08-.04-.03-.05 0-.02.04-.03-.05-.01-.1.02-.04-.02-.07-.05-.03-.02.05-.04.11-.05.09 0-.03.04-.13.03-.15-.01-.02 0-.07-.02-.07-.01 0-.04.06-.05.04 0-.03.03-.07.05-.1a.2.2 0 0 0 .04-.08L7.9 6.6h-.02c-.01 0-.06 0-.05-.02a.1.1 0 0 1 .03-.04.1.1 0 0 1 .05-.02c.05 0 .1-.04.09-.06h-.13c-.16 0-.26-.03-.24-.14Z" fill="#002F63"/><path d="M8.89 6.45c-.08 0-.1-.08-.13-.13a.16.16 0 0 1 .02-.2.09.09 0 0 1 .11 0l.06.01h.07a.1.1 0 0 1 .07.01l.05.05v.08c0 .03-.01.05-.03.07a.4.4 0 0 1-.22.1Z" fill="#FAC444"/><path d="M13.63 4.69a.32.32 0 0 1-.15-.04.93.93 0 0 0-.54-.03c-.03 0-.04.02-.03.05a.3.3 0 0 1-.02.21.3.3 0 0 0 0 .22l.06.09.1.05.04.03c.07.12.1.26.11.4 0 .07-.06.1-.11.08-.05-.03-.05-.05-.01-.09.07-.05.07-.08.03-.15a.41.41 0 0 0-.14-.12l-.22-.14c-.06-.03-.08 0-.1.04a.2.2 0 0 0 0 .08c0 .04 0 .09-.02.13a.18.18 0 0 1-.1.08.88.88 0 0 1-.22.09.1.1 0 0 1-.06 0 .11.11 0 0 1-.04-.03c-.02-.01 0-.03 0-.05.03-.03.06-.03.1-.02a.2.2 0 0 0 .1-.02.23.23 0 0 0 .1-.08c.04-.05 0-.1-.02-.15a.32.32 0 0 1-.04-.26V5c.01-.12-.01-.14-.1-.1-.1.07-.21.1-.33.12H12v.02a.57.57 0 0 1-.21.18.55.55 0 0 0-.24.3.24.24 0 0 1-.08.1.2.2 0 0 1-.1.03c-.03 0-.05 0-.05-.03a.05.05 0 0 1 0-.03v-.02h.02c.1-.02.13-.12.17-.2.02-.04.07-.1.06-.13 0-.05-.08-.04-.12-.07-.08-.05-.08-.1 0-.16l.15-.07c.02 0 .05 0 .04-.04a.18.18 0 0 0-.04-.07.16.16 0 0 0-.06-.04.08.08 0 0 0-.06-.01.09.09 0 0 0-.05.03c-.07.08-.08.08-.12-.02a.15.15 0 0 0-.07-.09.13.13 0 0 0-.1-.01.2.2 0 0 1-.16-.05.25.25 0 0 1-.08-.15c0-.02 0-.05.02-.04.12 0 .23-.04.34-.1a.26.26 0 0 1 .17 0c.14.05.28.05.42 0a.38.38 0 0 1 .23 0c.09.04.18.04.27.02a.88.88 0 0 1 .26-.03c.07 0 .13.03.18.08.08.07.17.1.26.1l.28.01c.11.03.21.07.3.15Zm-2.04.43c.05 0 .11.06.15-.05-.05.03-.1.02-.15.05ZM13.35 7.99a.12.12 0 0 0 0-.11c-.03-.04-.1-.07-.06-.1.04-.03-.02-.1-.02-.14 0-.04-.11-.18-.11-.18s.14-.04.1-.14c-.06-.12-.2-.04-.24-.02-.03.02-.15-.07-.15-.07s.1-.27-.2-.37c-.3-.1-.46.26-.4.36.06.11 0 .18 0 .18-.14.44.16.51.16.51.03 0 .01.09-.02.07-.03-.01-.1.07-.09.1 0 .02.05.01.05.03v.02c-.02 0-.04.02-.03.04 0 .02.03.03.06.03a.1.1 0 0 0 .05-.01l.04-.04.01.02v.03l-.01.03v.03c.01.02.05.02.07.01.02 0 .04 0 .04-.02l.02-.04.04-.01c.05-.01.03-.05.04-.1 0-.03-.05-.07-.08-.08-.03-.01-.02-.1 0-.09.05.04.27-.1.28-.06 0 .03.08.1.1.12 0 .02.02.02-.03.07-.04.05.03.08.07.07.01 0 .02 0 .03-.02l.01-.04c0-.02.06-.05.1-.05.04.01 0 .07.02.1 0 .01.04.02.03.04 0 .02-.02.04 0 .06h.08c.02 0 .03-.04.04-.07 0-.03.02-.04.03-.08 0-.03-.04-.06-.03-.08ZM9.59 8.21l.15-.19a.8.8 0 0 1 .1-.27c.04-.09.1-.16.18-.22a.6.6 0 0 1 .5-.13s-.04-.14-.02-.19a.19.19 0 0 0 .01-.16.29.29 0 0 1 0-.15c.01-.02.1.06.11.1.02.04.07.03.08.01a.19.19 0 0 1 .11 0c.03 0 .05.02.08-.01.02-.02.07-.14.1-.16.04-.01.03.28.02.3 0 .01.04.2.03.23-.02.04-.05.06-.05.1.03.17 0 .34-.06.48a.28.28 0 0 0-.03.32c.04.12-.02.14.04.16.05.02.1.09.07.11a.22.22 0 0 1-.17-.03c-.02-.02 0-.07-.05-.13-.04-.06-.05-.15-.1-.17a.1.1 0 0 0-.08 0 .12.12 0 0 0-.06.07c-.01.06-.03.1.02.14.05.04.08.1.04.12-.03.02-.09-.02-.12-.02s-.06 0-.06-.02c-.01-.04-.03-.1-.05-.08-.01.02 0 .1-.07.1l-.22-.02c-.02-.01-.01-.03-.06-.03-.04 0-.16.01-.18-.02-.02-.03-.03-.06-.05-.04-.02.02-.01-.05-.07-.05-.05 0-.07.1-.11.1-.04-.01-.87.01-.92-.08-.05-.09 0-.14.15-.13.14 0 .6.06.74-.04Z" fill="#002F63"/><path d="M12.01 7.8a.62.62 0 0 1-.18.3.08.08 0 0 1-.1 0 .51.51 0 0 1-.23-.2.23.23 0 0 1 .01-.27.15.15 0 0 1 .1-.05c.04 0 .08 0 .11.04a.06.06 0 0 0 .08 0 .11.11 0 0 1 .15-.01c.03.01.05.05.06.08a.2.2 0 0 1 0 .12Z" fill="#FAC444"/><path d="M11.14 8.89s-.07-.01-.09-.05a.06.06 0 0 1 .02-.06l.08-.03.04-.01c.02-.03 0-.08.04-.1a.17.17 0 0 1 .1-.06c.04 0 .08 0 .11.03.12.07.16.03.21.07.07.05.15.07.24.06.08 0 .16-.02.23-.07.02-.02.02-.05.05-.04.04 0 .04.01.07 0 .03 0 .05-.02.09 0 .03.02.1.04.1.1 0 .06.07.1.07.11 0 .04.01.08.03.1.03.04.14.13.1.26-.06.14-.07.12-.06.19.02.07.02.13-.02.15-.03.01-.07.02-.07 0v-.01h.02c0-.01.04-.02.02-.12-.02-.09-.06-.18-.1-.17-.05 0-.03.02 0 .1a.16.16 0 0 1 .01.11c0 .02 0 .03-.02.04-.03.03-.09.05-.1.04V9.5c0-.04.03-.05.04-.07.02-.04 0-.08-.03-.1-.06-.1-.14-.12-.14-.18.01-.06-.06.02-.1.04-.03.02-.2.22-.23.22s-.02.16-.02.18v.05l-.03.06a.36.36 0 0 1-.1.06l-.03-.01.04-.04a.11.11 0 0 0 .02-.05V9.6l-.04-.04-.02.02v.03l.02.02v.01a.15.15 0 0 1-.06.08.07.07 0 0 1-.04.01h-.06c0-.02.02-.03.03-.04a.1.1 0 0 0 .04-.04v-.02c0-.03 0-.17-.06-.21-.04-.05-.17-.12-.17-.2l-.01-.04c-.03-.04-.07-.02-.1-.05-.04-.04.02-.14-.01-.17s-.09.02-.13-.01l-.01-.02s0-.02.03-.05ZM11.07 10.28c.02.1.02.19 0 .28 0 .07-.08.09-.17.05-.04-.02-.01-.06.02-.07.05-.02.06-.04.05-.08a.09.09 0 0 0-.04-.04.07.07 0 0 0-.05-.02c-.05 0-.04.04-.04.07-.03.1-.06.13-.15.11-.06 0-.06-.04-.02-.07.07-.06.05-.1 0-.13a.51.51 0 0 1-.04-.04.14.14 0 0 0-.09-.06c-.03 0-.06 0-.1.02-.1.06-.24.04-.35.1a.86.86 0 0 1-.16.04c-.07.01-.09.08-.11.14-.03.08-.09.08-.16.07-.06-.02-.06-.05-.02-.09l.05-.05c0-.03.02-.07 0-.09-.04-.02-.05.03-.06.05a.2.2 0 0 1-.1.07.18.18 0 0 1-.14-.01c-.02-.01-.05-.02-.04-.05l.02-.04a.06.06 0 0 1 .04-.01c.08-.02.1-.07.06-.13l-.13-.17a.31.31 0 0 1-.07-.24c.02-.1 0-.18-.02-.26l.01-.5c0-.04 0-.08-.02-.12a.08.08 0 0 1-.01-.05c0-.07 0-.17.08-.2.07-.02.1.08.13.13s.09.08.15.1c.06 0 .12-.01.17-.05a.71.71 0 0 1 .1-.06c.08-.04.11-.01.1.07 0 .06-.01.12-.04.17a.23.23 0 0 0-.02.24l.02.11c-.01.1.05.13.13.13.17.03.35.04.53.03.12-.02.24 0 .34.07.1.06.18.17.22.29.02.07.06.13.11.18a.3.3 0 0 0 .18.06.1.1 0 0 1 .06.02c.02 0 .03.02.04.04.02.03.04.05-.03.08-.18.09-.28-.03-.4-.11-.01-.02-.02-.03-.04-.02-.02.02 0 .03.01.04ZM7.6 5.6c-.01-.06-.11-.07-.11-.07 0-.15-.15-.12-.15-.14a.08.08 0 0 0-.02-.02l-.03-.02c-.01 0 0 .07-.01.06-.02 0-.07.07-.1.04a.11.11 0 0 0-.07-.04s-.02.05 0 .07c.01.03 0 .04 0 .07.01.03-.16.17-.2.17a.56.56 0 0 0-.17.04c-.04.01-.04.05-.08.05a.3.3 0 0 0-.13.03.34.34 0 0 1-.12.03c-.04 0-.05.05-.08.05l-.2.03c-.03 0-.03.03-.07.03-.04-.01-.1.02-.1.04l.06.02a.6.6 0 0 1 .23 0c.06.01 0 .15-.01.31 0 .16-.11.13-.12.15 0 .04 0 .09.02.13 0 .03.11.08.17.1.05.01.07-.04.02-.07-.05-.03-.06-.09-.04-.1a.7.7 0 0 0 .13-.16c0-.02.06-.02.05 0 0 .04.06.1.05.13l.03.09c.01.02.04.04.07.05.06.02.12 0 .09-.01-.04-.01-.04-.06-.07-.07-.03-.02 0-.05.01-.06v-.05l.01-.06v-.03c-.02 0-.02-.06 0-.1 0-.02.13 0 .18 0 .06 0 .06.02.1.04.03.03.05-.02.08-.03.02-.01.04.02 0 .08-.06.1.03.15.06.13.03-.02.08-.17.12-.19.04-.02.06.1.06.13.01.04.1.04.12.03 0-.02-.03-.04-.04-.05a.76.76 0 0 1 0-.11c0-.03-.05-.08-.05-.1 0-.04-.05-.1-.07-.12-.02-.03.02-.08.03-.1 0-.03 0-.12.02-.15l.02-.02c.05.07.07.07.08.07.02 0 .02-.04.03-.04 0 0 0 .04.02.05.01 0 .03 0 .05-.02.02 0 .04-.03.04-.03l.05-.01V5.8c.01-.01.02-.05.01-.06-.01-.01-.02-.04.01-.04s.03-.02.02-.1Z" fill="#002F63"/><path d="M7.13 11.47a.21.21 0 0 1 0-.22.14.14 0 0 1 .06-.06.12.12 0 0 1 .09 0 .1.1 0 0 0 .06 0 .1.1 0 0 0 .05-.05.16.16 0 0 1 .1-.06c.04-.01.07 0 .1.02.04.02.07.05.08.09a.2.2 0 0 1 0 .12.62.62 0 0 1-.2.33l-.04.02H7.4a.51.51 0 0 1-.27-.19Z" fill="#FAC444"/><path d="m11.51 6.62.12.06.06.02c.02.01.04.03.03.05-.01.03-.04.02-.06.02l-.16-.05a.61.61 0 0 0-.15-.02c-.05 0-.08.03-.11-.02 0-.04-.1-.05-.14-.05a.6.6 0 0 0-.13-.01c-.02 0-.06 0-.03.04.02.02 0 .03-.03.04-.1.03-.21.03-.31 0-.01-.01-.05-.07-.04-.08.04-.03.01-.04.01-.07 0-.05-.03-.05-.07-.06h-.06c-.02-.01-.05-.02-.06-.05 0-.02.02-.04.05-.05 0 .06.06.07.11.06.02 0 .04 0 .06-.02.11-.08.24-.13.37-.17.08-.03.2-.03.26-.08.02-.02.02-.04 0-.07a.23.23 0 0 1-.01-.18c0-.01 0-.03.02-.03s.02.01.03.02l.03.04.08.04c.03 0 .07 0 .1-.02.02-.01.03-.04.03-.06.01-.02.03-.07.05-.04a.1.1 0 0 1 .02.05c.03.12.04.25.02.38a.1.1 0 0 0 0 .08c.03.04.03.09.03.13-.01.04.02.06.06.07l.13.04c.03.01.05.03.04.06-.02.03-.05.02-.07 0-.09-.04-.2-.03-.28-.07Z" fill="#002F63"/><path d="M12.37 6.42c-.07 0-.1-.08-.13-.13a.16.16 0 0 1 .02-.2.09.09 0 0 1 .11 0l.07.01h.07a.1.1 0 0 1 .07 0l.05.06v.08c0 .03-.02.05-.04.07a.4.4 0 0 1-.22.1Z" fill="#FAC444"/><path d="M10.6 5.44c.04.01.1-.03.11.04.01.05-.04.09-.08.11-.1.05-.19.1-.28.13-.01.01-.04.01-.04.03 0 .15-.1.24-.15.36 0 .02-.05.05 0 .07.02.01.04-.01.04-.04s.01-.07.04-.07c.02 0 .02.05.02.07a.1.1 0 0 1-.01.08.09.09 0 0 1-.06.04c-.11.04-.14.08-.14.2l-.01.04c0 .02-.02.02-.04.02-.06.03-.12.1-.2.03-.02-.03 0-.06 0-.08 0-.03.04-.07 0-.09-.04 0-.04.04-.04.07-.02.1-.07.04-.11.03-.05-.02-.08-.11-.05-.15.03-.03.03-.07.01-.1a.28.28 0 0 1 .05-.3.55.55 0 0 0 .05-.11c.06-.1.15-.2.25-.23.08-.03.14-.06.14-.16.01-.1.08-.14.13-.21a.91.91 0 0 1 .06-.1c.02 0 .03-.04.06-.02 0 0 .02.01.02.03v.03c-.04.12.03.18.1.25.03.04.08.03.13.03Z" fill="#002F63"/><path d="M8.5 7.93c.01.04 0 .07-.02.1a.53.53 0 0 1-.08.1c-.15.15-.26.03-.32-.1a.11.11 0 0 1-.01-.07.1.1 0 0 1 .03-.06.1.1 0 0 1 .05-.04.1.1 0 0 1 .07 0 .1.1 0 0 0 .1 0c.1-.07.18-.03.19.07ZM12.18 10.67a.6.6 0 0 1-.11.34.11.11 0 0 1-.05.04.1.1 0 0 1-.06 0 .56.56 0 0 1-.31-.12.18.18 0 0 1-.08-.1.2.2 0 0 1 0-.14.2.2 0 0 1 .1-.09.18.18 0 0 1 .13 0h.05l.03-.04a.16.16 0 0 1 .08-.06.14.14 0 0 1 .09 0c.04 0 .07.03.1.06a.2.2 0 0 1 .03.1Z" fill="#FAC444"/><path d="M3 7.57s.18-.08.19-.12a.43.43 0 0 1 .1-.3.35.35 0 0 1 .12-.08l.15-.03a3 3 0 0 0 .71-.03c.04-.05 0-.19-.03-.22a.08.08 0 0 1 0-.06l.01-.03.03-.02c.04-.01.01-.1.08-.12.07-.02.12 0 .2-.02.09-.02.16-.1.2-.06.02.03-.08.2-.14.22-.06 0-.1.16.02.26.12.1.11.27.04.3-.07.04-.1.1-.2.11-.1 0-.02.17 0 .2.03 0 .04.06 0 .06s-.18-.03-.21-.1-.17-.02-.22-.05a.41.41 0 0 0-.17-.05.56.56 0 0 0-.25.01c-.04.03-.08.07-.11.06-.03 0-.06 0-.07.02 0 .03.14.1.12.12-.02 0-.09.04-.12 0-.04-.02-.1-.11-.13-.1-.03.01-.26.07-.32.03ZM5.94 7.7c-.07-.01-.14.12-.18.1-.04-.01-.18 0-.18-.07 0-.06-.16-.24-.16-.24l-.04.1c-.04.08.04.2.04.2a.34.34 0 0 0 .02.26c.07.1-.03.14-.03.14a.72.72 0 0 0-.3.24.84.84 0 0 0-.15.38c-.33.07-.53-.26-.42-.1.1.16.41.16.43.17.02.12.03.25.02.37 0 .06.08.05.12.06.03.01.04-.05 0-.08-.04-.04-.06-.26-.01-.28a.99.99 0 0 0 .17-.12c0 .09 0 .17.03.25.03.04 0 .22 0 .25s-.03.07-.03.12c-.01.04.08.05.11.05.03.01 0-.19.01-.22 0-.04.1.02.13.05.03.02 0 .06 0 .1 0 .04.08.09.11.1.03 0 .05 0 .05-.03 0-.04-.08-.12-.08-.17 0-.04.1-.27.1-.3 0-.02.02-.2.07-.23.04-.03.04-.29.05-.32a.5.5 0 0 0-.01-.2c-.01-.04-.03-.2.05-.26.08-.05.14-.31.08-.32Zm-.4 1.57c-.03-.02-.18-.17-.13-.22 0 0-.03-.03 0-.05.03-.02.16-.09.16-.12 0-.04.02-.04.02-.04s0 .45-.04.43ZM7.32 13.15a.33.33 0 0 1-.1-.12.37.37 0 0 1-.04-.15c0-.06.01-.12.04-.17.02-.06.05-.1.09-.15a.23.23 0 0 0 0-.2c-.02-.06-.12-.29-.1-.32.03-.04.23.28.28.28.06-.02.34 0 .36-.01.02-.02.04-.02.1-.02.07 0 .1.01.16-.1.05-.1.06-.18.1-.2.03-.02.05-.1.06-.13 0-.03.02-.07.05-.06.02.01.02.1.06.1l.12-.02a.6.6 0 0 1 .1-.11c.02-.02.03.1.02.12-.02.03.09.11.08.12 0 .04 0 .08-.02.12v.05c.02.02.08.09.05.15a.33.33 0 0 1-.08.09h-.1c-.03-.01-.09-.02-.08-.04 0-.02-.08.03-.05.08s.1.19.07.23c-.04.04-.05.15-.09.16-.04.02-.07.16-.03.19.04.02.06.05.05.07H8.4c-.01 0-.12.02-.13-.04v-.03c-.02 0-.08.06-.05.08.03.02.06.11 0 .11s-.18 0-.17-.03V13.13c-.02-.03-.05-.03-.06-.05l-.01-.05h-.02c-.02-.02-.03-.04-.05-.04H7.9a.15.15 0 0 1-.1.02c-.04 0-.04-.03-.06-.03-.03 0-.03.05-.07.06-.03.02-.05-.04-.13-.05-.02 0-.07-.02-.1.02-.02.03 0 .07-.02.1-.01.03-.04.04-.1.04ZM6.18 7.94c0-.14 0-.28.04-.42.03 0 .08.03.1-.01.02-.04-.08-.12-.07-.15 0-.03.02-.06 0-.06-.04 0-.65.03-.4-.53 0 0-.18.44.4.45a.67.67 0 0 0 .09-.05l.03-.01.03-.02a.17.17 0 0 1 .06-.02l.05-.01a.1.1 0 0 0 .03-.04c.03-.04.13-.02.18-.01.12.01.27 0 .28-.04l.01-.09h.01l.06-.06-.09-.11c0-.02.1.01.15.04.04.03.13-.02.19.03.05.06.07.01.12.11l.11.21c.04.11-.01.16-.03.35-.02.18 0 .47.12.54.04.03.13.04.13.06v.01c-.02.03-.16.01-.18 0-.09-.16-.16-.33-.22-.5 0-.08-.2-.15-.25-.02a4.49 4.49 0 0 0-.04.5c0 .02-.01.03-.02.03-.03.02-.07 0-.07-.01v-.02c.02-.18 0-.36-.03-.54-.04-.01-.1 0-.13-.04-.04-.04-.12-.06-.13-.01-.02.04-.13.28-.3.27-.18 0-.03.24-.01.26.01.01.01.05-.03.04-.05-.01-.11-.06-.1-.11 0-.03 0-.04-.02-.05h-.02l-.05.03Z" fill="#002F63"/><path d="M5.48 6.86a.52.52 0 0 1-.16.25.07.07 0 0 1-.08 0 .42.42 0 0 1-.19-.18.2.2 0 0 1 0-.21.12.12 0 0 1 .1-.05c.03 0 .06 0 .09.03a.05.05 0 0 0 .06 0 .1.1 0 0 1 .13 0c.02 0 .04.04.05.07v.1Z" fill="#FAC444"/><path d="M15 7.19c-.26.13-.35.27-.5.27-.03 0-.03.04-.05.06l-.3.28c-.02 0-.05.02-.06.01l-.01-.02a.1.1 0 0 1 0-.07c0-.02.01-.03.02-.03a.6.6 0 0 0 .14-.12l.02-.04V7.5l-.01-.01h-.05l-.3.2a.42.42 0 0 1-.13.07c-.02 0-.05.02-.07 0V7.7l.03-.03.14-.08c.02-.02.06-.02.08-.06h-.16c-.11 0-.15-.07-.11-.2V7.3a.07.07 0 0 0-.02-.04.36.36 0 0 1-.12-.22c0-.1-.1-.17-.1-.28l-.01-.02c-.08.02-.17-.1-.25.03l-.02.02h-.04l-.03-.01a.08.08 0 0 1-.02-.04l.01-.05a.22.22 0 0 1 .09-.11.19.19 0 0 1 .12-.04c.05.01.08-.01.08-.06 0-.06.01-.12.04-.17.02-.05.05-.1.09-.14.05-.05.04-.1 0-.16a.68.68 0 0 1-.04-.43c0-.04.04-.05.07-.02l.04.04c.04.03.05.1.1.1.1-.01.2 0 .27-.1a.52.52 0 0 1 .1-.1c.02 0 .04-.03.06-.01l.02.03v.04c0 .07-.02.13-.05.19l-.16.23c-.05.06-.07.11-.02.18.07.13.11.27.11.42 0 .03.01.06.03.08.14.11.18.31.32.43.08.06.1.18.17.27l.02.03.04.02h.03l.03-.03.13-.11a.3.3 0 0 1 .1-.06.28.28 0 0 1 .13-.01Z" fill="#002F63"/><path d="M14.16 8.26v-.08a.14.14 0 0 1 .05-.07.12.12 0 0 1 .07-.04c.03 0 .06 0 .08.02a.12.12 0 0 0 .13 0 .16.16 0 0 1 .11-.02.1.1 0 0 1 .06.02l.04.05a.14.14 0 0 1 0 .12.51.51 0 0 1-.14.16.46.46 0 0 1-.18.08h-.03a.38.38 0 0 1-.12-.1.43.43 0 0 1-.07-.14Z" fill="#FAC444"/><path d="M13.67 8.06c.07.06.12.15.14.24.03.15.03.31 0 .46-.01.08-.01.15.05.2.06.06.11.13.15.2.03.07.08.13.14.15.06.03.13.03.2 0 .05 0 .1-.05.15 0 .07.1.16.16.18.3l-.01.06a.1.1 0 0 1-.04.04c-.02.02-.05.06-.08.03-.02-.02 0-.06 0-.09.05-.07 0-.11-.03-.16a.1.1 0 0 0-.06-.04.1.1 0 0 0-.07 0c-.1.06-.2.09-.31.1-.02 0-.08 0-.09.03 0 .02.04.04.05.05.04.01.07.04.1.07.02.03.03.08.03.12v.15c.02.04.03.09.01.13a.2.2 0 0 1-.07.11c-.02.02-.04.05-.07.03-.03-.03 0-.07.02-.1a.19.19 0 0 0 .03-.13c-.01-.23-.08-.3-.28-.26a.24.24 0 0 1-.18 0c-.03-.03-.04-.01-.04.02a1.4 1.4 0 0 1-.1.32.08.08 0 0 0 0 .08c.06.13.13.26.21.38a.31.31 0 0 1-.02.36c-.02.02-.03.05-.06.03a.08.08 0 0 1 0-.1c.07-.05 0-.17-.04-.25a.37.37 0 0 0-.06-.08c-.03-.03-.07-.13-.11-.11-.04.01.02.11.02.16v.42c0 .06 0 .1-.04.13s-.07.06-.07-.02c0-.03 0-.08-.03-.09-.02 0-.02.03-.03.06-.02.05-.07.03-.1.08-.05.08-.14.12-.2.05l-.19-.25a.22.22 0 0 1-.03-.17.6.6 0 0 0-.01-.34.41.41 0 0 1-.01-.25.1.1 0 0 0 0-.05.46.46 0 0 1 .02-.22.42.42 0 0 1 .12-.18.43.43 0 0 0 .07-.1c.1-.2.29-.33.4-.53a.3.3 0 0 1 .15-.11c.24-.07.26-.27.27-.48a.68.68 0 0 0-.05-.34.17.17 0 0 1-.03-.11Zm-.35 2.66-.07-.2c0-.04-.02-.08-.06-.06-.05.02-.07.07-.04.1.04.08.09.14.14.2.01.01.02-.01.03-.04Z" fill="#002F63"/></svg>