<!-- by TradingView --><svg width="18" height="18" viewBox="0 0 18 18" xmlns="http://www.w3.org/2000/svg"><path fill="#F0F3FA" d="M0 0h18v18H0z"/><path d="m11.14 6.05.46.38h-.16C9.19 4.7 7.4 4.3 7.23 4.28c-.14-.02.24.4.45.6h.86v.17L4 4.9h3.51c-.69-.5-.75-.76-.7-.83.56-.33 2.84.83 4.04 1.73 1.4-.2 2.67.37 3.13.69v.1a5.13 5.13 0 0 0-2.84-.53ZM9.96 7.8a4.24 4.24 0 0 0-1.85 1.12l.15-.08c.4-.21 1.12-.59 1.95-.92.84-.34 1.8-.41 2.37-.46.24-.02.42-.03.5-.06.21-.07.7-.33.92-.45v-.19l-.68.47c-.12.08-.44.15-.59.17-.5 0-1.74.07-2.77.4Zm-5.1-2.48h4.5v.14l-4.5-.14Zm5.17.43h-4.5l4.5.14v-.14Zm-3.76.43h4.5v.14l-.65-.02c-2.2.91-2.9 2.86-3.03 3.25l-.01.04c-.07.2.04.16.11.12-.03.05-.08.24-.04.68.04.44-.16.83-.26.97-.02-.3-.1-.9-.26-.97-.15-.07-.44.3-.57.48.07-.78.64-1.1.92-1.16A5.55 5.55 0 0 1 9.42 6.3l-3.15-.1Zm6.81.44c.1 0 .18-.08.18-.17 0-.1-.08-.18-.18-.18-.1 0-.18.08-.18.18 0 .1.08.17.18.17Z" fill="#00429D"/><path d="M10.64 14H9.38c.47-.7 1.43-2.33 1.55-3.14.15-1.02-.87-1.3-1.55-1.4a5.96 5.96 0 0 0-1.94.27c2-1.03 4.37-.47 4.37.88 0 1.07-.78 2.72-1.17 3.39Z" fill="#00429D"/><path d="M9.47 14H8.43c0-.11.23-.58 1.15-1.39 1.14-1.02 1.3-2.28.5-2.8-.65-.43-2-.24-2.6-.1 1.84-.63 3.61-.29 3.61 1.1 0 1.1-1.08 2.6-1.62 3.19Z" fill="#F0F3FA"/><path d="M9.13 9.47c-.77 0-1.44.15-1.68.22 1.57-.32 3.14-.14 2.83 1.22-.25 1.1-2.04 2.5-2.94 3.09H8.5c1.73-1.29 2.33-2.75 2.33-3.42 0-.68-.73-1.11-1.7-1.11Z" fill="#E90013"/><path d="M8.93 9.55c-.7 0-1.3.12-1.52.18 2.98-.4 2.94.85 2.37 1.8-.46.76-2.29 1.97-3.15 2.47h.78c2.42-1.41 3.06-2.84 3.06-3.42 0-.58-.68-1.03-1.54-1.03Z" fill="#F0F3FA"/><path d="M8.88 9.62a9.6 9.6 0 0 0-1.43.12c.32-.04 1.06-.1 1.43 0 1.23.22 1.4.84.57 2.01-.66.94-2.74 1.9-3.7 2.25h.9c2.48-.98 3.56-2.83 3.56-3.42 0-.6-.63-.96-1.33-.96Z" fill="#00429D"/><path d="M9.9 10.59c0 1.54-3.24 2.92-4.87 3.41h.69c1.73-.46 4.34-2.16 4.34-3.41 0-1-1.78-.99-2.67-.85 2-.18 2.51.5 2.52.85Z"/></svg>