<!-- by TradingView --><svg width="18" height="18" viewBox="0 0 18 18" xmlns="http://www.w3.org/2000/svg"><path fill="#F0F3FA" d="M0 0h18v18H0z"/><path d="M11.23 4.62c.3.34.24.58.17.65-.66.53-1.13.22-1.28 0-.28.2-1 .44-1.59-.06-.59-.5-1.28-.1-1.55.15-.45.34-1.35 1.17-1.35 1.85 0 .85.66 1.28 1.17 1.28.51 0 .35-.25 1.27-.25.73 0 1 .94 1.06 1.41v1.37c.14.56.53 1.7 1 1.7.45 0 1.04-.66 1.27-.99-.16-.48.56-1.06.95-1.29a.97.97 0 0 1-.22-1.33l1.07-1.08a4.24 4.24 0 0 0-.7-.3c-.37-.12-.16-.47 0-.62.29-.3 1.1-.62 1.97.54.87 1.17.48 2.4.17 2.88-.55.6-1.91 2.12-3.12 3.3C10.22 15.07 9.64 15 9.54 15a2.01 2.01 0 0 1-1.99-1.63v-2.53c0-.82-.55-.95-.83-.91H5.63C4.75 9.93 3 9.63 3 8.4c0-1.24.45-1.87.67-2.03L6.3 4.03A3.15 3.15 0 0 1 8.53 3c1.38 0 2.33 1.2 2.7 1.62Z"/></svg>