<!-- by TradingView --><svg width="18" height="18" viewBox="0 0 18 18" xmlns="http://www.w3.org/2000/svg"><path fill="#F0F3FA" d="M0 0h18v18H0z"/><path d="M10.56 5.78A3506.21 3506.21 0 0 1 7.23 12H8.9l.02-.03 2.75-5.1c.17-.32.32-.54.45-.68a2.99 2.99 0 0 1 .87-.62l.01-.02V4.03a.03.03 0 0 0-.02-.03h-.02a5.55 5.55 0 0 0-2.4 1.78Zm-4.4 6.66A2872.73 2872.73 0 0 1 9.14 7H7.64l-.01.02-2.45 4.48c-.15.27-.28.46-.4.58a2.66 2.66 0 0 1-.77.55l-.01.02v1.33a.02.02 0 0 0 .03.02 4.93 4.93 0 0 0 2.14-1.56Z" fill="#F29600"/></svg>