<!-- by TradingView --><svg width="18" height="18" viewBox="0 0 18 18" xmlns="http://www.w3.org/2000/svg"><path fill="#F0F3FA" d="M0 0h18v18H0z"/><path d="M13.06 6.3c0 .48-.28.8-.41.9A5.48 5.48 0 0 0 9 6c-2 0-2 .7-2 1.07C7 8.2 9.18 8.2 10.37 8.29c3.18.37 3.63 1.37 3.63 2.33C14 12.81 10.24 13 8.47 13c-1.76 0-3.4-.28-3.88-.4-.5-.12-.59-.68-.59-1.28 0-.48.29-.74.43-.8A6.71 6.71 0 0 0 8.47 12c1.59 0 2.53-.3 2.53-1.07 0-.76-.78-.9-3.27-1.43C5.23 8.98 4 8.63 4 7.32 4 5.54 7.22 5 9.18 5c1.96 0 3.04.24 3.33.31.3.07.55.41.55 1Z" fill="#DD1C19"/></svg>