<!-- by TradingView --><svg width="18" height="18" viewBox="0 0 18 18" xmlns="http://www.w3.org/2000/svg"><path fill="#F0F3FA" d="M0 0h18v18H0z"/><path d="M9.46 11.26a.4.4 0 0 1-.58-.14.36.36 0 0 1 .07-.42.4.4 0 0 1 .41-.1c.08.03.14.07.19.13a.37.37 0 0 1-.09.53ZM10.37 11.14a.32.32 0 0 1-.46-.11.3.3 0 0 1 .05-.33.31.31 0 0 1 .33-.08c.06.02.1.05.15.1a.3.3 0 0 1-.07.42ZM11.03 10.5a.32.32 0 0 1-.46-.1.3.3 0 0 1 .05-.34.31.31 0 0 1 .33-.08c.06.02.11.06.15.1a.3.3 0 0 1-.07.43ZM8.44 9.7a.52.52 0 0 1-.4.1.53.53 0 0 1-.35-.22.5.5 0 0 1-.11-.39.5.5 0 0 1 .21-.34.55.55 0 0 1 .62-.03.54.54 0 0 1 .25.32.5.5 0 0 1-.07.4.52.52 0 0 1-.15.15ZM9.19 8.65a.55.55 0 0 1-.42.11.56.56 0 0 1-.37-.22.54.54 0 0 1-.12-.41.53.53 0 0 1 .23-.37.58.58 0 0 1 .43-.1.59.59 0 0 1 .38.22.53.53 0 0 1 .1.41.53.53 0 0 1-.23.36ZM8.63 10.77a.45.45 0 0 1-.34.08.45.45 0 0 1-.3-.18.43.43 0 0 1-.1-.33.43.43 0 0 1 .19-.3.47.47 0 0 1 .35-.08.48.48 0 0 1 .31.18.43.43 0 0 1 .09.34.43.43 0 0 1-.2.29ZM11.16 9.6a.24.24 0 0 1-.35-.08.22.22 0 0 1 .04-.25.24.24 0 0 1 .36.02.23.23 0 0 1-.05.31ZM10.86 8.84a.2.2 0 0 1-.3-.07.18.18 0 0 1 .04-.21.2.2 0 0 1 .3.01.19.19 0 0 1-.04.27ZM10.18 8.31a.2.2 0 0 1-.29-.07.18.18 0 0 1 .03-.2.2.2 0 0 1 .3.01.19.19 0 0 1-.04.26ZM10.03 12.7a.47.47 0 0 1-.5-.13.43.43 0 0 1-.09-.16.43.43 0 0 1 .13-.5c.05-.04.1-.07.16-.08a.5.5 0 0 1 .52.13.46.46 0 0 1 .06.51.45.45 0 0 1-.28.23ZM12.34 10.13a.25.25 0 0 1-.27-.07.23.23 0 0 1-.03-.26.24.24 0 0 1 .1-.1.25.25 0 0 1 .27.02.23.23 0 0 1 .07.29.23.23 0 0 1-.14.12ZM11.26 12.16a.4.4 0 0 1-.41-.11.37.37 0 0 1-.06-.42.38.38 0 0 1 .16-.16.4.4 0 0 1 .43.03.38.38 0 0 1 .1.47.37.37 0 0 1-.22.19ZM12.05 11.19a.32.32 0 0 1-.34-.09.3.3 0 0 1-.04-.33.3.3 0 0 1 .12-.13.32.32 0 0 1 .35.03.3.3 0 0 1 .12.25.3.3 0 0 1-.1.21.31.31 0 0 1-.11.06ZM8.56 12.58a.54.54 0 0 1-.59-.15.5.5 0 0 1-.1-.18.5.5 0 0 1 .15-.58.57.57 0 0 1 .79.05.53.53 0 0 1 .08.6.52.52 0 0 1-.33.26ZM7.36 11.77a.61.61 0 0 1-.66-.16.57.57 0 0 1-.11-.2.57.57 0 0 1 .16-.66c.07-.05.14-.09.22-.11a.64.64 0 0 1 .68.17.6.6 0 0 1 .08.67.6.6 0 0 1-.37.3ZM6.8 10.3a.64.64 0 0 1-.7-.17.59.59 0 0 1-.12-.22.6.6 0 0 1 .18-.68c.06-.05.14-.1.22-.12a.67.67 0 0 1 .7.19.62.62 0 0 1 .1.7.62.62 0 0 1-.4.3h.01ZM7.02 8.74a.66.66 0 0 1-.72-.19.61.61 0 0 1-.12-.22.62.62 0 0 1 .18-.7.7.7 0 0 1 .97.06.65.65 0 0 1 .09.73.64.64 0 0 1-.4.31ZM9.88 7.3a.69.69 0 0 1-.74-.19.64.64 0 0 1-.13-.23.64.64 0 0 1 .19-.73c.07-.06.15-.1.24-.13a.72.72 0 0 1 .76.2.67.67 0 0 1 .1.75.67.67 0 0 1-.42.33ZM8.2 7.58a.67.67 0 0 1-.72-.19.63.63 0 0 1-.13-.23.63.63 0 0 1 .18-.72c.07-.05.15-.1.24-.13a.71.71 0 0 1 .75.2.66.66 0 0 1 .1.74.65.65 0 0 1-.41.33ZM12.33 9a.25.25 0 0 1-.26-.06.23.23 0 0 1-.04-.26.24.24 0 0 1 .1-.1.25.25 0 0 1 .27.02.24.24 0 0 1 .07.29.23.23 0 0 1-.14.11ZM11.95 8.16a.25.25 0 0 1-.26-.07.23.23 0 0 1-.03-.26.24.24 0 0 1 .1-.1.25.25 0 0 1 .26.02.24.24 0 0 1 .07.29.23.23 0 0 1-.14.12ZM11.3 7.43a.25.25 0 0 1-.27-.07.23.23 0 0 1-.03-.26.24.24 0 0 1 .1-.1.25.25 0 0 1 .26.02.24.24 0 0 1 .1.2.22.22 0 0 1-.09.16.24.24 0 0 1-.08.05ZM11.3 5.96a.5.5 0 0 1-.15-.82.5.5 0 1 1 .16.82ZM4.46 8.43a.72.72 0 0 1-.4-.97.73.73 0 0 1 .97-.4.74.74 0 0 1 .4 1 .73.73 0 0 1-.97.37ZM4.3 9.96a.5.5 0 0 1-.3-.47.5.5 0 0 1 .31-.46.49.49 0 0 1 .38.01.5.5 0 0 1 .31.47.5.5 0 0 1-.31.46.49.49 0 0 1-.38-.01ZM4.8 11.45a.5.5 0 1 1 .4-.92.5.5 0 0 1-.4.92ZM5.8 12.96a.47.47 0 0 1-.26-.65.49.49 0 0 1 .65-.27.5.5 0 0 1 .3.47.5.5 0 0 1-.14.35.48.48 0 0 1-.17.1A.9.9 0 0 1 6 13a.49.49 0 0 1-.19-.05ZM7.3 13.96a.5.5 0 1 1 .4-.92.5.5 0 0 1-.4.92ZM10.88 13.62a.39.39 0 0 1-.18-.14.37.37 0 0 1 0-.42c.05-.06.1-.1.18-.13a.4.4 0 0 1 .42.08.37.37 0 0 1-.13.61.4.4 0 0 1-.3 0ZM9.3 13.96a.5.5 0 1 1 .66-.27.5.5 0 0 1-.66.27ZM12.4 12.6a.3.3 0 0 1-.14-.12.3.3 0 0 1 0-.33.32.32 0 0 1 .48-.04c.04.04.07.1.08.15a.3.3 0 0 1-.19.33.31.31 0 0 1-.23 0Z" fill="#004985"/><path d="M9.6 5.91a.94.94 0 0 1-.51-1.28c.22-.52.77-.77 1.29-.55a1 1 0 0 1 .54 1.32.97.97 0 0 1-1.31.51Z" fill="#004985"/><path d="M7.6 5.91a.94.94 0 0 1-.51-1.28c.22-.52.77-.77 1.3-.55a1 1 0 0 1 .53 1.33.97.97 0 0 1-1.31.5ZM5.6 6.91a.94.94 0 0 1-.51-1.28c.22-.52.77-.77 1.3-.55a1 1 0 0 1 .53 1.33.97.97 0 0 1-1.31.5ZM13.27 11.22a.24.24 0 0 1-.11-.09.23.23 0 0 1 0-.26.24.24 0 0 1 .1-.09.25.25 0 0 1 .27.06c.04.03.06.07.07.12 0 .04 0 .1-.02.13a.23.23 0 0 1-.13.13.25.25 0 0 1-.18 0ZM13.66 9.7a.24.24 0 0 1-.1-.08.23.23 0 0 1 0-.26.24.24 0 0 1 .1-.09.25.25 0 0 1 .27.05c.04.04.06.08.07.13 0 .04 0 .09-.02.13a.23.23 0 0 1-.13.13.25.25 0 0 1-.19 0ZM12.9 6.88a.24.24 0 0 1-.1-.09.23.23 0 0 1 .11-.35.25.25 0 0 1 .27.06c.03.03.05.07.06.12 0 .05 0 .1-.02.14a.23.23 0 0 1-.13.12.25.25 0 0 1-.18 0ZM13.5 8.23a.24.24 0 0 1-.1-.08.23.23 0 0 1 0-.26.24.24 0 0 1 .11-.1.25.25 0 0 1 .27.06l.06.12c0 .05 0 .1-.02.14a.23.23 0 0 1-.13.13.24.24 0 0 1-.18 0Z" fill="#004985"/></svg>