<!-- by TradingView --><svg width="18" height="18" viewBox="0 0 18 18" xmlns="http://www.w3.org/2000/svg"><path fill="#F0F3FA" d="M0 0h18v18H0z"/><path d="M8.98 7.75a.05.05 0 0 0-.03-.03h-.03c-.2.06-.41.16-.63.2a7.4 7.4 0 0 1-1.33.17c-1.04-.05-2.14-.24-2.74-1.07-.2-.29-.27-.6-.19-.97C4.33 4.72 5.95 5 6.9 5.1c1 .12 2 .4 2.98.62.7.16 1.45.27 2.18.18a83 83 0 0 1 1.07-.13c.44-.02.77.15.86.61.08.39-.4.76-.7.85a2.4 2.4 0 0 1-.76.05l-1.17-.06c-.47-.02-.79.12-.82.64a18.54 18.54 0 0 0 0 2.98c.11 1.12.22 1.89.15 2.46-.07.69-.78.86-1.31.56-.56-.32-.67-.97-.63-1.58.13-1.55.22-3 .25-4.35 0-.07 0-.13-.02-.18Zm-2.72-1.1c0 .1.02.18.05.23.13.19.32.28.55.3.74.01 1.31-.25 2-.5.1-.04.14-.08.14-.12 0-.05-.05-.09-.15-.12-.7-.21-1.28-.42-2.02-.36-.3.03-.58.24-.57.56Z" fill="#5D1A1C"/></svg>