<!-- by TradingView --><svg width="18" height="18" viewBox="0 0 18 18" xmlns="http://www.w3.org/2000/svg"><path fill="#F0F3FA" d="M0 0h18v18H0z"/><path fill-rule="evenodd" d="M10.72 12H9.04l-.07-.93c0-.05-.02-.07-.06-.07H8c-.04 0-.06.04-.08.09l-.31.91H5.84l2.3-5.92c.01-.05.05-.08.1-.08h1.93c.05 0 .07.03.08.09l.47 5.91ZM8.85 8.6l.08 1.2c0 .05-.02.08-.06.08h-.5c-.06 0-.08-.04-.06-.12l.47-1.52c.05-.14.07-.14.07.02a13.24 13.24 0 0 1 0 .33ZM4.17 12H2.54l.81-4.44a.06.06 0 0 0 0-.04l-.02-.01H3.3L2 7.5v-.11l.23-1.27c.01-.08.05-.12.12-.12h4.18l.01.01v.02l.01.01-.25 1.42c0 .02-.01.04-.03.04h-1.2c-.05 0-.08.02-.09.08L4.17 12ZM16 6.52v.09l-.33 1.48v.03h-.05l-.02-.01c-.34-.59-.93-.69-1.47-.46-.53.21-.84.66-.93 1.34-.19 1.5 1.2 1.55 2.02 1.14h.06l.02.04v.03l-.2 1.46c0 .05-.03.08-.06.1-.25.13-.5.2-.78.24h-.55a2.41 2.41 0 0 1-1.9-1.58 3.1 3.1 0 0 1 .03-2.33c.29-.64.6-1.1.9-1.36.8-.67 1.65-.88 2.57-.63.24.06.47.2.69.42Z" fill="#E50000"/></svg>