<!-- by TradingView --><svg width="18" height="18" viewBox="0 0 18 18" xmlns="http://www.w3.org/2000/svg"><path fill="#F0F3FA" d="M0 0h18v18H0z"/><path d="M13.63 9.24c-.1-.6-.4-1.12-.89-1.46-.58-.4-1.47-.5-2.2-.37A2.31 2.31 0 0 0 8.6 9.18c-.11.47-.1.92.03 1.38a2.27 2.27 0 0 0 1.73 1.63.03.03 0 0 1 0 .03v.01l-1.32.75a.14.14 0 0 1-.14 0L2.02 9.04l-.01-.02a.04.04 0 0 1 0-.05l.01-.01 2.06-1.22c.2-.1.3-.17.53-.17h1.32l.05.02.02.04v3.33c0 .03.01.04.04.04h1.33c.02 0 .04 0 .04-.03V7.58h1.53l.04-.02.02-.03V6.48l-.02-.04a.05.05 0 0 0-.04-.01H6.37v-.04l2.54-1.37a.16.16 0 0 1 .16 0l6.92 3.96V9L16 9v.01h-.01c-.88.5-1.64.98-2.29 1.36a.83.83 0 0 1-.38.06h-1.25l-.02.03c-.1.27-.16.49-.5.6-.56.18-1.08-.03-1.24-.56A2.13 2.13 0 0 1 10.35 9c.14-.32.46-.5.85-.5.48.01.76.3.84.75l.02.02h1.52c.04 0 .05-.01.05-.04Z" fill="#E80122"/></svg>