<!-- by TradingView --><svg width="18" height="18" viewBox="0 0 18 18" xmlns="http://www.w3.org/2000/svg"><path fill="#042940" d="M0 0h18v18H0z"/><path d="M12.62 6.37c.81-.13 1.58.33 1.33 1.24-.14.55-.72 1.02-1.15 1.35a.1.1 0 0 0-.04.07 5.88 5.88 0 0 1-3.65 4.94c-.1.05-.22.04-.35-.02a6.4 6.4 0 0 1-3.2-3.19c-.01-.03-.03-.04-.06-.04-2.05.37-1.8-1.67-.41-2.2.02 0 .04-.02.05-.04a423.21 423.21 0 0 1 .33-3.02c.05-.43.16-.64.62-.54.84.17 1.95-.35 2.62-.83.14-.1.33-.13.47-.03.6.43 1.43.78 2.16.85.2.02.42.01.67-.02.32-.04.43.24.46.53l.09.9c0 .04.02.05.06.05Z" fill="#fff"/><path d="M11.44 8.04c0-.16-.04-.3-.1-.45-.02-.05-.03-.04-.03 0l.01.5-.8.41a.04.04 0 0 1-.05-.01V7.07c.7.65 1.36-.56.63-.87-.29-.12-.52-.04-.7.24-1.1-.67-2.13-.6-3.1.18a2.35 2.35 0 0 0-.86 1.8c-.16.3-.13.57.09.81.02.29.12.53.3.74-.42.15-2.29.74-2.42.03-.07-.37.27-.77.56-.95.04-.03.05-.02.03.02-.12.21-.3.46-.17.7a.22.22 0 0 0 .2.12l.52-.04c.1 0 .14-.06.13-.16l-.09-.58c0-.03-.02-.04-.04-.03-.21.1-.39.23-.52.41-.09.12-.12.1-.09-.04.07-.31.31-.54.6-.73a.09.09 0 0 0 .04-.07c.07-1.1.2-2.19.32-3.28 0-.03.02-.04.04-.04 1.07.15 2.13-.3 3-.88a.06.06 0 0 1 .07 0c.79.54 2.01 1.03 2.98.87.03 0 .05 0 .06.05l.21 2.14c0 .03 0 .05-.04.07l-.78.46Z" fill="#0A3151"/><path d="M10.4 6.44a.6.6 0 0 0 .06.64c-1.3-1.18-3.22-.64-3.62 1.1 0 .03-.02.05-.05.06l-.35.17c.04-.75.33-1.35.86-1.79.97-.79 2-.85 3.1-.18Z" fill="#29A6DE"/><path d="M10.88 7.13c.23 0 .42-.2.42-.43a.42.42 0 0 0-.42-.42.42.42 0 0 0-.42.42c0 .24.19.43.42.43Z" fill="#0A3151"/><path d="M6.86 10.48c.74 1.22 2.26 1.64 3.45.82a2.48 2.48 0 0 0 1.1-1.81l.11-.9c.36-.21.74-.44 1.12-.7.17-.12.31-.27.42-.45.32-.56-.38-.61-.7-.52l-.02-.01v-.03c.38-.17.99-.22 1.2.21.28.57-.69 1.34-1.13 1.62a.09.09 0 0 0-.04.07 5.42 5.42 0 0 1-3.24 4.73c-.12.05-.16.07-.28.01a5.95 5.95 0 0 1-2.84-2.82.05.05 0 0 1 .03-.02l.82-.2Z" fill="#106AB0"/><path d="M9.88 7.62a.42.42 0 0 0 0-.85.42.42 0 0 0-.42.43c0 .23.19.42.42.42ZM8.88 8.16c.23 0 .41-.2.41-.43a.42.42 0 0 0-.41-.42.42.42 0 0 0-.42.42c0 .24.19.43.42.43Z" fill="#0A3151"/><path d="m11.44 8.04-.12.06-.01-.5c0-.05 0-.06.03 0 .06.13.1.28.1.44Z" fill="#29A6DE"/><path d="m10.27 8.63-.78.35a.02.02 0 0 1-.01 0l-.01-.02V7.64c0-.04.01-.04.04-.02.2.16.4.18.6.08a.8.8 0 0 1 .15-.07c.02 0 .03 0 .03.03v.93c0 .02 0 .03-.02.04ZM7.87 8.68a.42.42 0 0 0 0-.85.42.42 0 0 0-.42.43c0 .23.2.42.42.42ZM8.61 8.2c.23.14.43.12.62-.05a.03.03 0 0 1 .04 0l.01.01v.88a.03.03 0 0 1-.01.03l-.79.32a.02.02 0 0 1-.02 0V8.17c0-.02.01-.03.03-.02.05 0 .09.02.12.05ZM6.88 9.22c.23 0 .42-.2.42-.43a.42.42 0 0 0-.42-.42.42.42 0 0 0-.42.42c0 .24.19.43.42.43Z" fill="#0A3151"/><path d="m11.52 8.58-.1.9c-.5 1.11-1.3 1.69-2.4 1.72a2.44 2.44 0 0 1-1.83-.75.13.13 0 0 1 0-.06l.36-.12c.23.18.47.31.73.4a2.15 2.15 0 0 0 1.19.04c.34-.1.61-.24.83-.45a2.09 2.09 0 0 0 .77-1.45l.45-.23Z" fill="#29A6DE"/><path d="M7.52 9.75a.05.05 0 0 1-.04-.01.05.05 0 0 1-.02-.04v-1c0-.04.01-.05.04-.02.26.2.51.2.76-.01a.01.01 0 0 1 .02 0v.78c0 .01 0 .02-.02.03l-.74.27ZM11.07 8.81c-.06.5-.25.93-.59 1.28v-.94c0-.03.01-.05.04-.07l.55-.27ZM7.17 9.86l-.25-.5.29-.14c.03-.01.04 0 .04.03v.54c0 .03 0 .05-.03.06a.1.1 0 0 1-.05 0ZM10.3 10.26c-.22.2-.5.36-.83.44V9.57c0-.02 0-.03.02-.04l.78-.33a.02.02 0 0 1 .02 0v1.06Z" fill="#0A3151"/><path d="m6.53 9.23.4.13.24.5-.34.1a1.2 1.2 0 0 1-.3-.73Z" fill="#29A6DE"/><path d="M11.41 9.49c-.1.76-.46 1.37-1.1 1.81-1.2.82-2.71.4-3.45-.82l.32-.1a.13.13 0 0 0 .05.12c.53.5 1.12.73 1.79.7 1.1-.03 1.9-.6 2.4-1.71Z" fill="#0E436C"/><path d="M9.29 10.75c-.28.04-.56.03-.83-.03v-.75c0-.02 0-.03.02-.04l.78-.3a.02.02 0 0 1 .02 0 .02.02 0 0 1 0 .02l.01 1.1ZM8.28 10.66c-.26-.08-.5-.2-.73-.39l.68-.24c.03 0 .05 0 .05.04v.6Z" fill="#0A3151"/></svg>