<!-- by TradingView --><svg width="18" height="18" fill="none" xmlns="http://www.w3.org/2000/svg"><path fill="#F0F3FA" d="M0 0h18v18H0z"/><path fill-rule="evenodd" clip-rule="evenodd" d="M14 14H4.303L4 13.687 13.697 4l.303.313V14Z" fill="#52452C"/><path fill-rule="evenodd" clip-rule="evenodd" d="M4 4h9.697v9.688H4V4Z" fill="url(#a)"/><path fill-rule="evenodd" clip-rule="evenodd" d="M9.25 7.93c-.16-.071-.25-.2-.248-.336.002-.113.068-.23.212-.323a.488.488 0 0 1 .295-.083c.046 0 .091 0 .148.012.67.141 1.24.53 1.695 1.07.432.506.64 1.154.64 1.86.012.693-.197 1.477-.64 1.995H10.06h.003c.715-.436 1.086-.996 1.086-2.03 0-1.192-.777-1.66-1.402-1.919a10.147 10.147 0 0 1-.497-.245Z" fill="#9E843C"/><path fill-rule="evenodd" clip-rule="evenodd" d="M9.625 5.882h2.67V8h-.72V6.614l.003-.01-.002.002H9.523c-.58 0-1.167.37-1.167 1.076 0 .377.36.624.849.883l.113.062c.634.348 1.349.74 1.349 1.561 0 1.565-1.667 1.937-2.087 1.937H6V9H5V5.882h2v.93h-.576v1.25l.689.032v2.976l1.682.012H8.8c.104-.027.845-.219.845-.858 0-.449-.43-.65-.895-.867l-.033-.016c-.66-.317-1.383-.67-1.383-1.764 0-1.759 1.633-1.713 2.185-1.697l.107.002Z" fill="#9F843C"/><path fill-rule="evenodd" clip-rule="evenodd" d="M12.296 5.882 12.181 6H9.659c-.273 0-2.212-.145-2.212 1.576 0 1.848 2.31 1.46 2.31 2.647 0 .8-.95.907-.95.907L7 11.118 7.114 11l1.681.012c.091-.023.849-.141.849-.789 0-.458-.45-.658-.928-.882-.66-.317-1.383-.67-1.383-1.765 0-1.904 1.894-1.694 2.292-1.694h2.67Z" fill="url(#b)"/><path fill-rule="evenodd" clip-rule="evenodd" d="M11.69 6.5H9.522c-.637 0-1.28.406-1.28 1.194 0 .988 2.31 1.035 2.31 2.494 0 1.47-1.576 1.82-1.973 1.82H6.114L6 12.124h2.58c.42 0 2.087-.372 2.087-1.937 0-.87-.803-1.259-1.462-1.623-.49-.26-.849-.506-.849-.883 0-.706.587-1.076 1.167-1.076h2.053l.113-.106Z" fill="url(#c)"/><path fill-rule="evenodd" clip-rule="evenodd" d="m9.357 7.968.1-.073c-.194-.072-.305-.173-.305-.301-.002-.178.178-.356.482-.288 1.261.259 2.245 1.435 2.245 2.823C11.89 11.2 11.296 12 11.296 12h-.898l-.339.118h1.293c.444-.518.652-1.295.64-1.989 0-.705-.208-1.353-.64-1.858-.454-.542-1.025-.93-1.695-1.071-.057-.012-.102-.012-.148-.012a.488.488 0 0 0-.295.083c-.144.092-.21.21-.212.323-.003.164.129.318.355.374Z" fill="url(#d)"/><path fill-rule="evenodd" clip-rule="evenodd" d="M10.4 12.005c.25-.164.873-.632.873-1.91 0-1.577-1.308-1.964-1.922-2.246l-.102.082c.08.047.395.198.497.245.625.259 1.402.727 1.402 1.918 0 1.035-.371 1.596-1.087 2.031.159-.024.213-.084.338-.12Z" fill="url(#e)"/><path fill-rule="evenodd" clip-rule="evenodd" d="M5.114 8.894V6H7l.114-.118H5V9c.034-.035.068-.07.114-.106Z" fill="url(#f)"/><path fill-rule="evenodd" clip-rule="evenodd" d="M7.114 8 7 8.118h-.69L6.425 8h.69Z" fill="#E0D7B6"/><path fill-rule="evenodd" clip-rule="evenodd" d="M6.424 8V6.812h.69v-.93L7 6v.707h-.69L6.3 8.129c.045-.058.09-.094.124-.129Z" fill="#52452C"/><path fill-rule="evenodd" clip-rule="evenodd" d="m6 9 .09-.118h-.976L5 9h1Z" fill="#746032"/><path fill-rule="evenodd" clip-rule="evenodd" d="m6 12.125.114-.106V8.882L6 9v3.125Z" fill="#D6C89A"/><path fill-rule="evenodd" clip-rule="evenodd" d="M7.114 11 7 11.13V8.117L7.114 8v3Z" fill="#52452C"/><path fill-rule="evenodd" clip-rule="evenodd" d="M11.69 7.882V6.5l-.114.114V8l.113-.118Z" fill="#C5C6C6"/><path fill-rule="evenodd" clip-rule="evenodd" d="M12.296 5.882 12.181 6v1.882h-.493L11.576 8h.72V5.882Z" fill="#746032"/><defs><linearGradient id="a" x1="4" y1="4" x2="14.454" y2="13.835" gradientUnits="userSpaceOnUse"><stop stop-color="#D6C89A"/><stop offset=".521" stop-color="#B79B4B"/><stop offset="1" stop-color="#987E38"/></linearGradient><linearGradient id="b" x1="9.909" y1="6.969" x2="8.945" y2="11.488" gradientUnits="userSpaceOnUse"><stop offset=".187" stop-color="#D6C89A"/><stop offset=".597" stop-color="#746032"/><stop offset=".839" stop-color="#D6C89A"/></linearGradient><linearGradient id="c" x1="9.303" y1="6.5" x2="9.142" y2="12.281" gradientUnits="userSpaceOnUse"><stop stop-color="#282111"/><stop offset=".331" stop-color="#CBB16D"/><stop offset=".703" stop-color="#52452C"/><stop offset="1" stop-color="#282111"/></linearGradient><linearGradient id="d" x1="9.455" y1="7.125" x2="10.898" y2="12.259" gradientUnits="userSpaceOnUse"><stop stop-color="#E0D7B6"/><stop offset=".708" stop-color="#282111"/></linearGradient><linearGradient id="e" x1="9.758" y1="7.906" x2="10.293" y2="12.066" gradientUnits="userSpaceOnUse"><stop offset=".071" stop-color="#64532F"/><stop offset="1" stop-color="#E0D7B6"/></linearGradient><linearGradient id="f" x1="6.341" y1="5.788" x2="6.341" y2="8.941" gradientUnits="userSpaceOnUse"><stop stop-color="#E0D7B6"/><stop offset="1" stop-color="#D4C189"/></linearGradient></defs></svg>