<!-- by TradingView --><svg width="18" height="18" viewBox="0 0 18 18" xmlns="http://www.w3.org/2000/svg"><path fill="#D80B1A" d="M0 0h18v18H0z"/><path d="M6 5V4H4v5h1v5h3.94c.81.01 2.47-.58 2.56-3 .04-1-.63-1.57-1.95-2.23C8.32 8.15 8 7.34 8 6.83 8 6.33 8.11 5 9.35 5H13v3h1V4H8.94C8.17 4.1 7 4.92 7 6.83 7 8.75 8.22 9.45 8.94 9.8l.13.06c.5.23 1.43.64 1.43 1.39 0 1.02-1.26 1.76-2.35 1.76H6V8H5V5h1Zm5.35 9a5.79 5.79 0 0 0 1.1-3.32c0-1.67-1.52-3-2.49-3.41-.22-.1-.65-.36-.65-.66v-.08c0-.22.12-.41.28-.47.2-.08.43-.08.63.01 1.19.57 3.1 2.08 3.1 4.6 0 1.57-.66 2.87-1 3.33h-.97Z" fill="#fff"/></svg>