<!-- by TradingView --><svg width="18" height="18" fill="none" xmlns="http://www.w3.org/2000/svg"><path fill="#F0F3FA" d="M0 0h18v18H0z"/><path fill-rule="evenodd" clip-rule="evenodd" d="M9 3.604c-3.113 0-5.4 2.303-5.4 5.438 0 2.788 1.81 4.918 4.4 5.355V15c-2.838-.48-5-2.964-5-5.958C3 5.705 5.686 3 9 3s6 2.705 6 6.042c0 2.994-2.162 5.479-5 5.958v-.603c2.59-.437 4.4-2.567 4.4-5.355 0-3.135-2.287-5.438-5.4-5.438Zm1 10.372a5.028 5.028 0 0 0 4-4.934c0-2.78-2.239-5.035-5-5.035S4 6.261 4 9.042a5.028 5.028 0 0 0 4 4.934v-.42a4.618 4.618 0 0 1-3.591-4.514c0-2.554 2.055-4.624 4.591-4.624s4.591 2.07 4.591 4.624A4.618 4.618 0 0 1 10 13.555v.42Z" fill="#ED1C24"/><path fill="#ED1C24" d="M8.473 13h1.054v2H8.473z"/><path fill-rule="evenodd" clip-rule="evenodd" d="M9.103 6s.329.273.367.297c.039.024.45.03.483.077.032.048-.283.178-.341.273-.053.086-.108.11-.1.196.027.315.558.521.66.845.084.285.006.434.077.689.058.214.14.649.14.935 0 .275-.288.721-.107.954.096.125.399.297.476.564.077.261.502.535.509.588.012.054-.337.312-.472.484a.286.286 0 0 1-.22.098c-.1.004-.186-.027-.186-.027s.388-.329.22-.65c-.173-.32-.855-.808-.881-.98-.026-.172.222-.343 0-.343-.11.036-.432.32-.477.54-.094.46-.177 1.413-.743 1.46H7.81c.004-.035-.057-.204-.055-.297 0-.064.017-.108.07-.089.128.042.27.137.52.066.252-.072.48-.666.48-.666v-.903s.66-.558.685-1.021c.026-.464-.279-1.078-.33-1.09-.052-.006-.187.347-.322.3-.136-.048-.747-.511-.818-.523-.07-.012.02-.184-.09-.261-.103-.084-.412-.155-.457-.291-.045-.137-1.043-.832-1.043-.832l-.013.238S6 6.678 6 6.642v-.475l.155-.16 1.397 1.057s.225-.006.354.077c.129.084.547.22.689.202.141-.017.476-.136.392-.213-.083-.078-.238-.126-.238-.382 0 0-.431.137-.496.095-.064-.041.483-.338.503-.415.006-.107.212-.38.347-.428Z" fill="#ED1C24"/></svg>