<!-- by TradingView --><svg width="18" height="18" viewBox="0 0 18 18" xmlns="http://www.w3.org/2000/svg"><path fill="#F0F3FA" d="M0 0h18v18H0z"/><path d="M11.71 9.45c.5-.09.97-.24 1.43-.44.54-.21 1.8-.83 1.86-1.7.06-.92-.94-1.58-2.07-1.91a11.72 11.72 0 0 0-5.8-.07c-.59.13-1.16.33-1.7.6C3.96 6.67 4 7.53 4 7.53s-.03.7.81 1.25c.28.18.57.33.88.44l.24.08c.1.04.2.1.26.2a.67.67 0 0 1 .13.56l-.06.23c-.18.7-.26 1.41-.24 2.13.04 1.04.5 1.41.91 1.55.3.1.87 0 1.54-.6.4-.34.75-.73 1.06-1.16.34-.47.64-.98.88-1.51l.29-.65a.87.87 0 0 1 .29-.36c.13-.07.28-.13.43-.16l.3-.08Z" fill="#00267F"/><path d="M10.53 5.53c-1.34-.51-2.69 2.2-2.69 2.2a6.27 6.27 0 0 0-.79 2.34c-.17 1.3.32 1.68.42 1.73.14.06.5.3 1.32-.36a5.95 5.95 0 0 0 1.49-2c.25-.51.45-1.06.59-1.62.24-1.01.13-2.1-.34-2.3m.19 1.95c-.1.42-.26.83-.47 1.22a4.74 4.74 0 0 1-1.16 1.54c-.62.5-.92.3-1.03.25-.08-.04-.45-.33-.32-1.33.08-.63.3-1.24.61-1.79 0 0 1.05-2.05 2.08-1.67.41.15.46 1.05.29 1.78" fill="#FFD900"/></svg>