<!-- by TradingView --><svg width="18" height="18" viewBox="0 0 18 18" xmlns="http://www.w3.org/2000/svg"><path fill="#F0F3FA" d="M0 0h18v18H0z"/><path d="M4 9V5h2.34c1.1 0 1.96 1.02 2.25 1.43.23.34 1.07.25 1.41.24-.03.3-.1 1.07.03 1.14.9.54 1 .94.97 1.08V14H7V9H4Z" fill="#2A4198"/><path d="M10.4 5H8c.35 0 1.3.64 1.9 1 .49.28 1.16.46 1.43.5a.97.97 0 0 0-.08.46c0 .26.09.43.14.5l.67.85c.08.12.07.51.05.69h1.8c.03-.04.09-.2.09-.5 0-.37-.3-.75-.82-1.16-.51-.4-.67-.68-.67-.94 0-.25.06-.39.09-.52-.81 0-1-.06-1.35-.31-.28-.2-.69-.47-.85-.57Z" fill="#22943A"/></svg>