<!-- by TradingView --><svg width="18" height="18" viewBox="0 0 18 18" xmlns="http://www.w3.org/2000/svg"><path fill="#F0F3FA" d="M0 0h18v18H0z"/><path d="m7.06 8.27.06.03c2.15 1.5 3.4 2.03 4.88 1.5-.9.13-2.53-.84-3.91-1.66l-.42-.24c.73-.36 1.98-.62 3.45.4 2.15 1.5 3.4 2.03 4.88 1.5-.9.13-2.53-.84-3.91-1.66-.73-.42-1.38-.81-1.84-.99a2.86 2.86 0 0 0-2.82.61 9.38 9.38 0 0 0-1.18-.6c-1.33-.5-2.84.3-3.25 1.16a3.24 3.24 0 0 1 4.04-.07L7 8.32l.06-.05ZM3 10.32a3.26 3.26 0 0 1 4.12-.01c2.15 1.5 3.4 2.02 4.88 1.48-.9.14-2.53-.82-3.91-1.64-.73-.43-1.38-.82-1.84-1-1.33-.5-2.85.3-3.25 1.17Z" fill="#0B79AC"/></svg>