<!-- by TradingView --><svg width="18" height="18" viewBox="0 0 18 18" xmlns="http://www.w3.org/2000/svg"><path fill="#F0F3FA" d="M0 0h18v18H0z"/><path d="M13 7V6h1v1h-1ZM13 8a4.5 4.5 0 0 1-1.06 2.71 4.26 4.26 0 0 1-2.61 1.34V13a5 5 0 0 0 3.22-1.62A5.63 5.63 0 0 0 14 8h-1Z" fill="#A72C32"/><path d="M13 7H5V6H4v1H3v1h1.06c.1 1.31.6 2.45 1.44 3.38.83.94 1.83 1.51 3 1.62v-.95a3.76 3.76 0 0 1-2.4-1.34C5.42 9.96 5.1 9.06 5 8h8V7Z" fill="#00A65D"/><path d="M9.02 11.63c.59 0 1.16-.16 1.69-.46H7.33c.52.3 1.1.46 1.69.46ZM7.1 11.02h3.85c.23-.13.44-.28.63-.45H6.45c.2.17.41.32.64.45ZM6.32 10.41h5.4c.15-.19.28-.39.4-.6h-6.2c.12.21.26.41.4.6ZM12.2 9.65c.12-.23.23-.48.31-.74-.61.19-1.24.3-1.88.31-1.32 0-1.87-.94-3.54-.94a3.9 3.9 0 0 0-1.61.5c.09.3.21.6.36.87h6.36Z" fill="#A72C32"/></svg>