<!-- by TradingView --><svg width="18" height="18" viewBox="0 0 18 18" xmlns="http://www.w3.org/2000/svg"><path fill="#F0F3FA" d="M0 0h18v18H0z"/><path fill-rule="evenodd" d="M9 14.3A5.3 5.3 0 1 0 9 3.7a5.3 5.3 0 0 0 0 10.6Zm0 .7A6 6 0 1 0 9 3a6 6 0 0 0 0 12Z" fill="#004877"/><path fill-rule="evenodd" d="M9 14A5 5 0 1 0 9 4a5 5 0 0 0 0 10ZM8 5c-.8.36-1 1.04-1 1.33L5.5 5.9l.5.89c-.8 0-1 .3-1 .44.8 0 1 .3 1 .45-.8.35-.67 1.03-.5 1.33.4-.71.5-.6.5-.44 0 .35.33.74.5.88 0-.7.67-1.18 1-1.33 0 .71.33 1.19.5 1.33V8.11c.33.6 1 2.05 1 3.11 0 1.07-.67 1.63-1 1.78h3.5l-1-.89c-.4-1.42.17-2.67.5-3.11v.89l.5-.89c0 .71.33.89.5.89.4-.36.17-1.04 0-1.33.8 0 1 .3 1 .44 0-.71-.67-.89-1-.89l1-.89c-.8 0-1.33.3-1.5.45l.5-.9-1 .45c-.4-.35-.83-.44-1-.44l.5.89c-.4.35-.83 1.03-1 1.33l1-.44c-.4.35-.83 1.33-1 1.77-.4-2.49-1.17-3.1-1.5-3.1h1.5c-.66-.6-1.14-.62-1.38-.52l1.38-.82c-.8-.36-1.33-.15-1.5 0V5Z" fill="#004877"/></svg>