<!-- by TradingView --><svg width="18" height="18" viewBox="0 0 18 18" xmlns="http://www.w3.org/2000/svg"><path fill="#F0F3FA" d="M0 0h18v18H0z"/><path d="M4.78 4.25A.36.36 0 0 1 5.12 4h1.91l-.78 2.31a.36.36 0 0 1-.34.26H4l.78-2.32ZM10.2 4.25a.36.36 0 0 1 .33-.25h1.92l-.79 2.31a.36.36 0 0 1-.33.26H9.4l.79-2.32Z" fill="#2269AB"/><path d="M11.75 7.3c.05-.18.19-.3.34-.3H14l-1.27 4.7c-.05.18-.18.3-.33.3H10.5l1.26-4.7Z" fill="#35B1E5"/><path d="M7.37 4.27c.05-.16.18-.27.33-.27h1.92l-2.25 7.73c-.05.16-.19.27-.34.27H5.12l2.25-7.73Z" fill="#2269AB"/><path d="M9.09 7.27c.05-.16.18-.27.33-.27h1.91L9.1 14.73c-.06.16-.19.27-.34.27H6.84l2.25-7.73Z" fill="#35B1E5"/></svg>