<!-- by TradingView --><svg width="18" height="18" viewBox="0 0 18 18" xmlns="http://www.w3.org/2000/svg"><path fill="#F0F3FA" d="M0 0h18v18H0z"/><path d="M9 11.1c0 .22.27 0 .4-.13.27-.26.27 0 .67 0s0 .27.13.53.27-.13.53-.4c.27-.26.27-.13.27-.52 0-.4-.4-.4-.53-.4-.14 0-.27-.26-.54-.13-.26.13-.4.13-.8.4-.4.26-.13.4-.13.66ZM7.13 5.84c-.42.1-.97.75-1.2 1.05-.04.1-.18.35-.4.66-.26.4.27.4.27.53s.13.4-.13.4c-.27 0-.14.78-.14 1.05 0 .26.14 0 .4-.27.27-.26.27-.52.54-.79.26-.26.13-.4.4-1.18.26-.79.8-.4 1.6-.4s.53-.13 1.86-.26c1.34-.13.27-.4 0-.52-.26-.14-.8 0-1.6 0s-1.06-.4-1.6-.27Z" fill="#7ACEEA"/><path d="m6.07 7.42 1.6 2.5A2.1 2.1 0 0 1 9.8 9.4c1.07.32 2.22.31 2.67.27a4.07 4.07 0 0 0-.8-1.71c-.43-.42-.63-1.32-.67-1.71a7.1 7.1 0 0 1-1.6.26c-.67 0-1.47-.4-2.27-.26-.64.1-.97.83-1.06 1.18Z" fill="#EC3226"/><path d="M7.45 7.19a.65.65 0 0 1 .22-.03c.23 0 .4.1.4.26H7.8v.03c0-.01-.04-.03-.13-.03-.06 0-.1 0-.13.02h-.02v.02l.1.13c.05.05.12.08.2.1a2.13 2.13 0 0 0 .26.08c.2.05.42.13.51.4.08.22.06.43-.12.54-.15.1-.37.09-.58.02l.08-.25c.2.06.3.05.36.02.02-.02.07-.07 0-.25-.03-.13-.14-.18-.32-.23l-.07-.01a2.65 2.65 0 0 1-.21-.06.75.75 0 0 1-.45-.39.27.27 0 0 1 0-.23.3.3 0 0 1 .17-.14Zm.07.25ZM8.22 7.36l.2-.17 1.3 1-.43-.7.22-.14.8 1.32-.2.17-1.15-.9.42.59-.22.15-.94-1.32Z" fill="#F2DE1F"/><path fill-rule="evenodd" d="m10.28 7.63.36.53a.64.64 0 0 0 .07-.1c.05-.1.07-.22.03-.33-.03-.08-.1-.13-.23-.13-.08 0-.16 0-.23.03Zm.51.76a.92.92 0 0 0 .16-.22.67.67 0 0 0 .04-.53c-.08-.23-.3-.3-.48-.3-.18-.01-.37.04-.5.09l-.14.06.89 1.32.22-.15-.19-.27Z" fill="#F2DE1F"/><path fill-rule="evenodd" d="M9 12.03a3.44 3.44 0 0 0 3.47-3.42A3.44 3.44 0 0 0 9 5.18a3.44 3.44 0 0 0-3.47 3.43A3.44 3.44 0 0 0 9 12.03Zm0 .26a3.7 3.7 0 0 0 3.73-3.68A3.7 3.7 0 0 0 9 4.92a3.7 3.7 0 0 0-3.73 3.69A3.7 3.7 0 0 0 9 12.29Z" fill="#034DC8"/><path d="M9.13 4.4c0 .07-.06.13-.13.13a.13.13 0 0 1-.13-.14c0-.07.06-.13.13-.13s.13.06.13.13Zm0 .37a.4.4 0 0 0 .27-.38A.4.4 0 0 0 9 4a.4.4 0 0 0-.4.4c0 .17.11.31.27.37v.28h.26v-.28ZM5 12.03v-1.85l1.2 1.06-.4.13c.09.17.45.6 1.2.92.75.32 1.2.04 1.33-.13h1.34c0 .13.53.52 1.2.13.53-.32 1.2-.75 1.33-.92l-.27-.13 1.07-.92v1.7l-.27-.39c0 .26-1.46 1.45-2.53 1.58-.85.1-1.16.61-1.2.79 0-.26-.53-.66-1.33-.79-.64-.1-1.87-1.1-2.4-1.58l-.27.4Z" fill="#034DC8"/><path d="m5.4 7.03-.13-.66.53.52v.14l3.33 5.26H9L5.8 7.16l-.4-.13Z" fill="#034DC8"/></svg>