<!-- by TradingView --><svg xmlns="http://www.w3.org/2000/svg" width="18" height="18" viewBox="0 0 18 18"><path fill="#F0F3FA" d="M0 0h18v18H0z"/><ellipse cx="9.02" cy="10.78" rx="5.67" ry="3.22"/><ellipse cx="9.02" cy="10.8" rx="5.33" ry="2.89" fill="#ED1B24"/><path d="M12.23 10.56a8.92 8.92 0 0 1-6.47.04h-.75c.53.37 1.75.7 2.3.81-.15.62-.18 1.68-.18 2.14 1.2.45 3 .18 3.75 0 .04-.7-.12-1.74-.2-2.17a7.69 7.69 0 0 0 2.32-.82h-.77z"/><path d="M8.83 11.57c-.64-.03-1.06-.07-1.19-.08-.16.52-.19 1.58-.18 2.05.37.1 1.06.11 1.37.11v-2.08zM9.17 11.58c.65-.03 1.07-.07 1.2-.09.16.52.18 1.59.18 2.06-.37.09-1.06.1-1.38.1v-2.07z" fill="#F0F3FA"/><ellipse cx="8.95" cy="3.4" rx=".7" ry=".4"/><ellipse cx="8.98" cy="7.24" rx="3.62" ry="3.74"/><path d="M12.18 7.25a3.27 3.27 0 0 1-3.2 3.33c-1.77 0-3.2-1.5-3.2-3.33 0-.24.02-.47.06-.69 1.73-.79 4.96-.7 6.27-.03.05.23.07.47.07.72z" fill="#FEDDBC"/><path d="M12 6.14s-1.27-.47-3.04-.47-3 .47-3 .47a3.22 3.22 0 0 1 3.02-2.23c1.4 0 2.59.93 3.02 2.23z" fill="#ED1B24"/><path d="M10.13 4.4c0 .65-.53 1.18-1.18 1.18a1.19 1.19 0 0 1-1.1-1.62s1.15-.36 2.2 0c.05.14.08.28.08.43z"/><path d="M9.94 4.38a1 1 0 0 1-1 1 1 1 0 0 1-.93-1.36s.98-.3 1.87 0a1 1 0 0 1 .06.36z" fill="#F0F3FA"/><path d="M7.32 6.74c-.43 0-.81.26-.99.65l-.27-.13c.22-.48.7-.82 1.26-.82.62 0 1.14.4 1.32.96l-.28.1a1.1 1.1 0 0 0-1.04-.76zM10.7 6.74c-.42.02-.8.3-.97.75l-.28-.1c.2-.55.68-.93 1.24-.95.55-.02 1.04.31 1.27.8l-.27.13a1.06 1.06 0 0 0-1-.63zM8.99 9.96c-1.32 0-1.9-.91-2.02-1.38l.38-.1c.1.34.54 1.08 1.64 1.08 1.09 0 1.53-.73 1.61-1.08l.4.1c-.12.48-.7 1.38-2.01 1.38z"/><ellipse cx="13.23" cy="7.74" rx=".57" ry=".57"/><path d="M15 6.2c.01-.4-.11-.52-.18-.53-.16-.04-.46.22-.6.36-.36.32-.48.6-.48.76 0 .5.4.62.6.61.66-.04.64-.7.66-1.2z"/></svg>