<!-- by TradingView --><svg xmlns="http://www.w3.org/2000/svg" width="18" height="18"><path fill="#FDC526" d="M0 0h18v18H0z"/><path d="M15.98 7.13a14.2 14.2 0 00-13.96 0l1.71 4.88a11.55 11.55 0 0110.63 0l1.62-4.88z" fill="#E61F1C"/><path opacity=".5" fill-rule="evenodd" d="M2.63 7.36l1.39 3.95c4.1-1.9 8.08-.96 10.05-.02l1.3-3.92a13.73 13.73 0 00-12.74 0zm13.35-.23a14.2 14.2 0 00-13.96 0l1.71 4.88.46-.23a11.67 11.67 0 0110.17.23l1.62-4.88z" fill="#FDC526"/><path d="M5.56 6.62l.17 1.08c.3-.8.85-1.02 1.01-1.01l.42 2.58c.03.29-.36.6-.48.7L8.4 9.7a.96.96 0 01-.66-.47L7.32 6.6c.55-.03 1.15.4 1.28.64l-.17-1.08-2.87.46z" fill="#fff"/><path fill-rule="evenodd" d="M11.43 6.38L9.48 6.2c.31.12.46.38.44.49L9.7 9.2c-.05.25-.49.4-.61.47l1.79.15c.87.06 1.13-.43 1.15-.75.03-.33-.04-.74-.7-.95.36-.06.61-.22.72-.51.14-.26.1-1.13-.63-1.23zm-.93.25l-.1 1.26c.82.06 1.08-.18 1.1-.5.06-.67-.74-.75-1-.76zm-.23 2.81l.1-1.24c.48.03 1.06.16 1 .8-.02.28-.34.5-1.1.44z" fill="#fff"/></svg>