<!-- by TradingView --><svg width="18" height="18" viewBox="0 0 18 18" xmlns="http://www.w3.org/2000/svg"><path fill="#F0F3FA" d="M0 0h18v18H0z"/><path d="M13.83 10.2a.89.89 0 0 0-.1-.24c-.06-.11-.17-.17-.33-.16a1.68 1.68 0 0 0-.46.1v-.01l.01-.02a4.38 4.38 0 0 0-.15-2.26 3.9 3.9 0 0 0-1.26-1.76 4.14 4.14 0 0 0-2.04-.9 4.08 4.08 0 0 0-4.22 5.64.69.69 0 0 0-.1.43c.04.37.13.75.27 1.13.03.08.05.14.05.19 0 .06-.03.1-.09.14a5.02 5.02 0 0 1 2.44-8.35 4.96 4.96 0 0 1 5.97 3.6A6.64 6.64 0 0 1 14 8.98c-.02.5-.08.9-.17 1.23Z" fill="#00049F"/><path d="M9.26 4.5c0 .08-.02.14-.08.2a.27.27 0 0 1-.2.07h-.17a.27.27 0 0 1-.2-.07.25.25 0 0 1-.08-.2v-.04c0-.07.03-.13.08-.18a.27.27 0 0 1 .2-.08h.18c.07 0 .14.02.2.08.05.05.07.11.07.18v.05ZM9.76 4.72c.08.01.13-.02.15-.1A12.24 12.24 0 0 0 10 4.3l.17.02c.01 0 .02.01.02.03l-.08.32c-.02.08-.07.13-.14.15a.52.52 0 0 1-.22 0 .51.51 0 0 1-.21-.07c-.06-.05-.09-.11-.08-.2l.05-.32c0-.01.01-.02.03-.02l.17.04c.01 0 .02 0 .01.02l-.06.3c-.01.07.02.12.11.14ZM8.27 4.83l-.16.03c-.02 0-.03 0-.03-.02L8 4.47c0-.02-.01-.02-.03-.02l-.18.03-.03-.01-.02-.08c0-.01 0-.02.02-.03l.6-.11.03.01.02.08c0 .02 0 .03-.02.03l-.16.03c-.02 0-.03.02-.02.03l.08.37c0 .02 0 .03-.02.03Z" fill="#FEFEFE"/><path d="M8.9 4.32h-.02a.13.13 0 0 0-.13.14v.06c0 .08.07.13.15.13h.02c.08 0 .13-.07.13-.14v-.07a.13.13 0 0 0-.15-.12Z" fill="#00049F"/><path d="m10.81 4.93.06.23c0 .02 0 .03-.02.02l-.17-.06c-.02-.01-.04-.03-.04-.06v-.03c0-.06 0-.1-.02-.13-.01-.05-.04-.08-.08-.1-.02 0-.03 0-.04.02l-.06.16c-.01.02-.03.02-.05.02l-.13-.05c-.02 0-.02-.01-.01-.03l.2-.47c0-.02.02-.03.04-.02.16.06.31.12.44.19l.06.07c.02.03.03.06.02.09-.01.04-.03.07-.06.1a.36.36 0 0 1-.12.03c-.01 0-.02 0-.02.02ZM7.36 4.84c.05.01.11.04.18.1l.06.03c.03.03.03.04 0 .05l-.14.03c-.04 0-.07 0-.1-.02a3.74 3.74 0 0 1-.14-.08.16.16 0 0 0-.1 0c-.02 0-.03 0-.02.03l.08.14c.02.03.01.05-.02.07l-.08.04c-.04.02-.06 0-.08-.02l-.24-.44v-.03c.12-.04.25-.1.4-.17a.27.27 0 0 1 .12-.03c.05 0 .1.02.12.06.05.08.04.15-.05.22v.02Z" fill="#FEFEFE"/><path d="m10.78 4.69-.13-.06a.05.05 0 0 0-.07.02v.02c-.02.02-.01.05.01.06l.14.06c.02.01.05 0 .06-.02l.01-.02a.05.05 0 0 0-.02-.06Z" fill="#00049F"/><path d="m7.16 4.7-.13.05a.05.05 0 0 0-.03.07v.01c.02.03.06.04.08.03l.13-.06a.05.05 0 0 0 .03-.08.06.06 0 0 0-.08-.03Z" fill="#00018D"/><path d="m6.46 5.5.04.06v.03c-.05.06-.1.1-.18.12H6.3c-.02-.16-.06-.32-.11-.47v-.12l.14-.11c.03-.02.05-.03.08-.01a3.87 3.87 0 0 0 .53.28v.02l-.18.1h-.03c-.02-.04-.05-.05-.1-.04a.64.64 0 0 0-.16.1v.03ZM11.75 5.23a.15.15 0 0 0-.14-.04.2.2 0 0 0-.12.07c-.03.04-.05.09-.04.13 0 .04.04.08.1.1h.03a.29.29 0 0 1 .11-.04c.01 0 .02 0 .03.02l.09.08v.03c-.02.09-.08.12-.18.09-.16-.06-.28-.14-.33-.25a.25.25 0 0 1 0-.25.27.27 0 0 1 .22-.15c.15-.02.3.04.4.17.08.08.09.16.04.25 0 .01 0 .02-.02.02h-.03l-.12-.08a.03.03 0 0 1-.01-.03c0-.05 0-.1-.03-.12Z" fill="#FEFEFE"/><path d="M6.4 5.17c.03.04.08.07.13.08.02 0 .02 0 .01.02a.23.23 0 0 1-.1.08H6.4a.28.28 0 0 1-.05-.17v-.02h.03Z" fill="#00049F"/><path d="M5.7 5.78c.03.08.08.12.16.13.09 0 .14-.04.17-.11v-.02l-.02-.08.01-.03.13-.07c.02 0 .03 0 .04.02a.3.3 0 0 1-.04.26.5.5 0 0 1-.2.18.28.28 0 0 1-.24.01.4.4 0 0 1-.19-.15c-.03-.04-.03-.09-.01-.15a.54.54 0 0 1 .24-.3c.1-.06.18-.05.27.02.01.02.02.03 0 .05-.03.07-.09.1-.17.06h-.03a.16.16 0 0 0-.1.07.12.12 0 0 0-.02.11ZM12.45 5.6c.09.07.14.14.16.22.03.1 0 .17-.07.24a.43.43 0 0 1-.23.13c-.08 0-.16-.03-.25-.1a.44.44 0 0 1-.16-.2c-.03-.1 0-.18.07-.25a.42.42 0 0 1 .23-.12c.08-.01.16.02.25.09Z" fill="#FEFEFE"/><path d="M12.31 5.98c.1-.05.13-.14.1-.21-.04-.07-.15-.09-.23-.05-.1.05-.13.14-.1.21.04.07.14.1.23.05Z" fill="#00049F"/><path d="M7.88 7.37a46.84 46.84 0 0 0-.95.04v-.1l.01-.05A.06.06 0 0 1 7 7.25c.07 0 .14-.01.2-.03.02 0 .02-.02.02-.03l-.01-.02a2.18 2.18 0 0 0-.2-.09 1.48 1.48 0 0 1-.43-.23c-.15-.13-.21-.26-.19-.4.03-.13.06-.23.1-.31a.9.9 0 0 0 .1-.3l.01-.03h.06l.02.02v.1c-.04.14-.07.27-.08.4a.6.6 0 0 1-.1.2v.03c.01.05.03.1.07.12.14.12.38.25.74.4a.6.6 0 0 1 .1.06l.14.07.23.02c.08 0 .12.05.11.14Z" fill="#009422"/><path d="M12.78 6.35h-.02l-.34.17c-.02 0-.03 0-.05-.02l-.07-.1c-.01-.02 0-.04.01-.05.18-.06.35-.14.51-.23h.03c.07.08.13.16.16.25L13 6.4c-.09.05-.16.1-.23.16-.04.03-.03.05.02.05.09 0 .2-.02.34-.04l.03.01.11.2c.01.03.01.04-.01.05l-.47.24c-.03.02-.06.01-.07-.02L12.68 7c-.02-.04-.01-.07.03-.09l.23-.1c.14-.07.13-.1-.02-.09l-.27.06a.1.1 0 0 1-.08-.02.3.3 0 0 1-.05-.11V6.6a27.84 27.84 0 0 1 .26-.26ZM5.34 6.66l.15-.21a.14.14 0 0 1 .09-.06h.04c.03-.01.04 0 .02.03l-.27.45h-.01l-.46-.25a.06.06 0 0 1-.03-.05c0-.02 0-.04.03-.07a4.54 4.54 0 0 1 .24-.36c.03-.02.04-.02.05 0v.02c.02.02.02.05 0 .07l-.12.2c-.02.04-.01.07.02.1.03.02.05.01.07-.02l.15-.22c.01-.02.03-.02.04 0l.01.01c.01.01.02.03 0 .04l-.13.24v.02a.2.2 0 0 0 .08.06h.03ZM5.04 7.18h.02l.14-.24.02-.01h.07l.02.01-.2.4c0 .03-.03.04-.06.03l-.46-.2a.05.05 0 0 1-.03-.03V7.1l.05-.06c.01-.03.03-.03.06-.02l.37.16ZM13.08 7.32l-.16.08c-.02.01-.04 0-.05-.02l-.04-.12c-.01-.02 0-.03.02-.04l.5-.18c.02-.01.04 0 .05.02.07.13.12.24.15.35.03.09 0 .15-.06.19-.07.03-.14.03-.21-.01-.04-.03-.1-.1-.15-.22l-.02-.04c0-.01-.02-.02-.03 0Z" fill="#FEFEFE"/><path d="M13.24 7.4c.04.04.1.06.14.03.04-.02.04-.08 0-.13s-.1-.07-.14-.04c-.03.02-.03.08 0 .13ZM9 9.29l.02.25.01.02h.13c.02.03.02.08.02.14v.2l-.35.05V9.8c-.01-.01-.02-.02-.03-.01l-2.66.05c-.01 0-.02.02-.01.04l-.07-.2-.02-.01H6l-.02.01-.05.24c-.01.05 0 .13.03.26l.01.05c.02.07 0 .16-.03.26l-.08-.35c0-.02-.02-.03-.05-.03-.05 0-.08-.04-.08-.1l-.02-.4h.15c.02 0 .04-.01.04-.04l.01-.2.17-1.55c0-.02 0-.03-.02-.03H5.87v-.03l.25-.32h.01l.8-.03a46.76 46.76 0 0 1 .96-.04h.72c.03 0 .06.02.08.03a6.65 6.65 0 0 1 .18.16c.05.05.08.1.1.14 0 .02-.01.02-.03.03l-.2.01c-.02 0-.02 0-.02.02l.29 1.53Z" fill="#00049F"/><path d="M4.75 7.51c.06-.06.14-.06.23 0 .03.02.04.04.03.06-.01.07-.03.15-.07.24a.77.77 0 0 0-.03.16l-.01.06c0 .02-.02.03-.03.02l-.55-.13c-.01 0-.02 0-.02-.02.02-.11.06-.23.11-.35a.28.28 0 0 1 .08-.1c.04-.04.08-.05.12-.03a.3.3 0 0 1 .1.1h.04Z" fill="#FEFEFE"/><path d="M9 13.1a3.73 3.73 0 0 1-2.15-.62A4.07 4.07 0 0 1 5.48 11v-.01l.02-.02a10.66 10.66 0 0 1 .43-.42l.02.02a8.02 8.02 0 0 0 .22.91l.01.07c0 .02.02.04.04.03l2.6-.04c.02 0 .04-.01.05-.03l.03-.14.2-1.24c0-.03.02-.07.05-.1a.12.12 0 0 0 .03-.07V9.7a24.86 24.86 0 0 0 2.17-2.23h.04l.83 1.24v.02a9.98 9.98 0 0 1-.76 1.6 9.03 9.03 0 0 1-1.62 2.03c-.26.24-.54.5-.84.74Z" fill="#009422"/><path d="M4.46 7.75v-.01a.31.31 0 0 1 .05-.12c.02-.03.05-.04.07-.04.03 0 .04.03.05.07a.3.3 0 0 1-.01.12l-.01.01-.15-.03Z" fill="#00049F"/><path d="M13.2 8.14v-.06c-.02-.08-.04-.14-.07-.17l-.02-.01c-.04-.03-.05-.05-.06-.07a.63.63 0 0 1-.02-.12c0-.01 0-.02.03-.01.16.05.34.1.54.12.05 0 .08.02.1.05l.04.1v.07l-.55.3h-.03l-.03-.14c0-.02 0-.03.02-.03l.05-.03ZM8.74 9.28c-.02.01-.05.02-.1.01h-.1a.98.98 0 0 1-.23.01l-.42-.67a.04.04 0 0 0-.03-.02l-.03.01-.7.72a12.59 12.59 0 0 1-1-.04.11.11 0 0 1 0-.05l.16-1.44.02-.02 2.15-.03c.02 0 .02 0 .03.02l.25 1.5Z" fill="#FEFEFE"/><path d="m13.3 8.07-.03-.12c0-.02 0-.03.02-.02l.2.03c.05 0 .05.02 0 .04a.64.64 0 0 0-.15.09h-.02l-.01-.02Z" fill="#00049F"/><path d="m4.71 8.59.09.01.02.02-.01.17c0 .01-.01.02-.02.01l-.54-.27c-.04-.02-.05-.05-.06-.08l.01-.1.01-.04.02-.02.64-.14h.01l-.03.2h-.08c-.03 0-.05.01-.05.04l-.03.17c0 .02 0 .03.02.03Z" fill="#FEFEFE"/><path d="m4.6 8.4-.02.1h-.02l-.16-.04c-.05-.02-.05-.03 0-.04l.18-.03c.01 0 .02 0 .01.01Z" fill="#00018D"/><path d="M13.47 8.84c-.02.02-.02.02.01.02h.32c.02 0 .04 0 .04.03v.09c0 .02 0 .03-.02.03h-.6L13.2 9v-.02c0-.08.02-.14.05-.16l.28-.2c.03-.03.03-.04 0-.04h-.32c-.02 0-.03 0-.03-.02v-.09c0-.02.02-.04.04-.04l.54-.04.02.01.03.19c0 .01 0 .03-.02.03l-.32.22Z" fill="#FEFEFE"/><path d="m8.31 9.3.13.18v.03l-.06.07-1.44.02-.03-.01-.01-.01.23-.24.7-.72.03-.01c.02 0 .03 0 .03.02l.42.67Z" fill="#009422"/><path d="M4.34 9.04a.04.04 0 0 0-.02.03c-.01.08 0 .13.06.17.04.03.1.03.18.02.06-.01.1-.05.12-.1.02-.05 0-.1-.04-.14a.26.26 0 0 1-.05-.16c0-.02 0-.03.02-.02.11.02.18.08.2.18a.4.4 0 0 1 0 .25.25.25 0 0 1-.18.17c-.17.05-.3.02-.38-.08a.37.37 0 0 1-.08-.26c0-.1.04-.19.1-.24.03-.04.08-.04.13-.02l.02.02V9s0 .02-.02.02l-.06.03Z" fill="#FEFEFE"/><path d="M12.93 9.89v.02a1.65 1.65 0 0 1-.15.55 4.02 4.02 0 0 1-3.07 2.57l.56-.59c.3-.32.57-.65.8-1a14.07 14.07 0 0 0 1.35-2.38h.03c.04.12.1.22.16.32l.32.5Z" fill="#009422"/><path d="M13.65 9.35c-.04.02-.04.04 0 .06l.13.05c.02.02.04.03.04.06v.13c0 .01 0 .02-.02.02h-.02c-.07-.04-.17-.1-.29-.2l-.09-.01-.2-.01c-.01 0-.02 0-.02-.02v-.14c0-.02.01-.03.03-.02h.07c.1.01.19 0 .23-.02l.31-.15c.03-.01.04 0 .04.03v.09l-.04.05-.17.08Z" fill="#FEFEFE"/><path d="m7.13 9.34-.23.24a143.01 143.01 0 0 1-.78.03c-.02 0-.03-.01-.03-.03l.03-.33c0 .02 0 .03.02.05h.02a10.93 10.93 0 0 1 .97.04ZM8.74 9.28l.04.28-.01.02h-.4l.07-.07v-.03L8.3 9.3h.32c.05 0 .09 0 .11-.02ZM9.16 9.55h-.14l-.01-.26h.03l.01-.01h.14c.02 0 .03 0 .03.02l-.01.2-.01.02-.04.03ZM5.9 9.37l-.01.2c0 .03-.02.04-.04.04H5.7l.02-.26c0-.02 0-.03.02-.03h.09l.02.02c.01.02.03.03.05.03Z" fill="#D1D3F3"/><path d="M6.13 9.88v.1c.01.02.02.02.03.02l2.67-.05.34-.06.01.07-.03.06a.23.23 0 0 0-.05.11 141.74 141.74 0 0 1-.23 1.38c-.01.02-.03.03-.06.03l-2.59.04c-.02 0-.04 0-.04-.03l-.01-.07a8.03 8.03 0 0 1-.23-.93l-.01-.06a.45.45 0 0 0 .02-.31.7.7 0 0 1-.03-.26 4.77 4.77 0 0 1 .07-.25h.07l.07.21Z" fill="#000071"/><path d="M13.83 10.2a7.35 7.35 0 0 1-.5 1.3 5.93 5.93 0 0 1-1.9 1.88 5 5 0 0 1-6-.9c.04-.03.07-.08.07-.14 0-.04-.02-.1-.05-.19a4.73 4.73 0 0 1-.27-1.13.69.69 0 0 1 .1-.43 3.98 3.98 0 0 0 .4.75 4.07 4.07 0 0 0 2.61 1.7 3.73 3.73 0 0 0 1.25.02l.17-.03a3.73 3.73 0 0 0 1.51-.6 4.06 4.06 0 0 0 1.71-2.52l.01-.01.06-.02c.18-.05.31-.08.4-.08.16 0 .27.05.34.16a.9.9 0 0 1 .1.24Z" fill="#00018D"/><path d="m10.67 13.25-.06-.01-.03-.02c-.07-.07-.05-.15.06-.22a1.47 1.47 0 0 1 .36-.15l.02.01.18.4c.01.02 0 .03-.01.04l-.11.05c-.02 0-.04 0-.05-.02l-.08-.15c0-.01-.02-.02-.03 0l-.12.07-.02.03c0 .01.01.02.03.02l.05.02c.01 0 .02 0 .02.02v.02a.29.29 0 0 1-.19.09l-.02-.02c-.04-.06-.04-.11.01-.16v-.02ZM7.46 13.17c.01-.02 0-.03-.01-.04l-.14-.06c-.02 0-.02-.02 0-.04l.02-.03c.01-.02.03-.02.05-.02l.44.15c.03 0 .04.03.03.06-.01.03-.04.04-.1.04a.3.3 0 0 1-.1-.03c-.03 0-.04 0-.05.02l-.1.29-.04.02-.12-.02-.02-.02v-.02l.14-.3Z" fill="#FEFEFE"/><path d="m10.85 13.02-.12.04a.04.04 0 0 0-.03.05c.01.03.04.04.06.04l.12-.04c.02-.01.04-.04.03-.06a.05.05 0 0 0-.06-.03Z" fill="#000071"/><path d="m10.11 13.42.06.2c.01.03 0 .06-.04.06h-.04c-.04.01-.07 0-.08-.04l-.12-.4c0-.01 0-.02.02-.03a.25.25 0 0 1 .17 0c.04.02.09.04.15.09l.1.06c.05.02.06.01.04-.04a1.34 1.34 0 0 1-.07-.2v-.02l.12-.03a7.56 7.56 0 0 0 .12.33c.02.03.02.08.03.14 0 .02 0 .02-.02.02h-.15a2.86 2.86 0 0 0-.28-.15v.01ZM7.84 13.56l-.03.05H7.8l-.14-.02v-.01l.27-.4a.06.06 0 0 1 .06-.02l.13.02.02.02a8.04 8.04 0 0 0 .13.5l-.02.01-.12-.02c-.02 0-.03 0-.04-.03l-.01-.07c0-.01-.01-.02-.03-.02l-.18-.03s-.02 0-.02.02ZM8.55 13.44l.1-.11a.1.1 0 0 1 .07-.04h.11c.03 0 .04.01.02.03a24.9 24.9 0 0 0-.25.29v.11c0 .02-.01.03-.03.03h-.14c-.02 0-.03-.01-.03-.03.02-.05.02-.1.02-.13a.29.29 0 0 0-.05-.13 4.94 4.94 0 0 1-.12-.2c-.03-.04-.02-.06.03-.04l.07.01c.05.01.08.04.1.08.01.05.04.1.07.13h.03ZM9.63 13.3a.57.57 0 0 1-.15.16.04.04 0 0 0-.02.03c0 .01 0 .03.02.04l.2.19v.02l-.15.02a.1.1 0 0 1-.09-.03l-.07-.1c-.02-.02-.05-.03-.08-.01a.09.09 0 0 0-.05.05v.08c0 .03-.02.03-.03.03h-.12c-.02 0-.03 0-.03-.02l-.01-.44v-.01h.16l.01.17.01.02h.03c.16-.17.28-.24.37-.22h.02a.34.34 0 0 1 .15-.04l.02.02.1.43c0 .02 0 .03-.03.03l-.13.01h-.01l-.1-.42c0-.02 0-.02-.02 0Z" fill="#FEFEFE"/><path d="M8.03 13.3h.01l.02.13-.01.02h-.06a.17.17 0 0 1-.05-.02v-.02a1.45 1.45 0 0 1 .08-.11h.01Z" fill="#00018D"/></svg>