<!-- by TradingView --><svg width="18" height="18" viewBox="0 0 18 18" xmlns="http://www.w3.org/2000/svg"><path fill="#F0F3FA" d="M0 0h18v18H0z"/><path d="m9.2 4.16.1.13.03.09c0 .02 0 .05-.02.08-.18.24-.39.45-.63.62-.7.5-1.43 1-2.18 1.48-.51.32-1.02.7-1.53 1.15-.33.28-.58.59-.76.92-.17.32-.24.57-.2.78l.14.84c.02.11.05.12.1.01a.77.77 0 0 0 .07-.25c.04-.33.28-.72.73-1.18.31-.32.68-.63 1.1-.94.6-.42 1.23-.86 1.92-1.31A9.8 9.8 0 0 0 9.7 5.24c.18-.17.28-.34.32-.5.05-.2-.02-.36-.23-.48-.16-.09-.34-.17-.52-.23-.2-.07-.24-.02-.08.13ZM5.1 6.7c.23-.2.51-.4.85-.6.62-.38 1.28-.77 1.97-1.17.22-.13.5-.32.83-.58.07-.05.1-.12.1-.2v-.06a.06.06 0 0 0-.04-.05.06.06 0 0 0-.06 0l-.1.06c-.44.26-.78.44-1.02.55-.89.41-1.6.8-2.16 1.18-.57.39-.96.9-1.18 1.54-.08.26-.05.28.11.06.2-.26.43-.5.7-.73Zm5.07-2.54c.93.31 1.7.74 2.3 1.28.25.22.46.47.61.76.3.55.27 1.15-.07 1.8-.25.48-.67.96-1.24 1.46-.34.3-.73.61-1.17.94l-1.21.87c-.5.34-.86.6-1.1.78-.42.3-.75.63-1 .97-.06.1-.09.2-.07.35 0 .04.02.07.04.1l.2.2c.04.03.03.04-.01.05-.04 0-.08 0-.12-.02a5.54 5.54 0 0 1-2.24-1.65c-.34-.38-.4-.81-.18-1.29.15-.33.43-.7.86-1.08.4-.37.87-.76 1.4-1.17a70.62 70.62 0 0 1 2.3-1.7 4.04 4.04 0 0 0 1.39-1.52c.1-.26.06-.48-.13-.67a1.94 1.94 0 0 0-.68-.38.02.02 0 0 1-.02-.02l.01-.03.03-.01a.12.12 0 0 1 .1-.02ZM5.74 5.3c-.03.05-.01.06.03.03a12.38 12.38 0 0 1 2.37-1.08c.02 0 .02-.02.02-.03l-.01-.03c0-.02-.03-.03-.05-.02-.47.1-.87.23-1.2.37-.4.17-.74.38-1.06.63a.35.35 0 0 0-.1.13Zm7.9 3.36c.04-.1.07-.22.09-.35a4.3 4.3 0 0 0 .03-.52c.01-.29.06-.3.13 0s.1.62.11.96c.01 1.14-.96 2.32-2.91 3.52l-1.8 1.11-.08.05c-.14.08-.24.15-.3.2-.1.1-.16.2-.18.31 0 .03-.03.05-.06.04-.2-.02-.38-.08-.54-.17a.17.17 0 0 1-.08-.11c0-.05 0-.1.02-.14.17-.3.55-.63 1.15-1.02l2.14-1.43a6.02 6.02 0 0 0 2.27-2.45Zm-1.21 3.82c.4-.32.73-.68.99-1.09.15-.23.24-.45.3-.66 0-.05 0-.05-.04-.01a11.5 11.5 0 0 0-.6.75 3.5 3.5 0 0 1-.39.37c-.46.39-1 .75-1.62 1.1-.47.28-1.06.57-1.77.9-.05.02-.06.06-.05.1v.03l.03.03h.04c.6-.17 1.22-.42 1.85-.73.49-.24.9-.5 1.26-.79Z" fill="url(#abhkrkfxi)"/><defs><linearGradient id="abhkrkfxi" x1="5.8" y1="12.38" x2="13.39" y2="4.91" gradientUnits="userSpaceOnUse"><stop offset=".09" stop-color="#4A9835"/><stop offset=".71" stop-color="#9EC228"/><stop offset="1" stop-color="#4A9835"/></linearGradient></defs></svg>