<!-- by TradingView --><svg width="18" height="18" viewBox="0 0 18 18" xmlns="http://www.w3.org/2000/svg"><path fill="#0A4041" d="M0 0h18v18H0z"/><path d="M4 11.73V12h3v-.27c-.24-.11-1-.2-1-.52V7h2.94l.66-.7-.33-.3-.66.27H3.66L3 6.9l.17.3.49-.2H5v4.21c0 .24-.82.43-1 .52ZM10.5 6H13.28c.57 0 1.72.31 1.72 1.56 0 1.56-1.2 1.73-1.72 1.73H12v1.76c0 .21.43.66 1 .66V12h-2.5v-.29c.24-.05.5-.33.5-.71V6.58l-.5-.26V6ZM12 9h1.28c.35 0 .78-.2.78-1.44 0-.31-.3-.99-1.12-.99H12V9Z" fill="#FEFFFF"/><path d="M9 8H8v4h1.5v-.24c-.64-.1-.5-.43-.5-.56V8Z" fill="#FEFFFF"/></svg>