<!-- by TradingView --><svg width="18" height="18" viewBox="0 0 18 18" xmlns="http://www.w3.org/2000/svg"><path fill="url(#axky0d0rx)" d="M0 0h18v18H0z"/><path d="M10.37 3.26c.3.13.59.35.63.71V4a.02.02 0 0 1-.02.01H7.06a.06.06 0 0 1-.05-.03.07.07 0 0 1 0-.05c.1-.47.6-.7 1.02-.8a3.78 3.78 0 0 1 2.34.14Z" fill="#3DDB84"/><path d="M12 13.15c0 .22-.08.44-.23.6a.76.76 0 0 1-.56.25H6.8c-.21 0-.41-.09-.56-.25a.89.89 0 0 1-.23-.6V5.22c0-.22.08-.44.23-.6a.76.76 0 0 1 .56-.25h4.42c.21 0 .41.1.56.25.15.16.23.38.23.6v7.93Zm-.55-7.92c0-.2-.06-.23-.24-.23H6.79c-.18 0-.24.03-.24.23v7.92c0 .07 0 .15.05.2.05.05.12.05.19.05h4.42c.07 0 .14 0 .19-.05.05-.05.05-.13.05-.2V5.23Z" fill="#fff"/><path d="M11 12.58c0 .1-.04.22-.12.3a.4.4 0 0 1-.3.12H7.42a.4.4 0 0 1-.29-.12.43.43 0 0 1-.12-.3v-6.7c0-.12.04-.23.12-.31a.4.4 0 0 1 .3-.13h3.17c.1 0 .21.05.29.13.08.08.12.19.12.3v6.7ZM8.46 9.9 8.18 12l.36.07L10 8.98v-.02l-.61-.11h-.01a.02.02 0 0 1-.01-.02v-.01l.5-2.71-.02-.02-.42-.06-.02.01-1.53 3.64v.01l.57.2.01.02Z" fill="#3DDB84"/><defs><linearGradient id="axky0d0rx" x1="3.35" y1="3.12" x2="21.9" y2="24.43" gradientUnits="userSpaceOnUse"><stop stop-color="#1A1E21"/><stop offset="1" stop-color="#06060A"/></linearGradient></defs></svg>