<!-- by TradingView --><svg width="18" height="18" viewBox="0 0 18 18" xmlns="http://www.w3.org/2000/svg"><path fill="#F0F3FA" d="M0 0h18v18H0z"/><path d="M11.8 5.24c.2.4.25 1.09.14 2.07a.64.64 0 0 1-.3.5.56.56 0 0 1-.56.03c-.85-.4-1.37-.79-1.58-1.18-.2-.4-.25-1.08-.14-2.07.03-.22.13-.4.31-.5.18-.11.36-.12.56-.03.84.4 1.37.8 1.57 1.18Z" fill="#0064B2"/><path d="M8.33 9.9a.56.56 0 0 1-.55.02c-.85-.4-1.37-.79-1.58-1.18-.2-.4-.25-1.08-.14-2.07.03-.23.13-.4.3-.5a.55.55 0 0 1 .57-.03c.84.4 1.36.79 1.57 1.18.2.4.25 1.08.14 2.07a.64.64 0 0 1-.3.5Z" fill="#4BB746"/><path d="M9.67 8.14c.18-.1.37-.11.56-.02.84.4 1.37.8 1.57 1.18.21.4.25 1.09.14 2.07a.64.64 0 0 1-.31.5.56.56 0 0 1-.56.03c-.84-.4-1.37-.8-1.57-1.19-.2-.39-.25-1.08-.13-2.06.02-.23.13-.4.3-.5Z" fill="#0064B2"/><path d="M8.33 13.91a.55.55 0 0 1-.55.03c-.85-.4-1.37-.79-1.58-1.18-.2-.4-.25-1.09-.14-2.07.03-.23.13-.4.3-.5.18-.12.37-.13.56-.04.85.4 1.37.8 1.58 1.19.2.39.25 1.08.14 2.07a.64.64 0 0 1-.3.5Z" fill="#4BB746"/></svg>