<!-- by TradingView --><svg width="18" height="18" viewBox="0 0 18 18" xmlns="http://www.w3.org/2000/svg"><path fill="url(#aiankz2bi)" d="M0 0h18v18H0z"/><path d="M8.47 11.72a.27.27 0 0 0 .09.28l-.04.02h-.01v.02c.03.14.03.28 0 .42-.03.17.04.27.12.4a6.05 6.05 0 0 1 .02.07l-.04.03v.02c0 .02 0 .03.02.05.02.05.05.1.02.17a.03.03 0 0 0 0 .02c.03.06.04.13.06.2.07.24.14.48.4.58.03 0 .03 0 .03-.02a.08.08 0 0 0-.06-.04.02.02 0 0 1-.01-.01v-.02h.01c.17 0 .33-.04.48-.1l.02-.02c.12-.23.22-.57-.01-.76a.02.02 0 0 0-.03 0v.01c0 .04 0 .08.02.12.03.16.06.33-.07.44a.03.03 0 0 1-.03 0h-.01v-.02c-.07-.33-.1-.7-.13-1.04l-.04-.47v-.01h-.01l-.05.01c-.12.04-.29.1-.38.01-.04-.04-.02-.08.03-.1l.4-.24c.02-.01.03-.04.03-.07a4.1 4.1 0 0 1 .04-.96v-.05a4.2 4.2 0 0 0 .1-1.05 2.78 2.78 0 0 0 .3-1.31 11.16 11.16 0 0 1 .12.95h.18l.01-.01c-.1-.34-.11-.68-.13-1.03a11.99 11.99 0 0 0-.05-.57 2.07 2.07 0 0 1-.03-.14c.14.2.2.42.2.66-.01.07 0 .13.1.12v-.01a1.5 1.5 0 0 1 .05-.74 1.15 1.15 0 0 0 .03-.17h-.01a.44.44 0 0 1-.23-.03V7.3l.07-.05a.02.02 0 0 0 .01 0v-.02c-.08-.1-.2.04-.23.1a1.68 1.68 0 0 0-.08.25l-.02.01h-.02v-.02c-.13-.35.34-.58.63-.68l.02-.01v-.01l.03-.3-.01-.02h-.15a.02.02 0 0 1-.01 0v-.01a1.26 1.26 0 0 0-.09-.61.01.01 0 0 1 .01 0l.1-.05c.07-.04.13-.07.18-.07a.01.01 0 0 1 0 .01v.02c-.03.07-.06.16-.01.2l.01.01h.04v-.02l.03-.07c.02-.1.05-.22.1-.25a.01.01 0 0 1 .01 0h.01l.03.05c.01.02.02.02.03 0l.02-.06c0-.02.01-.02.02 0l.03.05c.01.02.02.02.03 0 .03-.07.08-.08.14-.03a.01.01 0 0 0 .02 0l.03-.09.02-.01h.01l.46-.05a.4.4 0 0 1 .32.1v.03a.27.27 0 0 1-.2.13 1.48 1.48 0 0 0-.4.1h-.01l-.02-.04a.02.02 0 0 0 0-.01.02.02 0 0 0-.02 0c-.2.07-.3.22-.41.38h-.02l-.02-.08v-.01l-.02-.01a.03.03 0 0 0-.03 0l-.11.07v.01l.06.13v.02h-.02c-.06-.02-.16-.07-.2 0v.04c.02.06.05.11.1.16h.02a.37.37 0 0 0 .07-.05c.04-.04.08-.07.11-.07h.02c.03.09.1.12.18.14a.82.82 0 0 1 .08.03v.02l-.06.08v.02l.01.01h.01c.1 0 .13.09.16.16l.04.07v.01a.03.03 0 0 0 .03 0l.01-.01c.05-.18.26.02.33.08l.05.05c.14.14.3.3.49.34H12v.13h.02l.07.02h.02l.01.02.05.14.01.01h.01c.13 0 .19.06.19.18v.01h-.02c-.07.02-.13.07-.2.12-.06.06-.12.11-.18.1h-.02v-.02c.09-.06.17-.12.16-.2v-.02h-.01c-.09-.02-.2.03-.27.07h-.06l-.09-.08a.02.02 0 0 1 0-.02v-.01h.01l.12-.07a.02.02 0 0 0 .01-.02c-.07-.06-.13-.06-.18 0a.02.02 0 0 1-.02 0 .47.47 0 0 0-.16-.27.04.04 0 0 0-.02-.01.16.16 0 0 0-.11.05.01.01 0 0 1-.02 0c-.02-.04 0-.08 0-.12.01-.03.02-.07 0-.08h-.01l-.01.01-.06.11a.02.02 0 0 1-.02.01.03.03 0 0 1-.01 0c-.06-.03-.03-.06 0-.1l.02-.04v-.01h-.01l-.08-.02h-.03a.42.42 0 0 0-.25.31v.01h-.01l-.12.01h-.02v.02c0 .08-.02.14-.05.17l-.03.03c-.07.08-.2.24-.18.28h.02l.08-.01h.03a.02.02 0 0 1 0 .03l-.03.02c-.05.05-.17.17-.01.19a.02.02 0 0 1 .02.02v.01a.66.66 0 0 1-.05.05c-.05.05-.1.1-.07.18l.02.01.07.02h.01v.02l-.08.37v.01a.02.02 0 0 0 .02.01l.13.02h.01v.01c0 .03-.04.08-.09.13l-.09.13v.01h.01c.2.05.35-.16.4-.31.01-.02.02-.02.02 0l.04.17v.01h.02c.17.02.29-.06.4-.15l.13-.09h.01v-.04c0-.05 0-.15.03-.16a.02.02 0 0 1 .01 0v.01c0 .04.02.06.05.08h.03c.24-.09.36-.25.36-.49l.01-.03H12v.13h.02c.07.04.15-.02.21-.07v-.02l-.03-.13v-.02h.02l.05.06.04.06h.03a6.65 6.65 0 0 1 .84-.28c.1-.03.6-.26.36-.4-.04-.02-.04-.04.01-.05a.58.58 0 0 0 .32-.16l.02-.03V7.5a.87.87 0 0 0-.22-.33.94.94 0 0 1-.21-.31.02.02 0 0 1 .02 0 1.83 1.83 0 0 1 .46.43.02.02 0 0 0 .02 0c.19-.45-.2-.8-.54-1.03-.1-.07-.17-.13-.23-.2l-.13-.18c-.06-.09-.11-.17-.18-.24-.61-.58-1.91-.66-2.75-.63-.04 0-.1.02-.14.07l-.01.02c0 .06-.02.11-.06.16h-.02a4.57 4.57 0 0 0-1.96-.03c-.15.03-.3.1-.44.17l-.15.06c-.06.03-.07.02-.03-.03.07-.09.32-.17.43-.2l.02-.02V5.06h-.02c-.26-.07-.51-.03-.76.02l-.28.05h-.27c-.07-.02-.15-.02-.22-.02-.6.04-1.4.49-1.77.91-.27.3-.63.98-.32 1.32.21.24.4.44.53.62a.49.49 0 0 0 .23.14h.02L5.04 8c.19-.1.37-.2.57-.24h.02v.03l-.08.04c-.12.06-.27.13-.32.21a.04.04 0 0 0 0 .03c.09.2.24.31.47.34h.03l.04-.04c.05-.03.1-.08.15-.07h.01a.01.01 0 0 1 0 .02c-.06.1-.08.2-.06.31l.01.03a1.48 1.48 0 0 0 .36.18l.02-.01.08-.1a.78.78 0 0 1 .34-.27v-.01c-.03-.14.02-.22.08-.3l.09-.17c.02-.05 0-.1-.02-.14l-.02-.07a.03.03 0 0 1 .01-.02l.02-.02c.06-.07.13-.15.14-.24.01-.24-.05-.47-.12-.7a2.14 2.14 0 0 1-.13-.76c-.14-.19-.22-.55-.02-.73h.01c0 .07 0 .11.02.16s.04.1.02.17c0 .01 0 .02.02.01a.1.1 0 0 0 .06-.06l.01-.02h.02c.06 0 .11 0 .17.02v.01l.01.02-.02.1v.02l.02.01a.04.04 0 0 0 .04 0l.08-.08.01-.01h.03v.1c.01.1.02.2.1.24h.01c0-.1.02-.18.07-.26a.02.02 0 0 1 .02 0 .8.8 0 0 1 .03.21c0 .16 0 .33.1.38h.02c.07-.11.1-.23.14-.35.07-.23.14-.46.37-.57a.03.03 0 0 1 .03 0v.03a1.1 1.1 0 0 0-.12.44l-.01.01a.2.2 0 0 0-.17.13c-.01.02 0 .03.03.02l.08-.02h.01v.02l-.07.14c-.07.13-.14.26-.26.34h-.02l-.01-.02v-.05h-.01l-.02-.01c-.13 0-.14.41-.12.5l.01.01c.36.16.62.42.55.8v.01h-.02l-.1-.32c0-.07-.08-.16-.17-.1h-.01v.02c0 .03.03.06.08.07l.01.01v.01h-.01a.38.38 0 0 1-.21.03h-.02v-.05c.05-.04.08-.1.07-.15v-.02h.01a.03.03 0 0 1 .02 0h.13v-.02a.6.6 0 0 0-.29-.19v.01h-.01l-.08.33c-.04.1.05.17.15.26.1.08.22.18.21.3v.02h.02l.55.33h.03c.17 0 .33 0 .5.04a43.97 43.97 0 0 0 .3.07H8.09l-.1-.13v-.02a.04.04 0 0 0-.05.01l-.01.02c-.03.1 0 .18.1.23a2.29 2.29 0 0 1 .37.24c.1-.01.2 0 .3.03a.05.05 0 0 0 .04 0l.01-.02v-.02l.01-.14.01-.02a.02.02 0 0 1 .02 0c.05 0 .03.09.03.13v.03l.01.01.02.01h.02c.05 0 .38-.04.32.08l-.01.01h-.02c-.21-.07-.4-.04-.62-.01a6.22 6.22 0 0 1-.2.01 1.4 1.4 0 0 0-.44-.22v.01c0 .06.08.1.15.14a.82.82 0 0 1 .06.03v.02H7.92a.02.02 0 0 0-.02.02c.03.14.14.23.24.32l.05.04c.05.05.42.04.63.03h.1c.11 0 .3 0 .4.06h-.37a2.07 2.07 0 0 1-1-.13c.19.25.62.52.95.33h.01c.02.08.1.1.17.1.04 0 .1.01.13.04v.03H9.2l-.95-.03h-.02l-.01-.02c-.07-.1-.17-.15-.32-.15v.02c-.01.05 0 .1.01.16l.1.28c.09.25.18.51.21.77.01.1.07.14.16.17l.01.01a.01.01 0 0 1 0 .01l-.03.02v.02l.1.13a.02.02 0 0 1 0 .02v.01l-.02.01h-.02l-.05-.05h-.02v.02c.03.2.26.25.44.27a.01.01 0 0 1 .01 0 .01.01 0 0 1 0 .02.65.65 0 0 1-.31.33l-.01.01-.01.01Zm1.5-4.56c.06.02.11.02.16 0a.02.02 0 0 1 .01 0h.01c0 .07.03.11.08.15a.01.01 0 0 0 .01 0l.09-.3v-.02h-.02a.75.75 0 0 0-.35.14v.03ZM7.21 9.3c.28.06.35.41.35.62l.03.75c.05.62.55.74 1.14.73v.01c-.62.33-1.2.06-1.48-.5a1.52 1.52 0 0 1-.03-1.37l-.03-.22v-.01h.01Zm2.84.02-.02-.01c-.2-.03-.33.03-.4.2v.02l.03.13c.16.57.4 1.4-.04 1.88-.1.11-.27.21-.43.31l-.19.12c.58-.04.98-.57 1.13-1.02a2.26 2.26 0 0 0-.08-1.63Z" fill="#FC0"/><defs><linearGradient id="aiankz2bi" x1="3.35" y1="3.12" x2="21.9" y2="24.43" gradientUnits="userSpaceOnUse"><stop stop-color="#1A1E21"/><stop offset="1" stop-color="#06060A"/></linearGradient></defs></svg>