<!-- by TradingView --><svg width="18" height="18" viewBox="0 0 18 18" xmlns="http://www.w3.org/2000/svg"><path fill="#C14729" d="M0 0h18v18H0z"/><path d="M9 4a5 5 0 1 0 0 10A5 5 0 0 0 9 4Zm0 7.72a2.17 2.17 0 1 1 0-4.35 2.17 2.17 0 0 1 0 4.35Z" fill="#fff"/><path d="M12.1 10.42c0-1.23-.76-2.07-1.15-2.34.17.16.51.67.51 1.46 0 2.02-1.93 2.44-2.9 2.4l.38 1.48c2.03-.24 3.16-1.47 3.16-3Z" fill="url(#a1pqay0nf)"/><path d="M7.46 13.69a3.66 3.66 0 0 1-2.04-3.15 3.87 3.87 0 0 1 3.7-3.78l-.66-2.73a5 5 0 0 0-1.1 9.7l.1-.04Z" fill="url(#b1pqay0nf)"/><defs><linearGradient id="a1pqay0nf" x1="12" y1="11.5" x2="9.48" y2="12.54" gradientUnits="userSpaceOnUse"><stop stop-color="#E4DFDB"/><stop offset="1" stop-color="#E4DFDB" stop-opacity="0"/></linearGradient><linearGradient id="b1pqay0nf" x1="4.2" y1="11.55" x2="7.59" y2="5.93" gradientUnits="userSpaceOnUse"><stop offset=".75" stop-color="#E4DFDB"/><stop offset="1" stop-color="#E4DFDB" stop-opacity="0"/></linearGradient></defs></svg>