<!-- by TradingView --><svg width="18" height="18" viewBox="0 0 18 18" xmlns="http://www.w3.org/2000/svg"><path fill="#F0F3FA" d="M0 0h18v18H0z"/><path d="M12.9 5.09c.38.01.64.06.77.15.58.35.27 1.35.02 1.9-.06.13-.15.4-.31.47-.21.11-.47.17-.78.18-1.26.04-1.5.12-2.51.23a.93.93 0 0 0-.85.7c-.1.33-.28 1.2-.52 2.59-.06.35-.16.7-.3 1.06-.18.4-.52.62-1.04.63H6.36c-.25-.05-.63-.04-.66-.43-.02-.27 0-.55.06-.83l.76-2.88c.15-.56-.03-.88-.53-.97a8.89 8.89 0 0 1-.82-.19.14.14 0 0 1-.08-.07L5 7.45V6.8c.09-.51.27-1.24.67-1.5.1-.05.23-.1.41-.12C6.86 5.06 7.64 5 8.43 5c1.8 0 2.69.01 4.48.09Z" fill="#0071BE"/></svg>