<!-- by TradingView --><svg xmlns="http://www.w3.org/2000/svg" width="18" height="18" viewBox="0 0 18 18"><path fill="#F0F3FA" d="M0 0h18v18H0z"/><path d="M11.46 3 13 10.26l-1.76-.86 1.04 4.6h-.33l-1.12-5.12 1.77.86-1.3-6.1-5.06 6.04 2.42-.86L4.34 14H4l3.75-4.54-2.42.86L11.46 3Z" fill="#4279C1"/><path d="M8.2 9.2 4.23 14h7.86l-1.05-4.8 1.76.86-1.42-6.75-5.6 6.75 2.42-.87Z" fill="url(#alpxtomhk)"/><path d="M11 3.9c.13-.15.36-.09.4.1l1.3 5.4c.04.19-.14.36-.32.28l-1.47-.6 1.02 4.07H4.88l3.43-4-1.54.5c-.23.08-.4-.21-.24-.4L11 3.9Zm.15.27-4.3 5.14 2.36-.77-3.7 4.31h6.05L10.5 8.6l1.9.77-1.25-5.2Zm1.27 5.3Zm-5.73-.1Z" fill="url(#blpxtomhk)"/><defs><linearGradient id="alpxtomhk" x1="9.92" y1="7.31" x2="8.32" y2="13.95" gradientUnits="userSpaceOnUse"><stop stop-color="#2F6CC1"/><stop offset="1" stop-color="#2F6CC1" stop-opacity="0"/></linearGradient><linearGradient id="blpxtomhk" x1="10.11" y1="6.22" x2="9.19" y2="12.1" gradientUnits="userSpaceOnUse"><stop stop-color="#fff"/><stop offset="1" stop-color="#fff" stop-opacity="0"/></linearGradient></defs></svg>