<!-- by TradingView --><svg width="18" height="18" viewBox="0 0 18 18" xmlns="http://www.w3.org/2000/svg"><path fill="#358740" d="M0 0h18v18H0z"/><path fill-rule="evenodd" d="M7.7 4.87 8.13 4l.87.65.87-.65.65.87 1.09-.1.1.86 1.1.22v1.08l.76.33-.33.87L14 9l-.76.76.54.87-.98.44v1.08l-1.08.11-.22 1.09-.98-.22-.54.87-.98-.54-.87.54-.54-.87-.98.22-.33-1.09-1.08-.1v-.99l-.98-.54.54-.87L4 9l.76-.87-.54-.87.98-.33V5.85l1.08-.22.33-.98 1.09.22Zm-.44 2.4.98.1.22-.87.65.54.76-.54.1.87.88-.1-.11.75.76.22-.43.65.43.65-.65.33v.98l-.87-.22-.22.76-.65-.65-.65.65-.22-.76-.87.22v-.98l-.87-.33.76-.65-.76-.65.87-.22-.1-.76Z" fill="#FFB232"/><path fill-rule="evenodd" d="m7.59 6.28.43-1.2.98.77 1.2-.76.43 1.2h1.3l-.1 1.19 1.08.54-.76.98.87.98-1.2.54.11 1.3-1.3-.21-.54 1.2L9 11.92l-.87.87-.54-1.2-1.3.23.1-1.3-1.2-.66.88-.87-.87-.87 1.08-.65.11-1.2h1.2Zm.65 1.09.22-.87.65.54.76-.54.1.87.88-.1-.11.75.76.22-.43.65.43.65-.65.33v.98l-.87-.22-.22.76-.65-.65-.65.65-.22-.76-.87.22v-.98l-.87-.33.76-.65-.76-.65.87-.22-.1-.76.97.11Z" fill="#FFFCF3"/></svg>