<!-- by TradingView --><svg xmlns="http://www.w3.org/2000/svg" width="18" height="18"><path fill="#F0F3FA" d="M0 0h18v18H0z"/><path opacity=".3" d="M10.65 7.74H7.32L8.65 6.7h.51l1.49 1.04zm0 2.52H7.32l1.33 1.04h.51l1.49-1.04z"/><path d="M11.29 12C13.34 12 15 10.66 15 9s-1.66-3-3.71-3c-.87 0-1.66.24-2.29.64A4.29 4.29 0 006.71 6C4.66 6 3 7.34 3 9s1.66 3 3.71 3c.87 0 1.66-.24 2.29-.64.63.4 1.42.64 2.29.64zm-2.32-1.45a3.4 3.4 0 01-2.5 1.02c-1.74 0-3.14-1.15-3.14-2.57s1.4-2.57 3.13-2.57c1.03 0 1.93.4 2.5 1.02a3.4 3.4 0 012.5-1.02c1.74 0 3.14 1.15 3.14 2.57s-1.4 2.57-3.13 2.57a3.4 3.4 0 01-2.5-1.02z"/><path d="M7.47 8h-2.3v.5H6V10h.65V8.5h.82V8zm3.97 0c.65 0 .87.4.87.56h-.64c0-.14-.18-.23-.3-.23-.1 0-.27.07-.27.2.01.15.27.18.42.2.67.06.84.4.84.58.03.21-.16.69-.92.69-.85 0-1.02-.42-1.03-.67h.63c.02.26.25.34.4.34.11 0 .28-.07.28-.23 0-.17-.31-.25-.47-.26-.74-.16-.76-.47-.76-.62 0-.16.13-.55.95-.56zm-1.5.52c-.05-.18-.28-.5-.93-.52-.76-.03-1.22.36-1.22.98 0 .66.52 1.04 1.22 1.02.56-.02.86-.24.94-.34v-.79H9.1v.4h.33v.23c-.04.05-.18.17-.47.17-.32 0-.51-.3-.51-.69 0-.4.2-.65.51-.65.3.01.39.2.42.29l.57-.1z" fill="#2D3094"/></svg>