<!-- by TradingView --><svg width="18" height="18" viewBox="0 0 18 18" xmlns="http://www.w3.org/2000/svg"><path fill="#F0F3FA" d="M0 0h18v18H0z"/><circle cx="9" cy="9" r="5" fill="#332489"/><circle cx="9.33" cy="9" r="4.33" fill="#F0F3FA"/><circle cx="10" cy="9" r="4" fill="#332489"/><circle cx="10.67" cy="9" r="3.33" fill="#F0F3FA"/><circle cx="11" cy="9" r="3" fill="#332489"/><circle cx="11.33" cy="9" r="2.67" fill="#F0F3FA"/><circle cx="11.67" cy="9" r="2.33" fill="#332489"/><circle cx="12" cy="9" r="2" fill="#F0F3FA"/><path d="M10.67 9A1.67 1.67 0 1 1 14 9a1.67 1.67 0 0 1-3.33 0Z" fill="#332489"/><path d="M11.33 9A1.33 1.33 0 1 1 14 9a1.33 1.33 0 0 1-2.67 0Z" fill="#F0F3FA"/><path d="M12 9a1 1 0 1 1 2 0 1 1 0 0 1-2 0Z" fill="#332489"/><path d="M12.67 9A.67.67 0 1 1 14 9a.67.67 0 0 1-1.33 0Z" fill="#F0F3FA"/><path d="M13.33 9A.33.33 0 1 1 14 9a.33.33 0 0 1-.67 0Z" fill="#332489"/><path d="M13.5 9a.17.17 0 1 1 .33 0 .17.17 0 0 1-.33 0Z" fill="#F0F3FA"/></svg>