<!-- by TradingView --><svg width="18" height="18" viewBox="0 0 18 18" xmlns="http://www.w3.org/2000/svg"><path fill="#F0F3FA" d="M0 0h18v18H0z"/><path d="M11.98 3H12a589.4 589.4 0 0 0-.01 3.13 2.57 2.57 0 0 1-.09.5 1.42 1.42 0 0 1-.08.29 1.92 1.92 0 0 1-.3.52l-.2.21-.24.22a3.28 3.28 0 0 1-.4.28 8.72 8.72 0 0 1-1.42.8 4.37 4.37 0 0 1-.46.2A3.65 3.65 0 0 0 7 11.04a82.78 82.78 0 0 0 .01-1.77 8.05 8.05 0 0 1 .1-.84 3.14 3.14 0 0 1 .42-1.08l.04-.06a2.01 2.01 0 0 1 .78-.71 11.2 11.2 0 0 1 .55-.34 437.9 437.9 0 0 0 1.36-.84 1.76 1.76 0 0 0 .2-.13.88.88 0 0 0 .12-.07l.09-.07a3.29 3.29 0 0 0 1.05-1.23c.05-.12.1-.22.12-.3a2.42 2.42 0 0 0 .13-.59ZM10.78 9.14a1.52 1.52 0 0 0 .2-.14A3.4 3.4 0 0 0 12 7.82a7.6 7.6 0 0 1-.19.92 88.02 88.02 0 0 1-.17.44l-.06.13-.08.14-.05.1a2.44 2.44 0 0 0-.15.23l-.12.14-.03.04a3.4 3.4 0 0 1-2.11 1.18l-.09.01a6.82 6.82 0 0 1-1.8.01.74.74 0 0 0 .12-.12.55.55 0 0 1 .08-.09.52.52 0 0 0 .07-.07.28.28 0 0 1 .07-.07.49.49 0 0 0 .07-.06.45.45 0 0 1 .1-.07l.05-.05a7.34 7.34 0 0 1 2.32-1.1l.11-.05.15-.06a6.64 6.64 0 0 0 .49-.28Z" fill="#EF1923"/><path d="M10.83 12.01c.02-.02.01-.03-.02-.02a5.49 5.49 0 0 1-.47.11l-.1.02a4.25 4.25 0 0 1-2.17-.27 3.98 3.98 0 0 1-.79-.47l.29.07a5.05 5.05 0 0 0 2.48-.08 4.26 4.26 0 0 0 1.72-1.18c.01-.04.03-.04.03 0a3.24 3.24 0 0 1-.3 2.14l-.05.1-.07.12c-.26.38-.6.69-1.03.93a4.6 4.6 0 0 1-1 .41l-.21.04a3.66 3.66 0 0 1-3.9-1.84 3.68 3.68 0 0 1-.19-.62 3.08 3.08 0 0 1 .32-2.06c.05-.1.11-.2.18-.28a5.1 5.1 0 0 1 1.5-1.19h.01v.01l-.16.12a.54.54 0 0 0-.08.07.61.61 0 0 1-.09.07.3.3 0 0 0-.06.05.43.43 0 0 1-.05.06l-.1.1a2.91 2.91 0 0 0-.54.84 3.15 3.15 0 0 0-.17.73 2.87 2.87 0 0 0 .17 1.23 2.97 2.97 0 0 0 3.22 1.63c.2-.03.38-.08.56-.15a2.95 2.95 0 0 0 1.07-.69Z" fill="#25AFB1"/></svg>