<!-- by TradingView --><svg width="18" height="18" viewBox="0 0 18 18" xmlns="http://www.w3.org/2000/svg"><path fill="#F0F3FA" d="M0 0h18v18H0z"/><path d="M7.22 6.08c.25-.44.93-1.46 1.68-2.08.47.37 1.52 1.3 1.89 2.08a4.36 4.36 0 0 0-1.79 3c0-.5-.23-1.74-1.78-3Zm.5 5.43a2.8 2.8 0 0 0-1.27-.34c-.87-.67-2.25-2.73-.76-5.6.96.3 2.92 1.47 3.06 3.7.02.4 0 1.3-.22 1.71l-.8.53Zm-2.3-.17c-.98-.28-2.71-1.6-1.9-4.59.15 0 .6.1 1.25.44a4.37 4.37 0 0 0 1.29 3.92l-.65.23Zm-.86.55.52-.42a3.39 3.39 0 0 1-2.05-2.89c-.5.07-.9.19-1.03.24.64 2.37 1.97 3.03 2.56 3.07Zm8.88 0-.52-.42a3.39 3.39 0 0 0 2.05-2.89c.5.07.9.19 1.03.24-.64 2.37-1.97 3.03-2.56 3.07Zm1.03-5.14c.82 3-.91 4.3-1.88 4.6l-.65-.24a4.37 4.37 0 0 0 1.29-3.92c.65-.34 1.1-.43 1.24-.44Zm-2.92 4.42c-.6.01-1.1.23-1.28.34l-.8-.53a4.62 4.62 0 0 1-.22-1.7c.14-2.24 2.1-3.41 3.06-3.72 1.49 2.88.11 4.94-.76 5.6Zm-2.72-.3c.06-.21.15-.84.18-1.04l.01.1c.04.3.1.77.15.94h-.34Zm-1.28.84c-.63-.37-2.2-.68-3.47 1.11.63.47 2.13 1.17 3.15.25-.13-.23-.24-.82.32-1.36Zm6.37 1.11c-1.27-1.8-2.84-1.48-3.47-1.1.56.53.45 1.12.32 1.35 1.02.92 2.52.22 3.15-.25ZM9 14c-.56-.17-1.69-.7-1.65-1.38.03-.68 1.25-1.5 1.65-1.5.41 0 1.59.8 1.61 1.5.02.7-1.06 1.21-1.6 1.38Z" fill="#45A4DC"/></svg>