<!-- by TradingView --><svg width="18" height="18" viewBox="0 0 18 18" xmlns="http://www.w3.org/2000/svg"><path fill="#A61C4B" d="M0 0h18v18H0z"/><path d="M4.66 5.14c.48.31.66.65 2 3.75 1.15 2.61 1.38 3.09 1.66 3.41.44.53.86.7 1.64.7.57-.01 1.5-.12 1.2-.14-.27-.02-.7-.3-.88-.56-.09-.14-.72-1.56-1.42-3.17-1.4-3.2-1.57-3.52-2.22-3.89-.34-.19-.38-.22-1.24-.24h-1l.26.14Z" fill="#fff"/><path d="M10.65 5.73a8.8 8.8 0 0 0-.9 1.8l-.65 1.5.46 1.1c.26.61.5 1.13.54 1.17.04.04.49-.92 1.25-2.7.66-1.51 1.18-2.75 1.37-2.96.2-.24.45-.43.68-.64h-.8c-.72.01-1.4.1-1.95.73ZM3 7c.4.23.58.58.73.78A22 22 0 0 1 4.76 9.9c.73 1.68.93 2.08 1.2 2.4.48.56.83.69 1.92.69h.87l-.28-.2a2.75 2.75 0 0 1-.5-.53c-.13-.16-.64-1.23-1.14-2.37-.97-2.22-1.09-2.29-1.66-2.6-.25-.12-.57-.3-1.23-.3H3ZM12.07 7.87c-.1.14-.53.95-.97 1.97-.87 2.03-.87 2.03-.5 2.46.4.48 1.08.47 1.45-.02.07-.08.53-1.09 1.03-2.25.51-1.16 1.02-2.11 1.12-2.27.22-.3.51-.59.8-.76h-.8c-.68 0-1.66.22-2.13.87Z" fill="#fff"/></svg>