<!-- by TradingView --><svg width="18" height="18" viewBox="0 0 18 18" xmlns="http://www.w3.org/2000/svg"><path fill="#006" d="M0 0h18v18H0z"/><circle cx="5" cy="12" fill="#00772E" r=".78"/><path d="M6 12a1 1 0 1 1-2 0 1 1 0 0 1 2 0Zm-1 .78a.78.78 0 1 0 0-1.56.78.78 0 0 0 0 1.56Z" fill="url(#a)"/><path d="M8.71 8.25H7.3v3.5c0 .75 1 1 1.42 1v-4.5Z" fill="url(#b)"/><path fill-rule="evenodd" d="M7 8h2v5h-.29a2.4 2.4 0 0 1-1.02-.25c-.35-.19-.69-.5-.69-1V8Zm1.43 4.72c-.48-.08-1.14-.36-1.14-.97v-3.5H8.7v4.5c-.07 0-.17 0-.28-.03Z" fill="url(#c)"/><circle cx="8" cy="6" fill="url(#d)" r=".71"/><path d="M9 6a1 1 0 1 1-2 0 1 1 0 0 1 2 0Zm-1 .71A.71.71 0 1 0 8 5.3.71.71 0 0 0 8 6.7Z" fill="url(#e)"/><path d="M11.85 5.29H10.3v6c0 1.02 1.02 1.38 1.54 1.42v-4h1.84V7.57h-1.84V5.3Z" fill="url(#f)"/><path d="M10 5h2.15v2.29H14V9h-1.85v4h-.33c-.3-.03-.75-.14-1.12-.4-.39-.27-.7-.7-.7-1.31V5Zm1.85 3.71h1.84V7.57h-1.84V5.3H10.3v6c0 .84.7 1.23 1.23 1.37.11.03.22.05.3.05v-4Z" fill="url(#g)"/><path d="M3 9.5c0-.28.28-.5.63-.5h10.74c.35 0 .63.22.63.5s-.28.5-.63.5H3.63C3.28 10 3 9.78 3 9.5Z" fill="url(#h)"/><defs><linearGradient id="a" x1="5" y1="11" x2="5" y2="13" gradientUnits="userSpaceOnUse"><stop stop-color="#A5A5A7"/><stop offset=".49" stop-color="#EEE1D7"/><stop offset="1" stop-color="#5E5E5E"/></linearGradient><linearGradient id="b" x1="8" y1="8.25" x2="8" y2="12.75" gradientUnits="userSpaceOnUse"><stop stop-color="#C0C1C3"/><stop offset=".51" stop-color="#8F9092"/><stop offset="1" stop-color="#BABABC"/></linearGradient><linearGradient id="c" x1="8" y1="8.25" x2="8" y2="12.75" gradientUnits="userSpaceOnUse"><stop stop-color="#E8E9EB"/><stop offset=".51" stop-color="#5E5E60"/><stop offset="1" stop-color="#5A5A55"/></linearGradient><linearGradient id="d" x1="8" y1="5.29" x2="8" y2="6.71" gradientUnits="userSpaceOnUse"><stop stop-color="#969799"/><stop offset="1" stop-color="#F4F4F6"/></linearGradient><linearGradient id="e" x1="8" y1="5.29" x2="8" y2="6.71" gradientUnits="userSpaceOnUse"><stop stop-color="#BABBBC"/><stop offset="1" stop-color="#151513"/></linearGradient><linearGradient id="f" x1="12" y1="5.29" x2="12" y2="12.71" gradientUnits="userSpaceOnUse"><stop stop-color="#FB001D"/><stop offset="1" stop-color="#D30118"/></linearGradient><linearGradient id="g" x1="12" y1="5.29" x2="12" y2="12.71" gradientUnits="userSpaceOnUse"><stop stop-color="#E8E9EB"/><stop offset="1" stop-color="#5A5A55"/></linearGradient><linearGradient id="h" x1="3" y1="9.5" x2="15" y2="9.5" gradientUnits="userSpaceOnUse"><stop stop-color="#A9A7A4"/><stop offset=".48" stop-color="#FFFEF6"/><stop offset="1" stop-color="#ADAEB0"/></linearGradient></defs></svg>