<!-- by TradingView --><svg width="18" height="18" viewBox="0 0 18 18" xmlns="http://www.w3.org/2000/svg"><path fill="#F0F3FA" d="M0 0h18v18H0z"/><path opacity=".5" d="M5.87 12.45c.43.32 1.16.86 3.48 1.02v.63A8.02 8.02 0 0 1 5.54 13l.33-.55h.01Zm4.19 1.03.37.44a12.8 12.8 0 0 0 2.23-.94l-.57-.47a9.1 9.1 0 0 1-2.03.97Z" fill="#2D3588"/><path fill-rule="evenodd" d="M9 14.5A5.4 5.4 0 0 0 14.5 9 5.4 5.4 0 0 0 9 3.5 5.4 5.4 0 0 0 3.5 9 5.4 5.4 0 0 0 9 14.5Zm0 .5A6 6 0 1 0 9 3a6 6 0 0 0 0 12Z" fill="#2D3588"/><circle cx="9" cy="9" r="4" fill="#2D3588"/><path d="M7.69 12.8A6.7 6.7 0 0 1 8.9 5.16c2.25 1.8 1.97 5.8 1.52 7.6a4.4 4.4 0 0 1-2.74.04Z" fill="#FF2638"/><path d="M8.04 12.85A3.95 3.95 0 0 1 8.9 8c1.6 1.15 1.4 3.7 1.08 4.85a3.2 3.2 0 0 1-1.94 0Z" fill="#EAEDF4"/><path d="M10.02 12.9c-.54.16-1.59.1-2.03.02.28-1.39.77-2.03 1.01-2.2.65.52.98 1.64 1.02 2.17Z" fill="#352E52"/></svg>