<!-- by TradingView --><svg width="18" height="18" viewBox="0 0 18 18" xmlns="http://www.w3.org/2000/svg"><path fill="#F0F3FA" d="M0 0h18v18H0z"/><path d="M9.23 4.04a.75.75 0 0 0-.48 0l-6.2 2.07c-.32.11-.55.52-.55 1v3.78c0 .47.23.88.55 1l6.22 2.07c.15.05.3.05.46 0l6-1.9c.34-.1.77-.48.77-.96V7.1c0-.47-.23-.88-.56-1l-6.2-2.07Zm-.45.54a.66.66 0 0 1 .42 0l5.87 1.9c.27.08.43.42.43.8v3.44c0 .4-.17.74-.44.82l-5.86 1.8a.66.66 0 0 1-.4 0l-5.78-1.87c-.26-.1-.52-.43-.52-.82V7.28c0-.38.26-.72.52-.81l5.76-1.9Zm-.13 3.14c0-.16.16-.22.16-.22H8.5c-.3 0-.73.03-1 .25-.1.1-.19.26-.19.43 0 .25.13.46.33.6l1.91 1.35s.12.07.12.18c0 .12-.12.19-.12.19s.61 0 1.12-.23c.18-.09.34-.26.34-.48 0-.23-.13-.38-.3-.5-.98-.67-1.94-1.39-1.94-1.39s-.11-.08-.11-.18Zm.43-.22 1.63 1.28V7.5H9.08ZM7.3 9.15v1.35h1.78L7.3 9.15ZM3 7.5h1.89L6 9.32v1.18H4V9.32L3 7.5Zm2.42 0 .83 1.25L7 7.5H5.42Zm6.08 0v3H15V9l-1.5 1.5v-3h-2Z" fill="#0188CD"/><path d="M15 7H3l6-2 6 2ZM15 11H3l6 2 6-2Z" fill="#0193DE" fill-opacity=".2"/></svg>