<!-- by TradingView --><svg width="18" height="18" viewBox="0 0 18 18" xmlns="http://www.w3.org/2000/svg"><path fill="#F0F3FA" d="M0 0h18v18H0z"/><path d="M4.93 14A5.65 5.65 0 0 1 3 9.76 5.89 5.89 0 0 1 9 4c3.31 0 6 2.58 6 5.76 0 1.68-.74 3.19-1.93 4.24l-.95-1c.9-.81 1.47-1.96 1.47-3.24A4.5 4.5 0 0 0 9 5.36a4.5 4.5 0 0 0-4.59 4.4c0 1.28.57 2.43 1.47 3.23L4.93 14Zm6.73-1.5-.6-.64c.57-.53.93-1.27.93-2.1A2.94 2.94 0 0 0 9 6.9c-1.65 0-3 1.29-3 2.87 0 .83.37 1.57.95 2.1l-.61.64A3.67 3.67 0 0 1 5.1 9.76 3.83 3.83 0 0 1 9 6.02c2.15 0 3.9 1.67 3.9 3.74 0 1.09-.48 2.06-1.24 2.74ZM7.3 11.48a2.32 2.32 0 0 1-.77-1.72c0-1.3 1.1-2.37 2.47-2.37a2.42 2.42 0 0 1 2.47 2.37c0 .68-.3 1.3-.77 1.72l-.5-.54c.35-.3.56-.75.56-1.24C10.76 8.76 9.97 8 9 8s-1.76.76-1.76 1.7c0 .49.21.93.57 1.24l-.51.54Z" fill="#1A1B1B"/><path fill="#1A1B1B" d="M4 9h10v2H4z"/><path d="M4 9.43h10v1.01H4V9.43Z" fill="#F0F3FA" fill-opacity=".5"/></svg>