<!-- by TradingView --><svg width="18" height="18" viewBox="0 0 18 18" xmlns="http://www.w3.org/2000/svg"><path fill="#F0F3FA" d="M0 0h18v18H0z"/><path fill-rule="evenodd" d="M12.54 12.54a5 5 0 1 0-7.07-7.08 5 5 0 0 0 7.07 7.08ZM8.32 5c.09-.17.14-.32.2-.49a.51.51 0 0 0-.28.02c-.63.2-1.15.5-1.59.98a5.05 5.05 0 0 0-1.22 2.47 5.32 5.32 0 0 0 .96 4.21c.44.56.92.9 1.6 1.2.17.07.37.12.6.14.23.02.47.03.73.01.23-.01.47-.07.7-.17a3.8 3.8 0 0 0 2.24-2.31c.25-.64.38-1.24.41-1.8a5.52 5.52 0 0 0-.56-2.64 4.23 4.23 0 0 0-1.42-1.66 2.94 2.94 0 0 0-1.94-.5c0 .12-.01.22-.05.31l-.08.27c-.04.28-.06.56-.05.82.02.66.16 1.32.4 1.96.1.27.33.81.68 1.62.25.58.38 1.12.4 1.61a3.5 3.5 0 0 1-.6 2.1c-.04.06-.07.15-.1.3a.11.11 0 0 1-.11.07h-.02c-.06 0-.08-.03-.06-.1l.07-.17c.03-.09.07-.18.09-.28.1-.72.07-1.37-.1-1.96a12 12 0 0 0-.34-1l-.55-1.4A6.04 6.04 0 0 1 7.95 7c-.07-.7.05-1.37.37-2.01Z" fill="#F49B4B"/><path d="M8.75 4.46c0 .12-.01.22-.05.31l-.08.27c-.04.28-.06.56-.05.82.02.66.16 1.32.4 1.96.1.27.33.81.68 1.62.25.58.38 1.12.4 1.61a3.5 3.5 0 0 1-.6 2.1c-.04.06-.07.15-.1.3a.11.11 0 0 1-.11.07h-.02c-.06 0-.08-.03-.06-.1.04-.14.13-.27.16-.45.1-.72.07-1.37-.1-1.96-.08-.29-.21-.67-.34-1l-.55-1.4A6.04 6.04 0 0 1 7.95 7c-.07-.7.05-1.37.37-2.01.09-.17.14-.32.2-.49a.27.27 0 0 1 .23-.05Z" fill="#1EAC31"/></svg>