<!-- by TradingView --><svg width="18" height="18" viewBox="0 0 18 18" xmlns="http://www.w3.org/2000/svg"><path fill="#E20612" d="M0 0h18v18H0z"/><path d="m5.78 6-2.57.02c-.12 0-.21.1-.21.22v.54c0 .12.1.22.22.22h2.56C5.9 7 6 6.88 6 6.76v-.54C6 6.1 5.9 6 5.78 6ZM4.8 8h-.6c-.1 0-.2.1-.2.22v3.56c0 .12.1.22.2.22h.6c.1 0 .2-.1.2-.22V8.22C5 8.1 4.9 8 4.8 8ZM12.79 7.52c-.04.3.03.52.23.62a.28.28 0 0 1 .14.18.3.3 0 0 1-.03.23l-.3.57c-.1.17-.22.2-.38.1-1.7-1.1-.67-3.78 1.18-3.12.62.23.99.68 1.1 1.38.03.1-.01.14-.1.16-.55.1-1-.01-1.38-.32a.28.28 0 0 0-.28-.04.29.29 0 0 0-.12.1.3.3 0 0 0-.06.14ZM14.2 11.67c-1.13.8-2.47.06-2.7-1.35-.02-.12.03-.19.15-.19h.75c.04 0 .08.02.12.04.04.02.07.06.09.1.27.52.6.65.96.4.36-.27.37-.63.02-1.1a.26.26 0 0 1-.03-.26l.28-.72c.05-.12.12-.14.23-.07 1.14.76 1.28 2.35.14 3.15ZM9.63 7.95c.06-.06.1-.13.12-.2a.47.47 0 0 0-.01-.25.43.43 0 0 0-.12-.2.38.38 0 0 0-.2-.1l-.64-.1c-.17-.02-.26-.13-.26-.31v-.42c0-.23.1-.35.31-.36 1.46-.1 2.1.58 1.92 2.03-.14 1.2-.87 1.61-2.18 1.24-.04 0-.05-.03-.05-.07v-.94a.1.1 0 0 1 .02-.06.09.09 0 0 1 .06-.03c.5.04.85-.04 1.03-.23ZM7.81 6.03h-.64c-.09 0-.16.09-.16.2v5.56c0 .11.06.2.15.2h.64c.1.01.16-.08.16-.2l.01-5.55c0-.12-.07-.21-.16-.21ZM9.77 11.75l-.46-1.6c-.02-.07 0-.13.07-.16l.72-.27a.25.25 0 0 1 .22.02.3.3 0 0 1 .08.08c.03.03.05.07.06.11l.53 1.85c.04.14 0 .21-.14.21h-.8c-.14 0-.24-.08-.28-.24Z" fill="#FEE11B"/></svg>