<!-- by TradingView --><svg width="18" height="18" viewBox="0 0 18 18" xmlns="http://www.w3.org/2000/svg"><path fill="#F0F3FA" d="M0 0h18v18H0z"/><path d="M12.95 4H4v10h10V4h-1.05Zm.05 9H7.41c.33-.1.65-.28.96-.42a9.79 9.79 0 0 0 1.94-1.15 8.02 8.02 0 0 0 1.82-2.06 5.91 5.91 0 0 0 .43-.88l.08-.21.03-.1.03-.1c.08-.25.14-.5.18-.76.03-.2.1-.39.12-.59V6.5 13Zm.12-6.81-.02.07v.02l-.02.02v.02l-.02.02a.18.18 0 0 0-.05-.03L13 6.3v.43c-.03.2-.17.38-.21.57a5.6 5.6 0 0 1-.23.72l-.04.1-.05.1-.09.19a5.27 5.27 0 0 1-.78 1.2 6.97 6.97 0 0 1-2.52 1.94 9.86 9.86 0 0 1-1.89.66 9.35 9.35 0 0 1-1.57.22l-.16.01H5.31l-.13.01H5V5h8v.13c.1 0 .2.55.2.65v.04l-.02.14a.8.8 0 0 1 .16.33s-.06-.07-.22-.1Zm-.21-1.02c.02-.03.09-.04.09-.04V6.3l-.12.01a.16.16 0 0 0-.05.03l-.01-.02-.01-.02-.01-.02v-.02l-.03-.07c-.16.03-.22.1-.22.1s.05-.2.17-.33a.82.82 0 0 1-.02-.15v-.02c0-.1.02-.18.04-.27.04-.12.1-.24.17-.34Z" fill="#2A00CA"/></svg>