<!-- by TradingView --><svg width="18" height="18" viewBox="0 0 18 18" xmlns="http://www.w3.org/2000/svg"><path fill="#F0F3FA" d="M0 0h18v18H0z"/><path d="M11.3 2.07c0 .82-.05 1.9-.38 2.53-.18.32-.4.6-.66.86-.2.17-.32.35-.4.52-.11.27-.15.25-.12-.04l.08-.58c.1-.62.3-1 .7-1.59a6.63 6.63 0 0 0 .62-1.44c.01-.12.04-.21.1-.29.04-.06.06-.05.06.03Z" fill="#FCCB0A"/><path d="M8 6.36c.04.07.07.06.07-.03.01-.76.23-1.38.72-1.87.3-.3.48-.51.61-.86.08-.21.11-.2.1.02a3.8 3.8 0 0 1-.35 1.5c-.08.14-.14.22-.19.26-.33.26-.61.6-.83.99a.33.33 0 0 1-.05.07.08.08 0 0 0-.02.08c.06.26.18.54.35.83.06.1.09.1.09-.03 0-.48.15-.76.46-1.07a1.93 1.93 0 0 0 .42-.66.03.03 0 0 1 .04 0l.01.03c.05.38-.05 1.1-.35 1.31-.22.16-.4.33-.53.54a.1.1 0 0 0 0 .1c.49 1.2.3 2.4-.1 3.6-.02.04-.03.04-.03-.01l.01-.45c.06-.8-.3-1.68-.68-2.39-.39-.73-.15-2.25.08-3.05.03-.09.04-.09.04.01 0 .2-.03.82.13 1.08Z" fill="#427842"/><path d="M11.4 5.2c0 .92-.46 1.68-1.12 2.16-.27.2-.49.4-.66.6-.13.17-.17.14-.12-.07.11-.44.26-.83.43-1.16.23-.45.65-.83.98-1.16.09-.09.23-.34.44-.75.01-.03.03-.04.06-.02l.02.02v.03l-.03.35Z" fill="#FCCB0A"/><path d="M6.63 14.58c-.1.04-.21.17-.36.42h-.01l-.01-.01v-.07c-.01-.03 0-.05 0-.07.36-.57.69-1.2.98-1.89.33-.77.12-1.13-.2-2-.17-.45-.3-.87-.41-1.24-.28-1.02.25-2.3.76-3.17h.02v.06a3 3 0 0 0-.01 2.08c.32.78.55 1.5.66 2.18.08.46.03.7-.15 1.2-.05.15-.14.35-.27.59-.35.68-.6 1.25-.75 1.73a.16.16 0 0 1-.05.08c-.06.04-.13.08-.2.1Z" fill="#427842"/><path d="M10.57 9.03c-.36.27-.85.37-1.18.69-.14.13-.18.1-.12-.1.1-.35.25-.66.46-.93.28-.37.67-.62 1.12-.96.3-.23.47-.44.68-.74.03-.05.04-.04.04.02-.05.9-.39 1.57-1 2.02ZM11.18 9.47c-.3.8-.72 1.38-1.46 1.58-.36.1-.7.27-.99.53-.03.02-.05.02-.07 0l-.01-.03v-.03c.25-.65.63-1.14 1.13-1.48.28-.19.68-.32.98-.44.07-.02.21-.13.43-.32.02-.02.04-.02.05-.02l.03.01.01.01v.02a.05.05 0 0 1 0 .03 2.42 2.42 0 0 1-.1.14Z" fill="#FCCB0A"/><path d="m12.84 10.93-1.16.19-.06-.01a.1.1 0 0 1-.04-.05 1.65 1.65 0 0 0-.52-.7.1.1 0 0 1-.04-.06l.01-.08.36-.72c.02-.03.04-.04.07-.03.62.3 1.1.73 1.44 1.3.05.1.03.15-.06.16ZM6.4 9.99c.02-.01.03 0 .04.02l.33.94v.1a4.3 4.3 0 0 1-.16.38c-.24.55-.05 1.12.3 1.55l.02.08-.01.07-.39.78c0 .02-.02.04-.04.04h-.05c-.37-.21-.86-.56-1.1-.9-.67-1-.28-1.94.5-2.62L6.4 10Z" fill="#F68220"/><path d="m10.16 11.55.58-.42c.07-.06.1-.04.07.06a2.6 2.6 0 0 1-1.28 1.66c-.15.09-.4.15-.74.2a5.32 5.32 0 0 0-.95.2l-.03-.02-.01-.03a.08.08 0 0 1 0-.06c.38-.64.97-1.19 1.56-1.32.39-.09.65-.18.8-.27Z" fill="#FCCB0A"/><path d="M7.55 13.6c.05-.1.1-.11.19-.07.62.34 1.52.3 2.2.19a3 3 0 0 0 2.02-1.3.13.13 0 0 1 .09-.05l.9-.14h.02l.02.03a.06.06 0 0 1 0 .05c-.17.25-.4.52-.68.8a4.83 4.83 0 0 1-3.79 1.41 8.86 8.86 0 0 1-1.17-.2c-.1-.02-.12-.08-.07-.17l.27-.55Z" fill="#F68220"/></svg>