<!-- by TradingView --><svg width="18" height="18" viewBox="0 0 18 18" xmlns="http://www.w3.org/2000/svg"><path fill="url(#a02unbg5v)" d="M0 0h18v18H0z"/><path fill-rule="evenodd" d="M9 14A5 5 0 1 0 9 4a5 5 0 0 0 0 10Zm0-7.5a.47.47 0 1 0 0-.94.47.47 0 0 0 0 .94Zm-.84.95L9 6.5l.84.95a.87.87 0 0 0-.54.8.89.89 0 0 0 1.06.86.47.47 0 1 1 .08.03c.17.17.4.28.66.28.5 0 .9-.4.9-.88 0-.24-.1-.46-.27-.62l1.02-.4-.75 3.36H6l-.75-3.36 1 .42a.86.86 0 0 0-.25.6c0 .48.4.88.9.88.26 0 .5-.1.66-.28a.47.47 0 1 1 .08-.03l.16.02c.5 0 .9-.4.9-.88a.87.87 0 0 0-.54-.8ZM9 10.56l-.63-.62L9 9.3l.63.63-.63.62Zm-3.13.63v.94h6.25v-.94H5.88Z" fill="url(#b02unbg5v)"/><defs><linearGradient id="a02unbg5v" x1="3.35" y1="3.12" x2="21.9" y2="24.43" gradientUnits="userSpaceOnUse"><stop stop-color="#1A1E21"/><stop offset="1" stop-color="#06060A"/></linearGradient><linearGradient id="b02unbg5v" x1="4" y1="7.78" x2="13.52" y2="10.92" gradientUnits="userSpaceOnUse"><stop stop-color="#DBDBDB"/><stop offset="1" stop-color="#B1B1B1"/></linearGradient></defs></svg>