<!-- by TradingView --><svg width="18" height="18" viewBox="0 0 18 18" xmlns="http://www.w3.org/2000/svg"><path fill="#F0F3FA" d="M0 0h18v18H0z"/><path d="M14.02 11.23a.36.36 0 0 1-.2-.15.29.29 0 0 0-.07-.1 4.24 4.24 0 0 0-1.77-.71 23.61 23.61 0 0 0-4.28-.48.1.1 0 0 1-.03-.03.1.1 0 0 1-.01-.04L7.5 8.7l-.1-.67-.04-.3c.02-.1 0-.2-.04-.3l-.47-3.34c0-.05.02-.08.08-.08 1.43-.03 2.87.01 4.32.12.59.05 1.2.16 1.82.35.98.3 1.06 1.35.84 2.15-.11.42.74 1.2.92 1.4.17.19.2.39.1.6a.18.18 0 0 1-.08.1l-.61.32a.17.17 0 0 0-.06.06.16.16 0 0 0-.01.16c0 .02.03.05.05.06.13.1.22.2.25.34 0 .04 0 .08-.02.12a.63.63 0 0 1-.32.24.07.07 0 0 0-.03.02.06.06 0 0 0 .02.1l.28.17a.1.1 0 0 1 .03.04.1.1 0 0 1-.02.12c-.2.18-.34.43-.4.75ZM8.17 4.78c.03 0 .07 0 .1-.04a.26.26 0 0 0 .07-.2.2.2 0 0 0-.02-.06.13.13 0 0 0-.03-.04.1.1 0 0 0-.04-.03c-.04 0-.07.01-.1.04a.26.26 0 0 0-.07.2l.01.06.04.05a.1.1 0 0 0 .04.02Zm.37-.2a.5.5 0 0 0 0 .1c.01.05.04.08.1.08h.03c.05 0 .08-.02.1-.07a.36.36 0 0 0 .01-.1v-.1c-.02-.05-.04-.07-.1-.08h-.03c-.05 0-.08.02-.1.06a.53.53 0 0 0-.01.1Zm.53.18a.1.1 0 0 0 .05-.01c.02 0 .04-.02.05-.03a.2.2 0 0 0 .04-.05.25.25 0 0 0 .02-.07c.01-.04 0-.1-.01-.13-.02-.03-.04-.06-.08-.06a.1.1 0 0 0-.05 0 .14.14 0 0 0-.04.03.2.2 0 0 0-.04.05.25.25 0 0 0-.02.07v.13c.02.04.05.06.08.07Zm.6-.3v-.02l-.03-.02c-.11-.05-.18.02-.2.2-.02.1.02.14.1.15a.2.2 0 0 0 .08-.03.11.11 0 0 0 .04-.04.1.1 0 0 0 .02-.06v-.18Zm.32.32h.05l.04-.04a.21.21 0 0 0 .04-.05.27.27 0 0 0 .02-.14.2.2 0 0 0-.02-.06.13.13 0 0 0-.03-.05.08.08 0 0 0-.05-.02l-.04.01a.13.13 0 0 0-.05.03.21.21 0 0 0-.03.06.27.27 0 0 0-.02.14c0 .02 0 .04.02.06 0 .02.02.03.03.04l.04.02Zm-2.22.02a.1.1 0 0 0 .05-.01.13.13 0 0 0 .04-.04.2.2 0 0 0 .03-.06.25.25 0 0 0-.04-.2c-.02-.04-.06-.05-.09-.05a.1.1 0 0 0-.05.01.13.13 0 0 0-.04.04.2.2 0 0 0-.02.06.25.25 0 0 0 .03.2c.03.03.06.05.1.05Zm2.66 0c.03.01.07 0 .1-.03a.23.23 0 0 0 .07-.11.22.22 0 0 0 0-.14c-.02-.03-.05-.06-.08-.07-.04 0-.07 0-.1.04a.23.23 0 0 0-.07.11.22.22 0 0 0 0 .13c.02.04.04.07.08.07Zm-3.1.04.04-.02c.02 0 .03-.02.04-.04a.2.2 0 0 0 .02-.06.25.25 0 0 0-.03-.19.13.13 0 0 0-.04-.04.09.09 0 0 0-.05 0h-.04a.13.13 0 0 0-.04.05.2.2 0 0 0-.02.05.25.25 0 0 0 .03.2l.04.03.05.02Zm3.57 0h.05l.04-.03a.2.2 0 0 0 .04-.05.24.24 0 0 0 .02-.07l-.01-.12c-.02-.04-.04-.06-.07-.06a.1.1 0 0 0-.05 0 .13.13 0 0 0-.05.03.2.2 0 0 0-.03.05.24.24 0 0 0-.03.06l.01.13c.02.03.05.06.08.06Zm.44.06a.1.1 0 0 0 .05 0l.05-.03a.22.22 0 0 0 .04-.05.28.28 0 0 0 .04-.14.2.2 0 0 0-.01-.07.13.13 0 0 0-.03-.05.09.09 0 0 0-.04-.02.1.1 0 0 0-.05 0 .14.14 0 0 0-.05.03.22.22 0 0 0-.04.05.28.28 0 0 0-.04.14.2.2 0 0 0 0 .07l.03.04c.02.02.03.03.05.03Zm.63-.18c0-.06-.03-.09-.09-.08-.13.01-.2.08-.18.2.03.16.11.18.26.03l.01-.15Zm.27.33c.03.02.07.01.1-.01a.25.25 0 0 0 .1-.12.26.26 0 0 0 .01-.07.2.2 0 0 0 0-.06.13.13 0 0 0-.02-.05.09.09 0 0 0-.04-.04c-.03 0-.07 0-.1.02a.27.27 0 0 0-.1.18.2.2 0 0 0-.02.07c0 .02.02.04.03.05 0 .02.02.03.04.03Zm.47.1a.1.1 0 0 0 .05.01c.02 0 .04 0 .06-.02a.22.22 0 0 0 .05-.05.27.27 0 0 0 .05-.13.2.2 0 0 0 0-.06.13.13 0 0 0-.03-.05.09.09 0 0 0-.09-.03.14.14 0 0 0-.05.02.22.22 0 0 0-.05.04.27.27 0 0 0-.05.13.2.2 0 0 0 0 .07l.02.05.04.03Zm.42-.06-.03.07c0 .04 0 .07.04.1.1.07.18.03.23-.1.05-.12.01-.19-.11-.2-.05 0-.08.02-.1.06l-.03.07ZM7.98 9.55c.04 0 .07-.01.1-.04a.23.23 0 0 0 .06-.12c0-.05 0-.1-.02-.14-.02-.03-.04-.06-.08-.06-.03 0-.07 0-.1.04a.23.23 0 0 0-.05.12c-.01.05 0 .1.01.13.02.04.05.06.08.07Zm.44 0a.1.1 0 0 0 .05-.01c.02 0 .04-.02.05-.04a.2.2 0 0 0 .03-.05.25.25 0 0 0 .02-.13.2.2 0 0 0-.01-.06.13.13 0 0 0-.04-.05.09.09 0 0 0-.1-.01.14.14 0 0 0-.04.03.2.2 0 0 0-.03.06.25.25 0 0 0-.02.13c0 .02 0 .04.02.06 0 .02.02.03.03.05l.04.01Zm.37-.2v.12c0 .02.01.04.03.05l.05.03h.07l.05-.04a.27.27 0 0 0 .03-.12v-.12a.1.1 0 0 0-.04-.05.12.12 0 0 0-.12-.01.1.1 0 0 0-.04.04.36.36 0 0 0-.03.1Zm.52.24a.1.1 0 0 0 .05 0c.02 0 .04-.02.05-.03a.22.22 0 0 0 .05-.06.27.27 0 0 0 .02-.06.24.24 0 0 0 0-.14c-.01-.04-.04-.07-.08-.08a.1.1 0 0 0-.05 0 .15.15 0 0 0-.05.04.22.22 0 0 0-.04.05.27.27 0 0 0-.03.07.24.24 0 0 0 0 .14c.02.04.05.06.08.07Zm.64-.23-.01-.06a.1.1 0 0 0-.07-.04l-.06-.01a.1.1 0 0 0-.07.02.1.1 0 0 0-.04.05l-.03.18c0 .02 0 .04.02.06a.1.1 0 0 0 .06.04l.06.01a.1.1 0 0 0 .07-.02.1.1 0 0 0 .04-.06l.03-.17Zm.28.3h.06a.13.13 0 0 0 .09-.05.11.11 0 0 0 .03-.1c-.03-.12-.06-.18-.11-.2-.05 0-.11.05-.18.15a.11.11 0 0 0 .01.14l.04.03.06.02Zm.43.05a.1.1 0 0 0 .06 0c.01 0 .03 0 .05-.02a.2.2 0 0 0 .05-.05.25.25 0 0 0 .04-.13v-.07a.13.13 0 0 0-.04-.05.1.1 0 0 0-.1-.03.15.15 0 0 0-.05.03.2.2 0 0 0-.05.05.25.25 0 0 0-.04.13v.07l.04.05a.1.1 0 0 0 .04.02Zm.47.07h.08a.25.25 0 0 0 .1-.13.24.24 0 0 0-.01-.16c-.02-.02-.04-.04-.09-.05l-.1.01a.25.25 0 0 0-.08.14c-.01.06 0 .11.02.16l.08.03Zm.65-.17a.04.04 0 0 0-.02-.04c-.08-.06-.15-.05-.22.03a.26.26 0 0 0-.04.07.2.2 0 0 0-.02.08c0 .02 0 .04.02.07 0 .02.02.03.04.05.02.01.06 0 .1-.02.05-.01.07-.03.08-.06l.06-.18Zm.23.35c.03.02.07.01.1-.01a.22.22 0 0 0 .1-.1.2.2 0 0 0 0-.13.12.12 0 0 0-.06-.08.13.13 0 0 0-.11.01.22.22 0 0 0-.09.1.2.2 0 0 0-.01.13c.01.04.03.07.07.08Zm.7-.05a.1.1 0 0 0-.03-.12.11.11 0 0 0-.04-.02l-.05-.02a.12.12 0 0 0-.12.03.1.1 0 0 0-.02.04l-.06.13a.1.1 0 0 0 .03.11l.04.03.05.01a.12.12 0 0 0 .09 0l.03-.02a.1.1 0 0 0 .02-.04l.06-.13Zm.16.31a.1.1 0 0 0 .05.02H13l.06-.04a.27.27 0 0 0 .09-.12.2.2 0 0 0 .01-.06v-.06a.1.1 0 0 0-.04-.04.1.1 0 0 0-.05-.02l-.07.01a.22.22 0 0 0-.06.03.27.27 0 0 0-.09.12.2.2 0 0 0-.01.06l.01.06c0 .02.02.03.03.04Zm.46.18.06.02h.06l.06-.03a.25.25 0 0 0 .1-.11l.01-.06-.01-.06a.1.1 0 0 0-.09-.07h-.06a.24.24 0 0 0-.16.14l-.01.06v.06l.04.05Zm.7.13a.14.14 0 0 0-.05-.1.17.17 0 0 0-.11-.05.17.17 0 0 0-.12.04.14.14 0 0 0-.04.1c0 .05.01.08.04.11s.07.05.12.05c.04 0 .08-.02.1-.05a.14.14 0 0 0 .06-.1Z" fill="#F15A25"/><path d="M7.33 7.43c.04.1.05.2.04.3-.07-.01-.15 0-.22.03-.05.01-.06.04-.05.08l.05.17c0 .05.04.07.09.08.06 0 .11-.02.17-.06l.1.67a.85.85 0 0 0-.4.5c-.02.03-.03.03-.04 0l-.03-.11c-.01-.05-.04-.06-.08-.03-.42.25-.68.6-.78 1.06 0 .02 0 .02-.03.02-.01 0-.02-.01-.02-.03v-.18c-.02-.05-.05-.06-.1-.02-.38.41-.6.89-.67 1.42 0 .04-.02.04-.04 0a.38.38 0 0 1-.04-.13c.05-.23 0-.25-.13-.04-.15.22-.37.8-.26 1.1.02.04.02.08.02.12-.01.06-.03.07-.05.01a.43.43 0 0 1-.04-.13c0-.05-.03-.06-.08-.04-.03 0-.05.03-.07.08-.08.2-.1.44-.04.72.01.06 0 .1-.04.12-.03.02-.05.01-.05-.02s-.01-.04-.04-.04-.04.02-.03.05l.22.8s0 .02-.02.02l-.04.01-.03-.01L3 8.17a.05.05 0 0 1 0-.04l.03-.02h.02l4.28-.68Zm-.5.43a.06.06 0 0 0-.03-.04.07.07 0 0 0-.04 0l-.15.02a.07.07 0 0 0-.04.03v.05l.04.21c0 .02.02.03.03.04l.05.01.14-.03c.02 0 .03-.01.04-.03.01 0 .02-.03.01-.04l-.05-.22Zm-.51.1v-.02l-.02-.02a.06.06 0 0 0-.05-.01l-.15.01a.07.07 0 0 0-.04.02.06.06 0 0 0-.01.04l.02.23v.03l.02.01a.06.06 0 0 0 .05.02l.15-.02a.07.07 0 0 0 .04-.02.06.06 0 0 0 .01-.04l-.02-.23Zm-.54.1a.06.06 0 0 0-.02-.03.07.07 0 0 0-.05-.01l-.15.02a.07.07 0 0 0-.04.02.06.06 0 0 0-.01.05l.03.2c0 .02.02.03.03.04l.05.02.14-.03c.02 0 .04 0 .05-.02a.06.06 0 0 0 0-.05l-.03-.2Zm-.54.02L5 8.13a.06.06 0 0 0-.03.03l-.01.04.06.2c.01.06.05.08.1.06l.1-.02c.06-.01.08-.05.06-.1a.5.5 0 0 1-.02-.24c0-.02-.01-.03-.03-.02Zm-.6.47.06-.02a.15.15 0 0 0 .04-.05.2.2 0 0 0 .01-.07.23.23 0 0 0-.08-.2.14.14 0 0 0-.12-.02.12.12 0 0 0-.05.02.15.15 0 0 0-.04.05.2.2 0 0 0-.02.07.23.23 0 0 0 .09.2c.03.02.08.03.11.02Zm-.46-.2a.1.1 0 0 0-.01-.03.1.1 0 0 0-.1-.04l-.08.02a.1.1 0 0 0-.06.04.09.09 0 0 0-.01.07l.03.16.02.04.03.02a.1.1 0 0 0 .07.02l.07-.02a.1.1 0 0 0 .07-.04.09.09 0 0 0 .01-.07l-.04-.16Zm-.53.1a.07.07 0 0 0-.03-.05.08.08 0 0 0-.05-.01l-.12.01a.07.07 0 0 0-.05.03.07.07 0 0 0-.02.05l.03.2c0 .02.01.03.03.05h.18a.07.07 0 0 0 .04-.03.07.07 0 0 0 .02-.05l-.03-.2ZM7.96 9.81c1.35.04 2.7.19 4.02.46.65.13 1.3.35 1.77.71a.3.3 0 0 1 .08.1c.04.06.1.12.19.15a.99.99 0 0 1-.37.74 6.6 6.6 0 0 1-2.53 1.05c-1.79.45-3.85.77-6.2.98-.06 0-.08-.02-.06-.08a25.4 25.4 0 0 1 2.52-4.49v.03a27.75 27.75 0 0 0-2.36 4.37c-.03.07 0 .1.07.07a2.1 2.1 0 0 0 .82-.4l-.02-.05c-.02-.02-.03-.02-.05 0a.2.2 0 0 1-.16.03c-.05 0-.06-.02 0-.05.38-.16.67-.38.85-.64.1-.14.07-.17-.1-.09a.62.62 0 0 1-.17.06c-.09.02-.1 0-.02-.04a2.6 2.6 0 0 0 1-1.23c.03-.04.01-.06-.04-.06a.65.65 0 0 0-.2.07l-.04-.01v-.04c.44-.28.73-.67.86-1.16.02-.06 0-.08-.07-.05l-.15.09h-.03l-.02-.05v-.01c.18-.12.32-.27.41-.46Zm5.51 1.42a.4.4 0 0 0 .16.04c.04 0 .07-.02.07-.06 0-.1-.04-.16-.11-.2-.07-.03-.15-.02-.23.04-.04.02-.04.05-.02.09l.13.09Zm-.28.15c-.05.05 0 .14.15.25.03.03.07.03.1 0 .02 0 .04-.01.05-.03a.16.16 0 0 0 .03-.04c.01-.04 0-.08-.03-.1-.15-.11-.25-.14-.3-.08Zm-.05.55a.1.1 0 0 0 .04-.03l.01-.06a.2.2 0 0 0 0-.06.25.25 0 0 0-.13-.17.15.15 0 0 0-.06-.01.1.1 0 0 0-.09.05l-.02.05a.2.2 0 0 0 0 .06.25.25 0 0 0 .08.13l.06.04.06.01a.1.1 0 0 0 .05 0Zm-.46-.07a.08.08 0 0 0-.05-.04h-.06l-.1.05a.08.08 0 0 0-.05.05v.05l.09.18.04.04h.06l.11-.05c.02-.01.04-.03.04-.05v-.05l-.08-.18Zm-.48.24a.09.09 0 0 0-.04-.05.1.1 0 0 0-.07 0l-.1.02a.1.1 0 0 0-.06.04.08.08 0 0 0 0 .07l.04.16c0 .02.02.04.05.05a.1.1 0 0 0 .07 0l.1-.02a.1.1 0 0 0 .05-.04.08.08 0 0 0 .01-.07l-.05-.16Zm-.57.14-.01-.02h-.03l-.2.07-.01.01-.01.01v.03l.1.25.03.02h.02l.2-.07a.04.04 0 0 0 .02-.02v-.02l-.1-.26Zm-.51.23a.1.1 0 0 0-.02-.03.1.1 0 0 0-.07-.04h-.05l-.07.02a.11.11 0 0 0-.03.02.1.1 0 0 0-.04.07.1.1 0 0 0 0 .04l.04.14.02.03.03.03a.11.11 0 0 0 .08 0h.07a.11.11 0 0 0 .07-.06.1.1 0 0 0 .01-.08l-.04-.14Zm-.54.4a.05.05 0 0 0 .03-.02.04.04 0 0 0 0-.04l-.05-.2c-.02-.06-.06-.08-.12-.06l-.13.03c-.04 0-.06.03-.05.07l.05.18c.02.06.06.09.14.07l.13-.03Zm-.6-.15a.06.06 0 0 0-.04-.04.07.07 0 0 0-.05 0l-.16.05a.06.06 0 0 0-.04.03v.04l.07.2.01.03a.06.06 0 0 0 .05.02h.02l.16-.06c.02 0 .03-.01.04-.03v-.04l-.07-.2Zm-.55.17a.1.1 0 0 0-.04-.07.1.1 0 0 0-.08-.01l-.1.01a.1.1 0 0 0-.06.04.1.1 0 0 0-.02.07l.02.17c0 .02.02.04.05.06a.1.1 0 0 0 .07.02l.1-.02a.1.1 0 0 0 .07-.04.1.1 0 0 0 .02-.07l-.03-.16Zm-.61.06a.06.06 0 0 0-.03-.03.07.07 0 0 0-.05 0l-.16.03a.06.06 0 0 0-.04.03v.04l.06.23.03.03h.05l.16-.03c.02 0 .03-.02.04-.03v-.05l-.06-.22Zm-.55.15a.08.08 0 0 0-.03-.06.09.09 0 0 0-.06-.01h-.13a.08.08 0 0 0-.06.03.07.07 0 0 0-.02.06l.02.19c0 .02.01.04.03.05.02.02.04.02.06.02l.13-.01c.03 0 .05-.01.06-.03a.07.07 0 0 0 .02-.05l-.02-.2Zm-.6.1a.1.1 0 0 0-.05-.06.1.1 0 0 0-.07 0l-.1.02a.1.1 0 0 0-.07.04.08.08 0 0 0 0 .07l.04.16c0 .02.03.04.05.05a.1.1 0 0 0 .07.01l.1-.03a.1.1 0 0 0 .06-.04.08.08 0 0 0 .01-.07l-.05-.16Zm-.57.07a.06.06 0 0 0-.03-.04.07.07 0 0 0-.05 0l-.17.02a.07.07 0 0 0-.04.02.06.06 0 0 0-.02.05l.04.2c0 .02.01.03.03.04l.05.02.17-.03c.02 0 .03-.01.04-.03a.06.06 0 0 0 .02-.05l-.04-.2Zm-.6.1a.1.1 0 0 0-.05-.06.1.1 0 0 0-.07 0l-.11.02a.1.1 0 0 0-.06.04.09.09 0 0 0-.01.07l.04.16.02.04a.1.1 0 0 0 .07.03.1.1 0 0 0 .04 0l.1-.03a.1.1 0 0 0 .06-.04.09.09 0 0 0 .01-.07l-.04-.16Z" fill="#0170BF"/></svg>