<!-- by TradingView --><svg width="18" height="18" viewBox="0 0 18 18" xmlns="http://www.w3.org/2000/svg"><path fill="#F0F3FA" d="M0 0h18v18H0z"/><path d="M8.57 8.1a.05.05 0 0 1-.01.03.04.04 0 0 1-.03.02c-.76-.02-1.55-.1-2.05.55-.1.13-.16.25-.2.38-.13.47-.24.77-.38 1.24-.89.25-1.71.32-2.58-.07a4.88 4.88 0 0 1-1.23-.85c-.12-.8-.17-1.58.17-2.34A3.31 3.31 0 0 1 4.96 5c1.8-.15 3.27 1.14 3.6 3.09Zm-3.45.88.9-.01.05-.02a.08.08 0 0 0 .02-.04c.11-.4.34-.7.68-.9.06-.03.06-.04-.02-.05H5.64l.39-.05c.02 0 .03-.02.02-.04-.2-.65-.54-1.41-1.3-1.43-.49-.02-.9.28-1.07.76-.18.53.06 1.03.48 1.36.31.25.63.4.96.42Z" fill="#0366B2"/><path d="M5.64 7.95c-.33.02-.87-.06-.94.43-.04.3.1.5.42.6a1.77 1.77 0 0 1-.96-.42c-.42-.33-.66-.83-.48-1.36.16-.48.58-.78 1.07-.76.75.02 1.1.78 1.3 1.43 0 .02.03.12 0 .13l-.41-.05Z" fill="#0190D2"/><path d="m5.64 7.95 1.11.02c.08 0 .08.01.02.05-.34.19-.57.48-.68.89l-.02.04a.07.07 0 0 1-.05.02h-.9c-.32-.09-.46-.3-.41-.6.06-.48.6-.4.93-.42Z" fill="#FBD10F"/><path d="M12.05 12h-.43l1.1-3.97c.01-.02.03-.03.05-.03h1.1l.03.01.02.04.34 2.17c.01.07.03.07.04 0l.6-2.18.03-.03h1.05l.01.01a.05.05 0 0 1 0 .04l-1.05 3.87a.1.1 0 0 1-.04.05.08.08 0 0 1-.05.02h-1.13c-.01 0-.03 0-.04-.02a.07.07 0 0 1-.02-.04l-.32-2.06c-.02-.1-.04-.1-.06 0l-.22.85c-.13.46-.22.73-.27.8-.15.24-.4.4-.74.46ZM10.78 12h-.44l.5-1.78a.03.03 0 0 0 0-.03.02.02 0 0 0-.02 0H9.54c-.02 0-.03 0-.04.03l-.32 1.1c-.08.28-.47.68-.8.68h-.46l1.1-3.97.02-.02.03-.01h1l.02.01v.02l-.37 1.38c-.01.03 0 .05.03.05h1.27c.02 0 .04-.02.04-.04l.38-1.37c0-.01 0-.03.02-.04h1.05a.02.02 0 0 1 .02.01v.01l-.94 3.29c-.13.45-.65.68-.8.68Z" fill="#233E99"/><path d="M8.6 8.9a3.6 3.6 0 0 1-1.95 2.74c-.1.05-.11.03-.04-.06.04-.06.1-.15.12-.23l.65-2.17c.07-.22.24-.33.53-.33h.66c.03 0 .04.02.04.05ZM5.9 10.32l-.46 1.57-.03.03A3.35 3.35 0 0 1 2.1 9.4c.46.4.87.7 1.23.85.87.39 1.7.32 2.58.07Z" fill="#18479E"/></svg>