<!-- by TradingView --><svg width="18" height="18" viewBox="0 0 18 18" fill="none" xmlns="http://www.w3.org/2000/svg">
<rect width="18" height="18" fill="#FFB21A"/>
<path d="M8 12C7 12 6 11.5 6 10V5H5L5 10C5 12 6 13 8 13V12Z" fill="#F0F3FA"/>
<path d="M12.9992 12.9999H12V8.00001C12 6.49994 11.2857 5.99994 10.1429 5.99994C9 5.99994 8 6.49994 8 8.00001V15H7V8.00001C7 6.19994 7.97915 4.99994 10.1437 4.99994C12.3082 4.99994 13 6.19994 13 8.00001L12.9992 12.9999Z" fill="url(#paint0_linear_5099_144940)"/>
<path d="M11 10V3H10V10C10 11.5 8.75 12 8 12V13C10 13 11 12 11 10Z" fill="#F0F3FA"/>
<defs>
<linearGradient id="paint0_linear_5099_144940" x1="10" y1="4.99994" x2="10" y2="15" gradientUnits="userSpaceOnUse">
<stop stop-color="#181B1E"/>
<stop offset="1" stop-color="#181B1E"/>
</linearGradient>
</defs>
</svg>
