<!-- by TradingView --><svg width="18" height="18" viewBox="0 0 18 18" xmlns="http://www.w3.org/2000/svg"><path fill="#F0F3FA" d="M0 0h18v18H0z"/><path d="M8.83 4h.37a4.99 4.99 0 0 1 4.41 6.84c-.5.12-.92.06-1.37-.24-.45-.3-.95-.6-1.48-.68-.08-.01-.08-.03 0-.06a1.6 1.6 0 0 0 .31-2.85 1.59 1.59 0 0 0-2.31.7c-.45.97.16 2.03 1.21 2.22a.02.02 0 0 1 0 .03.98.98 0 0 0-.52.68c-.06.28 0 .6.01.89 0 .2-.04.2-.14.04l-.74-1.18c-.28-.45-.69-.92-1.23-.96-.71-.04-.89.63-.8 1.2a6.84 6.84 0 0 1 .06 1.09.11.11 0 0 1-.16.03 2.58 2.58 0 0 1-.72-.81l-.95-1.58c-.04-.06-.05-.06-.04.01 0 .06.02.12.04.18.02.05.01.06-.03.02-.1-.1-.15-.2-.15-.3 0-.05-.02-.06-.06-.02h-.02a.07.07 0 0 1-.04-.03c-.13-.2-.22-.43-.29-.67l-.02-.01h-.03l-.01.03c.34 1.1.85 2.13 1.53 3.08.2.28.53.58.9.58.47 0 .6-.47.56-.88a5.73 5.73 0 0 1-.01-1.28h.04s.02 0 .02.02c.01.4.05.8.12 1.2.04.25.02.61-.14.82-.48.64-1.2.23-1.62-.24-.57-.68-.99-1.49-1.42-2.28-.15-.25-.11-.6-.09-.88A5 5 0 0 1 8.82 4Z" fill="#E60012"/><path d="M7.63 11.88a.72.72 0 0 1-.13.34c-.39.49-.84.64-1.35.46-.1-.03-.2-.09-.33-.18-.15-.1-.28-.16-.4-.3-.24-.27-.4-.47-.48-.6l-.7-1.17c-.07-.11-.1-.25-.12-.36-.03-.17-.02-.17.06-.02.34.73.76 1.41 1.25 2.05.12.15.32.3.49.4.43.25.84.24 1.24-.03.2-.14.41-.5.38-.77v-.33c0-.06.02-.06.05-.01l.02.01c.02.01.02.02.02.04v.47Z" fill="#E60012"/><path d="m7.55 10.95.03-.02a.02.02 0 0 1 .01-.01h.01v.01l.64 1.2c.32.6.86.98 1.53.84.67-.15 1.02-.83.99-1.48a.07.07 0 0 1 .03-.06.07.07 0 0 1 .07 0c.58.36 1.13.78 1.79.92h.02a.04.04 0 0 1 .01.05l-.01.02a5.02 5.02 0 0 1-8.3-1.58l.02-.01h.01c.4.74.87 1.52 1.64 1.88.25.12.6.19.86.08.7-.28 1.05-.92.65-1.84Z" fill="#005BAC"/></svg>