<!-- by TradingView --><svg width="18" height="18" viewBox="0 0 18 18" xmlns="http://www.w3.org/2000/svg"><path fill="#F0F3FA" d="M0 0h18v18H0z"/><path d="M8.95 5.87c-1.43-.02-2.82.2-4.2.64-.3.1-.66.26-1.1.49-.56.29-.97.64-1.23 1.06a1.34 1.34 0 0 0-.03 1.55c.26.4.66.76 1.2 1.07.45.26.97.47 1.54.63 2.05.58 4.19.68 6.41.31.78-.13 1.54-.35 2.3-.67a3.73 3.73 0 0 0 1.7-1.25c.44-.64.38-1.3-.2-1.95-.19-.22-.47-.44-.85-.66a8.3 8.3 0 0 0-3-1c-.05-.02-.06-.04-.03-.1l.03-.05a.06.06 0 0 1 .06-.03c.3.05.75.15 1.33.31.67.2 1.26.44 1.76.75.64.4 1.06.84 1.26 1.35.18.49.12.96-.2 1.44-.25.39-.64.73-1.15 1.02-.76.43-1.67.75-2.74.96a15.4 15.4 0 0 1-4.1.21 11.7 11.7 0 0 1-3.58-.82c-.42-.17-.8-.39-1.14-.65-.41-.31-.69-.63-.84-.96-.26-.58-.19-1.15.22-1.7.32-.42.8-.8 1.45-1.1A10.4 10.4 0 0 1 7 5.82c.8-.1 1.5-.13 2.07-.11a3 3 0 0 0 .7-.08c.43-.1.87-.12 1.33-.08.14.02.27 0 .38-.06L12.6 5c.02 0 .03 0 .04.03.02.07.05.14.1.2.03 0 .02.02 0 .03-.73.34-1.18.54-1.33.58-1.36.44-2.63.84-3.8 1.2-.1.03-.1.06.01.07.19.03.41.04.67.04.04 0 .07-.02.09-.04l.1-.1c.01-.02.02-.01.02.02v.05c0 .04.02.06.06.06.22.03.45.02.67-.04.03-.01.05-.03.07-.06l.08-.14c.02-.03.04-.03.04.01l.01.1c0 .02.02.04.05.04.3 0 .6-.04.9-.11.35-.1.65-.27.89-.53a.1.1 0 0 1 .08-.03c1.05.16 1.97.45 2.78.87.47.24.82.53 1.05.87.29.42.33.84.12 1.26-.15.3-.41.59-.8.85-.32.22-.68.4-1.08.55-1.05.38-2.2.62-3.43.7-1.15.08-2.32.02-3.49-.18a9.6 9.6 0 0 1-2.43-.74c-.67-.3-1.13-.7-1.38-1.19-.2-.39-.17-.78.08-1.19.2-.32.51-.6.92-.83a9.8 9.8 0 0 1 4.52-1.13c.14 0 .28-.04.4-.12l.35-.2c.04-.02.04-.03-.01-.03Zm.66-.04.1-.01c.06-.02.06-.04-.01-.04a.13.13 0 0 0-.1.04v.01Zm-.32.08c-.03.01-.03.02 0 .01a.4.4 0 0 0 .13-.03c.03-.02.03-.02 0-.02a.19.19 0 0 0-.12.04Zm-.15.1c.04 0 .06-.01.08-.03.04-.04.04-.05-.02-.03L9.14 6c-.05.03-.04.03 0 .02Zm-.13.04a.25.25 0 0 0-.08.04c-.05.03-.04.04.01.03l.08-.04c.05-.03.05-.04-.01-.03Zm-.24.12a.9.9 0 0 0-.06.04c-.07.03-.06.04.01.03l.07-.04c.04-.05.03-.05-.02-.03Zm-.18.14c.02 0 .02-.01 0-.02-.03-.01-.06 0-.1.04-.02.03-.02.03.02.02l.08-.04Zm-3.07 3.1v.92c0 .03.01.05.05.05h.36c.03 0 .05-.02.05-.06v-.58l.01-.02.4-.34c.03-.02.04-.01.04.02v.08c-.02.32-.01.54.02.69.07.25.22.32.45.18.25-.14.42-.28.53-.43.02-.03.01-.04-.02-.02l-.43.18a.1.1 0 0 1-.1-.01.1.1 0 0 1-.05-.1V8.95c0-.05.02-.09.05-.12l.21-.21c.03-.03.03-.06.01-.1a9.54 9.54 0 0 1-.13-.22c-.01-.04 0-.05.03-.05h1.33c.05 0 .06-.02.04-.06l-.05-.11c-.01-.04-.04-.06-.09-.04-.15.06-.35.08-.59.05-.03 0-.04-.02-.04-.05V7.6c0-.04-.02-.05-.06-.03l-.48.2c-.03.01-.04.04-.03.07l.05.1a.1.1 0 0 1 0 .1.1.1 0 0 1-.09.04h-.61c-.06 0-.07.02-.05.07l.02.06c.02.04.05.05.09.04a.82.82 0 0 1 .33-.04c.03 0 .04.02.03.05-.25.48-.5.91-.77 1.29-.04.05-.06.04-.06-.02v-.88c0-.03.01-.07.03-.1l.3-.52c.01-.02.01-.05-.01-.07l-.38-.32-.03.01c-.3 1-.7 1.77-1.21 2.33-.06.07-.05.08.02.03.23-.14.49-.35.78-.62.03-.03.05-.03.05.02Zm4.72-1.12c-.3.48-.55.87-.76 1.16-.04.05-.06.04-.06-.02v-.77c0-.04 0-.07.03-.1l.3-.53v-.05l-.4-.33a5.64 5.64 0 0 1-.97 2.04c-.12.16-.1.19.07.07.18-.14.34-.27.46-.4.03-.04.05-.03.05.02v.37c0 .05-.02.1-.06.12-.33.25-.58.28-.73.09-.08-.1-.17-.23-.28-.41-.03-.04-.02-.07.01-.1l.46-.37c.03-.03.03-.06 0-.09l-.23-.27c-.02-.03-.04-.03-.05 0-.05.17-.16.33-.32.49-.03.03-.05.02-.07-.01l-.14-.34a.1.1 0 0 0-.1-.06h-.37c-.06 0-.07.02-.04.07l.68 1.08c.13.2.25.32.35.36.23.1.51 0 .83-.3.04-.04.06-.03.06.02v.31c0 .03.01.05.04.05h.37c.04 0 .06-.02.06-.06V9.63l.41-.34c.03-.01.04-.01.03.02v.58c0 .22.04.37.12.47.07.09.15.1.25.05.27-.13.48-.3.64-.49.02-.03.01-.03-.02-.02l-.42.18a.11.11 0 0 1-.1-.01.1.1 0 0 1-.06-.1V8.92c0-.03.01-.06.04-.08l.22-.23c.03-.03.04-.07 0-.11l-.13-.2c-.03-.04-.02-.06.03-.06h1.36c.03 0 .04-.01.03-.04l-.07-.15c0-.02-.02-.02-.04-.01a1.6 1.6 0 0 1-.63.04c-.03 0-.05-.02-.05-.05v-.42c0-.04-.01-.05-.05-.04l-.49.21c-.03.01-.04.04-.02.07.04.07.05.13.03.2a.07.07 0 0 1-.07.04h-.62c-.06 0-.07.02-.05.07l.02.05c.01.04.04.05.09.04a1 1 0 0 1 .32-.03c.05 0 .06.03.04.07Zm.9.92L11 8.87a.08.08 0 0 0-.08-.05h-.38c-.05 0-.07.02-.04.07l.75 1.19c.15.24.35.33.6.26.23-.05.41-.2.54-.42.07-.1.05-.12-.04-.04a.82.82 0 0 1-.37.21.36.36 0 0 1-.33-.09 1.6 1.6 0 0 1-.25-.33l-.06-.1c-.02-.04-.02-.06 0-.09l.47-.38c.03-.03.03-.06 0-.09l-.22-.27c-.03-.03-.05-.03-.06.01-.05.16-.15.32-.31.47-.04.03-.06.03-.08-.01Z" fill="#202A7B"/></svg>