<!-- by TradingView --><svg width="18" height="18" viewBox="0 0 18 18" xmlns="http://www.w3.org/2000/svg"><path fill="#F0F3FA" d="M0 0h18v18H0z"/><path d="M9 11.33v.45c0 .11.09.22.2.22.12 0 .16-.11.16-.22v-.45c0-.27.44-.72.78-.94.35-.21 1.36-1.4 1.36-2.49 0-.88-.54-1.5-.81-1.7.05.77-.59 1.27-1.18 1.73-.47.37-.54.7-.52.81-.48-.78 1.46-1.84 1.46-3.46 0-1.3-1.05-2.06-1.57-2.28.07.12.16.5 0 1.07-.21.7-2.38 1.57-2.38 3.27s1 2.8 1.62 3.16c.5.3.88.62.88.83Z" fill="#EC5F02"/><path d="M9.78 11.4c1.28.12 2.22.51 2.22.97 0 .56-1.34 1-3 1s-3-.44-3-1c0-.49 1.06-.9 2.47-.98L8.4 11c-2.48.09-4.4.72-4.4 1.5 0 .83 2.24 1.5 5 1.5s5-.67 5-1.5c0-.75-1.77-1.36-4.11-1.49l-.11.4Z" fill="#018E9F"/></svg>