<!-- by TradingView --><svg width="18" height="18" viewBox="0 0 18 18" xmlns="http://www.w3.org/2000/svg"><path fill="#F0F3FA" d="M0 0h18v18H0z"/><path d="M3 9.08h.94c.04.02.07.02.1 0 .07.03.16.03.26 0h.66c.02.46.05.75.1.88.08.18.11.4.19.57l.24.48c.19.35.44.65.76.93a3.84 3.84 0 0 0 1.79.94c.14.07.27.1.39.05.03 0 .05 0 .09.02.34.08.65.08.93.02.42-.06.7-.12.85-.2.62-.27 1.1-.7 1.46-1.26.02-.04.02-.06-.01-.07.02-.02.03-.05.02-.08l.02.05a.03.03 0 0 0 .03 0h.01l.01-.01a6.02 6.02 0 0 0 .49-2.31l.03-.09c.02-.15.02-.3.02-.48a22.17 22.17 0 0 0-.05-1.79l-.1-1.06c0-.03-.02-.04-.04-.04h-.66a.03.03 0 0 1-.01-.03V5.6l.95-1.36.9-1.22h.05L16 5.61l-.98-.01a.04.04 0 0 0-.03 0v.02l.01.01V9.1a7.3 7.3 0 0 1-.25 1.82 5.3 5.3 0 0 1-2.15 3.05c-.57.4-1.22.69-1.94.86-.94.23-1.91.24-2.9.02A6.02 6.02 0 0 1 3 9.08Z" fill="#CC0001"/><path d="m12.47 4.23-.95 1.36a.03.03 0 0 0 0 .03.03.03 0 0 0 .03.01h.64c.02 0 .03.01.03.04l.11 1.06a.24.24 0 0 1-.12-.1l-.05-.08a4.1 4.1 0 0 0-5.92-.4 3.89 3.89 0 0 0-1.28 2.93H3a5.92 5.92 0 0 1 5.25-5.87 6.03 6.03 0 0 1 4.22 1.02Z" fill="#09F"/><path d="M8.72 5.08c-.2.06-.42.1-.63.13-.16.03-.26.1-.4.13-.06.01-.16.05-.29.1a4.1 4.1 0 0 0-1.15.76c-.03 0-.05.02-.06.05 0 .02-.02.03-.03.05a4 4 0 0 0-1.1 2.14c-.04.3-.04.72 0 1.24.02.17.07.26.1.41l.09.31c.18.47.44.95.8 1.31.08.07.14.15.2.23a3.35 3.35 0 0 1-1-1.41c-.08-.17-.11-.39-.19-.57a3.89 3.89 0 0 1 1.18-3.8 4 4 0 0 1 2.48-1.08Z" fill="#fff"/><path d="m12.33 6.73-.01.06-.54-.6a.07.07 0 0 0-.08 0l-.96.54c-.02.01-.03.03-.02.05.24.69.36 1.41.36 2.18 0 .02.01.04.04.04h1.24l-.03.09h-1.2c-.02 0-.04.02-.04.04l-.06.62c0-.06-.02-.09-.04-.1l.01-.52v-.01a.04.04 0 0 0-.02-.03h-.02l-.34-.01-.05-.02a.17.17 0 0 1-.02-.06h.4c.03 0 .05-.02.04-.05a7.29 7.29 0 0 0-.38-2.17.04.04 0 0 0-.03 0c-.3.16-.64.26-.99.32l.05-.11c.33-.07.64-.17.92-.3.02-.01.02-.03.02-.04-.24-.54-.75-1.5-1.46-1.46-.03 0-.04.01-.04.04l-.01.37h-.08l-.02-.36c0-.03-.01-.04-.04-.04-.42-.04-.83.36-1.05.7-.02-.02-.05-.03-.1-.02.15-.25.33-.45.56-.58.06-.04.05-.05-.02-.04a4 4 0 0 0-1.97 1.01.04.04 0 0 0 .02.03l.89.5a.05.05 0 0 0 .07-.02l.3-.64.05.08-.26.58c0 .02 0 .04.02.05.42.18.88.26 1.4.22-.05.1-.1.15-.16.14a4.56 4.56 0 0 1-1.27-.25c-.02-.01-.04 0-.05.02-.2.64-.3 1.3-.3 1.97 0 .03.02.05.05.05h1.82c.03 0 .04-.02.04-.04l.01-1.11c.03 0 .06.03.08.07l.01 1.03c0 .03.02.05.05.05h.85l.04.09h-.9c-.02 0-.03.02-.03.04v1.12c0 .03 0 .04.03.04.35.02.68.07 1 .15v.08h-.02l-.05.01a3.73 3.73 0 0 0-.89-.15c-.05 0-.08.02-.08.08v.92h-.1v-.96a.04.04 0 0 0-.01-.03h-.02l-.01-.01a4.08 4.08 0 0 0-1.64.42v.04c.12.51.33.97.61 1.4a1.65 1.65 0 0 0 1.03.7.06.06 0 0 0 .05-.06v-.37h.1v.37a.05.05 0 0 0 .01.04l.02.01h.03c.35-.07.64-.25.87-.53.21-.24.38-.52.5-.83.01-.04.06-.06.13-.08a2.7 2.7 0 0 1-1.19 1.48c-.28.06-.6.06-.93-.02-.01-.04-.03-.06-.05-.08-.69-.38-1.1-1.26-1.27-2 0-.03-.02-.03-.04-.02l-.3.16-.03-.06.3-.2a.05.05 0 0 0 .02-.05 8.9 8.9 0 0 1-.19-1.57c0-.02-.01-.03-.04-.04h-.67V9h.67c.03 0 .04-.02.04-.04a7.58 7.58 0 0 1 .3-2.05 4.38 4.38 0 0 1-1-.56h-.02a3.8 3.8 0 0 0-1.13 2.61c0 .03.02.04.04.04h1.1v.1h-1.1c-.03 0-.04 0-.04.03a3.87 3.87 0 0 0 .93 2.42.05.05 0 0 0 .04 0l.35-.32.4-.28.03.06c-.16.09-.25.17-.29.27l-.41.32a.07.07 0 0 0 0 .1 3.85 3.85 0 0 0 1.9 1.12l.37.11c-.12.04-.25.02-.4-.05a.57.57 0 0 0-.16-.06l-.15-.03a3.84 3.84 0 0 1-1.47-.85 1.82 1.82 0 0 0-.2-.23 3.83 3.83 0 0 1-.89-1.62c-.03-.15-.08-.24-.1-.4a5.27 5.27 0 0 1 0-1.25 4 4 0 0 1 1.13-2.2c0-.02.03-.04.06-.04l.04-.02a4.1 4.1 0 0 1 1.4-.84c.14-.04.24-.1.4-.13.21-.03.43-.07.63-.13a4.1 4.1 0 0 1 3.5 1.56c.01.03.05.07.11.1Z" fill="#019623"/><path d="M9.64 6.99c.22-.24.45-.43.69-.58.06-.04.05-.07-.02-.08l-.36-.03a.2.2 0 0 1-.13-.07.19.19 0 0 1-.05-.12v-.35c0-.02 0-.03-.03-.03h-.35a.1.1 0 0 1-.06-.02.49.49 0 0 0-.26-.1v-.38c0-.03.02-.04.05-.04.7-.05 1.22.92 1.46 1.46 0 .01 0 .03-.02.03-.28.14-.6.24-.92.3ZM8.99 5.6h-.07a.1.1 0 0 0-.06.03l-.28.24a.08.08 0 0 1-.06.02h-.64c.22-.33.63-.73 1.05-.7.03.01.04.02.04.05l.02.36Z" fill="#fff"/><path d="M9.7 5.22c.7.13 1.32.4 1.86.8.06.05.06.1 0 .13l-.87.49a.02.02 0 0 1-.02 0l-.01-.01a2.8 2.8 0 0 0-1.02-1.39c-.03-.02-.02-.03.02-.03h.03ZM7.79 5.88l-.13.03c-.03 0-.04.02-.04.05v.18l-.29.64a.05.05 0 0 1-.03.03.05.05 0 0 1-.04 0l-.9-.51a.04.04 0 0 1-.01-.03.04.04 0 0 1 .01-.03 4 4 0 0 1 1.96-.98c.07-.01.08 0 .02.04-.23.13-.41.33-.55.58Z" fill="#fff"/><path d="M8.99 5.6h.08c.1.01.18.05.26.1a.1.1 0 0 0 .06.03h.35c.02 0 .03.01.03.03v.35a.19.19 0 0 0 .18.19l.36.03c.07.01.08.04.02.08a3.7 3.7 0 0 0-.69.58l-.05.1a.92.92 0 0 0-.23.32c-.15.27-.06.35.16.5.12.1.22.2.3.3l.23.33c.13.15.27.3.42.44a.1.1 0 0 0 .08.02l.02.06.02.04c.17.14.29.3.36.5 0 .02 0 .03.02.04l.02.02c.02 0 .04.03.04.09a10.92 10.92 0 0 0 0 1.18l-.16.37-.05.05-.18.14c-.07.02-.12.04-.14.08l-.6.06h-.03a.07.07 0 0 0-.03.03c-.08.15-.1.27-.25.37-.2.14-.4.22-.51.49-.02-.01-.05-.02-.1 0a.37.37 0 0 0-.18-.02.07.07 0 0 1-.07-.03.07.07 0 0 1 0-.07l.23-.39a.13.13 0 0 0-.01-.15.14.14 0 0 0-.14-.05l-.15.03c-.12.03-.15 0-.08-.1.1-.13.23-.25.4-.36h.09c.04.02.1.03.18.01.02 0 .03-.02.03-.04v-.2a.12.12 0 0 1 .05-.1.12.12 0 0 1 .1-.02l.14.04c.03 0 .04 0 .04-.03v-.1c0-.03.01-.05.04-.05l.36-.1c.14-.03.17-.13.1-.27v-.08c.02.03.02.02.02-.01 0-.35 0-.7.02-1.06 0-.08-.04-.18-.14-.28L9.97 9l-.91-1.08c-.02-.04-.05-.06-.08-.07.01-.1-.01-.16-.08-.19a5.64 5.64 0 0 1-.46-.27.07.07 0 0 1 .04-.1l.2-.08c.06 0 .11-.04.16-.14a.77.77 0 0 0-.4-.36c-.15-.08-.3-.05-.46-.05-.03 0-.05-.01-.06-.04-.06-.15-.14-.29-.24-.4l-.05-.08v-.18c0-.03 0-.04.03-.05l.13-.03.09.01h.64c.02 0 .04 0 .06-.02l.28-.24a.1.1 0 0 1 .06-.03H9Z" fill="#CC0001"/><path d="M12.32 6.79A22.22 22.22 0 0 1 12.36 9h-1.24c-.03 0-.04-.02-.04-.04 0-.77-.12-1.5-.36-2.18 0-.02 0-.04.02-.05l.96-.55a.07.07 0 0 1 .08.02l.54.59ZM5.15 9c-.02 0-.04-.01-.04-.04 0-.06 0-.15.02-.27a3.8 3.8 0 0 1 1.14-2.34h.03a4.38 4.38 0 0 0 .96.56v.04c-.18.64-.28 1.3-.3 2 0 .03-.01.04-.04.04L5.15 9Z" fill="#fff"/><path d="M10.55 9a.1.1 0 0 1-.08-.02 6.45 6.45 0 0 1-.42-.44l-.24-.33c-.07-.1-.17-.2-.29-.3-.22-.15-.31-.23-.16-.5.1-.17.17-.27.23-.31a3.34 3.34 0 0 0 1.02-.32.04.04 0 0 1 .02.02c.23.7.35 1.41.36 2.15 0 .03 0 .04-.03.04l-.41.01ZM8.68 7.21l-.2.08a.07.07 0 0 0-.05.06.07.07 0 0 0 .04.07c.15.1.3.17.43.24.07.03.1.1.08.19v1.11c0 .02-.02.04-.05.04H7.11c-.03 0-.04-.02-.04-.05 0-.67.1-1.33.3-1.97 0-.02.02-.03.04-.02.41.14.84.23 1.27.25ZM6.92 9.1c.03 0 .04 0 .04.03.02.54.08 1.06.19 1.57 0 .02 0 .04-.02.05-.45.3-.6.4-1.05.8h-.02a.05.05 0 0 1-.04 0L6 11.54c-.57-.7-.87-1.51-.9-2.4 0-.03.02-.04.04-.04.7-.03 1-.04 1.78 0ZM7.1 9.09h1.86l.01.03v1.15c0 .02 0 .03-.03.03a3.9 3.9 0 0 0-1.65.38c-.02 0-.04 0-.04-.02-.13-.5-.19-1.01-.18-1.54 0-.02.01-.03.04-.03ZM10.01 9.09c.1.1.14.2.14.28a32.11 32.11 0 0 0-.04 1.07 4.47 4.47 0 0 0-1-.15c-.02 0-.03-.01-.03-.04V9.13c0-.02 0-.04.03-.04h.9ZM10.62 9.08h.34a.05.05 0 0 1 .04.04v.01l-.01.53-.02-.02a.09.09 0 0 1-.02-.04c-.07-.2-.2-.36-.36-.5l.03-.02ZM12.33 9.09c0-.02 0-.02.01 0l.01.02a6.02 6.02 0 0 1-.53 2.3h-.02a3.62 3.62 0 0 0-.76-.6l-.01-.02c-.02-.35-.02-.7 0-1.04l.06-.62c0-.02.02-.03.04-.03l1.2-.01Z" fill="#fff"/><path d="M8.98 11.38c-.17.11-.3.23-.4.36-.07.1-.04.13.08.1l.15-.03a.14.14 0 0 1 .14.05.13.13 0 0 1 0 .15l-.22.39a.07.07 0 0 0 .03.1h.04c.06-.01.12-.01.19.01l-.01.37a.06.06 0 0 1-.07.05c-.42-.1-.75-.33-1-.7a4.16 4.16 0 0 1-.62-1.43l.04-.04a4.07 4.07 0 0 1 1.63-.37.04.04 0 0 1 .01.03v.96ZM10.12 10.52c.06.14.03.24-.11.28a6 6 0 0 1-.36.09c-.03 0-.04.02-.04.04v.1c0 .03-.01.04-.04.04l-.14-.04a.12.12 0 0 0-.1.02.12.12 0 0 0-.05.1v.2c0 .02-.01.04-.03.04-.08.02-.14.01-.18-.01v-.92c0-.06.03-.08.08-.08a3.72 3.72 0 0 1 .94.15l.03-.01Z" fill="#fff"/><path d="M8.52 12.95a.22.22 0 0 0-.1-.02 2.54 2.54 0 0 0-.36-.1 1.61 1.61 0 0 1-.29-.08 3.85 3.85 0 0 1-1.63-1.07.07.07 0 0 1 .02-.08c.56-.53.35-.4 1-.75.02-.01.04 0 .04.02.18.74.58 1.62 1.27 2 .02.02.04.04.05.08Z" fill="#fff"/><path d="M11.05 10.84c.27.15.5.32.72.52.01.03 0 .06-.02.08l-.72-.51c0-.04 0-.07.02-.09Z" fill="#019623"/><path d="m11.03 10.93.72.51c.03.01.03.03.01.07-.36.57-.84 1-1.46 1.27-.15.07-.43.13-.85.19l.29-.2c.42-.29.73-.8.9-1.28l.18-.14a.13.13 0 0 0 .05-.05l.16-.37Z" fill="#fff"/><path d="M10.5 11.57c-.11.3-.28.59-.49.83a1.5 1.5 0 0 1-.9.53.05.05 0 0 1-.03-.05v-.36c.1-.27.31-.35.5-.49.16-.1.18-.21.26-.37a.07.07 0 0 1 .06-.03l.6-.06Z" fill="#fff"/></svg>