<!-- by TradingView --><svg width="18" height="18" viewBox="0 0 18 18" xmlns="http://www.w3.org/2000/svg"><path fill="#F0F3FA" d="M0 0h18v18H0z"/><path d="M11 9.54v1.39c0 .04.03.07.06.07h2.84c.05 0 .1 0 .1.07v.85c0 .02 0 .04-.02.05a.06.06 0 0 1-.04.03h-3.88c-.02 0-.03 0-.04-.02a.08.08 0 0 1-.02-.05V6.06l.02-.03.02-.01.02-.02h3.88c.02 0 .03 0 .04.02l.02.05v.8c0 .05-.06.13-.1.13H11.1c-.03 0-.09.04-.09.08v1.36c0 .04.03.07.06.07h2.5l.05.02.01.06v.77c0 .05 0 .11-.06.11h-2.5c-.03 0-.06.04-.06.07Z" fill="#003C7D"/><path d="M6 7H4.07l-.05-.02A.08.08 0 0 1 4 6.92v-.84c0-.02 0-.04.02-.06A.06.06 0 0 1 4.07 6H8.96l.02.02.02.03v.88l-.02.03-.02.02-.02.02H7v5H6V7Z" fill="#EB6D01"/></svg>