<!-- by TradingView --><svg width="18" height="18" viewBox="0 0 18 18" xmlns="http://www.w3.org/2000/svg"><path fill="#2C4794" d="M0 0h18v18H0z"/><path d="m4.37 7.63.9-.68a.4.4 0 0 1 .36-.06c.14.05.24.16.25.3l.08.98-1.59-.54ZM4.71 12H3.47c-.32 0-.54-.28-.45-.55l1.14-3.4 1.73.53L4.7 12Z" fill="url(#a5iynq0za)"/><path d="m7.29 6.68.9-.68a.4.4 0 0 1 .36-.06c.14.04.23.16.24.29l.1.99-1.6-.54ZM7.26 12H6.02c-.31 0-.54-.28-.45-.55L7.08 7.1l1.72.53L7.26 12Z" fill="url(#b5iynq0za)"/><path d="m10.23 5.76.9-.68a.4.4 0 0 1 .35-.06c.14.04.24.16.25.29l.09.99-1.6-.54ZM9.86 12H8.62c-.32 0-.54-.28-.45-.55l1.8-5.26 1.72.52L9.86 12Z" fill="url(#c5iynq0za)"/><path d="m11.82 8.06.9-.68a.4.4 0 0 1 .36-.05c.13.04.23.15.24.29l.09.98-1.6-.54Zm.47 3.94h-1.24c-.32 0-.54-.28-.45-.55l1-2.94 1.73.53L12.29 12Z" fill="url(#d5iynq0za)"/><path d="m13.41 10.31.9-.68a.4.4 0 0 1 .36-.05c.14.04.23.15.24.29l.1.98-1.6-.54ZM14.66 12h-1.24c-.32 0-.55-.28-.45-.55l.27-.74 1.72.52-.3.77Z" fill="url(#e5iynq0za)"/><defs><linearGradient id="a5iynq0za" x1="3.76" y1="9.71" x2="4.19" y2="9.83" gradientUnits="userSpaceOnUse"><stop offset=".44" stop-color="#D7D7D8"/><stop offset="1" stop-color="#fff"/></linearGradient><linearGradient id="b5iynq0za" x1="6.38" y1="9.55" x2="6.99" y2="9.79" gradientUnits="userSpaceOnUse"><stop offset=".26" stop-color="#CECECF"/><stop offset=".62" stop-color="#fff"/></linearGradient><linearGradient id="c5iynq0za" x1="9.31" y1="8.74" x2="9.78" y2="8.91" gradientUnits="userSpaceOnUse"><stop offset=".38" stop-color="#DDDDDE"/><stop offset=".77" stop-color="#fff"/></linearGradient><linearGradient id="d5iynq0za" x1="11.37" y1="9.65" x2="11.82" y2="9.81" gradientUnits="userSpaceOnUse"><stop offset=".26" stop-color="#D1D1D2"/><stop offset=".8" stop-color="#fff"/></linearGradient><linearGradient id="e5iynq0za" x1="13.34" y1="10.95" x2="13.76" y2="11.07" gradientUnits="userSpaceOnUse"><stop offset=".49" stop-color="#DBDBDC"/><stop offset="1" stop-color="#fff"/></linearGradient></defs></svg>