<!-- by TradingView --><svg width="18" height="18" viewBox="0 0 18 18" xmlns="http://www.w3.org/2000/svg"><path fill="#061556" d="M0 0h18v18H0z"/><path d="M3 6v2.02A2.71 2.71 0 0 1 4.78 6H3ZM5 6h1.54v5.1c0 .39.37.9.73.9h-3c.37 0 .73-.51.73-.9V6ZM11.34 6H8.38c.9.03.63 1.16.38 1.72A4.5 4.5 0 0 1 11.34 6ZM7.54 9.28l.94-1.15c1.21 1.88 2.28 3.51 2.98 3.87h-.7a2.46 2.46 0 0 1-1.93-.83c-.21-.25-.4-.53-.58-.79-.26-.37-.55-.82-.71-1.1ZM13.46 8.9c0 2.44-.83 3-1.26 3.1A2.96 2.96 0 0 0 15 8.9 2.95 2.95 0 0 0 12.19 6c.36.03 1.27.44 1.27 2.9Z" fill="#fff"/></svg>