<!-- by TradingView --><svg width="18" height="18" viewBox="0 0 18 18" xmlns="http://www.w3.org/2000/svg"><path fill="#F0F3FA" d="M0 0h18v18H0z"/><path d="M11.35 5.34c-.32.03-.66.1-1.03.19-.96.25-1.93.57-2.92.95-.05.02-.06 0-.05-.04.23-.64.54-1.25.92-1.83.05-.08.15-.11.32-.11.8.02 1.68.23 2.4.56.1.05.22.13.37.25.02.02.02.03-.01.03ZM4.13 8.1a4.81 4.81 0 0 1 3.5-3.44c.09-.02.1 0 .06.07a9.28 9.28 0 0 0-.83 1.77.65.65 0 0 1-.1.2.49.49 0 0 1-.18.11 15.32 15.32 0 0 0-2.41 1.32c-.04 0-.05 0-.04-.04Z" fill="#F9AB52"/><path d="M12.52 6.21c-.03.01-.03.03-.01.06a4.22 4.22 0 0 1 .88 2.08c.15.96-.08 2.25-.66 3.07a4.95 4.95 0 0 1-3.77 2.06c-.17.02-1.2.06-1.26-.09-.13-.3-.24-.6-.33-.91-.26-.95-.42-1.9-.48-2.86a7.5 7.5 0 0 1 .18-2.25c.03-.12.11-.2.25-.26.92-.36 1.82-.67 2.7-.93a19.7 19.7 0 0 1 3.65-.7c.37-.04.7-.01 1 .08.07.02.14.06.2.11.08.07.12.13.13.2.05.5-.9.86-1.3 1.05l-.4.2a.06.06 0 0 1-.07 0c-.02-.01-.02-.03-.02-.05a11.5 11.5 0 0 0 .55-.66.08.08 0 0 0 .01-.08c-.02-.1-.09-.16-.2-.19a1.6 1.6 0 0 0-1.05.07Z" fill="#002C55"/><path d="M4.4 8.5c.68-.43 1.4-.79 2.15-1.07.04-.01.05 0 .04.04a8.35 8.35 0 0 0 .23 4.6c.13.4.31.76.53 1.1.08.12.05.16-.1.11l-.51-.19a4.49 4.49 0 0 1-1.75-1.3c-.47-.6-1.58-2.7-.6-3.3Z" fill="#002C55"/></svg>