<!-- by TradingView --><svg width="18" height="18" viewBox="0 0 18 18" xmlns="http://www.w3.org/2000/svg"><path fill="#F0F3FA" d="M0 0h18v18H0z"/><path d="M4.4 5c1.71 0 3.34-.05 3.37 1.83a22 22 0 0 1-.17 3.05.13.13 0 0 0 .08.08h1.7c.8 0 1.24-.22 1.45-1 .35-1.35-1.07-2.03-1.95-2.53C8.2 6.05 8.26 5 9.09 5h4.85c.06 0 .07.06.06.1l-.63 3.85c-.01.05-.04.05-.1.05H11.12a.08.08 0 0 0-.02.05c-.2 1.26-.28 4.9-1.94 4.95H7.21c-.05 0-.07-.04-.07-.09.12-1.2.23-2.4.31-3.6.06-1.44-2.38-1.28-3.4-1.28-.03 0-.05-.02-.05-.06l.31-3.87c0-.04.04-.1.09-.1Z" fill="#1D79B0"/></svg>