<!-- by TradingView --><svg width="18" height="18" viewBox="0 0 18 18" xmlns="http://www.w3.org/2000/svg"><path fill="#F0F3FA" d="M0 0h18v18H0z"/><path d="M8.97 4h.1c.1.03.17.08.2.16.15.29-.25.53-.48.3-.15-.18-.04-.4.18-.46ZM7.11 4.87c.16 0 .3-.12.3-.27 0-.15-.14-.27-.3-.27-.16 0-.29.12-.29.27 0 .15.13.27.3.27ZM10.88 4.87c.16 0 .3-.12.3-.27 0-.15-.13-.27-.3-.27-.16 0-.29.12-.29.27 0 .15.13.27.3.27Z" fill="#44B4C1"/><path d="M7.26 6.05a.07.07 0 0 0-.04.03v.05c.07.24.2.44.4.57.04.04.1.05.17.03a3.22 3.22 0 0 1 3.22.51v.04c-.12.22-.28.38-.49.5-.07.04-.14.03-.21-.01-.63-.36-1.36-.54-2.02-.22l-.02.04c0 .05.02.11.05.17a7.83 7.83 0 0 1 .8 4.61c-.01.03-.03.05-.07.05h-.17c-.05 0-.07-.02-.07-.07a8.14 8.14 0 0 0-3.13-6.37.1.1 0 0 1 0-.06c.16-.41.9-.74 1.32-.88a5.38 5.38 0 0 1 5.34.8c.04.04.05.1.02.15-.12.25-.32.43-.59.55-.07.03-.15 0-.2-.04a4.36 4.36 0 0 0-4.31-.45Z" fill="#44B4C1"/><path d="M5.67 5.68c.16 0 .29-.12.29-.28 0-.15-.13-.27-.3-.27-.15 0-.28.12-.28.27 0 .16.13.28.29.28ZM12.38 5.68c.16 0 .29-.12.29-.27 0-.16-.13-.28-.3-.28-.15 0-.28.12-.28.28 0 .15.13.27.29.27ZM8.53 14h-.14c-.12-.03-.3-.07-.32-.21a6.39 6.39 0 0 0-.87-3.04 4.98 4.98 0 0 0-3.12-2.13c-.04-.01-.07-.05-.08-.1v-.14a5 5 0 0 1 .8-1.7c.12-.17.36-.5.57-.53h.04l.05.04a8.61 8.61 0 0 1 3.08 5.56c.1.73.1 1.46.05 2.2 0 .02-.03.04-.06.05ZM14 8.39v.13c-.02.05-.04.09-.09.1a4.9 4.9 0 0 0-3.31 2.5 6.72 6.72 0 0 0-.67 2.67c-.01.14-.22.19-.33.21h-.13l-.03-.02a9.96 9.96 0 0 1 .22-3.3 8.75 8.75 0 0 1 2.89-4.5c.04-.04.1-.04.15-.01.1.05.17.11.25.2A5.55 5.55 0 0 1 14 8.39ZM8.99 13.96c.16 0 .29-.12.29-.27 0-.15-.13-.27-.3-.27-.15 0-.28.12-.28.27 0 .15.13.27.29.27Z" fill="#44B4C1"/></svg>