<!-- by TradingView --><svg width="18" height="18" viewBox="0 0 18 18" xmlns="http://www.w3.org/2000/svg"><path fill="#F0F3FA" d="M0 0h18v18H0z"/><path fill-rule="evenodd" d="M9.4 14c3.16 0 4-2.02 4.03-3.02 0-.66-.35-.8-.6-.8-.2 0-.34.1-.39.14.07-.21.2-.72.2-1.06 0-.41-.12-.59-.28-.59-.13 0-.33.03-.36.05V6h-1v.5h.5v1.38c-.09-.06-.19-.1-.24-.08-.05.03-.25.09-.42.13l-.17.05v-.43c.16-.07.61-.36.77-.49-.35.02-.7-.17-.77-.27v-.25l.11-.12c0-.05-.07-.16-.23-.16-.21 0-.3.1-.3.16 0 .04.11.1.17.12v.8a.81.81 0 0 0-.04.02c-.07.04-.19.12-.45.19-.14.04-.3.04-.43.03V6.5h.5V6H9v6h1v-.5h-.5v-.48a4 4 0 0 0 .79-.77c.12-.14.21-.25.26-.28.12-.1.15-.06.16-.03v1.38c0 .12-.06.17-.11.21a.33.33 0 0 0-.05.05c-.05.06.1.28.28.28.1 0 .14-.09.17-.18V12h1V8.96c0-.04.18-.06.22-.07.22 0 .24.18.22.5-.01.33-.11.85-.22 1.02-.1.18.09.33.2.21.08-.1.25-.16.33-.17.42 0 .45.4.45.6 0 1.73-2.54 2.28-3.8 2.32-4.54 0-5.77-2.5-5.77-4.48 0-1.98 1.63-4.27 5.6-4.27 3.98 0 5.14 3.15 5.14 4.38a4.3 4.3 0 0 1-.4 2c-.05.09-.08.17-.04.16.02 0 .02-.01.02-.02l.04-.01c.05.03 0 .09-.08.16l-.08.1c-.1.11-.22.33-.15.35.05.02.16-.13.25-.23l.08-.1c.02-.01-.04.09-.1.2l-.08.13c-.08.15-.06.24 0 .22.05-.02.18-.26.26-.41l.04-.08c.05-.09.04-.19.03-.28v-.14a.3.3 0 0 1 .1-.17c.01-.01.01 0 .01.03l.01.09c.01.05.03.04.05.01l.04-.03c.06-.03.05 0 .04.08v.03a.9.9 0 0 1-.11.22l-.08.16-.08.3-.02.07c-.02.07.08-.03.14-.1.56-.55.73-2.13.74-2.85C15 6.15 12.6 4 9.23 4 5.87 4 3 5.6 3 8.9 3 12.2 5.45 14 9.4 14Zm1.62-2.5h.48V9.51c-.23.23-.46.54-.48.81v1.18Zm.48-2.26V8.09c-.26.1-.83.33-.9.57-.06.2.09.14.25.07.08-.04.16-.07.22-.07.16 0 .46.2.37.26-.12.09-.68.5-.68.63 0 .07.08.08.13.09.05 0 .09 0 .08.03-.01.07 0 .36.15.1.08-.13.23-.34.38-.53Zm-2 1.36.14-.1c.23-.22 1.39-1.41 1.17-1.5-.17-.07-.6.34-.79.55-.11.04-.33.08-.33-.09 0-.17.26-.4.39-.5.18-.15.52-.46.43-.52-.1-.06-.59.17-.82.3H9.5v1.86Zm.62-2.35.2-.08c.03-.04.1-.16.1-.3 0-.19-.04-.18-.16-.16h-.01l-.19.07c-.14.06-.31.13-.46.13l-.1-.01v.59l.62-.24ZM6.95 6H5.68c-.08 0-.15.11-.15.25s.07.25.15.25h1.27c.08 0 .16-.11.16-.25S7.03 6 6.95 6Zm-.25 4.99-1 .58a.15.15 0 0 0-.06.2c.04.08.13.1.2.06l1-.59c.07-.04.1-.13.06-.2a.14.14 0 0 0-.2-.05Zm-.7-.14V6.88c0-.08.11-.15.25-.15s.25.07.25.15v3.97c0 .08-.11.15-.25.15S6 10.93 6 10.85Zm.9-4.03L7 7h1.78c-.04-.08-.11-.26-.2-.25-.06 0-.05.02-.04.03.02.02.03.04-.06.04H8V6.3h.11l-.37-.24v.76H6.9Zm.6 1.45c.05-.46.19-.94.24-1.12l.22.29c-.1.13-.28.6-.36.83L8.48 8l-.2-.41c.32.15.68.74.69.82 0 .07-.12.22-.19.29l-.3-.58-1.16.45-.1.17L7 8.38l.5-.11Zm-.03.53c.03.05.08.2.08.32 0 .05-.03.13-.07.25-.08.21-.2.54-.2.93 0 .6.33 1.34.67 1.54-.02.04-.1.1-.2 0-.15-.12-.71-.92-.71-1.54 0-.33.12-.6.24-.86.1-.22.2-.43.2-.64Zm1.22.17a.66.66 0 0 0-.05-.23c0 .16-.07.3-.14.47-.08.18-.17.37-.17.61 0 .45.4 1.02.5 1.1.07.07.12.03.14 0-.24-.14-.32-.67-.32-1.1 0-.28.02-.51.03-.67v-.18Zm-.63-.17c.02.04.12.31.12.42 0 .04-.02.1-.05.16-.05.13-.12.33-.12.66 0 .5.14 1.15.38 1.3-.01.04-.06.09-.14 0-.1-.09-.5-.76-.5-1.28 0-.28.1-.5.18-.72.07-.19.13-.36.13-.54Z" fill="#B5002D"/></svg>