<!-- by TradingView --><svg width="18" height="18" viewBox="0 0 18 18" xmlns="http://www.w3.org/2000/svg"><path fill="#F0F3FA" d="M0 0h18v18H0z"/><path d="M13.45 7.04A4.73 4.73 0 0 0 9 4a4.77 4.77 0 0 0-4.47 3.04h.85A4.35 4.35 0 0 1 9 4.97a4.3 4.3 0 0 1 3.6 2.07h.85Z" fill="url(#a)"/><path d="M5.39 6.64c.98-.23 2-.34 2.73-.38L9 7.33c-5.65.22-6.4 1.7-6.4 2.25 0 .44.65.98.98 1.2C3.05 10.51 2 9.8 2 9.02c0-.99 1-1.65 2.27-2.08a5.34 5.34 0 0 1 3.24-2.73A4.84 4.84 0 0 0 5.4 6.63ZM9 7.33c5.65.22 6.4 1.7 6.4 2.25 0 .44-.65.98-.98 1.2.53-.26 1.58-.97 1.58-1.75 0-.99-1-1.65-2.27-2.08a5.34 5.34 0 0 0-3.24-2.73c1.29.72 1.95 1.9 2.12 2.41-.98-.22-2-.33-2.73-.37L9 7.33Zm-3 .88C6.84 8.06 8.34 8 9 8c.66 0 2.16.06 3 .2v1.62l.57.1v-1.5l1.43.36v3.34l-1.43.98v-2.46l-.57-.09v2.53l-1.5.92V8.46L9 9.96l-1.5-1.5V14L6 13.08V8.2Zm-2 .57v3.34l1.43.98V8.42L4 8.78Z" fill="url(#b)"/><defs><linearGradient id="a" x1="12.6" y1="5.52" x2="5.54" y2="5.52" gradientUnits="userSpaceOnUse"><stop stop-color="#0E1064"/><stop offset="1" stop-color="#00AEE6"/></linearGradient><linearGradient id="b" x1="16" y1="9.11" x2="2" y2="9.11" gradientUnits="userSpaceOnUse"><stop stop-color="#02AEEC"/><stop offset="1" stop-color="#0F0F6C"/></linearGradient></defs></svg>