<!-- by TradingView --><svg width="18" height="18" viewBox="0 0 18 18" xmlns="http://www.w3.org/2000/svg"><path fill="#F0F3FA" d="M0 0h18v18H0z"/><path d="M14.7 7.23h.04c.26-.3.76-.22 1.05-.2.25 0 .28.1.08.28-.35.33-.73.6-1.14.83h-.05c-.41-.23-.8-.5-1.14-.83-.2-.18-.17-.27.08-.29.3-.01.79-.1 1.05.21h.04ZM4 11l-.36-.01c-.07-.01-.1-.05-.08-.1 0-.02.02-.05.06-.09a.2.2 0 0 0 .05-.13V7.8c0-.06-.04-.1-.1-.1a4.29 4.29 0 0 0-1.49.05c-.05.01-.08-.01-.08-.08v-.61c0-.03.01-.05.04-.05h3.92c.03 0 .04.02.04.05v.62c0 .06-.03.09-.08.07-.41-.1-.95-.12-1.5-.06-.05.01-.08.05-.09.11v2.88c0 .05.02.1.05.13l.05.09c.02.06 0 .09-.08.1L4 11ZM14.37 10.62v-.02l-.02-.02a.04.04 0 0 0-.04 0c-.7.47-1.42.54-2.2.24-1.08-.44-1.45-1.94-.76-2.99.31-.47.8-.75 1.48-.83.03 0 .05.02.05.06v.55l-.03.02c-.69.19-1.07.6-1.14 1.26-.2 1.7 2.14 1.96 2.56.7V9.5a.17.17 0 0 0-.02-.07.13.13 0 0 0-.05-.05.1.1 0 0 0-.06-.01H13v-.5c0-.02 0-.04.02-.05a.05.05 0 0 1 .03-.01h1.86c.06 0 .09.03.09.1v1.86c0 .06-.02.1-.07.1-.31.1-.5.02-.56-.26ZM7.42 8.29v2.36c0 .06.04.11.07.16l.04.07c.06.08.04.12-.04.12h-.75c-.11 0-.13-.05-.07-.13l.03-.04c.03-.04.07-.08.07-.12V7.42c0-.13-.07-.21-.09-.32-.01-.07 0-.1.05-.1h.69c.06 0 .1.05.13.1l1.66 2.58c.08.13.15.11.15-.06v-2.2c0-.1-.06-.2-.1-.31a.08.08 0 0 1 0-.06l.01-.03L9.3 7h.72c.07 0 .09.05.06.12l-.03.07c-.02.05-.05.1-.05.16v3.21c0 .14.04.21.08.32.03.08 0 .12-.07.12h-.63c-.05 0-.1-.02-.13-.07L7.53 8.25c-.06-.1-.11-.08-.11.04Z" fill="#0C082A"/></svg>