<!-- by TradingView --><svg width="18" height="18" viewBox="0 0 18 18" xmlns="http://www.w3.org/2000/svg"><path fill="#F0F3FA" d="M0 0h18v18H0z"/><path d="M15 9h-.3c-.45-2.08-3.22-2.53-4.79-2.57-.08 0-.14.03-.18.12l-1.58 3.4c-.02.03-.04.05-.08.05H6.34c-.04 0-.05-.02-.03-.05l1.58-3.4c.04-.1.01-.14-.09-.13-1.4.09-4.22.77-4.5 2.59H3C3.15 5.83 6.84 5 9 5c2.14 0 5.85 1 6 4Z" fill="#2A2F88"/><path d="M14.7 9h.3c-.3 3-3.75 4-6 4-2.1 0-5.7-1.17-6-3.99L3.3 9c.13.7.46 1.08 1.05 1.44a8.1 8.1 0 0 0 3.6 1.1c.06 0 .11-.04.14-.11l1.52-3.38.03-.04.04-.01h1.73c.04 0 .06.02.04.07l-1.5 3.31c-.04.11 0 .16.1.15 1.6-.14 4.23-.42 4.65-2.53Z" fill="#DC2525"/></svg>