<!-- by TradingView --><svg xmlns="http://www.w3.org/2000/svg" width="18" height="18"><path fill="#F28729" d="M0 0h18v18H0z"/><path d="M4.92 4c-.61 0-.92.4-.92.9v4.34c0 .5.43.76.76.76H6v4.5c0 .28.22.5.5.5h5a.5.5 0 00.5-.5V10h1.4c.33 0 .6-.27.6-.76V4.95c0-.49-.17-.95-.88-.95h-8.2z" fill="#FFEF06"/><path d="M5.47 5c-.26 0-.47.27-.47.6v2.8c0 .33.21.6.47.6H7v4.5c0 .28.22.5.5.5h3a.5.5 0 00.5-.5V9h1.53c.26 0 .47-.27.47-.6V5.6c0-.33-.21-.6-.47-.6H5.47z" fill="#2A2D24"/><path d="M6.36 6c-.2 0-.36.13-.36.3v1.4c0 .17.16.3.36.3H8v4.5c0 .28.22.5.5.5h1a.5.5 0 00.5-.5V8h1.64c.2 0 .36-.13.36-.3V6.3c0-.17-.16-.3-.36-.3H6.36z" fill="#fff"/></svg>