<!-- by TradingView --><svg width="18" height="18" viewBox="0 0 18 18" xmlns="http://www.w3.org/2000/svg"><path fill="#F0F3FA" d="M0 0h18v18H0z"/><path d="M4 8.99a5 5 0 0 0 1.38 3.45l.39-.43a4.41 4.41 0 0 1 5.5-6.8L6.5 9.5h1.74l3.08-4.25a4.41 4.41 0 0 1 2.06 3.2L14 9A5 5 0 0 0 4 9Zm7.5-.49-5.26 3.9 3.52-3.9h1.74ZM9.07 14c2.02 0 4.72-1.72 4.72-3.95 0-.9-.71-1.27-1.53-1.34-.24 0-.61.19-.61.4 0 .1.11.18.44.18.56 0 1.03.1 1.03.76 0 2-2.26 3.36-4.05 3.36a4.74 4.74 0 0 1-2.67-.9l-.2-.13a.6.6 0 0 1-.13.12l-.17.17c-.08.09 0 .25.1.32.54.4 1.7 1.01 3.07 1.01Z" fill="red"/></svg>