<!-- by TradingView --><svg width="18" height="18" viewBox="0 0 18 18" xmlns="http://www.w3.org/2000/svg"><path fill="#F0F3FA" d="M0 0h18v18H0z"/><path fill-rule="evenodd" d="M9 5 6.14 6.64h5.72L9 5ZM2 9l3.5-2h7L16 9l-3.5 2h-7L2 9Zm7 4-2.86-1.64h5.72L9 13Zm4-3.67h-.85c0 .16-.16.23-.42.23-.27 0-.43-.2-.43-.5v-.11c0-.3.15-.5.44-.5.29 0 .41.08.41.22H13c-.07-.5-.7-.67-1.27-.67-.72 0-1.28.37-1.28.95v.1c0 .6.56.95 1.3.95.54 0 1.21-.17 1.25-.67Zm-3.73.12c0-.19-.16-.24-.33-.28-.38-.09-.95-.23-.95-.62C8 8.12 8.6 8 9 8c.45 0 1.1.23 1.1.67h-.83c0-.18-.08-.23-.27-.23-.15 0-.27 0-.27.1 0 .12.34.2.5.23h.04c.4.1.82.29.82.68 0 .43-.67.55-1.09.55-.5 0-1.1-.17-1.1-.66h.83c0 .1.13.22.27.22.15 0 .27 0 .27-.1ZM6.7 10V8.44h.85V8H5v.44h.85V10h.85Z" fill="#0091D5"/></svg>