<!-- by TradingView --><svg width="18" height="18" viewBox="0 0 18 18" xmlns="http://www.w3.org/2000/svg"><path fill="#F0F3FA" d="M0 0h18v18H0z"/><path d="M15.58 9.04a5092.34 5092.34 0 0 1-.45 2.3 1.09 1.09 0 0 1-1.05.67l-11.34-.01a.78.78 0 0 1-.28-.06.69.69 0 0 1-.43-.46.75.75 0 0 1-.01-.38 67758.53 67758.53 0 0 0 .86-4.35c.12-.38.46-.67.85-.73l.3-.02h11.23c.07 0 .15.02.24.05a.7.7 0 0 1 .45.43c.03.08.05.16.05.25 0 .05 0 .13-.03.25l-.4 2.06Zm.02-1.66.07-.43c.07-.37-.1-.67-.53-.67H4.27c-.55 0-1.03.12-1.15.71l-.76 4.03c-.1.54.25.68.76.68h10.62c.58 0 1.05-.06 1.17-.7l.69-3.62Z" fill="#2E3192"/><path d="M3.8 8.45c-.18.66-.3 1.12-.35 1.37-.02.08-.02.18.1.18h.76l.02-.01a.03.03 0 0 0 0-.03h-.01l-.01-.01a.3.3 0 0 1-.09-.03c-.08-.04-.07-.1-.06-.18a1322.27 1322.27 0 0 0 .3-1.29h.6c.1 0 .16-.05.18-.15a233.84 233.84 0 0 0 .1-.47h-.02c-.02 0-.03 0-.04.02l-.04.07c-.04.06-.1.08-.18.08h-1.7l-.14.01c-.06.02-.1.08-.12.14l-.09.43c0 .02 0 .04.02.05h.01l.05-.04c.04-.07.07-.14.16-.14a50.76 50.76 0 0 1 .54 0ZM6.9 9.7a53.96 53.96 0 0 1 .33-1.4.4.4 0 0 0 .01-.1c0-.11-.1-.19-.2-.19H5.87a.34.34 0 0 0-.3.17 53.64 53.64 0 0 1-.39 1.55.4.4 0 0 0 0 .1c0 .1.09.18.2.18h1.16c.13 0 .24-.06.3-.17a.55.55 0 0 0 .05-.14Zm-1.07-.28.12-.48.1-.37c0-.05.03-.09.07-.12a53.59 53.59 0 0 0 .38-.02c.04 0 .06.02.07.05v.1l-.12.48-.1.37a.22.22 0 0 1-.08.12 53.59 53.59 0 0 0-.38.02c-.04 0-.06-.02-.07-.05v-.1Zm2.09.14h.73c.04 0 .08 0 .1-.04.05-.05.1-.11.15-.2.01-.02.03-.03.05-.03a.03.03 0 0 1 .02.02.03.03 0 0 1 0 .02l-.12.46a.37.37 0 0 1-.06.14.22.22 0 0 1-.18.08H7.37c-.09 0-.14-.04-.16-.1l.01-.16.34-1.5c.01-.08-.01-.13-.07-.16l-.05-.01a.2.2 0 0 1-.04-.01c-.02-.01-.03-.02-.02-.04l.01-.01h.02a597 597 0 0 0 .81 0c.07.04.07.12.05.17a191.37 191.37 0 0 1-.35 1.37ZM12 8.25a60.25 60.25 0 0 0-.18.75l-.32-.98V8h-1.05c-.02 0-.03.02-.02.04h.01l.02.01c.07.02.13.03.15.1l-.01.12a147.2 147.2 0 0 0-.36 1.62c0 .08.06.1.13.1h.73a.03.03 0 0 0 .03-.02c.01-.02 0-.03-.02-.04l-.06-.01c-.07-.03-.11-.08-.1-.16a91.23 91.23 0 0 0 .24-.88l.36 1.09V10h.93c.02 0 .04 0 .05-.02v-.02a.03.03 0 0 0-.01-.01h-.01c-.07-.02-.14-.04-.16-.12l.02-.12.36-1.54c.01-.06 0-.12-.05-.15a.2.2 0 0 0-.1-.02h-.74l-.01.02c0 .02 0 .03.02.04h.03l.06.03c.06.03.08.08.06.15Zm1.8 1.32c.01 0 .01 0 0 0a89.16 89.16 0 0 1-.73-.57c-.05-.04-.06-.13-.04-.2.06-.3.1-.48.1-.55a.47.47 0 0 1 .06-.15c.06-.09.3-.1.42-.1h1.56c.04 0 .07.02.1.05.04.03.04.08.02.12a47.54 47.54 0 0 0-.13.46c-.04-.02-.04-.05-.04-.08V8.5c-.03-.04-.07-.05-.11-.05a91.07 91.07 0 0 0-1.25.01 240.83 240.83 0 0 0 1.2.96c.01.01.02.03.01.05 0 .06-.03.18-.08.37 0 .06-.05.13-.11.16a.4.4 0 0 1-.12.01H12.9c-.1 0-.2-.04-.17-.15l.12-.4a.03.03 0 0 1 .01-.02c.02 0 .04 0 .04.02v.03l.03.06c.03.02.06.04.1.04h.76Zm-4.4-1.5c.03 0 .07.02.1.05.02.03.03.06.02.1a523.59 523.59 0 0 0-.38 1.7c.01.06.06.08.12.08H10c.01 0 .02 0 .03-.02 0-.02 0-.03-.02-.04-.13-.02-.18-.08-.15-.18a462.91 462.91 0 0 1 .38-1.66c0-.07-.04-.1-.1-.1h-.77a.03.03 0 0 0-.03.02v.02l.02.02h.04Z" fill="#2E3192"/></svg>