<!-- by TradingView --><svg width="18" height="18" viewBox="0 0 18 18" xmlns="http://www.w3.org/2000/svg"><path fill="#F0F3FA" d="M0 0h18v18H0z"/><path fill-rule="evenodd" d="m4.02 11.37.2.37c-.03-.2.04-.84.54-1.78.64-1.16 1.6-2.33 2.52-3.25.92-.91 2.66-2.03 3.6-2.41.77-.31 1.4-.2 1.63-.1-1.05-.77-3.6.84-4.91 1.8H5.62a.61.61 0 0 0-.62.6v.96c0 .33.28.44.62.44h.09c-.44.57-.91 1.2-1.2 1.69-.5.83-.54 1.47-.5 1.68Zm7.67-6.3c-.45.19-1.06.53-1.68.93h2.09c.15 0 .23.11.28.26l.4-.75c.13-.24.09-.49.03-.63-.3-.01-.7.02-1.12.2Zm1.46-.18c-1.53-.7-5.26 2.22-5.53 2.52a30.4 30.4 0 0 0-2.32 3.06c-.5.83-.53 1.47-.49 1.69l.03.04c.09.4.4.9 1.2.9.87 0 1.6-.4 1.96-.67v1.25c0 .18.17.32.34.32h1.39c.17 0 .28-.14.28-.32v-2.6A11.5 11.5 0 0 0 12.7 8.4C13.82 6.65 14 6.1 14 5.9c0-.28-.22-.8-.85-1.01ZM10 10.84a10.9 10.9 0 0 0 3.43-4.57 14.52 14.52 0 0 1-3.43 4.17v.4Zm-2 .74c-.75.47-1.7.95-2.54.97v.13c.55-.12 1.8-.4 2.53-.84v.36c-1.07.73-1.2.77-1.97.77-1 0-.94-.58-.88-1.25v-.01c.08-.27.21-.6.41-.96C6.08 9.78 6.83 8.82 7.6 8H8v2.86c-.7.54-1.6 1.15-2.68 1.25v.1A8.02 8.02 0 0 0 8 11.16v.42Zm2-1.55.44-.43.77-.75a7.96 7.96 0 0 0 1.85-2.96c-.23.54-1 1.58-1.35 2.02l-1.45 1.52-.26.22v.38Zm0-.83A37 37 0 0 0 11.13 8h-1.12v1.2ZM4.6 12.13l-.2-.37c-.05-.22-.02-.85.48-1.69A30.4 30.4 0 0 1 7.2 7.02c.72-.82 4.3-3.45 5.7-2.43-.23-.1-.87-.22-1.63.1-.95.38-2.69 1.5-3.6 2.4-.93.92-1.9 2.09-2.53 3.26-.5.93-.57 1.57-.54 1.78Z" fill="#0327FF"/></svg>