<!-- by TradingView --><svg width="18" height="18" viewBox="0 0 18 18" xmlns="http://www.w3.org/2000/svg"><path fill="#F0F3FA" d="M0 0h18v18H0z"/><path d="M12.87 6c.09 0 .13.02.13.07v1.82c0 .02-.03.05-.05.07a.1.1 0 0 1-.08.04h-2.75a.1.1 0 0 0-.05 0 .12.12 0 0 0-.04.03.14.14 0 0 0-.03.1v4.72a.17.17 0 0 1-.04.1.13.13 0 0 1-.1.04h-1.7a.13.13 0 0 1-.11-.03.15.15 0 0 1-.03-.05L8 12.85V8.12a.13.13 0 0 0-.03-.09.11.11 0 0 0-.08-.03H5.13a.1.1 0 0 1-.07-.03C5.04 7.95 5 7.92 5 7.89V6.07c0-.05.04-.07.13-.07h7.74Z" fill="#B42D25"/></svg>