<!-- by TradingView --><svg xmlns="http://www.w3.org/2000/svg" width="18" height="18" viewBox="0 0 18 18"><path fill="#F0F3FA" d="M0 0h18v18H0z"/><path fill-rule="evenodd" d="M10 3H8v1.9c-2.23.27-3.93 1.61-4 3.29-.07 1.75 1.66 3.27 4 3.66V15h2v-3.1c2.23-.28 3.93-1.62 4-3.3.07-1.75-1.66-3.27-4-3.66V3zM8 6.72c-1.94.13-3.4.77-3.41 1.58-.02.82 1.44 1.53 3.41 1.73V6.72zm2 3.34v-3.3c1.9.23 3.32.93 3.3 1.73-.02.79-1.42 1.42-3.3 1.57zm-2.43-4.6v.92c-.45.02-1.58.19-2.49.69.16-.34.87-1.14 2.5-1.6zm2.86 4.94v.92c1.62-.47 2.3-1.27 2.45-1.61-.9.5-2 .67-2.45.69z" fill="#E50213"/></svg>