<!-- by TradingView --><svg width="18" height="18" viewBox="0 0 18 18" xmlns="http://www.w3.org/2000/svg"><path fill="#F0F3FA" d="M0 0h18v18H0z"/><path d="M13.22 4.26c-.15-.03-.3-.09-.31-.26l.2.04c.15.02.31.07.33.26l-.22-.04ZM7.64 5.37h.06c.1 0 .18-.01.27.01l.08.03.06.02h.12a22.08 22.08 0 0 0 .4 0c.14.01.24.08.25.23-.05.02-.06.06-.08.1-.03.05-.08.05-.14.03H8.33a36.41 36.41 0 0 1-1.2 0 8.35 8.35 0 0 0-.92.06.18.18 0 0 0-.06.03.35.35 0 0 0-.1.12l-.13.26H5.9c-.11 0-.2-.08-.25-.17a1.94 1.94 0 0 0-.08-.12c-.11-.14-.18-.3-.14-.48a5.38 5.38 0 0 1 1.09-.05.94.94 0 0 0 .62-.3c.05-.06.15.01.19.05a1.82 1.82 0 0 0 .15.11c.05.02.13 0 .14.07ZM10.12 6.7v.1a.12.12 0 0 0-.05.09v.16a.2.2 0 0 1 0 .04c-.05.06-.07.15-.08.21l-.01.21v.54A74.57 74.57 0 0 0 10 9.34a14.39 14.39 0 0 0 0 .39 50.92 50.92 0 0 1-.07 1.84v.6l-.02.26a.92.92 0 0 1-.2.5.3.3 0 0 1-.25-.22.8.8 0 0 1-.04-.21l-.02-.26.01-.15a23.98 23.98 0 0 0 .16-3.14l.01-.4c.02-.44.08-.9.08-1.34l-.01-.4c-.02-.22-.08-.44-.13-.66a1.75 1.75 0 0 1-.05-.6c.15-.11.33-.17.5-.2l.4-.03H11.53c.06-.01.1-.04.15-.06a.17.17 0 0 1 .1-.01c.13.02.28.03.42.03l.4.02a.87.87 0 0 1 .49.19 2.75 2.75 0 0 1-.13.92 13.91 13.91 0 0 0-.12.45c-.14-.01-.16-.14-.2-.24a.34.34 0 0 0-.04-.07c-.03-.05-.05-.1-.09-.14a.45.45 0 0 0-.09-.08.43.43 0 0 0-.14-.06.82.82 0 0 1-.09-.03.87.87 0 0 0-.19-.05 6.82 6.82 0 0 0-1.34 0c-.05 0-.1.02-.13.06a.55.55 0 0 1-.1.13h-.04a86.57 86.57 0 0 1-.1 0 1 1 0 0 0-.17.32Z" fill="#CF000D"/><path d="m6.33 8.34.14-.17.2-.2a.99.99 0 0 0 .31-.7v-.1c-.05-.12-.21-.13-.32-.13a116.42 116.42 0 0 1-.43-.02c-.08-.03-.14-.09-.14-.17 0-.12.05-.2.18-.22h.52c.1-.04.18-.09.26-.14.11-.09.17-.2.2-.35a1.59 1.59 0 0 0 .03-.18h.17l.01.01a2.02 2.02 0 0 0 .3.6l.16.03.16.01a28.07 28.07 0 0 0 .54.01.7.7 0 0 1 .2.05v.31a.46.46 0 0 1-.23.06H8.5a7.02 7.02 0 0 1-.45 0 .34.34 0 0 0-.1.04.35.35 0 0 0-.2.3l-.01.01c-.06-.01-.12-.01-.17.03-.04.04-.07.08-.12.1a.4.4 0 0 0-.03.04l-.14.29c-.02.04-.05.07-.09.1a.2.2 0 0 0-.04.04c-.1.17-.23.34-.37.48a.96.96 0 0 1-.52.29l-.03-.02a2 2 0 0 0-.1-.04c-.07-.02-.11-.07-.11-.14a.5.5 0 0 0 0-.06c0-.11.06-.16.17-.16a1.29 1.29 0 0 1 .13 0ZM5.66 6.98a1.95 1.95 0 0 1 .14-.54c.05 0 .1.02.1.08s0 .1.02.16l.04.25a4.63 4.63 0 0 1-.04 1.16c-.04.24-.17.75-.53.65a.57.57 0 0 1-.18-.1H5.2c-.03-.1 0-.17.05-.25l.07-.1a4.8 4.8 0 0 1 .1-.1c.04-.03.02-.07.02-.11v-.05l.1-.4c.05-.22.1-.43.12-.65ZM12.04 6.95a2.83 2.83 0 0 1 .45.03.9.9 0 0 1 .06.28v.3l-.05.18-.01.01c-.17.05-.34.06-.53.07a6.72 6.72 0 0 1-.71 0h-.62a.65.65 0 0 1-.28-.12 1.9 1.9 0 0 1-.17-.13 3.89 3.89 0 0 0 0-.38c0-.08.04-.18.13-.22.04-.01.06-.07.12-.05a4.55 4.55 0 0 0 .77.06l.64-.02.2-.01ZM12.56 11.91c.06-.04.08-.13.1-.21l.03-.3a7.1 7.1 0 0 0 .04-1.4 17.07 17.07 0 0 1-.05-1.97 5 5 0 0 1 .12-.82c.03 0 .07 0 .1.03l.01.05c.04.15.06.3.08.44a9.02 9.02 0 0 1 .07 1.46 36.16 36.16 0 0 0 .05 1.13l.04.18a5.34 5.34 0 0 1-.01 1.25 4.82 4.82 0 0 1-.23 1.11v.01a.63.63 0 0 1-.54-.04.76.76 0 0 1-.32-.42c-.08-.23-.08-.5.02-.72l.02-.03c.1-.06.17-.04.23.05.06.08.12.19.22.2h.02Z" fill="#CF000D"/><path d="M7.86 7.87h-.05a33.44 33.44 0 0 0-.05-.41c.04-.01.09 0 .1.05h.02c.17.06.3.19.4.34a6.59 6.59 0 0 0 .26.33 9.68 9.68 0 0 1 .25.1c.06.01.12.05.14.11v.1c0 .08-.05.15-.12.2l-.1.07h-.02a.54.54 0 0 1-.4-.19c-.11-.13-.2-.3-.3-.46L7.88 8a8.45 8.45 0 0 1-.02-.14ZM11.3 9.06c-.03 0-.06 0-.09-.02-.04-.02-.08-.05-.14-.04v-.08c0-.04 0-.09-.05-.1l.02-.15c0-.04.01-.06.03-.09h.09c.02.01.03 0 .04-.01a14.3 14.3 0 0 1 .06-.11H11.43c.01-.03.02-.05.05-.06l.1-.01a.1.1 0 0 0 .07-.04c.03-.03.08-.05.14-.04.07 0 .14.02.22.04.11.04.22.09.32.15.03.02.1.06.1.1.04.21-.02.43-.05.65v.17l-.01.34V10l.03.62a4.94 4.94 0 0 1-.03.82c-.27.08-.55.07-.83.05a135 135 0 0 0-.66-.05 1.79 1.79 0 0 0-.53.06c-.11-.14-.13-.3-.1-.48l.03-.21c.02-.09.02-.18.02-.28v-.36l.03-.18.03-.17a2.15 2.15 0 0 0-.05-.4l-.09-.37a1.59 1.59 0 0 1-.04-.52v-.01c.24-.15.56-.02.77.12l.01.11a.9.9 0 0 1-.06.29l-.1.26c-.06.12-.11.25-.13.38a.87.87 0 0 0 0 .29c.04.26.18.48.43.58.21.09.45.06.67 0a.1.1 0 0 0 .04-.03.91.91 0 0 0 .2-.51A1.4 1.4 0 0 0 12 9.6a.66.66 0 0 0-.23-.43c-.03-.05-.12-.05-.17-.05h-.17c-.05 0-.1 0-.12-.06ZM6.27 9.72a.3.3 0 0 0 .17.17h.04c.09 0 .06.11.14.12 0 .2-.15.22-.27.29a.1.1 0 0 1-.04.01c-.04 0-.06.03-.08.07l-.04.1a.11.11 0 0 1-.1.07.21.21 0 0 1-.2-.1c-.03-.06-.1-.14-.17-.14a56.98 56.98 0 0 1-.4 0c0-.07-.03-.12-.05-.18a.28.28 0 0 1 0-.18l.13-.07a.4.4 0 0 1 .26-.05h.03a.22.22 0 0 0 .11-.1l.07-.14a.51.51 0 0 1 .05-.1c.07-.1.18-.1.29-.08 0 .06 0 .1.04.14.03.05.04.1.02.16ZM7.93 10.67v.47a.43.43 0 0 1-.06.24c-.17.03-.27-.05-.3-.22v-.2a7.12 7.12 0 0 0 0-.24c.02-.08-.02-.1-.08-.14a.11.11 0 0 1-.05-.06 9.13 9.13 0 0 1-.03-.07c-.01-.03-.03-.07-.07-.08a2.5 2.5 0 0 1-.13-.03c-.1-.02-.2-.04-.3-.04h-.22a.56.56 0 0 1-.02-.15c.02-.15.11-.22.25-.26v-.2c0-.06.02-.12.06-.15.1-.02.19 0 .25.08l.06.11c.03.07.08.14.16.16h.01c.1-.03.15-.11.17-.2a.99.99 0 0 0 0-.27h.3c-.02.16-.01.35.11.47a.01.01 0 0 0 .01 0c.1 0 .17-.06.23-.14.08-.1.15-.2.3-.22.06.09.08.2.06.3l.02.02c.05.04.11.08.15.14.03.05.03.13.01.2a.54.54 0 0 1-.24.05l-.14-.02a.6.6 0 0 0-.27.03c.02.19.11.32.26.42a1.8 1.8 0 0 0 .45.18c0 .1-.02.19-.1.26l-.14.15a.6.6 0 0 1-.39-.25l-.12-.15a.82.82 0 0 0-.2-.19ZM13.9 10.37c.02.06.03.1.02.16-.01.06-.05.08-.1.09-.05 0-.09-.02-.09-.08V10.31c.08-.03.13 0 .17.06Z" fill="#CF000D"/><path d="M6.83 10.8a.7.7 0 0 0 .25-.07l.14-.07a.68.68 0 0 1 .24-.05.8.8 0 0 1-.14.37c-.14.17-.36.23-.57.22h-.01a1.95 1.95 0 0 1-.11-.17c-.06-.08-.05-.16 0-.24h.2ZM5.5 11.61l.3-.47a1.62 1.62 0 0 0 .24-.47c.16.05.28.15.36.29.06.1.1.21.11.32.01.08-.05.1-.11.1a13.24 13.24 0 0 1-.07 0l-.06.12a.08.08 0 0 1-.05.06v.02a2.24 2.24 0 0 1-.01.28v.08c0 .1.02.18.03.27a3.15 3.15 0 0 1 .02.47c0 .06-.02.11-.04.16-.04.1-.11.14-.21.14a.53.53 0 0 1-.21-.05 1716.45 1716.45 0 0 1-.02-.97c-.03-.04-.07-.02-.11 0l-.1.07a4.2 4.2 0 0 0-.1.1.07.07 0 0 1-.07.03h-.14c-.05-.06-.03-.16-.11-.18v-.01c-.02-.15.04-.25.18-.3.06-.03.1-.04.16-.05h.01Z" fill="#CF000D"/><path d="m8.45 12.93-.07-.02-.14-.06a.42.42 0 0 0-.12-.04.6.6 0 0 1-.07-.01l-.2-.05a.72.72 0 0 0-.3.02c-.1.02-.18.06-.27.1a4.1 4.1 0 0 1-.27.05.26.26 0 0 0-.1.05.16.16 0 0 1-.1.02l-.02-.02a1.17 1.17 0 0 0-.23-.1v-.3a.6.6 0 0 1 .2-.02h.17c.1 0 .2-.02.28-.1a.2.2 0 0 0-.1-.11l-.24-.07a.3.3 0 0 1-.17-.09.07.07 0 0 1-.02-.04c0-.09.05-.12.12-.14a.86.86 0 0 0 .1-.04c.04-.02.08-.05.08-.1 0-.02-.02-.04-.04-.05a.26.26 0 0 0-.13-.02 4.09 4.09 0 0 0-.26 0c-.04 0-.1-.02-.1-.06-.03-.19.07-.27.24-.29h.12a4.66 4.66 0 0 1 .25 0c.07-.04.1-.1.1-.17v-.01c.09-.02.17-.02.24.04l.1.09.05.04.05.01a5.93 5.93 0 0 0 .65.04 3.59 3.59 0 0 1 .63.08c.03.07 0 .12-.05.17-.04.03.04.13-.04.14l-.16-.01c-.03-.01-.06 0-.09.01l-.04.05c-.05.06-.12.05-.19.06-.04 0-.07-.01-.09-.05l-.02-.07c-.02-.05-.04-.06-.09-.06h-.43c-.15.02-.3.06-.4.17v.01c.03.07.09.13.16.17.08.04.17.07.25.12.06 0 .11-.02.16-.04l.21-.12a.62.62 0 0 1 .22-.08.66.66 0 0 0-.01.16c0 .05 0 .1.02.14.06.14.22.2.34.27l.13.08c.04.03.08.08.06.13-.01.03-.05.04-.07.07l-.02.04c-.04.08-.11.1-.2.07a.12.12 0 0 1-.07-.06ZM13.92 11.38c0 .05 0 .1-.02.14a.63.63 0 0 0-.04.1h-.01c-.05 0-.09-.03-.1-.08-.02-.04 0-.1.03-.13s.07-.04.13-.03Z" fill="#CF000D"/><path d="M13.99 5.17v4.16h-.33c-.06-.89-.17-2.86-.17-3.66 0-.8-.44-1-.67-1H5.33c-.53 0-.66.44-.66.66v7.34c0 .53.44.66.66.66 2.11.11 6.53.34 7.33.34.8 0 1-.67 1-1V12h.33v.67c0 1.06-.89 1.33-1.33 1.33H5.33C4.27 14 4 13.33 4 13V5.33C4 4.4 4.89 4.06 5.33 4h7.5c1.06 0 1.22.78 1.16 1.17Z" fill="#CF000D"/></svg>