<!-- by TradingView --><svg width="18" height="18" viewBox="0 0 18 18" xmlns="http://www.w3.org/2000/svg"><path fill="#F0F3FA" d="M0 0h18v18H0z"/><path d="M14 12.3c0 .91-.75 1.67-1.67 1.68L5.7 14c-.91 0-1.67-.75-1.68-1.67L4 5.7c0-.91.75-1.67 1.67-1.68L12.3 4c.91 0 1.67.75 1.68 1.67L14 12.3Zm-1-6.33c0-.48-.46-.97-.94-.97h-6.1C5.5 5 5 5.5 5 5.98v6.06c0 .48.5.96.98.96h6.1c.47 0 .92-.5.92-.98V5.97Z" fill="#014468"/><path d="M11.8 6.14c-.9.28-2.27.73-4.12 1.34-.33.1-.51.32-.54.63-.03.31.11.54.44.68.16.07.47.01.91-.17l.05-.02c.1-.04.13-.01.09.1l-.29.76a.27.27 0 0 1-.18.17c-.29.1-.57.1-.85-.01-.26-.1-.47-.27-.65-.51-.18-.24-.28-.51-.32-.8-.03-.32.02-.62.17-.9.19-.36.52-.63 1-.79l3.34-1.08a.86.86 0 0 1 .8.14l.23.17c.18.12.16.22-.07.29Z" fill="#F8BA76"/><path d="M10.89 9.68c-.1-.54-.58-.64-1.44-.3-.05.02-.07 0-.05-.06l.34-.9a.11.11 0 0 1 .09-.08c.72-.13 1.26.07 1.61.6.29.44.35.9.2 1.4-.16.49-.47.8-.94.96-.88.3-2.08.68-3.59 1.17-.2.07-.43.03-.67-.12l-.28-.17c-.23-.14-.21-.25.06-.34.8-.24 2.2-.69 4.17-1.34a.73.73 0 0 0 .41-.3c.1-.16.13-.33.09-.52Z" fill="#F18B00"/></svg>