<!-- by TradingView --><svg width="18" height="18" viewBox="0 0 18 18" xmlns="http://www.w3.org/2000/svg"><path fill="#F0F3FA" d="M0 0h18v18H0z"/><path d="M10.15 5.79a.44.44 0 0 0-.03.29c0 .04.02.05.05 0l.16-.23c.3-.48.67-.88 1.11-1.2.06-.04.07-.03.06.03-.23.84-.16 1.67.19 2.49.05.13.2.35.46.67.73.92 1.06 2.18.71 3.3a3.96 3.96 0 0 1-2.75 2.72c-.55-.4-1.15-.75-1.79-1.05.95-.2 1.57-.69 1.86-1.45.5-.63.52-1.27.04-1.93A5.7 5.7 0 0 0 9.1 8.27a.17.17 0 0 0-.22 0c-.43.36-.8.75-1.11 1.18-.15-.11-.03-.34 0-.48.03-.09.04-.17.04-.25.01-.7-.16-1.36-.5-1.98 1.38-.9 2-2.13 1.86-3.7 0-.05.01-.05.04-.01.38.46.66.97.82 1.55.06.18.04.36.1.54.07.2.04.46.02.67Z" fill="url(#a)"/><path d="M7.31 6.74c.34.62.51 1.28.5 1.98l-.03.25c-.04.14-.16.37-.01.48-.35.5-.43.98-.24 1.43.18.42.5.71.97.89.55.2 1.12.07 1.68-.41-.29.76-.91 1.25-1.86 1.45-.5.11-1 .08-1.5-.1a3.77 3.77 0 0 1-.65-.34 5.07 5.07 0 0 0-.65-.35 3.54 3.54 0 0 1 .04-3.75c.24-.4.38-.67.43-.83.21-.63.24-1.29.1-1.96 0-.04 0-.05.03-.02.48.33.87.76 1.2 1.28Z" fill="url(#b)"/><path d="M8.32 12.81c.64.3 1.24.65 1.79 1.05a4.06 4.06 0 0 1-4.6-1.84c.23.1.45.22.66.35a2.74 2.74 0 0 0 2.15.45Z" fill="url(#c)"/><path d="m10.13 6.11-.01-.03c.2-.86.07-1.86-.9-3.05-.04-.04-.05-.04-.05.01a3.75 3.75 0 0 1-1.86 3.7c.34.62.51 1.28.5 1.98a1.07 1.07 0 0 1-.06.34c-.05.13-.1.3.02.39.3-.41.65-.79 1.06-1.13a7.1 7.1 0 0 0 1.3-2.21Z" fill="url(#d)"/><defs><linearGradient id="a" x1="10.73" y1="6.09" x2="10.21" y2="13.87" gradientUnits="userSpaceOnUse"><stop stop-color="#BF1F31"/><stop offset="1" stop-color="#F3682A"/></linearGradient><linearGradient id="b" x1="7.59" y1="5.44" x2="7.59" y2="12.88" gradientUnits="userSpaceOnUse"><stop stop-color="#F59624"/><stop offset="1" stop-color="#DC2328"/></linearGradient><linearGradient id="c" x1="5.91" y1="12.79" x2="9.2" y2="13.42" gradientUnits="userSpaceOnUse"><stop stop-color="#F28028"/><stop offset="1" stop-color="#EF632B"/></linearGradient><linearGradient id="d" x1="9.67" y1="3.86" x2="7.93" y2="8.29" gradientUnits="userSpaceOnUse"><stop stop-color="#F47726"/><stop offset="1" stop-color="#DA1E2A"/></linearGradient></defs></svg>