<!-- by TradingView --><svg width="18" height="18" viewBox="0 0 18 18" xmlns="http://www.w3.org/2000/svg"><path fill="#F0F3FA" d="M0 0h18v18H0z"/><path d="M11.33 6.04v1.99l-2-1.05V5l2 1.04Zm2.34 1.2v2l-2-1.06V6.2l2 1.04ZM16 8.45v2L14 9.4V7.42l2 1.03Zm-2.33 3.22v-2l-2-1.03v1.98l2 1.05Zm-2.34-1.2V8.5l-2-1.04v1.98l2 1.05Zm0 .54V13l-2-1.05V9.97l2 1.04ZM6.67 6.1v1.97l2-1.04V5.07l-2 1.03ZM4.33 9.26V7.3l2-1.03v1.96l-2 1.04ZM2 10.46V8.5l2-1.02v1.96l-2 1.04Zm4.67.04V8.53l2-1.03v1.96l-2 1.04Zm0 .53V13l2-1.04V10l-2 1.03Z" fill="#343434"/></svg>