<!-- by TradingView --><svg width="18" height="18" viewBox="0 0 18 18" xmlns="http://www.w3.org/2000/svg"><path fill="#F0F3FA" d="M0 0h18v18H0z"/><path d="M9.04 4c1.23 0 2.34.4 3.26 1.22a5.06 5.06 0 0 1-.25 7.8c-.9.7-1.96.99-3.09.98a4.83 4.83 0 0 1-3.8-1.76 4.9 4.9 0 0 1-1.14-2.76 5.06 5.06 0 0 1 1.74-4.3A4.78 4.78 0 0 1 9.03 4Z" fill="#3A2000"/><path d="M8.97 5.2c.87 0 1.66.27 2.32.81a3.85 3.85 0 0 1 1.33 2.03c.28 1.1.1 2.24-.54 3.2a3.66 3.66 0 0 1-3.06 1.6 3.66 3.66 0 0 1-3.07-1.57 3.96 3.96 0 0 1-.58-3.19c.2-.8.66-1.5 1.3-2.04a3.54 3.54 0 0 1 2.3-.84Z" fill="#FFC31B"/></svg>