<!-- by TradingView --><svg width="18" height="18" viewBox="0 0 18 18" xmlns="http://www.w3.org/2000/svg"><path fill="url(#atzpeubwl)" d="M0 0h18v18H0z"/><path d="M9.8 3.71a1.6 1.6 0 0 0-1.6 0L4.8 5.67c-.5.28-.8.8-.8 1.38v3.9c0 .57.3 1.1.8 1.38l3.4 1.96c.5.28 1.1.28 1.6 0l3.4-1.96c.5-.28.8-.8.8-1.38v-3.9c0-.57-.3-1.1-.8-1.38L9.8 3.7ZM7 8V7h4v1H9.5v3.73h-1V8H7Z" fill="#fff"/><defs><linearGradient id="atzpeubwl" x1="3.35" y1="3.12" x2="21.9" y2="24.43" gradientUnits="userSpaceOnUse"><stop stop-color="#1A1E21"/><stop offset="1" stop-color="#06060A"/></linearGradient></defs></svg>