<!-- by TradingView --><svg width="18" height="18" viewBox="0 0 18 18" xmlns="http://www.w3.org/2000/svg"><path fill="#F0F3FA" d="M0 0h18v18H0z"/><path d="M12.75 5.62a5.08 5.08 0 0 0-8.01.78l1.53.48c.61.2 1.17.66 1.5 1.2.13.22.2.45.24.71.07.51.09.92.06 1.22 0 .04 0 .1.02.14a.07.07 0 0 0 .1.04c.05-.02.1-.06.11-.11a2.38 2.38 0 0 1 3.34-1.4c.3.12.6.24.92.33.16.04.36.09.52.04h.02c.17-.06.35-.12.5-.23.2-.17.32-.46.38-.73v-.05c-.18-.9-.6-1.75-1.23-2.42ZM7.99 11.7c-.04 0-.07-.03-.1-.09a119.43 119.43 0 0 0 0-.55c.01-.14 0-.27-.03-.37-.16-.59-.7-.98-1.26-1.17a159.23 159.23 0 0 0-2.6-.8 4.97 4.97 0 0 0 2.83 4.77A5.07 5.07 0 0 0 14 9.87h-.01c-.18.53-.48.98-1 1.23-.26.13-.55.19-.87.17a3.37 3.37 0 0 1-.9-.22L10 10.62c-.4-.14-.87-.26-1.28-.05a.97.97 0 0 0-.43.41c-.1.2-.16.4-.19.61 0 .07-.05.1-.12.11Z" fill="#003F97"/></svg>