<!-- by TradingView --><svg width="18" height="18" viewBox="0 0 18 18" xmlns="http://www.w3.org/2000/svg"><path fill="url(#acbxs5tvj)" d="M0 0h18v18H0z"/><path d="M8.7 11c-3.74 0-6.02 1.4-6.7 1.96.76-.4 3.38-.98 6.92-.98 3.53 0 6.12.61 7.08 1.02-.87-.58-3.56-2-7.3-2Z" fill="#0096CA"/><path d="M6 11.97v-2.7L6.72 9 8 9.26v2.71H6ZM10 11.94V9.26l.62-.26 2.38.26v2.68l-2.29-.12-.71.12Z" fill="#0096CA" fill-opacity=".8"/><path d="M8 11.61v-6.9L8.7 4l1.3.45v7.16H8Z" fill="url(#bcbxs5tvj)"/><defs><linearGradient id="acbxs5tvj" x1="3.35" y1="3.12" x2="21.9" y2="24.43" gradientUnits="userSpaceOnUse"><stop stop-color="#1A1E21"/><stop offset="1" stop-color="#06060A"/></linearGradient><linearGradient id="bcbxs5tvj" x1="9" y1="4" x2="9" y2="11.61" gradientUnits="userSpaceOnUse"><stop offset=".49" stop-color="#0096CA"/><stop offset="1" stop-color="#0096CA" stop-opacity="0"/></linearGradient></defs></svg>