<!-- by TradingView --><svg width="18" height="18" viewBox="0 0 18 18" xmlns="http://www.w3.org/2000/svg"><path fill="#F0F3FA" d="M0 0h18v18H0z"/><path d="M10 14.14V3.85h1.28l2.83 3v4.26l-2.83 3.03H10Z" fill="#BB924B" fill-opacity=".3"/><path fill-rule="evenodd" d="M9 15A6 6 0 1 0 9 3a6 6 0 0 0 0 12Zm0-1A5 5 0 1 0 9 4a5 5 0 0 0 0 10Z" fill="#BB924B"/><path d="M6.58 7.84H5v.75h1.58v-.75Zm-.5.75h-.57v2.08h.58V8.59ZM8.84 7.83h.58v2.83h-.58zM12.36 7.86h-.58v2.8H13.14V9.9h-.78V7.86Z" fill="#2D3091"/><path d="M7.5 7.82h-.58v2.85h.58v-.9h.02a.98.98 0 0 0 0-1.95H7.5Zm0 1.3v-.64h.14a.32.32 0 0 1 0 .64H7.5Z" fill="#EC1B23"/><path fill-rule="evenodd" d="M10.48 7.84h-.64v2.83h.64v-.9a.97.97 0 0 0 0-1.93Zm0 .65v.64h.08a.32.32 0 0 0 0-.64h-.08Z" fill="#EC1B23"/></svg>