<!-- by TradingView --><svg width="18" height="18" xmlns="http://www.w3.org/2000/svg"><path fill="url(#paint0_linear)" d="M0 0h18v18H0z"/><path d="M13 7.657l-.002 3.599c-.015 1.228-.07 1.827-1.23 2.86a4.217 4.217 0 01-2.665.88c-1.29.048-2.615-.348-3.453-1.484-.448-.666-.65-1.592-.65-2.51V3.564c.322-.175.826-.336 1.26-.427.607-.128 1.265-.191 1.888-.082.339.059.732.203 1.115.389.307.15.753.44 1.12.628.617.312 1.135.474 1.827.313.244-.056.51-.282.79-.538v3.809z" fill="#A21A2F"/><path d="M5 6.642v1.875c.387-.542.89-.876 1.358-1.051.834-.268 2.099-.134 2.488.259-1.497.067-2.65.97-3.173 2.393-.29.946-.246 1.744-.052 2.371.455 1.465 1.894 2.316 3.325 2.32 1 .001 2.342-.259 3.034-1.377.45-.752.727-2.127-.157-2.974-.44-.422-.781-.484-1.079-.561-.298-.078-.674-.167-.857-.433-.11-.157-.121-.367.031-.498a.545.545 0 01.312-.1c.193 0 .419.103.577.165l.14-.448s-.23-.21-.626-.333l.033-.07c1.318-.016 1.865-.089 2.646-.52v-.582c-.453.297-.978.491-1.508.491-.823 0-1.416-.465-2.079-.884-.747-.463-1.402-.903-2.31-.953-.8-.028-1.637.438-2.103.91zm4.733 1.59c-.5.26-.787.63-.78 1.13.009.454.445.965 1.415 1.25.801.243.818 1.556.072 1.982-1.686 1.02-3.953-.834-3.095-2.759.394-.884 1.383-1.687 2.388-1.603z" fill="#00B9EB"/><circle cx="9" cy="4.813" r="1.069" fill="#fff"/><defs><linearGradient id="paint0_linear" x1="3.349" y1="3.122" x2="21.904" y2="24.434" gradientUnits="userSpaceOnUse"><stop stop-color="#1A1E21"/><stop offset="1" stop-color="#06060A"/></linearGradient></defs></svg>