<!-- by TradingView --><svg width="18" height="18" viewBox="0 0 18 18" xmlns="http://www.w3.org/2000/svg"><path fill="#053F68" d="M0 0h18v18H0z"/><path d="m16 7-.38.6h-1.9l.38-.6H16ZM6.7 8h4.16c.05 0 .08.04.05.08l-.69 1.22a.3.3 0 0 1-.2.14.45.45 0 0 1-.12.02H8c-.06 0-.09 0-.1.02-.02 0-.04.02-.05.05l-.26.47H5.57L6.7 8Zm2.72.64.08-.14c.02-.04-.01-.08-.06-.08h-.96l-.23.41-.1.17h.93c.14 0 .16-.05.19-.09l.15-.27ZM6.43 8c.05 0 .08.04.06.08l-.2.34H5.16L4.25 10h-2l.9-1.58H2l.13-.22.02-.04c.04-.07.1-.16.19-.16h4.1Zm4.81 0h4.08c.04 0 .07.04.04.08l-.18.33H12.8a535.11 535.11 0 0 1-.64 1.16h1.12s.05-.14.14-.28h-.65l.1-.16.15-.27h1.67c.07 0 .1.01.13.05.02.04.02.08 0 .12l-.43.78-.02.03c-.05.1-.1.16-.18.16H10.1c-.05 0-.1 0-.05-.08l.97-1.72.03-.04c.04-.08.09-.16.18-.16Z" fill="#fff"/></svg>