<!-- by TradingView --><svg width="18" height="18" viewBox="0 0 18 18" xmlns="http://www.w3.org/2000/svg"><path fill="#F0F3FA" d="M0 0h18v18H0z"/><path d="M8.11 6.14c.9.42 3.27 1.2 5.5 1-.43.09-.85.2-1.28.3-.86.23-1.73.46-2.8.56H4.62l.2-1.1 3.3-.76Zm2.97 5.35c-.69-.13-2.17-.6-2.58-1.38l-1.74.93.52.96h2.5l1.3-.51Z"/><path d="M15 5H3l1.61 3C6.71 6.56 12.35 5.27 15 5Zm-2.76 4.63 1.4-2.48c-7.23.84-8.19 2.08-7.76 2.59l1.16 1.84c-.37-1 3.32-1.72 5.2-1.95ZM9.04 15l-.96-1.63c-.03-.43.52-1.4 2.99-1.87L9.04 15Z" fill="#FFB300"/></svg>