<!-- by TradingView --><svg width="18" height="18" viewBox="0 0 18 18" xmlns="http://www.w3.org/2000/svg"><path fill="#F0F3FA" d="M0 0h18v18H0z"/><path d="m5.21 4-1.5 8h.6l.9-6.13.92 6.13h.58L5.2 4Z" fill="#14339F"/><path d="M5.77 6.92c1.18.5 2.64.9 4.1.9 1.84 0 3.12-.27 3.53-.41l-.1.26c-.53.13-1.94.39-3.42.39a10.9 10.9 0 0 1-4.03-.67l-.08-.47Zm-.43-.18c-.8-.37-1.45-.75-1.84-1.02l.06.58c.67.38 1.28.68 1.85.91l-.07-.47Z" fill="#EA8C21"/><path d="M13.5 6 12 12h.61l.9-4.6.92 4.6H15l-1.5-6Z" fill="#14339F"/></svg>