<!-- by TradingView --><svg width="18" height="18" viewBox="0 0 18 18" xmlns="http://www.w3.org/2000/svg"><path fill="#F0F3FA" d="M0 0h18v18H0z"/><path d="M12.4 13H5.6C4.64 13 4 12 4 11v-.33l1.2-4.25c.1-.44.45-.75.85-.75h5.9c.4 0 .75.3.85.75l1.2 4.25v.16C14 12 13.36 13 12.4 13Z" fill="url(#a11oo3nuy)"/><path d="M12.49 12.33H5.5c-.99 0-1.7-1.02-1.46-2.08l1.05-4.5c.1-.44.46-.75.87-.75h6.06c.4 0 .77.3.87.75l1.05 4.5c.25 1.06-.47 2.08-1.46 2.08Z" fill="url(#b11oo3nuy)"/><path d="M6 7.25 6.16 6h4.1l.16 1.25h-.16c-.15-.63-.52-.83-.79-.83h-.94c-.06 1.04-.16 3.25-.16 3.75s.2.62.31.62h.48V11H6.79v-.2h.47c.38 0 .48-.43.48-.63l.15-3.75h-.78c-.38 0-.8.55-.95.83H6Z"/><path d="M10.74 8h-.95v.2c.25 0 .31.27.31.4v1.8c0 .32-.1.4-.15.4h-.16v.2h1.58v-.2h-.32c-.25 0-.31-.27-.31-.4V8.8c.12-.48.63-.6.79-.6 0 .13.03.4.15.4.16 0 .32 0 .32-.2s-.16-.4-.47-.4c-.26 0-.69.27-.8.4V8Z"/><defs><linearGradient id="a11oo3nuy" x1="13.39" y1="12.33" x2="4.16" y2="12.33" gradientUnits="userSpaceOnUse"><stop stop-color="#D8BE36"/><stop offset=".06" stop-color="#F9D662"/><stop offset=".13" stop-color="#E2BD30"/><stop offset=".76" stop-color="#DFBD3F"/><stop offset=".91" stop-color="#F5D35C"/><stop offset="1" stop-color="#E1BE36"/></linearGradient><linearGradient id="b11oo3nuy" x1="13.5" y1="11.67" x2="4.56" y2="6.37" gradientUnits="userSpaceOnUse"><stop stop-color="#DFAC28"/><stop offset=".28" stop-color="#F9D662"/><stop offset=".53" stop-color="#F2E5B0"/><stop offset=".76" stop-color="#EAC86E"/><stop offset="1" stop-color="#E1BE36"/></linearGradient></defs></svg>