<!-- by TradingView --><svg width="18" height="18" viewBox="0 0 18 18" xmlns="http://www.w3.org/2000/svg"><path fill="#F0F3FA" d="M0 0h18v18H0z"/><path d="M7.44 7.01c0-1.49-1.8-2.58-2.91-3A.6.6 0 0 0 4 4.6v8.8c0 .33.27.6.6.6h8.8a.6.6 0 0 0 .6-.6v-2.96a5.4 5.4 0 0 0-.29-.1c-.46.3-1.33.74-2.46 1.03.36.22.53.44.75.63-.34-.22-.57-.41-.94-.58-.69.16-1.46.27-2.3.27-1.8 0-2.81-.38-3.25-.66-.53.3-1.03.63-1.51.97.4-.5 1.34-1.3 2.73-1.86-1.52-.24-2.61-.23-2.57-.23 1.13-.15 2.18-.12 3.13.03a9.16 9.16 0 0 1 2.95-.44c1.49.03 2.77.34 3.6.62h.14l-.04.04.06.02V4.6a.6.6 0 0 0-.6-.6H6.81C7.9 4.17 9 4.52 9 5c0 .34-.22.77-.4 1.06-.12.2-.22.36-.22.47 0 .26.17.48.41.48.7 0 .66-1.15.64-1.62a4.58 4.58 0 0 1 0-.24c0-.24 0-.3.2-.38.16-.05 1.47-.29 2.27-.43l.23-.04-.1.02c-.55.14-1.6.4-1.98.53-.44.17-.43.47-.43.93v.28c0 .52.01.9-.92 1.74A14.28 14.28 0 0 1 4 9.94C6.8 8.69 7.44 8.08 7.44 7Z" fill="#DA251D"/><path d="M12.4 10c.44.07.8.17 1.11.26-.57.28-1.52.65-2.64.89-.75-.42-1.74-.84-2.91-1.09a9.78 9.78 0 0 1 2.28-.26c.61 0 1.17.04 1.66.11a.31.31 0 0 0 .22.53.31.31 0 0 0 .29-.45Z" fill="#DA251D"/><path fill-rule="evenodd" d="M7.31 10.24c1.02.19 2.17.49 3.28.96-.58.1-1.2.18-1.82.18a7.77 7.77 0 0 1-2.96-.51c.46-.24.96-.46 1.5-.63Zm.13.5a.31.31 0 1 1-.63 0 .31.31 0 0 1 .63 0Z" fill="#DA251D"/><path fill="#F0F3FA" fill-opacity=".7" d="M5 12h8v1H5z"/></svg>