<!-- by TradingView --><svg width="18" height="18" viewBox="0 0 18 18" xmlns="http://www.w3.org/2000/svg"><path fill="#F0F3FA" d="M0 0h18v18H0z"/><path d="M5.25 11.09s-.53-1.34.58-1.78c1.11-.44 1.32-.92.09-2.03-1.24-1.11-1.31-3.43.88-3.27 2.42.17 2.04 2.32 2.02 2.78-.02.46-.18 2.29 1.13 2.18 1.31-.1 1.8-2.2 2-2.7.27-.68 1.04-1.95 2.43-1.45 1.18.41.37 1.92.07 2.08 0 0 .49-1.32-.59-1.32s-1.81 2.43-1.88 2.68c-.06.25-.51 2.3-2.02 2.15-1.51-.16-1.6-1.73-1.63-3.44-.03-1.7-.84-2.23-1.62-2.2-.71.03-1.16 1.05.01 2.15 1.08 1.01 1.06 2.2.43 2.7-.63.49-1.47.02-1.9 1.47Z" fill="#F57F29"/><path d="M5.21 11.52s.37.88.85.49-.1-1.8-1.58-2.87-1.7-1.65-1.31-2.08c.54-.6 6.17.16 5.43 6.94l-1.2-.48s.1-3.16-.7-4.15C5.96 8.4 4.9 7.65 4.53 8.2c-.24.34.66.92 1.09 1.49.43.56 2.1 2.81.9 3.29-1.2.47-1.3-1.46-1.3-1.46Zm9.53-4.4s-.04.55-1.56.7c-1.43.14-2.77.2-1.66 2.36 1.11 2.16.23 2.29-.27 2.02-.5-.26-1.97-1.72-.25-5.2l-1.49.08s-1.26 6.29 2.02 6.15c1.38-.05 1.57-1.14.67-2.66-.9-1.53-.23-1.78.86-2.05 1.14-.27 1.66-.44 1.68-1.4Z" fill="#008599"/></svg>