<!-- by TradingView --><svg width="18" height="18" viewBox="0 0 18 18" xmlns="http://www.w3.org/2000/svg"><path fill="#F0F3FA" d="M0 0h18v18H0z"/><path d="M10.65 3.04a.44.44 0 0 0-.43.05.16.16 0 0 0-.07.1.15.15 0 0 0 .03.13c.13.15.3.18.49.08a.2.2 0 0 0 .07-.3.2.2 0 0 0-.09-.06ZM10.36 10.76c0-.1.04-.11.12-.06.54.42.75.94.62 1.57-.03.14.02.23.16.27l.12.02a.15.15 0 0 0 .2-.14V12c0-.15.05-.17.16-.07l.78.78c.07.08.17.11.27.11.2 0 .29.1.25.35a.17.17 0 0 0 .17.2c.16 0 .28-.06.36-.21.05-.1.03-.18-.07-.25a.58.58 0 0 0-.14-.07.64.64 0 0 1-.24-.15l-1.06-1.06c-.1-.1-.09-.16.07-.16h.32a.21.21 0 0 0 .2-.18.2.2 0 0 0-.01-.1c-.05-.14-.16-.2-.31-.17a1.4 1.4 0 0 1-1.5-.6c-.08-.11-.05-.16.09-.14.36.04.71.04 1.04 0 .1-.02.15-.1.14-.22a.18.18 0 0 0-.18-.17h-1.61a.18.18 0 0 1-.13-.05l-.58-.57a.14.14 0 0 1-.04-.14.15.15 0 0 1 .1-.1l.68-.2c.03-.02.06-.02.1-.02l.09.03 1.51.8a.17.17 0 0 0 .2-.02l.1-.11a.12.12 0 0 0-.02-.2l-1.02-.53c-.12-.06-.12-.12 0-.18.57-.29 1.07-.24 1.48.14l.17.09c.1.03.15.04.18.03.32-.1.33-.24.04-.42l-.24-.14c-.12-.07-.11-.13.02-.17l1.19-.35a.2.2 0 0 0 .11-.1c.02-.04.03-.09.02-.14l-.03-.1a.16.16 0 0 0-.2-.1l-1.14.33c-.12.04-.16 0-.1-.11.1-.22.1-.4.01-.56a.12.12 0 0 0-.07-.06c-.08-.02-.17.03-.25.14a.38.38 0 0 0-.04.07c-.17.58-.58.92-1.21 1.02-.13.02-.17-.03-.1-.15l.5-.94c.03-.07.02-.13-.05-.17l-.08-.03a.17.17 0 0 0-.21.03c-.2.24-.4.55-.56.92-.26.61-.62.68-1.24.8-.12.03-.16-.01-.13-.12l.2-.8c.02-.1.08-.17.17-.22l1.38-.73a.15.15 0 0 0 .08-.1.2.2 0 0 0-.02-.14l-.05-.1c-.07-.13-.18-.16-.3-.07l-.89.6c-.11.08-.16.05-.14-.1.09-.7.45-1.14 1.07-1.34.11-.03.16-.1.16-.22v-.1c0-.08-.04-.12-.13-.12-.14 0-.33.08-.54.22-.14.08-.18.05-.15-.1l.33-1.3a.11.11 0 0 0-.04-.12.12.12 0 0 0-.04-.03l-.13-.03a.2.2 0 0 0-.14.02.2.2 0 0 0-.09.12l-.3 1.17c-.03.13-.08.14-.16.03L9.4 4.7a.11.11 0 0 0-.2.04l-.06.2c0 .03 0 .07.02.1l.4.75c.02.05.02.1 0 .15l-.18.75c-.03.13-.08.14-.14.02l-.49-.9a.15.15 0 0 0-.18-.09l-.1.03c-.12.04-.16.12-.1.23.19.49.47.93.83 1.34.03.04.04.08.02.13l-.25 1.01a.07.07 0 0 1-.09.06l-.03-.02-.65-.65a.3.3 0 0 1-.09-.22V6.08c0-.09-.04-.15-.13-.17l-.11-.03c-.13-.03-.19.02-.19.15v1.12c0 .12-.04.14-.13.05l-.52-.5a.36.36 0 0 1-.1-.27v-.84a.17.17 0 0 0-.18-.18h-.15c-.1 0-.13.05-.11.15.05.22.03.36-.04.44-.08.08-.15.08-.22-.01a3 3 0 0 0-1.06-.9.1.1 0 0 0-.1.1v.12a.28.28 0 0 0 .09.2l.77.76c.05.06.05.11-.01.16-.1.08-.22.1-.4.1-.08-.01-.12.02-.12.1v.1c0 .1.05.16.15.17.3.05.53.05.72 0 .18-.04.34 0 .47.14l.45.45c.1.1.08.15-.07.15H6.08c-.09 0-.13.05-.13.14v.09c0 .14.07.2.2.2h1.48a.5.5 0 0 1 .36.15l.53.54a.1.1 0 0 1-.04.15l-.74.22a.28.28 0 0 1-.22-.02L6 8.31a.18.18 0 0 0-.2.03l-.07.06a.16.16 0 0 0-.05.14.17.17 0 0 0 .1.12l.96.52a.1.1 0 0 1 .04.16.1.1 0 0 1-.06.04l-.49.14a.68.68 0 0 1-.54-.05l-.73-.4c-.08-.04-.15-.02-.2.07l-.04.09a.17.17 0 0 0-.01.13c.01.04.04.08.08.1l.32.17c.16.08.16.15-.02.2l-1.14.34a.2.2 0 0 0-.14.2l.02.08.05.08c.01.03.04.05.07.06.03.02.07.02.1.01l1.16-.34c.14-.04.17 0 .1.12l-.16.3a.2.2 0 0 0 0 .19c.04.06.08.1.13.11.1.04.19.01.24-.09l.37-.69c.05-.1.13-.16.23-.2l.56-.16c.21-.06.27 0 .16.2l-.45.84c-.05.1-.02.15.09.18l.14.04c.1.02.16-.01.2-.1l.68-1.26a.44.44 0 0 1 .21-.2c.22-.1.5-.17.8-.2.12 0 .17.05.14.16l-.18.73c-.03.1-.1.18-.2.22-.4.18-.85.44-1.34.79a.2.2 0 0 0-.1.17v.1a.13.13 0 0 0 .14.14c.02 0 .05 0 .07-.02l.98-.52c.18-.1.25-.04.21.16-.11.53-.43.9-.95 1.1a.33.33 0 0 0-.18.17.34.34 0 0 0-.03.24.16.16 0 0 0 .16.11l.07-.01.45-.24c.07-.04.1-.02.08.06L7.5 14a.18.18 0 0 0 .13.2l.1.03a.16.16 0 0 0 .2-.11l.3-1.22c.03-.09.06-.1.1-.02.09.18.15.27.19.27.48.12.59-.02.31-.42l-.3-.44a.39.39 0 0 1-.06-.32l.18-.73c.04-.13.1-.14.16-.02l.47.88a.2.2 0 0 0 .24.1l.15-.04c.06-.02.07-.06.04-.12L8.9 10.5a.23.23 0 0 1-.02-.16l.18-.74c.04-.13.1-.15.2-.05l.55.54c.07.07.1.15.1.24v1.43c0 .17.08.27.25.32l.1.02c.07.02.11-.01.11-.1v-1.23ZM4.67 4.61a.24.24 0 0 1 .33.21c0 .06-.02.1-.05.15a.7.7 0 0 1-.24.18.16.16 0 0 1-.22-.07c-.1-.22-.04-.38.18-.47ZM14.87 7.62c-.13.06-.28-.02-.35-.17-.07-.14-.03-.31.1-.37.12-.06.28.02.35.17.07.14.02.31-.1.37Z" fill="#26ABE3"/><path d="M8.86 7.4c.1.02.14.1.12.2-.05.2-.2.3-.43.27a.24.24 0 0 1-.22-.3.24.24 0 0 1 .07-.1c.1-.11.25-.13.46-.08ZM10.29 7.9a.17.17 0 0 0-.07-.1c-.14-.1-.26-.12-.37-.05a.26.26 0 0 0-.07.38c.03.03.07.06.12.08.13.05.25-.02.37-.2a.16.16 0 0 0 .02-.12ZM7.49 8.8c.1.1.27.11.37.01.09-.1.07-.26-.04-.36-.11-.1-.27-.11-.37-.02-.09.1-.07.26.04.37ZM10.65 9.35a.27.27 0 0 1-.55 0c0-.15.13-.27.28-.27.15 0 .27.12.27.27ZM8.1 10.18c.14-.06.21-.2.16-.31-.04-.12-.2-.17-.33-.11-.14.05-.21.2-.16.3.04.12.2.17.33.12ZM9.52 10.09a.39.39 0 0 0-.18-.04c-.11 0-.17.07-.18.18-.02.17.04.3.18.37.1.06.17.04.22-.06a.65.65 0 0 0 .04-.28c0-.09-.02-.15-.08-.17ZM3.2 10.39c.08-.01.2 0 .32.02a.17.17 0 0 1 .12.11.17.17 0 0 1-.03.16c-.2.23-.37.25-.55.07a.21.21 0 0 1-.05-.22.22.22 0 0 1 .18-.14ZM7.86 14.73a.27.27 0 1 1-.55 0 .27.27 0 0 1 .55 0Z" fill="#26ABE3"/></svg>