<!-- by TradingView --><svg width="18" height="18" viewBox="0 0 18 18" xmlns="http://www.w3.org/2000/svg"><path fill="#F0F3FA" d="M0 0h18v18H0z"/><path fill-rule="evenodd" d="M3.35 7.12c.45-.74 1.67-1.84 3.8-1.72-1.42 1.03-2.57 2.88-2.57 4.29A4.34 4.34 0 0 0 9.05 14c2.5 0 4-2.1 4.51-3.27a.18.18 0 0 0-.08-.23.2.2 0 0 0-.27.08c-.3.54-.94 1.31-1.83 1.78V6.01c.93.05 1.41-.11 1.82-.56.5-.53.72-1.02.8-1.3.02-.08-.05-.15-.15-.15-.05 0-.1.02-.13.05-.27.27-.92.72-1.8.72-.5 0-1.14-.11-1.86-.25-.95-.17-2.04-.37-3.18-.37C4.9 4.15 3.6 5.37 3 7c-.03.07.01.15.09.19.09.04.2 0 .25-.08ZM5.94 8.9a4.34 4.34 0 0 1 1.9-3.43A7 7 0 0 1 8 5.5V10.86c-.01.17-.04.57-.21.73-.1.1-.16.22-.2.32l-.08.13A3.8 3.8 0 0 1 5.94 8.9Zm1.97 3.4c.57.31 1.21.48 1.84.48.45 0 .87-.1 1.25-.24V5.98c-.3-.03-.62-.07-1-.13v4.02c0 .53-.39.86-.5.97h-.01L7.9 12.3Z" fill="url(#ahemuflgj)"/><defs><linearGradient id="ahemuflgj" x1="10.61" y1="15.04" x2="10.61" y2="5.14" gradientUnits="userSpaceOnUse"><stop/><stop offset="1" stop-color="#4F4D4D"/></linearGradient></defs></svg>