<!-- by TradingView --><svg width="18" height="18" viewBox="0 0 18 18" xmlns="http://www.w3.org/2000/svg"><path fill="#F0F3FA" d="M0 0h18v18H0z"/><path d="M11.4 9H13v5H8.5A4.91 4.91 0 0 1 4 9.01 4.85 4.85 0 0 1 8.82 4c1.25 0 2.66.35 3.54 1.1l-1.29 1.09c-.54-.4-.99-.63-2.25-.63a3.42 3.42 0 0 0-3.21 3.45 3.41 3.41 0 0 0 2.89 3.43h2.9V9Z" fill="#363435"/><path d="M10 9h1v3H8.65C7.35 12 6 10.88 6 9c0-1.87 1.5-3 3-3 1.05 0 1.11.2 1.61.62l-.61.8C9.8 7.27 9.56 7 9 7c-1 0-2 .63-2 2 0 1.38.82 1.9 1.65 2H10V9Z" fill="#F68634"/></svg>