<!-- by TradingView --><svg width="18" height="18" viewBox="0 0 18 18" xmlns="http://www.w3.org/2000/svg"><path fill="#F0F3FA" d="M0 0h18v18H0z"/><path fill="#494E62" d="M4 4h10v10H4z"/><path d="M5.5 12.96 5.83 14h.34l.33-1.38-1 .34Z" fill="#FFE3AD"/><path d="M4 13.65V14h1.83l-.33-1.04-1.5.7Z" fill="#C98D2D"/><path d="m5 11.75-1-.17v-.7l.67-1.03.33 1.9Z" fill="#CA8B2E"/><path d="m5 11.75-1-.17v1.38l1-1.2Z" fill="#A16B2B"/><path d="m4.17 12.67-.17.3v.68l2.67-1.03-.67-.35-1.83.4Z" fill="#FCC438"/><path d="m6 12.27-1.83.4.83-.92 1 .52Z" fill="#FEF8E2"/><path d="m4.67 9.85.33 1.9 2.33-.92-2.66-.98Z" fill="#EEB220"/><path d="M7.33 10.83 5 11.75l1.67.87.66-1.79Z" fill="#C48F29"/><path d="m5.83 9.33-1.16.52 2.66.98-1.5-1.5Z" fill="#FDFBFC"/><path d="m7.33 10.83-.66 1.79 2-.7v-.17l-1.34-.92Z" fill="#FFCA65"/><path d="M6.5 12.62h.17l1.66.86-1 .52H6.17l.33-1.38Z" fill="#FCBD30"/><path d="m7.17 12.44-.5.18 1.66.86-1.16-1.04Z" fill="#DD9E25"/><path d="m7.33 14 1-.52L9 14H7.33Z" fill="#EBAC20"/><path d="m8.67 11.75-1.5.7 1.16 1.03L9 14v-2.07l-.33-.18Z" fill="#FFC034"/><path d="m9.33 11.06-.66.7 1.33.68-.67-1.38Z" fill="#FBDA95"/><path d="m11.17 11.58-1.84-.52.67 1.38.33.18.84-1.04Z" fill="#FDF4E3"/><path d="M9 14v-2.07l.83.34L9 14Z" fill="#E3A423"/><path d="m10.33 12.62-.5-.35L10 14h.33l.34-1.04-.34-.34Z" fill="#D99E2A"/><path d="m10 14-.17-1.73L9 14h1Z" fill="#CB8F2D"/><path d="m11.17 11.58-.84 1.04.34.34 1 1.04H12l-.83-2.42Z" fill="#B57F27"/><path d="m11.67 14-1-1.04L11 14h.67Z" fill="#A2702E"/><path d="m10.33 14 .34-1.04L11 14h-.67Z" fill="#8C6427"/><path d="m12.5 11.93-1.33-.35L12 14l.5-2.07Z" fill="#EBAE20"/><path d="m14 13.3-1.5-1.37L12 14h2v-.7Z" fill="#DEA029"/><path d="M14 11.93h-1.5L14 13.3v-1.38Z" fill="#FFC03A"/><path d="m13.33 10.54-.83 1.39H14v-.87l-.67-.52Z" fill="#B98030"/><path d="m13.33 10.54-2.83.87.67.17 1.33.35.83-1.39Z" fill="#FDE8B9"/></svg>