<!-- by TradingView --><svg width="18" height="18" viewBox="0 0 18 18" xmlns="http://www.w3.org/2000/svg"><path fill="#F0F3FA" d="M0 0h18v18H0z"/><path d="M5.05 5.94c.9-.57 1.49-.89 2.83-1.61.47-.25.99-.42 1.5-.27.21.06.46.16.75.3 1.27.63 2.1 1.07 2.46 1.3l.34.28c.02.02.03.04.01.06a.98.98 0 0 1-.34.35A5.94 5.94 0 0 1 9 7.42a6.92 6.92 0 0 1-3.63-1.1 1.2 1.2 0 0 1-.34-.31.05.05 0 0 1 0-.04c0-.01 0-.02.02-.03Zm4.78.27c0-.2-.09-.38-.23-.52a.8.8 0 0 0-.55-.21.8.8 0 0 0-.54.21.71.71 0 0 0-.23.52c0 .2.08.38.23.52a.8.8 0 0 0 .54.21c.2 0 .4-.08.55-.21a.71.71 0 0 0 .23-.52ZM13.98 7.65l-2.23.49c-.07.01-.08 0-.03-.04a7.72 7.72 0 0 1 2.13-1.22c.02 0 .05.01.07.03.03.01.05.03.06.05l.02.08v.6l-.02.01ZM7.48 9.62c-1.46.59-3.48 2.01-3.48 2V7l.07-.03.02-.02a.07.07 0 0 1 .06 0A5.98 5.98 0 0 1 7.5 9.61h-.02Z" fill="#606062"/><path d="M9.96 13.96a5.62 5.62 0 0 1 1.35-5.45l2.65-.74a.03.03 0 0 1 .03 0v.02l.01.01v2.6c0 .34-.03.65-.07.95-.08.48-.43.81-.9 1.07l-2.59 1.44a2.13 2.13 0 0 1-.43.14.06.06 0 0 1-.04-.02v-.02ZM4.37 11.83a22.58 22.58 0 0 1 3.31-1.89.06.06 0 0 1 .04.03c.44.88.61 1.79.51 2.72-.04.4-.1.8-.16 1.2-.01.07-.05.09-.11.07-.6-.15-1.04-.44-1.61-.8-.67-.4-1.51-.7-2-1.2a.08.08 0 0 1-.02-.07l.01-.03.03-.03Z" fill="#EF9535"/></svg>