<!-- by TradingView --><svg width="18" height="18" viewBox="0 0 18 18" xmlns="http://www.w3.org/2000/svg"><path fill="#187FC1" d="M0 0h18v18H0z"/><path d="M9 4a5 5 0 0 1 4.9 6H4.1A5 5 0 0 1 9 4Z" fill="#fff"/><path fill-rule="evenodd" d="M10.94 7.98a1.14 1.14 0 0 1-2.11.73 1.12 1.12 0 0 1 .08-1.26 1.15 1.15 0 0 1 1.2-.41 1.12 1.12 0 0 1 .83.94Zm-1.02.96a.82.82 0 0 0 .7-.92.8.8 0 0 0-.92-.69.82.82 0 0 0-.7.92.8.8 0 0 0 .92.69Zm2.2-1.21-.04.01-.04-.01a23.1 23.1 0 0 1-.5-.6.32.32 0 0 0-.25-.13h-.1c-.13 0-.15.04-.08.13l.72.85c.05.07.09.16.09.25v.95l.01.04a.1.1 0 0 0 .05.03l.1.02c.05 0 .08 0 .1-.02a.1.1 0 0 0 .05-.03.06.06 0 0 0 .01-.04v-.95c0-.1.04-.18.1-.25l.7-.85c.08-.09.06-.13-.06-.13h-.11a.33.33 0 0 0-.25.12c-.15.19-.31.39-.5.6Zm-5.22-.7L6.84 7H5l-.06.03a.08.08 0 0 0-.02.06v.13c0 .07.03.1.1.1h.65c.03 0 .08.03.08.07v1.78c0 .04.01.06.05.08.02.01.05.02.11.02s.1 0 .11-.02a.08.08 0 0 0 .05-.08V7.4c0-.04.06-.07.1-.07h.65c.06 0 .1-.03.1-.1V7.1l-.03-.06Zm.48 2.16v-.84c0-.04.03-.06.07-.05.36.1.54.4.75.75l.08.13c.03.06.08.09.15.09h.31c.05 0 .06-.02.04-.06l-.7-.97c-.02-.02-.01-.05.02-.08.44-.36.27-1.09-.32-1.14A4.6 4.6 0 0 0 7.11 7c-.04 0-.06.02-.06.06v2.12c0 .05.03.08.1.08h.15c.06 0 .08-.03.08-.08Zm.02-1.85-.02.03V7.94l.01.02h.02l.02.01h.22c.05 0 .1 0 .14-.02a.39.39 0 0 0 .12-.06.3.3 0 0 0 .09-.1.25.25 0 0 0 .03-.11v-.05a.27.27 0 0 0-.11-.21.42.42 0 0 0-.26-.1h-.22c-.01 0-.03 0-.04.02Z" fill="#187FC1"/><path d="M13.37 11.5H4.62l-.03-.01-.02-.03-.23-.65a.08.08 0 0 1 0-.07l.03-.02H13.62l.02.02.01.04v.03l-.23.65-.02.03-.03.01ZM5.08 12h7.88l.02.03a.06.06 0 0 1 0 .06l-.5.58-.03.02H5.57a.05.05 0 0 1-.04-.02l-.48-.58-.01-.02v-.03c0-.01 0-.02.02-.03l.02-.01ZM9 13.22h2.58c.1 0 .1.03.03.08-.8.47-1.68.7-2.61.7-.93 0-1.8-.23-2.6-.7-.09-.04-.08-.08.01-.08H9Z" fill="#fff"/></svg>