<!-- by TradingView --><svg width="18" height="18" viewBox="0 0 18 18" xmlns="http://www.w3.org/2000/svg"><path fill="#F0F3FA" d="M0 0h18v18H0z"/><path fill-rule="evenodd" d="M8.63 3h-.14c-.7.5-1.07 1.2-1.1 2.08 0 .02-.01.02-.03 0a2.57 2.57 0 0 0-2.14-.7.25.25 0 0 0-.24.29c.01.07.04.13.1.18a.3.3 0 0 0 .22.07c.3-.01.57 0 .8.06.26.07.5.19.7.36.45.36.66.78.7 1.34v.78c0 .03-.01.04-.04.04h-.89a1.83 1.83 0 0 1-1.42-.99 1.94 1.94 0 0 1-.23-1.01v-.25a.28.28 0 0 0-.1-.2.26.26 0 0 0-.18-.07.26.26 0 0 0-.18.06.28.28 0 0 0-.09.2 2.6 2.6 0 0 0 .71 2.12c.02.01.02.02 0 .02A2.6 2.6 0 0 0 3 8.5v.13c.02.06.04.1.08.15.04.03.08.05.13.06h.15c.05-.02.1-.05.14-.1l.29-.28a1.95 1.95 0 0 1 1.3-.5 1.87 1.87 0 0 1 1.3.5l.5.52c.03.02.03.04 0 .06-.33.36-.58.6-.77.71a1.9 1.9 0 0 1-2.5-.36l-.13-.12c-.19-.19-.35-.15-.49.1v.15c.17.24.38.45.63.63.43.3.91.46 1.44.47.03 0 .03.01.01.03-.56.58-.79 1.3-.7 2.16 0 .07.04.13.1.17.05.03.1.05.18.04.07 0 .13-.03.18-.07a.26.26 0 0 0 .07-.2l.01-.4A2 2 0 0 1 6 10.66c.21-.1.44-.14.68-.15h.81l.01.02v.8c-.02.23-.05.46-.16.68a1.9 1.9 0 0 1-1.68 1.07l-.42.02c-.16 0-.24.1-.25.26v.01c0 .17.1.26.25.27.43.02.81-.02 1.15-.13a2.46 2.46 0 0 0 1-.6v.01A2.5 2.5 0 0 0 8.5 15h.13c.15-.06.22-.15.22-.26 0-.1-.06-.2-.17-.3a1.97 1.97 0 0 1-.72-1.62 1.9 1.9 0 0 1 .57-1.27l.45-.46h.05c.2.2.4.39.55.57a1.89 1.89 0 0 1 .25 2.15c-.12.24-.29.45-.5.63-.1.1-.16.19-.17.29 0 .1.07.2.2.27h.16c.7-.51 1.07-1.2 1.1-2.08 0-.02.01-.02.03 0 .57.54 1.27.78 2.11.7a.27.27 0 0 0 .26-.2.23.23 0 0 0-.05-.24.3.3 0 0 0-.23-.1 6.51 6.51 0 0 0-.5-.01 1.88 1.88 0 0 1-1.72-1.8l-.01-.58v-.16c0-.02.02-.03.03-.03h.73a1.83 1.83 0 0 1 1.8 1.58c.02.2.03.4.02.61 0 .1.02.18.07.24.05.05.11.08.18.09.07 0 .14-.01.2-.05.05-.05.09-.11.1-.2a2.6 2.6 0 0 0-.72-2.15l.01-.01c.52 0 1-.16 1.44-.46.23-.16.44-.37.64-.63v-.15c-.07-.14-.16-.21-.27-.21-.1 0-.2.05-.3.16a1.94 1.94 0 0 1-2.76.27l-.58-.57v-.05c.26-.26.43-.43.54-.52a1.9 1.9 0 0 1 2.24-.25c.2.12.41.3.62.52.08.1.17.13.27.12.1-.02.19-.08.24-.2v-.16a2.54 2.54 0 0 0-2.1-1.1v-.01c.55-.56.8-1.27.73-2.12a.29.29 0 0 0-.1-.2.26.26 0 0 0-.18-.07.26.26 0 0 0-.18.07.28.28 0 0 0-.09.21 10.04 10.04 0 0 0 0 .47 1.9 1.9 0 0 1-.58 1.25c-.44.44-1.03.53-1.63.52h-.33c-.02 0-.04 0-.04-.04v-.7a1.9 1.9 0 0 1 1.73-1.83 5.73 5.73 0 0 1 .5-.01c.09 0 .16-.03.21-.09a.27.27 0 0 0 .08-.18.26.26 0 0 0-.27-.28c-.41-.03-.8.01-1.14.12-.36.12-.69.32-.98.6h-.01A2.61 2.61 0 0 0 9.52 3h-.14c-.16.07-.23.17-.22.29 0 .1.07.2.2.3a2.03 2.03 0 0 1 .7 1.41 2.02 2.02 0 0 1-.59 1.47l-.44.44h-.05l-.48-.48a2 2 0 0 1-.55-1.45 2.06 2.06 0 0 1 .71-1.4c.12-.1.18-.2.18-.3 0-.12-.07-.21-.21-.28Zm-.6 3.76.48.5v.02l-.2.2v.02h-.28c-.01 0-.03 0-.03-.02v-.71l.01-.02h.02Zm1.93.74H9.7l-.01-.02-.2-.19v-.03l.47-.5h.02s.02 0 .02.02v.7l-.04.02ZM10 9.37v-.68a.23.23 0 0 0-.07-.17 53 53 0 0 1-.47-.47.13.13 0 0 0-.09-.04 6.7 6.7 0 0 0-.75 0 .1.1 0 0 0-.08.03l-.5.52a.1.1 0 0 0-.04.08v.72c0 .04.01.07.04.09l.51.51c.02.03.05.04.08.04h.74a.1.1 0 0 0 .07-.03l.52-.52a.11.11 0 0 0 .04-.08ZM7.5 8.3v-.27c0-.01 0-.03-.02-.03h-.71l-.02.02v.02l.51.47h.03l.2-.2V8.3Zm-.24 1.2-.5.47v.02h.72l.02-.01V9.7l-.01-.01-.2-.2c0-.02-.02-.02-.03 0Zm3.98-1.45-.5.47h-.03l-.2-.2v-.28c-.01-.01 0-.04.01-.04h.7c.02 0 .02.01.03.02v.03Zm-.74 1.92v-.28l.2-.2h.04l.5.47v.02l-.01.02h-.7c-.02 0-.03-.02-.03-.03Zm-1 .77.47.5h.02v-.72l-.01-.02h-.29v.01l-.2.2v.03Zm-1.2-.24h-.27c-.01 0-.03 0-.03.02v.7l.02.02h.03l.46-.5v-.03l-.19-.2-.01-.01Z" fill="#EC1C36"/></svg>