<!-- by TradingView --><svg width="18" height="18" viewBox="0 0 18 18" xmlns="http://www.w3.org/2000/svg"><path fill="#F0F3FA" d="M0 0h18v18H0z"/><path d="M14 4.65c0 .22-.03.43-.1.64-.05.15-.35 1.13-.56 1.64-.14.32-.37.63-.76.68-.5.06-1.15.03-1.15.03s-1.36 5.05-1.45 5.44c-.05.21-.14.52-.36.67-.22.16-.43.25-.63.25H6.15c-.51 0-.84-.24-.98-.63a.62.62 0 0 1 0-.38l1.37-5.12c.03-.01.05-.06.05-.14 0-.06-.04-.1-.12-.1l-.55.01c-.19 0-.4-.08-.66-.26a.95.95 0 0 1-.23-.9l.4-1.5c.08-.32.17-.53.27-.64.12-.14.3-.24.5-.3.12-.03.32-.04.6-.04h6.03c.34 0 .63.05.85.23.13.1.23.25.32.42Z" fill="#195AA3"/><path d="m13 5-.58 2h-1.78l-1.77 6H6.02l1.76-6H6l.58-2H13ZM8.3 6.68l-1.76 6h2l1.76-6h1.79l.39-1.36H6.9l-.39 1.36h1.79Z" fill="#fff"/></svg>