<!-- by TradingView --><svg width="18" height="18" viewBox="0 0 18 18" xmlns="http://www.w3.org/2000/svg"><path fill="#F0F3FA" d="M0 0h18v18H0z"/><path d="M11.18 11 13 13H3v-2h8.18Z" fill="#1D1A1C"/><path d="M15 8.01h-1.78c-.18-1.2-1.61-1.74-2.28-2.02.53.5.5.98.28 1.6C11 6.5 9.41 5.48 8.3 5.48c-.88 0-1.36.37-1.51.59.35-.18.84-.26.98-.26 1.25 0 1.61 1.47 1.68 2.2-.7-1.21-2.07-1.37-2.66-1.37C4.47 6.65 3.7 9 3.7 10H8.5c0-1.5 1.42-1.71 2.09-1.71.53 0 .8.26.88.33-.7-.17-1.47.2-1.47.88 0 .69.33.86.56 1H3V5h12v3.01Z" fill="#D06417"/></svg>