<!-- by TradingView --><svg width="18" height="18" viewBox="0 0 18 18" xmlns="http://www.w3.org/2000/svg"><path fill="#F0F3FA" d="M0 0h18v18H0z"/><path d="M5 14v-2.27l2.51 1.72c.33.05 1.58.11 2.47-.2.9-.32 1.58-1.56 1.86-2.04l.38-2.33L10.88 6H13v8H5Z" fill="#007F3D"/><path fill-rule="evenodd" d="M8.35 13.69c2.4 0 4.35-2.17 4.35-4.85C12.7 6.17 10.75 4 8.35 4 5.95 4 4 6.17 4 8.84c0 2.68 1.95 4.85 4.35 4.85Zm.3-.32c1.74 0 3.15-1.53 3.15-3.43 0-1.9-1.41-3.44-3.15-3.44S5.5 8.04 5.5 9.94s1.41 3.43 3.15 3.43Z" fill="#B8292F"/><path d="M8.17 7h2.14l-.5 1h1.39v.5H9.55l-1.08 2.13c-.1.3-.17.9.45.9s1.56-.81 1.95-1.2h.62A4.15 4.15 0 0 1 8.17 12C6 12 6.42 10.96 6.8 10.05l.03-.09.65-1.46H6.4V8h1.3l.47-1Z" fill="#007E3C"/></svg>