<!-- by TradingView --><svg width="18" height="18" viewBox="0 0 18 18" xmlns="http://www.w3.org/2000/svg"><path fill="#F0F3FA" d="M0 0h18v18H0z"/><path d="M9 6H2c0 1.13.65 1.5 1 1.5h1l-.54 2.84A1.31 1.31 0 0 0 4.63 12l.87-4.5h3c.3 0 .5.34.5.75 0 .33-.2.75-.5.75H7l1.2 1.5H9c.52.03 1.57-.51 1.57-2.25S9.52 6.03 9 6Z"/><path d="M9 12 6.55 9l-.56 1.97c-.16.9.51 1.03.87 1.03H9Z" fill="#2E3192"/><path d="M10.56 6h-.69a2.73 2.73 0 0 1 1.06 2.25c0 1.03-.51 1.94-.7 2.06l.33 1.69h1.26c.3 0 .78-.52.97-.83L16 6h-1.4c-.31 0-.74.66-.93.93l-1.85 2.8a81.8 81.8 0 0 1-.2-2.28c-.07-1.08-.7-1.42-1.06-1.45Z" fill="#040707"/></svg>