<!-- by TradingView --><svg width="18" height="18" viewBox="0 0 18 18" xmlns="http://www.w3.org/2000/svg"><path fill="#F0F3FA" d="M0 0h18v18H0z"/><path fill-rule="evenodd" d="m5.03 6.37 1.34-1.34.3.31-1.33 1.34-.3-.31Zm3.3.63L7 8.34 5.34 6.68 3 9.02l2.33 2.33-.3.3 1.34 1.33.3-.3L8.97 15l2.34-2.34.31.3 1.34-1.33-.31-.3L15 8.97l-2.32-2.32.29-.3-1.34-1.32-.29.29L9.02 3 6.68 5.34 8.33 7h1.34v1.33H8.33V7Zm3.01-1.67 1.34 1.33L11 8.34 9.67 7l1.67-1.67ZM11 9.67l1.66 1.65-1.34 1.34L9.67 11H8.34V9.67h1.33V11L11 9.67Zm0 0V8.34H9.67v1.33H11Zm-4.34 3.01 1.67-1.67L7 9.68l-1.67 1.67 1.33 1.33ZM7 9.67V8.34h1.33v1.33H7Z" fill="#DB0C14"/></svg>