<!-- by TradingView --><svg width="18" height="18" viewBox="0 0 18 18" xmlns="http://www.w3.org/2000/svg"><path fill="#F0F3FA" d="M0 0h18v18H0z"/><path d="M9 14A5 5 0 1 0 9 4a5 5 0 0 0 0 10ZM6 8.56 10 5v1.63l1 .3-1 1.03V13H8.6c-.2 0-.6-.12-.6-.6V9.16c0-.2-.3-.6-.79-.6H6Z" fill="url(#avpl21lod)"/><path d="M5.25 9.47c-.72-.5-.98-1.58-.79-2.57a5 5 0 1 1 7.13 6.38c.94-1.71 1.46-4.08.54-4.9-.76-.67-1.37-.76-1.95-.6l.82-.85-1-.3V5L6 8.56h1.21c.42 0 .7.28.77.49-.74.6-1.55 1.24-2.73.42Z" fill="url(#bvpl21lod)"/><path fill-rule="evenodd" d="M9 13.84a4.84 4.84 0 1 0 0-9.68 4.84 4.84 0 0 0 0 9.68ZM9 14A5 5 0 1 0 9 4a5 5 0 0 0 0 10Z" fill="#800F0F"/><defs><linearGradient id="avpl21lod" x1="9" y1="4" x2="9" y2="14" gradientUnits="userSpaceOnUse"><stop stop-color="#BE151B"/><stop offset="1" stop-color="#850203"/></linearGradient><linearGradient id="bvpl21lod" x1="9.2" y1="4" x2="9.2" y2="13.28" gradientUnits="userSpaceOnUse"><stop stop-color="#F1E2E2"/><stop offset="1" stop-color="#9D2F2F"/></linearGradient></defs></svg>