<!-- by TradingView --><svg width="18" height="18" viewBox="0 0 18 18" xmlns="http://www.w3.org/2000/svg"><path fill="#F0F3FA" d="M0 0h18v18H0z"/><path d="M7.3 11.8c-.4.4-.94.6-1.52.6a2.2 2.2 0 0 1-1.52-.6 1.98 1.98 0 0 1 0-2.88c.4-.39.95-.6 1.52-.6.58 0 1.12.21 1.52.6a1.98 1.98 0 0 1 0 2.89Zm1.37-5c.4-.39.94-.6 1.52-.6.57 0 1.11.21 1.52.6a1.98 1.98 0 0 1 0 2.89c-.4.39-.95.6-1.52.6a2.2 2.2 0 0 1-1.52-.6 1.98 1.98 0 0 1 0-2.89Zm1.52 4.08c.74 0 1.44-.27 1.96-.77a2.55 2.55 0 0 0 0-3.73 2.84 2.84 0 0 0-1.96-.77c-.74 0-1.44.27-1.97.77-.52.5-.8 1.15-.81 1.84a2.86 2.86 0 0 0-1.9-.48L7.74 5.6h-.89L3.81 8.5a2.55 2.55 0 0 0 0 3.73c.53.5 1.23.77 1.97.77s1.44-.27 1.97-.77c.52-.5.8-1.15.81-1.85.47.33 1.04.5 1.63.5Z" fill="#E7465A"/><path d="M12.1 12.7c-.15 0-.16-.12-.16-.24v-.59h.34v-.32h-.34v-.48l-.35.12v.36h-.34v.32h.34v.65c0 .3.1.48.4.48a1 1 0 0 0 .3-.03l-.02-.3a.34.34 0 0 1-.17.03ZM13.5 11.55c-.21 0-.43.09-.53.21v-.69h-.35V13h.35v-.65c0-.17.1-.53.39-.53.25 0 .3.31.3.47V13H14v-.93c0-.3-.15-.52-.5-.52Z" fill="#000F64"/><path d="m8.29 12.8.1.01.38-3.38a.43.43 0 0 0-.1-.33.47.47 0 0 0-.32-.16.47.47 0 0 0-.52.4v.07h.1l.01-.06c.02-.2.2-.33.4-.31.1 0 .18.05.24.12.06.08.1.16.08.26L8.3 12.8Z" fill="#E7465A"/><path d="m8.29 12.8.1.01.38-3.38a.43.43 0 0 0-.1-.33.47.47 0 0 0-.32-.16.47.47 0 0 0-.52.4v.07h.1l.01-.06c.02-.2.2-.33.4-.31.1 0 .18.05.24.12.06.08.1.16.08.26L8.3 12.8Zm.16.1h-.02l-.2-.01-.03-.02v-.03l.37-3.43a.24.24 0 0 0-.06-.19.27.27 0 0 0-.18-.1.27.27 0 0 0-.3.23v.12c-.01.02-.03.04-.06.04l-.2-.02c-.01 0-.02 0-.03-.02l-.01-.03.01-.11c.03-.3.31-.51.62-.48.15.02.28.08.38.2.1.1.14.24.12.39l-.38 3.43c0 .01-.01.03-.03.03Z"/><path d="m11.3 9.1-.16-.07c-.02 0-.04 0-.06.02v.03s-.03.41 0 .77l.01.13c.02.18.05.46.02.79-.08-.3-.28-.56-.44-.77a4.4 4.4 0 0 0-.25-.28c-.16-.17-.31-.33-.34-.49l.55-.24c.02 0 .03-.02.03-.04 0-.01 0-.03-.02-.04h.02c.03 0 .05 0 .06-.03l.3-.8.01.27v.08a3.77 3.77 0 0 1 .02.1v.01l.35.25c-.08.06-.1.2-.1.3Z" fill="#000F64"/><path d="M10.54 11.56c.15-.48.25-.9.3-1.27a1.9 1.9 0 0 0-.34-.46c-.13-.13-.28-.25-.37-.42-.15.17-.33.31-.47.5-.08.11-.13.24-.2.36l-.02.03a34.74 34.74 0 0 0 .1 1.07l.01.05a23.95 23.95 0 0 0 .16 1l.02.13.02.1a.2.2 0 0 1 0 .07l-.06.01c-.04 0-.1-.01-.13.02-.03.02-.02.07 0 .1.04.03.1.03.15.03h.08c.03 0 .08-.01.08-.05l.02-.1.03-.3.03-.2s.02-.06.04-.05c.02 0 0 .08 0 .1l-.06.52c0 .06.03.07.07.08h.14c.04 0 .11 0 .13-.05.02-.05-.02-.08-.06-.1l-.12-.01v-.06s.25-.45.45-1.1ZM9.14 8.06c.18.1.36.2.53.32.16.1.3.22.47.3.05-.1.13-.17.19-.26.07-.11.15-.21.25-.3a2.6 2.6 0 0 0 .3-.38c-.04-.4-.11-.8-.2-1.18a1.83 1.83 0 0 0-.34-.78c-.29-.02-.59-.01-.87.06-.18.04-.36.1-.5.2l-.2.12a.5.5 0 0 0-.05.34l.04.16a16.95 16.95 0 0 1 .38 1.4Z" fill="#FFD800"/><path d="M9.42 6.59a.1.1 0 0 0-.07.04c-.03.05-.04.13-.02.22.02.14.1.24.18.23.11-.01.1-.2.09-.27-.03-.13-.1-.23-.18-.22Z" fill="#fff"/><path d="m9.77 7.32.06.54.01.08c.01.05.02.05.04.06l.16-.02c.02 0 .03-.03.03-.06-.01-.14-.08-.5-.11-.64-.01-.04-.04-.03-.04-.03l-.13.02c-.03 0-.02.04-.02.05Z" fill="#F2A8C8"/><path d="M9.9 6.77c.01.07.08.23.2.2.06-.02.1-.15.06-.28-.03-.08-.07-.16-.12-.19a.1.1 0 0 0-.09 0c-.07.02-.1.13-.06.27Z" fill="#fff"/><path d="M9.56 6.82c.02.1 0 .17-.07.18-.06.02-.1-.06-.13-.15-.01-.1 0-.17.07-.18.06-.02.11.06.13.15ZM9.77 7.32l.06.54.01.08c0 .05.02.05.04.06l.16-.02c.02 0 .03-.03.03-.06-.01-.14-.08-.5-.11-.64-.01-.04-.04-.03-.04-.03l-.13.02c-.03 0-.02.04-.02.05Zm.12.73h-.02c-.07 0-.08-.07-.08-.1l-.01-.08-.02-.14-.02-.16v-.1l-.02-.1v-.09c0-.04.03-.05.04-.06l.16-.03c.03 0 .07 0 .1.08a5.68 5.68 0 0 1 .1.73c-.02.02-.06.03-.1.04a.61.61 0 0 1-.13.01ZM9.38 6.03c-.05-.04-.1-.06-.15-.04-.13.05-.18.26-.18.33v.03c0 .02.03.02.03 0 0-.04 0-.06.02-.09a.4.4 0 0 1 .08-.16.18.18 0 0 1 .07-.05l.04-.01c.02 0 .05.01.07.03.01 0 .04.03.05.01l-.03-.05ZM9.9 6.77c.01.07.08.23.2.2.06-.02.1-.15.06-.28-.02-.08-.07-.16-.12-.19a.1.1 0 0 0-.09 0c-.07.02-.1.13-.06.27Zm.22.25h-.01c-.04.02-.08.01-.11 0-.07-.05-.13-.13-.16-.24-.05-.17 0-.32.1-.34.04-.01.08 0 .12.01.07.04.13.13.16.23.04.15 0 .3-.1.34Z"/><path d="M9.93 6.76c.02.09.08.15.14.14.06-.02.08-.1.05-.2-.02-.09-.08-.15-.14-.14-.05.01-.07.1-.05.2ZM9.73 5.95c.02-.06.07-.1.12-.1.14 0 .27.16.3.22l.02.03c0 .02-.01.03-.03 0l-.05-.06a.42.42 0 0 0-.15-.11.2.2 0 0 0-.08-.02h-.04a.13.13 0 0 0-.06.06c0 .01-.02.05-.03.04-.02-.01 0-.05 0-.06ZM10.5 9.84v.06l-.12.73a191.4 191.4 0 0 0-.14.95h.02l.02-.03v-.03l.01-.04.01-.05a3.3 3.3 0 0 1 .02-.07l.13-.68c.09-.62.09-.74.09-.76v-.04l-.04-.04ZM9.76 10.57a39.64 39.64 0 0 1-.05-.4H9.7v.09l.01.48c0 .1.03.3.04.37v.03l.03.3.03.05h.01v-.04l-.06-.88Z"/><path d="M9.03 4.2c.48-.14 1.06-.14 1.14.07.02.05.02.1.01.16-.2-.1-.74-.07-1.12.03-.39.1-.79.35-.9.5a.35.35 0 0 1-.08-.14c-.04-.22.46-.5.95-.62ZM8.39 5.2c.04-.09.39-.33.77-.43.38-.1.87-.1.95-.02a.9.9 0 0 0 .03.62 3.69 3.69 0 0 0-1.43.38.95.95 0 0 0-.32-.55Z" fill="#000F64"/><path d="M8.15 6.48c-.04-.13.07-.3.3-.46.23-.17.58-.32.97-.43.85-.22 1.5-.11 1.57.13.03.13-.07.29-.29.44a2.04 2.04 0 0 0-.1-.21h.01a.05.05 0 0 0 .02-.06c-.07-.14-.44-.3-1.13-.11-.7.19-.99.53-.96.7 0 .03.03.04.05.04v.02l.02.04a.93.93 0 0 0 .03.14c-.27-.03-.46-.12-.5-.24ZM9.3 11.6c-.1-.3-.07-.61.04-.93l.06.6.02.11.05.42a1.16 1.16 0 0 1-.16-.2ZM11.02 11.21a2.3 2.3 0 0 1-.36.72l-.06-.13a7.62 7.62 0 0 0 .33-1.23c.1.2.15.41.1.64Z" fill="#E7465A"/><path d="m11 7.85-.36.96-.17-.03c-.03 0-.05.01-.06.03 0 .02 0 .04.02.06l.09.07-.3.13c.29-.37.62-1.03.77-1.34v.12ZM9.07 8.12c.12.15.24.3.38.45.18.2.39.37.62.51l-.01.02-.24-.01.01-.09v-.03a.04.04 0 0 0-.06-.01L9.66 9l-.56-.77-.03-.12Z" fill="#9E9E9F"/><path d="M9.3 9.55c0-.08 0-.19-.03-.33 0-.03-.04-.05-.07-.03l-.2.09a.58.58 0 0 0-.12-.32l.29-.25.01-.03-.03-.2.45.62c.01.02.04.03.07.02l.05-.04-.01.04c0 .03.01.06.04.06l.23.01c0 .07.02.14.05.2-.55.65-.85 1.24-.89 1.73-.04-.5.18-1.04.16-1.57Z" fill="#000F64"/><path d="M8.9 9.31a.4.4 0 0 1-.05-.06l.05-.02v.08Z" fill="#E7465A"/><path d="M11.64 9.08h-.02c-.02 0-.04 0-.07-.02l-.02-.02v-.02L11.48 9l-.08-.03v-.02l.05-.08.05.04h.06a.1.1 0 0 1 .05-.02c.1 0 .14.16.02.19Zm-.21.06c-.02-.02-.03-.05-.03-.1l.06.02v.01a.28.28 0 0 1-.03.07Zm-.12-.04-.17-.07c-.02 0-.04 0-.06.02v.03a5.94 5.94 0 0 0 .01.9c.02.18.05.46.02.79-.08-.3-.28-.56-.44-.77l-.25-.28c-.16-.17-.31-.33-.34-.49l.55-.24c.02 0 .03-.02.03-.04 0-.01 0-.03-.02-.04h.02c.03 0 .05 0 .06-.03l.3-.8.01.27v.08a3.77 3.77 0 0 1 .02.1v.01l.35.25c-.08.06-.11.2-.1.3Zm-.29 2.11c-.07.24-.18.48-.36.72l-.06-.13a6.97 6.97 0 0 0 .33-1.23c.1.2.15.41.1.64Zm-.48.35c-.2.65-.44 1.1-.45 1.1 0 .03-.02.04 0 .06 0 .01.08 0 .12.02.03 0 .08.04.06.1-.02.03-.09.04-.13.04H10c-.04 0-.08-.02-.07-.08l.06-.52c0-.02.02-.1 0-.1s-.04.04-.04.05l-.03.2-.03.3c0 .04 0 .06-.02.1 0 .04-.05.04-.08.05H9.7c-.05 0-.1 0-.14-.03-.03-.03-.04-.08 0-.1.03-.03.08-.02.12-.02l.06-.01a.2.2 0 0 0 0-.07c-.01-.06 0-.06-.02-.1l-.02-.13a8.33 8.33 0 0 1-.16-1v-.05l-.02-.11-.08-.85c.16-.33.4-.65.64-.93.07.1.16.2.25.3.09.1.17.18.24.28l.25.33a9 9 0 0 1-.29 1.17Zm-1.24.04c-.1-.3-.07-.61.04-.93l.06.6a35.54 35.54 0 0 1 .07.53 1.16 1.16 0 0 1-.17-.2Zm0-2.05c0-.08 0-.19-.03-.33 0-.03-.04-.05-.07-.03l-.2.09a.58.58 0 0 0-.12-.32l.29-.25.01-.03-.04-.2.46.62c.01.02.04.03.07.02l.05-.04-.01.04c0 .03.01.06.04.06l.23.01c0 .07.02.14.05.2-.55.65-.85 1.24-.89 1.73-.04-.5.18-1.04.16-1.57Zm-.4-.24a.4.4 0 0 1-.05-.06l.05-.02v.08Zm-.13-.1h-.02c-.01.03-.03.06-.08.07-.08 0-.11-.09-.07-.13l.06-.03h.07l.08-.06.01-.01.06.1v.01l-.11.04Zm.3-1.1c.12.16.24.31.38.46.18.2.39.37.62.51l-.01.02-.24-.01.01-.09v-.03a.04.04 0 0 0-.06-.01L9.66 9l-.56-.77-.03-.12ZM8.8 6.78l-.01-.02-.03-.09-.04-.16a.48.48 0 0 1 0-.2c.13-.14.38-.31.8-.43.42-.11.7-.1.86-.04.16.2.26.53.3.73.08.36.16.74.2 1.12l-.79.95-.97-.67-.09-.38a15 15 0 0 0-.23-.8Zm-.26-.29c0 .03.03.04.05.04v.02l.02.04a.92.92 0 0 0 .03.14c-.27-.03-.46-.12-.5-.24-.03-.13.08-.3.3-.46.24-.17.6-.32.98-.43.85-.22 1.5-.11 1.57.13.03.13-.07.29-.29.44a2.08 2.08 0 0 0-.1-.21h.01a.05.05 0 0 0 .02-.06c-.07-.14-.44-.3-1.13-.11-.7.19-.99.53-.96.7ZM8.39 5.2c.04-.09.39-.33.77-.43.38-.1.87-.1.95-.02a.9.9 0 0 0 .03.62 3.69 3.69 0 0 0-1.44.38.95.95 0 0 0-.31-.55Zm-.06-.06a3.45 3.45 0 0 1-.1-.1c.02-.09.42-.37.86-.49.43-.11.98-.1 1.07-.02l-.02.12v.02c-.18-.1-.67-.07-1 .02-.35.1-.71.3-.81.45Zm-.17-.18a.35.35 0 0 1-.08-.14c-.04-.22.46-.5.95-.62.48-.14 1.06-.14 1.14.07.02.05.02.1.01.16-.2-.1-.74-.07-1.12.03-.39.1-.79.35-.9.5Zm1.97 4.05a4.44 4.44 0 0 1-.93-.88l.87.6a.05.05 0 0 0 .07 0l.6-.73c-.16.32-.4.75-.6 1.01Zm.3-.14.09.07-.31.13c.3-.37.63-1.03.77-1.34l.02.12-.36.96-.18-.03c-.02 0-.04.01-.05.03 0 .02 0 .04.02.06Zm1.36.1a.17.17 0 0 0-.17-.15l-.05.01a.1.1 0 0 0-.04-.06l-.4-.3c0-.27-.03-.61-.03-.62l-.04-.3c0-.03-.03-.05-.06-.05-.04-.3-.1-.6-.17-.9l-.02-.07a2.62 2.62 0 0 0-.07-.26c.28-.2.4-.4.35-.57-.06-.22-.38-.33-.83-.33-.13-.24-.07-.48-.02-.7.04-.15.08-.3.03-.44-.1-.25-.65-.3-1.27-.13-.64.16-1.07.48-1.02.74.03.14.14.25.26.37.16.15.34.32.36.6-.08.04-.16.08-.22.13-.27.2-.39.4-.34.56.05.18.28.3.64.32a14.62 14.62 0 0 1 .27 1s-.03.04-.03.07v.01l.08.37.08.39-.33.3c-.02 0-.02.03-.01.06a1.2 1.2 0 0 1-.04.03h-.05c-.06 0-.1.04-.1.05a.14.14 0 0 0-.03.16.15.15 0 0 0 .16.1l.1-.05c.03.06.09.1.14.1h.04A.7.7 0 0 0 9 9.39l.18-.09a2.58 2.58 0 0 1-.06 1.04c-.1.58-.2 1.13.37 1.6l.13.67c-.1 0-.14.03-.16.06-.04.04-.05.1-.03.17.02.1.11.16.27.16l.17-.02h.01a1.29 1.29 0 0 0 .28.02c.16 0 .25-.06.26-.17 0-.1-.05-.17-.17-.2.07-.13.18-.37.3-.7l.06.12a.05.05 0 0 0 .04.03l.04-.02c.21-.27.34-.54.42-.8v-.02c.16-.52.11-1 .08-1.27l-.01-.13a5.63 5.63 0 0 1-.01-.7l.23.09c.07.02.12-.04.14-.1.03.02.06.02.08.02h.04c.09-.02.14-.1.13-.18Z"/><path d="M11.72 9.73a2.19 2.19 0 0 1-2.64.28l-.07.63a2.71 2.71 0 0 0 3.1-.54l-.39-.37Z" fill="#E7465A"/><path d="M10.67 8.93a.86.86 0 0 1-.38-.16.29.29 0 0 0 .03-.11.86.86 0 0 1 .25-.06s.02 0 .02-.02a.03.03 0 0 0-.02-.03c-.09 0-.18 0-.26.02a.24.24 0 0 0-.04-.08c.1-.11.23-.2.37-.26h.01c.03.03.04.07.06.1.02.08.03.15.03.23.01.09.02.33-.07.37Zm-.53-.16a.2.2 0 0 0-.03-.13c0-.02-.05-.01-.05.02v.11l-.02.01-.04.01-.03-.03c-.04-.07-.04-.2.04-.23.04-.02.1-.03.13-.02.1.03.1.25 0 .26Zm-.59.28c-.02 0-.04-.03-.05-.05-.08-.12-.14-.55-.04-.66.14.02.3.09.41.18a.23.23 0 0 0-.03.1.73.73 0 0 0-.24.02.03.03 0 0 0-.02.03c0 .02.02.03.03.02a.7.7 0 0 1 .23 0c0 .05.02.1.05.13-.1.1-.21.19-.34.23Zm1.3-.5c-.02-.11-.06-.46-.25-.4a.92.92 0 0 0-.37.3.22.22 0 0 0-.05-.03.28.28 0 0 0-.26.05.93.93 0 0 0-.17-.11.9.9 0 0 0-.28-.1c-.18-.02-.16.32-.15.43.01.15.07.54.31.42a.93.93 0 0 0 .3-.24l.05.01c.05 0 .08 0 .11-.02.05.02.12 0 .16-.03.1.08.22.15.35.18.26.07.25-.31.24-.46Z"/><path d="M9.55 9.05c-.02 0-.04-.03-.05-.05-.08-.12-.14-.55-.04-.66.14.02.3.09.41.18a.23.23 0 0 0-.03.1.73.73 0 0 0-.24.02.03.03 0 0 0-.02.03c0 .02.02.03.03.02a.7.7 0 0 1 .23 0c0 .05.02.1.05.13-.1.1-.21.19-.34.23ZM10.14 8.77a.2.2 0 0 0-.03-.13c-.01-.02-.05-.01-.05.02v.11l-.02.01-.04.01-.03-.03c-.04-.07-.04-.2.04-.23.04-.02.1-.03.13-.02.1.03.1.25 0 .26ZM10.67 8.93a.86.86 0 0 1-.38-.16.29.29 0 0 0 .03-.11.86.86 0 0 1 .25-.06s.02 0 .02-.02a.03.03 0 0 0-.02-.03c-.1 0-.18 0-.26.02a.24.24 0 0 0-.04-.08c.1-.11.23-.2.37-.26h.01c.03.03.04.07.06.1.02.08.03.15.03.23.01.09.02.33-.07.37Z" fill="#E7465A"/><path d="M11.64 9.08h-.02c-.02 0-.05 0-.07-.02l-.02-.02v-.02L11.48 9l-.08-.03v-.02l.05-.08a8.6 8.6 0 0 1 .08.05l.03-.01a.1.1 0 0 1 .05-.02c.1 0 .14.16.02.19Z" fill="#FFD800"/><path d="m10.33 9.32.33-.03-.06.37c.12-.01.2-.06.2-.12l.08-.4-.41.02c-.1.01-.12.06-.14.16Z" fill="#E7465A"/></svg>