<!-- by TradingView --><svg width="18" height="18" viewBox="0 0 18 18" xmlns="http://www.w3.org/2000/svg"><path fill="#F0F3FA" d="M0 0h18v18H0z"/><path fill-rule="evenodd" d="M3.02 11.98H3L3 11.95V8.27c0-.34.02-.59.07-.75.19-.68.76-1.24 1.45-1.43C4.7 6.04 5 6 5.43 6h9.54v.01h.01a.03.03 0 0 1 .02.02v3.7c0 .34-.02.59-.07.75a2.11 2.11 0 0 1-1.45 1.43c-.17.05-.48.09-.91.09H3.03l-.01-.02Zm8.17-3.68a.02.02 0 0 0 .02 0h.01l.64-.88c.17-.24.87-.5 1.12-.39l.03.02.01.04a.1.1 0 0 1-.01.08l-1.37 1.87a704.75 704.75 0 0 1-.02 1.46c0 .08-.06.16-.15.25-.17.14-.41.3-.6.24a.09.09 0 0 1-.05-.04.13.13 0 0 1-.02-.07V9.12a.1.1 0 0 0-.02-.06l-1.39-1.9-.01-.02a.09.09 0 0 1 0-.06l.02-.02c.17-.17.73.07.92.18a.9.9 0 0 1 .31.3l.56.76Zm-3.86 2.17v-2.8l.01-.01h.01c.3 0 .6 0 .9-.02a.56.56 0 0 0 .32-.14c.14-.1.28-.21.21-.42a.12.12 0 0 0-.04-.06A.08.08 0 0 0 8.7 7H5.17a.1.1 0 0 0-.07.03.14.14 0 0 0-.04.07c-.05.25.2.4.37.49.1.05.22.07.37.07h.68c.03 0 .04 0 .04.04v3.13c0 .12.05.18.14.17a.91.91 0 0 0 .62-.37c.04-.05.05-.1.05-.16Z" fill="#AB2457"/></svg>