<!-- by TradingView --><svg width="18" height="18" viewBox="0 0 18 18" xmlns="http://www.w3.org/2000/svg"><path fill="#F0F3FA" d="M0 0h18v18H0z"/><circle cx="9" cy="9" r="6" fill="#A71F2E"/><circle cx="9" cy="9" r="5.65" fill="#D71F21"/><path d="M13.4 9.4c0 3.12-1.28 5.25-4.4 5.25S3.67 12.1 3.67 8.97c0-2.55 1.39-4.69 3.72-5.38 1.88-.56 4.17.91 4.83 2A6.67 6.67 0 0 1 13.4 9.4Z" fill="url(#aaiel345j)"/><path d="M5 7.74a.5.5 0 1 0-1 0v1.69c0 .74.6 1.34 1.33 1.34h.34c.73 0 1.33-.6 1.33-1.34v-1.7a.5.5 0 1 0-1 0v1.6c0 .29-.22.52-.5.52a.51.51 0 0 1-.5-.52v-1.6Z" fill="#F0F3FA"/><path fill-rule="evenodd" d="M9.73 10.42c-.25.22-.56.35-.9.35-.83 0-1.5-.8-1.5-1.77S8 7.24 8.83 7.24c.34 0 .65.13.9.35a.5.5 0 0 1 .98.15v2.53a.5.5 0 0 1-.98.15ZM9.71 9c0 .45-.3.82-.67.82-.37 0-.67-.37-.67-.82 0-.45.3-.81.67-.81.37 0 .67.36.67.81Z" fill="#F0F3FA"/><path d="M13.86 9.9c.13.16.13.4-.04.52-.29.22-.66.35-1.05.35-1.12 0-1.77-.8-1.77-1.77s.68-1.76 1.77-1.76c.4 0 .75.13 1.05.34.18.13.17.39.01.55-.19.2-.53.16-.8.07a.77.77 0 0 0-.23-.03c-.53 0-.8.37-.8.83 0 .46.33.84.8.84.08 0 .16-.01.23-.04.28-.08.64-.12.83.1Z" fill="#F0F3FA"/><defs><linearGradient id="aaiel345j" x1="7.77" y1="3.47" x2="8.41" y2="7.39" gradientUnits="userSpaceOnUse"><stop stop-color="#D9B3B0"/><stop offset="1" stop-color="#D71F21"/></linearGradient></defs></svg>