<!-- by TradingView --><svg width="18" height="18" viewBox="0 0 18 18" xmlns="http://www.w3.org/2000/svg"><path fill="#F0F3FA" d="M0 0h18v18H0z"/><path d="M4.54 5.57a4.88 4.88 0 0 0-1.43-.24c-.07 0-.11-.04-.11-.11v-.07c0-.1.05-.15.16-.15 1.57.1 3.31.11 4.96 0 .12 0 .17.05.17.16v.06a.1.1 0 0 1-.03.07.1.1 0 0 1-.07.03c-.23.02-.49.05-.75.1-1.08.18-.95.73-.96 1.67a88 88 0 0 0 .03 3.9c0 .19.08.48.23.89.25.7.59 1.16 1.3 1.35.97.28 1.7.3 2.55.05 1.4-.4 1.9-1.57 1.92-2.86.02-1.16.03-2.5.01-4 0-.77-.4-.84-1.1-1a4.04 4.04 0 0 0-.64-.1c-.06 0-.09-.04-.09-.1v-.08c0-.02 0-.03.02-.05 0-.02.01-.03.03-.05a.15.15 0 0 1 .11-.03c1.3.1 2.75.1 3.96 0 .04-.01.08 0 .12.02.03.03.05.07.06.11v.09a.1.1 0 0 1-.02.07.1.1 0 0 1-.07.03c-.5 0-1.58.12-1.82.6a1.1 1.1 0 0 0-.08.47V9.3a7.21 7.21 0 0 1-.28 2.69A3.67 3.67 0 0 1 9.42 14c-2.04.02-4.31-.77-4.42-3.15V6.4c0-.29-.1-.7-.46-.83Z" fill="#0B0201"/></svg>