<!-- by TradingView --><svg width="18" height="18" viewBox="0 0 18 18" fill="none" xmlns="http://www.w3.org/2000/svg">
<rect width="18" height="18" fill="#005240"/>
<path fill-rule="evenodd" clip-rule="evenodd" d="M14 4H4V14H14V4ZM13.5 4.50001L4.5 4.49999V13.5L13.5 13.5V4.50001Z" fill="#F0F3FA"/>
<path fill-rule="evenodd" clip-rule="evenodd" d="M5 9H5.5V10.1706C5.5 10.402 5.71068 10.5714 5.98532 10.5714H6.01469C6.28933 10.5714 6.5 10.402 6.5 10.1706V9H7V10.1816C7 10.6317 6.56285 11 6.02855 11H5.97145C5.43715 11 5 10.6317 5 10.1816V9Z" fill="#F0F3FA"/>
<path fill-rule="evenodd" clip-rule="evenodd" d="M10.2253 9.55209C10.2987 9.50527 10.3877 9.47776 10.4832 9.47776H10.51C10.7608 9.47776 10.9867 9.64723 10.9867 9.87859V11H11.5075V9.86756C11.5075 9.41745 11.0105 9 10.5227 9H10.4705C10.298 9 10.1366 9.04611 10 9.12557L10.2253 9.55209Z" fill="#F0F3FA"/>
<path fill-rule="evenodd" clip-rule="evenodd" d="M11.7178 9.55209C11.7912 9.50527 11.8802 9.47776 11.9757 9.47776H12.0025C12.2532 9.47776 12.4792 9.64723 12.4792 9.87859V11H13V9.86756C13 9.41745 12.503 9 12.0152 9H11.963C11.7905 9 11.6291 9.04611 11.4925 9.12557L11.7178 9.55209Z" fill="#F0F3FA"/>
<path d="M8 8H7.5V10.0756C7.5 10.584 7.93512 11 8.46694 11H8.53306C9.06488 11 9.5 10.584 9.5 10.0756V9.92441C9.5 9.41598 9.06488 9 8.53306 9H8.46694C8.35115 9 8.26979 9.01973 8.16667 9.05583L8.38083 9.51039C8.4139 9.5036 8.44814 9.5 8.48323 9.5H8.51678C8.78637 9.5 9 9.68078 9 9.93852V10.0614C9 10.3192 8.78637 10.5 8.51678 10.5H8.48323C8.21364 10.5 8 10.3192 8 10.0614V8Z" fill="#F0F3FA"/>
<rect opacity="0.7" x="5" y="12" width="8" height="1" fill="#F0F3FA"/>
</svg>
