<!-- by TradingView --><svg xmlns="http://www.w3.org/2000/svg" width="18" height="18" viewBox="0 0 18 18"><path fill="#F0F3FA" d="M0 0h18v18H0z"/><path d="M9.13 10.53c.63-.95 1.29-1.94 1.41-3.17.17-1.65-.8-2.86-1.87-4.19L8.53 3c0 .34.05.7.1 1.08.1.61.2 1.28.1 2.03A8.33 8.33 0 0 1 7.49 9.2c-1.02 1.76-1.93 3.34.28 5.55.1.11.24.2.4.24h.01V15c.54.04 1.08-.03 1.57-.2.5-.18.95-.45 1.3-.8a4.61 4.61 0 0 0 .87-3.57 4.86 4.86 0 0 1-1.9 2.54c-.76.54-1.18.9-1.44 1.18.27-.35.63-.72 1.02-1.12 1.44-1.46 3.22-3.27 1.53-5.53 0 1.43-.9 2.44-1.76 3.4-.68.76-1.33 1.5-1.5 2.37.1-1 .68-1.85 1.27-2.73zm-.99 4.4l.02.03-.02-.03zM7.01 7c.45-.75.9-1.5.98-2.47.63 1.35-.5 3.86-1.23 5.46-.3.65-.53 1.16-.53 1.36-.6-2.04.1-3.2.78-4.35z" fill="url(#atp4x5qkt)"/><defs><linearGradient id="atp4x5qkt" x1="6" y1="8.31" x2="10.84" y2="13.13" gradientUnits="userSpaceOnUse"><stop stop-color="#DE6029"/><stop offset=".44" stop-color="#E43328"/><stop offset=".75" stop-color="#CF2518"/><stop offset="1" stop-color="#880C16"/></linearGradient></defs></svg>