<!-- by TradingView --><svg width="18" height="18" viewBox="0 0 18 18" xmlns="http://www.w3.org/2000/svg"><path fill="url(#a)" d="M0 0h18v18H0z"/><path fill-rule="evenodd" d="M9 14.65a5.65 5.65 0 1 0 0-11.3 5.65 5.65 0 0 0 0 11.3ZM9 15A6 6 0 1 0 9 3a6 6 0 0 0 0 12Z" fill="#FFFEFD"/><path d="M6 7H5v1.88C5 9.24 5.3 10 6.5 10S8 9.25 8 8.87V7H7v1.88c0 .12-.2.37-.5.37S6 9 6 8.87V7ZM9 7 8 8.5 9 10h1L9 8.5 10 7H9Z" fill="#FFFEFD"/><path fill-rule="evenodd" d="M10.9 7c-.5 0-.9.5-.9 1.13v.74c0 .63.4 1.13.9 1.13h1.2c.5 0 .9-.5.9-1.13v-.74C13 7.5 12.6 7 12.1 7h-1.2Zm.6 2.25c.28 0 .5-.34.5-.75s-.22-.75-.5-.75-.5.34-.5.75.22.75.5.75Z" fill="#FFFEFD"/><path fill="#FFFEFD" d="M5 11h8v1H5z"/><defs><linearGradient id="a" x1="3.35" y1="3.12" x2="21.9" y2="24.43" gradientUnits="userSpaceOnUse"><stop stop-color="#1A1E21"/><stop offset="1" stop-color="#06060A"/></linearGradient></defs></svg>