<!-- by TradingView --><svg width="18" height="18" viewBox="0 0 18 18" xmlns="http://www.w3.org/2000/svg"><path fill="#F0F3FA" d="M0 0h18v18H0z"/><path d="M12.3 9.01a5.11 5.11 0 0 1-1.47 1.46l-.01.02h-.03a9.2 9.2 0 0 1-2.63 1.14l-2.9.9-.02.02v.03c-.16-.02-.24-.1-.24-.25 0-.87.56-1.63 1.32-2.03.14-.07.38-.16.71-.27l2.02-.64a2.52 2.52 0 0 0 .72-.4h.03c.5-.38.85-.87 1.01-1.46.08-.33.06-.62-.06-.87-.22-.48-.72-.69-1.24-.66-.43.03-.91.23-1.35.37v.02a99.42 99.42 0 0 0-1.41.43c-.3.1-.6.11-.88.05a1.33 1.33 0 0 1-.74-.49A1.3 1.3 0 0 1 5 5.8c0-.24.13-.34.36-.42L8.9 4.26c.42-.14.8-.22 1.16-.25 1.66-.14 2.97.82 2.95 2.56a4.62 4.62 0 0 1-.7 2.44Z" fill="#0B8A3B"/><path d="m8.16 6.39 1.1.35c.52.19 1.04.45 1.55.79-.16.6-.5 1.08-1.01 1.45h-.04a2.5 2.5 0 0 0-.64-.35l-2.1-.67c-.34-.1-.57-.2-.72-.27a2.45 2.45 0 0 1-1.17-1.3c.22.26.46.42.74.48.28.06.58.04.88-.05a99.37 99.37 0 0 1 1.4-.43ZM12.3 9.01c.48.77.71 1.62.7 2.55-.02 1.39-.98 2.32-2.33 2.43a4.08 4.08 0 0 1-1.55-.18c-1.3-.4-2.59-.82-3.88-1.23v-.03l.02-.02 2.9-.9.94.3c1.02.29 1.95-.3 1.72-1.44v-.02l.03-.03a5.11 5.11 0 0 0 1.45-1.43Z" fill="#075324"/></svg>