<!-- by TradingView --><svg width="18" height="18" viewBox="0 0 18 18" xmlns="http://www.w3.org/2000/svg"><path fill="#454393" d="M0 0h18v18H0z"/><path d="M12.05 11.15c-.02-.19-.05-.2-.12-.03a4.88 4.88 0 0 1-1.67 2.2c-.53.38-1.13.6-1.8.67-1.43.13-2.49-.8-3.01-2.23-.26-.7-.4-1.51-.44-2.43-.04-.94.02-1.8.18-2.56a4.1 4.1 0 0 1 .7-1.6.4.4 0 0 1 .21-.16c.04-.02.08 0 .12.01.17.11.16.54.12.72C6.12 6.85 6 7.94 6 9c0 1.48.22 3.93 2.13 4.03 1.86.1 3.22-1.58 3.62-3.54.1-.53.17-1.07.2-1.62.06-1.32.1-2.14.14-2.48.01-.13.1-.3.24-.26.33.06.54.41.63.75a2 2 0 0 1 .03.65c-.07.8-.04 1.92-.05 4.06 0 .63 0 2.44-.5 2.72a.13.13 0 0 1-.16-.03 3.36 3.36 0 0 1-.17-.87l-.06-1.26Z" fill="#fff"/></svg>