<!-- by TradingView --><svg width="18" height="18" viewBox="0 0 18 18" xmlns="http://www.w3.org/2000/svg"><path fill="#F0F3FA" d="M0 0h18v18H0z"/><path d="M6.66 8.76c-.09 0-.16.02-.21.06h-.03v-.04a.4.4 0 0 1 .38-.04c.03.01.04.03.03.06l-.05.18c0 .02-.02.04-.05.04L6.7 9c-.02-.01-.02-.02 0-.04.03-.06.05-.12.03-.16-.01-.03-.03-.05-.07-.05ZM6.46 8.97l.15.1v.06h-.04a.47.47 0 0 1-.18-.24l.02-.03c.02-.01.03-.01.03.02v.04c0 .02 0 .03.02.05Z" fill="#A9B9C2"/><path d="m6.95 9.13-.09-.02c-.03 0-.04-.02 0-.04.02-.02.06-.02.1 0 .03.02.03.04 0 .06h-.01Z" fill="#BFCCD3"/><path d="M6.34 9.15c.03.07.08.12.17.14.03 0 .03.02 0 .04l-.01.02h-.04l-.18-.17v-.01l.03-.03c.01-.02.03-.01.03 0ZM6.74 9.17c0-.02.01-.03.03-.02.03.01.04.03.04.05 0 .01 0 .02-.02.02h-.02c-.02-.02-.03-.03-.03-.05ZM6.93 9.28c.03.02.05.04.05.06 0 .03 0 .04-.03.03a.32.32 0 0 1-.09-.06c-.01-.01 0-.02.01-.03a.06.06 0 0 1 .06 0ZM6.32 9.75c.04.03.09.03.1 0 .03-.02.02-.07-.02-.1-.04-.02-.09-.02-.11 0-.02.03-.01.08.03.1ZM5.98 10.03c.1 0 .2-.08.2-.18 0-.1-.1-.18-.2-.18s-.2.08-.2.18c0 .1.1.18.2.18ZM6.64 9.75l.02-.02h.03c.02.02.02.05.02.07 0 .02-.02.03-.03.02-.03-.02-.04-.04-.04-.07ZM6.42 10.03c0-.03.02-.04.05-.05.03 0 .04.01.04.04s-.02.05-.05.05c-.04 0-.05 0-.04-.04Z" fill="#A9B9C2"/><path d="M5.65 10.49c.14 0 .25-.1.25-.23s-.11-.23-.25-.23-.25.1-.25.23c0 .12.11.23.25.23Z" fill="#26AED8"/><path d="m6.17 10.37-.1.03c-.06 0-.1.06-.08.1l.02.08c.01.04.06.07.12.06l.1-.02c.06-.01.1-.06.08-.1l-.02-.08c-.01-.05-.07-.08-.12-.07ZM5.47 10.96c.12 0 .2-.08.2-.19 0-.1-.08-.18-.2-.18-.1 0-.2.08-.2.18 0 .1.1.19.2.19Z" fill="#A9B9C2"/><path d="M6.38 11.12c.12 0 .22-.09.22-.2 0-.1-.1-.2-.22-.2s-.22.1-.22.2c0 .11.1.2.22.2Z" fill="#26AED8"/><path d="M5.48 11.11c.02.07.05.14.1.2-.04.04-.08.05-.14.04 0-.1-.04-.15-.1-.17.03-.06.08-.08.14-.07Z" fill="#E3E9ED"/><path d="M5.48 11.11c.06 0 .1.04.12.08.02.05 0 .09-.02.12a.65.65 0 0 1-.1-.2ZM5.44 11.35a.14.14 0 0 1-.08-.05c-.03-.04-.03-.08-.02-.12.06.02.1.08.1.17ZM6.34 11.55c.1 0 .17-.07.17-.16 0-.08-.08-.15-.17-.15-.1 0-.17.07-.17.15 0 .09.08.16.17.16ZM6.27 11.83a.2.2 0 0 1-.07.16.25.25 0 0 1-.17.07.25.25 0 0 1-.18-.07.2.2 0 0 1-.07-.16.2.2 0 0 1 .07-.15c.05-.05.11-.07.18-.07.06 0 .12.02.17.07.05.04.07.1.07.15ZM5.49 12.03l-.07.05a.1.1 0 0 0-.03.16l.07.08c.04.05.12.06.18.02l.07-.05a.1.1 0 0 0 .02-.16l-.07-.08a.14.14 0 0 0-.17-.02Z" fill="#A9B9C2"/><path d="M5.18 12.27c.05 0 .07.01.07.06v.05c0 .03-.02.05-.05.05-.04 0-.07-.02-.1-.06-.03-.05 0-.08.08-.1Z" fill="#0993B6"/><path d="m11.41 6.87-.68 2.16 2.61.6.6-2.13c.22-.67-.22-1.35-.98-1.49-.68-.12-1.36.25-1.55.86Z" fill="url(#a)"/><path d="m10.12 11.08.6-2.04 2.63.6-.63 2.08c-.2.65-.94 1.03-1.66.85-.71-.17-1.13-.84-.94-1.5Z" fill="url(#b)"/><path d="m9.12 6.2-.77 2.44 2.94.66.69-2.39c.23-.76-.26-1.52-1.12-1.68-.76-.14-1.52.28-1.74.97Z" fill="url(#c)"/><path d="m7.66 10.94.68-2.3 2.97.67-.72 2.35c-.22.73-1.06 1.16-1.87.96-.8-.2-1.27-.95-1.06-1.68Z" fill="url(#d)"/><path d="m5.82 5.2-.93 2.93 3.55.8.82-2.87c.28-.92-.3-1.84-1.34-2.03-.93-.17-1.84.34-2.1 1.16Z" fill="url(#e)"/><path d="m4.06 10.9.82-2.76.3.07-.83 2.77c-.22.74.26 1.5 1.06 1.7.82.22 1.68-.21 1.9-.96l.87-2.84.27.07-.86 2.83c-.27.89-1.28 1.4-2.25 1.16s-1.54-1.15-1.28-2.03Z" fill="url(#f)"/><defs><linearGradient id="a" x1="11.17" y1="7.89" x2="13.59" y2="8.54" gradientUnits="userSpaceOnUse"><stop stop-color="#F0F3FA"/><stop offset="1" stop-color="#9EB2BB"/></linearGradient><linearGradient id="b" x1="13.47" y1="10.4" x2="10.16" y2="10.59" gradientUnits="userSpaceOnUse"><stop stop-color="#007FA2"/><stop offset="1" stop-color="#26B3E8"/></linearGradient><linearGradient id="c" x1="8.84" y1="7.35" x2="11.57" y2="8.08" gradientUnits="userSpaceOnUse"><stop stop-color="#F0F3FA"/><stop offset="1" stop-color="#9EB2BB"/></linearGradient><linearGradient id="d" x1="11.44" y1="10.17" x2="7.71" y2="10.39" gradientUnits="userSpaceOnUse"><stop stop-color="#007FA2"/><stop offset="1" stop-color="#26B3E8"/></linearGradient><linearGradient id="e" x1="5.48" y1="6.58" x2="8.77" y2="7.46" gradientUnits="userSpaceOnUse"><stop stop-color="#F0F3FA"/><stop offset="1" stop-color="#9EB2BB"/></linearGradient><linearGradient id="f" x1="8.61" y1="9.98" x2="4.12" y2="10.25" gradientUnits="userSpaceOnUse"><stop stop-color="#007FA2"/><stop offset="1" stop-color="#26B3E8"/></linearGradient></defs></svg>