<!-- by TradingView --><svg width="18" height="18" viewBox="0 0 18 18" xmlns="http://www.w3.org/2000/svg"><path fill="#F0F3FA" d="M0 0h18v18H0z"/><path d="M8.52 14C5.54 14 4.99 12.76 5 10.56V5h2.1c.05 0 .08.04.06.07-.09.23-.15.43-.15.68C7 7.47 6.99 8.73 7 10.36c0 .98.48 1.63 1.52 1.64 1.07.01 2.47-.42 2.47-1.33.01-1.58.02-2.9.01-4.83 0-.28-.07-.53-.22-.75-.03-.06-.01-.09.07-.09h2.27c.1 0 .12.04.08.1-.1.19-.18.4-.2.63v6.63c0 .52.18.87.47 1.28.03.03.04.07.03.11 0 .04-.03.08-.07.1-.15.11-.46.16-.7.15-1-.04-1.37-.46-1.62-1.25-.02-.06-.08-.09-.13-.09-.42 0-1.53 1.34-2.46 1.34Z" fill="#003D24"/></svg>