<!-- by TradingView --><svg width="18" height="18" viewBox="0 0 18 18" xmlns="http://www.w3.org/2000/svg"><path fill="#F0F3FA" d="M0 0h18v18H0z"/><path d="M14.76 10 15 9c-1.68 1.77-5.32 2.7-7.46 2.7-1.7 0-3.74-.15-4.54-.24.87.18 3.02.54 4.61.54 3.75 0 6.33-1.34 7.15-2Z" fill="#00569F"/><path d="M11.81 10.54c-.58.3-1.27.46-2.05.46-.79 0-1.3-.15-1.56-.46-.26-.3-.27-.71-.02-1.22h1.67c-.17.4 0 .55.53.55.47 0 .76-.11.87-.33.06-.11.05-.2-.03-.25a1.3 1.3 0 0 0-.52-.14l-.6-.08c-.99-.14-1.32-.65-.87-1.5.22-.43.55-.78 1-1.07.52-.33 1.21-.5 2.09-.5 1.47 0 1.97.53 1.52 1.58h-1.57c.13-.32 0-.46-.48-.46-.43 0-.7.1-.8.31-.1.17.01.28.33.32l.6.08c1.25.17 1.6.63 1.16 1.48-.27.52-.7.93-1.27 1.23Z" fill="#00569F"/><path d="M4.51 11c-1.18 0-1.88-.68-1.3-1.91L4.61 6h1.52l-1.4 3.05c-.2.42-.07.63.38.63.44 0 .77-.2.96-.63L7.48 6H9L7.58 9.09A3.29 3.29 0 0 1 4.51 11Z" fill="#00A54A"/></svg>