<!-- by TradingView --><svg width="18" height="18" viewBox="0 0 18 18" xmlns="http://www.w3.org/2000/svg"><path fill="#F0F3FA" d="M0 0h18v18H0z"/><path d="M12 8.74C12 6.03 9.83 3.78 8.75 3c.08.35.2 1.2 0 1.83C8.5 5.6 6 7.17 6 10.04c0 2.3 1.5 3.57 2.25 3.92a6.7 6.7 0 0 1-.5-2.61A3.7 3.7 0 0 1 9 8.74c.08.26.25.94.25 1.56 0 .79-.75 2.1-.75 3.13 0 .84.67 1.4 1 1.57-.17-.09-.4-.42 0-1.04.5-.79 2.5-1.83 2.5-5.22Z" fill="#6198FD"/><path d="M8.67 14.14c0-.14.04-.3.11-.44.14-.3.34-.56.55-.85.53-.73 1.14-1.56.96-3.07-.2-1.67-.62-3.04-1.04-3.39-.05.16-.34.56-.65 1l-.56.83-.1.16a4.43 4.43 0 0 0-.9 3.23c.08.74.24 1.34.41 1.8.3.26.58.44.8.55a6.7 6.7 0 0 1-.5-2.61A3.7 3.7 0 0 1 9 8.74c.08.26.25.94.25 1.56 0 .37-.16.84-.33 1.35-.2.6-.42 1.23-.42 1.78 0 .27.07.5.17.71Z" fill="#35346D"/><path fill-rule="evenodd" d="M9.35 14.24c.04-.09.08-.18.15-.28.11-.18.3-.37.52-.59.77-.78 1.98-2 1.98-4.63 0-2.28-1.53-4.23-2.67-5.26-.21-.2-.4-.36-.58-.48.04.16.08.43.1.74.02.35 0 .75-.1 1.09-.07.23-.34.53-.69.9C7.24 6.66 6 8.04 6 10.05a4.44 4.44 0 0 0 2.04 3.8l.21.12a3.92 3.92 0 0 1-.26-.77 7.37 7.37 0 0 1-.24-1.84A3.57 3.57 0 0 1 9 8.74a5.51 5.51 0 0 1 .25 1.56c0 .37-.16.84-.33 1.35a7.17 7.17 0 0 0-.42 1.78c0 .13.02.26.04.37.06.21.15.4.26.56a2.14 2.14 0 0 0 .7.64c-.14-.07-.33-.32-.15-.76Zm-.3-.5c0-.03.02-.05.03-.07.15-.23.38-.46.59-.67l.08-.09a5.34 5.34 0 0 0 1.75-4.17c0-1.21-.49-2.35-1.13-3.3-.32-.47-.68-.89-1.01-1.23-.02.26-.05.53-.14.78a1.7 1.7 0 0 1-.27.49c-.1.14-.23.3-.37.44l-.16.18c-.24.26-.5.55-.75.88-.62.8-1.17 1.8-1.17 3.06 0 1.1.39 1.93.84 2.5-.05-.36-.09-.76-.09-1.2a4.27 4.27 0 0 1 1.44-3.02l.56-.46.22.71c.1.3.28 1.03.28 1.73 0 .28-.06.56-.14.82-.06.23-.14.48-.22.7l-.04.13c-.2.57-.35 1.07-.35 1.48 0 .1.02.2.04.3Z" fill="#35346D"/><path d="M8.65 9.26c.13.56.52 1.3.26 1.85-.22.46-.75 1.3-.5 1.8-.33-.68-.58-1.57-.27-2.2.2-.42.6-1.02.5-1.45Z" fill="#F44240"/><path fill-rule="evenodd" d="M8.6 9.77c-.08.23-.2.46-.32.67l-.14.27c-.22.46-.15 1.07.03 1.62.07.2.15.4.24.58a.9.9 0 0 1-.03-.59 4.43 4.43 0 0 1 .53-1.21c.19-.4.04-.88-.1-1.34l-.03-.06c-.05-.16-.1-.3-.13-.45.03.15 0 .33-.06.51Zm.09.3c-.06.14-.13.27-.2.39l-.03.07-.14.26c-.13.27-.15.6-.09.97l.05.21.02-.05a7.24 7.24 0 0 1 .43-.9c.1-.2.08-.46 0-.78a4.19 4.19 0 0 0-.04-.17Z" fill="#35346D"/></svg>