<!-- by TradingView --><svg width="18" height="18" viewBox="0 0 18 18" xmlns="http://www.w3.org/2000/svg"><path fill="#F0F3FA" d="M0 0h18v18H0z"/><path d="M6 7.5a3.8 3.8 0 0 0-.2.6H3V7.5l.01-.01H6ZM12.03 7.54a.1.1 0 0 1-.01-.03V7.5h2.95c.01 0 .02 0 .02.02v.56c0 .01 0 .02-.02.02H12.2l-.01-.01c-.05-.2-.1-.4-.16-.55ZM6 10.5H3L3 10.49V9.9H5.82v.01c.05.2.11.39.19.58ZM12 10.46a3.9 3.9 0 0 0 .18-.56h2.8V10.5H12v-.04Z" fill="#D71920"/><path fill-rule="evenodd" d="M10.58 6.78a.21.21 0 0 1-.08-.03h.06v-.01a.01.01 0 0 0 0-.01c-.07-.08-.19-.1-.3-.1h-.02a.13.13 0 0 0-.06-.03h-.01a.02.02 0 0 0 0 .03l.02.1.02.01c.1.08.18.17.22.3v.01h.02v.01l-.01.02v.02l.01.05c0 .04 0 .07.04.08l.01.02v.01l.02.01c.02 0 .04.01.04.04l.01.02c.02 0 .03.01.03.03l.04.03a.03.03 0 0 0 .03 0 .03.03 0 0 0 .01-.03v-.05h.02l.12.1c.02 0 .03.04.02.06v.02l.01.02.06.05v.01h-.01a.25.25 0 0 1-.1-.12v-.02a.12.12 0 0 1-.06-.06l-.02.02.01.04.05.08a.6.6 0 0 1 .08.1v.03l-.02.01c-.02 0-.03.02-.03.05l.01.06v.02l-.04.02-.01.01v.02c.02.02.01.05 0 .09h-.05v.02l.01.01V8h-.03l-.03.01-.01.01v.03l.01.01.04.02c.04.01.07.03.12.03h.37c.04 0 .04-.01 0-.04l.01-.02c0-.02.01-.02.02 0v.02h.03c0-.03.01-.03.02 0 .02.04.04.04.08.04h.02a36.73 36.73 0 0 1 .62-.01c-.5-1.57-2.28-2.45-3.97-1.95A3 3 0 0 0 6 8.1h.24l.01-.01a2.65 2.65 0 0 1 .84-1.18.18.18 0 0 0-.02.04l-.03.06-.08.1-.06.11a.6.6 0 0 1-.03.06v.03l-.02.04a.44.44 0 0 0-.06.09.36.36 0 0 1-.07.11l-.01.02c-.01.1-.04.17-.08.24a1.73 1.73 0 0 0-.15.28h1.84c.02 0 .04 0 .06-.03l.02-.01h.15c.07.02.12.01.14-.04 0-.01 0-.02.02-.02l.02-.01c.06-.01.09-.04.08-.09l-.02-.01c-.02-.02-.04-.03-.04-.05l-.01-.02a.16.16 0 0 0-.06-.03l-.02-.01a.1.1 0 0 0-.04-.06V7.7c.02-.01.02-.02.02-.03l-.05-.16v-.04c0-.03-.02-.03-.03 0a.23.23 0 0 1-.07.09h-.02l-.05-.06v-.02c0-.03.01-.04.03-.06a.01.01 0 0 0 0-.02.12.12 0 0 1-.07-.09.02.02 0 0 0-.02 0c-.02.01-.05 0-.08-.01h-.03l-.06.14-.02.02c-.03.01-.03.03-.03.05.03.1 0 .16-.06.2l-.02.02a.15.15 0 0 0-.04.02v.02c-.01.05-.02.12-.06.16h-.04l-.01-.01a.33.33 0 0 1 .02-.19.03.03 0 0 0 0-.02l-.01-.01H7.9a.12.12 0 0 1-.08-.06l-.1-.14v-.08c-.06-.07.13-.17.19-.2.02 0 .04-.02.06-.04l.03-.02h.02c.02 0 .05-.01.07-.04a.01.01 0 0 0 0-.01c-.02 0-.02-.01-.03-.02v-.01c.01 0 .03 0 .05.02h.01a.1.1 0 0 1 .04-.04h.01v.02l.13-.05.01-.02c0-.03.02-.06.05-.08V6.9a.1.1 0 0 0 0-.04l-.03-.01c-.02 0-.03.01-.02.03l-.01.02-.11.09h-.02v-.03a.18.18 0 0 1 .06-.06l.01-.02v-.01c-.02 0-.03.01-.05.03H8.2l.01-.02v-.05l.02-.01c.04-.01.06-.05.05-.1h-.01l-.1.06v.06l-.15.11v-.02a.1.1 0 0 0 .03-.03c0-.02 0-.03-.03-.02L8 6.9h-.02l-.05-.02V6.8l.05-.02v.04l.01.02c.03 0 .04-.01.05-.03l.01-.01h.03l.01-.01v-.04l.01-.02a.96.96 0 0 1 .12-.12H8.2c-.03 0-.05.02-.06.04v-.01l.01-.02V6.6l-.02-.01v-.02c.04 0 .05-.03.05-.07h-.01l-.25.09v.02s0 .01 0 0H8v.02l-.04.02c-.02 0-.02.01 0 .02h.02v.03h-.08c-.03 0-.04.03-.05.08l.01.01h.02l.02.02c0 .01 0 .02-.02.02a.1.1 0 0 0-.06.04H7.8l.02-.02c0-.02 0-.02-.02-.02h-.03l-.01-.01V6.8h.04l.01-.03.01-.08v-.02c-.03 0-.03 0-.02-.01l.07-.06-.16.02c-.01 0-.02 0 0-.02a.32.32 0 0 0 .07-.1l.01-.02a3.01 3.01 0 0 1 2.7.13h-.01v.01h-.01c-.02-.02-.03-.02-.05-.02v.02a.9.9 0 0 1 .09.04l.07.06.1.1h.02l.02.02a.36.36 0 0 1-.12-.05l-.02-.01Zm.32.62c-.02.02-.02.04 0 .06h-.01l-.01.01v.04c.04.03.07.04.09.03l.01-.01.02-.04.02-.02h.01v-.01l-.01-.04a2.82 2.82 0 0 1-.13-.21l-.01-.02-.01-.02v-.03c.02-.02.02-.03.02-.05l-.01-.01-.01-.01h-.05l.01.06a.01.01 0 0 1-.01 0 1.06 1.06 0 0 1-.13-.08.36.36 0 0 1-.07-.07s0-.02-.02-.03c-.03-.05-.06-.1-.1-.1-.03 0-.03 0-.02.02.01.02.04.05.08.07l.01.02c.02.07.07.14.15.2h.04l.05.06v.04l.01.03a3.02 3.02 0 0 0 .08.1Zm0-.18h.02l.05.06c-.04 0-.06-.02-.06-.06Zm.7.62a.1.1 0 0 0-.01-.04.1.1 0 0 0-.03-.02.04.04 0 0 1-.02-.04.2.2 0 0 0 0-.06v-.01l.05.1.01.02c.05.03.08.1.1.16v.02h-.05l-.01.08c0 .03-.02.03-.04.02l-.02-.02-.08-.26.01-.01a.02.02 0 0 1 .02 0 .02.02 0 0 1 .01 0c0 .03.02.05.04.07h.01Zm-.68-.49s-.02 0-.03-.02l-.02-.04.03.03.02.03ZM9.42 6.3c-.04.02-.06 0-.1 0a.24.24 0 0 0-.04-.03l.14.02c.02 0 .02 0 0 .01Zm.01.33c-.01 0-.02 0-.02-.02l-.04-.04-.02-.02a.15.15 0 0 0-.04-.05.2.2 0 0 1-.04-.03.92.92 0 0 0-.1-.1.06.06 0 0 0-.06-.03.02.02 0 0 1-.02 0 .22.22 0 0 0-.06-.05h-.01v.04L9 6.33c-.01 0-.02 0-.02-.02l-.02-.01c-.1.02-.2.06-.26.1l-.05.05v.01h.04a.2.2 0 0 1-.18.02v.02l.01.01a.03.03 0 0 1 0 .03.2.2 0 0 0-.06.06v.01h.06c.04.01.1.02.12-.03l-.01-.02h-.06a.01.01 0 0 1-.01 0v-.02H8.67l.02.01.01-.01a.16.16 0 0 1 .08-.06l.03-.02a.22.22 0 0 1 .1-.06h.01v.03l-.04.02a.42.42 0 0 0-.05.01l-.02.02.01.02h.01c.02.01.02.02 0 .02H8.8l-.02.01v.04h.02c.1-.03.12.05.13.12v.06a.1.1 0 0 0-.01.05l.01.01h.05c.02.02.02.03.02.05h-.02l-.04-.01-.02.01c0 .06 0 .1.02.1a.03.03 0 0 0 .02 0 .03.03 0 0 0 .01-.03V6.9H9c.02.05.02.07-.01.1s-.05.05-.04.09v.07l.02.03.01.04H9v.05c0 .04.03.06.05.08l.02.02.02.05v.01h.02c.05-.02.07 0 .1.04l.01.01h.02v-.01c0-.07.01-.14.04-.2V7.16a.11.11 0 0 1 .08-.01l.02-.02.05-.12.02-.01.05-.02.02-.02a.25.25 0 0 1 .03-.04.06.06 0 0 0 .02-.05c0-.02 0-.03-.02-.05l-.06-.09H9.4v-.01h.04v-.03a.26.26 0 0 1-.01-.06Zm.2-.17.02-.02V6.4l-.1-.01-.07-.04a.16.16 0 0 0-.12-.02c.04.04.08.06.12.06.04 0 .06.02.1.03l.04.03h.02Zm-1.32 0h.02l.02.02h.02c.02-.04.05-.05.08-.03h.03l.09-.04h.02v.02l-.01.01v.01c0 .03 0 .03.02.03.04 0 .05-.04.05-.07v-.01a.01.01 0 0 0-.02 0h-.05l-.26.04H8.3l-.01.01c0 .01 0 .02.01.01Zm-.06.09.04-.02h.02a.1.1 0 0 0 .11-.03c.02-.02.01-.03-.01-.02 0 0-.02 0-.03.02a.02.02 0 0 1-.03 0 .08.08 0 0 0-.05-.02l-.02.01-.03.05c-.01 0-.01.01 0 0Zm.15.02c.02 0 .03.01.04.03h.01a.17.17 0 0 0 .05-.07l-.01-.03h-.03a.2.2 0 0 0-.07.06v.01h.01Zm-.2.16.08-.02h.01l.03-.02h.02c.04 0 .06-.01.07-.02.04-.03.03-.05-.02-.05 0 0-.02 0-.03.02a.27.27 0 0 1-.06.04v-.02l.05-.04c.02 0 .01-.01 0-.01-.04 0-.07.01-.08.04h-.04l-.02.01a.1.1 0 0 1-.02.07Zm.3.22h.01c.03.06-.02.12-.07.15v.05l-.01.02h-.1s-.02 0-.03.02l-.02.05c0 .01 0 .02.02.01l.07-.03a.03.03 0 0 1 .03 0v.03l.02.07.01.01h.01a.3.3 0 0 1 .13.02h.01v-.02l-.07-.07.01-.01c.05 0 .08.02.1.05h.02v-.01h-.02l-.01-.01a.02.02 0 0 1 0-.02c.02-.03.02-.04 0-.05-.03-.04-.03-.07-.02-.1h.02l.06.08h.01a.25.25 0 0 1 .08-.1.01.01 0 0 0 0-.02h-.04l-.01-.01L8.68 7 8.67 7a.08.08 0 0 1-.04-.03v-.02c.05-.06.05-.11-.01-.16v-.02c0-.02 0-.04-.03-.05v-.01l.02-.04v-.01l-.13-.01h-.03l-.01.01c-.06.04-.14.09-.1.16l.02.02c.03 0 .05.02.07.05h.01v-.02c-.01 0-.02-.01-.02-.03h.06l.02.01v.07l-.01.01v.01h.01Zm-.37-.14c.01.01 0 .04-.02.05-.02.02-.05.03-.06.02 0-.01 0-.04.03-.05.02-.02.04-.03.05-.02Zm.32.2L8.46 7h.04v-.02h-.06V7h.01Zm1.28.1-.03.04c-.01 0-.01 0 0 0v-.02l.01-.01V7.1l-.03-.03h-.01c-.01.04 0 .07.03.1h.02c.01 0 .02.01.02.03 0 .01 0 .02.01.01.02 0 .04 0 .07.02h.02l.02-.02.02-.02c.02-.02.03-.04.02-.08L9.9 7.1a.12.12 0 0 1-.06-.05.02.02 0 0 0-.03 0c0 .02-.01.02-.02.03h-.02l-.03.01ZM8.1 7.2l.03-.04h.02v.03c0 .01 0 .02.01.01h.02v-.08c-.02-.04-.04-.04-.06 0a.12.12 0 0 1-.04.04c-.01 0-.02.02-.01.03 0 .02.02.02.03.01Zm.04.03-.03.03h-.04l.03-.02h.04Zm.05.04c-.02.02-.02.02-.01.03a.02.02 0 0 0 .02 0V7.3a.02.02 0 0 0-.01 0Zm-1.42.14a.22.22 0 0 1 .04-.07s.01 0 0 0v-.02c-.02 0-.03.02-.04.04a.14.14 0 0 0-.02.05v.01h.01l.01-.01Zm3.6.12h.02v.01l.01.04.02.01c.02 0 .04.01.04.04v.01h.01c.03 0 .06 0 .09.05.01.01 0 .02-.02.03v.04c.02.01.02.03 0 .05l.02.02.07-.02v.01c-.04.02-.06.05-.05.1h.01a.28.28 0 0 1 .15-.09c.01 0 .02 0 .01-.02l-.01-.01v-.02l-.01-.06-.02-.01c-.03 0-.04 0-.05-.03l-.02-.02a2.6 2.6 0 0 1-.13-.1c-.03-.02-.03-.04-.04-.07a.79.79 0 0 0-.01-.03h-.04c-.02.02-.03.01-.02-.02l-.01-.02c0-.01 0-.02-.02-.02h-.01l-.01.02.01.1.02.01Zm-.04-.01-.03-.04v-.05c.02 0 .03.02.03.04v.05Zm-2.28.08v.04h.01c.02-.02.01-.03 0-.04h-.01Zm2.33.06v.03l-.01.01-.01.02v.03c0 .01 0 .02.02.02l.02.01v.08l.02.01a.03.03 0 0 0 .03 0c.05-.04.06-.08.02-.14v-.06c-.02-.02-.04-.03-.08-.03h-.01v.02Zm-1.59.41.01.01h-.08c0-.06.03-.09.07-.1.02-.01.03 0 .01.02l-.03.04c0 .01 0 .02.02.03Zm-.33 0a.1.1 0 0 1 .06 0v.02c-.02 0-.04 0-.06-.02Zm.04 2.47c.04 0 .07.01.1.04l.06.06.1.02h.06c.07.03.11.07.14.13l.03.07v.04c0 .02 0 .03-.03.03l-.02.01a.07.07 0 0 0-.02.02c0 .03 0 .04.03.01.06-.04.1-.05.1-.03l.02.02s0 .02-.02.02c0 0 0 .01 0 0l.04-.02a.03.03 0 0 1 .03 0l.1.03.01.02.01.02h.05l.07.01c.05 0 .1.01.16.06h.01l.05.01a.02.02 0 0 1 .01.02c.03.06.02.1-.02.13a3.49 3.49 0 0 0-.18.16c-.01.07-.03.11-.05.13a.56.56 0 0 0-.09.08l-.02.01-.2.06v.02l-.02.03a.01.01 0 0 0 .01.01 2.97 2.97 0 0 0 2.15-.93.21.21 0 0 0 .03-.06c.01-.03.01-.05 0-.07 0-.03 0-.05.02-.08l.09-.16c.01-.04.01-.06 0-.07a.02.02 0 0 0-.02 0l-.04.03c-.02.02-.03.02-.03-.01v-.05h-.05a3 3 0 0 1-.2.12.26.26 0 0 1-.08.03.16.16 0 0 0-.1.05l-.03.01h-.03l-.12-.1-.01-.02-.01-.03c-.01-.04-.03-.09-.06-.12a1.35 1.35 0 0 0-.04-.06l-.02-.1a.38.38 0 0 0 .04-.24l.01-.01h1.46c.02 0 .02 0 .02.02a3.04 3.04 0 0 1-1.31 1.61c-1.14.7-2.64.6-3.67-.2A3.02 3.02 0 0 1 6.01 9.9h.24a2.88 2.88 0 0 0 2.16 1.8l-.11-.2a.63.63 0 0 1-.2-.1 1.54 1.54 0 0 1-.14-.14.47.47 0 0 0-.07-.08.67.67 0 0 1-.15-.14.03.03 0 0 1 0-.04l.02-.01v-.02c-.03-.02-.04-.03-.04-.05a.3.3 0 0 1 .05-.17l.01-.02h.01v-.15l-.01-.02-.03-.02-.01-.03c0-.02-.02-.04-.05-.05h-.02v.05h-.01a.13.13 0 0 1-.06-.03l-.02-.01-.04-.02-.02-.01-.05-.07h-.03l-.01-.01c-.01-.05-.04-.1-.1-.17l-.01-.02A.37.37 0 0 1 7.1 10l-.04-.03a.1.1 0 0 0-.05-.02.2.2 0 0 1-.12-.04V9.9h.4v.01l-.01.11v.02l.08.01c.06 0 .1 0 .14.08v.02a.39.39 0 0 0 0 .13c0 .05.05.1.07.13.01.02.03.02.04.02h.04c.05-.03.08 0 .11.04l.04.04h.02v-.04a.09.09 0 0 0 .03-.06l.02-.02c.05 0 .09-.02.12-.05h.03v.01c.01 0 .01 0 0 0v.02l-.02.01v.01c0 .01.01.02.03.01l.06-.01-.01-.02v-.01l.08.05v.01c.01.03.04.03.07.02h.02c.04.03.08.03.13 0a.04.04 0 0 1 .03.01l.02.01v.02c0 .01.01.02.04.02l.02.01v.04Zm-.53-.58-.02-.04H8.06c.02.02.05.04.09.05v.03h-.1c-.02.02-.03.02-.04.01h-.03l-.09-.03v-.02a.9.9 0 0 0 .07.02c.01 0 .02 0 .01-.02Zm-.21-.01a.2.2 0 0 1 .03.02V10h-.05a.07.07 0 0 1-.03-.03v-.01h.05Zm.5.1.02-.03-.03-.01-.03.01c0 .01.01.02.03.02Zm.22.38h.01l.01.03h-.02v-.03Z" fill="#BCBDC0"/><path opacity=".5" fill="#231F20" d="M3 8.5h12v1H3z"/></svg>