<!-- by TradingView --><svg width="18" height="18" viewBox="0 0 18 18" xmlns="http://www.w3.org/2000/svg"><path fill="#F0F3FA" d="M0 0h18v18H0z"/><path d="m10.02 5.07-.3-.04c.17.2.33.42.46.68.06.12.12.15.18.29h1.03c-.17-.23-.37-.34-.58-.5a3.26 3.26 0 0 0-.8-.43ZM11.58 6.4h-1.11c.11.39.19.8.2 1.26h1.22c-.02-.5-.14-.91-.31-1.26ZM10.03 6c-.04-.08-.08-.07-.12-.15-.2-.37-.43-.66-.68-.85h-.08v1h.88ZM9.15 6.4h1c.12.38.2.8.22 1.26H9.15V6.4ZM8.85 6V5h-.08c-.25.19-.49.48-.68.85-.04.08-.08.07-.12.15h.88ZM7.85 6.4h1v1.26H7.63c.02-.46.1-.88.22-1.26ZM7.64 6c.06-.14.12-.17.18-.3.13-.25.29-.48.46-.67l-.3.04c-.27.1-.54.24-.8.43-.2.16-.4.27-.57.5h1.03ZM6.42 6.4h1.11c-.11.39-.19.8-.2 1.26H6.1c.02-.5.14-.91.31-1.26ZM6.25 6c.19-.32.43-.5.7-.7a4.7 4.7 0 0 0-1.56.7h.86ZM5.05 6.4h1.03c-.15.36-.25.77-.27 1.26H4.44c.04-.46.26-.88.6-1.26ZM11.92 6.4h1.03c.35.38.57.8.6 1.26H12.2c-.02-.49-.12-.9-.27-1.26ZM12.61 6h-.86c-.19-.32-.43-.5-.7-.7a4.7 4.7 0 0 1 1.56.7ZM4.8 9c-.2-.3-.33-.67-.36-1h1.37c.01.35.07.72.16 1H4.79ZM5.05 9.22c.47.5 1.18.9 2.04 1.15a2.85 2.85 0 0 1-1-1.15H5.05ZM6.43 9.22c.2.36.46.63.75.84.46.32.99.48 1.42.54a6.15 6.15 0 0 1-.92-1.38H6.43ZM8.02 9.22a4.96 4.96 0 0 0 .83 1.19V9.2h-.83ZM8.85 9h-.98a3.4 3.4 0 0 1-.23-1h1.2v1ZM9.15 9.22v1.19a5.84 5.84 0 0 0 .83-1.2h-.83ZM10.13 9h-.98V8h1.21c-.02.32-.1.7-.23 1ZM10.32 9.22a5.14 5.14 0 0 1-.92 1.38c.43-.06.96-.22 1.42-.54.29-.2.56-.48.75-.84h-1.25ZM11.71 9h-1.25c.11-.3.19-.68.2-1h1.23c-.02.36-.08.73-.18 1ZM11.91 9.22a2.73 2.73 0 0 1-1 1.15 4.48 4.48 0 0 0 2.04-1.15h-1.04ZM13.2 9h-1.17c.1-.28.15-.65.16-1h1.37c-.03.33-.15.7-.35 1ZM7.54 9H6.3c-.1-.27-.16-.64-.18-1h1.22c.02.32.1.7.21 1Z" fill="#1D5DD8"/><path d="M4.13 8H2l7 7 7-7h-2.13c-.1.95-1.22 2.86-4.87 2.86-3.65 0-4.77-1.9-4.87-2.86Z" fill="#424345"/></svg>