<!-- by TradingView --><svg xmlns="http://www.w3.org/2000/svg" width="18" height="18" viewBox="0 0 18 18"><path fill="#F0F3FA" d="M0 0h18v18H0z"/><path fill-rule="evenodd" d="M9.8 3.5H8.45l.03.72-.78.17-.24-.71-1.3.56.34.67-.65.49-.57-.46L4.41 6l.58.43-.4.73-.72-.19-.33 1.33.72.2v.8l-.76.09.3 1.37.73-.15.34.76-.64.4.81 1.06.6-.45.64.57-.4.6 1.23.65.38-.65.87.18-.05.76h1.36v-.76l.74-.17.34.7 1.2-.59-.34-.65.64-.52.58.49.82-1.04-.57-.49.4-.73.7.2.32-1.24-.72-.23v-.83l.72-.21-.26-1.2-.75.1-.34-.76.6-.39-.78-1.05-.6.45-.64-.52.38-.62-1.22-.66-.27.7-.88-.26.06-.72zm-1.19.82l-.03-.7h1.08l-.05.7 1.1.32.25-.68.97.52-.37.6.81.66.58-.43.61.84-.57.38.43.95.72-.11.2.97-.69.2v1.03l.7.21-.25 1-.7-.2-.48.92.56.48-.67.84-.56-.48-.8.66.33.63-.97.46-.33-.67-.93.22v.73h-1.1l.05-.73-1.07-.22-.36.62-1-.53.38-.58-.81-.7-.57.43-.65-.85.61-.38-.43-.95-.7.14-.24-1.11.73-.08V8.4l-.7-.18.27-1.08.7.18.5-.92-.57-.41.71-.87.55.44.8-.62-.31-.64 1.05-.45.23.68.99-.2zM12 9c0 1.85-1.15 3-3 3s-3-1.15-3-3c0-1.64 1.15-3 3-3a2.9 2.9 0 0 1 3 3zm.5 0a3.5 3.5 0 1 1-7 0 3.5 3.5 0 0 1 7 0z" fill="#EE7521"/><path d="M8.3 3.35h1.66l-.06.76.63.19.28-.73 1.51.8-.4.66.46.36.63-.47.95 1.3-.62.4.24.55.78-.12.31 1.48-.74.22v.61l.75.23-.39 1.54-.74-.22-.28.53.6.5-1.02 1.27-.6-.5-.45.36.35.68-1.47.71-.35-.72-.5.12v.79H8.14l.05-.79-.63-.13-.4.68-1.5-.8.41-.63-.45-.4-.62.47-1-1.31.67-.42-.24-.53-.75.16-.37-1.68.79-.09v-.56l-.75-.2.4-1.62.76.2.28-.52-.61-.44 1.07-1.31.6.48.45-.35-.35-.7 1.6-.69.24.74.52-.11-.03-.75zm.44.43l.03.66-1.25.27-.22-.66-.76.33.3.6-1 .77-.52-.42-.51.63.54.4-.61 1.14-.67-.18-.2.79.67.18v1.27l-.7.08.18.8.67-.14.53 1.18-.58.37.45.6.56-.41 1 .87-.36.54.72.39.34-.59 1.3.27-.04.7h.79v-.7l1.16-.28.32.65.7-.33-.32-.6 1-.81.53.45.48-.6-.53-.46.6-1.13.65.18.18-.7-.67-.21V8.43l.67-.2-.15-.7-.7.12-.51-1.18.54-.36-.43-.59-.55.41-1-.8.35-.59-.68-.37-.25.65-1.34-.4.05-.64h-.76z" fill="#EE7521"/><path fill-rule="evenodd" d="M7.79 7.55c.22-.07.68-.2.77-.16.09.03.04.1 0 .14-.14.12-.43.36-.52.38l-.07.02c-.11.03-.28.08-.36.08-.1 0-.2.02-.2.1s.09.13.33.14c.2.01.59-.28.76-.42.02 0 .06 0 .06.08 0 .05-.03.08-.06.11-.02.02-.04.04-.02.07.02.05.07.11.3.16.2.04.06.14-.02.18-.15.07-.53.17-.86.07-.03.01-.07.04 0 .11.08.1.32.18.48.18.15 0 .45-.1.74-.32.24.22.79.67 1 .71.28.05.43-.3.39-.36-.03-.03-.12-.05-.24-.08a4.31 4.31 0 0 1-.22-.06c-.22-.07-.6-.37-.58-.47.03-.08.32-.23.47-.3-.06-.12-.2-.36-.27-.36l-.15.03c-.11.02-.25.05-.37.05-.2 0-.26-.03-.25-.08.01-.05.08-.16.25-.16.07 0 .23.04.4.09.2.05.42.12.5.1h.01c.16-.03.32-.07.32-.2v-.03c0-.1 0-.17-.65-.13-.09.01-.27.03-.34-.05-.05-.06 0-.1.04-.15.04-.03.09-.07.1-.12.02-.12-.07-.15-.42-.15h-.14c-.24 0-.32 0-.32.08s.13.19.15.2L8.86 7c.04-.03.1-.07.11-.04.03.04.05.18-.12.2l-.27-.04c-.18-.04-.4-.08-.57-.04-.28.07-.39.23-.38.28v.02c.02.05.03.12.16.17zm.96.37c.06.08.24.24.39.25.15 0 .2-.17.21-.25h-.6zm-.2 1.71h-.8a.06.06 0 0 0-.06.07c0 .03-.03.06-.06.06H7.5a.18.18 0 0 1-.17-.18v-.03c0-.11.1-.2.2-.2h.35l.24-.27a.1.1 0 0 1 .19.07v.26c.07 0 .14-.03.21-.05.07-.03.14-.05.2-.05h.34c-.01-.08.01-.23.22-.26.17-.03.2.12.2.23.02.05.02.1.05.1l.5-.07c.08 0 .15.06.15.14l-.07.73c0 .06-.06.12-.13.12a.13.13 0 0 1-.13-.13v-.4c0-.08-.05-.18-.26-.21a.28.28 0 0 0-.26.1.12.12 0 0 1-.09.06c-.03 0-.06-.02-.07-.04l-.01-.04c-.02-.05-.03-.08-.14-.08-.17 0-.26.15-.28.23l-.01.27a.1.1 0 0 1-.2 0v-.43zm-.83.16a.1.1 0 0 0 0 .2h.6a.1.1 0 0 0 0-.2h-.6zm-.1.38c0-.06.04-.1.1-.1h.6a.1.1 0 0 1 0 .2h-.6a.1.1 0 0 1-.1-.1zm-.06.67V11c0 .1.08.18.18.18h.04c.08 0 .14-.06.14-.14h.39c0 .14.14.25.28.2l.24-.09h.64c.07 0 .13.02.17.06.05.05.11.07.18.07h.27c.12 0 .23-.1.23-.23a.15.15 0 0 0-.16-.16H9.7v-.72c.03-.07.11-.27 0-.34a.17.17 0 0 0-.19 0 .6.6 0 0 0-.63.6v.36l-.49.13v-.23a.33.33 0 0 0-.33-.33.5.5 0 0 0-.5.5zm1.62-.82a.1.1 0 0 0-.1.1c0 .05.05.1.1.1h.16a.1.1 0 0 0 .1-.1.1.1 0 0 0-.1-.1h-.16zm0 .34a.1.1 0 0 0-.1.1c0 .05.05.1.1.1h.16a.1.1 0 0 0 .1-.1.1.1 0 0 0-.1-.1h-.16zm-.1.44c0-.06.05-.1.1-.1h.16a.1.1 0 0 1 0 .2h-.16a.1.1 0 0 1-.1-.1zm-1.15-.2c-.03 0-.05.04-.05.1 0 .05.02.1.05.1h.1c.02 0 .05-.05.05-.1 0-.06-.03-.1-.06-.1h-.09z"/></svg>