<!-- by TradingView --><svg width="18" height="18" viewBox="0 0 18 18" xmlns="http://www.w3.org/2000/svg"><path fill="#F0F3FA" d="M0 0h18v18H0z"/><path fill-rule="evenodd" d="M11.57 4.28H6.43c-.63 0-1.14.5-1.14 1.1v7.23c0 .61.5 1.11 1.14 1.11h5.14c.63 0 1.14-.5 1.14-1.1V5.38c0-.61-.5-1.11-1.14-1.11ZM6.43 4A1.4 1.4 0 0 0 5 5.39v7.22c0 .77.64 1.39 1.43 1.39h5.14A1.4 1.4 0 0 0 13 12.61V5.4A1.4 1.4 0 0 0 11.57 4H6.43Z" fill="#007D21"/><path d="M7.5 6.17V5.11h.14v1.06l.44-.95.13.06-.42.9.73-.7.1.1-.78.76 1-.32.04.13-.87.28H9v.14H7.9l.99.42-.06.13-.94-.4.73.7-.1.1-.73-.7.42.9-.13.06-.44-.95v1.06H7.5V6.83l-.43.95-.14-.06.42-.9-.73.7-.1-.1.79-.76-1 .32-.05-.13.87-.28h-.99v-.14h1.1l-.98-.42.05-.13.94.4-.73-.7.1-.1.73.7-.42-.9.14-.06.43.95ZM7 11.77V8.45c0-.1-.06-.2-.16-.25a.3.3 0 0 0-.25 0l-.45.25v3.88c.05.1.23.28.57.28.35 0 .53-.19.58-.28h.28l.27.18c.1.06.22.06.32 0l.27-.18V8.41l-.14-.13a.29.29 0 0 0-.33-.06l-.39.23v3.32c0 .1-.06.28-.28.28-.23 0-.29-.19-.29-.28ZM8.71 8.6v3.73c0 .2.23.34.42.25l.73-.25.14.14c.08.08.22.1.33.05l.38-.19V6.36l.58-.28v6.4l.15.07a.3.3 0 0 0 .26 0l.44-.22V5.67c0-.2-.2-.34-.4-.26l-1.71.74a.28.28 0 0 0-.17.25v1.36l-1.15.83Zm.86.27.29-.28v3.08l-.29.28V8.87Z" fill="#007D21"/></svg>