<!-- by TradingView --><svg width="18" height="18" viewBox="0 0 18 18" xmlns="http://www.w3.org/2000/svg"><path fill="#F0F3FA" d="M0 0h18v18H0z"/><path d="M6.28 6.33c0 .15.01.29.03.42h-.14A2.96 2.96 0 0 1 9.01 3a2.96 2.96 0 0 1 2.84 3.75h-.12c.02-.13.03-.27.03-.42 0-1.46-1.31-2.65-2.75-2.65a2.74 2.74 0 0 0-2.73 2.65Zm-1.91.23c-.37.79-.03 1.87.19 2.25h.07a5.3 5.3 0 0 1 .1-1.95c.21-.62.99-1.08 1.35-1.19V5.6h-.09c-.43.02-1.2.04-1.62.97Zm9.29 0c.37.79.02 1.87-.2 2.25h-.06a5.3 5.3 0 0 0-.1-1.95c-.22-.62-1-1.08-1.35-1.19V5.6h.09c.43.02 1.19.04 1.62.97Z" fill="#00416D"/><path d="M7.56 10.9c.28-.99.42-2.4.46-3 .02-.34 1.75.67 2.06 2.46.3 1.79.23 2.2 0 2.99-.17.59-.71 1.13-.63 1.4.02.04.01.07 0 .1a.1.1 0 0 1-.15.04 4.77 4.77 0 0 1-1.74-1.77c-.47-.82-.36-1 0-2.23Z" fill="#00953A"/><path d="M12.9 12.02c.25-1 .83-2.28 1.1-2.8.14-.31-1.83-.4-2.98.95-1.15 1.36-1.3 2.58-1.5 3.38-.14.6-.52 1.05-.73 1.24a.12.12 0 0 0-.05.1c0 .06.05.1.1.1.88.03 1.6-.13 2.37-.55.81-.44 1.39-1.19 1.7-2.42Z" fill="#C3002F"/><path d="M5.1 12.02c-.25-1-.83-2.28-1.1-2.8-.14-.31 1.83-.4 2.98.95 1.15 1.36 1.3 2.58 1.5 3.38.14.6.52 1.05.73 1.24.03.02.05.06.05.1a.1.1 0 0 1-.1.1 4.43 4.43 0 0 1-2.37-.55c-.81-.44-1.39-1.19-1.7-2.42Z" fill="#250671"/></svg>