<!-- by TradingView --><svg width="18" height="18" viewBox="0 0 18 18" xmlns="http://www.w3.org/2000/svg"><path fill="#F0F3FA" d="M0 0h18v18H0z"/><path fill-rule="evenodd" d="M9 15A6 6 0 1 0 9 3a6 6 0 0 0 0 12ZM6.76 6.6h.18c.1-.02.1 0 .03.06-.3.23-.57.47-.8.72-.47.48-.8 1-.97 1.57a3.01 3.01 0 0 0 .4 2.67 3.7 3.7 0 0 0 1.36 1.24 4.13 4.13 0 0 0 2.1.52 3.83 3.83 0 0 0 2.23-.78c.33-.24.63-.53.9-.87a.4.4 0 0 0 .1-.28.28.28 0 0 0-.04-.12.2.2 0 0 0-.07-.07.15.15 0 0 0-.1-.03.22.22 0 0 0-.1.06c-.06.03-.12.1-.2.19-.07.09-.13.15-.18.19-.45.36-.95.55-1.51.58a2 2 0 0 1-1.16-.28c-.34-.2-.6-.5-.79-.91a2.04 2.04 0 0 1 .16-2.2 2.36 2.36 0 0 1 1-.81c.6-.26 1.15-.2 1.64.18l.01.02-.01.02c-.2.14-.35.3-.45.47-.13.2-.19.4-.18.61a1 1 0 0 0 .52.86c.25.14.53.17.86.1.12-.02.24-.1.35-.21.09-.1.17-.2.24-.34.08-.15.13-.33.14-.55.01-.46-.17-.95-.56-1.46a5.73 5.73 0 0 0-1.14-1.16c0-.01 0-.02.02-.02l.16.01c.09.02.1 0 .02-.06l-.68-.5c-.24-.2-.45-.38-.62-.57a1.8 1.8 0 0 1-.5-1.23 6.87 6.87 0 0 0-.1-.68L9 3.55c-.03.1-.06.23-.08.37a6.84 6.84 0 0 0-.05.58c-.02.22-.1.43-.22.62-.1.17-.26.33-.46.49-.38.3-.8.59-1.26.85l-.18.12c-.02.02-.02.03.01.03Z" fill="#CC9746"/></svg>