<!-- by TradingView --><svg width="18" height="18" viewBox="0 0 18 18" xmlns="http://www.w3.org/2000/svg"><path d="M0 9a9 9 0 1 1 18 0A9 9 0 1 1 0 9Z" fill="#611A86"/><path fill-rule="evenodd" d="M8.05 4 6.98 5.03c.01.58.1 1.42.29 2.26-.62-.13-1.36-.21-2.24-.24L4 8.07c.98-.1 2.31-.21 3.45-.11.12.37.26.72.43 1.03v.04c-.18.31-.32.67-.44 1.04-.93.08-2.1.02-3.44-.1l1.03 1.07c.57-.01 1.4-.09 2.22-.27-.18.82-.26 1.64-.27 2.2L8.05 14c-.12-1.33-.17-2.5-.1-3.42A5.8 5.8 0 0 0 9 10.15c.33.18.7.32 1.08.44.1 1.13-.02 2.44-.12 3.41L11 12.97c-.03-.86-.12-1.59-.24-2.2.82.18 1.65.26 2.22.27L14 9.97c-1.33.12-2.5.18-3.43.1A5.57 5.57 0 0 0 10.13 9c.16-.28.3-.63.43-1.04 1.13-.1 2.47.01 3.44.11l-1.03-1.02c-.88.03-1.62.11-2.24.24.14-.62.23-1.37.26-2.26L9.96 4c.1.98.22 2.32.11 3.46-.43.13-.78.28-1.07.43-.28-.15-.63-.3-1.04-.42A20.9 20.9 0 0 1 8.06 4Zm-.02 4.03c.03.19.07.36.12.51a2.43 2.43 0 0 1 .42-.38c-.17-.05-.35-.1-.54-.13Zm1.13.39L9 8.35a1.32 1.32 0 0 0-.66.66c.16.3.38.52.66.64a1.18 1.18 0 0 0 .67-.62 1.17 1.17 0 0 0-.51-.61Zm-.59 1.45c-.16-.12-.3-.25-.43-.4l-.12.53c.2-.03.39-.07.55-.13Zm1.3-1.3-.14-.15c-.09-.1-.18-.2-.27-.27.17-.05.35-.09.54-.12-.04.19-.08.37-.13.53ZM9.52 9.8c.13-.11.25-.23.35-.36.06.17.1.36.13.56-.2-.04-.4-.08-.57-.13l.09-.07Z" fill="#fff"/></svg>