<!-- by TradingView --><svg width="18" height="18" viewBox="0 0 18 18" xmlns="http://www.w3.org/2000/svg"><path fill="#F0F3FA" d="M0 0h18v18H0z"/><path d="M8 8.38h1.44V6.25l1.32 2.12 1.2-.88L9.46 4H7.98L5.44 7.5l1.2.88L8 6.25v2.12ZM6.48 9H5v2.84c0 .53.16 2.16 2.02 2.16 1.85 0 2.42-1.7 2.42-2.34 0-.64.51-1.19 1.02-1.19.5 0 1.05.46 1.05 1.13 0 .66-.62.93-1.05.93a1.6 1.6 0 0 1-.82-.24 4.37 4.37 0 0 1-.7 1.17c.2.18.77.54 1.52.54C11.8 14 13 12.97 13 11.6c0-1.38-1.08-2.6-2.54-2.6C9.16 9 8 10.3 8 10.93v.89c0 .41-.33.7-.76.7s-.76-.29-.76-.7V9ZM8 9v1.35c.57-.84 1.19-1.16 1.44-1.22V9H8Z" fill="#006027"/></svg>