<!-- by TradingView --><svg width="18" height="18" viewBox="0 0 18 18" xmlns="http://www.w3.org/2000/svg"><path fill="#F0F3FA" d="M0 0h18v18H0z"/><path d="M14 6v.02a67.73 67.73 0 0 1 0 1.18h-1v1.48l.01.02H15l.01.01v.87l-.01.02h-1.94v.21c.02.5.03 1.03.58 1.22.24.09.5.09.76.07h.01l-.02.05a.34.34 0 0 1-.06.1l-.09.11a1.24 1.24 0 0 1-.43.38l-.22.1c-.1.04-.23.06-.3.06a.76.76 0 0 1-.34-.1 1.72 1.72 0 0 1-.67-.48h-.01l-.12.1a2.24 2.24 0 0 1-.43.3l-.2.1a2.54 2.54 0 0 1-.7.18h-.01c0-.02 0-.03.02-.05a4.74 4.74 0 0 1 .16-.2c.05-.04.08-.1.12-.15l.06-.1c.07-.1.13-.24.17-.36l.03-.06.04-.08c.17-.5.24-1 .24-1.53V6.01l.01-.01H14ZM5.2 6l.01.02V9.3l.02.3.01.1a3.99 3.99 0 0 0 .78 2.2.73.73 0 0 0 .08.08H6.1c-.1 0-.2-.02-.31-.04-.03 0-.05 0-.08-.02l-.07-.02c-.1-.02-.2-.06-.3-.11l-.07-.04c-.1-.04-.18-.09-.24-.13-.74-.5-1.02-1.37-1-2.22L4 9.05V6h1.21Zm3.97 0H8.02L8 6.03v3.45c0 .67-.29 1.49-1.1 1.6a2.46 2.46 0 0 1-.56.03l.03.05v.01l.03.06c.04.04.08.08.1.13l.12.14.16.15c.1.07.24.13.35.18.13.06.32.1.47.06l.27-.12.04-.02a1.65 1.65 0 0 0 .6-.46h.02l.07.07.13.14c.2.16.49.36.76.4.13.02.31-.02.45-.09a30.33 30.33 0 0 1 .29-.15l.12-.11.08-.07a5.75 5.75 0 0 1 .26-.35c0-.02 0-.03-.03-.03-.26.02-.53.02-.78-.08-.56-.23-.69-.87-.69-1.42V6.02L9.18 6Z" fill="#2E368F"/></svg>