<!-- by TradingView --><svg xmlns="http://www.w3.org/2000/svg" width="18" height="18" viewBox="0 0 18 18"><path fill="#F0F3FA" d="M0 0h18v18H0z"/><path fill-rule="evenodd" d="M11.66 4.27c.5 0 .9-.4.9-.88a.9.9 0 0 0-.9-.89c-.5 0-.9.4-.9.89 0 .48.4.88.9.88zm0-.35a.54.54 0 1 0 0-1.06c-.3 0-.54.23-.54.52 0 .3.25.54.54.54zm-.99 3.36c.27 0 .53-.07.75-.2a2.99 2.99 0 0 1 .6 2.97 1.52 1.52 0 0 0-1.95 1.44c0 .15.02.3.06.44a3.04 3.04 0 0 1-3.54-1.25 1.5 1.5 0 0 0-.24-2.71 3.03 3.03 0 0 1 2.8-1.9h.04c.14.7.75 1.21 1.48 1.21zm2.08 1.84c0 .43-.07.83-.2 1.21a1.5 1.5 0 0 1-.97 2.67c-.45 0-.85-.2-1.12-.5a3.62 3.62 0 0 1-4.5-1.62h-.13a1.5 1.5 0 0 1-.11-3A3.63 3.63 0 0 1 9.18 5.5a1.51 1.51 0 1 1 2.66 1.23c.57.64.91 1.48.91 2.4zm-1.17 1.44c.07 0 .14 0 .2.02-.26.46-.65.85-1.12 1.11a.93.93 0 0 1 .92-1.13zm.71.33c-.3.55-.75 1.01-1.29 1.34a.94.94 0 0 0 1.3-1.34zm-6.6-.61a.9.9 0 0 1-.14-1.76 3.65 3.65 0 0 0 .14 1.76zm.63-.14a2.99 2.99 0 0 1-.14-1.59.9.9 0 0 1 .14 1.6zm5.26-4.37a.9.9 0 0 1-.18.54 3.61 3.61 0 0 0-1.61-.75.9.9 0 0 1 1.79.21zm-.9.9a.9.9 0 0 1-.83-.52c.4.1.76.26 1.08.49a.91.91 0 0 1-.26.04zM4.31 10.6c0 .5-.41.9-.91.9a.9.9 0 0 1-.91-.9.9.9 0 0 1 1.82 0zm-.37 0a.54.54 0 0 1-1.09 0c0-.3.25-.55.55-.55.3 0 .54.25.54.55zm10.05 3a.9.9 0 0 1-1.82 0c0-.5.41-.9.91-.9s.91.4.91.9zm-.36 0c0 .3-.25.55-.55.55a.54.54 0 0 1-.54-.54c0-.3.24-.55.54-.55.3 0 .55.25.55.55z" fill="#EE6929"/></svg>