<!-- by TradingView --><svg width="18" height="18" viewBox="0 0 18 18" xmlns="http://www.w3.org/2000/svg"><path fill="#F0F3FA" d="M0 0h18v18H0z"/><path fill-rule="evenodd" d="M3 8.75v.51a6.04 6.04 0 0 0 7.53 5.54 5.74 5.74 0 0 0 2.52-1.36A6 6 0 1 0 3 8.76Zm11.22 2.41a5.6 5.6 0 0 0-1.23-6.15 5.59 5.59 0 0 0-6.15-1.23 5.6 5.6 0 0 0-3.06 3.06 5.6 5.6 0 0 0 1.23 6.15 5.59 5.59 0 0 0 6.15 1.23 5.59 5.59 0 0 0 3.06-3.06ZM11.6 4.4a5.14 5.14 0 0 0-5.2 0 5.5 5.5 0 0 0-1.94 1.87c-.04.06-.02.07.04.05l3.24-1.24a.19.19 0 0 1 .17.02 58.29 58.29 0 0 0 1.1.66l1.07-.66a.19.19 0 0 1 .18-.02l3.23 1.24c.07.02.08 0 .05-.06A5.5 5.5 0 0 0 11.6 4.4ZM9 6.42l1.18-.74a.1.1 0 0 1 .09 0l3.6 1.36c.04.02.07.05.09.1a5.38 5.38 0 0 1-.04 3.82 5.21 5.21 0 0 1-2.6 2.79 5.15 5.15 0 0 1-4.64 0 5.42 5.42 0 0 1-2.6-2.79 5.17 5.17 0 0 1-.04-3.82.15.15 0 0 1 .1-.09l3.59-1.37a.1.1 0 0 1 .09 0A40.06 40.06 0 0 0 9 6.43Zm0 .56c.23 0 .62-.14 1.14-.44a.2.2 0 0 1 .1-.02c.6.04 1.67.3 3.22.8a.1.1 0 0 1 .07.07 4.77 4.77 0 0 1-6.23 6.09A4.77 4.77 0 0 1 4.55 7.3c1.55-.48 2.62-.75 3.2-.79a.2.2 0 0 1 .1.03c.54.29.92.43 1.15.43Zm-1.52 3.73-.04-.02C7 9.77 6.6 8.96 6.2 8.26a.36.36 0 0 0-.26-.2c-.09 0-.32-.05-.7-.11-.12-.02-.15.02-.1.12a68 68 0 0 1 1.62 3.08c.06.12.13.23.2.33.1.14.19.23.27.26.38.14.66.05.83-.26L9.2 9.4c.14-.26.28-.42.43-.5.16-.07.44-.1.82-.1l.98.02c.2 0 .35.04.44.12.17.15.21.35.13.58-.08.24-.25.36-.5.36-.6-.02-.96-.02-1.08-.01a.73.73 0 0 0-.6.32c-.08.12-.16.27-.26.46-.01.03 0 .05.03.04.28-.02.53-.02.77 0 .2.02.36.1.5.23.07.07.17.21.28.4.07.13.13.23.18.29.08.1.2.2.33.21h.6c.14 0 .18-.04.1-.16a8.7 8.7 0 0 1-.42-.76c-.03-.06-.02-.11.05-.14.81-.44 1.08-1.11.8-2.03-.15-.46-.66-.77-1.13-.79H9.32c-.27.02-.46.2-.58.41a109.1 109.1 0 0 0-1.26 2.36Z" fill="#3B3B38"/></svg>