<!-- by TradingView --><svg width="18" height="18" viewBox="0 0 18 18" xmlns="http://www.w3.org/2000/svg"><path fill="#F0F3FA" d="M0 0h18v18H0z"/><path d="M9.8 8.96h-.9l-.16 1.44.66.6h3.05c.8 0 1.11-.49 1.16-.73v-.44c0-.25-.42-.62-.63-.77h.83l.12-1.33L13.3 7h-2.95c-.54 0-1.3.33-1.3 1 0 .53.49.86.73.96Z" fill="#ED1C24"/><path d="M11.86 7.07h1.12l-.18 1.29h-.86c.14.06.27.12.39.2.28.17.49.42.49.77 0 .35-.2.62-.55.79-.34.17-.82.25-1.4.25a3.34 3.34 0 0 1-1.12-.17l-.04.17h-.9l.16-1.34h1v.13c0 .18.05.3.14.38.09.08.25.14.52.14.29 0 .44-.04.52-.08a.13.13 0 0 0 .05-.04l.01-.04-.02-.04a.58.58 0 0 0-.12-.1 1.53 1.53 0 0 0-.53-.23c-.2-.05-.51-.13-.78-.27-.29-.16-.56-.4-.53-.8.01-.22.1-.4.24-.53.13-.13.31-.22.5-.28.39-.11.86-.13 1.25-.13a2 2 0 0 1 .64.12v-.19Zm.26.25v.4l-.22-.16a1.73 1.73 0 0 0-.69-.16c-.38 0-.82 0-1.16.11a.98.98 0 0 0-.4.22c-.1.09-.15.2-.16.37-.02.25.14.42.4.56.23.13.52.2.72.25l.06.02c.22.05.4.14.55.24.07.05.13.1.17.16.05.05.08.12.08.2 0 .05 0 .1-.04.16a.38.38 0 0 1-.16.14c-.14.06-.34.1-.64.1s-.54-.07-.7-.2a.66.66 0 0 1-.21-.45H9.2l-.1.84h.4l.04-.18h.26v-.01l.02.02.15.07c.17.05.45.1.9.1a3 3 0 0 0 1.28-.22c.28-.14.4-.33.4-.57 0-.23-.12-.41-.36-.57a3.83 3.83 0 0 0-.96-.38c-.31-.08-.5-.17-.62-.25a.51.51 0 0 1-.14-.13.2.2 0 0 1-.04-.14c.02-.21.24-.46.79-.46.38 0 .6.21.73.41a1.24 1.24 0 0 1 .14.3h.48l.11-.79h-.56Zm-.26.93a.55.55 0 0 0-.03-.09 1 1 0 0 0-.1-.22.58.58 0 0 0-.51-.3c-.45 0-.52.19-.53.23l.07.05c.08.06.25.14.54.22.2.06.4.12.57.2l-.01-.09Z" fill="#F0F3FA"/><path d="M2 7.7V7h5.03l.67.78v.6h-.6L5.5 11H3.78l-.82-.84-.42-2L2 7.7Z" fill="#ED1C24"/><path d="M2.13 7.13h2.35v.52h-.42l.14 1.13.61-1.13h-.28v-.53h2.4v.53h-.5L4.83 10H3.1l-.54-2.35h-.44v-.53Zm.26.25v.02h.39l.54 2.35h1.36L6.3 7.4h.38v-.03H4.79v.03h.45l-1.2 2.2-.28-2.2h.46v-.03H2.39Z" fill="#F0F3FA"/><path d="M6.67 10.37V9.5h1.3l.77.63V11H7.4l-.73-.63Z" fill="#ED1C24"/><path d="M6.74 9.54h1.2v.75h-1.2v-.75ZM7 9.8v.25h.68V9.8H7Z" fill="#F0F3FA"/><path d="M13.93 10.37V9.5h1.3l.77.63V11h-1.34l-.73-.63Z" fill="#ED1C24"/><path d="M14 9.54h1.2v.84H14v-.84Zm.25.25v.34h.69v-.34h-.69Z" fill="#F0F3FA"/></svg>