<!-- by TradingView --><svg width="18" height="18" viewBox="0 0 18 18" xmlns="http://www.w3.org/2000/svg"><path fill="#F0F3FA" d="M0 0h18v18H0z"/><path fill-rule="evenodd" d="m5.07 10.64-1.23-1.1c-.45-.55-.15-1.27.38-1.6.5-.33 1.14-.2 1.48.3.25.37.28.76.1 1.17a1.4 1.4 0 0 1 .4.64l-.56.28-.57.31Zm3.97-.35a.84.84 0 0 0-.72.3c.19.23.36.32.65.34.31.02.53-.06.75-.3a.9.9 0 0 0-.68-.34Zm-1.34.43c-.12-.15-.28-.2-.46-.14a.4.4 0 0 0-.28.28c.13.11.27.15.43.11a.48.48 0 0 0 .31-.25Zm-1.3.36a.3.3 0 0 0-.33-.02.3.3 0 0 0-.16.19c.08.05.15.07.25.04.12-.02.2-.1.23-.21Zm3.06-1.46L9.52 8c.04-.82.55-1.39 1.29-1.2.54.14.86.6.89 1.19.02.37-.2.88-.5 1.18.08.17.1.27.12.45 0 .14.01.14-.01.28a7.86 7.86 0 0 0-1.85-.28Zm3.59 1.1 1.17-1.08c.42-.54.2-1.29-.32-1.62-.5-.32-1.14-.19-1.49.31-.25.37-.28.74-.1 1.16-.1.1-.15.17-.22.28-.08.13-.12.21-.17.36.21.1.35.16.56.28l.57.3Zm-2.72.05c.13-.15.29-.2.46-.14a.4.4 0 0 1 .28.28c-.13.12-.25.15-.43.11a.48.48 0 0 1-.3-.25Zm1.31.36c.1-.07.22-.08.33-.02.08.04.13.1.16.18a.26.26 0 0 1-.25.05c-.12-.02-.2-.09-.24-.21Zm-5.17.95c.96-.4 1.56-.52 2.6-.5.97.01 1.54.13 2.45.5-.94.32-1.5.41-2.49.41-1 .01-1.6-.08-2.56-.41Zm2.25-2.5-.09-1.61c-.04-.83-.55-1.4-1.29-1.2-.55.14-.86.6-.89 1.18-.02.38.2.89.5 1.19-.07.16-.1.27-.1.45-.02.14 0 .14.03.28.33-.1.53-.13.87-.19a7 7 0 0 1 .97-.1ZM8.76 4v.92H8v.63h.73v1.02a1.8 1.8 0 0 0-1.58-.24c-.68.19-1.09.55-1.38 1.22-.74-.6-1.78-.28-2.12 0-.5.42-.97 1.24-.36 2.1l2.08 2.1c.1.07.15.14.2.26.04.07.06.11.07.19 1 .6 2.14.8 3.45.8h.06a6.11 6.11 0 0 0 3.36-.82l.06-.18c.06-.11.11-.18.21-.25l2.02-1.83c.4-.73.2-1.87-.57-2.33a2.02 2.02 0 0 0-1.88.02A1.87 1.87 0 0 0 11 6.33c-.6-.17-1.05-.1-1.58.24V5.53h.73v-.62h-.76V4h-.63Z"/></svg>