<!-- by TradingView --><svg width="18" height="18" viewBox="0 0 18 18" xmlns="http://www.w3.org/2000/svg"><path fill="#F0F3FA" d="M0 0h18v18H0z"/><path d="M4 4.4s.2-.27.33-.4l.42.79 4.72 6.5 3.56 1.44.97.94-.34.33H10.6l-1.75-1.79L6.95 14H4v-2.96L5.91 9.3 4 7.31V4.4Z" fill="#006C26"/><path d="M4.33 7.15V4h2.9l1.9 1.92-2.85 3.15-1.95-1.92Z" fill="url(#aohf3rlz4)"/><path d="M14 7.16V4h-2.9L9.2 5.93 12.17 9 14 7.16Z" fill="url(#bohf3rlz4)"/><path d="M4.33 10.74v2.93h2.98l1.9-1.78-2.97-2.88-1.9 1.73Z" fill="url(#cohf3rlz4)"/><path d="M14 10.74v2.93h-2.9l-1.94-1.82L12.17 9 14 10.74Z" fill="url(#dohf3rlz4)"/><ellipse cx="9.2" cy="8.87" rx="2.94" ry="3" fill="#D5F590"/><ellipse cx="9.2" cy="8.87" rx="2.5" ry="2.55" fill="#FFFFFC"/><path d="M6.17 11.03H6V7.31l.86.56v2.67l-.69.5Z" fill="#006C26"/><path d="M6.07 7.96v3l.62-.38V8.31l-.62-.35Z" fill="#fff"/><path d="M7.13 6.18V6h3.6l-.54.88H7.6l-.47-.7Z" fill="#006C26"/><path d="M10.11 6.14h-2.9l.37.57h2.2l.33-.57Z" fill="#fff"/><path d="M11.83 10.9H12V7.16l-.86.56v2.67l.69.5Z" fill="#006C26"/><path d="M11.83 7.82v3l-.44-.38V8.17l.44-.35Z" fill="#fff"/><path d="M7.18 11.82V12h3.55l-.53-.88H7.64l-.46.7Z" fill="#006C26"/><path d="M10.11 11.82H7.37l.35-.53H9.8l.31.53Z" fill="#fff"/><path d="M8.3 10.79c-.13-.05-.27-.1-.27-.23 0-.08.03-.16.05-.23.02-.08.04-.16.03-.23a.89.89 0 0 0-.13-.48l-.1-.12c-.06-.04-.08-.06-.05-.17.03-.15.07-.27.1-.3l-.47-.58c-.05-.06-.08-.09-.11-.1-.05-.04-.05-.04-.02-.13a3 3 0 0 1 .3-.4c.12-.14.23-.3.25-.34.04-.1.18-.12.23-.12h.03l.28-.06c.15-.03.2-.06.25-.08.05-.02.06-.03.17 0a.9.9 0 0 0 .33 0h.1c.12 0 .24.02.17.08-.03.03-.1.06-.19.1a.65.65 0 0 0-.2.1c-.03.06-.2.33-.31.48l-.21.24-.1.12c-.03.04-.08.06-.14.08a.4.4 0 0 0-.2.14c-.07.06-.08.08-.03.17.05.12.2.3.36.43.18.13.47.38.5.46.01.04-.11.2-.24.35-.1.12-.21.25-.26.33-.04.08-.01.2.01.3.03.12.06.21-.05.21l-.08-.02ZM9.86 8.4a1.33 1.33 0 0 1-.23-.28c-.17-.12-.23-.1-.24.03-.02.12-.06.18-.16.33-.04.05-.07.06-.1.07-.04 0-.07 0-.1.17v.06c-.04.25-.06.43.06.49.08.04.18.06.28.08.07.01.14.02.18.04.08.05.21.36.24.5l.01.25c0 .11 0 .21.02.25l.02.06c0 .06.01.11.14.02l.04-.03c.14-.1.16-.12.21-.31.03-.08.05-.1.08-.1.04-.01.07-.03.08-.3 0-.2-.01-.34-.03-.44-.02-.13-.03-.2.03-.3l.08-.12c.05-.1.08-.15.16-.15.06 0 .1.04.15.08.05.05.1.1.19.11.16.03.43.05.22-.28a3.4 3.4 0 0 1-.23-.4c-.06-.11-.1-.2-.17-.26-.04-.03-.08-.1-.12-.17-.1-.16-.2-.36-.39-.36-.26 0-.92.4-.73.46.18.07.54.4.3.5Z" fill="#56C63D"/><defs><linearGradient id="aohf3rlz4" x1="4.33" y1="4.22" x2="7.7" y2="7.53" gradientUnits="userSpaceOnUse"><stop offset=".26" stop-color="#66CB3A"/><stop offset="1" stop-color="#E0FBA3"/></linearGradient><linearGradient id="bohf3rlz4" x1="14" y1="4.22" x2="10.62" y2="7.53" gradientUnits="userSpaceOnUse"><stop offset=".26" stop-color="#66CB3A"/><stop offset="1" stop-color="#E0FBA3"/></linearGradient><linearGradient id="cohf3rlz4" x1="4.41" y1="13.5" x2="7.58" y2="10.19" gradientUnits="userSpaceOnUse"><stop offset=".26" stop-color="#66CB3A"/><stop offset="1" stop-color="#E0FBA3"/></linearGradient><linearGradient id="dohf3rlz4" x1="14" y1="13.5" x2="10.83" y2="10.19" gradientUnits="userSpaceOnUse"><stop offset=".26" stop-color="#66CB3A"/><stop offset="1" stop-color="#E0FBA3"/></linearGradient></defs></svg>