<!-- by TradingView --><svg width="18" height="18" viewBox="0 0 18 18" xmlns="http://www.w3.org/2000/svg"><path fill="#F0F3FA" d="M0 0h18v18H0z"/><path d="m11.46 11.85-.26.21-.34.3-.36.29c-.95.64-2 1.07-3.16 1.3.16-.15.35-.27.57-.37a8.1 8.1 0 0 0 1.9-1.39c.4-.4.75-.85 1.02-1.34.18-.33.27-.7.27-1.1 0-.67-.25-1.2-.76-1.63a2.07 2.07 0 0 0-1.6-.48c-.6.07-1.08.34-1.48.83-.02.02-.04.02-.05-.01v-.08a3.18 3.18 0 0 1 1.8-1.55c.13-.04.41-.1.85-.19.6-.1 1.04-.23 1.31-.38.25-.14.47-.36.64-.66.15-.27.25-.56.28-.87.05-.37.04-.7 0-.98-.05-.3-.09-.5-.1-.65-.03-.13-.01-.13.04-.01.49 1.14.8 2.32.92 3.52.09.84.06 1.7-.1 2.57a5.31 5.31 0 0 1-1.39 2.67Z" fill="#00688E"/><path d="M9.58 5.33c.3.46.83.65 1.18.42.35-.23.39-.78.09-1.24-.3-.46-.84-.65-1.19-.42-.35.22-.39.78-.08 1.24Z" fill="#00688E"/><path d="M7.91 13.58c-.22.1-.4.22-.57.37l-.11.05h-.07a7.19 7.19 0 0 1-2.07-1.5c-.32-.34-.6-.75-.83-1.23-.2-.43-.3-.85-.25-1.27.05-.45.23-.83.56-1.15.33-.3.72-.44 1.16-.4.43.04.8.22 1.11.54l.3.35c.02.02.04.02.06 0 .3-.46.68-.74 1.16-.86.52-.12.98 0 1.37.37.33.32.53.68.58 1.1.05.36-.01.75-.19 1.17-.26.64-.69 1.2-1.27 1.69l-.94.77Z" fill="#9D2633"/><path d="M7.66 11.78c.02.05.03.05.03 0a9.1 9.1 0 0 1 .12-1.73c0-.05.03-.12.08-.2a.09.09 0 0 1 .09-.06c.04 0 .07.02.08.06.06.16.1.28.1.34l.12.97c.01.1.06.16.16.2.05.01.08 0 .1-.05.07-.1.14-.16.23-.17.03 0 .08.02.14.08l.1.09.07.02.7.05h.01v.03l-.01.01a5.6 5.6 0 0 1-.92.04c-.04-.02-.06-.04-.06-.05-.03-.14-.06-.14-.1 0-.03.1-.13.14-.3.1-.14-.01-.22-.08-.25-.2-.06-.3-.1-.67-.12-1.12 0-.03-.02-.04-.05-.04h-.02a41.02 41.02 0 0 0-.14 1.22c0 .3-.05.66-.12 1.06-.01.05-.04.07-.09.05-.06-.02-.1-.06-.1-.13 0-.3-.03-.54-.06-.7-.02-.07-.07-.11-.17-.1-.03 0-.05-.02-.06-.05l-.01-.1c-.02-.1-.06-.1-.1 0l-.05.1c-.02.03-.04.05-.08.04a54.84 54.84 0 0 1-2.1-.08 38.02 38.02 0 0 1 1.9-.06c.12 0 .2-.05.26-.16.03-.07.08-.1.14-.1.04 0 .07.02.08.05.04.1.1.18.2.22.03.02.06.04.07.07l.13.3Z" fill="#F0F3FA"/></svg>