<!-- by TradingView --><svg width="18" height="18" viewBox="0 0 18 18" xmlns="http://www.w3.org/2000/svg"><path fill="#F0F3FA" d="M0 0h18v18H0z"/><path d="M4.47 5c-.3 0-.43.05-.47.08l.44.1.47.32c1.03 2.4 3.12 7.25 3.22 7.55.1.29.84.71 1.2.88l.67-.09c-.94-.3-1.34-.72-1.42-.92L5.51 5.9c-.3-.66-.69-.9-1.04-.9Z" fill="url(#a)"/><path d="M5.24 5.89A1.26 1.26 0 0 0 4 5.08c.69.24.94.64.98.8.85 2.01 2.62 6.2 2.96 6.96.41.94 1.23 1.16 1.5 1.16.22 0 .46-.13.56-.16-1.12-.05-1.63-.64-1.74-.96l-3.02-7Z" fill="#10514D"/><path d="M4.87 4.44c-.3 0-.46.05-.5.08l.47.1.8.4c1.08 2.42 3.29 7.21 3.39 7.5.1.3.86.65 1.25.83H11c-.98-.31-1.4-.74-1.5-.95L6.29 5.3c-.32-.67-1.04-.87-1.41-.87Z" fill="url(#b)"/><path d="M5.88 5.34c-.33-.73-1.22-.85-1.52-.82.72.25 1.2.64 1.24.82.9 2.02 2.92 6.34 3.27 7.1.53 1.15 1.25 1.07 1.54 1.07.23 0 .49-.14.59-.16-1.18-.06-1.71-.65-1.83-.98-.92-2.05-2.96-6.3-3.29-7.03Z" fill="#10514D"/><path d="M5.65 4c-.3 0-.61.08-.65.1l.68.14.81.39c1.12 2.39 3.38 7.11 3.49 7.4.1.29.88.64 1.28.81l.02.01.72-.01c-1.01-.3-1.44-.73-1.53-.94-1-2.1-3-6.46-3.26-7C6.9 4.26 6.04 4 5.65 4Z" fill="url(#c)"/><path d="M6.75 4.94C6.4 4.22 5.3 4.09 5 4.12c.74.24 1.32.58 1.6 1.12.91 2 2.85 5.95 3.21 6.7.55 1.14 1.29 1.06 1.58 1.06.24 0 .5-.13.61-.16-1.2-.05-1.76-.64-1.88-.96-.95-2.03-3.03-6.22-3.37-6.94Z" fill="#10514D"/><path d="M12.77 6.16V4L10 9.89 11.23 12V9.89l1.54-3.73Z" fill="#10514D"/><path d="M12.77 6V4L14 6h-1.23Z" fill="#76BDB8"/><path d="M14 6h-1.23l-1.54 3.86V12L14 6Z" fill="#309A93"/><defs><linearGradient id="a" x1="4.23" y1="5" x2="10.16" y2="13.61" gradientUnits="userSpaceOnUse"><stop offset=".04" stop-color="#29948D"/><stop offset=".14" stop-color="#6DB8B3"/><stop offset=".84" stop-color="#7FC1BC"/><stop offset=".96" stop-color="#51AAA4"/></linearGradient><linearGradient id="b" x1="4.63" y1="4.44" x2="10.37" y2="13.6" gradientUnits="userSpaceOnUse"><stop offset=".04" stop-color="#29948D"/><stop offset=".14" stop-color="#6DB8B3"/><stop offset=".84" stop-color="#7FC1BC"/><stop offset=".96" stop-color="#51AAA4"/></linearGradient><linearGradient id="c" x1="5.26" y1="4" x2="10.81" y2="13.4" gradientUnits="userSpaceOnUse"><stop offset=".04" stop-color="#29948D"/><stop offset=".14" stop-color="#6DB8B3"/><stop offset=".84" stop-color="#7FC1BC"/><stop offset=".96" stop-color="#51AAA4"/></linearGradient></defs></svg>