<!-- by TradingView --><svg width="18" height="18" viewBox="0 0 18 18" xmlns="http://www.w3.org/2000/svg"><path fill="#F0F3FA" d="M0 0h18v18H0z"/><path d="M10.4 4.8V8c0 .1.12.11.17.05.56-.7 1.1-1.35 1.64-2 .17-.18.33-.35.5-.5a.4.4 0 0 1 .27-.11c.09 0 .18.03.26.09a.78.78 0 0 1 .3.55.92.92 0 0 1-.26.7c-.95 1.08-1.92 2.21-2.9 3.39-.21.24-.43.3-.65.19-.27-.15-.4-.42-.38-.83V4.78c0-.32.11-.67.4-.76a.5.5 0 0 1 .23-.01c.33.06.43.43.42.78Zm4.9 6.2h-2.8c-.09 0-.1-.16-.04-.22.32-.35.64-.74.95-1.12.27-.33.53-.65.79-.93.17-.19.32-.38.45-.57.06-.1.1-.2.1-.3 0-.11-.04-.21-.09-.3a.71.71 0 0 0-.2-.24.58.58 0 0 0-.28-.12c-.21-.02-.41.08-.61.3a183.9 183.9 0 0 1-2.97 3.33c-.21.24-.27.48-.16.73.12.32.36.46.72.44h4.16c.28 0 .58-.13.66-.45.12-.5-.26-.56-.67-.55Zm-9.8 0H2.69c-.3-.01-.62-.02-.67.35a.4.4 0 0 0 0 .2h.01c.08.32.38.45.66.45h4.16c.36.02.6-.12.72-.44.1-.25.05-.5-.16-.73A183.99 183.99 0 0 1 4.43 7.5c-.2-.23-.4-.33-.61-.3a.58.58 0 0 0-.28.1.71.71 0 0 0-.2.24c-.05.1-.08.2-.08.3 0 .11.03.22.1.3.12.2.27.4.44.58.26.28.53.61.8.95.3.39.62.78.94 1.13.06.06.05.2-.03.19Zm2.1-3V4.8c0-.36.1-.73.42-.8a.5.5 0 0 1 .24.02c.28.09.4.44.39.76v4.75c.02.4-.1.68-.38.83-.22.12-.43.05-.64-.2C6.64 9 5.67 7.87 4.72 6.79a.92.92 0 0 1-.27-.7.78.78 0 0 1 .3-.55c.1-.06.18-.1.27-.1.1 0 .19.04.27.12.17.15.33.32.5.5.53.65 1.08 1.3 1.64 2 .05.06.17.05.17-.04ZM9 12c.39 0 .7-.36.7-.8 0-.44-.31-.8-.7-.8-.39 0-.7.36-.7.8 0 .44.31.8.7.8Z" fill="#231F20"/></svg>