<!-- by TradingView --><svg width="18" height="18" viewBox="0 0 18 18" xmlns="http://www.w3.org/2000/svg"><path fill="#F0F3FA" d="M0 0h18v18H0z"/><path d="M6.94 5.41c-.03 0-.06 0-.06-.03A1257.9 1257.9 0 0 1 6.34 4H4.27a.03.03 0 0 0-.03.04l.78 2.01a.05.05 0 0 1-.02.07h-.02c-.49.13-.92.34-.98.9-.01.13.03.33.13.6l2.03 5.58c.09.25.18.42.27.52a.8.8 0 0 0 .55.28c.14.01.4-.04.74-.17l5.48-1.98c.25-.09.43-.18.53-.27.42-.38.28-.81.08-1.35L12.24 5.9c-.03-.06-.05-.06-.07 0l-2.44 6.2a.07.07 0 0 1-.07.04H7.45a.12.12 0 0 1-.13-.09L5.05 6.13a.03.03 0 0 1 .02-.04l1.72-.62c.05-.02.09-.01.12.02l1.56 4.2c.03.08.06.08.09 0l1.72-4.17c.23-.53.92-.8 1.45-.84a.05.05 0 0 0 .04-.03.05.05 0 0 0 0-.05c-.16-.34-.42-.53-.76-.57-.13 0-.35.04-.65.15L6.94 5.4Z" fill="#FBA81C"/></svg>