<!-- by TradingView --><svg width="18" height="18" viewBox="0 0 18 18" xmlns="http://www.w3.org/2000/svg"><path fill="#F0F3FA" d="M0 0h18v18H0z"/><path d="M2.8 6.06 2 5l2.47 1.02-1.66.04ZM15.2 6.06 16 5l-2.37.99 1.56.07Z" fill="#6FC8F0"/><path d="M4.37 8.15 2.92 6.22H5l1.75.75-2.38 1.18Z" fill="#01A0DF"/><path d="m13.62 8.12 1.45-1.9H13.1l-1.84.75 2.36 1.15Z" fill="#00BFF3"/><path d="m5.6 9.73-1.07-1.4 2.49-1.24.67.26L5.6 9.73Z" fill="#00BEF5"/><path d="m12.34 9.8 1.1-1.45-2.48-1.24-.68.27 2.06 2.41Z" fill="#00A0E2"/><path d="M6.85 11.35 5.73 9.92l2.19-2.47.38.16-1.45 3.74ZM11.06 11.48l1.13-1.49-2.18-2.49-.41.17 1.46 3.8Z" fill="#6CCDF2"/><path d="m8.83 14-1.8-2.4L8.51 7.7l.32.13V14Z" fill="#019FE2"/><path d="m9.18 13.98 1.71-2.29-1.47-3.95-.24.1v6.14Z" fill="#00BFF1"/></svg>