<!-- by TradingView --><svg width="18" height="18" viewBox="0 0 18 18" xmlns="http://www.w3.org/2000/svg"><path fill="#F0F3FA" d="M0 0h18v18H0z"/><path d="m3.95 10.2.22-.01c.02 0 .03-.02.04-.04l1.02-3.12.01-.02h.64c.03 0 .03 0 .02.04L4.7 10.7c-.13.34-.45.3-.75.3s-.61.04-.73-.3L2 7.05C2 7.02 2 7 2.03 7h.64v.03l1.03 3.12c.01.02.02.04.04.04h.21ZM9 9v.36c-.01.02-.02.04-.04.04H6.6l-.01.02v.74c0 .03 0 .04.03.04h2.34c.02 0 .03.01.03.04v.72c0 .02 0 .04-.03.04H6.55c-.25 0-.42-.03-.51-.33a1.25 1.25 0 0 1-.04-.34V7.66c0-.15.01-.26.04-.33.1-.3.26-.33.51-.33h2.42C9 7 9 7.01 9 7.04v.72c0 .02-.01.04-.03.04H6.63c-.02 0-.03.01-.03.03v.76l.02.01h2.34c.02 0 .03.01.03.04L9 9ZM10 10.17c0 .02 0 .03.02.03h2.62a.03.03 0 0 1 .01.03v.76h-2.7c-.28 0-.48-.02-.58-.34-.02-.07-.03-.2-.03-.35V7.7c0-.16 0-.28.03-.35.1-.33.3-.35.58-.35h2.69a.03.03 0 0 1 .01.03v.76h-2.63l-.02.04v2.34ZM15.96 7c.03 0 .04.02.04.05v.71c0 .02 0 .04-.03.04h-1.14c-.02 0-.03.01-.03.04v3.13c0 .02 0 .03-.02.03h-.56c-.01 0-.02-.01-.02-.03V7.84c0-.03-.01-.04-.03-.04h-1.14c-.02 0-.03-.01-.03-.04v-.7c0-.04.01-.06.04-.06h2.92Z" fill="#080404"/></svg>