<!-- by TradingView --><svg width="18" height="18" viewBox="0 0 18 18" xmlns="http://www.w3.org/2000/svg"><path fill="#F0F3FA" d="M0 0h18v18H0z"/><path d="M11.06 11.73v.17l-.01.01-.29-.01V11.72c0-.01 0-.02-.02-.03h-.06l-.06.01h-.06a.1.1 0 0 0 0 .06v.04h-.08l-.02-.01.01-.02v-.07l-.01-.01h-.1c-.02 0-.03.01-.03.03a.2.2 0 0 0 0 .06V11.85h-.07l-.02-.01v-.14h-.09c-.02.02-.02.04-.01.07v.1l-.02.01h-.05l-.01-.01v-.17h-.14l-.01.05V11.93h-.08V11.7c0-.01 0-.02-.02-.02h-.06l-.01.01V11.93H9.6v-.2l-.01-.04a.6.6 0 0 0-.12 0h-.33v.33H8.8v-.33h-.22V11.87h-.13l-.01-.18H8.4v.23h-.13v-.22h-.11v.24l-.13-.03v-.22h-.79l-.4-.1a6.67 6.67 0 0 0 0-.4V10.84h-.46l-.01-.01V10.13h-.78l-.01-.01v-.47h.23l.01-.01v-.16h-.44l-.01-.02v-.11l-.02-.01h-.2l-.01-.01v-.39h.27l.01.01v.27l.02.01h.2l.02-.01V8.3h.5v.22c0 .01 0 .02.02.02h.35l.01-.01v-.67A124.78 124.78 0 0 1 6 7.84c-.95-.39-1.23-.56-2.7-1.17H3.3v.23h.17l.01.02v.34H3V6.9H3.22v-.26l-.07-.03-.01-.02v-.11c0-.02.01-.02.03-.02l2.82.97H7.4l.01.01v1.22h.54l.18-3.07.01-.01.12-.05v-.35h.13V5.54l.13.05v.01l.16 3.06.01.01h.43v.12h-.17l-.01.03v.14h.3c.01 0 .02 0 .02.02v.23h.26l.33-4.74v-.01l.1-.06c.02 0 .02 0 .02-.02V4h.1v.39h.01l.12.06v.01l.36 4.75.01.01h.62v-.5h.01a502.88 502.88 0 0 1 .9-.46 388.4 388.4 0 0 1 2.27-.16v1.5l.01.02H15v1.12h-1.35V9.62h.6c.02 0 .02 0 .02-.02V8.16h-.01L12 9.03l-.01.01V9.4l-.27.3h-.67c-.01 0-.02.01-.02.03v.14l.02.01h.62l.01.02V10.07h-.3v.14h.5V10.3h-.5v.13h.5l.01.02V10.69l-.22.17-.01.01h-.6v.86ZM10 4.5c-.01 0-.02 0-.02.02l-.04.5c0 .01 0 .02.02.02h.16c.02 0 .02 0 .02-.02l-.05-.5-.01-.02H10Zm-.2 2.25h.17l.02-.52.01-.01h.08l.03.54.01.01h.12v-.01l-.08-1.47-.01-.01h-.22v.01L9.8 6.75Zm-1.38-.61-.03-.5h-.13l-.04.5h.2ZM8.26 7.9h.01v-.53l.01-.01h.11l.01.01v.52h.11l-.06-1.43-.01-.01H8.2L8.1 7.9v.01h.15Zm1.72-.36.01-.01H10.1l.03.92.01.01h.21l.01-.01-.08-1.35-.01-.01h-.47l-.01.01-.1 1.35.02.01.27.01.01-.01v-.92Zm-1.41.7c0-.01 0-.02-.02-.02H8.1c-.01 0-.02 0-.02.02l-.01.41.01.02h.47c.01 0 .02 0 .02-.02v-.41Zm4.75.1v-.01l-.2.02a394.22 394.22 0 0 0-1.05.14 301.15 301.15 0 0 1-.31.26l.41.01a.1.1 0 0 0 .04 0l1.14-.4a.71.71 0 0 0 .09-.04c.01 0 .01-.01 0 0a3.34 3.34 0 0 1-.12.01Zm-3.69.85.01.01h.79l-.03-.42-.01-.01h-.74l-.02.42Zm4.98.53v.23h.25v-.23h-.25Zm-.62 0h-.25V9.95H14V9.72Zm.2.22.02.02h.23l.02-.02v-.2c0-.02-.01-.03-.02-.03h-.23c-.01 0-.02 0-.02.02v.2Zm-.2.15-.01-.02h-.22c-.01 0-.02 0-.02.02v.19l.02.02h.22l.02-.02v-.2Zm.46.17v-.19h-.25v.23h.25v-.04Zm.16-.2v.24h.25V10.06h-.25Zm-.15.36c0-.01 0-.02-.02-.02h-.23c-.01 0-.02 0-.02.02v.2c0 .02.01.02.02.02h.23l.02-.01v-.21Zm.4 0v-.02h-.25V10.65h.25v-.23Zm-.86 0c0-.01 0-.02-.02-.02h-.23l-.01.01v.22l.01.01H14v-.23Zm-6.86.44v.01a94.64 94.64 0 0 1 0 .69s0 .02.02.02h.89v-.01a5.06 5.06 0 0 0 0-.71h-.9Zm1.03.64v.06c0 .01 0 .02.02.02h.08c.01 0 .02-.01.01-.02v-.69l-.01-.01h-.09v.64Zm.2.03v.03l.01.01h.1v-.71h-.1v.67Zm.48-.66-.01-.01h-.25l-.02.01v.7h.28v-.7Zm.75 0v-.01h-.48v.71h.48v-.7Zm.23 0-.01-.01h-.07l-.01.01v.7h.09v-.7Zm.23 0c0-.01 0-.02-.02-.01h-.12v.72h.12l.01-.01v-.02l.01-.68Zm.16 0v-.01h-.07v.72h.06l.01-.01v-.7Zm.23 0-.01-.01h-.11v.71h.11v-.7Zm.3 0-.02-.01h-.15c-.01 0-.02 0-.02.02v.68c0 .01 0 .02.02.02h.15l.01-.02v-.68Z" fill="#1A4594"/><path d="M10.69 9.53a6.7 6.7 0 0 0 .13 0v-.19H11a14.89 14.89 0 0 1 0 .24.1.1 0 0 1-.07.07.3.3 0 0 1-.09 0 .6.6 0 0 0-.04 0l-.01.01v.16l-.01.01a2.35 2.35 0 0 1-.17-.01v-.16h-.05a.3.3 0 0 1-.09-.01.1.1 0 0 1-.07-.07 19.9 19.9 0 0 1 0-.25h.16v.2h.14Zm-.38-.2h-.6v.13h.2l.02.01v.36a2.8 2.8 0 0 0 .17 0v-.36H10.31v-.13Zm-1.35.36a12.1 12.1 0 0 1 0-.23h.45v-.12h-.5c-.05 0-.08.02-.1.07l-.01.15v.05l.01.15c.02.04.05.07.1.07a38.02 38.02 0 0 0 .5 0V9.7h-.44v-.02ZM6.4 9.61a66.12 66.12 0 0 0-.14-.28h-.17v.01l.23.49h.01a1.67 1.67 0 0 0 .15 0l.24-.49h-.18a78.85 78.85 0 0 0-.14.27Zm.53-.1v-.03c0-.01 0-.02.02-.02h.43v-.12a77.74 77.74 0 0 1-.55.01c-.04.03-.06.07-.06.14v.17c0 .05 0 .1.02.12a.1.1 0 0 0 .1.05 30.38 30.38 0 0 0 .5 0V9.7h-.45v-.07h.4l.02-.01v-.1H6.94l-.02-.02Zm.69.18v.01a77.25 77.25 0 0 0 .45.01v.1c0 .02 0 .02-.02.02h-.48a.1.1 0 0 1-.1-.05 17.85 17.85 0 0 1-.02-.45h.16v.36Zm2.03-.36h-.15l-.01.01v.49h.16v-.49Zm-.9.37c0 .04-.01.07-.04.1a.1.1 0 0 1-.08.03h-.39a.1.1 0 0 1-.08-.04.14.14 0 0 1-.03-.1v-.22c0-.04.01-.07.03-.1a.1.1 0 0 1 .08-.04h.4a.1.1 0 0 1 .07.04c.03.03.04.06.04.1v.23Zm-.17-.24h-.28V9.7h.28v-.23Z" fill="#fff"/><path d="M10.7 10.5a2.2 2.2 0 0 1-.1-.01v-.16h-.05l-.09-.01a.1.1 0 0 1-.06-.07 14.11 14.11 0 0 1 0-.25h.15v.2h.01a6.17 6.17 0 0 0 .27 0V10H11a17.72 17.72 0 0 1 0 .25.1.1 0 0 1-.07.06l-.09.01h-.04v.17h-.1Zm-2.86-.36.01-.01h.28v.36h.16v-.35c0-.06-.02-.1-.06-.12-.02-.02-.05-.02-.1-.02a45.55 45.55 0 0 1-.45 0v.49h.16v-.35Zm-.68.04v-.04l.02-.01h.42l.01-.01V10a80.21 80.21 0 0 1-.55.02c-.04.02-.06.07-.06.14v.17c0 .05 0 .09.02.12a.1.1 0 0 0 .1.05 29.62 29.62 0 0 0 .5 0v-.12l-.01-.01h-.44v-.06h.4l.01-.02v-.09h-.4l-.02-.02Zm1.36-.04v.05h.41v.11h-.4l-.01.01V10.37h.44v.12h-.5a.1.1 0 0 1-.08-.04.22.22 0 0 1-.03-.12v-.17c0-.07.02-.12.06-.14a67.9 67.9 0 0 0 .56-.01v.1l-.01.02h-.43l-.01.01Zm1.64.11v.11h-.28v-.23h.43l.01-.01V10h-.5c-.04 0-.07.02-.09.05a.21.21 0 0 0-.02.12v.18c0 .06.02.1.05.13l.11.02h.33c.04 0 .08-.02.1-.06.02-.02.02-.08.02-.15a1.54 1.54 0 0 1 0-.05h-.15l-.01.01Zm-.62.08v-.02a.1.1 0 0 0 .08-.07v-.1l-.01-.08a.11.11 0 0 0-.06-.05 152.14 152.14 0 0 1-.52 0v.48h.16v-.36h.26V10.2H9.3v.02l.15.27h.17c.01 0 .01 0 0 0l-.1-.16Z" fill="#29A9DF"/><path d="M14.45 10.1v.12-.1l-.01-.01v-.02l-.01-.01h-.04v.01h-.08l-.01-.01h-.04l-.01.01-.03.01V10.28h.06a23.83 23.83 0 0 1 .16-.01v-.01l.01.03v.01h-.25v-.23h.25v.02Z" fill="#fff"/><path d="M10.76 12.25c-.14.03-.29.04-.44.04-.4-.02-.8-.06-1.2-.14a16.4 16.4 0 0 1-.97-.2v-.25h.11v.22h.13v-.23h.06v.18h.13v-.17h.23v.31l.01.01h.32v-.32h.2l.14.02h.13V11.94h.12v-.18h.1V11.94h.08v-.18l.13.01h.01v-.06.17l.02.01h.05l.02-.01v-.1h.1v.07l.02.01h.06c.01 0 .02 0 .01-.01v-.06h.13c0 .02 0 .03.02.03a2.6 2.6 0 0 0 .08 0v-.05c.01.02.03.02.05.01H10.73l.01-.01v-.06h-.06.06c.01 0 .02 0 .02.02v.17l.29.02v-.18a.77.77 0 0 0 .17-.02h.01l.11-.02a.6.6 0 0 1 .07-.02l.09-.02.07-.02.08-.02.2-.07a4.03 4.03 0 0 0 1.58-1.26l-.14.18a5.11 5.11 0 0 1-2.53 1.79ZM7.15 10.86V11.27h.05l.02.01v.01l.12.01v.01h.01a2.1 2.1 0 0 1 .28.07h.06l.16.04h.02a.5.5 0 0 0 .11.03H8l.05.01v-.6.04a14.82 14.82 0 0 1-.01.68h-.88l-.02-.02a33.09 33.09 0 0 0 0-.7ZM6.84 11.2v.39a5.23 5.23 0 0 0-2.62-.09l-.35.05a.1.1 0 0 1 .06-.03h.01v-.01h.02l.05-.02a.18.18 0 0 1 .05-.03h.02v-.01a1.22 1.22 0 0 0 .09-.03l.24-.08.04-.01.04-.02h.01l.11-.03h.01l.09-.02.01-.01a.7.7 0 0 0 .18-.04c.08 0 .13-.01.15-.02l.16-.02h.02l.01-.01a4.12 4.12 0 0 1 .29-.03 7.14 7.14 0 0 1 .76 0l.28.03h.03l.24.04Z" fill="#29A9DF"/><path d="M3.6 11.7a5.23 5.23 0 0 1 3.23-.12l.4.12a.71.71 0 0 1 .13.04l.67.17.12.03.97.21c.4.08.8.12 1.2.14.15 0 .3-.01.44-.04v.02H10.88l.08-.01a3.04 3.04 0 0 0 1.62-.73 9.51 9.51 0 0 0 .34-.3 2.15 2.15 0 0 0-.15.16l-.01.02a8.5 8.5 0 0 1-.49.44c-.65.54-1.5 1.14-2.35 1.15H9.9c-1.23.02-2.3-.76-3.48-1.05a9.63 9.63 0 0 0-1.53-.27H4.6v-.01h-.02a19.37 19.37 0 0 0-.62 0l-.16.01h-.04l-.04.01-.06.02H3.6Z" fill="#9ECFF0"/><path d="M8.28 11.5v.06l-.01.02h-.09l-.01-.02v-.06h.1Z" fill="#29A9DF"/><path d="M4.22 11.5a15.38 15.38 0 0 0-.62.2l-.06.02.25-.14h.05v-.01h.01v-.01h.02l.35-.06Z" fill="#fff"/><path d="M8.03 11.91a20.84 20.84 0 0 1-.79-.21h.79v.21Z" fill="#29A9DF"/></svg>