<!-- by TradingView --><svg width="18" height="18" viewBox="0 0 18 18" xmlns="http://www.w3.org/2000/svg"><path fill="#F0F3FA" d="M0 0h18v18H0z"/><path d="M7.4 7H5.74c-.15 0-.24.16-.16.3 1.11 1.79 2.87 4.55 3.04 4.81.18.28.34.44.4.48v2.4c-.37 0-.67-.34-.77-.51l-5-8c-.22-.32-.34-.7-.16-1.08.15-.3.55-.4.74-.4h3.74c.23 0 .45.13.57.35l.65 1.2c.06.1.18.18.23.2V9.6c-.07 0-.16-.12-.2-.18L7.4 7Z" fill="#1897CE"/><path d="M9.01 9.61a.46.46 0 0 0 .19-.2c.06-.13 1.68-2.85 2.49-4.19.05-.07.1-.22-.18-.22h-1.1c-.1 0-.36.1-.53.43-.17.33-.52.86-.67 1.08-.04.08-.12.23-.2.23v2.87Zm0 2.98c.05-.02.16-.1.25-.25l4.37-7.01c.08-.11.29-.33.51-.33.28 0 .86.17.86.93a.9.9 0 0 1-.2.4l-5.17 8.24c-.1.15-.37.43-.61.43v-2.41Z" fill="#3EBFAD"/></svg>