<!-- by TradingView --><svg width="18" height="18" viewBox="0 0 18 18" xmlns="http://www.w3.org/2000/svg"><path fill="#F0F3FA" d="M0 0h18v18H0z"/><path d="M8.35 6.26a3 3 0 0 0-.1.13.34.34 0 0 1-.06.11 2.84 2.84 0 0 0-.5 1.46c-.02.29.02.57.12.86.05.15.1.3.17.44a.13.13 0 0 0-.02.03.04.04 0 0 0 0 .05 6.3 6.3 0 0 0 1.76 1.73c.37.23.74.4 1.13.52.41.12.82.17 1.23.15a2.37 2.37 0 0 1-.7.03c-.02 0-.03 0-.04.02a.1.1 0 0 1-.07.06 3.68 3.68 0 0 1-1.36.07 4 4 0 0 1-2.93-1.83.54.54 0 0 1-.07-.27l.85-.58c.01 0 .02-.01.02-.03l-.01-.03a4.76 4.76 0 0 1-.91-2.5c-.02-.48.04-.92.19-1.32a2.7 2.7 0 0 1 .93-1.24.53.53 0 0 1 .2-.07 5.43 5.43 0 0 1 1.73.05c.07 0 .07.02 0 .03-.47.11-.84.37-1.1.79-.27.4-.42.85-.46 1.34Z" fill="#54CBD8"/><path d="M10.06 6.76c-.03-.02-.09-.01-.18.02-.05.01-.15.08-.3.18a3.56 3.56 0 0 1-.07-1.38c.05-.22.12-.42.21-.59.11-.19.25-.33.42-.43.18-.12.4-.17.65-.16.05 0 .11 0 .17.03a1.65 1.65 0 0 1 .23.1 5.1 5.1 0 0 1 2.45 2.64h-.01c-.17-.35-.41-.65-.72-.88-.3-.24-.62-.39-.97-.45a1.7 1.7 0 0 0-1.02.12c-.34.16-.63.42-.86.8Z" fill="#7DD7E1"/><path d="M6.9 9.82c.01.12.04.2.08.27a3.97 3.97 0 0 0 1.67 1.47 4 4 0 0 0 2.62.29.1.1 0 0 0 .07-.06l.04-.02c.08.02.18.02.27.02.16 0 .3-.03.43-.05.27-.03.51-.1.74-.2.26-.1.46-.25.62-.42.11-.12.13-.11.05.03-.25.51-.57.95-.95 1.32-.09.1-.2.18-.36.25l-.4.17c-.82.3-1.63.3-2.44 0a5 5 0 0 1-1.63-1.02 6.8 6.8 0 0 1-1.26-1.53l-.04.01-.9.6V11a8.5 8.5 0 0 0 1.61 1.88c.73.6 1.46.96 2.2 1.05.06.01.06.02 0 .04a5.38 5.38 0 0 1-4.82-2.43c0-.03 0-.04.02-.06l.86-.59.02-.02v-.04c-.24-.44-.42-.9-.55-1.4a4.8 4.8 0 0 1-.04-2.29c.17-.72.5-1.41 1-2.07.08-.1.17-.18.28-.25l.53-.3c.13-.07.14-.05.03.05-.15.15-.26.27-.33.37A3.6 3.6 0 0 0 5.7 6.7a5.63 5.63 0 0 0 .78 3.39h.04l.39-.28Z" fill="#2DB9C9"/><path d="M8.35 6.26c-.07.77.11 1.48.53 2.14l.04.03.06-.01a10.74 10.74 0 0 1 .93-.65l-.01-.05a2.5 2.5 0 0 1-.32-.76c.15-.1.25-.17.3-.18.1-.03.15-.04.18-.02.14.2.31.4.52.6.04.02.05.06.02.1a12.15 12.15 0 0 1-.59.4c0 .06 0 .12.03.17.2.38.45.69.76.94a2.3 2.3 0 0 0 1.83.49c-.01.11-.09.23-.22.33a.08.08 0 0 0-.03.05l-.03.06c-.17.16-.36.3-.56.43-.07.04-.18.08-.31.12l-.32.13a4.49 4.49 0 0 1-1.5-1.01 5.19 5.19 0 0 1-.76-.91l-.06.01-.86.59a4.04 4.04 0 0 1-.17-.44c-.1-.29-.14-.57-.13-.86a2.84 2.84 0 0 1 .58-1.57l.04-.07.05-.06Z" fill="#A6E3EA"/><path d="M11.86 8.54c.1-.33.12-.64.04-.93-.07-.25-.2-.5-.41-.78a1.7 1.7 0 0 1 1.29.03c.38.16.67.41.87.75l.18.3c.04.07.05.13.03.2a.43.43 0 0 1-.1.16c-.27.3-.6.45-1.03.45-.32 0-.61-.05-.87-.18Z" fill="#7DD7E1"/><path d="M11.49 6.83c.2.28.34.53.4.78.09.3.07.6-.03.93a2.43 2.43 0 0 1-1.07-.99.1.1 0 0 1 0-.1c.17-.3.4-.5.7-.62Z" fill="#C4ECF1"/><path d="M11.16 10.58c.1-.05.21-.1.32-.13.13-.04.24-.08.3-.12.21-.12.4-.27.57-.43a.12.12 0 0 0 .03-.06l.02-.05c.14-.1.22-.22.23-.33.66-.16 1.09-.53 1.26-1.12.04-.1.06-.1.07.01l.04.51a1.83 1.83 0 0 1-1.24 1.81c-.2.07-.42.1-.65.1-.33-.02-.65-.08-.95-.2Z" fill="#54CBD8"/></svg>