<!-- by TradingView --><svg width="18" height="18" viewBox="0 0 18 18" xmlns="http://www.w3.org/2000/svg"><path fill="#181B1E" d="M0 0h18v18H0z"/><path d="M13.84 5.64c.66 0 .83.54.83.8.82-1.02 0-2.44-1.08-2.44-.87 0-1.51.77-1.72 1.16L8 11c.41-1.18 1-3.17 1-3.72 0-.69-.77-2.06-2.31-2.06S4 6.56 4 7.52C4 8.48 4.64 9 5.2 9c.57 0 .82-.47.9-.75-.65.1-.8-.16-.8-.63s.42-1.08 1.19-1.08c.9 0 1.18 1 1.07 1.43-.53 1.75-1.88 5.87-1.88 6.24 0 .48.22.79.68.79.88 0 2.29-2.4 3.86-4.72 1.57-2.32 2.8-4.64 3.62-4.64Z" fill="url(#a)"/><defs><linearGradient id="a" x1="4.4" y1="8.92" x2="14.2" y2="8.92" gradientUnits="userSpaceOnUse"><stop stop-color="#FD8000"/><stop offset=".43" stop-color="#FFA50D"/><stop offset="1" stop-color="#FF8000"/></linearGradient></defs></svg>