<!-- by TradingView --><svg width="18" height="18" viewBox="0 0 18 18" xmlns="http://www.w3.org/2000/svg"><path fill="#F0F3FA" d="M0 0h18v18H0z"/><path d="M9.37 11.97V12a14.07 14.07 0 0 1-3.28-.32c-.48-.11-.93-.25-1.35-.41a6.14 6.14 0 0 1-1.8-1.02c-.19-.16-.36-.34-.5-.51-.14-.2-.25-.4-.32-.6-.17-.46-.16-.93.05-1.39.15-.34.4-.67.76-.97.3-.26.67-.5 1.1-.71.29-.15.59-.27.9-.39.83-.29 1.73-.49 2.69-.59a14.42 14.42 0 0 1 5.37.46 8.3 8.3 0 0 1 2.01.94v.01h-.02a5.5 5.5 0 0 0-.61-.33 10 10 0 0 0-2.7-.78 13.85 13.85 0 0 0-5.62.32c-.54.16-1.04.36-1.49.59-.4.2-.76.45-1.05.7-.33.31-.57.64-.7.98-.15.4-.16.8-.02 1.2.05.16.14.33.25.5.1.15.23.3.38.45a6.32 6.32 0 0 0 1.58 1 12.07 12.07 0 0 0 4.37.85Z" fill="#64AF54"/><path d="m9.31 7.01-1.34 3.33-.02.01-.01-.01L7.36 7 7.34 7H6v.02L6.93 12l.02.01h1.37l.01-.01 2.17-4.96V7H9.3Zm3.52 4.4c.02-.03.03-.03.03 0l.02.57c0 .01 0 .02.02.02h.54c.02 0 .03-.01.03-.03l.42-2.64c0-.03 0-.04-.03-.04h-1.8c-.03 0-.04 0-.04.03l-.13.87v.01l.02.01h.65l.02.01v.02a.92.92 0 0 1-.25.5.59.59 0 0 1-.48.16c-.3-.03-.47-.26-.51-.7a4.44 4.44 0 0 1 .08-1.04c.06-.32.16-.57.28-.75.16-.25.37-.35.61-.3.13.02.25.09.34.2.08.12.14.25.18.42v.02h.03l1.12-.21.02-.02V8.5c-.2-.8-.63-1.28-1.3-1.44a1.94 1.94 0 0 0-1.89.56c-.24.26-.43.56-.57.93a3.6 3.6 0 0 0-.16 2.05c.06.27.16.5.29.7a1.51 1.51 0 0 0 1.23.7 1.32 1.32 0 0 0 1.23-.6Z" fill="#272526"/></svg>