<!-- by TradingView --><svg width="18" height="18" viewBox="0 0 18 18" xmlns="http://www.w3.org/2000/svg"><path fill="#F0F3FA" d="M0 0h18v18H0z"/><path fill-rule="evenodd" d="M7.67 11.95V8.2c-.07-.28-.32-.9-.8-1.24 0-.05-.32-1.12-.91-1.47L4.2 3.07C4.19 3.05 4.16 3 4.1 3s-.02.16 0 .2l1.17 2.23L4.16 3.8l-.08-.02a.6.6 0 0 0 .08.36l1.03 1.74-1.08-1.44a.13.13 0 0 0-.1-.04c-.04 0 .05.17.1.26l.95 1.58-.75-.93c-.02-.02-.07-.06-.12-.06-.05 0 .01.26.07.36.04.08.48.72.69 1.04-.05-.03-.13-.04-.13.12 0 .17.24.42.36.52-.05 0-.16.01-.16.12 0 .1.15.24.22.3-.03-.02-.1-.03-.1.07s.15.24.23.3a.99.99 0 0 0-.1.44c0 .2.07.44.1.53a.45.45 0 0 0-.03.16c0 .07.06.16.1.2-.03.07-.01.25.2.39 0 0-.03.05-.03.13s.18.2.27.26c-.03.01-.07.06-.07.14 0 .1.15.17.22.2-.03.09-.02.3.32.37-.06.1-.09.3.28.37-.02.08 0 .26.31.3-.01.11.03.3.3.23.07.11.25.29.43.15Zm2.66 0V8.2c.07-.28.32-.9.8-1.24 0-.05.32-1.12.92-1.47l1.74-2.43c.02-.02.05-.07.1-.07s.02.16 0 .2l-1.17 2.23 1.12-1.63.08-.02a.6.6 0 0 1-.08.36l-1.03 1.74 1.08-1.44a.13.13 0 0 1 .1-.04c.04 0-.05.17-.1.26l-.95 1.58.75-.93c.02-.02.07-.06.12-.06.05 0-.01.26-.07.36-.04.08-.48.72-.69 1.04.05-.03.13-.04.13.12 0 .17-.24.42-.36.52.05 0 .16.01.16.12 0 .1-.15.24-.22.3.03-.02.1-.03.1.07s-.15.24-.23.3a1 1 0 0 1 .1.44c0 .2-.07.44-.1.53.01.03.03.1.03.16 0 .07-.06.16-.1.2.03.07.01.25-.2.39 0 0 .03.05.03.13s-.18.2-.27.26c.03.01.07.06.07.14 0 .1-.15.17-.22.2.03.09.02.3-.32.37.06.1.09.3-.28.37.02.08 0 .26-.31.3.01.11-.03.3-.3.23-.07.11-.25.29-.43.15ZM8 9h2l-.46-2.5C9.5 6.35 9.4 6 9.12 6H8.3c-.08 0-.25.1-.25.26-.17-.02-.49.03-.49.35 0 .06.04.2.16.28 0-.07.05-.23.3-.23.3 0 .28.3.26.4L8 9Zm.43-2.51c.07 0 .13-.06.13-.13a.12.12 0 0 0-.13-.12.12.12 0 0 0-.13.12c0 .07.06.13.13.13ZM8 9.5v3.13l1.02.87.98-.87V9.5H8Z" fill="#D0112B"/><path opacity=".7" d="m8.98 13.91-.97-.93V15h1.96v-2.02l-.99.93Z" fill="#D0112B"/></svg>