<!-- by TradingView --><svg width="18" height="18" viewBox="0 0 18 18" xmlns="http://www.w3.org/2000/svg"><path fill="#F0F3FA" d="M0 0h18v18H0z"/><path d="m6.62 13.02-.3-.33c-.23.2-.7.63-.69.7.01.08.4.27.5.12.09-.12.36-.37.49-.49Z" fill="url(#a3khfxlmj)"/><path d="M14.02 8.26c.72 0 .95-.7.98-1.05 0 1.15-.82 1.21-1.02 1.21a11.97 11.97 0 0 1-.93 2.57 1.1 1.1 0 0 0-1.08-1.06 1.1 1.1 0 0 0-1.03 1.47c-.85.56-2.79 1.73-3.91 2.03-.5-.48-.88-.91-.93-1.02a25.23 25.23 0 0 0 7.37-4.28c.15.1.3.13.55.13Zm-6.35 5.77c.5.43 1 .81 1.39.97a8.8 8.8 0 0 0 3.1-2.7c.24-.06.65-.26.8-.82a1.09 1.09 0 0 1-1.56.5l-.02.02a14 14 0 0 1-3.7 2.03Z" fill="url(#b3khfxlmj)"/><path d="m5.35 11.27-.23-.42-.58.42-.46.54.52.07.75-.61Z" fill="url(#c3khfxlmj)"/><path d="M3.74 9.8c.07-.08.52-.4.73-.55V8.8l-.62.31c-.26.14-.64.53-.66.64-.02.11.47.17.55.06Z" fill="url(#d3khfxlmj)"/><path d="M5.53 11.58c-.06-.06-.3-.5-.4-.7l1.7-.7c1.59-.74 4.77-2.21 4.77-2.26V6.68l1.9-1.23.76.62.04.03-.04-.03c-.07-.03-.29-.05-.76.03-.6.1-.74.97-.74 1.4-.52.4-1.82 1.37-2.81 2.03a23.26 23.26 0 0 1-4.42 2.05Z" fill="url(#e3khfxlmj)"/><path d="M13.75 5.97C12.7 6.09 12.63 7 12.7 7.44c.04.04.12.1.22.07-.27-.93.5-1.4.86-1.4.3 0 .47.03.52.05a.94.94 0 0 0-.56-.19Z" fill="url(#f3khfxlmj)"/><path d="M10.6 11.22c-1.84 1.41-3.6 1.58-4.25 1.5.02.04.38.42.55.6.03.02.13.02.27-.03.7-.12 2.68-1.34 3.59-1.93v-.24c.04-1.16.9-1.28 1.34-1.18a1.82 1.82 0 0 0-.44-.05c-1.04.12-1.06 1.01-1.06 1.33Z" fill-opacity=".26"/><path d="m3.79 5.24.27.2a15.58 15.58 0 0 1 5.79-1.38A9.75 9.75 0 0 0 9.03 4C7 4 4.7 4.82 3.8 5.24Z" fill="url(#g3khfxlmj)"/><path d="M14.8 7.13c0 .47-.38.86-.84.86a.85.85 0 0 1-.83-.86c0-.48.37-.86.83-.86.46 0 .84.38.84.86Z" fill="url(#h3khfxlmj)"/><path d="M4.2 5.56c1.31-.5 4.22-1.5 5.44-1.5 1.53 0 3.88.7 4.78 1.18 0 .33-.07.75-.1.92-.05-.08-.26-.25-.72-.25-.56 0-1.27.72-.99 1.52l-.07.05c-.63.48-4.1 3.11-7.4 3.41a1.44 1.44 0 0 1-.22-.46c1.33-.41 3.7-1.67 4.79-2.29.18.14.4.23.65.23.59 0 1.07-.49 1.07-1.09 0-.6-.48-1.09-1.07-1.09A1.08 1.08 0 0 0 9.3 7.46a26.3 26.3 0 0 1-4.56 2.18 23.7 23.7 0 0 1-.53-4.08Z" fill="url(#i3khfxlmj)"/><path d="M12.8 11.05c0 .47-.37.86-.83.86a.85.85 0 0 1-.84-.86c0-.48.38-.86.84-.86.46 0 .83.38.83.86Z" fill="url(#j3khfxlmj)"/><path d="M4.54 9.55a14.57 14.57 0 0 1-.75-4.31c.05 0 .18.05.26.2.02 1.73.33 3.02.49 3.45.04.17.1.54 0 .66Z" fill="url(#k3khfxlmj)"/><path d="M5.21 8.8C4.78 8 4.7 6.41 4.7 5.73c.81-.44 3.22-1.2 4.85-1.2 1.3 0 2.66.32 3.17.47l-.32.19c-5.64-.67-6.84 2.79-7.19 3.6Z" fill="url(#l3khfxlmj)" fill-opacity=".54"/><path d="m9.53 7.93-.11-.18c-3.98 2.34-5.7 2.55-5.8 2.55h-.3c0 .14.14.18.3.18 1.2 0 4.44-1.7 5.91-2.55Z" fill="url(#m3khfxlmj)"/><path d="M12.03 9.93c-1.12.08-1.18 1.02-1.07 1.47-.1-.03-.28-.1-.28-.15-.06-.82.4-1.07.62-1.21a.92.92 0 0 1 .73-.11Z" fill="url(#n3khfxlmj)"/><path d="M4.32 8.89c.6-.02 2.5-.35 4.62-1.54 0-.22.06-1.08 1.08-1.27a4.07 4.07 0 0 1 .5.08c-.5-.09-1.43.05-1.43 1.2-.19.14-2.24 1.37-4.54 2.19a2.84 2.84 0 0 1-.23-.66Z" fill="#585858" fill-opacity=".6"/><path d="M4.44 12.53c-.26 0-.28-.15-.26-.22.06.02.21.06.33.06.14 0 1.62-.21 4.38-1.75a28.38 28.38 0 0 0 4.2-2.78l.13.13c-.75.6-2.76 2.08-4.76 3.08-2.5 1.26-3.69 1.48-4.02 1.48Z" fill="url(#o3khfxlmj)"/><path d="m11.18 11.81-.13-.15c-2.93 2-4.72 2.32-4.94 2.32h-.35c.03.07.14.2.38.2 1.4-.08 3.94-1.61 5.04-2.37Z" fill="url(#p3khfxlmj)"/><path d="M9.33 4.34H9v.35h-.51L8.26 6.4H8v.68h.17l-.14 1.08.36-.2.1-.73.4.46.4-.24h.01a1.11 1.11 0 0 1 .03-.5V5.38h.12l.15 1.15c.08-.1.19-.17.3-.22l-.21-1.61h-.36v-.35ZM7.68 10.8l.22-1.68.45-.24.65.66v-.73h-.51l.84-.45v.1h.25l-.15-.16.26-.14.14.15-.01-.1c.1.07.22.12.35.14l.06.42.02.02-.02.02.08.56-.32.19-.05-.42-.6.67v.07l.03.04c-.34.2-.68.37-1 .54l.53-.6-.67-.68-.18 1.44-.37.18Zm2.75-.52-.32.19.03.24-.16-.17-.26.15.48.5v.03h-.87v-.31l-.33.18v.13h-.25c-.4.2-.8.4-1.2.58l-.2 1.49.38-.23.16-1.23.8.76.64-.37v-.66h.92l.01.12c.2-.1.38-.21.53-.3l-.25-.27-.11-.83Zm.29 2.22-.32.2.04.36.38.23-.1-.8Zm-.92.56-.4.2.97.9.32-.26-.9-.84Zm-.47.24-.33.16v1.51l.06.03.27-.15V13.3Zm-.6-7.93H9v1.04h-.4l.12-1.04Zm1.1 3.44h-.5v.56l.5-.56ZM9 7.1v.3l-.26-.3H9Zm0 5.21-.78-.74H9v.74Z" fill="url(#q3khfxlmj)" fill-opacity=".81"/><path d="M5.45 13.5c0-.18.55-.64.82-.85l.08.06a2.9 2.9 0 0 0-.63.63c0 .1.15.13.31.13 1.25 0 3.67-1.45 4.72-2.17l.2.1c-3.15 2.08-4.78 2.3-5.06 2.3-.29 0-.44-.07-.44-.2Z" fill="url(#r3khfxlmj)"/><path d="M3.87 11.92c0-.24.8-.89 1.19-1.17l.08.14c-.46.3-.88.73-.88.8 0 .08.04.1.32.1.59 0 2-.62 3.98-1.6a27.26 27.26 0 0 0 4.16-2.74l.22.07c-.7.6-2.7 2.06-4.98 3.15-2.85 1.37-3.59 1.38-3.72 1.38-.13 0-.37-.01-.37-.13Z" fill="url(#s3khfxlmj)"/><path d="M3 9.84c0-.23.85-.79 1.28-1.04.04 0 .11-.01.05.08a4 4 0 0 0-1.03.8c0 .12.11.12.27.12C5.1 9.54 7.9 8.1 9.09 7.36c.04 0 .17.04.23.1-3.35 2.05-5.72 2.55-6 2.55-.28 0-.32-.1-.32-.17Z" fill="url(#t3khfxlmj)"/><path d="M10.74 6.26a1.08 1.08 0 0 0-1.44 1.2h-.01l-.21-.1c-.04-.35.19-1.16 1-1.22.21 0 .47 0 .67.12Z" fill="url(#u3khfxlmj)"/><path d="M11.2 7.27c0 .47-.37.86-.83.86a.85.85 0 0 1-.84-.86c0-.48.38-.86.84-.86.46 0 .83.38.83.86Z" fill="url(#v3khfxlmj)"/><defs><linearGradient id="a3khfxlmj" x1="6.63" y1="12.97" x2="5.72" y2="13.42" gradientUnits="userSpaceOnUse"><stop stop-color="#DA6B22"/><stop offset="1" stop-color="#EB9F25"/></linearGradient><linearGradient id="b3khfxlmj" x1="15.01" y1="7.21" x2="8.89" y2="14.9" gradientUnits="userSpaceOnUse"><stop stop-color="#9C7D51"/><stop offset=".53" stop-color="#EFD487"/><stop offset="1" stop-color="#D47A2C"/></linearGradient><linearGradient id="c3khfxlmj" x1="5.36" y1="11.19" x2="4.25" y2="11.81" gradientUnits="userSpaceOnUse"><stop stop-color="#DB8047"/><stop offset="1" stop-color="#F9BE3E"/></linearGradient><linearGradient id="d3khfxlmj" x1="4.48" y1="9.15" x2="3.34" y2="9.75" gradientUnits="userSpaceOnUse"><stop stop-color="#656565"/><stop offset="1" stop-color="#BEBCBD"/></linearGradient><linearGradient id="e3khfxlmj" x1="13.94" y1="6.06" x2="5.07" y2="11.1" gradientUnits="userSpaceOnUse"><stop stop-color="#606139"/><stop offset=".47" stop-color="#A9A8AA"/><stop offset="1" stop-color="#7C7F79"/></linearGradient><linearGradient id="f3khfxlmj" x1="13.65" y1="5.88" x2="12.8" y2="7.52" gradientUnits="userSpaceOnUse"><stop stop-color="#E8DDB0"/><stop offset="1" stop-color="#CD542C"/></linearGradient><linearGradient id="g3khfxlmj" x1="9.65" y1="4" x2="3.78" y2="5.39" gradientUnits="userSpaceOnUse"><stop stop-color="#828282"/><stop offset="1" stop-color="#CDCDCD"/></linearGradient><linearGradient id="h3khfxlmj" x1="13.96" y1="6.27" x2="13.96" y2="7.99" gradientUnits="userSpaceOnUse"><stop stop-color="#C8C8C8"/><stop offset="1" stop-color="#78706D"/></linearGradient><linearGradient id="i3khfxlmj" x1="8.51" y1="4.06" x2="10.08" y2="10.62" gradientUnits="userSpaceOnUse"><stop stop-color="#6F6F6F"/><stop offset="1" stop-color="#E8E8E8"/></linearGradient><linearGradient id="j3khfxlmj" x1="11.97" y1="10.19" x2="11.97" y2="11.91" gradientUnits="userSpaceOnUse"><stop stop-color="#C8C8C8"/><stop offset="1" stop-color="#78706D"/></linearGradient><linearGradient id="k3khfxlmj" x1="4.19" y1="5.24" x2="4.19" y2="9.55" gradientUnits="userSpaceOnUse"><stop stop-color="#737373"/><stop offset="1" stop-color="#9D9D9D"/></linearGradient><linearGradient id="l3khfxlmj" x1="12" y1="4.78" x2="4.99" y2="8.61" gradientUnits="userSpaceOnUse"><stop stop-color="#8E8E8E"/><stop offset=".56" stop-color="#EAEAEA"/><stop offset=".86" stop-color="#B0B0B0"/></linearGradient><linearGradient id="m3khfxlmj" x1="9.54" y1="7.75" x2="3.19" y2="10.41" gradientUnits="userSpaceOnUse"><stop stop-color="#BFBFBF"/><stop offset="1" stop-color="#585858"/></linearGradient><linearGradient id="n3khfxlmj" x1="11.46" y1="10.79" x2="10.94" y2="11.45" gradientUnits="userSpaceOnUse"><stop stop-color="#E3BF6B"/><stop offset="1" stop-color="#C57B26"/></linearGradient><linearGradient id="o3khfxlmj" x1="4.26" y1="12.6" x2="13.28" y2="8.08" gradientUnits="userSpaceOnUse"><stop stop-color="#BD7857"/><stop offset=".54" stop-color="#F7E8C1"/></linearGradient><linearGradient id="p3khfxlmj" x1="5.81" y1="14.22" x2="10.96" y2="11.34" gradientUnits="userSpaceOnUse"><stop stop-color="#C98348"/><stop offset=".54" stop-color="#E0B73F"/></linearGradient><linearGradient id="q3khfxlmj" x1="9.18" y1="4.33" x2="9.18" y2="15" gradientUnits="userSpaceOnUse"><stop stop-color="#5C5C5C"/><stop offset=".53" stop-color="#5C5C5C" stop-opacity=".32"/><stop offset="1" stop-color="#CC7111"/></linearGradient><linearGradient id="r3khfxlmj" x1="11.09" y1="11.44" x2="5.35" y2="13.52" gradientUnits="userSpaceOnUse"><stop stop-color="#E9B94F"/><stop offset=".47" stop-color="#FFE0A5"/><stop offset="1" stop-color="#C10E24"/></linearGradient><linearGradient id="s3khfxlmj" x1="13.09" y1="7.92" x2="3.83" y2="11.82" gradientUnits="userSpaceOnUse"><stop stop-color="#D17340"/><stop offset=".51" stop-color="#F7EABD"/><stop offset="1" stop-color="#C9702E"/></linearGradient><linearGradient id="t3khfxlmj" x1="3" y1="10" x2="9.46" y2="7.8" gradientUnits="userSpaceOnUse"><stop stop-color="#3C3A3B"/><stop offset="1" stop-color="#A9A9A9"/></linearGradient><linearGradient id="u3khfxlmj" x1="10.75" y1="6.28" x2="9.18" y2="7.43" gradientUnits="userSpaceOnUse"><stop stop-color="#737373"/><stop offset=".52" stop-color="#D1D1D1"/><stop offset="1" stop-color="#575757"/></linearGradient><linearGradient id="v3khfxlmj" x1="10.37" y1="6.41" x2="10.37" y2="8.13" gradientUnits="userSpaceOnUse"><stop stop-color="#C8C8C8"/><stop offset="1" stop-color="#78706D"/></linearGradient></defs></svg>