<!-- by TradingView --><svg width="18" height="18" viewBox="0 0 18 18" xmlns="http://www.w3.org/2000/svg"><path fill="#F0F3FA" d="M0 0h18v18H0z"/><path fill-rule="evenodd" d="M9 14.5a5.5 5.5 0 1 0 0-11 5.5 5.5 0 0 0 0 11Zm0 .5A6 6 0 1 0 9 3a6 6 0 0 0 0 12Z" fill="#150D6D"/><path d="M8.02 7.66 9 3.62l.94 4.04c.04.16.16.28.31.32l4.21.99-4.2.98a.42.42 0 0 0-.32.32L9 14.23l-.98-3.97a.42.42 0 0 0-.31-.3l-4.22-1 4.22-.98a.42.42 0 0 0 .31-.32Z" fill="#150D6D"/><path d="M8.39 8.2 9 5.6l.6 2.6c.03.1.1.17.2.2l2.7.62-2.7.64c-.1.02-.17.1-.2.2l-.6 2.54-.62-2.54a.27.27 0 0 0-.2-.2l-2.7-.64 2.7-.63c.1-.02.17-.1.2-.2Z" fill="#E63524"/><path d="M8.74 8.65 9 7.55l.26 1.1c.01.05.05.08.09.09L10.5 9l-1.15.27a.12.12 0 0 0-.09.09L9 10.45l-.26-1.08a.12.12 0 0 0-.09-.09L7.5 9.01l1.15-.27a.12.12 0 0 0 .09-.09Z" fill="#F8CA45"/></svg>