<!-- by TradingView --><svg width="18" height="18" viewBox="0 0 18 18" xmlns="http://www.w3.org/2000/svg"><path fill="#F0F3FA" d="M0 0h18v18H0z"/><path d="M8.76 13.91C6.46 11.66 4.63 7.81 4 6.17c1.23.71 4.1 1.9 5.82.98-1.06 1.2-3.47.5-4.53 0 .3 1.52 2.44 5.14 3.47 6.76Z" fill="#F6840D"/><path d="M9.75 7.25c-2.03 2.16-1.49 5.31-.96 6.62C7.86 12.7 5.87 10 5.33 8.33L4.79 6.8c1.1.5 3.65 1.3 4.96.46Z" fill="#FAA61A"/><path d="M11.54 5.6A4.94 4.94 0 0 0 12.59 3a6.05 6.05 0 0 1-.63 4.76c-.72.88-2.04 2.79-1.54 3.36.5.58 1.93-1.8 2.58-3.06-.5 2.29-2.78 5.44-3.2 5.82-.43.38-1.06-.02-1.06-2.76 0-2.74 1.8-4.29 2.8-5.51Z" fill="url(#air1cw4ub)"/><defs><linearGradient id="air1cw4ub" x1="12.55" y1="4.91" x2="11.09" y2="14.04" gradientUnits="userSpaceOnUse"><stop stop-color="#F9A41C"/><stop offset="1" stop-color="#A74610"/></linearGradient></defs></svg>