<!-- by TradingView --><svg width="18" height="18" viewBox="0 0 18 18" xmlns="http://www.w3.org/2000/svg"><path fill="#F0F3FA" d="M0 0h18v18H0z"/><path d="M4 6.38v5.8L9 15l4.64-3V6.37L9 3 4 6.38Z" fill="#FFC114"/><path fill-rule="evenodd" d="M6 7h1.54l.61 1.82L8.77 7h2.15c.31 0 .93.22.93 1.1 0 .3-.07.9-.31.9.15.06.46.33.46.9 0 .74-.46 1.1-.77 1.1h-4L6 7Zm3.7 1.46V8.1h.76c.05 0 .16.03.16.18 0 .14-.1.18-.16.18H9.7Zm0 1.46v-.36h.76c.05 0 .16.03.16.18s-.1.18-.16.18H9.7Z" fill="#DC332C"/><path d="M9.54 15H9l4.64-3 .36.19L9.54 15Z" fill="#FBDA24"/><path d="m14 12.19-.36-.19V6.37L9 3l5 3.38v5.8Z" fill="#F4850A"/></svg>