<!-- by TradingView --><svg width="18" height="18" viewBox="0 0 18 18" xmlns="http://www.w3.org/2000/svg"><path fill="#F0F3FA" d="M0 0h18v18H0z"/><path d="M9 9.22h2.67l-.17.78H9.67L9 9.22ZM10 7.53h2.67l-.34.84H9.5l.5-.84ZM10.83 6.13h.84l.5.87h-1.84l.5-.88Z" fill="#97722A"/><path d="m10.67 6.4 1.44 2.58-.61 1.08L10 7.53l.67-1.12ZM9.67 8.1l1.47 2.51-.61 1.04L9 9.22l.67-1.13Z" fill="#DEB135"/><path d="M10.25 12.2 9.2 14 5 6.95 6 5l4.25 7.2Z" fill="#003C4C"/><path d="M11.5 5 13 7.53l-.67.84-1.5-2.24L11.5 5Z" fill="#DEB135"/></svg>