<!-- by TradingView --><svg width="18" height="18" viewBox="0 0 18 18" xmlns="http://www.w3.org/2000/svg"><path fill="#F0F3FA" d="M0 0h18v18H0z"/><ellipse cx="9" cy="13.01" rx="1.03" ry=".99" fill="#7D2E29"/><ellipse cx="7.52" cy="11.57" rx=".87" ry=".83" fill="#7D2E29"/><ellipse cx="10.51" cy="11.57" rx=".87" ry=".83" fill="#7D2E29"/><ellipse cx="11.91" cy="10.38" rx=".77" ry=".74" fill="#7D2E29"/><ellipse cx="6.2" cy="10.38" rx=".77" ry=".74" fill="#7D2E29"/><ellipse cx="5.09" cy="9.28" rx=".6" ry=".57" fill="#7D2E29"/><ellipse cx="6.8" cy="8.07" rx=".6" ry=".57" fill="#E17328"/><ellipse cx="7.64" cy="6.52" rx=".37" ry=".36" fill="#EE9F28"/><ellipse cx="11.24" cy="8.07" rx=".6" ry=".57" fill="#E17328"/><ellipse cx="10.39" cy="6.52" rx=".37" ry=".36" fill="#EE9F28"/><ellipse cx="7.81" cy="9.03" rx=".67" ry=".64" fill="#E17328"/><ellipse cx="8.26" cy="7.11" rx=".42" ry=".4" fill="#EE9F28"/><ellipse cx="10.2" cy="9.03" rx=".67" ry=".64" fill="#E17328"/><ellipse cx="9.75" cy="7.11" rx=".42" ry=".4" fill="#EE9F28"/><ellipse cx="9" cy="10.16" rx=".78" ry=".74" fill="#E17328"/><ellipse cx="9.01" cy="7.82" rx=".48" ry=".46" fill="#EE9F28"/><ellipse cx="12.92" cy="9.28" rx=".6" ry=".57" fill="#7D2E29"/><ellipse cx="13.86" cy="8.42" rx=".48" ry=".46" fill="#7D2E29"/><ellipse cx="4.15" cy="8.42" rx=".48" ry=".46" fill="#7D2E29"/><ellipse cx="5.91" cy="7.18" rx=".48" ry=".46" fill="#E17328"/><ellipse cx="7.09" cy="5.97" rx=".3" ry=".29" fill="#EE9F28"/><ellipse cx="12.12" cy="7.18" rx=".48" ry=".46" fill="#E17328"/><ellipse cx="10.94" cy="5.97" rx=".3" ry=".29" fill="#EE9F28"/><ellipse cx="14.6" cy="7.69" rx=".4" ry=".38" fill="#7D2E29"/><ellipse cx="3.4" cy="7.69" rx=".4" ry=".38" fill="#7D2E29"/><ellipse cx="5.17" cy="6.51" rx=".4" ry=".38" fill="#E17328"/><ellipse cx="6.63" cy="5.55" rx=".25" ry=".24" fill="#EE9F28"/><ellipse cx="12.83" cy="6.51" rx=".4" ry=".38" fill="#E17328"/><ellipse cx="11.38" cy="5.55" rx=".25" ry=".24" fill="#EE9F28"/><ellipse cx="4.55" cy="5.92" rx=".31" ry=".3" fill="#E17328"/><circle cx="6.25" cy="5.19" fill="#EE9F28" r=".19"/><ellipse cx="13.44" cy="5.92" rx=".31" ry=".3" fill="#E17328"/><circle cx="11.76" cy="5.19" fill="#EE9F28" r=".19"/></svg>