<!-- by TradingView --><svg width="18" height="18" viewBox="0 0 18 18" xmlns="http://www.w3.org/2000/svg"><path fill="#F0F3FA" d="M0 0h18v18H0z"/><path fill-rule="evenodd" d="m15.98 12 .02-.01V6L15.98 6H2.02L2 6.01V12l.02.01h13.96ZM4.97 10.61l-.03-.01v-.1l.42-.93.35-.8.35-.81c.05-.1.14-.2.25-.3.04-.04.05-.07.05-.1-.01-.05-.06-.07-.14-.07A2.84 2.84 0 0 0 5 7.73l-.06.02c-.13.05-.23.1-.31.15-.58.39-.84.84-.78 1.36.01.1.07.1.19.04l.15-.1c.11-.06.17-.14.17-.24 0-.1.02-.25.08-.43.04-.13.11-.26.22-.38.13-.14.27-.24.43-.3.23-.08.39-.09.48-.03.02 0 .02.02.02.04-.03.12-.07.24-.13.37a46.66 46.66 0 0 0-1.15 2.7 1.1 1.1 0 0 0-.08.21l-.02.06c0 .02 0 .03.03.04a.1.1 0 0 0 .06 0c.18-.02.38-.13.62-.34l1.73-1.47c.47-.4.9-.83 1.28-1.28.3-.34.51-.69.66-1.04a.76.76 0 0 0 .04-.3c0-.06-.04-.07-.13-.05l-.02.01c-.16.1-.32.18-.47.25-.06.03-.08.07-.07.12.04.1.05.22.02.32-.02.07-.07.18-.16.33l-.02.04a6.1 6.1 0 0 1-1.15 1.34l-.37.37-.23.2-.16.13a47.72 47.72 0 0 1-.9.74Zm7.37.16c-.45 0-.86 0-1.23.02-.04 0-.06 0-.07-.02-.02-.04-.01-.07.02-.1.35-.32.63-.65.85-.99.14-.2.32-.52.55-.95.12-.21.28-.44.48-.68.06-.07.16-.11.3-.13a2.85 2.85 0 0 1 .5 0c.1.01.16-.01.22-.06.1-.08.17-.17.2-.27 0-.05-.03-.07-.11-.08-.24-.03-.47.01-.67.11a4.1 4.1 0 0 0-1.17.84c-.14.15-.32.43-.55.84-.34.61-.61 1.06-.8 1.36a.49.49 0 0 1-.14.1.83.83 0 0 1-.3.05c-.2.01-.31.04-.36.09a2.2 2.2 0 0 0-.2.23c-.01.02 0 .03.03.03.16.02.33.02.49 0 .1-.02.21-.02.36 0a11.47 11.47 0 0 0 1.37.09c.36 0 .6-.01.72-.05.1-.03.19-.09.25-.16.3-.36.58-.72.84-1.09l-.02-.03c0-.01-.01-.02-.03-.02h-.03l-.58.57c-.2.2-.5.3-.92.3Zm-4.68.03h.22l1.26-.04c.09 0 .21-.04.38-.09.1-.03.2-.08.28-.16.23-.2.4-.37.5-.5.14-.16.18-.15.11.03l-.1.13-.7.92c-.08.1-.34.15-.78.16-.3 0-.6-.01-.92-.04a5.75 5.75 0 0 0-1.4-.03c-.02-.01-.03-.03-.02-.05.05-.18.22-.28.52-.32h.06l.2-.04c.06-.02.1-.06.15-.1.1-.13.2-.29.31-.49a11.57 11.57 0 0 1 .7-1.22c.15-.26.29-.45.43-.6A4.49 4.49 0 0 1 10 7.6c.22-.1.45-.12.7-.09.03 0 .04.02.03.04a.91.91 0 0 1-.2.27.3.3 0 0 1-.19.08l-.22-.01h-.34a.66.66 0 0 0-.38.25c-.22.33-.53.84-.92 1.52-.19.34-.45.66-.79.97a.36.36 0 0 0-.1.14l.02.02.05.01Z" fill="#FE0921"/></svg>