<!-- by TradingView --><svg width="18" height="18" viewBox="0 0 18 18" xmlns="http://www.w3.org/2000/svg"><path fill="#F0F3FA" d="M0 0h18v18H0z"/><path d="m11.4 7.03-2.46 4.02-.3.38 1.45.63 1.75-1.24 2.13-3.43c.1-.16-.03-.36-.22-.36H11.4Z" fill="url(#a)"/><path d="M6.64 7.03H4.2c-.15 0-.24.15-.16.27l3.73 6.03c.26.41.73.67 1.23.67h.06c.5 0 .98-.26 1.24-.67l1.88-3.04c-.18.28-1.34 1.26-2.1 1.26-.61 0-.98-.45-1.09-.67L6.64 7.03Z" fill="url(#b)"/><path d="M11.37 7.03H6.64L5.6 5.34C5.5 5.2 5.62 5 5.8 5h6.38c.19 0 .3.19.21.34l-1.03 1.7Z" fill="url(#c)"/><defs><linearGradient id="a" x1="13.94" y1="7.42" x2="9.73" y2="9.46" gradientUnits="userSpaceOnUse"><stop stop-color="#07B9FF"/><stop offset="1" stop-color="#0260F4"/></linearGradient><linearGradient id="b" x1="4.75" y1="7.91" x2="7.88" y2="14.1" gradientUnits="userSpaceOnUse"><stop stop-color="#0260F4"/><stop offset="1" stop-color="#02BCED"/></linearGradient><linearGradient id="c" x1="10.44" y1="7.7" x2="11.71" y2="4.87" gradientUnits="userSpaceOnUse"><stop stop-color="#0161F6"/><stop offset="1" stop-color="#07B1FF"/></linearGradient></defs></svg>