<!-- by TradingView --><svg width="18" height="18" viewBox="0 0 18 18" xmlns="http://www.w3.org/2000/svg"><path fill="#F0F3FA" d="M0 0h18v18H0z"/><path d="M13.47 6.7A5.01 5.01 0 0 0 9.01 4c-1.45 0-2.76.53-3.74 1.63-.04.04-.03.06.02.05 2.26-.44 3.44 1.05 3.9 3.02.21.97.26 2 .3 3.06 0 .06.02.07.06.02a75.27 75.27 0 0 0 2.87-3.58 3.51 3.51 0 0 0 .48-.98.17.17 0 0 0-.16-.15L12 7.04c-.05 0-.07-.03-.05-.07l.04-.14c.02-.04.05-.06.1-.06h1.34a.04.04 0 0 0 .04-.05V6.7Zm-4.45 6.34c-.17.2-.4.3-.7.27-.04 0-.06-.03-.06-.07.1-1.46.03-2.85-.2-4.19-.27-1.52-1.3-3.25-3.13-2.85a.29.29 0 0 0-.19.14 5 5 0 1 0 8.97.97.05.05 0 0 0-.05.01l-4.64 5.72Z" fill="#2D98D3"/></svg>