<!-- by TradingView --><svg width="18" height="18" viewBox="0 0 18 18" xmlns="http://www.w3.org/2000/svg"><path fill="#F0F3FA" d="M0 0h18v18H0z"/><path d="M5.22 13c-.09-1.24-.39-2.5-.39-3.75 0-1.03.29-2.03.85-2.84-.84 0-2.23 1-2.23 1.96 0 .12.04.26.1.4.1.17.15.3.15.4 0 .08-.03.15-.08.2a.24.24 0 0 1-.18.08c-.1 0-.2-.06-.29-.18a1.1 1.1 0 0 1-.15-.6c0-1.6 1.83-2.52 3.1-2.61L6.67 6c-.6.96-1.01 2.1-1.07 3.27-.05.81.15 1.64.24 2.42l.99-1.13C7.78 9.49 9.7 8 9.7 6.3c0-.33-.2-.61-.2-.93 0-.2.17-.37.36-.37.13 0 .24.07.33.22.08.14.13.36.13.67 0 2.97-3.5 5.17-5.1 7.11Z" fill="url(#avuueqqzf)"/><path d="M14.1 7.3h-.3c.04-.42.06-.74.06-.95 0-.62-.35-1-.91-1-.76 0-1.59.64-1.59 1.54 0 1.5 2.1 1.87 2.1 3.48 0 1.71-1.89 2.63-3.23 2.63-.7 0-2-.39-2-1.37 0-.17.05-.32.15-.43.1-.12.21-.18.35-.18a.4.4 0 0 1 .33.16c.05.07.1.21.16.43.1.4.25.72.6.88.17.08.35.12.54.12.92 0 2.05-.7 2.05-1.84 0-1.9-2.1-2.17-2.1-3.52 0-1.41 1.62-2.25 2.75-2.25.49 0 .96.14 1.44.2-.09.26-.15.5-.2.73-.05.23-.11.68-.2 1.36Z" fill="url(#bvuueqqzf)"/><defs><linearGradient id="avuueqqzf" x1="6.66" y1="5" x2="6.66" y2="13" gradientUnits="userSpaceOnUse"><stop stop-color="#686868"/><stop offset=".21" stop-color="#93BFB0"/><stop offset=".36" stop-color="#6BA491"/><stop offset=".46" stop-color="#72A695"/><stop offset=".57" stop-color="#7FBEA9"/><stop offset=".73" stop-color="#7DA99A"/><stop offset=".95" stop-color="#A8D0C5"/></linearGradient><linearGradient id="bvuueqqzf" x1="11.36" y1="5" x2="11.36" y2="13" gradientUnits="userSpaceOnUse"><stop stop-color="#686868"/><stop offset=".21" stop-color="#93BFB0"/><stop offset=".36" stop-color="#6BA491"/><stop offset=".46" stop-color="#72A695"/><stop offset=".57" stop-color="#7FBEA9"/><stop offset=".73" stop-color="#7DA99A"/><stop offset=".95" stop-color="#A8D0C5"/></linearGradient></defs></svg>