<!-- by TradingView --><svg width="18" height="18" viewBox="0 0 18 18" xmlns="http://www.w3.org/2000/svg"><path fill="#F0F3FA" d="M0 0h18v18H0z"/><path d="M7.13 5.25 6.5 4 4 9l2.5 5h1.25l-2.5-5 1.88-3.75Z" fill="#8BC63E"/><path d="m7.9 6.97-.62-1.25L5.72 9l2.5 5h1.25l-2.5-5 .94-2.03Z" fill="#0072BC"/><path d="m8.69 8.69-.63-1.25L7.44 9l2.5 5h1.25L8.53 9l.16-.31ZM10.88 12.75 11.5 14 14 9l-2.5-5h-1.25l2.5 5-1.88 3.75Z" fill="#EE1D23"/><path d="m10.1 11.03.62 1.25L12.28 9l-2.5-5H8.53l2.5 5-.94 2.03Z" fill="#0072BC"/><path d="m9.31 9.31.63 1.25.62-1.56-2.5-5H6.81l2.66 5-.16.31Z" fill="#8BC63E"/></svg>