<!-- by TradingView --><svg width="18" height="18" viewBox="0 0 18 18" xmlns="http://www.w3.org/2000/svg"><path fill="url(#alswwtzve)" d="M0 0h18v18H0z"/><path d="M5 6.54c0-.3-.22-.54-.5-.54s-.5.24-.5.54v4.28c0 .4.14.79.4 1.09l.48.57c.59.69 1.6.7 2.2.02l.51-.58c.26-.3.41-.7.41-1.1V6.53c0-.3-.22-.54-.5-.54s-.5.24-.5.54v4.27c0 .14-.05.27-.14.37l-.5.58a.48.48 0 0 1-.74 0l-.49-.58a.56.56 0 0 1-.13-.36V6.54ZM10.66 6a.7.7 0 0 0-.49.2l-.96.96a.7.7 0 0 0-.21.5v3.76c0 .2.08.38.23.51l.96.89c.12.11.3.18.47.18h1.61a.7.7 0 0 0 .46-.17l1.03-.88a.7.7 0 0 0 .24-.54V9.7a.7.7 0 0 0-.7-.7h-1.8a.5.5 0 0 0 0 1H13v1.28l-.84.72h-1.38l-.78-.71V7.78l.79-.78h1.36l1.01.94a.5.5 0 1 0 .68-.74l-1.1-1.01a.7.7 0 0 0-.47-.19h-1.6Z" fill="#00E700"/><defs><linearGradient id="alswwtzve" x1="3.35" y1="3.12" x2="21.9" y2="24.43" gradientUnits="userSpaceOnUse"><stop stop-color="#1A1E21"/><stop offset="1" stop-color="#06060A"/></linearGradient></defs></svg>