<!-- by TradingView --><svg width="18" height="18" viewBox="0 0 18 18" xmlns="http://www.w3.org/2000/svg"><path fill="#F0F3FA" d="M0 0h18v18H0z"/><path fill-rule="evenodd" d="M13 12a5 5 0 1 0-8 0h8Zm-1-2.87V11h.82c.4-.65.62-1.42.62-2.24A4.4 4.4 0 0 0 9 4.4a4.4 4.4 0 0 0-4.44 4.37c0 .82.23 1.59.62 2.24H6V9.13l1.5-.8v-1.4L8.98 6l1.52.93v1.42l1.5.78Zm-1.5-.63v2.97h-.17V7l-1.35-.84L7.67 7v4.47H7.5V8.5l-1.33.72v2.62h5.66V9.21l-1.33-.7ZM8.69 6.77l-.85.52-.07-.11.84-.53.08.12Zm-.85 2.45.85-.53-.08-.11-.84.52.07.12Zm-1.4.23L7.28 9l-.06-.12-.85.46.07.12Zm0 .6.84-.47-.06-.12-.85.46.07.12Zm2.25-.69-.85.53-.07-.12.84-.52.08.11Zm-.85-1.4.85-.52-.08-.12-.84.53.07.11Zm-.56 2.2-.84.46-.07-.12.85-.46.06.12Zm.56.38.85-.53-.08-.11-.84.52.07.12ZM8.7 8.1l-.85.53-.07-.12.84-.53.08.12Zm-2.25 3.1.84-.46-.06-.12-.85.46.07.12Zm2.25-.52-.85.52-.07-.11.84-.53.08.12Zm2.87-1.22L10.72 9l.06-.12.85.46-.07.12ZM9.31 8.7l.85.53.07-.12-.84-.52-.08.11Zm.85-1.4-.85-.52.08-.12.84.53-.07.11Zm.56 2.3.84.45.07-.12-.85-.46-.06.12Zm-.56.3-.85-.53.08-.11.84.52-.07.12ZM9.3 7.44l.85.52.07-.11-.84-.53-.08.12Zm2.25 3.18-.84-.46.06-.12.85.46-.07.12Zm-2.25-.6.85.52.07-.12-.84-.52-.08.11Zm.85-1.4-.85-.53.08-.12.84.53-.07.12Zm.56 2.11.84.46.07-.12-.85-.46-.06.12Zm-.56.46-.85-.52.08-.12.84.53-.07.11ZM8.93 6.33v5h.14v-5h-.14ZM12 13.2c1.14 0 1.8-.63 2-.94-.32.21-1.17.63-2 .63-.84 0-2.08-.22-2.6-.33.4.22 1.46.64 2.6.64Zm-7.8.28Zm8.92-.2c-.18.08-.68.2-1.68.2-.73 0-1.6-.26-2.47-.51a9.78 9.78 0 0 0-2.55-.53c-1.09 0-1.82.56-2.13.92.22-.23.76-.52 1.71-.52.73 0 1.73.28 2.68.55.87.25 1.71.49 2.28.49a4.8 4.8 0 0 0 2.16-.6Zm0 0a2.29 2.29 0 0 1 0 0ZM4 14c.2-.31.86-.94 2-.94 1.14 0 2.2.42 2.6.63-.52-.1-1.76-.33-2.6-.33-.83 0-1.68.43-2 .64Z" fill="#BD8306"/></svg>