<!-- by TradingView --><svg width="18" height="18" viewBox="0 0 18 18" xmlns="http://www.w3.org/2000/svg"><path fill="#F0F3FA" d="M0 0h18v18H0z"/><path d="M6.58 10.75a.08.08 0 0 1-.03-.03l-2.5-4.64a.14.14 0 0 0-.13-.07H2.08l-.04.01a.1.1 0 0 0-.04.09l.02.05.1.07c.05.03.1.06.12.1l3.46 6.58.06.07a.15.15 0 0 0 .17 0 11904.84 11904.84 0 0 1 2.85-5.85c.21-.45.54-.7.98-.78l.07-.03a.16.16 0 0 0 .04-.06l.04-.09a.12.12 0 0 0-.01-.1.1.1 0 0 0-.04-.05.1.1 0 0 0-.05 0L8.21 6c-.34 0-.36.08-.05.23.46.25.25.78.07 1.17a202.87 202.87 0 0 0-1.57 3.34.08.08 0 0 1-.08 0ZM13 11.82V6.53c0-.04.01-.08.04-.1a.15.15 0 0 1 .1-.06c.5-.03.94-.03 1.2.02.65.07 1.14.68 1.37 1.23l.05.05.15.1a.06.06 0 0 0 .07 0l.02-.03V7.7l-.38-1.63c0-.05-.03-.07-.08-.07h-4.4c-.08 0-.14.04-.14.12v5.83c.02.4.01.66-.25.8-.31.16-.3.25.07.25h2.52c.26 0 .29-.06.08-.19-.3-.2-.43-.52-.42-1Z" fill="#231815"/></svg>