<!-- by TradingView --><svg width="18" height="18" viewBox="0 0 18 18" xmlns="http://www.w3.org/2000/svg"><path fill="#F0F3FA" d="M0 0h18v18H0z"/><path fill-rule="evenodd" d="M8.6 5.2c-.3-.73-1.12-1.1-1.84-1.18-.3-.03-.6-.03-.9.01-.43.06-.86.28-1.18.61-.58.6-.76 1.4-.66 2.24.1.9.5 1.74 1.24 2.2.38.25.82.36 1.27.33.68-.05 1.26-.4 1.68-.99.29-.4.46-.88.56-1.38.12-.62.08-1.26-.16-1.84ZM6.44 7.24h-.02v-.01c-.2-.57-.39-1.1-.55-1.6-.06-.16-.15-.29-.33-.3-.1 0-.18.02-.25.08-.22.19-.13.45-.05.68l.7 1.98c.06.14.18.3.33.34.24.06.46-.02.56-.26l.04-.08.78-2.02c.09-.24.14-.49-.1-.65-.13-.09-.26-.09-.39.01-.1.07-.14.21-.18.34l-.03.1-.42 1.14-.03.08-.06.17Zm2.92.6c.12.9.5 1.74 1.31 2.13a2.61 2.61 0 0 0 2.03.04c.72-.32 1.12-1.01 1.25-1.82a4.74 4.74 0 0 0 .04-1.28c-.07-.68-.32-1.39-.93-1.71a3.1 3.1 0 0 0-2.62-.05c-.61.28-.95.84-1.07 1.52-.07.4-.06.77 0 1.17Zm2.65.91V7h.57c.25 0 .54-.17.37-.45-.08-.13-.2-.17-.36-.17h-1.93c-.5 0-.51.61-.02.62h.62v1.73c0 .1.01.21.07.3.08.1.2.16.33.16.1 0 .17-.03.24-.09.1-.09.1-.2.11-.34Zm-2.39 1.2a2 2 0 0 1 1.16 1.54c.03.27.03.56-.01.86-.14.97-.63 2.12-1.56 2.5-.91.35-2.08.1-2.65-.77-.07-.1-.13-.23-.2-.38A4.5 4.5 0 0 1 6 11.81c0-.3.05-.57.14-.83.22-.66.71-1.09 1.35-1.24a3.45 3.45 0 0 1 2.13.21Zm-1.24 2.91h.01c.04-.06.06-.12.07-.17l.03-.09a1095.1 1095.1 0 0 1 .45-1.23c.06-.19.12-.39.35-.4.15-.02.28.06.36.2.03.06.04.13.03.22 0 .07-.02.15-.05.22a917.03 917.03 0 0 1-.84 2.16c-.08.2-.27.31-.47.29-.23-.03-.35-.2-.42-.4l-.71-1.99c-.08-.22-.15-.46.06-.63.12-.1.26-.12.4-.04.09.05.14.17.18.26a382.25 382.25 0 0 0 .55 1.6Z" fill="#1A429A"/></svg>