<!-- by TradingView --><svg width="18" height="18" viewBox="0 0 18 18" fill="none" xmlns="http://www.w3.org/2000/svg">
<rect width="18" height="18" fill="#F0F3FA"/>
<path fill-rule="evenodd" clip-rule="evenodd" d="M16 6.25253C16 6.25253 6.90045 4.11886 5.57293 9C5.57293 9 3.90749 8.91232 4.00404 7.74318C4.10059 6.57404 8.05901 3.18355 16 6.25253Z" fill="#F57F12"/>
<path d="M8.60883 13.4448L6.21136 7.8931C6.00496 7.39958 5.67043 7.14483 5.12618 7.14483C5.05047 7.14483 5 7.12069 5 7.07241C5 7.02414 5.07571 7 5.25237 7C6.11084 7 6.91471 7 7.77287 7C7.92429 7 8 7.02414 8 7.07241C8 7.12069 7.94953 7.14483 7.84858 7.14483C7.66135 7.14483 7.42271 7.16478 7.42271 7.41035C7.42271 7.5069 7.49842 7.74828 7.64984 8.11035L9.29022 12H9.34069C9.8959 10.6966 10.5016 9.41379 11.2082 7.72414C11.2587 7.57931 11.2839 7.45862 11.2839 7.38621C11.2839 7.16086 10.9337 7.16897 10.7792 7.16897C10.6782 7.16897 10.6278 7.14483 10.6278 7.09655C10.6278 7.02414 10.7287 7 10.9054 7C11.5379 7 12.1663 7 12.7981 7C12.9243 7 13 7.02414 13 7.07241C13 7.12069 12.9495 7.14483 12.8486 7.14483C12.2901 7.14483 12.0656 7.62897 11.8644 8.08621C11.6625 8.54483 11.2839 9.36552 10.7287 10.5483L9.46688 13.3241C9.39912 13.4538 9.25353 14 9.03785 14C8.83793 14 8.66457 13.5781 8.60883 13.4448Z" fill="#2B2A29"/>
</svg>
