<!-- by TradingView --><svg width="18" height="18" viewBox="0 0 18 18" xmlns="http://www.w3.org/2000/svg"><path fill="#F0F3FA" d="M0 0h18v18H0z"/><path d="M4 14h10V7H4v7Z" fill="url(#a)"/><path d="M4 4h10v4l-5 3-5-3V4Z" fill="url(#b)"/><path d="M12.62 8a1 1 0 0 0-.65.24L9 10.76 6.03 8.24A1 1 0 0 0 5.38 8H4l4.5 3.81c.29.25.71.25 1 0L14 8h-1.38Z" fill="url(#c)"/><path fill="url(#d)" d="M8 6h2v2H8z"/><defs><linearGradient id="a" x1="9.63" y1="4.67" x2="13" y2="14.48" gradientUnits="userSpaceOnUse"><stop offset=".81" stop-color="#5EAF36"/><stop offset="1" stop-color="#BFE3B5"/></linearGradient><linearGradient id="b" x1="4" y1="4" x2="11.05" y2="9.97" gradientUnits="userSpaceOnUse"><stop stop-color="#FEEAC1"/><stop offset=".47" stop-color="#F5B934"/></linearGradient><linearGradient id="c" x1="9.01" y1="10.45" x2="9.7" y2="11.91" gradientUnits="userSpaceOnUse"><stop stop-color="#1E181A"/><stop offset="1" stop-color="#D9D9D9"/></linearGradient><linearGradient id="d" x1="8" y1="6" x2="9.74" y2="8" gradientUnits="userSpaceOnUse"><stop stop-color="#D9D9D9"/><stop offset=".58" stop-color="#1E181A"/></linearGradient></defs></svg>