<!-- by TradingView --><svg width="18" height="18" viewBox="0 0 18 18" xmlns="http://www.w3.org/2000/svg"><path fill="#F0F3FA" d="M0 0h18v18H0z"/><path d="M9 14c1.3 0 2.47-.5 3.35-1.33h-6.7A4.87 4.87 0 0 0 9 14ZM5.06 12h7.88c.23-.3.48-.64.63-1H4.43c.15.36.4.7.63 1ZM4.43 7c.15-.36.4-.7.63-1h7.88c.23.3.48.64.63 1H4.43ZM5.65 5.33h6.7a4.87 4.87 0 0 0-6.7 0Z" fill="#129B49"/><path fill-rule="evenodd" d="M14.26 7c-.32 0-.6.27-.7.66L12.83 11h1.74c.32 0 .6-.27.69-.66L16 7h-1.74Zm.89.8h-.81l-.57 2.4h.81l.57-2.4Z" fill="#EE1D23"/><path d="M11.97 7h-.8l-.9 4h1.74c.32 0 .6-.27.7-.66L13.44 7h-.8l-.74 3.2h-.68l.74-3.2ZM9.07 7c-.3 0-.56.27-.65.66L7.72 11h1.85c.3 0 .56-.27.64-.66l.37-1.74H9.3l-.1.61h.6l-.23.99H8.52l.57-2.4h1.06l-.1.4h.6l.26-1.2H9.07ZM8.36 7h-.69l-.53 2.5-.86-2.45-.36 1.27.9 2.68h.7l.84-4ZM3.77 7h-.8L2 11h1.26a.3.3 0 0 0 .2-.09c.13-.12.3-.12.42 0a.3.3 0 0 0 .2.09h.53c.33 0 .62-.28.73-.7l.8-3.3h-.8l-.82 3.39c-.24 0-.35-.53-.27-.83L4.6 8.2h-.69l-.4 1.46c-.07.3-.28.5-.52.5L3.77 7ZM6.5 10.5a.5.5 0 1 1-1 0 .5.5 0 0 1 1 0Z" fill="#EE1D23"/></svg>