<!-- by TradingView --><svg width="18" height="18" viewBox="0 0 18 18" xmlns="http://www.w3.org/2000/svg"><path fill="#F0F3FA" d="M0 0h18v18H0z"/><path d="M7.4 5.14c-.03.2.03.21.17.06l1.25-1.35c.08-.1.14-.24.25-.31l.9-.53c.02-.02.03-.01.03.02a4.39 4.39 0 0 1-.02.05l-.29.27c-.27.24-.47.45-.73.7-.12.1-.26.25-.42.44l-.74.84c-.18.21-.37.37-.56.55a.14.14 0 0 0-.03.03.5.5 0 0 1-.02.04c-.07.07-.1.06-.08-.03.03-.17.12-.33-.04-.5A.22.22 0 0 1 7 5.33c-.04-.19.33-.57.49-.7.05-.05.07-.04.05.03-.08.2-.13.36-.14.48ZM9.94 12.22a6.34 6.34 0 0 0-1.57 1.42l-.01-.01c-.1-.8.25-1.42.73-2.06.2-.27.38-.55.53-.82l.12-.36c.04-.16.05-.33.01-.5 0-.04-.02-.05-.05-.01-.12.16-.25.3-.4.44a.9.9 0 0 1-.3.18c-.95.33-1.77-.33-1.6-1.2h-.02a.5.5 0 0 0-.17.19l-.02.01h-.03c-.13-.03-.1-.25-.07-.34.08-.22.23-.49.13-.7-.06-.13-.2-.27-.36-.37A2.98 2.98 0 0 1 6 7.27v-.02l.02-.01h.01c.47-.04.98-.03 1.51.03.14.02.33.02.42-.04.17-.1.26-.18.4-.2h.04l.03.02.02.03v.03c-.06.25-.21.6-.48.71-.14.06-.37.11-.48.23-.13.14-.1.36 0 .51.06.09.14.17.25.25.4.29.92.5 1.4.52.43.02.83-.06 1.2-.25.17-.08.26-.23.26-.45 0-.68-.38-1.33-.82-1.9a13.14 13.14 0 0 0-.61-.78 32.68 32.68 0 0 0 .55-.62c.07-.08.15-.2.22-.33.05-.1.05-.17 0-.26-.02-.06-.03-.13.02-.19.16-.18.39-.33.58-.5a.23.23 0 0 1 .1-.05h.02l.02.01v.04l-.21.52a.06.06 0 0 0 .01.06l.03.02h.04c.21 0 .42.03.63.12l.3.12c.15.03.33.04.5.08.02 0 .02.02.02.04l-.01.02-.01.01-.02.01c-.16.05-.33.09-.51.11a.65.65 0 0 0-.28.15c-.28.22-.42.18-.78.15a.38.38 0 0 0-.31.1c-.14.12-.23.23-.3.34-.08.14.1.34.2.47.07.08.23.27.5.55.49.53.79 1.23.65 1.92-.04.2-.14.4-.32.57-.05.05-.04.1.03.13.13.06.22.15.33.25.32.32.46.68.43 1.1-.02.12-.07.31-.17.57a4.67 4.67 0 0 0-.34 2.81 22.37 22.37 0 0 1 .08.73c-.43-.3-.71-.67-.85-1.13a1.26 1.26 0 0 1-.06-.4h-.01a.03.03 0 0 0-.03 0 4.47 4.47 0 0 0-1.16 1.37h-.02c-.06-.35-.05-.7.05-1.07.04-.17.1-.44.21-.65.13-.24.27-.46.43-.65.06-.08.17-.15.22-.24 0-.02 0-.02-.01 0Z"/></svg>