<!-- by TradingView --><svg width="18" height="18" viewBox="0 0 18 18" xmlns="http://www.w3.org/2000/svg"><path fill="#F0F3FA" d="M0 0h18v18H0z"/><path fill-rule="evenodd" d="M10.72 12.38a15.1 15.1 0 0 1 .18-.44c.22-.12.27-.24.26-.48 0-.04.03-.1.07-.17.08-.13.23-.55.08-.67-.24-.2-.43-.39-.55-.58a.1.1 0 0 0-.05-.04c-.1-.04-.23-.07-.35-.1-.15-.01-.22.04-.32.1l-.06.05c-.23.14-.52.19-.82.19-.3 0-.52.02-.65.05l-.5.13c-.1.03-.27.03-.49.01a.19.19 0 0 1-.1-.03l-.04-.03-.05-.05a.11.11 0 0 0-.06-.02l-.26-.05a6.97 6.97 0 0 0-.55.4c-.09.06-.13.13-.13.21 0 .13.04.23.13.3.03.03.1.07.22.13.1.06.19.16.26.3.06.12.16.4.3.85.04.12.09.2.15.25a.7.7 0 0 0 .4.15c.35.02.66-.08.9-.3a5.52 5.52 0 0 1 .86 0c.09-.02.17-.03.24.06a.8.8 0 0 0 .12.1c.01.02.03.02.05.02.23 0 .41-.03.54-.09a.4.4 0 0 0 .22-.25Zm-1.46-1.35c-.1.04-.2.06-.28.04a.35.35 0 0 1-.16-.1.44.44 0 0 0-.37-.13c-.09 0-.15.04-.2.09-.1.14-.07.33-.01.49.04.11.08.18.12.22.05.05.13.08.24.07a4 4 0 0 0 .54-.05.71.71 0 0 0 .37-.18c.1-.1.16-.22.19-.38a.12.12 0 0 0-.07-.13.12.12 0 0 0-.05-.02c-.03 0-.1 0-.17.02l-.15.06Z" fill="#0066A5"/><path fill-rule="evenodd" d="M15 9A6 6 0 1 1 3 9a6 6 0 0 1 12 0ZM9.16 4.51c-.28.16-.54.29-.79.38a.32.32 0 0 0-.17.15c-.15.26-.06.36.13.55l.03.02.02.05c.02.13 0 .22-.08.29l-.67.65-.87.94a1.8 1.8 0 0 1-.33.27 1.95 1.95 0 0 0-.65.71c-.05.1-.14.2-.28.32a13.82 13.82 0 0 1-1.24.92h-.01a4.6 4.6 0 0 1 .34-2.68 4.81 4.81 0 0 1 9.17 2.48l-1-.57a1.74 1.74 0 0 1-.3-.3 2.8 2.8 0 0 0-.32-.31 5.3 5.3 0 0 1-.28-.25c-.14-.14-.3-.26-.47-.37-.16-.11-.32-.23-.47-.37l-.1-.1a1.4 1.4 0 0 0-.23-.2l-.4-.28c-.07-.04-.1-.09-.15-.13l-.07-.08c-.08-.07-.08-.16 0-.25.14-.19.26-.32.36-.41.06-.06.1-.13.1-.2 0-.1-.03-.19-.07-.26a1.11 1.11 0 0 0-.36-.42c-.25-.14-.4-.23-.46-.29a2.63 2.63 0 0 0-.35-.26h-.03Zm.65 3.81a.85.85 0 0 0-.37.05c-.23.08-.45.13-.66.16l-.63.08a5.9 5.9 0 0 1-.72.05.04.04 0 0 1 0-.04c.1-.13.23-.27.39-.4l.4-.38c.13-.12.28-.23.44-.34.07-.05.14-.1.21-.18a.14.14 0 0 1 .18 0l.54.42a4.57 4.57 0 0 1 .64.51c.22.18.36.4.53.67l.04.06c.05.08.14.18.26.3a2.8 2.8 0 0 1 .5.7c.06.12.12.24.22.36.18.2.36.45.55.74a.2.2 0 0 0 .08.08c.2.1.39.08.54-.05l.18-.15a.3.3 0 0 1 .27.03c.04.02.05.05.03.1-.38.78-.9 1.41-1.58 1.89-.7.5-1.58.77-2.6.83a4.8 4.8 0 0 1-4.57-2.7l.01-.03.16-.16a.07.07 0 0 1 .06-.02c.1 0 .17-.03.2-.07l.21-.18c.09-.06.16-.12.22-.18a3.41 3.41 0 0 1 .54-.39c.04-.01.08-.03.12-.08a21.25 21.25 0 0 0 .82-1.17.1.1 0 0 1 .14.07l.18.69a.5.5 0 0 0 .27.33c.14.07.23.07.36-.02.1-.06.17-.09.23-.09L9 9.8a.8.8 0 0 0 .32-.1l.08-.03c.07-.03.22-.03.45 0 .2.02.3-.18.33-.33.02-.08 0-.16-.04-.26a4.5 4.5 0 0 1-.28-.73.1.1 0 0 0-.05-.03Z" fill="#0066A5"/></svg>