<!-- by TradingView --><svg width="18" height="18" viewBox="0 0 18 18" xmlns="http://www.w3.org/2000/svg"><path fill="#F0F3FA" d="M0 0h18v18H0z"/><path fill-rule="evenodd" d="m12.74 7.93-.06.14-.14.36.4.4.17-.42.03-.08-.4-.4Zm-.39-1.85-.2.52.4.41.1-.27.1-.24-.4-.42ZM8.6 5.64l-.51-.1-.1.25-.11.26-.52-.09.07-.17.14-.35-.52-.1-.14.34-.06.18.51.1-.1.25-.1.25-.5-.1-.02.04-.18.47-.52-.1a6.74 6.74 0 0 1-.18.52l.51.09.19-.5.52.1-.04.08-.16.43-.5-.11-.19.52-.5-.1c-.78 2.23-.85 3.15-.75 3.67.36 1.73 1.85 1.7 3.32.56.14.84.4 1.54.76 1.97h-4.6c-.35-.01-.69-.18-.94-.49-.24-.3-.38-.7-.38-1.12v-.02c0-.22.04-.44.1-.65l2.18-6.8V4.9C5.66 3.74 5.9 3 6.61 3h.02l.27.03 6.78 2.27c1.06.3 1.54 1.11 1.22 2.27l-1.45 4.54c-.42 1.22-.82 1.85-1.62 1.89h-.91c.37-.38.86-1.15 1.57-2.76l-.38-.4c.07-.16.14-.32.2-.5l-.38-.4.2-.5-.39-.4.2-.46.01-.04-.4-.41c0 .04-.02.07-.03.1l-.16.4-.11.28-.1.23a39.83 39.83 0 0 1-.2.5c-.7 1.72-1 2.3-1.23 2.6-.54.75-1 .82-1.33-.38.24-.21.48-.44.7-.7-.28.21-.53.37-.76.51-.11-.48-.2-.98-.26-1.48-.02.54 0 1.07.06 1.6-1.25.7-1.58.24-1.42-.82.06-.4.24-1.06.9-2.79l.13-.35.06-.16a11.3 11.3 0 0 0 .3-.75l.1-.27-.52-.09.2-.51.52.1.1-.26.1-.25Zm3.36 2.9.1-.27.09-.25-.4-.4.2-.51.4.4-.07.2-.13.31.4.41-.2.5-.01.01.4.41-.02.04-.2.47.4.4v.02a7.5 7.5 0 0 1-.2.47l-.4-.4.2-.5-.38-.41.15-.4.05-.1-.38-.4ZM7.88 6.05Zm.51-1.27-.1.26.51.1.11-.27.1-.24-.52-.1a9.4 9.4 0 0 0-.1.25Zm-.9 2.29-.51-.1.18-.5.52.1-.2.5Z" fill="url(#a)"/><defs><linearGradient id="a" x1="5.93" y1="3.43" x2="13.8" y2="12.73" gradientUnits="userSpaceOnUse"><stop stop-color="#30C2F0"/><stop offset=".17" stop-color="#9AE1F8"/><stop offset=".53" stop-color="#005BA6"/></linearGradient></defs></svg>