<!-- by TradingView --><svg width="18" height="18" viewBox="0 0 18 18" xmlns="http://www.w3.org/2000/svg"><path fill="#F0F3FA" d="M0 0h18v18H0z"/><path d="m6.09 12.8.86-3.01-1.18-4.12a.9.9 0 0 0-1.12-.63.93.93 0 0 0-.61 1.15l2.04 7.13a.95.95 0 0 1 0-.51Z" fill="#86CBCA"/><path d="m8.13 5.68-1.18 4.1.87 3.03c.05.17.05.35 0 .51L9 9.22l-.87-3.03a.95.95 0 0 1 0-.51Z" fill="#973C8F"/><path d="M7.82 12.8 6.95 9.8 6.1 12.8a.95.95 0 0 0 0 .51v.01c.07.28.27.49.5.6l.06.02h.04l.04.02.04.01h.05l.04.02H7.04l.05-.01h.04l.04-.02.05-.01.03-.01.05-.02h.01c.24-.11.43-.32.5-.6h.01a.95.95 0 0 0 0-.52Z" fill="#633C79"/><path d="m10.18 12.8.87-3.01-1.18-4.11c.04.16.05.34 0 .51L9 9.21l1.18 4.11a.95.95 0 0 1 0-.51Z" fill="#FFD924"/><path d="M9.87 5.68v-.02a.92.92 0 0 0-.51-.58l-.06-.03h-.03l-.05-.02-.04-.01h-.05L9.1 5h-.27l-.04.02-.05.01-.03.01-.05.02a.92.92 0 0 0-.52.6.94.94 0 0 0-.01.52L9 9.26l.87-3.05c.05-.18.04-.37 0-.53Z" fill="#943B33"/><path d="M13.35 5.04a.9.9 0 0 0-1.12.63l-1.18 4.12.86 3.02c.05.17.05.35 0 .51l2.05-7.13c.14-.5-.13-1-.6-1.15Z" fill="#EC595E"/><path d="m11.92 12.8-.87-3.01-.87 3.02a.95.95 0 0 0 0 .51v.01c.08.28.27.49.5.6h.02a.8.8 0 0 0 .05.02h.03l.05.02.04.01h.04l.05.02h.18l.04-.01h.05l.04-.02.04-.01.04-.01.05-.02a.95.95 0 0 0 .5-1.11Z" fill="#E74E1C"/></svg>