<!-- by TradingView --><svg width="18" height="18" viewBox="0 0 18 18" fill="none" xmlns="http://www.w3.org/2000/svg">
<rect width="18" height="18" fill="#F0F3FA"/>
<path fill-rule="evenodd" clip-rule="evenodd" d="M10.8143 8.50885C10.299 8.42218 9.76906 8.46913 9.27909 8.64607L9.05769 8.7508C8.09589 8.08995 7.85271 6.77909 8.51327 5.82213C8.90525 5.25517 9.55493 4.91211 10.2482 4.91211C10.2082 4.65211 10.2554 4.38488 10.3897 4.15738C10.4187 4.10682 10.455 4.05626 10.4913 4.00932C8.82178 3.87931 7.36274 5.12517 7.23571 6.78632C7.15949 7.75411 7.55873 8.70024 8.30277 9.32498L8.44069 9.41887C8.43706 9.45137 8.43706 9.47304 8.43706 9.47304C8.37173 10.6322 7.37363 11.5242 6.20494 11.4592C5.49357 11.4195 4.85116 11.0295 4.49547 10.4156C4.28859 10.5817 4.03453 10.6719 3.76958 10.6719C3.71151 10.6719 3.64981 10.6683 3.59174 10.6575C4.314 12.1598 6.1251 12.7953 7.63495 12.0767C8.5169 11.6578 9.13754 10.8417 9.31175 9.88832L9.33353 9.61748L9.35531 9.60665C10.397 9.08303 11.6709 9.49831 12.1972 10.5383C12.5166 11.1703 12.4984 11.9178 12.1464 12.5317C12.3932 12.6256 12.6 12.8025 12.7307 13.03C12.7597 13.0806 12.7851 13.1348 12.8069 13.1889C13.7542 11.8167 13.4021 9.93888 12.0193 8.99636C11.6636 8.7508 11.2499 8.58468 10.8143 8.50885ZM11.4857 5.55116C11.9107 5.55116 12.2551 5.2084 12.2551 4.78559C12.2551 4.36278 11.9107 4.02002 11.4857 4.02002C11.0608 4.02002 10.7163 4.36278 10.7163 4.78559C10.7163 5.2084 11.0608 5.55116 11.4857 5.55116ZM11.9465 5.74273C12.5817 6.5733 12.5091 7.73971 11.7759 8.48723L11.7396 8.52334C12.0191 8.66056 12.2877 8.82307 12.5345 9.01085C12.8938 9.3503 13.2168 9.72586 13.4999 10.1303C13.4999 10.1303 13.3293 9.1553 13.068 8.15139C13.5035 7.08248 13.2894 5.8619 12.5163 5.00605C12.4401 5.32022 12.2332 5.58745 11.9465 5.74273ZM4.53889 9.41528C4.53889 9.83809 4.1944 10.1808 3.76944 10.1808C3.34449 10.1808 3 9.83809 3 9.41528C3 8.99246 3.34449 8.6497 3.76944 8.6497C4.1944 8.6497 4.53889 8.99246 4.53889 9.41528ZM4.37562 8.53778C4.78211 7.57721 5.83465 7.05359 6.8509 7.31359L6.90171 7.32804C6.87994 7.01748 6.88719 6.70691 6.93075 6.39996C7.04689 5.91968 7.21021 5.45383 7.42435 5.00605C7.42435 5.00605 6.65854 5.64162 5.91813 6.36746C4.77123 6.52636 3.81668 7.32081 3.45374 8.415C3.75861 8.32472 4.09615 8.36806 4.37562 8.53778ZM12.4112 13.6548C12.4112 14.0776 12.0667 14.4204 11.6418 14.4204C11.2168 14.4204 10.8723 14.0776 10.8723 13.6548C10.8723 13.232 11.2168 12.8892 11.6418 12.8892C12.0667 12.8892 12.4112 13.232 12.4112 13.6548ZM8.27364 12.055C8.55673 13.0589 9.53669 13.7053 10.5783 13.5753C10.5711 13.7848 10.6255 13.9978 10.7271 14.1784C10.7816 14.2723 10.8505 14.359 10.9304 14.4348C9.79438 14.6731 8.62569 14.247 7.91432 13.337C6.91259 13.0589 5.9762 12.7195 5.9762 12.7195C6.4698 12.6761 6.95978 12.5859 7.43524 12.445C7.72559 12.3259 8.00143 12.1778 8.25912 12.0045C8.26498 12.019 8.26848 12.0336 8.27151 12.0463C8.27224 12.0493 8.27294 12.0522 8.27364 12.055Z" fill="#0E73BA"/>
</svg>
