<!-- by TradingView --><svg width="18" height="18" viewBox="0 0 18 18" xmlns="http://www.w3.org/2000/svg"><path fill="#F0F3FA" d="M0 0h18v18H0z"/><path d="M9.94 13.13v-1.11c-.74-.37-2.34-.96-2.88-.34 0 2.08 1.2 2.32 2.01 2.32.65 0 .85-.58.87-.87Z" fill="url(#avxq5v5s3)"/><path d="M8.69 8.38a.62.62 0 1 1 1.25 0v3.43H8.69V8.37Z" fill="url(#bvxq5v5s3)"/><path d="M8.38 4.74c0 .66 1.46 1.63 2.19 2.03l1.55.04-1.6-2.4c-.3-.13-1-.41-1.37-.41-.45 0-.78.32-.78.74Z" fill="url(#cvxq5v5s3)"/><path d="M12.61 11.2c-.61 0-1.24-.23-1.48-.34l-1.05-1.93 1.24-.73c.88.47 2.62 1.35 2.58 1.7-.04.43-.52 1.3-1.29 1.3Z" fill="#701D96"/><path d="M11.62 7.69c0 .62-.4 1.14-.6 1.32.27.26.8.68.8 1.32 0 .54-.45 2.1-2.61 2.1-2.17 0-2.71-1.07-2.71-1.51 0-.44.44-.83.89-.83.68 0 1.32.79 1.72.79.4 0 .83-.2.83-.5 0-.44-.83-.59-1.18-.59-.34 0-.59-.39-.59-.73 0-.34.35-.64.6-.64.48 0 .93-.3.93-.54 0-.24-.25-.44-.6-.44-.34 0-.58.1-.83.44-.25.35-.44.4-.74.4s-.93-.1-.93-.74c0-.98 1.42-1.67 2.4-1.67 2.12 0 2.62 1.03 2.62 1.82Z" fill="url(#dvxq5v5s3)"/><path d="M7 10.76C7 13.08 8.33 13.9 9 14c-4.38 0-5-4.22-5-5.15 0-1.27.81-2.35 1.81-2.35C7.43 6.5 7 7.87 7 10.76Z" fill="url(#evxq5v5s3)"/><path d="M7.13 11.9A4.88 4.88 0 0 1 7 10.77v-.58c-.28.14-.5.43-.5.74 0 .23.15.65.63.99ZM6.8 6.92c-.13.2-.21.4-.21.63 0 .37.21.56.45.65 0-.57-.06-1-.24-1.28Z" fill="url(#fvxq5v5s3)"/><path d="M14 9.08c0-3.8-3.13-4.97-4.69-5.08.75.15 1.58 1.26 1.9 3.58.33 2.33 1.17 3.3 1.82 3.3.65 0 .97-.83.97-1.8Z" fill="url(#gvxq5v5s3)"/><path d="M11.39 8.52c.13-.23.23-.52.23-.83 0-.44-.15-.94-.64-1.3.1.35.17.75.24 1.2.04.34.1.65.17.93Z" fill="url(#hvxq5v5s3)"/><defs><linearGradient id="avxq5v5s3" x1="8.5" y1="11.41" x2="8.5" y2="14" gradientUnits="userSpaceOnUse"><stop offset=".44" stop-color="#440E6E"/><stop offset=".66" stop-color="#5B1889"/></linearGradient><linearGradient id="bvxq5v5s3" x1="9.31" y1="7.75" x2="9.31" y2="11.81" gradientUnits="userSpaceOnUse"><stop offset=".04" stop-color="#641B87"/><stop offset=".13" stop-color="#9C2AB2"/><stop offset=".53" stop-color="#5B157E"/><stop offset=".71" stop-color="#9F2CB2"/></linearGradient><linearGradient id="cvxq5v5s3" x1="10.25" y1="4" x2="10.25" y2="6.81" gradientUnits="userSpaceOnUse"><stop stop-color="#370E74"/><stop offset="1" stop-color="#531683"/></linearGradient><linearGradient id="dvxq5v5s3" x1="7.98" y1="5.88" x2="10.07" y2="12.44" gradientUnits="userSpaceOnUse"><stop stop-color="#0DE6F5"/><stop offset="1" stop-color="#3896D9"/></linearGradient><linearGradient id="evxq5v5s3" x1="4.05" y1="7.97" x2="8.71" y2="10.52" gradientUnits="userSpaceOnUse"><stop stop-color="#FEBB02"/><stop offset="1" stop-color="#C034C5"/></linearGradient><linearGradient id="fvxq5v5s3" x1="6.82" y1="7" x2="6.96" y2="11.73" gradientUnits="userSpaceOnUse"><stop stop-color="#F8BF99"/><stop offset="1" stop-color="#DC63B8"/></linearGradient><linearGradient id="gvxq5v5s3" x1="10.06" y1="4" x2="13.38" y2="10.67" gradientUnits="userSpaceOnUse"><stop stop-color="#FEBB02"/><stop offset="1" stop-color="#C034C5"/></linearGradient><linearGradient id="hvxq5v5s3" x1="11.19" y1="6.32" x2="11.19" y2="8.45" gradientUnits="userSpaceOnUse"><stop stop-color="#FAB7A2"/><stop offset="1" stop-color="#F586A3"/></linearGradient></defs></svg>