<!-- by TradingView --><svg width="18" height="18" viewBox="0 0 18 18" xmlns="http://www.w3.org/2000/svg"><path fill="#F0F3FA" d="M0 0h18v18H0z"/><path fill-rule="evenodd" d="M14 9a1 1 0 1 0 0-2 1 1 0 0 0 0 2Zm.4-.4a.4.4 0 1 0 0-.8.4.4 0 0 0 0 .8Z" fill="#ED7108"/><path d="M8.22 10.33c2.65 0 4.57-.89 5.2-1.33-3.47 1.33-8.83 1.33-9.78-.67C2.88 6.73 6.9 5.44 9 5c-4.1.5-6.15 2-6 3.33.17 1.34 1.9 2 5.22 2Z" fill="#005BAC"/><path d="M6.48 7H5.1l.6 2.93 1.25.24h1.1l.32-.84.32.84h.79l1.42-.34.8-2.83h-1.5l-.6 2.67L9 7H7.8l-.6 2.67L6.48 7ZM7.8 10.73H5.85L6.18 12h1.3l.32-1.27ZM9.35 12l-.65-1.27a9 9 0 0 0 2.1-.32L10.32 12h-.97Z" fill="#005BAC"/></svg>