<!-- by TradingView --><svg width="18" height="18" viewBox="0 0 18 18" xmlns="http://www.w3.org/2000/svg"><path fill="#F0F3FA" d="M0 0h18v18H0z"/><path d="M8.95 5C5.65 5.02 3 6.8 3 9c0 1.77 1.72 3.27 4.1 3.8l3.4-3.37c.09-.08.23-.27.13-.37-.1-.1-.3.04-.37.12L9 10.41c-.75.74-2 .98-2.87.12-1-.98-.63-2.09.12-2.82l2.18-2.2.5-.51Zm.44 8 2.36-2.34c.75-.74 1.13-1.85.13-2.83-1-.99-2.25-.5-2.87.12L7.76 9.18c-.08.08-.28.22-.37.12-.1-.1.04-.28.12-.36l3.65-3.67C13.4 5.84 15 7.3 15 9c0 2.12-2.48 3.86-5.6 4Z" fill="#0160AE"/><path d="M6.76 8.18 10.06 5h.35l-3.4 3.43c-.1.1-.23.33-.27.6-.1.6.44.96 1.01.84.63-.14 1.05-.74 1.48-1.17.46-.45 1.47-.88 2.01-.34.69.67.21 1.43-.35 1.98L8.29 13h-.35l2.7-2.9c.42-.42.88-.98.35-1.5-.39-.38-1.2.04-1.51.35-.49.48-.95 1.1-1.65 1.26-.8.18-1.57-.4-1.44-1.24.05-.33.21-.64.37-.79Z" fill="#B0B1B5"/></svg>