<!-- by TradingView --><svg width="18" height="18" viewBox="0 0 18 18" xmlns="http://www.w3.org/2000/svg"><path fill="#F0F3FA" d="M0 0h18v18H0z"/><path d="M7.5 13H5l-2-3h2.5l2 3Z" fill="#952A44"/><path d="M3 8h2.5v2H3V8Z" fill="#BE7F88"/><path fill-rule="evenodd" d="M3 8h2.5l2-3H5L3 8Zm.52-.3h1.86l1.6-2.4H5.12l-1.6 2.4Z" fill="#952A44"/><path d="M10.5 13H8l-2-3h2.5l2 3Z" fill="#952A44"/><path d="M6 8h2.5v2H6V8Z" fill="#BE7F88"/><path fill-rule="evenodd" d="M6 8h2.5l2-3H8L6 8Zm.52-.3h1.86l1.6-2.4H8.12l-1.6 2.4Z" fill="#952A44"/><path d="M14.42 10h-3.84l1.92 3 1.92-3Z" fill="#952A44"/><path d="m10 9 .58 1h3.84L15 9l-.58-1h-3.84L10 9Z" fill="#BE7F88"/><path fill-rule="evenodd" d="M14.42 8 12.5 5l-1.92 3h3.84Zm-3.34-.3h2.84L12.5 5.48 11.08 7.7Z" fill="#952A44"/></svg>