<!-- by TradingView --><svg width="18" height="18" viewBox="0 0 18 18" xmlns="http://www.w3.org/2000/svg"><path fill="#F0F3FA" d="M0 0h18v18H0z"/><path d="M6.16 13 3 6h4.97L9 8.25 10.03 6H15l-3.16 7h-.92l-1.31-1.72L11.1 8h1.04l-1.43 3.1.55.81L13.51 7H10.6l-1.36 3h-.47L7.41 7H4.49l2.25 4.91.55-.81L5.9 8h1.03l1.47 3.28L7.08 13h-.92Zm1.86 0H10l-.54-1h-.93l-.5 1Z" fill="url(#au4dyfyrw)"/><defs><linearGradient id="au4dyfyrw" x1="14.25" y1="6.4" x2="7.5" y2="11.02" gradientUnits="userSpaceOnUse"><stop stop-color="#BD4C28"/><stop offset="1" stop-color="#EE9B3B"/></linearGradient></defs></svg>