<!-- by TradingView --><svg width="18" height="18" viewBox="0 0 18 18" xmlns="http://www.w3.org/2000/svg"><path fill="#F0F3FA" d="M0 0h18v18H0z"/><path d="M5.25 6H3l1.88 7h1.5l.37-1.33L5.25 6Z" fill="url(#an4pzdfev)"/><path d="M9.75 6.5c0-.27.25-.44.38-.5h-.76c-.93 0-1.68.83-1.68 1.5 0 .53.25 1 .37 1.17l2.06 2.5c.2.16.94 1 .94 1.33 0 .27-.25.44-.37.5h.56c.75 0 1.69-.83 1.69-1.67 0-.83-.94-1.83-1.31-2.33-.38-.5-1.88-2.17-1.88-2.5Z" fill="url(#bn4pzdfev)"/><path d="M8.25 6H6l1.88 7h1.5l.37-1.33-.15-.58-1.84-2.23h-.01c-.16-.22-.44-.75-.44-1.36 0-.44.24-.89.6-1.23.1-.1.21-.19.34-.27Z" fill="url(#cn4pzdfev)"/><path d="M12.28 13H14V8h1V6h-3.75v1.98l.14.17c.23.27.44.52.55.67l.2.25c.18.23.4.51.6.8.29.43.57.95.57 1.46 0 .53-.29 1.02-.66 1.38-.11.1-.24.2-.37.29Z" fill="url(#dn4pzdfev)"/><defs><linearGradient id="an4pzdfev" x1="4.88" y1="6" x2="5.47" y2="13.01" gradientUnits="userSpaceOnUse"><stop stop-color="#242577"/><stop offset="1" stop-color="#0083CD"/></linearGradient><linearGradient id="bn4pzdfev" x1="10.5" y1="6" x2="10.5" y2="13" gradientUnits="userSpaceOnUse"><stop stop-color="#DA251C"/><stop offset=".46" stop-color="#D82520"/><stop offset="1" stop-color="#F9DB05"/></linearGradient><linearGradient id="cn4pzdfev" x1="7.88" y1="6" x2="8.47" y2="13.01" gradientUnits="userSpaceOnUse"><stop stop-color="#242577"/><stop offset="1" stop-color="#0083CD"/></linearGradient><linearGradient id="dn4pzdfev" x1="13.13" y1="6" x2="13.13" y2="13" gradientUnits="userSpaceOnUse"><stop stop-color="#212879"/><stop offset="1" stop-color="#097FC7"/></linearGradient></defs></svg>