<!-- by TradingView --><svg width="18" height="18" viewBox="0 0 18 18" xmlns="http://www.w3.org/2000/svg"><path fill="#F0F3FA" d="M0 0h18v18H0z"/><path d="M4.81 9.36C2.55 8.27 2.87 6 3.32 5c-.44 1.41 1.5 2.1 4.16 3.68 2.14 1.27 1.89 3.74 1.5 4.82-.25-1.31-1.34-2.79-4.17-4.14Z" fill="url(#agl2fugji)"/><path d="M9.24 9.03c-.92-1.78.35-3.05 1.1-3.47-.94.68-.04 2.04.9 4.33.75 1.83-.56 3.26-1.31 3.75.45-.95.46-2.4-.69-4.61Z" fill="url(#bgl2fugji)"/><path d="M12.31 10.32c.13-1.44 1.39-1.7 2-1.66-.83.04-.8 1.22-1.12 2.98-.25 1.4-1.6 1.75-2.24 1.75.64-.4 1.2-1.27 1.36-3.07Z" fill="url(#cgl2fugji)"/><defs><linearGradient id="agl2fugji" x1="3" y1="6.47" x2="9.01" y2="6.47" gradientUnits="userSpaceOnUse"><stop stop-color="#3A8339"/><stop offset=".55" stop-color="#A4CA39"/><stop offset="1" stop-color="#2F8039"/></linearGradient><linearGradient id="bgl2fugji" x1="9.45" y1="6.34" x2="13.27" y2="9.18" gradientUnits="userSpaceOnUse"><stop stop-color="#3A8339"/><stop offset=".55" stop-color="#A4CA39"/><stop offset="1" stop-color="#2F8039"/></linearGradient><linearGradient id="cgl2fugji" x1="13.48" y1="8.77" x2="14.68" y2="12.02" gradientUnits="userSpaceOnUse"><stop stop-color="#3A8339"/><stop offset=".55" stop-color="#A4CA39"/><stop offset="1" stop-color="#2F8039"/></linearGradient></defs></svg>