<!-- by TradingView --><svg width="18" height="18" viewBox="0 0 18 18" xmlns="http://www.w3.org/2000/svg"><path fill="#F0F3FA" d="M0 0h18v18H0z"/><path d="M8.63 7.54c1.2-.73 4.55-2.06 6.34-2.71l-1.7 5.46c-1.04 3.15-4.33 3.34-5.84 3.04v-.52a7.6 7.6 0 0 1 4.54-5.68 7.22 7.22 0 0 0-4.92 4.18l-.14-2.08c.14-.32.77-1.11 1.72-1.7Z" fill="#5A9D33"/><path d="M12.06 12.34c-.7 1.6-1.87 2.66-3.2 2.66C6.73 15 5.02 13.19 5 9c-.02-4.19 1.73-6 3.86-6 1.34 0 2.53 1.08 3.22 2.7l-1.74.69c-.31-1.46-.89-2.43-1.54-2.43-1 0-1.81 1.51-1.8 5.02.01 3.5.8 5.02 1.8 5.02.3 0 .57-.2.82-.55.63 0 1.76-.22 2.44-1.11Z" fill="url(#avkajmzng)"/><defs><linearGradient id="avkajmzng" x1="8.54" y1="3" x2="8.54" y2="15" gradientUnits="userSpaceOnUse"><stop stop-color="#033422"/><stop offset="1" stop-color="#009936"/></linearGradient></defs></svg>