<!-- by TradingView --><svg width="18" height="18" viewBox="0 0 18 18" xmlns="http://www.w3.org/2000/svg"><path fill="#F0F3FA" d="M0 0h18v18H0z"/><path fill-rule="evenodd" d="M9.8 5.82c.47-.46.95-.65 1.41-.65.54 0 .95.21 1.08.32-.22 0-.77.17-1.17.84-.38.63-.87 1.65-1.25 2.5l.13.44c.08.25.16.5.25.71l.61-1.19.57-1.11C12.1 6.4 13.1 6 13.78 6c.55 0 1.04.27 1.22.4-1.27.13-2.31 2.2-3.13 3.83-.25.5-.48.96-.69 1.3l-.01.03a3.42 3.42 0 0 0 1.7 1.22c-.95.23-1.73.01-2.35-.4-.5.46-.98.61-1.22.62h-.6c-.24 0-.7-.15-1.2-.61-.62.41-1.39.62-2.33.4a3.4 3.4 0 0 0 1.68-1.2 4.87 4.87 0 0 1-.03-.05c-.2-.35-.44-.8-.7-1.31C5.33 8.6 4.28 6.53 3 6.4c.18-.13.67-.4 1.22-.4.68 0 1.68.4 2.35 1.68l.57 1.11.63 1.24a7.87 7.87 0 0 0 .4-1.2c-.38-.85-.87-1.87-1.25-2.5-.4-.67-.95-.84-1.17-.84.13-.1.54-.32 1.08-.32.46 0 .94.19 1.41.64.12-.3.36-.65.78-.81.42.16.66.52.77.82Zm-1.3 5.6c.2-.26.38-.53.52-.78.14.24.3.5.49.75-.19.33-.36.63-.51.85l-.5-.82Z" fill="#F00000"/></svg>