<!-- by TradingView --><svg width="18" height="18" fill="none" xmlns="http://www.w3.org/2000/svg"><path fill="#F0F3FA" d="M0 0h18v18H0z"/><path fill-rule="evenodd" clip-rule="evenodd" d="M8.355 8.814c-.044-.21.213-1.06-.133-1.044-.37.018-1.2.785-1.35.966-.213.255-1.112 1.327-1.183 1.542.966-.29 2.109-2.008.83-.107-.22.23-1.414 2.683-1.516 3.462-.026.2.135.317.302.34.481.054.494-.2.674-.586.39-.83 1.424-2.463 1.81-3.232l.87-.832c.33.253.345.76.212 1.078.103-.047.38-.41.43-.525.318-.68 1.433-1.191 1.699-1.857-.135-.232-.308-.478-.494-.633a.296.296 0 0 0-.184-.06c-.232-.002-.517.196-.632.292-.404.331-.925.833-1.335 1.196Z" fill="#DF3425"/><path fill-rule="evenodd" clip-rule="evenodd" d="M12.296 7.802c-.246.114-.97.853-1.336 1.122-.233.065-2.276 3.143-2.644 1.585-.257.212-.533.762-.683 1.057-.105.211-.598 1.625-.598 1.853.014.268.007.195-.035.496.407.094.73.106 1.146.057.355-.042.391-.32.718-.813.38-.577 1.013-1.61 1.449-2.122.304-.352.815-.682.928-1.178.021-.098.457-.529.507-.635l.457-.625c-.132-.19-.836.175.091-.797ZM9.912 4.638l.157-.032c0 .008-.321.474-.329.49-.299.277-.15.739-.052.96.043.098.165.157.312.162a.724.724 0 0 0 .54-.233c.157-.087.605-.28.717-.478.202-.356.231-.198.344-.458-.06-.087-.195-.237-.217-.317.396-.158-.112.032.06-.237-.479.024-.262-.592-.71-.482-.194.064-.62.467-.822.625ZM14.377 5.299c-.152.152-.678.683-.845.828.39-.178-.181.61-.471.82l-.061.38c.162-.122.208-.076.34-.297.207-.357 1.584-1.633 1.66-1.921-.556.376-.37-.055-.623.19Z" fill="#DF3425"/></svg>