<!-- by TradingView --><svg width="18" height="18" viewBox="0 0 18 18" xmlns="http://www.w3.org/2000/svg"><path fill="#F0F3FA" d="M0 0h18v18H0z"/><path d="M4.67 6.38c.37 0 .67-.3.67-.69 0-.38-.3-.69-.67-.69a.68.68 0 0 0-.67.7c0 .37.3.68.67.68Zm2.68 4.82 1.63-2.46 1.67 2.47c.27.39.84.39 1.1 0L13 9.35v3.09c0 .3.12.56.43.56.32 0 .57-.25.57-.56v-4.4c0-.65-.85-.9-1.21-.37l-1.57 2.49-1.7-2.63a.67.67 0 0 0-1.1 0l-1.66 2.63-1.55-2.5C4.85 7.14 4 7.4 4 8.04v4.41c0 .3.25.56.57.56.31 0 .43-.25.43-.56V9.35l1.24 1.86c.27.39.85.39 1.1 0ZM14 5.7c0 .37-.3.68-.67.68a.68.68 0 0 1-.67-.69c0-.38.3-.69.67-.69.37 0 .67.31.67.7Zm-5.03.68c.37 0 .67-.3.67-.69 0-.38-.3-.69-.67-.69a.68.68 0 0 0-.67.7c0 .37.3.68.67.68Z" fill="#E70"/></svg>