<!-- by TradingView --><svg width="18" height="18" viewBox="0 0 18 18" xmlns="http://www.w3.org/2000/svg"><path fill="#F0F3FA" d="M0 0h18v18H0z"/><ellipse cx="3.82" cy="7.13" rx=".82" ry=".8" fill="#A22744"/><path d="M5.02 7h2.46c-.12-.57-.62-1-1.23-1-.6 0-1.11.43-1.23 1Zm2.48.24c0 .69-.56 1.24-1.25 1.24A1.25 1.25 0 0 1 5.02 7H5v3.5a2.5 2.5 0 0 0 5 0V7H7.48l.02.24Z" fill="#A22744"/><ellipse cx="12.68" cy="7.27" rx="2.32" ry="2.27" fill="#F5B511"/><ellipse cx="12.68" cy="7.27" rx="1.75" ry="1.71" fill="#F26F1D"/><ellipse cx="12.68" cy="7.27" rx="1.01" ry=".99" fill="#F14924"/><ellipse cx="12.68" cy="7.27" rx=".42" ry=".41" fill="#E72720"/></svg>