<!-- by TradingView --><svg width="18" height="18" viewBox="0 0 18 18" xmlns="http://www.w3.org/2000/svg"><path fill="#F0F3FA" d="M0 0h18v18H0z"/><path d="M9.88 6c.07 0 .12-.05.12-.11V5.1A.12.12 0 0 0 9.88 5H8.12a.12.12 0 0 0-.12.11v.78c0 .06.05.11.12.11h1.76Zm-4 6c.07 0 .12.1.12.17v.7c0 .07-.05.13-.12.13H4.12c-.07 0-.12-.06-.12-.13V5.13c0-.07.05-.13.12-.13h1.76c.07 0 .12.06.12.13v.74c0 .07-.05.13-.12.13h-.75c-.06 0-.13.05-.13.12v5.8c0 .06.07.08.13.08h.75Zm6.24 0c-.07 0-.12.09-.12.16v.71c0 .07.05.13.12.13h1.76c.07 0 .12-.06.12-.13V5.13c0-.07-.05-.13-.12-.13h-1.76c-.07 0-.12.06-.12.13v.72c0 .07.05.15.12.15h.75c.06 0 .13.03.13.1v5.8c0 .07-.07.1-.13.1h-.75ZM6.1 7c-.07 0-.12.06-.1.13l1.23 3.74c.02.07.1.13.18.13H8a.2.2 0 0 0 .18-.13l.8-2.5c.03-.07.06-.07.08 0l.8 2.5c.02.07.1.13.18.13h.57a.2.2 0 0 0 .18-.13L12 7.13c.02-.07-.03-.13-.1-.13h-.6a.2.2 0 0 0-.17.13l-.76 2.5c-.02.08-.05.08-.08 0l-.8-2.5A.2.2 0 0 0 9.31 7h-.56a.2.2 0 0 0-.18.13l-.8 2.5c-.02.07-.05.07-.07 0l-.76-2.5A.2.2 0 0 0 6.76 7H6.1Zm3.9 5.89c0 .06-.05.11-.12.11H8.12a.12.12 0 0 1-.12-.11v-.78c0-.06.05-.11.12-.11h1.76c.07 0 .12.05.12.11v.78Z"/></svg>