<!-- by TradingView --><svg width="18" height="18" viewBox="0 0 18 18" xmlns="http://www.w3.org/2000/svg"><path fill="#FAA634" d="M0 0h18v18H0z"/><path d="M4.53 7C3.41 7 2.5 7.9 2.5 9H2c0-1.38 1.13-2.5 2.53-2.5S7.06 7.62 7.06 9s-1.13 2.5-2.53 2.5V11c1.12 0 2.03-.9 2.03-2s-.9-2-2.03-2Z" fill="url(#a5yhma1sd)"/><path fill-rule="evenodd" d="M9.04 10.9c1.07 0 1.93-.85 1.93-1.9 0-1.05-.86-1.9-1.93-1.9-1.07 0-1.93.85-1.93 1.9 0 1.05.86 1.9 1.93 1.9Zm0 .6c1.4 0 2.53-1.12 2.53-2.5s-1.13-2.5-2.53-2.5A2.52 2.52 0 0 0 6.51 9c0 1.38 1.13 2.5 2.53 2.5Z" fill="#7F291A"/><path d="M13.47 7.1c-1.07 0-1.93.85-1.93 1.9 0 1.05.86 1.9 1.93 1.9a1.92 1.92 0 0 0 1.78-2.63l.56-.23a2.52 2.52 0 0 1-2.34 3.46A2.52 2.52 0 0 1 10.94 9a2.52 2.52 0 0 1 2.87-2.48l-.08.6a1.97 1.97 0 0 0-.26-.03Z" fill="#1B4542"/><path d="M4.3 9.1v.55c0 .1 0 .18.02.2.01.03.04.05.08.07.03.02.08.03.18.03V10h-1.1v-.05c.1 0 .19-.01.22-.03a.16.16 0 0 0 .08-.07l.02-.2v-1.3c0-.1 0-.17-.02-.2a.15.15 0 0 0-.08-.07.66.66 0 0 0-.22-.03V8h.95c.3 0 .53.05.66.15.14.1.2.23.2.39 0 .13-.04.24-.12.33-.1.1-.21.16-.36.19-.1.02-.27.03-.51.03Zm0-.98v.86h.08c.13 0 .21-.03.28-.1.07-.08.1-.19.1-.34 0-.14-.03-.25-.1-.32s-.16-.1-.3-.1H4.3ZM8.88 8.12v.8h.04c.14 0 .24-.03.3-.11a.7.7 0 0 0 .11-.35h.07V9.5h-.07a.73.73 0 0 0-.08-.28.32.32 0 0 0-.14-.14.57.57 0 0 0-.23-.04v.56l.01.2c.01.03.03.05.06.07l.13.02h.13c.2 0 .36-.04.49-.13a.72.72 0 0 0 .26-.4h.06l-.1.64H8.05v-.05h.07c.07 0 .12-.01.15-.04a.14.14 0 0 0 .07-.07.56.56 0 0 0 .02-.18V8.34l-.01-.16a.14.14 0 0 0-.06-.08.3.3 0 0 0-.17-.05h-.07V8h1.78v.57h-.06a.6.6 0 0 0-.13-.29.48.48 0 0 0-.23-.14 1.38 1.38 0 0 0-.34-.02h-.2ZM14.55 9.3l-.09.7h-1.99v-.05h.08c.06 0 .11-.01.15-.04a.14.14 0 0 0 .07-.07.55.55 0 0 0 .02-.18V8.34c0-.1 0-.16-.02-.19a.15.15 0 0 0-.08-.07.32.32 0 0 0-.14-.03h-.08V8h1.17v.05h-.07a.34.34 0 0 0-.16.04c-.1.04-.09.17-.09.25v1.28c0 .09 0 .21.1.25l.2.02h.2a.7.7 0 0 0 .29-.06c.08-.04.15-.1.2-.18.06-.08.12-.2.17-.35h.07Z" fill="#fff"/><defs><linearGradient id="a5yhma1sd" x1="1.5" y1="9.63" x2="6.8" y2="7.71" gradientUnits="userSpaceOnUse"><stop offset=".12" stop-color="#84923A"/><stop offset=".36" stop-color="#061939"/><stop offset=".54" stop-color="#768923"/><stop offset=".83" stop-color="#2E2F27"/><stop offset="1" stop-color="#3A4F1C"/></linearGradient></defs></svg>