<!-- by TradingView --><svg width="18" height="18" viewBox="0 0 18 18" xmlns="http://www.w3.org/2000/svg"><path fill="#F0F3FA" d="M0 0h18v18H0z"/><path d="M10.01 5c.52.01 1.02.08 1.52.21 1.83.48 3.53 1.92 3.47 3.88-.02.72-.3 1.41-.75 1.98a5.3 5.3 0 0 1-3.34 1.82c-1.42.22-2.92 0-4.15-.74-1.25-.75-2.14-2.01-2-3.46.18-1.8 1.79-3.06 3.5-3.49A6.8 6.8 0 0 1 9.7 5h.3Zm3.04 4.8c0-.33-.08-.67-.24-.99-.17-.31-.4-.6-.7-.84-.31-.24-.67-.43-1.06-.56a4 4 0 0 0-3.56.55 2.36 2.36 0 0 0-.95 1.84c0 .34.08.67.24.99.17.31.4.6.7.84.3.24.67.43 1.06.56a4 4 0 0 0 1.25.2c.86 0 1.7-.27 2.3-.75.62-.49.96-1.15.96-1.83Z" fill="#003686"/><path d="M8.25 13h-.28a6.58 6.58 0 0 1-1.84-.31C4.5 12.16 3.1 10.89 3 9.16V8.8c.1-.95.58-1.8 1.33-2.41A5.32 5.32 0 0 1 6.1 5.4a6.56 6.56 0 0 1 2.05-.31l-.4.1a4.79 4.79 0 0 0-2.63 1.88 3.38 3.38 0 0 0-.57 2.3c.2 1.77 1.73 3.07 3.45 3.5a11.2 11.2 0 0 0 .5.1l-.25.02Z" fill="#B5B5B6"/><path d="M7 10.82h.01c.88.19 1.73.12 2.54-.21 1.17-.48 2.05-1.6 1.7-2.87v-.01h.02c.22.09.44.2.64.35.9.64 1.28 1.74.71 2.72-.23.4-.57.71-.99.95-.51.3-1.1.45-1.77.47a3.64 3.64 0 0 1-1.78-.4 2.65 2.65 0 0 1-1.08-1Z" fill="#B5B5B6"/></svg>