<!-- by TradingView --><svg width="18" height="18" viewBox="0 0 18 18" xmlns="http://www.w3.org/2000/svg"><path fill="#F0F3FA" d="M0 0h18v18H0z"/><path d="M9.03 4.84a1.01 1.01 0 0 1 .14-.78h.03c.26.17.41.38.48.63a1.01 1.01 0 0 1-.14.78H9.5a1.04 1.04 0 0 1-.47-.63ZM7.51 4a.94.94 0 0 1 .55.15l-.01.01a.87.87 0 0 1-.5.2A.94.94 0 0 1 7 4.2v-.02A.88.88 0 0 1 7.52 4ZM10.83 4.99c.1-.25.27-.44.52-.57h.03l.02.02c.1.29.1.56 0 .8-.09.25-.26.44-.52.58h-.02l-.02-.02c-.1-.3-.1-.56 0-.81ZM7.53 5.9A1.34 1.34 0 0 1 7 5.1v-.04l.03-.01a1 1 0 0 1 .85.1c.25.17.42.44.53.8V6L8.38 6a1 1 0 0 1-.85-.11ZM5.47 6.14a1.38 1.38 0 0 1 .22-.67l.01.02c.1.23.14.47.12.72a1.38 1.38 0 0 1-.21.67l-.02-.01c-.1-.24-.13-.48-.12-.73ZM12.54 6.3a1.32 1.32 0 0 1 .45-.83l.03.02c.17.3.24.6.2.92a1.32 1.32 0 0 1-.44.83l-.03-.03c-.18-.3-.25-.6-.21-.91ZM7.39 7.05a.97.97 0 0 1-.1-.84c0-.02.01-.03.02-.03h.04c.37.1.63.29.8.53.15.25.19.53.1.85l-.03.03h-.04c-.37-.11-.63-.3-.8-.54ZM10.3 6.58a1.1 1.1 0 0 1 .82.07v.03c-.16.25-.35.42-.6.5a1.1 1.1 0 0 1-.81-.06v-.03c.15-.26.35-.43.6-.51ZM4.07 7.84A1.22 1.22 0 0 1 4.08 7h.03c.25.13.43.32.52.57a1.22 1.22 0 0 1 0 .84h-.04a1.04 1.04 0 0 1-.52-.57ZM6.15 8.03a1.2 1.2 0 0 1-.33-.75l.01-.04h.02a.9.9 0 0 1 .7.26c.19.18.3.43.33.75v.04h-.03a.9.9 0 0 1-.7-.26ZM10.34 7.66c.18-.25.43-.39.74-.42h.03v.04c0 .38-.09.7-.27.95-.18.24-.43.38-.74.42l-.04-.01V8.6c0-.38.1-.7.28-.94ZM12.88 8.6c.02-.19.08-.36.18-.5.23-.33.76-.47 1.2-.51.02 0 .03 0 .03.02 0 .67-.56 1.03-1.36 1.04-.04 0-.05-.02-.05-.04ZM9.56 8l.02.02c.13.27.16.53.08.78a1.05 1.05 0 0 1-.52.61.04.04 0 0 1-.02-.02 1.06 1.06 0 0 1-.08-.78 1.05 1.05 0 0 1 .52-.6ZM7.31 9.32a1.3 1.3 0 0 1-.77-.48l-.01-.02.03-.03c.32-.14.64-.18.95-.11.31.06.57.22.77.48l.01.02c0 .01 0 .02-.02.03-.33.14-.65.18-.96.11ZM11.33 9.07a1.23 1.23 0 0 1 .84 0v.04c-.13.25-.31.42-.56.52a1.23 1.23 0 0 1-.84 0V9.6c.13-.25.31-.43.56-.53ZM4.2 9c.2-.03.37.05.55.23l.01.02v.03c-.14.24-.3.38-.5.42-.18.03-.36-.04-.54-.22l-.01-.02v-.04c.14-.24.3-.38.5-.41ZM13.57 10a1.85 1.85 0 0 1-1.04-.03v-.03c.17-.25.41-.43.72-.52a1.84 1.84 0 0 1 1.04.02v.03c-.17.25-.4.43-.72.52ZM5.47 9.35a.96.96 0 0 1 .7.35v.03a.96.96 0 0 1-.7.33.96.96 0 0 1-.7-.35v-.03a.96.96 0 0 1 .7-.33ZM7.7 11.06c-.24.09-.5.08-.8-.03L6.89 11v-.03c.15-.25.34-.42.6-.51.24-.09.5-.08.79.03l.02.02v.03c-.14.25-.34.42-.59.5ZM10.04 11.22a1.24 1.24 0 0 1-.33-.8h.03c.27-.02.5.06.69.24a1.24 1.24 0 0 1 .33.8h-.03a.87.87 0 0 1-.69-.24ZM11.18 11.67a.65.65 0 0 1-.15-.65l.01-.02h.04c.36.07.63.2.8.38.17.19.22.4.15.65l-.01.02h-.04a1.4 1.4 0 0 1-.8-.38ZM4.48 11.15a1.74 1.74 0 0 1 .93-.13v.02a.86.86 0 0 1-.48.52 1.74 1.74 0 0 1-.93.13v-.02c.07-.23.23-.4.48-.52ZM7.84 12.35a1 1 0 0 1-.53.53h-.03l-.01-.03a1.4 1.4 0 0 1 .07-.84 1 1 0 0 1 .53-.54h.03v.03c.07.32.05.6-.06.85Z" fill="#458758"/><path fill-rule="evenodd" d="M15 9A6 6 0 1 1 3 9a6 6 0 0 1 12 0Zm-5.82 5.64a5.91 5.91 0 0 1-.33 0h.03a.08.08 0 0 0 .06-.03l.06-.07.03-.02c.02 0 .03.02.03.03l.04.06a.1.1 0 0 0 .07.03Zm.17 0h.02c.02-.01.03-.02.01-.04l-.2-.27a.04.04 0 0 1-.01-.05c.21-.38.35-.78.41-1.22a.5.5 0 0 1 .07-.2 1.5 1.5 0 0 1 1.25-.68 33.07 33.07 0 0 1 .25-.01v-.18l-.01-.01a1.77 1.77 0 0 0-1.49.52l-.01-.01a4.34 4.34 0 0 0-.48-2.16c.03-.08.07-.13.12-.15a2.7 2.7 0 0 1 1.69-.14c.13.03.31.1.54.22.22.1.44.2.68.28.13.05.23.1.32.17.38.28.67.6.88.94.1.17.19.37.24.58a5.64 5.64 0 0 1-4.28 2.4ZM13.8 12a2.43 2.43 0 0 0-.58-.95 5.8 5.8 0 0 1-.28-.32c.54.07 1.05-.01 1.53-.27a5.62 5.62 0 0 1-.67 1.54Zm.74-1.83c-.62.4-1.3.49-2.04.25a6.41 6.41 0 0 1-.9-.4c.63-.1 1.09-.42 1.39-.96a.42.42 0 0 0 .04-.12l-.01-.04-.13-.07h-.04l-.07.14-.06.11c-.33.5-.84.74-1.43.78-.08.01-.16 0-.26-.02-.38-.1-.76-.12-1.13-.06l-.4.08c-.02 0-.03-.01-.02-.02l.17-.16c.1-.1.2-.2.32-.29.3-.22.63-.4.98-.55.14-.06.3-.12.47-.17a7.32 7.32 0 0 0 1.34-.63 3.34 3.34 0 0 0 1.35-1.47 5.63 5.63 0 0 1 .43 3.6Zm-.56-3.86c-.02.06-.04.13-.08.19a3.9 3.9 0 0 1-2.07 1.76c.28-.5.45-1.02.5-1.58a5.5 5.5 0 0 0-.03-1.46l-.21-.96a5.67 5.67 0 0 1 1.89 2.05ZM11.8 4.1a6.14 6.14 0 0 1 .33 2.35 3.65 3.65 0 0 1-.64 1.92.15.15 0 0 1-.07.07 6.53 6.53 0 0 0-1.57.76c-.3.23-.63.54-.8.88 0 .01-.01.02-.03.02a.04.04 0 0 1-.03-.02 4 4 0 0 1-.27-2.16 2.58 2.58 0 0 1 .75-1.51l.3-.3c.18-.21.32-.43.42-.65.28-.6.35-1.24.23-1.93.5.13.96.32 1.38.57Zm-1.58-.61c.05.15.05.38.05.55v.1a2.76 2.76 0 0 1-.85 2 .02.02 0 0 1-.01-.01 1.83 1.83 0 0 0-.81-1.28 2.37 2.37 0 0 0-.76-.35c-.03 0-.04 0-.04.02l-.03.14c0 .02 0 .03.02.04.22.07.42.16.62.29.5.31.76.76.8 1.35 0 .02 0 .04-.02.06-.37.41-.59.9-.68 1.45 0 .02-.02.03-.04.02A3 3 0 0 1 7 6.84a3.85 3.85 0 0 1-.7-1.38l-.2.04c-.02 0-.02.01-.02.03.03.05.06.12.07.2l.08.2c.14.36.34.7.58 1.02.4.53 1 .97 1.65 1.14l.01.02c-.05.6.01 1.19.2 1.76 0 .02 0 .03-.03.02a2.74 2.74 0 0 0-1.36-.1c-.05 0-.1 0-.15-.03-.53-.24-.96-.6-1.29-1.1a4.8 4.8 0 0 1-.67-1.43c-.19-.7-.29-1.39-.3-2.08a5.63 5.63 0 0 1 5.35-1.66ZM4.67 5.38c-.58.69-1 1.52-1.2 2.43.4.5.9.82 1.52.97l.45.06.18.01c.06.01.07-.01.04-.06-.32-.48-.55-1-.7-1.55a8.5 8.5 0 0 1-.3-1.86Zm-1.24 2.7a5.69 5.69 0 0 0 .03 2.03c.56.4 1.18.53 1.87.38.15-.03.33-.1.55-.18a16 16 0 0 0 .83-.35l.04-.02c.07-.02.15-.05.04-.1-.26-.15-.49-.32-.69-.54l-.22-.22c-.02-.02-.06-.03-.1-.03a2.89 2.89 0 0 1-2.35-.96Zm.1 2.33a5.65 5.65 0 0 0 5.14 4.2l.22-.3v-.03a3.5 3.5 0 0 1-.43-1.25 4 4 0 0 1 .43-2.7c-.05-.1-.1-.16-.16-.19a2.72 2.72 0 0 0-1.5-.13.62.62 0 0 0-.24.1 1.86 1.86 0 0 0-.84 1.85l-.18.03h-.02a2.07 2.07 0 0 1 .46-1.66c-.19.09-.38.16-.58.24a3 3 0 0 1-1.26.18 2.4 2.4 0 0 1-1.04-.34Zm5.4 3.46a4.05 4.05 0 0 1-.02-3.1.95.95 0 0 1 .1-.17h.02l.1.17a4.05 4.05 0 0 1 0 3.1.94.94 0 0 1-.1.17v.01H9a.96.96 0 0 1-.09-.18Z"/></svg>