<!-- by TradingView --><svg width="18" height="18" viewBox="0 0 18 18" xmlns="http://www.w3.org/2000/svg"><path fill="#F0F3FA" d="M0 0h18v18H0z"/><path d="m11.15 10.62 2.39-3.92c.08-.13.04-.22-.1-.27a2 2 0 0 0-.73-.1c-.07 0-.1-.03-.11-.1v-.14a.08.08 0 0 1 .01-.06l.03-.01.03-.02h2.15l.06.02a.18.18 0 0 1 .1.1.18.18 0 0 1 0 .13.17.17 0 0 1-.15.11l-.28.02a.38.38 0 0 0-.33.2c-.98 1.76-1.97 3.61-2.98 5.43-.14.25-.16.52-.04.75.08.16.03.24-.15.24h-1.7c-.14 0-.22-.07-.22-.21l-.2-3.34c-.02-.37-.12-.39-.3-.07l-1.57 2.68a.6.6 0 0 0-.08.34l.02.45c0 .1-.04.15-.14.15H5.1c-.14 0-.22-.07-.22-.2V6.64c0-.18-.09-.27-.27-.27h-.47c-.1 0-.14-.05-.14-.14v-.16c0-.05.03-.08.08-.08h3.17c.1 0 .14.05.14.14v.19c0 .05-.03.08-.08.08l-.49.03a.26.26 0 0 0-.24.27l.22 3.87c.02.26.1.28.23.06l1.9-3.04a.6.6 0 0 0 .05-.58l-.19-.49c-.08-.22-.01-.34.22-.35l1.4-.08c.17 0 .26.07.27.22l.24 4.24c.02.27.1.29.23.06Z" fill="#2A2D90"/></svg>