<!-- by TradingView --><svg width="18" height="18" viewBox="0 0 18 18" xmlns="http://www.w3.org/2000/svg"><path fill="#F0F3FA" d="M0 0h18v18H0z"/><path fill-rule="evenodd" d="M16 9c0 .8-.74 1.56-2.05 2.12-1.31.56-3.1.88-4.95.88-.92 0-1.83-.08-2.68-.23-.85-.15-1.62-.37-2.27-.65C2.74 10.56 2 9.8 2 9s.74-1.56 2.05-2.12c.65-.28 1.42-.5 2.27-.65C7.17 6.08 8.08 6 9 6c1.86 0 3.64.32 4.95.88S16 8.2 16 9Zm-7.83 2H6.6v-.02L5.06 7.04a.03.03 0 0 1 0-.03h.01L5.09 7h1.57v.02l1.53 3.94a.03.03 0 0 1 0 .03.03.03 0 0 1-.02.01Zm2.59-1.1-.42.58h-.02L8.98 7.03l-.01-.02L8.94 7H7.43c-.05 0-.06.02-.04.06l1.5 3.9.03.03.03.01h2.08c.2 0 .4-.03.56-.13.33-.2.6-.46.8-.77a.12.12 0 0 0 .01-.11l-.5-1.3a.12.12 0 0 1 .02-.1l1.14-1.55v-.03L13.03 7H11.3a.11.11 0 0 0-.09.05l-.99 1.33-.01.05a.1.1 0 0 0 0 .04l.55 1.42v.01Z" fill="#00ADEF"/></svg>