<!-- by TradingView --><svg width="18" height="18" viewBox="0 0 18 18" xmlns="http://www.w3.org/2000/svg"><path fill="#F0F3FA" d="M0 0h18v18H0z"/><path d="M15 10.92c0 .03-.01.05-.03.06a.15.15 0 0 1-.07.02h-.77a.08.08 0 0 1-.03-.03.12.12 0 0 1-.02-.08V8.65c0-.03-.01-.05-.03-.05-.02 0-.03.02-.05.04l-.59.84c-.04.07-.1.1-.17.1h-.48c-.08 0-.13-.03-.17-.1L12 8.64l-.04-.04c-.02 0-.04.02-.04.05v2.24c0 .03 0 .06-.02.08l-.03.02-.04.01h-.73c-.02 0-.05 0-.07-.02-.02 0-.03-.03-.03-.06V7.18c0-.05.02-.1.06-.13.04-.03.09-.05.15-.05h.56c.12 0 .2.05.26.15l.9 1.53c.03.05.05.07.07.07.02 0 .04-.02.07-.07l.9-1.53c.06-.1.14-.15.26-.15h.56c.06 0 .11.02.15.05.04.04.06.08.06.14v3.73ZM10.5 9.85c0 .14-.03.28-.08.41a.95.95 0 0 1-.28.37c-.13.11-.3.2-.5.27s-.46.1-.76.1a5.5 5.5 0 0 1-1.13-.12.22.22 0 0 1-.08-.03.09.09 0 0 1-.03-.03v-.56c0-.03 0-.06.02-.07a.13.13 0 0 1 .08-.03h.02a4.9 4.9 0 0 0 .57.04 86.1 86.1 0 0 1 .56.03c.2 0 .34-.03.42-.1.07-.05.1-.14.1-.27a.27.27 0 0 0-.07-.2 1.35 1.35 0 0 0-.32-.2l-.82-.43a1.84 1.84 0 0 1-.34-.23 1.1 1.1 0 0 1-.21-.24.86.86 0 0 1-.12-.26 1.16 1.16 0 0 1 .04-.68.78.78 0 0 1 .26-.32c.12-.1.27-.17.47-.22.2-.05.43-.08.72-.08a6.18 6.18 0 0 1 1.33.15c.02.01.02.03.02.06v.53a.1.1 0 0 1-.02.06c-.01.02-.04.03-.08.03a8.77 8.77 0 0 0-.55-.03A24.42 24.42 0 0 0 9 7.77c-.17 0-.3.03-.36.07-.07.05-.1.12-.1.21l.01.1.07.08.12.09.2.1.76.36c.3.15.52.31.63.49.11.17.17.36.17.58ZM3 7.08c0-.03.01-.05.03-.06A.15.15 0 0 1 3.1 7h.73c.03 0 .05.01.07.03.02.02.02.05.02.08v2.24c0 .03.02.05.04.05L4 9.36l.58-.84c.04-.06.1-.1.17-.1h.48c.08 0 .13.04.17.1l.6.84c0 .02.02.04.04.04s.03-.02.03-.05V7.11c0-.03 0-.06.02-.08l.03-.02.04-.01h.73c.02 0 .05 0 .07.02.02 0 .03.03.03.06v3.74c0 .05-.02.1-.06.13a.23.23 0 0 1-.15.05h-.56a.28.28 0 0 1-.26-.15l-.9-1.53c-.03-.05-.05-.07-.07-.07-.02 0-.04.02-.07.07l-.9 1.53a.28.28 0 0 1-.26.15H3.2a.23.23 0 0 1-.15-.05.17.17 0 0 1-.06-.14V7.08Z"/><path d="M15.65 11a.34.34 0 0 0 .32-.21.36.36 0 0 0-.07-.4.35.35 0 0 0-.25-.09c-.1 0-.18.04-.25.1a.35.35 0 0 0 0 .5c.07.06.15.1.25.1Z" fill="#E04153"/></svg>