<!-- by TradingView --><svg width="18" height="18" viewBox="0 0 18 18" xmlns="http://www.w3.org/2000/svg"><path fill="#F0F3FA" d="M0 0h18v18H0z"/><path d="M5 8h8v1H6v1h7v3H5v-1h7v-1H5V8Z" fill="#1642FD"/><path d="M10.72 7.26v-2.7l-.74.71-1.94 4.36a11.58 11.58 0 0 1 2.68-2.37Z" fill="#46E658"/><path d="M10.43 7.04V4.28c-.3.26-.84.84-1.07 1.1L8.14 6.89l-.38 3.47C8.24 9 9.74 7.58 10.43 7.04Z" fill="#E9FF57"/><path d="M9.15 12.38a2.79 2.79 0 0 0 2.42-1.55c-.28.29-1.07.86-2 .86-1.27 0-1.62-1.04-1.64-1.56 0-1.26 1.44-2.73 2.07-3.31V4C8.56 5.36 6.71 7.42 6.71 9.25c0 1.82.74 3.13 2.44 3.13Z" fill="#FF1C01"/></svg>