<!-- by TradingView --><svg width="18" height="18" viewBox="0 0 18 18" xmlns="http://www.w3.org/2000/svg"><path fill="#F0F3FA" d="M0 0h18v18H0z"/><path d="M9 14a5 5 0 0 0 4.74-3.41c-.74.56-1.74.91-2.54.91-.73 0-1.34-.31-1.95-.63-.61-.3-1.22-.62-1.95-.62-1.17 0-2.2.57-2.75 1.02A5 5 0 0 0 9 14Zm2.2-3.13c.9 0 2.15-.45 2.76-1.22a5.04 5.04 0 0 0 .02-1.12c-.86.74-2.02 1.47-3.17 1.47-.72 0-1.32-.34-1.94-.69-.6-.34-1.22-.69-1.95-.69-1.26 0-2.33.65-2.87 1.12.06.35.15.7.27 1.02A4.92 4.92 0 0 1 7.3 9.63c.74 0 1.36.31 1.98.63.6.3 1.2.62 1.92.62ZM4 9.09a5.05 5.05 0 0 1 .05-.82 4.55 4.55 0 0 1 2.87-1.13c.73 0 1.34.3 1.95.62.61.31 1.22.63 1.94.63 1.05 0 2.06-.67 2.71-1.52.15.33.27.67.36 1.03l-.25.24a4.59 4.59 0 0 1-2.82 1.25c-.71 0-1.32-.35-1.92-.69A4.01 4.01 0 0 0 6.92 8 4.9 4.9 0 0 0 4 9.08Zm.26-1.66a5 5 0 0 1 8.98-1.08 3.1 3.1 0 0 1-2.43 1.41c-.72 0-1.32-.31-1.93-.62a4.25 4.25 0 0 0-1.96-.63c-1.07 0-2 .46-2.66.92Z" fill="#DD0024"/></svg>