<!-- by TradingView --><svg width="18" height="18" viewBox="0 0 18 18" xmlns="http://www.w3.org/2000/svg"><path fill="#F0F3FA" d="M0 0h18v18H0z"/><path d="M8.99 5.64c-.68 0-.98.66-.99.9v5.1c0 .2.3.72.99.72.68 0 .99-.41 1.01-.73v-1.45c0-.05.1-.09.14-.12.03-.03.07-.06.11-.06h1.57c.09 0 .19.13.18.23-.1 1.75.03 3.1-1.93 3.63-1.2.32-3.25.17-3.79-1.26-.15-.4-.27-.82-.28-1.27v-4.8c.06-2.51 2.87-2.93 4.56-2.22.99.41 1.37 1.17 1.44 2.26v1.55c0 .16-.07.27-.22.27h-1.56a.15.15 0 0 1-.1-.04c-.03-.03-.12-.07-.12-.12v-1.7c0-.37-.33-.9-1.01-.9Z" fill="#3A7B7C"/></svg>