<!-- by TradingView --><svg width="18" height="18" viewBox="0 0 18 18" xmlns="http://www.w3.org/2000/svg"><path fill="#F0F3FA" d="M0 0h18v18H0z"/><path fill-rule="evenodd" d="M5.18 4A1.2 1.2 0 0 0 4 5.24v7.52c0 .69.53 1.24 1.18 1.24h7.64A1.2 1.2 0 0 0 14 12.76V5.24A1.2 1.2 0 0 0 12.82 4H5.18Zm1.31 1H5v.19c.23 0 .32.17.35.26L6.65 9l.99-2.27L8.46 9l.42-1.14L10.14 11l.1-.27c.14.16.35.3.62.4.63.24 1.4.6 1.4 1.1 0 .48-.43.48-.78.48-.35 0-1.2-.37-1.2-1.23H10V13h.2c.01-.1.07-.3.28-.3.1 0 .17.05.26.1.15.08.36.2.86.2.8 0 1.4-.54 1.4-1.24 0-.56-.85-1.07-1.28-1.26-.31-.1-.94-.38-.94-.74 0-.45.5-.49.66-.49.16 0 1.1.3 1.1 1.02h.19V9h-.18c0 .1-.04.31-.2.31-.06 0-.12-.03-.19-.08-.14-.1-.34-.23-.8-.23-.14 0-.28.02-.42.06l.74-1.77c.02-.06.08-.1.14-.1h.08V7h-.84v.19h.12c.1 0 .18.11.15.22l-.7 1.79c-.09.04-.17.1-.25.16l-.68-1.8c-.11-.31.13-.38.27-.37V7h-.79l.62-1.7c.02-.07.07-.11.12-.11H10V5h-.77v.19h.11c.1 0 .17.11.14.22L8.96 7h-.4l-.5-1.45c-.1-.3.13-.37.25-.36V5H6.82v.19c.23 0 .33.17.35.26l.33.91L7 7.65l-.74-2.1c-.1-.3.12-.37.24-.36V5Z" fill="#3B5481"/></svg>