<!-- by TradingView --><svg width="18" height="18" viewBox="0 0 18 18" xmlns="http://www.w3.org/2000/svg"><path fill="#F0F3FA" d="M0 0h18v18H0z"/><path d="M4.04 6c-.83 0-1.32.95-.86 1.65l3.17 4.88c.41.64 1.34.63 1.74-.03l2.17-3.56a.54.54 0 0 0-.17-.73.51.51 0 0 0-.71.17L7.3 11.79a.1.1 0 0 1-.18 0L4.14 7.22c-.04-.07 0-.22.09-.22h1.44c.28 0 .51-.17.51-.47 0-.3-.23-.53-.51-.53H4.04Zm3.1 0a.53.53 0 0 0-.45.24c-.1.14-.1.33-.02.48l1.05 2c.13.25.44.35.7.23a.49.49 0 0 0 .23-.67l-.59-1.14c-.03-.06.02-.14.1-.14h5.22c.08 0 .13.08.1.15l-2.62 4.27a.1.1 0 0 1-.18 0l-.49-.7a.54.54 0 0 0-.72-.14.49.49 0 0 0-.15.7l1.05 1.5c.1.14.27.23.45.22.18 0 .35-.1.44-.25l3.67-6c.1-.15.1-.34 0-.5a.53.53 0 0 0-.45-.25H7.14Z" fill="url(#ajngdux0u)"/><defs><linearGradient id="ajngdux0u" x1="3.52" y1="8" x2="14.53" y2="8" gradientUnits="userSpaceOnUse"><stop stop-color="#C24F9D"/><stop offset="1" stop-color="#65257C"/></linearGradient></defs></svg>