<!-- by TradingView --><svg width="18" height="18" viewBox="0 0 18 18" xmlns="http://www.w3.org/2000/svg"><path fill="#F0F3FA" d="M0 0h18v18H0z"/><path fill-rule="evenodd" d="M4 4h10v10H4V4Zm8.29 2.43a.33.33 0 0 0-.08.17.4.4 0 0 1 .3-.13c.11 0 .22.05.34.14.14.11.24.16.3.16s.1-.01.13-.05a.2.2 0 0 0 .04-.2.14.14 0 0 1-.1.05c-.08 0-.12-.04-.12-.12 0-.04.02-.07.05-.1a.18.18 0 0 1 .12-.04.2.2 0 0 1 .17.07.3.3 0 0 1 .06.2c0 .11-.04.21-.1.3a.33.33 0 0 1-.27.12c-.1 0-.21-.05-.35-.16-.14-.1-.26-.16-.36-.16-.1 0-.17.04-.2.11h.04c.05 0 .08.03.08.08 0 .09-.04.13-.14.13a.17.17 0 0 1-.14-.08.37.37 0 0 1-.06-.22c0-.32.22-.56.66-.7l.2-.07c.22-.07.33-.2.33-.37 0-.11-.04-.2-.12-.27a.5.5 0 0 0-.32-.1.57.57 0 0 0-.31.07.3.3 0 0 0-.14.21c.1 0 .15.05.15.13 0 .05-.02.1-.06.13a.18.18 0 0 1-.13.05.19.19 0 0 1-.15-.07.26.26 0 0 1-.05-.17c0-.15.07-.28.2-.39a.8.8 0 0 1 .5-.15c.2 0 .36.05.48.16.13.1.19.23.19.4a.51.51 0 0 1-.34.5l-.33.11-.32.14a.52.52 0 0 0-.15.12ZM12 12h-1.05L9 9.57 7.04 12H6l2.47-3.04L6.1 6h1.04L9 8.33 10.87 6h1.04L9.52 8.96 12 12Z"/><path opacity=".5" fill="#F0F3FA" d="M5 12h8v1H5z"/></svg>