<!-- by TradingView --><svg width="18" height="18" viewBox="0 0 18 18" xmlns="http://www.w3.org/2000/svg"><path fill="#F0F3FA" d="M0 0h18v18H0z"/><path fill-rule="evenodd" d="M8.5 14a4.5 4.5 0 1 0 0-9 4.5 4.5 0 0 0 0 9Zm0-2.81a1.69 1.69 0 1 0 0-3.38 1.69 1.69 0 0 0 0 3.38Z" fill="#C1B060"/><path d="M9.85 8.49c.21.28.34.63.34 1a1.69 1.69 0 1 1-2.35-1.55l-1.66-2.3a4.5 4.5 0 1 0 5.19.39l.4.79-1.92 1.67Z" fill="#7F1A60"/><path d="M6.98 8.79 3 6.99a6.85 6.85 0 0 1 2.77-3.4l2.08 4.36c-.33.15-.66.36-.87.84Z" fill="#C9648E"/><path d="M13.45 13.77A6.75 6.75 0 0 0 15 9.43 6.47 6.47 0 0 0 10 3l-.9 4.92a1.7 1.7 0 0 1 .79 2.55l3.56 3.3Z" fill="#0992A5"/></svg>