<!-- by TradingView --><svg width="18" height="18" viewBox="0 0 18 18" xmlns="http://www.w3.org/2000/svg"><path fill="#F0F3FA" d="M0 0h18v18H0z"/><path d="M9.01 3c.02.1 0 .18-.04.25l-.01-.09a.1.1 0 0 0-.12.02L7.25 4.75v.01l-.53-1.33A5.6 5.6 0 0 1 9.02 3Z" fill="#4C90B7"/><path d="m10.3 4.33-.95.98c0 .04-.09.1-.26.2l-.21.03v-.1l.04.01c.03 0 .05 0 .05-.05V3.25A.35.35 0 0 0 9.02 3l1.29 1.33ZM6.72 3.43l.53 1.33a.06.06 0 0 0-.03.04.25.25 0 0 0-.09-.03l-2.05-.01c-.2 0-.27.04-.18.13l-.09.01a.11.11 0 0 0-.05.1l.01.97v1.26c-.08 0-.12-.03-.14-.07l-.93-.81a.1.1 0 0 1-.02-.12 5.91 5.91 0 0 1 3.04-2.8Z" fill="#02619A"/><path d="M13.28 4.8c-.04 0-.07.04-.09.1 0-.1-.12-.15-.34-.15l-1.46.02a.15.15 0 0 1-.11-.04.16.16 0 0 1-.05-.11v-1l-.12-.03c.04-.14.15-.17.32-.1.68.3 1.3.73 1.85 1.3Z" fill="#66A0C1"/><path d="m11.1 3.59.12.03-.5 1.17-1.37.52.96-.98.8-.74ZM7.25 4.76l1.63.68v.1l-.5.23c-.28.02-.49.1-.65.22h.01l-.42-1.04a.38.38 0 0 1-.1-.15c0-.02.01-.03.03-.04Z" fill="#02395A"/><path d="M10.72 4.8c-.02.04 0 .08.06.12l-.13.04a.12.12 0 0 0-.08.08l-.33.96-1.15-.48c.17-.1.26-.17.26-.21l1.37-.52Z" fill="#4C90B7"/><path d="M13.28 4.8a6.25 6.25 0 0 1 1.22 1.9.08.08 0 0 1-.04.04l-1.13.46c-.07 0-.1-.03-.12-.1l-.02-.98V4.89c.02-.05.05-.08.1-.1Z" fill="#02619A"/><path d="m4.9 4.89 1.56 1.56c-.06.06-.08.07-.07.04l-1.62-.52V5a.11.11 0 0 1 .04-.1.12.12 0 0 1 .1-.01Z" fill="#02395A"/><path d="m7.32 4.95.42 1.04-1.17.52a.14.14 0 0 0-.08.08L6 7.77l-1.14-.5a.71.71 0 0 1 .2-.16 61.2 61.2 0 0 1 1.2-.5c.08 0 .13-.03.14-.12-.01.03.01.02.07-.04.05.01.09-.02.12-.11.17-.45.35-.9.54-1.34a.08.08 0 0 1 .07-.05h.13ZM10.78 4.92l.66 1.48a.32.32 0 0 1-.08.05L10.24 6l.33-.96a.12.12 0 0 1 .08-.08l.13-.04Z" fill="#B4BD06"/><path d="m8.37 5.77.13 1.87c.01.2-.02.2-.1.02L7.74 6c.16-.12.37-.2.64-.22Z" fill="#2679A8"/><path d="m13.2 6.12.01.99c-.03.07-.06.1-.1.09-.41-.15-.92-.36-1.52-.63-.03-.01-.06 0-.12.01-.03-.01-.05-.02-.07-.01l-.03-.06v-.06a.32.32 0 0 0 .07-.05v.06l.06.03h.07l1.62-.37Z" fill="#66A0C1"/><path d="m11.37 6.5.02.07-1.76 1.15c-.12.07-.15.05-.1-.08L9.79 7a.25.25 0 0 1 .17-.15l1.4-.35Z" fill="#02619A"/><path d="M13.21 7.1c.01.07.05.1.12.1l-1.28.52c-.04.02-.05.05-.04.09l.39.94c.08.2.14.2.18-.02a.79.79 0 0 1 .17-.35l1.87.55c.03.01.03.03 0 .06h-1.68c-.45 0-.83-.04-1.16-.12-.53-.13-1.04-.23-1.53-.31-.13-.02-.13-.06-.01-.1l1.65-.68c.04-.02.05-.05.04-.1l-.46-1.1c.05-.02.1-.02.11-.01.61.27 1.12.48 1.52.63.04.01.08-.02.11-.1ZM4.64 7.16c0 .04.05.06.14.07.06.01.09.03.07.04l1.14.5-.29.67a.67.67 0 0 0-.47-.1l-.44-1a.05.05 0 0 0-.04-.04.06.06 0 0 0-.05.02L3.1 8.9l-.03.1A.12.12 0 0 1 3.02 9L3 8.93a6.29 6.29 0 0 1 .44-2.2.1.1 0 0 1 .1-.02l1.1.45Z" fill="#02395A"/><path d="M14.95 9h-.32c.02-.04.02-.06 0-.07l-1.88-.55.4-1a.12.12 0 0 1 .09-.06.11.11 0 0 1 .1.03l1.6 1.64Z" fill="#B4BD06"/><path d="m5.7 8.44 1.36.45c.22.07.21.1-.02.1h-1.5a.09.09 0 0 1-.1-.05l-.21-.6c.16-.02.32 0 .47.1Z" fill="#2679A8"/><path d="m3.08 9.02 2.3-.05a.08.08 0 0 1 .08.12l-.61 1.46a.17.17 0 0 1-.22.1 22.74 22.74 0 0 0-1.5-1.48.18.18 0 0 1-.05-.15Z" fill="#B4BD06"/><path d="m14.95 9 .04.06c0 .02.01.04 0 .07a7.93 7.93 0 0 1-.45 2.14l-.03.02a.09.09 0 0 1-.07 0l-1.13-.47a.1.1 0 0 1-.06-.12 44.16 44.16 0 0 0 1.5-1.55c.05-.04.05-.1.03-.16h.17Z" fill="#66A0C1"/><path d="m13.04 10.68-1-.39a.1.1 0 0 1-.06-.13l.4-1a.1.1 0 0 1 .18 0l.6 1.4a.1.1 0 0 1-.12.12ZM6.65 11.33c-.06.11-.12.12-.18.02L6 10.22l1.76-.75c.14-.06.17-.03.08.1l-1.2 1.76Z" fill="#B4BD06"/><path d="M7.76 11.97c-.03-.05-.04-.04-.04 0a3.6 3.6 0 0 0-1.19-.42c.01-.03-.03-.07-.13-.11.06-.02.08-.05.07-.1.06.1.11.1.18-.01l1.79-1.2.02-.01c.03 0 .05.01.05.05v.03a61 61 0 0 0-.75 1.77ZM10.79 13.12c-.05 0-.1-.03-.12-.06l-.43-1.04-.73-1.7c-.07-.17-.04-.2.1-.06l1.63 1.58.04.07-.01.07-.48 1.14Z" fill="#02395A"/><path d="m6 10.22.47 1.13c.01.04-.01.07-.07.09l-1.5-.61a.1.1 0 0 0-.08 0 .1.1 0 0 0-.05.08 108.2 108.2 0 0 0 .03 2.3c.02.01.04.02.07 0a.24.24 0 0 1-.07.1 6.1 6.1 0 0 1-1.34-1.98.08.08 0 0 1 .06-.08L6 10.22ZM13.19 13.2l-.12-.06-1.56-1.59a.08.08 0 0 1-.03-.07.08.08 0 0 1 .05-.06l1.6-.65a.07.07 0 0 1 .1.06l-.04 2.36Z" fill="#02619A"/><path d="m7.72 11.98-.39 1.1c-.01.04 0 .07.05.07h.05a.2.2 0 0 0-.09.01c-.02 0-.04.02-.04.04v.06c0-.04-.05-.05-.14-.03.04-.03.06-.06.04-.09-.27-.56-.5-1.1-.67-1.6.41.08.8.22 1.19.44Z" fill="#B4BD06"/><path d="M7.76 11.97c.28.13.57.24.85.36.2.07.35.11.48.11l-.07.08c0 .06-.01.1-.04.13-.02-.07-.08-.09-.16-.05l-1.4.56h-.04c-.05-.01-.07-.04-.05-.08l.39-1.1c0-.05.01-.06.04 0Z" fill="#4C90B7"/><path d="m10.24 12.02.43 1.04c0 .06-.02.1-.06.15l-1.58-.69c0-.02.02-.04.06-.08l1.15-.42Z" fill="#66A0C1"/><path d="M10.6 13.2c.05.06.07.1.04.16a.07.07 0 0 1-.07.04h-.04a.1.1 0 0 0-.08.04c-.43.42-.84.87-1.25 1.32-.06.08-.13.08-.22.06v-2.17c.03-.02.04-.07.05-.13l1.58.69Z" fill="#02395A"/><path d="M10.79 13.12h-.03l-.01.2-.17 1.38c0 .06-.04.1-.11.11L9.14 15a.3.3 0 0 1-.16-.18c.09.02.16.02.22-.06.4-.45.82-.9 1.25-1.32a.1.1 0 0 1 .08-.04h.04c.03 0 .06-.01.07-.04.03-.05.01-.1-.03-.15a.2.2 0 0 0 .06-.15c.03.03.07.05.12.06Z" fill="#02619A"/><path d="m10.76 13.13.02.04c.01.04.04.06.08.06a87.86 87.86 0 0 1 2.18-.03.1.1 0 0 0 .03-.06l.12.05a.45.45 0 0 1-.1.2 6.84 6.84 0 0 1-1.76 1.14.1.1 0 0 1-.1-.06l-.48-1.14v-.2Z" fill="#4C90B7"/><path d="M7.16 13.23s.02 0 .02.02c.02.01.03.04.02.06l-.53 1.23A6.2 6.2 0 0 1 4.8 13.3a.24.24 0 0 0 .07-.09l2.29.02Z" fill="#02395A"/><path d="M7.3 13.26c.5.52 1.03 1.04 1.55 1.56.06.05.1.06.13 0a.3.3 0 0 0 .16.18 5.72 5.72 0 0 1-2.47-.46l.53-1.23c0-.02 0-.05-.02-.06l-.02-.02c.09-.02.13-.01.13.03Z" fill="#2679A8"/></svg>