<!-- by TradingView --><svg width="18" height="18" viewBox="0 0 18 18" xmlns="http://www.w3.org/2000/svg"><path fill="#F60" d="M0 0h18v18H0z"/><path d="M13.23 6.07c.4.06.76.2 1.06.42.57.4.81 1.02.67 1.67-.1.43-.35.73-.7.85-.36.12-.8.02-1.24-.3l-.03-.02h-.02a1.83 1.83 0 0 1-.07-.06 4.66 4.66 0 0 0-3.2-.85h-.02l-.08-.01a.16.16 0 0 1-.06-.06.14.14 0 0 1-.01-.15c.2-.32.56-.76 1.12-1.07a3.66 3.66 0 0 1 2.58-.42Zm-6.38.9c.93 1 2.17 1.38 3.33 1.35 1.79-.03 2.47 1.22 1.8 2.39-.75 1.35-2.44 1.6-3.79.95a3.93 3.93 0 0 1-2.14-2.2A3.46 3.46 0 0 1 6.1 6.8c.05-.1.16-.18.29-.18.04 0 .09.01.13.03a.3.3 0 0 1 .1.07l.22.25ZM5.5 9.8l.04.09.02.03v.02c.14.32.17.61.08.83a.68.68 0 0 1-.1.18c-.2.21-.54.31-.95.27a1.7 1.7 0 0 1-1.58-2.02A3.02 3.02 0 0 1 4.27 7.1a3.12 3.12 0 0 1 .97-.5.2.2 0 0 1 .13.05c.02 0 .04.03.05.05l.01.06v.06c-.35.98-.32 2 .08 2.99Z" fill="#fff"/></svg>