<!-- by TradingView --><svg width="18" height="18" viewBox="0 0 18 18" xmlns="http://www.w3.org/2000/svg"><path fill="#F0F3FA" d="M0 0h18v18H0z"/><path d="M3 13.88v-.1l.1-.11.02-.02V13.5a24.96 24.96 0 0 0 5.5-3.8v-.03c-.1-.15-.58-1.4-1.42-2.55a3.36 3.36 0 0 0-.5-.56c-.31-.28-.7-.34-1.18-.38-.03 0-.04-.01-.04-.04v-.1c0-.03.01-.04.04-.04H9.6l.03.01.01.03v.1c0 .02-.01.04-.04.04-.52.04-.84.13-.94.25-.17.2-.04.39.12.6a28.1 28.1 0 0 0 .78 1.67h.01a8.68 8.68 0 0 0 2.17-3.49c0-.02 0-.03-.02-.02-.36.14-.6.51-.97.7a.04.04 0 0 1-.05-.02.46.46 0 0 1-.06-.15l.01-.06c.34-.48.96-.77 1.27-1.3.07-.11.16-.23.28-.35.01-.02.03-.01.03.01.2.7.53 1.31.77 2 0 .02 0 .04-.02.06l-.03.03a.09.09 0 0 0-.03.07v.34a.08.08 0 0 1-.05.07.08.08 0 0 1-.08-.02.5.5 0 0 1-.1-.13c-.27-.5-.64-1.08-.68-1.66 0-.02 0-.02-.02-.01h-.01v.01l-.02.36c-.05 1.26-.97 2.05-1.53 3.08-.87 1.6-2.62 2.77-4.08 3.8-.41.3-1.68.82-1.92 1.17-.04.06-.03.07.04.05 2.5-.74 5.2-.06 7.73.2-2.63-.11-5.45-.4-8.04.2-.29.07-.56.27-.81.36a.05.05 0 0 1-.05-.01l-.04-.04-.02-.01H3.2c-.09.01-.16 0-.21-.06Z" fill="#244476"/><path d="m9.39 10.7.92-.92a.02.02 0 0 1 .03 0l1.63 2.18V12l-.02.01h-1.6a.02.02 0 0 1-.01 0l-.96-1.27a.02.02 0 0 1 0-.04Z" fill="#244476"/></svg>