<!-- by TradingView --><svg width="18" height="18" viewBox="0 0 18 18" xmlns="http://www.w3.org/2000/svg"><path fill="#040043" d="M0 0h18v18H0z"/><path d="M3.23 10.65 3 12c.23 0 .91-.18 1.82-.9.38-.3.88-.82 1.42-1.38 1.1-1.15 2.4-2.5 3.17-2.5.54 0 .93.1 1.34.22.44.11.91.24 1.63.24 1.09 0 1.86 0 2.62-.68l-1-1-.13.27c-.22.5-.41.96-1.5.96-.9 0-1.44-.15-1.91-.28a3.8 3.8 0 0 0-1.05-.18c-.5 0-1.52.99-2.5 1.94-.85.82-1.66 1.6-2.09 1.71-.73.18-1.36.23-1.6.23ZM12 6v.93c-.3-.04-.6-.12-.9-.2-.45-.11-.9-.23-1.35-.23-.93 0-1.73.78-2.53 1.56-.4.39-.8.78-1.22 1.07V6h6Zm-6 6v-1.78c.39-.18.83-.62 1.31-1.1.77-.77 1.62-1.62 2.44-1.62.5 0 .97.12 1.44.24.27.07.53.13.81.18V12H6Z" fill="#fff"/></svg>