<!-- by TradingView --><svg width="18" height="18" viewBox="0 0 18 18" xmlns="http://www.w3.org/2000/svg"><path fill="#F0F3FA" d="M0 0h18v18H0z"/><path fill-rule="evenodd" d="M4.8 4h8.4c.44 0 .8.36.8.8v8.4a.8.8 0 0 1-.8.8H4.8a.8.8 0 0 1-.8-.8V4.8c0-.44.36-.8.8-.8Zm-.22.8v3.44c0 .6.37.54.61.54H8.2c.6 0 .6-.49.6-.53V4.8c0-.52-.43-.42-.55-.43H5.03c-.46 0-.45.25-.45.43Zm3.82 6.72v1.94s0 .19.2.19.2-.21.2-.21v-1.9c0-.24-.06-.31-.2-.31-.17 0-.2.05-.2.3Zm-1.86 0v1.94c0 .03 0 .19.2.19.19 0 .19-.15.19-.21v-1.9c0-.24-.05-.31-.2-.31-.17 0-.2.05-.2.3Zm.92-.71v2.8c0 .06.05.17.23.17.17 0 .22-.1.22-.17v-2.8h.76c.2 0 .26-.04.26-.2 0-.15-.16-.17-.25-.17H6.66c-.23 0-.3.06-.3.2 0 .12.1.17.3.17h.8Zm-.72-1.44c-.27 0-.4.02-.4.2 0 .16.22.18.44.18H8.4c.12 0 .38 0 .38-.19 0-.18-.18-.19-.37-.19H6.74Zm-2.16.09v3.93c0 .17.02.29.23.29.21 0 .13-.36.26-.36h.42c.18 0 .6-.03.6-.6V9.68s.05-.51-.4-.51h-.74c-.06 0-.37-.03-.37.29ZM5 11.5v1.47h.5c.15 0 .15-.1.15-.3V11.6c0-.2-.12-.2-.2-.2h-.33c-.11-.01-.12.05-.12.1Zm0-1.85v1.28h.65v-1.1c0-.29-.1-.3-.18-.3H5.1c-.1 0-.1.12-.1.12Zm5.07 1.5s-.27 0-.27.18c0 .19.3.16.3.16h2.37c.3 0 .3.05.3.22 0 .17-.07.33-.31.35-.24.03-.56.02-.9.02-.35 0-.3.4-.3.4v.59c0 .31-.3.25-.3.25H9.8c-.37 0-.4.02-.4.2 0 .16.28.15.28.15h1.6c.42 0 .42-.26.42-.26v-.64c0-.4.18-.37.18-.37l.48.01c.3 0 .8-.15.8-.71 0-.56-.44-.55-.44-.55h-2.63Zm.34-1.37c-.34 0-.43.16-.43.52 0 .47.18.49.35.49h2.3s.3 0 .3-.52-.36-.49-.36-.49h-2.16Zm.56.31c-.23.02-.63-.08-.63.21 0 .21.29.17.29.17h1.6s.33.04.33-.19-.35-.19-.35-.19h-1.24Zm-1.73-.9c-.12-.01-.16.04-.16.17s.1.16.19.16h4.2c.12 0 .17-.09.17-.17a.17.17 0 0 0-.16-.17h-1.8s-.03-.29-.27-.27c-.24.01-.25.27-.25.27H9.25ZM9.8 7.1l.04 1.14c0 .16.28.4.75.4.5 0 .73-.28.74-.4l.03-1.12c0-.16-.06-.2-.22-.2H9.97c-.17 0-.17.12-.17.18Zm.37.2.02.74c0 .02.05.26.4.26.36 0 .4-.25.4-.25l.02-.74h-.84Zm3.14-2.3h-1.47a1.57 1.57 0 0 1-.02-.23h1.24c.05 0 .14-.01.14-.17s-.13-.16-.13-.16h-1.25v-.08c0-.12-.08-.15-.2-.15-.1 0-.17.05-.17.15 0 0 0 .37.02.63H9.94s-.88-.05-.88.69v2.3c0 .06 0 .26.2.28.22.02.22-.17.22-.26V6.4h1.55s.2 0 .2-.2c0-.22-.2-.2-.2-.2H9.48c0-.28 0-.59.52-.59h1.54c.05.26.15.58.34.96 0 0-.4.72-.04 1.3a3.34 3.34 0 0 0 1.44 1.12c.23.07.4-.17.24-.28 0 0-.5-.26-.85-.52-.35-.25-.78-.7-.56-1.23.13.19.6.6 1.03.75.02 0 .19.06.25-.05.03-.06.05-.17-.05-.23-.07-.03-.75-.36-1-.79 0 0 .09-.2.4-.3.06-.03.05-.1-.02-.22-.06-.12-.26-.06-.36 0-.1.06-.17.13-.2.18-.12-.22-.2-.43-.27-.7h1.45c.07 0 .12-.05.12-.23S13.31 5 13.31 5Zm-6.32.42h.82c.17 0 .27-.01.27-.18 0-.17-.14-.17-.14-.17H5.36c-.05 0-.12.04-.12.17 0 .1.03.18.15.18h1.2v.83H5.36c-.05 0-.12.05-.12.17 0 .1.03.18.15.18h1.2v1.01H5.3c-.06 0-.13.05-.13.17 0 .1.03.18.16.18h2.55c.17 0 .28 0 .29-.15v-.15c0-.18-.01-.29-.19-.29-.17 0-.17.15-.17.15v.1H7V6.6h.8c.18 0 .28 0 .28-.18 0-.17-.14-.17-.14-.17h-.95v-.83Zm-2.09-.3v2.82c0 .51.23.5.57.5h2.5c.5 0 .5-.4.5-.5V5.13c0-.45-.35-.44-.47-.44H5.28c-.38 0-.37.27-.38.43Z" fill="#841218"/></svg>