<!-- by TradingView --><svg width="18" height="18" viewBox="0 0 18 18" xmlns="http://www.w3.org/2000/svg"><path fill="#F0F3FA" d="M0 0h18v18H0z"/><path d="M6.67 5H4v3h2.67C6.94 7.82 7.79 7 9 7c1.17 0 2.06.7 2.33 1H14V7h-2.67A3.6 3.6 0 0 0 9 6c-1.2 0-2.06.76-2.33 1v-.92C6.83 5.7 7.53 5 9 5c1.47 0 2.33.64 2.5 1H14V5h-2.5c-.28-.36-1.3-1-2.5-1s-2.06.64-2.33 1ZM11.33 11H14v3h-2.67c-.27-.18-1.12-1-2.33-1a3.4 3.4 0 0 0-2.33 1H4v-1h2.67A3.6 3.6 0 0 1 9 12c1.2 0 2.06.76 2.33 1v-.92C11.17 11.7 10.47 11 9 11c-1.47 0-2.33.64-2.5 1H4v-1h2.5c.28-.36 1.3-1 2.5-1s2.06.64 2.33 1ZM6.67 9H4v1h2.67c.22-.33 1-1 2.33-1s2.11.67 2.33 1H14V9h-2.67C11 8.67 10.07 8 9 8s-2 .67-2.33 1Z" fill="#00757F"/></svg>