<!-- by TradingView --><svg width="18" height="18" viewBox="0 0 18 18" xmlns="http://www.w3.org/2000/svg"><path fill="#005BAC" d="M0 0h18v18H0z"/><circle cx="9" cy="9" r="5" fill="#fff"/><path d="M6.5 6.23C7.41 6.6 8.66 7.35 9 9c.34-1.65 1.59-2.4 2.5-2.77A5.5 5.5 0 0 0 9 5.56a5.5 5.5 0 0 0-2.5.67Z" fill="#1C1E7C"/><path fill-rule="evenodd" d="M9 13.69A4.69 4.69 0 1 0 9 4.3a4.69 4.69 0 0 0 0 9.38Zm0-.31a4.38 4.38 0 1 0 0-8.76 4.38 4.38 0 0 0 0 8.75Z" fill="#74634D"/><path d="M6.66 7A3.85 3.85 0 0 0 6 9.2c0 1.36 1.03 2.5 1.63 2.8A5 5 0 0 0 8 10.07C8 9.53 7.7 7.83 6.66 7Zm4.68 0c.22.28.66 1.12.66 2.2 0 1.36-1.03 2.5-1.63 2.8a5 5 0 0 1-.37-1.93c0-.54.3-2.24 1.34-3.07Z" fill="#E70012"/></svg>