<!-- by TradingView --><svg width="18" height="18" viewBox="0 0 18 18" xmlns="http://www.w3.org/2000/svg"><path fill="#F0F3FA" d="M0 0h18v18H0z"/><ellipse cx="9" cy="9" rx="6" ry="4" fill="#8A0104"/><path d="M14.7 9.08c0 1.91-2.12 3-3.18 3.3.36-.46 1.08-1.06 1.08-1.98 0-.92-.96-1.55-2.42-1.91C8.72 8.12 7 7.57 7 6.73s.97-1.42 2.34-1.42c2.31 0 5.36 1.38 5.36 3.77Z" fill="#FCDE10"/><path d="M3.3 8.92c0-1.91 2.12-3 3.18-3.3-.36.46-1.08 1.34-1.08 1.98 0 .85.96 1.55 2.42 1.91 1.46.37 3.18.92 3.18 1.76s-.97 1.42-2.34 1.42c-2.31 0-5.36-1.38-5.36-3.77Z" fill="#F0F3FA"/><ellipse cx="8.9" cy="6.69" rx=".9" ry=".77" fill="#E2AF90"/><path d="M10 11.23c0 .43-.4.77-.9.77s-.9-.34-.9-.77c0-.42.4-.77.9-.77s.9.35.9.77Z" fill="#814D10"/></svg>