<!-- by TradingView --><svg width="18" height="18" viewBox="0 0 18 18" xmlns="http://www.w3.org/2000/svg"><path fill="#F0F3FA" d="M0 0h18v18H0z"/><path d="m11.78 10.5 1.6 1.5L15 10.5 13.39 9l-1.61 1.5Z" fill="#953192"/><path d="M13.39 9 15 7.5 13.39 6l-1.8 1.68.19-.18 1.6 1.5Z" fill="#00B5DF"/><path d="m11.78 7.5-.2.18C11.22 8.03 11 8.5 11 9c0 .5.21.97.59 1.32l.19.18 1.6-1.5-1.6-1.5Z" fill="#313896"/><path d="M6.22 7.5 4.62 6 3 7.5 4.61 9l1.61-1.5Z" fill="#953192"/><path d="M4.61 9 3 10.5 4.61 12l1.8-1.68-.19.18L4.62 9Z" fill="#00B5DF"/><path d="m6.22 10.5.2-.18C6.78 9.97 7 9.5 7 9c0-.5-.21-.97-.59-1.32l-.19-.18L4.62 9l1.6 1.5Z" fill="#313896"/><path d="M7.5 11.78 6 13.38 7.5 15 9 13.39l-1.5-1.61Z" fill="#953192"/><path d="M9 13.39 10.5 15l1.5-1.61-1.68-1.8.18.19-1.5 1.6Z" fill="#00B5DF"/><path d="m10.5 11.78-.18-.2A1.81 1.81 0 0 0 9 11c-.5 0-.97.21-1.32.59l-.18.19 1.5 1.6 1.5-1.6Z" fill="#313896"/><path d="m10.5 6.22 1.5-1.6L10.5 3 9 4.61l1.5 1.61Z" fill="#953192"/><path d="M9 4.61 7.5 3 6 4.61l1.68 1.8-.18-.19L9 4.62Z" fill="#00B5DF"/><path d="m7.5 6.22.18.2C8.03 6.78 8.5 7 9 7c.5 0 .97-.21 1.32-.59l.18-.19L9 4.62l-1.5 1.6Z" fill="#313896"/></svg>