<!-- by TradingView --><svg width="18" height="18" viewBox="0 0 18 18" xmlns="http://www.w3.org/2000/svg"><path fill="#F0F3FA" d="M0 0h18v18H0z"/><path d="M4 9c-.55-.46-1-1.15-1-2h1c0 1.07.45 1.5 1 1.5S6 8.07 6 7h1c0 .85-.45 1.54-1 2 .55.38 1 1.15 1 2H6c0-1.07-.45-1.5-1-1.5S4 9.93 4 11H3c0-.85.45-1.62 1-2ZM8 8.5V11h.25c.41 0 .75-.59.75-1V8.75c0-.41.34-.75.75-.75H10c.41 0 1-.34 1-.75V7H9.5C8.67 7 8 7.67 8 8.5Z" fill="#0F3063"/><path d="M15 8.5h-1c-.13 0-.5.07-.5.5s.33.5.5.5h.5c.38 0 .5-.75.5-1Z" fill="#0078AD"/><path d="M12 8.5V11h.25c.5 0 .75-.59.75-1V8.75c0-.41.34-.75.75-.75H14c.63 0 1-.34 1-.75V7h-1.5c-.83 0-1.5.67-1.5 1.5Z" fill="#0F3063"/></svg>