<!-- by TradingView --><svg width="18" height="18" viewBox="0 0 18 18" xmlns="http://www.w3.org/2000/svg"><path fill="#F0F3FA" d="M0 0h18v18H0z"/><path d="M7.44 12H7l.86-1.5L7 9h.45l.64 1.1.63-1.1h.45l-.86 1.5.86 1.5h-.44l-.64-1.12L7.44 12Zm2.11 0V9H11v.4h-1v.6h1v.36h-1v1.28h1V12H9.55ZM9.13 4.76h-.11a.05.05 0 0 0-.06.05l-.05 3.54c0 .03.02.05.05.05h.12c.03 0 .05-.02.05-.05l.05-3.54a.05.05 0 0 0-.05-.05Zm-1.95.34-.06.02a.08.08 0 0 0-.05.1L7.8 7.5c.01.04.06.06.1.05l.06-.02a.08.08 0 0 0 .05-.1l-.75-2.29a.08.08 0 0 0-.1-.05Zm3.69-.01.07.02c.04.01.06.05.05.09l-.75 2.32a.07.07 0 0 1-.09.04l-.08-.03a.06.06 0 0 1-.04-.08l.75-2.32a.07.07 0 0 1 .09-.04Zm1.81.9-.02-.02a.09.09 0 0 0-.13 0l-1.32 1.64c-.03.04-.02.1.02.13l.02.02c.04.03.1.02.13-.02l1.32-1.63a.09.09 0 0 0-.02-.12ZM5.37 6l.05-.03a.08.08 0 0 1 .1 0l1.33 1.65c.02.03.02.07-.01.1l-.05.04a.08.08 0 0 1-.1-.02L5.35 6.12a.07.07 0 0 1 0-.1Zm.5 2.35L4.3 7.26a.09.09 0 0 0-.13.03l-.02.03c-.03.04-.02.1.02.12l1.58 1.09c.04.03.1.02.12-.02l.02-.03a.09.09 0 0 0-.02-.12Zm6.31 0 1.58-1.1a.1.1 0 0 1 .12.03l.02.02c.03.04.02.1-.02.13L12.3 8.53a.1.1 0 0 1-.12-.02l-.02-.03a.09.09 0 0 1 .02-.12Zm-7.16.92-1.6-.45a.08.08 0 0 0-.1.05l-.02.05c0 .04.02.09.06.1l1.6.44c.05.02.09 0 .1-.05l.01-.05a.08.08 0 0 0-.05-.1Zm8.02 0 1.59-.45a.1.1 0 0 1 .11.06v.02a.1.1 0 0 1-.06.12l-1.58.44a.1.1 0 0 1-.12-.06v-.02a.1.1 0 0 1 .06-.12Z" fill="#3F4245"/><path d="m10.07 4 .07.01c.04 0 .06.04.05.07l-.43 2.81c0 .04-.03.06-.07.05h-.07a.06.06 0 0 1-.05-.07L10 4.05c0-.03.04-.05.07-.05ZM7.9 4h.03c.04 0 .08.03.09.07l.42 2.78c.01.04-.02.08-.06.1h-.03a.08.08 0 0 1-.1-.07L7.84 4.1c0-.05.02-.09.07-.1Zm4.36.66-.03-.01a.08.08 0 0 0-.1.03l-.82 1.44c-.02.04-.01.09.03.1l.03.02c.04.02.09.01.1-.03l.82-1.44a.08.08 0 0 0-.03-.11Zm-6.48.02h.01a.1.1 0 0 1 .13.03l.8 1.4c.02.04 0 .1-.04.12l-.01.01a.1.1 0 0 1-.13-.03l-.8-1.4c-.02-.05 0-.1.04-.13Zm8.13 1.17-1.19 1.13a.08.08 0 0 0 0 .1l.03.03c.03.03.07.04.1 0L14.06 6a.08.08 0 0 0 0-.1l-.03-.03a.08.08 0 0 0-.1 0Zm-9.79.02L5.3 6.98c.03.03.03.08 0 .1l-.03.04a.07.07 0 0 1-.1 0L3.99 6.01a.07.07 0 0 1 0-.1l.03-.04a.07.07 0 0 1 .1 0Zm11 1.7-1.35.64a.1.1 0 0 0-.04.12.1.1 0 0 0 .13.05l1.35-.63a.1.1 0 0 0 .05-.12.1.1 0 0 0-.13-.05ZM2.9 7.6l1.34.62c.05.02.07.07.05.12a.1.1 0 0 1-.13.05l-1.34-.62a.09.09 0 0 1-.04-.12.1.1 0 0 1 .12-.05Zm.58 2.22L2.1 9.58a.08.08 0 0 0-.1.06v.03c0 .04.02.08.07.09l1.38.23c.04 0 .08-.02.1-.06V9.9a.08.08 0 0 0-.07-.1Zm11.05 0 1.36-.23c.05 0 .1.03.1.07v.02c.02.05-.02.09-.06.1l-1.36.22a.09.09 0 0 1-.1-.07V9.9c-.02-.04.02-.09.06-.1Z" fill="#4872A4"/></svg>