<!-- by TradingView --><svg width="18" height="18" viewBox="0 0 18 18" xmlns="http://www.w3.org/2000/svg"><path fill="#F0F3FA" d="M0 0h18v18H0z"/><path d="M13.66 5.29c0 .05.03.1.09.16.03.04.02.06-.03.07-.4.05-.84.03-1.3-.08a10.05 10.05 0 0 0-2.56-.7c.11-.07.1-.12-.03-.14a5.4 5.4 0 0 0-.99-.06c-.26 0-1.11.11-2.54.32-.2.03-.41-.06-.64-.25a9.16 9.16 0 0 1 8 .68Z" fill="#9BAEBC"/><path d="M9.77 4.73a8.15 8.15 0 0 0-4.14.71l-.19.04c-.38.09-.8.23-1.22.43-.25.12-.54.17-.87.14a6.4 6.4 0 0 1 2.3-1.44c.24.2.45.28.65.25 1.43-.2 2.28-.31 2.54-.32.35 0 .68.01 1 .06.13.02.13.07.02.13h-.09Z" fill="#CBD3DD"/><path d="M9.77 4.73c.92.12 1.8.36 2.65.71.6.36 1.17.81 1.68 1.35-.16 0-.24.01-.26.06a2.42 2.42 0 0 0-1.8-1c-.08-.05-.14-.06-.16-.03a.42.42 0 0 0-.18-.13c-1.8-.6-3.6-.6-5.4 0l-.67-.25c1.32-.6 2.7-.84 4.14-.71Z" fill="#43403F"/><path d="M11.88 5.81c-.03.15-.18.27-.44.35l-1.52-.22c0 .16-.05.2-.17.15-.63-.33-1.3-.22-2.05-.07-.14.03-.32.19-.55.48-.1-.09-.2-.08-.3.02-.1.1-.2.22-.3.36a.18.18 0 0 1-.14.07c-.3.01-.74.1-.95.38-.04.05-.04.1.01.13.03.03.08.05.15.06l1.4.42c.35.15.62.22.82.22.87-.02 1.3-.04 1.96.16.03.17.08.27.13.3.21.12.24.09.1-.1-.2-.23-.12-.46.2-.68.64.29 1.25.43 1.84.42.14-.07.35-.08.65-.02.33.06.84-.08 1.2-.26.14-.08.29-.14.44-.2l.28.8a3.05 3.05 0 0 1-1.24 2.76 6.52 6.52 0 0 1-3.78 1.32c-.78.04-1.4.02-1.85-.03-1.04-.14-2-.49-2.84-1.04-1.23-.8-1.74-1.87-1.53-3.2.15-.56.43-1.04.85-1.46A6.75 6.75 0 0 1 6.3 5.69c1.8-.6 3.6-.6 5.4 0 .06.02.12.06.18.12Z" fill="#fff"/><path d="M15.04 8.34a2.4 2.4 0 0 0-.94-1.55 7.6 7.6 0 0 0-1.68-1.35c.46.1.9.13 1.3.08.05-.01.06-.03.03-.07-.06-.06-.1-.11-.09-.16.67.38 1.25.95 1.74 1.7.23.34.34.68.35 1 0 .06-.03.1-.08.12l-.63.23ZM5.44 5.48l-.59.36-1.05.96c0 .02-.03.05-.07.08-.2.16-.4.4-.54.76-.18.4-.29.77-.33 1.14 0 .07.01.08.07.03l.16-.14c.06.02.1.08.1.18.04.84.33 1.56.9 2.16.4.45.86.8 1.37 1.05.15.07.14.13-.02.17l-.08.01c-.04.02-.05.04-.03.09.01.03.04.06.07.08.07.04.06.07-.01.1a.19.19 0 0 1-.12-.01 4.08 4.08 0 0 1-2.54-3.46c0-.06-.02-.1-.07-.13l-.57-.41a3.99 3.99 0 0 1 1.26-2.45c.33.03.62-.02.87-.14.43-.2.84-.34 1.22-.43Z" fill="#E0E5EB"/><path d="m5.63 5.44.67.25c-.78.3-1.47.72-2.05 1.24-.04-.08-.21-.1-.52-.05.04-.03.07-.06.07-.08a1.5 1.5 0 0 0 1.13-.6c.03-.04.03-.09 0-.13-.07-.08-.1-.15-.08-.23l.6-.36.18-.04Z" fill="#8A8786"/><path d="M12.05 5.85c-.13.2-.31.3-.56.34-.03-.05-.05-.06-.05-.03.26-.08.41-.2.44-.34.02-.03.08-.02.17.03ZM4.85 5.84c-.02.08 0 .15.08.23.03.04.03.09 0 .13-.3.37-.67.57-1.13.6l1.05-.96Z" fill="#AFABA9"/><path d="M9.92 5.94c.03.13.14.2.32.23C9 6.4 8 6.07 7.1 6.83c-.06.05-.05.08.02.09.71.13 1.28.2 1.72.21 1.48.03 3.18 0 5.1-.09.19.2.33.44.42.74-.15.06-.3.12-.45.2-.35.18-.86.32-1.2.26-.29-.06-.5-.05-.64.02-.77-.23-1.31-.38-1.63-.44-.07-.02-.15 0-.25.07-.24.02-.37.16-.39.43-.66-.2-1.1-.18-1.96-.16-.2 0-.47-.07-.81-.22l-1.38-.47c.23-.36.52-.48.86-.38.05.01.1 0 .13-.04l.51-.55c.23-.3.41-.45.55-.48.76-.15 1.42-.26 2.05.07.12.06.17 0 .17-.15Z" fill="#E0E5EB"/><path d="m13.84 6.85.1.2c-1.92.08-3.62.11-5.1.08-.44 0-1-.08-1.72-.21-.07-.01-.08-.04-.02-.1.91-.74 1.9-.42 3.14-.65.33.1.66.15 1 .14a.3.3 0 0 0 .25-.12.72.72 0 0 0 .56-.34c.75.07 1.35.4 1.8 1Z" fill="#CBD3DD"/><path d="M11.44 6.16c0-.03.02-.02.05.03a.3.3 0 0 1-.24.12c-.35 0-.68-.04-1.01-.14-.18-.03-.29-.1-.32-.23l1.52.22ZM7.15 6.5l-.51.55a.12.12 0 0 1-.13.04c-.34-.1-.63.03-.86.38.03-.03.02-.02-.03.05a.39.39 0 0 1-.15-.06c-.05-.04-.05-.08-.01-.13.21-.28.65-.37.95-.38a.18.18 0 0 0 .14-.07c.1-.14.2-.26.3-.36.1-.1.2-.1.3-.02ZM14.1 6.8c.47.31.79.83.94 1.54l.07.47c0 .07-.02.08-.08.04a.43.43 0 0 1-.14-.19c-.03-.07-.08-.1-.15-.07a.12.12 0 0 0-.1 0l-.28-.8c-.1-.3-.23-.55-.43-.75l-.09-.2c.02-.04.1-.06.26-.05ZM3.73 6.88c.3-.05.48-.03.52.05-.42.42-.7.9-.85 1.45a.67.67 0 0 0-.31.29l-.16.14c-.06.05-.08.04-.07-.03.04-.37.15-.75.33-1.14.15-.35.33-.6.54-.76Z" fill="#312927"/><path d="m5.65 7.47 1.38.47-1.41-.42c.05-.07.06-.08.03-.05ZM10.19 7.89l.04-.05c-.32.22-.4.45-.2.68.14.19.11.22-.1.1-.05-.03-.1-.13-.13-.3.02-.27.15-.41.39-.43Z" fill="#AFABA9"/><path d="M3.4 8.38c-.2 1.34.3 2.41 1.53 3.2.85.56 1.8.9 2.84 1.05.45.05 1.07.07 1.85.03a6.52 6.52 0 0 0 3.78-1.32c.9-.69 1.31-1.6 1.24-2.76a.12.12 0 0 1 .1 0c.06.5 0 .98-.16 1.45a3.87 3.87 0 0 1-1.17 1.45.96.96 0 0 0-.16.15c-.08.1-.13.16-.13.19 0 .39.13.44.41.17.2-.2.43-.39.66-.55.24.06.53.06.87.02l-.68.67c-.34.01-.68.04-1.02.1a.55.55 0 0 0-.25.11c-.1.09-.18.14-.23.16-.4.16-.81.34-1.22.55a10.3 10.3 0 0 1-5.13.05l-1.26-.6h.12c.07-.02.08-.05 0-.1a.18.18 0 0 1-.06-.07c-.02-.05-.01-.07.03-.09a.73.73 0 0 1 .08-.01c.16-.04.17-.1.03-.17-.52-.25-.98-.6-1.39-1.05a3.27 3.27 0 0 1-.89-2.16c0-.1-.04-.16-.1-.18a.67.67 0 0 1 .3-.29Z" fill="#9BAEBC"/><path d="m10.06 8.93-1.4-.43v-.02l.06-.05c.01-.01.03-.02.05-.01l1.21.38c.06.02.09.06.08.13Z" fill="#43403F"/><path d="m2.09 8.5.57.4c.05.04.07.08.07.14.07.88.43 1.7 1.08 2.45l-.97-.1c-.74-.94-1-1.9-.75-2.9ZM15.06 11.46c-.34.04-.63.04-.87-.02l.69-1.02c.2-.46.32-.9.33-1.31 0-.13.06-.23.17-.3l.42-.29c.11-.07.17-.05.18.08a3.67 3.67 0 0 1-.92 2.86Z" fill="#312927"/><path d="M9 9.05c.34.2.72.26 1.14.17v.1l.04.02a.3.3 0 0 1 .06.01c-.3.1-.54.14-.75.09-1.06-.26-1.87-.5-2.86-.21-.11-.2 0-.31.31-.35.39.14.76.11 1.13-.07l.92.24Z" fill="#AFABA9"/><path d="M10.14 9.22c-.42.1-.8.04-1.15-.17.41.08.71.1.92.09.13-.02.18-.09.15-.21.03-.03.06-.03.09 0 .06.07.06.17 0 .3Z" fill="#8A8786"/><path d="m12.29 10.12-.28-.02a5.32 5.32 0 0 0-.87-.08c-.66-.02-1.17-.01-1.53.01-.53.04-1.04.04-1.53 0a14.35 14.35 0 0 0-2.4.06v.04h-.1c-.06 0-.1-.02-.09-.09 0-.04.02-.1.05-.14a2 2 0 0 1 1.1-.67c.98-.28 1.8-.05 2.85.2.2.06.46.03.75-.08a.51.51 0 0 0 .15-.24c.02-.05.05-.07.1-.06.74.19 1.3.4 1.67.63.17.1.22.25.13.44Z" fill="#312927"/><path d="M8.79 10.68c.34-.02.67.03 1 .14.53.37 1.56.32 2.13.15.45-.13.65-.42.6-.88-.04-.31-.18-.54-.5-.65a10.06 10.06 0 0 0-.69-.25.08.08 0 0 1 0-.04V9.1c0-.03.01-.04.04-.04.38.08.72.25 1.02.53.16.16.25.35.27.56.1 1.31-1.46 1.25-2.32 1.01l-1.17-.3c-.15-.03-.27-.03-.34 0-.13.06-.17.2-.13.4 0 .03 0 .05-.04.05l-.12.01c-.03 0-.04-.01-.05-.04-.08-.3.02-.5.3-.6ZM5.38 9.81c-.03.03-.07.04-.11.01.1-.22.25-.36.43-.44.06-.02.08 0 .05.05a.91.91 0 0 1-.37.38Z" fill="#312927"/><path d="M5.27 9.82c.04.03.08.02.11 0 .06.05.11.08.16.08a.36.36 0 0 0-.05.14c0 .07.03.1.1.1l.1-.01c.29.04.5.06.63.06l2.28-.01 1.7.02c.57 0 1.14-.02 1.71-.1l.28.02c.02.13.02.29-.03.48-.79-.05-1.57-.03-2.34.08-.14.07-.19.12-.14.14a2.6 2.6 0 0 0-1-.14c-.1-.16-.25-.09-.43.2l-1.44-.02a9.02 9.02 0 0 1-2.3-.83l.06-.04c.05-.03.05-.06 0-.09a.34.34 0 0 0-.05-.02c.21-.07.43-.09.65-.06Z" fill="#AFABA9"/><path d="m4.62 9.88.05.02c.05.03.05.06 0 .1l-.06.03c-.2.04-.28.13-.26.27-.42-.1-.33-.24.27-.42Z" fill="#312927"/><path d="M4.6 10.03c.77.4 1.53.67 2.31.83l.21.12c-.18.14-.45.15-.81.03-.59-.2-1.18-.38-1.78-.57a.54.54 0 0 1-.18-.14c-.02-.14.07-.23.26-.27Z" fill="#E0E5EB"/><path d="M12.01 10.1c-.57.08-1.14.1-1.7.1l-1.71-.02-2.28.01a5.6 5.6 0 0 1-.64-.06 6.2 6.2 0 0 0 0-.05c.86-.08 1.66-.1 2.4-.05.5.04 1 .04 1.53 0 .36-.02.87-.03 1.53-.01.34 0 .63.04.87.08ZM12.26 10.6c-.66.43-1.44.45-2.34.08.77-.1 1.55-.13 2.34-.08Z" fill="#8A8786"/><path d="M8.35 10.89c-.05.13-.06.23 0 .31.09.15.05.2-.12.14l-1.11-.36-.2-.12 1.43.03Z" fill="#43403F"/><path d="M3.81 11.5c.35.39.83.72 1.46 1l1.26.6-2.1-.35a5.6 5.6 0 0 1-1.59-1.36l.97.1Z" fill="#AFABA9"/><path d="M8.37 11.68c.34.11.63.17.65.13.01-.05-.26-.17-.6-.28-.35-.11-.64-.17-.65-.12-.02.04.25.16.6.27Z" fill="#43403F"/><path d="m14.38 12.13-.78.6-1.94.32c.4-.2.81-.4 1.22-.55.05-.02.13-.07.23-.16.08-.06.16-.1.25-.11.34-.06.68-.09 1.02-.1Z" fill="#8A8786"/><path d="M13.6 12.72a8.91 8.91 0 0 1-9.17.03l2.1.35c1.7.41 3.4.4 5.13-.05l1.94-.33Z" fill="#43403F"/></svg>