<!-- by TradingView --><svg width="18" height="18" viewBox="0 0 18 18" xmlns="http://www.w3.org/2000/svg"><path fill="#F0F3FA" d="M0 0h18v18H0z"/><path d="m11.04 5.32-4.98 7.16c-.16.23.01.55.26.52l5.64-.83a.73.73 0 0 0 .48-.3l2.39-3.27a.9.9 0 0 0-.13-1.2l-2.63-2.23c-.32-.28-.78-.2-1.03.15Z" fill="#469DE2"/><path d="m5 6.71.53-.7c.17-.24.4-.39.66-.43L10 5 8.1 8C6.46 6.33 6.04 6.38 5.8 6.42c-.21.03-.65.22-.8.3Z" fill="#211816"/><path d="M3.75 8.67c.53-.75 1.5-.9 2.2-.31l.79.67c.3.25.35.7.12 1.03L5.7 11.71a.63.63 0 0 1-.94.14l-1.5-1.27a.79.79 0 0 1-.12-1.04l.61-.87Z" fill="#F0C041"/></svg>