<!-- by TradingView --><svg width="18" height="18" viewBox="0 0 18 18" xmlns="http://www.w3.org/2000/svg"><path fill="#F0F3FA" d="M0 0h18v18H0z"/><path d="m9.37 5 .47.2c.36.2.54.48.55.81 0 .24-.12.5-.36.8-.26.32-.56.63-.89.9l-.87 1.25c-.2.43-.32.83-.39 1.22-.02.15-.08.16-.16.03a5.5 5.5 0 0 1-.48-.93 3.5 3.5 0 0 1-.25-1.3c0-.77.26-1.48.74-2.12.31-.41.74-.7 1.27-.86h.37ZM6.2 6.96c.11.17.19.43.22.77.02.34.06.68.13 1.03.12.64.4 1.18.86 1.64.1.1.07.14-.08.11a3.94 3.94 0 0 1-2.4-1.31 3.2 3.2 0 0 1-.67-1.5c-.04-.27-.03-.48.05-.62.1-.21.28-.37.52-.49.49-.22 1.12-.02 1.37.37ZM11.3 9a9.34 9.34 0 0 1 1.64.06c.3.04.55.03.75-.04.89-.3 1.2-1.24.48-1.85a1.62 1.62 0 0 0-.77-.32c-.5-.1-.95-.08-1.34.04a5.7 5.7 0 0 0-3.8 3.2c-.1.2-.05.23.13.06A4.45 4.45 0 0 1 11.28 9Zm-7.76.67c.24-.14.51-.17.81-.1.66.49 1.38.85 2.16 1.08.26.08.52.1.76.1.04 0 .05.01.04.04l-.02.04c-.86.47-1.79.63-2.79.49-.34-.04-1.72-.57-1.46-1.04l.2-.34c.07-.1.17-.2.3-.27Zm7.72 1.4a2.89 2.89 0 0 0-2.45-.67c-.21.04-.23 0-.05-.1a5.25 5.25 0 0 1 5.37-.12c.74.5 1.24 1.3.56 2.02-.38.4-1 .55-1.55.35a2 2 0 0 1-.69-.42c-.39-.36-.78-.71-1.19-1.05Zm-4.26.24a3.86 3.86 0 0 1-1.9.49c-.24 0-.4.02-.52.07-.43.22-.54.63-.18.93.21.18.46.24.74.18 1.1-.24 1.83-.8 2.16-1.71.08-.22.03-.24-.13-.06l-.17.1Z" fill="url(#a)"/><defs><linearGradient id="a" x1="9" y1="5" x2="8.38" y2="12.84" gradientUnits="userSpaceOnUse"><stop stop-color="#E50B16"/><stop offset="1" stop-color="#F19546"/></linearGradient></defs></svg>