<!-- by TradingView --><svg width="18" height="18" viewBox="0 0 18 18" xmlns="http://www.w3.org/2000/svg"><path fill="#F0F3FA" d="M0 0h18v18H0z"/><path d="M7.82 11.82c.07-1.42 1.2-1.5 1.75-1.37-.82.12-1.05.87-1.07 1.24 0 1.4 1.4 1.85 2.09 1.9l.05.14c-.97-.04-2.89-.48-2.82-1.9Z" fill="url(#aicekemu2)"/><path d="M12.07 7.53a6.06 6.06 0 0 0-5.09-2.34c-.37-.36-.36-.66-.31-.76.21.3 1.02.28 1.15.28h.02c-.1-.88.54-.76.87-.6.68.28 2.13.88 2.48 1.08.34.2.76.17.92.13.09.28-.13.5-.24.57.7.58 2.13 2.14 2.13 3.75 0 3.1-2.28 4.03-3.42 4.1v-.15c2.12 0 3.42-3.45 1.5-6.06ZM8.23 6H5v3.5h6.93a2.71 2.71 0 0 0-.13-.5H6v-.5h5.58l-.32-.5H6v-.5h4.82a5.23 5.23 0 0 0-.58-.5H6v-.5h3.44A7.45 7.45 0 0 0 8.23 6ZM4.22 9.5h1.13c-.07.24-.21.9-.21 1.66 0 .95.96 2.23 3 2.23 2.02 0 2.14-1.56 2.14-1.78 0-.21-.23-1.04-.78-1.16.4.03 1.18.44 1.18 1.4 0 1.2-1.36 2.15-3.05 2.15-1.7 0-4.42-1.59-3.41-4.5Z" fill="#DF1D1E"/><defs><linearGradient id="aicekemu2" x1="8.45" y1="12.31" x2="10.87" y2="12.9" gradientUnits="userSpaceOnUse"><stop stop-color="#E78210"/><stop offset="1" stop-color="#DF1D1E"/></linearGradient></defs></svg>