<!-- by TradingView --><svg width="18" height="18" viewBox="0 0 18 18" xmlns="http://www.w3.org/2000/svg"><path fill="#E95412" d="M0 0h18v18H0z"/><path d="M10.37 8.38a.51.51 0 0 0-.23 0c-.34.06-.47-.07-.4-.41l.63-2.94a.74.74 0 0 1 .6-.57L13.6 4c.33-.05.46.08.4.41l-1.76 8.15c-.05.22-.25.43-.47.43H9c-.25 0-.35-.15-.3-.4.23-1.04.4-3.24 1.68-3.57.91-.23.9-.45-.01-.65ZM7.03 9.26h.95c.09 0 .16.09.14.17l-.73 3.45a.15.15 0 0 1-.14.12h-3.1c-.1 0-.17-.14-.15-.23l1.63-7.43c.01-.06.06-.1.12-.11l3.21-.45c.1-.02.19.08.17.18l-.76 3.12a.15.15 0 0 1-.06.09l-1.36.82c-.12.07-.06.27.08.27Z" fill="#FFFEFD"/></svg>