<!-- by TradingView --><svg width="18" height="18" viewBox="0 0 18 18" xmlns="http://www.w3.org/2000/svg"><path fill="#F0F3FA" d="M0 0h18v18H0z"/><path d="M9 9v4H8V9.37L4.88 6H6l3 3Z" fill="#005BAB"/><path d="M9.4 5.9c4.36-3.02 3.84-.53-.9 3.6l-.78-.74c3.5-2.88 4.68-4.66 1.7-2.83L9.4 5.9Z" fill="#005BAB"/><path d="M13.86 4.31c-.54-.76-2.4-.09-4.57 1.48l.03.02c1.67-1.17 3.17-1.75 3.5-1.3.45.63-.94 2.73-3.3 4.78C7.18 11.35 5 12.44 4.56 11.8c-.35-.5.48-1.72 1.86-3.4l-.03-.04c-1.72 1.85-2.76 3.62-2.25 4.33.65.9 3.35-.24 6.04-2.55 2.68-2.3 4.34-4.92 3.69-5.83Z" fill="#E50020"/></svg>