<!-- by TradingView --><svg width="18" height="18" viewBox="0 0 18 18" xmlns="http://www.w3.org/2000/svg"><path fill="#F0F3FA" d="M0 0h18v18H0z"/><path d="M8.99 7.86c.02-.12.04-.27.11-.38.4-.66.68-1.39 1.34-1.8l.87-.57c.16-.1.34-.13.53-.1.43.1 1.3.38 1.14.88-.11.36-.28.69-.68.9-.5.28-.97.7-1.74.93-.24.07-.41.16-.51.27-.3.3-.51.6-.62.9a.15.15 0 0 0 .01.11c.28.53.81 1.61.81 2.19 0 .63-.05 1.97-.73 2.36l-.77.42c-.24.13-.67-.19-.8-.36a1.57 1.57 0 0 1-.28-1.46c.3-.99.83-2.07 1-3.01a.2.2 0 0 0-.02-.11.22.22 0 0 0-.07-.1c-.33-.27-.83-.46-1.17-.67-1.02-.64-1.98-1.32-3.14-1.71-.11-.04-.19-.15-.23-.33-.18-.83.28-1.11 1.08-1.12.47-.01.96.11 1.46.37.75.4 1.18.62 1.52 1.12.29.42.47.93.77 1.3.06.08.1.07.12-.03Z" fill="#F61930"/><path d="M13.96 10.75c-.3.56-1.3.03-1.64-.2a9.21 9.21 0 0 0-2.3-1.2.08.08 0 0 1-.02-.04v-.04l.04-.04c.54-.38 1.49-.2 2.16-.07.37.08.63.24 1 .44.18.1.3.17.36.24.2.19.56.64.4.91ZM5.59 11.32c-.31.24-.62.55-1.05.67-.32.1-.49-.68-.53-1-.09-.67.59-1.32.98-1.46.9-.32 1.46-.49 1.69-.5.38-.04 1-.07 1.25.14l.05.08a.27.27 0 0 1 0 .21.2.2 0 0 1-.06.08c-.96.72-1.73 1.32-2.33 1.78Z" fill="#F74F96"/></svg>