<!-- by TradingView --><svg xmlns="http://www.w3.org/2000/svg" width="18" height="18" viewBox="0 0 18 18"><path fill="#F0F3FA" d="M0 0h18v18H0z"/><path d="M9 4.64c-.95 0-1.75.52-1.75 1.12 0 .61.8 1.13 1.75 1.13s1.75-.52 1.75-1.13c0-.6-.8-1.12-1.75-1.12zm0 2.89c-.62 0-1.2-.17-1.65-.48-.49-.34-.75-.8-.75-1.29s.26-.94.75-1.28A2.91 2.91 0 0 1 9 4c.62 0 1.2.17 1.65.48.49.34.75.8.75 1.28 0 .5-.26.95-.75 1.29-.44.3-1.03.48-1.65.48z" fill="#2C2C2C"/><path d="M7.16 12.6a.8.8 0 0 1-.25.59.88.88 0 0 1-1.22 0 .8.8 0 0 1-.25-.59.8.8 0 0 1 .25-.58.88.88 0 0 1 1.22 0 .8.8 0 0 1 .25.58z" fill="#FCCE0C"/><path d="M6.3 11.95c-.38 0-.69.3-.69.65 0 .37.31.66.69.66.38 0 .69-.3.69-.66 0-.36-.31-.65-.7-.65zm0 1.64c-.57 0-1.03-.44-1.03-.99 0-.54.46-.98 1.03-.98.57 0 1.03.44 1.03.98 0 .55-.46 1-1.03 1z" fill="#2C2C2C"/><path d="M12.65 12.6a.8.8 0 0 1-.25.59.88.88 0 0 1-1.21 0 .8.8 0 0 1-.25-.59c0-.21.09-.42.25-.58a.88.88 0 0 1 1.21 0 .8.8 0 0 1 .25.58z" fill="#FCCE0C"/><path d="M11.8 11.95c-.38 0-.7.3-.7.65 0 .37.32.66.7.66.37 0 .68-.3.68-.66 0-.36-.3-.65-.69-.65zm0 1.64c-.57 0-1.04-.44-1.04-.99 0-.54.47-.98 1.03-.98.57 0 1.03.44 1.03.98 0 .55-.46 1-1.03 1z" fill="#2C2C2C"/><path d="M13.13 13H4.9c-.44 0-.86-.18-1.17-.5a1.74 1.74 0 0 1-.49-1.2V6.91c0-.45.18-.89.5-1.2.3-.33.72-.5 1.16-.5h8.23c.44 0 .86.17 1.17.5.3.31.48.75.49 1.2v4.37c0 .45-.18.89-.5 1.2-.3.33-.72.5-1.16.51z" fill="#F79922"/><path d="M4.88 5.43a1.45 1.45 0 0 0-1.45 1.44v4.26a1.45 1.45 0 0 0 1.45 1.44h8.24a1.45 1.45 0 0 0 1.45-1.44V6.87a1.45 1.45 0 0 0-1.45-1.44H4.88zM13.12 13H4.88A1.88 1.88 0 0 1 3 11.13V6.87A1.88 1.88 0 0 1 4.88 5h8.24A1.88 1.88 0 0 1 15 6.87v4.26A1.88 1.88 0 0 1 13.12 13z" fill="#2C2C2C"/><path d="M5.66 8.53a.77.77 0 0 0-.56.22.76.76 0 0 0-.22.57c0 .24.07.43.22.58.15.14.33.22.56.22a.78.78 0 0 0 .77-.8.75.75 0 0 0-.77-.79zm-.86-.41v.15c.12-.11.37-.2.53-.27a1.28 1.28 0 0 1 1.43.3c.25.27.38.61.38 1.03 0 .4-.13.73-.4 1a1.3 1.3 0 0 1-1.41.32c-.14-.05-.4-.14-.53-.27v1.27h-.6V8.12h.6zm4.2.42a.75.75 0 0 0-.78.78c0 .23.07.42.22.57.14.14.33.22.55.22a.76.76 0 0 0 .78-.78.76.76 0 0 0-.22-.57.76.76 0 0 0-.56-.22zm-.02-.63c.27 0 .52.06.76.19.23.12.42.3.55.52a1.35 1.35 0 0 1 0 1.41c-.13.22-.32.4-.54.52-.24.12-.5.19-.76.18-.41 0-.76-.13-1.05-.4-.29-.28-.43-.61-.43-1 0-.43.16-.78.49-1.06.28-.24.61-.36.98-.36zm3.36.62c-.22 0-.4.07-.55.22a.77.77 0 0 0-.22.57c0 .23.07.42.22.57.15.15.33.23.55.23a.76.76 0 0 0 .78-.8.76.76 0 0 0-.22-.57.77.77 0 0 0-.56-.22zm.86-1.59h.6v3.82h-.6v-.38c-.14.13-.4.22-.53.27-.14.06-.3.08-.46.08a1.3 1.3 0 0 1-.95-.4c-.27-.27-.4-.6-.4-1 0-.42.13-.76.38-1.02.26-.27.58-.4.95-.4.17 0 .33.03.48.09.15.06.4.15.53.27V6.94z" fill="#FEFEFE"/></svg>