<!-- by TradingView --><svg width="18" height="18" viewBox="0 0 18 18" xmlns="http://www.w3.org/2000/svg"><path fill="#F0F3FA" d="M0 0h18v18H0z"/><path d="M5.95 8.13c-.09-.09-.07-.3-.05-.4.12.13.28.06.35 0a.6.6 0 0 1-.55-.43h.47c0-.02-.03-.1-.16-.17-.14-.08-.22-.38-.25-.53.13.1.5.3 1 .33.61.02.73-.1 1.02-.1.3 0 .26 0 .54.47.22.37.55.48.7.49-.07-.19-.26-.57-.44-.64-.19-.06-.25-.14-.26-.17l.1-.14A.56.56 0 0 1 8 6.38h.3c-.23-.03-.35-.29-.38-.42h.35a.42.42 0 0 1-.14-.54c.71.57 1.57.38 2.04.38.38 0 .48.25.48.37 0 .57-.87.91-.87 1.25 0 .33.12.49.61.53.4.03.79.36.93.53-.34 0-1.07 0-1.23.05-.2.05-.31.22-.22.34.1.12.34.07.46.06.12-.01.06-.08.26-.12.2-.04.12.18.02.24-.08.05-.12.16-.13.2a.9.9 0 0 0-.2-.17c-.09-.06-.13 0-.14.05l-.05.34c-.18-.07-.17-.21-.2-.34-.02-.1-.32-.22-.47-.26l.36.33a.94.94 0 0 1-.47.1c-.29 0-.45-.57-.88-.04-.35.42-1.23.48-1.63.46l1.33-.85c-.03-.02-.11-.03-.24 0s-.13-.12-.12-.2c-.04.02-.14.05-.25.06-.1.01-.07-.13-.04-.2l-.3.03c-.03 0-.09-.14-.11-.2-.39.34-.64.22-.72.12l.26-.24c-.12.02-.57 0-.67-.1Z" fill="#27562A"/><path fill-rule="evenodd" d="M8.85 5c2.38-.03 7.15.71 7.15 3.93 0 1.7-1.83 2.88-3.75 3.51l-.05.03-.01-.01A10.72 10.72 0 0 1 9 13h-.06C6.51 13 2 12.2 2 8.93 2 7.8 3.99 5 8.85 5ZM14 11.41c-.57.36-1.23.66-1.9.88l-.24-.14a4.9 4.9 0 0 0 1.46-1.25c.31.18.53.36.68.51Zm-.91-.64c-.36.54-.86.97-1.4 1.3l-.46-.15a7.96 7.96 0 0 0-2.09-.26v-.37H9v.37h-.2a11.8 11.8 0 0 0-2.89.39c-.5-.35-.94-.8-1.23-1.42l.27-.1A13.9 13.9 0 0 1 9 9.99v.18h.15v-.18a9.67 9.67 0 0 1 3.95.8Zm-3.95-.94c1.51 0 2.66.25 3.48.57l.55.24c.27-.43.44-.92.48-1.47H10.9L11 9h2.67v-.07a3.7 3.7 0 0 0-.33-1.58 8.57 8.57 0 0 1-2.38.72 1.59 1.59 0 0 0-.24-.12 8.63 8.63 0 0 0 2.55-.74 3.48 3.48 0 0 0-1.3-1.34 6.22 6.22 0 0 1-1.24.37v-.07a6.07 6.07 0 0 0 1.16-.35c-.48-.28-1.01-.46-1.52-.58-.43-.04-.85-.07-1.22-.07v.56c-.05 0-.1 0-.15-.02v-.54a10.46 10.46 0 0 0-1.32.06c-.64.16-1.18.43-1.63.76l.38.1a10.43 10.43 0 0 0 1.6.22h-.1v.05a10.42 10.42 0 0 1-1.95-.31c-.54.43-.94.95-1.21 1.45a8.4 8.4 0 0 0 1.05.27l-.01.16a10.36 10.36 0 0 1-1.11-.3A3.15 3.15 0 0 0 4.33 9H7.7l-.26.17h-3.1c.02.5.12.93.28 1.31l.29-.1A14.05 14.05 0 0 1 9 9.84v-.6h.01l.07.06.07.04v.5ZM9 11.73a12.32 12.32 0 0 0-3 .37c.5.33 1.08.54 1.63.66.5.05.96.08 1.37.07v-1.1Zm.15 1.1c.3 0 .62-.03.97-.07.48-.13 1-.34 1.5-.63l-.4-.14a7.85 7.85 0 0 0-2.07-.26v1.1Zm-4.75-2.1c.31.6.77 1.05 1.3 1.39-.15.05-.27.1-.36.16a5.74 5.74 0 0 1-1.92-1.03c.2-.15.52-.34.98-.52Zm1.38 1.44-.34.14c.45.15.92.26 1.38.34-.36-.12-.7-.28-1.04-.48Zm6.23.15a2.1 2.1 0 0 0-.22-.12c-.3.17-.6.3-.91.42.37-.07.75-.17 1.13-.3Zm3.66-3.38V9H14v-.07c0-.68-.15-1.25-.4-1.72a3 3 0 0 0 .8-.64 2.85 2.85 0 0 1 1.27 2.37Zm-1.4-2.46a6.7 6.7 0 0 0-1.9-.85l-.23.15a3.7 3.7 0 0 1 1.38 1.3c.36-.22.6-.43.75-.6Zm-3.08-1.12c.36.06.72.14 1.08.24l-.21.13a5.52 5.52 0 0 0-.87-.37Zm-4.23-.03c-.42.16-.8.36-1.12.6a2.47 2.47 0 0 1-.4-.17 8.2 8.2 0 0 1 1.52-.43Zm-3.43 1.6A6.26 6.26 0 0 1 5.35 5.8c.09.05.23.12.42.18-.56.42-.98.93-1.27 1.43a4.21 4.21 0 0 1-.97-.49Zm-.12.1c-.74.7-1.08 1.45-1.08 1.9 0 .94.38 1.66.98 2.22.2-.16.54-.37 1.03-.56-.19-.4-.3-.88-.33-1.42H2.35V9H4v-.07c0-.35.13-.85.42-1.39-.47-.18-.8-.36-1-.51Zm10.72 4.3c.83-.57 1.43-1.29 1.52-2.16H14a3.2 3.2 0 0 1-.57 1.6c.32.2.56.39.71.56Z" fill="#17548E"/><path opacity=".7" d="m6.18 11.79-.35-1.36c.73-.16 2.42-.33 3.27-.33.85 0 2.29.24 2.89.4l-.55 1.29a12.5 12.5 0 0 0-5.26 0Z" fill="#DE2827"/></svg>