<!-- by TradingView --><svg width="18" height="18" viewBox="0 0 18 18" xmlns="http://www.w3.org/2000/svg"><path fill="#F0F3FA" d="M0 0h18v18H0z"/><path d="M11.6 12h.4v-1h-.4v-1h-1v1H9.7v1h.89v1h1v-1Zm1.4-1.2a2.06 2.06 0 0 0 1.1-1.86C14.1 7.76 13.18 7 12 7a2.16 2.16 0 0 0-1.27.41C10.8 6.21 9.8 5 8.6 5c-1.17 0-2.2.93-2.2 2.1 0 .47.16 1.1.42 1.45H6.8C6.5 8.2 6.1 8 5.62 8c-.9 0-1.52.5-1.52 1.4 0 .9.62 1.6 1.52 1.6H9v1H5.55A2.53 2.53 0 0 1 3.1 9.45C3.1 8.1 4.2 7 5.55 7a3 3 0 0 1 3-3c1.27 0 2.36.95 2.8 2.07.2-.05.42-.07.64-.07 1.72 0 3.1 1.23 3.1 2.94 0 1.36-.87 2.51-2.09 2.93V10.8Z" fill="#33B0DB"/></svg>