<!-- by TradingView --><svg width="18" height="18" viewBox="0 0 18 18" xmlns="http://www.w3.org/2000/svg"><path fill="#F0F3FA" d="M0 0h18v18H0z"/><path d="M15 7v.06l-.06.57c-.03.3-.2.36-.44.36H14a.17.17 0 0 0-.12.05.21.21 0 0 0-.07.12l-.24 1.33c-.04.27-.05.49.26.5.36 0 .53.03.79-.18a.05.05 0 0 1 .04-.01c.08 0 .12.07.1.16l-.12.57a.65.65 0 0 1-.27.4.52.52 0 0 1-.29.07h-1.44a.87.87 0 0 1-.23-.05c-.43-.14-.44-.6-.4-1.02a13.3 13.3 0 0 1 .54-2.49c.19-.36.56-.44.92-.44H15ZM3 7.16V7h1.41c.16 0 .25.14.3.28a168.28 168.28 0 0 1 .37.88h.01l.54-.87v-.03a.15.15 0 0 0-.05-.07.07.07 0 0 1-.03-.05c-.01-.08.14-.14.14-.14h1.09c.09 0 .22.12.22.23a.2.2 0 0 1-.03.1L5.64 9.42c-.06.1-.1.2-.13.31l-.18.8c-.03.15.03.2.12.29.02.01.02.03.02.05 0 .09-.07.13-.16.13a314.56 314.56 0 0 1-1.58-.02.25.25 0 0 1-.08-.07.21.21 0 0 1-.05-.2l.3-1.11V9.5L3.22 7.4c-.04-.12-.11-.17-.22-.24Z" fill="#0068B3"/><path d="m10.2 9.12-.84 1.85c-.01.02-.03.03-.05.03H8.03c-.02 0-.03-.01-.03-.03V9.25c0-.07-.07-.07-.09 0l-.57 1.4v.05c0 .01 0 .03.02.04l.08.07.02.05c.01.08-.05.14-.15.14h-.99c-.11 0-.2-.02-.25-.06-.07-.07-.1-.16-.04-.28l1.3-3.23c.03-.1 0-.16-.05-.25a.07.07 0 0 1 0-.05c0-.09.06-.13.13-.13h1.46c.24 0 .3.13.33.33a111.98 111.98 0 0 1 .1.9l.52-.92c.01-.02 0-.05-.01-.07l-.04-.03a.08.08 0 0 1-.03-.06c0-.1.07-.15.18-.15h1.48c.24 0 .3.13.31.34l.08 3.23c0 .13.09.17.18.24l.03.04c.02.11-.06.15-.17.15h-1.37a.24.24 0 0 1-.17-.07.2.2 0 0 1-.06-.15V9.13c0-.03-.01-.03-.02 0Z" fill="#0068B3"/></svg>