<!-- by TradingView --><svg width="18" height="18" viewBox="0 0 18 18" xmlns="http://www.w3.org/2000/svg"><path fill="#F0F3FA" d="M0 0h18v18H0z"/><path fill-rule="evenodd" d="M3.02 7.77a8.91 8.91 0 0 0 1.67 4.2 5.11 5.11 0 0 0 3.17 1.97c1.1.15 2.62.03 3.6-.53a7.53 7.53 0 0 0 3.2-3.54c.22-.5.33-1.06.34-1.7 0-.33-.06-.65-.2-.95-.43-.87-1.3-1.6-2.6-2.22-1.1-.51-2.25-.83-3.45-.96a9.14 9.14 0 0 0-2.87.2c-.76.16-1.4.5-1.93 1.03a3 3 0 0 0-.93 2.5Zm4.06 3.96c.57.5 1.55.68 2.3.5a5.96 5.96 0 0 0 1.7-.78c.9-.7 1.84-1.94 1.87-3.07.01-.34-.15-.67-.48-1a4.36 4.36 0 0 0-1.16-.8 8.15 8.15 0 0 0-4.35-.77c-1.03.09-1.77.84-1.78 1.79a5.53 5.53 0 0 0 1.9 4.13Z" fill="#FF6E01"/></svg>