<!-- by TradingView --><svg width="18" height="18" viewBox="0 0 18 18" xmlns="http://www.w3.org/2000/svg"><path fill="#F0F3FA" d="M0 0h18v18H0z"/><path d="M7.21 6.4c0-1.32 1.05-2.15 1.58-2.4A5.1 5.1 0 0 0 4 8.91c0 2.24 1.47 2.93 2.38 2.93.92 0 2.23-.58 2.23-2.18S7.2 8.04 7.2 6.39Z" fill="url(#a0dtl05va)"/><path d="M12.18 8.6c1.15.66 1.35 1.98 1.3 2.56a5.07 5.07 0 0 0-1.88-6.58c-1.95-1.12-3.28-.2-3.74.59-.46.78-.6 2.2.78 3 1.4.8 2.11-.4 3.54.43Z" fill="url(#b0dtl05va)"/><path d="M7.72 11.88c-1.14.66-2.4.17-2.87-.16a5.13 5.13 0 0 0 6.67 1.67c1.95-1.12 1.81-2.73 1.35-3.52-.45-.78-1.61-1.62-3-.82-1.4.8-.72 2.01-2.15 2.83Z" fill="url(#c0dtl05va)"/><defs><linearGradient id="a0dtl05va" x1="9.3" y1="5.32" x2="6.42" y2="11.85" gradientUnits="userSpaceOnUse"><stop stop-color="#FEC718"/><stop offset=".63" stop-color="#F9EC26"/><stop offset="1" stop-color="#FCD729"/></linearGradient><linearGradient id="b0dtl05va" x1="12.08" y1="10.94" x2="7.88" y2="5.16" gradientUnits="userSpaceOnUse"><stop stop-color="#FEC718"/><stop offset=".63" stop-color="#F9EC26"/><stop offset="1" stop-color="#FCD729"/></linearGradient><linearGradient id="c0dtl05va" x1="5.74" y1="10.62" x2="12.87" y2="9.86" gradientUnits="userSpaceOnUse"><stop stop-color="#FEC718"/><stop offset=".63" stop-color="#F9EC26"/><stop offset="1" stop-color="#FCD729"/></linearGradient></defs></svg>