<!-- by TradingView --><svg xmlns="http://www.w3.org/2000/svg" width="18" height="18"><path fill="#4A086C" d="M0 0h18v18H0z"/><path d="M13.22 6.44a.8.8 0 01-.8.8.8.8 0 01-.82-.8.8.8 0 01.81-.79.8.8 0 01.81.8zM11.27 9.5c0 .64-.5 1.17-1.13 1.17-.44 0-.82-.26-1.01-.63l-.94.96c.44.6 1.15 1 1.95 1a2.47 2.47 0 002.43-2.5c0-1.38-1.09-2.5-2.43-2.5-.94 0-1.75.48-2.16 1.27h2.16c.63 0 1.13.59 1.13 1.23zm2.92-2.9l.01.16a1.45 1.45 0 01-1.65 1.42 2.33 2.33 0 01.24 2.26c.53.12 1.08.66 1.08 1.56h1.3c0-1.2-.67-2.23-1.63-2.65A2.7 2.7 0 0015.5 6.6h-1.3z" fill="#FD7400"/><path d="M2.5 7l1.07 2.22h.4L2.64 12H4.1l1.8-3.73h1.16L5.26 12h1.46l1.8-3.73h1.13L10.3 7H5.1l-.6 1.17L3.92 7H2.5z" fill="#fff"/></svg>