<!-- by TradingView --><svg width="18" height="18" viewBox="0 0 18 18" xmlns="http://www.w3.org/2000/svg"><path fill="#F0F3FA" d="M0 0h18v18H0z"/><path d="M13.93 8.22c-.08.12-.14.21-.19.26-.2.2-.41.39-.65.54a10.53 10.53 0 0 1-2.62 1.07c.15-.3.31-.58.5-.85A2.64 2.64 0 0 1 12 8.32a.4.4 0 0 0 .11-.14c.04-.1.03-.19-.03-.29-.12-.21-.4-.12-.56-.01a5.18 5.18 0 0 0-.84.64 11.16 11.16 0 0 1-3.1 1.41c-.1.02-.22.03-.36.03-.12 0-.27-.05-.3-.18-.02-.06 0-.13.03-.22.04-.08.1-.16.18-.24a7.77 7.77 0 0 1 .74-.55c.37-.24.89-.54 1.54-.91a10.18 10.18 0 0 0 1.09-.75c.25-.23.46-.48.62-.77.06-.1.1-.2.12-.28a.9.9 0 0 0-.26-.9c-.1-.1-.2-.18-.33-.24a2.42 2.42 0 0 0-.85-.25l-.22-.02a5.73 5.73 0 0 0-1.1.06 7.2 7.2 0 0 0-2.53.95 5.16 5.16 0 0 0-1.53 1.36 5.08 5.08 0 0 1 4.34-3.01 4.96 4.96 0 0 1 5.18 4.21Z" fill="#22A9FF"/><path d="m13.93 8.22.02.02.04.41c-.2.28-.42.53-.68.73a5.59 5.59 0 0 1-1.46.86 9.57 9.57 0 0 1-1.74.58l-.11.23a16.3 16.3 0 0 1-1.29 1.98c-.12.13-.25.23-.39.3-.2.12-.4.18-.62.17a.72.72 0 0 1-.59-.28 1 1 0 0 1-.16-.75c.05-.28.2-.54.42-.8a3.3 3.3 0 0 1 1.08-.82 15.14 15.14 0 0 1 1.23-.56c.16-.38.35-.72.56-1.04.03-.04.03-.05-.02-.02-.07.06-.15.1-.23.15-.48.28-.97.52-1.46.71l-.26.1-.2.06a34.21 34.21 0 0 1-.6.14c-.15.03-.32.04-.5.04-.31 0-.64-.12-.8-.4-.08-.17-.05-.4.02-.56.08-.17.2-.33.34-.49a4.25 4.25 0 0 1 1.48-.96l.85-.41a9.2 9.2 0 0 0 1.3-.8c.2-.15.4-.33.54-.54.15-.24.25-.6.02-.8a.8.8 0 0 0-.28-.18c-.2-.08-.42-.12-.65-.13a4.55 4.55 0 0 0-1.58.2 7.88 7.88 0 0 1-.39.1 8.5 8.5 0 0 0-2.4 1.25 4.8 4.8 0 0 0-1.36 1.58 4.54 4.54 0 0 1 .3-1.14 5.16 5.16 0 0 1 1.57-1.5 7.2 7.2 0 0 1 3.05-1h.59l.22.02c.31.03.6.12.85.25.13.06.24.14.33.24a.9.9 0 0 1 .26.9c-.02.09-.06.18-.12.28-.16.29-.37.54-.62.77-.16.14-.33.27-.5.39l-.59.36a42.65 42.65 0 0 0-1.98 1.2 2.5 2.5 0 0 0-.3.26.88.88 0 0 0-.18.24c-.04.09-.05.16-.04.22.04.13.2.18.31.18.14 0 .26 0 .35-.03l.3-.08a11.16 11.16 0 0 0 2.81-1.33l.32-.27c.12-.1.3-.23.52-.37.17-.1.44-.2.57.01.05.1.06.2.02.29a.4.4 0 0 1-.11.14l-.16.1c-.35.2-.62.49-.85.82a5.83 5.83 0 0 0-.5.86 10.53 10.53 0 0 0 2.61-1.08c.24-.15.46-.33.65-.54l.2-.26Z" fill="#FFEA00"/><path d="M13.99 8.65a4.96 4.96 0 0 1-3.56 5.14l-.25.07-.25.06a5.1 5.1 0 0 1-2.25-.1l-.04-.01a4.63 4.63 0 0 1-1.44-.67 5.02 5.02 0 0 1-1.92-2.5l-.1-.3a41.75 41.75 0 0 1-.13-.62l-.01-.17a4.12 4.12 0 0 1 .02-1.26 4.8 4.8 0 0 1 1.36-1.58 7.18 7.18 0 0 1 2.6-1.3l.19-.06a3.57 3.57 0 0 1 .67-.14c.29-.04.59-.06.9-.05.24.01.46.05.66.13.1.04.2.1.28.18.23.2.13.56-.02.8-.14.21-.33.4-.53.55l-.24.17a9.2 9.2 0 0 1-1.07.62 44.4 44.4 0 0 1-1.32.64c-.37.2-.71.44-1 .73-.16.16-.27.32-.35.49-.07.16-.1.39-.01.55.15.29.48.4.8.4a2.54 2.54 0 0 0 .68-.06l.41-.11.2-.07.26-.09a11.17 11.17 0 0 0 1.71-.84 6.32 6.32 0 0 0-.58 1.05c-.43.17-.83.36-1.21.55a3.94 3.94 0 0 0-1.08.82c-.22.26-.37.52-.42.8a1 1 0 0 0 .16.75c.14.18.34.27.6.28.2 0 .41-.05.61-.16.14-.08.27-.18.4-.3l.3-.4a16.31 16.31 0 0 0 1.11-1.83 3.92 3.92 0 0 1 .42-.11l.25-.08a9.57 9.57 0 0 0 1.85-.79c.24-.14.46-.29.66-.45.26-.2.48-.45.68-.73Z" fill="#036DD0"/><path d="M7.96 13.07a.51.51 0 0 1-.23.06.3.3 0 0 1-.17-.07c-.14-.1-.13-.31-.1-.47.04-.13.08-.24.14-.33.08-.13.19-.24.31-.36a4.89 4.89 0 0 1 1.45-.86 13.95 13.95 0 0 1-.8 1.5 2 2 0 0 1-.27.33 1.22 1.22 0 0 1-.3.2h-.03Z" fill="#036DD0"/></svg>