<!-- by TradingView --><svg width="18" height="18" viewBox="0 0 18 18" xmlns="http://www.w3.org/2000/svg"><path fill="#F0F3FA" d="M0 0h18v18H0z"/><path fill-rule="evenodd" d="M9.2 4.87V3.61c0-.16-.04-.22-.2-.22s-.2.06-.2.22v1.26l-.34.03a4.1 4.1 0 0 0-1.94.8l-.21.15-.88-.87a.3.3 0 0 0-.42 0 .3.3 0 0 0 0 .42l.87.88-.16.21a4.28 4.28 0 0 0-.86 1.97l-.03.35H3.59c-.16 0-.24.02-.24.19s.13.2.3.2h1.24l.03.34c.1.71.4 1.4.81 1.95l.17.22-.9.89a.3.3 0 0 0 0 .42c.13.12.31.12.43 0l.9-.9.21.17c.55.4 1.21.68 1.92.77l.35.03v1.3c0 .16.04.22.2.22.17 0 .18-.06.18-.22v-1.3l.35-.04c.7-.1 1.38-.38 1.92-.8l.22-.16.93.93c.11.12.3.12.42 0a.3.3 0 0 0 0-.42l-.93-.93.16-.22c.4-.54.68-1.21.78-1.91l.04-.35h1.31c.17 0 .22-.02.22-.19s-.05-.2-.22-.2h-1.3l-.05-.34a4.2 4.2 0 0 0-.76-1.93l-.16-.21.9-.92a.3.3 0 0 0 0-.42.3.3 0 0 0-.41 0l-.91.9-.22-.16a4.24 4.24 0 0 0-1.94-.8l-.35-.05Zm.38-.27v-.99C9.58 3.27 9.34 3 9 3c-.34 0-.58.27-.58.61v.98c-.77.1-1.5.4-2.09.85l-.68-.68a.6.6 0 0 0-.86 0 .61.61 0 0 0 0 .86l.68.68a4.6 4.6 0 0 0-.91 2.12h-.97c-.34 0-.59.24-.59.58 0 .34.31.58.65.58h.97c.1.77.41 1.51.87 2.1l-.7.7a.61.61 0 0 0 0 .86.6.6 0 0 0 .86 0l.7-.7c.6.43 1.3.73 2.07.83v1.02c0 .34.26.61.6.61.34 0 .56-.27.56-.61v-1.03c.75-.11 1.5-.41 2.07-.86l.74.74a.6.6 0 0 0 .86 0 .61.61 0 0 0 0-.86l-.74-.74c.43-.58.73-1.3.84-2.06h1.04c.34 0 .61-.24.61-.58 0-.34-.27-.58-.6-.58h-1.05c-.1-.76-.4-1.49-.83-2.07l.73-.73a.61.61 0 0 0 0-.86.6.6 0 0 0-.86 0l-.72.72a4.55 4.55 0 0 0-2.09-.88Zm3.1 4.38a3.67 3.67 0 1 1-7.35.05 3.67 3.67 0 0 1 7.35-.05Zm-.39 0c0 1.87-1.42 3.31-3.28 3.31a3.26 3.26 0 0 1-3.3-3.3 3.23 3.23 0 0 1 3.3-3.28 3.2 3.2 0 0 1 3.28 3.27Z" fill="#DB843D"/><path d="m16 10.8-2.65-.1.48-.33.43-2.31-.99 1.91-.84-2.14.34 2.78.7.39-2.47-.26.38-.26.25-2.92-.5-.26 2.08-.3.28 1.42.27-1.27 2.01.14-.6.25.24 2.87.59.4ZM11 11l-.34-.4-3.56.2.49-.34.13-2.97L7 7.28 9.57 7l-.67.49.44 2.39.94-.47.3-.7L11 11ZM7 7.36l-.52.29-1.49 1.83.24 1.22.6.3-2.92-.18.57-.3.29-1.16L2.5 7.38 2 7.21 4.48 7l-.42.3.63 1.58.55-1.38-.42-.23 2.18.1Z" fill="#2B3282"/></svg>