<!-- by TradingView --><svg width="18" height="18" viewBox="0 0 18 18" xmlns="http://www.w3.org/2000/svg"><path fill="#F0F3FA" d="M0 0h18v18H0z"/><path d="M9.16 11.83c-2.46 0-4.48.34-5.19.5l1.14-1.83-.65.17 1.46-2-.65.33 1.3-2.33.8 1 .82-.84h-.97L9.16 4l1.95 2.83h-.81l.65.84.8-1 1.47 2.16-.49-.16 1.13 2-.64-.34 1.46 2.34c-.82-.28-3.05-.84-5.52-.84Z" fill="#007330"/><path d="M12.89 12.21c-.91-.18-2.04-.34-3.24-.37l.49-1h-.5l.66-1.17-.16-.34L11.1 8l.97 1.33-.16.34.65 1.16h-.49l.8 1.38Zm-7.28-.15c.91-.12 2.08-.22 3.39-.23l-.49-1H9l-.81-1.16.32-.34L7.54 8l-.97 1.33.32.34-.8 1.16h.32l-.8 1.23Z" fill="#009432"/><path d="M3.81 14 3 13.33c3.4-1.5 9.73-1.16 12 0-7.14-1.2-10.43-.05-11.19.67Z" fill="#007330"/></svg>