<!-- by TradingView --><svg width="18" height="18" viewBox="0 0 18 18" xmlns="http://www.w3.org/2000/svg"><path fill="#F0F3FA" d="M0 0h18v18H0z"/><path fill-rule="evenodd" d="M13.03 10.58c-.48 1.86-2.44 2.99-4.2 3.09a5.06 5.06 0 0 1-3.57-1.41c-.01-.01-.03.01-.02.02A4.99 4.99 0 0 0 8.89 14a5.08 5.08 0 0 0 4.9-3.96c.01-.11.08-.2.17-.28l1-.73c.07-.05.05-.16-.03-.2l-.91-.32a.25.25 0 0 1-.2-.22A4.8 4.8 0 0 0 8.89 4 4.85 4.85 0 0 0 4 8.74c.02 2.18 1.92 3.7 3.97 3.7 2.01 0 3.3-1.28 4.96-2.09.05-.02.12.17.1.23Zm-4.2-3.96V6.6a.05.05 0 0 1 .06-.01c1.15.4 2.27.89 3.41 1.3.17.06.36.13.55.23.04.02.21.03.17-.06A4.77 4.77 0 0 0 8.9 5.25c-1.37 0-2.27.98-2.49 2.3-.18 1.09.29 2.15 1.44 2.3 1.37.19 2.5-1.49 1.58-2.67-.15-.19-.35-.34-.54-.48l-.05-.04a.04.04 0 0 1 0-.04Z" fill="#A12636"/></svg>