<!-- by TradingView --><svg width="18" height="18" viewBox="0 0 18 18" fill="none" xmlns="http://www.w3.org/2000/svg">
<rect width="18" height="18" fill="#104083"/>
<path fill-rule="evenodd" clip-rule="evenodd" d="M15 9C15 10.0929 14.7078 11.1175 14.1973 12H13.8882H13.0004H4.99963C5.91184 13.2144 7.36418 14 9 14C10.1258 14 11.1647 13.6279 12.0005 13H13.4722C12.3736 14.2275 10.777 15 9 15C6.38756 15 4.16508 13.3304 3.34141 11H4.11182H4.41604H8.36345C6.7603 9.9785 5.06103 9.40059 4.00219 9.14945C4.01072 9.43986 4.044 9.72406 4.10002 10H3.08296C3.0284 9.67479 3 9.34071 3 9C3 5.68629 5.68629 3 9 3C12.3137 3 15 5.68629 15 9ZM13.9981 9.13778C12.054 9.56383 10.5164 10.4782 9.73103 11H13.584C13.8342 10.4272 13.9803 9.79849 13.9981 9.13778ZM9 4C11.5104 4 13.5887 5.8501 13.9458 8.26121C13.1062 8.46257 11.883 8.83461 10.6649 9.39521L10.8114 9.24669L10.7838 9.07307C10.95 8.97786 11.0881 8.8389 11.1821 8.67188L11.3538 8.69877L11.8076 8.24493L11.3171 8.19543C11.3177 8.18112 11.318 8.16675 11.318 8.1523C11.318 7.95168 11.2622 7.76407 11.1654 7.6041L10.864 7.90871C10.8986 7.9952 10.9144 8.07802 10.9171 8.15506L10.6011 8.12317L10.4273 7.95189L10.9918 7.38732C10.8013 7.20444 10.5426 7.09204 10.2577 7.09204C10.0571 7.09204 9.86948 7.14775 9.70952 7.24455L9.35317 6.89336L11.2534 4.97359L10.8907 4.60071L10.4769 5.01956L9.83843 4.36573L9.57281 4.60071L10.2164 5.28008L9.9457 5.54569L9.57281 5.16259L9.3123 5.41799L9.67497 5.8062L8.97006 6.49579L8.26515 5.8062L8.64826 5.41799L8.38264 5.16259L8.01486 5.54569L7.73392 5.28008L8.38264 4.60071L8.13745 4.36573L7.47851 5.01956L7.05965 4.60071L6.69187 4.97359L8.60379 6.89336L8.59589 6.90192L8.23172 6.84969C8.13603 6.83596 8.03941 6.86759 7.97035 6.93524L6.70943 8.19448L6.75515 9.0802L7.64087 9.13163L8.96005 7.68562L8.90086 7.33439L8.8967 7.31572L8.97006 7.26531L9.33689 7.62629C9.24815 7.78131 9.19742 7.96088 9.19742 8.1523C9.19742 8.73787 9.67212 9.21257 10.2577 9.21257C10.2887 9.21257 10.3194 9.21124 10.3497 9.20863L10.3946 9.52282C9.90494 9.76 9.42078 10.028 8.96756 10.328C8.21134 9.81565 6.25539 8.75107 4.05485 8.25687C4.41379 5.84788 6.4911 4 9 4ZM9.78761 8.59155L10.0506 8.32859L10.2524 8.52719L10.291 8.79756C10.0693 8.79327 9.88176 8.68026 9.78761 8.59155Z" fill="white"/>
</svg>
