<!-- by TradingView --><svg width="18" height="18" viewBox="0 0 18 18" xmlns="http://www.w3.org/2000/svg"><path fill="#F0F3FA" d="M0 0h18v18H0z"/><path d="M7.53 8.17c.01.02.02.02.03.01.02 0 .02-.02.02-.03V7c0-.06.08-.1.13-.1l1.42-.27c.04 0 .08 0 .11.04L12 9.97c.02.03.01.07.01.03L12 5.43c0-.05.09-.09.13-.1l1.8-.33c.04 0 .07.02.07.08v7.88c0 .03-.01.04-.03.04h-1.66a.15.15 0 0 1-.11-.06l-3.1-3.4c-.06-.08-.1-.06-.1.03v2.35c0 .06.01.08-.04.08H7.73c-.09 0-.15-.05-.15-.15v-.87c0-.05.03-.1.06-.13.44-.6.65-1.18.44-1.76-.03-.07-.05-.07-.07 0-.03.11-.04.24-.05.38a1.8 1.8 0 0 1-.58 1.2c-.2.18-.45.3-.77.38-.64.13-1.28.08-1.91-.17-.1-.05-.17-.14-.18-.27-.02-.14.02-.24.12-.32.14-.1.24-.24.31-.4a.76.76 0 0 0 .03-.53c-.03-.12-.06-.12-.09 0-.08.47-.32.77-.71.91-.34.12-.71.1-1.12-.04-.04-.01-.06-.04-.06-.09v-1.6c0-.05.02-.09.07-.1.58-.2 1.01-.22 1.29-.05.09.06.1.1.11.1.05.02.06 0 .06-.05v-.41c0-.08.03-.13.09-.15a3.4 3.4 0 0 1 1.55-.34c.57.02.98.23 1.36.63Zm-1.49 2.11c.32-.12.55-.35.68-.7.14-.37.07-.7-.2-.97-.23-.2-.53-.28-.93-.2-.04 0-.14.03-.15.08v1.8c0 .05.08.08.12.08.13.02.29-.01.48-.09Zm-2.4-.4c.36-.1.52-.31.48-.63-.02-.2-.09-.34-.2-.4-.12-.06-.25-.05-.4.03-.04.01-.06.05-.06.1v.74c0 .14.06.2.18.16Z" fill="#004EA2"/></svg>