<!-- by TradingView --><svg width="18" height="18" viewBox="0 0 18 18" xmlns="http://www.w3.org/2000/svg"><path fill="#F0F3FA" d="M0 0h18v18H0z"/><path d="M7.96 6 4 12h10l-3.96-6H7.96Z" fill="url(#aoir2lhff)"/><path d="m4.03 12 2.04-1.06c1.12-.63 3.62-2.1 4.6-2.9l.46-.39L10.04 6H7.96L4 12h.03Z" fill="url(#boir2lhff)"/><path d="M11.23 7.8A58.79 58.79 0 0 0 6.76 12H14l-2.77-4.2Z" fill="url(#coir2lhff)"/><path d="m8.54 12 2.69-3.8L7.8 12h.74Z" fill="#003201"/><path d="M12.4 9.57c-1.12.9-3.22 1.91-4.36 2.43H14l-1.6-2.43Z" fill="url(#doir2lhff)"/><path d="M12.9 10.33 11.5 12H14l-1.1-1.67Z" fill="url(#eoir2lhff)"/><path d="M4.93 10.59c.8-.6 1.92-1.42 2.63-1.85.82-.5 2.02-1.63 2.74-2.36L10.04 6H7.96l-3.03 4.59Z" fill="url(#foir2lhff)"/><path d="M9.88 5.5H8.12L9.06 4l.82 1.5Z" fill="url(#goir2lhff)"/><defs><linearGradient id="aoir2lhff" x1="5.13" y1="11.59" x2="10.27" y2="7.69" gradientUnits="userSpaceOnUse"><stop stop-color="#004A00"/><stop offset="1" stop-color="#2FCC53"/></linearGradient><linearGradient id="boir2lhff" x1="8.75" y1="7.89" x2="9.83" y2="8.85" gradientUnits="userSpaceOnUse"><stop stop-color="#069C14"/><stop offset=".59" stop-color="#2FCC53"/><stop offset=".97" stop-color="#6AE695"/></linearGradient><linearGradient id="coir2lhff" x1="9.54" y1="9.48" x2="11.83" y2="10.99" gradientUnits="userSpaceOnUse"><stop offset=".02" stop-color="#15BF2E"/><stop offset="1" stop-color="#005404"/></linearGradient><linearGradient id="doir2lhff" x1="11.02" y1="10.49" x2="12.33" y2="12.33" gradientUnits="userSpaceOnUse"><stop stop-color="#24BE3F"/><stop offset=".3" stop-color="#1AA535"/><stop offset=".73" stop-color="#00540B"/></linearGradient><linearGradient id="eoir2lhff" x1="12.12" y1="10.91" x2="13.81" y2="12.16" gradientUnits="userSpaceOnUse"><stop stop-color="#18B733"/><stop offset="1" stop-color="#004500"/></linearGradient><linearGradient id="foir2lhff" x1="7.37" y1="6.78" x2="8.31" y2="8.11" gradientUnits="userSpaceOnUse"><stop stop-color="#008502"/><stop offset="1" stop-color="#02D226"/></linearGradient><linearGradient id="goir2lhff" x1="8.58" y1="4.39" x2="9.24" y2="5.51" gradientUnits="userSpaceOnUse"><stop stop-color="#0E8821"/><stop offset="1" stop-color="#24BE3F"/></linearGradient></defs></svg>