<!-- by TradingView --><svg width="18" height="18" viewBox="0 0 18 18" xmlns="http://www.w3.org/2000/svg"><path fill="#F0F3FA" d="M0 0h18v18H0z"/><path d="M6 4 5 6h3.23c.45 0 .86.23 1.08.6l3.12 5.01c.14.24.28.39.57.39l.84-1.29-3.02-4.58c-.08-.13.02-.3.19-.3.07 0 .14.04.18.1l2.86 4.44L15 8.8l-2.53-3.7C12.2 4.67 11.71 4 11.17 4H6Z"/><path d="m12 14 1-2H9.77c-.45 0-.86-.24-1.08-.61l-3.12-5C5.43 6.15 5.3 6 5 6l-.84 1.29 3.02 4.58c.08.13-.02.3-.19.3a.21.21 0 0 1-.18-.1L3.95 7.63 3 9.2l2.53 3.7c.27.44.76 1.11 1.3 1.11H12Z" fill="#AB1630"/></svg>