<!-- by TradingView --><svg width="18" height="18" viewBox="0 0 18 18" xmlns="http://www.w3.org/2000/svg"><path fill="#F0F3FA" d="M0 0h18v18H0z"/><path fill-rule="evenodd" d="M15 9A6 6 0 1 1 3 9a6 6 0 0 1 12 0Zm-1 0A5 5 0 1 1 4 9a5 5 0 0 1 10 0Zm-1 0a4 4 0 1 1-8 0 4 4 0 0 1 8 0Zm-2.07.6A2.07 2.07 0 0 1 9 11c-.64 0-1.1-.16-1.5-.62l4.2-2.54A2.93 2.93 0 0 0 9 6c-1.22 0-2.26.76-2.7 1.84.1.05.3.2.49.34l.32.23C7.43 7.59 8.1 7 9 7c.64 0 .92.17 1.31.63L7.74 9.25l-1.44.9A2.93 2.93 0 0 0 9 12c1.19 0 2.2-.72 2.67-1.76l-.74-.63Z" fill="#005EC0"/></svg>