<!-- by TradingView --><svg width="18" height="18" viewBox="0 0 18 18" xmlns="http://www.w3.org/2000/svg"><path fill="#164684" d="M0 0h18v18H0z"/><path d="m12.73 9.52.25-.34c.09-.1.1-.1.06.03-.48 1.26-1.47 1.62-2.68 1.67a4.9 4.9 0 0 0-3.88 2.32.1.1 0 0 0 .05.11l.43.21a.1.1 0 0 0 .07 0 .1.1 0 0 0 .06-.04c.96-1.7 2.25-2.1 4-2.36.72-.1 1.32-.48 1.72-1.1.01-.02.04-.03.07-.01.02.01.03.03.02.06-.46 1.03-1.18 1.23-1.97 1.46-.4.1-.81.23-1.22.46a4.54 4.54 0 0 0-1.69 1.78.1.1 0 0 0 .07.1c.48.12.96.16 1.42.1a5.02 5.02 0 0 0 4.42-5.82c-.7-4.12-5.56-5.46-8.49-2.7-.28.27-.24.32.1.16 2.46-1.15 6.2-1.12 7.34 1.82.41 1.08-.1 2.25-1.22 2.59-.35.1-.7.16-1.07.16l-.69-.03c-.4-.02-.8-.05-1.2.02a5.77 5.77 0 0 0-3.52 1.89c-.03.03-.03.07 0 .1l.34.4c.03.04.07.04.1 0a5.5 5.5 0 0 1 4.02-1.99c1.06 0 2.46-.08 3.1-1.05Zm-8.32 1.3c1.12-.67 2.37-1.29 3.67-1.26l1.75.03c.7 0 1.15-.3 1.32-.93.21-.77 0-1.43-.65-1.98-1.66-1.4-4.14-.95-5.82.34-.96.74-.73 2.73-.36 3.77a.07.07 0 0 0 .04.04.06.06 0 0 0 .05 0Z" fill="#fff"/></svg>