<!-- by TradingView --><svg width="18" height="18" viewBox="0 0 18 18" xmlns="http://www.w3.org/2000/svg"><path fill="#F0F3FA" d="M0 0h18v18H0z"/><path d="M4.33 5c-.26 0-.33.22-.33.33v7.34c0 .26.22.33.33.33H5.5V5H4.33Z" fill="url(#a)"/><path d="M6.5 5H6v7h.5V5Z" fill="url(#b)"/><path d="M7 5v3h1.67c.5 0 1.21.07 1.21 1 0 1.17-1.47 1.38-1.47 1.71 0 .27.42.29.59.29h5V5.33c0-.26-.22-.33-.33-.33H7Z" fill="url(#c)"/><path d="M8.67 9H7v4h6.67c.26 0 .33-.22.33-.33V12H8.5c-.67 0-.97-.57-.97-1.29 0-.83.8-1.04 1.14-1.38.26-.26.1-.33 0-.33Z" fill="url(#d)"/><defs><linearGradient id="a" x1="12.33" y1="5.5" x2="5" y2="12.83" gradientUnits="userSpaceOnUse"><stop stop-color="#75B14B"/><stop offset="1" stop-color="#429637"/></linearGradient><linearGradient id="b" x1="12.33" y1="5.5" x2="5" y2="12.83" gradientUnits="userSpaceOnUse"><stop stop-color="#75B14B"/><stop offset="1" stop-color="#429637"/></linearGradient><linearGradient id="c" x1="12.33" y1="5.5" x2="5" y2="12.83" gradientUnits="userSpaceOnUse"><stop stop-color="#75B14B"/><stop offset="1" stop-color="#429637"/></linearGradient><linearGradient id="d" x1="12.33" y1="5.5" x2="5" y2="12.83" gradientUnits="userSpaceOnUse"><stop stop-color="#75B14B"/><stop offset="1" stop-color="#429637"/></linearGradient></defs></svg>