<!-- by TradingView --><svg width="18" height="18" viewBox="0 0 18 18" xmlns="http://www.w3.org/2000/svg"><path fill="#F0F3FA" d="M0 0h18v18H0z"/><path d="M13.86 3.3A8.3 8.3 0 0 1 13 5.73c-.6 1.07-1.32 2-2.16 2.78l-.08.08a790.89 790.89 0 0 1-3.36 3.2c-.79.75-1.54 1.55-2.24 2.41l-.65.78-.02.01-.03.01h-.02l-.02-.02-.03-.03-.01-.02a.06.06 0 0 1 0-.05l.01-.02.26-.27a.16.16 0 0 0 .05-.1c.02-.34-.08-.53-.24-.85l-.12-.23a3.07 3.07 0 0 1-.23-2.17l.3-1.2c.07-.3.06-.75-.03-1.33-.01-.06 0-.07.05-.03 1.63 1.38 1.43 3.26.74 5.1v.02h.02l.01.01h.01l.01-.01c.3-.54.5-.98.59-1.33.19-.76.4-1.52.62-2.27a5.95 5.95 0 0 1 2.31-3.28l1.68-1.14c.43-.27.86-.55 1.28-.84a9.25 9.25 0 0 0 2.06-1.91c.03-.04.06-.04.09 0 .04.07.05.16.02.27Z" fill="url(#a)"/><path d="M13.28 8.5a9.3 9.3 0 0 0 .58-5.2A8.3 8.3 0 0 1 13 5.73c-.6 1.07-1.32 2-2.16 2.78l-.08.08a794.5 794.5 0 0 1-3.36 3.2c-.79.75-1.54 1.55-2.24 2.41l.71-.44c.26-.15.51-.27.75-.36a19.52 19.52 0 0 0 3.97-1.83.13.13 0 0 0 0-.07l-.16-1.13c0-.07.02-.1.09-.07l.52.2a.06.06 0 0 0 .06 0l.01-.02a.07.07 0 0 0 .01-.03v-.02L10.78 9l1.54.27a.05.05 0 0 0 .05-.02v-.05l-.2-.57v-.02a.05.05 0 0 1 .02-.04h.99c.05 0 .08-.03.1-.08Z" fill="url(#b)"/><defs><linearGradient id="a" x1="13.45" y1="3.96" x2="4.62" y2="12.64" gradientUnits="userSpaceOnUse"><stop stop-color="#8CC220"/><stop offset="1" stop-color="#009544"/></linearGradient><linearGradient id="b" x1="14" y1="5.21" x2="6.01" y2="12.91" gradientUnits="userSpaceOnUse"><stop stop-color="#FFE200"/><stop offset="1" stop-color="#F7AB00"/></linearGradient></defs></svg>