<!-- by TradingView --><svg width="18" height="18" viewBox="0 0 18 18" xmlns="http://www.w3.org/2000/svg"><path fill="#F0F3FA" d="M0 0h18v18H0z"/><path d="M6.5 7.64c-.23 1.7-.4 3.4-.5 5.07a.3.3 0 0 1-.3.29H4.3a.31.31 0 0 1-.3-.33l.55-7.39c.02-.19.12-.28.3-.28h2.9c.22 0 .34.11.38.32l.61 4.14c.08.53.2.54.37.03l1.4-4.2c.07-.2.2-.29.4-.29h2.8c.2 0 .3.1.29.3l-.37 7.4c0 .16-.15.3-.3.3h-1.74c-.2 0-.3-.12-.28-.32.1-1.76.26-3.47.46-5.12 0-.02 0-.03-.02-.03l-.13-.03c-.07-.02-.12.01-.15.08l-1.83 5.2a.33.33 0 0 1-.31.22H7.85c-.18 0-.28-.1-.31-.27l-.88-5.1c-.05-.33-.1-.33-.15 0Z" fill="#E8340C"/></svg>