<!-- by TradingView --><svg width="18" height="18" viewBox="0 0 18 18" xmlns="http://www.w3.org/2000/svg"><path fill="#F0F3FA" d="M0 0h18v18H0z"/><path fill-rule="evenodd" d="M9.67 4.33h3a1 1 0 0 1 1 1v7.34a1 1 0 0 1-1 1h-3v-1.1c1.22-.36 3.12-1.32 3-2.9-.14-1.74-1.83-2.73-2.67-3 .67.5 1.93 1.76 1.67 2.83-.23.91-1.29 1.48-2 1.73v-6.9ZM8.33 4h4.34C13.4 4 14 4.6 14 5.33v7.34c0 .73-.6 1.33-1.33 1.33H5.33C4.6 14 4 13.4 4 12.67V5.33C4 4.6 4.6 4 5.33 4h3Zm0 9.67h-3a1 1 0 0 1-1-1V5.33a1 1 0 0 1 1-1h3V6.1c-1.22.37-3.11 1.33-3 2.91.14 1.73 1.84 2.72 2.67 3-.66-.5-1.93-1.77-1.66-2.83.22-.91 1.28-1.48 2-1.74v6.24Z" fill="#EC1E11"/></svg>