<!-- by TradingView --><svg width="18" height="18" viewBox="0 0 18 18" xmlns="http://www.w3.org/2000/svg"><path fill="#F0F3FA" d="M0 0h18v18H0z"/><path d="M9.05 13.7a4.76 4.76 0 0 0 4.46-3.05l.42-.33A5.05 5.05 0 0 1 9.05 14 5.03 5.03 0 0 1 4 9a5.06 5.06 0 0 1 9.73-1.9l-.18.36a4.76 4.76 0 0 0-4.5-3.17A4.73 4.73 0 0 0 4.3 9c0 2.6 2.13 4.7 4.75 4.7Zm-.89-3.08c-1.9 0-2.87-.88-3.12-1.33.35.64 1.93 1.92 3.12 1.92 2.08 0 4.16-.45 5.5-1.92 1.07-1.17 1.14-2.25 1.04-2.64l-.3.59-.44-.45-.45 1.03-.6-.73-.59 1.32-.3-.59c-.49.93-1.96 2.8-3.86 2.8ZM5.2 6.94c.1.88.71 2.77 2.38 3.24-.9.05-2.62-.53-2.38-3.24Zm9.79-.3c.15 1.38-.34 4.2-3.55 4.42a4.3 4.3 0 0 0 3.55-4.41Zm-6.22 6.77a3.93 3.93 0 0 1 3.27-1.76c-.9-.25-2.8-.24-3.27 1.76Z" fill="#BA0058"/></svg>