<!-- by TradingView --><svg width="18" height="18" viewBox="0 0 18 18" xmlns="http://www.w3.org/2000/svg"><path fill="#F0F3FA" d="M0 0h18v18H0z"/><path d="M12.38 12.5a4.82 4.82 0 0 1-3.5 1.5 4.95 4.95 0 0 1-4.86-5.48L4 8.5h.02A4.85 4.85 0 0 1 12.8 6H15l-1.24 1.5H8.5l1.24 2h.78l-.78-1h3.72a4.77 4.77 0 0 0-.07-.5h.31a5.07 5.07 0 0 1-.52 3.4L13 12H7.25L4.31 8.83V9a4.64 4.64 0 0 0 4.58 4.69 4.5 4.5 0 0 0 3.05-1.19h.44Zm-3.5-8.19A4.62 4.62 0 0 0 4.34 8.5h1.68l2.3 2.3c.12.13.28.2.46.2h4.27c.2-.46.35-.97.4-1.5H11.6l.78 1H8.8L5.9 6.97c-.32-.39-.04-.97.48-.97h6.04A4.53 4.53 0 0 0 8.9 4.31Z" fill="#FB0512"/></svg>