<!-- by TradingView --><svg width="18" height="18" viewBox="0 0 18 18" xmlns="http://www.w3.org/2000/svg"><path fill="url(#auead1gvq)" d="M0 0h18v18H0z"/><path d="M5.21 6v.38H3v3h.63V6.75h3.8v2.63h.62v-3h-2.2V6H5.2ZM3.95 7.13l.31.37h.63l-.31-.38h-.63Zm2.2.37.32-.38h.64l-.32.38h-.63Zm-.3-.38H5.2v.76H3.95v.37h.63L4.26 9h.63l.32-.75V9h.63v-.75l.63.75h.64l-.64-.75h.64v-.37H5.84v-.75ZM5.2 9.38h.63v.37h2.21v.38h-1.9c.32.74 1.27 1.12 1.9 1.12V12c-1.26 0-2.4-.94-2.52-1.69C5.37 11.06 4.26 12 3 12v-.75c.53-.06 1.58-.38 1.9-1.13H3v-.37h2.21v-.37Zm7.26-3H9.95v3.37c0 .9-.21 1.88-.32 2.25h.63c.16-.38.32-1.56.32-2.25v-3H15v-.38h-1.9V6h-.63v.38Zm-1.58.75v.37h1.58v.38H10.9v.75h1.58V9H10.9v.38h1.58v1.87h-.31V12h.63c.1 0 .32-.15.32-.75V9.38h1.57v-.75H15v-.75h-.32v-.75h-1.57v-.2h-.64v.2H10.9Zm0 3v-.38h.95v.38L11.21 12h-.47l.63-1.88h-.48ZM14.37 12a3.95 3.95 0 0 1-.63-2.25H15v.38h-.63c.1.43.38 1.42.63 1.87h-.63ZM13.1 7.5h1.26v.38H13.1V7.5Zm0 1.13h1.26V9H13.1v-.37Z" fill="#fff"/><defs><linearGradient id="auead1gvq" x1="3.35" y1="3.12" x2="21.9" y2="24.43" gradientUnits="userSpaceOnUse"><stop stop-color="#1A1E21"/><stop offset="1" stop-color="#06060A"/></linearGradient></defs></svg>