<!-- by TradingView --><svg width="18" height="18" viewBox="0 0 18 18" xmlns="http://www.w3.org/2000/svg"><path fill="#F0F3FA" d="M0 0h18v18H0z"/><path d="M9 4.1c-.34 0-.67.03-1 .1.61 0 1.23.13 1.8.36a4.56 4.56 0 0 1 2.8 5.64c.39-3.35-2.54-3.46-3.5-4.78.42 1.53 1.52 1.85 2.12 2.65.36.48.54 1.42.28 2.31-.11.38-.3.72-.56 1.02a1.76 1.76 0 0 1-1.33.58c-1 0-1.73-.7-1.73-1.63a1.63 1.63 0 0 1 .92-1.44 1.67 1.67 0 0 1 1.92.3c0 .02.04.05.04.05s.04-.63-.45-.82c0 0 .5-.55-.57-.82-.86-.23-2.59-.13-2.38-1.32-.15.32-.6 1.03.38 1.64L7.6 8a2.68 2.68 0 0 0-1.61 2.6c.02.36.12.72.28 1.04A3.07 3.07 0 0 1 5.23 8c.18-.42.44-.8.78-1.1l.59-.53c.32-.27.7-.73.7-1.68V4a4.07 4.07 0 0 1-1.07 1.15A5.3 5.3 0 0 0 4.6 6.73a4.92 4.92 0 0 0 2.48 6.89 5.04 5.04 0 0 0 5.46-1.07A4.94 4.94 0 0 0 9 4.09Z" fill="#E60012"/></svg>