<!-- by TradingView --><svg width="18" height="18" viewBox="0 0 18 18" xmlns="http://www.w3.org/2000/svg"><path fill="#F0F3FA" d="M0 0h18v18H0z"/><path d="M8 13.72c0 .82 1.02 1.2 1.53 1.28-.1-.1-.28-.37-.28-.68 0-.73 1.12-1.25 1.68-1.48L11 11c-1.44.4-3 1.7-3 2.72Z" fill="url(#a)"/><path d="M13.37 9.78 14 7c-6.87.81-8 3.58-8 4.81 0 .99.83 1.87 1.25 2.19-.07-.16-.2-.58-.2-.93 0-1.93 4.21-3 6.32-3.3Z" fill="url(#b)"/><path d="M5 5.8V4c2.03 1.44 5.27.95 6 .72 0 1.92-.16 1.98-2.55 2.72C6.05 8.18 5.22 10.59 5 11c0-1.77.57-3.56 1.26-4.3-.92-.06-1.23-.62-1.26-.9Z" fill="url(#c)"/><defs><linearGradient id="a" x1="10.71" y1="10.99" x2="7.4" y2="12.94" gradientUnits="userSpaceOnUse"><stop stop-color="#004898"/><stop offset="1" stop-color="#008BD8"/></linearGradient><linearGradient id="b" x1="13.55" y1="8.19" x2="6.62" y2="12.99" gradientUnits="userSpaceOnUse"><stop stop-color="#004898"/><stop offset="1" stop-color="#008BD8"/></linearGradient><linearGradient id="c" x1="11" y1="7.5" x2="5" y2="7.5" gradientUnits="userSpaceOnUse"><stop stop-color="#AF1C25"/><stop offset="1" stop-color="#EE001F"/></linearGradient></defs></svg>