<!-- by TradingView --><svg xmlns="http://www.w3.org/2000/svg" width="18" height="18" viewBox="0 0 18 18"><path fill="#F0F3FA" d="M0 0h18v18H0z"/><path d="M10.72 11.37c-.05.35-.14.4-.37.1.3.04.28-.05.37-.1Zm1.46-3.96c.47-.15.56-.12.4.32-.22.54-1.15 1.14-1.63.85.73-.1 1.36-.35 1.65-1.06-.4.09-.57.08-.95.33-.25.17-.4.23-.54.45.2-.61.5-.7 1.07-.89Zm.82-.3c-.45-.03-2.02.46-2.2.9-.27-.51.03-1.19.34-1.49.42-.4.66-.48 1.18-.73.1-.53-.03-.53-.2-1.02-.14-.46 0-.76-.03-.85 0-.09 0-.15-.12-.24-.32.9-.18.64-.13 1.63 0 .04-.1.06-.13.09-.04.03-.07.1-.1.13-.07.05-.18.02-.23.06-.1.04-.08.1-.16.14-.07.05-.15.03-.24.08-.05.04-.08.18-.15.23-.04.05-.13.02-.2.1-.05.05-.05.14-.1.2-.04.05-.16.11-.2.17-.04.06-.03.2-.05.28-.03.06-.15.1-.18.16-.04.08 0 .33-.03.4-.12.32-.15.17-.32.42a2.5 2.5 0 0 1-.16-.2c-.06-.08-.04-.24-.1-.32-.04-.08-.16-.09-.2-.16-.04-.07-.01-.18-.04-.25-.04-.07-.13-.08-.17-.15-.04-.07-.05-.2-.1-.29-.04-.08-.17-.08-.23-.16-.05-.09-.04-.24-.1-.31-.07-.08-.2-.08-.26-.14-.06-.06-.07-.2-.14-.25-.07-.06-.18-.02-.27-.08-.1-.06-.18-.2-.3-.26-.1-.04-.25 0-.35-.04-.1-.03-.14-.14-.24-.16-.12-.03-.26-.02-.4-.03-.1-.9.32-.4-.39-1.86L6.16 3c.05.46.17.7.09 1.24-.06.42-.32.66-.19 1.07.25.44 2.53.7 2.64 2.77-.16-.2-.38-.45-.68-.53l.7.67c.81-.2 1.04-.24 1.95-.14-.11.32-.24.67-.31 1.05-.11.56-.04 1-.12 1.35-.12-.4-.4-2.29-.74-2.3-.2-.02-.29.6-.3.99l-.55-.3c0 .03.12.13.1.4.15.16.22.16.42.21-.17.99.47.6.67 2.03.15.09.23-.04.32.02-.08.09-.02.1-.16.13-.11.02-.15 0-.26-.03-.1-.47.07-.5-.24-.9-.27-.35-.25-.45-.61-.65-.44.41-1.7 2.13-1.3 3.11.17.43.25.67.42 1.17l1.93.64c.17-1.86-1.41-2.3-.65-3.76l.15.69c.4.13.65.26 1.07.1.72-.3-.01-.6.27-1.9.17-.78.12-.3-.05-.48-.2 1.01-.09 1.28-.27 1.52-.15-.26-.06-1.6.44-1.75l.03-.57c1.37-.26 1.9-.86 2.07-1.73Zm-2.88 4.1c-.24-.07-.13.13-.24-.32-.23-.87-.12-.52-.5-1.36.45.26.96 1.34.74 1.69Z" fill="#292978"/><path d="M10.09 14.96c.09-.12.08-.01.16-.32l.02-1.05c-.07-.64-.17-.61-.07-1.31l-.65-.06c.07 1.27.6.62.54 2.74ZM8.49 8.75c-.28-.93-.68-1.17-1.72-1.24.15.35.4.44.56.55.4.35.55.46.7.51.12.05.2-.12.46.18Z" fill="#292978"/><path d="M8.26 7.74c-.16-.21-.5-.42-.82-.44l-1.07-.07c.6 1.98.75 1.5 1.98 1.82-.1.98-.65 1.72-1.13 2.2L6 12.23v1.06c.5-.4 1.22-1.3 1.61-1.82.52-.71 1.01-1.44.93-2.63-.99.11-2.38-1.5-1.74-1.43l.81.1.65.23Z" fill="#292978"/></svg>