<!-- by TradingView --><svg width="18" height="18" viewBox="0 0 18 18" xmlns="http://www.w3.org/2000/svg"><path fill="#F0F3FA" d="M0 0h18v18H0z"/><path d="M2 8.5h10v1H2v-1Z" fill="#181B1E"/><path d="M7.71 7.21 3.5 11H8v1H2.67c-.38 0-.67-.3-.67-.7 0-.2.1-.4.24-.51L6.5 7H2V6h5.33c.38 0 .67.3.67.7 0 .3-.14.36-.29.51Z" fill="#181B1E"/><path d="M13.2 6h-1.54C10.45 6 9.37 6.78 9 8h1.03c.32-.66.93-1 1.63-1h1.5A1.9 1.9 0 0 1 15 8.95c0 1.12-.87 2.05-1.85 2.05h-1.49c-.75 0-1.35-.29-1.68-1H9c.33 1.27 1.4 2 2.66 2h1.54c1.54 0 2.8-1.37 2.8-3.05C16 7.37 14.74 6 13.2 6Z" fill="#EF7F24"/></svg>