<!-- by TradingView --><svg width="18" height="18" viewBox="0 0 18 18" xmlns="http://www.w3.org/2000/svg"><path fill="#F0F3FA" d="M0 0h18v18H0z"/><path d="M6.2 5c-.73.02-1.1.67-1.2 1h4.4a.5.5 0 0 0 .36-.16l.8-.84H6.2ZM6.8 6.71c-.73.02-1.1.58-1.2.86h2.22c.13 0 .26-.05.36-.14l.8-.72H6.8ZM13 13H7.18l2.08-2h1.27c1.82.11 2.4 1.38 2.47 2Z" fill="#6CB645"/><path d="m8.92 11-1.96 1.7c-.2.19-.49.3-.8.3-.63 0-1.14-.45-1.14-1s.51-1 1.14-1h2.76Z" fill="#2F8F45"/><path d="M11 5.35a1.13 1.13 0 0 1 1.64 0c.45.48.45 1.25 0 1.73l-3.48 3.63H5.8L11 5.35Z" fill="#6CB645"/></svg>