<!-- by TradingView --><svg xmlns="http://www.w3.org/2000/svg" width="18" height="18" viewBox="0 0 18 18"><path fill="#F0F3FA" d="M0 0h18v18H0z"/><path d="M14 13.6v-3.31l-.03-.07-.03-.06-.04-.06-.06-.04-.06-.03-.07-.02-.07-.01H10.3l-.07.03-.06.03-.05.04-.05.06-.03.06-.02.07-.01.07V13.71l.03.07.03.06.04.05.06.05.06.03.07.02.07.01h3.28l.07-.01.07-.02.06-.03.06-.05.04-.05.03-.06.02-.07.01-.07v-.04Z" fill="#F5AB18"/><path d="M4.32 14h3.42l.06-.02.06-.03.05-.04.04-.04.03-.06.01-.05.01-.06V9.24l-.02-.05-.03-.05-.03-.04-.04-.04-.05-.03-.05-.02L7.73 9H7.6l-.05.02-.05.03-.05.04-.04.04-.02.02-3.34 4.37-.03.05-.02.05-.01.06v.05l.01.06.02.05.03.04.04.04.05.04.05.02.06.02h.06Z" fill="#0F367A"/><path d="M13.46 4h-3.22l-.05.02-.06.03-.04.04-.04.05-.03.05-.01.05-.01.06v4.46l.02.05.02.05.03.04.04.04.05.03.05.02.05.01h.11l.05-.02.05-.03.04-.03.03-.04.02-.03 3.13-4.37.03-.05.02-.05.01-.06v-.05l-.01-.06-.02-.05-.03-.04-.04-.04-.04-.04-.05-.02L13.5 4h-.05Z"/><path d="M8 6v-.14l-.02-.15-.03-.14-.03-.14-.05-.14-.05-.13-.07-.13-.08-.12-.08-.12-.09-.11-.1-.1-.1-.1-.12-.1-.12-.08-.12-.07-.13-.06-.14-.05-.13-.05-.15-.03L6.25 4 6.11 4H5.82l-.14.03-.14.02-.14.04-.14.05-.13.06-.13.07-.12.07-.12.09-.1.1-.11.1-.1.1-.08.12-.08.12-.07.13-.06.13-.06.14-.03.13-.04.14-.02.14-.01.15v.14l.01.15.02.14.04.14.04.14.05.13.06.14.07.12.07.12.09.12.1.1.1.1.11.1.12.09.12.07.13.07.13.06.14.05.14.03.14.03.14.02.14.01h.15l.14-.01.14-.03.15-.04.13-.04.14-.05.13-.07.12-.07.12-.08.11-.09.11-.1.1-.1.1-.1.08-.12.08-.13.06-.13.06-.13.04-.14.04-.13.02-.15.01-.15L8 6Z" fill="#C7161D"/></svg>