<!-- by TradingView --><svg width="18" height="18" viewBox="0 0 18 18" xmlns="http://www.w3.org/2000/svg"><path fill="#F0F3FA" d="M0 0h18v18H0z"/><path d="M11.64 5.71c-.87-.7-1.9-.92-2.6-.9-1.89.09-2.96.9-3.55 1.84a4.8 4.8 0 0 0-.67 2.86.4.4 0 1 1-.8.07 5.6 5.6 0 0 1 .8-3.36C5.54 5.05 6.85 4.11 9.01 4c.84-.01 2.08.25 3.12 1.09C13.19 5.94 14 7.35 14 9.55a.4.4 0 1 1-.8 0c0-1.98-.71-3.15-1.56-3.84ZM6.7 9.12c.09-1.32.97-2.37 2.32-2.37.7 0 1.24.25 1.62.69.38.44.61 1.1.6 1.97v.02c.02.5.27 1.67 1.16 2.43a.4.4 0 0 0 .56-.04.4.4 0 0 0-.04-.57 2.81 2.81 0 0 1-.88-1.84 3.7 3.7 0 0 0-.8-2.5 2.85 2.85 0 0 0-2.22-.97c-1.86 0-3.01 1.48-3.12 3.13-.07 1-.8 1.67-1.15 1.87a.4.4 0 0 0-.16.54c.1.2.35.27.54.16a3.26 3.26 0 0 0 1.57-2.52Zm2.67-.39c-.07-.12-.18-.21-.41-.2-.18 0-.3.1-.4.34-.1.26-.13.59-.11.81v.06a4.19 4.19 0 0 1-.82 1.99c-.4.55-.85 1-1.15 1.24a.4.4 0 0 1-.57-.07.4.4 0 0 1 .07-.56c.25-.2.65-.6 1-1.08.34-.48.61-1.03.67-1.56-.02-.3.01-.74.16-1.12.16-.41.5-.84 1.13-.86.55-.01.92.26 1.12.61.19.33.22.7.2.94a.4.4 0 1 1-.8-.05.94.94 0 0 0-.1-.49Zm.9 1.26-.78.03a6.78 6.78 0 0 1-1.72 2.92l-.18.21-.39.46.57.19c1.81.59 3.44-.25 4.05-.75a.4.4 0 0 0 .05-.56c-.14-.17-.39-.14-.56 0-.4.34-1.46.83-2.67.68.42-.5.96-1.19 1.32-2.03.1.14.25.27.38.4l.22.2a3.3 3.3 0 0 1-.65.27c-.22.06-.26.18-.2.4.05.21.28.23.5.17.66-.16.92-.39 1.1-.57l.3-.27-.27-.25a3.72 3.72 0 0 1-1.07-1.5Z"/></svg>